<?xml version="1.0" encoding="UTF-8"?>
<svg width="256" height="256" viewBox="0 0 256 256" fill="none" xmlns="http://www.w3.org/2000/svg" version="1.2" baseProfile="tiny-ps">
<title>Linear</title>
<rect width="256" height="256" fill="#010102"/>
<path d="M178.923 187.397C179.665 188.139 180.854 188.184 181.631 187.48C182.62 186.585 183.591 185.66 184.545 184.707C215.818 153.433 215.818 102.729 184.545 71.4552C153.271 40.1816 102.567 40.1816 71.293 71.4552C70.3396 72.4086 69.4153 73.3801 68.52 74.3685C67.8162 75.1456 67.8612 76.3354 68.6025 77.0768L178.923 187.397Z" fill="white"/>
<path d="M168.567 197.101C169.671 196.45 169.838 194.937 168.932 194.031L61.9693 87.0676C61.0632 86.1615 59.5496 86.3291 58.8986 87.4328C57.4583 89.8745 56.1586 92.3762 54.9997 94.9262C54.6599 95.6738 54.8288 96.5513 55.4095 97.132L158.868 200.591C159.449 201.171 160.326 201.34 161.074 201C163.624 199.841 166.126 198.542 168.567 197.101Z" fill="white"/>
<path d="M143.973 206.545C145.497 206.235 146.019 204.366 144.92 203.267L52.7332 111.08C51.634 109.981 49.7648 110.503 49.4546 112.027C48.7784 115.347 48.3144 118.702 48.0624 122.069C48.0195 122.642 48.2328 123.204 48.6391 123.61L132.39 207.361C132.796 207.767 133.358 207.98 133.931 207.938C137.298 207.686 140.653 207.222 143.973 206.545Z" fill="white"/>
<path d="M109.62 206.055C111.503 206.495 112.666 204.261 111.298 202.893L53.1067 144.702C51.7394 143.334 49.5052 144.497 49.9452 146.38C53.2273 160.426 60.3433 173.757 71.293 184.707C82.2427 195.657 95.5744 202.773 109.62 206.055Z" fill="white"/>
</svg>
