<?xml version="1.0" encoding="UTF-8" standalone="yes"?>
<svg xmlns="http://www.w3.org/2000/svg" version="1.2" baseProfile="tiny-ps" viewBox="0 0 1024 1024" xml:space="preserve">
  <title>Nextdoor</title>
  <rect fill="#8ED500" width="1024" height="1024"/>
  <path fill="#FFFFFF" d="M556,248c-93.4,0-172.9,42.8-217.6,108.2c-3.6,5.5-10.1,17.2-18.5,17.2c-40.5,0-43.3-49.9-44.6-94.7&#10;&#9;c-0.2-3.2-1.5-6.2-3.8-8.5c-2.3-2.2-5.4-3.5-8.6-3.5l-118.3-0.6c-1.7,0-3.3,0.3-4.8,1c-1.5,0.6-2.9,1.6-4.1,2.8&#10;&#9;c-1.2,1.2-2.1,2.6-2.7,4.1c-0.6,1.5-0.9,3.2-0.9,4.9c3,109.5,23.3,183.8,155.6,213.4c3.5,0.8,6.7,2.8,8.9,5.7&#10;&#9;c2.2,2.8,3.5,6.4,3.4,10v245.8c0,3.3,1.4,6.5,3.7,8.8c2.4,2.3,5.5,3.6,8.8,3.6h114.9c3.3,0,6.5-1.4,8.8-3.7c2.3-2.3,3.7-5.5,3.7-8.8&#10;&#9;V499.6c0-56.3,40.5-120.4,116.1-120.4c72.4,0,116.1,64,116.1,120.4v253.9c0,3.3,1.4,6.5,3.7,8.8c2.3,2.3,5.5,3.7,8.8,3.7h114.9&#10;&#9;c3.3,0,6.5-1.4,8.8-3.7c2.3-2.3,3.7-5.5,3.7-8.8V480.8C812,350.4,700.5,248,556,248z"/>
</svg>
