<?xml version="1.0" encoding="utf-8"?>
<svg version="1.2" baseProfile="tiny-ps" id="Layer_1" xmlns="http://www.w3.org/2000/svg" viewBox="0 0 350 350">
<title>L.L.Bean</title>
<rect fill="#0c5641" stroke-width="0px" width="350" height="350"/>
<g>
  <path fill="#fff" stroke-width="0px" d="m58.15,191.49c-.89,3.39-2,7.6-10.76,7.6h-12.22v-45.82c0-3.94,1.38-4.08,2.72-4.21.96-.09,2.04-.2,2.04-2.02v-1.8h-18.84v1.8c0,1.82,1.07,1.93,2.01,2.02,1.31.13,2.67.27,2.67,4.21v42.16c0,3.94-1.39,4.08-2.72,4.21-.96.09-2.04.2-2.04,2.03v1.8h42.57v-15.81h-2.23c-2.18,0-2.65,1.78-3.19,3.84Z"/>
  <path fill="#fff" stroke-width="0px" d="m73.18,193.71c-2.99,0-5.52,2.53-5.52,5.53s2.53,5.53,5.52,5.53,5.52-2.53,5.52-5.53-2.53-5.53-5.52-5.53Z"/>
  <path fill="#fff" stroke-width="0px" d="m119.74,191.49c-.89,3.39-2,7.6-10.76,7.6h-12.22v-45.82c0-3.94,1.38-4.08,2.72-4.21.96-.09,2.04-.2,2.04-2.02v-1.8h-18.84v1.8c0,1.82,1.07,1.93,2.01,2.02,1.31.13,2.67.27,2.67,4.21v42.16c0,3.94-1.39,4.08-2.72,4.21-.96.09-2.04.2-2.04,2.03v1.8h42.57v-15.81h-2.23c-2.18,0-2.65,1.78-3.19,3.84Z"/>
  <path fill="#fff" stroke-width="0px" d="m134.76,193.71c-2.99,0-5.52,2.53-5.52,5.53s2.53,5.53,5.52,5.53,5.52-2.53,5.52-5.53-2.53-5.53-5.52-5.53Z"/>
  <path fill="#fff" stroke-width="0px" d="m174.55,173.21c6.85-1.23,13.63-5.95,13.63-14.16,0-9.11-8.1-13.26-15.62-13.26h-27.01v1.7c0,1.72,1.03,1.83,1.93,1.91,1.25.12,2.55.25,2.55,3.94v42.55c0,3.69-1.29,3.82-2.55,3.94-.9.09-1.93.19-1.93,1.92v1.7h24.98c10.48,0,21.07-4.88,21.07-15.78,0-9.81-8.51-13.87-17.04-14.48Zm-6.3-23.52c6.82,0,10.42,3.69,10.42,10.66,0,8.28-6.6,11.23-12.78,11.23h-7v-21.9h9.36Zm-9.36,25.79h7.65c10.75,0,15.55,3.59,15.55,11.64s-4.62,12.45-13.02,12.45h-10.17v-24.09Z"/>
  <path fill="#fff" stroke-width="0px" d="m233.53,193.02c-2.74,3.31-6.65,7.1-12.55,7.1-3.99,0-7.47-1.45-10.07-4.2-3.26-3.45-5.04-8.87-4.79-14.56h29.99v-.23c.2-6.32-1.74-11.9-5.44-15.73-3.26-3.37-7.72-5.14-12.9-5.14-12.19,0-21.04,9.17-21.04,21.81s9.47,22.68,22.51,22.68c7.37,0,12.97-2.92,17.61-9.2l.14-.19-3.32-2.54-.15.18Zm-27.11-16.29c.55-6.02,3.68-12.34,10.83-12.34,2.66,0,4.82.86,6.4,2.56,2.03,2.17,3.05,5.73,2.82,9.78h-20.05Z"/>
  <path fill="#fff" stroke-width="0px" d="m282.87,199.11l-.5-.75-.2.18c-.66.57-1.22,1.07-2.18,1.07-.78,0-1.41-.25-1.93-.78-1.68-1.68-1.66-5.72-1.65-7.89v-13.98c0-5.02-1.7-16.7-17.48-16.7-2.05,0-5.36.52-8.13,1.69-3.4,1.43-5.19,3.48-5.19,5.92,0,2.6,2,4.48,4.75,4.48s4.99-1.97,5.26-4.89c.26-2.28.87-3.51,3.4-3.51,5.49,0,8.29,4.34,8.34,12.89-16.89,1.72-25.82,7.1-25.82,15.55,0,3.74,1.6,6.93,4.63,9.21,2.66,2.01,6.34,3.16,10.08,3.16,5.64,0,8.86-2.14,12.39-5.86,1.48,3.79,4.33,5.86,8.06,5.86,3.1,0,6.91-2.33,6.91-4.23,0-.52-.33-.93-.6-1.27-.05-.06-.1-.12-.13-.16Zm-24.81,1.02c-4.17,0-6.87-2.97-6.87-7.56,0-9.65,12.23-11.65,16.42-12.04v8.06c0,9.11-6,11.54-9.55,11.54Z"/>
  <path fill="#fff" stroke-width="0px" d="m328.89,199.43c-1.22-.17-2.48-.35-2.48-3.57v-23.66c0-7.81-4.85-11.94-14.01-11.94-5.17,0-9.26,1.54-13.19,4.99v-4.04l-12.52.36v1.97c0,1.7,1.01,1.89,1.9,2.06,1.15.22,2.35.44,2.35,3.57v26.69c0,3.09-1.17,3.33-2.29,3.56-.92.19-1.95.4-1.95,2.25v1.8h17.72v-1.8c0-1.94-1.14-2.1-2.15-2.24-1.24-.17-2.53-.35-2.53-3.57v-26.01c1.87-2.96,6.39-4.94,9.46-4.94,7.79,0,8.43,4.4,8.43,9.72v21.23c0,3.21-1.29,3.39-2.53,3.57-1.01.14-2.15.3-2.15,2.24v1.8h18.07v-1.8c0-1.94-1.12-2.1-2.11-2.24Z"/>
</g>
</svg>
