<?xml version="1.0" encoding="utf-8"?>
<!-- Generator: Adobe Illustrator 26.0.3, SVG Export Plug-In . SVG Version: 6.00 Build 0)  -->
<svg version="1.2" baseProfile="tiny-ps" id="Layer_1" xmlns="http://www.w3.org/2000/svg" xmlns:xlink="http://www.w3.org/1999/xlink"
	 viewBox="0 0 117.61 117.61" xml:space="preserve">
	 <title>Västsvenskahandelskammaren</title>
	 <g>
		<rect fill="#FDFDFE" width="117.83" height="117.83"/>
		<path fill="#155789" d="M74.69,37.8c-0.17,0.35-0.26,0.79-0.53,1.04c-2.38,2.22-4.81,4.39-7.19,6.61c-0.43,0.4-0.86,0.52-1.42,0.51
			c-1.49-0.02-2.98-0.01-4.52,0.17c0.28,0.17,0.57,0.31,0.82,0.52c0.68,0.56,0.71,1.71-0.06,2.12c-0.73,0.39-0.84,0.92-0.8,1.62
			c0.02,0.39,0.03,0.79,0,1.19c-0.08,1.04,0.16,1.9,0.77,2.81c1.23,1.83,1.09,3.93,0.65,5.99c-0.24,1.11-0.57,2.22-0.99,3.27
			c-0.53,1.34-0.73,2.69-0.69,4.12c0.05,1.99-0.2,3.93-0.82,5.85c-0.31,0.95-0.39,1.98-0.47,2.99c-0.08,0.93,0.29,1.74,1.08,2.82
			c-0.27,0.21-0.53,0.44-0.81,0.64c-0.25,0.18-0.51,0.34-0.83,0.55c-0.28-0.16-0.58-0.32-0.87-0.5c-0.26-0.16-0.51-0.33-0.85-0.55
			c1.55-1.86,0.91-3.93,0.48-5.89c-0.47-2.11-1.01-4.16-0.94-6.35c0.05-1.45-0.34-2.85-0.92-4.22c-0.96-2.3-1.53-4.69-0.89-7.2
			c0.13-0.51,0.25-1.11,0.58-1.45c0.82-0.82,0.81-1.78,0.77-2.79c-0.02-0.57,0.04-1.15-0.02-1.71c-0.04-0.3-0.2-0.66-0.43-0.84
			c-1.36-1.06-1.34-1.79,0.12-3c-1.15-0.03-2.31-0.13-3.45-0.07c-1.04,0.06-1.83-0.24-2.6-0.94c-1.52-1.39-3.14-2.69-4.78-4.07
			c0.22-0.29,0.42-0.56,0.69-0.92c1.5,0.97,2.99,1.88,4.43,2.87c0.76,0.52,1.52,0.76,2.45,0.75c4.01-0.04,8.01-0.03,12.02-0.01
			c0.74,0,1.35-0.19,1.94-0.63c2.19-1.62,4.4-3.22,6.64-4.78c0.41-0.29,0.98-0.34,1.47-0.5L74.69,37.8z"/>
		<path fill="#155789" d="M77.03,59.53c4.71,0,9.19,0,13.82,0c-1.58,2.49-1.08,5.31-1.61,7.95c-0.8,3.98-2.14,7.69-4.92,10.75
			c-2.25,2.48-5.13,3.94-8.22,5.04c-1.48,0.53-2.99,1-4.59,1.52c0.21,0.43,0.41,0.79,0.57,1.17c0.52,1.22,0.34,2.01-0.64,2.81
			c-1.02,0.84-2.31,0.93-3.28,0.22c-0.94-0.68-1.33-1.86-0.98-2.91c0.33-0.99,1.05-1.58,1.98-1.99c2.4-1.05,4.65-2.36,6.32-4.41
			c4.03-4.97,5.33-10.57,3.6-16.79c-0.17-0.62-0.49-1.22-0.82-1.78C77.94,60.59,77.52,60.15,77.03,59.53z M88.16,62.68
			c0.02-0.99-0.78-1.85-1.77-1.89c-1.07-0.05-1.94,0.77-1.95,1.83c-0.01,1.01,0.76,1.85,1.77,1.9C87.25,64.57,88.14,63.73,88.16,62.68
			z M83.58,64.97c-1.02-0.03-1.78,0.7-1.79,1.69c-0.01,0.96,0.79,1.78,1.74,1.77c0.9,0,1.68-0.75,1.72-1.66
			C85.3,65.79,84.57,65,83.58,64.97z"/>
		<path fill="#155789" d="M46.36,85.05c-0.87-0.29-1.59-0.59-2.34-0.76c-3.39-0.77-6.47-2.18-9.21-4.35
			c-3.56-2.82-5.41-6.63-6.31-10.96c-0.4-1.93-0.62-3.9-0.85-5.86c-0.13-1.11-0.4-2.14-1.27-3.07c4.66,0,9.19,0,13.89,0
			c-1.44,1.61-2.26,3.4-2.5,5.38c-0.39,3.15,0.03,6.23,1.17,9.19c1.65,4.3,4.52,7.46,8.83,9.25c0.65,0.27,1.29,0.58,1.86,0.97
			c1.28,0.87,1.58,2.35,0.8,3.57c-0.75,1.18-2.26,1.55-3.47,0.87c-1.29-0.73-1.68-2.09-1-3.52C46.05,85.61,46.14,85.46,46.36,85.05z
			 M33.03,63.08c-0.01-1.08-0.93-2-2.01-1.99c-1.08,0.01-1.99,0.95-1.98,2.02c0.01,1.09,0.92,1.98,2.02,1.97
			C32.18,65.08,33.04,64.21,33.03,63.08z M34.15,65.59c-0.79,0.03-1.47,0.74-1.47,1.54c0,0.84,0.79,1.58,1.62,1.53
			c0.76-0.05,1.52-0.83,1.51-1.55C35.8,66.31,34.97,65.55,34.15,65.59z"/>
		<path fill="#155789" d="M74.71,37.82c-2.39-2.08-5.04-3.73-8.1-4.66c-3.41-1.03-6.86-1.56-10.39-0.66c-2.69,0.69-5,2.15-7.15,3.83
			c-1.59,1.24-3.05,2.64-4.71,4.08c-2.37-1.97-4.82-4-7.35-6.09c3.6-3.19,7.56-5.32,12.04-6.58c5.28-1.48,10.19-0.64,14.85,2.04
			c3.31,1.91,6.56,3.93,9.82,5.92c1.15,0.7,2.3,1.29,3.71,0.84c1.3-0.41,1.73-0.99,1.26-2.23c-0.4-1.05-1.06-1.99-1.63-2.97
			c-0.19-0.31-0.48-0.56-0.74-0.86c0.16-0.05,0.27-0.12,0.32-0.09c2.18,1.46,4.16,3.12,4.98,5.75c0.51,1.62-0.13,2.54-1.77,2.76
			c-1.4,0.19-2.69-0.13-3.96-0.67c-0.39-0.17-0.8-0.29-1.2-0.44L74.71,37.82z"/>
		<path fill="#155789" d="M56.14,80.04c0.9,0.65,1.82,1.31,2.78,2c0.86-0.72,1.67-1.4,2.45-2.05c2.13,0.46,4.17,3.71,3.77,6.32
			c-0.49,3.17-2.86,5.55-5.68,5.69c-3.17,0.16-5.85-1.83-6.62-4.92C52.13,84.23,53.49,81.3,56.14,80.04z"/>
		<path fill="#155789" d="M96.62,38.06c0.51,0.2,0.93,0.13,1.26-0.34c0.33-0.47,0.68-0.92,1.06-1.43c-0.28-0.5-0.55-0.99-0.84-1.48
			c-1.1-1.9-1.44-2.01-3.6-1.11c0.02,0.31,0.05,0.65,0.07,0.94c-1.39-1.64-2.81-3.3-4.08-4.8c0.25-0.49,0.64-0.91,0.66-1.35
			c0.08-1.35,0.03-2.72,0.03-4.35c-1.29,1.07-2.35,2.01-3.19,3.12c-0.35-0.36-0.82-0.84-1.22-1.26c2.3-1.45,4.06-3.66,6.07-5.59
			c0.23-0.22,0.21-0.72,0.33-1.18c0.49,0.62,0.96,1.22,1.37,1.73c-0.88,0.77-1.93,1.69-2.97,2.61c0.04,0.09,0.07,0.18,0.11,0.27
			c1.38,0.04,2.76,0.14,4.14,0.11c0.86-0.02,0.88-0.12,0.81-1.23c0.72,0.79,1.53,1.28,1.96,2.31c-0.66-0.16-1.14-0.36-1.64-0.38
			c-1.4-0.05-2.8-0.02-4.3-0.02c-0.04,0.26-0.22,4.18-0.1,5.84c0.14,1.98,0.91,2.51,2.88,2.24c2.27-0.31,4.53-0.62,6.79-0.93
			c0.5-0.07,1.01-0.1,1.76-0.17c-2.06,3.16-4.46,5.76-6.23,8.85c-0.37-0.74-0.77-1.55-1.17-2.36L96.62,38.06z M99.35,35.8
			c0.82-1.12,1.56-2.12,2.45-3.34c-1.52,0.23-2.74,0.41-4.12,0.61C98.3,34.08,98.8,34.89,99.35,35.8z"/>
		<path fill="#155789" d="M88.59,101.97c-0.34,0.26-0.76,0.59-1.22,0.95c-0.29-1.84-4.25-6.89-6.09-7.27c0.6-0.46,1.1-0.85,1.66-1.28
			c1.18,0.59,2.35,1.18,3.52,1.76c1.14,0.56,2.28,1.11,3.59,1.73c-0.05-0.46-1.01-4.59-1.46-6.33c-0.39-1.51-0.4-1.51,0.97-2.39
			c0.4,0.66,4.54,7.81,6.25,7.02c-0.7,0.56-1.39,1.11-2.13,1.7c-0.13-0.54-0.1-1.03-0.33-1.32c-1.19-1.57-2.44-3.09-3.67-4.63
			c-0.09,0.04-0.18,0.07-0.28,0.11c0.63,2.58,1.26,5.15,1.95,7.99c-2.51-1.22-7.41-3.52-7.87-3.62
			C83.83,96.67,88.07,101.55,88.59,101.97z"/>
		<path fill="#155789" d="M83.57,105.03c-0.64,0.24-1.35,0.5-2.03,0.75c0-0.6,0.12-1.08-0.02-1.45c-0.68-1.75-1.44-3.48-2.31-5.21
			c-0.26,2.32-0.43,5.44-0.56,8.11c-2.07-1.88-3.98-3.62-5.9-5.36c-0.13,0.13-0.24,0.21-0.23,0.24c0.7,1.75,1.38,3.51,2.15,5.23
			c0.17,0.37,0.65,0.6,1.05,0.96c-0.56,0.22-1.11,0.44-1.59,0.62c-0.1-0.67-0.08-1.23-0.26-1.71c-0.7-1.8-1.46-3.57-2.23-5.35
			c-0.52-1.2-0.53-1.19-1.81-1.27c0.02-0.04,1.78-2,3.95,0.41c1.39,1.27,2.78,2.53,4.35,3.96c0.11-2.83,0.2-5.43,0.3-8.12
			c0.49-0.17,0.96-0.33,1.31-0.46C81,99.34,81.93,102.24,83.57,105.03z"/>
		<path fill="#155789" d="M50.31,101.04c1.19,0.1,2.37,0.2,3.56,0.31c-0.88,0.21-1.18,0.76-1.2,1.6c-0.02,0.87-0.14,1.74-0.24,2.91
			c1.32-1.1,2.43-2.01,3.52-2.94c0.34-0.29,0.64-0.66-0.12-1.14c1.01,0,1.85,0,2.7,0c-1.59,1.26-3.13,2.47-4.8,3.79
			c1.95,1.89,3.1,4.42,5.65,5.77c-1.4-0.12-2.8-0.23-4.58-0.38c1.02-0.38,1.17-0.79,0.64-1.39c-0.95-1.08-1.88-2.19-2.93-3.26
			c-0.08,1.47-0.9,2.93,0.23,4.46c-1.14-0.11-2.2-0.21-3.27-0.31c0.97-0.1,1.27-0.65,1.33-1.51c0.15-2.1,0.31-4.21,0.55-6.3
			C51.45,101.75,50.96,101.42,50.31,101.04z"/>
		<path fill="#155789" d="M23,83.01c0.91,1.14,1.94,2.29,2.8,3.55c1.55,2.27,1.2,4.45-0.87,6.19c-1.99,1.68-4.4,1.62-6.29-0.24
			c-1.03-1.02-1.92-2.17-2.8-3.18c0.8-0.56,1.57-1.03,2.27-1.59c1.31-1.04,2.61-2.1,3.85-3.21C22.37,84.17,22.6,83.61,23,83.01z
			 M23.54,85c-2.06,1.72-4.07,3.39-6.06,5.05c0.92,1.93,2.17,2.79,3.78,2.67c1.77-0.13,3.79-1.81,4.23-3.5
			C25.9,87.63,25.26,86.19,23.54,85z"/>
		<path fill="#155789" d="M11.29,61.21c1.02,0,1.93,0,2.85,0c0.78,0,1.29-0.3,1.38-1.18c0.06,1.21,0.13,2.43,0.2,3.93
			c-0.37-0.6-0.51-1.06-0.81-1.25c-0.3-0.19-0.76-0.13-1.16-0.13c-1.93,0-3.87,0.03-5.8,0.03c-0.82,0-1.64-0.06-1.76,1.1
			c0-1.17,0-2.33,0-3.57c0.25,0.35,0.41,0.79,0.72,0.94c0.36,0.18,0.85,0.15,1.28,0.16c0.7,0.02,2.27-0.07,2.44-0.14
			c0-1.35,0-2.73,0-4.25c-1.1,0-2.23-0.09-3.34,0.04c-0.43,0.05-0.81,0.6-1.18,0.9c0-1.05,0-2.24,0-3.42
			c0.24,1.06,1.02,1.14,1.92,1.12c1.93-0.05,3.87-0.06,5.8-0.04c0.83,0.01,1.51-0.09,1.68-1.1c0,0.94,0,1.88,0,2.9
			c-1.35-0.79-2.77-0.34-4.22-0.44C11.29,58.32,11.29,59.73,11.29,61.21z"/>
		<path fill="#155789" d="M104.76,84.07c0.12-0.9-0.36-1.34-1.15-1.68c-1.85-0.8-3.68-1.66-5.53-2.46c-0.52-0.22-1.08-0.32-1.67-0.49
			c0.51-1.06,0.98-2.13,1.53-3.16c0.24-0.46,0.57-0.91,0.96-1.23c1.34-1.1,3.21-0.46,3.63,1.22c0.1,0.42,0.09,0.86,0.15,1.46
			c1.79-0.33,3.6-0.48,5.27-1.4c-0.12,1.46-0.27,1.65-1.5,1.91c-1.2,0.26-2.41,0.48-3.6,0.79c-0.4,0.11-1.08,0.95-1.07,1.08
			c1.31,0.51,2.61,1.02,4.05,1.58C105.51,82.37,105.14,83.22,104.76,84.07z M101.28,79.87c0.52-1.06,0.93-2.07,0.12-3.1
			c-0.49-0.62-1.17-0.92-1.97-0.74c-1.17,0.26-1.51,1.16-1.7,2.25C98.92,78.81,100.07,79.32,101.28,79.87z"/>
		<path fill="#155789" d="M77.23,62.57c0,1.75-1.42,3.19-3.18,3.19c-1.72,0.01-3.19-1.47-3.2-3.2c0-1.74,1.43-3.14,3.21-3.14
			C75.88,59.42,77.22,60.76,77.23,62.57z"/>
		<path fill="#155789" d="M101.52,64.14c-0.01-0.13-0.49-2.47,1.46-3.6c1.9-1.31,3.62-2.87,5.36-4.55c-1.82,0-3.64-0.04-5.46,0.03
			c-0.42,0.02-0.82,0.44-1.24,0.68c0-0.76,0-1.65,0-2.72c0.28,0.5,0.4,1,0.7,1.18c0.59,0.35,8.55,0.3,9.1,0.33
			c-2.69,2.18-5.14,4.17-7.59,6.15c0.02,0.08,0.05,0.16,0.07,0.23c1.96,0,3.91,0.05,5.87-0.04c0.43-0.02,0.84-0.52,1.19-0.76
			c0,0.72,0,1.66,0,2.61c-0.16-1.17-1.03-1.17-1.86-1.18c-1.93-0.02-3.87-0.05-5.8,0.01c-0.4,0.01-0.85,0.34-1.16,0.65
			c-0.25,0.25-0.32,0.68-0.46,1.03C101.63,64.18,101.57,64.16,101.52,64.14z"/>
		<path fill="#155789" d="M96.13,56.29c-0.03,1.79-1.44,3.17-3.21,3.13c-1.69-0.04-3.18-1.6-3.13-3.28c0.05-1.78,1.45-3.09,3.27-3.07
			C94.88,53.11,96.16,54.44,96.13,56.29z"/>
		<path fill="#155789" d="M43.4,66.03c-1.76,0.03-3.14-1.26-3.2-2.98c-0.06-1.77,1.35-3.26,3.09-3.27c1.66-0.02,3.11,1.42,3.14,3.09
			C46.46,64.57,45.09,66,43.4,66.03z"/>
		<path fill="#155789" d="M16.45,76.45c-1.53,0.76-3.05,1.55-4.6,2.28c-0.74,0.35-1.17,0.79-1.01,1.74c-0.31-0.61-0.61-1.23-0.85-1.7
			c1.18-0.53,5.24-2.55,6.22-2.93c1.2-0.47,1.79-1.21,1.56-2.58c0.2,0.32,0.38,0.65,0.59,0.95c0.47,0.68,0.46,1.32,0.09,2.08
			c-0.95,1.98-2.92,6.57-3.1,7.02c0.4-0.11,3.31-1.39,4.46-2.03c0.52-0.29,0.93-0.77,1.46-1.21c0.17,0.34,0.41,0.82,0.64,1.28
			c-0.72,0.22-1.39,0.34-1.98,0.62c-1.94,0.93-6.38,3.16-7,3.45c1.33-3.1,2.54-5.9,3.75-8.69c0.03-0.11,0.07-0.22,0.1-0.32
			C16.68,76.43,16.56,76.44,16.45,76.45z"/>
		<path fill="#155789" d="M24.41,59.77c-1.75-0.02-3.08-1.36-3.07-3.09c0.01-1.69,1.42-3.07,3.13-3.07c1.69,0,3.13,1.4,3.16,3.07
			C27.66,58.42,26.23,59.79,24.41,59.77z"/>
		<path fill="#155789" d="M31.6,50.58c0,1.65-1.36,3.01-3.01,3.03c-1.74,0.01-3.08-1.34-3.07-3.09c0.01-1.72,1.27-2.98,3-2.99
			C30.29,47.51,31.6,48.82,31.6,50.58z"/>
		<path fill="#155789" d="M73.72,8.45c1.52,0.09,2.28,0.49,2.61,1.75c0.55,2.12,2.16,6.82,2.53,7.11c0.67-1.78,1.36-3.55,2-5.34
			c0.07-0.19-0.14-0.47-0.29-0.91c0.68,0.19,1.31,0.36,1.93,0.54c-0.92,0.25-1.13,1.01-1.4,1.69c-0.93,2.32-1.84,4.64-3.01,6.98
			c-0.97-3.03-1.94-6.05-2.91-9.1c-1.25,1.73-2.54,5.7-2.13,6.86c-0.68-0.25-1.27-0.46-1.76-0.65c0.4-0.54,0.89-1.02,1.14-1.6
			c0.71-1.6,1.29-3.26,2-4.87C74.84,9.98,74.8,9.23,73.72,8.45z"/>
		<path fill="#155789" d="M88.67,47.01c1.65-0.01,3.05,1.33,3.08,2.96c0.04,1.69-1.36,3.14-3.04,3.15c-1.69,0.01-3.09-1.41-3.08-3.11
			C85.65,48.37,87.02,47.01,88.67,47.01z"/>
		<path fill="#155789" d="M80.28,56.18c-0.03,1.69-1.42,3.08-3.05,2.96c-1.96-0.15-2.96-1.69-2.86-3.14c0.1-1.62,1.36-2.9,2.97-2.88
			C79.01,53.14,80.31,54.48,80.28,56.18z"/>
		<path fill="#155789" d="M39.99,59.46c-1.6-0.02-2.94-1.36-2.94-2.96c0-1.71,1.3-2.93,3.07-2.9c1.65,0.03,2.91,1.34,2.86,2.97
			C42.93,58.21,41.61,59.48,39.99,59.46z"/>
		<path fill="#155789" d="M109.16,73.09c-0.6-0.31-1.01-0.64-1.48-0.75c-2.14-0.52-4.28-0.98-6.43-1.44
			c-0.37-0.08-0.77-0.01-1.31-0.01c0.22-1.03,0.43-2.04,0.65-3.05c0.21-0.98,0.44-1.96,0.67-3.02c0.39,0.05,1.6,0.25,2.04,0.34
			c-1.69,0.55-1.69,0.55-2.08,2.28c-0.13,0.6-0.24,1.2-0.38,1.94c1.19,0.27,2.32,0.52,3.66,0.83c-0.04-1.38,1.33-2.68-0.32-3.98
			c0.95,0.21,1.91,0.41,2.86,0.62c-2.18,0.27-1.5,2.14-2.14,3.43c1.41,0.31,2.68,0.6,4.06,0.9c0.47-1.72,1.26-3.27,0.15-4.83
			c0.09-0.15,0.12-0.15,0.13-0.15c0.42,0.19,0.84,0.37,1.32,0.58C110.07,68.95,109.61,71.03,109.16,73.09z"/>
		<path fill="#155789" d="M48.79,100.69c-0.26,0.84-0.54,1.74-0.82,2.65c-0.06,0-0.12-0.01-0.18-0.01c-0.02-0.36-0.02-0.72-0.06-1.08
			c-0.13-1.16-1.02-2.16-2.11-2.17c-0.5,0-1.11,0.26-1.48,0.6c-0.48,0.44-0.27,1.06,0.09,1.56c0.26,0.35,0.55,0.68,0.85,1
			c0.45,0.48,0.92,0.94,1.36,1.43c1.2,1.32,1.38,2.56,0.55,3.65c-0.83,1.09-2.37,1.36-3.83,0.65c-0.39-0.19-0.73-0.5-1.13-0.68
			c-0.35-0.15-0.75-0.18-1.24-0.29c0.23-0.79,0.5-1.73,0.78-2.68c0.07,0,0.14,0,0.2,0c0.03,0.34,0.04,0.67,0.08,1.01
			c0.14,1.29,1.14,2.27,2.42,2.37c0.65,0.05,1.24-0.09,1.6-0.69c0.36-0.6,0.25-1.2-0.12-1.74c-0.3-0.43-0.68-0.8-1.03-1.19
			c-0.52-0.59-1.1-1.15-1.56-1.78c-0.7-0.94-0.73-1.98-0.13-2.82c0.65-0.9,1.58-1.29,2.65-1.04c0.62,0.15,1.17,0.57,1.77,0.82
			C47.84,100.44,48.26,100.53,48.79,100.69z"/>
		<path fill="#155789" d="M70.86,7.6c-0.09,0.77-0.16,1.35-0.23,1.94c-0.21-1.5-1.28-1.74-2.47-1.87c-0.6-0.06-1.2-0.19-1.89-0.3
			c-0.22,1.22-0.43,2.37-0.66,3.66c1.33,0.03,2.52,0.95,3.88-0.34c-0.17,1.07-0.3,1.88-0.42,2.69c-0.43-2.02-2.16-1.43-3.54-1.86
			c-0.24,1.35-0.47,2.62-0.72,4.03c1.68,0.25,3.17,1.19,4.77-0.04c0.06,0.08,0.13,0.16,0.19,0.23c-0.18,0.38-0.35,0.76-0.55,1.2
			c-2.19-0.39-4.29-0.76-6.3-1.12c0.27-0.65,0.62-1.23,0.75-1.86c0.39-1.89,0.71-3.8,1.02-5.7c0.09-0.55,0.39-1.22-0.63-1.51
			c0.08-0.09,0.17-0.18,0.25-0.27C66.46,6.84,68.59,7.21,70.86,7.6z"/>
		<path fill="#155789" d="M23.45,97.52c0.52,0.37,0.94,0.12,1.26-0.27c1.48-1.85,2.95-3.72,4.4-5.6c0.15-0.19,0.17-0.48,0.33-0.94
			c1.84,1.07,3.27,2.53,5.04,3.76c-0.34,0.48-0.62,0.87-0.9,1.26c0.05-2.2-1.98-2.43-2.98-3.7c-0.84,1.06-1.56,1.98-2.32,2.94
			c1.07,0.8,1.8,1.97,3.5,1.74c-0.55,0.69-0.97,1.22-1.62,2.03c0.31-2.02-1.23-2.33-2.22-3.35c-0.84,1.07-1.64,2.08-2.41,3.07
			c1.35,2.11,2.77,2.68,5,2.18c-0.27,0.2-0.53,0.41-0.81,0.6c-0.33,0.22-0.66,0.42-1.09,0.69c-1.68-1.31-3.38-2.62-5.06-3.95
			c-0.1-0.08-0.08-0.31-0.11-0.48L23.45,97.52z"/>
		<path fill="#155789" d="M34.31,56.62c-0.02,1.57-1.3,2.85-2.85,2.84c-1.54-0.01-2.85-1.31-2.88-2.85c-0.02-1.57,1.39-2.96,2.95-2.92
			C33.1,53.74,34.33,55.04,34.31,56.62z"/>
		<path fill="#155789" d="M45.23,17.63c-0.18-0.74-0.39-1.58-0.59-2.42c0.05-0.03,0.1-0.07,0.15-0.1c0.18,0.2,0.36,0.39,0.52,0.59
			c0.78,0.97,2.08,1.34,3.19,0.86c0.65-0.27,1.11-0.74,1.13-1.49c0.02-0.7-0.37-1.19-0.99-1.42c-0.78-0.29-1.59-0.49-2.38-0.74
			c-0.42-0.13-0.84-0.27-1.24-0.44c-1.16-0.51-1.77-1.4-1.68-2.42c0.1-1.12,1-2.12,2.18-2.35c0.47-0.09,0.97-0.01,1.44-0.06
			c0.45-0.05,0.89-0.19,1.47-0.31c0.14,0.75,0.3,1.58,0.5,2.64c-0.41-0.5-0.64-0.83-0.92-1.1C47.26,8.13,46,7.9,45.22,8.47
			c-0.38,0.28-0.69,0.79-0.8,1.25c-0.13,0.56,0.27,1,0.81,1.21c0.57,0.22,1.16,0.41,1.74,0.59c0.55,0.17,1.11,0.28,1.65,0.45
			c1.44,0.47,2.23,1.45,2.16,2.65c-0.07,1.2-1.1,2.31-2.47,2.56c-0.51,0.1-1.05,0.02-1.57,0.09C46.3,17.34,45.85,17.48,45.23,17.63z"
			/>
		<path fill="#155789" d="M31.04,25.22c-0.45-0.63-0.98-1.36-1.51-2.1c0.04-0.06,0.09-0.11,0.13-0.17c0.31,0.19,0.61,0.39,0.92,0.56
			c1.1,0.59,2.64,0.31,3.3-0.73c0.27-0.42,0.44-1.15,0.25-1.57c-0.18-0.41-0.84-0.82-1.31-0.85c-1-0.08-2.01,0.07-3.02,0.15
			c-1.94,0.16-3.1-0.51-3.37-1.96c-0.25-1.35,0.69-2.64,2.36-3.19c0.52-0.17,1.17-0.16,1.26-1.06c0.48,0.68,0.97,1.37,1.45,2.05
			c-0.07,0.07-0.13,0.15-0.2,0.22c-0.26-0.15-0.52-0.31-0.79-0.45c-0.82-0.43-1.63-0.31-2.39,0.14c-0.67,0.4-0.99,1.01-0.82,1.79
			c0.18,0.79,0.8,1.01,1.51,0.97c1.14-0.06,2.27-0.2,3.41-0.26c1.5-0.07,2.45,0.51,2.82,1.65c0.39,1.17-0.05,2.42-1.22,3.2
			c-0.5,0.33-1.12,0.49-1.66,0.78C31.83,24.6,31.51,24.88,31.04,25.22z"/>
		<path fill="#155789" d="M90.02,16.93c-0.44,0.66-0.96,1.44-1.49,2.22c-0.06-0.03-0.13-0.06-0.19-0.09c0.1-0.35,0.23-0.7,0.3-1.06
			c0.22-1.08-0.29-2.18-1.22-2.69c-0.6-0.33-1.19-0.34-1.73,0.08c-0.53,0.4-0.59,0.99-0.37,1.56c0.34,0.86,0.77,1.68,1.14,2.52
			c0.22,0.48,0.49,0.95,0.6,1.46c0.44,1.99-1.34,3.64-3.26,2.93c-0.78-0.29-1.41-0.97-2.1-1.5c-0.42-0.32-0.81-0.67-1.3-1.08
			c0.33-0.5,0.73-1.1,1.12-1.7c0.08,0.02,0.17,0.05,0.25,0.07c0,0.27,0.01,0.55,0,0.82c-0.04,1.17,0.57,2.16,1.62,2.63
			c0.6,0.27,1.29,0.36,1.71-0.16c0.31-0.39,0.49-1.03,0.44-1.54c-0.06-0.58-0.42-1.14-0.66-1.7c-0.3-0.68-0.67-1.34-0.9-2.05
			c-0.37-1.1-0.07-2.17,0.74-2.74c0.91-0.63,1.9-0.71,2.86-0.13c0.48,0.29,0.85,0.74,1.27,1.11C89.2,16.2,89.56,16.52,90.02,16.93z"/>
		<path fill="#155789" d="M83.1,56.01c0.01-1.54,1.2-2.75,2.73-2.78c1.55-0.03,2.87,1.27,2.85,2.82c-0.01,1.52-1.23,2.75-2.76,2.77
			C84.34,58.85,83.1,57.62,83.1,56.01z"/>
		<path fill="#155789" d="M66.86,107.21c-1.18,0.17-2.31,0.34-3.48,0.51c-0.14,0.49-0.27,0.95-0.39,1.41
			c-0.29,1.14-0.29,1.14,0.85,1.71c-0.83,0.1-1.65,0.21-2.46,0.31c0.36-0.76,0.72-1.32,0.9-1.93c0.65-2.28,1.24-4.57,1.86-6.86
			c0.12-0.45,0.27-0.9,0.47-1.55c0.29,0.42,4.11,8.31,6.23,9c-1.11,0.16-2.23,0.32-3.46,0.5C68.37,109.28,68.43,109.51,66.86,107.21z
			 M63.51,107.14c1.16-0.16,2.09-0.29,3.18-0.45c-0.7-1.17-1.32-2.21-1.95-3.25c-0.09,0.03-0.18-0.03-0.27,0
			C64.18,104.57,63.88,105.78,63.51,107.14z"/>
		<path fill="#155789" d="M35.65,49.12c1.54,0.02,2.76,1.26,2.73,2.78c-0.03,1.5-1.31,2.71-2.84,2.7c-1.52-0.01-2.77-1.3-2.72-2.8
			C32.87,50.25,34.09,49.1,35.65,49.12z"/>
		<path fill="#155789" d="M81.46,54.18c-1.54-0.08-2.62-1.32-2.54-2.91c0.08-1.47,1.32-2.59,2.8-2.52c1.55,0.07,2.72,1.33,2.63,2.85
			C84.27,53.12,83,54.26,81.46,54.18z"/>
		<path fill="#155789" d="M6.89,68.04c-0.19-0.81-0.33-1.39-0.44-1.86c0.72,0.27,1.43,0.64,2.18,0.79c2.33,0.45,7.86,1.38,8.5,1.51
			c-0.47,0.38-4.99,3.7-6.91,5.17c-0.59,0.45-1.02,1.11-1.52,1.67c-0.21-0.68-0.48-1.54-0.72-2.42c-0.02-0.09,0.24-0.35,0.28-0.34
			c1.27,0.63,1.69-0.74,2.71-0.99c-0.27-1.16-0.49-2.23-0.77-3.28c-0.05-0.2-0.33-0.42-0.54-0.47C8.77,67.62,7.87,67.31,6.89,68.04z
			 M10.71,67.96c0.24,1.04,0.46,2,0.73,3.15c1.15-0.84,2.12-1.56,3.33-2.45C13.25,68.4,12.1,68.2,10.71,67.96z"/>
		<path fill="#155789" d="M99.24,91.67c-0.43,0.72-0.87,1.44-1.26,2.09c-0.36-0.89-3.69-7.12-5.15-9.65
			c0.46,0.06,9.39,2.07,10.59,2.28c-0.51,0.68-1.07,1.45-1.69,2.28c-0.13-1.77-1.65-1.25-2.62-1.79c-0.73,0.98-1.44,1.92-2.13,2.85
			c0.75,2.13,1.09,2.42,2.29,1.97L99.24,91.67z M98.51,86.75c-1.36-0.33-2.54-0.62-4-0.97c0.76,1.31,1.36,2.36,2.06,3.58
			C97.28,88.4,97.84,87.64,98.51,86.75z"/>
		<path fill="#155789" d="M28.37,27.95c-0.82-1.07-1.97-1.85-2.8-1.39l-2.28,2.56c-0.25,0.82,0.46,1.97,1.59,2.59
			c-0.42,0.47-0.81,0.91-1.13,1.26c-0.23-0.82-2.91-7.37-4.12-10.04c0.49,0.11,5.75,1.91,8.07,2.75c0.83,0.3,1.66,0.65,2.6,0.17
			C29.69,26.51,29.08,27.18,28.37,27.95z M25.03,26.12c-1.35-0.48-2.47-0.89-3.89-1.4c0.62,1.39,1.12,2.5,1.69,3.76
			C23.58,27.67,24.23,26.98,25.03,26.12z"/>
		<path fill="#155789" d="M57.32,42.35c-1.01-0.32-1.83-0.57-2.63-0.82c-0.23-2.19,1.48-4.07,3.77-4.21c2.15-0.14,3.93,1.57,4.08,4.06
			c-0.85,0.29-1.74,0.58-2.7,0.9c0.44-1.38,0.31-2.14-0.41-2.69c-0.57-0.43-1.15-0.34-1.7,0.04C56.98,40.16,56.87,40.77,57.32,42.35z"
			/>
		<path fill="#155789" d="M58.75,6.03c0.79,0,1.57,0,2.36,0c0.08,0,0.15,0.06,0.12,0.05c-0.39,0.61-0.9,1.17-1.16,1.84
			c-0.9,2.29-2.81,7.55-3.01,8.05c-0.25-0.4-2.6-5.14-3.65-7.21C53,7.94,52.44,7.2,51.93,6.39c1.01,0,2.12,0,3.22,0
			c-0.6,0.24-1.06,0.57-0.73,1.29c0.88,1.89,1.8,3.77,2.98,5.68c0.23-0.63,1.52-4.1,1.91-5.22C59.72,6.98,59.69,6.94,58.75,6.03z"/>
		<path fill="#155789" d="M86.62,45.74c-0.01,1.54-1.12,2.65-2.66,2.66c-1.6,0.01-2.72-1.12-2.7-2.75c0.01-1.51,1.17-2.69,2.65-2.71
			C85.41,42.93,86.64,44.19,86.62,45.74z"/>
		<path fill="#155789" d="M33.33,43.57c1.54,0.03,2.61,1.14,2.58,2.7c-0.03,1.51-1.19,2.63-2.7,2.6c-1.47-0.04-2.65-1.27-2.62-2.72
			C30.62,44.65,31.8,43.54,33.33,43.57z"/>
		<path fill="#155789" d="M10.73,36.96c0.43-0.94,0.87-1.87,1.42-3.07c0.15,0.63,0.12,1.07,0.33,1.25c0.27,0.23,0.71,0.29,1.09,0.34
			c1.87,0.21,3.74,0.39,5.81,0.6c-0.24-0.43-2.46-3.42-3.5-4.61c-0.39-0.44-0.97-0.71-1.62-1.17c0.22-0.4,0.56-1.02,0.86-1.57
			c0.39,0.76,0.65,1.52,1.11,2.13c1.37,1.82,4.81,6.12,5.28,6.75c-1.74-0.16-7.44-0.76-8.84-0.84c-0.63-0.04-1.27,0.15-1.91,0.24
			L10.73,36.96z"/>
		<path fill="#155789" d="M41.88,19.06c-0.8,0.31-1.58,0.61-2.32,0.89c-0.06-0.59-0.01-1.02-0.16-1.36c-0.99-2.24-2.03-4.47-3.05-6.68
			c-2.01,0.59-2.37,0.66-2.29,2.41c-0.03-0.57-0.71-1.36-0.85-1.76c2.34-1.08,4.64-2.14,7.05-3.26c0.17,0.54,0.3,0.96,0.51,1.62
			c-1.33-0.83-2.21-0.19-3.22,0.36c1.08,2.32,2.14,4.63,3.26,6.91C40.97,18.52,41.42,18.7,41.88,19.06z"/>
		<path fill="#155789" d="M31.25,103.54c0.81,0.17,1.33-0.04,1.68-0.72c1.03-1.98,2.06-3.97,3.04-5.97c0.18-0.37,0.1-0.87,0.15-1.45
			c0.65,0.33,1.39,0.7,1.99,1c-1.28,0.94-3.98,7.18-4.14,7.54c1.87,1.79,3.26,2.03,5.6,0.85c-0.44,0.49-0.7,0.77-0.95,1.06
			c-0.29,0.33-0.57,0.67-0.86,1.02C35.48,105.7,33.37,104.62,31.25,103.54z"/>
		<path fill="#155789" d="M11.72,48.67c-1.41-0.01-2.5-1.09-2.49-2.49c0-1.36,1.14-2.47,2.53-2.47c1.43,0.01,2.45,1.06,2.45,2.5
			C14.2,47.66,13.16,48.68,11.72,48.67z"/>
		<path fill="#155789" d="M106.08,48.67c-1.42-0.03-2.45-1.11-2.42-2.53c0.04-1.42,1.12-2.46,2.54-2.42c1.39,0.04,2.49,1.18,2.45,2.55
			C108.61,47.66,107.5,48.7,106.08,48.67z"/>
		<path fill="#155789" d="M41.31,48.06c1.38,0,2.28,0.92,2.26,2.32c-0.02,1.32-0.92,2.24-2.22,2.25c-1.36,0.02-2.34-0.94-2.35-2.29
			C38.98,48.97,39.9,48.06,41.31,48.06z"/>
		<path fill="#155789" d="M78.17,49.86c0.02,1.27-0.92,2.29-2.17,2.35c-1.27,0.06-2.36-1-2.36-2.31c0-1.26,0.99-2.27,2.25-2.29
			C77.1,47.59,78.15,48.62,78.17,49.86z"/>
		<path fill="#155789" d="M28.26,43.2c1.03-0.01,1.93,0.89,1.93,1.93c0,0.99-0.83,1.84-1.83,1.88c-1.09,0.04-1.95-0.76-1.97-1.84
			C26.38,44.09,27.22,43.21,28.26,43.2z"/>
		<path fill="#155789" d="M92.73,65.04c-1.09-0.01-1.91-0.83-1.89-1.91c0.02-1.11,0.8-1.86,1.93-1.86c1.11,0.01,1.92,0.81,1.91,1.89
			C94.68,64.21,93.81,65.05,92.73,65.04z"/>
		<path fill="#155789" d="M26.62,63.7c0.01,1.06-0.73,1.85-1.77,1.88c-1.12,0.04-1.95-0.75-1.96-1.84c-0.01-1.1,0.82-1.92,1.92-1.9
			C25.82,61.86,26.61,62.66,26.62,63.7z"/>
		<path fill="#155789" d="M90.77,44.53c0.02,0.98-0.82,1.85-1.81,1.87c-1.02,0.02-1.83-0.76-1.85-1.8c-0.02-1.06,0.71-1.83,1.77-1.85
			C89.91,42.74,90.74,43.52,90.77,44.53z"/>
		<path fill="#155789" d="M10.78,37.01c-0.04,0.07-0.08,0.14-0.12,0.2c-0.04-0.05-0.08-0.09-0.12-0.14c0.07-0.04,0.13-0.08,0.2-0.11
			L10.78,37.01z"/>
		<path fill="#155789" d="M99.26,91.7c0.02-0.04,0.03-0.08,0.06-0.11c0.01-0.01,0.05,0,0.08-0.01c-0.05,0.03-0.1,0.06-0.16,0.09
			L99.26,91.7z"/>
		<path fill="#155789" d="M96.58,38.1c-0.07-0.04-0.13-0.08-0.2-0.11c0.04-0.05,0.08-0.09,0.12-0.14c0.04,0.07,0.08,0.14,0.12,0.21
			C96.62,38.06,96.58,38.1,96.58,38.1z"/>
		<path fill="#155789" d="M22.52,82.52c0.02,0.03,0.07,0.06,0.07,0.09c0,0.03-0.05,0.06-0.08,0.09c-0.03-0.03-0.08-0.07-0.08-0.1
			C22.43,82.57,22.49,82.55,22.52,82.52z"/>
		<polygon fill="#155789" points="23.46,97.51 23.42,97.47 23.45,97.52 "/>
		<path fill="#FDFDFE" d="M88.16,62.68c-0.02,1.05-0.91,1.89-1.96,1.84c-1.01-0.05-1.78-0.88-1.77-1.9c0.01-1.06,0.89-1.88,1.95-1.83
			C87.38,60.83,88.18,61.69,88.16,62.68z"/>
		<path fill="#FDFDFE" d="M83.58,64.97c0.99,0.03,1.72,0.82,1.68,1.81c-0.04,0.91-0.82,1.66-1.72,1.66c-0.95,0-1.75-0.81-1.74-1.77
			C81.8,65.67,82.56,64.95,83.58,64.97z"/>
		<path fill="#FDFDFE" d="M33.03,63.08c0.01,1.12-0.85,2-1.97,2c-1.1,0.01-2.01-0.88-2.02-1.97c-0.01-1.08,0.91-2.01,1.98-2.02
			C32.1,61.08,33.02,62,33.03,63.08z"/>
		<path fill="#FDFDFE" d="M34.15,65.59c0.83-0.03,1.65,0.72,1.66,1.52c0.01,0.72-0.75,1.51-1.51,1.55c-0.83,0.05-1.62-0.69-1.62-1.53
			C32.68,66.33,33.36,65.62,34.15,65.59z"/>
		<path fill="#FDFDFE" d="M99.35,35.8c-0.56-0.91-1.05-1.72-1.67-2.73c1.39-0.21,2.6-0.39,4.12-0.61
			C100.91,33.68,100.17,34.68,99.35,35.8z"/>
		<path fill="#FDFDFE" d="M23.54,85c1.72,1.19,2.36,2.63,1.95,4.21c-0.43,1.69-2.46,3.37-4.23,3.5c-1.61,0.12-2.87-0.73-3.78-2.67
			C19.47,88.4,21.48,86.72,23.54,85z"/>
		<path fill="#FDFDFE" d="M101.28,79.87c-1.22-0.55-2.36-1.06-3.55-1.59c0.19-1.09,0.54-1.99,1.7-2.25c0.8-0.18,1.48,0.12,1.97,0.74
			C102.21,77.8,101.8,78.8,101.28,79.87z"/>
		<path fill="#FDFDFE" d="M16.45,76.45c0.11-0.01,0.22-0.03,0.33-0.04c-0.03,0.11-0.07,0.22-0.1,0.32
			C16.61,76.64,16.53,76.55,16.45,76.45z"/>
		<path fill="#FDFDFE" d="M63.51,107.14c0.37-1.36,0.67-2.48,0.98-3.6c0.09-0.03,0.17-0.07,0.26-0.1c0.62,1.04,1.25,2.08,1.95,3.25
			C65.6,106.85,64.67,106.98,63.51,107.14z"/>
		<path fill="#FDFDFE" d="M10.71,67.96c1.39,0.24,2.54,0.44,4.06,0.7c-1.21,0.89-2.18,1.6-3.33,2.45C11.17,69.96,10.95,69,10.71,67.96
			z"/>
		<path fill="#FDFDFE" d="M98.51,86.75c-0.67,0.9-1.23,1.65-1.94,2.6c-0.7-1.21-1.31-2.27-2.06-3.58
			C95.97,86.13,97.15,86.42,98.51,86.75z"/>
		<path fill="#FDFDFE" d="M25.03,26.12c-0.8,0.86-1.44,1.55-2.2,2.37c-0.57-1.27-1.07-2.38-1.69-3.76
			C22.56,25.23,23.68,25.63,25.03,26.12z"/>
		<circle fill="#155789" cx="19.52" cy="21.15" r="0.73"/>
		<circle fill="#155789" cx="18.03" cy="22.82" r="0.73"/>
	</g>
</svg>
