<svg xmlns="http://www.w3.org/2000/svg" xmlns:xlink="http://www.w3.org/1999/xlink" version="1.2" viewBox="0 0 96 96" baseProfile="tiny-ps">
  <title>Atheon Analytics</title>
  <rect y="0" width="96" height="96" fill="#FFFFFF"/>
  <polygon points="90,24 80.548,18.57 80.548,77.43 90,72 " fill="#059CD8"/>
  <polygon points="70.115,83.424 74.866,80.694 74.866,15.306 70.115,12.576 " fill="#059CD8"/>
  <polygon points="48.157,95.961 48.224,96 61.385,88.439 61.385,7.561 48.224,0 48.157,0.039 " fill="#059CD8"/>
  <polygon points="37.343,89.749 48.156,95.961 48.156,0.039 37.343,6.251 " fill="#81CFF4"/>
  <polygon points="30.079,85.576 33.184,87.359 33.184,8.641 30.079,10.424 " fill="#81CFF4"/>
  <polygon points="16.653,77.862 27.151,83.894 27.151,12.106 16.653,18.138 " fill="#81CFF4"/>
  <polygon points="11.393,21.16 6.449,24 6.449,72 11.393,74.84 " fill="#81CFF4"/>
</svg>