<svg xmlns="http://www.w3.org/2000/svg" xmlns:xlink="http://www.w3.org/1999/xlink" version="1.2" viewBox="0 0 360 360" baseProfile="tiny-ps">
  <title/>
  <rect x="0.429" y="-0.143" width="360" height="360"/>
  <g>
    <polygon points="99.676,155.381 133.663,155.381 136.851,135.871 77.592,135.871 63.729,223.595    89.005,223.595 93.789,192.555 121.027,192.555 123.97,174.028 96.733,174.028  " fill="#FFFFFF"/>
    <path d="M180.033,134.648c-29.447,0-50.18,21.591-50.18,52.017c0,24.539,19.137,38.402,42.448,38.402   c30.181,0,50.793-21.102,50.793-51.652C223.095,148.387,204.323,134.648,180.033,134.648z M174.022,205.316   c-11.902,0-18.038-7.976-18.038-19.63c0-16.318,7.976-31.532,23.311-31.408c12.271,0.12,17.669,8.955,17.669,19.995   C196.964,190.346,189.233,205.316,174.022,205.316z" fill="#FFFFFF"/>
    <path d="M265.351,168.506c-9.693-2.085-12.392-3.926-12.392-7.972c0-4.784,3.312-7.976,10.182-7.976   c6.625,0,10.551,2.823,11.044,9.448h22.942c0.12-18.772-12.516-27.358-33.249-27.358c-22.329,0-35.214,12.636-35.214,29.074   c0,14.601,7.732,21.471,29.078,26.01c9.324,1.965,12.392,4.171,12.392,8.466c0,5.767-3.926,9.079-11.533,8.955   c-10.062,0-13.619-5.398-13.863-11.409h-23.68c-0.12,18.283,13.129,29.323,36.93,29.323c23.925-0.12,36.806-12.636,36.806-30.55   C294.794,179.426,285.101,172.801,265.351,168.506z" fill="#FFFFFF"/>
  </g>
</svg>