<?xml version="1.0" encoding="utf-8"?>
<!-- Generator: Adobe Illustrator 27.9.0, SVG Export Plug-In . SVG Version: 6.00 Build 0)  -->
<svg version="1.2" baseProfile="tiny-ps" id="图层_1"
	 xmlns="http://www.w3.org/2000/svg" xmlns:xlink="http://www.w3.org/1999/xlink"  viewBox="0 0 100 100"
	  xml:space="preserve">
<title>HABBY PTE. LTD.</title>	
<g id="画板备份-3">
	<rect fill-rule="evenodd" fill="#FFFFFF" width="100" height="100"/>
	<g id="编组-4" transform="translate(28.2703, 20)">
		<g id="编组" transform="translate(0.5556, 54.7804)">
			<path id="Fill-3" fill-rule="evenodd" fill="#FF3925" d="M31.2,3.3h-0.2h-0.3c-0.1,0-0.1-0.1-0.1-0.1V2.5c0-0.1,0.1-0.1,0.1-0.1
				h0.3h0.2c0.3,0,0.5,0.2,0.5,0.5C31.7,3.1,31.5,3.3,31.2,3.3 M31.4,1.1c0,0.3-0.2,0.5-0.5,0.5h-0.3c-0.1,0-0.1-0.1-0.1-0.1V0.8
				c0-0.1,0.1-0.1,0.1-0.1H31C31.2,0.7,31.4,0.8,31.4,1.1 M32,1.8c0.1-0.2,0.2-0.4,0.2-0.7C32.2,0.5,31.6,0,31,0h-0.7h-0.1H30
				c-0.1,0-0.1,0.1-0.1,0.1v3.7C29.9,3.9,29.9,4,30,4h0.2h0.1h1c0.7,0,1.2-0.5,1.2-1.2C32.4,2.4,32.2,2,32,1.8"/>
			<path id="Fill-5" fill-rule="evenodd" fill="#FF3925" d="M12.1,2.4h-0.6c-0.1,0-0.1,0-0.1-0.1l0.3-0.7c0-0.1,0.1-0.1,0.1,0
				l0.3,0.7C12.2,2.4,12.2,2.4,12.1,2.4L12.1,2.4z M12,0.1C12,0,11.9,0,11.9,0c-0.1,0-0.1,0-0.2,0.1L9.8,3.9c0,0.1,0,0.1,0.1,0.1
				h0.6c0.1,0,0.1,0,0.2-0.1l0.3-0.5c0-0.1,0.1-0.1,0.2-0.1h1.4c0.1,0,0.1,0,0.2,0.1l0.2,0.5C13,3.9,13,4,13.1,4h0.6
				c0.1,0,0.1,0,0.1-0.1L12,0.1z"/>
			<path id="Fill-7" fill-rule="evenodd" fill="#FF3925" d="M2.9,0H2.4C2.3,0,2.3,0.1,2.3,0.1v1.3c0,0.1-0.1,0.1-0.1,0.1H0.9
				c-0.1,0-0.1-0.1-0.1-0.1V0.1C0.8,0.1,0.7,0,0.7,0H0.1C0.1,0,0,0.1,0,0.1v3.7C0,3.9,0.1,4,0.1,4h0.5c0.1,0,0.1-0.1,0.1-0.1V2.4
				c0-0.1,0.1-0.1,0.1-0.1h1.2c0.1,0,0.1,0.1,0.1,0.1v1.4C2.3,3.9,2.3,4,2.4,4h0.5C3,4,3,3.9,3,3.8V0.1C3,0.1,3,0,2.9,0"/>
			<path id="Fill-9" fill-rule="evenodd" fill="#FF3925" d="M42.4,0h-0.6c-0.1,0-0.1,0-0.2,0.1l-0.7,1.3c0,0.1-0.1,0.1-0.1,0
				l-0.7-1.3C40,0,39.9,0,39.9,0h-0.6c-0.1,0-0.1,0-0.1,0.1l1.2,2.3c0,0.1,0.1,0.2,0.1,0.2v1.2c0,0.1,0.1,0.1,0.1,0.1h0.5
				c0.1,0,0.1-0.1,0.1-0.1V2.6c0-0.1,0-0.2,0.1-0.2l1.2-2.3C42.5,0,42.4,0,42.4,0"/>
			<path id="Fill-11" fill-rule="evenodd" fill="#FF3925" d="M21.9,3.3h-0.2h-0.3c-0.1,0-0.1-0.1-0.1-0.1V2.5c0-0.1,0.1-0.1,0.1-0.1
				h0.3h0.2c0.3,0,0.5,0.2,0.5,0.5C22.4,3.1,22.2,3.3,21.9,3.3 M22.1,1.1c0,0.3-0.2,0.5-0.5,0.5h-0.3c-0.1,0-0.1-0.1-0.1-0.1V0.8
				c0-0.1,0.1-0.1,0.1-0.1h0.3C21.9,0.7,22.1,0.8,22.1,1.1 M22.6,1.8c0.1-0.2,0.2-0.4,0.2-0.7c0-0.6-0.5-1.2-1.2-1.2H21h-0.1h-0.2
				c-0.1,0-0.1,0.1-0.1,0.1v3.7c0,0.1,0.1,0.1,0.1,0.1h0.2H21h1c0.7,0,1.2-0.5,1.2-1.2C23.1,2.4,22.9,2,22.6,1.8"/>
		</g>
		<g id="矩形">
			<g id="蒙版">
				<path id="path-1_00000061456194091889864330000003789975102327673247_" fill-rule="evenodd" fill="#FF3925" d="M35.5,24.5
					c0,0.8-0.5,1.7-1.2,2.1l-10.9,6.3c-0.7,0.4-1.8,0.4-2.4,0l-10.9-6.3c-0.7-0.4-1.2-1.3-1.2-2.1v-4.7c0-0.8,0.5-1.7,1.2-2.1
					L21,11.4c0.7-0.4,1.8-0.4,2.4,0l10.9,6.3c0.7,0.4,1.2,1.3,1.2,2.1V24.5z M23.5,0.3c-0.7-0.4-1.8-0.4-2.4,0L1.2,11.7
					C0.5,12.1,0,13.1,0,13.9v26.1c0,0.8,0.5,1.7,1.2,2.1l6.5,3.8c0.7,0.4,1.2,0.1,1.2-0.7v-7c0-0.8,0.5-1.1,1.2-0.7L21,43.7
					c0.7,0.4,1.8,0.4,2.4,0l10.9-6.3c0.7-0.4,1.2-0.1,1.2,0.7v7c0,0.8,0.5,1.1,1.2,0.7l6.5-3.8c0.7-0.4,1.2-1.3,1.2-2.1V13.9
					c0-0.8-0.5-1.7-1.2-2.1L23.5,0.3z"/>
			</g>
		</g>
	</g>
</g>
</svg>
