<?xml version="1.0" encoding="utf-8"?>
<!-- Generator: Adobe Illustrator 27.4.0, SVG Export Plug-In . SVG Version: 6.00 Build 0)  -->
<svg version="1.2" baseProfile="tiny-ps" id="Logomark" xmlns="http://www.w3.org/2000/svg" xmlns:xlink="http://www.w3.org/1999/xlink"
	 viewBox="0 0 80 80" xml:space="preserve">
<title>[24]7.ai</title>
<rect width="80" height="80"/>
<polygon fill="#E77724" points="54.75,34.9 46.96,34.9 46.96,31.62 58.74,31.62 58.74,34.75 52.01,48.44 47.86,48.44 "/>
<path fill="#FFFFFF" d="M13.36,44.67l6.53-5.87c0.33-0.3,0.67-0.64,1-1.02c0.33-0.38,0.5-0.82,0.5-1.33c0-0.57-0.21-1.02-0.62-1.34
	c-0.41-0.32-0.9-0.49-1.45-0.49c-0.67,0-1.19,0.21-1.56,0.62c-0.37,0.41-0.58,0.92-0.63,1.52l-3.56-0.26
	c0.05-0.87,0.23-1.63,0.55-2.27c0.32-0.64,0.74-1.18,1.26-1.6c0.52-0.43,1.14-0.75,1.84-0.96c0.7-0.21,1.47-0.32,2.29-0.32
	c0.76,0,1.47,0.11,2.14,0.32c0.67,0.21,1.24,0.53,1.74,0.95c0.49,0.42,0.88,0.95,1.15,1.58c0.28,0.63,0.42,1.37,0.42,2.21
	c0,0.54-0.06,1.03-0.17,1.46c-0.11,0.44-0.27,0.83-0.46,1.19c-0.2,0.36-0.43,0.68-0.7,0.99c-0.27,0.3-0.56,0.59-0.88,0.88l-5.11,4.4
	h7.46v3.14H13.36V44.67z"/>
<path fill="#FFFFFF" d="M55.73,47.39c0-0.16,0.03-0.31,0.09-0.45c0.06-0.14,0.14-0.26,0.24-0.37c0.1-0.1,0.23-0.18,0.37-0.24
	c0.14-0.06,0.29-0.09,0.45-0.09c0.16,0,0.31,0.03,0.45,0.09c0.14,0.06,0.26,0.14,0.37,0.24c0.1,0.1,0.18,0.23,0.24,0.37
	c0.06,0.14,0.09,0.29,0.09,0.45s-0.03,0.31-0.09,0.45c-0.06,0.14-0.14,0.26-0.24,0.37c-0.1,0.1-0.23,0.18-0.37,0.24
	c-0.14,0.06-0.29,0.09-0.45,0.09c-0.16,0-0.31-0.03-0.45-0.09c-0.14-0.06-0.26-0.14-0.37-0.24c-0.1-0.1-0.18-0.22-0.24-0.37
	C55.76,47.69,55.73,47.54,55.73,47.39"/>
<path fill="#FFFFFF" d="M64.9,44.71c-0.2,0-0.45,0.01-0.75,0.03c-0.3,0.02-0.59,0.07-0.86,0.15c-0.28,0.08-0.51,0.21-0.7,0.37
	c-0.19,0.16-0.29,0.39-0.29,0.69c0,0.32,0.13,0.55,0.4,0.7c0.27,0.15,0.55,0.23,0.84,0.23c0.26,0,0.51-0.03,0.75-0.1
	c0.24-0.07,0.45-0.17,0.64-0.3c0.19-0.13,0.34-0.29,0.45-0.49c0.11-0.2,0.17-0.43,0.17-0.7v-0.56H64.9z M65.54,47.38h-0.03
	c-0.29,0.46-0.68,0.78-1.17,0.98c-0.49,0.2-1,0.3-1.54,0.3c-0.4,0-0.78-0.06-1.15-0.17c-0.37-0.11-0.69-0.28-0.97-0.5
	c-0.28-0.22-0.5-0.5-0.67-0.83c-0.16-0.33-0.25-0.71-0.25-1.14c0-0.49,0.09-0.91,0.27-1.25c0.18-0.34,0.43-0.62,0.74-0.84
	c0.31-0.22,0.66-0.4,1.06-0.52c0.4-0.12,0.81-0.21,1.24-0.27c0.43-0.06,0.85-0.09,1.28-0.11c0.43-0.01,0.82-0.02,1.19-0.02
	c0-0.47-0.17-0.84-0.5-1.12c-0.33-0.27-0.73-0.41-1.19-0.41c-0.43,0-0.83,0.09-1.18,0.27c-0.36,0.18-0.68,0.43-0.96,0.75l-1.4-1.44
	c0.49-0.46,1.06-0.8,1.72-1.03c0.66-0.23,1.33-0.34,2.04-0.34c0.77,0,1.41,0.1,1.91,0.29c0.5,0.19,0.9,0.48,1.19,0.85
	c0.3,0.38,0.51,0.83,0.62,1.38c0.12,0.54,0.18,1.17,0.18,1.89v4.34h-2.42V47.38z"/>
<path fill="#FFFFFF" d="M69.66,39.92h2.63v8.53h-2.63V39.92z M69.44,37.23c0-0.42,0.15-0.78,0.45-1.08c0.3-0.3,0.66-0.45,1.08-0.45
	c0.42,0,0.78,0.15,1.08,0.45c0.3,0.3,0.45,0.66,0.45,1.08c0,0.42-0.15,0.78-0.45,1.08c-0.3,0.3-0.66,0.45-1.08,0.45
	c-0.42,0-0.78-0.15-1.08-0.45C69.59,38.02,69.44,37.66,69.44,37.23"/>
<path fill="#FFFFFF" d="M34.08,35.65h-0.16l-3.2,6.43h3.46L34.08,35.65z M34.18,45.07h-7.44v-2.99l5.26-10.46h5.61v10.46h2.16v2.99
	H37.6v3.37h-3.42V45.07z"/>
<polygon fill="#FFFFFF" points="40.89,31.62 44.74,31.62 44.74,48.42 40.89,48.42 40.89,47.29 43.06,47.29 43.06,32.76 40.89,32.76 
	"/>
<polygon fill="#FFFFFF" points="11.35,32.75 9.18,32.75 9.18,47.29 11.35,47.29 11.35,48.42 7.5,48.42 7.5,31.62 11.35,31.62 "/>
</svg>
