<?xml version="1.0" encoding="iso-8859-1"?>
<!-- Generator: Adobe Illustrator 29.0.0, SVG Export Plug-In . SVG Version: 9.03 Build 54978)  -->
<svg version="1.2" baseProfile="tiny-ps" id="Laag_1" xmlns="http://www.w3.org/2000/svg" xmlns:xlink="http://www.w3.org/1999/xlink"
	 viewBox="0 0 180 180" xml:space="preserve">
	 <title>ThiemeMeulenhoff B.V.</title>
<g>
	<g>
		<path fill="#0190D3" d="M45,0v50c-7.985,0.03-16.015-0.022-24,0v14h19.5l1.551,3.449l-0.053,61.557
			c0.995,0.039,2.002-0.035,3.002-0.006v51H0V0H45z"/>
		<path fill="#97BD0D" d="M90,0v50c0,26.317,0,52.683,0,79v51H45v-51c3.982,0.116,8.017-0.083,12,0V64h21l-0.936-13.564
			C66.414,49.66,55.661,49.96,45,50V0H90z"/>
		<polygon fill="#F19401" points="135,0 180,0 180,180 135,180 135,107 146,85 146,129 161,129 161,50 146.5,50 135,71 		"/>
		<path fill="#E20250" d="M90,129h15V85c1.538,0.551,2.702,3.513,3.516,4.985c1.805,3.264,10.185,21.744,11.472,22.527
			c2.321,1.414,8.393,0.009,11.343,0.528L135,107v73H90V129z"/>
		<polygon fill="#E20250" points="135,0 135,71 125.012,91.998 105.514,50.986 90,50 90,0 		"/>
		<path fill="#FEFCFC" d="M45,50c10.661-0.04,21.414-0.34,32.064,0.436L78,64H57v65c-3.983-0.083-8.018,0.116-12,0
			c-1.001-0.029-2.007,0.045-3.002,0.006l0.053-61.557L40.5,64H21V50C28.985,49.978,37.015,50.03,45,50z"/>
		<path fill="#FEFCFC" d="M90,50l15.514,0.986l19.498,41.011L135,71l11.5-21H161v79h-15V85l-11,22l-3.669,6.04
			c-2.95-0.519-9.022,0.885-11.343-0.528c-1.286-0.783-9.666-19.263-11.472-22.527c-0.814-1.472-1.978-4.434-3.516-4.985v44H90
			C90,102.683,90,76.317,90,50z"/>
	</g>
</g>
</svg>
