<?xml version="1.0" encoding="utf-8"?>
<!-- Generator: Adobe Illustrator 27.2.0, SVG Export Plug-In . SVG Version: 6.00 Build 0)  -->
<svg version="1.2" baseProfile="tiny-ps" id="Layer_1" xmlns="http://www.w3.org/2000/svg" xmlns:xlink="http://www.w3.org/1999/xlink"
	  viewBox="0 0 180 180" xml:space="preserve">
	  <title>Trust for Public Land</title>
<rect y="0" fill="#362229" width="180" height="180"/>
<g>
	<path fill="#39B54A" d="M87.1,47.2L47.7,86.7v2.2c0,7,1.1,13.9,3.4,20.4l36-36V47.2z"/>
	<path fill="#F7931E" d="M92.9,38.7V141c15.7-4.5,27-13.2,33.4-25.9c3.9-7.6,6-16.7,6-26.2V38.7H92.9z"/>
	<polygon fill="#5DD8D8" points="87.1,39 87.1,38.7 47.7,38.7 47.7,78.4 	"/>
	<path fill="#362229" d="M117.7,50.8v2.8h-6.3v7.8h-3.1v-7.8H102v-2.8H117.7z"/>
	<path fill="#362229" d="M113.9,72.8c3.9,0,5.1,1.7,5.1,4l0,0c0,2.3-1.2,4-5.1,4h-8.2v2.6h-3V72.8H113.9z M116.1,76.8
		c0-0.8-0.5-1.3-2.1-1.3h-8.2v2.6h8.2C115.6,78.1,116.1,77.7,116.1,76.8L116.1,76.8z"/>
	<path fill="#362229" d="M105.8,94.9v7.8h11.4v2.9h-14.5V94.9L105.8,94.9z"/>
	<path fill="#006837" d="M87.1,141.3V81.6L53.6,115C58.9,125.4,68.7,135.8,87.1,141.3z"/>
</g>
</svg>
