<?xml version="1.0" encoding="utf-8"?>
<!-- Generator: Adobe Illustrator 25.3.1, SVG Export Plug-In . SVG Version: 6.00 Build 0)  -->
<svg version="1.2" baseProfile="tiny-ps" id="Layer_1" xmlns="http://www.w3.org/2000/svg" xmlns:xlink="http://www.w3.org/1999/xlink"
	  viewBox="0 0 499.99 500" xml:space="preserve">
	<title>Remcom EM Simulation Software</title>
<g>
	<g>
		<g>
			<path fill="#E86D1F" d="M271.12,14.66c16.7,11.68,20.74,34.67,9.06,51.35c-11.65,16.71-34.64,20.74-51.33,9.06
				c-16.7-11.67-20.76-34.64-9.11-51.33C231.49,7.04,254.41,2.99,271.12,14.66z"/>
			<path fill="#E86D1F" d="M254.77,418.55c20.17,2.69,34.4,21.19,31.74,41.37c-2.62,20.19-21.17,34.4-41.34,31.77
				c-20.21-2.64-34.42-21.15-31.73-41.36C216.05,430.15,234.56,415.96,254.77,418.55z"/>
		</g>
		<g>
			<path fill="#E86D1F" d="M150.63,35.62c20.3,1.76,35.29,19.66,33.53,39.94c-1.73,20.31-19.63,35.29-39.93,33.51
				c-20.3-1.74-35.3-19.61-33.55-39.89C112.5,48.82,130.33,33.87,150.63,35.62z"/>
			<path fill="#E86D1F" d="M338.41,393.57c18.82-7.77,40.39,1.15,48.18,19.97c7.83,18.79-1.12,40.38-19.93,48.16
				c-18.8,7.84-40.38-1.11-48.15-19.92C310.67,422.98,319.61,401.43,338.41,393.57z"/>
		</g>
		<g>
			<path fill="#E86D1F" d="M56.76,114.01c18.46-8.63,40.38-0.62,49,17.83c8.65,18.46,0.64,40.37-17.82,48.98
				c-18.46,8.65-40.38,0.67-49.01-17.77C30.34,144.52,38.3,122.66,56.76,114.01z"/>
			<path fill="#E86D1F" d="M398.36,330.1c12.41-16.12,35.53-19.18,51.7-6.78c16.16,12.34,19.21,35.53,6.83,51.67
				c-12.37,16.18-35.54,19.25-51.67,6.83C389.04,369.45,386,346.34,398.36,330.1z"/>
		</g>
		<g>
			<path fill="#E86D1F" d="M14.66,228.84c11.67-16.71,34.65-20.73,51.35-9.07c16.71,11.66,20.74,34.64,9.05,51.34
				c-11.66,16.7-34.61,20.76-51.32,9.13C7.03,268.47,2.99,245.55,14.66,228.84z"/>
			<path fill="#E86D1F" d="M418.55,245.19c2.68-20.19,21.18-34.4,41.38-31.75c20.17,2.62,34.4,21.17,31.75,41.32
				c-2.63,20.23-21.15,34.46-41.34,31.75C430.15,283.91,415.94,265.4,418.55,245.19z"/>
		</g>
		<g>
			<path fill="#E86D1F" d="M35.62,349.34c1.75-20.31,19.64-35.29,39.94-33.53c20.3,1.73,35.28,19.64,33.5,39.92
				c-1.74,20.31-19.6,35.28-39.88,33.57C48.83,387.47,33.87,369.64,35.62,349.34z"/>
			<path fill="#E86D1F" d="M393.57,161.55c-7.77-18.82,1.13-40.38,19.98-48.17c18.76-7.82,40.37,1.14,48.16,19.91
				c7.82,18.82-1.1,40.4-19.93,48.16C422.98,189.29,401.41,180.36,393.57,161.55z"/>
		</g>
		<g>
			<path fill="#E86D1F" d="M114,443.22c-8.62-18.46-0.61-40.4,17.85-49.01c18.44-8.65,40.38-0.64,48.96,17.82
				c8.66,18.46,0.67,40.37-17.76,48.99C144.53,469.61,122.67,461.67,114,443.22z"/>
			<path fill="#E86D1F" d="M330.11,101.61c-16.14-12.41-19.19-35.53-6.79-51.7c12.33-16.17,35.53-19.2,51.67-6.84
				c16.19,12.38,19.25,35.53,6.82,51.68C369.46,110.92,346.31,113.96,330.11,101.61z"/>
		</g>
	</g>
	<g>
		<g>
			<path fill="#0069AA" d="M370.25,365.91c30.58-57.14,29.82-128.75-8.11-186.83c-37.93-58.09-103.21-87.56-167.82-82.52
				c48.71,18.54,95.37,55.45,129.42,107.59C357.8,256.31,372.85,313.87,370.25,365.91z"/>
		</g>
		<g>
			<path fill="#E86D1F" d="M300.52,343.25c19.72-36.84,19.23-83.08-5.24-120.51c-24.45-37.44-66.55-56.46-108.23-53.22
				c31.42,11.96,61.52,35.77,83.48,69.39C292.49,272.56,302.19,309.68,300.52,343.25z"/>
		</g>
	</g>
	<g>
		<path fill="#0069AA" d="M473.32,470.94c-5.25,5.27-11.6,7.91-19.05,7.91c-7.44,0-13.78-2.64-19.01-7.91
			c-5.2-5.25-7.8-11.61-7.8-19.08c0-7.4,2.62-13.72,7.88-18.97c5.23-5.23,11.53-7.84,18.93-7.84c7.45,0,13.8,2.61,19.05,7.84
			c5.25,5.22,7.88,11.55,7.88,18.97C481.2,459.31,478.57,465.67,473.32,470.94z M437.95,435.52c-4.49,4.52-6.74,9.98-6.74,16.37
			c0,6.45,2.23,11.94,6.7,16.48c4.49,4.54,9.95,6.81,16.37,6.81c6.43,0,11.88-2.27,16.38-6.81c4.49-4.54,6.74-10.03,6.74-16.48
			c0-6.39-2.25-11.85-6.74-16.37c-4.51-4.54-9.97-6.81-16.38-6.81C447.91,428.71,442.46,430.98,437.95,435.52z M453.77,437.03
			c3.66,0,6.35,0.36,8.06,1.06c3.06,1.27,4.58,3.76,4.58,7.48c0,2.64-0.96,4.58-2.88,5.83c-1.03,0.66-2.45,1.14-4.27,1.43
			c2.3,0.37,4,1.33,5.06,2.89c1.07,1.56,1.61,3.08,1.61,4.57v2.16c0,0.68,0.03,1.42,0.07,2.19c0.06,0.78,0.14,1.29,0.26,1.54
			l0.19,0.37h-4.88c-0.02-0.1-0.05-0.2-0.08-0.29c-0.02-0.1-0.04-0.21-0.07-0.33l-0.11-0.95v-2.34c0-3.41-0.92-5.66-2.78-6.75
			c-1.1-0.63-3.03-0.95-5.79-0.95h-4.1v11.61h-5.2v-29.52H453.77z M459.38,441.68c-1.31-0.73-3.4-1.1-6.3-1.1h-4.44v10.7h4.7
			c2.2,0,3.86-0.22,4.96-0.66c2.03-0.81,3.05-2.34,3.05-4.61C461.35,443.85,460.69,442.41,459.38,441.68z"/>
	</g>
</g>
</svg>
