<?xml version="1.0" encoding="UTF-8"?>
<svg id="EE" xmlns="http://www.w3.org/2000/svg" width="96" height="96" baseProfile="tiny-ps" version="1.2" viewBox="0 0 96 96">
  <title>EE</title>
  <desc>We&#x27;re EE</desc>
  <rect width="96" height="96" fill="#fff" stroke-width="0"/>
  <path d="M65.613,47.993c5.621-4.912,9.181-12.136,9.181-20.187.013-14.802-11.991-26.806-26.793-26.806s-26.806,12.004-26.806,26.806c0,8.051,3.559,15.275,9.181,20.187-5.621,4.912-9.181,12.136-9.181,20.2,0,14.802,12.004,26.806,26.806,26.806s26.806-12.004,26.806-26.806c0-8.064-3.559-15.288-9.194-20.2Z" fill="#009ba5" stroke-width="0"/>
  <path d="M44.362,60.944c0,.749-.381,1.405-.959,1.799.578.394.959,1.051.959,1.799s-.381,1.405-.959,1.799c.263.171.473.407.644.683.381-.604,1.051-.998,1.826-.998s1.458.407,1.839,1.024c.381-.617,1.064-1.024,1.839-1.024s1.458.407,1.839,1.024c.381-.617,1.064-1.024,1.839-1.024,1.195,0,2.167.972,2.167,2.167s-.972,2.167-2.167,2.167c-.775,0-1.458-.407-1.839-1.024-.381.617-1.064,1.024-1.839,1.024s-1.458-.407-1.839-1.024c-.381.617-1.064,1.024-1.839,1.024-.788,0-1.471-.42-1.852-1.051-.158.25-.368.473-.617.63.578.394.959,1.051.959,1.799s-.381,1.405-.959,1.799c.578.394.959,1.051.959,1.799s-.381,1.405-.959,1.799c.315.21.565.499.722.841.355-.709,1.09-1.208,1.931-1.208.854,0,1.576.499,1.931,1.208.355-.709,1.09-1.208,1.931-1.208.854,0,1.576.499,1.931,1.208.355-.709,1.09-1.208,1.931-1.208,1.195,0,2.167.972,2.167,2.167s-.972,2.167-2.167,2.167c-.854,0-1.576-.499-1.931-1.208-.355.709-1.09,1.208-1.931,1.208-.854,0-1.576-.499-1.931-1.208-.355.709-1.09,1.208-1.931,1.208-.854,0-1.576-.499-1.931-1.208-.355.709-1.09,1.208-1.931,1.208-1.195,0-2.167-.972-2.167-2.167,0-.749.381-1.405.959-1.799-.578-.394-.959-1.051-.959-1.799s.381-1.405.959-1.799c-.578-.394-.959-1.051-.959-1.799s.381-1.405.959-1.799c-.578-.394-.959-1.051-.959-1.799s.381-1.405.959-1.799c-.578-.394-.959-1.051-.959-1.799s.381-1.405.959-1.799c-.578-.394-.959-1.051-.959-1.799s.381-1.405.959-1.799c-.578-.394-.959-1.051-.959-1.799,0-1.195.972-2.167,2.167-2.167.854,0,1.576.499,1.931,1.208.355-.709,1.09-1.208,1.931-1.208.854,0,1.576.499,1.931,1.208.355-.709,1.09-1.208,1.931-1.208.854,0,1.576.499,1.931,1.208.355-.709,1.09-1.208,1.931-1.208,1.195,0,2.167.972,2.167,2.167s-.972,2.167-2.167,2.167c-.854,0-1.576-.499-1.931-1.208-.355.709-1.09,1.208-1.931,1.208-.854,0-1.576-.499-1.931-1.208-.355.709-1.09,1.208-1.931,1.208-.854,0-1.576-.499-1.931-1.208-.171.341-.42.63-.722.841.578.394.959,1.051.959,1.799Z" fill="#fff" stroke-width="0"/>
  <path d="M44.362,20.557c0,.749-.381,1.405-.959,1.799.578.394.959,1.051.959,1.799s-.381,1.405-.959,1.799c.263.171.473.407.644.683.381-.604,1.051-.998,1.826-.998s1.458.407,1.839,1.024c.381-.617,1.064-1.024,1.839-1.024s1.458.407,1.839,1.024c.381-.617,1.064-1.024,1.839-1.024,1.195,0,2.167.972,2.167,2.167s-.972,2.167-2.167,2.167c-.775,0-1.458-.407-1.839-1.024-.381.617-1.064,1.024-1.839,1.024s-1.458-.407-1.839-1.024c-.381.617-1.064,1.024-1.839,1.024-.788,0-1.471-.42-1.852-1.051-.158.25-.368.473-.617.63.578.394.959,1.051.959,1.799s-.381,1.405-.959,1.799c.578.394.959,1.051.959,1.799s-.381,1.405-.959,1.799c.315.21.565.499.722.841.355-.709,1.09-1.208,1.931-1.208.854,0,1.576.499,1.931,1.208.355-.709,1.09-1.208,1.931-1.208.854,0,1.576.499,1.931,1.208.355-.709,1.09-1.208,1.931-1.208,1.195,0,2.167.972,2.167,2.167s-.972,2.167-2.167,2.167c-.854,0-1.576-.499-1.931-1.208-.355.709-1.09,1.208-1.931,1.208-.854,0-1.576-.499-1.931-1.208-.355.709-1.09,1.208-1.931,1.208-.854,0-1.576-.499-1.931-1.208-.355.709-1.09,1.208-1.931,1.208-1.195,0-2.167-.972-2.167-2.167,0-.749.381-1.405.959-1.799-.578-.394-.959-1.051-.959-1.799s.381-1.405.959-1.799c-.578-.394-.959-1.051-.959-1.799s.381-1.405.959-1.799c-.578-.394-.959-1.051-.959-1.799s.381-1.405.959-1.799c-.578-.394-.959-1.051-.959-1.799s.381-1.405.959-1.799c-.578-.394-.959-1.051-.959-1.799s.381-1.405.959-1.799c-.578-.394-.959-1.051-.959-1.799,0-1.195.972-2.167,2.167-2.167.854,0,1.576.499,1.931,1.208.355-.709,1.09-1.208,1.931-1.208.854,0,1.576.499,1.931,1.208.355-.709,1.09-1.208,1.931-1.208.854,0,1.576.499,1.931,1.208.355-.709,1.09-1.208,1.931-1.208,1.195,0,2.167.972,2.167,2.167s-.972,2.167-2.167,2.167c-.854,0-1.576-.499-1.931-1.208-.355.709-1.09,1.208-1.931,1.208-.854,0-1.576-.499-1.931-1.208-.355.709-1.09,1.208-1.931,1.208-.854,0-1.576-.499-1.931-1.208-.171.341-.42.63-.722.841.578.394.959,1.051.959,1.799Z" fill="#fff" stroke-width="0"/>
</svg>
