<svg xmlns="http://www.w3.org/2000/svg" xmlns:xlink="http://www.w3.org/1999/xlink" version="1.2" viewBox="0 0 400 400" baseProfile="tiny-ps">
  <title>ofigo-logo-bimi-1</title>
  <rect width="400" height="400" fill="none"/>
  <g>
    <path d="M68.196,172.764c14.377,0,26.021,11.643,26.021,26.02c0,14.58-11.644,26.222-26.021,26.222   c-14.578,0-26.119-11.642-26.119-26.222C42.077,184.408,53.618,172.764,68.196,172.764z M68.196,209.415   c5.771,0,10.53-4.657,10.53-10.631c0-5.772-4.759-10.529-10.53-10.529c-5.972,0-10.629,4.758-10.629,10.529   C57.567,204.759,62.224,209.415,68.196,209.415z" fill="#0053A1"/>
    <path d="M115.023,169.121c0-9.316,4.862-15.085,14.278-15.085h17.21v13.769h-11.845   c-2.736,0-4.153,0.609-4.153,3.341v5.728h15.998v14.073h-15.998v33.252h-15.49v-33.252h-10.63v-14.073h10.63L115.023,169.121   L115.023,169.121z" fill="#0053A1"/>
    <path d="M166.204,154.035c4.046,0,7.794,3.745,7.794,7.694c0,4.454-3.747,7.898-7.794,7.898   c-4.354,0-7.799-3.545-7.799-7.898C158.406,157.68,161.85,154.035,166.204,154.035z M158.406,176.949l15.49-3.513v50.762h-15.49   V176.949z" fill="#0053A1"/>
    <path d="M202.643,227.638c2.531,2.025,6.072,4.151,9.719,4.151c5.667,0,10.222-3.847,11.742-9.009   c-3.136,1.317-6.782,2.226-10.53,2.226c-14.273,0-26.119-11.845-26.119-26.118c0-14.277,11.846-26.123,26.119-26.123   c5.166,0,9.52,1.519,13.062,3.444l13.263-2.937v44.649c0,15.286-12.349,28.045-27.942,28.045c-6.782,0-13.769-3.039-18.932-7.897   L202.643,227.638z M213.574,209.72c6.079,0,10.734-4.759,10.734-10.832c0-6.075-4.656-10.834-10.734-10.834   c-5.972,0-10.73,4.759-10.73,10.834C202.843,204.962,207.602,209.72,213.574,209.72z" fill="#2FB4E9"/>
    <path d="M358.692,204.993c3.36,0,6.128-2.709,6.128-6.189c0-3.358-2.768-6.127-6.128-6.127   c-3.474,0-6.186,2.77-6.186,6.127C352.506,202.284,355.218,204.993,358.692,204.993z" fill="#2FB4E9"/>
    <path d="M253.701,198.784c0,14.58,11.542,26.222,26.119,26.222c14.153,0,25.633-11.291,25.99-25.553   c-0.004,0-0.007,0-0.007,0c-7.279,0-13.918,2.723-18.942,7.228v0.011c-1.874,1.695-4.343,2.723-7.041,2.723   c-5.973,0-10.63-4.657-10.63-10.631c0-5.772,4.657-10.53,10.63-10.53c2.698,0,5.167,1.048,7.041,2.749v0.006   c5.023,4.506,11.663,7.208,18.942,7.208c0.003,0,0.007,0,0.01,0c-0.304-14.112-11.808-25.454-25.992-25.454   C265.243,172.764,253.701,184.408,253.701,198.784z" fill="#2FB4E9"/>
    <path d="M331.922,188.254c-2.858,0-5.407,1.098-7.297,2.867v-0.017c-5.005,4.424-11.577,7.114-18.783,7.114   v1.235c7.172,0,13.714,2.668,18.711,7.054c1.896,1.808,4.474,2.908,7.369,2.908c5.77,0,10.53-4.657,10.53-10.631   C342.452,193.013,337.692,188.254,331.922,188.254z" fill="#2FB4E9"/>
  </g>
</svg>
