<?xml version="1.0" encoding="utf-8"?>
<!-- Generator: Adobe Illustrator 27.8.1, SVG Export Plug-In . SVG Version: 6.00 Build 0)  -->
<svg version="1.2" baseProfile="tiny-ps" id="Layer_1" xmlns="http://www.w3.org/2000/svg" xmlns:xlink="http://www.w3.org/1999/xlink"
	 viewBox="0 0 1080 1080"  xml:space="preserve">
<title>Remit Choice</title>
	<path fill="#F26230" d="M973.36,19H106.64C58.24,19,19,58.24,19,106.64v866.73c0,48.4,39.24,87.64,87.64,87.64h866.73
	c48.4,0,87.64-39.24,87.64-87.64V106.64C1061,58.24,1021.76,19,973.36,19z"/>
<g>
	<path fill="#FFFFFF" d="M191.09,787.43l151.3-416.58h327.56c0,0,177.99-3.57,194.03,106.82c0,0,14.87,118.42-190.48,162.96
		l44.49,94.06H500.83c0,0-53.4-11.34-51.62-70.09c0,0,12.46-123.56,129.95-124.08l167.73-6.21l13.83-54.86H600.53
		c0,0-271.25-1.22-283.05,197.62c0,0-7.11,106.81,140.63,110.37H191.09z"/>
	<path d="M255.19,567c0,0-26.71-54.25-19.59-125.21c0,0,23.95-146.22,210.05-147.49c0,0,119.27,0,202.94,60.52l67.63-3.55
		c0,0-112.11-89.75-272.34-91.16c0,0-219.18-9.37-227.86,181.68C216.01,441.8,216.01,512.16,255.19,567z"/>
	<path d="M835.5,579.11c0,0,80.1,233.23-194.04,238.56c0,0,240.32,37.4,247.45-190.46c0,0,0-58.92-17.38-95.4L835.5,579.11z"/>
</g>
</svg>
