<?xml version="1.0"?><svg version="1.2" baseProfile="tiny-ps" viewBox="0 0 300 300" xmlns="http://www.w3.org/2000/svg" xmlns:xlink="http://www.w3.org/1999/xlink"><title>Ruralis.com</title><g><g fill="#fff" transform="matrix(.1 0 0 -.1 0 300)"><path d="M0 1500V0h3000v3000H0V1500z"/></g><g fill="#bccfde" transform="matrix(.1 0 0 -.1 0 300)"><path d="M347 1925c-21-8-52-24-68-36l-31-22 58-58 58-59h45l11 19 10 20v151l-22-1c-13 0-40-7-61-14zm133-67v-84l12-12c7-7 19-12 28-12h16l59 60 60 61-15 10c-38 25-89 48-123 54l-37 7v-84zm-289-56c-24-34-51-105-51-133v-19h151l20 10 19 11v45l-59 58-58 58-22-30zm441-35c-34-34-62-68-62-74s7-19 16-27l15-16h158l4 8c7 11-31 124-51 150l-17 22-63-63zm356 37-8-7v-467h90v170h70l56-85 57-85h99l-6 15c-3 8-28 49-56 90l-51 75 31 26c17 15 38 40 46 57l16 30-5 45-5 44-19 27c-11 14-35 35-54 46l-34 20-110 3-110 4-7-8zm234-111 18-16v-21c0-27-9-40-37-55l-22-11h-111v120h133l19-17zm1088-123v-241l43 3 42 3v470l-42 3-43 3v-241zm158 228c-17-13-21-28-19-61l1-17 25-12 24-11 26 17 25 16v49l-22 15c-27 19-39 20-60 4zm-620-142-38-14v18h-80v-330h80v210l20 20 20 20h61l-3 42-3 41-10 3c-5 2-27-3-47-10zm206 5c-18-5-45-18-62-29l-30-22-16-34-16-34v-94l17-35 16-35 36-23 36-24h225v330l-57-2c-32-2-71 0-88 3l-30 6-31-7zm98-98 18-16v-106l-22-15-22-16h-64l-26 31-26 31v19c0 26 26 76 42 82 7 3 28 6 47 6l34 1 19-17zm518 97-35-8-22-27-23-26v-76l23-21 24-22 53-18 54-17 4-12 4-13-25-11-24-11-39 18c-21 10-41 19-44 21s-14-10-23-27l-18-30 7-11c3-6 21-17 40-25l33-14h111l32 29 33 29v84l-28 24-27 23-43 12c-23 7-48 17-55 22l-12 10 11 13 11 14h22c12 0 32-7 44-16l23-16 19 24 20 23-3 15-2 15-25 11c-14 7-38 14-55 17l-30 5-35-8zm-1300-92v-93l11-40 11-39 33-33 33-33h45c25 0 57 4 71 10l26 10v-20h80v330h-80v-209l-26-20-27-21h-56l-15 22-16 22v206h-90v-92zm1080-73v-165h90v330h-90v-165zm-2305 68c6-34 29-85 54-123l10-15 61 60 60 59v44l-16 6c-9 3-52 6-96 6h-80l7-37zm437 25c-7-7-12-19-12-28v-16l59-58 59-58 11 6c17 11 49 79 60 125l9 41H594l-12-12zm-238-109-94-93 87-88 88-88h53l86 85c47 46 86 88 86 92 0 5-37 45-82 90l-83 81-23 7-23 7-95-93z"/></g><g fill="#41c6ff" transform="matrix(.1 0 0 -.1 0 300)"><path d="M364 1926c-43-14-104-46-104-56 0-3 26-32 59-64l59-58 21 7 21 6v179l-7-1c-5 0-26-6-49-13zm116-68v-84l12-12c21-21 38-13 99 44l59 57-6 9c-8 13-95 55-131 63l-33 7v-84zm-303-90c-14-29-28-66-31-81l-7-28 87 3 87 3 11 17 11 18-60 60c-33 33-63 60-66 60-4 0-19-24-32-52zm454-2-53-53 4-24 3-24 89-3 89-3-7 33c-8 41-47 121-61 125-6 2-34-21-64-51zm357-131c-1-91-3-195-3-232v-68l43-3 42-3v181h68l58-90 58-90h48c26 0 48 2 48 5s-25 43-56 89l-56 84 40 40 40 40 7 40 7 41-20 44-19 44-35 21-35 22H990l-2-165zm238 60c8-10 14-29 14-42v-23l-20-20-20-20h-130v132l71-4 71-4 14-19zm1086-127 3-233 38-3 37-3v471h-80l2-232zm150 220c-7-7-12-21-12-33s5-26 12-33l12-12h56l11 24 11 23-11 22-12 21h-55l-12-12zm-1082-238v-112l17-35 16-35 31-19 31-19h32c17 0 44 5 59 10l26 10 14-11 13-10 28 3 28 3 3 163 2 162h-79l-3-112-3-111-36-19-37-19-26 12-26 12-5 21c-3 12-6 64-8 116l-2 95-37 3-38 3v-111zm350-55v-165h80v217l20 18 20 18 30 1 30 1v75h-31c-17 0-39-5-50-10l-19-11v21h-80v-165zm280 143c-18-13-43-36-54-51l-21-28v-128l21-28c11-15 36-38 54-50l33-23h88l22 11 21 12 4-12 4-11h68v330h-68l-4-11-4-12-21 12-22 11h-88l-33-22zm126-63 35-14-3-68-3-68-35-11-34-11-28 9c-16 6-35 20-43 31l-15 21v62l16 22c14 21 45 40 67 41 4 1 23-6 43-14zm324-81v-165l38 3 37 3 3 163 2 162h-80v-166zm178 149c-30-19-48-52-48-89v-25l24-24 24-24 56-16 56-16v-37l-16-6c-25-10-44-7-81 11l-35 16-19-24c-26-34-24-38 24-59l42-20h86l29 15c36 19 50 43 50 88v34l-24 25-25 24-55 17-56 18v29l25 6 25 6 32-11 33-12 18 22c23 29 22 36-13 54l-29 15h-48l-48-1-27-16zm-2492-70c10-43 45-121 59-133l12-10 56 59c58 61 66 78 45 99l-12 12H140l6-27zm440 11-16-15 9-17c5-9 34-41 63-70l54-53 26 48c15 26 29 65 33 86l7 37H601l-15-16zm-242-106c-46-45-84-87-84-93s38-48 84-93l84-82h45l89 87 88 87-87 88-88 88h-47l-84-82z"/></g><g fill="#40d43a" transform="matrix(.1 0 0 -.1 0 300)"><path d="M988 1635c-1-91-3-195-3-232v-68l43-3 42-3v181h68l58-90 58-90h48c26 0 48 2 48 5s-25 43-56 89l-56 84 40 40 40 40 7 40 7 41-20 44-19 44-35 21-35 22H990l-2-165zm238 60c8-10 14-29 14-42v-23l-20-20-20-20h-130v132l71-4 71-4 14-19zm1086-127 3-233 38-3 37-3v471h-80l2-232zm150 220c-7-7-12-21-12-33s5-26 12-33l12-12h56l11 24 11 23-11 22-12 21h-55l-12-12zm-1082-238v-112l17-35 16-35 31-19 31-19h32c17 0 44 5 59 10l26 10 14-11 13-10 28 3 28 3 3 163 2 162h-79l-3-112-3-111-36-19-37-19-26 12-26 12-5 21c-3 12-6 64-8 116l-2 95-37 3-38 3v-111zm350-55v-165h80v217l20 18 20 18 30 1 30 1v75h-31c-17 0-39-5-50-10l-19-11v21h-80v-165zm280 143c-18-13-43-36-54-51l-21-28v-128l21-28c11-15 36-38 54-50l33-23h88l22 11 21 12 4-12 4-11h68v330h-68l-4-11-4-12-21 12-22 11h-88l-33-22zm126-63 35-14-3-68-3-68-35-11-34-11-28 9c-16 6-35 20-43 31l-15 21v62l16 22c14 21 45 40 67 41 4 1 23-6 43-14zm324-81v-165l38 3 37 3 3 163 2 162h-80v-166zm178 149c-30-19-48-52-48-89v-25l24-24 24-24 56-16 56-16v-37l-16-6c-25-10-44-7-81 11l-35 16-19-24c-26-34-24-38 24-59l42-20h86l29 15c36 19 50 43 50 88v34l-24 25-25 24-55 17-56 18v29l25 6 25 6 32-11 33-12 18 22c23 29 22 36-13 54l-29 15h-48l-48-1-27-16zM344 1478c-46-45-84-87-84-93s38-48 84-93l84-82h45l89 87 88 87-87 88-88 88h-47l-84-82z"/></g><g fill="#70769f" transform="matrix(.1 0 0 -.1 0 300)"><path d="M988 1635c-1-91-3-195-3-232v-68l43-3 42-3v181h68l58-90 58-90h48c26 0 48 2 48 5s-25 43-56 89l-56 84 40 40 40 40 7 40 7 41-20 44-19 44-35 21-35 22H990l-2-165zm238 60c8-10 14-29 14-42v-23l-20-20-20-20h-130v132l71-4 71-4 14-19zm1086-127 3-233 38-3 37-3v471h-80l2-232zm150 220c-7-7-12-21-12-33s5-26 12-33l12-12h56l11 24 11 23-11 22-12 21h-55l-12-12zm-1082-238v-112l17-35 16-35 31-19 31-19h32c17 0 44 5 59 10l26 10 14-11 13-10 28 3 28 3 3 163 2 162h-79l-3-112-3-111-36-19-37-19-26 12-26 12-5 21c-3 12-6 64-8 116l-2 95-37 3-38 3v-111zm350-55v-165h80v217l20 18 20 18 30 1 30 1v75h-31c-17 0-39-5-50-10l-19-11v21h-80v-165zm280 143c-18-13-43-36-54-51l-21-28v-128l21-28c11-15 36-38 54-50l33-23h88l22 11 21 12 4-12 4-11h68v330h-68l-4-11-4-12-21 12-22 11h-88l-33-22zm126-63 35-14-3-68-3-68-35-11-34-11-28 9c-16 6-35 20-43 31l-15 21v62l16 22c14 21 45 40 67 41 4 1 23-6 43-14zm324-81v-165l38 3 37 3 3 163 2 162h-80v-166zm178 149c-30-19-48-52-48-89v-25l24-24 24-24 56-16 56-16v-37l-16-6c-25-10-44-7-81 11l-35 16-19-24c-26-34-24-38 24-59l42-20h86l29 15c36 19 50 43 50 88v34l-24 25-25 24-55 17-56 18v29l25 6 25 6 32-11 33-12 18 22c23 29 22 36-13 54l-29 15h-48l-48-1-27-16z"/></g><g fill="#0d155d" transform="matrix(.1 0 0 -.1 0 300)"><path d="M990 1570v-230h80v170h70l56-85 57-85h44c23 0 43 2 43 5s-25 42-55 87l-54 82 26 17c14 10 35 31 46 49l19 31-4 54-5 55-24 26c-13 15-38 33-56 40l-32 14H990v-230zm228 133c11-10 23-27 26-39l6-21-21-26-20-27h-139v130h128l20-17zm1102-133v-230h70v460h-70v-230zm142 218c-7-7-12-21-12-33s5-26 12-33 21-12 33-12 26 5 33 12 12 21 12 33-5 26-12 33-21 12-33 12-26-5-33-12zm-617-138-20-8-47 6-48 5v-313h80v209l26 20 27 21h47v70l-22-1c-13 0-32-4-43-9zm177-6c-41-21-69-56-83-104l-12-38 7-34c3-18 15-48 26-66l21-33 45-21 46-20 47 8c25 4 65 6 89 5l42-3v313l-47-1c-27-1-70 2-98 5l-50 6-33-17zm132-75 26-20v-108l-26-20-27-21h-55l-31 26-31 26v41l1 42 12 16c18 23 49 38 78 39h26l27-21zm488 71-32-20-11-27-10-27 6-23c8-34 39-57 100-77 30-9 57-21 61-27l6-10-12-14-12-15h-30c-16 0-43 7-60 16l-31 16-9-14c-5-7-13-20-18-29l-10-17 36-17c19-9 50-19 68-22l34-5 36 12 36 11 20 26 20 26v56l-22 26-23 25-55 18-55 17v40l32 3 32 3 21-11 21-11 19 23c11 13 19 26 20 29 0 12-79 39-113 39h-32l-33-20zm-1262-90v-101l14-33 14-33 27-21c15-12 42-24 59-28l33-6 36 16 37 15v-19h70v310h-70v-207l-18-16c-10-9-32-19-48-23l-30-6-24 20-25 20-3 106-4 106h-68v-100zm1080-55v-155h70v310h-70v-155z"/></g></g></svg>