<?xml version="1.0" encoding="UTF-8" standalone="yes"?>
<svg version="1.2" baseProfile="tiny-ps" viewBox="0 0 80 80" xmlns="http://www.w3.org/2000/svg">
  <title>TeamViewer Germany GmbH</title>
  <g>
    <circle fill="#FFFFFF" cx="40.2" cy="39.5" r="35.6"/>
    <g id="Company_00000070077423225114725920000017815732734449525407_">
      <g>
        <polygon fill="#050A52" points="32.1,28.8 29.1,36 50.9,36 48,28.8 70.1,40 48,51.2 50.9,44 29.1,44 32.1,51.2 9.9,40    "/>
        <g>
          <path fill="#050A52" d="M40,73C21.8,73,7,58.2,7,40C7,21.8,21.8,7,40,7c18.2,0,33,14.8,33,33C73,58.2,58.2,73,40,73z M75.3,0      H4.7C2.1,0,0,2.1,0,4.7v70.6C0,77.9,2.1,80,4.7,80h70.6c2.6,0,4.7-2.1,4.7-4.7V4.7C80,2.1,77.9,0,75.3,0"/>
        </g>
      </g>
    </g>
  </g>
</svg>