<?xml version="1.0" encoding="UTF-8"?>
<!-- Generator: Adobe Illustrator 26.5.0, SVG Export Plug-In . SVG Version: 6.00 Build 0) -->
<svg version="1.2" baseProfile="tiny-ps" id="Warstwa_1" xmlns="http://www.w3.org/2000/svg" xmlns:xlink="http://www.w3.org/1999/xlink" viewBox="0 0 500 500" xml:space="preserve">
    <title>Your Brand</title>
    <rect x="-0.1" fill="#FFFFFF" width="500" height="500" />
    <g>
        <rect x="69" y="45.5" fill="#FFFFFF" width="362" height="362" />
        <g>
            <polygon fill="#0E9091" points="294.8,121.6 282.4,128.3 309.9,142.9 245.7,176.5 183.1,143.3 173.9,138.6 174.1,227.2 213.5,250 
			211.2,242.4 216.1,238.2 186.3,220.3 186.1,158.7 242.9,188.7 245.8,190.1 314.5,153.6 314.5,183 325.9,176.6 325.9,139.6 		" />
            <path fill="#0E9091" d="M155.7,237.9V129L250,74.6l94.2,54.4v108.8L250,292.3C250,292.3,155.7,237.9,155.7,237.9z M250,60.6
			L143.6,122v122.8L250,306.3l106.4-61.4V122L250,60.6z" />
            <g>
                <polygon fill="#0E9091" points="109.2,341.8 79.4,341.8 79.4,391.5 110.3,391.5 110.3,383.7 88.5,383.7 88.5,370.3 105.2,370.3 
				105.2,362.6 88.5,362.6 88.5,349.5 109.2,349.5 			" />
                <path fill="#0E9091" d="M126.9,355.8v4.1c0,0.8-0.1,1.6-0.1,2.5h0.1c1.1-2.2,2.7-4,4.8-5.3c2-1.3,4.4-2,6.8-2.1
				c2.3-0.2,4.7,0.4,6.6,1.8c1.9,1.3,3.3,3.3,3.9,5.6h0.1c1.2-2.2,2.9-4.1,5.1-5.3c2.1-1.3,4.6-2,7.1-2c7.4,0,11.7,4.2,11.7,13.6v23
				H164v-21.3c0-4.1-0.8-7.1-4.9-7.1c-4.6,0-7.6,3.6-8.6,8.1c-0.3,1.5-0.5,3.1-0.4,4.6v15.7h-8.9v-21.3c0-3.9-0.6-7.1-4.8-7.1
				c-4.6,0-7.6,3.6-8.8,8.2c-0.3,1.5-0.5,3-0.4,4.6v15.7h-8.9v-35.7L126.9,355.8L126.9,355.8z" />
                <path fill-rule="evenodd" fill="#0E9091" d="M201.6,369.1h-1.2c-5.8,0-21.2,0.8-21.2,12.1c0,7.1,5.7,11.1,12.1,11.1
				c2.2,0.1,4.4-0.4,6.4-1.5c1.9-1.1,3.5-2.8,4.5-4.8h0.1c-0.1,0.8-0.1,1.7-0.1,2.5v2.9h8.2v-22.3c0-9-5.5-14.2-14.8-14.2
				c-5,0-9.9,1.5-14,4.4l3.4,6.4c2.9-2,6.3-3.2,9.8-3.4c3.9,0,6.9,1.6,6.9,6.3V369.1L201.6,369.1z M201.7,376c0,4.3-3.4,9.4-8.1,9.4
				c-0.7,0.1-1.3,0-2-0.2c-0.6-0.2-1.2-0.5-1.7-0.9c-0.5-0.4-0.9-1-1.2-1.6c-0.3-0.6-0.4-1.3-0.5-1.9c0-5,7.4-5.6,11.9-5.6h1.5
				L201.7,376L201.7,376z" />
                <rect x="219.7" y="341.8" fill="#0E9091" width="8.8" height="7.9" />
                <rect x="219.7" y="355.8" fill="#0E9091" width="8.9" height="35.7" />
                <path fill="#0E9091" d="M246.7,341.8h-8.8v38.6c0,10.2,6.1,11.5,11,11.5c0.9,0,1.9-0.1,2.8-0.2v-7.8c-0.4,0-0.9,0.1-1.3,0.1
				c-2.3,0-3.6-1-3.6-4.9V341.8z" />
                <polygon fill="#0E9091" points="402.4,344.7 398.5,344.7 398.5,343.4 407.8,343.4 407.8,344.7 404,344.7 404,354.6 402.4,354.6 
							" />
                <path fill="#0E9091" d="M411.7,343.4H410l-0.9,11.3h1.6l0.5-7.1c0.1-0.7,0-1.7,0-1.7h0c0,0,0.4,1.1,0.6,1.7l2.2,5.1h1.4l2.3-5.1
				c0.3-0.6,0.6-1.7,0.6-1.7h0c0,0,0,1,0,1.7l0.6,7.1h1.6l-0.9-11.3H418l-2.6,6.1c-0.3,0.6-0.6,1.5-0.6,1.5h0c0,0-0.3-0.9-0.6-1.5
				L411.7,343.4L411.7,343.4z" />
                <polygon fill="#0E9091" points="260.7,342.3 265.5,342.3 265.5,387.2 288.2,387.2 288.2,391.5 260.7,391.5 			" />
                <path fill-rule="evenodd" fill="#0E9091" d="M316,369.7H314c-6.1,0-21.5,0.3-21.5,12.2c0,7,6.1,10.4,11.9,10.4
				c2.5,0,4.9-0.7,7-2.1c2.1-1.4,3.7-3.3,4.7-5.6h0.1c-0.1,1-0.1,2-0.1,2.9v3.9h4.5V369c0-8.8-4.7-13.5-13.1-13.5
				c-4.5-0.1-8.9,1.3-12.5,4l2.2,3.6c2.9-2.1,6.3-3.3,9.9-3.4c5,0,8.7,2.3,8.7,9.1L316,369.7L316,369.7z M316,375.2
				c0,6.1-4,13.1-10.7,13.1c-5.2,0-7.8-3.4-7.8-6.7c0-7.8,11-8,16.5-8h2V375.2z" />
                <path fill-rule="evenodd" fill="#0E9091" d="M331.6,342.3h4.7v17.1c0,1.6-0.1,2.9-0.1,2.9h0.1c1.1-2.2,2.8-3.9,5-5.1
				c2.1-1.2,4.5-1.8,7-1.7c9.4,0,15.3,7.6,15.3,18.5c0,10.9-6.6,18.4-15.8,18.4c-2.4,0-4.7-0.6-6.7-1.8s-3.7-3-4.8-5.1h-0.1
				c0.1,1,0.1,1.9,0.1,2.9v3.1h-4.6L331.6,342.3L331.6,342.3z M347.4,388.1c6.2,0,11.3-5.3,11.3-14.2c0-9-4.5-14.1-11.1-14.1
				c-5.8,0-11.4,4.2-11.4,14.2C336.2,381.1,339.8,388.1,347.4,388.1" />
                <path fill="#0E9091" d="M382.8,388.1c-3.9,0-7.7-1.5-10.4-4.3l-2.6,3.4c1.7,1.7,3.7,3,6,3.9c2.2,0.9,4.6,1.3,7,1.2
				c7,0,12-4.1,12-9.9c0-6.4-5.7-8.6-10.8-10.7c-4.2-1.7-8-3.1-8-6.6c0-3.9,3.4-5.5,7-5.5c3.2-0.1,6.4,1,8.8,3.2l2.2-3.6
				c-1.4-1.3-3.1-2.4-5-3c-1.9-0.7-3.8-0.9-5.8-0.8c-6.3,0-12,3.4-12,9.7s5.7,8.6,10.8,10.6c4.2,1.7,8,3.2,8,6.7
				C389.9,386.2,386.6,388.1,382.8,388.1" />
            </g>
        </g>
    </g>
</svg>
