<?xml version="1.0" encoding="UTF-8" standalone="yes"?>
<svg version="1.2" baseProfile="tiny-ps" viewBox="0 0 1600 1600" xml:space="preserve" xmlns="http://www.w3.org/2000/svg">
  <title>Redfin</title>
  <path fill="#C82021" d="M1248.2,1335.8c-17.9-7.1-35.9-20.9-84.1-102l-96-159.2L954.9,886.8l-9.6-16c5.6-1.6,11-3.3,16.3-5.2&#xA;&#x9;c129.9-44.5,205.8-163.4,205.8-333.2c0-83.9-33.9-161.4-98.7-219.3c-9.4-8.1-19.3-15.7-29.6-22.7c-86.5-57-202.9-78.3-358-78.3&#xA;&#x9;L387.8,212h-4.5c-19.1-0.2-20.9,10.7-13.4,20.7c6.7,8.8,14.4,20.7,17.7,50.6v936.5c-3.3,38.1-11.1,50.3-17.7,59.1&#xA;&#x9;c-7.6,9.9-4.2,21.3,14.8,21H602V902.7h98.7l69.3,117.8l87.2,148.3l42.3,72c53.9,90.7,101,140.9,194.8,151.6&#xA;&#x9;c13.7,1.7,27.4,2.6,41.2,2.6h14.5c33.7,0,66.7-13.5,87.2-22.3c2.8-1,5.5-2.1,8.2-3.3C1270.2,1358.5,1263.4,1341.8,1248.2,1335.8z&#xA;&#x9; M740,750.8H602V367.6h138c68.3,0,120.4,8.9,159.4,44.3c14.7,14,26.1,31.1,33.4,50c9.6,24.1,14.4,53.2,14.4,88.1&#xA;&#x9;C947.2,601,942.5,750.8,740,750.8z"/>
</svg>