<?xml version="1.0" encoding="utf-8"?>
<!-- Generator: Adobe Illustrator 27.9.0, SVG Export Plug-In . SVG Version: 6.00 Build 0)  -->
<svg version="1.2" baseProfile="tiny-ps"
	 id="Layer_1" xmlns:inkscape="http://www.inkscape.org/namespaces/inkscape" xmlns:dc="http://purl.org/dc/elements/1.1/" xmlns:sodipodi="http://sodipodi.sourceforge.net/DTD/sodipodi-0.dtd" xmlns:cc="http://creativecommons.org/ns#" xmlns:svg="http://www.w3.org/2000/svg" xmlns:rdf="http://www.w3.org/1999/02/22-rdf-syntax-ns#"
	 xmlns="http://www.w3.org/2000/svg" xmlns:xlink="http://www.w3.org/1999/xlink"  viewBox="0 0 269.4 269.4"
	  xml:space="preserve">
	 <title>Tatra banka</title>
<g id="g2628" transform="translate(-15.287167,-15.287167)">
	<path id="path20570" fill="#231F20" d="M62,202.5v3.2h5.4v14.7h3.8v-14.7h5.3v-3.2H62"/>
	<path id="path20572" fill="#231F20" d="M81.9,202.5h4.2l6.3,17.9h-4.1l-1.2-3.7h-6.6l-1.2,3.7h-3.9L81.9,202.5z M81.6,213.6h4.6
		l-2.3-7L81.6,213.6z"/>
	<path id="path20574" fill="#231F20" d="M105.8,202.5v3.2h-5.3v14.7h-3.8v-14.7h-5.4v-3.2H105.8"/>
	<path id="path20576" fill="#231F20" d="M119.5,203c0.7,0.3,1.2,0.7,1.7,1.3c0.4,0.5,0.7,1,0.9,1.5c0.2,0.5,0.3,1.2,0.3,1.9
		c0,0.8-0.2,1.7-0.6,2.5s-1.1,1.4-2.1,1.7c0.8,0.3,1.4,0.8,1.8,1.4c0.3,0.6,0.5,1.5,0.5,2.8v1.2c0,0.8,0,1.4,0.1,1.7
		c0.1,0.5,0.3,0.8,0.7,1v0.4h-4.1c-0.1-0.4-0.2-0.7-0.2-1c-0.1-0.5-0.1-1-0.2-1.5v-1.7c0-1.1-0.2-1.9-0.6-2.3
		c-0.4-0.4-1.1-0.6-2.1-0.6h-3.7v7h-3.7v-17.9h8.6C117.9,202.5,118.8,202.7,119.5,203 M111.7,205.6v4.8h4c0.8,0,1.4-0.1,1.8-0.3
		c0.7-0.3,1.1-1,1.1-2c0-1.1-0.3-1.8-1-2.2c-0.4-0.2-1-0.3-1.7-0.3H111.7"/>
	<path id="path20578" fill="#231F20" d="M131.2,202.5h4.2l6.3,17.9h-4.1l-1.2-3.7h-6.6l-1.2,3.7h-3.9L131.2,202.5z M130.9,213.6h4.6
		l-2.3-7L130.9,213.6z"/>
	<path id="path20580" fill="#231F20" d="M164.2,204.4c0.5,0.8,0.8,1.7,0.8,2.7c0,1.1-0.3,2-0.8,2.6c-0.3,0.4-0.8,0.7-1.4,1
		c0.9,0.3,1.6,0.9,2.1,1.6c0.5,0.7,0.7,1.6,0.7,2.6c0,1.1-0.3,2-0.8,2.8c-0.3,0.6-0.8,1-1.3,1.4c-0.6,0.4-1.2,0.7-2,0.9
		s-1.6,0.2-2.5,0.2h-8.1v-17.9h8.6C161.8,202.5,163.3,203.2,164.2,204.4 M154.5,205.6v3.9h4.3c0.8,0,1.4-0.1,1.9-0.4
		c0.5-0.3,0.7-0.8,0.7-1.6s-0.3-1.4-1-1.6c-0.6-0.2-1.3-0.3-2.1-0.3L154.5,205.6z M154.5,212.5v4.8h4.3c0.8,0,1.4-0.1,1.8-0.3
		c0.8-0.4,1.2-1.1,1.2-2.2c0-0.9-0.4-1.6-1.1-1.9c-0.4-0.2-1-0.3-1.8-0.3L154.5,212.5"/>
	<path id="path20582" fill="#231F20" d="M173.4,202.5h4.2l6.3,17.9h-4.1l-1.2-3.7H172l-1.2,3.7H167L173.4,202.5z M173.1,213.6h4.6
		l-2.3-7L173.1,213.6z"/>
	<path id="path20584" fill="#231F20" d="M186.1,202.5h3.9l7.1,12.5v-12.5h3.5v17.9h-3.7l-7.3-12.7v12.7h-3.5V202.5"/>
	<path id="path20586" fill="#231F20" d="M203.8,202.5h3.7v7.4l6.9-7.4h4.8l-7.3,7.4l7.7,10.5h-4.8l-5.5-7.8l-1.8,1.8v6h-3.7
		L203.8,202.5"/>
	<path id="path20588" fill="#231F20" d="M229,206.6l2.3,7h-4.6L229,206.6z M226.9,202.5l-6.4,17.9h3.9l1.2-3.7h6.6l1.2,3.7h4.1
		l-6.3-17.9H226.9"/>
	<path id="path20590" fill="#231F20" d="M201.4,150.2l-1.2,5.6h-9.4l-5.5,26h-6.6l5.5-26h-9.5l1.2-5.6H201.4"/>
	<path id="path20592" fill="#231F20" d="M226.9,153.6c0.7,1.3,0.8,2.9,0.4,4.8c-0.4,1.9-1.2,3.5-2.5,4.6c-0.7,0.7-1.6,1.3-2.8,1.8
		c1.5,0.6,2.5,1.5,3.1,2.8c0.5,1.3,0.6,2.8,0.2,4.6c-0.4,1.9-1.2,3.5-2.5,5c-0.8,1-1.7,1.8-2.8,2.5c-1.2,0.8-2.5,1.3-3.9,1.6
		s-3,0.4-4.6,0.4h-14.3l6.7-31.6h15.3C223.3,150.3,225.8,151.4,226.9,153.6 M206.6,167.9l-1.8,8.4h7.7c1.4,0,2.5-0.2,3.3-0.6
		c1.6-0.7,2.5-2,3-3.9c0.3-1.6-0.1-2.8-1.3-3.4c-0.7-0.3-1.7-0.5-3.1-0.5H206.6z M209.2,155.7l-1.5,7h7.7c1.4,0,2.6-0.3,3.5-0.8
		c1-0.5,1.6-1.4,1.9-2.8c0.3-1.5-0.1-2.4-1.1-2.9c-0.9-0.3-2.2-0.5-3.7-0.5H209.2"/>
	<path id="path20594" fill="#231F20" d="M213.8,83.4v1.4h21.1V192H63.4V84.8h83.8v-1.4H62v110.1h174.4V83.4H213.8"/>
	<path id="path20596" fill="#231F20" d="M91.5,181.8l49.8-86.7h-23.7l-49.8,86.7H91.5"/>
	<path id="path20598" fill="#231F20" d="M171.2,54L97.7,181.8h23.8L194.9,54H171.2"/>
	<path id="path20600" fill="#231F20" d="M151.5,181.8l61.8-107.5h-23.7l-61.8,107.5H151.5"/>
</g>
</svg>
