<?xml version="1.0" encoding="UTF-8"?>
<svg version="1.2" baseProfile="tiny-ps" id="Layer_1" xmlns="http://www.w3.org/2000/svg" xmlns:xlink="http://www.w3.org/1999/xlink" viewBox="0 0 270 270">
    <title>1</title>
    <g>
        <g>
            <rect width="270" height="270" fill="white" />
        </g>
    </g>
    <g>
        <g>
            <g>
                <path d="M106.58 99.3496C105.28 97.4596 101.28 94.6296 98.4497 92.3496L77.9997 75.5396C76.8327 74.2885 75.4843 73.2199 73.9997 72.3696C71.4997 71.1196 71.5997 78.0996 71.5897 81.7596L71.4697 136.08C71.4697 141.48 74.6097 139.14 77.3597 136.08C79.2697 133.93 81.8897 130.58 84.1297 127.92L95.4297 115.4L106.57 103.16C107.78 101.93 107.41 100.54 106.58 99.3496Z" fill="#3C3086" />
                <path d="M81.4997 70.5101L126.11 106.7C128.95 109 132.11 112.22 133.66 112.22C135.21 112.22 138.3 108.92 141.13 106.6L179 75.5001C176.978 72.3453 175.902 68.6772 175.9 64.9301C175.907 63.7593 176.018 62.5915 176.23 61.4401H80.9997C79.3485 61.424 77.7092 61.7226 76.1697 62.3201C73.7597 63.5601 78.6497 68.2101 81.4997 70.5101Z" fill="#3C3086" />
                <path d="M183.34 80.3203L168.69 92.3203C165.85 94.6403 161.85 97.4703 160.55 99.3203C159.72 100.51 159.35 101.9 160.55 103.1L181.26 125.9C183.72 128.61 187.32 133.32 189.76 136.05C192.51 139.14 195.65 141.48 195.65 136.05L195.52 84.6103C191.093 84.5894 186.802 83.0782 183.34 80.3203Z" fill="#3C3086" />
                <path d="M160.49 111.2C158.04 108.48 153.3 104.52 150.49 106.6C147.68 108.68 143.97 113.17 141.36 115.74L136 121C135.686 121.352 135.301 121.634 134.87 121.827C134.439 122.02 133.972 122.12 133.5 122.12C133.028 122.12 132.561 122.02 132.13 121.827C131.699 121.634 131.314 121.352 131 121L125.76 115.76C123.18 113.17 119.46 108.57 116.68 106.31C113.9 104.05 109.15 108.15 106.68 110.86L96 122.73H128.58V133.86C131.65 126.48 138.74 122 148.37 122C157.32 122 168.25 125.84 169.49 144.08L169.77 148.08C173.06 142.83 178.71 139.88 186.24 139.88C186.36 139.88 186.47 139.88 186.59 139.88C186.29 139.56 186.03 139.26 185.68 138.88L160.49 111.2Z" fill="#3C3086" />
                <path d="M195.65 76.86C202.238 76.86 207.58 71.5188 207.58 64.93C207.58 58.3412 202.238 53 195.65 53C189.061 53 183.72 58.3412 183.72 64.93C183.72 71.5188 189.061 76.86 195.65 76.86Z" fill="#F2A616" />
                <path d="M25.7402 209.07L21.7402 196.96H25.0802L27.5002 204.72L29.8002 197H33.0602L29.1402 209.11V216.57H25.7402V209.07Z" fill="#3C3086" />
                <path d="M34.4004 211.89V207.21C34.4004 204.11 35.8204 202.35 38.8704 202.35C41.9204 202.35 43.3604 204.11 43.3604 207.21V211.89C43.3604 214.98 41.9104 216.75 38.8704 216.75C35.8304 216.75 34.4004 215 34.4004 211.89ZM40.1304 212.13V207C40.1304 205.69 40.0104 204.63 38.8904 204.63C37.7704 204.63 37.6404 205.69 37.6404 207V212.14C37.6404 213.42 37.7604 214.49 38.8904 214.49C40.0204 214.49 40.1304 213.44 40.1304 212.13Z" fill="#3C3086" />
                <path d="M46 213.68V202.57H49.26V213.08C49.26 213.9 49.48 214.41 50.26 214.41C50.8051 214.343 51.3172 214.113 51.73 213.75V202.57H55V216.57H51.73V215.25C50.854 216.183 49.6481 216.735 48.37 216.79C46.68 216.75 46 215.3 46 213.68Z" fill="#3C3086" />
                <path d="M58.1201 202.57H61.4101V204.72C62.3501 203.07 63.2701 202.4 64.4101 202.4C64.5796 202.381 64.7506 202.381 64.9201 202.4V205.81C64.4872 205.634 64.0269 205.536 63.5601 205.52C63.1079 205.529 62.6666 205.66 62.2816 205.897C61.8966 206.134 61.5819 206.47 61.3701 206.87V216.49H58.1201V202.57Z" fill="#3C3086" />
                <path d="M73.1602 211.63V207.47C73.1602 204.11 74.5602 202.35 77.6502 202.35C80.9402 202.35 81.9802 204.28 81.9802 207.69V209.69H76.4202V212.45C76.4202 213.82 76.8402 214.38 77.6802 214.38C78.5202 214.38 78.8602 213.78 78.8602 212.57V211.38H82.0002V212.38C82.0002 215.21 80.5702 216.78 77.6902 216.78C74.5202 216.75 73.1602 214.94 73.1602 211.63ZM78.8602 208.07V206.75C78.8602 205.35 78.5702 204.75 77.6502 204.75C76.7302 204.75 76.4202 205.3 76.4202 207.14V208.14L78.8602 208.07Z" fill="#3C3086" />
                <path d="M84.7002 202.57H87.8702V203.8C88.2826 203.338 88.7877 202.967 89.3528 202.712C89.9179 202.457 90.5303 202.323 91.1502 202.32C91.6742 202.294 92.1918 202.445 92.6186 202.75C93.0454 203.055 93.3562 203.496 93.5002 204C93.9231 203.479 94.4563 203.058 95.0616 202.767C95.6668 202.477 96.3289 202.324 97.0002 202.32C98.4902 202.32 99.5802 203.41 99.5802 205.61V216.53H96.4702V205.93C96.4702 204.86 96.0802 204.52 95.4702 204.52C94.8199 204.586 94.2139 204.88 93.7602 205.35V216.53H90.6202V205.93C90.6202 204.86 90.2302 204.52 89.6202 204.52C88.9704 204.588 88.365 204.881 87.9102 205.35V216.53H84.7002V202.57Z" fill="#3C3086" />
                <path d="M102.23 213.44C102.23 209.96 105.06 208.9 107.86 207.86V206.65C107.86 205.47 107.69 204.79 106.75 204.79C105.81 204.79 105.61 205.42 105.59 206.33V207.18L102.47 207.06C102.57 203.85 104.02 202.35 107.07 202.35C109.87 202.35 111.07 203.99 111.07 206.65V213.1C111.076 214.247 111.156 215.393 111.31 216.53H108.31C108.19 215.9 108.03 214.91 107.98 214.53C107.833 215.154 107.482 215.712 106.982 216.114C106.482 216.516 105.862 216.74 105.22 216.75C104.385 216.706 103.602 216.333 103.042 215.712C102.481 215.092 102.189 214.275 102.23 213.44ZM107.86 213.39V209.48C106.41 210.32 105.32 211.12 105.32 212.64C105.32 213.64 105.74 214.31 106.46 214.31C106.748 214.273 107.024 214.171 107.267 214.011C107.509 213.852 107.712 213.639 107.86 213.39Z" fill="#3C3086" />
                <path d="M114.05 197.61H117.34V200.34H114.05V197.61ZM114.05 202.61H117.34V216.61H114.05V202.61Z" fill="#3C3086" />
                <path d="M120.66 197H123.92V216.57H120.66V197Z" fill="#3C3086" />
                <path d="M126.29 213.05L128.73 212.11C129.09 213.63 129.73 214.45 130.73 214.45C130.881 214.475 131.036 214.465 131.183 214.421C131.329 214.377 131.464 214.3 131.576 214.195C131.688 214.091 131.775 213.962 131.829 213.819C131.883 213.676 131.904 213.522 131.89 213.37C131.89 212.59 131.48 212.09 130.35 211.15L128.68 209.69C127.42 208.69 126.6 207.69 126.6 206C126.596 205.489 126.7 204.983 126.904 204.515C127.109 204.047 127.409 203.627 127.786 203.283C128.164 202.939 128.609 202.678 129.094 202.517C129.579 202.356 130.092 202.299 130.6 202.35C132.88 202.35 134.23 203.82 134.6 205.97L132.45 206.89C132.21 205.73 131.65 204.69 130.66 204.69C130.51 204.672 130.358 204.689 130.215 204.738C130.073 204.788 129.943 204.869 129.836 204.976C129.729 205.083 129.648 205.212 129.598 205.355C129.549 205.498 129.532 205.65 129.55 205.8C129.55 206.33 130.03 206.91 130.9 207.64L132.59 209.19C133.7 210.19 134.87 211.26 134.87 213.05C134.87 215.49 133.05 216.75 130.78 216.75C128.51 216.75 126.92 215.47 126.29 213.05Z" fill="#3C3086" />
                <path d="M137.05 213.22H140.24V216.53H137.05V213.22Z" fill="#3C3086" />
                <path d="M149.48 197H154.1C158.86 197 160.31 198.91 160.31 203.09V210.22C160.31 214.52 158.84 216.57 154.25 216.57H149.48V197ZM154.15 214.09C156.59 214.09 156.69 212.78 156.69 210.34V202.85C156.69 200.5 156.45 199.53 154.1 199.53H153V214.09H154.15Z" fill="#3C3086" />
                <path d="M163 211.63V207.47C163 204.11 164.4 202.35 167.5 202.35C170.79 202.35 171.82 204.28 171.82 207.69V209.69H166.27V212.45C166.27 213.82 166.68 214.38 167.52 214.38C168.36 214.38 168.71 213.78 168.71 212.57V211.38H171.8V212.38C171.8 215.21 170.37 216.78 167.5 216.78C164.31 216.75 163 214.94 163 211.63ZM168.71 208.07V206.75C168.71 205.35 168.42 204.75 167.5 204.75C166.58 204.75 166.27 205.3 166.27 207.14V208.14L168.71 208.07Z" fill="#3C3086" />
                <path d="M174.71 197H178V216.57H174.74L174.71 197Z" fill="#3C3086" />
                <path d="M181.16 197.61H184.45V200.34H181.16V197.61ZM181.16 202.61H184.45V216.61H181.16V202.61Z" fill="#3C3086" />
                <path d="M186.61 202.57H189.79L191.22 212.57L192.62 202.57H195.79L193.01 216.57H189.36L186.61 202.57Z" fill="#3C3086" />
                <path d="M197.53 211.63V207.47C197.53 204.11 198.93 202.35 202.03 202.35C205.32 202.35 206.36 204.28 206.36 207.69V209.69H200.8V212.45C200.8 213.82 201.21 214.38 202.05 214.38C202.89 214.38 203.24 213.78 203.24 212.57V211.38H206.33V212.38C206.33 215.21 204.9 216.78 202.03 216.78C198.89 216.75 197.53 214.94 197.53 211.63ZM203.24 208.07V206.75C203.24 205.35 202.95 204.75 202.03 204.75C201.11 204.75 200.8 205.3 200.8 207.14V208.14L203.24 208.07Z" fill="#3C3086" />
                <path d="M209.15 202.57H212.43V204.72C213.37 203.07 214.29 202.4 215.43 202.4C215.599 202.382 215.77 202.382 215.94 202.4V205.81C215.507 205.635 215.046 205.537 214.58 205.52C214.126 205.53 213.684 205.661 213.297 205.898C212.91 206.135 212.594 206.471 212.38 206.87V216.49H209.1L209.15 202.57Z" fill="#3C3086" />
                <path d="M217.82 211.63V207.47C217.82 204.11 219.22 202.35 222.32 202.35C225.61 202.35 226.65 204.28 226.65 207.69V209.69H221.09V212.45C221.09 213.82 221.5 214.38 222.34 214.38C223.18 214.38 223.53 213.78 223.53 212.57V211.38H226.62V212.38C226.62 215.21 225.19 216.78 222.32 216.78C219.18 216.75 217.82 214.94 217.82 211.63ZM223.53 208.07V206.75C223.53 205.35 223.24 204.75 222.32 204.75C221.4 204.75 221.09 205.3 221.09 207.14V208.14L223.53 208.07Z" fill="#3C3086" />
                <path d="M229.14 211.77V207.49C229.14 204.62 229.96 202.35 232.47 202.35C233.422 202.38 234.325 202.778 234.99 203.46V197H238.3V216.57H235V215.57C234.688 215.93 234.307 216.223 233.879 216.431C233.451 216.639 232.985 216.758 232.51 216.78C230.28 216.75 229.14 215.25 229.14 211.77ZM235 214V205C234.62 204.716 234.163 204.555 233.69 204.54C232.69 204.54 232.44 205.54 232.44 206.74V212C232.44 213.4 232.66 214.47 233.69 214.47C234.163 214.445 234.618 214.282 235 214Z" fill="#3C3086" />
                <path d="M241.19 213.22H244.37V216.53H241.19V213.22Z" fill="#3C3086" />
                <path d="M2.08 128.17H13.91L22.79 171.53L32 128.17H43.51L44.67 190.77H36.17L35.24 147.26L26.35 190.77H19.47L10.47 147.11L9.62 190.77H1L2.08 128.17Z" fill="#F2A616" />
                <path d="M53.7803 180.88C53.7803 169.75 62.7803 166.35 71.7803 163.03V159.16C71.7803 155.38 71.2403 153.16 68.2203 153.16C65.5203 153.16 64.5903 155.16 64.5103 158.16L64.3603 160.86L54.3603 160.48C54.6703 150.2 59.3003 145.41 69.0403 145.41C78.0403 145.41 81.9503 150.66 81.9503 159.16V179.8C81.9575 183.48 82.2148 187.155 82.7203 190.8H73.3303C72.9503 188.8 72.4003 185.63 72.2503 184.39C71.1703 187.94 68.3903 191.5 63.4403 191.5C57.4103 191.47 53.7803 186.06 53.7803 180.88ZM71.7803 180.73V168.21C67.1403 170.91 63.6603 173.46 63.6603 178.33C63.6603 181.65 64.9803 183.66 67.3003 183.66C69.3203 183.66 71.0003 181.89 71.7903 180.73H71.7803Z" fill="#F2A616" />
                <path d="M91.5703 130.26H102.08V139H91.5703V130.26ZM91.5703 146.1H102.08V190.77H91.5703V146.1Z" fill="#F2A616" />
                <path d="M112.67 128.17H123.1V190.77H112.67V128.17Z" fill="#F2A616" />
                <path d="M132.14 172.53L142 170.6C142.31 178.02 144.08 182.81 149.11 182.81C152.74 182.81 154.29 180.34 154.29 176.94C154.29 171.53 151.5 168.52 147.41 164.94L139.52 158.06C135.04 154.2 132.26 149.87 132.26 142.91C132.26 133.02 138.44 127.46 148.41 127.46C160.16 127.46 163.48 135.34 164.1 144.46L154.29 146.16C154.05 140.29 153.2 135.88 148.18 135.88C144.78 135.88 142.92 138.43 142.92 141.76C142.92 146.01 144.7 148.32 148.03 151.18L155.83 158.06C160.93 162.47 165.18 167.96 165.18 176.22C165.18 185.22 158.85 191.6 149.49 191.6C138 191.62 132.61 185 132.14 172.53Z" fill="#F2A616" />
                <path d="M171.94 175.94V160.94C171.94 151.05 176.5 145.41 186.24 145.41C195.98 145.41 200.62 151.05 200.62 160.94V175.94C200.62 185.83 195.98 191.47 186.24 191.47C176.5 191.47 171.94 185.83 171.94 175.94ZM190.26 176.71V160.25C190.26 156.07 189.87 152.67 186.32 152.67C182.77 152.67 182.32 156.07 182.32 160.25V176.71C182.32 180.8 182.7 184.2 186.32 184.2C189.94 184.2 190.26 180.88 190.26 176.71Z" fill="#F2A616" />
                <path d="M208.42 180.88C208.42 169.75 217.42 166.35 226.42 163.03V159.16C226.42 155.38 225.88 153.16 222.87 153.16C220.16 153.16 219.24 155.16 219.16 158.16L219.01 160.86L209.01 160.48C209.31 150.2 213.95 145.41 223.69 145.41C232.69 145.41 236.6 150.66 236.6 159.16V179.8C236.607 183.48 236.864 187.155 237.37 190.8H228C227.61 188.8 227.07 185.63 226.92 184.39C225.84 187.94 223.05 191.5 218.11 191.5C212.05 191.47 208.42 186.06 208.42 180.88ZM226.42 180.73V168.21C221.79 170.91 218.31 173.46 218.31 178.33C218.31 181.65 219.62 183.66 221.94 183.66C224 183.66 225.65 181.89 226.42 180.73Z" fill="#F2A616" />
                <path d="M246.13 146.1H256.64V153C259.64 147.75 262.59 145.58 266.38 145.58C266.925 145.558 267.47 145.612 268 145.74V156.63C266.623 156.067 265.157 155.755 263.67 155.71C260.89 155.71 258.67 157.02 256.67 160.03V190.79H246.13V146.1Z" fill="#F2A616" />
            </g>
        </g>
    </g>
    <g>
        <g />
    </g>
</svg>
