<?xml version="1.0" encoding="UTF-8" standalone="yes"?>
<svg width="260px" height="260px" viewBox="0 0 260 260" version="1.2" baseProfile="tiny-ps" xmlns="http://www.w3.org/2000/svg">
  <title>Sticker Mule</title>
  <g id="Page-1" stroke="none" stroke-width="1" fill="none" fill-rule="evenodd">
    <g id="Group">
      <rect id="Rectangle" fill="#4E2817" width="260" height="260"/>
      <path d="M148.0692,201.393211 C146.651918,202 144.829697,201.797737 143.007477,202 C141.387726,202 139.160568,202 138.148223,201.190948 C137.540816,200.786421 137.540816,199.775106 137.540816,199.168317 C137.540816,198.561528 137.743285,197.550212 137.743285,196.943423 C137.945754,196.134371 138.148223,194.920792 137.743285,194.314003 C137.338347,193.707214 135.921065,193.909477 135.111189,193.50495 C134.301314,193.100424 134.098845,191.886846 133.896376,190.673267 C133.896376,190.268741 133.491438,189.864215 133.491438,189.661952 C133.288969,187.841584 133.896376,185.212164 134.301314,183.391796 C134.706251,181.369165 135.313658,179.548798 135.718596,177.526167 C136.326003,174.694484 136.326003,171.458274 136.123534,168.424328 C136.123534,166.806223 135.718596,165.592645 136.123534,164.379066 C136.326003,163.165488 136.93341,162.154173 137.135879,160.940594 C137.135879,160.536068 137.135879,160.131542 137.135879,159.727016 C137.135879,159.322489 137.338347,159.120226 137.338347,158.7157 C137.338347,157.906648 137.135879,156.895332 137.135879,155.884017 C136.93341,153.254597 137.135879,149.411598 137.338347,147.186704 C137.338347,146.377652 137.743285,145.5686 137.135879,145.164074 C134.301314,145.164074 131.871687,145.5686 129.239591,145.973126 C122.355647,146.782178 113.447015,146.984441 106.765541,145.5686 C106.158134,145.366337 105.550727,145.366337 104.94332,145.366337 C100.084066,144.355021 95.8322191,142.130127 92.3902475,139.500707 C91.7828408,139.096181 91.175434,138.691655 90.5680272,138.084866 C89.9606205,137.680339 89.3532137,137.07355 88.745807,136.669024 C86.113711,135.455446 82.4692705,136.871287 81.254457,138.691655 C80.8495192,139.298444 80.4445813,140.30976 80.0396435,141.118812 C79.6347056,141.927864 79.2297678,142.736917 79.0272989,143.545969 C77.2050786,147.591231 75.1803894,151.636492 73.3581692,155.681754 C72.3458246,158.108911 71.1310111,160.738331 70.3211354,163.367751 C68.701384,169.031117 70.1186665,176.514851 71.5359489,181.975955 C71.7384178,182.380481 71.9408867,182.98727 72.1433557,183.594059 C72.5482935,184.807638 73.3581692,186.628006 74.3705138,187.437058 C74.9779205,187.841584 75.7877962,188.24611 76.3952029,188.650636 C77.2050786,189.257426 77.6100165,190.471004 78.2174232,191.684583 C78.4198921,192.089109 78.82483,192.695898 79.0272989,193.302687 C79.6347056,194.516266 80.0396435,195.527581 78.622361,196.336634 C77.6100165,196.943423 75.9902651,196.943423 74.5729827,197.145686 C73.9655759,197.347949 74.1680448,198.157001 73.763107,198.561528 C73.5606381,198.763791 72.5482935,199.168317 72.1433557,199.37058 C70.3211354,199.977369 67.0816327,199.977369 65.6643503,199.37058 C64.8544746,199.168317 64.0445989,198.561528 63.84213,197.954738 C63.4371922,196.74116 64.4495367,195.325318 63.6396611,194.516266 C63.2347232,194.11174 62.4248476,194.11174 61.8174408,193.909477 C60.8050962,193.50495 59.9952205,192.493635 59.3878138,191.48232 C58.3754692,188.650636 58.9828759,184.403112 58.780407,180.964639 C58.780407,179.953324 58.5779381,178.942008 58.5779381,177.72843 C58.5779381,175.705799 57.9705314,173.683168 57.7680624,171.660537 C57.5655935,170.649222 57.3631246,169.84017 57.1606557,169.031117 C56.7557178,167.615276 56.5532489,165.997171 56.1483111,164.58133 C55.7433733,162.963225 55.7433733,161.34512 56.1483111,160.131542 C56.35078,159.727016 56.7557178,159.322489 56.9581868,158.917963 C57.3631246,158.108911 57.3631246,157.299859 57.3631246,156.490806 C57.1606557,156.08628 56.1483111,156.490806 55.9458422,156.08628 C55.3384354,151.636492 54.7310287,147.388967 54.3260908,142.736917 C54.1236219,141.118812 54.1236219,139.70297 54.1236219,138.084866 C53.921153,135.050919 54.1236219,131.81471 53.7186841,128.780764 C53.5162151,127.364922 53.3137462,125.949081 53.1112773,124.533239 C52.5038706,120.487977 51.491526,115.4314 52.3014016,111.183876 C52.9088084,108.554455 53.7186841,106.329562 55.3384354,104.306931 C56.35078,102.891089 57.5655935,101.677511 58.780407,100.261669 C59.9952205,99.0480905 61.412503,97.834512 62.8297854,96.8231966 C63.84213,96.2164074 64.8544746,95.407355 65.8668192,94.8005658 C68.0939773,93.7892504 71.1310111,92.7779349 74.3705138,92.5756719 C77.6100165,92.3734088 81.254457,92.3734088 84.2914908,92.980198 C87.3285245,93.5869873 90.3655583,93.9915134 93.4025921,94.5983027 C96.237157,95.2050919 99.0717218,96.0141443 101.906287,96.6209335 C102.311225,96.6209335 102.513693,97.0254597 102.918631,97.0254597 C103.728507,97.2277228 104.740852,97.2277228 105.753196,97.6322489 C108.385292,98.2390382 111.624795,98.6435644 114.864297,98.6435644 C118.306269,98.6435644 121.343303,98.6435644 124.177868,97.834512 C124.582806,97.6322489 124.987743,97.4299859 125.392681,97.4299859 C125.797619,97.2277228 126.405026,97.2277228 126.809964,97.2277228 C127.012433,97.2277228 127.41737,96.8231966 127.619839,96.6209335 C129.239591,95.8118812 130.656873,95.0028289 132.074156,93.9915134 C133.288969,93.1824611 134.098845,92.5756719 135.718596,91.9688826 C136.326003,91.7666195 137.135879,91.3620934 137.743285,91.1598303 C139.160568,90.7553041 140.780319,90.3507779 141.792664,89.5417256 C143.614884,88.5304102 144.829697,86.9123055 146.24698,85.4964639 C147.664262,84.2828854 149.284014,82.8670438 150.903765,81.6534653 C154.143268,79.0240453 157.38277,76.7991513 160.419804,74.3719943 C162.039555,73.1584158 163.659307,71.9448373 165.481527,70.9335219 C168.923499,68.9108911 172.567939,66.6859972 177.629662,66.281471 C179.654351,66.0792079 181.679041,66.0792079 183.70373,66.281471 C184.311137,66.281471 184.918543,66.6859972 185.52595,66.4837341 C186.133357,66.281471 186.538295,65.4724187 186.740764,64.8656294 C187.550639,63.4497878 187.955577,62.6407355 188.765453,61.0226308 C189.170391,60.0113154 188.967922,59 189.980266,59 C190.992611,59 190.790142,61.6294201 190.790142,62.6407355 C190.790142,63.854314 190.587673,65.4724187 190.790142,66.281471 C190.992611,66.8882603 191.802487,67.6973126 192.612362,67.6973126 C193.219769,67.6973126 193.624707,67.2927864 194.029645,66.8882603 C194.637051,66.4837341 195.041989,66.4837341 195.446927,66.0792079 C196.256803,65.4724187 197.269147,64.4611033 198.079023,63.6520509 C198.68643,63.0452617 199.901243,61.2248939 200.913588,61.427157 C202.938277,61.6294201 200.913588,64.6633663 200.50865,65.4724187 C199.496305,67.6973126 198.483961,69.5176803 197.269147,71.5403112 C196.864209,72.3493635 195.649396,73.562942 195.649396,74.5742574 C195.649396,75.1810467 196.256803,75.5855728 196.459272,76.3946252 C196.661741,76.7991513 196.661741,77.0014144 196.864209,77.4059406 C197.471616,79.0240453 198.079023,81.2489392 198.68643,83.0693069 C199.091368,84.6874116 199.496305,86.3055163 200.103712,87.7213579 C200.711119,89.1371994 201.520995,90.553041 202.128401,92.1711457 C202.33087,92.5756719 202.33087,92.980198 202.533339,93.3847242 C203.748153,96.6209335 204.962966,100.261669 206.582718,103.497878 C207.190124,104.711457 208,106.329562 208,108.149929 C208,110.17256 206.987655,111.183876 205.975311,112.80198 C205.570373,113.611033 204.760497,114.824611 203.950622,115.026874 C203.343215,115.229137 202.735808,115.026874 202.128401,115.026874 C201.318526,115.229137 200.711119,115.633663 200.103712,115.633663 C198.281492,115.835926 196.459272,114.420085 196.054334,113.004243 C195.851865,112.599717 196.054334,111.992928 195.851865,111.386139 C195.446927,109.161245 194.232114,108.149929 192.814831,106.531825 C191.802487,105.520509 190.992611,104.91372 189.777797,104.306931 C187.955577,103.295615 186.133357,102.891089 184.108668,101.879774 C183.501261,101.475248 182.488916,101.070721 181.88151,101.272984 C180.869165,101.475248 179.85682,103.093352 179.046945,104.104668 C174.187691,110.577086 169.733374,117.251768 165.076589,123.521924 C161.837087,127.769448 158.597584,132.016973 155.965488,136.669024 C155.358081,137.882603 154.953143,139.298444 154.345737,140.714286 C153.940799,142.130127 153.535861,143.545969 153.130923,145.164074 C151.308703,150.422914 150.701296,156.895332 149.081545,162.356436 C148.879076,162.963225 148.879076,163.570014 148.676607,164.176803 C147.866731,167.008487 147.056856,170.244696 146.24698,173.278642 C145.639573,175.503536 145.437104,178.537482 145.234635,181.369165 C145.234635,184.200849 145.032166,188.043847 146.044511,189.661952 C146.651918,190.673267 148.474138,190.87553 149.081545,191.886846 C149.486483,192.493635 149.89142,193.909477 150.498827,194.718529 C150.903765,195.325318 151.91611,196.538897 151.713641,197.550212 C151.713641,198.157001 151.106234,198.763791 150.498827,198.966054 C149.89142,199.168317 149.081545,199.168317 148.474138,199.37058 C148.474138,200.179632 148.676607,200.988685 148.0692,201.393211 Z" id="Path" fill="#FFFFFF"/>
    </g>
  </g>
</svg>
