<?xml version="1.0"?><svg version="1.2" baseProfile="tiny-ps" viewBox="0 0 300 300" xmlns="http://www.w3.org/2000/svg" xmlns:xlink="http://www.w3.org/1999/xlink"><title>l'Essentiel</title><g><g fill="#fff" transform="matrix(.1 0 0 -.1 0 300)"><path d="M0 1500V0h3000v3000H0V1500z"/></g><g fill="#d0d5e3" transform="matrix(.1 0 0 -.1 0 300)"><path d="m607 2723-7-6v-487l13-1c31-3 65 5 105 23l43 20 34 40 34 40 15 46c20 57 20 95 1 158l-14 49-31 37-30 36-52 26-52 26h-26c-15 0-30-3-33-7zm540-50-7-6v-387l643 2 642 3v390l-636 3-636 2-6-7zm499-673c-263-16-484-31-492-34l-14-5v-401l22-4c13-3 264-19 558-35l535-29 8 7 7 7-2 260-3 259-70 1c-38 1-285-11-549-26zm-858 6c-26-7-55-19-65-26-47-36-76-68-95-104l-20-39-5-52-6-52 17-50 17-50 34-40 34-40 51-22 51-22 27 3 27 3 3 241 2 241-12 10-13 11-47-12zm-113-715c-16-4-49-17-72-29l-42-22-25-33c-14-18-33-51-42-72l-16-39V985l17-43 17-42 48-43 48-43 40-12c50-15 114-15 164 0l39 12 46 40 46 40 18 41 19 40v126l-15 36c-9 20-26 51-39 68l-24 31-48 26-49 27-50 5-50 5-30-8zm467-248 3-198h1280v390l-643 3-642 2 2-197zM480 423V294l12-12c7-7 22-12 35-12h23v40h-29l-3 117-3 118-17 3-18 3V423zm217 121c-4-4-7-16-7-26v-18h201l-3 23-3 22-90 3-91 3-7-7zm1660-1c-4-3-7-59-7-124V301l16-15 15-16h49v40h-40v240h-13c-8 0-17-3-20-7zM606 523c-2-10-7-28-11-40l-6-23h31l10 26c6 14 10 32 10 40v14h-29l-5-17zm1394-3v-20h40v40h-40v-20zm-153-7c-4-3-7-15-7-25v-18h-30v-30h30V303l18-16 19-17h53v40h-50v130h50v30h-50v50h-13c-8 0-17-3-20-7zm-891-59-16-15v-49l23-14c12-8 33-17 47-21 27-8 42-24 34-37l-5-8h-99v-14c0-18 22-26 71-26h39l20 20c24 24 25 38 6 66l-15 20-40 13-41 12v28l19 6c11 3 31 3 45-1l26-6v42h-99l-15-16zm202 5-18-10v-66l50-21 50-21v-31h-100v-14c0-17 22-26 64-26h32l22 16 22 15v60l-56 25-56 25 13 15 13 16 39-6 39-6-4 17-3 18-45 2-45 3-17-11zm209-9-25-20-6-34-7-35 15-36 15-35 26-10c49-19 115-10 115 15v13l-51-1-51-2-14 20-15 20 71 3 70 3v70l-25 24-24 25h-68l-26-20zm91-22c7-7 12-20 12-30v-18h-100v8c0 4 7 18 16 30l15 22h23c12 0 27-5 34-12zm122-53v-95h40v139l19 11c11 5 29 10 40 10h20l11-19 10-20V269l18 3 17 3v84l-1 83-19 14-19 14h-34c-18 0-42-5-53-10l-19-11v11c0 5-7 10-15 10h-15v-95zm400 80c0-8 4-15 10-15h9l3-82 3-83 18-3 17-3v201h-60v-15zm172 8c-7-3-19-18-27-33l-15-29v-68l20-26 21-26 34-7 33-6 31 7 31 7v30l-37-6-38-6-24 12c-14 7-26 19-29 26l-4 12h145l-6 42-6 43-21 17-22 18-37-1c-20 0-42-3-49-6zm86-35c7-7 12-20 12-30v-18h-100v14c0 8 7 22 16 30l15 16h23c12 0 27-5 34-12zm-1515 5-23-4v-49h160v60l-57-1c-32-1-68-4-80-6zm-29-128c-3-8-3-19 1-25l6-10h189v50H699l-5-15z"/></g><g fill="#9fa9c5" transform="matrix(.1 0 0 -.1 0 300)"><path d="m607 2723-7-6v-478l15-5c8-4 31-3 49 0l35 7 47 32 47 32 31 54 30 55v131l-22 42c-12 23-38 58-58 77l-36 35-46 15c-49 17-75 20-85 9zm537-56c-2-7-3-96-2-197l3-185h1280v390l-638 3-638 2-5-13zm516-668c-272-16-501-31-508-34l-12-5 2-196 3-197 15-8c8-4 164-15 345-24 182-10 422-23 535-30l205-12 13 10 12 9v243c0 134-3 250-6 259l-6 16-52-1c-28-1-274-15-546-30zm-918-15-52-26-30-36-31-37-15-54-16-54 6-45 6-44 27-50 27-49 38-28 39-29 44-12 44-12 16 6 15 6-2 242-3 243-30 3-30 3-53-27zm-47-691c-11-2-35-9-54-15l-34-11-45-41-45-41-18-40-19-40V985l21-45c27-60 64-98 124-126l50-24h110l50 24c60 28 97 66 124 126l21 45v120l-19 40-19 40-38 37c-56 53-150 85-209 71zm449-66c-2-7-3-96-2-197l3-185h1280v390l-638 3-638 2-5-13zM700 525v-25h191l-3 23-3 22-92 3-93 3v-26zM480 416V292l15-12 14-12 17 4c10 2 19 9 22 16l4 12h-32v240h-40V416zm126 100c-3-13-9-31-12-40l-6-16h30l11 31c14 42 14 49-3 49h-14l-6-24zm1399 14c-8-14 3-30 21-30h14v40h-14c-8 0-18-4-21-10zm355-114V292l15-12 14-12 17 4c10 2 19 8 21 14l4 11-21 6-20 5v232h-30V416zm-513 97c-4-3-7-14-7-24v-17l-15-6c-8-3-15-10-15-16 0-5 7-10 15-10h15V310l21-21 20-20 22 3 22 3 3 19 4 18-10-6c-6-3-17-3-26 0l-16 6v128h52l-4 13c-3 6-14 13-26 15l-22 3v49h-13c-8 0-17-3-20-7zm-884-58-23-16v-47l13-9c6-6 29-16 50-23l38-12 6-14c8-23-5-29-53-27l-44 1v-13c0-25 60-34 104-14l24 11 5 17c2 9 1 26-4 38l-8 21-46 17-46 18 3 16 4 16 42-1 43-1-3 16-3 16-40 3-40 3-22-16zm195 4-18-10v-59l23-14c12-8 34-18 50-21l27-7v-38l-17-1c-10-1-33-1-50 0l-33 3v-31l34-7 35-6 27 9c15 5 32 16 37 25l10 15-7 26-6 26-40 12c-22 7-46 19-52 26l-12 15 15 9 14 10 32-5 33-5 6 11 7 10-14 9c-19 12-80 11-101-2zm207-14-25-24v-46c0-26 4-55 10-65l10-18 36-12 35-12 35 6 34 7v29l-44-6-44-6-23 23-24 24 73 3 72 3v70l-25 24-24 25h-72l-24-25zm99-21c9-8 16-22 16-30v-14h-110v14c0 8 7 22 16 30l15 16h48l15-16zm116-49v-95h40v148l16 6c25 10 59 7 72-6l12-12V280h30v157l-18 16-19 17h-27c-15 0-37-5-49-11l-21-12-4 12c-2 6-10 11-18 11h-14v-95zm400 80v-15h30V280h30v190h-60v-15zm163-9-28-24V322l19-20 18-21 29-6 29-7 30 7 30 7v23h-101l-9 15c-5 8-10 18-10 23v7h131l5 15 6 14-12 36-12 35-18 10c-10 6-32 10-49 10h-30l-28-24zm91-12 16-6v-48h-100v14c0 34 45 55 84 40zm-1501-1-33-4v-37l23-6c12-3 48-6 80-6h57v60l-47-2c-27 0-63-3-80-5zm-33-138v-26l93 3 92 3 3 23 3 22H700v-25z"/></g><g fill="#7482ab" transform="matrix(.1 0 0 -.1 0 300)"><path d="M606 2715c-3-9-6-120-6-246v-230l15-6 16-5 47 13 47 13 44 40 44 41 20 44 19 43v114l-17 39c-30 74-107 135-187 150l-35 7-7-17zm538-48c-2-7-3-96-2-197l3-185 638-3 637-2v400H1149l-5-13zm536-669-515-30-12-10-13-10v-377l11-7c11-6 949-63 1057-64h52l-2 263-3 262-30 1c-16 1-262-12-545-28zm-938-14-53-26-23-32c-13-17-31-47-41-65l-18-35v-121l17-40c32-75 108-135 189-150l37-7v502h-56l-52-26zm-108-708c-17-8-48-29-69-47l-38-34-23-50-24-50V984l26-52 26-52 36-30c92-76 222-78 319-4l33 25 26 45 26 45 5 62 5 63-22 52-23 53-43 38-43 37-39 12c-22 7-64 12-93 12l-54-1-31-13zm510-49c-2-7-3-96-2-197l3-185 638-3 637-2v400H1149l-5-13zM480 415V291l21-11 21-12 14 6c20 8 17 23-6 29l-20 5v232h-30V415zm220 105v-20h180v40H700v-20zm1310 5v-15h30v30h-30v-15zm350-110V291l21-12 21-11 12 12 11 11-17 10-18 10v229h-30V415zM606 514c-9-23-7-54 3-54 7 0 31 51 31 66 0 12-29 1-34-12zm1247-1-13-5v-48h-15c-8 0-15-4-15-10 0-5 7-10 15-10h15v-59c0-73 6-90 36-101l24-9 15 5c22 9 19 24-5 24h-19l-11 19-10 20v101h50v20h-40v24c0 27-8 36-27 29zm-893-63c-36-36-25-60 43-89l47-20v-31l-25-6-25-6-25 6-25 6v-29l34-7 34-6 29 14 28 13v69l-45 17-45 17v37h85v11c0 15-23 24-61 24h-29l-20-20zm202 4-22-15v-47l13-9c6-6 28-16 49-22l36-12 6-14 5-14-15-12-14-12-40 7-40 6v-28l33-6 32-6 30 8 30 8 9 27 10 26-17 19-17 19-41 12-40 12 3 17 3 17h85v11c0 27-64 32-98 8zm221 6c-12-5-26-18-32-29l-11-20v-88l23-20c12-11 33-23 47-26l26-6 29 7c16 5 30 13 32 19l4 11-46-6-45-5-20 18c-11 10-20 24-20 32v13h143l-6 37c-8 46-24 62-68 68l-34 5-22-10zm87-39c5-11 10-24 10-30v-11h-110v11c0 6 5 19 10 30l11 19h68l11-19zm175 39-20-8-22 5-23 5V280h30v139l19 11c11 5 33 10 49 10h30l6-16c3-9 6-45 6-80v-64h30v159l-22 15c-24 17-52 19-83 6zm503-10-25-19-6-30-6-29 10-37 10-37 35-14 35-15 35 7 34 6v24l-39-4-39-4-21 11-21 12v39h130v69l-26 20-27 21h-54l-25-20zm102-36c6-14 10-27 10-30 0-2-25-4-55-4h-55v18c0 10 5 23 12 30l12 12h66l10-26zm-270 36c0-5 7-10 15-10h15V280h30v180h-60v-10zM753 433l-53-4v-36l46-7c26-3 62-6 80-6h34v60l-27-2c-16-1-52-3-80-5zm-53-133v-20h180v40H700v-20z"/></g><g fill="#45588f" transform="matrix(.1 0 0 -.1 0 300)"><path d="m617 2723-7-6v-487h23c12 0 45 11 73 24l50 23 37 43 37 44 10 35c13 48 13 115-2 163l-12 39-38 44-38 43-43 16c-64 23-83 27-90 19zm529-59c-8-20-8-348 0-368l6-16h1268l-2 198-3 197-631 3-632 2-6-16zm864-649c-113-7-349-21-525-31l-320-17-12-10-13-9v-363l8-13 9-13 519-29c285-17 534-30 552-30h32l-2 263-3 262-20 1c-11 1-112-4-225-11zm-1238-18-33-10-46-41-46-40-18-41-19-40v-126l14-33c31-75 114-140 186-148l35-3 3 248 2 247-22-1c-13-1-38-6-56-12zm-142-728c-56-25-96-62-122-113l-20-39-5-52-6-53 16-46c9-25 27-61 41-79l26-34 52-29 53-29h130l53 30 54 29 28 41c15 22 33 58 40 79l13 39-6 52-5 53-16 30c-8 16-28 44-43 62l-27 33-51 23-50 24H675l-45-21zm516-45c-3-9-6-93-6-189V862l14-11 13-11 624 2 624 3 3 198 2 197H1152l-6-16zM480 426c0-63 3-121 6-130l6-16h58v9c0 5-9 11-20 14l-20 5v232h-30V426zm220 94v-20h180v40H700v-20zm1662-107 3-128 28-3 27-3v10c0 6-7 11-15 11h-15v240h-31l3-127zM606 508c-3-13-6-29-6-36v-13l9 5c5 3 14 19 19 36l11 30h-27l-6-22zm1404 12c0-5 7-10 15-10s15 5 15 10c0 6-7 10-15 10s-15-4-15-10zm-157-7-13-5v-46l-12-6-13-6 13-6 12-6v-53c0-30 4-65 10-79l10-26h70v20h-48l-6 16c-3 9-6 40-6 70v54h50v9c0 5-10 11-22 13l-23 3-5 26-5 26-12-4zm-872-51-24-7-8-22-8-21 15-20 14-20 29-7c16-3 35-13 41-21l12-14-6-16-6-16-45 4-45 3v-25h106l12 12c7 7 12 22 12 33v22l-17 16c-10 8-30 18-45 22s-32 13-38 21l-12 13 7 11 6 10h89v10c0 6-6 10-12 10-7 0-22 2-33 4-11 3-31 1-44-2zm189-5-25-12-3-28-3-27 55-25c59-26 65-35 41-55l-15-13-41 6-40 5 4-11 4-12 38-3c21-2 48-1 61 2l23 6 6 20 6 19-10 19-10 19-46 17-46 18 3 17 3 16 43 3 42 3v8c0 8-34 21-55 21-5 0-21-6-35-13zm219 2-26-10-12-25c-6-14-11-40-11-58v-33l21-27 20-26h109v20h-89l-15 16c-9 8-16 22-16 30v14h140v14c0 7-5 27-11 44l-10 31-31 10c-35 13-34 13-69 0zm79-31c7-7 12-20 12-30v-18h-110v18c0 10 5 23 12 30l12 12h62l12-12zm187 35c-11-3-26-10-32-15l-13-10v22h-30V280h30v138l14 11 15 12 38-3 38-3 3-77 3-78h29v146l-12 17c-15 18-53 28-83 20zm518 0-23-4-15-22-15-21v-93l23-21 23-22h104v26l-39-4-39-4-21 11-21 12v39h130v67l-17 16c-21 18-58 27-90 20zm77-42c5-11 10-24 10-30v-11h-110v18c0 10 5 23 12 30l12 12h65l11-19zm-270 29c0-5 7-10 15-10h15V280h30v180h-60v-10zM763 433l-63-4v-39h28c15 0 51-3 80-6l52-7v63l-17-2c-10-1-46-3-80-5zm-63-133v-20h180v40H700v-20z"/></g><g fill="#051f66" transform="matrix(.1 0 0 -.1 0 300)"><path d="M616 2722c-4-3-6-112-6-243v-238l9-5c5-3 30 1 57 9l49 14 39 33 39 32 23 50 24 51v110l-19 40c-25 56-64 100-108 120-44 21-100 35-107 27zm536-244 3-193h1260l3 193 2 192H1150l2-192zm463-488c-253-16-461-29-462-29-2-1-3-91-3-201v-200h18c10 0 254-13 542-30s530-30 537-30h13v520l-92-1c-51-1-300-14-553-29zm-825 11c-50-16-89-41-122-81l-35-40-11-39c-7-21-12-61-12-88v-49l28-54 27-54 37-29 37-30 48-12 48-13 8 7 7 7-2 240-3 239-15 2c-8 1-26-2-40-6zm-149-728-44-16-43-43-43-42-17-58-16-57 6-44c8-59 37-112 84-155l39-36 39-13c50-16 118-16 168 0l39 13 39 36c47 43 74 91 83 154l7 46-16 55-16 55-43 45-43 44-49 16-49 17-40-1c-23 0-61-8-85-16zm509-228V850h1270l-2 193-3 192-632 3-633 2v-195zM480 429V319l10-20 11-19h39v10c0 6-7 10-15 10h-15v240h-30V429zm220 96v-15h180v30H700v-15zm1660-99c0-63 3-121 6-130l6-16h48v10c0 6-7 10-15 10h-15v240h-30V426zM607 503c-9-47 7-47 18 0l7 27h-20l-5-27zm1403 17c0-5 7-10 15-10s15 5 15 10c0 6-7 10-15 10s-15-4-15-10zm-160-35v-25h-15c-8 0-15-4-15-10 0-5 7-10 15-10h15V304l12-12 12-12h56v19l-27 3-28 3-3 68-3 67h51v20h-50v50h-20v-25zm-888-37c-7-7-12-23-12-36v-24l50-21 51-21-3-21-3-20h-95v-25h96l18 13 18 13-4 25-3 24-53 25-53 24 3 16 3 15 43 3 42 3v19h-86l-12-12zm186-13-11-25 17-19c10-11 31-23 46-26 16-3 34-13 40-21l12-14-6-15-5-15h-91v-20h99l15 21 15 21-8 22-8 21-44 16-44 17-3 21-3 21h91v20h-100l-12-25zm212-2-22-28 5-45 5-44 22-18 22-18h98v20h-96l-12 12c-7 7-12 20-12 30v18h130v67l-18 16-19 17h-82l-21-27zm108-5c7-7 12-20 12-30v-18h-110v18c0 10 5 23 12 30l12 12h62l12-12zm112-58v-90h30v148l35 12 34 11 21-11 20-11V280h30v141l-10 20-11 19h-40c-22 0-49-5-60-10l-19-11v11c0 5-7 10-15 10h-15v-90zm405 80-6-10h31V280h30v180h-24c-14 0-28-4-31-10zm155-10-20-20v-91l25-24 24-25h90l6 10 6 10h-100l-15 22c-9 12-16 26-16 30v8h140v56l-16 22-15 22h-89l-20-20zm108-12c7-7 12-20 12-30v-18h-60c-33 0-60 2-60 4 0 3 4 16 10 30l10 26h76l12-12zM700 410v-20h58c31 0 67-3 80-6l22-6v52H700v-20zm0-115v-15h180v30H700v-15z"/></g></g></svg>