<?xml version="1.0" encoding="utf-8"?>

<!-- Generator: Adobe Illustrator 28.0.0, SVG Export Plug-In . SVG Version: 6.00 Build 0)  -->

<svg version="1.2" baseProfile="tiny-ps" id="Layer_1" xmlns="http://www.w3.org/2000/svg" xmlns:xlink="http://www.w3.org/1999/xlink" viewBox="0 0 100.1 100" 

xml:space="preserve">
<title>CitizenX</title>

<path fill-rule="evenodd" fill="#081226" d="M38.8,47.8c-0.3-0.5-0.7-0.9-1-1.4L17.6,18.5c-0.5-0.7,0.3-1.4,1-1l28,20.1
	c0.5,0.3,0.9,0.7,1.4,1C44.6,41.4,41.6,44.5,38.8,47.8z M50.2,40.4c-3.5,2.9-6.7,6.1-9.6,9.6c-1,1.2-1.9,2.3-2.8,3.6L17.6,81.5
	c-0.5,0.7,0.3,1.4,1,1l28-20.1c1.2-0.9,2.5-1.8,3.6-2.8c3.5-2.9,6.7-6.1,9.6-9.6c0.9-1.1,1.8-2.3,2.7-3.5l20.1-27.9
	c0.5-0.7-0.3-1.4-1-1l-28,20.1C52.4,38.6,51.3,39.5,50.2,40.4z M61.5,52.2c-2.7,3.3-5.8,6.3-9.1,9.1c0.4,0.3,0.8,0.6,1.2,0.9
	l28,20.1c0.7,0.5,1.4-0.3,1-1L62.4,53.4C62.1,53.1,61.8,52.7,61.5,52.2z"/>
</svg>
