<svg xmlns="http://www.w3.org/2000/svg" xml:space="preserve" baseProfile="tiny-ps" version="1.2" viewBox="0 0 648 648"><title>Jack's Flight Club</title><circle cx="324" cy="324" r="302.84" fill="#15BEFF" transform="rotate(-45 324 324)"/><path fill="#FFF" d="M324 24.32c165.24 0 299.68 134.43 299.68 299.67S489.25 623.67 324 623.67C158.76 623.68 24.32 489.24 24.32 324S158.76 24.32 324 24.32m0-6.32C155.27 18 18 155.27 18 324s137.27 306 306 306 306-137.27 306-306S492.73 18 324 18z"/><path fill="#15BEFF" d="M0 0h648v648H0z"/><path fill="#FFB500" d="M68.88 329.85c-4.69-10.56-25.37-51.42-26.14-53.46-1.19-9.87 26.22-5.28 30.39-6.13 24.2 2.02 24.43 40.45 77.13 50.57l-81.38 9.02z"/><path fill="#FFF" d="M68.88 329.85c89.29-10.78 364.09-45.86 454.76-54.48 9.19 0 20.94-.77 41.12 14.3 60.2 4.53 49.46 44.59-15.41 55.16-26.22 3.06-263.73 30.65-274.97 32.69-20.33 4.1-162.39-15.71-191.2-20.09-11.58-1.7-17.37-10.55-14.3-27.58z"/><path fill="#FF2A00" d="m85.47 358.08 509.88-60.59a42.53 42.53 0 0 0-3.31-1.65L79.77 356.72c1.42.54 2.94.95 4.61 1.2l1.09.16z"/><path fill="#1777BF" d="M202.8 333.56c.07-5.97-7.47-5.97-7.41 0-.06 5.97 7.48 5.97 7.41 0zM208.59 331.86c-.07 5.97 7.47 5.97 7.41 0 .06-5.96-7.48-5.96-7.41 0zM222.21 330.13c-.07 5.97 7.47 5.97 7.41 0 .07-5.97-7.47-5.97-7.41 0zM234.73 328.59c-.07 5.97 7.47 5.97 7.41 0 .06-5.96-7.48-5.96-7.41 0zM248.34 326.81c-.07 5.97 7.47 5.97 7.41 0 .07-5.97-7.47-5.97-7.41 0zM268.35 324.88c.07-5.97-7.48-5.97-7.41 0-.06 5.96 7.48 5.96 7.41 0zM281.72 323.95c.07-5.97-7.47-5.96-7.41 0-.07 5.97 7.47 5.97 7.41 0zM287.42 322.34c-.07 5.97 7.47 5.97 7.41 0 .06-5.97-7.48-5.97-7.41 0zM300.1 320.7c-.07 5.97 7.47 5.97 7.41 0 .07-5.96-7.47-5.96-7.41 0zM313.47 319.17c-.07 5.97 7.47 5.97 7.41 0 .06-5.97-7.48-5.97-7.41 0zM326.87 317.63c-.07 5.97 7.47 5.97 7.41 0 .07-5.96-7.47-5.96-7.41 0zM339.56 316.15c-.07 5.97 7.48 5.96 7.41 0 .06-5.97-7.48-5.97-7.41 0zM353.16 314.28c-.07 5.97 7.48 5.96 7.41 0 .07-5.97-7.48-5.97-7.41 0zM365.93 312.71c-.07 5.97 7.48 5.96 7.41 0 .06-5.97-7.48-5.97-7.41 0zM379.15 311.3c-.07 5.97 7.47 5.96 7.41 0 .06-5.96-7.48-5.96-7.41 0zM392.36 309.58c-.07 5.97 7.47 5.96 7.41 0 .07-5.96-7.47-5.97-7.41 0zM405.56 307.88c-.07 5.96 7.47 5.97 7.41 0 .06-5.97-7.48-5.97-7.41 0zM418.46 306.26c-.07 5.96 7.48 5.96 7.41 0 .06-5.97-7.48-5.97-7.41 0zM431.4 304.72c-.07 5.97 7.47 5.97 7.41 0 .06-5.96-7.48-5.96-7.41 0zM444.25 303.1c-.07 5.96 7.47 5.97 7.41 0 .06-5.96-7.48-5.96-7.41 0zM457.53 302.17c-.07 5.97 7.47 5.97 7.41 0 .06-5.97-7.48-5.97-7.41 0zM470.86 300.51c-.07 5.97 7.47 5.97 7.41 0 .06-5.96-7.48-5.96-7.41 0zM483.99 298.58c-.07 5.97 7.47 5.96 7.41 0 .06-5.97-7.48-5.97-7.41 0zM496.91 296.97c-.07 5.96 7.47 5.96 7.41 0 .06-5.97-7.48-5.97-7.41 0zM509.72 295.51c-.07 5.97 7.47 5.97 7.41 0 .06-5.96-7.48-5.96-7.41 0zM564.76 289.67a106.5 106.5 0 0 0-8.68-5.86c-3.27.34-10.83 1.21-21.03 2.96-9.99 1.72-6 9.01-4.25 8.74 4.39-.69 25.32-4.37 34.17-5.83l-.21-.01z"/><path fill="#BCC0C1" d="M81.99 341.42c7.49-1.53 35.42-9.71 42.22-11.75 6.81-2.04 13.62.34 13.62 6.98 0 6.64-2.39 10.73-13.62 10.56-11.24-.17-41.03.01-42.22 0-1.19 0-2.06-5.32 0-5.79z"/><path fill="#FFB500" d="M276.38 351.98c-1.52-7.49-5.6-24.66-5.43-25.35.17-.7 1.88-4.1 8.85-3.42 0 0 12.65 19.29 26.5 23.26l-29.92 5.51z"/><path fill="#BCC0C1" d="M276.93 351.3c11.58-1.36 172.64-31.18 183.88-33.3 11.24-2.12 20.43 2.31 20.43 11.24 0 8.94-8.68 13.03-14.3 13.54-1.14-2.19-203.42 18.05-190.01 8.52z"/><path fill="#FFB500" d="M450.09 345.85c.68 4.6 1.53 17.2 1.87 20.77.34 3.57-.51 7.32-15.32 8-14.81.68-16.17 2.21-29.11-1.02-21.97-4.82-21.49-14.4-3.53-24.43 10.09-5.75 15.2-7.28 22.09-7.92 9.78.38 23.27-6.94 24 4.6z"/></svg>