<svg version="1.2" baseProfile="tiny-ps" width="200" height="200" viewBox="0 0 200 200" xmlns="http://www.w3.org/2000/svg">
<title>e-Circu</title>
<rect width="200" height="200" fill="#2DA78C"/>
<path d="M48.1167 55.9289H45.747L46.9339 57.9799L71.2492 99.999L46.8608 142.019L45.6695 144.071H48.0427H114.632H117.01L115.813 142.017L107.23 127.291L106.835 126.612H106.049H75.9445L91.0271 100.687L91.4269 100L91.0271 99.3129L75.9445 73.3877H106.049H106.838L107.232 72.7048L115.741 57.9791L116.926 55.9289H114.558H48.1167ZM134.587 55.9289H133.801L133.406 56.6079L108.546 99.3125L108.147 99.998L108.544 100.684L133.256 143.389L133.651 144.071H134.439H151.382H153.752L152.565 142.02L128.251 100.003L152.784 57.9844L153.985 55.9289H151.604H134.587Z" fill="white" stroke="white" stroke-width="2.7331"/>
</svg>
