<?xml version="1.0" encoding="UTF-8" standalone="yes"?>
<svg width="400" height="400" viewBox="0 0 400 400" fill="none" version="1.2" baseProfile="tiny-ps" xmlns="http://www.w3.org/2000/svg">
  <title>bimi-svg-tiny-12-ps</title>
  <circle cx="200" cy="200" r="200" fill="white"/>
  <path d="M102 122.401V219.261C102 269.639 157.74 295.575 199.357 317.8V318C240.973 295.775 296.713 269.839 296.713 219.461V122.602L102 122.401Z" fill="#B0B1C8"/>
  <path d="M264.5 58C282.439 58 297 72.5164 297 90.4008V122.802H232V90.4008C232 72.5164 246.561 58 264.5 58Z" fill="#D14A86"/>
  <path d="M297 122.802H232V187.603H297V122.802Z" fill="#EBECF3"/>
  <path d="M199.5 122.401H232V187.203H199.5C181.561 187.203 167 172.687 167 154.802C167 136.918 181.561 122.401 199.5 122.401Z" fill="#827CA7"/>
  <path d="M297 122.401H329.5C347.439 122.401 362 136.918 362 154.802C362 172.687 347.439 187.203 329.5 187.203H297V122.401Z" fill="#A72A83"/>
  <path d="M296.705 187.603H231.992V220.004C231.992 237.896 246.546 252.405 264.492 252.405C281.549 252.405 295.959 239.169 296.648 222.178C296.684 221.284 296.705 220.376 296.705 219.468V187.61V187.603Z" fill="#C6C5D7"/>
</svg>