<?xml version="1.0" encoding="UTF-8" standalone="yes"?>
<svg version="1.2" viewBox="0 0 322 322" xml:space="preserve" baseProfile="tiny-ps" xmlns="http://www.w3.org/2000/svg">
  <title>Emocean Cruises GmbH</title>
  <rect class="st0" width="322" height="322" fill="#FFFFFF"/>
  <g id="g10" transform="matrix(1.3333333,0,0,-1.3333333,0,207.88)">
    <g id="g12" transform="scale(0.1)">
      <path id="path14" class="st1" d="M1412.7,697.8l-194.9,250l-192.2-252.6c37,5.3,90.3,18.4,166.2,46.7&#xA;&#x9;&#x9;&#x9;C1293.3,779.7,1365,745,1412.7,697.8" fill="#A16428"/>
      <path id="path16" class="st2" d="M1022,669.6l205.5-267.1l63.7,325.8c0,0-43.1,3.6-91.2-13.7C1109.5,681,1054.6,671,1022,669.6" fill="#B7B4C9"/>
      <path id="path18" class="st3" d="M1405.2,669.3c0,0-43.9,53.3-114.2,59.1l-63.6-325.8L1405.2,669.3" fill="#7C7B9E"/>
      <path id="path20" class="st4" d="M374.7,9.4c-1.2-0.6-1.8-7.2-0.6-9c10.2,0,31.8,1.8,70.8,1.8c45.6,0,93.6-1.2,154.8-1.8&#xA;&#x9;&#x9;&#x9;c13.8,0,21,1.2,24.6,6c13.8,18.6,28.8,54,33,69.6c-0.6,1.8-6,4.2-7.2,3.6c-8.4-16.2-21.6-33.6-33-45c-10.8-10.8-25.2-19.8-54-19.2&#xA;&#x9;&#x9;&#x9;c-53.4,0.6-76.8,0.6-85.8,3c-4.2,1.2-7.2,6.6-6.6,13.2c3,30.6,14.4,109.2,20.4,147.6c0,1.8,1.2,4.2,3,4.2c25.2,0,70.8,0,90.6-1.8&#xA;&#x9;&#x9;&#x9;c15.6-1.2,18.6-9,19.2-26.4c0-7.8,0.6-10.8,0.6-16.8c0.6-0.6,7.8-1.2,9,0c1.8,14.4,4.8,41.4,7.2,54.6s7.8,36,10.8,46.2&#xA;&#x9;&#x9;&#x9;c-1.2,1.2-7.8,1.8-9.6,0.6c-2.4-7.8-4.8-12.6-7.8-19.2c-3.6-7.2-10.2-21-29.4-21.6c-17.4-0.6-57.6-0.6-87.6-0.6&#xA;&#x9;&#x9;&#x9;c-0.6,0-1.8,1.8-1.8,3c7.2,45,19.2,122.4,24.6,146.4c1.2,4.2,3,6.6,7.8,7.8c13.2,1.2,69.6,0.6,85.2-0.6c25.2-1.8,30.6-9,31.8-27.6&#xA;&#x9;&#x9;&#x9;c0.6-7.8,0.6-18,0.6-28.8c1.2-1.2,9-1.2,10.2,0.6c3.6,19.2,9.6,52.8,16.8,72c0,0.6-0.6,1.8-1.2,2.4c-15.6-4.2-38.4-3.6-60-3.6&#xA;&#x9;&#x9;&#x9;H500.7c-32.4,0-55.8,1.8-61.2,1.8c-0.6-0.6-2.4-6.6-1.2-8.4c15-1.8,24.6-3,30-4.8c14.4-4.2,13.2-13.8,11.4-32.4&#xA;&#x9;&#x9;&#x9;c-1.8-20.4-39.6-259.8-44.4-279.6c-6-24.6-10.8-29.4-24.6-32.4C399.3,11.8,389.7,10.6,374.7,9.4L374.7,9.4z M684.3,176.8&#xA;&#x9;&#x9;&#x9;c15,14.4,25.2,24,32.4,24c3,0,3.6-7.2,2.4-15c-3-27-19.8-107.4-31.2-159c-4.2-19.2-4.8-24-5.4-28.8c0-3.6,3-5.4,4.2-5.4&#xA;&#x9;&#x9;&#x9;c3.6,0.6,21.6,10.8,30,21c-3,9.6,6,46.2,13.8,67.2c6.6,16.8,12.6,27,14.4,30c40.8,63,76.2,94.2,94.2,94.2c10.8,0,10.2-15.6,9-25.2&#xA;&#x9;&#x9;&#x9;c-6.6-60-31.8-169.2-33-180.6c-0.6-3.6,0.6-6.6,2.4-6.6c3,0,26.4,13.2,30.6,18.6c-1.8,13.2,4.8,40.2,9,52.2&#xA;&#x9;&#x9;&#x9;c6.6,21.6,20.4,43.8,21,45c28.2,45,75,97.2,99,97.2c9,0,9-12,5.4-30c-6-30-14.4-69.6-23.4-118.8c-7.2-38.4-8.4-64.2,2.4-64.2&#xA;&#x9;&#x9;&#x9;c7.8,0,34.2,13.8,63,54c0.6,2.4,1.2,8.4,1.2,10.2c0,1.2-0.6,1.8-1.2,1.8c-17.4-22.2-27.6-25.8-33-25.8c-6.6,0-5.4,13.8-4.2,22.8&#xA;&#x9;&#x9;&#x9;c6,39,10.8,58.2,22.2,114.6c10.8,55.2,8.4,70.2-1.8,70.2c-26.4,0-94.2-57-140.4-127.8c-0.6-1.2-1.2-0.6-1.2,1.2&#xA;&#x9;&#x9;&#x9;c3.6,21.6,8.4,47.4,12,75c4.2,31.8,1.8,51.6-9.6,51.6c-21,0-81-46.2-133.2-123.6c-0.6,0-1.8-0.6-2.4-0.6c5.4,24,10.8,48,15.6,76.8&#xA;&#x9;&#x9;&#x9;c4.2,27,6.6,47.4-0.6,47.4c-11.4,0-42-25.2-63-52.2c-0.6-1.2-1.8-7.2-1.8-9.6C683.1,177.4,683.7,176.8,684.3,176.8L684.3,176.8z&#xA;&#x9;&#x9;&#x9; M1191.9,240.4c-15.6,0-49.8-11.4-72.6-29.4c-42-31.2-60-91.8-60-144c0-40.8,15-74.4,47.4-74.4c10.2,0,31.2,4.8,55.2,19.2&#xA;&#x9;&#x9;&#x9;c53.4,31.2,79.2,96.6,79.2,157.8C1241.1,200.2,1230.9,240.4,1191.9,240.4z M1092.3,86.8c0,52.8,23.4,133.8,72.6,133.8&#xA;&#x9;&#x9;&#x9;c33,0,43.2-28.8,43.2-67.8c0-65.4-33.6-138-72.6-138C1104.9,14.8,1092.3,38.2,1092.3,86.8z M1364.7,215.8c13.2,0,25.8-3.6,39-18.6&#xA;&#x9;&#x9;&#x9;c0.6-0.6,3.6,0,4.8,0.6c6,4.2,16.2,15,18.6,22.2c0.6,1.2,0.6,5.4,0,7.2c-1.8,6-14.4,13.2-32.4,13.2c-11.4,0-35.4-10.8-57-26.4&#xA;&#x9;&#x9;&#x9;c-46.2-33-64.2-99-64.2-151.8c0-15.6,3-33,7.2-43.2c6.6-16.2,19.2-26.4,36-26.4c25.2,0,67.8,22.2,96,62.4c0.6,0.6,2.4,9,2.4,11.4&#xA;&#x9;&#x9;&#x9;c0,1.2-1.2,1.8-1.8,1.8c-28.2-36.6-56.4-46.2-70.8-46.2c-30,0-38.4,27-38.4,60.6C1304.1,152.2,1333.5,215.8,1364.7,215.8&#xA;&#x9;&#x9;&#x9;L1364.7,215.8z M1536.9,219.4c15,0,21.6-12.6,21.6-24.6c0-21.6-11.4-34.8-26.4-44.4c-18.6-11.4-39-19.2-56.4-23.4&#xA;&#x9;&#x9;&#x9;c-0.6,0-2.4,0-1.8,3C1483.5,190.6,1514.1,219.4,1536.9,219.4L1536.9,219.4z M1563.9,240.4c-15.6,0-53.4-15.6-78-39.6&#xA;&#x9;&#x9;&#x9;c-33-32.4-46.8-91.8-46.8-133.8c0-39,11.4-73.2,42.6-73.2c30.6,0,71.4,23.4,97.8,57.6c0.6,1.2,3,9.6,3,12c0,0.6-1.2,1.8-1.8,1.8&#xA;&#x9;&#x9;&#x9;c-29.4-33.6-52.8-40.8-72.6-40.8c-26.4,0-39,21.6-39,64.2c0,9,0.6,15,1.2,19.2c0,1.8,1.2,4.2,3,4.8c17.4,6.6,43.2,16.2,66.6,30.6&#xA;&#x9;&#x9;&#x9;c27.6,16.8,48.6,40.2,48.6,67.8C1588.5,226,1577.7,240.4,1563.9,240.4L1563.9,240.4z M1803.9,55.6c-16.8-20.4-26.4-25.8-31.8-25.8&#xA;&#x9;&#x9;&#x9;c-3.6,0-6.6,3-6,16.2c1.2,27.6,16.8,117.6,26.4,152.4c1.2,4.2,3,13.8,13.2,36c-10.8,2.4-27,4.8-45,4.8c-43.2,0-86.4-32.4-101.4-48&#xA;&#x9;&#x9;&#x9;c-34.8-37.2-54-92.4-54-143.4c0-19.8,4.2-55.2,25.2-55.2c22.8,0,78.6,53.4,113.4,107.4c0.6,1.2,1.8,0.6,1.2-0.6&#xA;&#x9;&#x9;&#x9;c-3.6-18.6-7.8-47.4-9.6-61.2c-4.2-33.6,0.6-45.6,9-45.6c11.4,0,43.2,24,60,51.6c1.2,1.8,1.2,9,0.6,10.8&#xA;&#x9;&#x9;&#x9;C1805.1,55.6,1803.9,55.6,1803.9,55.6L1803.9,55.6z M1656.9,29.2c-13.2,0-19.2,13.2-19.2,40.2c0,30,5.4,66.6,25.2,103.2&#xA;&#x9;&#x9;&#x9;c13.8,25.2,37.2,46.2,71.4,46.2c13.2,0,31.2-2.4,37.2-5.4c-3-6-9.6-32.4-15.6-56.4c-4.2-17.4-10.8-34.2-19.8-49.2&#xA;&#x9;&#x9;&#x9;C1700.1,49.6,1671.3,29.2,1656.9,29.2z M1837.5,177.4c15,15.6,26.4,23.4,31.2,23.4c3,0,3.6-4.8,2.4-13.2&#xA;&#x9;&#x9;&#x9;c-10.2-73.8-33.6-172.8-36-190.8c0-1.2,3-4.8,5.4-4.2c3.6,0.6,24,12.6,29.4,21c-3.6,6.6,1.8,28.8,7.8,50.4&#xA;&#x9;&#x9;&#x9;c4.2,15,10.2,31.8,18.6,45c42.6,67.8,76.8,96.6,94.8,96.6c9.6,0,10.8-9,7.8-27.6c-4.8-27-15-75.6-24.6-123.6&#xA;&#x9;&#x9;&#x9;c-6.6-37.2-9-61.8,1.8-61.8c12,0,42,21,64.2,54c0.6,1.2,1.2,9,1.2,10.8c0,0.6-0.6,1.2-1.2,1.2c-18-21.6-27.6-27-33-27&#xA;&#x9;&#x9;&#x9;s-5.4,9.6-4.2,19.2c5.4,35.4,13.8,79.2,22.8,124.8c10.2,51.6,5.4,64.8-2.4,64.8c-9,0-19.8-5.4-31.2-12.6&#xA;&#x9;&#x9;&#x9;c-26.4-16.8-65.4-51-104.4-109.8c-0.6-1.2-1.8-0.6-1.8,0c4.2,18,8.4,42,13.2,67.8c6,31.2,9,54.6,0.6,54.6s-37.8-21-63-52.2&#xA;&#x9;&#x9;&#x9;c0-1.2-1.8-9-0.6-10.2C1836.3,177.4,1836.9,177.4,1837.5,177.4" fill="#263762"/>
      <path id="path22" class="st4" d="M666.6-243h49.6c0.1,0.5,0.2,1.2,0.2,1.9c0,0.8,0.1,1.5,0.1,2.2c0,0.6,0,1.3-0.1,2.2&#xA;&#x9;&#x9;&#x9;c0,0.8-0.1,1.5-0.2,2h-40.5v86.6c-0.6,0.1-1.3,0.2-2.1,0.2c-0.8,0.1-1.6,0.1-2.4,0.1c-0.9,0-1.7,0-2.6-0.1c-0.8,0-1.5-0.1-2-0.2&#xA;&#x9;&#x9;&#x9;V-243z M738.5-206.6c0-12.7,2.6-22.2,7.8-28.5c5.2-6.3,13.4-9.5,24.6-9.5c11.2,0,19.4,3.2,24.6,9.5c5.2,6.3,7.8,15.8,7.8,28.5&#xA;&#x9;&#x9;&#x9;v58.5c-0.6,0.1-1.4,0.2-2.2,0.2c-0.9,0.1-1.7,0.1-2.4,0.1c-0.8,0-1.6,0-2.4-0.1c-0.8,0-1.5-0.1-2.1-0.2v-57.3&#xA;&#x9;&#x9;&#x9;c0-11-1.9-18.8-5.6-23.5c-3.7-4.7-9.6-7-17.6-7c-4.1,0-7.5,0.6-10.4,1.6c-2.9,1.1-5.3,2.9-7.2,5.4s-3.3,5.6-4.2,9.4&#xA;&#x9;&#x9;&#x9;c-0.9,3.8-1.4,8.5-1.4,14.1v57.3c-0.6,0.1-1.3,0.2-2.1,0.2c-0.8,0.1-1.6,0.1-2.4,0.1c-0.7,0-1.5,0-2.4-0.1c-0.9,0-1.6-0.1-2.2-0.2&#xA;&#x9;&#x9;&#x9;L738.5-206.6z M864.4-193l-21.8,44.9c-0.7,0.1-1.5,0.2-2.4,0.2c-0.9,0.1-1.7,0.1-2.4,0.1c-1,0-1.8,0-2.5-0.1&#xA;&#x9;&#x9;&#x9;c-0.7,0-1.5-0.1-2.5-0.2l22-45.1L829.3-243c0.8-0.1,1.6-0.2,2.5-0.2s1.7-0.1,2.5-0.1c0.7,0,1.5,0,2.4,0s1.7,0.1,2.4,0.3L864.4-193&#xA;&#x9;&#x9;&#x9;z M890.9-243c0.8-0.1,1.6-0.2,2.4-0.2s1.5-0.1,2.2-0.1c0.8,0,1.6,0,2.6,0.1c0.9,0,1.8,0.1,2.6,0.2L875-192.4l22,44.4&#xA;&#x9;&#x9;&#x9;c-1,0.1-1.8,0.2-2.4,0.2c-0.7,0.1-1.5,0.1-2.4,0.1c-0.7,0-1.5,0-2.4-0.1c-0.9,0-1.7-0.1-2.4-0.2l-22-45L890.9-243z M926.8-206.6&#xA;&#x9;&#x9;&#x9;c0-12.7,2.6-22.2,7.8-28.5s13.4-9.5,24.5-9.5c11.2,0,19.4,3.2,24.6,9.5c5.2,6.3,7.8,15.8,7.8,28.5v58.5c-0.6,0.1-1.4,0.2-2.2,0.2&#xA;&#x9;&#x9;&#x9;c-0.9,0.1-1.7,0.1-2.4,0.1c-0.8,0-1.6,0-2.4-0.1c-0.8,0-1.5-0.1-2.1-0.2v-57.3c0-11-1.9-18.8-5.6-23.5c-3.7-4.7-9.6-7-17.6-7&#xA;&#x9;&#x9;&#x9;c-4,0-7.5,0.6-10.4,1.6c-2.9,1.1-5.3,2.9-7.2,5.4s-3.3,5.6-4.2,9.4c-0.9,3.8-1.4,8.5-1.4,14.1v57.3c-0.6,0.1-1.3,0.2-2.1,0.2&#xA;&#x9;&#x9;&#x9;c-0.8,0.1-1.6,0.1-2.4,0.1c-0.7,0-1.5,0-2.4-0.1c-0.9,0-1.6-0.1-2.2-0.2L926.8-206.6z M1027.7-243c0.6-0.1,1.3-0.2,2.1-0.2&#xA;&#x9;&#x9;&#x9;c0.8,0,1.6-0.1,2.4-0.1c0.7,0,1.5,0,2.4,0.1s1.6,0.1,2.2,0.2v88c2.2,0.3,4.1,0.4,5.7,0.5s3.3,0.1,5.2,0.1c7.2,0,12.9-1.7,17.2-5.1&#xA;&#x9;&#x9;&#x9;c4.2-3.4,6.3-8.6,6.3-15.4c0-3.3-0.7-6.2-2-8.7s-3.1-4.6-5.2-6.4c-2.2-1.8-4.6-3.3-7.4-4.6s-5.7-2.3-8.7-3.1l-2.9-0.8v-0.5&#xA;&#x9;&#x9;&#x9;l33.3-43.9c0.9-0.2,1.7-0.3,2.6-0.3c0.8,0,1.7,0,2.6,0s1.8,0,2.6,0s1.8,0.1,2.6,0.3l-30.2,40.9l1.1,0.4c2.7,1.1,5.4,2.4,8,4&#xA;&#x9;&#x9;&#x9;s4.9,3.6,6.9,5.8c2,2.2,3.6,4.8,4.8,7.6c1.2,2.8,1.8,5.9,1.8,9.4c0,5.5-1,10.1-3,13.8c-2,3.6-4.6,6.6-7.9,8.7&#xA;&#x9;&#x9;&#x9;c-3.2,2.2-6.9,3.7-11,4.6c-4.1,0.9-8.2,1.3-12.5,1.3c-2,0-3.8,0-5.3-0.1c-1.5,0-2.9-0.1-4.3-0.3c-1.4-0.1-2.8-0.3-4.2-0.4&#xA;&#x9;&#x9;&#x9;c-1.4-0.1-3.2-0.3-5.1-0.5L1027.7-243z M1133.4-243c0.5-0.1,1.2-0.2,2.1-0.2c0.8,0,1.7-0.1,2.6-0.1c0.8,0,1.6,0,2.4,0.1&#xA;&#x9;&#x9;&#x9;s1.5,0.1,2.1,0.2v35.2l29.8,59.7c-0.5,0.1-1.3,0.2-2.2,0.2c-1,0.1-1.9,0.1-2.8,0.1c-0.8,0-1.6,0-2.4-0.1c-0.8,0-1.6-0.1-2.3-0.2&#xA;&#x9;&#x9;&#x9;l-24.4-50.2l-24.8,50.2c-0.6,0.1-1.5,0.2-2.6,0.2c-1.1,0.1-2,0.1-2.8,0.1c-0.9,0-1.8,0-2.8-0.1c-1,0-1.7-0.1-2.2-0.2l30.5-59.7&#xA;&#x9;&#x9;&#x9;L1133.4-243z M1293.6-235.2c-3.4-0.8-7.2-1.2-11.3-1.2c-4.8,0-9.3,0.8-13.5,2.4c-4.2,1.6-7.8,4-11,7.3s-5.6,7.5-7.3,12.5&#xA;&#x9;&#x9;&#x9;c-1.8,5-2.6,10.9-2.6,17.7c0,6.6,0.8,12.5,2.4,17.7s3.8,9.6,6.7,13.2c2.9,3.6,6.4,6.4,10.6,8.2c4.1,1.9,8.8,2.8,14,2.8&#xA;&#x9;&#x9;&#x9;c2.6,0,4.9-0.1,6.9-0.3s3.7-0.4,5.2-0.7s2.8-0.6,4-0.9c1.2-0.3,2.4-0.7,3.5-1.1c0.6,1.5,1.1,2.8,1.4,3.8c0.3,1.1,0.6,2.4,0.7,4&#xA;&#x9;&#x9;&#x9;c-1.7,0.5-4.3,1.2-8.1,2c-3.7,0.8-8.3,1.2-13.9,1.2c-6.6,0-12.6-1.1-17.9-3.4c-5.3-2.2-9.9-5.5-13.6-9.8s-6.6-9.5-8.7-15.7&#xA;&#x9;&#x9;&#x9;s-3.1-13.3-3.1-21.2c0-7.7,1.1-14.6,3.2-20.6s5.1-11,8.8-15.1c3.8-4.1,8.3-7.1,13.7-9.2c5.3-2.1,11.2-3.2,17.6-3.2&#xA;&#x9;&#x9;&#x9;c4.6,0,8.9,0.4,13.1,1.3c4.1,0.8,7.7,2,10.7,3.5c-0.3,1.3-0.7,2.6-1.2,3.8s-1.1,2.5-1.8,3.8C1299.8-233.4,1297-234.4,1293.6-235.2&#xA;&#x9;&#x9;&#x9;L1293.6-235.2z M1335.1-243c0.6-0.1,1.3-0.2,2.1-0.2s1.6-0.1,2.4-0.1c0.7,0,1.5,0,2.4,0.1s1.6,0.1,2.2,0.2v88&#xA;&#x9;&#x9;&#x9;c2.2,0.3,4.1,0.4,5.7,0.5s3.3,0.1,5.2,0.1c7.2,0,12.9-1.7,17.2-5.1c4.2-3.4,6.3-8.6,6.3-15.4c0-3.3-0.7-6.2-2-8.7&#xA;&#x9;&#x9;&#x9;s-3.1-4.6-5.2-6.4c-2.2-1.8-4.6-3.3-7.5-4.6c-2.8-1.3-5.7-2.3-8.7-3.1l-2.9-0.8v-0.5l33.3-43.9c0.9-0.2,1.7-0.3,2.6-0.3&#xA;&#x9;&#x9;&#x9;c0.8,0,1.7,0,2.6,0s1.8,0,2.6,0s1.8,0.1,2.6,0.3l-30.2,40.9l1.1,0.4c2.7,1.1,5.4,2.4,8,4s4.9,3.6,6.9,5.8c2,2.2,3.6,4.8,4.8,7.6&#xA;&#x9;&#x9;&#x9;c1.2,2.8,1.8,5.9,1.8,9.4c0,5.5-1,10.1-3,13.8c-2,3.6-4.6,6.6-7.8,8.7c-3.3,2.2-6.9,3.7-11,4.6c-4.1,0.9-8.2,1.3-12.5,1.3&#xA;&#x9;&#x9;&#x9;c-2,0-3.8,0-5.3-0.1c-1.5,0-2.9-0.1-4.3-0.3c-1.4-0.1-2.8-0.3-4.2-0.4c-1.4-0.1-3.2-0.3-5.1-0.5L1335.1-243z M1422.1-206.6&#xA;&#x9;&#x9;&#x9;c0-12.7,2.6-22.2,7.8-28.5c5.2-6.3,13.4-9.5,24.6-9.5s19.4,3.2,24.6,9.5s7.8,15.8,7.8,28.5v58.5c-0.6,0.1-1.4,0.2-2.2,0.2&#xA;&#x9;&#x9;&#x9;c-0.9,0.1-1.7,0.1-2.4,0.1c-0.8,0-1.6,0-2.4-0.1c-0.8,0-1.5-0.1-2.1-0.2v-57.3c0-11-1.9-18.8-5.6-23.5s-9.6-7-17.6-7&#xA;&#x9;&#x9;&#x9;c-4.1,0-7.5,0.6-10.4,1.6c-2.9,1.1-5.3,2.9-7.2,5.4c-1.9,2.5-3.3,5.6-4.2,9.4c-0.9,3.8-1.4,8.5-1.4,14.1v57.3&#xA;&#x9;&#x9;&#x9;c-0.6,0.1-1.3,0.2-2.1,0.2c-0.8,0.1-1.6,0.1-2.4,0.1c-0.7,0-1.5,0-2.4-0.1c-0.9,0-1.6-0.1-2.2-0.2L1422.1-206.6z M1522.9-243&#xA;&#x9;&#x9;&#x9;c0.5-0.1,1.2-0.2,2.1-0.2c0.8,0,1.7-0.1,2.6-0.1c0.8,0,1.6,0,2.4,0.1c0.8,0,1.5,0.1,2.1,0.2v94.9c-0.6,0.1-1.3,0.2-2.1,0.2&#xA;&#x9;&#x9;&#x9;c-0.8,0.1-1.6,0.1-2.4,0.1c-0.7,0-1.5,0-2.4-0.1c-0.9,0-1.6-0.1-2.2-0.2L1522.9-243L1522.9-243z M1564.2-236.6&#xA;&#x9;&#x9;&#x9;c-0.4-1.5-0.8-3-0.9-4.3c3-1,6.2-1.8,9.6-2.6c3.4-0.7,7.7-1.1,12.9-1.1c5.4,0,10.2,0.6,14.5,1.9c4.3,1.3,8,3.1,11,5.5&#xA;&#x9;&#x9;&#x9;s5.3,5.4,6.9,9s2.4,7.6,2.4,12.2c0,4-0.7,7.5-2,10.4s-3.1,5.3-5.4,7.5c-2.3,2.1-5,4-8.2,5.5c-3.2,1.6-6.7,3.1-10.4,4.6&#xA;&#x9;&#x9;&#x9;c-2.7,1.1-5.3,2.1-7.7,3.2c-2.4,1.1-4.4,2.3-6.1,3.6s-3.1,2.9-4,4.6c-1,1.8-1.4,3.8-1.4,6.2c0,4.6,1.6,8.4,4.8,11.4&#xA;&#x9;&#x9;&#x9;c3.2,3,8.4,4.5,15.7,4.5c3.2,0,6.5-0.3,9.8-0.9c3.3-0.6,6-1.2,8.1-1.9c0.4,1.2,0.8,2.5,1.1,3.9c0.3,1.4,0.6,2.7,0.7,4&#xA;&#x9;&#x9;&#x9;c-0.9,0.3-2.1,0.6-3.5,0.9s-3,0.7-4.8,0.9c-1.7,0.3-3.6,0.5-5.6,0.7s-3.9,0.3-5.9,0.3c-9.9,0-17.4-2.2-22.5-6.6&#xA;&#x9;&#x9;&#x9;c-5.2-4.4-7.7-10.2-7.7-17.3c0-4,0.6-7.3,1.8-9.9c1.2-2.6,2.9-4.9,5-6.8c2.1-1.9,4.6-3.5,7.3-4.8c2.8-1.3,5.7-2.6,8.8-3.7&#xA;&#x9;&#x9;&#x9;c4.3-1.7,7.9-3.2,10.8-4.7c2.8-1.4,5.1-3,6.7-4.5c1.6-1.6,2.8-3.3,3.4-5.2s1-4.2,1-6.8c0-2.7-0.5-5.3-1.4-7.6&#xA;&#x9;&#x9;&#x9;c-1-2.3-2.4-4.3-4.4-6.1c-2-1.7-4.5-3.1-7.5-4.1s-6.7-1.5-10.9-1.5c-2.6,0-5,0.1-7,0.4c-2,0.3-3.9,0.6-5.5,0.9&#xA;&#x9;&#x9;&#x9;c-1.6,0.4-3.1,0.8-4.4,1.2s-2.6,0.8-3.8,1.2C1565.2-233.7,1564.7-235.1,1564.2-236.6L1564.2-236.6z M1651.2-243h52&#xA;&#x9;&#x9;&#x9;c0.1,0.5,0.2,1.2,0.2,2s0.1,1.6,0.1,2.2c0,0.7,0,1.4-0.1,2.2s-0.1,1.4-0.2,1.9h-42.9v37.9h33.5c0.1,0.5,0.2,1.2,0.2,2&#xA;&#x9;&#x9;&#x9;s0.1,1.6,0.1,2.2c0,0.7,0,1.4-0.1,2.2c-0.1,0.8-0.1,1.4-0.2,1.9h-33.5v32.1h41.7c0.1,0.5,0.2,1.2,0.2,2s0.1,1.6,0.1,2.2&#xA;&#x9;&#x9;&#x9;c0,0.7,0,1.4-0.1,2.2s-0.1,1.4-0.2,1.9h-50.8L1651.2-243L1651.2-243z M1728-236.6c-0.4-1.5-0.7-3-0.9-4.3c3-1,6.2-1.8,9.6-2.6&#xA;&#x9;&#x9;&#x9;c3.4-0.7,7.7-1.1,12.9-1.1c5.4,0,10.2,0.6,14.5,1.9c4.3,1.3,8,3.1,11,5.5s5.3,5.4,6.9,9s2.4,7.6,2.4,12.2c0,4-0.7,7.5-2,10.4&#xA;&#x9;&#x9;&#x9;s-3.1,5.3-5.4,7.5c-2.3,2.1-5,4-8.2,5.5c-3.2,1.6-6.7,3.1-10.4,4.6c-2.7,1.1-5.3,2.1-7.7,3.2c-2.4,1.1-4.4,2.3-6.1,3.6&#xA;&#x9;&#x9;&#x9;s-3.1,2.9-4,4.6c-1,1.8-1.5,3.8-1.5,6.2c0,4.6,1.6,8.4,4.8,11.4c3.2,3,8.4,4.5,15.7,4.5c3.3,0,6.5-0.3,9.8-0.9&#xA;&#x9;&#x9;&#x9;c3.3-0.6,6-1.2,8.1-1.9c0.4,1.2,0.8,2.5,1.1,3.9c0.3,1.4,0.6,2.7,0.7,4c-0.9,0.3-2,0.6-3.5,0.9c-1.5,0.4-3,0.7-4.8,0.9&#xA;&#x9;&#x9;&#x9;c-1.7,0.3-3.6,0.5-5.5,0.7c-2,0.2-3.9,0.3-5.9,0.3c-9.9,0-17.4-2.2-22.5-6.6c-5.2-4.4-7.7-10.2-7.7-17.3c0-4,0.6-7.3,1.8-9.9&#xA;&#x9;&#x9;&#x9;c1.2-2.6,2.9-4.9,5-6.8c2.1-1.9,4.6-3.5,7.3-4.8c2.8-1.3,5.7-2.6,8.8-3.7c4.3-1.7,7.9-3.2,10.8-4.7c2.9-1.4,5.1-3,6.7-4.5&#xA;&#x9;&#x9;&#x9;c1.6-1.6,2.8-3.3,3.4-5.2s1-4.2,1-6.8c0-2.7-0.5-5.3-1.4-7.6c-1-2.3-2.4-4.3-4.4-6.1c-2-1.7-4.5-3.1-7.5-4.1s-6.7-1.5-10.9-1.5&#xA;&#x9;&#x9;&#x9;c-2.6,0-5,0.1-7,0.4c-2,0.3-3.8,0.6-5.5,0.9c-1.6,0.4-3.1,0.8-4.4,1.2s-2.6,0.8-3.8,1.2C1729-233.7,1728.5-235.1,1728-236.6" fill="#263762"/>
    </g>
  </g>
</svg>