<?xml version="1.0" encoding="utf-8"?>
<!-- Generator: Adobe Illustrator 25.4.1, SVG Export Plug-In . SVG Version: 6.00 Build 0)  -->
<svg version="1.2" baseProfile="tiny-ps" id="lv" xmlns="http://www.w3.org/2000/svg" xmlns:xlink="http://www.w3.org/1999/xlink"
	  viewBox="0 0 2400 2475"  xml:space="preserve">
		<title>Tele2</title>
<g>
	<g>
		<g>
			<polygon fill="#1D1D1B" points="106.1,1115.6 106.1,1234.6 427.3,1199.3 427.3,1070.4 			"/>
			<polygon fill="#1D1D1B" points="208.6,1241.9 208.6,1649.8 326.2,1649.8 326.2,1229.9 			"/>
			<polygon fill="#1D1D1B" points="470.6,1064.3 470.6,1649.8 594.5,1649.8 594.5,1046.9 			"/>
			<polygon fill="#1D1D1B" points="617.6,1043.7 617.6,1178.4 796.5,1158.7 796.5,1018.5 			"/>
			<polygon fill="#1D1D1B" points="617.6,1278.6 617.6,1415.8 735.1,1409.3 735.1,1268.5 			"/>
			<polygon fill="#1D1D1B" points="617.6,1514.6 617.6,1649.8 796.5,1649.8 796.5,1509.2 			"/>
			<polygon fill="#1D1D1B" points="1259.2,953.3 1259.2,1649.8 1421.6,1649.8 1421.6,930.5 			"/>
			<polygon fill="#1D1D1B" points="1452,926.2 1452,1086.4 1688.7,1060.4 1688.7,893 			"/>
			<polygon fill="#1D1D1B" points="1452,1206.9 1452,1370.1 1607.1,1361.6 1607.1,1193.6 			"/>
			<polygon fill="#1D1D1B" points="1452,1489.4 1452,1649.8 1688.7,1649.8 1688.7,1482.2 			"/>
			<polygon fill="#1D1D1B" points="843.9,1011.9 843.9,1649.8 985,1649.8 985,992 			"/>
			<polygon fill="#1D1D1B" points="1011.4,1502.7 1011.4,1649.8 1216.2,1649.8 1216.2,1496.5 			"/>
			<path fill="#1D1D1B" d="M2219.3,885.1c-51.3-48.5-126.6-68.4-208.9-56.6v177.7c33.3-1.9,60.3,10.5,72.4,35.4
				c19,39.3-0.6,98.2-46.9,152.8c-71.4,84.2-261.2,256.7-261.2,256.7l272.5-9c166.5-162.7,226.3-261.4,237-384.7
				C2289.9,992.3,2266.3,929.4,2219.3,885.1z"/>
			<polygon fill="#1D1D1B" points="1741.1,1480.5 1741.2,1649.8 2293.9,1649.8 2293.9,1463.9 			"/>
			<path fill="#1D1D1B" d="M1978.6,832.5c-160.6,34.2-239.4,152.3-230.3,345.1l171.2-15.2c-7.8-108.9,25.5-134.7,59.2-148.9
				L1978.6,832.5z"/>
		</g>
	</g>
</g>
</svg>
