<?xml version="1.0" encoding="UTF-8" standalone="yes"?><svg xmlns="http://www.w3.org/2000/svg" xmlns:xlink="http://www.w3.org/1999/xlink" version="1.2" width="800px" height="800px" baseProfile="tiny-ps"><title>HOMEPRO CO.,LTD</title><desc>HOMEPRO Logo Image</desc><g><path fill="#fefefe" d="M -0.5,-0.5 C 266.167,-0.5 532.833,-0.5 799.5,-0.5C 799.5,266.167 799.5,532.833 799.5,799.5C 532.833,799.5 266.167,799.5 -0.5,799.5C -0.5,532.833 -0.5,266.167 -0.5,-0.5 Z"></path></g><g><path fill="#f5ab1a" d="M 348.5,172.5 C 383.168,172.333 417.835,172.5 452.5,173C 476.583,212.501 500.916,251.834 525.5,291C 536.461,290.27 547.461,289.77 558.5,289.5C 569.991,289.186 581.324,290.353 592.5,293C 603.827,295.156 606.994,301.323 602,311.5C 598.5,316.333 594.333,320.5 589.5,324C 571.724,335.556 553.058,345.556 533.5,354C 451.513,387.869 366.513,410.869 278.5,423C 257.918,425.882 237.251,426.882 216.5,426C 209.217,425.438 202.217,423.771 195.5,421C 189.975,418.081 188.142,413.581 190,407.5C 192.748,402.748 196.248,398.581 200.5,395C 225.22,377.889 251.72,364.056 280,353.5C 278.75,334.169 277.75,314.836 277,295.5C 300.845,254.473 324.678,213.473 348.5,172.5 Z"></path></g><g><path fill="#fefefd" d="M 347.5,195.5 C 348.496,195.414 349.329,195.748 350,196.5C 368.333,229.833 386.667,263.167 405,296.5C 404.692,328.525 403.525,360.525 401.5,392.5C 370.819,399.936 339.819,405.769 308.5,410C 303.845,410.499 299.179,410.666 294.5,410.5C 292.1,372.823 289.933,335.157 288,297.5C 308.097,263.637 327.931,229.637 347.5,195.5 Z"></path></g><g><path fill="#fefdfa" d="M 525.5,304.5 C 534.091,304.979 542.091,307.313 549.5,311.5C 553.148,315.557 553.315,319.89 550,324.5C 541.833,333.493 532.333,340.826 521.5,346.5C 521.728,332.442 523.061,318.442 525.5,304.5 Z"></path></g><g><path fill="#f5ab19" d="M 323.5,336.5 C 323.5,346.167 323.5,355.833 323.5,365.5C 321.5,365.5 319.5,365.5 317.5,365.5C 313.785,365.577 310.119,365.244 306.5,364.5C 305.932,346.829 305.265,329.162 304.5,311.5C 310.833,311.5 317.167,311.5 323.5,311.5C 323.5,319.833 323.5,328.167 323.5,336.5 Z"></path></g><g><path fill="#f5ab1b" d="M 357.5,311.5 C 364.833,311.5 372.167,311.5 379.5,311.5C 378.978,331.511 378.145,351.511 377,371.5C 370.592,370.387 364.092,369.72 357.5,369.5C 357.5,350.167 357.5,330.833 357.5,311.5 Z"></path></g><g><path fill="#f9cc74" d="M 323.5,336.5 C 324.494,346.319 324.827,356.319 324.5,366.5C 321.941,366.802 319.607,366.468 317.5,365.5C 319.5,365.5 321.5,365.5 323.5,365.5C 323.5,355.833 323.5,346.167 323.5,336.5 Z"></path></g><g><path fill="#fefdfb" d="M 278.5,365.5 C 279.5,365.5 280.5,365.5 281.5,365.5C 282.25,380.829 282.916,396.163 283.5,411.5C 269.826,413.069 256.826,410.902 244.5,405C 240.733,400.633 240.567,396.133 244,391.5C 246.128,388.37 248.628,385.537 251.5,383C 260.224,376.644 269.224,370.811 278.5,365.5 Z"></path></g><g><path fill="#f5ab1a" d="M 514.5,369.5 C 515.833,369.5 517.167,369.5 518.5,369.5C 515.17,397.796 512.17,426.13 509.5,454.5C 475.212,462.989 440.879,471.322 406.5,479.5C 366.759,471.652 327.092,463.485 287.5,455C 286.055,446.611 285.389,438.111 285.5,429.5C 288.579,429.74 291.579,429.407 294.5,428.5C 295.911,434.292 296.911,440.125 297.5,446C 330.799,453.16 364.133,459.993 397.5,466.5C 398.211,446.481 399.211,426.481 400.5,406.5C 434.958,397.514 468.958,387.014 502.5,375C 506.814,373.628 510.814,371.795 514.5,369.5 Z"></path></g><g><path fill="#050202" d="M 449.5,518.5 C 477.167,518.5 504.833,518.5 532.5,518.5C 532.5,516.5 532.5,514.5 532.5,512.5C 536.567,499.295 545.567,493.462 559.5,495C 577.413,502.062 581.913,514.229 573,531.5C 568.471,537.014 562.638,539.681 555.5,539.5C 552.679,594.483 524.012,624.983 469.5,631C 462.574,626.422 460.741,620.255 464,612.5C 465.5,611 467,609.5 468.5,608C 507.448,602.724 527.948,580.557 530,541.5C 529.5,541 529,540.5 528.5,540C 501.5,539.667 474.5,539.333 447.5,539C 441.065,534.313 439.898,528.479 444,521.5C 445.488,519.84 447.321,518.84 449.5,518.5 Z"></path></g><g><path fill="#060203" d="M 169.5,497.5 C 176.796,496.565 182.296,499.232 186,505.5C 186.5,511.825 186.666,518.158 186.5,524.5C 201.17,524.333 215.837,524.5 230.5,525C 237.8,528.438 239.967,533.938 237,541.5C 235.457,543.378 233.624,544.878 231.5,546C 216.504,546.5 201.504,546.667 186.5,546.5C 186.667,573.169 186.5,599.835 186,626.5C 182.34,635.507 175.84,638.34 166.5,635C 163.865,633.039 162.031,630.539 161,627.5C 160.5,600.502 160.333,573.502 160.5,546.5C 145.496,546.667 130.496,546.5 115.5,546C 110.206,542.565 108.373,537.732 110,531.5C 111.5,528.667 113.667,526.5 116.5,525C 131.163,524.5 145.83,524.333 160.5,524.5C 160.334,518.158 160.5,511.825 161,505.5C 163.074,501.923 165.907,499.256 169.5,497.5 Z"></path></g><g><path fill="#f9f9f9" d="M 550.5,506.5 C 561.989,505.155 566.823,510.155 565,521.5C 561.867,527.327 557.034,529.493 550.5,528C 541.303,520.718 541.303,513.551 550.5,506.5 Z"></path></g><g><path fill="#060303" d="M 373.5,509.5 C 383.614,508.038 389.614,512.205 391.5,522C 381.48,549.217 371.147,576.384 360.5,603.5C 381.823,604.5 403.156,604.833 424.5,604.5C 418.964,589.088 413.131,573.755 407,558.5C 405.639,551.723 408.139,546.89 414.5,544C 422.512,541.762 428.345,544.262 432,551.5C 438.804,569.579 445.804,587.579 453,605.5C 455.384,617.573 450.884,625.739 439.5,630C 408.167,630.667 376.833,630.667 345.5,630C 334.103,625.711 329.603,617.545 332,605.5C 343.951,574.307 356.284,543.307 369,512.5C 370.652,511.601 372.152,510.601 373.5,509.5 Z"></path></g><g><path fill="#bcbabb" d="M 532.5,512.5 C 532.5,514.5 532.5,516.5 532.5,518.5C 504.833,518.5 477.167,518.5 449.5,518.5C 476.662,517.502 503.995,517.169 531.5,517.5C 531.216,515.585 531.549,513.919 532.5,512.5 Z"></path></g><g><path fill="#060303" d="M 588.5,518.5 C 617.835,518.333 647.169,518.5 676.5,519C 685.131,521.06 689.965,526.56 691,535.5C 691.667,561.167 691.667,586.833 691,612.5C 689.97,622.531 684.47,628.364 674.5,630C 647.167,630.667 619.833,630.667 592.5,630C 583.037,628.537 577.537,623.037 576,613.5C 575.333,587.167 575.333,560.833 576,534.5C 576.774,530.951 578.107,527.618 580,524.5C 582.736,522.248 585.569,520.248 588.5,518.5 Z"></path></g><g><path fill="#f9f9f9" d="M 604.5,540.5 C 623.836,540.333 643.17,540.5 662.5,541C 663.333,541.833 664.167,542.667 665,543.5C 665.667,563.833 665.667,584.167 665,604.5C 664.167,605.333 663.333,606.167 662.5,607C 643.167,607.667 623.833,607.667 604.5,607C 603.667,606.167 602.833,605.333 602,604.5C 601.333,584.167 601.333,563.833 602,543.5C 603.045,542.627 603.878,541.627 604.5,540.5 Z"></path></g><g><path fill="#050202" d="M 135.5,557.5 C 147.844,556.012 153.344,561.346 152,573.5C 145.609,589.282 138.942,604.949 132,620.5C 127.827,624.191 122.993,625.358 117.5,624C 110.93,620.345 108.763,614.845 111,607.5C 117.667,592.167 124.333,576.833 131,561.5C 132.397,559.93 133.897,558.596 135.5,557.5 Z"></path></g><g><path fill="#060303" d="M 201.5,557.5 C 207.001,556.64 211.834,557.973 216,561.5C 222.862,577.085 229.528,592.752 236,608.5C 237.263,620.904 231.763,626.071 219.5,624C 215.942,622.108 213.442,619.275 212,615.5C 206,600.833 200,586.167 194,571.5C 193.291,565.058 195.791,560.392 201.5,557.5 Z"></path></g><g><path fill="#040101" d="M 240.5,561.5 C 268.835,561.333 297.169,561.5 325.5,562C 333.825,566.519 335.659,573.019 331,581.5C 329.786,583.049 328.286,584.215 326.5,585C 297.833,585.667 269.167,585.667 240.5,585C 234.333,581.155 232.166,575.655 234,568.5C 235.694,565.642 237.861,563.309 240.5,561.5 Z"></path></g></svg>