<?xml version="1.0" encoding="utf-8"?>
<!--Generator: Adobe Illustrator 27.7.0, SVG Export Plug-In . SVG Version: 6.00 Build 0)-->
<svg version="1.2" baseProfile="tiny-ps" id="Layer_1" xmlns="http://www.w3.org/2000/svg" xmlns:xlink="http://www.w3.org/1999/xlink" viewBox="0 0 180 180" xml:space="preserve"> <title>I&apos;m Konfio</title>
  <g id="design">
    
    <path fill="#FFFFFF" d="M-0.4,0h180v180h-180C-0.4,180-0.4,0-0.4,0z"/>
    <path d="M57.5,81.6c-7.4,0-13.1,5.8-13.1,13.1s5.8,13.1,13.1,13.1s13.3-5.8,13.3-13.1S64.9,81.6,57.5,81.6z M57.5,101.6
		c-3.8,0-6.7-2.9-6.7-6.8s2.9-6.8,6.7-6.8s6.8,2.9,6.8,6.8S61.5,101.6,57.5,101.6z M145.5,81.6c-7.4,0-13.1,5.8-13.1,13.1
		s5.8,13.1,13.1,13.1s13.3-5.8,13.3-13.1S152.8,81.6,145.5,81.6z M145.5,101.6c-3.8,0-6.7-2.9-6.7-6.8s2.9-6.8,6.7-6.8
		s6.8,2.9,6.8,6.8S149.2,101.6,145.5,101.6z M88.8,81.6c-3.4,0-5.9,1.3-7.4,3.4v-2.9H75v25h6.5V93.7c0-4.3,2.3-6.1,5.6-6.1
		c2.9,0,4.9,1.8,4.9,5.2v14.6h6.5V92.1C98.2,85.2,94,81.6,88.8,81.6z M105.4,82v0.2h-3.6v6.1h3.6V107h6.5V88.5h5.2v-6.1h-5.2v-0.2
		c0-3.4,2-4.5,5.2-4.3v-6.1C109.1,71,105.4,75.2,105.4,82z M121.5,82.2h6.5v25h-6.5V82.2z M15.8,71.6h6.8v35.6h-6.8V71.6z
		 M33.3,90.1c-0.5-0.4-0.9-0.5-0.9-0.9s0.4-0.5,0.9-0.9c2.7-1.6,4.9-4,6.3-6.5c1.4-2.7,2.3-5.9,2.7-10.1h-7.4c0,3.2-0.5,5.6-1.6,7.4
		s-2.9,3.8-5.6,5.9c-1.8,1.3-2.9,2.9-2.9,4.5s1.1,2.9,3.2,4c2.7,1.4,4.5,3.1,5.8,5s2,4.9,2,8.5h7.4c-0.5-4.7-1.6-8.3-3.2-10.8
		C38.1,93.7,35.9,91.7,33.3,90.1z M121.5,77.9h6.5l2.5-6.3h-6.8L121.5,77.9z"/>
    <circle fill="#7E28DC" cx="159.5" cy="78.6" r="3.8"/>
  </g>
</svg>
