<?xml version="1.0" encoding="UTF-8"?>
<svg id="Layer_1" xmlns="http://www.w3.org/2000/svg" baseProfile="tiny-ps" version="1.2" viewBox="0 0 1080 1080" xml:space="preserve" >
<title>Headmasters Operations Limited</title>
  <!-- Generator: Adobe Illustrator 29.1.0, SVG Export Plug-In . SVG Version: 2.1.0 Build 142)  -->
  <rect width="1080" height="1080"/>
  <g>
    <rect x="146.7" y="593.4" width="556.4" height="336.5" fill="#fff"/>
    <path d="M113.5,113.5v853h853V113.5H113.5ZM324.4,901.1h-19.7v-95.3c0-36.1-14.8-57.7-50.1-57.7s-43.6,11.9-60.5,35.7v117.2h-19.7v-253.8h19.7v115.7h.8c17.3-23.4,34.1-32.3,60.9-32.3,39.5,0,68.7,23.4,68.7,68v102.3h0ZM642.3,901.1h-19.7v-94.8c0-33.5-15.6-58.1-48.1-58.1s-37.4,11.2-55.9,39.1v113.8h-19.7v-95.3c0-41.3-22.6-57.7-48.5-57.7s-38.2,10-55.5,35.8v117.2h-19.7v-167.1h19.7v29.4h.8c16.5-23.4,33.7-32.7,58.8-32.7s47.7,13,59.6,40.1c18.5-27.9,37.4-40.1,64.2-40.1,38.7,0,64.2,26.8,64.2,67.7v102.7h0Z"/>
  </g>
</svg>