<?xml version="1.0" encoding="UTF-8" standalone="yes"?>
<svg version="1.2" baseProfile="tiny-ps" viewBox="0 0 500 500" xml:space="preserve" xmlns="http://www.w3.org/2000/svg">
  <title>Sahler Research LLC</title>
  <g>
    <g>
      <path fill="#FFFFFF" d="M500.2,500.2c-166.7,0-333.4,0-500.2,0C0,333.5,0,166.8,0,0c166.7,0,333.4,0,500.2,0&#xA;&#x9;&#x9;&#x9;C500.2,166.7,500.2,333.4,500.2,500.2z"/>
      <path fill="#F06622" d="M202.1,378.3c11.5-0.1,23,0.3,34.5,1.4c24.2,2.3,47.8,7.3,70.4,16.8c4.5,1.9,8.9,3.9,13.2,6.2&#xA;&#x9;&#x9;&#x9;c0.6,0.3,1.3,0.5,1.8,1.2c-1.7,1.1-3.6,1.8-5.4,2.5c-13.9,5.9-28.4,9.9-43.3,11.9c-13,1.7-26.1,2-39.2,0.7&#xA;&#x9;&#x9;&#x9;c-23.3-2.2-45.4-8.8-65.7-20.4c-44.5-25.3-72.5-63-83.9-113c-3.1-13.6-4.2-27.4-3.7-41.2c1.5-38.4,14.3-72.7,38.8-102.4&#xA;&#x9;&#x9;&#x9;c21.5-26,48.5-44.1,80.7-54.2c7.2-2.2,14.5-4,21.9-5.2c1.9-0.3,1.9-0.3,2.7,1.3c5.3,10.9,9.7,22.1,13.2,33.7&#xA;&#x9;&#x9;&#x9;c3.3,11,5.5,22.2,6.6,33.6c0.9,9.8,0.9,19.6-0.2,29.5c-3.4,32.4-16.9,60.4-37.3,85.3c-16.7,20.4-36.6,37.1-58.5,51.5&#xA;&#x9;&#x9;&#x9;c-11.6,7.7-23.7,14.5-36.3,20.5c-0.4,0.2-0.7,0.4-1.1,0.6c-0.3,0.4-0.7,0.6-1.1,0.8c0.3,0.1,0.5-0.2,0.7-0.2&#xA;&#x9;&#x9;&#x9;c0.6,0.1,1.3,0.2,1.9-0.1c5.1-0.9,10.2-1.8,15.3-2.6c8.6-1.4,17.2-2.5,25.9-3.3c14.7-1.5,29.4-1.8,44.1-1.3&#xA;&#x9;&#x9;&#x9;c23.3,0.9,46.2,4.6,68.4,12.1c0.8,0.3,1.5,0.5,2.2,0.8c0.1,0,0.2,0.2,0.6,0.5c-22.3,14.7-46.4,25.2-72.1,32.1&#xA;&#x9;&#x9;&#x9;c-0.2,0.2-0.5,0.3-0.5,0.4c-0.1,0.3,0.2,0.1,0.3,0.1C198.7,378.5,200.4,378.6,202.1,378.3z"/>
      <path fill="#F06622" d="M333.6,240.9c-3-14.7-6.9-29.2-12.1-43.4c-15.6-42.8-39.9-79.7-73.3-110.7c-2-1.8-4-3.6-6-5.5&#xA;&#x9;&#x9;&#x9;c-0.1,0-0.1-0.1-0.2-0.5c18.7-0.9,37,1,54.9,6.2c36.3,10.5,66,30.9,88.8,60.9C431,207.6,429,285.8,394,340.3c0-1,0-1.6,0-2.2&#xA;&#x9;&#x9;&#x9;c0.1-10.2-0.3-20.5-1.5-30.7c-4.1-36.3-15.6-69.9-35.3-100.7c-9.4-14.7-20.2-28.2-33-40.1c-1.1-1-2.2-1.9-3.5-3&#xA;&#x9;&#x9;&#x9;c-0.1,1.1,0.4,1.8,0.6,2.5c4.9,12.8,8.7,25.9,11.1,39.4c2.1,12,2.9,24.1,2,36.3C333.6,242.1,334,241.1,333.6,240.9z"/>
      <path fill="#F8B898" d="M202.1,378.3c-0.2,0.1-0.4,0.3-0.6,0.3c-2,0-4.1,0-6.3,0c0.7-0.6,1.3-0.9,2.1-0.8&#xA;&#x9;&#x9;&#x9;C198.8,378.7,200.5,377.9,202.1,378.3z"/>
      <path fill="#FBD7C5" d="M112.9,339.4c-0.5,0.5-1.2,0.4-1.9,0.5c-0.5,0.1-1.1,0.4-1.1-0.5c0.5-0.2,0.9-0.6,1.4-0.5&#xA;&#x9;&#x9;&#x9;C111.7,339.5,112.4,339.2,112.9,339.4z"/>
      <path fill="#F49160" d="M333.6,240.9c0.3,0.3,0.6,0.6,0.8,0.9c0,0.5,0,1,0,1.4c-0.1,0.2-0.3,0.3-0.4,0&#xA;&#x9;&#x9;&#x9;C333.9,242.5,333.4,241.8,333.6,240.9z"/>
      <path fill="#F9BFA3" d="M334.1,243.3c0.1,0,0.3,0,0.4,0c0,0.2,0.2,0.6-0.3,0.6C334.2,243.9,334.1,243.5,334.1,243.3z"/>
      <path fill="#FAC9B1" d="M109.9,339.4c0.2,0.4,0.7,0.4,1.1,0.5c-0.7,0.4-1.4,0.5-2.2,0.4C108.9,339.6,109.5,339.6,109.9,339.4z"/>
    </g>
  </g>
</svg>