<?xml version="1.0" encoding="utf-8"?>
<svg xmlns:xlink="http://www.w3.org/1999/xlink" viewBox="-25 -20 350 350" version="1.2" baseProfile="tiny-ps" xmlns="http://www.w3.org/2000/svg">
  <title>BIMI Logo</title>
	<g>
		<rect x="-25" y="-20" width="350" height="350" fill="#e30613"/>
		<path d="M184.68527,33.707c-1.79838.52063-21.45333,6.215-21.81137,6.312a5.77215,5.77215,0,0,0-2.88066,1.36245,6.67507,6.67507,0,0,0-1.30368,3.55848c-1.10689,8.41789.08062,45.58915,1.70818,63.25578.02869.31157.42089,6.74252,1.31187,8.76226a33.735,33.735,0,0,0,3.46556,5.00974,19.42524,19.42524,0,0,1,4.01625,11.222,19.13158,19.13158,0,1,1-38.2604.31567,19.38665,19.38665,0,0,1,4.0313-11.53771,33.62514,33.62514,0,0,0,3.46417-5.00974c1.126-2.55269,1.21759-6.06471,1.32418-8.76226.671-17.20339,1.64121-38.7674,2.07851-50.26272.05739-9.49472-1.31461-19.94191.24051-29.29588a13.9531,13.9531,0,0,1,19.78478-11.03483c7.64306,2.9695,14.39922,7.7018,21.538,11.64428l1.00987.56438c3.35622,1.9938,1.33921,3.4724.64228,3.77988ZM150.08719,277.76564s-8.10769,10.4472-12.11849,15.70838a1.24786,1.24786,0,0,1-.94565.466H106.66946a1.281,1.281,0,0,1-1.22853-1.25311v-2.77681a1.33,1.33,0,0,1,.69148-1.12056l31.76394-16.1182s.28661-.14936.45608-.252a4.05157,4.05157,0,0,0,.42606-.29695,5.29831,5.29831,0,0,0,2.2048-3.93481,12.63563,12.63563,0,0,0-.19541-1.47859s-8.87022-47.67724-12.57218-66.99737c-.246-1.47451.71334-2.3614,1.92272-2.15232a73.89078,73.89078,0,0,0,19.98567,3.03372,76.18542,76.18542,0,0,0,19.91186-3.03372c1.21076-.20908,2.17006.67781,1.92272,2.15232-3.702,19.32013-12.57217,66.99737-12.57217,66.99737a12.78979,12.78979,0,0,0-.19406,1.47859,5.34373,5.34373,0,0,0,2.20815,3.9386,4.38991,4.38991,0,0,0,.41877.28761c.11859.07287.44761.252.44761.252l31.775,16.12381a1.33,1.33,0,0,1,.69147,1.12056v2.77681a1.28076,1.28076,0,0,1-1.22717,1.25311H163.15268a1.25155,1.25155,0,0,1-.947-.466c-4.0108-5.26118-12.11848-15.70838-12.11848-15.70838M121.219,132.61306a29.27147,29.27147,0,0,1,6.14669-16.81665s1.26815-1.59612,1.71092-2.252c-4.71457-16.736-15.46514-30.03793-28.9816-40.97434-30.27024,13.39756-56.46409,39.33723-56.46409,75.142,0,44.72414,40.4947,74.44094,80.43595,82.50078-1.84757-9.81312-5.4935-28.93512-5.4935-28.93512a11.59569,11.59569,0,0,1,3.1936-10.27639,11.46,11.46,0,0,1,10.01948-3.11571,11.16077,11.16077,0,0,1,1.68085.4127,65.61593,65.61593,0,0,0,16.6431,2.47889,65.41244,65.41244,0,0,0,16.62124-2.47889,11.20165,11.20165,0,0,1,1.68083-.4127,11.45881,11.45881,0,0,1,10.01948,3.11571,11.59185,11.59185,0,0,1,3.19359,10.27639s-3.64593,19.122-5.49348,28.93512c39.94263-8.05984,80.43594-37.77664,80.43594-82.50078,0-35.80473-26.19385-61.7444-56.46409-75.142-13.51644,10.93641-24.267,24.23833-28.98158,40.97434.44275.65593,1.18478,1.57973,1.68358,2.23977a29.73633,29.73633,0,0,1,6.174,16.82893c.01912.23779.03415.52067.03415.85a28.91463,28.91463,0,0,1-57.82926,0Z" fill="#ffffff"/>
	</g>
</svg>