<?xml version="1.0" encoding="UTF-8"?>
<!-- Generator: Adobe Illustrator 27.8.1, SVG Export Plug-In . SVG Version: 6.00 Build 0) -->
<svg version="1.2" baseProfile="tiny-ps" id="Capa_1" xmlns="http://www.w3.org/2000/svg" xmlns:xlink="http://www.w3.org/1999/xlink" viewBox="0 0 425.2 425.2" xml:space="preserve">
    <title>Arsys</title>
    <rect fill="#FFFFFF" width="425.2" height="425.2" />
    <g>
        <path fill="#4A494A" d="M97.9,169.8c-5.7-3.6-14.6-5.4-26.4-5.4c-10.4,0-18.4,2.2-23.9,6.5c-3.2,2.4-5.5,5.3-6.9,8.6
		c-0.3,0.9-0.5,2.7,2.3,2.7l0,0h2.3l0,0h12.3c1.4-2.1,3.4-3.6,5.9-4.4c2.7-0.9,5.7-1.3,9-1.3c3.3,0,6.3,0.2,10.1,1.5
		c4.5,1.4,6.7,4.2,6.7,8.1c0,8.1-12.5,9.7-16.6,10.2l-9.2,1.2c-7.9,1.2-14.5,3.5-19.6,6.9c-4.7,3.2-7,8.5-7,16.3
		c0,8.4,2.6,14.1,7.9,17.6c5.5,3.7,12,5.5,19.4,5.5c3.8,0,8.3-0.3,13.4-0.7c4.9-0.5,9.5-1.8,13.9-3.9c4-1.9,7.5-4.9,10.5-9.1
		c2.9-4.1,4.4-10.1,4.4-17.6v-27.6C106.4,178.3,103.6,173.4,97.9,169.8z M89.7,211.5c0,6.3-2,11.4-6,15.1c-4,3.6-9.4,5.5-16.1,5.5
		c-4.3,0-7.7-1-10.1-3l-0.1-0.1c-2.5-2.3-3.7-5.3-3.7-9c0-2.7,0.4-6,3.1-8.4c2.3-2,5.1-3.3,9.5-4.5l0.1,0l7.6-1.5
		c5.3-1.2,9.4-2.4,12.3-3.8l3.4-1.5V211.5z" />
        <path fill="#4A494A" d="M144.4,185c4.3-3.8,10.8-5.7,19.2-5.7h4.5v-15.1c-6.3,0-12.6,0.8-18.5,2.2c-5.9,1.4-11.2,3.6-15.5,6.6
		c-4.5,3.1-8,7.3-10.6,12.4c-2.6,5.2-4,11.9-4,19.8v38.4h18.1v-41C137.7,194.8,139.9,188.9,144.4,185z" />
        <path fill="#4A494A" d="M277.4,258.3c3.2-2.4,5.9-6.5,8.1-12.2l29.3-82.2h-11.3c-4.2,0-6.5,1.6-7.5,5.2l-16,52.9l-17.6-58h-18.3
		l26.6,71.6c2.1,6.1,0.1,9.3-2,11c-2.7,2.1-5.2,2-10.7,2h-1.3l0,12.8l4.3,0C268.7,261.3,274.2,261,277.4,258.3z" />
        <path fill="#4A494A" d="M328.1,236.7c5.2,4.3,13.4,6.4,24.2,6.4c11.5,0,20.2-2.1,25.8-6.2c5.9-4.4,8.7-10.5,8.7-18.7
		c0-5.4-1.6-9.6-5-12.8c-3.8-3.2-10.6-6-20.5-8.5l-5.6-1.2c-12.1-2.6-17.6-5.8-17.6-10.4c0-3.2,1.3-5.7,3.8-7.4
		c2.5-1.5,5.8-2.2,10.4-2.2c4.7,0,8.5,1.1,11.4,3.2l0.3,0.2c0.3,0.3,0.5,0.5,0.8,0.8c0.6,0.6,1.2,1.1,1.8,1.8c2.8,3.4,4.3,4.3,7,4.3
		H384c-0.8-6.3-3.5-11.4-8.3-15.5c-5.8-4.3-13.7-6.4-23.6-6.4c-9.1,0-16.5,2.2-22.1,6.4c-5.3,4.6-7.9,10.2-7.9,17.2
		c0,5.4,1.7,9.6,5.3,12.8l0.1,0.1c3.3,3.3,10.2,6.3,20.4,8.8l0.2,0.1c1.7,0.6,4.3,1.1,7.8,1.7c3.7,0.8,14.6,3.1,14.6,10.4
		c0,2.3-0.8,5.4-4.8,7.7c-3,1.6-6.5,2.4-10.5,2.4c-5.5,0-10-1.2-13.4-3.4c-2.9-2.1-4.7-5-5.3-8.7h-16.1
		C320.6,227.1,323.2,232.7,328.1,236.7z" />
        <path fill="#4A494A" d="M182.2,237c5.2,4.3,13.4,6.5,24.3,6.5c11.6,0,20.3-2.1,25.9-6.2c5.9-4.4,8.7-10.5,8.7-18.7
		c0-5.4-1.6-9.6-5-12.8c-3.8-3.2-10.7-6.1-20.5-8.6L210,196c-12.2-2.6-17.6-5.8-17.6-10.5c0-3.2,1.3-5.8,3.8-7.4
		c2.5-1.5,5.9-2.2,10.4-2.2c4.7,0,8.6,1.1,11.4,3.2l0.3,0.2c0.3,0.3,0.5,0.5,0.8,0.8c0.6,0.6,1.2,1.1,1.8,1.8c2.8,3.4,4.3,4.3,7,4.3
		h10.5c-0.8-6.3-3.6-11.4-8.3-15.5c-5.8-4.3-13.8-6.5-23.7-6.5c-9.1,0-16.6,2.2-22.2,6.5c-5.3,4.6-7.9,10.3-7.9,17.3
		c0,5.4,1.7,9.6,5.3,12.8l0.1,0.1c3.3,3.3,10.2,6.3,20.4,8.8l0.2,0.1c1.7,0.6,4.3,1.1,7.8,1.7c3.7,0.8,14.7,3.1,14.7,10.5
		c0,2.3-0.8,5.5-4.8,7.8c-3,1.6-6.6,2.4-10.6,2.4c-5.5,0-10-1.2-13.4-3.4c-2.9-2.1-4.7-5-5.3-8.7h-16.2
		C174.6,227.5,177.2,233.1,182.2,237z" />
    </g>
    <g>
        <linearGradient id="SVGID_1_" gradientUnits="userSpaceOnUse" x1="78.6335" y1="243.0962" x2="66.1915" y2="164.5405">
            <stop offset="0" stop-color="#161617" />
            <stop offset="1" stop-color="#ABABAB" />
        </linearGradient>
        <path fill="url(#SVGID_1_)" d="M98.6,169.8c-5.7-3.6-14.6-5.4-26.4-5.4c-10.4,0-18.4,2.2-23.9,6.5c-3.2,2.4-5.5,5.3-6.9,8.6
		c-0.3,0.9-0.5,2.7,2.3,2.7l0,0H46l0,0h12.3c1.4-2.1,3.4-3.6,5.9-4.4c2.7-0.9,5.7-1.3,9-1.3c3.3,0,6.3,0.2,10.1,1.5
		c4.5,1.4,6.7,4.2,6.7,8.1c0,8.1-12.5,9.7-16.6,10.2l-9.2,1.2c-7.9,1.2-14.5,3.5-19.6,6.9c-4.7,3.2-7,8.5-7,16.3
		c0,8.4,2.6,14.1,7.9,17.6c5.5,3.7,12,5.5,19.4,5.5c3.8,0,8.3-0.3,13.4-0.7c4.9-0.5,9.5-1.8,13.9-3.9c4-1.9,7.5-4.9,10.5-9.1
		c2.9-4.1,4.4-10.1,4.4-17.6v-27.6C107,178.3,104.3,173.4,98.6,169.8z M90.3,211.5c0,6.3-2,11.4-6,15.1c-4,3.6-9.4,5.5-16.1,5.5
		c-4.3,0-7.7-1-10.1-3L58,229c-2.5-2.3-3.7-5.3-3.7-9c0-2.7,0.4-6,3.1-8.4c2.3-2,5.1-3.3,9.5-4.5l0.1,0l7.6-1.5
		c5.3-1.2,9.4-2.4,12.3-3.8l3.4-1.5V211.5z" />
        <linearGradient id="SVGID_00000159450422521453395470000016864777348404957614_" gradientUnits="userSpaceOnUse" x1="150.488" y1="241.722" x2="138.813" y2="168.0092">
            <stop offset="0" stop-color="#161617" />
            <stop offset="1" stop-color="#989797" />
        </linearGradient>
        <path fill="url(#SVGID_00000159450422521453395470000016864777348404957614_)" d="M145.1,185c4.3-3.8,10.8-5.7,19.2-5.7h4.5v-15.1
		c-6.3,0-12.6,0.8-18.5,2.2c-5.9,1.4-11.2,3.6-15.5,6.6c-4.5,3.1-8,7.3-10.6,12.4c-2.6,5.2-4,11.9-4,19.8v38.4h18.1v-41
		C138.3,194.8,140.6,188.9,145.1,185z" />
        <linearGradient id="SVGID_00000008127482056614545550000011847904328726775682_" gradientUnits="userSpaceOnUse" x1="293.5782" y1="257.3497" x2="277.9427" y2="158.6316">
            <stop offset="0" stop-color="#161617" />
            <stop offset="1" stop-color="#7B7A7B" />
        </linearGradient>
        <path fill="url(#SVGID_00000008127482056614545550000011847904328726775682_)" d="M278.1,258.3c3.2-2.4,5.9-6.5,8.1-12.2l29.3-82.2
		h-11.3c-4.2,0-6.5,1.6-7.5,5.2l-16,52.9l-17.6-58h-18.3l26.6,71.6c2.1,6.1,0.1,9.3-2,11c-2.7,2.1-5.2,2-10.7,2h-1.3l0,12.8l4.3,0
		C269.4,261.3,274.8,261,278.1,258.3z" />
        <linearGradient id="SVGID_00000080894861962806898540000009929521571919799974_" gradientUnits="userSpaceOnUse" x1="359.0768" y1="243.1321" x2="346.6078" y2="164.4062">
            <stop offset="0" stop-color="#161617" />
            <stop offset="1" stop-color="#646363" />
        </linearGradient>
        <path fill="url(#SVGID_00000080894861962806898540000009929521571919799974_)" d="M328.8,236.7c5.2,4.3,13.4,6.4,24.2,6.4
		c11.5,0,20.2-2.1,25.8-6.2c5.9-4.4,8.7-10.5,8.7-18.7c0-5.4-1.6-9.6-5-12.8c-3.8-3.2-10.6-6-20.5-8.5l-5.6-1.2
		c-12.1-2.6-17.6-5.8-17.6-10.4c0-3.2,1.3-5.7,3.8-7.4c2.5-1.5,5.8-2.2,10.4-2.2c4.7,0,8.5,1.1,11.4,3.2l0.3,0.2
		c0.3,0.3,0.5,0.5,0.8,0.8c0.6,0.6,1.2,1.1,1.8,1.8c2.8,3.4,4.3,4.3,7,4.3h10.4c-0.8-6.3-3.5-11.4-8.3-15.5
		c-5.8-4.3-13.7-6.4-23.6-6.4c-9.1,0-16.5,2.2-22.1,6.4c-5.3,4.6-7.9,10.2-7.9,17.2c0,5.4,1.7,9.6,5.3,12.8l0.1,0.1
		c3.3,3.3,10.2,6.3,20.4,8.8l0.2,0.1c1.7,0.6,4.3,1.1,7.8,1.7c3.7,0.8,14.6,3.1,14.6,10.4c0,2.3-0.8,5.4-4.8,7.7
		c-3,1.6-6.5,2.4-10.5,2.4c-5.5,0-10-1.2-13.4-3.4c-2.9-2.1-4.7-5-5.3-8.7H321C321.2,227.1,323.8,232.7,328.8,236.7z" />
        <linearGradient id="SVGID_00000054256351625549215790000008086105740083328141_" gradientUnits="userSpaceOnUse" x1="213.2099" y1="243.5211" x2="200.697" y2="164.5179">
            <stop offset="0" stop-color="#161617" />
            <stop offset="1" stop-color="#8F8E8E" />
        </linearGradient>
        <path fill="url(#SVGID_00000054256351625549215790000008086105740083328141_)" d="M182.8,237c5.2,4.3,13.4,6.5,24.3,6.5
		c11.6,0,20.3-2.1,25.9-6.2c5.9-4.4,8.7-10.5,8.7-18.7c0-5.4-1.6-9.6-5-12.8c-3.8-3.2-10.7-6.1-20.5-8.6l-5.7-1.2
		c-12.2-2.6-17.6-5.8-17.6-10.5c0-3.2,1.3-5.8,3.8-7.4c2.5-1.5,5.9-2.2,10.4-2.2c4.7,0,8.6,1.1,11.4,3.2l0.3,0.2
		c0.3,0.3,0.5,0.5,0.8,0.8c0.6,0.6,1.2,1.1,1.8,1.8c2.8,3.4,4.3,4.3,7,4.3h10.5c-0.8-6.3-3.6-11.4-8.3-15.5
		c-5.8-4.3-13.8-6.5-23.7-6.5c-9.1,0-16.6,2.2-22.2,6.5c-5.3,4.6-7.9,10.3-7.9,17.3c0,5.4,1.7,9.6,5.3,12.8l0.1,0.1
		c3.3,3.3,10.2,6.3,20.4,8.8l0.2,0.1c1.7,0.6,4.3,1.1,7.8,1.7c3.7,0.8,14.7,3.1,14.7,10.5c0,2.3-0.8,5.5-4.8,7.8
		c-3,1.6-6.6,2.4-10.6,2.4c-5.5,0-10-1.2-13.4-3.4c-2.9-2.1-4.7-5-5.3-8.7H175C175.2,227.5,177.8,233.1,182.8,237z" />
    </g>
</svg>
