<?xml version="1.0" encoding="utf-8"?>
<!-- Generator: Adobe Illustrator 26.0.2, SVG Export Plug-In . SVG Version: 6.00 Build 0)  -->
<svg version="1.2" baseProfile="tiny-ps" id="Layer_1" xmlns="http://www.w3.org/2000/svg" xmlns:xlink="http://www.w3.org/1999/xlink"
	 viewBox="0 0 1080 1079.3" xml:space="preserve">
<title>Pleo Technologies A/S</title>
<rect x="-3" y="0" fill="#FFFFFF" width="1079.3" height="1079.3"/>
<g>
	<path d="M317.4,528c0,16.4-13.3,29.7-29.7,29.7h-48.3v-59.4h48.3C304,498.2,317.4,511.5,317.4,528 M359.6,528.2L359.6,528.2
		c0-38.9-31.5-70.5-70.4-70.5h-90.6v200h40.7v-59.1h49.9C328.1,598.5,359.6,567,359.6,528.2 M512.4,657.7h147.1v-40.6H553v-22.2
		c18.5-5.4,37.4-14,56.4-25.9l17.2-10.7L605,523.8l-17.3,10.8c-12.4,7.8-24.1,13.5-34.9,17.6v-53.9h106.5v-40.6H512.4v103.2
		c-19.8,0.7-35.3-4.5-46.9-10.9c-23.1-13-50.7-43-50.7-112.5v-20.3h-40.7v20.3c0,70.6,24.8,121.8,71.6,148
		c19.2,10.8,40.4,16.1,62.7,16.1c1.3,0,2.7,0,4-0.1V657.7z M834.4,558.1c0,9.1-1.3,17.6-3.9,25.4c-2.6,7.8-6.4,14.5-11.2,20.1
		c-4.9,5.6-10.8,10-17.7,13.2s-14.6,4.8-23.2,4.8c-8.6,0-16.4-1.6-23.3-4.8c-7-3.2-12.9-7.6-17.8-13.2c-4.9-5.6-8.6-12.3-11.2-20.1
		c-2.6-7.8-3.9-16.2-3.9-25.4c0-9.1,1.3-17.6,3.9-25.4c2.6-7.8,6.4-14.5,11.2-20.2c4.9-5.7,10.8-10.1,17.8-13.3
		c7-3.2,14.7-4.8,23.3-4.8s16.3,1.6,23.2,4.8c6.9,3.2,12.8,7.6,17.7,13.3s8.6,12.4,11.2,20.2C833.1,540.5,834.4,548.9,834.4,558.1
		 M874.6,558.1c0-14.9-2.2-28.8-6.7-41.5c-4.5-12.8-10.9-23.8-19.3-33.1c-8.4-9.3-18.5-16.6-30.3-21.8c-11.8-5.2-25.1-7.8-39.9-7.8
		c-14.7,0-28.1,2.6-40,7.8c-11.9,5.2-22.1,12.5-30.5,21.8s-14.8,20.4-19.3,33.1c-4.5,12.8-6.7,26.6-6.7,41.5s2.2,28.8,6.7,41.5
		c4.5,12.8,10.9,23.8,19.3,33c8.4,9.2,18.6,16.5,30.5,21.7s25.3,7.8,40,7.8s28-2.6,39.9-7.8c11.8-5.2,22-12.4,30.3-21.7
		c8.4-9.2,14.8-20.2,19.3-33C872.4,586.9,874.6,573,874.6,558.1"/>
</g>
</svg>
