<svg version="1.2" xmlns:inkscape="http://www.inkscape.org/namespaces/inkscape"
  xmlns:svg="http://www.w3.org/2000/svg" xmlns:dc="http://purl.org/dc/elements/1.1/"
  xmlns:rdf="http://www.w3.org/1999/02/22-rdf-syntax-ns#"
  xmlns:sodipodi="http://sodipodi.sourceforge.net/DTD/sodipodi-0.dtd" xmlns:cc="http://creativecommons.org/ns#"
  xmlns="http://www.w3.org/2000/svg" xmlns:xlink="http://www.w3.org/1999/xlink" viewBox="0 0 216 216"
  xml:space="preserve" baseProfile="tiny-ps">
  <title>Emailable</title>
  <path fill="#FFCB60" d="M108,175.2v19.2c-22.9,0.1-44.9-9-61.1-25.3c-5.3-5.3-10-11.3-13.8-17.9l16.7-9.6
  C61.8,162.4,84,175.2,108,175.2z" />
  <path fill="#7E61F0" d="M182.8,64.8l-16.7,9.6c-12-20.8-34.2-33.6-58.2-33.6V21.6c22.9-0.1,44.9,9,61.1,25.3
  C174.4,52.3,179,58.3,182.8,64.8z" />
  <path fill="#FF5F7D" d="M108,21.6v19.2c-24,0-46.2,12.8-58.2,33.6l-16.7-9.6c3.8-6.5,8.4-12.5,13.8-17.9C63.1,30.7,85.1,21.6,108,21.6
  z" />
  <path fill="#5A3DB3" d="M194.4,108c0,11.9-2.4,23.7-7.2,34.6v0l-16.8-9.7c7.6-19.1,6.1-40.7-4.2-58.5l16.7-9.6
  C190.4,77.9,194.4,92.8,194.4,108z" />
  <path fill="#5FD7AA" d="M187.2,142.6c-2.6,5.9-5.8,11.4-9.6,16.6l-30-17.3c-6.7-3.9-10.8-11-10.8-18.7v-14.8
  c0.2-15.9-12.5-29-28.4-29.2C98,79.1,88.3,84.6,83.1,93.6L66.5,84c13.3-22.9,42.6-30.8,65.5-17.5c14.8,8.6,24,24.4,24,41.5v11.6
  c0,3.1,1.6,5.9,4.3,7.5l10.1,5.8L187.2,142.6z" />
  <path fill="#3FB3A3" d="M134.3,148.1c-22.2,14.5-51.9,8.3-66.4-13.8c-9.9-15.2-10.5-34.6-1.4-50.3l16.6,9.6c-3,5.1-4.3,10.9-3.8,16.8
  c1.3,15.1,14,26.6,29.2,26.4c1.9,0,3.8-0.2,5.6-0.6c2.9-0.7,5.7-1.8,8.3-3.3L134.3,148.1z" />
  <polygon fill="#5FD7AA" points="187.2,142.6 187.2,142.6 170.4,132.9 	" />
  <path fill="#FF9C5B" d="M40.8,108c0,11.8,3.1,23.4,9,33.6l-16.7,9.6c-15.4-26.7-15.4-59.7,0-86.4l16.7,9.6
  C43.9,84.6,40.8,96.2,40.8,108z" />
</svg>
