<?xml version="1.0" encoding="UTF-8" standalone="yes"?>
<svg version="1.2" viewBox="0 0 80 80" baseProfile="tiny-ps" xmlns="http://www.w3.org/2000/svg">
  <title>bimi-svg-tiny-12-ps</title>
  <rect width="80" height="80"/>
  <rect x="31.9" y="34.436" width="1.2" height="11.5" fill="#FFFFFF"/>
  <rect x="5" y="34.336" width="70" height="11.7" fill="none"/>
  <g>
    <defs>
      <rect id="SVGID_1_" x="5" y="34.2" width="70" height="11.7"/>
    </defs>
    <polygon points="29.1,34.3    29.1,45.7 31.1,45.7 31.1,44.5 30.3,44.5 30.3,34.3  " fill="#FFFFFF"/>
    <polygon points="36.1,34.3    36.1,37.6 36.3,41.2 35.2,34.3 34,34.3 34,45.7 35.1,45.7 35.1,42.3 34.9,38.5 36,45.7 37.2,45.7 37.2,34.3  " fill="#FFFFFF"/>
    <rect x="31.9" y="34.3" width="1.2" height="11.5" fill="#FFFFFF"/>
    <g>
      <defs>
        <rect id="SVGID_00000170266491682359307280000013185003498076562823_" x="5" y="34.2" width="70" height="11.7"/>
      </defs>
      <path d="M41.1,40.6v4    c0,0.9-0.4,1.3-1.3,1.3h-0.5c-0.9,0-1.3-0.4-1.3-1.3v-9.1c0-0.9,0.4-1.3,1.3-1.3h0.5c0.9,0,1.3,0.4,1.3,1.3v3.8h-1.2v-3.6    c0-0.2,0-0.2-0.3-0.2c-0.2,0-0.3,0-0.3,0.2v8.8c0,0.2,0,0.2,0.2,0.2h0.2c0.2,0,0.2,0,0.2-0.2v-3.8h1.2L41.1,40.6z" fill="#FFFFFF"/>
      <path d="M43.9,45.8h-0.6    c-0.9,0-1.3-0.5-1.3-1.3v-9.1c0-0.9,0.4-1.3,1.3-1.3h0.6c0.9,0,1.3,0.4,1.3,1.3v9.1C45.2,45.4,44.8,45.8,43.9,45.8 M43.7,35.4    h-0.1c-0.2,0-0.2,0-0.2,0.2v8.8c0,0.2,0,0.2,0.2,0.2h0.1c0.2,0,0.2,0,0.2-0.2v-8.8C43.9,35.4,43.9,35.4,43.7,35.4" fill="#FFFFFF"/>
      <path d="M57.3,40.6v4    c0,0.9-0.4,1.3-1.3,1.3h-0.5c-0.9,0-1.3-0.4-1.3-1.3v-9.1c0-0.9,0.4-1.3,1.3-1.3H56c0.9,0,1.3,0.4,1.3,1.3v3.8h-1.2v-3.6    c0-0.2,0-0.2-0.3-0.2c-0.2,0-0.3,0-0.3,0.2v8.8c0,0.2,0,0.2,0.2,0.2h0.2c0.2,0,0.2,0,0.2-0.2v-3.8h1.2L57.3,40.6z" fill="#FFFFFF"/>
      <path d="M75,41.2v4.5h-1.2    v-4.5c0-0.2,0-0.2-0.2-0.2h-0.3v4.8h-1.2V34.3H74c0.9,0,1.1,0.4,1.1,1.3v3.7c0,0.6-0.2,0.9-0.6,1c0.4,0.1,0.6,0.4,0.6,0.9     M73.6,35.4h-0.4v4.4h0.4c0.2,0,0.2,0,0.2-0.2v-3.9c0-0.2,0-0.2-0.2-0.2" fill="#FFFFFF"/>
      <path d="M7,44.5    c0,0.9-0.4,1.3-1.3,1.3H5v-1.2h0.5c0.2,0,0.2,0,0.2-0.2v-10h1.2v10.2L7,44.5z" fill="#FFFFFF"/>
      <path d="M9.9,45.7V44H8.7v1.7    H7.6l0.9-11.5h1.7l0.9,11.5H10H9.9z M8.8,42.9h0.9L9.2,37l-0.5,5.9H8.8z" fill="#FFFFFF"/>
      <path d="M19.7,45.7h7.6V34.2    h-7.6V45.7z M22.9,43.4v-1h-0.7v1h-0.8l0.5-7H23l0.6,7h-0.8H22.9z M25.7,37.1h-0.5v6.3h-0.8v-6.3h-0.5v-0.7h1.9v0.7H25.7z" fill="#FFFFFF"/>
      <polygon points="47.3,34.3     47.3,44.5 48.1,44.5 48.1,45.7 46.1,45.7 46.1,34.3   " fill="#FFFFFF"/>
      <polygon points="50.9,45.7     49.9,38.5 50,42.3 50,45.7 48.9,45.7 48.9,34.3 50.2,34.3 51.2,41.2 51,37.6 51,34.3 52.1,34.3 52.1,45.7   " fill="#FFFFFF"/>
      <polygon points="63.2,45.7     62.2,38.5 62.3,42.3 62.3,45.7 61.2,45.7 61.2,34.3 62.5,34.3 63.5,41.2 63.4,37.6 63.3,34.3 64.4,34.3 64.4,45.7   " fill="#FFFFFF"/>
      <polygon points="60.4,34.3     60.4,35.5 59.3,35.5 59.3,39.3 60.4,39.3 60.4,40.6 59.3,40.6 59.3,44.5 60.5,44.5 60.5,45.7 58.2,45.7 58.2,34.3   " fill="#FFFFFF"/>
      <polygon points="71.2,34.3     71.2,35.5 70,35.5 70,39.3 71.1,39.3 71.1,40.6 70,40.6 70,44.5 71.2,44.5 71.2,45.7 68.9,45.7 68.9,34.3   " fill="#FFFFFF"/>
      <polygon points="66,45.7     66,35.5 65.1,35.5 65.1,34.3 68.2,34.3 68.2,35.5 67.3,35.5 67.3,45.7   " fill="#FFFFFF"/>
      <polygon points="11.9,35.5     11.9,34.3 14.5,34.3 14.5,35.7 13,44.5 14.4,44.5 14.4,45.7 11.8,45.7 11.8,44.2 13.2,35.5   " fill="#FFFFFF"/>
      <polygon points="15.3,35.5     15.3,34.3 17.9,34.3 17.9,35.7 16.4,44.5 17.8,44.5 17.8,45.7 15.2,45.7 15.2,44.2 16.6,35.5   " fill="#FFFFFF"/>
      <polygon points="22.3,41.8     22.8,41.8 22.5,38   " fill="#FFFFFF"/>
    </g>
  </g>
  <g>
    <defs>
      <rect id="SVGID_00000048485446774414208070000006877373747819053490_" x="5" y="34.2" width="70" height="11.7"/>
    </defs>
    <polygon points="29.1,34.3    29.1,45.7 31.1,45.7 31.1,44.5 30.3,44.5 30.3,34.3  " fill="#FFFFFF"/>
    <polygon points="36.1,34.3    36.1,37.6 36.3,41.2 35.2,34.3 34,34.3 34,45.7 35.1,45.7 35.1,42.3 34.9,38.5 36,45.7 37.2,45.7 37.2,34.3  " fill="#FFFFFF"/>
    <rect x="31.9" y="34.3" width="1.2" height="11.5" fill="#FFFFFF"/>
    <g>
      <defs>
        <rect id="SVGID_00000040539097717538151760000003050336800033703853_" x="5" y="34.2" width="70" height="11.7"/>
      </defs>
      <path d="M41.1,40.6v4    c0,0.9-0.4,1.3-1.3,1.3h-0.5c-0.9,0-1.3-0.4-1.3-1.3v-9.1c0-0.9,0.4-1.3,1.3-1.3h0.5c0.9,0,1.3,0.4,1.3,1.3v3.8h-1.2v-3.6    c0-0.2,0-0.2-0.3-0.2c-0.2,0-0.3,0-0.3,0.2v8.8c0,0.2,0,0.2,0.2,0.2h0.2c0.2,0,0.2,0,0.2-0.2v-3.8h1.2L41.1,40.6z" fill="#FFFFFF"/>
      <path d="M43.9,45.8h-0.6    c-0.9,0-1.3-0.5-1.3-1.3v-9.1c0-0.9,0.4-1.3,1.3-1.3h0.6c0.9,0,1.3,0.4,1.3,1.3v9.1C45.2,45.4,44.8,45.8,43.9,45.8 M43.7,35.4    h-0.1c-0.2,0-0.2,0-0.2,0.2v8.8c0,0.2,0,0.2,0.2,0.2h0.1c0.2,0,0.2,0,0.2-0.2v-8.8C43.9,35.4,43.9,35.4,43.7,35.4" fill="#FFFFFF"/>
      <path d="M57.3,40.6v4    c0,0.9-0.4,1.3-1.3,1.3h-0.5c-0.9,0-1.3-0.4-1.3-1.3v-9.1c0-0.9,0.4-1.3,1.3-1.3H56c0.9,0,1.3,0.4,1.3,1.3v3.8h-1.2v-3.6    c0-0.2,0-0.2-0.3-0.2c-0.2,0-0.3,0-0.3,0.2v8.8c0,0.2,0,0.2,0.2,0.2h0.2c0.2,0,0.2,0,0.2-0.2v-3.8h1.2L57.3,40.6z" fill="#FFFFFF"/>
      <path d="M75,41.2v4.5h-1.2    v-4.5c0-0.2,0-0.2-0.2-0.2h-0.3v4.8h-1.2V34.3H74c0.9,0,1.1,0.4,1.1,1.3v3.7c0,0.6-0.2,0.9-0.6,1c0.4,0.1,0.6,0.4,0.6,0.9     M73.6,35.4h-0.4v4.4h0.4c0.2,0,0.2,0,0.2-0.2v-3.9c0-0.2,0-0.2-0.2-0.2" fill="#FFFFFF"/>
      <path d="M7,44.5    c0,0.9-0.4,1.3-1.3,1.3H5v-1.2h0.5c0.2,0,0.2,0,0.2-0.2v-10h1.2v10.2L7,44.5z" fill="#FFFFFF"/>
      <path d="M9.9,45.7V44H8.7v1.7    H7.6l0.9-11.5h1.7l0.9,11.5H10H9.9z M8.8,42.9h0.9L9.2,37l-0.5,5.9H8.8z" fill="#FFFFFF"/>
      <path d="M19.7,45.7h7.6V34.2    h-7.6V45.7z M22.9,43.4v-1h-0.7v1h-0.8l0.5-7H23l0.6,7h-0.8H22.9z M25.7,37.1h-0.5v6.3h-0.8v-6.3h-0.5v-0.7h1.9v0.7H25.7z" fill="#FFFFFF"/>
      <polygon points="47.3,34.3     47.3,44.5 48.1,44.5 48.1,45.7 46.1,45.7 46.1,34.3   " fill="#FFFFFF"/>
      <polygon points="50.9,45.7     49.9,38.5 50,42.3 50,45.7 48.9,45.7 48.9,34.3 50.2,34.3 51.2,41.2 51,37.6 51,34.3 52.1,34.3 52.1,45.7   " fill="#FFFFFF"/>
      <polygon points="63.2,45.7     62.2,38.5 62.3,42.3 62.3,45.7 61.2,45.7 61.2,34.3 62.5,34.3 63.5,41.2 63.4,37.6 63.3,34.3 64.4,34.3 64.4,45.7   " fill="#FFFFFF"/>
      <polygon points="60.4,34.3     60.4,35.5 59.3,35.5 59.3,39.3 60.4,39.3 60.4,40.6 59.3,40.6 59.3,44.5 60.5,44.5 60.5,45.7 58.2,45.7 58.2,34.3   " fill="#FFFFFF"/>
      <polygon points="71.2,34.3     71.2,35.5 70,35.5 70,39.3 71.1,39.3 71.1,40.6 70,40.6 70,44.5 71.2,44.5 71.2,45.7 68.9,45.7 68.9,34.3   " fill="#FFFFFF"/>
      <polygon points="66,45.7     66,35.5 65.1,35.5 65.1,34.3 68.2,34.3 68.2,35.5 67.3,35.5 67.3,45.7   " fill="#FFFFFF"/>
      <polygon points="11.9,35.5     11.9,34.3 14.5,34.3 14.5,35.7 13,44.5 14.4,44.5 14.4,45.7 11.8,45.7 11.8,44.2 13.2,35.5   " fill="#FFFFFF"/>
      <polygon points="15.3,35.5     15.3,34.3 17.9,34.3 17.9,35.7 16.4,44.5 17.8,44.5 17.8,45.7 15.2,45.7 15.2,44.2 16.6,35.5   " fill="#FFFFFF"/>
      <polygon points="22.3,41.8     22.8,41.8 22.5,38   " fill="#FFFFFF"/>
    </g>
  </g>
  <g>
    <defs>
      <rect id="SVGID_00000078730516256259211190000009732887996578791050_" x="5" y="34.336" width="70" height="11.7"/>
    </defs>
    <path d="M41.1,40.736v4   c0,0.9-0.4,1.3-1.3,1.3h-0.5c-0.9,0-1.3-0.4-1.3-1.3v-9.1c0-0.9,0.4-1.3,1.3-1.3h0.5c0.9,0,1.3,0.4,1.3,1.3v3.8h-1.2v-3.6   c0-0.2,0-0.2-0.3-0.2c-0.2,0-0.3,0-0.3,0.2v8.8c0,0.2,0,0.2,0.2,0.2h0.2c0.2,0,0.2,0,0.2-0.2v-3.8h1.2L41.1,40.736z" fill="#FFFFFF"/>
    <path d="M43.9,45.936h-0.6   c-0.9,0-1.3-0.5-1.3-1.3v-9.1c0-0.9,0.4-1.3,1.3-1.3h0.6c0.9,0,1.3,0.4,1.3,1.3v9.1C45.2,45.536,44.8,45.936,43.9,45.936    M43.7,35.536h-0.1c-0.2,0-0.2,0-0.2,0.2v8.8c0,0.2,0,0.2,0.2,0.2h0.1c0.2,0,0.2,0,0.2-0.2v-8.8   C43.9,35.536,43.9,35.536,43.7,35.536" fill="#FFFFFF"/>
    <path d="M57.3,40.736v4   c0,0.9-0.4,1.3-1.3,1.3h-0.5c-0.9,0-1.3-0.4-1.3-1.3v-9.1c0-0.9,0.4-1.3,1.3-1.3H56c0.9,0,1.3,0.4,1.3,1.3v3.8h-1.2v-3.6   c0-0.2,0-0.2-0.3-0.2c-0.2,0-0.3,0-0.3,0.2v8.8c0,0.2,0,0.2,0.2,0.2h0.2c0.2,0,0.2,0,0.2-0.2v-3.8h1.2L57.3,40.736z" fill="#FFFFFF"/>
    <path d="M75,41.336v4.5h-1.2   v-4.5c0-0.2,0-0.2-0.2-0.2h-0.3v4.8h-1.2v-11.5H74c0.9,0,1.1,0.4,1.1,1.3v3.7c0,0.6-0.2,0.9-0.6,1c0.4,0.1,0.6,0.4,0.6,0.9    M73.6,35.536h-0.4v4.4h0.4c0.2,0,0.2,0,0.2-0.2v-3.9c0-0.2,0-0.2-0.2-0.2" fill="#FFFFFF"/>
    <path d="M7,44.636   c0,0.9-0.4,1.3-1.3,1.3H5v-1.2h0.5c0.2,0,0.2,0,0.2-0.2v-10h1.2v10.2L7,44.636z" fill="#FFFFFF"/>
    <path d="M9.9,45.836v-1.7H8.7   v1.7H7.6l0.9-11.5h1.7l0.9,11.5H10H9.9z M8.8,43.036h0.9l-0.5-5.9l-0.5,5.9H8.8z" fill="#FFFFFF"/>
    <path d="M19.7,45.836h7.6v-11.5   h-7.6V45.836z M22.9,43.536v-1h-0.7v1h-0.8l0.5-7H23l0.6,7h-0.8H22.9z M25.7,37.236h-0.5v6.3h-0.8v-6.3h-0.5v-0.7h1.9v0.7H25.7z" fill="#FFFFFF"/>
    <polygon points="47.3,34.436    47.3,44.636 48.1,44.636 48.1,45.836 46.1,45.836 46.1,34.436  " fill="#FFFFFF"/>
    <polygon points="50.9,45.836    49.9,38.636 50,42.436 50,45.836 48.9,45.836 48.9,34.436 50.2,34.436 51.2,41.336 51,37.736 51,34.436 52.1,34.436 52.1,45.836     " fill="#FFFFFF"/>
    <polygon points="63.2,45.836    62.2,38.636 62.3,42.436 62.3,45.836 61.2,45.836 61.2,34.436 62.5,34.436 63.5,41.336 63.4,37.736 63.3,34.436 64.4,34.436    64.4,45.836  " fill="#FFFFFF"/>
    <polygon points="60.4,34.436    60.4,35.636 59.3,35.636 59.3,39.436 60.4,39.436 60.4,40.736 59.3,40.736 59.3,44.636 60.5,44.636 60.5,45.836 58.2,45.836    58.2,34.436  " fill="#FFFFFF"/>
    <polygon points="71.2,34.436    71.2,35.636 70,35.636 70,39.436 71.1,39.436 71.1,40.736 70,40.736 70,44.636 71.2,44.636 71.2,45.836 68.9,45.836 68.9,34.436     " fill="#FFFFFF"/>
    <polygon points="66,45.836    66,35.636 65.1,35.636 65.1,34.436 68.2,34.436 68.2,35.636 67.3,35.636 67.3,45.836  " fill="#FFFFFF"/>
    <polygon points="11.9,35.636    11.9,34.436 14.5,34.436 14.5,35.836 13,44.636 14.4,44.636 14.4,45.836 11.8,45.836 11.8,44.336 13.2,35.636  " fill="#FFFFFF"/>
    <polygon points="15.3,35.636    15.3,34.436 17.9,34.436 17.9,35.836 16.4,44.636 17.8,44.636 17.8,45.836 15.2,45.836 15.2,44.336 16.6,35.636  " fill="#FFFFFF"/>
    <polygon points="22.3,41.936    22.8,41.936 22.5,38.136  " fill="#FFFFFF"/>
  </g>
  <polygon points="29.1,34.436 29.1,45.836 31.1,45.836 31.1,44.636 30.3,44.636 30.3,34.436 " fill="#FFFFFF"/>
  <polygon points="36.1,34.486 36.1,37.786 36.3,41.386 35.2,34.486 34,34.486 34,45.886 35.1,45.886   35.1,42.486 34.9,38.686 36,45.886 37.2,45.886 37.2,34.486 " fill="#FFFFFF"/>
</svg>