<?xml version="1.0" encoding="utf-8"?>
<!-- Generator: Adobe Illustrator 28.0.0, SVG Export Plug-In . SVG Version: 6.00 Build 0)  -->
<svg version="1.2" baseProfile="tiny-ps" xmlns:xlink="http://www.w3.org/1999/xlink" viewBox="0 0 2500 2500" xmlns="http://www.w3.org/2000/svg">
  <title>Workfeed ApS</title>
<g>
	<path fill="#FFFFFF" d="M1468.7,1142.1c-16.7-13.7-37-20.5-60.8-20.5c-25.1,0-45.6,6.5-61.7,19.6c-15.5,13.1-25.3,31.5-29.5,55.3   h185.2C1496.4,1173.9,1485.4,1155.8,1468.7,1142.1z" />
	<path fill="#FFFFFF" d="M940.3,1142.1c-16.5-13.7-36.5-20.5-60-20.5c-24.7,0-45,6.5-60.9,19.6c-15.3,13.1-25,31.5-29.1,55.3H973   C967.7,1173.9,956.8,1155.8,940.3,1142.1z" />
	<path fill="#FFFFFF" d="M3.2,97.3500V3500H3500V.1H2.2z M729,748.6h1212.3v163.8H729V748.6z M1410.6,1394.5   c35.2,0,61.7-14.3,79.6-42.8h156.6c-31.6,104.7-110.6,157-237.1,157c-38.8,0-74.2-5.6-106.5-16.9c-32.2-11.9-59.9-28.5-83.2-49.9   c-22.7-21.4-40.3-47-52.8-76.7c-12.5-29.7-18.8-63-18.8-99.9c0-38.1,6-72.2,17.9-102.6c11.9-30.9,28.9-57.1,51-78.5   c22.1-21.4,48.6-37.8,79.6-49.1c31.6-11.9,67.1-17.8,106.5-17.8c38.8,0,73.7,5.9,104.7,17.8c31,11.3,57.3,27.9,78.7,49.9   c21.5,22,37.9,49.1,49.2,81.2c11.3,31.5,17,67.2,17,107v16.9h-340.8C1312.2,1359.7,1344.9,1394.5,1410.6,1394.5z M692.2,1084.1   c21.8-21.4,48-37.8,78.6-49.1c31.2-11.9,66.2-17.8,105.1-17.8c38.3,0,72.7,5.9,103.3,17.8c30.6,11.3,56.5,27.9,77.7,49.9   c21.2,22,37.4,49.1,48.6,81.2c11.2,31.5,16.8,67.2,16.8,107v16.9H785.8c0,69.6,32.4,104.4,97.1,104.4c34.7,0,60.9-14.3,78.6-42.8   H1116c-31.2,104.7-109.2,157-234,157c-38.3,0-73.3-5.6-105.1-16.9c-31.8-11.9-59.2-28.5-82.1-49.9c-22.4-21.4-39.7-47-52.1-76.7   c-12.4-29.7-18.5-63-18.5-99.9c0-38.1,5.9-72.2,17.7-102.6C653.6,1131.7,670.4,1105.5,692.2,1084.1z M290,1167.5v-134.1h58.2V965   c0-37.9,3.6-68.1,10.8-90.6c6-18.9,15.5-36.4,28.7-52.4c13.1-16.6,28.4-30.8,45.7-42.6c17.9-11.8,37-21,57.3-27.5   c20.3-6.5,40.3-9.8,60-9.8c13.7,0,26.3,1.5,37.6,4.4c11.9,3,23.9,7.1,35.8,12.4v140.3c-10.8-5.3-20.9-9.2-30.5-11.5   c-9-3-18.5-4.4-28.7-4.4c-6.6,0-13.4,1.2-20.6,3.6c-6.6,1.8-12.8,5.9-18.8,12.4c-6,6.5-10.2,16-12.5,28.4   c-1.8,11.8-2.7,28.1-2.7,48.9v56.8h113.8v134.1H510.4V1489H348.2v-321.6H290z M1954.4,1757.7H355.5v-163.8h1598.9V1757.7z    M2210,1757.7h-163.8v-163.8H2210V1757.7z M2210,1487.9h-161.5v-50.8c-34.3,43.4-80.8,65-139.4,65c-33.1,0-63.6-6.2-91.4-18.7   c-27.8-12.5-52.1-29.7-72.8-51.7c-20.7-22-37-47.8-48.8-77.5c-11.2-29.7-16.9-61.8-16.9-96.2c0-32.7,5.3-63.5,16-92.6   c11.2-29.7,26.9-55.5,47-77.5c20.1-22,44.1-39.2,71.9-51.7c28.4-13.1,59.5-19.6,93.2-19.6c56.8,0,103.9,19.9,141.1,59.7V748.6H2210   V1487.9z" />
	<path fill="#FFFFFF" d="M2022.7,1185.9c-8.9-9.5-19.8-16.9-32.8-22.3c-12.4-5.3-25.8-8-39.9-8c-14.2,0-27.8,2.7-40.8,8   c-12.4,5.3-23.4,12.8-32.8,22.3c-8.9,9.5-16.3,20.5-22.2,33c-5.3,11.9-8,24.9-8,39.2c0,14.8,2.7,28.8,8,41.9   c5.3,12.5,12.4,23.5,21.3,33c9.5,9.5,20.4,16.9,32.8,22.3c13,5.3,26.9,8,41.7,8c14.2,0,27.5-2.7,39.9-8c13-5.3,24-12.8,32.8-22.3   c9.5-9.5,16.9-20.5,22.2-33c5.9-12.5,8.9-25.8,8.9-40.1c0-14.3-3-27.6-8.9-40.1C2039.6,1206.7,2032.2,1195.4,2022.7,1185.9z" />
	<path fill="#212121" d="M510.4,1489v-321.6h113.8v-134.1H510.4v-56.8c0-20.7,0.9-37,2.7-48.9c2.4-12.4,6.6-21.9,12.5-28.4   c6-6.5,12.2-10.7,18.8-12.4c7.2-2.4,14-3.6,20.6-3.6c10.2,0,19.7,1.5,28.7,4.4c9.6,2.4,19.7,6.2,30.5,11.5V758.9   c-11.9-5.3-23.9-9.5-35.8-12.4c-11.3-3-23.9-4.4-37.6-4.4c-19.7,0-39.7,3.3-60,9.8c-20.3,6.5-39.4,15.7-57.3,27.5   c-17.3,11.8-32.6,26.1-45.7,42.6c-13.1,16-22.7,33.5-28.7,52.4c-7.2,22.5-10.8,52.7-10.8,90.6v68.4H290v134.1h58.2V1489H510.4z" />
	<path fill="#212121" d="M642.7,1365.1c12.4,29.7,29.7,55.3,52.1,76.7c23,21.4,50.3,38.1,82.1,49.9c31.8,11.3,66.8,16.9,105.1,16.9   c124.8,0,202.8-52.3,234-157H961.5c-17.7,28.5-43.9,42.8-78.6,42.8c-64.8,0-97.1-34.8-97.1-104.4h336.4v-16.9   c0-39.8-5.6-75.5-16.8-107c-11.2-32.1-27.4-59.2-48.6-81.2c-21.2-22-47.1-38.7-77.7-49.9c-30.6-11.9-65-17.8-103.3-17.8   c-38.9,0-73.9,5.9-105.1,17.8c-30.6,11.3-56.8,27.7-78.6,49.1s-38.6,47.6-50.3,78.5c-11.8,30.3-17.7,64.5-17.7,102.6   C624.2,1302.1,630.4,1335.4,642.7,1365.1z M819.3,1141.2c15.9-13.1,36.2-19.6,60.9-19.6c23.5,0,43.6,6.8,60,20.5   c16.5,13.7,27.4,31.8,32.7,54.4H790.2C794.3,1172.7,804,1154.3,819.3,1141.2z" />
	<path fill="#212121" d="M1653,1273.2c0-39.8-5.7-75.5-17-107c-11.3-32.1-27.7-59.2-49.2-81.2c-21.5-22-47.7-38.7-78.7-49.9   c-31-11.9-65.9-17.8-104.7-17.8c-39.4,0-74.8,5.9-106.5,17.8c-31,11.3-57.6,27.7-79.6,49.1c-22.1,21.4-39.1,47.6-51,78.5   c-11.9,30.3-17.9,64.5-17.9,102.6c0,36.9,6.3,70.2,18.8,99.9c12.5,29.7,30.1,55.3,52.8,76.7c23.3,21.4,51,38.1,83.2,49.9   c32.2,11.3,67.7,16.9,106.5,16.9c126.4,0,205.5-52.3,237.1-157h-156.6c-17.9,28.5-44.4,42.8-79.6,42.8   c-65.6,0-98.4-34.8-98.4-104.4H1653V1273.2z M1316.6,1196.5c4.2-23.8,14-42.2,29.5-55.3c16.1-13.1,36.7-19.6,61.7-19.6   c23.9,0,44.1,6.8,60.8,20.5c16.7,13.7,27.7,31.8,33.1,54.4H1316.6z" />
	<path fill="#212121" d="M2048.5,1076.4c-37.3-39.8-84.3-59.7-141.1-59.7c-33.7,0-64.8,6.5-93.2,19.6   c-27.8,12.5-51.8,29.7-71.9,51.7c-20.1,22-35.8,47.8-47,77.5c-10.6,29.1-16,60-16,92.6c0,34.4,5.6,66.5,16.9,96.2   c11.8,29.7,28.1,55.5,48.8,77.5c20.7,22,45,39.2,72.8,51.7c27.8,12.5,58.3,18.7,91.4,18.7c58.6,0,105-21.7,139.4-65v50.8H2210   V748.6h-161.5V1076.4z M2044.9,1299.9c-5.3,12.5-12.7,23.5-22.2,33c-8.9,9.5-19.8,16.9-32.8,22.3c-12.4,5.3-25.8,8-39.9,8   c-14.8,0-28.7-2.7-41.7-8c-12.4-5.3-23.4-12.8-32.8-22.3c-8.9-9.5-16-20.5-21.3-33c-5.3-13.1-8-27-8-41.9c0-14.3,2.7-27.3,8-39.2   c5.9-12.5,13.3-23.5,22.2-33c9.5-9.5,20.4-16.9,32.8-22.3c13-5.3,26.6-8,40.8-8c14.2,0,27.5,2.7,39.9,8c13,5.3,24,12.8,32.8,22.3   c9.5,9.5,16.9,20.8,22.2,33.8c5.9,12.5,8.9,25.8,8.9,40.1C2053.8,1274.1,2050.8,1287.5,2044.9,1299.9z" />
	<rect x="729" y="748.6" fill="#54E2ED" width="1212.3" height="163.8" />
	<rect x="2046.2" y="1593.9" fill="#DB00FF" width="163.8" height="163.8" />
	<rect x="355.5" y="1593.9" fill="#3D7AFF" width="1598.9" height="163.8" />
</g>
</svg>