<?xml version="1.0" encoding="UTF-8" standalone="yes"?>
<svg width="865" height="865" viewBox="0 0 865 865" fill="none" version="1.2" baseProfile="tiny-ps" xmlns="http://www.w3.org/2000/svg">
  <title>MoonPay</title>
  <rect width="865" height="865" fill="white"/>
  <path d="M645.309 314.4C664.021 314.4 682.39 308.89 697.888 298.443C713.502 287.996 725.556 273.187 732.789 255.967C739.906 238.632 741.858 219.575 738.184 201.207C734.511 182.838 725.556 165.963 712.239 152.761C699.036 139.559 682.16 130.489 663.792 126.816C645.423 123.142 626.366 125.094 609.031 132.211C591.695 139.329 576.886 151.498 566.554 167.111C556.106 182.724 550.596 200.977 550.596 219.689C550.596 232.088 553.007 244.486 557.829 255.967C562.65 267.447 569.538 277.893 578.378 286.733C587.218 295.573 597.665 302.461 609.146 307.282C620.511 311.875 632.795 314.4 645.309 314.4ZM354.856 741C309.165 741 264.506 727.453 226.621 702.082C188.736 676.711 159.002 640.664 141.552 598.417C124.102 556.171 119.51 509.791 128.465 465.019C137.419 420.246 159.347 379.148 191.606 346.774C223.866 314.515 265.08 292.473 309.854 283.634C354.627 274.679 401.122 279.271 443.255 296.721C485.503 314.171 521.551 343.789 546.922 381.788C572.294 419.787 585.841 464.445 585.841 510.021C585.841 540.328 579.871 570.406 568.276 598.417C556.68 626.429 539.69 651.915 518.221 673.267C496.753 694.735 471.382 711.726 443.37 723.321C415.358 734.915 385.165 741 354.856 741Z" fill="#7715F5"/>
</svg>