<?xml version="1.0" encoding="utf-8"?>
<!-- Generator: Adobe Illustrator 26.5.0, SVG Export Plug-In . SVG Version: 6.00 Build 0)  -->
<svg xmlns="http://www.w3.org/2000/svg" xmlns:xlink="http://www.w3.org/1999/xlink" version="1.2" baseProfile="tiny-ps" viewBox="0 0 48 48" xml:space="preserve">
	 <title>TOKYU CARD</title>
		<g id="layer_2">
			<rect fill="#FFFFFF" width="48" height="48"/>
		</g>
		<g id="layer_1">
			<g>
				<g>
					<path fill="#E73817" d="M24.02,12.88c-7.21,0-13.06,4.76-13.06,10.62c0,5.87,5.84,10.62,13.06,10.62       c7.21,0,13.06-4.76,13.06-10.62C37.08,17.63,31.23,12.88,24.02,12.88z M24.13,33.83c0,0-0.54-10.41-11.06-15.82       c0,0,10.09,5.09,21.69-0.11C34.76,17.9,25.52,21.99,24.13,33.83z"/>
					<g>
						<path fill="#E73817" d="M9.31,10.17l2.14-1.45l0.25,0.36l-0.84,0.57l1.39,2.05l-0.46,0.32l-1.39-2.06l-0.84,0.57L9.31,10.17z"/>
						<path fill="#E73817" d="M15.18,8.46c0.37,0.75,0.17,1.62-0.69,2.05c-0.85,0.43-1.68,0.06-2.05-0.69        c-0.37-0.74-0.17-1.62,0.69-2.05C13.99,7.35,14.81,7.71,15.18,8.46z M12.94,9.57c0.25,0.5,0.75,0.86,1.36,0.56        c0.62-0.3,0.63-0.93,0.38-1.42c-0.25-0.5-0.75-0.87-1.36-0.57C12.7,8.45,12.69,9.07,12.94,9.57z"/>
						<path fill="#E73817" d="M15.19,6.9l0.53-0.18l0.43,1.26l0.92-1.72l0.65-0.22l-0.83,1.52l1.86,1.22L18.09,9l-1.44-0.99        l-0.3,0.54l0.32,0.93l-0.53,0.18L15.19,6.9z"/>
						<path fill="#E73817" d="M19.46,7.47l-1.54-1.49l0.63-0.13l1.1,1.11l0.54-1.45l0.62-0.13l-0.81,1.98l0.23,1.12L19.69,8.6        L19.46,7.47z"/>
						<path fill="#E73817" d="M21.29,5.32l0.56-0.04l0.12,1.7c0.03,0.39,0.09,0.84,0.81,0.79c0.72-0.05,0.72-0.51,0.69-0.9        l-0.12-1.7l0.56-0.04L24.04,7c0.05,0.75-0.45,1.16-1.23,1.21c-0.78,0.05-1.33-0.28-1.39-1.03L21.29,5.32z"/>
						<path fill="#E73817" d="M26.1,5.24l1.39,0.2c0.91,0.13,1,0.68,0.95,1.05c-0.06,0.36-0.3,0.87-1.2,0.74L26.4,7.1l-0.16,1.11        l-0.56-0.08L26.1,5.24z M26.46,6.68l0.81,0.12c0.25,0.03,0.57-0.04,0.62-0.4c0.05-0.38-0.19-0.51-0.48-0.55L26.6,5.73        L26.46,6.68z"/>
						<path fill="#E73817" d="M31.62,7.95c-0.23,0.8-0.98,1.31-1.9,1.04c-0.92-0.27-1.27-1.1-1.03-1.9c0.23-0.8,0.97-1.31,1.9-1.04        C31.5,6.32,31.86,7.15,31.62,7.95z M29.22,7.25c-0.16,0.54-0.04,1.15,0.62,1.34c0.66,0.19,1.09-0.26,1.25-0.8        c0.16-0.54,0.03-1.15-0.62-1.34C29.81,6.26,29.38,6.71,29.22,7.25z"/>
						<path fill="#E73817" d="M32.63,6.82l0.52,0.21l-1.1,2.71l-0.52-0.21L32.63,6.82z"/>
						<path fill="#E73817" d="M33.91,7.33l0.52,0.28l0.28,2.59l0.01,0l1.01-1.9l0.47,0.25l-1.37,2.58l-0.52-0.28l-0.27-2.58        l-0.01-0.01l-1,1.9l-0.47-0.25L33.91,7.33z"/>
						<path fill="#E73817" d="M36.68,8.85l2.09,1.51l-0.26,0.36l-0.83-0.6l-1.46,2l-0.45-0.33l1.45-2l-0.82-0.6L36.68,8.85z"/>
					</g>
					<path fill="#E73817" d="M7.93,23.62c1.59,8.52,8.61,11.59,16.21,11.59c7.61,0,14.65-3.35,16.03-11.59h0.22       c-0.68,8.89-8.3,13.24-16.26,13.24c-6,0-15.42-2.69-16.42-13.25L7.93,23.62z"/>
					<path fill="#E73817" d="M4.59,23.7C6.66,34.63,16.4,37.88,24.14,37.88c5.84,0,17.3-2.42,19.33-14.24h0.24       C41.9,36.5,30.8,39.55,24.1,39.55c-8.42,0-18.2-4.35-19.73-15.88L4.59,23.7z"/>
					<path fill="#E73817" d="M1.21,23.66c1.64,10.07,10.73,16.96,22.94,16.96c11.08,0,20.88-6.34,22.67-16.93H47       c-1.43,13.96-13.85,18.59-22.89,18.59S2.32,37.59,1,23.67L1.21,23.66z"/>
				</g>
			</g>
		</g>
</svg>
