<?xml version="1.0" encoding="utf-8"?>
<!-- Generator: Adobe Illustrator 28.0.0, SVG Export Plug-In . SVG Version: 6.00 Build 0)  -->
<svg version="1.2" baseProfile="tiny-ps" xmlns:xlink="http://www.w3.org/1999/xlink" viewBox="0 0 270.7 270.7" xmlns="http://www.w3.org/2000/svg">
  <title>Politico LLC</title>
<path fill="#D71920" d="M-0.2-0.2h270.7v270.7H-0.2V-0.2z" />
<path fill="#FFFFFF" d="M80.5,153.7c-4.6,0-8.7-1.6-12.3-4.8c-4-3.5-6-8.1-6-13.8c0-5,1.8-9.3,5.5-12.9c3.6-3.6,8.1-5.4,13.1-5.4  s9.4,1.8,13,5.4c3.6,3.6,5.4,8,5.4,13c0,5.1-1.8,9.4-5.5,13C90,151.9,85.5,153.7,80.5,153.7z M80.7,122.3c-3.6,0-6.7,1.3-9.1,3.8  c-2.5,2.5-3.7,5.6-3.7,9.2c0,3.8,1.3,7,3.9,9.4c2.6,2.5,5.5,3.7,8.9,3.7c3.6,0,6.7-1.3,9.2-3.8s3.7-5.7,3.7-9.3  c0-3.7-1.2-6.8-3.7-9.3C87.3,123.4,84.2,122.2,80.7,122.3L80.7,122.3z M120.5,153.1h-18.2v-35.5h5.7v30.2h12.6v5.3H120.5z   M129.3,153.1h-5.7v-35.5h5.7V153.1z M147.8,153.1h-5.7v-30.2h-9.7v-5.4h25.4v5.4h-10V153.1L147.8,153.1z M166.5,153.1h-5.7v-35.5  h5.7V153.1z M216.2,153.7c-4.6,0-8.7-1.6-12.3-4.8c-4-3.5-6-8.1-6-13.8c0-5,1.8-9.3,5.5-12.9c3.6-3.6,8.1-5.4,13.1-5.4  s9.4,1.8,13,5.4c3.6,3.6,5.4,8,5.4,13c0,5.1-1.8,9.5-5.5,13C225.8,151.9,221.3,153.7,216.2,153.7z M216.4,122.3  c-3.6,0-6.7,1.3-9.1,3.8c-2.5,2.5-3.7,5.6-3.7,9.2c0,3.8,1.3,7,3.9,9.4c2.6,2.5,5.5,3.7,8.9,3.7c3.6,0,6.7-1.3,9.2-3.8  s3.7-5.7,3.7-9.3c0-3.7-1.2-6.8-3.7-9.3C223,123.5,220,122.3,216.4,122.3L216.4,122.3z M40.6,117.6h8.2c6.5,0,11.9,5.3,11.9,11.9  c0,6.6-5.3,11.9-11.9,11.9h-8.2v11.7h-5.7v-35.5L40.6,117.6L40.6,117.6z M40.6,136.1h8.2c3.7,0,6.7-3,6.7-6.7c0-3.7-3-6.7-6.7-6.7  h-8.2V136.1z" />
<path fill="#FFFFFF" d="M196.4,145.2c-2.3,2-5.2,3-8.4,3c-3.3,0-6.3-1.2-8.9-3.7c-2.6-2.5-3.9-5.6-3.9-9.4c0-3.6,1.3-6.7,3.7-9.2  c2.5-2.5,5.5-3.8,9.1-3.8c3.2,0,6,1,8.3,3c1.2-1.4,2.5-2.9,3.5-4.1c-3.3-2.8-7.3-4.3-11.8-4.3c-5.1,0-9.5,1.8-13.1,5.4  c-3.6,3.6-5.5,7.9-5.5,12.9c0,5.7,2,10.3,6,13.8c3.6,3.2,7.8,4.8,12.3,4.8c4.6,0,8.7-1.5,12.1-4.4v-0.1  C198.8,147.9,197.4,146.4,196.4,145.2L196.4,145.2z" />
</svg>