<?xml version="1.0" encoding="UTF-8" standalone="yes"?>
<svg version="1.2" baseProfile="tiny-ps" viewBox="0 0 600 600" xmlns="http://www.w3.org/2000/svg">
  <title>Bark.com Global Limited</title>
  <rect fill="#0A0D21" width="600" height="600"/>
  <path fill-rule="evenodd" fill="#FFFFFF" d="M226.6,272.5c26.1,0,45,21.8,45,47c0,26-19.5,47.3-45.5,47.3c-9.6,0-21.4-4.8-28-12.3  v10.9h-21.9V233h22.4v51.7C205.2,277.2,216.6,272.5,226.6,272.5z M198.3,319.8c0,15.1,10.6,26.6,25.4,26.6  c14.8,0,25.4-11.5,25.4-26.6c0-15.3-10.5-26.7-25.4-26.7C208.8,293,198.3,304.5,198.3,319.8z M281,339.6c0,16,13.1,27.4,31.3,27.4  c9.7,0,18.8-3.5,24.9-11c0.1,3.4,0.4,7,0.8,8.5l0.2,1H360l-0.2-1.4c-0.4-3.8-0.6-8.3-0.6-14.1v-42.2c0-6.5-0.9-11.7-3.1-16.3  c-5.8-12.7-18-18.9-34.5-18.9c-6.8,0-13.4,1.2-18.6,3.5c-11.5,5.1-19.8,15.9-20.7,25.1l-0.1,1.1l20.4,4.6l0.2-1.3  c1.4-8.2,8.3-13.6,18.1-13.6c10.1,0,16.2,5.2,16.2,12.2c0,4-2.1,6.2-7,6.2h-11c-8.9,0-18,2-25,6c-8.5,4.9-13.3,12.4-13.3,22.4v0.8  H281z M337.6,330.1v-3.3h-18.2c-8.6,0-16.4,4.3-16.4,10.9c0,6.4,5.7,10.7,13.8,10.7C329.5,348.4,337.6,341.3,337.6,330.1z   M416.6,273.5c-9,0-17.5,4.1-23.1,11.4v-10.6h-22v91.2h22.4v-46.3c0-14.7,7.7-22.8,21.9-22.8c0.2,0,1.3,0.1,2.2,0.1  c1.4,0.1,2.5,0.2,3.2,0.3l1.6,0.3v-22.9l-1-0.2C420.4,273.7,417.8,273.5,416.6,273.5z M457.7,365.5h-22.4V233h22.4v74.5l32.9-33.1  h30.6l-41.5,41.4l43.4,49.8h-29.6l-35.7-41.8v41.7H457.7z M81.6,342l-3.2,4.6l80.9,19v-20.9L81.6,342z M146,298.1l3.3,20l-62.2,13.1  v-5.3L146,298.1z M77,311.8l3.6,5l78.7-59v-24.4L77,311.8z"/>
</svg>