<svg xmlns="http://www.w3.org/2000/svg" xmlns:xlink="http://www.w3.org/1999/xlink" version="1.2" viewBox="0 0 500 500" baseProfile="tiny-ps">
  <title>BIGC-Icon-Circle-Black</title>
  <g>
    <g>
      <g>
        <path d="M244.53,255.041v-22.112c0-1.019,0.841-1.845,1.878-1.845h31.517     c9.005,0,14.634,5.342,14.634,12.9c0,7.922-5.628,12.9-14.634,12.9h-31.517C245.371,256.885,244.53,256.06,244.53,255.041z      M246.408,307.932h32.642c9.941,0,15.945-5.16,15.945-14.006c0-7.736-5.624-14.006-15.945-14.006h-32.642     c-1.037,0-1.878,0.826-1.878,1.845v24.323C244.53,307.106,245.371,307.932,246.408,307.932z M361.752,115.004l-93.217,93.047     h15.203c23.829,0,37.85,14.925,37.85,31.325c0,12.835-8.696,22.294-17.886,26.424c-1.478,0.664-1.427,2.685,0.081,3.279     c10.705,4.216,18.418,15.429,18.418,28.533c0,18.616-12.382,33.359-36.396,33.359h-66.037c-1.037,0-1.878-0.826-1.878-1.845     v-70.521L115.582,360.726c-1.376,1.374-0.405,3.729,1.538,3.729H363.26c0.926,0,1.676-0.752,1.676-1.679V116.328     C364.936,114.664,362.929,113.829,361.752,115.004z" fill="#121118"/>
      </g>
    </g>
  </g>
</svg>