<?xml version="1.0" encoding="UTF-8" standalone="yes"?>
<svg version="1.2" baseProfile="tiny-ps" xmlns="http://www.w3.org/2000/svg" xml:space="preserve" viewBox="0 -116.995 766.46 766.46"><title>SB_logo_rgb.svg</title>

<g>
	<path class="st0" d="M497.95,245.07c-2.99-0.71-5.24-3.34-5.24-6.5v-45.46c0-3.16,2.26-5.79,5.24-6.38l66.46-0.12
		c32.54,0,54.26-10.58,54.26-36.59v-0.95c0-23.03-18.19-35.64-49.49-35.64l-409.38,0c-1.3,0-2.6,0.31-3.76,0.99
		c-3.99,2.3-5.06,7.89-2.41,12.48c0.73,1.26,1.61,2.26,2.72,3.14L316.3,257.88c8.1,6.47,13.89,14.35,19.53,24.13
		c19.88,34.42,5.3,76.29-24.56,93.52c-8.72,5.03-18.33,7.4-28.06,7.38l-220.48,0.01c-3.59,0-6.5-2.91-6.5-6.5v-48.79
		c0-3.59,2.91-6.5,6.5-6.5l206.2,0.01c1.31,0,2.6-0.31,3.77-0.99c3.99-2.3,5.06-7.89,2.41-12.48c-0.73-1.26-1.61-2.26-2.72-3.14
		L112.43,176.7c-8.1-6.47-13.87-14.37-19.52-24.15c-19.88-34.42-5.3-76.29,24.56-93.52c8.72-5.03,18.33-7.4,28.06-7.38l434.64-0.01
		c67.82,0,108.92,33.55,108.92,85.02v0.95c0,37.07-19.65,57.68-43.23,70.88c-1.08,0.6-0.98,1.91,0.17,2.35
		c38.33,14.66,61.67,36.7,61.67,80.82v0.95c0,59.94-48.58,90.27-123.71,90.27H379.97c-3.59,0-6.5-2.91-6.5-6.5l0-182.45
		c0-3.59,2.91-6.5,6.5-6.5h48.82c3.59,0,6.5,2.91,6.5,6.5l0,127.16l148.69,0.01c32.63,0,53.31-11.6,53.31-37.55v-0.95
		c0-23.51-17.74-37.55-55.7-37.55H497.95L497.95,245.07z" fill="#00819E"/>
	<path class="st1" d="M442.67,478.78c9.43,0,13.2-5.94,13.2-16.58v-6.25c0-10.64-3.77-16.59-13.2-16.59
		c-9.43,0-13.2,5.94-13.2,16.59v6.25C429.47,472.84,433.23,478.78,442.67,478.78L442.67,478.78z M462.32,455.94v6.25
		c0,13.96-6.53,22.6-19.66,22.6c-13.13,0-19.66-8.63-19.66-22.6v-6.25c0-13.96,6.53-22.6,19.66-22.6
		C455.79,433.35,462.32,441.98,462.32,455.94L462.32,455.94z" fill-rule="evenodd" fill="#929292"/>
	<path class="st1" d="M172.89,455.13c-0.16-10.47-3.73-15.77-12.57-15.77c-8.64,0-12.63,5.94-12.83,15.77H172.89L172.89,455.13z
		 M179.36,455.86v2.41c0,1.72-1.41,2.96-2.96,2.96h-28.92v0.61c0,14.19,6.56,16.94,14.9,16.94c3.85,0,8.67-0.62,12.96-1.49
		l0.25-0.02c0.18,0,0.36-0.09,0.54-0.09c1.47,0,2.6,1,2.6,2.51v0.62c0,1.8-1.05,2.6-2.71,2.94c-4.37,0.91-9.55,1.54-13.65,1.54
		c-11.66,0-21.36-5.28-21.36-22.95v-5.89c0-12.74,6.57-22.6,19.3-22.6C173.62,433.35,179.36,442.8,179.36,455.86L179.36,455.86z" fill-rule="evenodd" fill="#929292"/>
	<path class="st1" d="M389.83,478.78c10.76,0,19.72-2.23,19.72-13.91v-1.52c0-6.19-2.85-12.03-14.72-12.03h-14.9v27.01
		C383.19,478.56,385.94,478.78,389.83,478.78L389.83,478.78z M394.82,444.95c11.79,0,14.36-5.57,14.36-11.59v-0.98
		c0-9.52-8.66-11.41-19.36-11.41c-3.41,0-7.02,0.2-9.9,0.31v23.66H394.82L394.82,444.95z M416,463.35v1.52
		c0,17.05-14.96,20.01-26.18,20.01c-4.68,0-9.44-0.27-13.49-0.72c-1.74-0.13-2.87-1.17-2.87-2.96v-62.74c0-1.69,1.48-2.82,2.85-2.96
		c3.69-0.27,8.92-0.54,13.5-0.54c12.09,0,25.82,2.72,25.82,17.42v0.98c0,6.83-3.21,11.87-8.58,14.74
		C412.7,450.83,416,456.05,416,463.35L416,463.35z" fill-rule="evenodd" fill="#929292"/>
	<path class="st2" d="M79.95,446.83c9.81,5.92,16.33,10.63,16.33,19.65c0,8.73-3.97,18.31-21.98,18.31
		c-5.86,0-10.37-0.63-13.97-0.99c-1.46-0.16-2.74-1.14-2.74-2.68v-1.16c0-1.69,1.43-2.43,2.96-2.43l0.41,0
		c4.61,0.35,8.47,0.98,13.35,0.98c12.81,0,15.34-5.44,15.34-12.03c0-5.15-3.05-7.43-6.86-10.01c-1.74-1.18-3.83-2.47-6.29-4
		l-5.62-3.48c-8.03-4.94-14.62-9.56-14.62-18.3c0-12.96,11.77-15.72,22.16-15.72c4.77,0,9.55,0.54,13.43,0.9
		c1.45,0.15,2.66,1.07,2.66,2.6v1.16c0,1.7-1.38,2.52-2.96,2.52c-1.96,0-8.66-0.89-13.22-0.89c-11.63,0-15.52,3.27-15.52,9.53
		c0,4.72,3.38,7.68,11.45,12.57L79.95,446.83L79.95,446.83z" fill="#929292"/>
	<path class="st2" d="M136.83,435.5c0.09,0.3,0.12,0.61,0.12,0.9c0,0.42-0.01,0.84-0.14,1.24l-11.7,40.6
		c-1.48,5.23-4.08,6.54-7.29,6.54c-3.06,0-5.97-1.26-7.47-6.54l-11.68-40.56c-0.12-0.36-0.15-0.73-0.15-1.11
		c0-1.56,1.1-2.78,2.69-2.78h0.89c1.52,0,2.43,1.14,2.82,2.53l11.43,40.24c0.13,0.44,0.63,2.3,1.46,2.3c0.69,0,1.21-2.06,1.29-2.3
		l11.43-40.24c0.4-1.39,1.31-2.53,2.82-2.53h1.07C135.56,433.8,136.51,434.4,136.83,435.5L136.83,435.5z" fill="#929292"/>
	<path class="st2" d="M194.4,436.33c4.28-1.83,8.87-2.98,13.15-2.98c9.21,0,16.98,5.15,16.98,18.31v29.63
		c0,1.55-1.24,2.96-2.96,2.96h-0.62c-1.68,0-2.87-1.46-2.87-2.96v-29.63c0-9.45-4.76-12.3-10.79-12.3c-4.07,0-8.67,1.29-12.84,3.2
		v38.73c0,1.59-1.37,2.96-2.96,2.96h-0.54c-1.59,0-2.96-1.37-2.96-2.96v-44.45c0-1.5,1.02-3.05,2.87-3.05h0.71
		C193.2,433.8,194.19,435.02,194.4,436.33L194.4,436.33z" fill="#929292"/>
	<path class="st2" d="M253.6,457.07c7.34,4.07,11.99,7.34,11.99,14.05c0,10.66-8.21,13.67-16.71,13.67c-4.09,0-9.93-0.64-13.2-1.27
		c-1.45-0.31-2.98-0.94-2.98-2.67v-0.98c0-1.58,1.18-2.51,2.69-2.51h0.54l0.21,0.02c4.22,0.7,9.31,1.41,12.92,1.41
		c6.27,0,10.07-1.57,10.07-7.66c0-2.83-1.22-4.47-8.81-8.62c-6.75-3.69-17.18-7.55-17.18-16.91c0-9.41,7.67-12.24,14.93-12.24
		c6.5,0,9.86,0.45,12.93,0.81c1.55,0.22,2.98,1.06,2.98,2.77v0.72c0,1.7-1.21,2.69-2.87,2.69h-0.27c-2.44-0.27-7.56-0.98-12.41-0.98
		c-5.67,0-8.82,1.1-8.82,6.23c0,3.07,2.41,5.06,8.01,8.18L253.6,457.07L253.6,457.07z" fill="#929292"/>
	<path class="st2" d="M306.1,481.43c0.06,0.21,0.09,0.43,0.09,0.67c0,1.64-1.36,2.69-2.96,2.69c-1.33,0-2.41-0.28-3.59-1.46
		l-19.43-20.79v18.75c0,1.59-1.37,2.96-2.96,2.96h-0.54c-1.59,0-2.96-1.37-2.96-2.96v-62.92c0-1.59,1.37-2.96,2.96-2.96h0.54
		c1.59,0,2.96,1.37,2.96,2.96v34.66l19.86-18.56c0.86-0.74,1.98-1.13,2.99-1.13c1.73,0,3.05,1.33,3.05,2.87
		c0,0.73-0.28,1.63-1.04,2.27l-20.93,19.12l21.12,22.31C305.62,480.38,305.95,480.87,306.1,481.43L306.1,481.43z" fill="#929292"/>
	<path class="st2" d="M346.08,451.04v30.17c0,1.68-1.37,3.05-3.05,3.05h-0.45c-1.68,0-3.05-1.37-3.05-3.05
		c-4.08,1.9-8.86,3.59-13.91,3.59c-7.2,0-14.93-3.6-14.93-15.63V468c0-10.32,6.9-15.01,23.32-15.01h5.61v-1.95
		c0-8.81-2.23-11.68-9.98-11.68c-5.83,0-8.39,0.36-12.55,0.8l-0.49,0.01c-1.59,0-2.96-0.96-2.96-2.6v-0.54
		c0-1.85,1.46-2.64,3.16-2.86c3.79-0.45,6.88-0.81,12.84-0.81C342.65,433.35,346.08,441,346.08,451.04L346.08,451.04z
		 M325.61,478.78c4.54,0,8.48-1.15,14-4.05V459h-5.61c-13.5,0-16.86,2.66-16.86,9v1.16C317.14,476.71,320.9,478.78,325.61,478.78
		L325.61,478.78z" fill="#929292"/>
	<path class="st2" d="M489.15,457.07c7.34,4.07,11.99,7.33,11.99,14.05c0,10.66-8.21,13.67-16.71,13.67c-4.09,0-9.93-0.64-13.2-1.27
		c-1.45-0.31-2.98-0.94-2.98-2.67v-0.98c0-1.58,1.18-2.51,2.69-2.51h0.54l0.21,0.02c4.22,0.7,9.31,1.41,12.92,1.41
		c6.27,0,10.07-1.57,10.07-7.66c0-2.83-1.22-4.47-8.8-8.62c-6.75-3.69-17.18-7.55-17.18-16.91c0-9.41,7.67-12.24,14.93-12.24
		c6.5,0,9.86,0.45,12.93,0.81c1.55,0.22,2.98,1.06,2.98,2.77v0.72c0,1.7-1.21,2.69-2.87,2.69h-0.27c-2.44-0.27-7.56-0.98-12.41-0.98
		c-5.67,0-8.82,1.1-8.82,6.23c0,3.07,2.41,5.06,8.01,8.18L489.15,457.07L489.15,457.07z" fill="#929292"/>
	<path class="st2" d="M534.52,481.29v0.54c0,1.64-1.08,2.46-2.61,2.68c-1.39,0.18-3.24,0.28-4.82,0.28
		c-6.82,0-11.36-2.33-11.36-10.9v-33.9h-7.57c-1.6,0-2.96-1.05-2.96-2.69v-0.89c0-1.67,1.37-2.6,2.96-2.6h7.57v-7.93
		c0-1.62,1.14-2.96,2.79-2.96h0.98c1.62,0,2.69,1.4,2.69,2.96v7.93h9.36c1.59,0,2.96,0.93,2.96,2.6v0.89c0,1.65-1.36,2.69-2.96,2.69
		h-9.36v33.9c0,4.45,1.44,4.89,4.9,4.89h4.29C532.99,478.78,534.52,479.44,534.52,481.29L534.52,481.29z" fill="#929292"/>
	<path class="st2" d="M575.39,451.03v30.17c0,1.68-1.37,3.05-3.05,3.05h-0.45c-1.68,0-3.05-1.37-3.05-3.05
		c-4.08,1.9-8.86,3.58-13.92,3.58c-7.2,0-14.93-3.6-14.93-15.63v-1.16c0-10.32,6.9-15.01,23.32-15.01l5.61,0v-1.95
		c0-8.81-2.23-11.68-9.98-11.68c-5.83,0-8.39,0.36-12.55,0.8l-0.49,0.01c-1.59,0-2.96-0.96-2.96-2.6v-0.53
		c0-1.85,1.46-2.64,3.16-2.86c3.79-0.45,6.88-0.81,12.84-0.81C571.96,433.35,575.39,440.99,575.39,451.03L575.39,451.03z
		 M554.92,478.78c4.54,0,8.48-1.15,14-4.05v-15.73l-5.61,0c-13.5,0-16.86,2.66-16.86,9v1.16
		C546.46,476.7,550.21,478.78,554.92,478.78L554.92,478.78z M568.51,416.76v6.6c0,1.72-1.41,2.96-2.96,2.96h-0.54
		c-1.55,0-2.96-1.24-2.96-2.96v-6.6c0-1.59,1.37-2.96,2.96-2.96h0.54C567.14,413.8,568.51,415.17,568.51,416.76L568.51,416.76z
		 M555.12,416.76v6.6c0,1.72-1.41,2.96-2.96,2.96h-0.54c-1.55,0-2.96-1.24-2.96-2.96v-6.6c0-1.59,1.37-2.96,2.96-2.96h0.54
		C553.75,413.8,555.12,415.17,555.12,416.76L555.12,416.76z" fill="#929292"/>
	<path class="st2" d="M620.37,418.37v61.76c0,1.69-0.7,2.52-2.32,2.93c-4,0.82-10.11,1.73-15.28,1.73
		c-13.34,0-18.77-9.78-18.77-22.95v-5.89c0-14.55,6.24-22.6,18.77-22.6c3.09,0,7.62,0.41,11.15,1.06v-16.04
		c0-1.4,1.02-2.96,2.78-2.96h0.89C619.35,415.41,620.37,416.97,620.37,418.37L620.37,418.37z M602.76,478.78
		c3.77,0,8.03-0.49,11.15-0.97v-37.5c-3.33-0.59-8.06-0.94-11.15-0.94c-8.78,0-12.31,5.1-12.31,16.59v5.89
		C590.45,473.12,593.85,478.78,602.76,478.78L602.76,478.78z" fill="#929292"/>
	<path class="st2" d="M667.32,455.85v2.41c0,1.72-1.41,2.96-2.96,2.96h-28.91v0.61c0,14.19,6.56,16.94,14.9,16.94
		c3.85,0,8.67-0.62,12.96-1.49l0.25-0.03c0.18,0,0.36-0.09,0.54-0.09c1.47,0,2.6,1,2.6,2.51v0.62c0,1.8-1.06,2.6-2.71,2.94
		c-4.37,0.91-9.55,1.54-13.65,1.54c-11.66,0-21.36-5.28-21.36-22.95v-5.89c0-12.74,6.57-22.6,19.3-22.6
		C661.59,433.35,667.32,442.8,667.32,455.85L667.32,455.85z M660.86,455.12c-0.16-10.47-3.73-15.77-12.57-15.77
		c-8.64,0-12.63,5.94-12.83,15.77H660.86L660.86,455.12z" fill="#929292"/>
	<path class="st2" d="M682.38,436.48c3.84-2.2,7.15-3.13,11.17-3.13c1.7,0,3.68,0.46,3.68,2.61v0.71c0,2.12-1.82,2.69-3.68,2.69
		c-3.01,0-6.37,0.67-11.15,3.55v38.38c0,1.59-1.37,2.96-2.96,2.96h-0.54c-1.59,0-2.96-1.37-2.96-2.96v-44.45
		c0-1.5,1.02-3.05,2.87-3.05h0.72C681.23,433.79,682.23,435.1,682.38,436.48L682.38,436.48z" fill="#929292"/>
</g>
</svg>
