<?xml version="1.0" encoding="UTF-8"?>
<svg xmlns="http://www.w3.org/2000/svg" baseProfile="tiny-ps" version="1.2" viewBox="0 0 256.3 256.3" xml:space="preserve">
<title>PKI Solutions</title>
  <!-- Generator: Adobe Illustrator 28.7.3, SVG Export Plug-In . SVG Version: 1.2.0 Build 164)  -->
  <g>
    <g id="Layer_1">
      <g id="Layer_1-2">
        <g id="Layer_1-2">
          <g id="Layer_1-2-2">
            <g id="Layer_1-2-2">
              <g id="Layer_1-2-2-2">
                <g>
                  <path d="M51.8,119.6v-18.2h5.2c4.9,0,8.4-.8,10.3-2.5,1.9-1.6,2.9-3.8,2.9-6.4s-.8-4.7-2.5-6.4-4.9-2.6-9.6-2.6h-6.2v-18.2h16c9.6,0,16.9,2.3,21.6,6.9,4.9,4.7,7.2,11.1,7.2,19.6s-2.7,15.5-7.9,20.4c-5.2,4.9-13.3,7.4-23.9,7.4,0,0-13.1,0-13.1,0Z" fill="#8b9fd1"/>
                  <path d="M67.8,65.8h0M67.8,65.8c9.5,0,16.6,2.3,21.3,6.8,4.7,4.5,7.1,10.7,7.1,19.3s-2.6,15.2-7.7,20.1-13,7.2-23.6,7.2h-12.6v-17.2h4.7c5.1,0,8.6-.9,10.7-2.6,2.1-1.8,3.1-4.1,3.1-6.7s-.9-4.9-2.7-6.8c-1.8-1.8-5.1-2.8-10-2.8h-5.7v-17.2h15.5M67.8,64.8h-16.5v19.2h6.7c4.6,0,7.7.8,9.3,2.5s2.4,3.7,2.4,6.1-.9,4.4-2.7,6-5.2,2.4-10,2.4h-5.7v19.2h13.6c10.8,0,18.9-2.5,24.3-7.5,5.3-5,8-12,8-20.8s-2.4-15.2-7.4-20c-4.9-4.7-12.3-7-22-7h0Z" fill="#fff"/>
                </g>
                <g>
                  <rect x="20.4" y="65.3" width="27.2" height="85.8" fill="#052460"/>
                  <path d="M47.1,65.8v84.8h-26.2v-84.8h26.2M48.1,64.8h-28.2v86.8h28.2v-86.8h0Z" fill="#fff"/>
                </g>
                <g>
                  <rect x="105.5" y="65.3" width="27.2" height="85.8" fill="#052460"/>
                  <path d="M132.2,65.8v84.8h-26.2v-84.8h26.2M133.2,64.8h-28.2v86.8h28.2v-86.8h0Z" fill="#fff"/>
                </g>
                <g>
                  <polygon points="166.7 151.1 149 116.5 137.1 129 137.1 95.3 162.8 65.3 199.1 65.3 167.6 97.8 200.2 151.1 166.7 151.1" fill="#8b9fd1"/>
                  <path d="M197.9,65.8l-30.9,32,32.3,52.8h-32.3l-17.9-34.9-11.5,12.1v-32.3l25.4-29.7h34.9M200.2,64.8h-37.7l-.3.3-25.4,29.7-.2.3v35.2l1.7-1.8,10.5-11.1,17.2,33.6.3.5h34.7l-.9-1.5-31.9-52.1,30.4-31.5,1.6-1.7h0Z" fill="#fff"/>
                </g>
                <g>
                  <polygon points="207.6 151.1 207.6 65.3 234.9 65.3 234.9 71.6 222.6 71.6 222.6 76.1 234.9 76.1 234.9 82.4 222.6 82.4 222.6 86.8 234.9 86.8 234.9 93.2 222.6 93.2 222.6 97.6 234.9 97.6 234.9 151.1 207.6 151.1" fill="#052460"/>
                  <path d="M234.4,65.8v5.4h-12.3v5.4h12.3v5.4h-12.3v5.4h12.3v5.4h-12.3v5.4h12.3v52.5h-26.3v-84.8h26.3M235.4,64.8h-28.3v86.8h28.3v-54.5h-12.3v-3.4h12.3v-7.4h-12.3v-3.4h12.3v-7.4h-12.3v-3.4h12.3v-7.4h0Z" fill="#fff"/>
                </g>
                <g>
                  <g>
                    <path d="M32.2,196c-1.6,0-3.1-.2-4.5-.6-1.4-.4-2.7-1-3.7-1.8-1.1-.8-1.9-1.9-2.6-3.2-.6-1.3-1-2.8-1-4.5v-.5h5.7v.5c0,1,.2,1.8.5,2.4.3.7.8,1.2,1.3,1.6.6.4,1.3.7,2,.9.8.2,1.6.3,2.5.3s1.8,0,2.5-.3,1.2-.5,1.6-.8.7-.7.8-1.1c.2-.4.3-.9.3-1.3,0-.9-.2-1.6-.6-1.9-.4-.4-.9-.7-1.3-.9-1-.4-2.1-.7-3.3-1-1.3-.3-2.9-.7-4.7-1.2-1.2-.3-2.2-.7-3-1.2s-1.5-1.1-2-1.8c-.5-.6-.8-1.3-1.1-2.1-.2-.7-.3-1.5-.3-2.2,0-1.4.3-2.7.9-3.8.6-1,1.4-1.9,2.4-2.6s2.1-1.2,3.3-1.5c1.3-.3,2.5-.5,3.7-.5s2.9.2,4.1.6c1.3.4,2.4,1,3.5,1.7,1,.8,1.8,1.7,2.4,2.9.6,1.1.9,2.5.9,4v.5h-5.7v-.5c-.2-1.6-.7-2.7-1.6-3.3-1-.7-2.2-1-3.8-1s-1,0-1.6.2c-.5,0-1,.3-1.4.5s-.8.5-1,.9c-.3.4-.4.8-.4,1.4s.2,1.4.7,1.9,1.2.9,2.1,1.1c0,0,.5,0,1.2.3s1.5.4,2.3.6c.9.2,1.7.4,2.5.7,0,0,1.6.4,1.8.5.9.3,1.8.7,2.5,1.2s1.3,1.1,1.8,1.8.8,1.3,1.1,2.1c.2.8.3,1.5.3,2.3,0,1.6-.3,3-1,4.1s-1.5,2.1-2.6,2.8-2.3,1.2-3.6,1.6c-1.3.3-2.7.5-4.1.5l.2-.3h0Z" fill="#052460"/>
                    <path d="M31.8,167.2c1.4,0,2.8.2,4,.6,1.2.4,2.3.9,3.3,1.6s1.7,1.6,2.2,2.7.8,2.3.8,3.7h-4.7c0-1.7-.7-3-1.8-3.7s-2.4-1.1-4-1.1-1.1,0-1.7.2-1.1.3-1.6.6-.9.6-1.2,1.1c-.3.4-.5,1-.5,1.7s.3,1.7.9,2.2,1.4.9,2.3,1.2c.1,0,.5,0,1.2.3s1.5.4,2.3.6c.9.2,1.7.4,2.5.7.8.2,1.4.4,1.8.5.9.3,1.7.7,2.3,1.1.7.5,1.2,1,1.7,1.6.4.6.8,1.3,1,2s.3,1.4.3,2.1c0,1.5-.3,2.8-.9,3.9s-1.4,2-2.4,2.6c-1,.7-2.2,1.2-3.4,1.5-1.3.3-2.6.5-3.9.5s-3-.2-4.3-.6c-1.4-.4-2.6-1-3.6-1.7-1-.8-1.8-1.8-2.4-3s-.9-2.7-.9-4.3h4.7c0,1,.2,1.9.5,2.7.3.7.8,1.3,1.5,1.8.6.5,1.4.8,2.2,1s1.7.3,2.7.3,1.9,0,2.6-.4c.7-.2,1.3-.5,1.8-.9s.8-.8,1-1.3.3-1,.3-1.5c0-1-.2-1.8-.7-2.3s-1-.8-1.5-1c-1-.4-2.1-.7-3.3-1-1.3-.3-2.9-.7-4.7-1.2-1.2-.3-2.1-.7-2.9-1.2s-1.4-1-1.8-1.6c-.5-.6-.8-1.2-1-1.9s-.3-1.4-.3-2.1c0-1.4.3-2.5.9-3.5s1.3-1.8,2.2-2.5c.9-.7,2-1.1,3.2-1.5,1.2-.3,2.4-.5,3.6-.5M31.8,166.1c-1.3,0-2.6.3-3.9.6-1.3.4-2.5.9-3.5,1.6-1.1.7-1.9,1.7-2.5,2.8-.7,1.1-1,2.5-1,4s.1,1.6.3,2.3c.2.8.6,1.6,1.1,2.3s1.2,1.3,2.1,1.9c.9.5,1.9,1,3.2,1.3,1.8.5,3.4.9,4.7,1.2,1.2.3,2.3.6,3.2,1,.4,0,.8.4,1.2.8.3.3.4.8.4,1.6s0,.7-.2,1.1c0,.4-.4.6-.7.9-.4.3-.9.6-1.5.8s-1.4.3-2.3.3-1.7,0-2.4-.3c-.7-.2-1.3-.5-1.8-.9s-.9-.8-1.2-1.4c-.3-.6-.4-1.3-.4-2.2v-1h-6.7v1c0,1.8.4,3.4,1.1,4.8.7,1.3,1.6,2.5,2.7,3.4s2.4,1.5,3.9,1.9c1.4.4,3,.6,4.6.6s2.8-.2,4.2-.5,2.6-.9,3.8-1.6c1.1-.8,2-1.8,2.7-3s1.1-2.7,1.1-4.4,0-1.6-.4-2.4c-.3-.9-.6-1.6-1.1-2.3s-1.1-1.3-1.9-1.9c-.7-.5-1.6-1-2.6-1.3-.2,0-.5,0-.9-.2l-.9-.2c-.8-.2-1.7-.4-2.5-.7-.9-.2-1.6-.4-2.3-.6s-1.1-.3-1.2-.3c-.8-.2-1.4-.6-1.9-1-.4-.3-.6-.8-.6-1.5s0-.9.2-1.2.6-.5,1-.7.8-.4,1.3-.5,1-.2,1.5-.2c1.4,0,2.6.3,3.5.9.8.5,1.2,1.5,1.3,2.9v.9h6.7v-1c0-1.6-.3-3-.9-4.2s-1.5-2.2-2.5-3c-1.1-.8-2.3-1.4-3.6-1.8-1.3-.4-2.8-.6-4.3-.6h-.1,0Z" fill="#fff"/>
                  </g>
                  <g>
                    <path d="M58.6,196c-2.1,0-4-.4-5.6-1.2-1.7-.8-3.1-1.8-4.2-3.2-1.1-1.3-2-2.9-2.6-4.7s-.9-3.7-.9-5.7.3-3.8.9-5.6c.6-1.8,1.5-3.3,2.6-4.7,1.2-1.3,2.6-2.4,4.2-3.2,1.7-.8,3.6-1.2,5.6-1.2s4,.4,5.6,1.2c1.7.8,3.1,1.9,4.2,3.2s2,2.9,2.6,4.7.9,3.7.9,5.6-.3,3.9-.9,5.7-1.5,3.3-2.6,4.7c-1.1,1.3-2.6,2.4-4.2,3.2-1.7.8-3.5,1.2-5.6,1.2ZM58.6,171.5c-1.3,0-2.5.3-3.5.8s-1.8,1.3-2.4,2.2c-.6.9-1.1,2-1.4,3.2s-.5,2.4-.5,3.7.2,2.5.5,3.7.8,2.2,1.4,3.2c.6.9,1.4,1.6,2.4,2.2,1,.5,2.1.8,3.5.8s2.5-.3,3.5-.8,1.8-1.3,2.4-2.2c.6-.9,1.1-2,1.4-3.2s.5-2.4.5-3.7-.2-2.5-.5-3.7-.8-2.2-1.4-3.1c-.6-.9-1.4-1.6-2.4-2.2-1-.5-2.1-.8-3.5-.8h0Z" fill="#052460"/>
                    <path d="M58.6,167.2c2,0,3.8.4,5.4,1.1,1.6.8,3,1.8,4.1,3.1s2,2.8,2.6,4.5.9,3.5.9,5.4-.3,3.8-.9,5.5-1.4,3.2-2.6,4.5c-1.1,1.3-2.5,2.3-4.1,3.1s-3.4,1.1-5.4,1.1-3.8-.4-5.4-1.1c-1.6-.7-3-1.8-4.1-3.1s-2-2.8-2.5-4.5c-.6-1.7-.9-3.6-.9-5.5s.3-3.7.9-5.4,1.4-3.2,2.5-4.5,2.5-2.3,4.1-3.1,3.4-1.1,5.4-1.1M58.6,191.6c1.4,0,2.7-.3,3.7-.9s1.9-1.4,2.6-2.3c.7-1,1.1-2.1,1.5-3.3.3-1.2.5-2.5.5-3.8s-.2-2.6-.5-3.8-.8-2.3-1.5-3.3-1.5-1.8-2.5-2.3c-1-.6-2.3-.9-3.7-.9s-2.7.3-3.7.9-1.9,1.4-2.5,2.3c-.7,1-1.1,2.1-1.5,3.3-.3,1.2-.5,2.5-.5,3.8s.2,2.6.5,3.8.8,2.3,1.5,3.3,1.5,1.8,2.5,2.3c1,.6,2.3.9,3.7.9M58.6,166.2c-2.2,0-4.1.4-5.9,1.2-1.7.8-3.2,1.9-4.4,3.3-1.2,1.4-2.1,3-2.7,4.8-.6,1.9-.9,3.7-.9,5.8s.3,4,.9,5.8,1.6,3.4,2.7,4.8c1.2,1.4,2.7,2.5,4.4,3.3s3.7,1.2,5.8,1.2,4.1-.4,5.9-1.2c1.7-.8,3.2-1.9,4.4-3.3,1.2-1.4,2.1-3,2.7-4.8s.9-3.8.9-5.8-.3-3.9-.9-5.8c-.6-1.8-1.5-3.5-2.7-4.8-1.2-1.4-2.7-2.5-4.4-3.3s-3.7-1.2-5.9-1.2h.1ZM58.6,190.6c-1.3,0-2.4-.3-3.2-.7-.9-.5-1.6-1.2-2.2-2-.6-.9-1-1.9-1.3-3-.3-1.2-.4-2.4-.4-3.5s0-2.4.4-3.5c.3-1.1.7-2.1,1.3-3,.6-.8,1.3-1.5,2.2-2s2-.7,3.2-.7,2.4.3,3.2.7c.9.5,1.6,1.2,2.2,2,.6.9,1,1.9,1.3,3,.3,1.2.4,2.4.4,3.5s0,2.4-.4,3.5-.7,2.1-1.3,3c-.6.8-1.3,1.5-2.2,2s-2,.7-3.2.7h0Z" fill="#fff"/>
                  </g>
                  <g>
                    <polygon points="75.3 195.3 75.3 167.3 81.1 167.3 81.1 190.2 94.8 190.2 94.8 195.3 75.3 195.3" fill="#052460"/>
                    <path d="M80.6,167.8v22.9h13.7v4.1h-18.5v-27h4.7M81.6,166.8h-6.7v29h20.5v-6.1h-13.7v-22.9h-.1Z" fill="#fff"/>
                  </g>
                  <g>
                    <path d="M108.3,196c-1.7,0-3.3-.2-4.7-.7-1.4-.5-2.7-1.1-3.7-2.1-1-.9-1.8-2.1-2.4-3.4-.5-1.3-.8-2.9-.8-4.7v-17.8h5.7v18.9c0,.9.3,1.6.7,2.3.4.7.9,1.2,1.7,1.6.8.4,1.9.7,3.3.7s2.6-.2,3.3-.7c.8-.4,1.3-1,1.7-1.6.4-.7.6-1.5.7-2.3v-18.9h5.7v17.8c0,1.8-.3,3.4-.8,4.7-.6,1.4-1.4,2.5-2.4,3.4s-2.3,1.6-3.7,2.1c-1.4.4-3,.7-4.7.7h.4Z" fill="#052460"/>
                    <path d="M119.4,167.8v17.3c0,1.7-.3,3.3-.8,4.5s-1.3,2.4-2.2,3.2c-1,.9-2.1,1.5-3.5,1.9s-2.9.6-4.5.6-3.2-.2-4.5-.6c-1.4-.4-2.5-1.1-3.5-1.9-1-.9-1.7-1.9-2.2-3.2s-.8-2.8-.8-4.5v-17.3h4.7v18.6c0,.9.3,1.8.8,2.5.4.8,1.1,1.4,1.9,1.8.8.5,2,.7,3.6.7s2.7-.2,3.6-.7c.8-.5,1.5-1.1,1.9-1.8s.7-1.6.8-2.5v-18.6h4.7M120.4,166.8h-6.7v19.5c0,.8-.3,1.5-.6,2.1-.3.6-.8,1.1-1.5,1.5s-1.7.6-3.1.6-2.4-.2-3.1-.6-1.2-.9-1.5-1.5-.6-1.3-.6-2.1v-19.5h-6.7v18.3c0,1.9.3,3.5.9,4.9s1.4,2.6,2.5,3.6,2.4,1.7,3.9,2.2,3.1.7,4.8.7,3.4-.2,4.8-.7c1.5-.5,2.8-1.2,3.9-2.2,1.1-.9,1.9-2.2,2.5-3.6s.9-3,.9-4.9v-18.3h-.4Z" fill="#fff"/>
                  </g>
                  <g>
                    <polygon points="130.4 195.3 130.4 172.4 121.8 172.4 121.8 167.3 144.7 167.3 144.7 172.4 136.1 172.4 136.1 195.3 130.4 195.3" fill="#052460"/>
                    <path d="M144.2,167.8v4.1h-8.6v22.9h-4.7v-22.9h-8.6v-4.1h21.9M145.2,166.8h-23.9v6.1h8.6v22.9h6.7v-22.9h8.6v-6.1h0Z" fill="#fff"/>
                  </g>
                  <g>
                    <rect x="146.8" y="167.3" width="5.7" height="28" fill="#052460"/>
                    <path d="M152.1,167.8v27h-4.7v-27h4.7M153.1,166.8h-6.7v29h6.7v-29h0Z" fill="#fff"/>
                  </g>
                  <g>
                    <path d="M169.4,196c-2.1,0-4-.4-5.6-1.2-1.7-.8-3.1-1.8-4.2-3.2-1.1-1.3-2-2.9-2.6-4.7s-.9-3.7-.9-5.7.3-3.8.9-5.6c.6-1.8,1.5-3.3,2.6-4.7,1.2-1.3,2.6-2.4,4.2-3.2,1.7-.8,3.6-1.2,5.6-1.2s4,.4,5.6,1.2c1.7.8,3.1,1.9,4.2,3.2,1.1,1.3,2,2.9,2.6,4.7s.9,3.7.9,5.6-.3,3.9-.9,5.7c-.6,1.8-1.5,3.3-2.6,4.7-1.1,1.3-2.6,2.4-4.2,3.2-1.7.8-3.5,1.2-5.6,1.2ZM169.4,171.5c-1.3,0-2.5.3-3.5.8s-1.8,1.3-2.4,2.2c-.6.9-1.1,2-1.4,3.2-.3,1.2-.5,2.4-.5,3.7s.2,2.5.5,3.7.8,2.2,1.4,3.2c.6.9,1.4,1.6,2.4,2.2,1,.5,2.1.8,3.5.8s2.5-.3,3.5-.8,1.8-1.3,2.4-2.2c.6-.9,1.1-2,1.4-3.2.3-1.2.5-2.4.5-3.7s-.2-2.5-.5-3.7-.8-2.2-1.4-3.1c-.6-.9-1.4-1.6-2.4-2.2-1-.5-2.1-.8-3.5-.8h0Z" fill="#052460"/>
                    <path d="M169.4,167.2c2,0,3.8.4,5.4,1.1,1.6.8,3,1.8,4.1,3.1s2,2.8,2.6,4.5.9,3.5.9,5.4-.3,3.8-.9,5.5c-.6,1.7-1.4,3.2-2.6,4.5-1.1,1.3-2.5,2.3-4.1,3.1s-3.4,1.1-5.4,1.1-3.8-.4-5.4-1.1c-1.6-.7-3-1.8-4.1-3.1s-2-2.8-2.6-4.5-.9-3.6-.9-5.5.3-3.7.9-5.4,1.4-3.2,2.6-4.5c1.1-1.3,2.5-2.3,4.1-3.1s3.4-1.1,5.4-1.1M169.4,191.6c1.4,0,2.7-.3,3.7-.9s1.9-1.4,2.6-2.3c.7-1,1.1-2.1,1.5-3.3.3-1.2.5-2.5.5-3.8s-.2-2.6-.5-3.8-.8-2.3-1.5-3.3-1.5-1.8-2.6-2.3c-1.1-.6-2.3-.9-3.7-.9s-2.7.3-3.7.9c-1.1.6-1.9,1.4-2.6,2.3-.7,1-1.1,2.1-1.5,3.3-.3,1.2-.5,2.5-.5,3.8s.2,2.6.5,3.8.8,2.3,1.5,3.3,1.5,1.8,2.6,2.3,2.3.9,3.7.9M169.4,166.2c-2.2,0-4.1.4-5.9,1.2-1.7.8-3.2,1.9-4.4,3.3s-2.1,3-2.7,4.8c-.6,1.9-.9,3.7-.9,5.8s.3,4,.9,5.8c.6,1.8,1.6,3.4,2.7,4.8,1.2,1.4,2.7,2.5,4.4,3.3s3.7,1.2,5.8,1.2,4.1-.4,5.9-1.2c1.7-.8,3.2-1.9,4.4-3.3,1.2-1.4,2.1-3,2.7-4.8.6-1.8.9-3.8.9-5.8s-.3-3.9-.9-5.8c-.6-1.8-1.5-3.5-2.7-4.8-1.2-1.4-2.7-2.5-4.4-3.3s-3.7-1.2-5.9-1.2h0ZM169.4,190.6c-1.3,0-2.4-.3-3.2-.7-.9-.5-1.6-1.2-2.2-2-.6-.9-1-1.9-1.3-3-.3-1.2-.4-2.4-.4-3.5s.1-2.4.4-3.5c.3-1.1.7-2.1,1.3-3,.6-.8,1.3-1.5,2.2-2s2-.7,3.2-.7,2.4.3,3.2.7c.9.5,1.6,1.2,2.2,2,.6.9,1,1.9,1.3,3,.3,1.2.4,2.4.4,3.5s-.1,2.4-.4,3.5c-.3,1.1-.7,2.1-1.3,3-.6.8-1.3,1.5-2.2,2s-2,.7-3.2.7h0Z" fill="#fff"/>
                  </g>
                  <g>
                    <polygon points="203.1 195.3 191.5 176.5 191.5 195.3 186 195.3 186 167.3 191.7 167.3 203.4 186.1 203.4 167.3 208.9 167.3 208.9 195.3 203.1 195.3" fill="#052460"/>
                    <path d="M208.4,167.8v27h-5l-12.3-19.9h-.1v19.9h-4.5v-27h5l12.3,19.9h0v-19.9h4.5M209.4,166.8h-6.5v17.5l-10.6-17.1-.3-.5h-6.6v29h6.5v-17.5l10.6,17.1.3.5h6.6v-29h0Z" fill="#fff"/>
                  </g>
                  <g>
                    <path d="M223.6,196c-1.6,0-3.1-.2-4.5-.6-1.4-.4-2.7-1-3.7-1.8-1.1-.8-1.9-1.9-2.6-3.2-.6-1.3-1-2.8-1-4.5v-.5h5.2v.5h.5c0,1,.2,1.8.5,2.4.3.7.8,1.2,1.3,1.6.6.4,1.3.7,2,.9.8.2,1.6.3,2.5.3s1.8,0,2.5-.3,1.2-.5,1.6-.8c.4-.3.7-.7.8-1.1.2-.4.3-.9.3-1.3,0-.9-.2-1.6-.6-1.9-.4-.4-.9-.7-1.3-.9-1-.4-2.1-.7-3.3-1-1.3-.3-2.9-.7-4.7-1.2-1.2-.3-2.2-.7-3-1.2s-1.5-1.1-2-1.8c-.5-.6-.8-1.3-1.1-2.1-.2-.7-.3-1.5-.3-2.2,0-1.4.3-2.7.9-3.8.6-1,1.4-1.9,2.4-2.6s2.1-1.2,3.3-1.5c1.3-.3,2.5-.5,3.7-.5s2.9.2,4.1.6c1.3.4,2.4,1,3.5,1.7,1,.8,1.8,1.7,2.4,2.9.6,1.1.9,2.5.9,4v.5h-5.7v-.5c-.2-1.6-.7-2.7-1.6-3.3-1-.7-2.2-1.2-3.8-1s-1,0-1.6.2c-.4,0-1,.3-1.4.5s-.8.5-1,.9c-.3.4-.4.8-.4,1.4s.2,1.4.7,1.9,1.2.9,2.1,1.1c0,0,.5,0,1.2.3s1.5.4,2.3.6c.9.2,1.7.4,2.5.7,0,0,1.6.4,1.8.5.9.3,1.8.7,2.5,1.2s1.3,1.1,1.8,1.8c.5.6.8,1.3,1.1,2.1.2.8.3,1.5.3,2.3,0,1.6-.3,3-1,4.1s-1.5,2.1-2.6,2.8-2.3,1.2-3.6,1.6c-1.3.3-2.7.5-4.1.5l.2-.3h0Z" fill="#052460"/>
                    <path d="M223.2,167.2c1.4,0,2.8.2,4,.6s2.4.9,3.3,1.6c.9.7,1.7,1.6,2.2,2.7.6,1.1.8,2.3.8,3.7h-4.7c-.1-1.7-.7-3-1.8-3.7s-2.4-1.1-4.1-1.1-1.1,0-1.7.2-1.1.3-1.6.6-.9.6-1.2,1.1c-.3.4-.5,1-.5,1.7s.3,1.7.9,2.2,1.4.9,2.3,1.2c.1,0,.5,0,1.2.3s1.5.4,2.3.6c.9.2,1.7.4,2.5.7.8.2,1.4.4,1.8.5.9.3,1.6.7,2.3,1.1.7.5,1.2,1,1.6,1.6.4.6.8,1.3,1,2s.3,1.4.3,2.1c0,1.5-.3,2.8-.9,3.9-.6,1.1-1.4,2-2.4,2.6-1,.7-2.2,1.2-3.4,1.5-1.3.3-2.6.5-3.9.5s-3-.2-4.4-.6c-1.4-.4-2.6-1-3.6-1.7-1-.8-1.8-1.8-2.4-3-.6-1.2-.9-2.7-.9-4.3h4.7c0,1,.2,1.9.5,2.7s.8,1.3,1.5,1.8c.6.5,1.4.8,2.2,1s1.7.3,2.7.3,1.9,0,2.6-.4c.7-.2,1.3-.5,1.8-.9s.8-.8,1-1.3.3-1,.3-1.5c0-1-.2-1.8-.7-2.3s-1-.8-1.5-1c-1-.4-2.1-.7-3.4-1-1.3-.3-2.9-.7-4.7-1.2-1.2-.3-2.1-.7-2.9-1.2-.8-.5-1.4-1-1.8-1.6-.5-.6-.8-1.2-1-1.9s-.3-1.4-.3-2.1c0-1.4.3-2.5.9-3.5s1.3-1.8,2.2-2.5,2-1.1,3.2-1.5c1.2-.3,2.4-.5,3.6-.5M223.2,166.2c-1.3,0-2.6.2-3.9.5-1.3.4-2.5.9-3.5,1.6-1.1.7-1.9,1.7-2.5,2.8-.7,1.1-1,2.5-1,4s.1,1.6.3,2.3c.2.8.6,1.6,1.1,2.3s1.2,1.3,2.1,1.9c.9.5,1.9,1,3.2,1.3,1.8.5,3.4.9,4.7,1.2,1.2.3,2.3.6,3.2,1,.4,0,.8.4,1.2.8.3.3.4.8.4,1.6s0,.7-.2,1.1c-.1.4-.4.6-.7.9-.4.3-.9.6-1.5.8s-1.4.3-2.3.3-1.7,0-2.4-.3c-.7-.2-1.3-.5-1.8-.9s-.9-.8-1.2-1.4-.4-1.3-.4-2.2v-1h-6.7v1c0,1.8.4,3.4,1.1,4.8.7,1.3,1.6,2.5,2.7,3.4,1.1.9,2.4,1.5,3.9,1.9,1.4.4,3,.6,4.6.6s2.8-.2,4.2-.5,2.6-.9,3.8-1.6c1.1-.8,2-1.8,2.7-3s1.1-2.7,1.1-4.4-.1-1.6-.4-2.4c-.3-.9-.6-1.6-1.1-2.3s-1.1-1.3-1.9-1.9c-.7-.5-1.6-1-2.6-1.3-.2,0-.5,0-.9-.2l-.9-.2c-.8-.2-1.7-.4-2.5-.7-.9-.2-1.6-.4-2.3-.6-.8-.2-1.1-.3-1.2-.3-.8-.2-1.4-.6-1.9-1-.4-.3-.6-.8-.6-1.5s.1-.8.3-1.1.5-.6.9-.8.8-.4,1.3-.5,1-.2,1.5-.2c1.4,0,2.6.3,3.5.9.8.5,1.2,1.5,1.3,2.9v.9h6.7v-1c0-1.6-.3-3-.9-4.2-.6-1.2-1.5-2.2-2.5-3-1.1-.8-2.3-1.4-3.6-1.8s-2.7-.5-4.2-.5h-.2Z" fill="#fff"/>
                  </g>
                </g>
              </g>
            </g>
          </g>
        </g>
      </g>
    </g>
  </g>
</svg>