<?xml version="1.0" encoding="UTF-8" standalone="yes"?><svg xmlns="http://www.w3.org/2000/svg" baseProfile="tiny-ps" version="1.2" viewBox="0 0 400 400"><title>TiquetesBaratos</title><rect width="400" height="400" fill="#14a5df"></rect><rect width="400" height="400" fill="none"></rect><path d="M119.84,322.51c-3.74.2-6.38-2.39-6.58-6.13-.23-4.29,2.69-8.12,7.13-8.35,3.82-.2,6.61,2.38,6.83,6.36.24,4.52-2.78,7.89-7.38,8.13Z" fill="#0b0b0c"></path><path d="M158.61,310.06l.53,8.49c-2.35,1.3-6.2,2.36-10.72,2.61-9.43.5-16.36-4.91-16.89-14.73-.73-13.56,9.07-24.71,23.57-25.49,3.27-.18,6.11.3,7.86.83l-2.34,8.8c-1.35-.47-2.93-.78-5.19-.66-7.95.43-12.57,7.47-12.19,14.64.28,5.22,3.77,7.69,7.9,7.47,3.27-.17,5.57-1.08,7.48-1.96Z" fill="#0b0b0c"></path><path d="M186.22,279.45c10.21-.55,16.51,6.15,16.98,14.88.75,13.95-8.29,24.67-21.46,25.38-9.66.52-16.47-5.45-16.98-14.96-.71-13.17,7.91-24.57,21.47-25.3ZM185.2,288.11c-6.47.35-9.16,9.95-8.84,15.87.24,4.44,2.58,7.29,6.55,7.07,6-.32,9.02-9.55,8.68-16.02-.19-3.51-1.95-7.16-6.39-6.93Z" fill="#0b0b0c"></path><path d="M217.67,315.8l-10.83.58,3.38-25.97c.6-4.88,1-9.04,1.29-12.5l9.59-.51-.37,6.19h.16c3.24-5.11,7.8-7.54,12.71-7.8,6.08-.33,8.94,3.43,9.43,6.76,3.17-5.09,7.8-7.69,12.78-7.95,5.85-.31,9.48,3.32,9.82,9.79.08,1.56-.07,4.61-.27,6.58l-2.94,22.43-10.91.58,2.7-21.09c.23-1.5.38-3.15.3-4.63-.14-2.65-1.41-4.46-3.98-4.32-3.74.2-7.21,5.39-8.28,13.18l-2.27,17.47-10.83.58,2.85-21.18c.15-1.57.3-3.06.23-4.39-.14-2.65-1.11-4.63-3.84-4.48-3.82.21-7.59,5.72-8.51,13.35l-2.2,17.31Z" fill="#0b0b0c"></path><path d="M32.25,195.51l15.59-2.03-2.29,30.9.21-.03c3.26-5.12,8.79-8.8,15.24-9.63,10.96-1.43,17.09,6.96,18.32,16.31,2.23,16.98-6.38,37.99-30.03,41.07-12.47,1.62-19.41-2.94-20.63-12.29-.42-3.22-.31-6.52-.07-9.72l3.66-54.58ZM44.49,244.63l-.4,4.43c-.1,1.76-.17,3.74.22,5.87.6,3.75,3.02,5.51,6.67,5.03,9.03-1.17,13.73-14.47,12.54-23.6-.68-5.16-3.33-8.75-8.06-8.13-5.59.73-10.34,7.03-10.97,16.4Z" fill="#e41f1a"></path><path d="M133.69,268.44l-14.29.7c-.05-3.14.1-6.73.13-10.53h-.22c-4.44,9.02-11.12,12.27-17.29,12.58-9.53.46-16.38-6.58-16.93-17.62-.88-17.86,10.1-37.5,36.08-38.77,6.39-.31,13.16.55,17.67,1.74l-4.16,27.99c-.96,6.88-1.54,17.33-1,23.92ZM120,239.37l1.78-12.35c-1.2-.16-2.62-.31-4.24-.23-10.07.49-16.83,13.19-16.34,23.04.26,5.2,2.49,8.67,6.82,8.46,4.66-.23,10.13-5.81,11.99-18.93Z" fill="#e41f1a"></path><path d="M158.84,267.57l-15.57,1.05,3.85-31.87c.98-8.1,1.04-17.02,1.27-21.6l13.52-.91c-.09,3.59-.07,7.17-.25,10.88l.33-.02c3.32-7.28,8.82-12.65,16.07-13.14.97-.07,1.95-.13,2.93-.09l-2.02,15.34c-.76-.06-1.63,0-2.49.06-9.95.67-14.01,9.85-15.26,20.36l-2.36,19.93Z" fill="#e41f1a"></path><path d="M231.38,264.12l-14.29.76c-.05-3.14.09-6.73.11-10.53h-.22c-4.42,9.04-11.08,12.32-17.25,12.65-9.53.5-16.4-6.51-16.97-17.55-.93-17.86,9.99-37.54,35.97-38.92,6.39-.34,13.16.5,17.67,1.67l-4.08,28c-.94,6.89-1.49,17.34-.93,23.93ZM217.62,235.11l1.75-12.36c-1.2-.15-2.62-.3-4.24-.21-10.07.53-16.79,13.26-16.28,23.11.27,5.19,2.51,8.66,6.84,8.43,4.65-.25,10.12-5.85,11.93-18.98Z" fill="#e41f1a"></path><path d="M252.82,198.71l15.61-5.71-1.49,14.49,11.34-.99-1.36,12.09-11.23.98-2.04,18.24c-.26,2.09-.45,4.93-.29,6.77.22,2.59,1.46,4.33,4.91,4.03,1.3-.11,2.92-.25,4.19-.58l-.69,12.35c-1.99.94-5.84,1.71-9.08,1.99-9.4.82-14.23-3.55-14.8-10.25-.24-2.81-.16-5.75.35-9.93l2.21-21.3-6.69.58,1.15-12.07,6.8-.59,1.1-10.1Z" fill="#e41f1a"></path><path d="M309.8,203.75c14.09-1.79,23.46,6.86,24.96,18.9,2.39,19.26-9.08,35.02-27.26,37.33-13.33,1.69-23.34-5.89-24.97-19.01-2.26-18.18,8.56-34.85,27.27-37.22ZM309.22,215.84c-8.92,1.13-11.72,14.71-10.7,22.88.76,6.13,4.28,9.84,9.77,9.14,8.28-1.05,11.57-14.14,10.46-23.07-.6-4.84-3.39-9.73-9.52-8.95Z" fill="#e41f1a"></path><path d="M338.9,247.79l3.18-11.16c3.11,1.34,8.86,3.17,13.95,2.87,4.44-.26,6.59-2.56,6.45-5.16-.14-2.6-1.98-4.33-6.98-6.43-6.23-2.67-11.56-6.81-11.92-13.41-.61-11.04,8.62-18.86,22.25-19.66,6.17-.36,11.11.65,13.78,1.9l-3.18,11.26c-2.22-.85-6.08-1.92-10.62-1.65-4.22.25-6.83,2.14-6.67,5.06.12,2.16,2.39,3.88,6.72,5.68,6.01,2.58,12.3,6.44,12.7,13.8.67,12.12-9.24,19.33-23.32,20.05-6.71.29-13.09-1.07-16.35-3.16Z" fill="#e41f1a"></path><path d="M111.47,86.66l11.22-.59.91,16.13c.22,4.37.25,7.96.24,12.18h.15c1.1-4.13,2.59-8.04,4.01-12.02l6.53-16.91,9.07-.48,1.74,15.93c.39,4.51.73,8.17.71,12.31h.23c1.01-4.29,2.12-8.17,3.43-12.7l5.64-16.16,11.14-.59-16.33,39.08-10.38.55-1.76-13.19c-.51-4.04-.7-7.7-.94-12.22h-.15c-1.72,5.49-2.5,8.35-3.86,11.93l-5.67,14.13-10.45.55-5.49-37.92Z" fill="#0b0b0c"></path><path d="M169.57,83.52l11.23-.36.58,16.14c.13,4.37.09,7.96,0,12.18h.15c1.18-4.1,2.76-7.98,4.25-11.93l6.87-16.77,9.08-.29,1.42,15.96c.29,4.52.56,8.18.46,12.32h.23c1.1-4.26,2.29-8.12,3.69-12.62l5.97-16.04,11.15-.35-17.13,38.73-10.38.33-1.49-13.23c-.43-4.05-.55-7.71-.69-12.24h-.15c-1.83,5.45-2.67,8.29-4.1,11.85l-5.96,14.01-10.46.33-4.72-38.03Z" fill="#0b0b0c"></path><path d="M227.55,81.82l11.24-.03.11,16.15c.01,4.37-.14,7.96-.36,12.18h.15c1.3-4.06,2.98-7.89,4.59-11.8l7.35-16.56,9.08-.02.96,16c.16,4.53.33,8.19.1,12.33h.23c1.22-4.22,2.52-8.04,4.05-12.5l6.43-15.86,11.16-.03-18.23,38.21-10.39.02-1.11-13.26c-.32-4.06-.32-7.73-.34-12.25h-.15c-1.99,5.39-2.91,8.2-4.44,11.72l-6.36,13.83-10.47.02-3.63-38.15Z" fill="#0b0b0c"></path><path d="M287.86,120.88c-3.69-.05-6.12-2.81-6.07-6.56.06-4.29,3.18-7.92,7.57-7.86,3.77.05,6.35,2.82,6.3,6.8-.06,4.53-3.26,7.68-7.8,7.62Z" fill="#0b0b0c"></path><path d="M60.38,141.36l13.25-4.4-1.6,12.13,9.55-.54-1.44,10.11-9.45.53-2.15,15.26c-.27,1.75-.5,4.13-.41,5.68.12,2.18,1.12,3.68,4.03,3.51,1.09-.06,2.45-.14,3.54-.38l-.87,10.35c-1.69.73-4.94,1.28-7.67,1.44-7.91.45-11.86-3.34-12.18-8.98-.13-2.36,0-4.83.53-8.33l2.37-17.83-5.64.32,1.25-10.1,5.73-.32,1.16-8.46Z" fill="#0b0b0c"></path><path d="M97.01,192.47l-13.09.65,6.24-44.89,13.1-.65-6.24,44.89ZM98.15,142.27h-.18c-3.64.19-6.4-2.22-6.59-6.04-.22-4.46,3.17-7.63,7.18-7.83,3.91-.19,6.76,2.22,6.96,6.13.23,4.64-3.18,7.54-7.36,7.75Z" fill="#0b0b0c"></path><path d="M145.24,206.37l-13.1.56,4.32-24.7h-.18c-3.15,5.15-8.32,7.84-13.42,8.06-8.19.35-14.02-6.14-14.46-16.24-.61-14.19,8.56-30.08,29.02-30.95,6.46-.28,12.16.94,16.58,1.93l-8.77,61.34ZM138.14,166.12l1.76-12.2c-1.21-.5-2.95-.79-5.13-.69-8.01.34-13.14,10.22-12.78,18.59.22,5.18,2.61,7.82,5.89,7.68,4.55-.19,9.07-5.31,10.27-13.38Z" fill="#0b0b0c"></path><path d="M191.19,140.43l12.99-.8-3.78,30.34c-.74,5.7-1.17,10.56-1.47,14.59l-11.54.71.37-7.23-.19-.08c-4.18,6.1-9.39,8.88-14.75,9.21-7.18.44-11.7-3.29-12.22-11.74-.15-2.36-.04-5.11.4-8.24l3.19-25.1,13.09-.81-3.07,24.09c-.23,2.11-.37,4.31-.27,5.95.17,2.82,1.5,5.02,4.77,4.81,4.45-.28,8.67-5.92,9.85-14.84l2.63-20.87Z" fill="#0b0b0c"></path><path d="M244.82,171.71l1.15,9.44c-5.12,2.77-11.56,3.84-16.57,3.97-12.65.32-19.39-6.71-19.68-18.36-.34-13.56,9.13-27.92,25.24-28.32,9.01-.23,15.6,4.71,15.81,12.99.28,11.29-10.63,15.66-28.57,15.66.12,1.27.63,3.26,1.57,4.51,1.79,2.23,4.82,3.34,8.64,3.24,4.82-.12,8.89-1.32,12.4-3.14ZM238.49,151.65c-.05-2.18-1.91-3.69-4.92-3.61-6.1.15-9.52,5.34-10.33,9.46,10.29-.17,15.35-1.66,15.24-5.85Z" fill="#0b0b0c"></path><path d="M322.28,171.61l.98,9.46c-5.17,2.68-11.63,3.64-16.64,3.68-12.65.1-19.26-7.05-19.35-18.7-.1-13.57,9.63-27.75,25.74-27.87,9.01-.07,15.52,4.98,15.58,13.27.08,11.29-10.9,15.47-28.84,15.15.1,1.27.57,3.27,1.49,4.54,1.75,2.26,4.76,3.42,8.58,3.4,4.83-.04,8.91-1.16,12.45-2.92ZM316.3,151.44c-.02-2.18-1.85-3.72-4.85-3.7-6.1.04-9.61,5.17-10.49,9.27,10.29.01,15.38-1.39,15.35-5.58Z" fill="#0b0b0c"></path><path d="M328.28,181.12l3.24-9.18c2.54,1.29,7.27,3.13,11.55,3.16,3.73.02,5.65-1.79,5.67-3.97.01-2.19-1.44-3.74-5.52-5.77-5.09-2.58-9.34-6.33-9.31-11.89.05-9.29,8.19-15.34,19.66-15.28,5.19.03,9.28,1.14,11.46,2.34l-3.24,9.27c-1.82-.83-5-1.94-8.82-1.96-3.55-.02-5.83,1.42-5.85,3.88,0,1.82,1.8,3.38,5.34,5.13,4.9,2.49,9.98,6.06,9.95,12.26-.06,10.2-8.74,15.7-20.57,15.55-5.65-.12-10.92-1.61-13.55-3.53Z" fill="#0b0b0c"></path><path d="M264.39,131.66l13.14-4.72-1.3,12.16,9.53-.77-1.19,10.14-9.44.76-1.78,15.31c-.22,1.75-.39,4.14-.27,5.68.18,2.18,1.21,3.65,4.11,3.41,1.09-.09,2.45-.2,3.52-.47l-.62,10.37c-1.67.77-4.91,1.4-7.63,1.62-7.9.64-11.94-3.05-12.39-8.68-.19-2.36-.12-4.83.33-8.34l1.93-17.88-5.63.46,1.01-10.13,5.72-.46.96-8.48Z" fill="#0b0b0c"></path></svg>