<?xml version="1.0" encoding="UTF-8" standalone="yes"?><svg xmlns="http://www.w3.org/2000/svg" baseProfile="tiny-ps" version="1.2" viewBox="0 0 400 400"><title>PriceTravel</title><rect width="400" height="400" fill="#fff"></rect><g><path d="M200.1,111.55l-74.21-61.73c-7.55-7.45-19.81-7.45-27.36,0-7.55,7.45-7.55,19.54,0,27l76.06,75.06c14.05,13.85,36.9,13.85,50.96,0l75.93-74.92c3.78-3.73,5.67-8.61,5.67-13.5s-1.89-9.77-5.67-13.5c-7.55-7.45-19.8-7.45-27.36,0l-74.02,61.59Z" fill="#54c2f0" fill-rule="evenodd"></path><path d="M199.9,288.09l74.21,61.73c7.55,7.45,19.81,7.45,27.36,0,7.55-7.45,7.55-19.54,0-27l-76.06-75.06c-14.05-13.85-36.9-13.85-50.96,0l-75.93,74.92c-3.78,3.73-5.67,8.61-5.67,13.5s1.89,9.77,5.67,13.49c7.55,7.45,19.8,7.45,27.35,0l74.02-61.59Z" fill="#f9af10" fill-rule="evenodd"></path><path d="M117.33,199.87l-61.72,70.43c-7.45,7.17-7.49,18.82-.09,26.03,7.41,7.21,19.44,7.25,26.9.09l75.01-72.15c13.84-13.33,13.91-35.07.16-48.49l-74.41-72.46c-3.71-3.61-8.56-5.42-13.43-5.43-4.87-.01-9.74,1.77-13.46,5.35-7.45,7.16-7.49,18.82-.09,26.03l61.14,70.61Z" fill="#e60f75" fill-rule="evenodd"></path><path d="M282.67,199.87l61.72,70.43c7.45,7.17,7.49,18.82.09,26.03-7.4,7.21-19.44,7.25-26.89.09l-75.01-72.15c-13.84-13.33-13.91-35.07-.16-48.49l74.41-72.46c3.71-3.61,8.56-5.42,13.43-5.43,4.87-.01,9.74,1.77,13.46,5.35,7.45,7.16,7.49,18.82.09,26.03l-61.14,70.61Z" fill="#5c4897" fill-rule="evenodd"></path></g></svg>