<?xml version="1.0" encoding="UTF-8" standalone="yes"?>
<svg version="1.2" baseProfile="tiny-ps" viewBox="0 0 113.4 113.4" xml:space="preserve" xmlns="http://www.w3.org/2000/svg">
  <title>bimi-svg-tiny-12-ps</title>
  <rect y="0" fill="#FFFFFF" width="113.4" height="113.4"/>
  <path fill="#1D1D1B" d="M55.5,59.7c8.6,0,9.5-8.2,9.5-15s-3.3-12-10.1-12S45,38.4,45,44.9C45,51.8,47.1,59.7,55.5,59.7 M87.6,70.4&#xD;&#xA;&#x9;c0,12.1-3.2,29.1-31.6,29.1c-14.4,0-29.6-3.9-31.8-20.3h23c0.2,0.6,0.8,1.4,1.3,2.1c1.4,2.1,3.9,4.5,6.8,4.5c7.5,0,9.1-8.9,9.1-13.9&#xD;&#xA;&#x9;v-5.6h-0.2c-3.7,5.4-9.4,8.4-16.3,8.4c-17.9,0-26-13.4-26-29.6s9-29.1,26.4-29.1c6.8,0,13.2,2.7,15.9,8.9h0.2v-7.4h23.2V70.4&#xD;&#xA;&#x9;L87.6,70.4z"/>
</svg>