<?xml version="1.0" encoding="utf-8"?>
<!-- Generator: Adobe Illustrator 27.7.0, SVG Export Plug-In . SVG Version: 6.00 Build 0)  -->
<svg version="1.2" baseProfile="tiny-ps" id="a" xmlns="http://www.w3.org/2000/svg" xmlns:xlink="http://www.w3.org/1999/xlink" viewBox="0 0 600 600" xml:space="preserve">
<title>Ruff Wear, Inc.</title>
<rect fill="#FFFFFF" width="600" height="600"/>
<path fill="#F5A800" d="M104,99v402h392V99H104z"/>
<g>
	<g>
		<g>
			<g>
				<g>
					<path fill="#FFFFFF" d="M224.1,136c-1.9-0.1-41,15.3-39.7,14.5c0,0,4,31,8.8,36.6c0.7,1.9,6,46.1,9.1,44.6
						c-0.5-0.6,9.9-4.8,10.6-5.5l2.1,3.6c-1,7.6-3.9,12.3-6.1,20c-1.5,3.7-6,41-4.1,45.4c0.8,3.4-1.4,62.6-0.1,61.5
						c0,0-30.3,33.3-30.8,35.9c-0.5,1.1-11,47.2-11,47.2s-13.7,50.7-15.7,62.1h295.1c-2.3-8.8-10.9-44.4-11-48.2
						c0-6.1-9.4-44.4-10.5-49.4c-1.2-8.7-43-51.7-43.2-53.2c0,0,15-63,17.7-66.4c0.3-0.3,21.8,25.7,21.8,25.7
						c2.4,0,51.4-58.6,51.1-77.6c0.3-7.8-34.5-30.9-44.9-37.5c-0.6-4.3-8.1-9.1-8.4-10.1c0,0-10.1-12.5-9.8-12.3
						c-5.9-0.1-9-5.3-14.5-6.4c-4.3-3.1-41-25.1-41-25.1s-21.2-7-24.1-6.7c-5-0.6-15.7,1.5-16.5,1c-9.7,3-16.7-6-26.1-7l-16.9-2.5
						C266.1,126.3,231.9,133.9,224.1,136"/>
					<path fill="#00263E" d="M288,418.9c-0.1,0-0.2,0-0.3-0.1c-0.5-0.1-0.8-0.7-0.7-1.2l1.8-6.8c1.7-7.7,3.6-22-2.5-31.4
						c-2.9-4.5-7.5-7.5-13.5-8.7c-22.1-4.6-37.6-17.6-42.5-25.3l-4.4-6.8c-0.5,0.1-1.1,0.3-1.8,0.3c-1.2,0-2.2-0.4-2.9-1.2
						c-1.2-1.3-1.7-3.4-1.5-6.5c0.4-8.2,2-18.2,2.4-20.5l-6.1-6.5c-0.3-0.4-4.9-7.6-1.6-25.5l0.5-2.5c0.6-3.5,1.1-6.1,1.4-7.9
						c0.4-2.7,0.8-4.5,0.8-4.5c0.1-0.5,0.5-1,1-1c0.3,0,0.6,0.1,0.8,0.4c0.2,0.2,0.2,0.3,0.2,0.9l0,0c0,0,0,0,0,0.1
						c-0.1,0.6-0.3,1.8-0.7,4.1v0.1c0,0.2,0,0.3-0.1,0.4c-2.1,14.1-1.2,24,2.3,26.4c1.2,0.9,2.4,1.3,3.4,1.3c3.5,0,4.9-5.3,5-5.4
						c0.1-0.5,0.6-0.8,1.2-0.7c0.5,0.1,0.8,0.6,0.7,1.1c-2.6,12.3-5.7,32.8-3.1,35.8c3.2,3.6,7.9,5.4,14.1,5.4
						c12.3,0,26.5-7.3,28.6-8.4l6.5-13c0.2-0.4,0.7-0.7,1.2-0.5s0.7,0.7,0.6,1.2l-4.2,16.8c1.1,1,4.4,4.1,10.7,11.3
						c7,8,15.7,16.5,27.1,18.7c1.6,0.3,3.3,0.5,5,0.5c15.9,0,30.7-14.2,40.4-24.8c1.5-1.6,6.9-7.5,10.9-17.6
						c4.7-11.9,6.1-24.3,5.6-36.3c0-0.5,0.4-1,0.9-1c0.6-0.1,1,0.3,1,0.9c1.4,12.4-0.5,22.6-4.8,37.2c-3.7,10.6-8.8,17.3-10.4,19.7
						c-6.7,9.9-24.3,33.1-43.3,36c-8.8,1.3-14.5,2-17.1,2.2l-9.5,35.7c-0.9,4.1-1.8,6.8-1.8,6.9C288.8,418.6,288.4,418.9,288,418.9z
						 M244.2,343.8c0.7,2.7,4.3,12.9,17.8,17.8c5.4,1.9,11,2.9,16.8,2.9c5.6,0,9.8-0.9,11.7-1.4c-5.9-11.8-16.3-29.5-20.8-29.8
						C264,332.9,247.6,341.9,244.2,343.8z"/>
					<path fill="#00263E" d="M267.4,435.7c-0.9-0.1-22.3-1.8-32.2-5.3c-7.3-2.6-27.8-14.9-35.5-30.2c-5.2-10.4-8.7-24.6-8.8-25.2
						l-0.2-0.7l8.5-7l0.3,2c0,0.2,2.9,16.1,9.1,25.1c6.5,9.5,22.7,24.3,29.2,27.5c6.8,3.4,29.8,11.5,30.1,11.6L267.4,435.7z"/>
					<path fill="#00263E" d="M315.8,432.3l-0.4-2.3c0.2-0.1,20.6-7.2,30.1-11.6c12.4-5.8,23.6-17.9,29.1-27.4
						c7.2-12.4,9.1-25,9.1-25.2l0.3-2l8.5,7l-0.2,0.7c-0.1,0.6-3.6,14.8-8.8,25.2c-5.4,10.7-23.3,26.2-35,30.2
						C335.7,431.3,316.6,432.2,315.8,432.3z"/>
					<g>
						<path fill="#00263E" d="M362.4,213.8c-1.6-0.7-8.9-6-14.8-6c-0.5,0-1,0.1-1.5,0.1c-4.8,0.8-10.5,6.5-11.6,7.5
							c-0.8,0.7-1.2-0.1-1.2-0.4c0-0.5,4.1-11.7,10.6-13.7c0.7-0.2,1.5-0.3,2.3-0.3c7.6,0,15.9,10.3,17,12
							C364,214.1,362.6,213.9,362.4,213.8z"/>
					</g>
					<path fill="#00263E" d="M393.4,285.3c-4.2,11.3-11.5,38.8-16.4,56.5c-0.7,2.7-1.1,3.2-1.1,3.2c-0.4,2.6-0.6,4.8-0.6,6.8
						c0,7.5,3.1,10.5,8.6,15l2.5,2.1l5.2,4.1c5.2,4,9.6,7.4,14,15.5l1.1,2.1c6.6,12.2,19,34.8,20.6,54.9
						c1.2,15.4,7.3,42.3,10.4,54.1l-286.1,0.2c3.3-12.4,10.4-39.5,14.3-55.5c3-12.4,4.5-15.6,5.7-18.1c1-2.1,1.9-4.1,3.2-9.4
						c0.9-3.7,0.9-6.9,0.9-9.7c0.1-6.6,0.1-11.8,10.4-22l8.3-7.9c8.6-8,13.9-12.8,16.2-25.7c0.7-3.5,0.7-8.2,0.7-8.2
						c-0.2-4.3-0.8-10.4-1.5-16.3l-1-9.6c-0.7-8.7-2-35.4-1.7-41.8c0.2-5.8,10.5-48.6,12.5-56.8c0,0,0.2-1.3,0.6-1.7
						c0.7-0.8,1.5-1.8,2.6-3c2.2-2.4,4.9-5.4,8-10l0.5-0.7c6.9-10.5,14.3-22.2,16.2-31.7c0.2-0.9,0.6-4.4-2.4-5.4
						c-0.5-0.2-0.4-0.2-0.9-0.1c-1.6,0.2-3.8,2.1-3.9,3.8c-0.6,7.7-9.9,20.7-15.4,29.1l-0.5,0.8c-2.7,4.1-5.1,6.7-7.2,9.1
						c-3.2,3.6-6,6.6-6.7,12c-0.3,2.1-3.3,5.4-6.2,7.8c-0.5-3.7-1.6-8.5-3.1-14.7c-1.6-6.7-3.3-13.6-3.3-17.4c0-9.8-4.8-22.4-7.7-30
						l-0.5-1.4c-0.9-2.4-1.2-5.7-1.2-8.6c0-1.9,0.1-3.5,0.3-4.9c11-4,61.6-21.8,79.5-19.9c20,2.1,29.8,7.8,30,7.8l1.4,0.8l1.6-0.4
						c0.2-0.1,20.2-5.5,41.7,4.4c22.7,10.4,56.1,31,56.5,31.2l5.9,3.6v-2.2c0.1,0.1,0.2,0.2,0.3,0.3c6.2,6.2,12,20.6,12,20.7
						l0.5,1.3l1.3,0.7c15.6,8.2,41.1,24.3,43.2,32.5c0.3,1.2,0.5,2.6,0.5,4c0,10.4-8.5,24.5-15.8,31.8c-8.1,8.1-27.3,34.2-28.1,35.4
						c-0.3,0.4-1.4,1.5-2.4,1.6c-1.3,0.1-2.7-1.2-3.4-2c-7-7.3-14.2-16.2-11.9-29.3c1-5.8,3.8-13.9,6.6-21.8
						c4.6-13.2,7-22.2,6.8-27.9c-0.1-2.2-2.2-1.9-3-1.7c-0.6,0.2-1.7,0.9-2.3,1.1c-1.7,0.9-2.1,3-2.3,4.2
						c-0.8,5.2-4.2,15.2-6.4,21.7c-2.8,8.2-5.8,16.6-6.9,23c-0.7,3.9-0.5,7.5-0.2,10.9C393.6,284.3,393.4,285.3,393.4,285.3
						 M395.9,291.8c3.3,7.5,8.4,13.1,11.7,16.4c3.8,3.9,7.3,4.5,9.6,4.3c4.9-0.4,7.8-4.4,8.1-4.8c0.1-0.2,19.6-26.7,27.3-34.3
						c6.5-6.5,18-22.9,18-37.2c0-2-0.2-4-0.7-5.9c-3.5-13.2-36.6-31.7-45.9-36.6c-1.7-3.9-7-15.8-13.2-22c-3.1-3.1-6.7-6-10.2-4.5
						l0,0c-8.5-5.1-35-21.1-54.6-30c-20.8-9.6-40-6.4-45.5-5.1c-3.5-1.8-13.8-6.2-31.5-8.1c-21.9-2.4-82.6,20.1-85.2,21.1l-2.1,0.8
						l-0.4,2.2c-0.1,0.5-1.9,11.8,1.1,19.7l0.6,1.4c2.7,7.1,7.2,18.9,7.2,27.3c0,4.8,1.7,11.8,3.5,19.2c1.5,6,3.7,15,3,17.1l0.1-0.3
						c-1.6,2.6-0.6,4.5,0,5.2c0.4,0.5,1.9,2.2,4.7,1.4c1.9-0.5,6.1-3.2,9.8-6.7c0.6-0.5,0.7-0.1,0.7-0.1
						c-4.1,11.8-9.2,27.2-10.8,35.6c-2.1,10.9-0.7,23.6,0.4,34.8l0.4,3.6c1,9.8,1,34.6,0.9,41.2c0,0,0.1,5.5-1.7,8.8
						c-2.2,5.8-6,9.3-12.2,15l-8.5,8.1c-12.5,12.5-12.6,20.1-12.7,27.4c0,2.7-0.1,5.2-0.7,8.1c-1,4.5-1.7,5.9-2.6,7.8
						c-1.4,2.9-3.1,6.5-6.2,19.6c-5.3,21.8-14.5,57.5-14.6,58l-1.3,3.6h305.9l-1.4-4.5c-0.1-0.4-10.1-33.2-11.9-54.7
						c-1.7-21.7-14.6-45.2-21.5-57.9l-1.1-2c-5.1-9.5-10.7-13.8-16.1-17.9l-4.8-3.9l-2.6-2.2c-5.6-4.6-6.8-5.6-5.3-14.7
						c0,0-0.2,0.9,0.7-3.7c3.6-18.6,8.6-37.8,11-49.9C395.2,292.7,395.5,290.9,395.9,291.8"/>
					<g>
						<path fill="#00263E" d="M350.7,251.4c-0.7,0-1.5-0.1-2.3-0.3c-0.3-0.1-2.2-0.7-3-1c-4.9-2.1-7.9-6.4-7.9-11.3
							c0-2.9,1.1-5.8,3-8c0.3-0.3,0.9-1.2,0.9-1.2c1.7-1.8,4-3.7,7.8-3.8c6.9-0.3,10,3.3,13.6,7.5c0.7,0.9,1.5,1.7,2.3,2.6
							c3.2,3.5,6.6,9.8,6.8,10.1l1.6,3.1l-13.4-7.3c-0.9,2.4-3.3,7.8-7,9.1C352.4,251.3,351.5,251.4,350.7,251.4z"/>
					</g>
					<g>
						<path fill="#00263E" d="M273.2,225.4c-2.8,0-5.5-1-7.7-2.8c-1.9-1.6-3.6-4.6-3.7-4.7c-0.7-1.4-1.2-2.8-1.3-4.4
							c-0.2-2.2,0.8-4.9,1.5-6.6l-16.9-0.9l2.7-1.7c0.4-0.2,8.9-5.7,19-5.7c4.5,0,8.6,1.1,12.2,3.2c3.1,1.8,5.1,4.3,5.8,7.1
							c0,0.1,0.5,2.5,0.4,4.7C284.9,220.2,279.7,225.4,273.2,225.4z"/>
					</g>
					<path fill="#00263E" d="M301,306.9c5.3,1.5,4.4-3.9,6.3-7.8c1.9-4,1.5-3.8,1.4-6.3c-0.3-8.9-17.8-8.4-20.6-9.8
						c-2.2-1.1-13-10.6-17.3-7.8c-2.8,1.9-2.8,5.5-4.9,8.7c-2.3,3.4-2.2,7.3-0.7,9.7c0,0,0.3,0.5,0.4,0c0.5-2.2,2.5-3.9,4.8-3.9
						c1.7,0,3.2,0.9,4.1,2.2c0,0,1,1,1.7,4.7c0.5,2.8-2.4,6.1,1.9,8.7c7,4.3,9.8-0.9,13-3.7c0,0,2.2-2.6,4.5-3.1
						c0.5-0.1,0.9-0.2,1.4-0.2c2.7,0,4.9,2.2,4.9,4.9c0,1.1-0.4,2.2-1,3C300.9,306.4,300.4,306.8,301,306.9"/>
				</g>
			</g>
		</g>
	</g>
	<path fill="#00263E" d="M275.7,477.2c-0.4,0-0.8-0.1-1.2-0.4c-0.8-0.5-1-1.5-0.7-2.4l4-14.2L265.5,449c-0.8-0.5-1.1-1.5-0.8-2.4
		c0.3-0.9,1.1-1.4,2.1-1.4l16.6,0.1l5-15.8c0.2-0.9,1-1.5,2-1.5c0.9,0,1.7,0.6,2,1.5l5.5,15.5l16.1,0.2c0.9,0,1.8,0.5,2,1.4
		c0.3,0.9,0,1.8-0.8,2.4l-12.7,11.1l4.4,14.2c0.3,0.9,0,1.8-0.7,2.4c-0.7,0.5-1.8,0.5-2.5-0.1l-13.2-7.9l-13.5,7.9
		C276.6,477,276.2,477.2,275.7,477.2z M290.3,461.2c0.5,0,0.9,0.2,1.3,0.5l8.7,7l-4-10.5c-0.3-0.9,0-1.9,0.8-2.5l9.4-6.1l-11.2,0.6
		c-0.9,0-1.8-0.6-2.1-1.5l-2.9-10.8l-2.9,10.8c-0.3,0.9-1.1,1.6-2.1,1.5l-11.2-0.6l9.4,6.1c0.8,0.5,1.1,1.6,0.8,2.5l-4,10.5l8.7-7
		C289.4,461.4,289.9,461.2,290.3,461.2z"/>
	<path fill="#00263E" d="M500.5,505.2h-401V94.8h400.9v410.4H500.5z M109,495.7h382V104.3H109V495.7z"/>
</g>
</svg>
