<?xml version="1.0" encoding="UTF-8" standalone="yes"?>
<svg version="1.2" width="450.000000pt" height="450.000000pt" viewBox="0 0 450.000000 450.000000" preserveAspectRatio="xMidYMid meet" baseProfile="tiny-ps" xmlns="http://www.w3.org/2000/svg">
  <title>bimi-svg-tiny-12-ps</title>
  <g transform="translate(0.000000,450.000000) scale(0.050000,-0.050000)" fill="#1566a5" stroke="none">
    <path d="M0 6785 l0 -2215 2210 2210 c1216 1215 2210 2212 2210 2215 0 3 -994 5 -2210 5 l-2210 0 0 -2215z"/>
    <path d="M2225 6775 l-2226 -2226 6 -385 5 -384 2610 2610 2610 2610 -390 0 -390 0 -2225 -2225z"/>
    <path d="M2635 6365 l-2635 -2635 1 -390 0 -390 2162 2170 c1188 1194 2545 2555 3014 3025 l853 855 -380 0 -380 0 -2635 -2635z"/>
    <path d="M5560 8480 c-280 -284 -1646 -1654 -3035 -3044 l-2526 -2527 6 -365 5 -364 3410 3410 3410 3410 -380 -2 -380 -2 -510 -516z"/>
    <path d="M3453 5538 l-3453 -3462 0 -353 0 -353 3810 3810 c2096 2095 3810 3812 3810 3815 0 3 -161 5 -357 5 l-358 0 -3452 -3462z"/>
    <path d="M3868 5128 l-3858 -3873 -5 -342 -5 -343 2483 2490 c1366 1370 2707 2715 2981 2991 l497 501 50 198 c188 763 879 1415 1651 1560 59 11 134 75 410 352 l338 338 -343 0 -342 0 -3857 -3872z"/>
    <path d="M8254 8684 l-315 -316 310 0 310 -1 221 223 c217 220 220 225 220 317 l0 93 -215 0 -215 0 -316 -316z"/>
    <path d="M8864 8454 c-124 -126 -124 -126 -29 -140 41 -7 95 -18 120 -25 44 -13 45 -10 45 129 0 170 -3 171 -136 36z"/>
    <path d="M7870 8007 c-575 -123 -1008 -619 -1043 -1197 l-11 -180 702 700 c386 385 702 702 702 705 0 16 -231 -3 -350 -28z"/>
    <path d="M7643 7234 l-807 -809 34 -117 c18 -64 52 -153 74 -196 l41 -80 959 969 959 968 -97 25 c-53 14 -154 31 -226 37 l-130 12 -807 -809z"/>
    <path d="M8045 6755 l-926 -926 131 -129 131 -130 809 811 810 810 0 245 c0 134 -7 244 -15 244 -8 0 -431 -416 -940 -925z"/>
    <path d="M8242 6209 l-726 -730 47 -36 c66 -50 313 -203 328 -203 7 0 259 247 561 549 l548 549 0 301 c0 165 -7 301 -16 301 -8 0 -342 -329 -742 -731z"/>
    <path d="M2965 3395 l-2965 -2965 0 -215 0 -215 96 0 95 0 2880 2881 c1583 1585 2881 2883 2882 2885 2 2 -2 137 -10 299 l-13 295 -2965 -2965z"/>
    <path d="M8480 5670 c-392 -393 -484 -495 -460 -511 17 -10 116 -64 222 -118 l191 -99 285 286 284 287 -3 322 c-1 178 -9 323 -16 323 -7 0 -234 -221 -503 -490z"/>
    <path d="M3217 2794 l-2773 -2784 253 -6 252 -5 2595 2595 2595 2596 -65 195 c-35 107 -68 194 -74 193 -5 0 -1258 -1253 -2783 -2784z"/>
    <path d="M8741 5131 l-229 -230 199 -90 c109 -50 215 -100 234 -111 19 -11 39 -20 45 -20 5 0 10 153 10 340 0 187 -7 340 -15 340 -9 0 -119 -103 -244 -229z"/>
    <path d="M3770 2480 l-2480 -2480 264 0 263 0 2317 2322 c1274 1276 2316 2329 2316 2338 0 21 -176 297 -190 299 -6 0 -1126 -1115 -2490 -2479z"/>
    <path d="M4300 2257 l-2250 -2257 310 0 310 0 1605 1605 1605 1605 0 145 0 145 145 0 145 0 369 369 369 369 -59 46 c-33 25 -105 88 -161 141 -56 52 -110 94 -120 92 -10 -2 -1030 -1019 -2268 -2260z"/>
    <path d="M6614 3804 c-261 -262 -374 -388 -374 -419 0 -37 54 -260 112 -462 12 -43 62 1 531 470 536 536 540 540 482 561 -31 12 -231 130 -336 198 -38 25 -67 1 -415 -348z"/>
    <path d="M6942 3332 l-548 -548 35 -107 c50 -156 153 -397 168 -397 32 0 1371 1365 1348 1374 -14 5 -121 58 -237 118 -117 59 -214 108 -215 108 -2 0 -250 -247 -551 -548z"/>
    <path d="M7345 2942 c-371 -372 -688 -691 -702 -708 -28 -34 201 -494 245 -494 10 0 1623 1624 1628 1638 3 10 -19 27 -50 38 -31 11 -143 61 -250 111 l-195 91 -676 -676z"/>
    <path d="M7726 2535 l-824 -825 96 -120 c435 -546 1021 -830 1729 -837 l263 -3 0 1219 0 1218 -198 87 c-109 47 -208 86 -220 86 -12 0 -393 -371 -846 -825z"/>
    <path d="M4341 1530 l-1527 -1530 347 0 346 0 1186 1195 1186 1195 1 335 c0 184 -3 335 -6 335 -3 0 -693 -688 -1533 -1530z"/>
    <path d="M4740 1130 l-1130 -1130 360 0 360 0 776 776 775 775 -6 355 -5 354 -1130 -1130z"/>
    <path d="M6444 1375 c-80 -156 -80 -167 1 -86 136 137 143 148 115 181 -38 46 -47 39 -116 -95z"/>
    <path d="M5140 730 l-730 -730 381 0 381 0 354 360 355 360 -6 370 -5 370 -730 -730z"/>
    <path d="M6457 1265 c-133 -138 -187 -263 -232 -539 l-11 -69 -177 7 -178 6 -334 -335 -335 -335 1905 0 1905 0 0 200 0 200 -55 0 c-820 5 -1578 297 -2134 823 -223 212 -194 208 -354 42z"/>
  </g>
</svg>