<?xml version="1.0" encoding="UTF-8" standalone="yes"?>
<svg version="1.2" baseProfile="tiny-ps" viewBox="0 0 1100 1100" xml:space="preserve" xmlns="http://www.w3.org/2000/svg">
  <title>SOTEC GmbH and Co KG</title>
  <rect fill="#FFFFFF" width="1100" height="1100"/>
  <path fill="#003366" d="M262,681.8h157.5c5.3,0,9.5-4.3,9.5-9.5V437.8c0-5.3-4.3-9.5-9.5-9.5H262c-5.3,0-9.5,4.3-9.5,9.5v234.4&#xA;&#x9;C252.4,677.5,256.7,681.8,262,681.8z M299.7,466.1h56c5.3,0,9.5,4.3,9.5,9.5v28.1c0,4.3,1.8,8.5,4.9,11.5l16.5,15.9&#xA;&#x9;c3.1,3,4.9,7.1,4.9,11.5v91.6c0,5.3-4.3,9.5-9.5,9.5h-82.3c-5.3,0-9.5-4.3-9.5-9.5V475.6C290.2,470.3,294.5,466.1,299.7,466.1z"/>
  <path fill="#003366" d="M473.9,465.9h44.6c5.3,0,9.5,4.3,9.5,9.5V672c0,5.3,4.3,9.5,9.5,9.5h44.2c5.3,0,9.5-4.3,9.5-9.5V542.2&#xA;&#x9;c0-4.2-1.7-8.2-4.7-11.2l-16-16c-3-3-4.7-7-4.7-11.2v-28.3c0-5.3,4.3-9.5,9.5-9.5H632c5.3,0,9.5-4.3,9.5-9.5V438&#xA;&#x9;c0-5.3-4.3-9.5-9.5-9.5H473.9c-5.3,0-9.5,4.3-9.5,9.5v18.3C464.3,461.6,468.6,465.9,473.9,465.9z"/>
  <path fill="#003366" d="M692.4,681.6h145.4c5.3,0,9.5-4.3,9.5-9.5V653c0-5.3-4.3-9.5-9.5-9.5h-82.1c-5.3,0-9.5-4.3-9.5-9.5v-56.9&#xA;&#x9;c0-5.3,4.3-9.5,9.5-9.5h56.8c5.3,0,9.5-4.3,9.5-9.5V539c0-5.3-4.3-9.5-9.5-9.5h-82.1c-5.3,0-9.5-4.3-9.5-9.5v-44&#xA;&#x9;c0-5.3,4.3-9.5,9.5-9.5h107.5c5.3,0,9.5-4.3,9.5-9.5v-19c0-5.3-4.3-9.5-9.5-9.5H692.4c-5.3,0-9.5,4.3-9.5,9.5v234&#xA;&#x9;C682.9,677.3,687.2,681.6,692.4,681.6z"/>
  <path fill="#003366" d="M47,567.9h82.1c5.3,0,9.6,4.3,9.6,9.5v56.2c0,5.3-4.3,9.5-9.6,9.5H84.7c-5.3,0-9.6-4.3-9.6-9.5v-5.9&#xA;&#x9;c0-5.3-4.3-9.5-9.6-9.5H47c-5.3,0-9.5,4.3-9.5,9.5v44.2c0,5.3,4.3,9.5,9.5,9.5h145.4c5.3,0,9.6-4.3,9.6-9.5V539.2&#xA;&#x9;c0-5.3-4.3-9.5-9.6-9.5H84.7c-5.3,0-9.6-4.3-9.6-9.5v-44c0-5.3,4.3-9.5,9.6-9.5h69.8c5.3,0,9.6,4.3,9.6,9.5v6.1&#xA;&#x9;c0,5.3,4.3,9.5,9.6,9.5h18.8c5.3,0,9.6-4.3,9.6-9.5v-44.1c0-5.3-4.3-9.5-9.6-9.5H47c-5.3,0-9.5,4.3-9.5,9.5v120.2&#xA;&#x9;C37.5,563.6,41.8,567.9,47,567.9z"/>
  <path fill="#003366" d="M1062.5,482.4v-44.6c0-5.3-4.3-9.5-9.6-9.5H907.5c-5.3,0-9.5,4.3-9.5,9.5v234.4c0,5.3,4.3,9.5,9.5,9.5H1053&#xA;&#x9;c5.3,0,9.6-4.3,9.6-9.5v-44.7c0-5.3-4.3-9.5-9.6-9.5h-18.9c-5.3,0-9.6,4.3-9.6,9.5v6.6c0,5.3-4.3,9.5-9.5,9.5h-44.2&#xA;&#x9;c-5.3,0-9.5-4.3-9.5-9.5v-91.9c0-4.2-1.7-8.3-4.7-11.2l-16-16c-3-3-4.7-7-4.7-11.2v-27.6c0-5.3,4.3-9.5,9.5-9.5h69.5&#xA;&#x9;c5.3,0,9.6,4.3,9.6,9.5v6.2c0,5.3,4.3,9.5,9.6,9.5h18.9C1058.2,491.9,1062.5,487.6,1062.5,482.4z"/>
</svg>