<?xml version="1.0" encoding="UTF-8"?>
<svg xmlns="http://www.w3.org/2000/svg" version="1.2" width="96" height="96" viewBox="0 0 96 96" fill="white"
    baseProfile="tiny-ps">
    <title>Formlabs</title>
    <path fill-rule="evenodd"
        d="M87.9986 30.0552C87.1834 32.7714 85.29 34.8767 83.779 37.1915C80.0276 42.9347 76.199 48.6255 72.4025 54.3408C72.3229 54.463 72.2646 54.5957 72.1655 54.7807C73.4276 55.6326 74.696 56.4391 75.9057 57.3294C76.4186 57.7065 76.9304 58.1848 77.2258 58.7294C77.9614 60.091 77.5117 61.6761 76.2859 62.6781C71.935 66.2358 67.5398 69.741 63.2717 73.393C61.0072 75.3307 58.3014 74.2309 57.5019 71.8533C54.4491 62.7759 51.2737 53.7368 48.1424 44.6838C48.09 44.5337 48.0198 44.3836 47.8931 44.0833C47.6564 44.7397 47.4637 45.2529 47.2853 45.7731C44.3435 54.3129 41.4027 62.8527 38.4627 71.3959C38.3607 71.6927 38.2759 71.9964 38.1645 72.2897C37.3483 74.4473 34.7944 75.1561 32.9838 73.7072C31.1955 72.2757 29.4345 70.8129 27.6598 69.364C25.0326 67.2168 22.4169 65.0557 19.7743 62.926C17.639 61.2048 17.7281 58.8097 20.017 57.2735C21.3168 56.3972 22.6124 55.5209 23.9681 54.6062C23.4573 53.8451 22.9804 53.1293 22.4955 52.4206C17.9676 45.7941 13.4575 39.1606 8.90097 32.555C7.26319 30.1844 7.85392 26.295 10.7088 24.8566C12.2813 24.0641 13.7745 23.1214 15.3219 22.28C17.1059 21.3094 18.9008 21.3164 20.6604 22.3603C29.5001 27.5903 38.3405 32.8238 47.169 38.0713C47.6892 38.382 48.0586 38.4099 48.6018 38.0852C57.3801 32.8343 66.1733 27.6078 74.9655 22.3813C76.8463 21.2641 78.7396 21.2501 80.6466 22.3429C82.1004 23.1773 83.5465 24.0292 85.0397 24.7903C86.5878 25.5793 87.315 26.9305 87.861 28.4457C87.9169 28.5993 87.9543 28.7599 88 28.917C87.9986 29.2941 87.9986 29.6746 87.9986 30.0552ZM83.139 32.2062C83.1114 32.1643 83.0838 32.1259 83.0573 32.084C72.6961 35.0865 62.3345 38.0891 51.8079 41.1405C57.7668 45.1101 63.5935 48.989 69.4705 52.9027C74.0567 45.9585 78.5971 39.0806 83.139 32.2062ZM44.2088 41.1019C33.7897 38.068 23.5391 35.0794 13.29 32.0908C13.2652 32.1362 13.2415 32.1781 13.217 32.22C17.8535 39.0036 22.4896 45.7873 27.1575 52.6198C32.8379 48.7828 38.4534 44.9913 44.2088 41.1019ZM35.2259 70.7754C37.5193 64.0721 39.7817 57.463 42.043 50.8574C41.8192 50.9482 41.688 51.0809 41.5794 51.231C39.3935 54.237 37.2093 57.2465 35.0244 60.2526C34.7266 60.6645 34.4407 61.0835 34.1212 61.478C32.7439 63.1748 30.1034 63.105 28.8381 61.3244C27.9583 60.0885 27.1148 58.8281 26.2148 57.5189C24.886 58.4161 23.6012 59.282 22.2581 60.1897C26.6023 63.7334 30.8687 67.2178 35.2259 70.7754ZM12.3225 28.1563C19.7733 30.3384 27.0744 32.4751 34.3744 34.6153C34.3129 34.4337 34.2166 34.329 34.0982 34.2591C29.0812 31.2776 24.0638 28.2995 19.0405 25.3318C18.4637 24.9897 17.8639 25.0316 17.2816 25.3598C16.0984 26.0266 14.9124 26.69 13.7299 27.3533C13.3085 27.5907 12.8905 27.8316 12.3225 28.1563ZM38.5901 49.3562C38.5482 49.3143 38.5059 49.2724 38.4637 49.2305C35.37 51.3218 32.2764 53.4131 29.1394 55.5323C29.9742 56.7403 30.752 57.868 31.5652 59.0446C33.9623 55.7383 36.2764 52.5472 38.5901 49.3562Z"
        fill="black"></path>
</svg>