<?xml version="1.0" encoding="utf-8"?>
<svg version="1.2" baseProfile="tiny-ps" id="Layer_1" xmlns="http://www.w3.org/2000/svg" xmlns:xlink="http://www.w3.org/1999/xlink"
	viewBox="0 0 700 700" xml:space="preserve">
	<title>Parachute Health</title>
<path fill="#5A007E" d="M355.6,289.6c-1.6-0.4-2.6,0.7-3.7,1.6c-38.3,26.3-69.4,59.2-93.5,98.9c-14,23-24.9,47.5-32.8,73.2
	c-0.8,2.6-1.6,3.8-4.7,3.8c-59.4-0.1-119-0.1-178.4-0.1c-0.5,0-0.9-0.1-1.1-0.1c0-7.5-0.5-14.9,0.1-22.2
	c2.1-28.1,7.7-55.6,17.1-82.1c20.6-57.8,54.8-106,103-144c38.4-30.4,81.8-50.3,129.8-59.8c32.1-6.4,64.5-7.2,97-3.4
	c48.9,5.7,94.1,21.2,135.6,47.8c16.4,10.5,31,22.8,45.3,35.8c0.7,0.7,1.4,1.7,2.1,2.5c-3.8,2.5-7.9,0.7-11.7,0.3
	c-57.9-5.5-113.5,2.3-166.3,27.7c-11.7,5.6-23,11.7-33.8,18.8C358.2,288.8,357.1,289.8,355.6,289.6L355.6,289.6z"/>
<path fill="#16B9A9" d="M355.6,289.6c5.6-5.2,12.5-8.6,19.2-12.3c36.2-20.2,74.8-32.7,116.1-36.8c26.3-2.6,54.4-2.2,80.6,0.9
	c0.7,0.1-0.7,0,0,0c13.6,13.1,24.5,28.1,34.4,44c25.6,40.9,41.8,85.5,49.3,133.1c2.5,15.8,3.9,31.7,3.9,47.7
	c-1.9,1.3-3.6,0.7-5.2,0.7c-55,0-109.9,0-164.9,0.1c-3.6,0-5.3-0.8-6.4-4.6c-17.6-57.5-48.4-106.6-93.1-146.9
	C378.7,305.8,367.2,297.6,355.6,289.6L355.6,289.6z"/>
</svg>
