<?xml version="1.0" encoding="UTF-8" standalone="yes"?>
<svg width="1080" height="1080" viewBox="0 0 1080 1080" fill="none" version="1.2" baseProfile="tiny-ps" xmlns="http://www.w3.org/2000/svg">
  <title>Baymard Institute</title>
  <g>
    <path fill-rule="evenodd" d="M255.845 131.884C255.845 131.884 400.939 85.1455 425.111 67.5C445.5 78.4704 445.5 78.4704 445.5 78.4704C445.5 78.4704 397.862 236.783 305.406 438.042L222.632 486L202.5 471.695C202.5 471.695 267.45 252.545 255.845 131.884" fill="#761E21"/>
    <path fill-rule="evenodd" d="M810 816.103C810 816.103 776.427 969.367 779.533 999.973C759.244 1012.5 759.244 1012.5 759.244 1012.5C759.244 1012.5 643.59 888.714 513 702.955L513.33 604.605L536.395 594C536.395 594 697.055 764.459 810 816.103" fill="#2C4161"/>
    <path fill-rule="evenodd" d="M734.066 324C734.066 324 848.997 431.099 876.779 443.867C877.5 467.953 877.5 467.953 877.5 467.953C877.5 467.953 713.753 506.416 489.331 526.5L405 476.404L407.424 450.816C407.424 450.816 633.551 396.658 734.066 324" fill="#576B33"/>
  </g>
  <defs/>
</svg>