<svg xmlns="http://www.w3.org/2000/svg" xmlns:xlink="http://www.w3.org/1999/xlink" version="1.2" viewBox="0 0 252 252" baseProfile="tiny-ps">
  <title>RD_Icon-Blue</title>
  <g>
    <g>
      <path d="M252-1.28V252H0V-1.28H252z" fill="#002848"/>
      <linearGradient id="SVGID_1_" gradientUnits="userSpaceOnUse" x1="44.9941" y1="125.73" x2="206.3657" y2="125.73">
        <stop offset="0" stop-color="#F6A322"/>
        <stop offset="1" stop-color="#ED7033"/>
      </linearGradient>
      <path d="M45,139.87c-0.215,14.829,5.426,29.145,15.7,39.84c18.788,20.061,40.748,36.896,65,49.83    c24.76-11.9,46.703-28.597,65.83-50.09c9.729-10.594,15.035-24.508,14.83-38.89V37.42c-26.506-6.861-53.77-10.362-81.15-10.42    C98.137,27.022,71.18,30.524,45,37.42V139.87" fill="url(#SVGID_1_)"/>
      <path d="M125.26,151.85c-17.11,0-31-1.48-31-3.31    c0-1.44,8.55-2.67,20.5-3.13l4.94,3.74c3.741,2.828,9.008,2.397,12.24-1l2.65-2.79c12.55,0.43,21.66,1.68,21.66,3.17    c0,1.83-13.88,3.31-31,3.31" fill="#002848"/>
      <path d="M125.27,151c-2.009,0.005-3.963-0.652-5.56-1.87l-26.38-20c-4.157-2.941-5.142-8.695-2.201-12.852    c2.941-4.157,8.695-5.142,12.852-2.201c0.163,0.116,0.323,0.237,0.479,0.363l19.81,15l45.42-47.74    c3.504-3.689,9.336-3.839,13.025-0.335c3.689,3.504,3.839,9.336,0.335,13.025L132,148.16c-1.74,1.83-4.155,2.864-6.68,2.86" fill="#FFFFFF"/>
      <path d="M185.67,88.41c-0.123,5.168-4.412,9.258-9.58,9.135c-5.168-0.123-9.258-4.412-9.135-9.58    c0.123-5.166,4.409-9.255,9.575-9.135c5.168,0.12,9.26,4.407,9.14,9.575C185.67,88.407,185.67,88.408,185.67,88.41" fill="#002848"/>
      <path d="M167.87,84.14c0.06-0.14,0.14-0.27,0.21-0.4l0.14-0.25    c0.108-0.197,0.228-0.388,0.36-0.57c0.037-0.051,0.07-0.104,0.1-0.16l-1.44,1.51l-0.15,0.16c-4.57,5.08-5.31,12.08-1.58,15.53    c1.43,1.286,3.297,1.977,5.22,1.93c3.598-0.169,6.98-1.763,9.4-4.43l0.19-0.2l0.21-0.23l0.34-0.35l0.68-0.71h-0.08    c-0.321,0.22-0.655,0.421-1,0.6l-0.22,0.1c-0.32,0.14-0.64,0.27-1,0.38l-0.24,0.08c-0.392,0.124-0.793,0.218-1.2,0.28    c-0.083,0.005-0.167,0.005-0.25,0c-0.365,0.05-0.732,0.08-1.1,0.09h-0.39c-5.106-0.168-9.138-4.392-9.07-9.5    c0.006-0.335,0.032-0.669,0.08-1c0-0.12,0-0.24,0.06-0.35c0.025-0.202,0.062-0.402,0.11-0.6c0-0.14,0.07-0.27,0.11-0.4    s0.1-0.35,0.16-0.52s0.1-0.26,0.15-0.4s0.13-0.32,0.21-0.48c-0.004-0.033-0.004-0.067,0-0.1" fill="#002848"/>
      <path d="M183.77,89.7c-0.398,0-0.72-0.322-0.72-0.72l0,0    c0.005-2.859-1.595-5.479-4.14-6.78c-0.353-0.182-0.492-0.616-0.31-0.97c0.124-0.24,0.371-0.39,0.64-0.39    c0.114,0.003,0.227,0.03,0.33,0.08c3.034,1.548,4.934,4.675,4.91,8.08c0.006,0.392-0.308,0.714-0.7,0.72c-0.003,0-0.007,0-0.01,0" fill="#FFFFFF"/>
      <path d="M177.41,81.59h-0.17c-0.596-0.141-1.207-0.211-1.82-0.21    c-0.398,0-0.72-0.322-0.72-0.72s0.322-0.72,0.72-0.72c0.728,0.001,1.453,0.088,2.16,0.26c0.382,0.112,0.6,0.512,0.488,0.894    c-0.087,0.295-0.351,0.502-0.658,0.516" fill="#FFFFFF"/>
    </g>
  </g>
</svg>