<?xml version="1.0" encoding="UTF-8"?>
<svg version="1.2" baseProfile="tiny-ps" id="a" xmlns="http://www.w3.org/2000/svg" xmlns:xlink="http://www.w3.org/1999/xlink" viewBox="-2 -2 96 96">
    <title>Reckner</title>
    <g>
        <path d="M59.92,46.25c0,7.73-6.27,14-14,14s-14-6.27-14-14c0-7.73,6.27-14,14-14,.05,0,.1,0,.15,0,7.67.08,13.85,6.33,13.85,14Z" fill="#5394b9" />
    </g>
    <g>
        <path d="M67.75,21.23c0,4.68-3.79,8.47-8.47,8.47s-8.47-3.79-8.47-8.47,3.79-8.47,8.47-8.47h0c4.68,0,8.47,3.79,8.47,8.47Z" fill="#0073a2" />
    </g>
    <g>
        <path d="M82.66,39.69c0,4.68-3.79,8.47-8.47,8.47s-8.47-3.79-8.47-8.47,3.79-8.47,8.47-8.47,8.47,3.79,8.47,8.47h0Z" fill="#0073a2" />
    </g>
    <g>
        <path d="M76.04,63.47c0,4.68-3.79,8.47-8.47,8.47s-8.47-3.79-8.47-8.47,3.79-8.47,8.47-8.47,8.47,3.79,8.47,8.47h0Z" fill="#0073a2" />
    </g>
    <g>
        <path d="M54.66,75.77c0,4.68-3.79,8.47-8.47,8.47-4.68,0-8.47-3.79-8.47-8.47,0-4.63,3.72-8.4,8.35-8.47,4.68-.07,8.53,3.67,8.59,8.35,0,.04,0,.08,0,.12Z" fill="#0073a2" />
    </g>
    <g>
        <path d="M31.98,63.65c0,4.68-3.79,8.47-8.47,8.47s-8.47-3.79-8.47-8.47,3.79-8.47,8.47-8.47h0c4.66-.02,8.46,3.75,8.47,8.41,0,.02,0,.04,0,.06Z" fill="#0073a2" />
    </g>
    <g>
        <path d="M25.72,39.94c0,4.68-3.79,8.47-8.47,8.47s-8.47-3.79-8.47-8.47,3.79-8.47,8.47-8.47,8.47,3.79,8.47,8.47h0Z" fill="#0073a2" />
    </g>
    <g>
        <path d="M41.64,21.17c.02,4.68-3.76,8.49-8.44,8.5-4.68.02-8.49-3.76-8.5-8.44-.02-4.68,3.76-8.49,8.44-8.5.01,0,.02,0,.03,0,4.66-.02,8.46,3.75,8.47,8.41,0,.01,0,.02,0,.03Z" fill="#0073a2" />
    </g>
    <g>
        <path d="M84.7,21.17c0,2.95-2.39,5.34-5.35,5.34s-5.34-2.39-5.34-5.35c0-2.95,2.39-5.34,5.35-5.34.04,0,.08,0,.12,0,2.9.07,5.22,2.44,5.22,5.34Z" fill="#96c121" />
    </g>
    <g>
        <path d="M51.35,5.31c.02,2.95-2.36,5.36-5.31,5.37s-5.36-2.36-5.37-5.31C40.65,2.42,43.03.02,45.98,0c.03,0,.06,0,.09,0,2.92.03,5.27,2.4,5.28,5.31Z" fill="#96c121" />
    </g>
    <g>
        <path d="M17.98,20.95c0,2.95-2.39,5.34-5.34,5.34-2.95,0-5.34-2.39-5.34-5.34s2.39-5.34,5.34-5.34c.01,0,.02,0,.03,0,2.94.02,5.31,2.4,5.31,5.34Z" fill="#96c121" />
    </g>
    <g>
        <path d="M10.69,56.15c0,2.95-2.39,5.34-5.34,5.34S0,59.1,0,56.15s2.39-5.34,5.34-5.34,5.34,2.39,5.34,5.34h0Z" fill="#96c121" />
    </g>
    <g>
        <path d="M32.46,83.24c0,2.95-2.39,5.34-5.34,5.34s-5.34-2.39-5.34-5.34c0-2.95,2.39-5.34,5.34-5.34s5.34,2.39,5.34,5.34h0Z" fill="#96c121" />
    </g>
    <g>
        <path d="M70.36,83.03c0,2.95-2.39,5.34-5.34,5.34s-5.34-2.39-5.34-5.34,2.39-5.34,5.34-5.34,5.34,2.39,5.34,5.34h0Z" fill="#96c121" />
    </g>
    <g>
        <path d="M91.87,55.76c.02,2.95-2.36,5.36-5.31,5.38-2.95.02-5.36-2.36-5.38-5.31s2.36-5.36,5.31-5.38c.01,0,.02,0,.03,0,2.94,0,5.33,2.37,5.34,5.31Z" fill="#96c121" />
    </g>
</svg>
