<svg version="1.2" xmlns:xlink="http://www.w3.org/1999/xlink" viewBox="0 0 200 200" baseProfile="tiny-ps" xmlns="http://www.w3.org/2000/svg">
  <title>Idaho Power Company</title>
	<path d="M167.472,70.854L200,89.313V45.308c0-8.388-6.807-15.169-15.185-15.169H15.19     C6.802,30.139,0,36.919,0,45.308v29.449l8.404-3.285c2.317-1.015,2.846-1.079,5.046-0.328l1.74,0.465     c2.946,0.936,2.28,1.047,5.686-0.069l26.35-10.493c4.771-1.989,3.808-2.105,6.759-1.058l0.846,0.37     c2.375,0.963,2.005,1.417,6.373-1.714l26.609-21.59c7.013-5.569,5.136-5.469,12.593-0.222l22.002,16.75     c2.269,1.714,2.2,1.603,3.337,1.254c1.809-0.645,0.762-0.74,2.602,0.502l25.282,18.67c3.009,2.005,3.131,1.983,6.003,0.111     l5.025-3.221C166.187,69.928,166.039,70.029,167.472,70.854" fill="#008A97" />
	<path d="M185.508,86.251L200,95.148v53.938h-46.327c-17.925,0-61.221-54.049-79.436-54.049H0.005v-9.139     l3.364-1.269c1.492-0.561,1.211-0.524,2.502,0.1l2.533,1.111c1.83,0.852,2.195,0.852,4.21,0.058l23.594-9.494     c1.941-0.941,1.925-0.555,2.634-0.016l3.015,2.211c0.577,0.502,0.783,0.46,1.465,0.037l2.84-1.698     c0.751-0.534,0.862-0.455,1.507,0.032l2.898,1.804c0.714,0.476,1.121,0.312,1.756-0.175l4.141-3.845     c0.883-1.005,1.01-0.777,3.147-0.777c1,0,1.068-0.259,1.904-0.92l8.933-7.706c1.634-1.386,1.92-1.386,2.618-0.259l2.068,3.359     c0.804,1.074,1.38,0.793,3.496-0.614l7.034-4.411c0.973-0.709,0.947-0.418,1.634,0.106c1.375,1.301,1.407,1.888,3.068,0.883     l1.587-1.09c0.497-0.481,0.682-0.069,0.873,0.1l8.378,9.182c0.45,0.487,0.624,0.571,1.206,0.095l1.084-0.74     c0.83-0.688,0.931-0.45,1.476,0.063l14.873,12.043c0.788,0.624,1.587,0.561,2.687-1.566l5.881-12.731     c1.037-1.867,1.465-1.454,3.396,0.275l15.761,14.206c0.941,0.804,1.841,1.291,2.576,0.799l2.147-2.105l1.111-0.042l3.623,2.396     c1.407,0.825,1.407,0.64,2.216,0.349l1.417-1.338c0.682-0.656,0.825-0.444,1.846,0.159l2.93,1.714     c0.746,0.397,0.899,0.397,1.666-0.127l5.226-4.903c0.333-0.407,1.296-0.735,2.475,0.175l6.839,4.644     c0.307,0.212,0.767,0.28,1.264,0.243C184.503,85.728,183.969,85.22,185.508,86.251" fill="#008A97" />
	<path d="M200,155.935c-0.635,7.791-7.209,13.926-15.185,13.926H15.19c-8.388,0-15.19-6.807-15.19-15.19     v-51.933h48.918c19.681,0,58.09,53.197,76.85,53.197H200z" fill="#008A97" />
</svg>