<?xml version="1.0" encoding="UTF-8" standalone="yes"?>
<svg viewBox="0 0 600 600" version="1.2" baseProfile="tiny-ps" xmlns="http://www.w3.org/2000/svg">
  <title>Wargaming</title>
  <defs>
    <path id="eou0N7vgOzE2" d="M44.9,108h509.1v234.1h-509.1v-234.1Z"/>
  </defs>
  <g transform="matrix(1.100467 0 0 1.100467-29.314762 37.383701)">
    <g>
      <g>
        <path d="M297.7,108c15.7-.4,31.5,4.2,44.5,13.2c13.8,9.4,24.3,23.6,29.2,39.6c5,16,4.5,33.7-1.5,49.3-6.7,17.7-20.3,32.6-37.3,40.8-14.4,7.2-31.2,9.4-47,6.3-17.3-3.2-33.3-12.8-44.4-26.5-10.9-13.3-17.1-30.4-16.8-47.6-.2-15.6,4.9-31.1,14-43.7c13.3-19,36-31,59.3-31.4m-19.4,18.4c-12.2,4.5-22.9,13.1-29.9,24.1-8,12.2-11.1,27.3-9.2,41.7c5.5-11.9,12.4-23.3,21.8-32.5c8.7-9.1,19.6-15.7,31.1-20.7l-6.6-5.7c12.3-2.2,25.4-1.2,37.1,3.5-7.6,8.1-15.4,16.1-21.6,25.4-.9-4-1.7-8-2.5-12-9.5,6.4-16.2,16.2-20.1,26.9-5.4,14.9-6.3,31.4-3.3,46.9c5.7-.9,11.3-2.2,16.6-4.5c12.4-5.1,22.2-15.1,28.7-26.7-4.2.1-8.4.5-12.5.7c8.3-8.9,15.7-18.7,21.3-29.5c6.4,10.4,11.6,21.5,16.1,32.9-3.4-1-6.7-2.1-10.1-3c.4,14.1-.7,28.3-4.6,41.9c15.7-9.2,26.8-25.8,29.3-43.8c1.8-12.6-.5-25.8-6.6-37.1-7.5-14.2-20.8-25.1-36.2-29.7-12.7-3.9-26.5-3.4-38.8,1.2M187.8,300.799c2.7-4.8,8.1-7.6,13.5-7.8c6.2-.3,12.3-.1,18.5-.1v10.5h-15.9c-2.4,0-5.1.6-6.6,2.7-1.6,2.1-1.3,4.9-1.3,7.4.1,4-.1,7.9.1,11.9.2,2.7,1.8,5.4,4.6,6c3.1.6,6.3.2,9.5.1v-9h-6v-9.2h16.5c0,8.6.1,17.2-.1,25.7-5.6,4.1-12.8,2.8-19.2,3-6,.1-11.8-3.6-14.3-9-2.4-5-1.6-10.6-1.7-16-.1-5.5-.4-11.4,2.4-16.2m196-1.1c2.8-4.3,7.9-6.5,12.9-6.7c6.2-.3,12.3,0,18.5-.1v10.5c-5.6,0-11.2-.1-16.7,0-2.7,0-5.7,1.3-6.6,4.1-1.2,4.2-.4,8.5-.7,12.8c0,3.7-.3,8.5,3.5,10.6c3.4,1.4,7.3.7,10.9.6v-9h-6v-9.2h16.5v25.4c-5.5,4.4-12.8,3.1-19.3,3.3-6.1.2-12-3.5-14.4-9-2.5-5-1.4-10.7-1.7-16.1c0-5.8-.4-12.2,3.1-17.2m-339-6.2h11.9c2.4,10.1,4.7,20.3,7.2,30.4c1.4-10.2,3.3-20.3,4.8-30.4h13.5c1.6,10.1,3.3,20.3,4.9,30.4C89.4,313.8,91.8,303.6,94.2,293.5h11.9c-4.4,16.1-8.9,32.1-13.3,48.2h-12.2c-1.7-10.1-3.6-20.1-5.2-30.2-1.7,10.1-3.5,20.2-5.3,30.2h-12c-4.4-16.1-8.9-32.1-13.3-48.2m57.5,48.2c4.4-16.1,8.9-32.1,13.3-48.2h12.2c4.4,16.1,8.9,32.1,13.2,48.2h-11.1c-.7-3.3-1.4-6.6-2.2-9.9h-12c-.7,3.3-1.5,6.6-2.2,9.8-3.7.1-7.4.1-11.2.1m15.6-18.4h7.8l-3.9-17.4-3.9,17.4Zm28.6-30c7.7,0,15.4-.1,23.2,0c4.6-.1,9.3,3.2,9.6,8v12.9c-.1,3.4-2.8,6-5.7,7.3c2.8,6.6,5.6,13.3,8.5,19.9h-12.3c-2.2-6-4.3-12-6.5-18h-6.4v18h-10.3c-.1-16-.1-32.1-.1-48.1m10.3,9.6v11.099c3.1-.1,6.2.1,9.3-.1c2-.2,3.1-2.2,2.9-4-.1-2.3.7-5.7-1.9-6.8-3.4-.5-6.8,0-10.3-.2m80-9.4h12.2c4.5,16.1,8.9,32.1,13.3,48.2h-11.1c-.7-3.3-1.4-6.6-2.2-9.9h-11.9c-.7,3.3-1.5,6.6-2.2,9.9h-11.3c4.4-16.1,8.9-32.1,13.2-48.2m2.4,29.8h7.8l-3.9-17.4-3.9,17.4ZM267,293.5h13.2c3,11.7,6.2,23.4,9.3,35.1c3.3-11.7,6.3-23.4,9.5-35.2h13v48.2h-9.9c.1-9.2-.2-18.3-.3-27.5-2.5,9.1-4.7,18.3-7,27.5-3.6,0-7.1,0-10.7-.1-2.3-9.4-4.7-18.8-7-28.1v28.2h-10.1v-48.1Zm53.3,0h10.5v48.2h-10.5v-48.2Zm18.9,0h10.3c5.1,9.3,10.1,18.7,15.3,28-.1-9.3,0-18.7,0-28h10.1v48.2h-10.3c-5.1-9.5-10.1-19-15.3-28.4.1,9.5,0,19,0,28.5h-10.1v-48.3Zm102.2,0h10.2c5.2,9.4,10.2,18.9,15.5,28.3v-28.3h9.8v48.2c-3.4,0-6.9,0-10.3-.1-5-9.6-10.2-19-15.2-28.5.1,9.5,0,19,0,28.6h-10.1c.1-16.1.1-32.1.1-48.2m43.3,0h30.8v9.4h-20.4v9h18.4v9.4h-18.4v10.7h20.3v9.6h-30.8c.1-16,.1-32,.1-48.1m35.8,0h33.2v9.4h-11.1v38.6h-10.601v-38.5h-11.6v-9.5h.101Zm-97.1,38.3h10.1v9.8h-10.1v-9.8Zm0,0"/>
      </g>
    </g>
  </g>
</svg>