<?xml version="1.0" encoding="utf-8"?><!-- Generator: Adobe Illustrator 26.2.1, SVG Export Plug-In . SVG Version: 6.00 Build 0)  --><svg version="1.2" baseProfile="tiny-ps" id="Layer_1" xmlns="http://www.w3.org/2000/svg" xmlns:xlink="http://www.w3.org/1999/xlink" viewBox="0 0 192.9 192.9" xml:space="preserve"><title>Best Secret</title><g id="Ebene_1">	<path fill-rule="evenodd" fill="#FFFFFF" d="M96.4,0C43.1,0,0,43.1,0,96.4s43.1,96.4,96.4,96.4s96.4-43.1,96.4-96.4		C193,43.1,149.7,0,96.4,0z"/>	<g>		<path fill-rule="evenodd" fill="#222222" d="M96.4,4.3C45.5,4.3,4.3,45.5,4.3,96.4s41.2,92.1,92.1,92.1s92.1-41.2,92.1-92.1			C188.6,45.5,147.3,4.3,96.4,4.3z"/>	</g>	<g>		<path fill-rule="evenodd" fill="#FFFFFF" d="M53,96.5c0-11.1,7.8-20.3,18.2-22.7v7.1c-6.6,2.2-11.3,8.3-11.3,15.5			c0,9,7.4,16.4,16.5,16.4c5.9,0,11.1-3.1,14-7.7h7.8c-3.5,8.6-11.9,14.6-21.8,14.6C63.5,119.7,53,109.3,53,96.5z M96.4,139.5h-13			h-3.5h-3.4v-14.6c2.4,0,4.7-0.2,6.9-0.7v8.5h13c9.1,0,16.5-7.3,16.5-16.4c0-9-7.4-16.4-16.5-16.4h-13v6.2c-2.1,1-4.4,1.5-6.9,1.5			c0,0,0,0-0.1,0V53.4h3.5h3.5h13c9.9,0,18.3,6,21.8,14.6c-0.6,0-1.2,0-1.8,0c-1.9,0-3.9,0.2-5.7,0.5c-2.9-4.9-8.2-8.1-14.3-8.1h-13			v32.7h13c5.3,0,10-2.4,13-6.3c2.1-1,4.5-1.5,6.9-1.5c0.6,0,1.2,0,1.8,0.1c-1.9,4.6-5.2,8.5-9.5,11.1c6.7,4.1,11.2,11.4,11.2,19.8			C119.9,129.1,109.4,139.5,96.4,139.5z M125.1,118.1v-7.7c4.7-2.9,7.8-8,7.8-13.9c0-9-7.4-16.4-16.5-16.4c-5.9,0-11.1,3.1-14,7.7			h-7.8c3.5-8.6,11.9-14.6,21.8-14.6c12.9,0,23.4,10.4,23.4,23.2C139.9,106.3,133.7,114.7,125.1,118.1z"/>	</g></g></svg>