<?xml version="1.0" encoding="utf-8"?>
<!-- Generator: Adobe Illustrator 28.0.0, SVG Export Plug-In . SVG Version: 6.00 Build 0)  -->
<svg version="1.2" baseProfile="tiny-ps" id="layer"
	 xmlns="http://www.w3.org/2000/svg" xmlns:xlink="http://www.w3.org/1999/xlink" viewBox="0 0 170.1 170.1"
	 xml:space="preserve">
	<title>flier</title>
<g id="rogo3_00000157298911214712106110000005072406454491513992_">
	<g>
		<path fill="#1F2C5C" d="M38.6,124c7.3,5,17.8,2.8,26.9-3.3c9.2-6,16.6-5.6,16.6-5.6c6.6-0.6,11.5,2.9,11,7.8
			c-0.6,4.9-6.1,8.8-13,10c17.8-1.3,20.1-13.1,20.1-13.1c2.6-9.4-7.7-15.2-20.6-12.1c13.7-14.9,24.7-15.9,24.7-15.9
			c10.2-3.1,17.7,3.2,16.9,14c-0.8,10.9-9.4,20.8-20,25.3c27.4-7.8,30.8-34.2,30.8-34.2c5.7-30.2-28.7-37.4-57.5,3.1
			c-21.6,30.3-37.1,22.9-37.1,22.9S37.9,123.6,38.6,124z"/>
		<path fill="#005BAC" d="M43.7,121.1c0,0,26.2-8.7,31.8-41.4C79,59,85.2,47.4,96.9,37.3c0,0-34.9,7.9-36.6,40.8
			C58.7,108.8,52.9,113.9,43.7,121.1z"/>
		<path fill="#008CD6" d="M47.6,113.8c0,0,9.1-9.8,9-33.3c0-14.3,3.1-22.8,10.2-31.6c0,0-17.8,9.4-15.6,33.4
			C52,91.5,52.5,104.6,47.6,113.8z"/>
		<path fill="#C9CACA" d="M76.9,89c0,0,2.8-4.8,4.8-17.1c3.3-19.8,20.5-27.8,20.5-27.8S91.8,55.7,89.9,68.4
			C87.7,82.6,76.9,89,76.9,89z"/>
	</g>
</g>
</svg>
