<?xml version="1.0" encoding="UTF-8"?>
<svg xmlns="http://www.w3.org/2000/svg" version="1.2" baseProfile="tiny-ps" viewBox="0 0 200 200" xml:space="preserve">
<title>Six Apart Ltd.</title>
  <rect width="200" height="200" fill="#fff" stroke-width="0"/>
  <g>
    <path d="M65.22,159.59c-13.95-.02-25.24-11.34-25.22-25.28.02-13.93,11.32-25.22,25.25-25.22,13.95,0,25.25,11.31,25.25,25.25v.03c-.02,13.95-11.34,25.24-25.28,25.22" fill="#b5ba23" stroke-width="0"/>
    <path d="M130.7,159.32c-13.77-2.23-23.11-15.21-20.88-28.97,2.23-13.77,15.21-23.11,28.97-20.88,13.77,2.23,23.11,15.21,20.88,28.97-2.23,13.77-15.21,23.11-28.97,20.88" fill="#150301" stroke-width="0"/>
    <path d="M90.5,65.61c0,13.95-11.31,25.25-25.25,25.25s-25.25-11.31-25.25-25.25,11.31-25.25,25.25-25.25h0c13.95,0,25.25,11.31,25.25,25.25Z" fill="#150301" stroke-width="0"/>
    <path d="M159.95,65.61c0,13.95-11.31,25.25-25.25,25.25s-25.25-11.31-25.25-25.25,11.31-25.25,25.25-25.25c13.95,0,25.25,11.31,25.25,25.25h0Z" fill="#b5ba23" stroke-width="0"/>
  </g>
</svg>
