<?xml version="1.0" encoding="utf-8"?>
<!-- Generator: Adobe Illustrator 28.3.0, SVG Export Plug-In . SVG Version: 6.00 Build 0) By K. CHANTRELLE 05-04-2024 -->
<svg version="1.2" baseProfile="tiny-ps" id="Calque_1"
	 xmlns="http://www.w3.org/2000/svg" xmlns:xlink="http://www.w3.org/1999/xlink" 
	 xml:space="preserve">
<title>STEF</title>
<g>
	<path fill="#009FE3" d="M235.3,60.6c-9.6,0-17.4-7.4-17.4-16.5s7.8-16.5,17.4-16.5c9.6,0,17.4,7.4,17.4,16.5S244.9,60.6,235.3,60.6
		 M235.3,15.3c-16.8,0-30.4,12.9-30.4,28.9c0,15.9,13.6,28.9,30.4,28.9s30.5-12.9,30.5-28.9C265.7,28.2,252.1,15.3,235.3,15.3"/>
	<path fill="#004F9F" d="M261.4,60.6c-9.6,0-17.4-7.4-17.4-16.5s7.8-16.5,17.4-16.5c9.6,0,17.4,7.4,17.4,16.5S271,60.6,261.4,60.6
		 M261.4,15.3c-16.8,0-30.4,12.9-30.4,28.9c0,15.9,13.6,28.9,30.4,28.9s30.4-12.9,30.4-28.9S278.2,15.3,261.4,15.3"/>
	<path fill="#004F9F" d="M67.3,28.9c1.1-3.7,3.1-5.3,5.8-5.3h1.6h37h0.6c0,0-4.2,1.7-7.6,5.3H90.4V53c0,0,0.1,12.2-9.7,12.1H80V28.9
		H69H67.3L67.3,28.9z"/>
	<path fill="#004F9F" d="M189.1,40.6c0.3,1.9-1.4,5.3-6,5.3H182h-4.8h-3.1h-2.7v1.7v1.8V53c0,0,0.1,12.2-9.7,12.1H161V50.3V50V33.6
		v-0.5c0-10.2,13-9.5,13-9.5h23.6c-1.1,0.8-1.8,1.3-2.5,2.3c-0.8,1-1.4,1.9-1.8,3h-15.1c0,0-6.7-0.4-6.7,5v0.8v5.9H189.1L189.1,40.6
		z"/>
	<path fill="#004F9F" d="M148.3,58.1c0,0,5.3-1.9,7.5,2.6l0.3,0.6c-22,9.4-38.7,2.7-43.2-1c-5.1-4.1-8.1-9.3-8.1-16.6
		c0-6.3,2.5-11.3,7.5-15.1s11.5-5.7,19.5-5.7c8.9,0,15.4,2.2,19.5,6.5c3.7,3.9,5.5,9.3,5.5,16.5H122c-0.3-1.9,1.4-5.3,6-5.3h1.1
		h16.4c0-3.1-1.1-5.9-3.4-8c-2.6-2.4-6.2-3.7-10.8-3.7c-5.3,0-9.3,1.5-12.2,4.6c-1.5,1.6-2.4,3.3-2.9,5c0,0-1.6,4-0.4,9.2l0.2,0.6
		c0.8,3.4,2.6,5.4,5.5,7.5c2.6,1.8,12.8,5.8,26.3,2.3L148.3,58.1L148.3,58.1z"/>
	<path fill="#004F9F" d="M61.3,28.9c1.1-3.1,2.7-4.5,4.1-5.3H48.6h-1.4c-4.4-0.1-7.5,0.6-7.5,0.6c-2.5,0.4-4.4,1-6.1,1.9
		c-4.2,2-6.2,4.5-6.2,8c0,3,1.6,5.4,4.9,7.3c2.5,1.5,6.7,3,12.7,4.5c5.4,1.4,9.1,2.7,11,3.9c1.7,1.1,2.6,2.5,2.6,4.1
		c0,2.1-1.5,3.8-4.6,5.1c-2.7,1.1-5.9,1.6-9.6,1.6c-2.3,0-4.8-0.2-7.4-0.5l-1.5-0.3c-0.7-0.1-1.3-0.2-2.1-0.4l-0.8-0.1
		c0,0-5.5-0.9-7.3,3.1L25.1,63c0.2,0.1,0.4,0.1,0.6,0.2l0.9,0.2c3.1,0.9,7.4,1.7,9.8,2c2.5,0.3,4.8,0.5,6.9,0.5
		c9.6,0,16.6-1.4,21.2-4.1c3.5-2.1,5.3-4.9,5.3-8.2s-1.8-6-5.4-8.1c-2.7-1.7-7.4-3.4-14.1-5.1c-4.2-1.1-7.2-2.2-9-3.2
		s-2.7-2.2-2.7-3.6c0-1.6,1.2-2.7,2.7-3.5c0,0,1.4-1.1,5.8-1.2h0.4h12.7L61.3,28.9L61.3,28.9z"/>
</g>
</svg>
