<?xml version="1.0" encoding="UTF-8"?>
<svg id="Layer_1" xmlns="http://www.w3.org/2000/svg" baseProfile="tiny-ps" version="1.2" xmlns:xlink="http://www.w3.org/1999/xlink" viewBox="0 0 144 144">
<title>JS Business Solutions</title>
  <!-- Generator: Adobe Illustrator 29.1.0, SVG Export Plug-In . SVG Version: 2.1.0 Build 142)  -->
  <defs>
    <linearGradient id="linear-gradient" x1="67.06" y1="35.53" x2="101.88" y2="35.53" gradientUnits="userSpaceOnUse">
      <stop offset="0" stop-color="#2e3192"/>
      <stop offset=".71" stop-color="#0d6885"/>
      <stop offset="1" stop-color="teal"/>
    </linearGradient>
  </defs>
  <path d="M78.2,35.69c6.73-2.48,12.96-1.82,16.96.47,2.89-.95,5.74-2.04,8.6-3.08-1.25-1.44-2.88-2.61-4.89-3.38-11.62-4.44-31.37-2.09-38.22,9.16-3.03,4.97-3.96,12.22-3.06,17.43.34,1.97.76,3.8,1.04,4.96h-.02c2.18,8.28,2.42,16.71,3.07,25.2.77,7.18-1.06,14.54-7.31,18.54-3.95,2.52-11.51,4.31-12.39-1.75.44-.04.7-.06.7-.06,0,0,.08-.94.06-1.66-.02-.72.14-1.08.14-1.08-5.07.95-7.6,1.42-12.67,2.37,0,0,.12.62.22,1.02.02.07.34.09.88.09,1.66,6.02,5.94,11.62,12.53,12.42,5.89.71,12.31-1.1,16.53-4.86,7.16-6.38,10.52-16.47,9.72-26.44-1.07-8.63-1.46-17.04-3.91-25.45h0c-3.26-11.45,0-19.48,11.99-23.89Z" fill="#2e3192"/>
  <path d="M94.77,59.18c5.18-3.61,9.59-7.06,11.4-13.38,1.86-6.51-.69-13.54-7.37-16.1-3.77-1.44-8.39-2.16-13.15-2.1-.22,2.19-.37,4.38-.23,6.55,12.81-.69,20.57,9.9,7.02,18.1-6.77,3.88-13.6,11.29-12.13,19.52.89,4.99,4.88,7.1,8.55,8.74,3.96,1.77,5.27,2.74,5.48,4.61.48,4.41-4.6,7.92-8.84,9.12,1.13,3.25,1.71,4.88,2.91,8.15,8.68-3.36,16.09-12.36,13.47-22.06-1.49-5.5-5.43-6.99-8.19-8.26-2.52-1.16-4.65-1.98-5.05-4.19-.68-3.76,2.52-6.49,6.14-8.71Z" fill="teal"/>
  <path d="M67.67,42.96c2.13-3.05,5.92-5.5,10.88-7.33,10.15-3.74,18.79-.23,20.67,5.17,2.5-.11,5.02-.18,7.53-.2-.35-4.71-2.63-9.08-7.52-10.95-11.62-4.44-31.66-2.15-38.51,9.1-.87,1.43-1.61,3.11-2.14,4.81,3.03-.16,6.07-.37,9.09-.59Z" fill="url(#linear-gradient)"/>
  </svg>