<?xml version="1.0" encoding="UTF-8"?>
<svg
  version="1.2"
  baseProfile="tiny-ps"
  xmlns="http://www.w3.org/2000/svg"
  viewBox="0 0 300 300">
 <title>aiful</title>
 <rect width="300" height="300" fill="#fff"/>
 <g transform="matrix(.70928 0 0 .70928 43.606 28.075)" fill="#ea0000" stroke-width="1.8233">
  <path d="m235.7 247.31c-0.36467 0-0.547 0-0.72933-0.36466-0.54699-0.36466-0.54699-1.094 0-1.4586l53.788-53.788c0.36468-0.36466 1.094-0.36466 1.4587 0 0.36467 0.36466 0.36467 1.094 0 1.4586l-53.788 53.788c-0.18233 0.18233-0.54699 0.36466-0.72932 0.36466z"/>
  <path d="m64.304 247.31c-0.36466 0-0.54699 0-0.72932-0.36466l-53.788-53.788c-0.36466-0.36466-0.36466-1.094 0-1.4586 0.54699-0.36466 1.094-0.36466 1.641 0l53.606 53.788c0.54699 0.36466 0.54699 1.094 0 1.4586 0 0.18233-0.36466 0.36466-0.72933 0.36466z"/>
  <path d="m70.686 132.81c3.282-0.36466 7.2933-1.4586 11.305-3.4643l-36.649-36.649c-3.0996 11.122-2.735 22.974 0.91165 33.731 3.0996 2.5526 5.2876 3.829 5.2876 3.829 6.1993 2.9173 12.946 2.9173 19.327 2.3703z"/>
  <path d="m144.35 71.908-3.829-3.829c-14.04-14.04-33.914-19.327-52.329-15.498l37.56 37.56 18.416-18.416z"/>
  <path d="m79.62 155.42c15.498 2.3703 24.25-0.54699 31.361-4.0113 4.7406-2.3703 11.487-8.0226 16.41-12.399l1.641-1.4586 84.784-84.42c-16.775-4.1936-35.008-0.72933-49.23 10.393l-2.3703 2.188c-0.72933 0.547-1.641 1.2763-2.0056 1.8233l-50.324 50.141c-0.72933 0.72932-1.4586 1.4586-2.188 2.188l-5.2876 5.2876c-8.3872 8.3872-21.88 15.134-31.361 15.863-2.0056 0-4.0113 0.36466-6.1993 0.36466-4.0113 0-8.3873-0.54699-12.763-1.8233 2.0056 3.0996 4.376 6.0169 7.1109 8.7519l2.0056 0.91166c10.393 4.923 17.869 6.0169 18.051 6.0169z"/>
  <path d="m101.68 114.39c0.72932-0.72932 1.4587-1.4586 2.3703-2.3703l8.9342-8.9343-43.03-43.03c-3.6466 2.188-7.1109 4.923-10.211 8.0226-2.188 2.188-4.376 4.7406-6.1993 7.2933l43.395 43.577 4.5583-4.5583z"/>
  <path d="m108.25 184.04c15.498 2.3703 24.25-0.54699 31.179-4.0113 5.8346-2.735 13.857-10.211 16.592-12.581 0.72933-0.54699 1.094-0.91166 1.4587-1.094l89.89-89.525c-2.0056-3.0996-4.376-6.0169-7.1109-8.7519-2.735-2.735-5.6523-5.1053-8.5696-7.1109l-92.077 91.53c-3.4643 3.282-12.946 11.487-20.603 15.316-6.7463 3.282-15.681 6.7463-28.808 6.7463-13.128 0-3.282 0-4.9229-0.18233l2.735 2.735 2.3703 1.094c10.211 4.7406 17.869 6.0169 17.869 6.0169z"/>
  <path d="m170.06 179.3c-0.54701 0.54699-1.2763 1.2763-2.188 2.0056-5.1053 4.7406-13.128 11.669-20.421 15.134-6.7463 3.282-15.681 6.564-28.626 6.564h-4.376c12.946 10.393 29.72 14.222 45.218 11.487 11.305-1.8233 22.062-7.1109 30.632-15.863l49.777-49.777c14.587-14.587 19.509-35.372 14.951-54.153l-85.149 84.602z"/>
 </g>
</svg>
