<?xml version="1.0" encoding="UTF-8" standalone="yes"?>
<svg width="1024" height="1024" fill="none" viewBox="0 0 1024 1024" version="1.2" baseProfile="tiny-ps" xmlns="http://www.w3.org/2000/svg">
  <title>bimi-svg-tiny-12-ps</title>
  <path fill="#fff" d="M0 0h1024v1024H0z"/>
  <path fill="#000" fill-rule="evenodd" d="M300.075 516.522c.023-.928.047-1.962.047-3.011v-146.34h-63.983l.001 63.561a48.393 48.393 0 0 0-1.451-.846c-4.756-2.558-10.118-4.455-15.98-5.665-5.443-1.237-11.578-1.896-18.215-1.966h-1.746c-17.146 0-33.062 4.084-47.119 12.275-13.919 8.088-25.112 19.187-33.261 32.947a85.356 85.356 0 0 0-3.764 6.978c-5.757 11.757-8.604 24.929-8.604 39.056 0 16.582 3.99 32.086 11.986 45.963l.02.035.021.034c8.148 13.769 19.346 24.901 33.279 32.997l.005.003c14.094 8.175 30.198 12.269 47.717 12.269h1.928c1.435.023 2.985.023 4.287 0h1.851c17.51 0 33.618-4.068 47.722-12.272 13.935-8.096 25.131-19.229 33.301-33.016l.023-.038.023-.039c7.457-12.964 11.457-27.401 11.91-42.792l.001-.045.001-.045v-.043Zm-88.132-25.523c-4.112-6.771-13.939-6.771-18.05 0l-16.341 26.91c-4.272 7.036.793 16.039 9.025 16.039h32.68c8.232 0 13.297-9.002 9.025-16.039l-16.339-26.91Z"/>
  <path fill="#000" d="M506.108 541.031c0 19.42 4.928 35.412 16.043 46.054l.096.096.11.101c11.228 10.289 28.032 14.807 48.545 14.807h20.428v-56.816h-10.339c-4.91 0-7.055-1.07-7.987-1.922-.8-.731-1.836-2.336-1.836-6.461v-2.826l-.022-.023v-166.87h-65.038v173.86Z"/>
  <path fill="#000" fill-rule="evenodd" d="M451.123 534.834v-.008h37.817l2.288-6.053.01-.026c1.106-2.962 1.775-6.269 2.011-9.7.414-3.348.636-6.754.636-10.132 0-11.9-1.995-23.169-5.993-33.448-4.003-10.456-9.972-19.826-17.77-27.776-7.754-8.112-17.393-14.392-28.516-18.688-11.243-4.546-24.079-6.753-38.062-6.753-17.113 0-32.904 3.978-46.781 11.962l-.003.002c-13.724 7.887-24.854 18.811-33.007 32.417l-.02.035-.02.034c-8.01 13.726-12.005 29.433-12.005 46.558 0 17.16 3.892 32.023 11.614 45.84l.002.004c7.768 13.878 18.909 25.157 33.082 33.464l.034.02.034.019c14.356 8.208 31.29 12.224 50.062 12.224 12.083 0 23.492-1.695 33.931-5.118l.067-.022.066-.023c10.339-3.608 19.552-8.696 27.243-15.241 3.93-3.239 7.391-6.804 10.345-10.671l5.054-6.613-53.711-26.085-.882.63a30.57 30.57 0 0 1-6.213 5.329h-.021c-4.769 3.194-10.497 4.811-17.062 4.811-6.566 0-12.414-1.617-17.343-4.811-4.589-2.961-8.337-7.061-11.133-12.181h74.246Zm-19.098-44.614h-53.749c2.614-4.05 5.885-7.347 9.774-9.853 4.929-3.341 10.757-5.043 17.303-5.043 6.545 0 12.273 1.681 17.102 5.064 3.842 2.489 7.042 5.77 9.57 9.832Zm422 96.913v14.236H918v-87.835c0-17.443-4.439-33.382-13.395-47.166-8.598-13.57-20.372-24.451-34.865-32.288l-.005-.002c-14.619-7.891-31.02-11.823-48.644-11.823-17.631 0-34.128 3.957-48.904 11.799l-.025.013-.025.013c-14.488 7.834-26.345 18.684-35.149 32.259l-.02.03-.019.031c-8.734 13.78-13.071 29.706-13.071 47.134 0 17.459 4.352 33.129 13.039 47.105l.036.058.038.059c8.801 13.546 20.633 24.397 35.15 32.233l.023.012.022.012a99.803 99.803 0 0 0 22.589 8.673l.2.05.202.039c5.677 1.092 11.773 1.666 18.172 1.727 7.771-.035 14.942-1.311 21.273-3.804 6.524-2.335 12.493-5.995 17.786-10.931a55.386 55.386 0 0 0 1.617-1.634Zm-14.126-86.931c1.652 2.905 2.827 6.801 3.007 11.941v1.391c0 5.777-1.233 10.333-3.19 13.893l-.09.164-.086.166c-1.646 3.168-3.767 5.501-6.338 7.226l-1.155.707c-2.48 1.518-5.944 2.622-10.956 2.622-5.018 0-8.726-1.109-11.494-2.749l-.027-.016c-3.042-1.795-5.616-4.364-7.61-7.937-1.823-3.593-2.988-8.225-2.988-14.076 0-5.964 1.185-10.404 2.905-13.633 2.025-3.673 4.619-6.272 7.73-8.105l.164-.097.161-.099c2.755-1.708 6.343-2.823 11.159-2.823 4.834 0 8.194 1.098 10.713 2.711l.248.159.254.151c2.973 1.76 5.417 4.253 7.314 7.893l.135.258.144.253ZM704.99 546.426l-1.514.162v-.023c-1.419.139-2.813.278-4.232.44-1.514.162-2.74.231-3.726.231-5.217 0-9.087-.717-11.804-1.851-2.428-.972-3.75-2.221-4.616-3.656-1.082-2.036-1.851-5.021-1.851-9.186v-50.998h38.321v-55.833h-38.297v-58.541h-64.044v58.471H585.7v55.834h27.551v53.89c0 20.339 6.082 37.369 18.968 49.725l.096.093 2.019 1.943h.193c12.862 10.829 30.123 15.943 50.533 15.943 3.751 0 7.717-.232 11.756-.625 3.871-.393 7.333-.787 10.434-1.18l8.27-1.088v-54.769l-10.506 1.018h-.024Zm-72.675 38.758a57.34 57.34 0 0 0 2.212 1.943l-2.212-1.943Z"/>
</svg>