<?xml version="1.0" encoding="utf-8"?>
<!-- Generator: Adobe Illustrator 16.0.0, SVG Export Plug-In . SVG Version: 6.00 Build 0)  -->
<svg version="1.2" baseProfile="tiny-ps" id="Layer_1" xmlns="http://www.w3.org/2000/svg" xmlns:xlink="http://www.w3.org/1999/xlink"
	 viewBox="0 0 200 200" xml:space="preserve">
<title>AU Circle</title>
<g>
	<path fill="#6D276D" d="M147.286,68.429c-3.607,0-6.456,2.853-6.456,6.457v27.663c0,9.308-4.781,14.086-12.657,14.086
		c-7.882,0-12.661-4.946-12.661-14.508V74.886c0-3.604-2.847-6.457-6.45-6.457c-3.606,0-6.46,2.853-6.46,6.457v27.58
		c0,17.268,9.64,26.07,25.401,26.07c15.759,0,25.735-8.718,25.735-26.492V74.886C153.738,71.282,150.889,68.429,147.286,68.429z"/>
	<path fill="#6D276D" d="M76.869,73.126c-1.425-3.191-3.938-5.116-7.46-5.116h-0.756c-3.521,0-6.12,1.925-7.545,5.116
		l-20.452,46.189c-0.419,0.922-0.753,1.85-0.753,2.765c0,3.355,2.596,6.04,5.952,6.04c2.68,0,4.858-1.514,5.951-4.024l4.105-9.641
		H81.73l3.939,9.218c1.173,2.686,3.188,4.447,6.208,4.447c3.429,0,6.118-2.766,6.118-6.204c0-0.843-0.252-1.679-0.674-2.601
		L76.869,73.126z M60.69,103.054l8.128-19.366l8.131,19.366H60.69z"/>
	<polygon fill="#EC691F" points="60.69,103.054 76.949,103.054 68.818,83.688 	"/>
	<path fill="#EC691F" d="M100,22.686c-42.701,0-77.312,34.614-77.312,77.313c0,42.7,34.611,77.316,77.312,77.316
		c42.699,0,77.311-34.616,77.311-77.316C177.312,57.299,142.699,22.686,100,22.686z M153.738,102.044
		c0,17.774-9.977,26.492-25.735,26.492c-15.762,0-25.401-8.803-25.401-26.07v-27.58c0-3.604,2.854-6.457,6.46-6.457
		c3.604,0,6.45,2.853,6.45,6.457v27.241c0,9.562,4.779,14.508,12.661,14.508c7.876,0,12.657-4.778,12.657-14.086V74.886
		c0-3.604,2.849-6.457,6.456-6.457c3.603,0,6.452,2.853,6.452,6.457V102.044z M91.878,128.12c-3.021,0-5.036-1.762-6.208-4.447
		l-3.939-9.218H55.909l-4.105,9.641c-1.093,2.511-3.271,4.024-5.951,4.024c-3.355,0-5.952-2.685-5.952-6.04
		c0-0.915,0.334-1.843,0.753-2.765l20.452-46.189c1.426-3.191,4.024-5.116,7.545-5.116h0.756c3.522,0,6.035,1.925,7.46,5.116
		l20.453,46.189c0.421,0.922,0.674,1.758,0.674,2.601C97.996,125.354,95.307,128.12,91.878,128.12z"/>
</g>
</svg>
