<svg xmlns="http://www.w3.org/2000/svg" xml:space="preserve" baseProfile="tiny-ps" version="1.2" viewBox="0 0 100 100">
  <title>G-Star</title>
  <rect width="100" height="100" fill="#ffffff" />
   <path d="M68.42 29.876H43.758c-7.061 0-13.274 3.638-16.865 9.141-.258.397.02.921.493.921h44.388c.328 0 .592-.264.592-.592v-5.524c0-2.18-1.766-3.946-3.946-3.946ZM68.42 47.901H41.736c-2.18 0-3.946 1.766-3.946 3.946v3.824c0 .217-.178.395-.395.395h-2.591c-.166 0-.335-.132-.379-.29-1.555-5.617-4.035-10.131-9.007-12.345-.322-.144-.7.024-.809.359-.633 1.955-.977 4.043-.977 6.211 0 11.114 9.011 20.124 20.124 20.124h24.662c2.18 0 3.946-1.766 3.946-3.946V51.847c0-2.18-1.766-3.946-3.946-3.946Z"/>
</svg>