<?xml version="1.0"?><svg version="1.2" baseProfile="tiny-ps" viewBox="0 0 300 300" xmlns="http://www.w3.org/2000/svg" xmlns:xlink="http://www.w3.org/1999/xlink"><title>Bay LTD</title><g><g fill="#fff" transform="matrix(.1 0 0 -.1 0 300)"><path d="M0 1500V0h3000v3000H0V1500z"/></g><g fill="#dde4ec" transform="matrix(.1 0 0 -.1 0 300)"><path d="M426 2368c-11-52-46-291-46-313v-24l-107-3-108-3-12-65c-7-36-12-80-13-97v-33h203l-6-42c-4-24-13-88-22-143s-18-122-22-149l-6-48 214 4 214 4 53 21c29 12 69 33 88 48l34 26 29 51 29 51 12 63 12 63-7 39c-3 21-15 53-26 71l-19 32-41 18-40 18 25 16 24 16 31 62 31 62v164l-22 33c-13 18-36 43-51 54l-28 21-209 3-209 3-5-23zm292-184 22-15v-81l-29-29-29-29h-82v16c0 8 5 46 11 85l12 69h73l22-16zm-13-358 35-15v-87l-16-23-17-23-33-14-33-14H540v12c0 7 5 49 12 95l12 83h107l34-14zm366-8c-74-167-140-318-148-335l-13-33h181l26 60 26 60h196l12-60 12-60h170l-7 33c-4 17-18 95-33 172-14 77-40 212-57 300l-31 160-100 3-101 3-133-303zm243-70 4-18h-110l6 16c4 9 21 56 39 104l32 87 12-86c7-47 14-94 17-103zm202 340c4-13 38-85 75-160l69-138v-32c0-18-9-85-20-148s-20-125-20-137v-23h158l6 28c3 15 15 85 26 156s23 134 27 140 48 61 98 121c131 159 165 201 165 209 0 3-42 6-94 6h-95l-62-80c-34-44-64-80-68-80-3 1-23 37-43 80l-37 80h-192l7-22zm987-420-8-53-38 3-38 4-25-17-26-17-14-35-15-34 7-22c3-12 13-30 21-39l15-17 74 1h73l5 16c6 19 46 241 46 254v8h-68l-9-52zm-25-135-3-28-24-3-24-4-8 13-8 13 10 18 10 18h50l-3-27zm-383 155c-10-29-43-233-39-240l5-8h139v8c0 4 3 17 6 30l6 22h-79l18 93c9 50 15 95 12 100-2 4-18 7-34 7h-30l-4-12zm165-42v-24l-12-4-13-5-2-86-1-87h56l5 14c3 7 9 34 12 60l7 46h38v60h-27l5 25 4 25h-72v-24zm321-140-13-15 4-23 3-23 23-3 23-4 15 13 15 12-3 26-3 26-26 3-26 3-12-15zM60 1378c-9-23-60-297-60-324v-14h2940l5 23c2 12 16 88 30 170l26 147-6 10-6 10H70l-10-22zm236-558c-25-43-46-83-46-88s9-12 19-15l20-5 17 19 17 19h47v-30h60v15c0 8-7 48-17 90l-16 75h-55l-46-80zm64-15c0-8-4-15-10-15h-9l5 15c4 8 8 15 10 15s4-7 4-15zm172 25c-7-39-12-79-12-90v-20h106l17 13 17 12v25c-1 14-1 45 0 69l1 44-13 9c-7 4-33 8-58 8h-46l-12-70zm78 10c0-5-4-10-10-10-5 0-10 5-10 10 0 6 5 10 10 10 6 0 10-4 10-10zm0-65v-15h-30v30h30v-15zm82 55c-7-39-12-80-12-91v-20l52 3 53 3 3 18 3 17h-51v20h48l6 16c3 9 6 20 6 25v9h-50v20h60v50H704l-12-70zm129 3c-7-38-13-78-15-90l-3-23h57l1 23v22l16-22 15-23h29c33 0 34 1 14 39l-14 29 19 17 20 18v56l-19 11c-11 5-40 10-64 10h-45l-11-67zm79 8c0-6-4-13-10-16l-10-6v15c0 9 5 16 10 16 6 0 10-4 10-9zm97 52c-7-11-27-123-27-150v-23h48l6 23 7 22 11-22 11-23h69l-21 33-20 33 19 17 20 17v59l-19 11c-23 12-98 14-104 3zm71-55c-2-6-10-14-16-16l-12-4v32h32l-4-12zm72 53c0-6 9-26 21-46l21-35-7-45-6-45h58l6 40 5 41 36 39c20 22 36 45 36 50v10h-58l-14-22-15-22-12 22-12 22h-59v-9zm278-11c-14-10-31-33-38-49l-12-31 6-25c4-14 15-34 26-45l20-20h70l10 26c6 14 10 29 10 33v8l-37-1-38-1-3 21-3 20 21 19 20 18 24-11 24-11 6 25c4 14 4 29 1 34l-6 10h-76l-25-20zm140-46-28-15-6-23c-3-14-4-32-2-42l3-18 26-15 25-14 27 7c15 3 36 15 47 26l20 20v59l-22 15c-28 20-55 20-90 0zm60-51-3-18-23-3-22-3v14c0 19 10 27 32 27h19l-3-17zm340 60-37-4-10-52c-6-29-13-69-17-89l-6-38h53l5 29 6 30 14-6 14-5 31 12 31 13 9 24c5 13 9 31 9 39 0 18-36 55-52 52-7-1-30-3-50-5zm45-49c3-3 3-12 0-20l-5-14h-38v13c0 23 27 37 43 21zm93 35-26-20v-78l20-11 20-11 47 8 48 8 8 54c5 29 7 54 5 55-1 2-24 6-50 9l-46 6-26-20zm64-49v-20h-40v13c0 17 10 27 27 27h13v-20zm-474 29c-3-18-6-44-6-60v-29h50v24c0 32 10 56 22 56h11l-6-40-5-40h49l3 13c3 6 7 24 10 40l6 27h22l-7-41-7-41 28 4 29 3 6 39c4 21 4 47 2 57l-5 18h-98l-98 1-6-31zm549-6c-3-21-8-48-11-61l-5-23 28 3 28 3 5 34 5 34 14 5 13 4-4-41-4-41h54l7 50 7 49-7 11-6 10h-118l-6-37zm145 32c0-3 7-22 15-42 20-48 19-65-6-97l-22-27 11-11 10-10 21 7 21 6 14 27c8 15 33 51 55 81 23 30 41 58 41 63v8h-55l-16-26-16-26-7 26-6 26h-30c-17 0-30-2-30-5z"/></g><g fill="#9bb3ce" transform="matrix(.1 0 0 -.1 0 300)"><path d="M424 2343c-4-27-17-109-29-183l-21-135-105-5-104-5-12-65c-7-36-12-77-13-92v-28h206l-22-142c-13-79-26-162-30-185l-6-43h420l53 17 54 17 55 56 56 55 17 54 17 53v148l-36 40-37 40-24 6-23 6 38 42 39 43 18 52 17 53-4 71-3 72-24 34-24 33-41 19-41 19H431l-7-47zm301-163 18-20v-30c0-61-31-93-101-105l-42-7v28c0 15 5 56 11 91l11 63h85l18-20zm-15-355 30-15 5-23 6-22-13-40-13-40-35-17-35-18H540v20c0 10 5 53 11 95l11 75h119l29-15zm447 183c-166-375-237-538-237-547v-11h167l27 60 27 60h198l12-60 12-60h157v23c0 12-25 160-57 330l-57 307h-203l-46-102zm163-275c0-2-25-3-55-3h-55v8c0 4 16 51 37 105l37 98 18-103c9-57 17-104 18-105zm190 373c0-2 34-75 75-161l75-158v-36c0-20-9-89-20-154s-20-123-20-128v-9h158l6 28c3 15 15 82 25 150l20 124 14 21c8 12 65 83 126 157 62 74 117 143 122 153l10 17h-189l-43-57c-23-32-53-71-66-86l-23-29-41 86-40 86h-94c-52 0-95-2-95-4zm1007-393c-4-3-10-27-13-53l-6-47-42 4-42 5-32-32-32-32v-78l21-21 20-20 67 7c37 3 69 8 72 11 7 7 48 247 43 256s-47 9-56 0zm-42-179v-29l-28-3-27-3-7 17-6 17 23 19c13 10 28 17 34 15l11-4v-29zm-380 144c-8-24-35-180-35-204v-24h140v9c0 5 3 16 6 25l6 16h-79l13 73c7 39 13 82 13 95l1 22h-61l-4-12zm172-14c-4-4-7-18-7-31v-23h-26v-160h55l5 18c3 9 8 33 11 54l7 36 19 5 19 5v42h-31l3 28 3 27-25 3c-14 2-29 0-33-4zm319-157-18-13 4-25 3-24h58l11 18 11 17-11 18c-15 22-35 26-58 9zM51 1338c-6-29-17-96-26-148S7 1083 4 1068l-6-28h2940l6 28c3 15 15 83 26 152s23 135 25 148l5 22H61l-10-52zm246-521c-26-46-47-87-47-90 0-4 11-7 25-7h26l5 15 6 15h56l6-15 5-15h51l-1 18c0 9-8 49-17 87l-17 70-26 3-25 3-47-84zm59-24c-11-11-17 4-9 23l7 19 4-18c2-10 1-21-2-24zm189 95c-7-20-25-130-25-150v-18h107l16 18c19 21 22 53 6 69l-11 11 11 6c15 9 14 49-1 64l-12 12h-87l-4-12zm65-43c0-8-4-15-10-15-5 0-10 7-10 15s5 15 10 15c6 0 10-7 10-15zm0-70v-15h-39l5 15c4 8 12 15 20 15h14v-15zm95 113c-6-20-25-129-25-150v-18h98l6 16c9 23 8 24-19 24h-25v20h39l11 19c14 28 13 31-15 31h-25v19l28 3 27 3v40l-48 3-47 3-5-13zm132 5c-7-11-27-123-27-150v-23h49l3 28 4 27 14-27 13-28h29c33 0 33 2 12 35l-16 24 21 27c12 15 21 35 21 45v18l-22 15-22 16h-38c-20 0-39-3-41-7zm71-51 4-12-17-6c-20-8-27-1-19 20l6 17 11-4c6-2 13-9 15-15zm88 46c-8-25-26-132-26-150v-18h50v40h9c5 0 13-9 16-20l6-20h30c33 0 34 1 14 39l-14 29 19 17 20 18v57l-26 10c-14 6-41 10-60 10h-35l-3-12zm69-48c0-7-6-15-12-17l-13-5v44l13-4c6-3 12-11 12-18zm75 55c0-3 10-24 21-47l21-42-6-43-6-44 27 3 28 3 6 36 5 36 22 30c11 16 28 36 37 43 8 7 15 16 15 21v9h-44l-23-22-23-22-16 22-15 22h-25c-13 0-24-2-24-5zm292-8c-12-7-29-23-37-35l-16-21-1-37-1-37 27-24 27-23h22c30 0 43 10 50 39l6 23-27-5c-14-3-32-3-39 0l-13 5v47l17 16 16 17 29-6 28-5v59h-32c-18-1-43-6-56-13zm120-62-32-27v-48l21-21 21-21 32 6 31 6 23 26c25 28 28 52 10 77l-13 17-31 6-30 6-32-27zm66-42-3-18-23-3-22-3v14c0 19 10 27 32 27h19l-3-17zm340 60c-21-2-38-5-38-6s-7-40-15-87-15-86-15-87c0-2 11-3 24-3h24l6 30 6 30 25-6 24-6 31 30 30 30v42l-20 20c-11 11-26 19-32 18-7-1-30-3-50-5zm52-47c0-2-3-11-6-20l-6-16h-38v40h25c14 0 25-2 25-4zm110 47c-8-3-23-12-32-21l-18-15v-76l18-10 17-9 47 5 47 6 5 16c2 9 8 35 11 59l7 42h-30c-17 0-36 2-44 4-7 3-20 2-28-1zm40-63v-20h-18c-24 0-32 8-25 26l5 14h38v-20zm-474 22c-3-20-6-47-6-60v-23l23 3 22 3 5 34 5 34 14 5 13 4-4-41-4-41h46l6 28c10 45 13 52 25 52h12l-7-40-6-40h50l6 24c3 13 4 38 2 57l-3 34-96 2-97 2-6-37zm550 7c-3-17-6-44-6-60v-29h38l9 37 8 36 13 5 12 4v-83l22 3 23 3 7 44 8 44-11 14-11 13h-105l-7-31zm164-21 20-53-25-35-25-35 15-3c9-2 22-1 30 1 12 5 61 71 108 148l19 29h-52l-17-26-16-26-14 26-14 26h-49l20-52z"/></g><g fill="#517bab" transform="matrix(.1 0 0 -.1 0 300)"><path d="M407 2213c-15-98-27-181-27-185v-8H170l-5-22c-9-41-25-141-25-155v-13h210l-4-22c-3-13-15-86-26-163s-23-150-26-163l-5-23 223 3 223 3 46 21c25 12 61 36 82 53l36 32 27 56 28 56 4 81 4 81-24 35-23 35-40 20-40 21 28 23 28 23 25 51 26 51 5 75 5 76-24 45-23 45-35 20-35 20-201 3-200 4-27-179zm321-33 22-21v-20c0-11-7-35-15-55l-14-35-35-14c-20-8-49-15-66-15h-30v8c0 10 18 116 25 150l5 22h86l22-20zm-8-359 25-18 3-22c2-12-2-37-8-57l-12-36-32-19-31-19H537l7 76c4 41 11 85 16 98l8 22 64-4 63-4 25-17zm342-34c-78-178-142-327-142-330 0-4 37-7 83-7h82l26 58 26 59 33 6c18 4 63 7 101 7h69l5-22c3-13 9-41 13-63l8-40 77-3 77-3v16c0 9-23 138-51 288s-54 290-57 312l-8 40-100 3-100 3-142-324zm253-19 7-48h-124l6 18c4 9 23 60 44 112l36 95 12-65c7-36 15-86 19-112zm205 328c0-8 34-84 76-169l76-155-21-128c-12-71-24-141-27-156l-6-28h160l5 33c3 17 13 84 23 147l16 115 16 25c8 14 33 45 53 70 113 133 199 242 199 251v9h-175l-64-85c-36-47-67-85-71-85-3 0-23 38-44 85l-38 85h-178v-14zm986-436-7-50-39 6-40 6-35-35-35-35v-69l24-23 25-23 28 7c15 4 45 7 65 6l36-1 11 53c18 95 31 171 31 190v18h-57l-7-50zm-22-112 11-18-23-22-22-23-18 11c-9 6-18 18-20 26l-3 16 17 16 16 17 16-3c8-2 20-11 26-20zm-389 120c-11-50-35-184-35-200v-18h140v50h-35c-19 0-35 2-35 4s7 40 15 83 15 84 15 91v12h-60l-5-22zm165-29v-22l-17-13-18-13 11-19 12-18-9-45c-4-24-8-47-9-51 0-5 13-8 30-8h29l6 38c4 20 9 45 12 55l4 17h14c12 0 25 21 25 41 0 5-7 9-16 9h-16l4 25 5 25h-67v-21zm332-135-22-15v-37l16-6c9-4 25-4 35-1l18 6 6 20 7 20-12 14c-16 19-20 19-48-1zM36 1233c-15-87-30-166-33-175l-4-18h2941v13c0 6 13 85 29 175l28 162H63l-27-157zm987-340-23-4-5-22c-18-80-25-114-25-129v-18h50v50h8c5 0 14-11 20-25l12-25h52l-4 8c-2 4-10 19-17 33l-13 27 21 21 21 21v19c0 32-47 53-97 44zm45-56 3-17h-41v13c0 31 32 34 38 4zm176 38-24-24-10 20-11 19h-59l20-32 20-33V720h40l6 42 7 42 39 42 38 42-21 5-21 6-24-24zm200 15c-12-4-31-21-43-36l-21-27v-74l18-15c9-9 27-19 39-22l22-7 21 11 20 11v39l-29-6-29-6-10 19-11 19 13 25 12 24 38-1 37-1-3 26-3 26-25 2c-14 1-35-2-46-7zM303 823c-22-38-42-76-46-85l-6-18h47l6 15 5 15h71v-31l23 3 22 3v10c0 6-7 43-14 83l-14 72h-55l-39-67zm67-25c0-5-9-8-20-8h-21l12 21 11 22 9-14c5-8 9-17 9-21zm176 75c-6-21-26-133-26-145v-8h96l22 16 22 15v24c0 13-5 27-10 30l-10 6 11 20 10 20-6 19-6 20h-98l-5-17zm69-23 6-10-16-6c-19-8-30 0-20 15 8 14 22 14 30 1zm-5-75v-15h-40v30h40v-15zm96 98c-6-21-26-133-26-145v-8h100v40h-49l5 15 6 15h48v40h-49l5 15 6 15h58v30h-99l-5-17zm115-52c-6-39-11-77-11-85v-16h38l10 28 9 27 13-27 13-28h57l-17 34-16 34 22 23c24 26 25 33 11 60l-11 19H833l-12-69zm84 19v-15l-17-3-18-3v42l18-3 17-3v-15zm636-26c-26-33-27-56-3-77l19-17h64l24 25 25 24v38l-18 16-19 17h-72l-20-26zm77-31 3-20-16-7c-22-8-35 1-35 24v18l13 5c20 9 32 2 35-20zm78 48c-3-4-8-31-12-59l-7-52h41l11 46 12 45 12-4 12-4-3-41-4-42h40l7 40 7 40h9c5 0 12 1 16 3l8 2-3-42-4-43h41l7 45c3 25 4 52 0 60l-5 15h-25c-14 0-28-5-31-10l-7-11-11 10-12 9h-47c-27 0-50-3-52-7zm230 0c-6-10-26-123-26-148v-23h39l3 27 3 28 37 6c20 3 44 11 52 19l16 12v66l-12 10-13 10h-48c-26-1-49-4-51-7zm81-37 6-16-17-16-16-16-16 15-15 16 16 17c21 20 34 20 42 0zm85 23-22-23v-25c0-14 5-30 12-37l12-12h104l6 31c3 17 6 44 6 60v29h-97l-21-23zm78-32c0-7-7-18-15-25l-15-12-15 6-15 5v15c0 18 29 36 47 29 7-3 13-11 13-18zm75 46c-2-4-7-31-11-59l-7-52h40l9 43 9 42h30l-3-42-4-43h42l6 24c3 13 4 38 2 57l-3 34-53 1c-29 1-54-2-57-5zm145 2c0-5 7-29 16-54l17-46-28-37-27-36h51l55 81c60 87 65 99 39 99h-17l-22-27-22-28-11 28-11 27h-20c-11 0-20-3-20-7z"/></g><g fill="#034288" transform="matrix(.1 0 0 -.1 0 300)"><path d="m480 2383-46-4-23-157c-12-86-25-167-28-179l-5-23H172l-11-67c-6-38-14-80-17-95l-6-28h212v-12c0-7-11-80-25-161-14-82-25-160-25-174v-25l213 4 212 3 49 23c28 12 64 34 82 47l32 25 30 60 31 60 6 54 7 54-7 42-7 41-33 34-34 33-32 7-31 7 26 17c34 23 72 75 88 120l12 36v70l1 70-20 34c-11 19-32 43-47 54l-27 20-48 8c-48 8-236 9-323 2zm253-204 19-24-5-39-6-39-24-25-25-25-51-5-51-5v18c0 21 19 144 26 164l4 14 47-6 47-5 19-23zm-51-339c21-6 44-18 53-26l15-15v-81l-33-33-33-33-68-7-68-7-9 9-9 9 11 85c7 46 16 90 22 97l9 12h37c20 0 53-5 73-10zm519 251c-6-10-60-130-120-267s-121-275-135-306l-26-58h167l26 60 26 60h208l9-57 9-58 78-3c42-2 77 0 77 2 0 7-108 591-115 624l-5 22h-189l-10-19zm104-237c8-49 15-99 15-111v-23h-120v9c0 15 83 222 87 217 2-2 10-43 18-92zm215 242c0-2 34-75 76-163l76-158-21-140c-12-77-21-148-21-158v-18l73 3 72 3 19 120c10 66 22 137 27 157l10 37 97 118c53 65 112 138 130 161l34 42h-180l-61-80c-34-44-66-80-70-80s-25 36-46 80l-39 80h-88c-48 0-88-2-88-4zm997-403c-3-10-8-35-11-55l-7-37-29 10-28 10-29-15c-40-20-53-38-60-79l-5-36 26-26 27-27 27 7c15 4 43 7 63 6l36-2 16 88c9 48 19 107 23 131l7 42h-52l-4-17zm-30-139 6-15-12-25-11-25-28 3-27 3-3 23-4 23 12 15 12 14h49l6-16zm-406 24c-12-62-21-117-21-121v-8l68 3 67 3 3 23 3 22h-35c-20 0-36 3-36 8 0 4 7 45 15 92s15 86 15 88c0 1-13 2-29 2h-29l-21-112zm189 68c0-8-6-21-13-28s-16-21-19-30l-7-17 10-3 10-3-9-58-9-57h56l7 56 7 57 18 4 19 5v38h-27l5 25 4 25h-52v-14zm309-158-12-21 18-13 18-13 18 10 19 10v49h-49l-12-22zM65 1378c-8-22-55-295-55-317v-21l1463 2 1462 3 27 155c15 85 27 163 27 173l1 17H69l-4-12zm1387-490-33-9-19-32-20-32v-55l21-21 20-20 37 3 37 3 3 21 3 21-26-4-25-5-15 12c-20 17-19 43 3 63l19 17h63v38l-17 4c-10 3-33 1-51-4zM302 816c-23-40-42-79-42-85 0-16 25-14 40 4l12 15h68v-30h43l-7 46c-3 26-11 64-16 85l-11 39h-45l-42-74zm68-18v-18h-20c-23 0-24 1-8 35l11 26 9-13c4-7 8-21 8-30zm176 68c-3-14-9-53-13-86l-6-60h36c20 0 47 4 61 10l25 9 7 25 6 25-8 13c-5 7-9 29-9 48v35l-46 3-47 3-6-25zm72-23-3-18-18-3-17-3v41h41l-3-17zm2-68c0-12-21-25-41-25-5 0-9 9-9 19v19l13 5c18 6 37-3 37-18zm86 90c-3-13-9-52-13-85l-6-61 44 3 44 3 3 18 3 17h-53l4 13 5 12 26 3 27 3v29h-50v40h60v30h-88l-6-25zm131 18c-3-5-7-30-11-58-4-27-9-62-12-77l-6-28h39l10 33 9 32 17-32 18-33h19c24 0 24 3 5 39l-14 29 19 17 20 18v55l-16 6c-22 9-92 7-97-1zm73-42v-19l-16-6c-23-9-24-8-24 19v25h40v-19zm86 24c-3-13-9-52-13-86l-6-61 19 4 19 3 5 30 6 30 17-32 18-33h49l-17 36-17 35 10 7c6 4 16 17 23 30l12 22-11 20-11 20h-97l-6-25zm74-24v-19l-16-6c-23-9-24-8-24 19v25h40v-19zm80 44c0-3 9-22 20-42l19-36-6-44-6-43h40l7 42 7 41 37 41 37 41-24 3-23 4-15-21c-18-26-30-27-38-1l-6 20h-25c-13 0-24-2-24-5zm412-52c-7-3-19-18-28-35l-15-30 16-24 15-24h70l20 20 20 20v56l-12 12-12 12-30-1c-17 0-37-3-44-6zm61-35c2-7 0-21-5-30l-9-18h-37l-6 16-6 17 11 13c6 8 20 14 29 14h18l5-12zm112 35c-39-6-41-9-49-65l-7-48h37l10 42 9 43 19 3 19 4-7-47-7-47 17 4 17 3 11 40 12 40 17 3 17 3-7-46-6-47 19 4 19 3 9 43 9 43-16 16-16 17-24-11-24-11-14 9c-8 5-18 8-24 7-5 0-23-3-40-5zm219 0-30-4-12-70c-7-38-12-76-12-85v-15l17 3 18 3 5 30 5 30 30-3 30-3 23 21 22 21v55l-12 12c-12 12-24 13-84 5zm51-53v-25l-23-3-22-3-6 15-6 16 12 16 13 15 16-3 16-3v-25zm90 36-25-25v-19c0-10 6-26 13-35l12-17 50 3 50 2 9 47c5 27 7 50 5 52s-23 7-46 11l-42 7-26-26zm70-36v-25l-23-3-22-3-6 15-6 16 12 16 13 15 16-3 16-3v-25zm114 53-37-4-6-51c-8-55-5-63 19-55l15 6v21c0 12 5 30 10 41l11 19h31l-6-45-7-45h39l6 31c3 17 6 42 6 54v23l-16 6c-9 3-19 5-22 4-4-1-23-3-43-5zm215-1c-6-4-17-18-24-31l-13-25-14 27-14 27h-41l6-12c2-7 10-29 17-50l12-36-22-30c-26-37-26-42-3-42h19l52 78c29 42 52 81 52 87 1 13-13 16-27 7z"/></g><g fill="#343638" transform="matrix(.1 0 0 -.1 0 300)"><path d="M65 1378c-8-22-55-295-55-317v-21l1463 2 1462 3 27 155c15 85 27 163 27 173l1 17H69l-4-12z"/></g></g></svg>