<?xml version="1.0" encoding="utf-8" standalone="yes"?><svg xmlns="http://www.w3.org/2000/svg" xmlns:xlink="http://www.w3.org/1999/xlink" version="1.2" baseProfile="tiny-ps" viewBox="0 0 306 306" xml:space="preserve"><title>Yardbarker</title><rect fill="#FFFFFF" width="306" height="306"></rect><path d="M217.6,149.2v-0.4c15.2-3.2,21.5-16.7,21.5-31.8c0-21.2-11.9-35.3-37.5-35.3h-24l-35,86v55.8h59c29.8,0,41.4-17.3,41.4-41.9  C243,166.9,235.7,151,217.6,149.2z M183.4,108.3h8.7c7.3,0,11.4,6.8,11.4,14.7c0,7.5-4,14.3-11.4,14.3h-8.7V108.3z M193.4,196.9h-10  v-34.5h10c6.5,0,12.7,6.2,12.7,17.1C206.1,190.9,199.9,196.9,193.4,196.9z"></path><path fill="#9D262A" d="M98,167.7l-35-86h39.2l13.5,49.4h0.4l13.5-49.4h39.2l-35,86v55.8H98V167.7L98,167.7z"></path></svg>