<?xml version="1.0" encoding="UTF-8"?>
<svg xmlns="http://www.w3.org/2000/svg" baseProfile="tiny-ps" xmlns:xlink="http://www.w3.org/1999/xlink" version="1.2" id="Layer_1" viewBox="0 0 300 300" xml:space="preserve">
<title>Bank of Guam</title>
<g>
	<rect fill="#FFFFFF" width="300" height="300"></rect>
	<path fill="#749D33" d="M250.78,201.82c-1.57-1.81-3.65-3.06-6.12-3.79c0,0-12.01-12.29-15.96-26.48l0,0   c-13.31-51.48-50.29-46.41-52.88-63.86c0,0-34.16,8.7-45.23,56.23c0,0-2.64-12.91,10.68-39.73c6.21-12.51,4.79-17.01-1.71-31.35   c-1.14-2.52-2.19-5.32-2.86-8.48c4.65,7.8,10.26,14.67,15.26,17.72c4.66,2.84,10.32,3.54,15.55,2.01   c7.94-2.32,24.12-8.08,37.83-9.04c-7.19,1.69-14.02,5.17-14.02,5.17c14.12,8.84,18-4.59,18-4.59c1.59-0.2,7.55-6.51,8.25-12.37   c0.1-1.1-0.14-2.89-0.14-2.89c-0.79-3.24-4.9-7.71-14.76-8.41c0.1,0-9.23-2.78-17.61-5.42c3.18-0.01,4.34,0.1,6.96,0.4   c4.89-5.23-11.16-11.97-11.16-11.97s10.27,8.94-5.66,8.73c-3.46-0.93-3.48-0.88-7-1.68c-10.05-2.29-20.1-4.01-30.11-5.18   c-1.7-0.2-3.41,0.35-4.69,1.49l-0.02,0.02l4.2,4.43c0,0-1.04-0.16-1.47-0.29c-0.43-0.13-1.09-0.49-1.45-0.98   c-1.44-1.93-4.21-3.52-8.96-4.2l0,0C53.29,46.8,78.09,37.67,78.09,37.67c-13.01-1.95-41.21,24.86,42.49,36.53   c4.77,0.71,10.94-3.22,13.02-7.21c0,0-3.36-0.09-4.59-0.55c-1.23-0.46-3.49-0.99-4.57-1.14s-3.24-0.38-4.31-0.54   c-1.08-0.15-2.54-1-4.16-1.16c-1.62-0.15-6.47-0.92-8.63-1.77c-2.16-0.85-5.24-1.46-5.93-1.54s-3.85-0.92-5.01-1.31   c-1.16-0.39-3.08-0.85-3.7-0.92c-0.62-0.08-7.28-2.5-7.93-3.08c-0.17-0.1-0.18-0.16-0.33-0.26c30.95,7.73,53.55,9.83,53.55,9.83   s-2.66,21.29-38.69,11.44c-2.97,2.01-10.19,7.8-12.97,11.25c-0.58,0.72-0.09,1.79,0.83,1.8c4.99,0.1,7.54,2.26,14.24,4.35   c0.73-0.85,1.46-1.7,2.2-2.53c0.25-0.28,0.71-0.19,0.82,0.17c0.29,0.93,0.52,2.57,0.53,3.47c22.03,6.06,30.39-13.88,30.39-13.88   c-4.47,17.91-22.79,24.5-22.79,24.5S71.73,156.3,89.26,272.43h13.44c0.68-25.16,5.85-38.05,14.16-52.34   c-6.6-6.41-10.69-15.33-10.69-25.2c0-0.8,0.03-1.6,0.08-2.38c1.47,16.39,23.48,29.63,35.62,30.97   c11.38-1.31,34.14-14.58,35.62-30.97c0.05,0.79,0.08,1.58,0.08,2.38c0,9.41-3.72,17.96-9.78,24.3   c9.2,14.74,14.73,28.19,14.23,53.25h13.31c0,0,10.73-58.02-3.25-101.78c9.77,15.38,12.18,38.79,12.18,38.79c0-0.01,0-0.01,0-0.02   c0,0.01,0,0.02,0,0.02s10.18-2.89,16.8-26.32c0,8.84-6.21,22.64-9.62,29.06c6.14,22.98,2.32,52.23,2.32,52.23h10.89   c6.83-34.65,10.04-59.54,7.07-78.78c4.27,6.47,8.47,10.57,11.58,13.64c0.4,2.44,1.76,4.45,3.27,6.19c1.79,2.07,4.26,3.41,7.21,4.08   C253.55,206.52,252.58,203.89,250.78,201.82z M200.57,76.89c2.54,1.12,6.64,2.3,9.81,2.46c0.51,0.03,1.01,0.18,1.12,0.63   c0.6,2.44-1.74,4.6-3.3,5.04c-0.91,0.26-1.89,0.02-2.65-0.5c-2.96-2.05-4.7-5.44-5.71-6.89C199.53,77.19,200.05,76.66,200.57,76.89   z M164.04,70.02c2.84,0.65,5.65,1.36,8.44,2.12v0.01c-0.32,0.68-1,1.11-1.75,1.11c-4.1,0.01-9.06,0.29-13.24,0.72   c-2.84,0.29-5.6-1.05-7.1-3.48c-0.79-1.29-1.59-2.55-2.39-3.52C153.34,67.79,158.69,68.8,164.04,70.02z"></path>
</g>
</svg>
