<?xml version="1.0" encoding="utf-8"?>
<!-- Generator: Adobe Illustrator 26.2.1, SVG Export Plug-In . SVG Version: 6.00 Build 0)  -->
<svg version="1.2" baseProfile="tiny-ps" xmlns:xlink="http://www.w3.org/1999/xlink" viewBox="0 0 800 800" xmlns="http://www.w3.org/2000/svg">
  <title>St. James's Place</title>
<g>
	<rect y="0" fill="#FFFFFF" width="800" height="800" />
	<path fill="#0A1428" d="M120.2,512.4l-0.2-54.5h0.7l50.1,50.2c1.7,2,9,7.6,21.9,7.6c29.2,0,48.9-15,48.9-41.6   c0-24.4-16.8-35.8-50.8-51.1l-15.2-6.9c-31.4-14.2-63.5-36.8-63.5-80.6c0-46.7,37.6-76.6,95.9-76.6c23.8,0,47.6,2.7,70.8,8.1v54.3   h-1.1l-49.6-49.5c-3.7-3.9-9.7-5.8-17.9-5.8c-25.2,0-43,14.2-43,39.8c0,22.3,16.4,32.8,42.3,45.2l16.8,8.1   c39,18.6,72.2,36.6,72.2,80.2c0,49.6-41.2,83.5-103.2,83.5C170,522.4,144.8,518.9,120.2,512.4z M347.6,487V242.2   c0-4.7-0.7-5.8-3.6-8.7l-23.1-23.1v-0.7h120.9v0.7l-23.1,23.1c-3.3,3.3-3.6,4.1-3.6,8.7v234.2c0,64.5-39.4,111.9-116.1,114   l-0.3-0.7C332.4,570.9,347.6,539.6,347.6,487L347.6,487z M577.6,423.9c65.3,0,110.2-25.5,110.2-83.9c0-58.7-50-77.3-100.7-77.3   H460.6v0.7l23.4,23.4c3.3,2.9,3.7,4.1,3.7,8.8v190.9c0,4.8-0.4,5.8-3.7,8.8l-23.4,23.3v0.7h120.7v-0.7l-23.4-23.3   c-3.3-2.9-3.7-4.1-3.7-8.8v-62.5L577.6,423.9z M554.3,276.9c0-6.2,1.1-6.9,6.6-6.9h13.5c27,0,42.3,29.5,42.3,71.9   c0,45.2-16.4,74.8-46.3,74.8h-16.1V276.9z" />
</g>
</svg>