<?xml version="1.0" encoding="utf-8"?>
<!-- Generator: Adobe Illustrator 25.2.3, SVG Export Plug-In . SVG Version: 6.00 Build 0)  -->
<svg version="1.2" baseProfile="tiny-ps" id="Layer_1" xmlns="http://www.w3.org/2000/svg" xmlns:xlink="http://www.w3.org/1999/xlink"
	 viewBox="0 0 80 80" xml:space="preserve">
<title>BullionStar</title>
<rect x="0.4" y="0.4" fill="#FFFFFF" width="80" height="80"/>
<polygon fill="#AA6527" points="12.7,31.6 12.7,65.5 22.7,54.7 26.8,41.9 "/>
<polygon fill="#AA6527" points="35.6,15 12.7,15 12.7,31.6 30.2,31.6 "/>
<path fill="#AA6527" d="M40.9,31.6h3l15-16.2C58,15.2,57.2,15,56.4,15l0,0H35.6L40.9,31.6L40.9,31.6z"/>
<path fill="#FFFFFF" d="M35.6,15L35.6,15L35.6,15z"/>
<path fill="#DA852A" d="M64.6,43.5c-0.8-0.8-1.6-1.3-2.4-1.8c-0.8-0.5-2.1-1-3.5-1.4v-0.2c0.2,0,0.3-0.2,0.3-0.2
	c0.8-0.2,1.6-0.5,2.4-0.8c0.3-0.2,0.6-0.3,1-0.5c0.8-0.3,1.6-1,2.4-1.6c2.7-2.4,4.1-5.4,4.1-9.4l0,0l0,0c0-1.8-0.3-3.5-1.1-5.1
	c-0.6-1.4-1.6-2.9-2.7-4l0,0c0,0,0-0.2-0.2-0.2c-0.2-0.2-0.2-0.2-0.3-0.3c-0.3-0.2-0.5-0.5-0.8-0.6c-0.2-0.2-0.3-0.3-0.5-0.3
	c-0.6-0.5-1.3-0.8-1.9-1.1L15.9,65.5h40.4h0.2l0,0c1.8,0,3.2-0.3,4.8-1c1.4-0.6,2.9-1.4,4-2.7c1.1-1.1,2.1-2.4,2.7-4
	c0.6-1.4,1-3,1-4.8C68.9,49.4,67.4,46.1,64.6,43.5z"/>
</svg>
