<?xml version="1.0" encoding="UTF-8"?>
<!-- Generator: Adobe Illustrator 26.0.1, SVG Export Plug-In . SVG Version: 6.00 Build 0)  -->
<svg version="1.2" baseProfile="tiny-ps" id="MONO_x5F_BLACK"
	 xmlns="http://www.w3.org/2000/svg" xmlns:xlink="http://www.w3.org/1999/xlink" viewBox="0 0 141.7 86.8" xml:space="preserve">
	<title>Sky</title>
	<path id="Sky_Logo_1_" d="M97.8,85.4c1.2,0.6,3.5,1.3,6.5,1.4c5.1,0.1,7.9-1.8,10-6.4l27.4-61.2c-1.1-0.6-3.6-1.3-5.7-1.3
		c-3.5-0.1-8.3,0.6-11.3,7.9l-8.9,21L98.5,18.3c-1.1-0.3-3.9-0.8-5.9-0.8c-6.2,0-9.6,2.3-13.2,6.1L62.5,42.1l13.6,21.4
		c2.5,3.9,5.8,5.9,11.2,5.9c3.5,0,6.5-0.8,7.8-1.5L78.8,43.3l11.6-12.3l19.1,29.9L97.8,85.4z M61.8,62.2c0,4.5-1.8,7.1-10.6,7.1
		c-1.2,0-2.2-0.1-3.2-0.2V9.3c0-4.6,1.5-9.3,10.4-9.3c1.1,0,2.3,0.1,3.3,0.3V62.2z M43.7,53.2c0,8.4-5.5,14.6-16.7,15.8
		c-8.1,0.9-19.8-0.2-25.4-0.8c-0.2-0.9-0.3-2-0.3-2.9c0-7.3,4-9,7.7-9c3.9,0,10,0.7,14.5,0.7c5,0,6.5-1.7,6.5-3.3c0-2.1-2-3-5.9-3.7
		l-10.6-2C4.7,46.1,0,40,0,33.6c0-7.9,5.6-14.4,16.5-15.7c8.3-0.9,18.4,0.1,23.9,0.8c0.2,0.9,0.3,1.8,0.3,2.8c0,7.3-3.9,8.9-7.6,8.9
		c-2.9,0-7.3-0.5-12.4-0.5c-5.2,0-7.3,1.4-7.3,3.2c0,1.8,2,2.6,5.3,3.2l10.1,1.9C39.2,40,43.7,45.9,43.7,53.2z"/>
</svg>
