<svg xmlns="http://www.w3.org/2000/svg" xmlns:xlink="http://www.w3.org/1999/xlink" version="1.2" viewBox="0 0 400 400" baseProfile="tiny-ps">  <title>campus</title>  <rect width="400" height="400" fill="#4F50FF"/>  <path d="M90.891,185.353c0,0-2.576-3.251-7.054-3.251c-5.234,0-9.507,4.437-9.507,10.366  c0,5.888,3.864,9.978,8.873,10.182c3.803,0.164,6.031-1.165,8.035-2.965l7.033,8.587c0,0-5.459,5.664-14.577,5.664  c-11.143,0-22.694-6.44-22.694-21.468c-0.02-15.15,12.104-21.467,22.612-21.467c9.119,0,14.802,5.643,14.802,5.643L90.891,185.353z" fill="#FFFFFF"/>  <path d="M130.719,173.719c-5.663-3.435-18.646-5.03-28.767,4.109l6.482,7.197c0,0,4.804-4.375,10.202-4.13  c5.07,0.245,7.299,2.597,7.299,6.113c0,0-8.301,0.021-13.699,0.9c-5.581,0.899-11.388,4.089-12.246,11.613  c-0.879,7.728,4.211,14.414,14.189,14.414c5.724,0,9.691-2.577,11.899-6.073h0.715v4.785h11.695c0,0,0-9.119,0-20.343  C138.488,181.099,135.462,176.602,130.719,173.719z M118.002,204.387c-3.414,0-5.766-1.575-5.766-4.192  c0-5.234,7.994-5.479,14.108-5.479C126.344,199.5,124.524,204.387,118.002,204.387z" fill="#FFFFFF"/>  <path d="M238.731,171.164c-6.215,0-10.734,3.066-12.881,6.072h-0.715v-4.948H212.97v56.695l6.726-4.355  l6.727,4.355V208.21c0,0,3.557,5.766,12.247,5.766c11.101,0,19.198-9.057,19.198-21.652  C257.868,180.446,250.119,171.164,238.731,171.164z M235.521,202.772c-5.091,0-9.732-4.416-9.732-10.386  c0-5.868,4.702-10.386,9.732-10.386s9.487,4.375,9.487,10.284C244.987,198.519,240.612,202.772,235.521,202.772z" fill="#FFFFFF"/>  <path d="M301.705,212.688h-12.268v-5.602h-0.715c-1.738,3.516-6.297,6.89-12.145,6.89  c-8.607,0-14.679-6.154-14.679-16.683c0-11.981,0-24.964,0-24.964h13.371c0,0,0,15.661,0,22.04c0,5.725,1.983,8.423,6.011,8.423  c4.498,0,7.135-3.864,7.135-8.689c0-4.477,0-21.815,0-21.815h13.29V212.688z" fill="#FFFFFF"/>  <path d="M338.279,176.193c-4.253-3.332-9.916-5.193-15.355-5.193c-7.769,0-16.867,3.333-16.867,12.799  c0,6.992,5.909,10.468,12.104,12.369c3.925,1.186,8.505,2.147,8.362,4.927c-0.103,2.27-2.29,3.129-4.887,2.822  c-3.475-0.409-7.156-1.942-10.999-4.846l-6.113,8.342c4.518,4.253,11.306,6.583,17.051,6.583c12.267,0,17.746-6.031,17.746-13.78  c0-5.213-3.373-8.75-8.791-10.836c-6.338-2.433-11.96-2.596-11.96-5.745c0-2.024,1.799-3.332,5.029-3.046  c3.067,0.286,5.97,1.165,9.139,3.516L338.279,176.193z" fill="#FFFFFF"/>  <path d="M208.166,212.688c0,0,0-14.986,0-24.964c0-9.977-5.52-16.519-14.679-16.519  c-9.139,0-12.881,6.89-12.881,6.89c-0.715-1.391-3.414-6.89-12.144-6.89c-8.731,0-12.084,6.644-12.084,6.644h-0.736v-5.499h-12.349  v40.338h13.372c0,0,0-16.806,0-21.876c0-5.439,2.576-8.69,6.645-8.69c4.027,0,5.765,3.108,5.765,7.913c0,4.641,0,22.653,0,22.653  h13.371c0,0,0-16.806,0-21.876c0-5.439,2.576-8.69,6.645-8.69c4.028,0,5.766,3.108,5.766,7.913c0,4.641,0,22.653,0,22.653H208.166z" fill="#FFFFFF"/></svg>