<?xml version="1.0" encoding="UTF-8"?>
<svg id="Quanata_Q_Logo" xmlns="http://www.w3.org/2000/svg" baseProfile="tiny-ps" version="1.2" viewBox="0 0 1080 1080">
<title>Quanata Logo</title>
  <!-- Generator: Adobe Illustrator 29.0.1, SVG Export Plug-In . SVG Version: 2.1.0 Build 192)  -->
  <path d="M1080,0H0v1080h1080V0Z" fill="#24263a"/>
  <path d="M199.71,488.17c19.85-172.38,156.65-298.17,325.86-298.17s306.01,125.78,325.67,297.4v.06s.01.06.01.06c1.42,13.81,2.42,36.98,2.42,51.99s-.99,38.18-2.42,51.99v.09s-.02.08-.02.08c-6.72,56.43-25.66,107.91-54.34,151.42l85.83,85.83-43.03,42.79s0,0,0,0c-19.35,19.34-50.94,19.34-70.28,0l-47.28-47.28c-54.63,41.3-122.48,65.57-196.56,65.57-169.19,0-306.01-125.58-325.86-297.58v-.07s-.01-.07-.01-.07c-1.42-13.81-2.41-36.98-2.41-51.99s.99-38.18,2.41-51.99v-.06s.01-.07.01-.07ZM221.18,490.58c-1.33,12.92-2.29,35.28-2.29,49.71s.97,36.79,2.29,49.71c18.68,161.56,146.68,278.38,304.38,278.38,72.52,0,138.52-24.85,190.68-66.77l7.56-6.07,60.88,60.88c10.91,10.91,28.82,10.91,39.73,0l.02-.02,27.68-27.53-79.59-79.59v-8.85l1.94-2.78c29.19-41.89,48.61-92.42,55.3-148.45,1.32-12.93,2.29-35.27,2.29-49.69s-.97-36.8-2.3-49.72c-18.49-161.16-146.48-278.18-304.19-278.18s-285.7,117-304.38,278.97ZM309.59,500.79c-.74,7.51-1.71,26.11-1.71,39.11s.78,31.37,1.69,39v.02c13.55,116.1,104.51,199.48,215.78,199.68,43.26-.17,83.04-12.62,116.66-34.67l-73.58-73.58,78.54-78.54,69.45,69.45c12.85-24.7,21.73-52.52,25.11-82.42.74-7.5,1.71-26.32,1.71-38.94s-.78-31.37-1.69-39v-.03c-13.55-116.12-104.53-199.68-215.99-199.68s-202.39,83.33-215.97,199.59ZM525.18,800.22c-122.81-.29-222.32-92.52-237.06-218.78-1.06-8.88-1.84-28.22-1.84-41.54s1-33.08,1.82-41.35v-.09s.02-.09.02-.09c14.74-126.52,114.34-218.79,237.45-218.79s222.71,92.47,237.45,218.78c1.05,8.88,1.84,28.22,1.84,41.54s-.99,32.89-1.82,41.16v.07s-.02.07-.02.07c-4.3,38.13-16.81,73.2-34.86,103.35l-7.12,11.89-74.06-74.06-47.98,47.98,76.26,76.26-10.04,7.47c-39.32,29.23-87.29,45.9-139.65,46.14h-.39Z" fill="#fff" fill-rule="evenodd"/>
</svg>