<svg xmlns="http://www.w3.org/2000/svg" xmlns:xlink="http://www.w3.org/1999/xlink" version="1.2" viewBox="0 0 800 800" baseProfile="tiny-ps">
  <title>Dive_Gear_Express_v4</title>
  <rect width="800" height="800"/>
  <path d="M635.43,745.5v-52.64c0,0-51.53-24.56-123.77-26.22c-2.94-21.1-7.4-41.7-13.29-61.7  c65.08-29.15,102.65-70.84,102.65-70.84l-20.14-48.62c0,0-56.99-2.97-124.37,23.13c-10.73-18.18-22.76-35.5-35.97-51.84  c49.02-51.86,67.8-104.8,67.8-104.8l-37.22-37.22c0,0-53.81,19.07-106.07,68.99c-16.76-12.65-34.47-24.11-53.02-34.23  c25.41-66.64,22.5-122.69,22.5-122.69l-48.62-20.14c0,0-42.37,38.18-71.56,104.24c-20.17-5.2-40.92-8.96-62.12-11.19  c-2.02-71.32-26.17-122.01-26.17-122.01H53.42c0,0-24.56,51.53-26.22,123.77c-9.17,1.28-18.23,2.9-27.2,4.74v149.38  c27.38-8.78,56.56-13.54,86.86-13.54c156.97,0,284.21,127.25,284.21,284.21c0,25.49-3.38,50.19-9.67,73.7h148.04  c1.62-9.35,2.98-18.79,3.98-28.34C584.73,769.64,635.43,745.5,635.43,745.5L635.43,745.5z" fill="#CCCCCC"/>
  <path d="M800,0h-1c0.33,0.37,0.68,0.73,1,1.11V0z" fill="#666666"/>
  <path d="M299.19,40.14l-6.42,52.24c0,0,48.48,30.87,120.4,41.22c1.64,19.49,5.46,38.47,11.25,56.67  c-62.56,36.5-95.81,83.1-95.81,83.1l25.52,46.04c0,0,57.39-3.52,121.68-37.44c12.58,14.55,26.79,27.72,42.37,39.24  c-29.16,66.31-28.68,123.57-28.68,123.57l47.7,22.24c0,0,44.36-36.58,76.43-101.8c8.95,2.08,18.1,3.71,27.43,4.86  c10.05,1.23,20.03,1.86,29.91,1.94c15.38,70.8,49.44,116.85,49.44,116.85l51.66-10.04c0,0,14.38-55.65,2-127.25  c8.89-3.76,17.55-8.01,25.93-12.71V221.91c-35.5,40.82-89.99,63.83-147.72,56.75c-92.32-11.34-157.98-95.37-146.64-187.69  c4.31-35.11,19.15-66.34,40.94-90.96H437.3c-4.46,9.43-8.4,19.18-11.73,29.23C353.49,21.99,299.19,40.14,299.19,40.14L299.19,40.14z  " fill="#999999"/>
</svg>