<?xml version="1.0" encoding="UTF-8" standalone="yes"?>
<svg baseProfile="tiny-ps" version="1.2" viewBox="0 0 216 216" xmlns="http://www.w3.org/2000/svg">
  <title>bimi-svg-tiny-12-ps</title>
  <rect width="216" height="216" fill="#fff" stroke-width="0"/>
  <g>
    <path d="M108,32.8c-41.6,0-75.3,33.6-75.4,75.1,0,41.6,33.6,75.3,75.1,75.4,41.6,0,75.3-33.5,75.4-75.1,0-41.6-33.6-75.3-75.1-75.4ZM77.4,61.8l-.2,93.2v5s0,5.3,0,5.3c-2.9-1.6-5.6-3.3-8.2-5.3-.2-.2-.4-.3-.6-.5v-11.8s0-35.8,0-35.8h-16.1c.3,4.7,1.2,9.4,2.6,13.7.3,1,.7,2.1,1.1,3.1h-9.4c0,0,0-.2,0-.2-.3-.8-.5-1.7-.8-2.5,0-.2-.1-.4-.2-.6-.2-.8-.4-1.7-.6-2.5,0-.3-.1-.6-.2-1-.1-.7-.3-1.4-.4-2.1,0-.5-.2-.9-.2-1.4,0-.5-.1-1-.2-1.6,0-.6-.2-1.3-.2-1.9,0-.3,0-.6,0-.9-.2-1.9-.3-3.8-.3-5.7s0-3.7.2-5.5c0-1.1.2-2.1.4-3.2,0,0,0,0,0,0,2.4-17.1,11.4-32.1,24.5-42.3,2.8-2.1,5.7-4.1,8.8-5.7,0,0,0,0,0,0v10.3ZM95.9,171.6c-3-.6-6-1.3-8.8-2.3l.2-122.6c2.9-1,5.8-1.7,8.8-2.3l-.2,127.2ZM131.4,57.3c-5.5-2.5-11.4-4.2-17.6-4.9v50.3c0,0,17.6,0,17.6,0v8.8s-.1,56.8-.1,56.8c-2.9,1.1-5.8,2-8.8,2.7-4.7,1.1-9.6,1.7-14.6,1.7s-2.3,0-3.4-.1v-8.8c1.1,0,2.3.1,3.4.1,5.1,0,9.9-.7,14.6-1.9v-50.4c0,0-17.6,0-17.6,0V43.4c1.1,0,2.1,0,3.2,0,1.9,0,3.9.1,5.8.3,6.2.6,12.1,2,17.6,4.2v9.6ZM150,157.1c-2.8,2.4-5.7,4.5-8.8,6.4l.2-110.8c3.1,1.9,6.1,4.1,8.8,6.4,8.7,7.6,15.4,17.4,19.1,28.6.3,1,.6,2,.9,3.1h-9.2c-.3-1-.7-2.1-1.1-3.1-2.3-5.9-5.6-11.4-9.8-16.2v73.1c4.5-5.3,8.1-11.5,10.5-18.2.4-1,.7-2,1-3.1h9.1c-.2,1-.5,2.1-.8,3.1-3.6,12-10.6,22.6-19.9,30.6ZM52.5,103c1.3-13.2,7.2-25.1,16-34v34c0,0-16,0-16,0Z" fill="#000" stroke-width="0"/>
    <path d="M210.5,108.1c0,56.6-46,102.4-102.6,102.4-56.6,0-102.4-46-102.4-102.6C5.6,51.3,51.5,5.4,108.1,5.5c56.6,0,102.4,46,102.4,102.6Z" fill="none" stroke="#000" stroke-linecap="square" stroke-width="3.5"/>
    <path d="M20.3,135.6h0s5.5-2.8,5.5-2.8l.6,1.8-6.1,1ZM28.6,134.3l-.8-2.5,2.9-1.4-.7-2.2-12.8,6.8.9,2.8,14.3-1.9-.7-2.2-3.1.5Z" fill="#000" stroke-width="0"/>
    <path d="M13.9,120.8l14-2.7.4,2.1-10.9,2.1h0s11.3,0,11.3,0l.2,1.1-10.5,4.2h0s10.9-2.1,10.9-2.1l.4,2-14,2.7-.6-3.1,7.8-3.2h0s-8.5-.1-8.5-.1l-.6-3.1Z" fill="#000" stroke-width="0"/>
    <path d="M27.8,117l-14.2,1.1-.5-6.4,2.1-.2.3,4,3.7-.3-.2-3.1,2.1-.2.2,3.1,4.2-.3-.3-4.3,2.1-.2.5,6.7Z" fill="#000" stroke-width="0"/>
    <path d="M15.1,106.8v-.9c0-1.3.5-1.8,2.2-1.7,1.7,0,2.2.5,2.1,1.8v.9s-4.4,0-4.4,0ZM21.5,107c0-.4,0-.9,0-1.2l5.9-1.6v-2.4c0,0-6.4,1.9-6.4,1.9-.4-.8-1.3-1.7-3.5-1.8-3,0-4.2,1.3-4.3,4v3.4c0,0,14.1.3,14.1.3v-2.4c0,0-5.8-.1-5.8-.1Z" fill="#000" stroke-width="0"/>
    <path d="M27.6,100.7l-14.1-1.5.2-2.4,14.1,1.5-.2,2.4Z" fill="#000" stroke-width="0"/>
    <path d="M19.5,90.5l-1.1-.2c-1.2-.2-1.8.2-1.9.8-.2,1,.3,1.3,1.3,1.5l7.1,1.3c1,.2,1.6,0,1.8-1,.1-.9-.3-1.2-1.2-1.4l-1.7-.3.4-2.3,1.6.3c2,.4,3.4,1.8,2.9,4.1-.4,2.5-2.3,3.3-4.2,3l-7.2-1.3c-2-.4-3.4-1.8-2.9-4.2.4-2.3,2.4-3.2,4.5-2.8l1,.2-.4,2.3Z" fill="#000" stroke-width="0"/>
    <path d="M19.5,82.5h0s6.1.7,6.1.7l-.5,1.9-5.6-2.6ZM27.1,86l.7-2.5,3.1.5.6-2.2-14.4-1.4-.8,2.9,13,6.4.6-2.2-2.9-1.3Z" fill="#000" stroke-width="0"/>
    <path d="M31.8,81.1l-13.2-5.3.8-2.1,8.6.3h0s-7.5-3.1-7.5-3.1l.8-2,13.2,5.3-.8,1.9-9.4-.5h0s8.2,3.3,8.2,3.3l-.8,2Z" fill="#000" stroke-width="0"/>
    <path d="M39.1,65.7l-12-7.6,1.3-2,12,7.6-1.3,2Z" fill="#000" stroke-width="0"/>
    <path d="M41.5,61.9l-11.3-8.6,1.3-1.8,8.2,2.6h0s-6.5-4.9-6.5-4.9l1.3-1.7,11.3,8.6-1.2,1.7-8.9-2.9h0s7.1,5.4,7.1,5.4l-1.3,1.7Z" fill="#000" stroke-width="0"/>
    <path d="M42.3,44.1c-1-.8-1.6-.5-2-.1-.5.6-.4,1.2.2,1.8,1.8,1.7,5.9-1.1,8.7,1.6,1.7,1.6,1.6,3.6,0,5.2-1.5,1.6-3.7,1.3-5.3,0l1.3-1.9c1.1.9,2,1,2.5.4.6-.6.6-1.3,0-1.9-2-1.9-5.9,1.1-8.9-1.7-1.6-1.5-1.7-3.4,0-5.1,1.3-1.4,3.2-1.3,4.8,0l-1.4,1.8Z" fill="#000" stroke-width="0"/>
    <path d="M45.7,38.9l-1.7,1.5-1.4-1.6,5.3-4.6,1.4,1.6-1.7,1.5,8,9.1-1.8,1.6-8-9.1Z" fill="#000" stroke-width="0"/>
    <path d="M58.2,44.2l-8.6-11.3,1.9-1.5,8.6,11.3-1.9,1.5Z" fill="#000" stroke-width="0"/>
    <path d="M56.3,30.6l-1.9,1.3-1.2-1.8,5.9-3.8,1.2,1.8-1.9,1.3,6.6,10.1-2,1.3-6.6-10.1Z" fill="#000" stroke-width="0"/>
    <path d="M61,25.2l2.1-1.1,4.9,9.5c.5.9,1.1,1.2,1.8.8.8-.4.9-1,.4-2l-4.9-9.5,2.1-1.1,4.9,9.4c1.1,2.2.5,4-1.5,5-2,1-3.9.5-5-1.7l-4.9-9.4Z" fill="#000" stroke-width="0"/>
    <path d="M72.4,22l-2.1.9-.8-2,6.5-2.6.8,2-2.1.9,4.5,11.2-2.2.9-4.5-11.2Z" fill="#000" stroke-width="0"/>
    <path d="M82,31.3l-4.1-13.6,6.1-1.8.6,2-3.9,1.2,1,3.5,3-.9.6,2-3,.9,1.2,4,4.1-1.2.6,2-6.4,1.9Z" fill="#000" stroke-width="0"/>
    <path d="M96.3,17c-.1-1.1.1-1.6,1.1-1.7,1-.1,1.3.4,1.4,1.4l.8,7.2c.1,1.1-.1,1.6-1.1,1.7-1,.1-1.3-.4-1.4-1.4l-.8-7.2ZM94.8,24.5c.2,2,1.6,3.5,4.1,3.2,2.5-.3,3.4-2,3.2-4l-.8-7.3c-.2-2-1.6-3.5-4.1-3.2-2.5.3-3.4,2-3.2,4l.8,7.3Z" fill="#000" stroke-width="0"/>
    <path d="M104,27v-14.2c-.1,0,6.5,0,6.5,0v2.1s-4.2,0-4.2,0v3.7s3.2,0,3.2,0v2.1s-3.2,0-3.2,0v6.3c0,0-2.3,0-2.3,0Z" fill="#000" stroke-width="0"/>
    <path d="M122.4,17.4c0-1.2-.5-1.7-1-1.7-.8-.1-1.3.3-1.4,1.2-.4,2.4,4.3,4.2,3.7,8.1-.3,2.3-2.1,3.4-4.3,3.1-2.2-.3-3.2-2.3-3-4.4h2.3c-.1,1.4.3,2.2,1.1,2.3.8.1,1.4-.2,1.6-1.1.4-2.8-4.3-4.2-3.7-8.3.3-2.2,1.8-3.3,4.2-3,1.9.3,2.9,1.9,2.8,3.9h-2.3Z" fill="#000" stroke-width="0"/>
    <path d="M128.8,17.3l-2.3-.5.5-2.1,6.8,1.7-.5,2.1-2.3-.5-2.9,11.7-2.3-.6,2.9-11.8Z" fill="#000" stroke-width="0"/>
    <path d="M131.6,30.5l4.7-13.4,6,2.1-.7,2-3.8-1.3-1.2,3.5,2.9,1-.7,2-2.9-1-1.4,3.9,4,1.4-.7,2-6.3-2.2Z" fill="#000" stroke-width="0"/>
    <path d="M139.9,33.5l6.1-12.8,5.8,2.7-.9,1.9-3.6-1.7-1.6,3.3,2.8,1.3-.9,1.9-2.8-1.3-1.8,3.8,3.9,1.8-.9,1.9-6-2.8Z" fill="#000" stroke-width="0"/>
    <path d="M147.8,37.4l7.4-12.1,2,1.2-6.3,10.3,3.2,2-1.1,1.8-5.3-3.2Z" fill="#000" stroke-width="0"/>
    <path d="M168,40.4l.7-.8c.8-.9.7-1.6.2-2-.7-.6-1.3-.4-2,.4l-4.7,5.4c-.7.8-.8,1.4,0,2,.7.6,1.2.4,1.8-.3l1.1-1.3,1.8,1.6-1.1,1.2c-1.3,1.5-3.3,2-5.1.4-1.9-1.6-1.7-3.6-.4-5.1l4.8-5.5c1.3-1.5,3.3-2,5.2-.4,1.8,1.6,1.5,3.7.1,5.3l-.7.8-1.8-1.6Z" fill="#000" stroke-width="0"/>
    <path d="M174.4,44.8c.8-.7,1.4-.8,2-.1.7.7.5,1.3-.3,2l-5.3,4.9c-.8.7-1.4.8-2,.1-.7-.7-.5-1.3.3-2l5.3-4.9ZM167.4,48c-1.5,1.4-1.9,3.3-.2,5.2s3.7,1.6,5.2.2l5.4-5c1.5-1.4,1.9-3.3.2-5.2s-3.7-1.6-5.2-.2l-5.4,5Z" fill="#000" stroke-width="0"/>
    <path d="M171.1,57.2l11.5-8.4,1.3,1.8-4.9,7.1h0s6.6-4.8,6.6-4.8l1.3,1.8-11.5,8.4-1.2-1.7,5.4-7.7h0s-7.2,5.2-7.2,5.2l-1.3-1.8Z" fill="#000" stroke-width="0"/>
    <path d="M188.1,63.6c1-.7,1-1.4.7-1.9-.4-.7-1-.8-1.8-.4-2.1,1.2-.7,6-4.1,7.9-2,1.2-3.9.4-5-1.5-1.1-1.9-.1-3.9,1.7-5.1l1.4,1.8c-1.2.8-1.5,1.6-1.2,2.3.4.7,1.1,1,1.8.6,2.4-1.4.7-6,4.2-8,2-1.1,3.7-.6,4.9,1.5,1,1.7.3,3.4-1.4,4.6l-1.3-1.9Z" fill="#000" stroke-width="0"/>
    <path d="M192.2,68.6l-1-2.1,1.9-.9,2.9,6.4-1.9.9-.9-2.1-11,4.9-1-2.2,11-4.9Z" fill="#000" stroke-width="0"/>
    <path d="M195.9,77.5l.3.8c.4,1.2,0,1.8-1.5,2.4s-2.2.2-2.6-1l-.3-.8,4.2-1.4ZM189.9,79.5c.1.4.3.9.4,1.2l-5.1,3.4.8,2.3,5.5-3.9c.6.7,1.8,1.2,3.9.5,2.9-1,3.6-2.6,2.7-5.2l-1-3.2-13.5,4.4.7,2.3,5.5-1.8Z" fill="#000" stroke-width="0"/>
    <path d="M200.3,85.1l.5,2.3-10.5,2.2c-1,.2-1.4.7-1.3,1.6.2.9.8,1.1,1.8.9l10.5-2.2.5,2.3-10.4,2.1c-2.4.5-4-.6-4.4-2.8-.5-2.2.6-3.9,3-4.3l10.4-2.1Z" fill="#000" stroke-width="0"/>
    <path d="M198,101h1.1c1.2-.2,1.7-.8,1.6-1.4,0-1-.6-1.2-1.7-1.1l-7.2.6c-1.1,0-1.5.4-1.5,1.4,0,.9.6,1.1,1.5,1h1.7c0-.1.2,2.2.2,2.2h-1.6c-2,.3-3.7-.7-3.9-3.1-.2-2.5,1.3-3.8,3.3-4l7.3-.6c2-.2,3.7.8,4,3.3.2,2.4-1.5,3.7-3.6,3.9h-1c0,0-.2-2.3-.2-2.3Z" fill="#000" stroke-width="0"/>
    <path d="M200.8,107.5v-2.3s2.1,0,2.1,0v7c0,0-2.2,0-2.2,0v-2.3s-12.1-.1-12.1-.1v-2.4s12.1.1,12.1.1Z" fill="#000" stroke-width="0"/>
    <path d="M188.5,113.5l14.2,1.2-.2,2.4-14.2-1.2.2-2.4Z" fill="#000" stroke-width="0"/>
    <path d="M198.3,122.3c1,.2,1.5.6,1.3,1.5-.2,1-.7,1.2-1.8,1l-7.1-1.3c-1-.2-1.5-.6-1.3-1.5.2-1,.7-1.2,1.8-1l7.1,1.3ZM191.5,118.7c-2-.4-3.8.5-4.2,3s1,3.9,2.9,4.2l7.2,1.3c2,.4,3.8-.5,4.2-3,.4-2.5-1-3.9-2.9-4.2l-7.2-1.3Z" fill="#000" stroke-width="0"/>
    <path d="M186.4,127.2l13.6,4.1-.6,2.1-8.6.5h0s7.8,2.4,7.8,2.4l-.6,2.1-13.6-4.1.6-2,9.4-.4h0s-8.5-2.6-8.5-2.6l.6-2Z" fill="#000" stroke-width="0"/>
    <path d="M57.8,189.4l7-12.3,6.1,3.5-1,1.8-3.9-2.2-1.8,3.2,2.9,1.7-1,1.8-2.9-1.7-3.1,5.4-2.2-1.2Z" fill="#000" stroke-width="0"/>
    <path d="M72.4,185.2c.4-1,.9-1.3,1.8-.9s1,1,.6,2l-2.9,6.5c-.4,1-.9,1.3-1.8.9s-1-1-.6-2l2.9-6.5ZM67.2,190.7c-.8,1.8-.4,3.8,2,4.9,2.4,1.1,4.2,0,5-1.8l2.9-6.7c.8-1.8.4-3.8-2-4.9s-4.2,0-5,1.8l-2.9,6.7Z" fill="#000" stroke-width="0"/>
    <path d="M79.7,184.5l2.4.8-3.2,10.2c-.3,1,0,1.6.8,1.9.9.3,1.4,0,1.7-1.1l3.2-10.2,2.4.8-3.2,10.1c-.7,2.3-2.5,3.1-4.8,2.4s-3.2-2.4-2.5-4.7l3.2-10.1Z" fill="#000" stroke-width="0"/>
    <path d="M85.4,201l2.8-13.8,2.3.5,1.4,8.5h0s1.6-7.9,1.6-7.9l2.2.4-2.8,13.8-2.1-.4-1.4-9.3h0s-1.7,8.6-1.7,8.6l-2.2-.4Z" fill="#000" stroke-width="0"/>
    <path d="M99.3,191h.9c1.3.2,1.7.7,1.6,2.2l-.5,6.1c-.1,1.5-.6,1.9-2,1.8h-.9c0,0,.9-10.2.9-10.2ZM95.7,202.9l3.7.3c2.6.2,4.1-1,4.3-3.9l.5-5.6c.3-2.9-1-4.4-3.6-4.6l-3.7-.3-1.2,14.1Z" fill="#000" stroke-width="0"/>
    <path d="M106.1,203.6l-.2-14.1h6.7c0,0,0,2,0,2h-4.2c0,0,0,3.7,0,3.7h3.2c0,0,0,2.1,0,2.1h-3.2c0,0,0,4.2,0,4.2h4.5c0,0,0,2,0,2h-7Z" fill="#000" stroke-width="0"/>
    <path d="M116.4,191h.9c1.3-.2,1.8.2,2,1.7l.7,6.1c.2,1.5-.2,2-1.5,2.2h-.9c0,.1-1.2-10-1.2-10ZM115.3,203.4l3.7-.4c2.6-.3,3.8-1.8,3.4-4.7l-.7-5.6c-.3-2.9-1.9-4.1-4.4-3.8l-3.7.4,1.7,14Z" fill="#000" stroke-width="0"/>
    <path d="M130.1,189.5l-1.9.5-.4-1.3c.9-.8,1.8-1.7,2.4-2.6l1.2-.3,3.9,13.8-2.2.6-3-10.8Z" fill="#000" stroke-width="0"/>
    <path d="M139.8,189.6c-.2.3-.6.9-1,1.1-.6.2-1.1,0-1.5-.9l-.8-2.2c-.3-.9,0-1.4.6-1.7.7-.3,1.2,0,1.6.9l1.1,2.9ZM137.1,195.1l.3.8c.6,1.7,2.3,2.5,4.1,1.8,2.3-.9,2.9-2.4,2-4.9l-2.4-6.3c-.9-2.5-2.3-3.3-4.7-2.4-2.3.9-2.9,2.5-1.8,5.3l.6,1.6c.7,1.9,2.1,2.3,3.5,1.8,1-.4,1.2-.8,1.6-1.6l1.2,3.1c.3.9,0,1.4-.6,1.7-.7.3-1.2,0-1.5-.9l-.3-.7-2,.8Z" fill="#000" stroke-width="0"/>
    <path d="M147.1,195.3l-.8-1.7c.8-5.3,1.3-8.2.4-10.1-.5-1-1.1-1.2-1.7-.9-.7.4-.8,1.1-.4,1.8l.4.9-2.1,1.1-.3-.6c-.9-1.9-.4-3.9,1.7-4.9,1.8-.9,3.7-.2,4.4,1.3,1,2,1.1,3.8-.1,10.3l4-2,.9,1.8-6.2,3.1Z" fill="#000" stroke-width="0"/>
    <path d="M151.5,180.3l-1.7,1-.7-1.1c.7-1,1.2-2.1,1.6-3.1l1.1-.7,7.5,12.2-1.9,1.2-5.9-9.5Z" fill="#000" stroke-width="0"/>
    <polygon points="51.8 166.1 49.2 170.8 52.8 174.8 47.5 173.7 44.9 178.4 44.3 173.1 39 172 43.9 169.7 43.3 164.4 46.9 168.4 51.8 166.1" fill="#000" stroke-width="0"/>
    <polygon points="167 165 171.6 167.9 175.8 164.4 174.5 169.6 179.1 172.5 173.7 172.9 172.4 178.1 170.3 173.1 165 173.5 169.1 170 167 165" fill="#000" stroke-width="0"/>
  </g>
</svg>