<?xml version="1.0" encoding="utf-8"?>
<!-- Generator: Adobe Illustrator 26.5.2, SVG Export Plug-In . SVG Version: 6.00 Build 0)  -->
<svg version="1.2" baseProfile="tiny-ps" id="Layer_1" xmlns="http://www.w3.org/2000/svg" xmlns:xlink="http://www.w3.org/1999/xlink"
	 viewBox="0 0 141.7 141.7" xml:space="preserve">
<title>Orient Corporation</title>
<rect y="0" fill="#FFFFFF" width="141.7" height="141.7"/>
<g>
	<path fill="#FFFFFF" d="M29.5,82.7c6.5,0,11.8-5.3,11.8-11.8S36.1,59,29.5,59s-11.8,5.3-11.8,11.8S23,82.7,29.5,82.7z"/>
	<g>
		<g>
			<path fill="#EA5504" d="M18.4,70.8c0-6.2,5-11.2,11.2-11.2s11.2,5,11.2,11.2S35.8,82,29.6,82C23.3,82,18.4,77,18.4,70.8z
				 M29.5,83.4c6.9,0,12.5-5.6,12.5-12.5s-5.6-12.5-12.5-12.5S17,64,17,70.8S22.6,83.4,29.5,83.4z"/>
			<path fill="#EA5504" d="M29.5,80.9c5.6,0,10.1-4.5,10.1-10.1s-4.5-10.1-10.1-10.1s-10.1,4.5-10.1,10.1S23.9,80.9,29.5,80.9z"/>
		</g>
		<g>
			<path d="M77.2,65.2v2.3l0.6-0.6c0.6-0.6,2-1.6,5-1.6c0,0.6,0,2.7,0,3.2c-1.1,0.1-4.6,0.6-5.7,3.9v0.1v9.1h-3.7V65.2H77.2
				L77.2,65.2z"/>
			<path d="M84.7,65.2v16.3h3.7V65.2H84.7z"/>
			<path d="M84.7,60.7V64h3.7v-3.2L84.7,60.7L84.7,60.7z"/>
			<path d="M116.1,64.9c-4.7,0-8.6,3.9-8.6,8.6s3.9,8.6,8.6,8.6s8.6-3.9,8.6-8.6C124.7,68.7,120.9,64.9,116.1,64.9z M116.1,78.3
				c-2.7,0-4.9-2.2-4.9-4.9c0-2.7,2.2-4.9,4.9-4.9c2.7,0,4.9,2.2,4.9,4.9C120.9,76.1,118.8,78.3,116.1,78.3z"/>
			<path d="M60.8,59.7c-6.2,0-11.2,5-11.2,11.2c0,6.2,5,11.2,11.2,11.2S72,77,72,70.8C72,64.7,67,59.7,60.8,59.7z M60.8,78.3
				c-4.2,0-7.5-3.4-7.5-7.5c0-4.2,3.4-7.5,7.5-7.5s7.5,3.4,7.5,7.5S65,78.3,60.8,78.3z"/>
			<path d="M102.5,76.1c-0.9,1.4-2.4,2.2-4.1,2.2c-2.7,0-4.9-2.2-4.9-4.9c0-2.7,2.2-4.9,4.9-4.9c1.7,0,3.2,0.9,4.1,2.2h4.1
				c-1.1-3.4-4.3-5.9-8.2-5.9c-4.7,0-8.6,3.9-8.6,8.6s3.9,8.6,8.6,8.6c3.8,0,7-2.5,8.2-5.9L102.5,76.1L102.5,76.1z"/>
		</g>
	</g>
</g>
</svg>