<?xml version="1.0" encoding="UTF-8" standalone="yes"?>
<svg width="120" height="120" viewBox="0 0 120 120" fill="none" version="1.2" baseProfile="tiny-ps" xmlns="http://www.w3.org/2000/svg">
  <title>Found</title>
  <g>
    <rect width="120" height="120" transform="translate(0 0.15625)" fill="#6E7B62"/>
    <path d="M49.6999 93.4C49.6999 94.2837 50.4406 95 51.3243 95H68.7002C69.5839 95 70.3003 94.2837 70.3003 93.4V26.6C70.3003 25.7163 69.5839 25 68.7002 25H51.3243C50.4406 25 49.6999 25.7163 49.6999 26.6V93.4Z" fill="white"/>
    <path d="M39.5728 83.6H43.9999V52.9999C43.9999 52.1163 43.2853 51.4 42.4016 51.3999C39.0492 51.3998 35.6968 51.3999 32.3444 51.3999L28.1001 51.4C27.2164 51.4 26.4999 52.1163 26.4999 53V70.3108C26.4999 73.7829 27.8367 77.1172 30.2243 79.6001C32.6839 82.158 36.0541 83.6 39.5728 83.6Z" fill="white"/>
    <path d="M75.9999 71.8H80.4265C83.9456 71.8 87.3161 70.3579 89.7758 67.7999C92.1633 65.3171 93.4999 61.9832 93.4999 58.5114V41.2C93.4999 40.3163 92.7835 39.6 91.8998 39.6L87.6797 39.6C84.3192 39.6 80.9588 39.6 77.5983 39.6C76.7146 39.6 75.9999 40.3163 75.9999 41.2V71.8Z" fill="white"/>
  </g>
  <defs/>
</svg>