<?xml version="1.0" encoding="UTF-8"?>
<svg xmlns="http://www.w3.org/2000/svg" baseProfile="tiny-ps" version="1.2" viewBox="0 0 1080 1080" xml:space="preserve">
  <title>Ciwit B.V. - Castor</title>
    <path d="M741.29,561.87c.63-47.61-9.2-90.65-30.15-131.23-5.03-9.73-9.4-19.89-13.06-30.18-3.83-10.86,1.53-16.09,12.66-13.13,16.76,4.47,30.32,14.59,43.18,25.52,59.4,50.44,96.68,114.44,110.78,190.63,18.59,100.38-4.13,191.63-68.6,271.26-52.21,64.53-120.17,104.28-201.76,118.04-101.55,17.16-193-7.96-272.52-73.63-28.25-23.32-52.74-50.41-69.16-83.56-3.96-8.06-6.26-17.59-6.8-26.62-.73-13.23,9.36-19.39,20.86-12.99,12.76,7.13,24.62,15.86,37.08,23.49,25.55,15.66,53.67,24.62,82.79,30.48,28.65,5.76,57.64,7.53,86.75,4.6,40.08-4.06,78.16-15.09,113.47-34.51,57.27-31.48,100.01-76.93,127.5-136.23,18.16-39.25,27.95-80.49,26.99-121.94" fill="#214893"/>
    <path d="M535.53,81.99c57.8-.2,112.14,12.69,162.95,39.91,50.37,26.95,91.42,64.33,121.77,112.74,6.2,9.9,9.06,21.92,12.93,33.12.97,2.8.37,6.36-.3,9.43-1.9,8.96-10.09,13.73-18.19,9.63-9.13-4.57-17.89-10.03-26.25-15.89-35.48-24.92-75.43-37.11-117.97-42.61-47.97-6.17-94.55-.73-139.79,16.06-65.5,24.25-115.84,66.86-151.82,126.53-21.09,34.95-34.42,72.89-39.15,113.31-6.56,56.14.03,110.58,25.82,161.78,5.4,10.66,10.63,21.49,14.89,32.62,1.57,4.06,1.87,11.23-.57,13.39-2.83,2.6-10.19,3.33-13.86,1.47-13.56-6.96-27.75-13.79-39.35-23.49-61.7-51.54-98.88-117.84-112.61-196.66-11.69-67.2-2.7-132.23,25.45-194.53,18.32-40.64,43.84-76.16,76.49-106.38,47.81-44.21,103.68-72.83,168.01-84.06,17.06-3,34.35-4.3,51.54-6.36" fill="#214893"/>
    <path d="M626.48,530.28c-.43,31.35-8.93,60.54-30.12,85.22-14.69,17.13-33.45,27.62-55.97,28.05-22.09.4-40.65-9.6-55.64-25.62-40.71-43.58-41.91-120.04-8.56-165.81,15.16-20.79,34.88-34.85,60.97-35.98,23.79-1,43.51,9.86,58.97,27.72,21.29,24.55,29.92,53.77,30.35,86.42" fill="#214893"/>
</svg>