<?xml version="1.0" encoding="UTF-8"?><svg xmlns:inkscape="http://www.inkscape.org/namespaces/inkscape" xmlns:sodipodi="http://sodipodi.sourceforge.net/DTD/sodipodi-0.dtd" xmlns="http://www.w3.org/2000/svg" xmlns:svg="http://www.w3.org/2000/svg" xmlns:rdf="http://www.w3.org/1999/02/22-rdf-syntax-ns#" xmlns:cc="http://creativecommons.org/ns#" xmlns:dc="http://purl.org/dc/elements/1.1/" viewBox="0 0 512 511.99998" version="1.2" width="512" height="512" baseProfile="tiny-ps"><title>SeatGeek</title><defs id="defs7"></defs><g id="Layer_2" transform="matrix(0.87600967,0,0,0.87600967,31.741524,96.711057)"><g id="Layer_1-2"><path d="m 274.82,166.3 9.47,-27.59 q 24.38,-0.09 48.69,-0.35 l 9.54,27.76 c 14.2,-0.06 28.49,0.2 42.56,0.12 l -56.21,-154 c -6.68,0.24 -33.84,1 -40.24,1.14 L 246.13,133 c -17.39,0 -33.65,-0.12 -51.39,-0.28 v -31 l 31.71,0.37 V 74.17 L 194.74,73.72 V 44 c 34.48,0.79 50.39,0.63 50.39,0.63 l -6.48,-33.21 c 0,0 -41.24,-0.65 -86.27,-2.57 v 157.21 c 8.93,0 53.43,0.16 81.93,0.23 h 4.6 14.27 v 0 z m 48.53,-55.92 q -14.72,0.21 -29.44,0.34 l 14.77,-43 z" id="path1"></path><path d="m 402.36,166.24 h 42.26 l 0.2,-127 q 23.08,-1.9 46.09,-4.17 L 484.37,0 Q 423.8,7.26 362.92,10.6 l -6.56,34 q 23,-1 46,-2.38 z" id="path2"></path><path d="m 70.31,46.17 c 0,-19.13 40.9,-14 59.76,-2.87 L 131.82,5.5 A 175,175 0 0 0 87.82,0 c -30.46,0 -57,18 -57,46.64 0,51.06 69.66,54.56 69.66,75.06 0,26.92 -46.19,12 -69.66,-10.19 v 43 c 0,0 17.18,16.03 51.51,16.03 37.88,0 57.05,-24.65 57.05,-51.22 0,-51.8 -69.07,-52 -69.07,-73.15 z" id="path3"></path><path d="M 512,363.67 456.18,268.6 505.56,192.48 H 457.9 l -43.25,67.85 c 0.16,-22.57 -0.16,-45.17 0,-67.77 h -42.3 V 351 c 0,0 27.93,1.71 42.3,2.83 v -73.31 l 41.75,76.73 c 20.86,2.04 39.79,4.34 55.6,6.42 z" id="path4"></path><path d="m 194.91,283.48 c 10.53,-0.17 31.6,-0.39 31.6,-0.39 v -28.2 c 0,0 -21.07,0.14 -31.6,0.27 v -29.85 c 29.54,0 50.3,0.18 50.3,0.18 l -6.62,-32.76 H 152.45 V 350 c 19.84,-1.28 74.42,-2.53 93,-2.59 q 3.17,-16.67 6.55,-33.31 -28.53,0 -57.05,0.63 z" id="path5"></path><path d="m 304.91,283.21 c 9.82,0.16 19.62,0.31 29.42,0.55 V 255.5 c -9.8,-0.16 -19.6,-0.26 -29.42,-0.36 v -29.63 l 50.57,0.33 -6.48,-33.09 h -86.49 v 154.72 c 29.34,0 61.33,1 92.79,2.57 l 6.82,-33.56 c -16.56,-0.67 -42.13,-1.46 -57.21,-1.81 z" id="path6"></path><path d="m 70.66,287.12 25.69,-1.26 v 32.76 c -38.71,3.51 -54.52,-9.31 -54.52,-47.51 0,-35.47 28.71,-44.34 55.15,-44.34 23.31,0 35.68,2.61 35.68,2.61 l -7,-36.67 c -6.11,-0.31 -17,-0.66 -35.55,-0.66 C 47.39,192 0,212.43 0,277.1 c 0,54.46 37.25,82.17 84.49,77.75 33.28,-3.12 48.21,-3.81 48.21,-3.81 V 256.3 l -55.54,1.24 z" id="path7"></path></g></g><metadata></metadata></svg>