<?xml version="1.0" encoding="utf-8"?>
<!-- Generator: Adobe Illustrator 15.1.0, SVG Export Plug-In . SVG Version: 6.00 Build 0)  -->
<svg version="1.2" baseProfile="tiny-ps" id="Layer_1" xmlns="http://www.w3.org/2000/svg" xmlns:xlink="http://www.w3.org/1999/xlink"
	 width="185.761px" height="185.762px" viewBox="0 0 185.761 185.762"  xml:space="preserve">
<title>dtSearch Corporation</title>
<rect fill="#FFFFFF" width="185.761" height="185.762"/>
<path fill="none" d="M185.761,92.883c0,51.295-41.584,92.879-92.88,92.879C41.584,185.762,0,144.178,0,92.883
	C0,41.584,41.584,0,92.881,0C144.177,0,185.761,41.584,185.761,92.883z"/>
<g>
	<g>
		<g>
			<g>
				<path fill="#272525" d="M105.195,166.05c-0.995,0-1.81-0.326-2.445-0.982c-0.64-0.654-0.959-1.495-0.959-2.521
					c0-1.002,0.33-1.84,0.983-2.521c0.655-0.674,1.474-1.014,2.454-1.014c0.975,0,1.785,0.328,2.428,0.987
					c0.645,0.662,0.965,1.503,0.965,2.53c0,1.003-0.328,1.841-0.989,2.513C106.975,165.715,106.161,166.05,105.195,166.05z
					 M105.209,159.45c-0.85,0-1.554,0.294-2.109,0.882c-0.556,0.587-0.831,1.316-0.831,2.197c0,0.887,0.281,1.619,0.845,2.204
					c0.562,0.581,1.263,0.873,2.096,0.873c0.821,0,1.517-0.295,2.086-0.879c0.566-0.584,0.848-1.316,0.848-2.189
					c0-0.89-0.279-1.623-0.836-2.21C106.748,159.744,106.051,159.45,105.209,159.45z"/>
			</g>
		</g>
	</g>
	<g>
		<path d="M103.666,160.323c0.335-0.061,0.814-0.095,1.273-0.095c0.708,0,1.164,0.113,1.484,0.368
			c0.26,0.199,0.404,0.506,0.404,0.853c0,0.595-0.427,0.986-0.969,1.146v0.021c0.397,0.119,0.634,0.439,0.755,0.906
			c0.168,0.627,0.291,1.061,0.397,1.234h-0.686c-0.085-0.134-0.198-0.515-0.345-1.073c-0.15-0.62-0.426-0.854-1.027-0.875h-0.624
			v1.948h-0.664V160.323z M104.33,162.369h0.677c0.708,0,1.159-0.34,1.159-0.854c0-0.58-0.481-0.833-1.182-0.839
			c-0.321,0-0.548,0.025-0.654,0.052V162.369z"/>
	</g>
</g>
<g>
	<g>
		<g>
			<g>
				<polygon fill="#A4ADBB" points="96.134,24.836 96.134,31.312 93.443,29.566 93.443,23.091 				"/>
			</g>
			<g>
				<polygon fill="#DCDEE3" points="93.443,23.091 93.443,29.566 78.405,39.403 78.405,32.929 				"/>
			</g>
			<g>
				<polygon fill="#A4ADBB" points="95.859,29.416 95.859,35.892 92.547,33.768 92.547,27.293 				"/>
			</g>
			<g>
				<polygon fill="#DCDEE3" points="99.241,27.102 99.241,33.578 95.859,35.892 95.859,29.416 				"/>
			</g>
			<g>
				<polygon fill="#A4ADBB" points="105.519,31.196 105.519,37.671 99.241,33.578 99.241,27.102 				"/>
			</g>
			<g>
				<polygon fill="#A4ADBB" points="78.405,32.929 78.405,39.403 74.963,36.851 74.963,30.377 				"/>
			</g>
			<g>
				<polygon fill="#A4ADBB" points="99.636,35.088 99.636,41.562 96.504,39.51 96.504,33.035 				"/>
			</g>
			<g>
				<polygon fill="#DCDEE3" points="109.081,33.474 109.081,39.949 106.211,41.966 106.211,35.492 				"/>
			</g>
			<g>
				<polygon fill="#DCDEE3" points="75.427,34.886 75.427,41.36 70.12,44.886 70.12,38.41 				"/>
			</g>
			<g>
				<polygon fill="#DCDEE3" points="103.186,37.461 103.186,43.937 100.39,45.894 100.39,39.419 				"/>
			</g>
			<g>
				<polygon fill="#A4ADBB" points="96.324,41.293 96.324,47.769 93.504,45.834 93.504,39.36 				"/>
			</g>
			<g>
				<polygon fill="#DCDEE3" points="93.504,39.36 93.504,45.834 89.366,48.611 89.366,42.136 				"/>
			</g>
			<g>
				<polygon fill="#DCDEE3" points="92.811,31.444 92.811,37.92 70.396,53.013 70.396,46.538 				"/>
			</g>
			<g>
				<polygon fill="#A4ADBB" points="89.366,42.136 89.366,48.611 86.283,46.416 86.283,39.94 				"/>
			</g>
			<g>
				<polygon fill="#A4ADBB" points="69.176,42.564 69.176,49.038 66.749,47.068 66.749,40.594 				"/>
			</g>
			<g>
				<polygon fill="#A4ADBB" points="117.604,47.083 117.604,53.559 103.186,43.937 103.186,37.461 				"/>
			</g>
			<g>
				<polygon fill="#DCDEE3" points="104.3,42.076 104.3,48.552 100.951,50.937 100.951,44.462 				"/>
			</g>
			<g>
				<polygon fill="#A4ADBB" points="100.951,44.462 100.951,50.937 100.055,50.32 100.055,43.845 				"/>
			</g>
			<g>
				<polygon fill="#DCDEE3" points="100.055,43.845 100.055,50.32 97.126,52.396 97.126,45.921 				"/>
			</g>
			<g>
				<polygon fill="#DCDEE3" points="94.004,48.152 94.004,54.628 91.016,56.739 91.016,50.265 				"/>
			</g>
			<g>
				<polygon fill="#DCDEE3" points="121.512,49.683 121.512,56.158 118.715,58.28 118.715,51.807 				"/>
			</g>
			<g>
				<polygon fill="#DCDEE3" points="86.533,44.178 86.533,50.653 72.584,60.216 72.584,53.74 				"/>
			</g>
			<g>
				<polygon fill="#A4ADBB" points="72.584,53.74 72.584,60.216 66.593,55.564 66.593,49.089 				"/>
			</g>
			<g>
				<polygon fill="#A4ADBB" points="90.251,54.381 90.251,60.856 84.12,56.418 84.12,49.942 				"/>
			</g>
			<g>
				<polygon fill="#A4ADBB" points="117.292,55.626 117.292,62.102 103.893,52.941 103.893,46.467 				"/>
			</g>
			<g>
				<polygon fill="#DCDEE3" points="107.107,52.851 107.107,59.326 103.987,61.616 103.987,55.141 				"/>
			</g>
			<g>
				<polygon fill="#A4ADBB" points="103.987,55.141 103.987,61.616 94.004,54.628 94.004,48.152 				"/>
			</g>
			<g>
				<polygon fill="#DCDEE3" points="120.628,53.088 120.628,59.563 117.292,62.102 117.292,55.626 				"/>
			</g>
			<g>
				<polygon fill="#A4ADBB" points="146.115,57.585 146.115,64.061 109.081,39.949 109.081,33.474 				"/>
			</g>
			<g>
				<polygon fill="#A4ADBB" points="134.566,58.381 134.566,64.854 121.512,56.158 121.512,49.683 				"/>
			</g>
			<g>
				<polygon fill="#DCDEE3" points="137.449,56.09 137.449,62.565 134.566,64.854 134.566,58.381 				"/>
			</g>
			<g>
				<polygon fill="#A4ADBB" points="68.912,60.753 68.912,67.228 65.888,64.914 65.888,58.438 				"/>
			</g>
			<g>
				<polygon fill="#DCDEE3" points="66.593,49.089 66.593,55.564 47.24,68.604 47.24,62.129 				"/>
			</g>
			<g>
				<polygon fill="#DCDEE3" points="149.749,59.97 149.749,66.444 146.736,68.96 146.736,62.486 				"/>
			</g>
			<g>
				<polygon fill="#DCDEE3" points="65.888,58.438 65.888,64.914 59.529,69.305 59.529,62.829 				"/>
			</g>
			<g>
				<polygon fill="#A4ADBB" points="55.512,63.196 55.512,69.672 53.861,68.367 53.861,61.893 				"/>
			</g>
			<g>
				<polygon fill="#A4ADBB" points="122.026,67.788 122.026,74.264 107.489,64.084 107.489,57.608 				"/>
			</g>
			<g>
				<polygon fill="#A4ADBB" points="68.304,65.677 68.304,72.151 65.278,69.778 65.278,63.304 				"/>
			</g>
			<g>
				<polygon fill="#DCDEE3" points="149.474,64.301 149.474,70.775 146.797,73.006 146.797,66.53 				"/>
			</g>
			<g>
				<polygon fill="#A4ADBB" points="146.797,66.53 146.797,73.006 138.01,67.146 138.01,60.67 				"/>
			</g>
			<g>
				<polygon fill="#A4ADBB" points="135.739,68.253 135.739,74.727 120.747,64.476 120.747,58.001 				"/>
			</g>
			<g>
				<polygon fill="#A4ADBB" points="41.776,68.82 41.776,75.296 39.791,73.637 39.791,67.161 				"/>
			</g>
			<g>
				<polygon fill="#DCDEE3" points="49.235,63.742 49.235,70.218 41.776,75.296 41.776,68.82 				"/>
			</g>
			<g>
				<polygon fill="#DCDEE3" points="64.478,71.883 64.478,78.357 62.564,79.734 62.564,73.26 				"/>
			</g>
			<g>
				<polygon fill="#DCDEE3" points="61.549,64.42 61.549,70.896 36.874,88.051 36.874,81.577 				"/>
			</g>
			<g>
				<polygon fill="#A4ADBB" points="62.564,73.26 62.564,79.734 59.11,76.946 59.11,70.471 				"/>
			</g>
			<g>
				<polygon fill="#A4ADBB" points="160.282,75.515 160.282,81.989 150.514,75.474 150.514,69 				"/>
			</g>
			<g>
				<polygon fill="#DCDEE3" points="129.643,68.334 129.643,74.81 120.473,82.606 120.473,76.131 				"/>
			</g>
			<g>
				<polygon fill="#DCDEE3" points="66.749,40.594 66.749,47.068 11.399,83.473 11.399,76.997 				"/>
			</g>
			<g>
				<polygon fill="#A4ADBB" points="26.283,76.273 26.283,82.749 23.043,79.888 23.043,73.414 				"/>
			</g>
			<g>
				<polygon fill="#DCDEE3" points="39.791,67.161 39.791,73.637 26.283,82.749 26.283,76.273 				"/>
			</g>
			<g>
				<polygon fill="#A4ADBB" points="174.962,76.367 174.962,82.842 149.749,66.444 149.749,59.97 				"/>
			</g>
			<g>
				<polygon fill="#A4ADBB" points="150.349,78.219 150.349,84.694 139.982,77.611 139.982,71.136 				"/>
			</g>
			<g>
				<polygon fill="#DCDEE3" points="153.622,75.359 153.622,81.834 150.349,84.694 150.349,78.219 				"/>
			</g>
			<g>
				<polygon fill="#DCDEE3" points="139.982,71.136 139.982,77.611 130.968,85.133 130.968,78.658 				"/>
			</g>
			<g>
				<polygon fill="#DCDEE3" points="59.373,75.621 59.373,82.097 51.388,87.696 51.388,81.222 				"/>
			</g>
			<g>
				<polygon fill="#A4ADBB" points="36.874,81.577 36.874,88.051 34.878,86.32 34.878,79.846 				"/>
			</g>
			<g>
				<polygon fill="#DCDEE3" points="168.147,76.617 168.147,83.093 162.66,88.051 162.66,81.577 				"/>
			</g>
			<g>
				<polygon fill="#A4ADBB" points="128.232,81.695 128.232,88.171 123.892,84.955 123.892,78.479 				"/>
			</g>
			<g>
				<polygon fill="#DCDEE3" points="21.836,79.275 21.836,85.751 17.244,88.834 17.244,82.359 				"/>
			</g>
			<g>
				<polygon fill="#A4ADBB" points="26.737,85.469 26.737,91.944 23.307,88.834 23.307,82.359 				"/>
			</g>
			<g>
				<polygon fill="#DCDEE3" points="34.878,79.846 34.878,86.32 26.737,91.944 26.737,85.469 				"/>
			</g>
			<g>
				<polygon fill="#DCDEE3" points="121.632,82.11 121.632,88.586 117.006,92.405 117.006,85.931 				"/>
			</g>
			<g>
				<polygon fill="#A4ADBB" points="50.408,86.774 50.408,93.249 47.323,90.592 47.323,84.116 				"/>
			</g>
			<g>
				<polygon fill="#A4ADBB" points="163.281,87.059 163.281,93.533 154.231,87.351 154.231,80.877 				"/>
			</g>
			<g>
				<polygon fill="#DCDEE3" points="62.469,84.199 62.469,90.674 58.38,93.581 58.38,87.106 				"/>
			</g>
			<g>
				<polygon fill="#A4ADBB" points="153.516,89.894 153.516,96.369 137.449,85.096 137.449,78.622 				"/>
			</g>
			<g>
				<polygon fill="#DCDEE3" points="139.541,84.745 139.541,91.22 136.312,94.009 136.312,87.534 				"/>
			</g>
			<g>
				<polygon fill="#A4ADBB" points="136.312,87.534 136.312,94.009 132.261,91.078 132.261,84.603 				"/>
			</g>
			<g>
				<polygon fill="#DCDEE3" points="47.323,84.116 47.323,90.592 39.277,96.334 39.277,89.86 				"/>
			</g>
			<g>
				<polygon fill="#DCDEE3" points="156.875,86.868 156.875,93.344 153.516,96.369 153.516,89.894 				"/>
			</g>
			<g>
				<polygon fill="#A4ADBB" points="31.985,90.12 31.985,96.596 29.462,94.4 29.462,87.926 				"/>
			</g>
			<g>
				<polygon fill="#DCDEE3" points="132.261,84.603 132.261,91.078 124.203,97.936 124.203,91.46 				"/>
			</g>
			<g>
				<polygon fill="#A4ADBB" points="116.528,91.497 116.528,97.973 113.275,95.515 113.275,89.04 				"/>
			</g>
			<g>
				<polygon fill="#A4ADBB" points="165.017,92.269 165.017,98.742 160.796,95.811 160.796,89.337 				"/>
			</g>
			<g>
				<polygon fill="#DCDEE3" points="181.944,76.463 181.944,82.938 165.017,98.742 165.017,92.269 				"/>
			</g>
			<g>
				<polygon fill="#A4ADBB" points="143.868,92.956 143.868,99.43 139.732,96.464 139.732,89.989 				"/>
			</g>
			<g>
				<polygon fill="#DCDEE3" points="54.771,90.5 54.771,96.976 50.348,100.154 50.348,93.679 				"/>
			</g>
			<g>
				<polygon fill="#A4ADBB" points="50.348,93.679 50.348,100.154 46.031,96.381 46.031,89.906 				"/>
			</g>
			<g>
				<polygon fill="#DCDEE3" points="136.097,93.668 136.097,100.142 135.165,100.962 135.165,94.486 				"/>
			</g>
			<g>
				<polygon fill="#DCDEE3" points="35.272,93.087 35.272,99.562 31.697,102.113 31.697,95.638 				"/>
			</g>
			<g>
				<polygon fill="#DCDEE3" points="65.566,92.991 65.566,99.466 61.404,102.635 61.404,96.16 				"/>
			</g>
			<g>
				<polygon fill="#A4ADBB" points="61.404,96.16 61.404,102.635 54.771,96.976 54.771,90.5 				"/>
			</g>
			<g>
				<polygon fill="#A4ADBB" points="124.07,97.417 124.07,103.893 120.413,101.151 120.413,94.678 				"/>
			</g>
			<g>
				<polygon fill="#A4ADBB" points="151.555,98.474 151.555,104.948 147.754,102.219 147.754,95.744 				"/>
			</g>
			<g>
				<polygon fill="#DCDEE3" points="46.605,96.455 46.605,102.931 42.397,106.016 42.397,99.54 				"/>
			</g>
			<g>
				<polygon fill="#A4ADBB" points="42.397,99.54 42.397,106.016 35.272,99.562 35.272,93.087 				"/>
			</g>
			<g>
				<polygon fill="#DCDEE3" points="57.747,99.03 57.747,105.506 53.73,108.556 53.73,102.08 				"/>
			</g>
			<g>
				<polygon fill="#DCDEE3" points="131.304,97.88 131.304,104.355 125.374,109.554 125.374,103.078 				"/>
			</g>
			<g>
				<polygon fill="#A4ADBB" points="139.087,103.61 139.087,110.087 131.304,104.355 131.304,97.88 				"/>
			</g>
			<g>
				<polygon fill="#DCDEE3" points="147.754,95.744 147.754,102.219 139.087,110.087 139.087,103.61 				"/>
			</g>
			<g>
				<polygon fill="#A4ADBB" points="86.224,105.13 86.224,111.605 82.625,108.602 82.625,102.128 				"/>
			</g>
			<g>
				<polygon fill="#DCDEE3" points="120.413,94.678 120.413,101.151 107.467,112.187 107.467,105.711 				"/>
			</g>
			<g>
				<polygon fill="#A4ADBB" points="107.467,105.711 107.467,112.187 103.355,108.946 103.355,102.471 				"/>
			</g>
			<g>
				<g>
					<polyline fill="#DCDEE3" points="91.997,84.223 91.997,90.698 60.95,114.952 60.95,108.477 91.997,84.223 					"/>
				</g>
			</g>
			<g>
				<polygon fill="#A4ADBB" points="125.374,108.879 125.374,115.354 117.795,109.468 117.795,102.993 				"/>
			</g>
			<g>
				<polygon fill="#A4ADBB" points="93.097,111.099 93.097,117.573 89.535,114.618 89.535,108.145 				"/>
			</g>
			<g>
				<polygon fill="#A4ADBB" points="71.352,111.169 71.352,117.645 67.873,114.642 67.873,108.168 				"/>
			</g>
			<g>
				<polygon fill="#DCDEE3" points="82.625,102.128 82.625,108.602 71.352,117.645 71.352,111.169 				"/>
			</g>
			<g>
				<polygon fill="#DCDEE3" points="89.535,108.145 89.535,114.618 85.733,117.774 85.733,111.299 				"/>
			</g>
			<g>
				<polygon fill="#A4ADBB" points="85.733,111.299 85.733,117.774 82.265,114.819 82.265,108.346 				"/>
			</g>
			<g>
				<polygon fill="#DCDEE3" points="118.477,108.631 118.477,115.105 112.296,120.516 112.296,114.041 				"/>
			</g>
			<g>
				<polygon fill="#DCDEE3" points="100.521,111.584 100.521,118.06 97.042,121.013 97.042,114.539 				"/>
			</g>
			<g>
				<polygon fill="#DCDEE3" points="135.212,106.66 135.212,113.136 126.354,121.133 126.354,114.657 				"/>
			</g>
			<g>
				<polygon fill="#A4ADBB" points="127.035,120.994 127.035,127.47 122.924,124.218 122.924,117.741 				"/>
			</g>
			<g>
				<polygon fill="#A4ADBB" points="115.919,124.055 115.919,130.528 100.521,118.06 100.521,111.584 				"/>
			</g>
			<g>
				<polygon fill="#DCDEE3" points="122.924,117.741 122.924,124.218 115.919,130.528 115.919,124.055 				"/>
			</g>
			<g>
				<polygon fill="#A4ADBB" points="108.507,130.688 108.507,137.162 89.296,120.919 89.296,114.443 				"/>
			</g>
			<g>
				<polygon fill="#DCDEE3" points="112.284,127.366 112.284,133.841 108.507,137.162 108.507,130.688 				"/>
			</g>
			<g>
				<polygon fill="#A4ADBB" points="97.042,133.606 97.042,140.081 74.508,120.434 74.508,113.958 				"/>
			</g>
			<g>
				<polygon fill="#DCDEE3" points="105.004,133.524 105.004,140 92.547,151.271 92.547,144.796 				"/>
			</g>
			<g>
				<polygon fill="#A4ADBB" points="92.547,144.796 92.547,151.271 45.805,109.148 45.805,102.673 				"/>
			</g>
			<g>
				<polygon fill="#A4ADBB" points="92.271,160.185 92.271,166.66 3.342,83.399 3.342,76.924 				"/>
			</g>
			<g>
				<polygon fill="#DCDEE3" points="162.088,95.032 162.088,101.507 92.271,166.66 92.271,160.185 				"/>
			</g>
		</g>
	</g>
	<g>
		<path fill="none" d="M151.555,98.474l-3.801-2.729l-8.667,7.866l-7.783-5.73l-5.93,5.198l3.145,2.473l0.31,0.243l0.273-0.243
			l2.143-1.903l2.507,1.903l1.461,1.109l-8.857,7.997l4.1,3.19c0.263-0.235,1.697-1.552,3.719-3.404
			c1.996-1.85,4.566-4.199,7.112-6.524c0.87-0.803,1.728-1.594,2.568-2.368c1.597-1.471,3.108-2.861,4.354-4.004
			C150.096,99.813,151.398,98.616,151.555,98.474z"/>
		<polygon fill="#6F95CF" points="129.102,105.551 133.751,105.551 131.244,103.647 		"/>
		<path fill="#6F95CF" d="M66.354,104.251c1.025-0.802,2.155-1.681,3.346-2.61c-1.298-1.034-2.47-2.147-3.479-3.344l-8.952,6.916
			l-3.539-3.133l4.017-3.05l-3.275-2.858l-8.667,6.501l3.193,2.878h15.694C65.212,105.146,65.761,104.716,66.354,104.251z"/>
		<path fill="#6F95CF" d="M113.13,57.008h-4.842l-0.326,0.245c0.059,0.035,0.119,0.061,0.179,0.095
			c2.387,1.419,4.41,3.104,6.076,4.972l7.81,5.469l-3.013,2.386l-0.301-0.214c0.566,1.677,0.922,3.41,1.057,5.168
			c-0.019-0.285-0.015-0.572-0.045-0.856c0.201,0.56,0.37,1.126,0.522,1.698l0.226,0.161l9.17-7.797L113.13,57.008z"/>
		<path fill="#6F95CF" d="M71.183,105.551h5.18c-1.096-0.464-2.171-0.97-3.207-1.561L71.183,105.551z"/>
		<path fill="#6F95CF" d="M72.726,58.083l-1.375-1.075H61.019l-7.157,4.885l1.65,1.304c-0.49,0.346-1.614,1.116-3.049,2.102
			c-1.434,0.983-3.179,2.184-4.878,3.356c-1.72,1.176-3.383,2.327-4.673,3.217c-1.291,0.878-2.199,1.507-2.368,1.624l-1.912-1.6
			L23.307,82.359l3.431,3.109l8.141-5.623l1.996,1.731L61.549,64.42l-2.02-1.591l6.358-4.391l3.024,2.314l-3.634,2.551l0.883,0.693
			c2.555-2.894,5.675-5.219,9.104-6.989h-1.002L72.726,58.083z"/>
		<path fill="#6F95CF" d="M125.374,103.078l5.93-5.198l7.783,5.73l8.667-7.866l3.801,2.729c-0.156,0.143-1.459,1.34-3.347,3.073
			c-1.246,1.143-2.758,2.533-4.354,4.004h6.963l11.271-10.519l-3.97-2.776l-3.492,3.203l-11.666-8.281l-3.228,2.812l4.136,2.967
			l-4.854,4.341l-3.849-2.811l0.932-0.818l-4.136-3.026l-4.112,3.537l-3.646-2.719l8.058-6.857l4.052,2.932l3.229-2.789
			l-8.573-6.087l9.015-7.522l10.366,7.083l3.273-2.859l-27.194-18.352h-4.394l-1.287,0.993l14.992,10.252
			c-0.419,0.355-1.34,1.126-2.475,2.11c-1.148,0.986-2.523,2.185-3.85,3.335c-1.362,1.162-2.667,2.303-3.682,3.181
			c-1.004,0.878-1.71,1.494-1.842,1.601l4.341,3.216l-7.963,6.655l-0.359-0.265c-0.991,3.105-2.68,6.141-5.121,8.936
			c-2.594,2.962-5.771,5.352-9.274,7.15l1.749,1.379h0.392l12.758-10.873l3.657,2.739l-6.275,5.576l3.294,2.558h7.43
			L125.374,103.078z"/>
		<path fill="#6F95CF" d="M31.697,95.638l3.575-2.551l7.125,6.453l4.208-3.085l-7.328-6.595l8.046-5.744l3.085,2.658l-4.377,3.132
			l4.316,3.772l4.424-3.179l6.633,5.66l2.219-1.689c-0.789-1.463-1.395-2.991-1.82-4.561l-3.423-2.804l2.311-1.645
			c-0.314-1.112-0.533-2.247-0.663-3.392l-1.492-1.302l-4.136,2.98l-3.012-2.527l7.985-5.601l-3.717-2.826L35.895,86.856
			l-2.247-1.923l-4.186,2.992l2.523,2.194l-3.552,2.502L17.244,82.359l4.592-3.084l-3.24-2.919l-4.603,3.036l-2.594-2.396
			l30.393-19.989h-7.811L3.342,76.924l30.576,28.627h8.591L31.697,95.638z"/>
		<path fill="#6F95CF" d="M121.632,82.11l-0.666-0.487c-0.004,0.354-0.014,0.71-0.034,1.066L121.632,82.11z"/>
		<polygon fill="#6F95CF" points="134.566,58.381 136.294,57.008 132.506,57.008 		"/>
		<polygon fill="#6F95CF" points="146.115,57.585 143.426,60.101 140.867,58.344 138.01,60.67 146.797,66.53 149.474,64.301 
			146.736,62.486 149.749,59.97 174.962,76.367 166.462,84.129 162.66,81.577 168.147,76.617 153.168,66.733 150.514,69 
			160.282,75.515 154.231,80.877 163.281,87.059 160.796,89.337 165.017,92.269 181.944,76.463 151.717,57.008 145.229,57.008 		"/>
		<path fill="#6F95CF" d="M61.228,72.183c0.613-1.688,1.439-3.348,2.481-4.955l-4.599,3.243L61.228,72.183z"/>
		<polygon fill="#6F95CF" points="137.449,78.622 153.516,89.894 156.875,86.868 140.808,75.763 		"/>
		<polygon fill="#6F95CF" points="23.043,73.414 26.283,76.273 39.791,67.161 41.776,68.82 49.235,63.742 47.24,62.129 
			54.841,57.008 47.577,57.008 		"/>
		<path fill="#537EC0" d="M92.547,144.796l12.457-11.271l-26.552-22.771l-3.944,3.204l22.534,19.648l-3.85,3.417L60.95,108.477
			c0.192-0.154,0.813-0.641,1.746-1.377c0.56-0.429,1.24-0.958,1.996-1.549H48.998L92.547,144.796z"/>
		<path fill="#537EC0" d="M92.271,160.185l58.545-54.634h-6.963c-0.841,0.774-1.698,1.565-2.568,2.368
			c-2.546,2.325-5.116,4.675-7.112,6.524c-2.021,1.853-3.456,3.169-3.719,3.404l-4.1-3.19l8.857-7.997l-1.461-1.109h-4.649
			l-0.273,0.243l-0.31-0.243h-7.43l4.285,3.328l-9.253,8.259l-3.825-3.097l6.181-5.41l-3.79-2.98l-6.169,5.354
			c-0.238-0.191-0.825-0.665-1.577-1.271c-0.753-0.604-1.674-1.354-2.571-2.077c-0.887-0.705-1.731-1.384-2.406-1.925
			c-1.293,0.491-2.608,0.923-3.952,1.261l-0.778,0.664l-0.468-0.39c-4.459,0.955-9.098,1.09-13.555,0.311l-0.945,0.769l3.469,2.953
			l3.802-3.154l3.562,2.954l-3.801,3.345l19.211,16.244l3.777-3.321l-15.242-12.827l3.479-2.955l15.398,12.471l7.005-6.313
			l4.111,3.253l-33.806,31.062l-50.721-46.506h-8.591L92.271,160.185z"/>
		<polygon fill="#537EC0" points="107.467,105.711 107.655,105.551 107.264,105.551 		"/>
		<path fill="#537EC0" d="M67.873,108.168l3.479,3.001l6.324-5.071c-0.446-0.163-0.877-0.362-1.313-0.547h-5.18L67.873,108.168z"/>
		<path fill="#537EC0" d="M74.263,57.008h1.002c2.724-1.406,5.639-2.47,8.652-3.132l-2.536-1.846L74.263,57.008z"/>
		<path fill="#537EC0" d="M92.606,18.964L74.963,30.377l3.442,2.552l15.038-9.838l2.69,1.745l-3.587,2.457l3.312,2.123l3.382-2.314
			l6.277,4.095l-2.834,1.97l-3.229-2.136l-2.952,2.005l3.132,2.053l-2.785,1.935l-3.252-2.088l-7.315,5.006l3.083,2.195l4.138-2.775
			l2.82,1.933L84.12,49.942l4.437,3.211c2.198-0.19,4.405-0.173,6.59,0.045l-4.131-2.934l2.988-2.112l9.983,6.988l3.12-2.29
			l-9.981-6.93l2.929-2.076l0.896,0.617l3.349-2.386l-3.91-2.657l2.796-1.958l14.418,9.622l-2.797,2.077l-7.568-5.113l-3.346,2.42
			l13.399,9.159l3.336-2.538l-1.913-1.281l2.797-2.124l10.994,7.325h3.788l1.155-0.918l-31.238-20.598l2.87-2.019l36.147,23.534
			h6.488L92.606,18.964z"/>
		<polygon fill="#537EC0" points="66.534,53.243 61.019,57.008 71.351,57.008 		"/>
		<polygon fill="#537EC0" points="66.749,40.594 69.176,42.564 47.577,57.008 54.841,57.008 66.593,49.089 72.584,53.74 
			86.533,44.178 83.235,41.851 73.263,48.673 70.396,46.538 92.811,31.444 89.45,29.214 72.631,40.319 70.12,38.41 75.427,34.886 
			71.829,32.406 33.981,57.008 41.792,57.008 		"/>
		<polygon fill="#537EC0" points="110.598,55.271 108.288,57.008 113.13,57.008 		"/>
		<polygon fill="#537EC0" points="124.083,55.426 122.034,57.008 126.428,57.008 		"/>
	</g>
</g>
<g>
	<path fill="#FFFFFF" d="M112.215,90.533c-9.566,10.928-27.4,13.792-39.85,6.389c-7.579-4.508-11.386-11.784-11.06-19.25
		c1.027-3.12,2.752-6.166,5.211-8.972c10.396-11.875,29.781-14.986,43.31-6.939c2.387,1.416,4.403,3.099,6.088,4.954
		C119.654,74.137,118.617,83.214,112.215,90.533z"/>
	<g>
		<path fill="#DCDEE3" d="M115.914,66.715c-0.339-0.374-0.699-0.733-1.064-1.091l-9.987,8.023l8.843,7.425l4.272-3.456
			C118.324,73.854,117.626,70.111,115.914,66.715z"/>
		<polygon fill="#A4ADBB" points="95.058,97.295 103.611,90.316 94.127,82.364 94.419,96.758 		"/>
		<path fill="#A4ADBB" d="M94.906,100.291l-1.716-1.472l0.038,1.8c0.574-0.089,1.142-0.214,1.711-0.334l-0.004-0.003
			C94.928,100.285,94.916,100.289,94.906,100.291z"/>
		<path fill="#DCDEE3" d="M65.942,91.38c-0.26-0.32-0.537-0.632-0.774-0.963l39.311-31.163c-4.509-1.613-9.389-2.203-14.221-1.859
			c-3.815,2.988-7.768,6.083-11.755,9.21c-4.875,3.813-9.768,7.654-14.405,11.275c-0.93,0.729-1.839,1.441-2.747,2.152
			c0.299,4.066,1.837,7.988,4.551,11.345c0.006,0.007,0.014,0.015,0.019,0.022C65.928,91.392,65.935,91.386,65.942,91.38z"/>
		<path fill="#DCDEE3" d="M94.419,96.758l-0.292-14.394L74.562,98.085l0,0c4.505,2.158,9.559,3.084,14.6,2.901
			c0.011,0,0.022-0.002,0.031-0.002L94.419,96.758z"/>
		<path fill="#6388C2" d="M90.193,57.396C81.215,58.054,72.418,61.96,66.517,68.7c-2.459,2.806-4.184,5.852-5.211,8.972
			c-0.018,0.423-0.019,0.844-0.011,1.265c0.006,0.274,0.023,0.551,0.039,0.825c0.006,0.089,0.01,0.178,0.017,0.268
			C68.445,74.462,84.063,62.208,90.193,57.396z"/>
		<path fill="#6388C2" d="M113.705,81.072l-8.843-7.425l9.987-8.023c-1.455-1.424-3.117-2.73-5.023-3.863
			c-1.246-0.741-2.556-1.355-3.89-1.909c-0.485-0.201-0.962-0.422-1.458-0.598L65.168,90.417c0.237,0.331,0.515,0.643,0.774,0.963
			c0.713,0.882,1.479,1.739,2.353,2.535c0.011,0.01,0.019,0.019,0.029,0.027c0.554,0.502,1.146,0.983,1.766,1.448
			c0.108,0.08,0.218,0.159,0.329,0.238c0.614,0.446,1.253,0.88,1.93,1.283c0.007,0.004,0.012,0.008,0.017,0.01
			c0.104,0.062,0.215,0.107,0.318,0.168c0.615,0.354,1.24,0.691,1.879,0.995l19.564-15.721l9.484,7.952l-8.554,6.979l-1.867,1.524
			l1.745,1.463c0.952-0.197,1.891-0.446,2.819-0.723c0.636-0.188,1.267-0.39,1.889-0.614c0.112-0.041,0.222-0.082,0.334-0.125
			c0.248-0.095,0.492-0.204,0.738-0.305c0.434-0.174,0.871-0.34,1.296-0.53c0.118-0.055,0.235-0.113,0.354-0.169
			c0.637-0.297,1.262-0.611,1.877-0.949c0.188-0.102,0.365-0.214,0.55-0.319c0.545-0.312,1.085-0.633,1.608-0.979
			c0.25-0.166,0.487-0.347,0.732-0.518c0.452-0.317,0.903-0.633,1.335-0.974c0.31-0.247,0.604-0.516,0.905-0.773
			c0.351-0.302,0.71-0.594,1.047-0.912c0.414-0.395,0.802-0.817,1.192-1.236c0.197-0.211,0.41-0.405,0.601-0.623
			c0.459-0.524,0.885-1.06,1.287-1.601c0.091-0.12,0.173-0.243,0.261-0.366c0.306-0.424,0.597-0.854,0.87-1.289
			c0.09-0.14,0.173-0.283,0.258-0.425c0.267-0.442,0.516-0.888,0.748-1.337c0.058-0.115,0.118-0.23,0.177-0.346
			c0.269-0.544,0.518-1.094,0.737-1.646c0.007-0.015,0.013-0.03,0.019-0.045L113.705,81.072z"/>
	</g>
</g>
<g>
	<g>
		<g>
			<path fill="#BDBEBF" d="M120.237,74.162c0.639,6.126-1.328,12.596-6.161,18.125c-10.287,11.729-29.437,14.805-42.81,6.856
				c-5.306-3.154-8.863-7.576-10.63-12.487c0.711,6.865,4.709,13.312,11.774,17.51c13.369,7.943,32.528,4.875,42.804-6.856
				C121.401,90.227,122.92,81.624,120.237,74.162z"/>
			<path fill="#BDBEBF" d="M66.79,68.824c10.274-11.734,29.429-14.81,42.798-6.857c5.308,3.15,8.867,7.572,10.636,12.484
				c-0.719-6.87-4.71-13.309-11.773-17.51c-13.379-7.946-32.534-4.872-42.801,6.856c-6.196,7.08-7.709,15.688-5.025,23.145
				C59.98,80.819,61.944,74.352,66.79,68.824z"/>
			<path fill="#ECEDED" d="M108.45,56.941c-13.379-7.946-32.534-4.872-42.801,6.856C55.376,75.535,57.891,91.49,71.25,99.434
				c13.373,7.947,32.531,4.869,42.805-6.856C124.32,80.838,121.813,64.891,108.45,56.941z M111.948,90.398
				c-9.453,10.8-27.076,13.63-39.379,6.314c-12.293-7.314-14.607-21.985-5.158-32.78c9.445-10.8,27.076-13.622,39.37-6.314
				C119.08,64.927,121.39,79.605,111.948,90.398z"/>
		</g>
		<g>
			<g>
				<path fill="#969696" d="M70.01,105.601c-0.893,0.804-2.544,0.729-3.663-0.153l-7.398-7.624
					c-1.123-0.888-0.706-2.577,0.181-3.376l0.282-0.254c0.894-0.802,2.472-1.225,4.087,0.021c0,0,3.671,3.646,4.769,4.772
					c1.092,1.129,2.457,2.603,2.457,2.603c0.825,1.128,0.731,2.736-0.153,3.544L70.01,105.601z"/>
				<path fill="#4B4B4B" d="M67.309,103.059c0,0,1.207,3.85-1.454,5.826c-2.668,1.967-36.5,25.892-38.309,27.068
					c-4.219,2.735-10.817-3.755-7.287-8.067c3.629-4.437,32.476-28.449,35.08-30.581c2.562-2.105,5.267-1.44,7.174-0.319
					C64.387,98.093,66.42,100.37,67.309,103.059z"/>
			</g>
			<path d="M27.546,135.953c-4.267,2.86-10.811-3.968-7.249-8.019C23.808,124.373,31.705,133.196,27.546,135.953z"/>
		</g>
	</g>
</g>
</svg>
