<svg xmlns="http://www.w3.org/2000/svg" xmlns:xlink="http://www.w3.org/1999/xlink" version="1.2" viewBox="0 0 436.4 436.5" baseProfile="tiny-ps">  <title>mm_logo_farbe_tiny_ps</title>  <path d="M30.6,0c0,0-30.7,0-30.7,30.7v375.1c0,0,0,30.7,30.7,30.7h375.1c0,0,30.7,0,30.7-30.7V30.7  c0,0,0-30.7-30.7-30.7H30.6z" fill="#FF581E"/>  <path d="M191.4,280.2c0,1.9-0.6,3.8-1.7,5.7s-2.7,3.7-4.8,5.2s-4.6,2.8-7.5,3.8c-2.9,0.9-6.2,1.4-9.8,1.4  c-3.9,0-6.6-0.5-8.2-1.6c-1.6-1.1-2.4-2.6-2.4-4.4v-0.1c0-1.1,0.2-2,0.8-2.9c0.5-0.9,1.3-1.6,2.3-2.2c1.3-0.9,3.3-1.5,5.9-2  c2.6-0.5,6.4-0.9,11.4-1.1c4.4-0.2,7.7-0.7,9.8-1.3c2.1-0.6,3.5-1.4,4.2-2.3V280.2L191.4,280.2z M200.3,301.8V273  c0-5.8-2-10-6.1-12.7c-4.1-2.6-10.3-3.9-18.8-3.9s-15,1.4-19.7,4.2s-7.3,7.1-8,13h9.8c0.5-3.5,2.1-6,4.9-7.7s7.4-2.5,13.8-2.5  c3.8,0,6.8,0.4,9,1.1s3.7,1.7,4.6,2.8c0.5,0.6,0.8,1.1,1,1.7s0.3,1.2,0.3,1.8v0.1c0,1.2-0.5,2.2-1.3,2.8c-0.9,0.7-2.4,1.1-4.5,1.5  c-1.1,0.1-2.4,0.3-3.8,0.5c-1.5,0.1-3.2,0.3-5,0.4c-4.6,0.3-8.4,0.6-11.4,1s-5.4,0.9-7.2,1.5c-0.9,0.2-1.8,0.6-2.6,0.9  c-0.8,0.4-1.6,0.7-2.3,1.1c-2,1.1-3.6,2.5-4.6,4.3c-1,1.7-1.6,3.8-1.6,6.1v0.1c0,3.9,1.5,6.9,4.4,9s7.5,3.1,13.7,3.1  c4.7,0,8.9-0.6,12.4-1.8c3.5-1.2,6.5-2.8,8.9-4.9c1.2-1,2.2-2.1,3.1-3.2s1.6-2.3,2.3-3.6l0.9,12L200.3,301.8L200.3,301.8  L200.3,301.8z" fill="#FFFFFF"/>  <path d="M62.3,334.2v20.2h-9.6v-43.7h8.2l0.8,10.5c1.5-3.6,3.8-6.5,7-8.8c3.2-2.2,7.1-3.4,11.9-3.4  c5.3,0,9.5,1.2,12.5,3.5s5.1,5.4,6.3,9.3c1.5-3.8,3.9-6.9,7.2-9.3c3.3-2.4,7.4-3.5,12.2-3.5c7,0,12.3,2,15.7,6s5.2,9.4,5.2,16.1  v23.3H130v-21.8c0-1.6-0.1-3.1-0.3-4.5s-0.6-2.7-1-3.9c-0.9-2.4-2.4-4.2-4.5-5.5s-4.9-2-8.6-2c-4.7,0-8.3,1.5-10.8,4.5  s-3.7,7-3.7,12v21.1h-9.6V332c0-1.4-0.1-2.8-0.3-4.1c-0.2-1.3-0.5-2.5-0.9-3.7c-0.8-2.3-2.2-4.1-4.2-5.5s-4.9-2.1-8.5-2.1  c-4.9,0-8.8,1.5-11.4,4.6S62.3,328.7,62.3,334.2" fill="#FFFFFF"/>  <path d="M193.1,332.7c0,5-1.6,8.8-4.8,11.4c-3.2,2.5-8,3.8-14.5,3.8s-11.1-1.3-14.3-3.8s-4.8-6.3-4.8-11.4  c0-5.4,1.7-9.4,5.2-12s8.2-4,14-4s10.7,1.4,14.1,4.1C191.4,323.5,193.1,327.5,193.1,332.7 M202.7,332.7c0-5-1.2-9.4-3.6-12.9  c-2.4-3.5-5.8-6.2-10.2-8.1c-2.2-0.9-4.5-1.6-7-2.1s-5.2-0.7-8.1-0.7c-5.6,0-10.6,0.9-14.9,2.8c-4.3,1.9-7.7,4.6-10.2,8.1  c-1.2,1.7-2.1,3.7-2.7,5.8c-0.6,2.1-0.9,4.5-0.9,7c0,7.2,2.3,12.9,6.8,17s11.8,6.1,21.6,6.1s17.1-2.1,21.9-6.2  S202.7,339.8,202.7,332.7" fill="#FFFFFF"/>  <path d="M252.1,354.4l-0.8-11.5c-1.4,4-3.9,7.1-7.5,9.5c-3.5,2.3-8,3.5-13.3,3.5c-7.3,0-12.8-1.9-16.5-5.8  s-5.5-9.2-5.5-16v-23.3h9.6v21.6c0,5,1.3,8.9,3.8,11.6s6.6,4,12.3,4c5.2,0,9.3-1.5,12.2-4.5s4.4-7.2,4.4-12.6v-20h9.6v43.7  L252.1,354.4L252.1,354.4L252.1,354.4z" fill="#FFFFFF"/>  <path d="M216.7,258.1l0.8,11.5c1.4-4,3.9-7.1,7.5-9.5c3.5-2.3,8-3.5,13.3-3.5c7.3,0,12.8,1.9,16.5,5.8  s5.5,9.2,5.5,16v23.3h-9.6v-21.6c0-5-1.3-8.9-3.8-11.6s-6.6-4-12.3-4c-5.2,0-9.3,1.5-12.2,4.5s-4.4,7.2-4.4,12.6v20h-9.6v-43.7  L216.7,258.1L216.7,258.1L216.7,258.1z" fill="#FFFFFF"/>  <path d="M276.6,258.1l0.8,11.5c1.4-4,3.9-7.1,7.5-9.5c3.5-2.3,8-3.5,13.3-3.5c7.3,0,12.8,1.9,16.5,5.8  s5.5,9.2,5.5,16v23.3h-9.6v-21.6c0-5-1.3-8.9-3.8-11.6s-6.6-4-12.3-4c-5.2,0-9.3,1.5-12.2,4.5s-4.4,7.2-4.4,12.6v20h-9.6v-43.7  L276.6,258.1L276.6,258.1L276.6,258.1z" fill="#FFFFFF"/>  <path d="M295.6,355.8c-8.2,0-14.8-1.3-19.8-3.8s-8.1-6.7-9.3-12.4h10.9c0.9,3.4,3,5.7,6.2,6.9  c3.2,1.2,7.4,1.8,12.5,1.8c2,0,3.8-0.1,5.3-0.2s2.9-0.4,4-0.7c2.2-0.6,3.8-1.4,4.8-2.5s1.4-2.2,1.4-3.6c0-0.7-0.1-1.3-0.4-1.8  s-0.6-1-1.1-1.3c-1-0.8-2.9-1.3-5.5-1.7s-6.6-0.6-11.7-0.8c-2.9-0.1-5.5-0.3-7.8-0.5s-4.4-0.6-6.2-1c-3.6-0.9-6.2-2.2-7.8-3.9  c-1.6-1.8-2.5-4-2.5-6.9c0-4.1,2-7.6,5.9-10.3s9.8-4.1,17.6-4.1s14.2,1.2,18.9,3.6c4.7,2.4,7.8,6.3,9.5,11.6h-10.2  c-1-3-3-5.1-6.1-6.4s-7.1-1.8-11.9-1.8c-1.8,0-3.4,0.1-4.8,0.2s-2.6,0.4-3.7,0.7c-2,0.6-3.5,1.4-4.4,2.4s-1.3,2.1-1.3,3.3  c0,0.7,0.1,1.2,0.3,1.8s0.6,1,1,1.4c0.9,0.8,2.7,1.3,5.3,1.7s6.4,0.7,11.4,0.9c3.2,0.1,6,0.3,8.5,0.6c2.5,0.3,4.6,0.6,6.5,1.1  c3.6,0.9,6.2,2.2,7.8,3.9s2.3,4.1,2.3,7.1c0,1.4-0.2,2.7-0.7,3.9s-1.1,2.4-2.1,3.5c-1.8,2.2-4.5,3.9-8.3,5.2  S301.4,355.8,295.6,355.8" fill="#FFFFFF"/>  <path d="M374.2,329.1h-39c0.8-4.1,3-7.3,6.4-9.4s8-3.2,13.7-3.2s10.1,1,13.2,3.1  C371.8,321.7,373.6,324.8,374.2,329.1 M383.6,336v-3.8c0-4.8-1.1-8.9-3.4-12.4c-2.2-3.4-5.5-6.1-9.7-8c-2.1-1-4.5-1.7-7-2.1  c-2.5-0.5-5.3-0.7-8.3-0.7c-6.1,0-11.3,1-15.6,3.1s-7.7,4.9-10,8.5c-1.1,1.8-2,3.8-2.6,5.9s-0.9,4.3-0.9,6.6c0,4.6,1,8.7,3,12  c2,3.4,5,6,9.2,7.9c2.1,0.9,4.5,1.6,7.1,2.1c2.7,0.5,5.7,0.7,9,0.7c6.9,0,12.8-1,17.6-3.1c4.8-2.1,8.4-5.6,10.8-10.8h-10.6  c-1.3,2.1-3.3,3.7-6,4.8c-2.7,1-6.4,1.6-11,1.6c-6.2,0-11-1-14.2-3.1s-5.2-5.1-5.8-9.2H383.6z" fill="#FFFFFF"/>  <path d="M62.3,281.6v20.2h-9.6v-43.7h8.2l0.8,10.5c1.5-3.6,3.8-6.5,7-8.8c3.2-2.2,7.1-3.4,11.9-3.4  c5.3,0,9.5,1.2,12.5,3.5s5.1,5.4,6.3,9.3c1.5-3.8,3.9-6.9,7.2-9.3c3.3-2.4,7.4-3.5,12.2-3.5c7,0,12.3,2,15.7,6s5.2,9.4,5.2,16.1  v23.3H130V280c0-1.6-0.1-3.1-0.3-4.5s-0.6-2.7-1-3.9c-0.9-2.4-2.4-4.2-4.5-5.5s-4.9-2-8.6-2c-4.7,0-8.3,1.5-10.8,4.5s-3.7,7-3.7,12  v21.1h-9.6v-22.3c0-1.4-0.1-2.8-0.3-4.1c-0.2-1.3-0.5-2.5-0.9-3.7c-0.8-2.3-2.2-4.1-4.2-5.5s-4.9-2.1-8.5-2.1  c-4.9,0-8.8,1.5-11.4,4.6S62.3,276.2,62.3,281.6" fill="#FFFFFF"/>  <path d="M359.4,291.7c-3.6,2.4-6.9,3.8-11.3,3.8c-6.9,0-12.6-3.3-12.6-9.1c0-4.2,3.4-6.9,8.8-9.3L359.4,291.7  z M379.7,294c-3.1,0-5.1-0.6-7.8-2.5c4.7-5,9.3-10.2,11.7-18.5h-8.8c-2.1,5.5-4.8,9.7-8.9,13.4l-18.6-17.6c-5.5-5-6.6-7-6.6-10.3  c0-4.3,3.5-6.7,8-6.7s9.4,2.3,10.6,6.3h9.1c-1.7-8.2-9-13.1-19.7-13.1c-9.1,0-17,5.1-17,13.7c0,5.5,2.4,8.8,7.2,13.4  c-7.9,3.3-12.9,7.9-12.9,15.4c0,8.4,6.8,15.8,21,15.8c7.5,0,13.3-2.2,18.5-6c3.4,2.8,7.9,5.5,12.6,5.5c1.8,0,3.5-0.3,5.4-1.1v-8.3  C382,293.9,381,294,379.7,294" fill="#FFFFFF"/></svg>