<?xml version="1.0" encoding="UTF-8"?>
<svg xmlns="http://www.w3.org/2000/svg" baseProfile="tiny-ps" version="1.2" viewBox="0 0 204 101" xml:space="preserve">
<title>CBHV</title>
  <!-- Generator: Adobe Illustrator 28.7.1, SVG Export Plug-In . SVG Version: 1.2.0 Build 142)  -->
  <g>
    <g id="Layer_1">
      <g>
        <path d="M125.6,17.2c0-3.9,2.5-6.3,5.5-6.3s2.7.7,3.5,1.5l-1.1,1.4c-.6-.6-1.3-1-2.3-1-2,0-3.4,1.7-3.4,4.4s1.3,4.4,3.3,4.4,1.9-.5,2.6-1.2l1.1,1.3c-1,1.1-2.2,1.8-3.8,1.8-3,0-5.4-2.2-5.4-6.2Z" fill="#2b333b"/>
        <path d="M140.4,13.9c2.3,0,4.3,1.7,4.3,4.8s-2,4.7-4.3,4.7-4.3-1.7-4.3-4.7,2-4.8,4.3-4.8ZM140.4,15.7c-1.3,0-2.1,1.2-2.1,3s.8,3,2.1,3,2.1-1.2,2.1-3-.8-3-2.1-3h0Z" fill="#2b333b"/>
        <path d="M146.6,20.9v-10.7h2.1v10.8c0,.5.2.7.5.7s.2,0,.3,0l.3,1.6c-.3.1-.6.2-1.1.2-1.5,0-2.1-1-2.1-2.5h0Z" fill="#2b333b"/>
        <path d="M151.6,20.9v-10.7h2.1v10.8c0,.5.2.7.5.7s.2,0,.3,0l.3,1.6c-.3.1-.6.2-1.1.2-1.5,0-2.1-1-2.1-2.5Z" fill="#2b333b"/>
        <path d="M160.2,13.9c2.4,0,3.7,1.8,3.7,4.3s0,.8,0,1h-5.7c.2,1.6,1.2,2.5,2.7,2.5s1.4-.2,2.1-.7l.7,1.3c-.9.6-1.9,1-3.1,1-2.5,0-4.5-1.8-4.5-4.7s2-4.8,4.2-4.8h0ZM162.1,17.8c0-1.4-.6-2.2-1.9-2.2s-2,.8-2.2,2.2h4Z" fill="#2b333b"/>
        <path d="M165.4,18.7c0-3,2.1-4.8,4.5-4.8s2,.4,2.6,1l-1,1.4c-.5-.4-.9-.7-1.5-.7-1.5,0-2.5,1.2-2.5,3s1,3,2.4,3,1.4-.3,1.9-.8l.9,1.4c-.8.7-1.9,1.1-3,1.1-2.5,0-4.4-1.7-4.4-4.7h0Z" fill="#2b333b"/>
        <path d="M174.6,20.2v-4.3h-1.3v-1.6h1.4c0,0,.2-2.6.2-2.6h1.8v2.5h2.3v1.7h-2.3v4.3c0,1.1.4,1.6,1.3,1.6s.7-.1.9-.2l.4,1.6c-.5.2-1.1.3-1.8.3-2.1,0-2.9-1.3-2.9-3.3h0Z" fill="#2b333b"/>
        <path d="M180.7,11.4c0,.7.6,1.2,1.3,1.2s1.3-.5,1.3-1.2-.6-1.2-1.3-1.2-1.3.5-1.3,1.2ZM180.9,23.2h2.1v-9h-2.1v9Z" fill="#2b333b"/>
        <path d="M189.4,13.9c2.3,0,4.3,1.7,4.3,4.8s-2,4.7-4.3,4.7-4.3-1.7-4.3-4.7,2-4.8,4.3-4.8ZM189.4,15.7c-1.3,0-2.1,1.2-2.1,3s.8,3,2.1,3,2.1-1.2,2.1-3-.8-3-2.1-3h0Z" fill="#2b333b"/>
        <path d="M195.8,14.2h1.7l.2,1.2h0c.8-.8,1.7-1.4,3-1.4,1.9,0,2.8,1.3,2.8,3.6v5.7h-2.1v-5.4c0-1.5-.4-2-1.4-2s-1.3.4-2.1,1.1v6.3h-2.1v-9Z" fill="#2b333b"/>
        <path d="M118.9,29.6h3.9c2.5,0,4.3.8,4.3,3s-.6,2.2-1.7,2.6h0c1.3.4,2.3,1.3,2.3,2.9,0,2.4-2,3.5-4.6,3.5h-4.2v-12ZM122.5,34.6c1.7,0,2.4-.7,2.4-1.7s-.8-1.6-2.3-1.6h-1.6v3.3h1.5ZM122.8,40c1.8,0,2.8-.6,2.8-2s-1-1.8-2.8-1.8h-1.8v3.8h1.8Z" fill="#2b333b"/>
        <path d="M129.6,38.2v-5.7h2.1v5.4c0,1.5.4,2,1.4,2s1.3-.4,2-1.3v-6.2h2.1v9h-1.7l-.2-1.3h0c-.8.9-1.7,1.6-2.9,1.6-1.9,0-2.8-1.3-2.8-3.6h0Z" fill="#2b333b"/>
        <path d="M139.9,32.6h1.7l.2,1.6h0c.6-1.2,1.6-1.8,2.6-1.8s.8,0,1,.2l-.4,1.8c-.3,0-.6-.1-.9-.1-.7,0-1.6.5-2.1,1.9v5.5h-2.1v-9Z" fill="#2b333b"/>
        <path d="M150.2,32.4c2.4,0,3.7,1.8,3.7,4.3s0,.8,0,1h-5.7c.2,1.6,1.2,2.5,2.7,2.5s1.4-.2,2.1-.7l.7,1.3c-.9.6-1.9,1-3.1,1-2.5,0-4.5-1.8-4.5-4.7s2-4.7,4.2-4.7h0ZM152.1,36.2c0-1.4-.6-2.2-1.9-2.2s-2,.8-2.2,2.2h4Z" fill="#2b333b"/>
        <path d="M160.5,35.8c0-1-.4-1.8-1.6-1.8s-1.7.4-2.5.9l-.8-1.4c1-.6,2.3-1.2,3.7-1.2,2.3,0,3.4,1.4,3.4,3.9v5.4h-1.7l-.2-1h0c-.8.7-1.7,1.2-2.8,1.2-1.6,0-2.7-1.1-2.7-2.7s1.6-2.9,5.3-3.3ZM160.5,37.2c-2.5.3-3.3.9-3.3,1.9s.5,1.1,1.3,1.1,1.3-.4,2-1v-2Z" fill="#2b333b"/>
        <path d="M165.1,38.2v-5.7h2.1v5.4c0,1.5.4,2,1.4,2s1.3-.4,2-1.3v-6.2h2.1v9h-1.7l-.2-1.3h0c-.8.9-1.7,1.6-2.9,1.6-1.9,0-2.8-1.3-2.8-3.6Z" fill="#2b333b"/>
        <path d="M111.5,48h2.1v4.8h4.9v-4.8h2.1v12h-2.1v-5.3h-4.9v5.3h-2.1v-12Z" fill="#2b333b"/>
        <path d="M123.4,56.7v-5.7h2.1v5.4c0,1.5.4,2,1.4,2s1.3-.4,2-1.3v-6.2h2.1v9h-1.7l-.2-1.3h0c-.8.9-1.7,1.6-2.9,1.6-1.9,0-2.8-1.3-2.8-3.6Z" fill="#2b333b"/>
        <path d="M137,50.8c1,0,1.7.4,2.4,1v-1.5c0,0,0-3.3,0-3.3h2.1v13h-1.7l-.2-1h0c-.7.7-1.6,1.2-2.6,1.2-2.3,0-3.7-1.8-3.7-4.7s1.8-4.8,3.8-4.8h0ZM139.3,53.3c-.6-.6-1.2-.8-1.8-.8-1.1,0-2.1,1.1-2.1,3s.8,3,2.1,3,1.3-.3,1.9-1v-4.2Z" fill="#2b333b"/>
        <path d="M143.2,59l1-1.3c.8.6,1.6,1,2.5,1s1.5-.5,1.5-1.1-1-1.1-1.9-1.5c-1.2-.4-2.5-1.1-2.5-2.6s1.3-2.7,3.3-2.7,2.3.5,3,1.1l-1,1.3c-.6-.5-1.3-.8-2-.8s-1.3.4-1.3,1,.9,1,1.9,1.3c1.2.5,2.6,1,2.6,2.7s-1.2,2.8-3.5,2.8-2.5-.5-3.4-1.3h0Z" fill="#2b333b"/>
        <path d="M155.8,50.8c2.3,0,4.3,1.7,4.3,4.8s-2,4.7-4.3,4.7-4.3-1.7-4.3-4.7,2-4.8,4.3-4.8ZM155.8,52.5c-1.3,0-2.1,1.2-2.1,3s.8,3,2.1,3,2.1-1.2,2.1-3-.8-3-2.1-3h0Z" fill="#2b333b"/>
        <path d="M162.2,51h1.7l.2,1.2h0c.8-.8,1.7-1.4,3-1.4,1.9,0,2.8,1.3,2.8,3.6v5.7h-2.1v-5.4c0-1.5-.4-2-1.4-2s-1.3.4-2.1,1.1v6.3h-2.1v-9Z" fill="#2b333b"/>
        <path d="M105.6,66.4h2.3l1.7,6.1c.4,1.4.7,2.5,1.1,3.9h0c.4-1.4.7-2.6,1.1-3.9l1.7-6.1h2.2l-3.7,12h-2.5l-3.7-12Z" fill="#2b333b"/>
        <path d="M121.2,72.7c0-1-.4-1.8-1.6-1.8s-1.7.4-2.5.9l-.8-1.4c1-.6,2.3-1.2,3.7-1.2,2.3,0,3.4,1.4,3.4,3.9v5.4h-1.7l-.2-1h0c-.8.7-1.7,1.2-2.8,1.2-1.6,0-2.7-1.1-2.7-2.7s1.6-2.9,5.3-3.3h0ZM121.2,74c-2.5.3-3.3.9-3.3,1.9s.5,1.1,1.3,1.1,1.3-.4,2-1v-2Z" fill="#2b333b"/>
        <path d="M125.8,76.1v-10.7h2.1v10.8c0,.5.2.7.5.7s.2,0,.3,0l.3,1.6c-.3.1-.6.2-1.1.2-1.5,0-2.1-1-2.1-2.5Z" fill="#2b333b"/>
        <path d="M130.8,76.1v-10.7h2.1v10.8c0,.5.2.7.5.7s.2,0,.3,0l.3,1.6c-.3.1-.6.2-1.1.2-1.5,0-2.1-1-2.1-2.5Z" fill="#2b333b"/>
        <path d="M139.4,69.2c2.4,0,3.7,1.8,3.7,4.3s0,.8,0,1h-5.7c.2,1.6,1.2,2.5,2.7,2.5s1.4-.2,2.1-.7l.7,1.3c-.9.6-1.9,1-3.1,1-2.5,0-4.5-1.8-4.5-4.7s2-4.8,4.2-4.8h0ZM141.3,73.1c0-1.4-.6-2.2-1.9-2.2s-2,.8-2.2,2.2h4Z" fill="#2b333b"/>
        <path d="M144.6,82l.4-1.6c.2,0,.4.1.6.1.9,0,1.5-.6,1.8-1.6l.2-.6-3.6-8.9h2.1l1.6,4.4c.3.8.5,1.7.8,2.6h0c.2-.8.5-1.7.7-2.6l1.3-4.4h2l-3.3,9.5c-.8,2-1.7,3.3-3.7,3.3s-.8,0-1.2-.2h0Z" fill="#2b333b"/>
        <path d="M102.5,89h-2.4l.2-1.2h6.2l-.2,1.2h-2.4l-1.5,7.4h-1.4l1.5-7.4Z" fill="#2b333b"/>
        <path d="M106.3,90h1.2v1.2c-.1,0,0,0,0,0,.5-.8,1.2-1.4,2-1.4s.5,0,.6.1l-.5,1.2c-.2,0-.4-.1-.6-.1-.6,0-1.2.5-1.8,1.5l-.8,3.9h-1.4l1.3-6.5Z" fill="#2b333b"/>
        <path d="M115,96.4h-1.2v-.9c0,0,0,0,0,0-.6.6-1.4,1.1-2.2,1.1s-1.5-.6-1.5-1.6,0-.6.1-.9l.8-4.1h1.4l-.8,3.9c0,.3-.1.5-.1.7,0,.5.3.8.8.8s.9-.3,1.6-1l.9-4.4h1.4l-1.3,6.5Z" fill="#2b333b"/>
        <path d="M116.5,95.3l.8-.7c.4.6,1,.9,1.5.9s1.1-.4,1.1-.8-.3-.6-1.1-1.1c-.9-.5-1.4-1-1.4-1.8,0-1.2,1.1-2,2.4-2s1.5.4,2,.9l-.8.8c-.3-.3-.7-.6-1.2-.6s-1,.4-1,.8.6.7,1.1,1c1,.5,1.4,1,1.4,1.8,0,1.2-1.1,2.1-2.6,2.1s-1.8-.5-2.3-1.2Z" fill="#2b333b"/>
        <path d="M122.8,95c0-.3,0-.5,0-.8l.7-3.2h-.9l.2-1h1c0,0,.5-1.8.5-1.8h1.2l-.3,1.7h1.5l-.2,1.1h-1.6l-.7,3.2c0,.2,0,.3,0,.5,0,.5.2.7.7.7s.4,0,.6-.2l.3,1c-.4.2-.9.3-1.4.3-1.2,0-1.7-.7-1.7-1.6h0Z" fill="#2b333b"/>
        <path d="M132.4,92.2c0,.6-.2,1.2-.3,1.4h-3.9c-.1,1.4.6,1.9,1.6,1.9s.9-.2,1.3-.5l.5.9c-.6.4-1.4.7-2.2.7-1.5,0-2.6-1-2.6-2.7s1.8-4,3.5-4,2.1,1,2.1,2.4h0ZM131.2,92.7c0-.2,0-.4,0-.6,0-.6-.3-1.2-1.1-1.2s-1.6.7-1.9,1.8h2.8Z" fill="#2b333b"/>
        <path d="M138.4,89.4l.5-2.3h1.4l-1.9,9.3h-1.2v-.9c0,0,0,0,0,0-.6.6-1.4,1.1-2.1,1.1-1.1,0-1.8-.8-1.8-2.4,0-2.5,1.7-4.4,3.5-4.4s1.1.3,1.4.9h0l.2-1.2ZM137.9,91.8c-.3-.6-.7-.8-1.1-.8-1.1,0-2.1,1.4-2.1,3.1s.4,1.4,1,1.4,1.2-.3,1.7-1.1l.5-2.6Z" fill="#2b333b"/>
        <path d="M142.6,95l1-.8c.5.7,1.2,1.1,2.1,1.1s1.5-.5,1.5-1.3-.4-.9-1-1.2l-.9-.5c-.8-.5-1.3-1.1-1.3-2.1s1.2-2.5,2.9-2.5,1.9.5,2.5,1.3l-.9.8c-.4-.5-1-.9-1.7-.9s-1.3.6-1.3,1.2.4.8,1.1,1.2l.9.6c.8.5,1.2,1.1,1.2,2,0,1.5-1.3,2.7-3.1,2.7s-2.2-.5-3-1.6h0Z" fill="#2b333b"/>
        <path d="M150.9,90h1.4l-1.3,6.5h-1.4l1.3-6.5ZM152,87.2c.4,0,.8.3.8.7s-.4.9-.9.9-.8-.3-.8-.7.4-.9.9-.9h0Z" fill="#2b333b"/>
        <path d="M154.1,90h1.2v.9c0,0,0,0,0,0,.7-.6,1.4-1.1,2.2-1.1s1.5.6,1.5,1.6,0,.6-.1.9l-.8,4.1h-1.4l.8-3.9c0-.3.1-.5.1-.7,0-.5-.3-.8-.8-.8s-1,.3-1.6,1l-.9,4.4h-1.4l1.3-6.5Z" fill="#2b333b"/>
        <path d="M160.1,93.9c0-2.3,1.7-4.1,3.7-4.1s1.3.4,1.7.8l-.8.8c-.3-.3-.6-.5-1-.5-1.2,0-2.2,1.3-2.2,2.9s.4,1.5,1.3,1.5.9-.2,1.2-.5l.6.9c-.5.4-1.1.8-2.1.8-1.4,0-2.4-1-2.4-2.6h0Z" fill="#2b333b"/>
        <path d="M171.2,92.2c0,.6-.2,1.2-.3,1.4h-3.9c-.1,1.4.6,1.9,1.6,1.9s1-.2,1.3-.5l.5.9c-.6.4-1.4.7-2.2.7-1.5,0-2.6-1-2.6-2.7s1.8-4,3.5-4,2.1,1,2.1,2.4h0ZM170,92.7c0-.2,0-.4,0-.6,0-.6-.3-1.2-1.1-1.2s-1.6.7-1.9,1.8h2.8Z" fill="#2b333b"/>
        <path d="M174.7,95.3h1.8l1.1-5.7h-1.5l.2-.9c.8-.1,1.4-.3,2-.7h1.1l-1.5,7.2h1.6l-.2,1.1h-4.8l.2-1.1Z" fill="#2b333b"/>
        <path d="M180.9,95.5l.9-.7c.3.4.6.7,1.1.7,1.4,0,2.6-1.8,2.6-4.7s-.5-1.7-1.2-1.7-1.4,1-1.4,1.9.4,1.3,1.1,1.3,1-.2,1.6-1v1.1c-.7.6-1.4.9-2,.9-1.2,0-2.1-.8-2.1-2.2s1.2-3.1,2.8-3.1,2.5,1.2,2.5,2.9c0,3.4-1.7,5.8-4.1,5.8s-1.6-.6-1.9-1.1h0Z" fill="#2b333b"/>
        <path d="M192.3,89.2h-3.8l.2-1.2h5.4l-.2.9c-2.5,2.4-3.3,4.8-3.9,7.5h-1.5c.8-3,1.7-5.2,3.7-7.2h0Z" fill="#2b333b"/>
        <path d="M196.9,96.4l.4-2.2h-3.5l.2-1,4.2-5.2h1.6l-1,5.1h1l-.2,1.1h-1l-.4,2.2h-1.3ZM197.5,93.2l.4-2c.1-.5.3-1.2.4-1.8h0c-.3.5-.7,1-1,1.4l-1.9,2.3h2.1Z" fill="#2b333b"/>
        <path d="M25.2,50.7c-3.4,0-6.6-.6-9.6-1.8-3-1.2-5.7-2.9-8-5.1-2.3-2.2-4.2-4.9-5.5-8-1.4-3.1-2-6.5-2-10.3h0c0-3.8.7-7.1,2-10.2,1.3-3.1,3.1-5.8,5.5-8.1,2.3-2.3,5.1-4,8.2-5.3,3.1-1.3,6.5-1.9,10.1-1.9s5.1.3,7.4.9c2.2.6,4.3,1.5,6.1,2.6,1.8,1.1,3.4,2.4,4.9,4,1.4,1.6,2.6,3.3,3.6,5.1l-13.4,7.8c-.9-1.8-2.1-3.2-3.4-4.3-1.4-1.1-3.2-1.6-5.4-1.6s-2.6.3-3.8.8c-1.1.5-2.1,1.3-2.8,2.3-.8,1-1.4,2.1-1.8,3.4-.4,1.3-.7,2.7-.7,4.1h0c0,1.7.2,3.2.7,4.5.4,1.3,1.1,2.5,1.9,3.4.8.9,1.8,1.7,2.9,2.2,1.1.5,2.3.8,3.7.8,2.3,0,4.2-.6,5.6-1.7,1.4-1.1,2.6-2.6,3.6-4.4l13.4,7.6c-1,1.8-2.2,3.5-3.6,5.1-1.4,1.6-3.1,3-4.9,4.2-1.9,1.2-4,2.1-6.4,2.8-2.4.7-5.1,1-8.1,1h0Z" fill="#2b333b"/>
        <path d="M5.1,54.2h15.3v16.1h14v-16.1h15.3v45.7h-15.3v-16.4h-14v16.4H5.1v-45.7Z" fill="#2b333b"/>
        <path d="M52.3,1h27.2c3.4,0,6.2.4,8.4,1.1,2.2.7,4,1.8,5.4,3.3.9.9,1.6,1.9,2.2,3.2.6,1.2.8,2.7.8,4.4h0c0,3.1-.8,5.4-2.4,7.2-1.6,1.8-3.7,3.1-6.3,4.1,3.2.9,5.7,2.3,7.5,4.1,1.9,1.8,2.8,4.4,2.8,7.7h0c0,2.1-.4,3.9-1.2,5.5-.8,1.6-2,3.1-3.5,4.3-1.6,1.2-3.5,2.1-5.9,2.8-2.3.7-5,1-8.1,1h-27V1ZM75.2,20.1c3.4,0,5.1-1.1,5.1-3.3h0c0-2.4-1.7-3.5-5.2-3.5h-7v6.8h7.1ZM76.3,37.4c1.8,0,3.1-.3,4-1s1.4-1.5,1.4-2.6h0c0-1.2-.4-2.1-1.3-2.7-.9-.6-2.2-1-4-1h-8.2v7.2h8.1Z" fill="#2b333b"/>
        <path d="M104,1l-8,24.4c.4.3.7.6,1.1.9,2.4,2.3,3.6,5.6,3.6,9.7h0c0,2.5-.5,4.7-1.4,6.7-1,2-2.4,3.8-4.3,5.3-1.8,1.4-4.1,2.5-6.8,3.3-.2,0-.4,0-.6.1l-9.3,28.5-8.9-25.7h-17.1l18.6,46.1h14.6L120.9,1h-16.9Z" fill="#4b9996"/>
      </g>
    </g>
  </g>
</svg>
