<svg xmlns="http://www.w3.org/2000/svg" xmlns:xlink="http://www.w3.org/1999/xlink" version="1.2" viewBox="0 0 48 48" baseProfile="tiny-ps">
  <title>atlassian-logo-48-2</title>
  <g id="Layer_4">
    <rect width="48" height="48" fill="#FFFFFF"/>
  </g>
  <g id="Layer_2_00000158739735093529501030000001968241827968736433_">
    <g>
      <path d="M18.2,21.6c-1.2-1.9-1.6-2-1.9-2s-0.5,0.1-1.1,1.2L7.3,36.7C7.1,37.2,7,37.4,7,37.6    c0,0.5,0.4,1,1.4,1h11.2c0.8,0,1.3-0.6,1.6-1.8c0.4-1.5,0.5-2.8,0.5-4.4c0-4.4-1.9-8.6-3.4-10.9l0,0L18.2,21.6z" fill="#1868DB"/>
      <path d="M41.3,36.6L25.4,4.8c-0.3-0.7-0.6-0.8-1-0.8s-0.7,0.1-1.1,0.8c-2.2,3.6-3.2,7.7-3.2,12    s3.1,11.6,7.6,20.7c0.5,1,0.9,1.2,1.8,1.2h11c0.8,0,1.2-0.3,1.2-0.9s0-0.5-0.4-1.1l0,0V36.6z" fill="#1868DB"/>
    </g>
  </g>
</svg>