<?xml version="1.0" encoding="utf-8"?>
<svg baseProfile="tiny-ps" id="telzio-bimi" version="1.2" viewBox="0 0 1000 1000.7" xmlns="http://www.w3.org/2000/svg">
	<title>Telzio</title>
	<defs/>
	<defs>
		<linearGradient gradientUnits="userSpaceOnUse" id="a" x1="158.5" x2="846.9" y1="-90.8" y2="1101.5">
			<stop offset="0" stop-color="#0f4c89"/>
			<stop offset="1" stop-color="#256db6"/>
		</linearGradient>
		<linearGradient gradientUnits="userSpaceOnUse" id="b" x1="455.3" x2="455.3" y1="1000">
			<stop offset=".2" stop-color="#1b65b0" stop-opacity=".6"/>
			<stop offset="1" stop-color="#1c6fb7" stop-opacity="0"/>
		</linearGradient>
		<linearGradient gradientUnits="userSpaceOnUse" id="c" x1="290.7" x2="290.7" y1="1000.7" y2=".7">
			<stop offset=".2" stop-color="#1c6eb7" stop-opacity=".4"/>
			<stop offset="1" stop-color="#1c6fb7" stop-opacity="0"/>
		</linearGradient>
		<linearGradient gradientUnits="userSpaceOnUse" id="d" x1="139.3" x2="139.3" y1="1000">
			<stop offset=".2" stop-color="#1c6eb7" stop-opacity=".7"/>
			<stop offset="1" stop-color="#1c6fb7" stop-opacity="0"/>
		</linearGradient>
	</defs>
	<path d="M0 .7h1000v1000H0z" fill="url(#a)"/>
	<path d="M701.3 0h-322l-170 1000h322L701.3 0z" fill="url(#b)"/>
	<path d="M571.7.7h-392l-170 1000h392L571.7.7z" fill="url(#c)"/>
	<path d="M278.6 0h-182L.2 567 0 1000h108.6z" fill="url(#d)" transform="translate(0 .7)"/>
	<path d="M227.9 466.5l-1.9 21.3-1.8 19.8-1.3 16.8c-.3 4.9-.4 8.7-.4 11.3 0 5 .5 8.2 1.7 9.8s3 2.4 5.6 2.4a11.3 11.3 0 005.4-1.1 25.5 25.5 0 004.3-2.5l3.5-2.6a5.9 5.9 0 013.6-1.1c1.3 0 2.5.7 3.7 2.2s1.7 5.1 1.7 10.5c0 10.4-2.9 18.7-8.5 24.7s-15.5 9.1-29.3 9.1-23.7-3.2-30.2-9.5-9.8-16-9.8-29.1c0-2.8.2-6.2.5-10.1l1.2-15.1 2.2-23c.9-9 1.7-20.4 2.7-33.8h-15.1c-1.5 0-2.4-.3-2.7-1a8 8 0 01-.4-3l.8-14.4c.2-2.5.6-4.9 1-7.3a16.9 16.9 0 012.9-6.4 13.8 13.8 0 016.1-4.5 27.4 27.4 0 0110.5-1.7l4.5-12.2 5.1-13.8a104 104 0 015-11.2c1.6-3 3.1-4.5 4.4-4.5h8.2c8 0 13.4 2.4 16.5 7.3a33.4 33.4 0 014.5 17.6c0 3.8-.3 9.4-.8 16.8h29.8c3 0 4.5 1.3 4.5 4l-1.1 15.3c-.4 5.7-2 10.2-4.7 13.7s-8.4 5.3-16.9 5.3zM332.3 587.1a99.7 99.7 0 01-24.8-3.1 58.9 58.9 0 01-22.2-10.8 56.9 56.9 0 01-16-20.4q-6.3-12.7-6.3-32.1a144.8 144.8 0 011.2-17 106.2 106.2 0 014.4-20.5 107.8 107.8 0 019.1-20.8 70.2 70.2 0 0115.1-18.6 74.3 74.3 0 0122.7-13.3 89 89 0 0131.8-5.2c9.9 0 18.2 1.2 25 3.5a43.6 43.6 0 0116.5 9.2 34.9 34.9 0 019 13.5 46.8 46.8 0 012.9 16.4 44 44 0 01-5.3 22.2 48 48 0 01-13.6 15.1 65.4 65.4 0 01-18.6 9.5 142.4 142.4 0 01-20.1 5.3 152.3 152.3 0 01-18.3 2.3l-12.9.4a38.2 38.2 0 001.5 10.6 29.1 29.1 0 004.7 9.3 24.4 24.4 0 008.2 6.5 27.9 27.9 0 0012.5 2.5c4.9 0 8.8-.8 11.5-2.4a26.4 26.4 0 006.7-5.4l4.4-5.4a5.9 5.9 0 014.9-2.4 40.2 40.2 0 015 .7 22.1 22.1 0 017.2 3 21.9 21.9 0 016.6 6.3c1.9 2.6 2.8 6 2.8 10.2a21.2 21.2 0 01-5.1 14.2 37.6 37.6 0 01-13.2 9.6 70.1 70.1 0 01-18 5.4 118.1 118.1 0 01-19.3 1.7zm5.4-124a17 17 0 00-10.7 3.5 29.5 29.5 0 00-7.3 9 48.3 48.3 0 00-4.6 11.9 170 170 0 00-2.4 12.5q17.6-.3 28.5-6c7.3-3.8 11-9.2 11-16.2a16.3 16.3 0 00-3.6-10.2c-2.4-3-6-4.5-10.9-4.5zM439.3 586.8c-11.8 0-20.2-3.1-25.3-9.3s-7.6-16.6-7.6-31c0-2.2.1-5.1.4-8.5l1.1-13.2 1.9-20c.8-8 1.5-17.6 2.4-28.9s1.8-24.7 2.8-40.1l3.3-53.3c.2-4.2.6-6.6 1.4-7.4s2.1-.8 4.5-.8h11.1c5.7 0 10.4.6 14.2 2a24.3 24.3 0 019.1 5.3 20.8 20.8 0 014.8 7.9 31 31 0 011.4 9.2c0 3.8-.2 9.2-.7 16.3l-1.8 24c-.7 8.9-1.6 18.1-2.3 27.8s-1.5 18.9-2.3 27.6a695.1 695.1 0 00-2.5 39.6c0 3.6.9 8.5 2.7 10.5a14.7 14.7 0 005.8 4.4 20.8 20.8 0 005.8 1.7c1.8.3 2.7.9 2.7 1.9a56.6 56.6 0 01-1.4 12.3 31.3 31.3 0 01-5.1 11.1 25.9 25.9 0 01-10.1 7.9c-4.3 2-9.7 3-16.3 3zM478.4 584.3c-2.1 0-3.1-1.1-3.1-3.2l.9-15.3a26.3 26.3 0 015.2-14.7 206.7 206.7 0 0114.1-17.6l22.4-26.6a553.4 553.4 0 0030.9-41.8h-53.3c-1.6 0-2.5-.3-2.7-1a7.8 7.8 0 01-.5-3l.9-13a58.3 58.3 0 011-7.3 16.7 16.7 0 012.8-6.4 14.3 14.3 0 016.1-4.5 28.1 28.1 0 0110.5-1.7h97.1a6.8 6.8 0 013.1.8 3.5 3.5 0 011.4 3.2l-1.1 15.3q-.3 7.1-5.7 15a110.8 110.8 0 01-7.4 9.1c-4.3 5.1-9.7 11.6-16 19.4l-21 26.4a979.2 979.2 0 00-22.6 30h60.8a6.8 6.8 0 013.1.8 3.4 3.4 0 011.4 3.1l-1.1 14c-.4 5.6-2 10.2-4.7 13.7s-8.4 5.3-16.9 5.3zM649.8 584.3c-5.8 0-10.6-.6-14.3-1.9a21.7 21.7 0 01-8.8-5.2 18.1 18.1 0 01-4.5-8.4 43.9 43.9 0 01-1.3-11.5 726.9 726.9 0 012-33.6l2.7-34.9 3.8-52.4c.2-4.1.7-6.6 1.4-7.4s2.1-.8 4.6-.8h11a51.6 51.6 0 0114.4 1.7 18.2 18.2 0 0113.3 13.3 44.4 44.4 0 011.3 10.8c0 2.8-.2 7.1-.6 12.8l-1.6 23.1c-.7 9.7-1.5 21.9-2.7 36.3l-4.2 52.4c-.2 2.3-.7 3.8-1.4 4.5s-2.4 1.2-4.9 1.2zm-20.1-189.6c0-7.6 2.7-13.5 8.2-17.9s12.9-6.5 22.1-6.5 14.1 1.7 17.8 5 5.5 7.7 5.5 13.2a22.2 22.2 0 01-7.8 17.4c-5.2 4.6-12.8 7-22.8 7-15.4 0-23-6.1-23-18.2zM752.6 587.1a82.5 82.5 0 01-32.5-5.5 52.1 52.1 0 01-20.6-15.2 57.9 57.9 0 01-10.8-22.6 116.1 116.1 0 01-3.1-27.6 138.2 138.2 0 014.1-33.4 77.2 77.2 0 0114-29.1 72.4 72.4 0 0126.3-20.5 94 94 0 0140.7-7.9c23.9 0 40.9 5.9 51.2 17.5s15.5 28 15.5 49a155.1 155.1 0 01-1.3 19.4 98.9 98.9 0 01-4.8 21.1 108.6 108.6 0 01-9.6 20.5 71.9 71.9 0 01-15.5 17.6 73.9 73.9 0 01-22.6 12.2 96 96 0 01-31 4.5zm13.3-124c-7.2 0-12.9 1.8-17.2 5.5a36.7 36.7 0 00-9.6 13.4 61 61 0 00-4.3 16.4c-.6 5.8-1 10.7-1 14.6q0 18.8 6 27.6c4 5.8 9.6 8.8 17 8.8s12.1-2.1 16.3-6.3a43.4 43.4 0 0010-15 81.1 81.1 0 004.8-18.5 137.1 137.1 0 001.3-16.1c0-9.5-1.8-16.9-5.3-22.3s-9.5-8.1-18-8.1z" fill="#fff"/>
</svg>