<?xml version="1.0" encoding="utf-8"?>
<!-- Generator: Adobe Illustrator 25.0.0, SVG Export Plug-In . SVG Version: 6.00 Build 0)  -->
<svg version="1.2" baseProfile="tiny-ps" id="Calque_x5F_1_x5F_1"
	 xmlns="http://www.w3.org/2000/svg" xmlns:xlink="http://www.w3.org/1999/xlink" viewBox="0 0 122.9 122.9"
	 xml:space="preserve">
<title>Nameshield group</title>
<rect fill-rule="evenodd" fill="#FFFFFF" width="122.9" height="122.9"/>
<polygon fill-rule="evenodd" fill="#E52421" points="25,86.9 61.2,110.4 97.8,86.9 101.5,26.8 61.9,12.5 21.4,26.8 "/>
<path fill-rule="evenodd" fill="#FFFFFF" d="M61.4,79.8c-0.2,0-0.4,0-0.7,0L44.5,35.8c1.8-0.9,3-2.8,3-4.9c0-3.1-2.5-5.6-5.6-5.6
	c-3.1,0-5.6,2.5-5.6,5.6s2.5,5.6,5.6,5.6c0.1,0,0.3,0,0.4,0l16.3,44.2c-0.7,0.4-1.3,1-1.8,1.6l-15-7.3l0-0.1c0-2-1.6-3.7-3.7-3.7
	c-2,0-3.7,1.7-3.7,3.7c0,2,1.6,3.7,3.7,3.7c1.2,0,2.2-0.6,2.9-1.4L56,84.2c-0.1,0.4-0.1,0.8-0.1,1.2c0,3.1,2.5,5.6,5.6,5.6
	c3,0,5.4-2.3,5.5-5.2l16.4-2.1c0.8,1.5,2.3,2.5,4.1,2.5c2.5,0,4.6-2,4.6-4.6c0-2.5-2-4.6-4.6-4.6c-2.5,0-4.5,2-4.6,4.4l-16.2,2.1
	c-0.1-0.4-0.3-0.8-0.6-1.2l10.4-13.4c0.4,0.1,0.8,0.2,1.3,0.2c2,0,3.7-1.6,3.7-3.7s-1.6-3.7-3.7-3.7s-3.7,1.6-3.7,3.7
	c0,0.8,0.2,1.5,0.6,2.1L64.5,80.7C63.6,80.1,62.6,79.8,61.4,79.8z M75.9,38.2c-2,0-3.7,1.6-3.7,3.7s1.6,3.7,3.7,3.7
	c2,0,3.7-1.6,3.7-3.7S77.9,38.2,75.9,38.2z M61.4,53.5c-1.3,0-2.3,1-2.3,2.3c0,1.2,1,2.3,2.3,2.3c1.3,0,2.3-1,2.3-2.3
	C63.7,54.5,62.7,53.5,61.4,53.5z M31.9,44.8c-1.3,0-2.3,1-2.3,2.3s1,2.3,2.3,2.3c1.3,0,2.3-1,2.3-2.3S33.1,44.8,31.9,44.8z"/>
</svg>
