<?xml version="1.0" encoding="utf-8"?>
<!-- Generator: Adobe Illustrator 26.1.0, SVG Export Plug-In . SVG Version: 6.00 Build 0)  -->
<svg version="1.2" baseProfile="tiny-ps" id="Layer_1" xmlns="http://www.w3.org/2000/svg" xmlns:xlink="http://www.w3.org/1999/xlink"
	 viewBox="0 0 1024 1024" xml:space="preserve">
	 <title>Australian Retirement Trust</title>
<g id="_01-Brand_02-Icons_04-Windows_270x270">
	<path id="Color" fill-rule="evenodd" fill="#0051FF" d="M0,0h1024v1024H0V0z"/>
	<g id="Mark">
		<path id="Color-2" fill-rule="evenodd" fill="#FFFFFF" d="M512,729.8c50.9,0.1,92,41.3,92,92.2c-0.1,50.9-41.3,92-92.2,92
			c-50.8-0.1-92-41.3-92-92.1C419.8,771,461.1,729.8,512,729.8C512,729.8,512,729.8,512,729.8z M512.1,110
			c30.6,0,59.3,15.1,76.6,40.4L814.1,471c10.8,15.4,16.5,33.8,16.5,52.6c0,50.9-41.4,92.3-92.7,92.3c-30.6,0-59.3-15-76.6-40.3
			L506.6,355.4c-17.5-24-45.4-38.3-75.1-38.3c-51.1,0-92.7,41.3-92.7,92.3c0,20.5,6.8,40.4,19.4,56.5c13.3,16.4,20.5,36.8,20.5,57.9
			c0,50.9-41.4,92.3-92.7,92.3c-51,0.2-92.5-41-92.7-92c-0.1-19,5.7-37.5,16.5-53l224.7-319.4C451.8,125.6,480.9,110,512.1,110z"/>
	</g>
</g>
</svg>
