<?xml version="1.0"?><svg version="1.2" baseProfile="tiny-ps" viewBox="0 0 300 300" xmlns="http://www.w3.org/2000/svg" xmlns:xlink="http://www.w3.org/1999/xlink"><title>sabotage studio</title><g><g fill="#fff" transform="matrix(.1 0 0 -.1 0 300)"><path d="M0 1500V0h3000v3000H0V1500z"/></g><g fill="#d8d8d8" transform="matrix(.1 0 0 -.1 0 300)"><path d="M0 1500V0h3000v3000H0V1500zm1460 1090c18-47 49-134 71-195l39-109-65-62-66-62-67-33c-37-18-76-36-87-41-31-13-169-48-173-43-10 9-125 175-150 214-15 24-42 63-60 87s-31 44-30 44c2 0 66-25 143-55s144-55 148-55h9l-6 113c-4 61-9 124-12 140l-6 27h8c4 0 39-28 78-63 87-77 156-131 161-126 1 2 9 73 16 156 7 84 14 152 15 150 2-1 17-41 34-87zm361-572c31-33 97-142 104-170l6-24-16-70c-8-38-22-93-31-121l-15-53h-39l-39-36-40-35-30-62c-17-34-38-82-45-107l-14-45-1 23-1 23-19-6-20-6 2 28 2 28h-30l-3-27-3-28h-38l-10 18-10 17-30-29-31-30v56l-32-7-33-7-26-25-26-24-11 43c-7 24-20 57-31 75l-20 32-38 19c-21 10-48 25-61 33l-23 14-26 85c-14 47-36 111-49 142-13 32-24 68-24 81v24l21 19 20 18 77 8 77 8 58-7 58-6-5-13-5-14h9c5 0 21 5 37 11l28 10-12-12c-18-18-16-29 5-29h18l68 56 67 57 87 43c48 24 95 43 105 43l18 1 20-22zm262-189c30-16 37-28 37-70v-35l-25-50-25-49-35-22c-19-13-41-23-49-23h-14l29 113c38 146 39 147 50 147 6 0 20-5 32-11zm-1043-199c23-52 44-101 47-109l6-13-31 16-32 16-15 29c-8 16-19 50-25 76l-11 47 7 20c7 25 4 30 54-82zm-307-536 9-40-15-34-15-35-1 33-1 32h-9c-8 0-51-93-51-110v-8l34 10 34 11 17-7 18-6-7-65c-4-35-18-103-31-150l-25-86-35-67-36-67 5 30c2 17 19 75 36 130l31 100 6 68 6 67h-15c-9 0-21-7-28-15-6-8-21-17-31-20l-20-7-14 12-14 12 18 46c40 98 67 158 85 185l19 28 11-4 11-4 8-39zm1012 21c-22-13-45-28-52-32l-12-8-8-215-8-215-10 5-10 5-2 150c-1 83-2 174-2 204l-1 53-17-7c-10-4-26-10-35-12l-18-5v8c0 5 4 15 9 23l9 14 84 28c45 15 90 28 98 28h15l-40-24zm755 2c-8-8-45-26-82-41l-68-28v-57l41 14c23 8 48 15 56 15h15l-10-13c-6-7-34-24-61-37l-50-23-3-103-3-104h15c8 1 49 14 89 30 41 16 77 28 79 25 10-10-14-26-103-69l-95-46v-22l-13 10-13 11-22-6-22-5v8c0 5 11 17 25 29l26 20 6 108 6 107h-16c-21 0-22 14-2 30l15 12v58h-40v30h11c7 0 17 7 23 15l11 16 55 4c30 2 69 9 85 14 17 5 37 10 45 10l14 1-14-13zm-1034-7h15l15-35c7-19 14-46 14-60v-25h-21l12-21 11-22-6-51c-16-125-49-232-77-246-24-14-27-13-43 13-22 34-31 107-31 263v141l15 18c18 21 50 35 68 29 8-2 20-4 28-4zm676-31 17-34-5-23c-8-28-24-29-24-1 0 11-5 29-11 40l-10 20-9-6c-15-9-48-135-55-210l-7-70 21-19 21-19 20 18 20 18 10 36c5 20 10 51 10 69v34l-30-7-30-7v7c0 3 25 18 56 32l55 25 7-6 6-7-11-18-11-17-7-127-7-127h-18v30c0 37-6 38-32 5l-19-25h-36l-28 40-28 40 6 88c9 138 41 246 77 255 26 7 34 2 52-34zM947 995l8-90 23 3 22 3v-7c0-5-11-17-24-29l-24-20 13-115c8-63 14-138 14-167l1-52-10-6-9-6-5 23c-2 13-9 85-14 161-6 76-13 141-16 144-3 4-17 1-29-4l-24-11-7-58c-4-32-9-68-12-81l-6-23h-29l5 18c3 9 8 44 12 77l7 60-17-14c-24-20-20-3 8 29l23 28 18 99 17 98 15 24 15 23 8-8c5-5 13-49 17-99zm299 91 6-14-12-22-12-22 22-23 23-24-5-48-5-48-42-76-43-76-65-69c-61-65-71-70-31-14l17 25 7 183 7 182h-17c-10 0-26-5-37-10l-19-11v9c0 5 26 21 58 34 77 34 83 36 115 37l28 1 5-14zm642-32c1-21 7-62 13-90l10-52 19 5 20 5v-13c0-8-9-20-21-27l-21-13 6-42c3-23 8-99 12-168l6-127-10-6-10-6-5 23c-3 12-9 73-13 135s-9 126-13 142l-6 29-25-12-25-12-14-88-15-87h-28l6 15c3 8 9 45 12 82l7 67-39-23-39-23 39 37 39 38 23 106c13 58 28 116 34 129l10 24 13-4 12-5 3-39zm-287 725c-36-39-69-78-72-88l-6-16 7-15c4-8 15-31 23-51l15-37 46-6 45-7 38 20c21 10 52 35 68 54l31 34 13 67 13 68-8 7c-12 11-108 41-130 41h-17l-66-71zm-427 26-17-25v-38l-1-37 29-65c15-36 33-70 39-76l11-11 60 6 59 6 12 40c7 22 13 50 13 63l1 23-51 54-50 53-34 16c-44 21-52 20-71-9zm243-276c-15-22-27-49-27-59v-19l23-7c12-4 32-8 45-10l22-2v11c0 15-27 118-33 123-2 2-16-15-30-37zm83 9c0-13 5-40 11-60l10-38h13c7 0 23 11 36 24l23 25-6 15c-6 15-64 56-79 56-5 0-8-10-8-22zm-83-485c-2-5-10-39-17-77l-13-68 5-88 5-87 10-18 10-18 7 11c10 16 36 201 36 257 0 28-3 60-6 73l-6 22h-14c-7 0-15-3-17-7zM898 945c-3-63-2-66 18-58l15 5-7 47c-3 25-10 50-14 55l-8 8-4-57zm270 122-28-11v-12c0-7 5-16 10-19l11-7 24 16 25 16v15c0 17-4 17-42 2zm-13-77c-10-15-29-240-21-247 10-10 31 14 60 67l27 50 6 53 5 53-13 11c-8 6-24 14-36 17l-21 7-7-11zm693-6c-3-5-9-31-13-58l-7-50 24 16 23 16-3 28c-2 16-7 35-12 43l-7 14-5-9z"/></g><g fill="#a3a3a3" transform="matrix(.1 0 0 -.1 0 300)"><path d="M0 1500V0h3000v3000H0V1500zm1504 978 68-187-13-18c-16-22-79-78-129-115-43-32-163-81-249-103l-64-16-25 31c-41 52-91 123-120 168-15 24-46 70-69 102l-41 58 61-25c84-33 220-84 231-86l10-2-3 90c-1 50-4 114-8 144l-6 54 119-100c66-56 122-99 125-97s12 71 19 154l13 151 7-8c4-4 37-92 74-195zm329-460c4-7 28-47 52-88l45-75v-28c0-27-29-154-50-222l-10-30-27-2-28-1-35-40c-19-21-40-50-46-63-42-88-54-117-59-143l-6-30-9 14c-5 8-6 18-3 23l5 9-22-12-22-12 7 31 7 31h-32l-6-30-6-30h-48v20c0 27-12 25-40-5l-23-24-9 5c-4 3-6 9-4 13 3 4 1 13-3 19l-8 13-27-11c-15-5-37-22-49-36l-23-26-17 59-18 60-22 22c-12 12-45 35-73 51l-51 29-47 133c-26 73-50 150-53 171l-5 37 23 19 24 19 91 7 91 7 42-7 41-7v-28l26 10c35 14 36 13 24-10l-11-20h15c13 0 31 13 128 92 18 15 69 45 113 67l80 41 35-5 35-4 8-13zm258-189c11-5 24-21 29-33l8-23-9-44c-6-24-21-60-34-80l-23-36-43-21c-24-12-44-20-46-18-4 4 55 245 63 258 7 11 32 10 55-3zm-1081-121c0-6 18-51 41-100s38-92 35-95c-8-8-53 24-70 50-8 12-20 43-27 68l-12 45 7 27 7 28 9-6c6-3 10-11 10-17zm-274-603 6-35-6-35c-4-19-11-37-16-40l-10-6v25c0 14-4 26-8 26-10 0-55-91-48-97 3-3 18-1 33 4s36 7 47 5l19-4-7-76-6-76-26-85c-29-96-79-201-95-201h-10l6 23c4 12 16 47 27 77 28 77 58 208 58 253v37h-8c-4 0-23-11-42-25l-34-25-19 18-19 19 42 99c23 54 51 111 62 127l19 27h28l7-35zm1024 15c-14-11-37-24-51-30l-26-11-6-210c-4-116-9-215-13-220l-6-11-10 10-11 11 2 197 2 196-36-6-35-7v14c0 8 6 19 13 25 16 14 156 61 182 61l20 1-25-20zm750 6v-15l-80-32-80-33v-46h15c9 0 32 7 52 15 69 29 55-3-18-40l-49-25-5-23c-2-12-6-59-7-105l-3-82h10c17 0 94 29 137 51l40 20-4-18-3-18-87-45c-47-25-96-54-107-64l-21-19v30l-25-5-25-4v29l25 11 25 12v37c0 21 3 68 7 106l6 67h-33v14c0 8 5 18 10 21l10 6v68l-15-5-15-6v16c0 9 9 25 20 36l20 20 53 5c40 3 103 18 145 34 1 1 2-5 2-13zm-1021-30 16-17V962l-1-117-22-85-23-85-18-19-19-18-21 7-21 6-12 42-13 42v347l24 19 25 20 34-4 34-5 17-16zm643 7c9-10 19-28 22-40l7-23-6-20c-10-30-20-24-31 18l-9 37-10-3c-5-1-18-26-28-55l-18-52-8-80-8-80 9-17 9-18h38l16 31c9 16 19 53 22 81l6 51-16-6c-10-4-24-10-32-13l-15-6v30l51 21 51 22 15-6 16-5-16-18-16-17-3-124-4-125-10-3-11-4-7 33-7 33-15-27-15-28h-57l-12 15c-7 8-9 15-6 15 4 0 0 7-8 16l-16 15v150l16 77c22 106 40 138 80 141 6 1 18-7 26-16zm-1188-40c3-21 6-57 6-80s3-48 6-57l6-16h38v-9c0-6-10-17-22-25l-21-15 15-153 15-153-15-35-16-35-7 115c-4 63-10 143-14 178l-7 62h-11c-7 0-18-4-25-8l-12-8-15-85c-8-46-15-85-15-86 0-2-7-3-16-3h-17l7 43c4 23 9 57 13 76l6 34-17-6-16-6v6c0 4 9 17 20 29l21 21 20 104 21 104 14 23c21 31 30 28 38-15zm303 21 6-17-11-18-12-19 19-19c10-10 22-34 26-52l7-32-47-93-48-93-65-71c-69-76-89-86-47-25l25 38 1 76c0 42 3 122 5 179l5 102h-10c-5 0-21-4-35-10l-26-10v10c0 4 24 20 53 33 71 33 77 35 115 36l33 1 6-16zm644-43c4-28 10-68 14-87l6-36 15 6 15 6 5-15 6-15-20-18-20-17 13-160 12-160-9-19-10-19-8 14c-4 8-11 59-14 114-4 55-9 124-13 153l-5 52h-38l-10-22c-5-13-14-56-20-95l-12-73-10-6c-17-11-19 2-8 76 6 40 8 75 6 77-2 3-18-3-35-12l-31-16v10c0 5 15 20 34 35l34 26 22 97c12 54 28 113 36 131l14 34 12-4 13-5 6-52zm-289 734-74-73 12-52c15-62 27-75 80-84l41-6 39 23c21 13 52 39 68 60l29 36 12 61c7 33 10 64 7 69s-18 11-33 15c-16 3-46 10-68 15l-39 10-74-74zm-431 22c-7-13-13-36-13-52l-1-30 33-78 32-78 64 2 64 2 16 53 15 53-12 23c-7 13-37 47-68 75l-56 53h-62l-12-23zm245-275c-14-21-26-45-26-54v-16l28-8c15-4 35-8 45-10l19-1-7 26c-15 63-26 101-29 101-2 0-15-17-30-38zm84 22c0-8 5-35 11-60l11-44h10c12 0 58 46 58 58 0 9-73 62-85 62-3 0-5-7-5-16zm-91-526-12-43-1-105c-1-58 3-118 7-133l8-28 8 5c5 3 16 54 25 113l16 108-7 59-8 59-12 4-12 4-12-43zm-509-83v-59l12 12 12 12-3 38c-1 20-7 41-12 47l-9 9v-59zm258 124-17-10 5-14 6-15 29 17c16 10 29 21 29 25 0 11-32 9-52-3zm-12-131c-13-150-14-177-8-182 3-3 20 15 38 40l33 46 12 54 12 54-11 25-12 25h-58l-6-62zm701 42c-3-14-8-38-10-53l-4-28 14 5c8 3 17 6 19 6 7 0 3 54-6 75l-8 20-5-25z"/></g><g fill="#6c6c6c" transform="matrix(.1 0 0 -.1 0 300)"><path d="M0 1500V0h3000v3000H0V1500zm1505 981 67-183-10-22c-5-12-41-48-79-79l-70-57-66-30c-65-29-197-70-227-70h-15l-44 68c-25 37-55 81-69 97-13 17-41 57-62 90-22 33-47 70-56 82l-16 23 38-14c22-8 85-32 142-55 56-22 108-41 114-41h11l-6 140c-4 77-5 140-3 140s48-39 103-86c54-47 106-90 115-95l18-9 4 22c5 23 26 243 26 268v14l9-9c5-6 39-93 76-194zm342-485c9-17 33-56 53-86l38-55-9-55c-5-30-20-93-32-140l-22-85-27-3-26-3-34-33-34-33-32-64c-18-35-38-84-46-109l-14-45-7 21-7 22-19-5-19-5 10 26c13 35 13 36-4 36h-14l-7-30-7-30h-48v40h-9c-5 0-19-12-30-26l-20-26-11 7c-5 3-10 15-10 26v20l-22-6c-13-4-37-20-54-36l-30-29-18 57-18 58-22 23c-11 13-42 34-67 47-59 30-62 35-92 130-14 44-35 104-47 134l-21 54 3 35 3 35 35 18 35 19h100c55 0 110-3 122-6l23-6-6-10-7-10 32 7 31 7v-9c0-5-5-14-12-21l-12-12h11c13 0 78 43 124 84 35 31 94 67 115 72 5 1 32 13 59 27l49 24 28-9 29-10 16-32zm270-192 15-24-7-37c-8-45-37-102-61-124-25-22-85-52-91-45-5 5 41 206 58 248l11 26 29-10 30-10 16-24zm-1066-190c27-59 49-109 49-111s-17 5-39 16l-38 20-22 50-21 50v39c0 36 8 58 18 48 2-3 26-53 53-112zm-317-496c3-13 6-39 6-58l-1-35-14-25-14-25-1 27c0 15-4 29-9 32l-8 6-21-50-21-50h10c6 0 19 5 30 11l20 10 19-6 20-6V836l-21-80c-12-45-39-118-60-163l-38-83h-10c-14 0-15-2 15 87 52 161 75 285 55 297l-9 6-31-26-31-26-15 6c-9 3-18 13-22 21l-6 16 16 37c45 108 64 150 82 180l19 32h34l6-22zm1026 0c-19-11-45-27-57-35l-23-13V937c0-72-3-169-7-214l-6-83h-25l-5 27c-3 15-3 96 0 179l6 151-7 26-6 26-30-6-30-5v15c0 8 6 20 14 26 21 18 147 59 181 60l30 1-35-22zm748 6-3-15-75-33-75-32-3-22-3-22h11c6 0 27 7 47 15 19 8 42 15 51 15h15l-22-24c-12-13-39-31-60-41l-39-17-6-45c-3-25-6-72-6-105v-59l23 6c12 4 52 20 90 35l67 28v-28l-38-23c-20-14-63-36-94-50l-56-26-11-18-11-18-9 14-9 13-21-7-21-6v41l25 12 25 11v207h-20v40h20v60h-30v33l26 24 27 25 21-6 22-5 65 18c35 10 68 19 72 20l8 1-3-16zm-1023-24 19-21 6-48 6-49-7-74c-8-84-35-200-56-240l-14-28h-50l-17 38-16 37-1 183v184l24 19 23 19h65l18-20zm660-10c8-16 15-40 15-54v-25l-11-7-11-7-9 14c-5 8-9 25-9 37v24l-12-4-13-4-18-55-18-54-2-90-2-90 23-3 22-3 15 35c9 20 18 57 22 81l6 46-27-11c-35-13-36-13-36 3v14l28 13c15 7 42 19 60 26l32 14 7-16 6-16-12-7-12-8-6-126-6-127-13-11-12-10-7 31-7 32-15-21-14-21h-58l-21 28-22 27 5 115 5 115 17 55 16 55 21 18c11 9 29 17 39 17h18l16-30zm-911 14 16-6v-23c0-13-5-27-11-30l-11-7 22-23 22-23 5-39 5-38-37-70c-47-87-81-136-140-199-52-56-68-56-32 1l25 38 5 178 6 179-12-5c-7-2-22-7-34-11l-21-7-6 9-5 9 67 31c37 17 78 33 92 35s26 5 27 6c1 0 8-2 17-5zm663-80c6-43 12-85 12-92l1-13 20 6 20 6v-40l-20-11-19-10 4-13c3-6 9-82 14-167l9-155-10-13-11-13-8 8c-4 4-11 55-15 113s-10 127-13 154l-6 49-10 4c-5 1-16-1-22-5l-13-8-10-60c-6-32-13-74-16-91l-5-33h-30l6 58c3 31 8 67 11 80l4 22h-8c-4 0-17-7-28-15-10-8-26-14-34-14h-15l41 37 42 37 22 100c12 55 28 115 36 133l14 34 12-4 13-5 12-79zm-953 54c3-13 6-39 6-58s3-52 6-73l7-37 18 5 19 6v-12c0-7-9-23-21-35l-21-22 16-150 16-150-9-25c-5-14-14-28-19-31l-9-5-6 112c-9 152-18 237-27 237-3 0-14-6-23-12l-17-13-13-80-13-80-18-3-19-4 7 59c4 32 9 66 12 75l5 18-15-6-16-6v14c0 7 9 21 20 30 11 10 22 28 24 40 3 13 12 61 21 106 16 87 31 122 51 122h12l6-22zm651 688-66-75 17-55 18-56 30-5c61-9 72-9 103 8 18 9 46 32 62 49l30 33 16 67c8 37 15 69 15 72 0 7-105 36-133 36h-25l-67-74zm-419 32-16-22v-65l27-63c14-35 32-69 38-76l12-13 58 8 59 8 12 49 13 50-9 15c-4 9-35 42-68 74l-61 57h-50l-15-22zm247-266c-11-15-23-37-27-49l-7-22 20-10c11-6 31-11 44-11h25l-15 58c-8 31-16 58-17 59-1 2-12-10-23-25zm78 6c1-27 23-93 32-93 3 0 18 11 33 24l28 24-39 34c-45 39-55 41-54 11zm-92-530-13-53v-85c-1-47 3-103 7-125l9-39 8 14c4 8 13 53 20 100l12 85-4 74-3 74-11 4-12 4-13-53zm-241 55-18-4v-29h13c8 0 22 9 32 20l18 20-14-1c-8-1-22-3-31-6zm-21-140c-4-38-7-92-7-122v-53l15 12c22 18 64 110 71 156l6 41-17 16-16 17h-46l-6-67zm700 43c-4-10-7-31-7-47v-28l15 5 15 6-1 22c0 11-4 30-8 40l-8 20-6-18zm-947-36v-40h20v80h-20v-40z"/></g><g fill="#393939" transform="matrix(.1 0 0 -.1 0 300)"><path d="M0 1500V0h3000v3000H0V1500zm1503 992c37-101 67-192 67-202v-18l-62-57-63-56-90-44c-84-41-189-75-232-75h-18l-55 80c-30 44-69 101-87 127-18 27-48 70-68 96-20 27-35 51-32 53 2 3 60-17 128-44s135-53 148-57l24-7-7 147-8 147 92-81c50-44 105-90 120-101l29-20 5 42c9 66 26 235 26 255v17l8-9c5-6 39-92 75-193zm325-465c7-6 22-27 33-48 10-21 32-58 49-83l31-45-6-38c-9-47-54-223-61-235-3-4-16-8-29-8h-23l-39-44c-21-24-44-56-52-72-7-16-18-37-23-48-5-10-16-41-24-67-15-50-27-61-38-34l-5 15h-31l10 26c13 33 13 34-4 34h-13l-6-30-6-30h-50l-3 22-3 22-29-32-30-31-8 5c-4 3-8 16-8 29v24l-30-11-30-10-19-24c-10-13-21-24-24-24s-12 24-21 53c-21 71-36 89-103 127-32 18-61 38-66 44-4 6-16 43-28 81-12 39-35 105-51 148l-31 77 11 25 11 24 31 16 31 16 113 1c63 0 119-3 125-7l11-6-6-11-7-10 33 7 33 7-6-16-6-16h11c13 0 69 40 113 81 17 15 71 48 120 73l90 46 25-6c14-3 31-11 38-17zm250-188 30-10 12-29 12-29-12-52-13-52-33-37c-34-37-89-68-101-57-9 10 58 277 70 277 2 0 18-5 35-11zm-1058-145c0-6 18-50 41-98 22-48 39-89 37-91-1-2-17 3-35 10l-31 13-16 24c-8 13-22 49-30 81l-15 58 11 25 12 26 13-18c7-10 13-23 13-30zm-280-620c0-24-5-55-11-71l-11-28-5 15c-3 8-7 22-10 30l-5 15-18-35c-11-19-19-40-20-47v-11l36 11 36 11 14-19 14-18-6-56c-14-117-85-320-125-357l-19-17v15c0 8 13 55 29 104 28 84 61 225 61 259v15h-11c-6 0-25-10-41-22l-31-21-16 10c-9 6-17 18-19 27l-4 17 44 100 43 101 24 26 24 26 13-19 14-19v-42zm1050 67c0-6-22-22-49-37l-49-28-6-50c-3-28-6-96-6-151s-3-130-7-167l-6-68h-13c-18 0-17-6-18 212-1 102-4 189-8 193l-6 7-22-12-22-12-9 9-10 10 6 15 6 15 37 17c40 18 150 54 170 55 6 1 12-3 12-8zm718-18-3-17-72-31c-82-34-88-39-80-59l6-15 50 17 51 16 6-7 7-7-11-13c-6-7-33-24-60-36l-49-23-7-91-6-91 9-9 9-9 54 17c29 10 63 25 76 33l23 15 11-11 10-10-7-11c-3-7-48-32-98-58-50-25-97-53-104-62l-13-16-9 14-9 13-21-7-21-6v39l25 16 25 16v200h-20v19c0 11 5 23 10 26 6 3 10 17 10 31v24h-37v34l26 24 26 23 22-4c23-4 130 16 141 27 3 3 12 6 19 6h14l-3-17zm-1032-11c6-4 17-18 25-32l14-25-1-90-1-90-23-95c-12-52-29-105-37-118l-14-23-27 3-27 3-13 28-13 27-9 145-9 144 8 46 9 46 17 19 18 20h36c20 0 41-4 47-8zm669-16 16-24-3-38-3-37-12-4-12-4-6 28c-4 15-9 35-12 43l-5 15-20-44-20-43-11-93-11-94 13-15c8-9 20-16 27-16h14l14 34c7 18 17 52 21 75l7 42-36-6-36-7v11c0 14 36 37 88 55l43 15 6-14 5-15-10-13-11-13-6-109c-7-128-12-155-25-155h-10l-6 29-6 28-24-23c-30-31-39-30-75 5l-29 29-1 24c-1 13-2 32-4 43-8 77 31 270 61 299l15 16h49l15-24zm-901 1 17-13-12-26-12-27 22-27 21-27v-70l-46-84-46-85-60-69-59-69h-29l28 44 28 44 2 123c1 68 5 147 8 176l6 52-33-9c-42-12-49-12-49 0 0 10 71 44 135 66 52 16 58 17 79 1zm655-85 14-92 19 6 18 5v-17c0-10-7-25-15-34l-16-18 10-163 11-164-15-14c-8-8-17-12-20-9s-10 70-16 149c-5 79-12 151-15 160l-5 17-19-5-19-5-11-71c-6-40-13-82-16-94l-4-23h-30l6 82 7 81-24-16c-13-9-30-17-39-17l-15 1 41 37 40 37 23 105c13 58 30 118 38 133l14 28 12-4 12-4 14-91zm-955 71c2-10 7-53 11-96l7-78 19 6 19 6v-36l-21-13-21-13 6-47c3-26 11-95 17-154l12-107-13-31c-7-16-16-30-19-30-4 0-13 66-20 148-6 81-14 159-17 175l-6 27-16-9-17-9-15-84-15-83-22-3-23-3 5 28c3 15 9 49 14 74l8 46-19-5-18-4v8c0 4 11 20 25 34l26 27 16 94c8 52 22 106 30 122l14 27h28l5-17zm703 735c-14-13-45-46-70-74l-46-50 17-53 17-53 23-9c13-5 35-9 50-9h27l40 21c53 28 75 59 95 135l17 63-6 10c-9 13-87 41-117 41h-23l-24-22zm-466-12c-7-8-14-30-18-48l-5-34 32-77c17-42 36-79 40-82 5-3 34-2 64 1l56 7 10 36c5 20 10 47 10 61v26l-52 51c-75 72-113 89-137 59zm235-293-29-45 14-9c17-11 18-11 47-14l22-2-1 21c0 11-6 37-12 57l-12 37-29-45zm89 20c7-36 18-78 22-86l5-9 24 23c13 12 24 28 24 35 0 14-51 54-68 54h-11l4-17zm-86-500-12-28-5-102-5-101 7-47c4-26 10-45 12-42 11 11 34 187 34 259v77l-10 6-10 6-11-28zm-251 26c-19-10-24-29-9-29 5 0 19 9 32 20l24 19h-15c-8 0-23-4-32-10zm-11-83c-8-20-21-226-14-226 3 0 19 21 36 46l30 46 11 55 12 55-18 19c-9 10-25 19-34 19h-18l-5-14zm690-16c-4-14-7-36-7-50v-24l16 15 15 16-8 34-9 34-7-25zm-947-34v-36h20v59l-10 6-10 6v-35z"/></g><g fill="#030303" transform="matrix(.1 0 0 -.1 0 300)"><path d="M0 1500V0h3000v3000H0V1500zm1508 984 74-199-74-68-73-68-65-31c-111-52-191-78-241-78h-27l-58 85c-33 47-73 106-91 133-17 26-48 69-68 95-20 27-35 50-33 52 2 1 70-24 152-56s151-59 152-59c7 0 3 125-6 194-4 38-6 75-3 82l5 14 72-62c39-35 92-80 117-100l46-37 12 100c6 55 11 125 11 155v56l12-4 13-5 73-199zm300-445 31-11 6-18c3-10 26-49 50-86l45-68v-21c0-11-13-72-30-135-16-63-30-118-30-122 0-5-13-8-29-8h-29l-35-39c-42-46-91-141-101-194-4-20-11-39-16-42l-10-6-16 15c-8 9-19 16-24 16h-9l6 30 6 30h-23v-60h-60v15c0 22-13 18-40-10l-23-24-8 5c-5 3-9 14-9 25v19h-42l-33-36-34-36-11 43c-7 24-20 60-31 80l-18 37-62 34-61 33-50 140c-28 77-52 154-55 170l-5 30 27 25 26 24 72 7 72 8 68-6 67-6v-27l24 10c28 10 40 2 25-17l-11-13h10c6 0 30 16 54 35s66 51 95 70c28 19 55 39 58 45l6 10 9-5 9-6 48 25c57 30 52 29 91 15zm282-204 30-15 6-25 6-25-7-38c-4-20-16-54-28-75l-22-39-41-24c-22-13-49-24-58-24h-18l6 15c3 9 17 64 32 123 37 152 40 155 94 127zm-1080-107c0-6 21-58 46-115 26-57 44-106 41-109s-19 2-37 11l-31 16-19 32c-11 17-24 55-30 83l-11 52 13 21c14 23 28 28 28 9zm-265-637 6-38-16-39-17-39-13 29-12 28-16-41c-21-52-21-54 2-41 11 5 31 10 45 10h25l6-21 7-20-7-52c-10-83-44-196-82-279l-36-77-13-5-14-5v18c0 9 11 51 25 92 44 128 69 259 53 275l-7 6-27-21c-32-25-42-26-65-5l-17 16 13 36c27 76 85 192 105 212l21 21 14-11 13-11 7-38zm1045 49c0-6-22-22-49-37l-49-28-6-85c-3-47-7-139-7-205l-2-120-9-18-9-18-16 13-16 13 6 135c3 74 3 163 0 197l-6 62-25-10-25-10-10 10-9 9 11 20 11 20 42 16c63 24 130 44 151 45l17 1v-10zm720-19v-18l-75-29-75-29v-44l35 15c97 40 98-7 0-52l-40-19-5-89-5-88 7-11 6-10 78 31 79 31 9-9 10-10-14-15c-8-7-53-33-99-55l-84-42-18-21-18-22-1 18v17l-24-6-23-5-7 18-7 18 12 4c6 2 20 12 30 22l19 19v191l-9-5-9-6-5 20-5 19 14 12 14 11v48h-40v34l27 23 26 23 41 1c23 0 61 6 86 13 25 8 51 14 58 15l12 1v-19zm-1014-26 17-26 4-67 5-67-16-86c-9-47-23-108-31-137l-16-52-26-17-26-17-22 26-22 26-12 89c-13 104-14 219-2 282l9 45 18 13 18 13h86l16-25zm649 1 16-24-3-39-3-38h-29l-7 33c-4 18-9 35-12 38-10 11-45-121-52-197l-7-75 16-13 15-13 12 7c18 11 39 71 39 109v35l-30-5-30-6v29l59 27c32 14 64 26 70 26h11v-18c0-10-3-22-7-26-5-4-12-67-18-139l-10-132h-29l-6 23-5 24-19-21c-23-25-39-26-71-5l-25 16-11 41-11 41 6 76c9 96 24 165 48 213l18 37h60l15-24zm-1190-95 7-89 18 5 18 5 7-13 8-12-26-21-26-21 15-125c7-69 14-143 14-166v-40l-14-20c-8-10-17-17-20-14s-11 79-19 168-16 165-19 167c-3 3-12 3-20 0l-16-6-6-52c-4-29-9-67-12-84l-6-33h-50l5 23c3 12 9 43 12 70l7 47h-16c-22 0-20 7 8 41l24 28 17 95 17 94 19 32 20 32 14-12 14-11 6-88zm295 94 13-16-12-25-11-25 21-22 21-22-4-50-4-50-47-80-46-80-64-70-65-70-7 7-8 8 26 37 26 38 6 155c3 85 8 166 11 178l5 24-41-7-40-7v11c0 20 133 79 181 80l27 1 12-15zm640-7c5-13 12-53 15-90l6-67 21-3c12-2 23-8 25-15l4-11-20-19-21-19 8-115c4-63 8-141 7-174v-60l-16-3-17-3-6 43c-3 24-8 90-12 148s-9 113-13 123l-7 17-17-12-17-13-13-85-13-85h-17c-21 0-21 0-12 76 4 33 5 63 2 65-3 3-16-2-30-11l-25-16-7 11-7 11 40 34 39 34 13 63c34 179 64 237 90 176zm-225 744c-6-4-39-37-72-74l-62-66 20-54c10-29 19-54 19-55s20-5 44-8l43-7 32 16c17 9 45 30 62 47l32 31 13 57c8 31 14 63 14 72v15l-53 17c-59 19-77 20-92 9zm-491-47c-19-47-19-52 19-142l34-78 16 1c10 0 37 1 61 2l44 2 11 44c6 25 11 52 11 60 0 35-123 146-162 146h-19l-15-35zm250-262c-11-15-23-35-26-44l-6-17 24-10 24-11 15 6 16 6-7 31c-4 17-10 39-13 49l-7 18-20-28zm90-14c4-24 11-48 17-54l9-9 22 21 21 21-6 16c-3 8-20 22-38 31l-32 17 7-43zm-103-516-11-56 1-86c1-47 4-99 8-116l7-30 12 60c6 33 15 99 18 146l7 87-7 26c-10 41-22 31-35-31zm-511-78v-26l10 6c6 3 10 12 10 20s-4 17-10 20l-10 6v-26zm273 144c-13-5-23-13-23-19 0-14 11-12 34 5 24 18 18 25-11 14zm-17-101c-3-18-8-73-12-123l-6-90 27 38c14 21 33 53 41 72l14 34v80l-19 11c-11 5-24 10-29 10h-10l-6-32zm691-12c-7-42-3-56 13-40l9 9-8 35-7 35-7-39z"/></g></g></svg>