<?xml version="1.0" encoding="UTF-8" standalone="yes"?>
<svg width="250" height="250" viewBox="0 0 250 250" fill="none" version="1.2" baseProfile="tiny-ps" xmlns="http://www.w3.org/2000/svg">
  <title>bimi-svg-tiny-12-ps</title>
  <g>
    <rect width="250" height="250" fill="white"/>
    <path fill-rule="evenodd" d="M303 122.469C303 221.62 222.406 302 122.941 302C23.5864 302 -57 221.62 -57 122.469C-57 23.3647 23.5864 -57 122.941 -57C222.406 -57 303 23.3647 303 122.469Z" fill="#441500"/>
    <path fill-rule="evenodd" d="M150.854 203.305C156.134 203.305 170.846 195.485 165.392 191.892C161.944 189.633 157.895 186.612 150.427 180.907C147.071 178.347 145.606 179.042 144.573 179.042C141.489 179.042 146.495 174.072 144.845 170.063C143.023 165.693 141.987 158.997 140.453 157.474C138.906 155.932 139.54 147.843 142.767 144.619C146.299 141.099 151.362 130.857 154.149 126.938C157.469 122.256 159.742 111.968 158.434 110.644C157.099 109.333 151.071 96.8416 148.444 94.206C146.734 92.5067 143.944 88.3322 141.139 84.9336L140.48 84.0003L137.645 85.6125C134.809 87.2438 131.304 90.5933 131.304 90.5933C131.304 90.5933 128.862 91.3992 123.218 90.2675C120.175 89.6623 119.077 87.5232 119.077 85.094C119.077 82.6702 117.489 83.2835 117.489 83.2835C117.489 83.2835 88.9908 84.665 86.8973 85.8646C84.8225 87.0754 75.7141 99.5341 75.7141 99.5341C75.7141 99.5341 70.8662 146.894 74.6046 150.642C79.0747 155.088 102.366 191.72 106.727 196.096C111.058 202.016 145.576 203.305 150.854 203.305ZM95.8482 98.4649C92.9062 98.9941 88.1563 98.1579 85.9213 102.218L81.6742 120.632C81.6742 120.632 82.1309 139.123 82.5388 142.792C82.9359 146.443 87.7157 158.364 90.3855 161.049C92.7432 163.402 97.3301 171.189 101.482 175.293C102.608 176.395 104.889 176.927 105.846 178.219C107.575 180.551 106.496 178.944 103.399 174.368C92.0116 157.531 89.551 142.996 88.9989 140.515C87.7811 135.092 88.6783 122.37 88.9989 117.269C89.1623 114.569 91.041 108.513 92.8247 107.156C93.662 106.513 101.474 105.65 103.048 105.202C105.484 104.488 108.946 104.534 111.183 104.075C118.34 102.607 131.494 106.26 132.389 106.683C143.102 111.629 138.944 113.353 139.105 113.933C139.276 114.536 124.191 144.858 124.262 146.285C124.333 147.825 124.879 162.989 126.298 167.134C126.72 168.358 131.481 179.832 132.337 181.908C136.106 191.028 124.226 180.399 123.46 179.978C122.69 179.55 107.018 152.667 104.753 146.961C103.222 143.121 103.782 137.339 104.084 136.11C104.492 134.427 103.279 121.447 105.696 119.669C107.336 118.464 114.669 117.728 118.212 119.278C121.431 120.69 123.16 124.294 122.829 125.144C122.57 125.86 117.481 142.252 116.692 140.881C116.434 140.431 116.415 135.241 115.743 134.725C115.063 134.196 111.325 133.42 110.865 134.011C110.406 134.63 109.503 140.13 109.979 142.016C112.241 151.128 117.519 148.291 118.519 146.589C120.004 144.063 127.168 123.925 127.04 122.627C126.736 119.663 124.542 114.558 119.889 112.997C117.1 112.066 104.968 112.582 101.626 114.325C96.4982 117.012 96.8 140.287 97.7787 143.677C98.7548 147.04 114.903 174.116 115.662 176.194C117.157 180.25 126.935 189.894 128.463 190.8C129.102 191.183 142.441 196.357 144.17 193.764C144.923 192.635 144.551 189.497 141.217 187.321C138.042 185.239 130.437 163.114 130.461 161.372C130.494 159.738 128.482 147.418 129.817 144.858C132.343 139.964 150.511 112.78 148.521 110.6C145.853 107.656 137.705 93.9373 133.884 99.1054C130.434 103.779 114.098 98.9669 110.031 95.9947C109.729 95.764 100.098 97.6832 95.8482 98.4649ZM175.395 34.5861C177.016 34.7814 184.169 37.2866 184.169 37.2866C184.169 37.2866 191.073 47.3702 192.838 49.5338C194.616 51.6998 193.825 53.2686 193.825 53.2686L190.437 65.624C190.437 65.624 191.668 66.6314 190.437 65.624C189.188 64.6228 180.047 65.4479 177.872 65.6513C175.694 65.8386 179.846 63.0889 180.83 62.1092C181.818 61.1264 185.763 58.3718 185.257 56.7945C184.784 55.2177 178.832 43.736 178.832 43.736C178.832 43.736 168.451 43.6328 163.522 44.2245C158.594 44.8136 148.235 55.1037 148.235 55.1037L144.464 69.9778C144.464 69.9778 145.987 72.714 148.156 74.4892C150.324 76.2614 156.628 75.6647 158.989 75.469C161.346 75.279 160.373 78.0313 158.401 79.7982C156.422 81.5654 149.336 81.5654 149.336 81.5654L152.284 82.5532C155.546 85.5066 161.523 100.623 165.05 104.154C168.573 107.656 164.943 125.388 159.883 130.437C154.815 135.466 152.403 146.337 149.323 149.412C146.22 152.496 143.028 151.288 146.22 154.469C149.434 157.64 147.941 161.483 148.445 164.287C148.774 166.089 149.282 169.371 150.843 170.907C152.363 172.446 175.724 188.604 185.116 189.345C186.823 189.489 186.845 197.714 177.222 207.822C177.222 207.822 175.504 213.66 159.459 214.171C141.951 214.716 124.729 211.801 120.768 211.801C116.817 211.801 105.313 205.273 105.313 205.273C103.124 205.273 66.578 154.521 66.578 151.016C66.578 147.499 63.9843 138.007 63.9843 134.489C63.9843 130.982 68.0546 98.8395 67.4022 94.9497C66.8855 91.8908 68.4816 91.1797 72.0052 87.6617C75.5238 84.155 81.8752 78.2052 84.2844 75.7921C85.3719 74.7118 93.798 74.9451 104.008 72.7681L105.591 72.095L103.559 71.1152C103.559 71.1152 100.275 66.9895 94.9644 67.1875C89.6544 67.3801 87.8707 67.7765 90.6304 66.6015C93.3902 65.4233 98.3442 61.694 98.3442 61.694L109.922 66.7995H118.677L129.645 57.7854L154.524 37.6097L175.395 34.5861Z" fill="#FEFEFE"/>
  </g>
  <defs/>
</svg>