<?xml version="1.0" encoding="utf-8"?><svg xmlns="http://www.w3.org/2000/svg" xmlns:xlink="http://www.w3.org/1999/xlink" width="202" height="202" fill="none" version="1.2" baseProfile="tiny-ps"><title>ohne-makler</title><defs id="defs1" /><rect id="rect1" width="202" height="202" x="0" y="0" rx="0" fill-opacity="1" fill="#236be9" /><path d="m 146.61964,107.19984 c -0.30225,1.66814 -0.31387,3.83615 -0.31387,6.44493 v 7.64323 l 6.03322,-5.21949 -1.25547,-0.34099 v -1.12468 c 1.22156,0.0678 2.47703,0.0852 3.68115,0.0852 0.97649,0 1.97039,-0.0348 2.92943,-0.0852 v 1.12468 l -1.53446,0.34099 c -2.3201,1.53446 -4.55204,3.32661 -6.71519,5.13424 2.09243,2.26876 6.52532,6.99323 8.65167,8.95489 l 0.86798,0.2354 1.43371,-0.2693 c 0.2945,-1.6323 0.3129,-3.74121 0.31483,-6.27734 v -8.04041 c -0.002,-2.51675 -0.0203,-4.62469 -0.31483,-6.26862 -0.66164,-0.11916 -1.3785,-0.27414 -2.09244,-0.39427 v -1.12469 c 1.18572,-0.0678 3.67921,-0.49405 4.97052,-0.81857 h 1.62164 c -0.29449,1.63036 -0.31192,3.74121 -0.31386,6.2754 v 10.41379 c 0,2.51481 0.0203,4.62275 0.31386,6.26861 l 1.81347,0.34099 v 1.12567 c -1.34266,-0.0339 -2.72018,-0.0853 -4.06284,-0.0853 -1.08788,0 -2.20094,0.0445 -3.29657,0.0707 v 0.0146 c -2.33753,0 -3.83809,0.11915 -5.09356,0.37489 l -2.37144,-2.78025 -2.84223,-3.17159 -2.75602,-3.08733 v 0.77498 c 0,2.59134 0.0126,4.75838 0.31289,6.44008 l 1.81345,0.341 v 1.12468 c -1.34167,-0.0339 -2.72017,-0.0853 -4.06185,-0.0853 -1.34459,0 -2.72212,0.0678 -4.06477,0.0853 l 0.0175,-1.17797 1.81346,-0.34098 c 0.29449,-1.63037 0.31289,-3.73928 0.31483,-6.27347 v -8.04428 c -0.002,-2.51482 -0.0203,-4.62276 -0.31483,-6.26766 -0.66164,-0.11819 -1.37752,-0.27317 -2.09245,-0.3933 v -1.12469 c 1.18569,-0.0678 3.67919,-0.49405 4.97049,-0.81857 z m -133.288769,7.02712 c 6.366458,0 9.315256,4.12774 9.315256,8.85027 0,3.87394 -2.565183,8.88806 -9.315256,8.88806 -5.790067,0 -9.3133193,-3.34307 -9.3133193,-8.88612 0,-5.09936 3.9940525,-8.85221 9.3133193,-8.85221 z m 58.35985,0 c 3.347912,0 7.18503,1.92777 7.18503,6.68517 v 0.93967 H 66.703726 c 0,4.82618 1.813453,7.36714 5.528512,7.36714 2.216442,0 4.029894,-1.2448 5.685445,-2.84805 l 1.273873,1.15957 c -1.569334,1.85995 -4.220733,4.43483 -8.057852,4.43483 -6.558266,0 -8.808613,-4.60533 -8.808613,-8.15279 0,-6.44783 4.849435,-9.58554 9.366598,-9.58554 z m 104.979729,0 c 3.34791,0 7.186,1.92777 7.186,6.68517 v 0.93967 h -12.17397 c 0,4.82618 1.81346,7.36714 5.52948,7.36714 2.21644,0 4.0299,-1.2448 5.68642,-2.84805 l 1.2729,1.15957 c -1.5703,1.85995 -4.22073,4.43483 -8.05882,4.43483 -6.55633,0 -8.80667,-4.60533 -8.80667,-8.15279 0,-6.44783 4.84847,-9.58554 9.36466,-9.58554 z m -45.62597,-0.0164 c 6.03419,0 6.90702,2.62525 6.90702,6.07101 0,0.77498 0.10167,3.08732 0.21311,5.50429 l 0.009,0.22474 0.0155,0.33421 0.0106,0.2228 c 0.0465,1.04527 0.095,2.08082 0.13369,2.9924 l 1.70979,0.88735 -0.0175,1.14309 a 51.672743,51.672743 0 0 0 -2.75603,-0.0852 c -0.83698,0 -1.69236,0.0339 -2.52934,0.0852 l -0.31289,-3.71893 h -0.0697 c -1.06464,1.70496 -2.52935,4.09383 -6.80336,4.09383 -2.00526,0 -5.57985,-0.92029 -5.57985,-4.60531 0,-5.18462 6.80141,-6.44784 12.0858,-6.44784 v -1.70495 c 0,-1.89385 -0.71298,-2.78024 -3.52324,-2.78024 -2.24938,0 -3.52325,0.51149 -4.58788,0.93772 v 1.67202 l -1.14988,0.30709 a 19.534333,19.534333 0 0 0 -1.65749,-3.70053 c 2.00623,-0.64905 4.42998,-1.43371 7.90189,-1.43371 z m -32.668299,0.0155 -0.226682,2.93427 0.06975,0.0339 0.05619,-0.0591 0.11431,-0.11915 c 1.428868,-1.48021 3.122201,-2.78993 5.637011,-2.78993 2.6698,0 3.7354,1.41046 4.46388,3.01758 l 0.0465,0.10365 0.0252,0.0533 c 1.34266,-1.673 3.34792,-3.17356 5.87725,-3.17356 3.66275,0 5.14587,2.26779 5.14587,5.44037 v 3.70149 c 0,2.74633 0,5.03156 0.3129,6.78882 l 1.81346,0.34099 v 1.12567 a 68.818202,68.818202 0 0 0 -2.43441,-0.0775 l -0.1705,-0.003 -0.74398,-0.005 a 43.805731,43.805731 0 0 0 -2.80542,0.0853 c 0.0678,-1.34846 0.15499,-2.84902 0.15499,-4.79229 v -3.75282 c 0,-4.4852 -0.71298,-6.07294 -3.08636,-6.07294 -3.10475,-0.0155 -3.71506,2.98562 -3.71506,6.38003 0,2.74633 0,5.03058 0.3129,6.78882 l 1.81345,0.34099 v 1.12468 c -1.34167,-0.0339 -2.72018,-0.0853 -4.06185,-0.0853 -1.34459,0 -2.72212,0.0678 -4.06477,0.0853 v -1.14212 l 1.81345,-0.34099 c 0.29159,-1.6168 0.31387,-3.70246 0.31484,-6.43718 v -0.64129 c 0,-4.4852 -0.7159,-6.07294 -3.08733,-6.07294 -3.087325,0 -3.715059,2.98562 -3.715059,6.38003 0,2.74633 0,5.03058 0.314835,6.78882 l 1.813454,0.34099 v 1.12468 c -1.342653,-0.0339 -2.722117,-0.0853 -4.06477,-0.0853 -1.34362,0 -2.720179,0.0678 -4.063799,0.0853 v -1.12372 l 1.813452,-0.34099 c 0.294493,-1.63229 0.312898,-3.74218 0.314835,-6.27733 V 121.408 a 36.685604,36.685604 0 0 0 -0.314835,-4.79325 c -0.661675,-0.11915 -1.377562,-0.27221 -2.092481,-0.39137 l -0.01647,-1.177 c 1.185719,-0.0678 3.679216,-0.49598 4.969558,-0.81857 h 1.46568 v -9.6e-4 z m -49.567705,0 -0.227651,2.93427 0.06975,0.0339 c 1.464712,-1.54996 3.192916,-2.9672 5.807505,-2.9672 3.661779,0 5.145866,2.26779 5.145866,5.44036 v 4.22267 c 0,2.51385 0.01937,4.62179 0.314835,6.26765 l 1.813452,0.34099 v 1.12566 a 68.043222,68.043222 0 0 0 -2.182536,-0.0726 l -0.170496,-0.004 -0.169527,-0.003 a 43.902603,43.902603 0 0 0 -3.635623,0.0775 c 0.05232,-1.34552 0.157901,-2.84704 0.157901,-4.79029 v -3.75285 c 0,-4.4852 -0.716856,-6.07294 -3.087325,-6.07294 -3.208416,0 -3.994052,2.98562 -3.994052,6.38003 v 0.52021 c 9.69e-4,2.51577 0.01937,4.62275 0.313867,6.26764 l 1.813452,0.34196 v 1.12468 c -1.341683,-0.0339 -2.720179,-0.0852 -4.063799,-0.0852 -1.341684,0 -2.720179,0.0678 -4.063801,0.0852 v -1.17796 l 1.813453,-0.34099 c 0.302242,-1.6662 0.314836,-3.83421 0.314836,-6.44395 v -2.32107 c 0,-1.60421 -0.105592,-3.20841 -0.314836,-4.79325 -0.661639,-0.12012 -1.377527,-0.27318 -2.092446,-0.39233 v -1.12567 c 1.185719,-0.0678 3.679217,-0.49598 4.970527,-0.81857 h 1.464712 z m -19.275685,-7.02619 c -0.287711,1.59452 -0.310961,3.64822 -0.312898,6.10684 v 3.88749 c 1.464712,-1.54996 3.190979,-2.96721 5.807504,-2.96721 3.662749,0 5.145866,2.26779 5.145866,5.44036 v 3.7015 c 0,2.74633 0,5.03156 0.312898,6.78882 l 1.813453,0.34099 v 1.12567 a 73.497142,73.497142 0 0 0 -3.347913,-0.0853 c -1.064629,0 -2.024634,0.0339 -2.808333,0.0853 0.06975,-1.34847 0.156933,-2.84903 0.156933,-4.79229 v -3.75284 c 0,-4.4852 -0.714919,-6.07293 -3.087325,-6.07293 -3.208416,0 -3.99502,2.98561 -3.99502,6.38002 0,2.74633 0,5.03058 0.314835,6.78882 l 1.813452,0.341 v 1.12468 c -1.341683,-0.0339 -2.720179,-0.0853 -4.063799,-0.0853 -1.342653,0 -2.720179,0.0678 -4.063801,0.0853 v -1.17797 l 1.813453,-0.34098 c 0.294492,-1.63037 0.312898,-3.73928 0.314836,-6.26184 v -8.05495 c 0,-2.51578 -0.02035,-4.62372 -0.313867,-6.26765 -0.662608,-0.11916 -1.379464,-0.27414 -2.092445,-0.39427 v -1.12469 c 1.185719,-0.0678 3.680184,-0.49405 4.969557,-0.81857 z m 161.037889,7.04456 c -0.15694,1.34847 -0.22765,2.86453 -0.34874,4.46873 l 0.0514,0.0514 c 0.6287,-1.53446 2.44215,-4.52008 5.68641,-4.52008 0.69748,0 1.39497,0.15307 2.0227,0.46015 a 25.138406,25.138406 0 0 0 -1.53446,4.28176 l -1.15182,-0.18793 v -1.43371 a 1.5363974,1.5363974 0 0 0 -0.71394,-0.186 c -1.15181,0 -3.87199,1.1247 -3.87199,7.02617 0,2.013 0.12205,4.06089 0.24314,5.95184 0.78564,0.12012 1.53446,0.2228 2.3201,0.34099 v 1.12663 a 146.02556,146.02556 0 0 0 -4.74288,-0.0853 c -1.65845,0 -3.08732,0.0678 -3.80321,0.0853 v -1.15958 l 1.81346,-0.34099 c 0.29449,-1.6323 0.31289,-3.74121 0.31483,-6.26184 v -2.48961 c 0,-1.60228 -0.10365,-3.20456 -0.31483,-4.79229 -0.66164,-0.11915 -1.37753,-0.27222 -2.09245,-0.39233 v -1.12469 c 1.18572,-0.0678 3.67922,-0.49599 4.97052,-0.81858 z m -177.257246,1.99558 c -3.8012758,0 -5.1284286,3.13866 -5.1284286,6.83919 0,3.872 1.7795478,6.87407 5.1293976,6.87407 2.87808,-0.0175 5.127459,-2.23484 5.127459,-6.87407 0,-4.06089 -2.022697,-6.83919 -5.127459,-6.83919 z m 120.766066,6.4982 h -0.94257 c -2.28425,0 -6.95932,0.88638 -6.95932,4.00859 0,1.24384 0.94257,2.47217 3.00112,2.47217 2.91198,0 4.74287,-2.47217 4.90077,-6.48076 z m -43.394025,-1.07432 a 10.22392,10.22392 0 0 0 -0.94257,2.19901 c -1.743704,-0.0339 -3.366318,-0.0843 -5.021869,-0.0843 -1.658456,0 -3.280101,0.0678 -4.936621,0.0852 0.400084,-0.69942 0.712982,-1.43274 0.940632,-2.20094 1.743705,0.0348 3.366318,0.0872 5.023807,0.0872 1.656519,0 3.279133,-0.0707 4.936621,-0.0862 z m -19.081939,-5.60988 c -3.001109,0 -4.412542,1.97814 -4.708002,4.16067 l 7.795328,-0.37586 c 0,-1.61971 -0.191809,-3.78578 -3.087326,-3.78578 z m 104.980694,0 c -2.99917,0 -4.41351,1.97814 -4.70897,4.16067 l 7.7963,-0.37586 c 0,-1.61971 -0.19278,-3.78578 -3.08733,-3.78578 z M 41.985747,84.022131 l 0.164683,0.166621 0.0097,-0.0078 17.731537,17.984368 V 89.7347 h 5.946006 v 15.56159 L 58.043328,105.27789 42.001247,89.008156 29.083302,102.09466 h -4.916277 z m 32.864954,5.711601 V 105.29533 H 69.968328 V 89.7347 h 4.882373 z m -6.277336,0 V 105.29533 H 67.178401 V 89.7347 h 1.394964 z m -0.443676,-19.732922 0.161777,0.164683 0.0058,-0.0068 32.899824,33.350277 H 96.263391 L 68.139376,74.989703 52.765715,90.582295 50.30128,88.081048 68.127752,70.00081 h 9.69e-4 z m 62.953541,1.963604 c 0.66358,0 1.32522,0.05425 1.9888,0.15984 6.76363,1.095628 11.36701,7.532803 10.28494,14.395249 -0.83698,5.315393 -5.45586,9.743433 -10.82937,10.471914 v 10.125113 h -3.48741 V 96.933294 c -0.65195,-0.09978 -1.43467,-0.211182 -2.06628,-0.377803 a 12.386114,12.386114 0 0 1 -7.34682,4.799069 v 8.9452 h -3.4874 v -8.69915 a 11.542355,11.542355 0 0 1 -3.10379,-0.63646 c -6.48658,-2.247434 -9.93912,-9.374342 -7.74109,-15.951982 2.21354,-6.577641 9.2397,-10.079581 15.72628,-7.850545 l -0.1579,-0.05232 0.003,-0.0038 c 0.0445,0.0155 0.0901,0.031 0.1366,0.05037 l 0.0116,0.0029 c 2.34431,-3.146418 6.18434,-5.192364 10.06892,-5.192364 z m 5.9809,5.341548 c -3.9398,-3.3421 -9.98172,-2.63493 -13.27636,1.362027 l 0.0669,-0.0804 0.008,0.0058 a 9.3065381,9.3065381 0 0 0 -1.52336,2.582644 l -0.0465,0.123997 a 9.6882156,9.6882156 0 0 0 -2.81899,-1.340715 l -0.005,0.01357 c -3.48741,-0.9726 -7.21796,0.213119 -9.5555,3.022421 -3.31207,3.981458 -2.78993,9.940083 1.13438,13.281215 3.9214,3.359538 9.79962,2.828677 13.09329,-1.148907 l 0.004,0.0029 c 0.61417,-0.792416 1.20897,-1.805702 1.54996,-2.726959 a 9.2086969,9.2086969 0 0 0 2.82292,1.327165 l -0.0795,-0.02325 c 3.44091,0.801134 7.50955,-0.39524 9.77637,-3.121231 3.29462,-3.997927 2.78993,-9.939116 -1.15085,-13.281216 z" id="path1" stroke-width="0.968725" fill-opacity="1" fill="#ffffff" /></svg>
