<svg xmlns="http://www.w3.org/2000/svg" xmlns:xlink="http://www.w3.org/1999/xlink" version="1.2" viewBox="0 0 500 500" baseProfile="tiny-ps">
  <title>WhatJobs?</title>
  <path d="M392.072,81.781h-235.33c-11.29-0.15-20.55,10.47-20.69,23.72l-48.57,287.01l-0.18,1.04  c0.13,13.26,9.39,23.89,20.69,23.75h234.86l0,0c11.31,0.16,20.6-10.46,20.76-23.75l48.76-288.07  C412.212,92.381,403.172,81.901,392.072,81.781L392.072,81.781z" fill="#E64545"/>
  <path d="M177.762,195.211c1.42-10.17,6.19-20.57,14.3-31.21c8.07-10.4,18.99-19.15,32.51-26.24  c13.73-6.86,28.88-10.4,45.9-10.4c15.6,0,28.89,3.07,40.15,8.75c11.23,5.91,19.36,13.71,24.59,23.64c5.23,9.93,7.02,20.8,5.4,32.39  c-1.29,9.22-4.31,17.26-9.05,24.11c-4.77,7.09-10.09,13-15.75,17.97c-5.93,5.2-16.31,13.48-31.2,25.3  c-4.25,3.31-7.72,6.15-10.21,8.75c-2.49,2.6-4.48,4.96-5.92,6.86c-1.24,2.13-2.49,4.26-3.49,6.38c-0.77,2.13-2.25,5.91-4.16,11.11  c-3.48,11.35-10.86,16.79-21.73,16.79c-5.44,0-9.93-1.65-13.42-5.44c-3.29-3.55-4.42-8.98-3.39-16.31  c1.26-8.98,3.8-17.02,7.56-23.64s8.37-12.53,13.53-17.26c5.42-4.96,12.4-10.88,21.43-17.97c7.68-5.91,13.31-10.64,16.81-13.71  s6.57-6.38,9.22-10.17c2.66-3.78,4.43-8.04,5.03-12.29c1.22-8.75-1.06-16.08-6.62-21.99c-5.56-5.91-13.4-8.98-23.57-8.98  c-12.06,0-21.23,3.07-27.74,8.98c-6.3,6.15-12.25,14.89-17.92,26.72c-5.47,12.06-13.19,18.2-23.35,18.2  c-6.15,0-11.05-2.13-14.47-6.38c-3.66-4.26-5.13-8.98-4.43-13.95l0,0L177.762,195.211z" fill="#FFFFFF"/>
  <path d="M232.122,372.761c-6.62,0-12-2.13-16.37-6.38c-4.37-4.26-5.91-10.17-4.82-17.97  c0.96-6.86,4.12-12.53,9.47-17.02c5.39-4.73,11.63-7.09,18.49-7.09s12.2,2.36,16.27,7.09c4.07,4.73,5.43,10.17,4.47,17.02  c-1.06,7.57-4.28,13.71-9.84,17.97c-5.32,4.26-11.3,6.38-17.68,6.38H232.122z" fill="#FFFFFF"/>
</svg>