<?xml version="1.0" encoding="UTF-8" standalone="yes"?>
<svg width="560" height="560" viewBox="0 0 560 560" fill="none" version="1.2" baseProfile="tiny-ps" xmlns="http://www.w3.org/2000/svg">
  <title>bimi-svg-tiny-12-ps</title>
  <rect width="560" height="560" fill="#F9C035"/>
  <path fill-rule="evenodd" d="M282.248 124C217.9 124 109 137.803 109 189.535C109 194.781 110.14 199.633 112.22 204.125L121.419 231.761C125.863 246.373 166.437 262.465 243.14 280.039V299.785C187.847 291.791 151.867 282.912 135.198 273.149L141.731 292.778C151.62 306.483 185.422 318.441 243.14 328.651V348.464C197.725 342.503 167.806 335.608 153.384 327.78L158.516 343.202C164.904 354.489 193.112 366.536 243.14 379.343V399.202C206.39 393.245 182.37 387.158 171.081 380.942L176.721 397.879C194.784 421.934 228.389 434.308 277.534 435C280.125 435.036 282.254 432.878 282.289 430.179C282.289 430.157 282.289 430.135 282.289 430.113V211.48C282.289 208.781 280.188 206.593 277.597 206.593C277.011 206.593 276.43 206.708 275.884 206.931C252.333 216.551 223.091 217.877 188.158 210.909C174.799 207.569 164.33 203.788 156.725 200.173C156.585 200.102 156.464 200.031 156.311 199.96C145.017 194.568 141.47 188.655 150.435 182.221C168.02 171.786 211.725 158.041 282.248 158.041C364.923 158.041 418.344 182.017 418.344 219.119C418.344 251.507 367.688 268.375 314.152 273.149C300.687 273.149 302.873 280.039 302.873 292.778C302.873 299.697 302.873 305.636 314.152 305.636C386.061 298.992 451.1 271.026 451.1 219.119C451.1 160.446 386.4 124 282.248 124Z" fill="#121212"/>
</svg>