<?xml version="1.0" encoding="utf-8"?>
<!-- Generator: Adobe Illustrator 28.0.0, SVG Export Plug-In . SVG Version: 6.00 Build 0)  -->
<svg version="1.2" baseProfile="tiny-ps" id="Layer_1" xmlns="http://www.w3.org/2000/svg" xmlns:xlink="http://www.w3.org/1999/xlink"
	  viewBox="0 0 1080 1080"  xml:space="preserve">
<title>BRIGHT LIFECARE PRIVATE LIMITED</title>	  
<rect fill="#FFFFFF" width="1080" height="1080"/>
<g>
	<path fill="#161615" d="m176.55 401.36h20.829v85.914c22.129-6.509 44.259-9.112 66.388-10.413 65.086 0 98.932 33.845 98.932 100.23 0 72.896-35.147 109.34-104.14 109.34-27.338 0-54.673-2.603-82.011-9.111v-275.97zm20.829 261.65c19.525 3.904 39.05 5.207 59.878 5.207 57.278 0 84.613-31.241 84.613-92.424 0-53.371-26.033-79.405-78.103-79.405-22.129 0-44.259 3.906-66.388 10.413v156.21z"/>
	<path fill="#161615" d="m569.68 476.87v208.28h-20.828v-208.28h20.828z"/>
	<path fill="#161615" d="m628.26 685.14v-218.69c0-50.767 26.033-75.501 78.103-75.501 15.621 0 31.242 2.604 46.863 7.811v18.226c-14.319-5.207-31.242-7.812-46.863-7.812-37.751 0-55.974 15.621-55.974 45.56v22.131h78.105v18.224h-78.105v190.05h-22.129z"/>
	<path fill="#161615" d="m901.62 584.91h-156.21c0 54.672 32.542 87.215 96.328 87.215 18.225 0 36.448-2.602 54.673-6.508v15.621c-22.13 5.206-42.957 7.812-65.088 9.113-70.292 0-106.74-41.655-106.74-111.95 0-67.689 32.542-101.53 98.93-101.53 62.484 0 87.217 35.147 78.106 108.04zm-156.21-18.225h136.68c2.604-48.164-18.224-72.896-63.786-72.896-45.56 0-70.292 23.431-72.896 72.896z"/>
	<path fill="#161615" d="m485.06 686.44c-10.413 0-19.525 0-29.938-1.3-9.113-1.303-16.924-3.906-24.733-7.811-9.112-5.208-16.924-11.716-23.432-19.526-6.508-6.509-10.415-14.32-14.319-23.43-3.905-9.113-5.207-19.528-6.509-28.639-1.302-11.716-2.603-23.431-2.603-35.147v-130.17-9.113-29.939c3.905 0 7.81-1.301 11.716-1.301h13.016v175.73c0 6.51 0 15.621 1.302 26.036 1.303 13.016 5.208 24.732 11.717 35.147 6.507 11.716 18.223 22.129 31.24 26.034 14.321 5.207 29.942 7.81 45.562 7.81h16.922v13.017l-29.941 2.603z"/>	
	<path fill="#000000" d="m572.28 418.29c-3.905 6.509-7.809 13.017-11.716 20.828-3.905 7.81-6.508 14.32-9.112 22.13-11.716-31.242 0-58.58 32.544-71.596 6.508 13.016 7.81 28.638 3.906 42.958-3.906 14.318-15.622 26.034-29.941 32.543 2.603-7.811 6.51-14.319 9.113-22.13s3.905-15.619 6.507-23.43l-1.301-1.303z"/>
</g>
</svg>
