<?xml version="1.0" encoding="utf-8"?>
<!-- Generator: Adobe Illustrator 28.0.0, SVG Export Plug-In . SVG Version: 6.00 Build 0)  -->
<svg version="1.2" baseProfile="tiny-ps" id="Layer_1" xmlns="http://www.w3.org/2000/svg" xmlns:xlink="http://www.w3.org/1999/xlink"
	   viewBox="0 0 27 25"  xml:space="preserve">
<title>BRIGHT LIFECARE PRIVATE LIMITED</title>	
<path fill="#00A5B5" d="M27,0H0v25h27V0z"/>
<path fill="#FFFFFF" d="M3,18V8.7h1.2v3.8h4.8V8.7h1.2V18H9.1v-4.4H4.3V18H3z"/>
<path fill="#FFFFFF" d="M16,18V8.7h1.2v4.6l4.6-4.6h1.7l-3.9,3.8l4.1,5.5H22l-3.3-4.7l-1.5,1.5V18H16z"/>
<path fill="none" stroke="#FFFFFF" stroke-width="0.8" d="M3,18V8.7h1.2v3.8h4.8V8.7h1.2V18H9.1v-4.4H4.3V18H3z"/>
<path fill="none" stroke="#FFFFFF" stroke-width="0.8" d="M16,18V8.7h1.2v4.6l4.6-4.6h1.7l-3.9,3.8l4.1,5.5H22l-3.3-4.7l-1.5,1.5V18
	H16z"/>
</svg>
