<?xml version="1.0" encoding="utf-8"?>
<!-- Generator: Adobe Illustrator 28.3.0, SVG Export Plug-In . SVG Version: 6.00 Build 0)  -->
<svg version="1.2" baseProfile="tiny-ps" id="Layer_1" xmlns="http://www.w3.org/2000/svg" xmlns:xlink="http://www.w3.org/1999/xlink" viewBox="0 0 180 180" xml:space="preserve">
<title>Hotels Combined</title>
<rect fill="#00AEF0" width="180" height="180"/>
<path fill-rule="evenodd" fill="#FFFFFF" d="M134.6,62.2c3.8-1.9,6.4-5.9,6.4-10.5c0-6.4-5.1-11.7-11.4-11.7
	c-4.9,0-9.2,3.3-10.8,7.8c-9.6-2.8-18.7-3.3-27.8-3.3c-9,0-20.7,1.4-27.8,3.3c-1.6-4.5-5.8-7.8-10.8-7.8C46.1,40,41,45.3,41,51.7
	c0,4.5,2.5,8.5,6.2,10.4c-0.1,0.5-0.3,1-0.4,1.6c-2.9,12.7-5.2,36.6-5.2,53.1c0,4.3,0.1,8,0.5,11.1c0.8,6.7,2,12.1,15.5,12.1h66.8
	c13.8,0,14.7-5.3,15.5-12.1c0.4-3,0.5-6.8,0.5-11.1c0-16.5-2.5-39.8-5.2-52.5C135.1,63.6,134.9,62.9,134.6,62.2z"/>
<path fill-rule="evenodd" fill="#324060" d="M59.2,83.6C59,84.2,59,84.8,59,85.4c0.1,3.6,3.1,6.5,6.7,6.6c4,0.1,7.3-3,7.3-6.9
	c0-0.5-0.1-1-0.2-1.5C72.7,83.3,72.4,83,72,83H60C59.6,83,59.3,83.3,59.2,83.6z"/>
<path fill-rule="evenodd" fill="#324060" d="M108.2,83.6c-0.1,0.6-0.2,1.1-0.2,1.7c0.1,3.6,3.1,6.5,6.7,6.6c4,0.1,7.3-3,7.3-6.9
	c0-0.5-0.1-1-0.2-1.5c-0.1-0.4-0.4-0.6-0.8-0.6h-12C108.6,83,108.3,83.3,108.2,83.6z"/>
<path fill-rule="evenodd" fill="#2BA6DF" d="M109.5,112c0-6-2.8-21.7-4.4-27.7c-0.2-0.7-0.8-1.3-2.1-1.3H78c-0.8,0-1.7,0.2-2.1,1.3
	c-0.2,0.6-4.4,21.7-4.4,27.7c0,0.5,0,0.7,0,1.4c0.2,4,8.5,8.6,19,8.6c9.5,0,18.7-4.7,19-8.6C109.5,113,109.5,112.6,109.5,112z"/>
<path fill-rule="evenodd" fill="#324060" d="M76,84.7c0,0.3,0,0.5,0.2,0.8c1.6,3.8,4.9,9.6,9.6,14.1c0.9,0.9,1.9,1.8,2.8,2.6
	c1.2,1,2.7,1,3.9,0c1-0.8,1.9-1.7,2.8-2.6c5-4.9,8-10.6,9.6-14.1c0.1-0.3,0.2-0.6,0.2-0.9l-0.1-0.3c-0.2-0.7-0.7-1.3-2-1.3H78.1
	c-0.8,0-1.6,0.2-2,1.3L76,84.7z"/>
</svg>
