<?xml version="1.0" encoding="UTF-8"?><svg baseProfile="tiny-ps" version="1.2" viewBox="0 0 254 254" xml:space="preserve" xmlns="http://www.w3.org/2000/svg"><title>Rule</title><rect width="254" height="254" fill="#fff"/><path d="m43.5 106.5 12.2 14.3 11-4.7c2.1-1 3.4-2.3 3.4-4.7 0-2.5-2-4.8-4.7-4.8l-21.9-0.1zm-25.3-5.7v46.5c0 4.5 2.7 8.4 6.7 10 5.5 2.2 11.2-0.6 13.6-6l3.9-8.7 14.5 12.2c4.5 3.8 11.2 4.9 15.6 0.5 4.3-4.3 3.6-11.3-0.7-15.6l-12.6-14.7 9.3-3.9c5.2-2.2 8.1-8 6-13.6-1.6-4-5.5-6.7-10-6.7h-46.3zm20 38.3-4.7 10.3c-1.3 2.7-3.7 4.3-6.7 3.1-2.5-1-2.9-4.1-2.9-6.8v-18.7l14.3 12.1zm-14.3-19.8 38.1 32.2c1.8 1.8 4.8 1.8 6.7 0 1.8-1.8 1.8-4.9 0-6.7l-32.7-38.3h-12.1v12.8z" fill="#05CC87" fill-rule="evenodd"/><path d="m122.4 113.1c-2.4-2.4-5.3-3.6-8.7-3.6h-15.5c-1.6 0-2.8 1.1-2.8 2.7v34.1c0 1.5 1.2 2.7 2.7 2.7s2.7-1.2 2.7-2.7v-11.3h7.5l12.8 12.8c1.5 1.5 3.3 1.2 4.2 0.1 0.8-0.9 0.9-2.4 0-3.3l-10.1-9.7c6.1-0.8 10.8-5.8 10.8-12 0.1-3.6-1.1-7.4-3.6-9.8zm42-3.6c1.5 0 2.7 1.2 2.7 2.7v21.1c0 2.5-0.4 4.8-1.1 6.8s-1.8 3.7-3.2 5.1c-3.1 3.2-7.6 4.4-11.9 4.4-4.4 0-8.8-1.2-11.9-4.4-1.4-1.4-2.5-3.1-3.2-5.1s-1.1-4.2-1.1-6.8v-8.1-13c0-1.5 1.2-2.7 2.7-2.7s2.7 1.2 2.7 2.7v20.5c0 3.8 0.9 6.6 2.8 8.6 1.9 1.9 4.5 2.9 7.9 2.9s6.1-1 7.9-2.9 2.8-4.8 2.8-8.6v-20.5c0.2-1.5 1.4-2.7 2.9-2.7zm69 0c1.3 0 2.4 1.1 2.4 2.4s-1.1 2.4-2.4 2.4h-20.8v12.4h17.7c1.3 0 2.4 1.1 2.4 2.4s-1.1 2.4-2.4 2.4h-17.7v12.5h20.8c1.3 0 2.4 1.1 2.4 2.4s-1.1 2.4-2.4 2.4h-23.8c-1.3 0-2.4-1.1-2.4-2.4v-34.3c0-1.5 1.2-2.7 2.7-2.7 7.8 0.1 15.6 0.1 23.5 0.1zm-56 36.8v-34.1c0-1.5 1.2-2.7 2.7-2.7s2.7 1.2 2.7 2.7v31.9h15.1c1.3 0 2.4 1.1 2.4 2.4s-1.1 2.4-2.4 2.4h-17.9c-1.7 0.1-2.6-0.9-2.6-2.6zm-64.8-16.2h-11.8v-15.8h11.8c4.8 0 8 3.7 7.9 8.4 0 4.4-3.8 7.4-7.9 7.4z" fill="#262950" fill-rule="evenodd"/></svg>