<?xml version="1.0" encoding="UTF-8"?>
<svg xmlns="http://www.w3.org/2000/svg" xmlns:xlink="http://www.w3.org/1999/xlink" width="250px" height="250px" viewBox="0 0 250px 250px" version="1.2" baseProfile="tiny-ps">
    <title>Qualifyze</title>
    <g id="logo" stroke="none" stroke-width="1" fill="none" fill-rule="evenodd">
        <g id="qualifyze">
            <rect id="background" fill="#FFFFFF" x="0" y="0" width="250" height="250"/>
            <g id="text" transform="translate(16, 101)" fill="#0B0C0C" fill-rule="nonzero">
                <path d="M49.3168,39.173 C43.1879,39.173 40.2063,35.035 40.2063,28.966 L40.2063,11.035 L46.2248,11.035 L46.2248,27.145 C46.2248,32.276 47.9917,34.593 51.581,34.593 C55.17,34.593 56.992,32.055 56.992,27.531 L56.992,11.035 L63.01,11.035 L63.01,38.621 L57.157,38.621 L57.157,33.214 L57.047,33.214 C55.887,37.021 53.292,39.173 49.3168,39.173 L49.3168,39.173 Z" id="Path"/>
                <path d="M77.138,39.173 C71.396,39.173 67.365,35.586 67.365,30.566 C67.365,24.883 72.335,22.786 78.464,22.124 L85.476,21.407 L85.476,20.579 C85.476,16.883 83.378,14.952 79.899,14.952 C76.421,14.952 74.543,16.662 74.378,19.752 L68.359,19.752 C68.58,14.4 72.887,10.483 80.01,10.483 C87.132,10.483 91.494,14.235 91.494,21.683 L91.494,38.621 L85.697,38.621 L85.697,33.214 L85.531,33.214 C84.372,37.021 81.28,39.173 77.138,39.173 L77.138,39.173 Z M78.684,34.704 C82.991,34.704 85.476,31.779 85.476,26.538 L85.476,25.6 L79.457,26.262 C75.813,26.648 73.715,27.973 73.715,30.621 C73.715,33.269 76.034,34.704 78.684,34.704 Z" id="Shape"/>
                <polygon id="Path" points="97.58 0.552 103.599 0.552 103.599 38.621 97.58 38.621"/>
                <path d="M109.799,6.676 L109.799,0.552 L116.204,0.552 L116.204,6.676 L109.799,6.676 Z M109.965,38.621 L109.965,11.035 L115.983,11.035 L115.983,38.621 L109.965,38.621 Z" id="Shape"/>
                <path d="M124.796,38.621 L124.796,15.503 L120.214,15.503 L120.214,11.035 L124.796,11.035 L124.796,6.566 C124.796,2.538 127.005,0.552 131.312,0.552 L137.165,0.552 L137.165,5.021 L133.741,5.021 C131.643,5.021 130.815,5.683 130.815,8 L130.815,11.035 L137.386,11.035 L137.386,15.503 L130.815,15.503 L130.815,38.621 L124.796,38.621 L124.796,38.621 Z" id="Path"/>
                <polygon id="Path" points="148.037 48 152.289 35.421 147.32 35.421 138.872 11.035 144.945 11.035 152.841 33.821 160.516 11.035 166.534 11.035 154.001 48"/>
                <polygon id="Path" points="168.299 38.621 168.299 34.317 182.103 15.504 168.63 15.504 168.63 11.035 189.446 11.035 189.446 15.338 175.642 34.152 189.998 34.152 189.998 38.621"/>
                <path d="M204.417,39.173 C196.19,39.173 191.386,32.442 191.386,24.828 C191.386,17.214 196.08,10.483 204.307,10.483 C212.534,10.483 217.945,17.159 217.117,26.759 L197.405,26.759 C197.681,31.779 200.607,34.704 204.804,34.704 C208.393,34.704 209.939,32.276 210.601,30.069 L216.62,30.069 C215.46,35.531 211.153,39.173 204.417,39.173 Z M197.46,22.29 L211.098,22.29 C210.712,17.821 208.337,14.952 204.307,14.952 C200.276,14.952 197.846,17.821 197.46,22.29 Z" id="Shape"/>
                <path d="M20.3073,39.151 L20.3073,39.036 C29.9027,37.927 36.1109,29.769 36.1109,19.586 C36.1109,8.717 28.7672,0 18.0554,0 C7.3437,0 -7.10542736e-15,8.717 -7.10542736e-15,19.586 C-7.10542736e-15,30.455 6.9691,38.717 17.232,39.151 L17.232,44.764 L36.5526,44.764 L36.5526,39.151 L20.3073,39.151 L20.3073,39.151 Z M6.5706,19.586 C6.5706,10.814 11.3192,5.131 18.0554,5.131 C24.7917,5.131 29.5955,10.814 29.5955,19.586 C29.5955,28.359 24.7461,34.041 18.0554,34.041 C11.3648,34.041 6.5706,28.303 6.5706,19.586 Z" id="Shape"/>
            </g>
        </g>
    </g>
</svg>
