<?xml version="1.0" encoding="UTF-8"?>
<svg xmlns="http://www.w3.org/2000/svg" baseProfile="tiny-ps" version="1.2" viewBox="0 0 200 200">
  <!-- Generator: Adobe Illustrator 28.6.0, SVG Export Plug-In . SVG Version: 1.2.0 Build 709)  -->
<title>BC Children's Hospital Foundation Logo</title>
  <g>
    <g id="LOGO">
      <rect width="208" height="208" fill="#003049"/>
      <g>
        <g>
          <path d="M113.7,39.2c.3,0,.5.2.7.2.4,0,.6-.2.8-.5,0,0,.2-.2.2-.3.9-.9,1.4-2.3,1.6-4,.1-1.2,0-8-1.5-9.2-.2-.2-.4-.3-.7-.2h0s0,0,0,0h0c-.2,0-.3,0-.5-.2-.3-.2-.7-.4-1.3,0-.4.3-.7.9-.8,1.9,0,.2,0,.5,0,.7,0,.5,0,.9-.2,1.4-.2.6-.2,1-.2,1.4s0,.4,0,.6c0,.5-.1,1-.2,1.6-.3,2-.8,4.5.7,5.8.3.2,1.2.8,1.6.9h0Z" fill="#cdff04"/>
          <path d="M130.2,40.7c.2.2.5.4.7.8.1.2.1.3.2.5,0,.3.1.8.9.8h.1c.6,0,1.2-.6,1.6-1,.5-.5.9-1.1,1.3-1.7.2-.3.4-.6.6-.9,1-1.4,1.8-2.9,2.4-4,.4-.7.4-.8.4-1.5h0c0,0,0-.1,0-.1-.2-.2-.2-.3-.2-.5.1-.2.1-.5.2-.7,0,0,0-.1,0-.2h0c0,0,0,0,0,0-.2-.4-.2-.5-.4-.4-.2-.2-.5-.3-.7-.4-.7-.3-1.6-.3-2.1,0-.4.2-.7.8-1,1.3-.1.2-.2.3-.3.5-.2.3-.5.6-.7,1-.3.5-.6.9-1,1.3-.6.8-1.1,1.7-1.7,2.5-.2.3-.4.6-.6.9-.8,1.2-.3,1.6.2,2.1h0Z" fill="#cdff04"/>
          <path d="M83.5,55c.2-.2.4-.5.8-.7.2,0,.3-.1.5-.2.3,0,.8-.2.8-.8,0-.7-.6-1.3-1-1.8-.5-.5-1.1-.9-1.7-1.3-.3-.2-.6-.4-.9-.6-1.4-1-2.9-1.8-4.1-2.4-.7-.4-.8-.4-1.5-.4h-.1c-.2.3-.3.3-.5.2-.2,0-.4-.2-.7-.2,0,0-.1,0-.2,0h0c-.4.2-.5.2-.4.4-.2.2-.3.5-.4.7-.3.7-.3,1.6,0,2.1.2.4.8.7,1.3,1,.2,0,.3.2.5.3.3.2.6.5.9.7.4.3.9.7,1.3,1,.8.6,1.7,1.2,2.6,1.7.3.2.6.4.9.5.5.3.8.4,1.1.4.4,0,.7-.3,1-.6h0Z" fill="#cdff04"/>
          <path d="M154.8,50.1c.3-.2.6-.3,1-.5.1,0,.4-.2.6-.3.6-.2,1.2-.5,1.4-.8.3-.8-.1-1-.5-1.2-.1,0-.3-.1-.4-.2-.3-.3-.4-.5-.5-.8,0,0,0-.2-.1-.3h0s0,0,0,0h0c-.2-.2-.4-.3-.5-.4-.3-.3-.5-.5-1.1-.6-.9-.2-1.5.2-2.2.6h-.1c-1.2.8-2.3,1.6-3.4,2.4l-.7.5c-.3.2-.5.3-.9.5-1,.5-2.1,1.2-2.2,2.4,0,.2,0,.3,0,.4,0,.4,0,.6-.2,1.1,0,0-.1.2-.2.3-.2.3-.6.8,0,1.4.2.3.6.4,1,.4,1,0,2.3-.6,3.1-1,.2,0,.3-.2.4-.2.9-.4,1.7-1,2.5-1.6.6-.4,1.1-.8,1.8-1.2.4-.2.9-.5,1.4-.7h0Z" fill="#cdff04"/>
          <path d="M91,38.7c.2.3.5.6.7.9.4.5.8,1.1,1.3,1.6.3.4.7.8,1,1.3.4.5.8.7,1.1.7s.5,0,.8-.2c.3,0,.6-.2,1.1-.3.9,0,1.5-.3,1.7-.8s0-1-.4-1.8c-.3-.5-.6-1.1-1-1.7-1.1-1.9-2.1-3.9-3.5-5.4,0-.1-.3-.3-.8-.8h0c-.3-.1-1,0-1.7,0h-.2c0,0-.2,0-.2,0-.4,0-.9.1-1.3.6-.4.6-.8,2-.5,2.6.4,1,1.3,2.1,2,3.1h0Z" fill="#cdff04"/>
          <path d="M144.3,62.7c-.4-.7-.8-1.4-1.2-2.1-.2-.3-.4-.7-.5-1-.3-.7-.6-1.3-1.1-1.8-3.4-5.1-9.5-9.5-11.9-10.5-5.5-3.1-11.6-4.4-18.4-3.9-4.4.5-9,1.3-12.4,3.8-.6.3-1.1.7-1.6,1.1-.2.2-.4.3-.7.5-3.2,2.7-5.9,6-8.5,9.2l-.8,1c-2,2.7-3.6,5.7-4.7,8.8-.3.8-.2,1.1.3,1.9.3.4.8.5,1.2.6.2,0,.5,0,.7.2.1,0,.3,0,.4,0,.7.2,1.1.3,1.9,0,.8-.3,1.3-1.3,1.6-2.1.1-.3.2-.7.3-1,.8-2.3,1.5-4.5,3-6.4l.6-.7c.5-.7,1.1-1.3,1.6-2,.6-.9,1.1-1.8,1.7-2.6h0c.4-1,1.2-1.5,2.1-2.1.4-.3.8-.5,1.2-.8.2-.2.5-.3.9-.5l.2-.2c.4-.3.9-.7,1.3-.9,2.9-2.1,6.7-2.7,10.5-3.2,1.1-.2,6.6,0,6.6,0,2.7.5,5.4,1.5,8.6,3.3,2.3.9,8.1,6.2,10.2,8.7.4.3.6.9.9,1.4.1.3.3.6.4.9.5.9,1,2.5,1.6,4.1.6,1.8,1.2,3.4,1.7,4.3.3.4.7.5,1,.5s.6,0,.8-.2c.1,0,.2,0,.2,0,.1,0,.3,0,.5,0,1.2,0,2.3-.2,2.4-.8.1-.8.2-1.4-.2-2.4-.7-2-1.6-3.6-2.5-5.2h0Z" fill="#cdff04"/>
          <path d="M109.2,58.9c.1,0,.3,0,.4,0,.7-.2,1.6-.5,2.1-1,.8-.6,2.5-2.6,2.3-4,0,0,0-.2-.2-.5h0s0,0,0,0h0c-.1,0-.2-.2-.4-.4-.1-.2-.3-.4-.5-.5-.4-.2-1.1,0-1.3,0-.7,0-1.6.5-2.4,1.2-.9.7-2.2,2.8-1.7,4.1.5,1,1.1,1.3,1.6,1.3h0Z" fill="#cdff04"/>
          <path d="M122.3,61.8h.1c.4,0,.8-.1,1.2-.4.4-.3.5-.4.6-.7,0,0,0-.2.1-.3.2-.3.4-.5.6-.7.4-.4.8-.7.8-1.5,0-.7-.2-1.7-.7-2.3-.2-.3-.4-.5-.7-.7-.3-.3-.6-.5-.7-.9h0c0-.2-.2-.2-.3-.3-.6-.4-1.1-.4-1.5-.2-1.1.4-2,2.1-2,3.1,0,1.1.4,2,.8,2.8,0,.1.1.3.2.4.3.7.6,1.4,1.5,1.5h0Z" fill="#cdff04"/>
          <path d="M134.9,63.3c-.5-.3-1.2-.3-1.9,0-.7.3-1.3.8-1.9,1.2-.5.4-1.1.8-1.6,1.1-1.4.7-2.9,1.2-4.2,1.6-3.7,1.2-6.4,1.7-9.7.9-4.8-1.2-13-4.2-14.1-11.1h0s0,0,0,0c-.3-.4-.8-.6-1.2-.6-1,0-1.9,1.2-2.2,1.8-.7,1.3,0,2.4.7,3.4.2.2.3.4.4.6,1.8,3,4.6,4.7,7.2,6.2,2.2,1.3,5.5,3.2,8.7,3.2s1.5,0,2.2.2c.7,0,1.5.2,2.3.2h.4c1.5,0,3-.3,4.6-.8,2.2-.6,4.3-1.7,6.3-2.7.6-.3,1.1-.6,1.7-.9.1,0,.2-.1.4-.2,1.2-.5,2.9-1.4,2.7-2.7,0-.6-.4-1.1-.8-1.4h0Z" fill="#cdff04"/>
          <path d="M163.4,65.3h0c-.2,0-.3-.2-.5-.3-.1-.2-.3-.3-.5-.4-.4-.1-.9,0-1.3,0-.2,0-.4,0-.5,0-.6,0-1,0-1.4,0-.6,0-1.2,0-2.1.2-.2,0-.6,0-.9,0-1.1,0-2.4,0-3.1.7-.5.5-1.2,2.3-.9,3,.3.7,1.1.8,1.8.8s.7,0,1,0c.2,0,.4,0,.5,0,.8,0,1.4,0,2-.1.6,0,1.2,0,2-.1.1,0,.3,0,.4,0,.9,0,2.1,0,2.9-.5.6-.3,1.3-1.4,1.3-2.3s-.2-.9-.7-1.1h0Z" fill="#cdff04"/>
          <path d="M77.1,65.5c-.8-.4-2-.5-2.9-.5-.2,0-.3,0-.4,0-.8,0-1.3,0-1.8-.1s-.9,0-1.8-.1c-.2,0-.3,0-.5,0-1,0-2.3-.2-2.8.7-.3.7.4,2.5.9,3,.7.7,1.2.7,1.9.7.2,0,.4,0,.6,0,.9,0,1.8.1,2.6.2.6,0,1.3,0,1.9,0,.2,0,.3,0,.5,0,.3,0,.6.1.9.1s.3,0,.4,0c.2,0,.4-.2.5-.4.2-.2.3-.3.5-.3h0c.4-.2.7-.6.7-1.1,0-.9-.7-2-1.3-2.3h0Z" fill="#cdff04"/>
        </g>
        <g>
          <polygon points="30.6 160.1 32 160.1 32 154.5 37.8 154.5 37.8 153.1 32 153.1 32 149.1 38.2 149.1 38.2 147.7 30.6 147.7 30.6 160.1" fill="#fff"/>
          <path d="M46.8,152.9c-.4-.4-.8-.7-1.4-.9-.5-.2-1.1-.3-1.8-.3s-1.2.1-1.8.3c-.5.2-1,.5-1.4.9s-.7.8-.9,1.4-.3,1.1-.3,1.8.1,1.2.3,1.8c.2.5.5,1,.9,1.4.4.4.8.7,1.4.9s1.1.3,1.8.3,1.2-.1,1.8-.3c.5-.2,1-.5,1.4-.9s.7-.8.9-1.4.3-1.1.3-1.8-.1-1.2-.3-1.8c-.2-.5-.5-1-.9-1.4ZM46.3,157.2c-.1.4-.3.7-.6,1s-.6.5-.9.6c-.4.2-.8.2-1.2.2s-.8,0-1.2-.2-.7-.4-.9-.6c-.3-.3-.5-.6-.6-1-.1-.4-.2-.8-.2-1.2s0-.8.2-1.2.3-.7.6-1,.6-.5.9-.6c.4-.2.8-.2,1.2-.2s.8,0,1.2.2.7.4.9.6c.3.3.5.6.6,1,.1.4.2.8.2,1.2s0,.8-.2,1.2Z" fill="#fff"/>
          <path d="M57,158.1v-6.2h-1.4v4c0,.5,0,.9-.2,1.3,0,.4-.2.7-.5,1s-.5.5-.8.6-.7.2-1.1.2c-.6,0-1.1-.2-1.4-.6-.3-.4-.5-.9-.5-1.6v-4.9h-1.4v5.1c0,.5,0,.9.2,1.4s.3.8.6,1.1.6.5,1,.7c.4.2.8.2,1.4.2s.7,0,.9-.1c.3,0,.5-.2.8-.4.2-.1.4-.3.6-.5s.3-.4.4-.6h0c0,.2,0,.5,0,.7,0,.2,0,.4,0,.7h1.3c0-.3,0-.6,0-.9s0-.7,0-1.1h0Z" fill="#fff"/>
          <path d="M65.6,152.6c-.3-.3-.6-.5-1-.7-.4-.2-.8-.2-1.4-.2s-.7,0-.9.1c-.3,0-.5.2-.8.4-.2.1-.4.3-.6.5s-.3.4-.4.6h0c0-.2,0-.5,0-.7,0-.2,0-.4,0-.7h-1.3c0,.3,0,.6,0,.9,0,.3,0,.7,0,1.1v6.2h1.4v-4c0-.5,0-.9.2-1.3,0-.4.2-.7.5-1s.5-.5.8-.6.7-.2,1.1-.2c.6,0,1.1.2,1.4.6.3.4.4.9.4,1.6v4.9h1.4v-5.1c0-.5,0-.9-.2-1.4s-.3-.8-.6-1.1h0Z" fill="#fff"/>
          <path d="M75.5,153.1h0c-.4-.4-.8-.8-1.3-1-.5-.2-1-.4-1.6-.4s-1.2.1-1.8.3c-.5.2-1,.5-1.3.9-.4.4-.7.8-.9,1.4s-.3,1.1-.3,1.7.1,1.2.3,1.7c.2.5.5,1,.9,1.4s.8.7,1.3.9,1,.3,1.6.3,1.4-.2,1.9-.5c.6-.3,1-.7,1.2-1.2h0v1.4h1.4v-13.2h-1.4v6.2h0ZM75.3,157.2c-.1.4-.3.7-.6,1s-.6.5-.9.6c-.4.2-.8.2-1.2.2s-.8,0-1.2-.2-.7-.4-.9-.6c-.3-.3-.4-.6-.6-1-.1-.4-.2-.8-.2-1.2s0-.8.2-1.2.3-.7.6-1c.3-.3.6-.5.9-.6.4-.2.8-.2,1.2-.2s.8,0,1.2.2.7.4.9.6.4.6.6,1c.1.4.2.8.2,1.2s0,.8-.2,1.2Z" fill="#fff"/>
          <path d="M85.6,158.6v-3.5c0-1.2-.3-2-.8-2.6-.5-.6-1.4-.9-2.6-.9s-1.2.1-1.8.3c-.6.2-1.1.5-1.5.9l.9.9c.3-.3.7-.5,1.1-.7.4-.1.9-.2,1.3-.2.6,0,1.1.1,1.5.4.4.3.5.8.5,1.4v.2h-.5c-.5,0-1.1,0-1.7,0s-1.2.2-1.7.4-.9.5-1.3.9c-.3.4-.5.9-.5,1.6s0,.8.2,1.1c.2.3.4.6.7.8.3.2.6.4,1,.5s.8.2,1.2.2c.6,0,1.2-.1,1.6-.4.4-.3.8-.6,1.1-1h0v.6c0,.2,0,.4,0,.6h1.3c0-.2,0-.4,0-.7,0-.2,0-.5,0-.7h0ZM84.3,156.7c0,.3,0,.7-.2.9,0,.3-.3.6-.4.8-.2.2-.4.4-.7.5-.3.1-.6.2-1,.2s-.9-.1-1.3-.3c-.3-.2-.5-.6-.5-1.1s.3-1,.8-1.2c.5-.2,1.2-.4,2.1-.4h1.4v.5h0Z" fill="#fff"/>
          <path d="M91.7,158.9c-.2,0-.4,0-.6,0-.3,0-.5,0-.7-.1-.2-.1-.3-.2-.4-.4s-.1-.4-.1-.6c0-.2,0-.5,0-.7v-4.1h2.4v-1.1h-2.4v-2.3h-1.4v2.3h-1.8v1.1h1.8v4.5c0,.4,0,.8,0,1.1s.2.6.3.9c.2.2.4.4.7.5.3.1.7.2,1.2.2s.5,0,.8,0c.3,0,.5-.1.8-.2v-1.2c-.2,0-.4.2-.6.2h0Z" fill="#fff"/>
          <rect x="93.8" y="151.9" width="1.4" height="8.2" fill="#fff"/>
          <path d="M94.5,147.7c-.3,0-.5.1-.7.3s-.3.4-.3.7,0,.5.3.7.4.3.7.3.5,0,.7-.3.3-.4.3-.7,0-.5-.3-.7-.4-.3-.7-.3Z" fill="#fff"/>
          <path d="M104.6,152.9c-.4-.4-.8-.7-1.4-.9s-1.1-.3-1.8-.3-1.2.1-1.8.3c-.5.2-1,.5-1.4.9s-.7.8-.9,1.4-.3,1.1-.3,1.8.1,1.2.3,1.8c.2.5.5,1,.9,1.4.4.4.8.7,1.4.9s1.1.3,1.8.3,1.2-.1,1.8-.3c.5-.2,1-.5,1.4-.9s.7-.8.9-1.4.3-1.1.3-1.8-.1-1.2-.3-1.8c-.2-.5-.5-1-.9-1.4ZM104.2,157.2c-.1.4-.3.7-.6,1s-.6.5-.9.6c-.4.2-.8.2-1.2.2s-.8,0-1.2-.2-.7-.4-.9-.6c-.3-.3-.4-.6-.6-1-.1-.4-.2-.8-.2-1.2s0-.8.2-1.2.3-.7.6-1c.3-.3.6-.5.9-.6.4-.2.8-.2,1.2-.2s.8,0,1.2.2.7.4.9.6.4.6.6,1c.1.4.2.8.2,1.2s0,.8-.2,1.2Z" fill="#fff"/>
          <path d="M114.1,152.6c-.3-.3-.6-.5-1-.7-.4-.2-.8-.2-1.4-.2s-.7,0-.9.1c-.3,0-.6.2-.8.4-.2.1-.4.3-.6.5s-.3.4-.4.6h0c0-.2,0-.5,0-.7,0-.2,0-.4,0-.7h-1.3c0,.3,0,.6,0,.9,0,.3,0,.7,0,1.1v6.2h1.4v-4c0-.5,0-.9.2-1.3,0-.4.2-.7.4-1s.5-.5.8-.6.7-.2,1.1-.2c.6,0,1.1.2,1.4.6.3.4.4.9.4,1.6v4.9h1.4v-5.1c0-.5,0-.9-.2-1.4s-.3-.8-.6-1.1h0Z" fill="#fff"/>
          <path d="M40.1,70.3c.8-.2,1.5-.4,2.1-.8.6-.4,1.1-.9,1.5-1.5.4-.6.6-1.4.6-2.3s0-1.1-.3-1.6-.5-.9-.8-1.3c-.3-.4-.8-.7-1.2-.9-.4-.2-.8-.3-1.2-.4.7-.3,1.4-.7,1.8-1.3.6-.7.8-1.5.8-2.5s-.2-1.7-.6-2.3-.9-1-1.5-1.4c-.6-.3-1.3-.5-2-.6-.8,0-1.5-.2-2.2-.2h-6.5v17.3h7.1c.8,0,1.5,0,2.3-.2h0ZM34.7,56.6h2.4c.3,0,.6,0,.9,0,.3,0,.6.1.8.3.2.1.4.3.5.5s.2.5.2.8,0,.6-.2.8c-.1.2-.3.4-.5.5-.2.1-.5.2-.7.3-.3,0-.5,0-.8,0h-2.6v-3.4h0ZM34.7,63.4h2.7c.3,0,.6,0,1,0s.7.1,1,.3c.3.1.5.3.7.5s.3.5.3.9,0,.6-.2.9-.3.4-.5.6c-.2.2-.5.3-.8.3-.3,0-.6,0-.9,0h-3.3v-3.6h0Z" fill="#fff"/>
          <path d="M47.7,68.5c.8.8,1.8,1.4,3,1.8,1.1.4,2.4.6,3.7.6s2.4-.2,3.5-.7c1.1-.5,2.1-1.3,2.8-2.3h0c0,0-3.3-2.6-3.3-2.6h0c-.4.7-.8,1.1-1.4,1.4-.6.3-1.2.5-2,.5s-1.3-.1-1.8-.4c-.6-.3-1.1-.6-1.5-1.1-.4-.5-.8-1.1-1-1.7-.2-.7-.4-1.4-.4-2.2s.1-1.5.4-2.2c.2-.7.6-1.2,1-1.7.4-.5.9-.8,1.5-1.1s1.2-.4,1.9-.4,1.3.1,1.8.3,1,.6,1.3,1h0c0,0,3.1-2.4,3.1-2.4h0c-.4-.6-.8-1-1.3-1.3-.5-.3-1-.6-1.5-.8-.5-.2-1-.3-1.6-.4s-1-.1-1.5-.1c-1.3,0-2.6.2-3.7.6-1.1.4-2.1,1-3,1.8-.8.8-1.5,1.8-2,2.9-.5,1.1-.7,2.4-.7,3.8s.2,2.6.7,3.8c.5,1.1,1.1,2.1,2,2.9h0Z" fill="#fff"/>
          <polygon points="36.1 123.9 46.9 123.9 46.9 134.8 52.5 134.8 52.5 109.6 46.9 109.6 46.9 119 36.1 119 36.1 109.6 30.5 109.6 30.5 134.8 36.1 134.8 36.1 123.9" fill="#fff"/>
          <path d="M65.3,135.2c1.3,0,2.6-.2,3.8-.6,1.2-.4,2.2-1,3.1-1.8s1.6-1.8,2.1-2.9.8-2.4.8-3.7-.2-2.6-.8-3.7c-.5-1.1-1.2-2.1-2.1-2.9s-1.9-1.4-3.1-1.8c-1.2-.4-2.4-.6-3.8-.6s-2.6.2-3.8.6c-1.2.4-2.2,1-3.1,1.8-.9.8-1.5,1.8-2,2.9s-.8,2.4-.8,3.7.2,2.6.8,3.7c.5,1.1,1.2,2.1,2,2.9.9.8,1.9,1.4,3.1,1.8s2.4.6,3.8.6ZM62.1,123c.8-.8,1.8-1.2,3.2-1.2s2.4.4,3.2,1.2,1.1,1.9,1.1,3.2-.4,2.4-1.1,3.2c-.8.8-1.8,1.2-3.2,1.2s-2.4-.4-3.2-1.2c-.8-.8-1.1-1.9-1.1-3.2s.4-2.4,1.1-3.2Z" fill="#fff"/>
          <path d="M90.4,132.3c.5-.7.7-1.6.7-2.8s-.2-2-.7-2.6-1-1.2-1.7-1.6c-.7-.4-1.4-.7-2.2-.8-.8-.2-1.5-.3-2.2-.5-.7-.2-1.2-.3-1.7-.5s-.7-.5-.7-.9.2-.9.6-1.1.9-.3,1.3-.3c1.3,0,2.3.5,3.1,1.5l3.3-3.2c-.8-.9-1.8-1.4-3-1.8-1.2-.3-2.3-.5-3.5-.5s-1.8.1-2.7.3c-.9.2-1.7.6-2.3,1.1-.7.5-1.2,1.1-1.6,1.8-.4.7-.6,1.6-.6,2.6s.2,2,.7,2.6,1,1.2,1.7,1.5c.7.4,1.4.6,2.2.8.8.2,1.5.3,2.2.5.7.1,1.2.3,1.7.6.4.2.7.6.7,1s-.2.8-.8,1-1.1.3-1.7.3-1.5-.2-2.1-.5c-.6-.3-1.2-.8-1.7-1.4l-3.2,3.6c.9.9,1.9,1.5,3.1,1.8,1.2.3,2.5.5,3.7.5s1.9,0,2.8-.3c.9-.2,1.8-.5,2.6-.9s1.4-1,1.9-1.8h0Z" fill="#fff"/>
          <path d="M102.3,117.3c-.6.2-1.1.4-1.5.6-.5.3-.9.6-1.2.9s-.6.6-.8.9h0v-2.3h-4.9v25.5h5.3v-10h0c.6.8,1.4,1.4,2.4,1.8s2,.5,3.1.5,2.3-.3,3.3-.8c1-.5,1.8-1.2,2.5-2.1s1.2-1.8,1.6-2.9c.4-1.1.6-2.3.6-3.5s-.2-2.5-.6-3.6c-.4-1.1-1-2-1.7-2.8-.8-.8-1.7-1.4-2.7-1.8-1.1-.4-2.2-.7-3.5-.7s-1.2,0-1.8.2h0ZM107.2,126.2c0,1.3-.4,2.4-1.1,3.2-.8.8-1.8,1.2-3.2,1.2s-2.4-.4-3.2-1.2c-.8-.8-1.1-1.9-1.1-3.2s.4-2.4,1.1-3.2c.8-.8,1.8-1.2,3.2-1.2s2.4.4,3.2,1.2,1.1,1.9,1.1,3.2Z" fill="#fff"/>
          <path d="M117.8,108.9c-.9,0-1.6.3-2.2.9-.6.6-.9,1.3-.9,2.2s.3,1.6.9,2.2c.6.6,1.3.9,2.2.9s1.6-.3,2.2-.9c.6-.6.9-1.3.9-2.2s-.3-1.6-.9-2.2c-.6-.6-1.3-.9-2.2-.9Z" fill="#fff"/>
          <rect x="115.2" y="117.5" width="5.3" height="17.3" fill="#fff"/>
          <path d="M130.8,112.3h-5.3v5.1h-3.4v4.3h3.4v8.2c0,.9.2,1.8.5,2.4.3.7.8,1.2,1.3,1.6.6.4,1.2.7,2,.9s1.6.3,2.5.3,1.2,0,1.9-.1,1.3-.2,1.9-.4v-4.5c-.2.2-.6.4-1.1.4s-.8,0-1.1,0c-.6,0-1,0-1.4-.2s-.6-.4-.8-.7c-.2-.3-.3-.6-.3-1,0-.4,0-.8,0-1.3v-5.8h4.7v-4.3h-4.7v-5.1h0Z" fill="#fff"/>
          <path d="M151.8,119.4c-.6-.8-1.4-1.3-2.4-1.7-1-.4-2.3-.6-3.9-.6s-2.8.2-4.1.7c-1.3.5-2.5,1.2-3.5,2.1l2.9,2.9c.6-.6,1.2-1.2,1.9-1.5.7-.4,1.5-.6,2.4-.6s1.7.3,2.4.8c.7.6,1,1.3,1,2.3-.7,0-1.5,0-2.4,0-.9,0-1.7,0-2.6.2-.9.1-1.7.3-2.5.6-.8.2-1.5.6-2.2,1.1-.6.4-1.1,1-1.5,1.7-.4.7-.6,1.5-.6,2.5s.2,1.6.5,2.3c.3.7.8,1.2,1.4,1.7.6.4,1.2.8,2,1,.8.2,1.5.3,2.3.3s2.1-.2,3.1-.6c1-.4,1.8-1.1,2.4-2h0v2.2h4.9v-8.8c0-1.4-.1-2.7-.4-3.8-.2-1.1-.7-2-1.3-2.8ZM148.5,128.4c0,.6-.1,1-.3,1.4-.2.4-.5.7-.9,1s-.8.5-1.3.6-1,.2-1.5.2-1.2-.1-1.7-.5c-.6-.3-.8-.8-.8-1.4s.2-1.1.6-1.4.9-.6,1.4-.8,1.1-.3,1.8-.3c.6,0,1.1,0,1.5,0h1.3v1.1h0Z" fill="#fff"/>
          <rect x="156.2" y="107.9" width="5.4" height="27" fill="#fff"/>
          <polygon points="168.2 110.5 167.3 108.3 166.6 108.3 166.6 111.3 167.1 111.3 167.1 108.8 167.1 108.8 168.1 111.3 168.4 111.3 169.4 108.8 169.4 108.8 169.4 111.3 169.9 111.3 169.9 108.3 169.1 108.3 168.2 110.5" fill="#fff"/>
          <polygon points="163.6 108.8 164.5 108.8 164.5 111.3 165 111.3 165 108.8 166 108.8 166 108.3 163.6 108.3 163.6 108.8" fill="#fff"/>
          <path d="M35.8,102.7c1.7.6,3.5.9,5.5.9s3.4-.4,5.1-1.1,3-1.8,4.1-3.3l-4.6-3.5c-.6.9-1.3,1.5-2.2,2s-1.9.7-3,.7-1.9-.2-2.8-.6c-.9-.4-1.6-1-2.3-1.7s-1.2-1.6-1.5-2.6-.5-2.1-.5-3.3.2-2.2.5-3.2c.4-1,.9-1.9,1.5-2.6.7-.7,1.4-1.3,2.3-1.7s1.9-.6,2.9-.6,2,.2,2.8.5c.8.4,1.5.9,2,1.5l4.3-3.5c-.5-.7-1.2-1.3-1.8-1.8s-1.4-.9-2.2-1.1c-.8-.3-1.5-.5-2.3-.6-.8-.1-1.5-.2-2.2-.2-2,0-3.8.3-5.5.9-1.7.6-3.1,1.5-4.3,2.7-1.2,1.2-2.2,2.6-2.8,4.2s-1,3.5-1,5.5.3,3.8,1,5.5,1.6,3,2.8,4.2c1.2,1.2,2.6,2,4.3,2.7h0Z" fill="#fff"/>
          <path d="M59.2,86.1c-.4.3-.8.6-1,.9-.3.3-.5.7-.6,1h0v-12h-5.3v27h5.3v-8.6c0-.6,0-1.1.1-1.6s.2-1,.5-1.4c.2-.4.5-.8,1-1s1-.4,1.7-.4,1.2.1,1.6.4.6.7.8,1.1c.2.4.3.9.3,1.5,0,.5,0,1.1,0,1.6v8.5h5.4v-9.6c0-1.2,0-2.2-.2-3.2-.2-1-.5-1.9-.9-2.6-.5-.7-1.1-1.3-1.9-1.7-.8-.4-1.9-.6-3.3-.6s-1.2,0-1.8.2c-.5.2-1,.4-1.4.6h0Z" fill="#fff"/>
          <path d="M74.8,83.2c.9,0,1.6-.3,2.2-.9.6-.6.9-1.3.9-2.2s-.3-1.6-.9-2.2c-.6-.6-1.3-.9-2.2-.9s-1.6.3-2.2.9c-.6.6-.9,1.3-.9,2.2s.3,1.6.9,2.2c.6.6,1.3.9,2.2.9Z" fill="#fff"/>
          <rect x="72.1" y="85.6" width="5.3" height="17.3" fill="#fff"/>
          <rect x="80.8" y="76" width="5.3" height="27" fill="#fff"/>
          <path d="M91.1,100.8c.8.8,1.7,1.4,2.7,1.8,1.1.4,2.2.7,3.5.7s1.2,0,1.7-.2c.6-.2,1.1-.4,1.5-.6s.9-.6,1.2-.9.6-.6.8-.9h0v2.3h4.9v-27h-5.3v11.5h0c-.6-.8-1.4-1.4-2.4-1.8-1-.3-2-.5-3.1-.5s-2.3.3-3.3.8c-1,.5-1.8,1.2-2.5,2.1s-1.2,1.8-1.6,2.9c-.4,1.1-.6,2.3-.6,3.5s.2,2.5.6,3.6c.4,1.1,1,2,1.7,2.8h0ZM95.2,91.1c.8-.8,1.8-1.2,3.2-1.2s2.4.4,3.2,1.2,1.1,1.9,1.1,3.2-.4,2.4-1.1,3.2c-.8.8-1.8,1.2-3.2,1.2s-2.4-.4-3.2-1.2-1.1-1.9-1.1-3.2.4-2.4,1.1-3.2Z" fill="#fff"/>
          <path d="M123.4,90.2v-4.9c-.3,0-.6-.1-.9-.1s-.6,0-.9,0c-1.2,0-2.2.3-3,.8-.8.5-1.5,1.3-2,2.4h0v-2.8h-5.3v17.3h5.3v-7.2c0-.9,0-1.6.1-2.3,0-.7.3-1.3.6-1.8.3-.5.8-.9,1.4-1.2.6-.3,1.4-.4,2.4-.4s.8,0,1.2,0,.7.2,1.1.3h0Z" fill="#fff"/>
          <path d="M126.8,100.9c.9.8,1.9,1.4,3.1,1.8,1.2.4,2.4.6,3.8.6s2.8-.3,4.1-.9c1.3-.6,2.4-1.4,3.2-2.5l-3.7-2.8c-.4.6-1,1.1-1.6,1.5-.6.4-1.4.6-2.2.6s-1.9-.3-2.6-.9-1.2-1.4-1.4-2.4h12.4v-1.7c0-1.4-.2-2.6-.6-3.7-.4-1.1-.9-2.1-1.6-2.9s-1.6-1.4-2.6-1.8c-1-.4-2.1-.6-3.4-.6s-2.6.2-3.8.6c-1.2.4-2.2,1-3.1,1.8-.9.8-1.6,1.8-2.1,2.9s-.8,2.4-.8,3.7.2,2.6.8,3.7c.5,1.1,1.2,2.1,2.1,2.9h0ZM129.6,91.1c.2-.4.4-.7.8-1,.3-.3.7-.5,1.2-.7s1-.3,1.6-.3c1,0,1.8.3,2.4,1s.9,1.4.9,2.3h-7.1c0-.4.1-.8.3-1.2h0Z" fill="#fff"/>
          <path d="M161,102.9v-9.6c0-1.2,0-2.2-.2-3.2-.2-1-.5-1.9-.9-2.6-.5-.7-1.1-1.3-1.9-1.7-.8-.4-1.9-.6-3.3-.6s-1.2,0-1.8.2c-.6.2-1,.4-1.5.6-.4.3-.8.6-1.1.9s-.6.7-.7,1h0v-2.3h-5.1v17.3h5.4v-8.6c0-.6,0-1.1.1-1.6s.2-1,.4-1.4c.2-.4.6-.8,1-1s1-.4,1.7-.4,1.2.1,1.6.4.6.7.8,1.1c.2.4.3.9.3,1.5,0,.5,0,1.1,0,1.6v8.5h5.4,0Z" fill="#fff"/>
          <polygon points="171.5 77.7 166.4 77.7 163.7 87.7 168.3 87.7 171.5 77.7" fill="#fff"/>
          <path d="M184.3,95c-.4-.7-1-1.2-1.7-1.6-.7-.4-1.4-.7-2.2-.8-.8-.2-1.5-.3-2.2-.5-.7-.2-1.2-.3-1.7-.5-.4-.2-.7-.5-.7-.9s.2-.9.6-1.1c.4-.2.9-.3,1.3-.3,1.3,0,2.3.5,3.1,1.5l3.3-3.2c-.8-.9-1.8-1.4-3-1.8-1.2-.3-2.3-.5-3.5-.5s-1.8.1-2.7.3c-.9.2-1.7.6-2.3,1.1-.7.5-1.2,1.1-1.6,1.8-.4.7-.6,1.6-.6,2.6s.2,2,.7,2.6,1,1.2,1.7,1.5c.7.4,1.4.6,2.2.8.8.2,1.5.3,2.2.5.7.2,1.2.3,1.7.6.4.2.7.6.7,1s-.2.8-.8,1-1.1.3-1.7.3-1.5-.2-2.1-.5c-.6-.3-1.2-.8-1.7-1.4l-3.2,3.6c.9.9,1.9,1.5,3.1,1.8,1.2.3,2.5.5,3.7.5s1.9,0,2.8-.3c.9-.2,1.8-.5,2.6-.9.8-.4,1.4-1,1.9-1.8.5-.7.7-1.7.7-2.8s-.2-2-.7-2.6h0Z" fill="#fff"/>
        </g>
      </g>
    </g>
  </g>
</svg>