<?xml version="1.0" encoding="utf-8"?>
<!-- Generator: Adobe Illustrator 26.2.1, SVG Export Plug-In . SVG Version: 6.00 Build 0)  -->
<svg version="1.2" baseProfile="tiny-ps" id="Layer_1" xmlns="http://www.w3.org/2000/svg" xmlns:xlink="http://www.w3.org/1999/xlink"
	viewBox="0 0 500 500" xml:space="preserve">
	<title>Intelice Solutions</title>
<rect x="430.7" y="15.2" fill="#76BC21" width="53.3" height="53.3"/>
<rect x="325.5" y="15.2" fill="#76BC21" width="53.3" height="53.3"/>
<rect x="221.9" y="118.9" fill="#76BC21" width="53.3" height="53.3"/>
<rect x="430.7" y="224" fill="#76BC21" width="53.3" height="53.3"/>
<rect x="325.5" y="224" fill="#76BC21" width="53.3" height="53.3"/>
<rect x="221.9" y="224" fill="#76BC21" width="53.3" height="53.3"/>
<rect x="430.7" y="327.6" fill="#76BC21" width="53.3" height="53.3"/>
<rect x="432.2" y="431.2" fill="#76BC21" width="53.4" height="53.3"/>
<rect x="327.1" y="431.2" fill="#76BC21" width="53.3" height="53.3"/>
<rect x="14.7" y="15.2" fill="#002F87" width="53.4" height="53.3"/>
<rect x="221.9" y="15.2" fill="#002F87" width="53.3" height="53.3"/>
<rect x="118.3" y="15.2" fill="#002F87" width="53.3" height="53.3"/>
<rect x="118.3" y="118.9" fill="#002F87" width="53.3" height="53.3"/>
<rect x="118.3" y="224" fill="#002F87" width="53.3" height="53.3"/>
<rect x="118.3" y="327.6" fill="#002F87" width="53.3" height="53.3"/>
<rect x="16.2" y="431.2" fill="#002F87" width="53.4" height="53.3"/>
<rect x="223.5" y="431.2" fill="#002F87" width="53.3" height="53.3"/>
<rect x="119.8" y="431.2" fill="#002F87" width="53.4" height="53.3"/>
<rect x="327.1" y="327.6" fill="#8C9091" width="53.3" height="53.3"/>
<rect x="223.5" y="327.6" fill="#8C9091" width="53.3" height="53.3"/>
<rect x="429.6" y="116.5" fill="#8C9091" width="53.3" height="53.3"/>
<rect x="326" y="116.5" fill="#8C9091" width="53.3" height="53.3"/>
<rect x="15.4" y="227.5" fill="#8C9091" width="53.3" height="53.3"/>
<rect x="15.4" y="331" fill="#8C9091" width="53.3" height="53.3"/>
<rect x="14" y="120.7" fill="#8C9091" width="53.3" height="53.4"/>
</svg>
