<?xml version="1.0" encoding="UTF-8"?>
<svg version="1.2" baseProfile="tiny-ps" id="Layer_1" xmlns="http://www.w3.org/2000/svg" viewBox="0 0 292.6 188.09">
<title>Gujarat Flurochemicals</title>
<polyline fill="#247aba" fill-rule="evenodd" stroke-width="0px" points="146.79 88.94 138.5 132.29 114.72 132.29 135.81 21.89 215.1 21.89 210.58 45.54 155.08 45.54 151.31 65.28 206.81 65.28 202.29 88.94"/>
<polyline fill="#247aba" fill-rule="evenodd" stroke-width="0px" points="229.08 21.89 252.87 21.89 236.3 108.64 283.87 108.64 279.35 132.31 207.99 132.31"/>
<path fill="#879385" fill-rule="evenodd" stroke-width="0px" d="M135.16,6.71c66.25-16.63,129.89-1.27,142.13,34.31,12.24,35.58-31.54,77.91-97.79,94.54-66.25,16.63-129.89,1.27-142.13-34.31C25.13,65.67,68.91,23.34,135.16,6.71M136.87,8.02c60.07-14.53,117.64-1.3,128.58,29.58,10.95,30.87-28.88,67.67-88.96,82.22-60.07,14.54-117.63,1.3-128.58-29.58-10.94-30.87,28.88-67.68,88.96-82.22"/>
<path fill="#247aba" fill-rule="evenodd" stroke-width="0px" d="M.96,95.43c-3.15-20.11,6.19-42.42,24.18-57.48,12.83-10.78,26.87-16.18,42.13-16.18h39.44l-4.44,23.67h-39.52c-8.73,0-16.78,3.11-24.09,9.24-14.67,12.31-18.54,32.33-8.53,44.64,1.53,1.9,3.25,3.52,5.15,4.84-14.51-.71-27.32-5.54-34.33-8.73"/>
<path fill="#3fa348" stroke-width="0px" fill-rule="evenodd" d="M83.8,88.85h-29.56l4.52-23.67h55.44l-12.81,67.05h-15.78l3.17-16.57-.48.38c-12.83,10.79-26.89,16.18-42.13,16.18s-27.25-5.39-35.95-16.18c-3.97-4.89-6.73-10.23-8.3-16.05,16.28,11.16,51.44,8.48,51.44,8.48h0c11.96-.89,23.97-8.69,30.45-19.62"/>
<path fill="#247aba" fill-rule="evenodd" stroke-width="0px" d="M14.78,157.19v-.42h-6.97v2.63h3.56c-.55,1.71-1.6,2.82-3.56,2.82-2.72,0-4.21-2.17-4.21-5.02s1.5-5.02,4.21-5.02c1.64,0,2.83.58,3.65,1.89l2.29-1.69c-1.19-1.94-3.42-3.13-5.93-3.13-4.21,0-7.3,3.36-7.3,7.96s3.09,7.97,7.3,7.97,6.97-3.37,6.97-7.97M28.28,158.9v-9.35h-3.08v9.88c0,2.37-1.14,3-2.5,3-1.46,0-2.5-.86-2.5-3v-9.88h-3.08v9.35c0,3.73,1.86,6.27,5.57,6.27,3.42,0,5.57-2.04,5.57-6.27M37.09,160.03v-10.49h-2.98v10.53c0,2.21-.24,2.35-.67,2.35-.49,0-.67-.4-.67-1.39l-2.55.91c.14,2.08,1.18,3.21,3.2,3.21,2.98,0,3.67-1.47,3.67-5.13M52.57,164.83l-5.17-15.29h-3.55l-5.19,15.29h3.32l1.01-3.38h5.25l.99,3.38h3.33ZM47.54,159.02h-3.85l1.93-6.51,1.93,6.51ZM64.76,164.83l-4-6.97c1.36-.15,3.22-1.15,3.22-4.06,0-2.27-1.26-4.26-5.27-4.26h-4.11v15.29h2.98v-6.97l3.6,6.97h3.57ZM60.89,154.07c0,1.22-.65,2.05-2.64,2.05h-.67v-4.14h.67c1.9,0,2.64.74,2.64,2.09M79.77,164.83l-5.16-15.29h-3.55l-5.19,15.29h3.32l1.01-3.38h5.25l.99,3.38h3.32ZM74.74,159.02h-3.85l1.93-6.51,1.92,6.51ZM88.36,152.19v-2.64h-8.74v2.64h2.87v12.64h2.98v-12.64h2.88ZM104.12,158.38v-2.63h-4.48v-3.56h4.48v-2.64h-7.46v15.29h2.98v-6.45h4.48ZM113.6,164.83v-2.63h-3.75v-12.65h-2.98v15.29h6.72ZM126.35,158.9v-9.35h-3.09v9.88c0,2.37-1.14,3-2.49,3-1.46,0-2.5-.86-2.5-3v-9.88h-3.08v9.35c0,3.73,1.86,6.27,5.57,6.27,3.42,0,5.57-2.04,5.57-6.27M143.83,157.19c0-4.6-3.31-7.96-7.52-7.96s-7.52,3.36-7.52,7.96,3.3,7.97,7.52,7.97,7.52-3.37,7.52-7.97M140.75,157.19c0,2.86-1.72,5.02-4.44,5.02s-4.44-2.17-4.44-5.02,1.72-5.02,4.44-5.02,4.44,2.17,4.44,5.02M156.53,164.83l-4-6.97c1.36-.15,3.22-1.15,3.22-4.06,0-2.27-1.25-4.26-5.27-4.26h-4.11v15.29h2.98v-6.97l3.6,6.97h3.57ZM152.66,154.07c0,1.22-.64,2.05-2.63,2.05h-.66v-4.14h.66c1.91,0,2.63.74,2.63,2.09M172.64,157.19c0-4.6-3.3-7.96-7.52-7.96s-7.52,3.36-7.52,7.96,3.31,7.97,7.52,7.97,7.52-3.37,7.52-7.97M169.56,157.19c0,2.86-1.72,5.02-4.44,5.02s-4.44-2.17-4.44-5.02,1.73-5.02,4.44-5.02,4.44,2.17,4.44,5.02M185.75,164v-3.38c-1.03,1.12-2.25,1.67-3.91,1.67-2.86,0-4.35-2.13-4.35-5.12s1.74-5.06,4.66-5.06c1.26,0,2.56.52,3.61,1.44v-3.31c-1.01-.69-2.15-1-3.89-1-4.82,0-7.48,3.66-7.48,7.93,0,4.61,2.57,8,7.42,8,1.35,0,3.18-.59,3.95-1.16M199.52,164.83v-15.29h-2.98v6.2h-5.27v-6.2h-2.98v15.29h2.98v-6.45h5.27v6.45h2.98ZM210.55,164.83v-2.63h-4.62v-3.82h4.62v-2.63h-4.62v-3.56h4.62v-2.64h-7.66v15.29h7.66ZM229.27,164.83l-2.11-15.29h-3.45l-2.75,9.27-2.55-9.27h-3.65l-2.11,15.29h2.94l1.39-11.21,3.1,11.21h1.74l3.1-11.21,1.4,11.21h2.94ZM234.71,149.55h-2.98v15.29h2.98v-15.29ZM248.67,164v-3.38c-1.03,1.12-2.25,1.67-3.92,1.67-2.86,0-4.35-2.13-4.35-5.12s1.74-5.06,4.66-5.06c1.26,0,2.55.52,3.61,1.44v-3.31c-1.01-.69-2.15-1-3.9-1-4.82,0-7.48,3.66-7.48,7.93,0,4.61,2.58,8,7.42,8,1.36,0,3.19-.59,3.96-1.16M263.81,164.83l-5.17-15.29h-3.55l-5.19,15.29h3.32l1.02-3.38h5.25l.99,3.38h3.33ZM258.78,159.02h-3.85l1.93-6.51,1.93,6.51ZM272.58,164.83v-2.63h-3.76v-12.65h-2.98v15.29h6.73ZM283.78,160.62c0-1.9-.91-3.17-3.5-4.61-1.68-.94-2.78-1.32-2.78-2.72,0-.58.45-1.41,1.72-1.41.9,0,1.86.56,2.27,1.35l1.82-2c-.95-1.38-2.35-1.98-4.05-1.98-3.07,0-4.79,1.8-4.79,4.3,0,2.1,1.19,3.31,3.28,4.46,2.66,1.48,2.95,2.05,2.95,2.83,0,1.14-.67,1.71-1.92,1.71-1.15,0-2.38-.66-2.82-1.77l-1.88,2.1c.74,1.48,2.51,2.31,4.69,2.31,3.35,0,4.98-1.75,4.98-4.55"/>
<path fill="#3fa348" stroke-width="0px" fill-rule="evenodd" d="M6.82,178.96h1.25l-3.22,8.78h-1.11l-3.22-8.78h1.25l2.53,6.9M16.06,187.73h0l-.86-2.34h-3.33l-.86,2.34h-1.25l3.22-8.78h1.11l3.22,8.78h-1.25ZM12.28,184.23h2.49l-1.24-3.38-1.25,3.38ZM26.43,186.57h0v1.16h-4.97v-8.78h1.16v7.62h3.81ZM36.02,184.96h0c0,.52-.12.98-.38,1.4-.25.42-.58.75-1.01,1-.42.25-.88.37-1.39.37s-.98-.12-1.4-.37c-.42-.25-.76-.58-1.01-1-.25-.42-.38-.89-.38-1.4v-6h1.17v6c0,.45.16.82.47,1.14.32.32.7.48,1.14.48s.82-.16,1.14-.48c.31-.32.48-.69.48-1.14v-6h1.17v6ZM45.29,186.57h0v1.16h-5.12v-8.78h5.11v1.18h-3.95v2.63h3.22v1.18h-3.22v2.63h3.96ZM61.3,187.73h0v-7.6h-2.49v-1.18h6.15v1.18h-2.49v7.6h-1.17ZM73.94,182.76h0v-3.81h1.17v8.78h-1.17v-3.79h-3.66v3.79h-1.17v-8.78h1.17v3.81h3.66ZM84.53,181.88h0c0,.63-.17,1.19-.52,1.67-.34.49-.79.85-1.35,1.07l2.1,3.12h-1.41l-1.97-2.92h-.96v2.92h-1.17v-8.78h2.35c.54,0,1.03.15,1.47.4.44.26.8.62,1.06,1.07.26.44.4.93.4,1.45M80.42,183.65h1.18c.48,0,.9-.17,1.24-.52.34-.34.51-.77.51-1.26s-.17-.89-.51-1.23c-.34-.34-.76-.52-1.24-.52h-1.18v3.52ZM96.02,186.45h0c-.4.4-.85.71-1.36.94-.53.22-1.08.34-1.66.34s-1.13-.12-1.66-.34c-.51-.22-.96-.54-1.34-.94-.4-.42-.71-.9-.92-1.43-.21-.53-.31-1.08-.31-1.68s.1-1.14.31-1.67c.21-.53.52-1,.92-1.43.39-.4.84-.71,1.34-.94.54-.24,1.09-.36,1.66-.36s1.13.12,1.66.36c.51.22.96.54,1.36.94.39.42.7.9.91,1.43.21.53.31,1.08.31,1.67s-.11,1.15-.31,1.68c-.21.53-.52,1-.91,1.43M93.01,186.57h0c.57,0,1.08-.15,1.55-.44.46-.29.84-.69,1.11-1.16.28-.49.42-1.03.42-1.63s-.14-1.12-.42-1.61c-.28-.49-.65-.87-1.11-1.16-.47-.29-.98-.44-1.55-.44s-1.08.15-1.55.44c-.46.29-.83.67-1.11,1.16-.28.49-.42,1.03-.42,1.61s.14,1.14.42,1.63c.28.48.65.87,1.11,1.16.47.29.99.44,1.55.44M106.96,184.96h0c0,.52-.12.98-.38,1.4-.25.42-.58.75-1,1-.42.25-.88.37-1.4.37s-.97-.12-1.39-.37c-.42-.25-.75-.58-1.01-1-.25-.42-.38-.89-.38-1.4v-6h1.17v6c0,.45.16.82.48,1.14.31.32.7.48,1.13.48s.83-.16,1.14-.48c.32-.32.48-.69.48-1.14v-6h1.17v6ZM117.55,187.25h0c-.64.33-1.32.49-2.05.49-.58,0-1.14-.11-1.68-.33-.53-.21-1.01-.54-1.43-.94-.42-.42-.74-.9-.96-1.44-.22-.53-.33-1.08-.33-1.68s.11-1.14.33-1.68c.22-.53.54-1,.96-1.41.42-.42.89-.74,1.43-.97.54-.21,1.09-.33,1.68-.33.73,0,1.41.17,2.05.5v1.4c-.28-.22-.6-.41-.94-.53-.35-.13-.72-.2-1.11-.2-.59,0-1.13.15-1.62.44-.48.29-.88.67-1.17,1.16-.29.49-.44,1.03-.44,1.61s.15,1.14.44,1.63c.29.48.68.87,1.17,1.16.49.29,1.03.44,1.62.44.3,0,.6-.04.88-.12v-2.51h-1.91v-1.18h3.08v4.48ZM126.53,182.76h0v-3.81h1.17v8.78h-1.17v-3.79h-3.66v3.79h-1.17v-8.78h1.17v3.81h3.66ZM147.66,187.25h0c-.64.33-1.32.49-2.05.49-.59,0-1.15-.11-1.68-.33-.53-.21-1.01-.54-1.43-.94-.41-.42-.73-.9-.95-1.44-.22-.53-.33-1.08-.33-1.68s.11-1.14.33-1.68c.22-.53.54-1,.95-1.41.42-.42.89-.74,1.43-.97.53-.21,1.09-.33,1.68-.33.72,0,1.41.17,2.05.5v1.4c-.27-.22-.59-.41-.94-.53-.35-.13-.72-.2-1.11-.2-.59,0-1.13.15-1.62.44-.49.29-.88.67-1.17,1.16-.29.49-.44,1.03-.44,1.61s.15,1.14.44,1.63c.29.48.68.87,1.17,1.16.49.29,1.03.44,1.62.44.31,0,.6-.04.88-.12v-2.51h-1.9v-1.18h3.07v4.48ZM157.08,181.88h0c0,.63-.17,1.19-.52,1.67-.34.49-.79.85-1.35,1.07l2.11,3.12h-1.41l-1.97-2.92h-.96v2.92h-1.17v-8.78h2.35c.54,0,1.02.15,1.47.4.44.26.8.62,1.07,1.07.26.44.4.93.4,1.45M152.98,183.65h1.18c.48,0,.89-.17,1.23-.52.34-.34.52-.77.52-1.26s-.17-.89-.52-1.23c-.34-.34-.76-.52-1.23-.52h-1.18v3.52ZM166.59,186.57h0v1.16h-5.12v-8.78h5.11v1.18h-3.95v2.63h3.23v1.18h-3.23v2.63h3.96ZM175.86,186.57h0v1.16h-5.12v-8.78h5.11v1.18h-3.94v2.63h3.22v1.18h-3.22v2.63h3.95ZM186.17,178.96h0v8.78h-1.54l-3.45-6.88v6.88h-1.17v-8.78h1.54l3.44,6.89v-6.89h1.18ZM200.97,180.25h0c.42-.42.89-.74,1.43-.97.53-.21,1.09-.33,1.68-.33.67,0,1.3.15,1.89.44v1.36c-.56-.41-1.19-.62-1.89-.62-.59,0-1.13.15-1.62.44-.48.29-.88.67-1.17,1.16-.29.49-.44,1.03-.44,1.61s.15,1.14.44,1.63c.29.48.68.87,1.17,1.16.49.29,1.03.44,1.62.44.71,0,1.34-.2,1.89-.62v1.36c-.59.29-1.23.42-1.89.42-.59,0-1.15-.11-1.68-.33-.54-.21-1.01-.54-1.43-.94-.41-.42-.73-.9-.95-1.44-.22-.53-.33-1.08-.33-1.68s.11-1.14.33-1.68c.22-.53.54-1,.95-1.41M214.96,182.76h0v-3.81h1.17v8.78h-1.17v-3.79h-3.66v3.79h-1.17v-8.78h1.17v3.81h3.66ZM225.4,186.57h0v1.16h-5.13v-8.78h5.11v1.18h-3.93v2.63h3.22v1.18h-3.22v2.63h3.95ZM236.87,187.73h0v-6.56l-2.53,6.56h-1.09l-2.53-6.56v6.56h-1.17v-8.78h1.58l2.67,6.94,2.68-6.94h1.57v8.78h-1.17ZM243.36,178.96h0v8.78h-1.17v-8.78h1.17ZM253.17,186.08h0c-.21.49-.55.89-1.04,1.19-.42.25-.89.41-1.42.46h-.29c-.45,0-.9-.08-1.34-.26-.45-.17-.9-.44-1.35-.79l-.15-.12-.07-.05.74-.91.08.07.14.11c.74.6,1.46.86,2.15.79.28-.01.55-.09.84-.25.28-.13.5-.37.63-.67l.02-.62-.35-.52c-.31-.19-.67-.34-1.08-.45l-.48-.17h-.04c-.28-.11-.58-.22-.89-.36-.3-.15-.58-.33-.84-.56-.25-.22-.45-.53-.59-.91-.12-.34-.14-.7-.06-1.07.07-.33.22-.63.44-.91.31-.4.71-.69,1.21-.87.49-.2,1.03-.26,1.59-.2,1,.13,1.7.6,2.1,1.4l-1.05.5c-.16-.29-.35-.48-.6-.58-.24-.11-.44-.16-.59-.16-.75-.07-1.33.15-1.75.62l-.21.41v.48c.12.29.33.52.63.67.29.17.63.32,1,.44h.02l.44.15c.23.07.46.16.71.25.24.09.48.22.7.37.39.28.66.66.8,1.15.13.48.11.94-.06,1.39M259.76,187.73h0v-7.6h-2.48v-1.18h6.15v1.18h-2.49v7.6h-1.17ZM272.84,181.88h0c0,.63-.17,1.19-.52,1.67-.34.49-.79.85-1.35,1.07l2.1,3.12h-1.4l-1.98-2.92h-.95v2.92h-1.16v-8.78h2.34c.54,0,1.03.15,1.47.4.44.26.79.62,1.06,1.07.26.44.4.93.4,1.45M268.74,183.65h1.18c.49,0,.9-.17,1.24-.52.33-.34.52-.77.52-1.26s-.19-.89-.52-1.23c-.34-.34-.75-.52-1.24-.52h-1.18v3.52ZM282.47,178.96h1.31l-2.68,5.26v3.52h-1.16v-3.52l-2.7-5.26h1.32l1.96,3.85,1.96-3.85Z"/>
<path fill="none" stroke="#3fa348" stroke-linecap="square" stroke-miterlimit="10" stroke-width=".71px" d="M6.82,178.96h1.25l-3.22,8.78h-1.11l-3.22-8.78h1.25l2.53,6.9,2.53-6.9ZM16.06,187.73h0l-.86-2.34h-3.33l-.86,2.34h-1.25l3.22-8.78h1.11l3.22,8.78h-1.25ZM12.28,184.23h2.49l-1.24-3.38-1.25,3.38ZM26.43,186.57h0v1.16h-4.97v-8.78h1.16v7.62h3.81ZM36.02,184.96h0c0,.52-.12.98-.38,1.4-.25.42-.58.75-1.01,1-.42.25-.88.37-1.39.37s-.98-.12-1.4-.37c-.42-.25-.76-.58-1.01-1-.25-.42-.38-.89-.38-1.4v-6h1.17v6c0,.45.16.82.47,1.14.32.32.7.48,1.14.48s.82-.16,1.14-.48c.31-.32.48-.69.48-1.14v-6h1.17v6ZM45.29,186.57h0v1.16h-5.12v-8.78h5.11v1.18h-3.95v2.63h3.22v1.18h-3.22v2.63h3.96ZM61.3,187.73h0v-7.6h-2.49v-1.18h6.15v1.18h-2.49v7.6h-1.17ZM73.94,182.76h0v-3.81h1.17v8.78h-1.17v-3.79h-3.66v3.79h-1.17v-8.78h1.17v3.81h3.66ZM84.53,181.88h0c0,.63-.17,1.19-.52,1.67-.34.49-.79.85-1.35,1.07l2.1,3.12h-1.41l-1.97-2.92h-.96v2.92h-1.17v-8.78h2.35c.54,0,1.03.15,1.47.4.44.26.8.62,1.06,1.07.26.44.4.93.4,1.45ZM80.42,183.65h1.18c.48,0,.9-.17,1.24-.52.34-.34.51-.77.51-1.26s-.17-.89-.51-1.23c-.34-.34-.76-.52-1.24-.52h-1.18v3.52ZM96.02,186.45h0c-.4.4-.85.71-1.36.94-.53.22-1.08.34-1.66.34s-1.13-.12-1.66-.34c-.51-.22-.96-.54-1.34-.94-.4-.42-.71-.9-.92-1.43-.21-.53-.31-1.08-.31-1.68s.1-1.14.31-1.67c.21-.53.52-1,.92-1.43.39-.4.84-.71,1.34-.94.54-.24,1.09-.36,1.66-.36s1.13.12,1.66.36c.51.22.96.54,1.36.94.39.42.7.9.91,1.43.21.53.31,1.08.31,1.67s-.11,1.15-.31,1.68c-.21.53-.52,1-.91,1.43ZM93.01,186.57h0c.57,0,1.08-.15,1.55-.44.46-.29.84-.69,1.11-1.16.28-.49.42-1.03.42-1.63s-.14-1.12-.42-1.61c-.28-.49-.65-.87-1.11-1.16-.47-.29-.98-.44-1.55-.44s-1.08.15-1.55.44c-.46.29-.83.67-1.11,1.16-.28.49-.42,1.03-.42,1.61s.14,1.14.42,1.63c.28.48.65.87,1.11,1.16.47.29.99.44,1.55.44ZM106.96,184.96h0c0,.52-.12.98-.38,1.4-.25.42-.58.75-1,1-.42.25-.88.37-1.4.37s-.97-.12-1.39-.37c-.42-.25-.75-.58-1.01-1-.25-.42-.38-.89-.38-1.4v-6h1.17v6c0,.45.16.82.48,1.14.31.32.7.48,1.13.48s.83-.16,1.14-.48c.32-.32.48-.69.48-1.14v-6h1.17v6ZM117.55,187.25h0c-.64.33-1.32.49-2.05.49-.58,0-1.14-.11-1.68-.33-.53-.21-1.01-.54-1.43-.94-.42-.42-.74-.9-.96-1.44-.22-.53-.33-1.08-.33-1.68s.11-1.14.33-1.68c.22-.53.54-1,.96-1.41.42-.42.89-.74,1.43-.97.54-.21,1.09-.33,1.68-.33.73,0,1.41.17,2.05.5v1.4c-.28-.22-.6-.41-.94-.53-.35-.13-.72-.2-1.11-.2-.59,0-1.13.15-1.62.44-.48.29-.88.67-1.17,1.16-.29.49-.44,1.03-.44,1.61s.15,1.14.44,1.63c.29.48.68.87,1.17,1.16.49.29,1.03.44,1.62.44.3,0,.6-.04.88-.12v-2.51h-1.91v-1.18h3.08v4.48ZM126.53,182.76h0v-3.81h1.17v8.78h-1.17v-3.79h-3.66v3.79h-1.17v-8.78h1.17v3.81h3.66ZM147.66,187.25h0c-.64.33-1.32.49-2.05.49-.59,0-1.15-.11-1.68-.33-.53-.21-1.01-.54-1.43-.94-.41-.42-.73-.9-.95-1.44-.22-.53-.33-1.08-.33-1.68s.11-1.14.33-1.68c.22-.53.54-1,.95-1.41.42-.42.89-.74,1.43-.97.53-.21,1.09-.33,1.68-.33.72,0,1.41.17,2.05.5v1.4c-.27-.22-.59-.41-.94-.53-.35-.13-.72-.2-1.11-.2-.59,0-1.13.15-1.62.44-.49.29-.88.67-1.17,1.16-.29.49-.44,1.03-.44,1.61s.15,1.14.44,1.63c.29.48.68.87,1.17,1.16.49.29,1.03.44,1.62.44.31,0,.6-.04.88-.12v-2.51h-1.9v-1.18h3.07v4.48ZM157.08,181.88h0c0,.63-.17,1.19-.52,1.67-.34.49-.79.85-1.35,1.07l2.11,3.12h-1.41l-1.97-2.92h-.96v2.92h-1.17v-8.78h2.35c.54,0,1.02.15,1.47.4.44.26.8.62,1.07,1.07.26.44.4.93.4,1.45ZM152.98,183.65h1.18c.48,0,.89-.17,1.23-.52.34-.34.52-.77.52-1.26s-.17-.89-.52-1.23c-.34-.34-.76-.52-1.23-.52h-1.18v3.52ZM166.59,186.57h0v1.16h-5.12v-8.78h5.11v1.18h-3.95v2.63h3.23v1.18h-3.23v2.63h3.96ZM175.86,186.57h0v1.16h-5.12v-8.78h5.11v1.18h-3.94v2.63h3.22v1.18h-3.22v2.63h3.95ZM186.17,178.96h0v8.78h-1.54l-3.45-6.88v6.88h-1.17v-8.78h1.54l3.44,6.89v-6.89h1.18ZM200.97,180.25h0c.42-.42.89-.74,1.43-.97.53-.21,1.09-.33,1.68-.33.67,0,1.3.15,1.89.44v1.36c-.56-.41-1.19-.62-1.89-.62-.59,0-1.13.15-1.62.44-.48.29-.88.67-1.17,1.16-.29.49-.44,1.03-.44,1.61s.15,1.14.44,1.63c.29.48.68.87,1.17,1.16.49.29,1.03.44,1.62.44.71,0,1.34-.2,1.89-.62v1.36c-.59.29-1.23.42-1.89.42-.59,0-1.15-.11-1.68-.33-.54-.21-1.01-.54-1.43-.94-.41-.42-.73-.9-.95-1.44-.22-.53-.33-1.08-.33-1.68s.11-1.14.33-1.68c.22-.53.54-1,.95-1.41ZM214.96,182.76h0v-3.81h1.17v8.78h-1.17v-3.79h-3.66v3.79h-1.17v-8.78h1.17v3.81h3.66ZM225.4,186.57h0v1.16h-5.13v-8.78h5.11v1.18h-3.93v2.63h3.22v1.18h-3.22v2.63h3.95ZM236.87,187.73h0v-6.56l-2.53,6.56h-1.09l-2.53-6.56v6.56h-1.17v-8.78h1.58l2.67,6.94,2.68-6.94h1.57v8.78h-1.17ZM243.36,178.96h0v8.78h-1.17v-8.78h1.17ZM253.17,186.08h0c-.21.49-.55.89-1.04,1.19-.42.25-.89.41-1.42.46h-.29c-.45,0-.9-.08-1.34-.26-.45-.17-.9-.44-1.35-.79l-.15-.12-.07-.05.74-.91.08.07.14.11c.74.6,1.46.86,2.15.79.28-.01.55-.09.84-.25.28-.13.5-.37.63-.67l.02-.62-.35-.52c-.31-.19-.67-.34-1.08-.45l-.48-.17h-.04c-.28-.11-.58-.22-.89-.36-.3-.15-.58-.33-.84-.56-.25-.22-.45-.53-.59-.91-.12-.34-.14-.7-.06-1.07.07-.33.22-.63.44-.91.31-.4.71-.69,1.21-.87.49-.2,1.03-.26,1.59-.2,1,.13,1.7.6,2.1,1.4l-1.05.5c-.16-.29-.35-.48-.6-.58-.24-.11-.44-.16-.59-.16-.75-.07-1.33.15-1.75.62l-.21.41v.48c.12.29.33.52.63.67.29.17.63.32,1,.44h.02l.44.15c.23.07.46.16.71.25.24.09.48.22.7.37.39.28.66.66.8,1.15.13.48.11.94-.06,1.39ZM259.76,187.73h0v-7.6h-2.48v-1.18h6.15v1.18h-2.49v7.6h-1.17ZM272.84,181.88h0c0,.63-.17,1.19-.52,1.67-.34.49-.79.85-1.35,1.07l2.1,3.12h-1.4l-1.98-2.92h-.95v2.92h-1.16v-8.78h2.34c.54,0,1.03.15,1.47.4.44.26.79.62,1.06,1.07.26.44.4.93.4,1.45ZM268.74,183.65h1.18c.49,0,.9-.17,1.24-.52.33-.34.52-.77.52-1.26s-.19-.89-.52-1.23c-.34-.34-.75-.52-1.24-.52h-1.18v3.52ZM282.47,178.96h1.31l-2.68,5.26v3.52h-1.16v-3.52l-2.7-5.26h1.32l1.96,3.85,1.96-3.85Z"/>
<rect fill="#247aba" stroke-width="0px" x=".51" y="171.29" width="283.27" height=".51"/>
<path fill="#646566" stroke-width="0px" d="M279.14,19.79v-9.49h4.21c.85,0,1.49.09,1.93.26s.79.47,1.05.9c.26.43.39.91.39,1.43,0,.67-.22,1.24-.65,1.7-.44.46-1.11.76-2.02.88.33.16.58.32.76.47.37.34.71.76,1.04,1.26l1.65,2.58h-1.58l-1.26-1.97c-.37-.57-.67-1.01-.91-1.31s-.45-.51-.64-.63c-.19-.12-.38-.21-.57-.25-.14-.03-.37-.05-.7-.05h-1.46v4.21h-1.25ZM280.39,14.49h2.7c.57,0,1.02-.06,1.34-.18.32-.12.57-.31.74-.57s.25-.55.25-.85c0-.45-.16-.82-.49-1.11-.33-.29-.84-.43-1.54-.43h-3v3.14Z"/>
<path fill="#646566" stroke-width="0px" d="M282.75,25.11c-5.43,0-9.85-4.42-9.85-9.85s4.42-9.85,9.85-9.85,9.85,4.42,9.85,9.85-4.42,9.85-9.85,9.85ZM282.75,6.7c-4.72,0-8.56,3.84-8.56,8.56s3.84,8.56,8.56,8.56,8.56-3.84,8.56-8.56-3.84-8.56-8.56-8.56Z"/>

</svg>