<?xml version="1.0" encoding="UTF-8" standalone="yes"?>
<svg version="1.2" baseProfile="tiny-ps" viewBox="0 0 1080 1080" xml:space="preserve" xmlns="http://www.w3.org/2000/svg">
  <title>bimi-svg-tiny-12-ps</title>
  <rect fill="#FFFFFF" width="1080" height="1080"/>
  <path fill="#48ADDF" d="M792.2,715.45c-89.38,152.86-214.37,200.68-253.14,212.27c-0.02,0-0.05-0.02-0.07-0.02V170.3l330.26,167.52&#xD;&#xA;&#x9;C874.85,404.27,877.73,569.24,792.2,715.45z"/>
  <path fill="#229BD9" d="M539.01,169.58C429.01,225.25,319.02,280.92,209.02,336.6c-6.53,56.66-8.58,140.67,17.6,236.54&#xD;&#xA;&#x9;c10.77,39.42,32.72,116.84,94.24,196.45c43.74,56.6,88.07,89.2,101.27,98.59c44.85,31.92,87.44,50.12,118.23,60.67&#xD;&#xA;&#x9;C539.91,675.75,539.46,422.66,539.01,169.58z"/>
  <path fill="#1F7099" d="M920.27,296.58L539.58,103.47L158.9,296.58c0,0-39.08,234.96,80.82,439.95&#xD;&#xA;&#x9;c119.88,205,299.86,240.86,299.86,240.86s179.99-35.86,299.87-240.86C959.35,531.54,920.27,296.58,920.27,296.58z M818.07,722.87&#xD;&#xA;&#x9;c-102.15,174.69-249.9,220.49-278.46,227.9c-12.78-3.34-49.35-14.32-94.52-40.65c-51.55-30.05-125.31-86.94-183.97-187.25&#xD;&#xA;&#x9;c-98.66-168.68-84.95-361.6-79.34-411.27l357.8-181.51L897.41,311.6C903.01,361.24,916.73,554.18,818.07,722.87z"/>
  <path fill="#3598B7" d="M672.17,397.56c0-70.37-57.05-127.43-127.43-127.45c-1.99,0-3.99,0.05-6,0.14&#xD;&#xA;&#x9;c-64.72,2.95-117.52,55.04-121.27,119.73c-3.4,58.63,32.89,109.34,84.47,127.71v279.85c0,10.15,7.66,19.03,17.79,19.69&#xD;&#xA;&#x9;c11.1,0.74,20.35-8.06,20.35-19.04v-6.62l4.66-3.6l39.53-30.53c2.39-1.85,3.79-4.69,3.79-7.71v-2.14c0-3.49-2.83-6.32-6.32-6.32&#xD;&#xA;&#x9;h-8.87c-12.22,0-22.84-9.25-23.64-21.46c-0.45-6.97,2.18-13.28,6.69-17.79c4.17-4.17,9.91-6.73,16.26-6.73h8.38&#xD;&#xA;&#x9;c4.14,0,7.5-3.36,7.5-7.5v-10.95c0-4.14-3.36-7.5-7.5-7.5h-7.65c-12.14,0-22.73-9.1-23.66-21.2c-0.54-7.03,2.1-13.51,6.66-18.04&#xD;&#xA;&#x9;c4.17-4.17,9.91-6.74,16.26-6.74h8.31c4.17,0,7.57-3.38,7.57-7.57v-11.35c0-4.18-3.39-7.57-7.57-7.57h-7.27&#xD;&#xA;&#x9;c-12.32,0-23.08-9.26-23.98-21.55c-0.52-7.1,2.17-13.61,6.76-18.21c4.21-4.19,10.03-6.8,16.47-6.8h6.28c5.14,0,9.3-4.17,9.3-9.3&#xD;&#xA;&#x9;v-21.35c0-0.72-0.09-1.44-0.25-2.12C636.99,499.86,672.17,452.81,672.17,397.56z M544.74,389.94h-0.02&#xD;&#xA;&#x9;c-19.39,0-35.09-15.72-35.09-35.11c0-19.37,15.7-35.09,35.09-35.09h0.02c19.39,0.01,35.1,15.73,35.1,35.09&#xD;&#xA;&#x9;C579.84,374.21,564.13,389.93,544.74,389.94z"/>
  <path fill="#2D7DA5" d="M305.02,624.58V494.52c27.05-3.07,48.09-26.04,48.09-53.93c0-30.01-24.3-54.31-54.29-54.31&#xD;&#xA;&#x9;c-29.98,0-54.31,24.3-54.31,54.31c0,26.6,19.17,48.74,44.44,53.36v138.01l67.78,67.42V807.5c5.36,5.67,10.72,11.08,16.06,16.22&#xD;&#xA;&#x9;V692.58L305.02,624.58z M260.72,440.59c0-21.06,17.07-38.11,38.11-38.11s38.09,17.05,38.09,38.11c0,21.04-17.05,38.09-38.09,38.09&#xD;&#xA;&#x9;S260.72,461.63,260.72,440.59z"/>
  <path fill="#419FC4" d="M781.18,384.48c-29.98,0-54.29,24.3-54.29,54.31c0,27.88,21.04,50.86,48.09,53.93v130.06l-67.77,68v130.56&#xD;&#xA;&#x9;c5.36-5.2,10.72-10.65,16.06-16.35v-107.4l67.78-67.42V492.15c25.27-4.62,44.44-26.76,44.44-53.36&#xD;&#xA;&#x9;C835.48,408.78,811.16,384.48,781.18,384.48z M781.18,476.88c-21.04,0-38.09-17.05-38.09-38.09c0-21.06,17.05-38.11,38.09-38.11&#xD;&#xA;&#x9;c21.04,0,38.11,17.05,38.11,38.11C819.29,459.82,802.21,476.88,781.18,476.88z"/>
  <path fill="#2D7DA5" d="M458.89,582.72c0-29.87-24.49-54.06-54.71-54.06c-30.23,0-54.74,24.2-54.74,54.06&#xD;&#xA;&#x9;c0,28.67,22.64,52.15,51.22,53.95l40.77,42.1v199.8c5.54,3.63,10.92,6.96,16.06,10V670.64l-36.78-36.38&#xD;&#xA;&#x9;C442.85,627.35,458.89,606.87,458.89,582.72z M365.97,582.72c0-20.83,17.09-37.73,38.2-37.73c21.09,0,38.2,16.9,38.2,37.73&#xD;&#xA;&#x9;c0,20.84-17.12,37.73-38.2,37.73C383.07,620.45,365.97,603.56,365.97,582.72z"/>
  <path fill="#419FC4" d="M675.58,528.21c-30.23,0-54.71,24.2-54.71,54.06c0,24.15,16.04,44.62,38.18,51.54l-36.78,36.38v217.64&#xD;&#xA;&#x9;c5.25-3.11,10.59-6.42,16.06-10v-199.5l40.77-42.1c28.58-1.8,51.22-25.27,51.22-53.95C730.31,552.41,705.81,528.21,675.58,528.21z&#xD;&#xA;&#x9; M675.58,620c-21.09,0-38.2-16.89-38.2-37.73c0-20.83,17.12-37.73,38.2-37.73c21.1,0,38.2,16.9,38.2,37.73&#xD;&#xA;&#x9;C713.78,603.11,696.68,620,675.58,620z"/>
  <path fill="#2D7DA5" d="M539.22,270.46c0,16.55,0,33.1,0,49.65c-2.83,0.5-13.97,2.79-22.12,13.09c-2.23,2.82-7.65,10.55-7.67,21.67&#xD;&#xA;&#x9;c-0.03,13.61,8.05,22.43,9.93,24.38c7.63,7.9,16.68,9.85,19.86,10.38c-2.44,133.98-2.14,267.9,0.9,401.75&#xD;&#xA;&#x9;c0.07,3.22,0.15,6.48,0.23,9.71c-0.33,1.76-1.5,6.67-5.87,10.83c-1.57,1.49-5.8,5.03-12.19,5.42c-9.4,0.57-15.32-6.2-15.8-6.77&#xD;&#xA;&#x9;c-3.98-4.71-4.44-9.97-4.51-11.74c0-93.74,0-187.48,0-281.23c-11.19-4.06-32.21-13.38-51.01-33.86&#xD;&#xA;&#x9;c-29.55-32.18-32.84-69.25-33.4-78.54c-0.6-9.85-1.62-45.37,22.12-79.9c17.78-25.86,40.5-38.16,50.56-42.88&#xD;&#xA;&#x9;C510.17,273.05,528.27,270.91,539.22,270.46z"/>
</svg>