<svg xmlns="http://www.w3.org/2000/svg" xmlns:xlink="http://www.w3.org/1999/xlink" version="1.2" viewBox="0 0 96 96" baseProfile="tiny-ps">
  <title>BIMI_logo_green</title>
  <rect width="96" height="96" fill="#006252"/>
  <path d="M48,63.1l3.1-3.9v-7.6h6.1l4.3-5.3h-27l4.3,5.3h6.1v7.6L48,63.1C48,63.1,48,63.1,48,63.1z M25.6,27.2  c3.3,3.6,15.5,16.9,15.5,16.9h13.8c0,0,12.2-13.3,15.5-16.9c3.3-3.6,6-4.7,6-4.7H62.2c0,0,2,1.6-0.8,4.7  C60.3,28.4,48.1,41.7,48,41.7c0,0-12.3-13.4-13.4-14.5c-2.8-3.1-0.8-4.7-0.8-4.7H19.6C19.6,22.5,22.4,23.6,25.6,27.2  C25.6,27.2,25.6,27.2,25.6,27.2z M72.6,32.1c0,0,1.6,1.6,0,3.6c-2.3,3-24.7,30.8-24.7,30.8S25.6,38.6,23.3,35.7c-1.6-2,0-3.6,0-3.6  H9c0,0,2.2,1,3.4,2.7c1.3,1.6,25.8,32.4,25.8,32.4s2.9,2.9,0.4,4.8h18.6c-2.5-2,0.4-4.8,0.4-4.8s24.5-30.8,25.7-32.4  c1.3-1.6,3.4-2.7,3.4-2.7H72.4L72.6,32.1z M73.4,70.3c-1.4-1.6-8.1-9.2-8.1-9.2L61,66.5c0,0,2.4,2.8,3.3,4.1  c1.2,1.6-0.8,2.9-0.8,2.9h14.4C77.9,73.5,75.7,72.9,73.4,70.3L73.4,70.3z M35,66.4L30.7,61c0,0-6.7,7.6-8.1,9.2  c-2.3,2.6-4.5,3.2-4.5,3.2h14.5c0,0-2-1.3-0.8-2.9c0.9-1.3,3.3-4.1,3.3-4.1l0,0L35,66.4z" fill="#FFFFFF"/>
</svg>
