<?xml version="1.0" encoding="UTF-8" standalone="yes"?>
<svg version="1.2" width="250px" height="250px" fill-rule="evenodd" baseProfile="tiny-ps" xmlns="http://www.w3.org/2000/svg">
  <title>SOL Networks Limited</title>
  <g>
    <path fill="#214780" d="M -0.5,-0.5 C 82.8333,-0.5 166.167,-0.5 249.5,-0.5C 249.5,82.8333 249.5,166.167 249.5,249.5C 166.167,249.5 82.8333,249.5 -0.5,249.5C -0.5,166.167 -0.5,82.8333 -0.5,-0.5 Z"/>
  </g>
  <g>
    <path fill="#e7eaee" d="M 207.5,64.5 C 205.93,66.1324 203.597,67.4658 200.5,68.5C 185.29,75.28 171.957,84.78 160.5,97C 163.833,97.6667 167.167,97.6667 170.5,97C 179.501,86.6793 189.501,77.5127 200.5,69.5C 204.284,67.684 208.284,66.684 212.5,66.5C 213.239,66.369 213.906,66.5357 214.5,67C 206.948,68.5496 200.281,71.8829 194.5,77C 188.753,83.0733 183.919,89.5733 180,96.5C 193.508,93.3292 206.008,87.8292 217.5,80C 227.116,70.1273 225.116,64.9607 211.5,64.5C 210.833,64.5 210.5,64.1667 210.5,63.5C 214.967,63.1326 219.3,63.6326 223.5,65C 225.907,68.6195 226.073,72.4528 224,76.5C 217.453,83.5299 209.619,88.6965 200.5,92C 192.687,94.9534 184.687,97.2867 176.5,99C 167.876,109.96 158.876,120.626 149.5,131C 142.848,136.327 135.848,141.16 128.5,145.5C 140.205,147.072 150.039,143.405 158,134.5C 155.978,139.189 152.478,142.689 147.5,145C 143.91,146.53 140.243,147.864 136.5,149C 128.833,149.667 121.167,149.667 113.5,149C 112.167,148 112.167,147 113.5,146C 121.714,147.081 128.714,144.748 134.5,139C 146.81,127.197 157.81,114.364 167.5,100.5C 166.667,100.167 165.833,99.8333 165,99.5C 161.849,100.093 158.682,100.593 155.5,101C 149.314,106.687 142.981,112.187 136.5,117.5C 139.246,119.473 142.246,120.973 145.5,122C 146.711,122.893 146.711,123.726 145.5,124.5C 141.284,122.59 136.95,121.423 132.5,121C 112.19,139.321 88.5237,150.988 61.5,156C 53.8406,156.5 46.1739,156.666 38.5,156.5C 38.9961,169.166 45.3294,177.333 57.5,181C 76.0381,185.308 93.7048,182.974 110.5,174C 117.316,170.163 120.149,164.33 119,156.5C 122.179,160.694 122.179,165.028 119,169.5C 111.64,176.764 102.807,181.264 92.5,183C 81.8841,184.541 71.2174,184.875 60.5,184C 54.3366,182.284 48.6699,179.618 43.5,176C 38.1816,170.205 36.1816,163.371 37.5,155.5C 18.274,152.447 10.774,141.447 15,122.5C 24.7147,104.802 39.548,93.9686 59.5,90C 68.4536,88.5261 77.4536,88.1927 86.5,89C 94.5127,90.2561 101.346,93.7561 107,99.5C 108.772,104.435 108.938,109.435 107.5,114.5C 115.15,115.624 122.817,116.124 130.5,116C 136.792,111.377 142.792,106.377 148.5,101C 140.355,99.9762 132.355,98.3096 124.5,96C 111.93,87.2777 111.263,77.6111 122.5,67C 130.337,62.4318 138.67,61.0985 147.5,63C 150.562,64.0608 153.062,65.8941 155,68.5C 155.781,69.9437 155.614,71.277 154.5,72.5C 150.069,64.7365 143.403,61.9031 134.5,64C 123.672,66.8037 118.172,73.6371 118,84.5C 120.562,90.0611 124.728,93.8945 130.5,96C 137.685,98.2752 145.018,98.9418 152.5,98C 165.522,85.6545 180.189,75.6545 196.5,68C 200.021,66.3262 203.687,65.1596 207.5,64.5 Z"/>
  </g>
  <g>
    <path fill="#23467e" d="M 105.5,117.5 C 112.606,117.174 119.606,117.841 126.5,119.5C 105.171,139.831 79.8379,151.497 50.5,154.5C 39.918,156.31 37.418,152.977 43,144.5C 44.7932,141.705 46.9598,139.205 49.5,137C 67.8387,139.866 84.5054,135.866 99.5,125C 102.094,122.914 104.094,120.414 105.5,117.5 Z"/>
  </g>
  <g>
    <path fill="#22447c" d="M 95.5,118.5 C 97.7354,118.205 99.7354,118.539 101.5,119.5C 93.0909,128.033 82.7576,132.867 70.5,134C 65.5,134.667 60.5,134.667 55.5,134C 54.5419,132.853 54.8753,131.853 56.5,131C 68.5325,123.711 81.5325,119.544 95.5,118.5 Z"/>
  </g>
  <g>
    <path fill="#495a79" d="M 95.5,118.5 C 97.6934,117.203 100.027,117.203 102.5,118.5C 102.376,119.107 102.043,119.44 101.5,119.5C 99.7354,118.539 97.7354,118.205 95.5,118.5 Z"/>
  </g>
  <g>
    <path fill="#21467f" d="M 62.5,93.5 C 71.1731,93.3336 79.8397,93.5002 88.5,94C 92.8938,95.1312 97.2272,96.4646 101.5,98C 106.447,102.54 107.78,108.04 105.5,114.5C 95.5387,114.859 85.872,116.692 76.5,120C 67.2904,123.523 58.4571,127.69 50,132.5C 42.979,130.785 40.3123,126.451 42,119.5C 38.7994,123.088 38.7994,126.755 42,130.5C 43.6837,132.351 45.5171,134.018 47.5,135.5C 43.736,140.442 40.5694,145.775 38,151.5C 23.6603,152.385 16.1603,145.552 15.5,131C 16.9847,119.041 22.9847,110.041 33.5,104C 42.6079,98.5785 52.2745,95.0785 62.5,93.5 Z"/>
  </g>
  <g>
    <path fill="#203f78" d="M 200.5,68.5 C 200.5,68.8333 200.5,69.1667 200.5,69.5C 189.501,77.5127 179.501,86.6793 170.5,97C 167.167,97.6667 163.833,97.6667 160.5,97C 171.957,84.78 185.29,75.28 200.5,68.5 Z"/>
  </g>
  <g>
    <path fill="#21447d" d="M 211.5,64.5 C 225.116,64.9607 227.116,70.1273 217.5,80C 206.008,87.8292 193.508,93.3292 180,96.5C 183.919,89.5733 188.753,83.0733 194.5,77C 200.281,71.8829 206.948,68.5496 214.5,67C 213.906,66.5357 213.239,66.369 212.5,66.5C 212.167,65.8333 211.833,65.1667 211.5,64.5 Z"/>
  </g>
  <g>
    <path fill="#808fa0" d="M 207.5,64.5 C 208.209,63.596 209.209,63.2627 210.5,63.5C 210.5,64.1667 210.833,64.5 211.5,64.5C 211.833,65.1667 212.167,65.8333 212.5,66.5C 208.284,66.684 204.284,67.684 200.5,69.5C 200.5,69.1667 200.5,68.8333 200.5,68.5C 203.597,67.4658 205.93,66.1324 207.5,64.5 Z"/>
  </g>
</svg>