<svg version="1.2" baseProfile="tiny-ps" id="Layer_1" xmlns="http://www.w3.org/2000/svg" xmlns:xlink="http://www.w3.org/1999/xlink"
	 viewBox="0 0 1080 1080" xml:space="preserve">
    <title>Jeeves</title>
<rect fill="#020202" width="1080" height="1080"/>
<g>
	<g>
		<g>
			<g>
				<g>
					<path fill="#CAAD62" d="M461.7,553.5H540h78.3L594,380.7c56.7-5.4,113.4-10.8,167.4-16.2C723.6,324,685.8,283.5,648,243
						l-108,91.8L429.3,243c-37.8,40.5-75.6,81-113.4,121.5c56.7,5.4,113.4,10.8,167.4,16.2L461.7,553.5z"/>
				</g>
			</g>
			<g>
				<g>
					<polygon fill="#CAAD62" points="421.2,442.8 299.7,383.4 248.4,434.7 421.2,577.8 					"/>
				</g>
			</g>
			<g>
				<g>
					<path fill="#CAAD62" d="M521.1,661.5l-91.8-78.3l-62.1,62.1c16.2,29.7,37.8,67.5,54,97.2c35.1-13.5,64.8-37.8,99.9-54V661.5z"
						/>
				</g>
			</g>
			<g>
				<g>
					<path fill="#CAAD62" d="M437.4,774.9c5.4,16.2,8.1,32.4,13.5,48.6l21.6,13.5H540h67.5l21.6-13.5c5.4-16.2,8.1-32.4,13.5-48.6
						c-35.1-8.1-67.5-16.2-102.6-24.3C504.9,758.7,472.5,766.8,437.4,774.9z"/>
				</g>
			</g>
			<g>
				<g>
					<polygon fill="#CAAD62" points="658.8,577.8 831.6,434.7 780.3,383.4 658.8,442.8 					"/>
				</g>
			</g>
			<g>
				<g>
					<path fill="#CAAD62" d="M558.9,661.5v27c35.1,13.5,64.8,37.8,99.9,54c16.2-29.7,37.8-67.5,54-97.2l-62.1-62.1L558.9,661.5z"/>
				</g>
			</g>
		</g>
	</g>
</g>
</svg>
