<?xml version="1.0" encoding="utf-8"?>
<svg version="1.2" id="Capa_1" xmlns="http://www.w3.org/2000/svg" xmlns:xlink="http://www.w3.org/1999/xlink" viewBox="0 0 792 792" baseProfile="tiny-ps" xml:space="preserve">
	 <title>ENI Networks</title>
<path fill="#7EB751" d="M744.7,282.1c3.5,0,6.9,0.9,10.3,2.7c3.4,1.8,5.9,4.4,7.8,7.7c1.9,3.3,2.8,6.8,2.8,10.5s-0.9,7-2.7,10.4
	c-1.8,3.3-4.4,5.9-7.7,7.7c-3.3,1.8-6.8,2.7-10.4,2.7s-7.1-0.9-10.4-2.7c-3.3-1.8-5.9-4.4-7.7-7.7s-2.8-6.8-2.8-10.4
	s0.9-7.1,2.8-10.5c1.9-3.3,4.5-5.9,7.8-7.7C737.8,283,741.2,282.1,744.7,282.1L744.7,282.1z M744.7,285.5c-2.9,0-5.8,0.8-8.6,2.3
	s-4.9,3.6-6.5,6.4s-2.3,5.7-2.3,8.7s0.8,5.9,2.3,8.6c1.5,2.8,3.7,4.9,6.5,6.4s5.6,2.3,8.6,2.3s5.9-0.8,8.6-2.3
	c2.8-1.5,4.9-3.7,6.4-6.4c1.5-2.8,2.3-5.6,2.3-8.6s-0.8-5.9-2.3-8.7c-1.6-2.8-3.7-4.9-6.5-6.4S747.7,285.5,744.7,285.5z
	 M735.6,314.4V292h7.7c2.6,0,4.5,0.2,5.7,0.6s2.1,1.1,2.8,2.2c0.7,1,1,2.1,1,3.3s-0.6,3.1-1.8,4.3c-1.2,1.2-2.7,1.9-4.7,2
	c0.8,0.3,1.4,0.7,1.9,1.2c0.9,0.9,2,2.4,3.3,4.4l2.7,4.4H750l-2-3.5c-1.6-2.8-2.8-4.5-3.8-5.2c-0.7-0.5-1.6-0.8-2.9-0.8h-2.1v9.5
	H735.6L735.6,314.4z M739.2,301.8h4.4c2.1,0,3.5-0.3,4.3-0.9s1.1-1.5,1.1-2.5s-0.2-1.3-0.6-1.8c-0.4-0.5-0.9-0.9-1.5-1.2
	c-0.6-0.3-1.9-0.4-3.6-0.4h-4.1L739.2,301.8L739.2,301.8L739.2,301.8z"/>
<path fill="#7EB751" d="M395.1,387.2c-22,0-43.9,0.1-65.8-0.1c-4,0-4.4,1-2.8,4.2c7.4,15.4,19.7,25.1,36.5,29.5
	c18.3,4.8,34.4-0.2,48.8-11.3c2.4-1.9,3.7-2,5.8,0.2c6.6,6.7,13.4,13.2,20.3,19.7c2,1.8,2.2,2.9,0,4.8c-40.7,37-108.1,29-138.1-16.6
	c-11.2-17-16.6-35.6-14.7-55.7c3.9-40.4,37.2-75.3,81.5-79.6c50.6-4.9,90.9,29.4,99.1,71.7c1.9,9.9,1.6,19.9,0.3,29.8
	c-0.4,2.9-1.9,3.4-4.6,3.4C439.3,387.2,417.2,387.2,395.1,387.2 M375.8,352.2c15.8,0,31.7-0.1,47.5,0.1c3.4,0,3.9-0.8,2.5-3.7
	c-7.3-14.9-18.7-25.1-35.4-29.6c-31.2-8.6-56.1,11-64.2,29.5c-1.5,3.4-0.4,3.8,2.9,3.8C344.7,352.1,360.2,352.3,375.8,352.2"/>
<path fill="#7EB751" d="M519,297.2c11.1-6.9,22.1-11.7,34.1-13.5c22.7-3.6,45.2-2.7,65.8,8.2c26.7,14.1,40.2,37.2,44.8,65.5
	c0.7,4.5,0.8,9.1,0.8,13.6c0,27.5,0,55,0,82.5c0,3.4-1,4.2-4.4,4.1c-9.3-0.2-18.6-0.2-27.9,0c-3.6,0.1-4.3-1-4.3-4.3
	c0-27.8,0.1-45.2,0-73.3c0-13.4-0.7-21.5-2.4-27c-6.6-21.8-23.7-34.9-47.5-36.1c-21-1-39.3,4.1-51,22.7c-6,9.6-8.4,20-8.4,31.2
	c0,26.9,0,53.8,0,80.7c0,5.2-1,5.8-6.1,5.8c-8.5,0.1-17.1-0.2-25.6,0.1c-3.9,0.1-4.8-1-4.7-4.6c0.1-55.6,0.1-167.2,0.1-167.6
	c0-3,0.6-3.6,3.5-3.6c9.7,0.1,19.5,0.1,29.2,0c2.8,0,3.8,0.8,3.7,3.5c0,3.7,0.1,7.4,0.1,12.1"/>
<path fill="#7EB751" d="M716.1,370.2c0,27.6,0,55.3,0,82.9c0,3.4-0.9,4.5-4.5,4.4c-9-0.3-18-0.3-27,0c-3.7,0.1-4.8-0.7-4.8-4.5
	c0.2-33.2,0-144.4,0-166.8c0-3.4,0.8-4.5,4.5-4.4c9,0.3,18,0.3,27,0c3.7-0.1,4.8,0.8,4.8,4.6C715.9,314.3,716.1,342.3,716.1,370.2"
	/>
<polygon fill="#539E55" points="334.9,475.2 340.7,475.2 351.2,493 351.2,475.2 356.4,475.2 356.4,500.8 350.8,500.8 340,482.6 
	340,500.8 334.9,500.8 "/>
<polygon fill="#539E55" points="405,479.7 390.9,479.7 390.9,485.1 403.8,485.1 403.8,489.6 390.9,489.6 390.9,496.2 405.6,496.2 
	405.6,500.8 385.5,500.8 385.5,475.2 405,475.2 "/>
<polygon fill="#539E55" points="455.6,475.2 455.6,479.7 447.7,479.7 447.7,500.8 442.1,500.8 442.1,479.7 434.1,479.7 434.1,475.2 
	"/>
<polygon fill="#539E55" points="488.4,475.2 491.9,489.8 492.6,493.9 493.4,489.9 496.4,475.2 502.3,475.2 505.4,489.8 506.2,493.9 
	507,490 510.5,475.2 516.2,475.2 508.7,500.8 503.4,500.8 500.2,485.8 499.3,480.9 498.3,485.8 495.2,500.8 490,500.8 482.5,475.2 
	"/>
<path fill="#539E55" d="M562.6,498c-1.9,1.9-4.6,2.8-8.2,2.8s-6.3-0.9-8.3-2.8c-2.5-2.3-3.8-5.6-3.8-10s1.3-7.8,3.8-10
	c1.9-1.9,4.7-2.9,8.3-2.9s6.3,1,8.2,2.9c2.5,2.2,3.8,5.5,3.8,10C566.4,492.3,565.1,495.7,562.6,498 M559.3,494.3
	c1.2-1.5,1.8-3.6,1.8-6.3s-0.6-4.8-1.8-6.3s-2.9-2.2-4.9-2.2s-3.8,0.8-5,2.2c-1.2,1.5-1.9,3.6-1.9,6.3s0.6,4.8,1.9,6.3
	c1.2,1.4,2.9,2.2,5,2.2S558.2,495.8,559.3,494.3"/>
<path fill="#539E55" d="M610.7,475.8c1,0.4,1.8,1,2.5,1.8c0.5,0.6,1,1.4,1.3,2.1c0.3,0.8,0.5,1.7,0.5,2.7s-0.3,2.4-0.9,3.6
	c-0.6,1.2-1.7,2-3.1,2.5c1.2,0.5,2.1,1.2,2.6,2c0.5,0.9,0.8,2.2,0.8,4v1.7c0,1.1,0,1.9,0.2,2.3c0,0.7,0.5,1.2,1,1.4v0.7h-6.1
	c-0.2-0.6-0.3-1-0.4-1.4c0-0.7-0.2-1.5-0.2-2.2v-2.4c0-1.6-0.3-2.8-0.9-3.3c-0.6-0.6-1.6-0.8-3.2-0.8h-5.4v10H594v-25.6h12.7
	C608.4,475.2,609.8,475.4,610.7,475.8 M599.3,479.6v6.9h6c1.2,0,2-0.2,2.7-0.4c1.1-0.4,1.5-1.4,1.5-2.9s-0.5-2.6-1.5-3.1
	s-1.4-0.5-2.6-0.5H599.3L599.3,479.6z"/>
<polygon fill="#539E55" points="644.2,475.2 649.6,475.2 649.6,485.7 659.9,475.2 667.1,475.2 656.2,485.7 667.6,500.8 660.5,500.8 
	652.3,489.6 649.6,492.2 649.6,500.8 644.2,500.8 "/>
<path fill="#539E55" d="M700.5,492.7c0.2,1.1,0.5,1.9,1,2.5c0.8,1,2.4,1.5,4.5,1.5s2.2-0.1,3.1-0.4c1.5-0.5,2.2-1.5,2.2-2.8
	s-0.4-1.4-1.1-1.8c-0.7-0.4-1.9-0.8-3.5-1.1L704,490c-2.7-0.6-4.5-1.2-5.5-1.8c-1.7-1.1-2.6-2.9-2.6-5.3s0.9-4,2.5-5.4
	c1.7-1.4,4.1-2.2,7.3-2.2s5,0.7,6.9,2c1.9,1.4,2.9,3.3,3,5.9h-5.1c0-1.5-0.7-2.5-2-3.1c-0.8-0.4-1.9-0.6-3.1-0.6s-2.5,0.3-3.3,0.8
	s-1.2,1.3-1.2,2.2s0.4,1.5,1.2,1.9c0.5,0.3,1.7,0.6,3.3,1l4.4,1c1.9,0.4,3.4,1,4.3,1.8c1.5,1.2,2.3,2.8,2.3,4.9s-0.9,4.1-2.7,5.5
	c-1.7,1.5-4.3,2.2-7.5,2.2s-5.9-0.7-7.8-2.2c-1.9-1.5-2.8-3.4-2.8-5.9H700.5L700.5,492.7z"/>
<path fill="#006C2A" d="M277.2,403.5c9.5,24.1,24.8,42.5,48.8,55.1h-98.3c10.5-7.5,19.1-16.2,27.5-25.1
	C263.5,424.5,270.5,414.5,277.2,403.5"/>
<g>
	<path fill="#006C2A" d="M165.6,458.3c16.8-8,32.5-17.9,46.2-30c18.2-16.2,32.2-35,38.1-58.6c4.5-17.8,2-34.7-9.6-49.4
		c-5-6.4-12.4-10.4-20.1-13.5c-18.2-7.5-37.1-7.5-56.2-3.8c-25.3,4.8-47.4,16-67.3,31.5c-20.8,16.2-37.1,35.6-45.4,60.6
		c-2.3,6.7-4.1,13.8-3.9,20.6c0.4,9.7,2.6,19.5,8.6,27.9c0.5,0.7,1,1.5,1.5,2.2c3.7,5.3,5.9,5.2,9.7-0.2c0.7-1.1,0.4-1.5-0.2-2.2
		c-15.7-18.1-14.3-38-5.6-58.1c4-9.4,9.9-17.9,16.8-26c21.5-25.8,48.8-42.3,82-49.9c9.7-2.2,19.5-3,29.4-2.1
		c5.2,0.5,10.5,1.2,15.5,2.7c26.6,7.7,40,28.3,35.6,55.4c-1.9,11.4-6.6,21.7-13,31.6c-17.9,28-43.9,45.6-75.1,57.1
		c-0.7,0.2-1.3,0.4-2.5,0.8c0.8-10.5,6.1-76.4,7.9-99.3c0.1-1.1,0.8-3.2-1-3.3c-1.8-0.1-3.7,0.2-4.4,2.8c-0.9,6.5-8.3,94.6-8.5,99.5
		c-0.2,4.5-1.8,3.7-6.3,3.6c-2.7-0.2-2.3-2.2-2.2-3.8c1.8-19,8.2-84.7,9.5-99.3c-8.6,2.3-16.7,4.6-24.7,6.8
		c-1.1,0.3-1.6,0.9-1.6,1.8c-0.2,3.8-13.3,94.6-14.5,94.6H57.6c-0.9,0-1.5,0-2.4-1.1C36.9,434.2,37.7,410,49,385
		c4.5-10,10.2-19.4,17.6-27.8c7.5-8.5,15.5-16.5,24.4-23.9c21.7-18.1,46.3-30.2,74.1-36.3c12.4-2.8,25-3.9,37.8-2.3
		c7.5,1,15.2,2.2,22.4,5c26.3,10.2,39.8,31.9,36.8,59.6c-2.1,19.9-10.8,37.3-23.6,52.7c-6.6,8-13.6,15.7-21.8,22.4
		c-8.6,7.1-17.5,13.5-26.9,19.5c-1.6,1-3.1,1.9-4.7,2.5c-3.4,1.5-6.1,1.7-9.8,1.9 M159.8,444.4c6.7-3.1,12.8-5.8,18.4-9.3
		c12.7-8,24.5-17,33.7-28.8c10.5-13.4,18.2-27.7,19.5-45.2c1.5-20-10.2-35-24.4-41.2c-11.5-5.1-23.6-6.7-36.2-5.5
		c-28,2.6-52,14-72.9,31.9c-15.1,12.9-27.2,27.9-32.9,46.9c-4.6,15.4-4.1,30.3,6.9,43.5c0.8,1,1.6,3.5,3.7,1.2
		c1.3-1.5,3.8-2.3,1.3-5.2c-6.6-7.7-9.5-16.8-9.1-26.8c0.5-13.5,5.8-25.4,13.7-36.4c15.5-21.8,36.8-36.4,62.3-45.5
		c9.1-3.2,18.5-4.9,28.2-5.2c13.5-0.5,26.4,1.9,37.3,9.8c12.2,8.8,16.3,21.3,15,35.5c-1.7,18.1-11.2,32.6-23.3,45.7
		c-8.8,9.6-19.4,17.4-31,23.8c-1.3,0.7-2.7,1.9-4.2,1.3c-0.8-0.3-0.7-2.6-0.6-4c0.7-11.7,4.8-75.3,4.8-81.3
		c-3.7,0.1-4.6,2.4-4.8,5.7C164.5,363.7,159.9,433.5,159.8,444.4"/>
</g>
<path fill="#006C2A" d="M30.6,384.3V281.9h133.9C164.5,281.8,73.5,304,30.6,384.3z"/>
<path fill="#006C2A" d="M242.5,281.8h85.1c0,0-15.3,4.5-39.8,34.6C287.8,316.4,270.5,289.4,242.5,281.8L242.5,281.8z"/>
<circle fill="#7EB751" cx="698" cy="252.9" r="18.1"/>
<path fill="#7EB751" d="M716.1,453.1c0,3.4-0.9,4.5-4.5,4.4c-9.9,0.1-18-0.3-27,0"/>
<path fill="#7EB751" d="M711.6,457.5c-9.9,0.1-17.5,0.1-27,0"/>
<path fill="#7EB751" d="M716.1,453.1c0,3.4-0.6,4.4-4.5,4.4c-9-0.3-18-0.3-27,0"/>
<path fill="#7EB751" d="M664.5,453.5c0,3.4-1,4.2-4.4,4.1c-10.1,0-18.6-0.2-27.9,0"/>
<path fill="#7EB751" d="M660.1,457.6c-10.1,0-18,0-27.9,0"/>
<path fill="#7EB751" d="M684.3,281.8c9,0.3,17.6,0,27,0c3.7-0.1,4.8,0.8,4.8,4.6"/>
<path fill="#7EB751" d="M684.3,281.8c9.6,0.1,17.6,0,27,0"/>
</svg>
