<?xml version="1.0" encoding="utf-8"?>
<!-- Generator: Adobe Illustrator 27.1.0, SVG Export Plug-In . SVG Version: 6.00 Build 0)  -->
<svg version="1.2" baseProfile="tiny-ps" id="Layer_1" xmlns="http://www.w3.org/2000/svg" xmlns:xlink="http://www.w3.org/1999/xlink" viewBox="0 0 80 80" xml:space="preserve">
<title>Travelner, LLC</title>
<g>
	<path fill="#414242" d="M4.8,49c-0.1,0-0.3,0-0.4,0c-0.1,0-0.2-0.1-0.3-0.2c-0.1-0.1-0.2-0.2-0.2-0.3c-0.1-0.1-0.1-0.3-0.1-0.5v-4
		h2.2v-2.2H3.9v-2.4H3.1C3,40.3,2.7,41,2.2,41.6c-0.4,0.6-1,1-1.7,1.3v1h1.2v3.8c0,0.5,0,1,0.1,1.4c0.1,0.4,0.2,0.7,0.5,1
		s0.5,0.5,0.8,0.6S3.9,51,4.4,51c0.3,0,0.6,0,0.9-0.1s0.6-0.2,0.8-0.3v-1.9c-0.2,0.1-0.4,0.2-0.6,0.3C5.2,49,5,49,4.8,49L4.8,49z"/>
	<path fill="#414242" d="M13,42.1C13,42.1,12.9,42,13,42.1c-0.5-0.3-1-0.4-1.4-0.3c-0.5,0.1-0.9,0.3-1.2,0.7
		c-0.2,0.2-0.3,0.4-0.5,0.7v-1.4H7.6V51h2.2v-5c0-1.8,2.4-2.1,3.2-1.5C13,44.5,13,42.1,13,42.1z"/>
	<path fill="#414242" d="M20.4,44c-0.2-0.5-0.4-0.9-0.8-1.3c-0.3-0.3-0.7-0.5-1.1-0.8c-0.5-0.2-1-0.3-1.6-0.3
		c-0.6,0-1.3,0.1-1.9,0.4c-0.1,0-0.2,0.1-0.3,0.1v2.2c0.3-0.3,0.6-0.5,0.9-0.6c0.3-0.1,0.6-0.2,0.9-0.2c0.6,0,1.1,0.2,1.5,0.5
		c0.3,0.3,0.5,0.7,0.5,1.2h-1.3c-0.6,0-1.1,0.1-1.6,0.2c-0.5,0.1-0.9,0.3-1.3,0.6s-0.7,0.6-0.9,0.9S13,47.8,13,48.3
		c0,0.4,0.1,0.8,0.2,1.1c0.1,0.3,0.3,0.6,0.6,0.8c0.2,0.2,0.6,0.4,0.9,0.5c0.3,0.1,0.7,0.2,1.2,0.2c0.5,0,0.9,0,1.3-0.2
		c0.4-0.1,0.8-0.3,1.2-0.5V51h2.2v-5.1C20.6,45.1,20.6,44.5,20.4,44z M18.5,48.5c-0.3,0.2-0.6,0.3-1,0.4s-0.6,0.2-1,0.2
		c-0.4,0-0.7-0.1-0.9-0.3c-0.2-0.2-0.4-0.4-0.4-0.8c0-0.2,0.1-0.4,0.2-0.5c0.1-0.2,0.3-0.3,0.5-0.4c0.2-0.1,0.4-0.2,0.7-0.2
		c0.3,0,0.6-0.1,0.9-0.1h1L18.5,48.5L18.5,48.5z"/>
	<polygon fill="#414242" points="25.6,48.1 23.6,41.7 21.2,41.7 24.5,51 26.6,51 30,41.7 27.6,41.7 	"/>
	<path fill="#414242" d="M38.4,43c-0.4-0.4-0.9-0.7-1.5-1s-1.2-0.3-1.8-0.3c-0.7,0-1.3,0.1-1.8,0.4c-0.6,0.2-1.1,0.6-1.5,1
		c-0.4,0.4-0.8,0.9-1,1.5s-0.4,1.2-0.4,1.8s0.1,1.2,0.4,1.8c0.2,0.6,0.6,1,1,1.5c0.4,0.4,0.9,0.8,1.5,1s1.2,0.4,1.8,0.4
		s1.3-0.1,1.8-0.3c0.6-0.2,1.2-0.5,1.8-1l-1.4-1.4c-0.3,0.2-0.6,0.4-1,0.6c-0.4,0.1-0.8,0.2-1.2,0.2c-0.3,0-0.6,0-0.9-0.1
		c-0.3-0.1-0.5-0.2-0.7-0.4c-0.2-0.2-0.4-0.4-0.5-0.6c-0.2-0.2-0.3-0.5-0.3-0.7h7c0-0.2,0-0.3,0-0.5c0-0.2,0-0.3,0-0.4
		c0-0.7-0.1-1.3-0.4-1.9S38.8,43.4,38.4,43L38.4,43z M32.7,45.5c0.2-0.6,0.5-1,0.9-1.3c0.4-0.3,0.9-0.5,1.5-0.5s1.1,0.2,1.5,0.5
		s0.8,0.8,0.9,1.3C37.5,45.5,32.7,45.5,32.7,45.5z"/>
	<path fill="#414242" d="M43.8,48.9c-0.2-0.1-0.2-0.4-0.2-0.8V38.1h-2.2v10.4c0,0.4,0.1,0.8,0.2,1.1c0.1,0.3,0.3,0.6,0.5,0.8
		c0.2,0.2,0.5,0.3,0.8,0.4c0.3,0.1,0.6,0.1,0.9,0.1c0.2,0,0.5,0,0.7-0.1c0.2,0,0.4-0.1,0.6-0.2v-1.8c-0.2,0.2-0.5,0.2-0.7,0.2
		C44.2,49.1,44,49,43.8,48.9L43.8,48.9z"/>
	<path fill="#414242" d="M53.6,42.8c-0.3-0.3-0.7-0.5-1.1-0.7C52.1,42,51.7,42,51.2,42c-0.2,0-0.4,0-0.6,0.1s-0.4,0.1-0.6,0.2
		s-0.4,0.2-0.6,0.3s-0.4,0.2-0.5,0.4l0-1.1h-2.2V51h2.2v-6.4c0.3-0.2,0.6-0.4,0.9-0.6c0.3-0.1,0.7-0.2,1-0.2c0.2,0,0.4,0,0.7,0.1
		c0.2,0.1,0.4,0.2,0.6,0.3c0.2,0.2,0.3,0.4,0.4,0.6c0.1,0.2,0.2,0.5,0.2,0.8V51h2.2v-5.4c0-0.6-0.1-1.2-0.3-1.7
		C54.2,43.5,53.9,43.1,53.6,42.8L53.6,42.8z"/>
	<path fill="#414242" d="M64.2,43c-0.4-0.4-0.9-0.7-1.5-1s-1.2-0.3-1.8-0.3c-0.7,0-1.3,0.1-1.8,0.4c-0.6,0.2-1.1,0.6-1.5,1
		c-0.4,0.4-0.8,0.9-1,1.5s-0.4,1.2-0.4,1.8s0.1,1.2,0.4,1.8c0.2,0.6,0.6,1,1,1.5c0.4,0.4,0.9,0.8,1.5,1c0.6,0.2,1.2,0.4,1.8,0.4
		s1.3-0.1,1.8-0.3c0.6-0.2,1.2-0.5,1.8-1l-1.4-1.4c-0.3,0.2-0.6,0.4-1,0.6c-0.4,0.1-0.8,0.2-1.2,0.2c-0.3,0-0.6,0-0.9-0.1
		c-0.3-0.1-0.5-0.2-0.7-0.4c-0.2-0.2-0.4-0.4-0.5-0.6c-0.2-0.2-0.3-0.5-0.3-0.7h7c0-0.2,0-0.3,0.1-0.5c0-0.2,0-0.3,0-0.4
		c0-0.7-0.1-1.3-0.4-1.9S64.7,43.4,64.2,43L64.2,43z M58.5,45.5c0.2-0.6,0.5-1,0.9-1.3c0.4-0.3,0.9-0.5,1.5-0.5s1.1,0.2,1.5,0.5
		s0.8,0.8,0.9,1.3C63.4,45.5,58.5,45.5,58.5,45.5z"/>
	<path fill="#414242" d="M72.1,41.3c-0.1-0.2-0.2-0.2-0.4-0.2c-0.9,0.4-1.6,0.9-2.2,1.5c0,0,0,0-0.1,0v-0.5c0-0.4-0.5-0.6-0.8-0.3
		l-1.3,1.3c-0.1,0.1-0.1,0.1-0.1,0.2v7.2c0,0.2,0.1,0.3,0.3,0.3h1.6c0.2,0,0.3-0.1,0.3-0.3v-4.2c0,0,0,0,0-0.1
		c0.1-0.3,0.2-0.7,0.4-1c0.2-0.5,0.6-0.9,1-1.4c0.4-0.4,0.9-0.8,1.6-1.1c0.2-0.1,0.2-0.2,0.2-0.4L72.1,41.3L72.1,41.3z"/>
</g>
<g>
	<polygon fill="#B20000" points="69.6,32.6 67.3,41.7 79.5,29 	"/>
	<polygon fill="#ED2024" points="69.6,32.6 79.5,29 79.5,29 63.3,29.5 69.6,32.6 	"/>
</g>
</svg>
