<?xml version="1.0"?><svg version="1.2" baseProfile="tiny-ps" viewBox="0 0 300 300" xmlns="http://www.w3.org/2000/svg" xmlns:xlink="http://www.w3.org/1999/xlink"><title>Wittig Associates Inc</title><g><g fill="#fdfffe" transform="matrix(.1 0 0 -.1 0 300)"><path d="M0 1500V0h3000v3000H0V1500z"/></g><g fill="#d1e6ee" transform="matrix(.1 0 0 -.1 0 300)"><path d="M955 2290c-275-39-532-242-687-540-73-142-141-352-159-495-5-38-12-85-15-102l-6-33h8c5 0 20 21 33 48 42 81 142 252 152 258 12 7 12 7-5-52-8-27-20-94-27-149l-14-100v-115c0-63 4-150 8-192l9-78h8c4 0 15 33 25 73 9 39 35 128 57 197l40 125 55 115c155 322 346 519 589 606l79 28h125l125 1 75-27c129-46 229-109 320-202 30-31 61-56 68-56 15 0 15-7-7 65-100 313-282 518-534 600l-72 23-95 5-95 5-60-8zm570-769-6-21 6-19 6-20 19-6 19-6 21 11 21 11-3 32-3 32-37 3-36 3-7-20zm822 13c-4-4-7-20-7-35v-28l21-12 22-11 24 11 24 11-3 33-3 32-35 3c-20 2-39 0-43-4zm-1672-24-6-10 25-10c32-12 48-38 80-130 14-41 44-127 67-190s48-136 57-162l16-48h13c16 0 25 18 62 125 16 50 39 114 49 143l19 53 11-28c5-15 20-55 32-88s30-82 40-110c10-27 21-60 25-72l6-23h26l16 38c16 35 37 95 124 352 35 106 55 140 80 140h13v30h-170v-30h19c10 0 23-6 29-13l11-13-6-25c-5-22-72-220-95-282l-11-28-18 53c-11 29-35 99-55 155l-35 102 3 23 3 22 23 6c13 3 23 10 23 15l-1 10-110 3-110 3v-31h37l16-18c9-10 23-40 32-67l14-49-36-108c-20-59-39-108-43-108-3 0-11 17-17 38-6 20-30 89-52 152l-42 115 3 20 3 20 23 3 22 3v29H681l-6-10zm1145-80-13-31-43-38c-24-21-44-41-44-44s12-7 28-9l27-3 2-130c3-146 6-167 29-189l15-16h78l26 27c14 15 25 33 25 40v13h-14c-8 0-18-4-21-10-3-5-14-10-25-10h-18l-6 16c-3 9-6 72-6 140v124h91l-3 18-3 17-43 3-42 3v109h-28l-12-30zm280 18c0-8-14-33-30-56l-31-41-19-6-20-6v-29h48l6-16c3-9 6-78 6-153v-138l18-16 19-17h32c43 0 68 14 86 50l16 30h-19c-10 0-23-5-29-11l-12-12-15 6-16 6v271h82l-6 16c-3 9-6 18-6 20s-16 4-34 4h-35l-3 52-3 53-17 3-18 3v-13zm-593-116-37-17 3-15 3-15 18 3 19 4 8-14 9-13v-247l-30-11-30-11v-26h190v25l-22 10-23 10-3 168-2 167-33-1c-17 0-49-8-70-17zm816-3-42-19 5-15 6-14 21 2 21 2 7-40c10-50 11-163 3-204l-7-31-23-6-24-6v-28h190v28l-25 6-25 6v340l-32-1-33-1-42-19zm292 3-31-19-18-41-18-41 6-34 6-35 25-27 25-27-25-30-25-30v-46l15-12 16-13-24-26c-14-14-30-36-36-48l-12-23 12-21 11-21 46-21 47-20h120l45 23c50 25 85 59 95 91l7 21-6 33-7 33-27 18-27 17-96 6c-54 3-101 9-104 13l-7 7 5 16 6 15h126l28 18c15 10 34 27 42 38l14 19 1 58v57h48l6 17 7 16-8 8c-9 8-78 17-188 25l-70 5-30-19zm110-18c8-4 22-19 30-35l15-28v-43l-1-43-12-16c-7-9-22-19-33-23l-21-6-17 6c-9 4-23 19-31 35l-15 28v91l20 20c21 21 37 24 65 14zm108-361 18-5-3-25-3-26-35-18-35-19h-107l-34 16-34 16v17c0 9 7 27 16 39l16 23 92-6c50-4 99-9 109-12zM847 933c-4-3-7-12-7-20v-13h1640v40H853l-6-7zm775-81-22-3-17-25-16-24 6-41 5-41 19-13c10-8 30-15 45-15h27l15 22c9 12 16 26 16 30 0 14-27 9-40-7-7-8-19-15-26-15h-14l-12 25-11 25 11 25 12 25h38l6-15c3-8 10-15 16-15h11l-3 21-3 22-20 12-20 11-23-4zm-758-19c-3-10-11-32-18-48-8-17-17-45-20-63l-8-32h32l6 25 6 25h46l6-25 6-25h33l-7 30c-3 17-15 53-27 80l-21 50h-29l-5-17zm30-48 5-15h-28l5 15c4 8 7 15 9 15s5-7 9-15zm126 50-12-15 6-24 6-24 35-12 35-12v-28h-41l-5 15c-4 8-12 15-20 15h-14v-39l19-11c26-14 64-13 79 2l12 12v54l-12 10c-7 5-23 12-36 14l-23 3v10c0 6 7 12 16 13l17 4 13-19 14-18 6 18 7 17-12 15-12 15h-66l-12-15zm178-10-11-25 17-19c10-11 28-22 42-25l24-6v-30h-41l-5 15c-4 8-12 15-20 15h-14v-14c0-8 7-22 16-30l15-16h56l16 18c22 24 21 45-1 65l-19 17h-43v30h38l6-15c3-8 10-15 16-15h10v18c0 10-5 23-12 30l-12 12h-66l-12-25zm188 3-16-22v-29c0-30 16-67 34-79 6-4 23-8 37-8h26l19 21 19 21v90l-19 14-20 14h-65l-15-22zm84-33 10-25-10-25-10-25h-18c-25 0-42 20-42 50s17 50 42 50h18l10-25zm300-25v-80h30v160h-30v-80zm116 9c-30-80-31-89-13-89h14l11 25 12 25h37l11-25c6-14 17-25 23-25h12l-6 33c-3 17-15 53-27 80l-21 47h-27l-26-71zm48 6 5-15h-9c-6 0-10 7-10 15s2 15 4 15 6-7 10-15zm96 50v-15h39l3-62 3-61 13-5 12-4v132h50v30h-120v-15zm184 1c-3-7-4-42-2-77l3-64 51-3 51-3 6 16 6 15h-90l3 18 3 17 38 3 37 3v29h-80v30h80v30h-101l-5-14zm186-6-11-21 6-19 6-19 34-11 35-12v-28h-41l-5 15c-4 8-12 15-20 15h-14v-39l20-11 21-11 27 3 26 3 15 27 15 27-18 20-18 20-24 3-25 3v10c0 6 7 12 16 13l17 4 13-19 14-18 6 18 7 17-12 15-12 15h-67l-11-20z"/></g><g fill="#a4bbc8" transform="matrix(.1 0 0 -.1 0 300)"><path d="M930 2284c-60-12-161-49-228-85-301-160-510-492-588-934-8-44-14-93-14-110v-30l65 119c62 113 133 226 141 226 2 0-4-19-12-42-8-24-24-97-34-163l-20-120v-136c0-149 9-259 20-259 5 0 13 24 20 53 75 336 223 635 409 830 122 127 247 206 386 242l59 15h192l59-15c129-33 256-109 378-223l57-55v15c0 27-49 158-86 231-102 203-258 347-446 414l-73 26-130 3c-71 1-141 0-155-2zm600-764-11-20 11-20 11-20h59l6 25 6 25-12 15-12 15h-47l-11-20zm822 8c-16-16-15-43 2-58l15-12 22 4 22 3 11 18 11 17-11 18-11 17-24 3-24 3-13-13zm-1667-18-6-10 25-10 26-10 15-32c11-25 149-409 170-475 8-25 23-13 39 30 9 23 35 98 59 167l44 124 20-54c11-30 37-102 58-160 36-103 50-129 60-119 3 3 41 110 84 237 44 127 87 245 96 261l16 31h39v30h-160v-29l23-3 22-3 3-22 3-22-49-143c-28-79-54-151-58-162l-7-19-59 169c-32 93-57 175-56 183l3 15 23 6c13 3 24 10 25 15l2 10-99 3-99 3-10-10-10-10 26-10 27-11 20-32c11-18 23-47 26-65l6-32-37-110c-20-61-40-111-44-111-3 0-32 74-63 165l-57 165 5 14 6 15 21 3 22 3-2 10-3 10-94 3-94 3-7-11zm1135-90-20-39-35-28c-41-33-44-43-10-43h25l1-127v-128l12-35 12-35 28-9 27-10 26 10 27 9 20 27c26 34 17 45-17 23l-26-17-15 12-15 12v268h80v30h-80v120h-10c-5 0-19-18-30-40zm274 5c-9-19-34-50-55-70-21-19-39-37-39-40s14-5 30-5h30v-300l20-20 20-20h62l29 29c41 42 39 72-3 34l-19-17-17 10-17 11-3 137-3 136h81v30h-80v120h-10c-5 0-16-16-26-35zm-576-97c-54-23-60-35-20-40l27-3 3-120c1-66 0-130-3-142l-5-23h-40v-20l28-1c15 0 48-1 74-2 26-2 55 1 65 5l18 7-23 7-24 7-9 24-9 24v299h-17c-10-1-39-10-65-22zm820 0c-27-11-48-24-48-29v-9h50l5-22c3-13 4-75 3-138l-3-115-22-10c-13-5-23-13-23-17 0-9 4-9 90-9h70c16 1 12 21-5 21h-14l-11 19-10 20v311h-17c-10-1-39-10-65-22zm285 3-32-20-16-30-15-30v-77l29-34 29-35-29-33c-33-38-35-49-13-73l16-18-31-43c-17-23-31-49-31-58 0-22 27-45 73-65l36-15h47c63 0 116 17 158 52l35 28 11 34 11 33-10 26c-6 14-21 33-34 41l-23 16-102 6c-57 4-105 10-107 14s2 15 9 26l14 18 45-3 44-2 36 15 37 15 20 33 21 33-5 53-5 52h60l-3 18-3 17-65 8c-36 4-90 10-120 13l-55 5-32-20zm108-11c4 0 16-14 25-32l16-31v-98l-17-19-18-20h-54l-17 19c-10 11-22 37-26 58l-9 38 10 38 10 38 22 9c12 5 28 7 35 4 8-2 18-4 23-4zm117-373 14-15-6-19-6-19-29-17-29-17h-151l-27 23-27 23 18 34 17 33 106-6 105-6 15-14zM850 920v-20h1631l-3 18-3 17-813 3-812 2v-20zm-3-145-26-75 10-5 9-6 12 25 11 26h46l6-20 6-20h15c18 0 18-1-13 80l-27 70h-24l-25-75zm53-7c0-5-7-8-15-8-17 0-18 2-9 25l7 17 8-14c5-7 9-16 9-20zm126 60-15-21 9-18 10-17 35-12 36-12-4-11c-2-7-11-14-21-15l-17-4-20 18c-10 9-22 14-25 11-11-11 5-37 31-49l25-11 25 11 25 12v58l-40 16c-22 9-40 20-40 26v10h50v-10c0-5 7-10 15-10 19 0 19 14-1 34l-15 16h-48l-15-22zm186 10c-7-7-12-23-12-36v-24l40-15 41-16-4-11c-2-6-13-12-25-14l-22-3-6 15-6 16h-29l3-17 3-17 27-15 26-15 26 12 26 12v58l-40 16c-22 9-40 20-40 26v10h50v-10c0-5 7-10 15-10 19 0 19 14-1 34l-15 16h-23c-12 0-27-5-34-12zm179-14-21-27v-58l25-24 24-25h19c11 0 30 8 42 18l23 18v84l-18 20-18 20h-56l-20-26zm71-11 18-16v-19c0-11-5-28-10-39l-11-19h-17c-10 0-23 5-30 12l-12 12v55l16 15c19 20 23 20 46-1zm128 10-22-28 6-35 5-35 22-17c12-10 29-18 39-18 19 0 50 30 50 48 0 17-20 15-26-3l-6-15h-17c-9 0-22 5-29 12l-12 12v55l16 16 16 16 24-16c29-19 34-19 34 0v14l-19 11c-11 5-29 10-40 10h-20l-21-27zm182-50 3-78 10 3 10 2v143l-13 5-13 4 3-79zm143 67c-14-23-52-139-47-144 8-9 32 14 32 30v14h52l5-20 5-20h14c18 0 18-3-12 79-25 69-36 82-49 61zm25-66v-14h-15c-17 0-18 2-9 24l6 16 9-6c5-3 9-12 9-20zm97 70c-10-11 3-24 24-24h19V701l10-6 10-6v131h50v30h-53c-30 0-57-3-60-6zm183-74v-80l47 2 46 3 5 13 4 12h-82v40h70v30h-70v29l38 3 37 3v20l-47 3-48 3v-81zm192 68c-7-7-12-23-12-36v-24l40-15 41-16-4-11c-2-6-11-13-21-14l-17-4-20 18c-10 9-22 14-25 11-11-11 5-37 31-49l25-11 25 11 25 12v58l-40 16c-22 9-40 20-40 26v10h50v-10c0-5 7-10 15-10 19 0 19 14-1 34l-15 16h-23c-12 0-27-5-34-12z"/></g><g fill="#678fa8" transform="matrix(.1 0 0 -.1 0 300)"><path d="m905 2273-70-15-81-37c-157-74-271-169-381-318l-61-82-50-103c-78-161-131-339-157-533l-7-50 59 105c69 121 144 242 148 238 2-2-7-48-21-102-13-55-29-147-35-205l-12-106 7-144 6-143 9-16 9-15 7 44c11 70 73 265 117 373 124 301 288 511 498 636l65 39 80 27 80 27h230l80-26 80-26 75-45 76-44 77-72c43-40 80-71 82-68 8 8-44 149-85 233-22 44-64 112-93 150l-53 70-70 58-69 59-80 38-80 38-72 16-72 16-83-1-83-1-70-15zm635-747-12-15 4-23 3-23 26-3 26-3 13 16 13 16-11 24-12 25h-19c-10 0-24-7-31-14zm824 6c-6-4-13-14-17-24l-6-16 13-17 12-17 25 4 24 3 3 29 4 29-14 8c-16 11-30 11-44 1zm-1658-37c17-8 34-20 36-27 3-7 42-117 87-243 45-127 86-237 91-245l10-15 9 15c6 8 33 81 61 162 29 81 55 148 59 148 3 0 30-70 60-156 50-143 65-173 77-162 2 3 40 109 84 236 43 128 84 241 90 252s23 26 38 34l27 15h-85l-85-1 27-11c15-6 30-17 32-24l6-14-58-169c-31-94-60-170-63-170-8 0-109 283-116 325l-5 31 14 11c7 6 22 13 33 16 11 2-29 5-90 6l-110 1 31-19 32-19 21-55 20-55-40-121c-23-67-44-121-47-121-4 0-34 76-66 170l-58 169 6 16c3 9 16 20 28 25l23 9H780l-105-1 31-13zm1123-65c-17-37-74-100-90-100-5 0-9-4-9-10v-10h60v-299l26-20c15-12 36-21 46-21h20l35 35 36 36-7 6-6 6-18-16c-10-10-26-17-35-17h-16l-11 19-10 20v251h90v30h-89l-3 63-3 62-16-35zm266-11-19-40-40-34-41-35h65v-291l25-24c13-14 31-25 39-25 27 0 65 22 82 47 20 31 11 42-15 19l-20-18-18 4-18 3-3 143-3 142h81v30h-80v109l-9 5-8 5-18-40zm-567-91c-27-11-48-24-48-29v-9l23 3 22 2 3-142 3-142-28-15-28-15h180l-20 11c-11 6-23 16-27 22l-8 11v325l-12-1c-7 0-34-10-60-21zm815 0-53-21 6-8 5-9 10 6 10 6 14-12 15-12v-267l-27-15-28-15h180l-27 15-28 15v339l-12-1c-7 0-37-10-65-21zm302 11c-11-6-32-23-47-37l-27-25-6-28-7-29 7-29 6-30 26-25 25-25-26-32-26-31v-47l17-9 16-10-37-43-37-44 3-20 3-20 45-25 45-24h71l72 1 44 26c25 14 53 37 62 51l16 25v30c0 43-9 60-41 76l-28 15h-167l-18 13-19 14 13 22 12 23 37-6 37-6 35 10 35 10 29 30 29 30v38c1 20-3 47-7 60l-8 22h72l-3 18-3 17-60 7c-33 4-85 9-115 13l-55 6-20-12zm99-32 24-24 7-41 7-42-11-33-12-34-24-11-25-12-23 9-22 9-15 27-15 28v105l19 21 19 21h48l23-23zm81-346 30-7v-57l-26-19-26-20-60-5-60-5-46 20-47 21v19c0 11 8 30 19 43l19 24 83-3c46-2 98-7 114-11zM850 915v-15h1620v30H850v-15zm186-78-18-13 4-24 3-23 35-12 35-12v-28l-24-3-25-4-13 18c-17 24-28 11-13-16l11-21 36 3 36 3 11 18 11 17-11 17-11 18-32 9-31 9v14c0 7 7 16 15 20l16 5 19-17 20-18v32l-19 11c-25 13-33 13-55-3zm180 0-18-13 4-24 3-23 35-12 35-12 3-16 3-17h-54l-13 17-12 18-7-7-7-6 12-22 11-21 36 3 36 3 11 18 11 17-11 17-11 18-32 9-31 9v14c0 7 7 16 15 20l16 5 19-17 20-18v32l-19 11c-25 13-33 13-55-3zm187-2-21-15-7-29-6-30 12-23c16-30 28-38 60-38h26l16 18 17 19v69l-12 17c-7 9-24 19-38 22l-25 6-22-16zm58-15 19-11v-32c0-50-27-74-62-55l-18 9v75l12 12c15 15 24 15 49 2zm142 15-21-14-5-28-5-28 14-33 13-33 37 3 37 3 11 17 10 17-6 6-6 7-21-21-21-21-19 9-19 10-4 24c-6 31 7 66 27 73l16 6 19-17 20-18 8 7 7 8-24 19c-28 23-40 24-68 4zm621 6c-2-2-4-35-4-73v-68h100v20h-80v40h59l6 10 6 10h-71v40l18 2c9 0 25 1 35 0l17-2v10c0 11 0 11-48 13-19 1-36 0-38-2zm192-4-18-13 4-24 3-23 35-12 35-12v-28l-24-3-25-4-13 18c-17 24-28 11-13-16l11-21 36 3 36 3 11 18 11 17-11 17-11 18-32 9-31 9v14c0 7 7 16 15 20l16 5 19-17 20-18v32l-19 11c-25 13-33 13-55-3zM850 774c-22-65-22-95 0-55l11 21h47l15-22c26-39 25-16-1 55l-25 67h-25l-22-66zm50-1v-13h-15c-16 0-19 9-9 35l7 17 8-14c5-7 9-19 9-25zm870 3v-65l10-6 10-6v141h-20v-64zm122 0c-25-72-26-76-13-76 5 0 11 9 14 20l5 20h62v-14c0-16 18-31 26-23 3 2-7 34-22 71l-26 66h-24l-22-64zm48 3v-19h-32l6 16c3 9 6 20 6 25v10l10-6c6-3 10-15 10-26zm105 51c3-5 13-10 21-10h14V700h20v131l10-6 10-6 17 10 18 10-58 1h-58l6-10z"/></g><g fill="#0866a9" transform="matrix(.1 0 0 -.1 0 300)"><path d="M975 2284c-11-3-51-12-90-21l-70-16-81-39c-299-146-507-450-600-875-13-62-24-127-24-145v-33l37 70c63 122 153 265 167 265h8l-7-17c-4-10-18-62-31-116l-24-97-9-128-9-127 7-112c4-62 10-115 13-118 3-4 9 13 13 37s29 108 55 188l47 145 50 105c168 354 395 571 665 635l63 15h150l63-15c134-32 240-90 367-200l76-66-7 28c-39 160-146 338-273 456l-61 56-66 37c-36 20-100 48-142 61l-77 24-95 4c-52 2-104 2-115-1zm573-755-18-10v-18c0-10 7-24 15-31l14-12 18 4 18 3 3 23 4 23-12 15c-14 16-19 17-42 3zm820 0-18-10v-18c0-10 7-24 16-32l16-13 16 11c10 5 18 18 20 27l4 17-12 14c-14 17-19 18-42 4zm-1663-29c31-12 39-26 78-135 20-55 56-158 82-229 25-71 51-138 57-149l11-21 44 124c25 69 52 144 60 168 9 23 18 42 22 42 3 0 28-62 54-138 77-220 77-220 95-154 9 33 139 408 157 455 4 10 19 24 34 32l26 14h-80l-80-1 24-7c13-3 29-14 35-23l10-17-59-175c-33-97-63-176-66-176s-30 66-59 148l-53 147-1 44-1 45 25 7 25 7H935l27-9 26-10 21-43c11-24 23-55 26-69l7-24-41-118c-23-65-41-120-41-122 0-1-3-3-8-3-4 0-18 30-31 68-13 37-39 110-58 164l-35 96 4 28 3 28 25 7 25 7H785l-100 1 20-9zm1121-82c-10-21-33-51-52-68-41-35-42-40-9-40h25v-269l10-26 10-25 25-10 26-10 29 15c16 8 35 25 41 38l11 22-13-12-13-13h-54l-6 16c-3 9-6 74-6 145v129h80v9c0 11-25 21-55 21h-24l-3 58-3 57-19-37zm280 13c-5-14-29-46-54-73l-45-48h53v-257l10-30 11-30 24-11 25-11 17 6c24 8 63 44 63 57v10l-12-12c-7-7-22-12-35-12h-22l-11 19-10 20v251h90v9c0 12-26 21-60 21h-29l-3 58-3 57-9-24zm-576-105-55-21 23-3 23-4 10-24 9-25v-208l-9-25-10-24-18-5c-10-3 20-5 67-6l85-1-25 13-25 13-3 164-3 165-7 6-7 7-55-22zm820 0-55-21 23-3 23-4 10-24 9-25v-208l-9-25-10-24-23-5c-13-2 18-5 67-5l90-1-21 9c-12 5-26 15-30 22l-9 13-5 161-5 161-55-21zm289 4c-20-10-43-30-53-44l-16-25v-93l30-30 30-30-30-34c-34-40-36-50-14-75l16-18-32-44-32-45 4-17c1-10 15-27 29-37l27-20 64-5 65-6 51 17 51 17 31 35 30 35v57l-18 22-18 22-44 9c-25 4-71 8-102 9-31 0-63 3-72 6l-16 6v17c0 9 5 22 12 29l12 12h107l28 14c15 8 36 27 46 42l17 27-4 53-5 54h57v30h-88l-35 15c-48 20-84 18-128-5zm92-7 28-17 11-29c5-17 10-50 10-74v-44l-25-24-24-25h-43l-29 31-29 31v57c0 62 4 69 40 94 30 21 26 21 61 0zm124-374 19-19-20-27c-12-16-32-34-45-40l-24-13h-120l-35 18-35 17-3 23-4 23 16 24 16 24 107-6 108-5 20-19zM850 915v-15h1620v30H850v-15zm2-141c-13-36-20-69-17-72s8 4 12 16l5 22h66l5-22 6-22 7 6 6 7-23 65-24 66h-20l-23-66zm47 16 10-30h-48l10 30c6 17 12 30 14 30s8-13 14-30zm133 41-14-8 4-19 3-19 38-18 37-17v-29l-21-6-20-7-20 18-19 17v-9c0-6 5-15 12-22l12-12h55l11 19 10 20-6 14-5 14-40 16-39 15 6 16 6 16h46l5-12 4-13 8 7 7 7-7 10-6 11h-27c-15 0-33-4-40-9zm181 3-13-6v-18c0-22 17-36 53-45l27-7v-36l-16-6-17-6-23 15-24 15v-8c0-4 5-13 12-20l12-12h55l11 19 10 20-6 14-5 14-41 16-41 17 13 15c7 8 21 15 31 15h18l11-17 11-18-3 20-3 20-30 2c-17 1-36 0-42-3zm183-10-16-15v-76l18-16 19-17h43l20 20 20 20v67l-18 16-19 17h-52l-15-16zm80-19 16-25-6-25-7-26-25-11-26-12-20 24-20 24 6 30c7 32 21 46 48 46h18l16-25zm121 17-17-19v-70l18-16c21-19 45-21 73-7l19 11v33l-21-23-21-22-16 3-16 3-15 26-14 25 7 27 6 27 26 6 25 6 19-17 20-18v9c0 6-5 15-12 22l-12 12h-53l-16-18zm186-52v-75l4 38c2 20 2 54 0 75l-4 37v-75zm130 53c-3-10-15-40-25-67s-16-51-13-54c3-4 8 4 12 16l5 22h67l6-20c3-11 10-20 15-20h9l-24 65c-14 36-25 68-25 70 0 13-21 3-27-12zm27-22c0-5 3-16 6-25l6-16h-42v9c0 17 12 41 21 41 5 0 9-4 9-9zm118 32 22-4V711l10-6 10-6v130l23 4 22 4h-110l23-4zm162-63v-70h90v20h-81l3 23 3 22 40 6 40 6-43 2-43 1 3 23 3 22 40 6 40 6-47 2-48 1v-70zm184 55c-10-25 3-44 41-59l35-15v-29l-16-6-17-6-23 15-24 15v-29l21-6 20-7 25 6 24 6v57l-41 16-41 16 4 13 5 13 23 3 23 4 8-13 8-13 6 6 7 7-7 10-6 11h-70l-5-15z"/></g><g fill="#38383a" transform="matrix(.1 0 0 -.1 0 300)"><path d="m1027 2027-92-18-100-48-100-48-65-49c-89-67-201-175-271-261l-59-72-19-43c-10-24-28-86-40-138l-21-95-9-125-9-125 7-112c4-62 10-115 13-118 3-4 9 13 13 37s29 108 55 188l47 145 50 105c168 354 395 571 665 635l63 15h150l63-15c131-31 237-88 360-194 40-34 72-59 72-55 0 11-68 104-122 166l-49 57-68 50c-116 86-227 126-369 133l-74 4-91-19zM850 915v-15h1620v30H850v-15zm2-141c-13-36-20-69-17-72s8 4 12 16l5 22h66l5-22 6-22 7 6 6 7-23 65-24 66h-20l-23-66zm47 16 10-30h-48l10 30c6 17 12 30 14 30s8-13 14-30zm133 41-14-8 4-19 3-19 38-18 37-17v-29l-21-6-20-7-20 18-19 17v-9c0-6 5-15 12-22l12-12h55l11 19 10 20-6 14-5 14-40 16-39 15 6 16 6 16h46l5-12 4-13 8 7 7 7-7 10-6 11h-27c-15 0-33-4-40-9zm181 3-13-6v-18c0-22 17-36 53-45l27-7v-36l-16-6-17-6-23 15-24 15v-8c0-4 5-13 12-20l12-12h55l11 19 10 20-6 14-5 14-41 16-41 17 13 15c7 8 21 15 31 15h18l11-17 11-18-3 20-3 20-30 2c-17 1-36 0-42-3zm183-10-16-15v-76l18-16 19-17h43l20 20 20 20v67l-18 16-19 17h-52l-15-16zm80-19 16-25-6-25-7-26-25-11-26-12-20 24-20 24 6 30c7 32 21 46 48 46h18l16-25zm121 17-17-19v-70l18-16c21-19 45-21 73-7l19 11v33l-21-23-21-22-16 3-16 3-15 26-14 25 7 27 6 27 26 6 25 6 19-17 20-18v9c0 6-5 15-12 22l-12 12h-53l-16-18zm186-52v-75l4 38c2 20 2 54 0 75l-4 37v-75zm130 53c-3-10-15-40-25-67s-16-51-13-54c3-4 8 4 12 16l5 22h67l6-20c3-11 10-20 15-20h9l-24 65c-14 36-25 68-25 70 0 13-21 3-27-12zm27-22c0-5 3-16 6-25l6-16h-42v9c0 17 12 41 21 41 5 0 9-4 9-9zm118 32 22-4V711l10-6 10-6v130l23 4 22 4h-110l23-4zm162-63v-70h90v20h-81l3 23 3 22 40 6 40 6-43 2-43 1 3 23 3 22 40 6 40 6-47 2-48 1v-70zm184 55c-10-25 3-44 41-59l35-15v-29l-16-6-17-6-23 15-24 15v-29l21-6 20-7 25 6 24 6v57l-41 16-41 16 4 13 5 13 23 3 23 4 8-13 8-13 6 6 7 7-7 10-6 11h-70l-5-15z"/></g></g></svg>