<?xml version="1.0" encoding="utf-8"?>
<!-- Generator: Adobe Illustrator 28.1.0, SVG Export Plug-In . SVG Version: 6.00 Build 0)  -->
<svg version="1.2" baseProfile="tiny-ps" id="Calque_1"
	 xmlns="http://www.w3.org/2000/svg" xmlns:xlink="http://www.w3.org/1999/xlink" viewBox="0 0 96 96"
	 xml:space="preserve">
	 <title>Cabaia</title>
<rect x="0.1" fill="#FFFFFF" width="95.9" height="95.9"/>
<g>
	<circle fill="#1226AA" cx="48.1" cy="47.9" r="47.9"/>
	<g>
		<g>
			<path id="XMLID_00000129892940947741194410000012452125931565585540_" fill="#FFFFFF" d="M48.1,88.7C25.6,88.7,7.4,70.4,7.4,48
				S25.6,7.2,48.1,7.2s40.7,18.3,40.7,40.7S70.5,88.7,48.1,88.7z M48.1,8.6C26.4,8.6,8.8,26.3,8.8,47.9s17.6,39.3,39.3,39.3
				s39.3-17.6,39.3-39.3C87.4,26.3,69.7,8.6,48.1,8.6z"/>
			<path fill="#FFFFFF" d="M48.1,89.1c-22.7,0-41.2-18.5-41.2-41.2S25.3,6.7,48.1,6.7s41.2,18.5,41.2,41.2S70.8,89.1,48.1,89.1z
				 M48.1,7.7c-22.2,0-40.2,18-40.2,40.2s18,40.2,40.2,40.2s40.2-18,40.2-40.2S70.2,7.7,48.1,7.7z M48.1,87.7
				c-22,0-39.8-17.8-39.8-39.8S26.1,8.1,48.1,8.1S87.9,26,87.9,47.9S70,87.7,48.1,87.7z M48.1,9.1C26.7,9.1,9.3,26.5,9.3,47.9
				s17.4,38.8,38.8,38.8s38.8-17.4,38.8-38.8S69.5,9.1,48.1,9.1z"/>
		</g>
		<g>
			<path fill="#FFFFFF" d="M23.9,58.2H27l1,1.8l1.5-0.9l-1.6-2.7h-5l-2.2,2.7V63l2.2,2.7h5l1.6-2.7L28,62.1l-1,1.8h-3.1l-1.3-1.6
				v-2.6L23.9,58.2z M36.8,56.4h-3L32,59.1l-1.1,6.6h1.8l0.3-2h4.5l0.3,2h1.8l-1.1-6.6L36.8,56.4z M33.4,62l0.4-2.2L35,58h0.8
				l1.2,1.8l0.4,2.2H33.4L33.4,62z M74.2,59.1l-1.8-2.7h-3l-1.8,2.7l-1.1,6.6h1.8l0.3-2h4.5l0.3,2h1.8L74.2,59.1z M68.9,62l0.4-2.2
				l1.2-1.8h0.8l1.2,1.8l0.4,2.2H68.9L68.9,62z M62.8,65.7h1.6v-9.3h-1.6C62.8,56.4,62.8,65.7,62.8,65.7z M50,58.8l-1.5-2.3h-6.8
				v9.3H49l1.6-2.3l-1.4-2.9L50,58.8z M43.5,58.1h4l0.5,0.7l-0.7,1.4h-3.8V58.1L43.5,58.1z M48,64.1h-4.5V62h4.3l0.7,1.4L48,64.1z
				 M57.9,56.4h-3l-1.8,2.7L52,65.7h1.8l0.3-2h4.5l0.3,2h1.8l-1.1-6.6L57.9,56.4z M54.4,62l0.4-2.2L56,58h0.8l1.2,1.8l0.4,2.2H54.4
				L54.4,62z"/>
		</g>
		<path fill="#FFFFFF" d="M61.8,35.4l-11.1-9.2l2-2.6l-1.8-1.7l-2.8,2.2l-2.8-2.2l-1.8,1.7l2,2.6l-11.2,9.2l1.5,1.8l4.5-2.8l-2,12.1
			l0.1,0.1c0.8,0.7,1.3,1.2,2.5,1.9l0.3,0.2l3-16.7l3.9-3.7L52,32l2.9,16.8l0.3-0.2c1.2-0.7,1.8-1.2,2.5-1.9l0.1-0.1l-2-12.1
			l4.5,2.8L61.8,35.4z"/>
	</g>
</g>
</svg>
