<?xml version="1.0" encoding="utf-8"?>
<!-- Generator: Adobe Illustrator 28.3.0, SVG Export Plug-In . SVG Version: 6.00 Build 0)  -->
<svg version="1.2" baseProfile="tiny-ps" id="Layer_1"
	 xmlns="http://www.w3.org/2000/svg" xmlns:xlink="http://www.w3.org/1999/xlink" viewBox="0 0 1024 1024"
	 xml:space="preserve">
<title>PayPay Bank Corporation</title>
<rect fill="#FFFFFF" width="1024" height="1024"/>
<path fill-rule="evenodd" fill="#FF0033" d="M507.8,172.6c2.9-1.5,6.4-1.5,9.2,0l332.2,176c8.1,4.3,4.8,15.8-4.6,15.8h-21.3v51
	c0.1,8.5-5.5,15.5-12.4,15.5h-20.1v294h20.7c6.5,0,11.8,6.5,11.8,14.6V789h18.6c6.6,0,12,6.1,12,13.7v50.4H170.9V803
	c0-7.7,5.5-14,12.3-14h22.7v-49.2c0-8.2,5.4-14.9,12-14.9h15.4v-294h-43c-6.8,0-12.3-6.7-12.3-15.2v-51.3h2.2
	c-9.4,0-12.8-11.5-4.6-15.8L507.8,172.6z"/>
<path fill-rule="evenodd" fill="#CC0029" d="M313.2,440.9c0-5.5,4.5-10,10-10h60c5.5,0,10,4.5,10,10v273.9c0,5.5-4.5,10-10,10h-60
	c-5.5,0-10-4.5-10-10V440.9z M473.2,440.9c0-5.5,4.5-10,10-10h60c5.5,0,10,4.5,10,10v273.9c0,5.5-4.5,10-10,10h-60
	c-5.5,0-10-4.5-10-10V440.9z M640.9,430.9c-5.5,0-10,4.5-10,10v273.9c0,5.5,4.5,10,10,10h60c5.5,0,10-4.5,10-10V440.9
	c0-5.5-4.5-10-10-10H640.9z"/>
<path fill-rule="evenodd" fill="#FFFFFF" d="M228.8,459.9v-25h-43c-6.8,0-12.3-6.8-12.3-15.2v-55.2c3.9,0,11.7,0,15.5,0
	c10.4,0,20.3,0.1,32.3,0.1c321.2-4.8,480.3,104.8,455.6,216.4c-22.1,100.4-124.6,138.9-291.2,151.6l-24.9,103.1l-5.3,20.1h-32.9
	l5.3-20.1l93.3-376.1C364.9,454.1,297.1,453.8,228.8,459.9z M401,665.5c113.2,5.4,241.9-28.6,255.7-84.6
	c12.9-52.1-71.6-100.3-206.7-118.5L401,665.5z"/>
</svg>
