<?xml version="1.0" encoding="UTF-8"?>
<svg id="Layer_1"  xmlns="http://www.w3.org/2000/svg" baseProfile="tiny-ps" version="1.2" viewBox="0 0 360 360">
  <title>Biosteel Inc.</title>
  <rect y="0" width="360" height="360" fill="#ea0029" stroke-width="0"/>
  <g>
    <g>
      <rect x="172" y="107.4" width="17.2" height="89.2" fill="#fff" stroke-width="0"/>
      <g>
        <path d="M221.7,107.4l-12.8,12.3v64.8l12.8,12.2h63.1l10.8-10.2,2-2v-64.9l-12.8-12.2h-63.1ZM226.2,179.6v-55h53.9v55h-53.9,0Z" fill="#fff" stroke-width="0"/>
        <path d="M147,152l5.2-5.2v-27.2s-12.5-12.2-12.5-12.2H63.7v89.2h75.9l12.6-12.1v-27.3s-5.2-5.2-5.2-5.2ZM135,179.6h-54v-19h54v19ZM135,143.5h-54v-19h54v19Z" fill="#fff" stroke-width="0"/>
      </g>
      <g>
        <path d="M267.2,243.3v-20.4l-9.5-9.1v32.3c0,1.5.5,3,1.6,4.2,1.3,1.5,3,2.3,5.1,2.3h26.3l9.8-9.2h-33.3s0,0,0,0Z" fill="#fff" stroke-width="0"/>
        <polygon points="171.2 237.8 200.3 237.8 200.3 228.6 171.2 228.5 171.2 223.1 204.4 223.1 194.8 213.8 161.8 213.8 161.8 252.6 194.8 252.6 204.5 243.3 171.2 243.3 171.2 237.8" fill="#fff" stroke-width="0"/>
        <polygon points="219.2 237.8 248.3 237.8 248.3 228.6 219.2 228.5 219.2 223.1 252.4 223.1 242.8 213.8 209.8 213.8 209.8 252.6 242.8 252.6 252.5 243.3 219.2 243.3 219.2 237.8" fill="#fff" stroke-width="0"/>
        <polygon points="111.7 223 126.8 223.1 126.8 252.6 136.2 252.6 136.2 223.1 152.3 223.1 152.3 213.8 111.7 213.8 111.7 223" fill="#fff" stroke-width="0"/>
        <polygon points="63.7 219.1 63.7 229.5 63.7 232.8 69.2 237.8 92.8 237.8 92.8 243.3 59.4 243.3 69.3 252.6 96.7 252.6 101.4 248.2 102.2 247.3 102.2 233.8 96.7 228.5 73.1 228.5 73.1 223.1 99.4 223.1 102.2 223 102.2 213.8 69.2 213.8 63.7 219.1" fill="#fff" stroke-width="0"/>
      </g>
    </g>
    <path d="M295.8,215.7c1.4,1.4,2.1,3.1,2.1,5s-.7,3.7-2.1,5.1c-1.4,1.3-3,2-5,2s-3.7-.7-5-2-2-3-2-5,.7-3.8,2.2-5.2c1.4-1.3,3-1.9,4.9-1.9s3.6.7,5,2.1h0ZM290.8,214.9c-1.6,0-3,.6-4.2,1.8-1.1,1.2-1.7,2.5-1.7,4.1s.6,3,1.7,4.2c1.1,1.2,2.5,1.7,4.1,1.7s3-.6,4.1-1.7c1.1-1.2,1.7-2.6,1.7-4.2s-.6-2.9-1.7-4.1c-1.2-1.2-2.5-1.8-4.1-1.8h0ZM289.7,221.9v2.8h-2.1v-7.9h3.8c.6,0,1.1.2,1.6.4.7.4,1,1,1,1.9s-.2,1.1-.6,1.4-.8.5-1.4.5c.5.1.9.3,1.1.4.5.4.7,1,.7,1.8v.7c0,0,0,.1,0,.2s0,.1,0,.2v.2c0,0-1.9,0-1.9,0,0-.3-.1-.6-.1-1.1s0-.8-.1-1c-.1-.3-.3-.5-.6-.6-.1,0-.4-.1-.7-.1h-.4s-.4,0-.4,0h0ZM290.5,220.5c.5,0,.9,0,1.1-.3s.4-.5.4-.9-.2-.7-.6-.9c-.3-.1-.7-.2-1.2-.2h-.5v2.3h.8,0Z" fill="#fff" stroke-width="0"/>
  </g>
</svg>