<?xml version="1.0" encoding="utf-8"?>
<!-- Generator: Adobe Illustrator 28.0.0, SVG Export Plug-In . SVG Version: 6.00 Build 0)  -->
<svg version="1.2" baseProfile="tiny-ps" id="Layer_1"
	 xmlns="http://www.w3.org/2000/svg" xmlns:xlink="http://www.w3.org/1999/xlink" viewBox="0 0 263 263"
	 xml:space="preserve">
<title>IIBC</title>
<rect y="0" fill="#FFFFFF" width="263" height="263"/>
<path fill="#D75A00" d="M25.42,158.07v-4.68c7.43-0.16,7.7-1.24,7.7-9.15V117.1c0-4.2-3.58-3.95-7.7-4.01v-4.88h28.2v4.88
	c-4.13,0.06-7.7-0.19-7.7,4.01v27.13c0,7.92,0.27,9,7.7,9.15v4.68H25.42z"/>
<g>
	<path fill="#000064" d="M74.14,158.07v-4.68c7.42-0.16,7.7-1.24,7.7-9.15V117.1c0-4.2-3.58-3.95-7.7-4.01v-4.88h28.2v4.88
		c-4.13,0.06-7.7-0.19-7.7,4.01v27.13c0,7.92,0.28,9,7.7,9.15v4.68H74.14z"/>
	<path fill="#D75A00" d="M88.94,98.24c5,0,7.95-4.47,7.57-9.98c-0.39-5.51-3.96-9.98-8.97-9.98c-5.01,0-7.95,4.47-7.57,9.98
		C80.35,93.77,83.94,98.24,88.94,98.24z"/>
</g>
<path fill="#D75A00" d="M171.9,144.03c0,7.23-5.47,14.03-22.63,14.03h-26.42v-4.67c7.43-0.16,7.7-1.24,7.7-9.15v-27.27
	c0-4.21-3.58-3.96-7.7-4.02v-4.94c0,0,7.43,0,8.37,0c10.13,0,16.12-0.54,22.15-0.38c11.11,0.27,15.02,5.65,15.43,11.32
	c0.41,5.65-3.01,11.59-11.61,12.21C167.48,132.07,171.9,137.15,171.9,144.03z M148.08,134.34h-5.15c0,0,0,9.69,0,12.4
	c0,4.98,2.03,5.74,5.53,5.74c2.22,0,9.52-0.78,9.52-8.74C157.97,137.44,154.14,134.34,148.08,134.34z M142.93,128.97
	c0,0,2.53,0,3.69,0c4.41,0,10.27-1.75,10.1-8.16c-0.18-6.95-6.7-7.53-13.79-7.09V128.97z"/>
<path fill="#D75A00" d="M205.12,131.3c0-13.35,10.66-20.1,17.66-20.14c5.08-0.04,6.13,2.42,6.13,3.63c0,2.03-1.31,2.08-2.61,3.22
	c-3.99,3.49-1.19,10.43,4.85,10.48c4.49,0.04,8.88-3.46,9.04-8.24c0.27-8.27-7.86-14.23-19.04-14.16
	c-19.33,0.1-29.8,12.65-29.8,25.23c0,15.53,12.19,27.18,28.25,27.41c10.75,0.16,17.89-5.02,20.99-8.27v-7.22
	c-2.6,3.75-9.1,9.62-17.09,9.47C211.06,152.46,205.12,142.05,205.12,131.3z"/>
</svg>
