<?xml version="1.0" encoding="utf-8"?>
<!-- Generator: Adobe Illustrator 27.9.0, SVG Export Plug-In . SVG Version: 6.00 Build 0)  -->
<svg version="1.2" baseProfile="tiny-ps" id="Layer_1" xmlns="http://www.w3.org/2000/svg" xmlns:xlink="http://www.w3.org/1999/xlink"
	 viewBox="0 0 120 120" xml:space="preserve">
	 <title>Shopbop</title>
<g>
	<polygon fill="#EE4A23" points="120,53 120,68.1 120,68.1 120,53 	"/>
	<path fill="#EE4A23" d="M111.9,68.7v2.2c0,3.4,0.7,3.8,1.5,4.4v0.5h-7.7v-0.5c0.8-0.5,1.5-1,1.5-4.4V59.1c0-2.2-1.4-2.9-1.7-3.1
		c0-0.1-0.1-0.1-0.1-0.1v-0.5c2-0.4,4.5-1.9,5.7-3h0.5v2.5c1.2-1,3.6-2.5,5.7-2.5c1,0,1.8,0.2,2.6,0.6V0H0v53.1
		c1.1-0.5,2.3-0.8,3.7-0.8c2.6,0,4.9,0.9,5.7,1.3l-1.4,3.9H7.4c-0.7-2.3-2.3-3.9-4.5-3.9c-1.4,0-2.5,0.7-2.5,1.8
		c0,3.5,9.7,3,9.7,8.6c0,3.5-3.2,5.5-7.2,5.5c-1,0-2-0.1-2.9-0.3V120h120V68.1c-1.2,0.9-2.7,1.4-4.6,1.4
		C113.8,69.5,112.5,69.1,111.9,68.7z M29.2,68.9h-7.7v-0.5c0.8-0.5,1.5-1,1.5-4.4v-6.9c0-1.4-0.7-2.3-2.1-2.3
		c-1.2,0-2.7,0.8-3.2,1.7V64c0,3.3,0.7,3.8,1.5,4.4v0.5h-7.7v-0.5c0.8-0.5,1.5-1,1.5-4.4V64V50.9c0-2.6-1.7-3.2-1.7-3.2v-0.5
		c2-0.4,4.7-1.9,5.9-3h0.5v10.7c0.8-1.2,2.7-2.6,5.1-2.6c2.8,0,4.9,1.8,4.9,4.4v4V64c0,3.3,0.7,3.8,1.5,4.4V68.9z M39.2,69.5
		c-5.7,0-9-4.1-9-8.7s3.5-8.5,9.2-8.5c3.1,0,5.9,1.9,7.1,4.7c0.6,1.1,0.9,2.4,0.9,3.8C47.4,66.5,43.4,69.5,39.2,69.5z M58.4,69.5
		c-1.6,0-2.8-0.4-3.4-0.8v2.2c0,3.4,0.7,3.8,1.5,4.4v0.5h-7.7v-0.5c0.8-0.5,1.5-1,1.5-4.4l0.1-11.8c0-2.2-1.3-2.9-1.7-3.1L48.5,56
		v-0.5c1.9-0.4,4.5-1.9,5.7-3h0.5v2.5c1.2-1,3.6-2.5,5.7-2.5c3.7,0,6.1,3.1,6.1,7.8C66.5,65.1,63.9,69.5,58.4,69.5z M85.2,60.7
		c-0.1,4.7-2.9,8.8-8.7,8.8c-4.1,0-7.6-2.3-7.6-7.7v-1.5v-9.3c0-2.6-1.8-3.2-1.8-3.2v-0.5c2-0.4,4.7-1.9,5.9-3h0.5v10.7
		c1.1-1.1,3.2-2.4,5.3-2.4c4.3,0,6.4,3.2,6.4,7.9V60.7z M96.1,69.5c-5.7,0-9-4.1-9-8.7s3.4-8.5,9.1-8.5c3.1,0,5.9,1.9,7.2,4.7
		c0.6,1.1,0.9,2.4,0.9,3.8C104.3,66.5,100.3,69.5,96.1,69.5z"/>
	<path fill="#EE4A23" d="M114.6,55c-0.7,0-1.4,0.3-1.9,0.6c-0.4,0.3-0.7,0.6-0.8,0.8v0v6.8v0c0,3.6,1.5,5.1,3.2,5.1
		c1.8,0,3.4-2.1,3.4-6.4c0,0,0,0,0,0c0,0,0,0,0,0C118.5,57.4,117.1,55,114.6,55z"/>
	<path fill="#EE4A23" d="M94,53.9c-0.4,0-0.8,0.1-1.1,0.3c0,0,0,0-0.1,0c-0.9,0.6-1.3,1.9-1.3,3.6c0,3,1.3,7.1,3.4,9
		c0.7,0.7,1.6,1.1,2.5,1.1c1.5,0,2.4-1.2,2.4-3.3c0-2.5-0.7-5.1-1.8-7.2C97,55.4,95.6,53.9,94,53.9z"/>
	<path fill="#EE4A23" d="M76.4,55c-1.3,0-2.4,0.8-2.8,1.4v6.3c0,3.7,1.2,5.6,3.3,5.6c0.8,0,1.5-0.3,2-0.9c0.9-1,1.4-2.9,1.4-5.5
		c0-1.6-0.2-3-0.6-4.1C79,56,77.9,55,76.4,55z"/>
	<path fill="#EE4A23" d="M59.3,55.5c-0.5-0.3-1-0.4-1.6-0.4c-0.6,0-1.3,0.2-1.8,0.5c-0.5,0.3-0.9,0.6-1,0.9v6.8
		c0,3.6,1.5,5.1,3.2,5.1c0.2,0,0.4,0,0.7-0.1c0.6-0.2,1.2-0.6,1.6-1.3c0,0,0.1-0.1,0.1-0.1c0,0,0-0.1,0-0.1c0.6-1.1,1-2.6,1-4.7
		C61.5,58.6,60.8,56.4,59.3,55.5z"/>
	<path fill="#EE4A23" d="M37.2,53.9c-0.9,0-1.5,0.4-1.9,1.1c-0.4,0.7-0.6,1.7-0.6,2.8c0,1,0.1,2.2,0.4,3.3c0,0,0,0,0,0
		c0,0.1,0,0.1,0,0.2c0.6,2.5,1.9,4.9,3.5,6c0.6,0.4,1.2,0.6,1.9,0.6c0.9,0,1.6-0.5,2-1.3c0.2-0.5,0.4-1.2,0.4-1.9
		C43,59.6,40.1,53.9,37.2,53.9z"/>
	<path fill="#EE4A23" d="M3.8,68.2c0.9,0,1.8-0.4,2.2-1.1c0.1-0.2,0.2-0.5,0.2-0.8c0-0.8-0.5-1.4-1.2-1.9C3.7,63.6,1.7,63,0,62.1v0
		c0,0,0,0,0,0v4.3c0.2,0.3,0.5,0.5,0.7,0.7C1.6,67.8,2.6,68.2,3.8,68.2z"/>
</g>
</svg>
