<svg xmlns="http://www.w3.org/2000/svg" xmlns:xlink="http://www.w3.org/1999/xlink" version="1.2" viewBox="0 0 283.72 283.72" baseProfile="tiny-ps"><title>Grothe IT-Service GmbH</title><rect width="283.72" height="283.72" fill="#FFFFFF"/><path d="M164.6,249.8c-51.8,0-93.7-42.6-93.7-95.1h45c0,27.3,21.8,49.5,48.7,49.5s17.2-2.4,24.4-6.6l22.5,39.5c-13.8,8.1-29.8,12.7-46.9,12.7" fill="#DADADA"/><path d="M223.2,67.7c25.9,45.5,10.5,103.6-34.3,129.9l-22.5-39.5c23.3-13.6,31.3-43.9,17.8-67.5-4.4-7.8-10.6-13.9-17.8-18.1l22.5-39.5c13.8,8.1,25.8,19.8,34.3,34.8" fill="#DADADA"/><path d="M38.4,107.2c25.9-45.5,83.2-61.1,128-34.8l-22.5,39.5c-23.3-13.7-53.1-5.6-66.6,18.1-4.4,7.8-6.6,16.3-6.5,24.7H25.9c0-16.2,4-32.5,12.6-47.5" fill="#E06E0A"/></svg>