<?xml version="1.0" encoding="UTF-8"?>
<!-- Generator: visioncortex VTracer 0.6.3 -->
<svg version="1.2" baseProfile="tiny-ps" id="Layer_1" xmlns="http://www.w3.org/2000/svg" xmlns:xlink="http://www.w3.org/1999/xlink" width="300" height="300">
	<title>AlphaSignal</title>
<path d="M0 0 C99 0 198 0 300 0 C300 99 300 198 300 300 C201 300 102 300 0 300 C0 201 0 102 0 0 Z " fill="#0E0E0E" transform="translate(0,0)"/>
<path d="M0 0 C1.23 -0.01 2.47 -0.01 3.74 -0.02 C5.72 -0.01 5.72 -0.01 7.74 -0.01 C9.11 -0.01 10.49 -0.01 11.87 -0.01 C14.74 -0.02 17.62 -0.01 20.49 -0 C24.18 0.01 27.87 0 31.55 -0.01 C34.39 -0.02 37.23 -0.01 40.07 -0.01 C41.43 -0.01 42.79 -0.01 44.15 -0.01 C46.04 -0.02 47.94 -0.01 49.84 0 C50.91 0 51.99 0 53.11 0 C55.66 0.26 55.66 0.26 57.66 2.26 C57.92 4.58 57.92 4.58 57.93 7.53 C57.94 9.21 57.94 9.21 57.95 10.92 C57.95 12.77 57.95 12.77 57.95 14.66 C57.96 15.95 57.96 17.25 57.97 18.58 C57.99 22.14 57.99 25.7 57.99 29.26 C58 31.48 58 33.71 58 35.93 C58.02 43.69 58.03 51.46 58.03 59.22 C58.03 66.45 58.05 73.68 58.08 80.91 C58.11 87.12 58.12 93.33 58.12 99.54 C58.12 103.24 58.12 106.95 58.14 110.66 C58.17 114.8 58.16 118.94 58.15 123.08 C58.16 124.3 58.17 125.52 58.18 126.78 C58.12 134.66 57.21 140.23 51.84 146.32 C51.27 146.77 50.69 147.23 50.1 147.7 C49.52 148.17 48.94 148.64 48.34 149.13 C44.57 151.66 41.01 151.38 36.62 151.37 C35.9 151.37 35.19 151.37 34.46 151.37 C32.1 151.37 29.75 151.36 27.4 151.36 C25.77 151.35 24.13 151.35 22.5 151.35 C18.2 151.35 13.91 151.34 9.61 151.33 C5.23 151.32 0.85 151.31 -3.54 151.31 C-12.14 151.3 -20.74 151.28 -29.34 151.26 C-28.23 149.51 -27.12 147.75 -26.01 146 C-25.09 144.54 -25.09 144.54 -24.14 143.04 C-22.68 140.78 -21.17 138.57 -19.59 136.38 C-17.36 133.39 -17.36 133.39 -15.78 130.57 C-14.17 127.98 -12.69 126.22 -10.34 124.26 C-7.67 123.76 -7.67 123.76 -4.66 123.75 C-3.56 123.74 -2.47 123.72 -1.35 123.7 C-0.21 123.7 0.93 123.7 2.1 123.7 C4.35 123.69 6.59 123.67 8.84 123.63 C10.34 123.63 10.34 123.63 11.86 123.63 C15.33 123.17 16.95 122.5 19.66 120.26 C25.08 112.8 24.22 104.29 24.16 95.47 C24.16 93.83 24.16 92.19 24.16 90.56 C24.16 87.14 24.15 83.73 24.13 80.31 C24.1 75.94 24.1 71.57 24.11 67.2 C24.12 63.83 24.11 60.46 24.1 57.08 C24.1 55.47 24.09 53.86 24.1 52.25 C24.1 50 24.09 47.74 24.06 45.49 C24.06 43.57 24.06 43.57 24.05 41.62 C23.63 38.02 22.83 36.12 20.66 33.26 C17.65 31.81 14.93 31.74 11.66 32.26 C8.41 34.07 6.12 36.5 3.66 39.26 C3.06 39.93 2.46 40.6 1.84 41.29 C-4.08 48.33 -9.08 56.09 -14.23 63.7 C-17.23 68.12 -20.35 72.42 -23.52 76.72 C-25.53 79.52 -27.44 82.38 -29.34 85.26 C-31.82 89.01 -34.36 92.7 -37.03 96.32 C-40.62 101.21 -44.05 106.19 -47.47 111.2 C-52.18 118.12 -56.93 125.02 -61.72 131.88 C-62.27 132.69 -62.83 133.49 -63.41 134.32 C-74.12 149.65 -74.12 149.65 -77.34 151.26 C-78.73 151.35 -80.12 151.38 -81.52 151.37 C-82.81 151.37 -82.81 151.37 -84.12 151.37 C-85.05 151.37 -85.98 151.36 -86.94 151.36 C-87.89 151.36 -88.85 151.35 -89.83 151.35 C-92.87 151.35 -95.92 151.33 -98.97 151.32 C-101.03 151.32 -103.09 151.31 -105.15 151.31 C-110.22 151.3 -115.28 151.28 -120.34 151.26 C-117.05 145.43 -113.43 140.01 -109.56 134.54 C-107.71 131.81 -106.09 129.05 -104.48 126.18 C-102.13 122.23 -99.43 118.51 -96.78 114.76 C-95.86 113.45 -95.86 113.45 -94.92 112.11 C-92.03 108 -89.11 103.93 -86.12 99.9 C-85.63 99.24 -85.13 98.58 -84.63 97.89 C-83.72 96.68 -82.81 95.48 -81.89 94.28 C-79.24 90.75 -77.25 87.18 -75.34 83.21 C-73.78 80.17 -71.8 77.5 -69.78 74.76 C-68.9 73.55 -68.02 72.34 -67.14 71.13 C-66.69 70.51 -66.23 69.88 -65.76 69.24 C-63.28 65.78 -60.87 62.27 -58.47 58.76 C-58.01 58.1 -57.56 57.44 -57.1 56.76 C-52.2 49.71 -52.2 49.71 -47.72 42.38 C-47.26 41.68 -46.81 40.98 -46.34 40.26 C-45.68 40.26 -45.02 40.26 -44.34 40.26 C-44.26 39.26 -44.26 39.26 -44.18 38.24 C-42.98 33.98 -40.53 31.04 -37.84 27.57 C-37.3 26.86 -36.75 26.15 -36.19 25.43 C-16.53 0.02 -16.53 0.02 0 0 Z " fill="#DCDCDC" transform="translate(170.3408203125,73.7412109375)"/>
</svg>
