<?xml version="1.0" encoding="UTF-8" standalone="yes"?>
<svg baseProfile="tiny-ps" width="288pt" height="288pt" viewBox="0 0 288 288" version="1.2" xmlns="http://www.w3.org/2000/svg">
  <title>Personalization Mall</title>
  <g id="surface1">
    <path d="M 262.679688 202.6875 C 246.503906 198.695313 241.476563 184.339844 239.445313 169.980469 C 236.933594 152.230469 239.339844 147.808594 239.796875 130.011719 C 239.925781 125.003906 239.90625 119.988281 239.578125 114.988281 C 239.472656 113.351563 239.148438 111.4375 237.648438 110.695313 C 236.785156 110.269531 235.746094 110.367188 234.828125 110.65625 C 232.617188 111.347656 230.894531 113.007813 229.339844 114.679688 C 211.453125 133.890625 204.867188 160.253906 195.3125 184.445313 C 194.972656 185.300781 194.605469 186.164063 194.140625 186.960938 C 193.84375 188.03125 193.386719 189.046875 192.449219 189.703125 C 190.84375 190.824219 188.570313 190.4375 186.609375 189.996094 C 185.738281 189.804688 184.816406 189.585938 184.195313 188.992188 C 183.375 188.214844 183.300781 187.023438 183.289063 185.941406 C 183.203125 176.691406 184.28125 167.464844 184.492188 158.214844 C 184.707031 148.96875 184.019531 139.550781 180.546875 130.863281 C 179.90625 129.257813 178.769531 127.421875 176.902344 127.398438 C 175.898438 127.390625 174.996094 127.9375 174.203125 128.503906 C 167.808594 133.046875 163.777344 139.816406 160.683594 146.664063 C 155.042969 159.171875 151.957031 172.539063 150.273438 185.984375 C 150.109375 187.320313 149.941406 188.691406 149.257813 189.882813 C 148.695313 190.867188 147.6875 191.707031 146.527344 191.921875 C 146.386719 191.953125 146.234375 191.949219 146.089844 191.957031 C 145.714844 192.09375 145.320313 192.191406 144.898438 192.207031 C 144.84375 192.210938 144.789063 192.210938 144.738281 192.210938 C 142.691406 192.210938 140.992188 190.636719 140.90625 188.632813 L 138.519531 132.242188 C 138.433594 130.183594 140.078125 128.445313 142.195313 128.359375 C 144.316406 128.261719 150.449219 128.371094 150.535156 130.429688 L 149.425781 163.203125 C 150.636719 159.875 151.902344 156.566406 153.277344 153.292969 C 157.140625 144.117188 176.96875 104.886719 192.578125 120.679688 C 195.441406 123.574219 196.613281 127.53125 197.378906 131.378906 C 199.070313 139.878906 199.214844 148.492188 198.566406 157.113281 C 202.738281 147.480469 207.113281 137.925781 212.507813 128.894531 C 217.175781 121.078125 224.589844 109.96875 231.898438 104.285156 C 237.804688 99.6875 249.714844 96.171875 254.320313 103.839844 C 257.585938 109.28125 257.714844 114.945313 257.351563 119.960938 C 256.34375 133.980469 254.265625 145.789063 252.6875 159.761719 C 251.601563 169.375 251.824219 174.101563 252.292969 178.417969 C 252.945313 184.46875 252.796875 188.609375 257.160156 193.441406 C 261.484375 198.230469 269.503906 200.5 275.789063 198.851563 C 276.316406 198.714844 276.835938 198.542969 277.351563 198.355469 C 284.199219 181.582031 288 163.238281 288 144 C 288 64.472656 223.53125 0 144 0 C 66.59375 0 3.472656 61.085938 0.160156 137.675781 C 1.09375 138.015625 2.023438 138.351563 2.976563 138.644531 C 12.863281 141.6875 24.050781 141.847656 33.140625 136.90625 C 42.695313 131.714844 48.640625 121.75 52.902344 111.746094 C 57.945313 99.902344 61.289063 87.339844 62.789063 74.554688 C 63.019531 72.597656 63.128906 68.984375 65.273438 68.984375 C 66.210938 68.984375 67.007813 69.035156 67.945313 69.058594 C 69.800781 69.101563 71.652344 69.148438 73.507813 69.195313 C 74.179688 69.210938 74.910156 69.246094 75.4375 69.664063 C 76.191406 70.269531 76.226563 71.386719 76.191406 72.355469 C 75.804688 83.675781 75.375 96.65625 74.933594 110.003906 C 84.644531 94.421875 101.667969 72.042969 117.125 76.621094 C 124.070313 78.679688 128.632813 84.46875 130.898438 91.128906 C 133.972656 100.167969 134.917969 110.617188 133.640625 119.945313 C 132.414063 128.886719 128.03125 137.488281 122.425781 144.667969 C 122.398438 144.703125 122.371094 144.734375 122.347656 144.769531 C 117.984375 150.316406 112.035156 154.445313 105.144531 156.117188 C 101.738281 156.945313 98.203125 157.179688 94.710938 156.921875 C 90.929688 156.644531 86.207031 155.207031 82.28125 153.648438 C 73.382813 150.109375 77.15625 147.597656 79.507813 148.355469 C 95.367188 153.453125 107.507813 152.445313 112.601563 144.574219 C 114.214844 142.082031 115.671875 139.554688 116.535156 136.691406 C 117.421875 133.75 117.835938 130.6875 118.160156 127.636719 C 119.1875 118.039063 119.710938 107.640625 115.875 98.550781 C 114.132813 94.414063 109.804688 89.988281 106.050781 88.890625 C 96.136719 85.992188 84.046875 105.625 74.488281 123.539063 C 73.152344 163.976563 71.835938 203.890625 71.492188 208.519531 C 71.367188 210.179688 71.117188 222.953125 70.742188 224.578125 C 70.046875 227.566406 67.496094 227.308594 66.277344 227.101563 C 63.644531 226.65625 63.128906 225.207031 63.070313 220.484375 C 62.582031 181.15625 63.21875 141.816406 63.292969 102.480469 C 57.890625 117.160156 50.109375 132.183594 36.339844 139.605469 C 26.449219 144.9375 14.507813 145.609375 3.542969 143.144531 C 2.367188 142.878906 1.203125 142.5625 0.046875 142.234375 C 0.0390625 142.824219 0 143.40625 0 144 C 0 223.53125 64.46875 288 144 288 C 202.566406 288 252.929688 253.015625 275.429688 202.828125 C 271.367188 203.71875 267.085938 203.773438 262.679688 202.6875 " stroke="none" fill-rule="nonzero" fill="rgb(67.799377%,12.199402%,12.199402%)" fill-opacity="1"/>
    <path d="M 275.789063 198.851563 C 269.503906 200.5 261.484375 198.230469 257.160156 193.441406 C 252.796875 188.609375 252.945313 184.46875 252.292969 178.417969 C 251.824219 174.101563 251.601563 169.375 252.6875 159.761719 C 254.265625 145.789063 256.34375 133.980469 257.351563 119.960938 C 257.714844 114.945313 257.585938 109.28125 254.316406 103.839844 C 249.714844 96.171875 237.804688 99.6875 231.894531 104.285156 C 224.589844 109.96875 217.175781 121.078125 212.507813 128.894531 C 207.109375 137.925781 202.738281 147.480469 198.5625 157.113281 C 199.214844 148.492188 199.070313 139.878906 197.378906 131.378906 C 196.613281 127.53125 195.441406 123.574219 192.578125 120.679688 C 176.96875 104.886719 157.140625 144.117188 153.277344 153.292969 C 151.898438 156.566406 150.636719 159.875 149.425781 163.203125 L 150.535156 130.429688 C 150.449219 128.371094 144.316406 128.261719 142.195313 128.359375 C 140.078125 128.445313 138.433594 130.183594 138.519531 132.242188 L 140.90625 188.632813 C 140.992188 190.636719 142.691406 192.210938 144.738281 192.210938 C 144.789063 192.210938 144.84375 192.210938 144.898438 192.207031 C 145.320313 192.191406 145.714844 192.09375 146.089844 191.957031 C 146.234375 191.949219 146.386719 191.953125 146.527344 191.921875 C 147.6875 191.707031 148.695313 190.867188 149.257813 189.882813 C 149.941406 188.691406 150.105469 187.320313 150.273438 185.984375 C 151.957031 172.539063 155.042969 159.171875 160.683594 146.664063 C 163.777344 139.816406 167.808594 133.046875 174.203125 128.503906 C 174.996094 127.9375 175.898438 127.390625 176.902344 127.398438 C 178.769531 127.421875 179.902344 129.257813 180.546875 130.863281 C 184.019531 139.550781 184.707031 148.96875 184.492188 158.214844 C 184.277344 167.464844 183.203125 176.691406 183.289063 185.941406 C 183.300781 187.023438 183.375 188.214844 184.191406 188.992188 C 184.816406 189.582031 185.734375 189.804688 186.605469 189.996094 C 188.570313 190.4375 190.84375 190.824219 192.449219 189.703125 C 193.386719 189.046875 193.84375 188.03125 194.140625 186.960938 C 194.605469 186.164063 194.972656 185.300781 195.3125 184.445313 C 204.867188 160.253906 211.453125 133.890625 229.335938 114.679688 C 230.894531 113.007813 232.617188 111.347656 234.828125 110.65625 C 235.746094 110.367188 236.785156 110.269531 237.644531 110.695313 C 239.148438 111.4375 239.472656 113.351563 239.578125 114.988281 C 239.90625 119.988281 239.925781 125.003906 239.796875 130.011719 C 239.339844 147.808594 236.933594 152.230469 239.445313 169.980469 C 241.476563 184.339844 246.503906 198.695313 262.679688 202.6875 C 267.085938 203.773438 271.367188 203.71875 275.429688 202.828125 C 276.09375 201.347656 276.738281 199.859375 277.351563 198.355469 C 276.835938 198.542969 276.316406 198.714844 275.789063 198.851563 " stroke="none" fill-rule="nonzero" fill="rgb(100%,100%,100%)" fill-opacity="1"/>
    <path d="M 130.894531 91.128906 C 128.632813 84.46875 124.070313 78.679688 117.125 76.621094 C 101.667969 72.042969 84.644531 94.421875 74.933594 110.003906 C 75.375 96.65625 75.804688 83.675781 76.191406 72.355469 C 76.226563 71.386719 76.191406 70.269531 75.433594 69.664063 C 74.910156 69.246094 74.179688 69.210938 73.507813 69.191406 C 71.652344 69.148438 69.800781 69.101563 67.945313 69.058594 C 67.007813 69.035156 66.207031 68.984375 65.273438 68.984375 C 63.128906 68.984375 63.019531 72.597656 62.789063 74.550781 C 61.289063 87.335938 57.945313 99.902344 52.902344 111.746094 C 48.640625 121.75 42.695313 131.714844 33.140625 136.90625 C 24.050781 141.847656 12.863281 141.6875 2.976563 138.644531 C 2.023438 138.351563 1.09375 138.015625 0.160156 137.675781 C 0.09375 139.1875 0.0625 140.710938 0.0429688 142.234375 C 1.203125 142.5625 2.367188 142.878906 3.542969 143.144531 C 14.503906 145.609375 26.453125 144.9375 36.339844 139.605469 C 50.109375 132.183594 57.890625 117.160156 63.292969 102.480469 C 63.21875 141.816406 62.582031 181.15625 63.070313 220.484375 C 63.128906 225.207031 63.644531 226.65625 66.277344 227.101563 C 67.496094 227.308594 70.046875 227.566406 70.742188 224.578125 C 71.117188 222.953125 71.367188 210.179688 71.492188 208.519531 C 71.832031 203.890625 73.152344 163.976563 74.488281 123.539063 C 84.046875 105.625 96.136719 85.992188 106.046875 88.890625 C 109.804688 89.988281 114.132813 94.414063 115.875 98.550781 C 119.710938 107.636719 119.1875 118.039063 118.160156 127.636719 C 117.835938 130.6875 117.421875 133.75 116.535156 136.691406 C 115.671875 139.550781 114.214844 142.082031 112.601563 144.574219 C 107.507813 152.445313 95.367188 153.453125 79.507813 148.355469 C 77.15625 147.597656 73.386719 150.109375 82.28125 153.648438 C 86.207031 155.207031 90.933594 156.644531 94.710938 156.921875 C 98.203125 157.179688 101.738281 156.945313 105.144531 156.117188 C 112.035156 154.445313 117.984375 150.316406 122.347656 144.769531 C 122.371094 144.734375 122.394531 144.699219 122.421875 144.667969 C 128.03125 137.484375 132.414063 128.882813 133.640625 119.945313 C 134.917969 110.617188 133.972656 100.167969 130.894531 91.128906 " stroke="none" fill-rule="nonzero" fill="rgb(100%,100%,100%)" fill-opacity="1"/>
    <path d="M 258.8125 211.964844 L 258.589844 212.332031 C 234.476563 252.800781 190.371094 277.941406 143.488281 277.941406 C 74.644531 277.941406 17.414063 226.289063 10.359375 157.800781 L 10.289063 157.121094 L 8.25 157.105469 L 8.332031 157.945313 C 11.746094 191.210938 27.324219 221.992188 52.199219 244.621094 C 77.253906 267.414063 109.675781 279.96875 143.488281 279.96875 C 191.210938 279.96875 236.042969 254.351563 260.496094 213.109375 L 261.171875 211.964844 " stroke="none" fill-rule="nonzero" fill="rgb(100%,100%,100%)" fill-opacity="1"/>
    <path d="M 143.488281 8.03125 C 74.164063 8.03125 16.09375 59.972656 8.414063 128.851563 L 8.320313 129.703125 L 10.371094 129.683594 L 10.445313 129.015625 C 18.035156 61.199219 75.230469 10.058594 143.488281 10.058594 C 217.34375 10.058594 277.429688 70.144531 277.429688 144 C 277.429688 157.980469 275.21875 171.863281 270.851563 185.265625 L 270.523438 186.269531 L 272.667969 186.25 L 272.835938 185.730469 C 277.230469 172.175781 279.460938 158.132813 279.460938 144 C 279.460938 69.027344 218.464844 8.03125 143.488281 8.03125 " stroke="none" fill-rule="nonzero" fill="rgb(100%,100%,100%)" fill-opacity="1"/>
    <path d="M 283.46875 239.558594 C 283.46875 240.777344 283.242188 241.929688 282.785156 243.015625 C 282.328125 244.097656 281.707031 245.039063 280.914063 245.84375 C 280.121094 246.644531 279.183594 247.28125 278.097656 247.757813 C 277.015625 248.230469 275.84375 248.46875 274.585938 248.46875 C 273.328125 248.46875 272.160156 248.234375 271.085938 247.769531 C 270.011719 247.304688 269.078125 246.671875 268.285156 245.871094 C 267.492188 245.070313 266.871094 244.128906 266.425781 243.054688 C 265.980469 241.980469 265.757813 240.832031 265.757813 239.609375 L 265.757813 239.558594 C 265.757813 238.335938 265.984375 237.183594 266.441406 236.097656 C 266.894531 235.015625 267.523438 234.070313 268.3125 233.269531 C 269.105469 232.46875 270.042969 231.828125 271.128906 231.355469 C 272.210938 230.882813 273.386719 230.644531 274.640625 230.644531 C 275.898438 230.644531 277.0625 230.878906 278.140625 231.34375 C 279.214844 231.808594 280.148438 232.441406 280.941406 233.242188 C 281.734375 234.042969 282.351563 234.984375 282.800781 236.058594 C 283.246094 237.132813 283.46875 238.28125 283.46875 239.503906 Z M 283.742188 235.6875 C 283.234375 234.496094 282.535156 233.453125 281.652344 232.558594 C 280.769531 231.664063 279.726563 230.960938 278.523438 230.441406 C 277.320313 229.917969 276.027344 229.660156 274.640625 229.660156 C 273.257813 229.660156 271.957031 229.925781 270.746094 230.453125 C 269.535156 230.984375 268.480469 231.699219 267.589844 232.601563 C 266.695313 233.503906 265.992188 234.550781 265.484375 235.742188 C 264.972656 236.9375 264.71875 238.207031 264.71875 239.558594 L 264.71875 239.609375 C 264.71875 240.960938 264.972656 242.230469 265.484375 243.421875 C 265.992188 244.617188 266.691406 245.660156 267.574219 246.554688 C 268.460938 247.449219 269.503906 248.152344 270.703125 248.671875 C 271.90625 249.191406 273.199219 249.453125 274.585938 249.453125 C 275.972656 249.453125 277.269531 249.1875 278.480469 248.660156 C 279.695313 248.132813 280.746094 247.414063 281.636719 246.511719 C 282.53125 245.613281 283.234375 244.5625 283.742188 243.371094 C 284.253906 242.175781 284.507813 240.90625 284.507813 239.558594 L 284.507813 239.503906 C 284.507813 238.152344 284.253906 236.882813 283.742188 235.6875 " stroke="none" fill-rule="nonzero" fill="rgb(67.799377%,12.199402%,12.199402%)" fill-opacity="1"/>
    <path d="M 275.160156 239.148438 L 272.589844 239.148438 L 272.589844 235.867188 L 275.160156 235.867188 C 275.800781 235.867188 276.296875 236.003906 276.664063 236.277344 C 277.027344 236.550781 277.210938 236.949219 277.210938 237.480469 L 277.210938 237.535156 C 277.210938 238.027344 277.027344 238.417969 276.664063 238.710938 C 276.296875 239 275.800781 239.148438 275.160156 239.148438 M 276.828125 240.539063 C 277.539063 240.339844 278.117188 239.980469 278.5625 239.460938 C 279.011719 238.941406 279.230469 238.261719 279.230469 237.425781 L 279.230469 237.371094 C 279.230469 236.460938 278.949219 235.738281 278.386719 235.210938 C 277.640625 234.464844 276.589844 234.089844 275.242188 234.089844 L 270.621094 234.089844 L 270.621094 244.449219 L 272.589844 244.449219 L 272.589844 240.867188 L 274.75 240.867188 L 277.265625 244.449219 L 279.613281 244.449219 " stroke="none" fill-rule="nonzero" fill="rgb(67.799377%,12.199402%,12.199402%)" fill-opacity="1"/>
  </g>
</svg>
