<?xml version="1.0" encoding="utf-8"?>
<!-- Generator: Adobe Illustrator 27.7.0, SVG Export Plug-In . SVG Version: 6.00 Build 0)  -->
<svg version="1.2" baseProfile="tiny-ps" xmlns:xlink="http://www.w3.org/1999/xlink" viewBox="0 0 360 360" xmlns="http://www.w3.org/2000/svg">
  <title>1-800-FLOWERS.COM, INC.</title>

<rect x="0" y="0" fill="#54352C" width="360" height="360" />
<rect x="1.64" y="97.44" fill="none" width="358.73" height="187.11" />
<path fill="#FFFFFF" d="M323.59,147.79c2.98,0.23,8.69-6.97,8.86-11.51c0.11-2.76-1.59-4.82-4.13-4.92  c-2.1-0.08-4.28,1.72-4.37,4.26c-0.09,2.32,1.77,3.06,1.68,5.16c-0.08,1.99-1.62,4.7-3.23,6.19  C322.61,147.42,323.04,147.76,323.59,147.79z" />
<path fill="#FFFFFF" d="M350.2,201.74c-0.34-0.43-0.96-0.5-1.39-0.15c-1.8,1.46-5.26,4.92-12.53,4.92c-2.11,0-4.06-0.21-5.92-0.53  c0.01-0.29,0.02-0.58,0.02-0.87c0-11.83-6.87-21.62-6.87-28.93c0-4.82,3.07-7.01,5.55-7.01c1.02,0,2.34,0.44,3.36,1.75  c1.61-0.44,2.34-1.46,2.34-2.63c0-1.9-2.63-3.65-5.99-3.65c-3.65,0-7.3,2.19-9.35,5.7c-3.8,6.14-25.69,37.33-38.07,37.33  c-6.26,0-6.94-10.13-6.44-15.45c0.58-0.51,1.12-0.98,1.58-1.39l0-0.01c20.45-17.81,41.24-51.57,41.24-64.96  c0-4.09-2.05-6.14-5.26-6.14c-9.64,0-26,21.04-36.08,42.37c-5.08,10.71-8.61,22.07-9.02,32.14c-2.43,2.16-5.04,4.43-7.7,6.58  c-0.63,0.51-0.7,1.3-0.42,2.09c0,0.01,0.01,0.02,0.02,0.03c0.51,0.9,1.46,1.07,2.27,0.43c1.8-1.43,3.85-3.1,5.87-4.78  c0.62,9,4.65,15.51,11.36,15.51c15.88,0,36.26-31.63,39.04-35.14c0.73,7.11,4.76,15.09,4.82,25.22c-3.39-0.87-6.82-1.64-10.83-1.64  c-19.82,0-20.71,23.73-0.61,23.88c0,0,0,0,0,0c0.01,0,0.03,0,0.04,0c0.05,0,0.09,0.01,0.14,0.01l0-0.01  c9.13-0.48,16.82-6.6,18.61-16.7c1.7,0.23,3.62,0.37,5.91,0.37c8.65,0,12.54-5.27,14.25-7.06  C350.47,202.66,350.49,202.12,350.2,201.74z M312.03,123.37c1.02,0,1.86,0.73,1.86,2.19c0,8.07-16.59,41.88-38.29,61.26  c-0.06,0.05-0.12,0.11-0.19,0.16C281.25,161.43,304.12,123.37,312.03,123.37z M310.46,221.45c-12.92-0.29-10.38-15.08,1.03-15.08  c4.79,0,7.87,0.78,10.91,1.62C321.33,216.32,316.52,221.17,310.46,221.45z" />
<path fill="#FFFFFF" d="M101.24,242.32c0,0.23-0.12,0.46-0.38,0.65c-1.69,1.23-3.58,2.04-6.61,2.04c-5.5,0-9.81-3.96-9.81-9.73  c0-5.92,4.38-10,9.85-10c3,0,4.92,0.81,6.61,2c0.23,0.19,0.35,0.38,0.35,0.62c0,0.15-0.04,0.35-0.15,0.54l-1.12,1.69  c-0.15,0.23-0.35,0.35-0.5,0.35c-0.19,0-0.38-0.12-0.58-0.23c-1.23-0.73-2.81-1.42-4.54-1.42c-3.58,0-6.08,2.73-6.08,6.42  c0,3.46,2.46,6.23,6.08,6.23c1.77,0,3.42-0.61,4.62-1.46c0.19-0.12,0.38-0.23,0.54-0.23c0.19,0,0.35,0.12,0.54,0.38l1.08,1.77  C101.2,242.05,101.24,242.2,101.24,242.32z" />
<path fill="#FFFFFF" d="M104.93,235.16c0-5.58,4.31-9.88,9.92-9.88c5.62,0,9.88,4.31,9.88,9.88c0,5.58-4.35,9.85-10.04,9.85  C109.16,245.01,104.93,240.74,104.93,235.16z M120.89,235.16c0-3.65-2.69-6.35-6.08-6.35c-3.42,0-6.04,2.69-6.04,6.35  c0,3.58,2.58,6.31,5.96,6.31C118.12,241.47,120.89,238.74,120.89,235.16z" />
<path fill="#FFFFFF" d="M129.17,235.16c0-5.58,4.31-9.88,9.92-9.88c5.62,0,9.88,4.31,9.88,9.88c0,5.58-4.35,9.85-10.04,9.85  C133.4,245.01,129.17,240.74,129.17,235.16z M145.13,235.16c0-3.65-2.69-6.35-6.08-6.35c-3.42,0-6.04,2.69-6.04,6.35  c0,3.58,2.58,6.31,5.96,6.31C142.37,241.47,145.13,238.74,145.13,235.16z" />
<path fill="#FFFFFF" d="M155.47,219.11h2.04c0.62,0,0.85,0.19,0.85,0.85v23.78c0,0.65-0.23,0.85-0.85,0.85h-2.04  c-0.62,0-0.85-0.19-0.85-0.85v-23.78C154.62,219.3,154.85,219.11,155.47,219.11z M158.93,235.05c0-0.19,0.12-0.35,0.27-0.58l6.73-8  c0.42-0.5,0.73-0.73,1.42-0.73h2.77c0.42,0,0.58,0.15,0.58,0.35c0,0.15-0.08,0.35-0.27,0.58l-7.04,8.19l7.88,8.88  c0.12,0.15,0.19,0.31,0.19,0.46c0,0.19-0.19,0.38-0.58,0.38h-2.92c-0.73,0-1.04-0.19-1.46-0.69l-7.31-8.31  C159.04,235.35,158.93,235.2,158.93,235.05z" />
<path fill="#FFFFFF" d="M177.88,218.85c1.42,0,2.38,1.04,2.38,2.38c0,1.31-0.96,2.35-2.38,2.35c-1.38,0-2.35-1.04-2.35-2.35  C175.53,219.89,176.49,218.85,177.88,218.85z M176.88,225.74h2.04c0.62,0,0.85,0.19,0.85,0.85v17.15c0,0.65-0.23,0.85-0.85,0.85  h-2.04c-0.62,0-0.85-0.19-0.85-0.85v-17.15C176.03,225.93,176.26,225.74,176.88,225.74z" />
<path fill="#FFFFFF" d="M202.35,242.05c0,0.23-0.12,0.46-0.42,0.65c-1.77,1.31-4.19,2.31-7.38,2.31c-5.92,0-9.73-4.31-9.73-9.77  c0-5.81,4.04-9.96,9.46-9.96c5.42,0,9.19,4.12,9.19,9.5v0.65c0,0.5-0.19,0.69-0.65,0.69h-14.15c0.31,3.23,2.65,5.58,6.15,5.58  c2.27,0,4.11-0.85,5.42-1.73c0.23-0.15,0.42-0.23,0.62-0.23c0.19,0,0.35,0.08,0.5,0.35l0.85,1.42  C202.31,241.7,202.35,241.89,202.35,242.05z M194.24,228.43c-2.73,0-4.73,1.73-5.46,4.81h10.73  C199.04,230.39,197.08,228.43,194.24,228.43z" />
<path fill="#FFFFFF" d="M209.08,239.85c0.15,0,0.31,0.08,0.46,0.19c1.54,1.08,3.58,1.85,5.5,1.85c2.23,0,3.77-0.88,3.77-2.35  c0-1.54-1.23-1.96-4.5-2.81c-4.12-1.12-6.38-2.61-6.38-5.88c0-3.61,3.12-5.58,7.04-5.58c2.85,0,5.12,0.69,7,1.96  c0.23,0.15,0.35,0.31,0.35,0.5c0,0.15-0.08,0.31-0.19,0.54l-0.92,1.54c-0.15,0.23-0.31,0.31-0.46,0.31c-0.15,0-0.31-0.04-0.5-0.15  c-1.46-0.81-3.19-1.58-5.19-1.58c-1.85,0-3.31,0.81-3.31,2.27c0,1.54,1.58,2.23,4.46,2.96c4.5,1.12,6.42,2.46,6.42,5.77  c0,3.58-2.92,5.61-7.61,5.61c-2.88,0-5.46-0.81-7.27-2.19c-0.23-0.19-0.35-0.35-0.35-0.54c0-0.15,0.08-0.31,0.23-0.54l1-1.54  C208.77,239.97,208.92,239.85,209.08,239.85z" />
<path fill="#FFFFFF" d="M259.76,171.11c-0.33,0-0.67,0.06-1,0.14c-0.25,0.06-0.5,0.15-0.75,0.27c-0.53,0.24-1.08,0.58-1.56,1.09  c-1.77,1.87-8.62,21.08-10.41,23.77c-1.11,1.68-6.7,10.89-13.04,10.89c-6.53,0-3.26-10.64-1.96-14.01c0.53-1.47,8.8-16.37,8.8-20.37  c0-1.76-0.79-3.06-2.18-3.74c-0.7-0.35-1.55-0.54-2.54-0.54c-0.41,0-0.86,0.04-1.34,0.1c-0.12,0.02-0.25,0.04-0.38,0.06  c-0.44,0.07-0.89,0.15-1.38,0.28c-0.02,0.72-0.1,1.45-0.2,2.18c-1.17,8.45-9.36,19.97-10.46,28.63c-0.04,0.23-0.08,0.47-0.11,0.71  c-4.37,5.52-8.87,10.18-13.44,10.18c-2.32,0-3.48-1.45-3.48-3.62c0-7.97,9.48-18.89,9.66-25.58c0.13-4.63-8.26-6.95-13.33-12.02  c0.01-0.02,0.01-0.03,0.02-0.05c1.72-3.32,2.59-6.48,2.59-8.79c0-4.2-2.46-6.23-4.93-6.23c-3.33,0-6.23,3.33-6.23,7.53  c0,3.06,2.01,5.94,4.52,8.49c-4.18,8.36-19.21,36.65-33.75,36.65c-6.48,0-8.59-5.13-8-11.53c24.47-2.52,33.65-28.53,16.93-28.53  l0,0.01c-0.04,0-0.08-0.01-0.12-0.01c-13.19,0-24.91,17.08-25.25,29.92c-5.37,5.57-10.85,10.55-14.84,10.55  c-2.5,0-3.52-1.17-3.52-3.23c0-6.02,8.44-23.59,8.44-28.29c0-2.94-2.64-4.7-5.72-4.7c-7.48,0-16.59,8.51-24.36,16.44  c2.35-6.02,4.7-11.74,6.31-15.7c13.65-10.27,33.46-28.47,34.34-44.61c0.29-5.28-2.05-8.37-5.72-8.37  c-12.47,0-27.15,31.55-32.29,43.14c-1.91,4.12-9.44,22.35-14.01,35.53c-12.26,12.11-30.59,22.88-45.28,22.88  c-20.84,0-29.63-15.92-29.63-34.88c0-38.79,37.55-71.83,62.73-71.83c9.99,0,16.79,5.21,16.79,14.76c0,11.58-10.12,24.94-24.28,24.94  c-3.18,0-6.66-0.87-10.13-2.61c-4.49,5.07,0.14,8.97,7.96,8.97c16.5,0,31.84-15.34,31.84-30.83c0-13.17-9.84-19.83-23.3-19.83  c-30.98,0-71.5,34.59-71.5,77.15c0,21.71,11.29,40.38,36.62,40.38c19.69,0,35.75-11.7,45.77-21.63c-0.74,2.57-1.18,4.57-1.18,5.68  c0,2.49,1.61,3.67,3.52,3.67c1.03,0,2.35-0.29,3.52-1.03c0.88-4.55,2.48-10.67,4.83-17.13c6.9-8.37,18.35-20.25,23.92-20.25  c1.03,0,1.47,0.44,1.47,1.32c0,3.38-8.73,20.22-8.73,27.7c0,4.84,3.23,7.34,8.22,7.34c6.28,0,12.99-5.4,18.55-11.17  c1.18,6.44,5.49,11.06,12.89,11.06c18.65,0,34.55-29.36,39.49-39.59c3.61,3.14,7.26,5.62,7.26,7.08c0,6.16-10.48,15.93-10.48,27.95  c0,4.78,2.9,8.4,8.55,8.4c6.05,0,11.47-4.74,16.87-11.06c0.71,3.99,3.2,7.79,9.02,7.79c8.02,0,13.42-7.43,16.83-12.21  c-0.9,3.74-4.69,15.72-7.75,24.11l0.02-0.02c-2.96,8.54-12.16,42.21-35.42,42.58c-14.96,0.23-15.46-12.18-14.86-16.56  c0.19-1.41-0.48-1.67-1.23-1.68c-0.88-0.01-2.03,0-3.17,0c-1.25,0-1.83,0.3-1.96,1.27c-0.96,7.04,2.91,22.22,20.45,22.22  c31.44,0,43.61-46.96,46.95-57.43c5.1-15.99,8.32-28.41,13.81-41.34C263.01,172.29,261.39,171.11,259.76,171.11z M172.58,171.02  c0.01,0,0.03-0.01,0.05-0.01l0,0.01c8.89,0,0.27,18.32-17.14,20.91C157.74,182.06,165.17,171.02,172.58,171.02z M141.5,123.47  c1.47,0,2.05,1.61,1.91,3.52c-0.29,6.16-8.51,23.19-28.18,38.45C122.42,148.12,135.63,123.47,141.5,123.47z M198.35,166.61  c-1.45-2.32-1.88-4.06-1.88-5.36c0-1.59,1.01-2.61,1.88-2.61c0.87,0,1.59,0.72,1.59,2.32C199.94,162.12,199.51,164.01,198.35,166.61  z" />
</svg>