<?xml version="1.0" encoding="UTF-8" standalone="yes"?>
<svg version="1.2" viewBox="0 0 360 360" xml:space="preserve" baseProfile="tiny-ps" xmlns="http://www.w3.org/2000/svg">
  <title>bimi-svg-tiny-12-ps</title>
  <rect class="st0" width="360" height="360" fill="#213368"/>
  <path class="st1" d="M254.5,118.2l-1-9.2l-1.9-2.3l7.7-0.8l2.4,1.1l8.2-3.8l-9.6-1.2l-1.6,1.9l-10.5,1.2C218.4,16.3,150,26,150,26&#xA;&#x9;l-1.6,1.2l2.2,0.3l2.7,57.7l-5.2-3.4c0,0-1,0.7-2.6,0c-2.6-1.1-10.1-2.6-15.1-1.9c-2.5,0.4-7.8,2.1-8.4,5.4c0,0,5-1.3,7.8,0.1&#xA;&#x9;c2.5,1.3,7,2.8,10.4,1.3c3.4-1.5,4-0.7,4-0.7l-0.8,2.1l-12.5,7.2l8.2,8.8l5.9,10.2l-30.3,1.1c0,0-4.3-0.3-7,5.9c0,0-2.6,1.7-3.3,2.9&#xA;&#x9;c-0.7,1.2-1.4,5.2,3,6.7c4.4,1.5,6.2,2.5,6.2,2.5s12.1,4.6,17.5,5.6c5.4,1.1,16.5,4.5,16.5,4.5l19.8,22.4c0,0,1,7,2.3,8.9l1.4,3.8&#xA;&#x9;l-6.9,12.1c0,0-12.6,8-16.6,13.8c-4,5.8-16.7,25.6-16.7,25.6s-1.4,2.5-0.9,3.7c0.4,1.3,1.5,3.6,1.5,3.6l3.7,5.1l4.2,1.6&#xA;&#x9;c0,0,3.9-0.3,5.9,2.5l17.1,8.8l11.2,8.4l2.8,4.8l-0.1,1.7l-3.3,8.5l-3.6,2l-3.2,0.5c0,0-1.1-0.1-1,1.9l-0.1,2.6c0,0,2.2,1.2,3.7,1.2&#xA;&#x9;c1.5,0,5.5-0.8,5.5-0.8l6.9-1.2c0,0,1.5-1,2.4-2.7c0,0,2.7-3.8,5.9-3.8l3.2,9.3l2.7,17.1l-0.6,18.4l2.5,5.7c0,0,1.7,2.5,4.6,2.5h9.6&#xA;&#x9;c0,0,3.6-1.1,3.2-6.3l-0.2-7.6l-4.7-12.5l0.4-4.1l-3.3-16l-1.8-29.1c0,0-1-8.5-4.7-11.7l-1.8-5v-7.8l6.1-9.9c0,0,3.9-6.6,6-11.2&#xA;&#x9;l1.9-4.2l2.3-11.3l-1.3-4.4l28.8,34l-1.1,1.9l2.6,0.5c0,0,41-56.5,9.9-107.6L254.5,118.2z M178.4,232l-1,3.2l-1.3,5.8l-5.1-3.2&#xA;&#x9;l-9.7-6.3l-2.8-2.9c0,0,19.2-13.4,21.4-16.7l0.5,1.9C180.5,213.9,178,228.1,178.4,232 M190.5,111.2c0,0-3.7-3.9-7.9-4&#xA;&#x9;c-4.2-0.2-11.8,4.9-11.8,4.9l-0.5-1.3c0,0,0.6-2.1,0.8-2.8c0.2-0.7-0.4-3.6-0.4-3.6c14.9-1.6,13.6-6.2,13.6-6.2l-14.4-5l-7.1-6.8&#xA;&#x9;l-6.5-1.1l-3.4-57.6c0,0,67-2,88.7,78L190.5,111.2z M192.9,113.1l47.3-5.3l-0.1-0.3l-2.1,1.3l-34.4,7L192.9,113.1z M243.4,222.1&#xA;&#x9;l-30.3-36.3l-5.2-10.6c0,0,0.3-10.9,0.2-12.5c-0.2-1.6-2.6-8.4-2.9-10.2c-0.4-1.8-0.5-13.1-0.5-13.1l-1.1-5.4l14.6-1.9&#xA;&#x9;c0,0,2.3-0.5,6-5.5l14.9-4.7l7.8-0.3C246.8,121.5,277.2,161.4,243.4,222.1" fill="#BFF205"/>
</svg>