<?xml version="1.0" encoding="UTF-8"?>
<svg xmlns="http://www.w3.org/2000/svg" xmlns:xlink="http://www.w3.org/1999/xlink" baseProfile="tiny-ps" version="1.2" viewBox="0 0 96 96">
  <title>OpenSnow</title>
  <defs>
    <linearGradient id="linear-gradient" x1="1.39" y1="92.51" x2="98.24" y2=".03" gradientUnits="userSpaceOnUse">
      <stop offset=".31" stop-color="#fe9a4a"/>
      <stop offset="1" stop-color="#fed073"/>
    </linearGradient>
  </defs>
  <rect width="96" height="96" fill="url(#linear-gradient)" stroke-width="0"/>
  <g>
    <path d="M86.75,48.03c0,21.37-17.46,39.06-39.4,38.72C-3.42,84.03-3.17,11.32,48.02,9.25c21.36,0,38.73,17.39,38.73,38.78ZM26.02,74.16c2.63-3.27,5.23-6.51,7.87-9.79,1.4,1.89,2.75,3.72,4.11,5.56-2.19,2.66-4.37,5.31-6.58,8,.7.35,1.34.65,1.97,1,.3.16.46.14.69-.14,5.03-6.07,10.03-12.1,15.08-18.16,4.54,6.16,8.96,12.15,13.49,18.3,10.05-4.83,17.33-14.31,19.07-25.33-2.32.15-4.56.05-6.87.08-.31,0-.48.09-.62.36-1.02,1.81-2.07,3.59-3.12,5.38-.26.44-.66.69-1.17.61-1-.11-1.18-1.22-.89-2.02.94-2.92,1.9-5.79,2.87-8.71,3.38.83,6.8,1.11,10.07,2.28.32-3.24.36-6.66-.46-9.8-1.48-1.65-2.96-3.31-4.45-4.94-.15-.16-.41-.28-.63-.3-3.41-.48-7.04-.11-10.29-1.37-2.7-2.28,8.34-2.44,9.44-2.55.86-.04,1.53-.19,2.02-.94.16-.24.22-.38.07-.64-1.44-2.48-3.15-4.76-5.15-6.82-.48-.49-.55-.47-.94.09-1.48,2.15-2.94,4.3-4.47,6.41-.46.63-1.07,1.17-1.68,1.68-.2.16-.68.2-.89.07-.63-.59-.19-1.72.05-2.42,1.02-2.31,2.03-4.62,3.16-6.88.66-1.12.58-2.46-.4-3.3-2.32-1.29-4.52-2.78-7.01-3.73-.6,1.59-1.02,3.19-1.62,4.78-.26.71-.29,1.32.16,1.96,1.29,2.42,2.28,5.02,3.4,7.53.29.72.63,2.56-.71,2.14-.71-.34-1.25-1.01-1.74-1.6-1.57-2.21-3.11-4.45-4.68-6.66-.13-.19-.38-.37-.61-.42-2.25-.61-4.7-.72-6.84-1.63-.92-.62-.51-2.12.63-2.13,2.09-.03,4.19-.02,6.28-.02.31,0,.48-.1.63-.36.85-1.51,1.7-2.93,2.57-4.45-.47-.13-.88-.24-1.32-.36-.55,1.66-1.09,3.27-1.62,4.87-3.12-.56-6.2-1.25-9.3-1.92-.72-.17-1.15-.78-1.08-1.39.08-.66.55-1.04,1.33-1.04,2.03-.01,4.06,0,6.09-.02.66.02.76-.72,1.07-1.17C19.88,9.16-.65,51.26,26.02,74.16Z" fill="#fff" stroke-width="0"/>
    <path d="M66.26,53.82c.57-2.09,1.32-4.23,1.98-6.31.1-.29.06-.52-.07-.79-1.31-2.99-3.39-5.95-4.13-9.12-.08-.71.57-1.48,1.24-.84,2.58,2.24,4.28,5.25,6.34,7.95.15.2.42.38.66.43,2.03.4,4.07.75,6.1,1.17.41.08.85.36,1.11.68.51.64.16,1.55-.65,1.71-2.19.21-4.43.11-6.64.18-.29,0-.44.1-.58.35-1.01,1.79-2.03,3.58-3.05,5.36-.69,1.25-2.36.59-2.29-.77Z" fill="#fff" stroke-width="0"/>
    <path d="M44.67,42.13c-1.04-.02-1.57-.95-1.08-1.81.97-1.69,1.94-3.38,2.95-5.05.28-.46.27-.8,0-1.25-.98-1.61-1.91-3.25-2.86-4.88-.43-.74-.39-1.24.13-1.67.52-.43,1.27-.39,1.81.18,1.45,1.55,2.86,3.14,4.28,4.72.2.23.42.31.72.33,3.4.31,7.02.08,10.25,1.32,3.14,2.65-10.16,1.95-10.96,2.95-1.36,1.47-2.69,2.96-4.02,4.45-.35.4-.74.71-1.22.72Z" fill="#fff" stroke-width="0"/>
    <path d="M62.47,37.62c-.82,3.09-2.66,6.07-3.93,9.03-.17.36-.2.65-.07,1.01.64,1.87,1.26,3.74,1.87,5.62.32.77.01,1.85-.88,1.95-.54.08-.94-.17-1.21-.63-1.04-1.78-2.09-3.54-3.11-5.33-.13-.23-.28-.32-.55-.32-1.9,0-3.81,0-5.71,0-.82.07-1.65-.23-1.73-1.03-.09-.57.34-1.21,1.03-1.37,2.1-.5,4.24-.87,6.35-1.34,1.3-.39,7.25-12.18,7.96-7.6Z" fill="#fff" stroke-width="0"/>
    <path d="M54.93,49.36c.97,2.94,1.92,5.85,2.89,8.78.22.64.19,1.23-.35,1.71-.58.51-1.36.33-1.81-.43-4.45-7.36-1.58-5.38-10.05-5.73-1.11-.02-1.5-1.53-.62-2.12.28-.18.61-.33.94-.39,3-.59,5.98-1.34,8.99-1.82Z" fill="#fff" stroke-width="0"/>
    <path d="M46.31,34.66c-2.05,2.29-4.07,4.54-6.12,6.81-.83,1.21-2.91.59-2.31-.97,1.01-1.84,2.1-3.65,3.16-5.46.17-.28.15-.48,0-.76-1-1.69-1.97-3.4-2.96-5.1-1.03-1.53.9-2.73,1.99-1.46,2.11,2.31,4.16,4.61,6.26,6.94Z" fill="#fff" stroke-width="0"/>
  </g>
</svg>
