<?xml version="1.0" encoding="UTF-8" standalone="yes"?>
<svg width="200" height="200" viewBox="0 0 200 200" fill="none" version="1.2" baseProfile="tiny-ps" xmlns="http://www.w3.org/2000/svg">
  <title>bimi-svg-tiny-12-ps</title>
  <rect width="200" height="200" fill="#013A48"/>
  <path d="M37.917 100.452C37.917 119.474 56.3994 134.986 79.2077 134.986V153.903C45.9669 153.903 19 129.906 19 100.452C19 75.5903 38.2416 54.6203 64.182 48.6759C68.9901 47.5968 74.0177 47 79.2077 47V65.917C77.3695 65.917 75.5886 66.0268 73.8554 66.2416C53.5872 68.4045 37.917 82.9432 37.917 100.452Z" fill="white"/>
  <path d="M182 100.452C182 124.396 164.109 144.769 139.573 151.468C134.005 153.034 128.114 153.903 122.007 153.903H121.792V134.986C124.604 134.986 127.412 134.714 130.114 134.284C148.869 131.043 163.083 117.096 163.083 100.452C163.083 81.4296 144.543 65.917 121.792 65.917V47C154.975 47 182 70.9971 182 100.452Z" fill="white"/>
  <path d="M139.372 151.526C133.805 153.092 127.913 153.961 121.807 153.961L121.592 153.526L73.6547 66.2989L63.9766 48.7236C68.7846 47.6446 73.8266 47 79.0166 47H82.0436L129.914 134.342L139.372 151.526Z" fill="white"/>
</svg>