<?xml version="1.0" encoding="utf-8"?>
<!-- Generator: Adobe Illustrator 28.1.0, SVG Export Plug-In . SVG Version: 6.00 Build 0)  -->
<svg version="1.2" baseProfile="tiny-ps" id="Layer_1" xmlns="http://www.w3.org/2000/svg" xmlns:xlink="http://www.w3.org/1999/xlink"
	 viewBox="0 0 80 80" xml:space="preserve">
<title>Hasura, Inc.</title>
<rect fill="#FFFFFF" width="80" height="80"/>
<path d="M62,34.8c1.4-4.3,0.5-12.8-2.1-15.9c-0.3-0.4-0.9-0.3-1.3,0.1l-3.3,5.1c-0.8,1-2.2,1.3-3.3,0.5c-3.5-2.3-7.7-3.7-12.2-3.7
	s-8.7,1.4-12.2,3.7c-1.1,0.7-2.5,0.5-3.3-0.5L21,19c-0.3-0.4-0.9-0.5-1.3-0.1c-2.7,3.2-3.4,11.7-2.1,15.9c0.4,1.4,0.6,2.9,0.3,4.4
	c-0.2,1.4-0.4,3.2-0.4,4.4c0,12.4,9.9,22.5,22.3,22.5S62.3,56,62.3,43.6c0-1.2-0.3-2.9-0.5-4.4C61.5,37.7,61.6,36.2,62,34.8z
	 M40,61.1c-9.5,0-17.2-7.8-17.2-17.4c0-0.3,0-0.6,0-0.9c0.3-6.5,4.3-12.2,9.9-14.8c2.2-1.1,4.7-1.7,7.4-1.7s5.1,0.6,7.4,1.7
	c5.6,2.7,9.5,8.2,9.9,14.8c0,0.3,0,0.6,0,0.9C57.2,53.3,49.5,61.1,40,61.1z"/>
<path d="M47.4,50.3L43,42.6l-3.8-6.4c-0.1-0.2-0.3-0.3-0.4-0.3h-3.6c-0.2,0-0.3,0.1-0.4,0.3c-0.1,0.2-0.1,0.3,0,0.5l3.6,6.2
	l-4.9,7.5c-0.1,0.2-0.1,0.3,0,0.5s0.3,0.3,0.4,0.3h3.6c0.2,0,0.3-0.1,0.4-0.3l2.7-4.1l2.3,4.1c0.1,0.2,0.3,0.3,0.4,0.3H47
	c0.2,0,0.3-0.1,0.4-0.3C47.5,50.7,47.5,50.5,47.4,50.3z"/>
</svg>
