<?xml version="1.0" encoding="utf-8"?>
<!-- Generator: Adobe Illustrator 25.2.3, SVG Export Plug-In . SVG Version: 6.00 Build 0)  -->
<svg version="1.2" baseProfile="tiny-ps" xmlns="http://www.w3.org/2000/svg" viewBox="0 0 550 550">
  <title>Mattress Firm Inc</title>
<path fill="#D53427" d="M588-38H-38v626h626V-38z" />
<path fill="#FFFFFF" d="M402.5,270c0.5,0,1,0,1,0.6s-0.4,0.7-0.9,0.6h-0.9V270H402.5z M402.6,269h-2.1v5.3h1.2v-2.1h0.5l1.1,2.1h1.4  l-1.2-2.2c0.2,0,0.4,0,0.6-0.1s0.3-0.2,0.5-0.3c0.1-0.1,0.2-0.3,0.3-0.5c0.1-0.2,0.1-0.4,0.1-0.6C404.9,269.4,404.3,269,402.6,269  L402.6,269z M399.1,271.6c0-0.7,0.3-1.3,0.6-1.9c0.4-0.5,0.9-1,1.6-1.2c0.6-0.2,1.3-0.3,2-0.1c0.7,0.1,1.3,0.5,1.7,1  c0.5,0.5,0.8,1.1,0.9,1.8c0.1,0.7,0,1.3-0.2,2c-0.3,0.6-0.7,1.1-1.3,1.5c-0.6,0.4-1.2,0.6-1.9,0.6c-0.5,0-0.9-0.1-1.3-0.3  c-0.4-0.2-0.8-0.4-1.1-0.8c-0.3-0.3-0.6-0.7-0.7-1.2C399.2,272.5,399.1,272.1,399.1,271.6L399.1,271.6z M397.4,271.6  c0,1,0.3,2,0.9,2.9s1.4,1.5,2.3,1.9c1,0.4,2,0.5,3,0.3s1.9-0.7,2.7-1.4c0.7-0.7,1.2-1.7,1.4-2.7c0.2-1,0.1-2.1-0.3-3  c-0.4-1-1.1-1.8-1.9-2.3s-1.9-0.9-2.9-0.9c-0.7,0-1.4,0.1-2,0.4s-1.2,0.6-1.7,1.1s-0.9,1.1-1.1,1.7  C397.5,270.2,397.4,270.9,397.4,271.6z M363.2,333.6h19.3l14.4-67.5h-29.6l-18.4,36.3h-0.2l-0.9-36.3h-29l-14.1,67.5H324l9.2-46.5  h0.2l2.5,46.5h15.4l22.1-46.5h0.2L363.2,333.6z M199.7,291.8h-26.6l1.8-8.4h31.3l3.6-17.3h-52.1l-14.1,67.5h20.8l5.4-25.7h26.5  L199.7,291.8z M217.2,266l-14,67.5H224l14-67.5H217.2z M263,295.6l2.8-13.4H277c5.4,0,7,3.2,7,5.9c0,4.1-3.2,7.6-10.1,7.6H263V295.6  z M248.6,266.1l-14,67.5H255l5-23.6h9c5.8,0,8.4,2.6,8.4,6.1s-1,7.6-1,10.8c0,3,0.1,4.9,0.8,6.6H297c-1.7-4-1-10.9-1-17.2  c0-6.3-0.9-12.1-7-13.8v-0.2c9.7-1.6,15.8-8.8,15.8-18.6c0-14.3-9.5-17.7-22-17.7L248.6,266.1z M141.2,346.4l-7.7,17.2  c0,0,68.2-15.4,142.3-16.8c73.6-1.4,104.1,5,104.1,5l1.6-9c0,0-31-6.6-105.9-5.2C201.2,339,141.2,346.4,141.2,346.4L141.2,346.4z   M121.8,253.5l14.4-67.5h-29.6l-18.4,36.3H88L87.1,186h-29L44,253.5h19.3l9.3-46.5h0.2l2.5,46.5h15.4l22.1-46.5h0.2l-10.4,46.5  H121.8z M167.2,233.4h-10.8l8.7-16.8h0.2L167.2,233.4z M169.4,253.5h17l-8.7-56.2h-17l-32.5,56.2h17.6l4.3-8h18.3L169.4,253.5z   M239.3,211.6l3-14.4h-48.5l-3,14.4h15.6l-8.7,41.8H215l8.7-41.8L239.3,211.6L239.3,211.6z M290.3,211.6l3-14.4h-48.5l-3,14.4h15.6  l-8.7,41.8H266l8.7-41.8L290.3,211.6L290.3,211.6z M329.1,215.6c0,3.4-2.7,6.3-8.4,6.3h-9.1l2.4-11.2h9.4  C327.8,210.7,329.1,213.4,329.1,215.6z M346.5,212c0-11.9-8-14.7-18.3-14.7h-28.5L288,253.5h17l4.1-19.6h7.5c4.8,0,7,2.2,7,5.1  s-0.9,6.3-0.9,9s0.1,4.1,0.7,5.5h16.5c-1.4-3.3-0.8-9.1-0.8-14.3s-0.7-10.1-5.8-11.5v-0.2C341.4,226.2,346.5,220.2,346.5,212  L346.5,212z M401.6,211.7l2.9-14.4h-46.4l-11.7,56.2h47.1l3-14.4h-29.8l1.5-7h27.1l2.8-13.4h-27l1.5-7L401.6,211.7z M438.2,214.3h16  c0.3-13.9-10.5-18.3-22.4-18.3c-11.3,0-23.6,5.8-23.6,18.5c0,9.4,6.6,13,13.5,15.3c7.8,2.6,13.5,3.2,13.5,7.2c0,3.7-4.2,5.4-7.6,5.4  c-2.8,0-4.9-0.1-6.4-1.4c-1.4-1.4-2.1-3.3-2.1-6.4h-16.8c-0.7,14.3,10.9,20.2,23.9,20.2c12.2,0,25.4-6.4,25.4-19.9  c0-6.7-3.3-12-13.1-15.5c-5.5-2-13.9-2.2-13.9-6.5c0-3.7,3.8-4.6,6.7-4.6c1.8-0.1,3.5,0.3,5,1.3c0.7,0.5,1.3,1.2,1.6,2.1  C438.2,212.5,438.3,213.4,438.2,214.3L438.2,214.3z M506.7,214.2c0.3-13.9-10.5-18.3-22.4-18.3c-11.3,0-23.6,5.8-23.6,18.5  c0,9.4,6.6,13,13.5,15.3c7.8,2.6,13.5,3.1,13.5,7.2c0,3.7-4.2,5.4-7.6,5.4c-2.8,0-4.9-0.1-6.4-1.4c-1.4-1.4-2.1-3.3-2.1-6.4h-16.8  c-0.7,14.3,10.9,20.2,23.8,20.2c12.2,0,25.4-6.4,25.4-19.9c0-6.7-3.3-12-13.1-15.5c-5.5-2-13.9-2.2-13.9-6.5c0-3.7,3.8-4.6,6.7-4.6  c1.8-0.1,3.5,0.3,5,1.3c0.7,0.5,1.3,1.2,1.6,2.1s0.5,1.7,0.4,2.6L506.7,214.2L506.7,214.2z" />
</svg>