<?xml version="1.0" encoding="utf-8"?>
<svg version="1.2" width="1348" height="1348" viewBox="0 0 1348 1348" baseProfile="tiny-ps" xmlns="http://www.w3.org/2000/svg">
    <title>kogan.com</title>
    <rect width="1348" height="1348" fill="white"></rect>
    <!-- move to middle -->
    <g transform="scale(1 1) rotate(0) translate(0 410)">
    <path
        d="M877.776 324.12C877.776 327.994 874.597 331.14 870.683 331.14C866.769 331.14 863.59 327.994 863.59 324.12C863.59 320.246 866.769 317.1 870.683 317.1C874.597 317.1 877.776 320.246 877.776 324.12Z"
        fill="#E71333" />
    <path
        d="M890.359 290.789V290.49C890.359 268.209 907.934 249.294 931.209 249.294C944.462 249.294 953.407 254.325 960.5 260.734C961.433 261.501 962.352 263.022 962.352 264.855C962.352 268.053 959.738 270.497 956.651 270.497C955.115 270.497 953.722 269.886 952.803 269.119C947.102 263.932 940.627 259.655 931.065 259.655C914.882 259.655 902.549 273.24 902.549 290.165V290.464C902.549 307.558 915.184 321.13 931.84 321.13C940.929 321.13 948.179 317.009 954.038 311.51C954.813 310.743 955.89 309.989 957.426 309.989C960.356 309.989 962.825 312.576 962.825 315.332C962.825 316.697 962.208 318.075 961.288 318.998C953.736 326.473 944.633 331.66 931.222 331.66C907.934 331.66 890.373 312.888 890.373 290.763"
        fill="#E71333" />
    <path
        d="M1040.82 290.789V290.49C1040.82 273.551 1028.03 259.668 1011.21 259.668C994.401 259.668 982.081 273.551 982.081 290.178V290.477C982.081 307.415 994.717 321.143 1011.53 321.143C1028.34 321.143 1040.82 307.402 1040.82 290.776M969.905 290.776V290.477C969.905 268.196 987.479 249.281 1011.53 249.281C1035.58 249.281 1053 267.897 1053 290.178V290.477C1053 312.758 1035.26 331.672 1011.21 331.672C987.164 331.672 969.892 313.057 969.892 290.776"
        fill="#E71333" />
    <path
        d="M1065.19 256.678C1065.19 253.48 1067.8 250.724 1071.04 250.724C1074.29 250.724 1077.06 253.311 1077.06 256.678V264.764C1082.3 256.99 1089.39 249.814 1102.8 249.814C1116.21 249.814 1124.08 256.678 1128.39 265.531C1134.09 256.834 1142.58 249.814 1156.45 249.814C1174.8 249.814 1186.05 262.021 1186.05 281.559V325.199C1186.05 328.553 1183.44 331.152 1180.2 331.152C1176.95 331.152 1174.18 328.566 1174.18 325.199V284.302C1174.18 269.041 1166.47 260.5 1153.52 260.5C1141.5 260.5 1131.62 269.353 1131.62 284.913V325.199C1131.62 328.553 1129.01 331.152 1125.61 331.152C1122.2 331.152 1119.75 328.566 1119.75 325.199V284.003C1119.75 269.197 1111.89 260.5 1099.24 260.5C1086.6 260.5 1077.05 270.873 1077.05 285.368V325.199C1077.05 328.553 1074.58 331.152 1071.19 331.152C1067.8 331.152 1065.17 328.566 1065.17 325.199V256.691L1065.19 256.678Z"
        fill="#E71333" />
    <path
        d="M387.383 205.577C383.56 201.872 376.98 201.95 373.223 205.733C371.358 207.618 370.333 210.127 370.36 212.765C370.386 215.404 371.463 217.887 373.368 219.733C384.178 230.211 390.128 244.185 390.128 259.096C390.128 289.489 365.145 314.201 334.449 314.201C303.752 314.201 278.77 289.476 278.77 259.096C278.77 244.185 284.72 230.211 295.53 219.733C299.47 215.911 299.536 209.633 295.674 205.72C291.944 201.937 285.35 201.872 281.528 205.577C266.843 219.811 258.752 238.817 258.752 259.083C258.752 300.395 292.706 333.999 334.449 333.999C376.192 333.999 410.145 300.395 410.145 259.083C410.145 238.817 402.054 219.811 387.369 205.564"
        fill="#E71333" />
    <path
        d="M334.475 254.338C339.991 254.338 344.483 249.892 344.483 244.432V183.919C344.483 178.46 339.991 174.014 334.475 174.014C328.958 174.014 324.466 178.46 324.466 183.919V244.432C324.466 249.892 328.958 254.338 334.475 254.338Z"
        fill="#E71333" />
    <path
        d="M539.485 264.452C539.485 278.387 535.072 289.749 526.39 298.251C517.695 306.752 505.991 311.068 491.609 311.068C477.226 311.068 465.641 306.713 456.748 298.134C447.869 289.554 443.377 278.543 443.377 265.388C443.377 256.691 445.557 248.488 449.879 241.027C454.187 233.565 460.203 227.637 467.769 223.412C475.347 219.174 483.688 217.029 492.554 217.029C501.42 217.029 509.052 219.122 516.394 223.243C523.723 227.351 529.463 233.019 533.457 240.091C537.463 247.188 539.499 255.391 539.499 264.465M549.205 200.234C543.452 200.234 538.763 204.862 538.763 210.556V218.563C532.104 211.609 525.168 206.409 518.089 203.055C509.577 199.025 500.278 196.984 490.44 196.984C478.605 196.984 467.204 200.052 456.538 206.084C445.873 212.128 437.401 220.461 431.372 230.835C425.33 241.222 422.282 252.57 422.282 264.569C422.282 276.567 425.224 287.747 431.03 297.77C436.836 307.818 445.176 315.917 455.803 321.845C466.416 327.76 477.909 330.762 489.98 330.762C500.278 330.762 510.155 328.605 519.323 324.354C526.679 320.935 533.207 316.281 538.789 310.47V311.042C538.789 324.536 537.213 334.363 534.113 340.265C531.053 346.089 525.825 351.016 518.561 354.916C511.232 358.855 502.064 360.843 491.32 360.843C480.575 360.843 471.184 358.907 463.881 355.085C460.163 353.135 456.748 350.613 453.872 347.727L448.25 341.032C446.345 338.094 443.114 336.339 439.594 336.339C433.933 336.339 429.309 340.902 429.309 346.518C429.309 348.429 429.848 350.288 430.951 352.03L432.567 354.227C434.852 357.49 437.282 360.336 439.791 362.689C445.452 368.019 452.874 372.309 461.845 375.468C470.75 378.588 480.917 380.174 492.055 380.174C507.318 380.174 520.584 376.911 531.499 370.476C542.533 363.976 550.374 354.578 554.827 342.566C558.019 334.155 559.648 320.831 559.648 302.956V210.543C559.648 204.849 554.972 200.221 549.218 200.221"
        fill="#041521" />
    <path
        d="M690.485 266.519C690.485 275.67 688.396 284.003 684.272 291.27C680.16 298.524 674.21 304.36 666.579 308.624C658.934 312.888 650.725 315.059 642.174 315.059C633.623 315.059 625.703 312.888 618.334 308.585C610.952 304.282 604.989 298.186 600.615 290.477C596.228 282.742 593.995 274.526 593.995 266.064C593.995 257.601 596.202 249.307 600.549 241.664C604.897 234.02 610.821 228.001 618.163 223.776C625.493 219.564 633.61 217.419 642.306 217.419C655.808 217.419 667.341 222.151 676.561 231.472C685.795 240.806 690.485 252.596 690.485 266.532M699.823 200.611C694.136 200.611 689.513 205.187 689.513 210.816V219.59C683.865 213.025 677.468 207.865 670.454 204.212C661.68 199.662 651.776 197.348 641.005 197.348C622.34 197.348 606.145 204.082 592.879 217.367C579.625 230.64 572.9 246.837 572.9 265.518C572.9 284.198 579.56 301.007 592.695 314.305C605.843 327.63 621.933 334.389 640.532 334.389C651.001 334.389 660.773 332.205 669.587 327.903C676.772 324.406 683.457 319.44 689.513 313.096V320.935C689.513 326.564 694.136 331.14 699.823 331.14C705.511 331.14 710.134 326.564 710.134 320.935V210.803C710.134 205.174 705.511 200.598 699.823 200.598"
        fill="#041521" />
    <path
        d="M837.307 225.245C833.629 216.769 827.85 209.919 820.14 204.914C812.416 199.909 803.471 197.361 793.568 197.361C783.664 197.361 774.771 199.623 766.496 204.069C759.876 207.644 753.664 212.713 747.989 219.174L747.924 210.894C747.924 205.226 743.261 200.611 737.534 200.611C731.807 200.611 727.144 205.226 727.144 210.894V320.818C727.144 326.512 731.82 331.139 737.573 331.139C743.326 331.139 748.002 326.512 748.002 320.818V282.664C748.002 266.298 748.777 254.923 750.288 248.891C752.665 239.805 757.643 232.07 765.091 225.908C772.499 219.785 780.984 216.678 790.336 216.678C798.454 216.678 805.087 218.641 810.065 222.528C815.017 226.389 818.419 232.304 820.179 240.156C821.335 244.835 821.913 254.455 821.913 268.742V320.818C821.913 326.512 826.589 331.139 832.342 331.139C838.095 331.139 842.771 326.512 842.771 320.818V264.023C842.771 246.642 840.932 233.591 837.32 225.232"
        fill="#041521" />
    <path
        d="M253.892 314.11L196.413 263.191L249.807 217.133C253.905 213.597 254.325 207.436 250.766 203.38C247.337 199.48 240.809 199.025 236.856 202.431L182.635 249.216L182.674 166.669C182.674 160.949 177.985 156.308 172.219 156.308C166.452 156.308 161.763 160.949 161.763 166.656V320.805C161.763 326.499 166.439 331.126 172.192 331.126C177.945 331.126 182.621 326.499 182.621 320.805V277.152L240.744 328.631C242.556 330.23 244.881 331.113 247.311 331.113C250.122 331.113 252.788 329.931 254.654 327.864C258.279 323.86 257.937 317.685 253.892 314.097"
        fill="#041521" />
    </g>
</svg>