<?xml version="1.0" encoding="utf-8"?>
<!-- Generator: Adobe Illustrator 27.2.0, SVG Export Plug-In . SVG Version: 6.00 Build 0)  -->
<svg version="1.2" baseProfile="tiny-ps" id="Layer_1" xmlns="http://www.w3.org/2000/svg" xmlns:xlink="http://www.w3.org/1999/xlink"
	 viewBox="0 0 162.1 198.4"  xml:space="preserve">
<title>Quacklogo</title>
<rect fill="#26D265" width="162.1" height="198.4"/>
<g>
	<path fill="#FFFFFF" d="M115.7,60.7c0-1.5-0.8-3.1-2.3-3.5c-1.8-0.4-3.4,1.1-5.2,1.5c-1.9,0.5-4.1-0.5-5-2.2c0,0,0,0,0,0.1
		c-1-3.1-2.7-5.9-5-8.3c-2.2-2.4-5-4.2-8-5.4c-3-1.2-6.3-1.7-9.5-1.5c-3.3,0.2-6.4,1.1-9.3,2.7c-2.9,1.6-5.3,3.8-7.2,6.4
		c-1.9,2.6-3.2,5.7-3.8,8.9c-0.6,3.2-0.5,6.5,0.3,9.7c0.8,3.2,2.3,6.1,4.4,8.6c-2.3,0-4.6-0.7-6.5-2.1c-1.6-1.2-3.1-2.9-5.2-3
		c-1.4-0.1-2.8,0.6-3.7,1.7c-0.9,1-1.5,2.4-2,3.7c-1.3,3.8-1.8,7.9-1.8,11.9c0,13,10.1,27.7,32.7,28.6c20.2,0.8,30.5-10.1,30.5-21.7
		c0-9.5-6.1-15.7-10.7-18.1c1.8-1.9,3.2-4,4.2-6.4c1.3,0.2,2.6,0.3,3.8,0.7c2.4,0.8,4.8,2.5,6.3,0.4c1.5-2.1-1.8-5.6-3.7-6.2
		c0.5-0.1,0.9-0.1,1.3-0.3C113.2,66,115.7,63.6,115.7,60.7z"/>
	<path d="M116.5,60.7c0-1.7-1-3.8-2.8-4.2c-1.4-0.4-2.7,0.3-3.8,0.8c-0.6,0.3-1.1,0.5-1.8,0.7c-1.5,0.4-3.4-0.4-4.1-1.8
		c-1.1-3.1-2.8-6-5-8.3c-2.3-2.4-5-4.3-8.1-5.5c-3-1.2-6.3-1.8-9.6-1.7c-3.3,0.1-6.5,1-9.4,2.5c-2.9,1.5-5.5,3.6-7.5,6.2
		c-2,2.6-3.5,5.6-4.3,8.7c-0.8,3.2-0.9,6.5-0.3,9.7c0.6,3.2,1.9,6.3,3.8,9c-1.6-0.2-3.1-0.8-4.4-1.8c-0.4-0.3-0.8-0.6-1.1-0.9
		c-1.3-1.1-2.6-2.2-4.4-2.3c-1.5-0.1-3.2,0.6-4.4,1.9c-1.1,1.2-1.7,2.8-2.2,4c-1.2,3.6-1.8,7.5-1.8,12.2c0,13.5,10.5,28.4,33.5,29.4
		c0.7,0,1.5,0,2.2,0c12,0,19-4.2,22.8-7.8c4.1-3.9,6.4-9.2,6.4-14.7c0-9.5-5.8-15-8.3-17c-0.6-0.5-1.3-1-2-1.4
		c1.4-1.6,2.5-3.4,3.4-5.4l0.4,0.1c0.9,0.1,1.8,0.3,2.7,0.5c0.5,0.2,1,0.4,1.6,0.6c1,0.4,2.1,0.8,3.1,0.8c0.9,0,1.7-0.3,2.4-1.3
		c0.6-0.8,0.7-1.8,0.4-2.8c-0.4-1.3-1.5-2.7-2.6-3.6C113.8,66.5,116.5,64,116.5,60.7z M82.3,42.2c4.5,0,8.9,1.4,12.6,4.1
		c3.7,2.7,6.4,6.4,7.8,10.7c0.3,1.2,0.6,3,0.1,4c-0.5,1-1.5,1.5-2.6,2.1c-1.6,0.8-3.4,1.8-3.5,4.5c0,0.7,0.1,4.2,4.9,5.4
		c-1.7,3.4-4.2,6.4-7.4,8.5c-3.2,2.1-6.9,3.4-10.7,3.6c-3.8,0.2-7.6-0.6-11-2.3c-3.4-1.8-6.3-4.4-8.3-7.6c-2-3.2-3.2-7-3.3-10.8
		c-0.1-3.8,0.8-7.6,2.7-11c1.8-3.3,4.6-6.1,7.9-8.1C74.7,43.2,78.5,42.2,82.3,42.2z M100.8,81.1c2.3,1.8,7.7,7,7.7,15.8
		c0,5.1-2.1,9.9-5.9,13.6c-3.8,3.6-10.9,7.8-23.8,7.3c-22-0.9-32-15-32-27.8c0-4.5,0.6-8.3,1.8-11.7c0.4-1.1,0.9-2.4,1.8-3.4
		c0.8-0.9,1.9-1.4,2.9-1.4h0.2c1.3,0.1,2.4,1,3.5,1.9c0.4,0.3,0.8,0.7,1.2,1c1.9,1.4,4.2,2.2,6.6,2.2c2.1,2.4,4.6,4.4,7.5,5.8
		c2.9,1.4,6,2.2,9.2,2.3c3.2,0.1,6.4-0.4,9.3-1.6c3-1.2,5.6-3,7.9-5.2C99.4,80.1,100.1,80.6,100.8,81.1z M110.2,66.1
		c-0.9,0.3-3.3,0.8-4.7-0.9l-1.2,1c1.4,1.6,3.3,1.8,4.7,1.7c1.1,0.5,2.8,2,3.3,3.5c0.2,0.6,0.1,1.1-0.1,1.4c-0.7,1-1.6,0.8-3.7-0.1
		c-0.5-0.2-1.1-0.4-1.7-0.6c-1-0.3-2-0.5-3-0.6c-0.4-0.1-0.8-0.1-1.2-0.2c-0.7-0.1-4.5-0.9-4.4-4c0.1-1.7,1-2.3,2.7-3.1
		c1.2-0.6,2.5-1.3,3.3-2.8c0.4-0.8,0.5-1.8,0.4-2.8c1.2,0.7,2.6,1,3.9,0.7c0.7-0.2,1.4-0.5,2.1-0.8c1-0.5,1.9-0.9,2.8-0.7
		c1.1,0.3,1.7,1.6,1.7,2.7C115,63.3,112.5,65.4,110.2,66.1L110.2,66.1z"/>
	<path d="M94,61c1.7,0,3.1-2,3.1-4.4c0-2.5-1.4-4.4-3.1-4.4s-3.1,2-3.1,4.4C90.9,59,92.3,61,94,61z"/>
</g>
<g>
	<path d="M56.5,141c-0.3,1-0.8,1.8-1.3,2.4l1.6,1.8l-1.2,1.1l-1.7-1.8c-1.1,0.7-2.3,1-3.6,1s-2.6-0.3-3.6-0.9s-1.8-1.5-2.3-2.7
		c-0.5-1.2-0.8-2.5-0.8-4.1c0-1.6,0.3-2.9,0.8-4.1c0.5-1.2,1.3-2,2.3-2.7c1-0.6,2.2-0.9,3.6-0.9c1.4,0,2.5,0.3,3.5,0.9
		c1,0.6,1.8,1.5,2.3,2.7c0.5,1.2,0.8,2.5,0.8,4.1C56.9,139,56.8,140.1,56.5,141z M52.7,143.2l-1.9-2.1l1.2-1.1l1.9,2.1
		c0.8-1.1,1.1-2.5,1.1-4.2c0-1.2-0.2-2.3-0.6-3.2c-0.4-0.9-0.9-1.6-1.6-2.1c-0.7-0.5-1.5-0.7-2.5-0.7c-1,0-1.8,0.2-2.5,0.7
		c-0.7,0.5-1.3,1.2-1.7,2.1c-0.4,0.9-0.6,1.9-0.6,3.2c0,1.2,0.2,2.3,0.6,3.2c0.4,0.9,0.9,1.6,1.7,2.1c0.7,0.5,1.6,0.7,2.5,0.7
		C51.2,143.8,52,143.6,52.7,143.2z"/>
	<path d="M70.9,144c-0.9,1-2.3,1.5-4.1,1.5c-1.8,0-3.1-0.5-4.1-1.5c-0.9-1-1.4-2.4-1.4-4.3v-9.2h1.9v9.2c0,1.4,0.3,2.4,0.9,3.1
		c0.6,0.7,1.5,1,2.6,1c1.1,0,2-0.3,2.6-1c0.6-0.7,0.9-1.7,0.9-3.1v-9.2h1.9v9.2C72.3,141.6,71.8,143,70.9,144z"/>
	<path d="M78.8,140.8l-1.6,4.4h-2l5.6-14.8h2.6l5.6,14.8h-2.1l-1.6-4.4H78.8z M84.2,137.8c-0.8-2.3-1.6-4.3-2.1-6h0
		c-0.6,1.7-1.3,3.7-2.1,6l-0.5,1.3h5.3L84.2,137.8z"/>
	<path d="M100.7,130.8c0.9,0.4,1.5,1.1,2,1.9c0.5,0.8,0.8,1.7,0.8,2.7h-2c-0.1-1.1-0.5-2-1.2-2.6c-0.7-0.6-1.6-1-2.7-1
		c-1.4,0-2.5,0.5-3.3,1.6c-0.8,1.1-1.2,2.5-1.2,4.3s0.4,3.3,1.2,4.3c0.8,1.1,1.9,1.6,3.2,1.6c1.1,0,2-0.3,2.7-1
		c0.7-0.6,1.2-1.5,1.3-2.7h2c-0.2,1.7-0.8,3-1.8,3.9c-1.1,1-2.5,1.4-4.2,1.4c-1.3,0-2.4-0.3-3.4-0.9c-1-0.6-1.7-1.5-2.2-2.7
		c-0.5-1.2-0.8-2.5-0.8-4.1c0-1.6,0.3-2.9,0.8-4.1c0.5-1.2,1.3-2,2.2-2.7c1-0.6,2.1-0.9,3.5-0.9C98.8,130.2,99.8,130.4,100.7,130.8z
		"/>
	<path d="M119.1,145.2h-2.5l-6.4-7.3h0v7.3h-1.9v-14.8h1.9v6.7h0l5.9-6.7h2.4l-6.4,7L119.1,145.2z"/>
</g>
</svg>
