<?xml version="1.0" encoding="UTF-8"?><svg xmlns="http://www.w3.org/2000/svg" xmlns:xlink="http://www.w3.org/1999/xlink" version="1.2" width="300" height="300" viewBox="767,346.5,300,300" baseProfile="tiny-ps"><title>/Users/ayor/Downloads/stackinfluence_logo.svg</title><defs><rect x="767" y="346.5" width="300" height="300" fill="none"></rect></defs><g fill="#ffffff" fill-rule="nonzero" stroke="#000000" stroke-width="0" stroke-linecap="butt" stroke-linejoin="miter" stroke-miterlimit="10" stroke-dasharray="" stroke-dashoffset="0"><rect x="1789.66667" y="577.5" transform="scale(0.42857,0.6)" width="700" height="500" vector-effect="non-scaling-stroke"></rect></g><g fill="none" fill-rule="nonzero" stroke="none" stroke-width="1" stroke-linecap="butt" stroke-linejoin="miter" stroke-miterlimit="10" stroke-dasharray="" stroke-dashoffset="0" ><g><g><g><g><g><path d="M957.27457,646.60001c-63.56051,0 -127.01559,0 -190.47458,0c0,-100 0,-200 0,-300c100.0013,0 199.9987,0 300,0c0,100 0,200 0,300c-36.47593,0 -72.95186,0 -109.52542,0M984.5,476.53906c0.42969,-0.03906 0.86328,-0.05078 1.28906,-0.12109c2.63672,-0.4375 5.18359,-1.16797 7.64063,-2.23437c4.26172,-1.84766 7.89844,-4.55859 10.90234,-8.07031c4.03906,-4.72656 6.46094,-10.20703 7.17969,-16.39844c0.36328,-3.16016 0.26953,-6.30469 -0.38672,-9.43359c-1.16016,-5.54297 -3.57812,-10.44141 -7.39062,-14.61719c-3.92969,-4.30469 -8.73437,-7.21875 -14.34375,-8.85156c-3.60156,-1.05078 -7.27344,-1.34766 -10.96875,-1.01562c-3.21875,0.29297 -6.34375,1.09375 -9.33594,2.39844c-4.63672,2.02344 -8.53125,5.00391 -11.70313,8.93359c-0.6875,0.85547 -1.33594,1.73828 -2.08594,2.49609c-4.00391,-3.92969 -8.32422,-7.46484 -13.03125,-10.53125c-8.29297,-5.41016 -17.30859,-9.08984 -26.94531,-11.26562c-4.58984,-1.03906 -9.25391,-1.60156 -13.95312,-1.78906c-5.70313,-0.22656 -11.375,0.15234 -16.99609,1.13281c-9.19922,1.60156 -17.89453,4.64844 -26.03516,9.23828c-9.98047,5.625 -18.39063,13.05078 -25.26172,22.20313c-6.64062,8.85156 -11.24609,18.68359 -13.83984,29.45313c-0.93359,3.87891 -1.62891,7.80469 -1.97266,11.78516c-0.35547,4.05469 -0.34766,8.11328 -0.12891,12.17969c0.24609,4.57031 0.89453,9.07813 1.93359,13.52344c2.53125,10.84375 7.07422,20.77344 13.70313,29.73047c2.37891,3.21875 4.94141,6.28125 7.78516,9.19922c-0.25391,0.29688 -0.49609,0.61719 -0.77344,0.89453c-6.14453,6.15625 -12.29297,12.30078 -18.4375,18.45313c-0.27344,0.27344 -0.53125,0.5625 -0.86328,0.91797c1.00391,0.93359 1.92969,1.78906 2.85547,2.64453c3.16406,2.92188 6.59375,5.49219 10.21094,7.82422c5.51563,3.55469 11.40625,6.32031 17.63672,8.35938c6.35156,2.07813 12.875,3.32031 19.54297,3.67188c4.55469,0.24219 9.12891,0.20313 13.65625,-0.41016c3.02344,-0.40625 6.04688,-0.93359 9.01953,-1.63281c7.33594,-1.71875 14.25781,-4.53125 20.76563,-8.33594c7.80469,-4.5625 14.58594,-10.34766 20.40625,-17.26562c3.3125,-3.9375 6.19531,-8.16797 8.64453,-12.6875c3.54297,-6.53906 6.10938,-13.44531 7.64453,-20.72266c0.76172,-3.61328 1.35156,-7.25781 1.5,-10.95703c0.00781,-0.19141 0.09375,-0.37891 0.16797,-0.375c0.00391,0.26563 0.01172,0.53125 0.01172,0.79688c-0.00391,13.63281 -0.00781,27.26563 0.00781,40.89844c0,1.39453 0.04297,2.80078 0.23047,4.17969c0.55078,4.02734 1.78516,7.83594 3.84766,11.36328c3.04297,5.19531 7.22266,9.18359 12.57422,11.92969c3.25391,1.67188 6.69141,2.73047 10.35156,3.11328c2.73047,0.28906 5.45703,0.28906 8.15625,-0.11719c3.67969,-0.55078 7.16016,-1.75391 10.40234,-3.61719c2.23438,-1.28516 4.30469,-2.78906 6.14844,-4.58203c2.74609,-2.67187 4.92969,-5.74609 6.52734,-9.24219c1.78125,-3.89844 2.74609,-7.96875 2.74219,-12.26563c-0.00781,-16.76562 0,-33.53125 -0.01172,-50.29297c0,-1.12891 -0.07422,-2.26172 -0.1875,-3.38281c-0.33594,-3.30859 -1.25391,-6.45703 -2.67187,-9.46094c-1.97266,-4.16406 -4.76172,-7.68359 -8.32812,-10.58594c-4.30469,-3.49609 -9.18359,-5.71094 -14.68359,-6.51172c-1.11328,-0.16016 -2.22266,-0.34766 -3.14844,-0.54688zM984.5,476.53906" fill="#fcf0e3"></path><path d="M840.58594,544.35938c-2.875,-2.79297 -5.4375,-5.85547 -7.81641,-9.07422c-6.62891,-8.95703 -11.17187,-18.88672 -13.70312,-29.73047c-1.03906,-4.44531 -1.6875,-8.95313 -1.93359,-13.52344c-0.21875,-4.06641 -0.22656,-8.125 0.12891,-12.17969c0.34375,-3.98047 1.03906,-7.90625 1.97266,-11.78516c2.59375,-10.76953 7.19922,-20.60156 13.83984,-29.45312c6.87109,-9.15234 15.28125,-16.57812 25.26172,-22.20312c8.14062,-4.58984 16.83594,-7.63672 26.03516,-9.23828c5.62109,-0.98047 11.29297,-1.35937 16.99609,-1.13281c4.69922,0.1875 9.36328,0.75 13.95312,1.78906c9.63672,2.17578 18.65234,5.85547 26.94531,11.26563c4.70703,3.06641 9.02734,6.60156 13.05469,10.64453c-0.11328,0.30078 -0.25391,0.48828 -0.44141,0.71094c-0.08203,0.10938 -0.11719,0.18359 -0.14453,0.25391c0.00781,0 0.00391,-0.01172 -0.05078,-0.00391c-0.08984,0.07422 -0.12109,0.13672 -0.14844,0.20313c0.00391,0 0.00391,-0.00781 -0.0625,0.00391c-0.21484,0.14453 -0.37109,0.26953 -0.51172,0.41016c-7.79688,7.79688 -15.58984,15.58984 -23.38281,23.39063c-0.1875,0.1875 -0.35937,0.39063 -0.60156,0.59766c-0.33203,0.25391 -0.61719,0.48437 -0.875,0.74219c-4.71094,4.70703 -9.41797,9.42188 -14.13281,14.125c-0.30078,0.29688 -0.66797,0.52734 -1.0625,0.74609c-0.63281,-0.54687 -1.1875,-1.08203 -1.78906,-1.54687c-5.22266,-4.04687 -11.12109,-5.58203 -17.63672,-4.58594c-4.20312,0.64453 -7.94531,2.38672 -11.16406,5.19531c-4.73437,4.13281 -7.4375,9.34766 -7.85937,15.59766c-0.44141,6.48438 1.63281,12.1875 6.03906,17.01172c0.16797,0.1875 0.31641,0.39453 0.49219,0.61719c-0.27344,0.28516 -0.49609,0.53125 -0.73047,0.76563c-2.11328,2.11719 -4.23828,4.23047 -6.34766,6.35547c-2.44141,2.45313 -4.86719,4.92188 -7.3125,7.37109c-2.40234,2.40234 -4.82031,4.78125 -7.22656,7.17578c-0.16016,0.15625 -0.26953,0.36328 -0.47266,0.56641c-0.37109,0.27734 -0.6875,0.51953 -0.96484,0.79688c-5.78125,5.77734 -11.55859,11.55859 -17.34375,17.33203c-0.30078,0.30078 -0.66797,0.52734 -1.00391,0.78906zM840.58594,544.35938" fill="#f36b71"></path><path d="M913.96094,470.96094c0.33984,-0.26172 0.70703,-0.49219 1.00781,-0.78906c4.71484,-4.70312 9.42188,-9.41797 14.13281,-14.125c0.25781,-0.25781 0.54297,-0.48828 0.92188,-0.68359c1.97266,2.16797 3.89453,4.24609 5.69531,6.42188c2.89453,3.49609 5.35547,7.29688 7.50781,11.29297c2.77344,5.14453 4.98828,10.51953 6.52734,16.16797c1.41016,5.17969 2.35938,10.43359 2.61719,15.80469c0.01563,0.28906 0.10547,0.57813 0.15625,0.95703c-0.00781,2.94922 -0.01562,5.80859 -0.01953,8.66406c-0.05078,0.1875 -0.13672,0.375 -0.14453,0.56641c-0.14844,3.69922 -0.73828,7.34375 -1.5,10.95703c-1.53516,7.27734 -4.10156,14.18359 -7.64453,20.72266c-2.44922,4.51953 -5.33203,8.75 -8.64453,12.6875c-5.82031,6.91797 -12.60156,12.70313 -20.40625,17.26563c-6.50781,3.80469 -13.42969,6.61719 -20.76562,8.33594c-2.97266,0.69922 -5.99609,1.22656 -9.01953,1.63281c-4.52734,0.61328 -9.10156,0.65234 -13.65625,0.41016c-6.66797,-0.35156 -13.19141,-1.59375 -19.54297,-3.67187c-6.23047,-2.03906 -12.12109,-4.80469 -17.63672,-8.35937c-3.61719,-2.33203 -7.04687,-4.90234 -10.21094,-7.82422c-0.92578,-0.85547 -1.85156,-1.71094 -2.85547,-2.64453c0.33203,-0.35547 0.58984,-0.64453 0.86328,-0.91797c6.14453,-6.15234 12.29297,-12.29687 18.4375,-18.45312c0.27734,-0.27734 0.51953,-0.59766 0.78906,-0.95703c0.35156,-0.32422 0.71875,-0.55078 1.01953,-0.85156c5.78516,-5.77344 11.5625,-11.55469 17.34375,-17.33203c0.27734,-0.27734 0.59375,-0.51953 1.02344,-0.75781c0.58594,0.41016 1.03125,0.80859 1.49219,1.19141c3.30078,2.71875 7.08594,4.36719 11.32031,4.78906c3.82031,0.38281 7.55469,-0.08203 11.12109,-1.68359c4.74609,-2.13281 8.29688,-5.5 10.63672,-10.10937c2.04688,-4.02344 2.68359,-8.32031 2.04297,-12.80078c-0.63281,-4.44922 -2.48828,-8.31641 -5.54297,-11.60938c-0.17187,-0.18359 -0.3125,-0.39844 -0.59375,-0.75781c0.35938,-0.28125 0.70703,-0.49609 0.98828,-0.77734c7.28125,-7.26953 14.55469,-14.55078 21.82422,-21.83203c0.27344,-0.27344 0.48047,-0.61719 0.71484,-0.92969zM913.96094,470.96094" fill="#f8cf61"></path><path d="M952.51953,514.76563c-0.00781,-2.94922 0,-5.80859 0.01953,-8.84375c0.07031,-0.60937 0.14844,-1.03516 0.17578,-1.46484c0.17578,-2.53906 0.75781,-4.98437 1.58984,-7.38281c1.35937,-3.92578 3.49219,-7.39062 6.25781,-10.46484c1.92578,-2.14062 4.16406,-3.91797 6.62109,-5.41797c2.91797,-1.78516 6.05078,-3.05859 9.40625,-3.74609c1.29297,-0.26562 2.60156,-0.46875 4,-0.71484c1.30469,-0.0625 2.51563,-0.11328 3.72656,-0.16797c1.10938,0.17578 2.21875,0.36328 3.33203,0.52344c5.5,0.80078 10.37891,3.01562 14.68359,6.51172c3.56641,2.90234 6.35547,6.42188 8.32813,10.58594c1.41797,3.00391 2.33594,6.15234 2.67188,9.46094c0.11328,1.12109 0.1875,2.25391 0.1875,3.38281c0.01172,16.76172 0.00391,33.52734 0.01172,50.29297c0.00391,4.29688 -0.96094,8.36719 -2.74219,12.26563c-1.59766,3.49609 -3.78125,6.57031 -6.52734,9.24219c-1.84375,1.79297 -3.91406,3.29688 -6.14844,4.58203c-3.24219,1.86328 -6.72266,3.06641 -10.40234,3.61719c-2.69922,0.40625 -5.42578,0.40625 -8.15625,0.11719c-3.66016,-0.38281 -7.09766,-1.44141 -10.35156,-3.11328c-5.35156,-2.74609 -9.53125,-6.73437 -12.57422,-11.92969c-2.0625,-3.52734 -3.29687,-7.33594 -3.84766,-11.36328c-0.1875,-1.37891 -0.23047,-2.78516 -0.23047,-4.17969c-0.01562,-13.63281 -0.01172,-27.26562 -0.00781,-40.89844c0,-0.26562 -0.00781,-0.53125 -0.02344,-0.89453zM952.51953,514.76563" fill="#9fbfff"></path><path d="M984.41016,476.55078c-1.30469,0.06641 -2.51562,0.11719 -3.91016,0.17578c-2.45703,-0.02344 -4.69922,-0.33594 -6.88672,-0.92187c-7.35547,-1.97266 -13.27344,-6.03516 -17.60937,-12.32422c-3.06641,-4.45703 -4.76562,-9.41016 -5.23437,-14.83594c0,-0.27344 -0.03516,-0.5 -0.0625,-0.82031c0.00391,-1.17578 -0.00391,-2.25781 0.03125,-3.37891c0.01953,-0.20312 0,-0.36719 -0.00781,-0.62109c0.12109,-0.90234 0.20313,-1.72656 0.33203,-2.54297c0.53125,-3.33594 1.63281,-6.48047 3.20313,-9.46875c0.14844,-0.27734 0.18359,-0.60937 0.27344,-0.91797c0,0 0,0.00781 0.05469,0.00391c0.08594,-0.07031 0.11719,-0.13672 0.14453,-0.20703c0,0 0.00391,0.01172 0.05469,-0.01172c0.08203,-0.10547 0.10938,-0.18359 0.13672,-0.26563c0.13672,-0.1875 0.27734,-0.375 0.43359,-0.62109c0.68359,-0.92578 1.33203,-1.80859 2.01953,-2.66406c3.17188,-3.92969 7.06641,-6.91016 11.70313,-8.93359c2.99219,-1.30469 6.11719,-2.10547 9.33594,-2.39844c3.69531,-0.33203 7.36719,-0.03516 10.96875,1.01563c5.60938,1.63281 10.41406,4.54688 14.34375,8.85156c3.8125,4.17578 6.23047,9.07422 7.39063,14.61719c0.65625,3.12891 0.75,6.27344 0.38672,9.43359c-0.71875,6.19141 -3.14062,11.67188 -7.17969,16.39844c-3.00391,3.51172 -6.64062,6.22266 -10.90234,8.07031c-2.45703,1.06641 -5.00391,1.79688 -7.64063,2.23438c-0.42578,0.07031 -0.85937,0.08203 -1.37891,0.13281zM984.41016,476.55078" fill="#82b5a5"></path><path d="M913.90625,470.91797c-0.17969,0.35547 -0.38672,0.69922 -0.66016,0.97266c-7.26953,7.28125 -14.54297,14.5625 -21.82422,21.83203c-0.28125,0.28125 -0.62891,0.49609 -0.98828,0.77734c0.28125,0.35938 0.42188,0.57422 0.59375,0.75781c3.05469,3.29297 4.91016,7.16016 5.54297,11.60938c0.64063,4.48047 0.00391,8.77734 -2.04297,12.80078c-2.33984,4.60938 -5.89062,7.97656 -10.63672,10.10938c-3.56641,1.60156 -7.30078,2.06641 -11.12109,1.68359c-4.23437,-0.42188 -8.01953,-2.07031 -11.32031,-4.78906c-0.46094,-0.38281 -0.90625,-0.78125 -1.42187,-1.21094c0.07422,-0.22266 0.18359,-0.42969 0.34375,-0.58594c2.40625,-2.39453 4.82422,-4.77344 7.22656,-7.17578c2.44531,-2.44922 4.87109,-4.91797 7.3125,-7.37109c2.10938,-2.125 4.23438,-4.23828 6.34766,-6.35547c0.23438,-0.23437 0.45703,-0.48047 0.73047,-0.76562c-0.17578,-0.22266 -0.32422,-0.42969 -0.49219,-0.61719c-4.40625,-4.82422 -6.48047,-10.52734 -6.03906,-17.01172c0.42188,-6.25 3.125,-11.46484 7.85938,-15.59766c3.21875,-2.80859 6.96094,-4.55078 11.16406,-5.19531c6.51563,-0.99609 12.41406,0.53906 17.63672,4.58594c0.60156,0.46484 1.15625,1 1.78906,1.54688zM913.90625,470.91797" fill="#fcf0e3"></path><path d="M954.47266,430.90625c-0.02344,0.29688 -0.05859,0.62891 -0.20703,0.90625c-1.57031,2.98828 -2.67187,6.13281 -3.20312,9.46875c-0.12891,0.81641 -0.21094,1.64063 -0.375,2.58203c-0.03516,0.28906 -0.01172,0.45313 0.01172,0.62109c0.00391,1.08203 0.01172,2.16406 -0.03516,3.38672c-0.01172,0.36719 0.02734,0.59375 0.06641,0.82031c0.50781,5.37891 2.20703,10.33203 5.27344,14.78906c4.33594,6.28906 10.25391,10.35156 17.60938,12.32422c2.1875,0.58594 4.42969,0.89844 6.78906,0.93359c-1.21094,0.23828 -2.51953,0.44141 -3.8125,0.70703c-3.35547,0.6875 -6.48828,1.96094 -9.40625,3.74609c-2.45703,1.5 -4.69531,3.27734 -6.62109,5.41797c-2.76562,3.07422 -4.89844,6.53906 -6.25781,10.46484c-0.83203,2.39844 -1.41406,4.84375 -1.58984,7.38281c-0.02734,0.42969 -0.10547,0.85547 -0.17187,1.37109c-0.06641,-0.19922 -0.15625,-0.48828 -0.17187,-0.77734c-0.25781,-5.37109 -1.20703,-10.625 -2.61719,-15.80469c-1.53906,-5.64844 -3.75391,-11.02344 -6.52734,-16.16797c-2.15234,-3.99609 -4.61328,-7.79687 -7.50781,-11.29297c-1.80078,-2.17578 -3.72266,-4.25391 -5.63281,-6.43359c0.13281,-0.25391 0.30469,-0.45703 0.49219,-0.64453c7.79297,-7.80078 15.58594,-15.59375 23.38281,-23.39062c0.14062,-0.14062 0.29687,-0.26562 0.51172,-0.41016zM954.47266,430.90625" fill="#fcf0e3"></path><path d="M954.87891,430.44922c0.02344,0.04688 -0.00391,0.125 -0.08984,0.23047c-0.02734,-0.04688 0.00781,-0.12109 0.08984,-0.23047zM954.87891,430.44922" fill="#fcf0e3"></path><path d="M954.68359,430.69922c0.02734,0.0625 -0.00391,0.12891 -0.09375,0.19922c-0.02734,-0.0625 0.00391,-0.125 0.09375,-0.19922zM954.68359,430.69922" fill="#fcf0e3"></path><path d="M950.76953,448.64453c-0.07812,-0.17969 -0.11719,-0.40625 -0.11328,-0.67969c0.07813,0.17969 0.11328,0.40625 0.11328,0.67969zM950.76953,448.64453" fill="#e1e3ec"></path><path d="M950.73828,444.44531c-0.0625,-0.12891 -0.08594,-0.29297 -0.06641,-0.49609c0.06641,0.12891 0.08594,0.29297 0.06641,0.49609zM950.73828,444.44531" fill="#e1e3ec"></path></g></g></g></g></g></g></svg>