<?xml version="1.0" encoding="UTF-8"?><svg xmlns="http://www.w3.org/2000/svg" xmlns:xlink="http://www.w3.org/1999/xlink" xmlns:serif="http://www.serif.com/" width="100%" height="100%" viewBox="0 0 800 800" version="1.2" xml:space="preserve" baseProfile="tiny-ps" fill-rule="evenodd" stroke-linejoin="round" stroke-miterlimit="2"><title>DuoCircle Logo</title><g transform="matrix(2.7337,0,0,2.7337,21.9636,93.5279)"><path d="M139.127,186.463C140.471,185.117 141.634,184.052 142.684,182.884C149.194,175.646 154.047,167.373 157.408,158.284C166.218,134.463 167.612,110.14 161.681,85.46C158.357,71.63 152.394,59.056 142.885,48.324C141.757,47.051 140.499,45.896 139.331,44.717C138.701,45.069 138.301,45.202 138.022,45.464C137.247,46.197 136.496,46.96 135.78,47.751C129.804,54.349 125.117,61.787 121.781,70.019C111.725,94.84 110.32,120.285 116.765,146.183C120.199,159.985 126.238,172.521 135.837,183.178C136.799,184.245 137.871,185.215 139.127,186.463ZM115.957,30.744C114.63,30.307 113.895,30.006 113.131,29.823C93.858,25.2 75.961,28.043 59.931,40.038C49.614,47.759 42.46,58.038 37.59,69.848C27.815,93.558 26.236,118.008 31.695,142.959C34.615,156.308 39.78,168.733 48.418,179.432C65.051,200.032 86.657,206.465 112.177,201.232C112.983,201.066 113.713,200.531 114.663,200.08C114.114,199.374 113.83,198.927 113.468,198.555C101.052,185.776 93.14,170.48 88.683,153.382C82.887,131.145 82.805,108.699 87.286,86.245C91.348,65.889 99.89,47.732 114.56,32.737C114.995,32.292 115.289,31.709 115.957,30.744ZM161.292,200.16C165.393,201.006 168.701,201.928 172.071,202.344C192.681,204.889 210.74,199.607 225.45,184.496C233.13,176.607 238.495,167.235 242.203,156.95C249.61,136.4 251.326,115.273 247.742,93.769C245.25,78.808 240.148,64.777 230.734,52.709C214.445,31.824 193.084,24.27 167.179,29.314C165.963,29.55 164.803,30.073 163.634,30.456C163.886,31.148 163.92,31.437 164.074,31.629C164.577,32.252 165.105,32.858 165.656,33.44C176.43,44.823 183.808,58.182 188.346,73.099C195.46,96.484 195.976,120.19 191.042,144.032C186.806,164.505 177.945,182.656 163.246,197.754C162.79,198.222 162.415,198.77 161.292,200.16ZM0.007,116.155C-0.049,98.543 2.631,80.642 9.915,63.692C23.047,33.132 45.806,14.027 78.585,7.558C98.594,3.61 118.238,5.242 137.094,13.442C139.409,14.448 141.286,14.241 143.544,13.351C169.704,3.04 195.994,2.443 221.928,13.71C245.647,24.015 261.015,42.448 270.26,66.265C277.1,83.887 279.129,102.254 278.27,120.994C277.183,144.708 271.142,166.918 257.043,186.368C240.954,208.563 219.099,221.164 191.877,224.365C174.002,226.467 156.68,224.354 140.133,217.054C138.219,216.21 136.662,216.357 134.832,217.163C119.705,223.817 103.784,226.225 87.436,224.826C51.585,221.758 25.885,203.756 10.72,171.112C2.757,153.972 -0.173,135.715 0.007,116.155Z" fill="rgb(238,46,35)" fill-rule="nonzero"></path></g></svg>