<?xml version="1.0" encoding="utf-8" standalone="yes"?><svg xmlns="http://www.w3.org/2000/svg" version="1.2" baseProfile="tiny-ps" viewBox="0 0 256 256" xml:space="preserve"><title>CodeDay</title><desc>White segmented heart in front of rainbow swirl.</desc><rect x="109.07" y="126.78" fill="#F48A4D" width="146.95" height="129.2"></rect><rect x="0.01" y="0.01" fill="#A947C9" width="118.3" height="132.64"></rect><rect x="109.07" y="0.01" fill="#ABD468" width="146.91" height="129.8"></rect><rect x="-0.01" y="126.78" fill="#FA1F79" width="145.3" height="129.2"></rect><path fill="#A55EDC" d="M28.64,18.54L28.64,18.54l23.55-0.88l0,0l0,0L61.3,1.94c0.25-0.5,0.09-1.22-0.04-1.93H0.01v16.83  L28.64,18.54L28.64,18.54z"></path><path fill="#F3CC60" d="M230.25,70.13c-0.95-0.75-2.02-1.32-3.03-1.99l0,0l-3.87,0.02l0,0l-3.42,17.55l0.45,3.87  c23.33,17.57,27.57,41.93,24.6,68.9l-0.21,2.11l0,0l1.72,6.84l9.49-20.2v-48.4C249.16,87.71,240.51,78.18,230.25,70.13L230.25,70.13  z"></path><path fill="#FA1FA5" d="M114.24,223.04L114.24,223.04L114.24,223.04L59.45,183c-6.68-4.91-4.92-15.36-12.73-19.57  c-0.63-0.34-1.2-0.75-1.79-1.15l0,0l0,0c-0.14,0-0.29,0.02-0.45,0.02c1.25,16.17,7.32,29.67,23.55,35.31  c20.02,6.95,32.89,21.52,43.96,38.3c3.22,4.89,10.78,6.93,9.62,14.77c-0.47,3.13-1.9,3.81-4.76,3.51  c-6.55-0.68-13.12-1.11-19.68-1.65l2.97,3.42h44.08l-25.32-26.86C117.14,227.26,115.78,225.08,114.24,223.04L114.24,223.04z"></path><path fill="#B361D3" d="M61.28,1.92c-2.95,5.28-6.05,10.49-9.11,15.72l0,0l22.67,6.02l0,0l10.3,1.27c9.38-2.4,19.5-2.63,27.36-9.4  L88.71,1.46c-0.66-0.39-1.27-0.91-1.86-1.45H61.26C61.39,0.72,61.55,1.44,61.28,1.92z"></path><path fill="#D1D362" d="M217.4,39.06L217.4,39.06c4.06,9.42,8.31,18.78,9.83,29.08l0,0c1.02,0.66,2.08,1.25,3.03,1.99  c10.26,8.06,18.89,17.57,25.71,28.7v-30.6c-10.55-10.55-21.43-20.64-34.93-27.43C219.85,40.19,218.61,39.63,217.4,39.06z"></path><path fill="#B00197" d="M11.52,130.61c8.83-23.06,21.11-43.78,40.7-59.5c0.77-0.61,1.41-1.38,2.11-2.08l-2.15-2.6l-17.98,5.57l0,0  C17.84,90.84,7.65,112.79,1.24,136.7c-0.23,0.88-0.75,1.68-1.24,2.51v4.98L11.52,130.61L11.52,130.61z"></path><path fill="#F22BC3" d="M81.71,243.56L81.71,243.56L81.71,243.56c-12.37-4.33-25.3-3.58-38.08-4.28l2.99,16.69h53.5l-2.97-3.42  L81.71,243.56z"></path><path fill="#9745CF" d="M25.63,36.93l8.58-1.31l0,0l0,0c-0.13-6.27-3.65-11.41-5.57-17.08l0,0l-28.63-1.7v20.07L25.63,36.93  L25.63,36.93z"></path><path fill="#A00099" d="M34.19,72.02L34.19,72.02l-13.68,0.86l0,0c-8.49,11.32-13.82,24.4-20.5,36.72v29.58  c0.48-0.81,1-1.63,1.24-2.51C7.65,112.79,17.84,90.84,34.19,72.02z"></path><path fill="#BFD564" d="M233.22,36.05c-9.29-4.96-18.39-10.4-29.08-11.98l1.27,5.14l11.98,9.85l0,0l0,0  c1.22,0.57,2.45,1.11,3.65,1.72c13.5,6.79,24.39,16.88,34.93,27.43V54.58C255.98,54.58,233.22,36.05,233.22,36.05z"></path><path fill="#CF06D5" d="M23.5,242.7c-5.46-15.34-9.06-31.01-7.7-47.47l-2.99-6.88l-3.87-0.82l0,0l0,0  c-2.17,10.44-3.63,20.95-3.42,31.66l15.54,33.29c0.48,1.06,0.48,2.33,0.72,3.51h4.28L23.5,242.7L23.5,242.7L23.5,242.7z"></path><path fill="#F99D98" d="M232.85,253.6c-1.63-5.78-3.89-11.3-6.93-16.49c-1.43-2.44-1.13-5.07-0.54-7.68c0-0.02,0.02-0.02,0.02-0.04  l-17.01-2.52l0,0l0,0l-4.73,0.86l0,0l-5.55,7.29l0,0l0,0c7.32,5.37,16.78,8.11,21.31,16.97c0.63,1.24,0.93,2.65,1.38,3.97h13.7  C233.6,255.43,233.13,254.6,232.85,253.6L232.85,253.6z"></path><path fill="#8F1CA9" d="M19.65,71.99l13.7-17.94l-13.27-3.01l0,0l-20.07,6.7V74.1L19.65,71.99L19.65,71.99z"></path><path fill="#FB2597" d="M122.8,214.07L122.8,214.07l-0.88-1.31l-2.56-1.25l-5.12,11.55l0,0l4.64,6.09L144.2,256h6l-13.7-21.83  C136.5,234.17,122.8,214.07,122.8,214.07z"></path><path fill="#93DC63" d="M205.83,5.25L205.83,5.25l3.85,5.14l6.86,4.3l0,0l0,0L253.78,38l2.2,1.29V28.53  c-12.21-10.1-26.45-16.49-41.16-21.86C212.02,5.63,208.84,5.68,205.83,5.25z"></path><path fill="#F0C99D" d="M237.93,217.88l-4.01,7.63c6.8,1.4,13.32,3.49,19.21,7.31c0.97,0.63,2.15,0.98,2.83,1.95v-34.92  L237.93,217.88L237.93,217.88z"></path><path fill="#DE1BDB" d="M43.63,239.29l-6.02-6.86c-7.95-1.02-11.5,3.97-14.11,10.26l2.56,13.27H46.6L43.63,239.29L43.63,239.29z"></path><path fill="#FA859A" d="M198.13,235.03L198.13,235.03l-14.56,0.39l0,0l0,0l-0.43,2.15l0,0l0,0c5.98,5.87,13.66,10.17,17.12,18.39  h20.54c-0.45-1.33-0.75-2.74-1.38-3.97C214.89,243.14,205.45,240.4,198.13,235.03z"></path><path fill="#AADB63" d="M216.54,14.69L216.54,14.69l16.69,21.38l22.76,18.55V39.29l-2.2-1.29C253.78,38,216.54,14.69,216.54,14.69z"></path><path fill="#8932BE" d="M25.63,36.93L25.63,36.93c-8.54,0-17.08,0-25.62-0.02v20.81l20.07-6.7L25.63,36.93z"></path><path fill="#BD84BD" d="M119.83,18.09l11.96,9.87l1.74,0.41c4.42-2.01,9.6-2.6,12.82-6.84c-5.48-7.86-12.62-14.15-19.64-20.54  c-0.36-0.32-0.7-0.66-1.02-0.98h-2.49C122.96,6.2,122.61,12.36,119.83,18.09z"></path><path fill="#B182C8" d="M112.51,15.55l7.31,2.56l0,0c2.79-5.75,3.15-11.91,3.38-18.1H86.85c0.61,0.54,1.22,1.06,1.88,1.47  L112.51,15.55z"></path><path fill="#F5CB76" d="M235.78,195.64l8.13-0.86l0,0l0,0l12.05-17.03v-30.55l-9.49,20.2C244.56,177.45,240.44,186.63,235.78,195.64  L235.78,195.64z"></path><path fill="#B403E1" d="M5.52,219.19l-5.51,1.58v8.06c0,0.02,0.02,0.04,0.02,0.05c0,0.02,0,0.04,0.02,0.04l0,0l8.49,27.05H21.8  c-0.23-1.18-0.23-2.45-0.72-3.51L5.52,219.19L5.52,219.19z"></path><path fill="#890598" d="M20.51,72.86L20.51,72.86l-0.88-0.88l0,0l0,0L0.01,74.1v35.52C6.69,97.29,12.02,84.2,20.51,72.86  L20.51,72.86z"></path><path fill="#7CDF65" d="M255.98,20.9v-8.36h-15.49V0.01h-23.94c7.68,6.57,17.06,10.08,26.12,14.22  C247.19,16.28,251.56,18.67,255.98,20.9z"></path><path fill="#BC02C1" d="M5.52,219.19c-0.21-10.69,1.25-21.22,3.42-31.66l0,0L7.22,166.2c-0.02,0-0.04-0.02-0.05-0.02l-7.16,9.17  v45.39L5.52,219.19z"></path><path fill="#FC6B95" d="M183.14,237.59L183.14,237.59l-19.25-3.42l0,0c3.47,8.68,12.35,12.21,17.89,18.93  c0.72,0.86,1.2,1.92,1.79,2.88h16.69C196.81,247.76,189.12,243.47,183.14,237.59z"></path><path fill="#B800AA" d="M7.22,166.13L7.22,166.13l2.6-9.42l0,0l0,0l2.56-15.83l-0.86-10.26l0,0l0,0L0.01,144.18v31.19l7.18-9.17  C7.19,166.17,7.21,166.15,7.22,166.13z"></path><path fill="#F3CB88" d="M243.91,194.8c-0.93,7.97-6.91,14.63-5.98,23.1l0,0l18.03-18.03v-22.11L243.91,194.8L243.91,194.8  L243.91,194.8z"></path><path fill="#FC5495" d="M163.9,234.17L163.9,234.17l-0.88-0.43l0,0l-12.39,3.4l0.86,2.58c4.92,6.43,13.43,8.97,17.55,16.26h14.56  c-0.59-0.97-1.07-2.01-1.79-2.88C176.25,246.38,167.37,242.84,163.9,234.17z"></path><path fill="#8CD868" d="M205.83,5.25c3.01,0.43,6.2,0.36,8.99,1.38c14.72,5.39,28.93,11.76,41.16,21.86v-7.61  c-4.42-2.24-8.79-4.62-13.3-6.68c-9.04-4.14-18.42-7.63-26.12-14.22h-17.12C199.44-0.01,205.83,5.25,205.83,5.25z"></path><path fill="#FB3E9D" d="M151.47,239.72l-14.97-5.57l13.7,21.83h18.84C164.9,248.69,156.39,246.15,151.47,239.72z"></path><path fill="#A6B495" d="M164.29,15.08l7.72,4.26l1.72-10.67l0,0l0,0l-9.06-8.67h-16.26L164.29,15.08z"></path><path fill="#99CC76" d="M190.84,11.23l5.16,2.56c3.56-5.12,8.93-3.01,13.68-3.42l-3.85-5.14l0,0l-6.39-5.25h-19.05L190.84,11.23  L190.84,11.23z"></path><path fill="#ABA2A9" d="M157.88,14.69l6.41,0.39L148.41,0.01h-22.72l1,0.98L157.88,14.69z"></path><path fill="#9FBF87" d="M173.73,8.67l17.1,2.56l0,0L180.4,0.01h-15.76L173.73,8.67L173.73,8.67z"></path><path fill="#FCBE57" d="M217.4,110.5c12.41,21.33,16.71,43.67,8.58,67.59c9.62-2.26,13.45-10.73,18.82-17.55l0.21-2.11  c2.99-26.95-1.27-51.33-24.6-68.9C220.4,89.53,217.4,110.5,217.4,110.5z"></path><path fill="#D4C670" d="M197.27,36.91L197.27,36.91l2.13,6.02l0,0l7.72,13.25l0,0l16.26,11.96l3.87-0.02  c-1.52-10.28-5.77-19.64-9.83-29.08l0,0l-11.98-9.85C202.28,31.34,198.76,33.06,197.27,36.91z"></path><path fill="#FDB667" d="M225.95,178.09L225.95,178.09l-5.57,9.44l0,0l-4.28,11.55l0,0l0,0c4.4,2.65,9.06,3.69,14.11,2.13l5.59-5.57  l0,0c4.64-9.01,8.77-18.21,10.71-28.24l-1.72-6.84l0,0C239.4,167.37,235.57,175.84,225.95,178.09L225.95,178.09z"></path><path fill="#F1AE65" d="M204.99,81.41L204.99,81.41l-1.74,1.7l0,0l0,0l-0.43,2.17c2.52,7.93,4.08,16.03,4.3,24.37l0,0l10.26,0.88  l3.01-20.95l-0.45-3.87C219.94,85.7,204.99,81.41,204.99,81.41z"></path><path fill="#E8B970" d="M207.12,56.18L207.12,56.18l-2.13,25.23l0,0l14.95,4.28l3.42-17.55l0,0L207.12,56.18z"></path><path fill="#F915AC" d="M31.2,164.84L31.2,164.84l0.82,13.02c0.36-0.04,0.7-0.02,1,0.11c3.94,13.05,9.35,24.67,20.57,32.87  c10.22,7.47,18.75,16.56,26.32,26.61c1.2,1.58,1.2,4.06,1.75,6.12l0,0l15.43,8.99l19.68,1.65c2.86,0.29,4.3-0.38,4.76-3.51  c1.18-7.86-6.39-9.9-9.62-14.77c-11.07-16.78-23.94-31.35-43.96-38.3c-16.22-5.64-22.29-19.14-23.55-35.31L31.2,164.84L31.2,164.84z  "></path><path fill="#F91A91" d="M74.33,173.19c-8-5.77-10.35-16.1-11.87-25.87l0,0l0,0c-0.14-0.02-0.29-0.02-0.43-0.04l0,0l-11.14,3.87  l-5.96,11.12l0,0c0.59,0.38,1.18,0.81,1.79,1.15c7.82,4.21,6.07,14.68,12.73,19.57l54.79,40.04l0,0l5.12-11.55  C106.01,196.77,90.43,184.77,74.33,173.19L74.33,173.19z"></path><path fill="#E50B9C" d="M50.88,151.15l-4.69-10.26l-17.12-0.86l0,0l0,0l-4.71,9.42l2.56,12.41l0,0l0,0l4.3,2.99l0,0l0,0l13.27-2.56  l0.45-0.02l0,0C44.93,162.27,50.88,151.15,50.88,151.15z"></path><path fill="#A947C9" d="M53.46,37.79L53.46,37.79l6.86-0.45l14.54-13.66l-22.67-6.02l0,0l-23.55,0.88l0,0  c1.9,5.68,5.44,10.83,5.57,17.08l0,0L53.46,37.79z"></path><path fill="#BF61C0" d="M110.38,39.92L110.38,39.92l11.14,1.72c7.72-1.34,9.81-6.89,10.26-13.66l-11.96-9.87l0,0l-7.31-2.56  c-7.88,6.77-17.99,7-27.36,9.4C85.15,24.95,110.38,39.92,110.38,39.92z"></path><path fill="#B84ABE" d="M60.31,37.34l26.52,6.43l0,0l0,0l15.42,0.43l8.13-4.28l0,0l0,0L85.13,24.95l-10.3-1.27l0,0  C74.83,23.68,60.31,37.34,60.31,37.34z"></path><path fill="#C30095" d="M28.64,118.63L28.64,118.63c10.35-19.57,24.89-35.27,43.65-47.06l-17.96-2.56c-0.7,0.7-1.34,1.47-2.11,2.08  c-19.59,15.72-31.87,36.44-40.7,59.5l0,0l0.86,10.26C16.3,132.36,21.69,124.93,28.64,118.63z"></path><path fill="#C61E9A" d="M72.27,71.59L72.27,71.59h3.44l0,0l0,0l9.42-0.45l0,0l22.65-8.97l0,0l-28.63-7.72l0,0l-17.14,1.72l0,0l0,0  l-9.85,10.26l0,0l2.15,2.6L72.27,71.59z"></path><path fill="#A318A3" d="M62.01,56.18L62.01,56.18l-12.84-4.3l-15.83,2.17l-13.7,17.94l0,0l0.88,0.88l0,0l13.68-0.86l17.98-5.57l0,0  C52.18,66.44,62.01,56.18,62.01,56.18z"></path><path fill="#FAB884" d="M237.93,217.88c-0.93-8.45,5.07-15.11,5.98-23.1l0,0l-8.13,0.86l0,0l-5.59,5.57l-19.86,22.69  c-0.77,0.88-1.29,1.97-1.93,2.97l0,0l17.01,2.52c0.2-0.61,0.66-1.07,1.25-1.31c2.29-0.9,4.42-2.24,6.89-2.65  c0.13,0.02,0.23,0.05,0.36,0.07L237.93,217.88L237.93,217.88z"></path><path fill="#F411C5" d="M79.94,237.43c-7.57-10.03-16.1-19.14-26.32-26.61c-11.23-8.2-16.63-19.82-20.57-32.87  c-0.3-0.13-0.64-0.14-1-0.11c0,0.09,0.02,0.16,0.02,0.25c-5.23,4.46-9.83,9.36-11.8,16.17c0.27,0.14,0.52,0.29,0.75,0.47  c5.84,12.55,10.76,25.16,16.6,37.71l0,0l6.02,6.86l0,0c12.78,0.68,25.71-0.05,38.08,4.28l0,0C81.15,241.5,81.14,239.03,79.94,237.43  L79.94,237.43z"></path><path fill="#9F2FB6" d="M49.18,51.88l4.28-14.09l-19.25-2.17l0,0l-8.58,1.31l-5.55,14.11l0,0l13.27,3.01L49.18,51.88z"></path><path fill="#B6BE84" d="M172.88,20.69l24.37,16.22c1.49-3.87,5.01-5.57,8.15-7.7l-1.27-5.14l-8.15-10.28l0,0l-5.16-2.56l-17.1-2.56  l0,0l-1.72,10.67l0,0L172.88,20.69z"></path><path fill="#ABD468" d="M204.15,24.07c10.69,1.58,19.79,7.02,29.08,11.98l-16.69-21.38l0,0l-6.86-4.3  c-4.74,0.41-10.12-1.7-13.68,3.42l0,0C196,13.79,204.15,24.07,204.15,24.07z"></path><path fill="#E50CDB" d="M21.01,194.75c-0.23-0.18-0.48-0.32-0.75-0.47c-0.05,0.18-0.13,0.34-0.16,0.52l-4.3,0.45  c-1.36,16.45,2.24,32.1,7.7,47.47l0,0c2.61-6.28,6.16-11.3,14.11-10.26l0,0C31.77,219.89,26.85,207.28,21.01,194.75z"></path><path fill="#D806B2" d="M26.92,161.85L26.92,161.85l-2.56-12.41c-6.14-0.18-10.64,2.97-14.54,7.27l0,0l-2.58,9.42l0,0v0.07  l1.72,21.33l0,0l3.87,0.82C14.78,178.08,19.33,169.16,26.92,161.85z"></path><path fill="#E60BBB" d="M20.08,194.78c0.05-0.18,0.13-0.34,0.16-0.52c1.97-6.79,6.57-11.71,11.8-16.17c0-0.09-0.02-0.16-0.02-0.25  l-0.82-13.02l0,0l-4.3-2.99l0,0c-7.59,7.31-12.12,16.22-14.11,26.5l2.99,6.88C15.78,195.21,20.08,194.78,20.08,194.78z"></path><path fill="#FDAA72" d="M210.34,223.9l19.86-22.69c-5.05,1.56-9.7,0.5-14.11-2.13l0,0c-6.11,7.68-14.57,13.32-19.27,22.22  c1,3.49,4.17,4.69,6.84,6.43l4.73-0.86l0,0C209.05,225.87,209.57,224.77,210.34,223.9L210.34,223.9z"></path><path fill="#FD8C7A" d="M196.84,221.3L196.84,221.3l-14.11-5.12l0,0l0,0l-10.71,3.87l11.55,15.38l0,0l14.56-0.39l0,0l5.55-7.29l0,0  C201.01,225.99,197.84,224.79,196.84,221.3z"></path><path fill="#FA1F79" d="M116.37,192.65c-10.13-9.78-20.63-19.21-30.24-29.47c-4.53-4.82-7.11-11.28-5.69-18.44l-0.43-3.87  l-14.54,3.85l-3.01,2.6l0,0c1.54,9.78,3.89,20.11,11.87,25.87c16.1,11.6,31.69,23.58,45.03,38.3l2.56,1.25L116.37,192.65  L116.37,192.65z"></path><path fill="#FB3C89" d="M137.36,217.49L137.36,217.49L137.36,217.49l-2.58-2.58l0,0l-11.96-0.84l0,0l13.68,20.11l14.97,5.57  l-0.86-2.58l0,0C150.61,237.16,137.36,217.49,137.36,217.49z"></path><path fill="#FB3277" d="M134.78,214.91l-7.27-18.8l0,0l-2.15-1.74l0,0l-8.97-1.7l5.55,20.09l0.88,1.31L134.78,214.91z"></path><path fill="#FD6E7D" d="M172.02,220.05l-10.28-6.41l0,0l-8.56,4.69l9.83,15.42l0,0l0.88,0.43l19.25,3.42l0,0l0.43-2.15l0,0  L172.02,220.05z"></path><path fill="#C097AC" d="M163.02,40.35L163.02,40.35L163.02,40.35l1.74-0.86l-6.86-24.8L126.69,1.01  c7.04,6.39,14.18,12.66,19.64,20.54L163.02,40.35z"></path><path fill="#C580B3" d="M149.34,44.2L149.34,44.2l14.11,1.72l-0.43-5.57l0,0l-16.69-18.82c-3.22,4.24-8.4,4.83-12.82,6.84  C133.51,28.37,149.34,44.2,149.34,44.2z"></path><path fill="#C768B1" d="M121.51,41.62c8.4,3.94,16.31,8.67,23.53,14.54l4.28-11.96l-15.81-15.83l-1.74-0.41  C131.33,34.74,129.23,40.29,121.51,41.62z"></path><path fill="#D1039E" d="M24.36,149.45l4.71-9.42l0,0l2.99-13.27l-3.42-8.13c-6.95,6.3-12.34,13.73-16.26,22.24L9.82,156.7l0,0  C13.72,152.4,18.2,149.27,24.36,149.45z"></path><path fill="#FC4E84" d="M153.19,218.33l-1.31-0.45l-14.52-0.41l0,0l13.27,19.66l0,0l12.39-3.4  C163.02,233.73,153.19,218.33,153.19,218.33z"></path><path fill="#C99D9F" d="M164.75,39.47l16.24,12.86l0,0l0.88-0.02l0,0l0,0l-8.97-31.62l-0.88-1.34l0,0l-7.72-4.26l-6.41-0.39  L164.75,39.47z"></path><path fill="#FDA64B" d="M205.42,112.24L205.42,112.24c0.21,20.43,14.2,39.32,7.79,60.93c-1.74,5.84-2.33,13.07-5.66,19.05l0,0  l12.84-4.69l0,0l5.57-9.44l0,0c8.13-23.92,3.83-46.27-8.58-67.59l-10.26-0.88C207.12,109.62,205.42,112.24,205.42,112.24z"></path><path fill="#D3AB8C" d="M187.85,59.61L187.85,59.61l4.71,1.7l6.84-18.37l0,0l-2.13-6.02l0,0L172.9,20.71l8.97,31.62l0,0  C181.87,52.33,187.85,59.61,187.85,59.61z"></path><path fill="#E0AE7F" d="M192.56,61.32l10.69,21.81l0,0l1.72-1.7l2.13-25.23l-7.72-13.25C199.38,42.94,192.56,61.32,192.56,61.32z"></path><path fill="#FD9C67" d="M220.39,187.53l-12.84,4.69l0,0l0,0l-14.99,8.15c-4.46,4.55-7.59,9.92-9.83,15.83l0,0l14.11,5.12l0,0  c4.69-8.9,13.16-14.54,19.27-22.22l0,0L220.39,187.53z"></path><path fill="#EB9567" d="M189.57,88.26L184,104.5l2.15,4.32l16.67,3.87l0,0l2.58-0.43l0,0l1.72-2.61l0,0  c-0.2-8.34-1.75-16.44-4.3-24.37L189.57,88.26z"></path><path fill="#E29A7E" d="M192.56,61.32l-4.71-1.7l0,0c1.13,7.47,1.56,14.9-0.86,22.22l0,0l0,0l2.58,6.43l13.27-2.99l0.43-2.17l0,0  C203.27,83.11,192.56,61.32,192.56,61.32z"></path><path fill="#E7067F" d="M112.51,88.69L112.51,88.69l-3.44-4.28l0,0l0,0c-18.32-0.56-27.43,13.27-38.57,24.26  c-11.41,11.26-7.29,25.41-8.49,38.6c0.14,0.02,0.29,0.02,0.43,0.04l0,0l3.01-2.6C70.88,117.43,95.28,106.06,112.51,88.69z"></path><path fill="#E40889" d="M70.5,108.68c11.15-10.99,20.25-24.82,38.57-24.26l0,0c-0.14-0.43-0.27-0.86-0.41-1.31l-7.27-2.97  c-21.15,6.09-32.46,24.8-48.36,37.64c-4.44,7.05-5.01,15.27-6.84,23.1l4.69,10.26l11.14-3.87l0,0  C63.21,134.08,59.1,119.94,70.5,108.68z"></path><path fill="#DC0692" d="M53.03,117.79l-5.14-3.42l-15.83,12.41l-2.99,13.27l0,0l17.12,0.86C48.03,133.04,48.58,124.84,53.03,117.79z  "></path><path fill="#B232B1" d="M86.85,43.77L86.85,43.77l-26.52-6.43l-6.86,0.45l0,0l-4.28,14.09l12.84,4.3l0,0l17.14-1.72  C79.17,54.46,86.85,43.77,86.85,43.77z"></path><path fill="#C854A9" d="M121.08,56.61L121.08,56.61l16.69,4.28l7.29-4.28l0,0l0,0l-0.02-0.45l0,0c-7.22-5.86-15.13-10.6-23.53-14.54  l-11.14-1.72l0,0l-8.13,4.28C102.25,44.18,121.08,56.61,121.08,56.61z"></path><path fill="#C43CA6" d="M109.98,62.59l11.1-5.98L102.27,44.2l-15.42-0.43l0,0l-7.68,10.67l0,0l28.63,7.72l0,0  C107.8,62.16,109.98,62.59,109.98,62.59z"></path><path fill="#D20190" d="M47.9,114.35L72.61,85c2.92-3.67,3.49-8.61,3.12-13.41l0,0h-3.44l0,0c-18.76,11.78-33.29,27.48-43.65,47.06  l0,0l3.42,8.13C32.06,126.78,47.9,114.35,47.9,114.35z"></path><path fill="#D7088A" d="M72.6,85c-7.93,10.01-16.44,19.59-24.71,29.35l5.14,3.42c15.9-12.84,27.22-31.55,48.36-37.64l-16.26-8.99  l-9.42,0.45l0,0C76.09,76.39,75.51,81.33,72.6,85z"></path><path fill="#D7218A" d="M101.39,80.13l7.27,2.97l19.68-7.25l0,0l0,0c-5.23-5.66-11.76-9.53-18.37-13.29l0,0l-2.18-0.41l-22.65,8.97  l0,0C85.13,71.13,101.39,80.13,101.39,80.13z"></path><path fill="#FD825D" d="M192.56,200.35l-6.43-3.42l-16.26,5.98l0,0l0,0l-9.4,7.7l1.27,3.01l0,0l10.28,6.41l10.71-3.87l0,0  C184.97,210.27,188.1,204.9,192.56,200.35z"></path><path fill="#EF0A73" d="M111.97,111.27c5.3-3.15,7.93-8.9,9.54-14.88l-8.99-7.7l0,0l0,0c-17.24,17.37-41.63,28.74-47.06,56.03  l14.54-3.85C86.22,126.2,99.15,118.92,111.97,111.27z"></path><path fill="#F41662" d="M97.54,141.32L97.54,141.32L97.54,141.32l0.88-0.43c5.87-15.02,21.36-18.64,32.52-27.4l0,0  c-0.7-5.68-2.79-10.87-5.55-15.81l-3.87-1.29c-1.61,5.98-4.24,11.71-9.54,14.88c-12.82,7.65-25.75,14.93-31.96,29.62l0.43,3.87  L97.54,141.32L97.54,141.32z"></path><path fill="#FA2364" d="M98.49,158.13c-2.85-3.42-5.3-7.57-3.08-12.53l0,0l0,0l2.13-4.28l0,0l-17.1,3.42  c-1.4,7.16,1.18,13.63,5.69,18.44c9.62,10.26,20.11,19.7,30.24,29.47l8.97,1.7l0,0C118.76,180.51,108.12,169.71,98.49,158.13z"></path><path fill="#FC4870" d="M136.93,199.08L136.93,199.08l-6.84-3.44l-2.58,0.45l7.27,18.8l0,0l2.58,2.58l0,0l14.52,0.41  C151.88,217.88,136.93,199.08,136.93,199.08z"></path><path fill="#FB2E54" d="M130.07,195.64l-2.6-17.94c-14.22-2.79-21.99-12.89-28.17-24.8c-1.27-2.45-2.61-4.85-3.92-7.29l0,0  c-2.22,4.96,0.23,9.11,3.08,12.53c9.65,11.58,20.29,22.38,26.86,36.22l2.15,1.74l0,0L130.07,195.64z"></path><path fill="#FC5A62" d="M160.48,210.61L160.48,210.61l-14.13-15.81l0,0l-9.4,4.28l0,0l0,0l14.95,18.8l1.31,0.45l8.56-4.69  C161.76,213.64,160.48,210.61,160.48,210.61z"></path><path fill="#D48999" d="M168.16,68.14L168.16,68.14l3.44,4.69c7.61-4.78,8.45-12.66,9.4-20.48l0,0l-16.24-12.86l-1.74,0.86l0,0  l0.43,5.57L168.16,68.14z"></path><path fill="#CE75A3" d="M145.06,56.61L145.06,56.61l23.1,11.53l0,0l-4.71-22.22l-14.11-1.72l0,0l-4.28,11.96l0,0  C145.06,56.16,145.06,56.61,145.06,56.61z"></path><path fill="#DC8E89" d="M171.59,72.83l0.45,1.75l0,0l14.95,7.25l0,0c2.42-7.32,1.99-14.75,0.86-22.22l-6-7.29l0,0  c-0.29,0-0.57,0.02-0.88,0.02C180.05,60.17,179.2,68.05,171.59,72.83z"></path><path fill="#FD944A" d="M205.42,112.24l-2.58,0.43l-4.69,18.8l0,0c6.57,8.97,15.9,17.31,10.13,30.05  c-3.44,7.59-8.42,14.5-12.69,21.72l-9.42,13.7l0,0l6.43,3.42l14.99-8.15l0,0c3.35-5.98,3.94-13.21,5.66-19.05  C219.62,151.58,205.61,132.69,205.42,112.24z"></path><path fill="#EB6D5A" d="M172.01,97.68l-0.45,0.45l0,0l-5.1,15.81l9.81,15.83l3.03-0.38l1.31-0.9l5.55-19.66l-2.15-4.32L172.01,97.68  L172.01,97.68z"></path><path fill="#E27E77" d="M171.56,75.01l-1.7,16.65l2.15,6l11.98,6.82l5.57-16.24l-2.58-6.43l0,0l-14.95-7.25  C171.88,74.73,171.72,74.87,171.56,75.01z"></path><path fill="#F48A4D" d="M180.6,128.46l11.96,5.16l0,0l5.55-2.15l0,0l0,0l4.69-18.8l0,0l-16.67-3.87  C186.13,108.8,180.6,128.46,180.6,128.46z"></path><path fill="#E52477" d="M138.61,92.13v-8.15l0,0l-10.28-8.11l0,0l-19.68,7.25l0.41,1.31l0,0l3.44,4.28l0,0l8.99,7.7l3.87,1.29  C125.36,97.7,138.61,92.13,138.61,92.13z"></path><path fill="#D4478F" d="M138.63,83.98L138.63,83.98l0.47-0.02l6.41-6.82v-5.14l0,0l0,0l-7.72-11.12l-16.69-4.28l0,0L110,62.59l0,0  c6.61,3.76,13.14,7.63,18.37,13.29l0,0L138.63,83.98z"></path><path fill="#D56590" d="M145.49,72.01L145.49,72.01c8.65,1.43,17.15,3.97,26.07,3.01l0,0c0.16-0.14,0.32-0.29,0.47-0.43l0,0  l-0.45-1.75l-3.44-4.69l-23.1-11.53l0,0l-7.29,4.28L145.49,72.01z"></path><path fill="#FD8149" d="M195.55,183.23l-2.58-4.28l0,0l-14.97,6l0,0l0,0l-8.58,6c-1.09,4.03-0.88,8.02,0.43,11.96l0,0l16.26-5.98  l0,0C186.12,196.93,195.55,183.23,195.55,183.23z"></path><path fill="#FD724F" d="M169.45,190.95c-7.38,3.47-14.81,6.45-23.08,2.99c-0.02,0.29-0.02,0.57-0.04,0.86l0,0l0,0l14.13,15.81l0,0  l9.4-7.7l0,0C168.57,198.97,168.35,194.98,169.45,190.95z"></path><path fill="#F81A4A" d="M115.09,139.6L115.09,139.6L115.09,139.6c9.45-4.51,19.18-8.68,23.12-19.66v-2.6l0,0l-7.27-3.85l0,0l0,0  c-11.16,8.76-26.64,12.37-32.52,27.4L115.09,139.6z"></path><path fill="#FA274C" d="M127.92,176.82L127.92,176.82c-4.91-6.66-9.58-13.52-14.81-19.91c-5.48-6.7-2.22-11.94,1.97-17.3l0,0  l-16.67,1.27l-0.88,0.43l0,0l-2.13,4.28l0,0l3.92,7.29c6.18,11.91,13.95,22.02,28.17,24.8  C127.49,177.68,127.92,176.82,127.92,176.82z"></path><path fill="#EE2861" d="M138.18,117.36L138.18,117.36L138.18,117.36l4.32-5.14l-3.89-20.09l-13.25,5.55  c2.76,4.96,4.85,10.13,5.55,15.81l0,0L138.18,117.36z"></path><path fill="#FC454F" d="M146.37,193.94l-2.58-7.29l0,0l-8.97-9.42l0,0l-1.77-1.29l0,0l-5.12,0.86l0,0l0,0l-0.43,0.88l2.6,17.94  l6.84,3.44l0,0l9.4-4.28l0,0C146.33,194.78,146.37,193.94,146.37,193.94z"></path><path fill="#FC8F3D" d="M192.56,133.62L192.56,133.62c5.71,15.06,6.32,30.17,0.43,45.34l2.58,4.28c4.28-7.22,9.26-14.13,12.69-21.72  c5.77-12.73-3.55-21.09-10.13-30.05l0,0C198.13,131.47,192.56,133.62,192.56,133.62z"></path><path fill="#FB6D30" d="M166.03,137.9L166.03,137.9c-0.38,10.51,3.08,20.95-1.45,31.6c-2.81,6.61-9.15,8.22-13.09,12.87  c10.55-2.24,22.17-1.84,29.51-11.98c7.93-14.04,0.05-27.41-1.7-41.04l-3.03,0.38L166.03,137.9z"></path><path fill="#FC8338" d="M192.56,133.62l-11.96-5.16l-1.31,0.9c1.74,13.63,9.63,27.02,1.7,41.04c-0.38,4.98,0.36,10.17-2.99,14.54  l0,0l14.97-6l0,0C198.88,163.79,198.29,148.68,192.56,133.62z"></path><path fill="#EE5949" d="M157.9,112.22L157.9,112.22L157.9,112.22l-5.98,4.73l0,0l3.83,10.69l0,0l8.97,10.28l0,0h1.31l0,0l0,0  l10.24-8.16l-9.81-15.83C166.46,113.92,157.9,112.22,157.9,112.22z"></path><path fill="#DF5B74" d="M151.06,94.69l20.5,3.44l0.45-0.45l-2.15-6l-24.37-14.52l-6.41,6.82L151.06,94.69z"></path><path fill="#E55B63" d="M151.06,94.69l6.84,17.53l0,0l8.56,1.72l5.1-15.81l0,0C171.56,98.13,151.06,94.69,151.06,94.69z"></path><path fill="#DA6482" d="M169.86,91.67l1.7-16.65l0,0c-8.92,0.97-17.42-1.59-26.07-3.01l0,0v5.14L169.86,91.67z"></path><path fill="#E8475F" d="M151.92,116.93L151.92,116.93L151.92,116.93l5.98-4.73l0,0l-6.84-17.53L139.1,83.97l-0.47,0.02v8.15  l3.89,20.09C142.52,112.22,151.92,116.93,151.92,116.93z"></path><path fill="#FC6D3B" d="M180.99,170.41c-7.34,10.13-18.96,9.74-29.51,11.98l-7.7,4.28l0,0l2.58,7.29c8.27,3.46,15.7,0.47,23.08-2.99  l8.58-6l0,0C181.35,180.58,180.62,175.39,180.99,170.41z"></path><path fill="#FA2B37" d="M131.36,170.38L131.36,170.38l-8.92-14.79c-3.46-5.8-0.73-9.35,4.48-11.8l14.27-6.32l0.45-1.29l0,0l0,0  l-3.46-16.22c-3.94,10.98-13.66,15.15-23.12,19.66l0,0c-4.19,5.35-7.45,10.58-1.97,17.3c5.23,6.39,9.9,13.27,14.81,19.91l0,0  l5.12-0.86l0,0C133.03,175.96,131.36,170.38,131.36,170.38z"></path><path fill="#F14040" d="M141.64,136.18L141.64,136.18l14.11-8.54l-3.83-10.69l0,0l-9.42-4.73l-4.32,5.14l0,0v2.6  C138.18,119.96,141.64,136.18,141.64,136.18z"></path><path fill="#FB5527" d="M151.49,182.39c3.94-4.66,10.28-6.27,13.09-12.87c4.51-10.65,1.07-21.09,1.45-31.6l0,0h-1.31l-11.1,7.7  c-0.45,5.6,0.13,11.55-1.59,16.74c-2.61,7.93-10.89,10.55-17.21,14.92l0,0l8.97,9.42L151.49,182.39z"></path><path fill="#FB4721" d="M152.02,162.32c1.7-5.19,1.15-11.14,1.59-16.74l-9.83-3.42l0,0l-12.41,28.2l1.7,5.57l1.77,1.29  C141.12,172.88,149.41,170.27,152.02,162.32z"></path><path fill="#F44835" d="M155.75,127.64L155.75,127.64l-14.11,8.54l0,0l-0.45,1.29l2.6,4.71l9.83,3.42l11.1-7.7l0,0  C164.72,137.9,155.75,127.64,155.75,127.64z"></path><path fill="#FA2E25" d="M141.19,137.47l-14.27,6.32c-5.19,2.45-7.93,6.02-4.48,11.8l8.92,14.79l0,0l12.41-28.2l0,0L141.19,137.47z"></path><path fill="#6FE373" d="M240.49,0.01h15.49v12.53h-15.49V0.01z"></path><path fill="#F1AEA6" d="M255.98,234.76c-0.68-0.97-1.86-1.32-2.83-1.95c-5.89-3.8-12.43-5.91-19.21-7.31  c-0.13-0.02-0.23-0.05-0.36-0.07c-2.47,0.41-4.6,1.75-6.89,2.65c-0.59,0.23-1.06,0.7-1.25,1.31c0,0.02-0.02,0.02-0.02,0.04  c-0.59,2.61-0.9,5.25,0.54,7.68c3.04,5.19,5.3,10.71,6.93,16.49c0.29,1,0.73,1.84,1.65,2.38h1.29h2.4l0,0h17.8v-21.22H255.98z"></path><path fill="#9701D8" d="M0.03,228.91L0.03,228.91c0-0.02,0-0.04-0.02-0.04c0-0.02-0.02-0.04-0.02-0.04v24.75v0.39v2.01h2.22h6.3  L0.03,228.91z"></path><path fill="#FFFFFF" d="M90.21,132.47l-8.56,8.06c-0.27,0.25-0.48,0.57-0.63,0.91c-0.14,0.34-0.21,0.72-0.21,1.09  s0.07,0.75,0.21,1.09c0.14,0.34,0.36,0.66,0.63,0.91l11.62,10.6c0,0,20,17.51,28.63,29.9l4.92,7.09c0.25,0.38,0.61,0.68,1,0.88  c0.39,0.21,0.84,0.3,1.29,0.3s0.9-0.13,1.29-0.34c0.39-0.21,0.73-0.52,0.98-0.9l4.76-7.2c8.34-12.59,28.76-30.67,28.76-30.67  l10.46-9.54c0.27-0.27,0.48-0.59,0.64-0.93c0.14-0.36,0.21-0.73,0.21-1.11c0-0.38-0.09-0.75-0.25-1.09  c-0.16-0.34-0.38-0.66-0.66-0.91l-8.7-7.91c-0.52-0.47-1.2-0.73-1.9-0.72c-0.7,0.02-1.38,0.29-1.88,0.79l-32.07,31.16  c-0.52,0.5-1.2,0.77-1.92,0.77s-1.4-0.27-1.92-0.77l-32.91-31.44c-0.52-0.48-1.2-0.75-1.9-0.77  C91.41,131.72,90.73,131.99,90.21,132.47z M95.34,61.83c-9.26,1.04-17.83,5.37-24.15,12.21c-6.34,6.82-10.01,15.7-10.35,25.01  c-0.48,13.73,3.49,24.14,9.76,33.02c0.11,0.16,0.25,0.29,0.41,0.39c0.16,0.09,0.34,0.16,0.54,0.18c0.2,0.02,0.38,0,0.56-0.07  c0.18-0.05,0.34-0.16,0.48-0.29l10.78-10.15c0.23-0.21,0.38-0.48,0.41-0.79c0.04-0.3-0.04-0.61-0.2-0.88  c-3.71-5.71-5.64-12.41-5.55-19.21c0.02-5.98,2.4-11.73,6.62-15.95c4.23-4.23,9.97-6.61,15.95-6.62c4.76,0.14,9.36,1.67,13.27,4.39  c1.63,1.22,4.64,3.71,6.7,5.43c0.2,0.16,0.43,0.27,0.68,0.3s0.5,0,0.73-0.11c0.23-0.11,0.43-0.29,0.56-0.48  c0.14-0.21,0.21-0.47,0.2-0.72V68.75c0-0.32-0.13-0.64-0.34-0.9C120.87,66.15,113.72,59.74,95.34,61.83z M159.94,61.83  c9.26,1.04,17.83,5.37,24.15,12.21c6.34,6.82,10.01,15.7,10.35,25.01c0.48,13.73-3.49,24.14-9.74,33.02  c-0.11,0.16-0.25,0.29-0.41,0.39c-0.16,0.09-0.34,0.16-0.54,0.18c-0.2,0.02-0.38,0-0.56-0.07c-0.18-0.05-0.34-0.16-0.48-0.29  l-10.81-10.15c-0.21-0.21-0.36-0.48-0.41-0.79c-0.04-0.3,0.02-0.61,0.18-0.88c3.71-5.71,5.64-12.41,5.55-19.21  c0-5.98-2.38-11.73-6.62-15.95c-4.23-4.23-9.97-6.61-15.95-6.62c-4.76,0.14-9.36,1.67-13.27,4.39c-1.63,1.22-4.64,3.71-6.7,5.43  c-0.2,0.16-0.43,0.27-0.68,0.3c-0.25,0.04-0.5,0-0.73-0.11c-0.23-0.11-0.43-0.29-0.56-0.48c-0.14-0.21-0.21-0.47-0.2-0.72V68.75  c0-0.32,0.13-0.64,0.34-0.9C134.41,66.15,141.57,59.74,159.94,61.83z"></path></svg>
