<?xml version="1.0" encoding="UTF-8"?>
<svg version="1.2" baseProfile="tiny-ps" id="Layer_1" xmlns="http://www.w3.org/2000/svg" xmlns:xlink="http://www.w3.org/1999/xlink" viewBox="0 0 256.83 252.34">
    <title>Your Brand</title>
    <rect fill="#03143b" width="256.83" height="252.34" />
    <path fill="#fff" d="M169.94,112.85v-30l-5.29.4A88.13,88.13,0,0,0,140,88.53a59,59,0,0,0-11.52,5.82A59.4,59.4,0,0,0,117,88.53a88.13,88.13,0,0,0-24.62-5.24l-5.29-.4v30c-.47,25.84,13.59,45.84,39.59,56.32l1.86.76,1.85-.76C156.35,158.69,170.41,138.69,169.94,112.85Zm-41.43-5.3c3.06,3.41,5,6.44,5,11.6,0,4.62-2.6,6.73-5,6.74s-5-2.12-5-6.74C123.47,114,125.44,111,128.51,107.55Zm0,51.72c-20.78-9-32-25.38-31.61-46.24,0-.29,0-.54,0-.72V93.78c5.95,1,15.83,3.12,23.83,7.68-4.68,5.37-7.1,10.54-7.1,17.69,0,10.75,7.64,16.56,14.84,16.59h.05c7.2,0,14.84-5.84,14.84-16.59,0-7.14-2.41-12.3-7.08-17.67,8-4.56,17.86-6.73,23.81-7.69v18.52c0,.18,0,.43,0,.72C160.47,133.89,149.27,150.25,128.5,159.27Z" />
</svg>
