<?xml version="1.0" encoding="utf-8"?>
<!-- Generator: Adobe Illustrator 28.0.0, SVG Export Plug-In . SVG Version: 6.00 Build 0)  -->
<svg version="1.2" baseProfile="tiny-ps" id="Layer_1" xmlns="http://www.w3.org/2000/svg" xmlns:xlink="http://www.w3.org/1999/xlink"
	 viewBox="0 0 200 200" xml:space="preserve">
	 <title>Phonehero AB</title>

<g>
	<path fill="none" d="M86.9,95.4c-1.5,0-2.7,1.2-3.4,2.9h5.6C89.3,96.5,88.5,95.4,86.9,95.4z"/>
	<path fill="none" d="M190.6,96c-2.1,0-3.7,1.6-4.1,3.6l0,0.1c-0.4,2,0.7,3.6,2.7,3.6c2.1,0,3.7-1.6,4.1-3.6l0-0.1
		C193.7,97.7,192.6,96,190.6,96z"/>
	<path fill="none" d="M15.6,94.5L15.6,94.5c0.4-1.8-0.7-2.8-2.8-2.8h-2.7L9,97.2h2.7C13.8,97.2,15.2,96.1,15.6,94.5z"/>
	<path fill="none" d="M160.2,95.4c-1.5,0-2.7,1.2-3.4,2.9h5.6C162.5,96.5,161.7,95.4,160.2,95.4z"/>
	<path fill="none" d="M45.6,99.6L45.6,99.6c-0.4,2,0.7,3.7,2.7,3.7c2.1,0,3.7-1.6,4.1-3.6l0-0.1c0.4-2-0.7-3.6-2.7-3.6
		C47.6,96,46,97.7,45.6,99.6z"/>
	<polygon fill="#323E48" points="126.3,73.3 126.3,73.3 102.2,97.8 107.3,97.8 98.3,110.8 104.4,110.8 95,126.7 95,126.7 
		119.8,102.7 113.8,102.7 123,90.4 116.5,90.4 	"/>
	<polygon fill="#323E48" points="132.4,86.8 128,107.7 133.8,107.7 135.5,99.8 142.9,99.8 141.2,107.7 147,107.7 151.4,86.8 
		145.6,86.8 144,94.7 136.5,94.7 138.2,86.8 	"/>
	<path fill="#323E48" d="M167.3,100c1-4.7-0.7-8.8-6.3-8.8c-4.8,0-8.9,3.7-9.9,8.4l0,0.1c-1,5,1.8,8.4,6.9,8.4
		c3.2,0,5.7-1.3,7.7-3.3l-2.6-2.6c-1.4,1.1-2.6,1.6-3.9,1.6c-1.8,0-2.9-0.9-2.9-2.7H167C167.1,100.8,167.2,100.4,167.3,100z
		 M162.3,98.3h-5.6c0.7-1.8,1.9-2.9,3.4-2.9C161.7,95.4,162.5,96.5,162.3,98.3z"/>
	<path fill="#323E48" d="M171.2,91.6l-3.4,16.1h5.7l1-5c0.8-3.7,2.8-5.4,5.8-5.4h0.5l1.2-6c-2.7-0.1-4.4,1.3-5.8,3.5l0.7-3.2H171.2z
		"/>
	<path fill="#323E48" d="M191.7,91.2c-5.2,0-9.7,3.8-10.7,8.4l0,0.1c-1,4.6,2,8.4,7.1,8.4c5.2,0,9.7-3.8,10.7-8.4l0-0.1
		C199.8,95,196.8,91.2,191.7,91.2z M193.3,99.7L193.3,99.7c-0.4,2-2.1,3.6-4.1,3.6c-2,0-3.1-1.7-2.7-3.6l0-0.1
		c0.4-1.9,2.1-3.6,4.1-3.6C192.6,96,193.7,97.7,193.3,99.7z"/>
	<path fill="#323E48" d="M8,101.7h2.9c5.2,0,9.5-2.6,10.5-7.5l0-0.1c1-4.6-1.9-7.3-7.1-7.3H5.4L1,107.7h5.8L8,101.7z M10.1,91.7h2.7
		c2.1,0,3.1,1,2.8,2.7l0,0.1c-0.3,1.6-1.8,2.7-3.9,2.7H9L10.1,91.7z"/>
	<path fill="#323E48" d="M30.7,107.7h5.7l2.2-10.5c0.8-3.7-0.8-5.9-4.2-5.9c-2.3,0-4,1.2-5.4,2.6l1.6-7.8H25l-4.6,21.7h5.7l1.8-8.7
		c0.4-1.8,1.6-2.7,3-2.7c1.3,0,2.1,1,1.7,2.7L30.7,107.7z"/>
	<path fill="#323E48" d="M68.6,107.7h5.7l2.2-10.5c0.8-3.7-0.8-5.9-4.2-5.9c-2.3,0-4.1,1.3-5.4,2.6l0.5-2.3h-5.7l-3.4,16.1h5.7
		l1.8-8.7c0.4-1.8,1.6-2.7,3-2.7c1.3,0,2.1,1,1.7,2.7L68.6,107.7z"/>
	<path fill="#323E48" d="M94.1,100c1-4.7-0.7-8.8-6.3-8.8c-4.8,0-8.9,3.7-9.9,8.4l0,0.1c-1,5,1.8,8.4,6.9,8.4c3.2,0,5.7-1.3,7.7-3.3
		l-2.6-2.6c-1.4,1.1-2.6,1.6-3.9,1.6c-1.8,0-2.9-0.9-2.9-2.7h10.8C93.9,100.8,94,100.4,94.1,100z M89.1,98.3h-5.6
		c0.7-1.8,1.9-2.9,3.4-2.9C88.5,95.4,89.3,96.5,89.1,98.3z"/>
	<path fill="#323E48" d="M40,99.7L40,99.7c-1,4.6,2,8.4,7.1,8.4c5.2,0,9.7-3.8,10.7-8.4l0-0.1c1-4.6-2-8.4-7.1-8.4
		C45.6,91.2,41,95.1,40,99.7z M52.3,99.7L52.3,99.7c-0.4,2-2.1,3.6-4.1,3.6c-2,0-3.1-1.7-2.7-3.6l0-0.1c0.4-1.9,2.1-3.6,4.1-3.6
		C51.7,96,52.8,97.7,52.3,99.7z"/>
</g>
</svg>
