<?xml version="1.0" encoding="UTF-8" standalone="yes"?>
<svg version="1.2" baseProfile="tiny-ps" viewBox="0 0 400 400" xml:space="preserve" xmlns="http://www.w3.org/2000/svg">
  <title>bimi-svg-tiny-12-ps</title>
  <rect fill="#FFFFFF" width="400" height="400"/>
  <path d="M160.2,133.6c0-5.3,1.2-10,3.5-14.1c2.4-4.1,5.8-7.4,10.3-9.8c4.5-2.4,9.6-3.7,15.2-3.7c5.7,0,10.9,1.2,15.5,3.6&#xD;&#xA;&#x9;c4.6,2.4,8.2,5.7,10.6,9.8c2.4,4.2,3.6,9,3.6,14.5c0,5.5-1.2,10.3-3.7,14.6c-2.5,4.3-5.9,7.6-10.5,9.9c-4.5,2.3-9.7,3.5-15.4,3.5&#xD;&#xA;&#x9;c-5.6,0-10.7-1.2-15.1-3.5c-4.5-2.3-7.9-5.7-10.4-10C161.4,144.1,160.2,139.1,160.2,133.6z M169.9,133.9c0,16.7,6.7,25.1,20,25.1&#xD;&#xA;&#x9;c4,0,7.5-0.9,10.4-2.8c2.9-1.9,5.1-4.8,6.7-8.6c1.5-3.8,2.3-8.4,2.3-13.6c0-5.3-0.8-9.8-2.3-13.6c-1.6-3.8-3.8-6.7-6.8-8.6&#xD;&#xA;&#x9;c-3-1.9-6.5-2.8-10.7-2.8c-4.1,0-7.6,0.9-10.5,2.7c-2.9,1.8-5.1,4.6-6.7,8.4C170.6,123.9,169.9,128.4,169.9,133.9z"/>
  <path d="M233.4,124.8c0.5,1.5,0.9,3.8,1.1,6.8c2.5-2.6,4.8-4.3,6.8-5.3c2-1,4.3-1.5,6.9-1.5c3.6,0,6.4,1,8.4,2.9c2,2,3,4.7,3,8.1v13&#xD;&#xA;&#x9;c0,3.9,0.1,6.2,0.4,7.1c0.2,0.9,0.7,1.5,1.3,1.8c0.6,0.3,2,0.5,4.2,0.5v2.6h-18.9v-2.6c2.2,0,3.7-0.2,4.3-0.5&#xD;&#xA;&#x9;c0.6-0.3,1.1-0.9,1.3-1.8c0.2-0.9,0.4-3.3,0.4-7.2v-11.4c0-3.2-0.5-5.5-1.5-6.9c-1-1.4-2.7-2.1-5.3-2.1c-1.9,0-3.7,0.4-5.4,1.3&#xD;&#xA;&#x9;c-1.7,0.9-3.7,2.6-5.9,5v14c0,3.9,0.1,6.2,0.3,7.1c0.2,0.9,0.6,1.5,1.2,1.8c0.6,0.4,2,0.5,4.3,0.5v2.6h-18.6v-2.6&#xD;&#xA;&#x9;c2.2,0,3.6-0.2,4.2-0.5c0.6-0.3,1-0.9,1.3-1.8c0.2-0.9,0.4-3.3,0.4-7.2v-10.5c0-3.8-0.1-6.1-0.3-6.9c-0.2-0.8-0.5-1.4-1-1.6&#xD;&#xA;&#x9;c-0.5-0.3-1.2-0.4-2.1-0.4h-2.5v-2.6c1.5-0.1,3.3-0.4,5.3-0.8c2-0.4,3.6-0.8,4.6-1.1H233.4z"/>
  <path d="M275.3,138.7c-0.1,1.2-0.2,2.3-0.2,3.5c0,5.7,0.9,9.8,2.8,12.5c1.9,2.7,4.6,4,8.1,4c2.4,0,4.4-0.5,6.2-1.6&#xD;&#xA;&#x9;c1.7-1.1,3.2-2.8,4.3-5.2h3.2c-0.4,1.5-1.3,3.1-2.8,4.8c-1.5,1.7-3.2,2.9-5.2,3.8c-2,0.9-4.2,1.3-6.7,1.3c-3.2,0-6.2-0.8-8.9-2.3&#xD;&#xA;&#x9;c-2.7-1.5-4.9-3.7-6.5-6.4c-1.6-2.8-2.4-6-2.4-9.7c0-3.5,0.7-6.7,2.2-9.6c1.5-2.9,3.6-5.1,6.2-6.7c2.7-1.6,5.7-2.4,9-2.4&#xD;&#xA;&#x9;c2.8,0,5.3,0.6,7.6,1.9c2.3,1.2,4,2.9,5.3,5.1c1.3,2.2,2,4.5,2.1,7H275.3z M291.2,136.4c0.1-0.5,0.2-1,0.2-1.6c0-2.3-0.7-4.1-2-5.5&#xD;&#xA;&#x9;c-1.3-1.4-3.1-2-5.2-2c-2.4,0-4.3,0.8-5.8,2.3c-1.5,1.5-2.4,3.8-2.9,6.9H291.2z"/>
  <path d="M174.3,204.8v12.5c0,4.8,0.2,7.7,0.5,8.9c0.3,1.2,0.9,2,1.7,2.4c0.8,0.4,2.4,0.6,4.8,0.6h1.3v2.8h-24.7v-2.8h1.4&#xD;&#xA;&#x9;c2.3,0,3.9-0.2,4.8-0.6c0.8-0.4,1.4-1.2,1.7-2.4c0.3-1.2,0.5-4.1,0.5-8.8v-26.2c0-4.5-0.2-7.3-0.5-8.4c-0.3-1.1-0.9-1.9-1.7-2.3&#xD;&#xA;&#x9;c-0.8-0.4-2.9-0.6-6.2-0.6V177h24.7v2.7c-3.3,0-5.4,0.2-6.2,0.6c-0.8,0.4-1.4,1.2-1.7,2.4c-0.3,1.2-0.4,3.9-0.4,8.3v10.1H203v-10.1&#xD;&#xA;&#x9;c0-4.5-0.1-7.3-0.4-8.4c-0.3-1.1-0.8-1.9-1.6-2.3c-0.8-0.4-2.6-0.6-5.4-0.6h-1.4V177h25v2.7c-3.1,0-5.1,0.2-6,0.6&#xD;&#xA;&#x9;c-0.9,0.4-1.5,1.2-1.8,2.4c-0.3,1.2-0.5,4-0.5,8.4v26.2c0,4.8,0.2,7.7,0.5,8.9c0.3,1.2,0.9,2,1.8,2.4c0.8,0.4,2.4,0.6,4.7,0.6h1.2&#xD;&#xA;&#x9;v2.8h-25v-2.8h2c2.3,0,3.9-0.2,4.7-0.6c0.8-0.4,1.4-1.2,1.7-2.3c0.3-1.1,0.5-4.1,0.5-9v-12.5H174.3z"/>
  <path d="M219.6,213.9c0-3.5,0.8-6.7,2.5-9.6c1.7-2.9,4-5.1,6.9-6.7c3-1.6,6.3-2.4,9.9-2.4c3.6,0,6.9,0.8,9.8,2.4&#xD;&#xA;&#x9;c3,1.6,5.3,3.8,7,6.7c1.7,2.9,2.6,6.2,2.6,9.8c0,3.8-0.8,7.1-2.5,9.9c-1.7,2.8-4,5.1-6.9,6.7c-3,1.6-6.3,2.4-10,2.4&#xD;&#xA;&#x9;c-3.6,0-6.9-0.8-9.8-2.3c-3-1.6-5.3-3.8-6.9-6.6C220.5,221.1,219.6,217.8,219.6,213.9z M227.7,214.2c0,3.9,0.4,6.9,1.3,9.1&#xD;&#xA;&#x9;c0.8,2.2,2.1,3.8,3.8,4.9c1.7,1.1,3.7,1.6,6.2,1.6c3.8,0,6.6-1.2,8.5-3.5c1.9-2.3,2.8-6.3,2.8-11.9c0-5.6-0.9-9.6-2.8-12.1&#xD;&#xA;&#x9;c-1.9-2.5-4.7-3.7-8.5-3.7c-3.9,0-6.7,1.2-8.5,3.7C228.6,204.6,227.7,208.6,227.7,214.2z"/>
  <path d="M289.2,208.1c0-3.2-0.5-5.5-1.5-6.9c-1-1.5-2.7-2.2-5-2.2c-2.1,0-4.1,0.6-6.1,1.8c-2,1.2-3.7,2.9-5,5v13.3&#xD;&#xA;&#x9;c0,4.2,0.1,6.8,0.4,7.7c0.2,1,0.7,1.6,1.3,2c0.6,0.4,2.1,0.6,4.4,0.6v2.7h-18.9v-2.7c1.8,0,3.1-0.1,3.7-0.3c0.6-0.2,1.1-0.5,1.4-1&#xD;&#xA;&#x9;c0.3-0.5,0.5-1.2,0.6-2.2c0.1-1,0.2-3.3,0.2-6.8v-9.4c0-2.4,0-4.3-0.1-5.7c-0.1-1.3-0.3-2.3-0.6-2.9c-0.4-0.6-0.9-1-1.7-1.1&#xD;&#xA;&#x9;c-0.8-0.1-1.9-0.2-3.4-0.2v-2.7c1.5-0.2,3.3-0.5,5.3-0.9c2.1-0.4,3.6-0.8,4.5-1.1h2c0.5,1.5,0.9,3.8,1.1,6.9&#xD;&#xA;&#x9;c3.7-4.6,8.2-6.9,13.4-6.9c3,0,5.4,0.6,7.4,1.9c1.9,1.3,3.1,3.1,3.5,5.3c2.1-2.5,4.2-4.4,6.5-5.5c2.2-1.2,4.7-1.7,7.3-1.7&#xD;&#xA;&#x9;c3.9,0,6.8,0.9,8.6,2.8c1.8,1.9,2.8,4.7,2.8,8.4v12.7c0,4.2,0.1,6.8,0.4,7.7c0.2,1,0.7,1.6,1.3,2c0.6,0.4,2,0.5,4.2,0.5v2.7h-19.3&#xD;&#xA;&#x9;v-2.7c2.4,0,3.9-0.2,4.5-0.5c0.6-0.4,1.1-1,1.3-2c0.2-1,0.4-3.6,0.4-7.7v-10.5c0-3.6-0.5-6.1-1.4-7.5c-0.9-1.4-2.6-2.1-5-2.1&#xD;&#xA;&#x9;c-2.1,0-4.2,0.6-6.1,1.8c-2,1.2-3.6,2.9-5,5.2v13c0,4.2,0.1,6.8,0.4,7.7c0.2,1,0.7,1.6,1.3,2c0.6,0.4,2,0.5,4.2,0.5v2.7h-19v-2.7&#xD;&#xA;&#x9;c2.2,0,3.6-0.2,4.3-0.5c0.7-0.4,1.1-1,1.4-2c0.2-1,0.4-3.6,0.4-7.7V208.1z"/>
  <path d="M335.1,209.4c-0.1,1.2-0.2,2.4-0.2,3.6c0,5.8,0.9,10,2.8,12.8c1.9,2.7,4.7,4.1,8.3,4.1c2.4,0,4.5-0.5,6.3-1.6&#xD;&#xA;&#x9;c1.8-1.1,3.2-2.8,4.3-5.2h3.3c-0.4,1.6-1.3,3.2-2.8,4.9c-1.5,1.7-3.3,3-5.3,3.9c-2,0.9-4.3,1.3-6.8,1.3c-3.3,0-6.3-0.8-9.1-2.3&#xD;&#xA;&#x9;s-5-3.7-6.6-6.6c-1.6-2.8-2.4-6.1-2.4-9.8c0-3.6,0.8-6.8,2.3-9.8c1.5-2.9,3.6-5.2,6.4-6.8c2.7-1.7,5.8-2.5,9.1-2.5&#xD;&#xA;&#x9;c2.8,0,5.4,0.6,7.7,1.9c2.3,1.3,4.1,3,5.4,5.2c1.3,2.2,2,4.6,2.1,7.1H335.1z M351.2,207c0.1-0.5,0.2-1,0.2-1.7c0-2.3-0.7-4.2-2-5.6&#xD;&#xA;&#x9;c-1.4-1.4-3.1-2.1-5.3-2.1c-2.4,0-4.4,0.8-5.9,2.3c-1.5,1.6-2.5,3.9-2.9,7H351.2z"/>
  <path d="M361.6,220.9h2.5c0.4,1.7,1.1,3.2,2.1,4.6c1,1.4,2.2,2.5,3.6,3.3c1.4,0.8,3,1.2,4.8,1.2c1.5,0,2.8-0.2,3.7-0.7&#xD;&#xA;&#x9;c1-0.5,1.7-1.1,2.2-2c0.5-0.8,0.8-1.7,0.8-2.7c0-1.1-0.3-2.1-0.8-2.9c-0.5-0.8-1.2-1.5-2.1-2.2c-0.9-0.7-3-1.7-6.2-3.2&#xD;&#xA;&#x9;c-3.1-1.5-5.3-2.8-6.5-3.8c-1.2-1-2.2-2.1-2.9-3.4c-0.7-1.3-1.1-2.8-1.1-4.4c0-2.9,0.9-5.2,2.8-6.9c1.9-1.8,4.3-2.7,7.4-2.7&#xD;&#xA;&#x9;c3.2,0,6,1.2,8.5,3.7c0.4-0.5,0.9-1.5,1.3-3.2h2.4v11.2h-2.4c-0.7-2.6-1.9-4.7-3.6-6.4c-1.7-1.6-3.6-2.4-5.7-2.4&#xD;&#xA;&#x9;c-2,0-3.5,0.4-4.5,1.3c-0.9,0.9-1.4,1.9-1.4,3.2c0,1,0.3,1.9,0.8,2.6c0.6,0.8,1.3,1.5,2.4,2.1c1,0.7,2.9,1.5,5.6,2.6&#xD;&#xA;&#x9;c3.1,1.3,5.3,2.5,6.8,3.6c1.4,1.1,2.5,2.3,3.3,3.8c0.8,1.4,1.2,3.1,1.2,4.9c0,3.3-1.1,5.9-3.2,7.8c-2.1,1.9-4.9,2.9-8.3,2.9&#xD;&#xA;&#x9;c-1.3,0-2.5-0.1-3.5-0.4c-1-0.3-2-0.6-2.8-1.1c-0.8-0.5-1.9-1.3-3.1-2.6c-0.8,0.8-1.2,2-1.4,3.7h-2.5V220.9z"/>
  <path d="M80.1,288.2h9.2v0.8h-10v-16.3h0.8V288.2z"/>
  <path d="M104.8,273.9c-0.2,0-0.4-0.1-0.5-0.2c-0.1-0.1-0.2-0.3-0.2-0.5c0-0.2,0.1-0.3,0.2-0.5c0.1-0.1,0.3-0.2,0.5-0.2&#xD;&#xA;&#x9;c0.2,0,0.3,0.1,0.5,0.2c0.1,0.1,0.2,0.3,0.2,0.5c0,0.2-0.1,0.4-0.2,0.5C105.1,273.8,105,273.9,104.8,273.9z M104.4,277.1h0.8v12&#xD;&#xA;&#x9;h-0.8V277.1z"/>
  <path d="M130.6,277.1h0.8l-4.9,12h-1l-4.8-12h0.8l4.5,11.2L130.6,277.1z"/>
  <path d="M155.8,282c0,0.5,0,0.9,0,1.4h-10.2c0.1,1.5,0.6,2.7,1.5,3.7c0.9,0.9,2,1.4,3.4,1.4c0.9,0,1.8-0.2,2.6-0.7&#xD;&#xA;&#x9;c0.8-0.4,1.4-1,1.9-1.8l0.6,0.4c-0.5,0.9-1.2,1.6-2.2,2.1c-0.9,0.5-1.9,0.8-3,0.8c-1.7,0-3.1-0.6-4.1-1.8c-1-1.2-1.6-2.7-1.6-4.4&#xD;&#xA;&#x9;c0-1.8,0.5-3.3,1.6-4.5c1.1-1.2,2.4-1.8,4.1-1.8c1.4,0,2.6,0.5,3.6,1.4C155.1,279.1,155.7,280.4,155.8,282z M150.5,277.6&#xD;&#xA;&#x9;c-1.4,0-2.5,0.5-3.4,1.4c-0.9,0.9-1.4,2.2-1.5,3.6h9.5c0-1.4-0.4-2.6-1.2-3.6C153,278.1,151.9,277.6,150.5,277.6z"/>
  <path d="M199.6,281.1c1,0.2,1.9,0.7,2.5,1.3c0.6,0.6,0.9,1.5,0.9,2.4c0,1.3-0.5,2.3-1.5,3.2c-1,0.8-2.2,1.2-3.7,1.2h-6.7V273h6.4&#xD;&#xA;&#x9;c1.5,0,2.7,0.4,3.7,1.2c1,0.8,1.5,1.9,1.5,3.1c0,0.9-0.3,1.7-0.8,2.4S200.5,280.8,199.6,281.1z M197.5,273.8h-5.5v6.9h5.5&#xD;&#xA;&#x9;c1.3,0,2.4-0.3,3.2-0.9c0.8-0.6,1.2-1.4,1.2-2.4c0-1.1-0.4-1.9-1.2-2.6C199.8,274.1,198.7,273.8,197.5,273.8z M197.7,288.5&#xD;&#xA;&#x9;c1.3,0,2.3-0.3,3.1-1s1.2-1.5,1.2-2.6c0-1-0.4-1.8-1.2-2.4c-0.8-0.6-1.8-0.9-3.2-0.9h-5.8v6.9H197.7z"/>
  <path d="M228,282.3c0,0.5,0,0.9,0,1.4h-10.2c0.1,1.5,0.6,2.7,1.5,3.7c0.9,0.9,2,1.4,3.4,1.4c0.9,0,1.8-0.2,2.6-0.7&#xD;&#xA;&#x9;c0.8-0.4,1.4-1,1.9-1.8l0.6,0.4c-0.5,0.9-1.2,1.6-2.2,2.1c-0.9,0.5-1.9,0.8-3,0.8c-1.7,0-3.1-0.6-4.1-1.8c-1-1.2-1.6-2.7-1.6-4.4&#xD;&#xA;&#x9;c0-1.8,0.5-3.3,1.6-4.5c1.1-1.2,2.4-1.8,4.1-1.8c1.4,0,2.6,0.5,3.6,1.4C227.2,279.3,227.8,280.6,228,282.3z M222.6,277.8&#xD;&#xA;&#x9;c-1.4,0-2.5,0.5-3.4,1.4c-0.9,0.9-1.4,2.2-1.5,3.6h9.5c0-1.4-0.4-2.6-1.2-3.6C225.1,278.3,224,277.8,222.6,277.8z"/>
  <path d="M272,289.5c-1.7,0-3.2-0.6-4.4-1.8c-1.2-1.2-1.8-2.7-1.8-4.4c0-1.7,0.6-3.2,1.8-4.4c1.2-1.2,2.7-1.8,4.4-1.8&#xD;&#xA;&#x9;c1.7,0,3.2,0.6,4.4,1.8c1.2,1.2,1.8,2.7,1.8,4.4c0,1.7-0.6,3.2-1.8,4.4C275.1,288.9,273.7,289.5,272,289.5z M272,288.7&#xD;&#xA;&#x9;c1.5,0,2.8-0.5,3.8-1.6c1.1-1.1,1.6-2.3,1.6-3.9c0-1.5-0.5-2.8-1.6-3.9c-1.1-1.1-2.3-1.6-3.8-1.6c-1.5,0-2.8,0.5-3.9,1.6&#xD;&#xA;&#x9;c-1.1,1.1-1.6,2.3-1.6,3.9c0,1.5,0.5,2.8,1.6,3.9C269.2,288.2,270.4,288.7,272,288.7z"/>
  <path d="M298.3,277c1.3,0,2.4,0.5,3.4,1.4c1,0.9,1.5,2.1,1.5,3.5v7.3h-0.8V282c0-1.2-0.4-2.2-1.2-3c-0.8-0.8-1.8-1.2-2.9-1.2&#xD;&#xA;&#x9;c-1.1,0-2.1,0.4-2.9,1.2c-0.8,0.8-1.2,1.8-1.2,3v7.3h-0.8v-12h0.8v2.4c0.4-0.7,1-1.4,1.7-1.9C296.6,277.3,297.4,277,298.3,277z"/>
  <path d="M328.6,272.5h0.8v16.7h-0.8v-2.8c-0.4,1-1,1.7-1.9,2.3c-0.8,0.6-1.8,0.8-2.8,0.8c-1.5,0-2.9-0.6-3.9-1.8&#xD;&#xA;&#x9;c-1.1-1.2-1.6-2.7-1.6-4.5c0-1.8,0.5-3.3,1.6-4.5c1.1-1.2,2.4-1.8,4-1.8c1,0,1.9,0.2,2.7,0.7c0.8,0.5,1.5,1.1,1.9,2V272.5z&#xD;&#xA;&#x9; M323.9,288.8c1.3,0,2.4-0.5,3.3-1.6c1-1,1.4-2.3,1.4-3.9c0-1.7-0.4-3-1.3-4c-0.9-1-2-1.5-3.5-1.5c-1.3,0-2.5,0.5-3.4,1.5&#xD;&#xA;&#x9;c-0.9,1-1.4,2.3-1.4,3.9c0,1.6,0.5,2.9,1.4,3.9C321.4,288.3,322.6,288.8,323.9,288.8z"/>
  <path d="M252.6,277.3l-5.8,13.3l-0.8,1.5c-0.3,0.7-0.7,1.2-1.3,1.6c-0.1,0.1-0.7,0.3-0.7,0.3c-0.4,0.1-0.4,0-0.7,0&#xD;&#xA;&#x9;c-0.4,0-0.7,0-1-0.1c-0.5-0.1-0.7-0.4-0.7-0.4v-1.1c0,0,1,1,2.3,0.6c1.1-0.4,1.8-2,2-2.3c0,0,0,0,0-0.1c0,0,0,0,0,0l0.9-2.1&#xD;&#xA;&#x9;l-5.3-11.2h0.9l4.8,10.3l4.5-10.3H252.6z"/>
  <g>
    <path d="M86.1,229.4c5.7-1,11.2-2.8,16.3-5.2v-5.5c-5,2.7-10.5,4.7-16.3,5.8V229.4z M86.1,107.4v5c5.8,1.1,11.3,3.1,16.3,5.8v-5.5&#xD;&#xA;&#x9;&#x9;C97.3,110.2,91.8,108.4,86.1,107.4z M13.6,168.4c0,34.1,27.8,61.9,61.9,61.9c1.9,0,3.8-0.1,5.7-0.3v-4.9c-1.9,0.2-3.8,0.3-5.7,0.3&#xD;&#xA;&#x9;&#x9;c-31.5,0-57-25.6-57-57s25.6-57,57-57c1.9,0,3.8,0.1,5.7,0.3v-4.9c-1.9-0.2-3.8-0.3-5.7-0.3C41.4,106.5,13.6,134.3,13.6,168.4z&#xD;&#xA;&#x9;&#x9; M102.4,224.2c1.7-0.8,3.3-1.7,4.9-2.6L102.4,224.2z M107.3,115.3v5.8c5.1,3.4,9.6,7.6,13.3,12.5V126&#xD;&#xA;&#x9;&#x9;C116.7,121.9,112.2,118.2,107.3,115.3z M107.3,215.8v5.8c4.9-3,9.4-6.6,13.3-10.7v-7.5C116.9,208.1,112.4,212.3,107.3,215.8z&#xD;&#xA;&#x9;&#x9; M125.5,131.9v9.1c4.5,8.1,7.1,17.5,7.1,27.5c0,9.9-2.6,19.3-7.1,27.5v9.1c7.5-10.2,11.9-22.9,11.9-36.5S133,142.1,125.5,131.9z"/>
  </g>
  <g>
    <path d="M77.5,123.1c1.3,0,2.5,0.1,3.7,0.2v-4.9c-1.2-0.1-2.5-0.1-3.7-0.1c-27.1,0-49.1,22-49.1,49.1c0,27.1,22,49.1,49.1,49.1&#xD;&#xA;&#x9;&#x9;c1.3,0,2.5,0,3.7-0.1v-4.9c-1.2,0.1-2.5,0.2-3.7,0.2c-24.4,0-44.3-19.9-44.3-44.3S53.1,123.1,77.5,123.1z"/>
  </g>
  <g>
    <path d="M76.6,139.1c1.6,0,3.1,0.1,4.6,0.4v-4.9c-1.5-0.2-3-0.3-4.6-0.3c-18.4,0-33.3,15-33.3,33.3c0,18.4,15,33.3,33.3,33.3&#xD;&#xA;&#x9;&#x9;c1.6,0,3.1-0.1,4.6-0.3v-4.9c-1.5,0.2-3,0.4-4.6,0.4c-15.7,0-28.5-12.8-28.5-28.5C48.1,151.8,60.9,139.1,76.6,139.1z"/>
  </g>
  <g>
    <path d="M77.4,154.9c1.3,0,2.6,0.2,3.8,0.5v-5c-1.2-0.3-2.5-0.4-3.8-0.4c-10.1,0-18.4,8.3-18.4,18.4c0,10.1,8.3,18.4,18.4,18.4&#xD;&#xA;&#x9;&#x9;c1.3,0,2.6-0.1,3.8-0.4v-5c-1.2,0.4-2.5,0.5-3.8,0.5c-7.5,0-13.5-6.1-13.5-13.5C63.9,161,70,154.9,77.4,154.9z"/>
  </g>
  <g>
    <path d="M86.1,107.4v122c-1.6,0.3-3.2,0.5-4.9,0.6V106.7C82.9,106.9,84.5,107.1,86.1,107.4z"/>
  </g>
  <g>
    <path d="M107.3,115.3v106.3l-4.9,2.6V112.6C104.1,113.4,105.7,114.3,107.3,115.3z"/>
  </g>
  <g>
    <path d="M125.5,131.9v73c-1.5,2.1-3.1,4-4.9,5.9V126C122.3,127.9,124,129.8,125.5,131.9z"/>
  </g>
</svg>