<?xml version="1.0" encoding="UTF-8" standalone="yes"?>
<svg version="1.2" baseProfile="tiny-ps" viewBox="0 0 113.39 113.39" xml:space="preserve" xmlns="http://www.w3.org/2000/svg">
  <title>bimi-svg-tiny-12-ps</title>
  <g id="Layer_2">
    <rect x="0.14" y="0.14" fill="#FFFFFF" width="113.11" height="113.11"/>
  </g>
  <g id="Layer_1">
    <g>
      <path fill="#383A3D" d="M89.78,93.33c-2.25,0-3.83-1.38-4.54-2.8l2.33-1.22c0.51,0.95,1.34,1.46,2.25,1.46&#xD;&#xA;&#x9;&#x9;&#x9;c0.55,0,1.22-0.2,1.22-0.87c0-0.79-1.03-0.91-2.49-1.46c-0.87-0.32-2.57-1.03-2.57-3.04c0-1.94,1.66-3.32,3.75-3.32&#xD;&#xA;&#x9;&#x9;&#x9;c1.58,0,2.84,0.79,3.63,1.86l-1.74,1.58c-0.51-0.55-1.26-0.87-1.82-0.87c-0.51,0-0.99,0.24-0.99,0.75c0,0.51,0.47,0.71,1.82,1.15&#xD;&#xA;&#x9;&#x9;&#x9;c1.5,0.51,3.24,1.19,3.24,3.2C93.93,91.75,92.19,93.33,89.78,93.33 M71.84,79.23c0-0.91,0.71-1.62,1.62-1.62&#xD;&#xA;&#x9;&#x9;&#x9;c0.91,0,1.62,0.71,1.62,1.62c0,0.91-0.71,1.62-1.62,1.62C72.59,80.89,71.84,80.14,71.84,79.23 M66.51,79.23&#xD;&#xA;&#x9;&#x9;&#x9;c0-0.91,0.71-1.62,1.62-1.62c0.91,0,1.62,0.71,1.62,1.62c0,0.91-0.71,1.62-1.62,1.62C67.22,80.89,66.51,80.14,66.51,79.23&#xD;&#xA;&#x9;&#x9;&#x9; M60.43,77.33h2.92v15.84h-2.92V77.33z M84.72,84.76H82v8.38h-2.92v-8.38h-1.74v-2.61h1.74v-1.03c0-2.13,1.78-3.87,3.95-3.87h1.5&#xD;&#xA;&#x9;&#x9;&#x9;v2.77H83.3c-0.83,0-1.34,0.51-1.34,1.3v0.83h2.73v2.61H84.72z M70.82,90.49c-1.5,0-2.73-1.22-2.73-2.77s1.22-2.77,2.73-2.77&#xD;&#xA;&#x9;&#x9;&#x9;c1.5,0,2.73,1.26,2.73,2.77C73.54,89.27,72.32,90.49,70.82,90.49 M70.82,82.08c-3.12,0-5.65,2.53-5.65,5.65s2.53,5.65,5.65,5.65&#xD;&#xA;&#x9;&#x9;&#x9;c3.12,0,5.65-2.53,5.65-5.65S73.94,82.08,70.82,82.08 M39.41,90.49c-1.54,0-2.77-1.22-2.77-2.77s1.22-2.77,2.77-2.77&#xD;&#xA;&#x9;&#x9;&#x9;c1.5,0,2.77,1.19,2.77,2.77C42.17,89.34,40.91,90.49,39.41,90.49 M42.17,82.19v1.15c-0.83-0.79-1.82-1.26-3.12-1.26&#xD;&#xA;&#x9;&#x9;&#x9;c-2.92,0-5.29,2.53-5.29,5.65s2.37,5.65,5.33,5.65c1.26,0,2.25-0.47,3.12-1.26v1.11h2.84V82.23h-2.88V82.19z M22.5,83.73h6.36&#xD;&#xA;&#x9;&#x9;&#x9;v-6.4h3v15.84h-3v-6.52H22.5v6.52h-3V77.33h3V83.73z M52.52,90.41c-1.54,0-2.77-1.19-2.77-2.69c0-1.5,1.22-2.77,2.77-2.77&#xD;&#xA;&#x9;&#x9;&#x9;c1.5,0,2.77,1.19,2.77,2.77C55.29,89.3,54.03,90.41,52.52,90.41 M55.29,82.19v1.15c-0.83-0.79-1.86-1.26-3.12-1.26&#xD;&#xA;&#x9;&#x9;&#x9;c-2.84,0-5.29,2.53-5.29,5.61c0,3.08,2.45,5.57,5.29,5.57c1.26,0,2.29-0.47,3.12-1.26v0.51c0,1.74-1.54,2.88-3.04,2.88&#xD;&#xA;&#x9;&#x9;&#x9;c-0.95,0-1.7-0.43-2.21-0.79l-1.86,1.98c0.99,0.91,2.33,1.54,4.07,1.54c3.36,0,5.89-2.45,5.89-6.08v-9.84L55.29,82.19L55.29,82.19&#xD;&#xA;&#x9;&#x9;&#x9;z"/>
      <path fill="#383A3D" d="M72.48,34.27c2.45,0,4.46-1.98,4.46-4.46V19.74c0-2.45-1.98-4.46-4.46-4.46s-4.46,1.98-4.46,4.46v10.11&#xD;&#xA;&#x9;&#x9;&#x9;C68.05,32.3,70.03,34.27,72.48,34.27"/>
      <path fill="#383A3D" d="M40.99,66.04c2.45,0,4.46-1.98,4.46-4.46V51.46c0-2.45-1.98-4.46-4.46-4.46c-2.49,0-4.46,1.98-4.46,4.46&#xD;&#xA;&#x9;&#x9;&#x9;v10.11C36.52,64.06,38.54,66.04,40.99,66.04"/>
      <path fill="#383A3D" d="M40.99,34.31c2.45,0,4.46-1.98,4.46-4.46V19.74c0-2.45-1.98-4.46-4.46-4.46c-2.45,0-4.46,1.98-4.46,4.46&#xD;&#xA;&#x9;&#x9;&#x9;v10.11C36.52,32.3,38.54,34.31,40.99,34.31"/>
      <path fill="#383A3D" d="M72.48,66.04c2.45,0,4.46-1.98,4.46-4.46V51.46c0-2.45-1.98-4.46-4.46-4.46c-2.45,0-4.46,1.98-4.46,4.46&#xD;&#xA;&#x9;&#x9;&#x9;v10.11C68.05,64.06,70.03,66.04,72.48,66.04"/>
      <path fill="#383A3D" d="M66.23,40.67c0-2.45-1.98-4.46-4.46-4.46H51.66c-2.45,0-4.46,1.98-4.46,4.46c0,2.45,1.98,4.46,4.46,4.46&#xD;&#xA;&#x9;&#x9;&#x9;h10.11C64.26,45.1,66.23,43.12,66.23,40.67"/>
    </g>
  </g>
</svg>