<?xml version="1.0" encoding="UTF-8" standalone="yes"?>
<svg version="1.2" baseProfile="tiny-ps" viewBox="0 0 481.9 481.9" xml:space="preserve" xmlns="http://www.w3.org/2000/svg">
  <title>bimi-svg-tiny-12-ps</title>
  <rect x="206.2" y="194.2" fill="#131A1C" width="28.6" height="94.1"/>
  <polygon fill="#131A1C" points="192.9,222.8 173.7,222.8 173.7,288.3 145.1,288.3 145.1,222.8 125.9,222.8 125.9,194.2 192.9,194.2 &#xA;&#x9;"/>
  <path fill="#131A1C" d="M50,233.5L50,233.5c-0.5,0.6-3.8,4-4.5,4.7c-9.3,9-19.2,21.7-31.3,21.6v29.1c18,0.1,33-10,43.9-21.2&#xA;&#x9;c17.6-15.3,30.5-45.1,54.5-45.1V194C81.2,194.1,65.9,215.6,50,233.5z"/>
  <path fill="#131A1C" d="M248.1,241c0-8.9,2.5-17.3,6.8-24.4l0,0c7.2-11.7,19.4-20.5,34.4-22.9c13.2-2.1,27.1,0.8,36.1,8.5&#xA;&#x9;l-16.1,20.2l0,0c-3.7-2.6-8.2-4.1-13.1-4.1c-12.7,0-23,10.3-23,23s10.3,23,23,23c8.8,0,16.5-5,20.4-12.3h-2.5H298v-18.6h47.4&#xA;&#x9;c2,23.3-8.6,40.3-26.6,50.3c-14.2,7-34.6,7.3-48.2-1.6C256.3,273.2,248.2,259,248.1,241L248.1,241L248.1,241z"/>
  <path fill="#131A1C" d="M412.6,201.6c-4.8-4.9-10.4-7.2-16.9-7.4h-37.1v94.1h27.8v-18.1h43.4c9.3,8.8,22,17.6,36.9,17.3v-30.2&#xA;&#x9;C438.9,247.2,431.7,219.2,412.6,201.6z M387.1,244.6v-22.4l0,0l0,0h3.7c0,0,3.8,0,6.8,4.2l0.3,0.5l12.6,17.7H387.1L387.1,244.6z"/>
  <path fill="#131A1C" d="M456.8,192.9c-6,0-11,4.9-11,11c0,6.1,4.9,11,11,11s11-4.9,11-11C467.8,197.8,462.8,192.9,456.8,192.9z&#xA;&#x9; M456.8,213.2c-5.2,0-9.4-4.2-9.4-9.4s4.2-9.4,9.4-9.4s9.4,4.2,9.4,9.4S461.9,213.2,456.8,213.2z"/>
  <path fill="#131A1C" d="M460.3,209.4L457,205h-3v4.4h-1.6v-11.6h5c2.6,0,4.2,1.4,4.2,3.5c0,1.7-1,3-2.9,3.4l0,0l3.5,4.7H460.3&#xA;&#x9;L460.3,209.4z M454,203.6h3.3c1.7,0,2.7-0.9,2.7-2.2c0-1.3-1-2.1-2.7-2.1H454V203.6L454,203.6z"/>
</svg>