<?xml version="1.0" encoding="utf-8"?>
<!-- Generator: Adobe Illustrator 28.1.0, SVG Export Plug-In . SVG Version: 6.00 Build 0)  -->
<svg version="1.2" baseProfile="tiny-ps" id="Layer_1" xmlns="http://www.w3.org/2000/svg" xmlns:xlink="http://www.w3.org/1999/xlink"
	  viewBox="0 0 100 100" xml:space="preserve"><title>PerkSpot</title>
<path fill="#004B6B" d="M50,0C22.4,0,0,22.4,0,50s22.4,50,50,50s50-22.4,50-50S77.6,0,50,0z M50,93.5C26,93.5,6.5,74,6.5,50
	S26,6.5,50,6.5S93.5,26,93.5,50S74,93.5,50,93.5z"/>
<path fill="#004B6B" d="M31.9,28.5c-4.4,0-9.3,0.4-12.5,1.1h-0.1v41.2c0.9,0.5,2.4,0.8,4.5,0.8c2.2,0,3.7-0.3,4.5-0.8V57.9
	c1.5,0.2,4.5,0.4,6.4,0.4c9.1,0,16.4-4.7,16.4-15.3C51.1,32.6,43.9,28.5,31.9,28.5z M33.5,50.7c-1.8,0-4-0.2-5.2-0.4V36.5
	c1.3-0.3,2.8-0.4,4.3-0.3c6,0,9.4,2.2,9.4,7.4C42,48.6,38.8,50.7,33.5,50.7z"/>
<path fill="#004B6B" d="M67.6,64.9c5.3,0,7.4-2,7.4-5.2c0-8.7-19.8-4-19.8-19.2c0-8.5,5.6-12.9,14.7-12.9c4,0,7.4,0.8,10.4,2.6
	c1.3,2.1,2,5.5,1.6,8.2c-3.2-2-7.4-3.3-11.4-3.3c-4.4,0-6.4,1.6-6.4,4.3c0,8.2,19.7,3.9,19.7,19.2c0,10.4-7.2,13.9-16.2,13.9
	c-4.4,0-8.5-0.8-11.8-2.4c-1.4-2.3-2-6.1-1.6-8.6C57.6,63.4,63.2,64.9,67.6,64.9z"/>
</svg>
