<?xml version="1.0" encoding="UTF-8" standalone="yes"?>
<svg version="1.2" viewBox="0 0 1200 1200" xml:space="preserve" baseProfile="tiny-ps" xmlns="http://www.w3.org/2000/svg">
  <title>bimi-svg-tiny-12-ps</title>
  <rect x="314.213" y="532.437" width="18.539" height="136.099"/>
  <path d="M357.071,600.489c0,39.585,39.943,71.686,89.141,71.686c28.797,0,54.379-10.948,70.655-27.922l-13.919-15.243&#xD;&#xA;&#x9;c-11.841,15.129-32.779,25.213-56.736,25.213c-36.871,0-66.832-24.052-66.832-53.734c0-29.707,29.961-53.736,66.832-53.736&#xD;&#xA;&#x9;c23.957,0,44.894,10.054,56.741,25.186l13.928-15.201c-16.29-16.98-41.873-27.911-70.669-27.911&#xD;&#xA;&#x9;C397.014,528.826,357.071,560.923,357.071,600.489"/>
  <path d="M649.056,615.757c28.752,0,52.021-18.757,52.021-41.808c0-23.085-23.269-41.359-52.021-41.359l-105.565-0.154v136.099&#xD;&#xA;&#x9;h18.519v-52.778h60.562l52.815,52.778h25.691l-52.806-52.778H649.056z M562.01,596.973v-46.037h87.046&#xD;&#xA;&#x9;c15.841,0,28.699,10.303,28.699,23.013c0,12.704-12.858,23.024-28.699,23.024H562.01z"/>
  <path d="M809.423,528.827c-49.24,0-89.166,32.092-89.166,71.672c0,39.585,39.926,71.674,89.166,71.674&#xD;&#xA;&#x9;c49.245,0,89.171-32.089,89.171-71.674C898.594,560.919,858.668,528.827,809.423,528.827 M809.423,654.408&#xD;&#xA;&#x9;c-12.919,0-24.984-2.955-35.22-8.043l-27.794,4.837l8.141-19.742c-7.666-8.761-12.177-19.435-12.177-30.961&#xD;&#xA;&#x9;c0-29.768,30.011-53.901,67.05-53.901c37.047,0,67.066,24.133,67.066,53.901C876.489,630.27,846.469,654.408,809.423,654.408" fill="#FF8200"/>
  <polygon points="143.525,532.437 125.5,532.437 125.5,668.536 143.525,668.536 143.525,615.439 265.054,615.439 265.054,668.536 &#xD;&#xA;&#x9;283.109,668.536 283.109,532.437 265.054,532.437 265.054,596.903 143.525,596.903 "/>
  <polygon points="917.891,530.317 917.891,668.284 935.958,668.284 935.958,566.791 1073.967,671.557 1075.5,671.557 1075.5,532.498 &#xD;&#xA;&#x9;1057.422,532.498 1057.422,633.355 919.854,530.317 "/>
</svg>