<svg xmlns="http://www.w3.org/2000/svg" xmlns:xlink="http://www.w3.org/1999/xlink" version="1.2" viewBox="0 0 668.976 668.976" baseProfile="tiny-ps">
  <title>logo UN GP mono BLACK</title>
  <g id="Calque_2">
    <rect x="-8.504" y="-8.504" width="685.984" height="685.984" fill="#FFFFFF"/>
  </g>
  <g id="Calque_1">
    <g>
      <g>
        <g>
          <path d="M272.039,363.251h-48.2l1.812,3.874c0.966,2.077,3.297,8.697,1.322,11.794c-0.802,1.289-2.538,1.954-5.145,1.954      c-14.427,0-46.438,0.196-46.54,0.196c-1.986,0.011-6.419-0.664-7.364-2.836c-0.552-1.54-4.386-10.592-16.561-10.752h-0.073      c-12.168,0.159-16.009,9.212-16.569,10.752c-0.941,2.171-5.374,2.847-7.386,2.836c-0.087,0-32.088-0.196-46.522-0.196      c-2.592,0-4.339-0.664-5.145-1.954c-1.964-3.097,0.367-9.717,1.326-11.794l1.826-3.874h-4.281H30.613L13.05,385.205      l17.564,21.95H78.82l-1.826-3.882c-0.959-2.092-3.29-8.707-1.326-11.809c0.806-1.274,2.553-1.928,5.145-1.928      c14.434,0,46.435-0.207,46.551-0.207c1.983,0,6.416,0.664,7.357,2.847c0.559,1.529,4.401,10.57,16.569,10.719h0.073      c12.175-0.149,16.009-9.19,16.561-10.719c0.944-2.183,5.377-2.847,7.386-2.847c0.08,0,32.092,0.207,46.518,0.207      c2.607,0,4.343,0.654,5.145,1.928c1.976,3.101-0.356,9.717-1.322,11.809l-1.812,3.86l4.259,0.022h43.94l17.553-21.95      L272.039,363.251L272.039,363.251z"/>
          <path d="M186.977,291.841l-10.098,2.734v-41.544c0,0,2.691,0,6.747,0c8.246,0,27.862,0.084,27.862,17.673      C211.487,278.656,206.269,286.1,186.977,291.841L186.977,291.841z M189.94,243.907h-32.47v2.85      c1.772,0.301,4.252,0.984,5.723,1.718v72.982c-1.471,0.734-3.951,1.416-5.723,1.721v2.85h25.131v-2.85      c-1.772-0.305-4.252-0.988-5.722-1.721v-16.732c0,0,11.838-3.163,23.719-6.906c12.647-3.983,25.316-11.053,25.182-27.963      C225.641,251.75,213.106,243.907,189.94,243.907L189.94,243.907z"/>
          <path d="M127.39,283.606c1.772,0.305,4.252,0.988,5.719,1.721v30.904c-20.585,0-37.528-14.731-37.528-34.96      c0-15.516,9.201-29.398,24.477-29.659c8.802,0.054,12.589,4.277,14.673,8.533c2.324-0.795,13.482-3.962,13.482-3.962      c-4.746-8.784-13.973-13.816-28.599-13.693c-14.227,0.12-39.746,8.802-39.325,38.809c0.399,28.468,22.368,44.58,54.231,44.58      h12.175l0.091-40.553c1.471-0.733,3.951-1.416,5.719-1.721v-2.847H127.39V283.606L127.39,283.606z"/>
        </g>
      </g>
      <g>
        <g>
          <g>
            <path d="M568.198,388.029l3.184,7.259c-10.254,3.963-34.369,9.765-51.87,11.858l-5.271-131.938l44.34-6.176l-44.843-6.416       l-0.552-13.802c10.987-2.231,19.257-11.943,19.257-23.588c0-13.294-10.792-24.072-24.087-24.072s-24.087,10.777-24.087,24.072       c0,11.645,8.27,21.357,19.256,23.588l-0.552,13.802l-44.843,6.416l44.339,6.176l-5.27,131.938       c-17.5-2.093-41.615-7.895-51.87-11.858l3.185-7.259l-43.729-3.929l33.635,26.94l3.285-7.49l66.651,27.604l66.65-27.604       l3.285,7.49l33.636-26.94L568.198,388.029z M494.973,225.227c0-7.391,5.992-13.382,13.383-13.382       c7.39,0,13.382,5.991,13.382,13.382c0,7.391-5.992,13.382-13.382,13.382C500.964,238.609,494.973,232.617,494.973,225.227"/>
            <path d="M479.145,311.118c0.089-2.71,0.522-4.906,2.583-7.22h-20.345c2.318,2.604,2.581,5.07,2.604,8.279v26.07       c0.036,1.726-0.382,4.248-2.565,6.473c-2.761,2.818-7.657,4.377-13.772,4.377c-6.122,0-11.018-1.558-13.78-4.377       c-2.183-2.225-2.6-4.748-2.564-6.628v-26.836c0.079-2.775,0.5-5.001,2.591-7.358H413.55c2.128,2.397,2.532,4.656,2.601,7.5       v26.54c-0.132,6.55,2.311,12.724,6.892,17.393c3.988,4.071,11.497,8.921,24.606,8.921c13.102,0,20.612-4.85,24.6-8.921       c4.581-4.669,7.024-10.844,6.896-17.239V311.118z"/>
            <path d="M601.271,356.109v-44.748c0.072-2.825,0.477-5.077,2.594-7.464h-20.368c2.831,3.187,2.61,6.13,2.61,10.521h0.007       v25.261l-31.152-35.782H536.65c2.831,3.187,2.608,6.13,2.608,10.521h0.01v41.175c-0.037,3.064-0.359,5.457-2.601,7.983h20.365       c-2.827-3.183-2.604-6.132-2.604-10.518h-0.007v-26.484l32.28,37.002h17.163C601.748,361.19,601.343,358.941,601.271,356.109"/>
          </g>
        </g>
      </g>
      <rect x="333.826" y="171.155" width="3.548" height="326.667"/>
    </g>
  </g>
</svg>