<?xml version="1.0" encoding="utf-8"?>
<!-- Generator: Adobe Illustrator 26.0.2, SVG Export Plug-In . SVG Version: 6.00 Build 0)  -->
<svg version="1.2" baseProfile="tiny-ps" id="Calque_1"
	 xmlns="http://www.w3.org/2000/svg" xmlns:xlink="http://www.w3.org/1999/xlink" viewBox="0 0 100 100"
	 xml:space="preserve">
<title>Girard Perregaux</title>
<rect y="0" width="100" height="100"/>
<g>
	<g>
		<path fill="#FFFFFF" d="M89.21,63.09H73.56l0.59,1.26c0.31,0.68,1.07,2.82,0.43,3.83c-0.26,0.42-0.82,0.63-1.67,0.63
			c-4.69,0-15.08,0.06-15.12,0.06c-0.65,0-2.09-0.22-2.39-0.92c-0.18-0.5-1.43-3.44-5.38-3.49h-0.02c-3.95,0.05-5.2,2.99-5.38,3.49
			c-0.31,0.71-1.75,0.93-2.4,0.92c-0.03,0-10.42-0.06-15.11-0.06c-0.84,0-1.41-0.22-1.67-0.63c-0.64-1.01,0.12-3.16,0.43-3.83
			l0.59-1.26h-1.39H10.79l-5.71,7.13l5.71,7.13h15.66l-0.59-1.26c-0.31-0.68-1.07-2.83-0.43-3.84c0.26-0.41,0.83-0.63,1.67-0.63
			c4.69,0,15.08-0.07,15.12-0.07c0.64,0,2.08,0.22,2.39,0.93c0.18,0.5,1.43,3.43,5.38,3.48h0.02c3.95-0.05,5.2-2.98,5.38-3.48
			c0.31-0.71,1.75-0.93,2.4-0.93c0.03,0,10.42,0.07,15.11,0.07c0.85,0,1.41,0.21,1.67,0.63c0.64,1.01-0.12,3.16-0.43,3.84
			l-0.59,1.25l1.38,0.01h14.27l5.7-7.13L89.21,63.09z"/>
	</g>
</g>
<g>
	<g>
		<path fill="#FFFFFF" d="M59.43,49.3c-0.59-0.1-1.42-0.33-1.92-0.58v-5.61c0,0,3.97-1.06,7.95-2.31c4.24-1.33,8.48-3.7,8.44-9.37
			c-0.05-6.07-4.25-8.7-12.01-8.7H51.01v0.96c0.59,0.1,1.42,0.33,1.92,0.58v24.46c-0.49,0.25-1.32,0.47-1.92,0.58v0.96h8.42V49.3z
			 M57.51,25.79c0,0,0.9,0,2.26,0c2.76,0,9.34,0.03,9.34,5.92c0,2.67-1.75,5.16-8.21,7.08l-3.38,0.92L57.51,25.79z"/>
		<path fill="#FFFFFF" d="M44.29,50.25h4.1v-13.6c0.49-0.25,1.34-0.47,1.93-0.58v-0.96H41.9v0.96c0.59,0.1,1.42,0.33,1.92,0.58
			v10.36c-6.9,0-12.58-4.94-12.58-11.72c0-5.2,3.08-9.86,8.21-9.94c2.95,0.02,4.22,1.43,4.92,2.86c0.78-0.27,4.52-1.33,4.52-1.33
			c-1.59-2.95-4.68-4.63-9.59-4.59c-4.77,0.04-13.33,2.95-13.19,13.01C26.24,44.85,33.6,50.25,44.29,50.25z"/>
	</g>
</g>
</svg>
