<?xml version="1.0" encoding="UTF-8"?><svg xmlns="http://www.w3.org/2000/svg" xmlns:xlink="http://www.w3.org/1999/xlink" version="1.2" baseProfile="tiny-ps" viewBox="0 0 1200 1200" xml:space="preserve"><title>Respona</title><rect width="1200" height="1200" fill="#251FB6"></rect><path d="M640.958 595.347C640.964 595.305 640.968 595.262 640.97 595.219C640.982 595.061 640.977 594.9 640.958 594.744L640.957 594.729C640.955 594.711 640.948 594.698 640.945 594.681C640.931 594.589 640.913 594.499 640.89 594.413C640.877 594.371 640.858 594.338 640.844 594.299C640.829 594.259 640.817 594.227 640.8 594.192C640.748 594.072 640.684 593.969 640.613 593.887C640.603 593.88 640.593 593.873 640.584 593.866C640.516 593.8 640.444 593.753 640.368 593.726C640.343 593.717 640.317 593.71 640.291 593.706C640.269 593.702 640.248 593.689 640.225 593.687L605.965 592.961C605.827 592.958 605.691 593.023 605.571 593.149C605.452 593.275 605.354 593.458 605.287 593.678C605.221 593.898 605.189 594.146 605.194 594.397C605.2 594.647 605.243 594.89 605.319 595.1L607.316 600.798L623.152 601.34C623.152 601.34 615.809 604.337 607.635 607.439C600.823 610.024 603.706 626.391 605.793 625.18L615.049 619.806L622.716 643.166C622.803 643.406 622.929 643.59 623.077 643.693C623.24 643.81 623.421 643.821 623.589 643.724C623.756 643.627 623.9 643.429 623.996 643.162L640.857 595.821C640.859 595.813 640.861 595.804 640.863 595.796C640.869 595.769 640.875 595.742 640.88 595.715C640.916 595.6 640.942 595.476 640.958 595.347Z" fill="#251FB6"></path><path d="M598.769 660.5C597.723 638.803 602.308 589.554 652 577.5L653 560C617 564 600.077 580.85 587 598.5L598.769 660.5Z" fill="#251FB6"></path><path fill-rule="evenodd" d="M151.76 667.44H110V597.117C115.406 579.979 126.63 562.706 148.996 554.032L154.296 552.334L170.537 579.645C170.722 579.925 170.989 580.14 171.302 580.261C171.648 580.398 172.031 580.411 172.386 580.298C172.741 580.184 173.045 579.952 173.248 579.64L208.967 524.291C208.971 524.281 208.975 524.271 208.978 524.261L209.016 524.166C209.091 524.032 209.147 523.887 209.18 523.736C209.192 523.687 209.201 523.637 209.206 523.587C209.23 523.402 209.221 523.214 209.18 523.032L209.179 523.014C209.177 523.002 209.171 522.993 209.165 522.983C209.16 522.975 209.155 522.967 209.152 522.958C209.124 522.85 209.085 522.745 209.036 522.645C209.021 522.617 209.001 522.593 208.982 522.569C208.966 522.55 208.951 522.531 208.938 522.511C208.908 522.464 208.88 522.427 208.846 522.386C208.735 522.246 208.6 522.126 208.449 522.03L208.387 522.005C208.244 521.928 208.091 521.873 207.931 521.841C207.877 521.83 207.822 521.823 207.767 521.818C207.746 521.816 207.726 521.812 207.706 521.808C207.681 521.802 207.655 521.797 207.628 521.796L135.054 520.946C134.761 520.943 134.473 521.019 134.22 521.167C133.966 521.315 133.758 521.528 133.618 521.785C133.477 522.042 133.409 522.333 133.42 522.626C133.432 522.918 133.523 523.202 133.684 523.447L137.916 530.11L171.46 530.743C171.46 530.743 166.1 531.951 158.17 533.682C150.878 534.58 144.385 536.015 138.556 537.881C137.326 538.142 136.245 538.52 135.301 538.992C124.946 542.753 116.795 547.93 110 553.854V503C110 493.611 117.611 486 127 486H183.44C221.168 486 246.8 512.208 246.8 543.6C247.088 584.208 212.528 598.32 212.24 598.32L252.56 667.44H206.48L173.36 606.96H151.76V667.44ZM343.082 630C345.098 628.848 346.538 627.408 347.69 625.68L388.01 628.56C381.098 650.16 360.362 670.32 326.09 670.32C290.378 670.32 259.85 640.08 259.85 601.2C259.85 562.32 290.09 532.08 327.53 532.08C363.53 532.08 392.33 559.44 392.33 601.2C392.33 603.458 392.037 605.57 391.765 607.536C391.655 608.328 391.549 609.096 391.466 609.84L390.89 614.16H300.17C303.338 624.24 312.842 634.32 327.53 634.32C334.73 634.32 339.914 632.304 343.082 630ZM327.53 568.08C312.842 568.08 303.338 578.16 300.17 589.68H354.89C351.722 578.16 342.218 568.08 327.53 568.08ZM402.309 627.12C406.629 653.328 423.909 670.32 459.909 670.32C493.317 670.32 513.189 650.16 513.189 628.56C513.189 597.911 485.036 590.025 465.045 584.425C454.04 581.342 445.509 578.953 445.509 573.84C445.509 568.08 449.541 563.76 458.469 563.76C467.397 563.76 472.869 569.52 474.309 575.28L511.749 572.4C507.429 549.36 490.149 532.08 455.589 532.08C424.197 532.08 405.189 550.8 405.189 572.4C405.189 603.158 433.544 611.112 453.547 616.723C464.448 619.78 472.869 622.142 472.869 627.12C472.869 632.88 467.109 638.64 457.029 638.64C446.949 638.64 441.189 633.168 439.749 624.24L402.309 627.12ZM569.439 713.52H530.559V534.96H559.359L565.119 547.92C567.999 545.328 571.455 542.736 575.199 540.72C581.823 537.264 591.039 533.52 602.559 533.52C635.679 533.52 664.479 562.032 664.479 601.2C664.479 640.368 635.679 668.88 602.559 668.88C592.479 668.88 584.127 666.288 578.367 663.12C574.911 661.392 572.031 659.376 569.439 657.36V713.52ZM567.999 601.2C567.999 619.92 580.671 632.88 596.799 632.88C612.927 632.88 625.599 619.92 625.599 601.2C625.599 582.48 612.927 569.52 596.799 569.52C580.671 569.52 567.999 582.48 567.999 601.2ZM675.976 601.2C675.976 640.08 706.216 670.32 743.656 670.32C781.096 670.32 811.336 640.08 811.336 601.2C811.336 562.32 781.096 532.08 743.656 532.08C706.216 532.08 675.976 562.32 675.976 601.2ZM772.456 601.2C772.456 621.648 759.784 634.32 743.656 634.32C727.528 634.32 714.856 621.648 714.856 601.2C714.856 580.752 727.528 568.08 743.656 568.08C759.784 568.08 772.456 580.752 772.456 601.2ZM867.575 667.44H828.695V534.96H857.495L863.255 547.92C866.423 545.328 869.879 542.736 873.911 540.72C880.823 537.264 890.615 533.52 902.135 533.52C933.527 533.52 955.415 555.12 955.415 589.68V667.44H916.535V596.88C916.535 579.6 906.743 569.52 892.055 569.52C877.367 569.52 867.575 579.6 867.575 596.88V667.44ZM1060.58 667.44H1089.38V586.8C1089.38 555.12 1066.34 532.08 1034.66 532.08C999.812 532.08 981.668 550.512 977.06 576.72L1015.94 579.6C1016.52 577.296 1017.67 575.28 1019.11 573.264C1021.7 570.096 1026.02 566.64 1033.22 566.64C1043.3 566.64 1050.5 573.84 1050.5 586.8C990.02 586.8 971.3 605.232 971.3 631.44C971.3 653.328 987.14 668.88 1015.94 668.88C1027.46 668.88 1036.96 665.424 1043.88 661.68C1047.91 659.664 1051.65 657.072 1054.82 654.48L1060.58 667.44ZM1050.5 615.6C1050.5 630.288 1040.71 640.08 1026.02 640.08C1015.94 640.08 1010.18 634.32 1010.18 627.12C1010.18 617.04 1017.09 609.84 1050.5 609.84V615.6Z" fill="white"></path></svg>