<?xml version="1.0" encoding="UTF-8"?>
<svg version="1.2" baseProfile="tiny-ps" id="logo" xmlns="http://www.w3.org/2000/svg" xmlns:xlink="http://www.w3.org/1999/xlink" viewBox="0 0 187.1 187.1">
    <title>Creema</title>
    <rect fill="#fff" width="187.1" height="187.1" />
    <g>
        <path d="M141.2,93.6h0c0-1.7-.6-3.4-1.6-4.4-1-.9-2.4-1.4-4-1.4,0,0,0,0,0,0-1.7,0-3.2.6-4.4,1.7-1-1.1-2.5-1.7-4.2-1.7h0c-1.1,0-2.1.2-2.9.7v-.9h-3.2v13.3h-1.2v3.2h5.6v-3.2h-1.2v-7.1c0-2,.9-3,2.8-3.1,1.9,0,2.6,1,2.7,3.1v7.1h-1.2v3.2h5.6v-3.2h-1.2v-7.3c0-1.7.9-2.8,2.8-2.9,1.9,0,2.6,1,2.7,3.1v7.1h-1.2v3.2h5.6v-3.2h-1.2v-7.3h0Z" fill="#333" />
    </g>
    <g>
        <path d="M31.1,85.5c2.8,0,4.7,1,6,2.3l.3.3v-4.6h0c-1.7-1-3.9-1.5-6.5-1.5-7.5,0-11.3,6.1-11.3,11.6s3.8,11.6,11.3,11.6h0c2.6,0,4.7-.5,6.5-1.5h0v-5.2l-.3.3c-1.4,1.5-3.5,2.6-6.3,2.6-4.7,0-7.4-4.1-7.5-7.9,0-3.8,3-8.1,7.7-8.1h0Z" fill="#333" />
    </g>
    <g>
        <path d="M53.4,88.7v-1.2h-3.2v13.5h-1.2v3.2h5.6v-3.2h-1.2v-6.7c0-1.7,1.6-3.9,3.9-3.9s2.9,1,3.5,2.2l2.4-2.2s-1.8-3.2-6-3.2-4,1.5-4,1.5h0Z" fill="#333" />
    </g>
    <g>
        <path d="M78,87.1c-4.9,0-7.5,4.2-7.5,8.7,0,4.5,2.5,8.7,7.7,8.7s3.1-.6,3.1-.6v-3.5s-.7.5-1.6.8c-.5.2-.9.2-1.5.2-2.6,0-4.2-1.9-4.3-4.9h11.1v-.3c.2-.3.2-.8.2-1.4,0-2.7-1.2-7.6-7.2-7.6h0ZM74.3,93.4c.3-1,1.2-3.2,3.8-3.2,2.6,0,3.5,1.9,3.7,3.2h-7.5Z" fill="#333" />
    </g>
    <g>
        <path d="M102.1,87.1c-4.9,0-7.5,4.2-7.5,8.7,0,4.5,2.5,8.7,7.7,8.7s3.1-.6,3.1-.6v-3.5s-.7.5-1.6.8c-.5.2-.9.2-1.5.2-2.6,0-4.2-1.9-4.3-4.9h11v-.3c.2-.3.2-.8.2-1.4,0-2.7-1.2-7.6-7.2-7.6h0ZM98.4,93.4c.3-1,1.2-3.2,3.8-3.2,2.6,0,3.5,1.9,3.7,3.2h-7.5Z" fill="#333" />
    </g>
    <g>
        <path d="M166.6,101.8c-1.7-1.3-2.4-2.7-2.5-4.9v-3.3c0-3.4-2.3-6.4-6.1-6.4s-4.4,1.5-4.4,1.5l1.6,2.8s1-1.1,2.8-1.1,2.7,1.2,2.9,3h-2.2c-3.8,0-6.5,1.9-6.5,5.6,0,3.3,2.4,5.6,5.4,5.6s3.6-1,4.7-2.4c.6,1.1,3,3,3,3l2.3-2.6s-1-.8-1-.7ZM160.8,98.8h0c-.3.9-.4,1.1-.9,1.6-.6.6-1.4,1-2.2,1s-2.2-1.1-2.2-2.4c0-1.7.7-2.5,3.2-2.6h2.2v.6c0,.3,0,.5,0,.8,0,.4,0,.8-.1,1.2h0Z" fill="#333" />
    </g>
</svg>
