<?xml version="1.0" encoding="UTF-8" standalone="yes"?>
<svg version="1.2" viewBox="0 0 1081 1081" xml:space="preserve" baseProfile="tiny-ps" xmlns="http://www.w3.org/2000/svg">
  <title>bimi-svg-tiny-12-ps</title>
  <g id="Layer_2_00000086669740956008164370000011548769142516879033_">
    <rect x="0.5" y="0.5" class="st0" width="1080" height="1080" fill="#FFFFFF" stroke="#231F20" stroke-miterlimit="10"/>
  </g>
  <g id="Layer_1_00000132060873688433552200000000691523917522669496_">
    <g>
      <path d="M539.3,979.8c136.6,0,193.2-21.5,236.2-87.9c40.3-63.9,57.8-145.6,57.8-351.4v0.2c0-205.9-17.5-287.5-57.8-351.4&#xA;&#x9;&#x9;&#x9;c-43-66.5-99.6-87.9-236.2-87.9h2.3c-136.6,0-193.2,21.5-236.2,87.9c-40.3,63.9-57.8,145.6-57.8,351.4v-0.2&#xA;&#x9;&#x9;&#x9;c0,205.9,17.6,287.5,57.8,351.4c43,66.5,99.6,87.9,236.2,87.9H539.3z M541.6,955.3c-117.8,0-170.6-13.2-204.3-71.4&#xA;&#x9;&#x9;&#x9;c-34.9-58.2-40.8-144-40.8-343.5v0.2c0-199.5,6-285.3,40.8-343.5c33.7-58.2,86.5-71.4,204.3-71.4h-2.1&#xA;&#x9;&#x9;&#x9;c117.8,0,170.6,13.2,204.3,71.4c34.8,58.2,40.8,144,40.8,343.5v-0.2c0,199.5-6,285.3-40.8,343.5c-33.7,58.2-86.5,71.4-204.3,71.4&#xA;&#x9;&#x9;&#x9;H541.6z"/>
      <path d="M417.6,684.5c-10.4,0-19.4,9.1-19.4,19.6s9.1,19.4,19.4,19.4s19.6-9.3,19.6-19.4S428.1,684.5,417.6,684.5z"/>
      <path d="M537.4,240.8c0-5.2-5.2-10.3-10.3-10.3c-6.7,0-11.8,5.1-11.8,10.3c0,6.6,5.1,11.8,11.8,11.8&#xA;&#x9;&#x9;&#x9;C532.2,252.5,537.4,247.3,537.4,240.8z"/>
      <path d="M575.1,472.4c-39-19.4-48-40.3-48-65.1c0-55.8,55.8-101.4,55.8-149.8c0-31.1-22.1-52.1-57.2-52.1&#xA;&#x9;&#x9;&#x9;c-9.1,0-19.5,4.1-23.4,6.6c-19.6-5.1-83.3-16.8-95.1-18.3c0-1-1.3,1.5,0,1.5c4,2.5,76.7,35.2,89.7,47.9c1.4,1.5,5.3,6.6,6.6,6.6&#xA;&#x9;&#x9;&#x9;s2.6-1.4,2.6-4c0,0-1.3-2.6-1.3-6.4c0-10.5,9.2-19.6,23.4-19.6c23.4,0,40.3,16.9,40.3,37.7s-15.6,45.7-20.9,45.7&#xA;&#x9;&#x9;&#x9;c-1.3,0-2.5-1.3-2.5-1.3c0-5.1,3.9-14.3,3.9-20.9c0-10.2-3.9-20.8-22-20.8h-4c-1.3,1.5,1.4,1.5,2.7,1.5c3.9,0,7.7,6.5,7.7,15.5&#xA;&#x9;&#x9;&#x9;c0,50.8-92.3,139.2-92.3,191.2c0,79.6,91.1,148.4,123.6,169.3c3.9,2.6,3.9,5.1,3.9,7.7c0,1.4-2.5,7.8-5.2,7.8H428.1&#xA;&#x9;&#x9;&#x9;c-13,0-28.6,4-35.1,6.5c-3.9,1.5-18.2,15.8-22,24.8c-1.4,9.1,1.2,27.3,7.6,37.7c4,6.3,13,3.8,9.1-1.3c-1.3-2.6-3.8-10.4-3.8-16.8&#xA;&#x9;&#x9;&#x9;c0-19.6,15.5-34,33.7-34c19.6,0,33.9,15.5,33.9,34c0,3.8,3.8,5.1,3.8,5.1c6.6,0,6.6-6.7,6.6-10.4c0-9.1-6.6-18.2-6.6-24.9&#xA;&#x9;&#x9;&#x9;c0-3.8,2.6-6.5,11.7-6.5c26.1,0,100.3,11.7,108,11.7s14.4-22,20.9-22c7.9,0,28.6,71.4,28.6,80.7v11.7c0,7.7,3.9,13.1,1.3,21&#xA;&#x9;&#x9;&#x9;C593.4,852.4,588.1,872,588.1,872c-6.4,15.3-71.4,16.8-87.1,16.8c-10.4,0-17,6.5-17,10.1c0,2.8,0,4.1,2.7,4.1&#xA;&#x9;&#x9;&#x9;c7.7,0,23.3-6.6,101.4-6.6c17,0,26,5.2,32.7,5.2c1.2,0,2.5-2.8,2.5-3.7c0-8-29.9-9.2-24.7-22.3c0,0,3.9-6.4,45.6-104.2&#xA;&#x9;&#x9;&#x9;c1.3-2.6,5.2-11.7,5.2-19.5c0-6.4-6.5-19.4-9.1-28.5c-1.3-5.2-9.1-42.9-7.7-47h2.5c14.3,0,29.8,31.3,32.5,43&#xA;&#x9;&#x9;&#x9;c2.6,9,11.7,9,19.5,10.5V743c0,5.2,9.1,6.6,14.3,6.6c3.8,0,6.5-35.3,6.5-40.3C707.8,618.1,659.7,515.3,575.1,472.4L575.1,472.4z"/>
    </g>
  </g>
</svg>