<?xml version="1.0" encoding="utf-8"?>
<!-- Generator: Adobe Illustrator 25.2.0, SVG Export Plug-In . SVG Version: 6.00 Build 0)  -->
<svg version="1.2" baseProfile="tiny-ps" id="Layer_1" xmlns="http://www.w3.org/2000/svg" xmlns:xlink="http://www.w3.org/1999/xlink"
	  viewBox="0 0 300 300" xml:space="preserve">
	  <title>CoastHills Federal Credit Union</title>
<rect x="0" fill="#FFFFFF" width="300" height="300"/>
<path fill="#006747" d="M154.5,132.4c1-0.2,2-0.4,3.1-0.6c4-0.8,8.1-1.4,12.1-1.7v-9.3c0-9.2,0.1-14.7,2.7-18.4
	c-6.3,1.5-12.7,3-19.1,4.5c0.8,3.5,1,8,1.1,13.8V132.4z"/>
<path fill="#006747" d="M239,138.4c-1.1,0-2.2,0.1-3.3,0.1c3.2,0.8,6.3,1.7,9.4,2.6c12.7-1.6,23.7-2.8,29.3-3.5
	c2.3-0.3-6.7-0.2-20.3,0.2v-0.2v-16.8c0.5-17.8,0.7-23,21.4-25.7v-2.6h-59.4c0,0-0.1,0-0.1,0v2.6c22.6,3.3,23,6.7,23,25.7v17.4
	V138.4z"/>
<path fill="#6CC5EA" d="M136.3,209.8h56.3v-2.6c-10.8-1.6-16.8-3.5-19.8-6.8c-2.1-2.5-2.8-6-3-11.1c-0.1-2.3-0.1-4.8-0.1-7.8v-0.4
	c-5.1,1.3-10.2,2.7-15.3,4.1c-0.1,1.4-0.1,2.8-0.2,4.1v0c-0.3,4.9-1.1,8.5-3.1,11.1c-2.8,3.4-8.2,5.5-18,6.8v2
	C134.1,209.4,135.2,209.6,136.3,209.8z"/>
<path fill="#1C91D0" d="M169.6,162.5c-1.7-0.1-3.3-0.1-4.9-0.2c-3.5-0.2-6.9-0.5-10.2-0.8v5.2v0v14.8c0,1.3-0.1,2.5-0.1,3.7
	c5.1-1.4,10.2-2.8,15.3-4.1v-14.4V162.5z"/>
<path fill="#A3B63A" d="M242,92.5h-26v2.6c15.8,2.3,20.7,4.7,22.2,12.3c5.4,1.3,10.9,2.7,16.3,4.1c0.6-6.2,2-10,6.5-12.5
	C254.6,96.9,248.3,94.7,242,92.5z"/>
<path fill="#A3B63A" d="M182.1,97c2.8-0.7,6.3-1.4,10.5-2v-2.6h-59.5v2.6c5.1,0.7,9,1.5,11.9,2.7c6.9-0.7,13.5-1.1,19.7-1.2
	C170.5,96.4,176.3,96.6,182.1,97z"/>
<path fill="#13406A" d="M254.2,135.6c-8.9,2.7-17.8,5.5-26.6,7.9c19.7-3,38.7-4.9,46.9-5.9c2.3-0.3-6.7-0.2-20.3,0.2v-0.2V135.6z"/>
<path fill="#13406A" d="M164.7,162.3c1.6,0.1,3.3,0.2,4.9,0.2V158v-0.3c3.1-1.1,15.5-5.6,31.3-9.2c-1.5,0.1-3,0.2-4.5,0.2
	c-13.3,0.3-27.3-4.2-42-9.5v5.8v0v14.6v2C157.8,161.8,161.2,162.1,164.7,162.3z"/>
<path fill="#006747" d="M238.3,107.4c0.7,3.3,0.7,7.6,0.7,13.4v17.4v0.2c-9.9,0.4-20.8,0.9-30.9,1.6c-7.1,0.5-13.9,1-19.9,1.5
	c-8.3,0.6-15.1,1.2-18.6,1.4v-22.1c0-15.4,0.2-20.6,12.4-23.7c-5.8-0.5-11.5-0.7-17.4-0.5c-6.2,0.1-12.8,0.6-19.7,1.2
	c8.9,3.4,9.1,9.7,9.5,23.1v18.3c14.7,5.3,28.7,9.8,42,9.5c1.5,0,3-0.1,4.5-0.2c3.2-0.7,6.5-1.5,10-2.1c5.4-1,11.1-1.9,16.7-2.8
	c8.9-2.4,17.8-5.2,26.6-7.9v-14.9c0.1-3.6,0.2-6.7,0.4-9.3C249.2,110.1,243.8,108.7,238.3,107.4z"/>
<path fill="#D3DF43" d="M275.6,92.5h-33.7c6.3,2.2,12.6,4.4,19.2,6.4c3.1-1.8,7.7-3,14.5-3.9V92.5z"/>
<path fill="#D3EEF9" d="M92.6,210.8c10.4,0,20.6-1.5,30.1-5.2c-3.8-0.8-7.6-1.6-11.4-2.4c-4.4,2.2-9.6,3.5-15.8,3.5
	c-8.2,0-16.5-2.5-24-7.2h0c-3.1-1.9-6.1-4.2-8.8-6.8c-8.2-1.6-16.6-3.1-25.2-4.4c3.7,4.3,8.1,8.1,13,11.2l0,0
	C62.3,206.9,77,210.8,92.6,210.8z"/>
<path fill="#006747" d="M45.8,162.4c-0.9-4.3-1.4-8.7-1.4-13.4c0-6.9,1-13.7,2.9-19.9c-6.7,1-13.2,1.8-19.6,2.4
	c-2.2,6.3-3.3,13-3.3,19.6c0,5.2,0.6,10,1.6,14.6h0c0.1,0.3,0.1,0.5,0.2,0.7c0.1,0.5,0.3,1,0.4,1.5c7.2-0.7,13.8-1.7,19.8-2.7
	C46.3,164.2,46,163.3,45.8,162.4z"/>
<path fill="#006747" d="M125.2,113.6c1.8,4,3.1,8.5,3.9,13.3h2.6v-14.8C129.6,112.6,127.4,113.1,125.2,113.6z"/>
<path fill="#6CC5EA" d="M123.4,192.9c-1.9,2.5-4,4.7-6.4,6.6h0c-2.4,1.9-5,3.5-8,4.7c3.5,0.8,7.1,1.6,10.8,2.4c2.7-0.9,5.4-2,8-3.2
	c0.5-1.3,1-2.6,1.6-3.9h0c1.1-2.8,2.1-5.7,3-8.5C129.3,191.6,126.3,192.3,123.4,192.9z"/>
<path fill="#6CC5EA" d="M67.2,196.5c-3.2-2.4-6.1-5.2-8.8-8.3h0c-0.6-0.7-1.2-1.5-1.8-2.2c-8.7-2.9-17.5-6.1-26.6-9
	c0.2,0.5,0.5,1,0.7,1.5c1.8,3.5,4,6.8,6.6,9.7h0c2.2,2.6,4.7,5,7.4,7.2C52.8,195.3,60.2,195.8,67.2,196.5z"/>
<path fill="#1C91D0" d="M49.9,174.7c-1.3-2.9-2.4-5.9-3.3-9.1h0c-0.3-1.1-0.5-2.1-0.8-3.2c-0.9-4.3-1.4-8.7-1.4-13.4
	c0-1,0-1.9,0.1-2.9c-6.5-0.5-13.1-0.9-19.8-1c-0.2,2-0.3,4-0.3,5.9c0,5.2,0.6,10,1.6,14.6h0c0.1,0.3,0.1,0.5,0.2,0.7
	c0.9,3.8,2.2,7.3,3.8,10.6c9.1,2.9,17.9,6.1,26.6,9C54.1,182.5,51.8,178.8,49.9,174.7z"/>
<path fill="#1C91D0" d="M133.3,188.2L133.3,188.2c1.6-5.2,3-10.4,4-15.7l-2.4-1c-2.5,6-5.1,11.7-8.2,16.8h0c-1,1.6-2.1,3.2-3.2,4.7
	c2.9-0.6,5.9-1.2,9-1.9C132.7,190,133,189.1,133.3,188.2z"/>
<path fill="#A3B63A" d="M93.9,89.2c-25.7,0-44.5,9.9-56.1,24c6.3-0.8,12.6-1.7,19-2.7c8.4-10.5,20.9-17.2,36.9-17.2
	c9.4,0,16.9,2.9,22.6,7.9c5.2-0.8,10.4-1.5,15.4-2.1v-0.6C120.3,91.8,107.1,89.2,93.9,89.2z"/>
<path fill="#13406A" d="M25.9,137.8c-0.6,2.4-1,4.9-1.2,7.3c6.7,0.1,13.2,0.4,19.8,1c0.2-4.9,0.9-9.6,2-14.1
	C39.6,134,33,136,25.9,137.8z"/>
<path fill="#006747" d="M25.9,137.8C33,136,39.6,134,46.5,132c2-8,5.5-15.3,10.4-21.4c-6.4,1-12.7,1.9-19,2.7
	C31.9,120.6,27.9,129,25.9,137.8z"/>
<path fill="#006747" d="M131.7,126.9V99.2c-5,0.6-10.2,1.3-15.4,2.1c6.8,6,11,15,12.8,25.6H131.7z"/>
<path fill="#D3EEF9" d="M275.6,207.2c-9.8-1.3-15-3.2-17.8-6.6c-2.2-2.7-2.9-6.3-3.3-11.3c0-0.3,0-0.6-0.1-0.9
	c-5.4,2.1-10.8,4.2-16.1,6.2c-0.5,2.5-1.3,4.4-2.6,6h0c-3,3.4-8.7,5-19.7,6.6v2.6h59.5V207.2z"/>
<path fill="#6CC5EA" d="M257.8,200.6c-2.2-2.7-2.9-6.3-3.3-11.3c-0.2-2.3-0.2-4.9-0.3-7.8v-7.2c-4.5-0.5-9.5-0.9-15.2-1.2v8.4
	c0,3,0,5.5-0.1,7.8v0c-0.2,5.2-0.9,8.7-3.2,11.3h0c-3,3.4-8.7,5-19.7,6.6v2.6h8.1c11.9-2,23.9-4.6,36.1-7
	C259.3,202.2,258.5,201.4,257.8,200.6z"/>
<path fill="#1C91D0" d="M239,156.2v10.6v6.4c5.7,0.3,10.6,0.7,15.2,1.2v-7.6v-13.3C249.2,154.4,244.1,155.3,239,156.2z"/>
<path fill="#13406A" d="M239,152.9v3.3c5.1-0.9,10.2-1.8,15.2-2.7v-1.2C249.2,152.4,244.1,152.6,239,152.9z"/>
</svg>
