<?xml version="1.0" encoding="utf-8"?>
<svg width="100" height="100" viewBox="0 0 100 100" fill="none" version="1.2" baseProfile="tiny-ps" xmlns="http://www.w3.org/2000/svg">
	<title>Youi Insurance</title>
	<g>
		<path d="M47.1,45.9c-2.5,0-4.5,2-4.5,4.6c0,2.5,2,4.6,4.5,4.6s4.5-2,4.5-4.6C51.6,48,49.6,45.9,47.1,45.9z" fill="black"/>
		<path d="M70.3,29.9H29.7c-3.7,0-6.8,3.1-6.8,6.9v34.3h47.4c3.7,0,6.8-3.1,6.8-6.9V36.8C77.1,33,74.1,29.9,70.3,29.9z M29.7,64.2
			l3.9-9l-5.1-11.6H31l3.9,8.8l3.9-8.7h2.4l0,0v0h0l-9,20.5H29.7z M47.1,57.4c-3.8,0-6.8-3.1-6.8-6.9c0-3.8,3.1-6.9,6.8-6.9
			c3.7,0,6.8,3.1,6.8,6.9C53.9,54.3,50.8,57.4,47.1,57.4z M66.4,51.6c0,1.9-0.9,3.6-2.3,4.6c-1,0.7-2.1,1.2-3.4,1.2
			c-1.3,0-2.5-0.4-3.4-1.2c-1.4-1-2.3-2.7-2.3-4.6v-8h2.3v8c0,1.9,1.5,3.4,3.4,3.4c1.9,0,3.4-1.6,3.4-3.4v-8h2.3V51.6z M70.3,57.4
			h-2.3V43.6h2.3V57.4z M69.2,39.6c-0.9,0-1.7-0.8-1.7-1.7c0-0.9,0.7-1.7,1.7-1.7c1,0,1.7,0.8,1.7,1.7S70.2,39.6,69.2,39.6z" fill="black"/>
		<path d="M70.6,25H29.4C23.1,25,18,30.2,18,36.6V76h52.6C76.9,76,82,70.8,82,64.4V36.6C82,30.2,76.9,25,70.6,25z M79.4,64.2
			c0,5.1-4,9.1-9,9.1H20.6V36.8c0-5.1,4-9.1,9-9.1h40.7c5,0,9,4.1,9,9.1V64.2z" fill="black"/>
	</g>
</svg>
