<?xml version="1.0" encoding="utf-8"?>
<!-- Generator: Adobe Illustrator 28.3.0, SVG Export Plug-In . SVG Version: 6.00 Build 0)  -->
<svg version="1.2" baseProfile="tiny-ps" id="Layer_1" xmlns="http://www.w3.org/2000/svg" xmlns:xlink="http://www.w3.org/1999/xlink" viewBox="0 0 600 600" xml:space="preserve">
<title>Excel Homes BIMI</title>
<rect fill="#FFFFFF" width="600" height="600"/>
<g>
	<rect x="59.72" y="441.86" fill="#FFB447" width="480.57" height="10.71"/>
	<rect x="59.72" y="147.43" fill="#FFB447" width="480.57" height="10.71"/>
	<g>
		<path fill="#003E51" d="M59.72,190.75c0-2.17,1.68-3.85,3.85-3.85h67.62c2.17,0,3.85,1.68,3.85,3.85v16.48
			c0,2.17-1.68,3.85-3.85,3.85H92.32c-2.17,0-3.85,1.68-3.85,3.85v9.99c0,2.17,1.68,3.85,3.85,3.85h31.16
			c2.17,0,3.85,1.68,3.85,3.85v15.16c0,2.05-1.68,3.85-3.85,3.85H92.32c-2.17,0-3.85,1.68-3.85,3.85v10.83
			c0,2.17,1.68,3.85,3.85,3.85h41.15c2.17,0,3.85,1.68,3.85,3.85v16.48c0,2.05-1.68,3.85-3.85,3.85H63.57
			c-2.17,0-3.85-1.68-3.85-3.85C59.72,290.49,59.72,190.75,59.72,190.75z"/>
		<path fill="#003E51" d="M154.89,190.15c-1.08-1.8-0.36-3.25,1.8-3.25h24.43c2.17,0,4.69,1.44,5.78,3.37l12.03,20.58
			c1.08,1.8,2.77,1.8,3.85,0l12.15-20.58c1.08-1.8,3.73-3.25,5.78-3.25h22.14c2.17,0,2.89,1.44,1.8,3.25l-26.95,41.99
			c-1.2,1.8-1.2,4.69,0,6.5l32.85,52.46c1.08,1.8,0.36,3.25-1.8,3.25h-24.43c-2.17,0-4.69-1.44-5.78-3.25l-17.69-29.72
			c-1.08-1.8-2.89-1.8-3.97,0l-18.05,29.48c-1.08,1.8-3.73,3.25-5.78,3.25H150.8c-2.17,0-2.89-1.44-1.8-3.25l32.97-51.14
			c1.2-1.8,1.2-4.69,0-6.5L154.89,190.15z"/>
		<path fill="#003E51" d="M307.82,295.67c-30.2,0-55.95-22.74-55.95-55.11s25.63-54.99,54.39-54.99c23.22,0,37.42,9.75,46.44,23.1
			l-18.53,12.51c-1.68,1.2-4.33,0.84-5.66-0.84c0,0-8.3-9.87-21.9-9.87c-15.76,0-25.39,13.12-25.39,29.96
			c0,16.97,9.99,30.2,26.35,30.2c13.96,0,20.7-6.26,25.27-14.8l22.14,14.2C344.4,287.97,329.6,295.67,307.82,295.67"/>
		<path fill="#003E51" d="M369.91,190.75c0-2.17,1.68-3.85,3.85-3.85h67.62c2.17,0,3.85,1.68,3.85,3.85v16.48
			c0,2.17-1.68,3.85-3.85,3.85h-38.86c-2.17,0-3.85,1.68-3.85,3.85v9.99c0,2.17,1.68,3.85,3.85,3.85h31.16
			c2.17,0,3.85,1.68,3.85,3.85v15.16c0,2.05-1.68,3.85-3.85,3.85h-31.16c-2.17,0-3.85,1.68-3.85,3.85v10.83
			c0,2.17,1.68,3.85,3.85,3.85h41.15c2.17,0,3.85,1.68,3.85,3.85v16.48c0,2.05-1.68,3.85-3.85,3.85h-69.91
			c-2.17,0-3.85-1.68-3.85-3.85L369.91,190.75L369.91,190.75z"/>
		<path fill="#003E51" d="M466.29,190.75c0-2.17,1.68-3.85,3.85-3.85h21.06c2.17,0,3.85,1.68,3.85,3.85v75.56
			c0,2.17,1.68,3.85,3.85,3.85h37.9c2.17,0,3.85,1.68,3.85,3.85v16.48c0,2.05-1.68,3.85-3.85,3.85h-66.66
			c-2.17,0-3.85-1.68-3.85-3.85L466.29,190.75L466.29,190.75z"/>
		<path fill="#003E51" d="M116.27,328.04c0-2.17,1.8-3.85,3.85-3.85h16.97c2.17,0,3.85,1.8,3.85,3.85v84.83
			c0,2.17-1.8,3.85-3.85,3.85h-16.85c-2.17,0-3.85-1.8-3.85-3.85v-28.4c0-2.17-1.8-3.85-3.85-3.85H88.11c-2.17,0-3.85,1.8-3.85,3.85
			v28.4c0,2.17-1.8,3.85-3.85,3.85H63.21c-2.17,0-3.85-1.8-3.85-3.85v-84.83c0-2.17,1.8-3.85,3.85-3.85h16.97
			c2.17,0,3.85,1.8,3.85,3.85v27.79c0,2.17,1.8,3.85,3.85,3.85h24.31c2.17,0,3.85-1.8,3.85-3.85v-27.79H116.27z"/>
		<path fill="#003E51" d="M230.21,370.51c0-14.56-8.9-25.87-24.43-25.87s-24.43,11.31-24.43,25.87c0,14.56,8.9,25.99,24.43,25.99
			C221.31,396.5,230.21,385.07,230.21,370.51 M156.09,370.51c0-27.91,22.98-47.41,49.69-47.41s49.69,19.49,49.69,47.41
			c0,27.91-22.98,47.53-49.69,47.53S156.09,398.42,156.09,370.51"/>
		<path fill="#003E51" d="M388.68,328.04c0-2.17,1.8-3.85,3.85-3.85h57.27c2.17,0,3.85,1.8,3.85,3.85v13.12
			c0,2.17-1.8,3.85-3.85,3.85h-32.37c-2.17,0-3.85,1.8-3.85,3.85v7.46c0,2.17,1.8,3.85,3.85,3.85h25.75c2.17,0,3.85,1.8,3.85,3.85
			v12.03c0,2.17-1.8,3.85-3.85,3.85h-25.75c-2.17,0-3.85,1.68-3.85,3.85v8.18c0,2.17,1.8,3.85,3.85,3.85h34.17
			c2.17,0,3.85,1.8,3.85,3.85v13.12c0,2.17-1.8,3.85-3.85,3.85h-59.08c-2.17,0-3.85-1.8-3.85-3.85L388.68,328.04L388.68,328.04z"/>
		<path fill="#003E51" d="M466.65,401.07l14.92-11.19c1.68-1.32,4.33-1.08,5.9,0.36c0,0,7.34,7.34,16.6,7.34
			c7.34,0,11.67-2.17,11.67-7.34c0-3.97-3.01-5.9-9.14-7.94l-7.22-2.41c-2.05-0.72-5.17-2.05-7.1-3.13c0,0-19.61-10.83-19.61-26.11
			c0-18.29,15.16-27.67,31.64-27.67c16.36,0,26.23,5.9,31.64,12.27l-11.43,12.03c-1.44,1.56-4.09,1.8-5.78,0.48
			c0,0-5.66-4.33-12.99-4.33c-6.02,0-9.02,2.77-9.02,6.38c0,3.49,2.05,5.29,6.5,6.86c0,0,18.17,6.74,20.09,7.94
			c0,0,17.09,6.74,17.09,24.31c0,17.09-10.59,29.36-35.13,29.36C484.21,418.28,472.42,408.65,466.65,401.07"/>
		<path fill="#003E51" d="M355.35,325.51c-2.17,0-4.93,1.44-6.14,3.13l-27.79,38.14c-1.2,1.68-3.37,1.68-4.57,0l-28.16-38.14
			c-1.32-1.68-4.09-3.13-6.26-3.13h-6.62c-2.17,0-3.97,1.8-4.09,3.85l-3.61,80.62c-0.12,2.17,1.56,3.85,3.73,3.85h16.48
			c2.17,0,3.97-1.68,4.09-3.85l1.8-31.89c0.12-2.17,1.44-2.53,2.77-0.96l18.89,21.18c1.44,1.56,2.77,3.01,3.01,3.13
			c0.24,0.12,1.93-1.56,3.37-3.13l18.05-20.94c1.44-1.56,2.65-1.2,2.77,0.96l1.8,31.77c0.12,2.17,1.93,3.85,4.09,3.85h16.6
			c2.17,0,3.85-1.8,3.73-3.85l-3.61-80.62c-0.12-2.17-1.93-3.85-4.09-3.85h-6.26V325.51z"/>
	</g>
</g>
</svg>
