<?xml version="1.0" encoding="utf-8"?>
<!-- Generator: Adobe Illustrator 28.3.0, SVG Export Plug-In . SVG Version: 6.00 Build 0)  -->
<svg version="1.2" baseProfile="tiny-ps" id="Gruppe_2"
	 xmlns="http://www.w3.org/2000/svg" xmlns:xlink="http://www.w3.org/1999/xlink" viewBox="0 0 1920 1920"
	 xml:space="preserve">
<title>Zehentmayer Software GmbH</title>
<rect id="Rechteck_14" y="0" fill="#01ABFF" width="1920" height="1920"/>
<ellipse id="Ellipse_5" fill="#FFFFFF" cx="1530.4" cy="848.2" rx="246.5" ry="240"/>
<ellipse id="Ellipse_6" fill="#FFFFFF" cx="1530.4" cy="1044.2" rx="246.5" ry="240"/>
<ellipse id="Ellipse_4" fill="#FFFFFF" cx="376.4" cy="1044.2" rx="246.5" ry="240"/>
<ellipse id="ausgeblendet" fill="#FFFFFF" cx="376.4" cy="848.2" rx="246.5" ry="240"/>
<circle id="Ellipse_1" fill="#01ABFF" cx="377.9" cy="1054.2" r="111"/>
<circle id="Ellipse_8" fill="#01ABFF" cx="1530.9" cy="1054.2" r="111"/>
<circle id="Ellipse_2" fill="#01ABFF" cx="377.9" cy="838.2" r="111"/>
<circle id="Ellipse_7" fill="#01ABFF" cx="1530.9" cy="838.2" r="111"/>
<rect id="Rechteck_2" x="266.9" y="838.2" fill="#01ABFF" width="222" height="221"/>
<rect id="Rechteck_12" x="1419.9" y="838.2" fill="#01ABFF" width="222" height="221"/>
<rect id="Rechteck_1" x="370.9" y="910.2" fill="#FFFFFF" width="252" height="111"/>
<rect id="Rechteck_9" x="1600.4" y="1018.6" transform="matrix(0.7071 -0.7071 0.7071 0.7071 -342.1865 1511.0629)" fill="#FFFFFF" width="105" height="300"/>
<rect id="Rechteck_3" x="129.9" y="852.2" fill="#FFFFFF" width="116" height="192"/>
<rect id="Rechteck_10" x="1283.9" y="852.2" fill="#FFFFFF" width="116" height="190"/>
<rect id="Rechteck_11" x="1660.9" y="852.2" fill="#FFFFFF" width="116" height="195"/>
<rect id="Rechteck_4" x="496.9" y="910.2" fill="#FFFFFF" width="126" height="134"/>
<rect id="Rechteck_5" x="750.9" y="1162.2" fill="#FFFFFF" width="439" height="118"/>
<rect id="Rechteck_6" x="750.9" y="620.2" fill="#FFFFFF" width="439" height="118"/>
<rect id="Rechteck_7" x="750.9" y="887.2" fill="#FFFFFF" width="388" height="118"/>
<rect id="Rechteck_8" x="750.9" y="729.2" fill="#FFFFFF" width="131" height="436"/>
<rect id="Rechteck_13" x="460.9" y="824.2" fill="#01ABFF" width="169" height="86"/>
</svg>
