<?xml version="1.0" encoding="UTF-8" standalone="yes"?>
<svg viewBox="-25 -25 250 250" version="1.2" baseProfile="tiny-ps" xmlns="http://www.w3.org/2000/svg">
    <title>creoline GmbH</title>
    <path fill="#0F87F3" class="b" d="M186.33,86.14l-38.16-61.03c-2.36-3.79-6.52-6.08-10.98-6.08h-41.83l46.17,80.98-48.39,80.98h40.99c7.04,0,13.57-3.73,17.15-9.79l35.38-60.02c4.58-7.76,4.44-17.4-.33-25.04h0Z"/>
    <path fill="#0F87F3" class="b" d="M79.44,139.4c-1.56,0-3-.82-3.82-2.14l-18.52-30.29c-2.63-4.29-2.72-9.7-.27-14.1l15.84-28.21c2.1-3.73,6.05-6.03,10.33-6.03h25.95l-21.83-39.62h-22.48c-7.13,0-13.75,3.79-17.34,9.96L12.01,89.53c-2.62,4.5-2.69,10.05-.18,14.59l35.95,65.13c3.98,7.22,11.59,11.73,19.84,11.73h16.82l25.06-41.58h-30.06Z"/>
</svg>
