<?xml version="1.0" encoding="UTF-8" standalone="yes"?><svg xmlns="http://www.w3.org/2000/svg" xmlns:xlink="http://www.w3.org/1999/xlink" width="96px" height="96px" viewBox="0 0 96 96" version="1.2" baseProfile="tiny-ps"><title>Crypto.com</title><defs><linearGradient id="linear0" gradientUnits="userSpaceOnUse" x1="16.1108" y1="21.4" x2="16.1108" y2="2.48838"><stop offset="0" stop-color="rgb(6.666667%,10.980392%,30.588235%)" stop-opacity="1"></stop><stop offset="1" stop-color="rgb(6.666667%,10.980392%,30.588235%)" stop-opacity="0"></stop></linearGradient><linearGradient id="linear1" gradientUnits="userSpaceOnUse" x1="7.88361" y1="2.42465" x2="7.88361" y2="19.5757"><stop offset="0" stop-color="rgb(6.666667%,10.980392%,30.588235%)" stop-opacity="1"></stop><stop offset="1" stop-color="rgb(6.666667%,10.980392%,30.588235%)" stop-opacity="0"></stop></linearGradient></defs><g id="surface1"><rect x="0" y="0" width="96" height="96" fill="rgb(100%,100%,100%)" fill-opacity="1" stroke="none"></rect><path d="M 53.640625 48.152344 L 56.40625 40.78125 L 39.632812 40.78125 L 42.457031 48.152344 L 41.59375 56.421875 L 47.988281 56.421875 L 54.441406 56.390625 Z M 53.640625 48.152344 " stroke="none" fill-rule="nonzero" fill="rgb(100%,100%,100%)" fill-opacity="1"></path><path d="M 64.078125 43.246094 L 56.492188 48.183594 L 56.492188 56.957031 L 50.695312 62.519531 L 50.695312 65.132812 L 56.285156 70.28125 L 60.953125 70.28125 L 72.730469 49.757812 Z M 64.078125 43.246094 " stroke="none" fill-rule="nonzero" fill="rgb(100%,100%,100%)" fill-opacity="1"></path><path d="M 60.894531 25.578125 L 34.996094 25.578125 L 31.992188 38.785156 L 64.015625 38.785156 Z M 60.894531 25.578125 " stroke="none" fill-rule="nonzero" fill="rgb(100%,100%,100%)" fill-opacity="1"></path><path d="M 39.605469 48.183594 L 31.929688 43.304688 L 23.25 49.757812 L 35.082031 70.339844 L 39.8125 70.339844 L 45.402344 65.132812 L 45.402344 62.519531 L 39.605469 56.957031 Z M 39.605469 48.183594 " stroke="none" fill-rule="nonzero" fill="rgb(100%,100%,100%)" fill-opacity="1"></path><path d="M 47.988281 9.601562 L 15.082031 28.597656 L 15.082031 66.597656 L 47.988281 85.601562 L 80.898438 66.597656 L 80.898438 28.597656 Z M 34.996094 25.578125 L 60.894531 25.578125 L 64.015625 38.785156 L 31.992188 38.785156 Z M 45.402344 65.132812 L 39.8125 70.339844 L 35.085938 70.339844 L 23.25 49.757812 L 31.929688 43.304688 L 39.601562 48.179688 L 39.601562 56.957031 L 45.398438 62.519531 L 45.398438 65.132812 Z M 41.59375 56.417969 L 42.457031 48.152344 L 39.632812 40.777344 L 56.40625 40.777344 L 53.640625 48.152344 L 54.441406 56.390625 L 47.992188 56.417969 Z M 60.953125 70.277344 L 56.285156 70.277344 L 50.695312 65.132812 L 50.695312 62.519531 L 56.492188 56.957031 L 56.492188 48.179688 L 64.078125 43.246094 L 72.730469 49.757812 Z M 60.953125 70.277344 " stroke="none" fill-rule="nonzero" fill="rgb(0%,21.176471%,53.333333%)" fill-opacity="1"></path><path d="M 47.988281 9.601562 L 47.988281 25.578125 L 60.894531 25.578125 L 64.015625 38.785156 L 47.988281 38.785156 L 47.988281 40.777344 L 56.40625 40.777344 L 53.640625 48.152344 L 54.441406 56.390625 L 47.992188 56.417969 L 47.992188 85.601562 L 80.902344 66.597656 L 80.902344 28.597656 Z M 60.953125 70.28125 L 56.285156 70.28125 L 50.695312 65.136719 L 50.695312 62.519531 L 56.492188 56.957031 L 56.492188 48.183594 L 64.078125 43.246094 L 72.730469 49.757812 Z M 60.953125 70.28125 " stroke="none" fill-rule="nonzero" fill="url(#linear0)"></path><path d="M 41.59375 56.421875 L 42.457031 48.15625 L 39.632812 40.777344 L 47.988281 40.777344 L 47.988281 38.785156 L 31.992188 38.785156 L 34.996094 25.582031 L 47.988281 25.582031 L 47.988281 9.601562 L 15.082031 28.597656 L 15.082031 66.597656 L 47.988281 85.601562 L 47.988281 56.417969 L 41.59375 56.417969 Z M 45.402344 65.136719 L 39.8125 70.34375 L 35.085938 70.34375 L 23.25 49.757812 L 31.929688 43.304688 L 39.601562 48.179688 L 39.601562 56.957031 L 45.398438 62.519531 L 45.398438 65.132812 Z M 45.402344 65.136719 " stroke="none" fill-rule="nonzero" fill="url(#linear1)"></path></g></svg>