<?xml version="1.0" encoding="utf-8"?>
<!-- Generator: Adobe Illustrator 24.0.1, SVG Export Plug-In . SVG Version: 6.00 Build 0)  -->
<svg version="1.2" baseProfile="tiny-ps" id="Layer_1" xmlns="http://www.w3.org/2000/svg" xmlns:xlink="http://www.w3.org/1999/xlink"
	 viewBox="0 0 1080 1080" xml:space="preserve">
<title>VeeFly</title>
<g>

	<path fill="#5a44dc" d="M828.3,468.9h9.1c3.7,0,6.7,3,6.7,6.7v120.5c0,3.7-3,6.7-6.7,6.7h-9.1c-3.7,0-6.7-3-6.7-6.7V475.7
		C821.6,472,824.6,468.9,828.3,468.9"/>
	<!-- <g> -->
	
		<path fill="#5a44dc" d="M350.3,557.8l-6.9,4L165.8,664.4l0,0l-6.5,3.7c-13.6,7.8-30.5-1.8-30.9-17.3l0,0l0-2.7l0-5.7
			l0-204.6l0-8.6l0,0c0.4-14.7,15.6-24.1,28.7-18.4L332.3,512l-37.7,21.8l-128.5-74.2v39.5l94.3,54.5l-37.7,21.8l-56.6-32.7v5l0,73
			l40.4-23.3l99.2-57.2l37.7-21.8l8.9,5.1c5.3,3.9,8.1,9.8,8.3,15.7C360.9,546.4,357.4,553.7,350.3,557.8"/>
	
		<path fill="#5a44dc" d="M600,561.9h-59.6c-5.3,0-8.6,6-5.7,10.4c1.7,2.5,3.7,4.6,6.3,6.5c5.6,4.2,12.6,6.2,20.9,6.2
			c8.4,0,15.6-2.2,21.6-6.5c2.8-2,6.7-1.5,9,1.1l3.6,4.2c2.5,2.8,2.1,7.2-0.7,9.6c-3.4,2.8-7.2,5.1-11.6,6.9c-6.6,2.6-14.1,4-22.4,4
			c-10.6,0-19.9-2.1-28-6.3c-8.1-4.2-14.3-10.1-18.7-17.6c-4.4-7.5-6.6-16-6.6-25.6c0-9.4,2.1-17.8,6.4-25.4
			c4.3-7.5,10.2-13.4,17.8-17.6c7.6-4.2,16.1-6.3,25.6-6.3c9.4,0,17.8,2.1,25.2,6.2c7.4,4.2,13.2,10,17.3,17.5
			c4.2,7.5,6.2,16.2,6.2,26.1C606.7,559,603.7,561.9,600,561.9 M539.6,529.9c-2.4,2-4.3,4.4-5.8,7c-2.5,4.5,0.7,10,5.9,10h36.4
			c5.1,0,8.4-5.5,5.9-10c-1.4-2.6-3.3-5-5.6-7c-4.9-4.3-11.1-6.5-18.4-6.5C550.7,523.5,544.6,525.6,539.6,529.9"/>
	
		<path fill="#5a44dc" d="M705.9,561.9h-59.6c-5.3,0-8.6,6-5.7,10.4c1.7,2.5,3.7,4.6,6.3,6.5c5.6,4.2,12.6,6.2,20.9,6.2
			c8.4,0,15.6-2.2,21.6-6.5c2.8-2,6.7-1.5,9,1.1l3.6,4.2c2.5,2.8,2.1,7.2-0.7,9.6c-3.4,2.8-7.2,5.1-11.6,6.9c-6.6,2.6-14.1,4-22.4,4
			c-10.6,0-19.9-2.1-28-6.3c-8.1-4.2-14.3-10.1-18.7-17.6c-4.4-7.5-6.6-16-6.6-25.6c0-9.4,2.1-17.8,6.4-25.4
			c4.3-7.5,10.2-13.4,17.8-17.6c7.6-4.2,16.1-6.3,25.6-6.3c9.4,0,17.8,2.1,25.2,6.2c7.4,4.2,13.2,10,17.3,17.5
			c4.2,7.5,6.2,16.2,6.2,26.1C712.5,559,709.6,561.9,705.9,561.9 M645.5,529.9c-2.4,2-4.3,4.4-5.8,7c-2.5,4.5,0.7,10,5.9,10h36.4
			c5.1,0,8.4-5.5,5.9-10c-1.4-2.6-3.3-5-5.6-7c-4.9-4.3-11.1-6.5-18.4-6.5C656.6,523.5,650.5,525.6,645.5,529.9"/>
	
		<path fill="#5a44dc" d="M744.4,502.9v25c0,3.7,3,6.7,6.7,6.7h47.6c3.7,0,6.7,3,6.7,6.7v6.4c0,3.7-3,6.7-6.7,6.7h-47.6
			c-3.7,0-6.7,3-6.7,6.7v34.9c0,3.7-3,6.7-6.7,6.7h-10c-3.7,0-6.7-3-6.7-6.7V483.3c0-3.7,3-6.7,6.7-6.7h78.8c3.7,0,6.7,3,6.7,6.7
			v6.2c0,3.7-3,6.7-6.7,6.7h-55.3C747.4,496.2,744.4,499.2,744.4,502.9"/>
	
		<path fill="#5a44dc" d="M944.9,506.7c4.8,0,8,4.9,6.1,9.3l-41.1,94.9c-4.2,10.5-9.3,17.8-15.3,22.1
			c-6,4.3-13.3,6.4-21.9,6.4c-4.8,0-9.6-0.8-14.3-2.3c-2.2-0.7-4.2-1.6-6-2.6c-3.3-1.8-4.5-5.9-2.7-9.1l2.6-4.8
			c1.8-3.2,5.8-4.4,9.1-2.7c0.7,0.4,1.4,0.7,2.2,1c2.9,1.2,5.9,1.8,8.9,1.8c4,0,7.3-1,9.8-3.1c2.6-2,5-5.5,7.1-10.3l0.5-1.1
			c0.7-1.7,0.7-3.6,0-5.3l-36.8-84.7c-1.9-4.4,1.3-9.4,6.2-9.4h8.8c2.7,0,5.1,1.6,6.2,4.1l22.4,52.7c2.3,5.5,10.1,5.5,12.4,0
			l22.6-52.8c1.1-2.5,3.5-4.1,6.1-4.1H944.9z"/>
	
		<path fill="#5a44dc" d="M512.6,487.4l-48,111c-1.2,2.9-4.1,4.7-7.2,4.7h-18.6c-3.1,0-6-1.9-7.2-4.7l-47.9-111
			c-2.2-5.2,1.6-11,7.2-11h14.5c3.1,0,6,1.9,7.2,4.8l36.5,85.7l37.1-85.8c1.2-2.9,4.1-4.7,7.2-4.7h12
			C511,476.4,514.8,482.2,512.6,487.4"/>
	<!-- </g> -->
</g>
</svg>
