<?xml version="1.0" encoding="utf-8"?>
<!-- Generator: Adobe Illustrator 26.5.1, SVG Export Plug-In . SVG Version: 6.00 Build 0)  -->
<svg version="1.2" baseProfile="tiny-ps" id="Layer_1" xmlns="http://www.w3.org/2000/svg" xmlns:xlink="http://www.w3.org/1999/xlink"
	 viewBox="0 0 300 300" xml:space="preserve">
	 <title>QC Immigration</title>
<path fill="#BE5F81" d="M143.4,101.2c0,0,14.1-29.5-7-40.9l65.5-6.4L143.4,101.2z"/>
<path fill="#A41D4D" d="M166.8,82.3c0,0-9.3-10.6-30.5-22l65.5-6.4L166.8,82.3z"/>
<path fill="#222222" d="M143.3,215.7c10.8-13.3,17.3-30.4,17.3-49.4c0-44.3-35.2-78.4-78.8-78.4C38.4,88,3.1,122,3.1,166.3
	s35.2,78.4,78.8,78.4c12.8,0,24.8-2.9,35.4-8.2l7.9,8.2h46.9L143.3,215.7z M119.7,190.8l-24.2-25.7l-25,21.9l21.9,23.1
	c-3.5,0.6-6.9,1-10.6,1c-24.6,0-44.1-17.8-44.1-44.9s19.5-44.9,44.1-44.9c24.6,0,44.1,17.8,44.1,44.9
	C126,175.7,123.6,183.9,119.7,190.8z"/>
<path fill="#A41D4D" d="M153.6,166.5c0-44.3,33.1-78.4,78.8-78.4c27.6,0,51.8,13.5,65,34.9l-29.9,17.2c-6.7-11.6-19.7-18.6-35-18.6
	c-26.8,0-44.1,17.8-44.1,44.9s17.3,44.9,44.1,44.9c15.4,0,28.6-6.9,35-18.6l29.9,17.2c-13,21.4-37.2,34.9-65,34.9
	C186.7,244.9,153.6,210.8,153.6,166.5z"/>
<rect x="0.5" y="0.5" fill="none" stroke="#FFFFFF" width="299" height="299"/>
</svg>
