<?xml version="1.0" encoding="utf-8"?>
<svg version="1.2" baseProfile="tiny-ps" id="Layer_1" xmlns="http://www.w3.org/2000/svg" xmlns:xlink="http://www.w3.org/1999/xlink"
	viewBox="0 0 283.46 283.46" xml:space="preserve">
<title>PT. Bank Central Asia Tbk</title>
<g>
<path fill="#0161AF" d="M103.04,174.7c4.11-15.88,8.2-31.65,12.31-47.55c-1.7,0-3.27,0-4.98,0c0.13-0.33,0.18-0.55,0.28-0.74
	c3.23-6.23,6.47-12.46,9.68-18.7c0.24-0.47,0.52-0.62,1.02-0.62c9.09,0.01,18.18,0,27.28,0.02c2.42,0.01,4.82,0.25,7.16,0.97
	c6.61,2.02,10.24,7.12,9.96,14.02c-0.11,2.63-0.93,5.03-2.24,7.28c-2.19,3.76-5.28,6.62-8.95,8.9c-0.62,0.38-1.25,0.74-1.97,1.16
	c0.23,0.13,0.37,0.22,0.53,0.28c3.64,1.57,5.82,4.33,6.63,8.18c1.24,5.96,0.32,11.49-3.38,16.45c-2.29,3.06-5.16,5.41-8.54,7.17
	c-4.05,2.11-8.39,3.15-12.94,3.17c-10.39,0.04-20.78,0.01-31.17,0.01C103.55,174.7,103.37,174.7,103.04,174.7z M129.72,146.47
	c-0.96,3.74-1.95,7.36-2.86,11.08c0.46,0,0.78,0,1.1,0c2.36-0.01,4.72,0.04,7.07-0.05c1.54-0.06,3.01-0.57,4.32-1.43
	c1.33-0.87,2.27-2.03,2.69-3.59c0.72-2.69-0.73-5.19-3.42-5.84c-0.51-0.12-1.05-0.15-1.58-0.16c-1.92-0.02-3.83-0.01-5.75-0.01
	C130.79,146.47,130.3,146.47,129.72,146.47z M132.88,134.52c1.92,0,3.71,0.02,5.51-0.01c0.73-0.01,1.48-0.05,2.2-0.18
	c3.3-0.6,5.03-2.68,5.26-5.95c0.13-1.74-0.76-2.89-2.47-3.24c-0.63-0.13-1.28-0.18-1.93-0.19c-1.86-0.03-3.72-0.02-5.57-0.02
	c-0.26,0-0.52,0-0.83,0C134.32,128.13,133.61,131.28,132.88,134.52z"/>
<path fill="#0161AF" d="M273.78,174.66c-7.24,0-14.37,0-21.57,0c0-3.84,0-7.63,0-11.41c-0.71-0.21-12.63-0.29-14.73-0.11
	c-1.6,3.81-3.21,7.67-4.83,11.53c-7.78,0-15.51,0-23.38,0c1.3-2.75,2.7-5.39,4.04-8.05c1.34-2.66,2.69-5.31,4.04-7.97
	c1.36-2.68,2.72-5.37,4.08-8.05c1.35-2.66,2.7-5.31,4.04-7.97c1.36-2.68,2.72-5.36,4.08-8.05c1.34-2.65,2.69-5.3,4.1-8.1
	c-1-0.02-1.87-0.03-2.73-0.04c-0.87-0.02-1.74-0.04-2.71-0.07c0.16-0.33,0.27-0.56,0.39-0.79c3.2-5.88,6.4-11.76,9.58-17.65
	c0.32-0.59,0.66-0.82,1.36-0.82c10.12,0.03,20.25,0.02,30.37,0.02c0.29,0,0.58,0,0.92,0c0.03,0.21,0.07,0.34,0.07,0.48
	c0.2,4.72,0.38,9.43,0.59,14.15c0.26,6.01,0.54,12.03,0.8,18.04c0.15,3.36,0.27,6.72,0.41,10.08c0.27,6.25,0.55,12.5,0.82,18.75
	C273.63,170.62,273.7,172.59,273.78,174.66z M252.29,147.39c-0.08-6.39-0.16-12.73-0.24-19.07c-0.06-0.01-0.13-0.02-0.19-0.03
	c-2.69,6.35-5.38,12.7-8.08,19.1C246.68,147.39,249.45,147.39,252.29,147.39z"/>
<path fill="#0161AF" d="M212.73,108.82c0.61-0.77,1.18-1.48,1.8-2.27c4.7,2.48,9.39,4.95,14.13,7.46
	c-3.42,6.21-6.8,12.35-10.23,18.57c-0.26-0.19-0.49-0.34-0.72-0.51c-2.95-2.25-6.19-3.93-9.88-4.52
	c-6.18-0.99-12.05-0.19-17.11,3.78c-4.48,3.51-6.84,8.23-6.92,13.94c-0.08,5.85,3.52,10.74,9.18,12.63
	c4.24,1.41,8.51,1.46,12.78,0.09c3.1-1,6.08-2.27,8.84-4.01c0.09-0.06,0.19-0.09,0.43-0.21c-0.15,0.37-0.24,0.61-0.35,0.84
	c-3.1,6.62-6.22,13.24-9.31,19.87c-0.23,0.5-0.51,0.76-1.08,0.86c-1.94,0.35-3.86,0.82-5.81,1.17c-2.63,0.47-5.29,0.45-7.95,0.33
	c-3.73-0.18-7.39-0.77-10.9-2.1c-9.09-3.44-14.55-9.98-16.41-19.48c-1.32-6.75-0.42-13.32,2.21-19.6
	c5.95-14.22,16.43-23.27,31.46-26.93c3.39-0.83,6.87-1.14,10.36-1.11c1.43,0.01,2.8,0.37,4.16,0.79
	C211.84,108.53,212.25,108.67,212.73,108.82z"/>
<path fill="#0865B2" d="M92.02,141.57c-0.04,11.2-2.36,21.34-6.59,31.06c-0.31,0.7-0.66,1.39-0.95,2.1
	c-0.21,0.52-0.55,0.85-1.07,1.09c-4.65,2.13-9.46,3.8-14.44,5c-6.14,1.48-12.37,2.21-18.68,2.19c-7.85-0.02-15.49-1.41-22.93-3.89
	c-3.36-1.12-6.64-2.45-9.85-3.94c-0.49-0.23-0.79-0.53-1.01-1.02c-3.32-7.17-5.58-14.64-6.72-22.46
	c-0.87-5.96-1.03-11.93-0.45-17.92c0.86-8.95,3.29-17.48,7.09-25.62c0.2-0.42,0.47-0.71,0.9-0.91c6.1-2.84,12.46-4.87,19.09-6.05
	c5.1-0.9,10.24-1.32,15.42-1.19c7.28,0.18,14.35,1.53,21.27,3.77c3.51,1.14,6.93,2.51,10.28,4.06c0.45,0.21,0.75,0.49,0.97,0.95
	c3.32,7.16,5.65,14.62,6.83,22.43C91.72,134.83,91.99,138.47,92.02,141.57z M90.24,141.46c-0.05-3.33-0.36-7.26-1.02-11.17
	c-1.18-7.02-3.31-13.75-6.26-20.22c-0.18-0.4-0.43-0.67-0.84-0.84c-1.47-0.61-2.92-1.28-4.4-1.87c-7.19-2.88-14.63-4.74-22.36-5.39
	c-5.32-0.44-10.62-0.2-15.9,0.54c-6.69,0.94-13.13,2.8-19.37,5.42c-1.47,0.62-2.34,1.5-2.96,2.96c-3.49,8.16-5.65,16.63-6.2,25.49
	c-0.31,5.05-0.1,10.08,0.63,15.1c1.09,7.43,3.21,14.55,6.31,21.39c0.21,0.47,0.53,0.74,0.98,0.94c3.22,1.47,6.51,2.77,9.88,3.85
	c5.7,1.83,11.52,3.03,17.5,3.4c5.02,0.31,10.03,0.09,15.01-0.62c6.96-0.99,13.66-2.88,20.11-5.67c1.02-0.44,1.64-1.05,2.09-2.07
	C87.79,162.95,90.19,152.78,90.24,141.46z"/>
<path fill="#0261AF" d="M50.93,162.97c-0.56,0-1.02,0-1.55,0c-0.02-0.26-0.05-0.52-0.05-0.77c-0.06-4.34-0.08-8.67-0.17-13.01
	c-0.08-3.74-0.61-7.4-2.1-10.88c-1.01-2.35-2.37-4.47-4.18-6.31c-1.09-1.11-2.16-2.27-3.12-3.5c-2.71-3.44-3.53-7.34-2.48-11.59
	c0.89-3.63,3.05-6.3,6.41-7.91c4.18-2.01,8.46-2.06,12.64-0.04c4.62,2.24,6.77,6.11,6.92,11.17c0.08,2.88-0.76,5.49-2.47,7.78
	c-1.07,1.44-2.28,2.79-3.53,4.07c-3.13,3.22-4.95,7.07-5.77,11.44c-0.49,2.62-0.57,5.27-0.56,7.93c0.01,3.66,0.02,7.32,0.03,10.98
	C50.93,162.51,50.93,162.69,50.93,162.97z"/>
<path fill="#0261B0" d="M53.37,162.99c-0.46,0-0.84,0-1.26,0c-0.03-0.15-0.09-0.29-0.09-0.42c0.04-4.99-0.08-9.98,0.18-14.96
	c0.3-5.88,2.55-11.05,6.63-15.35c0.75-0.79,1.61-1.48,2.47-2.14c3.02-2.31,6.34-2.66,9.87-1.35c3.7,1.37,5.64,4.21,6.5,7.9
	c0.34,1.43,0.3,2.88-0.05,4.3c-0.8,3.2-2.78,5.26-5.97,6.13c-2.13,0.58-4.27,1.15-6.38,1.79c-1.75,0.53-3.45,1.22-5.04,2.14
	c-3.9,2.27-5.96,5.76-6.65,10.14C53.49,161.74,53.45,162.32,53.37,162.99z"/>
<path fill="#0261B0" d="M48.02,162.96c-0.39,0-0.72,0-1.11,0c-0.13-0.87-0.21-1.75-0.39-2.6c-0.95-4.34-3.34-7.62-7.31-9.69
	c-2.5-1.31-5.19-2.1-7.89-2.85c-0.94-0.26-1.88-0.5-2.83-0.73c-3.84-0.94-5.97-3.97-6.26-7.56c-0.23-2.84,0.64-5.36,2.32-7.62
	c1.71-2.29,4.11-3.32,6.86-3.8c2.52-0.44,4.73,0.25,6.8,1.6c2.99,1.95,5.16,4.64,6.82,7.77c1.81,3.41,2.84,7.06,2.91,10.93
	c0.09,4.69,0.08,9.39,0.11,14.08C48.06,162.63,48.04,162.78,48.02,162.96z"/>
<path fill="#0262B0" d="M45.39,162.99c-0.44,0-0.79,0-1.15,0c-0.91-2.8-3.04-4-5.74-4.48c-0.86-0.15-1.7,0-2.54,0.17
	c-2.08,0.43-4.17,0.76-6.31,0.8c-4.15,0.09-7-3.1-7.72-5.69c-0.69-2.46-0.41-4.91,0.7-7.24c0.14-0.28,0.36-0.53,0.5-0.72
	c0.47,0.42,0.88,0.83,1.34,1.19c0.94,0.74,2.03,1.18,3.18,1.48c2.97,0.77,5.95,1.5,8.79,2.67c1.19,0.49,2.38,1.05,3.47,1.74
	c3.19,2.05,4.98,5.02,5.5,8.77c0.04,0.29,0.04,0.59,0.04,0.88C45.45,162.69,45.42,162.8,45.39,162.99z"/>
<path fill="#0262B0" d="M76.81,145.75c0.53,0.45,0.79,1.01,1,1.58c0.7,1.9,0.88,3.87,0.52,5.84c-0.47,2.59-3.27,6.18-7.42,6.31
	c-1.96,0.06-3.88-0.25-5.8-0.59c-0.46-0.08-0.92-0.19-1.39-0.28c-2.3-0.46-4.31,0.21-6.11,1.62c-0.89,0.69-1.43,1.63-1.75,2.74
	c-0.39,0-0.76,0-1.17,0c-0.15-0.91,0.03-1.78,0.24-2.62c0.98-3.96,3.4-6.72,7.05-8.45c2.68-1.27,5.51-2.06,8.36-2.84
	c0.57-0.15,1.14-0.3,1.71-0.44C73.91,148.14,75.64,147.45,76.81,145.75z"/>
<path fill="#0B67B2" d="M34.96,168.24c1.05,0.26,2.02,0.46,2.97,0.75c0.66,0.2,0.98,0.7,0.97,1.42c-0.01,0.93-0.22,1.4-0.84,1.89
	c0.04,0.49,0.14,0.92,0.11,1.33c-0.06,0.76-0.18,1.51-0.29,2.3c-0.39-0.11-0.81-0.22-1.32-0.36c0.08-0.54,0.13-1.06,0.22-1.57
	c0.22-1.23,0.11-1.37-1.28-1.52c-0.2,0.9-0.41,1.8-0.63,2.77c-0.47-0.1-0.88-0.19-1.37-0.3C34,172.69,34.47,170.52,34.96,168.24z
	 M35.74,171.3c0.56,0.17,1.03,0.48,1.54,0.08c0.27-0.21,0.46-0.94,0.29-1.22c-0.33-0.56-0.91-0.5-1.47-0.55
	C35.98,170.18,35.87,170.69,35.74,171.3z"/>
<path fill="#0D68B3" d="M55.91,169.94c0.88-0.12,1.68-0.29,2.5-0.34c1.24-0.07,1.99,0.98,1.62,2.2c-0.08,0.25-0.23,0.47-0.38,0.79
	c0.89,0.47,1.08,1.32,1.03,2.28c-0.05,0.8-0.41,1.28-1.19,1.43c-0.84,0.16-1.69,0.26-2.63,0.39
	C56.54,174.46,56.24,172.28,55.91,169.94z M58.03,175.43c0.54,0.01,0.99,0.02,1.17-0.44c0.17-0.45,0.14-0.96-0.18-1.33
	c-0.33-0.39-0.78-0.25-1.26-0.08C57.85,174.19,57.94,174.79,58.03,175.43z M57.37,170.76c0.08,0.56,0.15,1.07,0.22,1.57
	c1.05-0.12,1.3-0.36,1.18-1.07C58.66,170.57,58.43,170.48,57.37,170.76z"/>
<path fill="#0D68B3" d="M32.21,170.82c-0.34,1.24-0.64,2.34-0.95,3.5c-0.42-0.07-0.86,0.01-0.94-0.53
	c-0.41,0.05-0.84,0.21-1.24,0.14c-1.21-0.2-1.81-1.01-1.58-2.22c0.23-1.18,0.53-2.36,0.95-3.48c0.49-1.3,1.45-1.58,2.91-1.02
	c1.17,0.45,1.52,1.27,1.06,2.64c-0.35-0.08-0.71-0.17-1.11-0.27c0-0.25,0-0.48,0-0.7c0-0.42-0.24-0.64-0.62-0.75
	c-0.39-0.12-0.7,0-0.92,0.34c-0.12,0.2-0.22,0.42-0.29,0.64c-0.23,0.79-0.45,1.59-0.65,2.39c-0.2,0.79-0.02,1.27,0.48,1.43
	c0.5,0.16,0.91-0.13,1.21-0.89c0.05-0.13,0.08-0.28,0.13-0.46c-0.25-0.12-0.47-0.23-0.76-0.37c0.07-0.3,0.15-0.6,0.25-1
	C30.86,170.41,31.49,170.61,32.21,170.82z"/>
<path fill="#0C67B3" d="M44.16,169.75c0.48,0.06,0.85,0.1,1.33,0.16c-0.03,0.41-0.04,0.78-0.09,1.15c-0.16,1.26-0.3,2.51-0.5,3.76
	c-0.12,0.75-0.39,1.48-1.23,1.67c-0.97,0.22-1.97,0.18-2.73-0.57c-0.28-0.27-0.42-0.78-0.44-1.19c-0.03-0.67,0.08-1.35,0.15-2.02
	c0.12-1.08,0.27-2.15,0.41-3.31c0.47,0.05,0.89,0.09,1.38,0.13c-0.16,1.28-0.31,2.47-0.46,3.67c-0.06,0.47-0.12,0.94-0.12,1.41
	c-0.01,0.49,0.21,0.74,0.63,0.81c0.44,0.08,0.83-0.12,0.96-0.57c0.11-0.36,0.15-0.75,0.2-1.13
	C43.83,172.43,43.99,171.15,44.16,169.75z"/>
<path fill="#0B67B3" d="M68,167.71c0.57-0.18,1.07-0.33,1.66-0.51c1.15,2.01,2.27,4,3.44,6.04c-0.45,0.15-0.83,0.27-1.29,0.42
	c-0.28-0.49-0.54-0.97-0.85-1.51c-0.45,0.13-0.89,0.25-1.35,0.38c0.04,0.63,0.08,1.17,0.11,1.75c-0.42,0.12-0.78,0.23-1.26,0.37
	C68.21,172.35,68.17,170.07,68,167.71z M69.42,171.34c0.39-0.03,0.72-0.06,0.97-0.35c-0.38-0.75-0.74-1.46-1.09-2.17
	c-0.05,0.02-0.1,0.04-0.15,0.06C69.24,169.69,69.33,170.49,69.42,171.34z"/>
<path fill="#0C68B3" d="M65.31,172.86c0.37-0.08,0.71-0.14,1.09-0.22c0.24,0.61,0.23,1.21,0.08,1.81c-0.05,0.19-0.17,0.38-0.3,0.53
	c-0.92,1.09-2.99,0.82-3.43-0.53c-0.41-1.28-0.69-2.63-0.79-3.96c-0.11-1.48,1.72-2.5,3.04-1.8c0.54,0.29,0.81,0.77,0.93,1.75
	c-0.36,0.08-0.72,0.16-1.11,0.25c-0.14-0.28-0.2-0.55-0.37-0.73c-0.16-0.17-0.45-0.34-0.64-0.3c-0.2,0.04-0.4,0.31-0.5,0.53
	c-0.09,0.2-0.06,0.47-0.02,0.69c0.16,0.9,0.34,1.79,0.53,2.68c0.05,0.22,0.12,0.5,0.28,0.63c0.2,0.17,0.5,0.32,0.76,0.31
	c0.34-0.01,0.44-0.33,0.45-0.65C65.31,173.54,65.31,173.25,65.31,172.86z"/>
<path fill="#0C68B3" d="M47.39,170.19c0.96,0,1.84-0.05,2.71,0.02c0.81,0.07,1.25,0.58,1.35,1.39c0.03,0.2,0.03,0.41,0.02,0.62
	c-0.04,1.23-0.71,1.89-1.94,1.94c-0.32,0.01-0.64,0-1.02,0c-0.06,0.9-0.12,1.77-0.18,2.67c-0.44,0-0.81,0-1.3,0
	C47.04,174.6,47.26,172.42,47.39,170.19z M48.56,173c0.59,0.11,1.1,0.21,1.43-0.31c0.23-0.36,0.3-0.8,0.06-1.18
	c-0.33-0.51-0.85-0.35-1.39-0.31C48.62,171.8,48.59,172.35,48.56,173z"/>
</g>
</svg>
