<?xml version="1.0" encoding="utf-8"?>
<!-- Generator: Adobe Illustrator 28.1.0, SVG Export Plug-In . SVG Version: 6.00 Build 0)  -->
<svg version="1.2" baseProfile="tiny-ps" id="Layer_1" xmlns="http://www.w3.org/2000/svg" xmlns:xlink="http://www.w3.org/1999/xlink"
	 viewBox="0 0 1000 1000" xml:space="preserve">
	 <title>Targeted Victory</title>
<g>
	<path fill="#C8202F" d="M571.2,447.5h-57c-0.8,0-1.4,0.6-1.4,1.4v81c0,0.8,0.6,1.4,1.4,1.4H553l18.9,12.9c0.3,0.2,0.7,0,0.7-0.4
		v-13.9v-12.1v-68.9C572.6,448.1,572,447.5,571.2,447.5z M542.4,490.5l-18.2,11.6c-0.4,0.2-0.9,0-0.9-0.5v-23.2
		c0-0.5,0.5-0.7,0.9-0.5l18.2,11.6C542.8,489.7,542.8,490.2,542.4,490.5z M561.5,490.7L544,501.9c-0.5,0.3-1.3,0-1.3-0.7v-22.4
		c0-0.6,0.7-1,1.3-0.7l17.5,11.2C562,489.6,562,490.4,561.5,490.7z"/>
	<g>
		<path d="M629.8,531.3h-19.9c-0.2,0-0.5-0.2-0.5-0.4l-25.6-82.4c-0.1-0.5,0.2-1,0.7-1h17.6c0.3,0,0.5,0.2,0.5,0.4l17.3,58.5h0.2
			l17.6-58.5c0.1-0.2,0.3-0.4,0.5-0.4h17.8c0.4,0,0.7,0.4,0.5,0.8L630.4,531C630.3,531.2,630.1,531.3,629.8,531.3z"/>
		<path d="M677.2,461.2h-15.5c-0.3,0-0.6-0.3-0.6-0.6v-12.6c0-0.3,0.3-0.6,0.6-0.6h15.5c0.3,0,0.6,0.3,0.6,0.6v12.6
			C677.7,461,677.5,461.2,677.2,461.2z M661.4,478l15.5-9.5c0.4-0.2,0.8,0.1,0.8,0.5v61.5c0,0.4-0.3,0.7-0.7,0.7h-15.2
			c-0.4,0-0.7-0.3-0.7-0.7v-51.9C661.1,478.3,661.2,478.1,661.4,478z"/>
		<path d="M727.9,491.4c-0.4,0-0.6-0.3-0.7-0.6c-1.2-6.4-5.5-9.2-12.2-9.2c-10.7,0-14.2,10.2-14.2,19.1c0,8.7,3.4,18.5,13.8,18.5
			c7.5,0,11.9-4.1,13.2-11.1c0.1-0.4,0.4-0.6,0.7-0.6h14.6c0.4,0,0.8,0.4,0.7,0.8c-2.4,15.5-13.4,23.6-29.1,23.6
			c-18.3,0-30.6-12.5-30.6-30.7c0-18.8,11.3-32.8,31-32.8c14.1,0,27,7.2,28.4,22.1c0,0.4-0.3,0.8-0.7,0.8H727.9z"/>
		<path d="M821.6,468.6c19.1,0,31.6,12.8,31.6,32c0,19.1-12.4,31.3-31.5,31.3c-19,0-31.2-12.2-31.2-31.3
			C790.5,481.3,802.6,468.6,821.6,468.6z M821.8,519.2c11.4,0,14.8-9.1,14.8-18.7c0-9.7-3.4-18.8-14.8-18.8
			c-11.3,0-14.7,9.1-14.7,18.8C807.1,510.2,810.5,519.2,821.8,519.2z"/>
		<path d="M773.9,468.7H785c0.3,0,0.6,0.3,0.6,0.6v12.2c0,0.3-0.3,0.6-0.6,0.6h-11.1c-0.3,0-0.6,0.3-0.6,0.6l0,33.9
			c0,0.2,0.2,0.4,0.4,0.4c4.5,0.2,6.5,0,11.2-0.3c0.3,0,0.6,0.2,0.6,0.6v13.1c0,0.3-0.2,0.5-0.5,0.6c-2.7,0.4-6.2,0.5-9.3,0.5
			c-10.2,0-19.2-2.4-19.2-14.5v-34.3c0-0.3-0.3-0.6-0.6-0.6l-8.7,0c-0.3,0-0.6-0.3-0.6-0.6v-12.2c0-0.3,0.3-0.6,0.6-0.6h8.7
			c0.3,0,0.6-0.3,0.6-0.6l0-10.4c0-0.2,0.1-0.4,0.3-0.5l15.6-9.5c0.4-0.2,0.8,0.1,0.8,0.5v20C773.3,468.4,773.6,468.7,773.9,468.7z"
			/>
		<path d="M938,538.3c-3.7,10-11.8,14.2-22.9,14.2c-3.3,0-1.9,0-5.2-0.1c-0.3,0-0.5-0.2-0.5-0.5l0-13.7c0-0.3,0.2-0.5,0.5-0.5
			c3,0,3.5,0.1,6.3,0c5.9-0.1,7.8-8.6,5.9-13.5l-20.4-54.6c-0.2-0.5,0.2-1,0.7-1h16.8c0.3,0,0.6,0.2,0.7,0.5l12.7,39.3h0.2
			l12.3-39.3c0.1-0.3,0.4-0.5,0.7-0.5h16.3c0.3,0,0.4,0.2,0.3,0.5L938,538.3z"/>
		<path d="M859.7,468.7l14.5,0c0.4,0,0.7,0.3,0.7,0.8c0,0,0,6.5,0,6.8c0,0.2,0.3,0.2,0.3,0c1.9-4.3,3.9-7.5,17.5-7.6
			c1,0,2.1-0.1,3.1,0.2c0.3,0.1,0.5,0.4,0.5,0.7l0,14.3c0,0.4-0.3,0.7-0.7,0.7c-1.7,0-3.3,0-5,0c-12.2,0-14.9,10.9-14.9,19.5v26.4
			c0,0.4-0.3,0.7-0.7,0.7h-15.4c-0.3,0-0.6-0.3-0.6-0.6l-0.2-61.2C858.9,469,859.3,468.7,859.7,468.7z"/>
	</g>
	<g>
		<path d="M150.8,530.5c0,0.4-0.3,0.7-0.7,0.7c-3,0.1-14.2,0-14.2,0c-0.6,0-0.9-0.2-0.9-0.8c0-1,0-2.3,0-3.4c0-0.6-0.8-1-1.2-0.5
			c-5.2,4.7-11.7,5.3-18.7,5.3c-11.6,0-20.4-4.6-20.4-17.2c0-13.8,10.4-17.1,20.8-18.5c10.3-1.5,18.6-1.2,18.6-8
			c0-7.2-5-8.3-10.9-8.3c-6.1,0-9.9,3.9-9.8,8.5c0,0.4-0.3,0.7-0.7,0.7l-15.3,0c-0.4,0-0.7-0.3-0.7-0.7c0-13.2,14-19.7,27.5-19.7
			c12.2,0,26.8,3.6,26.7,17.4L150.8,530.5z M134.1,502.9c0-0.6-0.6-1-1.2-0.7c-3,1.7-7,1.9-11.6,2.7c-5.2,1.1-9.9,2.8-9.9,9
			c0,6.3,4.8,7.8,10.3,7.8c13.1,0,12.4-10.4,12.4-14.1L134.1,502.9z"/>
		<path d="M38.2,447.5h66c0.4,0,0.7,0.3,0.7,0.7v14c0,0.4-0.3,0.7-0.7,0.7H81.8c-0.4,0-0.7,0.3-0.7,0.7v66.9c0,0.4-0.3,0.7-0.7,0.7
			h-17c-0.4,0-0.7-0.3-0.7-0.7v-66.9c0-0.4-0.3-0.7-0.7-0.7H38.2c-0.4,0-0.7-0.3-0.7-0.7v-14C37.5,447.8,37.8,447.5,38.2,447.5z"/>
		<path d="M280.6,504.9c-0.4,0-0.8,0.4-0.7,0.8c0.7,10.1,5.8,14.6,14.9,14.6c6.4,0,11.1-3.8,12.4-7.4c0.1-0.3,0.4-0.5,0.7-0.5h13.8
			c0.5,0,0.9,0.5,0.7,1c-4.8,13.7-14.7,18.3-28.2,18.3c-19.2,0-31.1-12-31.1-30.9c0-18.3,12.6-32.2,31.1-32.2
			c20.5,0,30.5,17,29.6,35.5c0,0.4-0.3,0.7-0.7,0.7H280.6z M306.3,494.3c0.4,0,0.6-0.3,0.6-0.7c-1.6-8-5.3-12.3-13.2-12.3
			c-10.1,0-13.4,7.5-13.9,12.3c0,0.3,0.2,0.6,0.6,0.6H306.3z"/>
		<path d="M352.3,468.6h11.1c0.3,0,0.6,0.3,0.6,0.6v12.4c0,0.3-0.3,0.6-0.6,0.6h-11.1c-0.3,0-0.6,0.3-0.6,0.6l0,33.9
			c0,0.2,0.2,0.4,0.4,0.4c4.5,0.2,6.5,0,11.2-0.3c0.3,0,0.6,0.2,0.6,0.6v13.1c0,0.3-0.2,0.5-0.5,0.6c-2.7,0.4-6.2,0.5-9.3,0.5
			c-10.2,0-19.2-2.4-19.2-14.5v-34.3c0-0.3-0.3-0.6-0.6-0.6l-8.7,0c-0.3,0-0.6-0.3-0.6-0.6v-12.4c0-0.3,0.3-0.6,0.6-0.6h8.7
			c0.3,0,0.6-0.3,0.6-0.6l0-10.2c0-0.2,0.1-0.4,0.3-0.5l15.6-9.5c0.4-0.2,0.8,0.1,0.8,0.5v19.8C351.7,468.4,352,468.6,352.3,468.6z"
			/>
		<path d="M384.6,504.8c-0.4,0-0.8,0.4-0.7,0.8c0.7,10.1,5.8,14.6,14.9,14.6c6.4,0,11.1-3.8,12.4-7.4c0.1-0.3,0.4-0.5,0.7-0.5h13.8
			c0.5,0,0.9,0.5,0.7,1c-4.8,13.7-14.7,18.3-28.2,18.3c-19.2,0-31.1-12-31.1-30.9c0-18.3,12.6-32.2,31.1-32.2
			c20.5,0,30.5,17,29.6,35.5c0,0.4-0.3,0.7-0.7,0.7H384.6z M410.4,494.2c0.4,0,0.6-0.3,0.6-0.7c-1.6-8-5.3-12.3-13.2-12.3
			c-10.1,0-13.4,7.5-13.9,12.3c0,0.3,0.2,0.6,0.6,0.6H410.4z"/>
		<path d="M257.8,525.1c0,10-2.8,27.4-30.3,27.4c-11.6,0-26.3-5.4-27.5-18.6c0-0.4,0.3-0.8,0.7-0.8l15,0c0.3,0,0.6,0.2,0.7,0.5
			c1.7,5.8,6.9,7.8,12.5,7.7c10.2-0.3,13.4-6.8,13.3-15.5v-7.3H242c-1.3,2.6-7,8.9-17.6,8.9c-18.6,0-26.1-13.5-25.9-30.1
			c0.2-17.8,9.7-30,26.3-30.1c10.5-0.1,16.2,7.1,17.2,9.2h0.2l-0.1-7.1c0-0.4,0.3-0.7,0.7-0.7l14.2,0c0.4,0,0.7,0.3,0.7,0.7
			C257.8,476,257.8,525.1,257.8,525.1z M242.3,497.4c0-11.3-5.5-17.6-12.8-17.7c-9.3-0.2-15.1,5.2-15.1,17.7
			c0.1,11.2,5.2,17.7,14.9,17.7C236.6,515.1,242.3,508.6,242.3,497.4z"/>
		<path d="M159.1,468.7l14.5,0c0.4,0,0.7,0.3,0.7,0.8c0,0,0,6.5,0,6.8c0,0.2,0.3,0.2,0.3,0c1.9-4.3,3.9-7.5,17.5-7.6
			c1,0,2.1-0.1,3.1,0.2c0.3,0.1,0.5,0.4,0.5,0.7l0,14.3c0,0.4-0.3,0.7-0.7,0.7c-1.7,0-3.3,0-5,0c-12.2,0-14.9,10.9-14.9,19.5v26.4
			c0,0.4-0.3,0.7-0.7,0.7H159c-0.3,0-0.6-0.3-0.6-0.6l-0.2-61.2C158.3,469,158.7,468.7,159.1,468.7z"/>
		<path d="M479.2,526.1l-0.2,0c-3.1,5.5-12.5,7-18.6,6.9c-16.5-0.1-26.1-15.9-26.1-31.2c0-16.9,7.9-33.2,26-33.3
			c10-0.1,15.1,4.4,18.7,9.6h0.2l-0.1-19.7c0-0.7,0.7-1.3,1.3-1.7l14-9.2c0.1-0.1,0.3-0.1,0.4-0.1c0.6,0.1,1.1,0.7,1.1,1.3
			l-0.1,80.4c-0.1,1.4-0.4,2-1.9,1.9h-12.9c-1.6,0-1.9-0.4-1.9-1.9V526.1z M466.5,481.6c-8.9-0.1-15.9,5.3-15.9,20.4
			c0,11.4,6,18.7,15.9,18.7c8.8,0,13.3-9.6,13.3-18.8C479.8,488.6,474.8,481.6,466.5,481.6z"/>
	</g>
</g>
</svg>
