<svg version="1.2" baseProfile="tiny-ps" height="100" viewBox="0 0 100 100" width="100" xmlns="http://www.w3.org/2000/svg"><title>Vivino</title><g fill="none" fill-rule="evenodd"><path d="m0 0h100v100h-100z" fill="#8e041a"/><path d="m27.9998759 68.5006164c3.4199512 0 6.2571466 2.7951351 6.2571466 6.2494439 0 3.4163725-2.8371954 6.2499397-6.2571466 6.2499397-3.4586775 0-6.2568984-2.8335672-6.2568984-6.2499397 0-3.4543088 2.7982209-6.2494439 6.2568984-6.2494439zm6.9524954-12.5001232c3.4586775 0 6.2568984 2.8336796 6.2568984 6.2496917 0 3.4549418-2.7982209 6.2496918-6.2568984 6.2496918-3.4589257 0-6.2571466-2.79475-6.2571466-6.2496918 0-3.4160121 2.7982209-6.2496917 6.2571466-6.2496917zm-14.3679775 0c3.4586775 0 6.2568983 2.8336796 6.2568983 6.2496917 0 3.4549418-2.7982208 6.2496918-6.2568983 6.2496918-3.4201995 0-6.2571466-2.79475-6.2571466-6.2496918 0-3.4160121 2.8369471-6.2496917 6.2571466-6.2496917zm21.7834596-12.5001233c3.4589257 0 6.2571466 2.8331837 6.2571466 6.2496917 0 3.4549418-2.7982209 6.2496918-6.2571466 6.2496918-3.4586775 0-6.2568983-2.79475-6.2568983-6.2496918 0-3.416508 2.7982208-6.2496917 6.2568983-6.2496917zm-14.3679775 0c3.4198271 0 6.2571466 2.8330597 6.2571466 6.2496917 0 3.4549418-2.8373195 6.2496918-6.2571466 6.2496918-3.4586775 0-6.2568984-2.79475-6.2568984-6.2496918 0-3.416632 2.7982209-6.2496917 6.2568984-6.2496917zm-14.3679776 0c3.4199513 0 6.2571466 2.8330597 6.2571466 6.2496917 0 3.4549418-2.8371953 6.2496918-6.2571466 6.2496918-3.4586774 0-6.2568983-2.79475-6.2568983-6.2496918 0-3.416632 2.7982209-6.2496917 6.2568983-6.2496917zm21.3205351-12.5001233c3.4585876 0 6.2568363 2.8426683 6.2568363 6.2692166 0 3.4653493-2.7982487 6.2301669-6.2568363 6.2301669-3.4590842 0-6.2572087-2.7648176-6.2572087-6.2301669 0-3.4265483 2.7981245-6.2692166 6.2572087-6.2692166zm-14.3679776 0c3.4587118 0 6.2568363 2.8427927 6.2568363 6.2692166 0 3.4654736-2.7981245 6.2301669-6.2568363 6.2301669-3.4590841 0-6.2572086-2.7646933-6.2572086-6.2301669 0-3.4264239 2.7981245-6.2692166 6.2572086-6.2692166zm7.4156683-12.5001233c3.4586775 0 6.2568984 2.7949425 6.2568984 6.2495678 0 3.4159444-2.7982209 6.2498157-6.2568984 6.2498157-3.4199512 0-6.2571466-2.8338713-6.2571466-6.2498157 0-3.4546253 2.8371954-6.2495678 6.2571466-6.2495678zm6.951999-12.5001233c3.4589257 0 6.2571466 2.7949425 6.2571466 6.2495678 0 3.4159444-2.7982209 6.2498158-6.2571466 6.2498158-3.4199512 0-6.2568984-2.8338714-6.2568984-6.2498158 0-3.4546253 2.8369472-6.2495678 6.2568984-6.2495678z" fill="#fff" transform="translate(22 6)"/></g></svg>
