<?xml version="1.0" encoding="utf-8"?>
<!-- Generator: Adobe Illustrator 24.0.3, SVG Export Plug-In . SVG Version: 6.00 Build 0)  -->
<svg version="1.2" baseProfile="tiny-ps"
	 id="svg22" xmlns:cc="http://creativecommons.org/ns#" xmlns:dc="http://purl.org/dc/elements/1.1/" xmlns:inkscape="http://www.inkscape.org/namespaces/inkscape" xmlns:rdf="http://www.w3.org/1999/02/22-rdf-syntax-ns#" xmlns:sodipodi="http://sodipodi.sourceforge.net/DTD/sodipodi-0.dtd" xmlns:svg="http://www.w3.org/2000/svg"
	 xmlns="http://www.w3.org/2000/svg" xmlns:xlink="http://www.w3.org/1999/xlink" viewBox="0 0 216 216"
	 xml:space="preserve">
<title>LBL</title>
<path d="M216,216H0V0h216V216z"/>
<path fill="#F5D35A" d="M141.7,150.4c2.3-0.7,4.6-1.4,6.8-2.2c-0.3-1.5-0.4-2.9-0.3-4.4c0.3-1.9,1.1-3.4,2.6-4.5
	c2.8-2.1,5.5-4.5,7.7-7.3c0,0,0.1,0,0.2-0.1c0.1,0.2,0.3,0.4,0.4,0.6c0.4,1.2,0.4,2.6,0.4,3.9c-0.1,2.4-0.5,4.8-1.7,6.9
	c-0.3,0.5-0.6,1.1-0.9,1.6c2-0.9,3.9-1.8,5.8-2.7c-0.5-1.2-1.1-2.4-1.4-3.6c-0.7-2.2-0.4-4.3,1-6.2c2.1-2.9,3.8-6,5.2-9.5
	c0.3,0.3,0.5,0.4,0.6,0.6c0.7,1.2,1.2,2.4,1.6,3.6c0.3,0.8,0.4,1.7,0.5,2.3c0.3-0.6,0.5-1.4,0.9-2.2c1.2-2.6,2.2-5.2,2.8-8.1
	c0-0.1,0-0.1,0.1-0.3c0.3,0.2,0.5,0.4,0.7,0.6c1.1,1.2,1.8,2.7,2.3,4.2c1.1,2.8,1.1,5.5,0.1,8.3c0,0.1-0.1,0.3-0.1,0.4
	c0,0,0,0.1-0.1,0.1l0.1-0.1c1.1-1.1,2.2-2.1,3.4-3.1c-0.4-0.4-0.6-0.8-1-1.2c-0.7-0.9-1.2-1.9-1.4-3.1c-0.1-0.8,0-1.5,0.3-2.3
	c0.9-2.3,1.6-4.6,2-7c0-0.3,0.1-0.5,0.2-0.9c0.3,0.2,0.5,0.3,0.7,0.4c1.4,1.4,2.3,3.2,2.8,5.2c0.4,1.2,0.4,2.5,0.3,3.7
	c0,0.2,0,0.3,0,0.4c0,0,0-0.1,0,0c-0.1,0,0,0,0,0c0.7-0.9,1.3-1.9,2-2.8c0.3-0.4,0.2-0.4-0.1-0.7c-0.7-0.6-1.4-1.3-2-2.1
	c-0.7-0.9-0.8-2-0.4-3.1c0.6-2,1.1-4.1,1.2-6.2c0,0,0-0.1,0.1-0.3c0.3,0.1,0.5,0.2,0.7,0.4c2.2,2,3.6,4.3,3.4,7.4c0,0.1,0,0.2,0,0.4
	c0.4-0.5,0.8-1,0.9-1.7c0.2-1.6,0.5-3.1,1.3-4.5c0.4-0.9,1.2-1.6,2-2.2c0.9-0.6,1.8-1.3,2.7-2c0.5-0.4,1-1.1,1.6-1.6
	c0.3,0.2,0.3,0.4,0.3,0.7c-0.1,3.3-1.2,6.1-3.6,8.3c-1,1-2.1,1.7-3.4,2.3c-0.2,0.1-0.4,0.3-0.5,0.4c-0.4,0.6-0.6,1.2-1,1.8
	c0,0,0,0.1-0.1,0.1h0.1c1.4-0.8,2.9-1.2,4.6-1.2c2,0.2,3.8,0.8,5.4,2c0,0,0.1,0,0.2,0c0,0.2,0,0.3,0,0.4c-0.2,0-0.3,0-0.4,0.1
	c-2,0.7-3.9,1.7-5.8,2.8c-1,0.6-2,0.7-3,0.5c-1.2-0.3-2.1-0.9-3.1-1.5c-1,1.4-2,2.8-2.9,4.2v0.1c0,0,0.1,0,0.1-0.1
	c0.1,0,0.2-0.1,0.3-0.1c1.9-0.9,3.9-1.2,6-0.8c1.7,0.3,3.2,0.8,4.6,1.7c0.3,0.2,0.4,0.4,0.6,0.6c-0.2,0.1-0.2,0.1-0.3,0.1
	c-2.6,0.9-4.9,2.1-7.2,3.5c-0.4,0.3-0.8,0.4-1.2,0.5c-1.4,0.4-2.8,0.1-4.1-0.5c-0.7-0.4-1.4-0.8-2.1-1.2c-1.1,1.2-2.2,2.3-3.4,3.5
	c0.1,0,0.1,0,0.2,0c3.1-0.9,6-0.5,9,0.9c1.3,0.6,2.5,1.3,3.6,2.4c0.2,0.2,0.3,0.4,0.4,0.7c-0.4,0.1-0.8,0.1-1.2,0.2
	c-2.8,0.5-5.4,1.3-8.1,2.5c-1.4,0.6-2.8,0.5-4.2,0.1c-1.2-0.4-2.2-1.2-3.2-2c-0.4-0.3-0.6-0.5-0.9-0.8c-1.1,0.8-2,1.6-3.1,2.3
	c1,0.1,2,0,2.9,0.1c2.8,0.4,5.3,1.5,7.6,3.3c0.9,0.6,1.6,1.4,2.3,2.2c0.2,0.2,0.3,0.4,0.4,0.8c-0.9,0.1-1.6,0.1-2.3,0.2
	c-3,0.4-6,1-8.9,1.8c-1.3,0.4-2.7,0.4-4-0.2c-1.9-0.7-3.4-2-4.6-3.6c-0.1-0.1-0.2-0.3-0.3-0.4c-1.9,1-3.7,1.9-5.7,2.8
	c0.3,0,0.4,0,0.5,0c0.7,0.1,1.4,0.1,2.1,0.2c2.8,0.5,5.4,1.8,7.6,3.6c0.8,0.6,1.5,1.4,2.3,2.2c0.2,0.2,0.3,0.4,0.4,0.8
	c-0.7,0-1.2,0.1-1.8,0.1c-3.5,0.4-6.8,1-10.1,2c-1.5,0.4-3,0.4-4.5-0.3c-1.9-0.8-3.4-2-4.7-3.6c-0.4-0.4-0.8-0.9-1.2-1.3
	c-1.7,0.6-3.4,1.2-5.2,1.9c0.6,0.1,1.1,0.2,1.5,0.3c3.4,0.7,6.3,2.2,9.1,4.4c0.9,0.7,1.8,1.6,2.6,2.5c0.2,0.2,0.3,0.5,0.4,0.8
	c-0.1,0.1-0.2,0.1-0.2,0.1c-4.8,0.2-9.4,1.1-14,2.3c-1,0.3-2,0.4-3.1,0.3c-2-0.2-3.8-1.2-5.4-2.3c-1.3-1-2.5-2.2-3.6-3.6
	c-2.1,0.8-4.3,1.7-6.5,2.5c1.2,0.1,2.2,0.2,3.2,0.4c3.5,0.6,6.5,2.1,9.2,4.3c1,0.7,1.8,1.6,2.7,2.5c0.2,0.2,0.3,0.5,0.4,0.8
	c-0.1,0.1-0.1,0.1-0.2,0.1c-0.4,0-0.8,0-1.2,0.1c-4.4,0.4-8.6,1.1-12.8,2.3c-1.9,0.5-3.7,0.4-5.6-0.4c-1.9-0.8-3.5-2-4.9-3.5
	c-0.5-0.5-1-1.1-1.5-1.6c-1.1,0.6-2.2,1.2-3.2,1.9c1.5,1.5,3,3,4.5,4.6c1.4,1.6,2.8,3.4,3.8,5.2c-0.5,0.5-1.2,0.8-1.8,0.1
	c-1-1.2-2-2.3-3.2-3.5c-1.6-1.7-3.3-3.3-5.2-4.7c-0.4-0.3-0.5-0.3-0.9,0c-1,0.8-2.1,1.5-3.1,2.4c-2.2,2.2-4.4,4.4-6.5,6.7v0.1
	c-0.2,0-0.4,0-0.6,0c0,0,0.1,0,0.1-0.1v-0.1c-0.7-0.5-0.7-0.5-0.3-1.2c2.3-3.5,5-6.6,8.3-9.1c0.2-0.1,0.4-0.3,0.5-0.4
	c-1.4-0.8-2.7-1.6-4-2.4c-0.1,0.2-0.2,0.3-0.3,0.4c-1.3,1.6-2.9,3-4.8,4.1c-2.2,1.2-4.5,1.7-7,1c-3.5-1-7.1-1.7-10.7-2
	c-1.1-0.1-2.2-0.2-3.5-0.3c0.2-0.4,0.4-0.6,0.5-0.9c1-1.2,2.1-2.1,3.3-2.9c3.1-2.2,6.5-3.7,10.4-4c0.4,0,0.8,0,1.2,0
	c0-0.1,0-0.1,0-0.2c-2-0.8-4.1-1.6-6.2-2.4c-0.1,0-0.4,0.1-0.4,0.2c-1.3,1.6-2.8,3.1-4.7,4.2c-2.2,1.3-4.5,1.9-7,1.2
	c-4.1-1.2-8.2-2-12.3-2.3c-0.6-0.1-1.2-0.1-2-0.1c0.1-0.3,0.1-0.5,0.3-0.6c0.4-0.4,0.6-0.8,1-1.2c2.6-2.5,5.5-4.3,8.9-5.3
	c1-0.4,2-0.5,3.1-0.8c-0.1-0.1-0.3-0.1-0.4-0.2c-1.4-0.5-2.8-1-4.3-1.5c-0.4-0.1-0.5-0.1-0.7,0.3c-1.3,1.7-2.8,3.2-4.8,4.3
	c-1.7,0.9-3.5,1.1-5.3,0.5c-2.8-0.8-5.5-1.4-8.3-1.8c-1.1-0.1-2.1-0.2-3.3-0.4c-0.1-0.5,0.3-0.9,0.6-1.2c2.4-2.6,5.3-4.4,8.8-5.2
	c1.2-0.3,2.3-0.4,3.4-0.4c-1.8-0.9-3.6-1.9-5.6-2.8c-0.1,0.1-0.1,0.2-0.2,0.2c-1.1,1.2-2.2,2.3-3.6,3.1c-1.7,1-3.5,1.2-5.3,0.6
	c-2.6-0.8-5.2-1.3-7.9-1.7c-1-0.1-2-0.2-2.9-0.3c-0.1-0.5,0.3-0.8,0.6-1.2c3.4-3.4,7.2-5.4,12.1-5.2c0.1,0,0.3,0,0.4,0
	c-1.1-0.8-2.1-1.6-3.1-2.4c-1,1-2,1.8-3.2,2.4c-1.7,0.9-3.5,1-5.2,0.3c-1.4-0.6-2.9-1.1-4.5-1.6c-1.4-0.4-2.9-0.7-4.4-1.1
	c0.2-0.2,0.3-0.5,0.4-0.6c0.9-0.6,1.7-1.3,2.7-1.9c2.5-1.4,5.2-2.1,8.1-1.7c0.6,0.1,1.2,0.3,1.9,0.4c-1.2-1.2-2.2-2.3-3.3-3.5
	c-0.9,0.4-1.8,1-2.8,1.4c-1.8,0.7-3.4,0.6-5.1-0.4c-1.6-1-3.3-1.8-5-2.7c-0.6-0.3-1.2-0.5-2-0.8c0.2-0.3,0.4-0.4,0.5-0.5
	c2.3-1.4,4.9-2.2,7.6-1.9c1.1,0.2,2.1,0.6,3.3,1c0.1,0,0.1,0,0.2,0c0,0,0-0.1-0.1-0.1c-1-1.3-2-2.8-2.9-4.1
	c-0.7,0.4-1.4,0.9-2.2,1.2c-1.4,0.6-2.8,0.5-4.2-0.4c-1.5-0.9-3.1-1.7-4.7-2.4c-0.4-0.2-0.9-0.3-1.3-0.4c0-0.1,0-0.3,0-0.4l0.1,0.1
	c3.2-2.4,6.6-2.9,10.2-1.1c0,0,0,0,0.1,0c-0.4-0.7-0.7-1.4-1.2-2c-0.1-0.1-0.3-0.2-0.4-0.3c-2.6-1.3-4.7-3.1-5.9-5.9
	c-0.6-1.6-1.1-3.2-1-4.9c0-0.3,0.1-0.4,0.3-0.8c1.3,1.7,2.9,2.8,4.4,4c1.4,1.1,2.1,2.5,2.6,4.2c0.2,0.8,0.3,1.6,0.5,2.4
	c0.2,0.6,0.5,1.2,0.8,1.9c0.1,0,0.1,0,0.2-0.1c0-0.6-0.1-1.2,0-1.8c0.3-2.6,1.6-4.4,3.5-6c0.1-0.1,0.4-0.1,0.5-0.2
	c0,0.2,0.1,0.4,0.1,0.5c0.1,2,0.5,3.9,1.1,5.8c0.4,1.2,0.3,2.4-0.5,3.4c-0.5,0.7-1.2,1.3-1.9,2c-0.3,0.3-0.3,0.4-0.1,0.6
	c0.7,0.9,1.3,1.8,2.1,2.8c0-0.2,0-0.2,0-0.3c-0.4-2.7,0.4-5.1,1.8-7.4c0.4-0.6,0.9-1.2,1.3-1.7c0.2-0.2,0.4-0.3,0.6-0.4
	c0.3,1.2,0.4,2.1,0.7,3.2c0.4,1.5,1,3.1,1.5,4.6c0.5,1.3,0.5,2.6-0.1,3.8c-0.5,1-1.2,1.9-1.8,2.8c1,1,2.1,2,3.3,3.1
	c0,0,0.1,0,0.1-0.1s0-0.2-0.1-0.3c-1.6-4.5-0.5-8.6,2.2-12.4c0.4-0.5,0.5-0.6,1-0.6c0.1,0.4,0.2,0.8,0.3,1.2
	c0.6,2.4,1.5,4.6,2.5,6.8c0.4,0.8,0.7,1.6,1,2.4c0.1-0.5,0.3-1.2,0.4-1.7c0.4-1.4,0.9-2.8,1.7-4.1c0.2-0.3,0.4-0.4,0.7-0.7
	c0.1,0.3,0.2,0.4,0.3,0.6c1.2,3.1,2.8,6,4.8,8.7c1.7,2.3,1.9,4.8,0.9,7.4c-0.4,0.9-0.8,1.8-1.2,2.7c2,0.9,3.9,1.7,5.9,2.6h0.1
	c0,0,0-0.1-0.1-0.1c-1.1-1.5-1.9-3.1-2.2-4.9c-0.5-2.3-0.6-4.6-0.1-7c0.2-0.7,0.2-0.8,0.5-1c0.9,1,1.8,2,2.7,2.8
	c1.6,1.4,3.1,2.9,4.8,4.2c2.3,1.7,3.1,3.9,2.9,6.6c-0.1,0.8-0.2,1.7-0.3,2.6c2.3,0.7,4.5,1.5,6.9,2.2c-0.1-0.1-0.1-0.2-0.1-0.2
	c-3.1-2.7-4.9-6.1-6-9.9c-0.4-1.4-0.7-2.8-0.7-4.3c0-0.3,0.1-0.5,0.2-0.9c0.3,0.2,0.4,0.3,0.6,0.4c3.6,2.6,7.5,4.6,11.6,6.2
	c3,1.2,4.8,3.4,5.7,6.4c0.6,1.9,0.8,3.7,0.8,5.7c0,0.4,0.1,0.5,0.4,0.6c1.3,0.4,2.6,1,3.9,1.4c0.1,0,0.2,0.1,0.4,0.1
	c-0.1-0.2-0.2-0.3-0.3-0.4c-1.9-2.8-2.9-6-3.3-9.4c-0.1-1.2-0.1-2.3-0.1-3.4c0-0.4,0.2-0.6,0.3-1.1c0.3,0.3,0.4,0.4,0.6,0.5
	c3.3,2.9,6.9,5.5,10.8,7.6c2.6,1.4,4.1,3.6,4.7,6.4c0.4,2,0.4,3.9,0.3,5.9c0,0.3,0.1,0.4,0.3,0.6c1.2,0.8,2.4,1.7,3.6,2.5
	c0.3,0.2,0.4,0.2,0.6,0c1-0.7,1.9-1.3,2.8-2c0.3-0.2,0.4-0.4,0.3-0.7c-0.3-2.5-0.2-5.1,0.7-7.5c0.7-2,2-3.6,3.9-4.6
	c4.2-2.3,8-5,11.6-8.3c0.1,0.3,0.3,0.5,0.3,0.7c0,1.3,0.1,2.8-0.1,4.1c-0.4,2.9-1.3,5.8-2.8,8.3c-0.2,0.3-0.4,0.6-0.5,0.9
	c0,0,0,0-0.1,0.1h0.1c1.4-0.5,2.9-1.1,4.4-1.6c0.1-0.1,0.2-0.3,0.2-0.4c0-2,0.3-4,0.9-5.9c0.5-1.8,1.4-3.4,2.8-4.5
	c0.7-0.5,1.5-1.1,2.3-1.4c4.4-1.9,8.6-4,12.5-6.8c0.1,0,0.1-0.1,0.2-0.1c0.4,0.3,0.3,0.6,0.3,1c-0.2,1.2-0.3,2.2-0.5,3.3
	c-0.9,3.7-2.5,7-5.2,9.8C142.4,149.7,142.1,150,141.7,150.4C141.6,150.4,141.6,150.4,141.7,150.4
	C141.7,150.4,141.7,150.4,141.7,150.4z M47.2,138.4C47.2,138.4,47.3,138.4,47.2,138.4C47.3,138.4,47.3,138.4,47.2,138.4
	c-1.2-2.2-1.9-4.5-1.8-7.1c-0.4,1.6-1.3,2.9-2.5,4.3C44.4,136.5,45.8,137.4,47.2,138.4z M168.7,138.9L168.7,138.9
	c1.5-0.9,2.9-1.9,4.3-2.8c-1.2-1.3-2-2.7-2.5-4.3C170.6,134.3,169.9,136.7,168.7,138.9z M189.4,117.6L189.4,117.6L189.4,117.6
	L189.4,117.6z M110,38.3c0,0.1,0,0.2,0.1,0.2c1.2,0.5,1.8,1.4,1.7,2.7c-0.1,1.2-0.9,2-2,2.4c0.2,1,0.4,1.9,0.6,2.8
	c0.8,3.3,1.6,6.6,3,9.8c0.4,1,0.9,1.9,1.4,2.8c0.3,0.4,0.6,0.9,1.1,1.2c0.6,0.6,1.4,0.8,2.4,0.5c1.1-0.3,2-0.8,2.8-1.5
	c2.9-2.3,5.2-5.2,7.3-8.1c-1-1.1-1.2-2-0.6-2.9c0.5-0.8,1.5-1.2,2.5-0.9c0.9,0.4,1.5,1.2,1.4,2.2c-0.2,1.2-0.9,1.8-2.4,2
	c-0.4,3.2-1,6.5-0.3,9.7c0.2,0.8,0.5,1.5,0.9,2.2c0.5,1,1.5,1.3,2.6,1.4c2,0.2,3.9-0.4,5.8-1.2c1.8-0.7,3.5-1.7,5.1-2.8
	c0.1-0.1,0.2-0.1,0.2-0.2c-0.5-1-0.4-1.8,0.2-2.3c0.5-0.5,1.4-0.5,2-0.1c0.6,0.4,0.9,1.3,0.5,2c-0.4,0.8-1.1,1.1-2.2,0.9
	c-0.2,0.8-0.4,1.5-0.5,2.3c-0.4,2.9-0.7,5.9-1.1,8.7c-0.2,1.4-0.3,2.8-0.4,4.2c-0.2,0-0.3,0-0.4,0c0,15.2,0,30.3,0,45.5
	c-21.6,0-43.3,0-64.8,0c0-0.2,0-0.4,0-0.4c0-15.3,0-30.6,0-45.9c0-0.3-0.1-0.5,0.4-0.5c-0.1-4.1-1.3-12.7-2-13.9
	c-1.1,0.4-1.8,0.1-2.2-0.6c-0.4-0.7-0.3-1.5,0.4-2c0.5-0.5,1.4-0.5,2-0.1c0.7,0.5,0.8,1.3,0.4,2.4c2.8,1.9,5.8,3.6,9.2,4.1
	c0.9,0.1,1.8,0.1,2.6-0.1c1.2-0.2,1.8-1,2.3-2c0.5-1.2,0.8-2.5,0.8-3.8c0.1-2.5-0.2-5.1-0.5-7.6c-0.7,0-1.4-0.2-1.9-0.8
	c-0.3-0.4-0.4-0.9-0.4-1.3c-0.1-1,0.6-1.9,1.6-2c0.9-0.3,1.9,0.2,2.3,1c0.5,1,0.3,2-0.7,2.8c2.1,2.9,4.4,5.8,7.2,8
	c0.8,0.6,1.6,1.1,2.5,1.4c1.2,0.5,2.1,0.3,2.9-0.7c0.5-0.6,1-1.3,1.4-2c1.2-2.2,2-4.5,2.6-6.9c0.6-2.3,1.2-4.5,1.7-6.8
	c0-0.2,0-0.3,0.1-0.4c-1.1-0.3-1.8-0.9-2-2c-0.3-1.2,0.3-2.4,1.4-3c0.1-0.1,0.2-0.2,0.3-0.3C108.9,38.3,109.5,38.3,110,38.3z
	 M81.6,78.1c0.1,0.1,0.2,0.2,0.3,0.3c7.8,7.6,15.5,15.3,23.4,22.9c0.5,0.5,1.2,1.1,1.9,1.4c1.1,0.7,2.3,0.7,3.4,0
	c0.7-0.4,1.4-1,2-1.6c7.7-7.6,15.4-15.1,23.1-22.7c0.1-0.1,0.3-0.2,0.4-0.4l-0.1-0.1C117.7,78.1,99.7,78.1,81.6,78.1z M135.9,118.8
	c-6.2-6.1-12.4-12.2-18.6-18.3c-0.8,0.8-1.6,1.6-2.4,2.3c-1.2,1.1-2.3,2.2-3.7,3c-1,0.5-2,0.9-3.1,0.7c-0.9-0.2-1.7-0.5-2.4-1.1
	c-1.2-0.9-2.3-1.9-3.4-2.8c-0.7-0.7-1.3-1.4-2-2.2c-6.3,6.2-12.4,12.3-18.7,18.4C99.7,118.8,117.7,118.8,135.9,118.8z M79.4,80.2
	c0,12.3,0,24.3,0,36.6c6.2-6.1,12.3-12.2,18.6-18.3C91.9,92.4,85.6,86.3,79.4,80.2z M138,116.7c0-12.3,0-24.3,0-36.5
	c-6.2,6.1-12.3,12.2-18.6,18.3C125.6,104.5,131.7,110.6,138,116.7z"/>
</svg>
