<?xml version="1.0" encoding="utf-8"?>
<!-- Generator: Adobe Illustrator 24.0.1, SVG Export Plug-In . SVG Version: 6.00 Build 0)  -->
<svg version="1.2" baseProfile="tiny-ps" id="Lager_1" xmlns="http://www.w3.org/2000/svg" xmlns:xlink="http://www.w3.org/1999/xlink"
	 viewBox="0 0 652.2 652.2" xml:space="preserve">
	 <title>Schibsted</title>
<rect fill="#F8F6F5" width="652.2" height="652.2"/>
<g>
	<path fill="#31312F" d="M455.74,342.69c-1.72-3.48-4.11-8.5-7.84-13.21c-2.43-3.07-5.85-5.16-9.97-5.16
		c-6.46,0-10.87,4.69-10.87,11.21c0,2.24,0.75,4.27,1.72,6.16c0.53,1.03,1.52,3.07,2.05,4.12c0.34,0.68,0.33,1.37-0.26,1.69
		c-0.69,0.39-1.34,0.05-1.7-0.55c-0.56-0.93-2.3-3.71-2.3-3.71c-2.1-3.28-5.66-5.67-9.84-5.67c-6.61,0-11.76,5.48-11.76,12.03
		c0,1.88,0.46,3.65,1.23,5.23c0.31,0.64,0.9,1.92,1.22,2.55c0.34,0.69,0.35,1.39-0.25,1.75c-0.62,0.38-1.29,0.02-1.66-0.55
		c-0.45-0.69-1.37-2.07-1.85-2.74c-1.98-2.77-5.15-4.44-8.71-4.44c-5.89,0-10.76,4.43-10.76,11.18c0,2.11,0.91,4.75,1.87,6.88
		c4.78,10.59,7.11,20.92,7.11,36.8c0,37.46-29.3,67.83-64.71,67.83c-46.91,0-64.35-36.09-67.7-46.82c-0.4-1.29-1.77-2-3.06-1.61
		l-69.76,21.47c-1.3,0.4-2.05,1.77-1.64,3.07c15.4,49.66,64.53,101.72,141.38,101.72c63.68,0,116.6-42.66,136.01-100.24
		C475.82,415.74,472.09,375.76,455.74,342.69z"/>
	<g>
		<path fill="#31312F" d="M326.22,332.94c-3.75,0-6.77-3.04-6.77-6.77c0-3.75,3.04-6.77,6.77-6.77c3.75,0,6.77,3.04,6.77,6.77
			C332.99,329.92,329.95,332.94,326.22,332.94z"/>
	</g>
	<g>
		<path fill="#31312F" d="M326.22,274.92c-3.75,0-6.77-3.04-6.77-6.77c0-3.75,3.04-6.77,6.77-6.77c3.75,0,6.77,3.04,6.77,6.77
			C332.99,271.9,329.95,274.92,326.22,274.92z"/>
	</g>
	<g>
		<path fill="#31312F" d="M326.22,303.93c-3.75,0-6.77-3.04-6.77-6.77c0-3.75,3.04-6.77,6.77-6.77c3.75,0,6.77,3.04,6.77,6.77
			C332.99,300.91,329.95,303.93,326.22,303.93z"/>
	</g>
	<path fill="#31312F" d="M379.57,336.65c-1.44-1.49-3.39-3.1-5.09-4.28c-3.98-2.76-7.64-5.03-12.03-7.05
		c-2.81-1.29-4.13-1.97-7.59-2.95c-2.58-0.73-5.03-1.05-7.36-0.09c-3.63,1.51-5.64,5.37-4.47,9.56c0.9,3.21,3.49,4.49,6.27,5.82
		c4.45,2.14,6.66,3.28,10.45,5.61c2.95,1.82,5.46,3.49,8.46,5.63c3.55,2.54,8.05,2.95,11.23,0.14
		C383.01,345.88,383.07,340.29,379.57,336.65z"/>
	<path fill="#31312F" d="M403.79,319.72c-4.55-4.65-9.69-8.65-14.66-11.21c-1.65-0.85-2.89-1.46-5.06-1.97
		c-3.21-0.75-6.56,0.23-8.65,2.76c-2.27,2.75-2.5,6.52-0.7,9.59c1.51,2.58,3.5,3.86,5.84,5.56c3.51,2.55,5.94,4.48,9.22,7.24
		c2.13,1.8,3.94,3.74,6.87,4.14c3.79,0.52,7.59-1.47,9.33-4.89C407.84,327.25,406.69,322.68,403.79,319.72z"/>
	<path fill="#31312F" d="M361.38,295.03c-2.05-0.88-3.74-1.57-6.66-2.32c-2.16-0.55-4.75-0.87-6.99-0.35
		c-5.07,1.19-7.48,7.29-4.57,11.63c1.18,1.76,2.72,2.52,4.86,3.28c1.72,0.61,2.99,1.07,5.05,1.82c1.52,0.56,3.27,1.25,4.66,1.52
		c2.51,0.48,5.15-0.31,6.98-2.09C369.02,304.36,367.57,297.69,361.38,295.03z"/>
	<path fill="#31312F" d="M354.35,264.17c-1.12-0.31-2.54-0.62-3.92-0.73c-1.75-0.14-3.73,0.09-5.32,1.17
		c-3.11,2.1-4.16,6.34-2.37,9.65c0.87,1.6,2.34,2.85,4.06,3.46c1.57,0.55,3.39,1.13,5.05,1.32c3.69,0.42,7.19-2,8.12-5.59
		C361.06,269.28,358.49,265.32,354.35,264.17z"/>
	<path fill="#31312F" d="M390.55,276.32c-1.97-1.23-3.71-2.15-5.89-2.97c-2.38-0.9-4.69-1.57-6.98-1.72
		c-5.39-0.36-9.81,4.61-8.85,9.92c0.47,2.58,2.18,4.85,4.53,6.02c1.85,0.93,3.27,1.64,5.27,2.65c1.95,0.99,3.99,2.21,6.11,2.78
		c2.59,0.69,5.41,0.12,7.52-1.52C397.31,287.57,396.25,279.87,390.55,276.32z"/>
	<path fill="#31312F" d="M428.98,304.56c-2.03-2.5-4.06-4.56-6.23-6.47c-2.32-2.03-3.9-3.32-6.65-5.02
		c-2.38-1.47-5.13-2.26-7.99-1.72c-2.91,0.55-5.4,2.62-6.47,5.38c-1.19,3.08-0.49,6.65,1.76,9.05c1.66,1.77,3.18,2.94,5,4.55
		c2.29,2.02,4.49,4.01,6.63,6.2c1.93,1.97,4.03,3.48,6.92,3.59c3.45,0.13,6.73-1.82,8.28-4.9
		C431.96,311.82,431.62,307.8,428.98,304.56z"/>
	<path fill="#31312F" d="M196.7,309.65c1.72,3.48,4.11,8.5,7.84,13.21c2.43,3.07,5.85,5.16,9.97,5.16c6.46,0,10.87-4.69,10.87-11.21
		c0-2.24-0.75-4.27-1.72-6.16c-0.53-1.03-1.52-3.07-2.05-4.12c-0.34-0.68-0.33-1.37,0.26-1.69c0.69-0.39,1.34-0.05,1.7,0.55
		c0.56,0.93,2.3,3.71,2.3,3.71c2.1,3.28,5.66,5.67,9.84,5.67c6.61,0,11.76-5.48,11.76-12.03c0-1.88-0.46-3.65-1.23-5.23
		c-0.31-0.64-0.9-1.92-1.22-2.55c-0.34-0.69-0.35-1.39,0.25-1.75c0.62-0.38,1.29-0.02,1.66,0.55c0.45,0.69,1.37,2.07,1.85,2.74
		c1.98,2.77,5.15,4.44,8.71,4.44c5.89,0,10.76-4.43,10.76-11.18c0-2.11-0.91-4.75-1.87-6.88c-4.78-10.59-7.11-20.92-7.11-36.8
		c0-37.46,29.3-67.83,64.71-67.83c46.91,0,64.35,36.09,67.7,46.82c0.4,1.29,1.77,2,3.06,1.61l69.76-21.47
		c1.3-0.4,2.05-1.77,1.64-3.07c-15.4-49.66-64.53-101.72-141.38-101.72c-63.68,0-116.6,42.66-136.01,100.24
		C176.63,236.59,180.35,276.57,196.7,309.65z"/>
	<g>
		<path fill="#31312F" d="M326.22,377.42c3.75,0,6.77,3.04,6.77,6.77c0,3.75-3.04,6.77-6.77,6.77c-3.75,0-6.77-3.04-6.77-6.77
			C319.45,380.44,322.49,377.42,326.22,377.42z"/>
	</g>
	<g>
		<path fill="#31312F" d="M326.22,348.41c3.75,0,6.77,3.04,6.77,6.77c0,3.75-3.04,6.77-6.77,6.77c-3.75,0-6.77-3.04-6.77-6.77
			C319.45,351.43,322.49,348.41,326.22,348.41z"/>
	</g>
	<path fill="#31312F" d="M272.87,315.69c1.44,1.49,3.39,3.1,5.09,4.28c3.98,2.76,7.64,5.03,12.03,7.05
		c2.81,1.29,4.13,1.97,7.59,2.95c2.58,0.73,5.03,1.05,7.36,0.09c3.63-1.51,5.64-5.37,4.47-9.56c-0.9-3.21-3.49-4.49-6.27-5.82
		c-4.45-2.14-6.66-3.28-10.45-5.61c-2.95-1.82-5.46-3.49-8.46-5.63c-3.55-2.54-8.05-2.95-11.23-0.14
		C269.43,306.46,269.37,312.04,272.87,315.69z"/>
	<path fill="#31312F" d="M248.66,332.62c4.55,4.65,9.69,8.65,14.66,11.21c1.65,0.85,2.89,1.46,5.06,1.97
		c3.21,0.75,6.56-0.23,8.65-2.76c2.27-2.75,2.5-6.52,0.7-9.59c-1.51-2.58-3.5-3.86-5.84-5.56c-3.51-2.55-5.94-4.48-9.22-7.24
		c-2.13-1.8-3.94-3.74-6.87-4.14c-3.79-0.52-7.59,1.47-9.33,4.89C244.6,325.09,245.75,329.66,248.66,332.62z"/>
	<path fill="#31312F" d="M291.07,357.3c2.05,0.88,3.74,1.57,6.66,2.32c2.16,0.55,4.75,0.87,6.99,0.35
		c5.07-1.19,7.48-7.29,4.57-11.63c-1.18-1.76-2.72-2.52-4.86-3.28c-1.72-0.61-2.99-1.07-5.05-1.82c-1.52-0.56-3.27-1.25-4.66-1.52
		c-2.51-0.48-5.15,0.31-6.98,2.09C283.42,347.97,284.87,354.65,291.07,357.3z"/>
	<path fill="#31312F" d="M298.09,388.17c1.12,0.31,2.54,0.62,3.92,0.73c1.75,0.14,3.73-0.09,5.32-1.17c3.11-2.1,4.16-6.34,2.37-9.65
		c-0.87-1.6-2.34-2.85-4.06-3.46c-1.57-0.55-3.39-1.13-5.05-1.32c-3.69-0.42-7.19,2-8.12,5.59
		C291.39,383.06,293.95,387.02,298.09,388.17z"/>
	<path fill="#31312F" d="M261.89,376.01c1.97,1.23,3.71,2.15,5.89,2.97c2.39,0.9,4.69,1.57,6.98,1.72c5.39,0.36,9.81-4.61,8.85-9.92
		c-0.47-2.58-2.18-4.85-4.53-6.02c-1.85-0.93-3.27-1.64-5.27-2.65c-1.95-0.99-3.99-2.21-6.11-2.78c-2.59-0.69-5.41-0.12-7.52,1.52
		C255.13,364.77,256.19,372.46,261.89,376.01z"/>
	<path fill="#31312F" d="M223.46,347.78c2.03,2.5,4.06,4.56,6.23,6.47c2.32,2.03,3.9,3.32,6.65,5.02c2.38,1.47,5.13,2.26,7.99,1.72
		c2.91-0.55,5.4-2.62,6.47-5.38c1.19-3.08,0.49-6.65-1.76-9.05c-1.66-1.77-3.18-2.94-5-4.55c-2.29-2.02-4.49-4.01-6.63-6.2
		c-1.93-1.97-4.03-3.48-6.92-3.59c-3.45-0.13-6.73,1.82-8.28,4.9C220.49,340.52,220.82,344.54,223.46,347.78z"/>
</g>
</svg>
