<?xml version="1.0" encoding="utf-8" standalone="yes"?><!-- Generator: Adobe Illustrator 27.7.0, SVG Export Plug-In . SVG Version: 6.00 Build 0)  --><svg xmlns="http://www.w3.org/2000/svg" xmlns:xlink="http://www.w3.org/1999/xlink" version="1.2" baseProfile="tiny-ps" viewBox="0 0 256 256" xml:space="preserve"><title>Column, N.A.</title><rect fill="#1E4199" width="256" height="256"></rect><path fill="#1B2D70" d="M112,114v32h16c17.7,0,32,14.3,32,32v16H96c-17.7,0-32-14.3-32-32V98c0-17.7,14.3-32,32-32h64  c17.7,0,32,14.3,32,32v16H112z"></path><linearGradient id="SVGID_1_" gradientUnits="userSpaceOnUse" x1="73.3726" y1="73.3726" x2="176" y2="176"><stop offset="0" stop-color="#D4E3F7"></stop><stop offset="1" stop-color="#D4E3F7" stop-opacity="0.7"></stop></linearGradient><path fill="url(#SVGID_1_)" d="M112,112v32h16c17.7,0,32,14.3,32,32v16H96c-17.7,0-32-14.3-32-32V96c0-17.7,14.3-32,32-32h64  c17.7,0,32,14.3,32,32v16H112z"></path><linearGradient id="SVGID_00000020372005212382370810000012311598673927276975_" gradientUnits="userSpaceOnUse" x1="128" y1="64" x2="128" y2="192"><stop offset="0" stop-color="#FFFFFF" stop-opacity="0.25"></stop><stop offset="1" stop-color="#D4E3F7" stop-opacity="0.1"></stop></linearGradient><path fill="url(#SVGID_00000020372005212382370810000012311598673927276975_)" d="M160,66c16.5,0,30,13.5,30,30v14h-78h-2v2v32v2h2  h16c16.5,0,30,13.5,30,30v14H96c-16.5,0-30-13.5-30-30V96c0-16.5,13.5-30,30-30H160 M160,64H96c-17.7,0-32,14.3-32,32v64  c0,17.7,14.3,32,32,32h64v-16c0-17.7-14.3-32-32-32h-16v-32h80V96C192,78.3,177.7,64,160,64L160,64z"></path></svg>