<?xml version="1.0" encoding="utf-8"?>
<!-- Generator: Adobe Illustrator 28.0.0, SVG Export Plug-In . SVG Version: 6.00 Build 0)  -->
<svg version="1.2" baseProfile="tiny-ps" id="Layer_1" xmlns="http://www.w3.org/2000/svg" xmlns:xlink="http://www.w3.org/1999/xlink" viewBox="0 0 1125 514.4" xml:space="preserve">
<title>yellow.ai</title>
<text transform="matrix(1 0 0 1 -1307.5875 1388.8986)" font-family="'STIXGeneral-Regular'" font-size="175.6573px">y</text>
<text transform="matrix(1 0 0 1 -1223.798 1388.8986)" font-family="'STIXGeneral-Regular'" font-size="175.6573px">e</text>
<text transform="matrix(1 0 0 1 -1145.8087 1388.8986)" font-family="'STIXGeneral-Regular'" font-size="175.6573px">l</text>
<text transform="matrix(1 0 0 1 -1096.9762 1388.8986)" font-family="'STIXGeneral-Regular'" font-size="175.6573px">l</text>
<text transform="matrix(1 0 0 1 -1048.1437 1388.8986)" font-family="'STIXGeneral-Regular'" font-size="175.6573px">o</text>
<text transform="matrix(1 0 0 1 -964.1774 1388.8986)" font-family="'STIXGeneral-Regular'" font-size="175.6573px">w</text>
<text transform="matrix(1 0 0 1 -849.2985 1388.8986)" font-family="'STIXGeneral-Regular'" font-size="175.6573px">.</text>
<text transform="matrix(1 0 0 1 -805.3844 1388.8986)" font-family="'STIXGeneral-Regular'" font-size="175.6573px">a</text>
<text transform="matrix(1 0 0 1 -727.3951 1388.8986)" font-family="'STIXGeneral-Regular'" font-size="175.6573px">i</text>
<g>
	<path d="M332.4,221.6c-4.2,0.5-6.3,2.5-8.8,9l-26.3,71.8c-9.1,24.9-17.4,33.9-30.7,33.9c-7.6,0-12.3-4.4-12.3-10.2
		c0-4.4,3.3-8.1,7.6-8.1c3.2,0,6,0.5,9.1,2.3c1.9,1.1,3.5,1.2,4.6,1.2c2.5,0,6-3.5,8.8-7.7c3.5-5.1,7-16.2,7-19
		c0-2.6-4-10.7-7.4-17.7l-23.2-49.5c-1.8-3.9-4.7-5.4-9.3-6.1V219h36v2.6c-7.6,0.4-10,1.6-10,4.7c0,1.9,1.2,4.7,2.3,7.2l19.7,43.9
		l17-48.5c0.5-1.2,0.7-2.5,0.7-3.2c0-2.8-2.6-4.2-8.1-4.2V219h23.4V221.6z"/>
	<path d="M407.2,270.5c-6.9,19.1-19.1,29.3-36.7,29.3c-20.7,0-33.4-15.6-33.4-39.9c0-24.8,14.2-42.7,36.4-42.7
		c10.9,0,18.8,4.2,24.4,12.1c3.5,4.9,5.3,10.5,6,20h-54.1c0.9,13.4,1.8,20.2,8.1,28.6c4.9,6.5,11.4,9.7,19.5,9.7
		c11.8,0,18.4-5.4,27.1-18.4L407.2,270.5z M386,243.8c-1.9-14.2-5.6-20.2-17.2-20.2c-9.8,0-16.7,7-18.6,20.2H386z"/>
	<path d="M414.4,298v-2.6c11.1-0.9,13.5-3.9,13.5-13.5v-82.4c0-8.4-1.8-11.2-7.4-11.2c-1.4,0-3.7,0-6.5,0.4v-2.8
		c12.1-3,18.6-4.7,27.8-7.7l0.9,0.7v104c0,9.7,1.9,11.9,13.2,12.6v2.6H414.4z"/>
	<path d="M463.3,298v-2.6c11.1-0.9,13.5-3.9,13.5-13.5v-82.4c0-8.4-1.8-11.2-7.4-11.2c-1.4,0-3.7,0-6.5,0.4v-2.8
		c12.1-3,18.6-4.7,27.8-7.7l0.9,0.7v104c0,9.7,1.9,11.9,13.2,12.6v2.6H463.3z"/>
	<path d="M551.4,299.8c-21.3,0-37.9-17.4-37.9-41.8c0-24.4,15.8-40.8,39.5-40.8c21.4,0,37.9,16,37.9,40.2
		C591,281.9,575.1,299.8,551.4,299.8z M566.4,230.9c-4.2-5.3-9.1-8.8-16.7-8.8c-12.1,0-20.4,10.4-20.4,27.9c0,13.9,2.8,26.5,9.3,36
		c3.9,5.6,9.5,8.8,15.8,8.8c13,0,20.7-12.3,20.7-32.7C575.1,250.3,572,238.1,566.4,230.9z"/>
	<path d="M714.3,221.6c-3.5,1.2-4.4,2.5-7.2,9.5l-24.2,60.8c-2.8,7-3.7,8.6-4.9,8.6s-1.6-0.9-4.2-7.6l-16-41.5L638,293.7
		c-2.1,4.6-3.5,6.9-4.4,6.9c-1.1,0-2.5-2.3-4.6-7.7l-23.7-60.1c-3.7-9.5-5.3-10.7-9.3-11.1V219h31.6v2.6c-6.1,0.7-8.1,2.1-8.1,5.8
		c0,1.8,0.4,3.5,1.1,5.3l17.4,45.8l16-35l-3.5-9.8c-3.3-9.5-5.6-11.4-12.1-12.1V219H674v2.6c-8.3,1.2-10.2,2.5-10.2,6.1
		c0,3,0.9,5.1,3,10.5l14.8,39.3l15.8-39c1.9-4.7,3-9,3-11.8s-1.8-4-7.7-5.3V219h21.6V221.6z"/>
	<path d="M729.2,300c-5.4,0-9.7-4.2-9.7-9.7s4.4-9.8,9.8-9.8c5.1,0,9.7,4.7,9.7,10C739,295.6,734.5,300,729.2,300z"/>
	<path d="M828.8,291.4c-5.3,6.7-9.8,8.4-15.8,8.4c-6.5,0-10.4-3.5-11.2-12.8h-0.2c-9.3,10.5-17.9,12.8-25.5,12.8
		c-10.9,0-18.4-6.7-18.4-18.3c0-9.1,5.4-16,12.3-20.6c5.3-3.5,11.8-6.9,31.6-14.2v-9.5c0-10.9-5.8-15.8-13.7-15.8
		c-7,0-12.3,3.9-12.3,8.6c0,3.2,1.1,3.7,1.1,7.4c0,3.3-3.5,7.2-8.1,7.2c-3.7,0-7.6-3.3-7.6-8.1c0-4.6,2.8-10.2,9-14.1
		c4.9-3.2,12.3-5.3,20.2-5.3c9.8,0,16.5,2.8,20.7,7.9c4.2,5.1,4.9,8.8,4.9,19.5v33.6c0,8.1,2.3,11.6,5.4,11.6c2.8,0,4.6-0.9,7.6-3.3
		V291.4z M801.6,251c-10.9,3.9-18.1,7.6-22.5,11.6c-4.2,3.9-6,8.1-6,13.5c0,9.3,5.3,13.5,12.1,13.5c3.5,0,7.2-0.9,10.2-2.8
		c5.1-3.5,6.1-6,6.1-11.1V251z"/>
	<path d="M832,298v-2.6c12.1-0.7,13.9-2.3,13.9-15.6v-39.9c0-8.3-1.4-11.1-5.8-11.1c-1.6,0-4.2,0-7.4,0.9v-2.8l27.2-9.7l0.7,0.7
		v61.7c0,13,1.4,14.9,13,15.8v2.6H832z M851.6,196c-4.9,0-8.8-3.9-8.8-9c0-4.9,4-9,9-9c5.1,0,9,4,9,9
		C860.8,192.1,856.9,196,851.6,196z"/>
</g>
</svg>
