<?xml version="1.0" encoding="UTF-8"?><svg xmlns="http://www.w3.org/2000/svg" xmlns:xlink="http://www.w3.org/1999/xlink" version="1.2" viewBox="0 0 1500 1500" baseProfile="tiny-ps"><title>NetBet</title><g><g id="Layer_1_00000041264369956762440730000014888688080370912939_"><g id="Layer_1-2_00000181052613965150662860000009822949810061431482_"><g id="Layer_1-2"><path d="M846.15,697.85h39.4c7.2,0,12.3,1.2,15.4,3.6c3.1,2.4,4.6,6.4,4.6,11.9s-1.8,10.5-5.4,13.5      c-3.6,3-8.9,4.6-15.8,4.6h-38.3v-33.6l0,0H846.15z M846.15,772.25h40c7.8,0,13.5,1.4,17.3,4.1c3.8,2.8,5.7,6.9,5.7,12.5      s-2,11.1-5.8,13.9c-3.9,2.8-10.5,4.2-19.7,4.2h-37.5V772.25L846.15,772.25z M909.95,856.65c25.9,0,44.4-4.3,55.5-13      c11.1-8.6,16.6-22.9,16.6-42.9s-4.5-29.1-13.5-37.3c-9-8.1-23.3-12.7-43-13.6c18.5-1.3,32.1-6.3,40.8-15      c8.6-8.7,13-21.8,13-39.2s-4.7-32.9-14-40.6c-9.3-7.8-26-11.7-49.9-11.7h-148v213.2h142.5L909.95,856.65z" fill="#D91921"></path><path d="M1067.85,720.35c5.2-4.8,13.2-7.2,23.8-7.2c10.6,0,18.5,2.4,23.6,7.2c5.2,4.8,7.9,12.3,8.2,22.3      h-64c0.3-10.1,3-17.5,8.3-22.3H1067.85L1067.85,720.35z M1178.35,795.55c-14.1,4.2-27.4,7.4-39.8,9.5c-12.4,2.1-24,3.1-34.8,3.1      s-23.8-2.1-30.9-6.4c-7.1-4.3-11.3-10.9-12.5-19.9h122.9c0.6-5.5,1-10.7,1.3-15.7c0.3-4.9,0.5-9.7,0.5-14.2      c0-31.3-7.5-53.8-22.6-67.5s-39.7-20.6-74.1-20.6s-62.1,7.3-77.9,21.8c-15.8,14.5-23.8,38.3-23.8,71.4s7.9,59.6,23.7,75.6      c15.8,16,40.7,24,74.6,24s27.9-1.2,42.2-3.6c14.3-2.4,28.9-5.9,44-10.7L1178.35,795.55L1178.35,795.55L1178.35,795.55z" fill="#D91921"></path><path d="M1343.75,805.05c-6.9,1-12.7,1.7-17.2,2.1c-4.6,0.4-8.6,0.6-11.9,0.7c-7.3,0-12.6-1.3-16-3.8      s-5.1-6.4-5.1-11.7v-55.2h52.6v-59.2h-52.6v-34.6h-41.9c-9.9,10.7-19.9,20.8-29.9,30.4s-20.2,18.7-30.4,27.2v36.3h24.7v71.2      c0,17.6,4.3,30,13,37.3s23.6,10.9,44.7,10.9s23.3-0.6,34.7-1.8c11.3-1.2,22.3-2.9,33.1-5.1L1343.75,805.05L1343.75,805.05      L1343.75,805.05z" fill="#D91921"></path><path d="M224.55,722.45c2.9,9.4,6.2,19,10,28.8s7.9,19.6,12.5,29.6l34.5,75.8h81.8v-213.3h-72.7v39.1      c0,15,0.4,28.6,1.1,40.6s1.9,23.1,3.5,33.4h-2.7c-4.3-12.8-8.2-24-11.8-33.5c-3.6-9.5-6.9-17.7-10-24.7l-24.3-54.9h-92.6v213.2      h72.9v-56.9c0-15.5-0.4-29.6-1.2-42.4c-0.8-12.8-2-24.4-3.6-34.9h2.6l0,0L224.55,722.45z" fill="#0E3358"></path><path d="M453.45,720.35c5.2-4.8,13.2-7.2,23.8-7.2s18.4,2.4,23.6,7.2s7.9,12.3,8.2,22.3h-64      c0.3-10.1,3-17.5,8.3-22.3H453.45z M564.05,795.55c-14.1,4.2-27.4,7.4-39.8,9.5c-12.4,2.1-24,3.1-34.8,3.1s-23.8-2.1-30.9-6.4      c-7.1-4.3-11.3-10.9-12.5-19.9h122.9c0.6-5.5,1-10.7,1.3-15.7c0.3-4.9,0.5-9.7,0.5-14.2c0-31.3-7.5-53.8-22.6-67.5      c-15.1-13.7-39.7-20.6-74.1-20.6s-62.1,7.3-77.9,21.8c-15.9,14.5-23.8,38.3-23.8,71.4s7.9,59.6,23.7,75.6s40.7,24,74.6,24      s27.9-1.2,42.1-3.6c14.3-2.4,28.9-5.9,44-10.7l7.1-46.8L564.05,795.55L564.05,795.55L564.05,795.55z" fill="#0E3358"></path><path d="M730.25,805.05c-6.9,1-12.7,1.7-17.3,2.1c-4.6,0.4-8.6,0.6-11.9,0.7c-7.3,0-12.6-1.3-16-3.8      s-5-6.4-5-11.7v-55.2h52.6v-59.2h-52.6v-34.6h-41.9c-9.9,10.7-19.9,20.8-30,30.4c-10,9.6-20.2,18.7-30.4,27.2v36.3h24.7v71.2      c0,17.6,4.4,30,13,37.3c8.7,7.3,23.6,10.9,44.8,10.9s23.3-0.6,34.6-1.8s22.3-2.9,33.1-5.1l2.2-44.7H730.25L730.25,805.05z" fill="#0E3358"></path></g></g></g></g></svg>