<?xml version="1.0" encoding="iso-8859-1"?>
<!-- Generator: Adobe Illustrator 27.9.0, SVG Export Plug-In . SVG Version: 6.00 Build 0)  -->
<svg version="1.2" baseProfile="tiny-ps" id="Layer_1" xmlns="http://www.w3.org/2000/svg" xmlns:xlink="http://www.w3.org/1999/xlink"
	 viewBox="0 0 260 260" xml:space="preserve">
<title>Tailwind</title>
<path fill="#FEFEFE" d="M-32.41,129.488c0-53.11,0.038-106.221-0.09-159.331c-0.008-3.318,0.519-4.149,4.026-4.145
	C77.104-33.863,182.681-33.858,288.258-34c3.809-0.005,4.237,1.052,4.234,4.437c-0.096,106.387-0.098,212.775,0.008,319.162
	c0.003,3.474-0.55,4.405-4.273,4.4c-105.577-0.134-211.154-0.132-316.731-0.003c-3.569,0.004-3.999-0.925-3.991-4.178
	C-32.376,236.376-32.41,182.932-32.41,129.488z M186.003,168.696c0.879-2.154,1.413-3.274,1.801-4.443
	c4.061-12.234,7.852-24.566,12.279-36.664c1.518-4.149,1.259-5.423-3.231-6.776c-17.265-5.204-29.745-16.278-36.923-32.908
	c-4.433-10.271-4.821-20.831,1.267-30.613c11.409-18.33,34.1-18.741,48.933-5.062c14.507,13.379,20.588,30.4,17.591,50.301
	c-0.226,1.501-0.611,3.178,2.078,3.548c8.226,1.133,16.478,0.786,24.724,0.997c3.01,0.077,3.452-1.477,2.931-3.681
	c-1.2-5.071-2.277-10.209-3.99-15.114c-8.376-23.987-22.263-44.078-42.081-60.117c-23.836-19.291-51.299-28.392-81.515-28.67
	c-12.285-0.113-24.592,1.801-36.675,5.353C64.523,13.273,41.901,29.938,24.3,53.729C10.894,71.849,2.991,92.477,0.762,114.768
	c-1.327,13.269-0.994,26.762,1.542,40.175c4.279,22.628,13.809,42.675,28.657,59.89c18.825,21.826,42.277,36.515,70.804,42.424
	c23.618,4.892,47.049,4.16,69.895-3.493c24.026-8.049,44.093-22.194,59.896-42.217c17.917-22.701,27.894-48.277,27.973-77.45
	c0.021-7.904-0.121-8.052-8.327-8.083c-8.8-0.034-17.607,0.193-26.395-0.135c-2.66-0.099-3.399,0.483-4.258,2.925
	c-7.473,21.231-15.218,42.366-22.704,63.592c-0.918,2.604-1.983,3.747-4.795,3.618c-4.474-0.206-8.97-0.202-13.444-0.001
	c-2.774,0.124-3.972-0.869-4.848-3.559c-4.146-12.721-8.485-25.38-12.908-38.007c-2.24-6.395-3.714-13.101-7.25-19.892
	c-6.054,18.113-11.818,35.369-17.589,52.622c-2.938,8.785-2.943,8.783-12.023,8.783c-2.657,0-5.357-0.301-7.958,0.079
	c-3.015,0.44-3.926-1.171-4.775-3.506c-7.687-21.154-15.441-42.284-23.139-63.435c-0.739-2.032-1.606-3.306-4.173-3.16
	c-4.469,0.254-8.964,0.147-13.444,0.039c-2.169-0.052-3.338,0.342-3.317,2.948c0.106,13.155-0.055,26.312,0.099,39.466
	c0.062,5.318,4.623,10.087,9.273,10.605c4.147,0.462,9.835-2.16,12.057,1.308c1.975,3.082,0.494,8.393,0.536,12.72
	c0.005,0.5-0.053,1.006,0.008,1.498c0.313,2.495-0.525,3.59-3.261,3.491c-5.306-0.192-10.672,0.401-15.928-0.147
	c-13.033-1.357-22.621-8.56-22.659-23.944c-0.036-14.654-0.033-29.309,0.017-43.963c0.008-2.362,0.06-4.129-3.263-4.041
	c-3.745,0.099-8.731,1.763-10.962-0.759c-2.361-2.669-0.275-7.666-0.803-11.581c-0.631-4.681,1.209-5.863,5.683-5.662
	c7.837,0.352,10.137-2.323,10.36-10.213c0.135-4.763-2.194-11.418,0.956-13.781c3.233-2.426,9.527-0.616,14.463-0.938
	c3.015-0.196,3.592,1.101,3.518,3.775c-0.162,5.824,0.137,11.664-0.123,17.481c-0.143,3.212,1.03,3.893,3.984,3.841
	c9.461-0.168,18.928,0.005,28.391-0.109c2.305-0.028,3.329,0.592,4.093,2.953c3.311,10.242,6.96,20.375,10.426,30.568
	c2.975,8.749,5.868,17.526,9.083,27.148c0.926-1.944,1.499-2.891,1.846-3.916c4.704-13.907,9.339-27.837,14.075-41.733
	c1.68-4.929,2.254-11.736,5.752-14.131c3.662-2.506,10.232-0.74,15.53-0.84c0.166-0.003,0.333,0.009,0.498-0.001
	c2.215-0.133,3.414,0.48,4.212,3.01c3.043,9.643,6.501,19.155,9.827,28.708C179.122,149.078,182.403,158.412,186.003,168.696z
	 M208.493,104.141c0.259-5.484,0.928-10.415,0.278-15.469c-1.143-8.897-9.62-23.708-19.152-25.938
	c-4.433-1.037-7.531,0.391-10.167,2.726c-2.591,2.295-4.074,5.845-3.056,9.647C180.815,91.606,192.696,99.749,208.493,104.141z"/>
<path fill="#3B95D7" d="M186.003,168.696c-3.6-10.284-6.881-19.617-10.135-28.961c-3.326-9.553-6.784-19.065-9.827-28.708
	c-0.798-2.53-1.997-3.143-4.212-3.01c-0.165,0.01-0.332-0.002-0.498,0.001c-5.299,0.1-11.868-1.666-15.53,0.84
	c-3.498,2.394-4.072,9.202-5.752,14.131c-4.736,13.896-9.372,27.826-14.075,41.733c-0.347,1.025-0.92,1.972-1.846,3.916
	c-3.216-9.622-6.109-18.399-9.083-27.148c-3.466-10.193-7.115-20.325-10.426-30.568c-0.763-2.361-1.787-2.981-4.093-2.953
	c-9.463,0.114-18.93-0.058-28.391,0.109c-2.953,0.052-4.127-0.63-3.984-3.841c0.26-5.817-0.039-11.657,0.123-17.481
	c0.074-2.674-0.503-3.972-3.518-3.775c-4.936,0.321-11.23-1.488-14.463,0.938c-3.15,2.363-0.821,9.018-0.956,13.781
	c-0.224,7.89-2.523,10.565-10.36,10.213c-4.474-0.201-6.314,0.981-5.683,5.662c0.528,3.916-1.558,8.912,0.803,11.581
	c2.231,2.522,7.217,0.858,10.962,0.759c3.323-0.088,3.271,1.679,3.263,4.041c-0.05,14.654-0.054,29.309-0.017,43.963
	c0.038,15.384,9.626,22.587,22.659,23.944c5.257,0.547,10.622-0.045,15.928,0.147c2.736,0.099,3.574-0.996,3.261-3.491
	c-0.062-0.492-0.003-0.998-0.008-1.498c-0.043-4.327,1.439-9.637-0.536-12.72c-2.222-3.468-7.909-0.846-12.057-1.308
	c-4.65-0.518-9.211-5.287-9.273-10.605c-0.154-13.154,0.007-26.311-0.099-39.466c-0.021-2.607,1.148-3.001,3.317-2.948
	c4.48,0.108,8.976,0.215,13.444-0.039c2.568-0.146,3.434,1.128,4.173,3.16c7.698,21.151,15.452,42.281,23.139,63.435
	c0.849,2.335,1.76,3.946,4.775,3.506c2.602-0.379,5.302-0.079,7.958-0.079c9.08,0,9.085,0.002,12.023-8.783
	c5.771-17.253,11.535-34.508,17.589-52.622c3.536,6.791,5.01,13.497,7.25,19.892c4.423,12.627,8.763,25.287,12.908,38.007
	c0.877,2.69,2.075,3.683,4.848,3.559c4.474-0.2,8.971-0.205,13.444,0.001c2.812,0.129,3.877-1.014,4.795-3.618
	c7.486-21.227,15.231-42.361,22.704-63.592c0.86-2.442,1.598-3.024,4.258-2.925c8.788,0.328,17.595,0.101,26.395,0.135
	c8.206,0.031,8.348,0.179,8.327,8.083c-0.078,29.174-10.055,54.75-27.973,77.45c-15.803,20.022-35.87,34.168-59.896,42.217
	c-22.847,7.654-46.277,8.386-69.895,3.493c-28.527-5.909-51.979-20.598-70.804-42.424c-14.848-17.216-24.379-37.263-28.657-59.89
	c-2.536-13.413-2.869-26.906-1.542-40.175C2.991,92.477,10.894,71.849,24.3,53.729C41.901,29.938,64.523,13.273,93.193,4.846
	c12.083-3.552,24.39-5.466,36.675-5.353c30.216,0.279,57.679,9.379,81.515,28.67c19.818,16.039,33.705,36.13,42.081,60.117
	c1.713,4.905,2.791,10.043,3.99,15.114c0.521,2.203,0.078,3.758-2.931,3.681c-8.246-0.211-16.499,0.136-24.724-0.997
	c-2.689-0.37-2.305-2.047-2.078-3.548c2.997-19.901-3.084-36.922-17.591-50.301c-14.833-13.68-37.524-13.268-48.933,5.062
	c-6.088,9.782-5.7,20.342-1.267,30.613c7.178,16.63,19.659,27.704,36.923,32.908c4.49,1.353,4.749,2.627,3.231,6.776
	c-4.427,12.098-8.218,24.431-12.279,36.664C187.416,165.422,186.882,166.542,186.003,168.696z"/>
<path fill="#3B95D7" d="M208.493,104.141c-15.797-4.391-27.679-12.535-32.097-29.034c-1.018-3.802,0.465-7.352,3.056-9.647
	c2.636-2.335,5.734-3.763,10.167-2.726c9.532,2.23,18.009,17.041,19.152,25.938C209.421,93.726,208.753,98.657,208.493,104.141z"/>
</svg>
