<?xml version="1.0" encoding="utf-8"?>
<!-- Generator: Adobe Illustrator 28.3.0, SVG Export Plug-In . SVG Version: 6.00 Build 0)  -->
<svg version="1.2" baseProfile="tiny-ps" id="Layer_1" xmlns="http://www.w3.org/2000/svg" xmlns:xlink="http://www.w3.org/1999/xlink"
	 viewBox="0 0 500 500" xml:space="preserve">
	 <title>Stepps</title>
<rect x="-0.5" y="0" fill="#303A4C" width="500" height="500"/>
<g>
	<path fill="#FFFFFF" d="M427.2,247.9c-2.5-2.7-6.5-4.7-11.9-6.3c-4-1.1-7.2-2-9.6-2.9c-2.4-0.8-3.5-2.1-3.5-3.9
		c0-1.2,0.6-2.3,1.7-2.9c1.7-0.8,3.6-1.2,5.5-1.1c2.6-0.1,5.2,0.4,7.6,1.3c2.1,0.8,4.1,1.9,6,3.1l7-10.8c-2.9-2-6.1-3.5-9.5-4.5
		c-3.9-1.1-7.9-1.6-11.9-1.5c-3,0-6,0.4-8.9,1.2c-2.6,0.7-5,1.9-7.2,3.4c-1.9,1.4-3.5,3.1-4.6,5.1c1.8,2.5,3.2,5.3,4.1,8.3
		c1,3.3,1.5,6.7,1.5,10.2c0,0.3,0,0.7,0,1c1,0.7,2.1,1.2,3.2,1.7c1.9,0.9,3.9,1.6,6,2.1c2.5,0.7,4.6,1.3,6.2,1.8
		c1.3,0.4,2.6,0.9,3.8,1.5c0.8,0.4,1.4,0.9,1.9,1.6c0.3,0.6,0.5,1.2,0.5,1.9c0.1,1.6-0.9,3-2.4,3.5c-1.9,0.7-4,1-6,0.9
		c-2.8,0-5.6-0.6-8.3-1.6c-2.4-0.9-4.7-2.1-6.6-3.8c-0.3,0.7-0.5,1.5-0.8,2.2c-1.5,3.4-3.7,6.5-6.5,9c2.7,2.3,5.9,4.1,9.4,5.1
		c4.4,1.3,9,2,13.6,1.9c2.9,0,5.9-0.3,8.7-1c2.7-0.6,5.3-1.7,7.6-3.1c2.1-1.3,4-3.2,5.3-5.3c1.4-2.3,2.1-5,2-7.6
		C431.1,254.7,429.8,250.8,427.2,247.9z"/>
	<path fill="#FFFFFF" d="M280,220h15.7c0.1,1,0.3,2,0.3,2.9c0.1,1,0.1,1.9,0.2,2.9c1.8-2.2,4.1-4,6.7-5.1c2.7-1.2,5.6-1.8,8.5-1.8
		c3.6-0.1,7.1,0.7,10.3,2.3c2.9,1.5,5.4,3.6,7.4,6.1c2,2.6,3.5,5.6,4.4,8.8c1,3.3,1.5,6.7,1.5,10.2c0.1,4.4-0.8,8.8-2.5,12.9
		c-1.5,3.4-3.7,6.5-6.5,9c-2.6,2.4-5.7,4.2-9,5.3c-3.2,1.1-6.5,1.7-9.9,1.7c-2.1,0.1-4.3-0.2-6.4-0.7c-1.7-0.5-3.2-0.9-4.6-1.3v23.1
		H280V220z M296.3,259.3c2.1,1.4,5.3,2.2,9.5,2.2c3.6,0.2,7.1-1.3,9.5-4c2.4-3,3.7-6.9,3.5-10.8c0-1.7-0.2-3.5-0.6-5.1s-1-3-1.9-4.4
		c-0.9-1.3-2.1-2.3-3.4-3c-1.6-0.8-3.4-1.2-5.2-1.1c-1.7,0-3.3,0.3-4.8,1c-1.4,0.6-2.6,1.6-3.5,2.7c-1,1.1-1.7,2.5-2.2,3.9
		s-0.7,2.9-0.7,4.4L296.3,259.3z"/>
	<path fill="#FFFFFF" d="M352.9,259.3c2.1,1.4,5.3,2.2,9.5,2.2c3.6,0.2,7.1-1.3,9.5-4c2.4-3,3.7-6.9,3.5-10.8c0-1.7-0.2-3.5-0.6-5.1
		s-1-3-1.9-4.4c-0.9-1.3-2.1-2.3-3.4-3c-1.6-0.8-3.4-1.2-5.2-1.1c-1.7,0-3.3,0.3-4.8,1c-1.4,0.6-2.6,1.6-3.5,2.7
		c-1,1.1-1.7,2.5-2.2,3.9s-0.7,2.9-0.7,4.4L352.9,259.3z M336.6,220h15.7c0.1,1,0.3,2,0.3,2.9c0.1,1,0.1,1.9,0.2,2.9
		c1.8-2.2,4.1-4,6.7-5.1c2.7-1.2,5.6-1.8,8.5-1.8c3.6-0.1,7.1,0.7,10.3,2.3c2.9,1.5,5.4,3.6,7.4,6.1c2,2.6,3.5,5.6,4.4,8.8
		c1,3.3,1.5,6.7,1.5,10.2c0.1,4.4-0.8,8.8-2.5,12.9c-1.5,3.4-3.7,6.5-6.5,9c-2.6,2.4-5.7,4.2-9,5.3c-3.2,1.1-6.5,1.7-9.9,1.7
		c-2.1,0.1-4.3-0.2-6.4-0.7c-1.7-0.5-3.2-0.9-4.6-1.3v23.1h-16.3V220H336.6z"/>
	<path fill="#FFFFFF" d="M277.1,267.6c-0.6,0.4-1.5,1-2.7,1.9c-1.5,1-3.1,1.9-4.7,2.6c-2.2,0.9-4.5,1.7-6.9,2.2c-3,0.7-6.1,1-9.1,1
		c-4.2,0.1-8.4-0.7-12.3-2.1c-3.5-1.3-6.6-3.3-9.3-5.9c-2.6-2.6-4.6-5.6-5.8-9.1c-1.4-3.7-2-7.7-2-11.7c0-3.7,0.6-7.3,1.9-10.8
		c1.2-3.3,3-6.4,5.4-9.1c2.4-2.6,5.4-4.7,8.7-6.2c3.7-1.6,7.6-2.4,11.6-2.3c3.9-0.1,7.8,0.7,11.4,2.3c3.2,1.5,6,3.6,8.3,6.3
		c2.3,2.9,4,6.1,5.1,9.7c1.2,4,1.8,8.2,1.7,12.4v2.8h-38.1c0.1,3,1.5,5.7,3.8,7.6c2.5,2.2,5.9,3.2,10.2,3.2
		c3.6,0.1,7.1-0.5,10.4-1.9c2-0.9,4-2,5.8-3.3L277.1,267.6z M262.7,241.1c0-1.2-0.2-2.4-0.7-3.5c-0.5-1.2-1.2-2.3-2.1-3.3
		c-1-1-2.1-1.9-3.4-2.5c-1.5-0.7-3.2-1-4.9-1s-3.4,0.3-5,1c-1.3,0.6-2.6,1.4-3.6,2.5c-0.9,0.9-1.6,2-2.2,3.2
		c-0.5,1.1-0.7,2.3-0.7,3.5L262.7,241.1z"/>
	<path fill="#FFFFFF" d="M222,261.2c-1.4,0.6-2.8,0.9-4.3,0.9c-1.9,0.2-3.7-0.6-4.8-2.1c-1.1-1.8-1.7-3.9-1.5-6v-21.1h13.8V220
		h-13.8v-16.2H195V220l0,0v12.9l0,0V253c0,3.1,0.3,6.1,1,9.1c0.6,2.6,1.8,5,3.4,7c1.7,2,3.8,3.6,6.3,4.6c3,1.2,6.3,1.7,9.6,1.6
		c6.1,0,12-2.1,16.7-6c-2.8-2.9-5.1-6.3-6.8-10C224.1,260.1,223.1,260.7,222,261.2z"/>
	<path fill="#FFFFFF" d="M153.6,256.9c2,1.8,4.4,3.1,6.9,4c2.6,1,5.4,1.6,8.3,1.6c2.1,0.1,4.1-0.2,6-0.9c1.5-0.5,2.5-1.9,2.4-3.5
		c0-0.7-0.2-1.3-0.5-1.9c-0.5-0.7-1.1-1.2-1.9-1.6c-1.2-0.6-2.5-1.1-3.8-1.5c-1.6-0.5-3.7-1.1-6.2-1.8c-2.1-0.5-4.1-1.2-6.1-2.1
		c-1.9-0.8-3.7-1.9-5.3-3.2s-2.8-2.9-3.8-4.7c-1-2-1.5-4.2-1.4-6.4c0-2.4,0.6-4.7,1.7-6.8c1.2-2.1,2.8-3.8,4.7-5.2
		c2.2-1.6,4.6-2.7,7.2-3.4c2.9-0.8,5.9-1.2,8.9-1.2c4-0.1,8.1,0.4,11.9,1.5c3.4,1,6.6,2.5,9.5,4.5l-7,10.8c-1.9-1.2-3.9-2.2-6-3.1
		c-2.4-0.9-5-1.4-7.6-1.3c-1.9-0.1-3.8,0.2-5.5,1.1c-1.1,0.6-1.7,1.7-1.7,2.9c0,1.8,1.2,3,3.5,3.9c2.3,0.8,5.5,1.8,9.6,2.8
		c5.5,1.5,9.5,3.6,11.9,6.3c2.6,2.9,3.9,6.7,3.7,10.6c0,2.7-0.7,5.3-2,7.6c-1.3,2.1-3.2,4-5.3,5.3c-2.4,1.5-4.9,2.5-7.6,3.1
		c-2.9,0.7-5.8,1-8.7,1c-4.6,0-9.2-0.6-13.6-1.9c-3.9-1.1-7.5-3.1-10.4-5.9L153.6,256.9z"/>
	<circle fill="#8DC63F" cx="76.6" cy="271.4" r="6.4"/>
	<circle fill="#8DC63F" cx="94.9" cy="271.4" r="6.4"/>
	<circle fill="#8DC63F" cx="113.3" cy="271.4" r="6.4"/>
	<circle fill="#8DC63F" cx="76.6" cy="289.8" r="6.4"/>
	<circle fill="#8DC63F" cx="113.3" cy="289.8" r="6.4"/>
	<circle fill="#8DC63F" cx="76.6" cy="253.1" r="6.4"/>
	<circle fill="#8DC63F" cx="94.9" cy="253.1" r="6.4"/>
	<circle fill="#8DC63F" cx="113.3" cy="253.1" r="6.4"/>
	<circle fill="#8DC63F" cx="58.2" cy="253.1" r="6.4"/>
	<circle fill="#8DC63F" cx="131.7" cy="253.1" r="6.4"/>
	<circle fill="#8DC63F" cx="76.6" cy="234.7" r="6.4"/>
	<circle fill="#8DC63F" cx="94.9" cy="234.7" r="6.4"/>
	<circle fill="#8DC63F" cx="94.9" cy="216.4" r="8"/>
	<circle fill="#8DC63F" cx="113.3" cy="234.7" r="6.4"/>
	<path id="_8" fill="#FFFFFF" d="M439.6,211.4c-4.2,0-7.6,3.4-7.6,7.6c0,4.2,3.4,7.6,7.6,7.6s7.6-3.4,7.6-7.6l0,0
		C447.2,214.8,443.8,211.4,439.6,211.4z M439.6,225.3c-3.5,0-6.4-2.8-6.4-6.3s2.8-6.4,6.3-6.4s6.4,2.8,6.4,6.3l0,0
		C446,222.5,443.1,225.3,439.6,225.3z M441.7,219.9c-0.3-0.3-0.5-0.5-0.8-0.7c0.6,0,1.1-0.3,1.6-0.7c0.4-0.4,0.5-0.9,0.5-1.5
		c0-0.4-0.1-0.9-0.3-1.2c-0.2-0.3-0.5-0.6-0.9-0.8c-0.6-0.2-1.2-0.2-1.8-0.2h-3.4v8h1.6v-3.3h0.3c0.3,0,0.5,0,0.8,0.1
		c0.2,0.1,0.3,0.2,0.5,0.3c0.3,0.4,0.6,0.8,0.8,1.2l1.2,1.7h1.9l-1-1.6C442.4,220.7,442,220.3,441.7,219.9z M439.2,218.1H438v-2h1.2
		c0.7,0,1,0,1.2,0s0.4,0.1,0.6,0.3c0.1,0.2,0.2,0.4,0.2,0.7c0,0.2,0,0.4-0.2,0.6c-0.1,0.2-0.3,0.3-0.5,0.3
		C440.2,218.1,439.7,218.1,439.2,218.1z"/>
</g>
</svg>
