<?xml version="1.0" encoding="UTF-8"?>
<svg id="Layer_1" xmlns="http://www.w3.org/2000/svg" baseProfile="tiny-ps" version="1.2" viewBox="0 0 500 500">
  <!-- Generator: Adobe Illustrator 29.0.0, SVG Export Plug-In . SVG Version: 2.1.0 Build 186)  -->
  <title>Listd</title>
  <rect x="-1.2" y="-1.2" width="501" height="501" fill="#080b1d"/>
  <g>
    <rect x="37.4" y="188.1" width="30.9" height="119.5" fill="#fff"/>
    <path d="M82.7,307.5h30.9v-89.8h-30.9v89.8ZM82.2,206.8h32v-18.7h-32v18.7Z" fill="#fff"/>
    <g>
      <path d="M154.6,278.6c.7,7.4,6.8,13.3,18.4,13.3s14-3.2,14-8.4-1.6-8.3-12-9.5l-19-2.2c-17.4-2-26.8-11.3-26.8-26.9s18.4-30,42.4-30,42,8.4,43.8,29.4h-28c-.9-7-5.8-11.1-15.6-11.1s-14.4,3.8-14.4,8.8,2.2,7.2,10.6,8.1l18.5,1.8c21.2,2.2,30,10.8,30,28s-10.6,30.5-44,30.5-45.1-15.3-45.8-31.8h28-.1Z" fill="#fff"/>
      <path d="M271.8,307.6c-27.5,0-36.1-12.2-36.1-35.4v-31.3h-15.8v-14.4l18.3-8.1,12.8-22.5h15.6v21.7h24.4v23.2h-24.4v42.2h21.6v24.4h-16.3v.2h-.1Z" fill="#fff"/>
      <path d="M371.2,188.1h30.9v119.5h-30.9v-12.2c-6.3,9.5-16.3,15.1-31.4,15.1-29.6,0-41.3-22.3-41.3-48s11.7-47.6,41.3-47.6,25.2,5.6,31.4,15.1v-41.9ZM371.2,262.6c0-16-5.4-23.7-21.2-23.7s-20.5,7-20.5,23.7,5.2,23.7,20.5,23.7,21.2-7.7,21.2-23.7" fill="#fff"/>
      <path d="M461.1,283.6c0,13.2-10.7,24-24,24s-24-10.7-24-24,10.7-24,24-24,24,10.7,24,24" fill="#49c98a"/>
    </g>
  </g>
</svg>