<?xml version="1.0" encoding="UTF-8" standalone="yes"?>
<svg version="1.2" baseProfile="tiny-ps" width="612px" height="612px" viewBox="0 90.254 612 612" xml:space="preserve" xmlns="http://www.w3.org/2000/svg">
  <title>Hathaway Dinwiddie Construction Company</title>
  <g>
    <circle fill="none" cx="306" cy="396" r="305.745"/>
    <polygon fill="#00305F" points="221.313,567.111 262.815,608.563 518.563,608.563 477.057,567.111 &#x9;"/>
    <polygon fill="#2B558C" points="477.057,311.304 518.563,352.815 518.563,608.563 477.057,567.111 &#x9;"/>
    <polygon fill="#FDB913" points="221.313,311.304 349.186,311.304 349.186,183.438 93.438,183.438 93.438,439.186 221.313,439.186 &#x9;&#xA;&#x9;&#x9;"/>
    <polygon fill="#003D79" points="349.186,439.186 221.313,439.186 221.313,567.111 477.057,567.111 477.057,311.304 &#xA;&#x9;&#x9;349.186,311.304 &#x9;"/>
    <polygon fill="#FFC54E" points="390.697,311.304 390.697,224.944 349.186,183.438 349.186,311.304 &#x9;"/>
    <polygon fill="#BB8A0B" points="221.313,439.186 221.313,439.186 93.438,439.186 134.95,480.687 221.313,480.687 &#x9;"/>
    <polygon fill="#FFC54E" points="221.313,439.186 262.815,439.186 262.815,352.815 221.313,311.304 221.313,439.186 &#x9;"/>
    <polygon fill="#DBA111" points="349.186,352.815 349.186,311.304 221.313,311.304 262.815,352.815 &#x9;"/>
  </g>
</svg>