<?xml version="1.0" encoding="UTF-8" standalone="yes"?>
<svg version="1.2" baseProfile="tiny-ps" viewBox="0 0 780 780" xml:space="preserve" xmlns="http://www.w3.org/2000/svg">
  <title>bimi-svg-tiny-12-ps</title>
  <g>
    <g>
      <path fill="#0202EA" d="M511.3,349.2c6.2,6.2,14,9.1,22.2,9.1c8.1,0,16-3,22.2-9.1l111.6-111.6c12.1-12.1,12.1-32,0-44.1&#xA;&#x9;&#x9;&#x9;c-12.1-12.1-32-12.1-44.1,0L511.6,305.2C499,317.5,499,337.2,511.3,349.2z"/>
      <path fill="#0202EA" d="M612,402.4c-11.8-11.8-30.5-12.1-42.9-1.2L408.6,562c-9.1,9.1-23.6,9.1-32.8,0c-9.1-9.1-9.1-23.6,0-32.8&#xA;&#x9;&#x9;&#x9;l57.4-57.4v-0.2l59.8-59.8c12.1-12.1,12.1-32,0-44.1s-32-12.1-44.1,0l-35,35l0,0l-5.7,5.7c-9.1,9.1-23.6,9.1-32.5,0&#xA;&#x9;&#x9;&#x9;s-8.9-23.6,0-32.5l24.1-23.9l0,0l115-115c12.1-12.1,12.1-32,0-44.1c-12.1-12.1-32-12.1-44.1,0l-67.5,67.5&#xA;&#x9;&#x9;&#x9;c-6.2,5.9-14,9.1-21.9,9.1c-7.6,0-15-2.7-20.9-8.1l-64.3-64.3c-54.7-54.7-143.8-54.7-198.7,0c-26.6,26.6-41.1,61.8-41.1,99.2&#xA;&#x9;&#x9;&#x9;s14.5,72.9,41.1,99.2l260.3,260.3c0.2,0.2,0.5,0.5,0.7,1c6.2,6.2,14,9.1,22.2,9.1c7.9,0,16-3,22.2-9.1l209.6-209.6&#xA;&#x9;&#x9;&#x9;C624.4,434.5,624.4,414.8,612,402.4z"/>
      <ellipse fill="#0202EA" cx="648.5" cy="358.6" rx="31" ry="31"/>
    </g>
    <g>
      <g>
        <path fill="#626366" d="M737.4,244.1c0,10.1-8.4,18.2-18.5,18.2c-10.6,0-18.7-8.4-18.7-18.2c0-10.1,8.1-18.2,18.7-18.2&#xA;&#x9;&#x9;&#x9;&#x9;C729,225.9,737.4,234,737.4,244.1z M733,244.1c0-7.9-6.2-14.3-14-14.3c-8.1,0-14.3,6.2-14.3,14.3c0,7.9,6.2,14.3,14.3,14.3&#xA;&#x9;&#x9;&#x9;&#x9;C726.6,258.4,733,252,733,244.1z M726.8,241.1c0,2.7-2,4.7-5.4,5.2l5.7,6.4h-4.4l-5.2-6.4h-1.7v6.4h-3.7v-17h7.9&#xA;&#x9;&#x9;&#x9;&#x9;C724.3,235.7,726.8,237.7,726.8,241.1z M715.7,238.7v4.4h4.2c2,0,3.2-0.7,3.2-2.2s-1.2-2.2-3.2-2.2H715.7z"/>
      </g>
    </g>
  </g>
</svg>