<svg xmlns="http://www.w3.org/2000/svg" xmlns:xlink="http://www.w3.org/1999/xlink" version="1.2" viewBox="0 0 200 200" baseProfile="tiny-ps">
  <title>CNA Financial Corporation</title>
<desc>CNA Financial Corporation logo, capital letters C N and A in red.</desc>
  <g>
    <g>
      <polygon points="69.2,118.8 83.7,79.4 97.4,79.4 104.3,97.7 111.6,79.4 125.6,79.4 111.1,118.8 97.6,118.8     90.8,100.9 84.1,118.8   " fill="#E31B23"/>
      <path d="M149.6,79.4h-18.8l-14.6,39.4h13.9l2.7-6.9h14.7l2.8,6.9H164L149.6,79.4z M135.4,103.4l4.6-11.9    l4.8,11.9H135.4z" fill="#E31B23"/>
      <g>
        <path d="M65.1,104.5h4.1l-5.3,14.4c0,0-6.9,0-7.8,0l0,0c-8.7,0-14-3.7-16.9-8.3c-2.8-4.6-2.8-9.9-2.8-9.9     c0-6,3.6-12.3,8.2-16.2c4.3-3.4,7.5-4.8,15.3-5c0.5,0,19.2,0,19.2,0l-5.3,13.9c0,0-6.7,0-7.3,0c-0.5,0-6.9,0-7.6,0.2     c-0.5,0-5.2,0.9-5.9,5.7c-0.5,3.6,1.8,5.3,3.9,5.3C61.7,104.5,65.1,104.5,65.1,104.5z" fill="#E31B23"/>
      </g>
    </g>
  </g>
</svg>