<?xml version="1.0" encoding="utf-8"?>
<!-- Generator: Adobe Illustrator 26.5.2, SVG Export Plug-In . SVG Version: 6.00 Build 0)  -->
<svg version="1.2" baseProfile="tiny-ps" id="Layer_1" xmlns="http://www.w3.org/2000/svg" xmlns:xlink="http://www.w3.org/1999/xlink"
	 viewBox="0 0 362.6 304.6" xml:space="preserve">
<title>cf_mark</title>
<path fill="#1F2E3C" d="M357.2,5.8C352.3,0.8,346.9,0,342,0H19.2c-2,0-4.1,0.3-6,0.9C9.6,2,6.4,4.2,4.1,7.2c-2.6,3.3-4,7.4-4.1,11.6
	v267c0.1,5.2,2.2,10.1,6,13.6c3.6,3.4,8.4,5.3,13.4,5.1h324.3c5.3-0.1,10.4-2.3,14-6.3c3.1-3.4,4.9-7.9,4.9-12.5V18.7
	C362.5,13.9,360.5,9.3,357.2,5.8z M321.2,19c7.6,0,13.8,6.2,13.8,13.8s-6.2,13.8-13.8,13.8c-7.6,0-13.8-6.2-13.8-13.8l0,0
	C307.5,25.2,313.6,19,321.2,19z M272.9,19c7.6,0,13.8,6.2,13.8,13.8s-6.2,13.8-13.8,13.8c-7.6,0-13.8-6.2-13.8-13.8l0,0
	C259.2,25.2,265.3,19,272.9,19C273,19,272.9,19,272.9,19z M224.7,19c7.6,0,13.8,6.2,13.8,13.8s-6.2,13.8-13.8,13.8
	c-7.6,0-13.8-6.2-13.8-13.8C210.9,25.2,217.1,19,224.7,19L224.7,19L224.7,19z M331.4,277H31.2c-3.3,0-3.7-0.3-3.7-3.7v-204
	c0-3.3,0.3-3.7,3.7-3.7h300.1c3.3,0,3.7,0.3,3.7,3.7v204C335,276.7,334.7,277,331.4,277L331.4,277L331.4,277z"/>
<path fill="none" d="M239.1,277h18.4C251.8,273.7,244.8,273.7,239.1,277L239.1,277z"/>
<circle fill="none" cx="224.7" cy="32.8" r="13.8"/>
<path fill="none" d="M272.1,236.9c11.4,17.1,27.2,31,45.7,40.1h13.6c3.3,0,3.7-0.3,3.7-3.7v-204
	c0-3.3-0.3-3.7-3.7-3.7h-13.5c-4.7,2.3-9.2,4.9-13.5,7.8C250.4,109.7,235.9,182.9,272.1,236.9z"/>
<path fill="none" d="M215.1,274.8c-3.8-5.7-4.2-16.5,5.3-22.1c6.9-4,11.9-14.8,7-23.8c-6-10.9-16.1-10.9-21.5-9.4
	s-16.4-0.9-18.6-12.1s6.8-17.3,13-18.1s14.6-6.1,15.7-15.6c1.3-11.5-6.2-19.4-16.2-20.6c-5.9-0.7-14.7-7.3-12.7-18
	c1.9-10.2,11.9-13.4,18.2-12.1c5,1,13.4,2.4,20.8-7.3c3.4-4.4,7-17.1-5.8-25.9c-10.6-7.3-9.2-18.3-3.6-24.2H31.2
	c-3.3,0-3.7,0.3-3.7,3.7v204c0,3.3,0.3,3.7,3.7,3.7h185.6C216.2,276.3,215.6,275.6,215.1,274.8z"/>
<path fill="none" d="M251.9,67.6c1.9-0.4,3.7-1.1,5.3-2h-17.9C243.2,67.7,247.6,68.4,251.9,67.6L251.9,67.6z"/>
<path fill="#E54F38" d="M220.4,89.8c12.8,8.8,9.1,21.5,5.8,25.9c-7.4,9.7-15.8,8.2-20.8,7.3c-6.4-1.3-16.4,1.9-18.2,12.1
	c-1.9,10.8,6.9,17.3,12.7,18c9.9,1.2,17.5,9.1,16.2,20.6c-1.1,9.4-9.5,14.7-15.7,15.6s-15.2,6.9-13,18.1s13.2,13.5,18.6,12.1
	s15.5-1.5,21.5,9.4c4.9,9.1-0.1,19.9-7,23.8c-9.6,5.6-9.2,16.4-5.3,22.1c0.5,0.8,1.1,1.5,1.8,2.2h100.9
	c-58.4-28.9-82.2-99.6-53.3-158c9.1-18.4,22.9-34.1,40-45.6c4.3-2.9,8.8-5.5,13.5-7.8H216.7C211.1,71.5,209.8,82.5,220.4,89.8
	L220.4,89.8z"/>
<circle fill="none" cx="224.7" cy="32.8" r="13.8"/>
<path fill="none" d="M265.8,44.6c6.5,4,15,1.9,19-4.6c4-6.5,1.9-15-4.6-19c-6.5-4-15-1.9-19,4.6
	c-0.9,1.5-1.5,3-1.8,4.7c-0.1,0.8-0.2,1.6-0.2,2.5C259.2,37.6,261.7,42.1,265.8,44.6z"/>
<path fill="none" d="M321.2,46.6c7.6,0,13.8-6.2,13.8-13.8S328.9,19,321.2,19h-0.3c-6.6,0.2-12.1,4.9-13.2,11.4
	c-0.1,0.8-0.2,1.6-0.2,2.4C307.4,40.4,313.6,46.6,321.2,46.6C321.2,46.6,321.2,46.6,321.2,46.6z"/>
<path fill="none" d="M331.4,65.6H120.4c-0.3,0.5-0.6,1-0.9,1.4c-5,9-1.6,20.3,8,25.2c4.9,2.5,11.9,2.2,15.8,0.1
	c7.5-4,16.8-1.1,20.7,6.3c3,5.6,2.2,12.4-1.9,17.2c-1.8,2.1-4.1,3.6-6.6,4.5c-5.1,1.7-9.2,5.6-11.2,10.6
	c-3.8,9.5,1.1,20.4,10.2,23.8c2.7,1,5.6,1.4,8.5,1.3c8.5-0.3,15.6,6.4,15.8,14.9s-6.4,15.6-14.9,15.8c-0.5,0-1,0-1.5,0
	c-8.3-0.7-16,4.5-18.6,12.4c-4,11.3,4.3,20.7,11.6,23c8,2.7,12.3,11.5,9.6,19.5c-0.1,0.2-0.2,0.5-0.3,0.7c-3.6,8.6-12.7,11.9-21.5,8
	c-8.5-3.8-15.4-0.9-20,3c-5,4.2-9,14.7-2.9,23.7h211c3.3,0,3.7-0.3,3.7-3.7v-204C335,66,334.7,65.6,331.4,65.6L331.4,65.6z"/>
<path fill="none" d="M76,88.1c-9.1-9.2-19.7-16.8-31.3-22.5H31.2c-3.3,0-3.7,0.3-3.7,3.7v204c0,3.3,0.3,3.7,3.7,3.7
	h13.9c11.5-5.7,21.9-13.2,30.9-22.3C122,208.7,122,134.1,76,88.1L76,88.1z"/>
<path fill="#3E9AD5" d="M123.2,253.3c4.6-3.9,11.5-6.8,20-3c8.8,3.9,17.9,0.7,21.5-8c3.1-7.9-0.7-16.8-8.6-19.9
	c-0.2-0.1-0.5-0.2-0.7-0.3c-7.3-2.3-15.6-11.6-11.6-23c2.6-7.9,10.2-13.1,18.6-12.4c8.5,0.6,15.8-5.9,16.3-14.3
	c0.6-8.5-5.9-15.8-14.3-16.3c-0.5,0-1,0-1.5,0c-2.9,0.1-5.8-0.3-8.5-1.3c-9.1-3.4-14.1-14.3-10.2-23.8c2-5,6.1-8.9,11.3-10.6
	c2.6-0.9,4.9-2.4,6.6-4.5c5.5-6.4,4.8-16.1-1.6-21.6c-4.8-4.1-11.6-4.9-17.2-1.9c-3.8,2.1-10.9,2.4-15.8-0.1
	c-9.6-4.9-13-16.2-8-25.2c0.3-0.5,0.6-1,0.9-1.4H44.7C56.3,71.3,66.9,78.9,76,88.1c46,46,46,120.6,0,166.6c0,0,0,0,0,0
	c-9,9-19.5,16.6-30.9,22.3h75.2C114.2,268,118.2,257.5,123.2,253.3L123.2,253.3z"/>
</svg>
