<?xml version="1.0" encoding="utf-8"?>
<!-- Generator: Adobe Illustrator 28.0.0, SVG Export Plug-In . SVG Version: 6.00 Build 0)  -->
<svg version="1.2" baseProfile="tiny-ps" id="design" xmlns="http://www.w3.org/2000/svg" xmlns:xlink="http://www.w3.org/1999/xlink" viewBox="0 0 96 96" xml:space="preserve">
<title>Ascension Publishing Group, LLC</title>
<g id="group">
	<g id="_x3C_Group_x3E_">
		<g>
			<rect x="47" y="49.2" fill="#CBAA35" width="1.9" height="0.5"/>
			<rect x="47" y="47" fill="#CBAA35" width="1.9" height="0.8"/>
			<path fill="#CBAA35" d="M49,18v22H47V18c0-0.5,0.4-1,1-1C48.5,17,49,17.4,49,18z"/>
			<rect x="47" y="40.3" fill="#CBAA35" width="1.9" height="1.6"/>
			<rect x="47" y="42.5" fill="#CBAA35" width="1.9" height="1.3"/>
			<rect x="47" y="44.7" fill="#CBAA35" width="1.9" height="1.1"/>
			<rect x="47" y="51.4" fill="#CBAA35" width="1.9" height="0.2"/>
		</g>
		<g>
			<path fill="#CBAA35" d="M44.8,23.3c0,0.2-0.1,0.4-0.1,0.7c-0.1,0.6-0.2,1.2-0.3,1.9c0,0.1,0,0.2,0,0.3c-0.1,0.5-0.2,1.1-0.2,1.7
				c0,0.2-0.1,0.4-0.1,0.6c-0.1,0.4-0.1,0.8-0.2,1.2c0,0.1,0,0.1,0,0.2c0,0.3-0.1,0.6-0.1,0.8c-0.1,0.4-0.1,0.7-0.2,1.1
				c-0.1,0.4-0.1,0.7-0.2,1.1c0,0.3-0.1,0.5-0.2,0.8c-0.1,0.5-0.2,0.9-0.3,1.4c0,0.2-0.1,0.4-0.1,0.5c0,0.1,0,0.1,0,0.2
				c-0.1,0.3-0.1,0.7-0.2,1c0,0.2-0.1,0.3-0.1,0.5c0,0.1,0,0.2-0.1,0.2c-0.1,0.7-0.3,1.3-0.5,1.9h-2c0.2-0.6,0.3-1.3,0.5-1.9
				c0-0.1,0-0.2,0.1-0.2c0.1-0.5,0.2-1,0.3-1.5c0-0.1,0-0.1,0-0.2c0-0.2,0.1-0.4,0.1-0.5c0.1-0.5,0.2-0.9,0.3-1.4
				c0.1-0.3,0.1-0.5,0.2-0.8c0.1-0.4,0.1-0.8,0.2-1.1c0.1-0.4,0.1-0.7,0.2-1.1c0-0.3,0.1-0.6,0.1-0.8c0-0.1,0-0.1,0-0.2
				c0.1-0.4,0.1-0.8,0.2-1.2c0-0.2,0.1-0.4,0.1-0.6c0.1-0.6,0.2-1.1,0.2-1.7c0-0.1,0-0.2,0-0.3c0.1-0.7,0.2-1.3,0.3-1.9
				c0-0.3,0.1-0.6,0.1-0.9c0.1-0.5,0.5-0.9,1-0.9h0C44.4,22.3,44.9,22.8,44.8,23.3z"/>
			<path fill="#CBAA35" d="M41.9,39.5c-0.2,0.6-0.3,1.3-0.5,1.9h-2c0.2-0.6,0.3-1.3,0.5-1.9H41.9z"/>
			<path fill="#CBAA35" d="M41.3,41.8c-0.1,0.5-0.3,1.1-0.5,1.6h-2c0.2-0.5,0.3-1.1,0.5-1.6H41.3z"/>
			<path fill="#CBAA35" d="M40.6,44c-0.1,0.5-0.3,0.9-0.4,1.3h-2.1c0.1-0.4,0.3-0.9,0.4-1.3H40.6z"/>
			<path fill="#CBAA35" d="M39.9,46.2c-0.1,0.4-0.2,0.7-0.4,1.1h-2.1c0.1-0.3,0.2-0.7,0.4-1.1H39.9z"/>
			<path fill="#CBAA35" d="M39.2,48.4c-0.1,0.3-0.2,0.5-0.3,0.8h-2.1c0.1-0.3,0.2-0.5,0.3-0.8H39.2z"/>
			<path fill="#CBAA35" d="M38.3,50.6c-0.1,0.2-0.1,0.3-0.2,0.5H36c0.1-0.2,0.1-0.3,0.2-0.5H38.3z"/>
			<path fill="#CBAA35" d="M37.4,52.8c0,0.1-0.1,0.1-0.1,0.2h-2.2c0-0.1,0.1-0.1,0.1-0.2H37.4z"/>
			<path fill="#CBAA35" d="M41.9,39.5C41.9,39.5,41.9,39.5,41.9,39.5l-2,0c0,0,0,0,0,0H41.9z"/>
		</g>
		<g>
			<path fill="#CBAA35" d="M56.7,41.4h-2c-0.2-0.6-0.3-1.3-0.5-1.9h2C56.3,40.2,56.5,40.8,56.7,41.4z"/>
			<path fill="#CBAA35" d="M56.2,39.5h-2c-0.2-0.6-0.3-1.3-0.5-1.9c0-0.1,0-0.2-0.1-0.2c0-0.2-0.1-0.3-0.1-0.5
				c-0.1-0.3-0.2-0.7-0.2-1c0-0.1,0-0.1,0-0.2c0-0.2-0.1-0.4-0.1-0.5c-0.1-0.5-0.2-0.9-0.3-1.4c-0.1-0.3-0.1-0.5-0.2-0.8
				c-0.1-0.4-0.1-0.8-0.2-1.1c-0.1-0.4-0.1-0.7-0.2-1.1c0-0.3-0.1-0.6-0.1-0.8c0-0.1,0-0.1,0-0.2c-0.1-0.4-0.1-0.8-0.2-1.2
				c0-0.2-0.1-0.4-0.1-0.6c-0.1-0.6-0.2-1.1-0.2-1.7c0-0.1,0-0.2,0-0.3c-0.1-0.7-0.2-1.3-0.3-1.9c0-0.2-0.1-0.5-0.1-0.7
				c-0.1-0.6,0.4-1.1,1-1.1c0.5,0,0.9,0.4,1,0.9c0,0.3,0.1,0.6,0.1,0.9c0.1,0.6,0.2,1.2,0.3,1.9c0,0.1,0,0.2,0,0.3
				c0.1,0.5,0.2,1.1,0.2,1.7c0,0.2,0.1,0.4,0.1,0.6c0.1,0.4,0.1,0.8,0.2,1.2c0,0.1,0,0.1,0,0.2c0,0.3,0.1,0.6,0.1,0.8
				c0.1,0.4,0.1,0.7,0.2,1.1c0.1,0.4,0.1,0.7,0.2,1.1c0,0.3,0.1,0.5,0.2,0.8c0.1,0.5,0.2,0.9,0.3,1.4c0,0.2,0.1,0.3,0.1,0.5
				c0,0.1,0,0.1,0,0.2c0.1,0.5,0.2,1,0.3,1.5c0,0.1,0,0.2,0.1,0.2C55.8,38.2,56,38.9,56.2,39.5z"/>
			<path fill="#CBAA35" d="M56.2,39.5h-2c0,0,0,0,0,0L56.2,39.5C56.2,39.5,56.2,39.5,56.2,39.5z"/>
			<path fill="#CBAA35" d="M57.2,43.4h-2c-0.2-0.5-0.3-1.1-0.5-1.6h2C56.9,42.3,57.1,42.8,57.2,43.4z"/>
			<path fill="#CBAA35" d="M57.8,45.3h-2.1c-0.1-0.4-0.3-0.9-0.4-1.3h2C57.5,44.4,57.7,44.9,57.8,45.3z"/>
			<path fill="#CBAA35" d="M58.5,47.2h-2.1c-0.1-0.3-0.2-0.7-0.4-1.1h2.1C58.2,46.5,58.4,46.9,58.5,47.2z"/>
			<path fill="#CBAA35" d="M59.2,49.2h-2.1c-0.1-0.3-0.2-0.5-0.3-0.8h2.1C59,48.7,59.1,48.9,59.2,49.2z"/>
			<path fill="#CBAA35" d="M60,51.1h-2.1c-0.1-0.2-0.1-0.3-0.2-0.5h2.1C59.9,50.8,59.9,50.9,60,51.1z"/>
			<path fill="#CBAA35" d="M60.9,53h-2.2c0-0.1-0.1-0.1-0.1-0.2h2.2C60.8,52.9,60.9,53,60.9,53z"/>
		</g>
		<g>
			<path fill="#CBAA35" d="M25.9,53.7h2.5c-0.1,0.1-0.1,0.1-0.2,0.2h-2.5C25.8,53.8,25.9,53.7,25.9,53.7z"/>
			<path fill="#CBAA35" d="M27.5,51.7h2.4c-0.1,0.2-0.2,0.3-0.4,0.5h-2.5C27.2,52.1,27.4,51.9,27.5,51.7z"/>
			<path fill="#CBAA35" d="M28.9,49.8h2.4c-0.2,0.3-0.3,0.5-0.5,0.8h-2.4C28.6,50.3,28.7,50.1,28.9,49.8z"/>
			<path fill="#CBAA35" d="M30.2,47.9h2.3c-0.2,0.3-0.4,0.7-0.7,1.1h-2.3C29.8,48.6,30,48.2,30.2,47.9z"/>
			<path fill="#CBAA35" d="M31.4,46h2.2c-0.2,0.4-0.5,0.9-0.8,1.3h-2.3C30.9,46.8,31.2,46.4,31.4,46z"/>
			<path fill="#CBAA35" d="M34.7,44C34.7,44,34.7,44,34.7,44c-0.3,0.6-0.6,1.1-0.9,1.6h-2.2c0.3-0.5,0.6-1.1,0.9-1.6c0,0,0,0,0,0
				H34.7z"/>
			<path fill="#CBAA35" d="M39.6,30.8C39.6,30.8,39.5,30.8,39.6,30.8c-0.1,0.5-0.3,1.1-0.4,1.6c0,0,0,0,0,0
				c-0.1,0.5-0.3,1.1-0.5,1.6c0,0.1,0,0.2-0.1,0.3c0,0.2-0.1,0.3-0.1,0.5c-0.1,0.3-0.2,0.6-0.3,0.9c0,0,0,0,0,0.1
				C38.1,36,38,36.1,38,36.3c-0.1,0.4-0.3,0.7-0.4,1.1c-0.1,0.3-0.2,0.6-0.3,0.8c-0.1,0.3-0.2,0.5-0.3,0.8c-0.1,0.4-0.3,0.7-0.5,1.1
				c-0.1,0.2-0.1,0.4-0.2,0.5c-0.2,0.5-0.4,0.9-0.6,1.4c0,0.1-0.1,0.2-0.1,0.2c-0.3,0.5-0.5,1.1-0.8,1.6h-2.2
				c0.3-0.6,0.6-1.1,0.8-1.6c0-0.1,0.1-0.2,0.1-0.2c0.2-0.5,0.4-0.9,0.7-1.4c0.1-0.2,0.2-0.4,0.2-0.5c0.2-0.4,0.3-0.7,0.5-1.1
				c0.1-0.3,0.2-0.5,0.3-0.8c0.1-0.3,0.2-0.6,0.3-0.8c0.1-0.4,0.3-0.7,0.4-1.1c0.1-0.2,0.1-0.3,0.2-0.5c0,0,0,0,0-0.1
				c0.2-0.5,0.3-0.9,0.5-1.4c0,0,0-0.1,0-0.1c0-0.1,0-0.1,0-0.2c0.2-0.6,0.3-1.1,0.5-1.6c0,0,0,0,0,0c0.2-0.6,0.3-1.1,0.4-1.6
				c0-0.1,0-0.2,0.1-0.3c0,0,0-0.1,0-0.1c0.1-0.4,0.5-0.7,0.9-0.7c0.5,0,0.9,0.4,1,0.9C39.6,30.6,39.6,30.7,39.6,30.8z"/>
		</g>
		<g>
			<path fill="#CBAA35" d="M64.4,45.6h-2.2c-0.3-0.5-0.6-1.1-0.9-1.6h2.2C63.8,44.6,64.1,45.1,64.4,45.6z"/>
			<path fill="#CBAA35" d="M63.5,44h-2.2c-0.3-0.6-0.6-1.1-0.8-1.6c0-0.1-0.1-0.2-0.1-0.2c-0.2-0.5-0.4-0.9-0.6-1.4
				c-0.1-0.2-0.2-0.4-0.2-0.5c-0.2-0.4-0.3-0.7-0.5-1.1c-0.1-0.3-0.2-0.5-0.3-0.8c-0.1-0.3-0.2-0.6-0.3-0.8
				c-0.1-0.4-0.3-0.7-0.4-1.1c-0.1-0.2-0.1-0.3-0.2-0.5c0,0,0,0,0-0.1c-0.1-0.3-0.2-0.6-0.3-0.9c0-0.2-0.1-0.3-0.1-0.5
				c0-0.1-0.1-0.2-0.1-0.3c-0.2-0.6-0.3-1.1-0.5-1.6c0,0,0,0,0,0c-0.2-0.6-0.3-1.1-0.4-1.6c0,0,0,0,0,0c0-0.1,0-0.2,0-0.3
				c0-0.5,0.5-0.9,1-0.9h0c0.4,0,0.8,0.3,0.9,0.7c0,0,0,0.1,0,0.1c0,0.1,0,0.2,0.1,0.3c0.1,0.5,0.3,1.1,0.4,1.6c0,0,0,0,0,0
				c0.1,0.5,0.3,1.1,0.5,1.6c0,0.1,0,0.1,0,0.2c0,0,0,0.1,0,0.1c0.1,0.4,0.3,0.9,0.5,1.4c0,0,0,0,0,0.1c0.1,0.2,0.1,0.3,0.2,0.5
				c0.1,0.4,0.3,0.7,0.4,1.1c0.1,0.3,0.2,0.6,0.3,0.8c0.1,0.3,0.2,0.5,0.3,0.8c0.1,0.4,0.3,0.7,0.5,1.1c0.1,0.2,0.2,0.4,0.2,0.5
				c0.2,0.5,0.4,0.9,0.7,1.4c0,0.1,0.1,0.2,0.1,0.2C62.9,42.9,63.2,43.4,63.5,44z"/>
			<path fill="#CBAA35" d="M63.5,44h-2.2c0,0,0,0,0,0L63.5,44C63.5,44,63.5,44,63.5,44z"/>
			<path fill="#CBAA35" d="M65.4,47.3h-2.3c-0.3-0.4-0.5-0.9-0.8-1.3h2.2C64.8,46.4,65.1,46.8,65.4,47.3z"/>
			<path fill="#CBAA35" d="M66.5,48.9h-2.3c-0.2-0.3-0.4-0.7-0.7-1.1h2.3C66,48.2,66.2,48.6,66.5,48.9z"/>
			<path fill="#CBAA35" d="M67.6,50.6h-2.4c-0.2-0.3-0.4-0.5-0.5-0.8h2.4C67.2,50.1,67.4,50.3,67.6,50.6z"/>
			<path fill="#CBAA35" d="M68.9,52.2h-2.5c-0.1-0.2-0.2-0.3-0.4-0.5h2.4C68.6,51.9,68.8,52.1,68.9,52.2z"/>
			<path fill="#CBAA35" d="M70.3,53.9h-2.5c-0.1-0.1-0.1-0.1-0.2-0.2h2.5C70.1,53.7,70.2,53.8,70.3,53.9z"/>
		</g>
		<g>
			<path fill="#CBAA35" d="M16.5,55.2h3.1c-0.1,0.1-0.2,0.1-0.2,0.2h-3.2C16.3,55.4,16.4,55.3,16.5,55.2z"/>
			<path fill="#CBAA35" d="M18.9,53.3h2.9c-0.2,0.2-0.3,0.3-0.5,0.5h-3C18.5,53.6,18.7,53.5,18.9,53.3z"/>
			<path fill="#CBAA35" d="M21,51.4h2.7c-0.2,0.3-0.5,0.5-0.7,0.8h-2.8C20.4,51.9,20.7,51.7,21,51.4z"/>
			<path fill="#CBAA35" d="M22.8,49.5h2.6c-0.1,0.1-0.2,0.3-0.4,0.4c-0.2,0.2-0.4,0.4-0.6,0.6h-2.7C22.2,50.2,22.5,49.8,22.8,49.5z"
				/>
			<path fill="#CBAA35" d="M24.5,47.6h2.5c-0.3,0.5-0.7,0.9-1,1.3h-2.6c0.1-0.1,0.2-0.2,0.2-0.3C23.9,48.3,24.2,47.9,24.5,47.6z"/>
			<path fill="#CBAA35" d="M28.3,45.6c-0.4,0.5-0.8,1.1-1.2,1.6h-2.5c0.4-0.5,0.8-1.1,1.2-1.6H28.3z"/>
			<path fill="#CBAA35" d="M32.8,37.4c0,0.1,0,0.3-0.1,0.4c0,0,0,0.1,0,0.1c-0.2,0.4-0.3,0.7-0.5,1.1c-0.1,0.3-0.3,0.5-0.4,0.8
				c-0.1,0.3-0.3,0.6-0.4,0.8c-0.2,0.4-0.4,0.7-0.6,1.1c-0.1,0.2-0.2,0.4-0.3,0.5c-0.3,0.5-0.5,0.9-0.8,1.4
				c-0.1,0.1-0.1,0.2-0.2,0.3c-0.3,0.6-0.7,1.1-1.1,1.6H26c0.4-0.5,0.8-1.1,1.1-1.6c0.1-0.1,0.1-0.2,0.2-0.3
				c0.3-0.4,0.6-0.9,0.9-1.4c0.1-0.2,0.2-0.4,0.3-0.5c0.2-0.4,0.4-0.7,0.6-1.1c0.2-0.3,0.3-0.5,0.4-0.8c0.1-0.3,0.3-0.5,0.4-0.8
				c0.2-0.4,0.4-0.7,0.5-1.1c0.1-0.2,0.2-0.3,0.2-0.5c0.1-0.1,0.1-0.2,0.2-0.3c0.2-0.4,0.5-0.6,0.9-0.6C32.3,36.5,32.7,37,32.8,37.4
				z"/>
			<path fill="#CBAA35" d="M28.3,45.6C28.3,45.6,28.3,45.6,28.3,45.6l-2.4,0c0,0,0,0,0,0H28.3z"/>
		</g>
		<g>
			<path fill="#CBAA35" d="M70,45.6h-2.4c-0.2-0.3-0.4-0.6-0.6-1c-0.1-0.2-0.3-0.5-0.4-0.7c-0.1-0.1-0.1-0.2-0.2-0.3
				c-0.2-0.3-0.3-0.6-0.5-0.8c-0.1-0.2-0.2-0.4-0.3-0.5c-0.1-0.2-0.2-0.4-0.3-0.5c-0.1-0.2-0.3-0.5-0.4-0.7
				c-0.1-0.1-0.1-0.3-0.2-0.4c-0.1-0.3-0.3-0.5-0.4-0.8c-0.1-0.2-0.2-0.4-0.3-0.5c0-0.1-0.1-0.2-0.1-0.3c-0.2-0.4-0.3-0.7-0.5-1.1
				c0,0,0-0.1,0-0.1c0-0.1-0.1-0.2-0.1-0.3c0,0,0-0.1,0-0.1c0-0.5,0.4-0.9,1-0.9c0.4,0,0.7,0.2,0.9,0.6c0.1,0.1,0.1,0.2,0.2,0.3
				c0,0,0,0.1,0.1,0.1c0.1,0.1,0.1,0.3,0.2,0.4c0.2,0.4,0.4,0.7,0.5,1.1c0,0.1,0.1,0.2,0.1,0.3c0.1,0.2,0.2,0.4,0.3,0.5
				c0.1,0.3,0.3,0.6,0.4,0.8c0.1,0.1,0.1,0.3,0.2,0.4c0.1,0.2,0.3,0.5,0.4,0.7c0.1,0.2,0.2,0.4,0.3,0.5c0.1,0.2,0.2,0.4,0.3,0.5
				c0.2,0.3,0.4,0.6,0.5,0.8c0.1,0.1,0.1,0.2,0.2,0.3c0.1,0.2,0.3,0.5,0.5,0.7C69.6,45,69.8,45.3,70,45.6z"/>
			<path fill="#CBAA35" d="M71.3,47.3h-2.5c-0.2-0.3-0.4-0.5-0.6-0.8c-0.2-0.3-0.4-0.5-0.6-0.8h2.4c0.2,0.3,0.4,0.5,0.6,0.8
				C70.9,46.7,71.1,47,71.3,47.3z"/>
			<path fill="#CBAA35" d="M70.1,45.6h-2.4c0,0,0,0,0,0L70.1,45.6C70.1,45.6,70.1,45.6,70.1,45.6z"/>
			<path fill="#CBAA35" d="M72.7,48.9h-2.5c-0.2-0.2-0.4-0.4-0.5-0.7c-0.2-0.2-0.3-0.4-0.5-0.7h2.5c0.2,0.2,0.4,0.4,0.5,0.7
				c0.1,0.1,0.2,0.3,0.3,0.4C72.5,48.7,72.6,48.8,72.7,48.9z"/>
			<path fill="#CBAA35" d="M74.2,50.5h-2.7c-0.2-0.2-0.3-0.3-0.5-0.5c0,0-0.1-0.1-0.1-0.1c-0.1-0.1-0.2-0.3-0.4-0.4h2.6
				c0.2,0.2,0.3,0.3,0.5,0.5C73.8,50.2,74,50.4,74.2,50.5z"/>
			<path fill="#CBAA35" d="M75.8,52.2H73c-0.1-0.1-0.3-0.3-0.4-0.4c-0.1-0.1-0.2-0.3-0.4-0.4H75c0.1,0.1,0.3,0.3,0.4,0.4
				C75.6,51.9,75.7,52,75.8,52.2z"/>
			<path fill="#CBAA35" d="M77.7,53.8h-3c-0.1-0.1-0.2-0.2-0.3-0.2c-0.1-0.1-0.2-0.2-0.3-0.2h2.9c0.1,0.1,0.2,0.2,0.3,0.2
				C77.5,53.6,77.6,53.7,77.7,53.8z"/>
			<path fill="#CBAA35" d="M79.8,55.4h-3.2c0,0-0.1-0.1-0.1-0.1c0,0-0.1-0.1-0.1-0.1h3.1c0,0,0.1,0.1,0.1,0.1
				C79.7,55.4,79.7,55.4,79.8,55.4z"/>
		</g>
	</g>
	<g>
		<path fill="#CBAA36" d="M18.3,66.8l-1-2.2h-3.1l-1,2.2h-1.1l3.1-6.8h1.1l3.1,6.8H18.3z M15.8,61.2l-1.1,2.4h2.2L15.8,61.2z"/>
		<path fill="#CBAA36" d="M24.3,67c-1.4,0-2.4-0.4-3.4-1.4l0.7-0.7c0.9,0.8,1.7,1.1,2.8,1.1c0.8,0,2.1-0.2,2.1-1.2
			c0-0.3-0.2-0.6-0.5-0.8c-0.4-0.2-0.7-0.2-1.7-0.3l-1,0c-1.1,0-2-0.6-2-1.7c0-1,0.8-1.7,1.7-1.9c0.4-0.1,0.8-0.2,1.2-0.2
			c1,0,2,0.3,2.8,0.9l-0.6,0.8c-0.7-0.5-1.3-0.7-2.1-0.7c-0.7,0-2,0.2-2,1.1c0,0.7,0.6,0.8,1.2,0.8h1c0.8,0,1.4,0,2.1,0.4
			c0.6,0.4,1,1,1,1.7C27.5,66.5,25.6,67,24.3,67z"/>
		<path fill="#CBAA36" d="M33.3,67c-2.1,0-3.8-1.4-3.8-3.6c0-2.1,1.6-3.6,3.6-3.6c1.3,0,2.4,0.5,3.3,1.4l-0.7,0.6
			c-0.7-0.6-1.5-1-2.5-1c-1.5,0-2.7,1-2.7,2.6c0,1.7,1.4,2.6,2.9,2.6c1.1,0,1.7-0.4,2.5-1.1l0.7,0.7C35.7,66.6,34.5,67,33.3,67z"/>
		<path fill="#CBAA36" d="M38.8,66.8V60h5.6v1h-4.6v1.8h2.3v1h-2.3v2h4.8v1H38.8z"/>
		<path fill="#CBAA36" d="M51.9,66.8l-4.1-5.2v5.2h-1V60h1l4.1,5.2V60h1v6.8H51.9z"/>
		<path fill="#CBAA36" d="M58.6,67c-1.4,0-2.4-0.4-3.4-1.4l0.7-0.7c0.9,0.8,1.7,1.1,2.8,1.1c0.8,0,2.1-0.2,2.1-1.2
			c0-0.3-0.2-0.6-0.5-0.8c-0.4-0.2-0.7-0.2-1.7-0.3l-1,0c-1.1,0-2-0.6-2-1.7c0-1,0.8-1.7,1.7-1.9c0.4-0.1,0.8-0.2,1.2-0.2
			c1,0,2,0.3,2.8,0.9l-0.6,0.8c-0.7-0.5-1.3-0.7-2.1-0.7c-0.7,0-2,0.2-2,1.1c0,0.7,0.6,0.8,1.2,0.8h1c0.8,0,1.4,0,2.1,0.4
			c0.6,0.4,1,1,1,1.7C61.8,66.5,59.9,67,58.6,67z"/>
		<path fill="#CBAA36" d="M64.2,66.8V60h1v6.8H64.2z"/>
		<path fill="#CBAA36" d="M71.4,67c-2.1,0-3.7-1.6-3.7-3.7c0-2,1.7-3.5,3.7-3.5c2,0,3.7,1.6,3.7,3.6C75.1,65.4,73.4,67,71.4,67z
			 M71.4,60.8c-1.5,0-2.7,1.1-2.7,2.6c0,1.5,1.3,2.5,2.7,2.5c1.5,0,2.7-1.1,2.7-2.6C74.1,61.9,72.9,60.8,71.4,60.8z"/>
		<path fill="#CBAA36" d="M82.8,66.8l-4.1-5.2v5.2h-1V60h1l4.1,5.2V60h1v6.8H82.8z"/>
	</g>
</g>
</svg>
