<?xml version="1.0" encoding="UTF-8" standalone="yes"?>
<svg version="1.2" baseProfile="tiny-ps" viewBox="0 0 269.8 269.8" xml:space="preserve" xmlns="http://www.w3.org/2000/svg">
  <title>République et canton de Genève</title>
  <desc>Ecusson du canton de Genève</desc>
  <rect id="fond" y="0" fill="#FFFFFF" width="269.8" height="269.8"/>
  <g id="ecusson">
    <path d="M156.8,71.4c0.1-0.2,0.4-0.5,1.2-1.1c0.6-0.4,1.4-0.6,2.2-0.7c1-0.2,1.9-0.4,2.8-1c0.9-0.6,1.3-1.4,1.8-2.1&#xA;&#x9;&#x9;c0.6-0.9,1.1-1.8,2.5-2.5c2.4-1.2,4.9-0.6,4.9-0.6l0.5,0.1l-0.2-0.5c-0.8-1.9-3.1-3.2-5.4-3c-1.2,0.1-2.4,0.8-3.5,1.5&#xA;&#x9;&#x9;c-1,0.6-1.9,1.1-2.8,1.3c-0.8,0.1-1.5,0-2.4-0.2c-1.1-0.2-2.4-0.5-4.2-0.3l10-15.8l-16.9,10.7c0-0.2-0.1-0.6,0.1-1.6&#xA;&#x9;&#x9;c0.1-0.7,0.6-1.4,1-2.1c0.5-0.8,1.1-1.6,1.3-2.7c0.2-1,0-1.9-0.2-2.8c-0.2-1-0.5-2.1,0-3.5c0.8-2.6,3-3.9,3-3.9l0.5-0.3l-0.5-0.2&#xA;&#x9;&#x9;c-1.9-0.8-4.5,0-6,1.7c-0.8,0.9-1.1,2.2-1.4,3.5c-0.3,1.1-0.5,2.1-1,2.9c-0.5,0.7-1.1,1.1-1.8,1.6c-0.9,0.6-2,1.3-3.1,2.8L135,34.5&#xA;&#x9;&#x9;L130.5,54c-0.2-0.1-0.5-0.4-1.1-1.2c-0.4-0.6-0.6-1.4-0.7-2.2c-0.2-1-0.4-1.9-1-2.8c-0.6-0.9-1.4-1.3-2.1-1.8&#xA;&#x9;&#x9;c-0.9-0.6-1.8-1.1-2.5-2.5c-1.2-2.4-0.6-4.9-0.6-4.9l0.1-0.5l-0.5,0.2c-1.9,0.8-3.2,3.1-3,5.4c0.1,1.2,0.8,2.4,1.5,3.5&#xA;&#x9;&#x9;c0.6,1,1.1,1.9,1.3,2.8c0.1,0.8,0,1.5-0.2,2.4c-0.2,1.1-0.5,2.4-0.3,4.2l-15.8-9.9l10.6,16.9c-0.2,0-0.6,0-1.6-0.1&#xA;&#x9;&#x9;c-0.7-0.1-1.4-0.6-2.1-1c-0.8-0.5-1.6-1.1-2.7-1.3c-1-0.2-1.9,0-2.8,0.2c-1,0.2-2.1,0.5-3.5,0c-2.6-0.8-3.9-3-3.9-3.1l-0.3-0.4&#xA;&#x9;&#x9;l-0.2,0.5c-0.8,1.9,0,4.5,1.7,6c0.9,0.8,2.2,1.1,3.5,1.4c1.1,0.3,2.1,0.5,2.9,1c0.7,0.5,1.1,1.1,1.6,1.8c0.6,0.9,1.4,2,2.8,3.2&#xA;&#x9;&#x9;l-18.2,4.1l20.7,4.7c0,0.3,0.1,0.4,0.1,0.4h0.7H155h0.5c0,0,0.1-0.3,0.1-0.4l20.8-4.7L156.8,71.4z"/>
    <path d="M68.6,81v83.3c0,17.7,6.9,34.4,19.4,46.9s29.2,19.4,46.9,19.4s34.4-6.9,46.9-19.4s19.4-29.2,19.4-46.9V81H68.6z"/>
    <path fill="#FFDD00" d="M70.3,164.3V82.7h64.4v146.2c-17.1,0-33.3-6.7-45.5-18.9C77,197.8,70.3,181.5,70.3,164.3z"/>
    <path fill="#E63329" d="M199.5,164.3c0,17.3-6.7,33.5-18.9,45.7s-28.3,18.9-45.4,18.9V82.7h64.3L199.5,164.3L199.5,164.3z"/>
    <path d="M166.8,163.6V97.9c0-1.1-0.4-2.2-1.2-3s-1.9-1.2-3-1.2c-2.4,0-4.3,1.9-4.3,4.3v65.7h1.1V97.9c0-0.9,0.3-1.7,0.9-2.3&#xA;&#x9;&#x9;c0.6-0.6,1.4-0.9,2.3-0.9s1.7,0.3,2.3,0.9s0.9,1.4,0.9,2.3v65.7H166.8L166.8,163.6z"/>
    <path d="M107.8,111c0,0-1.1-0.9-2.8-0.9c-0.9,0-1.5,0.3-2.2,0.6c-0.8,0.3-1.7,0.7-3.1,0.7c-2.5,0-4-1.7-4-1.7l-0.3-0.4l-0.1,0.5&#xA;&#x9;&#x9;c-0.3,1.1-0.1,2.1,0.5,2.9c1,1.2,2.8,1.6,3.7,1.6c1.8,0,3.1-0.8,4.1-1.4c0.2-0.1,0.4-0.2,0.5-0.3c1.9-1,2.6-0.7,3-0.6h0.1l0.2,0.1&#xA;&#x9;&#x9;l0.1-0.2l0.3-0.5l0.1-0.2L107.8,111z"/>
    <path d="M110.6,92.2c0.4,0,0.8-0.2,1.1-0.4c0.3-0.3,0.4-0.7,0.4-1.1s-0.2-0.8-0.4-1.1c-0.3-0.3-0.7-0.4-1.1-0.4&#xA;&#x9;&#x9;c-0.8,0-1.5,0.7-1.5,1.5c0,0.4,0.2,0.8,0.4,1.1C109.8,92,110.2,92.2,110.6,92.2z"/>
    <path d="M186.4,180.3c-0.9-0.9-2-1.4-3.2-1.4v-2.1c0-0.7-0.3-1.4-0.8-1.9s-1.2-0.8-1.9-0.8h-0.6c-1.5,0-2.7,1.2-2.7,2.7v1.5&#xA;&#x9;&#x9;c-2-0.7-3.8-1.9-5.3-3.4s-2.7-3.3-3.4-5.3h1.1c0.7,0,1.4-0.3,1.9-0.8s0.8-1.2,0.8-1.9v-0.6c0-0.7-0.3-1.4-0.8-1.9s-1.2-0.8-1.9-0.8&#xA;&#x9;&#x9;h-14.1c-1.5,0-2.7,1.2-2.7,2.7v0.6c0,0.7,0.3,1.4,0.8,1.9s1.2,0.8,1.9,0.8h1.5c-1.5,4-4.6,7.1-8.6,8.6v-1.4c0-1.5-1.2-2.7-2.7-2.7&#xA;&#x9;&#x9;H145c-0.7,0-1.4,0.3-1.9,0.8s-0.8,1.2-0.8,1.9v2.1c-1.2,0.1-2.4,0.6-3.2,1.4c-0.9,0.9-1.4,2.2-1.4,3.5s0.5,2.6,1.4,3.5&#xA;&#x9;&#x9;s2,1.4,3.2,1.4v2.1c0,0.7,0.3,1.4,0.8,1.9s1.2,0.8,1.9,0.8h0.6c0.7,0,1.4-0.3,1.9-0.8s0.8-1.2,0.8-1.9v-1.1&#xA;&#x9;&#x9;c1.9,0.7,3.7,1.9,5.2,3.4s2.7,3.3,3.4,5.3h-1.1c-1.5,0-2.7,1.2-2.7,2.7v0.6c0,0.7,0.3,1.4,0.8,1.9s1.2,0.8,1.9,0.8h2.1&#xA;&#x9;&#x9;c0.1,1.2,0.6,2.4,1.4,3.2c0.9,0.9,2.2,1.4,3.5,1.4s2.6-0.5,3.5-1.4s1.4-2,1.4-3.2h2.1c0.7,0,1.4-0.3,1.9-0.8s0.8-1.2,0.8-1.9v-0.6&#xA;&#x9;&#x9;c0-0.7-0.3-1.4-0.8-1.9s-1.2-0.8-1.9-0.8h-1.5c0.7-2,1.9-3.8,3.4-5.3s3.3-2.7,5.2-3.4v1.1c0,0.7,0.3,1.4,0.8,1.9s1.2,0.8,1.9,0.8&#xA;&#x9;&#x9;h0.6c0.7,0,1.4-0.3,1.9-0.8s0.8-1.2,0.8-1.9v-2.1c1.2-0.1,2.4-0.6,3.2-1.4c0.9-0.9,1.4-2.2,1.4-3.5&#xA;&#x9;&#x9;C187.8,182.5,187.3,181.3,186.4,180.3z"/>
    <path fill="#FFDD00" d="M162.9,208.1c-1,0-2-0.4-2.7-1.1c-0.7-0.7-1.1-1.6-1.1-2.5h7.7C166.7,206.4,165,208.1,162.9,208.1z"/>
    <path fill="#FFDD00" d="M142.4,187.7c-2-0.1-3.6-1.8-3.6-3.9c0-1,0.4-2,1.1-2.7c0.7-0.7,1.5-1.1,2.5-1.1V187.7z"/>
    <path fill="#FFDD00" d="M148.3,179.3c2.2-0.8,4.2-2,6-3.7c1.7-1.7,3-3.8,3.8-6h3.8c-1.8,6.6-7,11.7-13.5,13.6&#xA;&#x9;&#x9;C148.3,183.1,148.3,179.3,148.3,179.3z"/>
    <path fill="#E63329" d="M162.7,170.4c1,3.2,2.7,6.1,5.1,8.5c2.4,2.4,5.4,4.2,8.6,5.1c-6.5,2-11.7,7.1-13.6,13.7&#xA;&#x9;&#x9;c-2-6.5-7.1-11.7-13.7-13.7c3.2-1,6.1-2.7,8.5-5.1C160,176.5,161.8,173.6,162.7,170.4z"/>
    <path fill="#FFDD00" d="M148.3,188.7v-3.8c3.2,0.9,6.1,2.6,8.5,5s4.1,5.4,5,8.6H158C156.5,193.9,152.9,190.3,148.3,188.7z"/>
    <path fill="#FFDD00" d="M177.2,188.7c-4.6,1.6-8.2,5.2-9.7,9.8h-3.8c0.9-3.2,2.6-6.2,5-8.6c2.4-2.4,5.3-4.1,8.5-5V188.7&#xA;&#x9;&#x9;L177.2,188.7z"/>
    <path fill="#FFDD00" d="M177.2,183.1c-3.2-0.9-6.2-2.6-8.6-5c-2.4-2.4-4.1-5.4-5-8.6h3.8c0.8,2.2,2,4.3,3.8,6c1.7,1.7,3.8,3,6,3.8&#xA;&#x9;&#x9;V183.1z"/>
    <path fill="#FFDD00" d="M159.3,163.6V97.9c0-0.9,0.4-1.7,1-2.3c0.6-0.6,1.4-0.9,2.3-0.9s1.7,0.3,2.3,0.9s0.9,1.4,0.9,2.3v65.7&#xA;&#x9;&#x9;H159.3L159.3,163.6z"/>
    <path fill="#FFDD00" d="M179.8,192.5c-0.4,0-0.8-0.2-1.1-0.5s-0.5-0.7-0.5-1.1v-14.1c0-0.4,0.2-0.8,0.5-1.1s0.7-0.5,1.1-0.5h0.6&#xA;&#x9;&#x9;c0.4,0,0.8,0.2,1.1,0.5s0.5,0.7,0.5,1.1v14.1c0,0.9-0.7,1.6-1.6,1.6H179.8L179.8,192.5z"/>
    <path fill="#FFDD00" d="M183.1,187.7V180c0.9,0.1,1.8,0.5,2.5,1.1c0.7,0.7,1.1,1.7,1.1,2.7C186.8,185.9,185.2,187.5,183.1,187.7z"/>
    <path fill="#FFDD00" d="M145,192.5c-0.9,0-1.6-0.7-1.6-1.6v-14.1c0-0.4,0.2-0.8,0.5-1.1s0.7-0.5,1.1-0.5h0.6c0.4,0,0.8,0.2,1.1,0.5&#xA;&#x9;&#x9;s0.5,0.7,0.5,1.1v14.1c0,0.4-0.2,0.8-0.5,1.1s-0.7,0.5-1.1,0.5H145L145,192.5z"/>
    <path fill="#FFDD00" d="M171.2,166.9c0,0.9-0.7,1.6-1.6,1.6h-14.1c-0.4,0-0.8-0.2-1.1-0.5s-0.5-0.7-0.5-1.1v-0.6&#xA;&#x9;&#x9;c0-0.4,0.2-0.8,0.5-1.1s0.7-0.5,1.1-0.5h14.1c0.4,0,0.8,0.2,1.1,0.5s0.5,0.7,0.5,1.1V166.9L171.2,166.9z"/>
    <path fill="#FFDD00" d="M154.3,201.1c0-0.4,0.2-0.8,0.5-1.1s0.7-0.5,1.1-0.5H170c0.4,0,0.8,0.2,1.1,0.5s0.5,0.7,0.5,1.1v0.6&#xA;&#x9;&#x9;c0,0.9-0.7,1.6-1.6,1.6h-14.1c-0.4,0-0.8-0.2-1.1-0.5s-0.5-0.7-0.5-1.1L154.3,201.1L154.3,201.1z"/>
    <path fill="#E63329" d="M103.9,112.1c-0.2,0.1-0.3,0.2-0.5,0.3c-1,0.6-2.3,1.3-3.9,1.3c-0.8,0-2.4-0.3-3.3-1.4&#xA;&#x9;&#x9;c-0.4-0.5-0.6-1.2-0.5-1.9c0.6,0.5,2,1.5,4,1.5c1.5,0,2.4-0.4,3.3-0.7c0.7-0.3,1.2-0.5,2-0.5c1.1,0,1.9,0.4,2.3,0.6l-0.1,0.1&#xA;&#x9;&#x9;C106.8,111.2,105.8,111.1,103.9,112.1z"/>
    <path fill="#E63329" d="M109.6,90.7c0-0.3,0.1-0.5,0.3-0.7c0.2-0.2,0.4-0.3,0.7-0.3s0.5,0.1,0.7,0.3c0.2,0.2,0.3,0.4,0.3,0.7&#xA;&#x9;&#x9;c0,0.5-0.4,1-1,1c-0.3,0-0.5-0.1-0.7-0.3C109.7,91.2,109.6,91,109.6,90.7z"/>
    <path d="M117.8,96.3c0-1.1-0.4-2.1-1.2-2.9c-0.8-0.8-1.8-1.2-2.9-1.2c-0.9,0-1.7,0.3-2.5,0.8c-0.1,0.1-0.4,0.1-0.6,0.1h-0.1&#xA;&#x9;&#x9;c-0.4,0-0.6-0.1-0.7-0.1c-0.7-0.5-1.6-0.8-2.5-0.8c-2.3,0-4.1,1.8-4.1,4.1c0,1.1,0.4,2.1,1.2,2.9c0.4,0.4,0.9,0.7,1.5,0.9v1.6h0.5&#xA;&#x9;&#x9;v-1.4c0.3,0.1,0.6,0.1,0.9,0.1h6.3c0.3,0,0.6,0,0.9-0.1v1.4h0.5v-1.6c0.5-0.2,1.1-0.5,1.5-0.9C117.4,98.4,117.8,97.3,117.8,96.3z"/>
    <path fill="#E63329" d="M113.7,99.8h-6.3c-0.9,0-1.8-0.4-2.5-1c-0.7-0.7-1-1.6-1-2.5c0-1,0.4-1.8,1-2.5c0.7-0.7,1.6-1,2.5-1&#xA;&#x9;&#x9;c0.8,0,1.5,0.2,2.1,0.7c0.2,0.2,0.7,0.2,1,0.2h0.1c0.2,0,0.6,0,0.9-0.2c0.6-0.5,1.4-0.7,2.2-0.7c1,0,1.8,0.4,2.5,1&#xA;&#x9;&#x9;c0.7,0.7,1,1.6,1,2.5C117.2,98.2,115.7,99.8,113.7,99.8z"/>
    <path d="M107.4,94.1c-1.2,0-2.1,1-2.1,2.1c0,0.6,0.2,1.1,0.6,1.5s0.9,0.6,1.5,0.6h1.9h0.3V98v-1.8c0-0.6-0.2-1.1-0.6-1.5&#xA;&#x9;&#x9;C108.5,94.3,108,94.1,107.4,94.1z"/>
    <path d="M113.7,94.1c-1.2,0-2.1,1-2.1,2.1V98v0.3h0.3h1.9c0.6,0,1.1-0.2,1.5-0.6s0.6-0.9,0.6-1.5s-0.2-1.1-0.6-1.5&#xA;&#x9;&#x9;C114.8,94.3,114.2,94.1,113.7,94.1z"/>
    <path fill="#FFDD00" d="M109,97.8c-0.5,0-1.6,0-1.6,0c-0.4,0-0.8-0.2-1.1-0.5c-0.3-0.3-0.5-0.7-0.5-1.1s0.2-0.8,0.5-1.1&#xA;&#x9;&#x9;c0.3-0.3,0.7-0.5,1.1-0.5s0.8,0.2,1.1,0.5c0.3,0.3,0.5,0.7,0.5,1.1V97.8z"/>
    <path fill="#FFDD00" d="M113.7,97.8c0,0-1.1,0-1.6,0v-1.6c0-0.4,0.2-0.8,0.5-1.1c0.3-0.3,0.7-0.5,1.1-0.5s0.8,0.2,1.1,0.5&#xA;&#x9;&#x9;c0.3,0.3,0.5,0.7,0.5,1.1C115.3,97,114.6,97.8,113.7,97.8z"/>
    <path fill="#FFDD00" d="M173.8,75.7l-17.7-0.1c0-1.3-0.1-2.6-0.4-3.9L173.8,75.7z"/>
    <path fill="#FFDD00" d="M152.5,64.1c-0.7-1.1-1.5-2.1-2.4-3l12.4-12.6L152.5,64.1z"/>
    <path fill="#FFDD00" d="M162.3,48.3l-12.6,12.5c-0.9-0.9-1.9-1.7-3-2.5L162.3,48.3z"/>
    <path fill="#FFDD00" d="M142.5,50.3c0.8-0.5,1.5-1,2-1.7c0.6-0.8,0.9-2,1.1-3.1c0.3-1.2,0.6-2.5,1.3-3.3c1.2-1.4,3.2-2.1,4.9-1.7&#xA;&#x9;&#x9;c-0.7,0.6-2.2,1.9-2.8,3.9c-0.5,1.6-0.2,2.7,0,3.8c0.2,0.8,0.4,1.6,0.2,2.5s-0.7,1.7-1.2,2.5s-1,1.5-1.1,2.3c-0.2,1.4-0.1,1.8,0,2&#xA;&#x9;&#x9;l-0.6,0.4c-2-1.3-4.2-2.2-6.5-2.7l-0.4-1.9C140.4,51.8,141.5,51,142.5,50.3z"/>
    <path fill="#FFDD00" d="M139.1,55.1c-1.3-0.2-2.6-0.4-3.9-0.4L135.1,37L139.1,55.1z"/>
    <path fill="#FFDD00" d="M134.8,37l-0.1,17.7c-1.3,0-2.6,0.2-3.9,0.4L134.8,37z"/>
    <path fill="#FFDD00" d="M122.3,52.4c0.2-0.9,0.3-1.7,0.2-2.6c-0.2-1-0.8-2-1.4-3c-0.6-1.1-1.3-2.2-1.4-3.2&#xA;&#x9;&#x9;c-0.2-1.9,0.8-3.8,2.2-4.7c-0.1,0.9-0.2,2.9,0.8,4.8c0.8,1.5,1.8,2.1,2.7,2.7c0.7,0.4,1.4,0.9,1.9,1.6c0.5,0.8,0.7,1.7,0.9,2.6&#xA;&#x9;&#x9;c0.2,0.9,0.3,1.8,0.8,2.4c0.8,1.1,1.2,1.3,1.4,1.4l-0.2,0.7c-2.4,0.5-4.6,1.5-6.5,2.7l-1.6-1C121.8,55,122,53.6,122.3,52.4z"/>
    <path fill="#FFDD00" d="M123.2,58.3c-1.1,0.7-2.1,1.5-3,2.4l-12.6-12.4L123.2,58.3z"/>
    <path fill="#FFDD00" d="M107.4,48.5l12.4,12.6c-0.9,0.9-1.7,1.9-2.5,3L107.4,48.5z"/>
    <path fill="#FFDD00" d="M114.2,71.7c-0.2,1.3-0.4,2.5-0.4,3.9l-17.7,0.1L114.2,71.7z"/>
    <path fill="#FFDD00" d="M96.2,76l17.7,0.1c0,1.3,0.1,2.6,0.4,3.9L96.2,76z"/>
    <path fill="#FFDD00" d="M114.3,71.2l-1.8,0.4c-1.6-1.2-2.4-2.3-3.1-3.3c-0.5-0.8-1-1.5-1.7-2c-0.8-0.6-2-0.9-3.1-1.1&#xA;&#x9;&#x9;c-1.2-0.3-2.5-0.6-3.3-1.3c-1.4-1.2-2.1-3.2-1.8-4.9c0.6,0.7,1.9,2.2,3.9,2.8c1.6,0.5,2.7,0.2,3.8,0c0.8-0.2,1.6-0.4,2.5-0.2&#xA;&#x9;&#x9;s1.7,0.7,2.5,1.2s1.5,1,2.3,1.1c1.4,0.2,1.8,0.1,2,0l0.4,0.6C115.8,66.6,114.9,68.8,114.3,71.2z"/>
    <path fill="#FFDD00" d="M115,81c-0.4-1.7-0.6-3.4-0.6-5.1c0-5.5,2.1-10.7,6-14.6s9.1-6,14.6-6s10.7,2.1,14.6,6&#xA;&#x9;&#x9;c3.9,3.9,6,9.1,6,14.6c0,1.7-0.2,3.4-0.6,5.1H115z"/>
    <path fill="#FFDD00" d="M152.9,64.6l1-1.6c2-0.3,3.3-0.1,4.5,0.2c0.9,0.2,1.7,0.3,2.6,0.2c1-0.2,2-0.8,2.9-1.4&#xA;&#x9;&#x9;c1.1-0.6,2.2-1.3,3.2-1.4c1.9-0.2,3.8,0.8,4.7,2.2c-0.9-0.1-2.9-0.2-4.8,0.8c-1.5,0.8-2.1,1.8-2.7,2.7c-0.4,0.7-0.9,1.4-1.6,1.9&#xA;&#x9;&#x9;c-0.8,0.5-1.7,0.7-2.6,0.9c-0.9,0.2-1.8,0.3-2.4,0.8c-1.1,0.8-1.3,1.1-1.4,1.4l-0.7-0.2C155,68.8,154.1,66.6,152.9,64.6z"/>
    <path fill="#FFDD00" d="M155.7,80c0.3-1.3,0.4-2.6,0.4-3.9l17.7-0.1L155.7,80z"/>
    <path d="M136,64.5h8l-1.4-2.3l-4.6,1c0.9-1,0.7-3.5-3.1-3.6l0,0l0,0l0,0l0,0c-3.8,0-4,2.6-3.1,3.6l-4.6-1l-1.4,2.3h8&#xA;&#x9;&#x9;c-2-1-1-2.5,1.1-2.5S138,63.5,136,64.5z"/>
    <path d="M114.5,175.8c-1.3-1-2.5-0.5-3,0.1c-0.4,0.4-6.7,8-7.8,9.3c-0.2-0.2-0.5-0.4-0.9-0.8c-1.4-1.5-3.6-3.8-5-4.6h-0.1&#xA;&#x9;&#x9;c-0.7-0.6-1.5-0.9-2.4-1c-0.9,0-1.8,0.3-2.5,0.9c-1.1,1-1.4,2.5-0.9,3.8l0.1,0.2h0.2l0.5-0.1h0.2v-0.2c0-0.3,0.1-0.6,0.4-0.8&#xA;&#x9;&#x9;c0.4-0.3,0.9-0.4,1.3-0.1c0.1,0.4,0.3,0.8,0.6,1.1c0.6,0.6,1.3,0.8,2.2,0.5l1.4,1.3c-2.3-0.1-6.9-0.1-7.2-0.1c-0.1,0-0.2,0-0.3,0&#xA;&#x9;&#x9;c-1.2-0.1-1.8-0.1-2.5,0.3c-0.8,0.4-1.5,1.1-1.8,2c-0.5,1.4-0.1,2.8,1,3.8l0.1,0.1l0.2-0.1l0.4-0.3l0.2-0.1l-0.1-0.2&#xA;&#x9;&#x9;c-0.1-0.3-0.2-0.6-0.1-0.9c0.2-0.5,0.7-0.8,1.2-0.7c0.3,0.3,0.6,0.5,1.1,0.6c0.6,0.2,1.2,0.1,1.7-0.2s0.8-0.7,1-1.2&#xA;&#x9;&#x9;c1.5,0.1,2.6,0.4,3.2,0.5l-4,1.7c-0.3,0.1-0.5,0.1-0.6,0.2c-1.1,0.3-1.7,0.7-2.2,1.5s-0.8,1.7-0.6,2.6c0.2,1.4,1.3,2.5,2.7,2.9h0.2&#xA;&#x9;&#x9;l0.1-0.2l0.2-0.4l0.1-0.2l-0.2-0.1c-0.3-0.2-0.4-0.5-0.5-0.8c-0.1-0.4,0.1-0.8,0.4-1.1c0.3,0.1,0.6,0.1,0.9,0.1&#xA;&#x9;&#x9;c1.1-0.1,2-1,2.1-2.3l0,0c1.1-0.5,3.8-1.6,6.6-1.9c2.6-0.2,4-0.2,4.8-0.2h0.2c0.3,0,0.5,0,0.6,0.2c0.1,0.1,0.1,0.2,0.1,0.4&#xA;&#x9;&#x9;c0,0.4-0.1,1.2-0.1,1.5c-0.4,0.4-0.6,0.9-0.7,1.5c0,0.3,0,0.7,0.2,1c0,0.5-0.4,1-0.9,1.1c-0.3,0.1-0.7,0-1-0.1l-0.2-0.1l-0.1,0.2&#xA;&#x9;&#x9;l-0.4,0.4l-0.1,0.2l0.1,0.2c1,1.3,2.6,1.8,4.1,1.4c1-0.3,1.8-0.9,2.4-1.8c0.5-0.9,0.6-1.9,0.5-2.9c0-0.3,0-0.7,0-0.9&#xA;&#x9;&#x9;c0-3.6-1.7-5.1-3.2-5.6l7-8.8l0,0l0,0C115.3,177.8,115.6,176.6,114.5,175.8z"/>
    <path fill="#E63329" d="M108.2,197.9c-1.3,0.3-2.6-0.1-3.4-1l0.1-0.1c0.4,0.2,0.8,0.2,1.2,0.1c0.5-0.1,1-0.5,1.2-1l0,0&#xA;&#x9;&#x9;c0.5,0.5,1.8,1.2,3,0.3l0.1-0.1c0,0.1-0.1,0.1-0.1,0.2C109.8,197.1,109.1,197.7,108.2,197.9z"/>
    <path fill="#E63329" d="M91.5,185.7L91.5,185.7c-0.6-0.1-1.5,0.3-1.8,1.3c-0.1,0.4-0.1,0.9,0.2,1.3c0.2,0.4,0.6,0.7,1.1,0.8&#xA;&#x9;&#x9;c0.4,0.1,0.9,0.1,1.3-0.2c0.4-0.2,0.7-0.6,0.8-1.1l0.1-0.2h0.2c2.8,0.2,4.2,0.8,4.2,0.8l0.6,0.2l-0.6,0.2l-4.8,2&#xA;&#x9;&#x9;c-1.2,0.3-1.7,1-1.6,2c0,0.5,0.3,0.9,0.6,1.2c0.4,0.3,0.8,0.4,1.3,0.4c0.9-0.1,1.6-0.9,1.6-1.9v-0.2l0.2-0.1l0.2-0.1&#xA;&#x9;&#x9;c1.2-0.5,3.9-1.7,6.7-1.9c2.7-0.2,4.1-0.2,4.8-0.2h0.2c0.4,0,0.7,0.1,1,0.3c0.2,0.2,0.3,0.4,0.3,0.7c0,0.5-0.1,1.6-0.1,1.6v0.1&#xA;&#x9;&#x9;l-0.1,0.1c-0.3,0.3-0.6,0.7-0.6,1.2s0.1,0.9,0.4,1.2c0,0,1.2,1.1,2.3,0.3c0.9-0.7,0.8-1.5,0.8-2.3c0-0.1,0-0.2,0-0.4&#xA;&#x9;&#x9;c0-2.8-1.1-4.9-3.2-5.5l-0.4-0.1l0.2-0.3l7.2-9.1l0,0c0,0,0.6-1.1-0.3-1.9c-1.1-0.8-2-0.3-2.3,0c-0.4,0.5-7.7,9.2-8,9.5l-0.2,0.2&#xA;&#x9;&#x9;l-0.2-0.1c-0.2-0.1-0.6-0.4-1.2-1c-1.3-1.4-3.5-3.7-4.9-4.5c-0.6-0.3-1.5-0.3-2.1,0.4s-0.6,1.8,0.1,2.4c0.6,0.6,1.3,0.5,1.8,0.4&#xA;&#x9;&#x9;h0.1l0.1,0.1l2.1,1.9l0.8,0.6l-0.9-0.1C97.7,185.7,91.6,185.7,91.5,185.7L91.5,185.7L91.5,185.7L91.5,185.7z"/>
    <path d="M108.5,114.2l-0.1-0.5c-0.8,0.4-2,0.3-2.6,0c1.1-0.1,2-0.8,2.8-1.5c0.4-0.4,0.7-1,0.7-1.6c0-0.5-0.2-1-0.6-1.4&#xA;&#x9;&#x9;s-0.9-0.6-1.4-0.6s-0.9,0.2-1.3,0.5c-0.5-1.2-1.8-2.3-3-2.3h-3.1c-0.9,0-1.2,0.7-1.2,1.2v0.4h-0.2c-0.3-0.5-1.4-2.3-1.7-3.4&#xA;&#x9;&#x9;c-0.2-0.5-0.1-1,0.1-1.4c0.2-0.2,0.4-0.4,0.7-0.4h7l0.3-0.5h-7.3c-0.4,0-0.8,0.2-1.1,0.6c-0.3,0.5-0.4,1.1-0.2,1.8&#xA;&#x9;&#x9;c0.4,1.3,1.8,3.6,1.9,3.6l0.1,0.1h0.1H99h0.3v-0.3V108c0-0.1,0-0.4,0.2-0.5c0.1-0.1,0.3-0.2,0.5-0.2h3.1c1,0,2.3,1.1,2.6,2.3&#xA;&#x9;&#x9;l0.5,0.1c0.3-0.4,0.7-0.6,1.2-0.6c0.4,0,0.8,0.2,1.1,0.4c0.3,0.3,0.4,0.7,0.4,1.1s-0.2,0.9-0.5,1.2c-0.8,0.7-1.7,1.4-2.8,1.4h-0.1&#xA;&#x9;&#x9;l-0.1,0.1l-0.2,0.2l-0.1,0.2l0.2,0.2C105.9,114.5,107.3,114.7,108.5,114.2"/>
    <path fill="#E63329" d="M104.5,103.3c0,0,3.3,2.2,4.6,3.3c1,0.8,1.6,2,1.6,3.3c0,1.6-0.9,3.1-2.3,3.8c-0.8,0.4-2,0.3-2.6,0&#xA;&#x9;&#x9;c1.1-0.1,2-0.8,2.8-1.5c0.4-0.4,0.7-1,0.7-1.6c0-0.5-0.2-1-0.6-1.4s-0.9-0.6-1.4-0.6s-0.9,0.2-1.3,0.5c-0.5-1.2-1.8-2.3-3-2.3h-3.1&#xA;&#x9;&#x9;c-0.9,0-1.2,0.7-1.2,1.2v0.4h-0.2c-0.3-0.5-1.4-2.3-1.7-3.4c-0.2-0.5-0.1-1,0.1-1.4c0.2-0.2,0.4-0.4,0.7-0.4&#xA;&#x9;&#x9;C97.5,103.3,104.5,103.3,104.5,103.3z"/>
    <path d="M130,113.8c0.9-0.6,1.6-1.7,1.6-2.9c0-0.1,0-0.3,0-0.4c0,0-0.3,0-0.4,0c-6.5,0-7.3-8.8-16.2-8.8l0,0h-9.4l-1,1.6&#xA;&#x9;&#x9;c0,0,3.3,2.2,4.6,3.3c1,0.8,1.6,2,1.6,3.3c0,1.6-0.9,3.1-2.3,3.8l0.1,0.5c0.4-0.1,0.8-0.2,1.1-0.2c3.8-0.3,7.1,2.6,7.4,6.5&#xA;&#x9;&#x9;c0.1,1-0.1,1.9-0.4,2.8c0.5,0.4,1.2,0.6,1.9,0.6c0.6,0,1.1-0.1,1.6-0.5c-1.6,1.9-2.5,4.3-2.5,7c0,0.9,0.1,1.7,0.3,2.6&#xA;&#x9;&#x9;c-0.9-0.8-2.1-1.3-3.5-1.3c-1.7,0-3.2,0.8-4.2,2c-0.6,0.7-1.4,1.2-2.4,1.2c-0.7,0-1.3-0.2-1.8-0.6c1.2-0.4,2.1-1.5,2.1-2.9&#xA;&#x9;&#x9;c0-0.8-0.2-1.4-0.7-1.9l-24.9-25.9c-3.1-3.4-4.7-6.8-5.5-8.8c-2.5,1.5-4.1,4.2-4.1,7.3c0,2.8,1.3,5.2,3.4,6.8L95,125.2l0.2,0.1&#xA;&#x9;&#x9;c-0.2,0.4-0.4,0.8-0.6,1.3c-0.4-0.2-8.1-4.8-11.9-7s-6.2-4-9.8-8c-0.8,1.3-1.3,2.8-1.3,4.5c0,3.1,1.7,5.8,4.2,7.3l17.5,8&#xA;&#x9;&#x9;c-0.1,0.6-0.1,1.2-0.1,1.8c0,0,0,0,0,0.1c-0.7-0.1-7-0.9-8.1-1.1c-1.2-0.2-7.4-1.2-14.2-4c0,0.3,0,0.6,0,0.9c0,4.7,3.8,8.4,8.4,8.4&#xA;&#x9;&#x9;h14.4c0.2,0.6,0.3,1.2,0.6,1.7c-0.3,0.1-12.1,2.8-14.1,3.2s-7,1.3-8.9,1.1c0.9,3.7,4.2,6.4,8.2,6.4c1.1,0,2.1-0.2,3-0.6l14-6l0,0&#xA;&#x9;&#x9;c0.3,0.4,0.5,0.7,0.8,1.1l0,0c0,0-12.8,11.2-14.6,12.5c-1.8,1.3-3.7,2.9-7.4,4.6c1.6,1.8,3.9,3,6.4,3c2.6,0,5-1.2,6.5-3.1l12.5-14&#xA;&#x9;&#x9;l0,0c0.4,0.3,0.9,0.6,1.3,0.8L96.5,160c-1.9,4.1-4.5,10-8.8,14.4c1.3,0.8,2.7,1.2,4.3,1.2c3.9,0,7.1-2.6,8.1-6.1l5.8-19.6&#xA;&#x9;&#x9;c0.7,0.2,1.5,0.3,2.3,0.4c-0.1,0.9-0.5,6-1.5,11.8c0.3,0,0.5,0.1,0.8,0.1c2.9,0,5.3-2.4,5.3-5.3l-0.3-6.5l0,0&#xA;&#x9;&#x9;c2.6-0.3,5-1.2,7.1-2.5l3,8.5c-3.2,1.1-6.4,3.3-8.6,6.3c-2.6,3.4-3.7,6.2-8.8,8c1,0.9,2.3,1.5,3.7,1.5c0.2,0,0.4,0,0.6,0&#xA;&#x9;&#x9;c1.5,3.8,5.2,6.5,9.5,6.8c0-0.1,0-0.2,0-0.2c0-4.7,3-8.7,7.1-10.3c0.6,5,0.3,10-5.7,15.4c-2.1,1.9-3.6,4.4-3.6,7.4&#xA;&#x9;&#x9;c0,0.5,0,1,0.1,1.4c1.8-1.9,4.7-3.7,7.2-3.7c-1.3,1.5-3.8,3.4-6.2,6.2c-1.4,1.6-2.2,3.7-2.2,6c0,3.6,2.1,6.8,5.2,8.3&#xA;&#x9;&#x9;c-0.1-1.7-0.1-3.4,0.8-5.7c0.9-2.4,6.5-6,7.2-12.3c0.3,1.2,0.7,2.5,0.7,3.8c0,5.1-2,8.2-5.3,12.8c0.7,0.3,1.4,0.5,2.1,0.5&#xA;&#x9;&#x9;c0.9,0,1.8-0.3,2.6-0.7c0.8,4,2.9,7.5,5.8,10.2v-100C133.7,116.1,132,114.6,130,113.8z"/>
    <path fill="#FFDD00" stroke="#1D1D1B" stroke-width="0.3004" d="M112.5,104.6h1.6v-1.2h-6.6v1.2h1.6c0,0.9,0.8,1.7,1.7,1.7&#xA;&#x9;&#x9;C111.7,106.3,112.5,105.5,112.5,104.6L112.5,104.6z"/>
    <path fill="#E63329" d="M95,180.3c-0.4,0.4-0.6,1-0.6,1.6c-0.1,0-0.1-0.1-0.1-0.1c-0.5-0.1-1,0-1.4,0.4c-0.3,0.3-0.5,0.6-0.5,1&#xA;&#x9;&#x9;h-0.1c-0.3-1.1,0-2.3,0.8-3.1c0.6-0.5,1.4-0.8,2.2-0.8c0.1,0,0.3,0,0.4,0l0.7,0.2C95.9,179.6,95.4,179.8,95,180.3z"/>
    <path fill="#E63329" d="M88.1,189.6c-0.1,0.4-0.1,0.8,0,1.1H88c-0.8-0.8-1.1-2-0.7-3.1c0.3-0.8,0.8-1.4,1.6-1.7&#xA;&#x9;&#x9;c0.1-0.1,0.2-0.1,0.5-0.2c0.5-0.1,0.8-0.1,0.8-0.1c-0.4,0.2-0.8,0.8-1,1.3c-0.2,0.6-0.1,1.2,0.2,1.7c-0.1,0-0.2,0-0.2,0&#xA;&#x9;&#x9;C88.7,188.7,88.3,189.1,88.1,189.6z"/>
    <path fill="#E63329" d="M91.3,196.1c0.1,0.4,0.3,0.7,0.5,1v0.1c-1.1-0.3-1.9-1.3-2.1-2.4c-0.1-0.8,0.1-1.6,0.5-2.3&#xA;&#x9;&#x9;c0.1-0.1,0.1-0.2,0.3-0.3c0.2-0.3,0.5-0.4,0.5-0.4c-0.2,0.4-0.3,0.9-0.3,1.3c0,0.6,0.3,1.2,0.8,1.6c0.1,0.1,0.2,0.1,0.3,0.2&#xA;&#x9;&#x9;C91.4,195.1,91.2,195.6,91.3,196.1z"/>
    <polyline fill="none" stroke="#000000" stroke-width="7.5103" points="179.2,185 179.2,185 179.2,185 179.2,185 179.2,185 &#xA;&#x9;&#x9;179.2,185 179.2,185 &#x9;"/>
    <line fill="none" stroke="#E20613" stroke-width="0.3281" x1="126.3" y1="191.3" x2="119.7" y2="197.8"/>
    <rect x="106.5" y="100.1" fill="#E63329" width="8" height="1.5"/>
    <rect x="134.7" y="82.7" width="0.5" height="146.2"/>
    <polygon points="179.1,101.8 179.1,104.4 176.1,104.4 176.1,101.8 169,101.8 169,111.8 165.7,111.8 165.7,124.1 169,124.2 &#xA;&#x9;&#x9;169,134.2 176.1,134.2 176.1,131.5 179.1,131.5 179.1,134.2 186.2,134.2 186.2,126.6 183.1,126.6 183.1,124.1 186.2,124.1 &#xA;&#x9;&#x9;186.2,111.9 183.1,111.9 183.1,109.3 186.2,109.3 186.2,101.8 &#x9;"/>
    <polygon fill="#FFDD00" points="185.1,108.3 182,108.3 182,113 185.1,113 185.1,123 182,123 182,127.7 185.1,127.7 185.1,133.1 &#xA;&#x9;&#x9;180.1,133.1 180.1,130.5 175,130.5 175,133.1 170.1,133.1 170.1,123.1 166.8,123.1 166.8,112.9 170.1,112.9 170.1,102.8 175,102.8 &#xA;&#x9;&#x9;175,105.5 180.1,105.5 180.1,102.8 185.1,102.8 &#x9;"/>
    <polygon points="180.1,115.6 180.1,108.4 175,108.4 175,115.6 172.1,115.6 172.1,120.3 175,120.3 175,127.6 180.1,127.6 &#xA;&#x9;&#x9;180.1,120.3 182.9,120.3 182.9,115.6 &#x9;"/>
    <polygon fill="#E63329" points="179.1,126.5 176.1,126.5 176.1,119.3 173.2,119.3 173.2,116.7 176.1,116.7 176.1,109.5 &#xA;&#x9;&#x9;179.1,109.5 179.1,116.7 181.8,116.7 181.8,119.3 179.1,119.3 &#x9;"/>
    <polygon points="124.9,67.1 125.8,66.1 124.9,66.1 123.7,66.1 122.5,66.1 121.6,66.1 122.5,67.1 122.5,77 121.6,78 122.5,78 &#xA;&#x9;&#x9;123.7,78 124.9,78 125.8,78 124.9,77 &#x9;"/>
    <polygon points="138.4,67.1 139.3,66.1 138.4,66.1 137.2,66.1 136,66.1 135.1,66.1 136,67.1 136,70.8 131.4,70.8 131.4,67.1 &#xA;&#x9;&#x9;132.3,66.1 131.4,66.1 130.2,66.1 129,66.1 128.1,66.1 129,67.1 129,77 128.1,78 129,78 130.2,78 131.4,78 132.3,78 131.4,77 &#xA;&#x9;&#x9;131.4,73.3 136,73.3 136,77 135.1,78 136,78 137.2,78 138.4,78 139.3,78 138.4,77 &#x9;"/>
    <polygon points="145.1,75.5 147.1,72 145.1,68.6 149,68.6 147.5,66.1 140.8,66.1 144.2,72 140.8,78 148.5,78 150,75.5 &#x9;"/>
  </g>
</svg>