<?xml version="1.0" encoding="UTF-8" standalone="yes"?>
<svg version="1.2" baseProfile="tiny-ps" viewBox="0 0 80 80" xml:space="preserve" xmlns="http://www.w3.org/2000/svg">
  <title>CapitalBlueCross_Icon</title>
  <rect x="-3.1" y="-5.4" fill="#FFFFFF" width="86.3" height="88.7"/>
  <g>
    <g>
      <path fill="#0071CE" d="M61.7,65c0,1.5-0.9,2.4-2.4,2.4c-1.4,0-2.4-1-2.4-2.4s1-2.4,2.4-2.4C60.8,62.6,61.7,63.5,61.7,65 M57.3,65&#xA;&#x9;&#x9;&#x9;c0,1.3,0.8,2.1,2,2.1s2-0.8,2-2.1c0-1.3-0.8-2.1-2-2.1C58.1,62.9,57.3,63.7,57.3,65 M59.4,63.4c0.7,0,1,0.3,1,0.9&#xA;&#x9;&#x9;&#x9;c0,0.3-0.2,0.6-0.5,0.7v0c0.2,0,0.3,0.2,0.4,0.5l0.3,0.9H60l-0.3-0.8c-0.1-0.3-0.2-0.4-0.6-0.4h-0.4v1.2h-0.6v-3L59.4,63.4&#xA;&#x9;&#x9;&#x9;L59.4,63.4z M58.8,64.8h0.4c0.4,0,0.6-0.2,0.6-0.5c0-0.3-0.2-0.4-0.6-0.4h-0.5V64.8z M52.2,27.8V12.6H27.9v15.2H12.7v24.3h15.2&#xA;&#x9;&#x9;&#x9;v15.2h24.3V52.1h15.2V27.8H52.2z"/>
      <path fill="#FFFFFF" d="M39.2,41.6l-7.3,10.9c2.4,1.6,5.2,2.5,8.3,2.5c3,0,5.9-0.9,8.3-2.5L41,41.6C40.5,40.9,39.7,40.8,39.2,41.6&#xA;&#x9;&#x9;&#x9; M40.1,52.9c-1.9,0-3.7-0.4-5.3-1.1l5.1-7.7C39.9,44,40,44,40.1,44c0.1,0,0.1,0,0.2,0.1l5.1,7.7C43.8,52.5,42,52.9,40.1,52.9&#xA;&#x9;&#x9;&#x9; M37.7,38.9c0.5-1.1,0.3-2.9-1.6-3.2l-10.1-1c-0.6,1.6-1,3.4-1,5.3c0,4.8,2.3,9.1,5.8,11.8l0,0L37.7,38.9z M30.3,48.4&#xA;&#x9;&#x9;&#x9;c-1.9-2.3-3.1-5.2-3.1-8.4c0-1.1,0.1-2.1,0.4-3.1l7.6,0.7c0.6,0,0.6,0.3,0.5,0.6L30.3,48.4z M42.5,38.9l6.9,13l0,0&#xA;&#x9;&#x9;&#x9;c3.5-2.8,5.8-7,5.8-11.8c0-1.9-0.3-3.6-1-5.3l-10.1,1C42.2,35.9,42,37.8,42.5,38.9 M45,37.6l7.6-0.7c0.2,1,0.4,2,0.4,3.1&#xA;&#x9;&#x9;&#x9;c0,3.2-1.2,6.2-3.1,8.4l-5.4-10.2C44.4,37.9,44.5,37.7,45,37.6 M40.1,25c-6,0-11.2,3.5-13.6,8.7h10.7c1.5,0,2.2-0.9,2.2-1.7&#xA;&#x9;&#x9;&#x9;c0-0.9-0.1-1.1-0.8-2.1c-0.8-1-0.2-3,1.5-3c1.7,0,2.3,2,1.5,3c-0.7,0.9-0.8,1.2-0.8,2.1c0,0.7,0.7,1.6,2.2,1.7h10.7&#xA;&#x9;&#x9;&#x9;C51.3,28.5,46.1,25,40.1,25 M37,31.6l-6.8,0c1.6-1.9,3.8-3.3,6.2-4c-0.8,1.3-0.1,2.9,0.6,3.7C37.2,31.4,37.1,31.5,37,31.6&#xA;&#x9;&#x9;&#x9; M43.2,31.6c-0.1,0-0.2-0.2-0.1-0.3c0.7-0.8,1.3-2.4,0.6-3.7c2.5,0.7,4.6,2.1,6.2,4H43.2z"/>
    </g>
  </g>
</svg>