<?xml version="1.0" encoding="utf-8"?>
<!-- Generator: Adobe Illustrator 26.3.1, SVG Export Plug-In . SVG Version: 6.00 Build 0)  -->
<svg version="1.2" baseProfile="tiny-ps" id="Ebene_1" xmlns="http://www.w3.org/2000/svg" xmlns:xlink="http://www.w3.org/1999/xlink"
	  viewBox="0 0 100 100"  xml:space="preserve">
<title>CHECK24</title>
<path fill="#063773" d="M0,0h100v100H0V0z"/>
<g>
	<g>
		<path fill="#FFFFFF" d="M19.8,54.6L19.8,54.6c-1.1,0-2.3,0-3-0.4c-0.4-0.2-0.7-0.4-0.9-0.7c-0.2-0.3-0.3-0.8-0.3-1.4
			c0-0.4,0.1-1,0.2-1.5c0-0.1,0.7-3.2,0.7-3.4c0.2-0.6,0.4-1.2,0.7-1.6c0.5-0.8,1.1-1.3,2-1.6c0.7-0.2,1.7-0.4,3.1-0.4h0
			c0.7,0,1.3,0.1,1.8,0.2c0.6,0.1,1,0.3,1.3,0.6c0.2,0.2,0.4,0.5,0.4,0.7c0,0.1,0,0.3,0,0.5c0,0.4-0.1,0.8-0.1,1.2
			c0,0.1,0,0.1,0,0.1l0,0h-2.7l0,0c0,0,0-0.1,0-0.1c0,0,0-0.1,0-0.3c0-0.2-0.1-0.4-0.3-0.6C22.6,46,22.4,46,22.2,46
			c-0.2,0-0.5,0-0.7,0c-0.4,0-0.8,0-1.1,0.1c-0.2,0.1-0.4,0.1-0.6,0.3c-0.2,0.2-0.4,0.4-0.5,0.7c-0.1,0.3-0.2,0.7-0.3,1.1l-0.4,1.7
			c-0.1,0.6-0.2,1-0.2,1.3c0,0.2,0,0.4,0.1,0.5c0.1,0.2,0.3,0.4,0.6,0.5c0.3,0.1,0.6,0.1,1.1,0.1c0.3,0,0.6,0,0.8,0
			c0.4,0,0.7-0.2,0.9-0.4c0.2-0.2,0.4-0.6,0.5-1.1l0-0.2h2.6v0c0,0-0.1,0.7-0.2,1c-0.1,0.3-0.2,0.5-0.3,0.8c-0.3,0.6-0.6,1-1.1,1.4
			c-0.5,0.3-1,0.6-1.7,0.7c-0.5,0.1-1.1,0.1-1.7,0.1C20.1,54.6,19.9,54.6,19.8,54.6z"/>
	</g>
	<g>
		<path fill="#FFFFFF" d="M49.5,54.6L49.5,54.6c-1.1,0-2.3,0-3-0.4c-0.4-0.2-0.7-0.4-0.9-0.7c-0.2-0.3-0.3-0.8-0.3-1.4
			c0-0.4,0.1-1,0.2-1.5c0-0.1,0.7-3.2,0.7-3.4c0.2-0.6,0.4-1.2,0.7-1.6c0.5-0.8,1.1-1.3,2-1.6c0.7-0.2,1.7-0.4,3.1-0.4h0
			c0.7,0,1.3,0.1,1.8,0.2c0.6,0.1,1,0.3,1.3,0.6c0.2,0.2,0.4,0.5,0.4,0.7c0,0.1,0,0.3,0,0.5c0,0.4-0.1,0.8-0.1,1.2c0,0,0,0.1,0,0.1
			l0,0h-2.7l0,0c0,0,0-0.1,0-0.1c0,0,0-0.1,0-0.3c0-0.2-0.1-0.4-0.3-0.6C52.3,46,52,46,51.8,46c-0.2,0-0.5,0-0.7,0
			c-0.4,0-0.8,0-1.1,0.1c-0.2,0.1-0.4,0.1-0.6,0.3c-0.2,0.2-0.4,0.4-0.5,0.7c-0.1,0.3-0.2,0.7-0.3,1.1l-0.4,1.7
			c-0.1,0.6-0.2,1-0.2,1.3c0,0.2,0,0.4,0.1,0.5c0.1,0.2,0.3,0.4,0.6,0.5c0.3,0.1,0.6,0.1,1.1,0.1c0.3,0,0.6,0,0.8,0
			c0.4,0,0.7-0.2,0.9-0.4c0.2-0.2,0.4-0.6,0.5-1.1l0-0.2h2.6v0c0,0-0.1,0.7-0.2,1c-0.1,0.3-0.2,0.5-0.3,0.8c-0.3,0.6-0.6,1-1.1,1.4
			c-0.5,0.3-1,0.6-1.7,0.7C50.9,54.6,49.5,54.6,49.5,54.6z"/>
	</g>
	<g>
		<path fill="#FFFFFF" d="M43.7,54.5H36l0,0l2.2-10.1c0-0.2,0.1-0.3,0.2-0.4c0.1-0.1,0.3-0.1,0.5-0.1h6.5c0.2,0,0.3,0,0.3,0.1
			c0.1,0.1,0.1,0.1,0.1,0.2v0c0,0,0,0.1,0,0.1l-0.3,1.6h-5L40,48h4.7l-0.4,2h-4.7l-0.5,2.5h5.1L43.7,54.5z"/>
	</g>
	<g>
		<path fill="#FFFFFF" d="M57.5,54.5H55l0,0l2.1-10.1c0.1-0.2,0.1-0.4,0.3-0.5c0.1-0.1,0.2-0.1,0.4-0.1h1.5c0.2,0,0.3,0,0.4,0.1
			c0.1,0.1,0.1,0.1,0.1,0.2c0,0,0,0.1,0,0.1L57.5,54.5z"/>
	</g>
	<g>
		<path fill="#FFFFFF" d="M64.6,54.5h-3.2l0,0L59,49l0,0l4.1-4.5c0.3-0.3,0.4-0.4,0.5-0.5c0.1-0.1,0.3-0.1,0.5-0.1h2.1
			c0.1,0,0.2,0,0.2,0.1c0,0,0,0,0,0.1c0,0,0,0,0,0v0c0,0,0,0.1-0.1,0.2L61.9,49L64.6,54.5z"/>
	</g>
	<g>
		<path fill="#FFFFFF" d="M32.2,54.5L32.2,54.5L32.2,54.5l0.9-4.3h-4.2l-0.9,4.3h-2.6l0,0c0.1-0.4,2.1-10,2.1-10.1
			c0.1-0.3,0.2-0.4,0.3-0.5c0.1-0.1,0.3-0.1,0.5-0.1h1.4c0.1,0,0.2,0,0.3,0.1c0,0,0.1,0.1,0.1,0.1c0,0.1,0,0.1,0,0.2
			c0,0,0,0.1,0,0.1c0,0.1-0.7,3.3-0.8,3.7h4.2c0.3-1.6,0.8-3.6,0.8-3.6c0.1-0.3,0.2-0.4,0.3-0.5c0.1-0.1,0.3-0.1,0.5-0.1h1.4
			c0.1,0,0.2,0,0.3,0.1c0,0,0.1,0.1,0.1,0.1c0,0.1,0,0.1,0,0.2c0,0,0,0.1,0,0.1c0,0.1-2.1,9.8-2.2,10.2l0,0L32.2,54.5z"/>
	</g>
	<g>
		<path fill="#FFFFFF" d="M72.2,45.9c0.2,0.1,0.4,0.1,0.4,0.3l0,0c0.1,0.1,0.1,0.2,0.1,0.4l0,0c0,0.2,0,0.3-0.1,0.6l0,0
			c-0.1,0.3-0.1,0.5-0.2,0.7l0,0c-0.1,0.2-0.2,0.4-0.4,0.5l0,0c-0.4,0.3-0.9,0.4-1.9,0.7l0,0c-1.3,0.3-2.2,0.5-2.8,0.8l0,0
			c-0.6,0.3-1,0.7-1.3,1.3l0,0c-0.2,0.4-0.3,0.9-0.5,1.5l0,0l-0.4,1.8h8.3l0.4-1.9h-5.8c0,0,0.1-0.4,0.2-0.6l0,0
			c0.1-0.2,0.2-0.4,0.4-0.5l0,0c0.2-0.1,0.4-0.2,0.6-0.3l0,0c0.5-0.1,1.1-0.2,2.1-0.5l0,0c1.2-0.3,2-0.6,2.6-1.2l0,0
			c0.6-0.5,0.9-1.3,1.2-2.5l0,0c0.1-0.4,0.1-0.9,0.1-1.2l0,0c0-0.5-0.1-0.8-0.3-1.1l0,0c-0.2-0.3-0.4-0.5-0.7-0.6l0,0
			c-0.6-0.3-1.5-0.4-2.6-0.4l0,0c-1.4,0-2.4,0.1-3.2,0.6l0,0c-0.8,0.5-1.4,1.4-1.7,2.8l0,0l-0.1,0.4h2.5l0.1-0.5
			c0.1-0.4,0.2-0.7,0.4-0.9l0,0c0.2-0.2,0.4-0.3,0.7-0.4l0,0c0.2,0,0.5,0,0.8,0l0,0c0.1,0,0.1,0,0.1,0l0,0
			C71.7,45.9,72,45.9,72.2,45.9L72.2,45.9z"/>
	</g>
	<g>
		<path fill="#FFFFFF" d="M79.1,44.9c-0.3,0.3-2.8,2.9-3.8,3.9c-0.2,0.2-0.4,0.5-0.5,0.7c-0.1,0.1-0.2,0.5-0.2,0.8
			c-0.1,0.6-0.2,1.1-0.2,1.4c0,0.1,0,0.1,0,0.2c0,0.2,0.1,0.3,0.2,0.4c0.1,0.1,0.2,0.1,0.4,0.1c0.1,0,4.9,0,4.9,0l-0.5,2.1l2.6-0.2
			l0.4-1.9h0.9l0.4-1.9h-0.9c0,0,0.9-4.3,1-4.5c0.3-1.7-0.4-2.3-2-2.3C81.3,43.8,80.3,43.7,79.1,44.9z M80.2,50.5h-3.7l4.4-4.6h0.3
			L80.2,50.5z"/>
	</g>
	<g>
		<path fill="#FFFFFF" d="M73.4,60.5L73.4,60.5c-1.7,0-3.3-0.4-4.6-1.3c-1.3-0.8-2.1-1.8-2.5-2.3l-0.5,1.3c0,0.1-0.2,0.2-0.3,0.2
			c-0.1,0-0.2-0.1-0.2-0.3l0-2.5v0c0-0.1,0-0.1,0.1-0.2c0.1,0,0.1-0.1,0.2-0.1H68h0c0.1,0,0.2,0.1,0.3,0.2c0,0,0,0,0,0
			c0,0.1-0.1,0.2-0.2,0.2l-1.2,0.5c1.1,1,3.3,2.5,6.4,2.5c0.3,0,0.5,0,0.8,0c1.3-0.1,2.6-0.4,3.8-0.9c1-0.4,2-1,2.7-1.6l-1.3-0.4
			c-0.1,0-0.2-0.1-0.2-0.3c0,0,0,0,0,0c0-0.1,0.1-0.2,0.2-0.2l2.4-0.2c0,0,0,0,0,0c0.1,0,0.1,0,0.2,0.1c0.1,0,0.1,0.1,0.1,0.2
			c0.2,2.4,0.2,2.4,0.2,2.4c0,0.1-0.1,0.2-0.2,0.3c0,0,0,0-0.1,0c-0.1,0-0.2-0.1-0.2-0.1l-0.6-1.1c-0.5,0.6-1.3,1.5-2.6,2.3
			c-1.3,0.8-2.8,1.3-4.3,1.4l-0.2,0l0,0C73.8,60.5,73.6,60.5,73.4,60.5z"/>
	</g>
</g>
</svg>
