<?xml version="1.0" encoding="utf-8"?>
<!-- Generator: Adobe Illustrator 26.2.1, SVG Export Plug-In . SVG Version: 6.00 Build 0)  -->
<svg version="1.2" baseProfile="tiny-ps" id="Layer_1" xmlns="http://www.w3.org/2000/svg" xmlns:xlink="http://www.w3.org/1999/xlink"
	 viewBox="0 0 1000 1000" xml:space="preserve">
	 <title>Vantage Bank</title>
<g>
	<rect x="-0.5" y="0.5" fill="#FFFFFF" width="1001" height="999"/>
	<path d="M1000,1v998H0V1H1000 M1001,0H-1v1000h1002V0L1001,0z"/>
</g>
<g>
	<g>
		<path fill="#002F55" d="M129.6,666.6l-11.3,0.3c-4.4,0.1-6.2,0.6-7.3,2.3c-0.8,1.1-1.1,2.1-1.3,2.6c-0.2,0.6-0.3,1-0.9,1
			c-0.5,0-0.7-0.5-0.7-1.3c0-1.3,1.5-8.6,1.6-9.2c0.2-1,0.4-1.4,0.9-1.4c0.6,0,1.4,0.6,3.3,0.9c2.2,0.3,5.1,0.4,7.6,0.4h30.7
			c2.4,0,4.1-0.2,5.2-0.4c1.2-0.2,1.8-0.4,2.1-0.4c0.5,0,0.6,0.5,0.6,1.6c0,1.6-0.2,7.3-0.2,9.2c-0.1,0.8-0.3,1.3-0.7,1.3
			c-0.6,0-0.8-0.4-0.9-1.5l-0.1-0.8c-0.2-2-2.2-4.3-8.9-4.4l-9.5-0.2v30.8c0,7,0.1,13,0.4,16.3c0.3,2.1,0.7,3.6,2.9,3.9
			c1,0.2,2.7,0.3,3.9,0.3c0.9,0,1.2,0.4,1.2,0.8c0,0.6-0.6,0.8-1.5,0.8c-5,0-10.1-0.3-12.2-0.3c-1.7,0-6.9,0.3-9.9,0.3
			c-1,0-1.5-0.3-1.5-0.8c0-0.4,0.3-0.8,1.2-0.8c1.1,0,2.1-0.1,2.7-0.3c1.5-0.4,2-1.8,2.2-4c0.3-3.2,0.3-9.2,0.3-16.2V666.6z"/>
		<path fill="#002F55" d="M216.3,683.9c0-11.5,0-13.7-0.1-16.1c-0.2-2.6-0.9-3.4-3.3-4.1c-0.6-0.2-1.9-0.3-3-0.3
			c-0.8,0-1.3-0.3-1.3-0.8c0-0.5,0.6-0.7,1.7-0.7c4,0,8.8,0.2,10.9,0.2c2.4,0,19.2,0.1,20.6,0c1.4-0.1,2.6-0.4,3.2-0.4
			c0.4-0.1,0.9-0.4,1.2-0.4c0.4,0,0.5,0.4,0.5,0.7c0,0.5-0.4,1.4-0.6,4.9c-0.1,0.8-0.3,4.1-0.4,5c-0.1,0.3-0.3,1.2-0.9,1.2
			c-0.5,0-0.6-0.4-0.6-1c0-0.5-0.1-1.9-0.5-2.8c-0.6-1.3-1.2-2.4-5-2.8c-1.3-0.2-10.3-0.4-11.9-0.4c-0.4,0-0.5,0.3-0.5,0.7v18.8
			c0,0.5,0.1,0.8,0.5,0.8c1.7,0,11.5,0,13.2-0.2c1.8-0.2,2.8-0.4,3.6-1.1c0.6-0.6,0.9-1,1.2-1c0.3,0,0.6,0.4,0.6,0.8
			c0,0.4-0.2,1.7-0.6,5.5c-0.2,1.5-0.4,4.6-0.4,5.1c0,0.6-0.1,1.7-0.8,1.7c-0.5,0-0.7-0.3-0.7-0.6c-0.1-0.8-0.1-1.8-0.3-2.8
			c-0.4-1.5-1.4-2.7-4.2-3c-1.4-0.2-10-0.4-11.9-0.4c-0.3,0-0.4,0.4-0.4,0.8v6.1c0,2.6-0.1,9,0,11.3c0.2,5.2,2.5,6.4,10.2,6.4
			c2,0,5.2-0.1,7.1-1c1.9-0.9,2.8-2.5,3.3-5.6c0.2-0.8,0.4-1.1,0.9-1.1c0.6,0,0.7,1,0.7,1.8c0,1.7-0.6,6.9-1,8.4c-0.5,2-1.2,2-4,2
			c-5.7,0-10.2-0.1-13.9-0.3c-3.7-0.1-6.5-0.2-8.8-0.2c-0.9,0-2.5,0.1-4.3,0.1c-1.8,0.1-3.7,0.2-5.2,0.2c-0.9,0-1.5-0.3-1.5-0.8
			c0-0.4,0.3-0.8,1.2-0.8c1.1,0,2-0.1,2.7-0.3c1.5-0.4,2-1.8,2.2-4c0.3-3.2,0.3-9.2,0.3-16.2V683.9z"/>
		<path fill="#002F55" d="M328.9,687.5c2.4,3.8,15,24.4,16.9,26.9c1.3,1.7,2.5,2.5,4.1,3c1,0.4,2.2,0.5,2.9,0.5
			c0.5,0,0.9,0.4,0.9,0.8c0,0.6-0.6,0.8-1.5,0.8h-2.2c-1.8,0-7.8,0-14-0.2c-2-0.1-2.7-0.3-2.7-0.8c0-0.4,0.3-0.8,1-1
			c0.3-0.1,0.9-0.6,0.2-1.6c-4.4-7.4-8.5-14.6-12-20.4l-11.1,17.9c-0.8,1.3-1.2,2.4-1.1,3.2c0.1,0.7,0.8,1.2,1.5,1.2
			c0.4,0,1,0.1,1.6,0.1c0.4,0,1,0.4,1,0.9c0,0.5-0.5,0.7-1.5,0.7h-1.4c-0.4,0-5.4-0.3-7.3-0.3c-1.5,0-5.2,0.3-6.4,0.3h-1.3
			c-0.8,0-1.1-0.3-1.1-0.7c0-0.5,0.4-0.9,1-0.9c0.5,0,1.6-0.1,2.7-0.3c2.2-0.6,3.4-1.9,6-5.6l14.8-20.8l-13.3-21.7
			c-1.9-3-3.4-4.7-6.1-5.6c-1.2-0.3-2.4-0.5-3.2-0.5c-0.4,0-0.8-0.4-0.8-0.9c0-0.4,0.6-0.6,1.6-0.6c1.8,0,7.9,0.2,11.5,0.2
			c1,0,5.7-0.2,8.5-0.2c1,0,1.6,0.2,1.6,0.7c0,0.5-0.5,0.8-1.2,0.8c-0.4,0-1.2,0.1-1.8,0.3c-0.7,0.2-1,0.6-1,1.1
			c0,0.5,0.4,1.4,0.8,2.2c3.4,6.1,6.5,11.4,9.5,16.6c2.2-3.4,8.9-13.7,10.2-15.8c0.6-1.1,0.9-2.2,0.9-2.8c0-0.5-0.5-1.1-1.3-1.3
			c-0.8-0.3-1.8-0.3-2.4-0.3c-0.4,0-0.9-0.3-0.9-0.8c0-0.5,0.5-0.7,1.6-0.7c2.9,0,6.5,0.2,7.9,0.2c1.5,0,4.6-0.2,7.4-0.2
			c0.9,0,1.4,0.2,1.4,0.7c0,0.5-0.4,0.8-1.2,0.8c-0.8,0-1.7,0.2-2.7,0.4c-1.7,0.5-3.1,2.5-5.4,5.8L328.9,687.5z"/>
		<path fill="#002F55" d="M408,700.2c-0.4,0-0.5,0.1-0.7,0.5l-4.1,10.3c-0.8,1.9-1.1,3.7-1.1,4.6c0,1.3,0.7,2.1,3,2.1h1.1
			c0.9,0,1.1,0.4,1.1,0.8c0,0.6-0.4,0.8-1.2,0.8c-2.5,0-6-0.3-8.4-0.3c-0.8,0-4.8,0.3-8.8,0.3c-1,0-1.4-0.2-1.4-0.8
			c0-0.4,0.2-0.8,0.9-0.8c0.7,0,1.5-0.1,2.2-0.1c3.4-0.5,4.7-2.9,6.3-6.7l19.8-47.6c0.9-2.2,1.5-3,2.2-3c1.1,0,1.5,0.7,2.2,2.4
			c1.8,4.2,14.4,35,19.3,46.5c2.9,6.9,5.1,7.9,6.4,8.1c1.1,0.2,2,0.3,2.8,0.3c0.7,0,1,0.3,1,0.8c0,0.6-0.4,0.8-3.3,0.8
			c-2.7,0-8.2,0-14.5-0.2c-1.4-0.1-2.2-0.1-2.2-0.6c0-0.4,0.2-0.7,0.9-0.8c0.5-0.1,1-0.8,0.7-1.7l-5.9-15.4
			c-0.2-0.4-0.4-0.5-0.8-0.5H408z M424.2,696c0.3,0,0.4-0.2,0.3-0.4l-7.1-19.1c-0.1-0.3-0.2-0.7-0.3-0.7c-0.3,0-0.3,0.4-0.4,0.7
			l-7.3,19c-0.2,0.4,0,0.5,0.3,0.5H424.2z"/>
		<path fill="#002F55" d="M496.5,718.5c-1.2-0.5-1.5-0.9-1.5-2.6c0-4.1,0.3-8.9,0.4-10.1c0-1.2,0.4-2,1-2c0.7,0,0.8,0.7,0.8,1.2
			c0,1,0.3,2.6,0.7,4c1.6,5.6,7.3,7.5,12,7.5c6.5,0,10.5-4.3,10.5-9.7c0-3.3-0.8-6.6-7.5-10.7l-4.4-2.7
			c-8.9-5.5-11.9-10.6-11.9-17.3c0-9.3,8.6-15.3,19.1-15.3c4.9,0,8.8,0.7,10.8,1.2c0.7,0.2,1,0.4,1,1c0,1-0.2,3.1-0.2,9.1
			c0,1.6-0.4,2.4-1,2.4c-0.5,0-0.8-0.5-0.8-1.4c0-0.7-0.3-3-2-5c-1.1-1.4-3.5-3.6-8.4-3.6c-5.4,0-10.3,3-10.3,8.1
			c0,3.4,1.2,6.1,8,10l3.1,1.8c10,5.7,13.1,11.5,13.1,18.4c0,5.6-2.1,10.2-7.6,14.2c-3.6,2.7-8.6,3.1-12.6,3.1
			C504.4,720.5,499.7,720,496.5,718.5z"/>
	</g>
	<path fill="#002F55" d="M114.1,508.9c0-28,0-33.2-0.4-39.1c-0.4-6.3-1.8-9.2-7.7-10.5c-1.4-0.4-4.5-0.5-7-0.5c-2,0-3.1-0.4-3.1-1.7
		c0-1.3,1.3-1.7,4-1.7c9.5,0,20.8,0.5,24.3,0.5c8.8,0,15.8-0.5,21.9-0.5c32.4,0,38.2,17.9,38.2,27.6c0,15.1-8.4,24.2-18.3,32.3
		c14.7,5.2,32.6,18.2,32.6,39.8c0,19.7-14.9,40.2-47.8,40.2c-2.1,0-7.3-0.4-12.5-0.5c-5.4-0.4-10.8-0.6-13.5-0.6
		c-2,0-5.9,0-10.2,0.2c-4.1,0-8.8,0.4-12.4,0.4c-2.3,0-3.6-0.6-3.6-1.8c0-0.9,0.7-1.5,2.9-1.5c2.7,0,4.8-0.3,6.4-0.7
		c3.6-0.7,4.5-4.8,5.2-10.1c0.9-7.7,0.9-22.3,0.9-39.3V508.9z M135.6,512c0,1.5,0.5,1.9,1.2,2c1.6,0.4,4.3,0.6,8.4,0.6
		c5.9,0,9.9-0.7,12.9-3.5c4.7-3.9,7.3-10.5,7.3-19.5c0-12.4-7-28.6-22.4-28.6c-2.5,0-4.1,0-5.9,0.4c-1.3,0.3-1.6,1.1-1.6,3.1V512z
		 M159.3,526.8c-3.8-2.7-7.9-4-14.9-4.4c-3.2-0.2-5-0.2-7.7-0.2c-0.7,0-1.1,0.4-1.1,1.3v43.7c0,12.1,0.5,15.3,6.3,17.7
		c4.9,2,9,2.2,13.1,2.2c8.1,0,21.7-4.4,21.7-23.6C176.7,552,172.9,536.5,159.3,526.8z"/>
	<path fill="#002F55" d="M241,555.3c-0.9,0-1.1,0.2-1.5,1.1l-8.7,21c-1.7,3.9-2.4,7.7-2.4,9.6c0,2.8,1.5,4.4,6.5,4.4h2.4
		c2.1,0,2.4,0.8,2.4,1.7c0,1.3-0.9,1.7-2.6,1.7c-5.4,0-12.9-0.6-18.1-0.6c-1.7,0-10.3,0.6-18.8,0.6c-2,0-3-0.4-3-1.7
		c0-0.9,0.6-1.7,1.9-1.7c1.5,0,3.3-0.2,4.8-0.2c7.4-1.1,10.2-5.9,13.5-13.8l42.5-98.7c1.8-4.4,3.1-6.3,4.8-6.3c2.4,0,3.1,1.5,4.8,5
		c3.9,8.7,31,72.8,41.4,96.6c6.3,14.2,10.9,16.2,13.8,16.8c2.4,0.4,4.3,0.5,6.1,0.5c1.5,0,2.2,0.6,2.2,1.7c0,1.3-0.9,1.7-7,1.7
		c-5.7,0-17.6,0-31.2-0.4c-2.9-0.2-4.8-0.2-4.8-1.3c0-0.9,0.4-1.5,2-1.7c1.1-0.2,2.2-1.7,1.5-3.5L281,556.5
		c-0.4-0.9-0.9-1.1-1.7-1.1H241z M275.8,546.7c0.7,0,0.9-0.4,0.7-0.9l-15.4-39.8c-0.2-0.5-0.4-1.5-0.7-1.5c-0.6,0-0.7,0.9-0.9,1.5
		l-15.7,39.6c-0.4,0.7,0,1.1,0.6,1.1H275.8z"/>
	<path fill="#002F55" d="M367.6,573.4c0.3,12.2,2.2,15.9,5.1,16.9c2.5,0.9,5.4,1.1,7.8,1.1c1.7,0,2.5,0.8,2.5,1.7
		c0,1.3-1.3,1.7-3.4,1.7c-9.7,0-16.6-0.6-19.4-0.6c-1.4,0-8.5,0.6-16.2,0.6c-2,0-3.4-0.2-3.4-1.7c0-0.9,1-1.7,2.4-1.7
		c2,0,4.8-0.2,6.8-0.7c3.9-1.1,4.4-5.4,4.6-19l1.4-92.9c0-3.1,1-5.3,2.6-5.3c1.9,0,3.9,2.4,6.5,5.2c1.9,2,24.3,26.9,46.1,50
		c10.2,10.9,30.1,33,32.3,35.2h0.7l-1.5-69.7c-0.2-9.6-1.5-12.3-5.1-13.8c-2.2-0.9-5.8-0.9-7.8-0.9c-1.9,0-2.4-0.7-2.4-1.7
		c0-1.3,1.5-1.5,3.7-1.5c7.8,0,15.8,0.4,19,0.4c1.7,0,7.3-0.4,14.6-0.4c2,0,3.4,0.2,3.4,1.5c0,0.9-0.9,1.7-2.6,1.7
		c-1.5,0-2.7,0-4.6,0.6c-4.1,1.3-5.3,4-5.5,12.9l-1.7,98.8c0,3.5-1.2,5-2.4,5c-2.6,0-4.6-1.7-6.1-3.3c-9.4-9.4-28.1-28.8-43.7-45.2
		c-16.3-17-32.2-35.9-35.1-38.7h-0.5L367.6,573.4z"/>
	<path fill="#002F55" d="M523.3,528.6h0.7c5.4-5.9,28.3-29.1,33-34.5c4.5-5.2,7.9-8.8,7.9-11.6c0-1.7-0.7-2.8-2.1-3.1
		c-1.4-0.4-2.2-0.7-2.2-1.7c0-1.1,0.9-1.5,2.5-1.5c3.4,0,12,0.4,16.3,0.4c4.9,0,13.6-0.4,18.5-0.4c1.6,0,2.7,0.4,2.7,1.5
		c0,1.1-0.9,1.7-2.3,1.7c-2.3,0-6.3,0.7-9.1,1.8c-5,1.9-10,5.2-16.7,11.6c-5,4.8-28.5,27.7-33.3,33.3c5.5,7.4,36.6,40.6,42.6,46.5
		c7,6.5,13.1,13.3,21.5,16.8c4.7,2,7.9,2,9.7,2c1.3,0,2.2,0.8,2.2,1.7c0,1.1-0.9,1.7-3.8,1.7h-13.8c-4.7,0-7.6,0-11-0.4
		c-8.4-0.7-13.6-4.1-20.4-10.2c-6.8-6.1-37.1-42.2-40.5-47l-1.6-2.2h-0.7v14.2c0,14.4,0,26.7,0.4,33.5c0.4,4.4,1.8,7.4,5.7,8.1
		c2.2,0.4,5.7,0.5,7.7,0.5c1.3,0,2.2,0.9,2.2,1.7c0,1.1-1.3,1.7-3.1,1.7c-8.8,0-20-0.6-24-0.6c-3.6,0-13.6,0.6-19.9,0.6
		c-2,0-3.1-0.6-3.1-1.7c0-0.7,0.6-1.7,2.5-1.7c2.3,0,4.1-0.2,5.5-0.5c3.2-0.7,4.1-3.7,4.7-8.3c0.7-6.7,0.7-19,0.7-33.4v-27.7
		c0-23.8,0-28.2-0.2-33.2c-0.3-5.3-1.8-7-6.8-8.5c-1.2-0.4-3.9-0.6-6.3-0.6c-1.6,0-2.7-0.6-2.7-1.7c0-1.1,1.3-1.5,3.6-1.5
		c8.3,0,18.3,0.4,22.1,0.4c3.8,0,15-0.4,20.2-0.4c2.4,0,3.4,0.4,3.4,1.5c0,1.1-0.9,1.7-2.1,1.7c-1.6,0-2.5,0.2-4.5,0.6
		c-4.3,0.7-5.5,2.9-5.9,8.5c-0.2,5-0.2,9.4-0.2,33.2V528.6z"/>
	<path fill="#002F55" d="M97.5,297.6c-4.1-10.1-7.2-12.2-13.6-14c-2.7-0.7-5.6-0.7-7-0.7c-1.6,0-2.1-0.6-2.1-1.7
		c0-1.5,2-1.7,4.7-1.7c9.5,0,19.7,0.5,26,0.5c4.5,0,13.1-0.5,22-0.5c2.2,0,4.1,0.4,4.1,1.7c0,1.3-1.1,1.7-2.7,1.7
		c-2.9,0-5.5,0.2-7,1.3c-1.3,0.9-1.8,2.2-1.8,3.9c0,2.4,1.6,7.6,4.1,14.2l30.8,83.7h0.7c7.7-20.3,31-79.7,35.3-91.8
		c0.9-2.4,1.6-5.2,1.6-6.8c0-1.5-0.7-3-2.4-3.5c-2.1-0.7-4.8-0.9-7.1-0.9c-1.6,0-3.1-0.2-3.1-1.5c0-1.5,1.6-1.8,5-1.8
		c9,0,16.5,0.5,18.8,0.5c3.1,0,11.5-0.5,16.8-0.5c2.4,0,3.8,0.4,3.8,1.7c0,1.3-1.1,1.7-2.9,1.7c-1.8,0-5.5,0-8.8,2.2
		c-2.3,1.7-5,4.8-9.9,16.6c-7,17.3-11.8,27.3-21.5,50c-11.5,26.9-19.9,47-23.8,56.3c-4.6,10.7-5.7,13.6-8.2,13.6
		c-2.3,0-3.4-2.6-6.8-11.3L97.5,297.6z"/>
	<path fill="#002F55" d="M235.5,380.6c-0.9,0-1.1,0.2-1.4,1.1l-8.4,21c-1.6,3.9-2.3,7.7-2.3,9.6c0,2.8,1.4,4.4,6.3,4.4h2.3
		c2,0,2.4,0.7,2.4,1.7c0,1.3-0.9,1.7-2.5,1.7c-5.2,0-12.6-0.6-17.6-0.6c-1.6,0-10,0.6-18.3,0.6c-2,0-2.9-0.4-2.9-1.7
		c0-0.9,0.6-1.7,1.8-1.7c1.4,0,3.2-0.2,4.7-0.2c7.2-1.1,9.8-5.9,13.1-13.8l41.2-98.7c1.8-4.4,3-6.3,4.7-6.3c2.3,0,3,1.5,4.7,5
		c3.7,8.7,30.1,72.8,40.1,96.6c6.1,14.2,10.6,16.2,13.4,16.8c2.3,0.4,4.1,0.6,5.9,0.6c1.5,0,2.1,0.5,2.1,1.7c0,1.3-0.9,1.7-6.8,1.7
		c-5.6,0-17,0-30.3-0.4c-2.9-0.2-4.7-0.2-4.7-1.3c0-0.9,0.4-1.5,2-1.7c1.1-0.2,2.1-1.7,1.5-3.5l-12.2-31.5c-0.3-0.9-0.9-1.1-1.6-1.1
		H235.5z M269.2,371.9c0.7,0,0.9-0.4,0.7-0.9L255,331.2c-0.2-0.6-0.3-1.5-0.7-1.5c-0.5,0-0.7,0.9-0.9,1.5l-15.2,39.6
		c-0.4,0.8,0,1.1,0.5,1.1H269.2z"/>
	<path fill="#002F55" d="M358.8,398.7c0.3,12.2,2.2,15.8,5,17c2.5,0.9,5.3,1.1,7.7,1.1c1.7,0,2.5,0.7,2.5,1.7c0,1.3-1.4,1.7-3.4,1.7
		c-9.5,0-16.4-0.6-19.1-0.6c-1.3,0-8.3,0.6-15.9,0.6c-2,0-3.3-0.2-3.3-1.7c0-0.9,1-1.7,2.3-1.7c2,0,4.7-0.2,6.7-0.7
		c3.8-1.1,4.3-5.4,4.5-19l1.3-92.9c0-3.2,1-5.4,2.5-5.4c1.8,0,3.8,2.4,6.3,5.2c1.8,2,23.9,26.9,45.3,49.9c10,10.9,29.6,33,31.8,35.2
		h0.7l-1.5-69.7c-0.2-9.6-1.5-12.3-5-13.8c-2.2-0.9-5.7-0.9-7.7-0.9c-1.8,0-2.3-0.7-2.3-1.6c0-1.3,1.5-1.5,3.7-1.5
		c7.7,0,15.6,0.4,18.7,0.4c1.7,0,7.2-0.4,14.4-0.4c2,0,3.3,0.2,3.3,1.5c0,0.9-0.8,1.6-2.5,1.6c-1.5,0-2.7,0-4.5,0.6
		c-4,1.3-5.2,4-5.4,12.9l-1.7,98.8c0,3.5-1.2,5-2.4,5c-2.5,0-4.5-1.7-6-3.3c-9.2-9.4-27.6-28.8-42.9-45.2
		c-16-17-31.6-35.9-34.4-38.7h-0.5L358.8,398.7z"/>
	<path fill="#002F55" d="M516.4,311l-23.5,0.6c-9.2,0.2-12.9,1.3-15.2,4.8c-1.6,2.2-2.3,4.3-2.7,5.4c-0.4,1.3-0.7,2-1.8,2
		c-1.1,0-1.4-0.9-1.4-2.6c0-2.6,3.1-17.7,3.4-19c0.4-2,0.9-3,1.8-3c1.3,0,2.9,1.3,6.8,1.9c4.7,0.5,10.6,0.7,15.8,0.7h64
		c5,0,8.4-0.4,10.7-0.7c2.5-0.4,3.8-0.8,4.3-0.8c1.1,0,1.3,0.9,1.3,3.3c0,3.3-0.4,14.9-0.4,19c-0.2,1.6-0.5,2.6-1.4,2.6
		c-1.3,0-1.6-0.7-1.8-3.2l-0.2-1.6c-0.3-4.1-4.5-8.9-18.6-9l-19.9-0.4v63.4c0,14.4,0.2,26.7,0.9,33.6c0.5,4.4,1.4,7.4,6.1,8.1
		c2.2,0.4,5.7,0.6,8,0.6c1.8,0,2.5,0.9,2.5,1.7c0,1.1-1.2,1.7-3,1.7c-10.4,0-21-0.6-25.4-0.6c-3.6,0-14.3,0.6-20.6,0.6
		c-2,0-3.1-0.6-3.1-1.7c0-0.7,0.5-1.7,2.5-1.7c2.3,0,4.3-0.2,5.5-0.6c3.3-0.7,4.1-3.7,4.7-8.3c0.7-6.6,0.7-19,0.7-33.4V311z"/>
	<path fill="#002F55" d="M815.5,409.5c0,4.2,0,4.4-2,5.5c-10.6,5.3-26.2,7-38.5,7c-38.7,0-72.9-18.1-72.9-61.4
		c0-25.1,13.1-42.6,27.6-51.3c15.1-9,29.2-10.1,42.5-10.1c10.9,0,24.7,1.9,27.9,2.6c3.3,0.5,8.8,1.5,12.6,1.7
		c1.8,0.2,2.1,0.7,2.1,1.8c0,1.8-1,6.1-1,25.8c0,2.4-0.9,3.5-2.2,3.5c-1.1,0-1.5-0.7-1.6-2c-0.4-3.5-1.2-8.5-5.4-12.9
		c-4.6-5-16.5-12-34.2-12c-8.6,0-19.5,0.2-30.4,9.2c-8.8,7.4-14.5,19-14.5,38.2c0,33.8,21.1,58.3,54.8,58.3c4.1,0,7.4,0,11.1-1.7
		c2.3-1.1,3.1-2.8,3.1-5.5v-14.4c0-7.7,0-13.6-0.2-18.5c-0.2-5.3-1.8-7-6.8-8.5c-1.3-0.3-3.9-0.5-6.1-0.5c-1.4,0-2.5-0.7-2.5-1.7
		c0-1.3,1.3-1.5,3.4-1.5c8.2,0,19.5,0.4,24.2,0.4c5,0,13.2-0.4,18.4-0.4c2.1,0,3.3,0.1,3.3,1.5c0,0.9-0.9,1.7-2,1.7
		c-1.3,0-2.5,0.2-4.3,0.5c-4.3,0.7-5.9,3-6.1,8.5c-0.2,4.8-0.2,11.1-0.2,18.8V409.5z"/>
	<path fill="#002F55" d="M857.9,346.8c0-23.8,0-28.2-0.2-33.2c-0.3-5.4-1.8-7-6.8-8.5c-1.3-0.4-4-0.6-6.3-0.6
		c-1.6,0-2.7-0.5-2.7-1.6c0-1.1,1.3-1.5,3.6-1.5c8.2,0,18.3,0.4,22.8,0.4c5,0,40,0.2,43,0c2.9-0.2,5.4-0.7,6.6-0.9
		c0.9-0.2,1.8-0.7,2.5-0.7c0.9,0,1.1,0.7,1.1,1.5c0,1.1-0.9,3-1.3,10.1c-0.2,1.7-0.5,8.5-0.9,10.3c-0.2,0.7-0.6,2.6-1.8,2.6
		c-1.1,0-1.3-0.7-1.3-2c0-1.1-0.2-3.9-1.1-5.7c-1.3-2.8-2.5-5-10.4-5.7c-2.7-0.4-21.5-0.7-24.8-0.7c-0.7,0-1.1,0.5-1.1,1.5v38.7
		c0,0.9,0.2,1.7,1.1,1.7c3.6,0,24,0,27.6-0.4c3.8-0.4,6.1-0.7,7.6-2.4c1.3-1.1,1.8-2,2.5-2c0.7,0,1.2,0.7,1.2,1.6
		c0,0.9-0.4,3.5-1.2,11.4c-0.4,3.1-0.7,9.4-0.7,10.5c0,1.3-0.2,3.5-1.6,3.5c-1.1,0-1.5-0.6-1.5-1.3c-0.2-1.7-0.2-3.7-0.5-5.7
		c-0.9-3.1-2.9-5.5-8.8-6.1c-2.9-0.4-20.8-0.7-24.7-0.7c-0.7,0-0.9,0.7-0.9,1.7v12.5c0,5.3-0.2,18.6,0,23.2
		c0.4,10.7,5.2,13.1,21.3,13.1c4.1,0,10.7-0.2,14.9-2c3.9-1.9,5.7-5.2,6.8-11.6c0.4-1.6,0.7-2.4,1.8-2.4c1.3,0,1.4,2,1.4,3.7
		c0,3.5-1.3,14.2-2.1,17.3c-1.1,4-2.5,4-8.4,4c-11.8,0-21.3-0.2-29.1-0.5c-7.7-0.2-13.6-0.4-18.3-0.4c-1.8,0-5.2,0.2-9,0.2
		c-3.7,0.2-7.7,0.4-10.9,0.4c-2,0-3.1-0.6-3.1-1.7c0-0.7,0.6-1.7,2.5-1.7c2.3,0,4.1-0.2,5.5-0.6c3.2-0.7,4.1-3.7,4.7-8.3
		c0.7-6.6,0.7-19,0.7-33.4V346.8z"/>
	<path fill="#002F55" d="M613.9,381.3c-0.9,0-1.1,0.2-1.5,1.1l-8.4,21c-1.6,3.9-2.3,7.7-2.3,9.6c0,2.8,1.4,4.4,6.2,4.4h2.3
		c2,0,2.3,0.8,2.3,1.7c0,1.3-0.9,1.7-2.5,1.7c-5.2,0-12.6-0.5-17.6-0.5c-1.6,0-10,0.5-18.3,0.5c-2,0-2.9-0.4-2.9-1.7
		c0-0.9,0.5-1.7,1.8-1.7c1.5,0,3.2-0.2,4.7-0.2c7.2-1.1,9.8-5.9,13.1-13.8l41.2-98.7c1.8-4.4,3-6.3,4.7-6.3c2.3,0,3,1.5,4.6,5
		c3.8,8.7,30.1,72.8,40.1,96.6c6.1,14.2,10.6,16.2,13.5,16.8c2.3,0.4,4.1,0.6,5.9,0.6c1.5,0,2.2,0.6,2.2,1.7c0,1.3-0.9,1.7-6.8,1.7
		c-5.5,0-17,0-30.3-0.4c-2.8-0.2-4.6-0.2-4.6-1.3c0-0.9,0.4-1.5,2-1.7c1.1-0.2,2.2-1.7,1.4-3.5l-12.2-31.6c-0.4-0.9-0.9-1.1-1.6-1.1
		H613.9z M647.6,372.7c0.7,0,0.9-0.4,0.7-0.9l-14.9-39.8c-0.2-0.5-0.4-1.5-0.7-1.5c-0.5,0-0.7,0.9-0.9,1.5l-15.2,39.7
		c-0.4,0.7,0,1.1,0.5,1.1H647.6z"/>
	<polygon fill="#D72331" points="707.6,678.8 725,637.1 711,625.2 681.1,710.8 814,616.6 	"/>
	<g>
		<polygon fill="#002F55" points="771.7,482.9 783.9,523.2 802,523.1 770.1,440.2 728.6,572.3 		"/>
		<polygon fill="#002F55" points="775.4,540.1 907.8,540.1 841.3,597 835.6,579.2 868.7,554.9 		"/>
		<polygon fill="#002F55" points="837.2,677 799.2,647.9 784.4,658.9 862.5,710.8 817.7,576.3 		"/>
		<polygon fill="#002F55" points="744,629.3 629.5,539.8 719.4,539.8 713.1,557.4 670.3,554.3 		"/>
	</g>
</g>
</svg>
