<?xml version="1.0" encoding="utf-8"?>
<!-- Generator: Adobe Illustrator 28.0.0, SVG Export Plug-In . SVG Version: 6.00 Build 0)  -->
<svg version="1.2" baseProfile="tiny-ps" id="Layer_1" xmlns="http://www.w3.org/2000/svg" xmlns:xlink="http://www.w3.org/1999/xlink"
	viewBox="0 0 100 100" xml:space="preserve">
	<title> hoopla Digital </title>
<g>
	<g>
		<path fill="#FFFFFF" d="M50,89.2c-17.9,0-33.4-12-37.9-29.3h75.8C83.4,77.2,67.9,89.2,50,89.2L50,89.2z"/>
		<path fill="#00AEEF" d="M50,10.6c-21.8,0-39.4,17.6-39.4,39.4c0,3.3,0.4,6.6,1.2,9.7C16.1,76.8,31.6,89.4,50,89.4
			c18.4,0,33.9-12.6,38.2-29.7c0.8-3.1,1.2-6.4,1.2-9.7C89.4,28.2,71.8,10.6,50,10.6z M50,89c-17.7,0-33.1-11.8-37.6-28.8h75.2
			C83.1,77.1,67.7,89,50,89z"/>
		<path fill="#00AEEF" d="M22.6,70.7h1.1c1.3,0,2.2-0.1,2.7-0.2c0.7-0.2,1.2-0.6,1.6-1.2c0.4-0.6,0.6-1.3,0.6-2.2
			c0-0.9-0.2-1.6-0.6-2.3c-0.4-0.6-1-1.1-1.8-1.3c-0.6-0.2-1.5-0.3-2.9-0.3h-0.7V70.7L22.6,70.7z M21.7,71.6v-9.2h1.9
			c1.4,0,2.4,0.1,3,0.3c0.9,0.3,1.6,0.9,2.1,1.6c0.5,0.8,0.8,1.7,0.8,2.8c0,0.9-0.2,1.7-0.6,2.4c-0.4,0.7-0.9,1.2-1.6,1.6
			c-0.6,0.3-1.5,0.5-2.7,0.5H21.7L21.7,71.6z"/>
		<polygon fill="#00AEEF" points="33.3,62.4 34.2,62.4 34.2,71.6 33.3,71.6 33.3,62.4 		"/>
		<path fill="#00AEEF" d="M47.3,63.9l-0.7,0.7c-0.5-0.5-1.1-0.9-1.7-1.2c-0.6-0.3-1.2-0.4-1.8-0.4c-0.7,0-1.4,0.2-2.1,0.5
			c-0.7,0.4-1.2,0.8-1.5,1.4c-0.4,0.6-0.5,1.3-0.5,1.9c0,0.7,0.2,1.4,0.6,2c0.4,0.6,0.9,1.1,1.5,1.5c0.7,0.4,1.4,0.5,2.2,0.5
			c0.9,0,1.8-0.3,2.4-0.8c0.7-0.5,1-1.2,1.2-2.1h-2.9v-0.9h4c0,1.4-0.4,2.6-1.3,3.4c-0.8,0.8-2,1.3-3.4,1.3c-1.7,0-3.1-0.6-4.1-1.7
			C38.4,69.2,38,68.1,38,67c0-0.9,0.2-1.7,0.7-2.4c0.4-0.8,1-1.3,1.8-1.8c0.8-0.4,1.6-0.6,2.6-0.6c0.8,0,1.5,0.1,2.2,0.4
			C46,62.8,46.7,63.3,47.3,63.9L47.3,63.9z"/>
		<polygon fill="#00AEEF" points="51.6,62.4 52.5,62.4 52.5,71.6 51.6,71.6 51.6,62.4 		"/>
		<polygon fill="#00AEEF" points="55.8,63.3 55.8,62.4 60.8,62.4 60.8,63.3 58.8,63.3 58.8,71.6 57.8,71.6 57.8,63.3 55.8,63.3 		
			"/>
		<path fill="#00AEEF" d="M67.1,64.3l-1.6,3.3h3.2L67.1,64.3L67.1,64.3z M67.2,62.4l4.3,9.2h-1l-1.5-3h-4l-1.4,3h-1l4.4-9.2H67.2
			L67.2,62.4z"/>
		<polygon fill="#00AEEF" points="74.9,62.4 75.8,62.4 75.8,70.7 79.4,70.7 79.4,71.6 74.9,71.6 74.9,62.4 		"/>
		<path fill="#FFFFFF" d="M78.9,47.2c-0.8,0.8-1.7,1.2-2.8,1.2c-1.1,0-2-0.4-2.8-1.2c-0.8-0.8-1.1-1.8-1.1-3.1
			c0-1.2,0.4-2.3,1.1-3.1c0.7-0.8,1.7-1.2,2.8-1.2c1.1,0,2.1,0.4,2.9,1.2c0.8,0.8,1.1,1.8,1.1,3.1C80,45.4,79.6,46.4,78.9,47.2
			 M62.6,47.2c-0.8,0.8-1.7,1.2-2.8,1.2c-1.1,0-2.1-0.4-2.8-1.2c-0.7-0.8-1.1-1.8-1.1-3c0-1.2,0.4-2.2,1.1-3
			c0.7-0.8,1.7-1.2,2.8-1.2c1.2,0,2.1,0.4,2.8,1.2c0.7,0.8,1.1,1.8,1.1,3C63.7,45.4,63.3,46.4,62.6,47.2 M50.6,47.3
			c-0.8,0.8-1.7,1.2-2.8,1.2c-1.1,0-2.1-0.4-2.8-1.2c-0.6-0.6-1-1.5-1.1-2.4c0-0.2,0-0.4,0-0.6c0-0.2,0-0.4,0-0.6
			c0.1-0.9,0.5-1.7,1.1-2.4c0.7-0.8,1.7-1.2,2.8-1.2c1.1,0,2.1,0.4,2.8,1.2c0.7,0.8,1.1,1.8,1.1,3C51.7,45.5,51.4,46.5,50.6,47.3
			 M40.3,44.6c-0.1,1.1-0.4,2-1.1,2.7c-0.8,0.8-1.7,1.2-2.8,1.2c-1.1,0-2.1-0.4-2.8-1.2c-0.7-0.8-1.1-1.8-1.1-3c0-1.2,0.4-2.2,1.1-3
			c0.7-0.8,1.7-1.2,2.8-1.2c1.1,0,2.1,0.4,2.8,1.2c0.7,0.7,1,1.6,1.1,2.7c0,0.1,0,0.2,0,0.4C40.3,44.4,40.3,44.5,40.3,44.6
			 M79.8,36.9v1.6c-0.6-0.7-1.4-1.1-2.1-1.5c-0.8-0.3-1.6-0.5-2.4-0.5c-1.9,0-3.5,0.7-4.8,2.1c-0.3,0.4-0.6,0.8-0.9,1.2V31h-3.8v8.6
			c-0.6-0.8-1.4-1.5-2.3-2c-1.2-0.7-2.5-1-3.8-1c-1.9,0-3.5,0.7-5,2c-0.4,0.3-0.7,0.7-0.9,1c-0.6-0.8-1.3-1.4-2.2-1.9
			c-1.2-0.7-2.5-1-3.8-1c-1.9,0-3.5,0.7-5,2c-0.2,0.2-0.4,0.4-0.7,0.7c-0.5-0.6-1.2-1.2-2-1.6c-1.2-0.7-2.5-1-3.8-1
			c-1.9,0-3.5,0.7-5,2c-0.3,0.3-0.6,0.6-0.9,0.9c-0.2-0.6-0.5-1.1-0.9-1.6c-1-1-2.2-1.5-3.7-1.5c-0.8,0-1.5,0.2-2.2,0.5
			c-0.7,0.3-1.5,0.8-2.2,1.4v-7.2h-3.7v20.6h3.7v-6c0-1.6,0.1-2.6,0.2-3.1c0.2-0.9,0.6-1.5,1.1-2c0.5-0.5,1.2-0.7,1.9-0.7
			c0.6,0,1.1,0.1,1.5,0.4c0.4,0.3,0.7,0.8,0.8,1.4c0.2,0.6,0.2,1.8,0.2,3.5v6.5h3.7v-2.3c0.1,0.1,0.1,0.2,0.2,0.2
			c1.5,1.5,3.2,2.2,5.3,2.2c1.4,0,2.7-0.3,3.9-1c0.7-0.4,1.4-1,1.9-1.6c0.1,0.1,0.2,0.3,0.4,0.4c1.5,1.5,3.2,2.2,5.3,2.2
			c1.4,0,2.7-0.3,3.9-1c0.4-0.2,0.8-0.5,1.1-0.8v6.8h3.8V51c1,0.5,2.1,0.7,3.3,0.7c1.4,0,2.7-0.3,3.9-1c0.9-0.5,1.6-1.2,2.2-2v3h3.8
			v-3.5c0.3,0.5,0.6,0.9,1,1.3c1.4,1.5,3,2.2,4.9,2.2c0.8,0,1.6-0.1,2.3-0.4c0.7-0.3,1.4-0.8,2.1-1.5v1.5h3.6V36.9H79.8"/>
	</g>
	<g>
		<path fill="#00AEEF" d="M83.7,18.3c0,1.2-1,2.2-2.3,2.2c-1.3,0-2.3-1-2.3-2.2c0-1.2,1-2.2,2.3-2.2C82.7,16.1,83.7,17,83.7,18.3z
			 M79.7,18.3c0,1,0.7,1.8,1.7,1.8c1,0,1.7-0.8,1.7-1.8c0-1-0.7-1.8-1.7-1.8C80.5,16.5,79.7,17.3,79.7,18.3z M81.1,19.4h-0.5v-2.2
			c0.2,0,0.5-0.1,0.9-0.1c0.4,0,0.6,0.1,0.8,0.2c0.1,0.1,0.2,0.3,0.2,0.5c0,0.3-0.2,0.4-0.5,0.5v0c0.2,0.1,0.3,0.2,0.4,0.5
			c0.1,0.3,0.1,0.5,0.2,0.5H82c-0.1-0.1-0.1-0.3-0.2-0.5c0-0.2-0.2-0.3-0.5-0.3h-0.2V19.4z M81.1,18.2h0.2c0.3,0,0.5-0.1,0.5-0.3
			c0-0.2-0.1-0.3-0.5-0.3c-0.1,0-0.2,0-0.3,0V18.2z"/>
	</g>
</g>
</svg>
