<?xml version="1.0" encoding="utf-8"?>
<!-- Generator: Adobe Illustrator 27.9.0, SVG Export Plug-In . SVG Version: 6.00 Build 0)  -->
<svg version="1.2" baseProfile="tiny-ps" id="Layer_1" xmlns="http://www.w3.org/2000/svg" xmlns:xlink="http://www.w3.org/1999/xlink"
	  viewBox="0 0 290 290"  xml:space="preserve">
<title>Word on Fire</title>
<g>
	<path d="M126.4,145c1.8,0,3.7-0.1,5.5-0.4v-0.7c0-0.6,0-1.2,0-1.7c-1.1,0.2-2.1,0.3-3.2,0.3c-16.4,0-22.9-17.6-22.9-26.8
		c0-6.3,1.7-11.4,4.5-14.9c0-1.5,0.1-2.9,0.3-4.4c-7.3,4.9-11.1,13.3-11.1,23C99.4,132.4,108.5,145,126.4,145z"/>
	<path d="M172,144.5h4v-0.1c-2.6-1.2-4.1-3.9-4-6.7V95.3c2.2-0.5,4.5-0.7,6.8-0.7c8.6,0,13.9,5,13.9,12.6c0,9.3-7,12.9-13.2,12.9
		h-4.9l-0.1,0.1c2.6,1.4,5.4,2.1,8.4,2.3c1.5,1.9,5.4,7.9,8.1,11.2c3.8,4.8,6.2,7.8,9,9.3c1.7,0.9,3.3,1.3,7.1,1.3h25.6
		c15.1,0,29-8.1,29-26.6c0-14.7-13.4-24.7-29.5-24.7h-21v0.1c0,0,5.2,1.6,5.2,6.7l0,0v40c0,3.6-5.4,3.2-7.7,2.8
		c-1.5-0.4-3.4-1.4-6.2-4.2c-3.6-3.7-8.9-10.7-13.9-17c6.4-1.9,10.7-7.9,10.6-14.5c0-10.9-11.3-14.5-19.1-14.5
		c-4.6,0-9.9,0.4-13.5,0.4h-4.7v0.1c2.6,1.2,4.1,3.9,4,6.7v37.5c0.1,2.8-1.4,5.5-4,6.7v0.1L172,144.5L172,144.5z M254.9,117.9
		c0,14.2-8.7,24.1-21.2,24.1c-3.7,0.1-7.4-0.1-11.1-0.5V95.9c2.3-0.2,5.7-0.4,9.2-0.4C245.9,95.5,254.8,103.6,254.9,117.9
		L254.9,117.9z"/>
	<path d="M101.1,93.2H88.7v0.1c0,0,4.3,2,2.6,6.3l0,0l-14.1,35.8l-10.2-20.9l5.8-14.1c1.2-3.2,3.6-5.7,6.7-7.1v-0.1H67.2v0.1
		c0,0,4.3,2,2.6,6.3l0,0L65.3,111l-4.9-10.1c-2.3-4.8,2.7-7.6,2.7-7.6v-0.1H45.7v0.1c3.6,2,6.5,5,8.4,8.6l0,0l8.2,16.9l-6.5,16.6
		l-16.8-34.5c-2.3-4.8,2.6-7.6,2.6-7.6v-0.1H24.2v0.1c3.6,2,6.5,5,8.4,8.6l21.4,44.1h0.2l9.8-23.8l11.5,23.8h0.2l18.8-45.6l0,0
		C95.6,97.3,98,94.7,101.1,93.2L101.1,93.2z"/>
	<path d="M153.2,161.9h-8.9v0.1c2.6,1.2,4.1,3.9,4,6.7v37.5c0.1,2.8-1.4,5.5-4,6.7v0.1h14.1V213c-2.6-1.2-4.1-3.9-4-6.7v-37.5
		c-0.1-2.8,1.4-5.5,4-6.7v-0.1H153.2z"/>
	<path d="M245.5,210.6h-14.2v-26h11.5c7.2,0,10.2,3.5,10.2,3.5l1-7c-3.6,0.7-7.3,1-11,1h-11.8v-17.7h13.5c7.2,0,10.3,3.5,10.3,3.5
		l1-7c-3.6,0.7-7.3,1-11,1h-23.9v0.1c2.6,1.2,4.1,3.9,4,6.7l0,0v39.6c0,4.3-5.6,3.5-7.9,3.2c-2.8-0.7-5.2-2.1-7.2-4.2
		c-3.6-3.7-8.9-10.7-13.9-17c6.4-1.9,10.7-7.9,10.6-14.5c0-10.9-11.3-14.5-19.1-14.5c-4.6,0-9.9,0.4-13.5,0.4h-4.7v0.1
		c2.6,1.2,4.1,3.9,4,6.7v37.5c0.1,2.8-1.4,5.5-4,6.7v0.1h14.1V213c-2.6-1.2-4.1-3.9-4-6.7V164c2.2-0.5,4.5-0.7,6.8-0.6
		c8.6,0,13.9,5,13.9,12.6c0,9.3-7,12.9-13.2,12.9h-4.9l-0.1,0.1c2.6,1.4,5.4,2.1,8.4,2.3c1.5,1.9,5.4,7.9,8.1,11.2
		c3.8,4.8,6.2,7.9,9,9.3c1.7,0.9,3.3,1.3,7.1,1.3h41.2l2.7-7.5l-0.3-0.3C254.9,208.7,250.3,210.6,245.5,210.6z"/>
	<path d="M109.5,161.9H99.4v0.1c2.6,1.2,4.1,3.9,4,6.7v37.5c0.1,2.8-1.4,5.5-4,6.7v0.1h14.1V213c-2.6-1.2-4.1-3.9-4-6.7v-19.8H121
		c7.1,0,10.2,3.5,10.2,3.5l1-7c-3.6,0.7-7.3,1-11,1h-11.8v-19.6H123c7.2,0,10.2,3.5,10.2,3.5l1-7c-3.6,0.7-7.3,1-11,1L109.5,161.9z"
		/>
	<path d="M266.1,210.1c0.1-0.1,0.2-0.1,0.3-0.2c0.1-0.1,0.1-0.2,0.2-0.3c0-0.1,0.1-0.2,0.1-0.3c0-0.1,0-0.2,0-0.3
		c0-0.1-0.1-0.2-0.2-0.3c-0.1-0.1-0.2-0.2-0.3-0.2c-0.2-0.1-0.4-0.1-0.6-0.1h-1.2v3.5h0.5v-1.5h0.5l0.9,1.5h0.6l-1-1.6
		C265.9,210.2,266,210.2,266.1,210.1z M265.4,209.9h-0.6v-1.1h0.6h0.3c0.1,0,0.2,0,0.2,0.1c0.1,0,0.1,0.1,0.2,0.2
		c0.1,0.2,0.1,0.4,0,0.6c0,0.1-0.1,0.1-0.2,0.2c-0.1,0-0.2,0.1-0.2,0.1C265.6,209.8,265.5,209.8,265.4,209.9L265.4,209.9z"/>
	<path d="M265.4,206.6c-2,0-3.6,1.6-3.6,3.6c0,2,1.6,3.6,3.6,3.6c2,0,3.6-1.6,3.6-3.6c0,0,0,0,0,0
		C269,208.2,267.4,206.6,265.4,206.6z M265.4,213.4c-1.8,0-3.2-1.4-3.2-3.2s1.4-3.2,3.2-3.2c1.8,0,3.2,1.4,3.2,3.2c0,0,0,0,0,0
		C268.5,212,267.1,213.4,265.4,213.4z"/>
	<path d="M50,172.1c-6.6,0-13.8,8.6-13.8,20.3c0,6.3,2.9,10.3,7.6,10.3c6.8,0,13.5-9.2,13.5-21.5C57.3,175.5,54.3,172.1,50,172.1z
		 M45.9,199.1c-3.5,0-5.7-3.6-5.7-10.3c0-7.4,4.2-14,8-14c3.2,0,4.9,3.6,4.9,8.9C53.1,190.7,51,199,45.9,199.1L45.9,199.1z"/>
	<path d="M85.6,199.6c-1.9,0-2.6-1.6-2.3-4.1c1.2-7.8,3-17.9,3-19.7c0.1-1.9-1.3-3.5-3.2-3.7c-0.1,0-0.2,0-0.4,0
		c-5.2,0-10.1,7.2-11.9,10.2c0.5-2.7,0.9-5.5,1-8.2c0-1.3-0.6-1.9-1.6-1.9c-2.1,0-7.4,3.4-7.4,3.4l-0.4,2c0,0,2.2-2,3.8-2
		s1.1,1.8,0.6,5.3c-0.5,3.5-3.4,22.1-3.4,22.1l5.1-1.2c-0.3-0.7-0.4-1.5-0.4-2.3c0.1-1,0.3-2.2,0.9-6.3c0.2-1.5,0.7-3.9,1.1-6.6l0,0
		c0,0,5.4-11.4,9.9-11.4c1.2,0,1.8,0.6,1.8,2.2c0,2.7-1.5,11-2.3,15.9c-0.8,5.2-1,9.5,3.2,9.5c3.5,0,7.5-4.9,7.5-4.9l-0.3-0.7
		C90,197.1,87,199.6,85.6,199.6z"/>
	<path fill="#F05523" d="M145.5,138.9c0.6-4.7-0.3-9.5-2.7-13.7l0,0l0,0c-9.5-18.2-40.9-41.6-9.5-84.1
		C120.8,102.4,168.4,120,145.5,138.9z"/>
	<path fill="#F05523" d="M116.4,84.6c-13.2,34.9,16.7,39.2,18.3,56.7c0.1,0.9,0.1,1.9,0,2.8c2-0.5,3.9-1.2,5.8-2.1
		c0.2-0.8,0.3-1.6,0.3-2.4l0,0c0-0.6,0.1-1.2,0.1-1.8v-0.1l0,0C140.8,121.1,120.9,113.1,116.4,84.6z"/>
	<path fill="#F05523" d="M141.2,60.8c-13.6,19.4,11.8,45.6,13.4,59.3C164.6,95.7,141.2,90.1,141.2,60.8z"/>
</g>
</svg>
