<?xml version="1.0" encoding="utf-8"?>
<!-- Generator: Adobe Illustrator 26.3.1, SVG Export Plug-In . SVG Version: 6.00 Build 0)  -->
<svg version="1.2" baseProfile="tiny-ps" id="Layer_1" xmlns="http://www.w3.org/2000/svg" xmlns:xlink="http://www.w3.org/1999/xlink"
	viewBox="0 0 136.81 136.81" xml:space="preserve">
<title>OGEE</title>
<rect fill="#FFFFFF" width="136.81" height="135.48"/>
<path fill="#E3BB1D" d="M21.73,86.02c-10.27,0-18.31-7.73-18.31-17.61S11.46,50.8,21.73,50.8s18.31,7.73,18.31,17.61
	S32,86.02,21.73,86.02z M21.73,52.67c-6.53,0-13.14,5.41-13.14,15.74s6.61,15.74,13.14,15.74c6.53,0,13.14-5.41,13.14-15.74
	S28.26,52.67,21.73,52.67z"/>
<path fill="#E3BB1D" d="M104.74,85.1H82.72V51.71h22v2.12H87.31v13.21h16.48v2.12H87.31v13.82h17.43V85.1z"/>
<path fill="#E3BB1D" d="M133.39,85.1h-22.02V51.71h22v2.12h-17.42v13.21h16.48v2.12h-16.48v13.82h17.43V85.1z"/>
<path fill="#E3BB1D" d="M62.34,86.02c-10.74,0-18.83-7.57-18.83-17.61c0-10.04,8.1-17.61,18.83-17.61c6.36,0,11.25,2.61,13.78,7.34
	l0.12,0.22l-2.35,1.17l-0.17,0.08l-0.1-0.25c-1.58-4.13-5.91-6.69-11.28-6.69c-6.3,0-13.66,4.12-13.66,15.74
	c0,6.33,3.64,15.74,13.66,15.74c5.12,0,9.4-2.76,10.45-3.81V69.16h-6.44v-2.12h10.68v13.33l-0.05,0.07
	C76.27,81.31,70.6,86.02,62.34,86.02z"/>
<path fill="#E3BB1D" d="M62.34,86.02c-10.74,0-18.83-7.57-18.83-17.61c0-10.04,8.1-17.61,18.83-17.61c6.36,0,11.25,2.61,13.78,7.34
	l0.12,0.22l-2.21,1.1c0,0-2.4-6.79-11.69-6.79c-6.3,0-13.66,4.12-13.66,15.74c0,6.33,3.64,15.74,13.66,15.74
	c5.12,0,9.4-2.76,10.45-3.81V69.16h-6.44v-2.12h10.68v13.33l-0.05,0.07C76.27,81.31,70.6,86.02,62.34,86.02z"/>
</svg>
