<?xml version="1.0"?><svg version="1.2" baseProfile="tiny-ps" viewBox="0 0 400 400" xmlns="http://www.w3.org/2000/svg" xmlns:xlink="http://www.w3.org/2000/xlink"><title>Link Brokerages Inc</title>
<rect width="400" height="400" fill="#131F4A"/>
<path d="M76.1672 215.452V153H50V221.473C50 235.008 61.1104 246.006 74.7847 246.006H119.679V220.129H80.8677C78.2535 220.129 76.1421 218.039 76.1421 215.452H76.1672Z" fill="white"/>
<path d="M235.032 153.175H174.05V246.056H200.193V179.051H228.949C231.563 179.051 233.675 181.141 233.675 183.729V246.056H259.817V177.708C259.817 164.172 248.681 153.175 235.032 153.175Z" fill="white"/>
<path d="M160.098 153H133.629V246.055H160.098V153Z" fill="white"/>
<path d="M277.194 183.473C277.574 186.999 279.362 190.033 281.94 192.102L281.925 192.112L295.269 202.636C293.98 200.983 293.918 198.616 295.279 196.897L295.859 196.162L329.867 153.176H296.656L278.956 175.552C277.569 177.857 276.886 180.603 277.194 183.473Z" fill="url(#paint0_linear_2086_11)"/>
<path d="M347.581 244.129L296.09 203.478C295.771 203.232 295.509 202.944 295.273 202.641L281.929 192.118L281.944 192.108C279.366 190.044 277.579 187.005 277.198 183.478C276.89 180.604 277.573 177.862 278.96 175.558L275.622 179.777L270.942 185.691C266.715 191.03 265.087 197.585 265.873 203.842C266.484 208.709 268.569 213.38 272.011 217.179C272.966 218.231 274.004 219.232 275.17 220.136L308.016 246.033H350L347.581 244.124V244.129Z" fill="#5AE9D7"/>
<defs>
<linearGradient id="paint0_linear_2086_11" x1="277.122" y1="177.908" x2="329.867" y2="177.908" gradientUnits="userSpaceOnUse">
<stop stop-color="#131F4A"/>
<stop offset="1" stop-color="#5AE9D7"/>
</linearGradient>
</defs>
</svg>
