<?xml version="1.0" encoding="utf-8"?>
<!-- Generator: Adobe Illustrator 27.9.0, SVG Export Plug-In . SVG Version: 6.00 Build 0)  -->
<svg version="1.2" baseProfile="tiny-ps" id="Livello_1"
	 xmlns="http://www.w3.org/2000/svg" xmlns:xlink="http://www.w3.org/1999/xlink" viewBox="0 0 128 128" xml:space="preserve">
	 <title>Webidoo</title>
<g>
	<rect fill="#FFFFFF" width="128" height="128"/>
	<g>
		<path fill="#EF3D07" d="M82.4,44.6c0-8.1-6.6-14.7-14.7-14.7v4.4c-2.5-2.7-6.1-4.4-10.1-4.4H41.4v6.6C41.4,48.4,51,58,62.8,58h8.5
			v-8.4h11.1V44.6z"/>
		<path fill="#1E17BA" d="M91.2,47.4H36.8C24.2,47.4,14,57.6,14,70.3c0,12.6,10.2,22.8,22.8,22.8h13.1L46,89.6l-0.1-0.1
			c-2.4-2.4-3.1-5.9-1.8-9h-7.3c-5.7,0-10.3-4.6-10.3-10.3c0-5.7,4.6-10.3,10.3-10.3h54.4c5.7,0,10.3,4.6,10.3,10.3
			c0,5.7-4.6,10.3-10.3,10.3h-7.3c1.2,3,0.6,6.3-1.5,8.7l0,0l-0.4,0.3l-3.9,3.5h13.1c12.6,0,22.8-10.2,22.8-22.8
			C114,57.6,103.8,47.4,91.2,47.4z"/>
		<path fill="#EF3D07" d="M79,86.4c1.1-1.1,1.4-2.8,0.8-4.2c-0.6-1.5-2-2.4-3.6-2.4H64H53h-1.2c-1.6,0-3,0.9-3.6,2.4
			c-0.6,1.5-0.3,3.1,0.8,4.2l0.3,0.3l0,0l11.2,10.1c1.9,1.7,4.8,1.7,6.7,0L79,86.4L79,86.4C79,86.4,79,86.4,79,86.4z"/>
	</g>
</g>
</svg>
