<?xml version="1.0" encoding="UTF-8" standalone="yes"?>
<svg version="1.2" baseProfile="tiny-ps" viewBox="0 0 1250 1250" xml:space="preserve" xmlns="http://www.w3.org/2000/svg">
  <title>A7 Fitness, Inc.</title>
  <rect fill="#FFFFFF" width="1250" height="1250"/>
  <g transform="translate(0.000000,500.000000) scale(0.100000,-0.100000)">
    <path d="M2538-1243c-709-1371-1288-2496-1288-2500s255-7,568-7l567,1l1284,2487c707,1369,1287,2494,1289,2500c3,9-130,12-565,12&#xA;&#x9;&#x9;h-568L2538-1243z"/>
    <path d="M6082,1241c2-4,117-229,257-500l254-491l949,2l950,3l254,490c139,270,254,493,254,498c0,4-657,7-1461,7&#xA;&#x9;&#x9;C6723,1250,6080,1246,6082,1241z"/>
    <path d="M8830-1240c-995-1929-1287-2487-1296-2475c-6,7-460,885-1010,1949C5975-702,5522,166,5518,162s-133-251-287-549l-280-542&#xA;&#x9;&#x9;l727-1408l728-1408l1134-2l1135-3l1288,2493c708,1371,1287,2496,1287,2500s-255,7-567,7l-568-1L8830-1240z"/>
  </g>
</svg>