<?xml version="1.0" encoding="UTF-8"?>
<svg version="1.2" baseProfile="tiny-ps" id="Layer_1" xmlns="http://www.w3.org/2000/svg" xmlns:xlink="http://www.w3.org/1999/xlink" viewBox="0 0 248 248">
    <title>Golf Galaxy</title>
    <desc>Logo for Golf Galaxy</desc>
    <rect width="248" height="248" fill="#fff" />
    <g>
        <rect width="248" height="248" fill="#fff" />
        <path d="M24.8,101.39v-.21c0-13.52,10.53-24.64,24.93-24.64,8.56,0,13.72,2.31,18.69,6.54l-6.58,7.97c-3.67-3.06-6.93-4.85-12.44-4.85-7.61,0-13.66,6.76-13.66,14.86h0c0,8.68,5.94,15.04,14.3,15.04,3.78,0,7.15-.95,9.77-2.85v-6.76h-10.21v-8.75h20.42v20.4c-4.87,4.13-11.56,7.52-20.22,7.52-14.74,0-24.88-10.36-24.88-24.39" fill="#001f39" />
        <path d="M119.62,101.39v-.27c0-8.11-5.93-14.87-14.29-14.87s-14.16,6.62-14.16,14.72v.14c0,8.1,5.93,14.87,14.29,14.87s14.16-6.62,14.16-14.73m-39.39,.01v-.15c0-13.5,10.62-24.54,25.23-24.54s25.1,10.92,25.1,24.4v.14c0,13.49-10.62,24.54-25.23,24.54s-25.1-10.92-25.1-24.41h0Z" fill="#001f39" />
        <polygon points="141.51 77.32 152.45 77.32 152.45 115.25 175.79 115.25 175.79 124.73 141.51 124.73 141.51 77.32" fill="#001f39" />
        <polygon points="187.46 77.32 223.2 77.32 223.2 86.8 197.67 86.8 197.67 97.01 218.82 97.01 218.82 106.49 197.67 106.49 197.67 124.73 187.46 124.73 187.46 77.32" fill="#001f39" />
        <path d="M24.8,153.91v-.7c0-8.56,6.27-16.14,15.63-16.14,5.24,0,8.49,1.51,11.61,4.15l-2.27,2.67c-2.4-2.09-5.07-3.56-9.48-3.56-6.91,0-11.85,5.84-11.85,12.81v.79c0,7.77,5.05,13.55,13.08,13.55,3.46-.02,6.81-1.17,9.54-3.27v-8.1h-9.48v-3.65h13.13v12.99c-3.6,3.2-8.25,4.98-13.06,4.98-10.22,0-16.54-7.45-16.54-16.76" fill="#001f39" />
        <path d="M82.62,158.28l-7.39-16.63-7.44,16.63h14.83Zm-9.07-21.15h3.46l14.81,32.82h-3.75l-3.87-8.75h-17.99l-3.92,8.75h-3.57l14.82-32.82Z" fill="#001f39" />
        <polygon points="97.74 137.13 101.39 137.13 101.39 166.31 120.99 166.31 119.33 169.95 97.74 169.95 97.74 137.13" fill="#001f39" />
        <path d="M146.22,158.28l-7.39-16.63-7.44,16.63h14.82Zm-9.07-21.15h3.44l14.83,32.82h-3.73l-3.87-8.75h-18.02l-3.93,8.75h-3.54l14.83-32.82Z" fill="#001f39" />
        <polygon points="171.27 153.21 159.15 137.13 163.5 137.13 173.56 150.54 183.53 137.13 187.83 137.13 175.72 153.16 188.3 169.95 183.9 169.95 173.42 155.84 162.94 169.95 158.68 169.95 171.27 153.21" fill="#001f39" />
        <polygon points="206.42 156.96 193.15 137.13 197.53 137.13 208.29 153.54 219.15 137.13 223.34 137.13 210.07 156.92 210.07 169.95 206.42 169.95 206.42 156.96" fill="#001f39" />
    </g>
</svg>
