<?xml version="1.0" encoding="UTF-8" standalone="yes"?>
<svg version="1.2" viewBox="0 0 300 300" xml:space="preserve" baseProfile="tiny-ps" xmlns="http://www.w3.org/2000/svg">
  <title>bimi-svg-tiny-12-ps</title>
  <rect class="st0" width="300" height="300" fill="#003D32"/>
  <g>
    <path class="st1" d="M23.7,92.9h252.6v116.3H23.7V92.9z" fill="#006554"/>
    <path class="st2" d="M67,177.1H37.5v-73.6h28.8l11.4,10.7v52.2 M52.4,118.1V164h7.1v-45.9H52.4z" fill="#FFFFFF"/>
    <path class="st2" d="M83.2,103.5h16.6V177H83.2V103.5z" fill="#FFFFFF"/>
    <path class="st2" d="M145.3,131.7h-16.2v-14.3H122v45.8h7.1v-17.5h16.2v20.7L134.4,177h-17.2l-11.9-10.7v-52.2l10.9-10.7h18.2&#xA;&#x9;&#x9;l10.9,10.7L145.3,131.7L145.3,131.7z" fill="#FFFFFF"/>
    <path class="st2" d="M167.2,134.9h0.2l10.9-31.4h17l-14.4,34.4l16.6,39.2h-18l-12.1-31.4h-0.2v31.4h-16.6v-73.6h16.6V134.9z" fill="#FFFFFF"/>
    <path class="st2" d="M251.7,103.5l11.7,10.7v13h-16.6v-9.8h-6.9v14.9l12.1,1.1l11.4,10.6v22.4L252.6,177h-18.5l-10.8-10.7v-12.9&#xA;&#x9;&#x9;h16.6v9.7h6.9v-15.4l-11.9-0.9l-11.6-10.7v-22l10.9-10.7L251.7,103.5L251.7,103.5z" fill="#FFFFFF"/>
    <path class="st2" d="M50.9,184.1l4.2,2.2v2.5h-6V187h-2.5v3l4.4,0.2l4.1,2.1v4.5l-3.9,2.1h-6.8l-3.9-2.1v-2.6h6.1v1.9h2.5V193&#xA;&#x9;&#x9;l-4.4-0.1l-4.2-2.2v-4.3l4-2.2L50.9,184.1L50.9,184.1z" fill="#FFFFFF"/>
    <path class="st2" d="M66.3,191.1H64V187h2.2 M72.1,186.4l-4.1-2.1H58V199h6v-5h4l4.1-2.1V186.4z" fill="#FFFFFF"/>
    <path class="st2" d="M82.5,187v9.1H80V187H82.5z M88.6,186.4l-4.2-2.1h-6.5l-4,2.1v10.4l4,2.1h6.8l3.9-2.1L88.6,186.4z" fill="#FFFFFF"/>
    <path class="st2" d="M100.3,187v3.2h-2.5V187H100.3z M106.2,198.9V193l-3-1.4l3-1.4v-3.8l-4.1-2.1H91.7V199h6.1v-5.9h2.5v5.9" fill="#FFFFFF"/>
    <path class="st2" d="M120.7,187h-3.4v11.9h-6.1V187h-3.4v-2.8h12.9V187z" fill="#FFFFFF"/>
    <path class="st2" d="M122.6,184.1h6.1v14.7h-6.1V184.1z" fill="#FFFFFF"/>
    <path class="st2" d="M146.6,198.9h-5l-3.9-7.1h-0.1v7.1h-5.7v-14.7h5.1l3.9,7.1v-7.1h5.7V198.9z" fill="#FFFFFF"/>
    <path class="st2" d="M164,189.6h-6.1V187h-2.8v9.1h2.8V194h-1.5v-2.8h7.6v5.6l-4,2.1h-6.7l-4.2-2.1v-10.4l4-2.2h6.8l4.1,2.2&#xA;&#x9;&#x9;L164,189.6z" fill="#FFFFFF"/>
    <path class="st2" d="M191.2,189.6h-6.1V187h-2.8v9.1h2.8V194h-1.5v-2.8h7.6v5.6l-4,2.1h-6.7l-4.3-2.1v-10.4l4.1-2.2h6.8l4.1,2.2&#xA;&#x9;&#x9;L191.2,189.6z" fill="#FFFFFF"/>
    <path class="st2" d="M202.3,187v9.1h-2.5V187H202.3z M208.3,186.4l-4.1-2.1h-6.5l-4,2.1v10.4l4,2.1h6.8l3.9-2.1L208.3,186.4&#xA;&#x9;&#x9;L208.3,186.4z" fill="#FFFFFF"/>
    <path class="st2" d="M219.9,187v9.1h-2.5V187H219.9z M222.1,198.9l3.9-2.1v-10.4l-4.1-2.1h-6.5l-4,2.1v10.4l4,2.1" fill="#FFFFFF"/>
    <path class="st2" d="M237.6,187v9.1h-2.5V187H237.6z M243.7,186.4l-4.1-2.1H229V199h10.7l3.9-2.1L243.7,186.4z" fill="#FFFFFF"/>
    <path class="st2" d="M256.6,184.1l4.2,2.2v2.5h-6V187h-2.5v3l4.4,0.2l4.1,2.1v4.5l-3.9,2.1h-6.8l-3.9-2.1v-2.6h6.1v1.9h2.5V193&#xA;&#x9;&#x9;l-4.4-0.1l-4.2-2.2v-4.3l4-2.2L256.6,184.1L256.6,184.1z" fill="#FFFFFF"/>
    <path class="st2" d="M262.7,196.9c0-0.9,0.7-1.7,1.6-1.7s1.6,0.7,1.6,1.7s-0.7,1.7-1.6,1.7S262.7,197.9,262.7,196.9z M264.4,198.9&#xA;&#x9;&#x9;c1.1,0,2-0.9,2-2s-0.9-2-2-2s-2,0.9-2,2C262.3,198.1,263.2,198.9,264.4,198.9z M263.9,197.1h0.4l0.6,1h0.4l-0.7-1&#xA;&#x9;&#x9;c0.3,0,0.6-0.2,0.6-0.6c0-0.5-0.3-0.7-0.8-0.7h-0.9v2.3h0.4V197.1z M263.9,196.8v-0.7h0.5c0.2,0,0.5,0.1,0.5,0.3&#xA;&#x9;&#x9;c0,0.4-0.3,0.4-0.6,0.4H263.9z" fill="#FFFFFF"/>
    <path class="st3" d="M205.4,135.2c1.3-1.1,2.2-2.1,2.8-3.1s0.8-1.9,0.8-2.8c0-0.8-0.2-1.5-0.5-2.2l-1,0.4c0.2,0.6,0.4,1.1,0.4,1.7&#xA;&#x9;&#x9;c0,0.7-0.2,1.4-0.7,2.2s-1.3,1.8-2.6,2.8L205.4,135.2z" fill="#147C6B"/>
    <path class="st3" d="M204.7,137.7c2.3-1.6,3.8-2.9,4.6-4.2s1.1-2.6,1.1-3.7c0-0.2,0-0.5,0-0.7l-1.1,0.1v0.6c0,1-0.2,2-0.9,3.1&#xA;&#x9;&#x9;s-2,2.4-4.3,3.9L204.7,137.7z" fill="#147C6B"/>
    <path class="st3" d="M203.5,140.5c2.4-0.9,4.5-2.5,5.9-4.2c0.7-0.8,1.3-1.7,1.7-2.6c0.4-0.8,0.6-1.6,0.6-2.4c0-0.1,0-0.2,0-0.3&#xA;&#x9;&#x9;l-1.1,0.1v0.2c0,0.5-0.2,1.1-0.5,1.9c-0.5,1.1-1.5,2.3-2.7,3.5c-1.2,1.1-2.7,2.1-4.4,2.8L203.5,140.5z" fill="#147C6B"/>
    <path class="st2" d="M205,134.9c1.3-1.1,2.2-2.1,2.8-3.1s0.8-1.9,0.8-2.8c0-0.8-0.2-1.5-0.5-2.2l-1,0.4c0.2,0.6,0.4,1.1,0.4,1.7&#xA;&#x9;&#x9;c0,0.7-0.2,1.4-0.7,2.2s-1.3,1.8-2.6,2.8L205,134.9z" fill="#FFFFFF"/>
    <path class="st2" d="M204.3,137.4c2.3-1.6,3.8-2.9,4.6-4.2s1.1-2.6,1.1-3.7c0-0.2,0-0.5,0-0.7l-1.1,0.1v0.6c0,1-0.2,2-0.9,3.1&#xA;&#x9;&#x9;s-2,2.4-4.3,3.9L204.3,137.4z" fill="#FFFFFF"/>
    <path class="st2" d="M203.2,140.2c2.4-0.9,4.5-2.5,5.9-4.2c0.7-0.8,1.3-1.7,1.7-2.6c0.4-0.8,0.6-1.6,0.6-2.4c0-0.1,0-0.2,0-0.3&#xA;&#x9;&#x9;l-1.1,0.1v0.2c0,0.5-0.2,1.1-0.5,1.9c-0.5,1.1-1.5,2.3-2.7,3.5c-1.2,1.1-2.7,2.1-4.4,2.8L203.2,140.2z" fill="#FFFFFF"/>
    <path d="M211.9,122.8c-3.2-1-6.6,0.8-7.6,4s0.8,6.6,4,7.6s6.6-0.8,7.6-4S215.1,123.8,211.9,122.8z"/>
    <path d="M211.9,122.8L211.9,122.8c-0.6-0.3-1.2-0.4-1.8-0.4c-2.6,0-5.1,1.7-5.9,4.3c-0.2,0.6-0.3,1.2-0.3,1.8&#xA;&#x9;&#x9;c0,2.6,1.7,5.1,4.4,5.9c0.6,0.2,1.2,0.3,1.8,0.3c2.6,0,5.1-1.7,5.9-4.3c0.2-0.6,0.3-1.2,0.3-1.8C216.3,126,214.6,123.5,211.9,122.8&#xA;&#x9;&#x9;L211.9,122.8L211.9,122.8c2.6,0.9,4.2,3.3,4.2,5.8c0,0.6-0.1,1.2-0.3,1.8c-0.8,2.6-3.1,4.2-5.7,4.2c-0.6,0-1.2-0.1-1.8-0.3&#xA;&#x9;&#x9;c-2.6-0.8-4.2-3.2-4.2-5.7c0-0.6,0.1-1.2,0.3-1.8c0.8-2.6,3.1-4.2,5.7-4.2C210.7,122.6,211.3,122.7,211.9,122.8L211.9,122.8z"/>
    <path class="st2" d="M216.1,128.9c-0.1,0-0.1,0-0.1,0.1c-0.1,0.2-0.2,0.4-0.2,0.7c0,0.1,0.1,0.1,0.1-0.1s0.2-0.4,0.2-0.5&#xA;&#x9;&#x9;c0,0.2-0.1,0.8-0.2,1l-0.1-0.1c-0.1,0.1-0.2,0.2-0.2,0.3c-0.1,0.1-0.1,0.2-0.3,0.2c0.1,0.1,0.2-0.1,0.1,0c0.1,0,0.1-0.1,0.1-0.2&#xA;&#x9;&#x9;c0.1-0.1,0.2-0.3,0.3-0.4c-0.1,0.3-0.1,0.6-0.3,0.8c0-0.1-0.1-0.1-0.2-0.1c-0.2,0.1-0.4,0.4-0.5,0.6c0,0.1,0,0.1,0.1,0.1&#xA;&#x9;&#x9;c0.1-0.1,0.4-0.5,0.5-0.4c-0.1,0.3-0.2,0.6-0.5,0.7c-0.1,0-0.1,0.1-0.1-0.1c-0.2,0.1-0.3,0.2-0.5,0.2c-0.1,0.2-0.5,0.8-0.8,0.5&#xA;&#x9;&#x9;l-0.1,0.1c0-0.3,0.6-0.6,0.9-0.6c0,0,0.1-0.1,0-0.2c-0.1-0.2-0.6,0-0.8,0.5c-0.2-0.2-0.6,0-0.7,0.1c-0.1,0.2-0.6,0.4-0.9,0&#xA;&#x9;&#x9;c-0.1,0-0.2,0.1-0.3,0.1c-0.2,0.3-0.6,0.5-0.9,0.2c-0.1,0-0.2,0-0.3,0c-0.1,0.3-0.7,0.3-0.9-0.2c-0.2,0-0.4-0.1-0.6-0.2&#xA;&#x9;&#x9;c-0.2,0.2-0.5,0.2-0.7,0.1c-0.1-0.1-0.2-0.2-0.3-0.4h-0.1c-0.1-0.4-0.4-0.8-1-0.5c-0.2,0-0.3-0.2-0.4-0.3c0-0.3-0.2-0.6-0.4-0.8&#xA;&#x9;&#x9;c-0.1-0.1-0.3-0.1-0.4,0c-0.1,0-0.1-0.1-0.1-0.1c-0.1-0.2-0.3-0.2-0.3-0.4c0.1-0.4-0.2-0.9-0.5-0.8c-0.1,0.2-0.4,0-0.3-0.7&#xA;&#x9;&#x9;c-0.2-0.2-0.1-0.7-0.1-0.9c-0.1-0.1,0.1-0.7,0.2-1.1c-0.1,0.2-0.1,0.6,0,0.7h0.1c0.1-0.2,0.1-0.5,0-0.7h-0.1&#xA;&#x9;&#x9;c0.4-1.3,3.2-4.6,7.2-3.4C214.9,123.5,216.3,126.5,216.1,128.9L216.1,128.9z" fill="#FFFFFF"/>
    <path d="M204.5,127.1c0.2,0,0.2,0.3,0.1,0.6h-0.1v-0.2c0.1-0.1,0-0.2,0-0.2V127.1z"/>
    <path d="M210,122.7c0.2,0,0.3-0.1,0.4-0.1c-0.1,0.2-0.6,0.2-0.8,0.1H210z"/>
    <path d="M208.9,122.8c0.2-0.1,0.3-0.1,0.4-0.1c-0.1,0.2-0.6,0.3-0.7,0.2C208.6,122.9,208.7,122.9,208.9,122.8z"/>
    <path d="M208.2,123.1c-0.1,0.1-0.4,0.3-0.4,0.2C208,123.2,208.1,123,208.2,123.1z"/>
    <path d="M207.4,123.3c0,0.2-0.3,0.3-0.4,0.3C207.2,123.5,207.2,123.4,207.4,123.3z"/>
    <path d="M206.3,124c0,0,0.3-0.2,0.3-0.3C206.8,123.7,206.4,124.1,206.3,124z"/>
    <path d="M205.7,124.7c0.1-0.1,0.3-0.3,0.3-0.5C206.1,124.4,205.9,124.7,205.7,124.7z"/>
    <path d="M215.8,127.6c-0.1,0.2,0.1,0.5,0,0.5c-0.1-0.1-0.2-0.7,0-0.7C215.9,127.5,215.9,127.5,215.8,127.6z"/>
    <path d="M215.7,129c0,0.1,0,0.1-0.1,0.3c-0.1-0.1,0-0.7,0.2-0.7C215.9,128.7,215.7,128.8,215.7,129L215.7,129z"/>
    <path d="M205.2,125.4c0,0.2-0.2,0.6-0.3,0.7C205.1,125.8,205,125.5,205.2,125.4C205.2,125.3,205.2,125.3,205.2,125.4z"/>
    <path d="M215.3,130.2c-0.1,0,0.1-0.7,0.3-0.8C215.8,129.8,215.4,129.9,215.3,130.2z"/>
    <path d="M215.1,130.9c-0.1,0.2-0.2,0.1-0.4,0.2c-0.1,0.1-0.1,0.2-0.2,0.2C214.6,130.9,215.1,130.6,215.1,130.9L215.1,130.9z"/>
    <path class="st2" d="M204.1,128.2c0-0.2,0-0.4,0.1-0.6C204.3,127.7,204.2,128,204.1,128.2z" fill="#FFFFFF"/>
    <path d="M204.8,128.8c-0.1-0.2-0.1-0.5-0.3-0.6C204.6,127.8,205,128.2,204.8,128.8z"/>
    <path class="st2" d="M204.3,128.9c-0.2,0-0.2-0.2-0.2-0.4C204.2,128.6,204.2,128.6,204.3,128.9z" fill="#FFFFFF"/>
    <path class="st2" d="M213.1,132.8c-0.1,0-0.2,0.1-0.2,0l-0.1-0.1c0.2,0,0.4-0.1,0.5-0.1l0.2-0.1&#xA;&#x9;&#x9;C213.4,132.7,213.2,132.7,213.1,132.8z" fill="#FFFFFF"/>
    <path d="M207.4,123.7c0,0.2-0.3,0.4-0.4,0.3C207.2,123.9,207.1,123.7,207.4,123.7z"/>
    <path d="M206.5,124.2c0,0.2-0.2,0.5-0.4,0.4C206.1,124.5,206.4,124.4,206.5,124.2z"/>
    <path d="M205.4,125.5c0.3-0.2,0.3-0.5,0.2-0.7C205.9,125,205.9,125.5,205.4,125.5z"/>
    <path d="M215.4,129.1c-0.2-0.1-0.4,0.4-0.4,0.6c0-0.2,0-0.5,0.2-0.7S215.5,128.9,215.4,129.1z"/>
    <path d="M205.1,126.2c0.1,0.1-0.1,0.7-0.2,0.7c0.2-0.3,0-0.6,0-0.6C204.9,126.1,205.1,126,205.1,126.2z"/>
    <path d="M215.2,130c-0.1,0.2-0.3,0.1-0.4,0.3c0,0.1-0.1,0.1-0.1,0.2C214.7,130.1,215.1,129.6,215.2,130z"/>
    <path d="M205.2,127c0.1,0.2,0,0.6-0.1,0.7c0-0.2,0.1-0.4-0.1-0.5C204.8,127,205.1,126.8,205.2,127L205.2,127z"/>
    <path d="M214.6,130.7c0,0.1-0.1,0.1-0.2,0.1s-0.4,0.3-0.4,0.3C214,130.7,214.4,130.2,214.6,130.7L214.6,130.7z"/>
    <path d="M205.4,128.7c-0.1-0.1,0-0.5-0.4-0.6C205.1,127.7,205.6,128.1,205.4,128.7z"/>
    <path d="M213.8,131.2c0,0.1-0.1,0-0.1,0.1c-0.2,0.1-0.4,0.2-0.5,0.4C213.1,131.5,213.7,130.9,213.8,131.2z"/>
    <path d="M205.8,129.7c0,0-0.1,0-0.1-0.1s-0.2-0.4-0.4-0.4c-0.1,0-0.1-0.1,0-0.1C205.6,128.8,206,129.5,205.8,129.7z"/>
    <path d="M212.8,131.9c-0.1,0-0.4-0.1-0.6,0.1c0.1-0.3,0.5-0.4,0.7-0.4C213,131.6,213,131.9,212.8,131.9L212.8,131.9z"/>
    <path d="M207.3,131c0,0-0.1,0.2-0.2-0.1c-0.1-0.1-0.2-0.3-0.6-0.3C206.8,130,207.3,130.5,207.3,131z"/>
    <path d="M211.6,131.9c0.1,0.1,0,0.3-0.3,0.2c-0.2-0.1-0.5-0.1-0.7,0C211,131.6,211.5,131.8,211.6,131.9z"/>
    <path d="M210.6,132.2c0,0.1-0.1,0.2-0.2,0.1c-0.1-0.1-0.5-0.2-0.7-0.1c-0.1,0-0.1,0-0.1-0.1C209.6,131.8,210.4,131.7,210.6,132.2z"/>
    <path d="M209,132c0,0.2-0.2,0.1-0.3,0s-0.5-0.2-0.7-0.2v-0.1C208.4,131.1,209.1,131.7,209,132z"/>
    <path class="st2" d="M207.6,132c-0.1,0.1-0.3,0.1-0.4,0c-0.1-0.1-0.2-0.2-0.2-0.4C207.2,131.8,207.5,131.9,207.6,132L207.6,132z" fill="#FFFFFF"/>
    <path class="st2" d="M206.9,133.7c-0.2-0.1-0.4-0.2-0.5-0.3C206.6,133.5,206.9,133.6,206.9,133.7z" fill="#FFFFFF"/>
    <path d="M204.5,127.1c0.2,0,0.2,0.3,0.1,0.6h-0.1v-0.2c0.1-0.1,0-0.2,0-0.2V127.1z"/>
    <path d="M211.1,122.8c0.2,0.1,0.4,0,0.4,0.1c-0.1,0.1-0.8,0-0.9-0.2C210.7,122.7,210.8,122.8,211.1,122.8z"/>
    <path d="M212.3,123.2c0.2,0.1,0.4,0.1,0.4,0.1c-0.1,0.1-0.8-0.2-0.9-0.3C211.9,123,212.1,123.1,212.3,123.2z"/>
    <path d="M213.5,123.9c0.2,0.1,0.4,0.2,0.4,0.2c-0.1,0.1-0.8-0.3-0.8-0.5C213.2,123.6,213.3,123.7,213.5,123.9L213.5,123.9z"/>
    <path d="M214.5,124.7c0.1,0.2,0.3,0.3,0.3,0.3c-0.2,0-0.6-0.5-0.6-0.7C214.3,124.3,214.3,124.5,214.5,124.7z"/>
    <path d="M215.2,125.9c0.1,0.2,0.2,0.3,0.2,0.4c-0.2,0-0.5-0.5-0.4-0.8C215.1,125.5,215.1,125.6,215.2,125.9z"/>
    <path d="M215.6,126.8c0.1,0.2,0.2,0.3,0.2,0.4c-0.2,0-0.4-0.6-0.2-0.8V126.8z"/>
    <path class="st2" d="M206.1,133.1c-0.1-0.1-0.3-0.3-0.4-0.4C205.9,132.8,206,132.9,206.1,133.1z" fill="#FFFFFF"/>
    <path class="st2" d="M205.4,132.2c-0.1-0.1-0.1-0.2-0.2-0.2c-0.1-0.1-0.2-0.1-0.2-0.2C205.3,132,205.4,132.1,205.4,132.2z" fill="#FFFFFF"/>
    <path class="st2" d="M205.5,132.1c0-0.2,0-0.4-0.2-0.6C205.5,131.6,205.7,132,205.5,132.1z" fill="#FFFFFF"/>
    <path class="st2" d="M206,132.2c0.2,0.3,0.5,0.4,0.4,0.2C206.4,132.5,206.2,132.5,206,132.2z" fill="#FFFFFF"/>
    <path class="st2" d="M206.1,132.5c0.1,0.1,0.2,0.4,0.2,0.5C206.2,133,206,132.4,206.1,132.5z" fill="#FFFFFF"/>
    <path class="st2" d="M205.4,131.2c0,0.4,0.4,0.6,0.5,0.3C205.8,131.6,205.6,131.5,205.4,131.2z" fill="#FFFFFF"/>
    <path class="st2" d="M206.2,131.7c-0.1,0.2,0.5,0.8,0.7,0.5C206.7,132.1,206.3,132,206.2,131.7z" fill="#FFFFFF"/>
    <path class="st2" d="M206.3,131.1c-0.1,0.2-0.7,0.1-0.7-0.6C205.8,130.7,206,131,206.3,131.1z" fill="#FFFFFF"/>
    <path class="st2" d="M205,131.8c0.1-0.2-0.2-0.7-0.4-0.8C204.7,131.1,204.9,131.5,205,131.8z" fill="#FFFFFF"/>
    <path class="st2" d="M205.1,131.2c0.1-0.1,0-0.4-0.1-0.5C205.1,130.9,205.1,131.1,205.1,131.2z" fill="#FFFFFF"/>
    <path class="st2" d="M205.1,130.2c-0.2,0.4,0.4,0.8,0.4,0.5C205.3,130.8,205.1,130.5,205.1,130.2z" fill="#FFFFFF"/>
    <path class="st2" d="M204.4,130c0.1,0.2,0.1,0.6,0.1,0.7C204.6,130.6,204.6,130.1,204.4,130z" fill="#FFFFFF"/>
    <path class="st2" d="M204.7,129.2c-0.1,0.6,0.3,0.9,0.4,0.5C205,129.7,204.7,129.4,204.7,129.2z" fill="#FFFFFF"/>
    <path class="st2" d="M204.6,129.8c0,0.3-0.3,0.1-0.3-0.4c0.1,0.1,0.1,0.1,0.1,0.2S204.4,129.8,204.6,129.8z" fill="#FFFFFF"/>
    <path d="M205,125.2l0.1,0.1c1.2-1.7,3.1-2.7,5-2.7c1.1,0,2.3,0.3,3.3,1c1.7,1.1,2.6,3,2.6,4.9c0,1.2-0.3,2.3-1,3.3&#xA;&#x9;&#x9;c-1.2,1.7-3.1,2.7-5,2.7c-1.1,0-2.3-0.3-3.3-1c-1.7-1.1-2.6-3-2.6-4.9c0-1.2,0.3-2.3,1-3.3L205,125.2l-0.1-0.1&#xA;&#x9;&#x9;c-0.7,1.1-1.1,2.3-1.1,3.5c0,2,0.9,3.9,2.7,5.1c1.1,0.7,2.2,1,3.4,1c2,0,4-1,5.2-2.8c0.7-1.1,1.1-2.3,1.1-3.5c0-2-1-3.9-2.7-5.1&#xA;&#x9;&#x9;c-1.1-0.7-2.2-1-3.4-1C208.1,122.3,206.1,123.3,205,125.2L205,125.2z"/>
    <path class="st2" d="M220.4,120.7c-0.2-4.6-4.1-8.2-8.8-8s-8.2,4.1-8,8.8c0.2,4.6,4.1,8.2,8.8,8C217,129.2,220.6,125.3,220.4,120.7&#xA;&#x9;&#x9;z" fill="#FFFFFF"/>
    <path d="M220.4,120.7h0.2c-0.2-4.6-4-8.3-8.6-8.3c-0.1,0-0.2,0-0.4,0c-4.6,0.2-8.3,4-8.3,8.6v0.4c0.2,4.6,4,8.3,8.6,8.3h0.4&#xA;&#x9;&#x9;c4.6-0.2,8.3-4,8.3-8.6c0-0.1,0-0.2,0-0.4H220.4h-0.2v0.4c0,4.4-3.4,8-7.8,8.2c-0.1,0-0.2,0-0.4,0c-4.4,0-8-3.4-8.2-7.8&#xA;&#x9;&#x9;c0-0.1,0-0.2,0-0.4c0-4.4,3.4-8,7.8-8.2h0.4c4.4,0,8,3.4,8.2,7.8C220.2,120.7,220.4,120.7,220.4,120.7z"/>
    <path d="M214.5,122.4l1.8-0.8l-0.2-0.4l-1.8,0.8"/>
    <path d="M208.1,119.4l1.3,1.5l0.3-0.3l-1.3-1.5"/>
    <path class="st4" d="M219.4,124.7c-1.3-0.7-2.4-1.7-3.1-3l-0.6,0.3c0.8,1.4,2,2.6,3.4,3.3L219.4,124.7z" fill="#BDBFC1"/>
    <path class="st4" d="M209.2,128.8c0.6-1.2,0.9-2.5,0.9-3.9c0-1.2-0.2-2.3-0.7-3.4l-0.6,0.3c0.4,1,0.7,2.1,0.7,3.2&#xA;&#x9;&#x9;c0,1.2-0.3,2.5-0.8,3.6L209.2,128.8z" fill="#BDBFC1"/>
    <path class="st5" d="M216.9,121.5l-0.6,0.4l-1.2,0.2c-0.2,0-0.3,0.2-0.3,0.4s0.2,0.3,0.4,0.3l1.4-0.2l0.7-0.4&#xA;&#x9;&#x9;c0.1-0.1,0.2-0.3,0.1-0.4C217.3,121.4,217.1,121.4,216.9,121.5L216.9,121.5z" fill="#939598"/>
    <path class="st5" d="M217.6,122.4l-0.5,0.4l-1.2,0.2c-0.2,0-0.3,0.2-0.2,0.4c0,0.2,0.2,0.3,0.4,0.3l1.3-0.3l0.6-0.5&#xA;&#x9;&#x9;c0.1-0.1,0.2-0.3,0.1-0.4C218,122.3,217.8,122.3,217.6,122.4L217.6,122.4z" fill="#939598"/>
    <path class="st5" d="M218.1,123.2l-0.5,0.4l-1.2,0.3c-0.2,0.1-0.3,0.2-0.2,0.4s0.2,0.3,0.4,0.2l1.3-0.4l0.6-0.5&#xA;&#x9;&#x9;c0.1-0.1,0.1-0.3,0-0.5C218.5,123.1,218.3,123.1,218.1,123.2L218.1,123.2z" fill="#939598"/>
    <path class="st5" d="M218.9,123.7l-0.5,0.5l-1.1,0.4c-0.2,0.1-0.2,0.2-0.2,0.4s0.2,0.2,0.4,0.2l1.3-0.5l0.6-0.6&#xA;&#x9;&#x9;c0.1-0.1,0.1-0.3,0-0.5C219.2,123.5,219,123.6,218.9,123.7z" fill="#939598"/>
    <path class="st5" d="M219.1,124.8l-1.1,0.6c-0.2,0.1-0.2,0.3-0.1,0.4s0.3,0.2,0.4,0.1l1.1-0.6c0.2-0.1,0.2-0.3,0.1-0.4&#xA;&#x9;&#x9;C219.5,124.8,219.3,124.7,219.1,124.8z" fill="#939598"/>
    <path class="st5" d="M208.8,124.1l0.7-0.1h0.1l1.1-0.8c0.1-0.1,0.2-0.3,0.1-0.4c-0.1-0.2-0.3-0.2-0.4-0.1l-1,0.7l-0.6,0.1&#xA;&#x9;&#x9;c-0.2,0-0.3,0.2-0.3,0.4C208.4,124,208.6,124.1,208.8,124.1L208.8,124.1z" fill="#939598"/>
    <path class="st5" d="M208.5,123.2l0.8-0.2l1.1-0.9c0.1-0.1,0.2-0.3,0-0.5s-0.3-0.2-0.5,0l-0.9,0.8l-0.6,0.2c-0.2,0-0.3,0.2-0.2,0.4&#xA;&#x9;&#x9;C208.1,123.2,208.3,123.3,208.5,123.2L208.5,123.2z" fill="#939598"/>
    <path class="st5" d="M208.9,125.1l0.7-0.1h0.1l1.2-0.7c0.1-0.1,0.2-0.3,0.1-0.4s-0.3-0.2-0.4-0.1l-1,0.6l-0.6,0.1&#xA;&#x9;&#x9;c-0.2,0-0.3,0.2-0.3,0.3C208.6,125,208.7,125.1,208.9,125.1z" fill="#939598"/>
    <path class="st5" d="M208.8,126.2h0.7h0.1l1.2-0.6c0.2-0.1,0.2-0.3,0.1-0.4s-0.3-0.2-0.4-0.1l-1.1,0.6h-0.6c-0.2,0-0.3,0.2-0.3,0.3&#xA;&#x9;&#x9;C208.4,126,208.6,126.2,208.8,126.2z" fill="#939598"/>
    <path class="st5" d="M208.7,127.1h0.7h0.1l1.3-0.5c0.2-0.1,0.2-0.3,0.2-0.4c-0.1-0.2-0.3-0.2-0.4-0.2l-1.1,0.5h-0.6&#xA;&#x9;&#x9;c-0.2,0-0.3,0.1-0.3,0.3C208.4,126.9,208.5,127.1,208.7,127.1z" fill="#939598"/>
    <path class="st5" d="M208.6,128l0.7,0.1h0.1l1.3-0.5c0.2-0.1,0.2-0.2,0.2-0.4s-0.2-0.2-0.4-0.2l-1.1,0.4l-0.6-0.1&#xA;&#x9;&#x9;c-0.2,0-0.3,0.1-0.4,0.3S208.4,128,208.6,128z" fill="#939598"/>
    <path class="st5" d="M209.4,129h0.2l0.9-0.3c0.2-0.1,0.3-0.2,0.2-0.4s-0.2-0.3-0.4-0.2l-0.9,0.3h-0.2c-0.2,0-0.3,0.2-0.3,0.4&#xA;&#x9;&#x9;C209.1,128.9,209.2,129,209.4,129z" fill="#939598"/>
    <path class="st6" d="M216.9,121.5l-0.6,0.4l-1.2,0.2c-0.2,0-0.3,0.2-0.3,0.4s0.2,0.3,0.4,0.3l1.4-0.2l0.7-0.4&#xA;&#x9;&#x9;c0.1-0.1,0.2-0.3,0.1-0.4C217.2,121.4,217,121.4,216.9,121.5L216.9,121.5z" fill="#F9A13A"/>
    <path class="st6" d="M217.6,122.3l-0.5,0.4l-1.2,0.2c-0.2,0-0.3,0.2-0.2,0.4c0,0.2,0.2,0.3,0.4,0.3l1.3-0.3l0.6-0.5&#xA;&#x9;&#x9;c0.1-0.1,0.2-0.3,0.1-0.4C217.9,122.3,217.7,122.2,217.6,122.3L217.6,122.3z" fill="#F9A13A"/>
    <path class="st6" d="M218.1,123.1l-0.5,0.4l-1.2,0.3c-0.2,0.1-0.3,0.2-0.2,0.4s0.2,0.3,0.4,0.2l1.3-0.4l0.6-0.5&#xA;&#x9;&#x9;c0.1-0.1,0.1-0.3,0-0.5C218.4,123,218.2,123,218.1,123.1L218.1,123.1z" fill="#F9A13A"/>
    <path class="st6" d="M218.8,123.6l-0.5,0.5l-1.1,0.4c-0.2,0.1-0.2,0.2-0.2,0.4s0.2,0.2,0.4,0.2l1.3-0.5l0.6-0.6&#xA;&#x9;&#x9;c0.1-0.1,0.1-0.3,0-0.5C219.1,123.5,218.9,123.5,218.8,123.6z" fill="#F9A13A"/>
    <path class="st6" d="M219.1,124.7l-1.1,0.6c-0.2,0.1-0.2,0.3-0.1,0.4c0.1,0.2,0.3,0.2,0.4,0.1l1.1-0.6c0.2-0.1,0.2-0.3,0.1-0.4&#xA;&#x9;&#x9;S219.2,124.7,219.1,124.7z" fill="#F9A13A"/>
    <path class="st6" d="M208.7,124l0.7-0.1h0.1l1.1-0.8c0.1-0.1,0.2-0.3,0.1-0.4c-0.1-0.2-0.3-0.2-0.4-0.1l-1,0.7l-0.6,0.1&#xA;&#x9;&#x9;c-0.2,0-0.3,0.2-0.3,0.4C208.4,123.9,208.6,124,208.7,124L208.7,124z" fill="#F9A13A"/>
    <path class="st6" d="M208.4,123.2l0.8-0.2l1.1-0.9c0.1-0.1,0.2-0.3,0-0.5c-0.1-0.1-0.3-0.2-0.5,0l-0.9,0.8l-0.6,0.2&#xA;&#x9;&#x9;c-0.2,0-0.3,0.2-0.2,0.4C208.1,123.1,208.3,123.2,208.4,123.2L208.4,123.2z" fill="#F9A13A"/>
    <path class="st6" d="M208.8,125l0.7-0.1h0.1l1.2-0.7c0.1-0.1,0.2-0.3,0.1-0.4c-0.1-0.2-0.3-0.2-0.4-0.1l-1,0.6l-0.6,0.1&#xA;&#x9;&#x9;c-0.2,0-0.3,0.2-0.3,0.3C208.5,124.9,208.6,125,208.8,125z" fill="#F9A13A"/>
    <path class="st6" d="M208.7,126.1h0.7h0.1l1.2-0.6c0.2-0.1,0.2-0.3,0.1-0.4s-0.3-0.2-0.4-0.1l-1.1,0.6h-0.6c-0.2,0-0.3,0.2-0.3,0.3&#xA;&#x9;&#x9;S208.5,126.1,208.7,126.1z" fill="#F9A13A"/>
    <path class="st6" d="M208.6,127h0.7h0.1l1.3-0.5c0.2-0.1,0.2-0.3,0.2-0.4c-0.1-0.2-0.3-0.2-0.4-0.2l-1.1,0.5h-0.6&#xA;&#x9;&#x9;c-0.2,0-0.3,0.1-0.3,0.3C208.3,126.8,208.4,127,208.6,127z" fill="#F9A13A"/>
    <path class="st6" d="M208.5,127.9l0.7,0.1h0.1l1.3-0.5c0.2-0.1,0.2-0.2,0.2-0.4s-0.2-0.2-0.4-0.2l-1.1,0.4l-0.6-0.1&#xA;&#x9;&#x9;c-0.2,0-0.3,0.1-0.4,0.3S208.3,127.9,208.5,127.9z" fill="#F9A13A"/>
    <path class="st6" d="M209.2,128.9l0.4-0.1l0.9-0.3c0.2-0.1,0.3-0.2,0.2-0.4s-0.2-0.3-0.4-0.2l-0.9,0.3l-0.4,0.1&#xA;&#x9;&#x9;c-0.2,0-0.3,0.2-0.3,0.4C208.9,128.8,209,128.9,209.2,128.9z" fill="#F9A13A"/>
    <path d="M203.8,118.4c-0.2,0.9-0.4,1.7-0.4,2.6c0,3.7,2.4,7.1,6.1,8.2c0.8,0.2,1.6,0.4,2.5,0.4c3.7,0,7.2-2.4,8.4-6.2&#xA;&#x9;&#x9;c0.2-0.7,0.3-1.4,0.3-2.1c0-0.8-0.1-1.5-0.3-2.3h-0.1c0.2,0.8,0.3,1.5,0.3,2.3c0,0.7-0.1,1.4-0.3,2.1c-1.1,3.7-4.6,6.1-8.3,6.1&#xA;&#x9;&#x9;c-0.8,0-1.6-0.1-2.4-0.4c-3.7-1.1-6-4.4-6-8.1C203.5,120.1,203.6,119.2,203.8,118.4z"/>
    <path class="st2" d="M222,112.3c-0.2-5.6-4.9-9.9-10.5-9.7s-9.9,4.9-9.6,10.5c0.2,5.6,4.9,9.9,10.5,9.7S222.3,117.9,222,112.3z" fill="#FFFFFF"/>
    <path d="M222,112.3h0.2c-0.2-5.5-4.8-9.9-10.3-9.9c-0.1,0-0.3,0-0.4,0c-5.5,0.2-9.9,4.8-9.9,10.3v0.4c0.2,5.5,4.8,9.9,10.3,9.9h0.4&#xA;&#x9;&#x9;c5.5-0.2,9.9-4.8,9.9-10.3c0-0.2,0-0.3,0-0.4H222h-0.2v0.4c0,5.2-4.1,9.6-9.4,9.8c-0.1,0-0.3,0-0.4,0c-5.2,0-9.6-4.1-9.8-9.4&#xA;&#x9;&#x9;c0-0.2,0-0.3,0-0.4c0-5.2,4.1-9.6,9.4-9.8h0.4c5.2,0,9.6,4.1,9.9,9.4H222z"/>
    <path d="M209.6,114.2l3.2,1.4l2.3-2.2l-1.6-3.5l-3.4,0.7L209.6,114.2z"/>
    <path d="M209.6,114.2l-0.2,0.6l3.5,1.5l2.9-2.7l-1.9-4.4l-4.4,0.8l-0.6,4.6l0.5,0.2L209.6,114.2l0.6,0.1l0.4-3.2l2.5-0.5l1.2,2.7&#xA;&#x9;&#x9;l-1.7,1.6l-2.7-1.3L209.6,114.2z"/>
    <path d="M218.8,113.7l1.9,2.6l0.7-0.3c0.4-1.2,0.6-2.4,0.6-3.8c0-0.4-0.1-0.8-0.1-1.2l-1.5-0.4L218.8,113.7z"/>
    <path d="M218.8,113.7l-0.2,0.2l2.1,2.7l1-0.4v-0.1c0.4-1.1,0.6-2.2,0.6-3.4c0-0.2,0-0.3,0-0.4c0-0.4-0.1-0.8-0.1-1.2v-0.2l-1.9-0.6&#xA;&#x9;&#x9;l-1.7,3.5l0.1,0.2L218.8,113.7l0.3,0.1l1.4-2.9l1.3,0.4l0.1-0.3l-0.3,0.1c0.1,0.4,0.1,0.8,0.1,1.2v0.4c0,1.1-0.2,2.2-0.6,3.2&#xA;&#x9;&#x9;l0.3,0.1l-0.1-0.3l-0.5,0.2l-1.8-2.4L218.8,113.7z"/>
    <path d="M211.4,120.8l1.2,1.9c1.6-0.1,3-0.6,4.3-1.3l0.3-1.1l-3.3-1.7L211.4,120.8z"/>
    <path d="M211.4,120.8l-0.2,0.2l1.3,2.1h0.2c1.6-0.1,3.1-0.6,4.4-1.3l0.1-0.1l0.4-1.5l-3.7-1.9l-2.8,2.4l0.1,0.2L211.4,120.8&#xA;&#x9;&#x9;l0.2,0.2l2.3-2l2.9,1.5l-0.2,0.9l0.3,0.1l-0.1-0.3c-1.2,0.7-2.6,1.1-4.2,1.2v0.3l0.2-0.2l-1.2-1.9L211.4,120.8z"/>
    <path d="M204.5,115.7l-0.8,2.7c0.6,0.9,1.4,1.7,2.2,2.3l1.6-1.3l-0.4-3.7H204.5z"/>
    <path d="M204.5,115.7l-0.3-0.1l-0.9,2.8l0.1,0.1c0.6,0.9,1.4,1.7,2.3,2.4l0.2,0.1l2-1.6l-0.5-4.1h-3.1l-0.1,0.2L204.5,115.7v0.3&#xA;&#x9;&#x9;h2.3l0.4,3.3l-1.5,1.2l0.2,0.2l0.2-0.2c-0.8-0.6-1.6-1.4-2.2-2.2l-0.2,0.2l0.3,0.1l0.8-2.7L204.5,115.7z"/>
    <path d="M206.6,116.4l3.2-1.9l-0.3-0.5l-3.2,1.9"/>
    <path d="M214.3,119.2l-1.6-5.5l-0.6,0.2l1.6,5.5"/>
    <path d="M219.6,113.4l-5.4-0.6l-0.1,0.5l5.4,0.6"/>
    <path d="M220.6,115.7l-4.1,4.7l0.4,0.3l4-4.7"/>
    <path d="M211.8,120.7l-4.9-1.6l-0.1,0.4l4.9,1.6"/>
    <path d="M204.9,116.1l-1.9-5.5l-0.4,0.1l1.8,5.6"/>
    <path d="M220.8,111l-2.6-4.4l-0.4,0.2l2.6,4.4"/>
    <path class="st7" d="M208.5,91.2c-7.1,0.3-11.9,6-11.6,12.7c0.3,6.7,5.9,11.9,12.6,11.6s11.9-5.9,11.6-12.6&#xA;&#x9;&#x9;C220.9,96.2,215.2,90.9,208.5,91.2z" fill="#E58E1C"/>
    <path d="M208.5,91.2c-6.9,0.3-11.6,5.7-11.6,12.1v0.6c0.3,6.5,5.7,11.7,12.1,11.7h0.5c6.5-0.3,11.6-5.7,11.6-12.2&#xA;&#x9;&#x9;c0-0.2,0-0.3,0-0.5c-0.3-6.5-5.6-11.7-12.1-11.7C208.9,91.2,208.7,91.2,208.5,91.2c0.2,0.1,0.4,0.1,0.6,0.1c6.4,0,11.7,5.2,12,11.6&#xA;&#x9;&#x9;v0.5c0,6.4-5.1,11.8-11.5,12c-0.2,0-0.4,0-0.5,0c-6.4,0-11.8-5.1-12-11.5c0-0.2,0-0.4,0-0.6C197,97,201.7,91.6,208.5,91.2z"/>
    <path d="M198.5,98.3v-0.2c-0.3,0-0.5,0.1-0.7,0.1h-0.1l-0.1,0.1c-0.6,1.5-1,3.2-1,4.9v0.3c0.2,4.9,2.7,8.7,6.5,10.7l0.1,0.1&#xA;&#x9;&#x9;l0.1-0.1c2.4-1.6,4.2-4.4,4.2-7.5c0-0.1,0-0.2,0-0.3c-0.2-4.6-4-8.3-8.6-8.3c-0.1,0-0.2,0-0.4,0V98.3v0.2h0.4c4.4,0,8,3.4,8.2,7.8&#xA;&#x9;&#x9;v0.3c0,2.9-1.7,5.7-4,7.1l0.1,0.2l0.1-0.2c-3.7-1.9-6.1-5.6-6.3-10.3c0-0.1,0-0.2,0-0.3c0-1.7,0.4-3.3,1-4.7l-0.2-0.1v0.2&#xA;&#x9;&#x9;C198.1,98.5,198.2,98.4,198.5,98.3L198.5,98.3z"/>
    <path d="M214,92.3l-0.1-0.2c-2.2,1.6-3.4,4.1-3.4,6.9v0.4c0.2,4.6,4,8.3,8.6,8.3h0.4c0.3,0,0.7-0.1,1-0.1h0.1v-0.1&#xA;&#x9;&#x9;c0.5-1.3,0.7-2.7,0.7-4.2c0-0.2,0-0.4,0-0.5c-0.2-4.8-3.2-8.7-7.2-10.6l-0.1-0.1l-0.1,0.1L214,92.3l-0.1,0.2&#xA;&#x9;&#x9;c3.9,1.8,6.8,5.7,7,10.2v0.5c0,1.4-0.2,2.8-0.7,4l0.2,0.1v-0.2c-0.3,0.1-0.6,0.1-1,0.1c-0.1,0-0.2,0-0.4,0c-4.4,0-8-3.4-8.2-7.8&#xA;&#x9;&#x9;c0-0.1,0-0.3,0-0.4c0-2.7,1.2-5.1,3.3-6.5L214,92.3z"/>
    <path d="M204.6,92.1l8.6,23.4l0.4-0.1L205,91.9"/>
    <path d="M198.1,108.6l9-3.8l-0.1-0.4l-9.1,3.8"/>
    <path d="M211.4,102.5l8.9-3.7l-0.2-0.5l-8.9,3.8"/>
    <path d="M205.5,115l0.1-0.2c-5.2-1.5-8.6-6.3-8.6-11.4c0-1.1,0.2-2.3,0.5-3.4c1.5-5.2,6.3-8.5,11.4-8.5c1.1,0,2.3,0.2,3.4,0.5&#xA;&#x9;&#x9;c5.2,1.5,8.6,6.3,8.6,11.5c0,1.1-0.2,2.3-0.5,3.4c-1.5,5.2-6.3,8.6-11.4,8.6c-1.1,0-2.3-0.2-3.4-0.5H205.5l-0.1,0.2&#xA;&#x9;&#x9;c1.2,0.3,2.4,0.5,3.5,0.5c5.3,0,10.3-3.5,11.9-8.9c0.4-1.2,0.5-2.4,0.5-3.5c0-5.3-3.5-10.3-8.9-11.9c-1.2-0.3-2.4-0.5-3.5-0.5&#xA;&#x9;&#x9;c-5.3,0-10.3,3.5-11.9,8.9c-0.4,1.2-0.5,2.4-0.5,3.5c0,5.3,3.5,10.3,8.9,11.9L205.5,115z"/>
    <g>
      <path class="st2" d="M214.9,131.9c-0.1,0.1-0.5,0.4-0.5,0.2c-0.1,0.2-0.1,0.4,0.1,0.3C214.6,132.4,214.8,132.2,214.9,131.9z" fill="#FFFFFF"/>
      <path class="st2" d="M214.6,132.6c0-0.2,0.2-0.4,0.3-0.4C214.9,132.2,214.7,132.5,214.6,132.6z" fill="#FFFFFF"/>
      <path class="st2" d="M214.3,132.5c-0.3,0.1-0.4,0.4-0.4,0.5c0.1-0.1,0.2-0.2,0.2-0.3C214.1,132.7,214.2,132.6,214.3,132.5&#xA;&#x9;&#x9;&#x9;C214.4,132.7,214.4,132.5,214.3,132.5z" fill="#FFFFFF"/>
      <path class="st2" d="M213.3,133.1c0.1,0.2,0.5-0.1,0.6-0.4c-0.1,0.1-0.4,0.4-0.5,0.3S213.2,133,213.3,133.1z" fill="#FFFFFF"/>
      <path class="st2" d="M213.5,133.2c-0.2,0.1-0.4,0.3-0.4,0.5c0.1-0.1,0.3-0.4,0.4-0.4C213.6,133.5,213.6,133.2,213.5,133.2z" fill="#FFFFFF"/>
      <path class="st2" d="M212,134.2c0.1-0.4,0.7-0.5,0.9-0.3C212.6,133.9,212.2,134,212,134.2z" fill="#FFFFFF"/>
      <path class="st2" d="M211.9,133.2c0.2,0.3,0.8,0.1,0.7-0.2C212.6,133.1,212.4,133.3,211.9,133.2z" fill="#FFFFFF"/>
      <path class="st2" d="M211.3,132.8c0,0.5,0.8,0.4,0.9-0.1C212.1,132.9,211.4,133,211.3,132.8z" fill="#FFFFFF"/>
      <path class="st2" d="M211,133.5c-0.1,0.1-0.2,0.1-0.1,0.2c0.1,0.1,0.5,0,0.6-0.2C211.5,133.5,211,133.6,211,133.5z" fill="#FFFFFF"/>
      <path class="st2" d="M210.9,134.5c0.1-0.4,0.9-0.4,1.1-0.2C211.6,134.2,211.1,134.2,210.9,134.5z" fill="#FFFFFF"/>
      <path class="st2" d="M209.5,134.5c0.2-0.3,1-0.3,1.1,0C210.3,134.2,209.8,134.4,209.5,134.5z" fill="#FFFFFF"/>
      <path class="st2" d="M210.4,133c-0.1-0.1-0.2,0-0.1,0.1s0.6,0.3,0.8-0.1C210.9,133.1,210.5,133.1,210.4,133z" fill="#FFFFFF"/>
      <path class="st2" d="M210.3,133.7c0.1,0.2-0.2,0.6-0.6,0.2C209.8,133.9,210.2,134.1,210.3,133.7z" fill="#FFFFFF"/>
      <path class="st2" d="M209.1,133.4c0.3,0.5,0.8,0.3,0.9,0C209.9,133.5,209.5,133.7,209.1,133.4z" fill="#FFFFFF"/>
      <path class="st2" d="M208.5,132.5c0.2,0.7,1,0.5,1,0.2C209.5,132.8,208.9,133,208.5,132.5z" fill="#FFFFFF"/>
      <path class="st2" d="M208.8,133.4c0,0.4-0.8,0.3-0.7-0.2C208.2,133.4,208.6,133.6,208.8,133.4z" fill="#FFFFFF"/>
      <path class="st2" d="M207.4,132.4c0.2,0.7,0.8,0.7,0.9,0.3C208.2,132.8,207.8,132.9,207.4,132.4z" fill="#FFFFFF"/>
      <path class="st2" d="M209.2,133.8c0,0.3-0.6,0.4-0.6-0.1C208.7,133.9,209,134,209.2,133.8z" fill="#FFFFFF"/>
      <path class="st2" d="M207.9,133.2c0.2,0.5-0.8,0.2-0.6-0.2C207.4,133.2,208,133.5,207.9,133.2z" fill="#FFFFFF"/>
      <path class="st2" d="M207.3,132.6c0.1,0.5-0.8,0.3-0.6-0.2C206.7,132.6,207.1,132.9,207.3,132.6z" fill="#FFFFFF"/>
    </g>
  </g>
</svg>