<?xml version="1.0" encoding="UTF-8"?>
<svg version="1.2" baseProfile="tiny-ps" id="Layer_1" xmlns="http://www.w3.org/2000/svg" xmlns:xlink="http://www.w3.org/1999/xlink" viewBox="0 0 247.52 247.52">
    <title>Public Lands</title>
    <desc>Logo for Public Lands</desc>
    <rect x="-.08" y="-.16" width="248" height="248" fill="#fff" />
    <g>
        <rect x="23.92" y="23.84" width="200" height="200" fill="#fff" />
        <path d="M127.57,33.84h-7.28s-18.93,52.68-61.07,52.68v50.49c35.79,0,53.63-51.99,53.63-51.99h4.37c0,31.1-14.21,50.04-17.67,55.29h48.18c-3.59-5.34-17.67-24.33-17.67-55.29h4.7s17.92,52.15,53.86,52.15v-50.65c-42.43,0-61.06-52.68-61.06-52.68Z" fill="#e3ff36" />
        <path d="M89.11,200.31l3.3-6.47h.95l3.3,6.47h-7.54Zm1.35-14.12l-12.02,22.35h6.12l1.8-3.53h13.05l1.8,3.53h6.12l-11.95-22.35h-4.93Z" fill="#002a19" />
        <path d="M151.96,202.07h-8.05v-9.41h8.05c3.51,0,4.83,1.87,4.83,4.7s-1.55,4.71-4.83,4.71Zm-.26-15.88h-13.67v22.35h13.49c7.94,0,11.29-4.45,11.29-11.18s-3.66-11.17-11.11-11.17Z" fill="#002a19" />
        <path d="M179.42,194.43h-4.46s-4.07-.6-4.07-1.72c0-1.84,2.71-1.85,6.28-1.85s5.82,2.39,5.82,2.39h5.74c0-3.94-3.6-7.15-11.75-7.15-9.31,0-11.94,2.36-11.94,6.84,0,4.01,2.5,6.78,10.16,6.78h4.68c1.56,0,2.98,.14,2.98,1.53,0,1.54-1.58,1.62-5.25,1.62-4.46,0-6.13-.12-6.35-1.98h-6.82c0,4.07,3.04,8.11,12.54,8.11,8.59,0,12.54-1.51,12.54-7.54,0-4.57-3.22-7.03-10.12-7.03Z" fill="#002a19" />
        <path d="M114.52,171.48h10.17c1.71,0,2.82,.67,2.82,2.19,0,1.33-.99,1.93-2.7,1.93h-10.3v-4.12h.01Zm-.01-7.65l9.12-.07c1.59,0,2.4,.64,2.4,1.74,0,1.35-.7,1.86-2.35,1.86h-9.17v-3.53Zm17.66,10.23c0-2.86-1.71-4.66-3.31-5.41,1.47-.87,2.39-2.17,2.39-4.28,0-3.54-3.2-5.83-7.49-5.83h-15.13v22.35h15.07c5.76,0,8.47-2.42,8.47-6.83Z" fill="#002a19" />
        <path d="M94.21,181.29c7.36,0,11.47-3.67,11.47-11.13v-11.62h-5.88v10.75c0,4.04-1.5,5.41-5.53,5.41s-5.65-1.37-5.65-5.41v-10.75h-5.88v11.62c0,7.46,4.18,11.13,11.47,11.13Z" fill="#002a19" />
        <path d="M64.51,165.01h7.29c1.67,0,2.98,.43,2.98,2.35s-1.13,2.35-2.81,2.35h-7.46v-4.71Zm0,10.59h7.16c4.37,0,9.23-1.13,9.23-8.85,0-7.02-5.44-8.21-9.5-8.21h-12.79v22.94h5.88v-5.88Z" fill="#002a19" />
        <polygon points="153.33 175.01 140.98 175.01 140.98 158.54 134.51 158.54 134.51 181.48 153.33 181.48 153.33 175.01" fill="#002a19" />
        <rect x="155.68" y="158.54" width="5.88" height="22.35" fill="#002a19" />
        <path d="M128.61,201.48h-.44c-4.38-3.1-10.33-9.91-12.95-15.29h-6.59v22.35h5.88v-12.35h.44c3.17,4.45,7.63,9.08,13.35,12.35h6.21v-22.35h-5.88v15.29h-.01Z" fill="#002a19" />
        <polygon points="64.51 185.6 58.62 185.6 58.62 208.54 77.45 208.54 77.45 202.07 64.51 202.07 64.51 185.6" fill="#002a19" />
        <path d="M176.38,180.72c3.46,0,10.88-.38,11.88-8.06h-5.37c-.8,2.03-3.4,2.45-6.39,2.45-3.66,0-6.52-1.63-6.52-5.44s2.86-5.35,6.52-5.35c3.11,0,5.84,.73,6.39,2.45h5.41c-.65-5.65-5.27-8.06-11.91-8.06-3.87,0-12.29,.95-12.29,11-.01,10.23,8.39,11.01,12.27,11.01Z" fill="#002a19" />
    </g>
</svg>
