<?xml version="1.0" encoding="UTF-8" standalone="yes"?>
<svg viewBox="0 0 1290.66 1290.66" version="1.2" baseProfile="tiny-ps" xmlns="http://www.w3.org/2000/svg">
  <title>bimi-svg-tiny-12-ps</title>
  <rect x="0" y="0" width="1290.66" height="1290.66" fill="#010101"/>
  <g>
    <path d="M586.66,981.83s2.58,7.74,2.58,17.2-2.58,17.31-2.58,17.31c-72.69-11.4-136.34-46.45-190.75-105.7-67.52-73.22-101.29-161.83-101.29-265.37s33.76-192.04,101.29-265.37c54.41-59.14,118.06-94.19,190.75-105.59,0,0,2.58,7.74,2.58,17.2s-2.58,17.31-2.58,17.31c-45.91,13.55-86.56,44.08-121.83,91.93-49.25,66.77-73.87,147.52-73.87,242.36,0,.75.11,1.4.11,2.15,0,.86-.11,1.51-.11,2.26,0,94.73,24.62,175.59,73.87,242.36,35.27,47.85,75.91,78.39,121.83,91.93Z" fill="#fff"/>
    <path d="M996.04,645.28c0,103.55-33.66,192.15-101.18,265.37-54.41,59.25-118.06,94.3-190.75,105.7,0,0-2.69-7.74-2.69-17.31s2.69-17.2,2.69-17.2c45.91-13.55,86.56-44.09,121.82-91.93,49.25-66.77,73.87-147.63,73.87-242.36,0-.75-.11-1.4-.11-2.26,0-.75.11-1.4.11-2.15,0-94.84-24.62-175.59-73.87-242.36-35.27-47.85-75.91-78.39-121.82-91.93,0,0-2.69-7.74-2.69-17.31s2.69-17.2,2.69-17.2c72.68,11.4,136.34,46.45,190.75,105.59,67.52,73.33,101.18,161.83,101.18,265.37Z" fill="#fff"/>
  </g>
</svg>