<?xml version="1.0" encoding="UTF-8" standalone="yes"?>
<svg version="1.2" baseProfile="tiny-ps" viewBox="0 0 141.73 141.73" xml:space="preserve" xmlns="http://www.w3.org/2000/svg">
  <title>bimi-svg-tiny-12-ps</title>
  <g>
    <rect fill="#C20A18" width="141.73" height="141.73"/>
    <path fill="#FFFFFF" d="M117.03,49.14V24.18h6.51v-8.84h-15.53v24.53H95.73c-2.81-0.94-3.43-6.7-3.5-7.44&#xA;&#x9;&#x9;c3.81-1.24,6.57-4.82,6.57-9.05c0-5.26-4.26-9.52-9.52-9.52s-9.52,4.26-9.52,9.52c0,4.23,2.76,7.81,6.57,9.05&#xA;&#x9;&#x9;c-0.07,0.74-0.69,6.5-3.5,7.44H58.9c-2.81-0.94-3.43-6.69-3.5-7.44c3.81-1.24,6.57-4.82,6.57-9.05c0-5.26-4.26-9.52-9.52-9.52&#xA;&#x9;&#x9;s-9.52,4.26-9.52,9.52c0,4.23,2.76,7.81,6.57,9.05c-0.07,0.74-0.69,6.5-3.5,7.44H24.7v24.8h-6.51v8.97h15.53v-24.5h5.26l8.89,25.43&#xA;&#x9;&#x9;L29.46,92.98v25.68h-7.02v8.89h16.29v-30.5l13.91-13.91l13.53,13.53v21.99h-6.89v8.89l23.18,0v-8.89h-6.89V96.68l13.53-13.53&#xA;&#x9;&#x9;L103,97.06v30.5h16.29v-8.89h-7.02V92.98L93.85,74.57l8.89-25.43H117.03z M70.87,88.35L57.02,74.57l8.89-25.43h9.9l8.89,25.43&#xA;&#x9;&#x9;L70.87,88.35z"/>
  </g>
</svg>