<?xml version="1.0" encoding="UTF-8"?>
<svg xmlns="http://www.w3.org/2000/svg" baseProfile="tiny-ps" version="1.2" viewBox="0 0 400 400">
<title>Valimail</title>
  <g>
      <rect x="-2" y="-2" width="404" height="404" fill="#1c0642"/>
      <g>
        <path d="M317.8,143.2h8.3v-16.2h-8.3c-8.1,0-39.5.4-63.5,25-15.7,15.3-26.3,27.9-34,37.2-11.3,13.4-16,18.9-22.1,18.9s-10.8-5.5-22.1-18.9c-7.7-9.3-18.3-22-34-37.2-23.8-23.2-52-25-60.1-25h-8.2v146h16.6v-129.2c9.3,1.3,25.7,5.6,40.1,19.7,15.1,14.7,25,26.5,32.9,36,13,15.5,20.8,24.9,34.9,24.9s21.9-9.4,34.9-24.9c7.9-9.5,17.8-21.3,32.9-36,19.6-20.3,45.3-20.3,51.7-20.3Z" fill="#fff"/>
        <polygon points="309.6 258.5 269.1 258.5 269.1 270.9 269.2 273 326.1 273 326.1 217.5 309.6 217.5 309.6 258.5" fill="#fff"/>
      </g>
  </g>
</svg>