<?xml version="1.0" encoding="utf-8"?>
<!-- Generator: Adobe Illustrator 26.2.1, SVG Export Plug-In . SVG Version: 6.00 Build 0)  -->
<svg version="1.2" baseProfile="tiny-ps" id="Layer_1" xmlns="http://www.w3.org/2000/svg" xmlns:xlink="http://www.w3.org/1999/xlink" viewBox="0 0 360 360" xml:space="preserve">
<title>Modern Woodmen of America</title>
	<path fill="#FFFFFF" d="M176.81,7.72c-95.05,0-156.89,25.2-156.89,25.2S44.35,229.31,179.33,351.7h0.04
		C313.74,230.67,338.46,38.15,339.02,33.04C281.71,14.49,227.17,8.72,176.81,7.72z"/>
	<linearGradient id="SVGID_1_" gradientUnits="userSpaceOnUse" x1="79.2397" y1="222.709" x2="299.5923" y2="222.709">
		<stop  offset="0" stop-color="#4F5C19"/>
		<stop  offset="2.603382e-03" stop-color="#505D1A"/>
		<stop  offset="0.062" stop-color="#5E6F28"/>
		<stop  offset="0.124" stop-color="#697E33"/>
		<stop  offset="0.1882" stop-color="#70893B"/>
		<stop  offset="0.2552" stop-color="#749041"/>
		<stop  offset="0.3261" stop-color="#769545"/>
		<stop  offset="0.4036" stop-color="#769748"/>
		<stop  offset="0.5" stop-color="#769849"/>
		<stop  offset="0.5936" stop-color="#769748"/>
		<stop  offset="0.6687" stop-color="#759545"/>
		<stop  offset="0.7375" stop-color="#739041"/>
		<stop  offset="0.8025" stop-color="#6F883B"/>
		<stop  offset="0.8648" stop-color="#677D33"/>
		<stop  offset="0.9251" stop-color="#5C6E28"/>
		<stop  offset="0.9828" stop-color="#4D5A1A"/>
		<stop  offset="1" stop-color="#475314"/>
	</linearGradient>
	<path fill="url(#SVGID_1_)" d="M100.01,217.65c50.64-41.73,117.12-69.8,195.48-79.72c-2.59,6.94-5.22,13.74-7.98,20.44
		c-58.1,16.89-111.8,43.29-164.95,94.99C114.62,241.94,107.06,230.06,100.01,217.65z M135.38,270.81
		c13.63,17.62,28.29,33.85,43.95,48.54l0,0c43.36-40.81,79.27-92.96,105.56-154.69C226.39,189.94,179.92,218.52,135.38,270.81z
		 M79.24,177.02c4.1,9.11,8.51,18,13.11,26.67c70.22-47.63,136.35-64.73,204.57-69.83c0.91-2.58,1.81-5.1,2.67-7.69
		C226.24,124.5,136.74,143.81,79.24,177.02z"/>
	
		<linearGradient id="SVGID_00000027601583226784065570000009190319954336826778_" gradientUnits="userSpaceOnUse" x1="37.4271" y1="75.701" x2="321.1751" y2="75.701">
		<stop  offset="0" stop-color="#104167"/>
		<stop  offset="1.650661e-03" stop-color="#114168"/>
		<stop  offset="0.0716" stop-color="#225884"/>
		<stop  offset="0.1442" stop-color="#2E6D9E"/>
		<stop  offset="0.2206" stop-color="#377FB4"/>
		<stop  offset="0.3015" stop-color="#3E8CC5"/>
		<stop  offset="0.3899" stop-color="#4295D1"/>
		<stop  offset="0.5" stop-color="#4499D6"/>
		<stop  offset="0.5978" stop-color="#3C88C0"/>
		<stop  offset="0.795" stop-color="#296593"/>
		<stop  offset="1" stop-color="#104167"/>
	</linearGradient>
	<path fill="url(#SVGID_00000027601583226784065570000009190319954336826778_)" d="M321.18,44.36
		c-44.57-9.98-92.34-15.41-142.07-15.41c-49.59,0-97.24,5.39-141.67,15.3l0,0c1.17,6.01,2.44,11.94,3.76,17.82
		c33.86,8.34,99.84-21.2,99.32,17.75c101.47-10.36,114.42,4.81,117.18,17.92c27.73-3.38,43.32,4.76,42.5,24.63
		c0.26,0.02,0.62,0.07,0.62,0.07C309.05,97.69,315.91,71.65,321.18,44.36z"/>
	<path fill="#FFFFFF" d="M289.49,304.26c13.55,0,24.42,10.54,24.65,23.92c0.23,13.7-10.26,24.24-23.96,24.24
		s-24.72-10.54-24.95-24.24c-0.23-13.38,10.41-23.92,24.11-23.92H289.49z M289.26,308.47c-10.83,0-18.96,8.88-18.77,19.71
		c0.2,11.14,8.62,19.88,19.75,19.88c10.83,0.15,18.66-8.73,18.47-19.73c-0.19-10.97-8.32-19.86-19.31-19.86H289.26z M285.62,341.43
		h-4.67l-0.44-25.14c2.55-0.45,5.25-0.75,8.72-0.75c4.22,0,6.34,0.75,8.02,1.96c1.51,1.05,2.6,3.01,2.65,5.26
		c0.06,3.15-2.17,5.11-4.86,6.01l0.01,0.32c2.27,0.9,3.5,2.86,4.31,6.01c0.82,3.92,1.31,5.43,1.92,6.33h-4.81
		c-0.77-0.9-1.42-3.15-2.08-6.62c-0.64-2.71-2.32-3.9-5.93-3.9h-3.01L285.62,341.43z M285.38,327.28h3.15
		c3.47,0,6.46-1.06,6.41-4.07c-0.05-2.41-1.59-4.07-6.09-4.07c-1.81,0-2.86,0.17-3.61,0.32L285.38,327.28z"/>
	<path fill="#769849" d="M288.65,304.4c13.55,0,24.42,10.52,24.65,23.92c0.23,13.7-10.26,24.22-23.96,24.22
		c-13.7,0-24.72-10.52-24.95-24.22c-0.23-13.4,10.41-23.92,24.11-23.92H288.65z M288.42,308.6c-10.83,0-18.96,8.87-18.77,19.72
		c0.2,11.14,8.62,19.86,19.75,19.86c10.83,0.16,18.66-8.72,18.47-19.71c-0.19-10.99-8.32-19.87-19.31-19.87H288.42z M284.78,341.55
		h-4.67l-0.44-25.12c2.55-0.45,5.25-0.76,8.72-0.76c4.22,0,6.34,0.76,8.02,1.97c1.51,1.05,2.6,3.01,2.65,5.26
		c0.06,3.16-2.17,5.12-4.86,6.02l0.01,0.31c2.27,0.9,3.5,2.86,4.31,6.02c0.82,3.9,1.31,5.42,1.92,6.31h-4.81
		c-0.77-0.89-1.42-3.15-2.08-6.61c-0.64-2.7-2.32-3.91-5.93-3.91h-3L284.78,341.55z M284.54,327.42h3.15c3.47,0,6.46-1.06,6.41-4.07
		c-0.05-2.41-1.59-4.07-6.09-4.07c-1.81,0-2.86,0.15-3.61,0.31L284.54,327.42z"/>
</svg>
