<?xml version="1.0" encoding="UTF-8"?>
<svg id="Layer_1" xmlns="http://www.w3.org/2000/svg" width="1175" height="1175" baseProfile="tiny-ps" version="1.2" viewBox="0 0 1175 1175">
  <title>BimiSunlight</title>
  <path d="M1092.6,498.7H82.9c9.7-55.8,28.5-108.4,54.7-156.5h900.3c26.2,48.1,45,100.8,54.7,156.5Z" fill="#d35027" fill-rule="evenodd" stroke-width="0"/>
  <path d="M586.9,75h1.9c124.9.2,239.4,45.2,328.2,119.5H258.7c88.8-74.3,203.3-119.3,328.2-119.5Z" fill="#fdb813" fill-rule="evenodd" stroke-width="0"/>
  <path d="M1087.8,474.2L558.1,75.9c9.9-.5,19.8-.9,29.7-.9,244.1,0,448.4,170.6,500,399.2h0Z" fill="#fdb813" fill-rule="evenodd" stroke-width="0"/>
  <path d="M133.4,825c-25.4-48.5-43.3-101.5-51.9-157.4h1006.4v32.1c-9.9,44.1-25.4,86.2-45.9,125.3H133.4Z" fill="#e78f24" fill-rule="evenodd" stroke-width="0"/>
  <path d="M367.1,124.9l726.4,546.4c-9,54.7-26.6,106.5-51.4,153.9L233.7,217.1c39.1-37.5,84.1-68.8,133.4-92.2h0Z" fill="#d35027" fill-rule="evenodd" stroke-width="0"/>
  <path d="M87.8,700.8l529.5,398.4c-9.7.5-19.6.9-29.5.9-244.1,0-448.4-170.8-500-399.2h0Z" fill="#fdb813" fill-rule="evenodd" stroke-width="0"/>
  <path d="M927.1,971.6c-90.3,79.9-209.2,128.4-339.3,128.4s-249-48.5-339.3-128.4h678.6Z" fill="#fdb813" fill-rule="evenodd" stroke-width="0"/>
  <path d="M133.3,350.2l808.2,608c-39.1,37.4-84.1,68.6-133.4,92.1L82,504.1c8.9-54.7,26.6-106.5,51.3-153.9Z" fill="#e78f24" fill-rule="evenodd" stroke-width="0"/>
  <path d="M1040.2,985.7c9,0,17.6,2.3,25.8,6.8s14.7,10.9,19.4,19.3c4.7,8.4,7.1,17.2,7.1,26.3s-2.3,17.8-7,26.1c-4.6,8.2-11.1,14.7-19.3,19.3s-16.9,6.9-26,6.9-17.8-2.3-26.1-6.9c-8.2-4.7-14.7-11.1-19.3-19.3-4.6-8.3-6.9-17-6.9-26.1s2.3-17.9,7-26.3c4.7-8.4,11.2-14.8,19.5-19.3,8.2-4.5,16.9-6.8,25.8-6.8ZM1040.3,996c-7.2,0-14.1,1.8-20.7,5.4-6.6,3.6-11.8,8.8-15.7,15.5-3.8,6.7-5.7,13.8-5.7,21.2s1.8,14.3,5.5,21,8.9,11.8,15.6,15.6c6.7,3.7,13.6,5.6,20.9,5.6s14.3-1.9,20.9-5.6c6.7-3.7,11.8-8.9,15.6-15.6s5.6-13.6,5.6-21-1.9-14.4-5.7-21.2c-3.8-6.7-9-11.9-15.7-15.5-6.6-3.6-13.5-5.4-20.7-5.4h.1ZM1016.6,1066.1v-55.6h11.3c10.6,0,16.5,0,17.8,0,3.7.3,6.6,1.1,8.7,2.3,2.1,1.1,3.8,2.9,5.2,5.3,1.4,2.4,2.1,5,2.1,7.9s-1.3,7.5-4,10.3c-2.6,2.8-6.3,4.6-11,5.3,1.7.6,3,1.3,3.9,2.1.9.7,2.2,2.1,3.8,4.2.4.5,1.8,2.8,4.1,6.8l6.6,11.2h-13.9l-4.6-9c-3.1-6.1-5.7-9.9-7.8-11.4-2-1.6-4.6-2.4-7.8-2.4h-2.9v22.8h-11.5ZM1027.9,1034.5h4.6c6.5,0,10.5-.3,12.1-.8s2.8-1.4,3.8-2.6c.9-1.3,1.4-2.7,1.4-4.3s-.5-2.9-1.4-4.1c-.9-1.2-2.1-2.1-3.8-2.6-1.6-.5-5.7-.8-12.1-.8h-4.6v15.2h0Z" fill="#e78e24" stroke-width="0"/>
  <path d="M1066.8,1084.4h0c-8.4,4.7-17.2,7-26.5,7s-18.2-2.4-26.6-7h0c-8.4-4.7-15-11.3-19.7-19.7h0c-4.7-8.4-7-17.3-7-26.6s2.4-18.3,7.2-26.8h0c4.8-8.5,11.5-15.1,19.9-19.7,8.4-4.6,17.2-6.9,26.3-6.9s17.9,2.3,26.3,6.9c8.4,4.6,15,11.1,19.8,19.7,4.8,8.5,7.2,17.5,7.2,26.8s-2.4,18.2-7.1,26.6c-4.7,8.4-11.3,15-19.7,19.7h-.1ZM1085.6,1064.2c4.6-8.3,7-17,7-26.1s-2.4-17.9-7.1-26.3c-4.7-8.4-11.2-14.8-19.4-19.3s-16.9-6.8-25.8-6.8-17.6,2.3-25.8,6.8-14.7,10.9-19.5,19.3c-4.7,8.4-7,17.2-7,26.3s2.3,17.8,6.9,26.1c4.6,8.2,11.1,14.7,19.3,19.3,8.3,4.6,17,6.9,26.1,6.9s17.8-2.3,26-6.9c8.3-4.7,14.7-11.1,19.3-19.3ZM1060.7,1073.8h0c6.5-3.6,11.6-8.7,15.2-15.2,3.7-6.5,5.5-13.3,5.5-20.5s-1.9-14.1-5.6-20.7h0c-3.7-6.6-8.8-11.6-15.3-15.1h0c-6.5-3.5-13.2-5.3-20.2-5.3s-13.8,1.8-20.2,5.3-11.5,8.5-15.3,15.1c-3.7,6.6-5.5,13.5-5.5,20.7s1.8,14,5.4,20.5c3.6,6.5,8.7,11.6,15.2,15.2,6.5,3.7,13.3,5.5,20.4,5.5s14-1.8,20.4-5.5h0ZM1003.8,1059.1c-3.7-6.7-5.5-13.6-5.5-21s1.9-14.4,5.7-21.2c3.8-6.7,9-11.9,15.7-15.5,6.6-3.6,13.5-5.4,20.7-5.4s14.1,1.8,20.7,5.4c6.7,3.6,11.9,8.8,15.7,15.5s5.7,13.8,5.7,21.2-1.9,14.3-5.6,21-8.9,11.8-15.6,15.6c-6.6,3.7-13.6,5.6-20.9,5.6s-14.3-1.9-20.9-5.6c-6.7-3.7-11.8-8.9-15.6-15.6h-.1ZM1015.6,1067.1v-57.6h12.3c10.5,0,16.5,0,17.8,0h0c3.8.3,6.9,1.1,9.1,2.4,2.3,1.2,4.1,3.2,5.6,5.7s2.3,5.3,2.3,8.4-1.4,7.9-4.2,11c-2.2,2.4-5.1,4-8.6,5,.5.3,1,.6,1.4,1,1,.8,2.3,2.3,3.9,4.4h0c.5.6,1.9,2.9,4.2,6.9l7.4,12.7h-16.3l-4.9-9.6c-1.6-3-3-5.4-4.2-7.3-1.3-1.9-2.4-3.1-3.3-3.8h0c-1.8-1.4-4.2-2.2-7.2-2.2h-1.9v22.8h-13.4ZM1027.9,1043.3h2.9c3.1,0,5.7.8,7.8,2.4,2.1,1.5,4.6,5.4,7.8,11.4l4.6,9h13.9l-6.6-11.2c-2.3-4-3.7-6.2-4.1-6.8-1.6-2.1-2.8-3.5-3.8-4.2-.6-.5-1.3-1-2.2-1.4-.5-.2-1.1-.5-1.7-.7.6,0,1.2-.2,1.8-.3,3.9-.8,6.9-2.5,9.2-4.9,2.6-2.9,4-6.3,4-10.3s-.7-5.6-2.1-7.9c-1.4-2.4-3.1-4.2-5.2-5.3-2.1-1.2-4.9-1.9-8.7-2.3-1.3,0-7.2,0-17.8,0h-11.3v55.6h11.3v-22.8l.2-.2ZM1044.2,1032.8h0c1.4-.4,2.5-1.2,3.3-2.2.8-1.1,1.2-2.3,1.2-3.7s-.4-2.5-1.2-3.5h0c-.7-1-1.8-1.8-3.2-2.2h0c-.7-.2-2-.4-4-.6-2,0-4.6-.2-7.8-.2h-3.6v13.2h3.6c3.2,0,5.9,0,7.9-.2,2,0,3.3-.3,3.9-.5h-.1ZM1027.9,1034.5v-15.2h4.6c6.4,0,10.5.3,12.1.8s2.9,1.4,3.8,2.6c.9,1.2,1.4,2.6,1.4,4.1s-.5,3-1.4,4.3c-.9,1.2-2.2,2.1-3.8,2.6-1.5.5-5.6.8-12.1.8h-4.6Z" fill="#e78e24" fill-rule="evenodd" stroke-width="0"/>
</svg>