<?xml version="1.0" encoding="utf-8"?>
<!-- Generator: Adobe Illustrator 25.4.1, SVG Export Plug-In . SVG Version: 6.00 Build 0)  -->
<svg version="1.2" baseProfile="tiny-ps" id="Layer_1" xmlns="http://www.w3.org/2000/svg" xmlns:xlink="http://www.w3.org/1999/xlink"
	 viewBox="0 0 1500 1500" xml:space="preserve">
<title>
Quizlet
</title>
<path fill="#4255FF" d="M778.5,308.2c-61.3-4-122.8,4.8-180.5,26c-57.7,21.1-110.3,54-154.5,96.7c-44.1,42.6-78.9,93.9-101.9,150.7
	c-23.1,56.8-33.9,117.8-31.9,179c7.4,230.2,195.9,417.4,427,424.1c75.7,2.4,150.7-14.7,217.7-49.8c1.9-1.1,4.1-1.5,6.4-1.4
	s4.4,0.9,6.2,2.1c12.8,8.5,26.2,16.1,39.9,22.8c47.8,23,100.4,34.7,153.6,34.2c1.6,0,3.3-0.3,4.8-0.9c1.5-0.6,2.9-1.5,4.1-2.6
	s2-2.5,2.7-4c0.6-1.5,1-3.1,1-4.7v-149c0-2.9-1-5.6-2.8-7.8c-1.9-2.2-4.5-3.7-7.3-4.1c-14.2-2.2-28-6.2-41.2-11.8
	c-1.7-0.7-3.1-1.8-4.2-3.1c-1.1-1.3-2-2.9-2.6-4.6c-0.5-1.7-0.6-3.5-0.4-5.3c0.3-1.8,0.9-3.4,1.9-4.9c53-78.9,78.9-172.8,73.6-267.5
	C1177.9,501.6,1000,322.2,778.5,308.2z M483.1,746.2c0-52.6,15.7-104,44.9-147.7c29.3-43.7,70.9-77.8,119.7-97.9
	c48.7-20.1,102.4-25.4,154.1-15.2c51.7,10.2,99.3,35.6,136.6,72.8c37.3,37.2,62.7,84.5,73,136c10.3,51.5,5,105-15.2,153.6
	s-54.4,90-98.2,119.3c-43.9,29.2-95.4,44.8-148.2,44.8c-70.7,0-138.6-28-188.6-77.9C511.2,884.3,483.1,816.7,483.1,746.2
	L483.1,746.2z"/>
</svg>