<?xml version="1.0" encoding="UTF-8" standalone="yes"?>
<svg version="1.2" baseProfile="tiny-ps" viewBox="0 0 80 80" xml:space="preserve" xmlns="http://www.w3.org/2000/svg">
  <title>Navan</title>
  <rect fill="#7300CD" width="80" height="80"/>
  <circle fill="#7300CD" cx="40.1" cy="40" r="40"/>
  <path fill="#FFFFFF" d="M57.7,35.6h2.5v5c0,0,0,0,0.1,0c0-0.1,0.1-0.1,0.1-0.2c0.3-0.9,0.6-1.7,1-2.5c0.3-0.6,0.6-1.1,1-1.5&#xA;&#x9;c0.6-0.7,1.4-1,2.3-1c0.9,0.1,1.7,0.4,2.3,1.2c0.5,0.6,0.8,1.3,1,2.1c0.3,1,0.4,2,0.5,3c0.2,2,0.1,4,0.1,6c0,0.1,0,0.1,0,0.2h-2.5&#xA;&#x9;c0-0.1,0-0.2,0-0.3c0-1.1,0-2.1,0-3.2c0-1.2-0.1-2.5-0.2-3.7c-0.1-0.7-0.2-1.3-0.4-2c-0.1-0.2-0.2-0.4-0.3-0.6&#xA;&#x9;c-0.4-0.6-1-0.6-1.5-0.2c-0.2,0.2-0.4,0.5-0.6,0.7c-0.4,0.5-0.6,1.1-0.8,1.7c-0.6,1.5-1,3-1.4,4.5c-0.3,0.9-0.5,1.9-0.7,2.8&#xA;&#x9;c0,0.1,0,0.1-0.1,0.2h-2.3C57.7,47.8,57.7,36,57.7,35.6L57.7,35.6z"/>
  <path fill="#FFFFFF" d="M22.6,48h-2.5c0-0.1,0-0.2,0-0.3c0-1.4,0-2.7,0-4.1c0-1.3-0.1-2.6-0.4-3.9c-0.1-0.4-0.2-0.7-0.3-1.1&#xA;&#x9;c-0.1-0.2-0.2-0.4-0.4-0.6c-0.3-0.3-0.8-0.4-1.2-0.1c-0.3,0.2-0.4,0.4-0.6,0.6c-0.4,0.5-0.6,1.1-0.9,1.7c-0.6,1.4-1,2.9-1.4,4.4&#xA;&#x9;c-0.3,1.1-0.6,2.1-0.8,3.2c0,0.1-0.1,0.2-0.1,0.3h-2.3c0-4.1,0-8.2,0-12.4h2.6v5c0,0,0,0,0.1,0c0-0.1,0.1-0.1,0.1-0.2&#xA;&#x9;c0.3-0.8,0.6-1.6,0.9-2.4c0.3-0.6,0.6-1.1,1-1.5c0.4-0.5,0.9-0.9,1.5-1c1.2-0.3,2.3,0,3.1,1c0.5,0.6,0.8,1.3,1,2&#xA;&#x9;c0.3,0.9,0.4,1.9,0.5,2.8c0.2,2.2,0.2,4.3,0.2,6.5C22.6,47.9,22.6,47.9,22.6,48L22.6,48z"/>
  <path fill="#FFFFFF" d="M35.3,48c-0.1,0-0.2,0-0.3,0c-0.6,0-1.2,0-1.9,0c-0.2,0-0.3-0.1-0.4-0.2c-0.9-0.9-1.8-1.7-2.9-2.4&#xA;&#x9;c-0.5-0.3-1-0.7-1.5-0.9c-0.3-0.2-0.6-0.3-1-0.3c-0.5-0.1-1,0.1-1.2,0.7c-0.1,0.3-0.2,0.6-0.2,1c-0.1,0.7-0.2,1.4-0.4,2&#xA;&#x9;c0,0.1,0,0.1-0.1,0.2h-1.9c0-0.2,0.1-0.4,0.1-0.6c0.3-1.6,0.6-3.1,0.9-4.7c0.3-1.5,0.7-2.9,1.3-4.3c0.3-0.7,0.7-1.4,1.2-1.9&#xA;&#x9;c0.6-0.7,1.4-1.1,2.3-1c0.7,0,1.3,0.3,1.9,0.7c0.5,0.4,0.8,0.9,1.1,1.5c0.5,1,0.9,2,1.2,3.1c0.4,1.4,0.7,2.9,0.9,4.4&#xA;&#x9;c0.2,0.9,0.3,1.7,0.5,2.6C35.2,47.8,35.2,47.9,35.3,48L35.3,48z M32.1,44.7c0-0.1,0-0.2,0-0.2c-0.1-0.6-0.2-1.2-0.4-1.8&#xA;&#x9;c-0.3-1.1-0.5-2.2-0.9-3.2c-0.2-0.4-0.4-0.9-0.7-1.3c-0.6-0.7-1.2-0.7-1.8,0c-0.3,0.4-0.5,0.7-0.7,1.2c-0.4,0.9-0.6,1.8-0.8,2.7&#xA;&#x9;c0,0.1,0,0.1,0,0.1c0.3,0,0.7,0,1,0.1c0.7,0.1,1.3,0.4,1.8,0.7c0.8,0.4,1.5,1,2.2,1.5C31.9,44.6,32,44.6,32.1,44.7L32.1,44.7z"/>
  <path fill="#FFFFFF" d="M56.5,48c-0.1,0-0.2,0-0.3,0c-0.6,0-1.2,0-1.9,0c-0.2,0-0.3-0.1-0.4-0.2c-1-0.9-2-1.8-3.1-2.6&#xA;&#x9;c-0.3-0.2-0.8-0.5-1.3-0.8c-0.3-0.1-0.6-0.2-0.9-0.3c-0.5-0.1-1,0.1-1.1,0.6c-0.1,0.3-0.2,0.7-0.2,1c-0.1,0.7-0.2,1.4-0.4,2&#xA;&#x9;c0,0.1,0,0.1-0.1,0.2h-1.9v-0.1c0.3-1.7,0.7-3.5,1-5.2c0.3-1.4,0.7-2.8,1.2-4.1c0.3-0.7,0.7-1.4,1.2-2c0.6-0.7,1.4-1.1,2.3-1.1&#xA;&#x9;c0.7,0,1.4,0.3,1.9,0.8c0.5,0.4,0.8,0.9,1.1,1.5c0.5,1,0.9,2,1.2,3.1c0.4,1.4,0.7,2.9,0.9,4.4c0.2,0.9,0.3,1.7,0.5,2.6&#xA;&#x9;C56.5,47.8,56.5,47.9,56.5,48L56.5,48z M48,42.3c0.1,0,0.2,0,0.3,0c0.2,0,0.5,0,0.7,0c0.7,0.1,1.3,0.4,1.9,0.7&#xA;&#x9;c0.8,0.4,1.5,1,2.2,1.5c0.1,0.1,0.2,0.1,0.3,0.2c0-0.1,0-0.1,0-0.2c-0.1-0.6-0.2-1.2-0.4-1.8c-0.2-1-0.5-2.1-0.9-3.1&#xA;&#x9;c-0.2-0.5-0.4-1-0.8-1.4c-0.6-0.7-1.3-0.7-1.8,0c-0.3,0.3-0.5,0.7-0.6,1.1c-0.4,0.9-0.6,1.8-0.8,2.7C48,42.2,48,42.2,48,42.3&#xA;&#x9;L48,42.3z"/>
  <path fill="#FFFFFF" d="M34.5,35.6h2.6c0.1,0.4,0.1,0.8,0.2,1.2c0.3,2,0.7,4,1.2,6c0.2,0.7,0.4,1.3,0.7,1.9c0.1,0.2,0.3,0.5,0.4,0.7&#xA;&#x9;c0.1,0.1,0.3,0.3,0.4,0.4c0.3,0.2,0.7,0.2,1,0c0.3-0.2,0.4-0.4,0.6-0.7c0.4-0.6,0.6-1.2,0.8-1.9c0.4-1.2,0.6-2.5,0.9-3.8&#xA;&#x9;c0.2-1.2,0.4-2.4,0.6-3.6c0-0.1,0-0.1,0.1-0.2h1.9c0,0.2-0.1,0.4-0.1,0.6c-0.3,1.6-0.6,3.1-0.9,4.7c-0.3,1.4-0.6,2.7-1.2,4.1&#xA;&#x9;c-0.3,0.7-0.6,1.3-1,1.9c-0.4,0.6-1,1-1.7,1.2c-1,0.3-2,0-2.8-0.7c-0.5-0.4-0.8-1-1.1-1.5c-0.5-0.9-0.8-2-1.1-3&#xA;&#x9;c-0.4-1.5-0.7-2.9-0.9-4.4c-0.2-0.9-0.3-1.7-0.5-2.6C34.5,35.9,34.5,35.8,34.5,35.6L34.5,35.6z"/>
</svg>