<?xml version="1.0" encoding="utf-8"?>
<!-- Generator: Adobe Illustrator 26.4.0, SVG Export Plug-In . SVG Version: 6.00 Build 0)  -->
<svg version="1.2" baseProfile="tiny-ps" id="Layer_1" xmlns="http://www.w3.org/2000/svg" xmlns:xlink="http://www.w3.org/1999/xlink"
	 viewBox="0 0 640 640" xml:space="preserve">
	 <title>StarTech.com</title>
<rect fill="#FFFFFF" width="638" height="639"/>
<g id="StarTech.com-logo-print_00000127019909952807088330000010240466365450388654_">
	<g>
		<path fill="none" d="M283.5,303.6c0-6.4-6.6-9.6-12.9-9.6c-6.4,0-12.8,3.2-12.7,9.8v7.6h25.6V303.6z"/>
		<path fill="none" d="M487.4,324.2v-20.6c0-6.9-6.6-9.8-12.6-9.8c-6.1,0-12.8,3-12.8,9.8v20.6c0,6.9,6.6,9.9,12.8,9.9
			C480.7,334.2,487.4,331.1,487.4,324.2z"/>
		<path fill="none" d="M146.3,323.8c0,7,5,11.3,11.4,11.4c4.6,0.1,9.4-0.1,13.9-1.1v-17.6c-3.4-1.2-7.8-2.2-12.2-2.2
			C152.6,314.3,146.4,316,146.3,323.8z"/>
		<path fill="none" d="M587,280.4c0-1-0.8-1.3-1.6-1.3h-1.6v2.7h1.2C585.9,281.8,587,281.6,587,280.4z"/>
		<path fill="none" d="M585.1,276.8c-2.8,0-5,2.2-5,5s2.2,5,5,5s5-2.2,5-5C590.2,279,587.9,276.8,585.1,276.8z M587,284.9l-1.9-2.6
			h-1.4v2.6h-0.5v-6.3h2.2c1.4,0,2.1,0.8,2.1,1.8c0,1.1-0.8,1.7-1.7,1.9c0.6,0.8,1.3,1.8,1.9,2.6H587z"/>
		<path fill="#939598" d="M587.5,280.4c0-1-0.7-1.8-2.1-1.8h-2.2v6.3h0.5v-2.6h1.4l1.9,2.6h0.6c-0.6-0.8-1.3-1.8-1.9-2.6
			C586.7,282.1,587.5,281.5,587.5,280.4z M584.9,281.8h-1.2v-2.7h1.6c0.8,0,1.6,0.4,1.6,1.3C587,281.6,585.9,281.8,584.9,281.8z"/>
		<path fill="#939598" d="M585.1,276.2c-3,0-5.5,2.5-5.5,5.5c0,3,2.5,5.5,5.5,5.5c3,0,5.5-2.5,5.5-5.5S588.2,276.2,585.1,276.2z
			 M585.1,286.8c-2.8,0-5-2.2-5-5s2.2-5,5-5s5,2.2,5,5C590.2,284.5,587.9,286.8,585.1,286.8z"/>
		<path fill="#231F20" d="M189.7,304.5v37h8.4v-37c0-5.1,4.1-8.2,8.4-9.4c3.5-0.9,4.4-0.4,8.3,0.2v-8.7c-3.2-0.6-6.7-0.6-9.6,0.1
			C196.7,288.4,189.7,294.7,189.7,304.5z"/>
		<path fill="#231F20" d="M348,267.7v73.7h8.5v-43.9c4.2-1.7,8.4-2.3,12.7-2.3c6.2,0.1,12.6,3.2,12.6,9.6v11.6
			c2.5-1.7,5.3-3.1,8.3-4v-7.5c0-11.8-10.5-18.4-21-18.2c-4.2,0-9.1,1.2-12.6,3.2v-22.2H348z"/>
		<path fill="#231F20" d="M320.9,294.2c4.9,0,10,1.7,12,5.5l0.7,1.1l6.9-4.1c-4.1-7.3-11.9-10.9-19.6-10.9c-10.5,0-21.1,6-21.1,18.3
			v20c0,12.2,10.7,18.3,21.1,18.3c8.5,0,17.3-4.3,20.5-13.4l-7.7-3.7c-1.7,5.9-7.3,8.7-12.8,8.7c-6.3,0-12.7-3.2-12.7-9.6v-20.2
			C308.2,297.4,314.6,294.2,320.9,294.2z"/>
		<polygon fill="#231F20" points="204.1,275.4 228.1,275.4 228.1,341.5 236.9,341.5 236.9,275.4 260.9,275.4 260.9,266.6 
			204.1,266.6 		"/>
		<path fill="#231F20" d="M291.5,318.5v-14.7c0-12.2-10.6-18.2-20.9-18.2c-10.6,0-21.2,5.9-21.2,18.2v20.7
			c0,12.1,10.7,18.2,21.2,18.2c7.9,0,16.3-4,20.1-12l-7.6-3.8c-2.2,5.1-7.5,7.5-12.5,7.5c-6.4,0-12.8-3.2-12.7-9.8v-6L291.5,318.5
			L291.5,318.5z M258,303.9c-0.1-6.6,6.2-9.8,12.7-9.8c6.2,0,12.9,3.2,12.9,9.6v7.8H258V303.9z"/>
		<path fill="#231F20" d="M76.1,334c-8.1,0-16.7-3.8-19.9-11l-8.1,3.7c4.7,10.7,16.5,16,27.8,16c13.3,0,26.4-6.8,27.1-20.5
			c0.9-18.4-13.3-21.3-26.3-23.9c-9.8-1.9-18.9-3.7-18.3-12.7c0.5-7.9,8.9-11.8,17.5-11.8c7.9,0,16.3,3.7,19.3,10.7l8-3.6
			c-4.5-10.5-16.3-15.6-27.3-15.6c-12.9,0-25.6,7-26.3,20.1c0.1,15,12.8,18.8,24.9,21.3c10.6,2.2,20.5,4.3,19.5,15.1
			C93.6,329.9,85,334,76.1,334z"/>
		<path fill="#231F20" d="M111.7,266.6v57.1c0,12.2,9.6,19.4,22.4,17.7v-7.3c-8.8,1.7-14.1-4.2-14.1-10.5v-28.5h11.2v-8.5H120v-20.2
			L111.7,266.6L111.7,266.6z"/>
		<path fill="#231F20" d="M159.7,306.2c-11.1,0-21.6,4.5-21.8,17.6c0,11.7,8.6,18.8,19.5,18.9c7.3,0.1,15-1.1,22.6-3.7v-35.4
			c0-11.8-10.2-17.6-20.7-17.6c-6.9,0-14.4,3-19.4,8.5l5.8,5.6c3.1-3.9,8.1-5.9,13-5.9c6.6,0,12.9,3.1,12.9,9.4v5.7
			C168.2,307.3,164,306.2,159.7,306.2z M171.7,334.2c-4.5,1-9.3,1.2-13.9,1.1c-6.4-0.1-11.4-4.4-11.4-11.4c0.1-7.8,6.2-9.5,13.1-9.5
			c4.4,0,8.9,1.1,12.2,2.2V334.2z"/>
		<path fill="#939598" d="M448.1,328.9l-7.7-3.7c-1.7,5.9-7.3,8.7-12.8,8.7c-0.2,0-0.5,0-0.7,0c0.5,2.2,0.8,4.5,0.8,6.8
			c0,0.6,0,1.1,0,1.7C436.1,342.3,444.9,338,448.1,328.9z"/>
		<path fill="#939598" d="M427.6,285.8c-10.5,0-21.1,6-21.1,18.3v8.3c3,0.9,5.9,2.2,8.5,4v-12.4c0-6.6,6.3-9.8,12.7-9.8
			c4.9,0,10,1.7,12,5.5l0.7,1.1l6.9-4.1C443.1,289.4,435.3,285.8,427.6,285.8z"/>
		<path fill="#939598" d="M575,341.5V305c0-12.6-9.7-18.5-20.9-18.1c-5.1,0.2-10.9,1.8-15,6c-4.2-4.3-10.5-6.2-16.5-6.2
			c-6.5,0-13.5,2.2-18.6,5v49.7h8.4v-44.2c5.8-4.1,22.6-3.6,22.6,6v38.2h8.2v-38.2c0-5.2,6.1-7.8,11.1-7.9
			c6.2-0.1,12.2,2.2,12.1,9.9v36.2L575,341.5L575,341.5z"/>
		<path fill="#939598" d="M495.8,324.2v-20.6c0-12.1-10.6-18.2-21-18.3c-10.6,0.1-21.2,6.1-21.2,18.3v20.6
			c0,12.2,10.7,18.2,21.2,18.3C485.3,342.4,495.8,336.5,495.8,324.2z M462,324.2v-20.6c0-6.9,6.6-9.8,12.8-9.8
			c5.9,0,12.6,3,12.6,9.8v20.6c0,6.9-6.6,9.9-12.6,9.9C468.7,334.2,462,331.1,462,324.2z"/>
		<path fill="#FFC629" d="M376.2,340.6c0,12.2,9.9,22.1,22.1,22.1c12.2,0,22.1-9.9,22.1-22.1c0-12.2-9.9-22.1-22.1-22.1
			S376.2,328.4,376.2,340.6z"/>
	</g>
</g>
</svg>
