<?xml version="1.0" encoding="utf-8"?>
<svg baseProfile="tiny-ps" version="1.2" id="Layer_1" viewBox="0 0 96 96" xmlns:xlink="http://www.w3.org/1999/xlink" xmlns="http://www.w3.org/2000/svg">
  <title>Qare</title>
  <desc>Logo de Qare</desc>
  <rect width="96" height="96" fill="#fff" stroke="#fff" stroke-miterlimit="10"/>
  <path d="M25.7896734,59.1699553c-.0639-.0634003-.1263008-.1298027-.1888008-.1975021,5.4076004-2.7616997,8.5711994-7.5178986,8.5711994-13.338398,0-8.0197029-6.2817993-14.5093021-14.0297985-14.5093021-5.4941006,0-10.2516003,3.2664013-12.5537004,8.0240002l4.7602997,2.7747002c1.1992998-3.2245979,3.9485006-5.4627991,7.8685999-5.4627991,5.2854996,0,8.5428009,4.199501,8.5414009,9.3739014,0,4.0379982-2.3149014,7.2553978-5.5664997,8.4883995,0,0,.4384995,3.6716995,2.4127998,4.6436996" fill="#26a4a6" fill-rule="evenodd"/>
  <path d="M54.6013742,58.8296537h-4.8738022c-.6093979-.7748985-.9141006-1.7939987-.9141006-3.0573006-1.3198967,2.3987007-3.4270973,3.600502-6.3214989,3.6053009-1.8782005,0-3.4077988-.5480003-4.5886002-1.644001-1.1809006-1.0960999-1.7707977-2.5468979-1.7699013-4.3523979,0-1.8267021.6283035-3.2650032,1.8848038-4.3149033,1.2565994-1.0498962,2.8750992-1.7271996,4.8554993-2.0319977l5.6772003-.889801v-.7426987c0-1.9352989-1.1548996-2.9029999-3.4645004-2.9029999-1.0655022,0-1.8972015.2066994-2.4952011.6200981-.5979996.4134026-.8959999.9291992-.8941002,1.5474014.0004997.1580009.0264015.3148994.0765991.4644012l-4.303299,1.4709969c-.2276001-.5100975-.344799-1.063797-.3434982-1.6238976,0-1.5737991.7238998-2.9477005,2.1715965-4.1216011,1.4476013-1.1739006,3.3769035-1.7607994,5.7879028-1.7607994,2.6890984,0,4.7389984.5806999,6.1497993,1.7420998s2.1152,2.9025002,2.1133003,5.2234001v8.0081978c-.0028,1.9353027.4145012,3.5222015,1.2518005,4.7605019ZM43.6337724,55.4247541c1.4477005,0,2.6281013-.4841003,3.5411987-1.4522018.913002-.9681969,1.3682022-2.3415985,1.365303-4.1201973v-.3476028l-4.5687027.7730026c-2.1080971.3614998-3.1616974,1.3031998-3.1607971,2.8250999,0,.7479973.2535973,1.3219986.7607994,1.7220001.5070992.3998985,1.1945.5998993,2.0621986.5998993Z" fill="#26a4a6" fill-rule="evenodd"/>
  <path d="M70.3534761,39.3932524l-2.235405,4.3812027c-.3394012-.0752029-.6857986-.1133995-1.0331955-.113903-1.3966064,0-2.5074005.5355034-3.3325043,1.6066017-.8250999,1.0709991-1.2376976,2.4314003-1.2376976,4.0811996v9.4806023h-4.7971992v-19.1963005h4.7971992v3.0573997c1.1675987-2.4036026,2.9181023-3.6054001,5.2514-3.6054001.5876007.0100975,2.0792999.1529007,2.5874023.3085976Z" fill="#26a4a6" fill-rule="evenodd"/>
  <path d="M88.5941758,50.3921537h-14.546402c.1513977,1.469101.6973953,2.6362,1.6379013,3.5014992.9404984.8652992,2.1232986,1.2979012,3.5482941,1.2979012,2.3342056,0,4.0729065-1.1739006,5.2159042-3.5217018l3.5809021,2.0897026c-1.7789001,3.7408981-4.736702,5.6108971-8.8735046,5.6098976-2.6909943,0-4.9822006-.947998-6.8736954-2.8438988-1.8914032-1.8959007-2.8376007-4.3269005-2.8386002-7.2929001,0-2.9919014.9580994-5.4295998,2.8740997-7.3130989,1.9160995-1.8834,4.2706985-2.8250999,7.0638962-2.8250999,2.6910019,0,4.8993988.8964996,6.6253052,2.6895981,1.7257996,1.7929993,2.5891953,4.0951996,2.5901947,6.9064026l-.0042953,1.7016983ZM79.2265764,42.8072538c-1.1837997-.0211983-2.3370056.3833008-3.255806,1.1422005-.914299.7408981-1.5849991,1.7467995-1.9231949,2.8843002h10.1294937c-.2288971-1.263401-.7748947-2.2498016-1.6377945-2.959301-.862999-.7094994-1.9672012-1.0657997-3.3126984-1.0685997v.0014Z" fill="#26a4a6" fill-rule="evenodd"/>
  <path d="M12.5333734,41.4593534c.6122999-1.3777008.0225992-2.9996986-1.3242006-3.6422005-1.3466997-.6423988-2.95154-.0671997-3.6036196,1.2915001-.9764605,2.0328026-1.4874001,4.2638016-1.4945202,6.5256996,0,8.0153999,6.2818403,14.5123024,14.0312405,14.5123024h.1334c1.2304993,2.2078972,3.7539997,4.7503967,7.2383995,5.6329956l2.3787003-4.5686951c-6.0519009-1.051403-6.3215008-7.0377007-6.3215008-7.0377007-1.0618.4611969-2.2046986.6987-3.359499.697998-4.7192001,0-8.5428009-3.8504982-8.5428009-9.0291977-.0213995-1.5067024.2732-3.0007019.8644009-4.3827019h0Z" fill="#f75e68"/>
</svg>