<?xml version="1.0" encoding="UTF-8"?>
<!-- Generator: Adobe Illustrator 26.0.1, SVG Export Plug-In . SVG Version: 6.00 Build 0) -->
<svg version="1.2" baseProfile="tiny-ps" id="Layer_1" xmlns="http://www.w3.org/2000/svg" xmlns:xlink="http://www.w3.org/1999/xlink" viewBox="0 0 200 150" xml:space="preserve">
    <title>Lola and the boys</title>
    <g>
        <g>
            <path d="M44.3,111.6c-0.6,0.5-0.7,1.1-0.7,2.9c0,1.1,0.1,2,0.2,2.1c0.2,0.3-0.5,1.1-0.9,1c-0.5-0.2-1.6,0.6-1.9,1.4
		c-0.2,0.5-0.1,0.7,0.3,1.3c0.5,0.6,0.7,0.7,1.5,0.7c0.9,0,1,0,1,0.6c0,0.3,0.2,1.3,0.4,2.1c0.2,0.8,0.3,1.7,0.2,2
		c-0.1,0.4,0.1,0.7,0.5,1.1c0.5,0.6,0.7,0.6,1.2,0.4c0.4-0.2,0.6-0.3,0.5-0.6c-0.1-0.2,0-0.5,0.2-0.7c0.2-0.2,0.5-0.8,0.7-1.3
		c0.2-0.5,0.4-1,0.5-1.1c0.2-0.2,0.9-1.5,0.8-1.7c0-0.1,0.2-0.3,0.4-0.4c0.3-0.2,0.5-0.2,0.6,0c0.1,0.1,0.2,0.2,0.4,0.1
		c0.1-0.1,0.6,0.1,1,0.3c0.8,0.4,0.8,0.4,1.2,0c0.3-0.3,0.4-0.7,0.4-1.3c0-1.5,0-1.6-0.4-1.6c-0.6,0-1.7-1-1.7-1.5
		c0.1-0.7,0.4-1.2,0.8-1.6c0.3-0.3,0.3-0.5,0.2-1.1c-0.3-1.1-0.6-1.5-1.3-1.1c-0.3,0.1-0.6,0.3-0.6,0.4c0,0.1-0.1,0.2-0.2,0.2
		c-0.1,0-0.4,0.2-0.6,0.3c-0.4,0.4-1,0.2-1.1-0.4c-0.1-0.2-0.4-0.7-0.7-1c-0.6-0.6-1.1-1.4-1.1-1.7
		C46.2,111.2,44.7,111.3,44.3,111.6L44.3,111.6z" />
            <path d="M11.7,27.9c-0.2,0.1-0.3,0.1-0.3,0.2c0,0-0.1,0.1-0.1,0.1c-0.1,0-0.2,0.1-0.3,0.2c-0.2,0.2-0.1,0.5,0.2,0.9
		c0.1,0.1,0.3,0.3,0.3,0.4c0,0.1,0,0.1,0.1,0.1c0,0,0.1,0.1,0.1,0.2c0,0.1,0.1,0.2,0.2,0.3c0.1,0.1,0.1,0.1,0,0.1
		c-0.1,0-0.1,0.1,0.1,0.2c0.1,0.1,0.2,0.2,0.1,0.3c0,0,0,0.1,0,0.1c0.2,0,0.5,1.1,0.4,1.4c0,0.1,0,0.2,0.2,0.3
		c0.1,0.1,0.2,0.2,0.2,0.2c0,0,0.2,0.7,0.4,1.3c0.1,0.3,0.4,1.3,0.4,1.5c0,0.2-0.1,0.2-0.2,0.2c-0.1,0-0.3-0.1-0.4-0.1
		c-0.1-0.1-0.3-0.1-0.4-0.1c-0.1,0-0.3,0-0.4-0.1C12.2,35.1,12,35,11.9,35c-0.1,0-0.3,0-0.4-0.1c-0.1-0.1-0.5-0.2-0.8-0.2
		c-0.3-0.1-0.6-0.1-0.7-0.2c0,0-0.1-0.1-0.2-0.1c-0.2,0-0.5-0.1-0.8-0.2c-0.1,0-0.3,0-0.4,0c-0.1,0.1-0.9,0.1-1.2,0c0,0-0.3,0-0.5,0
		c-0.3,0-0.5,0.1-0.6,0.2L6,34.8L6.2,35c0.1,0.1,0.3,0.2,0.4,0.2c0.1,0,0.2,0.1,0.3,0.1c0,0.1,0.1,0.1,0.3,0.1c0.1,0,0.2,0,0.2,0
		c0,0,0.3,0.1,0.6,0c0.3,0,0.5,0,0.5,0c0,0.1,0.1,0.1,0.2,0c0.2-0.1,0.9-0.1,1,0c0.1,0,0.2,0.1,0.3,0.1c0.1,0,0.2,0.1,0.2,0.1
		c0,0,0.2,0.1,0.3,0.1c0.2,0,0.3,0,0.3,0c0,0.1,0.9,0.4,1,0.3c0,0,0.1,0,0.1,0.1c0,0.1,0,0.1,0.1,0.1c0,0,0.2,0,0.3,0.1
		c0.2,0.1,0.4,0.1,0.6,0.1c0.3,0,0.4,0.3,0.2,0.5c-0.1,0.1-0.1,0.2-0.1,0.3c0,0.1-0.1,0.1-0.2,0.1c-0.1,0-0.2,0.1-0.2,0.2
		c0,0.1-0.2,0.4-0.5,0.6c-0.6,0.6-0.7,0.8-0.9,1.1c-0.1,0.1-0.1,0.2-0.2,0.2c0,0-0.1,0.1-0.1,0.1c0,0.1-0.5,0.9-0.8,1.2
		c-0.1,0.1-0.2,0.3-0.3,0.5c-0.1,0.2-0.2,0.3-0.3,0.3c0,0-0.1,0.1-0.1,0.2c-0.1,0.3-0.5,0.8-0.6,0.9c-0.1,0-0.1,0.1-0.1,0.2
		c0,0.1-0.1,0.2-0.1,0.4c-0.1,0.2-0.1,0.4-0.1,0.6c0,0.3,0.1,0.3,0.4,0.3c0.2,0,0.4,0,0.5-0.1c0.4-0.3,0.8-0.8,0.8-0.9
		c0-0.1,0.1-0.2,0.5-0.6c0.1-0.1,0.2-0.2,0.2-0.4c0.2-0.4,0.5-0.9,0.8-1.2c0.1-0.1,0.1-0.2,0.1-0.2c0,0,0.1-0.1,0.2-0.2
		c0.1-0.1,0.2-0.3,0.2-0.3c0-0.1,0-0.1,0.1-0.1c0,0,0.2-0.2,0.3-0.4c0.1-0.2,0.3-0.4,0.3-0.4c0,0,0.1-0.1,0.1-0.1
		c0-0.1,0.1-0.1,0.1-0.1c0.1,0,0.2-0.1,0.3-0.3c0.1-0.2,0.3-0.4,0.4-0.6c0.1-0.2,0.4-0.4,0.5-0.6l0.2-0.3l0.1,0.3
		c0.1,0.1,0.1,0.3,0.1,0.4c0,0.1,0.1,0.2,0.1,0.3c0.1,0.3,0.3,0.8,0.3,0.9c0,0,0.1,0.2,0.1,0.3c0.1,0.1,0.1,0.5,0.2,0.8
		c0,0.3,0.1,0.6,0.2,0.7c0.1,0.1,0.1,0.2,0.1,0.2c0,0.1,0,0.1,0,0.2c0.1,0.1,0.1,0.2,0,0.3c0,0.1,0,0.2,0,0.2c0,0,0.1,0.1,0.2,0.3
		c0.1,0.2,0.1,0.4,0.2,0.5c0,0.1,0,0.2,0,0.2c0,0.1,0,0.1,0.1,0.1c0.1,0,0.1,0.1,0.1,0.3c0,0.1,0,0.2,0,0.2c0,0,0.1,0.2,0.2,0.4
		c0.1,0.2,0.2,0.4,0.2,0.4c0.2,0.1,0.4,0.6,0.4,0.7c0,0.1,0.1,0.2,0.2,0.4c0.3,0.2,0.3,0.2,0.5,0.1c0.3-0.2,0.5-0.4,0.5-0.5
		c0,0,0-0.2,0.1-0.3c0.1-0.2-0.1-0.5-0.3-0.5c-0.1,0-0.2,0-0.1-0.1c0-0.1,0-0.2-0.1-0.3c-0.1-0.1-0.1-0.2-0.1-0.2c0,0,0-0.2,0-0.3
		c-0.1-0.1-0.1-0.3-0.2-0.4c-0.1-0.1-0.1-0.3-0.1-0.4c0-0.1-0.1-0.4-0.2-0.6c-0.1-0.2-0.2-0.6-0.2-0.7c0-0.2-0.1-0.3-0.1-0.3
		c0,0-0.1-0.2-0.1-0.5c0-0.3-0.2-0.8-0.3-1.1c-0.1-0.3-0.2-0.7-0.3-0.8c0-0.1-0.1-0.2-0.1-0.3c0-0.1-0.1-0.2-0.1-0.4
		c0-0.4,0.2-0.5,0.4-0.3c0.1,0.1,0.2,0.1,0.3,0.1c0.1,0,0.1,0.1,0.1,0.1c0,0.1,0,0.1,0.1,0.1c0,0,0.1,0,0.1-0.1c0-0.1,0-0.1,0.1,0
		c0.1,0,0.2,0.1,0.4,0.1c0.2,0,0.3,0,0.3,0.1c0,0.1,0.1,0.1,0.2,0.1c0.1,0,0.3,0,0.4,0.1c0.1,0.1,0.3,0.1,0.4,0.2
		c0.1,0,0.2,0.1,0.3,0c0,0,0.1,0,0.2,0.1c0.1,0,0.2,0.1,0.3,0.1c0.1,0,0.2,0,0.2,0.1c0,0.1,0.1,0.1,0.3,0.1c0.2,0,0.7,0.1,1.3,0.2
		c0.5,0.1,1.2,0.3,1.5,0.3c0.3,0,0.7,0.1,0.9,0.2c1.1,0.2,1.6,0.3,1.7,0.2c0.1,0,0.2,0,0.2,0c0,0,0.1,0,0.3-0.1
		c0.2-0.1,0.3-0.2,0.3-0.5c0-0.5-0.2-0.7-0.9-0.8c-0.3-0.1-0.6-0.1-0.7,0c-0.1,0-0.2,0-0.4,0c-0.2-0.1-0.5-0.1-0.8-0.1
		c-0.3,0-0.7-0.1-0.9-0.2c-0.2-0.1-0.5-0.1-0.6-0.2c-0.1,0-0.3,0-0.3-0.1c0,0-0.2-0.1-0.4-0.1s-0.5-0.1-0.7-0.2
		c-0.3-0.1-0.6-0.2-1.4-0.3c-0.1,0-0.2-0.1-0.4-0.1c-0.1-0.1-0.3-0.1-0.5-0.1c-0.1,0-0.2,0-0.3-0.1c0-0.1-0.1-0.1-0.2-0.1
		c-0.1,0-0.2,0-0.3-0.1c-0.1-0.1-0.3-0.2-0.6-0.3c-0.3-0.1-0.5-0.2-0.5-0.2c0,0-0.1-0.1-0.2-0.1c-0.2,0-0.6-0.3-0.6-0.4
		c0,0,0.2-0.2,0.4-0.4c0.2-0.2,0.4-0.4,0.4-0.4c0,0,0.2-0.3,0.4-0.5c0.2-0.2,0.4-0.5,0.4-0.5c0,0,0.3-0.4,0.7-0.7
		c0.6-0.6,1-1.2,1-1.5c0-0.1,0.1-0.1,0.1-0.1c0.1,0,0.3-0.2,0.4-0.4c0.5-0.6,0.5-0.7,0.6-0.6c0.1,0.1,0.3-0.1,0.3-0.3
		c0-0.1,0-0.2,0.1-0.3c0.2-0.1,0.2-0.2,0.1-0.5c0-0.2,0-0.4,0-0.4c0,0,0.1-0.1,0.1-0.1c0-0.1-0.7-0.3-0.8-0.1
		c-0.1,0-0.2,0.1-0.2,0.1c-0.1,0-0.2,0.1-0.4,0.3c-0.1,0.2-0.3,0.4-0.4,0.5c-0.1,0.1-0.2,0.2-0.2,0.3c0,0.1,0,0.1-0.1,0.1
		c-0.1-0.1-0.1,0.1-0.1,0.4c0,0.1,0,0.1-0.1,0.1c-0.1,0-0.2,0.2-0.3,0.3c-0.1,0.2-0.2,0.4-0.3,0.4c0,0-0.1,0.1-0.1,0.2
		c0,0.1,0,0.2-0.1,0.2c0,0-0.1,0.1-0.2,0.3c-0.2,0.4-0.7,0.8-0.8,0.8c-0.1,0-0.1,0,0,0c0,0.1-0.2,0.3-0.5,0.6
		c-0.3,0.3-0.5,0.5-0.5,0.5c0,0-0.1,0.2-0.3,0.3c-0.3,0.3-0.4,0.3-0.5,0.3c-0.1,0-0.1-0.1-0.1-0.2c0-0.1-0.1-0.2-0.2-0.3
		c-0.1-0.1-0.2-0.3-0.2-0.4c0-0.1-0.1-0.4-0.2-0.5c-0.1-0.2-0.2-0.6-0.3-0.9c-0.1-0.4-0.2-0.6-0.3-0.6c0,0-0.1-0.1-0.1-0.1
		c-0.2-0.5-0.2-0.6-0.1-0.6c0.1,0,0-0.1-0.1-0.1C13,30.4,13,30.3,13,30.1c0-0.1-0.1-0.4-0.1-0.5c-0.1-0.2-0.2-0.5-0.2-0.8
		c-0.1-0.5-0.2-0.8-0.3-0.9C12.2,27.7,12.1,27.7,11.7,27.9L11.7,27.9z" />
            <path d="M173.7,56.9c-0.2,0.4-0.6,2.8-0.9,5.4c-0.7,6.3-1.8,7.5-7.6,9.1c-4.9,1.3-6.7,3-4.2,3.8c0.7,0.2,2,0.7,2.8,1
		c1.9,0.7,1.9,0.7,4.6,1.5c2.5,0.7,2.5,0.7,2.3,7.2c-0.1,2.8,0.3,5.2,1,6.1c1,1.4,1.3,1.3,3.5-1.8c4.4-6.4,4.7-6.5,10.6-4.4
		c6.6,2.3,7.8,1.9,6-1.8c-0.7-1.5-2.3-3.8-3.5-5.1c-1.5-1.7-1.9-2.7-1.3-3.4c0.4-0.6,2.2-2.9,3.9-5.2c3.4-4.5,4.1-6.7,1.7-5.8
		c-2,0.8-9.6,2.9-10.6,2.9c-0.5,0-1.7-1.6-2.7-3.6C177.2,58.8,174.4,55.7,173.7,56.9L173.7,56.9z M179.4,68.7
		c0.9,0.9,1.5,0.9,2.8,0.2c0.9-0.5,2.8-0.9,4-0.9h2.3l-2.7,2.8c-1.5,1.5-2.7,3-2.7,3.4c0,0.3,0.9,1.9,2.1,3.4c2.7,3.5,2.7,5,0.2,4.2
		c-1-0.3-2.2-0.9-2.7-1.3c-1.8-1.7-4.3-0.6-6.5,2.9l-2.3,3.5V82v-4.8l-4.4-1.7c-2.4-0.9-4.2-1.7-4-1.8c0.2-0.1,2.1-0.6,4.2-1.1
		c3.4-0.9,3.8-1.3,4.5-4.3c1.3-5.9,1.3-5.9,2.7-3.3C177.7,66.5,178.8,68.1,179.4,68.7L179.4,68.7z" />
            <g>
                <path d="M67.1,84.2c-1-3.6-2.4-7-4.1-10.2c-0.9-1.7-1.9-3.1-3.1-4.4c0.3-1.5,0.6-2.6,0.8-3.5c0.2-0.9,0.4-1.8,0.6-2.7
			c0.2-0.9,0.4-1.9,0.6-2.9c0.2-1,0.5-2.4,0.8-4.1c2.1-0.1,4.2-0.7,6.4-2c2.2-1.3,4.2-2.8,5.9-4.8c1.8-1.9,3.2-4.1,4.4-6.5
			c1.1-2.4,1.7-4.7,1.7-7c0-1.3-0.2-2.5-0.7-3.6c-0.5-1.1-1-2.2-1.8-3.1c-0.7-0.9-1.6-1.7-2.6-2.2c-1-0.6-2-0.8-3.1-0.8
			c-1.3,0-2.6,0.4-3.8,1.1C68.1,28,67,28.9,66,30c-1,1-1.9,2.2-2.7,3.4c-0.8,1.3-1.4,2.4-1.9,3.4c-1,2.4-1.9,4.9-2.6,7.5
			c-0.7,2.5-1.2,5.1-1.7,7.8c-1.2-0.1-2.7-0.4-4.4-0.8c-1.8-0.4-3.5-0.9-5.3-1.5c-1.8-0.6-3.4-1.2-5-1.9c-1.5-0.7-2.6-1.4-3.2-2
			c-0.6-0.3-0.9-0.4-1.1-0.4c-0.5,0-0.9,0.2-1.2,0.5c-0.4,0.3-0.5,0.8-0.5,1.3c0,0.2,0.1,0.5,0.3,0.9c0.9,1,2.2,2,3.9,2.8
			c1.7,0.8,3.5,1.6,5.5,2.2c1.9,0.7,3.9,1.2,5.7,1.7c1.9,0.5,3.4,0.8,4.7,1c-0.2,1.4-0.4,2.4-0.5,3.1c-0.1,0.7-0.3,1.3-0.4,1.8
			c-0.1,0.5-0.2,1.1-0.4,1.8c-0.2,0.7-0.4,1.7-0.7,3c-1.6-1-3.4-1.7-5.4-2.1c-2-0.4-4-0.6-6-0.6c-1.8,0-3.5,0.1-5.2,0.4
			c-1.7,0.3-3.3,0.7-4.9,1.1c-1.4,0.5-2.8,1.3-4.1,2.4c-1.4,1.1-2.6,2.5-3.8,4.1c-1.1,1.6-2.1,3.4-2.8,5.3c-0.7,1.9-1,3.9-1,5.9
			c0,1.6,0.3,3.2,0.9,4.8c0.6,1.6,1.5,3.1,2.6,4.4c1.1,1.3,2.6,2.4,4.3,3.2c1.7,0.8,3.7,1.2,5.9,1.2c5.6,0,10.6-1.7,14.8-5.2
			c3.9-3.2,6.8-8,8.6-14.1c0.9,1.3,1.8,2.9,2.7,4.8c1,2.3,2,5.3,3,8.8c0.9,3.5,1.8,8.1,2.5,13.6c0,0.6,0.2,1.1,0.5,1.4
			c0.3,0.3,0.7,0.5,1,0.5c0.1,0,0.1,0,0.1-0.1c0,0,0-0.1,0.1-0.1h0.3c0.1-0.1,0.2-0.1,0.3-0.2c0.1,0,0.2-0.1,0.3-0.2l0.3-0.3
			c0.1,0,0.2-0.1,0.3-0.4c0.1-0.3,0.1-0.5,0.2-0.6v-0.1c0-2.2-0.2-5.1-0.6-8.5C68.8,91.4,68.1,87.8,67.1,84.2z M65.1,45.5
			c0.5-2,1.1-3.9,1.8-5.8c0.7-1.8,1.6-3.5,2.7-5c1-1.5,2.3-2.7,3.8-3.6l0.6,0.2c1.3,1.7,2,3.6,2,5.6c0,1.6-0.3,3.2-1,4.7
			c-0.7,1.5-1.6,3-2.7,4.3c-1.1,1.3-2.5,2.5-3.9,3.4c-1.5,1-3,1.7-4.6,2.1C64.2,49.5,64.6,47.5,65.1,45.5z M52.3,73.3
			c-0.2,0.8-0.5,1.7-0.9,2.5c-0.6,1.8-1.5,3.5-2.7,5.2c-1.1,1.6-2.4,3.1-3.9,4.4c-1.4,1.3-3,2.3-4.6,3.1c-1.6,0.8-3.2,1.1-4.8,1.1
			c-2,0-3.9-0.7-5.5-2.1c-1.7-1.4-2.5-3.4-2.5-5.9c0-2.2,0.5-4.1,1.5-5.8c1-1.7,2.2-3.1,3.7-4.3c1.5-1.1,3.2-2,5.1-2.6
			c1.9-0.6,3.7-0.9,5.5-0.9c3.3,0,6.6,0.9,9.9,2.7C52.8,71.6,52.6,72.5,52.3,73.3z" />
                <path d="M150.8,83.5c0.3-0.5,0.4-0.9,0.4-1.4c0-1.1-0.6-1.7-1.7-1.7c-0.6,0-1.2,0.4-1.9,1.1c-0.7,0.7-1.5,1.5-2.3,2.4
			c-0.8,0.9-1.7,1.7-2.6,2.4c-0.9,0.8-1.9,1.2-2.9,1.3c-0.1-0.6-0.2-1.1-0.2-1.8c0-1.1,0.2-2.4,0.5-3.9c0.3-1.5,0.7-2.9,1.1-4.4
			c0.4-1.5,0.8-2.9,1.2-4.3c0.4-1.4,0.7-2.5,0.9-3.4c0-1.1-0.2-2-0.7-2.7c-0.5-0.7-1.2-1-2.2-1c-0.1,0-0.3,0-0.4,0.1
			c-0.1,0-0.2,0.1-0.4,0.1c0.1-0.1,0.1-0.3,0.2-0.4c0-0.1,0.1-0.3,0.1-0.5v-0.4c0-1.4-0.5-2.6-1.5-3.6c-1-1-2.2-1.6-3.8-1.6
			c-1.6,0-3.2,0.6-5,1.9c-1.7,1.3-3.3,2.9-4.6,5.1c-1.4,2.1-2.5,4.5-3.4,7.2c-0.1,0.4-0.2,0.7-0.3,1.1c-2,2.5-4.3,4.6-6.7,6.3
			c-2.5,1.7-5.3,2.9-8.4,3.5c-1.6-1-2.6-2.4-2.9-4.2c-0.3-1.8-0.6-3.6-0.6-5.4c1.9-1.7,3.9-4,5.7-7c1.9-3,3.6-6.2,5.1-9.6
			c1.5-3.4,2.8-6.8,3.9-10.2c1.1-3.4,1.9-6.3,2.4-8.7c0.2-0.8,0.4-1.7,0.6-2.7c0.2-1,0.3-2.2,0.3-3.3c0-1.7-0.4-3.3-1.1-4.8
			c-0.7-1.5-2.1-2.3-4-2.3c-0.8,0-1.6,0.3-2.5,0.8c-3.1,1.7-5.6,4.5-7.7,8.2c-2.1,3.8-3.8,7.8-5.1,12.1c-1.3,4.3-2.2,8.6-2.7,12.7
			c-2.1,0.5-4.2,1.1-6.3,1.7c-3.4,1-6.6,2.2-9.6,3.5c-0.1-0.1-0.1-0.1-0.1-0.2v-0.1L80.8,64c-0.4-0.6-0.9-0.9-1.6-0.9
			c-0.9,0-1.9,0.7-3,2.1c-1.1,1.4-2.1,3.1-3.1,5.1c-1,2-1.8,4-2.5,6.2c-0.7,2.1-1,3.9-1,5.4c0,1.9,0.5,3.5,1.5,4.8
			c1,1.4,2.1,2.1,3.3,2.2c0.8-0.1,1.6-0.2,2.4-0.2c0.8,0,1.5-0.1,2.2-0.4c1.7-0.6,3.2-1.6,4.5-3c1.3-1.4,2.4-2.8,3.3-4.4
			c0.9-1.6,1.5-3.2,2-4.8c0.5-1.6,0.7-3,0.7-4c0-1.3-0.3-2.5-0.9-3.5c2.2-1,4.3-2,6.5-3c0.5-0.2,1.1-0.4,1.6-0.7
			c-0.2,2.3-0.3,4.2-0.3,5.8c0,6.3,0.9,11,2.6,14.2c1.7,3.2,4.1,4.8,7,4.8c1.6,0,3.3-0.4,5-1.2c1.7-0.8,3.4-1.8,5.1-3.1
			c1.5-1.1,2.9-2.4,4.1-3.7c0,0.2,0,0.5,0,0.7c0,2.1,0.6,3.7,1.7,4.9c1.1,1.2,2.6,1.8,4.4,1.8c0.6,0,1.2-0.2,2-0.6
			c0.8-0.4,1.5-0.9,2.3-1.4c0.8-0.6,1.5-1.1,2.1-1.7c0.7-0.6,1.2-1,1.6-1.5c0,0.8,0.1,1.7,0.2,2.7c0.1,1,0.3,1.9,0.6,2.8
			c0.3,0.9,0.8,1.7,1.4,2.2c0.6,0.6,1.4,0.9,2.4,0.9c1.3,0,2.5-0.4,3.8-1.3c1.3-0.8,2.5-1.8,3.5-2.8c1-1,2-2,2.8-3
			C149.9,84.5,150.5,83.8,150.8,83.5z M83.3,72.3c0,0.1-0.2,0.7-0.6,1.8c-0.4,1-0.9,2.2-1.5,3.3c-0.6,1.2-1.4,2.3-2.3,3.3
			c-0.9,1-1.9,1.6-3,1.7c0-2.2,0.2-4.4,0.5-6.6c0.3-2.3,1-4.4,2-6.4c0.2,1,0.9,1.8,2.1,2.4c0.3,0.1,0.8,0.2,1.4,0.2
			c0.6,0,1,0,1.5,0.2V72.3z M107.7,46.6c0.9-2.2,1.8-4.3,2.8-6.4c1-2.1,2.3-4,3.9-5.8c0,1.9-0.3,4-0.8,6.4c-0.5,2.4-1.2,4.8-1.9,7.2
			c-0.8,2.4-1.6,4.7-2.4,7c-0.8,2.3-1.6,4.2-2.3,5.9c-0.6,1.6-1.3,3.2-2,4.7c-0.7,1.5-1.5,3-2.5,4.4
			C102.7,61.8,104.5,54.1,107.7,46.6z M134.9,70.6c-0.8,1.3-1.5,2.7-2.3,4.1c-0.8,1.4-1.6,2.7-2.5,4c-0.9,1.3-2.1,2.3-3.5,3.1v-1.3
			c0-1.5,0.2-3.1,0.5-4.7c0.3-1.6,0.8-3.1,1.4-4.6c0.6-1.5,1.4-2.9,2.3-4.1c0.9-1.3,2-2.3,3.3-3.1l2.4,0.8l0.1,0.7
			c0,0.8,0.4,1.4,1.1,1.7C136.6,68.2,135.6,69.3,134.9,70.6z" />
                <polygon points="87.2,109.9 86.1,109.9 86.1,112 84.1,112 84.1,113 86.1,113 86.1,115.1 87.2,115.1 87.2,113 89.2,113 89.2,112 
			87.2,112 		" />
                <polygon points="99.9,107.6 103.1,107.6 103.1,117 104.6,117 104.6,107.6 107.8,107.6 107.8,106.3 99.9,106.3 		" />
                <polygon points="119.1,110.9 113.8,110.9 113.8,106.3 112.4,106.3 112.4,117 113.8,117 113.8,112.1 119.1,112.1 119.1,117 
			120.5,117 120.5,106.3 119.1,106.3 		" />
                <polygon points="126.3,117 132.7,117 132.7,115.7 127.8,115.7 127.8,112 132,112 132,110.8 127.8,110.8 127.8,107.6 132.7,107.6 
			132.7,106.3 126.3,106.3 		" />
                <path d="M154.1,111.3c1.1-0.5,1.8-1.3,1.8-2.4c0-1.7-1.4-2.7-4-2.7c-1.4,0-2.4,0.1-3.1,0.2v10.6c0.7,0.1,1.8,0.2,3.1,0.2
			c2.9,0,4.5-1.2,4.5-3.2C156.2,112.7,155.5,111.8,154.1,111.3z M150.1,107.4c0.5,0,1-0.1,1.7-0.1c1.6,0,2.6,0.6,2.6,1.7
			c0,1.1-1,1.8-2.6,1.8h-1.7V107.4z M151.8,115.9c-0.6,0-1.2,0-1.7-0.1V112h1.7c1.8,0,2.9,0.7,2.9,1.9
			C154.7,115.2,153.6,115.9,151.8,115.9z" />
                <path d="M165.6,106.1c-3.1,0-5,2.4-5,5.5c0,3,1.9,5.5,5,5.5c3.1,0,5-2.5,5-5.5C170.6,108.6,168.7,106.1,165.6,106.1z M165.6,115.9
			c-2.2,0-3.5-2.1-3.5-4.3c0-2.4,1.3-4.2,3.5-4.2c2.2,0,3.6,2.1,3.6,4.2C169.2,114.1,167.9,115.9,165.6,115.9z" />
                <polygon points="178.5,111.6 175.2,106.2 174,106.9 177.7,112.9 177.7,117 179.1,117 179.1,112.9 182.8,106.9 181.6,106.2 		" />
                <path d="M190.3,110.7c-2-0.7-2.3-1.2-2.3-1.9c0-0.8,0.8-1.4,2.2-1.4c1,0,2,0.3,2.7,0.7l0.5-1.2c-1-0.5-1.9-0.7-3.2-0.7
			c-2.3,0-3.6,1.2-3.6,2.7c0,1.5,0.8,2.3,3,3.2c2,0.8,2.4,1.3,2.4,2.2c0,1-0.9,1.7-2.4,1.7c-1.2,0-2.1-0.4-2.8-1l-0.7,1.2
			c0.8,0.7,2.1,1.1,3.6,1.1c2.3,0,3.9-1.1,3.9-3.1C193.5,112.6,192.7,111.6,190.3,110.7z" />
            </g>
        </g>
    </g>
</svg>
