<?xml version="1.0" encoding="utf-8"?>
<!-- Generator: Adobe Illustrator 16.0.0, SVG Export Plug-In . SVG Version: 6.00 Build 0)  -->
<svg version="1.2" baseProfile="tiny-ps" id="Layer_1" xmlns="http://www.w3.org/2000/svg" xmlns:xlink="http://www.w3.org/1999/xlink"
	 width="300px" height="300px" viewBox="0 0 300 300" xml:space="preserve">
	 <title>Jm Financial</title>
<g id="svgg">
	<path id="path0" fill="#2E56A2" d="M220.313,151.693c-4.244,0.906-7.209,3.275-9.529,7.614c-2.303,4.306,0.068,11.854,4.42,14.073
		c4.299,2.193,14.266,1.148,14.266-1.495c0-1.779-2.271-3.089-3.762-2.168c-2.486,1.536-7.037,1.108-9.223-0.867
		c-4.982-4.502-1.281-12.705,5.947-13.177c2.094-0.137,4.543,0.553,5.086,1.433c0.553,0.892,3.461-0.965,3.443-2.196
		C230.932,152.949,224.102,150.885,220.313,151.693 M74.723,152.009c-0.761,0.306-0.649-0.24-1.886,9.3
		c-1.321,10.201-1.815,11.027-4.825,8.085c-1.018-0.995-1.558-0.981-3.059,0.076c-2.875,2.024,3.82,6.718,7.432,5.209
		c2.592-1.083,3.563-2.912,4.174-7.876c0.242-1.949,0.744-5.956,1.117-8.904C78.475,151.596,78.016,150.682,74.723,152.009
		 M85.692,152.067c-0.625,0.494-1.359,2.864-3.098,9.991c-1.761,7.217-1.889,7.73-2.459,9.854c-0.357,1.332-0.387,1.836-0.121,2.101
		c0.479,0.479,2.961,0.386,3.473-0.131c0.408-0.414,2.847-9.355,2.847-10.443c0-0.79,0.731-1.353,1.117-0.858
		c0.313,0.399,0.812,2.201,1.433,5.18c1.143,5.475,1.528,6.322,3.01,6.619c1.602,0.32,4.67-4.277,7.068-10.586
		c0.901-2.371,1.477-0.242,1.477,5.468c0,4.819,0.076,5.006,2.097,5.059c2.198,0.058,2.142,0.396,1.91-11.202
		c-0.233-11.705-0.224-11.664-2.466-11.305c-1.5,0.24-1.782,0.658-5.364,7.934c-1.757,3.571-3.296,6.344-3.487,6.283
		c-0.488-0.152-2.087-5.605-3.018-10.299C89.428,152.297,87.462,150.666,85.692,152.067 M120.27,152.23
		c-0.528,0.436-0.717,1.146-1.09,4.126c-0.248,1.981-0.649,4.952-0.894,6.603c-0.244,1.649-0.571,4.147-0.726,5.551
		c-0.155,1.402-0.373,3.111-0.484,3.797c-0.273,1.677,0.706,2.432,2.619,2.02c1.553-0.334,1.58-0.395,2.188-4.902
		c0.682-5.057,0.484-4.815,3.914-4.815c3.098,0,3.402-0.171,3.868-2.181c0.388-1.667-0.146-2.02-3.058-2.024
		c-3.276-0.006-3.495-0.134-3.293-1.927c0.252-2.23,0.758-2.57,3.839-2.57c3.06,0,3.397-0.229,3.424-2.332
		c0.022-1.75-0.129-1.799-5.576-1.839C121.518,151.711,120.813,151.783,120.27,152.23 M135.742,152.152
		c-0.531,0.531-0.585,0.795-1.371,6.605c-0.334,2.475-0.882,6.482-1.217,8.904c-0.925,6.688-0.864,6.936,1.616,6.627
		c1.793-0.225,2.059-0.91,2.709-6.979c0.115-1.073,0.399-3.099,0.631-4.501c0.232-1.402,0.552-3.699,0.711-5.102
		c0.158-1.402,0.378-3.102,0.488-3.774C139.625,151.982,137.149,150.746,135.742,152.152 M145.162,152.235
		c-0.681,0.552-0.692,0.618-2.563,15.224c-0.231,1.816-0.511,3.914-0.619,4.664c-0.241,1.682,0.283,2.24,2.065,2.194
		c1.74-0.046,2.171-0.717,2.406-3.759c0.106-1.374,0.397-3.646,0.646-5.049c0.248-1.403,0.453-3.049,0.453-3.659
		c0-2.438,0.863-1.837,2.877,2.008c0.779,1.486,2.023,3.849,2.763,5.251c0.744,1.403,1.592,3.032,1.887,3.619
		c1.346,2.693,4.646,2.281,4.959-0.621c0.135-1.266,0.699-5.396,1.781-13.05c1.008-7.128,0.979-7.353-0.971-7.353
		c-2.141,0-2.465,0.586-3.076,5.552c-1.223,9.952-1.215,9.944-4.033,4.502C148.317,151.289,147.479,150.358,145.162,152.235
		 M175.295,151.992c-0.824,0.332-1.041,0.637-2.695,3.765c-0.787,1.485-1.932,3.579-2.545,4.651s-2.031,3.705-3.148,5.852
		c-1.119,2.145-2.258,4.238-2.529,4.65c-1.568,2.377-1.541,3.118,0.127,3.432c2.006,0.377,2.658,0.025,3.906-2.111
		c1.486-2.543,1.674-2.622,5.975-2.548c3.963,0.067,4.219,0.165,4.508,1.715c0.457,2.431,1.58,3.365,3.594,2.988
		c1.256-0.236,1.557-0.949,0.982-2.328c-0.229-0.548-0.516-1.537-0.637-2.197c-0.121-0.661-0.744-3.226-1.383-5.702
		c-0.641-2.475-1.447-5.648-1.793-7.052c-1.15-4.657-1.16-4.687-1.963-5.052C176.816,151.656,176.166,151.638,175.295,151.992
		 M190.459,152.306c-0.33,0.33-0.6,0.718-0.6,0.86c0,0.145-0.189,1.394-0.424,2.776c-0.23,1.384-0.51,3.46-0.619,4.615
		c-0.107,1.155-0.381,3.315-0.607,4.802c-1.244,8.176-1.129,9.707,0.674,9.016c0.234-0.09,0.805-0.164,1.268-0.164
		c0.465,0,0.918-0.189,1.008-0.42c0.197-0.521,1.295-8.297,1.557-11.058c0.359-3.761,0.711-3.38,5.596,6.031
		c0.715,1.379,1.523,2.931,1.793,3.451c0.721,1.382,1.609,2.067,2.801,2.161c2.105,0.168,2.316-0.449,3.6-10.519
		c0.252-1.979,0.658-5.086,0.904-6.901c0.646-4.805,0.52-5.252-1.482-5.252c-2.08,0-2.406,0.978-3.48,10.432
		c-0.193,1.693-0.48,3.158-0.639,3.257c-0.389,0.24-1.746-1.065-1.746-1.677c0-0.268-0.121-0.616-0.27-0.773
		c-0.367-0.384-1.146-1.81-3.33-6.09C193.816,151.675,192.266,150.498,190.459,152.306 M236.764,151.941
		c-0.631,0.402-0.994,1.846-1.586,6.326c-0.318,2.415-0.855,6.484-1.193,9.042s-0.688,5.001-0.777,5.429
		c-0.227,1.077,0.539,1.631,2.207,1.594c1.602-0.037,2.158-0.612,2.158-2.241c0-0.607,0.256-2.708,0.568-4.669
		c0.314-1.959,0.727-4.778,0.914-6.264c0.188-1.486,0.527-3.901,0.754-5.369c0.408-2.649,0.355-3.43-0.266-3.854
		C239.123,151.646,237.221,151.651,236.764,151.941 M252.6,152.07c-0.756,0.4-0.891,0.609-3.105,4.768
		c-0.738,1.386-1.646,3.06-2.02,3.72c-0.805,1.423-2.695,4.983-3.986,7.502c-0.508,0.99-1.381,2.513-1.939,3.383
		c-1.309,2.036-1.211,2.562,0.527,2.814c2.279,0.331,3.555-0.548,4.328-2.983c0.406-1.281,1.273-1.544,5.24-1.584
		c4.23-0.042,4.35,0.014,4.916,2.264c0.492,1.955,1.484,2.7,3.201,2.41c1.621-0.273,1.736-0.664,0.961-3.258
		c-0.629-2.104-2.514-9.531-3.094-12.197c-0.162-0.744-0.477-1.959-0.699-2.701s-0.486-1.844-0.586-2.445
		C256.055,152.043,254.217,151.211,252.6,152.07 M267.576,152.248c-0.572,0.463-0.746,1.138-1.221,4.726
		c-1.66,12.58-2.045,15.329-2.209,15.746c-0.662,1.672,9.324,2.679,10.508,1.059c1.426-1.95,0.35-3.468-2.461-3.468
		c-3.309,0-3.559-0.307-2.816-3.451c0.154-0.66,0.432-2.617,0.611-4.351c0.182-1.733,0.523-4.124,0.76-5.314
		c0.525-2.636,0.553-4.647,0.07-5.129C270.275,151.522,268.338,151.632,267.576,152.248 M176.164,160.033
		c0.08,0.289,0.234,0.998,0.344,1.575s0.346,1.479,0.525,2.005c0.49,1.426-0.043,1.897-2.141,1.891
		c-2.59-0.006-2.762-0.242-1.695-2.313C174.867,159.949,175.846,158.908,176.164,160.033 M253.764,160.783
		c0.172,0.701,0.447,1.689,0.611,2.196c0.719,2.206,0.254,2.652-2.57,2.474c-1.754-0.111-2.092-0.854-1.051-2.315
		c0.342-0.479,0.621-0.988,0.621-1.131c0-0.421,1.496-2.499,1.799-2.499C253.328,159.508,253.592,160.082,253.764,160.783"/>
	<path id="path2" fill="#E9262D" d="M62.328,125.883c-0.413,0.42-1.414,1.709-2.226,2.866c-2.646,3.77-3.912,5.603-4.676,6.761
		c-0.804,1.218-2.707,3.946-5.129,7.344c-0.822,1.155-2.093,2.978-2.822,4.051c-1.451,2.13-2.355,3.429-6.17,8.849
		c-1.394,1.979-2.871,4.093-3.283,4.695c-0.414,0.604-1.629,2.344-2.701,3.865s-2.288,3.275-2.7,3.895
		c-2.124,3.19-4.248,5.926-5.075,6.537c-2.658,1.961-0.311,2.429,3.535,0.703c4.963-2.227,13.126-2.967,20.085-1.822
		c3.465,0.572,3.494,0.543,3.574-3.349c0.211-10.274,1.588-20.8,3.815-29.172c1.621-6.092,2.088-7.659,3.018-10.106
		c0.951-2.505,1.828-5.662,1.613-5.808C63.126,125.151,62.741,125.462,62.328,125.883"/>
</g>
</svg>
