<?xml version="1.0" encoding="utf-8"?>
<!-- Generator: Adobe Illustrator 27.5.0, SVG Export Plug-In . SVG Version: 6.00 Build 0)  -->
<svg version="1.2" baseProfile="tiny-ps" id="Layer_1" xmlns="http://www.w3.org/2000/svg" xmlns:xlink="http://www.w3.org/1999/xlink"
	 width="256px" height="256px" viewBox="0 0 256 256" xml:space="preserve">
<title>Movavi</title>
<rect width="256" height="256"/>
<path fill="#FFFFFF" d="M127.9,108.7c2.9,0,5.8-0.6,8.5-1.7c2.7-1.1,5.1-2.7,7.2-4.8c2.1-2.1,3.7-4.5,4.8-7.2
	c1.1-2.7,1.7-5.6,1.7-8.5c0-5.9-2.3-11.5-6.5-15.6c-4.2-4.1-9.8-6.5-15.7-6.5c-5.9,0-11.5,2.3-15.7,6.5c-4.2,4.1-6.5,9.8-6.5,15.6
	c0,2.9,0.6,5.8,1.7,8.5c1.1,2.7,2.7,5.1,4.8,7.2c2.1,2.1,4.5,3.7,7.2,4.8C122.1,108.1,125,108.7,127.9,108.7L127.9,108.7z
	 M127.9,148.1c-5.9,0-11.5,2.3-15.7,6.5c-4.2,4.2-6.5,9.8-6.5,15.7c0,5.9,2.3,11.5,6.5,15.6c4.2,4.1,9.8,6.5,15.7,6.5
	c5.9,0,11.5-2.3,15.7-6.5c4.2-4.1,6.5-9.8,6.5-15.6c0-5.9-2.3-11.5-6.5-15.7C139.4,150.5,133.7,148.1,127.9,148.1L127.9,148.1z
	 M169.9,106.4c-5.9,0-11.5,2.3-15.7,6.5c-4.2,4.2-6.5,9.8-6.5,15.7c0,5.9,2.3,11.5,6.5,15.7c4.2,4.2,9.8,6.5,15.7,6.5
	c5.9,0,11.5-2.3,15.6-6.5c4.1-4.2,6.5-9.8,6.5-15.7c0-5.9-2.3-11.5-6.5-15.7S175.7,106.4,169.9,106.4L169.9,106.4z M86.1,106.4
	c-5.9,0-11.5,2.3-15.7,6.5c-4.2,4.2-6.5,9.8-6.5,15.7c0,5.9,2.3,11.5,6.5,15.7c4.2,4.2,9.8,6.5,15.7,6.5c5.9,0,11.5-2.3,15.6-6.5
	c4.1-4.2,6.5-9.8,6.5-15.7c0-5.9-2.3-11.5-6.5-15.7C97.6,108.7,92,106.4,86.1,106.4L86.1,106.4z"/>
</svg>
