<?xml version="1.0" encoding="utf-8"?>
<!-- Generator: Adobe Illustrator 27.8.0, SVG Export Plug-In . SVG Version: 6.00 Build 0)  -->
<svg version="1.2" baseProfile="tiny-ps" id="uuid-14a846bd-b77b-491f-bf93-d28e919c0e0b"
	 xmlns="http://www.w3.org/2000/svg" xmlns:xlink="http://www.w3.org/1999/xlink" viewBox="0 0 312.6 312.6" xml:space="preserve">
<title>DSTI</title>
<g>
	<path fill="none" d="M-0.8,167.1c5.9,51.9,52.9,89,104.9,82.8c51.8-6.2,88.9-53.1,82.8-104.9C180.8,93.2,133.7,56.3,82,62.2
		C30.1,68.2-7,115.3-0.8,167.1"/>
	<path fill="#031B25" d="M16.4,137.7c-4.5,6.5-9,12.9-13.6,19.4c1.1,0.7,1.8,1.9,2,3.2c0.1,0,0.2,0,0.4,0c2.9,0.2,5.8,0.5,8.7,0.8
		c3.1,0.3,6.1,0.6,9.2,0.8c2.9,0.3,5.9,0.5,8.8,0.8c2.9,0.3,5.9,0.5,8.8,0.8c1.5,0.1,3,0.3,4.5,0.4c1.5,0.1,3,0.3,4.5,0.4
		c1.3,0.1,2.6,0.2,3.9,0.3c0.1-1,0.5-1.9,1-2.7c-10-8.5-20-16.9-30-25.4c-1.2,1.3-2.9,2.1-4.8,2.1C18.6,138.7,17.4,138.3,16.4,137.7
		z"/>
	<path fill="#031B25" d="M23,188.6c0,0,0.1,0.1,0.1,0.1c0.6-0.4,1.4-0.7,2.2-0.7c1.1,0,2,0.4,2.7,1.1c8.8-6.6,17.7-13.3,26.4-19.9
		c-0.1-0.2-0.2-0.4-0.3-0.6c-0.1-0.1-0.1-0.2-0.1-0.3c0-0.1-0.1-0.2-0.1-0.3c-0.1-0.3-0.2-0.6-0.2-0.9c0-0.1-0.1-0.3-0.1-0.4
		c-0.1-0.3-0.1-0.6-0.1-0.9v0c-4.1-0.4-8.1-0.7-12.2-1.1c-6.1-0.6-12.2-1.1-18.3-1.7c-3-0.3-6.1-0.5-9.1-0.8c-3-0.3-6.1-0.6-9.1-0.8
		c-0.1,1.1-0.6,2.1-1.3,2.8c4.2,5.3,8.4,10.5,12.6,15.8C18.4,182.9,20.7,185.7,23,188.6L23,188.6z"/>
	<path fill="#031B25" d="M41.5,87.6c-0.5,0-0.9-0.1-1.3-0.2c0,0,0,0,0,0c-0.3,0.6-0.6,1.3-0.9,2c-4.2,9.3-8.3,18.7-12.5,28
		c-0.7,1.5-1.3,3-2,4.5c-0.7,1.5-1.3,3-2,4.4c0.2,0.1,0.4,0.2,0.6,0.3c0.4,0.2,0.7,0.5,1,0.8c0.8,0.7,1.4,1.6,1.7,2.6
		c9-1.9,18-3.7,27-5.6c0-0.1,0-0.2,0-0.3c0-2,1.2-3.8,3-4.5c-4.4-10.8-8.9-21.5-13.3-32.2C42.4,87.6,42,87.6,41.5,87.6L41.5,87.6z"
		/>
	<path fill="#031B25" d="M56.6,201.9c0.2,0,0.3,0.1,0.5,0.1c0.4,0.1,0.8,0.3,1.1,0.6c0.2,0.1,0.4,0.3,0.6,0.5
		c9.8-6.7,19.7-13.5,29.6-20.3c-0.5-0.7-0.8-1.6-0.8-2.5c0-0.6,0.1-1.2,0.3-1.7c-7.4-3.2-14.8-6.4-22.1-9.6c-1.1,2-3.3,3.4-5.8,3.4
		c-0.2,0-0.4,0-0.6,0c-1.3,9.9-2.5,19.7-3.7,29.4c0.1,0,0.3,0,0.4,0.1C56.3,201.9,56.5,201.9,56.6,201.9L56.6,201.9z"/>
	<path fill="#031B25" d="M58.3,136.2c-0.1-2.4-0.2-4.8-0.3-7.3h-0.1c-0.2,0-0.3,0-0.5,0c-0.2,0-0.3,0-0.5-0.1c0,0-0.1,0-0.1,0
		c-0.2,0-0.3-0.1-0.5-0.1c-0.2-0.1-0.3-0.1-0.5-0.2c-0.2-0.1-0.3-0.2-0.5-0.3c-0.1-0.1-0.2-0.2-0.4-0.2c-0.1-0.1-0.2-0.2-0.3-0.3
		c-0.1-0.1-0.2-0.2-0.3-0.3c-0.1-0.1-0.2-0.2-0.3-0.3c-0.4-0.5-0.7-1.1-0.9-1.7c-9,1.9-17.9,3.7-26.9,5.6c0.1,0.4,0.1,0.8,0.1,1.2
		c0,1.4-0.4,2.6-1.1,3.7c5,4.3,10,8.5,15,12.7c5,4.2,10,8.5,15,12.7c0.1-0.1,0.1-0.1,0.2-0.2c0.2-0.2,0.4-0.4,0.6-0.6
		c0.1-0.1,0.3-0.2,0.4-0.3c0.2-0.1,0.4-0.2,0.6-0.3c0,0,0,0,0,0c0.2-0.1,0.4-0.2,0.5-0.2c0.3-0.1,0.6-0.2,1-0.3
		c0.1,0,0.3-0.1,0.4-0.1c-0.1-3.6-0.3-7.2-0.4-10.9C58.6,144.3,58.4,140.3,58.3,136.2L58.3,136.2z"/>
	<path fill="#031B25" d="M96,182.3c-0.5,1-1.4,1.8-2.4,2.2c0,0.1,0,0.1,0.1,0.2c0.3,0.9,0.6,1.8,0.9,2.6c0.3,0.8,0.5,1.6,0.8,2.3
		c0.1,0,0.2,0,0.3,0c0.1,0,0.2,0,0.3,0c0.3,0,0.6,0,0.8,0.1c0,0,0,0,0,0c0,0,0,0,0,0c1-2.1,1.9-4.3,2.9-6.5
		C98.3,182.9,97.2,182.5,96,182.3L96,182.3z"/>
	<path fill="#031B25" d="M69.9,207.7c3.4,0.4,6.7,0.7,10,1.1c1.5,0.2,3.1,0.3,4.6,0.5c0.2-1.7,1.6-3,3.3-3c0.5,0,0.9,0.1,1.3,0.3
		c1.6-3.6,3.3-7.3,4.9-10.9c-0.2-0.1-0.4-0.3-0.6-0.5c0,0-0.1-0.1-0.1-0.1c-0.1-0.1-0.2-0.3-0.3-0.4c-0.1-0.1-0.1-0.2-0.2-0.3
		c0-0.1-0.1-0.1-0.1-0.2c-0.1-0.2-0.1-0.4-0.2-0.6c0-0.1,0-0.1,0-0.2c0-0.1,0-0.3,0-0.4c0-1.3,0.7-2.4,1.8-2.9
		c-0.5-1.8-1.1-3.5-1.7-5.2c0,0,0-0.1-0.1-0.1c-0.1,0-0.3,0-0.4,0c-1.1,0-2.1-0.4-2.9-1.1c-5,3.4-9.9,6.8-14.9,10.2
		s-9.9,6.8-14.8,10.1c0.6,0.8,0.9,1.8,1,2.8C63.7,207.1,66.8,207.4,69.9,207.7L69.9,207.7z"/>
	<path fill="#031B25" d="M89.8,138.3c-3.9-1.2-7.8-2.5-11.6-3.7c-0.2-0.1-0.4-0.1-0.5-0.1c-0.1,0-0.2-0.1-0.3-0.1
		c-0.2,0.3-0.5,0.6-0.8,0.8c6.1,9.2,12.1,18.3,18.2,27.5c0.1,0,0.2-0.1,0.2-0.1c-0.6-2.9-1.1-5.7-1.7-8.6c-1-5-1.9-10-2.9-15
		C90.3,138.6,90.1,138.5,89.8,138.3L89.8,138.3z"/>
	<path fill="#031B25" d="M97.9,202.9c-0.6-2.3-1.2-4.5-1.8-6.7c-0.1,0-0.2,0-0.3,0c-0.1,0-0.3,0-0.4,0c-0.1,0-0.3,0-0.4-0.1
		c-1.7,3.7-3.3,7.4-5,11c0,0,0,0,0,0c0.2,0.2,0.4,0.4,0.6,0.7C93,206.2,95.4,204.6,97.9,202.9L97.9,202.9z"/>
	<path fill="#031B25" d="M91.7,140c0,0.3,0,0.4,0.1,0.5c0.4,1.8,0.7,3.6,1.1,5.4c1,5.2,2.1,10.4,3,15.7c0.1,0.3,0.1,0.6,0.2,0.8
		c0.1,0,0.2,0,0.3,0c0.7,0,1.3,0.2,1.8,0.5c0,0,0,0,0.1-0.1c1.5-1.6,2.9-3.1,4.4-4.7c0.9-0.9,1.7-1.8,2.6-2.8
		C100.7,150.2,96.3,145.1,91.7,140L91.7,140z"/>
	<path fill="#031B25" d="M60.9,127.9c-0.1,0.1-0.2,0.1-0.2,0.2c-0.2,0.1-0.4,0.3-0.6,0.4c-0.3,0.1-0.6,0.2-0.9,0.3
		c0.2,4.7,0.3,9.4,0.5,14c0.2,5.2,0.4,10.5,0.6,15.7v0.6c0.7,0,1.3,0.1,1.9,0.3c1.1-2.4,2.1-4.8,3.1-7.2c2.4-5.6,4.9-11.1,7.3-16.7
		c0-0.1,0-0.1,0-0.2c-0.8-0.6-1.4-1.6-1.4-2.7c0-0.3,0-0.6,0.1-0.9c0,0-0.1,0-0.1-0.1c-0.4-0.2-0.9-0.5-1.3-0.7
		c-0.7-0.4-1.3-0.7-2-1.1c-2-1.1-4.1-2.3-6-3.3C61.7,127.1,61.3,127.6,60.9,127.9z"/>
	<path fill="#031B25" d="M52.7,232.4c0.5-0.5,1.1-0.9,1.9-1v-0.3c-0.1-4.1-0.1-8.3-0.2-12.4c0-2.2-0.1-4.3-0.1-6.5v0
		c-0.1,0-0.2-0.1-0.4-0.1c-0.2-0.1-0.3-0.1-0.5-0.2c-0.1,0-0.2-0.1-0.3-0.1c-0.8-0.4-1.5-0.9-2-1.6c-0.1-0.2-0.3-0.4-0.4-0.6
		c-0.1-0.1-0.1-0.2-0.2-0.3c-0.1-0.2-0.2-0.4-0.3-0.6c-6.3,2.1-12.6,4.2-18.7,6.3c0.1,0.3,0.1,0.6,0.1,1c0,0.9-0.2,1.7-0.6,2.4
		C38.2,223,45.5,227.7,52.7,232.4L52.7,232.4z"/>
	<path fill="#031B25" d="M46.2,82.6c1,0,2,0,3,0c9.7,0.1,19.4,0.1,29.1,0.2c0.3,0,0.6,0,0.9-0.1c0.2-0.5,0.6-1,0.9-1.4
		c-6.6-4.7-13.3-9.4-19.9-14.1c-6.2,2.3-12,5.1-17.5,8.6c-0.1,0.8-0.1,1.6-0.2,2.4C44.5,78.8,46,80.5,46.2,82.6L46.2,82.6z"/>
	<path fill="#031B25" d="M99.4,163.3c0.9-0.5,1.8-1.1,2.7-1.6c0.1,0,0.1-0.1,0.1-0.1c0,0,0.1-0.1,0.1-0.1c0.5-0.9,0.9-1.9,1.4-2.9
		c0,0-0.1,0-0.1-0.1C102.2,160.1,100.7,161.7,99.4,163.3L99.4,163.3L99.4,163.3z"/>
	<path fill="#031B25" d="M92.4,166.4c-8.5,0-17.1,0-25.6,0c0,0.2-0.1,0.4-0.1,0.7c0,0.2-0.1,0.4-0.1,0.6c0,0.1-0.1,0.3-0.1,0.4
		c3.6,1.6,7.2,3.1,10.9,4.7c3.6,1.6,7.3,3.1,10.9,4.7c0.2,0.1,0.4,0.1,0.5,0.1c0.7-0.9,1.9-1.6,3.1-1.7c0,0,0,0,0,0
		c0.9-2.3,1.9-4.6,2.7-6.8c-1-0.6-1.7-1.6-1.8-2.8C92.6,166.4,92.5,166.4,92.4,166.4L92.4,166.4z"/>
	<path fill="#031B25" d="M76.1,117.2c-0.9-0.3-1.7-0.9-2.2-1.6c-3.8,2.2-7.7,4.4-11.5,6.6c0.2,0.6,0.4,1.2,0.4,1.9
		c0,0.6-0.1,1.1-0.2,1.6c0.9,0.5,1.8,1,2.6,1.4c2,1.1,4,2.2,5.9,3.2c0.3,0.2,0.5,0.3,0.8,0.4v0c0.1-0.2,0.3-0.4,0.5-0.6
		c0.1-0.1,0.2-0.2,0.3-0.2c0.1-0.1,0.2-0.1,0.3-0.2c0.1-0.1,0.2-0.1,0.3-0.2c0.1,0,0.2-0.1,0.3-0.1c0.1,0,0.1,0,0.2-0.1
		c0.1,0,0.1,0,0.2,0c0.1,0,0.1,0,0.1,0c0.1,0,0.2,0,0.4-0.1c0,0,0-0.1,0-0.1c0.4-3,0.9-6,1.3-8.9C75.8,119.2,75.9,118.1,76.1,117.2
		L76.1,117.2z"/>
	<path fill="#031B25" d="M74.5,135.9c-0.2,0-0.3,0-0.5,0c-0.2,0-0.3-0.1-0.5-0.1c-3.5,8-7,16-10.5,24.1c2.1,1,3.5,3.1,3.7,5.4h26
		c0.1-0.8,0.5-1.4,1.1-1.9c-4.1-6.2-8.3-12.5-12.4-18.8c-1.9-2.9-3.8-5.7-5.7-8.6c-0.1-0.1-0.1-0.2-0.2-0.2v0
		C75.2,135.9,74.9,135.9,74.5,135.9L74.5,135.9z"/>
	<path fill="#031B25" d="M54.8,201.3c0.2-1.4,0.4-2.9,0.5-4.3c0.4-3.4,0.9-6.8,1.3-10.2c0.4-3.4,0.9-6.8,1.3-10.2
		c0.2-1.5,0.4-2.9,0.5-4.3c-0.3-0.1-0.7-0.2-1-0.3c-0.1-0.1-0.3-0.1-0.5-0.2c-0.1-0.1-0.2-0.1-0.4-0.2c-0.1-0.1-0.2-0.1-0.3-0.2
		c-0.1-0.1-0.2-0.2-0.3-0.2c-0.2-0.1-0.4-0.3-0.6-0.5c-0.1-0.2-0.3-0.3-0.4-0.5c-4.6,3.5-9.3,7-13.9,10.5c-4.1,3.1-8.3,6.2-12.4,9.3
		c0,0,0,0,0,0v0c0.3,0.6,0.5,1.2,0.5,1.9c0,0.4-0.1,0.9-0.2,1.3c7.2,3.6,14.6,7.3,21.9,11c0.8-1.3,2.2-2.2,3.8-2.3
		C54.8,201.7,54.8,201.5,54.8,201.3L54.8,201.3z"/>
	<path fill="#031B25" d="M97,169.6c-0.2,0-0.4,0.1-0.6,0.1c-0.3,0-0.5,0-0.8-0.1c-0.1,0.1-0.2,0.3-0.2,0.5c-0.7,1.9-1.5,3.7-2.2,5.6
		c0,0.1-0.1,0.2-0.1,0.3c0,0,0,0.1,0,0.1c1,0.2,1.9,0.7,2.5,1.5c1.2-0.6,2.5-1.2,3.9-1.8C98.5,173.6,97.8,171.6,97,169.6L97,169.6z"
		/>
	<path fill="#031B25" d="M20.6,191.8c0.4,0,0.6-0.1,0.8-0.3c0.1-0.7,0.4-1.4,0.8-2c-0.1-0.5-0.5-0.8-0.9-1.3
		c-0.1-0.1-0.2-0.3-0.4-0.4c-6.1-7.6-12.2-15.3-18.3-22.9c-0.7,0.5-1.6,0.8-2.5,0.8c-0.1,0-0.3,0-0.4,0c-0.1,1.3-0.3,2.5-0.4,3.8v0
		c1.2,8.3,3.4,16.3,6.6,23.7c2-0.2,3.9-0.4,5.9-0.5C14.7,192.3,17.7,192,20.6,191.8L20.6,191.8z"/>
	<path fill="#031B25" d="M31.3,213.9c0.1,0,0.2-0.1,0.3-0.1c2.8-0.9,5.5-1.9,8.3-2.8c3.3-1.1,6.6-2.2,9.9-3.3c0.1,0,0.2-0.1,0.3-0.1
		c0-0.2,0-0.3,0-0.5c0-0.7,0.1-1.4,0.4-2c-7.3-3.7-14.7-7.4-21.9-11c-0.6,0.9-1.6,1.5-2.6,1.6c0,0.1,0,0.1,0,0.2
		c0.1,2,0.3,4,0.4,6.1s0.3,4,0.4,6.1c0.1,0.9,0.1,1.9,0.2,2.8C28.8,211,30.6,212.2,31.3,213.9L31.3,213.9z"/>
	<path fill="#031B25" d="M25.8,210.8c-0.1-2-0.3-4.1-0.4-6.1c-0.2-3-0.4-5.9-0.6-9c-1.6-0.2-2.9-1.4-3.3-3
		c-5.1,0.5-10.1,0.9-15.1,1.4c1.7,3.9,3.6,7.6,5.8,11.1c2.4,1.7,4.8,3.3,7.1,5c1.2,0.9,2.5,1.7,3.6,2.5c0.7-0.9,1.8-1.5,2.9-1.7
		C25.8,210.9,25.8,210.9,25.8,210.8L25.8,210.8L25.8,210.8z"/>
	<path fill="#031B25" d="M21.7,215.9c0-0.4,0.1-0.8,0.1-1.2c0.1-0.4,0.2-0.8,0.4-1.1c-2.4-1.7-4.9-3.4-7.4-5.2
		c-0.4-0.3-0.8-0.6-1.2-0.9v0c1.5,2.3,3.1,4.6,4.8,6.7c0.2,0.3,0.4,0.5,0.6,0.8c0.1,0.1,0.1,0.2,0.2,0.3c0.3,0.4,0.6,0.7,0.9,1
		c0.1,0.2,0.3,0.4,0.5,0.6c0.1,0,0.2-0.1,0.3-0.1c0.3-0.1,0.6-0.1,0.8-0.2C21.7,216.5,21.7,216.2,21.7,215.9L21.7,215.9z"/>
	<path fill="#031B25" d="M22,217.8c-0.2,0.1-0.4,0.1-0.6,0.2c1.4,1.6,2.8,3.1,4.3,4.6c0-0.6,0.1-1.1,0.1-1.7
		C24.1,220.5,22.7,219.4,22,217.8L22,217.8z"/>
	<path fill="#031B25" d="M186.9,145c-6.1-51.9-53.1-89-105-82.8c-7.1,0.8-14,2.5-20.5,4.7c6.5,4.6,13.1,9.2,19.6,13.8
		c0.7-0.5,1.6-0.7,2.5-0.7c2.6,0,4.7,2.1,4.7,4.7c0,0.9-0.3,1.8-0.8,2.6c-0.1,0.2-0.3,0.4-0.4,0.5c-0.1,0.2-0.3,0.3-0.5,0.5
		c-0.2,0.1-0.4,0.3-0.5,0.4c-0.1,0.1-0.2,0.2-0.4,0.2c-0.1,0-0.1,0.1-0.2,0.1v0c0,0,0,0,0,0.1c1.2,5.3,2.4,10.7,3.7,16
		c0.4,1.5,0.7,3.1,1.1,4.6h0.1c0.3,0,0.5,0,0.8,0.1c0.1,0,0.2,0.1,0.3,0.1c0.3,0.1,0.7,0.3,0.9,0.5c0.2,0.1,0.4,0.3,0.5,0.5
		c0.7,0.7,1.1,1.6,1.1,2.6c0,1.8-1.4,3.3-3.1,3.6c-0.1,2.2-0.2,4.4-0.3,6.6c-0.1,1.4-0.1,2.8,0,4.1c0.2,3.2,0.5,6.5,0.8,9.7
		c0,0.3,0.1,0.7,0.4,0.9c4.8,5.5,9.7,11,14.5,16.4c0.4,0.4,0.4,0.7,0.2,1.2c-0.8,1.6-1.7,3.2-2.4,4.9c-0.3,0.7-0.7,1.3-1.2,1.8
		c-0.2,0.2-0.4,0.4-0.7,0.5c-0.1,0.1-0.3,0.1-0.4,0.2c-0.7,0.3-1.3,0.8-2,1.2c0.2,0.5,0.4,1,0.4,1.6c0,1.4-0.8,2.6-2,3.2
		c0.9,2.3,1.8,4.7,2.6,7c-1.6,0.7-3.1,1.5-4.6,2.1c0.3,0.6,0.4,1.2,0.4,1.9c0,0.3,0,0.6-0.1,0.9c1.5,0.4,3,0.8,4.6,1.2h0
		c0,0.1,0,0.1-0.1,0.1c0,0,0,0.1,0,0.1c0,0,0,0.1,0,0.1c0,0,0,0.1,0,0.1c-0.5,1.1-1,2.2-1.5,3.4c-0.5,1.1-1,2.2-1.5,3.4
		c-0.1,0.2-0.1,0.4-0.1,0.5v0c0.1,0.1,0.2,0.1,0.3,0.2c0.2,0.2,0.4,0.4,0.5,0.6c0.1,0.2,0.3,0.4,0.4,0.7c0.1,0.4,0.2,0.8,0.2,1.2
		c0,0.3-0.1,0.7-0.1,1c-0.1,0.2-0.1,0.3-0.2,0.5s-0.2,0.3-0.3,0.4c-0.1,0.1-0.1,0.2-0.2,0.3c-0.3,0.4-0.7,0.6-1.1,0.8
		c0.6,2.2,1.2,4.5,1.8,6.8c0.1,0.4,0.1,0.6-0.3,0.9c-2.5,1.7-5,3.4-7.4,5c-0.1,0.1-0.1,0.1-0.2,0.2c0.1,0.2,0.1,0.5,0.1,0.8
		c0,1.1-0.6,2.1-1.4,2.7c-0.1,0.1-0.3,0.2-0.4,0.2c-0.2,0.1-0.4,0.2-0.7,0.2c-0.2,0.1-0.5,0.1-0.8,0.1c-0.7,0-1.3-0.2-1.9-0.6
		c-0.7-0.5-1.2-1.2-1.4-2c0,0,0,0,0,0c-1-0.1-2-0.2-2.9-0.3c-2.9-0.3-5.8-0.6-8.8-0.9s-5.8-0.6-8.8-0.9c-1.2-0.1-2.3-0.2-3.5-0.4
		c-0.1,0.6-0.3,1.2-0.6,1.8c-0.1,0.3-0.3,0.5-0.5,0.8c-0.1,0.1-0.2,0.2-0.3,0.4c-1,1-2.3,1.6-3.8,1.6c0.1,6.3,0.2,12.5,0.3,18.8
		c0,0.1,0,0.2,0.1,0.3c0.3,0.1,0.6,0.1,0.8,0.3c0.2,0.1,0.3,0.2,0.5,0.3c0.8,0.6,1.4,1.6,1.4,2.7c0,0.7-0.2,1.4-0.6,1.9
		c-0.1,0.1-0.2,0.3-0.3,0.4c-0.4,0.4-0.8,0.6-1.2,0.8c0.3,2,0.6,3.9,0.9,5.9c14.4,5.9,30.4,8.3,46.9,6.4
		C155.9,243.9,193,196.9,186.9,145L186.9,145z M180.1,171.3c0,3.3-1.2,6.1-3.5,8.5c-2.4,2.4-5.2,3.6-8.4,3.6H144v-54.1h24.1
		c3.3,0,6.1,1.2,8.4,3.6c2.4,2.4,3.5,5.2,3.5,8.5V171.3L180.1,171.3z"/>
	<path fill="#031B25" d="M52,235.9c-0.1-0.4-0.2-0.8-0.2-1.2c0-0.5,0.1-1,0.3-1.4v0c-7.1-4.7-14.4-9.4-21.6-14.1
		c-0.1,0.1-0.2,0.2-0.3,0.3c0,0.1-0.1,0.1-0.1,0.1c-0.1,0.1-0.3,0.3-0.5,0.4c-0.1,0.1-0.3,0.2-0.5,0.3c0,0-0.1,0-0.1,0.1
		c-0.2,0.1-0.3,0.2-0.5,0.2c-0.2,0.1-0.4,0.1-0.6,0.2c-0.2,0-0.3,0.1-0.5,0.1c-0.1,0-0.2,0-0.4,0c-0.1,0-0.1,0-0.2,0v0
		c-0.1,0.9-0.1,1.8-0.2,2.6c6.1,6,13,11.2,20.5,15.3c1.6-0.9,3.1-1.9,4.6-2.8C51.9,236,52,236,52,235.9L52,235.9z"/>
	<path fill="#031B25" d="M55.1,238c-0.9,0-1.8-0.4-2.4-1c-0.4,0-0.9,0.3-1.3,0.6c-0.1,0.1-0.3,0.2-0.4,0.2c-0.9,0.5-1.8,1.1-2.7,1.6
		c2.5,1.4,5.1,2.6,7.7,3.7C55.7,241.5,55.5,239.7,55.1,238L55.1,238L55.1,238z"/>
	<path fill="#031B25" d="M86.5,113.6c-1.6,0-3.2,0-4.8,0c-0.3,2.1-2.1,3.8-4.3,3.8c-0.1,0-0.2,0-0.3,0c-0.6,4.1-1.2,8.1-1.8,12
		c0.1,0,0.1,0,0.2,0.1c0.1,0,0.1,0.1,0.2,0.1c0.1,0.1,0.3,0.1,0.4,0.2h0c0.1,0.1,0.3,0.2,0.4,0.3c0,0,0.1,0.1,0.1,0.1
		c0.1,0.1,0.1,0.1,0.2,0.2c0.1,0.1,0.3,0.3,0.4,0.5c0,0,0,0,0,0c3.8-1.7,7.7-3.4,11.5-5.2c0.2-0.1,0.4-0.3,0.4-0.5
		c0-0.5,0.1-1.1,0.1-1.7c0-0.4,0-0.8,0.1-1.2c0-0.7,0.1-1.3,0.1-2c0-1.1,0-2.3,0-3.4C87.9,116.5,86.7,115.2,86.5,113.6L86.5,113.6z"
		/>
	<path fill="#031B25" d="M60.4,120c0.6,0.3,1,0.8,1.4,1.3c0.9-0.5,1.9-1.1,2.9-1.7c2.9-1.7,5.7-3.3,8.6-4.9c-0.2-0.5-0.3-1-0.3-1.6
		c0-2.4,2-4.4,4.4-4.4c0.1,0,0.1,0,0.2,0c0.5-2.3,1-4.7,1.5-7c0.9-4.2,1.8-8.4,2.6-12.6v0c-0.3-0.1-0.5-0.2-0.7-0.4
		C74.1,99.1,67.3,109.5,60.4,120L60.4,120z"/>
	<path fill="#031B25" d="M78.8,83.9c-0.1,0-0.1,0-0.2,0c-10.1-0.1-20.1-0.1-30.1-0.2c-0.8,0-1.6,0-2.4,0c-0.2,1.5-1.1,2.7-2.4,3.4
		c0,0,0,0,0,0.1c2.7,6.6,5.5,13.3,8.2,19.9c1.6,4,3.3,7.9,4.9,11.9c0.1,0.1,0.1,0.2,0.2,0.3c0.3,0,0.5-0.1,0.8-0.1
		c0.6,0,1.2,0.1,1.8,0.3c0.1-0.1,0.1-0.2,0.2-0.3c2.3-3.5,4.6-7,6.9-10.6c2.3-3.5,4.6-7,6.9-10.5c1.1-1.7,2.2-3.4,3.3-5
		s2.2-3.4,3.3-5.1c-0.9-0.8-1.5-2.1-1.5-3.4C78.8,84.4,78.8,84.2,78.8,83.9L78.8,83.9z"/>
	<path fill="#031B25" d="M83.4,89.3c-0.1,0-0.2,0-0.4,0c-0.1,0-0.2,0-0.4,0v0c-0.7,3.3-1.4,6.6-2.1,9.9c-0.7,3.2-1.4,6.5-2,9.7
		c0.3,0.1,0.6,0.2,0.9,0.4c0.2,0.1,0.4,0.2,0.5,0.3c0.9,0.7,1.5,1.8,1.7,3h4.8c0.2-1.3,1.2-2.4,2.4-2.8c-1.6-6.9-3.1-13.7-4.7-20.5
		C84,89.3,83.7,89.3,83.4,89.3L83.4,89.3z"/>
	<path fill="#031B25" d="M41.4,78.3c0-0.5,0.1-1,0.1-1.6c-1.1,0.7-2.2,1.4-3.2,2.2c0.1,0.1,0.2,0.3,0.4,0.4
		C39.4,78.7,40.4,78.3,41.4,78.3L41.4,78.3z"/>
	<path fill="#031B25" d="M37.4,85.2c-0.4-0.7-0.6-1.4-0.6-2.2c0-1.1,0.4-2.1,1-2.9c-0.2-0.2-0.3-0.3-0.5-0.5
		c-5.9,4.3-11.2,9.2-15.9,14.7c-0.5,0.6-1.1,1.3-1.6,1.9c-0.5,0.6-1,1.3-1.5,1.9c0,0,0,0,0,0c3.2-2.1,6.4-4.3,9.5-6.4
		C31.1,89.5,34.2,87.3,37.4,85.2L37.4,85.2z"/>
	<path fill="#031B25" d="M1.3,156.5C1.3,156.5,1.4,156.5,1.3,156.5c0.5,0.1,0.7,0,0.9-0.3c3.7-5.3,7.3-10.5,11-15.8
		c0.8-1.1,1.5-2.2,2.3-3.3c-1.3-1.2-2.1-2.9-2.1-4.8V132h0c-3.9-0.2-7.8-0.3-11.8-0.5c-0.2,0.6-0.3,1.1-0.4,1.7
		c-0.1,0.6-0.3,1.1-0.4,1.7c-0.1,0.6-0.3,1.2-0.4,1.7c-0.1,0.6-0.2,1.1-0.3,1.7c-0.1,0.5-0.2,0.9-0.2,1.4c-0.2,1-0.3,2.1-0.5,3.1
		c-0.1,0.6-0.2,1.2-0.2,1.8c0,0.3-0.1,0.7-0.1,1c0,0.3-0.1,0.7-0.1,1c-0.1,0.6-0.1,1.3-0.2,2c-0.1,1.3-0.2,2.7-0.2,4
		c0,1.1-0.1,2.2-0.1,3.3c0,0.2,0,0.5,0,0.8h0C-0.6,156.2,0.3,156.2,1.3,156.5L1.3,156.5z"/>
	<path fill="#031B25" d="M17.6,121c0.2,0.8,0.4,1.6,0.6,2.4s0.4,1.6,0.6,2.3c0.4-0.1,0.7-0.1,1.1-0.1c0.7,0,1.3,0.1,1.9,0.3
		c0.7-1.7,1.5-3.4,2.2-5.1c4.9-11,9.9-22.1,14.8-33.1c0.2-0.4,0.3-0.6,0.3-0.8c-0.4-0.2-0.8-0.5-1.1-0.9c-7,4.7-14.1,9.5-21.1,14.2
		c0.4,0.7,0.7,1.5,0.7,2.4c0,2.1-1.4,3.9-3.4,4.5c0,0,0,0.1,0,0.2C15.4,111.9,16.5,116.4,17.6,121L17.6,121z"/>
	<path fill="#031B25" d="M13.6,130.6c0-0.1,0.1-0.2,0.1-0.3c0-0.1,0.1-0.2,0.1-0.3c0.1-0.2,0.1-0.4,0.2-0.5c0.1-0.3,0.2-0.5,0.4-0.8
		c0.1-0.1,0.1-0.2,0.1-0.2c0.1-0.1,0.2-0.2,0.2-0.3c0.1-0.1,0.1-0.2,0.2-0.2c0.3-0.4,0.7-0.7,1.1-1c0.1-0.1,0.2-0.1,0.3-0.2
		c0,0,0.1,0,0.1-0.1c0.1-0.1,0.1-0.1,0.2-0.1c0.2-0.1,0.4-0.2,0.7-0.3c0.1-0.1,0.3-0.1,0.4-0.2v0h0c-0.3-1.2-0.6-2.4-0.9-3.6
		c-1.3-5.1-2.5-10.1-3.8-15.1h-0.2c-0.3,0-0.6,0-1-0.1c-0.1,0.2-0.3,0.5-0.4,0.7c-0.1,0.2-0.3,0.5-0.4,0.7c-0.1,0.1-0.1,0.2-0.2,0.3
		c-0.1,0.1-0.1,0.2-0.2,0.3c-0.2,0.3-0.4,0.7-0.6,1c-0.2,0.3-0.4,0.7-0.6,1c-0.1,0.2-0.2,0.5-0.4,0.7c-0.1,0.2-0.2,0.5-0.4,0.7
		c-0.1,0.2-0.2,0.5-0.4,0.7c-0.1,0.1-0.1,0.2-0.2,0.4c-0.1,0.1-0.1,0.2-0.2,0.3c-0.2,0.4-0.4,0.9-0.6,1.3c-0.2,0.3-0.3,0.6-0.4,0.9
		c-0.1,0.2-0.2,0.4-0.3,0.6c-0.1,0.2-0.2,0.5-0.3,0.7c-0.1,0.2-0.2,0.5-0.3,0.7c-0.2,0.4-0.4,0.9-0.6,1.4c-0.1,0.2-0.1,0.3-0.2,0.5
		c-0.1,0.2-0.1,0.3-0.2,0.5c-0.2,0.4-0.3,0.7-0.4,1.1c0,0.1-0.1,0.2-0.1,0.3c-0.1,0.3-0.3,0.7-0.4,1.1c-0.1,0.2-0.1,0.4-0.2,0.6
		c-0.2,0.4-0.3,0.8-0.4,1.2c-0.1,0.2-0.1,0.4-0.2,0.6c0,0.1-0.1,0.2-0.1,0.3c-0.1,0.3-0.2,0.7-0.3,1c-0.1,0.3-0.2,0.7-0.3,1
		c-0.1,0.2-0.1,0.4-0.2,0.7c-0.1,0.2-0.1,0.4-0.2,0.7c-0.1,0.2-0.1,0.4-0.2,0.6c-0.1,0.2-0.1,0.4-0.2,0.6c3.9,0.2,7.8,0.4,11.6,0.6
		C13.5,130.9,13.5,130.7,13.6,130.6L13.6,130.6z"/>
	<path fill="#031B25" d="M162.1,135.2h-6v42.1h6c1.7,0,3.1-0.6,4.3-1.8c1.2-1.2,1.8-2.6,1.8-4.3v-30c0-1.7-0.6-3.1-1.8-4.3
		C165.2,135.8,163.8,135.2,162.1,135.2L162.1,135.2z"/>
	<path fill="#031B25" d="M71.8,130.8c-0.2,0.3-0.3,0.6-0.4,1c0,0-0.1,0-0.1,0c-1.1-0.6-2.2-1.2-3.2-1.8c-2-1.1-4.1-2.2-6-3.3
		c0.2-0.3,0.3-0.6,0.4-1c0.9,0.5,1.8,1,2.6,1.4C67.4,128.4,69.6,129.6,71.8,130.8L71.8,130.8L71.8,130.8z"/>
	<path fill="#031B25" d="M17.8,126L17.8,126c-0.3-1.2-0.6-2.4-0.9-3.6C17.2,123.7,17.5,124.8,17.8,126z"/>
	<path fill="#031B25" d="M186.9,145c-6.1-51.9-53.1-89-105-82.8c-7.1,0.8-14,2.4-20.5,4.7c6.5,4.6,13.1,9.2,19.6,13.8
		c0.7-0.5,1.6-0.7,2.5-0.7c2.6,0,4.7,2.1,4.7,4.7c0,0.9-0.3,1.8-0.8,2.6c-0.1,0.2-0.3,0.4-0.4,0.5c-0.1,0.2-0.3,0.3-0.5,0.5
		c-0.2,0.2-0.4,0.3-0.5,0.4c-0.1,0.1-0.2,0.2-0.4,0.2c-0.1,0.1-0.1,0.1-0.2,0.1c0,0,0,0,0,0.1c1.2,5.3,2.4,10.7,3.7,16
		c0.4,1.5,0.7,3.1,1.1,4.6c0,0,0.1,0,0.1,0c0.3,0,0.5,0,0.8,0.1c0.1,0,0.2,0.1,0.3,0.1c0.3,0.1,0.7,0.3,0.9,0.5
		c0.2,0.1,0.4,0.3,0.5,0.5c0.7,0.7,1.1,1.6,1.1,2.6c0,1.8-1.4,3.3-3.1,3.6c-0.1,2.2-0.2,4.4-0.3,6.6c-0.1,1.4-0.1,2.8,0,4.1
		c0.2,3.2,0.5,6.5,0.8,9.7c0,0.3,0.1,0.7,0.4,0.9c4.8,5.5,9.7,11,14.5,16.4c0.4,0.4,0.4,0.7,0.2,1.2c-0.8,1.6-1.7,3.2-2.4,4.9
		c-0.3,0.7-0.7,1.3-1.2,1.8c-0.2,0.2-0.4,0.4-0.7,0.5c-0.1,0.1-0.3,0.1-0.4,0.2c-0.7,0.3-1.3,0.8-2,1.2c0.2,0.5,0.4,1,0.4,1.6
		c0,1.4-0.8,2.6-2,3.2c0.9,2.3,1.8,4.7,2.6,7c-1.6,0.7-3.1,1.5-4.6,2.1c0.3,0.6,0.4,1.2,0.4,1.9c0,0.3,0,0.6-0.1,0.9
		c1.5,0.4,3,0.8,4.6,1.2c0,0.1,0,0.1,0,0.1c0,0,0,0.1,0,0.1c0,0,0,0.1,0,0.1c0,0,0,0.1-0.1,0.1c-0.5,1.1-1,2.2-1.5,3.4
		c-0.5,1.1-1,2.2-1.5,3.4c-0.1,0.2-0.1,0.4-0.1,0.5c0.1,0.1,0.2,0.2,0.3,0.2c0.2,0.2,0.4,0.4,0.5,0.6c0.1,0.2,0.3,0.4,0.4,0.7
		c0.1,0.4,0.2,0.8,0.2,1.2c0,0.3-0.1,0.7-0.1,1c-0.1,0.2-0.1,0.3-0.2,0.5s-0.2,0.3-0.3,0.4c-0.1,0.1-0.1,0.2-0.2,0.3
		c-0.3,0.4-0.7,0.6-1.1,0.8c0.6,2.2,1.2,4.5,1.8,6.8c0.1,0.4,0.1,0.6-0.3,0.9c-2.5,1.7-5,3.4-7.4,5c-0.1,0.1-0.1,0.1-0.2,0.2
		c0.1,0.2,0.1,0.5,0.1,0.8c0,1.1-0.6,2.1-1.4,2.7c-0.1,0.1-0.3,0.2-0.4,0.2c-0.2,0.1-0.4,0.2-0.7,0.2c-0.2,0.1-0.5,0.1-0.8,0.1
		c-0.7,0-1.3-0.2-1.9-0.6c-0.7-0.5-1.2-1.2-1.4-2c0,0,0,0,0,0c-1-0.1-2-0.2-2.9-0.3c-2.9-0.3-5.8-0.6-8.8-0.9s-5.8-0.6-8.8-0.9
		c-1.2-0.1-2.3-0.2-3.5-0.4c-0.1,0.6-0.3,1.2-0.6,1.8c-0.1,0.3-0.3,0.5-0.5,0.8c-0.1,0.1-0.2,0.2-0.3,0.4c-1,1-2.3,1.6-3.8,1.6
		c0.1,6.3,0.2,12.5,0.3,18.8c0,0.1,0,0.2,0.1,0.3c0.3,0.1,0.6,0.1,0.8,0.3c0.2,0.1,0.3,0.2,0.5,0.3c0.8,0.6,1.4,1.6,1.4,2.7
		c0,0.7-0.2,1.4-0.6,1.9c-0.1,0.1-0.2,0.3-0.3,0.4c-0.4,0.4-0.8,0.6-1.2,0.8c0.3,2,0.6,3.9,0.9,5.9c14.4,5.9,30.4,8.3,46.9,6.4
		C155.9,243.9,193,196.9,186.9,145L186.9,145z M180.1,171.3c0,3.3-1.2,6.1-3.5,8.5c-2.4,2.4-5.2,3.6-8.4,3.6H144v-54.1h24.1
		c3.3,0,6.1,1.2,8.4,3.6c2.4,2.4,3.5,5.2,3.5,8.5V171.3L180.1,171.3z"/>
	<path fill="#031B25" d="M162.1,135.2h-6v42.1h6c1.7,0,3.1-0.6,4.3-1.8c1.2-1.2,1.8-2.6,1.8-4.3v-30c0-1.7-0.6-3.1-1.8-4.3
		C165.2,135.8,163.8,135.2,162.1,135.2L162.1,135.2z"/>
	<path fill="#031B25" d="M162.1,135.2h-6v42.1h6c1.7,0,3.1-0.6,4.3-1.8c1.2-1.2,1.8-2.6,1.8-4.3v-30c0-1.7-0.6-3.1-1.8-4.3
		C165.2,135.8,163.8,135.2,162.1,135.2L162.1,135.2z"/>
	<path fill="#031B25" d="M54.6,162.1c-0.5,0.8-0.9,1.7-1,2.7c-1.3-0.1-2.6-0.2-3.9-0.3c-3-0.3-6-0.5-9-0.8c-2.9-0.3-5.9-0.5-8.8-0.8
		c-2.9-0.3-5.9-0.5-8.8-0.8c-3.1-0.3-6.1-0.6-9.2-0.8c-2.9-0.3-5.8-0.5-8.7-0.8c-0.1,0-0.3,0-0.4,0c-0.2-1.3-0.9-2.5-2-3.2
		c4.5-6.5,9.1-13,13.6-19.5c1,0.7,2.2,1.1,3.6,1.1c1.9,0,3.6-0.8,4.8-2.1C34.7,145.2,44.7,153.6,54.6,162.1L54.6,162.1L54.6,162.1z"
		/>
	<path fill="#031B25" d="M54.5,169.3c-8.8,6.6-17.6,13.2-26.4,19.9c-0.7-0.7-1.7-1.1-2.7-1.1c-0.8,0-1.6,0.2-2.2,0.7
		c0,0-0.1-0.1-0.1-0.1c-2.3-2.8-4.6-5.7-6.9-8.6c-4.2-5.3-8.4-10.5-12.6-15.8c0.7-0.7,1.2-1.7,1.3-2.8c16.2,1.5,32.4,2.9,48.7,4.4
		C53.5,167.1,53.9,168.3,54.5,169.3L54.5,169.3L54.5,169.3z"/>
	<path fill="#031B25" d="M80.3,88.1c-1.1,1.7-2.2,3.4-3.3,5s-2.2,3.4-3.3,5c-2.3,3.5-4.6,7-6.9,10.6c-2.3,3.5-4.6,7-6.9,10.6
		c-0.1,0.1-0.1,0.2-0.2,0.3c-0.6-0.2-1.2-0.3-1.8-0.3c-0.3,0-0.5,0-0.8,0.1c-0.1-0.1-0.1-0.2-0.2-0.3c-1.6-4-3.3-7.9-4.9-11.9
		c-2.8-6.6-5.5-13.3-8.2-19.9c0,0,0,0,0-0.1c1.3-0.7,2.2-1.9,2.4-3.4c0.8,0,1.6,0,2.4,0c10,0.1,20.1,0.1,30.1,0.2c0.1,0,0.1,0,0.2,0
		c0,0.2-0.1,0.5-0.1,0.8C78.8,86.1,79.4,87.3,80.3,88.1L80.3,88.1z"/>
	<path fill="#031B25" d="M53,124.1c0,0.1,0,0.2,0,0.3c-9,1.9-18,3.7-27,5.6c-0.4-1-0.9-1.9-1.7-2.6c-0.3-0.3-0.6-0.5-1-0.8
		c-0.2-0.1-0.4-0.2-0.6-0.3v0c0.7-1.5,1.3-3,2-4.4c0.7-1.5,1.3-3,2-4.5c4.2-9.3,8.3-18.7,12.5-28c0.3-0.6,0.6-1.3,0.9-1.9
		c0,0,0,0,0,0c0.4,0.1,0.9,0.2,1.3,0.2c0.4,0,0.8-0.1,1.2-0.2c4.4,10.7,8.9,21.4,13.3,32.2C54.3,120.3,53,122.1,53,124.1L53,124.1z"
		/>
	<path fill="#031B25" d="M59.1,159.3c-1.5,0.2-2.8,1-3.8,2c-10-8.4-20-16.9-30-25.4c0.7-1,1.1-2.3,1.1-3.7c0-0.4,0-0.8-0.1-1.2
		c9-1.9,17.9-3.7,26.9-5.6c0.6,2,2.4,3.5,4.7,3.5c0.1,0,0.1,0,0.1,0c0.1,2.4,0.2,4.9,0.3,7.3c0.1,4,0.3,8.1,0.4,12.1
		C58.9,152,59,155.6,59.1,159.3"/>
	<path fill="#031B25" d="M88.5,182.8c-9.9,6.8-19.8,13.6-29.6,20.3c-0.8-0.7-1.9-1.2-3-1.3c1.2-9.7,2.5-19.5,3.7-29.4
		c0.2,0,0.4,0,0.6,0c2.5,0,4.7-1.4,5.8-3.4c7.4,3.2,14.7,6.4,22.1,9.6c-0.2,0.5-0.3,1.1-0.3,1.7C87.7,181.3,88,182.1,88.5,182.8
		L88.5,182.8L88.5,182.8z"/>
	<path fill="#031B25" d="M58.5,172.3c-0.2,1.3-0.3,2.8-0.5,4.3c-0.4,3.4-0.9,6.8-1.3,10.2c-0.4,3.4-0.9,6.8-1.3,10.3
		c-0.2,1.4-0.4,2.9-0.5,4.3c0,0.2-0.1,0.4-0.1,0.5h0c-1.6,0.2-2.9,1.1-3.8,2.3c-7.4-3.7-14.8-7.4-21.9-11c0.1-0.4,0.2-0.9,0.2-1.3
		c0-0.7-0.2-1.4-0.5-1.9c0,0,0,0,0,0c4.1-3.1,8.3-6.2,12.5-9.4c4.7-3.5,9.3-7,13.9-10.5C56,171.2,57.2,171.9,58.5,172.3L58.5,172.3
		L58.5,172.3z"/>
	<path fill="#031B25" d="M93.9,163.4c-0.5,0.5-0.9,1.2-1.1,1.9h-26c-0.2-2.4-1.6-4.4-3.7-5.5c3.5-8.1,7-16.1,10.5-24.1
		c0.3,0.1,0.6,0.1,0.9,0.1c0.4,0,0.7-0.1,1-0.2c0.1,0.1,0.2,0.2,0.2,0.3c1.9,2.8,3.8,5.7,5.7,8.6C85.6,150.9,89.7,157.1,93.9,163.4
		L93.9,163.4L93.9,163.4z"/>
	<path fill="#031B25" d="M94,195.7c-1.6,3.6-3.3,7.3-4.9,10.9c-0.4-0.2-0.9-0.3-1.3-0.3c-1.7,0-3.1,1.3-3.3,3
		c-1.5-0.2-3.1-0.3-4.6-0.5c-3.3-0.4-6.7-0.7-10-1.1c-3.1-0.3-6.2-0.7-9.3-1c-0.1-1-0.4-2-1-2.8c9.8-6.7,19.7-13.5,29.6-20.3
		c0.8,0.7,1.8,1.1,2.9,1.1c0.1,0,0.3,0,0.4,0c0,0,0,0.1,0.1,0.1c0.6,1.7,1.2,3.5,1.7,5.2c-1,0.6-1.8,1.7-1.8,2.9
		C92.5,194.1,93.1,195.1,94,195.7L94,195.7L94,195.7z"/>
	<path fill="#031B25" d="M39.2,87c0,0.2-0.1,0.4-0.3,0.8c-4.9,11-9.8,22.1-14.8,33.1c-0.8,1.7-1.5,3.4-2.2,5.1
		c-0.6-0.2-1.2-0.3-1.9-0.3c-0.4,0-0.7,0-1.1,0.1c-0.2-0.8-0.4-1.6-0.6-2.3c-0.2-0.8-0.4-1.6-0.6-2.4c-1.1-4.6-2.3-9.1-3.4-13.7
		c0,0,0-0.1,0-0.2c2-0.5,3.4-2.3,3.4-4.5c0-0.9-0.2-1.7-0.7-2.4c7-4.7,14.1-9.5,21.1-14.2C38.4,86.4,38.7,86.7,39.2,87L39.2,87z"/>
	<path fill="#031B25" d="M22.2,189.5c-0.4,0.6-0.7,1.2-0.8,2c-0.2,0.2-0.4,0.3-0.8,0.3c-2.9,0.2-5.8,0.5-8.8,0.8
		c-2,0.2-3.9,0.4-5.9,0.5c-3.2-7.4-5.4-15.4-6.6-23.7c0,0,0,0,0,0v0c0.1-1.3,0.3-2.5,0.4-3.8c0.1,0,0.3,0,0.4,0
		c0.9,0,1.8-0.3,2.5-0.8c6.1,7.6,12.2,15.3,18.3,22.9c0.1,0.1,0.2,0.3,0.4,0.4C21.7,188.7,22.1,189,22.2,189.5L22.2,189.5
		L22.2,189.5z"/>
	<path fill="#031B25" d="M54.6,231.5c-0.7,0.1-1.4,0.5-1.9,1c-7.2-4.7-14.5-9.4-21.6-14.1c0.4-0.7,0.6-1.5,0.6-2.4
		c0-0.3,0-0.7-0.1-1c6.1-2,12.4-4.1,18.7-6.3c0.6,1.8,2.1,3.2,4,3.6c0,2.2,0.1,4.3,0.1,6.5c0.1,4.1,0.2,8.3,0.2,12.4
		C54.6,231.3,54.6,231.4,54.6,231.5L54.6,231.5L54.6,231.5z"/>
	<path fill="#031B25" d="M50.1,207.1c0,0.2,0,0.3,0,0.5c-0.1,0.1-0.2,0.1-0.3,0.1c-3.3,1.1-6.6,2.2-9.9,3.3
		c-2.8,0.9-5.5,1.9-8.3,2.8c-0.1,0-0.2,0.1-0.3,0.1c-0.8-1.7-2.5-3-4.5-3c-0.1-0.9-0.1-1.9-0.2-2.8c-0.3-4-0.5-8.1-0.8-12.1
		c0-0.1,0-0.2,0-0.2c1.1-0.2,2-0.8,2.6-1.6c7.2,3.6,14.6,7.3,21.9,11C50.2,205.7,50.1,206.4,50.1,207.1L50.1,207.1L50.1,207.1z"/>
	<path fill="#031B25" d="M15.5,137c-0.8,1.1-1.5,2.2-2.3,3.3c-3.7,5.3-7.3,10.5-11,15.8c-0.2,0.3-0.4,0.5-0.8,0.4c0,0-0.1,0-0.1,0
		c-1-0.3-1.9-0.2-2.9,0.2v-0.8c0-1.1,0-2.2,0.1-3.3c0-1.3,0.1-2.7,0.2-4c0.1-0.7,0.1-1.3,0.2-2c0-0.3,0.1-0.7,0.1-1
		c0-0.3,0.1-0.7,0.1-1c0.1-0.6,0.1-1.2,0.2-1.8c0.1-1,0.3-2.1,0.5-3.1c0.1-0.5,0.2-0.9,0.2-1.4c0.1-0.6,0.2-1.2,0.3-1.7
		c0.1-0.6,0.2-1.2,0.4-1.7c0.1-0.6,0.3-1.1,0.4-1.7c0.1-0.6,0.3-1.1,0.4-1.7c3.9,0.2,7.8,0.4,11.8,0.5h0v0.2
		C13.4,134.1,14.2,135.8,15.5,137L15.5,137z"/>
	<path fill="#031B25" d="M72.6,135.3c0,0.1,0,0.1,0,0.2c-2.4,5.6-4.9,11.2-7.3,16.7c-1.1,2.4-2.1,4.8-3.1,7.2
		c-0.6-0.2-1.3-0.3-1.9-0.3c0-0.2,0-0.4,0-0.6c-0.2-5.2-0.4-10.5-0.6-15.7c-0.2-4.7-0.3-9.4-0.5-14c1.2-0.3,2.3-1.1,2.9-2.2
		c1.9,1.1,3.9,2.2,6,3.3c1.1,0.6,2.2,1.2,3.2,1.8c0,0,0.1,0,0.1,0c-0.1,0.3-0.1,0.6-0.1,0.9C71.2,133.7,71.7,134.7,72.6,135.3
		L72.6,135.3L72.6,135.3z"/>
	<path fill="#031B25" d="M25.8,211c-1.2,0.2-2.2,0.9-2.9,1.7c-1.1-0.8-2.3-1.6-3.6-2.5c-2.4-1.7-4.8-3.3-7.1-5v0
		C10,201.7,8,198,6.3,194.1c5.1-0.5,10.1-0.9,15.1-1.4c0.4,1.6,1.7,2.8,3.3,3v0c0.2,3,0.4,6,0.6,9c0.1,2,0.3,4.1,0.4,6.1
		C25.8,210.9,25.8,210.9,25.8,211L25.8,211L25.8,211z"/>
	<path fill="#031B25" d="M17.8,126c-2.2,0.8-3.9,2.7-4.3,5c-3.8-0.2-7.7-0.4-11.6-0.6c0.1-0.2,0.1-0.4,0.2-0.6
		c0.1-0.2,0.1-0.4,0.2-0.6c0.1-0.2,0.1-0.5,0.2-0.7c0.1-0.2,0.1-0.5,0.2-0.7c0.1-0.3,0.2-0.7,0.3-1c0.1-0.3,0.2-0.7,0.3-1
		c0-0.1,0.1-0.2,0.1-0.3c0.1-0.2,0.1-0.4,0.2-0.6c0.1-0.4,0.3-0.8,0.4-1.2c0.1-0.2,0.1-0.4,0.2-0.6c0.1-0.4,0.3-0.7,0.4-1.1
		c0-0.1,0.1-0.2,0.1-0.3c0.1-0.4,0.3-0.7,0.4-1.1c0.1-0.2,0.1-0.3,0.2-0.5c0.1-0.2,0.1-0.3,0.2-0.5c0.2-0.5,0.4-0.9,0.6-1.4
		c0.1-0.2,0.2-0.5,0.3-0.7c0.1-0.2,0.2-0.5,0.3-0.7c0.1-0.2,0.2-0.4,0.3-0.6c0.1-0.3,0.3-0.6,0.4-0.9c0.2-0.4,0.4-0.9,0.6-1.3
		c0.1-0.2,0.2-0.5,0.4-0.7c0.1-0.2,0.2-0.5,0.4-0.7c0.1-0.2,0.2-0.5,0.4-0.7c0.1-0.2,0.2-0.5,0.4-0.7c0.2-0.3,0.4-0.7,0.6-1
		c0.2-0.3,0.4-0.7,0.6-1c0.1-0.1,0.1-0.2,0.2-0.3c0.1-0.1,0.1-0.2,0.2-0.3c0.1-0.2,0.3-0.5,0.4-0.7c0.1-0.2,0.3-0.5,0.4-0.7
		c0.3,0.1,0.6,0.1,1,0.1c0.1,0,0.1,0,0.2,0C14.7,113.6,16.2,119.8,17.8,126"/>
	<path fill="#031B25" d="M52.1,233.3c-0.2,0.4-0.3,0.9-0.3,1.4c0,0.4,0.1,0.8,0.2,1.2c-0.1,0.1-0.1,0.2-0.2,0.2
		c-1.5,0.9-3.1,1.9-4.6,2.8c-7.5-4.2-14.4-9.3-20.5-15.3c0-0.9,0.1-1.7,0.2-2.6c1.5,0,2.8-0.7,3.6-1.7
		C37.7,223.9,45,228.6,52.1,233.3L52.1,233.3L52.1,233.3z"/>
	<path fill="#031B25" d="M81.7,89L81.7,89c-0.9,4.2-1.8,8.4-2.6,12.6c-0.5,2.3-1,4.7-1.5,7c-0.1,0-0.1,0-0.2,0c-2.4,0-4.4,2-4.4,4.4
		c0,0.6,0.1,1.1,0.3,1.6c-2.9,1.7-5.7,3.3-8.6,4.9c-1,0.6-2,1.1-2.9,1.7c-0.4-0.5-0.9-1-1.4-1.3c6.9-10.5,13.7-20.9,20.6-31.3
		C81.2,88.8,81.4,88.9,81.7,89L81.7,89z"/>
	<path fill="#031B25" d="M94.6,169.2c-0.8,2.1-1.8,4.4-2.7,6.7c0,0,0,0,0,0h0c-1.3,0.1-2.4,0.7-3.2,1.7c-0.2,0-0.3,0-0.5-0.1
		c-3.6-1.6-7.3-3.1-10.9-4.7c-3.6-1.6-7.3-3.1-10.9-4.7c0.2-0.5,0.3-1.1,0.4-1.7c8.5,0,17.1,0,25.6,0c0.2,0,0.3,0,0.4,0
		C92.9,167.6,93.6,168.6,94.6,169.2L94.6,169.2L94.6,169.2z"/>
	<path fill="#031B25" d="M89.5,120.3c0,0.7,0,1.3-0.1,2c0,0.4-0.1,0.8-0.1,1.2c0,0.5-0.1,1.1-0.1,1.7c0,0.2-0.2,0.4-0.4,0.5
		c-3.8,1.7-7.7,3.5-11.5,5.2c0,0,0,0,0,0h0c-0.1-0.2-0.2-0.3-0.4-0.5c-0.1-0.1-0.1-0.1-0.2-0.2c0,0-0.1-0.1-0.1-0.1
		c-0.1-0.1-0.2-0.2-0.4-0.3h0c-0.1-0.1-0.3-0.1-0.4-0.2c-0.1,0-0.1-0.1-0.2-0.1c-0.1,0-0.1-0.1-0.2-0.1c0.6-3.9,1.2-7.9,1.8-12
		c0.1,0,0.2,0,0.3,0c2.2,0,4-1.7,4.3-3.8c1.6,0,3.2,0,4.8,0c0.2,1.6,1.4,2.9,2.9,3.2C89.5,118,89.5,119.1,89.5,120.3L89.5,120.3z"/>
	<path fill="#031B25" d="M95,162.7c-0.1,0-0.2,0.1-0.3,0.1c-6.1-9.2-12.1-18.3-18.2-27.5c0.3-0.2,0.6-0.5,0.8-0.8
		c0.2,0,0.4,0.1,0.8,0.2c3.9,1.3,7.8,2.5,11.6,3.7c0.4,0.1,0.6,0.3,0.7,0.7c0.9,5,1.9,10,2.9,15C93.9,156.9,94.4,159.8,95,162.7
		L95,162.7L95,162.7z"/>
	<path fill="#031B25" d="M89,109.8c-1.2,0.4-2.2,1.5-2.4,2.8v0h-4.8v0c-0.1-1.2-0.8-2.3-1.7-3c-0.2-0.1-0.3-0.2-0.5-0.3
		c-0.3-0.2-0.6-0.3-0.9-0.4c0.7-3.2,1.3-6.5,2-9.7c0.7-3.3,1.4-6.6,2.1-9.9v0c0.1,0,0.2,0,0.4,0c0.1,0,0.2,0,0.4,0
		c0.3,0,0.6,0,0.9-0.1C85.9,96.1,87.4,102.9,89,109.8L89,109.8z"/>
	<path fill="#031B25" d="M62.3,122.2c3.8-2.2,7.7-4.4,11.5-6.6c0.5,0.8,1.3,1.3,2.2,1.6c-0.1,0.9-0.3,2-0.4,3c-0.4,3-0.9,6-1.3,8.9
		c0,0,0,0.1,0,0.1c-0.1,0-0.2,0-0.4,0.1c-0.1,0-0.1,0-0.1,0c-0.1,0-0.1,0-0.2,0c-0.1,0-0.1,0-0.2,0.1c-0.1,0-0.2,0.1-0.3,0.1
		c-0.1,0.1-0.2,0.1-0.3,0.2c-0.1,0.1-0.2,0.1-0.3,0.2c-0.1,0.1-0.2,0.2-0.3,0.2c-0.2,0.2-0.4,0.4-0.5,0.6c-0.3-0.1-0.5-0.3-0.8-0.4
		c-1.9-1-3.9-2.1-5.9-3.2c-0.9-0.5-1.7-1-2.6-1.4c0.2-0.5,0.2-1,0.2-1.6C62.7,123.4,62.6,122.8,62.3,122.2"/>
	<path fill="#031B25" d="M105.2,155.3c-0.9,1-1.7,1.9-2.6,2.8c-1.5,1.6-2.9,3.2-4.4,4.7c0,0,0,0-0.1,0.1c-0.5-0.3-1.2-0.5-1.8-0.5
		c-0.1,0-0.2,0-0.3,0c-0.1-0.2-0.2-0.5-0.2-0.8c-1-5.2-2-10.5-3-15.7c-0.3-1.8-0.7-3.6-1.1-5.4c0-0.1,0-0.2-0.1-0.5
		C96.3,145.2,100.7,150.2,105.2,155.3L105.2,155.3L105.2,155.3z"/>
	<path fill="#031B25" d="M36.9,83c0,0.8,0.2,1.6,0.6,2.2c-3.2,2.1-6.4,4.3-9.6,6.4c-3.2,2.1-6.4,4.3-9.5,6.4c0,0,0,0,0,0
		c0.5-0.7,1-1.3,1.6-1.9c0.5-0.7,1.1-1.3,1.6-1.9c4.7-5.5,10.1-10.4,15.9-14.7c0.2,0.2,0.3,0.3,0.5,0.5C37.3,80.8,36.9,81.9,36.9,83
		L36.9,83z"/>
	<path fill="#031B25" d="M97.9,202.9c-2.5,1.7-4.9,3.3-7.3,5c-0.2-0.3-0.3-0.5-0.6-0.7c0,0,0,0,0,0c1.7-3.7,3.3-7.4,5-11
		c0.3,0.1,0.5,0.1,0.8,0.1c0.1,0,0.2,0,0.3,0C96.7,198.4,97.3,200.6,97.9,202.9L97.9,202.9L97.9,202.9z"/>
	<path fill="#031B25" d="M56,243.2c-2.6-1.1-5.2-2.4-7.7-3.7c0.9-0.5,1.8-1.1,2.7-1.6c0.1-0.1,0.3-0.2,0.4-0.3
		c0.4-0.3,0.9-0.6,1.3-0.6c0.6,0.6,1.5,1,2.4,1c0,0,0.1,0,0.1,0C55.5,239.7,55.7,241.5,56,243.2L56,243.2L56,243.2z"/>
	<path fill="#031B25" d="M22.2,213.6c-0.4,0.7-0.6,1.5-0.6,2.3c0,0.3,0,0.6,0.1,0.9c-0.3,0.1-0.7,0.2-1.1,0.3c-2.5-3-4.9-6.2-7-9.5
		C16.5,209.6,19.4,211.6,22.2,213.6L22.2,213.6L22.2,213.6z"/>
	<path fill="#031B25" d="M99.3,175.7c-1.3,0.6-2.6,1.2-3.8,1.8c-0.6-0.7-1.5-1.3-2.5-1.5c0-0.1,0.1-0.3,0.1-0.4
		c0.7-1.9,1.5-3.7,2.2-5.6c0.1-0.2,0.2-0.4,0.2-0.5c0.3,0.1,0.5,0.1,0.8,0.1c0.2,0,0.4,0,0.6-0.1C97.8,171.6,98.5,173.7,99.3,175.7
		L99.3,175.7L99.3,175.7z"/>
	<path fill="#031B25" d="M99.5,183.2c-1,2.2-1.9,4.3-2.9,6.5c0,0,0,0,0,0c-0.3-0.1-0.5-0.1-0.8-0.1c-0.2,0-0.4,0-0.5,0
		c-0.2-0.8-0.5-1.6-0.8-2.4c-0.3-0.9-0.5-1.8-0.9-2.6c0-0.1,0-0.2-0.1-0.2c1.1-0.4,1.9-1.2,2.4-2.2
		C97.2,182.6,98.3,182.9,99.5,183.2L99.5,183.2L99.5,183.2z"/>
	<path fill="#031B25" d="M25.8,220.9c0,0.6-0.1,1.1-0.1,1.7c-1.5-1.5-2.9-3-4.3-4.6c0.2-0.1,0.4-0.1,0.6-0.2
		C22.7,219.4,24.1,220.5,25.8,220.9L25.8,220.9L25.8,220.9z"/>
	<path fill="#031B25" d="M83.1,89.3c-0.1,0-0.2,0-0.4,0v0C82.8,89.3,83,89.3,83.1,89.3z"/>
	<path fill="#031B25" d="M103.7,158.6c-0.5,0.9-0.9,1.9-1.4,2.8c-0.1,0.1-0.1,0.2-0.2,0.3c-0.9,0.5-1.8,1.1-2.7,1.6l-0.1-0.1
		C100.7,161.7,102.2,160.1,103.7,158.6C103.7,158.6,103.7,158.6,103.7,158.6L103.7,158.6L103.7,158.6z"/>
	<path fill="#910048" d="M310.3,145.2c-6.1-52-53.2-89.1-105.2-83c-52,6.1-89.1,53.2-83,105.2c6.1,52,53.2,89.1,105.2,83
		C279.2,244.3,316.4,197.2,310.3,145.2z M180.1,171.3c0,3.3-1.2,6.1-3.5,8.5c-2.4,2.4-5.2,3.6-8.4,3.6H144v-54.1h24.1
		c3.3,0,6.1,1.2,8.4,3.6c2.4,2.4,3.5,5.2,3.5,8.5V171.3L180.1,171.3z M205.9,145.6l12.8,14.3c2.4,2.6,3.5,5.5,3.5,8.5v3
		c0,3.3-1.2,6.1-3.5,8.5c-2.4,2.4-5.2,3.6-8.5,3.6h-6c-4,0-7-1-9-3s-3-5-3-9.1h6.1v1c0,1.6,0.6,2.9,1.9,3.8c1.2,0.9,2.6,1.3,4.1,1.3
		c2.1,0,3.6-0.5,4.6-1.6c0.9-1,1.4-2.5,1.4-4.5c0-1.5-0.6-3-1.7-4.3l-12.8-14.3c-2.4-2.6-3.5-5.4-3.5-8.5v-3c0-3.3,1.2-6.1,3.5-8.5
		c2.4-2.4,5.2-3.6,8.5-3.6h6c7.6,0,11.6,4,12,12h-6c-0.5-4-2.4-6.1-5.7-6.1c-2.1,0-3.7,0.5-4.8,1.5c-1.1,1-1.6,2.5-1.6,4.5
		C204.2,142.8,204.8,144.2,205.9,145.6L205.9,145.6z M264.3,135.2h-12v48.1h-12v-48.1h-12v-6h36.1L264.3,135.2L264.3,135.2z
		 M288.3,183.4h-12v-54.1h12V183.4z"/>
	<path fill="#910048" d="M162.1,135.2h-6v42.1h6c1.7,0,3.1-0.6,4.3-1.8c1.2-1.2,1.8-2.6,1.8-4.3v-30c0-1.7-0.6-3.1-1.8-4.3
		C165.2,135.8,163.8,135.2,162.1,135.2L162.1,135.2z"/>
	<path fill="#910048" d="M162.1,135.2h-6v42.1h6c1.7,0,3.1-0.6,4.3-1.8c1.2-1.2,1.8-2.6,1.8-4.3v-30c0-1.7-0.6-3.1-1.8-4.3
		C165.2,135.8,163.8,135.2,162.1,135.2L162.1,135.2z"/>
</g>
</svg>
