<?xml version="1.0" encoding="UTF-8" standalone="yes"?><svg xmlns="http://www.w3.org/2000/svg" width="300" height="300" viewBox="0 0 300 300" fill="none" version="1.2" baseProfile="tiny-ps"><title>bimi-svg-tiny-12-ps</title><rect width="300" height="300" fill="white"></rect><path d="M152.212 268.72L226.529 172.097C233.19 163.427 231.556 151.007 222.865 144.346L221.152 143.033C211.097 135.344 196.697 137.226 188.974 147.257L142.585 207.57C128.201 226.271 131.738 253.057 150.483 267.407L152.212 268.72Z" fill="#4F61DA"></path><path d="M232.428 149.408C232.175 124.869 212.144 105.044 187.483 105.044H163.837C156.002 105.044 149.643 111.389 149.643 119.205V149.883H217.076L217.092 149.899C217.235 149.899 217.394 149.883 217.536 149.883C224.467 149.883 230.065 155.484 230.065 162.382C230.065 163.806 229.827 165.183 229.383 166.464C229.383 166.464 231.365 161.654 231.968 157.414C232.349 154.74 232.428 151.133 232.444 149.867C232.444 149.82 232.444 149.772 232.444 149.725C232.428 149.519 232.428 149.408 232.428 149.408Z" fill="#5A8FFF"></path><path d="M147.229 31L72.9121 127.623C66.2512 136.293 67.8847 148.713 76.5756 155.374L78.2884 156.687C88.3432 164.377 102.744 162.494 110.467 152.463L156.856 92.1508C171.24 73.4496 167.703 46.6635 148.957 32.3132L147.229 31Z" fill="#4F61DA"></path><path d="M67.0159 150.313C67.2696 174.853 87.2999 194.677 111.961 194.677H135.607C143.442 194.677 149.801 188.333 149.801 180.516V149.839H82.3677L82.3518 149.823C82.2091 149.823 82.0504 149.839 81.9077 149.839C74.9772 149.839 69.3789 144.238 69.3789 137.339C69.3789 135.915 69.6168 134.539 70.0608 133.257C70.0608 133.257 68.0785 138.067 67.4758 142.307C67.0952 144.981 67.0159 148.588 67 149.854C67 149.902 67 149.949 67 149.997C67.0159 150.186 67.0159 150.313 67.0159 150.313Z" fill="#5A8FFF"></path></svg>