<?xml version="1.0" encoding="utf-8"?>
<svg xmlns="http://www.w3.org/2000/svg" xmlns:xlink="http://www.w3.org/1999/xlink" version="1.2" baseProfile="tiny-ps" id="Layer_1" viewBox="0 0 1080 1080" xml:space="preserve">
	<title>Strawberry</title>
	<g>
		<rect x="0.5" y="0.5" fill="#FC5E58" width="1080" height="1077"/>
		<path d="M1080,1v1076H1V1H1080 M1081,0H0v1078h1081V0L1081,0z"/>
		<path fill="#FFFFFF" d="M627.43,604.91c39.1,0,70.8-31.69,70.8-70.79c0-39.1-31.7-70.8-70.8-70.8c-39.1,0-70.79,31.69-70.79,70.8     C556.63,573.22,588.33,604.91,627.43,604.91z"/>
		<ellipse transform="matrix(0.3827 -0.9239 0.9239 0.3827 195.0092 767.4168)" fill="#FFFFFF" cx="671.76" cy="237.78" rx="35.39" ry="35.39"/>
		<path fill="#FFFFFF" d="M541,182.99c-33.92,0-61.41,27.5-61.41,61.41c0,33.92,27.5,61.41,61.41,61.41     c33.92,0,61.41-27.5,61.41-61.41C602.42,210.49,574.92,182.99,541,182.99z"/>
		<path fill="#FFFFFF" d="M431.69,816.49c46.7,0,84.56-37.86,84.56-84.56c0-46.7-37.86-84.56-84.56-84.56     c-46.7,0-84.56,37.86-84.56,84.56C347.13,778.63,384.99,816.49,431.69,816.49z"/>
		<circle fill="#FFFFFF" cx="646.09" cy="355.63" r="56.43"/>
		<circle fill="#FFFFFF" cx="410.24" cy="237.78" r="35.39"/>
		<path fill="#FFFFFF" d="M849.78,403.58c-29.67,0-53.72,24.05-53.72,53.72s24.05,53.72,53.72,53.72     c29.67,0,53.72-24.05,53.72-53.72S879.45,403.58,849.78,403.58z"/>
		<circle fill="#FFFFFF" cx="232.22" cy="457.3" r="53.72"/>
		<path fill="#FFFFFF" d="M285.94,235.03c-39.1,0-70.8,31.69-70.8,70.79c0,39.1,31.7,70.79,70.8,70.79     c39.09,0,70.79-31.69,70.79-70.79C356.73,266.72,325.03,235.03,285.94,235.03z"/>
		<circle fill="#FFFFFF" cx="353.16" cy="444.1" r="35.39"/>
		<circle fill="#FFFFFF" cx="435.92" cy="355.63" r="56.43"/>
		<path fill="#FFFFFF" d="M509.7,634.71c0,17.29,14.01,31.3,31.3,31.3c17.28,0,31.29-14.01,31.29-31.3     c0-17.28-14.01-31.29-31.29-31.29C523.72,603.42,509.7,617.43,509.7,634.71z"/>
		<path fill="#FFFFFF" d="M454.57,463.32c-39.1,0-70.8,31.69-70.8,70.8c0,39.1,31.69,70.79,70.8,70.79     c39.1,0,70.8-31.69,70.8-70.79C525.37,495.01,493.67,463.32,454.57,463.32z"/>
		<circle fill="#FFFFFF" cx="728.84" cy="444.1" r="35.39"/>
		<path fill="#FFFFFF" d="M303.88,529.95c-34.86,0-63.21,28.35-63.21,63.2c0,34.85,28.35,63.2,63.21,63.2     c34.87,0,63.21-28.35,63.21-63.2C367.09,558.3,338.74,529.95,303.88,529.95z"/>
		<path fill="#FFFFFF" d="M541,388.67c-19.54,0-35.39,15.85-35.39,35.39c0,19.54,15.85,35.39,35.39,35.39     c19.55,0,35.39-15.85,35.39-35.39C576.39,404.52,560.55,388.67,541,388.67z"/>
		<path fill="#FFFFFF" d="M541,907.01c26.16,0,47.36-21.21,47.36-47.36c0-26.16-21.21-47.36-47.36-47.36s-47.36,21.21-47.36,47.36     C493.63,885.8,514.84,907.01,541,907.01z"/>
		<path fill="#FFFFFF" d="M841.34,593.15c0-34.85-28.35-63.2-63.21-63.2c-34.86,0-63.21,28.35-63.21,63.2     c0,34.85,28.35,63.2,63.21,63.2C812.99,656.35,841.34,628,841.34,593.15z"/>
		<path fill="#FFFFFF" d="M866.86,305.82c0-39.1-31.7-70.79-70.8-70.79c-39.1,0-70.8,31.69-70.8,70.79     c0,39.1,31.7,70.79,70.8,70.79C835.17,376.62,866.86,344.92,866.86,305.82z"/>
		<ellipse transform="matrix(0.7071 -0.7071 0.7071 0.7071 -327.0828 674.2203)" fill="#FFFFFF" cx="650.31" cy="731.93" rx="84.56" ry="84.56"/>
	</g>
</svg>
