<?xml version="1.0"?><svg version="1.2" baseProfile="tiny-ps" viewBox="0 0 300 300" xmlns="http://www.w3.org/2000/svg" xmlns:xlink="http://www.w3.org/1999/xlink"><title>QUBIX</title><g><g fill="#fefefe" transform="matrix(.1 0 0 -.1 0 300)"><path d="M0 1500V0h3000v3000H0V1500z"/></g><g fill="#f9e0df" transform="matrix(.1 0 0 -.1 0 300)"><path d="M175 2198c-3-7-4-267-3-578l3-565 1309-3 1309-2 14 11 13 12-2 566-3 566-1318 3-1318 2-4-12zm2523-565-3-468H285l-3 468-2 467h2420l-2-467zM702 1852l-42-17-35-34c-46-43-65-80-72-141l-6-50 18-46c10-25 30-61 46-79l29-32 47-21 48-20 153-1 152-1v10c0 5-12 30-26 56l-26 46 7 34 6 35 8-6c5-2 11-18 14-34l6-29 33-38 33-37 40-18 40-19h90l40 19 41 18 27 32c14 18 31 49 37 69l11 37-3 130-3 130h-140l-3-125-2-125-21-17c-27-23-44-23-69 2l-20 20v251l-72-3-73-3-3-79-3-78-25 50-25 50-36 27c-38 30-110 55-152 54-14 0-45-8-69-17zm113-137 35-14 10-27 11-27-6-29-7-28-25-20-26-20h-54l-26 20-25 20-7 28-6 29 11 27 10 27 32 14c41 18 33 18 73 0zm620 123c-3-7-4-106-3-218l3-205 135-3 135-3 35 10 36 11 26 27 26 28 10 35 10 35 1-72 1-73h150v440h-150v-134l-22 44-23 44-28 20-28 21-155 3-154 3-5-13zm250-138v-15l-52-3-53-3v42l53-3 52-3v-15zm163-92-4-33-11 27-12 26 12 32 12 33 3-27c2-14 2-40 0-58zm-169-27 14-9-6-16-6-16h-101v50h43c23 0 48-4 56-9zm337 261c-3-4 24-54 59-110l64-102-64-102c-35-56-62-106-59-110l5-8h174l18 32 18 32 25-32 25-32h169v11c0 6-27 56-60 110l-61 100 61 98c33 54 60 103 60 109v12h-169l-24-31-24-31-22 31-22 31h-168l-5-8zM267 954c-4-4-7-13-7-21v-13h39l3-55 3-55h20l3 55 3 55h40l-3 17-3 18-45 3c-25 2-49 0-53-4zm216-1-13-5V812l28-4c15-2 35-2 45 0l18 4-4 11-4 12-27 3-27 3 4 12c2 7 13 13 25 15l22 3v29h-50v20h49l7 11 7 11-14 9c-15 9-46 11-66 2zm212-5c-28-16-35-28-35-65 0-45 9-63 37-74l24-9 25 6 24 6v36l-32-2-33-1v70l33-3 32-2v29l-19 11c-24 12-31 12-56-2zm655-6-23-18v-88l23-18c12-10 31-18 42-18h19l24 25 25 24v62l-25 24-24 25h-19c-11 0-30-8-42-18zm65-62v-35l-22-3-21-3-7 20-6 21 6 21 7 20 21-3 22-3v-35zm360 68c-29-16-35-28-35-70v-38l20-20 20-20h48l22 18 22 18 2 43 1 43-24 19c-26 22-47 23-76 7zm55-43 12-15-6-26-7-25-22 3-22 3-3 23c-7 48 21 69 48 37zm184 45-22-9-12-35-11-35 13-27 13-28 28-9 29-9 24 11 24 11v70l-26 6-25 7-12-12-12-12 19-15 20-14-8-7-7-7-17 10c-9 6-18 19-20 28l-4 17 13 15 13 16 28-6 27-5 7 11 7 11-18 14c-21 15-40 16-71 3zm369 2-23-3V810l10-1c6 0 25-1 43-2l32-1v29l-22 3-23 3v29h40v30h-40v20h50v28l-22 4c-13 2-33 2-45 0zm195 1-18-4-6-26-7-26 34-28 34-28-32-1h-33v-30l25-6 25-6 25 16 25 16v32l-32 31-33 30 22-5 23-6 7 10 6 11-18 14c-11 7-21 12-24 12-3-1-14-3-23-6zM872 878l3-73h30l5 30 5 30h30l5-30 5-30h30l3 73 3 72h-41v-50h-40v50h-41l3-72zm230 0 3-73h30l6 35c4 19 7 30 8 24 0-6 10-23 21-37l21-26 14 6 15 5v138h-40l-1-32v-33l-16 33-17 32h-47l3-72zm462 58c-3-7-4-38-2-67l3-54 44-3 43-3-4 13-5 13-21 3-22 3v109h-15c-9 0-18-6-21-14zm648-58 3-73h20l3 73 3 72h-32l3-72z"/></g><g fill="#e9b7b8" transform="matrix(.1 0 0 -.1 0 300)"><path d="m187 2203-7-6V1060h2628l6 16c3 9 6 259 6 555v540l-10 20-11 19H193l-6-7zm2523-573v-470H280v940h2430v-470zM705 1849c-16-4-46-22-67-39l-36-30-21-43-21-43v-115l16-32c35-69 101-118 175-130l37-5 38 8 39 9 9-9 10-10h146v10c0 6-12 34-26 62l-26 51 11 24 11 24v120l-20 38-19 39-38 31-38 31-35 10c-42 12-104 11-145-1zm134-145 31-26v-79l-25-24-24-25h-82l-24 25-25 24v79l31 26 31 26h56l31-26zm601-69v-215h303l32 20 33 20 16 40c20 49 20 67 2 102l-15 28 16 30 15 31-6 35-7 34-30 35-31 35-36 10-37 10h-255v-215zm245 79 16-16-12-14-11-14h-48c-55 0-59 3-52 35l4 25h87l16-16zm2-135 11-11-5-14-5-14h-108v50h96l11-11zm-667 124v-137l21-44 22-44 44-28c24-15 59-31 79-34l35-7 52 15 52 15 32 33c18 18 39 50 47 70l16 37v261h-140v-225l-13-25-12-25-29-3-28-3-19 17-19 17v247h-140v-137zm832-75 3-213h140l3 213 2 212h-150l2-212zm168 207c0-3 27-48 60-101 33-52 60-99 60-104s-27-52-60-105l-61-96 6-9 6-10h149l15 18c8 9 21 26 29 36l14 20 16-32 17-32h180l-7 13c-4 6-32 51-61 99-29 47-53 92-53 100 0 7 28 56 61 108l60 95-88 3-87 3-7-13c-4-7-14-22-22-33l-15-20-19 33-18 32h-87c-49 0-88-2-88-5zM260 941c0-5 9-11 20-14l20-5V810h30v112l20 5c11 3 20 9 20 14v9H260v-9zm214-5c-3-7-4-38-2-67l3-54 38-3 37-3v21h-50v40h19c11 0 22 4 26 9l5 10-22 3-23 3-3 18-4 18 14-2c24-3 38 1 38 11v10h-71l-5-14zm206-6-20-20v-56l16-22 16-23 36 3 35 3 5 14 5 14-28-7-27-7-14 12-14 11v47l14 14 15 14 25-4 26-5v10c0 12-24 22-51 22h-19l-20-20zm200-50v-72l13 4 12 5 3 27 3 27 22-3 22-3 1-15c1-8 2-21 3-27 0-7 6-13 11-13h10v142l-12-5-13-4v-38l-22-3-21-3-4 22-3 22-12 5-13 4v-72zm224 56c-3-7-4-37-2-66l3-53 12-4 12-4 3 43 3 43 24-42 25-43h26v140h-19l-3-42-3-43-23 43-22 42h-16c-8 0-17-6-20-14zm243-4-17-19v-72l16-15 15-16h58l15 16 16 15v88l-19 11c-11 5-31 10-44 10h-24l-16-18zm60-10c6-4 14-18 18-32l6-25-15-20-15-20-18 11-18 11-3 27-3 27 12 15c13 16 19 17 36 6zm163-41v-71h80v20h-49l-3 57-3 56-12 5-13 4v-71zm195 55-20-14 1-41 1-41 13-15 12-15h65l16 18 17 19v72l-16 15-15 16h-55l-19-14zm64-20 12-15-3-27-3-27-18-11-18-11-15 19c-18 26-18 51 2 70 19 20 28 20 43 2zm174 19-23-16v-76l19-17 19-17 34 3 33 3 3 38 3 37h-25c-14 0-27-4-30-9l-6-9 20-5c24-6 26-25 5-33l-15-6-15 12-15 12v57l18 10 19 10 23-6 23-6-5 14-5 14-29 3-29 3-22-16zm207-55v-70h30v140h-30v-70zm154 56c-3-7-4-38-2-67l3-54 43-3 42-3v20l-27 3-28 3-3 18-3 17h51v9c0 5-10 11-22 13l-23 3v30l28 3 27 3-5 10-6 9h-70l-5-14zm203 7c-4-3-7-16-7-29v-22l27-20 26-19-7-12-7-11-26 6-26 7 5-14 5-14 27-3 27-3 15 12c8 6 14 20 14 30v18l-30 21-30 22 6 9 6 10 19-6 19-6v31h-28c-16 0-32-3-35-7z"/></g><g fill="#ce8688" transform="matrix(.1 0 0 -.1 0 300)"><path d="m193 2203-13-5V1060l1313 2 1312 3 3 564 2 565-12 8-13 8-1290-1c-710 0-1296-3-1302-6zm2517-568v-475H270v937l7 6 6 7h2427v-475zM705 1844l-40-15-34-32c-18-17-42-50-52-72l-19-40v-39c0-55 18-110 51-150l29-34 42-20 43-21h153c83 0 152 2 152 6 0 3-12 26-26 51l-26 45 11 37c6 21 11 57 11 82v44l-25 51-26 51-38 26c-67 47-133 57-206 30zm126-124c10-6 26-24 35-41l15-30-6-29-6-29-31-26-30-25h-55l-27 21c-15 12-32 33-37 47l-10 25 11 33 12 34 21 15 21 15h34c18 0 42-5 53-10zm189-12v-134l23-44 22-44 38-30 37-30 60-4 59-4 47 22 46 23 29 45 29 46v286h-130v-249l-26-20c-32-26-45-26-73-3l-22 17-3 125-4 125-66 3-66 3v-133zm420-78v-210h291l27 14c38 20 58 45 70 87l10 36-13 37-13 37 15 38 15 38-20 46-21 46-33 21-33 20h-295v-210zm250 85 12-15-6-15-5-15h-121v60h108l12-15zm7-141 5-14-12-16-13-15-51 3-51 3-3 24-4 24 10 6c6 3 33 4 62 2l51-3 6-14zm163 56v-210h130v420h-130v-210zm172 188c70-110 108-177 108-189 0-8-27-57-59-109l-59-95 81-3 82-3 13 18c7 10 18 25 23 33l9 15 27-33 28-32h78c42 0 77 3 77 6 0 4-27 51-61 105l-60 98 60 99c34 54 61 102 61 105 0 4-36 7-80 7h-79l-24-36-25-35-22 35-22 36h-170l14-22zM265 940l-6-10h41V821l10-6 10-6v113l20 5c11 3 20 9 20 14v9h-89l-6-10zm215-60v-70h70v20h-50v40h40v20h-40v40h50v20h-70v-70zm207 52-17-19v-72l16-16 17-16 25 3 25 3 4 12 4 11-20-5-21-5-15 12-15 12v56l15 12 14 12 21-7 20-6v9c0 10-23 22-44 22-7 0-20-8-29-18zm193-52v-70h20v60h60v-60h20v140h-20v-60h-60v60h-20v-70zm230 0v-71l10 6 10 6v84l30-47c17-27 35-48 40-48h10v140h-19l-3-47-3-48-25 44c-14 25-31 46-37 49l-13 4v-72zm240 50-20-20v-56l16-22 15-22h56l16 18 17 19v70l-18 16-19 17h-43l-20-20zm68-12c7-7 12-24 12-38 0-30-17-50-42-50h-18l-12 25-11 25 11 25 12 25h18c10 0 23-5 30-12zm159 21-8-16 3-54 3-54 33-3 32-3v21h-49l-3 63-3 62-8-16zm190-7-17-19v-72l16-15 15-16h49l20 20 20 20v60l-20 20-20 20h-47l-16-18zm73-27 10-25-10-25-10-25h-18c-25 0-42 20-42 50s17 50 42 50h18l10-25zm162 22-22-23v-54l21-21 20-20 32 3 32 3 3 38 3 37h-51v-10c0-5 7-10 15-10h15v-40h-19c-24 0-51 26-51 49v18l20 18 19 17 26-6 25-6v9c0 10-24 21-49 21h-18l-21-23zm218-47v-71l10 6 10 6v118l-10 6-10 6v-71zm150 0v-70h70v20h-50v40h19c11 0 23 5 26 10l6 10h-51v40h50v20h-70v-70zm202 58c-6-6-12-20-12-30v-18l24-12c14-6 27-17 30-25l6-14-15-5c-8-4-22-3-31 0l-16 6 4-12 5-13 22-3 22-4 15 12c7 7 14 21 14 32v19l-30 17-30 17 4 10 3 10 22-1 22-1-4 11c-2 6-12 12-23 14l-19 3-13-13z"/></g><g fill="#b65457" transform="matrix(.1 0 0 -.1 0 300)"><path d="M185 2188c-3-7-4-263-3-568l3-555 1290-3c710-1 1300 0 1313 3l22 5-2 563-3 562-1308 3-1308 2-4-12zm2530-558v-475l-1222-3-1223-2v960l1223-2 1222-3v-475zM690 1834c-65-28-111-89-125-166l-7-36 16-55 16-54 43-40 42-39 49-14 49-13 49 10 49 10 5-9 5-8h151l-30 54-31 53 16 44 15 44-6 43c-11 82-58 147-128 177l-37 15h-53l-53-1-35-15zm164-135 28-32-5-41-6-41-26-22-26-23h-74l-21 18c-27 22-44 54-44 85v24l21 27c12 15 31 32 43 37l21 8 30-4 30-5 29-31zm170 126c-3-8-4-70-2-137l4-123 22-42 22-43 38-25 38-25 46-6 46-6 36 12c20 6 51 24 68 38l31 26 18 41 19 40v266l-62-3-63-3-3-125-2-125-21-17-21-18h-47l-20 26-21 27v237h-121l-5-15zm422 7c-3-5-4-98-3-208l2-199 133-3 133-3 43 19 42 19 17 36c20 42 21 83 3 116l-14 25 15 23 16 23-6 41-5 41-24 25c-13 14-37 32-55 39l-32 14h-260l-5-8zm252-129 3-22-21-11-21-11-42 3-42 3-3 33-3 33 63-3 63-3 3-22zm-5-124 10-16-6-17-6-16h-121v71l56-3 57-3 10-16zm167 51v-210h130v420h-130v-210zm170 204c0-3 27-50 61-104l61-99-8-13c-4-7-31-52-60-99-30-47-54-89-54-93 0-3 36-6 80-6h80v8c0 4 11 20 23 36l24 29 22-36 23-37h79c43 0 79 2 79 4 0 3-27 48-60 100-33 53-60 100-60 105s27 53 60 107c34 53 60 97 58 98s-39 0-83-2l-81-4-16-29c-22-37-29-37-52 6l-19 35h-79c-43 0-78-3-78-6zm-671-902-23-19 1-38 1-37 11-11 10-10h64l13 18c29 39 12 96-32 109l-21 6-24-18zm66-52v-45l-29-3-29-4-8 14c-5 7-9 24-9 39v25l12 12 13 13 25-3 25-3v-45zm358 60-22-9-7-26-6-25 6-25 7-26 24-11 24-11 26 17 25 16v38c0 43-8 57-35 65l-20 6-22-9zm55-22 12-12v-54l-14-12-15-12-23 4-23 3-3 33c-2 19-1 40 2 48l5 14h24c13 0 28-5 35-12zm184 21-22-8-10-26-10-25 10-24c5-14 18-30 29-36l21-10 25 6 25 6v58l-27-1-28-1 18-5 17-4v-39h-23c-13 0-28 5-35 12l-12 12v54l15 12 15 12 29-4 30-4-4 7c-8 12-40 16-63 8zm-1735-6 22-4 4-57 3-57 2 57 2 57 23 4 22 4H265l22-4zm193-53v-60l38 2 37 1-33 4-33 4 3 22 3 21 25 7 25 7-27 1-28 1v39l33 4 32 4-37 1-38 2v-60zm200 41c-5-11-10-33-10-50v-31l23-14 22-15 23 6c12 3 22 9 22 12v8l-30-5-30-4-10 26-10 26 10 26 10 26 30-4 30-5v17h-69l-11-19zm200-41v-60h20v60h60v-60h20v120h-20v-50h-60v50h-20v-60zm232-2 2-63 3 48c2 26 7 47 11 47s18-20 32-45l25-45h25v120h-20v-47l-1-48-27 47-27 48h-25l2-62zm470 5-2-63 33 1 32 2-27 4-27 4-4 57-3 57-2-62zm641-3v-65l4 33c2 17 2 47 0 65l-4 32v-65zm147 0v-60l38 1 37 2-27 4-28 4v48l23 4 22 4-22 2-23 1v39l28 4 27 4-37 2-38 1v-60zm193 43-6-16 32-28 33-27-6-11-7-11h-27l-27-1 16-9 16-9 21 6 22 5v48l-25 16c-14 9-25 22-25 29v14l28 4 27 4-33 2-33 1-6-17z"/></g><g fill="#b93435" transform="matrix(.1 0 0 -.1 0 300)"><path d="M190 1635v-565h2610l-2 563-3 562-1302 3-1303 2v-565zm1326 475h1204v-960l-1227 2-1228 3-3 469-2 469 12 14 11 14 14-6c8-3 557-5 1219-5zm-811-275-40-14-42-46-42-46-7-45c-3-25-4-64-1-86l5-41 30-41 30-41 41-22 41-21h150l150-1-26 45-27 45 12 38c13 46 14 121 2 154-5 14-25 42-43 62l-33 38-40 18-40 19-40-1c-22 0-58-6-80-14zm146-124 29-29v-89l-25-25-25-26-30-6-30-6-23 9c-28 11-53 38-66 74l-11 28 14 33 14 33 23 17 23 16h78l29-29zm599-75v-207l154 3 154 3 26 24 26 25 10 37 11 38-16 36-15 37 16 30 16 31-6 28c-8 42-34 78-70 96l-31 16-137 5-138 5v-207zm244 88c19-19 20-25 3-48l-13-17-59 3-60 3-3 23c-2 13-1 30 2 38l5 14h110l15-16zm10-146 11-18-17-16-16-16-49-1c-28 0-55 3-61 7l-12 7v23c0 12 3 26 7 30l7 7 60-3 59-3 11-17zm-674 122v-131l20-39 20-39 36-28 37-28 66-3 66-3 43 28 43 28 24 49 25 50v246h-120v-221l-11-22c-16-30-28-37-65-37h-31l-16 18-17 19v243h-120v-130zm830-70v-200h120v400h-120v-200zm180 195c0-3 25-45 55-93 30-49 55-95 55-102s-25-53-55-102c-30-48-55-90-55-93s33-5 74-5h74l22 38 22 37 14-20c7-11 19-28 26-38l13-18 73 3 73 3-61 98-61 97 61 98 61 97-73 3-73 3-13-18c-7-10-19-27-26-38l-13-19-24 37-24 37h-72c-40 0-73-2-73-5zM306 925c4-8 8-15 10-15s4 7 4 15-4 15-10 15h-9l5-15zm174-45v-60h15v120h-15v-60zm209 43-14-18 18 14c9 7 17 15 17 17 0 8-8 3-21-13zm431 7c0-5 5-10 11-10h10l-6 10c-3 6-8 10-11 10-2 0-4-4-4-10zm301-7c7-12 15-20 18-17 3 2-3 12-13 22l-18 17 13-22zm162-48v-60l4 33c2 18 2 45 0 60l-4 27v-60zm182 44c-4-6-5-12-2-15 2-3 7 2 10 11 7 17 1 20-8 4zm458-44v-60l4 33c2 18 2 45 0 60l-4 27v-60zm-1077 22c3-10 9-15 12-12s0 11-7 18l-12 12 7-18zm196-17-2-36 12-12c7-7 16-12 22-12h10l-17 13-16 12-4 35-4 35-1-35zm510 0v-35l5 18c2 9 2 25 0 35l-5 17v-35zm140 0v-35l5 18c2 9 2 25 0 35l-5 17v-35zM313 860v-45l4 23c2 12 2 32 0 45l-4 22v-45zm648 24 1-19 5 13c3 7 2 16-1 19-3 4-6-2-5-13zm1623 1c11-8 24-15 29-15h9l-4-25-5-24 8 5c5 3 9 14 9 24v19l-32 16-33 16 19-16zm-1163-48-13-22 18 17c10 10 16 20 13 22-3 3-11-5-18-17zm-236 4-5-10 10-6 10-6v15c0 18-6 21-15 7zm645-11-15-10h12c6 0 15 5 18 10 8 12 4 12-15 0z"/></g></g></svg>