<?xml version="1.0" encoding="UTF-8"?>
<svg id="Layer_1" xmlns="http://www.w3.org/2000/svg" baseProfile="tiny-ps" version="1.2" viewBox="0 0 40 40">
<title>Mid-Rivers Communications</title>
  <!-- Generator: Adobe Illustrator 29.0.1, SVG Export Plug-In . SVG Version: 2.1.0 Build 192)  -->
  <g>
    <path d="M2.45,19.52c1.54-.11,2.64.66,4.05.88,1.54.24,2.94-.35,3.6-1.2-.02-.1-.04-.2-.05-.31-.14.14-.24.22-.37.32-.88.67-2.24,1-3.61.72-.61-.13-1.16-.36-1.69-.59-.54-.24-1.1-.55-1.7-.59-.96-.07-1.34.51-1.67,1.11.03.24,0,.53.08.72.26-.56.64-1.01,1.37-1.06Z" fill="#0856a3"/>
    <path d="M5.98,20.87c-.61-.13-1.18-.38-1.7-.61-.52-.22-1.14-.55-1.83-.5-.31.02-.63.15-.87.35-.16.13-.46.45-.48.67-.02.22.15.58.24.79.32.75.82,1.33,1.4,1.76.81.61,1.9,1.06,3.34.91,1.22-.13,2.2-.68,2.88-1.38.71-.73,1.17-1.65,1.17-3-.79.86-2.47,1.38-4.14,1.02Z" fill="#0856a3"/>
    <path d="M5.21,15.25c-1.26.08-2.21.65-2.94,1.36-.72.7-1.22,1.72-1.24,2.95.28-.6.74-1.02,1.61-1.02,1.41,0,2.44.67,3.79.88.76.12,1.46,0,2.06-.19.59-.18,1.09-.42,1.45-.88-.34-.95-.88-1.68-1.65-2.24-.75-.54-1.76-.95-3.07-.86Z" fill="#0856a3"/>
  </g>
  <path d="M14.57,22.94c-.14-.17-.35-.26-.57-.26-.43,0-.75.34-.75.77,0,.5.41.76.75.76.17,0,.39-.07.56-.25v.15c-.17.15-.38.21-.56.21-.5,0-.87-.39-.87-.86s.39-.86.87-.86c.32,0,.51.17.56.22v.15h0Z" fill="#231f20"/>
  <path d="M16.51,23.44c0-.43-.32-.76-.75-.76s-.75.33-.75.76.32.76.75.76.75-.33.75-.76h0ZM16.62,23.44c0,.48-.38.86-.87.86s-.87-.38-.87-.86.38-.86.87-.86.87.38.87.86h0Z" fill="#231f20"/>
  <polygon points="17.07 24.28 17.26 22.54 17.98 24.09 18.71 22.54 18.9 24.28 18.79 24.28 18.64 22.93 17.98 24.34 17.33 22.93 17.18 24.28 17.07 24.28 17.07 24.28" fill="#231f20"/>
  <polygon points="19.42 24.28 19.61 22.54 20.33 24.09 21.06 22.54 21.25 24.28 21.14 24.28 20.99 22.93 20.33 24.34 19.68 22.93 19.53 24.28 19.42 24.28 19.42 24.28" fill="#231f20"/>
  <path d="M21.9,22.6v1.05c0,.16,0,.26.07.36.1.16.28.19.39.19s.29-.04.39-.19c.06-.1.07-.2.07-.36v-1.05h.11v1.05c0,.18,0,.3-.1.43-.13.18-.32.23-.48.23s-.35-.04-.48-.23c-.09-.13-.1-.25-.1-.43v-1.05h.11Z" fill="#231f20"/>
  <polygon points="23.48 24.28 23.48 22.58 24.89 24.06 24.89 22.6 25 22.6 25 24.32 23.59 22.85 23.59 24.28 23.48 24.28 23.48 24.28" fill="#231f20"/>
  <polygon points="25.66 22.6 25.66 24.28 25.55 24.28 25.55 22.6 25.66 22.6 25.66 22.6" fill="#231f20"/>
  <path d="M27.55,22.94c-.14-.17-.35-.26-.57-.26-.43,0-.75.34-.75.77,0,.5.41.76.75.76.17,0,.39-.07.56-.25v.15c-.17.15-.38.21-.56.21-.5,0-.87-.39-.87-.86s.39-.86.87-.86c.32,0,.51.17.56.22v.15h0Z" fill="#231f20"/>
  <path d="M28.79,23.63l-.31-.79-.32.79h.63ZM28.83,23.73h-.71l-.22.55h-.12l.71-1.73.7,1.73h-.12l-.22-.55h0Z" fill="#231f20"/>
  <polygon points="29.75 22.7 29.75 24.28 29.64 24.28 29.64 22.7 29.21 22.7 29.21 22.6 30.19 22.6 30.19 22.7 29.75 22.7 29.75 22.7" fill="#231f20"/>
  <polygon points="30.66 22.6 30.66 24.28 30.55 24.28 30.55 22.6 30.66 22.6 30.66 22.6" fill="#231f20"/>
  <path d="M32.74,23.44c0-.43-.32-.76-.75-.76s-.75.33-.75.76.32.76.75.76.75-.33.75-.76h0ZM32.86,23.44c0,.48-.38.86-.87.86s-.87-.38-.87-.86.38-.86.87-.86.87.38.87.86h0Z" fill="#231f20"/>
  <polygon points="33.32 24.28 33.32 22.58 34.73 24.06 34.73 22.6 34.84 22.6 34.84 24.32 33.43 22.85 33.43 24.28 33.32 24.28 33.32 24.28" fill="#231f20"/>
  <path d="M36.15,22.88c-.1-.2-.28-.21-.33-.21-.2,0-.31.14-.31.31,0,.18.13.24.29.32.17.08.25.12.33.18.07.05.18.14.18.32,0,.28-.24.49-.52.49-.22,0-.33-.1-.39-.18-.07-.08-.09-.14-.11-.18l.1-.05c.02.07.07.13.09.16.08.1.2.14.31.14.23,0,.4-.17.4-.39,0-.09-.04-.19-.16-.26-.05-.03-.15-.08-.28-.15-.17-.08-.25-.13-.31-.22-.04-.06-.05-.13-.05-.19,0-.19.13-.42.43-.42.17,0,.32.08.41.24l-.08.07h0Z" fill="#231f20"/>
  <path d="M13.37,16.18c.17-.33.04-.38.14-.48.18-.18,1.02.32.94.39-.05.05-.57,1.67-.82,3.2.62-.95,1.62-2.72,2.1-3.25.05-.07.12-.14.21-.16.4.01.77.3.77.38,0,.04-.04.03-.07.06-.56.56-1.5,3.51-1.5,4.28,0,.18.06.19.08.19.29,0,1.19-2.31,1.33-2.31.19,0-.68,2.85-1.55,2.85-.39,0-.64-.33-.64-.84,0-.48.2-1.42.48-2.31-.72,1.19-1.26,2.15-1.4,2.55-.06.15-.81-.08-.81-.51,0-.72.24-1.57.43-2.38-.9,1.78-1,4.07-1.83,4.07-.53,0-.72-.98-.53-.98.07,0,.08.19.26.19.92,0,1.57-3.38,2.43-4.94h0Z" fill="#231f20"/>
  <path d="M17.81,15.59c.13-.13.91.07.72.26-.12.12-.56,1.01-.59,1.04-.1.08-.57-.04-.54-.3.04-.35.32-.9.41-1h0ZM17.72,17.86c0,.05-.03.03-.06.06-.17.17-.74,1.58-.74,2.35,0,.19.06.19.09.19.28,0,1.09-1.92,1.22-1.92.2,0-.66,2.46-1.38,2.46-.4,0-.7-.3-.7-.94,0-.8.59-2.51.9-2.51.39,0,.68.22.68.32h0Z" fill="#231f20"/>
  <path d="M19.89,18.1c-.03-.12-.11-.2-.2-.2-.46-.01-1.13,1.59-1.13,2.3,0,.12.01.25.09.25.21,0,.81-1.39,1.24-2.36h0ZM21.89,15.93s-.04.03-.07.06c-.56.56-1.56,3.26-1.56,4.28,0,.18.06.19.08.19.29,0,1.09-1.92,1.23-1.92.19,0-.66,2.46-1.39,2.46-.4,0-.7-.3-.7-.95,0-.1,0-.22.03-.36-.3.66-.68,1.31-1.02,1.31-.4,0-.7-.3-.7-.94,0-.81.51-2.56,1.58-2.56.3,0,.5.08.65.22.37-1.12.85-2.17,1.11-2.17.39,0,.77.3.77.38h0Z" fill="#231f20"/>
  <path d="M22.06,18.72s1.68-.01,1.85-.01.03.55-.12.55c-.04,0-1.84,0-1.87-.05-.08-.07.06-.48.14-.48h0Z" fill="#231f20"/>
  <path d="M28.11,17.18c0,1.36-1.58,2.21-2.2,2.3.4.82,1.11,1.84,1.52,1.87.23.01.31-.27.32-.27.07,0,.12.07.09.24-.06.3-.65.62-.96.62-.6,0-1.15-1.05-1.48-1.95-.14.51-.26.98-.29,1.25-.03.22-.69-.2-.69-.4,0-.47.95-3.48,1.26-3.76.11-.09.92.17.84.25-.18.17-.51.9-.74,1.5.86-.27,2.15-1.71,1.82-2.09-.58-.66-2.98.11-3.27,1.3-.04.19-.53-.22-.45-.61.22-.89,1.44-1.67,2.84-1.67.85,0,1.39.49,1.39,1.41h0Z" fill="#231f20"/>
  <path d="M29.53,15.62c.13-.13.91.07.72.26-.12.12-.56,1.01-.59,1.04-.1.08-.57-.04-.54-.3.04-.35.32-.9.41-1h0ZM29.43,17.89c0,.05-.03.03-.06.06-.17.17-.74,1.58-.74,2.35,0,.19.06.19.09.19.28,0,1.09-1.92,1.22-1.92.2,0-.66,2.46-1.38,2.46-.4,0-.7-.3-.7-.94,0-.8.59-2.51.9-2.51.39,0,.68.22.68.32h0Z" fill="#231f20"/>
  <path d="M29.68,20.05c0-.88.44-2.2.69-2.43.12-.1.79.07.79.17,0,.03-.64,1.35-.75,2.31-.03.24,0,.39.09.39.09,0,.42-.53.74-1.2.49-1,.72-1.76.73-1.83.01-.09.53.09.51.32-.08.66-1.36,3.25-2.13,3.25-.52,0-.66-.54-.66-.99h0Z" fill="#231f20"/>
  <path d="M33.99,18.06c-.22,0-.61.45-.85,1.05l-.07.22c.25,0,.94-.59,1-1.05.01-.12,0-.21-.07-.21h0ZM33.28,20.54c.81,0,1.44-1.94,1.64-2.01.11-.04-.56,2.51-1.69,2.51-.69,0-1.09-.47-1.09-1.14,0-.87.66-2.39,1.53-2.39.53,0,.8.58.74,1.03-.07.62-.53,1.07-1.16,1.07-.07,0-.17-.02-.25-.06-.01.09-.04.19-.04.29-.04.4.09.7.31.7h0Z" fill="#231f20"/>
  <g>
    <path d="M35.94,18.06c.01-.07-.18-.1-.35-.14-.55.98-.73,1.17-1.03,1.81h-.33c.33-.49.67-1.25,1.04-1.92-.08-.05-.12-.15-.1-.27.03-.23.17-.51.47-.51.13,0,.16.15.08.54.49.04,1.29.07,1.29.3,0,.06-.04.04-.06.06-.25.25-.74,1.73-.74,2.35,0,.18.06.19.09.19.28,0,1.08-1.92,1.22-1.92.2,0-.66,2.46-1.38,2.46-.4,0-.7-.3-.7-.95s.42-1.84.51-1.99h0Z" fill="#231f20"/>
    <path d="M37.13,20.1c.05.17.15.45.41.45.59,0,.38-1.68.53-2.17-.39.47-.69,1.18-.95,1.72h0ZM38.75,19.37c-.04.87-.26,1.65-1,1.65s-1.03-.48-.98-.92c.02-.16.07-.3.12-.33.24-.49.72-1.99,1.53-2.28.23,0,.6.17.58.33,0,0-.2.48-.25,1.55h0Z" fill="#231f20"/>
  </g>
</svg>