<?xml version="1.0" encoding="utf-8"?>
<!-- Generator: Adobe Illustrator 27.8.1, SVG Export Plug-In . SVG Version: 6.00 Build 0)  -->
<svg version="1.2" baseProfile="tiny-ps" id="Layer_1" xmlns="http://www.w3.org/2000/svg" xmlns:xlink="http://www.w3.org/1999/xlink"
	 viewBox="0 0 822 209" xml:space="preserve">
<title>Hummingbird</title>
<path d="M192.5,60.3l-1.6-2.3l-29.8,18.7c-3.3-1-9.7-2.5-16.2-1.1c-5.9,1.3-10.2,4.7-13.3,10.4c-1.6,3-2.7,6.5-4,10.5
	c-0.5,1.8-1.2,3.8-1.9,5.7c-0.4,1.3-1,2.6-1.4,3.8c-24.5-4.8-37.5-24.6-34.8-53.5l0.3-3.9l-3.8,1c-0.3,0.1-7.4,1.8-15.3,7.8
	c-14.4,11-22.6,27.5-22.6,45.1c0,13.2,4.6,25.2,12.1,34.9l-0.1,0.1c0.5,0.6,1.1,1.3,1.6,1.8c10.5,12.1,26.1,19.9,43.4,19.9
	c14.8,0,28.2-5.2,37.7-14.5c7.7-7.6,13.4-17.5,16.9-29.6c2.8-9.6,4.4-20.8,4.5-33.3L192.5,60.3z M65.9,135.5
	c-4-4.8-7.3-10.3-9.4-16.3c9.2,6.9,21.8,10.8,35.7,10.8c0.7,0,1.4,0,2.1,0c7.3-0.2,14.1-1.5,19.4-3.5c-6.1,8.6-13.1,13.4-21.4,15
	C77.4,144.5,69.2,138.9,65.9,135.5z M74.1,61.9c3.5-2.7,6.9-4.4,9.4-5.5c-0.7,14.8,2.8,27.7,10,37.4c6.5,8.7,15.9,14.6,27.3,17.3
	c-11.4,2.8-25.8,0.2-37.5-6.9c-11.4-7-18.9-17.4-21-29.4C65.4,69.9,69.4,65.6,74.1,61.9z M58.3,82c3.6,10.9,11.2,20.4,22.1,27
	c9.5,5.8,20.6,8.9,31,8.9c2.6,0,5.1-0.2,7.5-0.5c-4.1,4-13.8,6.8-24.5,7.1c-16.8,0.4-31.6-5.1-39.9-14.9c-0.3-2.2-0.4-4.4-0.4-6.7
	C53.8,95.4,55.4,88.3,58.3,82z M139.1,140.9c-8.4,8.3-20.4,12.9-33.8,12.9c-8.7,0-16.9-2.2-24.1-6c1.1,0.1,2.1,0.1,3.2,0.1
	c2.9,0,6.1-0.3,9.3-1c16.4-3.2,28.1-16.9,37.3-42.9c0.8-2.1,1.3-4,2-6c1.2-3.8,2.3-7,3.6-9.6c2.3-4.2,5.2-6.6,9.5-7.6
	c4.9-1.1,10,0,12.8,0.9c-0.2,12-1.6,22.7-4.3,31.8C151.3,124.8,146.1,133.9,139.1,140.9z"/>
<path d="M257.8,138.3h-11.2v-27.9h-29.4v27.9H206V73h11.1V100h29.4V73h11.2V138.3z"/>
<path d="M272.3,134.8c-3.4-3.4-4.7-8.3-4.7-14.2v-30h11.1v28.6c0,3.2,0.7,5.8,2.3,7.8c1.6,1.9,4,3,7.5,3c3.5,0,6.3-1.5,8.2-3.7
	c1.7-1.9,2.8-5,2.8-9.5V90.6h11v47.5h-8.7v-9.3h-1.2c-2.5,6.8-8.7,10.5-15.7,10.5C279.5,139.4,275.3,137.6,272.3,134.8z"/>
<path d="M393.5,108.3v29.9h-11.1v-28.6c0-3.2-0.7-5.8-2.3-7.8c-1.6-1.9-3.8-3-7.1-3s-6.1,1.3-8.2,3.8c-1.6,1.9-2.4,4.7-2.4,8.2V138
	h-11v-28.6c0-3.2-0.7-5.8-2.3-7.8c-1.6-1.9-3.8-3-7.1-3c-3.3,0-6.1,1.3-8.2,3.8c-1.6,1.9-2.3,4.7-2.3,8.2v27.3h-10.7V90.6h8.7v9.3
	h1.2c1.9-6.1,6.8-10.5,14.8-10.5c7.1,0,12.9,3.7,15.2,10.3c2.4-5.8,8.4-10.3,15.6-10.3c5.3,0,9.6,1.7,12.5,4.7
	C392.2,97.4,393.5,102.4,393.5,108.3z"/>
<path d="M476,108.3v29.9h-11.1v-28.6c0-3.2-0.7-5.8-2.3-7.8c-1.6-1.9-3.8-3-7.1-3c-3.3,0-6.1,1.3-8.2,3.8c-1.6,1.9-2.3,4.7-2.3,8.2
	V138h-11v-28.6c0-3.2-0.7-5.8-2.3-7.8c-1.6-1.9-3.8-3-7.1-3c-3.3,0-6.1,1.3-8.2,3.8c-1.6,1.9-2.4,4.7-2.4,8.2v27.3h-11V90.6h8.7v9.3
	h1.2c1.9-6.1,6.8-10.5,14.8-10.5c7.1,0,12.9,3.7,15.2,10.3c2.3-5.8,8.4-10.3,15.6-10.3c5.3,0,9.6,1.7,12.5,4.7
	C474.7,97.4,476,102.4,476,108.3z"/>
<path d="M485.4,75.9c0-4.1,2.9-6.9,7-6.9c4,0,6.9,2.8,6.9,6.9c0,3.9-2.8,6.7-6.9,6.7C488.3,82.6,485.4,79.8,485.4,75.9z M486.8,90.6
	h11.1v47.5h-11.1V90.6z"/>
<path d="M547.1,94.1c3.4,3.4,4.7,8.3,4.7,14.2v29.9h-11.1v-28.6c0-3.2-0.7-5.8-2.3-7.8c-1.6-1.9-4-3-7.5-3c-3.5,0-6.3,1.5-8.2,3.7
	c-1.7,1.9-2.8,5-2.8,9.5v26.2h-11V90.6h8.7v9.3h1.2c2.5-6.8,8.7-10.5,15.7-10.5C540,89.4,544.3,91.3,547.1,94.1z"/>
<path d="M609.7,94.4h-11.1c3.7,3,5.8,7.3,5.8,12.1c0,5.6-2.5,10.3-8.1,13.1c-3.7,1.8-8.4,2.7-14,3c-3.6,0.3-6.4,0.3-8.2,0.8
	c-2.3,0.4-3.5,1.3-3.5,2.7c0,0.8,0.3,1.5,1.1,1.9c1,0.7,2.2,0.7,3.8,0.7h16.8c5.3,0,8.6,0.8,11.7,2.9c2.5,1.8,4.5,5.2,4.5,9.9
	c0,10.2-8,18.2-26.1,18.2c-9.2,0-15.7-2.2-19.5-5.5c-3.2-2.8-4.4-5.6-4.4-9.1c0-3.4,2.4-6.9,7.5-7.8c-4.4-1.7-6.2-4.5-6.2-8.1
	c0-7.9,12.3-8.9,12.3-8.9v-1.2c-8.7-1.7-11.8-7.8-11.8-13c0-9.5,8.7-16.9,22-16.9c5.2,0,9.8,1.1,13.2,3c0.7-1.5,1.7-3.7,3.9-5.4
	c4.5-3.7,10.2-3,10.2-3v10.6H609.7z M568.2,137.8c-0.2,0.3-0.3,1.1-0.3,2.4c0,5.8,3.9,9.6,15.6,9.6c9.5,0,14.5-2.8,14.5-7.1
	c0-2.8-1.6-4.4-6.3-4.4h-17.3C571.1,138.3,569.5,138,568.2,137.8z M593.6,106.8c0-4.7-4.5-8.3-11.2-8.3c-6.7,0-11.2,3.7-11.2,8.3
	c0,4.5,4.6,8.2,11.2,8.2C588.9,114.9,593.6,111.3,593.6,106.8z"/>
<path d="M626.2,100.8c2.5-8,9.8-11.4,16.2-11.4c13.5,0,21.4,11.3,21.4,25c0,13.6-7.9,24.9-21.4,24.9c-9.4,0-15.3-5.8-17.3-10.7H624
	v9.6h-8.8v-69h11V100.8z M639.3,129.7c8.3,0,13.4-6.7,13.4-15.3c0-8.8-5.1-15.4-13.4-15.4c-8.5,0-13.5,6.6-13.5,15.4
	C625.7,123,630.9,129.7,639.3,129.7z"/>
<path d="M671.3,75.9c0-4.1,2.9-6.9,7-6.9s6.9,2.8,6.9,6.9c0,3.9-2.8,6.7-6.9,6.7C674.1,82.6,671.3,79.8,671.3,75.9z M672.7,90.6
	h11.1v47.5h-11.1V90.6z"/>
<path d="M720.8,100.4c0,0-1.2-0.2-2.4-0.2c-3.8,0-7.1,1-9.2,3.1c-2.2,2.2-3.2,5.4-3.2,10.1v24.8H695V90.6h10.2v9.4h1.2
	c1.2-8,5.6-10,12.1-10c1.1,0,2.3,0.1,2.3,0.1V100.4z"/>
<path d="M761.8,100.8V69.3h11.1v68.9h-8.8v-9.6H763c-2.2,4.9-8,10.7-17.3,10.7c-13.5,0-21.4-11.3-21.4-24.9c0-13.7,7.9-25,21.4-25
	C751.9,89.4,759.2,92.8,761.8,100.8z M748.6,129.7c8.5,0,13.5-6.7,13.5-15.3c0-8.8-5-15.4-13.5-15.4c-8.3,0-13.4,6.6-13.4,15.4
	C735.2,123,740.3,129.7,748.6,129.7z"/>
</svg>
