<svg xmlns="http://www.w3.org/2000/svg" xmlns:xlink="http://www.w3.org/1999/xlink" version="1.2" viewBox="0 0 283.465 283.465" baseProfile="tiny-ps">
  <title>Sarbacane</title>
  <rect width="283.465" height="283.465" fill="#E94F3D"/>
  <g>
    <path d="M176.821,75.777c-0.048,0-0.092,0.014-0.14,0.014h-60.009c-10.359,0-19.26,3.684-27.208,11.265   c-8.154,7.772-13.048,16.811-14.955,27.628c-1.903,10.791-0.263,19.641,5.029,27.076c5.42,7.764,13.101,11.533,23.469,11.533   h77.458c3.579,0,11.639,1.526,9.148,15.647c-2.488,14.111-11.086,15.638-14.665,15.638l-87.133,0.042   c-12.669,0-23.034,10.365-23.034,23.034h21.532l-0.006,0.032h84.567c10.364,0,19.368-3.761,27.462-11.437   c7.785-7.582,12.49-16.51,14.394-27.309c1.906-10.808,0.345-19.736-4.735-27.249c-5.449-7.746-13.148-11.506-23.542-11.506h-77.639   c-3.584,0-11.653-1.518-9.188-15.5c2.511-14.241,11.12-15.785,14.704-15.785H194.1l0.016-0.089h1.535   c12.669,0,23.034-10.365,23.034-23.034H176.821z" fill="#FFFFFF"/>
  </g>
</svg>
