<?xml version="1.0" encoding="utf-8"?>
<!-- Generator: Adobe Illustrator 26.1.0, SVG Export Plug-In . SVG Version: 6.00 Build 0)  -->
<svg version="1.2" baseProfile="tiny-ps" id="Layer_1" xmlns="http://www.w3.org/2000/svg" xmlns:xlink="http://www.w3.org/1999/xlink"
	 viewBox="0 0 32 32" xml:space="preserve">
	 <title>Hinkley</title>
<path fill="#231F20" d="M4.8,13.7v1.9H2.2v-1.9H1.7v4.7h0.6v-2.2h2.6v2.2h0.6v-4.7H4.8z M6.6,18.3h0.6v-4.7H6.6V18.3z M11.6,13.7
	v3.8l-2.5-3.8H8.4v4.7H9v-3.8l2.5,3.8h0.6v-4.7H11.6z M16.3,13.7L14,15.9v-2.3h-0.6v4.7H14v-1.6l0.8-0.8l1.7,2.4h0.7l-2-2.8l1.9-1.9
	h-0.8C16.3,13.6,16.3,13.7,16.3,13.7z M17.9,13.7v4.7h3v-0.6h-2.4v-4.1C18.5,13.7,17.9,13.7,17.9,13.7z M21.7,13.7v4.7H25v-0.6h-2.8
	v-1.6h2.5v-0.5h-2.5v-1.4H25v-0.5L21.7,13.7L21.7,13.7z M28.8,13.7l-1.3,2.1l-1.3-2.1h-0.7l1.6,2.7v2h0.6v-2l1.6-2.7H28.8z"/>
<g>
	<path fill="#231F20" d="M30.2,13.7L30.2,13.7L30,13.8v0.5h-0.1v-0.5h-0.2v-0.1H30.2z M30.9,14.3L30.9,14.3l-0.1-0.4l-0.2,0.4h-0.1
		l-0.2-0.4v0.4h-0.1v-0.6h0.1l0.2,0.5l0.2-0.5h0.1v0.6H30.9z"/>
</g>
</svg>
