<?xml version="1.0"?><svg version="1.2" baseProfile="tiny-ps" viewBox="0 0 300 300" xmlns="http://www.w3.org/2000/svg" xmlns:xlink="http://www.w3.org/1999/xlink"><title>ZCA</title><g><g fill="#fff" transform="matrix(.1 0 0 -.1 0 300)"><path d="M0 1500V0h3000v3000H0V1500z"/></g><g fill="#ddd" transform="matrix(.1 0 0 -.1 0 300)"><path d="m1452 1859-52-9-51-25c-27-14-68-42-89-62l-40-35-32-67-33-66v-200l29-59 29-60 44-44 44-44 57-26 57-27h210l55 26c30 15 70 40 89 56l34 29-7 22-7 22-45 36-45 37-22-21c-12-11-42-30-67-41l-45-21h-76l-37 16c-20 8-52 29-69 46l-33 31-16 50-16 50 6 50 6 51 27 45 28 44 45 25 45 24 62-4 63-4 45-32c25-18 50-32 55-32 4 0 30 25 56 55l47 55-19 21c-44 49-127 82-229 92l-50 5-53-9zm719-11c-5-13-72-172-150-355-77-182-141-334-141-337s37-6 83-6h82l30 78 31 77 146 3 146 3 32-81 32-80h169l-6 21c-4 12-72 173-151 358l-143 336-76 3-75 3-9-23zm149-348 20-50h-85c-47 0-85 3-85 6s19 50 42 105l41 101 24-56c13-31 32-79 43-106zM470 1790v-70l184-2 185-3-189-220-189-220-1-62v-63h590v140H872c-98 0-181 3-185 6-3 3 77 102 179 220l184 213v131H470v-70z"/></g><g fill="#aeaeae" transform="matrix(.1 0 0 -.1 0 300)"><path d="M2182 1858c-5-7-66-146-135-308s-134-317-146-343c-12-27-21-51-21-53 0-3 37-4 82-2l82 3 31 78 30 77 149-2 149-3 30-77 30-78h169l-7 18c-3 9-72 171-152 360l-146 342h-135l-10-12zm117-302c23-54 41-100 41-102s-38-4-85-4h-85v9c0 5 14 41 30 80 17 40 35 83 41 98 5 14 11 24 13 22s22-48 45-103zM474 1846c-3-7-4-38-2-67l3-54 183-5 184-5-192-223-191-223 3-57 3-57 293-3 292-2v140H680v8c1 4 84 104 185 221l185 215v126H479l-5-14zm931 0c-62-19-97-41-144-86l-43-42-31-66-32-67v-180l27-57 27-57 45-49 46-49 63-28 62-28 72-5 71-5 69 21 68 21 47 38c26 21 47 43 48 48 0 6-22 32-48 59l-49 47-31-26c-16-14-46-32-66-40l-35-15h-98l-44 23-44 24-30 48-30 48v142l21 39 20 40 38 30 37 31 72 3 72 3 60-36 60-36 47 53c26 29 46 58 45 63-2 6-25 25-51 42l-48 33-51 15-51 15-75-1h-76l-40-13z"/></g><g fill="#7e7e7e" transform="matrix(.1 0 0 -.1 0 300)"><path d="M480 1790v-70h180c99 0 180-3 180-6s-86-104-190-226l-191-221 3-56 3-56 293-3 292-2v140l-189 2-189 3 188 220 189 220 1 63v62H480v-70zm935 56c-22-7-59-22-81-34l-41-21-46-51-46-51-22-57-22-57v-160l22-57 22-57 45-50 45-50 67-33 67-33h191l65 32 64 32 30 31 29 30-49 49-48 50-32-24c-17-14-48-31-68-40l-36-15h-106l-40 23-39 22-30 43-30 42-4 66-4 65 16 44 17 44 39 35 39 35 43 12 43 11 48-11 48-11 45-31c25-17 47-29 48-27 2 1 24 27 51 57l47 54-29 24c-41 34-81 54-138 69l-50 14-65-1h-65l-40-13zm758-3c-4-10-69-164-145-342-76-179-138-331-138-338v-14l76 3 76 3 31 78 32 77 149-2 149-3 31-75 32-75h159l-2 10c-1 6-67 163-147 350l-144 340-76 3-76 3-7-18zm136-307c17-42 31-79 31-81 0-3-38-5-85-5h-85v10c0 10 25 74 60 155l22 50 13-26c8-14 28-60 44-103z"/></g><g fill="#373737" transform="matrix(.1 0 0 -.1 0 300)"><path d="M480 1790v-70l184-2 183-3-188-219-189-219v-117h580v130l-191 2-191 3 191 222 191 222v121H480v-70zm939 57c-25-7-66-25-91-40l-46-27-36-41c-19-23-45-62-58-88l-23-46v-220l25-50 24-50 53-52 52-51 58-23 58-22h170l55 21 55 22 45 39 45 39-45 46c-24 25-48 46-52 46s-28-14-52-32l-45-31-55-5c-30-2-71-1-91 2l-35 7-37 32-36 32-18 40-19 40v126l19 38c11 21 36 52 55 69l36 31 39 12 39 12 46-7 46-7 50-34 51-34 32 36c18 20 38 45 46 55l13 19-22 24c-12 13-49 35-82 50l-61 27-81 4-81 4-46-13zm623-319c-78-183-144-341-148-351l-6-18 78 3 78 3 30 73 30 72 150-2 151-3 29-72 30-73h78c43 0 78 3 78 6s-66 160-147 350l-146 344h-144l-141-332zm258 37c23-58 40-108 38-111-3-3-44-4-91-2l-85 3 35 85c19 47 39 95 43 108 5 12 11 22 14 22 2 0 23-47 46-105z"/></g><g fill="#010101" transform="matrix(.1 0 0 -.1 0 300)"><path d="m1448 1850-47-8-61-33-62-33-34-41c-18-23-44-64-56-91l-23-49v-200l29-59 29-59 39-39 40-40 53-24c28-13 77-29 108-35l57-10 62 11 62 12 45 23c25 13 61 36 79 52l33 28-48 47-48 47-44-29c-48-33-99-50-147-50h-30l-51 25-51 26-25 37-26 37-12 48-12 49 12 53 12 54 29 39 28 39 44 22 44 21h41c50 0 99-16 140-46 17-13 36-24 41-24 6 0 29 23 53 51l43 51-35 29c-19 16-57 37-84 48l-50 19-65 5-65 6-47-9zm592-332c-80-187-147-345-148-350l-4-9 77 3 77 3 27 65c14 36 30 71 34 78l8 12h278l12-12c6-7 23-42 38-78l27-65 78-3 78-3-4 9c-1 5-68 163-148 351l-145 341h-140l-145-342zm268 35 40-103h-94c-52 0-94 1-94 3 0 6 72 182 82 201l10 18 7-8c4-5 26-55 49-111zM480 1790v-60h359l5-8 5-8-189-220-189-219-1-57v-58h580v130H668l4 9c2 5 87 106 191 226l187 217v108H480v-60z"/></g></g></svg>