<?xml version="1.0" encoding="UTF-8"?>
<svg id="Layer_1" xmlns="http://www.w3.org/2000/svg" baseProfile="tiny-ps" version="1.2" viewBox="0 0 1024 1024">
<title>FundKit</title>
  <g id="Layer_1-2">
    <g>
      <g>
        <path d="M446.11,606.8h-46.27v-14.56c-2.26,5.18-5.5,9.38-9.71,12.3-4.21,2.91-10.35,4.21-18.44,4.21-20.38,0-30.74-11-30.74-33v-59.54h-73.13c0-.32-.97-3.24-.97-3.24h110.98v67.63c0,8.09.65,13.27,1.62,15.53s3.24,3.88,6.79,3.88,6.47-1.94,9.06-6.15c2.59-4.21,3.88-9.71,3.88-17.15v-60.51h-9.06v-3.56h45.95v90.6h10.03v3.56h0Z" fill="#3e5fac" stroke-width="0"/>
        <path d="M451.61,512.32h47.89v18.12c1.94-6.15,5.18-11,9.71-14.56,4.53-3.56,11-5.5,19.74-5.5,20.38,0,30.74,11,30.74,33v59.54h11v3.56h-55.98v-3.56h8.09v-64.39c0-8.09-.65-12.94-1.62-15.21s-2.91-3.56-5.82-3.56c-4.21,0-8.09,2.91-11.32,8.41-3.24,5.5-4.85,12.3-4.85,20.06v54.68h8.41v3.56h-56.3v-3.56h11v-87.04h-11v-3.56h.32Z" fill="#3e5fac" stroke-width="0"/>
        <path d="M638.64,606.8v-13.91c-4.53,10.68-13.91,15.85-27.5,15.85s-20.06-4.21-26.53-12.3c-6.15-8.09-9.38-20.38-9.38-36.56,0-33,12.94-49.18,39.15-49.18s19.41,3.24,22.97,9.71v-58.57h-11.97v-3.56h49.51v144.96h9.71v3.56h-45.95ZM615.66,593.21c1.29,4.53,4.21,6.79,8.09,6.79s7.12-1.62,10.03-5.18c2.91-3.56,4.21-8.41,4.21-15.21v-43.03c0-5.82-1.29-10.35-3.24-14.56-2.26-3.88-5.5-5.82-10.03-5.82s-7.44,2.91-9.06,8.74c-1.62,5.82-2.26,15.85-2.26,30.42v10.35c0,13.91.65,22.97,2.26,27.5h0Z" fill="#3e5fac" stroke-width="0"/>
        <path d="M689.11,606.8v-3.56h9.06l-22.97-46.92v-3.24l44.65-37.21h-18.77v-3.56h39.15v3.56h-13.91l-23.62,20.06,34.3,67.3h7.12v3.56h-55.01Z" fill="#45a1d4" stroke-width="0"/>
        <polygon points="794.92 603.25 794.92 512.32 746.38 512.32 746.38 515.88 758.03 515.88 758.03 603.25 747.03 603.25 747.03 606.8 805.92 606.8 805.92 603.25 794.92 603.25" fill="#45a1d4" stroke-width="0"/>
        <path d="M819.83,578.33v-62.45h-11v-3.56h11v-25.56l36.89-9.06v34.62h25.89v3.56h-25.89v66.65c0,6.15.65,10.68,1.94,13.59,1.29,2.91,3.88,4.21,7.77,4.21s7.44-1.94,10.35-5.82,4.85-9.38,5.82-16.18h3.24c-.97,9.38-3.88,16.83-8.74,22s-12.62,8.09-23.62,8.09-19.41-2.26-25.24-6.47-8.74-12.3-8.74-23.62h.32Z" fill="#45a1d4" stroke-width="0"/>
        <path d="M901.69,595.48c-8.41-8.74-12.94-21.03-12.94-36.56s4.85-27.5,14.24-35.92,21.68-12.62,36.56-12.62c30.09,0,44.33,15.21,43.03,45.3h-55.98v7.77c0,12.94,1.62,22.65,4.85,29.44,3.24,6.79,9.06,10.03,17.15,10.03,15.21,0,25.24-8.09,30.09-24.59l3.56.65c-2.59,9.38-7.12,16.83-13.59,22.33-6.47,5.18-16.18,8.09-29.44,8.09s-29.77-4.53-38.18-13.27h0l.65-.65ZM927.25,551.47h20.38v-9.71c0-10.68-.65-18.12-1.94-22-1.29-3.88-3.88-5.82-7.44-5.82s-6.47,1.94-8.41,6.15c-1.94,4.21-2.59,11.32-2.59,21.36v9.71h0v.32Z" fill="#45a1d4" stroke-width="0"/>
        <path d="M341.28,515.56l-2.91-2.91h-35.27v-32.03c0-8.41.65-14.24,2.26-18.12,1.62-3.88,4.85-5.5,10.03-5.5s6.79,1.94,7.12,6.15c-4.85,2.59-8.09,7.77-8.09,13.59,0,8.41,6.79,15.21,15.21,15.21s15.21-6.79,15.21-15.21,0-2.91-.65-3.88v-.65c-.97-4.21-3.24-8.09-7.12-11.65-4.85-4.53-12.94-6.79-24.27-6.79-17.15,0-29.12,4.85-36.56,14.88-7.12,9.71-11,24.27-11,43.36v.65h-11.65v3.56h11.65v87.04h-11v3.56h71.83v-3.56h-24.27v-87.04h38.18v-.32l1.29-.32Z" fill="#3e5fac" stroke-width="0"/>
        <circle cx="773.56" cy="476.41" r="15.21" fill="#45a1d4" stroke-width="0"/>
      </g>
      <polygon points="43.6 606.48 127.4 515.24 235.8 606.48 43.6 606.48" fill="#3e5fac" stroke-width="0"/>
      <polygon points="174.64 453.11 146.49 496.15 240 606.48 174.64 453.11" fill="#3e5fac" stroke-width="0"/>
      <polygon points="172.05 451.17 127.4 480.94 42.31 414.61 172.05 451.17" fill="#45a1d4" stroke-width="0"/>
      <polygon points="41.33 604.86 103.46 503.26 41.33 416.55 41.33 604.86" fill="#45a1d4" stroke-width="0"/>
    </g>
  </g>
</svg>