<?xml version="1.0" encoding="utf-8"?>
<!-- Generator: Adobe Illustrator 25.3.1, SVG Export Plug-In . SVG Version: 6.00 Build 0)  -->
<svg version="1.2" baseProfile="tiny-ps" id="Layer_1" xmlns="http://www.w3.org/2000/svg" xmlns:xlink="http://www.w3.org/1999/xlink"
	 viewBox="0 0 80 80" xml:space="preserve">
    <title>Maveris</title>
<g>
	<path fill="#DC1E35" d="M62.96,31.7C62.96,31.7,62.96,31.7,62.96,31.7c-0.27,0-0.51,0.11-0.68,0.29l-0.06-0.06L51.26,42.89l0,0
		c-0.01,0.01-0.01,0.01-0.02,0.02L40.23,54.57l-5.21-5.44c-0.37-0.38-0.97-0.39-1.35-0.03c-0.38,0.37-0.39,0.97-0.03,1.35l5.6,5.85
		c0.24,0.29,0.56,0.45,0.91,0.47c0.26,0.01,0.65-0.05,1.05-0.45l9.78-10.35l-0.01,15.4c0,0.25,0.1,0.5,0.28,0.68
		c0.18,0.18,0.42,0.28,0.68,0.28h10.99c0.53,0,0.96-0.43,0.96-0.96l0.04-28.72C63.91,32.13,63.49,31.7,62.96,31.7z M52.88,60.42
		l0.01-16.45L62,34.86l-0.03,25.56H52.88z"/>
	<path fill="#DC1E35" d="M40.16,42.56C40.16,42.56,40.16,42.56,40.16,42.56c0.26,0,0.5-0.1,0.68-0.28L63.57,19.3
		c0.37-0.38,0.37-0.98-0.01-1.35c-0.38-0.37-0.98-0.37-1.35,0.01l-22.06,22.3l-11.34-11.3c-0.01-0.01-0.01-0.01-0.02-0.02
		L18.31,18.5c-0.45-0.51-0.93-0.69-1.42-0.53c-0.27,0.09-0.72,0.35-0.8,1.13c0,0.03,0,0.06,0,0.1l0.09,42.18
		c0,0.53,0.43,0.95,0.96,0.95h10.93c0.53,0,0.95-0.43,0.96-0.95l0.06-17.61l0-11.85l10.4,10.36C39.66,42.46,39.9,42.56,40.16,42.56z
		 M27.17,43.5l-0.06,16.92h-9.02L18,20.89l9.16,9.13V43.5z"/>
</g>
</svg>
