<?xml version="1.0" encoding="UTF-8" standalone="yes"?>
<svg width="164" height="164" viewBox="0 0 164 164" fill="none" version="1.2" baseProfile="tiny-ps" xmlns="http://www.w3.org/2000/svg">
  <title>bimi-svg-tiny-12-ps</title>
  <rect width="164" height="164" fill="#007782"/>
  <path d="M112.08 32.7794C115.98 29.3832 117.426 28.377 118.621 28.377C120.068 28.377 121.011 29.509 120.508 31.0184C118.999 35.9869 116.483 49.5715 114.282 61.5838C112.646 70.3886 109.187 87.1179 108.496 90.5769C104.659 109.759 100.697 129.507 85.8546 136.739C81.5779 138.878 78.5591 139.255 75.5403 139.255C69.1254 139.255 62.3331 137.809 60.4463 130.199C54.4087 105.922 49 68.6906 49 45.9866C49 42.5905 49.5031 41.2069 50.8868 39.3201C53.7798 35.6724 59.2514 33.6599 64.7858 33.6599C75.729 33.6599 78.1189 39.1943 78.1189 50.1375C78.1189 51.7727 77.8673 54.5399 77.9931 56.7411C79.0623 68.6277 81.8295 112.023 83.1502 118.69C89.7539 103.281 97.4896 49.8859 107.426 35.6095C109.187 32.9052 110.697 33.2825 112.08 32.7794Z" fill="white"/>
</svg>