<?xml version="1.0" encoding="utf-8"?>
<!-- Generator: Adobe Illustrator 27.4.1, SVG Export Plug-In . SVG Version: 6.00 Build 0)  -->
<svg version="1.2" baseProfile="tiny-ps" id="Layer_1" xmlns="http://www.w3.org/2000/svg" xmlns:xlink="http://www.w3.org/1999/xlink"
	viewBox="0 0 216 216" xml:space="preserve">
<title>Fastenal Company</title>
<rect fill="#FFFFFF" width="216" height="216"/>
<g>
	<g>
		<path fill="#0067B1" d="M194.7,122.3l7.2-25.1H192l-8.2,28.6l-0.2-28.6h-12l-16.3,28l8-28h-9.4l-4.1,17.5h-0.2l-2.7-17.5h-10.3
			l-7.2,25.1h-14.2l1.9-6.8h12.4l1.8-6.3H119l1.7-5.8h12.8l1.8-6.3h-21.5h-1.3H88l-0.8,2.8c-1.5-2.2-4.6-3.5-9.4-3.5
			c-7.7,0-13.4,3-15.1,8.9c-0.8,2.8-0.3,4.7,1.1,6.3c1.4,1.6,3.7,2.8,6.4,4.1c2.3,1.2,5,2.2,4.2,4.8c-0.5,1.6-1.9,3.1-4.3,3.1
			c-3.1,0-3.5-1.6-3-3.4l0.6-2.2h-9.2l-0.6,2.2l-0.1-23.1h-12L38.9,109l1.9-6.5H24.3l2.1-7.4h17.9l2.4-8.4H15.6l-12,41.8h13.2
			l5.1-17.6h15.9l-10.3,17.7h10l2.9-6.1h7.8l-0.3,6.1H58v-3c1.2,2.2,4.5,3.8,10.3,3.8c8.3,0,13.7-3.3,15.5-9.4
			c1.1-3.8,0.3-5.9-1.5-7.5c-1.9-1.6-4.8-2.7-8-4.4c-1.7-1-2.8-2-2-3.8c0.6-1.4,2.1-2.2,4.1-2.1c3.3,0.2,2.4,2.7,2,4.5h9.2
			c0.4-1.1,0.6-2.2,0.6-3.2H94l-7.2,25.1h9.9l7.2-25.1h6.8l-7.2,25.1h24.1h0.5h9l4.1-17.5l0.1-0.1l2.8,17.6h9.2h1h9l2.9-6.1h7.8
			l-0.3,6.1h9.2h0.8H205l1.8-6.3H194.7z M48.9,117h-5.8l6.9-14.1h0.1L48.9,117z M174.7,117h-5.8l6.9-14.1h0.1L174.7,117z"/>
	</g>
	<g>
		<path fill="#0067B1" d="M210.1,100.2c0.4-0.1,0.8-0.3,0.8-0.8c0-0.6-0.4-0.9-1.1-0.9h-1.2v3.1h0.5v-1.3h0.5l0.8,1.3h0.5
			L210.1,100.2z M209.2,99.8v-1h0.6c0.3,0,0.7,0.1,0.7,0.5c0,0.5-0.4,0.5-0.7,0.5H209.2z"/>
	</g>
	<g>
		<path fill="#0067B1" d="M209.7,97.3c-1.5,0-2.7,1.1-2.7,2.6s1.2,2.7,2.7,2.7c1.4,0,2.7-1.1,2.7-2.7
			C212.4,98.5,211.2,97.3,209.7,97.3z M209.7,102.2c-1.2,0-2.2-0.9-2.2-2.2c0-1.3,1-2.2,2.2-2.2s2.1,0.9,2.1,2.2
			C211.9,101.3,210.9,102.2,209.7,102.2z"/>
	</g>
</g>
</svg>
