<?xml version="1.0" encoding="UTF-8" standalone="yes"?>
<svg version="1.2" baseProfile="tiny-ps" viewBox="0 0 283.46 283.46" xml:space="preserve" xmlns="http://www.w3.org/2000/svg">
  <title>bimi-svg-tiny-12-ps</title>
  <g>
    <circle fill="#FFF200" stroke="#FFFFFF" stroke-width="0.9675" stroke-miterlimit="10" cx="141.73" cy="141.73" r="141.73"/>
    <path d="M232.73,191.83c-0.48-0.13-0.76,0.02-0.83,1.23c-0.72,11.76-7.54,24.81-12.75,24.13c-1.98-0.26-3.72-2.55-4.44-5.84&#xD;&#xA;&#x9;&#x9;c-3.7-17,7.18-69.05,8.29-73.37c0.95-3.68-1.25-7.46-3.71-8.13c-1.51-0.42-3.44,0.24-4.34,3.32c-2.67,9.13-12.23,40.55-22.89,61.72&#xD;&#xA;&#x9;&#x9;c-2.24,4.44-4.86,6.82-5.81,6.04c-0.95-0.78-1.8-3.19-1.17-8.75c2.27-20.15,14.47-57.38,20.49-72.84c1.27-3.27,0.29-6.2-0.93-7.71&#xD;&#xA;&#x9;&#x9;c-0.97-1.2-2.23-1.77-3.44-1.57c-1.54,0.26-2.31,1.49-3.14,3.78c-7.58,20.92-23.38,61.3-40.19,86.32&#xD;&#xA;&#x9;&#x9;c18.59-66.12,27.07-110.82,28.01-115.53c0.95-4.71,2.41-11.26,0.72-14.92c-1.57-3.38-3.88-5.41-6.69-5.84&#xD;&#xA;&#x9;&#x9;c-3.71-0.58-7.9,1.64-12.46,6.6c-8.13,8.84-21.16,36.16-25.71,45.42c-4.56-9.26-17.58-36.58-25.71-45.42&#xD;&#xA;&#x9;&#x9;c-4.56-4.96-8.75-7.17-12.46-6.6c-2.81,0.44-5.12,2.46-6.69,5.84c-1.7,3.67-0.23,10.21,0.72,14.92&#xD;&#xA;&#x9;&#x9;c0.94,4.71,9.42,49.41,28.01,115.53c-16.82-25.02-32.61-65.4-40.19-86.32c-0.83-2.29-1.6-3.52-3.14-3.78&#xD;&#xA;&#x9;&#x9;c-1.21-0.2-2.47,0.37-3.44,1.57c-1.23,1.51-2.21,4.44-0.93,7.71c6.03,15.46,18.22,52.69,20.49,72.84c0.63,5.57-0.22,7.97-1.17,8.75&#xD;&#xA;&#x9;&#x9;c-0.95,0.78-3.57-1.59-5.81-6.04c-10.66-21.16-20.22-52.59-22.89-61.72c-0.9-3.08-2.84-3.74-4.34-3.32&#xD;&#xA;&#x9;&#x9;c-2.46,0.68-4.66,4.46-3.71,8.13c1.11,4.32,12,56.37,8.29,73.37c-0.72,3.29-2.46,5.59-4.44,5.84&#xD;&#xA;&#x9;&#x9;c-5.21,0.67-12.03-12.37-12.75-24.13c-0.08-1.21-0.36-1.36-0.83-1.23c-0.48,0.13-0.7,0.62-0.65,1.32&#xD;&#xA;&#x9;&#x9;c0.77,11.02,6.52,27.81,15.08,26.45c2.78-0.44,8.52-3.58,10.36-21.24c1.12-10.77,0.84-24.2-0.75-37.4&#xD;&#xA;&#x9;&#x9;c4.05,11.58,9.06,24.57,14.36,35.07c2.78,5.53,5.95,8.04,8.62,7.43c3.47-0.78,5.76-4.48,5.57-15.27c-0.17-9.4-2.6-22.89-5.17-35.15&#xD;&#xA;&#x9;&#x9;c8.53,19.69,18.91,40.48,29.71,54.69c1.13,1.48,2.98,2.05,4.42,1.35c1.01-0.5,1.9-1.72,1.37-3.67&#xD;&#xA;&#x9;&#x9;c-2.33-8.65-24.9-105.75-28.89-128.86c-0.7-4.05-1.42-8.23-0.32-9.34c1.99-2.01,6.86,1.87,9.7,4.96&#xD;&#xA;&#x9;&#x9;c8.18,8.9,22.92,37.15,26.73,45.31c0.05,0.1,0.09,0.16,0.14,0.24c0.01,0.26,0.12,0.46,0.34,0.58c0.12,0.06,0.25,0.08,0.38,0.07&#xD;&#xA;&#x9;&#x9;c0.13,0.01,0.25,0,0.38-0.07c0.22-0.12,0.33-0.31,0.34-0.58c0.05-0.08,0.09-0.14,0.14-0.24c3.81-8.16,18.55-36.42,26.73-45.31&#xD;&#xA;&#x9;&#x9;c2.84-3.09,7.71-6.98,9.7-4.96c1.1,1.11,0.38,5.29-0.32,9.34c-3.99,23.11-26.56,120.2-28.89,128.86c-0.52,1.95,0.37,3.17,1.37,3.67&#xD;&#xA;&#x9;&#x9;c1.43,0.7,3.29,0.14,4.42-1.35c10.8-14.21,21.18-35,29.71-54.69c-2.57,12.26-5,25.75-5.17,35.15c-0.19,10.79,2.1,14.49,5.57,15.27&#xD;&#xA;&#x9;&#x9;c2.66,0.6,5.83-1.91,8.62-7.43c5.29-10.51,10.3-23.49,14.36-35.07c-1.59,13.21-1.88,26.64-0.75,37.4&#xD;&#xA;&#x9;&#x9;c1.84,17.66,7.58,20.8,10.36,21.24c8.56,1.36,14.31-15.43,15.08-26.45C233.43,192.45,233.21,191.96,232.73,191.83z"/>
  </g>
</svg>