<?xml version="1.0" encoding="UTF-8"?>
<svg xmlns="http://www.w3.org/2000/svg" baseProfile="tiny-ps" version="1.2" viewBox="0 0 600 600" >
<title>Eland Cables Limited</title>
  <!-- Generator: Adobe Illustrator 28.6.0, SVG Export Plug-In . SVG Version: 1.2.0 Build 709)  -->
  <g>
    <g id="Layer_1">
      <rect width="600" height="600" fill="#f57f29"/>
      <path d="M145.3,337.95c-7.52-9.93-20.49-14.57-32.78-14.57-28.84,0-48.81,20.93-48.81,50.06,0,23.58,18.39,48.48,48.15,48.48,21.43,0,32.67-12.59,35.43-16.42l-10.71-8.08c-5.56,7.8-13.75,12.57-24.46,12.57-21.82,0-34.91-16.82-34.91-36.56,0-21.33,13.88-38.15,34.91-38.15,8.59,0,17.32,3.84,22.61,10.73l10.57-8.08ZM148.09,419.53h14.82l9.26-23.17h44.56l9.38,23.17h14.82l-40.07-93.76h-11.5l-41.27,93.76ZM176.66,385.24l17.72-43.05h.25l17.46,43.05h-35.43ZM250.44,419.53h32.14c18.25,0,32.93-9.27,32.93-26.09,0-12.59-8.99-22.52-20.24-23.31v-.27c9.52-3.17,16.14-9.92,16.14-20.65,0-15.9-12.16-23.44-28.43-23.44h-32.54v93.76ZM263.16,336.88h19.97c10.17,0,14.79,6.35,14.79,13.78,0,10.21-7.8,14.04-17.45,14.04h-17.31v-27.81ZM263.16,375.82h18.76c12.3,0,20.11,5.56,20.11,16.69,0,13.24-12.57,15.89-20.24,15.89h-18.64v-32.59ZM331.13,419.53h55.66v-11.91h-42.99v-81.85h-12.68v93.76ZM397.11,419.53h62.81v-11.91h-50.11v-30.07h44.43v-11.92h-44.43v-27.94h47.73v-11.92h-60.43v93.76ZM467.59,408.94c6.35,8.87,17.86,12.97,29.9,12.97,17.99,0,32.53-10.87,32.53-29.02,0-33.78-46.17-19.59-46.17-43.31,0-5.82,4.24-14.3,18.26-14.3,7.28,0,13.49,3.32,16.67,8.2l10.31-9.39c-7-8.6-16.78-10.72-26.98-10.72-22.48,0-31.73,15.23-31.73,26.21,0,36.57,46.14,23.19,46.14,44.78,0,10.33-10.31,15.62-18.63,15.62-7.56,0-15.35-3.18-19.86-10.07l-10.45,9.02Z" fill="#fff"/>
      <path d="M65.81,298.83h68.83v-19.89h-47.31v-19.9h42.36v-19.9h-42.36v-18.24h44.84v-19.89h-66.36v97.8ZM149.96,298.83h61.38v-19.89h-39.86v-77.92h-21.52v97.8ZM218.66,298.83h23.73l8.13-20.72h37.93l8.42,20.72h24.28l-42.49-97.8h-17.79l-42.21,97.8ZM281.14,259.88h-23.86l11.85-30.4,12,30.4ZM328.18,298.83h21.52v-69.62h.27l42.62,69.62h28.16v-97.8h-21.52v67.96h-.27l-41.53-67.96h-29.24v97.8ZM437.84,298.83h35.17c29.11,0,54.91-16.99,54.91-48.63,0-35.78-26.34-49.18-57.79-49.18h-32.29v97.8ZM459.37,220.92h12.7c18.2,0,33.51,8.98,33.51,28.18,0,22.24-15.03,29.85-35.05,29.85h-11.17v-58.03Z" fill="#fff"/>
    </g>
  </g>
</svg>