<?xml version="1.0" encoding="utf-8" standalone="yes"?><!-- Generator: Adobe Illustrator 27.7.0, SVG Export Plug-In . SVG Version: 6.00 Build 0)  --><svg xmlns="http://www.w3.org/2000/svg" xmlns:xlink="http://www.w3.org/1999/xlink" version="1.2" baseProfile="tiny-ps" viewBox="0 0 30 30" xml:space="preserve"><title>Ontraport</title><path fill-rule="evenodd" fill="#1285FF" d="M0,0v30h30V0H0z"></path><path fill-rule="evenodd" fill="#FFFFFF" d="M24.9,19.6h-1.3l0-4.8c0-2-0.9-3-2.7-3c-1.8,0-3,1.3-3,3.4v3.8c0,0.1,0,0.6,0,0.7h-1.2  c0-0.1,0-0.6,0-0.7l0-7.5h1.2v0.8h0c0.6-1,1.8-1.6,3.2-1.6c2.4,0,3.7,1.5,3.7,4.1V19.6z M5,15.1c0,2.7,1.9,4.5,4.5,4.5  c2.7,0,4.6-1.8,4.6-4.5c0-2.7-1.9-4.5-4.6-4.5C6.9,10.6,5,12.4,5,15.1z M6.3,15.1c0-2,1.3-3.4,3.3-3.4c2,0,3.3,1.4,3.3,3.4  s-1.3,3.4-3.3,3.4C7.6,18.5,6.3,17.1,6.3,15.1z"></path></svg>