<?xml version="1.0" encoding="UTF-8" standalone="yes"?>
<svg version="1.2" baseProfile="tiny-ps" viewBox="0 0 1080 1080" xml:space="preserve" xmlns="http://www.w3.org/2000/svg">
  <title>DeMayo</title>
  <g>
    <g>
      <circle fill="#FEFEFE" cx="540" cy="540" r="763.7"/>
      <path fill="#025689" d="M357.7,893.1c-15.4-0.2-30.7-0.5-46.1-0.8c-2.7,0-5.4-0.2-8.2-0.3c-17.8-0.3-35.5-1.3-53.2-2.4&#xA;&#x9;&#x9;&#x9;c-15.5-1-30.9-2.2-46.4-3.8c-53-5.4-105.5-14-157.1-27.6c-8.7-2.3-17.2-4.8-25.8-7.3c-1.1-0.3-2.2-0.6-3.2-1.1&#xA;&#x9;&#x9;&#x9;c-2.2-1.1-3-2.9-2.4-5.2c0.5-2,1.9-3.1,4.3-2.9c3.5,0.3,7,0.9,10.4,1.5c11,1.8,22.2,3.2,33.3,4.6c14.8,1.9,29.6,3.1,44.4,4.4&#xA;&#x9;&#x9;&#x9;c11.9,1.1,23.9,1.8,35.9,2.3c31.7,1.4,63.3,1.6,95,0.7c15.8-0.4,31.7-1.1,47.5-2c13.2-0.8,26.5-2.1,39.7-3.3&#xA;&#x9;&#x9;&#x9;c9.4-0.9,18.8-1.8,28.1-2.9c10.3-1.3,20.6-2.7,30.9-4.2c12.8-1.9,25.6-3.9,38.3-6.3c40.9-7.7,81.2-17.9,120.6-31&#xA;&#x9;&#x9;&#x9;c47-15.6,92.4-34.8,135.9-58.5c34.3-18.7,66.1-40.8,94.6-67.6c18.2-17.2,34.8-35.8,48.7-56.6c15.2-22.7,26.4-47.1,32.8-73.6&#xA;&#x9;&#x9;&#x9;c4.7-19.3,6.4-38.8,5-58.6c-2.1-30.1-10.9-58.3-25.2-84.9c-11.8-21.8-26.7-41.3-43.6-59.4c-30-32-64.4-58.3-102.4-80.1&#xA;&#x9;&#x9;&#x9;c-18.3-10.5-37.2-19.8-56.7-28.1c-4.9-2.1-9.7-4.2-14.3-6.8c-3.9-2.3-7.5-4.8-10.6-8.1c-5-5.3-7.7-11.7-7.9-19&#xA;&#x9;&#x9;&#x9;c-0.1-3.7-0.1-7.3,0.7-11c0.6-2.8,0.6-5.7,0.5-8.6c-0.1-3.2-0.1-6.4-0.1-9.6c0-8.6,1.3-9.7,9.5-8c13.2,2.6,26.2,5.7,39.3,9&#xA;&#x9;&#x9;&#x9;c34.5,8.6,68.4,18.9,101.6,31.6c45.4,17.3,88.7,38.9,129.4,65.6c24.1,15.9,47,33.3,67.9,53.2c21.7,20.8,40.8,43.8,56.2,69.6&#xA;&#x9;&#x9;&#x9;c13.4,22.5,24,46.2,30.4,71.7c5.4,21.4,7.4,43.2,5.9,65.2c-1.9,28.1-9.4,54.7-21.3,80.2c-15.2,32.5-35.7,61.3-60.5,87.1&#xA;&#x9;&#x9;&#x9;c-23.1,24-49,44.5-76.8,62.6c-43.7,28.5-90.2,51.4-139.1,69.6c-36,13.4-72.8,24.1-110.2,32.8c-22,5.1-44.1,9.5-66.3,13.2&#xA;&#x9;&#x9;&#x9;c-17.7,2.9-35.4,5.5-53.2,7.1c-11,1-21.9,2.3-32.9,3.3c-5.1,0.5-10.2,0.8-15.3,1.1c-16.9,0.9-33.8,2-50.8,2.4&#xA;&#x9;&#x9;&#x9;c-18.2,0.4-36.5,0.9-54.7,0.7c-0.8,0-1.6,0-2.4,0C357.7,892.9,357.7,893,357.7,893.1z"/>
      <path d="M329.5,526.1c0,72.9,0,145.9,0,218.8c0,2.2,0,4.5-0.1,6.7c-0.1,2-1.3,3.2-3.3,3.5c-0.6,0.1-1.3,0.1-1.9,0.1&#xA;&#x9;&#x9;&#x9;c-7.4-0.1-14.7-0.2-22.1-0.3c-1.4,0-2.9-0.2-4.3-0.4c-1.5-0.3-2.2-1-2.3-2.6c-0.1-1.6-0.1-3.2-0.1-4.8c0-90.7,0-181.4,0-272.1&#xA;&#x9;&#x9;&#x9;c0-56.8,0-113.6,0-170.3c0-1.6,0-3.2,0.1-4.8c0.1-1.6,0.7-2.2,2.4-2.4c1.3-0.2,2.6-0.2,3.8-0.2c7.2,0,14.4,0,21.6,0&#xA;&#x9;&#x9;&#x9;c1,0,1.9,0.1,2.9,0.2c2.7,0.3,3.1,0.8,3.2,3.7c0.1,3,0.1,6.1,0.1,9.1C329.5,382.2,329.5,454.1,329.5,526.1z"/>
      <path fill="#B7B7B7" d="M242.9,535.7c0,81,0,161.9,0,242.9c0,3.7,0,7.4-0.1,11c-0.1,1.7-0.6,2.2-2.4,2.3c-0.8,0.1-1.6,0.1-2.4,0.1&#xA;&#x9;&#x9;&#x9;c-8.6,0-17.3,0.1-25.9,0c-6.1,0-8.4-3-7.1-8.8c0.2-1.1,0.4-2.2,0.4-3.3c0.1-1.3,0-2.6,0-3.8c0-163.3,0-326.7,0-490&#xA;&#x9;&#x9;&#x9;c0-1.4,0.1-2.9-0.1-4.3c-0.2-1.7-1.4-3-3.1-3.2c-1.3-0.2-2.6-0.1-3.8-0.1c-15.8,0-31.7,0-47.5,0c-1.6,0-3.2,0-4.8-0.1&#xA;&#x9;&#x9;&#x9;c-2.7-0.2-4.7-2.2-4.9-5c-0.1-1.1,0-2.2,0-3.4c0-6.9,0-13.8,0-20.6c0-1,0-1.9,0-2.9c0.2-2.5,1.5-4.2,3.8-5.1&#xA;&#x9;&#x9;&#x9;c0.9-0.3,1.9-0.6,2.8-0.6c5.8,0.1,11.5-0.8,17.2-0.8c101.3,0.1,202.5,0.1,303.8,0c4,0,7.9,1.3,11.9,0.9c0.8-0.1,1.5,0.5,1.9,1.3&#xA;&#x9;&#x9;&#x9;c0.7,1.3,1.2,2.6,1.2,4.1c0,9.1,0.1,18.2,0,27.4c0,3.2-1.6,4.6-4.7,4.8c-1.3,0.1-2.6,0-3.8,0c-14.6,0-29.1,0-43.7,0&#xA;&#x9;&#x9;&#x9;c-1.1,0-2.2-0.1-3.4,0c-2.3,0.2-3.5,1.4-3.8,3.6c-0.1,1.1,0,2.2,0,3.4c0,164.1,0,328.3,0,492.4c0,3.5,0,7-0.1,10.6&#xA;&#x9;&#x9;&#x9;c-0.1,2.9-0.8,3.6-3.8,3.6c-6.9,0.1-13.8,0-20.6,0.1c-2.4,0-4.8,0.1-7.2,0c-3-0.1-4.3-1.4-4.8-4.2c-0.7-3.9-0.9-7.9-0.9-11.9&#xA;&#x9;&#x9;&#x9;c0-157.9,0-315.8,0-473.7c0-3.5,0-7,0-10.6c0-2.9-0.1-5.7,0.6-8.6c0.6-2.3-0.4-3.6-2.7-4.3c-0.8-0.2-1.6-0.3-2.4-0.3&#xA;&#x9;&#x9;&#x9;c-1-0.1-1.9,0-2.9,0c-43.4,0-86.7,0-130.1,0c-1.3,0-2.6,0-3.8,0.1c-1.7,0.1-2.6,1-2.7,2.8c-0.1,1.6-0.1,3.2-0.1,4.8&#xA;&#x9;&#x9;&#x9;c0,35.7,0,71.4,0,107C242.9,440.7,242.9,488.2,242.9,535.7z"/>
      <path fill="#858585" d="M312.5,198.6c-69.7,0-139.5,0-209.2,0c-1.9,0-3.8,0-5.8,0c-3.6-0.2-4.4-1-5-4.5c-0.2-0.9-0.2-1.9-0.2-2.9&#xA;&#x9;&#x9;&#x9;c0-6.2-0.1-12.5,0-18.7c0-2.4,0.3-4.8,0.7-7.2c0.4-2.5,1.7-3.6,4.2-3.7c2.4-0.1,4.8,0,7.2,0c42.5,0,85.1-0.3,127.6,0.1&#xA;&#x9;&#x9;&#x9;c42.2,0.4,84.5,0.5,126.7,0.2c55.7-0.4,111.3,0,167-0.3c4.4,0,5.7,0.9,6.7,5.1c0.2,0.9,0.3,1.9,0.3,2.8c0,7.7,0,15.4,0.1,23&#xA;&#x9;&#x9;&#x9;c0,1.5-0.2,2.8-1.2,4c-1,1.2-2.1,1.9-3.7,2c-1.6,0-3.2,0-4.8,0c-40.8,0-81.6,0-122.4,0C371.3,198.6,341.9,198.6,312.5,198.6z"/>
      <path d="M422.8,534c0,79,0,158.1,0,237.1c0,5.3-0.1,10.6-0.3,15.8c-0.1,2.3-0.6,2.9-2.9,2.9c-9,0-17.9,0-26.9,0&#xA;&#x9;&#x9;&#x9;c-2.6,0-3.4-0.8-3.5-3.5c-0.1-2.2-0.1-4.5-0.1-6.7c0-113.8,0-227.5,0-341.3c0-48.8,0-97.6,0-146.4c0-4.3-0.1-8.6-0.2-13&#xA;&#x9;&#x9;&#x9;c0-1.5-0.6-2-2.1-2.1c-1.3-0.1-2.6-0.1-3.8-0.1c-13.1,0-26.2-0.1-39.4-0.1c-31.4,0-62.7,0-94.1,0c-1.9,0-3.8,0-5.7,0.2&#xA;&#x9;&#x9;&#x9;c-1.7,0.2-2.5,1.2-2.8,2.8c-0.1,0.8-0.1,1.6-0.1,2.4c0,1.6,0,3.2,0,4.8c0,162.2,0,324.5,0,486.7c0,4.3,0,8.6-0.1,13&#xA;&#x9;&#x9;&#x9;c0,2.5-0.6,3-3.1,3.2c-0.6,0.1-1.3,0-1.9,0.1c-7.8,0-15.7,0-23.5,0.1c-0.8,0-1.6,0-2.4-0.1c-1.8-0.2-2.6-0.9-2.7-2.7&#xA;&#x9;&#x9;&#x9;c-0.1-1.3-0.1-2.6-0.1-3.8c0-6.6,0.1-13.1,0.1-19.7c0-158.1,0-316.1,0-474.2c0-2.6,0-5.1-0.1-7.7c-0.3-4.6-0.7-4.9-5.1-5&#xA;&#x9;&#x9;&#x9;c-1.6,0-3.2,0-4.8,0c-14.9,0-29.8,0-44.6,0c-1.3,0-2.6,0-3.8-0.1c-2.4-0.2-3.8-1.5-4.2-3.8c-0.2-0.9-0.2-1.9-0.2-2.9&#xA;&#x9;&#x9;&#x9;c0-7.2,0-14.4,0-21.6c0-0.8,0-1.6,0.1-2.4c0.2-1.4,1.1-2.3,2.5-2.6c0.8-0.2,1.6-0.2,2.4-0.2c1.8,0,3.5,0,5.3,0&#xA;&#x9;&#x9;&#x9;c106.4,0,212.8,0,319.2,0c1.4,0,2.9,0,4.3,0c3.3,0.1,3.8,0.5,3.8,4c0,8.6,0,17.3-0.1,25.9c0,0.5,0,1,0,1.4&#xA;&#x9;&#x9;&#x9;c-0.1,1.8-0.4,2.1-2.4,2.1c-1.3,0-2.6,0-3.8,0c-15.4,0-30.7,0-46.1,0c-1.1,0-2.3-0.1-3.4,0.1c-2.2,0.3-3.4,1.6-3.4,3.9&#xA;&#x9;&#x9;&#x9;c0,3.7,0.1,7.4,0.1,11C422.8,372.4,422.8,453.2,422.8,534z"/>
      <path fill="#010101" d="M312.8,196.5c-68.3,0-136.6,0-204.9,0c-3.5,0-7-0.2-10.5-0.3c-2.1-0.1-2.8-0.9-3.1-2.9&#xA;&#x9;&#x9;&#x9;c-0.1-1-0.1-1.9-0.1-2.9c0-6.6,0-13.1,0-19.7c0-0.8,0-1.6,0.1-2.4c0.3-2.5,1.1-3.2,3.8-3.3c1.1-0.1,2.2,0,3.4,0&#xA;&#x9;&#x9;&#x9;c91.5,0,183,0,274.5,0c48.5,0,96.9,0,145.4-0.1c1.9,0,3.8,0,5.8,0.1c2.2,0.1,3.1,1,3.5,3.2c0.1,0.8,0.2,1.6,0.2,2.4&#xA;&#x9;&#x9;&#x9;c0,7,0,14.1,0,21.1c0,0.5,0,1,0,1.4c-0.2,2.1-0.9,2.9-2.9,3c-1.6,0.1-3.2,0.1-4.8,0.1c-48.1,0-96.3,0-144.4,0&#xA;&#x9;&#x9;&#x9;c-21.9,0-43.8,0.3-65.7,0.4C312.8,196.6,312.8,196.5,312.8,196.5z"/>
    </g>
  </g>
</svg>