<?xml version="1.0"?><svg version="1.2" baseProfile="tiny-ps" viewBox="0 0 300 300" xmlns="http://www.w3.org/2000/svg" xmlns:xlink="http://www.w3.org/1999/xlink"><title>Grupo Caleta</title><g><g fill="#fdfdfd" transform="matrix(.1 0 0 -.1 0 300)"><path d="M0 1500V0h3000v3000H0V1500z"/></g><g fill="#c3caba" transform="matrix(.1 0 0 -.1 0 300)"><path d="M1240 2448c-168-34-347-107-452-184l-48-34v-616l62-46c86-63 171-103 310-149 65-22 123-39 128-39h10v457l63 27 62 26h245v568l-16 6c-9 3-73 6-142 5l-127-1-95-20zm-50-812v-174l-57 18c-106 32-203 78-281 132l-44 30 9 9c8 8 352 157 366 158l7 1v-174zm538 317-3-228-40-20-40-20-145-5-145-5-3-286-2-287 17-7c10-5 74-9 143-11l125-3 95 19c160 32 310 92 438 177l82 54v605l-27 26c-85 79-309 183-460 213l-33 7-2-229zm164 111c85-30 175-75 236-118l42-30-7-7c-7-6-281-124-345-148l-28-11v340h14c8 0 48-12 88-26zM105 806c-17-7-43-28-58-45l-26-32-7-34-6-35 6-33 6-34 23-21 22-21 45-12 46-12 49 9 49 9 7 25c4 14 7 46 8 73l1 47H162l-5-22c-7-26-1-38 19-38h14v-40h-47l-27 21-26 20v71l30 30 31 30 60-4 60-4-3 30-3 31-65 2-65 3-30-14zm242 7c-3-5-7-26-8-48l-4-40 33-3 34-3 5 20 5 21h18c10 0 23-6 29-14l12-15-11-20-11-21H331l-5-17c-2-10-7-44-11-76l-7-58 39 3 38 3 3 43 3 43 22-3 21-3 9-42 8-43h76l-8 43c-4 23-10 50-14 59l-7 16 21 21 21 21v31c0 17-5 39-10 49l-10 19-38 11c-43 12-129 13-135 3zm250 0c-3-5-10-51-16-104l-12-95 10-27 10-26 30-16c39-20 82-19 125 2l35 16 15 31c13 28 36 159 36 207v19h-69l-5-17c-2-10-8-49-12-88-4-38-10-80-15-92l-8-21-22-7-21-7-16 15-15 16 10 93c5 51 8 96 6 101-2 4-17 7-33 7s-31-3-33-7zm279-9c-3-9-6-31-6-50v-34h68l5 21 6 21 23-4 23-3 3-18 4-18-12-14-12-15H860l-1-17c0-10-4-44-8-75l-7-58h74l6 44 7 43 40 6c22 3 51 12 64 21l24 16 10 36 10 36-10 24-9 25-35 14-34 15H882l-6-16zm290-3c-16-11-37-32-47-49l-19-29-6-44-6-45 16-37 15-38 38-15 37-16 40 5 39 6 26 18 26 19 23 45 23 44-4 49-4 50-32 28-31 28h-105l-29-19zm112-53 12-12v-77l-15-28c-15-30-33-41-65-41h-19l-12 21-11 22 5 44 5 44 17 19 18 20h53l12-12zm298 50-39-23-19-37-20-37v-89l17-25 16-25 40-16c41-17 79-20 117-10l22 6v58l-39-6-38-6-22 12-22 11-10 26-10 26 12 34 11 34 24 15 23 16 48-4 48-3v60l-60 3-60 2-39-22zm274-38c-16-33-30-62-30-65s15-5 34-5h34l13 32 13 31 7-19c4-10 8-31 8-46l1-28h-172l4-37 5-38-8-22-9-23h72l11 30 11 30h104l7-30 7-30h76l-35 140-35 140h-88l-30-60zm250 58c0-2-7-52-15-113-8-60-15-122-15-137v-28h178l5 22c3 12 4 25 1 30l-5 8h-102l7 48c4 26 9 75 13 110l6 62h-37c-20 0-36-1-36-2zm205-59-7-60-13-5c-7-3-15-14-18-25l-5-20 13-5 14-6-6-49-6-50 99 3 99 3 3 23 3 22h-122l3 23 3 22 58 3 57 3v49h-99l-6 10c-3 5-3 21 1 35l6 25h118v60h-188l-7-61zm222 54c-4-3-7-17-7-30v-23h63l-6-42c-3-24-9-73-13-110l-7-68h72l5 33c3 17 8 55 11 82 3 28 8 62 11 77l5 27 32 3 32 3 3 28 3 27h-99c-54 0-102-3-105-7zm260-48c-15-30-27-60-27-65v-10h60l12 25c13 29 28 33 28 8 0-10 3-28 6-40l6-22-88-3-89-3-3-27-3-28h22l-16-30-16-30h79l11 31 10 30 53-3 52-3 6-25 6-25 37-3 37-3v8c0 4-15 67-33 138l-33 130-45 3-44 3-28-56z"/></g><g fill="#5fb80b" transform="matrix(.1 0 0 -.1 0 300)"><path d="M1310 2459c-205-34-438-127-547-218l-23-19v-602l49-38c26-21 84-57 129-80l81-43 106-34c58-19 115-35 126-35h19v449l56 25 56 26h258v568l-31 6c-44 8-213 5-279-5zm-124-996c-9-9-165 50-246 93-83 44-149 90-140 97 3 1 91 39 195 83l190 81 3-175c1-96 1-177-2-179zm544 487v-229l-56-25-56-26h-258l2-287 3-288 125-3 125-3 75 10 76 10 106 35c123 40 204 78 300 142l68 46v613l-55 40c-101 73-242 137-387 175l-68 18v-228zm146 124c92-31 175-71 251-122l54-35-8-8c-12-12-363-159-379-159h-14v350h9c5 0 44-12 87-26zM130 811c-42-13-70-34-92-69l-20-33-1-50-1-50 32-32 32-32h84c47 0 86 2 89 5 2 3 7 33 11 68l7 62H160v-38l19-5 20-5-6-21-5-21h-54l-22 16-22 15v85l15 21 15 21 36 12 36 12 39-6 39-6v48l-22 6c-30 8-87 6-118-3zm1066-1c-37-12-66-38-82-77l-14-32V598l29-29 29-29h103l29 15 30 15 20 40 20 39v92l-15 28-14 29-32 11c-37 13-62 13-103 1zm85-57 14-16v-84l-14-25c-7-14-23-30-36-36l-23-11-21 6-20 5-11 34-11 33 10 37c5 20 18 45 27 55l17 19h55l13-17zm324 52-40-14-22-26c-12-14-28-43-34-64l-12-39 7-34 6-35 26-24 26-24h143l3 23 3 22h-101l-20 20-20 20v68l25 30 26 31 28 6 28 6 25-10 26-10 5 25 5 25-25 10c-33 12-60 11-108-6zm-1258-2c-4-3-7-21-7-40v-33h58l6 16 6 15 27-3 28-3 3-20c1-11-2-26-7-34l-9-15-60-4-60-4-6-37c-3-20-6-51-6-68v-33h59l7 45c7 49 14 58 37 49l14-5 9-42 9-42 33-3 34-3-7 43c-4 24-11 50-15 58l-8 14 24 29 24 29v49l-25 24-24 25h-69c-38 0-72-3-75-7zm249-9c-3-9-9-59-12-113l-7-97 28-22 28-22h43c56 0 89 13 109 44l16 25 10 73c5 40 11 85 14 101l5 27h-70v-12c-1-36-22-157-31-180l-11-28h-59l-7 21-8 20 8 67c4 37 7 77 7 90l1 22h-58l-6-16zm284-1c0-10-3-28-6-40l-6-23h72v31l28-3 27-3 3-24 4-25-18-13-18-13H860v-24c0-13-3-44-6-70l-7-47 34 3 34 3 5 45 5 45 49 6 49 5 23 28 24 27v32c0 38-7 50-37 66l-22 11H880v-17zm975-33c-14-27-25-52-25-55s13-5 28-5h29l12 27 13 28 9-16c5-9 10-32 11-50l3-34-87-3-88-3v-19c0-10 5-22 10-25l10-6-10-19c-5-10-10-23-10-29v-11h56l15 33 14 32 52 3 52 3 9-33 8-33 33-3 34-3-6 23c-3 13-18 74-33 136l-28 112h-86l-25-50zm236-47c-7-54-15-115-18-135l-6-38h183v50h-112l6 28c3 15 8 52 11 82s8 67 11 83l6 27h-70l-11-97zm219 68c0-16-3-43-6-60l-6-31h-28v-50h23l-5-50-5-50h187v50h-110v50h110v9c0 5 3 16 6 25l6 16h-112v70h118l6 16c3 9 6 20 6 25v9h-190v-29zm214 14c-3-8-3-19 1-25l6-10h56l-8-57c-4-32-10-82-13-110l-7-53h68l13 110 13 110h67v50h-191l-5-15zm263-40-27-55h60l12 25c6 14 14 25 18 25 8 0 20-50 20-81v-19h-168l-5-20-5-20h20l-5-17c-2-10-8-26-12-35l-7-18h62l15 36 14 35 53-3 52-3 8-32 9-33h67l-25 98c-13 53-29 114-34 135l-10 37h-85l-27-55z"/></g><g fill="#89848f" transform="matrix(.1 0 0 -.1 0 300)"><path d="M1310 2459c-205-34-438-127-547-218l-23-19v-602l49-38c26-21 84-57 129-80l81-43 106-34c58-19 115-35 126-35h19v449l56 25 56 26h258v568l-31 6c-44 8-213 5-279-5zm-124-996c-9-9-165 50-246 93-83 44-149 90-140 97 3 1 91 39 195 83l190 81 3-175c1-96 1-177-2-179zM130 811c-42-13-70-34-92-69l-20-33-1-50-1-50 32-32 32-32h84c47 0 86 2 89 5 2 3 7 33 11 68l7 62H160v-38l19-5 20-5-6-21-5-21h-54l-22 16-22 15v85l15 21 15 21 36 12 36 12 39-6 39-6v48l-22 6c-30 8-87 6-118-3zm1066-1c-37-12-66-38-82-77l-14-32V598l29-29 29-29h103l29 15 30 15 20 40 20 39v92l-15 28-14 29-32 11c-37 13-62 13-103 1zm85-57 14-16v-84l-14-25c-7-14-23-30-36-36l-23-11-21 6-20 5-11 34-11 33 10 37c5 20 18 45 27 55l17 19h55l13-17zm324 52-40-14-22-26c-12-14-28-43-34-64l-12-39 7-34 6-35 26-24 26-24h143l3 23 3 22h-101l-20 20-20 20v68l25 30 26 31 28 6 28 6 25-10 26-10 5 25 5 25-25 10c-33 12-60 11-108-6zm-1258-2c-4-3-7-21-7-40v-33h58l6 16 6 15 27-3 28-3 3-20c1-11-2-26-7-34l-9-15-60-4-60-4-6-37c-3-20-6-51-6-68v-33h59l7 45c7 49 14 58 37 49l14-5 9-42 9-42 33-3 34-3-7 43c-4 24-11 50-15 58l-8 14 24 29 24 29v49l-25 24-24 25h-69c-38 0-72-3-75-7zm249-9c-3-9-9-59-12-113l-7-97 28-22 28-22h43c56 0 89 13 109 44l16 25 10 73c5 40 11 85 14 101l5 27h-70v-12c-1-36-22-157-31-180l-11-28h-59l-7 21-8 20 8 67c4 37 7 77 7 90l1 22h-58l-6-16zm284-1c0-10-3-28-6-40l-6-23h72v31l28-3 27-3 3-24 4-25-18-13-18-13H860v-24c0-13-3-44-6-70l-7-47 34 3 34 3 5 45 5 45 49 6 49 5 23 28 24 27v32c0 38-7 50-37 66l-22 11H880v-17zm975-33c-14-27-25-52-25-55s13-5 28-5h29l12 27 13 28 9-16c5-9 10-32 11-50l3-34-87-3-88-3v-19c0-10 5-22 10-25l10-6-10-19c-5-10-10-23-10-29v-11h56l15 33 14 32 52 3 52 3 9-33 8-33 33-3 34-3-6 23c-3 13-18 74-33 136l-28 112h-86l-25-50zm236-47c-7-54-15-115-18-135l-6-38h183v50h-112l6 28c3 15 8 52 11 82s8 67 11 83l6 27h-70l-11-97zm219 68c0-16-3-43-6-60l-6-31h-28v-50h23l-5-50-5-50h187v50h-110v50h110v9c0 5 3 16 6 25l6 16h-112v70h118l6 16c3 9 6 20 6 25v9h-190v-29zm214 14c-3-8-3-19 1-25l6-10h56l-8-57c-4-32-10-82-13-110l-7-53h68l13 110 13 110h67v50h-191l-5-15zm263-40-27-55h60l12 25c6 14 14 25 18 25 8 0 20-50 20-81v-19h-168l-5-20-5-20h20l-5-17c-2-10-8-26-12-35l-7-18h62l15 36 14 35 53-3 52-3 8-32 9-33h67l-25 98c-13 53-29 114-34 135l-10 37h-85l-27-55z"/></g><g fill="#63505a" transform="matrix(.1 0 0 -.1 0 300)"><path d="M1346 2460c-198-25-432-111-558-205l-48-35v-600l47-35c97-71 313-168 421-188l32-6v448l48 23 47 22 143 4 142 3v558l-9 5c-4 3-50 7-102 10l-94 5-69-9zm-146-820v-180h-22c-78 1-403 168-377 194 7 7 381 165 392 166h7v-180zM101 792c-19-9-44-29-54-44l-20-27-5-53-4-53 22-27 21-28 41-11 42-11 52 7 53 6 6 47c3 26 8 55 10 65l3 17H160v-40h40v-14c0-8-3-21-6-30l-6-16h-20c-10 0-32 7-48 15l-29 15-6 21-7 21 6 33 7 34 31 26 31 27 54-4 53-3v45H135l-34-18zm249 1c0-10-3-28-6-40l-6-23h62v14c0 8 5 18 11 21l10 7 25-6 24-6v-56l-12-12-12-12H330v-34c0-18-3-48-6-65l-6-31h60l7 46 6 45 22-3 22-3 13-42 14-43h60l-5 14c-3 8-11 34-17 56l-11 42 20 22 21 22v30c0 16-4 35-8 42-12 17-68 32-124 32h-48v-17zm240-83-13-100 11-25 12-25 26-10c14-6 40-10 57-10h32l32 20c17 10 36 27 41 37 9 16 32 163 32 200v14l-27-3-27-3-14-95-13-95-19-20-20-19-27 10-28 10v54c0 30 4 79 9 108l8 52h-60l-12-100zm290 61v-41h60v40h23c44 0 62-43 31-74l-15-16H872l-6-37c-4-21-9-50-12-65l-6-28h61l7 45 6 45h28c15 0 41 5 59 11l32 11 14 29c20 37 19 62-3 88l-17 22-78 6-77 6v-42zm310 31c-9-4-26-14-38-23l-22-16-15-36c-8-20-15-52-15-72v-36l15-29 15-29 39-12 39-12 38 7 37 7 28 28 27 28 12 44 12 43-6 36-5 35-26 23-26 22-47-1c-26 0-54-3-62-7zm94-54 16-22v-29c0-15-6-43-14-62l-14-33-20-11c-12-6-30-11-41-11h-20l-15 22-16 22v77l15 29c16 31 28 38 67 39l27 1 15-22zm295 41-36-21-16-28-17-28V603l23-21c28-27 69-42 112-42h34l15 16c9 8 16 20 16 25v9l-42-6-43-6-27 22-28 21v91l30 30 31 30 49-4 50-5v47h-115l-36-21zm278-34-27-55h49l17 31 16 31 9-9c5-5 12-30 15-56l7-47h-171l-6-17-7-16 13-8 12-8-12-25-12-26h56l11 31 12 30 57-3 58-3 6-25 6-25 27-3 27-3v11c0 15-37 174-51 218l-11 32h-74l-27-55zm248 43c-5-15-25-197-25-228v-20h158l6 16c3 9 6 18 6 20s-25 4-56 4h-56l6 38c3 20 8 70 12 110l6 72h-53l-4-12zm211-10c-3-13-6-40-6-60v-38h-30v-19c0-11 4-23 10-26l9-6-6-44-6-45h183v30h-109l-6 11-7 10 6 25 6 24h110v40h-101l3 38 3 37 58 3 57 3v39h-168l-6-22zm214 2v-20h63l-6-47c-4-27-9-76-13-110l-7-63h51l6 28c7 33 26 162 26 180v12h70v40h-190v-20zm265-30c-31-60-31-60-1-60h24l12 30c7 17 16 30 20 30 7 0 30-83 30-105 0-3-40-5-90-5h-90v-40h22l-6-15c-3-8-9-22-12-30l-6-15h50l12 30 12 30h116l7-30 7-30h59l-5 18c-2 9-17 68-32 130l-28 112h-76l-25-50z"/></g><g fill="#072a70" transform="matrix(.1 0 0 -.1 0 300)"><path d="M1335 2456c-131-20-214-41-329-86l-102-40-80-53-79-52-3-302-2-302 62-44c105-75 232-130 416-182l22-6v452l58 27 57 26 133 4 132 4v546l-16 6c-9 3-52 8-97 11l-82 4-90-13zm-135-816v-180h-18c-75 0-382 152-382 189 0 5 66 37 148 71 81 34 165 70 187 80s46 19 53 19l12 1v-180z"/></g></g></svg>