<?xml version="1.0" encoding="utf-8" standalone="yes"?><!-- Generator: Adobe Illustrator 25.0.0, SVG Export Plug-In . SVG Version: 6.00 Build 0)  --><svg xmlns="http://www.w3.org/2000/svg" xmlns:xlink="http://www.w3.org/1999/xlink" version="1.2" baseProfile="tiny-ps" viewBox="0 0 96 96" xml:space="preserve"><title>EASTERNHONEYS</title><rect y="0" fill="#FFFFFF" width="96" height="96"></rect><path fill="#FF9518" d="M5.5,41h5.2v1.7H8.1v2.9h2v1.8h-2v3.4h2.7v1.7H5.5V41z"></path><path fill="#FF9518" d="M13.5,52.7c-0.4,0-0.7-0.1-1-0.3s-0.5-0.5-0.7-0.8c-0.1-0.3-0.2-0.6-0.2-1c0-0.6,0.2-1.2,0.5-1.6  c0.3-0.4,0.7-0.7,1.2-1c0.5-0.2,1-0.5,1.8-0.7v-0.8c0-0.2,0-0.4-0.1-0.5s-0.2-0.2-0.4-0.2s-0.3,0.1-0.4,0.2C14,46.2,14,46.4,14,46.6  l-0.1,0.6l-2.2-0.1c0-1,0.3-1.7,0.8-2.2s1.2-0.7,2.2-0.7c0.8,0,1.4,0.2,1.9,0.7c0.4,0.4,0.6,1,0.6,1.8v3.8c0,0.8,0,1.5,0.1,2h-2.1  c-0.1-0.6-0.1-1-0.2-1.2c-0.1,0.4-0.3,0.7-0.6,0.9S13.9,52.7,13.5,52.7z M14.3,51.1c0.2,0,0.5-0.1,0.7-0.4v-2.2  c-0.4,0.2-0.8,0.5-1,0.8s-0.3,0.6-0.3,1c0,0.3,0.1,0.5,0.2,0.7C13.9,51.1,14.1,51.1,14.3,51.1z"></path><path fill="#FF9518" d="M21.1,52.7c-0.7,0-1.3-0.2-1.8-0.5s-0.9-0.9-1.2-1.6l1.6-0.7c0.2,0.4,0.3,0.7,0.5,0.9s0.4,0.3,0.7,0.3  c0.4,0,0.5-0.1,0.5-0.4c0-0.2-0.1-0.4-0.2-0.6c-0.1-0.2-0.5-0.5-0.9-0.8l-0.6-0.5c-0.5-0.4-0.9-0.8-1.1-1.1s-0.3-0.7-0.3-1.2  c0-0.4,0.1-0.8,0.3-1.2c0.2-0.3,0.6-0.6,0.9-0.8c0.4-0.2,0.8-0.3,1.3-0.3c0.7,0,1.2,0.2,1.7,0.6c0.5,0.4,0.8,0.9,1,1.6L22,47  c-0.1-0.3-0.2-0.6-0.4-0.8c-0.2-0.2-0.4-0.4-0.7-0.4c-0.2,0-0.3,0-0.4,0.1s-0.1,0.2-0.1,0.3c0,0.2,0.1,0.4,0.3,0.6  c0.2,0.2,0.5,0.5,0.9,0.8l0.6,0.5c0.5,0.4,0.8,0.8,1.1,1.1c0.3,0.3,0.4,0.7,0.4,1.2s-0.1,0.9-0.4,1.2c-0.2,0.3-0.5,0.6-0.9,0.8  C22,52.6,21.6,52.7,21.1,52.7z"></path><path fill="#FF9518" d="M27.2,52.7c-0.6,0-1.1-0.1-1.4-0.3s-0.6-0.4-0.7-0.8c-0.1-0.3-0.2-0.8-0.2-1.3v-4.5h-0.8v-1.5h0.8v-2.5h2.4  v2.5h1.2v1.5h-1.2V50c0,0.2,0.1,0.4,0.2,0.5s0.3,0.2,0.5,0.2s0.4,0,0.6-0.1v1.8C28.1,52.6,27.7,52.7,27.2,52.7z"></path><path fill="#FF9518" d="M32.4,52.7c-0.9,0-1.6-0.2-2.1-0.7s-0.8-1.2-0.8-2v-3c0-0.9,0.3-1.5,0.8-2s1.2-0.7,2.1-0.7  c0.9,0,1.6,0.2,2.1,0.7s0.7,1.1,0.7,2v1.7h-3.3v1.6c0,0.6,0.2,0.9,0.6,0.9c0.4,0,0.6-0.3,0.6-0.8v-0.9h2.1v0.8  c0,0.8-0.2,1.5-0.7,1.9C33.9,52.5,33.2,52.7,32.4,52.7z M33,47.5v-0.8c0-0.3-0.1-0.5-0.2-0.6c-0.1-0.1-0.3-0.2-0.4-0.2  c-0.2,0-0.3,0.1-0.4,0.2c-0.1,0.1-0.1,0.4-0.1,0.8v0.7H33V47.5z"></path><path fill="#FF9518" d="M36.4,44.3h2.3v1.4c0.3-0.5,0.6-0.9,0.8-1.1c0.3-0.2,0.6-0.4,0.9-0.4c0.1,0,0.3,0,0.4,0v2.3  c-0.3-0.1-0.5-0.2-0.8-0.2c-0.5,0-1,0.3-1.4,0.8v5.3h-2.3L36.4,44.3L36.4,44.3z"></path><path fill="#FF9518" d="M41.9,44.3h2.3v0.8c0.6-0.6,1.3-1,2-1c0.5,0,0.9,0.2,1.1,0.5c0.3,0.4,0.4,0.8,0.4,1.4v6.4h-2.3v-6.1  c0-0.2,0-0.4-0.1-0.5s-0.2-0.2-0.4-0.2s-0.4,0.1-0.7,0.3v6.4h-2.3V44.3z"></path><path fill="#FF9518" d="M49.3,41h2.6v4.7h1.8V41h2.6v11.5h-2.6v-5h-1.8v5h-2.6V41z"></path><path fill="#FF9518" d="M60.6,52.7c-0.9,0-1.6-0.2-2.1-0.7s-0.8-1.1-0.8-2v-3.1c0-0.9,0.3-1.6,0.8-2c0.5-0.5,1.2-0.7,2.1-0.7  c0.9,0,1.6,0.2,2.1,0.7s0.8,1.1,0.8,2V50c0,0.9-0.3,1.5-0.8,2C62.2,52.5,61.5,52.7,60.6,52.7z M60.6,51.2c0.2,0,0.4-0.1,0.5-0.2  c0.1-0.2,0.1-0.4,0.1-0.8v-3.4c0-0.3,0-0.6-0.1-0.7c-0.1-0.2-0.2-0.3-0.5-0.3c-0.2,0-0.4,0.1-0.5,0.3C60,46.2,60,46.4,60,46.7v3.4  c0,0.3,0,0.6,0.1,0.8C60.2,51.1,60.4,51.2,60.6,51.2z"></path><path fill="#FF9518" d="M64.8,44.3h2.3v0.8c0.6-0.6,1.3-1,2-1c0.5,0,0.9,0.2,1.1,0.5c0.3,0.4,0.4,0.8,0.4,1.4v6.4h-2.3v-6.1  c0-0.2,0-0.4-0.1-0.5s-0.2-0.2-0.4-0.2c-0.2,0-0.4,0.1-0.7,0.3v6.4h-2.3V44.3z"></path><path fill="#FF9518" d="M74.7,52.7c-0.9,0-1.6-0.2-2.1-0.7s-0.8-1.2-0.8-2v-3c0-0.9,0.3-1.5,0.8-2s1.2-0.7,2.1-0.7s1.6,0.2,2.1,0.7  s0.7,1.1,0.7,2v1.7h-3.3v1.6c0,0.6,0.2,0.9,0.6,0.9s0.6-0.3,0.6-0.8v-0.9h2.1v0.8c0,0.8-0.2,1.5-0.7,1.9  C76.2,52.5,75.6,52.7,74.7,52.7z M75.3,47.5v-0.8c0-0.3-0.1-0.5-0.2-0.6s-0.3-0.2-0.4-0.2c-0.2,0-0.3,0.1-0.4,0.2  c-0.1,0.1-0.1,0.4-0.1,0.8v0.7h1.1V47.5z"></path><path fill="#FF9518" d="M78.9,53.3c0.5,0,0.8-0.1,1-0.2c0.2-0.1,0.3-0.3,0.3-0.5s-0.1-0.7-0.3-1.4L78,44.3h2.2l1,4.8l0.8-4.8h2.2  l-1.9,8.4c-0.2,0.8-0.5,1.4-1,1.7s-1.1,0.5-1.9,0.5h-0.5C78.9,54.9,78.9,53.3,78.9,53.3z"></path><path fill="#FF9518" d="M87.7,52.7c-0.7,0-1.3-0.2-1.8-0.5s-0.9-0.9-1.2-1.6l1.6-0.7c0.2,0.4,0.3,0.7,0.5,0.9s0.4,0.3,0.7,0.3  c0.4,0,0.5-0.1,0.5-0.4c0-0.2-0.1-0.4-0.2-0.6c-0.1-0.2-0.5-0.5-0.9-0.8l-0.6-0.5c-0.5-0.4-0.9-0.8-1.1-1.1s-0.3-0.7-0.3-1.2  c0-0.4,0.1-0.8,0.3-1.2c0.2-0.3,0.6-0.6,0.9-0.8c0.4-0.2,0.8-0.3,1.3-0.3c0.7,0,1.2,0.2,1.7,0.6c0.5,0.4,0.8,0.9,1,1.6L88.6,47  c-0.1-0.3-0.2-0.6-0.4-0.8c-0.2-0.2-0.4-0.4-0.7-0.4c-0.2,0-0.3,0-0.4,0.1C87,46,87,46.2,87,46.3c0,0.2,0.1,0.4,0.3,0.6  c0.2,0.2,0.5,0.5,0.9,0.8l0.6,0.5c0.5,0.4,0.8,0.8,1.1,1.1c0.3,0.3,0.4,0.7,0.4,1.2s-0.1,0.9-0.4,1.2c-0.2,0.3-0.5,0.6-0.9,0.8  C88.5,52.6,88.1,52.7,87.7,52.7z"></path></svg>