<?xml version="1.0" encoding="UTF-8" standalone="yes"?>
<svg baseProfile="tiny-ps" version="1.2" viewBox="0 0 400 400" width="200" height="200" xmlns="http://www.w3.org/2000/svg">
  <title>Kinetic Labs</title>
  <desc>Kinetic Labs Logo</desc>
  <g id="svgg">
    <path id="path0" d="M95.6,202.2v114.6h66.5l4.8-4.7c2.6-2.6,11.7-11.6,20.1-20.1s17.4-17.5,19.9-20l4.7-4.6,24.8,24.8,24.8,24.8,32.3-32.3,32.3-32.3-24.9-24.9c-13.7-13.7-24.9-25.1-24.9-25.3s11.2-11.6,24.9-25.3l24.9-24.9-11.6-11.7c-25.2-25.4-52.7-52.7-52.9-52.7s-31,30.6-53.6,53.4l-11,11.1,24.9,24.9c13.7,13.7,24.9,25.1,24.9,25.3s-4.5,5-10.1,10.6c-5.6,5.6-26.5,26.7-46.4,46.9l-36.3,36.7h-37.1V108.4h37.2v101l14.4,14.4,14.4,14.4,7.3-7.3,7.3-7.3-11.3-11.3-11.3-11.3v-56.6c-.1,0-.2-56.6-.2-56.6h-39.3c0-.1-39.3-.2-39.3-.2v114.6M279.2,134.3l17.6,17.5-17.8,17.8-17.8,17.8-17.8-17.8-17.8-17.8,17.5-17.5c9.6-9.6,17.7-17.5,18-17.5s8.4,7.9,18.1,17.5M279,234.8l17.6,17.6-17.7,17.7-17.7,17.7-17.6-17.6-17.6-17.6,17.4-17.7c9.6-9.7,17.5-17.7,17.7-17.7s8.2,7.9,17.9,17.6" fill="#fafafa" fill-rule="evenodd" stroke-width="0"/>
    <path id="path1" d="M0,200v200h400V0H0v200M174.3,144.4v56.6c.1,0,11.4,11.3,11.4,11.3l11.3,11.3-7.3,7.3-7.3,7.3-14.4-14.4-14.4-14.4v-101h-37.2v188h37.1l36.3-36.7c20-20.2,40.9-41.3,46.4-46.9,5.6-5.6,10.1-10.4,10.1-10.6s-11.2-11.6-24.9-25.3l-24.9-24.9,11-11.1c22.6-22.7,53.3-53.4,53.6-53.4s27.8,27.4,52.9,52.7l11.6,11.7-24.9,24.9c-13.7,13.7-24.9,25.1-24.9,25.3s11.2,11.6,24.9,25.3l24.9,24.9-32.3,32.3-32.3,32.3-24.8-24.8-24.8-24.8-4.7,4.6c-2.6,2.5-11.5,11.5-19.9,20s-17.4,17.5-20.1,20.1l-4.8,4.7h-66.5V87.6h39.3c0,.1,39.3.2,39.3.2v56.6M243.1,134.3l-17.5,17.5,17.8,17.8,17.8,17.8,17.8-17.8,17.8-17.8-17.6-17.5c-9.7-9.6-17.9-17.5-18.1-17.5s-8.4,7.9-18,17.5M243.5,234.9l-17.4,17.7,17.6,17.6,17.6,17.6,17.7-17.7,17.7-17.7-17.6-17.6c-9.7-9.7-17.7-17.6-17.9-17.6s-8.1,8-17.7,17.7" fill="#040404" fill-rule="evenodd" stroke-width="0"/>
  </g>
</svg>