<?xml version="1.0" encoding="utf-8"?>
<!-- Edited with XMLSpy Enterprise Edition 2023r2 (x64) 
	 Registered to Alexander Falk - Co-Founder & CEO / Altova, Inc. 
	 https://www.altova.com/xmlspy-xml-editor -->
<svg version="1.2" baseProfile="tiny-ps" id="_x3C_Layer_x3E_"
	 xmlns="http://www.w3.org/2000/svg" xmlns:xlink="http://www.w3.org/1999/xlink" viewBox="0 0 326 326"
	 xml:space="preserve">
<title>ALTOVA</title>
<!-- 
Word Mark					ALTOVA
Goods and Services			IC 009. US 021 023 026 036 038. G & S: COMPUTER SOFTWARE DEVELOPMENT TOOLS; COMPUTER SEARCH ENGINE SOFTWARE; 
							COMPUTER SOFTWARE FOR USE IN XML DOCUMENT PROCESSING. FIRST USE: 20041009. FIRST USE IN COMMERCE: 20041009
							IC 042. US 100 101. G & S: computer consulting, namely, consulting in the field of custom computer software design; 
							computer software development services for others. FIRST USE: 20041009. FIRST USE IN COMMERCE: 20041009
Mark Drawing Code			(3) DESIGN PLUS WORDS, LETTERS, AND/OR NUMBERS
Design Search Code			26.01.13 - Circles, two (not concentric); Two circles
							26.01.21 - Circles that are totally or partially shaded.
							27.03.01 - Geometric figures forming letters, numerals or punctuation
Serial Number				78482325
Filing Date					September 13, 2004
Current Basis				1A
Original Filing Basis		1B
Published for Opposition	September 6, 2005
Registration Number			3130883
Registration Date			August 15, 2006
Owner						(REGISTRANT) Altova GmbH GMBH AUSTRIA A-1010 Rudolfsplatz 13a/9 Wien (Vienna) AUSTRIA
Attorney of Record			David A. Gast
Prior Registrations			2755777
Description of Mark			The color(s) black and red is/are claimed as a feature of the mark. The color black appears in the wording 
							in the mark and the color red appears in the circular design elements in the letter "A" in the mark.
Type of Mark				TRADEMARK. SERVICE MARK
-->
<rect fill="#FFFFFF" width="326" height="326"/>
<g>
	<g>
		<path fill="#0C3F54" d="M76.57,185.9c-4.44-4.68-5.25-9.78-5.25-17.45v-34.5h12.2v34.1c0,4.77,0.08,8.24,2.02,10.51
			c2.58,3.07,6.06,3.8,11.23,3.8h14.38v9.62H95.73C87.32,191.96,81.75,191.39,76.57,185.9z"/>
		<path fill="#0C3F54" d="M98.73,144.12v-10.1h50.18v10.1h-18.83v47.84h-12.6v-47.84H98.73z"/>
		<path fill="#0C3F54" d="M177.92,132.81c19.71,0,28.93,9.61,28.93,30.14c0,20.53-9.22,30.23-28.93,30.23
			c-19.95,0-28.92-9.7-28.92-30.79C149,142.42,158.45,132.81,177.92,132.81z M162.33,162.46c0,14.15,4.68,20.69,15.59,20.69
			c10.75,0,15.68-6.54,15.68-20.2c0-13.66-4.93-20.2-15.68-20.2C167.42,142.75,162.33,149.29,162.33,162.46z"/>
		<path fill="#0C3F54" d="M204.76,133.94h13.82l17.46,43.23l17.85-43.23h13.02l-24.25,58.02h-12.6L204.76,133.94z"/>
		<g>
		<!-- Omitting (R) registered trademark symbol, because it would be too small in most BIMI applications
			<g>
				<path fill="#0C3F54" d="M298.99,143.26c0-5.4,4.37-9.37,9.54-9.37c5.12,0,9.49,3.97,9.49,9.37c0,5.44-4.38,9.41-9.49,9.41
					C303.36,152.67,298.99,148.7,298.99,143.26z M308.53,151.11c4.25,0,7.61-3.33,7.61-7.85c0-4.45-3.36-7.8-7.61-7.8
					c-4.29,0-7.65,3.35-7.65,7.8C300.88,147.78,304.24,151.11,308.53,151.11z M306.54,148.7h-1.64v-10.84h4.12
					c2.56,0,3.82,0.95,3.82,3.09c0,1.93-1.21,2.78-2.81,2.98l3.08,4.77h-1.84l-2.86-4.7h-1.88V148.7z M308.51,142.61
					c1.39,0,2.63-0.1,2.63-1.77c0-1.33-1.21-1.58-2.35-1.58h-2.24v3.36H308.51z"/>
			</g>
		-->
		</g>
		<g>
			<g>
				<polygon fill="#0C3F54" points="45.46,133.98 32.53,133.98 7.96,192 20.89,192 38.51,145.54 56.61,192 70.18,192"/>
			</g>
			<path fill="#0C3F54" d="M44.58,173c0,3.3-2.67,5.97-5.96,5.97c-3.3,0-5.96-2.67-5.96-5.97c0-3.29,2.67-5.96,5.96-5.96
				C41.9,167.03,44.58,169.71,44.58,173z"/>
		</g>
		<g>
			<g>
				<polygon fill="#0C3F54" points="289.87,133.98 276.94,133.98 252.37,192 265.3,192 282.92,145.54 301.03,192 314.6,192"/>
			</g>
			<path fill="#0C3F54" d="M288.99,173c0,3.3-2.67,5.97-5.96,5.97c-3.29,0-5.96-2.67-5.96-5.97c0-3.29,2.67-5.96,5.96-5.96
				C286.32,167.03,288.99,169.71,288.99,173z"/>
		</g>
	</g>
	<g>
		<path fill="#0C3F54" d="M76.57,185.9c-4.44-4.68-5.25-9.78-5.25-17.45v-34.5h12.2v34.1c0,4.77,0.08,8.24,2.02,10.51
			c2.58,3.07,6.06,3.8,11.23,3.8h14.38v9.62H95.73C87.32,191.96,81.75,191.39,76.57,185.9z"/>
		<path fill="#0C3F54" d="M177.92,132.81c19.71,0,28.93,9.61,28.93,30.14c0,20.53-9.22,30.23-28.93,30.23
			c-19.95,0-28.92-9.7-28.92-30.79C149,142.42,158.45,132.81,177.92,132.81z M162.33,162.46c0,14.15,4.68,20.69,15.59,20.69
			c10.75,0,15.68-6.54,15.68-20.2c0-13.66-4.93-20.2-15.68-20.2C167.42,142.75,162.33,149.29,162.33,162.46z"/>
		<g>
			<g>
				<polygon fill="#0C3F54" points="45.46,133.98 32.53,133.98 7.96,192 20.89,192 38.51,145.54 56.61,192 70.18,192"/>
			</g>
			<path fill="#CF1C44" d="M44.58,173c0,3.3-2.67,5.97-5.96,5.97c-3.3,0-5.96-2.67-5.96-5.97c0-3.29,2.67-5.96,5.96-5.96
				C41.9,167.03,44.58,169.71,44.58,173z"/>
		</g>
		<g>
			<path fill="#CF1C44" d="M288.99,173c0,3.3-2.67,5.97-5.96,5.97c-3.29,0-5.96-2.67-5.96-5.97c0-3.29,2.67-5.96,5.96-5.96
				C286.32,167.03,288.99,169.71,288.99,173z"/>
		</g>
	</g>
</g>
</svg>
