<?xml version="1.0" encoding="utf-8"?>
<!-- Generator: Adobe Illustrator 27.6.1, SVG Export Plug-In . SVG Version: 6.00 Build 0)  -->
<svg version="1.2" baseProfile="tiny-ps" id="Layer_1" xmlns="http://www.w3.org/2000/svg" xmlns:xlink="http://www.w3.org/1999/xlink"
	 viewBox="0 0 500 500" xml:space="preserve">
<title>fa.lk falk.us horus</title>
<rect fill="#FFFFFF" width="500" height="500"/>
<g>
	<g>
		<path d="M101.78,78.04h4.79v-6.05c0-6.29,0.8-11.29,2.4-15c1.6-3.71,4.3-6.41,8.11-8.11c3.81-1.7,9.03-2.54,15.67-2.54
			c11.75,0,17.62,2.88,17.62,8.63c0,1.87-0.62,3.47-1.84,4.79c-1.23,1.33-2.68,1.99-4.35,1.99c-0.79,0-2.14-0.15-4.06-0.44
			s-3.54-0.44-4.87-0.44c-3.64,0-5.97,1.07-7,3.21c-1.03,2.14-1.55,5.2-1.55,9.18v4.79h4.94c7.67,0,11.5,2.31,11.5,6.93
			c0,3.29-1.02,5.38-3.06,6.27c-2.04,0.88-4.85,1.33-8.44,1.33h-4.94v53.31c0,3.98-0.95,7.02-2.84,9.11
			c-1.89,2.09-4.34,3.13-7.34,3.13c-2.85,0-5.22-1.04-7.11-3.13c-1.89-2.09-2.84-5.12-2.84-9.11V92.56h-5.53
			c-3,0-5.31-0.68-6.93-2.03c-1.62-1.35-2.43-3.11-2.43-5.27C91.68,80.45,95.05,78.04,101.78,78.04z"/>
		<path d="M202.57,146.76c-4.87,3.79-9.57,6.62-14.12,8.52c-4.55,1.89-9.65,2.84-15.3,2.84c-5.16,0-9.7-1.02-13.6-3.06
			c-3.91-2.04-6.92-4.8-9.03-8.29c-2.11-3.49-3.17-7.27-3.17-11.35c0-5.5,1.74-10.2,5.23-14.08c3.49-3.88,8.28-6.49,14.38-7.82
			c1.28-0.29,4.45-0.96,9.51-1.99c5.06-1.03,9.4-1.98,13.01-2.84c3.61-0.86,7.53-1.9,11.76-3.13c-0.25-5.31-1.32-9.2-3.21-11.69
			c-1.89-2.48-5.81-3.72-11.76-3.72c-5.11,0-8.96,0.71-11.54,2.14c-2.58,1.43-4.79,3.56-6.64,6.41c-1.84,2.85-3.15,4.73-3.91,5.64
			c-0.76,0.91-2.4,1.36-4.9,1.36c-2.26,0-4.22-0.72-5.86-2.17c-1.65-1.45-2.47-3.31-2.47-5.57c0-3.54,1.25-6.98,3.76-10.32
			c2.51-3.34,6.41-6.09,11.72-8.26c5.31-2.16,11.92-3.24,19.83-3.24c8.85,0,15.8,1.04,20.87,3.13c5.06,2.09,8.64,5.4,10.73,9.92
			c2.09,4.52,3.13,10.52,3.13,17.99c0,4.72-0.01,8.73-0.04,12.02c-0.03,3.29-0.06,6.96-0.11,10.99c0,3.79,0.63,7.73,1.88,11.83
			c1.25,4.1,1.88,6.75,1.88,7.93c0,2.06-0.97,3.94-2.91,5.64c-1.94,1.7-4.14,2.54-6.6,2.54c-2.06,0-4.1-0.97-6.12-2.91
			C206.97,153.26,204.83,150.44,202.57,146.76z M201.25,117.63c-2.95,1.08-7.24,2.22-12.87,3.43c-5.63,1.2-9.52,2.09-11.69,2.65
			c-2.16,0.57-4.23,1.67-6.19,3.32c-1.97,1.65-2.95,3.94-2.95,6.89c0,3.05,1.15,5.64,3.47,7.78c2.31,2.14,5.33,3.21,9.07,3.21
			c3.98,0,7.66-0.87,11.02-2.62c3.37-1.74,5.84-3.99,7.41-6.75c1.82-3.05,2.73-8.06,2.73-15.04V117.63z"/>
		<path fill="#0000FF" d="M254.77,158.11c-3.05,0-5.68-0.98-7.89-2.95s-3.32-4.72-3.32-8.26c0-3,1.06-5.58,3.17-7.74
			c2.11-2.16,4.72-3.24,7.82-3.24s5.74,1.07,7.93,3.21c2.19,2.14,3.28,4.73,3.28,7.78c0,3.49-1.09,6.23-3.28,8.22
			C260.29,157.12,257.72,158.11,254.77,158.11z"/>
		<path d="M288.69,145.87v-87.3c0-4.03,0.9-7.08,2.69-9.14c1.79-2.06,4.21-3.1,7.26-3.1s5.5,1.02,7.37,3.06
			c1.87,2.04,2.8,5.1,2.8,9.18v87.3c0,4.08-0.95,7.14-2.84,9.18c-1.89,2.04-4.34,3.06-7.34,3.06c-2.95,0-5.35-1.06-7.19-3.17
			C289.61,152.83,288.69,149.81,288.69,145.87z"/>
		<path d="M379.75,148.9l-17.77-29.2l-10.91,10.32v16c0,3.88-1.02,6.87-3.06,8.96c-2.04,2.09-4.39,3.13-7.04,3.13
			c-3.1,0-5.53-1.03-7.3-3.1s-2.65-5.11-2.65-9.14V60.05c0-4.47,0.86-7.88,2.58-10.21c1.72-2.33,4.18-3.5,7.37-3.5
			c3.1,0,5.55,1.06,7.37,3.17c1.82,2.11,2.73,5.23,2.73,9.36v48.81l22.63-23.74c2.8-2.95,4.94-4.96,6.41-6.05
			c1.47-1.08,3.27-1.62,5.38-1.62c2.51,0,4.6,0.8,6.27,2.4c1.67,1.6,2.51,3.6,2.51,6.01c0,2.95-2.73,6.88-8.18,11.8l-10.69,9.81
			l20.64,32.44c1.52,2.41,2.62,4.24,3.28,5.49c0.66,1.25,1,2.45,1,3.58c0,3.2-0.87,5.71-2.62,7.56c-1.75,1.84-4.04,2.77-6.89,2.77
			c-2.46,0-4.35-0.66-5.68-1.99C383.8,154.79,382.01,152.39,379.75,148.9z"/>
	</g>
</g>
<g>
	<g>
		<path d="M15.26,236.24h4.79v-6.05c0-6.29,0.8-11.29,2.4-15c1.6-3.71,4.3-6.41,8.11-8.11c3.81-1.7,9.03-2.54,15.67-2.54
			c11.75,0,17.62,2.88,17.62,8.63c0,1.87-0.62,3.47-1.84,4.79c-1.23,1.33-2.68,1.99-4.35,1.99c-0.79,0-2.14-0.15-4.06-0.44
			s-3.54-0.44-4.87-0.44c-3.64,0-5.97,1.07-7,3.21c-1.03,2.14-1.55,5.2-1.55,9.18v4.79h4.94c7.67,0,11.5,2.31,11.5,6.93
			c0,3.29-1.02,5.38-3.06,6.27c-2.04,0.88-4.85,1.33-8.44,1.33h-4.94v53.31c0,3.98-0.95,7.02-2.84,9.11
			c-1.89,2.09-4.34,3.13-7.34,3.13c-2.85,0-5.22-1.04-7.11-3.13c-1.89-2.09-2.84-5.12-2.84-9.11v-53.31h-5.53
			c-3,0-5.31-0.67-6.93-2.03c-1.62-1.35-2.43-3.11-2.43-5.27C5.16,238.65,8.53,236.24,15.26,236.24z"/>
		<path d="M116.05,304.96c-4.87,3.79-9.57,6.62-14.12,8.52c-4.55,1.89-9.65,2.84-15.3,2.84c-5.16,0-9.7-1.02-13.6-3.06
			c-3.91-2.04-6.92-4.8-9.03-8.29c-2.11-3.49-3.17-7.27-3.17-11.35c0-5.5,1.74-10.2,5.23-14.08c3.49-3.88,8.28-6.49,14.38-7.82
			c1.28-0.29,4.45-0.96,9.51-1.99c5.06-1.03,9.4-1.98,13.01-2.84c3.61-0.86,7.53-1.9,11.76-3.13c-0.25-5.31-1.32-9.2-3.21-11.69
			c-1.89-2.48-5.81-3.72-11.76-3.72c-5.11,0-8.96,0.71-11.54,2.14c-2.58,1.43-4.79,3.56-6.64,6.41c-1.84,2.85-3.15,4.73-3.91,5.64
			c-0.76,0.91-2.4,1.36-4.9,1.36c-2.26,0-4.22-0.72-5.86-2.17c-1.65-1.45-2.47-3.31-2.47-5.57c0-3.54,1.25-6.98,3.76-10.32
			s6.41-6.09,11.72-8.26s11.92-3.24,19.83-3.24c8.85,0,15.8,1.04,20.87,3.13c5.06,2.09,8.64,5.4,10.73,9.92
			c2.09,4.52,3.13,10.52,3.13,17.99c0,4.72-0.01,8.73-0.04,12.02c-0.03,3.29-0.06,6.96-0.11,10.99c0,3.79,0.63,7.73,1.88,11.83
			c1.25,4.1,1.88,6.75,1.88,7.93c0,2.06-0.97,3.94-2.91,5.64c-1.94,1.7-4.14,2.54-6.6,2.54c-2.06,0-4.1-0.97-6.12-2.91
			C120.45,311.46,118.31,308.64,116.05,304.96z M114.72,275.83c-2.95,1.08-7.24,2.22-12.87,3.43c-5.63,1.21-9.52,2.09-11.69,2.65
			c-2.16,0.57-4.23,1.67-6.19,3.32c-1.97,1.65-2.95,3.95-2.95,6.89c0,3.05,1.15,5.64,3.47,7.78c2.31,2.14,5.33,3.21,9.07,3.21
			c3.98,0,7.66-0.87,11.02-2.62c3.37-1.74,5.84-3.99,7.41-6.75c1.82-3.05,2.73-8.06,2.73-15.04V275.83z"/>
		<path d="M154.91,304.07v-87.3c0-4.03,0.9-7.08,2.69-9.14c1.79-2.06,4.21-3.1,7.26-3.1c3.05,0,5.5,1.02,7.37,3.06
			c1.87,2.04,2.8,5.1,2.8,9.18v87.3c0,4.08-0.95,7.14-2.84,9.18c-1.89,2.04-4.34,3.06-7.34,3.06c-2.95,0-5.35-1.06-7.19-3.17
			C155.83,311.03,154.91,308,154.91,304.07z"/>
		<path d="M245.96,307.09l-17.77-29.2l-10.91,10.32v16c0,3.88-1.02,6.87-3.06,8.96c-2.04,2.09-4.39,3.13-7.04,3.13
			c-3.1,0-5.53-1.03-7.3-3.1s-2.65-5.11-2.65-9.14v-85.82c0-4.47,0.86-7.88,2.58-10.21c1.72-2.33,4.18-3.5,7.37-3.5
			c3.1,0,5.55,1.06,7.37,3.17c1.82,2.11,2.73,5.23,2.73,9.36v48.81l22.64-23.74c2.8-2.95,4.94-4.96,6.41-6.04s3.27-1.62,5.38-1.62
			c2.51,0,4.6,0.8,6.27,2.4c1.67,1.6,2.51,3.6,2.51,6.01c0,2.95-2.73,6.88-8.18,11.8l-10.69,9.81l20.65,32.44
			c1.52,2.41,2.62,4.24,3.28,5.49c0.66,1.25,0.99,2.45,0.99,3.58c0,3.2-0.87,5.71-2.62,7.56c-1.75,1.84-4.04,2.77-6.89,2.77
			c-2.46,0-4.35-0.66-5.68-1.99C250.02,312.99,248.22,310.58,245.96,307.09z"/>
		<path fill="#0000FF" d="M295.73,316.31c-3.05,0-5.68-0.98-7.89-2.95c-2.21-1.97-3.32-4.72-3.32-8.26c0-3,1.06-5.58,3.17-7.74
			c2.11-2.16,4.72-3.24,7.82-3.24s5.74,1.07,7.93,3.21c2.19,2.14,3.28,4.73,3.28,7.78c0,3.49-1.09,6.23-3.28,8.22
			C301.25,315.32,298.68,316.31,295.73,316.31z"/>
		<path fill="#FF0000" d="M381.92,304.96v-2.58c-2.41,3.05-4.94,5.6-7.59,7.67s-5.55,3.6-8.7,4.61c-3.15,1.01-6.74,1.51-10.77,1.51
			c-4.87,0-9.23-1.01-13.09-3.02c-3.86-2.01-6.85-4.79-8.96-8.33c-2.51-4.28-3.76-10.42-3.76-18.43v-39.89
			c0-4.03,0.91-7.04,2.73-9.03c1.82-1.99,4.23-2.99,7.23-2.99c3.05,0,5.5,1.01,7.37,3.02c1.87,2.02,2.8,5.01,2.8,9v32.22
			c0,4.67,0.39,8.59,1.18,11.76c0.79,3.17,2.2,5.65,4.24,7.45c2.04,1.79,4.8,2.69,8.29,2.69c3.39,0,6.59-1.01,9.58-3.02
			c3-2.01,5.19-4.64,6.56-7.89c1.13-2.85,1.7-9.09,1.7-18.73v-24.48c0-3.98,0.93-6.98,2.8-9c1.87-2.01,4.3-3.02,7.3-3.02
			s5.41,1,7.23,2.99c1.82,1.99,2.73,5,2.73,9.03v58.32c0,3.83-0.87,6.71-2.62,8.63c-1.75,1.92-3.99,2.88-6.75,2.88
			s-5.03-1-6.82-2.99C382.82,311.33,381.92,308.54,381.92,304.96z"/>
		<path fill="#FF0000" d="M485.66,289.99c0,5.55-1.35,10.31-4.05,14.27c-2.7,3.96-6.7,6.96-11.98,9
			c-5.28,2.04-11.71,3.06-19.28,3.06c-7.23,0-13.42-1.11-18.58-3.32c-5.16-2.21-8.97-4.98-11.43-8.29
			c-2.46-3.32-3.69-6.65-3.69-9.99c0-2.21,0.79-4.1,2.36-5.68c1.57-1.57,3.56-2.36,5.97-2.36c2.11,0,3.73,0.52,4.87,1.55
			s2.21,2.48,3.24,4.35c2.06,3.59,4.54,6.27,7.41,8.04c2.88,1.77,6.79,2.65,11.76,2.65c4.03,0,7.34-0.9,9.92-2.69
			c2.58-1.79,3.87-3.85,3.87-6.16c0-3.54-1.34-6.12-4.02-7.74c-2.68-1.62-7.09-3.17-13.23-4.64c-6.93-1.72-12.57-3.53-16.92-5.42
			c-4.35-1.89-7.83-4.39-10.43-7.48c-2.61-3.1-3.91-6.91-3.91-11.43c0-4.03,1.2-7.84,3.61-11.43c2.41-3.59,5.96-6.45,10.65-8.59
			c4.69-2.14,10.36-3.21,17-3.21c5.21,0,9.89,0.54,14.05,1.62c4.15,1.08,7.62,2.53,10.4,4.35c2.78,1.82,4.89,3.83,6.34,6.05
			c1.45,2.21,2.17,4.38,2.17,6.49c0,2.31-0.77,4.2-2.32,5.68c-1.55,1.47-3.75,2.21-6.6,2.21c-2.06,0-3.82-0.59-5.27-1.77
			c-1.45-1.18-3.11-2.95-4.98-5.31c-1.52-1.97-3.32-3.54-5.38-4.72s-4.87-1.77-8.41-1.77c-3.64,0-6.66,0.77-9.07,2.32
			c-2.41,1.55-3.61,3.48-3.61,5.79c0,2.11,0.88,3.85,2.65,5.2c1.77,1.35,4.15,2.47,7.15,3.35c3,0.88,7.13,1.97,12.39,3.24
			c6.24,1.52,11.34,3.34,15.3,5.46c3.96,2.11,6.96,4.61,9,7.48C484.64,283.02,485.66,286.3,485.66,289.99z"/>
	</g>
</g>
<g>
	<g>
		<path fill-rule="evenodd" fill="#808080" d="M332.3,473.63c-37.19,0-89.03,0-126.17,0c20.38-46.99,20.15-85.49-30.98-93.1
			C257.16,320.79,341.5,375.38,332.3,473.63L332.3,473.63z"/>
		<path fill-rule="evenodd" fill="#4D4D4D" d="M230.09,473.63h-17.22l13.06-58.98l7.61,9.6
			C233.55,424.24,239.7,437.35,230.09,473.63L230.09,473.63z"/>
		<path fill-rule="evenodd" fill="#4D4D4D" d="M273.03,473.63h-16.87l7.79-59.16l8.43,8.89
			C272.38,423.36,279.71,436.06,273.03,473.63L273.03,473.63z"/>
		<g>
			<path fill="#26303D" d="M275.96,381.35l0.82-4.56c0.12,0,43.17,6.5,43.05,96.84h-4.69C315.38,387.26,276.07,381.41,275.96,381.35
				z"/>
			<path fill="#26303D" d="M295.58,473.63h-4.69c8.02-64.48-11.6-74.67-11.71-74.72l2.28-4.04
				C281.52,394.87,303.66,406.45,295.58,473.63z"/>
		</g>
		<rect x="213.57" y="464.84" fill-rule="evenodd" fill="#FFFF00" width="119.43" height="8.78"/>
		<path fill-rule="evenodd" fill="#999999" d="M268.69,422.25c0,0,8.43,10.55-5.45,68.16h-22.08c0,0,15.64-39.33,13.41-63.53
			L268.69,422.25z"/>
		<path fill-rule="evenodd" fill="#FFFF00" d="M265.59,480.18c-0.7,3.22-1.46,6.65-2.34,10.23h-22.08c0,0,1.58-4,3.69-10.23H265.59z
			"/>
		<path fill-rule="evenodd" fill="#999999" d="M234.08,422.25c0,0,6.85,10.55-15.52,68.16H193.9c0,0,24.01-39.33,25.36-63.53
			L234.08,422.25z"/>
		<path fill-rule="evenodd" fill="#FFFF00" d="M222.42,480.18c-1.17,3.22-2.46,6.65-3.87,10.23H193.9c0,0,2.46-4,5.86-10.23H222.42z
			"/>
		<path fill-rule="evenodd" fill="#E6E6E6" d="M217.9,435.63c2.44-23.36-3.33-41.94-26.32-51.35c3.7-4.67,6.73-9.19,8.19-13.43
			c18.38-10.06,40.59-12.94,58.43-7.39c63.77,19.79,32.66,80.93-40.51,73.21L217.9,435.63z"/>
		<path fill-rule="evenodd" fill="#0000FF" d="M203.68,391.12c-22.49-6.65-16.17-8.72-28.52-10.59
			c10.02-7.26,20.03-12.87,29.99-16.91C206.72,369.71,208.95,382.05,203.68,391.12L203.68,391.12z"/>
		<path fill-rule="evenodd" fill="#26303D" d="M212.04,378.4c0,0,80.78-12.85,39.62,46.8c-0.21,0.3-1.07,0.01-0.87-0.3
			c22.41-35.76-6.22-47.48-28.32-42.65c-0.23,0.05-0.34,0.3-0.21,0.48c6.41,8.94,11.13,15.6,10.56,25.77
			c-0.02,0.38-0.93,0.65-0.91,0.26C232.35,394.13,220.92,387.06,212.04,378.4L212.04,378.4z"/>
		<path fill-rule="evenodd" fill="#FEFEFE" d="M221.78,374.27c-5.62,0-10.19,1.93-10.19,4.27c0,2.4,4.57,4.33,10.19,4.33
			c5.62,0,10.13-1.93,10.13-4.33C231.91,376.2,227.4,374.27,221.78,374.27L221.78,374.27z"/>
		<path fill-rule="evenodd" fill="#FF0000" d="M221.78,375.73c-2.05,0-3.69,1.29-3.69,2.81c0,1.58,1.64,2.87,3.69,2.87
			s3.69-1.29,3.69-2.87C225.47,377.02,223.83,375.73,221.78,375.73L221.78,375.73z"/>
	</g>
</g>
</svg>
