<svg xmlns="http://www.w3.org/2000/svg" xmlns:xlink="http://www.w3.org/1999/xlink" version="1.2" viewBox="0 0 400 400" baseProfile="tiny-ps" xml:space="preserve">
  <title>Virtuoso</title>
  <g>
    <rect width="400" height="400" fill="#FFFFFF"/>
  </g>
  <path d="M174.17,252.595c-0.063,0.44-0.379,0.504-0.443,0.944  C172.968,253.853,174.423,248.754,174.17,252.595z M191.353,264.933c0.316-0.692,0.127-0.819,0.19-1.385  C191.48,264.115,191.416,264.493,191.353,264.933z M192.36,264.808c0.253-0.567,0.696-0.504,0.443-1.071  C192.739,264.116,192.55,264.368,192.36,264.808z M181.532,327.386c-0.63-0.252-1.637-1.385-2.14-0.189  c-0.441-0.881-1.7-1.071-1.7-1.071s-0.881,0.315-1.826-0.377c-1.133-1.637-5.351,1.006-5.603,1.448  c1.259,3.022-3.588-0.252-4.91,1.574c-1.322-1.512-3.085,1.888-3.525-0.756c-1.259,1.323-2.518,1.637-3.462,3.21  c-2.392-1.196,0,1.952-2.518,0.756c-5.099,2.833-2.203,8.813-8.247,11.961c0.126,0.441-0.252,1.889,0.567,2.329  c2.833,0.504,3.274,3.464,3.588,5.478c3.651,2.014,1.889,6.61,5.288,7.995c-0.63,4.91,2.455-2.393,3.462,2.266  c3.777,1.385-1.133,2.833,0,5.289c0.441,0.377,2.833,1.888,2.077,0.25c3.463,4.093,0.63-3.525,3.777-3.21  c0.063-0.44,0.315-0.881-0.189-1.071c2.833-0.567,3.337,1.764,4.407,1.133c0.567,0.631,2.014-3.21,2.581-4.533  c-0.126,0.567,0.63,1.889,1.7,0.881c-0.315-1.51,5.666-4.154,3.148-5.35c4.659-2.266-0.818-7.115,3.399-9.632  c0.504,1.133,1.952-1.385,2.833-1.385c0.567-2.518-2.078-2.897-2.078-5.351C184.302,334.876,180.336,331.666,181.532,327.386z   M262.428,33.138c-3.4,2.77-0.377-2.455-2.329-2.77c-5.037,4.973-9.821,10.576-13.787,16.557  c-15.486,24.174-27.07,49.922-37.646,75.733c-2.078,3.525-6.547,10.639-16.305,43.816c-9.254,32.484-21.404,100.726-22.223,115.395  c-0.693,4.281-2.015,16.304-1.826,18.885c1.133,0.881-0.252,2.708-0.441,2.96c-0.504,1.51-1.763,4.343-0.063,5.539  c1.889-1.006,0-0.377,0-1.51c0.315-1.008,0.504-1.26,1.133-1.762c-0.567-3.212,0.818-3.526,1.889-4.281  c1.133-1.952-1.007-3.022-1.322-4.597c3.337-1.51,2.518-3.651,3.714-7.051c1.322-1.196,2.896,0.631,2.078,2.456  c1.889,2.833-2.392,3.777-0.944,6.736c0.063,1.7-1.511,3.651-1.763,5.162c0.315,1.762,1.574-0.819,1.511-1.258  c1.007-0.881,9.884-28.96,10.954-30.47c1.322-1.071,0.504-2.392,1.385-2.518c-0.189-0.44-0.818-0.125-0.944-0.567  c1.07-0.44-0.378-3.462,1.196-1.51c0.944-0.693-1.448-4.093,0.944-4.595c-1.322-3.651,3.211-6.422,1.889-10.011  c-0.063-0.944-0.063,10.64-1.952,18.572c1.511-1.133,0.63-2.329,2.077-2.393c-1.196-3.587,1.133-3.714,1.07-5.414  c0.378-0.629-1.259-1.321,0-2.014c0.944,0.252,0.315-0.252,0.126-0.692c1.637-2.329,7.177-27.259,10.135-36.261  c2.959-9.255,38.087-108.281,42.431-114.639c4.595-10.073,7.743-20.208,12.34-30.281c0.188-0.881,1.448-2.581,1.888-3.085  c0.631-0.63-0.125-0.063-1.7,0.881c1.26-3.651,5.163-10.513,3.903-10.45c-0.504,1.259-1.006,1.511-1.762,2.581  c0-2.14,2.644-5.351,1.889-7.995c2.329-3.4,0.251-7.554,2.644-11.206c-1.196,0.126-1.575-1.07-1.385-2.329  c0.063-0.567,2.833-5.036,0.629-3.337c-0.377-3.337,2.393-5.162,1.889-7.555C261.736,37.231,264.442,34.335,262.428,33.138z" fill="#97B7C5"/>
  <path d="M174.418,299.118c0,0.377-0.063,0.819-0.189,1.196c-1.07-0.188-2.14-0.377-3.211-0.629  c-0.378-0.881-1.259-1.637-1.448-2.644c0.881-0.379,1.448-0.819,1.889-1.323c1.07,0.252,2.14,0.504,3.211,0.693  C174.166,297.228,173.851,298.047,174.418,299.118z M314.302,169.56c-1.7-13.472-17.753-23.734-26.503-29.399  c-5.163,7.24-13.031,12.402-20.334,16.431c13.975,7.869,28.769,17.186,39.534,29.777  C312.664,183.032,314.553,176.233,314.302,169.56z M300.766,197.574c-9.443,5.73-21.403,8.877-29.084,10.954  c9.568,7.995,16.871,20.334,18.571,32.295c9.759-4.343,15.927-11.269,18.635-17.375C313.295,213.627,306.811,204.31,300.766,197.574  z M283.895,248.252c-5.603,1.7-19.893,4.597-31.666,5.414c4.091,6.045,6.799,13.348,5.414,20.713  c8.059-3.464,16.179-6.988,22.349-15.047C281.881,256.248,283.454,252.848,283.895,248.252z M283.517,243.152  c-1.825-13.661-16.494-25.055-27.384-31.854c-12.213,1.258-27.196,2.456-50.049-0.252c0-0.819,1.196-3.966,1.322-4.407  c13.535,1.385,27.636,1.826,41.738,0.883c-14.921-9.065-40.731-19.453-64.527-24.994c-23.859-5.476-50.552-9.191-74.915-4.406  c22.223,10.765,47.152,19.641,74.096,24.867c-0.315,1.95-0.944,3.839-1.007,4.406c-1.385-0.252-2.833-0.504-4.281-0.819  c-49.293-10.009-74.789-26.881-74.789-26.881s-15.298,0.819-19.83,11.458c-2.329,11.017,9.947,19.641,18.634,25.118  c16.305-9.505,39.031-10.009,66.857-5.099c20.46,3.651,56.47,16.997,78.315,37.773C259.532,248.126,277.915,245.608,283.517,243.152  z M97.615,169.56c23.167-6.988,57.477-5.603,79.699-0.692c22.223,4.91,61.632,14.794,89.269,35.757  c10.765-2.769,21.907-5.414,31.414-11.394c-7.24-7.114-14.731-12.779-22.853-17.501c-6.295-3.651-21.72-12.59-22.097-12.464  c-4.91,1.637-16.746,5.162-32.107,5.918c0,0,1.574-4.344,1.637-4.722c12.277-0.315,17.753-2.518,23.356-4.092l-6.295-3.148  c-36.136-14.479-76.049-25.748-117.724-20.775c13.913,10.324,33.554,18.32,46.208,21.278c9.821,2.329,17.69,4.029,25.244,5.099  c-0.252,0.693-0.63,3.022-1.322,4.344c-25.056-3.399-51.307-11.647-65.85-21.341c-6.107-4.029-10.765-8.562-10.765-8.562  c-6.17,0.315-11.961,1.763-17.249,4.281c-5.666,2.581-11.269,6.799-10.765,14.354C88.612,161.502,92.516,166.286,97.615,169.56z   M113.353,125.996l2.015-0.315c20.46-4.029,48.16-2.329,76.552,3.022c28.581,5.414,61.695,21.215,69.69,24.804  c7.366-2.581,17.124-9.38,20.774-16.368c-32.987-20.838-69.941-31.729-110.231-35.128c6.61,12.276,23.419,18.823,35.758,21.719  c-0.441,0.944-0.315,1.322-0.818,2.015c-13.535-2.581-30.658-8.499-39.472-20.334c-1.448-2.266-2.266-4.029-2.266-4.029  s-9.695-0.126-14.102,0.126c-9.758,0.504-33.617,3.462-37.835,13.535C110.52,121.904,113.416,126.122,113.353,125.996z   M172.908,89.042c1.511-0.063,3.211,0.126,5.036,0.189c38.968,3.4,75.104,15.235,107.525,34.813  c-6.043-27.259-44.948-45.453-81.713-46.46C197.711,77.71,178.699,78.969,172.908,89.042z M310.21,190.46  c5.414,8.436,9.191,18.445,6.484,29.4c-3.212,11.773-15.676,21.468-26.127,26.567c-1.321,18.193-19.578,27.196-34.247,32.987  c-15.171,23.861-54.643,24.363-70.445,22.727c-3.148-0.316-6.673-0.819-10.45-1.512c0.441-1.133,0.818-2.454,1.196-3.839  c2.077,0.377,4.155,0.629,6.106,0.881c18.194,2.14,48.852,1.762,63.583-13.977c-21.341,6.988-42.368,5.163-61.065,2.833  c-1.133-0.188-3.525-0.502-4.659-0.692c0.315-1.952,1.07-4.281,1.133-4.281c33.366,4.595,48.349,2.329,68.117-4.281  c0.502-9.003-5.289-16.62-10.577-22.726c-13.157,0.315-29.966-1.449-45.138-3.903c0.315-1.575,1.007-3.589,1.322-4.911  c17.375,3.212,27.7,3.526,38.591,3.526c-17.69-11.521-38.087-20.334-56.785-24.992c-19.579-4.974-40.102-7.996-59.239-4.533  c-2.141,0.315-5.54,1.321-6.421,1.448c0,0,19.327,9.884,61.38,19.578c1.196,0.315,2.077,0.692,3.211,0.944  c-0.315,1.762-0.755,3.462-1.007,5.289c-17.753-4.029-35.191-9.317-52.252-15.675c-12.969-5.037-18.005-7.682-18.005-7.682  s-8.184,3.966-7.051,12.214c1.385,9.882,12.717,18.067,23.419,24.803l0.693-2.833c2.015-5.728,7.555-9.317,13.22-10.954  c5.477-1.573,11.52-2.14,17.564-1.95c17.249,0.629,45.138,8.561,53.196,23.67c2.581,4.847-0.881,9.632-4.281,10.765  c-2.77,0.944-4.785,1.26-5.603-0.315c0,0,4.155-0.567,4.029-4.47c-0.126-4.406-9.569-10.009-18.445-13.219  c-13.22-4.849-29.148-6.799-33.869-7.115c-9.884-0.692-19.201,1.197-20.838,9.381c14.983,6.232,25.119,11.52,43.564,15.612  c-0.252,1.006-0.378,3.651-0.692,4.658c-15.046-3.273-29.022-8.561-42.935-15.235c6.673,12.717,24.867,21.972,41.612,26.504  c0.063,0.377-0.126,2.706-0.189,3.966c-18.194-4.407-39.094-13.85-47.152-32.862c-12.087-8.499-28.959-16.808-28.644-35.632  c0.441-3.714,3.148-9.443,6.232-11.142c-9.569-6.484-22.097-15.424-21.404-29.085c-0.315-7.176,5.162-11.961,10.45-16.054  c1.637-1.006,3.211-1.888,4.722-2.706c-5.414-6.296-12.276-12.024-11.584-20.775c1.952-13.472,16.872-20.46,28.014-23.734  c-2.896-7.869-3.274-15.235,4.281-23.734c11.961-13.472,34.813-13.913,52.503-14.353c5.477-16.242,23.356-21.593,38.78-22.223  c6.421-0.252,9.191,0,13.472,0.504c3.84,0.441,7.491,1.133,10.198,1.7c26.063,5.477,53.007,22.034,62.514,43.753  c2.014,4.596,2.896,12.15,1.888,15.99c15.11,10.073,35.632,25.811,28.96,45.767C319.276,181.459,316.001,185.425,310.21,190.46z" fill="#6891B1"/>
</svg>