<?xml version="1.0" encoding="UTF-8" standalone="yes"?>
<svg version="1.2" viewBox="0 0 150 150" xml:space="preserve" baseProfile="tiny-ps" xmlns="http://www.w3.org/2000/svg">
  <title>bimi-svg-tiny-12-ps</title>
  <polyline class="st0" points="150,0 150,150 0,150 0,0 " fill="#FFFFFF"/>
  <g id="_4">
    <path class="st1" d="M119.1,44.9c-3.8,0-7.1,2.1-8.9,5.2l-0.2,0.4l-8,15.7L91.9,86.1l6.6,13l0.4,0.7c1,1.8,2.6,3.2,4.4,4.2&#xA;&#x9;&#x9;c1.9-0.9,3.4-2.4,4.4-4.2l0.4-0.7l19.8-39l0.5-0.9c0.6-1.3,0.9-2.6,0.9-4.1C129.3,49.5,124.8,44.9,119.1,44.9z" fill="#FF5100"/>
    <path class="st1" d="M58,63.8l-6.6-13L51,50.1c-1-1.8-2.6-3.2-4.4-4.2c-1.9,0.9-3.4,2.4-4.4,4.2l-0.4,0.7L22,89.8l-0.5,0.9&#xA;&#x9;&#x9;c-0.6,1.3-0.9,2.6-0.9,4.1c0,5.6,4.5,10.2,10.2,10.2s7.1-2.1,8.9-5.2l0.2-0.4l8-15.7L58,63.9l0,0V63.8z" fill="#FF5100"/>
    <path class="st2" d="M58,63.8l-6.6-13L51,50.1c-1-1.8-2.6-3.3-4.4-4.2c0.6-0.3,1.3-0.5,1.9-0.7c0.8-0.2,1.7-0.3,2.6-0.3h13.7&#xA;&#x9;&#x9;c3.8,0,7.1,2.1,8.9,5.2l0.4,0.7l17.8,35.3l6.6,13l0.4,0.7c1,1.8,2.6,3.3,4.4,4.2c-0.6,0.3-1.3,0.5-1.9,0.7&#xA;&#x9;&#x9;c-0.8,0.2-1.7,0.3-2.6,0.3s0,0,0,0H85.1c-3.8,0-7.1-2.1-8.9-5.2l-0.4-0.7C75.8,99.1,58,63.8,58,63.8z" fill="#FF8C44"/>
  </g>
</svg>