<?xml version="1.0" encoding="utf-8"?>
<!-- Generator: Adobe Illustrator 25.1.0, SVG Export Plug-In . SVG Version: 6.00 Build 0)  -->
<svg version="1.2" baseProfile="tiny-ps" id="レイヤー_1"
	 xmlns="http://www.w3.org/2000/svg" xmlns:xlink="http://www.w3.org/1999/xlink" viewBox="0 0 86.5 86.5"	 xml:space="preserve">
<title>Cybervision Hosting Co., Ltd.</title>
<g>
	<path fill="#4A78A9" d="M18,32.3c0.4,0.3,0.6,1.1,0.6,2.2v1.9c0,1.5-0.2,2.4-0.6,2.7c-0.4,0.3-1.1,0.4-2.1,0.4v-7.8
		C16.9,31.7,17.6,31.9,18,32.3z M6.8,60.6h9.1V44.9c1.2,0,2,0.2,2.3,0.7c0.3,0.4,0.4,1.6,0.4,3.5v11.6H27v-9.2
		c0-2.8-0.1-4.5-0.2-5.1c-0.2-0.6-0.5-1.3-1.1-2.1c-0.6-0.7-1.8-1.3-3.6-1.8c2-0.2,3.3-0.7,4-1.7c0.7-0.9,1-2.8,1-5.5
		c0-3-0.5-5.1-1.4-6.5c-1-1.4-2.2-2.2-3.7-2.5c-1.5-0.3-4.4-0.5-8.7-0.5H6.8V60.6z"/>
	<path fill="#4A78A9" d="M57.3,25.8v34.8h-7.9l0-23.5l-3.2,23.5h-5.6l-3.3-23l0,23h-7.9V25.8h11.7c0.3,2.1,0.7,4.6,1.1,7.4l1.3,8.8
		l2.1-16.3H57.3z"/>
	<path fill="#4A78A9" d="M78.9,36.4h-8.4v-2.6c0-1.2-0.1-2-0.3-2.3C70,31.2,69.7,31,69.2,31c-0.5,0-1,0.2-1.2,0.7
		c-0.3,0.4-0.4,1.1-0.4,2c0,1.2,0.2,2,0.5,2.6c0.3,0.6,1.2,1.3,2.6,2.1c4,2.4,6.6,4.4,7.6,5.9c1,1.5,1.6,4,1.6,7.4
		c0,2.5-0.3,4.3-0.9,5.5c-0.6,1.2-1.7,2.2-3.4,3c-1.7,0.8-3.6,1.2-5.8,1.2c-2.4,0-4.5-0.5-6.2-1.4c-1.7-0.9-2.8-2.1-3.4-3.5
		c-0.5-1.4-0.8-3.4-0.8-6v-2.3h8.4v4.2c0,1.3,0.1,2.1,0.4,2.5c0.2,0.4,0.7,0.6,1.3,0.6c0.6,0,1-0.2,1.3-0.7s0.4-1.2,0.4-2.1
		c0-2.1-0.3-3.4-0.8-4c-0.6-0.6-2-1.7-4.2-3.2c-2.2-1.5-3.7-2.6-4.4-3.2c-0.7-0.7-1.3-1.6-1.8-2.8c-0.5-1.2-0.7-2.7-0.7-4.6
		c0-2.7,0.3-4.6,1-5.8c0.7-1.2,1.8-2.2,3.3-2.9c1.5-0.7,3.3-1,5.5-1c2.3,0,4.3,0.4,6,1.1c1.7,0.8,2.7,1.7,3.3,2.9
		c0.5,1.2,0.8,3.1,0.8,5.9V36.4z"/>
</g>
</svg>
