<?xml version="1.0" encoding="utf-8"?>
<!-- Generator: Adobe Illustrator 26.0.2, SVG Export Plug-In . SVG Version: 6.00 Build 0)  -->
<svg version="1.2" baseProfile="tiny-ps" id="レイヤー_1"
	 xmlns="http://www.w3.org/2000/svg" xmlns:xlink="http://www.w3.org/1999/xlink" viewBox="0 0 500 500" xml:space="preserve">
	 <title>Cybervision Hosting Co., Ltd.</title>
<g>
	<path fill="#231815" d="M481,337.1L436.6,294c8.5-50-3.1-100.3-30-141l28.4-20l-46.8-3.7c-5.9-6.5-12.2-12.7-19-18.4
		c-14.8-12.4-31.6-22.8-50.2-30.7c-3.1-1.3-6.2-2.5-9.4-3.7c-0.3-0.1-0.7-0.2-1-0.3L321,44.6l7.3-18.4l-22.6,14.6l-39.1,25.4
		c-1-0.1-2-0.3-3-0.4c-1.1-0.1-2.3-0.3-3.4-0.4c-2.2-0.2-4.4-0.3-6.5-0.5c-0.9-0.1-1.7-0.1-2.6-0.2c-3-0.1-5.9-0.2-8.9-0.2
		c-0.1,0-0.1,0-0.2,0c-0.4,0-0.7,0-1.1,0c-2.6,0-5.1,0.1-7.7,0.2c-0.9,0-1.9,0.1-2.8,0.2c-2,0.1-4.1,0.3-6.1,0.5
		c-1,0.1-1.9,0.2-2.9,0.3c-2.3,0.2-4.5,0.5-6.8,0.8c-0.6,0.1-1.2,0.2-1.8,0.2c-2.9,0.4-5.7,0.9-8.5,1.5c-0.7,0.1-1.4,0.3-2.1,0.5
		c-2.1,0.4-4.3,0.9-6.4,1.4c-0.9,0.2-1.9,0.5-2.8,0.7c-2,0.5-3.9,1.1-5.9,1.6c-0.9,0.2-1.7,0.5-2.6,0.7c-2.7,0.8-5.4,1.7-8.1,2.6
		c0,0-0.1,0-0.1,0c-2.7,1-5.4,2-8,3.1c-0.8,0.3-1.6,0.7-2.4,1c-1.9,0.8-3.7,1.6-5.6,2.4c-0.9,0.4-1.7,0.8-2.6,1.2
		c-1.9,0.9-3.9,1.9-5.8,2.9c-0.7,0.3-1.3,0.7-2,1c-2.5,1.3-5,2.7-7.5,4.2c-0.5,0.3-1,0.6-1.5,0.9c-2,1.2-3.9,2.4-5.8,3.6
		c-0.8,0.5-1.6,1-2.4,1.6c-1.7,1.1-3.3,2.3-5,3.4c-0.8,0.5-1.5,1.1-2.3,1.6c-2,1.5-4,3-5.9,4.5c-0.3,0.2-0.6,0.5-1,0.7
		c-2.2,1.8-4.4,3.7-6.6,5.6c-0.6,0.5-1.2,1.1-1.8,1.7c-1.6,1.4-3.1,2.8-4.6,4.3c-0.7,0.7-1.4,1.4-2.1,2c-1.5,1.5-3,3-4.4,4.5
		c-0.6,0.6-1.2,1.2-1.7,1.8c-2,2.1-3.9,4.3-5.8,6.5c-0.3,0.3-0.5,0.6-0.8,0.9c-1.6,1.9-3.2,3.9-4.7,5.9c-0.6,0.7-1.1,1.5-1.7,2.3
		c-1.2,1.7-2.4,3.3-3.6,5c-0.6,0.8-1.1,1.6-1.7,2.4c-1.3,1.9-2.6,3.9-3.8,5.9c-0.3,0.5-0.7,1.1-1,1.6c-1.5,2.5-3,5.1-4.5,7.7
		c-0.4,0.7-0.7,1.4-1.1,2c-1.1,2-2.1,4-3.1,6c-0.5,0.9-0.9,1.8-1.3,2.8c-0.9,1.9-1.8,3.9-2.7,5.9c-0.4,0.9-0.8,1.7-1.1,2.6
		c-1.2,2.8-2.3,5.6-3.4,8.5c0,0,0,0,0,0c-2.3,6.4-4.3,12.8-5.9,19.3c-0.8,3.2-1.5,6.5-2.2,9.7c-1.3,6.5-2.3,12.9-2.9,19.4
		c-0.6,6.5-0.9,12.9-0.9,19.3c0,6.4,0.3,12.8,1,19.1c0.6,5.7,1.4,11.4,2.5,17.1L20.2,343L2.8,370.7l68-12.1c0.3,0.5,0.5,1,0.8,1.5
		L41,439l63-22.3l11.7-4.1c9.7,8.1,20.3,15.3,31.6,21.6c2.9,1.6,5.8,3.1,8.8,4.5c6,2.9,12.2,5.5,18.6,7.8c0,0,0,0,0,0
		c3,1.1,6,2.1,9,3c1,0.3,2,0.6,3,0.9c2,0.6,4.1,1.2,6.1,1.7c1.2,0.3,2.3,0.6,3.5,0.9c1.9,0.5,3.8,0.9,5.7,1.3
		c1.2,0.3,2.4,0.5,3.7,0.7c1.9,0.4,3.7,0.7,5.6,1c1.2,0.2,2.4,0.4,3.7,0.6c1.9,0.3,3.8,0.5,5.7,0.7c1.1,0.1,2.3,0.3,3.4,0.4
		c2.2,0.2,4.3,0.3,6.5,0.5c0.9,0.1,1.8,0.1,2.6,0.2c1.3,0.1,2.7,0.1,4,0.1l19.8,15.5l2.3-16.2c0.2,0,0.4,0,0.7,0
		c1-0.1,1.9-0.2,2.9-0.3c2.3-0.2,4.5-0.5,6.8-0.8c0.6-0.1,1.2-0.2,1.8-0.2c2.9-0.4,5.7-0.9,8.5-1.5c0.7-0.1,1.4-0.3,2.1-0.5
		c2.1-0.4,4.3-0.9,6.4-1.4c0.9-0.2,1.9-0.5,2.8-0.7c2-0.5,4-1.1,5.9-1.6c0.8-0.2,1.7-0.5,2.5-0.7c2.7-0.8,5.4-1.7,8.1-2.7
		c0,0,0.1,0,0.1,0c2.7-1,5.4-2,8-3.1c0.8-0.3,1.6-0.7,2.4-1c1.9-0.8,3.8-1.6,5.6-2.5c0.9-0.4,1.7-0.8,2.6-1.2c2-0.9,3.9-1.9,5.8-2.9
		c0.6-0.3,1.3-0.6,1.9-1c2.5-1.3,5-2.7,7.5-4.2c0.5-0.3,1-0.6,1.5-0.9c2-1.2,3.9-2.4,5.9-3.6c0.8-0.5,1.6-1,2.3-1.5
		c1.7-1.1,3.4-2.3,5-3.5c0.7-0.5,1.5-1.1,2.2-1.6c2-1.5,4-3,5.9-4.5c0.3-0.2,0.6-0.5,0.9-0.7c2.2-1.8,4.4-3.7,6.6-5.6
		c0.6-0.5,1.2-1.1,1.8-1.6c1.6-1.4,3.1-2.8,4.7-4.3c0.2-0.2,0.4-0.4,0.6-0.6l44.1,8.9l73.7-58.8L481,337.1z M369.2,151l-24.5,17.2
		l-8.3-7l-16.6-14.1L369.2,151z M417.6,386.9l-202.4-40.8l-48.1,13.8l80.6,16.2l-1.8,12.2l1-6.9l-7.1,49.4l-54.8-43l-10.7-8.4
		l-10.7-8.4l-82.8,29.3l18.1-46.7l24.5-4.4l-36.2-17L50,338.9l110.9-176.6l10.9-7.1l5.5-3.5l101-65.5l-4.6,77.7l7.6-19.1l83.6,70.9
		l0.8,11.9l0.8,11.9l0,0l1.3,20.1l94.5,91.5L417.6,386.9z M342.9,232.9l2.9,34.3l-56.6-25.3l1-65.2L342.9,232.9z"/>
</g>
</svg>
