<svg xmlns="http://www.w3.org/2000/svg" xmlns:xlink="http://www.w3.org/1999/xlink" version="1.2" viewBox="0 0 96 96" baseProfile="tiny-ps">
  <title>CarePredict</title>
<desc>This is the CarePredict logo centered in a square.</desc>
  <rect width="96" height="96" fill="#FFFFFF"/>
  <g>
    <path d="M56.871,40.987c0,0,0.076-6.934-6.964-8.642c0,0-3.764,2.106-4.247,3.136   c1.798,0.148,5.5,1.457,5.474,5.553l-0.003,2.903c2.013,0.006,3.994,0.023,5.774,0.055C56.886,42.145,56.871,40.987,56.871,40.987" fill="#92908F"/>
    <path d="M39.149,64.821c0,0-0.131,6.972,6.908,8.683c0,0,3.767-2.109,4.25-3.141   c-1.806-0.14-5.448-1.489-5.422-5.588l-0.003-2.816c-2.013-0.015-3.991-0.038-5.777-0.076   C39.128,63.69,39.149,64.821,39.149,64.821" fill="#92908F"/>
    <path d="M44.867,36.864l0.006,7.077v5.829l0.009,6.344l-5.832-0.035c-0.02-2.007-0.029-4.183-0.029-6.321   c0-2.013,0.015-4,0.041-5.78c0.047-3.246,0.151-5.823,0.335-6.696c1.19-2.691,5.282-6.053,10.509-4.942   C44.919,35.169,44.867,36.864,44.867,36.864" fill="#92908F"/>
    <path d="M35.987,44.013c0,0-6.873-0.052-8.584,6.984c0,0,2.106,3.767,3.139,4.25   c0.145-1.798,1.396-5.524,5.498-5.492l2.981,0.006c0.003-2.016,0.015-4,0.041-5.783C37.177,43.995,35.987,44.013,35.987,44.013" fill="#F59123"/>
    <path d="M68.563,54.849c-2.821-4.986-4.523-5.041-4.523-5.041l-7.089-0.012l-5.829-0.015l-6.254-0.015   l0.003-5.826c1.99-0.015,4.145-0.017,6.26-0.006c2.016,0.006,4,0.023,5.774,0.061c3.264,0.052,5.849,0.163,6.719,0.349   C66.311,45.524,69.671,49.608,68.563,54.849" fill="#F59123"/>
    <path d="M59.939,61.934c0,0,6.914-0.047,8.624-7.086c0,0-2.109-3.761-3.139-4.247   c-0.143,1.803-1.437,5.625-5.538,5.594l-2.92-0.017c-0.006,2.022-0.023,4-0.055,5.78C58.773,61.948,59.939,61.934,59.939,61.934" fill="#F59123"/>
    <path d="M46.057,73.503c4.991-2.816,5.044-4.52,5.044-4.52l0.006-7.007l0.015-5.826v-6.367l5.829,0.015   c0.009,2.027,0.023,4.223,0.009,6.379c0,2.022-0.02,4.002-0.047,5.783c-0.055,3.205-0.163,5.751-0.349,6.612   C55.385,71.258,51.299,74.612,46.057,73.503" fill="#92908F"/>
    <path d="M51.108,61.976c-1.978,0.003-4.119,0-6.225-0.017c-2.013-0.017-4-0.041-5.777-0.076   c-3.278-0.067-5.884-0.183-6.766-0.372c-2.691-1.187-6.05-5.279-4.936-10.515c2.816,4.991,4.514,5.047,4.514,5.047l7.129,0.041   l5.829,0.029l6.245,0.038L51.108,61.976z" fill="#F59123"/>
    <path d="M59.43,78.622c0,0.684-5.218,1.242-11.652,1.242c-6.437,0-11.652-0.558-11.652-1.242   s5.215-1.239,11.652-1.239C54.212,77.383,59.43,77.938,59.43,78.622" fill="#92908F"/>
    <polygon points="48.67,22.738 75.396,39.868 84,39.868 48.67,16.141 12,39.868 21.293,39.868  " fill="#F59123"/>
    <polygon points="48.67,16.141 48.67,22.738 75.396,39.868 84,39.868  " fill="#92908F"/>
  </g>
</svg>