<?xml version="1.0"?><svg version="1.2" baseProfile="tiny-ps" viewBox="0 0 300 300" xmlns="http://www.w3.org/2000/svg" xmlns:xlink="http://www.w3.org/1999/xlink"><title>PcComponentes</title><g><g fill="#999" transform="matrix(.1 0 0 -.1 0 300)"><path d="M425 1997c-3-12-5-56-3-97l3-74 85-35 85-35 46 1 45 1 51 22c29 12 60 31 69 42l18 19-10 16-10 16-168 74c-92 40-176 73-186 73h-20l-5-23zm705-397v-290h190v230h640l32 29 32 29 4 98 3 99-18 35-18 35-25 12-25 13h-815v-290zm705 166 19-14v-70l-13-16-13-16h-508v130h496l19-14zm318 109-33-14-20-33-20-33v-390l20-32 19-32 31-16 30-16 361 3 361 3 34 37 34 38v120h-179l-3-37-3-38-234-3-234-2-23 15-24 15v280l24 15 23 15 234-2 234-3 3-32 3-33h179v107l-21 27c-11 14-34 33-49 41l-29 15h-343l-343-1-32-14zM7 1853l-7-6v-594l17-15c30-26 415-224 472-243l54-17 71 5 71 4 56 22c74 28 143 75 177 119l27 35 3 298 3 297-78-39c-86-43-175-69-239-69h-42l-64 20c-36 11-156 58-267 105-190 80-238 95-254 78zm1460-420c-4-3-7-33-7-65v-58h400v130h-193c-107 0-197-3-200-7zm-326-252-11-20v-110l16-15 15-16h89l16 26 17 25-12 12-13 12-15-22-15-23h-22c-12 0-27 5-34 12l-12 12v32c0 18 3 39 6 48l6 16h68v-30h31l-3 28-3 27-57 3-57 3-10-20zm170 10-15-9-4-59-4-58 15-20 15-20h89l16 14 17 13v124l-12 12-12 12h-45c-26 0-52-4-60-9zm97-69 3-43-12-15-12-15-26 3-26 3-3 58-3 58 38-3 38-3 3-43zm62-12v-92l13 4 12 5 5 64 5 64 23-68 24-68 16 3 15 3 26 70 26 70 3-72 3-73h29v180h-56l-18-52c-11-29-22-57-26-61l-8-9-19 59-20 58-26 3-27 3v-91zm230 0v-90h30v60h79l15 16 16 15v25c0 14-5 34-10 45l-11 19h-119v-90zm100 30v-30h-70v60h70v-30zm71 46-12-14 3-69 3-68 38-10 39-9 26 15 27 15 3 63 3 63-12 14-11 14h-96l-11-14zm97-73 3-52-25-7c-14-3-33-4-41 0l-15 5v49c0 58 5 64 45 60l30-3 3-52zm62-3v-90h30v73l1 72 37-70 37-70 28-3 27-3v181h-30l-1-72v-73l-37 73-36 72h-56v-90zm190 0v-90h120v30h-90v50h80v30h-80v40h90v30h-120v-90zm150-1v-91l13 4 12 5 5 68 5 68 34-72 35-71h56v180h-29l-3-72-3-73-38 73-37 72h-50v-91zm172 79c3-7 14-14 26-16l21-3 3-72 3-72 18-3 17-3v151h50v30h-142l4-12zm150-75 3-88 58-3 57-3v31h-80v50h80v30h-80v40h80v30h-121l3-87zm149 68c-13-24-14-41-2-60l9-14 44-6 43-6v-40l-28-3-27-3-6 15-6 16h-38v-12c0-7 4-19 8-26l9-13 34-5 34-6 28 11 27 11v69l-19 11c-11 5-33 10-50 10h-31v40h25c14 0 34-5 45-12l19-12 8 7 7 8-10 17-11 17-51 3-51 3-10-20z"/></g><g fill="#ff6000" transform="matrix(.1 0 0 -.1 0 300)"><path d="M425 1997c-3-12-5-56-3-97l3-74 85-35 85-35 46 1 45 1 51 22c29 12 60 31 69 42l18 19-10 16-10 16-168 74c-92 40-176 73-186 73h-20l-5-23zm705-397v-290h190v230h640l32 29 32 29 4 98 3 99-18 35-18 35-25 12-25 13h-815v-290zm705 166 19-14v-70l-13-16-13-16h-508v130h496l19-14zm318 109-33-14-20-33-20-33v-390l20-32 19-32 31-16 30-16 361 3 361 3 34 37 34 38v120h-179l-3-37-3-38-234-3-234-2-23 15-24 15v280l24 15 23 15 234-2 234-3 3-32 3-33h179v107l-21 27c-11 14-34 33-49 41l-29 15h-343l-343-1-32-14zM7 1853l-7-6v-594l17-15c30-26 415-224 472-243l54-17 71 5 71 4 56 22c74 28 143 75 177 119l27 35 3 298 3 297-78-39c-86-43-175-69-239-69h-42l-64 20c-36 11-156 58-267 105-190 80-238 95-254 78zm1460-420c-4-3-7-33-7-65v-58h400v130h-193c-107 0-197-3-200-7z"/></g><g fill="#565656" transform="matrix(.1 0 0 -.1 0 300)"><path d="M1130 1600v-290h190v230h640l32 29 32 29 4 98 3 99-18 35-18 35-25 12-25 13h-815v-290zm705 166 19-14v-70l-13-16-13-16h-508v130h496l19-14zm318 109-33-14-20-33-20-33v-390l20-32 19-32 31-16 30-16 361 3 361 3 34 37 34 38v120h-179l-3-37-3-38-234-3-234-2-23 15-24 15v280l24 15 23 15 234-2 234-3 3-32 3-33h179v107l-21 27c-11 14-34 33-49 41l-29 15h-343l-343-1-32-14z"/></g></g></svg>