<?xml version="1.0" encoding="utf-8"?>
<!-- Generator: Adobe Illustrator 26.5.0, SVG Export Plug-In . SVG Version: 6.00 Build 0)  -->
<svg version="1.2" baseProfile="tiny-ps" id="Layer_1" xmlns="http://www.w3.org/2000/svg" xmlns:xlink="http://www.w3.org/1999/xlink" viewBox="0 0 800 800" xml:space="preserve">
<title>NMFullLogo</title>

<g>
	<g>
		<path fill="#514689" d="M265.84,333.11h17.21l20.82,43.72v-43.72h11.06v55.55h-16.37l-21.52-46.1v46.1h-11.22V333.11z"/>
		<path fill="#514689" d="M340.68,348.94c14.06,0,20.13,9.53,20.13,20.36c0,10.91-6.3,20.75-20.36,20.75
			c-11.06,0-19.82-6.84-19.82-20.44C320.62,360.23,325.39,348.94,340.68,348.94z M340.83,382.13c4.99,0,8.37-3,8.37-13.29
			c0-5.15-1-12.29-8.53-12.29c-8.3,0-8.38,9.6-8.38,13.14C332.3,378.37,335.22,382.13,340.83,382.13z"/>
		<path fill="#514689" d="M366.64,359.39c0-1.84-0.31-7.45-0.54-9.68h10.68l0.23,7.45c1.46-3.3,4-7.99,13.22-7.53v10.22
			c-11.53-1.08-12.22,4.84-12.22,9.68v19.13h-11.37V359.39z"/>
		<path fill="#514689" d="M422.21,388.13c-3.69,1-6.99,1.23-8.84,1.23c-11.45,0-11.45-7.22-11.45-10.45v-21.28h-7.45v-7.53h7.45
			v-7.61l11.3-4.15v11.76h9.22v7.53h-9.22v17.52c0.08,3.54,0.08,5.76,5.15,5.76c1.69,0,2.46-0.08,3.84-0.23V388.13z"/>
		<path fill="#514689" d="M429.2,333.19h11.29v21.98c1.31-1.84,4.15-5.84,11.22-5.84c5.76,0,9.45,2.84,11.3,5.22
			c1.38,1.92,2.54,5.46,2.54,10.53v23.59h-11.3v-23.2c0-2.23,0-8.45-6.38-8.45c-3.23,0-7.3,1.84-7.3,7.91l0.08,23.74H429.2V333.19z"
			/>
		<path fill="#514689" d="M480.6,349.86l7.15,29.27l8.22-29.27h12.52l8.15,29.27l7.61-29.27h11.3l-13.29,38.8h-12.37l-7.99-28.74
			l-8.15,28.74h-12.52l-12.68-38.8H480.6z"/>
		<path fill="#514689" d="M547.08,372.14c0,2.53,0,10.37,7.91,10.37c2.84,0,5.69-1.08,6.76-5.38h10.37
			c-0.15,1.84-0.54,5.15-3.69,8.45c-2.84,2.99-7.91,4.53-13.6,4.53c-3.3,0-9.61-0.62-13.68-4.84c-3.53-3.69-4.99-8.91-4.99-15.14
			c0-6.3,1.54-13.83,8.07-18.36c3-2,6.69-3.23,10.91-3.23c5.53,0,12.14,2.15,15.68,9.37c2.61,5.3,2.46,10.99,2.31,14.22H547.08z
			 M561.53,365c0-1.77-0.15-8.68-6.76-8.68c-4.99,0-7.07,4.15-7.3,8.68H561.53z"/>
		<path fill="#514689" d="M588.57,377.45c0.15,2.46,1.69,5.3,6.46,5.3c4.07,0,5.99-2.3,5.99-4.61c0-1.77-0.92-3.15-5.38-4.38
			l-7.07-1.92c-3.15-0.92-9.84-2.84-9.84-10.76c0-7.53,6.92-12.14,16.98-12.14c7.99,0,14.45,3.69,14.75,11.45h-10.37
			c-0.31-4.3-3.76-4.61-5.53-4.61c-3.07,0-5.38,1.46-5.38,3.84c0,2.61,1.92,3.15,5.3,4.07l6.99,1.92
			c7.07,1.92,10.37,5.53,10.37,10.83c0,6.69-5.76,13.37-17.83,13.37c-5,0-9.76-1.08-13.29-4.76c-2.54-2.69-2.77-5.76-2.84-7.61
			H588.57z"/>
		<path fill="#514689" d="M641.89,388.13c-3.69,1-6.99,1.23-8.84,1.23c-11.45,0-11.45-7.22-11.45-10.45v-21.28h-7.45v-7.53h7.45
			v-7.61l11.3-4.15v11.76h9.22v7.53h-9.22v17.52c0.08,3.54,0.08,5.76,5.15,5.76c1.69,0,2.46-0.08,3.84-0.23V388.13z"/>
		<path fill="#514689" d="M656.58,372.14c0,2.53,0,10.37,7.91,10.37c2.84,0,5.69-1.08,6.76-5.38h10.37
			c-0.15,1.84-0.54,5.15-3.69,8.45c-2.84,2.99-7.91,4.53-13.6,4.53c-3.3,0-9.61-0.62-13.68-4.84c-3.53-3.69-4.99-8.91-4.99-15.14
			c0-6.3,1.54-13.83,8.07-18.36c3-2,6.68-3.23,10.91-3.23c5.53,0,12.14,2.15,15.68,9.37c2.61,5.3,2.46,10.99,2.31,14.22H656.58z
			 M671.03,365c0-1.77-0.15-8.68-6.76-8.68c-4.99,0-7.07,4.15-7.3,8.68H671.03z"/>
		<path fill="#514689" d="M689.39,359.39c0-1.84-0.31-7.45-0.54-9.68h10.68l0.23,7.45c1.46-3.3,3.99-7.99,13.22-7.53v10.22
			c-11.53-1.08-12.22,4.84-12.22,9.68v19.13h-11.37V359.39z"/>
		<path fill="#514689" d="M718.5,356.78c0-0.15,0-4.38-0.23-7.07h10.91l0.31,5.84c1.08-1.77,4.15-6.76,12.6-6.76
			c7.61,0,10.84,4.61,11.83,7.3c0.85,2.38,1.08,4.38,1.08,11.6v20.98h-11.6v-24.13c0-1.61,0-3-0.61-4.23
			c-0.85-1.69-2.61-3.3-5.53-3.3c-2.46,0-4.69,1.15-5.92,3c-0.69,1-1.38,2.92-1.38,5.92v22.74H718.5V356.78z"/>
	</g>
	<g>
		<path fill="#514689" d="M265.84,464.74v-55.48h7.99l20.82,48.33l21.28-48.33h7.61v55.48h-4.99v-51.25h-0.15l-21.21,51.25h-4.99
			l-21.21-51.02h-0.15v51.02H265.84z"/>
		<path fill="#514689" d="M336.3,446.53c0.15,8.22,3.92,15.14,13.37,15.14c5.46,0,9.99-3.92,11.14-9.22h4.84
			c-2.38,9.22-8.15,13.45-17.44,13.45c-11.53,0-16.9-9.91-16.9-20.44c0-10.45,5.76-20.44,17.21-20.44c12.91,0,17.6,9.45,17.6,21.51
			H336.3z M361.11,442.3c-0.54-7.45-4.53-13.06-12.52-13.06c-7.53,0-11.53,6.3-12.14,13.06H361.11z"/>
		<path fill="#514689" d="M401.91,459.05l-0.15-0.31c-3.15,4.61-7.84,7.15-13.22,7.15c-11.45,0-15.83-10.91-15.83-20.59
			c0-9.99,4.38-20.29,15.83-20.29c5.15,0,10.53,2.46,13.22,6.99l0.15-0.15v-22.59h4.61v46.79c0,3,0.23,6.07,0.38,8.68h-4.76
			L401.91,459.05z M389.31,429.24c-8.76,0-11.6,8.15-11.6,15.52c0,7.15,2.07,16.9,10.91,16.9c10.07,0,13.14-8.37,13.14-17.13
			C401.76,436.69,398.3,429.24,389.31,429.24z"/>
		<path fill="#514689" d="M422.35,415.02h-5.38v-5.76h5.38V415.02z M421.96,426.17v38.57h-4.61v-38.57H421.96z"/>
		<path fill="#514689" d="M458.07,438c-0.38-5.92-4.15-8.76-10.53-8.76c-7.07,0-11.45,7.38-11.45,16.14
			c0,8.84,4.38,16.29,11.45,16.29c5.99,0,10.14-3.69,10.53-8.99h5c-1.23,8.84-6.3,13.21-15.06,13.21c-11.53,0-16.9-9.91-16.9-20.44
			c0-10.45,5.76-20.44,17.21-20.44c7.91,0,14.37,4.76,14.75,12.98H458.07z"/>
		<path fill="#514689" d="M476.44,415.02h-5.38v-5.76h5.38V415.02z M476.05,426.17v38.57h-4.61v-38.57H476.05z"/>
		<path fill="#514689" d="M492.26,464.74h-4.61v-29.89c0-3-0.23-6.07-0.38-8.68h4.76l0.23,5.68l0.15,0.15
			c2.69-4.76,7.07-6.99,12.06-6.99c12.6,0,13.6,11.14,13.6,15.6v24.13h-4.61v-24.89c0-6.69-3.84-10.6-10.14-10.6
			c-7.61,0-11.06,6.38-11.06,13.29V464.74z"/>
		<path fill="#514689" d="M530.37,446.53c0.15,8.22,3.92,15.14,13.37,15.14c5.46,0,9.99-3.92,11.14-9.22h4.84
			c-2.38,9.22-8.15,13.45-17.44,13.45c-11.53,0-16.9-9.91-16.9-20.44c0-10.45,5.76-20.44,17.21-20.44
			c12.91,0,17.59,9.45,17.59,21.51H530.37z M555.19,442.3c-0.54-7.45-4.53-13.06-12.52-13.06c-7.53,0-11.53,6.3-12.14,13.06H555.19z
			"/>
	</g>
	<g>
		<polygon fill="#514689" points="58.29,353.07 118.51,464.87 151.96,464.87 82.41,333.23 44,333.23 44,464.87 58.29,464.87 		"/>
		<polygon fill="#514689" points="199.65,464.87 229.26,464.87 229.26,333.23 199.7,333.23 164.89,395.84 131.78,333.23 
			97.92,333.23 155.64,442.28 199.7,362.8 		"/>
	</g>
	<g>
		<path fill="#514689" d="M567.3,415.01c-3.49,0-6.29,2.81-6.29,6.26c0,3.49,2.81,6.3,6.29,6.3c3.48,0,6.27-2.81,6.27-6.3
			C573.57,417.82,570.78,415.01,567.3,415.01z M567.3,426.68c-2.99,0-5.4-2.42-5.4-5.4c0-2.95,2.41-5.37,5.4-5.37
			c2.97,0,5.37,2.42,5.37,5.37C572.67,424.26,570.27,426.68,567.3,426.68z"/>
		<g>
			<path fill="#514689" d="M569.72,422.95c-0.06-0.72-0.22-1.35-0.96-1.52v-0.02c0.78-0.25,1.12-0.98,1.12-1.87
				c0-1.18-0.75-1.93-1.95-1.93h-3.02v7.38h0.85v-3.15h2.09c0.83,0,0.98,0.61,1.07,1.33c0.13,0.72-0.01,1.52,0.23,1.82h0.95
				C569.74,424.48,569.77,423.67,569.72,422.95z M567.53,421h-1.78v-2.57h2.12c0.8,0,1.14,0.54,1.14,1.26
				C569.02,420.77,568.33,421,567.53,421z"/>
		</g>
	</g>
</g>
</svg>
