<?xml version="1.0" encoding="UTF-8" standalone="yes"?>
<svg version="1.2" viewBox="0 0 200 200" baseProfile="tiny-ps" xmlns="http://www.w3.org/2000/svg">
  <title>RQS</title>
  <rect class="st1" width="200" height="200" fill="#fff"/>
  <g id="ARTWORK">
    <path class="st0" fill="#00473b" d="M177.8,130.8c-1.2-.5-2.2-.3-3,1h0c-.1.2-.2.4-.4.6h0c-.8,1.2-1.9,2.4-3.9,3.5h-.1c-.3.2-.7.3-1,.5-.1,0-.2,0-.3.1-.4.1-.8.3-1.2.4h-.3c-.5.1-1,.3-1.6.4h-.3c-.5,0-1,.2-1.5.2h-.6c-.5,0-1,0-1.5.1h-3c-6-.2-12.1-2.4-17.4-5.3h0c-7.1-3.9-13.1-8.9-16-11.7-1.1-1-.9-2.7.2-3.5,1.3-.9,2.9-2.2,4.6-3.9,6.6-6.4,10.6-15.2,10.6-25s-4-21.1-11.2-28.2c-7.2-7.1-17.4-11-28.6-11s-19.7,3.8-26.7,10.7-10.8,16.3-10.8,26.4c0,21.8,16.4,37.7,39,37.9h0c3.3,0,6-.2,7.8-.5,1.4-.2,2.7.3,3.6,1.3l5.2,6.3c10.6,13.1,20.7,19.3,32.7,19.9,6.2.3,12.5-.2,16.9-3.1,8.2-5.8,11.7-16.2,9.1-17.4h0l-.3.3ZM115.2,111.4c-1.4,2.1-4,3-6.5,2.3-25.2-7-34.3-31.2-19.2-51.8,1.4-2,3.9-2.8,6.3-2.2,25.2,6.3,34.1,30.5,19.4,51.7h0ZM9.8,108c-1.6.8-2.1,1.9-2.1,3.1,0,1.8,1.1,3.4,3.7,3.4h17.1c3,0,4.3-1.4,4.3-3.3s-.5-2.3-2.4-3.2c-2.7-1.4-3.3-2.7-3.3-6v-7c0-1.4.7-1.8,1.9-1.9,4.2-.2,6.8,2.4,9.5,7.8,1.4,2.9,2.5,5.7,3.5,8.1,1.8,4,3.6,5.4,8,5.4h9.1c2.7,0,3.9-1.2,3.9-3.3s-.8-2.9-2.3-3.9c-1.8-1.1-3.2-2.7-5.4-6.9l-2-3.7c-1.9-3.7-3.8-5.8-6.5-7.4-.8-.5-.6-1.1,0-1.5,5.8-3,10.1-6.9,10.1-13.5,0-9.8-7.4-15.3-17.5-15.3H11.3c-2.6,0-3.7,1.5-3.7,3.3s.5,2.3,2,3.2c2.3,1.3,3,2.7,3,5.9v30.7c0,3.3-.5,4.6-2.8,5.9h0ZM29.7,67.6h3.4c4.7,0,8,3.5,8,8.2s-4.1,8.5-9.9,8.5h-2.3c-1.2,0-1.7-.5-1.7-1.9v-12.2c0-1.9.4-2.6,2.4-2.6h0ZM172.7,79.7c-8-1.5-11.5-4-11.5-7.8s3-6.1,7.1-6.1,6.9,2.4,10.6,7.7c1.2,1.8,2.3,2.6,3.6,2.6s2.7-1,5-3.1c4.1-3.7,4.9-6.1.6-9.3-5.2-3.8-12.6-5.6-19.1-5.6-12.6,0-22.9,6.8-22.9,17.8s5.8,14.4,19.3,17c8.5,1.8,11.8,4.1,11.8,8.3s-3,6.6-7.5,6.6-9-4.2-12.3-9c-1.4-2-2.4-3-3.6-3s-3.3,1.8-5.1,3.6c-3.9,4-5.5,6.3-1.2,9.9,5.3,4.3,14.3,6.3,21.2,6.3,13,0,23.6-6.9,23.6-18.5s-5.8-14.7-19.7-17.3h0Z"/>
  </g>
</svg>