<?xml version="1.0" encoding="UTF-8"?>
<svg version="1.2" baseProfile="tiny-ps" id="a" xmlns="http://www.w3.org/2000/svg" xmlns:xlink="http://www.w3.org/1999/xlink" viewBox="0 0 98.71 99.57">
    <title>Your Brand</title>
    <rect x="-1.87" y="-2.8" width="102.45" height="105.17" fill="#fff" />
    <path d="m12.3,65.76c5.32,8.08,11.43,13.1,17.54,16.75,9.08,5.42,20.54,8.96,29.57,9.44,15.14.82,30.69-5.95,22.8-23.41s-31.38-26.21-44.67-30.16c-.62-.19-4.3-8.68-4.3-8.68l-6.27,12.72,20.75,16.51-3.91-8.12s22.25,4.09,28.77,15.29c7.56,12.98.85,21.45-15.88,22.13-14.99.62-27.21-7.58-33.73-12.36-8.07-5.92-15.99-19.09-12.44-25.85,2.43-4.62,2.61-6.47,2.61-6.47,0,0-.75,1.32-2.93,5.73-.36,4.61-1.39,11.2,2.08,16.48h0Z" fill="#0054a6" fill-rule="evenodd" />
    <path d="m8.72,52.91c-.89,8.04,2,12.34,6.14,15.05,6.15,4.02,16.98,5.25,27.61,3.57,17.81-2.83,43.09-14.56,49.43-32.83s-14.43-22.56-27.11-23.82c-.58-.06,2.7-8.99,2.7-8.99l-19.36,16.31,10.29,13.97,2.65-8.44s23.52-.81,21.25,10.55c-2.64,13.16-18.63,24.65-39.78,29.62-18.95,4.46-28.62-4.01-30.02-5.92-3.91-5.31-2.1-18.14,8.47-26.87,7.21-5.95,13.32-8.9,13.32-8.9,0,0-7.52,2.69-14.24,8.35-6.34,5.34-10.78,13.11-11.36,18.36h0Z" fill="#f57f29" fill-rule="evenodd" />
</svg>
