<?xml version="1.0" encoding="utf-8"?>
<svg version="1.2" baseProfile="tiny-ps" xmlns="http://www.w3.org/2000/svg" viewBox="0 0 595 595" xml:space="preserve">
	<title>Credit Agricole BIMI</title>
	<desc>Credit Agricole logo for use with BIMI and other SVG Portable/Secure (SVG P/S) applications.</desc>
	<g>
		<rect x="96.62" y="407.23" fill="#006845" width="377.72" height="33.8"/>
		<path fill="#DF002D" d="M502.36,193.13c-0.08-0.02-59.42,34.09-73.33,39.3c-12.78,5.04-17.78-1.47-18.98-4 c-2.53-2.47-10.04-25.08-9.99-25.13c-0.05,0.05,3.7,0.05,11.22-1.21c8.96-2.58,91.01-48.15,91.08-48.12V193.13L502.36,193.13z"/>
		<g>
			<path fill="#006845" d="M336.77,223.22l25.5,63.87l45.03-23.7l-39-86.48h-56.74l-79.7,148.8c0.06,0.03,39.22-1.21,64.3-20.13 C302.5,301.83,320.39,254.83,336.77,223.22L336.77,223.22L336.77,223.22z"/>
			<path fill="#009198" d="M407.3,263.39l-45.03,23.7c-38.54,19.74-75.14,37.08-94.84,42.65c-52,14.98-115.33,23.98-138.08,3.81
					c-21.4-19.01,28.01-98.59,121.47-116.3c15.03-3.74,23.99-2.51,23.99-2.41c0-0.11-7.46-29.25-11.39-32.93
					c-7.55-7.8-13.8-10.29-23.98-9.01c-20.22,1.21-106.29,24.17-140.24,95.9c-18.93,40.75,7.5,83.67,23.95,94.87
					c5,4.03,55.65,48.13,168.04,4.06c111.35-43.23,211.1-111.32,211.18-111.32v-45.55C502.32,210.82,458.35,236.02,407.3,263.39z"/>
			<path fill="#006845" d="M378.07,328.61c4.17,9.78,16.14,38.28,19.2,46.49c4,9,13.98,9,13.98,8.96h51.95l-38.69-80.25 C410.33,311.77,394.71,320.18,378.07,328.61z"/>
		</g>
	</g>
</svg>
