<?xml version="1.0" encoding="utf-8"?>
<svg version="1.2" baseProfile="tiny-ps" id="RB17_standard_rgb"
	 xmlns="http://www.w3.org/2000/svg" xmlns:xlink="http://www.w3.org/1999/xlink" viewBox="0 0 850.4 850.4"
	 xml:space="preserve">
	 	 <title>Red_Bull_Leipzig</title>
<g>
	<rect id="BG" fill="#FFFFFF" width="850.4" height="850.4"/>
	<g>
		<path fill="#DADADA" d="M407.7,466.1c-21,0-40.6-6-57.2-16.4c17.7,22.8,45.4,37.4,76.5,37.4c37.1,0,69.3-20.8,85.6-51.5l-0.1,0
			c-1.9-0.5-4.8-1.6-8.1-2.9c-3.7-1.5-10.5-4.1-12.7-4.4c-0.4,0.3-1.3,0.9-1.9,1.4c-1.1,0.9-2.4,1.9-4.1,3
			C466.1,453.3,438.4,466.1,407.7,466.1L407.7,466.1z"/>
		<path fill="#DD0741" d="M708.9,363.1c1.2-1.7,1.2-4.9,0.3-6.8c-1-2.1-4.2-2.8-6.3-3.5c-2.5,0.5,0.3,2.8-1.9,3.7l-4.9-0.6
			c-3.1-3.2,3.3-2.7,3.7-4.4c0.5-2.5-1.8-4.7-0.3-7.2c-0.3-0.6-0.6-1.2-1.3-1.4c-2.5-0.9-17.6-4.5-19.6-4.3l-0.6,0.7
			c0.6,0.8,3.1,3.1,3.3,3.3c1,1.8-5.8,3.1-6.9,3.3c-5.4,1.1-19.9,2.9-17.7,11.4c1,4,15.4,14.2,17.1,18.6c0.4,1,2.3,3,1,3.8
			c-2.6,1.8-15.9-0.6-16.7,1.5c0.7,2.8,8.7,4.9,11.2,5.9c3,1.2,5.9,2,9,0.5c3.6-1.8,5.9-6.5,5.3-10.4c-0.3-1.8-2.2-6.2-3.4-7.7
			c-1-1.4-9.8-8.3-7.3-9.2c2.9,0.9,7,0.1,9.1,2.9c5.5,1.6,11.4,2.5,17,3.5C702.6,367.3,706.7,366.3,708.9,363.1L708.9,363.1z
			 M588.4,431c0.5-1,0.6-2.3,0.1-3.4c-0.5-0.4-0.9-1-1.6-1.1c-2.5,0.6-5.1,1.7-8,1c-2.6,0-6.9-2.4-8.1,1.2c-0.5,2.3-1.7,4.2-2.3,6.3
			c0,1.2,1.1,2.3,2.2,2.8c1.6,0.4,3.6,1.3,5.1,1c2.7-1.9,2.5-5.3,5.2-7.3c1.5,0.4,1.6,2.4,3.3,2.2C586,433.5,587.6,432.5,588.4,431
			L588.4,431z M654.5,388.9c0.5-2.6-2.4-3-4.2-3.5c-4.2-1.4-8.3-2.7-12.6-3.9c-3.1-0.9-6.2-2.5-9.3-3.2c-3.9-0.8-7-0.9-9.8-4.3
			l0.6-0.4c3.7,1.5,9.7,4.7,13.6,2.1c1.8-1.2,3.8-4.5,2.9-6.8c-0.7-1.7-2.7-1.9-4.2-2.5c-6.1-2.7-12.1-5.9-18-8.9
			c-12.6-6.3-25.2-12.6-37.7-19c-5.7-2.9-12.2-6.2-18.5-7.6c-5.1-1.1-10.9,0.3-15.4,3c-4.4,2.7-4.3,8.9-7.6,8.2
			c-0.5-0.5-0.9-1.2-0.8-1.9c-1.3-2.1-5.5,3.8-8.9,5.5c-7.5,3.8-20.7,18.2-26.2,25.1c-3.4,4.3-4.8,9.9-6.1,15.1l0.7,1
			c1.6,0.4,3.2-0.3,4.6-1c1.4,0.4,1.2,2.1,2,3.1c5.5,7.4,20.1,3.1,28.1,5.8c0.1,0.5,0,0.9-0.5,1c-3.6,0.5-8.3-0.3-12-0.4
			c-8.4-0.2-16.9-0.3-25.3-0.8l-1,0.5c-0.8,1.7-5.4,11.7-6.2,12.5c-1.1,1.2-2.8,2.2-4,3.5c-3.3,3.7-5.6,8.1-9.8,10.9
			c-1.2,0.9-3.7,1.3-4.3,2.7l0.6,0.7c12.5,1,13.7-12.1,22.1-15c0.5,0.1,0.6,0.6,0.5,1c-2.1,2.1-4.3,5.1-5.6,7.7
			c-4.9,9.9-8.4,6.9-13,11.4l0.7,1.1c13.8-0.4,16.3-8.2,20.8-8.8c3.8-0.5,18.2,6.2,23,7.5c2.4,0.7,4.7,1.5,7.3,1.4
			c0.8,0,2-0.5,2.7-0.4c1.8,0.1,2.2,3.4,6.3,1.4c2.4-1.2,2.6-4.6,2.9-7c0.4-2.8-3.2-5.3-2.9-6.8c0.4-2.2,3.1,0.7,3.7-1.2
			c0.4-1.1-1-3.5-1.7-4.3c-1.8-2.3-6.9-6.3-6.2-9.7c0.1-0.3,1-1,1.4-1L544,405c0.6,0.1,3.1,6,3.2,6.6c0,0.9-2.4,7-2.9,8.2
			c-1.4,3.3-3.8,5.7-3.8,9.6c0,4.7,3.2,9.1,5.6,13c2.6,4.3,6.9,2.3,10.7,3.5c1.6,0.5,3.3,1.6,4.8,2.3c4.9,2.1,10.3,4.3,15.5,5.6
			c2.8,0.7,7.2-0.3,8.9-2.9c1.2-1.9-2.9-2.5-1.1-4.6c1-1.1,2.2-1.1,3.5-0.9c2.9,0.3,17.8,2.1,19.4,0.5c0.5-0.6-0.3-1.3-0.7-1.5
			c-3-1.5-7.7-2.1-11-3.1c-4-1.1-8.1-1.4-12.1-2.6c-3.4-1-3.2,2.4-5.6,4c-3.7,2.3-13.5-2.3-14.7-6.5c-1.1-4,2.5-9.1,5.2-11.9
			c2.1-2.1,4.6-2.4,6.6-4.1c1.3-1,0.4-3.1,0.4-4.4c2-2.5,9.6,1.5,12.7,0.6c3.4-0.9,0.9-5.4,3.7-6.2c2.5,0.7,4.5,2.5,7,3.4
			c1.8,0.7,5,1,6.2,2.6c1,1.3,0,3.1-0.3,4.4c0.9,1.7,3.7,2.2,5.4,2.5c2.8,0.4,5.8,0.2,8.7,0.5c2.8,0.3,5.7,1.1,8.4,1.4l9.4,0.9
			c2.3,1.1-0.5,3,1.5,7.4c-2.2-0.3-11.4-3.1-12.5,0c8.1,7.6,26.6,12.9,37.5,14.5c6.7,1,13.8,0.7,20.5,0.2c1-0.1,1.9-0.2,2.5-0.8
			c0,0,3.6-3,5.5-2.7c2.6,0.4,5.7,5.5,11.1,7.6c3.7,2.1,7.2-1.5,10.1,0.1c3.5,2,5.8,12.1,11.4,10.5c1.1-0.3,6-2,6.7-2.7
			c1.9-1.5-1.3-5.5-2.9-8.2c-0.6-0.8-1-1.4-1.7-1.6c-6.6-1.7-3.5-9.2-12.8-10.9c-4.2-0.8-5.3-1.1-9.5-1.9c-1.1-0.2-3.7,0.4-3.9-1.3
			c0,0,0.7-0.8,0.7-0.8l7.5-0.2l-0.2-1c-12-1.5-23.8-4.9-35.9-6.3c-0.9-0.5-2-3.3-1.9-4.2c0.4-2.2,3.8,1.9,5.6-2.4
			c1-2.5-1.5-4.7,0.5-5.9c5.3,0.7,10.6,1.3,15.8,2.1c-29.9-7.1-60-13.1-89.8-20.2c-6.5-1.5-13.1-2.6-19.5-4.5l0.1-0.7
			c26.3,3.7,52.4,10,78.9,12.8v-0.6c-14.6-2.8-29.1-6.5-43.7-9.1c-21.8-3.9-43.8-7.2-65.7-10.6c-14.3-2.2-28.8-4.9-43.3-6.1l-0.5,1
			c1,1.2,2.3,1.7,3.6,2.4c0.2,0.3,0.2,0.7-0.1,0.9c-1.8-0.2-10,0.3-10.1-1.6c3.1-2.9,3.8-4.4,8.2-4c6.9,0.6,13.9,1.7,20.7,2.5
			c39.6,5.1,79.5,10.4,118.9,17.2c41.5,7.2,63.5,10.4,97.6,17c-11.6-4.2-63.8-18.8-90.5-23.4C656.6,390.1,655.1,390.3,654.5,388.9
			L654.5,388.9z M644.7,435.4c2.1,0.2,3.2,0.1,5.9,0.7c4.4,0.9,8.9,1.3,13.4,2.5c0.7,0.3,1.5,1.3,1.6,2c-0.3,0.5-0.9,0.6-1.3,0.6
			l-17.7-4.5L644.7,435.4L644.7,435.4z M547.3,428.2l4.9-11.5c0.2-0.8,1-1.6,1.8-1.5c1.1,0.4,2.4,0.5,2.8,1.8l-4.2,9
			c-2.9,3.8-0.8,9.1,0.2,12.9c-0.1,0.5-0.6,0.8-1.1,0.9C548.8,436.8,546.2,432.7,547.3,428.2L547.3,428.2z M510.1,420.1
			c-1.1,0.8-3.1,0.4-4.5,0.2c-1.7-0.9-2.1-2.9-2.2-4.7c0-0.5,0.1-0.9,0.6-1.3c2,0,3.9,0.5,5.2,2.1
			C509.7,417.5,510.7,418.8,510.1,420.1L510.1,420.1z M569.4,373.2l2.4,1.1c0,0-35.8-5.1-53.1-7.6c-0.7-0.1-3-0.3-2.6-1.6
			c0.4-0.3,1-0.5,1.5-0.4L569.4,373.2L569.4,373.2z M578.7,357.2l-0.4,0.4c-9.1-1.8-18.5-3.9-27.5-6.4c-0.7-0.2-2.3-0.3-2.1-1.4
			c3.3-0.6,18.3,3.3,22.1,4.6c1.7,0.6,2.7,0.2,4.4,0C576.4,355.2,577.7,356,578.7,357.2L578.7,357.2z M265.4,427.6
			c-0.5,1.1-0.4,2.4,0.1,3.4c0.8,1.5,2.4,2.5,4.1,2.7c1.6,0.2,1.8-1.8,3.3-2.2c2.7,2,2.5,5.4,5.2,7.3c1.4,0.3,3.4-0.6,5.1-1
			c1.1-0.5,2.2-1.6,2.2-2.8c-0.5-2.2-1.8-4.1-2.3-6.3c-1.2-3.5-5.4-1.2-8.1-1.2c-2.9,0.7-5.4-0.4-8-1
			C266.3,426.6,265.9,427.2,265.4,427.6L265.4,427.6z M388.6,425.6l0.6-0.7c-0.5-1.4-3-1.9-4.3-2.7c-4.1-2.8-6.5-7.3-9.8-10.9
			c-1.2-1.3-2.9-2.3-4-3.5c-0.7-0.8-5.4-10.8-6.2-12.5l-1-0.5c-8.4,0.5-16.9,0.6-25.3,0.8c-3.7,0.1-8.4,0.8-12,0.4
			c-0.5-0.1-0.7-0.5-0.5-1c8-2.7,22.6,1.6,28.1-5.8c0.8-1,0.6-2.7,2-3.1c1.5,0.7,3,1.4,4.6,1l0.7-1c-1.3-5.3-2.6-10.8-6.1-15.1
			c-5.4-6.9-18.6-21.3-26.2-25.1c-3.4-1.7-7.5-7.6-8.9-5.5c0.1,0.7-0.3,1.4-0.8,1.9c-3.3,0.7-3.2-5.6-7.6-8.2
			c-4.5-2.7-10.3-4.1-15.4-3c-6.3,1.4-12.8,4.7-18.5,7.6c-12.6,6.4-25.1,12.7-37.7,19c-6,3-11.9,6.2-18,8.9
			c-1.4,0.6-3.5,0.8-4.2,2.5c-0.9,2.2,1.1,5.6,2.9,6.8c3.9,2.6,9.9-0.6,13.6-2.1l0.6,0.4c-2.7,3.5-5.9,3.5-9.8,4.3
			c-3.1,0.6-6.2,2.3-9.3,3.2c-4.2,1.2-8.4,2.5-12.6,3.9c-1.8,0.6-4.6,1-4.2,3.5c-0.6,1.4-2.2,1.2-3.4,1.4
			c-26.7,4.6-78.9,19.2-90.5,23.4c34.1-6.6,56.1-9.8,97.6-17c39.4-6.8,79.3-12.1,118.9-17.2c6.9-0.9,13.8-1.9,20.7-2.5
			c4.4-0.4,5.2,1.1,8.2,4c0,2-8.2,1.4-10.1,1.6c-0.3-0.2-0.3-0.6-0.1-0.9c1.3-0.7,2.7-1.3,3.6-2.4l-0.5-1c-14.4,1.2-29,3.9-43.3,6.1
			c-21.9,3.4-43.9,6.6-65.7,10.6c-14.6,2.6-29.1,6.4-43.7,9.1v0.6c26.4-2.8,52.5-9.2,78.9-12.8l0.1,0.7c-6.4,2-13,3-19.5,4.5
			c-29.9,7.1-60,13.1-89.8,20.2c5.3-0.7,10.6-1.4,15.8-2.1c2,1.2-0.5,3.4,0.5,5.9c1.8,4.3,5.3,0.3,5.6,2.4c0.1,0.9-1,3.6-1.9,4.2
			c-12,1.4-23.8,4.8-35.9,6.3l-0.2,1l7.5,0.2c0,0,0.7,0.8,0.7,0.8c-0.1,1.6-2.7,1.1-3.9,1.3c-4.2,0.8-5.3,1.1-9.5,1.9
			c-9.4,1.8-6.3,9.3-12.8,10.9c-0.7,0.2-1.1,0.8-1.7,1.6c-1.6,2.7-4.8,6.7-2.9,8.2c0.7,0.7,5.6,2.3,6.7,2.7
			c5.6,1.6,7.9-8.5,11.4-10.5c2.9-1.6,6.4,2,10.1-0.1c5.5-2.1,8.5-7.1,11.1-7.6c1.9-0.3,5.5,2.7,5.5,2.7c0.6,0.5,1.5,0.7,2.5,0.8
			c6.7,0.6,13.8,0.8,20.5-0.2c10.9-1.6,29.4-6.9,37.5-14.5c-1.1-3.1-10.3-0.3-12.5,0c2.1-4.4-0.7-6.3,1.5-7.4l9.4-0.9
			c2.8-0.3,5.6-1.1,8.4-1.4c2.8-0.3,5.9-0.1,8.7-0.5c1.7-0.3,4.5-0.8,5.4-2.5c-0.2-1.4-1.2-3.1-0.3-4.4c1.2-1.6,4.4-2,6.2-2.6
			c2.5-0.9,4.4-2.7,7-3.4c2.9,0.9,0.4,5.3,3.7,6.2c3.1,0.9,10.7-3.2,12.7-0.6c0,1.4-0.9,3.4,0.4,4.4c2,1.6,4.5,1.9,6.6,4.1
			c2.6,2.7,6.3,7.8,5.2,11.9c-1.2,4.2-11,8.9-14.7,6.5c-2.4-1.5-2.2-5-5.6-4c-4,1.2-8.1,1.5-12.1,2.6c-3.3,0.9-8,1.6-11,3.1
			c-0.5,0.2-1.2,1-0.7,1.5c1.6,1.7,16.5-0.1,19.4-0.5c1.4-0.1,2.6-0.2,3.5,0.9c1.8,2.1-2.3,2.7-1.1,4.6c1.7,2.6,6,3.6,8.9,2.9
			c5.2-1.2,10.6-3.5,15.5-5.6c1.5-0.7,3.2-1.8,4.8-2.3c3.8-1.3,8,0.8,10.7-3.5c2.4-3.9,5.6-8.3,5.6-13c0-3.9-2.4-6.3-3.8-9.6
			c-0.5-1.2-2.9-7.3-2.9-8.2c0-0.6,2.6-6.5,3.2-6.6l16.8-2.1c0.3,0,1.3,0.7,1.4,1c0.7,3.4-4.4,7.4-6.2,9.7c-0.7,0.9-2.1,3.2-1.7,4.3
			c0.6,1.9,3.4-1,3.7,1.2c0.3,1.5-3.3,4-2.9,6.8c0.3,2.4,0.5,5.8,2.9,7c4,1.9,4.4-1.4,6.3-1.4c0.7,0,1.9,0.4,2.7,0.4
			c2.5,0,4.9-0.8,7.3-1.4c4.8-1.3,19.2-8.1,23-7.5c4.5,0.6,7,8.4,20.8,8.8l0.7-1.1c-4.7-4.5-8.2-1.5-13-11.4
			c-1.3-2.6-3.5-5.6-5.6-7.7c-0.1-0.4,0.1-0.9,0.5-1C374.8,413.5,376.1,426.6,388.6,425.6L388.6,425.6z M209.3,435.4l-2,1.3
			l-17.7,4.5c-0.4,0-1-0.1-1.3-0.6c0.1-0.7,0.9-1.7,1.6-2c4.5-1.3,9-1.6,13.4-2.5C206.1,435.6,207.2,435.6,209.3,435.4L209.3,435.4z
			 M306.7,428.2c1.1,4.5-1.5,8.6-4.4,11.5c-0.5-0.1-1-0.4-1.1-0.9c1-3.8,3.1-9,0.2-12.9l-4.2-9c0.4-1.3,1.7-1.4,2.8-1.8
			c0.8-0.1,1.6,0.7,1.8,1.5L306.7,428.2L306.7,428.2z M305.3,349.8c0.2,1-1.4,1.2-2.1,1.4c-9,2.5-18.4,4.7-27.5,6.4l-0.4-0.4
			c1-1.2,2.3-2,3.5-2.8c1.7,0.2,2.7,0.6,4.4,0C286.9,353.1,302,349.2,305.3,349.8L305.3,349.8z M335.2,366.7
			c-17.3,2.5-53.1,7.6-53.1,7.6l2.4-1.1l51.8-8.4c0.5-0.1,1.1,0.1,1.5,0.4C338.2,366.4,336,366.6,335.2,366.7L335.2,366.7z
			 M350.6,415.6c-0.2,1.9-0.6,3.8-2.2,4.7c-1.4,0.2-3.4,0.6-4.5-0.2c-0.7-1.3,0.4-2.6,0.9-3.8c1.3-1.6,3.3-2.1,5.2-2.1
			C350.5,414.6,350.6,415.1,350.6,415.6L350.6,415.6z M197.3,357.3c2.1-8.5-12.3-10.3-17.7-11.4c-1.1-0.2-7.9-1.5-6.9-3.3
			c0.1-0.2,2.7-2.5,3.3-3.3l-0.6-0.7c-2.1-0.2-17.1,3.4-19.6,4.3c-0.6,0.2-1,0.9-1.3,1.4c1.5,2.4-0.8,4.7-0.3,7.2
			c0.4,1.7,6.8,1.3,3.7,4.4l-4.9,0.6c-2.2-1,0.6-3.2-1.9-3.7c-2,0.7-5.2,1.4-6.3,3.5c-0.9,1.9-0.9,5.1,0.3,6.8
			c2.1,3.2,6.2,4.2,9.9,3.5c5.6-1,11.5-2,17-3.5c2.1-2.8,6.1-2,9.1-2.9c2.5,0.9-6.3,7.8-7.3,9.2c-1.1,1.5-3,5.9-3.4,7.7
			c-0.6,3.9,1.7,8.7,5.3,10.4c3.2,1.6,6,0.7,9-0.5c2.6-1,10.5-3.1,11.2-5.9c-0.7-2.1-14,0.3-16.7-1.5c-1.3-0.9,0.6-2.9,1-3.8
			C182,371.5,196.4,361.3,197.3,357.3L197.3,357.3z M130.7,439.1c-0.5-1.4-9.4,0.2-9.9,1.9C120.1,443.5,127.6,446.9,130.7,439.1
			L130.7,439.1z M110.8,454.7c0.2,0.3,1.2,0.8,1.7,1.1c1.9,1,3.7,2.8,5,1.2c0.7-0.8,4.2-6.9,4.8-9.1c0.3-0.9-0.4-2.2-2.5-2.3h-0.4
			C113.6,446.1,111.8,451,110.8,454.7L110.8,454.7z M733.1,441c-0.5-1.7-9.4-3.3-9.9-1.9C726.4,446.9,733.8,443.5,733.1,441
			L733.1,441z M731.8,447.8c0.7,2.3,4.2,8.3,4.8,9.1c1.3,1.6,3.1-0.2,5-1.2c0.5-0.3,1.5-0.8,1.7-1.1c-1-3.7-2.8-8.6-8.5-9.2h-0.4
			C732.1,445.6,731.5,446.9,731.8,447.8L731.8,447.8z"/>
		<path fill="#001F47" d="M614.2,511.1V453h-10.8v58.1c0,20.6-2.4,25.5-7.2,33.9C559.5,599.9,497.4,630,427,630
			s-132.5-30-169.2-84.9c-4.8-8.4-7.2-13.2-7.2-33.9v-58.2h-10.9v58.2c0,21.9,2.6,28.8,8.6,39.3l0.4,0.6
			c40.1,60,106.7,89.8,178.2,89.8c71.5,0,138.1-29.8,178.2-89.8l0.4-0.6C611.6,540,614.2,533.1,614.2,511.1L614.2,511.1z
			 M345.4,347.3c5.2-11.6,10.9-21.6,13.8-26.4c-7.9,7.7-14.5,16.8-19.4,26.8c1,0.9,2.1,1.8,3.1,2.8
			C343.7,349.4,344.5,348.3,345.4,347.3L345.4,347.3z M513.1,575.8l18-11.3l-4.1-6.5l-11.3,7.1l-16.2-50.8l-3.9-6.2l-18,11.3
			l4.1,6.5l11.3-7.1l16.2,50.8L513.1,575.8L513.1,575.8z M504.2,356.9c-9.5-6.6-23.5-13.6-23.5-13.6c-10,14.1-18.3,31.5-18.3,31.5
			c4.9,10.3,12.3,21.9,16.4,29.1c5.5-8,7.7-15.6,11.1-26.4C492.3,369.7,495.6,365.5,504.2,356.9L504.2,356.9z M420.9,375.2
			c0,0-12.1-19.3-24.8-33.6c0,0-26.7,11.9-36.5,17l-0.4,7.3c0.2,0.5,3.7,5.6,5.2,11.1l3,9.5c0.4,1.1,0.7,2.1,0.7,2.1
			c0.7,2,1.6,4.4,2.7,6.9c1,2.3,2.2,4.6,3.5,6.8c1,1.7,2.3,3.3,3.8,4.6c0,0,0.1,0.1,0.1,0.1c1.3,1.2,2.9,2,4.6,2.5
			c4.6,1.3,9.8,2.6,15.4,4C398.2,413.4,415,386.6,420.9,375.2L420.9,375.2z M427,293.2c-10.9,0-21.4,1.8-31.2,5.2l18.5,14.6
			c0,0,22.5-2.1,42.7,0.5c2.9-4.8,4.4-8.8,5.1-11.3c21.4,10.1,38.3,28.1,47.1,50.1c1.7-1.6,3.4-3.1,5-4.5
			C498.4,315.4,465.3,293.2,427,293.2L427,293.2z M552.1,548.7l5.4-5.4l-46.6-47l-0.3-0.3l-5.4,5.4l46.6,47L552.1,548.7L552.1,548.7
			z M556,497.3l18.5,11.7l-3.2,5.1l-43.4-27.4l3.2-5.1l5.9,3.7l4.1-6.5l-3.8-2.4c-1.7-1.1-3.6-1.6-5.7-1.6c-3.7,0-7.1,1.8-9,4.9
			c-3.1,5-1.6,11.5,3.3,14.7l39.3,24.8c1.7,1.1,3.6,1.6,5.7,1.6c3.7,0,7.1-1.8,9-4.9c3.1-5,1.6-11.5-3.3-14.7l-22.9-14.4l-5.6,9
			l6.5,4.1L556,497.3L556,497.3z M477.8,590.1l-8.6-28.2l6.1-1.9c1.9-0.6,3.4-1.8,4.3-3.5c0.9-1.7,1.1-3.7,0.5-5.5l-6.6-21.7
			c-0.9-3.1-3.7-5.1-6.9-5.1c-0.7,0-1.4,0.1-2.1,0.3l-13.4,4.1l19.3,63.3l0.1,0.4L477.8,590.1L477.8,590.1z M466.9,554.6l-6.4-20.9
			l5.7-1.7l6.4,20.9L466.9,554.6L466.9,554.6z M446.9,596.2l-5.8-66.4l-7.6,0.7l5.8,66.4L446.9,596.2L446.9,596.2z M418.1,589.7
			l-13.5-1.6l2.6-21.7l10.1,1.2l0.9-7.6l-10.1-1.2l2.6-21.7l13.5,1.6l0.9-7.6l-13.9-1.7c-4-0.5-7.6,2.4-8,6.3l-6.1,51.8
			c-0.5,4,2.4,7.6,6.3,8l13.9,1.7L418.1,589.7L418.1,589.7z M427,487.1c37.1,0,69.3-20.8,85.6-51.5l-0.1,0c-1.9-0.5-4.8-1.6-8.1-2.9
			c-0.1-0.1-0.3-0.1-0.5-0.2c-8.5,15.2-20.9,27.8-36.1,36.4l-7.7-21.7l-42,1.1l-16.4,23.1c0,0,6.9,5.2,19.2,9.5
			c-20.3-0.2-39-6.9-54.3-18c0.5-0.4,1-0.9,1.4-1.3c0,0-11.4-16.4-18.3-28.9c-0.1,0-0.1,0-0.2,0.1c-3.3,1.3-6.1,2.4-8.1,2.9l-0.1,0
			C357.7,466.3,389.9,487.1,427,487.1L427,487.1z M381.9,584l-12.9-4.4l19.2-55.8l-7.2-2.5l-21.7,63l20.1,6.9L381.9,584L381.9,584z
			 M336.5,534.3c0.3,0,0.6,0.1,0.9,0.1c1.7,0,3.1-0.7,4.5-2.3l13.6-15.8c1.3-1.5,1.9-3.3,1.7-5.3c-0.1-1.9-1-3.7-2.5-4.9l-10.6-9.2
			l-43.5,50.5l10.6,9.2c1.3,1.1,3,1.8,4.7,1.8c2.1,0,4.1-0.9,5.5-2.5l13.1-15.2C336.5,538.3,337.2,536.3,336.5,534.3L336.5,534.3z
			 M330.5,533.9l-0.2,0.2l-14.4,16.8l-5-4.3l14.6-17L330.5,533.9L330.5,533.9z M335.1,528.2l-4.5-3.9l14.3-16.6l4.5,3.9L335.1,528.2
			L335.1,528.2z M302.2,503.1l3.4,4.9l-19.8,13.9c-1.5,1.1-2.6,2.8-3.3,4.2l-0.1,0.2l4.6,6.5l0.3-0.6c0.7-1.5,1.4-3,2.9-4l18-12.6
			c2.6-1.8,3.7-3.6,3.5-5.6c0.6,0.2,1.3,0.4,2.1,0.4c1.2,0,2.4-0.4,3.6-1.3l17.1-11.9c1.6-1.1,2.6-2.8,3-4.7
			c0.3-1.9-0.1-3.8-1.2-5.4l-8.1-11.5l-54.6,38.2l4.4,6.3L302.2,503.1L302.2,503.1z M308.1,498.6l0.2-0.2l18.1-12.7l3.8,5.4
			l-0.2,0.2L311.8,504L308.1,498.6L308.1,498.6z M603.4,340.9l10.8,5V240.5H239.7v105.4l10.9-5.1v-89.4h352.8V340.9L603.4,340.9z"/>
	</g>
</g>
</svg>
