<?xml version="1.0" encoding="utf-8"?>
<svg version="1.2" baseProfile="tiny-ps" id="RB17_standard_rgb"
	 xmlns="http://www.w3.org/2000/svg" xmlns:xlink="http://www.w3.org/1999/xlink" viewBox="0 0 850.4 850.4"
	 xml:space="preserve">
	 	 <title>Red Bull New York</title>
<g>
	<rect x="0.2" y="0.2" fill="#FFFFFF" width="850" height="850"/>
	<g>
		<g>
			<g>
				<path fill-rule="evenodd" fill="#FFFFFF" d="M204.1,176.6V527c0,27.7,3.4,38.3,11.6,53.1l0.5,0.8l0.5,0.8
					c47.4,73.7,126.1,117.7,210.5,117.7c84.4,0,163.2-44,210.5-117.7l0.5-0.8l0.5-0.8c8.2-14.8,11.6-25.5,11.6-53.1V176.6H204.1z"/>
			</g>
		</g>
		<g>
			<path fill="#001E46" d="M635.5,387.5V192H218.9v199.5v96.2v39.3c0,25.4,2.9,33.3,9.6,45.5l0.2,0.4l0.2,0.4
				C273.6,642.6,347.7,684,427.2,684c79.5,0,153.6-41.4,198.3-110.9l0.2-0.4l0.2-0.4c6.7-12.1,9.6-20.1,9.6-45.5v-40.3V387.5z
				 M623.5,466.9v60c0,23.9-2.7,29.5-8,39.2c-40.9,63.5-109.9,105.3-188.2,105.3c-78.3,0-147.4-41.8-188.2-105.3
				c-5.3-9.7-8-15.3-8-39.2v-54.8v-89V204.6h392.5v175.6V466.9z"/>
			<path fill-rule="evenodd" fill="#001E46" d="M645.1,389.7V182.1H209.3v210.8v100.2V527c0,27.7,3.5,37,10.9,50.4l0.4,0.7l0.4,0.6
				C267.4,650.9,344.5,694,427.2,694c82.7,0,159.8-43.1,206.2-115.3l0.4-0.6l0.4-0.7c7.4-13.4,10.9-22.8,10.9-50.4v-34.1V389.7z
				 M638.4,488.7V527c0,26.1-3,34.4-10,47l-0.3,0.5l-0.3,0.4C582.7,645.1,507.7,687,427.2,687c-80.5,0-155.5-41.9-200.6-112.2
				l-0.3-0.4l-0.3-0.5c-7-12.6-10-20.8-10-47v-37.8v-97V189h422.3v199.4V488.7z"/>
		</g>
		<path fill="#D40C2D" d="M595.1,217.1v91.3h16.3v-91.3H595.1z M327.8,250.8c-15.2,0-27.6,13.3-27.6,29.7
			c0,16.4,12.4,29.8,27.6,29.8c11.6,0,20.7-5.6,25.4-14.4l-13.5-6.7c-1.7,4-5.8,6.8-10.5,6.8c-6.3,0-11.4-5-11.4-11.1
			c0-0.4-0.1-0.2-0.1-0.6l36.9,0c0.1-1.2,0.2-2.5,0.2-3.7C355,261.3,343,250.8,327.8,250.8z M317.7,274.1c0-6,4.6-10.9,10.2-10.9
			c5.6,0,10.2,4.9,10.2,10.9H317.7z M298.8,245.6c0-14.5-11-26.3-24.5-26.3c-0.4,0-2.3,0-2.7,0H243v89h17.3v-73.6l10.3-0.1
			c6.4,0,11.2,5.2,11.2,11.6c0,6.4-5.2,11.6-11.6,11.6l-4,0.1v21.2l17.3,29.2H304l-23.9-37.2C290.8,268.3,298.8,258,298.8,245.6z
			 M540.3,285.9c0,5.3-4.3,9.7-9.5,9.7c-5.3,0-9.5-4.3-9.5-9.7v-32.1h-16.6v35.5c0,12,11.7,21.8,26,21.8c14.4,0,26-9.7,26-21.8
			v-35.5h-16.4V285.9z M567.6,308.5h16.3v-91.3h-16.3V308.5z M484.8,259.7c4.4-4.6,7.2-10.7,7.2-17.4c0-6.1-2.1-11.7-5.9-16
			c-3.9-4.7-10.7-6.8-20-6.8h-27.8v88.9h35.9c13.8-0.2,24.8-11.7,24.8-25.7C499,272.5,495.8,265.3,484.8,259.7z M471.2,292.8h-15.6
			v-58h10.9c4.8,0,8.6,4.2,8.6,9.5c0,5.2-3.9,9.5-8.6,9.5h-5.6v16.1h10.4c5.8,0,10.1,5.1,10.1,11.5
			C481.1,287.9,477.4,292.4,471.2,292.8z M401.3,216.5l0.1,43.1c-4.5-4.6-10.4-7.3-16.9-7.3c-13.9,0-25.2,12.7-25.2,28.4
			c0,15.7,11.3,28.4,25.2,28.4c6.6,0,12.5-2.9,17-7.5v7h16.8l0-92H401.3z M389.3,295c-6.8,0-12.4-6.2-12.4-13.9
			c0-7.7,5.5-13.9,12.4-13.9c6.8,0,12.4,6.2,12.4,13.9C401.6,288.8,396.1,295,389.3,295z"/>
		<path fill-rule="evenodd" fill="#FFD400" d="M543.2,424.5c0,67.1-52.2,121.5-116.6,121.5C362.2,546,310,491.6,310,424.5
			c0-67.1,52.2-121.4,116.6-121.4C491,303.1,543.2,357.5,543.2,424.5"/>
		<path fill="#FFFFFF" d="M409.4,470.7c-3.3-1.9-5.3-4.9-6.6-7.3c-0.6-1-1.1-2.1-1.6-3.1l-0.6-1.2c-0.7-1.3-1.5-2.7-2.4-4
			c-0.4-0.5-0.8-1-1.3-1.5l-1.3-1.4c-0.4-0.5-0.8-0.9-1.1-1.3c-0.3-0.4-0.6-0.8-0.7-1.1c-5.8-15.5-7.2-24.3-9.3-39.8
			c-1.1-8-5.8-14.4-13.3-24.1c-0.9-1.2-2-2.6-3.1-4.1c-0.8-1-1.6-2.1-2.4-3.2c-2.5-3.3-4.5-5.7-6.1-7.3c-2.7-2.4-5.1-4.5-7.3-6.4
			c-3.1-2.7-5.7-5-8.1-7.1c-4.6-3.9-8-6.6-12.1-9.5c-5.6-4-11.6-6-17.9-6c-6.4,0-11.1,2.1-12.7,3.3c-5.4,3.8-9.4,6.2-14,8.1
			c-3.3,1.4-6.7,2.6-11.1,4.1c-1.4,0.5-2.9,1-4.5,1.5c-4.9,1.7-8.4,4.7-10.9,7.1c-0.6,0.6-1.2,1.2-1.7,1.7c-0.6,0.6-1.2,1.2-1.7,1.7
			c-1.1,1.1-1.9,1.6-2.6,1.9c-0.7,0.3-2,0.5-3.7,0.6c-0.9,0.1-1.8,0.1-2.8,0.2c-0.7,0-1.3,0.1-1.9,0.1c-5.7,0.3-10.2,3.7-13.1,6.1
			c-1.5,1.3-2.9,2.6-4.3,3.9l-0.7,0.6c-1.7,1.6-3,2.7-4.1,3.5c-4,2.7-7.8,3.1-12,3.5c-2.1,0.2-4.4,0.4-6.7,1
			c-2.8,0.6-5.5,1.5-8.2,2.8c-3,1.5-6,3.4-9.8,6.1c-1.6,1.2-3.2,2.4-4.8,3.6c-1.4,1.1-2.8,2.1-4.2,3.1c-6.3,4.6-11.6,7.6-17.4,7.6
			c-5.7,0-9.8-3.5-10.4-8.9c-0.5-4.8,1.9-9.6,6.6-13.6l2.6-2.2c1.9-1.6,3.8-3.2,5.4-4.6c2.8-2.5,4.6-4.5,6.1-6.4
			c3.6-4.9,4.5-9.9,2.9-16.3c-1.4-5.7-5.6-9.7-13-12c-2.6-0.8-5.3-1.3-7.8-1.7l-0.9-0.1c-0.8-0.1-1.5-0.2-2.1-0.4
			c-0.8-0.2-1.4-0.3-1.7-0.4c-4-1.9-12.7-7.9-14.4-9.1l-0.7-0.5l-0.5,0.7c-1.6,2.4-2.8,4.2-3.8,12.5c-1,9.1,6.1,20.2,18.5,22.2
			c0.7,0.1,1.2,0.6,1.4,1.3c0.2,0.7-0.1,1.5-0.6,1.9c-13.1,10.7-15.9,15.3-16.6,27.4c-0.4,7.5,2.1,14.8,6.9,20.1
			c5.3,5.8,12.9,8.9,22,8.9c2.4,0,5-0.2,7.7-0.6c0.1,0,0.2,0,0.3,0c0.4,0,0.8,0.1,1.1,0.4c0.4,0.3,0.6,0.8,0.7,1.3
			c0.6,8.4,2.1,15.2,3.9,18.2c0.4,0.7,0.3,1.7-0.3,2.3c-0.6,0.5-1.5,1.1-2.6,1.5c-2.8,1.1-7,1.8-11.3,1.8c-2.6,0-4.6,1.9-6.2,5.9
			c-0.5,1.3-0.9,2.7-1.3,4.1l-0.1,0.4c-0.2,0.7-0.4,1.3-0.6,1.9c-0.2,0.5-0.4,1-0.6,1.4c-0.5,1-1.3,1.9-2.4,2.9
			c-0.3,0.3-0.7,0.5-1.2,0.5c-0.1,0-0.2,0-0.3,0c-0.5-0.1-1-0.4-1.2-0.9c-1.3-2.4-3.3-4-6-4.6l-0.1,0l-0.3,0c-4,0-11,3.5-13.5,10.2
			c-0.2,0.6-0.8,1.1-1.4,1.1l-0.3,0c-3.2,0.4-5.2,1.9-6.4,4.9c-0.5,1.3-0.8,2.7-1,3.9l-0.2,0.9c-0.2,1-0.4,2.1-0.6,3.1
			c-0.2,0.8-0.5,1.5-0.9,2.3c-0.2,0.4-0.4,0.7-0.6,1.1c-0.1,0.3-0.3,0.5-0.4,0.7c-0.7,1.4-1.1,2.8-0.5,5.1c0.3,1.1,1.1,2,2.5,2.8
			c1,0.6,2.3,1.1,3.9,1.5c2.8,0.7,5.5,0.9,6.1,0.9c0.4,0,0.8-0.1,1.1-0.3c0.3-0.2,0.5-0.4,0.8-0.6c0.3-0.3,0.7-0.4,1.2-0.4
			c0.1,0,0.2,0,0.3,0l1.3,0.3c1.1,0.2,2.4,0.5,3.7,0.8l0.2,0c1.3,0.3,2.5,0.5,3.5,0.7c0.5,0.1,1,0.2,1.4,0.3
			c0.4,0.1,0.7,0.1,0.9,0.1h0c5.5-0.3,7.9-2.5,9.4-4.7c0.4-0.6,0.8-1.2,1.2-1.9l0.6-1.1l0.5-0.8c0.5-0.8,0.9-1.5,1.4-2.2
			c0.3-0.5,0.9-0.7,1.4-0.7c0.1,0,0.3,0,0.5,0.1c0.6,0.2,1.3,0.3,1.8,0.4c1.3,0.2,2.5,0.3,3,0.4c0.4,0,0.7,0,1.1,0
			c5.2,0,9.1-3,12.4-5.9l1.1-0.9c0.5-0.4,1-0.9,1.5-1.3c0.6-0.6,1.5-1.3,2.4-1.9c1.6-1.1,2.9-1.6,4.2-1.6l0.3,0
			c1.3,0.1,6,0.4,14,1.8c0.3,0.1,0.7,0.1,1,0.1c1.8,0,4.1-0.6,6.9-1.9c2-0.9,4.2-2.2,6.5-3.7c0.5-0.3,1.1-0.6,1.8-1l0.2-0.1
			c0.7-0.3,1.4-0.6,2.1-1c1.3-0.7,3.2-1.9,4.8-3.9c0.9-1.2,2.2-3.7,3.3-6.2l1.3-2.8c0.7-1.6,1.5-3.2,2.3-4.8c0.3-0.6,0.9-1,1.6-1h0
			l0.5,0c2.5,0,5.5-0.4,8.1-0.8c1.1-0.2,2.3-0.4,3.3-0.5c2.4-0.4,4.4-0.7,6-0.8c0.4,0,1.4,0.1,2.8,0.2l3.2,0.2c4,0.2,7.3,0.4,10,0.4
			c1.6,0,3,0,4.2-0.1c2.1-0.2,4.1-0.5,5.7-1c0.4-0.1,0.9-0.3,1.4-0.5c0.2-0.1,0.5-0.2,0.7-0.2c0.4,0,0.9,0.2,1.2,0.5
			c0.9,0.9,1.8,1.8,2.7,2.6c0.5,0.5,0.7,1.3,0.5,2c-0.2,0.7-0.8,1.2-1.5,1.2c-0.4,0-0.7,0.1-1,0.1c-1.1,0.2-3.1,0.6-4.2,2
			c-0.3,0.5-0.9,0.7-1.4,0.7c-0.2,0-0.5-0.1-0.7-0.2c-0.2-0.1-0.5-0.2-0.7-0.3c-0.5-0.2-1.1-0.2-1.5-0.2H269l-0.6,0l-0.9,0H267
			c-1.6,0-5.3,0-8.6,0.5c-2,0.3-3.6,0.8-4.7,1.5c-1.1,0.6-2.3,1.8-2.2,3.6c0.2,3.4,4.8,12.8,8,16.1c0.6,0.6,2.7,1.3,5,1.3
			c0.2,0,0.5,0,0.7,0c0,0,0.1,0,0.1,0c0.7,0,1.3,0.4,1.6,1c3.2,6.7,8.9,11.1,14,11.1l0.3,0c4.9-0.2,18.1-5.2,27.4-9.7
			c0.1-0.1,0.2-0.1,0.4-0.1c0.3-0.1,0.6-0.1,1-0.2c0.5-0.1,1.2-0.2,1.8-0.2l0.9-0.1c2-0.3,4.4-0.6,6.1-1.5c1.6-0.8,3.8-3.8,5.8-7.7
			c0.3-0.6,0.9-1,1.6-1c0.1,0,0.1,0,0.2,0c0.7,0.1,1.3,0.6,1.5,1.3c0.2,0.8,0.5,1.5,0.8,2.1c1.6,3.1,4.4,4.7,8.4,4.7
			c0.2,0,0.4,0,0.7,0c2.7-0.1,5.7-1.1,8.4-2l1.5-0.5c2.2-0.8,4.3-1.5,6.3-1.9c0.7-0.1,1.5-0.2,2.4-0.2c0.4,0,0.9,0,1.3,0
			c0.8,0,1.7,0.1,2.5,0.2c0.6,0,1.1,0.1,1.7,0.1c0.8,0.1,1.6,0.1,2.5,0.1c2.4,0,4.3-0.4,6-1.2c2.5-1.1,4.4-2.5,5.6-3.5l0.5-0.4
			c0.3-0.2,0.7-0.3,1-0.3c0.4,0,0.8,0.2,1.2,0.5c3.5,3.2,10.9,8.6,21.9,8.6c0.4,0,0.7,0,1.1,0c2.6-0.1,4.7-1,5.8-2.5
			c0.7-1,1-2.3,0.7-3.5c-0.1-0.5,0-1,0.2-1.5c0.3-0.4,0.7-0.7,1.2-0.8c1.8-0.3,3.3-1,4.3-2c1-0.9,1.6-2.2,1.6-3.3
			c0-0.8-0.3-1.4-0.8-1.9C413.6,473.1,412.9,472.7,409.4,470.7 M331.4,456.5c-1.2,1.5-3,2-4.6,5c-3.3-1.3-3.9-5.8-4.5-7.8
			c2.6-0.5,8.8-1.7,12.1-2.2C333.1,453.2,332.1,454.4,331.4,456.5z M735.8,500c-0.2-0.9-0.6-2-0.9-2.7l-0.3-0.7
			c-0.2-0.6-0.4-1.2-0.6-1.8c-0.1-0.3-0.2-0.6-0.2-0.8c0-0.2,0-0.4,0-0.5c0.3-3.4-0.5-5.2-1.8-7.6c-1-1.8-2.4-2.5-3.4-2.6
			c-0.2,0.7-0.9,1.2-1.6,1.2c-0.1,0-0.2,0-0.3,0c-0.9-0.1-1.6-1.1-1.5-2.1c0-0.2,0.1-0.5,0.1-0.8c0-0.9-0.2-1.7-0.6-2.6
			c-1.1-2.2-9.1-9-12.2-9c-2.5,0-5.1,1.4-6.9,3.8c-0.3,0.4-0.8,0.7-1.4,0.7c-0.1,0-0.1,0-0.2,0c-0.6-0.1-1.1-0.4-1.4-0.9
			c-0.3-0.5-0.5-1.1-0.7-1.7c-0.5-1.5-0.9-3-1.2-4.5l-0.2-1.1c-0.8-3.9-2.1-7.8-7-9.3c-0.4-0.1-0.9-0.2-1.6-0.3
			c-0.5-0.1-1.1-0.1-1.7-0.1l-0.5,0c-1,0-2,0-3-0.2c-2-0.3-3.4-1-3.4-3.4c0-0.2,0-0.4,0.1-0.6l0.5-1.6c0.4-1.2,1-3,1.4-5.2
			c0.9-4.1,0.9-7.8,0.2-11c-0.1-0.6,0-1.2,0.4-1.7c0.3-0.4,0.8-0.6,1.3-0.6c0.1,0,0.2,0,0.3,0c2,0.3,3.7,0.3,4.1,0.3
			c10.6,0,27.3-7.2,27.3-26.5c0-11.1-8.6-21.6-15.8-28.5c-0.5-0.5-0.7-1.1-0.5-1.8c0.2-0.6,0.6-1.2,1.3-1.3
			c10.3-2.8,15.9-9.9,15.9-20.1v-0.7c0-1.6,0-3.4-0.3-5.3c-0.4-2.7-1.4-5.2-2.9-7.6c-0.2-0.3-0.4-0.5-1-0.5c-0.2,0-0.4,0-0.4,0.1
			c-0.4,0.1-0.9,0.4-1.1,0.6c-1,0.7-2.3,1.9-3.4,2.9c-1.3,1.1-2.8,1.9-4.9,2.7c-1.3,0.5-2.6,0.8-4,1.2c-0.7,0.2-1.5,0.4-2.3,0.6
			c-4.9,1.4-10.3,3.5-16.2,9c-2.7,2.5-4.6,6.7-4.8,10.6c-0.2,3.3,1,6.7,3.6,10.5c2.2,3.2,5.2,6.3,8.4,9.4l1.1,1.1
			c1.1,1.1,2.3,2.2,3.3,3.4c1.6,1.7,2.8,3.1,3.9,4.4c2.5,3.2,3.6,5.8,3.6,8.2c0,5.2-3.6,8.7-8.9,8.7c-6,0-10.5-2.4-16.9-6.8
			c-1-0.7-2-1.4-3-2.1c-2.1-1.5-4.3-3-6.7-4.6c-4.4-2.9-8.5-5.2-12.8-7.2c-2.3-1.1-4.6-1.9-7.1-2.6c-1.9-0.5-3.6-0.9-5.3-1.3
			l-0.8-0.2c-3.9-0.9-7.2-1.7-10.6-4.1c-1-0.7-2-1.4-3.1-2.2c-1.8-1.3-3.7-2.6-5.6-3.9c-3.7-2.4-6.6-3.9-9.3-4.7
			c-0.8-0.3-1.7-0.5-2.8-0.6c-0.5-0.1-1-0.1-1.4-0.2l-1.1-0.2c-1.7-0.3-3.2-0.6-4.8-1.6c-1-0.6-1.9-1.3-3-2.1
			c-0.7-0.6-1.5-1.2-2.2-1.8l-0.5-0.4c-1.8-1.5-3.9-3.1-7.1-4.9c-4.8-2.7-9.6-4-13.7-5.1l-0.8-0.2c-1.6-0.4-3-0.7-4.1-1.1
			c-0.7-0.2-1.2-0.5-1.6-0.7c-0.3-0.1-0.5-0.3-0.6-0.4c-0.1-0.1-0.2-0.2-0.3-0.3c-10.2-13.4-22.5-14.4-26-14.4c-0.8,0-1.6,0-2.3,0.1
			c-4.1,0.5-9,4.2-13.2,7.8c-1.5,1.3-3.1,2.7-4.7,4.1c-3.2,2.9-6.5,5.8-9.8,8.2c-16.9,12.5-23,17.5-31,26.7
			c-10.8,12.3-14.2,28-17.2,41.8l-0.2,1c-1.5,6.7-3,13.6-5.2,20c-2.6,7.4-5.8,13.1-10,17.7c-2.1,2.2-3.8,4-5.3,5.2
			c-1,0.9-1.7,1.4-2.4,1.9l-0.4,0.3c-1.8,1.3-2.5,3-2,4.7c0.7,2.2,3.4,4.5,8,4.6c0.5,0,1,0.3,1.3,0.7c0.3,0.4,0.5,1,0.3,1.5
			c-0.2,0.8,0,1.5,0.5,2.2c1.2,1.7,4.2,2.6,5.9,2.7l0.7,0c8.1,0,15-3.1,20.7-9.2c0.3-0.4,0.8-0.6,1.3-0.6c0.4,0,0.9,0.2,1.2,0.5
			c2.2,2.2,5.1,3.2,8.8,3.3l0.4,0c1.7,0,3.4-0.2,5-0.4c0.8-0.1,1.6-0.2,2.3-0.2c0.4,0,0.8-0.1,1.2-0.1c0.3,0,0.5,0,0.7,0
			c1,0.1,2.2,0.4,3.9,1c1.2,0.4,2.4,0.9,3.7,1.4l1.1,0.5c2.5,1,6.2,2.5,9,2.5c0.2,0,0.3,0,0.5,0c6.4-0.4,8.8-5.4,9.6-8.3
			c0.2-0.8,0.9-1.3,1.7-1.3h0.1c0.8,0,1.5,0.6,1.7,1.4c0.2,0.7,0.3,1.4,0.5,2c1,3.5,2.3,5.8,4.3,7.6c0.6,0.5,1.4,0.9,2.5,1.1
			c0.9,0.2,2.3,0.2,4.3,0.3c0.4,0,0.8,0.1,1.1,0.4c0.2,0.2,0.5,0.5,1,0.9c0.4,0.4,0.8,0.9,1.2,1.2c0.4,0.3,0.9,0.8,1.6,1
			c8.9,3.2,20.6,6.6,26.4,6.7h0.2c8,0,10.7-7.9,11.5-11.4c0.2-0.7,0.7-1.2,1.4-1.4c7.4-1.5,11.5-13.1,11.5-15.1c0-3.7-1.4-5.2-5-5.5
			l-12.9,0c-0.3,0-0.6,0-0.9,0.1c-0.2,0.1-0.3,0.1-0.5,0.1c-0.6,0-1.2-0.3-1.5-0.8c-0.5-0.8-1-1.1-1.8-1.3c-0.6-0.2-1.2-0.7-1.3-1.4
			c-0.2-0.7,0.1-1.4,0.6-1.8c0.3-0.2,0.5-0.5,0.8-0.7c0.3-0.3,0.8-0.5,1.2-0.5h0.1c1.8,0.1,5.2,0.2,8.4,0.2c1.4,0,2.9,0,4.1-0.1
			c2.6-0.1,4.8-0.4,7.1-0.7c3.6-0.4,7.3-0.9,12.9-0.9l12.1,0.7c2.6,0,4.9-0.4,7-1c0.2-0.1,0.4-0.1,0.5-0.1c0.3,0,0.7,0.1,0.9,0.3
			c0.4,0.3,0.7,0.8,0.8,1.3c0.8,6.4,2.8,12,5.8,16.3c0.8,1.1,1.8,2.1,3.1,3c0.7,0.5,1.4,0.9,2.1,1.4c0.4,0.3,0.8,0.5,1.3,0.8
			c3.2,2.1,7.2,4.7,12.1,4.7c1.3,0,2.7-0.2,4.1-0.5c1.5-0.4,3-0.6,4.5-0.6c0.8,0,1.5,0,2.3,0.1c2,0.2,3.7,0.7,5.1,1.1l0.4,0.1
			c2.3,0.6,4.5,1.5,6.7,2.9c1.8,1.1,3.3,2.3,4.8,3.5l0.4,0.3c2.9,2.3,5.9,4.7,10.1,4.7c0.2,0,0.3,0,0.5,0c0.3,0,0.6-0.1,0.7-0.1
			c0.2-0.1,0.5-0.2,0.8-0.3c0.6-0.2,1.3-0.5,1.9-0.8c0.7-0.3,1.4-0.6,2.2-0.7c0.1,0,0.2,0,0.3,0c0.6,0,1.1,0.3,1.5,0.8
			c0.2,0.3,0.4,0.7,0.7,1.1c0.4,0.7,0.9,1.4,1.4,2.2c1.6,2.2,4.6,5.1,11.4,5.3c0.6,0,1.2,0,1.8,0c3.6,0,5.8-0.3,6.8-0.5
			c0.1,0,0.2,0,0.3,0c0.4,0,0.7,0.1,1,0.3c0.7,0.5,1.5,0.8,2.4,0.8c1.9,0,4.6-0.6,6.8-1.4c1.3-0.5,2.4-1.1,3.2-1.7
			c1.1-0.8,1.7-1.7,1.8-2.7C736.2,502,736.1,501.1,735.8,500 M528,463.9c-1.2-2.3-5.2-7.5-4.7-10.8c3,0.4,7.5,0.4,9.2,0.5
			C532,454.6,528.5,462.7,528,463.9z"/>
		<g>
			<g>
				<path fill="#FFFFFF" d="M367.9,351.7c0-33.6,26.1-60.8,58.4-60.8c32.3,0,58.4,27.2,58.4,60.8c0,33.6-26.1,60.8-58.4,60.8
					C394,412.6,367.9,385.3,367.9,351.7z"/>
				<path fill="#FFFFFF" d="M426.3,351.7"/>
			</g>
			<path fill="#D9D9D9" d="M382.4,384.5c17,12.8,41,14.8,59.8,4.3c20.4-11,32.7-33.6,30.8-58c-0.4-3.5-0.9-7-1.8-10.3
				c5.8,9,9.1,19.7,9.1,31.2c0,31.1-24.2,56.3-54,56.3C408.2,408,392.2,398.8,382.4,384.5z"/>
			<path fill-rule="evenodd" fill="#001E46" d="M391.7,394.9c-9-7.8-15.4-18.5-18.1-30.8c2.9,3.1,8.5,9.1,8.5,9.1
				c3.4,7.2,11.8,19.8,11.8,19.8C393.2,393.8,392.3,394.5,391.7,394.9z M426.3,295.5c7.1,0,13.9,1.4,20.2,4c-0.2,1-1,4-3.2,7.8
				c-11.3-1.5-23.8-0.3-23.8-0.3l-10.4-8.6C414.5,296.5,420.3,295.5,426.3,295.5z M421.7,385.4l23.4-0.7l4.5,13.3
				c-8.8,5.5-19.5,8.3-19.5,8.3c-11.2-2.5-17.6-7.6-17.6-7.6L421.7,385.4z M446.2,343.2c0,0,4.7-10.3,10.4-18.6
				c0,0,10.9,5.4,16.1,9.8c0,0,1.9,6.1,0.6,24.1c0,0-6.5,4-16,6.4C457.4,364.8,450.9,353.5,446.2,343.2z M389.5,310.5
				c-1.3,2.2-5,8.7-8.3,16.4c-3.2,4.1-5.9,8.3-7.1,10.1C376.8,326.7,382.2,317.5,389.5,310.5z M410.3,365.8
				c-12.6-3.2-21.2-6.4-21.2-6.4c-1.4-13.6-0.2-25.4-0.2-25.4c5.5-3,20.3-9.9,20.3-9.9c7.1,8.3,13.8,19.5,13.8,19.5
				C419.7,350.2,410.3,365.8,410.3,365.8z"/>
		</g>
		<g>
			<path fill-rule="evenodd" fill="#001E46" d="M253.7,562.1l5.2,6.6l17.6-15.2c5.4-4.6,15.8-14.5,20.6-19.2l0.1,0.2
				c-12,13.6-21.9,27.8-32.8,41.2l4.9,6.2l60.8-52.4l-5.2-6.6l-17.6,15.2c-5.4,4.6-15.8,14.5-20.6,19.2l-0.1-0.2
				c12-13.6,21.9-27.8,32.8-41.2l-4.9-6.2L253.7,562.1z"/>
			<path fill-rule="evenodd" fill="#001E46" d="M357.9,553.3l-13-10.3c-3.6-2.9-8.7-2.2-11.5,1.6l-38,51.8
				c-2.8,3.7-2.1,9.1,1.5,11.9l13,10.3l5-6.8l-13-10.3l16.5-22.5l9.7,7.8l5-6.8l-9.7-7.8l16.5-22.5l13,10.3L357.9,553.3z"/>
			<path fill-rule="evenodd" fill="#001E46" d="M339.4,636.4l7.1,2.9c6.5-10.6,13.6-20.8,20.9-36.7l0.2,0.1
				c-5,16.9-6.4,29.4-8.6,41.7l7.1,2.9l31.3-75.5l-7.7-3.1c-5.3,13.7-10.8,27.4-15.9,41.1c-1.9,4.9-3.5,9.9-5.4,14.9l-0.2-0.1
				c3.4-13.2,4.7-22.5,6.7-31.6l-6.4-2.6c-4.5,8.2-9.6,15.8-15.7,27.9l-0.2-0.1c1.9-4.9,3.9-9.8,5.8-14.7
				c5.2-13.7,10-27.7,15.1-41.4l-7.7-3.2L339.4,636.4z"/>
			<path fill-rule="evenodd" fill="#001E46" d="M443.2,655.3l8.1-0.9l-3.9-36.5c2.4-1.3,4.2-3.1,5.4-5.4c1.2-2.3,1.7-4.9,1.4-7.6
				l-3.5-33.2l-8.1,0.9l3.9,36.7l-8.1,0.9l-3.9-36.7l-8.1,0.9l3.5,33.2c0.3,2.6,1.3,5.1,3,7.1c1.6,1.9,3.8,3.3,6.4,4L443.2,655.3z"
				/>
			<path fill-rule="evenodd" fill="#001E46" d="M486.7,633.8c2.4,6.5,9.6,9.8,15.9,7.3c6.3-2.5,9.4-10,7-16.5l-20.2-54.1
				c-2.4-6.5-9.6-9.8-15.9-7.3c-6.3,2.5-9.4,10-7,16.5L486.7,633.8z M503.2,631l-7.6,3.1l-22.7-60.7l7.6-3.1L503.2,631z"/>
			<path fill-rule="evenodd" fill="#001E46" d="M542.1,619.4l6.6-5l-20.9-29.7l6.6-5l17.5,24.8c1.2,1.7,3.2,3,4.9,3.8l6.8-5.2
				c-2.1-1-3.8-1.8-5.1-3.7l-15.6-22.1c-2.9-4.1-5.2-4.5-7.3-3.9c0.9-2.2,1.4-4.4-0.8-7.5l-14.8-21c-2.7-3.8-7.8-4.6-11.4-1.8
				l-13.2,10.1L542.1,619.4z M506.8,554.9l6.6-5l16.1,22.8l-6.6,5L506.8,554.9z"/>
			<path fill-rule="evenodd" fill="#001E46" d="M540.7,509.1l-5.5,6.6c0,0,1.2,3.6,3.8,6c2.6,2.4,15,13.5,15,13.5s5.9,4.8,0.4,11.5
				l-25.8-23.1l-5.3,6.4l59.8,53.6l5.3-6.4l-27.7-24.8c0,0,5.3-6.5,10.5-1.8c4.4,4,17.8,15.9,17.8,15.9s2.8,2.8,5.9,2.9l5.5-6.6
				c0,0-3.4-0.3-7.2-3.6c-3.7-3.3-14.8-13.3-14.8-13.3s-9.8-9.8-18.6,0.9c0,0,7.6-10.7-3.5-20.6c-8.7-7.8-13.1-11.7-13.1-11.7
				S541.3,512.1,540.7,509.1z"/>
		</g>
		<g>
			<path fill="#D40C2D" d="M280.3,474.6c2,2.3,1.9,5.9,4.3,7.7c3.1,0.5,5.8-0.7,8.1-2.6c1.3-1.2-0.6-2.7-0.8-4c-1.3-2-0.4-6-3.7-6.2
				c-3.3,0.5-6.5,0.6-9.8,0.6l-0.9,0.6C276.9,472.8,279.7,472.8,280.3,474.6z"/>
			<path fill="#D40C2D" d="M125.8,485.8c-1.6,0.8-3.4,2.4-3.8,4.3c-0.5,3.4,0.2,6.6-2.3,9c-0.1,0.6-0.7,1.4-0.1,2
				c2.2,0.7,4.4,1.7,7.1,2c1.2-4.1,2.1-8.7,3.6-12.3v-1.1C129,488.3,127.8,486.3,125.8,485.8z"/>
			<path fill="#D40C2D" d="M406.8,473.7c-6.1-3.7-8.5-10.7-12.3-16.2c-1.3-2-3.7-3.3-4.9-5.3c-4.4-12.4-8.1-24.8-9.3-39
				c-0.9-3.5-1.6-7.1-3.5-10.4c-5.5-9.3-12.6-17.8-19.5-26.4c-0.6-0.6-0.6-0.7-1.9-2l-24.1-20.9c-3-2.3-6.3-3.8-9.7-5.4
				c-5.1-2-12-1.6-17,0.6c-5.2,2.9-9.9,7-15.4,8.9c-7.9,3.7-16.9,4.5-23.7,10.8c-4,3.6-7.3,9.2-13.2,8.3c-6.6-0.3-12.5,2.2-17.5,6.5
				c-4.5,4.2-8.8,9.2-14.6,10.4c-5.1,2.2-11.3,1.2-16.5,3.2c-8.2,2.1-14.8,8.9-21.8,14.1c-7,4.2-13.7,8.8-22.5,8.6
				c-5.7-0.4-11.2-4.6-13-10.3c-1.7-6.6,0.2-13.4,5.2-17.8c5.2-6.5,13.4-10.3,17.5-17.7c2.1-3.9,1.8-10.3-1-14
				c-5.4-5.8-13.1-6-20.2-7.9c-4.5-1.3-7.9-4.9-11.9-7.1c-1.5,2.4-2,5.1-1.8,8.1c0.8,6.7,5.7,12.7,11.8,15.1
				c3.6,1.6,7.6,0.4,11.3,1.3c1,0.4,2,1.5,2.1,2.6c-0.2,1.1-0.3,2.1-1.2,2.9c-5.7,5-11.7,9.8-16.5,15.9c-5.1,5.7-5.7,15.8-3.1,23
				c3,8.3,11.2,13.7,19.1,14.7c5.8,1,11-0.6,16.3-1.8c0.7,0,1,0.7,1.3,1.2c0.5,4.9-0.2,9.2,0.8,13.7c0.9,4.1,2.2,7,3.7,11
				c0.2,1.4,0,2.9-0.9,3.9c-2.9,2.3-6,3.9-9.3,5.4l-7.9,0.5l-1.5,0.7c-3,3.6-3.1,7.3-4.9,11.3c-2.4,4.2-6.9,6.3-10.7,8.7
				c-1.2,2-2.5,4.1-4.3,5.7c-1.3,1.3-3,1.6-4.7,1.8c-2.8,3.3-3.4,7.8-4.1,12.3c4.5,0.4,9.2,3,13.5,0.4c3.8-1.8,4.6-6.6,7.4-9.4
				c2.2-2.5,5.6-0.6,8.2-0.1c4,0.2,6.8-2.8,10.2-4.1c2.3-1.6,4.3-4.3,6.7-5.9c4.7-2.3,11.2-1.1,16.1-0.1c3.9,1.1,7.9,0.4,11.3-1.2
				c3.2-2,6.1-4.6,9.7-5.4c3.2-1.7,4.7-5.4,6-8.5c1-2.9,3.7-5.1,3.5-8.4c-0.8-0.7-1.7-2.3-3-2.2c-1.5,2.2-2.6,4.6-4.4,6.7
				c-7.4,10.5-13.2,11.5-28.1,11.5c-11.1-0.4-21.1,3.1-28.7,12.1c-0.5,0.3-1.2,0.1-1.6-0.3c-0.3-1.3,0.7-3.4,1.2-4.3
				c6.8-10.1,17.4-12.4,28.6-12.6c6.1-0.4,11.9-1.5,17.1-4.2c5.8-3.1,9.8-7.9,12.2-13.8c1.3-6.7,1.8-13.9,3.5-20.3
				c0.2-0.6,1.7-1.1,2.2-0.9c0.6,0.1,1.8,0.7,1.8,1.4c-1.1,6.6-3.1,14.3-0.7,20.7c4.9,6.7,14,3.1,20.6,2.8
				c6.9-0.6,12.5-0.1,19.1,0.4c3.3-0.1,5.7,0.7,8.2-1.4c0.7-1.2,1-2.7,0.8-4c-0.2-1.9-1.7-3.1,0-4.7c0.5-0.4,2-0.1,2.4,0.4
				c0.9,2.7,1.3,5.5,3,7.9c3.3,4.4,8,7.8,12.5,10.2c4.3,3.1,7.8,7.4,8.1,12.8c0,2.8-2.4,4.7-4.5,5.9c-3.5,1.8-7.2,3.3-11.3,2.9
				c-5.4-2.8-6.8-8.7-10.4-13c-1.8-2.1-4.6-2.5-7.3-2.3c-3,0.3-5.9,0.4-8.6,1.4c-0.7,0.6-0.9,1.6-0.8,2.5c1.8,3.5,3.9,6.9,5.9,10.4
				c2.3,1.5,5.6-0.8,7.6,1.8c1.7,2.8,2.8,6,5.5,8.2c2.5,2.3,6.4,3.4,9.8,1.9c7.5-2.4,15.1-5,22.1-8.9h2.3c2.9-0.3,6-0.1,8-2.3
				c2.2-3.4,4.1-6.6,5.8-10.2c1.7-2.4,0.9-6.2,0.2-8.8c-3.5-4.5-5.4-9.4-7.2-14.5c-1.7-0.5-3.3-1.6-5.2-1.5
				c-0.9,0.4-2.2,0.2-2.8,1.3l8,16.6c0.5,1.3,1.1,3.1,0.8,4.8c-1.1,3.5-2.9,6.9-5.6,9.4c-0.5,0.3-1.1,0.6-1.5-0.1
				c0.9-3.6,2.5-7.5,2.3-11.7l-7.8-14.8c-0.9-2-2.5-3.8-2.4-6.2c0-1.1,0.9-1.8,1.7-2.2c3.5-1.2,7.6-1,10.3-3.8
				c3.5-5.6,4.2-11.1,5.1-17.8c0.2-0.4,1-1.2,1.6-1.2c0.6-0.2,1.3,0.7,1.6,1c1,7.3-0.4,14.7-4.5,20.5c-0.2,0.7-0.5,1.7,0.3,2.2
				c3.9,1.3,7.9,0,11.2-1.8c4.2,0.1,8-1,11.8-1.6c0.4,0.2,0.8,0.6,0.8,1.1c-2.5,3-4,6.3-4.7,10.1c-3.1,3.3-7.4,6.2-7.7,10.9
				c0.5,2.3,2.4,0.1,3.8,0.3c0.6,0.1,1,0.6,1,1.3l-3.1,4.7c-1.6,2.8,0.3,5.9,0.3,8.6c0.7,2.1,3.2,3.2,5.3,3.2
				c4.6-0.2,8.7-2,12.7-3.5c4.5-2,10.1-1.9,15-1.1c4.8-0.3,8.4-3.6,11.9-6.9c1.9,0,3.7,1.4,5,2.9c5.5,6.2,12.6,8.8,20.7,8.6l0.7-0.4
				c0.5-0.5,0.3-1.5-0.3-1.9l-4.8-2.5c-3.4-2.2-7.5-5.2-8.7-9.1c-1-3.5-2.9-7.3-4.9-10.7c-0.7-1.7-2.3-3.1-3.1-4.8
				c0.2-0.2,0.4-0.5,0.7-0.4c5.3,1.9,8.5,7.3,10.9,12.2c3.9,5.6,9.5,10.4,16.8,9.1l0.6-0.5c0.3-0.4,0.2-1,0-1.3L406.8,473.7z
				 M326.9,399c-0.1,0-0.2-0.1-0.2-0.1s0,0.1,0,0.1c0,0-0.1,0.1-0.1,0.1c-0.3,0.3-0.8,0.5-1.3,0.2c0,0-0.1-0.1-0.1-0.1
				c0-0.1,0-0.2,0-0.2c-0.8-4.2-1.7-8.7-3.3-12.9c0,0-0.9-1.7-0.9-1.7l-0.4-0.5l-0.8-1.2c-0.6-1.1-1.3-2.5-0.4-4.2l0.1-0.1
				c0.7-0.8,2.1-0.8,2.9-0.5l0.1,0.1c1.7,1.3,2.9,3.3,3.7,4.8c1,2.5,1.6,5.6,1.6,8.9c0,2.5-0.3,5-0.9,7.3
				C326.6,398.9,326.8,399,326.9,399z M365.7,469C365.7,469,365.7,469,365.7,469c-0.1,0-0.1,0.1-0.1,0.1c-1.9,0.6-4,0.9-6.3,0.8
				l-0.1,0c0,0-0.4-0.2-0.4-0.2c0,0-0.5-0.3-0.5-0.3c-0.2-0.2-0.6-0.6-0.4-1.2c0.9-2.8,3.5-5.9,6.8-6.6c0.1,0,0.3,0,0.3,0l0.5,0
				l0.7,0.1c0.4,0.1,1,0.4,1.1,1.3c0.1,0.5,0.1,1.1,0.1,1.7C367.4,466.1,367.1,467.9,365.7,469z M378.2,440.1c0,0.1-0.3,0.9-0.3,0.9
				c0,0.1-0.3,0.9-0.3,0.9c-0.3,0.8-0.8,1.3-1.5,1.5c-0.4,0.1-0.8,0.1-1.1-0.2c-0.3-0.2-0.5-0.6-0.5-1.1c0,0-0.1-0.9-0.1-0.9
				l-0.3-3.3c-0.2-1.5-0.7-2.7-1.4-3.7c0,0-1.4-1.7-1.4-1.7c0-0.1-1.6-1.8-1.6-1.8c-1.2-1.2-2.3-1.8-3.4-1.9
				c-0.9,0.3-1.7,0.9-2.5,1.9l-1.1,1.4l-0.9,1.3c-0.3,0.6-1.1,0.3-1.1,0.3c0,0-0.1,0-0.1-0.1c0-0.1-0.1-0.2-0.1-0.2
				c-0.2-0.6-0.3-1.3-0.3-1.8c0-1,0.3-1.9,0.6-2.7l0.8-1.8l0.9-2.1l0.1-0.2c0.3-0.3,0.6-0.8,0.9-1.7l0.3-0.7l0.6-1.5
				c0.8-1.9,2.1-2.4,3.9-1.6c1.4,0.8,2.3,2.1,3,3.2c0,0,0.5,0.8,0.5,0.8l0.6,1l1.2,1.6c3.3,3.8,4.9,7.5,4.9,11.2
				C378.5,438.2,378.4,439.1,378.2,440.1z"/>
			<path fill="#D40C2D" d="M136.5,485.5c3.2-1.9,5.2-5.5,6.8-8.6c-0.3-1.2-1.4-2-2.3-2.9c-0.6-0.5-1.5-0.1-2.2,0.1
				c-2.2,2-4.6,3.6-7,5.2c-1,0.7-0.6,2.3-0.8,3.5c0,1.1,1.2,1.8,1.8,2.4C133.8,485.8,135.3,485.9,136.5,485.5z"/>
			<path fill="#D40C2D" d="M568.7,471.4c-2.7,0.5-5.9-0.1-8.7,0.3c-1.2,1.9-2.3,4.2-2,6.8c0.3,2.7,3.2,2.9,5,3.6
				c1.7,0.2,4.3,0.8,5.2-1.1c1-2.8,1.9-5.7,2.3-8.7C570.3,471.5,569.5,471.2,568.7,471.4z"/>
			<path fill="#D40C2D" d="M716,491.2c-5.2,0.3-7.7-5.5-10.8-8.9c-2.5-3.1-7.5-4.9-7.4-9.4c-0.9-1.8-1.1-4.7-1.9-7
				c-0.7-1.9-1.4-4.7-3.9-5.1c-4.4-0.7-9.7,0.5-12.4-3.7c-2.8-3.2,0.3-6.9,0.8-10c1.2-3.9,1.3-9.1,0.7-13.2
				c-0.1-2.3-1.6-4.2-1.2-6.6c1-2,3.5-0.5,5-0.3c5.7,1.7,12.4,0.9,17.6-1.5c7.1-3.6,12.8-11.1,12.5-19.7c-1-11.1-8.7-20.3-16.9-27.5
				c-1.5-1.4-3.5-2.9-4-4.9c-0.2-4.4,4.5-2.2,6.8-3.3c2.9-0.7,5.7-1.5,8-3.2c6.2-4.4,7.5-12,6.3-19.4c-0.2-0.6-0.2-1.6-1.1-1.6
				c-1.1,1-2.2,2.3-3.7,3.2c-4,2.4-9.3,2-13.4,4.1c-5.2,2.3-11.6,5.6-13.8,11.8c-0.6,3.1,0.1,6.3,1.4,8.8
				c6.3,10.4,19.6,17.2,21.8,29.7c0.8,5.1-1.6,8.8-5.4,11.7c-5.7,3.6-14.3,2.3-20-0.8c-11-5.7-20.6-15.3-32.4-19.2
				c-7.4-3.5-16.6-2.7-23.2-8.1c-5-3.4-9.6-7.8-15.2-9.3c-3.9-1.4-8.2-1.2-11.8-3.2c-3.7-3.4-7.5-6.6-11.8-8.8
				c-5.9-3.1-12.4-4.7-18.9-6.2c-3.9-1-5.3-5.4-8.5-7.6c-5.4-4.5-11.4-7.6-18.7-7c-3.1,0.2-5.4,2.3-7.7,4.5
				c-15.6,14.2-33.4,24-47.7,40.2c-9.6,10.3-12.1,23.3-15.7,36c-5.1,19.1-7.2,40.1-25.7,51.9c-0.3,0.5-0.3,1.5,0.3,1.9
				c4.9,1.3,9.7-0.7,12.9-4.2c3.2-5.2,6.5-10.2,10.8-15l1-0.5c0.5,0.1,1.1,0.4,0.9,1.2c-1.2,4.2-4.9,7.3-6.1,11.6
				c-1.6,5.1-6.3,9-10.3,12.6l-0.1,0.6c0,0.5,0.5,1.1,1,1.2c9,0.4,15.4-6.3,21.4-12.5c0.6-0.6,1.4-0.5,2.2-0.3
				c2.6,2.1,5.1,5.3,8.6,6.1c3.7-0.5,7.5-1.1,11.4-0.7c5.4,1.7,10.6,4,16,5.9c2.7-0.1,4.8-2.9,6.2-5.2c1.1-2.8-0.5-5.5-0.3-8.2
				c1.3-0.9,2.9,0.2,4.3-0.2c0.6-0.4,1.1-1.2,1.1-1.9c-1-4.9-5.2-8.5-6.5-13.1c-2-5.8-8.7-9.3-9.9-15.6c0.3-0.4,0.8-1.1,1.3-0.6
				c4.4,3.3,8.2,7.6,13.6,8.5c4.1,0.4,8.2,0.9,12.3,0.5c0.6-0.2,1.1-1,0.9-1.7c-1.7-3.8-3.4-7.6-4.4-11.8
				c-1.4-5.2-2.4-12.4-0.8-18.1c0.3-0.4,1.6-1.2,2.2-1c0.8,0.2,1.8,1.2,1.9,2c0.6,9-0.3,17.3,4.9,24.4c2.2,3.7,6.1,4.5,8.9,7.3
				c1,1.5,1.2,3.9,0.5,5.6l-6.2,9.6c-1.4,2.1-2.9,4.5-3.4,6.8c-0.5,2.7-0.2,5.2,0,7.7c-0.4,0.2-0.6-0.4-1-0.6
				c-1.6-3.5-3.5-8-1.7-12.1l7.8-12.6l0.3-1c-1.7-1-3.7-1.9-5.5-2.3c-0.9,0.4-1.5,1.4-2.1,2.2l-7.6,14.4c-0.5,1.7-1,3-0.6,4.8
				c0.4,2.1,0.9,4.2,1.8,6c0.6,3,1.1,5,2.4,7.6c1.9,2.2,4.6,0.2,7,0.8c2.4,0.6,3.4,3.7,5.8,4.5c5.5,1.9,11.4,3,16.9,5.2
				c2.9,1,6.9,2.1,9.5-0.3c3.6-2,4.5-5.9,5.1-9.7c1.1-1.6,3.4-1,5-1.5c3.1-2.1,4.1-5.9,6.3-8.8l0.4-1.5c-0.3-1-1.1-1.5-1.9-1.8
				h-10.4c-4.8,0.6-5.2,6.2-7.2,9.6c-1.1,2.1-3.4,3-5.7,2.8c-4.9-1.4-10.9-2.1-13.1-7.6c-0.3-1.4-0.3-3.1,0.7-4
				c2.5-3.1,5.6-6.6,8.8-9.1c4.5-1,8.9-4.5,11.2-8.6c1.2-1.8,1-4.5,3.1-5.8c0.6-0.1,2-0.2,2.4,0.5c0.9,3.1-0.7,5.3-1.7,7.9
				c11.1,1.2,19.7-2.2,30.5-1.8c4.6,0,8.7,0.5,13.2,0.2c4.5-0.2,9.4-2.1,10.8-7c2-6.3-0.8-13.4-1.8-19.3l1.2-1
				c0.7-0.4,1.9,0.2,2.4,0.6c1.9,5.6,3.3,12.4,4.1,18.6c0.8,5.4,3.1,8.9,5.9,13.5c5.2,8.1,14.4,11.2,23.4,9.2
				c11-0.8,20.5,5.2,27.2,14.1v0.5c-0.2,0.4-0.6,1-1.1,0.8c-5.8-4.7-11.6-9.7-19-10.6c-7.5-1.4-14.3,2.7-22.1-0.6
				c-9.4-3.2-13.4-9.3-17.4-19H633c-0.6,0.1-1,0.7-1.1,1.4l1,6.6c1.2,5.3,2.9,11.6,8.4,14c4.3,2.6,8.4,6.5,13.7,5
				c9.3-2.1,18.6,0.6,25.8,6c2.3,1.4,4.2,3.9,6.7,4.9c2.7,1.2,6.1,0.5,8.3-1.4c5.2-1.8,6.4,5,10,7.4c3.2,3.2,9.5,1.9,13.6,1.9
				l-0.1-0.5C718.8,498.5,717.7,495.1,716,491.2z M499.1,471l-0.1,0.1c-0.7,0.5-1.5,0.7-2.6,0.6l-1.9-0.2l-0.6-0.1l-0.1,0
				c-2-1.1-2.4-3.4-2.6-5.8c0-0.8,0.2-1.4,0.8-1.8c0,0,0.1,0,0.1-0.1c0.1,0,0.1,0,0.1,0c2.7,0,4.7,0.8,6,2.5c0,0,0.1,0.1,0.1,0.1
				c0,0,0.4,0.8,0.4,0.8l0.6,1.3c0,0,0.1,0,0.2-0.1c-0.1,0-0.2,0.1-0.2,0.1c0.2,0.5,0.3,0.9,0.3,1.4
				C499.4,470.2,499.3,470.6,499.1,471z M501.4,434.2l-0.3,1c-0.2,0.3-0.5,0.7-0.9,1c-0.3,0.2-0.8,0.4-1.3,0c-0.5-0.2-1-0.6-1.3-1.1
				c0,0-0.4-0.7-0.4-0.7l-0.4-0.7c-0.5-0.8-0.9-1.4-2-1.4c-1,0-1.6,0.4-2.2,0.8l-0.7,0.5l-0.4,0.3c0,0-1.1,0.8-1.1,0.8
				c0,0-1.5,1.3-1.5,1.3l-0.6,0.6c0,0-2.1,2-2.1,2c-1.5,1.6-2.3,3.1-2.5,4.6c0,0-0.3,1.1-0.3,1.1c0,0-0.1,0.5-0.1,0.5l-0.1,0.7
				c-0.2,0.7-0.4,1.6-1.1,2c-0.5,0.1-1.1,0-1.6-0.3c-0.4-0.3-0.6-0.7-0.6-1.1c-0.4-5.1,1.3-9.9,4.7-13.2c1.7-1.5,3.2-3.3,4.4-4.8
				c0,0,1.3-1.8,1.3-1.8l2.7-3.4l0.3-0.2c1.9-0.4,3.2,1.4,3.6,2.2c1.7,2.3,3.1,4.8,4.3,8.1c0.1,0.2,0.1,0.5,0.1,0.7
				C501.5,433.9,501.5,434.1,501.4,434.2z M543,373.9l-0.4,0.9c0,0-0.5,0.8-0.5,0.8c0,0-3.2,3.1-3.2,3.1l-3.4,3.3
				c-2.6,2.6-4.4,4.8-5.7,6.9c-1.1,1.6-1.9,3.4-2.7,5.1c-0.2,0.5-0.9,0.5-1.2,0.4c0,0-0.1,0-0.2-0.1c0-0.1-0.1-0.2-0.1-0.2
				c-0.2-0.7-0.3-1.4-0.3-2.2c0-0.6,0.1-1.2,0.2-1.9c0,0,0.6-2.6,0.6-2.6l0.3-1.2c2-5.4,6.3-11.1,12-15.5c0.7-0.5,2.1-0.8,3.1-0.5
				c0.6,0.2,1.1,0.6,1.3,1.3c0.2,0.4,0.4,0.9,0.4,1.3C543.1,373.3,543.1,373.6,543,373.9c0,0,0.1,0,0.2,0.1
				C543.1,374,543,373.9,543,373.9z"/>
			<path fill="#D40C2D" d="M729.9,496.8c-0.5-2.4,0.1-5.8-1.4-8.1c-1.3-1.1-2.5-2.7-4.3-2.2c-1.4,1.3-3.6,2.8-3.3,5
				c1.2,3.8,2,6.6,2.8,10.5c0.4,0.7,0,2.2,1.1,2.2l6.5-2.2C732.4,500,730.3,498.6,729.9,496.8z"/>
			<path fill="#D40C2D" d="M713.4,474.7c-2-1.8-4.2,0.9-5.2,2.4c0.7,2.5,2.7,4.7,4.3,7c0.8,1.3,2.1,2.1,3.6,2.2
				c1.4,0,2.5-0.7,3.6-1.6c0.7-1,1.5-2.1,1.2-3.5C718.9,478.5,715.8,476.8,713.4,474.7z"/>
		</g>
	</g>
</g>
</svg>
