<?xml version="1.0" encoding="utf-8"?>
<svg version="1.2" baseProfile="tiny-ps" id="RB17_standard_rgb"
	 xmlns="http://www.w3.org/2000/svg" xmlns:xlink="http://www.w3.org/1999/xlink" viewBox="0 0 850.4 850.4"
	 xml:space="preserve">
	 <title>Red_Bull</title>
<g>
	<rect fill="#FFFFFF" width="850.4" height="850.4"/>
	<path fill-rule="evenodd" fill="#D2003C" d="M585.8,573.1v-49h-27.1v54.3c0,18.4,19,33.3,42.4,33.3s42.4-15,42.4-33.3v-54.3h-26.9
		v49c0,8.2-7,14.8-15.4,14.8C592.8,587.8,585.8,581.1,585.8,573.1z"/>
	<rect x="704.8" y="465.3" fill-rule="evenodd" fill="#D2003C" width="27.2" height="143.1"/>
	<rect x="658.8" y="465.3" fill-rule="evenodd" fill="#D2003C" width="27.2" height="143.1"/>
	<path fill-rule="evenodd" fill="#D2003C" d="M160.2,495.4h-14.9v113h-28.9V472c0,0,49.2,0,50,0c22.6,0,41.1,18,41.1,40.3
		c0,19-13.4,35-31.3,39.1l40,57.1h-34.1l-28.9-44.7v-32.7h6.9c10.7,0,19.2-8,19.2-17.8C179.1,503.3,171,495.4,160.2,495.4z"/>
	<path fill="#D2003C" d="M301.6,571.8c0.1-1.8,0.2-3.8,0.2-5.7c0.6-29.6-19-45.7-43.9-45.7S213,541,213,566c0,25,20.1,45.7,45,45.7
		c19,0,33.7-8.7,41.4-22.1l-22.1-10.1c-2.9,6.1-9.4,10.4-17,10.4c-10.6,0-18.4-7.9-18.4-17c0-0.8,0-1,0-1h59.8V571.8z M241.5,556
		c0-9.2,7.3-16.7,16.7-16.7c9.2,0,16.7,7.3,16.7,16.7H241.5z"/>
	<path fill="#D2003C" d="M410.1,608.3V465.4H383v67.7c-7.2-7.1-16.8-11.7-27.3-11.7c-22.4,0-40.8,19.9-40.8,44.7
		c0,24.7,18.2,44.7,40.8,44.7c10.7,0,20.1-4.6,27.7-11.8v9.6L410.1,608.3L410.1,608.3z M363.4,587.5c-11,0-20-9.8-20-21.8
		s8.9-21.8,20-21.8c11.1,0,20,9.8,20,21.8C383.4,577.9,374.4,587.5,363.4,587.5z"/>
	<path fill="#D2003C" d="M525.4,534.2c7.3-7,12-16.2,12-26.6c0-9.3-3.7-17.8-9.8-24.6c-6.6-7.1-18-11.1-33.4-11.1h-46.7v136.6h60.3
		c23.1-0.6,41.6-17.7,41.6-39.1C549.2,553.6,543.7,542.8,525.4,534.2z M502.7,584.6h-26.2v-89.3h18.2c8,0,14.4,7.3,14.4,15.2
		c0,8-6.6,14.4-14.4,14.4h-9.6v24.6h17.4c9.6,0,17,7.9,17,17.6C519.3,577.2,513.1,584.1,502.7,584.6z"/>
	<circle fill="#FFCC00" cx="425.1" cy="337.3" r="98.5"/>
	<g>
		<path fill="#FFCC00" d="M417.9,383.1c-5.7-3.2-6.6-9.3-9.6-13.2c-1.1-1.6-3.2-3.2-3.8-4.6c-5-12.9-6.6-20.1-8.4-32.7
			c-1-6.3-5-11.8-11.3-19.6c-2.7-3.3-6.6-8.7-9.8-12c-11.3-9.4-17.3-14.8-24.8-19.8c-1.6-1-3.2-1.8-4.7-2.6l0,0l0,0c0,0,0,0-0.1,0
			l0,0c-2.4-1-4.8-1.6-7.9-1.6c-0.6,0-0.9,0-1.3,0c-5.6,0-10.9,2.1-16.2,6.3c-3.9,2.6-8.4,3.9-12.7,5.3c-5.3,1.8-11,3.4-15.8,7.7
			c-0.9,0.6-1.6,1.6-2.3,2.2c-1,1-1.8,2.3-3.2,2.7c-1.3,0.2-2.3,0.2-3.3,0.6c-1.8,0.1-3.4,0.6-5,0.8c-5.7,1.3-10,4.9-14.8,8.4
			c-0.6,0.6-1,0.9-1.6,1.3c-2.9,2.3-8,4.6-11,4.7c-8,0.1-13.7,2.1-19.8,6.6c-6.1,4.7-12.7,9.6-19.9,12.4c-1.8,0.8-3.4,1-5.3,1
			s-4.7-0.6-6.9-2.3c-2.7-2.6-3.7-7.3-2.1-10.7c2.4-4.9,7.7-8.7,11.7-11.8c5.3-4,10.4-9.3,8.1-18c-2.4-8-12.1-10.4-18.6-12.1
			c-1.8-0.6-3.4-0.9-4.4-1.3c-2.1-1-3.4-1.8-4.9-2.9c-1.3-1-2.6-1.8-4.4-2.4c-0.2-0.1-0.6-0.1-0.8-0.1c-1,0-1.6,0.6-2.2,1.3
			c-2.3,4-2.9,8.1-2.1,12.1c1.6,6.6,8,12.7,14.8,13.7c0.8,0.1,1.6,0.1,2.2,0.2c0.8,0.1,1.6,0.1,2.1,0.2c-4.7,3.7-8.7,7.7-12.1,11.8
			c-4.9,5.8-6.3,15.3-3.2,22.3c2.7,7,9.6,12.7,16.8,13.7c1.6,0.2,2.9,0.6,4.7,0.6c2.4,0,5-0.2,7.3-0.6c0.6-0.1,1.1-0.1,1.8-0.1
			c0.2,5.6,0.6,8.9,3.4,16.7c0.1,0.6,0.1,1.3-0.6,1.8c-0.6,0.6-4.9,2.3-6.3,2.6c-0.6,0.1-1,0.1-1.6,0.1c-0.2,0-0.6,0-0.9,0
			c-0.2,0-0.8,0-1,0c-0.6,0-1.6,0-2.1,0.1c-2.7,0.6-4.2,2.7-5,5c-0.6,1.6-1,2.6-1.6,3.7c-1,2.6-1.6,4.2-3.3,5.3c0,0-3.8-3.3-4.4-3.8
			c-0.8-0.6-1.8-0.9-2.9-0.9c-2.3,0-4.6,1.6-6.6,2.9c-0.8,0.6-1.3,1-1.8,1.3c-1.8,1-3.1,2.9-3.4,4.9c-2.7,1.6-5.6,3.1-6.9,5.9
			c-0.6,1.1-0.8,2.6-0.9,4c-0.1,0.8-0.1,1.3-0.1,2.1c-0.1,0.6-0.6,0.9-0.8,1.3c-0.8,1.1-1.6,2.6-1.6,3.7c0,2.1,0.8,2.9,1.8,3.8
			c1.6,1,5,2.1,7.9,2.9c0.1,0,0.6,0.1,0.6,0.1c0.9,0,1.6-0.6,2.1-0.9c0.2-0.1,0.6-0.6,1-0.6c2.2,0.6,5.6,1.3,8.7,1.3
			c1.6,0,3.2-0.1,4.6-0.6c3.2-0.9,5.9-5.3,7.7-7.7c0.6-0.6,0.8-1.1,0.9-1.3c0.1,0,0.1,0,0.2,0c0.6,0,1.3,0.1,2.1,0.6
			c1,0.2,2.1,0.6,3.2,0.8c3.7,0.2,7.1-1.8,9.4-3.7c1-0.8,1.8-1.6,2.9-2.6c1-1,2.2-2.1,3.2-2.7c1.3-0.6,2.4-0.8,4-0.8
			c0.6,0,1,0,1.6,0.1c2.6,0.6,6.1,1.1,9.4,1.1c3.2,0,5.9-0.6,8.1-1.8l2.1-1c2.2-1.1,4.6-2.3,6.6-3.4c4.2-2.3,5.8-5.9,7.2-8.9
			l0.6-0.8c0.8-1.8,2.1-4.9,2.3-5.7c0.8,0.1,1.3,0.1,2.1,0.1c2.3,0,4.6-0.6,6.6-1c2.1-0.6,4.4-1,6.6-1c1.1,0,2.2,0.1,3.2,0.6
			c3.9,0.8,9.2,1.8,14.3,1.8c2.9,0,5.7-0.2,8.1-0.9c0.6,0.6,1.3,1,1.8,1.6c0.8,0.6,1.3,1,1.8,1.6c-0.6,0.1-1.3,0.1-1.8,0.2
			c-1.8,0.1-3.8,0.6-5,1.8c-1.3-0.6-2.9-0.9-4.8-0.9c-1.8,0-3.8,0.2-5.6,0.6c-0.8,0.1-1.6,0.1-2.2,0.2c-2.9,0.6-4.8,1.6-5.7,3.2
			c-0.6,1.3-1,2.4-0.1,4.6l5.6,9.3c0.8,1.3,1.8,2.2,2.6,2.2c0.6,0,1,0,1.6-0.1c0.6,0,1-0.1,1.6-0.1c0.9,0,1.6,0.1,1.6,0.6
			c0.2,0.6,0.6,0.9,0.9,1.3c1.1,1.8,2.3,3.7,4,5.3c2.6,2.3,7.1,3.3,11.1,2.3c1.6-0.6,3.1-1.1,4.7-1.8c4.8-1.8,9.7-3.4,14.8-5.6
			l8-1.1c2.6-0.6,4.7-4,5.3-5.6l0,0c0.1-0.1,0.1-0.1,0.1-0.6c0,0,2.3-4.8,3.2-7.7c0,0.6,0,1.1,0,2.1c0,4.6,0.8,10.2,8.4,9.8
			c4.4-0.1,10-2.7,14.1-3.4c4.4-0.8,9.8,1,14-1c4-1.6,6.3-4.8,7-4c1.6,1.6,8.7,8.1,20.1,7.7c5.7-0.1,6.3-4.8,2.3-6.9
			c7.9,1,10.2-3.3,8.7-4.7C421.5,385.1,421,384.9,417.9,383.1z M347.6,378.6c-2.9-4-4.9-6.9-5-10.4c3.8-0.6,7.2-1.8,12.9-2.1
			C353.6,370.5,348.6,372.9,347.6,378.6z"/>
		<path fill="#FFCC00" d="M680.9,404.2c-0.2-0.6-0.6-1-0.8-1.6c-0.1-0.9-0.2-1.8-0.6-2.6c-0.1-1-0.1-2.1-0.6-3.2
			c-0.9-2.9-4-4.8-6.6-5.8c-0.1-1.1-0.2-2.3-1.3-3.1c-4.4-3.2-6.9-4.9-8-5.9c-0.8-0.6-1-0.8-1.1-0.9c-0.6-0.2-1.1-0.6-1.8-0.6
			c-1.8,0-3.4,1.6-5,3.1c-0.6,0.6-0.8,0.8-1,1H654c-0.6,0-1.6-1.6-1.8-2.1c-0.6-1.1-0.8-2.3-1.1-3.3c-0.6-1.8-1.1-3.8-2.2-5.8
			c-1.6-3.3-5.3-3.3-8.4-3.4c-0.2,0-0.6,0-0.9,0c-1.6,0-3.3-0.1-3.7-1.1c-0.2-1,0.6-2.7,0.8-4c0.2-1,0.6-1.8,0.8-2.6
			c0.8-3.4,0.9-8.2,0.1-12c0.8,0,1.6,0.1,2.3,0.1c0.8,0.1,1.6,0.1,2.2,0.1c0.1,0,0.6,0,0.8,0c4.8,0,8.7-1,12.1-2.9
			c7.1-4.2,11.3-11,11.7-18.2c-0.1-3.8-1.1-6.9-3.1-10.7c-2.6-5-7-10.2-13.2-15.3c3.7-0.8,6.6-1.6,9.6-3.4
			c5.7-3.7,8.2-10.2,7.1-18.6c-0.2-2.1-1-5.3-2.7-6.3c-0.2-0.1-0.6-0.1-0.8-0.1c-1.3,0-2.3,1.3-3.4,2.4c-0.6,0.6-0.8,0.9-1,1.1
			c-1.8,1.8-4.4,2.2-6.6,2.6c-1.3,0.2-2.6,0.6-3.8,1c-5.7,1.8-15.4,6.3-16.4,14c-0.9,7.7,4.7,12.9,9.8,18c1.8,1.8,3.4,3.2,4.9,4.9
			c3.1,3.4,5.7,7.1,4.9,11c-0.1,1.3-2.2,3.4-4,4.4c-1.6,0.6-2.9,0.8-4.4,0.8c-4.9,0-9.6-2.6-13.7-5l-0.6-0.6
			c-9.6-6.6-19.6-13.4-31.9-15c-4.7-1-8.7-3.8-12.7-6.6c-1-0.8-1.8-1.3-2.7-1.8c-4.2-2.4-8.7-4-13.4-4.9c-2.4-0.2-4.4-1.8-6.6-3.7
			c-1-0.9-2.2-1.8-3.4-2.4c-4.9-3.2-10.2-5.3-16-6.3c-0.6-0.1-1.1-0.2-1.8-0.6c-1.6-0.2-3.1-0.8-4-1.8c-1.6-1.8-3.8-4.4-6.6-6.3
			c-3.7-2.3-9.3-4.9-14.1-4.9c-1,0-2.1,0.1-2.9,0.6c-2.7,0.8-4.9,2.3-7.1,4c-0.2,0.1-0.6,0.6-0.9,0.8l0,0
			c-4.6,3.4-10.4,8.2-15.1,11.7c-14.1,10-19.2,14.3-26.2,21.8c-18,19.6-12.4,48.7-27.9,65.8c-4,4.4-5,4.9-6.6,6.3
			c-1.8,1.6-2.2,9.6,9.6,5.7c-5.3,4.7-2.1,6.6,1.6,6.9c6.3,0.1,12.9-2.1,19.8-9.2c4.7,6.6,12.8,3.7,17,3.9
			c3.9,0.2,11.3,4.7,15.3,4.4c6.6-0.6,8.7-6.9,8.2-10.4c1,0,1.3-0.2,1.6-0.8c0.8,3.8,1.3,6.3,2.1,8.2c0,0.1,0.1,0.2,0.2,0.6l0,0l0,0
			c0.6,0.9,1.6,2.6,2.3,3.4c1.1,1.3,2.7,1.6,4,1.6c0.6,0,1,0,1.6-0.1c0.6,0,1.1-0.1,1.8,0c0.6,0.6,1,0.8,1.6,1.1
			c1,1,2.1,1.8,3.4,2.2c6.1,1.6,11.1,2.9,16,4.7c1,0.2,2.6,0.8,4,0.8c0.6,0,1,0,1.6-0.1c4.7-1,8.7-4.9,9.8-9.6
			c0.1-0.8,0.6-0.8,1.6-0.8c0.8,0,1.3-0.1,1.8-0.6c2.6-2.1,4-4.8,5.7-7.7c0.2-0.6,0.8-1.1,1-1.8c0.8-1,1-2.9,0.1-4.6
			c-0.6-1-1.6-1.8-2.6-2.1c-2.3-0.8-5-0.8-7.3-0.8c-0.6,0-0.9,0-1.3,0c-0.6,0-0.9,0-1.3,0c-1.3,0-2.6,0-4-0.1l-1-1
			c-0.8-0.8-1.6-0.8-2.6-1c-0.1,0-0.6-0.1-0.8-0.1l2.2-1.8c0.9,0,1.8,0,2.6,0c5,0,9.8-0.6,14.1-1.3c4.2-1,8-1.6,11.4-1.6
			c0.6,0,1,0,1.6,0c0.8,0,1.3,0.1,1.8,0.1c2.3,0.1,4.7,0.2,7.1,0.2c3.2,0,5.7-0.2,8-0.9c0.2,1.1,0.6,2.3,0.8,3.3
			c0.9,4,1.6,8,4.8,11.4c1.8,2.3,4.4,3.8,6.9,5.3c1.3,0.8,2.4,1.6,3.8,2.3c1.6,0.9,2.9,1,4.8,1c2.6,0,5.9-1.1,7.9-1.1
			c8,0,14.1,4.4,20.6,9.4c1.1,0.8,2.6,1.1,4.4,1.1c2.1,0,4.4-0.6,6.3-1.6l0.1,0.1c1.3,1.8,2.4,3.4,4.2,4.9c2.4,2.2,5.7,2.4,8.4,2.4
			c1,0,1.8,0,2.9-0.1c1.3,0,2.6-0.1,4,0c0.6,0.8,1.6,1.3,2.3,1.3c0.8,0,9.3-2.9,9.8-2.9c0.6-0.1,1.1-0.6,1.1-0.6
			C683.4,409.5,682,406.4,680.9,404.2z M503.9,379.1c-2.1-4-3.8-7.9-6.3-11.7c5.8,1.3,12.7,0.8,12.7,0.8
			C508.2,371,506.2,374.6,503.9,379.1z"/>
	</g>
	<g>
		<path fill="#D2003C" d="M540.2,383.2c-0.2-0.6-1-0.6-1.3-0.6c-0.1,0-0.2,0-0.6,0c-1,0.1-2.1,0.1-3.1,0.1c-0.6,0-1,0-1.6,0
			s-0.8,0-1.1,0c-0.8,0-1.1,0-1.6,0.1h-0.1l-0.1,0.1c-0.1,0.1-2.1,3.7-1.8,5.7c0.2,2.3,2.6,2.7,4.6,3.2c0.8,0.1,1.6,0.2,2.1,0.2
			c1.3,0,2.1-0.6,2.6-1.3c1-2.7,1.8-5,2.1-7.1C540.5,383.4,540.5,383.2,540.2,383.2z"/>
		<path fill="#D2003C" d="M669.1,391c-1.1-1.6-3.1-2.9-4.7-3.9c-0.8-0.6-1.3-0.9-1.8-1.3l-0.2-0.1c-0.6-0.2-0.8-0.6-1.3-0.6
			c-1.8,0-3.8,2.1-3.8,2.9c-0.1,1,1.6,2.9,3.4,5.3l0.6,0.6c1,1.1,2.1,1.8,3.2,1.8l0,0c1.1,0,2.1-0.6,3.1-1.3
			C668.2,393.6,669.8,391.9,669.1,391z"/>
		<path fill="#D2003C" d="M677.3,404.5c-0.2-0.8-0.6-1.3-0.8-1.8c-0.1-0.8-0.2-1.6-0.6-2.3c-0.1-1.3-0.2-2.4-0.8-3.4
			c-0.6-1.1-1.8-2.1-3.2-2.1c-0.6,0-0.9,0.1-1.3,0.2c-1.8,1-3.1,2.1-2.7,4.2c1,3.2,1.6,5.3,2.3,8.7c0.1,0.6,0.6,2.1,1.1,2.1
			c0.1,0,0.1,0,0.1,0l5.6-1.8c0.2-0.1,0.6-0.2,0.6-0.6C678.4,407.1,677.8,405.7,677.3,404.5z"/>
		<path fill="#D2003C" d="M667.6,409.2c-0.6-3.3-1.3-6.6-2.7-9.8l-0.1-0.1h-0.1c-3.2,0.1-5.3-2.3-7.1-4.9c-0.8-0.9-1.3-1.6-1.8-2.3
			c-1-1.1-2.1-2.1-3.1-2.9c-1.1-1-2.1-1.8-2.4-2.6c-0.6-1-1-2.7-1.6-4.6c-0.6-1.3-0.8-2.4-1-3.2c-0.1-0.1-0.1-0.6-0.1-0.6
			c-0.6-1.6-1.3-3.4-3.3-3.8c-1-0.1-2.1-0.1-3.2-0.2c-2.9-0.1-5.8-0.8-7.3-2.6c-1.6-1.8-0.8-3.8,0-5.7c0.6-0.9,0.6-1.6,0.8-2.3
			c1-3.4,1.6-7.9,0.6-10.9c-0.1-0.6-0.2-1-0.6-1.6c-0.6-1.3-1-3.2-0.6-3.8c0.6-0.6,0.8-0.8,1.3-0.8s1,0.1,1.6,0.2
			c0.6,0.1,0.8,0.1,1,0.2c1.6,0.6,3.7,0.8,5.6,0.8c3.2,0,6.6-0.8,9.6-2.1c5.7-2.7,11.1-8.9,10.9-16.4c-0.8-7.7-5.6-15.1-14.4-22.6
			c-0.1-0.1-0.6-0.6-0.8-0.6c-1.1-1-2.6-2.2-2.6-3.2c0-1,2.7-1.8,4.7-2.2c0.6-0.1,0.8-0.1,1-0.2l0.6-0.1c2.3-0.6,4.7-1.1,6.6-2.4
			c6.6-4.4,6.3-12,5.6-16.2c0-0.1-0.1-0.2-0.1-0.6c-0.1-0.6-0.2-1.3-0.8-1.3c-0.1,0-0.2,0.1-0.6,0.1c-0.1,0.1-0.6,0.6-0.6,0.6
			c-0.8,0.8-1.6,1.6-2.4,2.1c-2.1,1.3-4.6,1.8-6.9,2.2c-1.6,0.2-3.1,0.8-4.7,1.1c-6.3,2.2-10.4,5.3-11.8,9.6c-0.8,2.2-0.6,4.9,1,7.7
			c2.1,3.3,5,6.3,8.1,8.9c4.7,4.4,9.4,8.9,10.4,15.2c0.6,3.7-0.9,6.6-4.6,9.3c-1.8,1.1-4.4,1.8-7.1,1.8c-3.3,0-6.9-0.9-9.8-2.4
			c-3.8-1.8-7.3-4.4-10.9-6.6c-5.3-3.4-10.7-7.1-16.8-8.9c-2.6-1.1-5.6-1.8-8.4-2.3c-4-0.9-8.1-1.6-11.4-4.2
			c-1.1-0.8-2.3-1.6-3.3-2.3c-3.1-2.2-6.1-4.4-9.6-5.3c-1.3-0.6-2.6-0.8-3.8-0.9c-1.8-0.2-3.8-0.6-5.3-1.8c-0.8-0.6-1.6-1-2.3-1.6
			c-2.7-2.1-5.7-4.2-8.7-5.7c-4.9-2.4-10.3-3.8-16.2-5c-1.8-0.6-3.1-1.8-4.4-3.4c-0.9-1-1.8-2.1-2.7-2.7c-4.7-3.7-8.7-5.9-14.1-5.9
			c-0.6,0-1,0-1.6,0.1c-2.7,0.1-5.6,2.3-7.3,3.9c-5.3,4.7-11,8.7-16.6,12.9c-8.2,5.9-16.8,12.1-24.1,20.1
			c-7.1,7.3-9.8,16.7-12.4,25.7c-0.6,1.3-0.8,2.6-1.1,3.9c-0.8,2.4-1.3,4.9-1.8,7.3c-3.3,13.2-6.6,26.3-19.9,35
			c-0.9,0.6-0.6,1.8,0.2,2.1c0.6,0.1,5.9,2.1,11.3-3.4c3.3-4,5-8,9.2-12.1c0.1-0.1,0.6-0.6,1-0.6c0.2,0.1,0.6,0.2,0.2,0.8
			c-0.6,1.8-1.6,3.2-2.6,4.7c-1,1.6-2.1,3.1-2.6,4.8c-1.3,3.8-4.8,6.9-8,9.6c0,0-0.6,0.2-0.8,0.8c-0.2,0.6-0.2,0.6-0.2,0.6
			c-0.1,0.9,0.6,1.3,1.8,1.6l0,0c7.3,0,12.7-5.3,17.7-10.4c0.1-0.1,0.6-0.2,0.9-0.2c0.2,0,0.6,0,0.9,0.1c0.6,0.1,1.1,1,1.8,1.6
			c1.8,1.6,3.3,3.1,5.7,3.4l0,0l0,0c2.6-0.6,5-0.8,7.7-0.8c0.8,0,1.6,0,2.1,0.1c2.6,0.9,5.3,1.8,8,2.9c1.8,0.8,3.8,1.6,5.7,2.1l0,0
			l0,0c2.4-0.1,4.2-2.3,5.6-4.4c0.6-1.6,0.2-2.9,0-4.2c-0.1-0.9-0.6-1.6-0.2-2.3c0.6-0.1,1-0.1,1.8-0.1c0.6,0.1,1.6,0,1.8,0
			c0.8-0.1,1.3-0.9,1.1-1.8c-0.6-2.4-1.8-4-2.9-5.9c-1-1.6-2.1-3.2-2.6-4.9c-0.9-2.3-2.6-4-4.2-5.9c-1.8-2.1-3.8-4-4.4-6.6
			c0,0-0.1-0.6,0-0.8c0.1-0.1,0.8,0,0.8,0c0.9,0.8,1.8,1.3,2.6,2.1c2.7,2.3,5.7,4.7,9.3,5c3.2,0.2,6.9,0.8,10.4,0.6
			c1-0.1,1.6-1,1.1-1.8c-1.6-2.9-2.9-6.1-3.8-9.6c-0.8-2.6-2.3-9.6-0.8-14.8c0.1-0.6,0.6-0.8,0.9-0.8h0.1c0.6,0.1,1,0.9,1,1.3v0.8
			c0.6,7.1,1,13.7,5.3,19.6c1.1,1.8,2.7,2.7,4.4,3.8c1.1,0.8,2.3,1.3,3.2,2.3c1,1.1,1,3.2,0.6,4.4l-5.3,7.9
			c-1.3,1.8-2.4,3.8-2.9,5.7c-0.6,2.1-0.1,3.9-0.1,5.7v0.6c-0.1,0-0.2-0.1-0.6-0.6c-2.1-3.9-2.6-7.1-1.6-9.6c0.8-1.6,5-7.7,6.3-9.7
			c0.6-0.8,0.8-1.3,0.6-1.8c-0.6-0.6-3.7-1.8-4.6-1.8c-0.1,0-0.1,0-0.1,0c-0.8,0.1-1.3,1-1.8,1.6c-0.1,0.1-0.1,0.2-0.2,0.6
			l-6.6,11.9l-0.1,0.6c-0.6,1.1-0.8,2.2-0.6,3.7c0.6,1.8,1,3.8,1.3,5c0.1,0.6,0.1,0.8,0.6,1.1c0.6,2.1,1.1,4,2.1,5
			c0.6,0.8,1.3,1,2.3,1c0.6,0,1-0.1,1.6-0.1c0.9-0.1,1.8-0.1,2.3-0.1c1,0.2,1.8,1,2.3,1.8c0.8,0.8,1.6,1.6,2.6,1.8
			c2.1,0.8,4,1.3,6.3,1.8c2.7,0.8,5.6,1.6,8.2,2.4c1.6,0.6,3.2,1,4.8,1c1.8,0,2.9-0.6,4.4-1.8c2.1-1.8,2.9-3.4,3.3-5.9
			c0.6-2.3,1.1-2.3,2.9-2.4c0.8,0,1,0,1.8-0.2c0.8-0.2,3.2-3.2,4.4-5.6c0.2-0.8,0.8-1.3,1-1.8c0.6-0.6,0.6-1,0.6-1.6
			c0-1.1-1-1.6-1.6-1.6h-0.6c0,0-7,0-8.9,0c-2.9,0.1-4,2.9-5,5.3c-0.6,1-0.8,1.8-1.3,2.6c-0.8,1.3-2.2,2.2-4,2.2
			c-0.6,0-1.8-0.2-2.3-0.6c-3.8-1-7.7-1.8-9.3-5.7c-0.1-0.8-0.6-2.1,0.6-3.1c2.1-2.3,4.7-5.3,7.3-7.3c3.8-0.8,7.7-3.7,9.6-7.1
			c0.6-0.6,0.8-1.3,0.9-2.1c0.6-1,0.8-2.1,1.6-2.6c0.6-0.2,1.1-0.1,1.3,0.6c0.6,2.1-0.6,3.8-1.1,5.7c-0.1,0.6-0.2,0.9-0.6,1.3
			l0.2-0.6h0.2c1,0.1,2.1,0.1,3.2,0.1c3.9,0,7.7-0.8,11.1-1.3c3.4-0.8,7.2-1.3,11-1.3c0.6,0,0.8,0,1.3,0c1.8,0,3.3,0.1,4.9,0.2
			c1.6,0.1,3.2,0.2,4.8,0.2c0.6,0,1.1,0,1.6-0.1c4.9-0.1,8.4-2.3,9.4-5.9c1-2.9,0.9-8.1-0.2-15.2c-0.1-0.6-0.1-0.6-0.1-0.6v-0.8
			c0-0.2,0-0.6,0.6-0.8c0.6-0.1,1,0,1.1,0.6c1.8,5,2.9,11,3.4,15.1c0.8,4,2.3,8,5,12.4c3.4,5,9.2,8.1,15.8,8.1
			c1.6,0,3.1-0.2,4.7-0.6c1-0.1,1.6-0.1,2.1-0.1c8.2,0,15.3,3.7,20.8,10.4c0,0,0.1,0.1,0.1,0.6c0,0.2-0.6,0.6-0.8,0.6l-0.8-0.6
			c-4.7-3.7-9.4-7.3-15.4-8.1c-1-0.1-2.2-0.2-3.4-0.2c-1.8,0-3.4,0.1-5,0.6c-1.6,0.1-3.2,0.6-4.9,0.6c-2.1,0-3.8-0.2-5.3-1
			c-7-2.3-12.7-10.3-14.4-15.2c-0.1-0.1-0.2-0.6-0.8-0.6c-0.1,0-0.6,0.1-0.6,0.1c-0.8,0.6-1,0.8-1,1.3c-0.1,0.6,0.6,4,0.9,5.6
			c1,3.8,2.3,9.6,7.2,11.7c0.8,0.6,1.3,0.8,1.8,1.1c2.4,1.6,5,3.2,8,3.2c0.8,0,1.6-0.1,2.1-0.2c1.8-0.6,3.4-0.6,5.3-0.6
			c5.7,0,11.7,1.8,16.4,5.6c0.9,0.6,1.6,1.1,2.3,1.8c1,0.9,2.1,1.8,3.4,2.3c0.8,0.6,1.8,0.6,2.6,0.6c2.2,0,2.7-0.8,4.4-1.6
			c0.8-0.6,1.6-0.6,1.8-0.6c1.8,0,2.7,1.6,4,3.2c0.8,1,1.6,2.3,2.7,3.3c1.6,1.6,3.8,1.8,5.7,1.8c1,0,1.8-0.1,2.9-0.1
			c1-0.1,2.1-0.1,2.6-0.1c0.6-0.1,0.9-0.1,0.9-0.1L667.6,409.2z M479.2,382.5c-0.6,0.6-1.1,1-2.1,1c-1,0-1.8-0.2-2.3-0.8
			c-1.3-1-2.1-2.4-2.2-4.7c0-0.6-0.1-1,0.6-1.6c0.6-0.1,0.6-0.1,0.9-0.1c1.3,0,3.3,0.9,4.4,2.1C478.4,378.6,480,381.1,479.2,382.5z
			 M481,353.3c-0.6,0.6-1.1,1-1.8,0.8c-0.8-0.1-1.3-1-1.6-1.8c-0.6-0.9-0.9-1.6-1.8-1.6c-0.1,0,0,0-0.1,0c-1,0.1-1.8,0.6-2.3,1.1
			c-0.6,0.2-1.8,1.6-2.3,1.8c-2.1,1.8-4.2,3.4-4.7,5.9c-0.1,0.9-0.1,0.9-0.2,1.3c-0.1,0.9-0.2,1.8-1,2.2h-0.1
			c-0.1,0-0.1,0.1-0.2,0.1c-0.2,0-0.8-0.1-0.9-0.6c-0.2-0.1-0.6-0.6-0.6-0.9c-0.6-4.2,1-8,4-10.7c1.8-1.6,3.4-3.4,4.9-5.3
			c0.8-1,1.6-1.8,2.3-2.7c0.6-0.6,1.6-0.1,3.2,1.6c0.8,0.8,2.7,4.4,3.8,6.6C481.5,352.5,481,353.3,481,353.3z M515.8,304.5
			c-0.8,0.8-1.6,1.6-2.4,2.3c-2.9,2.6-5.9,5.3-8,8.7c-1,1.3-1.6,2.7-2.3,4.2c-0.1,0.1-0.1,0.6-0.6,0.6c-0.1,0-0.2-0.1-0.6-0.1
			c-0.6-0.6-0.1-4.7,0.8-6.6c1.6-4.4,5.3-8.9,10.2-12.7c0.6-0.2,1.1-0.6,1.8-0.6c1,0,1.6,0.6,1.8,1.1
			C517.2,302.3,516.8,303.5,515.8,304.5z"/>
	</g>
	<g>
		<path fill="#D2003C" d="M318.3,387.7c-0.1-0.2-0.2-0.6-0.6-0.9c-0.6-1-0.8-1.8-1-2.7c-0.6-1.8-1-3.2-2.7-2.9
			c-2.6,0.6-5.3,0.6-8.1,0.6c0,0-1,0-1.3,0.8c-0.2,0.8,0.6,1.6,1.1,2.1s0.9,0.9,1.3,1.3c0.6,0.8,1,1.8,1.6,2.9
			c0.8,1.8,1.6,3.2,2.3,3.4c0.2,0.1,0.8,0.1,1.1,0.1c1.8,0,4.4-1,6.1-2.3C319.2,389,319,388.5,318.3,387.7z"/>
		<path fill="#D2003C" d="M188.7,385.1L188.7,385.1c-0.8-0.6-1.6-0.6-2.3,0c-0.6,0.2-1,0.6-1.6,1c-1.6,1-3.1,2.1-4.7,3.3
			c-0.6,0.6-0.9,1.6-1,2.1s0.1,1,0.2,1.3c0.1,0.1,1.3,1.6,1.6,1.8c0.6,0.2,1,0.8,1.8,0.8c0.6,0,1-0.1,1.6-0.6
			c2.9-1.6,5.8-6.9,5.9-7.1C191.1,386.9,190.1,386.2,188.7,385.1z"/>
		<path fill="#D2003C" d="M179.3,397.6c-0.6-0.9-2.6-3.2-3.7-3.2c-0.1,0-0.1,0-0.2,0c-1.6,0.6-3.2,2.6-3.3,3.8
			c-0.6,5-0.6,5.7-1.8,7.2c-0.6,0.6-0.8,1.6-0.1,1.8c0.6,0.6,5.3,2.1,5.9,2.1h0.1c0.6-0.1,0.9-1.3,1.8-4.9c0.6-1.8,1.1-4,1.8-5.9
			C179.8,398.4,179.8,398.4,179.3,397.6z M176.1,409.4L176.1,409.4L176.1,409.4L176.1,409.4z"/>
		<path fill="#D2003C" d="M333.9,397.4c2.1-0.1,4.2-0.2,5.7-1.8c1.8-2.7,3.4-5.7,4.9-8.7c1.3-2.6,1.3-5.3,0-7.2
			c-3.8-6.1-4.6-7.7-5.9-11.8v-0.1h-0.1c-0.6-0.1-0.9-0.2-1.3-0.6c-1-0.6-1.8-0.8-3.1-0.8h-0.1c-1.3,0-2.2,0.6-2.6,1.1l-0.1,0.1
			l7,13.7c0.6,1,1,2.1,0.8,3.8c-0.2,1.6-3.8,7-4.7,7.7c-0.2,0.1-0.6,0.2-0.6,0.2c-0.1,0-0.6-0.1-0.1-0.9c0.8-2.2,1.6-7.3,1.3-8.9
			c-0.2-1.8-5.9-11.7-6.3-11.9l-0.1-0.1c-0.9-1.6-1.8-2.9-1.8-4.8c0-0.9,0.8-1.3,1.3-1.6c1-0.6,2.1-0.6,2.9-0.8
			c2.4-0.6,4.9-1.1,5.9-2.4c2.7-4.2,4.4-8.7,5.6-14.8c0-0.2,0.1-0.8,0.6-0.8c0.1,0,0.6,0.1,0.6,0.6c1,5.7-0.6,11.8-3.8,16.6
			c-0.1,0.2-0.6,0.9-0.2,1.3c0.1,0.6,0.8,0.9,0.8,0.9c1.3,0.9,6.3,0.6,9.7-1.6c2.6,0.1,5.3-0.6,7.7-0.9c0.8-0.1,1.6-0.2,2.3-0.6
			c0.2,0.1,0.6,0.6,0.6,0.6c-2.1,2.3-3.3,4.9-4,8.2c-0.6,0.6-1.3,1.1-1.8,1.8c-2.3,2.1-4.7,4.4-4.8,7.3c0,0-0.1,1,1,1.1
			c0.6,0,0.8-0.1,1.1-0.2c0.6-0.1,0.9-0.6,1.1-0.2c0.6,0.1,0.8,0.6,0.8,0.8l-2.6,3.8c-1,1.6-0.6,3.2-0.1,4.9
			c0.2,0.9,0.1,1.6,0.6,2.3c0.8,1.8,2.9,2.7,4.8,2.7c3.3-0.1,6.3-1.3,9.3-2.3c0.6-0.1,1-0.6,1.6-0.6c3.2-1.6,7.7-1.8,12.7-0.9
			c4-0.2,7.2-2.9,10.3-5.7c1.3,0,2.6,0.8,4,2.3c4.6,4.8,9.8,7.1,16.8,7.1c0.2,0,0.6,0,0.8,0l0.8-0.1c0.8-0.1,0.9-0.6,1-1
			c0-0.6-0.6-1-1.1-1.6l-3.8-2.1c-3.1-1.8-6.3-4.4-7.2-7.3c-1-3.2-2.9-6.6-4.2-8.9c-0.2-0.6-0.6-0.9-0.9-1.3c-0.6-0.8-1-1.6-1.6-2.3
			l0,0c4.2,1.6,6.6,4.7,9.3,9.6c2.1,3.8,7.7,8,12.7,8c0.8,0,1.3-0.1,2.1-0.1c0.6-0.1,1-0.6,1-1c0.1-0.6,0-0.9-0.6-1
			c-1.6-0.8-3.2-1.6-3.2-1.6c-3.8-2.2-5.8-5.7-8-9.2c-0.9-1.3-1.6-2.7-2.6-4c-0.6-0.9-1.6-1.8-2.4-2.6c-0.8-0.8-1.6-1.3-1.6-1.8
			c-3.3-9.3-7.1-20-8-32c-0.1-1.8-1.6-5.8-2.9-8.4c-4.8-7.9-16.2-21.2-16.8-21.8c-0.6-0.6-0.9-0.9-1.3-1.3l-0.2-0.2l-20.9-17.1
			c-4-2.9-5.3-3.4-8.2-4.6c-1.8-0.8-4-1-6.6-1c-2.9,0-5.8,0.6-8.2,1.6c-1.6,0.9-3.2,1.8-4.8,2.9c-2.6,1.8-5.3,3.4-8.2,4.4
			c-2.3,1-4.8,1.8-7.1,2.6c-4.7,1.6-9.6,2.9-13.4,6.6c-1.1,1-2.1,1.8-2.7,2.6c-3.4,3.3-3.9,3.8-6.9,3.8c-6.6,0-11.4,1.6-16.4,5.7
			c-3.9,3.4-7.9,6.9-12.4,8.4c-2.1,0.8-4.4,1-6.6,1.3c-3.4,0.2-3.9,0.6-7.2,1.1c-4.9,1.1-10.2,5-14.4,8.7c-1.6,1.1-3.3,2.6-4.4,3.2
			c-0.6,0.2-1,0.8-1.6,1c-5.3,3.2-10.6,6.3-17,6.3c-0.1,0-0.6,0-0.6,0c-4.9-0.6-9.4-3.8-10.9-8.2c-1.3-5,0.1-10.3,4-14.2
			c1.8-1.8,4-3.8,6.1-5.6c3.3-2.9,6.6-5.7,8.7-8.7c2.6-3.4,2.3-9.3-0.6-12.4c-2.9-3.2-9.3-4.8-11.8-5.3l-0.6-0.1
			c-0.1-0.1-0.8-0.1-0.9-0.1c-1.6-0.2-2.9-0.6-4.6-0.9c-3.8-1-6.9-4-10.2-5.8c-1.3,2.1-1.8,4.2-1.6,6.6c0.8,5,4.9,10.4,9.6,12.7
			c0.1,0.1,0.6,0.1,0.6,0.1c1.6,0.8,3.1,0.8,4.7,0.8c0.2,0,0.8,0,1,0c0.2,0,0.8,0,1,0c1,0,2.1,0,2.9,0.2c1,0.1,1.8,1.1,2.1,2.3
			c0.1,0.8-0.1,1.3-1,1.8c-0.8,0.8-1.6,1.3-2.3,2.1c-4,3.3-8.2,6.9-11.8,11c-4.7,4.9-4.8,13.4-2.6,19.1c2.7,7.3,10.3,11.4,16.6,12.1
			c1.1,0.1,2.2,0.2,3.4,0.2c3.8,0,7.2-0.9,10.6-1.8c0.1,0,0.1-0.1,0.2-0.1s0.6,0,0.6,0.8c0.1,1.6,0.1,3.2,0.2,4.9
			c0.1,2.6,0.1,5.3,0.6,6.3c0.6,2.3,1.6,5.3,2.4,7.2c0.6,0.9,0.6,1.6,0.8,1.8c0.2,1.1,0,2.3-0.8,2.9c-2.6,2.3-7.9,4.4-8.7,4.4
			c-1.6,0.1-3.2,0.2-4.4,0.6c-0.6,0-1,0.1-1.3,0.1c-0.6,0.1-1,0.2-1.6,0.8c-0.8,0.8-1.6,2.7-2.4,5c-0.6,1.6-1.1,2.9-1.8,4.2
			c-1.6,2.7-4.4,4.4-7.1,5.9c-0.8,0.6-1.3,0.8-2.1,1.1l-0.1,0.1c-1,1.8-2.2,3.4-3.7,4.7c-1,1-2.4,1.3-3.9,1.6h-0.1l-0.1,0.1
			c-2.1,2.3-2.7,5.6-3.4,8.7c-0.1,0.6-0.1,1-0.2,1.6l-0.1,0.6h0.2c1,0.1,2.2,0.6,3.3,0.6c1.6,0.6,3.2,0.8,4.7,0.8
			c1.6,0,2.7-0.2,3.9-1c2.1-1,3.1-2.7,4-4.6c0.8-1.1,1.3-2.3,2.3-3.3c0.6-0.6,1.3-1,2.1-1s1.6,0.1,2.4,0.6c0.8,0.1,1.6,0.6,2.3,0.6
			c3.8,0.1,7.1-2.1,8.9-3.4c0.8-0.6,1.6-1.3,2.2-1.8c1.1-1,2.3-2.1,3.4-2.9c1.6-0.8,3.3-1,5.6-1c2.7,0,5.7,0.6,8,1
			c1.3,0.2,2.6,0.6,3.8,0.6c2.2,0,4.4-0.6,5.9-1.6c2.1-1.1,4-2.3,5.7-3.2c1-0.6,1.8-1,2.4-1.3c2.9-1.6,5.3-6.1,6.3-8
			c0.9-1.8,2.3-5.3,2.3-5.6l0.1-0.1l-3.4-2.6l-0.1,0.1c0,0-2.3,3.8-3.8,5.3c-5.9,8.2-16,9.3-23.8,9.3c-0.6,0-1,0-1.6,0
			c-9.8,0-17.7,3.3-23.6,9.7c-0.2,0.2-0.8,0.6-1,0.1c-0.1-0.1-0.1-0.6-0.1-0.8c0.1-0.8,0.1-0.9,0.8-1.6c6.1-8.7,16.6-10,24.9-10.2
			c6.3-0.6,10.7-1.6,14.8-3.4c5-2.6,8.7-8.2,10.3-12.8c1-2.9,1.6-6.1,1.8-9.2c0.6-2.3,0.8-4.9,1.3-7.2c0.1-0.2,0.6-0.6,0.8-0.6
			c0.1,0,0.1,0,0.2,0.1c0.2,0.1,1,0.2,1,0.8c-0.9,4.8-2.1,11.3,0.1,16.8c1,2.2,3.2,3.2,6.6,3.2c2.1,0,4.4-0.6,6.6-0.8
			c1.8-0.2,3.3-0.6,4.7-0.6c0.6,0,1.1-0.1,1.8-0.1c2.7,0,5.3,0.6,8,1c2.3,0.6,4.7,1,7,1c0.6,0,0.9,0.1,1.3,0.1
			c0.9,0.1,1.8,0.1,2.6,0.1c2.1,0,3.4-0.6,4.6-1.3c0.8-0.6,0.6-1.6,0.1-2.6L302,369c-0.1-0.1-0.1-0.6-0.1-0.8
			c-0.6-1.6-1.1-3.8,0-4.8c0.1-0.1,0.6-0.1,0.8-0.1c0.1,0,0.6,0.1,0.6,0.6c0.1,0.6,0.2,0.9,0.6,1.3c0.6,1.8,1,3.7,2.2,5.3
			c2.3,3.1,6.1,5.9,10.7,8.4c2.9,2.1,6.6,5.6,6.9,10.3c0,2.2-2.1,3.8-3.8,4.7c-2.4,1.3-6.9,2.6-8.7,2.6c-0.6,0-0.8-0.1-0.8-0.1
			c-2.9-1.6-4.4-4-5.9-6.6c-0.9-1.6-1.8-2.9-2.7-4c-1.6-1.8-3.4-2.3-5.9-2.1c-2.4,0.1-4.8,0.8-7.3,1.3c-0.6,0.1-1,0.6-1.3,1
			c-0.1,0.6-0.1,1.1,0.1,1.8c1.6,2.4,2.7,4.8,4.2,7.1l0.8,1c0.6,0.6,1,0.8,1.8,0.8c0.2,0,0.8,0,1,0c0.2,0,0.9-0.1,1.3-0.1
			c1.3,0,2.1,0.2,2.6,1c0.6,0.8,0.9,1.3,1.3,2.1c1,1.8,1.8,3.4,3.4,4.7c1.6,1.3,3.7,2.1,5.8,2.1c1,0,1.8-0.1,2.9-0.6
			c6.6-2.1,12.8-4,18.8-7.3C330.5,397.4,333.2,397.4,333.9,397.4z M344.7,324.8c-0.1,0.6-0.6,0.8-0.8,0.8c-0.1,0-0.6-0.1-0.6-0.6
			c-1-5.6-1.8-8.2-2.9-10.7c-0.6-0.9-1-1.6-1.3-2.1c-1-1.3-1.8-2.3-0.9-3.8c0.2-0.6,1-0.8,1.6-0.8s0.8,0.1,1,0.1
			c1,0.6,2.1,1.8,3.2,3.9C346.9,317.1,344.7,324.8,344.7,324.8z M379.4,379.7c0,0-0.1,1.6-0.9,2.2c-0.8,0.8-3.3,1-4.8,1
			c-1.6-0.1-1.8-0.2-2.1-0.8c-0.2-0.6,0.1-1.6,0.1-1.6c0.1-0.6,1.8-3.8,5-4.7c0,0,1-0.6,2.1,0.1
			C379.8,376.9,379.4,379.4,379.4,379.7z M388.9,358.1c-0.1,1.3-0.6,1.8-0.8,2.2c-0.1,0.2-0.6,1-1.6,1s-1-1.3-1-1.3
			s-0.1-3.4-0.8-4.9c-0.8-1.6-4-5.9-6.1-5.7c-0.6,0.1-1.8,0.9-2.7,2.1c-1.1,1.6-1.1,1.8-1.6,1.8c-0.6,0.1-0.9,0.1-1-0.8
			c-0.1-0.9-0.2-1.6,0.1-3.3c0.3-1.8,0.9-2.1,1.3-3.2c0,0,1-2.3,1.6-2.9c1-1.6,2.4-1.6,2.4-1.6c0.6,0,1.6-0.1,2.9,1.6
			c1.6,1.8,1.1,1.8,1.6,2.3c0.6,0.8,0.9,1.3,2.1,2.7c1.3,1.3,2.6,4,3.1,5.7C389,355.4,389,356.7,388.9,358.1z"/>
	</g>
</g>
</svg>
