<?xml version="1.0" encoding="utf-8"?>
<!-- Generator: Adobe Illustrator 27.2.0, SVG Export Plug-In . SVG Version: 6.00 Build 0)  -->
<svg version="1.2" baseProfile="tiny-ps" id="Layer_1" xmlns="http://www.w3.org/2000/svg" xmlns:xlink="http://www.w3.org/1999/xlink"
	 viewBox="0 0 200 200" xml:space="preserve">
<title> MUBI </title>
<rect fill="#FFFFFF" width="200" height="200"/>
<g>
	<path d="M100,76.75c-8.2,0-14.85-6.65-14.85-14.85c0-8.2,6.65-14.85,14.85-14.85c8.2,0,14.85,6.65,14.85,14.85
		C114.85,70.11,108.2,76.75,100,76.75"/>
	<path d="M100,114.85c-8.2,0-14.85-6.65-14.85-14.85c0-8.2,6.65-14.85,14.85-14.85c8.2,0,14.85,6.65,14.85,14.85
		C114.85,108.2,108.2,114.85,100,114.85"/>
	<path d="M138.24,114.85c-8.2,0-14.85-6.65-14.85-14.85c0-8.2,6.65-14.85,14.85-14.85c8.2,0,14.85,6.65,14.85,14.85
		C153.08,108.2,146.44,114.85,138.24,114.85"/>
	<path d="M100,152.94c-8.2,0-14.85-6.65-14.85-14.85s6.65-14.85,14.85-14.85c8.2,0,14.85,6.65,14.85,14.85S108.2,152.94,100,152.94"
		/>
	<path d="M61.76,152.94c-8.2,0-14.85-6.65-14.85-14.85s6.65-14.85,14.85-14.85c8.2,0,14.85,6.65,14.85,14.85
		S69.97,152.94,61.76,152.94"/>
	<path d="M61.76,76.75c-8.2,0-14.85-6.65-14.85-14.85c0-8.2,6.65-14.85,14.85-14.85c8.2,0,14.85,6.65,14.85,14.85
		C76.61,70.11,69.97,76.75,61.76,76.75"/>
	<path d="M61.76,114.85c-8.2,0-14.85-6.65-14.85-14.85c0-8.2,6.65-14.85,14.85-14.85c8.2,0,14.85,6.65,14.85,14.85
		C76.61,108.2,69.97,114.85,61.76,114.85"/>
</g>
</svg>
