<?xml version="1.0" encoding="UTF-8" standalone="yes"?>
<svg version="1.2" width="369.524" height="369.524" xml:space="preserve" baseProfile="tiny-ps" xmlns="http://www.w3.org/2000/svg">
  <title>bimi-svg-tiny-12-ps</title>
  <defs id="defs146"/>
  <path d="m 68.272951,224.15187 c -4.65919,-0.50947 -9.0229,-1.64245 -13.96924,-3.62693 -18.077886,-7.25288 -27.445103,-21.13802 -25.49176,-37.78676 1.054081,-8.98414 4.340484,-15.70266 10.949432,-22.38432 8.587398,-8.68189 18.791708,-13.74422 33.101698,-16.42165 4.47699,-0.83765 17.35482,-1.18573 23.30608,-0.62995 5.423159,0.50647 12.736369,2.61771 15.502339,4.47536 2.97739,1.99964 5.00959,5.4083 5.00959,8.40272 0,1.27307 -0.13403,1.58332 -0.60578,1.40229 -1.15622,-0.44369 -7.42562,-1.04439 -13.34233,-1.2784 -7.072779,-0.27974 -10.917809,0.27129 -17.233849,2.46975 -10.44484,3.63561 -16.64625,8.18847 -20.94466,15.37684 -3.97562,6.64855 -4.42847,17.98683 -1.00422,25.14338 6.25694,13.07677 26.7408,19.66485 44.667029,14.36595 0.74859,-0.22128 0.74859,-0.19549 0,1.09972 -2.00408,3.4675 -8.392549,6.77155 -16.765859,8.67113 -4.27628,0.97013 -17.21806,1.37263 -23.17847,0.72087 z" id="path108" fill="#c8102e" fill-opacity="1" stroke-width="0.41023842"/>
  <path d="m 205.23678,222.72274 c -2.2002,-0.67742 -7.7315,-4.22518 -12.45646,-7.98955 -4.98872,-3.9745 -9.42377,-8.58129 -14.79386,-15.36669 -5.57315,-7.042 -12.06171,-13.77137 -15.37471,-15.94532 -4.45028,-2.92022 -11.22886,-4.50314 -15.34204,-3.58265 -4.75016,1.06304 -12.25469,7.60936 -19.27927,16.8176 -4.84841,6.3556 -8.36431,9.97744 -10.57826,10.897 -1.48568,0.61707 -3.60276,0.85826 -3.60276,0.41044 0,-0.12268 1.94537,-6.10097 4.32306,-13.28509 6.74062,-20.36663 11.14835,-28.37805 20.86499,-37.92395 4.79913,-4.71481 5.77012,-5.46937 9.06686,-7.04594 4.77007,-2.28115 8.23412,-3.17759 12.30716,-3.18492 8.48744,-0.0153 14.22432,2.95001 23.17847,11.98043 4.08167,4.11644 5.67206,6.07234 7.79453,9.5859 9.68793,16.03754 15.19178,23.0425 19.9421,25.38107 2.40612,1.18453 2.85439,1.26915 5.7938,1.09362 3.2123,-0.19182 5.36828,-0.97799 7.98256,-2.91081 3.4018,-2.51506 9.56108,-14.66593 13.97691,-27.57327 1.16906,-3.41715 1.42638,-3.85384 2.14859,-3.64649 4.00949,1.15115 5.0488,11.11296 2.30699,22.1126 -5.08496,20.39996 -12.98639,33.9994 -22.40867,38.56838 -4.52852,2.19594 -11.60725,2.91392 -15.84999,1.60764 z" id="path110" fill="#c8102e" fill-opacity="1" stroke-width="0.41023842"/>
  <path d="m 310.55857,225.98825 c -6.72745,-1.21488 -14.76594,-4.49749 -21.06038,-8.60026 -5.06366,-3.30053 -9.04379,-6.60632 -14.26314,-11.84661 -4.71755,-4.73647 -6.66,-7.65379 -7.60953,-11.42861 -0.4791,-1.90461 -0.45734,-2.01217 0.63864,-3.15612 0.68764,-0.71774 2.84281,-1.87084 5.47058,-2.92695 7.38485,-2.96801 12.61583,-7.12661 15.44516,-12.27883 1.09247,-1.98938 1.22293,-2.60479 1.21184,-5.71642 -0.0165,-4.62501 -1.04131,-6.98453 -4.3736,-10.06964 -7.47803,-6.92333 -21.00483,-9.32235 -39.59915,-7.02301 -2.38027,0.29434 -4.20494,0.35976 -4.20494,0.15075 0,-0.98465 1.45327,-3.23215 2.70956,-4.19036 8.01517,-6.11347 29.77412,-7.79294 50.41632,-3.89141 9.35265,1.76773 13.97312,3.89871 18.66584,8.60876 3.3808,3.39327 5.81917,7.19528 6.84409,10.67158 0.56437,1.91421 0.59208,2.6859 0.18276,5.08968 -0.75022,4.40585 -2.55849,7.72396 -6.1666,11.31547 -2.74464,2.73202 -3.86315,3.48297 -9.37269,6.29271 -3.44088,1.75476 -6.25614,3.29864 -6.25614,3.43083 0,0.13219 0.99886,1.46085 2.21968,2.95257 3.33818,4.07891 11.47005,11.84454 15.5327,14.83315 4.4719,3.28966 14.0701,9.33584 19.8053,12.47593 2.38022,1.3032 4.25615,2.44099 4.16872,2.52841 -0.51745,0.51745 -6.51921,2.28689 -9.54904,2.81525 -4.5702,0.79698 -16.35389,0.77615 -20.85598,-0.0369 z" id="path112" fill="#c8102e" fill-opacity="1" stroke-width="0.41023842"/>
</svg>