<?xml version="1.0"?><svg version="1.2" baseProfile="tiny-ps" viewBox="0 0 300 300" xmlns="http://www.w3.org/2000/svg" xmlns:xlink="http://www.w3.org/1999/xlink"><title>ASTNTYour Brand/Organization</title><g><g fill="#fff" transform="matrix(.1 0 0 -.1 0 300)"><path d="M0 1500V0h3000v3000H0V1500z"/></g><g fill="#dedede" transform="matrix(.1 0 0 -.1 0 300)"><path d="M0 1500V0h3000v3000H0V1500zm1229 172c40-20 45-30 27-55l-13-17-29 15-29 15h-33c-18 0-42-5-53-10l-19-11v-47l13-10c6-5 41-17 77-26l65-16 28-30 27-30v-75l-20-32-19-32-38-10c-71-20-143-7-190 34l-28 24 21 22 22 21 29-22 30-21 42-6 41-6 20 18 20 18v47l-22 14c-13 7-46 19-73 25l-51 12-28 22-27 22-5 40-5 40 13 25 13 25 35 17 35 18h90l34-18zm-331-175c34-101 62-186 62-190s-15-7-34-7h-34l-14 43-15 42-80 3-80 3-13-46-13-45h-33c-19 0-34 3-34 7 0 9 119 353 126 364l5 9h94l63-183zm732 158v-25h-110v-330h-70v330h-120v50h300v-25zm236-100c42-69 81-125 86-125h8v250h60v-381l-37 3-37 3-80 132c-45 73-84 133-88 133h-8v-270h-70v380h88l78-125zm524 100v-25h-110v-330h-70v330h-110v50h290v-25zm-1615-56c-18-50-45-133-45-141v-8h110v8c0 15-43 137-51 146l-8 9-6-14z"/></g><g fill="#b2b2b2" transform="matrix(.1 0 0 -.1 0 300)"><path d="M0 1500V0h3000v3000H0V1500zm900-7 67-193h-75l-14 43-15 42H707l-14-42-15-43h-68v9c0 8 93 283 121 359l9 23 47-3 47-3 66-192zm334 183c19-8 36-18 39-23l5-9-17-23-18-23-31 16-31 16h-70l-15-16c-19-19-21-48-3-61 6-6 37-16 67-23 106-24 130-47 130-122v-44l-16-23-17-23-33-14-33-14h-82l-36 15c-37 16-73 43-73 54 1 3 9 16 20 29l19 23 27-25 28-25 38-6 39-7 24 16 25 16v50l-22 14c-13 7-48 19-78 26l-55 13-27 28-28 27v37c0 47 14 71 53 95l32 20h106l33-14zm396-16v-30h-110v-330h-70l-2 163-3 162-57 3-58 3v59h300v-30zm234-99 80-130 8 5 8 5v250l33-3 32-3 3-192 2-193h-42l-43 1-79 130c-44 71-83 132-88 135l-8 5v-271h-70v390h85l79-129zm526 100v-30l-52-3-53-3-3-162-2-163h-70l-2 163-3 162-57 3-58 3v59h300v-29zm-1613-58c-5-8-47-142-47-149 0-2 25-4 56-4h56l-4 13c-3 6-15 42-27 80-23 67-26 73-34 60z"/></g><g fill="#878787" transform="matrix(.1 0 0 -.1 0 300)"><path d="M0 1500V0h3000v3000H0V1500zm899 2c35-103 66-193 69-199l4-13h-80l-17 50-17 51-76-3-76-3-15-47-15-48h-38c-21 0-38 1-38 3 0 5 131 381 136 388l5 9h94l64-188zm349 168 33-20-11-21c-6-11-17-22-24-25l-12-5-30 16c-16 8-41 15-55 15h-27l-22-18-23-18 7-22 7-22 42-11c23-6 61-18 85-26l43-15 16-24 16-25v-81l-20-26c-11-15-31-33-44-39l-24-13h-106l-32 14c-18 7-40 22-50 34l-19 20 17 26c21 31 27 32 50 6l18-20 38-10 37-10 25 9 25 10 7 20 6 20-10 20-11 19-52 12c-67 16-103 34-122 62l-16 22v73l21 27c28 36 52 45 124 45l60 1 33-20zm382-15v-35h-110v-331l-37 3-38 3-3 163-2 162h-110v70h300v-35zm235-93 80-127 5 125 5 125 38 3 37 3-2-198-3-198-37-3-36-3-84 135c-45 75-86 136-90 136h-8v-270h-70v400h85l80-128zm530 93v-30l-57-3-58-3v-329h-70v330h-120v71l153-3 152-3v-30zM760 1543c-13-37-25-74-28-80l-4-13h110l-23 76c-13 42-26 78-28 80-3 3-15-25-27-63z"/></g><g fill="#4d4d4d" transform="matrix(.1 0 0 -.1 0 300)"><path d="M0 1500V0h3000v3000H0V1500zm1245 171c34-20 36-27 14-58l-15-22-43 21-42 21-31-9-31-9-11-17-10-17 17-19 18-20 60-11 60-12 30-27 30-27 5-36 6-36-16-35-16-34-29-17-29-17h-118l-44 23-45 22-3 21-3 20 20 18 20 18 31-26 32-26h41c60 0 72 11 68 62l-1 16-32 11c-18 5-52 15-74 20l-41 11-27 26-26 27v44c0 24 5 53 10 63 29 55 153 71 225 31zm-342-175c37-107 67-197 67-200s-18-6-39-6h-39l-14 43-15 42H707l-14-42-15-43h-80l4 13c3 6 33 96 69 200l64 187h102l66-194zm735 162-3-33-57-3-58-3v-329h-80v330h-110v70h311l-3-32zm229-95 78-126 3 126 3 127h79v-401l-42 3-42 3-80 132c-45 73-84 133-88 133h-8v-270h-70v400h88l79-127zm533 92v-35h-120v-331l-37 3-38 3-3 163-2 162h-110v70h310v-35zm-1625-66c-2-8-13-42-24-76l-19-63h107l-25 72c-27 79-31 87-39 67z"/></g><g fill="#010101" transform="matrix(.1 0 0 -.1 0 300)"><path d="M0 1500V0h3000v3000H0V1500zm1249 176 31-17v-12c0-6-9-23-19-36l-18-23-26 16-25 17-49-3-48-3-3-27-3-27 18-9c10-6 36-13 58-17s56-16 76-26l35-17 12-27c16-35 15-80-3-115l-15-30-28-13c-15-8-40-17-56-21l-28-7-55 11-55 12-31 28-32 29 26 26 26 26 38-25 38-26h73l12 12c16 16 15 53 0 65-7 6-35 15-62 22s-62 19-77 27l-29 14-15 30c-8 16-15 40-15 53v24l23 34 23 34 34 13 35 12 51-4 52-4 31-16zm-396-28c63-181 117-342 117-350v-9l-42 3-41 3-15 43-14 42H712l-14-42-15-43-43-3-42-3 6 24c3 14 33 104 67 201l61 176h106l15-42zm787 7v-35h-120v-330h-80v330h-110v70h310v-35zm229-92 76-122 3 125 3 124h79v-400h-85l-80 132-80 132-3-132-3-132h-89v401l52-3 51-3 76-122zm531 92v-35h-110v-330h-90v330h-110v70h310v-35zM762 1540c-12-35-22-70-22-77v-13h90v8c0 4-10 39-23 77l-24 69-21-64z"/></g></g></svg>