<?xml version="1.0" encoding="utf-8"?>
<!-- Generator: Adobe Illustrator 28.2.0, SVG Export Plug-In . SVG Version: 6.00 Build 0)  -->
<svg version="1.2" baseProfile="tiny-ps" id="Camada_1"
	 xmlns="http://www.w3.org/2000/svg" xmlns:xlink="http://www.w3.org/1999/xlink" viewBox="0 0 50 50" xml:space="preserve">
<title>FanFever</title>
<rect x="0.2" y="0.2" fill="#FFFFFF" width="49.7" height="49.7"/>
<g>
	<path fill="#FF6D69" d="M37.2,6.5C37.2,6.5,37.2,6.5,37.2,6.5C37.2,6.5,37.1,6.4,37.2,6.5C37.1,6.4,37,6.4,37,6.4c0,0,0,0,0,0
		c0,0,0,0,0,0c0,0,0,0,0,0c-5,4.2-11.4,4.5-17.2,7.7c0,0,0,0,0,0c-3.6,2-6.3,5.3-6.8,9.4c-0.3,2.1-0.1,3.7-0.1,3.9c0,0,0,0,0,0
		c0,0.1,0.2,0.2,0.3,0.1c0,0,0,0,0,0c4.7-5.2,11.5-6.2,17.3-8.6C40.3,14.9,37.6,7.6,37.2,6.5z"/>
	<path fill="#FF6D69" d="M34.3,19.3c-0.9,0.6-1.9,1.1-2.8,1.7c-2.1,1.1-4.4,1.9-6.6,2.6c-1.6,0.5-3.2,1.1-4.7,1.7
		c-1.1,0.5-4.2,2.1-5.9,4.3c-1.3,1.5-2,3.4-2,5.4v0c0,0.5,0,0.9,0.1,1.4c0.2,1.1,0.6,2.1,1.2,3c0,0,0,0.1,0.1,0.1
		c0.2,0.2,0.3,0.5,0.5,0.7c1.5,1.9,3.8,3.1,6.4,3.1c1.4,0,2.8-0.4,4-1.1c0,0,1.1-0.6,1.5-1c1.2-1.2,2.2-2.6,2.6-4.3
		c0-0.1,0.1-0.3,0.1-0.4c0.1-0.5,0.2-1.7,0-2.8c0-0.3-0.1-0.3-0.2-0.3h0c-0.9,0-1.8,0.3-2.7,0.6c-0.7,0.3-1.3,0.6-1.9,1.1
		c-0.3,0.2-0.7,0.5-0.9,0.8l0.5,3.1c0,0.1-0.1,0.2-0.2,0.2l-2.8-1.4l-2.8,1.4c-0.1,0.1-0.2,0-0.2-0.2l0.5-3.1l-2.2-2.2
		c-0.1-0.1,0-0.2,0.1-0.3l3.1-0.4l1.4-2.8c0.1-0.1,0.2-0.1,0.3,0l1.4,2.7c1.6-0.7,3.7-1.4,5.6-2.1c1.3-0.5,2.6-1,3.6-1.7
		C36.7,25.7,34.9,20.4,34.3,19.3z"/>
</g>
</svg>
