<?xml version="1.0" encoding="UTF-8" standalone="yes"?>
<svg fill-rule="evenodd" stroke-linejoin="round" stroke-miterlimit="2" version="1.2" viewBox="0 0 200 200" xml:space="preserve" baseProfile="tiny-ps" xmlns="http://www.w3.org/2000/svg">
  <title>bimi-svg-tiny-12-ps</title>
  <g>
    <rect width="200" height="200" fill="#fff"/>
    <g fill="#090a0b">
      <path d="m30.763 88.193c7.729-0.133 14.106 6.026 14.234 13.76 0.267 15.464 6.772 29.353 17.075 39.315 10.303 9.957 24.409 15.982 39.874 15.72 15.464-0.261 29.358-6.766 39.315-17.069 9.963-10.302 15.988-24.408 15.727-39.872-0.262-15.464-6.767-29.358-17.07-39.315-10.303-9.962-24.414-15.987-39.879-15.725-7.73 0.133-14.101-6.031-14.235-13.76-0.133-7.73 6.031-14.106 13.761-14.235 23.189-0.395 44.349 8.649 59.808 23.589 15.46 14.941 25.219 35.778 25.615 58.967 0.395 23.193-8.654 44.352-23.595 59.806-14.941 15.459-35.779 25.218-58.968 25.614-23.195 0.395-44.354-8.654-59.808-23.589-15.46-14.941-25.22-35.783-25.615-58.972-0.133-7.729 6.031-14.105 13.761-14.234z"/>
      <path d="m38.854 39.241c6.115-6.33 16.201-6.5 22.531-0.385 6.324 6.115 6.494 16.201 0.379 22.526-6.114 6.325-16.196 6.499-22.525 0.385-6.325-6.115-6.5-16.202-0.385-22.526"/>
    </g>
  </g>
</svg>