<?xml version="1.0" encoding="UTF-8" standalone="yes"?>
<svg baseProfile="tiny-ps" version="1.2" viewBox="0 0 180 180" xmlns="http://www.w3.org/2000/svg">
  <title>bimi-svg-tiny-12-ps</title>
  <g id="Layer_2">
    <rect y=".5" width="180" height="180" fill="#fff"/>
  </g>
  <g id="Layer_11">
    <path d="M138.3,93.3c-1.9-1.1-3.9-2.1-5.8-3.3-1.4-.8-4.4-2.6-7.6-4.5s-6.6-4-8.1-4.8c-2-1.2-4.1-2.3-6.1-3.4-1.6-.9-3.1-1.7-4.7-2.6-.8-.4-1.5-.9-2.3-1.4-.6-.4-1.2-.8-1.9-1.2-1.4-.8-2.8-1.6-4.1-2.3-.3,0-.5-.3-.8-.4l-19,14.2c.4.3.7.6,1,.9s.9.8,1.9,1.6c.7.5,1.5,1.3,2.5,2.1,1,.9,2.1,1.8,3.1,2.6,2.1,1.7,2.9,2.3,4.7,3.5,1.7,1.2,4.7,2.9,4.1,4.2-.7,1.4-5.6-.2-5.6-.2-1.9-.8-5.6-2.8-7-3.9-1.9-1.4-2.9-2.1-4.2-2.9-.7-.5-1.5-1-2.5-1.7-3.2-2.2-5.3-3.8-7.7-5.5-1.5-1.2-3.2-2.4-5.2-3.8-1.4-1-2.1-1.2-3.8.2-5.7,4.7-18.2,13.3-24.7,17.4-.3.2-.7.4-1,.6l7,7.1c.2,0,.4,0,.6,0,.8,0,1.5-.3,2.3-.3,1.1,0,2.3,0,3.5,0,1.7,0,3.4,0,5.2,0,2.1-.2,4.2-.2,6.2-.3h2.9c4.2,0,17.2-.2,21.7-.2s3.1,0,4.6,0h.2c1.8,0,3.3,0,4.6,0,5.1,0,10.3,0,15.7-.2h3c2.6,0,6.2,0,7.2,0,2.1,0,4.3-.2,6.4-.2s3.4,0,4.9.2c.6,0,1.6,0,2.6,0h2c.9,0,1.5,0,2.2,0,.9,0,1.8,0,3,0h1.2l6.6-6.6c-1-.6-2-1.2-3-1.8-2-1.1-3.9-2.1-5.8-3.2" fill="#f2633a"/>
    <path d="M91.9,27.9c-1.1-1.1-2.9-1.1-4,0l-60.6,60.7c-.5.5-.8,1.2-.8,2s.3,1.5.8,2l1.4,1.4c4-2.2,14.9-10.2,19.1-13.3,1.1-.8,1.8-1.3,2.1-1.5,1.4-1,2.8-2.1,4.2-3.1,1.5-1.2,3.2-2.4,4.8-3.5,1-.7,2.6-.9,3.7-.5,1.3.5,2.3,1.3,3.4,2.2l.3.2c1.3,1,2.7,2.1,4,3.2l1,.8h0c.2.2.4.3.6.5s.2.2.3.2c0,0,0,0,.2,0,3.4-2.6,7-5.2,10.4-7.7,2-1.5,4.1-3,6.1-4.5.6-.4,1.1-.8,1.6-1.3.6-.5,1.2-1,1.9-1.5,2.6-1.9,5.1-2.1,7.6-.7,2.7,1.6,5.4,3.1,8.1,4.7,4.1,2.4,8.3,4.8,12.5,7.2,2.2,1.3,7.6,4.3,11.8,6.7,2.1,1.2,4,2.3,5.1,2.9.8.5,1.6,1,2.4,1.5.6.4,1.2.8,1.8,1.1,2,1.2,4.1,2.4,6.1,3.6,1.4.8,2.7,1.6,4.1,2.4l.7-.7c.5-.5.8-1.2.8-2s-.3-1.5-.8-2l-60.7-60.9Z" fill="#f2633a"/>
    <path d="M101.8,125.4c-.3.3-.7.5-1.2.5h-1.2c-5.1,0-10.3,0-15.7.2-1.4,0-2.8,0-4.2.2h0c-.4,0-.8-.2-1.1-.4-.3-.3-.5-.7-.5-1.2,0-.9,0-1.8,0-2.7,0-.4.2-.9.5-1.2.3-.3.7-.5,1.2-.5,2,0,4.1,0,6.1,0h2.5c1.4,0,2.8,0,4.2,0,2.1,0,4.3,0,6.4,0h2.1c.9,0,1.6.7,1.6,1.6v2.7c.1.4,0,.8-.5,1.1M128.1,111.6c-5.4,0-16.3,0-21.7,0h-2.8c-1.4,0-2.7,0-4.1,0h0c-1.8,0-4.1,0-6.4,0s-4.5,0-6.7,0h-.3c-2.3,0-4.7,0-7.1,0-4.9,0-18.7,0-23.5.2-2.4,0-4.7.2-7,.3h0c-.3,0-.7,0-1,0l7.6,7.6c2.1,0,6.4,0,7.4,0,1.2,0,5.8.2,7.8.2s1.7.7,1.7,1.6v2.6h0v.3c0,.9-.7,1.6-1.6,1.7h-2.1c-.8,0-4,0-7-.2l27,27c.5.5,1.2.8,2,.8s1.5-.3,2-.8l26.7-26.7c-1.7,0-3.5,0-5.4,0h-3.3c-1.2,0-2.1-1-2.1-2.2s0-1.8,0-2.7c0-.6.2-1.2.6-1.6s1-.7,1.6-.7h2.1c1.3,0,2.2,0,3.9,0,3.2,0,6.4,0,9.7,0l7.6-7.6c-.8,0-1.5,0-1.8,0-1.4,0-2.5,0-3.5,0" fill="#f2633a"/>
  </g>
</svg>