<?xml version="1.0" encoding="utf-8"?>
<!-- Generator: Adobe Illustrator 26.5.0, SVG Export Plug-In . SVG Version: 6.00 Build 0)  -->
<svg version="1.2" baseProfile="tiny-ps" xmlns="http://www.w3.org/2000/svg" xmlns:xlink="http://www.w3.org/1999/xlink" viewBox="0 0 182.6 183.4" xml:space="preserve">
<title>BOSW Logo</title>
<g id="Tagline">
</g>
<g id="Logo">
	<g>
		<path fill="#005890" d="M23.8,69.6l0.9,0c1.1,0,1.1,1,0.6,2.3c-0.5,1.2-1.4,2-2.5,2l-0.9,0L23.8,69.6z M15.3,77.6l7.4,0
			c3,0,5.8-1.6,7.5-5.4c1.7-3.8-0.3-4.3-1.3-4.4l0-0.1c1.2-0.3,3.4-1.3,4.7-4.2c1.4-3.1,0.2-4.6-2.9-4.6l-7.1,0L15.3,77.6z
			 M26.9,62.7l0.7,0c1,0,1.2,0.6,0.7,1.8c-0.6,1.4-1.6,1.8-2.2,1.8l-0.7,0L26.9,62.7z"/>
		<path fill="#005890" d="M39.2,70.8l-2.2,0l4.5-7.6h0L39.2,70.8z M37.2,77.7l5.1,0L46.5,59l-6.2,0L27.8,77.7l5.1,0l1.8-2.8l3.3,0
			L37.2,77.7z"/>
		<polygon fill="#005890" points="59.1,59.1 63.8,59.1 55.5,77.7 50.2,77.7 52.6,66.2 52.5,66.2 47.4,77.7 42.9,77.7 51.2,59.1 
			56.6,59.1 54,70.5 54.1,70.5 		"/>
		<polygon fill="#005890" points="73.3,59.1 78.7,59.1 70.7,67.3 70.9,77.8 65.4,77.8 65.6,71.6 64.2,73 62.1,77.8 57.2,77.8 
			65.5,59.1 70.4,59.1 67.3,66.2 67.3,66.2 		"/>
		<path fill="#005890" d="M43.9,104.6c0.3-0.8,0.4-1.5-0.5-1.5c-0.7,0-1.4,0.6-1.8,1.4c-1.6,3.7,6.6,1.8,3.6,8.5
			c-1.9,4.3-4.6,6.1-9.2,6c-3.8,0-5.3-1.4-3.4-5.5l0.2-0.5l4.8,0l-0.4,0.9c-0.4,0.9-0.4,1.6,0.5,1.6c0.9,0,1.6-0.8,1.9-1.6
			c0.5-1.2,0.2-1.5-0.2-1.9c-0.5-0.4-1.2-0.8-1.9-1.2c-2-1.4-2.5-2.4-1.2-5.2c1.1-2.6,2.5-4,4-4.9c1.1-0.6,2.6-1.1,4.5-1.1
			c5,0,4.7,2.6,3.3,5.7l-4.6,0L43.9,104.6z"/>
		<path fill="#005890" d="M55.2,109.4c-2.4,5.5-3,6.2-4,6.2c-1.1,0-0.9-0.8,1.5-6.2c2.4-5.5,3-6.2,4-6.2
			C57.7,103.2,57.6,104,55.2,109.4 M47.6,109.4c-2.6,6-4.3,9.7,2,9.7c6.4,0,8-3.7,10.7-9.7c2.6-5.8,4.3-9.7-2-9.7
			C51.9,99.7,50.1,103.6,47.6,109.4"/>
		<path fill="#005890" d="M72.6,100.1l4.9,0l-5.5,12.3c-2,4.5-4.7,6.7-9.1,6.7c-4.8,0-5.2-2.1-3.1-6.7l5.5-12.3l4.9,0l-5.9,13.3
			c-0.7,1.6-0.8,2.2,0.1,2.2c0.9,0,1.4-0.7,2.1-2.2L72.6,100.1z"/>
		<polygon fill="#005890" points="78,100.1 89.6,100.2 87.7,104.6 84.3,104.6 78,118.8 73,118.8 79.4,104.5 76,104.5 		"/>
		<polygon fill="#005890" points="97.5,100.2 102.5,100.2 94.2,118.9 89.2,118.9 92.6,111.3 90.2,111.3 86.9,118.8 81.9,118.8 
			90.2,100.2 95.2,100.2 92.2,106.9 94.5,106.9 		"/>
		<polygon fill="#005890" points="117.8,100.3 122.5,100.3 111.3,118.9 106,118.9 110.1,106.4 110,106.4 103,118.9 97.6,118.9 
			103,100.2 107.8,100.2 103.1,113.5 103.2,113.5 110.6,100.3 115,100.3 110.8,113.5 110.9,113.5 		"/>
		<polygon fill="#005890" points="123,100.3 133.7,100.3 131.8,104.6 126.1,104.5 124.8,107.4 130.1,107.4 128.3,111.5 123,111.5 
			121.6,114.7 127.5,114.7 125.6,119 114.8,118.9 		"/>
		<path fill="#005890" d="M139.8,104.9c0.3-0.8,0.4-1.5-0.5-1.5c-0.7,0-1.4,0.7-1.8,1.4c-1.6,3.7,6.6,1.8,3.6,8.5
			c-1.9,4.3-4.6,6.1-9.2,6c-3.8,0-5.3-1.4-3.4-5.5l0.2-0.5l4.8,0l-0.4,0.9c-0.4,0.9-0.4,1.6,0.5,1.6c0.9,0,1.6-0.8,1.9-1.6
			c0.5-1.2,0.2-1.5-0.2-1.9c-0.5-0.4-1.2-0.8-1.9-1.2c-2-1.4-2.5-2.4-1.2-5.2c1.2-2.6,2.5-4,4-4.9c1.1-0.6,2.6-1.1,4.5-1.1
			c5,0,4.7,2.6,3.3,5.7l-4.6,0L139.8,104.9z"/>
		<polygon fill="#005890" points="147,100.4 158.7,100.4 156.7,104.8 153.4,104.8 147,119 142.1,119 148.4,104.8 145.1,104.8 		"/>
		<path fill="#005890" d="M43.8,86.1c0.7-1.6,1-2,1.4-2c0.4,0,0.3,0.4-0.4,2c-0.7,1.6-1,2-1.4,2C43,88.1,43.1,87.6,43.8,86.1
			 M45.8,82.6c-2.5,0-3.5,1.6-4.3,3.5c-0.8,1.9-1.3,3.5,1.2,3.5c2.5,0,3.5-1.6,4.3-3.5C47.9,84.2,48.3,82.6,45.8,82.6"/>
		<path fill="#005890" d="M49.5,82c0.5-1.2,1.3-1.5,2.6-1.5c0.3,0,0.9,0,1.1,0L52.6,82l-0.3,0c-0.5,0-0.6,0.2-0.7,0.5l-0.1,0.3
			l0.8,0l-0.7,1.6l-0.8,0l-2.3,5.1l-2.3,0l2.3-5.1l-0.7,0l0.7-1.6l0.7,0L49.5,82z"/>
		<path fill="#005890" d="M56.5,80.8l2.3,0l-0.9,2l0.8,0L58,84.4l-0.8,0l-1.3,3c-0.2,0.4-0.2,0.6,0.2,0.6c0.2,0,0.3,0,0.4,0
			l-0.7,1.6c-0.2,0-0.8,0.1-1.2,0.1c-1.3,0-1.9-0.1-1.2-1.6l1.6-3.7l-0.7,0l0.7-1.6l0.7,0L56.5,80.8z"/>
		<path fill="#005890" d="M61,85.1c0.2-0.5,0.1-0.7-0.2-0.7c-0.3,0-0.6,0.3-0.7,0.7l-2,4.4l-2.3,0l3.9-8.8l2.3,0l-1.3,2.9h0
			c0.6-0.7,1.3-0.9,2-0.9c0.8,0,1.3,0.5,0.8,1.7l-2.3,5.2l-2.3,0L61,85.1z"/>
		<path fill="#005890" d="M66.7,85.3l-1,0l0.2-0.4c0.3-0.7,0.5-0.8,0.9-0.8c0.4,0,0.4,0.2,0.1,0.8L66.7,85.3z M65.2,86.6l3.1,0
			l0.1-0.1c0.9-2.1,1.7-3.8-0.9-3.8c-2.5,0-3.5,1.6-4.3,3.5c-0.8,1.9-1.3,3.5,1.2,3.5c0.8,0,1.5-0.2,2.1-0.6c0.6-0.4,1.1-1,1.5-1.9
			l-2.1,0c-0.3,0.7-0.5,1.1-1,1.1c-0.5,0-0.3-0.5-0.1-0.8L65.2,86.6z"/>
		<path fill="#005890" d="M102,68.5c3.1,0,5.6-2.5,5.6-5.6c0-3.1-2.5-5.6-5.6-5.6c-3.1,0-5.6,2.5-5.6,5.6
			C96.4,66,98.9,68.5,102,68.5"/>
		<path fill="#005890" d="M177,62.2h-43.4l0,0c-1.1-0.1-2.4-0.2-2.9,1c-0.4,1.1-0.3,2.1-0.3,3.2c-0.1,0.5-0.5,1.2-0.8,1.7h-19.2
			c-0.4-0.1-0.8-0.1-1,0.1c-0.5,0.4-1.1,0.9-1.5,1.6c-0.8,1.3-0.9,2.9-1.3,4.4H89.7l-2.9,3.8l0,0c0,0,0,0.1-0.1,0.1l-0.2,0.3l0.1,0
			c-0.1,0.6,0,1.3-0.5,1.7c-0.3,0.3-0.5,0.5-0.8,0.7c-0.5,0.1-1.2,0.3-1.5,0.7c-0.8,0.5-1.6,0.9-2.1,1.9c-0.5,0.9-1.6,1.3-2.4,2.1
			c-0.5,0.8-1.1,1.3-1.6,2c-0.4,0.4-1.2,0.3-1.7,0.5c-0.8,0.5-1.5,1.2-2.1,2c-0.5,0.8-1.1,1.6-1.7,2.4v0.4H8.8L5.6,97l102.5,0.3
			l0.4-0.6c1.1,0.6,2.6,0.2,3.8,0c0.4,0,0.9-0.4,0.9-0.8c0.1-0.3,0.4-0.5,0.5-0.8c0.1-0.5,0.8-0.8,1.1-1.3c0.7-1.6,1.9-2.8,2.5-4.4
			c0.3-0.4,0.3-0.9,0.5-1.3c0.3-0.7,0.8-1.5,1.5-2c1.5-1.2,3-2.1,4.2-3.6c1.1-1.2,1.1-2.8,2-4c0.3-0.3,0.5-0.5,0.8-0.7
			c0.4-0.3,1.1-0.3,1.5-0.5c1.9-1.1,3.3-2.5,4.5-4.4c0.5-0.9,1.7-1.3,2.1-2.4c0.3-1.1,0-2.3,0.5-3.3c0.2-0.3,0.4-0.6,0.5-0.9l38,0.2
			L177,62.2z M78.6,92.8c1-1.2,1.4-2.7,2.7-3.3c0.3-0.1,0.4-0.4,0.7-0.5c2-1.5,3.2-3.4,5.3-5c0.8-0.4,1.7-0.7,2.1-1.3
			c0.9-1.3,2-2,2.8-3.2c0.1-0.3,0.2-0.6,0.2-0.8l10.5,0.1c-0.9,2-2.9,3-4.5,3.9c-1.3,0.7-2.5,1.3-3.7,2c-0.7,0.5-1.3,1.1-2.1,1.7
			c-1.1,0.8-1.5,2.1-2.6,2.8c-0.7,0.4-1.3,0.4-1.9,0.8c-0.8,0.8-1.9,1.6-1.6,2.9H78.6z M124.7,73.9c-0.9,0.7-1.9,0.8-2.8,1.5
			c-0.8,0.7-1.5,1.5-2,2.3c-0.4,0.8-0.1,1.7-0.5,2.5c-0.3,0.5-0.8,1.1-1.2,1.7c-0.5,0.5-1.1,0.8-1.6,1.3c-0.4,0.5-0.5,1.3-0.9,1.9
			c-1.5,1.6-2.9,2.9-4.2,4.5c-0.1,0.3-0.3,0.7-0.3,0.9c-0.5,0.8-1,1.6-1.5,2.4H93.8c0.1,0,0.1-0.1,0.2-0.1c1.9-1.7,3.6-3.6,5.3-5.6
			c2.9-1.2,5.3-3.2,7.3-5.6c0.7-0.7,0.9-1.6,1.3-2.5c0.8-1.5,2.3-2.4,2.9-3.8c0.5-0.8,0.5-1.8,0.6-2.7l14.5,0.2
			c0,0.1-0.1,0.1-0.1,0.2C125.5,73.2,125.1,73.5,124.7,73.9"/>
	</g>
</g>
</svg>
