<?xml version="1.0" encoding="UTF-8" standalone="yes"?>
<svg version="1.2" baseProfile="tiny-ps" viewBox="0 0 100 100" xml:space="preserve" xmlns="http://www.w3.org/2000/svg">
  <title>Picnic-Technologies</title>
  <g>
    <rect fill="#C00122" width="100" height="100"/>
    <g>
      <path fill="#FFFFFF" d="M22.5,69.3c0,1,0,2,0,3c0,3.3-0.2,10.6-0.2,10.9c0,0.7-0.3,1-1,1.1c-0.9,0.1-6.6-0.1-7.2-0.2&#xD;&#xA;&#x9;&#x9;&#x9;c-0.6-0.1-0.8-0.5-0.8-1.1c0-1.3-0.1-2.5-0.1-3.8c0-6.8,0-13.6,0-20.3c0-1.8,0.1-3.5,0.2-5.3c0-0.6,0.3-0.9,0.8-0.9&#xD;&#xA;&#x9;&#x9;&#x9;c2.3,0,4.7-0.1,7-0.1c0.6,0,1,0.3,1.3,0.8c2.4,4.1,4.8,8.2,7.2,12.3c0.5,0.8,0.9,1.6,1.5,2.4c0-0.3,0-0.6,0-0.9&#xD;&#xA;&#x9;&#x9;&#x9;c0.1-3.7,0.1-7.3,0.1-11c0-0.9,0.1-1.9,0.1-2.8c0-0.5,0.3-0.8,1-0.8c0.6,0,1.1,0,1.7,0c1.6,0,3.3,0,4.9,0c0.9,0,1.3,0.2,1.3,1.2&#xD;&#xA;&#x9;&#x9;&#x9;c0.1,2.5,0.2,5,0.2,7.5c0,5.6,0,11.1,0,16.7c0,1.8-0.1,3.5-0.2,5.3c0,0.5-0.2,0.9-0.8,0.9c-2.4,0-4.9,0-7.3,0&#xD;&#xA;&#x9;&#x9;&#x9;c-0.4,0-0.6-0.2-0.9-0.6c-2.8-4.5-5.5-9-8.3-13.5c-0.2-0.3-0.3-0.6-0.5-0.8C22.6,69.2,22.6,69.2,22.5,69.3z"/>
      <path fill="#FFFFFF" d="M13.3,31.8c0-4.7,0-9.5,0-14.2c0-0.3,0-0.7,0.1-1c0.1-0.6,0.5-0.7,1-0.7c1.3-0.1,2.5-0.1,3.8-0.1&#xD;&#xA;&#x9;&#x9;&#x9;c3.2-0.1,6.3-0.3,9.5,0.1c2.8,0.3,5.5,0.9,8,2.3c2.7,1.6,4.5,3.9,5.3,7c0.7,2.7,0.8,5.5,0.1,8.2c-1.1,4.2-3.8,6.8-7.8,8.3&#xD;&#xA;&#x9;&#x9;&#x9;c-3,1.1-6.2,1.4-9.4,1.4c-1.4,0-1.4-0.1-1.5,1.3c0,0.7-0.1,1.4-0.1,2.1c0,0.6-0.3,0.8-0.9,0.8c-2.4,0-4.7,0-7.1,0&#xD;&#xA;&#x9;&#x9;&#x9;c-0.7,0-1-0.3-1-1.2c0-1.4-0.1-2.8-0.1-4.2C13.2,38.6,13.2,35.2,13.3,31.8C13.3,31.8,13.3,31.8,13.3,31.8z M22.5,34.3&#xD;&#xA;&#x9;&#x9;&#x9;c2,0.2,4,0.2,5.9-0.3c3.9-1,4.3-4.1,3.3-6.9c-0.5-1.4-1.7-2-3.1-2.4c-1.8-0.5-3.6-0.4-5.4-0.4c-0.5,0-0.7,0.1-0.7,0.7&#xD;&#xA;&#x9;&#x9;&#x9;c0,1.5,0,2.9,0,4.4C22.5,31,22.5,32.6,22.5,34.3z"/>
      <path fill="#FFFFFF" d="M74.5,84.9c-2.1,0-4.8-0.5-7.3-1.7c-5.1-2.4-7.9-6.5-8.8-11.9c-0.5-3.1-0.2-6.1,0.8-9.1&#xD;&#xA;&#x9;&#x9;&#x9;c1.4-4.2,4.3-7.2,8.3-8.9c6.1-2.5,12.1-2.2,17.7,1.5c0.1,0.1,0.2,0.2,0.4,0.2c0.5,0.3,0.5,0.6,0.3,1.2c-0.9,1.9-2,3.7-3.3,5.3&#xD;&#xA;&#x9;&#x9;&#x9;c-1.1,1.4-1,1.1-2.3,0.4c-2.4-1.2-4.8-1.6-7.4-0.9c-5.4,1.6-6.9,7.6-4,11.8c1.7,2.5,4.2,3.3,7.2,3.1c1.9-0.2,3.7-0.9,5.3-1.9&#xD;&#xA;&#x9;&#x9;&#x9;c0.8-0.5,1-0.5,1.6,0.3c1.2,1.7,2.3,3.4,3.4,5.1c0.6,1,0.6,1-0.3,1.7C82.8,83.6,79.2,84.9,74.5,84.9z"/>
      <path fill="#FFFFFF" d="M75,48.3c-4.5,0-8.6-1.4-11.9-4.4c-2.5-2.3-3.9-5.1-4.6-8.4c-0.7-3.7-0.4-7.4,1.1-10.9&#xD;&#xA;&#x9;&#x9;&#x9;c1.9-4.3,5.2-6.9,9.6-8.4c5.9-1.9,11.3-1,16.4,2.3c0.5,0.3,0.5,0.6,0.3,1.1c-1,2.2-2.2,4.1-3.8,5.9c-0.4,0.4-0.7,0.5-1.2,0.2&#xD;&#xA;&#x9;&#x9;&#x9;c-1.7-1-3.6-1.7-5.6-1.6c-3,0.1-5.5,1.2-6.9,4c-1.4,2.7-1.2,5.4,0.4,8c1.4,2.2,3.5,3.1,6,3.3c2.3,0.1,4.4-0.6,6.3-1.8&#xD;&#xA;&#x9;&#x9;&#x9;c0.2-0.1,0.3-0.2,0.5-0.3c0.4-0.2,0.8-0.2,1.1,0.2c1.3,1.9,2.6,3.8,3.9,5.7c0.3,0.4,0.2,0.7-0.2,1.1c-2.6,2.1-5.5,3.4-8.7,3.8&#xD;&#xA;&#x9;&#x9;&#x9;C76.8,48.2,75.9,48.2,75,48.3z"/>
      <path fill="#FFFFFF" d="M45.3,59.6c0-0.9,0.3-1.2,1.2-1.2c2.2,0,4.3,0,6.5,0c1.1,0,1.3,0.2,1.3,1.3c0,7.2,0.1,14.4,0.1,21.5&#xD;&#xA;&#x9;&#x9;&#x9;c0,0.7,0,1.4-0.1,2c-0.1,0.7-0.2,0.9-0.9,1c-0.7,0.1-6.2,0.1-6.3,0.1c-1.5-0.1-1.8-0.3-1.8-1.8C45.2,78.8,45.2,63.4,45.3,59.6z"/>
      <path fill="#FFFFFF" d="M45.3,16.8c0-0.7,0.2-1,1-1c2.3,0,4.7-0.1,7,0c0.7,0,0.9,0.3,0.9,1.1c0.1,5.9,0.2,11.8,0.2,17.6&#xD;&#xA;&#x9;&#x9;&#x9;c0,2-0.1,4.1-0.2,6.1c0,0.8-0.2,1-1,1c-2.1,0.1-4.3,0.1-6.4,0.1c-0.2,0-0.4-0.1-0.7-0.1c-0.6-0.1-0.8-0.4-0.8-0.9&#xD;&#xA;&#x9;&#x9;&#x9;c0-0.8-0.1-1.6-0.1-2.5c0-3.2,0-6.4,0-9.6C45.2,28.2,45.2,20.8,45.3,16.8z"/>
      <path fill="#FFFFFF" d="M54.5,50c0,2.6-2.1,4.6-4.6,4.7c-2.6,0-4.7-2.1-4.7-4.7c0-2.5,2.1-4.6,4.7-4.6&#xD;&#xA;&#x9;&#x9;&#x9;C52.3,45.3,54.5,47.5,54.5,50z"/>
    </g>
  </g>
</svg>