<svg xmlns="http://www.w3.org/2000/svg" xmlns:xlink="http://www.w3.org/1999/xlink" version="1.2" viewBox="0 0 80 80" baseProfile="tiny-ps">
  <title>Boris FX</title>
  <g id="Layer_11">
    <rect x="2.9" y="32" width="74.4" height="19" fill="#0BAEFF"/>
    <polyline points="55.3,48.3 6,48.3 6,34.6 55.3,34.6  " fill="#FFFFFF"/>
    <path d="M23.4,37.6c-2.2,0-3.6,1.7-3.6,3.9s1.4,3.9,3.6,3.9s3.6-1.7,3.6-3.9S25.6,37.6,23.4,37.6z M35.8,37.7h-2.7V41h2.7   c1,0,1.8-0.7,1.8-1.7s-0.8-1.7-1.8-1.7l0,0V37.7z M69.6,41.4l5.2-7.3h-3.4l-3.7,5.4l-4-5.4H5.1v14.8H57v-6h5.4v-2.7H57v-3.3h5.3   l3.5,4.5l-5.3,7.5h3.4l3.8-5.5l4.1,5.5h3.4L69.6,41.4C69.6,41.4,69.6,41.4,69.6,41.4z M13.2,47.5H6.7v-12H13c2.3,0,3.5,1.5,3.5,3.1   s-0.9,2.5-2.1,2.8c1.3,0.2,2.3,1.4,2.3,3s-1.2,3.2-3.5,3.2l0,0L13.2,47.5z M23.4,47.7c-3.6,0-6.3-2.6-6.3-6.2s2.6-6.2,6.3-6.2   s6.3,2.6,6.3,6.2S27.1,47.7,23.4,47.7z M37.3,47.5l-2.4-4.3H33v4.3h-2.5v-12h5.6c2.5,0,4,1.6,4,3.9s-1.3,3.3-2.6,3.6l2.7,4.6h-2.9   L37.3,47.5z M43.7,47.5h-2.5v-12h2.5V47.5z M49.8,47.7c-2.3,0-4-0.8-5.1-1.9l1.4-1.9c0.8,0.9,2.2,1.6,3.8,1.6s2.1-0.7,2.1-1.3   s-1-1.2-2.4-1.5c-2-0.5-4.5-1-4.5-3.7s1.7-3.6,4.5-3.6s3.5,0.6,4.7,1.7L52.9,39c-1-0.9-2.3-1.3-3.4-1.3s-1.8,0.5-1.8,1.2   s1,1.1,2.4,1.4c2,0.5,4.5,1,4.5,3.7s-1.6,3.8-4.8,3.8l0,0V47.7z M12.5,42.5H9.2v2.8h3.3c1,0,1.6-0.6,1.6-1.4S13.6,42.5,12.5,42.5z    M13.8,39c0-0.7-0.5-1.3-1.4-1.3H9.2v2.6h3.2C13.3,40.3,13.8,39.7,13.8,39z"/>
  </g>
</svg>