<?xml version="1.0" encoding="utf-8"?>
<!-- Generator: Adobe Illustrator 26.3.1, SVG Export Plug-In . SVG Version: 6.00 Build 0)  -->
<svg version="1.2" baseProfile="tiny-ps" id="Group_1_00000073714120732433640690000002555942069311712401_"
	 xmlns="http://www.w3.org/2000/svg" xmlns:xlink="http://www.w3.org/1999/xlink" viewBox="0 0 200 200"
	 xml:space="preserve">
<title>Chirp</title>
<g id="_x24_red-110">
	<rect fill-rule="evenodd" fill="#F4F4F7" width="200" height="200"/>
</g>
<g id="Group_2_00000119809648663446518450000009312247088888339613_">
	<g id="_x3C_Group_x3E__xA0_Image_00000093858057541413868760000011501664178565429137_">
		<path fill="#1C1B38" d="M48.1,86.3c-1.6-1.4-3.8-2.1-6.6-2.1c-5,0-9.4,1.4-13.3,4.1c-3.8,2.7-6.9,6.3-9.1,10.4
			c-2.1,4.2-3.2,8.4-3.2,12.5c0,3.7,1.1,6.4,3.4,8.3c2.3,1.8,5.3,2.8,9,2.8c6.6,0,12-3.1,16-9.3l-1.4-0.6c-1.4,2-2.8,3.5-4.1,4.3
			s-2.7,1.2-4.3,1.2c-1.8,0-3.1-0.6-4.1-1.7c-1-1.2-1.5-2.9-1.5-5.4c0-4.1,0.6-8.1,1.9-12s2.9-7.1,5-9.6s4.2-3.7,6.5-3.7
			c0.9,0,1.7,0.3,2.4,0.8c-2,0.6-3.7,1.8-5,3.5c-1.4,1.6-2.1,3.7-2.1,5.8c0,1.5,0.5,2.7,1.4,3.6s2.1,1.3,3.3,1.3
			c1.5,0,2.9-0.5,4-1.3c1.3-0.9,2.3-2.1,3-3.4s1.1-2.8,1.1-4.4C50.6,89.5,49.7,87.6,48.1,86.3z"/>
		<path fill="#1C1B38" d="M86.8,94.8c0.6-1.9,0.9-3.5,0.9-4.7c0-3.9-2.3-5.8-6.8-5.8c-2.8,0-5.4,0.9-7.6,2.6c-2.2,1.8-4.4,5-6.6,9.8
			l9-30.7c-2.8,0.9-5.8,1.6-8.7,2.1c-3.3,0.5-6.6,0.7-10,0.8l-0.5,1.5c1.7,0,2.9,0.2,3.7,0.6c0.7,0.4,1.1,1.2,1.1,2
			c0,0.7-0.2,1.3-0.4,2l-13.8,46.5h12.3l0.1-0.3v0.1l0.1-0.3l1.9-6.5c2.2-6.9,4.7-13,7.3-18.1c2.6-5.2,4.7-7.7,6.2-7.7
			c0.5,0,0.7,0.4,0.7,1c0,0.9-0.2,1.8-0.6,2.7l-6,18.1c-0.6,1.7-0.9,3.5-1,5.4c0,2,0.6,3.7,1.8,4.8c1.2,1.2,3,1.8,5.5,1.8
			c5,0,8.3-2.4,10-7.2l0.5-1.5h-1.4l-0.1,0.3c-1.1,2.9-2.4,4.4-3.7,4.4c-0.8,0-1.2-0.4-1.2-1.3c0-0.6,0.2-1.1,0.3-1.7L86.8,94.8z"/>
		<path fill="#1C1B38" d="M109.2,94c0.4-1.1,0.5-2.2,0.6-3.3c0-1.9-0.6-3.4-1.7-4.6c-1.2-1.2-3-1.8-5.5-1.8c-5.2,0-8.7,2.4-10.4,7.2
			l-0.7,1.8h1.4l0.2-0.6c0.6-1.6,1.2-2.8,1.8-3.4c0.5-0.6,1.2-1,2-1c0.6,0,1,0.4,1,1.2c0,0.6-0.1,1.2-0.3,1.7l-6.4,19.2
			c-0.7,2.1-1,3.9-1,5.4c0,2.2,0.7,3.8,2,4.9s3.1,1.7,5.5,1.7c5,0,8.3-2.4,10-7.2l0.5-1.5h-1.4l-0.1,0.3c-1.1,2.9-2.3,4.4-3.7,4.4
			c-0.8,0-1.2-0.4-1.2-1.3c0-0.6,0.2-1.1,0.3-1.7L109.2,94z"/>
		<path fill="#1C1B38" d="M146.1,86.2c-1.2-1.3-2.9-1.9-4.9-1.9c-2.2,0-4.1,0.6-5.7,1.8c-1.6,1.2-3,3.2-4.4,6.2
			c0.1-0.5,0.1-1,0.1-1.5c0-1.9-0.5-3.5-1.5-4.7s-2.6-1.8-4.9-1.8c-5.2,0-8.7,2.4-10.4,7.2l-0.6,1.8h1.4l0.2-0.6
			c0.6-1.6,1.2-2.8,1.8-3.4c0.5-0.6,1.2-1,2-1c0.6,0,0.9,0.4,0.9,1.1c0,0.6-0.1,1.2-0.3,1.8l-8.5,30.2h12.3l5.1-19.5
			c1.6-4.9,3.2-8.5,4.6-10.9c1.4-2.4,2.8-3.9,4-4.5c1.3-0.6,2.6-0.9,4-0.9c0.3,0,0.7,0.1,1,0.2c-2.1,0.4-4,1.5-5.4,3.1
			c-1.5,1.7-2.2,3.5-2.2,5.6c0,1.7,0.4,3,1.3,3.9s2.2,1.3,3.9,1.3c2.2,0,4.3-0.9,5.6-2.6c1.5-1.7,2.3-3.9,2.2-6.1
			C147.9,89.1,147.3,87.5,146.1,86.2z"/>
		<ellipse transform="matrix(0.866 -0.5 0.5 0.866 -22.374 63.5447)" fill="#1C1B38" cx="107.4" cy="73.5" rx="6.7" ry="5.8"/>
		<path fill="#1C1B38" d="M181.7,87.3c-1.6-1.9-4-2.9-7.2-2.9c-2,0-4,0.7-5.5,1.9c-1.6,1.3-3.2,3.3-4.6,5.9l3-10.6
			c-2.8,0.9-5.8,1.6-8.7,2.1l-0.5,0.1c-0.5,0.1-1,0.1-1.6,0.2c-0.7,0.1-1.5,0.2-2.3,0.2c-0.4,0-0.8,0.1-1.2,0.1
			c-1.4,0.1-2.9,0.2-4.5,0.2l-0.5,1.5c1.7,0,2.9,0.2,3.7,0.6l0,0c0.4,0.2,0.6,0.5,0.8,0.9c0.2,0.3,0.2,0.7,0.2,1.1s-0.1,0.7-0.1,1.1
			l0,0c-0.1,0.3-0.1,0.5-0.2,0.9l-0.3,1.1l-10.1,36.6c-0.5,1.7-1.1,2.8-1.8,3.4l0,0c-0.7,0.6-1.9,0.9-3.6,0.9l-0.4,1.5
			c0.6,0,1.1,0,1.5-0.1c0.6,0,1.2,0,1.8,0c3.9-0.1,6.5-0.2,7.8-0.2c0.9,0,2.4,0,4.5,0.1c1.6,0,3.5,0.1,5.7,0.1l1.9,0.1l0.3-1.1
			l0.1-0.3c-0.1,0-0.1,0-0.2,0c-2-0.1-3.4-0.3-4.3-0.8c-0.9-0.4-1.4-1.3-1.4-2.6c0.1-1,0.2-2.1,0.6-3.1l1.4-4.8l0.1-0.2l0,0
			c0.9,0.5,1.9,0.8,3,1c0.9,0.2,1.8,0.3,2.7,0.4c0.3,0,0.6,0,0.9,0c4.1,0,8.1-1.5,11.1-4.2c0.9-0.8,1.8-1.7,2.6-2.7
			c2-2.3,3.6-5,4.7-7.8c1.7-4.2,2.6-8.2,2.6-12C184.1,92,183.3,89.2,181.7,87.3z M157.4,121.2l0.1-0.2l0,0
			C157.4,121.1,157.4,121.1,157.4,121.2z M170.7,100c-0.3,2.1-0.8,4.2-1.5,6.3c-1.3,4-2.9,7.3-4.8,9.9c-0.2,0.2-0.4,0.5-0.5,0.7
			c-1.8,2.2-3.6,3.3-5.4,3.3c-0.5,0-1.1-0.1-1.6-0.2h-0.2l2.6-9.3l3.6-12.9c1.1-2.6,2.2-4.7,3.3-6.3c1.1-1.6,2.2-2.3,3.2-2.3
			c0.6,0,1,0.4,1.2,1.1c0.3,0.7,0.4,2.2,0.4,4.5C171.1,96.4,171,98.2,170.7,100L170.7,100z"/>
	</g>
	<g id="_x3C_Ellipse_x3E__xA0__x2B__xA0__x3C_Compound_Path_x3E__xA0_Image_00000071531923220907268850000006257334593511350449_">
	</g>
</g>
</svg>
