<?xml version="1.0" encoding="utf-8"?>
<!-- Generator: Adobe Illustrator 26.3.1, SVG Export Plug-In . SVG Version: 6.00 Build 0)  -->
<svg version="1.2" baseProfile="tiny-ps" id="Group_1_00000073714120732433640690000002555942069311712401_"
	 xmlns="http://www.w3.org/2000/svg" xmlns:xlink="http://www.w3.org/1999/xlink" viewBox="0 0 200 200"
	 xml:space="preserve">
<title>BookBub</title>
<g id="_x24_red-110">
	<rect fill-rule="evenodd" fill="#F44336" width="200" height="200"/>
</g>
<g id="Logo_x5F_White_00000005268220777367206780000003668116834283581586_">
	<g>
		<path fill="none" d="M126.7,96.8c0.9-0.7,1.3-1.8,1.3-3.2c0-2.4-1.7-3.7-5.2-3.7h-3v8h3.2C124.5,97.9,125.8,97.5,126.7,96.8z"/>
		<path fill="none" d="M123.6,102.4l-3.8,0v8.8h4c1.7,0,3.1-0.4,4-1.2c1-0.8,1.4-1.9,1.4-3.3C129.3,103.9,127.4,102.4,123.6,102.4z"
			/>
		<path fill="none" d="M72,99.9c-1,1.2-1.5,2.9-1.5,5.1c0,4.6,1.9,6.8,5.7,6.8c3.6,0,5.5-2.3,5.5-7c0-4.5-1.8-6.8-5.5-6.8
			C74.4,98.1,73,98.7,72,99.9z"/>
		<path fill="none" d="M167.8,106.5c0,1.4,0.5,2.7,1.4,3.8c0.9,1,2.1,1.6,3.5,1.5c1.6,0.1,3-0.7,3.9-2c1-1.3,1.4-3.1,1.4-5.5
			c0-2-0.4-3.5-1.3-4.6c-0.9-1.1-2.1-1.7-3.7-1.7c-1.4,0-2.8,0.6-3.8,1.7c-1,1.1-1.5,2.6-1.5,4.3L167.8,106.5z"/>
		<path fill="none" d="M28.9,96.8c0.9-0.7,1.3-1.8,1.3-3.2c0-2.4-1.7-3.7-5.2-3.7h-3v8h3.2C26.7,97.9,28,97.5,28.9,96.8z"/>
		<path fill="none" d="M46.9,99.9c-1,1.2-1.5,2.9-1.5,5.1c0,4.6,1.9,6.8,5.7,6.8c3.7,0,5.5-2.3,5.5-7c0-4.5-1.8-6.8-5.5-6.8
			C49.3,98.1,47.9,98.7,46.9,99.9z"/>
		<path fill="none" d="M31.5,106.8c0-2.9-1.9-4.3-5.7-4.3l-3.8,0v8.8h4c1.7,0,3.1-0.4,4-1.2C31,109.3,31.5,108.2,31.5,106.8z"/>
		<path fill="#FFFFFF" d="M34.7,113.3c2-1.6,2.9-3.8,2.9-6.5c0.1-1.8-0.6-3.6-1.9-4.9c-1.3-1.3-3-2.1-5.1-2.4v-0.1
			c1.6-0.5,3.1-1.4,4.2-2.7c1-1.2,1.6-2.7,1.5-4.3c0-2.2-0.9-4-2.6-5.2c-1.8-1.2-4.2-1.9-7.3-1.9H16v30.4l10.8,0
			C30.2,115.8,32.8,115,34.7,113.3z M21.9,89.9h3c3.5,0,5.2,1.2,5.2,3.7c0,1.4-0.4,2.4-1.3,3.2c-0.9,0.7-2.1,1.1-3.7,1.1h-3.2V89.9z
			 M21.9,111.3v-8.8l3.8,0c3.8,0,5.7,1.4,5.7,4.3c0,1.4-0.5,2.5-1.4,3.3c-1,0.8-2.3,1.2-4,1.2H21.9z"/>
		<path fill="#FFFFFF" d="M42.8,96.7c-2.1,2.1-3.1,4.9-3.1,8.4c0,3.4,1,6.2,3.1,8.2c2,2,4.8,3,8.3,3c3.5,0,6.3-1.1,8.4-3.2
			c2.1-2.1,3.1-4.9,3.1-8.5c0-3.4-1-6.1-3-8.1c-2-2-4.7-3-8.2-3C47.7,93.6,44.9,94.6,42.8,96.7z M56.6,104.8c0,4.7-1.8,7-5.5,7
			c-3.8,0-5.7-2.3-5.7-6.8c0-2.2,0.5-3.8,1.5-5.1c1-1.2,2.4-1.8,4.2-1.8C54.8,98.1,56.6,100.3,56.6,104.8z"/>
		<path fill="#FFFFFF" d="M67.8,96.7c-2.1,2.1-3.1,4.9-3.1,8.4c0,3.4,1,6.2,3,8.2c2,2,4.8,3,8.3,3c3.5,0,6.3-1.1,8.4-3.2
			c2.1-2.1,3.1-4.9,3.1-8.5c0-3.4-1-6.1-3-8.1c-2-2-4.7-3-8.2-3C72.8,93.6,69.9,94.6,67.8,96.7z M81.7,104.8c0,4.7-1.8,7-5.5,7
			c-3.8,0-5.7-2.3-5.7-6.8c0-2.2,0.5-3.8,1.5-5.1c1-1.2,2.4-1.8,4.2-1.8C79.8,98.1,81.7,100.3,81.7,104.8z"/>
		<polygon fill="#FFFFFF" points="90.7,83.7 90.7,115.8 96.5,115.8 96.5,105.1 96.5,105.1 104.2,115.8 111.4,115.8 102.3,104.4 
			110.7,94.1 103.8,94.1 96.5,104.1 96.5,104.1 96.5,83.7 		"/>
		<path fill="#FFFFFF" d="M132.7,96.8c1-1.2,1.6-2.7,1.5-4.3c0-2.2-0.9-4-2.6-5.2c-1.8-1.2-4.2-1.9-7.3-1.9h-10.3v30.4l10.8,0
			c3.3,0,5.9-0.8,7.8-2.4c2-1.6,2.9-3.8,2.9-6.5c0.1-1.8-0.6-3.6-1.9-4.9c-1.3-1.3-3-2.1-5.1-2.4v-0.1
			C130.1,99,131.6,98.1,132.7,96.8z M119.8,89.9h3c3.5,0,5.2,1.2,5.2,3.7c0,1.4-0.4,2.4-1.3,3.2c-0.9,0.7-2.1,1.1-3.7,1.1h-3.2V89.9
			z M129.3,106.8c0,1.4-0.5,2.5-1.4,3.3c-1,0.8-2.3,1.2-4,1.2h-4v-8.8l3.8,0C127.4,102.4,129.3,103.9,129.3,106.8z"/>
		<path fill="#FFFFFF" d="M158.3,115.8l0-21.7h-5.7v12.5c0,1.6-0.4,2.9-1.3,3.9c-0.8,0.9-2,1.5-3.3,1.4c-2.7,0-4.1-1.8-4.1-5.3V94.1
			h-5.8v13.1c0,6.1,2.5,9.2,7.6,9.2c2.8,0,5.1-1.3,6.7-3.9h0.1v3.3H158.3z"/>
		<path fill="#FFFFFF" d="M162.1,83.7v32.1h5.8v-2.7l0.1,0c1.4,2.2,3.5,3.2,6.2,3.2c3,0,5.3-1.1,7.1-3.3c1.8-2.2,2.7-5.1,2.7-8.7
			c0-3.3-0.8-5.9-2.3-7.9c-1.6-1.9-3.7-2.9-6.5-2.9c-3.1,0-5.5,1.3-7.2,3.9h-0.1V83.7H162.1z M169.3,99.7c0.9-1.1,2.3-1.7,3.8-1.7
			c1.6,0,2.8,0.6,3.7,1.7c0.9,1.1,1.3,2.7,1.3,4.6c0,2.4-0.5,4.2-1.4,5.5c-0.9,1.3-2.4,2-3.9,2c-1.3,0-2.6-0.5-3.5-1.5
			c-0.9-1-1.4-2.4-1.4-3.8l0-2.5C167.8,102.3,168.3,100.9,169.3,99.7z"/>
	</g>
</g>
</svg>
