<svg xmlns="http://www.w3.org/2000/svg" xmlns:xlink="http://www.w3.org/1999/xlink" version="1.2" viewBox="0 0 115.5 115.5" baseProfile="tiny-ps">
  <title>Range-USA_Digi-Logo-01</title>
  <rect width="115.5" height="115.5" fill="#FFFFFF"/>
  <g>
    <g>
      <g>
        <path d="M69.872,62.072c-2.343,0-4.25-1.906-4.25-4.25c0-2.343,1.906-4.25,4.25-4.25s4.25,1.906,4.25,4.25     C74.122,60.166,72.216,62.072,69.872,62.072z M69.872,54.235c-1.978,0-3.587,1.609-3.587,3.587c0,1.978,1.609,3.587,3.587,3.587     s3.587-1.609,3.587-3.587C73.46,55.844,71.85,54.235,69.872,54.235z" fill="#343741"/>
      </g>
      <g>
        <rect x="69.558" y="52.389" width="0.662" height="10.867" fill="#DF6A2E"/>
      </g>
      <g>
        <rect x="64.455" y="57.491" width="10.867" height="0.662" fill="#DF6A2E"/>
      </g>
    </g>
    <g>
      <path d="M12.126,53.328c-0.254,0-0.476,0.016-0.951,0.079c-0.032,0.523-0.063,0.935-0.063,1.617v5.327    c0,1.443,0.111,2.394,0.317,2.996c-0.333-0.032-0.872-0.048-1.427-0.048c-0.539,0-1.11,0.016-1.49,0.048    c0.158-1.031,0.206-1.76,0.206-3.012v-4.978c0-0.809-0.032-2.346-0.317-3.06c0.539,0.032,0.809,0.032,1.363,0.032    c1.395,0,2.235-0.032,3.71-0.032c1.237,0,1.839,0.143,2.394,0.602c0.507,0.428,0.761,1.062,0.761,1.998    c0,1.379-0.935,2.172-2.204,2.616c0.174,0.27,0.888,1.395,1.696,2.695c0.92,1.474,1.934,2.743,2.346,2.981l-0.048,0.174    c-1.173,0-2.346,0-3.266,0.063c-0.222-0.428-0.428-0.856-0.666-1.284c-0.412-0.761-0.999-1.744-1.728-2.933    c-0.412-0.682-0.999-1.363-1.3-1.823l0.079-0.19c0.254,0.016,0.777,0.111,1.332-0.048c0.587-0.158,1.284-0.682,1.284-1.855    C14.155,54.026,13.442,53.328,12.126,53.328z" fill="#343741"/>
      <path d="M25.873,59.669c-0.507-0.016-1.205-0.032-1.918-0.032c-0.697,0-1.427,0.016-1.95,0.032    l-0.539,1.569c-0.111,0.349-0.222,0.872-0.222,1.332c0,0.27,0.032,0.476,0.111,0.777c-0.365-0.016-0.745-0.032-1.125-0.032    c-0.444,0-0.904,0-1.363,0.032l-0.063-0.143c0.428-0.761,0.856-1.617,1.221-2.568l2.568-6.421c0.38-0.935,0.476-1.236,0.666-1.982    c0.634-0.032,1.823-0.143,2.6-0.285c0.095,0.587,0.206,0.92,0.444,1.617l2.505,6.991c0.412,1.142,0.951,2.283,1.236,2.79    c-0.317-0.016-0.904-0.032-1.474-0.032c-0.587,0-1.205,0-1.76,0.032c-0.079-0.888-0.206-1.427-0.507-2.346L25.873,59.669z     M24.065,53.867l-1.633,4.582c0.428,0.032,0.983,0.032,1.538,0.032c0.539,0,1.078,0,1.538-0.032L24.065,53.867z" fill="#343741"/>
      <path d="M34.043,52.282c0.301,0.571,0.507,0.951,1.062,1.696l3.504,4.645    c0.254,0.317,0.713,0.951,0.951,1.284c-0.016-0.285-0.032-0.65-0.032-1.157v-2.949c0-1.173-0.095-2.378-0.46-3.488    c0.317,0.016,0.745,0.016,1.173,0.016c0.365,0,0.745,0,1.062-0.016c-0.206,0.793-0.222,2.315-0.222,3.916v4.629    c0,0.824,0.063,1.68,0.222,2.616c-0.254-0.016-0.666-0.016-1.015-0.016c-0.38,0-0.761,0-1.03,0.016    c-0.412-0.634-0.682-1.046-1.015-1.474l-4.614-5.929c-0.254-0.333-0.586-0.745-0.745-1.015v5.232c0,1.126,0.095,2.077,0.428,3.06    c-0.317-0.016-0.729-0.032-1.11-0.032c-0.365,0-0.824,0.016-1.094,0.032c0.19-0.904,0.206-1.665,0.206-2.901v-5.089    c0-0.809-0.032-2.346-0.317-3.06c0.539,0.032,0.92,0.032,1.475,0.032C33.218,52.329,33.63,52.313,34.043,52.282z" fill="#343741"/>
      <path d="M53.164,59.686c0.082-1.736,0.28-2.326,0.28-2.326h-2.817c-0.682,0-1.268-0.016-2.315-0.127    l-0.127,0.111c0.174,0.365,0.38,0.983,0.492,1.364c0.867-0.081,1.318-0.104,1.865-0.109c0.012,0.047,0.022,0.096,0.033,0.145    c0.008,0.036,0.016,0.07,0.023,0.107c0.013,0.066,0.025,0.133,0.036,0.202c0.002,0.011,0.003,0.021,0.005,0.032    c0.048,0.307,0.079,0.64,0.094,0.966c0.016,0.238,0.016,0.46,0.016,0.682c0,1.11-0.127,1.744-1.696,1.744    c-0.281,0-0.547-0.028-0.799-0.084c-1.769-0.39-2.813-2.116-2.813-4.751c0-2.822,1.363-4.487,3.694-4.487    c0.164,0,0.325,0.01,0.481,0.029c1.091,0.135,1.972,0.728,2.624,1.588l0.002,0c0,0,0,0,0,0.001l0.301-0.032    c0.158-0.714,0.317-1.347,0.539-2.077c-1.11-0.444-2.362-0.666-3.615-0.666c-0.001,0-0.001,0-0.002,0c0,0-0.001,0-0.001,0    c-4.122,0-6.738,2.299-6.738,5.929c0,3.963,2.854,5.708,6.167,5.708c0,0,0.001,0,0.001,0c0,0,0.001,0,0.001,0    c1.554,0,2.98-0.254,4.328-0.634c-0.048-0.539-0.08-1.189-0.08-2.061C53.144,60.438,53.15,60.045,53.164,59.686z" fill="#343741"/>
      <path d="M59.049,56.752c0.682,0,1.268-0.016,2.315-0.127l0.127,0.111c-0.174,0.365-0.38,0.983-0.491,1.363    c-1.015-0.095-1.459-0.111-2.156-0.111h-1.126v2.251c0,1.459,0.158,1.934,1.887,1.934c0.983,0,1.918-0.095,2.679-0.888    l0.285,0.095c-0.159,0.618-0.333,1.427-0.396,2.029c-1.871-0.063-3.091-0.079-4.17-0.079c-1.316,0-2.172,0-2.885,0.016    c0.127-0.84,0.222-1.807,0.222-3.012v-4.978c0-0.809-0.032-2.346-0.317-3.06c0.539,0.032,0.904,0.032,1.3,0.032h2.981    c1.062,0,1.49-0.032,2.648-0.048c-0.206,0.602-0.412,1.205-0.523,1.871l-0.27,0.032c-0.491-0.713-1.443-0.793-2.346-0.793    c-0.285,0-0.618,0.016-1.015,0.032c-0.016,0.27-0.064,1.031-0.064,1.712v1.617H59.049z" fill="#343741"/>
    </g>
    <g>
      <path d="M80.064,52.298c-0.127,1.189-0.143,2.14-0.143,2.965v3.123c0,1.427,0.032,1.887,0.222,2.457    c0.317,0.904,1.173,1.459,2.362,1.459c1.141,0,2.077-0.444,2.521-1.459c0.222-0.507,0.285-1.506,0.285-2.648v-3.012    c0-1.11-0.079-2.045-0.381-2.869c0.301,0.016,0.682,0.032,1.078,0.032c0.428,0,0.888-0.016,1.268-0.032    c-0.158,0.999-0.206,1.649-0.206,2.996v4.376c0,2.442-1.744,4.011-4.835,4.011c-2.362,0-4.709-0.729-4.709-3.868v-4.471    c0-0.809-0.032-2.346-0.317-3.06c0.539,0.032,0.824,0.032,1.379,0.032C79.239,52.329,79.636,52.329,80.064,52.298z" fill="#343741"/>
      <path d="M91.312,63.696c-0.92,0-1.871-0.19-2.743-0.555c0.19-0.491,0.412-1.538,0.507-2.045l0.285-0.048    c0.523,0.809,1.268,1.411,2.33,1.411c1.141,0,1.918-0.666,1.918-1.601c0-2.442-4.915-1.95-4.915-5.438    c0-2.077,1.665-3.488,4.154-3.488c0.872,0,1.76,0.19,2.6,0.539c-0.254,0.602-0.46,1.3-0.587,1.855l-0.254,0.032    c-0.523-0.761-1.126-1.189-2.093-1.189c-0.999,0-1.649,0.555-1.649,1.395c0,2.251,4.946,1.855,4.946,5.374    C95.815,62.111,93.944,63.696,91.312,63.696z" fill="#343741"/>
      <path d="M102.931,59.669c-0.507-0.016-1.205-0.032-1.918-0.032c-0.697,0-1.427,0.016-1.95,0.032    l-0.539,1.569c-0.111,0.349-0.222,0.872-0.222,1.332c0,0.27,0.032,0.476,0.111,0.777c-0.365-0.016-0.745-0.032-1.125-0.032    c-0.444,0-0.904,0-1.363,0.032l-0.063-0.143c0.428-0.761,0.856-1.617,1.221-2.568l2.568-6.421c0.38-0.935,0.476-1.236,0.666-1.982    c0.634-0.032,1.823-0.143,2.6-0.285c0.095,0.587,0.206,0.92,0.444,1.617l2.505,6.991c0.412,1.142,0.951,2.283,1.236,2.79    c-0.317-0.016-0.904-0.032-1.474-0.032c-0.587,0-1.205,0-1.76,0.032c-0.079-0.888-0.206-1.427-0.507-2.346L102.931,59.669z     M101.123,53.867l-1.633,4.582c0.428,0.032,0.983,0.032,1.538,0.032c0.539,0,1.078,0,1.538-0.032L101.123,53.867z" fill="#343741"/>
    </g>
    <g>
      <g>
        <path d="M106.351,52.238c0,0.246-0.193,0.44-0.445,0.44c-0.249,0-0.447-0.193-0.447-0.44     c0-0.241,0.199-0.434,0.447-0.434C106.157,51.804,106.351,51.997,106.351,52.238z M105.569,52.238     c0,0.193,0.143,0.347,0.339,0.347c0.191,0,0.331-0.154,0.331-0.344c0-0.193-0.14-0.349-0.334-0.349     C105.713,51.891,105.569,52.047,105.569,52.238z M105.837,52.466h-0.101v-0.434c0.04-0.008,0.095-0.013,0.167-0.013     c0.082,0,0.119,0.013,0.151,0.032c0.024,0.019,0.042,0.053,0.042,0.096c0,0.048-0.037,0.085-0.09,0.1v0.005     c0.042,0.016,0.066,0.048,0.079,0.106c0.013,0.066,0.021,0.093,0.032,0.109h-0.109c-0.013-0.016-0.021-0.056-0.035-0.106     c-0.008-0.048-0.034-0.069-0.09-0.069h-0.048V52.466z M105.84,52.219h0.048c0.056,0,0.101-0.018,0.101-0.063     c0-0.04-0.029-0.066-0.093-0.066c-0.027,0-0.045,0.003-0.056,0.005V52.219z" fill="#343741"/>
      </g>
    </g>
  </g>
</svg>