<?xml version="1.0" encoding="utf-8"?>
<!-- Generator: Adobe Illustrator 25.2.3, SVG Export Plug-In . SVG Version: 6.00 Build 0)  -->
<svg version="1.2" baseProfile="tiny-ps" xmlns="http://www.w3.org/2000/svg" viewBox="0 0 1024 1024">
  <title>Fastmail Pty Ltd</title>
<g id="Artwork">
        <rect fill="#FFFFFF" width="1024" height="1024" />
        <path fill="#0067B9" d="M120.2,512c0-216.4,175.4-391.8,391.8-391.8c136,0,255.7,69.3,326,174.5l77.2,15.2l9.6-73.1   c-89-133.2-240.6-221-412.7-221C238,15.9,15.9,238,15.9,512c-0.1,98,28.9,193.8,83.3,275.2l74.7,9.7l12.1-67.5   C143,665,120.1,589.4,120.2,512z" />
        <path fill="#69B3E7" d="M926,238.6c-0.4-0.6-0.8-1.2-1.2-1.8L838,294.7c0.4,0.6,0.8,1.2,1.2,1.8c42.2,63.9,64.7,138.9,64.6,215.5   c0,216.4-175.4,391.8-391.8,391.8c-135.2,0-254.4-68.5-324.8-172.7c-0.4-0.6-0.8-1.2-1.2-1.8l-86.8,57.9c0.4,0.6,0.8,1.2,1.2,1.8   c89.1,132.2,240.2,219.1,411.6,219.1c274,0,496.1-222.1,496.1-496.1C1008.3,414.8,979.7,319.7,926,238.6z" />
        <path fill="#FFC107" d="M512,512L276.1,354.8v314.5l0,0l148.2-45.9L512,512z" />
        <path fill="#333E48" d="M276.1,669.2h455.1c9.2,0,16.6-7.4,16.6-16.6c0,0,0,0,0,0V354.8L276.1,669.2z" />
</g>
</svg>
