<?xml version="1.0" encoding="utf-8"?>
<!-- Generator: Adobe Illustrator 28.1.0, SVG Export Plug-In . SVG Version: 6.00 Build 0)  -->
<svg version="1.2" baseProfile="tiny-ps" id="Layer_1" xmlns="http://www.w3.org/2000/svg" xmlns:xlink="http://www.w3.org/1999/xlink"
	  viewBox="0 0 100 100" xml:space="preserve">
<title>ASSIDUUS DISTRIBUTION PRIVATE LIMITED</title>
<g>
	<g id="Layer_2_00000104692311907804909410000004282184024039674003_">
		<g id="Layer_1-2_00000115506685415470776120000013908769241778720436_">
			<path fill="#CCDD7F" d="M14,40c1.2,0.6,2.3,1.3,3.5,2c0.3,0.2,0.3,0.3,0,0.5c-1.1,0.6-2.2,1.3-3.3,1.9c-0.3,0.1-0.6,0.1-0.8,0
				c-0.5-0.3-1-0.6-1.6-0.9s-1-0.6-1.6-0.9c0,0-0.1-0.1-0.1-0.1c-0.2-0.1-0.2-0.3,0-0.4c0.4-0.2,0.8-0.5,1.2-0.7l2-1.2
				c0.1-0.1,0.2-0.1,0.4-0.2H14z"/>
			<path fill="#67BD67" d="M5.1,49.3L5.1,49.3L5.1,49.3l0-4c0,0,0,0,0,0C5,46.6,5,48,5.1,49.3z"/>
			<path fill="#CCDD7F" d="M5,54.7L5,54.7L5,54.7l0-4c0,0,0,0,0,0c0,0.3,0,0.5,0,0.8C5.1,52.6,5,53.7,5,54.7z"/>
			<path fill="#1A7D62" d="M18.1,45c0,0.6,0,1.2,0,1.8c0,0.3-0.2,0.6-0.5,0.8c-1.1,0.6-2.1,1.2-3.2,1.8c-0.3,0.2-0.5,0.1-0.5-0.3
				c0-1.2,0-2.4,0-3.6c0-0.4,0.2-0.7,0.5-0.9c0.8-0.4,1.6-0.9,2.4-1.4c0.3-0.2,0.5-0.3,0.8-0.5c0.3-0.2,0.5-0.1,0.5,0.3L18.1,45z"/>
			<path fill="#1A7D62" d="M9.5,55c0-0.6,0-1.3,0-1.9c0-0.3,0.1-0.5,0.4-0.7c1.1-0.6,2.3-1.3,3.4-1.9c0.2-0.1,0.3,0,0.3,0.1
				c0,0.1,0,0.2,0,0.2c0,0.8,0,1.6,0,2.5c0,0.4,0,0.7,0,1.1c0,0.4-0.2,0.7-0.5,0.9l-3.1,1.7L10,57.1c-0.4,0.2-0.5,0.1-0.5-0.3
				C9.5,56.2,9.5,55.6,9.5,55z"/>
			<path fill="#1A7D62" d="M22.6,52.8c0,0.6,0,1.2,0,1.8c0,0.3-0.1,0.6-0.4,0.7c-1.1,0.6-2.2,1.2-3.3,1.9c0,0-0.1,0-0.1,0.1
				c-0.2,0.1-0.4,0-0.4-0.2c0-0.1,0-0.2,0-0.2c0-1.2,0-2.3,0-3.5c0-0.4,0.2-0.7,0.5-0.9c1.1-0.6,2.1-1.2,3.2-1.8
				c0.2-0.1,0.4,0,0.4,0.2c0,0.2,0,0.4,0,0.6C22.6,51.8,22.6,52.3,22.6,52.8z"/>
			<path fill="#CCDD7F" d="M9.3,52.2c-0.1,0-0.3,0-0.4-0.1c-1-0.6-2.1-1.2-3.1-1.8c-0.1,0-0.2-0.1-0.2-0.2c-0.2-0.1-0.2-0.3,0-0.5
				c0.2-0.1,0.3-0.2,0.5-0.3c0.9-0.5,1.8-1.1,2.7-1.6c0.3-0.2,0.7-0.2,0.9,0c1,0.6,2.1,1.2,3.1,1.8c0.1,0,0.1,0.1,0.2,0.1
				c0.1,0.1,0.2,0.2,0.1,0.3c0,0.1-0.1,0.1-0.1,0.1c-1,0.6-2,1.1-3,1.7c-0.2,0.1-0.4,0.2-0.6,0.3C9.5,52.2,9.4,52.3,9.3,52.2z"/>
			<path fill="#67BD67" d="M18.1,53.5c-0.1,1.1,0,2.3,0,3.4c0,0.3-0.2,0.4-0.5,0.3c-0.7-0.4-1.3-0.8-2-1.2c-0.3-0.2-0.7-0.4-1-0.6
				c-0.4-0.2-0.6-0.6-0.6-1c0-1.1,0-2.1,0-3.1c0-0.2,0-0.4,0.1-0.6c0-0.2,0.1-0.2,0.3-0.2c0.1,0.1,0.3,0.1,0.4,0.2
				c1,0.6,2,1.2,3,1.7c0.2,0.1,0.4,0.4,0.4,0.7C18.1,53.3,18.1,53.4,18.1,53.5z"/>
			<path fill="#67BD67" d="M22.6,47.3c0,0.6,0,1.3,0,1.9c0,0.1,0,0.1,0,0.2c0,0.1-0.1,0.2-0.2,0.1c0,0,0,0,0,0
				c-0.1,0-0.1-0.1-0.2-0.1c-1-0.6-2.1-1.2-3.1-1.8c-0.4-0.2-0.6-0.5-0.5-0.9c0-1.2,0-2.4,0-3.5c0-0.1,0-0.3,0.1-0.4s0.3,0,0.4,0.1
				c1.1,0.6,2.1,1.2,3.2,1.8c0.3,0.1,0.4,0.4,0.4,0.7C22.6,46,22.6,46.6,22.6,47.3z"/>
			<path fill="#67BD67" d="M13.6,47.3v1.8c0,0,0,0.1,0,0.1c0,0.3-0.1,0.3-0.4,0.2c-0.4-0.2-0.7-0.4-1.1-0.6
				c-0.7-0.4-1.4-0.8-2.1-1.2c-0.3-0.1-0.5-0.5-0.5-0.8c0-1.3,0-2.5,0-3.8c0-0.3,0.1-0.4,0.4-0.2c1.1,0.6,2.2,1.2,3.2,1.8
				c0.3,0.2,0.5,0.5,0.5,0.8C13.6,46.1,13.6,46.7,13.6,47.3z"/>
			<path fill="#CCDD7F" d="M18.3,52.3c-0.2,0-0.4-0.1-0.6-0.3c-1-0.6-2-1.2-3-1.7c0,0-0.1,0-0.1,0c-0.2-0.1-0.2-0.3,0-0.4
				c0.3-0.2,0.6-0.4,0.9-0.5c0.8-0.5,1.6-0.9,2.3-1.4c0.3-0.2,0.7-0.2,1,0c1,0.6,2.1,1.2,3.1,1.8c0.4,0.2,0.4,0.4,0,0.6
				c-1.1,0.6-2.1,1.2-3.2,1.8C18.6,52.2,18.4,52.3,18.3,52.3z"/>
			<path fill="#1A7D62" d="M5.1,49.3c0-1.4,0-2.7,0-4c0-0.2,0.1-0.5,0.4-0.6c1.1-0.6,2.2-1.3,3.3-1.9C9,42.6,9.1,42.7,9.1,43
				c0,1.3,0,2.6,0,3.8c0,0.3-0.2,0.5-0.4,0.7l-2.8,1.6c-0.2,0.1-0.3,0.2-0.5,0.3S5.1,49.5,5.1,49.3z"/>
			<path fill="#CCDD7F" d="M13.8,60c-0.2,0-0.3,0-0.5-0.1L10.2,58c-0.1,0-0.1-0.1-0.2-0.1c-0.1-0.1-0.1-0.3,0.1-0.4
				c0.3-0.2,0.6-0.4,1-0.6c0.8-0.4,1.5-0.9,2.3-1.3c0.2-0.2,0.6-0.2,0.8,0c1,0.6,2,1.2,3,1.7c0.1,0.1,0.2,0.1,0.3,0.2
				c0.2,0.1,0.2,0.3,0,0.5c-0.6,0.4-1.3,0.7-1.9,1.1c-0.5,0.3-0.9,0.5-1.4,0.8C14.1,60,14,60,13.8,60z"/>
			<path fill="#67BD67" d="M5,54.7c0-1.1,0-2.1,0-3.2c0-0.3,0-0.5,0-0.8c0-0.3,0.1-0.3,0.4-0.2c1.1,0.6,2.2,1.3,3.3,1.9
				c0.3,0.1,0.4,0.4,0.4,0.7c0,1.2,0,2.5,0,3.7c0,0.1,0,0.1,0,0.2c0,0.1-0.1,0.2-0.2,0.2c0,0,0,0,0,0c-0.1,0-0.1,0-0.2-0.1l-3.3-1.9
				C5.2,55.1,5.1,54.9,5,54.7z"/>
		</g>
	</g>
	<g>
		<g>
			<g id="Layer_2_00000009565328634813365060000015005735967178089917_">
				<g id="Layer_1-2_00000122696267803859534100000016725130170517645720_">
					<path fill="#273643" d="M56.8,49.9v-4.1c0-0.2,0-0.3,0.3-0.3c1.3,0,2.6,0,3.9,0c1.5,0.1,2.8,0.7,3.6,2c0.5,0.8,0.7,1.7,0.6,2.6
						c0,1.1-0.4,2.1-1.2,2.9c-0.7,0.7-1.6,1.1-2.6,1.2c-0.4,0-0.8,0.1-1.2,0.1h-3.1c-0.3,0-0.3,0-0.3-0.3L56.8,49.9z M59.1,49.9
						c0,0.8,0,1.5,0,2.3c0,0.2,0,0.2,0.2,0.2c0.5,0,1,0,1.4,0c0.7,0,1.3-0.3,1.7-0.8c0.5-0.7,0.6-1.4,0.5-2.2
						c-0.1-1.1-1-1.9-2.1-1.9c-0.5,0-0.9,0-1.4,0c-0.2,0-0.2,0-0.2,0.2L59.1,49.9z"/>
					<path fill="#273643" d="M83.7,48.4c0,0.9,0,1.7,0,2.6c-0.1,1.6-1.1,2.9-2.8,3.3c-1.1,0.2-2.2,0.2-3.2-0.2
						c-1.3-0.6-1.9-1.6-2.1-2.9c0-0.6,0-1.2,0-1.7c0-1.2,0-2.4,0-3.5c0-0.3,0-0.3,0.3-0.3h1.8c0.2,0,0.2,0,0.2,0.2
						c0,1.6,0,3.2,0,4.8c0,0.5,0.1,0.9,0.4,1.3c0.4,0.5,1.2,0.7,1.9,0.5c0.6-0.2,1.1-0.8,1.1-1.4c0-0.2,0-0.4,0-0.6c0-1.5,0-3,0-4.5
						c0-0.3,0-0.3,0.3-0.3h1.7c0.3,0,0.3,0,0.3,0.3L83.7,48.4L83.7,48.4z"/>
					<path fill="#273643" d="M74.3,48.4c0,0.8,0,1.7,0,2.5c-0.1,1.8-1.2,3.1-3,3.4c-1.1,0.2-2.2,0.1-3.2-0.4
						c-1.1-0.6-1.7-1.5-1.9-2.8c0-0.3,0-0.7,0-1v-4.4c0-0.2,0-0.3,0.3-0.3c0.6,0,1.2,0,1.8,0c0.2,0,0.2,0.1,0.2,0.2
						c0,1.6,0,3.2,0,4.9c0,0.6,0.2,1.2,0.8,1.5c0.8,0.5,2,0.3,2.4-0.5c0.2-0.3,0.3-0.7,0.3-1v-4.8c0-0.3,0-0.3,0.3-0.3H74
						c0.3,0,0.3,0,0.3,0.3L74.3,48.4L74.3,48.4z"/>
					<path fill="#273643" d="M88.8,45.4c1.1,0,2.2,0.3,3.1,0.8c0.2,0.1,0.2,0.1,0.1,0.4c-0.2,0.5-0.4,0.9-0.6,1.4
						c-0.1,0.2-0.1,0.2-0.3,0.1c-0.7-0.4-1.4-0.6-2.2-0.8c-0.3-0.1-0.6,0-0.9,0c-0.4,0.2-0.5,0.6-0.2,1c0.2,0.2,0.5,0.3,0.8,0.4
						c0.6,0.2,1.3,0.3,1.9,0.6c0.5,0.2,0.9,0.5,1.3,0.9c0.7,0.9,0.8,2.8-0.8,3.6c-0.6,0.3-1.3,0.5-2,0.5c-1.5,0.1-2.9-0.4-4.1-1.2
						c-0.2-0.1-0.2-0.2-0.1-0.4c0.2-0.4,0.4-0.9,0.7-1.3c0.1-0.2,0.2-0.2,0.3-0.1c0.7,0.5,1.5,0.9,2.4,1.1c0.4,0.1,0.7,0.1,1.1,0
						c0.3-0.1,0.5-0.2,0.5-0.5c0-0.3-0.1-0.5-0.4-0.7c-0.4-0.2-0.9-0.3-1.3-0.5c-0.5-0.1-1-0.3-1.4-0.5c-0.9-0.4-1.4-1-1.5-2.1
						c0-1.1,0.5-1.8,1.4-2.3C87.2,45.5,87.9,45.4,88.8,45.4z"/>
					<path fill="#273643" d="M48.1,45.4c1.2,0,2.3,0.3,3.3,0.9c0.2,0.1,0.2,0.1,0.1,0.3c-0.2,0.5-0.4,0.9-0.7,1.4
						c-0.1,0.2-0.1,0.2-0.3,0.1c-0.7-0.4-1.4-0.6-2.2-0.8c-0.3-0.1-0.5,0-0.8,0c-0.2,0.1-0.4,0.2-0.5,0.4c0,0.2,0.1,0.5,0.2,0.6
						c0.3,0.2,0.7,0.3,1,0.5c0.6,0.2,1.2,0.3,1.8,0.6c0.6,0.3,1.2,0.7,1.4,1.4c0.3,1.2,0,2.4-1.4,3.1c-0.8,0.3-1.6,0.5-2.4,0.4
						c-1.3-0.1-2.5-0.5-3.5-1.2c-0.2-0.1-0.2-0.2-0.1-0.4c0.2-0.4,0.4-0.9,0.7-1.3c0.1-0.2,0.2-0.2,0.3-0.1c0.8,0.6,1.7,1,2.7,1.1
						c0.3,0.1,0.6,0,0.9-0.1c0.2-0.1,0.4-0.3,0.4-0.5c0-0.3-0.1-0.5-0.3-0.6c-0.3-0.2-0.6-0.3-0.9-0.4c-0.5-0.2-1.1-0.3-1.6-0.5
						c-0.4-0.1-0.7-0.3-1-0.6c-0.7-0.6-0.9-1.3-0.7-2.1c0.2-1.1,0.9-1.7,1.9-2.1C47.1,45.5,47.6,45.4,48.1,45.4z"/>
					<path fill="#273643" d="M40.1,45.4c1.1,0,2.3,0.3,3.3,0.8c0.2,0.1,0.2,0.2,0.1,0.4L42.8,48c-0.1,0.2-0.1,0.3-0.4,0.1
						c-0.7-0.4-1.4-0.6-2.2-0.8c-0.3-0.1-0.6,0-0.8,0c-0.2,0-0.4,0.2-0.5,0.4c0,0.2,0,0.5,0.2,0.6c0.3,0.2,0.6,0.3,1,0.4
						c0.7,0.2,1.3,0.4,2,0.7c0.6,0.3,1.1,0.7,1.3,1.4c0.4,1.2,0,2.5-1.5,3.2c-0.8,0.3-1.7,0.4-2.6,0.3c-1.1-0.1-2.2-0.5-3.1-1.2
						C36,53,36,53,36.1,52.7c0.2-0.4,0.4-0.9,0.6-1.3c0.1-0.2,0.2-0.2,0.3-0.1c0.8,0.6,1.7,1,2.7,1.1c0.3,0.1,0.6,0,0.9-0.1
						c0.3-0.1,0.5-0.4,0.4-0.8c0-0.2-0.1-0.3-0.3-0.4c-0.3-0.2-0.8-0.3-1.2-0.5c-0.6-0.2-1.2-0.3-1.7-0.6c-0.8-0.4-1.3-0.9-1.4-1.8
						c-0.1-1.2,0.4-2.1,1.5-2.6C38.7,45.5,39.4,45.4,40.1,45.4z"/>
					<path fill="#273643" d="M34.6,54.3c-0.3,0-0.6,0-0.9,0c-0.2,0-0.3-0.1-0.3-0.2c-0.7-1.9-1.5-3.8-2.2-5.7c0,0,0-0.1,0-0.1
						c0-0.1-0.1-0.1-0.1-0.1c-0.1,0-0.1,0.1-0.1,0.1c-0.1,0.3-0.3,0.7-0.4,1c-0.6,1.6-1.3,3.2-1.9,4.8c0,0.1-0.2,0.2-0.3,0.2
						c-0.6,0-1.2,0-1.8,0c-0.2,0-0.3-0.1-0.2-0.3c1.2-2.8,2.4-5.5,3.6-8.3c0-0.1,0.1-0.2,0.2-0.2c0.7,0,1.3,0,2,0
						c0.1,0,0.3,0.1,0.3,0.2c1,2.4,2,4.8,3,7.3c0.1,0.3,0.3,0.7,0.4,1c0.1,0.2,0,0.3-0.2,0.3C35.3,54.3,35,54.3,34.6,54.3z"/>
					<path fill="#293845" d="M55.1,49.9c0,1.4,0,2.7,0,4.1c0,0.3,0,0.3-0.3,0.3H53c-0.2,0-0.3,0-0.3-0.3c0-2.7,0-5.5,0-8.2
						c0-0.2,0-0.3,0.3-0.3h1.8c0.2,0,0.2,0,0.2,0.2C55.1,47.2,55.1,48.5,55.1,49.9z"/>
					<path fill="#293845" d="M31,53.4h-0.9c-0.2,0-0.3-0.1-0.2-0.3c0.3-0.8,0.6-1.6,1-2.4c0-0.1,0.1-0.2,0.2-0.2s0.1,0.1,0.2,0.2
						c0.3,0.8,0.6,1.6,0.9,2.4c0.1,0.2,0,0.3-0.2,0.3H31z"/>
				</g>
			</g>
			<g>
				<path d="M93.1,44.1h-0.5v-0.2h1.2v0.2h-0.5v1.3h-0.2V44.1z"/>
				<path d="M95.4,45.4l0-1.1l-0.5,0.9h-0.1l-0.5-0.9v1.1H94v-1.5h0.2l0.6,1.1l0.6-1.1h0.2l0,1.5H95.4z"/>
			</g>
		</g>
	</g>
</g>
</svg>
