<?xml version="1.0" encoding="UTF-8"?>
<svg id="Layer_1" xmlns="http://www.w3.org/2000/svg" baseProfile="tiny-ps" version="1.2" viewBox="0 0 250 250">
  <!-- Generator: Adobe Illustrator 29.0.0, SVG Export Plug-In . SVG Version: 2.1.0 Build 186)  -->
<title>FISDOM</title>
  <rect x="0" width="250" height="250" fill="#fff"/>
  <g>
    <path d="M128.4,148.6v-57.3c0-1.1.5-2.1,1.5-2.7l77.1-50.3c2.2-1.5,5.2,0,5.2,2.7v55.4c0,2.3-1.2,4.4-3.1,5.7l-75.4,49.2c-2.2,1.5-5.2,0-5.2-2.7Z" fill="#53ba5d"/>
    <path d="M118.3,208.7v-120.6c0-1.1-.6-2.1-1.6-2.7L42.2,40.8c-1.9-1.1-4.4.2-4.4,2.3v121.8c0,1.1.6,2.1,1.6,2.7l73.4,44c2.4,1.4,5.5-.2,5.5-2.9Z" fill="#523d98"/>
    <path d="M128.4,208.8v-40.4c0-1.1.5-2,1.5-2.6l46.9-30.9c2.2-1.5,5.2,0,5.2,2.6v37.8c0,2.7-1.4,5.2-3.7,6.8l-44.7,29.4c-2.2,1.5-5.2,0-5.2-2.6Z" fill="#7565ad"/>
  </g>
</svg>