<?xml version="1.0" encoding="utf-8"?>
<!-- Generator: Adobe Illustrator 24.1.0, SVG Export Plug-In . SVG Version: 6.00 Build 0)  -->
<svg version="1.2" baseProfile="tiny-ps" id="Layer_1" xmlns="http://www.w3.org/2000/svg" xmlns:xlink="http://www.w3.org/1999/xlink"
viewBox="0 0 967.5 967.5" xml:space="preserve">
<title>CNN</title>
<path fill="#CC0000" d="M779.5,323.2v261.4c0,10.4-6.5,19.1-16.2,21.8c-1.9,0.5-3.8,0.8-5.7,0.8c-7.4,0-15.8-3.7-22-14.1L674,486.9
	l-61.3-105.8c-3.4-5.8-8.2-8.5-12.7-7.3c-3.9,1-6.4,4.6-6.4,9v201.8c0,10.4-6.5,19.1-16.2,21.8c-8.3,2.2-19.9-0.1-27.7-13.3
	l-56.2-96.9l-66.7-115c-3.4-5.8-8.2-8.5-12.8-7.3c-4,1.1-6.6,4.9-6.4,9v197.3c0,13-11.4,24.4-24.4,24.4H283
	c-66.8,0-120.9-54.1-120.9-120.8c0-66.8,54.1-120.9,120.8-120.9h0.1h52v-39.6h-52c-88.6,1-159.7,73.7-158.7,162.3
	c1,87.2,71.5,157.7,158.7,158.7h101.2c38.5,0,63.2-22.5,63.1-64.1v-91.5c0,0,64.5,111.2,67.5,116.2c41,69.6,118.4,40.8,118.4-19.1
	v-97.1c0,0,64.5,111.2,67.5,116.2c41,69.6,118.4,40.8,118.4-19.1V323.2H779.5z"/>
<path fill="#CC0000" d="M175.3,483.7c0.1,59.4,48.2,107.6,107.7,107.7h100.2c6.3,0,11.2-6,11.2-11.2V382.9
	c0-10.4,6.5-19.1,16.2-21.8c8.3-2.2,19.9,0.1,27.7,13.3c0.4,0.7,34.1,58.9,66.8,115.1c28.7,49.4,55.7,96,56.2,96.8
	c3.4,5.8,8.2,8.5,12.8,7.3c4-1.1,6.6-4.9,6.4-9V382.9c0-10.4,6.5-19.1,16.1-21.8c8.2-2.2,19.8,0.1,27.6,13.3
	c0.4,0.7,30,51.7,61.4,105.8c30,51.7,61,105.2,61.6,106.1c3.4,5.8,8.2,8.5,12.8,7.3c4-1.1,6.6-4.9,6.4-9V323.2h-39.7v155.7
	c0,0-64.5-111.2-67.5-116.2c-41-69.6-118.4-40.8-118.4,19.1v97.1c0,0-64.5-111.2-67.5-116.2c-41-69.6-118.4-40.8-118.4,19.1v159.1
	c0.1,5.9-4.5,10.7-10.3,10.8c-0.1,0-0.2,0-0.3,0h-60.8c-37.6,0-68-30.4-68-68s30.4-68,68-68H335V376h-52
	C223.6,376.1,175.4,424.3,175.3,483.7z"/>
</svg>
