<?xml version="1.0" encoding="UTF-8" standalone="yes"?>
<svg version="1.2" baseProfile="tiny-ps" viewBox="0 0 274.8 275.4" xml:space="preserve" xmlns="http://www.w3.org/2000/svg">
  <title>bimi-svg-tiny-12-ps</title>
  <rect x="21.5" y="21.8" fill="#FFFFFF" width="231.7" height="231.7"/>
  <path id="SBS_12_" fill="#001A4B" d="M98.2,110l-0.7,0.3h-3.7l-0.5-0.3c0.9-3.4,1.4-5.5,1.5-6.4s-1.8-2-5.6-3.3c-3.8-1.3-8.1-2-13-2&#xD;&#xA;&#x9;c-4.1,0-8,0.5-11.8,1.4c-3.8,1-7,2.5-9.4,4.5c-2.4,2.1-4,4.2-4.6,6.3c-0.5,1.7-0.4,3.1,0.3,4.4s1.8,2.3,3.4,3.1&#xD;&#xA;&#x9;c1.5,0.7,3.4,1.3,5.6,1.7c2.2,0.4,6.3,0.8,12.3,1.4c8.2,0.7,14.2,1.6,17.7,2.6c3.6,1,6.2,2.6,7.8,4.8c1.7,2.2,2.1,4.8,1.1,7.9&#xD;&#xA;&#x9;c-1.8,6-7.4,11.1-16.9,15.1s-20.2,6-32,6c-9.9,0-18.3-1-25.1-3.1l-0.3-0.5c1-1.8,2.6-6,4.8-12.5l0.7-0.3h3.5l0.5,0.3&#xD;&#xA;&#x9;c-0.8,3.6-1.2,5.9-1,6.7s1.2,1.7,3.1,2.6s4.6,1.6,8,2.2c3.5,0.6,7,0.9,10.7,0.9c5.1,0,9.8-0.5,14.2-1.6c4.4-1.1,8-2.7,10.9-4.9&#xD;&#xA;&#x9;c2.9-2.1,4.7-4.5,5.5-7.2c0.5-1.9,0.5-3.5-0.2-4.9c-0.6-1.4-1.8-2.5-3.5-3.3s-3.7-1.5-6.1-1.9s-5.9-0.9-10.7-1.3&#xD;&#xA;&#x9;c-4.6-0.5-8.3-0.9-10.9-1.2c-2.6-0.4-5.1-0.9-7.6-1.7c-2.5-0.8-4.4-1.7-5.9-2.9c-1.4-1.2-2.5-2.6-3-4.4c-0.6-1.7-0.6-3.6,0-5.5&#xD;&#xA;&#x9;c1.6-5.3,6-9.7,13.2-13c7.2-3.4,16.1-5.1,26.6-5.1c4.2,0,8.6,0.3,13.3,0.9c4.7,0.6,8.9,1.5,12.6,2.7l0.4,0.5&#xD;&#xA;&#x9;C101.6,101.5,99.8,105.2,98.2,110L98.2,110z M177,107.7c-0.9,3.1-3.7,6.1-8.4,8.8c-4.6,2.7-11.4,4.6-20.4,5.8&#xD;&#xA;&#x9;c5.1,0.3,9.2,0.7,12.4,1.2s5.8,1.4,7.9,2.5c2.1,1.1,3.6,2.6,4.5,4.4c0.9,1.8,1,3.9,0.3,6.2c-0.5,1.9-1.6,3.7-3.1,5.6&#xD;&#xA;&#x9;c-1.5,1.9-3.8,3.8-7,5.7c-3.1,1.9-6.7,3.5-10.7,4.8s-8,2.3-12,2.9c-4,0.6-8.8,0.9-14.4,0.9c-1.2,0-4.6-0.1-10.3-0.2&#xD;&#xA;&#x9;c-6.3-0.1-9.8-0.1-10.3-0.1c-3.2,0-7.3,0.1-12.1,0.3l-0.5-0.3l0.4-1.4l0.7-0.4c3-0.7,4.7-1.2,5.3-1.5c0.5-0.3,1.6-2.8,3.3-7.5&#xD;&#xA;&#x9;c1.7-4.7,2.9-8.4,3.6-10.9l4.7-15.6l2.8-9.7c0.6-2.1,1.1-3.8,1.4-5.1c0.3-1.3,0.5-2.3,0.5-2.8c0-0.6-0.2-1-0.5-1.2s-0.8-0.4-1.5-0.6&#xD;&#xA;&#x9;c-0.6-0.1-1.8-0.3-3.4-0.4l-5.4-0.3l-0.5-0.3l0.6-2.1l0.7-0.3c8.1,0.2,14.4,0.3,18.8,0.3c1.7,0,8.3-0.1,20-0.3&#xD;&#xA;&#x9;c3.8-0.1,6.5-0.1,8.1-0.1c6.5,0,11.5,0.4,15,1.1c3.6,0.8,6.2,2.1,7.9,4.1C177.3,103.1,177.7,105.3,177,107.7L177,107.7z&#xD;&#xA;&#x9; M118.6,139.1l-3.7,13c3.5,0.5,7.2,0.8,11.1,0.8c6.8,0,12.4-0.7,16.7-2s7.7-3.1,10.2-5.4c2.5-2.3,4.2-4.8,5-7.6&#xD;&#xA;&#x9;c1.2-4.1,0.2-7.4-2.9-9.8c-3.2-2.5-11.2-3.7-24.2-3.7c-2.2,0-4.8,0.1-7.8,0.2L118.6,139.1L118.6,139.1z M161.4,104&#xD;&#xA;&#x9;c-1.1-1.5-3-2.6-6-3.4c-2.9-0.8-7.1-1.2-12.6-1.2c-4.4,0-8.4,0.2-12,0.6c-1.2,2.6-2.7,7-4.6,13.4l-2.3,7.6c2.4,0.1,5,0.2,8.1,0.2&#xD;&#xA;&#x9;c9.9,0,17.1-1,21.6-3.2c4.5-2.1,7.3-5,8.4-8.6C162.7,107.3,162.4,105.5,161.4,104L161.4,104z M243,110l-0.7,0.3h-3.7l-0.5-0.3&#xD;&#xA;&#x9;c0.9-3.4,1.4-5.5,1.5-6.4s-1.8-2-5.6-3.3s-8.1-2-13-2c-4.1,0-8,0.5-11.8,1.4c-3.8,1-7,2.5-9.4,4.5c-2.4,2.1-4,4.2-4.6,6.3&#xD;&#xA;&#x9;c-0.5,1.7-0.4,3.1,0.3,4.4s1.8,2.3,3.4,3.1c1.5,0.7,3.4,1.3,5.6,1.7c2.2,0.4,6.3,0.8,12.3,1.4c8.2,0.7,14.2,1.6,17.7,2.6&#xD;&#xA;&#x9;c3.6,1,6.2,2.6,7.8,4.8c1.7,2.2,2.1,4.8,1.1,7.9c-1.8,6-7.4,11.1-16.9,15.1s-20.2,6-32,6c-9.9,0-18.3-1-25.1-3.1l-0.3-0.5&#xD;&#xA;&#x9;c1-1.8,2.6-6,4.8-12.5l0.7-0.3h3.5l0.5,0.3c-0.8,3.6-1.2,5.9-1,6.7s1.2,1.7,3.1,2.6s4.6,1.6,8,2.2c3.5,0.6,7,0.9,10.7,0.9&#xD;&#xA;&#x9;c5.1,0,9.8-0.5,14.2-1.6s8-2.7,10.9-4.9c2.9-2.1,4.7-4.5,5.5-7.2c0.5-1.9,0.5-3.5-0.2-4.9c-0.6-1.4-1.8-2.5-3.5-3.3&#xD;&#xA;&#x9;s-3.7-1.5-6.1-1.9c-2.4-0.4-5.9-0.9-10.7-1.3c-4.6-0.5-8.3-0.9-10.9-1.2c-2.6-0.4-5.1-0.9-7.6-1.7c-2.5-0.8-4.4-1.7-5.9-2.9&#xD;&#xA;&#x9;c-1.4-1.2-2.5-2.6-3-4.4c-0.6-1.7-0.6-3.6,0-5.5c1.6-5.3,6-9.7,13.2-13c7.2-3.4,16.1-5.1,26.6-5.1c4.2,0,8.6,0.3,13.3,0.9&#xD;&#xA;&#x9;s8.9,1.5,12.6,2.7l0.4,0.5C246.4,101.5,244.7,105.2,243,110L243,110z"/>
  <path fill="#808285" d="M81.4,159.1c-0.2-1.2-1.3-1.9-2.5-1.7H79c-0.2-0.6-0.8-1-1.4-0.9l-0.9,0.2c-0.2-1.1-0.5-2.1-0.9-3.1l0,0&#xD;&#xA;&#x9;c-0.5-1.2-1.2-2.4-2-3.4c0,0,0,0-0.1-0.1c-3.2-4.1-8.3-6.3-13.4-5.3c-4.7,0.9-8.4,4.4-10,8.8c1.4,0.1,2.8,0.1,4.2,0.1&#xD;&#xA;&#x9;c0.7,0,1.5,0,2.2,0c1.1-1.5,2.8-2.6,4.7-3c2.3-0.4,4.5,0.2,6.3,1.5c1.1,0.8,2,1.8,2.6,3c0.4,0.8,0.7,1.6,0.9,2.6l-1.4,0.3&#xD;&#xA;&#x9;c-0.6,0.1-1,0.7-1,1.3l-11.1,2.2c-0.2-0.6-0.8-1-1.4-0.9l-1.4,0.3c-0.2-1.2-0.2-2.3,0-3.3c-1.8,0.1-3.6,0.1-5.4,0.2h-0.3&#xD;&#xA;&#x9;c-0.1,1.4,0,2.8,0.2,4.3l-0.9,0.2c-0.6,0.1-1,0.7-1,1.3h0.1c-1.2,0.2-1.9,1.3-1.7,2.5l1.8,9.3l35.2-6.9L81.4,159.1z"/>
  <path fill="#808285" d="M84.7,175.9l0.4-0.1l0.1,0.3l-0.4,0.1l0.2,1c0.2,1.2-0.5,2.4-1.6,2.7l-11.8,2.3l0.1,0.3&#xD;&#xA;&#x9;c0.1,0.4-0.2,0.8-0.5,0.9l-6.1,1.2c-0.4,0.1-0.8-0.2-0.8-0.6l-0.1-0.3L52.3,186c-1.2,0.2-2.3-0.6-2.5-1.9l-0.2-1l-0.4,0.1l-0.1-0.3&#xD;&#xA;&#x9;l0.4-0.1l0,0L84.7,175.9L84.7,175.9z"/>
  <g>
    <path fill="#001A4B" d="M102.5,176.8c-1.1,0.5-2.6,0.8-4.4,0.8c-2.4,0-4.2-0.7-5.6-2.1c-1.4-1.4-2-3.2-2-5.6c0-2.5,0.8-4.5,2.3-6&#xD;&#xA;&#x9;&#x9;s3.5-2.3,5.9-2.3c1.5,0,2.8,0.2,3.8,0.6v3.3c-1-0.6-2.2-0.9-3.5-0.9c-1.4,0-2.6,0.5-3.5,1.4s-1.3,2.2-1.3,3.7s0.4,2.7,1.3,3.6&#xD;&#xA;&#x9;&#x9;c0.8,0.9,2,1.3,3.4,1.3s2.6-0.3,3.7-1v3.2H102.5z"/>
    <path fill="#001A4B" d="M116.3,166.3l-4.5,11.9c-1.1,2.9-2.7,4.3-4.9,4.3c-0.8,0-1.5-0.1-2-0.3v-2.7c0.5,0.3,0.9,0.4,1.5,0.4&#xD;&#xA;&#x9;&#x9;c0.9,0,1.5-0.4,1.8-1.2l0.6-1.4l-4.5-11h3.8l2.1,6.7c0.1,0.4,0.2,0.9,0.3,1.5l0,0c0.1-0.4,0.2-0.9,0.4-1.5l2.1-6.7H116.3&#xD;&#xA;&#x9;&#x9;L116.3,166.3z"/>
    <path fill="#001A4B" d="M122,176.1L122,176.1v1.3h-3.4V161h3.4v7l0,0c0.8-1.3,2-1.9,3.6-1.9c1.4,0,2.5,0.5,3.3,1.5&#xD;&#xA;&#x9;&#x9;c0.8,1,1.2,2.3,1.2,4c0,1.8-0.5,3.3-1.3,4.4s-2.1,1.7-3.6,1.7C123.7,177.6,122.7,177.1,122,176.1z M121.9,171.4v1.1&#xD;&#xA;&#x9;&#x9;c0,0.7,0.2,1.3,0.6,1.8s0.9,0.7,1.6,0.7c0.8,0,1.4-0.3,1.8-0.9c0.4-0.6,0.6-1.4,0.6-2.5c0-0.9-0.2-1.6-0.6-2.1s-1-0.8-1.7-0.8&#xD;&#xA;&#x9;&#x9;s-1.2,0.3-1.7,0.8C122.1,169.9,121.9,170.6,121.9,171.4z"/>
    <path fill="#001A4B" d="M143,172.8h-7.2c0.1,1.6,1.1,2.4,3,2.4c1.2,0,2.3-0.3,3.2-0.9v2.5c-1,0.5-2.3,0.8-4,0.8&#xD;&#xA;&#x9;&#x9;c-1.8,0-3.2-0.5-4.2-1.5s-1.5-2.4-1.5-4.1c0-1.8,0.5-3.3,1.6-4.4c1.1-1.1,2.4-1.6,3.9-1.6c1.6,0,2.9,0.5,3.7,1.4&#xD;&#xA;&#x9;&#x9;c0.9,1,1.3,2.3,1.3,3.9L143,172.8L143,172.8z M139.9,170.7c0-1.6-0.6-2.4-1.9-2.4c-0.5,0-1,0.2-1.4,0.7s-0.6,1-0.7,1.7H139.9z"/>
    <path fill="#001A4B" d="M153.1,169.4c-0.4-0.2-0.9-0.3-1.4-0.3c-0.7,0-1.3,0.3-1.7,0.8s-0.6,1.3-0.6,2.2v5.3H146v-11h3.4v2.1l0,0&#xD;&#xA;&#x9;&#x9;c0.5-1.5,1.5-2.2,2.9-2.2c0.4,0,0.6,0,0.8,0.1V169.4L153.1,169.4z"/>
    <path fill="#001A4B" d="M155.2,176.8v-3.5c0.6,0.5,1.3,0.9,2,1.2s1.5,0.4,2.2,0.4c0.4,0,0.8,0,1.1-0.1s0.6-0.2,0.8-0.3&#xD;&#xA;&#x9;&#x9;s0.4-0.3,0.5-0.5s0.2-0.4,0.2-0.6c0-0.3-0.1-0.6-0.3-0.8s-0.4-0.5-0.7-0.7s-0.7-0.4-1.1-0.6c-0.4-0.2-0.9-0.4-1.3-0.6&#xD;&#xA;&#x9;&#x9;c-1.2-0.5-2.1-1.1-2.7-1.8c-0.6-0.7-0.9-1.6-0.9-2.6c0-0.8,0.2-1.5,0.5-2.1s0.8-1.1,1.3-1.4c0.6-0.4,1.2-0.6,1.9-0.8&#xD;&#xA;&#x9;&#x9;s1.5-0.3,2.3-0.3s1.5,0.1,2.1,0.1c0.6,0.1,1.2,0.2,1.7,0.4v3.2c-0.3-0.2-0.5-0.3-0.8-0.5c-0.3-0.1-0.6-0.3-0.9-0.3s-0.6-0.2-1-0.2&#xD;&#xA;&#x9;&#x9;c-0.3,0-0.6-0.1-0.9-0.1c-0.4,0-0.8,0-1.1,0.1s-0.6,0.2-0.8,0.3s-0.4,0.3-0.5,0.5s-0.2,0.4-0.2,0.6c0,0.3,0.1,0.5,0.2,0.7&#xD;&#xA;&#x9;&#x9;c0.1,0.2,0.3,0.4,0.6,0.6c0.3,0.2,0.6,0.4,0.9,0.5c0.4,0.2,0.8,0.4,1.2,0.5c0.6,0.3,1.2,0.5,1.7,0.8s0.9,0.6,1.3,1&#xD;&#xA;&#x9;&#x9;c0.4,0.4,0.6,0.8,0.8,1.3s0.3,1,0.3,1.6c0,0.9-0.2,1.6-0.5,2.2c-0.3,0.6-0.8,1.1-1.3,1.4s-1.2,0.6-2,0.8c-0.7,0.2-1.5,0.2-2.4,0.2&#xD;&#xA;&#x9;&#x9;c-0.8,0-1.7-0.1-2.4-0.2C156.4,177.3,155.8,177,155.2,176.8z"/>
    <path fill="#001A4B" d="M178.8,172.8h-7.2c0.1,1.6,1.1,2.4,3,2.4c1.2,0,2.3-0.3,3.2-0.9v2.5c-1,0.5-2.3,0.8-4,0.8&#xD;&#xA;&#x9;&#x9;c-1.8,0-3.2-0.5-4.2-1.5s-1.5-2.4-1.5-4.1c0-1.8,0.5-3.3,1.6-4.4c1.1-1.1,2.4-1.6,3.9-1.6c1.6,0,2.9,0.5,3.7,1.4&#xD;&#xA;&#x9;&#x9;c0.9,1,1.3,2.3,1.3,3.9L178.8,172.8L178.8,172.8z M175.6,170.7c0-1.6-0.6-2.4-1.9-2.4c-0.5,0-1,0.2-1.4,0.7s-0.6,1-0.7,1.7H175.6z"/>
    <path fill="#001A4B" d="M190,176.9c-0.8,0.4-1.9,0.7-3.3,0.7c-1.7,0-3.1-0.5-4.1-1.5s-1.6-2.4-1.6-4c0-1.9,0.6-3.4,1.7-4.4&#xD;&#xA;&#x9;&#x9;c1.1-1.1,2.6-1.6,4.5-1.6c1.3,0,2.2,0.2,2.8,0.5v2.9c-0.7-0.5-1.5-0.8-2.4-0.8c-1,0-1.8,0.3-2.3,0.9s-0.9,1.4-0.9,2.4&#xD;&#xA;&#x9;&#x9;s0.3,1.7,0.8,2.3s1.3,0.8,2.3,0.8c0.8,0,1.7-0.3,2.5-0.8V176.9L190,176.9z"/>
    <path fill="#001A4B" d="M203.6,177.3h-3.4v-1.7h-0.1c-0.8,1.3-2,2-3.4,2c-2.6,0-3.8-1.5-3.8-4.6v-6.7h3.4v6.4&#xD;&#xA;&#x9;&#x9;c0,1.6,0.6,2.3,1.9,2.3c0.6,0,1.1-0.2,1.5-0.6s0.6-1,0.6-1.7v-6.3h3.4L203.6,177.3L203.6,177.3z"/>
    <path fill="#001A4B" d="M214.6,169.4c-0.4-0.2-0.9-0.3-1.4-0.3c-0.7,0-1.3,0.3-1.7,0.8s-0.6,1.3-0.6,2.2v5.3h-3.4v-11h3.4v2.1l0,0&#xD;&#xA;&#x9;&#x9;c0.5-1.5,1.5-2.2,2.9-2.2c0.4,0,0.6,0,0.8,0.1V169.4L214.6,169.4z"/>
    <path fill="#001A4B" d="M218.9,164.6c-0.6,0-1-0.2-1.4-0.5s-0.6-0.8-0.6-1.3s0.2-0.9,0.6-1.2c0.4-0.3,0.8-0.5,1.4-0.5&#xD;&#xA;&#x9;&#x9;c0.6,0,1.1,0.2,1.4,0.5c0.4,0.3,0.5,0.7,0.5,1.2s-0.2,0.9-0.5,1.3C219.9,164.4,219.4,164.6,218.9,164.6z M220.6,177.3h-3.4v-11h3.4&#xD;&#xA;&#x9;&#x9;V177.3z"/>
    <path fill="#001A4B" d="M231,177.2c-0.5,0.3-1.3,0.4-2.3,0.4c-2.4,0-3.6-1.2-3.6-3.7v-5.1h-1.8v-2.5h1.8v-2.4l3.4-1v3.3h2.5v2.5&#xD;&#xA;&#x9;&#x9;h-2.5v4.5c0,1.1,0.5,1.7,1.4,1.7c0.4,0,0.7-0.1,1.1-0.3L231,177.2L231,177.2z"/>
    <path fill="#001A4B" d="M244.3,166.3l-4.5,11.9c-1.1,2.9-2.7,4.3-4.9,4.3c-0.8,0-1.5-0.1-2-0.3v-2.7c0.5,0.3,0.9,0.4,1.5,0.4&#xD;&#xA;&#x9;&#x9;c0.9,0,1.5-0.4,1.8-1.2l0.6-1.4l-4.5-11h3.8l2.1,6.7c0.1,0.4,0.2,0.9,0.3,1.5l0,0c0.1-0.4,0.2-0.9,0.4-1.5l2.1-6.7H244.3&#xD;&#xA;&#x9;&#x9;L244.3,166.3z"/>
  </g>
  <polygon fill="#808285" points="84.1,172.6 84.5,172.5 84.6,173 84.2,173.1 84.5,174.6 49.3,181.5 49,179.9 48.6,180 48.5,179.5 &#xD;&#xA;&#x9;48.9,179.5 48.9,179.5 "/>
  <polygon fill="#808285" points="83.9,169.3 84,169.9 83.6,169.9 83.9,171.6 48.7,178.5 48.4,176.8 48,176.9 47.9,176.4 "/>
</svg>