<?xml version="1.0" encoding="UTF-8"?>
<!-- Generator: Adobe Illustrator 25.4.1, SVG Export Plug-In . SVG Version: 6.00 Build 0) -->
<svg version="1.2" baseProfile="tiny-ps" id="Layer_1" xmlns="http://www.w3.org/2000/svg" xmlns:xlink="http://www.w3.org/1999/xlink" viewBox="0 0 128 128">
    <title>Emphasis</title>
    <rect fill="#9BAFAE" width="128" height="128" />
    <path fill="#FFFFFF" d="M98.49,23.69c-0.21,0.1-0.41,0.3-0.61,0.6L78.75,64.07L61.98,23.55h-3.54L45.16,55.63L30.01,24.3  c-0.19-0.31-0.39-0.51-0.61-0.6c-0.21-0.09-0.47-0.14-0.78-0.14h-7.42v80.9h6.35c0.69,0,1.13-0.33,1.32-0.98l15.33-37.23l18,37.23  c0.38,0.65,0.86,0.98,1.44,0.98h0.83c0.54,0,1-0.33,1.38-0.98l13.83-28.63l11.79,28.63c0.27,0.65,0.69,0.98,1.26,0.98h2.72  L81.59,70.92l2.22-4.6l15.32,37.16c0.27,0.65,0.69,0.98,1.26,0.98h6.39v-80.9h-7.53C98.96,23.55,98.7,23.6,98.49,23.69z   M27.96,97.18V34.67l-0.02-2.09L42.36,62.4L27.96,97.18z M47,59.46L58.97,30.4l1.21-2.91l1.21,2.91l1.05,2.56L49.41,64.44L47,59.46z   M64.03,94.68L51.28,68.31l12.85-31.25l12.74,30.93L64.03,94.68z M100.11,97.18l-14.4-34.79l14.4-29.81V97.18z" />
</svg>
