<?xml version="1.0" encoding="UTF-8"?>
<!-- Generator: Adobe Illustrator 25.4.1, SVG Export Plug-In . SVG Version: 6.00 Build 0) -->
<svg version="1.2" baseProfile="tiny-ps" id="Layer_1" xmlns="http://www.w3.org/2000/svg" xmlns:xlink="http://www.w3.org/1999/xlink" viewBox="0 0 128 128">
    <title>Chow Sang Sang</title>
    <rect fill="#C6BC98" width="128" height="128" />
    <g>
        <path fill="#58595B" d="M26.51,82.71l-1.26,0.9v16.1l1.26,1.26V88.1h2.09v11.61l1.28,1.26V86.83H26.5v-4.12H26.51z M32.71,100.88   l1.27-1.23V88.1h2.08v11.54l1.26,1.23V86.83h-4.61C32.71,86.83,32.71,100.88,32.71,100.88z M33.94,99.68l-1.23,1.2h4.61l-1.23-1.2   H33.94z M46.05,88.07v11.58h-1.71V86.83l-1.26,1.24v11.58h-1.65V86.83l-1.27,1.24v12.81h7.15V86.83L46.05,88.07z M17.37,91.67   c0,4.24,2.24,7.97,4.51,9.18v-1.59c-1.61-1.25-3.09-4.07-3.09-7.57s1.48-6.22,3.09-7.47v-1.74C19.61,83.7,17.37,87.43,17.37,91.67" />
        <path fill="#58595B" d="M74.71,86.83v14.05h3.35v2.51h-2.21l-1.23,1.27h4.69V86.83H74.71z M78.06,99.61h-2.08V88.1h2.08V99.61z    M67.23,99.71l1.26,1.26V88.1h2.08v11.54l1.26,1.23V86.83h-4.6C67.23,86.83,67.23,99.71,67.23,99.71z M59.55,88.1h3.56v2.54h-3.35   v10.23h4.61V86.83h-3.6L59.55,88.1z M63.11,99.61h-2.08v-7.7h2.08V99.61z M54.43,86.74c-0.18-1.36,0.15-2.52,1.4-3.12v-1.51   c-2.52,0.95-3.12,3.49-2.71,5.15c0.25,1.01,0.66,1.65,1.36,2.71c1.02,1.52,1.92,3.46,1.59,5.44c-0.3,1.84-1.32,3.33-2.75,4.28v1.35   c0.02,0.01,0.04,0.02,0.05,0.01c2.02-1.11,3.55-3.03,3.95-5.45c0.39-2.36-0.54-4.5-1.83-6.44C54.9,88.27,54.54,87.54,54.43,86.74" />
        <path fill="#58595B" d="M106.03,86.83v14.05h3.35v2.51h-2.2l-1.23,1.27h4.69V86.83H106.03z M109.37,99.61h-2.08V88.1h2.08V99.61z    M98.55,99.71l1.26,1.26V88.1h2.08v11.54l1.26,1.23V86.83h-4.6C98.55,86.83,98.55,99.71,98.55,99.71z M90.87,88.1h3.56v2.54h-3.34   v10.23h4.61V86.83h-3.6L90.87,88.1z M94.43,99.65h-2.08v-7.73h2.08V99.65z M85.71,86.74c-0.18-1.36,0.15-2.52,1.4-3.12v-1.51   c-2.52,0.95-3.09,3.49-2.67,5.15c0.25,1.01,0.65,1.65,1.36,2.71c1.02,1.52,1.92,3.46,1.59,5.44c-0.3,1.84-1.32,3.33-2.75,4.28v1.35   c0.02,0.01,0.04,0.02,0.05,0.01c2.03-1.11,3.52-3.03,3.91-5.45c0.39-2.36-0.53-4.5-1.83-6.44C86.17,88.27,85.82,87.54,85.71,86.74" />
        <path fill="#58595B" d="M43.26,26.92v46.65H39.6l-2.58,3.56h9.8V23.35L43.26,26.92z M27.72,43.83l1.37,3.08h10.29l1.61-3.08h-4.87   v-4.3h4.06l1.49-3.31h-5.55V28.7l-3.38,1.95v5.58h-5.69l1.49,3.31h4.21v4.3h-5.03V43.83z M39.54,49.72H29.03v18.37h10.51V49.72z    M36.31,64.78h-3.92V53.09h3.92C36.31,53.09,36.31,64.78,36.31,64.78z M21.84,23.35l0.05,0.05h-0.06v28.1   c0,6.21-0.1,17.05-4.47,23.06L19.92,77c5.48-5.47,5.4-19.91,5.45-25.5V26.88l0.03,0.04h17.86l3.55-3.56H21.84V23.35z" />
        <path fill="#58595B" d="M76.65,73.53h-7.71V55.98h6.03l1.42-3.55h-7.44V42.2h6.98l1.59-3.55h-8.57v-15.3L65.18,25v13.65h-4.8   c0.64-4.31,0.36-9.53-0.13-13.04l-3.44,1.46c0.55,5.21,0.44,12.46-1.17,15.14l0,0h9.54v10.23h-7.44l1.62,3.55h5.82v17.55h-7.94   l-2.35,3.69h24.33L76.65,73.53z" />
        <path fill="#58595B" d="M108.05,73.53h-7.81V55.98h6.03l1.42-3.55h-7.45V42.2h7.02l1.59-3.55h-8.61v-15.3L96.49,25v13.65h-4.77   c0.64-4.31,0.36-9.53-0.14-13.04l-3.44,1.46c0.55,5.21,0.44,12.46-1.17,15.14l0,0h9.51v10.23h-7.44l1.63,3.55h5.82v17.55h-7.84   l-2.35,3.69h24.33L108.05,73.53z" />
    </g>
</svg>
