<svg xmlns="http://www.w3.org/2000/svg" xmlns:xlink="http://www.w3.org/1999/xlink" version="1.2" viewBox="0 0 100 100" baseProfile="tiny-ps">
  <title>Gibson Research Corporation</title>
  <g id="_x23_fe7fc8ff">
    <path d="M36.122,12.018h0.638c-0.161,0.371-0.484,1.104-0.638,1.475c-0.015,0.163-0.044,0.489-0.059,0.645   c-4.655,3.558-8.46,8.043-12.624,12.135c-3.16,3.269-6.825,6.16-9.039,10.23l-0.894-0.304c-0.125-0.044-0.381-0.133-0.506-0.178   v-0.608C20.675,27.585,28.395,19.794,36.122,12.018z" fill="#FE7FC8"/>
  </g>
  <g id="_x23_c13c86ff">
    <path d="M36.759,12.018h0.564c-0.088,0.467-0.257,1.394-0.337,1.853L36.4,13.931l-0.279-0.437   C36.276,13.123,36.598,12.389,36.759,12.018z" fill="#C13C86"/>
  </g>
  <g id="_x23_6d043eff">
    <path d="M37.324,12.018h0.616l0.315,0.615l-0.227,0.697c-0.264,0.133-0.784,0.408-1.041,0.541   C37.067,13.412,37.236,12.485,37.324,12.018z" fill="#6D043E"/>
  </g>
  <g id="_x23_fe80c9ff">
    <path d="M42.456,12.018h0.66c0.029,0.133,0.103,0.408,0.132,0.541l0.227,0.89   c-1.144-0.63-2.522,0.971-1.796,2.053l-0.696-0.23c-0.088-0.03-0.271-0.089-0.359-0.119C41.114,14.042,41.759,13.011,42.456,12.018   z" fill="#FE80C9"/>
  </g>
  <g id="_x23_c63e8bff">
    <path d="M43.115,12.018h0.33l-0.198,0.541C43.218,12.426,43.145,12.152,43.115,12.018z" fill="#C63E8B"/>
    <path d="M13,36.021c0.125,0.044,0.381,0.133,0.506,0.178L13,36.302V36.021z" fill="#C63E8B"/>
  </g>
  <g id="_x23_9d1c64ff">
    <path d="M43.445,12.018h18.921c0.44,0.956,0.843,1.927,1.283,2.884c-0.403-0.274-1.202-0.815-1.605-1.082   c-0.169-0.067-0.506-0.193-0.674-0.259c-5.982-1.164-12.111-0.067-18.122-1.001L43.445,12.018z" fill="#9D1C64"/>
  </g>
  <g id="_x23_6c033dff">
    <path d="M62.366,12.018h0.726c4.75,4.5,9.193,9.318,13.855,13.914c3.042,3.024,6.107,6.041,8.834,9.37   c-3.775,1.653-7.947,1.053-11.935,1.045c-7.58-0.067-15.153,0.074-22.726-0.082c-3.072-0.082-6.129,0.289-9.098,1.06   c-0.652-0.764-1.268-1.564-1.84-2.394c1.034,0.193,2.06,0.385,3.094,0.549c5.52,0.749,11.099,0.2,16.641,0.326   c8.108-0.074,16.216,0.185,24.324-0.082c-3.372-4.27-7.47-7.85-11.216-11.757c-3.013-3.136-6.048-6.271-9.376-9.066   C63.209,13.945,62.806,12.974,62.366,12.018z" fill="#6C033D"/>
    <path d="M62.821,39.749c3.358,2.105,5.813,5.308,8.621,8.058c4.816,4.729,9.406,9.703,14.288,14.351   c-2.273,6.82-0.059,14.092-1.481,21.03c0.044-4.448-0.176-8.903,0.015-13.35c-0.015-2.342,0.264-4.774-0.455-7.035   c-0.806-1.601-2.155-2.809-3.394-4.062c-4.142-3.966-8.115-8.102-12.125-12.209c-1.576-1.616-3.35-3.032-5.168-4.366   c-0.066-0.133-0.213-0.408-0.279-0.549l-0.088-0.556C62.777,40.735,62.806,40.075,62.821,39.749z" fill="#6C033D"/>
    <path d="M14.026,62.395c0.33-0.015,0.982-0.052,1.305-0.067l0.55,0.089c0.132,0.067,0.403,0.215,0.542,0.282   c1.415,1.987,2.947,3.899,4.684,5.604c4.201,4.151,8.379,8.332,12.433,12.631c1.539,1.638,3.402,3.299,5.806,3.128   c5.637,0.03,11.275-0.104,16.912,0c-6.62,1.394-13.548-0.734-20.057,1.483c-4.633-4.907-9.516-9.577-14.2-14.433   C19.283,68.266,16.116,65.79,14.026,62.395z" fill="#6C033D"/>
  </g>
  <path d="M38.255,12.633c0.367,2.239,0.44,4.507,0.447,6.775c-0.059,8.903-0.066,17.805-0.029,26.708  c-0.007,3.143,0.271,6.316-0.22,9.436c-0.191,1.505-1.437,2.772-2.925,2.965c-3.086,0.489-6.224,0.178-9.332,0.23  c-3.724-0.044-7.558,0.4-11.172-0.764c6.788-1.905,13.87-0.015,20.717-1.349c0.213-0.215,0.645-0.652,0.865-0.867  c0.616-3.18,0.55-6.434,0.506-9.659c-0.161-10.741,0.117-21.489-0.125-32.238c0.257-0.133,0.777-0.408,1.041-0.541L38.255,12.633z" fill="#4A0029"/>
  <path d="M84.927,35.302h0.854l0.528,2.024c-2.639,0.615-5.359,0.734-8.057,0.704  c-7.822-0.126-15.644-0.052-23.474-0.059c-4.252-0.03-8.584,0.423-12.756-0.645c2.969-0.771,6.026-1.142,9.098-1.06  c7.573,0.156,15.146,0.015,22.726,0.082C77.835,36.354,81.151,36.955,84.927,35.302z" fill="#4A0029"/>
  <g id="_x23_d14c96ff">
    <path d="M43.247,12.559c6.011,0.934,12.14-0.163,18.122,1.001c-5.945-0.63-11.935-0.297-17.895-0.111   L43.247,12.559z" fill="#D14C96"/>
    <path d="M40.982,15.272l0.696,0.23c-0.433,5.982-0.594,12.001-0.051,17.983   C40.33,27.496,41.121,21.343,40.982,15.272z" fill="#D14C96"/>
    <path d="M13.506,36.198l0.894,0.304c-0.301,5.908-0.359,11.846,0.073,17.746   C13.491,48.274,14.422,42.188,13.506,36.198z" fill="#D14C96"/>
  </g>
  <g id="_x23_ffe7ffff">
    <path d="M36.063,14.138c0.015-0.156,0.044-0.482,0.059-0.645l0.279,0.437L36.063,14.138z" fill="#FFE7FF"/>
    <path d="M41.679,15.502c-0.726-1.082,0.652-2.683,1.796-2.053l-0.154,0.726   c-0.088,0.17-0.271,0.519-0.359,0.689c-0.161,0.104-0.477,0.319-0.638,0.423L41.679,15.502z" fill="#FFE7FF"/>
    <path d="M23.439,26.273c4.164-4.092,7.969-8.577,12.624-12.135l-0.007,0.504   c-3.922,4.878-8.606,9.036-12.924,13.55c-2.602,2.58-5.022,5.367-7.895,7.665c-0.081,0.067-0.242,0.193-0.33,0.259L14.4,36.502   C16.614,32.433,20.28,29.542,23.439,26.273z" fill="#FFE7FF"/>
    <path d="M61.545,41.21l0.586-0.341l0.623,0.193l0.088,0.556c-0.337,0.022-0.997,0.067-1.334,0.089   L61.545,41.21z" fill="#FFE7FF"/>
    <path d="M15.478,61.105l0.491-0.037c-0.022,0.341-0.066,1.008-0.088,1.349l-0.55-0.089l-0.191-0.63   L15.478,61.105z" fill="#FFE7FF"/>
  </g>
  <g id="_x23_ff83ccff">
    <path d="M43.475,13.449c5.96-0.185,11.949-0.519,17.895,0.111l0.271,0.311   c-6.077,0.697-12.213,0.341-18.32,0.304L43.475,13.449z" fill="#FF83CC"/>
    <path d="M41.679,15.502l0.645-0.215c-0.051,6.145,0.279,12.305-0.33,18.435l-0.367-0.237   C41.085,27.503,41.246,21.484,41.679,15.502z" fill="#FF83CC"/>
    <path d="M14.4,36.502l0.506-0.385c0.455,6.115,0.535,12.283-0.059,18.391l-0.374-0.259   C14.041,48.348,14.1,42.41,14.4,36.502z" fill="#FF83CC"/>
  </g>
  <g id="_x23_cf4a94ff">
    <path d="M61.369,13.56c0.169,0.067,0.506,0.193,0.674,0.259l-0.403,0.052L61.369,13.56z" fill="#CF4A94"/>
    <path d="M41.627,33.485l0.367,0.237l-0.037,0.408C41.869,33.967,41.708,33.649,41.627,33.485z" fill="#CF4A94"/>
    <path d="M14.474,54.248l0.374,0.259l-0.051,0.43l-0.315-0.267L14.474,54.248z" fill="#CF4A94"/>
    <path d="M54.757,61.713c0.161,0.089,0.484,0.252,0.645,0.341l-0.411,0.037L54.757,61.713z" fill="#CF4A94"/>
    <path d="M62.146,81.676l0.374,0.237l-0.044,0.408C62.396,82.157,62.234,81.839,62.146,81.676z" fill="#CF4A94"/>
  </g>
  <g id="_x23_ff82cbff">
    <path d="M36.063,14.138l0.337-0.208l0.022,0.482l-0.367,0.23L36.063,14.138z" fill="#FF82CB"/>
    <path d="M61.061,41.039c-0.139-1.112,0.264-1.594,1.224-1.438c-0.037,0.319-0.117,0.949-0.154,1.268   l-0.586,0.341L61.061,41.039z" fill="#FF82CB"/>
    <path d="M61.509,41.706c0.337-0.022,0.997-0.067,1.334-0.089v0.356c0.059,7.806-0.007,15.611,0.015,23.417   c-0.029,5.508,0.227,11.03-0.337,16.523l-0.374-0.237c-0.836-13.106,0.33-26.271-0.586-39.369L61.509,41.706z" fill="#FF82CB"/>
    <path d="M13.887,61.854c-0.154-0.971,0.323-1.386,1.422-1.245l0.169,0.497l-0.337,0.593   C14.825,61.735,14.202,61.809,13.887,61.854z" fill="#FF82CB"/>
    <path d="M15.969,61.068l0.594,0.052c12.712,0.927,25.482-0.245,38.194,0.593l0.235,0.378   c-3.233,0.326-6.488,0.4-9.735,0.371c-9.669-0.082-19.346,0.022-29.023-0.044h-0.352C15.903,62.076,15.947,61.409,15.969,61.068z" fill="#FF82CB"/>
  </g>
  <g id="_x23_6a023cff">
    <path d="M36.4,13.931l0.586-0.059c0.242,10.748-0.037,21.497,0.125,32.238   c0.044,3.225,0.11,6.479-0.506,9.659c-0.198-13.788,0.11-27.575-0.183-41.356L36.4,13.931z" fill="#6A023C"/>
  </g>
  <g id="_x23_ae2d74ff">
    <path d="M42.961,14.865c0.088-0.17,0.271-0.519,0.359-0.689C43.233,14.346,43.049,14.694,42.961,14.865z" fill="#AE2D74"/>
    <path d="M42.324,15.287c0.161-0.104,0.477-0.319,0.638-0.423C42.8,14.968,42.485,15.183,42.324,15.287z" fill="#AE2D74"/>
    <path d="M62.843,41.617c0.066,0.141,0.213,0.415,0.279,0.549l-0.279-0.193V41.617z" fill="#AE2D74"/>
    <path d="M15.881,62.417h0.352l0.191,0.282C16.284,62.632,16.013,62.484,15.881,62.417z" fill="#AE2D74"/>
  </g>
  <g id="_x23_900250ff">
    <path d="M43.321,14.175c6.107,0.037,12.243,0.393,18.32-0.304l0.403-0.052   c0.403,0.267,1.202,0.808,1.605,1.082c3.328,2.795,6.363,5.93,9.376,9.066c3.746,3.907,7.844,7.487,11.216,11.757   c-8.108,0.267-16.216,0.007-24.324,0.082c-5.542-0.126-11.121,0.423-16.641-0.326c-0.33-0.341-0.99-1.008-1.32-1.349l0.037-0.408   c0.608-6.13,0.279-12.29,0.33-18.435c0.161-0.104,0.477-0.319,0.638-0.423C43.049,14.694,43.233,14.346,43.321,14.175z" fill="#900250"/>
    <path d="M62.843,41.973l0.279,0.193c1.818,1.334,3.592,2.75,5.168,4.366   c4.01,4.107,7.983,8.243,12.125,12.209c1.239,1.253,2.588,2.461,3.394,4.062c0.718,2.261,0.44,4.692,0.455,7.035   c-0.191,4.448,0.029,8.903-0.015,13.35c-0.22,0.222-0.645,0.66-0.858,0.882c-6.532-0.215-13.1,0.378-19.596-0.393   c-0.33-0.341-0.99-1.016-1.32-1.357l0.044-0.408c0.564-5.493,0.308-11.015,0.337-16.523C62.836,57.584,62.901,49.779,62.843,41.973   z" fill="#900250"/>
    <path d="M16.233,62.417c9.677,0.067,19.354-0.037,29.023,0.044c3.248,0.03,6.503-0.044,9.735-0.371   l0.411-0.037c0.33,0.334,1.004,1.001,1.334,1.334c0.762,6.568,0.183,13.209,0.403,19.807c-0.22,0.215-0.66,0.652-0.88,0.867   c-5.637-0.104-11.275,0.03-16.912,0c-2.405,0.17-4.267-1.49-5.806-3.128c-4.054-4.299-8.233-8.48-12.433-12.631   c-1.737-1.705-3.27-3.617-4.684-5.604L16.233,62.417z" fill="#900250"/>
  </g>
  <g id="_x23_910251ff">
    <path d="M36.056,14.642l0.367-0.23c0.293,13.78-0.015,27.568,0.183,41.356   c-0.22,0.215-0.652,0.652-0.865,0.867c-6.51-0.222-13.049,0.334-19.53-0.393c-0.352-0.326-1.063-0.978-1.415-1.305l0.051-0.43   c0.594-6.108,0.513-12.275,0.059-18.391c0.088-0.067,0.249-0.193,0.33-0.259c2.874-2.298,5.293-5.085,7.895-7.665   C27.449,23.678,32.134,19.52,36.056,14.642z" fill="#910251"/>
  </g>
  <g id="_x23_c8408cff">
    <path d="M40.623,15.154c0.088,0.03,0.271,0.089,0.359,0.119l-0.403,0.237L40.623,15.154z" fill="#C8408C"/>
  </g>
  <g id="_x23_9e1c64ff">
    <path d="M40.579,15.51l0.403-0.237c0.139,6.071-0.652,12.224,0.645,18.213   c0.081,0.163,0.242,0.482,0.33,0.645c0.33,0.341,0.99,1.008,1.32,1.349c-1.034-0.163-2.06-0.356-3.094-0.549   C40.227,28.46,39.86,21.951,40.579,15.51z" fill="#9E1C64"/>
    <path d="M13,36.302l0.506-0.104c0.916,5.989-0.015,12.075,0.968,18.05l0.007,0.423l0.315,0.267   c0.352,0.326,1.063,0.978,1.415,1.305c-1.078-0.148-2.148-0.319-3.211-0.526V36.302z" fill="#9E1C64"/>
  </g>
  <g id="_x23_ad2972ff">
    <path d="M14.906,36.117c0.088-0.067,0.249-0.193,0.33-0.259C15.155,35.924,14.994,36.05,14.906,36.117z" fill="#AD2972"/>
  </g>
  <g id="_x23_c03c85ff">
    <path d="M62.286,39.601l0.535,0.148c-0.015,0.326-0.044,0.986-0.066,1.312l-0.623-0.193   C62.168,40.55,62.249,39.92,62.286,39.601z" fill="#C03C85"/>
    <path d="M13.887,61.854c0.315-0.044,0.938-0.119,1.254-0.156l0.191,0.63   c-0.323,0.015-0.975,0.052-1.305,0.067L13.887,61.854z" fill="#C03C85"/>
  </g>
  <g id="_x23_c63e8aff">
    <path d="M61.061,41.039l0.484,0.17l-0.037,0.497l-0.469-0.178L61.061,41.039z" fill="#C63E8A"/>
    <path d="M15.309,60.609l0.484-0.015l0.176,0.474l-0.491,0.037L15.309,60.609z" fill="#C63E8A"/>
  </g>
  <g id="_x23_9d1b63ff">
    <path d="M61.039,41.528l0.469,0.178l0.051,0.6c-0.073,7.939-0.117,15.885-0.073,23.825   c0.066,5.181-0.513,10.437,0.66,15.544c0.088,0.163,0.249,0.482,0.33,0.645c0.33,0.341,0.99,1.016,1.32,1.357   c-1.004-0.193-1.987-0.423-2.976-0.66c-0.359-5.871,0.029-11.757-0.095-17.627C60.842,57.436,60.409,49.467,61.039,41.528z" fill="#9D1B63"/>
    <path d="M15.793,60.594c7.118-0.608,14.266-0.23,21.399-0.326c6.334,0.082,12.668-0.133,19.002-0.007   c0.191,1.038,0.381,2.076,0.542,3.128c-0.33-0.334-1.004-1.001-1.334-1.334c-0.161-0.089-0.484-0.252-0.645-0.341   c-5.286-1.231-10.732-0.563-16.099-0.667c-7.368-0.052-14.728,0.007-22.095,0.074l-0.594-0.052L15.793,60.594z" fill="#9D1B63"/>
  </g>
  <g id="_x23_d24d97ff">
    <path d="M61.56,42.307c0.916,13.098-0.249,26.263,0.586,39.369c-1.173-5.107-0.594-10.363-0.66-15.544   C61.443,58.192,61.487,50.246,61.56,42.307z" fill="#D24D97"/>
    <path d="M16.563,61.12c7.368-0.067,14.728-0.126,22.095-0.074c5.366,0.104,10.813-0.563,16.099,0.667   C42.045,60.875,29.275,62.047,16.563,61.12z" fill="#D24D97"/>
  </g>
  <g id="_x23_6b033cff">
    <path d="M13,55.716c1.063,0.208,2.133,0.378,3.211,0.526c6.481,0.726,13.02,0.17,19.53,0.393   c-6.847,1.334-13.929-0.556-20.717,1.349c-0.696-0.534-1.371-1.097-2.023-1.683V55.716z" fill="#6B033C"/>
    <path d="M56.194,60.26c0.821,0.578,1.613,1.201,2.368,1.868c-2.067,6.879-0.073,14.106-1.422,21.067   c-0.22-6.597,0.359-13.239-0.403-19.807C56.575,62.336,56.384,61.298,56.194,60.26z" fill="#6B033C"/>
    <path d="M60.82,83.017c0.99,0.237,1.972,0.467,2.976,0.66c6.495,0.771,13.064,0.178,19.596,0.393   c-5.337,1.082-10.784,0.111-16.157,0.497c-1.605,0.074-3.123,0.63-4.56,1.297C62.066,84.908,61.421,83.981,60.82,83.017z" fill="#6B033C"/>
  </g>
  <path d="M58.562,62.128c1.1,4.462,0.528,9.088,0.674,13.632c-0.022,3.558,0.638,7.761-2.346,10.385H36.496  l-0.293-0.6c6.51-2.216,13.438-0.089,20.057-1.483c0.22-0.215,0.66-0.652,0.88-0.867C58.488,76.235,56.494,69.007,58.562,62.128z" fill="#4A0028"/>
  <path d="M85.73,62.158l0.579,0.363v21.868c-0.764,0.772-0.725,0.74-1.73,1.757H62.044l0.63-0.282  c1.437-0.667,2.954-1.223,4.56-1.297c5.373-0.385,10.82,0.586,16.157-0.497c0.277-0.278,0.575-0.575,0.852-0.853  C85.677,76.27,83.454,68.987,85.73,62.158z" fill="#4A0028"/>
</svg>