<?xml version="1.0" encoding="utf-8"?>
<!-- Generator: Adobe Illustrator 27.7.0, SVG Export Plug-In . SVG Version: 6.00 Build 0)  -->
<svg version="1.2" baseProfile="tiny-ps" id="Layer_1" xmlns="http://www.w3.org/2000/svg" xmlns:xlink="http://www.w3.org/1999/xlink" viewBox="0 0 240 240"
	 xml:space="preserve">
	 <title>Morepen Laboratories Ltd.</title>
<g id="Layer_x0020_1">
	<path fill-rule="evenodd" fill="#00A0E3" d="M27.18,129.7L23.02,142h-2.5l-6.98-6.54h2.31l7.5-29.44L27.18,129.7L27.18,129.7z
		 M24.51,98.55l8.83,6.54l-4.66,20.56L24.51,98.55z M35.68,104.47l-6.83,31h-2l6.83,6.54h2.67l3.47-11.79
		C39.81,130.21,35.68,104.47,35.68,104.47z M37.18,99.48l7.33,5.76L49.83,142l-3,0.01L40,135.48l2.83-0.01
		C42.84,135.46,37.18,99.48,37.18,99.48z M57.66,130.18C35.93,112.96,66.6,87.64,81.15,109C65.46,103.43,53.61,116.73,57.66,130.18z
		 M79.98,103.7c32.88,20.21-4.26,59.14-27.98,24.45C65.48,143.3,97.61,126.97,79.98,103.7z M97,99.4v23.67
		c2.77,0,4.64-0.86,6.8-2.65l0.17-12.46c1.25-0.58,2.05-0.16,3.92,1.64C107.15,104.71,103,100.81,97,99.4z M96.8,125.28l-0.26,9.6
		l-2.69,0.24l6.67,6.84h2.89v-10.2L96.8,125.28L96.8,125.28z M106.42,102.7c6.95,7.87,2.27,19.85-7.08,22.22l8.89,9.83h-2.03
		l5.82,7.26h3.43L107,131.86C118.51,124.45,118.86,113.26,106.42,102.7z M120.6,115.89v-15.15h17.04V98.3l7.37,6.61l0.05,2.69h-17.3
		v8.34L120.6,115.89L120.6,115.89z M120.6,132.95V117.8h17.04v-2.44l7.37,6.61l0.05,2.69h-17.3V133L120.6,132.95L120.6,132.95z
		 M124.98,142l-6.32-7.17l18.63-0.08l-0.17-1.68l7.41,6.77l-0.04,2.11L124.98,142L124.98,142z M172.74,115.89v-15.15h17.03V98.3
		l7.37,6.61l0.05,2.69h-17.3v8.34L172.74,115.89z M172.74,132.95V117.8h17.03v-2.44l7.37,6.61l0.05,2.69h-17.3V133L172.74,132.95z
		 M177.12,142l-6.32-7.16l18.63-0.08l-0.17-1.68l7.41,6.77l-0.04,2.11L177.12,142L177.12,142z M149.04,99.49l0.02,23.67
		c2.77,0,5.2-0.76,7.16-2.65l0.17-12.46c1.56-1.06,2.36,0.22,3.92,1.64C158.96,103.61,155.45,99.44,149.04,99.49z M158.42,102.07
		c7.12,9.39,2.33,19.9-9.51,23.43l-0.25,9.12h-2.35l6.54,7.39l2.84-0.12c0.08-3.08,0.16-6.15,0.25-9.23
		C170.8,131.35,173.78,114.23,158.42,102.07z M218.84,97.99l7.62,6.68V142h-2.6l-8.43-8.45h3.4V97.99H218.84z M201.55,101.88
		l7.29,15.87V142h-2.6l-8.43-8.45h3.4L201.55,101.88L201.55,101.88z M202.2,98.19l6.03,5.91l8.2,18.58l0.14,7.52L202.2,98.19z"/>
</g>
</svg>
