<?xml version="1.0" encoding="utf-8"?>
<!-- Generator: Adobe Illustrator 28.0.0, SVG Export Plug-In . SVG Version: 6.00 Build 0)  -->
<svg version="1.2" baseProfile="tiny-ps" id="Layer_1" xmlns="http://www.w3.org/2000/svg" xmlns:xlink="http://www.w3.org/1999/xlink"
	  viewBox="0 0 1065 1077" xml:space="preserve">
	  <title>J2R Solutions</title>

<g>
	<g>
		<path fill="#FFFFFF" d="M674.8,0C804.9,0,934.9,0,1065,0c0,359,0,718,0,1077c-355,0-710,0-1065,0C0,718,0,359,0,0
			c85.6,0,171.2,0,256.8,0c0,0.2,0,0.5,0,0.7c0,0.2,0,0.5,0,0.7c-0.1,1.7-0.2,3.3-0.2,5c0,263.8,0,527.7,0,791.5
			c0,8.7-0.5,17.3-1.9,25.9c-3.6,21.4-11.9,40.7-25.6,57.7c-9.2,11.4-20.2,20.7-33.3,27.4c-8.3,4.3-17,7.3-26.1,9
			c-1.4,0-2.9-0.3-4.2,0.7l0,0.1c-1.2,0-2.4-0.1-3.5,0.1c-4.5,0.6-9,0.6-13.5,0.6c-25.7,0-51.3,0-77,0c-1.2,0-2.4,0-3.6,0.1
			c-0.2,0-0.4,0.4-0.7,0.7c0,1.4-0.1,2.8-0.1,4.3c0,48.2,0,96.4,0,144.6c0,1.2,0,2.4,0,3.6c0.4,0.3,0.7,0.7,1.1,0.8
			c0.9,0.1,1.9,0.1,2.8,0.1c28.6,0,57.1,0,85.7,0c1.5,0,3.1,0,4.6,0c0.7,0,1.3-0.3,2-0.5c4.4-0.3,8.9-0.7,13.3-1.1
			c0.8-0.1,1.6-0.4,2.3-0.6l0,0c1.5,0.2,3,0.2,4.3-0.7l0,0c1.9,0.1,3.9,0.2,5.6-0.8l0,0c1.1,0.2,2.1,0.1,2.9-0.6l0,0
			c1.3,0.2,2.5,0.1,3.7-0.7c11-2.2,21.7-5.3,32.1-9.2c18.2-6.8,35.2-15.9,51.1-27.2c24.6-17.5,45.2-38.8,62.2-63.6
			c28.3-41.4,44.1-87.3,49-137.1c1.1-10.6,1.5-21.3,1.5-32c0-264.6,0-529.2,0-793.8c0-1.3-0.1-2.6-0.1-3.9c0.1-0.2,0.1-0.5,0.2-0.7
			c0-0.3,0-0.5,0-0.8c8.3,0,16.6,0,25,0c0,0.2,0,0.5,0,0.7c0,0.2,0,0.5,0,0.7c0,1.3-0.1,2.6-0.1,3.9c0,48,0,96.1,0,144.1
			c0,1.3,0.1,2.6,0.1,3.9c-0.1,0.2-0.1,0.5,0,0.7c0.5,0.2,1,0.6,1.5,0.7c1.1,0.1,2.1,0,3.2,0c70.2,0,140.5,0,210.7,0
			c3.1,0,6.2,0,9.3,0c1.2,0.1,2.4,0,3.5,0.3c5.4,1.1,10.6,2.7,15.5,5.1c10.1,5,18.4,12.1,25.1,21.1c9,12.1,14.1,25.9,15.5,40.8
			c0.9,9.5,0.7,19-1.2,28.4c-1.7,8.3-4.4,16.3-8.7,23.6c-2.6,4.5-5.4,8.9-8.2,13.4c-16.7,27.3-33.3,54.5-50,81.8
			c-17.3,28.3-34.5,56.6-51.7,84.9c-0.5,0.8-0.9,1.6-1.3,2.5c0.5,0.6,0.8,1,1.2,1.5c4.9,5.3,9.9,10.6,14.8,15.9
			c6.8,7.3,13.6,14.6,20.4,21.9c7.1,7.5,14.1,15.1,21.2,22.6c7,7.5,14,14.9,20.9,22.4c8.5,9.1,17.1,18.2,25.6,27.3
			c0.7,0.7,1.3,1.4,1.9,2.1c4.4,4.7,8.7,9.4,13.1,14.1c0.4,0.5,1.1,0.7,1.8,1.2c2.4-3.8,4.6-7.5,6.8-11.1
			c10.6-17.4,21.3-34.9,31.9-52.3c9.2-15,18.3-30,27.5-45c8.5-13.9,16.9-27.8,25.4-41.7c8.7-14.2,17.3-28.4,26-42.6
			c5-8.2,10.1-16.4,15.1-24.6c3-5,6.1-9.9,8.9-15c8.3-15.2,14.8-31.1,19.6-47.7c2.8-9.7,5.2-19.5,6.7-29.5
			c0.8-5.4,1.6-10.8,2.2-16.2c0.5-4.4,1-8.7,1.2-13.1c0.2-7.5,0.2-15,0.2-22.5c0-2.9,0-5.7-0.2-8.6c-0.7-7.7-1.4-15.4-2.5-23
			c-2-13.4-5.1-26.6-9.2-39.5c-5.6-17.5-13-34.2-22.3-50c-8.6-14.5-18.5-27.9-30-40.1c-9.8-10.4-20.5-19.8-32.2-28
			c-11.5-8.1-23.7-14.9-36.7-20.3c-7.8-3.2-15.8-6-23.9-8.1c-7.9-2.1-16-3.6-24.1-4.6c-0.5-0.2-1.1-0.6-1.6-0.6
			c-2.1-0.1-4.2-0.1-6.3-0.1c-0.9,0-1.8,0-2.7-0.1c-0.7-0.2-1.3-0.5-2-0.6c-1.3-0.1-2.6-0.1-3.8-0.2C674.8,0.4,674.8,0.2,674.8,0z
			 M597.8,1072.7c5.7,0.1,11.4,0.1,17.1,0.2c1.2,1.1,2.7,0.6,4.1,0.6c70.7,0,141.3,0,212,0c1.1,0,2.1,0,3.2-0.1c0.4,0,0.7-0.5,1-0.8
			c-6.1-6.6-12.2-13.3-18.4-19.9c-8.6-9.3-17.2-18.7-25.9-28c-8.5-9.2-17.1-18.5-25.6-27.7c-8.8-9.5-17.6-19-26.3-28.5
			c-8.9-9.6-17.7-19.2-26.6-28.8c-7.5-8.1-15-16.2-22.5-24.3c-3.1-3.4-6.3-6.8-9.4-10.2c-5.7-6.2-11.5-12.4-17.2-18.5
			c-0.5-0.9-1.4-0.8-2.2-0.8c-4,0-7.9-0.1-11.9-0.1c-1.3-1-2.7-0.6-4.1-0.6c-40.5,0-81.1,0-121.6,0c-1.1,0-2.1,0.1-3.2,0
			c-0.5,0-1.1-0.4-1.6-0.6c5.7-9.4,11.5-18.9,17.2-28.3c8.8-14.5,17.7-29,26.5-43.5c3.7-6.1,7.4-12.2,11.1-18.3
			c0.7-1.1,1.6-2.1,1.6-3.7c-0.5-0.6-1-1.4-1.7-2.1c-6-6.5-11.9-12.9-17.9-19.4c-5.8-6.3-11.6-12.6-17.4-18.8
			c-11.5-12.5-23.1-25-34.6-37.4c-7.8-8.4-15.5-16.7-23.3-25.1c-3.3-3.6-6.6-7.2-9.9-10.7c-4.5-4.9-9-9.8-13.6-14.7
			c-0.5-0.5-1-0.9-1.7-1.4c-0.8,1.1-1.4,1.9-1.9,2.8c-11.6,19-23.1,38-34.7,56.9c-1.4,2.2-2,4.4-2,7c0.1,31.7,0,63.5,0,95.2
			c0,5.5-0.1,10.9-0.4,16.4c-0.4,6.6-0.8,13.3-1.5,19.9c-0.7,7.5-1.8,14.8-3.2,22.2c-3.3,18-8.2,35.6-14.8,52.7
			c-6.8,17.6-15.1,34.4-25.3,50.2c-12.4,19.3-26.8,36.9-43.8,52.4c-8.1,7.4-16.6,14.2-25.6,20.5c-7.4,5.2-15.2,9.8-23.1,14.1
			c-0.6,0.2-1.1,0.4-0.7,1.4c1.1,0,2.3,0,3.5,0c66.9,0,133.7,0,200.6,0c1.4,0,2.8-0.1,4.3-0.1c0.8,0,1.7,0.1,2.5,0.1
			c35.3,0,70.6,0,106,0.1C595.9,1072.8,596.9,1072.7,597.8,1072.7z M914.5,425.1c0,3.1,0,6.2,0,9.3c0.4,0.2,0.8,0.6,1.2,0.7
			c0.9,0.1,1.9,0.1,2.8,0.1c24,0,47.9,0,71.9,0c0.9,0,1.9,0,2.8-0.1c0.4,0,0.8-0.4,1.2-0.6c0-3.1,0-6.2,0-9.3
			c-0.4-0.2-0.7-0.6-1.1-0.7c-0.9-0.1-1.9-0.1-2.8-0.1c-24,0-48,0-72,0c-0.9,0-1.9,0-2.8,0.1C915.2,424.4,914.8,424.8,914.5,425.1z
			 M985.6,785.1c-1.4,0.1-2.8,0.2-4.3,0.2c-20.9,0-41.7,0-62.6,0c-1.1,0-2.1,0-3.2,0.1c-0.4,0-0.8,0.4-1.2,0.6c0,3.1,0,6.2,0,9.3
			c0.4,0.2,0.7,0.6,1.1,0.7c0.9,0.1,1.9,0.1,2.8,0.1c24,0,47.9,0,71.9,0c0.9,0,1.9,0,2.8-0.1c0.4,0,0.8-0.4,1.1-0.7
			c0.1-0.9,0.2-1.9,0.2-2.8c0-16.2,0-32.4,0-48.6c0-0.9-0.1-1.9-0.1-2.8c-0.1-0.1-0.1-0.2-0.2-0.2c-2.7-0.7-5.4-0.7-8.1,0
			c-0.1,0-0.2,0.2-0.2,0.3c0,1.4-0.1,2.8-0.1,4.3C985.7,758.6,985.7,771.8,985.6,785.1z M994.4,520.7c-1-1.2-2.4-0.7-3.7-0.7
			c-21.1,0-42.2,0-63.3,0c-1.4,0-2.8-0.1-4.3-0.2c0-1.3,0-2.6,0-3.9c0-6.4,0-12.8,0-19.3c0-0.9,0.3-1.9-0.7-2.8
			c-2.5-0.1-5.2-0.5-8.1,0.4c0,1.4,0,2.7,0,4c0,13.2,0,26.4,0,39.6c0,5.5,0,10.9,0,16.4c0,0.9,0.2,1.8,0.3,2.8
			c2.9,0.1,5.6,0.5,8.4-0.3c0-8.7,0-17.2,0-25.7c1.4-0.1,2.8-0.2,4.3-0.2c20.9,0,41.8,0,62.7,0c1.1,0,2.1,0,3.2-0.1
			c0.4,0,0.8-0.4,1.1-0.7C994.4,526.8,994.4,523.7,994.4,520.7z M977.9,12.9c-0.4-0.2-0.8-0.6-1.2-0.6c-2.5-0.1-5.1-0.1-7.6,0
			c-0.4,0-0.8,0.4-1.2,0.6c-3.8,1.1-6.8,3.4-9.1,6.5c-1.4,1.9-2.7,3.9-3.9,6c-3,5.6-4.9,11.6-7,17.5c-1.3,3.7-2.8,7.3-4.4,10.9
			c-0.6,1.4-1.5,2.7-2.5,3.9c-2.4,2.9-5.7,3.7-9.3,2.5c-3.1-1-5.2-3.3-6.8-6c-2.5-4.1-3.2-8.6-2.9-13.4c0.4-6.1,2.7-11.3,7.5-15.1
			c0.7-0.6,1.4-1.2,2-1.8c-1.6-3.8-2.7-5.5-4.6-7.2c-0.1,0-0.2,0-0.3,0c-0.3,0.1-0.7,0.2-1,0.4c-4.9,3-8.5,7.2-10.5,12.6
			c-1.8,4.7-2.4,9.6-2.2,14.7c0.2,5.9,1.7,11.5,4.8,16.6c3,4.9,7.1,8.6,13,9.8c2.4,1.1,4.8,1.1,7.2,0c4.1-0.7,7.2-3,9.6-6.2
			c1.8-2.4,3.4-4.9,4.5-7.7c1.7-4.5,3.4-9.1,5-13.7c1.4-4,2.9-8,4.9-11.8c1.2-2.2,2.5-4.3,4.4-6c3.8-3.4,8.7-3.5,12.6-0.3
			c2.4,1.9,4,4.3,5.1,7.2c1.6,4.2,2.4,8.4,2.2,12.9c-0.4,8.5-3.3,16-10.1,21.5c-0.4,0.3-0.7,0.6-1.2,1.1c1.7,2.6,3.1,5.3,5.2,7.6
			c0.8-0.4,1.4-0.7,2-1.1c3.8-2.5,6.6-5.9,8.5-9.9c6.5-13.2,6.6-26.5,0.2-39.8C988.5,18.9,984.2,14.7,977.9,12.9z M968.6,1006.4
			c-2.2,0.3-4,1.4-5.7,2.7c-3.2,2.4-5.7,5.5-7.4,9c-2,4.1-3.7,8.2-5.4,12.4c-1.6,4-2.8,8.1-4.3,12.1c-1.1,2.9-2.4,5.7-4.3,8.2
			c-2.9,3.7-7.4,4.6-11.5,2.3c-2.3-1.3-3.8-3.2-5.1-5.3c-2.4-4.1-3.1-8.7-2.8-13.4c0.4-6.4,2.9-11.7,8.1-15.5
			c0.5-0.3,0.9-0.7,1.5-1.2c-1.3-2.7-2.5-5.4-4.6-7.6c-5.8,2.6-9.6,7-11.7,12.6c-4.1,10.8-3.5,21.4,2.2,31.6
			c2.8,4.9,6.9,8.4,12.4,10c2.5,1,6,1.1,8.6,0c4-1.1,7-3.4,9.3-6.7c1.7-2.4,3.3-4.9,4.3-7.8c1.6-4.3,3.2-8.7,4.8-13
			c1.4-4,2.8-8.1,5-11.8c1.1-1.9,2.4-3.9,3.9-5.5c4-4.1,9.5-4.2,13.7-0.4c2.2,2,3.7,4.3,4.7,7c2.4,6.5,2.8,13.2,1,19.9
			c-1.6,5.7-4.3,10.8-9.3,14.3c-0.3,0.2-0.4,0.5-0.8,1c0.8,1.2,1.6,2.5,2.5,3.8c0.9,1.2,1.4,2.7,2.8,3.7c0.6-0.3,1.1-0.5,1.6-0.8
			c5.3-3.5,8.6-8.5,10.8-14.2c3.1-8.2,3.7-16.6,2-25.2c-1-4.9-2.6-9.6-5.7-13.7c-3-4.1-6.7-7.4-11.9-8.4c-0.2-0.1-0.4-0.4-0.6-0.4
			C974,1005.6,971.3,1005.1,968.6,1006.4z M968.1,626.2c6,0.8,10.7,3.8,14.1,8.7c5.6,8.1,6,16.9,1.6,25.6c-3.3,6.7-9,10.5-16.5,11.5
			c-0.5,0-0.9-0.1-1.4-0.1c-16,0-32.1,0-48.1,0c-0.7,0-1.4-0.1-2.1,0.1c-0.4,0.1-0.8,0.4-1.2,0.6c0,3.3,0,6.7,0,10
			c0.9,1.1,2.2,0.7,3.3,0.7c8.8,0,17.5,0,26.3,0c6.4,0,12.8,0,19.2,0c1.1,0,2.4,0.3,3.4-0.6c11.9-1.3,20.8-7.2,25.9-18
			c5.1-11.1,4.9-22.4-0.9-33.2c-5-9.3-13-14.5-23.5-15.9c-1.2-1-2.7-0.6-4.1-0.6c-15,0-30.1,0-45.1,0c-1.1,0-2.1,0-3.2,0.1
			c-0.4,0-0.8,0.4-1.2,0.6c0,3.3,0,6.7,0,10c1,1.2,2.4,0.7,3.7,0.7c14.9,0,29.8,0,44.7,0C964.6,626.2,966.4,626.2,968.1,626.2z
			 M913.9,135.8c0,3.2,0,6.3,0,9.5c0.3,0.3,0.6,0.8,1,0.8c1,0.1,2.1,0.1,3.2,0.1c15.6,0,31.2,0,46.8,0c2,0,4,0,6,0
			c0.7,0,1.3,0.4,2,0.5c-2.9,3-5.7,6-8.6,9c-13.2,13.5-26.3,26.9-39.5,40.3c-3.7,3.8-7.4,7.7-11.1,11.5c-0.5,0.5-0.7,1.1,0.1,1.3
			c1,0.2,2.1,0.1,3.2,0.1c24.5,0,48.9,0,73.4,0c0.9,0,1.9,0,2.8-0.1c0.4,0,0.8-0.4,1.2-0.6c0-3.1,0-6.2,0-9.4
			c-1-1.2-2.4-0.7-3.7-0.7c-17.1,0-34.2,0-51.3,0c-1.4,0-2.8-0.1-4.3-0.1c0.4-0.5,0.7-0.9,1.1-1.3c7.8-8,15.5-16,23.3-23.9
			c11.5-11.8,23-23.5,34.5-35.3c0.6-0.6,1-1.3,1.5-1.9c-0.4-0.3-0.7-0.7-1.1-0.7c-0.8-0.1-1.7-0.1-2.5-0.1c-24.9,0-49.8,0-74.8,0
			c-0.8,0-1.7,0-2.5,0.1C914.6,135,914.3,135.5,913.9,135.8z M955.1,950.7c2,0.1,3.9,0.5,5.8-0.6c6.8-0.9,12.7-4,17.8-8.3
			c10.9-9.3,16.2-21.4,17-35.5c0.4-7.3-0.8-14.4-3.4-21.2c-3.7-9.5-9.6-17.1-18.2-22.6c-4.2-2.7-8.8-4.5-13.9-5.1
			c-0.1-0.1-0.2-0.2-0.3-0.2c-2.5-0.8-8.5-0.8-10.9,0c-0.1,0-0.2,0.1-0.3,0.2c-0.8,0.1-1.7,0.1-2.5,0.3c-6.7,1.6-12.6,4.8-17.7,9.5
			c-9.4,8.7-14.3,19.7-15.4,32.3c-0.9,10.6,1.3,20.8,6.7,30.1c4.8,8.2,11.5,14.5,20.3,18.3c2.5,1.1,5,2.1,7.8,2.2
			c1.8,1.1,3.8,0.7,5.7,0.6C954.2,950.7,954.7,950.7,955.1,950.7z M960.2,363.1c0.8-0.1,1.7-0.2,2.5-0.4c9.6-2.4,17.3-7.7,23.1-15.6
			c8.2-11.2,11.3-23.8,9.4-37.6c-1.6-12.1-6.8-22.4-16-30.4c-5.3-4.6-11.3-7.8-18.3-8.8c-0.5-0.2-1-0.6-1.6-0.6
			c-3.2-0.1-6.5-0.1-9.7,0c-0.5,0-1,0.4-1.6,0.6c-10.6,1.7-18.6,7.5-24.9,15.8c-6,7.8-9.2,16.8-9.9,26.6c-0.8,10.8,1.5,21,7.1,30.3
			c3.7,6.2,8.6,11.3,14.8,15.1c4.2,2.5,8.7,4.3,13.6,5c0.1,0.1,0.2,0.2,0.3,0.2c2.5,0.7,8.5,0.7,11,0
			C960,363.3,960.1,363.2,960.2,363.1z M872.4,1072c0.1-1.5,0.3-3.1,0.3-4.6c0-85.1,0-170.2,0-255.3c0-0.5-0.1-1,0-1.4
			c0.3-2-0.6-3.3-1.9-4.7c-30.6-32.6-61.1-65.2-91.7-97.7c-17.9-19.1-35.8-38.1-53.6-57.2c-20.7-22-41.3-44-62-66
			c-23.6-25.1-47.2-50.2-70.7-75.4c-13.9-14.8-27.9-29.5-41.2-44.9c-19-21.9-38.1-43.7-57.2-65.5c-18.8-21.6-37.7-43.1-56.5-64.7
			c-6.9-7.9-13.7-15.8-20.6-23.7c-0.2-0.6-0.5-0.7-0.8-0.1c0,0.9-0.1,1.9-0.1,2.8c0,87.7,0,175.4,0,263.1c0,2.2,0.6,3.8,2.1,5.4
			c27.1,29.2,54.1,58.4,81.2,87.6c22.4,24.2,44.9,48.5,67.3,72.7c23.4,25.3,46.8,50.6,70.2,75.9c17.8,19.2,35.5,38.4,53.3,57.5
			c24.5,26.4,48.9,52.8,73.4,79.3c22.8,24.7,45.7,49.4,68.5,74c13.2,14.2,26.3,28.4,39.4,42.7c0.1,0.2,0.2,0.3,0.2,0.5
			C872.2,1072.2,872.3,1072.1,872.4,1072z"/>
		<path fill="#EDF2F5" d="M416.6,0.7c0-0.2,0-0.5,0-0.7c86.1,0,172.2,0,258.2,0c0,0.2,0,0.4,0,0.6c-3.1,0-6.2,0.1-9.3,0.1
			C582.6,0.7,499.6,0.7,416.6,0.7z"/>
		<path fill="#EDE5EB" d="M391.6,0c0,0.3,0,0.5,0,0.8c-0.2,0-0.5,0-0.7,0c-1.4,0-2.8-0.1-4.3-0.1c-43.3,0-86.5,0-129.8,0
			c0-0.2,0-0.5,0-0.7C301.7,0,346.7,0,391.6,0z"/>
		<path fill="#57585B" d="M391.4,1.5c0,1.3,0.1,2.6,0.1,3.9c0,264.6,0,529.2,0,793.8c0,10.7-0.4,21.4-1.5,32
			c-5,49.8-20.7,95.7-49,137.1c-17,24.9-37.7,46.2-62.2,63.6c-15.9,11.3-32.9,20.4-51.1,27.2c-10.5,3.9-21.2,7-32.1,9.2
			c-1.3-0.1-2.6-0.2-3.7,0.7c0,0,0,0,0,0c-1-0.1-2.1-0.2-2.9,0.6c0,0,0,0,0,0c-1.9,0.1-3.9-0.3-5.6,0.8c0,0,0,0,0,0
			c-1.5-0.1-3-0.3-4.3,0.7c0,0,0,0,0,0c-5.5,0.4-11,0.7-16.5,1.1c-0.2,0-0.4,0.2-0.6,0.3c-2.4,0-4.7,0.1-7.1,0.1
			c-27.9,0-55.8,0-83.7,0c-1.3,0-2.6-0.1-3.9-0.1c0-1.2,0-2.4,0-3.6c0-48.2,0-96.4,0-144.6c0-1.4,0.1-2.8,0.1-4.3
			c1.5,0,3.1-0.1,4.6-0.1c26.6,0,53.1,0,79.7,0c4.3,0,8.5-0.5,12.7-0.8c0.4,0,0.8-0.4,1.2-0.6c0,0,0-0.1,0-0.1
			c1.5,0.2,2.9,0.3,4.2-0.7c9.2-1.7,17.9-4.7,26.1-9c13.1-6.8,24.1-16,33.3-27.4c13.6-16.9,21.9-36.3,25.6-57.7
			c1.5-8.6,1.9-17.2,1.9-25.9c0-263.8,0-527.7,0-791.5c0-1.7,0.1-3.3,0.2-5c43.1,0,86.3,0,129.4,0c1.5,0,3.1,0,4.6,0l0.3,0
			L391.4,1.5z"/>
		<path fill="#5FADC1" d="M416.6,153.3c0-1.3-0.1-2.6-0.1-3.9c0-48,0-96.1,0-144.1c0-1.3,0.1-2.6,0.1-3.9c86.9,0,173.9,0,260.8,0
			c1.1,0,2.1,0,3.2-0.1c0.9,0,1.8,0,2.7,0.1c0.6,0.2,1.3,0.6,1.9,0.6c2,0.1,4,0.1,6,0.1c8.1,1,16.2,2.5,24.1,4.6
			c8.2,2.2,16.1,4.9,23.9,8.1c13,5.4,25.2,12.2,36.7,20.3c11.7,8.2,22.4,17.6,32.2,28c11.5,12.2,21.5,25.7,30,40.1
			c9.4,15.8,16.8,32.5,22.3,50c4.1,12.9,7.2,26.1,9.2,39.5c1.1,7.6,1.8,15.3,2.5,23c0.3,2.8,0.2,5.7,0.2,8.6c0,7.5,0,15-0.2,22.5
			c-0.1,4.4-0.6,8.8-1.2,13.1c-0.6,5.4-1.4,10.8-2.2,16.2c-1.5,10-3.9,19.8-6.7,29.5c-4.9,16.6-11.4,32.5-19.6,47.7
			c-2.8,5.1-5.9,10.1-8.9,15c-5,8.2-10.1,16.4-15.1,24.6c-8.7,14.2-17.4,28.4-26,42.6c-8.5,13.9-16.9,27.8-25.4,41.7
			c-9.2,15-18.3,30-27.5,45c-10.6,17.4-21.3,34.9-31.9,52.3c-2.2,3.6-4.5,7.3-6.8,11.1c-0.7-0.5-1.3-0.7-1.8-1.2
			c-4.4-4.7-8.7-9.4-13.1-14.1c-0.6-0.7-1.3-1.4-1.9-2.1c-8.5-9.1-17.1-18.2-25.6-27.3c-7-7.5-14-14.9-20.9-22.4
			c-7.1-7.5-14.1-15.1-21.2-22.6c-6.8-7.3-13.6-14.6-20.4-21.9c-4.9-5.3-9.9-10.6-14.8-15.9c-0.4-0.4-0.8-0.9-1.2-1.5
			c0.4-0.9,0.8-1.7,1.3-2.5c17.2-28.3,34.5-56.6,51.7-84.9c16.6-27.3,33.3-54.5,50-81.8c2.7-4.5,5.5-8.9,8.2-13.4
			c4.3-7.3,7-15.3,8.7-23.6c2-9.4,2.1-18.9,1.2-28.4c-1.4-14.9-6.4-28.7-15.5-40.8c-6.7-9-15-16.1-25.1-21.1
			c-4.9-2.4-10.1-4-15.5-5.1c-1.2-0.2-2.4-0.2-3.5-0.3c-0.8-0.2-1.6-0.5-2.4-0.6c-2.6-0.1-5.2-0.2-7.8-0.2c-69.6,0-139.3,0-208.9,0
			c-1.7,0-3.3-0.1-5-0.1C417.1,153.7,416.9,153.5,416.6,153.3z"/>
		<path fill="#57585B" d="M417.3,310.9c6.9,7.9,13.7,15.8,20.6,23.7c18.8,21.6,37.7,43.1,56.5,64.7c19.1,21.8,38.2,43.6,57.2,65.5
			c13.3,15.4,27.3,30.1,41.2,44.9c23.5,25.2,47.1,50.3,70.7,75.4c20.6,22,41.3,44,62,66c17.9,19.1,35.8,38.1,53.6,57.2
			c30.6,32.6,61.1,65.2,91.7,97.7c1.3,1.4,2.2,2.8,1.9,4.7c-0.1,0.5,0,0.9,0,1.4c0,85.1,0,170.2,0,255.3c0,1.5-0.2,3.1-0.3,4.6
			c-0.2-0.1-0.4-0.2-0.6-0.1c-13.1-14.2-26.3-28.4-39.4-42.7c-22.8-24.7-45.7-49.4-68.5-74c-24.5-26.4-48.9-52.8-73.4-79.3
			c-17.8-19.2-35.5-38.4-53.3-57.5c-23.4-25.3-46.8-50.6-70.2-75.9c-22.4-24.2-44.9-48.5-67.3-72.7c-27-29.2-54.1-58.4-81.2-87.6
			c-1.5-1.6-2.1-3.2-2.1-5.4c0.1-87.7,0-175.4,0-263.1c0-0.9,0.1-1.9,0.1-2.8C416.8,310.9,417.1,310.9,417.3,310.9z"/>
		<path fill="#5FADC1" d="M663.2,886.6c5.7,6.2,11.5,12.4,17.2,18.5c3.1,3.4,6.3,6.8,9.4,10.2c7.5,8.1,15,16.2,22.5,24.3
			c8.9,9.6,17.7,19.2,26.6,28.8c8.8,9.5,17.6,19,26.3,28.5c8.5,9.2,17.1,18.5,25.6,27.7c8.6,9.3,17.2,18.7,25.9,28
			c6.1,6.6,12.2,13.3,18.4,19.9c-1.4,0.1-2.8,0.2-4.3,0.2c-64.4,0-128.8-0.1-193.3-0.1c-1.2,0-2.4-0.1-3.6-0.1
			c-0.8-0.7-1.8-0.5-2.7-0.5c-11.2,0-22.4,0-33.7,0c-36,0-72,0-108.1,0c-1.1,0-2.1,0-3.2,0.1c-1.7,0-3.3-0.1-5-0.1
			c-65.8,0-131.6,0-197.4,0c-1.2,0-2.4,0.1-3.6,0c-0.5,0-1.1-0.4-1.6-0.6c7.9-4.4,15.7-8.9,23.1-14.1c8.9-6.3,17.5-13.1,25.6-20.5
			c16.9-15.5,31.4-33.1,43.8-52.4c10.2-15.9,18.5-32.7,25.3-50.2c6.6-17.1,11.5-34.7,14.8-52.7c1.3-7.3,2.5-14.7,3.2-22.2
			c0.7-6.6,1.1-13.2,1.5-19.9c0.3-5.5,0.4-10.9,0.4-16.4c0-31.7,0-63.5,0-95.2c0-2.6,0.6-4.8,2-7c11.6-18.9,23.1-37.9,34.7-56.9
			c0.5-0.9,1.2-1.7,1.9-2.8c0.7,0.6,1.2,0.9,1.7,1.4c4.5,4.9,9,9.8,13.6,14.7c3.3,3.6,6.6,7.2,9.9,10.7c7.8,8.4,15.6,16.7,23.3,25.1
			c11.5,12.5,23.1,25,34.6,37.4c5.8,6.3,11.6,12.6,17.4,18.8c6,6.5,12,12.9,17.9,19.4c0.6,0.7,1.2,1.5,1.7,2.1
			c0,1.6-0.9,2.6-1.6,3.7c-3.7,6.1-7.4,12.2-11.1,18.3c-8.8,14.5-17.7,29-26.5,43.5c-5.7,9.4-11.5,18.9-17.2,28.3
			c-0.5,0.3-0.7,0.9-0.1,1.1c1,0.3,2.1,0.3,3.1,0.3c16.5,0,32.9,0,49.4,0c1.5,0,3.1,0.1,4.6,0.1c1,0.9,2.3,0.6,3.4,0.6
			c9.7,0,19.5,0,29.2,0C626.6,886.6,644.9,886.6,663.2,886.6z"/>
		<path fill="#63AFC2" d="M948.7,363.1c-4.9-0.6-9.4-2.4-13.6-5c-6.2-3.8-11.1-8.8-14.8-15.1c-5.6-9.4-7.9-19.5-7.1-30.3
			c0.7-9.8,3.9-18.8,9.9-26.6c6.4-8.2,14.4-14.1,24.9-15.8c4.3,0,8.6,0,12.8,0c7,1,13.1,4.2,18.3,8.8c9.2,8.1,14.4,18.3,16,30.4
			c1.9,13.8-1.2,26.4-9.4,37.6c-5.8,7.9-13.5,13.2-23.1,15.6c-0.8,0.2-1.6,0.2-2.5,0.4C956.4,363.1,952.5,363.1,948.7,363.1z
			 M948,352.3c1.8,1.2,3.8,0.7,5.7,0.7c0.5,0,0.9,0,1.4,0c1.9,0,3.9,0.5,5.7-0.7c7.9-1.8,14.1-6.4,18.5-12.9
			c7.7-11.4,9.2-23.7,4.6-36.6c-3.1-8.6-8.6-15.2-16.8-19.5c-5.4-2.8-11.3-3.8-17.3-2.7c-8.8,1.5-15.5,6.3-20.6,13.5
			c-9.1,12.9-9.5,30.5-1.1,43.7C932.9,345,939.3,350.3,948,352.3z"/>
		<path fill="#63AFC2" d="M960.2,857.3c5,0.6,9.6,2.4,13.9,5.1c8.6,5.4,14.5,13.1,18.2,22.6c2.6,6.8,3.9,13.9,3.4,21.2
			c-0.9,14.1-6.1,26.2-17,35.5c-5.1,4.3-11,7.4-17.8,8.3c-1.4,0-2.8,0-4.2,0.1c-0.5,0-1.1,0.4-1.6,0.6c-0.5,0-0.9,0-1.4,0
			c-0.5-0.2-1-0.6-1.6-0.6c-1.4-0.1-2.8-0.1-4.2-0.1c-2.8-0.1-5.3-1.2-7.8-2.2c-8.8-3.8-15.4-10-20.3-18.3
			c-5.4-9.3-7.6-19.4-6.7-30.1c1.1-12.6,5.9-23.6,15.4-32.3c5.1-4.7,11-7.8,17.7-9.5c0.8-0.2,1.6-0.2,2.5-0.3
			C952.5,857.3,956.3,857.3,960.2,857.3z M986.6,904.3c-0.1-2,0-3.5-0.3-5c-0.3-2.1-0.7-4.2-1.3-6.3c-2.5-8.8-7.2-16-15-21
			c-8.4-5.4-17.3-6.2-26.6-2.5c-5.7,2.3-10.2,6.1-13.8,11c-10.2,14-9.8,33.1-0.1,46.4c4.2,5.9,9.7,10.2,16.7,12.1
			c11.2,3,21.2,0.2,29.4-8.1C983,923.5,986.3,914.2,986.6,904.3z"/>
		<path fill="#61AEC2" d="M994.5,199c0,3.1,0,6.2,0,9.4c-1.4,0-2.9-0.1-4.3-0.1c-23.9,0-47.8,0-71.7,0c-1.1,0-2.1,0.1-3.2,0
			c-0.5-0.1-1.1-0.4-1.6-0.6c3.7-3.8,7.4-7.7,11.1-11.5c13.2-13.5,26.3-26.9,39.5-40.3c2.9-3,5.7-6,8.6-9c0.4-0.3,0.7-0.6,0-1.3
			c-1.1,0-2.4,0-3.7,0c-17,0-34,0-51.1,0c-1.4,0-2.8-0.1-4.2-0.2c0-3.2,0-6.3,0-9.5c1.3-0.1,2.6-0.2,3.9-0.2c24.8,0,49.6,0,74.4,0
			c1.2,0,2.4,0.1,3.6,0.1c-0.5,0.6-1,1.3-1.5,1.9c-11.5,11.8-23,23.5-34.5,35.3c-7.8,8-15.5,15.9-23.3,23.9
			c-0.4,0.4-0.8,0.9-1.1,1.3c0.7,1.2,1.8,0.9,2.8,0.9C956.9,199,975.7,199,994.5,199z"/>
		<path fill="#61AEC2" d="M914.5,682.6c0-3.3,0-6.7,0-10c15.4,0,30.9,0,46.3,0c1.4,0,2.9,0,4.3-0.1c0.8-0.1,1.6-0.4,2.4-0.6
			c7.5-1,13.1-4.8,16.5-11.5c4.4-8.7,4-17.5-1.6-25.6c-3.4-4.9-8.1-7.8-14.1-8.7c-1.5-1-3.2-0.6-4.9-0.6c-16.3,0-32.5,0-48.8,0
			c0-3.3,0-6.7,0-10c15.7,0,31.5,0,47.2,0c2.1,0,4.3,0,6.4,0c10.5,1.4,18.5,6.6,23.5,15.9c5.8,10.8,6.1,22.1,0.9,33.2
			c-5,10.9-13.9,16.8-25.9,18c-0.6,0-1.2-0.1-1.8-0.1C948,682.6,931.3,682.6,914.5,682.6z"/>
		<path fill="#63AFC3" d="M930.2,1064.1c-5.6-1.6-9.7-5-12.4-10c-5.7-10.2-6.3-20.8-2.2-31.6c2.1-5.6,5.9-10,11.7-12.6
			c2.1,2.2,3.3,4.8,4.6,7.6c-0.6,0.5-1,0.8-1.5,1.2c-5.2,3.9-7.7,9.2-8.1,15.5c-0.3,4.7,0.4,9.2,2.8,13.4c1.3,2.2,2.9,4.1,5.1,5.3
			c4.1,2.3,8.6,1.5,11.5-2.3c1.9-2.5,3.2-5.3,4.3-8.2c1.5-4,2.7-8.1,4.3-12.1c1.6-4.2,3.4-8.3,5.4-12.4c1.7-3.6,4.2-6.6,7.4-9
			c1.7-1.3,3.5-2.4,5.7-2.7c2.9,0,5.8,0,8.7,0c5.2,1.1,8.9,4.4,11.9,8.4c3,4.1,4.7,8.8,5.7,13.7c1.7,8.6,1.2,17-2,25.2
			c-2.2,5.8-5.5,10.8-10.8,14.2c-0.5,0.3-1,0.5-1.6,0.8c-1.3-1-1.9-2.4-2.8-3.7c-0.9-1.3-1.7-2.6-2.5-3.8c0.4-0.5,0.5-0.8,0.8-1
			c5-3.5,7.7-8.6,9.3-14.3c1.9-6.7,1.5-13.4-1-19.9c-1-2.7-2.5-5.1-4.7-7c-4.2-3.8-9.7-3.8-13.7,0.4c-1.5,1.6-2.8,3.5-3.9,5.5
			c-2.1,3.7-3.5,7.8-5,11.8c-1.5,4.4-3.2,8.7-4.8,13c-1,2.8-2.6,5.3-4.3,7.8c-2.4,3.3-5.4,5.6-9.3,6.7
			C935.9,1064.2,933,1064.2,930.2,1064.1z"/>
		<path fill="#63AFC3" d="M930.9,70.6c-5.9-1.2-9.9-4.9-13-9.8c-3.1-5.1-4.6-10.6-4.8-16.6c-0.2-5,0.4-10,2.2-14.7
			c2.1-5.4,5.6-9.6,10.5-12.6c0.3-0.2,0.6-0.3,1-0.4c0.1,0,0.2,0,0.3,0c1.8,1.8,2.9,3.5,4.6,7.2c-0.6,0.6-1.3,1.2-2,1.8
			c-4.9,3.9-7.1,9.1-7.5,15.1c-0.3,4.7,0.4,9.2,2.9,13.4c1.6,2.7,3.7,4.9,6.8,6c3.6,1.2,6.9,0.4,9.3-2.5c1-1.2,1.9-2.5,2.5-3.9
			c1.6-3.6,3.1-7.2,4.4-10.9c2.1-5.9,4-12,7-17.5c1.1-2.1,2.5-4.1,3.9-6c2.3-3.1,5.3-5.4,9.1-6.5c3.3,0,6.6,0,9.9,0
			c6.2,1.8,10.5,6,13.3,11.6c6.4,13.2,6.3,26.6-0.2,39.8c-2,4-4.7,7.4-8.5,9.9c-0.6,0.4-1.2,0.7-2,1.1c-2.1-2.3-3.5-5-5.2-7.6
			c0.5-0.4,0.8-0.8,1.2-1.1c6.8-5.6,9.7-13,10.1-21.5c0.2-4.5-0.6-8.7-2.2-12.9c-1.1-2.8-2.8-5.3-5.1-7.2c-3.9-3.2-8.9-3.1-12.6,0.3
			c-1.9,1.7-3.2,3.8-4.4,6c-2,3.8-3.5,7.8-4.9,11.8c-1.6,4.6-3.3,9.1-5,13.7c-1.1,2.8-2.7,5.3-4.5,7.7c-2.5,3.2-5.5,5.6-9.6,6.2
			C935.7,70.7,933.3,70.6,930.9,70.6z"/>
		<path fill="#5FADC1" d="M923.1,530.9c0,8.5,0,17.1,0,25.7c-2.9,0.8-5.5,0.4-8.4,0.3c-0.1-1-0.3-1.9-0.3-2.8c0-5.5,0-10.9,0-16.4
			c0-13.2,0-26.4,0-39.6c0-1.3,0-2.6,0-4c2.9-0.9,5.5-0.4,8.1-0.4c1,0.9,0.7,1.9,0.7,2.8c0,6.4,0,12.8,0,19.3c0,1.3,0,2.6,0,3.9
			c0.3,0.3,0.7,0.7,1,0.8c0.7,0.1,1.4,0.1,2.1,0.1c22.7,0,45.4,0,68,0c0,3.1,0,6.2,0,9.3c-22.5,0-45,0-67.4,0c-0.9,0-1.9,0-2.8,0.1
			C923.8,530.1,923.5,530.6,923.1,530.9z"/>
		<path fill="#5FADC1" d="M914.5,795.3c0-3.1,0-6.2,0-9.3c22.6,0,45.1,0,67.7,0c0.8,0,1.7,0,2.5-0.1c0.4-0.1,0.7-0.5,1-0.8
			c0-13.3,0-26.5,0.1-39.8c0-1.4,0.1-2.8,0.1-4.3c2.9,0,5.7,0,8.6,0c0,0.9,0.1,1.9,0.1,2.8c0,16.2,0,32.4,0,48.6
			c0,0.9-0.1,1.9-0.2,2.8C967.8,795.3,941.1,795.3,914.5,795.3z"/>
		<path fill="#5FADC1" d="M914.5,434.4c0-3.1,0-6.2,0-9.3c26.6,0,53.3,0,79.9,0c0,3.1,0,6.2,0,9.3
			C967.8,434.4,941.1,434.4,914.5,434.4z"/>
		<path fill="#89B1C4" d="M680.6,1.4c-1.1,0-2.1,0.1-3.2,0.1c-86.9,0-173.9,0-260.8,0c0-0.2,0-0.5,0-0.7c83,0,166,0,249,0
			c3.1,0,6.2,0,9.3-0.1c1.3,0.1,2.6,0.1,3.8,0.2C679.3,0.9,680,1.2,680.6,1.4z"/>
		<path fill="#D5FFFF" d="M417.3,153.9c1.7,0,3.3,0.1,5,0.1c69.6,0,139.3,0,208.9,0c2.6,0,5.2,0,7.8,0.2c0.8,0,1.6,0.4,2.4,0.6
			c-3.1,0-6.2,0-9.3,0c-70.2,0-140.5,0-210.7,0c-1.1,0-2.1,0.1-3.2,0c-0.5-0.1-1-0.4-1.5-0.7C416.8,154,417.1,153.9,417.3,153.9z"/>
		<path fill="#D5FFFF" d="M634.1,1072.5c1.2,0,2.4,0.1,3.6,0.1c64.4,0,128.8,0.1,193.3,0.1c1.4,0,2.8-0.2,4.3-0.2
			c-0.3,0.3-0.6,0.8-1,0.8c-1.1,0.1-2.1,0.1-3.2,0.1c-70.7,0-141.3,0-212,0c-1.4,0-2.9,0.5-4.1-0.6c2.9,0,5.8-0.1,8.8-0.1
			C627.1,1072.6,630.6,1072.6,634.1,1072.5z"/>
		<path fill="#9CE5EB" d="M278.9,1071.4c0.5,0.2,1.1,0.6,1.6,0.6c1.2,0.1,2.4,0,3.6,0c65.8,0,131.6,0,197.4,0c1.7,0,3.3,0,5,0.1
			c0,0.2,0,0.4,0,0.6c-1.4,0-2.8,0.1-4.3,0.1c-66.9,0-133.7,0-200.6,0c-1.2,0-2.3,0-3.5,0C277.7,1071.8,278.3,1071.6,278.9,1071.4z"
			/>
		<path fill="#826062" d="M390.9,1.5c-1.5,0-3.1,0-4.6,0c-43.1,0-86.3,0-129.4,0c0-0.2,0-0.5,0-0.7c43.3,0,86.5,0,129.8,0
			c1.4,0,2.8,0.1,4.3,0.1C390.9,1,390.9,1.3,390.9,1.5z"/>
		<path fill="#EDE5EB" d="M575.7,886c-1.5,0-3.1-0.1-4.6-0.1c-16.5,0-32.9,0-49.4,0c-1.1,0-2.1,0-3.1-0.3c-0.5-0.1-0.3-0.8,0.1-1.1
			c0.5,0.2,1.1,0.5,1.6,0.6c1.1,0.1,2.1,0,3.2,0c40.5,0,81.1,0,121.6,0c1.4,0,2.9-0.4,4.1,0.6c-1.3,0-2.6,0.1-3.9,0.1
			c-21.8,0-43.6,0-65.3,0C578.5,885.9,577.1,885.9,575.7,886z"/>
		<path fill="#8AD9E2" d="M486.5,1072.7c0-0.2,0-0.4,0-0.6c1.1,0,2.1-0.1,3.2-0.1c36,0,72,0,108.1,0c0,0.2,0,0.4,0.1,0.6
			c-0.9,0-1.9,0.1-2.8,0.1c-35.3,0-70.6,0-106-0.1C488.2,1072.7,487.3,1072.7,486.5,1072.7z"/>
		<path fill="#A77477" d="M165.5,918.7c-0.4,0.2-0.8,0.6-1.2,0.6c-4.2,0.3-8.5,0.8-12.7,0.8c-26.6-0.1-53.1,0-79.7,0
			c-1.5,0-3.1,0-4.6,0.1c0.2-0.2,0.4-0.7,0.7-0.7c1.2-0.1,2.4-0.1,3.6-0.1c25.7,0,51.3,0,77,0c4.5,0,9,0,13.5-0.6
			C163.1,918.6,164.3,918.7,165.5,918.7z"/>
		<path fill="#BEF6F8" d="M67.1,1072.6c1.3,0,2.6,0.1,3.9,0.1c27.9,0,55.8,0,83.7,0c2.4,0,4.7-0.1,7.1-0.1c0.5,0.1,1,0.2,1.5,0.3
			c-0.7,0.2-1.3,0.5-2,0.5c-1.5,0.1-3.1,0-4.6,0c-28.6,0-57.1,0-85.7,0c-0.9,0-1.9,0-2.8-0.1C67.8,1073.3,67.5,1072.9,67.1,1072.6z"
			/>
		<path fill="#7AADC1" d="M575.7,886c1.4,0,2.8-0.1,4.3-0.1c21.8,0,43.6,0,65.3,0c1.3,0,2.6-0.1,3.9-0.1c4,0,7.9,0.1,11.9,0.1
			c0.8,0,1.7-0.1,2.2,0.8c-18.3,0-36.6,0-54.9,0c-9.7,0-19.5,0-29.2,0C577.9,886.5,576.7,886.9,575.7,886z"/>
		<path fill="#8AD9E2" d="M913.7,207.6c0.5,0.2,1,0.6,1.6,0.6c1.1,0.1,2.1,0,3.2,0c23.9,0,47.8,0,71.7,0c1.4,0,2.9,0,4.3,0.1
			c-0.4,0.2-0.8,0.6-1.2,0.6c-0.9,0.1-1.9,0.1-2.8,0.1c-24.5,0-48.9,0-73.4,0c-1.1,0-2.2,0.1-3.2-0.1
			C913,208.7,913.2,208.1,913.7,207.6z"/>
		<path fill="#DDD5DF" d="M995.7,135.6c-1.2,0-2.4-0.1-3.6-0.1c-24.8,0-49.6,0-74.4,0c-1.3,0-2.6,0.1-3.9,0.2c0.3-0.3,0.6-0.8,1-0.8
			c0.8-0.1,1.7-0.1,2.5-0.1c24.9,0,49.8,0,74.8,0c0.8,0,1.7,0,2.5,0.1C995,135,995.4,135.4,995.7,135.6z"/>
		<path fill="#89B1C4" d="M994.4,425.1c-26.6,0-53.3,0-79.9,0c0.4-0.2,0.7-0.6,1.1-0.7c0.9-0.1,1.9-0.1,2.8-0.1c24,0,48,0,72,0
			c0.9,0,1.9,0,2.8,0.1C993.7,424.4,994,424.8,994.4,425.1z"/>
		<path fill="#9CE5EB" d="M914.5,434.4c26.6,0,53.3,0,79.9,0c-0.4,0.2-0.8,0.6-1.2,0.6c-0.9,0.1-1.9,0.1-2.8,0.1
			c-24,0-47.9,0-71.9,0c-0.9,0-1.9,0-2.8-0.1C915.2,435,914.9,434.6,914.5,434.4z"/>
		<path fill="#6CC0CF" d="M914.5,795.3c26.6,0,53.2,0,79.9,0c-0.4,0.2-0.7,0.6-1.1,0.7c-0.9,0.1-1.9,0.1-2.8,0.1
			c-24,0-47.9,0-71.9,0c-0.9,0-1.9,0-2.8-0.1C915.2,795.9,914.9,795.5,914.5,795.3z"/>
		<path fill="#AEB9CA" d="M994.4,520.7c-22.7,0-45.4,0-68,0c-0.7,0-1.4,0.1-2.1-0.1c-0.4-0.1-0.7-0.5-1-0.8c1.4,0.1,2.8,0.2,4.3,0.2
			c21.1,0,42.2,0,63.3,0C992,520,993.4,519.4,994.4,520.7z"/>
		<path fill="#6CC0CF" d="M923.1,530.9c0.3-0.3,0.6-0.8,1-0.8c0.9-0.1,1.9-0.1,2.8-0.1c22.5,0,45,0,67.4,0c-0.4,0.2-0.7,0.6-1.1,0.7
			c-1.1,0.1-2.1,0.1-3.2,0.1c-20.9,0-41.8,0-62.7,0C926,530.7,924.5,530.8,923.1,530.9z"/>
		<path fill="#AEB9CA" d="M985.6,785.1c-0.3,0.3-0.6,0.7-1,0.8c-0.8,0.1-1.7,0.1-2.5,0.1c-22.6,0-45.1,0-67.7,0
			c0.4-0.2,0.8-0.6,1.2-0.6c1.1-0.1,2.1-0.1,3.2-0.1c20.9,0,41.7,0,62.6,0C982.8,785.3,984.2,785.1,985.6,785.1z"/>
		<path fill="#BEF6F8" d="M913.9,145.3c1.4,0.1,2.8,0.2,4.2,0.2c17,0,34,0,51.1,0c1.3,0,2.6,0,3.7,0c0.6,0.6,0.4,1,0,1.3
			c-0.7-0.2-1.3-0.5-2-0.5c-2-0.1-4,0-6,0c-15.6,0-31.2,0-46.8,0c-1.1,0-2.1,0-3.2-0.1C914.6,146.1,914.3,145.6,913.9,145.3z"/>
		<path fill="#89B1C4" d="M994.5,199c-18.8,0-37.6,0-56.4,0c-1,0-2.2,0.4-2.8-0.9c1.4,0,2.8,0.1,4.3,0.1c17.1,0,34.2,0,51.3,0
			C992,198.3,993.4,197.8,994.5,199z"/>
		<path fill="#C4C4C5" d="M968,615.5c-2.1,0-4.3,0-6.4,0c-15.7,0-31.5,0-47.2,0c0.4-0.2,0.8-0.6,1.2-0.6c1.1-0.1,2.1-0.1,3.2-0.1
			c15,0,30.1,0,45.1,0C965.3,614.8,966.8,614.5,968,615.5z"/>
		<path fill="#D5FFFF" d="M914.5,625.5c16.3,0,32.5,0,48.8,0c1.6,0,3.3-0.4,4.9,0.6c-1.8,0-3.5,0.1-5.3,0.1c-14.9,0-29.8,0-44.7,0
			C916.9,626.2,915.5,626.7,914.5,625.5z"/>
		<path fill="#DDD5DF" d="M967.4,671.9c-0.8,0.2-1.6,0.5-2.4,0.6c-1.4,0.1-2.8,0.1-4.3,0.1c-15.4,0-30.9,0-46.3,0
			c0.4-0.2,0.8-0.6,1.2-0.6c0.7-0.1,1.4-0.1,2.1-0.1c16,0,32.1,0,48.1,0C966.4,671.9,966.9,671.9,967.4,671.9z"/>
		<path fill="#BEF6F8" d="M914.5,682.6c16.8,0,33.6,0,50.3,0c0.6,0,1.2,0.1,1.8,0.1c-1,0.9-2.2,0.6-3.4,0.6c-6.4,0-12.8,0-19.2,0
			c-8.8,0-17.5,0-26.3,0C916.7,683.3,915.4,683.7,914.5,682.6z"/>
		<path fill="#6CC0CF" d="M597.8,1072.7c0-0.2,0-0.4-0.1-0.6c11.2,0,22.4,0,33.7,0c0.9,0,1.9-0.2,2.7,0.5c-3.5,0.1-7,0.1-10.5,0.2
			c-2.9,0-5.8,0.1-8.8,0.1C609.2,1072.8,603.5,1072.7,597.8,1072.7z"/>
		<path fill="#89B1C4" d="M163.4,1072.9c-0.5-0.1-1-0.2-1.5-0.3c0.2-0.1,0.4-0.3,0.6-0.3c5.5-0.4,11-0.7,16.5-1.1
			c-0.8,0.2-1.5,0.5-2.3,0.6C172.3,1072.2,167.8,1072.5,163.4,1072.9z"/>
		<path fill="#AEB9CA" d="M960.9,270.3c-4.3,0-8.6,0-12.8,0c0.5-0.2,1-0.6,1.6-0.6c3.2-0.1,6.5-0.1,9.7,0
			C959.8,269.7,960.3,270.1,960.9,270.3z"/>
		<path fill="#AEB9CA" d="M960.2,857.3c-3.8,0-7.6,0-11.5,0c0.1-0.1,0.2-0.2,0.3-0.2c2.5-0.8,8.4-0.8,10.9,0
			C960,857.1,960.1,857.2,960.2,857.3z"/>
		<path fill="#9CE5EB" d="M948.7,363.1c3.8,0,7.7,0,11.5,0c-0.1,0.1-0.2,0.2-0.3,0.2c-2.5,0.7-8.5,0.7-11,0
			C948.8,363.3,948.8,363.1,948.7,363.1z"/>
		<path fill="#AEB9CA" d="M977.9,12.9c-3.3,0-6.6,0-9.9,0c0.4-0.2,0.8-0.6,1.2-0.6c2.5-0.1,5.1-0.1,7.6,0
			C977.2,12.3,977.5,12.7,977.9,12.9z"/>
		<path fill="#C5E1E9" d="M994.4,741c-2.9,0-5.7,0-8.6,0c0.1-0.1,0.1-0.2,0.2-0.3c2.7-0.7,5.4-0.7,8.1,0
			C994.2,740.8,994.3,740.9,994.4,741z"/>
		<path fill="#AEB9CA" d="M977.3,1006.4c-2.9,0-5.8,0-8.7,0c2.6-1.3,5.4-0.7,8.1-0.4C976.9,1006,977.1,1006.2,977.3,1006.4z"/>
		<path fill="#9CE5EB" d="M930.2,1064.1c2.9,0,5.7,0,8.6,0C936.2,1065.2,932.7,1065.2,930.2,1064.1z"/>
		<path fill="#AEB9CA" d="M691.2,2.2c-2,0-4,0-6-0.1c-0.7,0-1.3-0.4-1.9-0.6c2.1,0,4.2,0,6.3,0.1C690.2,1.6,690.7,1.9,691.2,2.2z"/>
		<path fill="#9CE5EB" d="M930.9,70.6c2.4,0,4.8,0,7.2,0C935.7,71.7,933.3,71.7,930.9,70.6z"/>
		<path fill="#8AD9E2" d="M948,950c1.4,0,2.8,0,4.2,0.1c0.5,0,1,0.4,1.6,0.6C951.8,950.7,949.8,951.1,948,950z"/>
		<path fill="#8AD9E2" d="M955.1,950.7c0.5-0.2,1-0.5,1.6-0.6c1.4-0.1,2.8,0,4.2-0.1C959.1,951.1,957.1,950.8,955.1,950.7z"/>
		<path fill="#89B1C4" d="M183.3,1070.5c1.8-1.1,3.7-0.7,5.6-0.8C187.2,1070.8,185.2,1070.6,183.3,1070.5z"/>
		<path fill="#B9BABB" d="M169.7,917.9c-1.3,0.9-2.7,0.8-4.2,0.7C166.8,917.6,168.3,917.9,169.7,917.9z"/>
		<path fill="#89B1C4" d="M179,1071.2c1.3-1,2.8-0.8,4.3-0.7C182,1071.4,180.5,1071.4,179,1071.2z"/>
		<path fill="#7AADC1" d="M191.8,1069.1c1.1-0.9,2.4-0.8,3.7-0.7C194.4,1069.2,193.1,1069.3,191.8,1069.1z"/>
		<path fill="#89B1C4" d="M189,1069.7c0.8-0.8,1.9-0.7,2.9-0.6C191,1069.9,190,1070,189,1069.7z"/>
		<path fill="#87888B" d="M390.9,1.5c0-0.2,0-0.4,0-0.6c0.2-0.1,0.5-0.1,0.7,0c-0.1,0.2-0.1,0.5-0.2,0.7c0,0-0.3,0-0.3,0L390.9,1.5z
			"/>
		<path fill="#6CC0CF" d="M417.3,153.9c-0.2,0-0.5,0.1-0.7,0.1c-0.1-0.2-0.1-0.5,0-0.7C416.9,153.5,417.1,153.7,417.3,153.9z"/>
		<path fill="#B9BABB" d="M871.8,1071.9c0.2-0.1,0.4,0,0.6,0.1c-0.1,0.1-0.2,0.3-0.3,0.4C872,1072.2,871.9,1072,871.8,1071.9z"/>
		<path fill="#CBCBCB" d="M417.3,310.9c-0.3,0-0.5,0-0.8-0.1C416.8,310.1,417.1,310.3,417.3,310.9z"/>
		<path fill="#FEFEFF" d="M955.1,353c-0.5,0-0.9,0-1.4,0c-0.5-0.2-1-0.6-1.6-0.6c-1.4-0.1-2.8-0.1-4.2-0.1
			c-8.7-2-15.1-7.3-19.8-14.6c-8.3-13.2-8-30.7,1.1-43.7c5.1-7.2,11.8-12,20.6-13.5c6-1,11.8-0.1,17.3,2.7
			c8.2,4.2,13.7,10.9,16.8,19.5c4.6,13,3.2,25.3-4.6,36.6c-4.5,6.6-10.6,11.2-18.5,12.9c-1.4,0-2.8,0-4.2,0.1
			C956.1,352.4,955.6,352.8,955.1,353z"/>
		<path fill="#DDD5DF" d="M955.1,353c0.5-0.2,1-0.6,1.6-0.6c1.4-0.1,2.8-0.1,4.2-0.1C959.1,353.5,957.1,353,955.1,353z"/>
		<path fill="#DDD5DF" d="M948,352.3c1.4,0,2.8,0,4.2,0.1c0.5,0,1,0.4,1.6,0.6C951.8,353,949.8,353.5,948,352.3z"/>
		<path fill="#FEFEFF" d="M986.6,904.3c-0.3,10-3.5,19.2-10.9,26.7c-8.2,8.3-18.1,11.1-29.4,8.1c-7-1.9-12.4-6.3-16.7-12.1
			c-9.6-13.3-10.1-32.4,0.1-46.4c3.5-4.9,8.1-8.7,13.8-11c9.3-3.7,18.2-2.9,26.6,2.5c7.8,5,12.5,12.2,15,21c0.6,2.1,1,4.2,1.3,6.3
			C986.5,900.7,986.5,902.3,986.6,904.3z"/>
	</g>
</g>
</svg>
