<?xml version="1.0" encoding="UTF-8" standalone="yes"?>
<svg version="1.2" baseProfile="tiny-ps" viewBox="0 0 313.1 313.1" xml:space="preserve" xmlns="http://www.w3.org/2000/svg">
  <title>bimi-svg-tiny-12-ps</title>
  <g id="g8" transform="matrix(1.3333333,0,0,-1.3333333,0,256.30667)">
    <g id="g10" transform="scale(0.1)">
      <path id="path12" fill="#F14823" d="M1174,283.1c56,0,112,13,156,38l425,246c1-6,1-12,1-17v-214c0-52-41-124-86-150l-413-240&#xA;&#x9;&#x9;&#x9;c-45-26-127-26-171,0l-413,240c-45,26-86,98-86,150v236l430-251C1062,296.1,1118,283.1,1174,283.1z M1154,1009.2l-76,125l216-45&#xA;&#x9;&#x9;&#x9;L1154,1009.2z M2263,1127.2l-933,544c-88,51-225,51-312,0l-933-544c-54-31-85-79-85-131c0-52,31-100,85-131l363-212v-317&#xA;&#x9;&#x9;&#x9;c0-103,67-219,156-271l413-240c44-26,100-38,156-38s112,13,156,38l413,240c89,52,156,168,156,271v214c0,103-67,219-155,271&#xA;&#x9;&#x9;&#x9;l-358,210l65,37c17,10,26,29,23,49c-3,19-18,35-37,39l-446,93c-18,4-38-4-48-19c-11-15-12-36-2-52l157-258c9-15,24-23,40-23&#xA;&#x9;&#x9;&#x9;c8,0,16,2,23,6l84,48l425-251c5-3,11-7,16-11l-425-247c-45-26-127-26-172,0l-933,544c-7,4-11,8-13,10c2,2,7,6,13,10l933,544&#xA;&#x9;&#x9;&#x9;c45,26,127,26,171,0l933-544c7-4,11-7,13-10c-2-3-7-6-13-10l-172-100c-33-19-45-62-25-96c19-33,62-45,96-25l172,101&#xA;&#x9;&#x9;&#x9;c54,31,85,79,85,131C2348,1048.2,2317,1096.2,2263,1127.2"/>
    </g>
  </g>
</svg>