<?xml version="1.0" encoding="UTF-8"?>
<svg xmlns="http://www.w3.org/2000/svg" viewBox="0 -62.5 185 185" version="1.2" baseProfile="tiny-ps">
  <title>Crazy Factory</title>
  <polygon fill="#1E1A1B" points="64.234,58.328 71.348,58.333 71.334,46.839 75.726,46.841 75.721,41.637 71.328,41.632 
  71.321,36.444 76.255,36.447 76.248,30.971 64.203,30.96 "/>
  <path fill="#1E1A1B" d="M86.507,48.575c-0.364-3.099-0.729-6.925-1.095-11.479c-0.715,5.229-1.161,9.055-1.338,11.477L86.507,48.575
  z M90.254,30.981l4.104,27.37l-7.282-0.005l-0.36-4.92l-2.552-0.002l-0.416,4.919l-7.366-0.006l3.583-27.364L90.254,30.981z"/>
  <path fill="#1E1A1B" d="M112.165,42.932l-7.113-0.006l-0.006-4.767c-0.001-1.387-0.081-2.248-0.239-2.586
  c-0.146-0.35-0.479-0.524-0.998-0.525c-0.586,0-0.957,0.208-1.113,0.625c-0.157,0.417-0.235,1.318-0.233,2.704l0.015,12.712
  c0.001,1.33,0.081,2.197,0.239,2.603c0.158,0.406,0.513,0.609,1.066,0.609c0.527,0.001,0.872-0.202,1.028-0.607
  c0.169-0.405,0.252-1.357,0.25-2.856l-0.004-3.432l7.113,0.006l0.002,1.064c0.003,2.829-0.197,4.835-0.602,6.018
  c-0.394,1.184-1.276,2.22-2.648,3.108c-1.363,0.89-3.046,1.332-5.051,1.331c-2.083-0.001-3.801-0.381-5.154-1.136
  c-1.352-0.756-2.249-1.799-2.689-3.13c-0.441-1.341-0.663-3.353-0.666-6.035l-0.01-7.995c-0.003-1.972,0.063-3.448,0.197-4.429
  c0.134-0.991,0.533-1.943,1.196-2.856c0.675-0.912,1.603-1.626,2.785-2.144c1.193-0.529,2.562-0.792,4.104-0.792
  c2.095,0.002,3.824,0.409,5.188,1.222c1.363,0.812,2.261,1.827,2.689,3.044c0.429,1.207,0.646,3.089,0.649,5.647L112.165,42.932z"/>
  <polygon fill="#1E1A1B" points="113.492,36.476 117.7,36.48 117.725,58.369 124.838,58.375 124.812,36.485 129.036,36.489 
  129.029,31.011 113.485,30.999 "/>
  <path fill="#1E1A1B" d="M139.799,38.052c-0.001-1.273-0.074-2.085-0.222-2.436c-0.136-0.359-0.423-0.54-0.862-0.541
  c-0.371,0-0.658,0.146-0.861,0.439c-0.191,0.281-0.285,1.127-0.284,2.535l0.015,12.778c0.002,1.589,0.065,2.569,0.19,2.942
  c0.135,0.372,0.439,0.558,0.913,0.558c0.483,0,0.793-0.213,0.928-0.642c0.135-0.427,0.201-1.447,0.199-3.06L139.799,38.052z
   M146.923,47.05c0.004,2.75-0.062,4.698-0.195,5.849c-0.123,1.138-0.527,2.18-1.213,3.126c-0.675,0.946-1.593,1.672-2.751,2.178
  c-1.16,0.506-2.512,0.759-4.055,0.758c-1.465-0.001-2.782-0.238-3.954-0.713c-1.16-0.485-2.097-1.207-2.807-2.166
  c-0.711-0.958-1.135-2.001-1.271-3.128c-0.138-1.127-0.207-3.099-0.211-5.917l-0.006-4.682c-0.003-2.75,0.058-4.693,0.18-5.832
  c0.134-1.149,0.538-2.197,1.213-3.144c0.686-0.945,1.608-1.672,2.768-2.178c1.16-0.507,2.511-0.759,4.055-0.758
  c1.464,0.001,2.776,0.245,3.938,0.73c1.171,0.474,2.113,1.19,2.824,2.148c0.711,0.959,1.134,2.001,1.271,3.128
  s0.206,3.101,0.209,5.917L146.923,47.05z"/>
  <path fill="#1E1A1B" d="M156.675,35.715l0.008,6.085c0.799,0.001,1.356-0.105,1.672-0.32c0.326-0.225,0.488-0.939,0.487-2.146
  l-0.002-1.505c0-0.867-0.159-1.437-0.475-1.707C158.061,35.851,157.498,35.716,156.675,35.715 M149.557,31.027l5.035,0.004
  c3.356,0.003,5.626,0.135,6.81,0.395c1.193,0.26,2.162,0.926,2.907,1.997c0.756,1.06,1.136,2.756,1.139,5.089
  c0.003,2.13-0.261,3.561-0.789,4.293s-1.569,1.171-3.124,1.316c1.407,0.35,2.354,0.818,2.84,1.404
  c0.485,0.587,0.784,1.128,0.897,1.623c0.124,0.485,0.188,1.832,0.19,4.04l0.009,7.218l-6.605-0.005l-0.012-9.094
  c-0.002-1.465-0.121-2.372-0.357-2.722c-0.227-0.35-0.828-0.524-1.809-0.525l0.015,12.34l-7.113-0.006L149.557,31.027z"/>
  <path fill="#1E1A1B" d="M183.348,31.053l-5.166,17.457l0.012,9.906l-6.59-0.005l-0.011-9.906l-5.022-17.465l6.539,0.005
  c1.031,5.331,1.609,8.921,1.736,10.77c0.39-2.918,1.045-6.508,1.964-10.767L183.348,31.053z"/>
  <path fill="#1E1A1B" d="M80.788,12.515l-7.113-0.006l-0.006-4.766c-0.001-1.386-0.081-2.249-0.239-2.587
  c-0.147-0.349-0.48-0.524-0.998-0.525c-0.586,0-0.957,0.208-1.114,0.625c-0.157,0.417-0.235,1.318-0.233,2.704L71.1,20.672
  c0.001,1.33,0.081,2.198,0.239,2.603c0.158,0.406,0.513,0.609,1.066,0.61c0.529,0,0.872-0.203,1.029-0.608
  c0.169-0.406,0.252-1.357,0.25-2.857l-0.004-3.431l7.113,0.006l0.002,1.064c0.003,2.829-0.197,4.835-0.602,6.018
  c-0.393,1.183-1.276,2.219-2.648,3.108c-1.363,0.889-3.046,1.332-5.051,1.331c-2.083-0.001-3.801-0.38-5.154-1.136
  c-1.352-0.756-2.249-1.799-2.69-3.129c-0.441-1.342-0.663-3.353-0.666-6.036l-0.009-7.995c-0.003-1.972,0.063-3.448,0.197-4.429
  c0.134-0.991,0.533-1.943,1.196-2.855c0.675-0.913,1.603-1.627,2.785-2.145C69.347,0.263,70.715-0.001,72.258,0
  c2.095,0.001,3.824,0.408,5.188,1.221c1.364,0.812,2.261,1.827,2.69,3.044c0.429,1.207,0.645,3.089,0.649,5.647L80.788,12.515z"/>
  <path fill="#1E1A1B" d="M90.443,5.271l0.008,6.085c0.799,0.001,1.356-0.105,1.672-0.32c0.326-0.224,0.488-0.94,0.487-2.146
  l-0.001-1.505c-0.001-0.867-0.16-1.436-0.476-1.707C91.829,5.407,91.266,5.272,90.443,5.271 M83.325,0.583l5.035,0.004
  c3.356,0.003,5.626,0.134,6.809,0.394c1.194,0.26,2.163,0.926,2.908,1.997c0.756,1.06,1.135,2.756,1.139,5.089
  c0.003,2.13-0.261,3.561-0.789,4.293c-0.528,0.732-1.569,1.171-3.124,1.316c1.407,0.351,2.354,0.819,2.84,1.405
  c0.484,0.587,0.784,1.128,0.897,1.623c0.124,0.485,0.188,1.832,0.19,4.041l0.009,7.218l-6.605-0.006l-0.012-9.094
  c-0.002-1.465-0.121-2.372-0.357-2.721c-0.227-0.35-0.828-0.525-1.808-0.526l0.014,12.34l-7.113-0.006L83.325,0.583z"/>
  <path fill="#1E1A1B" d="M110.497,18.201c-0.364-3.099-0.729-6.925-1.096-11.479c-0.715,5.229-1.16,9.055-1.338,11.477
  L110.497,18.201z M114.244,0.607l4.104,27.37l-7.282-0.005l-0.359-4.92l-2.553-0.002l-0.415,4.919l-7.367-0.006l3.584-27.364
  L114.244,0.607z"/>
  <polygon fill="#1E1A1B" points="118.964,6.088 123.796,6.092 118.343,24.005 118.348,27.978 131.459,27.988 131.452,22.511 
  126.146,22.507 131.433,6.097 131.426,0.621 118.958,0.611 "/>
  <path fill="#1E1A1B" d="M148.423,0.634l-5.166,17.457l0.012,9.906l-6.59-0.005l-0.011-9.906l-5.022-17.465l6.538,0.005
  c1.032,5.331,1.61,8.921,1.737,10.769c0.39-2.918,1.045-6.507,1.963-10.766L148.423,0.634z"/>
  <path fill="#0094D9" d="M57.917,26.156v24.754c0,4.32-3.503,7.823-7.825,7.823H23.486c5.814-2.562,12.277-6.929,18.428-12.717
  l12.53,8.997l-8.998-12.519c4.783-5.053,8.61-10.326,11.263-15.278C57.114,26.883,57.518,26.53,57.917,26.156"/>
  <path fill="#0094D9" d="M0,8.642c0-4.321,3.503-7.824,7.824-7.824h20.273c-3.795,2.851-7.593,6.027-11.315,9.49
  c-1.05,0.967-2.094,1.96-3.128,2.993l-0.32,0.322l-0.395,0.393c-2.187,2.217-4.261,4.467-6.222,6.729L36.222,41.93
  c0.926-0.804,1.845-1.66,2.75-2.564c0.84-0.84,1.637-1.691,2.391-2.55L30.372,21.525c3.054-2.36,6.137-4.147,9.059-5.31l3.872-9.774
  c-5.152,2.05-10.833,5.474-16.462,10.172l-3.214-4.472C28.99,7.542,34.486,3.707,39.744,0.818h10.348
  c4.321,0,7.825,3.503,7.825,7.824v5.614c-1.961,0.857-4.167,2.39-6.219,4.442c-4.382,4.382-6.401,9.468-4.51,11.359l0.112,0.104
  c-1.385,2.427-3.198,4.951-5.383,7.425c-0.724,0.818-1.487,1.633-2.289,2.435c-0.867,0.867-1.748,1.689-2.634,2.464
  c-8.381,7.323-17.32,10.4-20.857,6.864c-2.949-2.949-1.301-9.652,3.571-16.656l-5.397-3.086C5.209,41.391,1.599,53.181,6.04,58.53
  C2.578,57.722,0,54.618,0,50.911V8.642z"/>
</svg>
