<?xml version="1.0" encoding="utf-8"?>

<svg version="1.2" baseProfile="tiny-ps" id="Layer_1" xmlns="http://www.w3.org/2000/svg" xmlns:xlink="http://www.w3.org/1999/xlink"
	 viewBox="0 0 549.06 325.29" xml:space="preserve">
<title>Feed Nova Scotia</title>
<g id="FNS_Logo_Blue_00000007392531623406192550000006594960419181916095_">
	<g id="Artwork_1_00000158030279292504837770000008806243352338487187_">
		<g>
			<path fill-rule="evenodd" fill="#0081C6" d="M97.12,289.66c-5.22,0-5.22,0-5.22,0c0-23.62,0-23.62,0-23.62
				c0-9.08-2.95-13.4-9.77-13.4c-7.27,0-12.03,5.45-12.03,15.67c0,21.35,0,21.35,0,21.35c-5.23,0-5.23,0-5.23,0
				c0-40.89,0-40.89,0-40.89c4.77,0,4.77,0,4.77,0c0,7.73,0,7.73,0,7.73c2.95-5.68,7.5-8.63,13.85-8.63c8.86,0,13.63,5.9,13.63,16.8
				L97.12,289.66L97.12,289.66z"/>
			<path fill-rule="evenodd" fill="#0081C6" d="M149.13,269.22c0,13.17-7.72,21.35-19.08,21.35c-11.35,0-18.85-8.18-18.85-21.35
				c0-13.17,7.5-21.35,18.85-21.35C141.63,247.87,149.13,256.04,149.13,269.22L149.13,269.22L149.13,269.22z M116.65,269.22
				c0,10.22,5.68,16.81,13.4,16.81c8.18,0,13.63-6.59,13.63-16.81c0-10.44-5.45-17.04-13.63-17.04
				C122.33,252.18,116.65,259,116.65,269.22L116.65,269.22L116.65,269.22z"/>
			<polygon fill-rule="evenodd" fill="#0081C6" points="165.25,248.77 176.84,285.11 188.65,248.77 193.65,248.77 179.56,289.66 
				173.43,289.66 159.8,248.77 165.25,248.77 			"/>
			<path fill-rule="evenodd" fill="#0081C6" d="M235.89,289.66c-4.55,0-4.55,0-4.55,0c0-7.04,0-7.04,0-7.04
				c-3.18,4.99-7.72,7.49-13.63,7.49c-7.95,0-12.95-4.78-12.95-11.58c0-8.64,7.27-13.86,20.67-13.86c5.23,0,5.23,0,5.23,0
				c0-0.45,0.22-0.91,0.22-1.35c0-6.82-3.63-10.68-9.54-10.68c-4.08,0-7.95,0.91-11.82,3.4c0-5,0-5,0-5
				c4.09-2.04,8.18-3.18,12.27-3.18c9.31,0,14.08,5.22,14.08,15.67L235.89,289.66L235.89,289.66z M210.22,278.08
				c0,4.54,3.19,7.95,8.18,7.95c7.27,0,12.27-5,12.27-13.4c0-3.86,0-3.86,0-3.86c-5.68,0-5.68,0-5.68,0
				C215.22,268.76,210.22,272.39,210.22,278.08L210.22,278.08L210.22,278.08z"/>
			<path fill-rule="evenodd" fill="#0081C6" d="M287.22,254.68c-3.18-1.59-6.36-2.04-9.54-2.04c-5.22,0-8.4,2.49-8.4,5.67
				c0,4.09,3.64,5.45,9.08,7.94c7.27,3.42,10.9,6.36,10.9,12.05c0,7.04-5.69,11.81-14.99,11.81c-3.87,0-7.49-0.68-10.68-2.05
				c0-4.77,0-4.77,0-4.77c3.64,1.59,7.05,2.5,10.45,2.5c5.9,0,9.77-2.95,9.77-7.04c0-4.54-3.41-6.14-9.54-9.09
				c-6.59-3.18-10.45-5.68-10.45-11.36c0-5.67,5.23-9.99,13.4-9.99c3.64,0,7.04,0.45,10,1.36V254.68L287.22,254.68z"/>
			<path fill-rule="evenodd" fill="#0081C6" d="M331.74,255.13c-2.5-1.37-5.67-2.04-9.09-2.04c-8.63,0-14.99,6.36-14.99,16.12
				c0,10,5.68,16.12,14.53,16.12c3.18,0,6.36-0.68,9.76-2.27c0.46,5,0.46,5,0.46,5c-3.18,1.37-6.82,2.05-10.45,2.05
				c-11.81,0-19.75-8.41-19.75-20.9c0-12.26,8.4-20.67,20.66-20.67c3.41,0,6.36,0.46,9.32,1.59L331.74,255.13L331.74,255.13z"/>
			<path fill-rule="evenodd" fill="#0081C6" d="M382.84,269.22c0,13.17-7.72,21.35-19.08,21.35c-11.35,0-18.85-8.18-18.85-21.35
				c0-13.17,7.5-21.35,18.85-21.35C375.35,247.87,382.84,256.04,382.84,269.22L382.84,269.22L382.84,269.22z M350.36,269.22
				c0,10.22,5.68,16.81,13.4,16.81c8.18,0,13.63-6.59,13.63-16.81c0-10.44-5.45-17.04-13.63-17.04
				C356.04,252.18,350.36,259,350.36,269.22L350.36,269.22L350.36,269.22z"/>
			<path fill-rule="evenodd" fill="#0081C6" d="M406.01,248.77c9.54,0,9.54,0,9.54,0c0,4.32,0,4.32,0,4.32c-9.54,0-9.54,0-9.54,0
				c0,23.62,0,23.62,0,23.62c0,6.13,1.36,8.86,5.91,8.86c1.13,0,2.72-0.23,4.08-0.91c0,4.78,0,4.78,0,4.78
				c-1.59,0.45-3.4,0.68-5.23,0.68c-7.49,0-9.76-3.87-9.76-12.49c0-24.53,0-24.53,0-24.53c-8.4,0-8.4,0-8.4,0c0-4.32,0-4.32,0-4.32
				c8.4,0,8.4,0,8.4,0c0-10.22,0-10.22,0-10.22c5-1.82,5-1.82,5-1.82V248.77L406.01,248.77z"/>
			<path fill-rule="evenodd" fill="#0081C6" d="M439.17,229.69v6.81h-5.91v-6.81H439.17L439.17,229.69z M438.94,248.77v40.89h-5.22
				l0-40.89H438.94L438.94,248.77z"/>
			<path fill-rule="evenodd" fill="#0081C6" d="M486.41,289.66c-4.54,0-4.54,0-4.54,0c0-7.04,0-7.04,0-7.04
				c-2.95,4.99-7.73,7.49-13.62,7.49c-7.96,0-12.95-4.78-12.95-11.58c0-8.64,7.26-13.86,20.89-13.86c5.23,0,5.23,0,5.23,0
				c0-0.45,0-0.91,0-1.35c0-6.82-3.64-10.68-9.54-10.68c-4.09,0-7.72,0.91-11.59,3.4c0-5,0-5,0-5c3.86-2.04,8.18-3.18,12.27-3.18
				c9.32,0,13.85,5.22,13.85,15.67L486.41,289.66L486.41,289.66z M460.74,278.08c0,4.54,3.18,7.95,8.18,7.95
				c7.49,0,12.49-5,12.49-13.4c0-3.86,0-3.86,0-3.86c-5.67,0-5.67,0-5.67,0C465.97,268.76,460.74,272.39,460.74,278.08
				L460.74,278.08L460.74,278.08z"/>
			<path fill-rule="evenodd" fill="#0081C6" d="M446.21,147.7c-18.17,7.27-38.38,14.08-46.56,17.03l0,0
				C407.83,161.79,428.04,154.97,446.21,147.7c-0.22-2.27-0.91-4.32-1.59-6.36c0.46,1.14,0.68,2.28,0.91,3.41
				C445.76,145.66,445.98,146.8,446.21,147.7L446.21,147.7L446.21,147.7z"/>
			<path fill-rule="evenodd" fill="#0081C6" d="M445.08,168.83c-0.46,1.36-0.68,2.72-1.14,3.86c0.46,0,0.68-0.23,1.14-0.45
				c0.91-2.73,1.37-5.9,1.82-9.09c-6.14,2.5-13.4,5.45-19.31,7.73c5.45-1.59,11.58-3.64,18.4-6.14
				C445.76,166.33,445.3,167.69,445.08,168.83L445.08,168.83L445.08,168.83z"/>
			<path fill-rule="evenodd" fill="#0081C6" d="M446.67,156.34c0,0.68,0,1.36,0,1.82c0,0.45,0,0.91,0,1.13c0,0,0.23,0,0.45-0.23
				c0-0.46,0-1.14,0-1.82c0-2.04,0-4.09-0.22-5.9c-8.86,3.41-18.4,7.04-26.58,9.99c7.05-2.04,15.9-4.78,26.35-8.86
				C446.67,153.84,446.9,154.97,446.67,156.34L446.67,156.34L446.67,156.34z"/>
			<path fill-rule="evenodd" fill="#0081C6" d="M412.82,187.45h0.22c3.64-0.46,7.95-1.37,10.9-2.73
				C419.41,186.08,415.78,186.76,412.82,187.45L412.82,187.45L412.82,187.45z"/>
			<path fill-rule="evenodd" fill="#0081C6" d="M443.25,176.78L443.25,176.78c0,0,0,0,0,0.23V176.78L443.25,176.78L443.25,176.78z"
				/>
			<path fill-rule="evenodd" fill="#0081C6" d="M103.7,127.72c25.66,0,25.66,0,25.66,0c-3.4,8.18-5.22,17.71-5.22,28.39
				c0,2.27,0,4.31,0.23,6.36c12.04-1.59,22.49-2.73,28.39-3.18c67.23-6.36,104.93-5,126.51-3.18c15.45,1.36,57.92,9.53,61.33,8.63
				c3.4-0.68,10.68-3.86,18.63-5.22c-0.24-41.79-21.12-65.41-57.92-65.41c-34.98,0-57.92,22.26-59.74,57.47
				c-2.72-36.8-23.17-57.47-57.46-57.47c-24.98,0-43.61,11.13-53.14,30.21c0-26.8,0-26.8,0-26.8c-27.26,0-27.26,0-27.26,0
				c0-7.27,0-7.27,0-7.27c0-15.21,5-22.03,15.9-22.03c3.18,0,6.59,0.68,9.76,2.27c2.51-28.17,2.51-28.17,2.51-28.17
				c-7.04-2.26-14.31-2.95-22.26-2.95c-29.3,0-44.52,15.9-44.52,47.02c0,11.12,0,11.12,0,11.12c-23.85,0-23.85,0-23.85,0
				c0,30.21,0,30.21,0,30.21c23.85,0,23.85,0,23.85,0c0,44.74,0,44.74,0,44.74c9.99-2.5,24.31-5,38.61-7.04L103.7,127.72
				L103.7,127.72z M301.53,119.77c12.49,0,21.58,9.31,23.17,26.12c-45.88,0-45.88,0-45.88,0
				C280.64,129.08,289.49,119.77,301.53,119.77L301.53,119.77L301.53,119.77z M184.33,119.77c12.27,0,21.35,9.31,22.94,26.12
				c-45.88,0-45.88,0-45.88,0C163.22,129.08,172.07,119.77,184.33,119.77L184.33,119.77L184.33,119.77z"/>
			<path fill-rule="evenodd" fill="#0081C6" d="M447.35,41.63c0,72.68,0,72.68,0,72.68c-9.08-13.41-21.81-20.22-37.7-20.22
				c-30.44,0-50.42,24.08-50.42,62.46c0,0.92,0,2.05,0,2.96c0.45,0,1.13-0.23,1.82-0.23c14.76-2.5,27.02-3.64,38.38-5.45
				c1.13-18.18,10.9-29.08,22.71-29.08c10.44,0,18.62,5.9,22.49,16.35l0,0c0,0.23,0,0.23,0,0.23c0.68,2.04,1.36,4.09,1.59,6.36
				c-18.17,7.27-38.38,14.08-46.56,17.03l0,0c-2.49,0.69-3.86,1.14-3.86,1.14s7.5,0.23,24.53-4.54c8.18-2.95,17.72-6.59,26.58-9.99
				c0.22,1.81,0.22,3.86,0.22,5.9c0,0.68,0,1.36,0,1.82c-0.22,0.23-0.45,0.23-0.45,0.23l0,0c-21.8,9.09-46.11,18.62-46.11,18.62
				s10.67-2.05,27.03-7.04c5.91-2.27,13.17-5.23,19.31-7.73c-0.45,3.18-0.91,6.36-1.82,9.09c-0.46,0.23-0.68,0.45-1.14,0.45
				c0,0.23,0,0.23,0,0.23c-14.99,5.9-38.39,15.67-38.39,15.67s5-0.68,7.27-1.13c2.27-0.46,6.59-1.37,11.13-2.73
				c7.04-2.95,19.31-7.94,19.31-7.94l0,0l0,0v0.23c-0.23,0.45-0.9,2.72-4.99,7.03c-14.99,15.22-38.39,19.08-57.01,20.67
				c-15.67,1.13-24.53-7.72-34.07-15.44c-9.31-7.72-20.45-17.27-44.96-20.89c-17.72-2.73-34.75-1.37-86.99,3.86
				c-86.99,8.63-147.41,26.57-161.49,29.3c-9.54,2.04-20.67,1.13-22.49-5.68c-0.22,1.14-0.22,2.27,0,3.41
				c1.6,7.26,12.95,8.17,22.49,6.13c2.5-0.45,6.36-1.36,11.35-2.72c0,16.35,0,16.35,0,16.35c38.61,0,38.61,0,38.61,0
				c0-25.44,0-25.44,0-25.44c8.18-1.59,17.03-3.4,26.8-5.23c9.77,21.58,30.43,33.84,59.96,33.84c14.77,0,28.62-2.26,41.57-7.27
				c0-29.76,0-29.76,0-29.76c-13.4,6.59-26.35,10.22-37.7,10.22c-13.86,0-23.62-4.77-28.62-13.17c15.21-2.27,31.8-4.32,49.51-6.13
				c10.68-1.14,19.76-2.05,27.93-2.73c5.91,30.66,29.07,48.83,64.73,48.83c14.76,0,28.62-2.26,41.34-7.27c0-20.21,0-20.21,0-20.21
				c8.17,6.58,16.12,12.49,28.84,13.62c8.4,7.96,19.53,12.5,32.02,12.5c17.94,0,32.48-9.31,41.34-26.35c0,24.52,0,24.52,0,24.52
				c34.97,0,34.97,0,34.97,0c0-177.38,0-177.38,0-177.38L447.35,41.63L447.35,41.63z M279.27,170.87
				c9.09-0.23,15.91,0.23,22.95,1.13c19.98,3.18,30.88,9.99,39.51,16.58c-10.68,4.31-20.89,6.81-30.21,6.81
				C292.44,195.4,280.86,186.31,279.27,170.87L279.27,170.87L279.27,170.87z"/>
			<path fill-rule="evenodd" fill="#0081C6" d="M479.6,136.35c12.49-6.59,22.94-12.49,22.94-12.49c-0.69-1.59-0.69-1.59-0.69-1.59
				s-5.67,2.5-14.98,6.36c-2.27,1.36-4.77,2.5-7.26,3.86"/>
			<path fill-rule="evenodd" fill="#0081C6" d="M479.6,147.03c15.44-8.18,28.16-15.91,28.16-15.91c-0.91-1.59-0.91-1.59-0.91-1.59
				s-5.22,2.5-13.63,6.13c-4.08,2.27-8.63,5-13.62,7.49"/>
			<path fill-rule="evenodd" fill="#0081C6" d="M479.6,158.16c17.94-9.54,32.93-18.63,32.93-18.63c-0.91-1.59-0.91-1.59-0.91-1.59
				s-7.27,3.63-17.04,8.18c-4.54,2.72-9.54,5.45-14.99,8.41"/>
			<path fill-rule="evenodd" fill="#0081C6" d="M479.37,170.65c19.77-11.58,37.71-23.62,37.71-23.62c-0.91-1.59-0.91-1.59-0.91-1.59
				s-3.86,2.27-12.95,6.81c-6.59,4.09-14.99,9.31-23.85,14.54"/>
			<path fill="#0081C6" d="M501.3,218.1c-4.4,0-7.61-3.12-7.61-7.13c0-3.98,3.21-7.11,7.61-7.11c4.37,0,7.59,3.13,7.59,7.11
				C508.89,214.99,505.67,218.1,501.3,218.1L501.3,218.1z M501.3,219.18c4.97,0,9.01-3.68,9.01-8.21c0-4.49-4.05-8.2-9.01-8.2
				c-4.99,0-9.04,3.71-9.04,8.2C492.26,215.5,496.31,219.18,501.3,219.18L501.3,219.18z M502.76,211.34
				c1.78-0.04,3.15-0.71,3.15-2.5c0-1.52-0.91-2.43-3.56-2.43h-4.4v9.15h1.24v-4.22h2.26l2.88,4.22h1.47L502.76,211.34
				L502.76,211.34z M499.19,210.46v-3.24h2.88c1.24,0,2.52,0.17,2.52,1.6c0,1.85-2.09,1.64-3.52,1.64H499.19L499.19,210.46z"/>
		</g>
	</g>
</g>
</svg>
