<?xml version="1.0" encoding="utf-8"?>
<svg xmlns="http://www.w3.org/2000/svg" xmlns:xlink="http://www.w3.org/1999/xlink" version="1.2" baseProfile="tiny-ps" id="Layer_1" viewBox="0 0 171.6 171.6" xml:space="preserve">
<title>Adam Hall GmbH</title>
<rect x="-2.5" y="-3" fill="#FFFFFF" width="177.2" height="177.2"/>
<g>
	<path fill="#009FCE" d="M137.6,80.7c0-3.9-2-7.2-4.9-9.3c1.2,1.8,1.9,3.9,1.9,6.3c0,0,0,44.9,0,45.2c0,0.3-0.2,0.6-0.5,0.6h-20.3
		c-0.3,0-0.5-0.2-0.5-0.5V78.9c0,0-0.1-4.9-4.2-5c-4.8-0.1-4.8,5-4.8,5V123c0,0.3-0.2,0.5-0.5,0.5H65.3c-6.2,0-11.3-5-11.3-11.3
		V98.9c0-9.6,1.7-17.2,11.3-22.4c3.4-2.1,7.7-2.6,9.1-2.7c0.2,0,0.4,0.1,0.4,0.3v36c0,2.5,1.8,4.7,4,4.7c2.2,0,4.1-2.1,4.1-4.7V59.4
		c0-2.5-1.8-4.7-4.1-4.7s-4,2.1-4,4.7c0,0,0,8.6,0,8.9c0,0.2-0.1,0.3-0.3,0.3H54.3c-0.2,0-0.3-0.1-0.3-0.3V57.8
		c0-5.8,5-10.6,11.3-10.6H93c6.3,0,11.3,4.8,11.3,10.6v8.6h19c2.7,0,5.2,1,7.1,2.5c-7-19.1-25.6-32.8-47.4-32.8
		c-27.8,0-50.3,22.1-50.3,49.4S55.2,135,83,135c10.4,0,20.1-3.1,28.2-8.5h25.9l0,0c0.3,0,0.5-0.2,0.5-0.6
		C137.6,125.6,137.6,80.7,137.6,80.7L137.6,80.7z"/>
</g>
</svg>