<?xml version="1.0" encoding="utf-8"?>

<!-- Generator: Adobe Illustrator 24.0.1, SVG Export Plug-In . SVG Version: 6.00 Build 0)  -->
<svg version="1.2" baseProfile="tiny-ps" id="Layer_1" xmlns="http://www.w3.org/2000/svg" xmlns:xlink="http://www.w3.org/1999/xlink"
	  viewBox="0 0 146.3 146.3" xml:space="preserve">
<title>BMV</title>
<g>
	<path fill="#048549" d="M33.2,64c4.2-0.6,7.3-4.1,7.3-8.4v-1.5c0-5.1-5.4-9.2-13.1-9.2H6.7v40.6h19.1c12.3,0,16.1-5.7,16.1-10.6
		v-1.6C41.9,68.7,39.4,64.8,33.2,64z M17,52.9h9.1c2.3,0,4.2,1.9,4.2,4.2l0,0c0,2.3-1.9,4.2-4.2,4.2H17V52.9z M31.4,73.1
		c0,2.5-2,4.5-4.5,4.5c0,0,0,0,0,0H17v-9h9.9C29.4,68.5,31.4,70.6,31.4,73.1L31.4,73.1z"/>
	<polygon fill="#048549" points="82.8,44.9 71.2,69.3 59.5,44.9 47.9,44.9 47.9,85.6 57,85.6 57,58.9 67.9,81.6 74.4,81.6 
		84.8,59.9 84.8,85.6 94,85.6 94,44.9 	"/>
	<polygon fill="#048549" points="97.5,44.9 108.5,44.9 118.7,74.5 129.1,44.9 139.6,44.9 123.7,85.6 113.1,85.6 	"/>
	<path fill="#048549" d="M6.6,94.6h1.6c0.5,0,1.1,0.1,1.5,0.4c0.4,0.3,0.6,0.8,0.5,1.3c0,0.2,0,0.4-0.1,0.7
		c-0.1,0.2-0.1,0.4-0.3,0.5c-0.1,0.1-0.3,0.2-0.4,0.3v0c0.2,0,0.3,0.1,0.5,0.2c0.1,0.1,0.3,0.3,0.3,0.5c0.1,0.3,0.1,0.6,0.1,0.8
		c0,0.4-0.1,0.7-0.2,1c-0.1,0.3-0.4,0.5-0.6,0.7c-0.3,0.2-0.6,0.2-1,0.2H6.6V94.6z M7.7,97.3h0.6c0.2,0,0.5,0,0.7-0.2
		c0.1-0.2,0.2-0.4,0.2-0.6c0-0.2-0.1-0.4-0.2-0.5c-0.2-0.1-0.4-0.2-0.7-0.2H7.7V97.3z M7.7,98.4v1.7h0.7c0.3,0,0.5-0.1,0.7-0.2
		c0.1-0.2,0.2-0.4,0.2-0.7c0-0.1,0-0.3-0.1-0.4c-0.1-0.1-0.2-0.2-0.3-0.3c-0.2-0.1-0.4-0.1-0.5-0.1L7.7,98.4z"/>
	<path fill="#048549" d="M15.6,94.6v4.3c0,0.4-0.1,0.8-0.2,1.2c-0.1,0.4-0.4,0.7-0.7,0.9c-0.4,0.2-0.8,0.3-1.2,0.3
		c-0.6,0-1.2-0.2-1.5-0.7c-0.4-0.5-0.6-1.1-0.5-1.8v-4.2h1.1v4c0,0.4,0.1,0.8,0.3,1.2c0.2,0.2,0.5,0.3,0.8,0.3c0.2,0,0.4,0,0.6-0.2
		c0.2-0.1,0.3-0.3,0.3-0.5c0.1-0.3,0.1-0.6,0.1-0.8v-4.1H15.6z"/>
	<path fill="#048549" d="M18.3,94.6c0.4,0,0.8,0.1,1.2,0.2c0.3,0.1,0.5,0.4,0.7,0.7c0.2,0.3,0.2,0.7,0.2,1.1c0,0.3,0,0.5-0.1,0.8
		c-0.1,0.2-0.2,0.4-0.4,0.6c-0.1,0.2-0.3,0.3-0.5,0.4l1.5,2.9h-1.2l-1.2-2.5h-0.6v2.5h-1.1v-6.6H18.3z M18.3,95.8h-0.3v1.8h0.4
		c0.3,0,0.6-0.1,0.8-0.2c0.2-0.2,0.2-0.4,0.2-0.7c0-0.2-0.1-0.5-0.3-0.7C18.8,95.8,18.5,95.8,18.3,95.8L18.3,95.8z"/>
	<path fill="#048549" d="M23.5,97.5h2v3.4c-0.3,0.1-0.5,0.2-0.8,0.3c-0.3,0.1-0.7,0.1-1,0.1c-0.5,0-0.9-0.1-1.3-0.4
		c-0.4-0.3-0.7-0.7-0.8-1.2c-0.2-0.6-0.3-1.2-0.3-1.9c0-0.6,0.1-1.2,0.3-1.8c0.2-0.5,0.5-0.9,0.9-1.2c0.4-0.3,0.9-0.4,1.5-0.4
		c0.3,0,0.5,0,0.8,0.1c0.2,0.1,0.5,0.2,0.7,0.3l-0.4,1.1c-0.2-0.1-0.3-0.2-0.5-0.3c-0.2-0.1-0.4-0.1-0.6-0.1c-0.3,0-0.6,0.1-0.8,0.3
		c-0.2,0.2-0.4,0.5-0.5,0.8c-0.1,0.4-0.2,0.8-0.2,1.2c0,0.4,0,0.8,0.1,1.2c0.1,0.3,0.2,0.6,0.4,0.8c0.2,0.2,0.5,0.3,0.8,0.3
		c0.1,0,0.3,0,0.4,0c0.1,0,0.2,0,0.3-0.1v-1.4h-1V97.5z"/>
	<path fill="#048549" d="M29.7,101.2h-2.9v-6.6h2.9v1.2h-1.9v1.5h1.7v1.2h-1.7v1.7h1.9V101.2z"/>
	<path fill="#048549" d="M35.3,101.2h-1.4l-2.2-5h0l0,0.6l0,0.6c0,0.2,0,0.4,0,0.6v3.1h-0.9v-6.6h1.4l2.2,5h0c0-0.2,0-0.4,0-0.6
		c0-0.2,0-0.4,0-0.6s0-0.4,0-0.6v-3.1h0.9V101.2z"/>
	<path fill="#048549" d="M36.5,101.2v-6.6h1.1v5.4h2.1v1.2H36.5z"/>
	<path fill="#048549" d="M43.7,101.2l-0.4-1.6h-1.8l-0.4,1.6h-1.2l1.8-6.6h1.3l1.8,6.6H43.7z M41.2,93.3c0-0.2,0-0.3,0.1-0.5
		c0.2-0.2,0.5-0.2,0.7,0c0.1,0.1,0.2,0.3,0.1,0.5c0,0.2,0,0.3-0.1,0.5c-0.2,0.2-0.5,0.2-0.7,0c0,0,0,0,0,0
		C41.2,93.7,41.2,93.5,41.2,93.3L41.2,93.3z M43.1,98.5l-0.4-1.5c0-0.1-0.1-0.2-0.1-0.4c0-0.2-0.1-0.3-0.1-0.5
		c0-0.2-0.1-0.3-0.1-0.4c0,0.1-0.1,0.3-0.1,0.5c0,0.2-0.1,0.4-0.1,0.5L42.1,97l-0.4,1.5L43.1,98.5z M42.6,93.3c0-0.2,0-0.3,0.1-0.5
		c0.1-0.1,0.2-0.1,0.4-0.1c0.1,0,0.3,0.1,0.3,0.1c0.1,0.1,0.2,0.3,0.1,0.5c0,0.2,0,0.3-0.1,0.5c-0.1,0.1-0.2,0.2-0.3,0.2
		c-0.1,0-0.3-0.1-0.4-0.2C42.6,93.7,42.6,93.5,42.6,93.3L42.6,93.3z"/>
	<path fill="#048549" d="M50,101.2h-1.4l-2.2-5h0c0,0.2,0,0.4,0,0.6c0,0.2,0,0.4,0,0.6s0,0.4,0,0.6v3.1h-1v-6.6h1.4l2.2,5h0
		c0-0.2,0-0.4,0-0.6c0-0.2,0-0.4,0-0.6s0-0.4,0-0.6v-3.1h1L50,101.2z"/>
	<path fill="#048549" d="M55.5,97.9c0,0.6-0.1,1.3-0.3,1.9c-0.2,0.5-0.5,0.9-1,1.1c-0.5,0.3-1,0.4-1.5,0.4h-1.4v-6.6h1.6
		c0.5,0,1,0.1,1.4,0.4c0.4,0.3,0.7,0.6,0.9,1.1C55.5,96.7,55.6,97.3,55.5,97.9z M54.4,97.9c0-0.4,0-0.8-0.2-1.2
		c-0.2-0.6-0.7-1-1.3-0.9h-0.6v4.3h0.5c0.5,0,0.9-0.2,1.2-0.5C54.3,99,54.5,98.5,54.4,97.9z"/>
	<path fill="#048549" d="M56.6,101.2v-6.6h1.1v6.6H56.6z"/>
	<path fill="#048549" d="M62,99.4c0,0.4-0.1,0.7-0.2,1c-0.1,0.3-0.4,0.5-0.6,0.7c-0.3,0.2-0.7,0.2-1,0.2c-0.2,0-0.3,0-0.5,0
		c-0.2,0-0.3-0.1-0.5-0.1c-0.2-0.1-0.3-0.1-0.4-0.2v-1.3c0.2,0.1,0.5,0.3,0.8,0.4c0.2,0.1,0.5,0.2,0.8,0.2c0.1,0,0.3,0,0.4-0.1
		c0.1-0.1,0.2-0.1,0.2-0.3c0.1-0.1,0.1-0.2,0.1-0.4c0-0.2,0-0.3-0.1-0.4c-0.1-0.1-0.2-0.2-0.4-0.3c-0.2-0.1-0.3-0.2-0.5-0.3
		c-0.1-0.1-0.2-0.2-0.4-0.3c-0.1-0.1-0.3-0.2-0.4-0.4c-0.1-0.2-0.2-0.4-0.3-0.6c-0.1-0.2-0.1-0.5-0.1-0.8c0-0.3,0.1-0.7,0.2-1
		c0.1-0.3,0.3-0.5,0.6-0.6c0.3-0.2,0.6-0.2,0.9-0.2c0.3,0,0.5,0,0.8,0.1c0.3,0.1,0.5,0.2,0.8,0.3l-0.4,1.1c-0.2-0.1-0.4-0.2-0.6-0.3
		c-0.2-0.1-0.4-0.1-0.6-0.1c-0.1,0-0.2,0-0.3,0.1c-0.1,0.1-0.2,0.1-0.2,0.2c0,0.1-0.1,0.2-0.1,0.4c0,0.1,0,0.3,0.1,0.4
		c0.1,0.1,0.2,0.2,0.3,0.3c0.1,0.1,0.3,0.2,0.5,0.4c0.2,0.1,0.5,0.3,0.7,0.5c0.2,0.2,0.3,0.4,0.4,0.6C62,98.8,62,99.1,62,99.4z"/>
	<path fill="#048549" d="M65.1,95.7c-0.2,0-0.4,0.1-0.5,0.2c-0.2,0.1-0.3,0.3-0.4,0.4c-0.1,0.2-0.2,0.5-0.2,0.7
		c-0.1,0.3-0.1,0.6-0.1,0.9c0,0.4,0,0.8,0.1,1.2c0.1,0.3,0.2,0.5,0.4,0.8c0.2,0.2,0.5,0.3,0.7,0.3c0.2,0,0.4,0,0.6-0.1
		c0.2-0.1,0.5-0.2,0.7-0.3v1.2c-0.2,0.1-0.4,0.2-0.7,0.3c-0.2,0.1-0.5,0.1-0.7,0.1c-0.5,0-0.9-0.1-1.3-0.4c-0.4-0.3-0.6-0.7-0.8-1.2
		c-0.2-0.6-0.3-1.2-0.2-1.8c0-0.5,0-0.9,0.2-1.4c0.1-0.4,0.2-0.7,0.5-1.1c0.2-0.3,0.4-0.5,0.7-0.7c0.3-0.2,0.7-0.3,1-0.2
		c0.3,0,0.5,0,0.8,0.1c0.3,0.1,0.5,0.2,0.7,0.3l-0.3,1.2c-0.2-0.1-0.4-0.2-0.6-0.3C65.5,95.8,65.3,95.7,65.1,95.7z"/>
	<path fill="#048549" d="M71.6,101.2h-1.1v-2.9h-2v2.9h-1.1v-6.6h1.1v2.6h2v-2.6h1.1V101.2z"/>
	<path fill="#048549" d="M75.9,101.2h-2.9v-6.6h2.9v1.2H74v1.5h1.7v1.2H74v1.7h1.9V101.2z"/>
	<path fill="#048549" d="M78.4,94.6c0.4,0,0.8,0.1,1.2,0.2c0.3,0.1,0.5,0.4,0.7,0.7c0.2,0.3,0.2,0.7,0.2,1.1c0,0.3,0,0.5-0.1,0.8
		c-0.1,0.2-0.2,0.4-0.4,0.6c-0.1,0.2-0.3,0.3-0.5,0.4l1.5,2.9h-1.2l-1.2-2.5H78v2.5h-1.1v-6.6H78.4z M78.3,95.8H78v1.8h0.4
		c0.3,0,0.6-0.1,0.8-0.2c0.2-0.2,0.2-0.4,0.2-0.7c0-0.2-0.1-0.5-0.3-0.7C78.9,95.9,78.6,95.8,78.3,95.8L78.3,95.8z"/>
	<path fill="#048549" d="M85.7,101.2l-1.2-5.2h0c0,0.1,0,0.3,0,0.6c0,0.3,0,0.5,0,0.8c0,0.3,0,0.5,0,0.8v3.1h-1v-6.6H85l1.2,5.1h0
		l1.3-5.1h1.5v6.6h-1v-3.1c0-0.2,0-0.4,0-0.7s0-0.5,0-0.8s0-0.4,0-0.6h0l-1.3,5.2H85.7z"/>
	<path fill="#048549" d="M94.4,94.6v4.3c0,0.4-0.1,0.8-0.2,1.2c-0.1,0.4-0.4,0.7-0.7,0.9c-0.4,0.2-0.8,0.3-1.2,0.3
		c-0.6,0-1.2-0.2-1.5-0.7c-0.4-0.5-0.6-1.1-0.5-1.8v-4.2h1.1v4c0,0.4,0.1,0.8,0.3,1.2c0.2,0.2,0.5,0.4,0.8,0.3c0.2,0,0.4,0,0.6-0.2
		c0.2-0.1,0.3-0.3,0.3-0.5c0.1-0.3,0.1-0.6,0.1-0.8v-4.1H94.4z M91.1,93.4c0-0.2,0-0.3,0.1-0.5c0.1-0.1,0.2-0.1,0.3-0.1
		c0.1,0,0.3,0,0.3,0.1c0.1,0.1,0.2,0.3,0.1,0.5c0,0.2,0,0.3-0.1,0.5c-0.1,0.1-0.2,0.2-0.3,0.2c-0.1,0-0.3-0.1-0.3-0.2
		C91.1,93.7,91.1,93.5,91.1,93.4z M92.5,93.4c0-0.2,0-0.3,0.1-0.5c0.1-0.1,0.2-0.1,0.4-0.1c0.1,0,0.3,0.1,0.3,0.1
		c0.1,0.1,0.2,0.3,0.1,0.5c0,0.2,0,0.3-0.1,0.5C93.3,93.9,93.1,94,93,94c-0.1,0-0.3-0.1-0.4-0.2C92.5,93.7,92.5,93.5,92.5,93.4
		L92.5,93.4z"/>
	<path fill="#048549" d="M95.6,101.2v-6.6h1.1v5.4h2.1v1.2H95.6z"/>
	<path fill="#048549" d="M99.7,101.2v-6.6h1.1v5.4h2.1v1.2H99.7z"/>
	<path fill="#048549" d="M107.7,94.6l-1.7,6.6h-1.2l-1.7-6.6h1.1l1,3.9c0,0.1,0,0.2,0.1,0.4s0.1,0.4,0.1,0.6c0,0.2,0.1,0.4,0.1,0.5
		c0-0.1,0-0.3,0.1-0.5s0.1-0.4,0.1-0.6s0.1-0.3,0.1-0.4l1-3.9L107.7,94.6z"/>
	<path fill="#048549" d="M111.3,101.2h-2.9v-6.6h2.9v1.2h-1.9v1.5h1.7v1.2h-1.7v1.7h1.9L111.3,101.2z"/>
	<path fill="#048549" d="M113.8,94.6c0.4,0,0.8,0.1,1.2,0.2c0.3,0.1,0.5,0.4,0.7,0.7c0.2,0.3,0.2,0.7,0.2,1.1c0,0.3,0,0.5-0.1,0.8
		c-0.1,0.2-0.2,0.4-0.4,0.6c-0.1,0.2-0.3,0.3-0.5,0.4l1.5,2.9h-1.2l-1.2-2.5h-0.6v2.5h-1.1v-6.6H113.8z M113.8,95.8h-0.3v1.8h0.4
		c0.3,0,0.6-0.1,0.8-0.2c0.2-0.2,0.2-0.4,0.2-0.7c0-0.2-0.1-0.5-0.3-0.7C114.3,95.8,114,95.8,113.8,95.8L113.8,95.8z"/>
	<path fill="#048549" d="M117.1,94.6h1.6c0.5,0,1.1,0.1,1.5,0.4c0.4,0.3,0.6,0.8,0.5,1.3c0,0.2,0,0.5-0.1,0.7
		c-0.1,0.2-0.1,0.4-0.3,0.5c-0.1,0.1-0.3,0.2-0.4,0.3v0c0.2,0,0.3,0.1,0.5,0.2c0.2,0.1,0.3,0.3,0.3,0.5c0.1,0.3,0.1,0.6,0.1,0.8
		c0,0.4-0.1,0.7-0.2,1c-0.1,0.3-0.4,0.5-0.6,0.7c-0.3,0.2-0.7,0.2-1,0.2h-1.9L117.1,94.6z M118.1,97.3h0.6c0.2,0,0.5,0,0.7-0.2
		c0.1-0.2,0.2-0.4,0.2-0.6c0-0.2-0.1-0.4-0.2-0.5c-0.2-0.1-0.4-0.2-0.7-0.2h-0.6V97.3z M118.1,98.4v1.7h0.7c0.3,0,0.5-0.1,0.7-0.2
		c0.1-0.2,0.2-0.4,0.2-0.7c0-0.1,0-0.3-0.1-0.4c-0.1-0.1-0.2-0.2-0.3-0.3c-0.2-0.1-0.4-0.1-0.5-0.1L118.1,98.4z"/>
	<path fill="#048549" d="M125,101.2l-0.4-1.6h-1.9l-0.4,1.6h-1.2l1.8-6.6h1.3l1.8,6.6H125z M124.4,98.5l-0.4-1.5
		c0-0.1-0.1-0.2-0.1-0.4c0-0.2-0.1-0.3-0.1-0.5s-0.1-0.3-0.1-0.4c0,0.1-0.1,0.3-0.1,0.5c0,0.2-0.1,0.4-0.1,0.5l-0.1,0.4l-0.4,1.5
		L124.4,98.5z"/>
	<path fill="#048549" d="M131.3,101.2h-1.4l-2.2-5h0l0,0.6c0,0.2,0,0.4,0,0.6l0,0.7v3.1h-1v-6.6h1.4l2.2,5h0c0-0.2,0-0.4,0-0.6
		c0-0.2,0-0.4,0-0.6c0-0.2,0-0.4,0-0.6v-3.1h1V101.2z"/>
	<path fill="#048549" d="M136.8,97.9c0,0.6-0.1,1.3-0.3,1.9c-0.2,0.5-0.5,0.9-1,1.1c-0.5,0.3-1,0.4-1.5,0.4h-1.4v-6.6h1.6
		c0.5,0,1,0.1,1.4,0.4c0.4,0.3,0.7,0.6,0.9,1.1C136.7,96.7,136.8,97.3,136.8,97.9z M135.7,97.9c0-0.4,0-0.8-0.2-1.2
		c-0.1-0.3-0.3-0.5-0.5-0.7c-0.2-0.2-0.5-0.2-0.8-0.2h-0.6v4.3h0.5c0.5,0,0.9-0.2,1.2-0.5C135.6,99.1,135.7,98.5,135.7,97.9z"/>
</g>
</svg>
