<?xml version="1.0" encoding="utf-8"?>
<!-- Generator: Adobe Illustrator 24.0.1, SVG Export Plug-In . SVG Version: 6.00 Build 0)  -->
<svg version="1.2" baseProfile="tiny-ps" id="Layer_1" xmlns="http://www.w3.org/2000/svg" xmlns:xlink="http://www.w3.org/1999/xlink"
	  viewBox="0 0 322.1 324.4" xml:space="preserve">
<title>udb</title>
<g>
	<g>
		<path fill="#A3BA46" d="M171.7,140.6L171.7,140.6c11.6-38,50.7-59.9,88.7-50.6c1.3,0.3,4.6,1.3,4.6,1.3c39.2,12.4,61,54,48.6,93.2
			c-6.4,20.2-21.1,36.8-40.5,45.5l0,0c23.5-15.4,35.7-43.5,30.7-71.3l0,0c-6.9-38.1-43.4-63.4-81.6-56.5
			C200.3,106.2,181.4,120.4,171.7,140.6L171.7,140.6z"/>
		<path fill="#204D39" d="M259.6,200.5c19.4-18.7,19.9-49.5,1.3-68.8c-9.2-9.5-21.9-14.8-35.1-14.9c0,0-22.2-1.2-41.5,11.5
			c0,0,32.1-5.2,54.8,19.9C239,148.2,256.9,166.5,259.6,200.5z"/>
		<path fill="#204D39" d="M238.3,115.8c0,0,23.8,3.5,34.7,27.7c0,0,7.4-8,4-16.7C272.6,115.7,258.1,108.3,238.3,115.8z"/>
		<path fill="#A3BA46" d="M226.2,143.5c0,0,23.4,15.3,29.5,54.6c0,0-26.7,26.4-58.8,10.9C196.9,209,193.4,167.3,226.2,143.5z"/>
		<g>
			<path fill="none" d="M169.8,176.4c0.2,0.6,0.5,1.1,0.6,1.6C170.3,177.6,170,177,169.8,176.4z"/>
			<path fill="#204D39" d="M192,207.7c0-0.1-2.8-41.3,29.9-67.3c0,0-14.8-11.3-36.2-7.8c0,0-18.9,15.2-15.9,43.9
				c0.2,0.6,0.3,1,0.6,1.5C174.9,189.9,181.9,200,192,207.7z"/>
		</g>
		<g>
			<path fill="#204D39" d="M303.8,158.8c-1.2,15.3-7.5,29.8-17.8,41.1l0,0c-13.1,14.5-31.7,22.7-51.2,22.7
				c-29.3,0-55.4-18.5-65.1-46c7.9,40.2,47,66.5,87.3,58.6c5.5-1.1,10.8-2.8,16-5.1l0,0C296.7,214.5,308.9,186.5,303.8,158.8z"/>
		</g>
	</g>
	<g>
		<g>
			<path fill="#204D39" d="M58.1,145.1h21c5.3,0,9.4,0.5,12.1,1.5s5.2,2.6,7.5,5c2.3,2.3,4.1,5.4,5.4,9.1c1.3,3.7,2,8.4,2,13.9
				c0,5-0.7,9.4-2.1,13c-1.4,3.7-3.1,6.7-5.1,8.8c-2.1,2.2-4.6,3.8-7.6,4.9c-3,1.1-6.8,1.6-11.5,1.6H58.2L58.1,145.1L58.1,145.1z
				 M71.4,154.9v38.4h5.2c3.4,0,5.9-0.3,7.4-0.9s2.8-1.4,3.7-2.6c1-1.2,1.8-3,2.4-5.5c0.7-2.5,1-5.8,1-10c0-4.3-0.3-7.6-1-10.1
				s-1.7-4.4-3.1-5.8s-3.1-2.3-5-2.8c-1.5-0.4-4.4-0.5-8.6-0.5L71.4,154.9L71.4,154.9z"/>
			<path fill="#204D39" d="M112.8,145.1h21c5.7,0,6.4,0.4,8.7,1.4s4.3,2.6,5.9,5c1.6,2.4,2.4,5.1,2.4,8.2c0,2.8-0.7,5.3-2.1,7.6
				c-1.4,2.2-3.1,3.9-5.4,5c3.1,1,5.5,2.7,7.3,5.2c1.7,2.4,2.6,5.4,2.6,8.8c0,4.2-1.2,7.8-3.4,10.7s-4.9,4.7-7.9,5.4
				c-2.2,0.4-3.7,0.7-11.5,0.7h-17.9v-58L112.8,145.1L112.8,145.1z M126.1,154.7v13.4c0,0,4.5-0.1,5.5-0.2c1.8-0.3,3.2-1,4.2-2.1
				s1.5-2.6,1.5-4.6c0-1.7-0.4-3.1-1.2-4.2c-0.8-1-1.8-1.7-3-2C132,154.7,126.1,154.7,126.1,154.7L126.1,154.7z M126.1,177.7v15.4
				c0,0,7.3,0.3,8.9-0.6c1.2-0.4,2.2-1.2,3.1-2.4c0.8-1.2,1.2-2.7,1.2-4.6c0-1.9-0.4-3.4-1.3-4.6c-0.9-1.2-2.1-2.1-3.6-2.5
				C133,178,126.1,177.7,126.1,177.7L126.1,177.7z"/>
		</g>
		<path fill="#204D39" d="M35,145h12v30.4c0,7.8-0.5,13.4-1.4,16.9c-0.9,3.4-3,6.3-6.2,8.4c-3.2,2.2-7.4,3.2-12.7,3.2
			c-5.5,0-9.8-0.9-12.8-2.7c-3.1-1.8-5.3-4.3-6.7-7.5S5,184.6,5,175.9v-30.8h0.2h11.9l0,0v34.2c0,4.2,0.1,7,0.4,8.3
			c0.4,2.2,1.4,3.9,2.9,5.2c1.5,1.2,3.5,1.8,6,1.8c2.2,0,3.9-0.5,5.2-1.3c1.4-0.8,2.2-2,2.7-3.6c0.5-1.5,0.7-4.8,0.7-9.8V145L35,145
			z"/>
	</g>
</g>
</svg>
