<?xml version="1.0" encoding="utf-8" standalone="yes"?><svg xmlns="http://www.w3.org/2000/svg" version="1.2" baseProfile="tiny-ps" width="600" height="600" viewBox="0 0 600 600" fill="white"><title>WPForms</title><g><path d="M106.446 346.097C134.248 349.975 158.371 343.597 178.241 325.863L211.399 327.688L193.356 380.515C173.336 412.355 144.383 418.983 114.553 417.131L106.446 346.297V346.097Z" fill="#7EAABA"></path><path d="M118.783 358.003L124.288 406.402C148.963 406.202 168.857 398.098 183.597 375.661L196.659 337.743L182.095 337.093C164.355 351.623 141.864 359.071 118.958 358.003H118.783Z" fill="#D3E8EF"></path><path d="M118.783 358.003L122.037 386.767C156.095 382.715 182.621 368.734 196.435 337.819L181.87 337.093C164.145 351.615 141.672 359.063 118.783 358.003Z" fill="white"></path><path d="M114.529 304.503C125.675 304.497 136.574 307.797 145.846 313.984C152.776 318.606 158.595 324.709 162.882 331.852C167.169 338.994 169.818 347 170.638 355.29C171.457 363.58 170.427 371.949 167.621 379.793C164.815 387.637 160.303 394.761 154.412 400.651C146.529 408.53 136.487 413.897 125.555 416.072C114.624 418.247 103.293 417.133 92.9937 412.872C82.6957 408.61 73.8927 401.39 67.698 392.126C61.5047 382.863 58.1987 371.972 58.1985 360.83C58.1948 353.433 59.6492 346.108 62.4787 339.274C65.3081 332.44 69.457 326.231 74.6881 321.002C79.9201 315.77 86.1314 311.62 92.9673 308.789C99.8032 305.959 107.13 304.502 114.529 304.503Z" fill="#7EAABA"></path><path d="M114.529 315.483C105.62 315.483 96.9117 318.123 89.503 323.07C82.0967 328.016 76.3235 335.048 72.9134 343.276C69.5037 351.502 68.6114 360.555 70.3495 369.289C72.0876 378.023 76.3779 386.045 82.6774 392.339C88.9781 398.637 97.0044 402.925 105.742 404.662C114.479 406.4 123.536 405.507 131.766 402.099C139.996 398.692 147.031 392.921 151.981 385.517C157.771 376.857 160.378 366.457 159.357 356.091C158.335 345.724 153.749 336.032 146.38 328.67C137.931 320.225 126.474 315.482 114.529 315.483Z" fill="#D3E8EF"></path><path d="M114.529 315.483C107.255 315.449 100.082 317.19 93.6325 320.555C87.1832 323.92 81.6517 328.807 77.5175 334.792C78.2601 346.243 83.3239 356.984 91.6846 364.843C100.048 372.705 111.083 377.099 122.561 377.137C129.819 377.186 136.98 375.47 143.428 372.136C149.875 368.803 155.416 363.953 159.572 358.003C158.873 346.521 153.827 335.736 145.462 327.841C137.094 319.943 126.035 315.525 114.529 315.483Z" fill="white"></path><path d="M108.649 312.607C116.953 312.607 125.071 315.068 131.977 319.679C138.882 324.29 144.264 330.845 147.444 338.515C150.622 346.184 151.454 354.624 149.834 362.766C148.213 370.908 144.213 378.386 138.341 384.254C133.949 388.642 128.64 392.002 122.794 394.092C116.948 396.183 110.712 396.952 104.534 396.343C98.3558 395.735 92.3892 393.765 87.0634 390.575C81.7377 387.385 77.1852 383.054 73.7335 377.894C69.1198 370.993 66.6569 362.878 66.6566 354.577C66.6533 349.064 67.7373 343.604 69.8465 338.51C71.9558 333.417 75.0489 328.789 78.9489 324.892C82.8493 320.993 87.4799 317.902 92.576 315.794C97.6722 313.685 103.134 312.603 108.649 312.607Z" fill="#7EAABA"></path><path d="M105.695 301.376C114.033 301.374 122.185 303.844 129.12 308.475C136.054 313.106 141.459 319.69 144.652 327.393C147.844 335.094 148.679 343.569 147.052 351.745C145.425 359.921 141.408 367.43 135.511 373.322C129.614 379.217 122.101 383.231 113.922 384.857C105.742 386.482 97.2643 385.648 89.5586 382.458C81.8545 379.269 75.2691 373.867 70.6352 366.935C66.0018 360.006 63.5285 351.857 63.5283 343.521C63.5616 332.353 68.015 321.652 75.915 313.757C83.8172 305.859 94.5228 301.408 105.695 301.376Z" fill="#7F3E13"></path><path d="M109.749 317.583C103.122 317.583 96.6442 319.547 91.1333 323.228C85.6237 326.907 81.329 332.138 78.7922 338.258C76.2552 344.378 75.5912 351.113 76.8842 357.61C78.1772 364.107 81.3691 370.075 86.0557 374.757C89.5597 378.259 93.7965 380.941 98.4611 382.609C103.126 384.278 108.102 384.891 113.032 384.406C117.963 383.92 122.724 382.348 126.974 379.802C131.223 377.256 134.856 373.8 137.61 369.682C141.916 363.239 143.854 355.503 143.094 347.791C142.334 340.08 138.923 332.87 133.442 327.393C127.157 321.111 118.635 317.583 109.749 317.583Z" fill="#B85A1B"></path><path d="M84.4988 267.334C85.25 243.773 120.41 242.323 121.335 267.334C131.645 250.026 163.877 259.606 153.867 286.669C154.418 288.87 154.793 290.896 155.144 293.097C172.66 294.022 178.341 321.436 154.418 329.914C152.648 336.927 149.453 343.5 145.033 349.225C124.413 366.908 117.782 352.351 106.721 340.395C96.0353 340.77 66.6811 333.042 74.8648 360.654C56.0958 348.873 43.9347 324.562 53.1431 288.87C40.3296 260.156 73.838 249.476 84.4988 267.16V267.334Z" fill="#7F3E13"></path><path d="M64.2796 292.972C59.8499 310.205 59.6754 329.714 71.9877 343.721C89.3041 363.406 124.264 362.48 137.726 337.644C144.909 324.212 144.533 307.454 141.406 292.622C115.863 287.506 89.5464 287.633 64.054 292.997L64.2796 292.972Z" fill="#B85A1B"></path><path d="M64.2796 292.972C59.8499 310.205 59.6754 329.714 71.9877 343.721C75.8932 348.053 80.6638 351.518 85.9914 353.892C91.319 356.265 97.0852 357.496 102.918 357.503V288.87C89.945 289.135 77.0187 290.507 64.2796 292.972Z" fill="#E1762F"></path><path d="M81.2216 306.178C78.7189 315.733 78.7189 326.788 85.6257 334.517C95.2097 345.497 114.729 344.997 122.287 331.016C126.315 323.512 126.14 314.257 124.314 306.003C110.088 303.118 95.4204 303.186 81.2216 306.203" fill="#7F3E13"></path><path d="M102.768 279.665C104.697 279.664 106.582 279.092 108.186 278.02C109.789 276.948 111.039 275.425 111.778 273.643C112.516 271.861 112.71 269.9 112.334 268.008C111.959 266.116 111.031 264.378 109.668 263.013C107.837 261.184 105.356 260.156 102.768 260.156V279.665ZM138.102 267.334C139.545 267.334 140.969 267.654 142.273 268.271C143.578 268.887 144.729 269.785 145.644 270.9C146.56 272.015 147.216 273.319 147.567 274.719C147.918 276.118 147.955 277.578 147.674 278.993C147.201 281.369 145.861 283.484 143.915 284.927C141.969 286.37 139.556 287.037 137.145 286.8C134.735 286.563 132.498 285.437 130.871 283.642C129.244 281.847 128.343 279.512 128.342 277.089C128.356 274.505 129.389 272.031 131.216 270.205C133.044 268.378 135.518 267.347 138.102 267.334Z" fill="#B85A1B"></path><path d="M69.485 268.435C70.9274 268.436 72.3519 268.756 73.6559 269.372C74.9599 269.989 76.111 270.887 77.0263 272.002C77.9416 273.117 78.5985 274.42 78.9496 275.82C79.3006 277.219 79.3372 278.678 79.0567 280.093C78.6797 281.986 77.75 283.724 76.3851 285.088C75.0202 286.452 73.2814 287.381 71.3886 287.757C69.4958 288.133 67.5339 287.94 65.7508 287.201C63.9676 286.463 62.4433 285.213 61.3701 283.609C60.2979 282.005 59.7256 280.119 59.7254 278.189C59.7446 275.607 60.7792 273.137 62.6055 271.311C64.4317 269.486 66.903 268.453 69.485 268.435ZM102.768 279.665V260.456C100.18 260.457 97.6989 261.485 95.8688 263.314C94.0388 265.143 93.0099 267.624 93.0081 270.211C93.009 272.799 94.0377 275.28 95.8679 277.109C97.6982 278.939 100.18 279.966 102.768 279.965V279.665Z" fill="#E1762F"></path><path d="M148.963 302.676C150.405 302.676 151.83 302.996 153.134 303.613C154.438 304.229 155.59 305.127 156.505 306.242C157.421 307.357 158.077 308.662 158.428 310.061C158.779 311.46 158.815 312.92 158.535 314.335C158.062 316.711 156.722 318.826 154.776 320.269C152.83 321.712 150.417 322.379 148.006 322.142C145.595 321.905 143.359 320.779 141.732 318.984C140.105 317.189 139.204 314.854 139.203 312.431C139.217 309.847 140.25 307.373 142.077 305.547C143.905 303.72 146.379 302.689 148.963 302.676Z" fill="#B85A1B"></path><path d="M483.916 417.883C481.689 388.618 468.451 367.633 442.301 356.228L447.456 335.968L489.421 324.762C526.083 335.793 540.447 359.179 547.429 388.618L484.092 418.033L483.916 417.857V417.883Z" fill="#7EAABA"></path><path d="M492.55 401.874L534.366 382.365C526.859 357.878 514.847 342.045 489.071 335.792L456.29 344.621L454.863 350.149C464.49 355.493 472.837 362.872 479.321 371.772C485.803 380.669 490.267 390.874 492.4 401.674L492.575 401.874H492.55Z" fill="white"></path><path d="M443.402 422.859C440.008 412.594 439.738 401.552 442.624 391.133C445.511 380.713 451.424 371.382 459.616 364.324C465.741 359.046 472.961 355.192 480.755 353.039C488.548 350.886 496.723 350.488 504.689 351.873C512.655 353.258 520.215 356.392 526.824 361.05C533.434 365.708 538.928 371.773 542.912 378.809C548.239 388.218 550.653 398.996 549.849 409.779C549.045 420.561 545.059 430.862 538.396 439.378C531.732 447.896 522.692 454.246 512.419 457.626C498.65 462.163 483.644 461.049 470.696 454.53C457.751 448.013 447.924 436.62 443.376 422.859" fill="#7EAABA"></path><path d="M452.36 419.708C455.16 428.198 460.416 435.665 467.461 441.167C474.507 446.668 483.026 449.956 491.941 450.614C500.855 451.275 509.766 449.278 517.545 444.875C525.325 440.473 531.625 433.863 535.649 425.881C539.67 417.9 541.232 408.905 540.137 400.035C539.043 391.165 535.341 382.82 529.5 376.056C523.657 369.291 515.939 364.409 507.322 362.028C498.706 359.647 489.577 359.874 481.089 362.68C475.448 364.525 470.226 367.467 465.725 371.335C461.224 375.204 457.532 379.924 454.861 385.224C452.191 390.524 450.596 396.299 450.167 402.217C449.738 408.135 450.483 414.079 452.36 419.708Z" fill="#D3E8EF"></path><path d="M540.072 399.474C539.715 396.719 539.095 394.005 538.219 391.369C536.371 385.728 533.425 380.508 529.552 376.01C525.678 371.512 520.953 367.824 515.648 365.16C510.343 362.493 504.563 360.902 498.641 360.476C492.719 360.051 486.771 360.8 481.139 362.68C474.112 364.907 467.772 368.894 462.72 374.261C463.074 377.016 463.695 379.73 464.572 382.365C466.418 388.009 469.362 393.231 473.234 397.732C477.107 402.233 481.832 405.924 487.137 408.591C492.442 411.259 498.223 412.853 504.146 413.28C510.07 413.707 516.019 412.959 521.653 411.079C528.677 408.834 535.015 404.84 540.072 399.474Z" fill="white"></path><path d="M433.091 436.842C429.882 427.158 429.62 416.739 432.338 406.906C435.056 397.073 440.631 388.268 448.357 381.606C454.135 376.624 460.945 372.986 468.298 370.952C475.65 368.919 483.362 368.541 490.879 369.847C498.395 371.152 505.528 374.108 511.764 378.502C518 382.896 523.185 388.618 526.944 395.256C531.968 404.134 534.244 414.304 533.483 424.477C532.723 434.649 528.96 444.367 522.672 452.4C516.382 460.435 507.85 466.423 498.155 469.607C491.731 471.735 484.95 472.574 478.201 472.078C471.451 471.582 464.866 469.76 458.821 466.717C452.779 463.674 447.396 459.469 442.981 454.342C438.565 449.216 435.205 443.269 433.091 436.842Z" fill="#7F3E13"></path><path d="M443.576 433.514C441.07 425.908 440.875 417.73 443.015 410.012C445.156 402.295 449.535 395.386 455.601 390.156C460.137 386.246 465.482 383.388 471.254 381.789C477.025 380.19 483.079 379.889 488.981 380.909C494.883 381.928 500.485 384.242 505.386 387.684C510.287 391.126 514.365 395.611 517.326 400.816C520.287 406.021 522.056 411.818 522.507 417.789C522.958 423.76 522.08 429.757 519.935 435.348C517.791 440.939 514.433 445.985 510.105 450.122C505.776 454.26 500.584 457.386 494.902 459.277C484.695 462.638 473.57 461.813 463.97 456.983C454.372 452.154 447.082 443.713 443.702 433.514" fill="#B85A1B"></path><path d="M441.925 414.381C443.523 404.547 448.679 395.643 456.413 389.363C464.15 383.082 473.924 379.861 483.879 380.312C493.834 380.762 503.277 384.853 510.414 391.808C517.548 398.761 521.878 408.095 522.58 418.033C496.428 434.59 462.17 430.914 441.925 414.181V414.381Z" fill="#E1762F"></path><path d="M254.666 105.381C275.287 105.381 291.853 123.04 291.853 144.775C291.853 166.511 275.287 184.144 254.666 184.144C234.046 184.144 217.48 166.486 217.48 144.775C217.48 123.066 234.046 105.381 254.666 105.381Z" fill="#7F3E13"></path><path d="M254.666 116.237C239.377 116.237 228.341 129.868 228.341 144.775C228.341 159.682 239.377 173.289 254.666 173.289C269.957 173.289 280.992 159.682 280.992 144.775C280.992 129.868 269.957 116.237 254.666 116.237Z" fill="#B85A1B"></path><path d="M254.666 127.092C245.283 127.092 239.201 135.921 239.201 144.775C239.201 153.63 245.457 162.434 254.666 162.434C263.875 162.434 270.131 153.604 270.131 144.775C270.131 135.947 263.875 127.092 254.666 127.092Z" fill="#63300F"></path><path d="M412.822 105.381C433.442 105.381 450.033 123.04 450.033 144.775C450.033 166.511 433.442 184.144 412.822 184.144C392.201 184.144 375.635 166.486 375.635 144.775C375.635 123.066 392.301 105.381 412.822 105.381Z" fill="#7F3E13"></path><path d="M412.822 116.237C397.557 116.237 386.496 129.868 386.496 144.775C386.496 159.682 397.557 173.289 412.822 173.289C428.087 173.289 439.172 159.682 439.172 144.775C439.172 129.868 428.111 116.237 412.822 116.237Z" fill="#B85A1B"></path><path d="M412.822 127.092C403.437 127.092 397.357 135.921 397.357 144.775C397.357 153.63 403.638 162.434 412.822 162.434C422.006 162.434 428.287 153.604 428.287 144.775C428.287 135.947 422.03 127.092 412.822 127.092Z" fill="#4F2800"></path><path d="M348.759 123.79C351.09 123.79 353.368 124.481 355.306 125.776C357.244 127.07 358.755 128.91 359.648 131.063C360.315 132.672 360.617 134.41 360.532 136.15C360.447 137.89 359.976 139.59 359.154 141.127C358.333 142.663 357.18 143.998 355.78 145.036C354.38 146.073 352.768 146.787 351.058 147.125C348.772 147.579 346.403 147.346 344.249 146.454C342.096 145.562 340.255 144.053 338.958 142.116C337.664 140.179 336.973 137.901 336.973 135.571C336.992 132.453 338.24 129.467 340.447 127.263C342.653 125.058 345.639 123.81 348.759 123.79ZM318.729 123.79C321.061 123.786 323.343 124.473 325.285 125.764C327.226 127.055 328.741 128.893 329.636 131.046C330.532 133.198 330.769 135.568 330.317 137.855C329.865 140.143 328.744 142.244 327.097 143.894C325.449 145.544 323.35 146.668 321.063 147.123C319.354 147.464 317.59 147.422 315.899 147C314.208 146.577 312.632 145.785 311.284 144.68C309.936 143.576 308.849 142.185 308.103 140.61C307.357 139.035 306.969 137.314 306.968 135.571C306.99 132.457 308.235 129.476 310.436 127.272C312.636 125.068 315.615 123.817 318.729 123.79Z" fill="#7F3E13"></path><path d="M471.204 172.915V246.175L471.929 246.349C477.117 248.309 481.577 251.814 484.71 256.39C487.843 260.965 489.496 266.392 489.447 271.937V324.462L333.869 375.812L178.266 325.788V271.937C178.222 266.393 179.877 260.969 183.009 256.394C186.141 251.819 190.599 248.314 195.784 246.349L196.535 246.175V172.739C196.535 122.14 471.254 122.14 471.254 172.739V172.915H471.204Z" fill="#7F3E13"></path><path d="M208.821 175.691V254.628L202.366 257.13C198.91 258.444 195.943 260.792 193.87 263.853C191.797 266.915 190.717 270.541 190.779 274.238V329.914L333.844 375.912L476.91 328.814V274.313C476.945 270.619 475.852 267.002 473.777 263.945C471.702 260.888 468.744 258.536 465.298 257.204L458.867 254.704V175.691C458.867 138.173 208.997 138.173 208.997 175.691H208.821Z" fill="#B85A1B"></path><path d="M208.821 175.691V254.628L202.366 257.13C198.91 258.444 195.943 260.792 193.87 263.853C191.797 266.915 190.717 270.541 190.779 274.238V329.914L333.844 375.912V345.723C284.321 345.923 234.772 313.531 247.86 249.301H333.844V147.702C271.433 147.702 208.721 157.082 208.721 175.865V175.691H208.821Z" fill="#E1762F"></path><path d="M241.027 232.543H427.01C453.336 372.06 212.675 370.96 241.027 232.543Z" fill="#E5895B"></path><path d="M250.237 243.397C247.735 264.934 252.264 285.743 268.28 301.926C285.222 318.859 310.821 326.213 334.394 326.038C356.917 325.862 381.166 318.685 397.907 302.676C414.649 286.669 419.829 265.458 417.626 243.397H250.237Z" fill="#E5895B"></path><path d="M364.95 308.555C377.462 324.762 413.948 318.134 403.062 283.893L364.95 308.555Z" fill="#FAD395"></path><path d="M353.539 305.053C367.527 323.086 413.198 312.557 402.712 273.413L353.539 305.053Z" fill="#4F2800"></path><path d="M395.53 275.063C396.218 274.904 396.931 274.884 397.628 275.001C398.325 275.119 398.991 275.374 399.589 275.751C400.186 276.127 400.704 276.619 401.111 277.196C401.518 277.773 401.807 278.426 401.961 279.115C402.381 280.479 402.253 281.953 401.604 283.223C400.954 284.494 399.834 285.461 398.483 285.919C397.793 286.077 397.078 286.098 396.38 285.98C395.682 285.862 395.014 285.608 394.414 285.231C393.814 284.855 393.295 284.364 392.885 283.787C392.475 283.209 392.183 282.557 392.026 281.867C391.606 280.5 391.738 279.023 392.393 277.752C393.047 276.48 394.173 275.516 395.53 275.063ZM365.7 295.674C366.766 295.267 367.93 295.191 369.039 295.457C370.148 295.724 371.15 296.32 371.914 297.166C372.679 298.012 373.17 299.069 373.324 300.199C373.476 301.329 373.284 302.479 372.77 303.498C372.257 304.516 371.447 305.355 370.448 305.904C369.448 306.454 368.306 306.689 367.171 306.579C366.036 306.469 364.961 306.018 364.086 305.286C363.212 304.554 362.579 303.574 362.272 302.476C361.866 301.109 362.003 299.638 362.656 298.371C363.309 297.103 364.427 296.137 365.776 295.674" fill="white"></path><path d="M384.118 311.881C389.433 310.292 394.164 307.176 397.724 302.92C401.283 298.665 403.513 293.457 404.138 287.944C396.03 286.844 382.041 298.624 384.118 311.881Z" fill="#AD6151"></path><path d="M260.197 232.543H407.667C428.487 332.116 237.725 331.19 260.197 232.543Z" fill="#FAD395"></path><path d="M333.844 289.245C334.694 283.201 337.11 277.484 340.851 272.662C358.519 269.911 373.808 256.48 369.004 232.368C357.752 228.381 345.907 226.327 333.97 226.29L326.787 249.126L333.97 289.42L333.794 289.245H333.844Z" fill="#4F2800"></path><path d="M333.844 289.245C332.994 283.201 330.579 277.484 326.837 272.662C309.17 269.911 293.88 256.48 298.66 232.368C309.913 228.386 321.757 226.331 333.694 226.29V289.245H333.844Z" fill="#63300F"></path><path d="M307.694 235.869C324.824 231.268 342.865 231.268 359.994 235.869C367.353 254.078 299.786 253.903 307.694 235.869Z" fill="#AD6151"></path><path d="M305.667 185.245C309.568 185.24 313.382 186.392 316.629 188.554C319.874 190.716 322.405 193.793 323.901 197.394C325.398 200.995 325.792 204.959 325.035 208.785C324.274 212.61 322.397 216.124 319.64 218.882C316.883 221.64 313.37 223.52 309.545 224.282C305.72 225.044 301.755 224.655 298.151 223.165C294.547 221.674 291.466 219.148 289.297 215.907C287.129 212.666 285.972 208.854 285.972 204.955C285.979 199.733 288.055 194.727 291.747 191.034C295.438 187.339 300.444 185.257 305.667 185.245Z" fill="white"></path><path d="M307.218 192.074C310.134 192.074 312.984 192.938 315.408 194.558C317.832 196.177 319.722 198.48 320.837 201.173C321.953 203.867 322.243 206.83 321.672 209.689C321.102 212.548 319.695 215.173 317.631 217.232C315.567 219.292 312.938 220.693 310.077 221.259C307.216 221.824 304.252 221.528 301.559 220.409C298.867 219.29 296.567 217.398 294.95 214.972C293.334 212.547 292.473 209.696 292.479 206.781C292.491 202.879 294.049 199.142 296.812 196.387C299.574 193.631 303.316 192.08 307.218 192.074Z" fill="#1B1D23"></path><path d="M362.272 185.245C359.357 185.244 356.478 185.889 353.842 187.135C351.207 188.381 348.88 190.195 347.03 192.448C345.181 194.701 343.854 197.336 343.145 200.164C342.436 202.991 342.363 205.941 342.931 208.8C343.693 212.624 345.571 216.137 348.329 218.893C351.087 221.649 354.601 223.526 358.425 224.285C362.25 225.045 366.214 224.655 369.817 223.164C373.42 221.672 376.5 219.146 378.668 215.905C380.835 212.664 381.991 208.853 381.992 204.955C381.985 199.729 379.905 194.719 376.209 191.025C372.511 187.33 367.499 185.251 362.272 185.245Z" fill="white"></path><path d="M360.896 192.074C358.716 192.073 356.564 192.556 354.593 193.488C352.623 194.42 350.884 195.777 349.501 197.462C348.119 199.147 347.127 201.117 346.598 203.232C346.069 205.346 346.015 207.552 346.441 209.689C347.012 212.548 348.419 215.174 350.482 217.233C352.546 219.292 355.175 220.693 358.035 221.258C360.896 221.823 363.86 221.528 366.553 220.409C369.245 219.291 371.546 217.398 373.164 214.972C374.779 212.546 375.639 209.696 375.635 206.781C375.622 202.88 374.064 199.142 371.302 196.387C368.539 193.631 364.798 192.08 360.896 192.074Z" fill="#1B1D23"></path><path d="M320.031 178.817C305.994 175.769 291.323 178.347 279.165 185.996C274.911 161.884 315.601 154.706 320.031 178.817Z" fill="#63300F"></path><path d="M343.979 166.661C358 163.649 372.643 166.224 384.795 173.839C389.023 149.728 348.333 142.549 343.929 166.661" fill="#4F2800"></path><path d="M489.247 324.762V476.21C489.234 481.089 487.289 485.763 483.838 489.212C480.386 492.662 475.709 494.606 470.829 494.619H196.485C191.604 494.606 186.928 492.662 183.476 489.212C180.024 485.764 178.079 481.089 178.066 476.21V326.138L333.669 363.33L489.247 324.862V324.762Z" fill="#7EAABA"></path><path d="M476.909 340.495L333.844 375.837L190.578 341.695V472.908C190.568 474.12 190.8 475.322 191.259 476.443C191.719 477.565 192.397 478.584 193.254 479.44C194.111 480.297 195.13 480.975 196.252 481.434C197.374 481.893 198.576 482.124 199.788 482.113H467.7C469.525 482.128 471.313 481.596 472.833 480.586C474.354 479.575 475.536 478.132 476.229 476.443C476.688 475.322 476.919 474.12 476.909 472.908V340.495Z" fill="#D3E8EF"></path><path d="M333.844 375.912L190.778 341.695V472.908C190.769 474.12 191.001 475.321 191.461 476.442C191.921 477.564 192.599 478.582 193.456 479.439C194.313 480.295 195.332 480.973 196.453 481.432C197.574 481.891 198.776 482.123 199.988 482.113H333.844V375.912Z" fill="white"></path><path d="M333.844 446.396H454.087V462.604H333.969V446.396H333.844ZM333.844 413.105H454.087V429.288H333.969V413.029L333.844 413.105Z" fill="#036AAB"></path><path d="M333.844 462.604V446.396H213.727V462.604H333.844ZM213.601 413.029H333.844V429.212H213.727V413.029H213.601Z" fill="#0399ED"></path><path d="M262.399 402.6H277.488V476.035H262.399V402.6Z" fill="white"></path><path d="M220.057 335.968C257.969 344.997 295.906 354.201 333.669 363.23L293.153 401.5C266.828 386.041 240.853 368.984 220.057 335.968Z" fill="#7EAABA"></path><path d="M252.164 356.402C264.056 367.753 277.213 377.698 291.378 386.042L308.52 369.834C289.726 365.432 270.983 360.83 252.164 356.402Z" fill="white"></path><path d="M447.356 335.968C409.418 344.997 371.481 354.201 333.744 363.23L374.259 401.5C400.584 386.041 426.535 368.984 447.356 335.968Z" fill="#7EAABA"></path><path d="M415.223 356.402C403.336 367.758 390.178 377.704 376.011 386.042L358.893 369.834C377.662 365.432 396.43 360.83 415.223 356.402Z" fill="white"></path></g></svg>