<?xml version="1.0" encoding="UTF-8"?>
<svg id="Layer_1" xmlns="http://www.w3.org/2000/svg" baseProfile="tiny-ps" version="1.2" viewBox="0 0 200 200" xml:space="preserve">
<title>R2net Inc.</title>
  <!-- Generator: Adobe Illustrator 29.0.0, SVG Export Plug-In . SVG Version: 2.1.0 Build 186)  -->
  <g>
    <path d="M47.5,89.3c.7,0,1.2.1,1.4.3.3.2.4.7.4,1.4v16.8c0,1.9-.4,3.3-1.1,4s-1.7,1.2-3,1.2-1,0-1.2-.1v.2c.9.3,1.8.4,2.7.4s1.8-.2,2.5-.5,1.3-.8,1.7-1.3.7-1.2.8-1.9c.1-.7.2-1.8.2-3.3v-15.5c0-.6.1-1,.3-1.2s.7-.4,1.5-.4v-.2h-6.1v.2h0Z" fill="#656565"/>
    <path d="M64,106.1s0,0,0,.1c0,0,0,.1,0,.1.2.3.3.5.3.7s-.2.3-.5.3h0c0,.1,3.6.1,3.6.1h0c-.6-.1-1-.4-1.3-.8-.3-.5-.4-.7-.4-.8l-5.4-11.3h-.3l-5.5,11.6c-.3.5-.5.8-.7.9s-.5.2-.8.2h0c0,.1,2.2.1,2.2.1h0c-.4-.1-.5-.2-.5-.4s.1-.3.3-.6l2.3-4.6h4.4l2.1,4.4ZM59.6,96.7l2,4.7h-4.1l2.1-4.7Z" fill="#656565"/>
    <path d="M77.6,105.1l-5.3-10.5h-2.8c.3.1.5.2.8.3s.6.5.9,1l-1.7,10.4c0,.2,0,.4-.1.5,0,.2-.2.3-.3.3s-.3.1-.7.1h0c0,.1,2.3.1,2.3.1h0c-.5-.1-.7-.3-.7-.6s0-.4,0-.5l1.5-9.5,5.4,10.6h.1l5.4-10.5,1.6,9.4c0,.3,0,.4,0,.5,0,.4-.2.6-.7.5h0c0,.1,3.4.1,3.4.1h0c-.4-.1-.6-.2-.8-.4-.1-.2-.2-.4-.3-.9l-1.6-9.8c0-.3,0-.5,0-.6,0-.7.4-1,1.2-1h0c0-.1-2.4-.1-2.4-.1l-5.4,10.4Z" fill="#656565"/>
    <path d="M89,95.1c.1.2.2.5.2,1v10.4c0,.4-.1.6-.3.7s-.5.2-.8.2h0c0,.1,10.4.1,10.4.1v-1.7h-.2c-.1.5-.2.8-.4.9s-.4.3-.6.3-.8,0-1.6,0h-2.7c-.6,0-1,0-1.3-.1-.3,0-.5-.2-.6-.5-.2-.3-.2-.7-.2-1.2v-3.8h4.8c.4,0,.6,0,.7.1.2,0,.2.2.3.3h.2v-1.2h-.2c0,.2,0,.3-.2.3-.1,0-.4.1-.9.1h-4.6v-6h5c.6,0,.9,0,1,.2.2.1.3.5.5,1.1h.2v-1.7h-9.5v.2c.5,0,.8.1.9.3Z" fill="#656565"/>
    <path d="M107.8,94.8c0,0-.4-.1-1-.2-.6-.1-1.1-.2-1.6-.2-1.3,0-2.4.3-3.1,1-.8.7-1.2,1.4-1.2,2.4s.2,1.5.5,2c.3.5.7.9,1.2,1.1.5.3,1.3.6,2.4.9,1.2.3,2,.6,2.4.8.4.2.8.5,1,.8.3.3.4.7.4,1.1,0,.7-.4,1.3-1,1.8s-1.6.7-2.9.7-2.5-.3-3.1-.7-1-1.3-1-2.4h-.2v3.6h4.1c.2,0,.7,0,1.3-.1.7,0,1.2-.2,1.5-.3.3-.1.6-.3.9-.5.3-.3.6-.5.8-.8s.4-.6.5-.9c.1-.3.2-.6.2-1,0-.8-.3-1.4-.8-1.9-.5-.5-1.1-.9-1.7-1.1-.6-.2-1.6-.5-3.2-1-.9-.3-1.5-1.1-1.8-1.4-.3-.4-.4-.7-.4-1.2,0-.7.3-1.3.9-1.7s1.4-.7,2.4-.7,1.2.1,1.7.3.9.4,1.3.8c.4.3.6.5.6.5h.1l-.7-1.5q0-.1-.1-.1h0Z" fill="#656565"/>
    <path d="M132.3,105.4s0,0,0,.1c0,0,0,.2.1.2.3.5.4.8.4,1s-.3.5-.7.5v.2h5.3v-.2c-.9,0-1.5-.4-1.9-1.1-.4-.7-.6-1.1-.6-1.2l-8.1-16.2h-.4l-8.2,16.7c-.4.8-.7,1.2-1,1.4-.3.2-.7.3-1.1.3v.2h3.4v-.2c-.5,0-.8-.2-.8-.4s.1-.4.4-.9l3.5-6.9h6.7l3.1,6.6ZM125.7,92.2l3,6.2h-6.1l3.1-6.2Z" fill="#656565"/>
    <path d="M148.3,107.4v-2.9h-.2c0,1-.3,1.6-.7,2-.4.4-1.1.5-2,.5h-1.8c-1.1,0-1.8-.2-2.2-.5-.5-.3-.7-.8-.7-1.6v-8.9c0-.4,0-.6,0-.7s.2-.2.3-.3c.2-.1.4-.1.8-.1h0c0-.1-4.1-.1-4.1-.1h0c.6.1.9.2,1,.4.1.2.2.4.2.8v10.5c0,.4,0,.6-.2.7-.2.2-.5.2-.9.2h0c0,.1,10.5.1,10.5.1h0Z" fill="#656565"/>
    <path d="M159.7,107.4v-2.9h-.2c0,1-.3,1.6-.7,2-.4.4-1.1.5-2,.5h-1.8c-1.1,0-1.8-.2-2.2-.5-.5-.3-.7-.8-.7-1.6v-8.9c0-.4,0-.6,0-.7s.2-.2.3-.3c.2-.1.4-.1.8-.1h0c0-.1-4.1-.1-4.1-.1h0c.6.1.9.2,1,.4.1.2.2.4.2.8v10.5c0,.4,0,.6-.2.7-.2.2-.5.2-.9.2h0c0,.1,10.5.1,10.5.1h0Z" fill="#656565"/>
    <path d="M161.6,95.1c.1.2.2.5.2,1v10.3c0,.4-.1.6-.3.7-.2.1-.5.2-.8.2h0c0,.1,10.3.1,10.3.1v-1.7h-.2c-.1.5-.2.8-.4.9-.2.2-.4.3-.6.3s-.8,0-1.6,0h-2.7c-.6,0-1,0-1.3-.1-.3,0-.5-.2-.6-.5-.2-.3-.2-.7-.2-1.2v-3.8h4.8c.4,0,.6,0,.7.1.2,0,.2.2.3.3h.2v-1.2h-.2c0,.2,0,.3-.2.3-.1,0-.4.1-.9.1h-4.6v-5.9h5c.6,0,.9,0,1,.2.2.1.3.5.5,1.1h.2v-1.7h-9.5v.2c.6,0,.9,0,1,.3Z" fill="#656565"/>
    <path d="M183,94.8c.3,0,.6,0,.8.2s.3.4.3.9v9.1l-9.9-10.2h-2.8c.9,0,1.5.3,1.7.8.3.5.4,1.1.4,1.8v8.7c0,.6,0,.9-.2,1.1-.1.2-.5.2-1,.2h0c0,.1,2.9.1,2.9.1h0c-.4-.2-.7-.2-.8-.3s-.2-.2-.3-.3-.1-.4-.1-.7v-9.4l10.6,10.8v-11.6c0-.5.1-.8.3-.9s.5-.2.9-.2h0c0-.1-2.9-.1-2.9-.1h0Z" fill="#656565"/>
    <path d="M190.3,93.9c-.4.2-.7.5-.9.9-.2.4-.3.8-.3,1.2s.1.8.3,1.2.5.7.9.9.8.3,1.2.3.8-.1,1.2-.3c.4-.2.7-.5.9-.9.2-.4.3-.8.3-1.2s-.1-.8-.3-1.2-.5-.7-.9-.9-.8-.3-1.2-.3c-.5,0-.8.1-1.2.3ZM192.4,94.3c.3.2.6.4.7.7.2.3.3.7.3,1s-.1.7-.3,1c-.2.3-.4.6-.7.7-.3.2-.6.3-1,.3s-.7-.1-1-.3-.6-.4-.7-.7c-.2-.3-.3-.6-.3-1s.1-.7.3-1c.2-.3.4-.6.7-.7.3-.2.6-.3,1-.3s.7,0,1,.3ZM190.8,97.3v-1.1h.3c.2,0,.3,0,.3.1.1.1.3.3.4.6l.2.4h.5l-.3-.5c-.2-.3-.3-.4-.4-.5,0,0-.1-.1-.2-.2.2,0,.4-.1.5-.3.2-.2.2-.3.2-.5s0-.3-.1-.4c-.1-.1-.2-.2-.3-.3-.2,0-.4,0-.7,0h-.9v2.5h.4ZM190.8,95.1h.5c.2,0,.4,0,.4,0,0,0,.2,0,.2.2,0,0,0,.1,0,.2s0,.2-.1.3-.3.1-.5.1h-.5v-.8h0Z" fill="#656565"/>
  </g>
  <path d="M27.3,90.8s7.3-11.8,13.1-8.6c2.6,1.9,3,8.9-1.5,16.7-3.8,6.5-9.9,9.3-5.5,12.9,0,0-1,3.7-13.2-1.9-12.7-5.9-14.3-10.2-12.9-11.2,1.5-1.1,4.6-.8,7.3-.2,0,0-.1-6,4.3-8.5,4.2-2.3,7-.3,8.5.8Z" fill="#fe8081"/>
</svg>