<?xml version="1.0" encoding="UTF-8" standalone="yes"?><svg xmlns="http://www.w3.org/2000/svg" viewBox="0 0 114 114" version="1.2" baseProfile="tiny-ps"><title>humancopy</title><g id="Group"><path id="Path" fill="#b7a9a0" fill-rule="evenodd" stroke="none" d="M 73.759995 21.339996 L 73.639999 19.660004 L 77.479996 19.300003 L 77.600006 21.220001"></path><path id="path1" fill="#b7a9a0" fill-rule="evenodd" stroke="none" d="M 73.639999 19.660004 L 73.399994 18.099991 L 77.119995 17.139999 L 77.479996 19.300003"></path><path id="path2" fill="#b7a9a0" fill-rule="evenodd" stroke="none" d="M 73.399994 18.099991 L 72.440002 14.860001 L 76.039993 13.539993 L 77.119995 17.139999"></path><path id="path3" fill="#b7a9a0" fill-rule="evenodd" stroke="none" d="M 72.440002 14.860001 L 71.839996 13.539993 L 75.199997 11.619995 L 76.039993 13.539993"></path><path id="path4" fill="#b7a9a0" fill-rule="evenodd" stroke="none" d="M 71.839996 13.539993 L 71.119995 12.339996 L 74.240005 10.059998 L 75.199997 11.619995"></path><path id="path5" fill="#b7a9a0" fill-rule="evenodd" stroke="none" d="M 71.119995 12.339996 L 70.160004 11.020004 L 73.039993 8.5 L 74.240005 10.059998"></path><path id="path6" fill="#b7a9a0" fill-rule="evenodd" stroke="none" d="M 70.160004 11.020004 L 69.199997 9.940002 L 71.720001 7.059998 L 73.039993 8.5"></path><path id="path7" fill="#b7a9a0" fill-rule="evenodd" stroke="none" d="M 69.199997 9.940002 L 66.800003 8.139999 L 68.839996 4.899994 L 71.720001 7.059998"></path><path id="path8" fill="#b7a9a0" fill-rule="evenodd" stroke="none" d="M 66.800003 8.139999 L 64.039993 6.699997 L 65.360001 3.099991 L 68.839996 4.899994"></path><path id="path9" fill="#b7a9a0" fill-rule="evenodd" stroke="none" d="M 64.039993 6.699997 L 60.919998 5.860001 L 61.520004 2.020004 L 65.360001 3.099991"></path><path id="path10" fill="#b7a9a0" fill-rule="evenodd" stroke="none" d="M 60.919998 5.860001 L 57.199997 5.5 L 57.559998 1.660004 L 61.520004 2.020004"></path><path id="path11" fill="#b7a9a0" fill-rule="evenodd" stroke="none" d="M 57.559998 5.5 L 53.839996 5.860001 L 53.360001 2.020004 L 57.199997 1.660004"></path><path id="path12" fill="#b7a9a0" fill-rule="evenodd" stroke="none" d="M 53.839996 5.860001 L 52.279999 6.220001 L 51.320007 2.5 L 53.360001 2.020004"></path><path id="path13" fill="#b7a9a0" fill-rule="evenodd" stroke="none" d="M 52.279999 6.220001 L 50.600006 6.699997 L 49.279999 3.099991 L 51.320007 2.5"></path><path id="path14" fill="#b7a9a0" fill-rule="evenodd" stroke="none" d="M 50.600006 6.699997 L 49.279999 7.419998 L 47.600006 3.940002 L 49.279999 3.099991"></path><path id="path15" fill="#b7a9a0" fill-rule="evenodd" stroke="none" d="M 49.279999 7.419998 L 47.960007 8.020004 L 45.679993 4.899994 L 47.600006 3.940002"></path><path id="path16" fill="#b7a9a0" fill-rule="evenodd" stroke="none" d="M 47.960007 8.020004 L 45.440002 9.940002 L 42.919998 7.059998 L 45.679993 4.899994"></path><path id="path17" fill="#b7a9a0" fill-rule="evenodd" stroke="none" d="M 45.440002 9.940002 L 44.479996 10.899994 L 41.480003 8.5 L 42.919998 7.059998"></path><path id="path18" fill="#b7a9a0" fill-rule="evenodd" stroke="none" d="M 44.479996 10.899994 L 43.639999 12.220001 L 40.519997 9.940002 L 41.480003 8.5"></path><path id="path19" fill="#b7a9a0" fill-rule="evenodd" stroke="none" d="M 43.639999 12.220001 L 42.919998 13.419998 L 39.559998 11.619995 L 40.519997 9.940002"></path><path id="path20" fill="#b7a9a0" fill-rule="evenodd" stroke="none" d="M 42.919998 13.419998 L 42.199997 14.73999 L 38.599998 13.419998 L 39.559998 11.619995"></path><path id="path21" fill="#b7a9a0" fill-rule="evenodd" stroke="none" d="M 42.199997 14.73999 L 41.720001 16.179993 L 38 15.220001 L 38.599998 13.419998"></path><path id="path22" fill="#b7a9a0" fill-rule="evenodd" stroke="none" d="M 41.720001 16.179993 L 41.239998 17.860001 L 37.519997 17.020004 L 38 15.220001"></path><path id="path23" fill="#b7a9a0" fill-rule="evenodd" stroke="none" d="M 41.239998 17.860001 L 41.120003 19.539993 L 37.279999 19.179993 L 37.519997 17.020004"></path><path id="path24" fill="#b7a9a0" fill-rule="evenodd" stroke="none" d="M 41.120003 19.539993 L 41 21.220001 L 37.160004 21.099991 L 37.279999 19.179993"></path><path id="path25" fill="#b7a9a0" fill-rule="evenodd" stroke="none" d="M 57.559998 1.660004 L 57.199997 1.660004 L 57.440002 1.660004 L 57.559998 1.660004"></path><path id="path26" fill="#b7a9a0" fill-rule="evenodd" stroke="none" d="M 57.559998 1.660004 L 57.199997 1.660004 L 57.199997 5.5 L 57.559998 5.5"></path><path id="path27" fill="#b7a9a0" fill-rule="evenodd" stroke="none" d="M 41 21.220001 L 41.120003 23.020004 L 37.279999 23.37999 L 37.160004 21.339996"></path><path id="path28" fill="#b7a9a0" fill-rule="evenodd" stroke="none" d="M 41.120003 23.020004 L 41.239998 24.459991 L 37.519997 25.419998 L 37.279999 23.37999"></path><path id="path29" fill="#b7a9a0" fill-rule="evenodd" stroke="none" d="M 41.239998 24.459991 L 42.32 27.819992 L 38.720001 29.139999 L 37.519997 25.419998"></path><path id="path30" fill="#b7a9a0" fill-rule="evenodd" stroke="none" d="M 42.32 27.819992 L 42.919998 29.020004 L 39.559998 30.940002 L 38.720001 29.139999"></path><path id="path31" fill="#b7a9a0" fill-rule="evenodd" stroke="none" d="M 42.919998 29.020004 L 43.639999 30.339996 L 40.519997 32.619995 L 39.559998 30.940002"></path><path id="path32" fill="#b7a9a0" fill-rule="evenodd" stroke="none" d="M 43.639999 30.339996 L 44.600006 31.539993 L 41.720001 34.059998 L 40.519997 32.619995"></path><path id="path33" fill="#b7a9a0" fill-rule="evenodd" stroke="none" d="M 44.600006 31.539993 L 45.559998 32.73999 L 42.919998 35.5 L 41.720001 34.059998"></path><path id="path34" fill="#b7a9a0" fill-rule="evenodd" stroke="none" d="M 45.559998 32.73999 L 46.759995 33.699997 L 44.360001 36.699997 L 42.919998 35.5"></path><path id="path35" fill="#b7a9a0" fill-rule="evenodd" stroke="none" d="M 46.759995 33.699997 L 47.960007 34.419998 L 46.039993 37.779999 L 44.360001 36.699997"></path><path id="path36" fill="#b7a9a0" fill-rule="evenodd" stroke="none" d="M 47.960007 34.419998 L 50.839996 35.979996 L 49.279999 39.459991 L 46.039993 37.779999"></path><path id="path37" fill="#b7a9a0" fill-rule="evenodd" stroke="none" d="M 50.839996 35.979996 L 52.279999 36.459991 L 51.320007 40.179993 L 49.279999 39.459991"></path><path id="path38" fill="#b7a9a0" fill-rule="evenodd" stroke="none" d="M 52.279999 36.459991 L 53.839996 36.699997 L 53.360001 40.539993 L 51.320007 40.179993"></path><path id="path39" fill="#b7a9a0" fill-rule="evenodd" stroke="none" d="M 53.839996 36.699997 L 57.559998 37.059998 L 57.199997 40.899994 L 53.360001 40.539993"></path><path id="path40" fill="#b7a9a0" fill-rule="evenodd" stroke="none" d="M 37.160004 21.099991 L 37.160004 21.339996 L 37.160004 21.220001 L 37.160004 21.099991"></path><path id="path41" fill="#b7a9a0" fill-rule="evenodd" stroke="none" d="M 37.160004 21.099991 L 37.160004 21.339996 L 41 21.220001"></path><path id="path42" fill="#b7a9a0" fill-rule="evenodd" stroke="none" d="M 57.199997 37.059998 L 60.800003 36.819992 L 61.639999 40.539993 L 57.559998 40.899994"></path><path id="path43" fill="#b7a9a0" fill-rule="evenodd" stroke="none" d="M 60.800003 36.819992 L 64.039993 35.860001 L 65.360001 39.459991 L 61.639999 40.539993"></path><path id="path44" fill="#b7a9a0" fill-rule="evenodd" stroke="none" d="M 64.039993 35.860001 L 66.800003 34.539993 L 68.839996 37.779999 L 65.360001 39.459991"></path><path id="path45" fill="#b7a9a0" fill-rule="evenodd" stroke="none" d="M 66.800003 34.539993 L 69.199997 32.619995 L 71.720001 35.5 L 68.839996 37.779999"></path><path id="path46" fill="#b7a9a0" fill-rule="evenodd" stroke="none" d="M 69.199997 32.619995 L 70.039993 31.660004 L 73.039993 34.059998 L 71.720001 35.5"></path><path id="path47" fill="#b7a9a0" fill-rule="evenodd" stroke="none" d="M 70.039993 31.660004 L 71 30.580002 L 74.240005 32.619995 L 73.039993 34.059998"></path><path id="path48" fill="#b7a9a0" fill-rule="evenodd" stroke="none" d="M 71 30.580002 L 72.440002 27.699997 L 75.919998 29.37999 L 74.240005 32.619995"></path><path id="path49" fill="#b7a9a0" fill-rule="evenodd" stroke="none" d="M 72.440002 27.699997 L 72.919998 26.5 L 76.639999 27.459991 L 75.919998 29.37999"></path><path id="path50" fill="#b7a9a0" fill-rule="evenodd" stroke="none" d="M 72.919998 26.5 L 73.399994 24.940002 L 77.240005 25.419998 L 76.639999 27.459991"></path><path id="path51" fill="#b7a9a0" fill-rule="evenodd" stroke="none" d="M 73.399994 24.940002 L 73.759995 21.459991 L 77.600006 21.819992 L 77.240005 25.419998"></path><path id="path52" fill="#b7a9a0" fill-rule="evenodd" stroke="none" d="M 57.199997 40.899994 L 57.559998 40.899994 L 57.440002 40.899994 L 57.199997 40.899994"></path><path id="path53" fill="#b7a9a0" fill-rule="evenodd" stroke="none" d="M 57.199997 40.899994 L 57.559998 40.899994 L 57.559998 37.059998 L 57.199997 37.059998"></path><path id="path54" fill="#b7a9a0" stroke="none" d="M 73.759995 21.339996 L 77.600006 21.339996 L 77.600006 21.580002 L 73.759995 21.580002 Z"></path><path id="path55" fill="#b7a9a0" fill-rule="evenodd" stroke="none" d="M 77.600006 21.819992 L 77.600006 21.580002 L 77.600006 21.819992"></path><path id="path56" fill="#b7a9a0" fill-rule="evenodd" stroke="none" d="M 77.600006 21.819992 L 77.600006 21.580002 L 73.759995 21.459991 L 73.759995 21.580002"></path><path id="path57" fill="#b7a9a0" fill-rule="evenodd" stroke="none" d="M 77.600006 21.339996 L 77.600006 21.220001 L 73.759995 21.339996"></path><path id="path58" fill="#b7a9a0" stroke="none" d="M 55.279999 39.819992 L 59.360001 39.819992 L 59.360001 113.260002 L 55.279999 113.260002 Z"></path><path id="path59" fill="#b7a9a0" fill-rule="evenodd" stroke="none" d="M 59.360001 39.819992 C 59.360001 40.945999 58.445999 41.860001 57.320007 41.860001 C 56.192993 41.860001 55.279999 40.946991 55.279999 39.819992 C 55.279999 38.692993 56.192993 37.779999 57.320007 37.779999 C 58.445999 37.779999 59.360001 38.692993 59.360001 39.819992 L 59.360001 39.819992"></path><path id="path60" fill="#b7a9a0" stroke="none" d="M 91.520004 36.940002 L 95.600006 36.940002 L 95.600006 110.379997 L 91.520004 110.379997 Z"></path><path id="path61" fill="#b7a9a0" fill-rule="evenodd" stroke="none" d="M 95.600006 36.940002 C 95.600006 38.067001 94.686996 38.979996 93.559998 38.979996 C 92.434006 38.979996 91.520004 38.067001 91.520004 36.940002 C 91.520004 35.813995 92.434006 34.899994 93.559998 34.899994 C 94.686996 34.899994 95.600006 35.813004 95.600006 36.940002 L 95.600006 36.940002"></path><path id="path62" fill="#b7a9a0" stroke="none" d="M 18.080002 36.940002 L 22.160004 36.940002 L 22.160004 110.379997 L 18.080002 110.379997 Z"></path><path id="path63" fill="#b7a9a0" fill-rule="evenodd" stroke="none" d="M 22.160004 36.940002 C 22.160004 38.067001 21.247002 38.979996 20.120003 38.979996 C 18.992996 38.979996 18.080002 38.067001 18.080002 36.940002 C 18.080002 35.813995 18.992996 34.899994 20.120003 34.899994 C 21.247002 34.899994 22.160004 35.813004 22.160004 36.940002 L 22.160004 36.940002"></path><path id="path64" fill="#b7a9a0" stroke="none" d="M 20.120003 71.620003 L 93.559006 71.620003 L 93.559006 75.700005 L 20.120003 75.700005 Z"></path><path id="path65" fill="#b7a9a0" fill-rule="evenodd" stroke="none" d="M 95.600006 73.659996 C 95.600006 74.786003 94.686996 75.700005 93.559998 75.700005 C 92.434006 75.700005 91.520004 74.786003 91.520004 73.659996 C 91.520004 72.532997 92.434006 71.620003 93.559998 71.620003 C 94.686996 71.620003 95.600006 72.532997 95.600006 73.659996 L 95.600006 73.659996"></path><path id="path66" fill="#b7a9a0" fill-rule="evenodd" stroke="none" d="M 22.160004 73.659996 C 22.160004 74.786003 21.247002 75.700005 20.120003 75.700005 C 18.992996 75.700005 18.080002 74.786003 18.080002 73.659996 C 18.080002 72.532997 18.992996 71.620003 20.120003 71.620003 C 21.247002 71.620003 22.160004 72.532997 22.160004 73.659996 L 22.160004 73.659996"></path></g></svg>
