<?xml version="1.0" encoding="UTF-8" standalone="yes"?>
<svg viewBox="0 0 400 400" version="1.2" baseProfile="tiny-ps" xmlns="http://www.w3.org/2000/svg">
  <title>bimi-svg-tiny-12-ps</title>
  <rect width="400" height="400" fill="#fdc831"/>
  <g fill="#211e1e">
    <path d="M195.38,137.81c-3.71.98-7.41,1.99-11.1,3.01-1.83.51-2.82,1.82-2.85,3.73-.02,1.74,0,3.48,0,5.22,0,1.78-.02,3.56.01,5.34.03,1.97,1.1,2.8,3,2.31,3.67-.97,7.33-1.96,10.99-2.96,1.78-.48,2.88-1.76,2.9-3.57.05-3.64.05-7.28-.01-10.92-.03-1.83-1.16-2.62-2.94-2.15Z"/>
    <path d="M327.67,168.24c-3.41,1.01-6.86,1.88-10.29,2.81-2.09.57-3.12,1.9-3.14,4.03-.01,1.62.02,3.24,0,4.86-.02,1.67-.91,2.86-2.51,3.3-3.86,1.07-7.72,2.12-11.59,3.14-1.67.44-2.53-.19-2.54-1.9-.04-5.75-.04-11.5-.02-17.25,0-1.85.97-2.92,2.84-3.43,5.97-1.61,11.95-3.19,17.91-4.85,7.09-1.97,10.97-6.9,12.61-13.85.06-.27.16-.53.25-.79l-.04-31.59c-.06-.15-.16-.29-.18-.44-.86-5.74-5.63-9.54-12.66-7.63-8.15,2.22-16.27,4.62-24.49,6.54-7.6,1.77-13.42,9.71-13.31,17.46.2,14.33.09,28.67.11,43.01.01,8.71,0,17.42.05,26.12,0,.89-.25,1.29-1.12,1.5-2.28.55-4.54,1.18-6.8,1.79-2.41.65-4.82,1.3-7.37,1.99v-1.48c0-4.41,0-8.83-.02-13.24-.01-2.1-1.14-2.94-3.16-2.41-3.59.95-7.19,1.92-10.77,2.91-2.02.55-3.03,1.89-3.04,3.98,0,1.66.04,3.32,0,4.98-.03,1.53-.93,2.78-2.37,3.18-3.93,1.1-7.88,2.16-11.83,3.19-1.53.4-2.33-.22-2.45-1.8-.03-.44-.02-.89-.02-1.34-.02-15.31-.04-30.62-.06-45.93,0-2.43-.02-4.86,0-7.29.01-2.28.83-3.34,3-3.92,3.59-.97,7.18-1.94,10.77-2.91,2.13-.57,2.89,0,2.89,2.16,0,4.29-.01,8.59.01,12.88,0,1.97,1.12,2.86,2.99,2.37,3.68-.97,7.34-1.96,11.01-2.98,1.88-.52,2.96-1.87,2.96-3.8.02-6.68.02-13.37-.03-20.05-.02-2.14-.62-4.16-1.87-5.93-2.35-3.35-6.19-4.51-10.84-3.26-8.43,2.27-16.86,4.55-25.3,6.81-2.68.72-5.01,2.05-6.97,4-3.67,3.65-5.58,8.01-5.56,13.26.07,22.96.07,45.93.12,68.89,0,1.02-.25,1.48-1.29,1.73-3.81.94-7.58,2-11.37,3.02-1.19.32-2.39.65-3.73,1.01v-1.62s-.04-29.77-.04-29.77c0-6.44,0-12.88-.03-19.32,0-2.47-1.01-3.23-3.37-2.6-3.44.91-6.88,1.83-10.31,2.76-2.3.62-3.24,1.87-3.24,4.31,0,4.86,0,9.72,0,14.58.01,11.66.02,23.33.06,34.99,0,.92-.21,1.34-1.17,1.57-2.59.61-5.16,1.37-7.73,2.07-.37.1-.74.15-1.11.23-.05-.2-.09-.28-.09-.35-.01-1.17-.01-2.35-.02-3.52-.02-2.29-1.06-3.08-3.27-2.49-2.69.72-5.38,1.47-8.08,2.19-2.88.78-5.76,1.56-8.81,2.38v-1.69s-.09-70.96-.09-70.96c0-.41,0-.81,0-1.22-.07-1.72-1.18-2.59-2.85-2.15-3.79,1-7.58,2.02-11.36,3.06-1.46.4-2.32,1.44-2.62,2.9-.12.59-.12,1.21-.12,1.81.03,26.25.05,52.49.12,78.74,0,1.11-.34,1.53-1.38,1.8-4.47,1.14-8.91,2.37-13.36,3.56-.28.08-.58.09-.77.12.22-1.7.6-3.29.61-4.89.06-5.83,0-11.66-.04-17.49,0-.97-.13-1.94-.3-2.89-1.06-5.91-4.94-9.95-10.83-11.2-6.84-1.46-13.7-2.86-20.55-4.29-1.51-.32-1.91-.77-1.92-2.31-.02-4.17-.02-8.34-.02-12.52,0-1.94.91-3.12,2.77-3.62,3.67-.99,7.34-1.98,11.01-2.96,2.12-.57,2.87,0,2.89,2.19.02,2.59-.02,5.19.03,7.78.04,1.84,1.14,2.67,2.89,2.21,3.76-.98,7.51-1.98,11.25-3.01,1.63-.45,2.74-1.8,2.75-3.46.02-5.3.1-10.62-.13-15.91-.07-1.69-.79-3.5-1.69-4.97-2.15-3.53-6.18-4.7-10.84-3.44-8.32,2.24-16.63,4.5-24.94,6.73-7.63,2.05-12.97,8.98-12.97,16.92,0,5.06-.01,10.13.03,15.19.02,2.06,0,4.14.25,6.18.79,6.72,5.14,11.47,11.72,12.87,6.41,1.36,12.83,2.66,19.25,3.98,2.19.45,2.41.68,2.42,2.86.01,3.4.03,6.8.03,10.21,0,2.14-.82,3.21-2.87,3.76-9.25,2.5-18.5,5-27.75,7.51-1.89.51-2.99,1.87-2.99,3.78,0,13.93.02,27.87.05,41.8,0,1.79.97,2.58,2.74,2.29.39-.06.77-.23,1.15-.38,82.41-32.71,164.83-65.42,247.24-98.13,5.33-2.11,8.69-6.03,10.46-11.41.29-.87.49-1.78.72-2.66l-.02-13.85c-.87-1.37-2.03-1.56-3.54-1.12ZM297.54,145.12c-.03-5.09-.03-10.19-.02-15.29,0-2.03.9-3.15,2.84-3.68,3.74-1.01,7.49-2.01,11.23-3,1.72-.45,2.55.17,2.57,1.95.02,2.63.01,5.26.01,7.89,0,2.51.02,5.01,0,7.52,0,2.03-.85,3.12-2.83,3.66-3.7,1.01-7.4,2.02-11.1,3.01-1.87.5-2.7-.12-2.71-2.06Z"/>
  </g>
</svg>