<?xml version="1.0" encoding="utf-8"?>
<!-- Generator: Adobe Illustrator 28.2.0, SVG Export Plug-In . SVG Version: 6.00 Build 0)  -->
<svg version="1.2" baseProfile="tiny-ps" id="Logo" xmlns="http://www.w3.org/2000/svg" xmlns:xlink="http://www.w3.org/1999/xlink"
	 viewBox="0 0 218 218" xml:space="preserve">
<title>Discover Financial Services</title>
<rect id="Background" fill="#FFFFFF" width="218" height="218"/>
<g id="Discover_Logo">
	<g id="Register_Mark">
		<path id="R_00000100366498792318162550000014454242025231499914_" fill="#231F20" d="M203.4,95.7c0-0.5-0.4-0.8-1-0.8h-0.8v2.6
			h0.6v-1l0.7,1h0.8l-0.9-1.1C203.2,96.3,203.4,96,203.4,95.7z M202.3,96h-0.1v-0.7h0.1c0.3,0,0.5,0.1,0.5,0.3
			C202.7,95.9,202.6,96,202.3,96z"/>
		<path id="Circle" fill="#231F20" d="M202.5,93.9c-1.3,0-2.3,1-2.3,2.3s1,2.3,2.3,2.3c1.2,0,2.3-1,2.3-2.3S203.7,93.9,202.5,93.9z
			 M202.5,98.1c-1,0-1.8-0.8-1.8-1.9c0-1,0.8-1.9,1.8-1.9s1.8,0.9,1.8,1.9S203.5,98.1,202.5,98.1z"/>
	</g>
	<path id="R" fill="#231F20" d="M198.7,102.9c0-5.6-3.9-8.8-10.6-8.8h-8.6V124h5.8v-12h0.8l8.1,12h7.2l-9.4-12.6
		C196.3,110.5,198.7,107.5,198.7,102.9z M187,107.9h-1.7v-9h1.8c3.6,0,5.6,1.5,5.6,4.4C192.7,106.2,190.8,107.9,187,107.9z"/>
	<polygon id="E" fill="#231F20" points="159.2,124 175.7,124 175.7,118.9 165,118.9 165,110.8 175.3,110.8 175.3,105.8 165,105.8 
		165,99.2 175.7,99.2 175.7,94.1 159.2,94.1 	"/>
	<polygon id="V" fill="#231F20" points="142.2,114.2 134.2,94.1 127.8,94.1 140.5,124.7 143.6,124.7 156.5,94.1 150.2,94.1 	"/>
	<circle id="O" fill="#EA6A28" cx="113.7" cy="109" r="15.8"/>
	<path id="C" fill="#231F20" d="M73,109.1c0,8.8,6.9,15.6,15.8,15.6c2.5,0,4.7-0.5,7.3-1.7v-7c-2.3,2.3-4.4,3.3-7,3.3
		c-5.9,0-10-4.2-10-10.3c0-5.7,4.3-10.2,9.8-10.2c2.8,0,4.9,1,7.3,3.4v-6.8c-2.6-1.3-4.7-1.8-7.2-1.8C80,93.4,73,100.4,73,109.1z"/>
	<path id="S" fill="#231F20" d="M62.5,105.6c-3.5-1.3-4.5-2.1-4.5-3.8c0-1.9,1.8-3.3,4.3-3.3c1.7,0,3.2,0.7,4.7,2.4l3-4
		c-2.5-2.2-5.5-3.3-8.8-3.3c-5.3,0-9.3,3.7-9.3,8.6c0,4.1,1.9,6.2,7.3,8.2c2.3,0.8,3.4,1.3,4,1.7c1.2,0.8,1.7,1.8,1.7,3.1
		c0,2.4-1.9,4.2-4.5,4.2c-2.8,0-5-1.4-6.4-4l-3.8,3.6c2.7,3.9,5.9,5.7,10.3,5.7c6.1,0,10.3-4,10.3-9.8
		C71.1,110.1,69.2,108,62.5,105.6z"/>
	<rect id="I" x="42.5" y="94.1" fill="#231F20" width="5.8" height="29.8"/>
	<path id="D" fill="#231F20" d="M23.8,94.1h-8.5V124h8.5c4.5,0,7.8-1.1,10.6-3.4c3.4-2.8,5.4-7.1,5.4-11.5
		C39.8,100.2,33.2,94.1,23.8,94.1z M30.6,116.5c-1.8,1.7-4.2,2.4-8,2.4H21V99.2h1.6c3.8,0,6,0.7,8,2.4c2,1.8,3.2,4.6,3.2,7.4
		C33.8,111.9,32.6,114.7,30.6,116.5z"/>
</g>
</svg>
