<?xml version="1.0" encoding="UTF-8" standalone="yes"?>
<svg version="1.2" viewBox="0 0 215.35 215.35" baseProfile="tiny-ps" xmlns="http://www.w3.org/2000/svg">
  <title>bimi-svg-tiny-12-ps</title>
  <circle cx="107.675" cy="107.675" r="107.675" fill="white" />

  <path d="M183.95,31.55v152.4h-8.54l-0.13-0.34c-0.15-0.21-0.29-0.43-0.45-0.64  c-32.08-42.7-64.15-85.4-96.23-128.1c-5.88-7.82-11.74-15.65-17.61-23.47h94.86c-14.5,18-29,35.99-43.5,54  c-0.12,0.15-0.21,0.33-0.36,0.56h0.91c8.93,0,17.85,0,26.79,0.01c0.65,0,1.03-0.19,1.42-0.67c13.98-17.6,27.96-35.18,41.95-52.76  c0.28-0.34,0.61-0.65,0.91-0.98L183.95,31.55z" fill="#FEFEFE"/>
  <path d="M60.98,31.4c5.87,7.82,11.74,15.65,17.61,23.47c32.08,42.7,64.15,85.4,96.23,128.1c0.16,0.21,0.3,0.43,0.45,0.64  c-0.22,0.06-0.45,0.18-0.67,0.18c-9.1,0-18.19,0-27.3,0c-0.16-0.21-0.33-0.41-0.49-0.62c-14.14-18.84-28.27-37.69-42.4-56.54  c-0.18-0.23-0.36-0.47-0.58-0.74c-0.23,0.3-0.39,0.51-0.55,0.72c-11.42,15.23-22.84,30.45-34.27,45.69  c-2.89,3.85-5.79,7.68-8.69,11.52c-0.38,0-0.77-0.01-1.15-0.01c-9.17,0-18.35,0-27.51,0c0.1-0.16,0.18-0.31,0.29-0.46  c16.92-22.57,33.84-45.14,50.76-67.71c2.25-3,4.51-6.01,6.78-9.04c-0.19-0.26-0.35-0.49-0.52-0.72  C70.57,81.3,52.18,56.71,33.79,32.12c-0.16-0.23-0.3-0.47-0.45-0.72h27.63L60.98,31.4z M73.36,151.41c1.39-1.87,2.78-3.75,4.29-5.77  c-1.02-0.48-1.89-1.03-2.86-1.33c-2.11-0.64-3.78-0.17-5.14,1.91c-1.17,1.79-0.91,3.53,0.86,4.98c1,0.81,2.17,1.49,3.36,2.01  c1.53,0.67,3.02,0.23,4.11-0.9c0.79-0.81,1.4-1.81,1.92-2.81c0.62-1.2,0.48-1.35-0.86-1.94c-0.26,1.39-0.94,2.58-1.93,3.61  c-1.08,1.11-2.51,1.2-3.74,0.24l0,0H73.36z M95.38,127.83c-0.23-0.61-0.32-1.34-0.73-1.8c-0.77-0.85-1.63-1.67-2.61-2.28  c-2.41-1.49-4.34-1.26-6.25,0.75c-1.49,1.58-2.22,4,0.06,5.99c0.89,0.77,1.97,1.41,3.06,1.9c1.55,0.7,3.07,0.4,4.33-0.7  c1.15-1.01,2.01-2.21,2.13-3.86H95.38z M54.6,171.17c-1.37-0.91-2.64-1.74-3.92-2.59c1.35-1.81,2.63-3.53,3.95-5.32  c-0.4-0.26-0.77-0.5-1.17-0.76c-1.63,2.19-3.2,4.31-4.8,6.46c3.83,2.51,7.57,4.97,11.36,7.46c0.3-0.4,0.56-0.75,0.84-1.14  c-1.71-1.13-3.36-2.22-5.08-3.34c1.15-1.56,2.3-3.09,3.47-4.68c-0.43-0.27-0.79-0.51-1.19-0.77  C56.91,168.06,55.77,169.59,54.6,171.17L54.6,171.17z M70.18,162.75c-2.37-1.57-4.69-3.1-7.13-4.72c0.47-0.81,0.85-1.64,1.39-2.36  c1.1-1.49,2.08-1.61,3.66-0.57c1.72,1.13,3.44,2.26,5.15,3.39c1.03-0.98,1.01-1.08-0.02-1.74c-1.53-0.98-3.06-1.97-4.56-3  c-1.62-1.11-3.41-1-4.8,0.36c-1.18,1.15-1.86,2.56-2.2,4.11c-0.06,0.24,0.14,0.64,0.36,0.8c1.16,0.81,2.36,1.58,3.56,2.36  c1.25,0.82,2.49,1.64,3.77,2.47c0.3-0.39,0.55-0.72,0.84-1.11l0,0L70.18,162.75z M81.47,141.13h3.75c1.18,0,1.5-0.23,1.88-1.38  H75.53c-0.99,0-1.43,0.35-1.7,1.37c1.81,0,3.61,0.02,5.42-0.01c0.5,0,0.7,0.16,0.86,0.59c0.6,1.63,1.25,3.24,1.89,4.87  c1.18-0.97,1.19-1.02,0.72-2.24c-0.42-1.03-0.81-2.06-1.25-3.19l0,0V141.13z M66.44,167.79c0.26-0.35,0.49-0.66,0.84-1.14  c-2.85-1.88-5.66-3.72-8.49-5.58c-0.33,0.44-0.57,0.77-0.84,1.15c2.84,1.86,5.63,3.7,8.49,5.58l0,0V167.79z M89.68,136.53  c-2.85-1.87-5.66-3.71-8.49-5.58c-0.32,0.43-0.57,0.77-0.84,1.13c2.88,1.89,5.67,3.73,8.49,5.58c0.31-0.42,0.55-0.75,0.84-1.14l0,0  V136.53z M79.46,139.12c0.08,0.01,0.14,0.04,0.22,0.05c0.26-0.5,0.84-1.06,0.74-1.49c-0.29-1.28-0.84-2.51-1.3-3.76  c-0.47,0.46-1.03,1-0.94,1.41C78.46,136.62,79.01,137.86,79.46,139.12C79.46,139.12,79.46,139.12,79.46,139.12z M56.4,161.29  c0.33-0.45,0.62-0.84,0.94-1.28c-0.49-0.32-0.91-0.59-1.37-0.89c-0.34,0.45-0.62,0.84-0.94,1.26c0.47,0.31,0.87,0.57,1.37,0.9  V161.29z M77.35,130.38c0.56,0.22,1,0.5,1.45,0.52c0.19,0.01,0.64-0.6,0.57-0.79c-0.16-0.42-0.59-0.75-0.96-1.18  c-0.4,0.54-0.68,0.91-1.07,1.45L77.35,130.38z"/>
  <path d="M33.36,31.4c0.15,0.24,0.28,0.49,0.45,0.72c18.39,24.59,36.78,49.17,55.17,73.76  c0.17,0.23,0.34,0.46,0.52,0.72c-2.27,3.02-4.53,6.04-6.78,9.04c-16.92,22.57-33.83,45.14-50.76,67.71c-0.11,0.14-0.2,0.3-0.29,0.46  c-0.04,0.05-0.09,0.11-0.13,0.16c-0.06-0.03-0.16-0.05-0.16-0.08c-0.01-0.21,0-0.41,0-0.62V31.4c0.65,0,1.32,0,1.97,0H33.36z" fill="#FEFEFE"/>
  <path d="M60.35,183.81c2.9-3.84,5.8-7.67,8.69-11.52c11.43-15.22,22.84-30.45,34.27-45.69  c0.16-0.21,0.32-0.42,0.55-0.72c0.21,0.28,0.4,0.51,0.58,0.74c14.14,18.84,28.27,37.69,42.4,56.54c0.16,0.21,0.33,0.41,0.49,0.62  c0,0.06-0.01,0.11-0.03,0.16H60.33c0,0,0.02-0.09,0.01-0.13l0,0L60.35,183.81z" fill="#FEFEFE"/>
  <path d="M183.95,31.55c-0.3,0.33-0.62,0.64-0.89,0.98c-13.99,17.58-27.98,35.17-41.95,52.76  c-0.38,0.48-0.77,0.67-1.42,0.67c-8.93-0.02-17.85-0.01-26.79-0.01h-0.91c0.15-0.23,0.24-0.41,0.36-0.56c14.5-18,29-35.99,43.5-54  c9.15,0,18.3,0,27.46,0c0.21,0,0.43,0.1,0.65,0.15l0,0L183.95,31.55z" fill="#2590CE"/>
  <path d="M60.35,183.81c0,0,0,0.1-0.02,0.14H31.56c0,0,0.09-0.11,0.13-0.16c9.17,0,18.35,0,27.51,0  c0.38,0,0.77,0,1.15,0l0,0V183.81z" fill="#444444"/>
  <path d="M147.29,183.95c0-0.06,0.01-0.11,0.03-0.16c9.1,0,18.19,0,27.3,0c0.22,0,0.45-0.12,0.67-0.18  l0.13,0.34H147.3H147.29z" fill="#444444"/>
  <path d="M73.37,151.41c1.23,0.96,2.66,0.86,3.74-0.25c0.99-1.03,1.66-2.22,1.93-3.61  c1.35,0.6,1.49,0.74,0.86,1.94c-0.51,1-1.13,2-1.92,2.81c-1.09,1.13-2.58,1.57-4.11,0.9c-1.2-0.52-2.37-1.2-3.36-2.01  c-1.77-1.44-2.03-3.19-0.86-4.98c1.37-2.08,3.02-2.55,5.14-1.91c0.96,0.29,1.84,0.84,2.86,1.33c-1.51,2.03-2.9,3.9-4.29,5.77l0,0  L73.37,151.41z M72.24,150.76c1.15-1.54,2.27-3.05,3.39-4.57c-2.26-1.46-3.7-0.77-4.62,0.49C69.9,148.17,70.27,149.4,72.24,150.76z" fill="#EFF1EE"/>
  <path d="M95.39,127.83c-0.12,1.66-0.99,2.85-2.13,3.86c-1.25,1.1-2.78,1.4-4.33,0.7  c-1.09-0.5-2.17-1.13-3.06-1.9c-2.28-1.99-1.54-4.41-0.06-5.99c1.89-2.01,3.83-2.25,6.25-0.75c0.98,0.61,1.85,1.43,2.61,2.28  c0.42,0.46,0.5,1.19,0.73,1.8L95.39,127.83z M93.98,127.98c-0.2-0.44-0.32-0.94-0.6-1.32c-0.89-1.16-2.1-1.93-3.55-2.37  c-0.79-0.24-1.6-0.2-2.17,0.34c-0.65,0.62-1.2,1.35-1.64,2.1c-0.4,0.7-0.27,1.52,0.31,2.1c0.81,0.8,1.64,1.66,2.65,2.18  C91.09,132.12,93.86,130.37,93.98,127.98z" fill="#EFF1EE"/>
  <path d="M54.62,171.17c1.17-1.58,2.3-3.1,3.47-4.68c0.4,0.26,0.77,0.5,1.19,0.77  c-1.18,1.59-2.32,3.12-3.47,4.68c1.71,1.13,3.36,2.22,5.08,3.34c-0.29,0.39-0.55,0.74-0.84,1.14c-3.8-2.49-7.53-4.94-11.36-7.46  c1.6-2.15,3.17-4.26,4.8-6.46c0.4,0.26,0.77,0.5,1.17,0.76c-1.32,1.78-2.6,3.51-3.95,5.32C51.98,169.43,53.25,170.26,54.62,171.17  L54.62,171.17z" fill="#EFF1EE"/>
  <path d="M70.19,162.75c-0.29,0.39-0.55,0.72-0.84,1.11c-1.28-0.84-2.53-1.66-3.77-2.47  c-1.19-0.78-2.39-1.54-3.56-2.36c-0.22-0.16-0.41-0.56-0.36-0.8c0.33-1.55,1.02-2.96,2.2-4.11c1.39-1.36,3.18-1.47,4.8-0.36  c1.5,1.02,3.03,2.01,4.56,3c1.03,0.66,1.05,0.75,0.02,1.74c-1.71-1.13-3.43-2.25-5.15-3.39c-1.59-1.04-2.56-0.91-3.66,0.57  c-0.54,0.72-0.91,1.55-1.39,2.36c2.44,1.62,4.76,3.15,7.13,4.72l0,0L70.19,162.75z" fill="#EFF1EE"/>
  <path d="M81.48,141.13c0.44,1.13,0.84,2.17,1.24,3.2c0.47,1.23,0.46,1.27-0.72,2.24  c-0.63-1.63-1.29-3.24-1.89-4.87c-0.16-0.43-0.36-0.6-0.86-0.59c-1.8,0.04-3.6,0.01-5.42,0.01c0.26-1.03,0.71-1.37,1.7-1.37H87.1  c-0.37,1.15-0.7,1.38-1.88,1.38s-2.39,0-3.73,0l0,0L81.48,141.13z" fill="#EFF1EE"/>
  <path d="M66.45,167.79c-2.85-1.88-5.65-3.71-8.49-5.58c0.28-0.38,0.52-0.71,0.84-1.15  c2.83,1.86,5.65,3.71,8.49,5.58c-0.35,0.48-0.58,0.79-0.84,1.14l0,0L66.45,167.79z" fill="#EEF0ED"/>
  <path d="M89.69,136.53c-0.29,0.39-0.54,0.72-0.84,1.13c-2.82-1.86-5.61-3.69-8.49-5.58  c0.26-0.36,0.52-0.7,0.84-1.13C84.03,132.82,86.83,134.66,89.69,136.53z" fill="#EEF0ED"/>
  <path d="M79.47,139.11c-0.45-1.26-0.99-2.5-1.28-3.79c-0.09-0.41,0.47-0.96,0.94-1.41  c0.45,1.25,1.01,2.48,1.3,3.76c0.1,0.43-0.47,0.98-0.74,1.49C79.62,139.14,79.55,139.12,79.47,139.11  C79.47,139.11,79.47,139.11,79.47,139.11z" fill="#0091DB"/>
  <path d="M56.41,161.28c-0.49-0.33-0.89-0.59-1.36-0.9c0.31-0.42,0.6-0.81,0.94-1.26  c0.45,0.3,0.87,0.57,1.37,0.89c-0.33,0.43-0.61,0.82-0.95,1.28L56.41,161.28z" fill="#E9EBE8"/>
  <path d="M77.36,130.37c0.39-0.53,0.67-0.91,1.07-1.45c0.37,0.43,0.79,0.76,0.96,1.18  c0.08,0.19-0.38,0.81-0.57,0.79c-0.46-0.02-0.9-0.3-1.45-0.52L77.36,130.37z" fill="#EAECE9"/>
  <path d="M72.24,150.76c-1.98-1.36-2.34-2.59-1.23-4.08c0.93-1.25,2.36-1.95,4.62-0.49  C74.51,147.7,73.39,149.21,72.24,150.76z" fill="#010101"/>
  <path d="M93.98,127.98c-0.12,2.39-2.89,4.14-5.01,3.04c-1.01-0.52-1.84-1.38-2.65-2.18c-0.58-0.57-0.71-1.4-0.31-2.1  c0.44-0.77,1-1.49,1.64-2.1c0.57-0.54,1.39-0.58,2.17-0.34c1.44,0.45,2.66,1.21,3.55,2.37C93.66,127.05,93.78,127.54,93.98,127.98  L93.98,127.98z"/>
</svg>