<?xml version="1.0" encoding="UTF-8" standalone="yes"?>
<svg version="1.2" baseProfile="tiny-ps" viewBox="0 0 720 720" xml:space="preserve" xmlns="http://www.w3.org/2000/svg">
  <title>bimi-svg-tiny-12-ps</title>
  <rect y="0" fill="#FFFFFF" stroke="#000000" stroke-miterlimit="10" width="720" height="720"/>
  <g>
    <path fill="#D7272B" d="M551.2,489.1c-4.2,0.3-6.3,0.4-10.5,0.7c-2.8,5.9-4.3,8.7-7.1,14.3c-0.1,0-0.1,0-0.2,0&#xA;&#x9;&#x9;c-2.7-5.5-4.1-8.2-6.8-13.5c-4.4,0.2-6.7,0.3-11.1,0.6c5.1,8.8,7.6,13.4,12.7,22.8v14.6c4,0.2,6,0.3,10.1,0.6V514&#xA;&#x9;&#x9;C543.3,504.4,545.9,499.5,551.2,489.1 M483.4,513.8c1.1,0,1.7,0,2.8,0c1.5,0,2.5,0.7,3.1,2c2.2,4.4,3.3,6.6,5.4,11.2&#xA;&#x9;&#x9;c4.3,0.2,6.5,0.2,10.8,0.4c-2.6-5.6-4-8.4-6.6-13.8c-0.6-1.3-2.6-2.7-2.6-2.8c0,0,6.1-4.5,6.1-9c0-7.6-6.1-9.9-15.1-9.6&#xA;&#x9;&#x9;c-5.6,0.2-8.4,0.3-14,0.4v33.7c4.1,0.1,6.1,0.2,10.1,0.3L483.4,513.8L483.4,513.8z M487.2,507c-1.5,0-2.3,0-3.8,0v-7.7&#xA;&#x9;&#x9;c1.2,0,1.8,0,3.1-0.1c3.7-0.1,5.6,0.6,5.6,3.5C492.1,505.6,490.2,507,487.2,507 M430.4,525.7c10.4,0,15.6,0.1,26,0.3v-7.4&#xA;&#x9;&#x9;c-6.4-0.1-9.5-0.1-15.9-0.1c0-2.2,0-3.3,0-5.6c5.3,0,8,0,13.3,0v-7.4c-5.3,0-8,0-13.3,0v-5c6.2,0,9.3,0,15.5-0.1V493&#xA;&#x9;&#x9;c-10.2,0.2-15.4,0.2-25.6,0.2V525.7z M414.5,493.2c-12.5-0.1-18.8-0.1-31.3-0.4v7.5c4.2,0.1,6.3,0.1,10.4,0.1V526&#xA;&#x9;&#x9;c4-0.1,6-0.1,10.1-0.1v-25.3c4.3,0,6.5,0,10.8,0.1V493.2z M337.9,527.7c3.9-0.2,5.8-0.3,9.7-0.4c1.1-3.1,1.6-4.6,2.6-7.7&#xA;&#x9;&#x9;c4.7-0.1,7.1-0.2,11.8-0.2c1.1,2.9,1.6,4.4,2.7,7.3c4.3-0.1,6.5-0.2,10.8-0.3c-5.4-13.3-8.1-20.1-13.5-34.1&#xA;&#x9;&#x9;c-4.5-0.1-6.8-0.2-11.4-0.4C345.5,505.8,343,512.9,337.9,527.7 M351.9,512.9c1.6-5,2.4-7.5,4.1-12.5c0.1,0,0.2,0,0.2,0&#xA;&#x9;&#x9;c1.6,5,2.4,7.5,4,12.4C356.9,512.9,355.2,512.9,351.9,512.9 M298.1,529.9c10.4-0.7,15.6-1,26-1.5v-8.5c-6.4,0.2-9.5,0.3-15.9,0.5&#xA;&#x9;&#x9;v-6.8c5.3-0.1,8-0.1,13.3-0.2v-8.6c-5.3-0.1-8-0.1-13.3-0.2v-6c6.2,0.2,9.3,0.3,15.5,0.5v-8.5c-10.2-0.5-15.4-0.8-25.6-1.5V529.9z&#xA;&#x9;&#x9; M583.6,480.3c-18.9,13.8-19.1,46.2,0,59.3v4.4c0,0-76.8,13.9-159.9,13.9S263.9,544,263.9,544v-5.6c17.5-13.9,17.8-44.5,0-57.8&#xA;&#x9;&#x9;v-4.4c0,0,81.7-15.5,159.8-15.5s159.8,15.5,159.8,15.5L583.6,480.3L583.6,480.3L583.6,480.3z"/>
    <path fill="#101337" d="M78.3,502.6c-5,0-9.9-5-12-9.7c-6.8-15.6-9.2-96.5,2.8-182.9c1.4-10.4,2.7-21.3,3.9-31.9&#xA;&#x9;&#x9;c5.5-47.2,10.7-91.7,29.1-92.2c1.3,0,5.6,0.3,9.2,4.1c3,3.2,4.5,7.9,4.5,13.9c4.6,56.6,30,155.4,54.4,211.4l8.7,19.2l-2.4-147.9&#xA;&#x9;&#x9;l4.4-77.3c0.1-1.1,0.1-2.3,0.2-3.6c0.9-14.3,2.5-41,16.6-42.3c0.6-0.1,1.1-0.1,1.7-0.1c3,0,5.1,0.9,6.6,2.8&#xA;&#x9;&#x9;c3.6,4.4,3.7,14.6,0.4,34.1c-11.8,85.2-13.3,162.6-4.6,236.4l0.4,3.1c1.8,13.6,4.4,34.1-3.1,43.9c-2.4,3.1-5.7,4.9-9.8,5.3&#xA;&#x9;&#x9;c-0.3,0-0.7,0-1,0c-7.2,0-12.7-7-16.8-13.1c-10.3-17.2-46.6-103.1-72.3-228C85.9,293,77.8,393.9,87,463.5c0.2,1.1,0.4,2.3,0.6,3.7&#xA;&#x9;&#x9;c1.7,9.6,4.2,24.2-1,31.2c-1.8,2.4-4.3,3.8-7.6,4.1C78.8,502.6,78.6,502.6,78.3,502.6"/>
    <path fill="#101337" d="M265.4,453.5c-19,0-36-12-44.3-31.4c-12.1-27.9-10.4-60,4.4-85.9c8.4-14.5,19.5-24,29.1-24.7&#xA;&#x9;&#x9;c0.4,0,0.8,0,1.1,0c8.5,0,17.7,6.4,21.4,15c5.5,12.8,5.1,30-1.2,46.1c-6.9,17.6-19.9,31.5-35.9,38.3c3.4,10.9,12.9,17.9,24.3,17.9&#xA;&#x9;&#x9;c0.7,0,1.3,0,2-0.1c22.3-1.6,31.9-25.3,38.2-40.9c2.6-6.5,4.6-11.3,6.8-13.1c0.6-5.6,1.4-10.8,2-14.7c3.4-19.8,9.5-43.5,19.8-44.3&#xA;&#x9;&#x9;c0.2,0,0.4,0,0.5,0c4.7,0,10.4,4.1,12.5,9c2.4,5.6,1.1,8.7-1.7,14.9c-2.9,6.5-7.3,16.4-11.1,36.7c-1.5,12.1-2.4,26.9-0.3,31.8&#xA;&#x9;&#x9;c1.2,2.7,3.4,3.9,5.2,3.9h0.3c9.5-0.7,20.8-38.7,26-61.1c0.5-1.6,1-3.7,1.5-5.9c2.3-9.6,5.3-22.7,14.5-23.4c0.2,0,0.5,0,0.8,0&#xA;&#x9;&#x9;c4.2,0,9.8,2.4,12.1,7.7c1.4,3.1,0.7,9,0.3,12.9c-0.1,0.7-0.1,1.2-0.2,1.7c-3,35.1-2.3,56.3,2.2,66.8c1.2,2.9,3.6,4.7,5.9,4.7h0.4&#xA;&#x9;&#x9;c8.2-0.6,12.6-25.4,13.9-38.4c1.8-21.1,1.4-32.8-4.7-56.5c-1.4-6.4-2.7-15.5,0.8-20.4c1.5-2,3.6-3.2,6.4-3.4c0.4,0,0.8,0,1.2,0&#xA;&#x9;&#x9;c6.3,0,9,4.1,10.9,8.6c10,23,7.3,59.8,5.7,74.6c-2.7,23.7-10.1,63.6-29.9,65c-0.6,0-1.2,0.1-1.7,0.1c-10.6,0-19.1-7.2-25.2-21.3&#xA;&#x9;&#x9;c-4.8-11.2-7.1-23.3-6.9-37.1c-2.6,16.1-7,30.2-13,41.8c-5.8,11.9-11.7,17.7-19.2,18.7c-0.4,0-0.7,0-1,0&#xA;&#x9;&#x9;c-9.9,0-19.5-11.8-23.1-20.2c-1.4-3.3-2.6-7-3.6-10.9c-10,18.3-27.1,37.2-46.3,37.8C266.1,453.5,265.7,453.5,265.4,453.5&#xA;&#x9;&#x9; M256,337.2c-5.6,0.4-11.8,9.2-15.7,22.3c-3.7,11.4-5.3,24.3-4,31.9c10.5-5.4,17.1-13.2,22.1-26c1.6-4.1,6.3-16.6,3-24.3&#xA;&#x9;&#x9;c-1.1-2.5-2.9-3.9-5.1-3.9C256.3,337.2,256.1,337.2,256,337.2"/>
    <path fill="#101337" d="M494.5,152.3L494.5,152.3c-1.3,0-2.6,0.2-4,0.6c-17.9,4.8-23.7,60-28.1,116.1c-0.6,7.9-1.2,14.7-1.7,19.6&#xA;&#x9;&#x9;c-1.2,15.4-7.7,128.3,0.7,147.7c1.8,4.2,7.6,10,12.8,10c0.2,0,0.3,0,0.5,0c8.2-0.6,9.5-13.4,10.5-21.9c0.1-1.3,0.3-2.5,0.4-3.5&#xA;&#x9;&#x9;l0.1-1c2.1-15.8,4.3-32,10.5-45.4c2.1,9.8,4.4,19.1,8.6,28.8c4.1,9.4,15.5,32.1,33.6,39.4c1.3,0.6,2.9,0.9,4.6,0.9&#xA;&#x9;&#x9;c2.8,0,5.4-0.8,6.9-2.2c2.8-2.3,3.8-6.2,3.8-8.8c0-4-1.2-6.8-3.3-8.3l-0.1-0.1h-0.1c-4.8-2.8-9.3-6.4-13.3-10.6l-0.1-0.1l-0.1-0.1&#xA;&#x9;&#x9;c-5.4-4.6-9.7-11.9-12.1-17.3c-7.1-16.5-11.8-30.1-13-46.8c6.4-8.6,17.9-19.8,26.7-24.1c3.3-1.3,5.3-3.1,6.3-5.4&#xA;&#x9;&#x9;c0.9-2.2,0.7-4.8-0.6-7.6c-1.8-4.1-6.5-8.4-11.2-8.4c-0.2,0-0.4,0-0.6,0c-11.6,0.8-31.4,19.1-36.9,26.4c-6.3,9-11.8,20-16.8,34.3&#xA;&#x9;&#x9;l0.6-23.9c0.2-10.6,0.5-15.2,1-22.9c0.2-3.2,0.5-7,0.8-12c1.2-20.2,13.2-88.8,18.9-113.2v-0.1v-0.1c0.8-5.3,2.2-10.4,3.5-14.9&#xA;&#x9;&#x9;c1.8-6.7,3.3-11.9,2.5-15.9C505.5,157,501.1,152.3,494.5,152.3"/>
    <path fill="#101337" d="M573.9,317.2c-3.3,0-7.3-2.3-9.2-5.5c-2.3-3.6-0.8-7.5,0.2-10.4l0.3-0.8c3.8-10.6,2.9-15.3-2.9-28.4&#xA;&#x9;&#x9;c-1.8-4.2-3.4-8.6-1.9-12c0.8-1.8,2.5-3,4.9-3.7c0.7-0.2,1.5-0.3,2.2-0.3c3.7,0,7.4,2.6,10.2,7c8.8,14,9.1,33.2,4.8,44.9&#xA;&#x9;&#x9;c-1.8,4.9-4.3,8.1-7,8.8C575,317.1,574.5,317.2,573.9,317.2"/>
    <path fill="#101337" d="M628.5,463.8c-21.1,0-41.9-15.2-51.7-37.9c-3.6-8.4-8.4-27.5-3.5-35.9c1.5-2.6,3.7-4,6.6-4.2&#xA;&#x9;&#x9;c0.2,0,0.4,0,0.6,0c2.9,0,6.3,1.4,7.7,4.5c0.3,0.8,0.4,2.2,0.6,4.7c0.4,5.4,1.1,14.3,5,23.3c5.5,12.8,18.8,22.8,30.2,22.8l0,0&#xA;&#x9;&#x9;c0.5,0,0.9,0,1.4,0c3.7-0.3,6.5-1.8,8-4.4c1.8-3.2,1.6-8-0.6-13.1c-3.9-8.9-11.6-16-19.9-23.4l-3.2-2.9&#xA;&#x9;&#x9;c-9.5-8.4-20.2-18.4-26.2-32.1c-5.8-13.4-5.4-26.5,1.1-37.8c7.9-13.8,25-23.9,42.4-25.2c1.4-0.1,2.8-0.2,4.2-0.2&#xA;&#x9;&#x9;c15,0,25.4,6.3,30.3,18.2c5,12.2,5,23.1-0.1,32.3c-7.3,13.3-23.6,19.5-30,20.3c-0.4,0-0.7,0-1,0c-5.1,0-9.4-2.9-11.5-7.7&#xA;&#x9;&#x9;c-1.3-3-1.5-5.4-0.7-7.4c1.3-3.1,4.9-4.3,8.1-5.4l0.3-0.1c9.4-3.2,15.1-7.3,17.1-11.9c1.1-2.7,1-5.7-0.4-8.9c-2.6-6-8-8.2-12.1-8.2&#xA;&#x9;&#x9;c-0.3,0-0.6,0-0.9,0c-7.3,0.3-17.7,5.7-23.5,15.3c-3.2,5.3-6,14-1.3,24.7c4.8,11.1,14.5,20.2,24,28.5l1,0.9&#xA;&#x9;&#x9;c9.5,8.9,18.4,17.3,23.5,29.1c4.7,10.9,4.9,21.3,0.4,29.1c-4.3,7.4-12.5,12.1-22.5,12.8C630.5,463.8,629.5,463.8,628.5,463.8"/>
  </g>
</svg>