<svg xmlns="http://www.w3.org/2000/svg" xmlns:xlink="http://www.w3.org/1999/xlink" xml:space="preserve" viewBox="0 0 1200 1200" baseProfile="tiny-ps"  version="1.2">
    <title>o9 Solutions</title>
    <path d="M0 0h1200v1200H0z"/>
    <path d="M0 0h1200v1200H0z"/>
    <path fill="#fff"
        d="M894.7 528.1c0 56-29.3 105.2-56.6 138.8L710.5 822.5h-67.8L777.1 665c-16.8 10-36.1 15-57.3 15-41.1 0-74.7-11.8-100.8-31.7.6 3.7.6 8.1.6 12.4C619.6 759 558 830 462.7 830c-97.7 0-157.5-71-157.5-169.3 0-99 59.8-169.3 157.5-169.3 42.3 0 77.2 13.1 103.3 36.1 1.2-90.3 67.8-157.5 166.2-157.5 102.2 0 162.5 68.5 162.5 158.1M561.1 660.7c0-72.2-31.7-124.5-98.3-124.5-67.2 0-99 52.3-99 124.5 0 72.8 31.7 124.5 99 124.5 66.6 0 98.3-51.7 98.3-124.5m277-132.6c0-61-37.3-113.3-105.8-113.3-67.8 0-107.7 52.3-107.7 115.2 0 61.6 38 112 106.4 112 67.2 0 107.1-54.1 107.1-113.9"/>
</svg>