<svg xmlns="http://www.w3.org/2000/svg" xmlns:xlink="http://www.w3.org/1999/xlink" version="1.2" viewBox="0 0 45 45" baseProfile="tiny-ps">
  <title>Claroty</title>
  <rect width="45" height="45" fill="#FFFFFF"/>
  <path d="M37.6,16.8l1.5-1.5l0,0c0,0,6.8,6.8,0,14.5l-1.5-1.4  c-0.6,7.7-6.8,8.8-8.7,8.9l1.2,1.3c-2.6,2.3-5.1,3.1-7.2,3.1v-9.3h-0.4c-5.3,0-9.6-4.3-9.6-9.6s4.3-9.6,9.6-9.6h0.4V3.4  c2.2,0,4.6,0.8,7.2,3.1L28.7,8c1.5,0,8.2,1,8.8,8.9l0,0L37.6,16.8z M32,22.3l5.2-5.1l0,0l-6.8,0.2c1,1.4,1.6,3.1,1.6,5l0,0V22.3z   M28.4,15.1V8.2l-4.6,4.9C25.5,13.3,27.1,14,28.4,15.1z M22.4,18.5c-2.3,0-4.2,1.9-4.2,4.2s1.9,4.2,4.2,4.2s4.2-1.9,4.2-4.2  S24.7,18.5,22.4,18.5z M28.4,30.2c-1.2,1-2.7,1.7-4.4,1.9l0,0l4.4,4.6v-6.6l0,0V30.2z M32,23.1c0,1.8-0.6,3.4-1.5,4.8l0,0l6.8,0.2  C37.3,28.1,32,23.1,32,23.1z" fill="#E20AB7" fill-rule="evenodd"/>
  <path d="M9.9,22.5c0,6,4.5,11,10.2,11.9v7.1c-9.7-0.9-17.3-9.1-17.3-19s7.7-18.1,17.3-19v7.1  C14.3,11.5,9.9,16.5,9.9,22.5z" fill="#E20AB7"/>
</svg>