<svg xmlns="http://www.w3.org/2000/svg" xmlns:xlink="http://www.w3.org/1999/xlink" version="1.2" viewBox="0 0 1024 1024" baseProfile="tiny-ps">
  <title>Luisaviaroma</title>
  <rect width="1024" height="1024"/>
  <path d="M635,518.1c0,0,16.1-10.8,16.1-20s-10-14.8-18.9-14.8h-16.1v72.9H596v-88.7h44.8  c13.9,0.1,25.5,10.7,26.9,24.4c0.8,10.9-4.4,21.4-13.4,27.4l20.1,36.8h-20.1L635,518V518.1z M922,521.7l-11.3-32.5l-11.6,32.5H922  L922,521.7z M899.8,467.4h20.1l34.1,88.7h-20.1l-6.8-20h-33.3l-7,20h-20.1L899.8,467.4L899.8,467.4L899.8,467.4z M762.6,467.4h27.5  l20.1,60.1l20.1-60.1h27.5v88.7h-16.1v-62.9l-22.9,62.9h-15.1l-22.3-62.3v62.3h-18.1l-0.8-88.7l0,0L762.6,467.4z M713,541.7  c17.7,0,24.3-14.8,24.3-29.6s-6.6-30.4-24.3-30.4s-24.1,14.8-24.1,30.4c0,15.6,7.4,29.6,24.9,29.6H713L713,541.7z M713,465.2  c23.8-0.4,43.5,18.5,44,42.3c0,1.5,0,3.1-0.2,4.6c1.6,24-16.6,44.9-40.7,46.5c-24.1,1.6-45-16.6-46.6-40.6c-0.1-2-0.1-3.9,0-5.9  c-2.1-23.7,15.4-44.6,39.2-46.7c1.7-0.1,3.5-0.2,5.2-0.1h-0.8L713,465.2z M558.5,521.7l-11.3-32.5l-11.6,32.5H558.5L558.5,521.7  L558.5,521.7z M537.2,467.4h20.1l34.1,88.7h-20.1l-6.8-20h-33.3l-7,20h-20.1L537.2,467.4L537.2,467.4z M477,467.4h20.1v88.7H477  V467.4L477,467.4z M442.4,556.1h-22.5L391,467.4h20.1l20.1,62.3l20.1-62.3h20.1l-28.9,88.7l0,0H442.4z M379.7,521.6l-11-32.5  l-11.5,32.5H379.7z M359.4,467.3h20.1l33.1,88.7h-20.1l-6.6-20h-33.6l-6.8,20h-20.1l33.9-88.7l0,0H359.4z M270.1,527.4  c0,11.6,9.2,16.2,20.1,16.2c6.8,0,17.5-1.8,17.5-11s-13.4-11-26.5-14.6s-26.5-8.8-26.5-25.2S272,466,288,466s35.5,8.2,35.5,28.6  h-18.9c0-10.6-8.2-13.4-17.7-13.4s-13.4,2.6-13.4,10s4.2,7.8,26.5,13.4c6.6,1.6,26.5,5.8,26.5,25.8c0,20-12.7,28.4-37,28.4  s-38.4-9.6-38-31.5H270L270.1,527.4z M225.1,467.3h20.1V556h-20.1V467.3z M213.2,522.4c1.7,18.2-11.8,34.2-30,35.9  c-2.6,0.2-5.3,0.1-7.9-0.2c-24.1,0-38-11.4-38-35.7v-55.1h20.1v55.1c0,9.6,2.4,20,18.3,20s18.5-6,18.5-20v-55.1h20.1l-1,55.1l0,0  H213.2z M70,467.3h20.1v72.3h43.4V556H70V467.3z" fill="#FFFFFF"/>
</svg>