<svg xmlns="http://www.w3.org/2000/svg" xmlns:xlink="http://www.w3.org/1999/xlink" version="1.2" viewBox="0 0 216 216" baseProfile="tiny-ps">
  <title>VUHL_House</title>
  <g>
    <g id="Layer_2_00000117645328712206374950000010176971259413846673_">
      <g id="Layer_1-2">
        <g>
          <path d="M187.3,183.6h0.2l0.4,0.3v0.4c0.1,0,0.1,0.3,0.1,0.3l-0.2,0.2l-0.3,0.2h-0.4h-0.5v-1.4H187.3z       M186.4,187.2h0.1v-1.8h0.7l0.2,0.2l0.2,0.2v0.3c0.1,0,0.5,0.9,0.5,0.9l0,0l0,0h0.2h0.2h0.1l0,0v-0.2l0,0c0-0.1-0.4-1-0.4-1      v-0.3c-0.1,0-0.2-0.2-0.2-0.2l-0.2-0.2h-0.2c0-0.1,0.3-0.3,0.3-0.3l0.3-0.2l0.2-0.3v-0.4v-0.4l-0.2-0.3l-0.3-0.2h-0.4      c0-0.1-1.3-0.1-1.3-0.1h-0.1v0.2v3.7l0,0l0,0h0.1h0.1l0,0l0,0L186.4,187.2z" fill="#0B1A3F"/>
          <path d="M187.2,182c-1.7,0-3.1,1.4-3.1,3.1s1.4,3.1,3.1,3.1s3.1-1.4,3.1-3.1S188.9,182,187.2,182       M187.2,189c-2.1,0-3.8-1.7-3.8-3.8s1.7-3.8,3.8-3.8s3.8,1.7,3.8,3.8S189.3,189,187.2,189" fill="#0B1A3F"/>
        </g>
        <g>
          <path d="M36,135v18c36-8.9,54.1-4.4,72,0.1c18.1,4.5,36,9.1,72,0V135c-36.1,9.3-54.2,4.7-72.2,0.1      c-17.9-4.6-35.9-9.1-71.7-0.1" fill="#DF2E26"/>
          <path d="M36,171v18h144v-18c-36,9-54,4.5-72,0S72,162,36,171" fill="#DF2E26"/>
          <path d="M157.1,99l-10.8-7.8l-10.7,7.9l4.5-12.4l-9.5-7.4h11.9l3.8-11.8l3.9,11.8H162l-9.4,7.3l4.6,12.4      l0,0l0,0H157.1z M118.8,99L108,91.2l-10.7,7.9l4.5-12.4l-9.5-7.4h11.9l3.8-11.8l3.9,11.8h11.8l-9.4,7.3l4.6,12.4l0,0H118.8z       M80.4,99l-10.8-7.8l-10.7,7.9l4.5-12.4l-9.5-7.4h11.9l3.8-11.8l3.9,11.8h11.8l-9.4,7.4l4.6,12.4l0,0l0,0L80.4,99z M179.9,75      V49.5h-18V63l-54-36L0,99h36v18c35.8-9,53.8-4.5,71.9,0c18.1,4.6,36.1,9.1,72.1,0V98.9h36l-36-24l0,0l0,0L179.9,75z" fill="#0B1A3F"/>
        </g>
      </g>
    </g>
  </g>
</svg>