<?xml version="1.0" encoding="UTF-8" standalone="yes"?>
<svg version="1.2" viewBox="0 0 500 500" xml:space="preserve" baseProfile="tiny-ps" xmlns="http://www.w3.org/2000/svg">
  <title>bimi-svg-tiny-12-ps</title>
  <circle class="st0" cx="250.4" cy="250.2" r="249.6" fill="#FFFFFF"/>
  <path d="M261.1,226.1v48.5h-36.4c-6.7,0-12.1,5.4-12.1,12c0,0,0,0,0,0V323h-36.4c-6.7,0-12.1,5.4-12.1,12.1v36.4h-48.5V323h36.4&#xA;&#x9;c6.7,0,12.1-5.4,12.1-12c0,0,0,0,0,0v-36.4h36.4c6.7,0,12.1-5.4,12.1-12.1v-24.4c0-6.7-5.4-12.1-12.1-12.1h-36.4v-36.4&#xA;&#x9;c0-6.7-5.4-12.1-12.1-12.1c0,0,0,0,0,0h-36.4v-48.5h48.5v36.4c0,6.7,5.4,12.1,12.1,12.1h36.4V214c0,6.7,5.4,12.1,12.1,12.1&#xA;&#x9;c0,0,0,0,0,0H261.1z"/>
  <path d="M406.5,226.1v48.5h-36.4c-6.7,0-12.1,5.4-12.1,12.1V323h-36.4c-6.7,0-12.1,5.4-12.1,12c0,0,0,0,0,0v36.4h-48.5V323h36.4&#xA;&#x9;c6.7,0,12.1-5.4,12.1-12.1v-36.4H346c6.7,0,12.1-5.4,12.1-12.1v-24.4c0-6.7-5.4-12.1-12.1-12.1h-36.4v-36.4&#xA;&#x9;c0-6.7-5.4-12.1-12.1-12.1h-36.4v-48.5h48.5v36.4c0,6.7,5.4,12.1,12.1,12.1c0,0,0,0,0,0H358V214c0,6.7,5.4,12.1,12.1,12.1H406.5z"/>
</svg>