<?xml version="1.0" encoding="UTF-8" standalone="yes"?><svg xmlns="http://www.w3.org/2000/svg" baseProfile="tiny-ps" version="1.2" viewBox="0 0 2500 2500"><title>Postmates Inc.</title><!-- Generator: Adobe Illustrator 28.6.0, SVG Export Plug-In . SVG Version: 1.2.0 Build 709)  --><g><g id="Layer_2"><g id="Layer_1"><g><rect width="2500" height="2500"></rect><path d="M1798.1,1080.7c-27.1-20.1-54-40-81.7-60.7-1.7,11.6-3.2,21.9-4.6,32.2-5.3,38.7-10.6,77.5-15.9,116.2-5.6,40.9-11,81.9-16.6,122.8-3.6,26.2-7.3,52.5-10.7,78.7-.4,2.7,0,5.9,1,8.4,6.7,16.4,13.8,32.7,20.5,49.1,2,5,5.4,7.3,10.3,7.9,5.5.6,11.1,1.3,16.7,1.2,14.6-.2,29.2-1.2,43.8-1,9.9,0,19.9,1.3,29.7,3,8.4,1.4,13.7,6.9,15.9,15.3,2.2,8.2.5,14.5-6.6,19.1-5.6,3.7-11.8,6.8-18.2,8.9-20.3,6.6-40.8,12.7-61.2,18.9-13.2,4-26.5,8-40,12.1,0,1.6,0,3,0,4.4,6,49.9-43.1,86.7-89.4,66.8-4.4-1.9-7.6-1.7-11.3,1.1-4.6,3.5-9.7,6.4-14.8,9.7,48.5,98.1,48.5,195.2-8.2,289.4-41.6,69.2-103.5,112.5-182.4,130.1-154.8,34.5-311.6-63.9-343.8-224-11.4-56.5-5.9-111.8,15.8-165.2,21.7-53.5,56.7-96.6,104.4-129.1,47.7-32.5,100.5-49,159-49.7.6-5.1,1.2-9.8,1.6-14.5,2.7-29,5.4-58.1,8.2-87.1.4-4.2-.9-6.6-4.3-9-32.6-22.9-65.2-45.9-97.7-68.9-1-.7-2-1.3-3.6-2.3-3.1,3-6.4,5.7-9.2,9-9.9,11.4-22.8,16.9-37.1,20.3-21.2,4.9-42.8,6.1-64.4,6.8-3.6,0-6.1-1.1-7.9-4.1-.2-.4-.6-.8-.9-1.2-7.3-10.1-7.2-15.8,2-24.1,12.5-11.2,25.5-21.8,38.5-32.4,9.6-7.8,19.7-15.1,29.5-22.6,1.9-1.5,3.8-3,5.9-4.7-2.1-3-4.1-5.7-6-8.5-11-16.2-16.8-34.4-20.1-53.5-5.4-31.2-4.8-62.5-.6-93.7,3-22.3,7.3-44.5,11-67.2-.7.2-2,.2-3.1.8-27.6,14.7-57.6,21.8-88.2,26.8-41.7,6.8-83.7,8.6-125.8,7-33.6-1.2-67-4.3-99.6-12.8-4.4-1.1-8.6-2.7-12.8-4.4,36-7.3,68.4-23.4,100.5-40,75.9-39.2,147.8-85.1,218.3-133.3,52.4-35.8,103.6-73.3,152.7-113.6,11.8-9.7,23.4-19.7,35.1-29.7.3-.3.3-.9.7-1.9-1.5-.8-3.1-1.7-4.8-2.4-25.4-10.6-43.8-28.4-54.8-53.7-8.4-19.3-14.8-39-15.2-60.4-.6-26.4,8.5-48.7,28.5-65.9,21.3-18.3,45.9-29.9,74-33.1,12.5-1.4,24.3,1.5,34.7,8.6,8.9,6.2,17.4,13,27,20.2,26.4-4.1,54-9.2,82.7-10.7-1.2,5.1-4.2,7.8-7,10.2-14.8,12.6-29.7,25.1-44.6,37.6-2,1.7-4.1,3.3-6.4,5.1,3.1,7.3,6.3,14.4,9.1,21.6,5.5,14.1,9.7,28.5,11.1,43.6,2.4,26.3-8.9,46.2-28.9,61.8-12.8,9.9-27,17.2-43,20.9-1.1.3-2.2.8-3.6,1.3.7,5.3,3.7,8.8,7.5,11.4,4.8,3.3,9.8,6.5,15,9,13.8,6.8,24,17.1,31.3,30.6,7.7,14.3,15.6,28.6,23.8,42.7,6.7,11.6,14.7,22.4,24.9,31.2,17.2,15,37.1,22,59.9,19.1,20.7-2.6,41.3-6.1,62-8.9,26.8-3.6,53.7-5.7,80.7-3.9,7.5.5,12.6-1.5,18.1-6.4,57.8-52.1,115.8-103.9,173.8-155.9,1.8-1.6,3.6-3.1,6.2-5.2,17.2,33.5,34.1,66.4,51.5,100.2-60.7,52.9-121.3,105.6-182.9,159.2,4.4,1.4,8,1.3,11.4,1.9,10.3,1.8,20.5,3.6,30.7,5.9,3.2.7,6.3,2.6,9,4.6,4.1,3.1,5,7.3,2,11.5-2.6,3.7-5.9,7.1-9.5,9.9-12.5,9.5-26.6,16-40.9,22.2-7.5,3.3-15.1,6.3-24.1,10.1,28.3,22.5,55.8,44.1,83.5,65.8,62.5-63.5,137.6-94.7,226.2-89.9,73.6,4,137,33,188.9,85.5,106.9,108,108.5,278.2,11.9,389.7-97.7,112.6-265.8,131.5-386.6,43.6-122.9-89.4-156.6-261.5-67.2-395.4h-.3ZM1845.3,1115.9c-60,84.4-57.4,220.8,42.4,304.2,98.3,82.1,245.2,67.8,325.4-31.3,81.1-100.2,64.7-246-37.3-325.6-100.3-78.2-233.7-55.9-304.1,20.5,1.8,1.5,3.6,3.1,5.4,4.6,57.3,45.1,114.6,90.3,171.8,135.4,1.5,1.2,3.1,2.4,4.3,3.9,4.8,5.8,5.8,12.2,2.6,19-3,6.4-9.3,9.8-16.7,9.5-4.9-.2-8.6-2.8-12.4-5.6-58.3-43.3-116.7-86.7-175-130-2.1-1.6-4.2-3.1-6.4-4.6h0ZM1515.1,1626.8c-2,1.2-4.1,2.4-6.1,3.7-29,18.7-58,37.4-87,56.1-35.3,22.8-70.7,45.6-105.9,68.4-7.6,4.9-15.3,6.2-23.3,1.5s-10.6-12.2-9.8-21.2c1.5-16.2,3-32.4,4.6-48.6,2.7-29,5.5-58,8.2-87.1,2.3-24.2,4.6-48.4,6.8-72.6.7-7.4,1.3-14.9,2-23.1-38.1,1.2-73,11.1-105.3,29.6-47,27-80.8,65.7-100.5,116.3-39.6,101.8-2.4,217.1,88.5,275.6,92.5,59.5,212.6,46.5,289-31.4,77.3-78.8,80.8-192.7,38.8-267.2h0ZM1314,1090.7c2.6,0,3.9.2,5,0,16.3-2.5,32.6-5.3,49-7.6,31.3-4.6,62.7-7.6,94.4-7,22,.4,43.8,2,64.7,9.3,10.2,3.5,19.9,8.6,30.7,13.3,38-36.2,76.7-73,115.8-110.2-6-4.5-11.4-8.2-16.4-12.4-3.8-3.2-7.2-3.5-11.9-1.7-32.7,12.6-66.4,21.9-100.4,30.1-3.1.8-6.9.7-9.9-.3-32.7-11.9-64.8-25.2-94.7-43.1-16.5-9.9-32.6-20.3-41.8-39-.8,1.9-1.3,3-1.6,4.1-6.1,23.4-15.7,45.5-27.4,66.5-12.5,22.5-25.7,44.6-38.5,67-5.6,9.9-10.9,20-17,31.2v-.2ZM1327.3,1697.6l1.7.8c54.6-35.3,109.2-70.5,163.8-105.8-21.5-38.5-108-88.6-147.8-85.4-5.9,63.4-11.8,126.8-17.7,190.3h0ZM1671.4,1048.7l-1.5-.8c-1.8,1.5-3.6,3-5.3,4.6-12,11.4-24,22.8-35.9,34.2-14.4,13.7-28.9,27.5-43.3,41.2-2.3,2.2-4.7,4-3.6,8,3.9,14,3.6,28.3,3.1,42.7,0,2.8.4,5.9,1.5,8.4,15.7,36.4,31.5,72.6,47.3,108.9.6,1.4,1.6,2.7,3.3,5.3,11.6-85.2,23-168.9,34.5-252.5h0ZM1549.9,1311c-1.8,2.9-2.7,4.3-3.5,5.8-6.6,13-13.4,25.9-19.7,39-7.1,14.9-13.8,30-20.3,45.2-2.8,6.4-2.5,7.3,2.9,11.8,4.7,3.9,9.6,7.5,14.5,11,20.9,15,44.4,26.2,62.8,43.2,9.8-2.7,18.9-5.1,28.5-7.8,1.5-10.1,3.1-20.7,4.4-31.2.2-1.8-.6-3.8-1.4-5.5-15.6-29.7-31-59.5-50.1-87.2-5.5-8-11.5-15.5-18.2-24.3h0ZM1423.5,1411.6c-21.4-15.1-42.7-30.1-65-45.9-2.7,28.5-5.6,55.4-7.5,82.5,79.2,12.3,142.7,49.7,191.8,112.3,5.3-3.5,10-6.7,15.1-10.2-6.3-15.2-6.6-30.2-2.3-45.6-1.9-.9-3.4-1.7-5-2.3-21.8-8.4-43.5-16.7-65.3-25.1-15.2-5.8-30.5-11.4-45.5-17.6-15.9-6.6-21.2-16.3-18.8-33.4.7-4.8,1.6-9.5,2.5-14.8h0ZM1337.4,1308.6c32.2-30.8,63.9-61.1,95.5-91.4-32.3,3.1-63.9,7.8-95.5,11.7-31.6,3.9-63.2,7.1-94.8,10.7,0,.5,0,1-.2,1.5,31.4,22.3,62.9,44.7,95,67.5h0ZM1490,1221.1c-.5-.3-1-.6-1.5-.8-39,37.1-78,74.2-117.5,111.8,21.8,15.4,42.7,30.2,64.3,45.4,20.5-51.9,39.6-103.5,54.6-156.4h0ZM1643.9,884.9c-6.4.8-11.9,1.6-17.4,2.3-31.1,3.9-62.3,6.2-93.7,4.2-7.3-.5-14.5-.4-21.1-4.3-.2,0-.8.3-1.7.6.6,1.3.9,2.7,1.8,3.7,12.6,13.8,27,25.1,44.2,32.5,5,2.1,10.1,2.3,15.7,1.6,17.8-2.5,35.6-4.6,53.4-6.7,10.6-1.2,21.2-1.9,32.6-2.9-4.8-10.6-9.2-20.5-13.9-30.9h0Z" fill="#fff"></path><path d="M716.7,1187.8c18.9,33.6,37.1,65.8,55.5,98.5,37-7.2,73.7-14.3,110.3-21.5.2.3.5.7.7,1-25.2,27.4-50.5,54.9-76.2,82.8,18.3,32.6,36.5,65.1,54.8,97.6-.3.4-.6.7-.9,1.1-33.8-15.7-67.6-31.4-102.1-47.4-25.3,27.4-50.6,54.9-75.9,82.3-.5-.2-.9-.4-1.4-.6,4.3-36.7,8.5-73.5,12.9-111.1-33.9-15.6-67.7-31.2-101.6-46.8v-1.5c3.4-.7,6.9-1.5,10.3-2.2,31.2-6.3,62.4-12.5,93.6-18.8,6.1-1.2,6-1.3,6.7-7.3,3.9-33.5,7.8-67.1,11.8-100.6.2-1.4.7-2.7,1.5-5.6h0Z" fill="#fff"></path><path d="M631.4,1964.7c4.2-36.6,8.5-73.2,12.8-110.8-34-15.7-67.8-31.2-101.7-46.8v-1.4c36.4-7.3,72.9-14.6,110-22.1,4.4-37.1,8.7-73.9,13-110.6.7,0,.9-.2,1.2,0,.2,0,.5,0,.6.3,18.1,31.9,36.1,63.8,54.7,96.6,36.7-7.3,73.4-14.6,110.2-22,.2.3.5.7.7,1-25.3,27.5-50.6,54.9-76.2,82.7,18.3,32.7,36.5,65,54.6,97.4-.3.4-.6.8-.9,1.2-34-15-67.5-31.2-101.8-46.4-25.3,27.5-50.3,54.6-75.3,81.7-.6-.2-1.2-.4-1.8-.5v-.2Z" fill="#fff"></path><path d="M276.1,1610.4c4.4-37.4,8.7-74.2,13.1-110.9.5,0,1-.3,1.5-.4,18.1,32.2,36.3,64.5,54.8,97.4,36.7-7.3,73.3-14.5,109.8-21.8.2.4.5.8.7,1.2-25.1,27.2-50.2,54.5-75.9,82.3,18.3,32.6,36.5,65.1,54.8,97.6-34.6-14-68.2-29.9-102.8-45.5-25.1,27.3-50.3,54.5-75.4,81.7-.5-.2-1-.3-1.4-.5,1.1-18.4,4.1-36.6,6-55,2-18.5,4.3-37.1,6.5-55.9-34.3-15.8-68-31.2-101.7-46.7v-1.4c36.4-7.3,72.7-14.6,110-22.1h0Z" fill="#fff"></path><path d="M1606.5,798c2.6-2.3,4.8-4.3,7.2-6.3,46.7-39.7,93.3-79.4,140-119,12.6-10.7,25.2-21.4,37.7-32.2,2.5-2.1,4.9-3.7,8.4-3.3,22.5,2.4,45,4.6,67.4,6.8.7,0,1.4.4,2.7.8-1.2,1.4-2,2.7-3.1,3.7-54.8,49.2-109.7,98.3-164.5,147.5-2.3,2-4.5,3.3-7.7,3.1-28.7-1.4-57.3-1.9-86-.4-.4,0-.8-.3-2.1-.8h0Z" fill="#fff"></path></g></g></g></g></svg>