<?xml version="1.0" encoding="iso-8859-1" standalone="yes"?><!-- Generator: Adobe Illustrator 28.0.0, SVG Export Plug-In . SVG Version: 6.00 Build 0)  --><svg xmlns="http://www.w3.org/2000/svg" xmlns:xlink="http://www.w3.org/1999/xlink" version="1.2" baseProfile="tiny-ps" viewBox="0 0 56 56" xml:space="preserve"><title>stickytickets</title><path id="layer_1" fill="#181718" d="M49.508,28.977c-0.067,0-0.124,0.027-0.188,0.038c-0.071-0.099-0.137-0.204-0.203-0.316  c-0.098-0.163-0.206-0.321-0.32-0.473c-0.858-1.148-2.036-1.45-3.348-0.866c-0.901,0.401-1.678,0.995-2.259,1.766  c-0.432,0.573-0.832,0.7-1.423,0.352c-0.02-0.012-0.045-0.017-0.068-0.022c-0.172-0.037-0.232-0.129-0.184-0.309  c0.322-1.2,0.691-2.375,1.48-3.374c0.651-0.825,1.487-1.17,2.516-1.005c0.372,0.06,0.73,0.207,1.093,0.318  c0.092,0.028,0.157,0.075,0.219,0.127c-0.004,0.04-0.023,0.074-0.023,0.115c0,0.612,0.496,1.109,1.109,1.109  s1.109-0.496,1.109-1.109s-0.496-1.109-1.109-1.109c-0.307,0-0.585,0.125-0.785,0.327c-0.099-0.028-0.198-0.065-0.299-0.115  c-0.158-0.08-0.332-0.131-0.502-0.185c-1.476-0.472-2.749-0.138-3.81,0.983c-0.87,0.919-1.301,2.063-1.623,3.257  c-0.064,0.237-0.116,0.476-0.173,0.712c-2.404-0.126-4.229,0.828-5.608,2.771c0-0.323-0.064-0.662,0.012-0.967  c0.243-0.979,0.53-1.948,0.812-2.917c0.777-2.672,1.217-5.38,0.968-8.177c-0.398-4.476-3.206-8.023-7.485-9.375  c-1.512-0.478-3.035-0.576-4.551,0.02c-0.12,0.047-0.279,0.028-0.413,0.002c-1.129-0.218-2.265-0.332-3.408-0.152  c-1.517,0.239-2.737,0.893-3.265,2.454c-0.226,0.668-0.25,1.353-0.163,2.047c0.157,1.255,0.581,2.43,1.12,3.561  c1.169,2.454,2.795,4.589,4.677,6.537c0.1,0.104,0.197,0.211,0.354,0.38c-0.212-0.011-0.317-0.015-0.423-0.021  c-2.53-0.148-4.94,0.271-7.164,1.535c-2.377,1.351-4.16,3.23-5.137,5.822c-0.042,0.11-0.209,0.215-0.335,0.244  c-1.137,0.259-2.279,0.499-3.418,0.748c-0.587,0.128-1.172,0.264-1.853,0.419c0.26,0.113,0.421,0.186,0.585,0.253  c1.576,0.644,3.154,1.281,4.724,1.937c0.151,0.063,0.319,0.223,0.368,0.374c1.301,4.005,4.077,6.294,8.183,7.01  c2.57,0.448,5.128,0.209,7.669-0.262c3.497-0.648,6.649-2.057,9.412-4.312c0.075-0.061,0.252-0.087,0.332-0.042  c1.67,0.94,3.477,1.419,5.371,1.582c1.047,0.09,2.096,0.087,3.111-0.26c0.839-0.287,1.383-0.841,1.465-1.749  c0.036-0.399,0.033-0.815-0.035-1.209c-0.191-1.114-0.424-2.22-0.643-3.329c-0.319-1.618-1.158-2.901-2.494-3.863  c-0.063-0.045-0.115-0.105-0.188-0.172c0.763-0.856,1.498-1.705,2.565-2.156c0.829-0.351,1.604-0.178,2.16,0.496  c0.246,0.298,0.445,0.639,0.634,0.977c-0.152,0.19-0.256,0.42-0.256,0.681c0,0.612,0.496,1.109,1.109,1.109  c0.612,0,1.109-0.496,1.109-1.109C50.617,29.474,50.12,28.977,49.508,28.977z M20.075,18.443c-0.588-1.138-1.053-2.325-1.172-3.612  c-0.04-0.433-0.023-0.885,0.059-1.311c0.16-0.833,0.638-1.449,1.433-1.791c0.998-0.43,2.031-0.415,3.141-0.258  c-0.981,1.314-0.964,2.751-0.847,4.201c0.31,3.858,1.918,7.179,4.24,10.204c0.035,0.045,0.07,0.091,0.158,0.206  c-0.521-0.171-0.969-0.241-1.355-0.573C23.405,23.503,21.487,21.176,20.075,18.443z M32.025,40.736  c-1.264,0.487-2.55,0.918-3.826,1.375c-0.291,0.104-0.424-0.004-0.447-0.331c-1.078-3.689-1.194-4.99-1.2-5.493  c-0.021-1.735,0.284-3.411,0.779-5.063c0.157-0.525,0.148-0.532-0.413-0.529c-0.744,0.004-0.747,0.003-1.012,0.714  c-0.46,1.239-0.647,2.531-0.756,3.84c-0.196,2.343,0.383,4.559,1.101,6.753c0.044,0.133,0.087,0.266,0.155,0.472  c-0.657,0.091-1.273,0.225-1.894,0.253c-1.162,0.051-2.328,0.051-3.492,0.046c-0.328-0.001-0.328-0.041-0.437-0.459  c-0.978-2.221-1.577-5.192-1.654-5.586c-0.334-1.701-0.217-3.389,0.045-5.081c0.103-0.667,0.093-0.669-0.576-0.67  c-0.554-0.001-0.562-0.003-0.679,0.549c-0.278,1.305-0.265,2.625-0.161,3.946c0.183,2.322,0.758,4.549,1.631,6.703  c0.035,0.085,0.058,0.175,0.111,0.337c-1.129-0.179-2.137-0.509-3.112-1.091c-2.664-2.076-3.105-3.5-3.636-5.151  c-0.204-0.254-0.282-0.65-0.318-0.992c-0.232-2.209,0.608-4.026,2.107-5.588c0.856-0.892,1.825-1.644,2.913-2.226  c0.357-0.191,0.779-0.293,1.184-0.355c0.406-0.063,0.568,0.179,0.452,0.575c-0.033,0.114-0.085,0.222-0.129,0.333  c-0.042,0.107-0.085,0.214-0.154,0.389c0.517-0.148,0.969-0.272,1.417-0.411c0.069-0.021,0.14-0.099,0.173-0.168  c0.452-0.953,1.311-1.224,2.255-1.333c1.297-0.15,2.568-0.011,3.802,0.419c0.235,0.082,0.464,0.19,0.678,0.316  c0.519,0.304,0.615,0.594,0.415,1.168c-0.038,0.11-0.078,0.219-0.125,0.35c0.337,0.167,0.65,0.334,0.976,0.473  c0.067,0.029,0.204-0.023,0.269-0.082c0.407-0.372,0.884-0.459,1.36-0.236c0.763,0.358,1.531,0.725,2.232,1.187  c0.73,0.482,0.744,1.286,0.642,2.065c-0.116,0.884-0.293,1.761-0.403,2.645c-0.166,1.341,0.119,2.628,0.548,3.889  c0.145,0.426,0.329,0.839,0.514,1.307C32.915,40.246,32.495,40.555,32.025,40.736z M33.942,29.47  c-0.077,0.229-0.197,0.28-0.43,0.214c-1.254-0.354-2.354-0.995-3.296-1.872c-3.308-3.081-5.398-6.858-6.309-11.282  c-0.191-0.926-0.209-1.869-0.044-2.805c0.288-1.638,1.447-2.604,3.098-2.476c3.705,0.288,7.798,2.718,8.631,7.711  c0.131,0.784,0.188,1.58,0.28,2.37c-0.061,1.957-0.53,3.825-1.091,5.673C34.529,27.835,34.218,28.647,33.942,29.47z M43.476,32.057  c-0.006,0.611-0.516,1.113-1.122,1.104c-0.601-0.008-1.114-0.531-1.106-1.127c0.008-0.605,0.522-1.106,1.129-1.1  C42.993,30.94,43.483,31.44,43.476,32.057z"></path><path id="layer_2" fill="#F8CF5F" d="M26.551,36.286c-0.021-1.735,0.284-3.411,0.779-5.063c0.157-0.525,0.148-0.532-0.413-0.529  c-0.744,0.004-0.747,0.003-1.012,0.714c-0.46,1.239-0.647,2.532-0.756,3.841c-0.196,2.343,0.383,4.559,1.101,6.753  c0.044,0.133,0.087,0.266,0.155,0.472c-0.657,0.091-1.273,0.225-1.894,0.252c-1.163,0.051-2.328,0.051-3.492,0.046  c-0.328-0.001-0.328-0.041-0.437-0.458c-0.978-2.221-1.577-5.192-1.654-5.586c-0.334-1.701-0.217-3.389,0.045-5.08  c0.103-0.667,0.093-0.669-0.576-0.67c-0.554-0.001-0.562-0.003-0.679,0.549c-0.278,1.306-0.265,2.624-0.161,3.946  c0.183,2.322,0.758,4.549,1.631,6.703c0.035,0.085,0.058,0.175,0.111,0.337c-1.129-0.179-2.137-0.509-3.112-1.091  c-2.664-2.076-3.105-3.5-3.636-5.151c-0.204-0.254-0.282-0.65-0.318-0.991c-0.232-2.209,0.608-4.026,2.107-5.588  c0.856-0.892,1.825-1.644,2.913-2.226c0.357-0.191,0.779-0.293,1.184-0.355c0.406-0.063,0.568,0.179,0.452,0.575  c-0.033,0.114-0.085,0.222-0.129,0.333c-0.042,0.107-0.085,0.214-0.155,0.389c0.517-0.148,0.969-0.273,1.417-0.411  c0.069-0.021,0.14-0.099,0.173-0.168c0.452-0.953,1.311-1.224,2.255-1.333c1.297-0.15,2.568-0.011,3.802,0.419  c0.235,0.082,0.464,0.19,0.678,0.316c0.519,0.303,0.615,0.594,0.415,1.168c-0.038,0.11-0.078,0.219-0.125,0.35  c0.337,0.167,0.65,0.334,0.976,0.473c0.068,0.029,0.204-0.023,0.269-0.082c0.407-0.372,0.884-0.459,1.36-0.236  c0.763,0.358,1.531,0.725,2.232,1.187c0.731,0.482,0.744,1.286,0.642,2.065c-0.116,0.884-0.293,1.761-0.403,2.646  c-0.166,1.341,0.119,2.628,0.548,3.889c0.145,0.426,0.329,0.839,0.514,1.307c-0.441,0.25-0.862,0.558-1.332,0.74  c-1.264,0.487-2.55,0.918-3.826,1.375c-0.291,0.104-0.424-0.004-0.447-0.331C26.674,38.091,26.557,36.79,26.551,36.286z"></path><path id="layer_3" fill="#A0BECA" d="M35.872,21.331c-0.061,1.957-0.53,3.825-1.091,5.673c-0.252,0.83-0.563,1.643-0.839,2.466  c-0.077,0.229-0.197,0.28-0.43,0.214c-1.254-0.354-2.354-0.995-3.296-1.872c-3.308-3.081-5.398-6.858-6.309-11.282  c-0.191-0.926-0.209-1.869-0.044-2.805c0.288-1.638,1.447-2.604,3.098-2.476c3.705,0.288,7.798,2.718,8.631,7.711  C35.723,19.745,35.78,20.541,35.872,21.331z"></path><path id="layer_4" fill="#A0BECA" d="M23.536,11.471c-0.981,1.314-0.964,2.751-0.847,4.201c0.31,3.858,1.918,7.179,4.24,10.203  c0.035,0.045,0.07,0.091,0.158,0.206c-0.522-0.171-0.97-0.241-1.355-0.573c-2.326-2.006-4.245-4.333-5.656-7.066  c-0.588-1.138-1.053-2.325-1.172-3.612c-0.04-0.433-0.023-0.885,0.059-1.311c0.16-0.833,0.638-1.449,1.433-1.791  C21.393,11.299,22.426,11.314,23.536,11.471z"></path><path id="layer_5" fill="#F9FAE9" d="M14.65,30.499c0,0,6.646-7.243,17.136,0.655C25.905,31.724,23.865,26.009,14.65,30.499z"></path><path id="layer_6" fill="#D8E5EC" d="M35.592,18.961c-0.833-4.994-4.926-7.423-8.631-7.711c-0.444-0.034-0.849,0.016-1.215,0.132  c0.08,0.001,0.156-0.007,0.238-0.001c3.705,0.288,7.798,2.718,8.631,7.711c0.131,0.784,0.188,1.58,0.28,2.37  c-0.061,1.957-0.53,3.825-1.091,5.673c-0.242,0.798-0.539,1.579-0.807,2.37c0.171,0.061,0.337,0.13,0.514,0.18  c0.232,0.066,0.353,0.015,0.43-0.214c0.276-0.823,0.587-1.636,0.839-2.466c0.561-1.848,1.029-3.716,1.091-5.673  C35.78,20.541,35.723,19.745,35.592,18.961z"></path><path id="layer_7" fill="#F79324" d="M26.674,36.829c0,0,0.24,3.844,1.141,4.955c0,0,4.174-0.931,5.135-2.042  c0,0-0.991-2.613-0.991-3.153C31.959,36.589,28.385,38.961,26.674,36.829z"></path><path id="layer_8" fill="#F79324" d="M19.1,37.25c0,0,0.931,4.654,1.501,5.045s5.285-0.18,5.285-0.18s-1.171-4.144-1.111-4.654  C23.664,38.241,20.661,38.601,19.1,37.25z"></path><path id="layer_9" fill="#F79324" d="M12.553,36.123c0,0,0.852,5.434,6.256,5.992c-1.087-2.224-1.498-5.14-1.498-5.14  S14.874,38.678,12.553,36.123z"></path></svg>