<?xml version="1.0" encoding="UTF-8"?>
<svg id="Layer_1" xmlns="http://www.w3.org/2000/svg" baseProfile="tiny-ps" version="1.2" viewBox="0 0 360 360">
  <!-- Generator: Adobe Illustrator 29.1.0, SVG Export Plug-In . SVG Version: 2.1.0 Build 142)  -->
  <title>The Show Producers</title>
  <rect x="-2" y="-1.1" width="362" height="362"/>
  <path d="M193,47.1c4.2,1.8,8.6,4.6,9.8,9.3.3,1.2.3,2.9-.1,3.8-1.5,3.8-5.6,5.6-9.1,7.5.7,5.2.7,11,4.5,13.1,1.2-1,4.4-3.5,5.2-.7,5.3-.5,10.9,1.2,14.3,3.5,2.6,1.8,3.5,3.5,3.9,7.6.7,6.4,5,10.9,7.9,15.2,3,4.5,6.3,10.1,6.1,17,0,1.5-.8,2.6-1.1,4.2-.4,4.2-1.9,6.3-4.1,8.7-.3.4-1,.5-1.2,1-.7.8-1,1.4-1.9,2.2-3.1,2.7-5.9,6.7-8.7,9.9-2.9,3.4-6.1,6.3-9.1,9.4,2.9,5.9,5.2,12.1,6.9,19.2,1.8,7.1,2.2,15,2.9,23.3,1.5,15.9,4.1,30.9,5.4,46.8h-1.6c2.6,6.9,5.3,14.8,5.9,24.4.7,9.3.4,19.7,1.5,28.7.3,2,.7,3.8.7,5.7v.5c0,.5,0,1.1-.1,1.5-.3.4-1,.3-1.5.1h-.5c1,2.9,1.1,5.7,1.5,8.7,0,.5.4,1,.3,1.5,0,.5-.5.7-.8,1.1-.4.8-.1,1.5-.7,2-1,1.1-2,0-3.7.3-1.2.1-3,3.3-4.1,4.5-2.5,2.7-8.6,3.7-13.7,3.1-1.6-.1-3.5-.3-5.3-.5h-.5c-1.9,0-2.5-1.6-1.9-3.3v-.5c.3-1.8.5-3.5,1.1-4.9,1-2.3,3.3-4.5,4.9-5.9,2.5-2,4.1-4.9,7.5-5.9.3-.5.5-1,.8-1.6-.4-.1-.8-.3-1.2-.4h-.4c-1.2,0-.8-1.1-.7-1.9v-.3c.8-11.6-1.2-24.2-4.4-33.3-3-8.7-4.4-18.2-9.1-25-3.9-.5-7.6-1.2-11.3-1.8,1,9,2,20.1.5,29.3-1.4,8.6-3,18.2-3.8,27.4,1,2-.4,4.4-.4,6.1s.4.7.3,1.1c0,.5-1,.7-1.4,1.2s-.7,1.2-1,1.5c-.8.8-2.3,1.1-3.8,1h-.7c-1.4-.3-2.7-1-3-2.3h-.3c-11-2.3-20.4,5.3-31.2,2.2-1.9-.5-4.9-1.5-2.9-3.8-.7-2.6,2.2-3.1,3.8-3.8,1.5-.5,2.9-1,4.2-1.4,2.7-1,6.3-1.4,9.1-2.2,1.5-.5,2.6-1.4,3.8-2.2,0,0,.3-.1.4-.3.4-.3,1-.5,1.4-.8.7-.3.7.5.5,1,.7-.4,1.4-1,2.2-1.2.1,0,.3-.1.4-.3,0,0-.1-.3-.3-.4-.1-.4-.1-1,0-1.4,0-.1,0-.3.1-.4,0-.1,0-.3.1-.4,0-.1,0-.3.1-.4.3-.7.7-1.4,1-2,.3-1.1,0-2.2.3-3.4.1-2,1.1-4.2,1.2-6.3.3-3.1,0-6.1-.4-9.4-.3-3.1-.3-6.4-.4-9.5-.1-3-.8-6.1-1-9.1-.1-3.3.5-6.7.3-9.8-.3-1.9-.8-3.8-1.1-5.4-.7-3.7,0-7.6-.7-11.3-.7-3.4-.8-6.9-1.8-10.3-1.9-6.7-3.4-13.5-3.9-20.3-1-12.3.5-23.5,1.2-35.5,0-2,.5-3.9,1.1-5.9,0-.1,0-.4.1-.5.1-1,.5-1.9.7-3v-.5c0-.5.3-1.2.3-1.9-.3.3-.5.4-.8.7l-.3.3c-1.4,1.5-2.6,3.1-4.1,4.6l-.4.4c-2.6,2.7-5,5.9-7.5,8.6-3.3,3.8-6.8,7.1-9.7,11,0,.1-.3.3-.3.5-.4.4-.5,1.4-1.2.8-.1,0-.4-.1-.5-.3-.1,0-.4-.1-.5-.3-.1,1.6-1.4,2.7-1.6,4.5,0,1,.3,3,.3,4.4s.7,2.6,1.1,3.4,1.2,1.1,1,2c-.5,1.5-4.2.5-4.1-1.4-1.4.7-2.2,2.5-4.1,1.8-1-.4-4.6-2.9-4.9-3.9,0-.7,0-1.6.3-2.2.8-1.8,2.3-3.7,3.4-5.9,1-2.3,1.9-4.5,3-6.1-.4-.5-.4-1.2-.1-1.8,0-.1,0-.3.1-.4.5-1.4,1.2-2.7,2-3.8,0-.1.3-.3.3-.4,1.8-2.6,3.4-5.9,4.9-8.7,2.2-3.9,4.2-7.6,6.1-11.6.4-.7.8-1.5,1.2-2.5.4-.7,1.5-1.2,1.9-1.8,1.8-2.5,3.5-4.1,5.7-6.1,4.6-4.6,5.2-13.2,7.1-20.7.7-2.7,1.5-5.4,2-8,.1-1,1.2-1.4,1.5-2.2.4-1,.3-1.8.7-2.7,1.9-3.8,6.3-6.5,9.1-9.8,1.9-2,3.8-3.8,6.4-4.5-.5-3-1.4-5.7-2.5-8.2-4.1-.5-4.2-5-5.9-8-5-1.9-11.7-4.9-12.5-11-.5-4.8,2.7-7.9,5.4-9.8-1.2-4.1-4.5-7.6-3.4-12.7,1.2-5.7,9.1-8.6,15.7-9,7.2-.4,13.9,4.4,15.5,9.8.8,3-.5,5.9-.5,9.3l.8-1.5h.1ZM215.8,123.6c-.3-2.2-3.3-3.7-4.4-5.3-2,5.4-4.5,11.2-6.8,16.6-1.5,3.4-5.4,7.6-2,11.7,4.2-7.2,8.6-14.3,13.5-20.7-.7-.7-.1-1.5-.3-2.2h0Z" fill="#fff" fill-rule="evenodd"/>
  <rect x="134.4" y="191" width="2.3" height="106.3" fill="#fff"/>
</svg>