<?xml version="1.0" encoding="UTF-8"?>
<svg xmlns="http://www.w3.org/2000/svg" baseProfile="tiny-ps" version="1.2" viewBox="0 0 360 360">
  <!-- Generator: Adobe Illustrator 28.7.3, SVG Export Plug-In . SVG Version: 1.2.0 Build 164)  -->
  <title>The Small Business Expo</title>
  <g>
    <g id="Layer_1">
      <path d="M181.2,152.1h-18.5v17.9h17.8c8.6,0,13.5-2.9,13.5-8.9v-.3c0-5.7-4.5-8.7-12.8-8.7ZM184.3,189.8h-21.5v18.8h21.8c8.7,0,13.5-3.4,13.5-9.3v-.3c0-5.5-4.4-9.2-13.8-9.2ZM184.3,189.8h-21.5v18.8h21.8c8.7,0,13.5-3.4,13.5-9.3v-.3c0-5.5-4.4-9.2-13.8-9.2ZM194,161.2v-.3c0-5.7-4.5-8.7-12.8-8.7h-18.5v17.9h17.8c8.6,0,13.5-2.9,13.5-8.9ZM26.7,40.4v279.2h306.6V40.4H26.7ZM127.9,199.9c0,20.8-16.5,33.2-41.2,33.2s-35.1-5.7-47.7-16.9l15.7-18.8c10.2,8,21.3,12.2,33.1,12.2s11.8-2.6,11.8-7v-.3c0-4.4-3.3-6.6-17.3-9.9-21.7-5-38.4-11.1-38.4-31.9v-.3c0-18.9,15-32.6,39.4-32.6s30.9,4.7,41.9,13.6l-14.1,19.9c-9.3-6.7-19.5-10-28.5-10s-10.2,2.8-10.2,6.6v.3c0,4.7,3.5,6.7,17.8,9.9,23.3,5.1,37.8,12.7,37.8,31.7v.3ZM226.3,203.2c0,17.5-14.3,28.1-38.6,28.1h-52.5v-101.9h52.3c12.8,0,21.8,3.2,27.8,9,4.1,4.2,6.6,9.6,6.6,16.6v.3c0,11.8-6.7,18.8-15.7,22.7,12.4,4.1,20.2,11.1,20.2,24.9v.3ZM315.6,231.3h-82.7v-101.9h82v23.9h-54v15.6h48.9v22.3h-48.9v16.2h54.7v24ZM184.3,189.8h-21.5v18.8h21.8c8.7,0,13.5-3.4,13.5-9.3v-.3c0-5.5-4.4-9.2-13.8-9.2ZM194,161.2v-.3c0-5.7-4.5-8.7-12.8-8.7h-18.5v17.9h17.8c8.6,0,13.5-2.9,13.5-8.9Z" fill="#003b1f"/>
      <rect x="-12.9" y="-7.8" width="46.7" height="387.6" fill="#003b1f"/>
      <rect x="324.9" y="-11.1" width="46.5" height="387.6" fill="#003b1f"/>
      <rect x="29.7" y="273.3" width="320" height="106.5" fill="#003b1f"/>
      <rect x="10.5" y="-7.8" width="326.9" height="98.3" fill="#003b1f"/>
    </g>
  </g>
</svg>