<?xml version="1.0" encoding="iso-8859-1"?>
<!-- Generator: Adobe Illustrator 29.1.0, SVG Export Plug-In . SVG Version: 9.03 Build 55587)  -->
<svg version="1.2" baseProfile="tiny-ps" id="Capa_1" xmlns="http://www.w3.org/2000/svg" xmlns:xlink="http://www.w3.org/1999/xlink"
	 viewBox="0 0 80 80" xml:space="preserve">
<title>ES Consulting</title>
<rect fill="#FFFFFF" width="80" height="80"/>
<g>
	<g>
		<path fill="#124D85" d="M71.607,22.929c0,1.038-0.815,1.853-1.875,1.853c-1.049,0-1.887-0.815-1.887-1.853
			c0-1.016,0.837-1.831,1.887-1.831C70.792,21.099,71.607,21.914,71.607,22.929z M68.314,22.929c0,0.815,0.603,1.462,1.429,1.462
			c0.804,0,1.395-0.647,1.395-1.451c0-0.815-0.592-1.474-1.407-1.474C68.917,21.467,68.314,22.126,68.314,22.929z M69.442,23.889
			h-0.424v-1.831c0.167-0.034,0.402-0.056,0.703-0.056c0.346,0,0.502,0.056,0.636,0.134c0.101,0.078,0.179,0.223,0.179,0.402
			c0,0.201-0.156,0.357-0.38,0.424v0.022c0.179,0.067,0.279,0.201,0.335,0.446c0.056,0.279,0.089,0.391,0.134,0.458h-0.458
			c-0.056-0.067-0.089-0.234-0.145-0.447c-0.034-0.201-0.145-0.29-0.38-0.29h-0.201V23.889z M69.453,22.851h0.201
			c0.234,0,0.424-0.078,0.424-0.268c0-0.167-0.123-0.279-0.391-0.279c-0.112,0-0.19,0.011-0.235,0.022V22.851z"/>
	</g>
	<g>
		<path fill="#124D85" d="M69.726,31.747v-0.58c0-4.536-3.69-8.227-8.227-8.227H46.107H8.393v4.538H38.83
			c-0.531,1.078-0.83,2.289-0.83,3.569c0,4.47,3.637,8.107,8.107,8.107h14.612c2.395,0,4.344,1.949,4.344,4.344
			s-1.949,4.344-4.344,4.344H12.934v-8.764h19.012v-4.538H12.289c-2.147,0-3.893,1.746-3.893,3.893v10.054
			c0,2.147,1.746,3.893,3.893,3.893h48.43c4.898,0,8.882-3.984,8.882-8.882s-3.984-8.882-8.882-8.882H46.107
			c-1.968,0-3.569-1.601-3.569-3.569s1.601-3.569,3.569-3.569H61.5c2.034,0,3.689,1.655,3.689,3.689v0.58H69.726z"/>
		<rect x="8.393" y="22.941" fill="#38BBDD" width="4.541" height="4.538"/>
		<g>
			<path fill="#A2A3A4" d="M16.438,58.901c-1.021,0-1.78-0.788-1.78-1.785v-0.01c0-0.987,0.744-1.795,1.809-1.795
				c0.654,0,1.046,0.218,1.368,0.535l-0.486,0.56c-0.268-0.243-0.54-0.392-0.887-0.392c-0.585,0-1.006,0.486-1.006,1.081v0.01
				c0,0.595,0.411,1.091,1.006,1.091c0.397,0,0.64-0.159,0.912-0.406l0.486,0.491C17.504,58.663,17.107,58.901,16.438,58.901z"/>
			<path fill="#A2A3A4" d="M21.544,58.901c-1.071,0-1.839-0.798-1.839-1.785v-0.01c0-0.987,0.778-1.795,1.849-1.795
				c1.071,0,1.839,0.798,1.839,1.785v0.01C23.393,58.093,22.614,58.901,21.544,58.901z M22.595,57.107
				c0-0.595-0.436-1.091-1.051-1.091c-0.615,0-1.041,0.486-1.041,1.081v0.01c0,0.595,0.436,1.091,1.051,1.091
				c0.615,0,1.041-0.486,1.041-1.081V57.107z"/>
			<path fill="#A2A3A4" d="M27.993,58.842l-1.681-2.206v2.206h-0.754v-3.47h0.704l1.626,2.137v-2.137h0.754v3.47H27.993z"/>
			<path fill="#A2A3A4" d="M32.196,58.891c-0.525,0-1.056-0.183-1.472-0.555l0.451-0.54c0.312,0.258,0.64,0.421,1.036,0.421
				c0.312,0,0.501-0.124,0.501-0.327v-0.01c0-0.193-0.119-0.292-0.699-0.441c-0.699-0.178-1.15-0.372-1.15-1.061v-0.01
				c0-0.63,0.506-1.046,1.215-1.046c0.506,0,0.937,0.159,1.289,0.441l-0.397,0.575c-0.307-0.213-0.61-0.342-0.902-0.342
				c-0.293,0-0.446,0.134-0.446,0.302v0.01c0,0.228,0.149,0.302,0.749,0.456c0.704,0.183,1.101,0.436,1.101,1.041v0.01
				C33.471,58.505,32.945,58.891,32.196,58.891z"/>
			<path fill="#A2A3A4" d="M37.069,58.896c-0.932,0-1.502-0.52-1.502-1.542v-1.983h0.763v1.963c0,0.565,0.283,0.858,0.749,0.858
				c0.466,0,0.749-0.283,0.749-0.833v-1.988h0.763v1.958C38.591,58.381,38.001,58.896,37.069,58.896z"/>
			<path fill="#A2A3A4" d="M40.857,58.842v-3.47h0.763v2.776h1.73v0.694H40.857z"/>
			<path fill="#A2A3A4" d="M46.488,56.075v2.766h-0.763v-2.766h-1.056v-0.704h2.875v0.704H46.488z"/>
			<path fill="#A2A3A4" d="M49.651,58.842v-3.47h0.763v3.47H49.651z"/>
			<path fill="#A2A3A4" d="M55.203,58.842l-1.681-2.206v2.206h-0.754v-3.47h0.704l1.626,2.137v-2.137h0.754v3.47H55.203z"/>
			<path fill="#A2A3A4" d="M59.843,58.901c-1.081,0-1.824-0.758-1.824-1.785v-0.01c0-0.987,0.768-1.795,1.819-1.795
				c0.625,0,1.001,0.169,1.363,0.476l-0.481,0.58c-0.268-0.223-0.506-0.352-0.907-0.352c-0.555,0-0.996,0.491-0.996,1.081v0.01
				c0,0.635,0.436,1.101,1.051,1.101c0.278,0,0.526-0.069,0.719-0.208v-0.496h-0.768v-0.659h1.507v1.507
				C60.968,58.653,60.477,58.901,59.843,58.901z"/>
		</g>
	</g>
</g>
</svg>
