<?xml version="1.0"?>
<svg xmlns="http://www.w3.org/2000/svg" xmlns:xlink="http://www.w3.org/1999/xlink" version="1.2" viewBox="0 0 500 179" baseProfile="tiny-ps">
  <title>belkins-01</title>
  <rect y="0" width="500" height="179" fill="#FFFFFF"/>
  <path d="M70.6,142.1c-9.1,0-17.1-3.5-23.9-10.6v3.6c0,1.8-0.7,3.3-2,4.5c-1.2,1.2-2.7,1.8-4.5,1.8s-3.3-0.6-4.5-1.8  s-1.8-2.7-1.8-4.5V44.4c0-1.8,0.6-3.3,1.8-4.5c1.2-1.3,2.7-2,4.5-2c1.9,0,3.4,0.6,4.6,1.8c1.2,1.2,1.8,2.7,1.8,4.6v34.2  c6.8-7.1,14.8-10.6,23.9-10.6c5.8,0,11.2,1.5,16.4,4.5c5.2,2.9,9.4,7.2,12.6,12.9c3.3,5.6,4.9,12.2,4.9,19.7s-1.6,14.2-4.9,19.8  c-3.2,5.6-7.4,9.9-12.6,12.9C81.9,140.7,76.4,142.1,70.6,142.1z M68.8,130.3c6.9,0,12.4-2.2,16.6-6.6s6.3-10.6,6.3-18.6  s-2.1-14.2-6.3-18.6c-4.2-4.4-9.7-6.6-16.6-6.6c-4.3,0-8.3,1-12.2,2.9c-3.7,1.9-7,4.4-9.9,7.5v29.4c2.9,3.2,6.2,5.7,9.9,7.7  C60.5,129.3,64.5,130.3,68.8,130.3z"/>
  <path d="M151.3,142.1c-11.4,0-20.3-3.2-26.7-9.6c-6.3-6.5-9.5-15.7-9.5-27.4c0-6.6,1.2-12.7,3.6-18.3s6.2-10.1,11.2-13.6  c5-3.4,11.2-5.2,18.6-5.2c6.9,0,12.9,1.6,17.9,4.9c5,3.2,8.9,7.5,11.5,12.9c2.6,5.3,3.9,11.1,3.9,17.5c0,1.8-0.6,3.3-1.8,4.5  c-1.1,1.2-2.7,1.8-4.6,1.8H128c0.7,6.5,3.2,11.6,7.3,15.2c4.1,3.6,9.8,5.5,17.2,5.5c3.9,0,7.3-0.4,10.2-1.1c3-0.7,5.9-1.8,8.7-3.2  c0.7-0.4,1.6-0.6,2.5-0.6c1.5,0,2.8,0.5,3.9,1.5c1.1,1,1.7,2.3,1.7,3.9c0,2.1-1.2,3.8-3.6,5.2c-3.6,2.1-7.2,3.6-10.8,4.6  C161.4,141.6,156.8,142.1,151.3,142.1z M169.1,99.2c-0.3-4.6-1.5-8.4-3.6-11.5s-4.6-5.3-7.7-6.7c-3.1-1.5-6.2-2.2-9.4-2.2  s-6.3,0.7-9.4,2.2c-3.1,1.4-5.6,3.6-7.7,6.7c-2.1,3.1-3.2,6.9-3.5,11.5H169.1z"/>
  <path d="M202.1,141.4c-1.8,0-3.3-0.6-4.5-1.8s-1.8-2.7-1.8-4.5V44.4c0-1.8,0.6-3.3,1.8-4.5c1.2-1.3,2.7-2,4.5-2  c1.9,0,3.4,0.6,4.6,1.8c1.2,1.2,1.8,2.7,1.8,4.6V135c0,1.8-0.7,3.3-2,4.5C205.3,140.8,203.8,141.4,202.1,141.4z"/>
  <path d="M234.1,141.4c-1.8,0-3.3-0.6-4.5-1.8s-1.8-2.7-1.8-4.5V44.4c0-1.8,0.6-3.3,1.8-4.5c1.2-1.3,2.7-2,4.5-2s3.3,0.7,4.5,2  c1.3,1.2,2,2.7,2,4.5v57.2l33.3-30.8c1.4-1.2,2.8-1.8,4.2-1.8c2.1,0,3.7,0.6,4.6,1.8c1,1.2,1.5,2.7,1.5,4.3c0,1.6-0.8,3.2-2.4,4.8  l-20.1,18l25.3,33.5c0.9,1.2,1.4,2.5,1.4,3.8c0,1.9-0.6,3.4-1.8,4.5c-1.2,1.1-2.7,1.7-4.6,1.7c-0.9,0-1.9-0.2-2.8-0.7  s-1.7-1.1-2.4-2l-24-32.7l-12.2,11v18c0,1.8-0.7,3.3-2,4.5C237.3,140.8,235.8,141.4,234.1,141.4z"/>
  <path d="M307.2,54.9c-2,0-3.6-0.7-5-2.1c-1.4-1.4-2.1-3.1-2.1-5v-0.6c0-2,0.7-3.6,2.1-5s3.1-2.1,5-2.1h0.8c2,0,3.6,0.7,5,2.1  c1.4,1.4,2.1,3.1,2.1,5v0.6c0,2-0.7,3.6-2.1,5s-3.1,2.1-5,2.1H307.2z M307.4,141.4c-1.8,0-3.3-0.6-4.5-1.8s-1.8-2.7-1.8-4.5v-60  c0-1.8,0.6-3.3,1.8-4.5c1.2-1.3,2.7-2,4.5-2c1.9,0,3.4,0.6,4.6,1.8c1.2,1.2,1.8,2.7,1.8,4.6v60c0,1.8-0.7,3.3-2,4.5  C310.7,140.8,309.2,141.4,307.4,141.4z"/>
  <path d="M339.5,141.4c-1.8,0-3.3-0.6-4.5-1.8s-1.8-2.7-1.8-4.5v-60c0-1.8,0.6-3.3,1.8-4.5c1.2-1.3,2.7-2,4.5-2s3.3,0.7,4.5,2  c1.3,1.2,2,2.7,2,4.5v5.7c3.5-3.9,7.4-7,11.5-9.4s8.9-3.5,14.5-3.5c5.1,0,9.6,1.2,13.3,3.6c3.8,2.4,6.7,5.7,8.7,9.9  c2.1,4.2,3.1,8.8,3.1,13.8v39.7c0,1.8-0.7,3.3-2,4.5c-1.2,1.2-2.7,1.8-4.5,1.8s-3.3-0.6-4.5-1.8s-1.8-2.7-1.8-4.5V96.8  c0-11.4-5.1-17.1-15.4-17.1c-4.7,0-8.9,1.2-12.6,3.6c-3.6,2.4-7.1,5.7-10.3,9.8V135c0,1.8-0.7,3.3-2,4.5  C342.7,140.8,341.2,141.4,339.5,141.4z"/>
  <path d="M438.6,142.1c-9.3,0-17.8-2.1-25.4-6.3c-1.6-1.1-2.4-2.7-2.4-4.6c0-1.5,0.5-2.8,1.5-3.9s2.3-1.7,3.9-1.7  c0.8,0,1.7,0.2,2.5,0.6c3,1.3,6,2.3,8.9,3.1c3,0.7,6.3,1.1,10.1,1.1c10.3,0,15.5-3.3,15.5-9.9c0-2.1-1.2-3.8-3.6-4.9  c-2.3-1.1-6.2-2.4-11.6-3.8c-5.5-1.3-10.1-2.7-13.7-4.1c-3.5-1.4-6.6-3.5-9.2-6.3c-2.5-2.9-3.8-6.7-3.8-11.3c0-6.5,2.3-11.8,7-15.9  c4.8-4.1,11.5-6.2,20.3-6.2c7.2,0,13.9,1.2,20.3,3.5c1.3,0.4,2.3,1.1,2.9,2.1c0.7,1,1.1,2.1,1.1,3.2c0,1.5-0.6,2.8-1.7,3.9  c-1,1.1-2.3,1.7-3.9,1.7c-0.5,0-1.1-0.1-1.8-0.3c-5.4-1.7-10.7-2.5-15.9-2.5c-5,0-9,0.9-11.9,2.8c-2.8,1.8-4.2,4.1-4.2,7  c0,2.8,1.3,4.8,3.9,6.2c2.6,1.3,6.7,2.6,12.2,3.8c5.5,1.4,10,2.8,13.4,4.2c3.4,1.3,6.4,3.4,8.8,6.3c2.5,2.9,3.8,6.8,3.8,11.6  c0,6-2.4,10.9-7.1,14.8C453.8,140.2,447.2,142.1,438.6,142.1z"/>
</svg>
