<svg
    baseProfile="tiny-ps"
    version="1.2"
    width="270"
    height="270"
    viewBox="0 0 270 270"
    fill="none"
    xml:space="preserve"
    xmlns="http://www.w3.org/2000/svg"
>
    <title>code.org</title>
    <g>
        <path d="M129.591 116.749C129.591 124.071 123.612 130.021 116.256 130.021H51.049C43.6927 130.021 37.7143 124.071 37.7143 116.749L37.7143 51.8443C37.7143 44.5221 43.6927 38.5714 51.049 38.5714L116.256 38.5714C123.612 38.5714 129.591 44.5221 129.591 51.8443V116.749Z" fill="black"/>
        <path d="M232.714 116.749C232.714 124.071 226.736 130.021 219.379 130.021H154.172C146.816 130.021 140.838 124.071 140.838 116.749V51.8443C140.838 44.5221 146.816 38.5714 154.172 38.5714L219.379 38.5714C226.736 38.5714 232.714 44.5221 232.714 51.8443V116.749Z" fill="black"/>
        <path d="M129.591 218.156C129.591 225.478 123.612 231.428 116.256 231.428H51.049C43.6927 231.428 37.7143 225.478 37.7143 218.156L37.7143 153.251C37.7143 145.929 43.6927 139.978 51.049 139.978H116.256C123.612 139.978 129.591 145.929 129.591 153.251V218.156Z" fill="black"/>
        <path d="M232.714 218.156C232.714 225.478 226.736 231.428 219.379 231.428H154.172C146.816 231.428 140.838 225.478 140.838 218.156V153.251C140.838 145.929 146.816 139.978 154.172 139.978H219.379C226.736 139.978 232.714 145.929 232.714 153.251V218.156Z" fill="black"/>
        <path d="M186.686 65.7106C192.309 65.7106 196.998 67.4803 200.732 71.0197C204.465 74.5591 206.332 79.0056 206.332 84.3368C206.332 89.6681 204.443 94.0924 200.665 97.6097C196.887 101.105 192.131 102.852 186.397 102.852C180.907 102.852 176.351 101.105 172.684 97.6097C169.039 94.1145 167.195 89.7123 167.195 84.4474C167.195 79.0277 169.039 74.5591 172.707 71.0197C176.396 67.4803 181.063 65.7106 186.686 65.7106ZM186.886 70.6437C182.73 70.6437 179.307 71.9488 176.618 74.537C173.929 77.1252 172.595 80.4435 172.595 84.4696C172.595 88.3851 173.951 91.6148 176.64 94.2251C179.329 96.8133 182.685 98.1185 186.73 98.1185C190.797 98.1185 194.175 96.7912 196.887 94.1588C199.598 91.5042 200.954 88.2302 200.954 84.2705C200.954 80.4435 199.598 77.2137 196.887 74.5813C194.175 71.9488 190.842 70.6437 186.886 70.6437Z" fill="white"/>
        <path d="M68.9395 202.136C68.9395 201.495 68.9395 176.077 68.9395 169.264C68.9395 168.246 69.6729 167.605 70.673 167.605C71.6731 167.605 81.2075 167.605 81.2075 167.605C86.1636 167.605 90.0751 168.335 92.9643 169.817C95.8535 171.299 98.1426 173.467 99.8317 176.343C101.543 179.219 102.388 182.338 102.388 185.722C102.388 188.134 101.921 190.456 100.987 192.668C100.054 194.881 98.7205 196.827 96.9647 198.509C95.1868 200.234 93.1421 201.539 90.7863 202.424C89.4084 202.955 88.1638 203.309 87.0081 203.508C85.8524 203.685 83.6744 203.773 80.4519 203.773C80.4519 203.773 71.8287 203.751 70.6508 203.773C69.5618 203.796 68.9395 202.889 68.9395 202.136ZM80.6519 172.228H74.1401V199.172H80.8074C83.4077 199.172 85.4302 198.995 86.8748 198.641C88.3194 198.287 89.5195 197.845 90.4751 197.292C91.4308 196.739 92.3198 196.075 93.1199 195.279C95.6979 192.691 96.9647 189.417 96.9647 185.457C96.9647 181.563 95.6535 178.4 93.0088 175.945C92.0309 175.038 90.9196 174.286 89.6528 173.688C88.386 173.091 87.2081 172.715 86.0747 172.516C84.9635 172.339 83.1633 172.228 80.6519 172.228Z" fill="white"/>
        <path d="M195.021 199.175C194.998 199.175 181.419 199.175 181.419 199.175V187.915L194.065 187.893C195.332 187.871 196.354 186.831 196.354 185.57C196.354 184.287 195.31 183.248 194.021 183.248C193.976 183.248 181.419 183.27 181.419 183.27V172.231H194.465C194.465 172.231 194.487 172.231 194.51 172.231C195.799 172.231 196.843 171.191 196.843 169.908C196.843 168.625 195.799 167.586 194.51 167.586C194.465 167.586 182.353 167.608 177.863 167.608C176.885 167.608 176.219 168.382 176.219 169.245C176.219 169.997 176.219 195.348 176.219 202.139C176.219 203.068 176.997 203.798 177.863 203.798C182.442 203.798 194.976 203.821 195.021 203.821C196.31 203.821 197.354 202.781 197.354 201.498C197.354 200.215 196.31 199.175 195.021 199.175Z" fill="white"/>
        <path d="M96.5675 95.7294C96.2119 95.7294 95.5673 95.9285 95.5673 95.9285C92.4781 97.3442 89.3222 98.0521 86.1219 98.0521C81.8992 98.0521 78.4322 96.7691 75.7208 94.2251C73.0094 91.659 71.6537 88.4072 71.6537 84.4253C71.6537 80.4877 73.0316 77.2137 75.7875 74.5813C78.5433 71.9709 82.0103 70.6437 86.1663 70.6437C89.1 70.6437 92.0559 71.2409 95.0784 72.5019C95.4118 72.6567 95.8118 72.7894 96.1896 72.7894C97.5453 72.7894 98.6566 71.6834 98.6566 70.334C98.6566 69.2942 97.7676 68.3209 97.0786 68.0554C93.0337 66.4848 89.3 65.7106 85.9219 65.7106C80.3879 65.7106 75.7208 67.5024 71.9426 71.1082C68.1644 74.714 66.2753 79.1383 66.2753 84.4032C66.2753 87.7214 67.0976 90.8184 68.7423 93.65C70.3869 96.5036 72.6316 98.7379 75.4541 100.375C78.2766 101.99 81.7214 102.808 85.7885 102.808C90.0779 102.808 93.9894 102.012 97.412 100.485C98.4121 100.109 99.0344 99.1582 99.0344 98.1627C99.0566 96.8354 97.9454 95.7294 96.5675 95.7294Z" fill="white"/>
    </g>
</svg>