<?xml version="1.0" encoding="UTF-8" standalone="yes"?>
<svg xmlns="http://www.w3.org/2000/svg" viewBox="0 0 512 512" version="1.2" baseProfile="tiny-ps">
  <title>MetalMark</title>
  <path d="M253.98,339.21l-58.74,98.6c-.87,1.46-2.68,2.05-4.25,1.37l-58.96-25.46c-1.09-.47-1.85-1.48-2.01-2.66l-7.44-56.12c-.15-1.14.29-2.27,1.16-3.02l32.47-27.58c2.12-1.81,1.28-5.27-1.45-5.87l-40.1-8.96c-1.06-.23-1.95-.97-2.37-1.97l-56.01-131.15c-.18-.42-.27-.88-.27-1.33v-59.78c0-2.76,3.11-4.36,5.34-2.75l192.91,138.2c-6.39,25.73-29.64,44.81-57.34,44.81,27.3,0,50.28,18.52,57.06,43.69h0ZM258.02,339.21l58.74,98.6c.87,1.46,2.68,2.05,4.25,1.37l58.96-25.46c1.09-.47,1.85-1.48,2.01-2.66l7.44-56.12c.15-1.14-.29-2.27-1.16-3.02l-32.47-27.58c-2.12-1.81-1.28-5.27,1.45-5.87l40.1-8.96c1.06-.23,1.95-.97,2.37-1.97l56.01-131.16c.18-.42.27-.88.27-1.33v-59.77c0-2.75-3.11-4.35-5.34-2.75l-192.91,138.2c6.39,25.73,29.64,44.81,57.34,44.81-27.3,0-50.28,18.52-57.06,43.69h0Z" fill="#080808" stroke-width="0px"/>
</svg>