<?xml version="1.0" encoding="utf-8"?>
<!-- BIMI from DMARC Advisor   -->
<svg version="1.2" baseProfile="tiny-ps" id="Layer_1" xmlns="http://www.w3.org/2000/svg" xmlns:xlink="http://www.w3.org/1999/xlink"
	 viewBox="0 0 115 115" xml:space="preserve">
<title>Vicat</title>
	<rect width="115" height="115" fill="#FFFFFF"/>
	<polygon fill="#004587" points="8.3,29.5 8.3,29.5 57.3,114.3 106.7,29.5"/>
		<path fill="#FFFFFF" d="M79.4,48.9h5.5c-0.5-0.2-0.9-1-0.9-1s-5.6-12.7-5.7-13c-0.1-0.3-0.6-1.3-0.6-1.5c0-0.2,0.3-1,0.3-1h-7.3
			c0.2,0.8,0.2,1.2,0.1,1.4c-0.1,0.3-6.2,13.8-6.4,14.2c-0.2,0.4-0.7,0.8-0.7,0.8h5.6c-0.7-0.5-0.5-1.2-0.4-1.5
			c0.1-0.3,0.9-1.6,0.9-1.6h8.7c0,0,0.5,1.1,0.9,2C79.8,48.6,79.4,48.9,79.4,48.9 M71.2,43.1l3-7.4l2.9,7.4H71.2z"/>
		<path fill="#FFFFFF" d="M81.1,32.5h17.2l0.4,3.3c0,0-1.3-0.3-1.7-0.3h-5.4c0,0,0,12.2,0,12.6c0,0.4,0.2,0.8,0.4,0.8h-4.7
			c0,0,0.4-0.5,0.4-1V35.4h-5.9l-1.4,0.4L81.1,32.5L81.1,32.5z"/>
		<path fill="#FFFFFF" d="M61.4,44l2.1,3.5c0,0-0.7-0.1-1.1,0s-3.6,1.6-7.7,1.6s-11.1-2.5-11.1-8.9s7.5-8.3,11-8.3s6.3,1.1,7.2,1.4
			c0.9,0.3,1.6,0.4,1.6,0.4l-2.2,3.3c0,0-0.8-0.7-1.6-1.1c-0.8-0.4-2.9-0.9-5.1-0.9c-2.1,0-7.1,1.3-7.1,5c0,3.7,4.3,5.6,7.1,5.6
			c2.8,0,5.4-0.7,5.9-1.1C61,44.4,61.4,44,61.4,44"/>
		<path fill="#FFFFFF" d="M42.5,32.3h-4.8c0,0,0.4,0.4,0.4,1.3v13.6c0,0,0,0.9-0.7,1.4h5.4c0,0-0.8-0.5-0.8-1.6V33.4
			C41.9,33.2,41.9,32.8,42.5,32.3"/>
		<path fill="#FFFFFF" d="M14.2,32.3l9,15.2c0,0,0.4,0.8,0.4,1.1h4.1c0,0,0-0.6,0.2-1c0.2-0.4,8.9-15.3,8.9-15.3h-5.9
			c0,0,0.6,0.6,0,1.6c-0.6,1-5.5,9.1-5.5,9.1s-5.3-8.9-5.5-9.3c-0.3-0.4-0.2-0.9,0.1-1.4L14.2,32.3L14.2,32.3z"/>
	<polygon fill="#FFFFFF" points="57.3,106.9 24.9,50.9 89.9,50.9 	"/>
</svg>