<?xml version="1.0" encoding="UTF-8"?>
<!-- Generator: Adobe Illustrator 28.3.0, SVG Export Plug-In . SVG Version: 6.00 Build 0) -->
<svg version="1.2" baseProfile="tiny-ps" id="Layer_1" xmlns="http://www.w3.org/2000/svg" xmlns:xlink="http://www.w3.org/1999/xlink" viewBox="0 0 108 108" xml:space="preserve">
    <title>Clark Public Utilities</title>
    <g>
        <g>
            <path fill="#007DC4" d="M10.38,50.64c-0.26,5.87,23.47,56.2,28.94,56.2c5.03,0,58.3-50.75,58.3-56.2
		c0-5.45-22.23-49.49-27.26-49.49C65.32,1.15,10.59,45.82,10.38,50.64L10.38,50.64z" />
            <g>
                <g>
                    <path fill="#FFFFFF" d="M95.26,43.38l-78.7-0.06c-0.77,0.74-1.47,1.44-2.11,2.1l81.66,0.06C95.85,44.82,95.56,44.12,95.26,43.38z
				" />
                    <path fill="#FFFFFF" d="M21.81,38.43c-0.71,0.64-1.4,1.27-2.07,1.89l74.21,0.04c-0.27-0.61-0.56-1.24-0.85-1.89L21.81,38.43z" />
                    <path fill="#FFFFFF" d="M27.35,33.53c-0.65,0.57-1.29,1.12-1.92,1.68l66.16,0.02c-0.26-0.55-0.53-1.11-0.8-1.68L27.35,33.53z" />
                    <path fill="#FFFFFF" d="M33.09,28.64c-0.58,0.49-1.16,0.98-1.74,1.47l57.74,0.01c-0.24-0.49-0.49-0.98-0.74-1.47L33.09,28.64z" />
                    <path fill="#FFFFFF" d="M38.99,23.74c-0.51,0.42-1.02,0.84-1.53,1.26l49.02,0c-0.22-0.42-0.44-0.84-0.66-1.26L38.99,23.74z" />
                    <path fill="#FFFFFF" d="M45.05,18.84c-0.44,0.35-0.87,0.7-1.31,1.05l39.99-0.01c-0.19-0.35-0.39-0.7-0.58-1.05L45.05,18.84z" />
                    <path fill="#FFFFFF" d="M51.29,13.93c-0.36,0.28-0.72,0.56-1.08,0.84l30.63-0.01c-0.16-0.28-0.33-0.56-0.49-0.84L51.29,13.93z" />
                    <path fill="#FFFFFF" d="M57.77,9.03c-0.28,0.21-0.56,0.42-0.85,0.63l20.81-0.01c-0.14-0.21-0.27-0.42-0.4-0.63L57.77,9.03z" />
                    <path fill="#FFFFFF" d="M64.73,4.12c-0.2,0.13-0.42,0.28-0.63,0.42l10.1-0.01c-0.11-0.14-0.22-0.28-0.33-0.42L64.73,4.12z" />
                </g>
                <circle fill="#FFFFFF" cx="61.53" cy="36.4" r="13.4" />
            </g>
        </g>
    </g>
</svg>
