<?xml version="1.0" encoding="utf-8"?>
<!-- Generator: Adobe Illustrator 24.3.0, SVG Export Plug-In . SVG Version: 6.00 Build 0)  -->
<svg version="1.2" baseProfile="tiny-ps" id="Layer_1" xmlns="http://www.w3.org/2000/svg" xmlns:xlink="http://www.w3.org/1999/xlink"
	  viewBox="0 0 684.4 347.8"  xml:space="preserve">
<title>TSB</title>
<g id="MASTER">
	<g>
		<g>
			<path fill="#00A8E1" d="M258,124.2c-17-28.7-48.4-48-84.2-48C119.8,76.2,76,120,76,174s43.8,97.8,97.8,97.8
				c35.8,0,67.1-19.3,84.2-48c-8.6-14.6-13.6-31.6-13.6-49.8S249.4,138.8,258,124.2z"/>
			<path fill="#0051B4" d="M426.4,124.2c-17-28.7-48.4-48-84.2-48s-67.1,19.3-84.2,48c8.6,14.6,13.6,31.6,13.6,49.8
				s-5,35.2-13.6,49.8c17,28.7,48.4,48,84.2,48s67.1-19.3,84.2-48c-8.6-14.6-13.6-31.6-13.6-49.8S417.7,138.8,426.4,124.2z"/>
			<ellipse fill="#003974" cx="258" cy="174" rx="13.6" ry="49.8"/>
			<path fill="#001887" d="M510.6,76.2c-35.8,0-67.1,19.3-84.2,48C435,138.8,440,155.8,440,174s-5,35.2-13.6,49.8
				c17,28.7,48.4,48,84.2,48c54,0,97.8-43.8,97.8-97.8S564.6,76.2,510.6,76.2z"/>
			<ellipse fill="#131B33" cx="426.4" cy="174" rx="13.6" ry="49.8"/>
		</g>
		<polygon fill="#FFFFFF" points="210.6,139.7 182.1,139.7 182.1,226.9 162.5,226.9 162.5,139.7 134.6,139.7 134.6,121.9 
			210.6,121.9 		"/>
		<path fill="#FFFFFF" d="M477.1,121.9h36.7c14,0.1,17.7,0.3,22.8,1.8c10.5,3.1,17.9,12.5,17.9,23.9c0,4.6-1,10.3-4,14.3
			c-3.3,4.3-7.4,6.5-13.1,7.6c11.6,2.1,21.7,11.5,21.7,27.7c0,12.1-5.3,22.8-18,27.2c-6.7,2.4-11.9,2.5-23.8,2.5h-40.3L477.1,121.9
			L477.1,121.9z M496.5,137.9v26.2h6.1c5.5,0,9.5,0,11.9-0.1c4.9,0,9.8-0.1,13.4-2.1c4.2-2.1,7-6.1,7-10.9c0-4-2.1-8-6.1-10.4
			c-4.2-2.4-6.3-2.5-20.5-2.7H496.5z M496.5,178.9v31.1h18.7c11.6,0,14.7,0,19.8-3.6c2.7-1.9,4.8-5.9,4.8-11c0-2.4-0.5-5.2-1.9-7.9
			c-4.8-8.5-15.8-8.6-22.5-8.6L496.5,178.9L496.5,178.9z"/>
		<path fill="#FFFFFF" d="M352.6,164.6l-10.8-2.4c-9.5-1.8-19.2-3.6-19.2-12.4c0-8,9.1-12.7,19.6-12.7c15.8,0,22.8,9.3,26.4,14.6
			l15.5-12.4c-7.4-9.8-19.1-19.8-40.9-19.8c-24.5,0-41.2,12.7-41.2,32.5c0,17.3,12.8,23.6,17.6,25.5c3.2,1.3,6.5,2.1,13.1,3.7
			l12.5,2.6c9.5,2.2,9.7,2.4,12.1,3.2c3.2,1.3,7.8,3.7,7.8,10.3c0,3.5-1.3,8.9-8.9,11.9c-3.7,1.5-7.5,1.8-11.2,1.8
			c-20.9,0-29-10.8-31.9-15.1l-15.9,12.1c7.8,12.1,19.3,16.5,26.1,18.5c6.4,1.8,12.8,2.4,18.6,2.4c22.1,0,44.3-9.6,44.3-33.5
			C386.4,173.4,366.6,167.6,352.6,164.6"/>
	</g>
</g>
<g id="SAFE_x5F_DONOT_PRINT">
</g>
</svg>
