<?xml version="1.0" encoding="utf-8"?>
<!-- Generator: Adobe Illustrator 28.2.0, SVG Export Plug-In . SVG Version: 6.00 Build 0)  -->
<svg version="1.2" baseProfile="tiny-ps" id="Layer_1" xmlns="http://www.w3.org/2000/svg" xmlns:xlink="http://www.w3.org/1999/xlink"
	  viewBox="0 0 80 80"  xml:space="preserve">
	 <title>XT-Logo</title>
<g>
	<polygon fill="#58595B" points="16.5,14 14,16.5 14,39.2 15,40.2 26.4,32.5 33.6,38 40.1,28.1 57.9,39.2 59.5,36 64.9,40.3 
		66,39.2 66,16.5 63.5,14 	"/>
	<polygon fill="#FBB040" points="21.3,34 26.8,29.3 33.1,34 39.3,23.9 56.9,36.5 36.7,17.4 30.7,29.6 25.5,23.5 	"/>
	<g>
		<path d="M24.7,65.4v-3.2h1.4c0.5,0,1.5-0.2,0.7-1.4l-2.3-3.1l-2,2.7c-0.6,0.8-0.9,1.9-0.1,1.9h1.2v3.2h-9.8v-3.2h2
			c1,0,2.1-1.4,2.7-2.3l3.9-5.3l-4.7-6.5c-0.7-0.9-1-1.6-2.2-1.6h-1.7v-3.2h15.8v3.2h-1.5c-0.9,0-1.3,0.6-0.7,1.5l2.2,3.1l2-2.7
			c0.6-0.8,0.9-1.9,0.1-1.9h-1.2v-3.2h9.9v3.2h-2.1c-1.3,0-2,1.3-2.7,2.2L31.9,54l4.1,5.7c0.9,1.3,1.8,2.5,3,2.5h1.5v3.2H24.7z"/>
		<path d="M45.9,65.4v-3.2h1.7c0.8,0,1.4-0.7,1.4-1.6v-13h-1.4c-1.1,0-1.9,1.3-1.9,2.8v2.8h-5.7v-9.9h26.3v9.9h-5.7v-2.8
			c0-1.5-0.8-2.8-1.9-2.8H57v13c0,0.9,0.6,1.6,1.4,1.6h1.7v3.2H45.9z"/>
	</g>
</g>
</svg>
