<?xml version="1.0" encoding="utf-8"?>
<!-- Generator: Adobe Illustrator 28.2.0, SVG Export Plug-In . SVG Version: 6.00 Build 0)  -->
<svg version="1.2" baseProfile="tiny-ps" id="Layer_1" xmlns="http://www.w3.org/2000/svg" xmlns:xlink="http://www.w3.org/1999/xlink"
	  viewBox="0 0 80 80"  xml:space="preserve">
	 <title>AM-Logo</title>
<g>
	<polygon fill="#1891CD" points="13.8,43 9.9,48.6 8.3,50.8 17.5,50.8 19.3,47.8 13.8,43 13.8,42.9 	"/>
	<polygon fill="#1891CD" points="29.3,47.8 29.5,50.8 38.6,50.8 37.5,43 	"/>
	<polygon fill="#1891CD" points="24.2,28.1 14.4,42.1 22.8,42.1 28.4,32.8 29,42.1 37.4,42.1 35.3,28.1 	"/>
	<polygon fill="#F48120" points="58.8,28.1 50.9,41.9 50.7,28.1 36.4,28.1 37.9,39 39.8,50.8 43.9,35.3 44.6,35.3 45.1,50.8 
		52,50.8 60.9,35.3 61.6,35.3 57.4,50.8 65.9,50.8 67.7,43 71.6,28.1 71.6,28.1 	"/>
</g>
</svg>
