<?xml version="1.0" encoding="iso-8859-1"?>
<!-- Generator: Adobe Illustrator 22.0.0, SVG Export Plug-In . SVG Version: 6.00 Build 0)  -->
<svg version="1.2" baseProfile="tiny-ps" id="Layer_1" xmlns="http://www.w3.org/2000/svg" xmlns:xlink="http://www.w3.org/1999/xlink"
	  viewBox="0 0 500 500" xml:space="preserve">
	  <title>TheBeautyChef</title>
<g>
	<path fill="none" d="M149.211,243.706c0-2.376-1.834-3.751-5.127-3.751h-7.377v7.752h7.003
		C147.002,247.706,149.211,246.415,149.211,243.706z"/>
	<polygon fill="none" points="219.017,253.001 213.973,241.33 208.97,253.001 	"/>
	<path fill="none" d="M144.834,252.043h-8.128v8.002h8.502c3.502,0,5.629-1.376,5.629-4.043
		C150.837,253.501,148.877,252.043,144.834,252.043z"/>
	<polygon points="189.219,239.996 189.219,235.411 167.586,235.411 167.586,264.589 189.427,264.589 189.427,260.003 
		172.713,260.003 172.713,252.167 187.344,252.167 187.344,247.582 172.713,247.582 172.713,239.996 	"/>
	<path d="M238.6,235.411v16.797c0,8.462,4.836,12.838,12.421,12.838c7.627,0,12.546-4.377,12.546-13.088v-16.548h-5.127v16.797
		c0,5.378-2.794,8.128-7.336,8.128c-4.585,0-7.379-2.917-7.379-8.336v-16.589H238.6z"/>
	<polygon points="323.037,264.589 323.037,252.96 334.626,235.411 328.747,235.411 320.493,248.332 312.323,235.411 
		306.279,235.411 317.867,253.085 317.867,264.589 	"/>
	<polygon points="101.202,239.996 101.202,235.411 79.569,235.411 79.569,264.589 101.411,264.589 101.411,260.003 84.696,260.003 
		84.696,252.167 99.327,252.167 99.327,247.582 84.696,247.582 84.696,239.996 	"/>
	<polygon points="288.779,264.589 288.779,240.163 298.033,240.163 298.033,235.411 274.358,235.411 274.358,240.163 
		283.61,240.163 283.61,264.589 	"/>
	<path d="M198.842,264.589h5.251l3.002-7.045h13.798l2.959,7.045h5.419l-12.839-29.387h-4.751L198.842,264.589z M219.017,253.001
		H208.97l5.002-11.671L219.017,253.001z"/>
	<path d="M154.338,242.872c0-4.585-3.709-7.461-9.587-7.461h-13.089v29.177h13.505c6.502,0,10.796-2.792,10.796-8.045
		c0-4.001-2.376-5.96-5.794-7.128C152.338,248.291,154.338,246.457,154.338,242.872z M136.706,239.955h7.377
		c3.293,0,5.127,1.375,5.127,3.751c0,2.709-2.208,4.001-5.502,4.001h-7.003V239.955z M150.837,256.002
		c0,2.668-2.127,4.043-5.629,4.043h-8.502v-8.002h8.128C148.877,252.043,150.837,253.501,150.837,256.002z"/>
	<polygon points="424.058,264.589 424.058,235.411 418.931,235.411 418.931,247.541 405.009,247.541 405.009,235.411 
		399.881,235.411 399.881,264.589 405.009,264.589 405.009,252.293 418.931,252.293 418.931,264.589 	"/>
	<polygon points="66.237,264.589 66.237,235.411 61.11,235.411 61.11,247.541 47.187,247.541 47.187,235.411 42.061,235.411 
		42.061,264.589 47.187,264.589 47.187,252.293 61.11,252.293 61.11,264.589 	"/>
	<polygon points="492.798,240.08 492.798,235.411 471.145,235.411 471.145,264.589 476.273,264.589 476.273,252.708 
		490.987,252.708 490.987,248.041 476.273,248.041 476.273,240.08 	"/>
	<path d="M361.999,250.041c0,8.42,6.335,15.048,14.839,15.048c5.461,0,8.796-2,11.837-5.168l-3.292-3.335
		c-2.501,2.334-4.794,3.793-8.379,3.793c-5.586,0-9.628-4.669-9.628-10.421c0-5.752,4.042-10.337,9.628-10.337
		c3.334,0,5.836,1.459,8.169,3.626l3.293-3.793c-2.792-2.667-6.042-4.543-11.417-4.544h-0.005
		C368.209,234.912,361.999,241.706,361.999,250.041z"/>
	<polygon points="16.392,264.589 21.56,264.589 21.56,240.163 30.814,240.163 30.814,235.411 7.138,235.411 7.138,240.163 
		16.392,240.163 	"/>
	<polygon points="459.024,239.996 459.024,235.411 437.389,235.411 437.389,264.589 459.233,264.589 459.233,260.003 
		442.517,260.003 442.517,252.167 457.147,252.167 457.147,247.582 442.517,247.582 442.517,239.996 	"/>
</g>
</svg>
