<?xml version="1.0" encoding="utf-8"?>
<!-- Generator: Adobe Illustrator 26.0.2, SVG Export Plug-In . SVG Version: 6.00 Build 0)  -->
<svg version="1.2" baseProfile="tiny-ps" id="E_Logotype"
	 xmlns="http://www.w3.org/2000/svg" xmlns:xlink="http://www.w3.org/1999/xlink" viewBox="0 0 386.54 386.54" xml:space="preserve">
<title>Rakuten Eagles</title>
<desc>Rakuten Eagles logo image</desc>
<rect fill="#FFFFFF" width="386.54" height="386.54"/>
<g>
	<g>
		<path fill="#F6AB00" d="M187.37,249.29L187.37,249.29l-0.54-4.5l-1.35-11.23c-0.33-2.77-0.63-5.29-0.85-7.16h-0.01l-0.38-3.16
			l-0.39-3.23c0.01,0-3.24,0.04-3.24,0.04l-15.22,0.21c-19.61,0.29-39.89,0.57-61.29,0.21l-4.07-0.07l0.4,4.04
			c0.49,4.86,5.57,10.3,11.34,12.13c0.94,0.3,1.9,0.57,2.84,0.86c2.01,2.2,4.7,4.02,7.56,4.93c19.65,6.21,42.29,9.07,65.77,11.54
			c0,0,0-0.02,0-0.03C187.78,252.66,187.59,251.07,187.37,249.29z"/>
		<path fill="#F6AB00" d="M182.78,211.6l0.05,0l-0.51-4.38l-2.37-20.53l-0.35-3.03l-3.05-0.17c-29.14-1.6-64.27-4.2-104.03-11.33
			l-4.37-0.79l0.12,4.44c0.15,5.62,4.05,10.98,9.72,13.36c1.53,0.63,3.1,1.26,4.66,1.87c1.66,2.3,3.99,4.19,6.76,5.34
			c25.8,10.76,57.44,17.84,94.06,21.11L182.78,211.6z"/>
		<path fill="#F6AB00" d="M316.18,274.37l4.77-1.41l-36.17-25.04c-1.13,0.4-3.75,0.98-3.75,0.98c-9.83,1.91-23.64,4.41-35.34,6.08
			c-0.8,0.12-1.55,0.17-2.25,0.18c-0.2-0.83-0.38-1.77-0.48-2.8l-0.29-2.5c-0.51-4.27-1.64-13.72-2.84-26.54
			c14.54,1.12,29.22,1.87,43.74,2.2l3.93,0.06c-0.1-1.13-0.36-3.9-0.36-3.9l-1.56-16.67l-0.74-7.94l-0.29-3.13l-3.15-0.05
			c-0.53,0-1.04-0.01-1.57-0.03l-0.37-3.98l-0.3-3.23l-3.25-0.05c-14.59-0.23-27.61-0.5-39.53-0.82l-0.03-0.33l-0.37-3.97
			c23.09,1.78,44.26,2.84,58.56,2.95l4.31,0.03c-0.35-2.05-0.88-4.37-0.88-4.37c-1.18-4.81-3.5-9.2-6.81-13.07
			c-6.55-14.61-24.27-24.47-47.85-26.2c-72.49-5.31-136.82-23.49-191.23-54.01l-5.41-3.04l0.02,6.2c0.02,7.46,2.78,13.51,8.44,18.5
			c3.8,3.36,7.94,6.64,12.35,9.86c27.29,23.95,71.6,44.52,117.57,54.86l3.88,35.07c2.1,19.31,3.92,35.99,4.66,41.09
			c2.63,18.14,8.57,30.08,18.15,36.51c1.72,1.15,3.56,2.11,5.52,2.93c0.62,0.49,1.24,0.95,1.89,1.39
			c10.3,6.91,24.76,7.51,46.87,1.97l20.22-4.9c10.43-2.48,20.27-4.83,30.98-7.7l4.6-1.24L316.18,274.37z"/>
	</g>
	<g>
		<path fill="#7D001A" d="M283.94,252.02c-9.82,1.96-24.88,4.71-37.73,6.55c-9.33,1.34-12.69-3.55-13.5-11.32
			c-0.25-2.34-1.9-15.06-3.63-34.23c16.71,1.37,33.09,2.21,49.16,2.57c-0.79-8.55-1.56-16.76-2.36-25.37
			c-17.22-0.27-33.36-0.6-48.96-1.08c-0.65-7.3-1.33-13.7-1.82-19.27c22.26,1.77,47.06,3.23,64.4,3.36
			c-4.33-17.67-24.28-27.18-46.44-28.8c-69.51-5.09-135.04-22.09-192.74-54.47c0.02,6.45,2.31,11.47,7.21,15.79
			c29.7,26.18,79.51,48.44,130.14,58.11c3.37,29.17,8.21,75.97,9.52,84.96c5.63,38.85,25.83,44.62,62.01,35.55
			c18.28-4.58,34.61-8.12,52.74-12.98L283.94,252.02z M176.35,187.11c-31.9-1.75-66.04-4.49-104.47-11.38
			c0.1,3.74,2.77,8.13,7.5,10.11c26.19,10.92,59.56,18.54,99.34,21.8L176.35,187.11z M180.65,223.68
			c-24.87,0.3-49.67,0.88-76.62,0.42c0.33,3.35,4.42,7.64,8.83,9.04c21.45,6.79,46.76,9.65,70.39,12.09L180.65,223.68z"/>
	</g>
</g>
</svg>
