<?xml version="1.0" encoding="utf-8"?>
<svg version="1.2" baseProfile="tiny-ps" id="Laag_1" xmlns="http://www.w3.org/2000/svg" viewBox="0 0 512 512" xml:space="preserve">
<title>Mimecast DMARC Analyser</title>

<g transform="translate(0.000000,512.000000) scale(0.100000,-0.100000)"
fill="#000000" stroke="none">
<path d="M0 2560 l0 -2560 2560 0 2560 0 0 2560 0 2560 -2560 0 -2560 0 0
-2560z m3076 485 c61 -18 118 -64 146 -118 17 -33 23 -65 26 -143 l4 -101
-108 -21 c-60 -12 -115 -22 -121 -22 -10 0 -13 26 -13 96 0 52 -5 104 -10 114
-15 28 -46 41 -76 34 -48 -12 -54 -47 -54 -334 0 -287 6 -322 54 -334 30 -7
61 6 76 34 5 10 10 62 10 114 0 70 3 96 13 96 6 0 61 -10 121 -22 l108 -21 -4
-96 c-3 -83 -8 -103 -33 -150 -33 -60 -90 -104 -160 -122 -22 -6 -85 -9 -140
-7 -117 5 -162 23 -218 88 -57 67 -62 100 -62 425 0 282 1 291 23 341 31 68
88 122 154 145 66 23 195 25 264 4z m1313 -1 c61 -18 131 -77 164 -139 21 -38
22 -55 25 -332 2 -185 -1 -306 -8 -331 -17 -66 -69 -132 -130 -166 -53 -30
-59 -31 -175 -31 -105 0 -125 3 -162 22 -61 33 -109 87 -135 152 -21 53 -22
69 -22 331 0 263 1 278 22 332 28 71 103 141 171 162 62 20 185 20 250 0z
m-3189 -99 l0 -95 -90 0 -90 0 0 -395 0 -395 -115 0 -115 0 -2 393 -3 392 -92
3 -93 3 0 94 0 95 300 0 300 0 0 -95z m465 80 c87 -23 128 -54 161 -121 24
-48 28 -70 28 -143 1 -113 -17 -174 -67 -224 l-40 -40 65 -218 65 -219 -121 0
-121 0 -45 193 c-45 189 -46 192 -73 195 l-27 3 0 -195 0 -196 -115 0 -115 0
0 490 0 490 173 0 c123 0 190 -4 232 -15z m851 -475 c52 -267 94 -486 94 -487
0 -2 -51 -3 -114 -3 -129 0 -120 -6 -131 90 -13 118 -6 110 -95 110 -88 0 -80
8 -95 -100 -3 -25 -8 -57 -11 -72 l-6 -28 -115 0 c-114 0 -115 0 -110 23 3 12
45 227 92 477 47 250 88 461 90 468 4 10 40 12 156 10 l152 -3 93 -485z m1384
395 l0 -95 -90 0 -90 0 0 -395 0 -395 -115 0 -115 0 -2 393 -3 392 -92 3 -93
3 0 94 0 95 300 0 300 0 0 -95z"/>
<path d="M4230 2877 c-14 -7 -30 -28 -37 -47 -16 -48 -16 -512 0 -560 25 -73
105 -79 139 -10 16 31 18 67 18 288 0 277 -6 313 -55 332 -33 13 -35 12 -65
-3z"/>
<path d="M1490 2740 l0 -150 36 0 c50 0 72 15 84 58 13 48 13 151 -1 190 -11
32 -48 52 -95 52 l-24 0 0 -150z"/>
<path d="M2241 2652 c-12 -97 -25 -189 -28 -204 -5 -28 -5 -28 50 -28 31 0 58
3 60 8 5 9 -46 388 -53 396 -3 3 -16 -75 -29 -172z"/>
</g>
</svg>
