<?xml version="1.0" encoding="iso-8859-1"?>
<!-- Generator: Adobe Illustrator 28.5.0, SVG Export Plug-In . SVG Version: 9.03 Build 54727)  -->
<svg version="1.2" baseProfile="tiny-ps" id="Layer_1" xmlns="http://www.w3.org/2000/svg" xmlns:xlink="http://www.w3.org/1999/xlink"
	  viewBox="0 0 80 80"  xml:space="preserve">
<title>BigSpeak Speakers Bureau</title>
<rect width="80" height="80"/>
<g>
	<g>
		<g>
			<path fill="#FFFFFF" d="M8.247,28.091c0-2.167-0.266-3.307-2.927-3.307h-1.33v-0.723c1.065-0.038,3.688-0.19,4.79-0.228
				c2.091-0.076,4.98-0.114,5.703-0.114c3.345,0,6.272,0.494,7.641,1.483c1.559,1.102,2.319,2.395,2.319,4.22
				c0,2.167-1.787,4.182-4.334,4.638v0.076c3.574,1.064,5.664,3.383,5.664,6.349c0,3.003-2.09,7.223-8.211,7.223H3.647v-0.722h0.874
				c3.117,0,3.726-0.722,3.726-3.117V28.091z M11.402,33.946h4.144c3.65,0,5.474-1.445,5.474-4.41c0-2.661-1.596-5.094-6.273-5.094
				c-0.836,0-2.395,0.076-3.345,0.114V33.946z M11.402,42.765c0,2.89,1.141,3.916,4.334,3.916c5.018,0,6.463-3.117,6.463-6.083
				c0-2.927-2.243-5.931-6.691-5.931h-4.106V42.765z"/>
			<path fill="#FFFFFF" d="M35.009,44.818c0,1.331,0.722,2.167,2.737,2.167v0.722h-8.44v-0.722c2.319,0,3.155-0.76,3.155-2.775
				v-7.642c0-1.482-0.19-1.672-1.178-1.862l-1.787-0.342v-0.608l4.942-1.711h0.57V44.818z"/>
			<path fill="#FFFFFF" d="M33.45,27.064c0.912,0,1.672,0.646,1.672,1.444c0,0.798-0.76,1.445-1.672,1.445
				c-0.913,0-1.635-0.647-1.635-1.445C31.815,27.71,32.537,27.064,33.45,27.064z"/>
			<path fill="#FFFFFF" d="M57.285,35.77c-0.57-0.038-2.357-0.19-3.802-0.456c0.228,0.418,0.647,1.217,0.647,2.433
				c0,2.813-2.433,5.513-6.653,5.513c-0.722,0-1.064-0.076-1.748-0.305c-0.608,0.647-2.319,1.065-2.319,1.939
				c0,0.95,1.635,1.33,5.436,1.368c4.295,0.038,5.778,0.228,6.918,1.369c0.912,0.912,1.141,1.863,1.141,2.66
				c0,2.471-3.345,6.273-10.378,6.273c-3.954,0-5.854-1.749-5.854-3.612c0-2.205,2.319-2.547,4.067-4.676
				c-2.053-0.19-3.611-1.483-3.611-2.699c0-1.749,2.547-1.825,3.877-2.814c-2.319-0.912-3.649-2.547-3.649-4.714
				c0-3.269,2.927-5.817,6.69-5.817c1.749,0,3.232,0.532,4.258,1.521c1.711,0,3.307-0.19,4.98-0.38V35.77z M48.655,55.501
				c3.231,0,6.272-2.129,6.272-4.524c0-1.407-1.178-2.129-2.547-2.243c-0.989-0.114-5.778-0.152-6.881-0.304
				c-1.064,1.254-2.471,1.786-2.471,3.269C43.029,53.486,45.538,55.501,48.655,55.501z M47.591,32.957
				c-1.444,0-3.688,0.798-3.688,4.334c0,2.243,1.141,5.246,4.03,5.246c2.204,0,3.649-1.825,3.649-4.448
				C51.582,34.82,49.91,32.957,47.591,32.957z"/>
		</g>
		<g>
			<path fill="#FFFFFF" d="M3.728,54.467h0.428c0.362,1.085,1.007,1.644,1.873,1.644c0.723,0,1.271-0.46,1.271-1.073
				c0-1.633-3.518-1.578-3.518-3.747c0-1.052,0.921-1.786,2.224-1.786c0.844,0,1.501,0.285,1.666,0.285
				c0.077,0,0.142-0.022,0.241-0.12h0.23l0.208,1.774H7.913c-0.241-0.887-0.942-1.468-1.786-1.468c-0.613,0-1.074,0.329-1.074,0.756
				c0,1.008,1.819,1.195,3.046,2.421c0.449,0.45,0.625,0.921,0.625,1.447c0,1.139-1.03,2.038-2.334,2.038
				c-0.876,0-1.676-0.35-1.873-0.35c-0.099,0-0.176,0.055-0.23,0.175H4.002L3.728,54.467z"/>
			<path fill="#FFFFFF" d="M12.176,55.235c0,0.635,0.241,0.821,0.953,0.821h0.329v0.428H9.732v-0.428h0.164
				c0.602,0,0.767-0.132,0.767-0.624v-4.7c0-0.504-0.164-0.636-0.767-0.636H9.656v-0.427c0.427-0.022,1.019-0.088,1.775-0.121
				c0.723-0.033,1.435-0.055,1.742-0.055c2.115,0,3.013,1.02,3.013,2.148c0,1.271-1.073,2.081-2.761,2.081
				c-0.394,0-0.789-0.033-1.249-0.109V55.235z M12.176,53.164c0.23,0.055,0.471,0.077,0.789,0.077c1.019,0,1.589-0.592,1.589-1.666
				c0-1.007-0.592-1.6-1.6-1.6c-0.263,0-0.515,0.022-0.778,0.077V53.164z"/>
			<path fill="#FFFFFF" d="M21.84,50.271h-2.4v2.465h1.775c0.603,0,0.822-0.208,0.822-0.788h0.439v2.18h-0.439
				c0-0.592-0.142-0.789-0.985-0.789H19.44v1.972c0,0.472,0.087,0.57,0.405,0.57h1.83c0.712,0,1.051-0.197,1.259-1.117h0.417
				l-0.132,1.721h-6.596v-0.428h0.45c0.635,0,0.855-0.252,0.855-0.789v-4.372c0-0.592-0.198-0.8-0.954-0.8h-0.11v-0.427h6.037
				l0.11,1.589h-0.416C22.486,50.512,22.344,50.271,21.84,50.271z"/>
			<path fill="#FFFFFF" d="M26.333,53.953l-0.461,1.282c-0.197,0.559-0.187,0.821,0.866,0.821h0.142v0.428h-2.904v-0.428h0.165
				c0.526,0,0.8-0.241,1.074-1.007l1.873-5.227l-0.12-0.318h1.621l2.191,5.566c0.285,0.723,0.526,0.942,1.096,0.986v0.428h-3.561
				v-0.428h0.383c0.669,0,0.767-0.296,0.549-0.833l-0.515-1.27H26.333z M27.472,50.786l-0.921,2.564h1.929L27.472,50.786z"/>
			<path fill="#FFFFFF" d="M34.912,55.256c0,0.614,0.285,0.8,0.866,0.8h0.153v0.428h-3.572v-0.428h0.198
				c0.559,0,0.843-0.186,0.843-0.821v-4.306c0-0.58-0.208-0.833-0.854-0.833h-0.187v-0.427h3.572v0.427h-0.187
				c-0.712,0-0.833,0.274-0.833,0.876v1.972c0.439-0.055,0.953-0.339,1.446-0.832c0.362-0.362,1.063-1.249,1.063-1.654
				c0-0.23-0.197-0.362-0.657-0.362h-0.121v-0.427h2.926v0.427c-0.658,0.044-0.898,0.099-1.195,0.395
				c-0.493,0.493-0.997,1.545-1.808,2.158c0.317,0.164,0.822,0.734,1.161,1.172l0.953,1.217c0.559,0.723,0.986,1.019,1.665,1.019
				v0.428H36.61v-0.428c0.46,0,0.767-0.066,0.767-0.296c0-0.23-1.008-1.37-1.699-2.06c-0.35-0.35-0.504-0.395-0.767-0.395V55.256z"
				/>
		</g>
		<g>
			<path fill="#FAA21B" d="M68.833,26.587c0,0-0.067-3.224-3.843-3.224c-3.615,0-3.707,3.224-3.707,3.224v6.251h7.55V26.587z"/>
			<path fill="#FAA21B" d="M61.283,45.116c0,0,0.092,4.077,3.707,4.077c3.821,0,3.847-4.119,3.847-4.119v-9.785l-7.554,0.042V45.116
				z"/>
			<path fill="#FAA21B" d="M65.981,53.567l0.002-2.506c4.366-0.617,4.714-5.966,4.714-5.966l0.013-10.291h0.531v-1.355h-1.835v1.355
				h0.462l-0.013,9.982c0,0-0.023,5.461-4.723,5.461c-4.796,0-4.85-5.461-4.85-5.461v-9.982h0.494v-1.355H58.94v1.355h0.498v10.291
				c0,0,0.37,5.22,4.677,5.941v2.513c-7.433,0.136-8.078,2.712-8.078,2.712h18.075C74.112,56.26,72.893,53.831,65.981,53.567z"/>
			<polygon fill="#FAA21B" points="68.832,34.576 68.834,33.613 61.282,33.609 61.284,34.598 			"/>
		</g>
	</g>
	<g>
		<path fill="#FFFFFF" d="M77.292,54.825c0,0.805-0.631,1.435-1.452,1.435c-0.812,0-1.461-0.631-1.461-1.435
			c0-0.786,0.648-1.418,1.461-1.418C76.661,53.407,77.292,54.039,77.292,54.825z M74.742,54.825c0,0.631,0.467,1.133,1.106,1.133
			c0.623,0,1.08-0.501,1.08-1.123c0-0.631-0.458-1.141-1.089-1.141C75.209,53.693,74.742,54.203,74.742,54.825z M75.615,55.569
			h-0.329v-1.418c0.13-0.026,0.311-0.044,0.545-0.044c0.268,0,0.389,0.044,0.493,0.104c0.077,0.06,0.138,0.172,0.138,0.311
			c0,0.156-0.121,0.277-0.294,0.328v0.018c0.138,0.052,0.216,0.156,0.259,0.346c0.044,0.216,0.069,0.303,0.104,0.355h-0.355
			c-0.043-0.052-0.069-0.182-0.113-0.346c-0.025-0.156-0.112-0.225-0.294-0.225h-0.156V55.569z M75.624,54.765h0.156
			c0.182,0,0.329-0.061,0.329-0.208c0-0.13-0.095-0.216-0.303-0.216c-0.087,0-0.147,0.008-0.182,0.017V54.765z"/>
	</g>
</g>
</svg>
