<?xml version="1.0" encoding="utf-8"?>
<!-- Generator: Adobe Illustrator 28.1.0, SVG Export Plug-In . SVG Version: 6.00 Build 0)  -->
<svg version="1.2" baseProfile="tiny-ps" xmlns="http://www.w3.org/2000/svg" xmlns:xlink="http://www.w3.org/1999/xlink"  viewBox="0 0 64 64"  xml:space="preserve">
<title>Amicorp Group</title>
<g id="Bg">
	<rect fill="#00456F" width="64" height="64"/>
</g>
<g id="Logo">
	<g>
		<polyline fill="#FFFFFF" points="31.12,31.7 14.09,31.7 14.09,32.22 31.38,32.22 31.38,31.7 31.12,31.7 		"/>
		<polyline fill="#FFFFFF" points="31.12,28.63 14.09,28.63 14.09,29.15 31.38,29.15 31.38,28.63 31.12,28.63 		"/>
		<polyline fill="#FFFFFF" points="39.1,19.41 14.09,19.41 14.09,19.92 39.35,19.92 39.35,19.41 39.1,19.41 		"/>
		<polyline fill="#FFFFFF" points="31.12,22.48 14.09,22.48 14.09,23 31.38,23 31.38,22.48 31.12,22.48 		"/>
		<polyline fill="#FFFFFF" points="31.12,25.55 14.09,25.55 14.09,26.07 31.38,26.07 31.38,25.55 31.12,25.55 		"/>
		<path fill="#FFFFFF" d="M18.1,52.16l0.56-1.7l0.57,1.7H18.1 M20.99,54.14l-1.8-4.89l-0.07-0.09l-0.11-0.02h-0.43l-0.12,0.03
			l-0.06,0.11l-1.8,4.82l-0.03,0.07l-0.02,0.07l0.05,0.09l0.09,0.01h0.49c0.06,0,0.1-0.01,0.13-0.03l0.06-0.12l0.53-1.49h1.49
			l0.54,1.5l0.08,0.11c0.02,0.01,0.07,0.02,0.13,0.02h0.74l0.08-0.01l0.05-0.08L20.99,54.14z"/>
		<path fill="#FFFFFF" d="M25.72,54.16v-3.52l-1.45,3.56c-0.03,0.06-0.05,0.1-0.08,0.13l-0.11,0.03l-0.13-0.03
			c-0.03-0.03-0.06-0.07-0.08-0.13l-1.45-3.55v3.54c0,0.06-0.01,0.1-0.04,0.12l-0.12,0.03h-0.44c-0.06,0-0.1-0.01-0.13-0.03
			c-0.02-0.03-0.03-0.07-0.03-0.14v-4.88c-0.01-0.11,0.04-0.16,0.15-0.15h0.7c0.07,0,0.11,0.01,0.14,0.03
			c0.03,0.02,0.05,0.06,0.08,0.13l1.43,3.36l1.38-3.35c0.03-0.07,0.06-0.11,0.08-0.14c0.03-0.02,0.08-0.03,0.14-0.03h0.71
			c0.06,0,0.1,0.01,0.12,0.02c0.02,0.02,0.03,0.06,0.03,0.12v4.91c0,0.07-0.01,0.11-0.04,0.13c-0.02,0.03-0.07,0.03-0.14,0.03h-0.59
			c-0.07,0.01-0.11-0.01-0.14-0.03C25.73,54.28,25.72,54.23,25.72,54.16"/>
		<path fill="#FFFFFF" d="M29.03,49.3v4.88c0,0.07-0.01,0.11-0.04,0.13l-0.12,0.03h-0.68l-0.12-0.04c-0.03-0.02-0.04-0.06-0.04-0.13
			V49.3l0.03-0.12c0.02-0.03,0.06-0.04,0.12-0.04h0.7l0.12,0.03C29.02,49.19,29.03,49.23,29.03,49.3"/>
		<path fill="#FFFFFF" d="M33.36,50.31c-0.1-0.17-0.23-0.32-0.37-0.46c-0.14-0.14-0.35-0.21-0.61-0.22
			c-0.35,0.01-0.63,0.16-0.87,0.48c-0.23,0.32-0.35,0.77-0.36,1.36c0,0.48,0.08,0.89,0.22,1.22c0.14,0.33,0.33,0.58,0.57,0.76
			c0.24,0.17,0.5,0.26,0.79,0.26c0.24-0.01,0.43-0.05,0.58-0.12c0.15-0.07,0.25-0.13,0.31-0.18c0.07-0.05,0.12-0.08,0.16-0.1
			l0.11-0.03c0.07,0,0.12,0.03,0.16,0.07c0.05,0.04,0.07,0.1,0.08,0.18c-0.01,0.11-0.07,0.24-0.19,0.39
			c-0.12,0.15-0.31,0.27-0.55,0.39c-0.24,0.11-0.55,0.17-0.9,0.18c-0.55-0.01-1-0.14-1.36-0.4c-0.35-0.26-0.62-0.59-0.79-1.01
			c-0.17-0.41-0.26-0.86-0.25-1.34c0-0.5,0.09-0.95,0.28-1.36c0.19-0.41,0.46-0.72,0.81-0.96c0.35-0.24,0.78-0.36,1.29-0.37
			c0.36,0.01,0.66,0.06,0.93,0.18c0.26,0.11,0.45,0.25,0.59,0.42c0.14,0.17,0.21,0.32,0.21,0.48c-0.01,0.13-0.05,0.23-0.13,0.31
			c-0.08,0.08-0.18,0.12-0.31,0.12C33.57,50.53,33.44,50.45,33.36,50.31"/>
		<path fill="#FFFFFF" d="M38.36,52.4c-0.04,0.27-0.12,0.5-0.23,0.72c-0.14,0.23-0.3,0.4-0.49,0.5c-0.18,0.1-0.35,0.14-0.52,0.14
			c-0.1,0.01-0.24-0.02-0.41-0.08c-0.17-0.06-0.33-0.19-0.5-0.38c-0.16-0.19-0.28-0.49-0.36-0.88c-0.04-0.2-0.06-0.46-0.06-0.74
			c0-0.14,0.01-0.33,0.04-0.57c0.03-0.24,0.09-0.48,0.2-0.72c0.1-0.24,0.28-0.44,0.52-0.58c0.17-0.1,0.35-0.15,0.55-0.15
			c0.05,0,0.13,0.01,0.24,0.03c0.11,0.02,0.23,0.07,0.36,0.15c0.13,0.08,0.26,0.22,0.38,0.4c0.14,0.23,0.23,0.47,0.27,0.72
			c0.04,0.25,0.06,0.48,0.06,0.68C38.42,51.88,38.4,52.14,38.36,52.4 M39.15,50.32c-0.18-0.39-0.45-0.7-0.79-0.94
			c-0.34-0.23-0.75-0.36-1.24-0.36c-0.5,0-0.93,0.13-1.28,0.37c-0.35,0.24-0.62,0.57-0.8,0.98c-0.19,0.41-0.28,0.87-0.28,1.39
			c0,0.6,0.12,1.1,0.33,1.49c0.21,0.4,0.5,0.71,0.85,0.91c0.35,0.21,0.74,0.31,1.17,0.31c0.47,0,0.89-0.13,1.25-0.37
			c0.36-0.24,0.63-0.58,0.83-1.01c0.19-0.43,0.28-0.92,0.26-1.47C39.43,51.14,39.33,50.71,39.15,50.32z"/>
		<path fill="#FFFFFF" d="M41.96,51.64c-0.05,0.01-0.12,0.01-0.18,0.01c-0.07,0-0.17,0-0.3,0v-1.98c0.07-0.01,0.18-0.02,0.33-0.02
			c0.1-0.01,0.24,0.01,0.4,0.04c0.16,0.03,0.31,0.12,0.44,0.26c0.13,0.14,0.2,0.37,0.21,0.7c-0.01,0.34-0.1,0.59-0.29,0.74
			C42.39,51.54,42.19,51.63,41.96,51.64 M44.08,54.09l-1.38-2.17c0.18-0.05,0.35-0.14,0.53-0.25c0.17-0.11,0.32-0.27,0.44-0.46
			c0.12-0.19,0.18-0.41,0.18-0.68c0-0.21-0.04-0.41-0.12-0.6c-0.08-0.19-0.2-0.35-0.36-0.48c-0.24-0.17-0.49-0.28-0.77-0.32
			c-0.28-0.05-0.53-0.06-0.76-0.05c-0.16,0-0.33,0.01-0.49,0.01c-0.17,0.01-0.31,0.02-0.44,0.04c-0.13,0.02-0.23,0.04-0.28,0.06
			l-0.1,0.07c-0.02,0.03-0.03,0.09-0.03,0.17v4.75c0,0.07,0.02,0.11,0.04,0.13l0.12,0.03h0.64c0.07,0,0.12-0.01,0.14-0.04
			c0.02-0.03,0.03-0.07,0.03-0.13V52.3l0.02-0.12c0.02-0.04,0.06-0.06,0.14-0.07c0.07,0,0.13,0.03,0.17,0.07l0.09,0.12l1.11,1.88
			c0.03,0.06,0.06,0.1,0.09,0.12c0.03,0.02,0.08,0.03,0.15,0.03h0.75l0.09-0.01l0.05-0.09L44.08,54.09z"/>
		<path fill="#FFFFFF" d="M47.29,51.29c-0.12,0.15-0.27,0.24-0.45,0.29c-0.18,0.04-0.35,0.07-0.53,0.06c-0.11,0-0.21-0.01-0.3-0.02
			v-1.95c0.08-0.02,0.19-0.03,0.35-0.03c0.11-0.01,0.26,0.01,0.43,0.04c0.17,0.04,0.33,0.12,0.47,0.26
			c0.13,0.14,0.21,0.36,0.22,0.67C47.48,50.93,47.42,51.15,47.29,51.29 M48.25,49.73c-0.17-0.21-0.37-0.37-0.61-0.46
			c-0.24-0.09-0.47-0.15-0.7-0.17c-0.23-0.02-0.4-0.03-0.52-0.02c-0.17,0-0.34,0-0.52,0.02c-0.17,0.01-0.33,0.02-0.47,0.04
			c-0.14,0.02-0.24,0.04-0.3,0.06l-0.1,0.07c-0.01,0.03-0.02,0.08-0.02,0.15v4.76l0.03,0.12c0.02,0.03,0.07,0.04,0.13,0.04h0.68
			l0.12-0.02c0.03-0.02,0.04-0.06,0.04-0.13v-1.97c0.09,0.01,0.17,0.01,0.23,0.02c0.06,0,0.13,0.01,0.2,0.01
			c0.38,0,0.72-0.05,1.03-0.16c0.31-0.11,0.56-0.28,0.74-0.52c0.19-0.23,0.28-0.55,0.29-0.92C48.5,50.24,48.41,49.95,48.25,49.73z"
			/>
		<path fill="#FFFFFF" d="M48.61,54.41c-0.05,0.08-0.12,0.15-0.2,0.2c-0.08,0.05-0.18,0.07-0.28,0.07c-0.1,0-0.19-0.03-0.28-0.07
			c-0.08-0.05-0.15-0.12-0.2-0.2c-0.05-0.08-0.07-0.18-0.07-0.28c0-0.1,0.02-0.19,0.07-0.28c0.05-0.08,0.12-0.15,0.2-0.19
			c0.08-0.05,0.18-0.08,0.28-0.08c0.11,0,0.2,0.02,0.28,0.08c0.08,0.05,0.14,0.12,0.19,0.2c0.05,0.08,0.07,0.18,0.07,0.28
			C48.69,54.24,48.66,54.33,48.61,54.41 M48.66,53.83c-0.05-0.09-0.12-0.17-0.21-0.22c-0.09-0.05-0.2-0.08-0.31-0.09
			c-0.11,0-0.21,0.03-0.3,0.08c-0.09,0.05-0.16,0.12-0.22,0.21c-0.05,0.09-0.08,0.19-0.08,0.31c0,0.12,0.03,0.23,0.08,0.31
			c0.06,0.09,0.13,0.16,0.22,0.21c0.09,0.05,0.19,0.08,0.3,0.08c0.11,0,0.21-0.03,0.31-0.08c0.09-0.05,0.16-0.13,0.22-0.22
			c0.05-0.09,0.08-0.19,0.08-0.31C48.74,54.02,48.71,53.92,48.66,53.83z"/>
		<path fill="#FFFFFF" d="M48.25,54.02l-0.06,0.02l-0.07,0h-0.09v-0.18h0.12l0.06,0.01l0.05,0.02l0.03,0.06L48.25,54.02
			 M48.42,54.41l-0.03-0.13l-0.03-0.11l-0.06-0.04l0.05-0.02l0.07-0.06l0.03-0.1l-0.03-0.1l-0.1-0.08l-0.08-0.02l-0.1,0h-0.26v0.77
			h0.16v-0.33l0.12,0.01l0.05,0.05l0.03,0.11l0.01,0.08l0.03,0.08h0.19L48.42,54.41z"/>
		<path fill="#FFFFFF" d="M32.41,9.33c0,0.07,0,0.14,0,0.2h0.14c0-0.07,0-0.14,0-0.2h0.07c0.01,0.03-0.05,0.21,0.07,0.14
			c0-0.01-0.01-0.24,0.07-0.14v0.14h0.07c0,0.07,0,0.13,0,0.2c0.11,0,0.22,0,0.33,0c0.02-0.07,0.04-0.13,0.07-0.2
			c-0.09-0.06-0.08-0.05-0.14-0.14c0.08-0.06,0.01,0.01,0.07-0.07c0.4,0.05,0.8,0.09,1.21,0.13c0,0.09,0,0.18,0,0.27h0.13V9.53
			c0.2,0,0.4,0,0.6,0V9.6c0.09,0,0.18,0,0.27,0c0.34,0.11,0.38,0.13,0.73,0.07c0.02,0.07,0.04,0.14,0.07,0.2
			c0.29,0.02,0.58,0.05,0.86,0.07c0.05,0.09,0.09,0.18,0.14,0.27h0.13v0.06c0.22,0,0.44,0,0.67,0c0.04,0.09,0.09,0.18,0.13,0.27
			c0.15,0,0.31,0,0.47,0v0.07c0.09,0.07,0.18,0.14,0.27,0.2v0.14c0.11,0,0.23,0,0.33,0v0.13c0.07-0.02,0.13-0.04,0.2-0.07
			c0,0.07,0,0.13,0,0.2c0.18,0,0.35,0,0.53,0c0.11,0.16,0.22,0.31,0.34,0.47c0.14,0,0.27,0,0.4,0v0.14
			c0.16,0.05,0.32,0.09,0.47,0.13c0.07,0.09-0.03,0.21,0.07,0.27c0.24,0.15,0.34-0.21,0.46,0.27c0.3,0.03,0.4,0.12,0.73,0.13
			c0,0.09,0,0.18,0,0.27h0.14V13c0.09,0,0.18,0,0.26,0c0.04,0.2,0.13,0.31,0.2,0.47c0.12-0.06,0.1-0.09,0.27-0.14
			c0,0.07,0,0.14,0,0.2c0.14,0.03,0.27,0.04,0.4,0.07v0.07h0.07c0,0.13,0,0.27,0,0.4c0.09,0,0.18,0,0.27,0
			c0.02,0.07,0.04,0.14,0.06,0.2c0.07-0.02,0.13-0.04,0.2-0.07c0,0.09,0,0.18,0,0.27c0.16,0.03,0.4,0.08,0.47,0.2
			c0,0.07,0,0.13,0,0.2c0.06,0.16,0.13,0.12,0.33,0.13c0,0.13,0,0.27,0,0.41c0.28,0.06,0.07,0.06,0.2,0.2l0.13-0.07
			c0,0.11,0,0.22,0,0.34h0.07c0.05-0.09,0.05-0.08,0.13-0.13c0.04,0.13,0.09,0.27,0.13,0.4c0.07,0,0.13,0,0.2,0
			c0.02,0.24,0.09,0.33,0.13,0.54c0.11,0.05,0.22,0.09,0.33,0.14c-0.02,0.09-0.04,0.18-0.06,0.27c0.06,0,0.13,0,0.2,0v0.07h0.07
			c0,0.11,0,0.22,0,0.33c0.11,0.07,0.22,0.13,0.33,0.2c0,0.07,0,0.13,0,0.2c0.12,0.27,0.02,0.31,0.4,0.33c0,0.13,0,0.27,0,0.4
			c0.07,0.02,0.13,0.05,0.2,0.07v0.07h0.07c0,0.16,0,0.31,0,0.47c0.11,0.07,0.22,0.13,0.33,0.2c0.05,0.22,0.09,0.44,0.14,0.67
			c0.06,0.02,0.13,0.04,0.2,0.07c0,0.28,0.01,0.39,0.13,0.53l0.13,0.07c0,0.11,0,0.22,0,0.33c0.07,0.05,0.14,0.09,0.2,0.13
			c0.07,0.14-0.05,0.27-0.06,0.34c0.06,0.04,0.13,0.09,0.2,0.13v0.13h0.07c0,0.18,0,0.35,0,0.53l0.13,0.07v0.13l0.13,0.07
			c0,0.2,0,0.4,0,0.6h0.06v0.13l0.13,0.07c0,0.09,0,0.18,0,0.27h0.07c0,0.33,0,0.66,0,1h0.06v0.13l0.14,0.07c0,0.16,0,0.31,0,0.47
			h0.07c-0.02,0.31-0.05,0.62-0.07,0.94h0.07c0,0.13,0,0.27,0,0.4h0.07v0.13h0.06c0.02,0.58,0.04,1.16,0.07,1.74h-0.07
			c0,0.22,0,0.44,0,0.67c-0.07,0.24-0.18,0.52-0.2,0.8c-0.2,0.06-0.18,0.04-0.2,0.27c0.29,0.25,0.02,0.66-0.07,0.93
			c0,0.27,0,0.53,0,0.8c-0.07,0-0.13,0-0.2,0c-0.05,0.27-0.09,0.53-0.13,0.8c-0.07-0.02-0.13-0.04-0.2-0.07c0,0.22,0.08,0.2,0,0.34
			l-0.14,0.07c0,0.18,0,0.36,0,0.53c-0.06,0.04-0.13,0.09-0.2,0.13c-0.02,0.22-0.04,0.44-0.07,0.67c-0.07,0-0.13,0-0.2,0
			c0,0.13,0,0.27,0,0.4h-0.13c-0.01,0.24-0.04,0.26-0.13,0.4h-0.07c0,0.09,0,0.18,0,0.27h-0.06c-0.02,0.07-0.04,0.13-0.07,0.2
			c-0.07-0.02-0.14-0.05-0.2-0.07c0,0.13,0,0.27,0,0.4c-0.24,0.06-0.21,0.18-0.2,0.47c-0.27,0.02-0.41,0.11-0.6,0.2
			c0.02,0.07,0.05,0.13,0.07,0.2c-0.07,0-0.13,0-0.2,0v0.07c0.08,0.08,0.03,0,0.07,0.13h-0.14c0,0.18,0,0.36,0,0.54
			c-0.13,0.06-0.19,0.09-0.27,0.2h-0.07v-0.07c-0.03,0-0.15,0.06-0.27,0.07c-0.04,0.13,0.02,0.06-0.06,0.13v-0.07h-0.07
			c0,0.11,0,0.23,0,0.33h-0.07c-0.22,0.28-0.29-0.03-0.33,0.47c-0.21,0-0.35-0.02-0.47-0.06c0.09,0.23,0.16,0.39-0.13,0.47
			c-0.06,0.08,0.01,0.01-0.06,0.07c0-0.07,0-0.13,0-0.2H44.7v0.13h-0.07c0,0.18,0,0.36,0,0.54h-0.07v0.07c-0.11,0-0.22,0-0.33,0
			c-0.04,0.13-0.09,0.27-0.13,0.4c-0.16,0-0.17,0.04-0.27,0.06v-0.13c-0.07-0.06-0.06,0.06-0.06,0.07H43.7v0.14
			c-0.06,0.06-0.14,0.05-0.2,0.13c-0.11,0-0.22,0-0.33,0c-0.04,0.16-0.16,0.32-0.27,0.4v-0.07c-0.06,0-0.13,0-0.2,0
			c0.01-0.15,0.07-0.23,0.07-0.27H42.7v-0.07c-0.07,0.05-0.06,0.08-0.14,0.13c0.05,0.22,0.1,0.15,0.14,0.4h-0.14
			c-0.02,0.09-0.05,0.18-0.06,0.27c-0.09,0-0.18,0-0.27,0c0,0.07,0,0.13,0,0.2c-0.34,0.01-0.51,0.14-0.8,0.2
			c-0.03,0.16-0.08,0.21-0.13,0.34c-0.21-0.01-0.12-0.13-0.2,0.07c-0.31,0.03-0.39,0.13-0.8,0.13v-0.13c-0.08,0.07-0.02,0-0.06,0.13
			h-0.07c0,0.07,0,0.13,0,0.2c-0.09-0.02-0.18-0.04-0.27-0.07v0.13c-0.07,0-0.13,0-0.2,0c0-0.09,0-0.18,0-0.27
			c-0.11,0-0.22,0-0.33,0c-0.05,0.13-0.09,0.27-0.13,0.4c-0.13-0.02-0.27-0.05-0.4-0.07v0.07c0.07,0.06,0.09,0.12,0.13,0.2
			c-0.06,0-0.13,0-0.2,0c0-0.07,0-0.13,0-0.2h-0.06v0.13c-0.07-0.02-0.14-0.04-0.21-0.06v0.06c-0.16,0.14-0.05,0.22-0.13,0.33h-0.07
			V43c-0.09,0.02-0.18,0.04-0.27,0.07c0-0.07,0-0.13,0-0.2h-0.06c0,0.09,0,0.18,0,0.27c-0.07,0-0.14,0-0.2,0v0.13
			c-0.13-0.04-0.06,0.01-0.13-0.06c-0.21,0.05-0.25,0.16-0.4,0.26v0.07c-0.27,0.13-0.84-0.13-1.06,0.07c-0.08,0.08-0.03,0-0.07,0.13
			c-0.18,0.02-0.36,0.04-0.53,0.07v-0.07c-0.11,0-0.22,0-0.33,0v0.07c-0.13,0.09-0.15,0.15-0.33,0.2v-0.13
			c-0.07,0.08-0.03,0-0.07,0.13h-0.13v-0.13c-0.08,0.08-0.03,0-0.07,0.13c-0.14,0-0.27,0-0.4,0c-0.02-0.11-0.04-0.22-0.07-0.34
			h-0.07c0,0.07,0,0.13,0,0.2h-0.07c-0.04-0.13,0.01-0.06-0.07-0.13c0.03,0.09,0.04,0.18,0.07,0.27h-0.07
			c-0.12,0.11-0.5,0.07-0.73,0.07V44c-0.07,0-0.14,0-0.2,0v-0.07c-0.08-0.07-0.03,0-0.07-0.13c-0.07,0-0.13,0-0.2,0v0.07
			c-0.08,0.08-0.03,0-0.07,0.13c-0.35,0.07-0.88,0.07-1.34,0.07c0-0.09,0-0.18,0-0.27c-0.27,0.07-0.07,0.06-0.2,0.2
			c-0.1-0.05-0.17-0.23-0.2-0.2v0.07c-0.07,0.05-0.07,0.08-0.14,0.13c0-0.07,0-0.13,0-0.2c-0.36,0-0.71,0-1.07,0
			c0-0.07,0-0.13,0-0.2h-0.07v0.07c-0.12-0.01-0.12-0.21-0.33-0.13l-0.13,0.13c0-0.07,0-0.13,0-0.2c-0.22-0.04-0.45-0.09-0.67-0.13
			c-0.02-0.07-0.04-0.13-0.07-0.2H28.4l-0.06,0.13H28.2v-0.13c-0.15,0-0.17,0.06-0.26,0.07l-0.07-0.14h-0.13V43
			c-0.11,0.02-0.22,0.04-0.33,0.07c-0.06-0.23-0.08-0.13-0.2-0.27c-0.09,0.02-0.18,0.04-0.27,0.07v0.07
			c-0.09-0.02-0.18-0.04-0.27-0.07c0-0.07,0-0.14,0-0.2H26.6c-0.25-0.3-0.77-0.28-1.33-0.27c0-0.07,0-0.14,0-0.2
			c-0.14-0.02-0.27-0.04-0.4-0.07v-0.06c-0.21-0.2-0.03-0.31-0.46-0.34V41.6c-0.11-0.04-0.16-0.06-0.33-0.07c0-0.06,0-0.13,0-0.2
			h-0.13c0,0.06,0,0.13,0,0.2h-0.07c-0.16-0.24-0.44-0.15-0.53-0.46c-0.07,0-0.13,0-0.2,0c0.02-0.07,0.04-0.14,0.07-0.2h-0.13
			c-0.08,0.11-0.04,0.09-0.2,0.13c0-0.07,0-0.13,0-0.2c-0.09,0-0.18,0-0.26,0c-0.02-0.09-0.04-0.18-0.07-0.27c-0.09,0-0.18,0-0.27,0
			c-0.15-0.39-0.08-0.26-0.47-0.4c0-0.07,0-0.13,0-0.2c-0.22-0.04-0.45-0.09-0.67-0.13c-0.06-0.25-0.21-0.34-0.27-0.6
			c-0.21-0.05-0.19-0.08-0.2-0.33c-0.11,0-0.22,0-0.33,0v-0.13c-0.09-0.04-0.18-0.09-0.27-0.13v-0.13l-0.13-0.07
			c-0.13-0.21,0.12-0.17-0.2-0.27c0-0.07,0-0.13,0-0.2c-0.11-0.02-0.22-0.05-0.34-0.07c-0.07-0.17-0.16-0.27-0.2-0.47
			c-0.07,0.02-0.13,0.05-0.2,0.07c-0.05-0.37-0.12-0.24-0.34-0.4l-0.07-0.13h-0.06c-0.08-0.2-0.14-0.4-0.2-0.6h-0.07
			c-0.23-0.23-0.29,0-0.33-0.47h-0.14c0-0.11,0-0.22,0-0.34c-0.09-0.04-0.08-0.1-0.13-0.13c-0.2-0.14-0.25-0.05-0.27-0.4h-0.13
			c-0.02-0.29-0.09-0.3-0.2-0.47h-0.07c0-0.11,0-0.22,0-0.33l-0.13-0.07v-0.13h-0.07c0-0.09,0-0.18,0-0.27
			c-0.09-0.04-0.18-0.09-0.26-0.13c0-0.13,0-0.27,0-0.4c-0.07-0.05-0.13-0.09-0.2-0.14c0-0.11,0-0.22,0-0.33
			c-0.06-0.04-0.13-0.09-0.2-0.13c0-0.18,0-0.36,0-0.53c-0.09-0.3-0.24-0.7-0.33-1c0.02-0.25,0.05-0.49,0.07-0.73
			c-0.07-0.05-0.13-0.09-0.2-0.14c0-0.09,0-0.18,0-0.27h-0.07c-0.02-0.49-0.04-0.98-0.07-1.47h0.07v-0.07h-0.07
			c0-0.15,0-0.31,0-0.47h0.07v-0.06h-0.07c0-0.13,0-0.27,0-0.4h0.07c0-0.09,0-0.18,0-0.27h0.07c0-0.16,0-0.31,0-0.47h-0.07v-0.07
			h0.07c0-0.11,0-0.22,0-0.33h0.07c0-0.07,0-0.13,0-0.2h0.07v-0.13h0.07c0-0.07,0-0.13,0-0.2h0.07v-0.13h0.07c0-0.07,0-0.13,0-0.2
			h0.06c0-0.2,0-0.4,0-0.6c0.24-0.06,0.21-0.17,0.2-0.47c0.09,0,0.18,0,0.27,0c0-0.09,0-0.17,0-0.27c0.07-0.02,0.13-0.04,0.2-0.07
			c0.02-0.14,0.06-0.13,0.06-0.13c0-0.27,0-0.54,0-0.8h0.07c0.08-0.08,0-0.03,0.13-0.07v0.13h0.14c0.02-0.09,0.04-0.18,0.06-0.27
			h-0.13v-0.07h0.07c0.22-0.35,0.46-0.17,0.67-0.67c0.3,0.09,0.11,0.01,0.4-0.07c0,0.18,0.02,0.38-0.07,0.47
			c-0.07,0.02-0.13,0.04-0.2,0.07c0,0.11,0,0.22,0,0.33c-0.09,0.07-0.18,0.14-0.27,0.2c0,0.2,0,0.4,0,0.6
			c-0.09,0.02-0.18,0.05-0.27,0.06V23.7c-0.08,0.07-0.03,0-0.07,0.13h-0.07c0,0.14,0,0.27,0,0.4c-0.07-0.02-0.13-0.04-0.2-0.07
			c0,0.07,0,0.14,0,0.2h0.07v0.07h-0.07c-0.08,0.08,0,0.03-0.14,0.07c0,0.09,0,0.18,0,0.27h0.07v0.07h-0.07
			c-0.07,0.21-0.11,0.33-0.2,0.53h-0.07c0.02,0.16,0.04,0.31,0.07,0.47h-0.07c-0.03,0.09-0.05,0.18-0.07,0.27h-0.07
			c0,0.38,0,0.76,0,1.14l-0.13,0.07v0.14h-0.07c0,0.2,0,0.4,0,0.6c0,0.24-0.09,0.74,0,1h0.07v0.13h0.07c0,0.4,0,0.8,0,1.2
			c0,0,0.04,0.01,0.07,0.13h0.13c0.02,0.26,0.14,0.42,0.2,0.6c0.07,0.22-0.13,0.19,0,0.4c0.06,0.04,0.13,0.09,0.2,0.13
			c0.12,0.2-0.09,0.24,0,0.4h0.07c0.07,0.07,0,0.03,0.13,0.06c0,0.09,0,0.18,0,0.27c0.07,0.02,0.13,0.04,0.2,0.07
			c0,0.16,0,0.31,0,0.47c0.07,0.02,0.13,0.04,0.2,0.07c0.01,0.26,0.04,0.36,0.2,0.47c0.08,0.07,0,0.03,0.13,0.07
			c0.09,0.27,0.18,0.54,0.27,0.8c0.07,0.03,0.13,0.05,0.2,0.07c0,0,0.01-0.14,0.08-0.07v0.14c0.07,0.08,0.02,0,0.06,0.13
			c0.11,0,0.22,0,0.33,0v0.13h-0.13c0.02,0.07,0.05,0.13,0.07,0.2c0.06-0.05,0.06-0.08,0.13-0.13c-0.01,0.24,0.01,0.38,0.07,0.53
			c0.07,0.02,0.13,0.04,0.2,0.06c-0.02,0.29-0.04,0.58-0.07,0.87h0.07c0.04-0.05,0.04-0.14,0.13-0.13c0,0.05-0.04,0.19,0.07,0.13
			v-0.07c0.08-0.08,0.03,0,0.06-0.14c0.36-0.02,0.22-0.05,0.4-0.2c0,0.24,0,0.49,0,0.73c0.29,0.05,0.46,0.14,0.6,0.33h0.07
			c0.02,0.13,0.05,0.27,0.07,0.4h0.07c0-0.07,0-0.13,0-0.2h0.07c0.07,0.08,0,0.03,0.13,0.07c0,0.07,0,0.13,0,0.2
			c0.09,0.02,0.18,0.05,0.27,0.07c-0.01,0.46,0.07,0.68,0.14,1c0.07,0,0.13,0,0.2,0v0.07h-0.07c-0.08,0.08,0,0.03-0.13,0.07
			c0,0.09,0,0.18,0,0.27c0.09,0,0.18,0,0.27,0c0,0.07,0,0.13,0,0.2c0.07,0.02,0.13,0.04,0.2,0.07c0-0.11,0-0.22,0-0.34
			c0.08-0.05,0.01,0.01,0.07-0.06c-0.07-0.02-0.14-0.04-0.2-0.07v0.07h-0.07c0-0.2,0-0.4,0-0.6h-0.13c0.02-0.09,0.04-0.18,0.07-0.27
			h-0.07c-0.06,0.07-0.12,0.09-0.2,0.13c0-0.09,0-0.18,0-0.27c0.07,0,0.14,0,0.2,0c0-0.11,0-0.22,0-0.33h-0.07v-0.07h0.07v-0.13
			c0.08-0.06,0.01,0.01,0.07-0.07h0.06c0.05,0.39,0.21,0.26,0.4,0.47c-0.2,0.11-0.2,0.22-0.2,0.54c0.07,0,0.13,0,0.2,0
			c0.04,0.25,0.03,0.24,0.07,0.47h0.07c0-0.07,0-0.13,0-0.2h0.06v0.07c0.07,0.06,0.09,0.11,0.13,0.2h0.07
			c0.02-0.07,0.04-0.13,0.06-0.2h0.07v0.13h0.13c0,0.11,0,0.22,0,0.34h-0.07c-0.04-0.14,0.01-0.06-0.07-0.14c0,0.11,0,0.22,0,0.34
			h0.07c0,0.07,0,0.13,0,0.2c0.13,0,0.26,0,0.4,0v0.07l0.13-0.07v0.13c0.07,0,0.14,0,0.2,0v0.07c-0.12,0.08-0.09,0.04-0.13,0.2
			l0.13,0.07v0.06c0.11,0.02,0.22,0.05,0.33,0.07v-0.07h0.07c0.08-0.11-0.03-0.37-0.07-0.4c0.09,0,0.18,0,0.27,0
			c0-0.11,0-0.22,0-0.33c0.07-0.06,0.01,0,0.07-0.07c0.11-0.02,0.22-0.05,0.33-0.07v0.13h0.13c-0.07,0.07,0,0.03-0.13,0.07
			c0,0.07,0,0.13,0,0.2h0.13c0,0.11,0,0.22,0,0.34c0.22,0.05,0.2,0.08,0.2,0.34c0.09-0.02,0.18-0.05,0.27-0.07
			c0.02,0.09,0.04,0.18,0.07,0.26c0.26,0.04,0.48,0.11,0.67,0.2c-0.03,0.16-0.06,0.25-0.07,0.47h0.14v0.14l-0.14,0.06
			c-0.08,0.18-0.01,0.41,0.14,0.27c0,0.11,0,0.22,0,0.33h0.07c0-0.13,0-0.26,0-0.4c0.09,0,0.17,0,0.26,0c0-0.26-0.03-0.42-0.07-0.6
			h-0.13c-0.02-0.2-0.05-0.4-0.06-0.6h-0.14c0-0.07,0-0.13,0-0.2l0.14-0.07v-0.06c0.06-0.13,0.06,0.13,0.06,0.13H26v-0.13
			c0.07,0,0.13,0,0.2,0c0,0.06,0,0.13,0,0.2c0.2,0.02,0.4,0.04,0.6,0.07v0.13c0.27-0.05,0.27-0.11,0.47,0.06l0.07,0.13
			c0.11,0,0.22,0,0.33,0l0.07,0.14c0.09,0.09,0.09,0.03,0.13,0.2H27.8c-0.07,0.08,0,0.03-0.13,0.07c-0.02,0.16-0.04,0.31-0.06,0.47
			c0.16-0.04,0.14-0.07,0.26-0.14c0.02,0.2,0.04,0.4,0.07,0.6h-0.07c0-0.07,0-0.13,0-0.2H27.8v0.07h-0.07c0,0.06,0,0.13,0,0.2
			c-0.22,0.02-0.45,0.04-0.67,0.07c-0.06-0.08,0.01-0.01-0.07-0.07c0-0.07,0-0.14,0-0.2c0.07,0.02,0.14,0.04,0.2,0.06
			c0-0.09,0-0.18,0-0.27l0.14,0.07c0-0.23,0-0.45,0-0.67h0.06c-0.02-0.07-0.04-0.13-0.06-0.2h-0.07v0.13
			c-0.16-0.01-0.17-0.02-0.27-0.07v0.07h-0.07c-0.12,0.22,0.11,0.67-0.06,0.87c-0.01-0.18-0.03-0.23-0.07-0.33c-0.07,0-0.13,0-0.2,0
			c0-0.06,0-0.14,0-0.2h-0.06c-0.08,0.11-0.05,0.09-0.2,0.14c0,0.09,0,0.18,0,0.26c0.07-0.02,0.14-0.05,0.2-0.07
			c0.03,0.24,0.09,0.49,0.26,0.61v0.07c0.07,0,0.13,0,0.2,0c0,0.06,0,0.13,0,0.2c0.18,0,0.36,0,0.54,0c0-0.09,0-0.18,0-0.26
			c0.18,0,0.35,0,0.53,0c0.08-0.14,0.15-0.15,0.2-0.34c0.33,0.02,0.67,0.05,1,0.07c0.05-0.07-0.01-0.01,0.07-0.07
			c0-0.06,0-0.13,0-0.2c0.19-0.05,0.15-0.02,0.2-0.2c0.11,0,0.22,0,0.33,0v0.07h-0.06c0,0.16,0,0.31,0,0.47h0.13v-0.14
			c0.14,0,0.27,0,0.4,0c0.09,0.01-0.03,0.07,0.07,0.07v-0.07h0.13c0-0.06,0-0.13,0-0.2c0.07,0.02,0.14,0.04,0.2,0.06v-0.13
			c0.2-0.02,0.4-0.04,0.6-0.06c0-0.07,0-0.13,0-0.2h0.07v0.14c0.18-0.05,0.15-0.02,0.2-0.2h0.13v0.14c0.15,0.02,0.17,0.01,0.26,0.06
			v0.07c0.07,0,0.13,0,0.2,0v0.06c0.27-0.04,0.53-0.09,0.8-0.13c0.07,0.16,0.15,0.22,0.2,0.4c-0.11-0.02-0.23-0.04-0.33-0.06
			c0,0.06,0,0.13,0,0.2h0.07c0.08,0.1,0.18,0.16,0.33,0.2c0-0.07,0-0.14,0-0.2h0.14c0.04-0.1,0.05-0.11,0.07-0.27h-0.07
			c0-0.06,0-0.13,0-0.2c0.11-0.02,0.22-0.04,0.34-0.07l0.06,0.13c0.21,0.1,0.18,0.01,0.33-0.06c0,0.11,0,0.22,0,0.33h0.07
			c0,0.18,0,0.36,0,0.53c0.07-0.02,0.14-0.04,0.21-0.07c0-0.06,0-0.13,0-0.2L34.28,42c0-0.09,0-0.18,0-0.27
			c0.07-0.07,0.03,0,0.07-0.13h0.07v0.13c0.11-0.02,0.07-0.09,0.26-0.13c0-0.09,0-0.18,0-0.27c0.13-0.05,0.26-0.07,0.47-0.07v0.13
			h0.07c0.02-0.23,0-0.21,0.2-0.27v-0.13c0.16,0.04,0.15,0.07,0.27,0.13v-0.13c0.13,0.02,0.27,0.04,0.4,0.07l0.07-0.14
			c0.18-0.02,0.35-0.04,0.53-0.07v0.07c0.11,0.02,0.22,0.05,0.33,0.07c0-0.07,0-0.13,0-0.2c0.14,0.02,0.27,0.05,0.4,0.07v-0.14
			c0.22-0.04,0.44-0.09,0.67-0.13c0-0.07,0-0.13,0-0.2c0.22,0.02,0.45,0.05,0.67,0.07v-0.07h0.14v-0.06
			c0.06-0.03,0.13-0.05,0.2-0.07v-0.13l0.13,0.07c0,0,0.01-0.15,0.07-0.07v0.13c0.11,0,0.22,0,0.33,0c0.02-0.06,0.04-0.13,0.06-0.2
			c0.13,0,0.27,0,0.4,0c0-0.09,0-0.18,0-0.27c0.27-0.02,0.53-0.05,0.8-0.07c0.07-0.11,0.14-0.22,0.2-0.34
			c0.2-0.1,0.46,0.06,0.6-0.07h0.07c0-0.11,0-0.22,0-0.33h0.13v0.13h0.13c0-0.07,0-0.13,0-0.2h0.07v-0.07c0.13,0,0.26,0,0.4,0
			c0.04-0.17,0.03-0.11,0.13-0.2v-0.07h0.13v-0.07c0.12-0.1,0.22-0.16,0.4-0.2v-0.13c0.09-0.03,0.18-0.05,0.27-0.07v-0.07
			c0.06,0,0.13,0,0.2,0v-0.07c0.07-0.04,0.13-0.09,0.2-0.13v-0.13c0.07-0.07,0.14-0.05,0.27-0.07c0-0.07,0-0.13,0-0.2
			c0.17-0.03,0.29-0.07,0.53-0.07c0.02-0.11,0.04-0.22,0.07-0.33h0.07c0.07-0.08,0-0.03,0.13-0.07c0-0.07,0-0.13,0-0.2
			c0.18-0.09,0.11-0.12,0.4-0.13c0,0.07,0,0.13,0,0.2h0.07v-0.07c0.07,0,0.13,0,0.2,0c0.02-0.06,0.04-0.13,0.06-0.2h-0.06
			c0-0.13,0-0.27,0-0.4c0.09-0.04,0.18-0.09,0.27-0.14v-0.13c0.08-0.08,0.24-0.07,0.4-0.07c0.08-0.08,0-0.02,0.13-0.07
			c-0.02-0.13-0.04-0.27-0.06-0.4h0.13c0.09-0.18,0.18-0.35,0.27-0.53c0.09,0,0.18,0,0.26,0c-0.02-0.13-0.04-0.27-0.07-0.4
			c0.16-0.05,0.14-0.08,0.27-0.14v-0.07h0.07v0.13h0.07c0-0.09,0-0.18,0-0.27h-0.07c0-0.06,0-0.13,0-0.2
			c0.16-0.03,0.21-0.08,0.34-0.13c-0.02-0.07-0.04-0.13-0.07-0.2h0.07c0.08-0.07,0-0.03,0.13-0.07c0-0.44,0.02-0.25,0.2-0.47h0.07
			c0-0.18,0-0.36,0-0.53h0.07c0-0.09,0-0.18,0-0.27c0.06-0.04,0.13-0.09,0.2-0.14c0-0.09,0-0.17,0-0.26h0.07
			c0.08-0.07,0-0.03,0.13-0.07c0-0.25,0-0.49,0-0.73h0.07c0.05-0.14,0.09-0.27,0.14-0.4h0.06c0-0.29,0-0.58,0-0.87h0.07
			c0.02-0.09,0.04-0.18,0.07-0.27h0.07c0-0.27,0-0.54,0-0.8h0.07c-0.02-0.78-0.04-1.56-0.07-2.33h-0.07
			c-0.03-0.14-0.05-0.27-0.07-0.4h-0.07v-0.13h-0.06c0.02-0.2,0.04-0.4,0.06-0.6c-0.06-0.04-0.13-0.09-0.2-0.13c0-0.07,0-0.13,0-0.2
			h-0.07c0-0.38,0-0.76,0-1.13h-0.07c0-0.06,0-0.13,0-0.2h-0.13c0-0.22,0-0.45,0-0.67c-0.07,0-0.13,0-0.2,0c0-0.11,0-0.22,0-0.33
			h-0.14c0-0.19,0-0.34-0.06-0.47l-0.13-0.06c0-0.09,0-0.18,0-0.27h0.07c-0.03-0.09-0.05-0.18-0.07-0.27c-0.07,0-0.13,0-0.2,0
			c0-0.11,0-0.22,0-0.33h-0.13c0-0.07,0-0.14,0-0.2h0.07c0.03-0.18-0.18-0.37-0.27-0.47l-0.13-0.06c0-0.07,0-0.14,0-0.2h-0.07
			c0-0.07,0-0.13,0-0.2c-0.05-0.14-0.14-0.34-0.2-0.47c-0.07,0-0.14,0-0.2,0c-0.05-0.22-0.09-0.45-0.13-0.67h-0.07
			c-0.04-0.07-0.09-0.13-0.13-0.2c-0.07-0.02-0.14-0.05-0.2-0.07c0-0.11,0-0.22,0-0.33c0-0.01-0.04,0.01-0.07-0.13
			c-0.21-0.05-0.19-0.08-0.2-0.33h-0.14c0-0.13,0-0.26,0-0.4c-0.11-0.04-0.16-0.06-0.33-0.07c0-0.13,0-0.27,0-0.4
			c-0.09,0-0.18,0-0.27,0c0.02-0.06,0.05-0.13,0.07-0.2h-0.07c-0.07,0.08,0,0.03-0.13,0.07c0-0.09,0-0.18,0-0.27
			c-0.09,0-0.18,0-0.26,0c0-0.09,0-0.18,0-0.27c-0.07,0-0.13,0-0.2,0c0-0.09,0-0.18,0-0.27c-0.26-0.07-0.09-0.02-0.2-0.2h-0.07
			v-0.14l-0.13-0.06c0,0,0.06-0.2,0.07-0.27c-0.07,0.03-0.14,0.04-0.21,0.07v-0.07c-0.21-0.14-0.03-0.09-0.13-0.26
			c-0.07-0.05-0.13-0.09-0.2-0.14v-0.07c-0.13-0.02-0.27-0.04-0.4-0.07c0-0.07,0-0.13,0-0.2H43.1c-0.24-0.25-0.38,0.04-0.4-0.47
			c-0.06,0.02-0.14,0.04-0.2,0.07c0-0.07,0-0.14,0-0.2c-0.11,0-0.22,0-0.34,0c0-0.07,0-0.13,0-0.2H42.1c-0.08,0.08,0,0.03-0.14,0.07
			c-0.01-0.24-0.09-0.26-0.13-0.47c-0.06-0.02-0.13-0.05-0.2-0.07v-0.07H41.5l-0.07-0.13c-0.13-0.02-0.27-0.04-0.4-0.07V13
			c-0.24-0.2-0.1-0.3-0.53-0.33c-0.03-0.09-0.05-0.18-0.07-0.27h-0.06l-0.07,0.14h-0.06V12.4c-0.14-0.02-0.27-0.04-0.4-0.06v-0.07
			h-0.07c0-0.07,0-0.14,0-0.2h-0.07c-0.05,0.09-0.05,0.08-0.13,0.13c0-0.07,0-0.13,0-0.2c-0.15,0-0.31,0-0.47,0
			c-0.09-0.13-0.18-0.27-0.27-0.4h-0.07v0.13c-0.06-0.02-0.13-0.04-0.2-0.07c-0.05-0.18-0.02-0.15-0.2-0.2V11.4
			c-0.07,0-0.13,0-0.2,0v-0.06h-0.06v0.06h-0.07v-0.13h-0.06v0.07c-0.09,0-0.18,0-0.27,0c0-0.07,0-0.14,0-0.2h-0.06
			c-0.08,0.08,0,0.03-0.14,0.07c0-0.09,0-0.18,0-0.27c-0.06,0-0.13,0-0.2,0v0.13c-0.12-0.06-0.11-0.09-0.27-0.13
			c0-0.09,0-0.18,0-0.27c-0.06,0-0.13,0-0.2,0c0,0.07,0,0.13,0,0.2h-0.13v-0.13c-0.16,0-0.31,0-0.47,0
			c-0.02-0.07-0.04-0.14-0.06-0.2c-0.18,0.03-0.29,0.1-0.47,0.07c-0.01,0-0.03-0.09-0.14-0.07v0.07c-0.07,0-0.13,0-0.2,0
			c0-0.07,0-0.13,0-0.2c-0.2,0-0.4,0-0.6,0v-0.07l-0.13,0.07l-0.07-0.13c-0.17-0.09-0.18-0.01-0.4,0v-0.14c-0.13,0-0.26,0-0.4,0
			L33.68,10c-0.13-0.05-0.2,0.07-0.2,0.07c-0.22,0.05-0.55-0.03-0.67-0.07c-0.07,0.02-0.14,0.04-0.2,0.07V9.93c-0.14,0-0.27,0-0.4,0
			l-0.07,0.13c-0.3,0-0.62,0-0.93,0V10h-0.07v0.07c-0.18-0.02-0.35-0.04-0.54-0.07v0.07h-0.13v0.06c-0.29,0-0.58,0-0.87,0v0.14
			h-0.14V10.2h-0.07v0.06c-0.27,0-0.53,0-0.8,0v0.07h-0.13v0.07c-0.07,0-0.13,0-0.2,0v0.07c-0.24,0-0.49,0-0.73,0
			c-0.04,0.16-0.02,0.12-0.14,0.2c-0.15,0.14-0.33,0.04-0.53,0.13v0.07c-0.1,0.05-0.11,0.05-0.27,0.07c-0.07-0.08,0-0.03-0.13-0.07
			c-0.02,0.09-0.05,0.18-0.06,0.27c-0.14,0-0.27,0-0.4,0c-0.02,0.07-0.04,0.13-0.07,0.2c-0.13,0-0.27,0-0.4,0c0-0.07,0-0.14,0-0.2
			h-0.07v0.07H25.4c0,0.07,0,0.14,0,0.2c-0.07,0.1-0.35,0.07-0.53,0.07v0.13c-0.09-0.06-0.07-0.13-0.07-0.13h-0.07
			c-0.12,0.13-0.01,0.05-0.2,0.13v0.07c-0.27,0-0.53,0-0.8,0c0-0.13,0-0.27,0-0.4c0.07-0.02,0.13-0.04,0.2-0.07
			c0.02-0.13,0.05-0.27,0.07-0.4c0.29-0.02,0.58-0.04,0.87-0.06V10.6c0.18-0.02,0.36-0.04,0.53-0.07c0,0.14,0,0.27,0,0.4
			c0.09,0,0.18,0,0.27,0V10.8c0.07,0.02,0.14,0.05,0.2,0.07c-0.03-0.17-0.06-0.3-0.06-0.54c0.06,0,0.13,0,0.2,0c0,0.07,0,0.14,0,0.2
			c0.12,0.06,0.1,0.09,0.27,0.14c0.03-0.21,0.05-0.44,0.2-0.54v-0.06c0.16-0.02,0.31-0.04,0.47-0.07v0.13
			c0.12-0.08,0.02-0.1,0.07-0.13c0.05-0.03,0.14,0.14,0.27,0.07c0.14-0.08,0-0.24,0.33-0.33c-0.03,0.13-0.05,0.27-0.07,0.4h0.13V10
			c0.11,0,0.22,0,0.33,0c0.06-0.39,0.13-0.48,0.6-0.47V9.6c0.13-0.02,0.27-0.04,0.4-0.07V9.4l0.13,0.07
			c0.07-0.05-0.03-0.1,0.07-0.07l0.13,0.14V9.4c0.36-0.02,0.71-0.04,1.07-0.07V9.26C31.07,9.29,31.75,9.31,32.41,9.33"/>
		<path fill="#FFFFFF" d="M29.87,9.66V9.53c-0.2,0-0.34,0.02-0.47,0.07v0.07C29.56,9.66,29.72,9.66,29.87,9.66"/>
		<path fill="#FFFFFF" d="M34.68,9.8c0.07,0.02,0.13,0.04,0.2,0.07c0-0.09,0-0.18,0-0.27C34.7,9.65,34.73,9.62,34.68,9.8"/>
		<path fill="#FFFFFF" d="M28.54,9.66c0.02,0.14,0.04,0.27,0.07,0.4h0.07c0-0.13,0-0.27,0-0.4H28.54"/>
		<path fill="#FFFFFF" d="M26.8,10.47c0-0.07,0-0.14,0-0.2h-0.07c-0.06-0.07-0.11-0.09-0.2-0.14c0,0.09,0,0.18,0,0.27h0.06v0.07
			C26.66,10.47,26.73,10.47,26.8,10.47"/>
		<path fill="#FFFFFF" d="M17.38,22.89h-0.13c0,0.18-0.04,0.44,0.13,0.27c0.05,0.16,0.01,0.33,0.07,0.47c0.07-0.08,0.03,0,0.07-0.14
			h0.07c0-0.09,0-0.18,0-0.27l-0.13,0.07c0-0.09,0-0.18,0-0.27c0.07,0.02,0.13,0.05,0.2,0.07v-0.07c0.11-0.09,0.12-0.15,0.13-0.33
			c-0.08-0.06-0.01,0.01-0.07-0.07c-0.09,0.07-0.18,0.13-0.27,0.2v-0.07h-0.07V22.89"/>
		<path fill="#FFFFFF" d="M17.18,23.56c-0.06-0.02-0.13-0.04-0.2-0.07v0.07h0.07c0,0.07,0,0.14,0,0.2c0.04,0.08,0.03-0.02,0.07,0.06
			h0.06C17.18,23.74,17.18,23.65,17.18,23.56"/>
		<path fill="#FFFFFF" d="M47.24,35.85c0,0.07,0,0.14,0,0.2h0.07v-0.13h0.07C47.5,35.85,47.24,35.85,47.24,35.85"/>
		<path fill="#FFFFFF" d="M19.32,37.12c0.02,0.16,0.04,0.31,0.07,0.47h0.07v-0.13h0.06l0.07-0.27h-0.07v-0.07
			C19.45,37.12,19.38,37.12,19.32,37.12"/>
		<path fill="#FFFFFF" d="M46.11,37.18c0.02,0.11,0.04,0.22,0.06,0.34h0.07c0-0.09,0-0.18,0-0.27L46.11,37.18"/>
		<path fill="#FFFFFF" d="M22.26,39.12c-0.02,0.24-0.04,0.49-0.07,0.73c0.09,0,0.18,0,0.27,0c0.01-0.29-0.03-0.53-0.06-0.73H22.26"
			/>
		<path fill="#FFFFFF" d="M42.1,39.12c0,0.11,0,0.22,0,0.33h0.07v-0.07h0.06c0-0.07,0-0.13,0-0.2L42.1,39.12"/>
		<path fill="#FFFFFF" d="M21.86,39.52c0.06,0.02,0.13,0.04,0.2,0.07c0-0.14,0-0.27,0-0.4h-0.14C21.88,39.3,21.87,39.35,21.86,39.52
			"/>
		<path fill="#FFFFFF" d="M40.03,40.39v0.14c-0.07,0-0.13,0-0.2,0c0.03,0.07,0.05,0.13,0.07,0.2c0.06-0.02,0.13-0.04,0.2-0.07
			c0,0.07,0,0.13,0,0.2c-0.08,0.05-0.01-0.01-0.07,0.07c-0.07-0.02-0.13-0.04-0.2-0.07c0,0.13,0,0.27,0,0.4c0.11,0,0.23,0,0.34,0
			v0.13h0.13c0-0.13,0-0.27,0-0.4c0.09,0,0.18,0,0.27,0c0-0.07,0-0.13,0-0.2H40.5v-0.07c-0.07,0-0.13,0-0.2,0c0-0.09,0-0.18,0-0.27
			C40.2,40.44,40.11,40.41,40.03,40.39"/>
		<path fill="#FFFFFF" d="M24.6,40.93c0.06-0.02,0.13-0.04,0.2-0.07c0,0.07,0,0.13,0,0.2h0.07c0,0.09,0,0.18,0,0.27h-0.07
			c0.02,0.09,0.05,0.18,0.07,0.27c0.07,0,0.14,0,0.2,0c-0.02-0.13-0.04-0.27-0.07-0.4l0.13,0.06c0-0.2,0-0.4,0-0.6
			c-0.09,0.01-0.04-0.03-0.06,0.07c-0.08-0.04-0.09-0.12-0.13-0.2c-0.13,0.07,0,0.02-0.07,0.13h-0.07c-0.03-0.04-0.01-0.26-0.13-0.2
			v0.07H24.6C24.6,40.66,24.6,40.79,24.6,40.93"/>
		<path fill="#FFFFFF" d="M39.16,40.66c0,0.09,0,0.18,0,0.27h0.13c0-0.08,0-0.18,0-0.27H39.16"/>
		<path fill="#FFFFFF" d="M38.02,41.6c0.07,0,0.14,0,0.21,0c-0.03-0.2-0.05-0.4-0.07-0.6c-0.06-0.04-0.14-0.09-0.2-0.13
			c0,0.07,0,0.13,0,0.2h0.06C38.02,41.24,38.02,41.42,38.02,41.6"/>
		<path fill="#FFFFFF" d="M40.89,41.06c0,0.09,0,0.18,0,0.27h0.14c0-0.09,0-0.18,0-0.27H40.89"/>
		<path fill="#FFFFFF" d="M31.61,41.6c-0.02,0.13-0.05,0.27-0.07,0.4c0.07,0,0.13,0,0.2,0c0-0.14,0-0.27,0-0.4H31.61"/>
		<path fill="#FFFFFF" d="M35.75,41.73c0,0.11,0,0.23,0,0.34c0.06,0,0.13,0,0.2,0V42h0.07c0-0.07,0-0.14,0-0.2h-0.07v-0.07
			C35.88,41.73,35.82,41.73,35.75,41.73"/>
		<path fill="#FFFFFF" d="M29.61,42c-0.03,0.11-0.05,0.22-0.07,0.33c0.2-0.02,0.4-0.04,0.6-0.07c-0.02,0.2-0.04,0.4-0.07,0.6
			c0.07,0.04,0.14,0.09,0.2,0.13c0-0.13,0-0.27,0-0.4h0.13c0-0.16,0-0.31,0-0.47h-0.07v0.13h-0.13c0-0.07,0-0.13,0-0.2
			c-0.07-0.03-0.14-0.05-0.2-0.07c-0.05,0.02-0.03,0.13-0.14,0.13v-0.06C29.78,42.04,29.7,42.02,29.61,42"/>
		<path fill="#FFFFFF" d="M32.68,42c0,0.09,0,0.18,0,0.26h0.14c0-0.09,0-0.18,0-0.26H32.68"/>
		<path fill="#FFFFFF" d="M35.42,42.06c-0.02,0.13-0.04,0.27-0.07,0.4c0.07,0,0.13,0,0.2,0c0,0.09,0,0.18,0,0.27
			c-0.07,0-0.13,0-0.2,0c0,0.24,0.04,0.36,0.07,0.53h0.13c0.02-0.08,0.05-0.18,0.07-0.26h0.07c0,0.07,0,0.13,0,0.2h0.13
			c-0.02-0.27-0.04-0.53-0.06-0.8h-0.07v-0.14h-0.07c-0.02-0.07-0.04-0.13-0.07-0.2H35.42"/>
		<path fill="#FFFFFF" d="M36.82,42.06c0,0.11,0,0.22,0,0.33h0.13c0.06-0.07-0.01-0.01,0.06-0.07c0-0.09,0-0.18,0-0.27
			C36.95,42.06,36.89,42.06,36.82,42.06"/>
		<path fill="#FFFFFF" d="M38.29,42.2c-0.05,0.19-0.02,0.15-0.2,0.2c0,0.07,0,0.13,0,0.2c0.06,0,0.13,0,0.2,0
			c0.05-0.09,0.04-0.08,0.13-0.13c0-0.09,0-0.18,0-0.27H38.29"/>
		<path fill="#FFFFFF" d="M27,42.33c-0.02,0.07-0.04,0.13-0.07,0.2H27v0.07c0.09,0,0.18,0,0.27,0c0-0.09,0-0.18,0-0.27
			C27.18,42.33,27.09,42.33,27,42.33"/>
		<path fill="#FFFFFF" d="M33.15,42.33c0,0.09,0,0.18,0,0.27h0.07v-0.07h0.06c0-0.07,0-0.13,0-0.2H33.15"/>
		<path fill="#FFFFFF" d="M34.35,42.33c-0.06,0.21-0.1,0.14-0.14,0.4c0.07,0,0.14,0,0.21,0v0.14c-0.1,0.07-0.18,0.13-0.27,0.2
			c-0.02,0.18-0.04,0.36-0.07,0.53h0.07c0-0.09,0-0.18,0-0.27h0.07c0.08,0.07,0,0.03,0.14,0.07c0-0.07,0-0.14,0-0.2h-0.07
			c-0.13-0.06,0.14-0.07,0.14-0.07c0-0.09,0-0.18,0-0.27l0.13,0.07v-0.07c0.08-0.08,0.03,0,0.07-0.14h0.07l0.07-0.27h-0.07V42.4
			C34.57,42.38,34.46,42.35,34.35,42.33"/>
		<path fill="#FFFFFF" d="M32.08,42.4c0,0.09,0,0.18,0,0.27h0.13c0-0.09,0-0.18,0-0.27H32.08"/>
		<path fill="#FFFFFF" d="M31.48,42.87c-0.07,0.02-0.14,0.04-0.2,0.07c0,0.07,0,0.13,0,0.2c0.23,0.06,0.2,0.12,0.2,0.4
			c0.09,0,0.18,0,0.27,0c0-0.09,0-0.18,0-0.27h0.06c0.04,0.14-0.01,0.06,0.07,0.14c0-0.11,0-0.22,0-0.33
			c-0.19-0.16-0.23-0.4-0.47-0.54c0,0.07,0,0.14,0,0.2C31.48,42.81,31.44,42.73,31.48,42.87"/>
		<path fill="#FFFFFF" d="M29.01,42.87c0.02,0.11,0.04,0.22,0.06,0.34h0.07c0.08-0.08,0-0.03,0.13-0.07c0-0.07,0-0.13,0-0.2h-0.07
			v-0.07C29.14,42.87,29.07,42.87,29.01,42.87"/>
		<path fill="#FFFFFF" d="M32.01,42.87c0,0.09,0,0.18,0,0.27c0.09,0,0.18,0,0.27,0c-0.02-0.09-0.04-0.18-0.06-0.27
			C32.14,42.87,32.08,42.87,32.01,42.87"/>
		<path fill="#FFFFFF" d="M30.48,43.33h0.13c-0.01-0.16-0.02-0.17-0.07-0.27h-0.06C30.48,43.15,30.48,43.24,30.48,43.33"/>
		<path fill="#FFFFFF" d="M34.75,43.06c-0.01,0.17-0.02,0.23-0.07,0.33h0.07v0.06c0.08-0.05,0.01,0.01,0.07-0.06h0.07
			c0-0.09,0-0.18,0-0.27L34.75,43.06"/>
		<path fill="#FFFFFF" d="M32.41,43.6h0.14c0-0.19-0.02-0.29-0.07-0.4h-0.07C32.41,43.33,32.41,43.46,32.41,43.6"/>
		<path fill="#FFFFFF" d="M32.81,43.26c0,0.09,0,0.18,0,0.27h0.13c0-0.09,0-0.18,0-0.27H32.81"/>
		<path fill="#FFFFFF" d="M33.35,43.6c0-0.09,0-0.18,0-0.27h-0.07c0,0.07,0,0.13,0,0.2h-0.06C33.09,43.59,33.35,43.6,33.35,43.6"/>
	</g>
</g>
</svg>
