<?xml version="1.0" encoding="utf-8" standalone="yes"?><svg xmlns="http://www.w3.org/2000/svg" xmlns:xlink="http://www.w3.org/1999/xlink" version="1.2" viewBox="0 0 160 160" xml:space="preserve" baseProfile="tiny-ps"><title>BIRD</title><rect width="160" height="160" fill="#0A0A0A"></rect><g><g><g><path d="M112.02,59.09c-3.12,0-5.88,1.54-7.57,3.9L93,79.03C92.58,79.62,91.89,80,91.11,80     c-1.28,0-2.32-1.04-2.32-2.32c0-0.48,0.14-0.92,0.39-1.29l9.66-14.46c0.99-1.48,1.56-3.25,1.56-5.16c0-5.13-4.16-9.29-9.29-9.29     H40v9.29h44.14c0,2.57-2.08,4.65-4.65,4.65H40c0,3.31,0.69,6.45,1.94,9.29h32.91c0,2.57-2.08,4.65-4.65,4.65H44.65     c4.24,5.64,10.99,9.29,18.59,9.29h13.94c1.28,0,2.32,1.04,2.32,2.32c0,1.28-1.04,2.32-2.32,2.32H63.23l-15.52,23.23h30.63     c12.86,0,23.77-8.36,27.59-19.94l5.23-15.87c1.7-5.15,4.8-9.67,8.85-13.09C118.38,60.91,115.41,59.09,112.02,59.09z      M112.02,65.48c-0.96,0-1.74-0.78-1.74-1.74c0-0.96,0.78-1.74,1.74-1.74c0.96,0,1.74,0.78,1.74,1.74     C113.76,64.7,112.98,65.48,112.02,65.48z" fill="#FFFFFF"></path></g></g></g></svg>