<?xml version="1.0" encoding="utf-8"?>
<svg viewBox="0 0 450 450" version="1.2" baseProfile="tiny-ps" xmlns="http://www.w3.org/2000/svg">
  <title>Quest Education Group</title>
  <path d="M178.8 322.3h-4.9l-2.8-5.4h-16.2l-2.8 5.4h-4.9l9-17.6c1.4-2.7 3-4.6 6.8-4.6s5.4 1.9 6.8 4.6l9 17.6zm-13.5-16.7c-.5-1.3-2-1.8-3.2-1.3-.6.3-1.1.7-1.3 1.3l-3.7 7.2h12l-3.8-7.2zm34.2-.4v17.1H195v-21.9h4.5c1.3 0 2.4.6 3.1 1.7l9.1 11.2 9.1-11.2c.7-1.1 1.8-1.7 3.1-1.7h4.5v21.9h-4.5v-17.1l-10.4 12.6H210l-10.5-12.6zm51.7-4.9v21.9h-4.6v-21.9h4.6zm22.9 22h-4.6v-21.9h3.2c5.9 0 7.5 1.9 13 9.6 5.2 7.2 5.6 7.7 8 7.7v-17.3h4.6v21.9h-3.2c-5.4 0-7.1-1.7-13.1-9.6-5.6-7.3-5.8-7.7-8-7.7l.1 17.3zm69.5-12v12h-17.4c-7.9 0-10.6-3.8-10.6-11s2.7-10.9 10.6-10.9h17.1v4.5h-17.1c-5.2 0-5.9 2.3-5.9 6.5s.6 6.5 5.9 6.5H339v-7.5l4.6-.1zm-212.4-10H114c-6.9 0-9.9 2.9-10.4 8.6.3 2.6 1.3 4.1 4.6 4.4-.1-.6-.1-1.3-.1-2 0-4.2.6-6.5 5.9-6.5h17.1l.1-4.5zm-4.4 10v7.5h-17.4c-1.7 0-3.4-.2-5-.7 1.3 3.4 4.3 5.2 9.7 5.2h17.4v-12h-4.7zm-3.1 29.1h-17.3c-5.3 0-5.9 2.3-5.9 6.5s.6 6.5 5.9 6.5h17.4v4.5h-17.4c-7.9 0-10.6-3.7-10.6-10.9s2.7-11 10.6-11h17.4v4.4h-.1zm46.7 17.4h-4.9l-2.8-5.4h-16.1l-2.8 5.4h-4.9l9-17.6c1.4-2.7 3.1-4.6 6.8-4.6s5.4 1.9 6.8 4.6l8.9 17.6zm-13.5-16.6c-.5-1.3-2-1.8-3.3-1.3-.6.3-1.1.7-1.3 1.3l-3.7 7.2h12l-3.7-7.2zm34.2-.4v17.1h-4.5V335h4.5c1.3 0 2.4.6 3.1 1.7l9.1 11.2 9.1-11.2c.7-1.1 1.8-1.7 3.1-1.7h4.4v21.9h-4.5v-17.1L205 352.4h-3.5l-10.4-12.6zm66.2-4.9c6.1 0 8.8 3.4 8.8 7.4s-2.7 7.4-8.8 7.4h-14.4v7.2h-4.6V335h19v-.1zm.2 10.7c2.8 0 3.8-1.9 3.8-3.3s-1-3.3-3.8-3.3h-14.7v6.7h14.7v-.1zm24.7-10.7h4.6v11.4c0 5.3 1.8 6.4 9 6.4s9-1.2 9-6.4v-11.4h4.6v11.4c0 7.9-3.7 10.9-13.6 10.9-9.9 0-13.6-3-13.6-10.9v-11.4zm63.7 17.8c2.7 0 3.5-.8 3.5-2 0-1.5-1.3-2.2-4.4-2.5l-10.6-.8c-4.9-.4-7.9-2.1-7.9-6.2 0-4.6 3.9-6.3 8.4-6.3h17.8v4.1h-18.2c-2.1 0-3.4.6-3.4 2 0 1.2.8 1.9 4.4 2.2l10.1.8c5.2.4 8.5 2 8.5 6.5 0 3.7-2.4 6.4-8.6 6.4h-19.2v-4.1l19.6-.1z" />
  <linearGradient id="a" x1="140" y1="173.15" x2="220.99" y2="89.26" gradientUnits="userSpaceOnUse">
    <stop offset="0" stop-color="#2e4894" />
    <stop offset=".4" stop-color="#863e90" />
    <stop offset=".73" stop-color="#ea525f" />
    <stop offset="1" stop-color="#f3965b" />
  </linearGradient>
  <path fill="url(#a)" d="m188.5 118.7-6.1-8c-33.7 25.8-43.9 72.2-24 109.7l8.8-4.6c-17.6-33.2-8.6-74.3 21.3-97.1z" />
  <linearGradient id="b" x1="140" y1="173.15" x2="220.99" y2="89.26" gradientUnits="userSpaceOnUse">
    <stop offset="0" stop-color="#2e4894" />
    <stop offset=".4" stop-color="#863e90" />
    <stop offset=".73" stop-color="#ea525f" />
    <stop offset="1" stop-color="#f3965b" />
  </linearGradient>
  <path fill="url(#b)" d="M295.8 227.3c-23.2 29.6-64.5 38.1-97.5 20l-4.8 8.8c37.3 20.5 83.9 10.9 110.2-22.6l-7.9-6.2z" />
  <linearGradient id="c" x1="90.1" y1="131.27" x2="183.3" y2="47.39" gradientUnits="userSpaceOnUse">
    <stop offset="0" stop-color="#2e4894" />
    <stop offset=".4" stop-color="#863e90" />
    <stop offset=".73" stop-color="#ea525f" />
    <stop offset="1" stop-color="#f3965b" />
  </linearGradient>
  <path fill="url(#c)" d="m274.7 231.6-6.1-8c-24.2 18.5-58.7 13.8-77.2-10.4s-13.8-58.7 10.4-77.2c9.6-7.3 21.4-11.3 33.5-11.3 11.5 0 22.7 3.7 32.1 10.5l-10.7 10.2c-6.3-3.8-13.6-5.7-21-5.6-11.4 0-21.2 3.8-29.2 11.4-8 7.7-11.9 17.2-11.9 28.6s4 21 11.9 28.6 17.8 11.3 29.2 11.3c12.2.1 23.8-5.2 31.6-14.5v-13.4h-13.1v8.7c-5 4.4-11.2 6.7-18.5 6.7-7.8 0-14.3-2.6-19.5-7.8s-7.8-11.8-7.8-19.6c0-7.8 2.5-14.4 7.8-19.6 5.2-5.2 12.2-8 19.5-7.9 7.2-.2 14.2 2.5 19.5 7.5l8.8-8.8 10.1-10.2 7.1-7.1c-25.5-25.4-66.7-25.2-92.1.3s-25.2 66.7.3 92.1c12.2 12.1 28.7 18.9 45.9 18.9 14.3 0 28.1-4.7 39.4-13.4z" />
  <linearGradient id="d" x1="97.58" y1="139.59" x2="190.79" y2="55.7" gradientUnits="userSpaceOnUse">
    <stop offset="0" stop-color="#2e4894" />
    <stop offset=".4" stop-color="#863e90" />
    <stop offset=".73" stop-color="#ea525f" />
    <stop offset="1" stop-color="#f3965b" />
  </linearGradient>
  <path fill="url(#d)" d="M235.3 186.4h32v-12.3h-32z" />
  <linearGradient id="e" x1="67.14" x2="160.35" y1="105.77" y2="21.88" gradientUnits="userSpaceOnUse">
    <stop offset="0" stop-color="#2e4894" />
    <stop offset=".4" stop-color="#863e90" />
    <stop offset=".73" stop-color="#ea525f" />
    <stop offset="1" stop-color="#f3965b" />
  </linearGradient>
  <path fill="url(#e)" d="M235.3 102.8c20.3 0 39.8 8.1 54.2 22.5l7.1-7.1c-16.3-16.2-38.3-25.4-61.3-25.4v10z" />
</svg>