<?xml version="1.0" encoding="utf-8"?>
<!-- Generator: Adobe Illustrator 25.4.1, SVG Export Plug-In . SVG Version: 6.00 Build 0)  -->
<svg version="1.2" baseProfile="tiny-ps" id="Layer_1" xmlns="http://www.w3.org/2000/svg" xmlns:xlink="http://www.w3.org/1999/xlink"
	viewBox="0 0 1080 1080"  xml:space="preserve">
<title>PO Soderberg och Partner Aktiebolag</title>
<rect fill="#FFFFFF" width="1080" height="1080"/>
<g id="Lager_2_00000147186178647565770720000004046736649022239657_">
	<g>
		<path fill="#008ECC" d="M588.3,296.2c-9.7,32.8-12.4,60.2-16.8,105.4c0,0-0.9,5.3,4.4,6.2c3.5,0.9,6.2-0.9,8-4.4
			C614,299.7,688.4,243.9,728.3,227.1c2.7-1.8,4.4-3.5,3.5-6.2c-0.9-4.4-6.2-8.9-12.4-8.9c-1.8,0-2.7,0-4.4,0.9l0,0l0,0
			c0-13.3-15.9-28.3-34.5-28.3c-4.4,0-9.7,0.9-14.2,2.7l0,0l0,0c1.8-3.5,0-7.1-2.7-8c-0.9,0-0.9,0-1.8,0c-3.5,0-8.9,2.7-15.1,8.9
			C625.6,205,601.6,249.2,588.3,296.2z"/>
		<path fill="#B3DFEF" d="M829.3,251.9c-12.4-2.7-24.8-4.4-37.2-4.4c-76.2,0-128.4,56.7-141.7,78.8c0,0-2.7,3.5-0.9,5.3
			c0,0.9,1.8,1.8,3.5,1.8l3.5-0.9c9.7-1.8,26.6-4.4,46.1-4.4c9.7,0,19.5,0.9,29.2,1.8c25.7,3.5,77.1,16.8,104.5,45.2
			c1.8,1.8,3.5,1.8,5.3,0c2.7-2.7,3.5-8,3.5-13.3c-0.9-13.3-5.3-16.8-10.6-20.4l0,0l0,0c6.2-2.7,10.6-13.3,10.6-25.7
			c0-10.6-3.5-24.8-13.3-29.2l0,0l0,0c7.1-3.5,12.4-12.4,11.5-20.4C841.7,259,836.4,254.6,829.3,251.9z"/>
		<path fill="#008ECC" d="M724.8,844.5c2.7,0,5.3-0.9,6.2-2.7c2.7-3.5,1.8-7.1-1.8-9.7c-34.5-29.2-56.7-48.7-77.1-81.5
			c-0.9-1.8-2.7-4.4-3.5-6.2c-18.6-30.1-36.3-58.5-63.8-157.7c-1.8-4.4-5.3-5.3-7.1-5.3c-0.9,0-0.9,0-1.8,0c0,0-5.3,0.9-4.4,8
			c0,2.7,0.9,8,0.9,13.3c2.7,31.9,8,99.2,23.9,151.5c18.6,62,31,92.1,56.7,134.6c1.8,2.7,4.4,4.4,6.2,4.4l0,0c1.8,0,4.4-0.9,5.3-2.7
			s1.8-3.5,0.9-5.3l0,0l0,0c15.9,2.7,32.8-2.7,44.3-14.2c7.1-7.1,11.5-16.8,11.5-25.7l0,0l0,0C722.1,844.5,723,844.5,724.8,844.5z"
			/>
		<path fill="#B3DFEF" d="M780.6,717c-93.9-15.1-126.7-70.9-152.4-116c-4.4-8-8.9-15.1-13.3-22.1c0,0-2.7-3.5-5.3-3.5
			c-0.9,0-1.8,0-1.8,0s-4.4,0.9-2.7,8v1.8c9.7,47.8,29.2,93.9,58.5,136.4c22.1,31,46.1,60.2,82.4,82.4c4.4,2.7,8.9,0.9,10.6-2.7
			c0.9-1.8,0.9-4.4,0-7.1l0,0l0,0c20.4-9.7,35.4-32.8,26.6-58.5l0,0l0,0c3.5,0,7.1-4.4,7.1-8.9C790.3,724.9,790.3,719.6,780.6,717z"
			/>
		<path fill="#008ECC" d="M779.7,687.7L779.7,687.7c1.8,0,3.5,0,6.2,0c5.3-0.9,8.9-3.5,9.7-8c0.9-4.4-0.9-8.9-4.4-11.5l0,0l0,0
			c9.7-14.2,9.7-27.5,7.1-35.4c-3.5-10.6-10.6-20.4-19.5-24.8l0,0l0,0c3.5-5.3,3.5-11.5,0-16.8c-2.7-5.3-8-8-14.2-8
			c-1.8,0-3.5,0-5.3,0.9c-18.6,5.3-31.9,8.9-44.3,8.9l0,0c-19.5,0-34.5-8-65.6-25.7c-2.7-1.8-5.3-2.7-7.1-2.7s-3.5,0.9-5.3,2.7
			c-2.7,3.5,0,9.7,0,9.7C638,578.8,688.4,687.7,779.7,687.7z"/>
		<path fill="#008ECC" d="M838.2,423.8L838.2,423.8L838.2,423.8c0.9,0,1.8,0.9,3.5,0.9c0.9,0,1.8,0,2.7-0.9c2.7-2.7,1.8-6.2,0.9-7.1
			c-4.4-7.1-9.7-12.4-22.1-23c-39-31.9-93.9-42.5-132.9-42.5c-30.1,0-54,6.2-63.8,17.7c-15.1,17.7-23.9,44.3-24.8,57.6v0.9
			c0,0.9,0,1.8,0,2.7l0,0c0,0.9,0,2.7,0.9,4.4c0.9,0.9,3.5,1.8,6.2,0c0.9,0,0.9,0,0.9,0c24.8-9.7,50.5-14.2,76.2-14.2
			c61.1,0,114.3,26.6,140.8,49.6c0,0,4.4,4.4,8.9,4.4c0.9,0,1.8,0,2.7-0.9c0,0,0.9-0.9,1.8-2.7c0-1.8,0-2.7-1.8-4.4l0,0l0,0
			c6.2-4.4,8-11.5,8.9-15.9C847,439.7,843.5,429.1,838.2,423.8z"/>
		<path fill="#12326E" d="M839,555.7c2.7-7.1,0.9-15.1-5.3-24.8l0,0h0.9c0.9,0,0.9,0,1.8,0l0,0c0.9,0,1.8,0,2.7-0.9
			c1.8-1.8,0.9-4.4,0-7.1c-0.9-2.7-2.7-6.2-7.1-14.2c-19.5-32.8-84.2-67.3-150.6-67.3c-20.4,0-39.9,3.5-57.6,9.7
			c-15.9,6.2-21.3,11.5-23,12.4c-1.8,1.8-3.5,5.3-4.4,10.6c-3.5,14.2-0.9,60.2,3.5,74.4c0,0,0.9,2.7,3.5,3.5
			c2.7,0.9,4.4-1.8,4.4-1.8c26.6-33.7,56.7-51.4,89.5-51.4c52.3,0,99.2,44.3,122.2,70.9c2.7,3.5,4.4,4.4,6.2,4.4
			c0.9,0,1.8,0,1.8-0.9c0.9-0.9,1.8-1.8,1.8-2.7c0-2.7-0.9-4.4-0.9-4.4l0,0l0,0C828.4,566.4,835.5,563.7,839,555.7z"/>
		<path fill="#008ECC" d="M399.7,184.6c-18.6,0-34.5,15.1-34.5,28.3l0,0l0,0c-1.8-0.9-2.7-0.9-4.4-0.9c-6.2,0-11.5,4.4-12.4,8.9
			c-0.9,2.7,0.9,5.3,3.5,6.2c39.9,16.8,114.3,72.6,144.4,176.3c0.9,3.5,3.5,5.3,8,4.4c5.3-0.9,4.4-6.2,4.4-6.2
			c-4.4-45.2-8-71.8-16.8-105.4c-14.2-46.9-38.1-91.2-58.5-109.8c-8-7.1-13.3-9.7-16.8-8c-2.7,0.9-4.4,4.4-2.7,8l0,0l0,0
			C409.4,185.5,404.1,184.6,399.7,184.6z"/>
		<path fill="#B3DFEF" d="M429.8,326.3c-13.3-22.1-65.6-78.8-141.7-78.8c-12.4,0-24.8,1.8-37.2,4.4c-8,1.8-12.4,6.2-13.3,13.3
			c-0.9,8,4.4,16.8,11.5,20.4l0,0l0,0c-9.7,4.4-13.3,17.7-13.3,29.2c0,12.4,4.4,23,10.6,25.7l0,0l0,0c-4.4,3.5-9.7,7.1-10.6,20.4
			c0,5.3,0.9,10.6,3.5,13.3c1.8,1.8,3.5,1.8,5.3,0c27.5-27.5,78-41.6,104.5-45.2c9.7-0.9,19.5-1.8,29.2-1.8
			c19.5,0,36.3,2.7,46.1,4.4l3.5,0.9c1.8,0,2.7,0,3.5-1.8C431.6,329.9,429.8,326.3,429.8,326.3z"/>
		<path fill="#008ECC" d="M414.7,889.7c1.8,1.8,3.5,2.7,5.3,2.7c2.7,0,5.3-1.8,6.2-4.4c25.7-42.5,38.1-72.6,56.7-134.6
			c15.1-52.3,21.3-119.6,23.9-151.5c0.9-6.2,0.9-10.6,0.9-13.3c0.9-7.1-4.4-8-4.4-8c-0.9,0-0.9,0-1.8,0c-1.8,0-5.3,0.9-7.1,5.3
			c-27.5,99.2-45.2,127.6-63.8,157.7c-0.9,1.8-2.7,4.4-3.5,6.2c-20.4,32.8-42.5,52.3-77.1,81.5c-3.5,2.7-3.5,7.1-1.8,9.7
			c0.9,1.8,3.5,2.7,6.2,2.7c0.9,0,1.8,0,2.7-0.9l0,0l0,0c0,8.9,4.4,17.7,11.5,25.7c11.5,11.5,27.5,16.8,44.3,14.2l0,0l0,0
			C413,886.2,413.8,887.9,414.7,889.7z"/>
		<path fill="#B3DFEF" d="M334.1,804.7c36.3-21.3,59.4-51.4,82.4-82.4c29.2-43.4,48.7-89.5,58.5-136.4v-1.8c0.9-7.1-2.7-8-2.7-8
			c-0.9,0-1.8,0-1.8,0c-3.5,0-5.3,3.5-5.3,3.5c-4.4,7.1-8.9,14.2-13.3,22.1c-25.7,45.2-58.5,101-152.4,116c-8.9,1.8-9.7,8-9.7,10.6
			c0,4.4,3.5,8.9,7.1,8.9l0,0l0,0c-8.9,25.7,7.1,48.7,26.6,58.5l0,0l0,0c-0.9,1.8-1.8,4.4,0,7.1
			C325.3,805.5,329.7,806.4,334.1,804.7z"/>
		<path fill="#008ECC" d="M442.2,577.9c0,0,2.7-7.1,0-9.7c-2.7-3.5-6.2-3.5-12.4,0c-31,17.7-46.1,25.7-65.6,25.7
			c-12.4,0-25.7-3.5-44.3-8.9c-1.8-0.9-3.5-0.9-5.3-0.9c-5.3,0-10.6,3.5-14.2,8c-2.7,5.3-2.7,11.5,0,16.8l0,0l0,0
			c-8.9,4.4-15.9,13.3-19.5,23.9c-1.8,8-2.7,20.4,7.1,35.4l0,0l0,0c-3.5,2.7-5.3,7.1-4.4,11.5s5.3,8,9.7,8c1.8,0,3.5,0,6.2,0
			C390.8,687.7,441.3,578.8,442.2,577.9z"/>
		<path fill="#12326E" d="M539.6,407.8c5.3,0,9.7-1.8,12.4-4.4c2.7-2.7,2.7-7.1,2.7-7.1c3.5-72.6,11.5-112.5,33.7-163.9
			c8-17.7,13.3-27.5,30.1-54.9c0.9-0.9,0.9-2.7,0.9-3.5c-0.9-2.7-3.5-5.3-8.9-7.1c-2.7-0.9-6.2-1.8-9.7-1.8
			c-7.1,0-15.1,1.8-22.1,5.3l0,0l0,0c-8-22.1-34.5-22.1-38.1-22.1h-0.9c0,0,0,0-0.9,0c-2.7,0-30.1,0.9-38.1,22.1l0,0l0,0
			c-7.1-2.7-14.2-5.3-21.3-5.3c-3.5,0-7.1,0.9-9.7,1.8c-4.4,1.8-8,4.4-8.9,7.1c0,0.9,0,2.7,0.9,3.5c17.7,27.5,23,36.3,30.1,54.9
			c21.3,51.4,29.2,91.2,33.7,163.9c0,0,0,3.5,2.7,7.1C529.9,406,534.3,407.8,539.6,407.8L539.6,407.8L539.6,407.8L539.6,407.8
			L539.6,407.8z"/>
		<path fill="#12326E" d="M595.4,921.6c8.9,0,17.7-2.7,23.9-8c7.1-6.2,1.8-14.2,1.8-14.2c-60.2-109.8-65.6-256.9-67.3-305.6v-0.9
			c0-8.9-5.3-13.3-15.1-13.3c-9.7,0-15.1,4.4-15.1,13.3v0.9c-1.8,48.7-7.1,195.8-67.3,305.6c0,0-5.3,8,1.8,14.2
			c6.2,5.3,15.1,8,23.9,8c4.4,0,8-0.9,10.6-1.8l0,0l0,0c5.3,23,37.2,23.9,43.4,23.9c0.9,0,1.8,0,1.8,0s0.9,0,1.8,0
			c6.2,0,38.1-0.9,43.4-23.9l0,0l0,0C587.5,920.7,591.9,921.6,595.4,921.6z"/>
		<path fill="#008ECC" d="M241.1,473.4c0.9,0.9,1.8,0.9,2.7,0.9c3.5,0,8-4.4,8.9-4.4c26.6-23,78.8-49.6,140.8-49.6
			c25.7,0,52.3,4.4,76.2,14.2c0,0,0,0,0.9,0c2.7,0.9,5.3,0.9,6.2,0c0.9-0.9,0.9-3.5,0.9-4.4l0,0c0-0.9,0-1.8,0-2.7v-0.9
			c-0.9-13.3-9.7-39.9-24.8-58.5c-9.7-10.6-33.7-17.7-63.8-17.7c-39,0-93.9,11.5-132.9,42.5c-13.3,10.6-17.7,16.8-22.1,23
			c-0.9,1.8-1.8,4.4,0.9,7.1c0.9,0.9,1.8,0.9,2.7,0.9l0,0c1.8,0,2.7-0.9,3.5-0.9l0,0l0,0c-5.3,4.4-8.9,15.9-8,25.7
			c0,5.3,1.8,12.4,8.9,15.9l0,0l0,0c-0.9,1.8-1.8,2.7-1.8,4.4C240.2,472.5,241.1,473.4,241.1,473.4z"/>
		<path fill="#12326E" d="M251.7,573.5c0.9,0,1.8,0.9,1.8,0.9c1.8,0,3.5-0.9,6.2-4.4c23-26.6,70-70.9,122.2-70.9
			c32.8,0,62.9,16.8,89.5,51.4c0,0,1.8,2.7,4.4,1.8c2.7,0,3.5-3.5,3.5-3.5c4.4-14.2,7.1-60.2,3.5-74.4c-0.9-4.4-2.7-8-4.4-10.6
			c-1.8-1.8-7.1-7.1-23-12.4c-17.7-6.2-36.3-9.7-57.6-9.7c-66.4,0-132,34.5-150.6,67.3c-5.3,8.9-7.1,11.5-7.1,14.2
			c-0.9,2.7-1.8,5.3,0,7.1c0.9,0.9,2.7,1.8,4.4,0.9h0.9l0,0c-6.2,9.7-7.1,18.6-5.3,24.8c2.7,8,10.6,10.6,10.6,10.6l0,0l0,0
			c0,0-1.8,1.8-0.9,4.4C250,571.7,250.8,573.5,251.7,573.5z"/>
	</g>
</g>
</svg>
