<?xml version="1.0" encoding="UTF-8"?>
<svg version="1.2" baseProfile="tiny-ps" id="Layer_1" xmlns="http://www.w3.org/2000/svg" xmlns:xlink="http://www.w3.org/1999/xlink" viewBox="0 0 491.6 491.6">
    <title>CrowdStrike</title>
    <g id="b">
        <g id="c">
            <g>
                <path d="M395.45,315.87c-6.98-.69-19.36-2.42-34.85,5.39-15.48,7.81-21.58,8.15-29.18,7.33,2.23,4.09,6.76,9.7,21,10.7,14.23,1,21.04,1.44,13.55,19.18,.17-5.36-1.08-15.72-15.21-13.9-14.12,1.82-17.43,14.54-2.27,20.89-4.93,.99-15.37,1.58-22.84-17.94-5.17,2.25-13.14,6.75-27.59-4.41,3.64,1.17,7.43,1.82,11.26,1.94-12.83-6.12-25.08-17.51-32.93-28.27,6.22,4.63,13.09,9.25,20.03,10.12-8.2-10.01-27.18-30.03-50.4-50.6,14.93,9.75,32.94,25.16,62.42,21.7,29.49-3.47,49.3-10.22,87,17.88" fill="#ec462b" />
                <path d="M269.26,308.92c-18.49-8.01-22.45-9.62-46.22-15.66-23.77-6.04-47.16-18.61-62.79-38.22,11.02,8.07,33.53,24.32,56.64,22.56-3.51-5.14-9.99-9.15-17.74-13.19,8.76,2.1,35.2,8.86,70.1,44.52" fill="#ec462b" />
                <path d="M229.01,240.49c-4.77-13.67-13.37-31.18-54.15-57.2-19.86-13.11-49.03-29.57-87.42-71.55,2.75,11.31,14.88,40.74,76.01,78.94,20.08,13.7,46,22.16,65.57,49.81" fill="#ec462b" />
                <path d="M231.53,260.32c-5.02-11.57-15.1-26.42-54.61-47.62-18.22-10.21-49.34-25.91-77.34-55.76,2.54,10.78,15.53,34.45,71.45,64.02,15.48,8.53,41.66,16.53,60.5,39.36" fill="#ec462b" />
                <path d="M381,290.85c14.6,2.21,13.87,5.3,14.02,10.64-4.06-4.29-8.8-7.89-14.02-10.64m-111.15-90.36c-77.02-22.04-107.64-49.85-131.33-78.97,10.82,33.51,36.62,45.5,64.19,68,27.57,22.5,29.14,34.59,37.25,47.89,18.09,29.61,20.97,34.51,38.92,47.44,21.16,14.04,46.75,4.54,74.82,8.94,28.07,4.4,51.27,25.8,56.32,34.03,5.88-10.5-8.17-25.62-11.97-29.42,2.03-13.75-30.49-19.79-42.8-24.5-2.42-.92-8.4-2.31-3.21-14.65,7-17.03,14.29-31.85-82.18-58.76" fill="#ec462b" />
            </g>
        </g>
    </g>
</svg>
