<?xml version="1.0" encoding="UTF-8" standalone="yes"?>
<svg baseProfile="tiny-ps" version="1.2" viewBox="0 0 1024 1024" xmlns="http://www.w3.org/2000/svg">
  <title>Yxplora AG</title>
  <rect x=".2" y=".5" width="1024" height="1024" fill="#fff"/>
  <g>
    <path d="M772.7,459.6c-4-.5-7-.7-8.9-.7-8.6,0-15.3,2.2-20.1,6.5-4.9,4.3-9.7,10.2-9.7,20v58.3h-27.8v-111.3h27.8v21.5c4.6-6.6,9-12.1,15.5-16.6,6.5-4.5,13-6.8,19.6-6.8s2,.1,3.7.4v28.8Z" fill="#1a171b"/>
    <path d="M631,429.8c10.5,0,20.3,2.6,29.6,7.8,9.2,5.2,16.4,12.3,21.6,21.3,5.2,9,7.7,18.7,7.7,29s-2.6,20.2-7.8,29.3c-5.2,9.1-12.3,16.2-21.3,21.3-9,5.1-18.9,7.7-29.7,7.7-15.9,0-29.5-5.7-40.8-17-11.3-11.3-16.9-25-16.9-41.2s6.4-31.8,19.1-43.3c11.2-10,24-15.1,38.5-15.1M631.4,456c-8.7,0-15.9,3-21.7,9-5.8,6-8.6,13.7-8.6,23.1s2.8,17.5,8.5,23.4c5.7,6,12.9,9,21.7,9s16-3,21.8-9.1c5.8-6,8.7-13.8,8.7-23.3s-2.9-17.2-8.6-23.2c-5.7-6-13-8.9-21.8-8.9Z" fill="#1a171b"/>
    <path d="M863.5,432.5h27.8v111.1h-27.8v-11.8c-5.5,5.2-10.9,8.9-16.4,11.2-5.5,2.3-11.4,3.4-17.8,3.4-14.4,0-26.8-5.6-37.3-16.7-10.5-11.1-15.8-24.9-15.8-41.4s5.1-31.1,15.3-42.1c10.2-10.9,22.5-16.4,37-16.4s13,1.3,18.8,3.8c5.9,2.5,11.3,6.2,16.3,11.2v-12.2M834.1,455.4c-8.7,0-15.9,3-21.6,9.1-5.7,6.1-8.6,13.9-8.6,23.4s2.9,17.4,8.8,23.6c5.8,6.2,13,9.3,21.6,9.3s16.1-3,21.9-9.1c5.8-6.1,8.7-14,8.7-23.9s-2.9-17.4-8.7-23.4c-5.8-6-13.2-9-22-9Z" fill="#1a171b"/>
    <path d="M258.6,544.7v-113.8h113.8v113.8h-113.8ZM369.8,542.2v-2.5,2.5h0ZM263.7,539.6h103.6v-103.6h-103.6v103.6h0Z" fill="#1a171b"/>
    <path d="M418.5,431.7v12.3c5-5,10.5-8.8,16.4-11.3,5.9-2.5,12.2-3.8,18.9-3.8,14.6,0,27,5.5,37.2,16.5,10.2,11,15.3,25.1,15.3,42.3s-5.3,30.5-15.8,41.6c-10.6,11.2-23.1,16.7-37.5,16.7s-12.4-1.2-18-3.5c-5.6-2.3-11.1-6.1-16.5-11.3v52.8h-27.9v-152.5h27.9M447.9,454.7c-8.9,0-16.2,3-22,9-5.9,6-8.8,13.9-8.8,23.5s2.9,17.9,8.8,24c5.8,6.1,13.2,9.2,22,9.2s15.8-3.1,21.7-9.3c5.9-6.2,8.8-14.1,8.8-23.7s-2.9-17.4-8.7-23.5c-5.8-6.1-13.1-9.2-21.9-9.2Z" fill="#1a171b"/>
    <path d="M249.7,431.7l-51.1,132.4c-4.4,11.3-13.9,17.5-28.6,18.6l-20.3,1.5v-23.1h4.6c14.8,0,22.2-5.6,22.2-16.8l-43.4-112.5h34.1l25.8,78.6,24.9-78.6h31.7Z" fill="#1a171b"/>
    <path d="M386.1,412c0,0-.1,0-.2,0h0" fill="#00519c"/>
    <path d="M370.1,516.4c13.9,11.7,17.6,26,17.6,34.3h0c-.1,3.3-.3,5.5-2,7.5h0c-1.3,1.1-2.9,1.6-5.7,1.7h0c-5.1,0-13.7-2.3-28.1-11.2h0c-15.7-9.8-30.4-22.4-40.1-32.3h0c-11,11.4-20.3,20.5-25.6,25h0c-11.7,10-18.7,15.7-27.4,15.8h0c-1.8,0-3.7-.3-5.6-.8h0c-4.6-1.3-6.6-5.8-6.5-10.1h0c0-5.9,2.7-12.8,6.5-18.8h0c2.7-4.1,18.2-19.3,36.9-37.5h0c-6-8.5-12.2-18.4-19.5-31h0c-6.6-11.6-12.2-20.5-12.4-28.3h0c0-3,1-5.9,3.2-8h0c.9-1,2.3-1.5,3.5-1.4h0c4.4.3,7.9,3.6,12.6,7.8h0c4.6,4.2,9.5,9.6,14.1,14.1h0c4.7,4.6,12.3,12.8,22.8,23.2h0c15.3-14.7,29.5-28.4,37.2-36h0c16.9-16.4,27.5-23.2,34.2-23.5h0c2.1-.2,4.6,1.3,5.1,3.6h0c.2.7.3,1.5.3,2.3h0c-.2,6.8-5.5,16.8-18.3,33.8h0c-10,13.1-22.6,28-35.3,42.1h0c9.2,8.4,20.9,17.9,32.4,27.7h0" fill="#00519c"/>
    <rect x="525.7" y="389.5" width="27.8" height="154.1" fill="#1a171b"/>
    <g>
      <path d="M259.4,609.6h1.9c0-2.8,0-4.5.1-5,.1-1.2.6-2.1,1.5-2.8.8-.7,2-1,3.6-1s2.4.3,3.8.8v4.1c-.8-.2-1.4-.3-1.9-.3s-1.1.1-1.4.4c-.2.2-.3.6-.3,1.2v2.7s3.4,0,3.4,0v4.5h-3.4v16.9h-5.4v-16.9h-1.9v-4.5Z" fill="#1a171b"/>
      <path d="M278.4,600.8c.9,0,1.8.3,2.4,1,.7.7,1,1.5,1,2.5s-.3,1.8-1,2.5c-.7.7-1.5,1-2.4,1s-1.8-.3-2.4-1c-.7-.7-1-1.5-1-2.5s.3-1.8,1-2.4c.7-.7,1.5-1,2.4-1ZM275.7,609.6h5.4v21.4h-5.4v-21.4Z" fill="#1a171b"/>
      <path d="M308.1,621.9h-17.3c.2,1.5.9,2.7,2,3.6,1.1.9,2.5,1.3,4.1,1.3s3.7-.7,5.2-2.1l4.5,2.1c-1.1,1.6-2.5,2.8-4.1,3.6-1.6.8-3.4,1.2-5.6,1.2-3.4,0-6.1-1.1-8.2-3.2-2.1-2.1-3.2-4.8-3.2-8s1.1-6,3.2-8.1c2.1-2.2,4.8-3.2,7.9-3.2s6.1,1.1,8.2,3.2c2.1,2.2,3.2,5,3.2,8.6v1ZM302.8,617.6c-.4-1.2-1.1-2.2-2.1-2.9-1-.7-2.3-1.1-3.6-1.1s-2.8.4-3.9,1.3c-.7.5-1.4,1.4-2,2.8h11.7Z" fill="#1a171b"/>
      <path d="M310.9,601.3h5.4v29.7h-5.4v-29.7Z" fill="#1a171b"/>
      <path d="M336,601.3h5.4v29.7h-5.4v-2.3c-1.1,1-2.1,1.7-3.2,2.2-1.1.4-2.2.7-3.4.7-2.8,0-5.2-1.1-7.2-3.2s-3-4.8-3-8,1-6,2.9-8.1c2-2.1,4.3-3.2,7.1-3.2s2.5.2,3.6.7c1.1.5,2.2,1.2,3.1,2.2v-10.6ZM330.4,614c-1.7,0-3,.6-4.1,1.8-1.1,1.2-1.6,2.7-1.6,4.5s.6,3.4,1.7,4.6c1.1,1.2,2.5,1.8,4.1,1.8s3.1-.6,4.2-1.8c1.1-1.2,1.7-2.7,1.7-4.6s-.6-3.4-1.7-4.5c-1.1-1.2-2.5-1.7-4.2-1.7Z" fill="#1a171b"/>
      <path d="M375,619.7l3.3,3.8-1.5,1.4-1.5,1.3,4.7,4.9h-6.7l-1.9-2c-3,1.8-5.9,2.7-8.5,2.7s-4-.6-5.4-1.9c-1.4-1.3-2.1-3-2.1-5s.4-3,1.2-4.4c.8-1.4,2.1-2.8,4-4.2-1.9-2.5-2.8-4.7-2.8-6.7s.6-2.8,1.9-4.2c1.2-1.4,3-2.1,5.2-2.1s4,.7,5.2,2.1c1.2,1.4,1.8,2.8,1.8,4.2s-.3,2.2-.8,3.2c-.6,1-1.8,2.5-3.8,4.5,2.4,2.8,3.9,4.5,4.6,5.2.4-.3,1.5-1.2,3.2-2.7ZM367.8,625.2c-1-1-2.4-2.6-4.3-5-1.9,1.6-2.9,3-2.9,4.2s.3,1.1.8,1.6,1.2.7,2,.7c1.2,0,2.6-.5,4.4-1.5ZM364.5,613.3c1.5-1.2,2.2-2.4,2.2-3.3s-.2-.9-.5-1.2c-.3-.3-.8-.5-1.3-.5s-.9.2-1.3.5c-.3.4-.5.8-.5,1.2,0,.9.5,2,1.4,3.2Z" fill="#1a171b"/>
      <path d="M390.5,609.6h5.4v2.5c.9-1,1.9-1.8,3.1-2.3,1.1-.5,2.4-.7,3.7-.7s2.5.3,3.6,1c1.1.7,1.9,1.6,2.6,2.9.9-1.3,1.9-2.2,3.1-2.9,1.2-.7,2.6-1,4.1-1s2.9.4,4,1.1c1.2.7,2,1.6,2.5,2.8.5,1.1.8,3,.8,5.6v12.6h-5.4v-10.9c0-2.4-.3-4.1-.9-4.9-.6-.9-1.5-1.3-2.7-1.3s-1.7.3-2.5.8c-.7.5-1.3,1.3-1.6,2.2-.3.9-.5,2.4-.5,4.5v9.7h-5.4v-10.4c0-1.9-.1-3.3-.4-4.2-.3-.9-.7-1.5-1.3-1.9-.6-.4-1.3-.6-2.1-.6s-1.7.3-2.4.8c-.7.5-1.3,1.3-1.6,2.2-.4,1-.5,2.5-.5,4.5v9.5h-5.4v-21.4Z" fill="#1a171b"/>
      <path d="M444.2,609.6h5.4v21.4h-5.4v-2.3c-1.1,1-2.1,1.7-3.2,2.2-1.1.4-2.2.7-3.4.7-2.8,0-5.2-1.1-7.2-3.2-2-2.1-3-4.8-3-8s1-6,2.9-8.1c2-2.1,4.3-3.2,7.1-3.2s2.5.2,3.6.7c1.1.5,2.2,1.2,3.1,2.2v-2.4ZM438.5,614c-1.7,0-3,.6-4.1,1.8-1.1,1.2-1.6,2.7-1.6,4.5s.6,3.4,1.7,4.6c1.1,1.2,2.5,1.8,4.1,1.8s3.1-.6,4.2-1.8c1.1-1.2,1.7-2.7,1.7-4.6s-.6-3.4-1.7-4.5c-1.1-1.2-2.5-1.7-4.2-1.7Z" fill="#1a171b"/>
      <path d="M454.4,609.6h4.6v2.7c.5-1.1,1.2-1.9,2-2.4s1.7-.8,2.7-.8,1.4.2,2.2.6l-1.7,4.6c-.6-.3-1.1-.5-1.6-.5-.8,0-1.5.5-2.1,1.5-.6,1-.9,3-.9,6v1s0,8.7,0,8.7h-5.3v-21.4Z" fill="#1a171b"/>
      <path d="M469.2,601.3h5.4v17.1l7.9-8.8h6.8l-9.2,10.3,10.3,11.2h-6.7l-9.1-9.9v9.9h-5.4v-29.7Z" fill="#1a171b"/>
      <path d="M513.1,621.9h-17.3c.2,1.5.9,2.7,2,3.6,1.1.9,2.5,1.3,4.1,1.3s3.7-.7,5.2-2.1l4.5,2.1c-1.1,1.6-2.5,2.8-4.1,3.6-1.6.8-3.5,1.2-5.6,1.2-3.4,0-6.1-1.1-8.2-3.2-2.1-2.1-3.2-4.8-3.2-8s1.1-6,3.2-8.1c2.1-2.2,4.8-3.2,7.9-3.2s6.1,1.1,8.2,3.2c2.1,2.2,3.2,5,3.2,8.6v1ZM507.7,617.6c-.4-1.2-1.1-2.2-2.1-2.9-1-.7-2.3-1.1-3.6-1.1s-2.8.4-3.9,1.3c-.7.5-1.4,1.4-2,2.8h11.7Z" fill="#1a171b"/>
      <path d="M517.1,601.7h5.4v7.9h3.2v4.6h-3.2v16.8h-5.4v-16.8h-2.8v-4.6h2.8v-7.9Z" fill="#1a171b"/>
      <path d="M542.3,609.6h4.6v2.7c.5-1.1,1.2-1.9,2-2.4s1.7-.8,2.7-.8,1.4.2,2.2.6l-1.7,4.6c-.6-.3-1.1-.5-1.6-.5-.8,0-1.5.5-2.1,1.5-.6,1-.9,3-.9,6v1s0,8.7,0,8.7h-5.3v-21.4Z" fill="#1a171b"/>
      <path d="M577,621.9h-17.3c.2,1.5.9,2.7,2,3.6,1.1.9,2.5,1.3,4.1,1.3s3.7-.7,5.2-2.1l4.5,2.1c-1.1,1.6-2.5,2.8-4.1,3.6-1.6.8-3.5,1.2-5.6,1.2-3.4,0-6.1-1.1-8.2-3.2-2.1-2.1-3.2-4.8-3.2-8s1.1-6,3.2-8.1c2.1-2.2,4.8-3.2,7.9-3.2s6.1,1.1,8.2,3.2c2.1,2.2,3.2,5,3.2,8.6v1ZM571.6,617.6c-.4-1.2-1.1-2.2-2.1-2.9-1-.7-2.3-1.1-3.6-1.1s-2.8.4-3.9,1.3c-.7.5-1.4,1.4-2,2.8h11.7Z" fill="#1a171b"/>
      <path d="M595.1,612.6l-3.3,3.3c-1.4-1.3-2.6-2-3.7-2s-1.1.1-1.4.4c-.3.3-.5.6-.5,1s.1.6.3.8c.2.2.8.6,1.6,1l2,1c2.1,1,3.5,2.1,4.3,3.1.8,1.1,1.2,2.3,1.2,3.7s-.7,3.5-2.1,4.8c-1.4,1.3-3.3,1.9-5.6,1.9s-5.6-1.2-7.5-3.7l3.3-3.6c.6.7,1.4,1.3,2.2,1.8.8.5,1.6.7,2.3.7s1.3-.2,1.7-.5c.4-.3.7-.7.7-1.2,0-.8-.8-1.6-2.3-2.4l-1.8-.9c-3.5-1.7-5.2-3.9-5.2-6.6s.7-3.1,2-4.3c1.3-1.2,3-1.8,5-1.8s2.7.3,3.9.9c1.2.6,2.3,1.5,3.1,2.6Z" fill="#1a171b"/>
      <path d="M621,621.9h-17.3c.2,1.5.9,2.7,2,3.6,1.1.9,2.5,1.3,4.1,1.3s3.7-.7,5.2-2.1l4.5,2.1c-1.1,1.6-2.5,2.8-4.1,3.6-1.6.8-3.5,1.2-5.6,1.2-3.4,0-6.1-1.1-8.2-3.2-2.1-2.1-3.2-4.8-3.2-8s1.1-6,3.2-8.1c2.1-2.2,4.8-3.2,7.9-3.2s6.1,1.1,8.2,3.2c2.1,2.2,3.2,5,3.2,8.6v1ZM615.6,617.6c-.4-1.2-1.1-2.2-2.1-2.9-1-.7-2.3-1.1-3.6-1.1s-2.8.4-3.9,1.3c-.7.5-1.4,1.4-2,2.8h11.7Z" fill="#1a171b"/>
      <path d="M640.2,609.6h5.4v21.4h-5.4v-2.3c-1.1,1-2.1,1.7-3.2,2.2-1.1.4-2.2.7-3.4.7-2.8,0-5.2-1.1-7.2-3.2-2-2.1-3-4.8-3-8s1-6,2.9-8.1c2-2.1,4.3-3.2,7.1-3.2s2.5.2,3.6.7c1.1.5,2.2,1.2,3.1,2.2v-2.4ZM634.6,614c-1.7,0-3,.6-4.1,1.8-1.1,1.2-1.6,2.7-1.6,4.5s.6,3.4,1.7,4.6c1.1,1.2,2.5,1.8,4.1,1.8s3.1-.6,4.2-1.8c1.1-1.2,1.7-2.7,1.7-4.6s-.6-3.4-1.7-4.5c-1.1-1.2-2.5-1.7-4.2-1.7Z" fill="#1a171b"/>
      <path d="M651.2,609.6h4.6v2.7c.5-1.1,1.2-1.9,2-2.4s1.7-.8,2.7-.8,1.4.2,2.2.6l-1.7,4.6c-.6-.3-1.1-.5-1.6-.5-.8,0-1.5.5-2.1,1.5-.6,1-.9,3-.9,6v1s0,8.7,0,8.7h-5.3v-21.4Z" fill="#1a171b"/>
      <path d="M685.4,613.9l-4.5,2.5c-.8-.9-1.7-1.5-2.5-1.8-.8-.3-1.8-.5-2.9-.5-2,0-3.6.6-4.9,1.8-1.2,1.2-1.9,2.7-1.9,4.6s.6,3.3,1.8,4.5c1.2,1.2,2.8,1.7,4.7,1.7s4.3-.8,5.6-2.5l4.2,2.9c-2.3,3-5.5,4.5-9.7,4.5s-6.7-1.1-8.9-3.4c-2.1-2.2-3.2-4.8-3.2-7.8s.5-4,1.6-5.7c1-1.7,2.5-3.1,4.3-4.1,1.9-1,3.9-1.5,6.2-1.5s4,.4,5.7,1.3c1.7.8,3.1,2.1,4.2,3.6Z" fill="#1a171b"/>
      <path d="M688.5,601.3h5.3v10.4c1.1-.9,2.1-1.6,3.2-2,1.1-.5,2.1-.7,3.2-.7,2.1,0,3.9.7,5.4,2.2,1.2,1.3,1.9,3.1,1.9,5.6v14.2h-5.3v-9.4c0-2.5-.1-4.2-.4-5-.2-.9-.6-1.5-1.2-2-.6-.4-1.3-.6-2.1-.6s-2,.4-2.8,1.1c-.8.7-1.3,1.7-1.6,3-.2.6-.2,2.1-.2,4.4v8.6h-5.3v-29.7Z" fill="#1a171b"/>
      <path d="M740,612.6l-3.3,3.3c-1.4-1.3-2.6-2-3.7-2s-1.1.1-1.4.4c-.3.3-.5.6-.5,1s.1.6.3.8c.2.2.8.6,1.6,1l2,1c2.1,1,3.5,2.1,4.3,3.1.8,1.1,1.2,2.3,1.2,3.7s-.7,3.5-2.1,4.8-3.3,1.9-5.6,1.9-5.6-1.2-7.5-3.7l3.3-3.6c.6.7,1.4,1.3,2.2,1.8.8.5,1.6.7,2.3.7s1.3-.2,1.7-.5c.4-.3.7-.7.7-1.2,0-.8-.8-1.6-2.3-2.4l-1.8-.9c-3.5-1.7-5.2-3.9-5.2-6.6s.7-3.1,2-4.3c1.3-1.2,3-1.8,5-1.8s2.7.3,3.9.9c1.2.6,2.3,1.5,3.1,2.6Z" fill="#1a171b"/>
      <path d="M753.7,609.1c2,0,3.9.5,5.7,1.5,1.8,1,3.2,2.4,4.2,4.1,1,1.7,1.5,3.6,1.5,5.6s-.5,3.9-1.5,5.7c-1,1.8-2.4,3.1-4.1,4.1-1.7,1-3.6,1.5-5.7,1.5-3.1,0-5.7-1.1-7.9-3.3-2.2-2.2-3.3-4.8-3.3-8s1.2-6.1,3.7-8.4c2.2-1.9,4.6-2.9,7.4-2.9ZM753.8,614.1c-1.7,0-3.1.6-4.2,1.7-1.1,1.2-1.7,2.6-1.7,4.5s.5,3.4,1.6,4.5c1.1,1.2,2.5,1.7,4.2,1.7s3.1-.6,4.2-1.8c1.1-1.2,1.7-2.7,1.7-4.5s-.5-3.3-1.6-4.5c-1.1-1.1-2.5-1.7-4.2-1.7Z" fill="#1a171b"/>
      <path d="M768.7,601.3h5.4v29.7h-5.4v-29.7Z" fill="#1a171b"/>
      <path d="M779.6,609.6h5.4v10.3c0,2,.1,3.4.4,4.2.3.8.7,1.4,1.3,1.8.6.4,1.4.6,2.3.6s1.7-.2,2.3-.6c.6-.4,1.1-1.1,1.4-1.9.2-.6.3-1.9.3-4v-10.5h5.4v9.1c0,3.7-.3,6.3-.9,7.7-.7,1.7-1.8,3-3.2,3.9-1.4.9-3.2,1.3-5.4,1.3s-4.3-.5-5.7-1.6c-1.4-1.1-2.5-2.5-3.1-4.4-.4-1.3-.6-3.7-.6-7.1v-8.9Z" fill="#1a171b"/>
      <path d="M805.1,601.7h5.4v7.9h3.2v4.6h-3.2v16.8h-5.4v-16.8h-2.8v-4.6h2.8v-7.9Z" fill="#1a171b"/>
      <path d="M820.1,600.8c.9,0,1.8.3,2.4,1,.7.7,1,1.5,1,2.5s-.3,1.8-1,2.5c-.7.7-1.5,1-2.4,1s-1.8-.3-2.4-1c-.7-.7-1-1.5-1-2.5s.3-1.8,1-2.4c.7-.7,1.5-1,2.4-1ZM817.5,609.6h5.4v21.4h-5.4v-21.4Z" fill="#1a171b"/>
      <path d="M837.6,609.1c2,0,3.9.5,5.7,1.5,1.8,1,3.2,2.4,4.2,4.1,1,1.7,1.5,3.6,1.5,5.6s-.5,3.9-1.5,5.7c-1,1.8-2.4,3.1-4.1,4.1-1.7,1-3.6,1.5-5.7,1.5-3.1,0-5.7-1.1-7.9-3.3-2.2-2.2-3.3-4.8-3.3-8s1.2-6.1,3.7-8.4c2.2-1.9,4.6-2.9,7.4-2.9ZM837.7,614.1c-1.7,0-3.1.6-4.2,1.7-1.1,1.2-1.7,2.6-1.7,4.5s.5,3.4,1.6,4.5c1.1,1.2,2.5,1.7,4.2,1.7s3.1-.6,4.2-1.8c1.1-1.2,1.7-2.7,1.7-4.5s-.5-3.3-1.6-4.5c-1.1-1.1-2.5-1.7-4.2-1.7Z" fill="#1a171b"/>
      <path d="M852.4,609.6h5.4v2.2c1.2-1,2.3-1.7,3.3-2.1,1-.4,2-.6,3-.6,2.1,0,3.9.7,5.4,2.2,1.3,1.3,1.9,3.1,1.9,5.6v14.2h-5.3v-9.4c0-2.6-.1-4.3-.3-5.1-.2-.8-.6-1.5-1.2-1.9-.6-.4-1.3-.7-2.1-.7s-2,.4-2.8,1.1c-.8.7-1.3,1.7-1.6,3-.2.7-.2,2.1-.2,4.4v8.6h-5.4v-21.4Z" fill="#1a171b"/>
      <path d="M890.4,612.6l-3.3,3.3c-1.4-1.3-2.6-2-3.7-2s-1.1.1-1.4.4c-.3.3-.5.6-.5,1s.1.6.3.8c.2.2.8.6,1.6,1l2,1c2.1,1,3.5,2.1,4.3,3.1.8,1.1,1.2,2.3,1.2,3.7s-.7,3.5-2.1,4.8c-1.4,1.3-3.3,1.9-5.6,1.9s-5.6-1.2-7.5-3.7l3.3-3.6c.6.7,1.4,1.3,2.2,1.8.8.5,1.6.7,2.3.7s1.3-.2,1.7-.5c.4-.3.7-.7.7-1.2,0-.8-.8-1.6-2.3-2.4l-1.8-.9c-3.5-1.7-5.2-3.9-5.2-6.6s.7-3.1,2-4.3c1.3-1.2,3-1.8,5-1.8s2.7.3,3.9.9c1.2.6,2.3,1.5,3.1,2.6Z" fill="#1a171b"/>
    </g>
    <text/>
  </g>
</svg>