<?xml version="1.0" encoding="utf-8"?>
<!-- Generator: Adobe Illustrator 26.3.1, SVG Export Plug-In . SVG Version: 6.00 Build 0)  -->
<svg version="1.2" baseProfile="tiny-ps" id="svg" xmlns="http://www.w3.org/2000/svg" xmlns:xlink="http://www.w3.org/1999/xlink"
	viewBox="0 0 400 400" xml:space="preserve">
<title>business-security (b-sec) GmbH</title>
<g>
	<path id="path0" fill-rule="evenodd" fill="#D7D6D4" d="M197.6,64.2c-1,0.3-6.4,1.8-12,3.4c-9.5,2.7-19.1,5.4-30.6,8.6
		c-2.6,0.7-9.7,2.7-15.6,4.4c-5.9,1.7-12.6,3.6-14.8,4.2c-4,1.2-7.7,2.2-21.4,6c-4.1,1.1-8.9,2.5-10.7,3.1l-3.3,1l0.1,68.9l0.1,68.9
		l1.1,4.8c8.7,38.4,41.8,73.3,91.3,96.4c18.9,8.9,17.8,8.6,25.2,5.6c58.9-24,99.4-65.9,104.6-108.2c1-8.4,1.3-134.9,0.3-136.1
		c-0.3-0.3-2.2-1.1-4.3-1.7c-6.6-1.8-34.1-9.6-42.8-12.1c-1.9-0.5-6.3-1.8-9.9-2.8c-8.9-2.5-17.8-5-28.5-8
		c-4.9-1.4-12.5-3.5-16.9-4.8C201.2,63.5,200.4,63.4,197.6,64.2 M204.2,70.8c1.5,0.4,4.7,1.3,7,2s7.2,2.1,10.8,3.1
		c3.6,1,7.8,2.2,9.2,2.6c1.4,0.4,5.5,1.6,9,2.5c8.4,2.4,16.8,4.7,29.8,8.4c5.8,1.6,14.6,4.1,19.4,5.5c4.8,1.4,10.5,3,12.6,3.6
		l3.8,1.1l0.1,60.8c0.1,71.8,0.1,71.9-3,83c-5.1,18-19.3,38.6-36.5,53c-18.2,15.2-39.2,28-61.5,37.4l-4.1,1.7l-2.3-0.9
		c-56.7-23.1-94.3-59.9-102.1-100l-0.9-4.6L95.3,165c-0.1-52.6,0-64.9,0.4-65.3c0.3-0.2,6.7-2.2,14.3-4.3c7.6-2.1,15.6-4.4,17.8-5
		c2.2-0.6,7-2,10.6-3c7.8-2.2,12.2-3.4,28.4-8c6.7-1.9,16.7-4.7,22.2-6.3c5.5-1.5,10.2-2.9,10.4-2.9C200.3,69.9,201.5,70,204.2,70.8
		 M193,79.4c-9.2,2.6-22.8,6.5-39,11c-10.3,2.9-9.7,2.4-7.9,6.3c0.8,1.7,3,6.7,4.9,11.1c1.9,4.4,4.1,9.3,4.8,11
		c3.9,8.9,9.7,22.1,11,25.2c0.6,1.4,1.8,4.2,2.7,6.2s3.4,7.8,5.7,13c4,9.2,5.7,13.1,8,18.4c0.6,1.4,3.1,7,5.4,12.4
		c2.3,5.4,5,11.4,5.8,13.4c0.9,2,2.4,5.5,3.4,7.8c2.3,5.5,2.7,5.8,3.4,3.5c0.3-1,3.3-8,6.7-15.7s7-16,8-18.4c1-2.4,3.3-7.6,5-11.4
		c1.7-3.8,4-9,5-11.5c1.1-2.5,2.8-6.5,3.9-9c5.4-12.3,6.7-15.2,8.5-19.5c1.1-2.5,2.5-5.8,3.2-7.2c3.9-8.8,7.6-17.3,7.6-17.4
		c0-0.2,2.2-5.2,4.8-11c1.9-4.3,1.9-4.2-0.3-4.7c-1.8-0.4-16-4.4-27.3-7.6c-3-0.8-9.7-2.7-15-4.2c-5.3-1.5-9.8-2.8-10-3
		C200.8,77.4,199.2,77.6,193,79.4 M205.8,93.8c11.6,3.3,11,3.1,11,4c0,0.5-6.6,11.2-8,12.7c-0.7,0.8-0.6,0.8-11.9,0.1l-3.7-0.2
		l-3.7-5.7c-4.9-7.6-5.2-6.8,3.6-9.3c4-1.2,7.4-2.2,7.6-2.3C201.1,92.6,202.1,92.8,205.8,93.8 M208.1,115.3
		c0.5,0.4,1.1,3.2,2.5,12.9c1,6.8,2.1,14.1,2.4,16.2c3,20,3.5,23.6,3.5,25.2c0,1.3-1.6,5.5-9.5,24.4c-1,2.3-2.5,6.1-3.5,8.4
		c-2.4,5.8-2.4,5.8-5.9-2.7c-1.6-3.9-5-12-7.5-18c-5.2-12.5-4.9-10.6-3.2-22.4c0.7-5,1.5-10,1.6-11.1c0.1-1.1,0.6-4.2,1-7
		s1.4-9.4,2.2-14.8c1.7-11.5,1.3-10.8,5.5-10.8c1.8,0,3.5-0.2,3.9-0.4C202.1,114.6,207.3,114.7,208.1,115.3 M133.2,200
		c0,25.7,0.4,28.6,5.3,39.2c8.4,18.3,30.7,38.9,57.1,52.7l4.6,2.4l2.2-1.2c35.2-19.3,56.9-40.9,62.9-62.5c0.6-2,1.2-4.4,1.5-5.4
		c0.5-1.7,1.1-35,0.7-41.4l-0.1-2.4l-2.5,7.4l-2.5,7.4v12.1c0,13.5-0.4,16.7-2.8,23.5c-6.4,18.1-25.2,36.8-53.4,53.3
		c-4.9,2.9-4.5,2.8-8.1,0.9c-28.9-15.8-50.4-37.2-56.3-56c-1.8-5.7-2.2-9.9-2.2-22.4l0-11.4l-2.9-8.7c-1.6-4.8-3-8.7-3.2-8.7
		S133.2,188.3,133.2,200 M197.5,236.8c-2.6,2.3-1.1,7.6,2.1,7.6c1.3,0,3.8-1.5,4.3-2.6C205.8,237.7,200.8,233.8,197.5,236.8
		 M197.4,264.4c-3.4,3.6,0.1,9,4.3,6.9c3.4-1.8,3.6-5.3,0.4-7.2C200.2,262.9,198.8,263,197.4,264.4"/>
	<path id="path1" fill-rule="evenodd" fill="#0C0C0C" d="M0,200v200h200h200V200V0H200H0V200 M214.6,66.6c7.5,2.1,15.1,4.2,16.8,4.8
		c1.8,0.5,5,1.4,7.2,2c2.2,0.6,5.4,1.5,7.2,2c1.8,0.5,6.2,1.8,9.8,2.8c3.6,1,8.4,2.4,10.6,3c4,1.1,7.9,2.3,20.6,5.8
		c24,6.7,24.9,7,25.5,7.5c0.6,0.5,0.7,129.5,0.1,135.8c-2.2,21.3-12.7,41.9-31.2,61c-7.9,8.2-13.5,13-25,21.5
		c-4.4,3.3-13,8.8-19.6,12.5c-2.2,1.3-4.5,2.6-5,2.9c-4.5,2.7-23.8,11.7-29.2,13.6c-2.5,0.9-7-0.8-21.6-7.9
		c-52.7-25.8-85.7-61.9-91.5-100c-0.8-5.4-1.4-137.7-0.6-139.1c0.2-0.5,1.4-1,2.9-1.4c6.5-1.8,18.5-5.2,22.1-6.2
		c2.2-0.6,6.9-2,10.4-3c16.6-4.7,19.8-5.6,22.2-6.3c1.4-0.4,5.6-1.6,9.2-2.6c3.6-1,9-2.5,12-3.4c3-0.9,10.3-2.9,16.4-4.6
		c6.1-1.7,12.1-3.4,13.4-3.8c1.3-0.4,2.7-0.7,3-0.8C200.7,62.8,207.1,64.5,214.6,66.6 M194.6,72.2c-3.3,1-11.6,3.3-18.4,5.2
		c-6.8,1.9-13.8,3.9-15.6,4.4c-4.8,1.4-13.2,3.8-16.6,4.6c-1.6,0.4-4.1,1.1-5.4,1.5c-1.3,0.4-5.7,1.7-9.8,2.8
		c-4.1,1.1-12.1,3.4-17.8,5c-5.7,1.6-11.4,3.2-12.6,3.5c-3,0.7-2.7-4.4-2.8,63.1c0,72.8,0,72.8,6,88.3c9.3,23.8,34.7,50.2,63.9,66.6
		c1,0.6,4.1,2.3,7,3.9c8.8,4.9,26.4,13.2,28.2,13.2c1.5,0,15.4-6.4,25-11.5c12.4-6.6,28.1-16.9,36.2-23.8c0.8-0.7,2.3-1.9,3.4-2.8
		c21.7-17.8,36.4-42.1,39.4-64.8c0.6-4.2,0.8-130.9,0.3-131.4c-0.2-0.2-3.8-1.3-7.8-2.4c-22.3-6.2-27.9-7.8-33.4-9.4
		c-3.3-0.9-9.1-2.6-12.8-3.6c-3.7-1-7.9-2.2-9.2-2.6c-1.3-0.4-4.2-1.2-6.4-1.8c-2.2-0.6-5.1-1.4-6.4-1.8c-1.3-0.4-5.5-1.6-9.2-2.6
		c-3.7-1-9.6-2.7-12.9-3.6c-3.4-1-6.2-1.7-6.2-1.7C200.6,70.4,197.9,71.2,194.6,72.2 M205,78c3.9,1.2,15.5,4.4,24.4,6.9
		c2.4,0.7,6.5,1.8,9,2.6c2.5,0.7,7.6,2.2,11.2,3.2c3.6,1,6.8,2,7,2.2c0.6,0.6,0.4,1.1-8,20c-0.7,1.6-3.8,8.7-6.8,15.6
		c-3,6.9-6.2,14.2-7.1,16.2c-0.9,2-2.4,5.4-3.3,7.6c-2.4,5.6-6.9,15.9-9.3,21.4c-2.4,5.5-12,27.5-16.7,38.2c-4.3,10-4.2,9.8-4.9,9.8
		c-0.3,0-0.8-0.6-1.1-1.3c-0.3-0.7-1.3-2.9-2.2-4.9c-1.7-3.9-5.8-13.3-8.9-20.4c-1.1-2.4-2.6-6-3.5-8c-0.9-2-3.5-8-5.9-13.4
		c-4.6-10.5-5.7-13-8.1-18.6c-0.9-2-2.5-5.6-3.5-8c-1-2.4-2.3-5.2-2.7-6.2c-0.4-1-1.3-3-1.9-4.4c-1.1-2.6-2.5-5.9-5.5-12.6
		c-0.9-2-3.7-8.4-6.2-14.3c-2.6-5.9-4.8-11-5-11.4c-1-1.8-1.9-4.7-1.7-5.2c0.3-0.5,3.5-1.5,16.4-5.1c4.5-1.3,10.6-3,13.6-3.8
		s8.1-2.3,11.4-3.2c3.3-0.9,7.7-2.2,9.8-2.8C200.4,76.6,200.1,76.6,205,78 M137,186l3.2,9.4l0.2,14c0.3,15.7,0.6,17.7,3.8,25.1
		c7.5,17.1,28,36.6,52.7,50.1c4.2,2.3,4,2.3,9-0.6c27.6-16,47.4-36,53-53.8c2.1-6.6,2.3-8.5,2.3-21.7v-12.3l3.2-9.7
		c1.8-5.3,3.4-9.7,3.6-9.7c0.5,0,0.5,43.8,0,47.4c-3.4,23.6-29.6,51.9-64.1,69.2l-3.6,1.8l-4.5-2.4c-34.2-18-57.2-42.7-62.6-67.1
		c-0.6-2.9-1.3-46.2-0.7-48.4C133.1,175.3,133.9,176.9,137,186 M202.6,235.4c4,1.9,3.8,7.5-0.3,9.1c-5.2,2.1-9.3-4.4-5.2-8.3
		C198.9,234.6,200.4,234.4,202.6,235.4 M202.7,263.1c4,1.9,3.7,7.5-0.5,9.2c-2,0.8-3.2,0.6-4.9-0.9
		C192.7,267.5,197.3,260.5,202.7,263.1"/>
	<path id="path2" fill-rule="evenodd" fill="#067C8C" d="M194.1,95.4c-7.3,2.1-8.2,2.4-7.9,3.2c0.4,1,6.7,10.7,7.2,11.1
		c0.2,0.2,1.9,0.3,3.7,0.3l3.3,0l0.1-8.2c0.1-4.5,0-8.2-0.1-8.2C200.3,93.7,197.4,94.4,194.1,95.4 M193.6,116.9
		c-0.2,0.5-0.6,3-1,5.5c-1.9,13.2-5.3,36.5-6.2,42.7c-0.6,4.1-0.4,6.1,1.5,10.5c0.9,2.1,3.8,9.1,6.5,15.6c2.7,6.5,5.1,12.2,5.4,12.8
		c0.5,0.8,0.6-5.8,0.7-43.5l0.1-44.5h-3.3C194.2,116,194,116.1,193.6,116.9"/>
	<path id="path3" fill-rule="evenodd" fill="#08606A" d="M200.7,93.9c-0.1,0.1-0.3,3.8-0.3,8.2v7.9l1,0.3c0.6,0.1,2.2,0.2,3.7,0.1
		c3.1-0.2,2.6,0.3,7-6.7c3.2-5,3.6-5.9,2.4-6.2c-0.4-0.1-3.3-0.9-6.5-1.8c-3.2-0.9-6.1-1.7-6.4-1.8
		C201.2,93.7,200.8,93.7,200.7,93.9 M200.7,116.3c-0.4,0.4-0.3,88.9,0.1,88.9c0.2,0,3.1-6.6,6.4-14.7c3.3-8.1,6.6-15.9,7.3-17.5
		l1.2-2.8l-0.7-4.4c-0.4-2.4-1.3-8.8-2-14c-0.8-5.3-1.5-10.7-1.8-12c-0.7-4.2-1.6-10.2-2.4-16.4c-1.1-8.2-0.7-7.4-4.6-7.4
		C202.4,116,200.8,116.1,200.7,116.3"/>
	<path id="path4" fill-rule="evenodd" fill="#686967" d="M197.4,63.6c-1.3,0.4-7.3,2.1-13.4,3.8c-6.1,1.7-13.4,3.8-16.4,4.6
		c-3,0.9-8.4,2.4-12,3.4c-3.6,1-7.8,2.2-9.2,2.6c-2.4,0.7-5.6,1.6-22.2,6.3c-3.5,1-8.2,2.3-10.4,3c-3.6,1-15.6,4.4-22.1,6.2
		c-1.5,0.4-2.7,1-2.9,1.4C88,96.3,88.5,228.6,89.3,234c5.7,38.1,38.8,74.2,91.5,100c14.6,7.1,19.2,8.8,21.6,7.9
		c5.4-1.9,24.7-10.9,29.2-13.6c0.5-0.3,2.8-1.6,5-2.9c6.6-3.8,15.2-9.3,19.6-12.5c11.5-8.5,17.1-13.3,25-21.5
		c18.5-19.1,28.9-39.5,31.2-61.1c0.7-6.2,0.6-135.2-0.1-135.8c-0.6-0.5-1.5-0.8-25.5-7.5c-12.7-3.6-16.6-4.7-20.6-5.8
		c-2.2-0.6-7-2-10.6-3c-3.6-1-8-2.3-9.8-2.8c-1.8-0.5-5-1.4-7.2-2c-2.2-0.6-5.4-1.5-7.2-2c-7.8-2.3-30.5-8.6-31-8.6
		C200.1,62.9,198.7,63.2,197.4,63.6 M209.5,65.8c4.3,1.2,11.9,3.4,16.9,4.8c10.7,3,19.6,5.5,28.5,8c3.6,1,8,2.3,9.9,2.8
		c8.7,2.5,36.2,10.3,42.8,12.1c2.1,0.6,4,1.3,4.3,1.7c1,1.2,0.7,127.7-0.3,136.1c-5.1,42.3-45.7,84.2-104.6,108.2
		c-7.4,3-6.3,3.2-25.2-5.6c-49.5-23.2-82.5-58-91.3-96.4l-1.1-4.8l-0.1-68.9l-0.1-68.9l3.3-1c1.8-0.5,6.6-1.9,10.7-3.1
		c13.7-3.8,17.4-4.9,21.4-6c2.2-0.6,8.9-2.5,14.8-4.2c5.9-1.7,13-3.6,15.6-4.4c11.5-3.2,21.1-5.9,30.6-8.6c5.6-1.6,11-3.1,12-3.4
		C200.4,63.4,201.2,63.5,209.5,65.8 M199.4,70.2c-0.2,0.1-4.9,1.4-10.4,2.9c-5.5,1.5-15.5,4.4-22.2,6.3c-16.2,4.6-20.6,5.8-28.4,8
		c-3.6,1-8.4,2.4-10.6,3c-2.2,0.6-10.2,2.9-17.8,5c-7.6,2.1-14,4.1-14.3,4.3c-0.4,0.3-0.5,12.7-0.4,65.3l0.1,64.8l0.9,4.6
		c7.9,40.1,45.5,76.9,102.1,100l2.3,0.9l4.1-1.7c22.3-9.4,43.4-22.2,61.5-37.4c17.2-14.4,31.4-35,36.5-53c3.1-11,3.1-11.2,3-83
		l-0.1-60.8l-3.8-1.1c-2.1-0.6-7.8-2.2-12.6-3.6c-4.8-1.4-13.6-3.8-19.4-5.5c-13-3.7-21.4-6-29.8-8.4c-3.5-1-7.6-2.1-9-2.5
		c-1.4-0.4-5.6-1.6-9.2-2.6c-3.6-1-8.5-2.4-10.8-3.1C202.6,70.2,200.6,69.8,199.4,70.2 M206.9,72.2c3.4,1,9.2,2.6,12.9,3.6
		c3.7,1,7.9,2.2,9.2,2.6c1.3,0.4,4.2,1.2,6.4,1.8c2.2,0.6,5.1,1.4,6.4,1.8c1.3,0.4,5.5,1.6,9.2,2.6c3.7,1,9.5,2.7,12.8,3.6
		c5.5,1.6,11.1,3.2,33.4,9.4c4.1,1.1,7.6,2.2,7.8,2.4c0.5,0.4,0.3,127.2-0.3,131.4c-3,22.8-17.7,47-39.4,64.8
		c-1.1,0.9-2.6,2.2-3.4,2.8c-8.1,6.8-23.6,17.1-36.2,23.8c-9.4,5.1-23.4,11.5-25,11.5c-1.8,0-19.5-8.2-28.2-13.2
		c-2.9-1.6-6-3.4-7-3.9c-29.2-16.4-54.5-42.6-63.9-66.5c-6.1-15.3-6.1-15.5-6.1-89.5c0-64.4-0.1-61.4,2.2-61.8
		c0.8-0.2,6.1-1.6,11.7-3.2c5.6-1.6,13.9-3.9,18.4-5.2c4.5-1.3,9.3-2.6,10.6-3c1.3-0.4,3.8-1.1,5.4-1.5c3.4-0.9,11.8-3.2,16.6-4.6
		c1.8-0.5,8.8-2.5,15.6-4.4c9.4-2.6,21.9-6.2,24.5-7C200.7,70.4,203.5,71.2,206.9,72.2 M195.6,78c-2.1,0.6-6.5,1.9-9.8,2.8
		c-3.3,0.9-8.4,2.4-11.4,3.2s-9.1,2.6-13.6,3.8c-13,3.6-16.1,4.6-16.4,5.1c-0.3,0.4,0.7,3.3,1.7,5.2c0.2,0.4,2.5,5.5,5,11.4
		c2.6,5.9,5.4,12.3,6.2,14.3c3,6.7,4.4,10,5.5,12.6c0.6,1.4,1.5,3.4,1.9,4.4c0.4,1,1.7,3.8,2.7,6.2c1.8,4.2,2.7,6.1,6.6,14.9
		c0.9,2,1.6,3.8,1.6,3.9c0,0.1,0.5,1.3,1.1,2.7c0.6,1.4,2.1,4.7,3.2,7.3c1.1,2.6,2.7,6.1,3.4,7.8c1.3,2.9,2.7,6.2,7.6,17.4
		c8.4,19.4,8.9,20.4,9.5,20.5c0.6,0.1,0.5,0.4,4.9-9.7c4.7-10.7,14.3-32.7,16.7-38.2c2.4-5.5,6.9-15.8,9.3-21.4
		c0.9-2.2,2.4-5.6,3.3-7.6c0.9-2,4.1-9.3,7.1-16.2c3-6.9,6.1-13.9,6.8-15.6c8.3-18.9,8.5-19.4,8-20c-0.2-0.2-3.4-1.2-7-2.2
		c-3.6-1-8.6-2.4-11.2-3.2c-2.5-0.7-6.6-1.9-9-2.6c-8.9-2.5-20.5-5.7-24.4-6.9C200.1,76.6,200.4,76.6,195.6,78 M201.4,78
		c0.2,0.2,4.7,1.6,10,3c5.3,1.5,12,3.4,15,4.2c11.3,3.2,25.5,7.2,27.3,7.6c2.3,0.6,2.3,0.5,0.3,4.7c-2.6,5.8-4.8,10.8-4.8,11
		c0,0.1-3.7,8.6-7.6,17.4c-0.6,1.4-2.1,4.7-3.2,7.2c-1.8,4.2-3.1,7.2-8.5,19.5c-1.1,2.5-2.8,6.5-3.9,9c-1.1,2.5-3.3,7.7-5,11.5
		c-1.7,3.9-3.9,9-5,11.4c-1,2.4-4.6,10.7-8,18.4s-6.4,14.8-6.7,15.7c-0.8,2.2-1.1,1.9-3.4-3.5c-1-2.3-2.5-5.8-3.4-7.8
		c-0.9-2-3.5-8-5.8-13.4c-2.3-5.4-4.8-11-5.4-12.4c-2.3-5.3-4.1-9.2-8-18.4c-2.3-5.2-4.8-11-5.7-13s-2.1-4.8-2.7-6.2
		c-1.3-3.1-7.1-16.3-11-25.2c-0.7-1.7-2.9-6.6-4.8-11c-1.9-4.4-4.1-9.4-4.9-11.1c-1.8-3.9-2.3-3.4,7.9-6.3c16.1-4.5,29.8-8.3,39-11
		C199.2,77.6,200.8,77.4,201.4,78 M199.8,93.4l-1.2,0.6l1.1-0.2c0.9-0.2,7.5,1.4,14.8,3.6c1.2,0.4,0.8,1.2-2.4,6.2
		c-4.8,7.4-3.3,6.6-11.2,6.4c-3.7-0.1-7.1-0.2-7.5-0.3c-0.5-0.2-0.7-0.1-0.4,0.2c0.4,0.4,2.4,0.6,11.4,1.1c4.5,0.3,3.6,1,8.7-6.9
		c4.7-7.3,4.8-6.8-0.5-8.3C200.6,92.3,201.7,92.5,199.8,93.4 M196.6,94.4c-0.5,0.2-0.6,0.3-0.2,0.3c0.3,0,1-0.2,1.4-0.3
		c0.5-0.2,0.6-0.3,0.2-0.3C197.7,94.1,197,94.2,196.6,94.4 M192.2,95.6c-0.5,0.2-0.6,0.3-0.2,0.3c0.3,0,1-0.2,1.4-0.3
		c0.5-0.2,0.6-0.3,0.2-0.3C193.3,95.3,192.6,95.4,192.2,95.6 M185.7,97.8c-0.2,0.5,1.2,3.4,1.7,3.4c0.1,0-0.2-0.7-0.7-1.5
		c-0.9-1.4-0.9-1.5-0.2-2c0.7-0.5,0.7-0.5,0.1-0.5C186.3,97.2,185.9,97.5,185.7,97.8 M189,103.9c2.1,3.3,2.7,4.1,2.9,4.1
		c0.1,0-0.1-0.5-0.5-1.1c-2.1-3.3-2.7-4.1-2.9-4.1C188.4,102.8,188.6,103.3,189,103.9 M201.2,115.2c-0.3,0.2-2,0.4-3.8,0.4
		c-3.1,0-4.2,0.4-4.2,1.4c0,0.2,0.2,0.1,0.4-0.3c0.4-0.6,1.2-0.7,7.2-0.7c6.1,0,6.8,0.1,7,0.7c0.1,0.4,0.6,3.4,1,6.7
		c0.8,6.2,1.7,12.2,2.4,16.4c0.2,1.3,1,6.7,1.8,12c0.8,5.3,1.7,11.6,2,14l0.7,4.4l-1.2,2.8c-0.7,1.5-3.9,9.4-7.3,17.5
		c-6.5,15.7-6.4,15.5-7.6,13.2c-0.9-1.7-0.9-1.5,0.2,1.2c1.1,2.8,1.7,2.4,3.8-2.5c0.9-2.3,2.5-6.1,3.5-8.4
		c7.8-18.9,9.5-23.1,9.5-24.4c0-1.6-0.5-5.2-3.5-25.2c-0.3-2.1-1.4-9.4-2.4-16.2c-1.4-9.7-2-12.5-2.5-12.9
		C207.3,114.7,202.1,114.6,201.2,115.2 M190.6,134.2c-0.2,1.2-0.2,2.3-0.1,2.4c0.1,0.1,0.3-0.8,0.5-2.1c0.2-1.2,0.2-2.3,0.1-2.4
		C191,132,190.8,133,190.6,134.2 M189.3,143.6c0,0.8,0.1,1.1,0.2,0.7c0.1-0.4,0.1-1,0-1.4C189.4,142.5,189.3,142.8,189.3,143.6
		 M188.9,146.4c0,0.8,0.1,1.1,0.2,0.7c0.1-0.4,0.1-1,0-1.4C189,145.3,188.9,145.6,188.9,146.4 M187.3,157.6c0,0.8,0.1,1.1,0.2,0.7
		c0.1-0.4,0.1-1,0-1.4C187.4,156.5,187.3,156.8,187.3,157.6 M185.7,169.2c0,1.2,0.1,1.7,0.2,1.1c0.1-0.6,0.1-1.6,0-2.2
		C185.8,167.5,185.7,168,185.7,169.2 M186,171.8c0,0.2,0.3,0.8,0.6,1.4c0.3,0.6,0.6,0.8,0.6,0.6s-0.3-0.9-0.6-1.4
		C186.3,171.9,186,171.6,186,171.8 M187.2,174.6c0,0.2,0.3,0.8,0.6,1.4c0.3,0.6,0.6,0.8,0.6,0.6s-0.3-0.9-0.6-1.4
		C187.5,174.6,187.2,174.4,187.2,174.6 M132.6,177.4c-0.6,2.2,0.1,45.5,0.7,48.4c5.3,24.4,28.4,49.1,62.6,67.1l4.5,2.4l3.6-1.8
		c34.5-17.3,60.7-45.7,64.1-69.2c0.5-3.6,0.6-47.4,0-47.4c-0.2,0-1.8,4.4-3.6,9.7l-3.2,9.7v12.3c0,13.2-0.2,15.1-2.3,21.7
		c-5.6,17.7-25.4,37.8-53,53.8c-5.1,2.9-4.8,2.9-9,0.6c-24.7-13.5-45.2-33-52.7-50.1c-3.2-7.3-3.5-9.4-3.8-25.1l-0.2-14L137,186
		C133.9,176.9,133.1,175.3,132.6,177.4 M136.7,187.5l2.9,8.7l0,11.4c0,12.5,0.4,16.7,2.2,22.4c5.9,18.8,27.4,40.2,56.3,56
		c3.6,1.9,3.2,2,8.1-0.9c28.2-16.5,47-35.2,53.4-53.3c2.4-6.8,2.8-10,2.8-23.5v-12.1l2.5-7.4l2.5-7.4l0.1,2.4
		c0.3,6.4-0.2,39.7-0.7,41.4c-0.3,1-1,3.4-1.5,5.4c-6,21.7-27.8,43.2-62.9,62.5l-2.2,1.2l-4.6-2.4c-33.8-17.8-57-42.8-61.6-66.6
		c-0.8-4.3-1.3-46.5-0.5-46.5C133.7,178.8,135.1,182.7,136.7,187.5 M194.8,193c0,0.2,0.3,0.9,0.6,1.4c0.3,0.6,0.6,0.8,0.6,0.6
		s-0.3-0.9-0.6-1.4C195.1,193.1,194.8,192.8,194.8,193 M198.8,235.1c-2.3,0.8-4,4.3-3.2,6.4c1.6,4.2,6.9,4.8,9.2,1.2
		C207.2,238.7,203.1,233.5,198.8,235.1 M201.9,236.4c0.8,0.4,1.7,1.2,2,1.8c1.9,4.1-3.1,8-6.4,5
		C193.8,239.9,197.5,234.1,201.9,236.4 M197.7,263.2c-5,3.2-1.1,11.1,4.4,9c2.1-0.8,3.1-2.1,3.3-4.4
		C205.9,263.8,201.2,261,197.7,263.2 M202.2,264c3.2,1.9,3,5.4-0.4,7.2c-4.3,2.2-7.8-3.3-4.3-6.9C198.8,263,200.2,262.9,202.2,264"
		/>
</g>
</svg>
