<?xml version="1.0" encoding="utf-8"?>
<!-- Generator: Adobe Illustrator 27.2.0, SVG Export Plug-In . SVG Version: 6.00 Build 0)  -->
<svg version="1.2" baseProfile="tiny-ps" id="ms-logo" xmlns="http://www.w3.org/2000/svg" xmlns:xlink="http://www.w3.org/1999/xlink" viewBox="0 0 36 36" xml:space="preserve">
<title>Machineseeker Group</title>
<g>
	<path fill="#141E4F" d="M32.7,21c0.2-0.9,0.3-1.8,0.3-2.6c0,0,0,0,0-0.1c0,0,0,0,0-0.1c0-0.6,0-1.1-0.1-1.7h-1.1l0,0h-5.5l-3.4-5.7
	l-5,9.1l-5-9.1l-3.4,5.7H5.4c0.2-1.9,0.8-3.7,1.8-5.3c0,0,0-0.1,0.1-0.1c0,0,0,0,0-0.1c0.3-0.5,0.7-1,1.1-1.5
	c1.7-1.9,3.9-3.3,6.4-3.9h0.1H15c0.7-0.2,1.4-0.3,2.1-0.3c0.1,0,0.2,0,0.2,0l0,0c2.6-0.1,5.1,0.6,7.2,1.9c0,0,0.1,0,0.1,0.1
	c0,0,0.1,0,0.1,0.1c0.5,0.3,0.9,0.6,1.3,1l0,0c0.1,0.1,0.1,0.1,0.2,0.2c0.1,0,0.1,0.1,0.2,0.1l0,0c1.8,1.7,3.1,3.8,3.7,6.2V15
	c0.2,0,2.3,0,2.3,0l0,0l3.3-2.3L35,10.9L34.5,9l-4,0.7c-0.5-0.7-1-1.4-1.6-2l-0.1-0.1l0,0c-0.8-0.8-1.6-1.5-2.6-2.1l0.7-4l-1.8-0.7
	L23.3,0L21,3.3C20.1,3.1,19.3,3,18.4,3c-1.2,0-2.3,0.1-3.5,0.3L12.6,0l-1.8,0.7L9,1.5l0.7,4C9,6,8.4,6.5,7.7,7.1
	C6.9,7.9,6.1,8.8,5.5,9.8l-4-0.7l-0.7,1.8L0,12.7L3.3,15C3.1,15.9,3,16.7,3,17.6v0.1l0,0c0,0.6,0,1.1,0.1,1.7h2.3l0,0h5.7l1.9-2.9
	l5,8.9l5-8.9l1.9,2.9h5.9c-0.2,1.9-0.9,3.7-1.9,5.4l0,0c0,0,0,0.1-0.1,0.1c0,0.1-0.1,0.1-0.1,0.2l0,0c-0.3,0.4-0.6,0.9-1,1.3
	c-1.6,1.8-3.7,3.2-6.1,3.8h-0.1h-0.1c-0.8,0.2-1.6,0.3-2.5,0.4c-0.1,0-0.1,0-0.2,0c0,0,0,0-0.1,0c-2.5,0.1-4.9-0.5-7-1.8
	c0,0,0,0-0.1,0l-0.1-0.1c-0.6-0.4-1.2-0.8-1.7-1.3l-0.1-0.1c0,0,0,0-0.1-0.1c-1.8-1.7-3.1-3.8-3.7-6.2v-0.1c-0.2,0-2.3,0-2.3,0
	L0,23.4l0.7,1.8L1.5,27l4-0.7c0.5,0.7,1,1.4,1.6,2l0.1,0.1l0,0c0.8,0.8,1.6,1.5,2.6,2.1l0,0l-0.7,4l1.8,0.7l1.8,0.7l2.3-3.3
	c0.9,0.2,1.7,0.3,2.6,0.3c1.2,0,2.3-0.1,3.5-0.3l2.3,3.3l1.8-0.7l1.8-0.7l-0.7-4c0.7-0.5,1.4-1,2-1.6c0.9-0.8,1.6-1.7,2.3-2.7l4,0.7
	l0.7-1.8l0.7-1.8L32.7,21z"/>
</g>
</svg>
