<svg baseProfile="tiny-ps" xmlns="http://www.w3.org/2000/svg" version="1.2" width="1000" height="1000" viewBox="0 0 1000 1000" fill="none">
    <title>Signitic</title>
    <rect x="-3.05176e-05"  width="1000" height="1000" fill="#FF4A6E"></rect>
    <path fill-rule="evenodd" d="M662.881 642.609C659.016 637.834 651.967 637.038 647.04 640.752C645.486 641.927 643.932 643.102 642.34 644.239C609.217 668.153 570.75 683.199 530.199 688.201C520.231 689.414 510.15 690.058 500.107 690.058C490.064 690.058 479.983 689.452 470.016 688.201C429.464 683.199 390.997 668.115 357.874 644.239C356.282 643.102 354.728 641.927 353.175 640.752C348.286 637.038 341.199 637.796 337.333 642.609L295.948 694C294.546 695.743 294.811 698.358 296.554 699.798C343.624 737.735 400.055 761.573 460.011 769.001C473.313 770.631 486.691 771.464 500.107 771.464C513.485 771.464 526.901 770.631 540.204 769.001C600.159 761.611 656.59 737.735 703.66 699.836C705.404 698.434 705.707 695.819 704.267 694.038L662.881 642.609Z" fill="white"/>
    <path fill-rule="evenodd" d="M655.794 228C634.419 228 616.19 241.227 608.686 259.911C584.09 244.524 555.931 234.102 525.461 230.35C517.047 229.326 508.558 228.796 500.069 228.796C491.58 228.796 483.09 229.326 474.677 230.35C372.086 243.008 295 330.516 295 433.865C295 537.176 372.086 624.684 474.677 637.342C483.09 638.365 491.58 638.896 500.069 638.896C508.558 638.896 517.047 638.365 525.461 637.342C628.052 624.646 705.138 537.176 705.138 433.865V278.784C705.138 250.739 683.801 228 655.794 228ZM520.496 555.86C513.75 556.959 506.929 557.566 500.069 557.566C493.247 557.566 486.388 556.997 479.642 555.898L477.936 555.595C419.156 545.059 376.368 493.517 376.368 433.865C376.368 373.492 420.065 321.723 479.642 311.869C486.388 310.77 493.209 310.164 500.069 310.164C506.891 310.164 513.75 310.732 520.458 311.832L522.088 312.097C580.944 322.595 623.77 374.137 623.77 433.827C623.808 494.199 580.073 546.006 520.496 555.86Z" fill="white"/>
</svg>
