<?xml version="1.0" encoding="utf-8"?>

<svg version="1.2" xmlns="http://www.w3.org/2000/svg" xmlns:xlink="http://www.w3.org/1999/xlink" baseProfile="tiny-ps" id="Layer_1" viewBox="0 0 40 40" xml:space="preserve">
<title>Daddy's Chicken Shack</title>

<path fill="#6b9ad0" d="M12.93 25.41c-.34.15-4.97 4.33-5.83 8.06l-.71-.1 1.62-3.5c1.47-2.68 4.14-4.8 4.68-5.09l.24.63z"/><path fill="#221f1f" d="M6.84 33.3c.61-1.66 3.04-7.13 8.47-9.52 2.15.76 6.02 2.08 9.26-1.32l.37-.42s6.46 2.11 6.78 7.13v.66l-10.22 5.3L6.84 33.3z"/><path d="M27.45 22.9l-.44.51 1.84 1.27s1.74 1.64 1.98 2.74l-2.06.02-1.37.32 1.03-.05 2.52.05s.51 1.18.54 1.62l.32.02s-.61-3.23-1.27-4.09c-.66-.84-3.09-2.41-3.09-2.41m-2.49 4.26s-.32.54-.32.88-.22 1.49-.22 1.49l-.54.2.27-1.3c.22-1.15.81-1.27.81-1.27" fill="#6b9ad0"/><path fill="#fff" d="M20.28 13.93l-2.3 1.44-.97 1.44.4 1.74 1.03.88 1.18.12s.71.05 1.15.34 1.27 1.03.73 1.86-1.37 1.74-3.26 1.59l-.83 1.08s2.4 1.18 4.33-.05c2.47-2.06 2.13-4.41 2.13-4.41l-.49-4.04-1.22-1.3-1.88-.69z"/><path d="M21.92 24.41l2.64-1.96-.78-2.13c-.22.71-1.44 3.23-2.77 4.19l.91-.1zm-.69-9.61c.62.26 1.54.7 1.54 1.69.04.66.22 1.87.55 2.06.33.18.7-1.98.7-1.98l-.44-2.24-.73-.48-1.62.95z" fill="#c1b9d0"/><path fill="#6b9ad0" d="M24.23 22.24s-1.64 2.3-4.06 2.4c-1.52.05-2.79-.22-3.21-.56l-.1.43s2.53.67 3.93.35c1.76-.37 3.43-1.73 3.7-2.44l-.26-.18z"/><path fill="#fff" d="M31.74 29.43c-.22-.1-1.71-.24-1.71-.24l-2.72-.05-7.37 1.27c-.78.15-1.76.78-1.76.78-1.59.39-2.91.47-2.91.47s-.61.24-.98.56l-.95 1.54.2 1.13.59-.51.49-1.05 1.37-.66-.61 1.84-.27 1.54s.24.61.81.71.73-.07.73-.07l-.66-.49.39-2.18.49.17-.1 1.91s0 .47.22.42 1.2-1.89 1.2-1.89 1.03-2.03 2.69-1.98 6.37.56 6.37.56h.51l1.86 1.08.54.39 1.37-.17 1.93-.1c-.86-.42-1.43-.63-1.32-1.08.24-1.01-.18-3.8-.4-3.9"/><path fill="none" stroke="#221f1f" stroke-width=".272" stroke-miterlimit="10" d="M20 .36C9.17.36.36 9.17.36 20S9.17 39.64 20 39.64 39.64 30.83 39.64 20 30.83.36 20 .36h0z"/><path fill="#75391c" d="M27.26 17.97c-1.27 2.79 1.08 3.53 2.55 3.13-.15.34-2.84 1.86-2.84 1.86 5.88 2.84 5.14 10.63 5.14 10.63s1.71-4.16 2.01-5.19c.29-1.03.34-4.26.39-5.14.24.78.88 4.41.88 4.41l.18 3.72c.14-.19.27-.38.4-.57l.93-2.27c.29-.78.1-3.48.1-3.48l-.88-3.87 1.52 4.06.33 1.76c.86-2.18 1.33-4.55 1.33-7.03a19.2 19.2 0 0 0-3.09-10.46c-3.16 1.04-5.81 3.49-5.81 3.49s.58 3.19-3.14 4.95z"/><path d="M37.97 27.03c-.53 1.34-1.2 2.61-2 3.79l-.39.91-.02-.34C32.05 36.18 26.38 39.3 20 39.3 9.36 39.3.7 30.64.7 20S9.36.7 20 .7c6.79 0 12.76 3.52 16.21 8.83a13.49 13.49 0 0 1 .68-.2C33.34 3.74 27.1.02 20 .02 8.98.02.02 8.98.02 20S8.98 39.98 20 39.98c7.92 0 14.78-4.63 18.01-11.33l.07-1.03-.11-.59zm2-7.49a19.33 19.33 0 0 0-.32-3.15c-.03-.05-.07-.1-.1-.14.03.63.26 2.22.42 3.29z" fill="#da223c"/><path d="M35.58 31.73l.39-.91-.4.57.01.34z"/><g fill="#da223c"><path d="M36.21 9.54c1.95 3.02 3.09 6.61 3.09 10.46 0 2.48-.47 4.85-1.33 7.03l.11.59-.07 1.03c1.26-2.62 1.97-5.55 1.97-8.65 0-.15 0-.31-.01-.46-.16-1.08-.39-2.67-.42-3.29.03.04.07.09.1.14a19.99 19.99 0 0 0-2.76-7.06c-.23.07-.46.13-.68.21z"/><path d="M20 6.18c7.63 0 13.82 6.19 13.82 13.82S27.63 33.82 20 33.82 6.18 27.63 6.18 20 12.37 6.18 20 6.18m0-5.82C9.17.36.36 9.17.36 20S9.17 39.64 20 39.64 39.64 30.83 39.64 20 30.83.36 20 .36h0z"/></g><path fill="#d82142" d="M30.09 20.66c-1.66 1.06-2.81-.22-2.89-1.18-.12-1.58 2.1-2.23 2.77-3.42.4-.71 1.09-1.49.5-3.35-1.23-3.17-5.66-1.79-4.92-4.32.47-1.61 2.69-1.39 2.68-1.4-2.33-3.03-5.76-1.61-6.97-.22-.8.92-1.22 1.3-1.58 1.33-.78.07-.7-1.51.7-2.44-3.56.17-4.13 5.58-4.3 6.28-.16.88-1.51 2.34-2.02.37-.06-.24-2.38 3.95.36 3.12.77-.27 1.19-1.04 1.7-1.09s.82.82-.23 1.07c-.53.12-.34.83-.34.83l-2.35.22.1.88.47.2a2.76 2.76 0 0 0 .47 1.25l-2.44.29c-2.36.4-1.92 2.6-1.92 2.6.55-.18 1.52-.73 2.84-.39.82.15 1.32.15 1.32.15l-1.03 1.18.74.13c-.98.78-1.46 1.43-1.29 2.93.05.81.17 1.91-1.74 2.67 1 .61 4.34 1.15 5.4-1.29.89-2.06.12-1.85 1.59-2.68.77-.29.72-.59.82-.59.65-.01 2.91-.04 3.43-1.66.76-2.08-1.2-2.84-1.2-2.84l.56-1.54 2.03.44c-1.1 1.74.37 2.78.37 2.78s.43.22.04.67c-.23.26.62 1.56 3.48 1.29 1.9-.19 3.09-2.42 2.85-2.27m-6.63-4.2c-.12.25-.32.44-.32.44l-1.73-.2c-1.59-1.01-3.74-.11-4.12-.01 0 0 .61-.85 1.11-1.33.51-.48 1.76-1.07 1.85-.98.5.55.3.79.05 1.27l.11-.02s.81-.08 1.98-1.12c.17-.15.36-.12.53-.08s.66.52.76 1.14c.05.25-.1.64-.22.89"/><path fill="#ffe800" d="M16.66 18.33c-.11-.02-.24.53-.24.53l-.51.17-4 .31c-1.45.33-1.89 1.27-1.81 2.01.66-.26 1.24-.61 2.6-.32.7.18 1.8.17 1.8.17l-1.11 1.32c.88.17 2.12.24 2.12.24s.18.95.34 1.03c.57-.68 1.08-.75 1.08-.75.95.62 3.8.83 4.81-1.03.31-1.3-.07-1.96-1.16-2.41-1.37.72-2.6.31-3.03-.11-.54-.52-.78-1.14-.89-1.16"/><path d="M15.09 17.27l.12 1.57c-.47-.06-.81-.39-.91-1.29.01-.35.28-.32.28-.32l.51.04zm3.81-.23l-1.16.31c-.22.23-.22.58.12 1.04l.33.39s.45.37.83.36l-.12-2.1z" fill="#f5a129"/><path fill="#d82142" d="M13.65 21.17s2.37.19 3.44-.35c.1-.05-.19-.32-.06-.36.09-.02.18.28.27.35s.86.71 1.7.89c.11.02.64.07.57.18-.04.07-.13.01-.61-.05-.53-.06-1.59-.78-1.75-.74-.07.02-.3.18-.69.48s-1.17.53-1.47.58c-.29.05-.85.11-.88.07s.73-.66.68-.71c-.02-.02-.89 0-.89 0l.09-.11-.41-.02v-.21z"/><path fill="#2d2a26" d="M15.93 16.55c.48.33 1.02.37 1.36.14 1.55-.62 2.9-.77 4.17-.01l.07.21 2.2.21-.04.52.35.59-2.74-.55c-.32-.06-.3.2-.3.2s-.36 1.29-.68 1.61-1.59.24-2.25.04c-.67-.17-1.07-1.32-1.16-1.59-.08-.27-.36-.27-.36-.27l-.34.96s-.28.07-.26.04c.02-.04.26-.84.28-1.27-.03-.07.27-.2-1.16-.44 0 0-.79-.08-.97.32-.02.46.03.82.11.97.08.16.39.63.39.63l-.28.02c-.28-.18-.41-.72-.44-1.01 0-.37-.17-.39-.17-.39l-.37-.16-.06-.58c.04.01 1.59-.37 2.65-.19m1.44.68s-.2.2-.1.49.69 1.2.69 1.2.42.39 1.35.37.83-.49.83-.49l.49-1.47s.22-.42-.47-.51c-1.18-.37-2.79.41-2.79.41"/><path fill="#9c182f" d="M15.57 23.13c-.28-.13-1.5-.51-2.32 1.55-.02.97.11 2.31-.44 2.99s-.95 1.05-.95 1.05c.83.2 3.56.4 4.55-1.8.24-1.14.33-2.3 1.27-2.39.62-.31 1.54-.72.5-1.1-.44-.13-.97-.31-1.01-.5-.35.13-1.19.31-1.3.75-.2.01-.3-.55-.3-.55"/><path fill="#d82142" d="M15.19 22.74l.86-.02c.21-.01.36.18-.01.19l-.79.06-.06-.23z"/><path fill="#221f1f" d="M30.95 27.77l.19.46.18.93.03.27-1.8-.27z"/><path fill="#c1b9d0" d="M33.09 34.38l-3.32.27c-4.23.2-7.12-1.39-7.12-1.39s-1.72-.49-3.12.12c-.84.63-2.04 2-2.33 2.83l-.15.51s-.52.15-.57-.05l-.15-.61c.1.24.42.32.64-.17l.54-1.12.29-.56c.36-.69 1.13-1.66 2.53-1.95 2.38-.02 6.02.29 6.81.78l-.37-.54 3.56 1.98c.2-.05-.39-.83-.39-.83 1.09.63 3.15.73 3.15.73"/><path fill="#fff" d="M31.74 33.32c.24-1-.17-3.8-.39-3.89-.22-.1-1.71-.24-1.71-.24l-2.72-.05-7.37 1.27c-.78.15-1.76.78-1.76.78-.38.09-.73.2-1.03.3l-.81.18s-.81-.08-1.46.2-.93.87-.93.87l-.37.69-.2.41.1.53.08.49 1.08-1.02.83-.57.31.06-.43 1.2.18.04-.39 1.42h.2l-.04.31s.16.37.75.37.54-.09.54-.09l-.11-.75.38-1.53-.09 1.8s0 .47.22.42 1.2-1.89 1.2-1.89 1.03-2.03 2.69-1.98 6.37.56 6.37.56h.51l1.86 1.08.54.22h1.37l1.93-.1c-.87-.43-1.44-.64-1.33-1.09z"/><path d="M15.61 32.64s-1.07.32-1.33.75l-.55.93 1.36-1.03.29.03.23-.59m.86 1.42l-.49-.09c-.01 0-.02.01-.03.02l-.15.69-.3 1.27c0 .01 0 .02.01.02l.63.49c.01.01.04 0 .04-.02l-.03-.67.33-1.69c.01-.01 0-.02-.01-.02z" fill="#bfbbcd"/><path fill="#941c32" d="M19.12 6.91c-1.18.66-1.88 2.64-2.12 3.79-.59 3.95-2.84 2.55-2.89 2.3-.51 1-.96 1.97.24 2.38.61.2 1.7-2.01 2.55-.71.28.89-.71.83-.98 1.15s-.01 1.08 1.09 1c.83-.18 1-1.87 3.21-2.46.93-.25.78.84.11 1.26 1.32-.06 1.81-1.18 2.35-1.2 1.28-.06 1.22 2.23.91 2.69-.32.47.47 1.1.47 1.1-1 .88-1.22 1.7-.15 2.46.47.48-.05.72-.16.93-.51.97 2.26 1.58 3.22 1.36.77-.18 2.64-1.62 2.64-1.62-1.49.51-4.28-.76-2.38-3.53 1.64-1.32 2.67-2.03 2.86-4.04 0-1.64-1.32-2.67-3.16-3.21-1.3-.83-2.94-2.11-.05-3.31-.64-1.05-3.31-2-4.53-.51l-1.74 1.52c-1.81 1.07-1.49-1.35-1.49-1.35"/><path fill="#ffce27" d="M23.45 28.75c-2.31-.22-4.46-.8-6.56-1.23-.14-.03-.21-.16-.16-.3a9.58 9.58 0 0 0 .37-1.23c.03-.13.16-.22.3-.2l6.17 1.18a.3.3 0 0 1 .25.29l-.07 1.25c-.01.15-.14.25-.3.24z"/><g fill="#951c34"><path d="M23.48 28.81h-.03 0c-1.75-.16-3.41-.53-5.01-.89l-1.55-.34c-.09-.02-.15-.07-.19-.14s-.04-.15-.02-.24l.37-1.22c.04-.17.2-.27.37-.24l1.9.37 4.27.81c.17.03.31.18.3.35l-.01.28-.05.97c-.01.08-.04.16-.11.21-.08.05-.16.08-.24.08zm-.02-.12c.06 0 .12-.01.16-.05.04-.03.06-.08.07-.13l.05-.97.01-.28c0-.1-.08-.21-.2-.22l-4.27-.81-1.9-.37c-.1-.02-.2.05-.23.15a12.47 12.47 0 0 1-.37 1.23c-.02.05-.01.1.01.14s.06.07.11.08l1.55.34 5.01.89z"/><path d="M17.73 26.21l.08.03c.02.02.05.04.06.06.02.02.03.05.03.08.01.03.01.06 0 .09-.05 0-.08 0-.12-.01 0-.03 0-.06-.02-.08-.01-.02-.03-.04-.07-.04h-.04c-.01 0-.03.01-.04.01l-.03.03c-.01.01-.02.02-.02.04l-.18.62c0 .01-.01.03 0 .04 0 .01.01.03.02.04l.03.03c.01.01.02.01.04.02.03.01.05 0 .08-.01.02-.01.04-.03.06-.05v-.02l.07-.24c0-.03-.01-.03-.01-.03-.02 0-.04-.01-.05-.01l.03-.12c.07.01.14.03.2.04l-.11.37s0 .01-.01.02c0 .01-.01.02-.01.02-.01.03-.03.05-.05.07s-.04.03-.07.05c-.02.01-.05.02-.08.02h-.08l-.08-.03-.06-.06c-.01-.02-.02-.05-.03-.08 0-.03 0-.06.01-.09l.18-.63c.01-.03.02-.06.04-.08s.04-.04.07-.06.05-.03.08-.03c.02-.01.05-.01.08-.01z"/><path d="M18.21 26.31l-.22.85v.02c0 .03.01.05.02.07.02.02.04.03.06.04h.04c.02 0 .03-.01.04-.02s.03-.02.04-.03.02-.02.02-.04l.22-.85c.04.01.07.01.11.02l-.22.86c-.01.03-.02.06-.04.08s-.04.04-.07.06-.06.03-.09.03c-.03.01-.06.01-.09 0s-.06-.02-.08-.04l-.06-.06c-.02-.02-.03-.05-.03-.08s0-.06.01-.09l.23-.85a1.64 1.64 0 0 0 .11.03zm.2 1.16l.41-1.04.16.03v.02l-.11 1.09v.02c-.05-.01-.09-.02-.12-.02v-.02-.06-.04-.04c0-.01-.01-.01-.02-.01l-.14-.03c-.01 0-.01 0-.02.01s-.01.01-.01.02c0 0 0 .01-.01.02 0 .01-.01.02-.01.03s-.01.02-.01.03-.01.02-.01.02c0 .01 0 .02-.01.02-.04-.01-.08-.02-.11-.02 0-.02 0-.02.01-.03zm.23-.26c0 .03 0 .03.01.03.03.01.07.01.1.02.01 0 .01 0 .02-.01 0-.01.01-.01.01-.02l.04-.33c0-.03-.01-.03-.02-.03s-.02 0-.02.01c-.01.01-.01.01-.01.02l-.13.31zm.62-.7l.28.05c.02 0 .04.01.06.03.02.01.03.03.05.05l.03.06c.01.02.01.04 0 .07l-.07.31c-.01.03-.02.05-.04.07s-.04.04-.07.05c-.01 0-.01 0-.02.01-.01 0-.01 0-.02.01s-.02.02-.02.03l.03.45c-.04 0-.08-.01-.12-.01l-.03-.45c0-.02-.01-.02-.01-.02-.02 0-.04-.01-.06-.01 0 0-.01 0-.02.01l-.11.42c-.05-.01-.09-.02-.12-.02l.26-1.11zm.01.56l.14.03c.03 0 .04-.01.04-.01.01 0 .01-.01.02-.02s.01-.01.01-.02l.06-.3c0-.03-.01-.04-.01-.04l-.02-.02c-.01-.01-.01-.01-.02-.01l-.13-.03c-.01 0-.01 0-.02.01-.04.13-.06.25-.09.38.02.02.02.03.02.03zm.34.65l.37-1.06.16.03v.02l-.07 1.11v.02c-.05-.01-.09-.02-.13-.02v-.02-.06-.04-.04c0-.01-.01-.01-.02-.01l-.14-.03c-.01 0-.01 0-.02.01 0 .01-.01.01-.01.02 0 0 0 .01-.01.02 0 .01-.01.02-.01.03s-.01.02-.01.03-.01.02-.01.02c0 .01 0 .02-.01.02-.04-.01-.08-.02-.11-.02.02-.02.02-.02.02-.03zm.23-.27c0 .03.01.03.01.03.03.01.07.01.1.02.01 0 .01 0 .02-.01 0-.01.01-.01.01-.02l.02-.34c0-.03-.01-.03-.02-.03s-.02 0-.02.01c-.01.01-.01.01-.01.02l-.11.32zm.59-.71a.5.5 0 0 0 .12.02l.08.58c0 .01.01.02.02.02.03 0 .03-.01.03-.02l.09-.54c.04.01.08.01.11.02l-.19 1.13c-.05-.01-.09-.02-.13-.02l-.08-.6c-.01-.02-.02-.02-.02-.02-.03 0-.03.01-.03.02l-.1.55c-.05-.01-.09-.02-.13-.02l.23-1.12zm.73.29s0-.01-.01-.02c-.06-.02-.11-.03-.15-.04.01-.04.01-.08.02-.12l.46.09-.02.12-.15-.03c-.01 0-.01 0-.02.01l-.16.99-.13-.02.16-.98zm.91.03c0 .04-.01.08-.01.12l-.34-.06c-.01 0-.01 0-.02.01l-.05.33c0 .03.01.03.01.03l.19.03c0 .05-.01.08-.01.12l-.19-.03c-.01 0-.01 0-.02.01s-.01.01-.01.02l-.04.33c0 .01 0 .01.01.02s.01.01.02.01l.33.06c0 .05-.01.09-.01.13l-.5-.08.16-1.13.48.08zm.61.11c0 .04 0 .08-.01.12l-.34-.06c-.01 0-.01 0-.02.01l-.05.33c0 .01 0 .01.01.02.07.02.14.03.2.04 0 .05-.01.08-.01.12l-.2-.03c-.01 0-.01 0-.02.01s-.01.01-.01.02l-.04.33c0 .01 0 .01.01.02s.01.01.02.01l.34.05c0 .05-.01.09-.01.12l-.5-.08.13-1.13.5.1z"/><path d="M22.82 27.19c.1.01.2.03.3.05.02 0 .05.01.07.03.02.01.04.03.06.05s.03.04.04.06a.17.17 0 0 1 .01.07l-.05.73c0 .02-.01.05-.02.07a.12.12 0 0 1-.05.05c-.02.02-.04.03-.07.03-.02.01-.05.01-.08.01l-.31-.04.1-1.11zm.06 1.01c.06.01.1.02.15.02h.03c.01 0 .02-.01.02-.01l.02-.02c.01-.01.01-.02.01-.03l.05-.72c0-.03-.01-.04-.01-.04l-.02-.02c-.01-.01-.01-.01-.02-.01a.77.77 0 0 0-.15-.02c-.03 0-.03.01-.03.01l-.07.82.02.02z"/></g><path d="M6.05 26.09a.42.42 0 0 1 .18.11c.05.05.07.11.07.18s-.02.14-.08.22c-.02.03-.05.05-.07.08-.03.02-.06.04-.09.05l-1.24.5c-.01.06-.03.11-.07.15a.38.38 0 0 1-.13.09c-.05.02-.1.03-.16.02s-.11-.02-.16-.05l-.17.07c-.04.01-.08.03-.13.05-.04.02-.09.03-.13.05l-.15.07a.38.38 0 0 0-.13.09l-.12.11a.37.37 0 0 1-.14.07c-.05.02-.11.01-.17-.01-.08-.03-.15-.08-.19-.15l-.12-.22c-.08-.16-.14-.32-.21-.48l-.2-.48c-.02-.05-.04-.09-.07-.14s-.06-.1-.08-.15a.44.44 0 0 1-.06-.16c-.02-.05-.02-.11-.01-.16.01-.07.04-.12.07-.16a.45.45 0 0 1 .14-.1c.05-.02.11-.02.17-.02.06.01.12.03.16.07.09.07.15.16.2.27.04.14.08.24.13.34l.14.35c.04.12.09.23.15.34l.23-.11.4-.17-.14-.34-.17-.33c-.03-.06-.07-.11-.12-.17s-.08-.12-.09-.18c-.02-.07-.02-.15.01-.22.02-.07.06-.13.11-.17s.11-.07.18-.07a.31.31 0 0 1 .21.08c.08.07.16.15.22.24s.12.19.17.29l.14.31.12.31 1.18-.47c.07-.03.15-.02.22 0zm-2.18-1.81c-.11-.01-.23-.02-.34-.05s-.22-.06-.33-.11a1.49 1.49 0 0 1-.3-.18c-.09-.07-.17-.15-.24-.23-.12-.15-.2-.32-.24-.49s-.03-.34.01-.5.12-.31.24-.44a1.15 1.15 0 0 1 .46-.3l.35-.1c.11-.02.23-.03.36-.03.18 0 .37.05.57.13.19.08.37.19.51.32a1.26 1.26 0 0 1 .33.47c.07.18.08.38.02.58-.02.09-.06.18-.1.26s-.09.15-.16.22c-.07.08-.15.14-.23.2a2.15 2.15 0 0 1-.26.14.85.85 0 0 1-.31.09l-.32.02h-.02zm-.01-.69c.06 0 .12 0 .18-.01.06 0 .12-.01.18-.03a1.13 1.13 0 0 0 .22-.11c.06-.05.11-.11.14-.17.03-.07.04-.14.03-.21s-.05-.15-.12-.23c-.08-.1-.2-.17-.35-.22a1.35 1.35 0 0 0-.44-.07.89.89 0 0 0-.4.12c-.12.08-.19.19-.22.34a.69.69 0 0 0 .1.25.77.77 0 0 0 .18.18c.07.05.15.08.23.11l.27.05zm-.53-2.9c-.11-.03-.22-.07-.32-.12a2.38 2.38 0 0 1-.3-.18c-.09-.07-.18-.15-.26-.24a1.26 1.26 0 0 1-.19-.28c-.09-.18-.13-.35-.12-.53 0-.18.04-.34.12-.49s.19-.28.33-.38.32-.17.51-.2c.13-.02.25-.02.37-.02s.24.02.36.05c.18.04.35.12.52.24a1.6 1.6 0 0 1 .43.43 1.3 1.3 0 0 1 .22.53.84.84 0 0 1-.11.57c-.04.09-.09.16-.15.23a.86.86 0 0 1-.2.18c-.08.06-.17.11-.27.14a.88.88 0 0 1-.27.1 1.15 1.15 0 0 1-.32.02c-.11-.01-.21-.03-.31-.05h-.04zm.13-.68l.18.03c.06.01.12.01.18 0 .09-.01.17-.03.24-.06a.39.39 0 0 0 .17-.14c.04-.06.07-.12.07-.2s-.02-.16-.06-.25c-.06-.11-.16-.21-.29-.29s-.27-.14-.42-.16-.28-.01-.42.03a.5.5 0 0 0-.29.28c0 .09.01.18.05.26.03.08.08.15.14.21a1.08 1.08 0 0 0 .2.16c.09.06.17.1.25.13zm1.65-5.27c.12-.03.22-.03.3.01a.33.33 0 0 1 .16.17c.03.07.02.15-.01.24s-.1.16-.21.22c.04.1.06.21.07.31s.01.21.01.33c-.01.17-.05.33-.14.47-.08.14-.19.26-.31.35-.13.1-.28.16-.44.2s-.32.03-.49 0a2.13 2.13 0 0 1-.52-.18c-.16-.08-.29-.19-.41-.31s-.21-.26-.27-.43c-.06-.16-.09-.34-.08-.54.01-.12.03-.23.06-.34s.07-.22.12-.32l-.28-.07-.31-.08-.26-.08c-.08-.03-.13-.05-.16-.07a.31.31 0 0 1-.12-.16c-.02-.06-.02-.12-.01-.18a.29.29 0 0 1 .09-.16.4.4 0 0 1 .18-.1c.02 0 .04-.01.06-.01.02-.01.04-.01.06 0l1.42.38 1.42.39c.03-.03.05-.04.07-.04zm-.51.68c-.01-.01-.02-.03-.02-.05-.01-.02-.02-.04-.04-.04l-.45-.12-.45-.12c-.04.08-.08.17-.11.27a.92.92 0 0 0-.05.28c0 .1.01.19.04.28a.63.63 0 0 0 .18.23l.19.12a.82.82 0 0 0 .19.09c.07.02.13.03.2.03s.14-.02.21-.04c.02-.01.04-.02.06-.04l.11-.1c.05-.13.07-.26.07-.4a.79.79 0 0 0-.13-.39zM8.18 9.4c.09-.04.17-.06.25-.06s.14.03.19.07.08.1.1.17c.02.08.01.16-.02.26-.02.04-.05.08-.09.14l-.17.22-.28.36-.42.54c-.04.06-.08.11-.13.17-.04.06-.1.09-.17.1-.06.01-.12 0-.2-.03-.07-.03-.15-.07-.22-.12l-.2-.15-.17-.13-.31-.24-.35-.28-.35-.28-.31-.24-.38-.32-.21-.2a.41.41 0 0 1-.08-.14c-.01-.04 0-.09.01-.15.02-.05.04-.09.08-.13a.38.38 0 0 1 .13-.09.4.4 0 0 1 .15-.03c.05 0 .1.02.14.05l1.07.83 1.05.84.43-.57.43-.58.03-.01zm-.97-3.03c-.08-.11-.11-.22-.1-.33.02-.1.06-.19.13-.24.07-.06.16-.09.26-.09a.37.37 0 0 1 .28.13c.09.09.13.19.13.29a.41.41 0 0 1-.11.26c-.06.07-.15.11-.25.12s-.2-.03-.31-.11l-.03-.03zm2.72 1.91c.04.06.07.13.08.2s-.01.14-.03.2c-.03.06-.07.11-.14.14a.36.36 0 0 1-.21.03.58.58 0 0 1-.14-.05c-.04-.03-.08-.06-.12-.1l-.1-.11a.9.9 0 0 0-.09-.1L8.73 8l-.44-.5c-.06-.07-.13-.13-.2-.19-.07-.07-.13-.14-.17-.22-.03-.06-.05-.13-.04-.2 0-.07.02-.13.05-.18s.07-.1.13-.13a.27.27 0 0 1 .2-.02c.1.02.17.05.22.11.05.05.11.12.18.2l.26.29a3.33 3.33 0 0 0 .25.28l.37.4.36.41.03.03zm1.58-.91c-.04.09-.09.15-.16.19s-.15.05-.24.03-.16-.08-.22-.17l-1.7-2.75c-.03-.05-.04-.1-.04-.16s.02-.11.04-.16c.03-.05.06-.1.11-.14.04-.04.09-.07.14-.08a.38.38 0 0 1 .15 0c.05.02.1.06.15.12l.43.67.37.61c.04-.1.07-.2.1-.3l.08-.31a2.91 2.91 0 0 0 .04-.31.52.52 0 0 1 .11-.29c.05-.06.1-.1.17-.12.06-.02.12-.02.18-.01a.29.29 0 0 1 .16.09c.05.05.08.1.1.18a.94.94 0 0 1 0 .24c-.01.1-.03.21-.06.32l-.08.32-.08.24.56.16.57.17.23.06a.95.95 0 0 1 .21.09c.06.04.1.08.12.14s.03.12.02.18-.03.12-.07.17-.09.09-.16.11a.49.49 0 0 1-.21.01c-.08-.01-.16-.03-.24-.05s-.16-.05-.23-.08l-.2-.07-.44-.14c-.15-.05-.29-.09-.44-.12l.52.84c.04.13.05.24.01.32zm3.85-2.77a.55.55 0 0 1 .23-.09.38.38 0 0 1 .19.04.25.25 0 0 1 .11.15c.02.07.02.15-.01.25-.02.08-.07.15-.14.22l-.19.18a2.42 2.42 0 0 1-.45.31c-.15.08-.29.14-.44.16a1.09 1.09 0 0 1-.44-.02c-.15-.03-.3-.1-.45-.21-.11-.07-.2-.16-.28-.27s-.14-.23-.19-.36a1.9 1.9 0 0 1-.11-.39c-.02-.13-.03-.26-.02-.38.02-.15.07-.3.16-.45s.21-.29.35-.4c.14-.12.29-.21.45-.28s.32-.1.47-.08a.77.77 0 0 1 .35.12c.11.07.2.15.27.25a.79.79 0 0 1 .13.33c.02.12 0 .24-.06.37-.05.15-.12.25-.21.35l-.28.26-.31.23c-.11.07-.21.15-.31.22.11.06.21.08.32.07a.75.75 0 0 0 .31-.1c.1-.05.2-.12.29-.2a3.07 3.07 0 0 0 .25-.26l.01-.02zm-1.41-.52c-.07.08-.1.16-.12.24-.01.08-.01.19.02.32l.28-.2.29-.22a1.49 1.49 0 0 0 .22-.21c.06-.07.07-.13.06-.18a.3.3 0 0 0-.04-.08c-.02-.02-.04-.04-.08-.04a.62.62 0 0 0-.32.09c-.1.06-.18.12-.23.19l-.08.09zm7.75-2.83c.07.03.13.08.18.15s.07.14.08.21-.01.13-.04.19c-.04.06-.1.09-.19.11-.17.03-.34.03-.49.03l-.4-.02-.03 1.34-.04 1.39c0 .11-.04.18-.11.23a.33.33 0 0 1-.24.05c-.08-.01-.16-.05-.23-.11s-.1-.15-.1-.25l.03-1.33.03-1.33h-.17-.27c-.1 0-.2-.01-.3-.03s-.19-.04-.26-.08c-.06-.03-.1-.08-.12-.14-.03-.07-.03-.13-.01-.19s.05-.12.1-.17.1-.09.17-.1h.92l.91.03h.27.28l.03.02zm1.55 3.91c-.09.04-.17.04-.25.02s-.14-.07-.18-.15a.41.41 0 0 1-.03-.27l.8-3.06c.02-.08.07-.15.15-.19s.16-.06.25-.05c.08.01.16.04.22.1s.08.14.06.26l-.13.55-.15.54a1.12 1.12 0 0 1 .47-.07c.15.01.3.04.42.11.13.07.24.17.33.3a1.14 1.14 0 0 1 .18.49c.02.13.02.27.01.4l-.08.41c-.03.14-.07.27-.11.41l-.11.38a.4.4 0 0 1-.11.19.5.5 0 0 1-.19.1c-.07.01-.13.01-.2-.02s-.12-.08-.15-.17c-.04-.09-.05-.18-.03-.28.01-.1.04-.21.07-.32l.11-.34c.04-.11.07-.23.1-.34.02-.11.03-.21.01-.32-.01-.1-.06-.19-.13-.28a.51.51 0 0 0-.2-.04c-.06 0-.12.02-.18.05s-.12.06-.17.1l-.17.12c-.02.02-.03.03-.05.04s-.04.03-.06.04l-.27 1.04c-.07.14-.14.22-.23.25zm4.91.99a.51.51 0 0 1 .22.11c.05.05.08.11.1.17a.24.24 0 0 1-.04.18.52.52 0 0 1-.19.16.67.67 0 0 1-.26.05 2.13 2.13 0 0 1-.27-.02c-.2-.02-.37-.06-.53-.12-.16-.05-.3-.12-.42-.22a1.15 1.15 0 0 1-.29-.33c-.07-.13-.12-.29-.15-.47a1.03 1.03 0 0 1 .01-.39c.03-.13.07-.26.13-.38s.13-.24.22-.34a1.38 1.38 0 0 1 .27-.27c.12-.09.26-.15.44-.18a1.87 1.87 0 0 1 .53-.02 1.91 1.91 0 0 1 .52.14.94.94 0 0 1 .38.29.7.7 0 0 1 .15.34.77.77 0 0 1 0 .37c-.03.12-.08.22-.16.32-.08.09-.18.16-.31.21-.13.04-.26.06-.38.06a2.34 2.34 0 0 1-.38-.03l-.38-.07-.37-.08a.52.52 0 0 0 .16.28c.08.07.17.12.28.16s.22.06.34.07a4.21 4.21 0 0 0 .35.01h.03zm-.57-1.4c-.1 0-.19.03-.26.08s-.15.12-.22.23l.34.07c.12.03.24.05.36.06a1.67 1.67 0 0 0 .3.02c.09-.01.14-.03.17-.08l.03-.08c0-.03 0-.06-.03-.08-.08-.08-.17-.14-.28-.17s-.21-.05-.3-.04l-.11-.01zm5.86 2.5c.04-.02.08-.03.13-.03s.09 0 .14.01.09.03.13.05c.04.03.07.06.08.1a3.03 3.03 0 0 1 .38.24 2.35 2.35 0 0 1 .33.3c.1.11.18.23.24.36a1.02 1.02 0 0 1 .12.43c.02.13.01.25-.02.38a1.9 1.9 0 0 1-.12.36 1.46 1.46 0 0 1-.39.49 1.36 1.36 0 0 1-.53.25c-.19.04-.39.05-.59.01s-.39-.12-.58-.24c-.14-.09-.26-.2-.36-.33l-.29-.39-.42.35a.9.9 0 0 1-.1.09c-.03.03-.07.06-.1.09-.04.03-.07.05-.11.07s-.08.03-.13.04c-.09.01-.16 0-.22-.05-.06-.04-.1-.1-.12-.17s-.03-.14-.01-.21.05-.14.12-.19l.79-.65c-.02-.08-.01-.15.01-.21s.06-.11.1-.15c.05-.03.1-.06.17-.06a.32.32 0 0 1 .19.03l1.12-.93.04-.04zm.86 1.43a.87.87 0 0 0-.27-.41c-.13-.11-.27-.2-.42-.28l-.95.79a1.97 1.97 0 0 0 .33.43c.13.13.28.23.46.29.13.04.24.04.35 0a.79.79 0 0 0 .29-.18c.08-.08.14-.18.18-.3.04-.1.05-.22.03-.34zm-.98 4.03c-.08-.04-.14-.1-.17-.18-.03-.07-.04-.15-.01-.24.03-.08.09-.15.19-.2l2.83-1.41c.08-.04.16-.04.24-.01s.15.08.2.15a.37.37 0 0 1 .07.23c-.01.08-.06.15-.16.21l-.51.27-.51.24a1.25 1.25 0 0 1 .37.31.89.89 0 0 1 .19.39.94.94 0 0 1-.01.44 1.07 1.07 0 0 1-.25.45 1.56 1.56 0 0 1-.3.27l-.36.22-.38.18-.36.17c-.07.04-.14.05-.22.04s-.14-.03-.2-.08c-.05-.04-.09-.1-.11-.17s-.01-.14.03-.23c.04-.08.11-.16.19-.21.09-.06.18-.11.29-.16l.33-.14c.11-.04.22-.09.32-.15a.82.82 0 0 0 .25-.2c.07-.08.11-.17.12-.28-.02-.07-.06-.13-.1-.18-.05-.04-.1-.08-.16-.11s-.12-.05-.19-.06l-.2-.05c-.02 0-.04-.01-.07-.01-.02-.01-.05-.01-.07-.02l-.97.48c-.13.09-.23.09-.31.04zm2.54 2.13c.11 0 .23.01.34.03s.23.05.34.09.21.1.31.16.18.14.25.22c.13.15.22.31.26.48s.05.34.02.5a1 1 0 0 1-.22.45c-.11.14-.26.25-.44.33a2.91 2.91 0 0 1-.35.12 1.36 1.36 0 0 1-.36.05c-.18.01-.37-.03-.57-.09-.2-.07-.38-.17-.53-.29a1.47 1.47 0 0 1-.36-.46.88.88 0 0 1-.05-.58c.02-.09.05-.18.08-.26a1.09 1.09 0 0 1 .14-.23c.07-.08.14-.15.22-.21s.16-.11.25-.15c.1-.05.2-.09.3-.11.11-.02.21-.03.32-.04l.05-.01zm.05.69a1.1 1.1 0 0 0-.18.02c-.06.01-.12.02-.17.04a.57.57 0 0 0-.21.13c-.06.05-.1.11-.13.18s-.03.14-.01.21a.51.51 0 0 0 .13.22c.09.09.21.16.36.2s.3.06.44.04c.15-.02.28-.07.39-.14a.5.5 0 0 0 .2-.35c-.02-.09-.06-.17-.12-.24-.05-.07-.12-.12-.19-.17-.07-.04-.15-.08-.24-.1a1.26 1.26 0 0 0-.27-.04zm1.21 2.97c.01-.08.04-.14.09-.2a.29.29 0 0 1 .15-.12c.06-.02.12-.03.19-.01s.13.06.18.13c.05.06.08.12.08.2l.01.22c.03 0 .08-.01.17-.02l.29-.02h.3c.1.01.17.02.2.05.11.07.17.16.17.27s-.05.21-.15.28c-.02.02-.04.03-.07.05-.03.01-.05.02-.07.02l-.41.03-.41.02.02.45a.28.28 0 0 1-.06.18c-.04.05-.09.09-.15.11a.58.58 0 0 1-.19.03c-.06-.01-.12-.03-.16-.08a.46.46 0 0 1-.13-.3l-.03-.35-.62.03-.62.04c-.09 0-.18.01-.28.03a1.22 1.22 0 0 1-.27 0 .35.35 0 0 1-.17-.09c-.04-.04-.07-.09-.08-.15s-.01-.12 0-.18.04-.12.08-.18c.03-.03.07-.05.13-.07s.13-.03.2-.04c.08-.01.17-.01.27-.01.08 0 .17-.01.29-.02l.38-.02.37-.02.28-.02.02-.24zm-.47 2.55c.11.04.21.09.31.15a1.86 1.86 0 0 1 .28.21c.09.08.16.17.23.26a1.08 1.08 0 0 1 .16.3c.07.18.09.36.07.54a1.11 1.11 0 0 1-.17.47c-.09.14-.21.25-.37.34-.15.09-.33.13-.53.14-.13 0-.25 0-.37-.02-.11-.01-.23-.04-.35-.08-.17-.06-.34-.16-.5-.3s-.29-.29-.39-.47a1.24 1.24 0 0 1-.16-.55.86.86 0 0 1 .17-.56 1.2 1.2 0 0 1 .17-.21.89.89 0 0 1 .22-.16 1.39 1.39 0 0 1 .28-.12l.29-.05c.11-.01.22-.01.32.01.11.02.21.05.31.08l.03.02zm-.21.66l-.17-.05c-.06-.02-.12-.02-.18-.02a.69.69 0 0 0-.25.04c-.08.03-.14.07-.19.12s-.08.12-.09.19 0 .16.04.25c.05.12.14.22.26.32s.26.16.4.2.28.04.42.01.24-.12.32-.25a.62.62 0 0 0-.02-.27c-.03-.08-.06-.16-.11-.22-.05-.07-.11-.13-.19-.18l-.24-.14zm-1.29 2.42c.07 0 .13.01.19.04.06.02.11.06.15.1s.06.09.07.15a.33.33 0 0 1-.03.19.36.36 0 0 1-.17.17.37.37 0 0 1-.11.05c-.04.02-.07.04-.1.06-.07.04-.12.1-.17.16-.04.06-.09.13-.12.2-.02.05-.02.09 0 .13.01.04.04.07.07.09a.37.37 0 0 0 .11.05c.04.01.08.01.11-.01.08-.04.15-.1.2-.18l.15-.22a1.57 1.57 0 0 1 .25-.27c.09-.08.2-.14.32-.17s.24-.04.36-.01a.92.92 0 0 1 .32.14.75.75 0 0 1 .24.26.95.95 0 0 1 .13.33.66.66 0 0 1 0 .28c-.02.09-.05.19-.09.27-.04.09-.09.17-.14.25l-.17.22c-.07.07-.15.12-.23.14-.09.02-.17.01-.24-.01-.07-.03-.13-.07-.16-.14-.04-.07-.04-.15-.01-.24a.53.53 0 0 1 .08-.15c.04-.04.07-.08.11-.13a.76.76 0 0 0 .12-.19.49.49 0 0 0 .05-.19c0-.02 0-.04-.02-.06-.01-.02-.03-.05-.06-.07a.3.3 0 0 0-.08-.04c-.03 0-.06.01-.09.03a1.16 1.16 0 0 0-.2.24l-.18.25c-.06.08-.14.15-.21.22-.08.06-.17.11-.28.13-.16.03-.32.02-.47-.03a1.09 1.09 0 0 1-.39-.23c-.11-.11-.19-.23-.24-.38s-.06-.31-.02-.47c.03-.11.07-.22.13-.32s.13-.19.22-.27.18-.15.28-.22a2.1 2.1 0 0 1 .3-.15h.02z" fill="#fff"/><text transform="matrix(-.4432 .8964 -.8964 -.4432 35.7304 26.465)" fill="#fff" font-family="Helvetica" font-size="1.283">™</text></svg>