<svg xmlns="http://www.w3.org/2000/svg" xmlns:xlink="http://www.w3.org/1999/xlink" version="1.2" viewBox="0 0 96 96" baseProfile="tiny-ps">
	<title>Booxi</title>
	<rect id="bg" fill-rule="evenodd" fill="#44CE5E" width="96" height="96"/>
	<path id="booxi" fill="#FFFFFF" d="M27.428,47.7c0-7.584,0-7.584-7.711-7.584c-0.657,0-1.881,0-2.562,0.137v-2.673
		c0-2.536-0.031-2.536-2.593-2.536S12,35.045,12,37.557v13.831c0,7.607-0.024,7.584,7.708,7.584c7.757,0,7.733-0.001,7.72-7.515V47.7
		z M22.273,51.403c0,2.512,0.024,2.534-2.562,2.534c-2.586,0-2.586-0.021-2.586-2.534v-3.782c0-2.489,0.024-2.512,2.586-2.512
		c2.562,0,2.562-0.024,2.562,2.512V51.403z M78.85,36.912c0-1.865,0-1.891,2.562-1.891c2.562,0,2.586,0,2.586,1.891
		c0,1.891,0.009,1.889-2.554,1.889h-0.009C78.875,38.801,78.85,38.778,78.85,36.912z M70.456,44.149
		c-0.218-0.345-0.218-0.508-0.022-0.808c0.539-0.897,1.011-1.658,1.221-2.028c0.706-1.197,0.824-1.268,3.364-1.268
		c2.54,0,3.277,0.071,1.747,2.536h-0.009c-0.776,1.285-2.235,3.759-3.08,5.211c-0.282,0.484-0.682,0.76-1.129,0
		c-0.448-0.76-0.61-1.084-1.033-1.823C71.21,45.441,70.86,44.818,70.456,44.149z M44.126,47.653c0-7.537,0-7.56-7.711-7.56
		c-7.665,0-7.689-0.024-7.689,7.537v3.804c0,7.515-0.024,7.539,7.689,7.539h0.009c7.735,0,7.735,0,7.702-7.515V47.653z
		M38.999,51.388c0,2.536-0.044,2.536-2.584,2.536s-2.54-0.024-2.54-2.536v-3.78c0-2.491,0-2.491,2.54-2.491
		c2.584,0,2.584,0,2.584,2.491V51.388z M60.853,47.653c0-7.537,0-7.56-7.711-7.56c-7.665,0-7.687-0.024-7.687,7.537v3.804
		c0,7.514-0.024,7.539,7.685,7.539c7.732,0,7.733-0.001,7.713-7.515V47.653z M55.729,51.388c0,2.536-0.048,2.536-2.586,2.536
		s-2.538-0.024-2.538-2.536v-3.78c0-2.491,0-2.491,2.538-2.491c2.586,0,2.586,0,2.586,2.491V51.388z M70.583,52.356
		c-0.987,1.683-2.444,4.104-3.198,5.354c-0.754,1.251-0.821,1.268-3.338,1.268c-2.516,0-3.174-0.139-1.763-2.512
		c0.14-0.231,2.538-4.311,3.338-5.671c0.518-0.857,0.494-1.66,0-2.512c-0.775-1.336-2.468-4.243-3.338-5.671
		c-1.481-2.467-0.8-2.512,1.747-2.512c2.547,0,2.65,0.066,3.364,1.261c0.496,0.829,2.259,3.733,3.198,5.354
		C72.182,49.429,72.182,49.613,70.583,52.356z M76.804,56.436c1.492,2.467,0.786,2.536-1.73,2.536h-0.009
		c-2.538,0-2.656-0.069-3.362-1.268c-0.218-0.368-0.682-1.131-1.223-2.028c-0.188-0.3-0.164-0.463,0.024-0.807
		c0.4-0.668,0.751-1.285,1.057-1.82c0.424-0.739,0.566-1.015,1.036-1.823c0.437-0.76,0.845-0.484,1.129,0
		C74.571,52.68,76.028,55.145,76.804,56.436z M83.999,42.582V56.46c0.009,2.512,0.009,2.512-2.578,2.512h-0.009
		c-2.562,0-2.562,0-2.562-2.536V42.56c0-2.514,0-2.491,2.562-2.491C83.975,40.069,83.999,40.069,83.999,42.582z"/>
</svg>