<?xml version="1.0" encoding="utf-8"?>
<!-- Generator: Adobe Illustrator 27.6.1, SVG Export Plug-In . SVG Version: 6.00 Build 0)  -->
<svg version="1.2" baseProfile="tiny-ps" xmlns="http://www.w3.org/2000/svg" xmlns:xlink="http://www.w3.org/1999/xlink" viewBox="0 0 96 96" xml:space="preserve">
<title>Matroid</title>
<desc>The Matroid logo</desc>
<g id="Logo_Layer">
	<rect id="Backgrtound" fill="#FFFFFF" width="96" height="96"/>
	<path fill="#26A9E0" d="M58.73,44.11c-0.68-0.54-1.27-1.03-1.76-1.42c-0.39-0.29-0.73-0.59-1.08-0.88
		c-0.93,0.39-1.96,0.59-3.03,0.59c-4.45,0-8.07-3.62-8.07-8.07s3.62-8.07,8.07-8.07s8.07,3.62,8.07,8.07c0,1.52-0.44,2.93-1.17,4.16
		c0.49,0.88,1.08,1.76,1.76,2.54c0.2,0.24,0.39,0.44,0.59,0.64c1.61-2,2.54-4.6,2.54-7.33c0-6.55-5.28-11.83-11.83-11.83
		c-6.4,0-11.63,5.08-11.83,11.44c-1.12,0.68-3.81,2.2-7.09,2.54c-3.47,0.34-7.04-0.88-8.26-1.32c-0.59-0.29-1.27-0.49-2-0.49
		c-2.4,0-4.35,1.96-4.35,4.35c0,2.4,1.96,4.35,4.35,4.35c1.03,0,1.96-0.34,2.69-0.93c3.81-2.35,5.04-2.15,8.16-3.08
		c2.64-0.83,6.36-0.24,7.63,0c1.86,4.06,5.96,6.84,10.71,6.84c2.3,0,4.4-0.64,6.21-1.76C59.02,44.3,58.88,44.21,58.73,44.11z"/>
	<path fill="#F62809" d="M77.89,46.16c-3.42-1.91-7.38-1.96-10.71-0.44c-1.27-0.54-3.96-1.86-6.11-4.25
		c-2.3-2.59-3.42-6.21-3.76-7.48c-0.1-0.68-0.34-1.32-0.78-1.91c-1.42-1.96-4.11-2.4-6.06-0.98c-1.96,1.42-2.4,4.11-0.98,6.06
		c0.59,0.83,1.42,1.37,2.3,1.61c4.11,1.76,4.69,2.84,7.28,4.84c1.76,1.32,3.18,3.67,3.96,5.18c-0.49,0.59-0.93,1.22-1.32,1.91
		c-1.03,1.86-1.52,3.86-1.52,5.87c0.15-0.05,0.29-0.1,0.39-0.15c0.83-0.34,1.52-0.54,2.1-0.78c0.49-0.15,0.93-0.29,1.37-0.49
		c0.15-0.88,0.44-1.81,0.93-2.64c2.15-3.86,7.09-5.28,10.95-3.08c3.86,2.15,5.28,7.09,3.08,10.95c-2.15,3.86-7.09,5.28-10.95,3.08
		c-1.42-0.78-2.49-1.96-3.18-3.28c-0.24,0-0.49,0-0.68,0c-0.88,0-1.24,0-2.44,0.2c-0.29,0.05-0.54,0.1-0.83,0.2
		c0.93,2.54,2.74,4.79,5.33,6.21c5.72,3.18,12.91,1.17,16.08-4.55C85.62,56.57,83.57,49.34,77.89,46.16z"/>
	<path fill="#1ABB46" d="M76.09,56.08c-0.2-2.4-2.3-4.16-4.69-3.96c-1.03,0.1-1.91,0.49-2.59,1.12c-3.62,2.64-4.84,2.54-7.92,3.76
		c-2.05,0.83-4.79,0.83-6.5,0.73c-0.24-0.73-0.54-1.42-0.93-2.1c-3.23-5.67-10.46-7.68-16.13-4.4c-0.1,0.05-0.2,0.15-0.29,0.2
		c0.2,0.2,0.39,0.34,0.59,0.54c0.68,0.54,1.22,1.08,1.71,1.52c0.24,0.24,0.49,0.44,0.73,0.68c3.72-1.61,8.12-0.2,10.17,3.42
		c2.2,3.86,0.83,8.8-2.98,11c-3.86,2.2-8.8,0.83-11-2.98c-1.47-2.59-1.37-5.67,0.05-8.07c-0.44-0.88-0.98-1.76-1.61-2.54
		c-0.2-0.24-0.44-0.54-0.68-0.73c-2.93,3.67-3.52,8.95-1.03,13.25c3.23,5.67,10.46,7.68,16.13,4.4c3.42-1.96,5.48-5.33,5.87-8.95
		c1.12-0.83,3.62-2.44,6.8-3.03c3.42-0.64,7.09,0.24,8.36,0.64c0.64,0.24,1.32,0.39,2.05,0.34C74.52,60.58,76.28,58.48,76.09,56.08z
		"/>
	<path fill="#EEA82D" d="M44.26,57.55c-4.06-1.91-4.55-3.03-7.09-5.13c-1.91-1.61-3.37-4.5-4.01-5.92c1.52-1.86,2.44-4.2,2.59-6.8
		c-0.39,0.05-0.73,0.15-1.03,0.24c-0.83,0.24-1.56,0.44-2.2,0.59c-0.24,0.05-0.49,0.1-0.73,0.2c-0.73,3.67-4.01,6.4-7.87,6.4
		c-4.45,0-8.07-3.62-8.07-8.07s3.62-8.07,8.07-8.07c3.28,0,6.16,2,7.38,4.84c0.44,0.05,0.93,0.05,1.37,0.05c0.44,0,0.83,0,1.22-0.05
		c0.49-0.05,0.93-0.1,1.37-0.2c-1.47-4.89-5.96-8.41-11.34-8.41c-6.55,0-11.83,5.28-11.83,11.83S17.42,50.9,23.92,50.9
		c1.76,0,3.42-0.39,4.94-1.08c1.08,0.49,4.01,1.96,6.21,4.64c2.2,2.69,3.18,6.36,3.42,7.63c0.05,0.68,0.29,1.37,0.68,1.96
		c1.32,2,4.01,2.54,6.01,1.22s2.54-4.01,1.22-6.01C45.92,58.43,45.14,57.84,44.26,57.55z"/>
</g>
</svg>
