<svg xmlns="http://www.w3.org/2000/svg" xmlns:xlink="http://www.w3.org/1999/xlink" version="1.2" viewBox="0 0 200 200" baseProfile="tiny-ps">
  <title>SWAG-logo_rgb</title>
  <rect width="200" height="200" fill="#191919" fill-rule="evenodd"/>
  <g>
    <path d="M168.983,88.732c-0.362-0.844-0.812-1.585-1.356-2.224   c-0.543-0.639-1.13-1.14-1.763-1.505c-0.633-0.365-1.243-0.456-1.831-0.274c-4.25,0.593-8.229,1.46-11.937,2.6   c-3.708,1.14-7.37,2.554-10.987,4.242c-0.723,0.365-1.176,0.901-1.355,1.608c-0.183,0.707-0.171,1.471,0.032,2.292   c0.205,0.821,0.554,1.631,1.051,2.429c0.497,0.798,1.063,1.494,1.696,2.087c0.633,0.593,1.311,1.026,2.035,1.3   c0.723,0.274,1.379,0.274,1.967,0c0.904-0.639,1.797-1.118,2.679-1.437c0.882-0.319,1.773-0.616,2.679-0.889   c-1.221,1.688-2.781,3.136-4.678,4.345c-1.901,1.209-3.934,2.018-6.106,2.429c-2.17,0-3.764-0.502-4.782-1.505   c-1.017-1.004-1.628-2.304-1.829-3.9c-0.205-1.596-0.092-3.364,0.337-5.303c0.43-1.939,1.029-3.866,1.797-5.782   c0.769-1.916,1.616-3.683,2.543-5.303c0.927-1.619,1.773-2.885,2.543-3.797c0.904-1.095,1.854-1.973,2.849-2.634   s2.238-1.266,3.73-1.813c0.633-0.319,1.277-0.502,1.933-0.547c0.656-0.046,1.436-0.068,2.34-0.068   c0.588-0.046,1.155,0.205,1.696,0.753c0.543,0.547,1.119,1.129,1.731,1.745c0.608,0.616,1.264,1.118,1.967,1.505   c0.699,0.388,1.524,0.376,2.474-0.034c0.407-0.274,0.667-0.696,0.78-1.266c0.113-0.57,0.113-1.175,0-1.813   c-0.113-0.639-0.305-1.254-0.576-1.847c-0.271-0.593-0.565-1.026-0.882-1.3c-1.356-2.281-3.007-4.003-4.951-5.166   c-1.944-1.163-4.013-1.813-6.206-1.95c-2.193-0.137-4.408,0.217-6.647,1.061c-2.238,0.844-4.329,2.11-6.274,3.797   c-1.583,1.46-2.984,3.41-4.205,5.85c-1.219,2.44-2.229,5.04-3.018,7.8c-0.791,2.76-1.356,5.497-1.696,8.211   c-0.198,1.581-0.286,3.03-0.294,4.371c-0.769-1.804-1.481-3.643-2.112-5.535c-0.723-2.167-1.424-4.356-2.104-6.568   c-0.676-2.212-1.434-4.368-2.272-6.466c-0.836-2.098-1.809-4.083-2.915-5.953c-1.108-1.87-2.453-3.581-4.035-5.132   c-0.678-0.365-1.573-0.502-2.679-0.411c-1.11,0.091-2.001,0.456-2.681,1.095c-0.95,1.825-1.524,3.82-1.73,5.987   c-0.202,2.167-0.305,4.379-0.305,6.637c0,2.258-0.043,4.493-0.134,6.705c-0.092,2.212-0.499,4.276-1.223,6.192   c-1.219-0.319-2.419-0.65-3.595-0.992c-0.072-0.021-0.141-0.051-0.213-0.074c0.047-0.253,0.102-0.53,0.147-0.781   c0.633-3.284,0.882-6.489,0.746-9.613c-0.138-3.125-0.386-6.329-0.746-9.613c-0.271-1.186-0.825-2.44-1.662-3.763   c-0.836-1.323-1.843-2.304-3.018-2.942c-0.771-0.137-1.356-0.08-1.763,0.171c-0.409,0.251-0.712,0.604-0.916,1.061   c-0.205,0.456-0.317,0.969-0.339,1.539c-0.025,0.57-0.034,1.083-0.034,1.539c0.633,3.604,0.789,7.31,0.475,11.119   c-0.256,3.085-0.81,6.101-1.63,9.051c-0.16,0.108-0.322,0.203-0.475,0.357c-1.038,0.73-1.513,1.654-1.424,2.771   c0.068,0.804,0.33,1.593,0.688,2.374c-0.196,0.652-0.388,1.306-0.618,1.971c-0.317,0.639-0.669,1.448-1.051,2.429   c-0.384,0.981-1.029,1.79-1.933,2.429c0,0.137-0.09,0.217-0.271,0.24c-0.183,0.023-0.398,0-0.644-0.068   c-0.25-0.068-0.465-0.182-0.646-0.342c-0.179-0.16-0.269-0.308-0.269-0.445c-0.273-0.319-0.431-0.753-0.475-1.3   c-0.045-0.547-0.068-1.118-0.068-1.711c0.269-0.912,0.19-1.916-0.237-3.011c-0.431-1.095-0.938-2.098-1.528-3.011   c-0.179-0.319-0.507-0.673-0.982-1.061c-0.475-0.388-0.985-0.718-1.526-0.992c-0.543-0.274-1.085-0.411-1.628-0.411   c-0.543,0-0.974,0.228-1.291,0.684c-0.904,1.779-1.797,3.558-2.677,5.337c-0.882,1.779-1.777,3.398-2.679,4.858   c-0.317-0.639-0.499-1.368-0.543-2.19c-0.047-0.821-0.07-1.688-0.07-2.6c-0.317-2.737-0.473-5.348-0.473-7.834   s0.156-5.097,0.473-7.834c0.09-0.684-0.021-1.437-0.337-2.258c-0.316-0.821-0.746-1.597-1.289-2.326   c-0.543-0.73-1.142-1.357-1.797-1.882c-0.658-0.525-1.289-0.855-1.899-0.992c-0.61-0.137-1.142-0.011-1.594,0.376   c-0.452,0.388-0.723,1.129-0.814,2.224c-0.317,3.649-0.452,7.275-0.407,10.879c0.013,1.032,0.098,2.064,0.156,3.098   c-1.176-0.882-2.428-1.682-3.853-2.311c-2.012-0.89-4.115-1.608-6.306-2.155c-2.195-0.547-4.196-1.118-6.004-1.711   c-0.95-0.365-1.741-0.707-2.374-1.026c-0.635-0.319-1.243-0.798-1.829-1.437c0.269,0,0.541-0.091,0.812-0.274   c0.136-0.091,0.249-0.205,0.339-0.342c1.854-1.232,3.8-2.258,5.835-3.079c2.033-0.821,4.135-1.232,6.306-1.232   c0.814-0.091,1.379-0.422,1.696-0.992c0.317-0.57,0.463-1.254,0.441-2.053c-0.024-0.798-0.203-1.654-0.543-2.566   c-0.339-0.912-0.78-1.733-1.323-2.463c-0.543-0.73-1.153-1.323-1.831-1.779c-0.678-0.456-1.379-0.639-2.103-0.547   c-2.442,0-4.838,0.41-7.189,1.232c-2.353,0.821-4.612,1.87-6.782,3.147c-1.176,0.775-2.103,1.676-2.781,2.703   c-0.678,1.026-1.11,2.121-1.289,3.284c-0.181,1.163-0.136,2.383,0.136,3.661c0.273,1.277,0.791,2.532,1.56,3.763   c1.537,2.418,3.346,4.345,5.426,5.782c2.08,1.437,4.318,2.748,6.715,3.934c1.176,0.639,2.374,1.129,3.595,1.471   c1.221,0.342,2.419,0.673,3.595,0.992c0.362,0,0.69,0.103,0.983,0.308c0.294,0.205,0.599,0.308,0.916,0.308   c-0.633,0.319-1.13,0.627-1.492,0.924c-0.364,0.296-0.656,0.627-0.882,0.992c-0.949,0.593-1.899,1.152-2.849,1.676   c-0.95,0.525-2.059,0.969-3.321,1.334c-1.177,0.593-2.353,1.038-3.529,1.334c-1.178,0.297-2.216,0.445-3.12,0.445h-3.662   c-0.134,0-0.362-0.034-0.676-0.103c-0.318-0.068-0.635-0.137-0.951-0.205c-0.317-0.068-0.554-0.137-0.712-0.205   c-0.158-0.068-0.17-0.103-0.034-0.103c-0.317-0.274-0.724-0.616-1.221-1.026c-0.497-0.411-1.006-0.73-1.526-0.958   c-0.518-0.228-1.029-0.308-1.524-0.239c-0.499,0.068-0.906,0.422-1.223,1.061c-0.45,0.593-0.701,1.22-0.744,1.882   c-0.047,0.661,0.032,1.323,0.237,1.984c0.202,0.661,0.463,1.289,0.778,1.882c0.318,0.593,0.635,1.118,0.951,1.574   c1.219,1.505,2.666,2.657,4.339,3.455c1.673,0.798,3.459,1.311,5.358,1.539c1.899,0.228,3.843,0.217,5.833-0.034   c1.99-0.251,3.889-0.696,5.697-1.334c1.492-0.456,3.176-1.175,5.053-2.155c1.876-0.981,3.595-2.155,5.155-3.524   c0.744-0.654,1.405-1.347,1.995-2.077c0.226,0.819,0.475,1.627,0.752,2.419c1.04,2.965,2.756,5.656,5.153,8.074   c0.317,0.137,0.691,0.329,1.121,0.582c0.43,0.251,0.846,0.445,1.255,0.582c0.407,0.137,0.78,0.182,1.119,0.137   c0.339-0.046,0.577-0.296,0.712-0.753c0.902-1.505,1.773-2.999,2.611-4.482c0.837-1.483,1.571-2.976,2.204-4.482l1.153,1.163   c0.723,1.049,1.682,2.018,2.883,2.908c1.198,0.89,2.428,1.505,3.696,1.847c1.264,0.342,2.485,0.319,3.661-0.068   c1.176-0.388,2.148-1.334,2.918-2.84c0.904-1.232,1.662-2.577,2.27-4.037c0.522-1.245,0.972-2.551,1.379-3.896   c0.465,0.04,0.927,0.082,1.404,0.099c0.656,0.023,1.309,0.091,1.967,0.205c0.654,0.114,1.323,0.376,1.999,0.787   c0.09,0.958,0.011,2.246-0.237,3.866c-0.247,1.619-0.52,3.387-0.812,5.303c-0.296,1.916-0.533,3.866-0.712,5.85   c-0.183,1.984-0.16,3.82,0.068,5.508c0.224,1.686,0.723,3.147,1.492,4.379c0.767,1.232,1.967,2.03,3.593,2.395   c0.723,0.319,1.291,0.399,1.697,0.239c0.405-0.16,0.701-0.445,0.88-0.855c0.181-0.411,0.284-0.889,0.305-1.437   c0.023-0.547,0.036-1.026,0.036-1.437c-0.228-1.961-0.283-3.889-0.171-5.782c0.115-1.893,0.294-3.763,0.543-5.611   c0.249-1.847,0.511-3.683,0.78-5.508c0.273-1.825,0.475-3.695,0.612-5.611c1.763,0,3.662,0.091,5.697,0.274   c2.035,0.182,4.092,0.274,6.17,0.274c0.273,0.456,0.588,0.924,0.95,1.403c0.364,0.479,0.769,0.924,1.223,1.334   c0.45,0.411,0.938,0.741,1.458,0.992c0.518,0.251,1.072,0.376,1.662,0.376c0.441-0.137,0.755-0.376,1.006-0.669   c1.017,1.446,2.204,2.722,3.572,3.816c1.875,1.505,4.022,2.554,6.443,3.147c2.417,0.593,4.983,0.547,7.696-0.137   c1.944-0.593,3.9-1.551,5.867-2.874c1.967-1.323,3.606-2.862,4.917-4.618c1.311-1.756,2.159-3.615,2.543-5.576   c0.384-1.961-0.034-3.854-1.255-5.679c1.176-0.319,2.476-0.616,3.9-0.889c1.424-0.274,2.747-0.547,3.968-0.821   c0.814-0.182,1.368-0.582,1.662-1.197c0.294-0.616,0.407-1.311,0.339-2.087C169.559,90.386,169.344,89.576,168.983,88.732z    M112.555,93.83c0.271-2.053,0.475-3.706,0.609-4.961c0.137-1.254,0.237-2.258,0.305-3.011c0.068-0.753,0.113-1.311,0.138-1.676   c0.021-0.365,0.032-0.684,0.032-0.958c1.266,1.551,2.261,3.273,2.984,5.166c0.723,1.893,1.469,3.706,2.24,5.439H112.555z" fill="#00D2BE" fill-rule="evenodd"/>
    <path d="M179.774,128.036c-1.56-1.897-3.836-3.51-6.826-4.839   c-2.99-1.327-6.502-2.393-10.532-3.193c-4.032-0.802-8.493-1.391-13.384-1.771c-4.893-0.38-10.028-0.58-15.409-0.601   c-5.379-0.021-10.904,0.116-16.577,0.411c-1.17,0.061-2.327,0.141-3.491,0.209c-0.089,0.937-0.207,1.863-0.26,2.811   c-0.107,1.893-0.055,3.82,0.162,5.782c0,0.391-0.011,0.853-0.032,1.368c5.773-0.201,11.515-0.325,17.225-0.365   c5.867-0.044,11.554,0.019,17.065,0.188c5.509,0.169,10.784,0.452,15.822,0.853c5.04,0.401,9.687,0.939,13.943,1.614   c0.618,0.084,1.13,0.063,1.537-0.063c0.405-0.127,0.706-0.317,0.902-0.57c0.194-0.253,0.283-0.547,0.268-0.886   C180.172,128.648,180.034,128.331,179.774,128.036" fill="#00D2BE" fill-rule="evenodd"/>
    <path d="M98.941,123.511c-0.192-1.479-0.203-3.09-0.094-4.795   c-1.858,0.133-3.717,0.262-5.563,0.416c-5.599,0.464-11.068,1.011-16.408,1.644c-5.337,0.633-10.332,1.296-14.981,1.992   c-4.65,0.696-8.866,1.382-12.649,2.056c-3.783,0.673-6.95,1.306-9.505,1.897c-2.227,0.506-4.422,1.022-6.583,1.549   c-2.161,0.528-4.273,1.108-6.336,1.739c-0.492,0.127-1.123,0.297-1.892,0.507c-0.769,0.211-1.522,0.431-2.261,0.663   c-0.737,0.232-1.383,0.496-1.939,0.791c-0.558,0.295-0.853,0.612-0.885,0.948c-0.13,0.591,0.09,1.002,0.663,1.233   c0.573,0.232,1.285,0.348,2.136,0.348c0.853,0,1.728-0.053,2.628-0.158c0.901-0.105,1.63-0.2,2.185-0.285   c2.229-0.211,4.456-0.431,6.682-0.663c2.227-0.232,4.454-0.475,6.679-0.728c4.356-0.422,9.088-0.853,14.198-1.296   c5.107-0.443,10.454-0.865,16.038-1.266c5.584-0.401,11.33-0.768,17.242-1.106c4.137-0.236,8.31-0.401,12.478-0.576   c-0.138-0.173-0.283-0.338-0.399-0.532C99.636,126.659,99.157,125.197,98.941,123.511" fill="#00D2BE" fill-rule="evenodd"/>
  </g>
</svg>

