<?xml version="1.0" encoding="utf-8"?>
<!-- Generator: Adobe Illustrator 24.2.3, SVG Export Plug-In . SVG Version: 6.00 Build 0)  -->
<svg version="1.2" baseProfile="tiny-ps" id="Layer_1" xmlns="http://www.w3.org/2000/svg" xmlns:xlink="http://www.w3.org/1999/xlink"
	 viewBox="0 0 500 500" xml:space="preserve">
    <title>Alzheimer's Association</title>
<g id="Layer_2_1_">
	<rect fill="#492365" width="500" height="500"/>
	</g>
<g id="Layer_1_1_">
	<path fill="#FFFFFF" d="M127,296.1C82.6,278.4,51.2,235,51.2,184.3c0-66.4,54-120.5,120.5-120.5c66.4,0,120.5,54,120.5,120.5
		c0,26.4-8.5,50.9-23,70.7l0,0l-8,11.3l0,0c-10.2,13.9-16.3,31-16.3,49.5c0,46.1,37.5,83.5,83.6,83.5s83.6-37.5,83.6-83.5
		c0-40.2-28.5-73.8-66.4-81.8c-2.5-0.6-17.7-5.3-18.6-23.4l0-12.8v-97.1h40.2v94.5c0.1,6.4,6,8.6,6,8.6l0,0.1
		c44.4,17.8,75.8,61.2,75.8,111.8c0,66.4-54,120.5-120.5,120.5c-66.4,0-120.5-54-120.5-120.5c0-26.5,8.6-50.9,23.1-70.8l0,0
		l7.9-11.2l0,0c10.2-13.9,16.3-31,16.3-49.5c0-46.1-37.5-83.6-83.6-83.6s-83.6,37.5-83.6,83.6c0,40.1,28.4,73.6,66,81.7l0,0
		c0,0,17.8,3.8,19,23.2v110.2h-40.2v-94.5C132.9,303.3,132.3,298.7,127,296.1z"/>
</g>
</svg>