<?xml version="1.0" encoding="utf-8"?>
<!-- Generator: Adobe Illustrator 24.3.0, SVG Export Plug-In . SVG Version: 6.00 Build 0)  -->
<svg version="1.2" baseProfile="tiny-ps" id="Layer_1" xmlns="http://www.w3.org/2000/svg" xmlns:xlink="http://www.w3.org/1999/xlink"
	 viewBox="0 0 140 140" xml:space="preserve">
	 <title>Outsource Accelerator</title>
<path fill-rule="evenodd" fill="#001E94" d="M56,107c-6.9,1.3-14.1,0.7-20.7-1.9c-6.6-2.5-12.3-6.9-16.6-12.5
	c-4.2-5.6-6.8-12.4-7.4-19.4c-0.6-7,0.8-14.1,4-20.4c3.2-6.3,8.1-11.6,14.2-15.2c6.1-3.6,13-5.5,20.1-5.4c7.1,0.1,13.9,2.2,19.9,6
	s10.7,9.3,13.7,15.7l-8.6,16.9v-0.8c0-5.7-1.9-11.3-5.5-15.8c-3.6-4.5-8.6-7.7-14.2-8.9s-11.5-0.7-16.7,1.8
	c-5.2,2.5-9.4,6.6-11.9,11.8c-2.5,5.2-3.2,11-2,16.6c1.2,5.6,4.3,10.6,8.8,14.3c4.5,3.6,10,5.6,15.8,5.7c5.7,0.1,11.3-1.8,15.9-5.3
	L56,107z"/>
<path fill-rule="evenodd" fill="#001E94" d="M118.6,107.8L87.4,46.4l6.7-13.1l37.9,74.5H118.6z"/>
</svg>
