<?xml version="1.0" encoding="UTF-8" standalone="yes"?>
<svg width="512" height="512" viewBox="0 0 512 512" fill="none" version="1.2" baseProfile="tiny-ps" xmlns="http://www.w3.org/2000/svg">
  <title>NAVE BANK</title>
  <rect width="512" height="512" fill="#784AD9"/>
  <path d="M446.379 287.58L430.599 267.45V287.61H419.379V223.74H430.599V262.88L444.459 245.45H458.679L441.509 264.58L460.969 287.58H446.379Z" fill="white"/>
  <path d="M413.489 287.58V266.52C413.489 253.41 403.959 244.24 390.729 244.1H390.359C377.119 244.24 367.609 253.41 367.609 266.52V287.58H378.819V266.52C378.819 259.35 383.819 254.73 390.559 254.67C397.299 254.61 402.289 259.35 402.289 266.52V287.58H413.489Z" fill="white"/>
  <path d="M316.15 266.52C316.15 252.1 325.31 244.08 336.4 244.08C343.27 244.08 347.85 247 350.4 251.37H350.58V245.45H361.71V287.59H350.57V281.65H350.39C347.75 286.03 343.18 288.94 336.39 288.94C325.31 288.94 316.15 280.91 316.15 266.52ZM350.62 266.52C350.62 259.4 345.97 254.66 339.17 254.66C332.37 254.66 327.72 259.4 327.72 266.52C327.72 273.64 332.37 278.39 339.17 278.39C345.97 278.39 350.57 273.65 350.57 266.54L350.62 266.52Z" fill="white"/>
  <path d="M311.719 269.53C311.719 282.02 302.139 287.53 291.109 287.53H264.109V223.74H289.399C300.629 223.74 308.559 229.22 308.559 239.74C308.559 246.61 305.129 251.51 298.809 253.48V253.66C306.349 254.99 311.719 259.85 311.719 269.53ZM275.799 234.53V249.92H287.149C293.079 249.92 296.309 247.09 296.309 242.16C296.309 237.23 292.759 234.59 287.559 234.59L275.799 234.53ZM299.329 268.39C299.329 263.09 295.689 259.89 288.659 259.89H275.789V276.89H289.149C295.539 276.89 299.359 273.7 299.359 268.42L299.329 268.39Z" fill="white"/>
  <path d="M246.999 266.67V268.86H215.519C216.159 275.34 220.899 279.07 227.379 279.07C229.754 279.006 232.093 278.471 234.259 277.496C236.425 276.521 238.377 275.125 239.999 273.39L245.649 281.49C243.258 283.89 240.417 285.794 237.289 287.095C234.161 288.396 230.807 289.067 227.419 289.07C213.679 289.07 204.699 280.13 204.699 266.72C204.699 253.31 213.339 244.21 226.569 244.21C239.319 244.17 246.999 252.27 246.999 266.67ZM215.809 261.67H235.689C235.299 256.27 231.479 253.17 225.999 253.17C220.519 253.17 216.709 255.87 215.789 261.65L215.809 261.67Z" fill="white"/>
  <path d="M205.999 245.57L188.839 287.7H177.889L160.709 245.57H173.389L183.309 274.74L193.239 245.57H205.999Z" fill="white"/>
  <path d="M111 266.61C111 252.19 120.16 244.17 131.25 244.17C138.12 244.17 142.7 247.09 145.25 251.46H145.43V245.54H156.56V287.68H145.42V281.74H145.24C142.6 286.12 138.03 289.03 131.24 289.03C120.16 289.03 111 281 111 266.61ZM145.47 266.61C145.47 259.49 140.82 254.75 134.02 254.75C127.22 254.75 122.57 259.49 122.57 266.61C122.57 273.73 127.22 278.46 134.02 278.46C140.82 278.46 145.42 273.72 145.42 266.61H145.47Z" fill="white"/>
  <path d="M98.39 287.6H97.94C96.84 287.602 95.756 287.337 94.78 286.83C93.8088 286.325 92.9696 285.599 92.33 284.71L62.77 243.17H62.68V287.63H51V230.17C51 228.272 51.7527 226.451 53.093 225.107C54.4333 223.763 56.2519 223.005 58.15 223C59.2933 223.012 60.4188 223.286 61.44 223.8C62.4585 224.334 63.3358 225.101 64 226.04L93.49 267.59H93.58V223.67H105.28V280.72C105.275 282.543 104.548 284.29 103.259 285.579C101.97 286.868 100.223 287.595 98.4 287.6H98.39Z" fill="white"/>
</svg>