<?xml version="1.0" encoding="UTF-8" standalone="yes"?>
<svg viewBox="50 50 300 300" width="300" height="300" version="1.2" baseProfile="tiny-ps" xmlns="http://www.w3.org/2000/svg">
  <title>UK Government</title>
  <rect width="400" height="400" fill="black"/>
  <path d="M233.418 146.551C228.646 148.51 223.221 146.25 221.313 141.528C219.354 136.807 221.614 131.332 226.386 129.423C231.057 127.514 236.482 129.775 238.441 134.496C240.4 139.218 238.139 144.592 233.468 146.551" fill="white"/>
  <path d="M203.933 180.004C199.161 181.963 193.736 179.702 191.828 174.981C189.869 170.259 192.129 164.784 196.901 162.876C201.572 160.967 206.997 163.227 208.956 167.949C210.915 172.67 208.654 178.045 203.983 180.004" fill="white"/>
  <path d="M258.23 161.369C253.459 163.328 248.034 161.067 246.125 156.346C244.166 151.624 246.426 146.149 251.198 144.241C255.87 142.332 261.294 144.592 263.253 149.314C265.212 154.035 262.952 159.41 258.281 161.369" fill="white"/>
  <path d="M274.657 185.78C269.885 187.739 264.46 185.479 262.551 180.807C260.592 176.086 262.853 170.611 267.624 168.702C272.296 166.793 277.721 169.054 279.679 173.775C281.638 178.497 279.378 183.871 274.707 185.83" fill="white"/>
  <path d="M205.289 117.82L216.992 123.948V106.669L205.289 110.386C204.987 109.934 204.585 109.532 204.133 109.181C203.681 108.829 208.855 94.3129 208.855 94.3129H200.416H191.978L196.699 109.13C196.298 109.482 195.896 109.884 195.544 110.336C195.193 110.788 183.841 106.669 183.841 106.669V123.948L195.544 117.77C195.896 118.272 196.298 118.674 196.75 118.975L190.019 139.268C190.019 139.268 190.019 139.318 190.019 139.368C189.718 140.373 189.517 141.478 189.517 142.583C189.517 148.058 193.585 152.629 198.859 153.382H199.11C199.563 153.433 200.015 153.483 200.467 153.483C200.919 153.483 201.371 153.483 201.823 153.382H202.074C207.348 152.579 211.417 148.058 211.417 142.583C211.417 141.478 211.266 140.373 210.914 139.368C210.914 139.368 210.914 139.318 210.914 139.268L204.184 118.975C204.636 118.624 205.037 118.222 205.389 117.77" fill="white"/>
  <path d="M167.166 146.551C171.937 148.51 177.362 146.25 179.271 141.528C181.23 136.807 178.969 131.332 174.198 129.423C169.526 127.514 164.102 129.775 162.143 134.496C160.184 139.218 162.444 144.592 167.115 146.551" fill="white"/>
  <path d="M142.35 161.369C147.122 163.328 152.547 161.067 154.455 156.346C156.414 151.624 154.154 146.149 149.382 144.241C144.711 142.332 139.286 144.592 137.327 149.314C135.368 154.035 137.629 159.41 142.3 161.369" fill="white"/>
  <path d="M125.928 185.78C130.7 187.739 136.124 185.479 138.033 180.807C139.992 176.086 137.732 170.611 132.96 168.702C128.289 166.793 122.864 169.054 120.905 173.775C118.946 178.497 121.206 183.871 125.878 185.83" fill="white"/>
  <path d="M200.366 240.831C222.568 240.831 243.563 242.338 262.299 245C267.623 222.648 274.103 209.84 280.733 200.748L268.176 196.278C269.431 202.657 269.632 205.62 268.226 209.739C266.166 207.73 264.208 203.963 262.65 198.287L256.573 218.58C260.29 216.018 263.153 214.36 266.418 214.31C260.641 226.817 253.358 230.032 248.687 229.128C242.961 228.073 240.299 222.949 241.203 218.63C242.509 212.502 248.837 210.894 251.751 218.027C257.376 206.525 247.833 202.958 241.705 206.374C251.148 196.931 252.203 188.593 244.618 178.447C234.02 186.584 233.869 194.62 238.641 205.922C232.463 198.84 222.769 202.657 226.285 214.109C230.755 207.178 236.682 211.547 235.728 218.127C234.924 223.854 227.39 228.475 217.947 227.671C204.435 226.465 203.631 217.123 203.28 209.438C206.595 208.835 212.572 211.899 217.695 219.082L219.554 197.584C214.029 203.36 208.956 204.465 203.38 204.616C205.239 198.789 213.828 189.296 213.828 189.296H186.955C186.955 189.296 195.494 198.84 197.403 204.616C191.828 204.415 186.754 203.36 181.229 197.584L183.088 219.082C188.211 211.949 194.138 208.835 197.503 209.438C197.152 217.173 196.348 226.465 182.837 227.671C173.393 228.475 165.859 223.854 165.055 218.127C164.101 211.547 170.028 207.178 174.499 214.109C177.964 202.657 168.32 198.84 162.142 205.922C166.914 194.62 166.813 186.584 156.165 178.447C148.53 188.593 149.635 196.931 159.078 206.374C152.95 202.958 143.357 206.575 149.032 218.027C151.996 210.894 158.275 212.502 159.58 218.63C160.485 222.949 157.822 228.073 152.096 229.128C147.425 229.982 140.142 226.767 134.366 214.31C137.63 214.411 140.493 216.018 144.21 218.58L138.133 198.287C136.576 203.963 134.617 207.73 132.557 209.739C131.151 205.62 131.352 202.657 132.557 196.278L120 200.748C126.68 209.84 133.16 222.648 138.434 245C157.169 242.338 178.165 240.831 200.316 240.831" fill="white"/>
  <path d="M126.507 286.209C126.507 287.552 126.672 288.836 127.015 290.075C127.358 291.313 127.866 292.403 128.552 293.358C129.239 294.313 130.104 295.075 131.179 295.642C132.254 296.209 133.507 296.507 134.985 296.507C136.463 296.507 137.582 296.284 138.522 295.836C139.463 295.388 140.209 294.821 140.776 294.134C141.343 293.448 141.731 292.731 141.955 291.94C142.179 291.149 142.299 290.418 142.299 289.761V289.448H134.269V284.612H148.463V301.791H142.91V298.119C142.522 298.731 142.03 299.284 141.448 299.791C140.866 300.299 140.209 300.716 139.478 301.075C138.746 301.433 137.955 301.716 137.09 301.91C136.224 302.104 135.299 302.224 134.328 302.224C132.045 302.224 130 301.806 128.224 300.985C126.448 300.164 124.955 299.015 123.731 297.552C122.507 296.09 121.582 294.388 120.955 292.433C120.328 290.478 120 288.373 120 286.119C120 283.866 120.358 281.776 121.06 279.806C121.761 277.836 122.776 276.134 124.075 274.687C125.373 273.239 126.955 272.09 128.791 271.254C130.627 270.418 132.701 270 134.985 270C136.478 270 137.881 270.164 139.209 270.507C140.537 270.851 141.761 271.343 142.866 271.97C143.97 272.597 144.94 273.373 145.791 274.269C146.642 275.164 147.328 276.164 147.851 277.254L142.299 280.373C141.97 279.701 141.567 279.075 141.119 278.507C140.672 277.94 140.149 277.433 139.552 277.015C138.955 276.597 138.284 276.269 137.537 276.03C136.791 275.791 135.94 275.672 135 275.672C133.522 275.672 132.254 275.955 131.194 276.537C130.134 277.119 129.254 277.881 128.567 278.821C127.881 279.761 127.373 280.866 127.03 282.104C126.687 283.343 126.522 284.642 126.522 285.97V286.194L126.507 286.209Z" fill="white"/>
  <path d="M167.388 270C169.717 270 171.806 270.418 173.657 271.254C175.508 272.09 177.075 273.239 178.373 274.687C179.672 276.134 180.642 277.836 181.329 279.806C182.015 281.776 182.344 283.866 182.344 286.119C182.344 288.373 182 290.478 181.329 292.433C180.657 294.388 179.672 296.09 178.373 297.552C177.075 299.015 175.508 300.149 173.657 300.985C171.806 301.821 169.717 302.224 167.388 302.224C165.06 302.224 162.941 301.806 161.105 300.985C159.269 300.164 157.687 299.015 156.403 297.552C155.12 296.09 154.135 294.388 153.448 292.433C152.761 290.478 152.433 288.373 152.433 286.119C152.433 283.866 152.776 281.776 153.448 279.806C154.12 277.836 155.105 276.134 156.403 274.687C157.702 273.239 159.254 272.09 161.105 271.254C162.955 270.418 165.045 270 167.388 270ZM167.388 296.493C168.761 296.493 169.97 296.239 171 295.716C172.03 295.194 172.926 294.478 173.642 293.567C174.358 292.657 174.896 291.567 175.254 290.313C175.612 289.06 175.806 287.687 175.806 286.209V286.03C175.806 284.552 175.627 283.194 175.254 281.925C174.881 280.657 174.344 279.582 173.642 278.657C172.941 277.731 172.045 277.015 171 276.507C169.955 276 168.747 275.731 167.388 275.731C166.03 275.731 164.806 275.985 163.761 276.507C162.717 277.03 161.836 277.746 161.12 278.657C160.403 279.567 159.881 280.672 159.508 281.925C159.135 283.179 158.955 284.552 158.955 286.03V286.209C158.955 287.701 159.135 289.06 159.508 290.313C159.881 291.567 160.403 292.657 161.12 293.567C161.836 294.478 162.702 295.209 163.761 295.716C164.821 296.224 166.015 296.493 167.388 296.493Z" fill="white"/>
  <path d="M236 296.507C236.925 296.507 237.776 296.373 238.567 296.104C239.358 295.836 240.045 295.433 240.627 294.88C241.209 294.328 241.657 293.642 242 292.806C242.343 291.97 242.507 290.985 242.507 289.851V270.403H248.731V290.776C248.731 292.522 248.418 294.104 247.776 295.522C247.134 296.94 246.269 298.134 245.134 299.134C244 300.134 242.657 300.895 241.104 301.433C239.552 301.97 237.836 302.239 236 302.239C234.164 302.239 232.448 301.97 230.895 301.433C229.343 300.895 227.985 300.134 226.851 299.134C225.716 298.149 224.836 296.94 224.194 295.522C223.552 294.104 223.239 292.522 223.239 290.776V270.403H229.507V289.836C229.507 290.97 229.672 291.955 230.015 292.791C230.358 293.627 230.806 294.328 231.388 294.866C231.97 295.403 232.642 295.821 233.448 296.089C234.254 296.358 235.104 296.492 236.015 296.492L236 296.507Z" fill="white"/>
  <path d="M192.731 301.791L183.88 270.433H190.985L197.045 294H197.268L203.194 270.433H210.209L201.358 301.791H192.746H192.731Z" fill="white"/>
  <path d="M254.955 270.448H261.298V284.03L272.492 270.448H280.298L269.418 282.91L281 301.806H273.627L265.343 287.746L261.298 292.269V301.806H254.955V270.448Z" fill="white"/>
  <path d="M210.194 298.254C210.194 297.716 210.298 297.209 210.507 296.731C210.716 296.254 211 295.836 211.373 295.492C211.746 295.149 212.164 294.851 212.657 294.642C213.149 294.433 213.657 294.328 214.194 294.328C214.731 294.328 215.239 294.433 215.731 294.642C216.224 294.851 216.642 295.134 217 295.492C217.358 295.851 217.657 296.269 217.865 296.731C218.074 297.194 218.179 297.716 218.179 298.254C218.179 298.791 218.074 299.328 217.865 299.806C217.657 300.284 217.373 300.716 217 301.075C216.627 301.433 216.209 301.716 215.731 301.925C215.254 302.134 214.746 302.239 214.194 302.239C213.642 302.239 213.134 302.134 212.657 301.925C212.179 301.716 211.746 301.433 211.373 301.075C211 300.716 210.716 300.284 210.507 299.806C210.298 299.328 210.194 298.806 210.194 298.254Z" fill="white"/>
</svg>
