<?xml version="1.0" encoding="utf-8"?>
<!-- Generator: Adobe Illustrator 28.0.0, SVG Export Plug-In . SVG Version: 6.00 Build 0)  -->
<svg version="1.2" baseProfile="tiny-ps" id="Calque_1"
	 xmlns="http://www.w3.org/2000/svg" xmlns:xlink="http://www.w3.org/1999/xlink" viewBox="0 0 128 128"
	 xml:space="preserve">
	 <title>The Node</title>
<g>
	<path fill="#E51A30" d="M64,51.42v-5.27L35.2,29.68c-5.88,9.2-9.44,21.23-9.44,34.4c0,13.16,3.51,25.12,9.39,34.32
		c0,0,13.42-7.68,13.42-7.68c-7.82-13.62-7.34-26.64-7.34-26.64c0-4.14,0.6-8.1,1.68-11.73L64,64V51.42z"/>
	<path fill="#E51A30" d="M92.85,29.59c0,0-13.42,7.68-13.42,7.68c7.82,13.62,7.34,26.64,7.34,26.64c0,4.14-0.6,8.1-1.68,11.73L64,64
		v11.57v6.28l28.8,16.46c5.88-9.2,9.44-21.23,9.44-34.4C102.24,50.75,98.72,38.79,92.85,29.59z"/>
</g>
</svg>
