<svg xmlns="http://www.w3.org/2000/svg" xmlns:xlink="http://www.w3.org/1999/xlink" version="1.2" viewBox="0 0 193 194.8" baseProfile="tiny-ps">
  <title>Teys</title>
  <g>
    <polygon points="48.8,95.6 56,95.6 56,114.9 62.4,114.9 62.4,95.6 69.7,95.6 69.7,93.2 48.8,93.2  " fill="#FFFFFF"/>
    <polygon points="81.2,105 90.8,105 90.8,102.6 81.2,102.6 81.2,95.6 91.7,95.6 91.7,93.2 74.8,93.2    74.8,114.9 91.9,114.9 91.9,112.5 81.2,112.5  " fill="#FFFFFF"/>
    <polygon points="109.6,103 104,93.2 96.7,93.2 104.4,106.5 104.4,114.9 110.8,114.9 110.8,105.9 117.8,93.2    115,93.2  " fill="#FFFFFF"/>
    <path d="M133.6,101.2l-2.3-0.6c-3.2-0.8-3.8-1.6-3.8-2.8c0-1.6,1.6-2.8,3.9-2.8c0.8,0,3.2,0,3.5,3.9l0.1,0.8   h5.8l-0.2-1c-0.6-3.7-4.1-5.9-9.2-5.9c-5.3,0-9.2,3-9.2,7.1c0,4.3,3.5,5.7,7,6.6l2.1,0.5c3.7,0.9,4.4,1.8,4.4,3c0,2-2.1,3-4.2,3   c-2.7,0-4.1-1.5-4.2-4.6v-0.9h-6l0.1,1c0.6,4.3,4.3,6.7,10.1,6.7c4.8,0,9.7-2.2,9.7-7.1C141.1,103.7,137.3,102.2,133.6,101.2z" fill="#FFFFFF"/>
  </g>
  <g>
    <path d="M96.7,38c-35.8,0-65,29.1-65,65s29.1,65,65,65s65-29.1,65-65S132.5,38,96.7,38z M69.7,95.6h-7.2   v19.3h-6.4V95.6h-7.2v-2.4h20.9v2.4H69.7z M91.9,114.8H74.8V93.2h16.9v2.4H81.2v7h9.6v2.4h-9.6v7.6h10.7   C91.9,112.6,91.9,114.8,91.9,114.8z M110.8,105.9v8.9h-6.4v-8.4l-7.6-13.2h7.3l5.5,9.7l5.4-9.7h2.9L110.8,105.9z M131.4,115.1   c-5.9,0-9.6-2.4-10.1-6.7l-0.1-1h6v0.8c0.2,3.1,1.6,4.6,4.2,4.6c2.1,0,4.2-0.9,4.2-3c0-1.2-0.7-2.1-4.4-3l-2.1-0.5   c-3.5-0.9-7-2.3-7-6.6c0-4,4-7.1,9.2-7.1c5.1,0,8.6,2.3,9.2,5.9l0.2,1h-5.8l-0.1-0.8c-0.3-3.9-2.7-3.9-3.5-3.9   c-2.3,0-3.9,1.1-3.9,2.8c0,1.2,0.6,2,3.8,2.8l2.3,0.6c3.7,0.9,7.5,2.5,7.5,6.8C141.1,112.9,136.2,115.1,131.4,115.1z" fill="#002855"/>
    <path d="M177.1,93.7c-7.3-11.5-7.8-35.3-12.2-44c-4.4-8.8-20.1-13.3-32.4-17.4   c-12.2-4.2-22.1-17.9-39.8-17.4c0,0-18.6,4.6-27.3,11.5c-8.8,6.9-20.8,7.4-29.5,14.7S21.4,62.7,21.4,73.7s-10.6,27-9.8,39   s4.4,17.6,15.5,28c11.2,10.4,13.9,31,30.2,39.3c14,7.1,24,3.2,41.7,2.7c17.9-0.5,21.1,5.4,39.5-5.1c20.3-11.5,18.9-30.7,29.5-39   C184.2,126,184.2,105.2,177.1,93.7z M96.7,171c-37.5,0-68-30.5-68-68s30.5-68,68-68s68,30.5,68,68S134.2,171,96.7,171z" fill="#002855"/>
  </g>
</svg>