<svg version="1.2" xmlns="http://www.w3.org/2000/svg" viewBox="-50 -50 740 740" baseProfile="tiny-ps"><title>Dext</title><path fill="#FF5A01" d="m477.7 332.6l34.3-119.4c0.9-2.8-2-5.5-5.7-5.5h-61.9l-14.7 93.9-14.8-93.9h-61.8c-3.8 0-6.6 2.7-5.8 5.5l34.4 119.4-36 132.1c-0.7 2.8 2.1 5.4 5.8 5.4h62.3l15.9-98.9 15.9 98.9h62.3c3.7 0 6.5-2.6 5.8-5.4l-36-132.1z"/><path fill="#FF5A01" fill-rule="evenodd" d="m91.8 165c46.4 0 73.6 19 73.6 56.3v193.4c0 32.7-23.8 55.4-73.6 55.4h-76.9c-3.2 0-5.9-2-5.9-4.5v-296.1c0-2.5 2.7-4.5 5.9-4.5zm5.6 53.3q0-10.6-11.8-10.6h-9.5v219.6h9.1c8 0 12.1-3.5 12.1-10.5 0 0 0-198.5 0.1-198.5z"/><path fill="#FF5A01" fill-rule="evenodd" d="m335.2 261v67.1c0 2.5-2.7 4.5-5.9 4.5h-77.6v91.4c0 7 3.8 10.5 11.1 10.5 6.3 0 9.5-3.1 9.5-9.2v-77.1h57c3.2 0 5.9 2 5.9 4.5v72.1c0 15-6.3 26.7-19 35.3-12.7 8.5-30.5 12.7-53.4 12.7-49.3 0-76.1-19.7-76.1-55.4v-149.2c0-42.6 25.2-62.9 75.7-62.9 50.6 0 73 18.6 72.8 55.7zm-83.5-8.2v47h20.2v-47c0-7-3.2-10.6-9.5-10.6q-10.4 0-10.7 10.6z"/><path fill="#FF5A01" d="m623.1 207.8l-28.3-0.1v-37.5c0-2.5-2.6-4.5-5.9-4.5h-48.8l-12.2 41.6q-0.1 0.4-0.1 0.9v214.6c0 15.1 6.2 26.8 18.9 35.3 12.1 8.1 28.9 12.3 50.2 12.7 0.6 0.1 26.2 0 26.2 0 3.3 0 5.9-1.9 5.9-4.4v-38.3h-22c-8.1 0-12.2-3.5-12.2-10.6v-167.2l34.2 0.1v-38.1c0-2.5-2.6-4.5-5.9-4.5z"/></svg>