<?xml version="1.0" encoding="utf-8"?>
<!-- Generator: Adobe Illustrator 28.1.0, SVG Export Plug-In . SVG Version: 6.00 Build 0)  -->
<svg version="1.2" baseProfile="tiny-ps" id="Layer_1" xmlns="http://www.w3.org/2000/svg" xmlns:xlink="http://www.w3.org/1999/xlink"
	 viewBox="0 0 300 300" xml:space="preserve">
<title>Randstad</title>
<g>
	<path fill="#2175D9" d="M119.5,218.1h24.6v-60.9c0-3.4-1.4-6.5-3.6-8.6L104,112.5c-2.2-2.2-5.3-3.6-8.7-3.6H33.5v24.3H101
		c10.2,0,18.4,8.1,18.4,18.2V218.1L119.5,218.1z"/>
	<path fill="#2175D9" d="M180.5,218.1h-24.6v-60.9c0-3.4,1.4-6.5,3.6-8.6l36.4-35.9c2.3-2.2,5.4-3.6,8.8-3.6h61.7v24.3H199
		c-10.2,0-18.4,8.1-18.4,18.2L180.5,218.1L180.5,218.1z"/>
</g>
</svg>