<?xml version="1.0" encoding="UTF-8"?>
<svg version="1.2" baseProfile="tiny-ps" id="Layer_1" xmlns="http://www.w3.org/2000/svg" xmlns:xlink="http://www.w3.org/1999/xlink" viewBox="0 0 200 200">
    <title>CAM4</title>
    <g>
        <g fill="#fff" transform="matrix(.1 0 0 -.1 0 200)">
            <path d="M0 1000V0h2000v2000H0V1000z" />
        </g>
        <g fill="#c5c5c5" transform="matrix(.1 0 0 -.1 0 200)">
            <path d="M175 1181c-74-34-105-88-105-181 0-25 5-61 10-81l10-35 27-27c16-14 45-33 65-41l37-16h192l37 15 37 16 3-11 4-10h157l6 20 6 20h141l5-20 5-20h258l1 103v102l14-45c7-25 21-71 30-102l16-58h117l28 103 29 102 3-102 3-103h139v60h270v-60h140v60h70v100h-70v220h-198l-106-107-106-108v215h-207l-24-90c-12-49-26-90-30-90-3 0-17 41-30 90l-23 90H931l-3-127-3-127-51 124-51 125H637l-45-112-46-113H398l-28-30-28-30h-63l-24 25-25 24v102l25 25 25 25 38-3 37-3 20-32 20-32 77-1h77l4 8c8 11-19 81-40 104-10 11-36 29-58 39l-40 19H215l-40-19zm1545-156v-55h-114l54 55c30 30 56 55 57 55 2 0 3-25 3-55zm-972-24c16-52 16-51-18-51-16 0-30 3-30 6 0 17 24 84 30 84 4 0 12-17 18-39z" />
        </g>
        <g fill="#8e8e8e" transform="matrix(.1 0 0 -.1 0 200)">
            <path d="m197 1188-38-10-33-32-34-31-11-40c-14-51-14-99 0-150l11-40 33-31 34-31 45-12 45-11h73l73 1 51 17 52 18-5-13-5-13h151l11 20 11 20h138l11-20 11-20h238l3 123 3 122 34-122 34-123h113l35 123 34 122 3-122 3-123h129v60h270v-60h140v60h70v90h-70v230h-195l-107-107-108-108v216l-102-3-103-3-25-92c-13-51-27-93-31-93-3 0-17 42-30 93l-24 92-102 3-102 3-3-131-3-131-52 128-51 128-90 3-89 3-48-116-47-115H394l-22-30-23-30h-78l-20 26-21 27v98l25 24 24 25h71l20-20c11-11 20-24 20-30v-10h163l-7 31c-3 17-15 43-26 59l-20 28-37 18-38 18-95 2-95 3-38-11zm1523-168v-60h-120v7c0 6 110 111 118 113 1 0 2-27 2-60zm-968-20 16-50h-76l16 50c9 28 19 50 22 50s13-22 22-50z" />
        </g>
        <g fill="#666" transform="matrix(.1 0 0 -.1 0 200)">
            <path d="M215 1191c-16-4-44-15-62-24l-31-17-23-36-23-37V923l23-37 23-37 42-22 41-22h220l32 18c39 21 44 21 37 2l-6-15h152l10 25 10 25h140l10-25 10-25h240l1 123 1 122 6-15c3-8 20-62 37-120l30-105h109l33 114c18 62 35 116 38 119s5-49 5-116V810h130v60h270v-60h140v60h70v90h-70v230h-195l-107-107-108-108v216l-102-3-102-3-25-97c-14-54-28-98-31-98-4 0-18 44-31 98l-25 97-102 3-101 3-3-133-3-133-54 133-53 132H644l-46-112-46-113-81-3-81-3v-9c0-6-9-19-20-30l-20-20h-36c-19 0-44 5-54 10l-19 10-11 40-11 39 7 28c4 15 16 38 27 51l20 22h88l17-30 17-30h155v16c0 9-10 33-21 54l-21 38-41 22-40 23-91 3-91 3-30-8zm1505-166v-65h-134l64 65c35 36 66 65 67 65 2 0 3-29 3-65zm-956-52 7-23h-80l15 43c8 23 17 49 20 57l6 15 13-35c7-19 15-45 19-57z" />
        </g>
        <g fill="#3d3d3d" transform="matrix(.1 0 0 -.1 0 200)">
            <path d="m201 1185-43-14-25-23c-14-13-31-35-39-50l-14-27V929l15-28c8-16 28-40 44-54l30-25 51-12 52-12 73 4 73 5 42 21 42 20-5-19-5-19h148l10 25 10 25h140l12-25 11-25h236l3 128 3 127 35-125 35-125h108l36 125 36 125 3-128 3-128 62 3 62 3 3 28 3 27h269v-61l68 3 67 3 3 28 3 27h59v90h-59l-3 113-3 112-96 3-97 3-103-112-104-111-5 109-5 108-97 3-97 3-15-53c-8-29-20-74-27-100-6-27-15-48-19-48s-13 21-19 48c-7 26-19 71-27 100l-15 52H930v-137l-1-138-57 138-56 137H645l-46-112-45-113-82-3-81-3-6-20-7-21-34-14-34-14-34 14-35 14-12 41-12 41 12 40 12 40 21 11c11 6 36 11 55 11h34l20-18c10-9 19-23 19-31v-13h160v10c0 6-6 25-14 43l-13 33-31 26-31 26-51 11c-28 6-77 11-108 10h-57l-44-14zm1519-160v-65h-134l64 65c35 36 66 65 67 65 2 0 3-29 3-65zm-971-6c7-23 15-47 18-55l5-14h-84l5 14c3 8 11 32 18 55s15 41 19 41 12-18 19-41z" />
        </g>
        <g fill="#010101" transform="matrix(.1 0 0 -.1 0 200)">
            <path d="m226 1189-50-8-25-19c-14-10-36-34-49-52l-22-33V923l23-33c12-18 33-42 47-52l25-18 65-11 65-10 60 6c50 6 90 18 138 43l7 4-6-16-6-16h141l11 20 11 20h147l5-20 5-20h242v123l1 122 8-15c5-8 21-64 37-123l29-108 55 3 55 3 35 125 35 125 3-127 3-128h119v50h280v-50h130v50h70v90h-70v220h-187l-103-105c-57-58-107-105-112-105h-8v211l-97-3-97-3-25-97c-14-54-28-98-31-98-4 0-12 24-20 53-7 28-19 73-27 100l-14 47H931l-3-131-3-131-53 131-54 131H642l-44-110-43-110H393l-11-25-12-25-27-11-26-10-28 6c-15 3-35 15-44 25l-17 18-5 41-6 41 13 30 13 31 28 14c15 8 37 15 47 15 24 0 72-37 72-56v-14h160v10c0 6-6 26-14 44l-14 33-35 27-35 27-58 9c-67 11-99 11-168-1zm1494-164v-65h-134l64 65c35 36 66 65 67 65 2 0 3-29 3-65zm-951-67 1-18h-80v9c0 8 22 75 36 111l6 15 18-50c10-27 19-58 19-67z" />
        </g>
    </g>
</svg>
