<?xml version="1.0" encoding="utf-8" standalone="yes"?><!-- Generator: Adobe Illustrator 26.3.1, SVG Export Plug-In . SVG Version: 6.00 Build 0)  --><svg xmlns="http://www.w3.org/2000/svg" xmlns:xlink="http://www.w3.org/1999/xlink" version="1.2" baseProfile="tiny-ps" viewBox="0 0 80 80" xml:space="preserve"><title>sloto1</title><radialGradient id="SVGID_1_" cx="40" cy="40" r="33.1489" gradientUnits="userSpaceOnUse"><stop offset="0" stop-color="#EE0481"></stop><stop offset="0.1646" stop-color="#E8047E"></stop><stop offset="0.3845" stop-color="#D70475"></stop><stop offset="0.6358" stop-color="#BB0466"></stop><stop offset="0.9085" stop-color="#950552"></stop><stop offset="1" stop-color="#86054A"></stop></radialGradient><path fill="url(#SVGID_1_)" d="M52.66,73.15H27.34c-11.32,0-20.49-9.17-20.49-20.49V27.34c0-11.32,9.17-20.49,20.49-20.49h25.32  c11.32,0,20.49,9.17,20.49,20.49v25.32C73.15,63.98,63.98,73.15,52.66,73.15z"></path><linearGradient id="SVGID_00000171696173844374778010000000812554141632898433_" gradientUnits="userSpaceOnUse" x1="40" y1="30.0748" x2="40" y2="51.2911"><stop offset="0" stop-color="#A9A9A9"></stop><stop offset="0.1812" stop-color="#CCCCCC"></stop><stop offset="0.3985" stop-color="#F1F1F1"></stop><stop offset="0.514" stop-color="#FFFFFF"></stop><stop offset="0.5879" stop-color="#F5F5F5"></stop><stop offset="0.7128" stop-color="#DBDBDB"></stop><stop offset="0.8722" stop-color="#B0B0B0"></stop><stop offset="1" stop-color="#898989"></stop></linearGradient><rect x="8.58" y="28.79" fill="url(#SVGID_00000171696173844374778010000000812554141632898433_)" stroke="#231F20" stroke-width="0.3878" width="62.84" height="22.43"></rect><linearGradient id="SVGID_00000029005352766888254510000001031517716439047358_" gradientUnits="userSpaceOnUse" x1="29.9807" y1="29.1009" x2="29.9807" y2="49.5666"><stop offset="0" stop-color="#231F20"></stop><stop offset="0.0473" stop-color="#433F40"></stop><stop offset="0.1397" stop-color="#7B797A"></stop><stop offset="0.2292" stop-color="#ABA9A9"></stop><stop offset="0.3135" stop-color="#CFCECF"></stop><stop offset="0.3914" stop-color="#E9E9E9"></stop><stop offset="0.4606" stop-color="#F9F9F9"></stop><stop offset="0.514" stop-color="#FFFFFF"></stop><stop offset="0.5687" stop-color="#FAFAFA"></stop><stop offset="0.6334" stop-color="#ECECEC"></stop><stop offset="0.7032" stop-color="#D5D4D4"></stop><stop offset="0.7765" stop-color="#B4B3B3"></stop><stop offset="0.8527" stop-color="#8A8888"></stop><stop offset="0.93" stop-color="#575455"></stop><stop offset="1" stop-color="#231F20"></stop></linearGradient><rect x="29.64" y="28.79" fill="url(#SVGID_00000029005352766888254510000001031517716439047358_)" width="0.68" height="22.43"></rect><linearGradient id="SVGID_00000137094065722011187350000010505999172852044692_" gradientUnits="userSpaceOnUse" x1="51.1966" y1="29.1009" x2="51.1966" y2="49.5666"><stop offset="0" stop-color="#231F20"></stop><stop offset="0.0473" stop-color="#433F40"></stop><stop offset="0.1397" stop-color="#7B797A"></stop><stop offset="0.2292" stop-color="#ABA9A9"></stop><stop offset="0.3135" stop-color="#CFCECF"></stop><stop offset="0.3914" stop-color="#E9E9E9"></stop><stop offset="0.4606" stop-color="#F9F9F9"></stop><stop offset="0.514" stop-color="#FFFFFF"></stop><stop offset="0.5687" stop-color="#FAFAFA"></stop><stop offset="0.6334" stop-color="#ECECEC"></stop><stop offset="0.7032" stop-color="#D5D4D4"></stop><stop offset="0.7765" stop-color="#B4B3B3"></stop><stop offset="0.8527" stop-color="#8A8888"></stop><stop offset="0.93" stop-color="#575455"></stop><stop offset="1" stop-color="#231F20"></stop></linearGradient><rect x="50.86" y="28.79" fill="url(#SVGID_00000137094065722011187350000010505999172852044692_)" width="0.68" height="22.43"></rect><radialGradient id="SVGID_00000071519307625018184400000008393093856868924834_" cx="61.7363" cy="40.7506" r="7.6404" gradientUnits="userSpaceOnUse"><stop offset="0" stop-color="#00BF07"></stop><stop offset="0.1957" stop-color="#01B90A"></stop><stop offset="0.4573" stop-color="#04A813"></stop><stop offset="0.7548" stop-color="#098C22"></stop><stop offset="1" stop-color="#0E7031"></stop></radialGradient><path fill="url(#SVGID_00000071519307625018184400000008393093856868924834_)" stroke="#231F20" stroke-width="0.8287" d="  M64.52,48.6h-0.23h-0.23h-6.39h-0.2h-0.2l0.01-0.23l0-0.23c0.06-2.93,0.31-5.93,2.57-7.46c0.32-0.22,0.64-0.43,0.96-0.65l0.16-0.11  L61,39.91c0.95-0.64,1.92-1.3,2.88-1.98l-0.2-0.39c-0.16,0.11-0.3,0.2-0.47,0.29c-0.5,0.25-0.98,0.38-1.43,0.38  c-0.12,0-0.24-0.01-0.35-0.03c-0.56-0.09-1.04-0.34-1.56-0.6c-0.33-0.17-0.67-0.34-1.03-0.47c-0.2-0.07-0.41-0.11-0.65-0.11  c-0.26,0-0.51,0.05-0.74,0.13c-0.19,0.07-0.55,0.25-0.74,0.59c-0.08,0.14-0.12,0.3-0.15,0.5l-0.02,0.2l-0.02,0.2l-0.17,0l-0.17,0  c-0.44,0-1.05,0-1.49-0.01l-0.19,0l-0.19,0v-0.22v-0.22l0-1.9l0-0.92l0-1.66v-0.22v-0.22h0.19h0.19h1.35h0.19h0.19v0.22v0.22v0.36  v0.39l0.29-0.2c0.13-0.09,0.26-0.19,0.4-0.29c0.21-0.16,0.4-0.3,0.6-0.42c0.66-0.41,1.42-0.63,2.19-0.63c0.31,0,0.63,0.04,0.94,0.11  c0.33,0.08,0.65,0.22,0.98,0.38c0.25,0.12,0.51,0.24,0.78,0.33c0.93,0.31,1.68,0.45,2.39,0.45c0.13,0,0.25,0,0.37-0.01  c0.67-0.05,1.19-0.37,1.7-0.71l0.15-0.1l0.15-0.1l0.1,0.16l0.1,0.16c0.36,0.56,0.97,1.51,1.36,2.12l0.12,0.19l0.12,0.19l-0.18,0.13  l-0.18,0.13c-0.09,0.06-0.17,0.13-0.26,0.19c-0.78,0.58-1.42,1.18-1.97,1.84c-1.56,1.86-2.42,4.02-2.49,6.26  c-0.03,1.07,0.33,3.35,0.34,3.45l0.04,0.27L64.52,48.6L64.52,48.6z"></path><radialGradient id="SVGID_00000015333472574576141250000012198411739316373435_" cx="41.2217" cy="40.7506" r="7.6404" gradientUnits="userSpaceOnUse"><stop offset="0" stop-color="#EE0481"></stop><stop offset="0.1646" stop-color="#E8047E"></stop><stop offset="0.3845" stop-color="#D70475"></stop><stop offset="0.6358" stop-color="#BB0466"></stop><stop offset="0.9085" stop-color="#950552"></stop><stop offset="1" stop-color="#86054A"></stop></radialGradient><path fill="url(#SVGID_00000015333472574576141250000012198411739316373435_)" stroke="#231F20" stroke-width="0.8287" d="  M44.01,48.6h-0.23h-0.23h-6.39h-0.2h-0.2l0.01-0.23l0-0.23c0.06-2.93,0.31-5.93,2.57-7.46c0.32-0.22,0.64-0.43,0.96-0.65l0.16-0.11  l0.02-0.02c0.95-0.64,1.92-1.3,2.88-1.98l-0.2-0.39c-0.16,0.11-0.3,0.2-0.47,0.29c-0.5,0.25-0.98,0.38-1.43,0.38  c-0.12,0-0.24-0.01-0.35-0.03c-0.56-0.09-1.04-0.34-1.56-0.6c-0.33-0.17-0.67-0.34-1.03-0.47C38.12,37.03,37.9,37,37.67,37  c-0.26,0-0.51,0.05-0.74,0.13c-0.19,0.07-0.55,0.25-0.74,0.59c-0.08,0.14-0.12,0.3-0.15,0.5l-0.02,0.2L36,38.61l-0.17,0l-0.17,0  c-0.44,0-1.05,0-1.49-0.01l-0.19,0l-0.19,0v-0.22v-0.22l0-1.9l0-0.92l0-1.66v-0.22v-0.22h0.19h0.19h1.35h0.19h0.19v0.22v0.22v0.36  v0.39l0.29-0.2c0.13-0.09,0.26-0.19,0.4-0.29c0.21-0.16,0.4-0.3,0.6-0.42c0.66-0.41,1.42-0.63,2.19-0.63c0.31,0,0.63,0.04,0.94,0.11  c0.33,0.08,0.65,0.22,0.98,0.38c0.25,0.12,0.51,0.24,0.78,0.33c0.93,0.31,1.68,0.45,2.39,0.45c0.13,0,0.25,0,0.37-0.01  c0.67-0.05,1.19-0.37,1.7-0.71l0.15-0.1l0.15-0.1l0.1,0.16l0.1,0.16c0.36,0.56,0.97,1.51,1.36,2.12l0.12,0.19l0.12,0.19l-0.18,0.13  l-0.18,0.13c-0.09,0.06-0.17,0.13-0.26,0.19c-0.78,0.58-1.42,1.18-1.97,1.84c-1.56,1.86-2.42,4.02-2.49,6.26  c-0.03,1.07,0.33,3.35,0.34,3.45l0.04,0.27L44.01,48.6L44.01,48.6z"></path><radialGradient id="SVGID_00000052818782764120135140000016370384322031985041_" cx="18.8895" cy="40.6925" r="7.6404" gradientUnits="userSpaceOnUse"><stop offset="0" stop-color="#7FC7FF"></stop><stop offset="0.1562" stop-color="#79C2FC"></stop><stop offset="0.3649" stop-color="#68B5F5"></stop><stop offset="0.6034" stop-color="#4CA0E8"></stop><stop offset="0.8621" stop-color="#2682D7"></stop><stop offset="1" stop-color="#0E70CC"></stop></radialGradient><path fill="url(#SVGID_00000052818782764120135140000016370384322031985041_)" stroke="#231F20" stroke-width="0.8287" d="  M21.68,48.54h-0.23h-0.23h-6.39h-0.2h-0.2l0.01-0.23l0-0.23c0.06-2.93,0.31-5.93,2.57-7.46c0.32-0.22,0.64-0.43,0.96-0.65l0.16-0.11  l0.02-0.02c0.95-0.64,1.92-1.3,2.88-1.98l-0.2-0.39c-0.16,0.11-0.3,0.2-0.47,0.29c-0.5,0.25-0.98,0.38-1.43,0.38  c-0.12,0-0.24-0.01-0.35-0.03c-0.56-0.09-1.04-0.34-1.56-0.6c-0.33-0.17-0.67-0.34-1.03-0.47c-0.2-0.07-0.41-0.11-0.65-0.11  c-0.26,0-0.51,0.05-0.74,0.13c-0.19,0.07-0.55,0.25-0.74,0.59c-0.08,0.14-0.12,0.3-0.15,0.5l-0.02,0.2l-0.02,0.2l-0.17,0l-0.17,0  c-0.44,0-1.05,0-1.49-0.01l-0.19,0l-0.19,0v-0.22V38.1l0-1.9l0-0.92l0-1.66V33.4v-0.22h0.19h0.19h1.35h0.19h0.19v0.22v0.22v0.36  v0.39l0.29-0.2c0.13-0.09,0.26-0.19,0.4-0.29c0.21-0.16,0.4-0.3,0.6-0.42c0.66-0.41,1.42-0.63,2.19-0.63c0.31,0,0.63,0.04,0.94,0.11  c0.33,0.08,0.65,0.22,0.98,0.38c0.25,0.12,0.51,0.24,0.78,0.33c0.93,0.31,1.68,0.45,2.39,0.45c0.13,0,0.25,0,0.37-0.01  c0.67-0.05,1.19-0.37,1.7-0.71l0.15-0.1l0.15-0.1l0.1,0.16l0.1,0.16c0.36,0.56,0.97,1.51,1.36,2.12l0.12,0.19l0.12,0.19l-0.18,0.13  l-0.18,0.13c-0.09,0.06-0.17,0.13-0.26,0.19c-0.78,0.58-1.42,1.18-1.97,1.84c-1.56,1.86-2.42,4.02-2.49,6.26  c-0.03,1.07,0.33,3.35,0.34,3.45l0.04,0.27L21.68,48.54L21.68,48.54z"></path><path fill="#FFF006" d="M53.05,57.16c0.34,0,0.64-0.14,0.9-0.41c0.26-0.27,0.39-0.59,0.39-0.95c0-0.31-0.09-0.56-0.28-0.75  c-0.19-0.19-0.43-0.29-0.73-0.29c-0.37,0-0.68,0.13-0.93,0.39c-0.25,0.26-0.37,0.57-0.37,0.95c0,0.3,0.1,0.55,0.29,0.75  C52.53,57.06,52.77,57.16,53.05,57.16z"></path><radialGradient id="SVGID_00000038379467423600234850000001514744219813441928_" cx="38.8517" cy="61.8987" r="16.8413" gradientUnits="userSpaceOnUse"><stop offset="0" stop-color="#FFF297"></stop><stop offset="0.1936" stop-color="#FFF262"></stop><stop offset="0.3739" stop-color="#FFF238"></stop><stop offset="0.5363" stop-color="#FFF21A"></stop><stop offset="0.6751" stop-color="#FFF208"></stop><stop offset="0.7737" stop-color="#FFF201"></stop><stop offset="0.8339" stop-color="#FFF225"></stop><stop offset="0.9047" stop-color="#FFF248"></stop><stop offset="0.9627" stop-color="#FFF25E"></stop><stop offset="1" stop-color="#FFF266"></stop></radialGradient><path fill="url(#SVGID_00000038379467423600234850000001514744219813441928_)" d="M62.28,62.04c-1.28,1.06-2.03,1.58-2.24,1.58  c-0.1,0-0.15-0.06-0.15-0.18c0-0.18,0.4-1.14,1.21-2.89h-1.82c-0.53,1.07-1.07,1.91-1.63,2.51c-0.56,0.6-1.08,0.9-1.55,0.9  c-0.44,0-0.66-0.36-0.66-1.07c0-0.59,0.2-1.13,0.6-1.65c0.4-0.51,0.95-0.92,1.65-1.22c0.7-0.3,1.44-0.44,2.24-0.44  c0.5,0,0.94,0.04,1.32,0.11v-1.53c-0.39-0.04-0.81-0.06-1.25-0.06c-0.92,0-1.78,0.12-2.57,0.36c-0.8,0.24-1.49,0.58-2.08,1.02  c-0.59,0.44-1.05,0.96-1.37,1.55c-0.19,0.35-0.32,0.73-0.4,1.11v-0.17l-0.35,0.29l-1.57,1.09l-0.29,0.13  c-0.04,0.03-0.09,0.04-0.15,0.04c-0.06,0-0.1-0.03-0.1-0.09v-0.06l0.04-0.11l0.06-0.2l2.09-4.8l-2.08,0.06l-0.4,0.98  c-0.31,0.39-0.61,0.75-0.92,1.08c-0.1,0.09-0.2,0.18-0.32,0.29c-0.11,0.11-0.2,0.19-0.28,0.26c-0.19,0.19-0.58,0.53-1.16,1.03  c-0.18,0.13-0.39,0.3-0.63,0.5c-0.76,0.66-1.34,0.98-1.73,0.98c-0.1,0-0.15-0.04-0.15-0.13c0-0.02,0.02-0.09,0.06-0.21  c0.01-0.03,0.03-0.06,0.04-0.09c0.01-0.03,0.02-0.06,0.03-0.07c0.01-0.01,0.02-0.03,0.02-0.04l1.42-3.2l0.04-0.09  c0.19-0.43,0.29-0.71,0.29-0.86c0-0.19-0.09-0.34-0.27-0.48c-0.18-0.13-0.4-0.2-0.65-0.2c-0.47,0-1.03,0.24-1.69,0.72l-3.35,2.48  l1.38-3.01l-1.87,0.09l-0.57,1.15l-0.46,0.55l-0.48,0.52c-0.33,0.33-0.85,0.79-1.56,1.38l-0.09,0.06c-1.28,1.06-2.03,1.58-2.24,1.58  c-0.1,0-0.15-0.06-0.15-0.18c0-0.18,0.4-1.14,1.21-2.89h-1.82c-0.53,1.07-1.07,1.91-1.63,2.51c-0.56,0.6-1.08,0.9-1.55,0.9  c-0.44,0-0.66-0.36-0.66-1.07c0-0.59,0.2-1.13,0.6-1.65c0.4-0.51,0.95-0.92,1.65-1.22c0.7-0.3,1.44-0.44,2.24-0.44  c0.5,0,0.94,0.04,1.32,0.11v-1.53c-0.39-0.04-0.81-0.06-1.25-0.06c-0.92,0-1.78,0.12-2.57,0.36c-0.8,0.24-1.49,0.58-2.08,1.02  c-0.59,0.44-1.05,0.96-1.37,1.55c-0.19,0.35-0.32,0.73-0.4,1.11v-0.17c-0.74,0.52-1.47,0.98-2.17,1.38  c-0.12,0.07-0.23,0.11-0.33,0.11c-0.07,0-0.11-0.04-0.11-0.13s0.05-0.21,0.14-0.38c0-0.01,0.01-0.03,0.02-0.04l1.59-3.39  c0.15-0.34,0.22-0.59,0.22-0.75c0-0.21-0.09-0.38-0.27-0.51c-0.18-0.12-0.41-0.19-0.71-0.19c-0.24,0-0.46,0.05-0.66,0.14  c-0.2,0.1-0.47,0.29-0.83,0.59l-2.85,2.34c0.05-0.11,0.13-0.28,0.25-0.52c0.42-0.91,0.63-1.53,0.63-1.84c0-0.21-0.09-0.37-0.26-0.49  c-0.16-0.12-0.39-0.18-0.66-0.18c-0.36,0-0.65,0.08-0.88,0.24c-0.23,0.16-0.47,0.35-0.73,0.57l-2.63,2.24l1.19-2.85l-1.78,0.06  l-0.55,1.15l-0.9,0.96l-0.55,0.52l-0.58,0.5l-0.52,0.46v1.76l0.18-0.11c0.34-0.26,0.56-0.42,0.65-0.5l-0.04,0.09  c-0.04,0.07-0.07,0.15-0.11,0.24c-0.32,0.66-0.48,1.18-0.48,1.58c0,0.2,0.06,0.36,0.17,0.49c0.12,0.13,0.27,0.19,0.46,0.19  c0.26,0,0.62-0.23,1.07-0.68c0.04-0.03,0.07-0.06,0.11-0.11c0.04-0.04,0.08-0.08,0.12-0.12l4.04-3.87l-1.3,2.95  c-0.09,0.24-0.16,0.4-0.2,0.46c-0.01,0.04-0.04,0.1-0.06,0.18c-0.02,0.09-0.04,0.14-0.04,0.15c-0.03,0.21-0.04,0.35-0.04,0.44  c0,0.18,0.06,0.32,0.18,0.43c0.12,0.11,0.27,0.17,0.47,0.17c0.21,0,0.54-0.21,0.96-0.64c0.02-0.03,0.09-0.1,0.19-0.2l4.17-3.94  l-1.21,2.74l-0.06,0.15c-0.15,0.36-0.22,0.64-0.22,0.86c0,0.29,0.1,0.53,0.29,0.73c0.2,0.21,0.44,0.31,0.72,0.31  c0.51,0,1.1-0.18,1.78-0.54c0.57-0.33,1.27-0.81,2.12-1.43c0.05,0.25,0.12,0.48,0.22,0.7c0.19,0.41,0.47,0.73,0.83,0.94  s0.79,0.32,1.28,0.32c0.47,0,0.86-0.08,1.18-0.25s0.62-0.44,0.93-0.83c0.06,0.72,0.36,1.08,0.9,1.08c0.41,0,0.83-0.11,1.26-0.34  c0.44-0.23,1.01-0.64,1.71-1.23c0.07-0.05,0.14-0.1,0.19-0.15c0.06-0.05,0.12-0.1,0.18-0.16l0.11-0.09l0.79-0.66  c-0.02,0.06-0.05,0.15-0.1,0.26c-0.04,0.1-0.07,0.19-0.1,0.28c-0.26,0.63-0.4,1.1-0.4,1.42c0,0.2,0.06,0.36,0.17,0.49  c0.11,0.13,0.26,0.19,0.45,0.19c0.26,0,0.58-0.18,0.96-0.54c0.09-0.1,0.17-0.16,0.22-0.19l4.71-3.99l-1.24,2.8  c-0.15,0.34-0.23,0.66-0.23,0.98c0,0.27,0.09,0.49,0.28,0.67c0.19,0.18,0.42,0.26,0.72,0.26c0.46,0,0.92-0.11,1.4-0.34  c0.47-0.21,1.09-0.61,1.86-1.18c0.16-0.12,0.36-0.28,0.61-0.46l0.18-0.13c0.04-0.04,0.12-0.1,0.25-0.19s0.23-0.17,0.32-0.22  c0.02-0.01,0.05-0.04,0.08-0.06c0.03-0.03,0.05-0.05,0.05-0.05c-0.28,0.8-0.42,1.38-0.42,1.73c0,0.27,0.09,0.49,0.28,0.66  c0.19,0.17,0.44,0.25,0.76,0.25c0.54,0,1.16-0.19,1.86-0.58c0.51-0.25,1.19-0.71,2.04-1.39c0.05,0.25,0.12,0.48,0.22,0.69  c0.19,0.41,0.47,0.73,0.83,0.94c0.36,0.21,0.79,0.32,1.28,0.32c0.47,0,0.86-0.08,1.18-0.25s0.62-0.44,0.93-0.83  c0.06,0.72,0.36,1.08,0.9,1.08c0.41,0,0.83-0.11,1.26-0.34c0.44-0.23,1.01-0.64,1.71-1.23c0.07-0.05,0.14-0.1,0.19-0.15  c0.06-0.05,0.12-0.1,0.18-0.16l0.11-0.09v-1.76L62.28,62.04z"></path><radialGradient id="SVGID_00000183225893075908176490000009677115645789253767_" cx="40" cy="18.0963" r="14.1573" gradientUnits="userSpaceOnUse"><stop offset="0" stop-color="#FFF297"></stop><stop offset="0.0505" stop-color="#FFF28B"></stop><stop offset="0.2802" stop-color="#FFF25A"></stop><stop offset="0.4974" stop-color="#FFF233"></stop><stop offset="0.6961" stop-color="#FFF217"></stop><stop offset="0.87" stop-color="#FFF206"></stop><stop offset="1" stop-color="#FFF200"></stop></radialGradient><path fill="url(#SVGID_00000183225893075908176490000009677115645789253767_)" d="M57.35,22.49h-0.06l-0.31-0.06  c0.09-0.33,0.13-0.61,0.13-0.83c0-0.16-0.04-0.37-0.13-0.61c0.34-0.45,0.5-0.83,0.5-1.16c0-0.56-0.24-1.03-0.71-1.42  c-0.48-0.4-1.05-0.6-1.72-0.6c-0.78,0-1.52,0.23-2.2,0.7c-0.68,0.46-1.23,1.08-1.64,1.86c-0.26,0.5-0.43,1.02-0.52,1.57v-0.03  l-0.06,0.04c-0.01,0.01-0.09,0.07-0.24,0.2c-1.4,1.09-2.27,1.64-2.61,1.64c-0.14,0-0.2-0.07-0.2-0.21c0-0.38,0.86-2.53,2.59-6.43  h1.6l0.32-1.48h-1.4c0.03-0.06,0.07-0.15,0.13-0.29c0.06-0.13,0.11-0.22,0.14-0.28c0.61-1.23,0.92-2.19,0.92-2.86  c0-0.21-0.06-0.39-0.18-0.52c-0.12-0.14-0.26-0.2-0.43-0.2c-0.47,0-0.89,0.33-1.27,1c-0.37,0.66-0.74,1.71-1.1,3.16h-1.68  l-0.49,1.48h1.6l-0.81,2.03c-0.58,0.66-1.09,1.19-1.52,1.6c-0.41,0.38-1.29,1.14-1.29,1.14c-0.4,0.27-0.72,0.42-0.95,0.42h-0.06  l-0.31-0.06c0.09-0.33,0.13-0.61,0.13-0.83c0-0.16-0.04-0.37-0.13-0.61c0.34-0.45,0.5-0.83,0.5-1.16c0-0.56-0.24-1.03-0.71-1.42  c-0.48-0.4-1.05-0.6-1.72-0.6c-0.78,0-1.52,0.23-2.2,0.7c-0.68,0.46-1.23,1.08-1.64,1.86c-0.26,0.5-0.43,1.03-0.52,1.58v-0.04  l-0.35,0.33c-1.14,1.06-1.84,1.59-2.11,1.59c-0.07,0-0.13-0.02-0.17-0.07c-0.05-0.06-0.07-0.12-0.07-0.18c0-0.09,0.03-0.22,0.09-0.4  l1.57-4.74l1.5-3.29c0.19-0.44,0.37-1.01,0.52-1.73c0.15-0.72,0.23-1.34,0.23-1.86c0-0.56-0.21-0.85-0.64-0.85  c-0.3,0-0.55,0.13-0.76,0.4c-0.21,0.27-0.42,0.74-0.64,1.42l-2.44,7.36c-0.21,0.26-0.48,0.56-0.79,0.88  c-0.08,0.08-0.19,0.17-0.28,0.26c-0.07-0.54-0.3-1.01-0.68-1.4c-0.48-0.49-1.3-0.97-2.45-1.42c-0.9-0.37-1.54-0.72-1.92-1.05  c-0.38-0.34-0.57-0.71-0.57-1.12c0-0.57,0.25-1.13,0.77-1.67s1.2-0.99,2.06-1.35c0.67-0.29,1.31-0.44,1.93-0.46h0.04  c0.36,0,0.55,0.12,0.55,0.36c0,0.36-0.31,0.73-0.92,1.11c-0.61,0.38-1.32,0.64-2.12,0.79l-0.33,1.93c0.59-0.09,1.05-0.17,1.37-0.26  s0.67-0.22,1.06-0.41c0.75-0.35,1.39-0.8,1.94-1.34c0.59-0.61,0.89-1.29,0.89-2.03c0-0.61-0.21-1.08-0.62-1.41  c-0.41-0.33-0.99-0.5-1.72-0.5c-0.86,0-1.7,0.15-2.52,0.45c-0.82,0.3-1.56,0.71-2.21,1.24c-0.66,0.52-1.17,1.11-1.55,1.77  c-0.37,0.66-0.56,1.33-0.56,2.02c0,0.51,0.12,0.97,0.35,1.39c0.24,0.42,0.6,0.81,1.09,1.17c0.49,0.36,1.14,0.71,1.94,1.05  c0.75,0.31,1.29,0.6,1.61,0.87c0.32,0.27,0.49,0.58,0.49,0.9c0,0.41-0.2,0.76-0.6,1.06s-0.98,0.53-1.74,0.68  c-0.76,0.15-1.67,0.23-2.72,0.23c-1.34,0-2.01-0.21-2.01-0.64c0-0.23,0.19-0.41,0.57-0.55c0.38-0.14,0.88-0.21,1.51-0.21h0.22  l1.25,0.04h0.04l0.42-1.82c-0.56-0.1-1.07-0.15-1.52-0.15c-0.92,0-1.73,0.12-2.42,0.36c-0.69,0.24-1.23,0.58-1.61,1.01  c-0.38,0.44-0.57,0.93-0.57,1.5c0,0.53,0.16,0.98,0.49,1.34c0.33,0.37,0.82,0.65,1.48,0.83c0.66,0.19,1.46,0.28,2.39,0.28  c1.03,0,1.98-0.1,2.84-0.3c0.86-0.2,1.6-0.49,2.21-0.86c0.51-0.31,0.9-0.68,1.21-1.09c0.2-0.15,0.41-0.32,0.67-0.52l-0.05,0.18  c-0.01,0.03-0.04,0.09-0.06,0.17c-0.2,0.65-0.3,1.16-0.3,1.53c0,0.59,0.42,0.89,1.27,0.89c0.45,0,0.87-0.1,1.26-0.31  c0.39-0.2,0.91-0.59,1.57-1.15c0.11-0.09,0.2-0.16,0.27-0.22c0.07-0.06,0.13-0.11,0.15-0.12c0.03-0.02,0.1-0.08,0.22-0.17  c0.1,0.49,0.29,0.91,0.59,1.24c0.45,0.49,1.08,0.74,1.89,0.74c0.6,0,1.18-0.15,1.75-0.45c0.3-0.16,0.54-0.32,0.72-0.48  c0.18-0.16,0.41-0.42,0.68-0.77c0.39,0.09,0.68,0.13,0.9,0.13c0.37,0,0.73-0.12,1.08-0.3l0.14-0.07c0.03-0.02,0.1-0.08,0.1-0.08  l0.04-0.03c0.34-0.26,0.71-0.52,1.13-0.78c-0.03,0.09-0.09,0.25-0.19,0.48c-0.34,0.71-0.5,1.27-0.5,1.66c0,0.56,0.34,0.85,1.02,0.85  c0.5,0,1.01-0.11,1.52-0.33c0.52-0.22,1.19-0.62,2.03-1.19c0.12-0.09,0.24-0.16,0.35-0.24c0.11-0.07,0.22-0.14,0.34-0.22  c0.1,0.49,0.29,0.91,0.59,1.24c0.45,0.49,1.08,0.74,1.89,0.74c0.6,0,1.18-0.15,1.75-0.45c0.3-0.16,0.54-0.32,0.72-0.48  c0.18-0.16,0.41-0.42,0.68-0.77c0.39,0.09,0.69,0.13,0.9,0.13c0.46,0,0.9-0.14,1.33-0.42v-1.76C58.02,22.3,57.62,22.49,57.35,22.49z   M42,20.15l-0.05,0.28c-0.66,0.46-0.98,1.01-0.98,1.63c0,0.28,0.11,0.59,0.33,0.94c-0.2,0.15-0.32,0.24-0.37,0.28  c-0.38,0.31-0.72,0.46-1.02,0.46c-0.27,0-0.48-0.11-0.64-0.34c-0.16-0.22-0.23-0.53-0.23-0.93c0-0.5,0.1-0.98,0.31-1.44  c0.21-0.46,0.49-0.83,0.83-1.12c0.34-0.29,0.7-0.43,1.07-0.43c0.2,0,0.38,0.06,0.53,0.19C41.92,19.8,42,19.94,42,20.1V20.15z   M55.59,20.31l-0.05,0.28c-0.66,0.46-0.98,1.01-0.98,1.63c0,0.28,0.11,0.59,0.33,0.94c-0.2,0.15-0.32,0.24-0.37,0.28  c-0.38,0.31-0.72,0.46-1.02,0.46c-0.27,0-0.48-0.11-0.64-0.34c-0.16-0.22-0.23-0.53-0.23-0.93c0-0.5,0.1-0.98,0.31-1.44  c0.21-0.46,0.49-0.83,0.83-1.12s0.7-0.43,1.07-0.43c0.2,0,0.38,0.06,0.53,0.19c0.16,0.12,0.23,0.26,0.23,0.42V20.31z"></path></svg>