<?xml version="1.0" encoding="utf-8"?>
<!-- Generator: Adobe Illustrator 27.2.0, SVG Export Plug-In . SVG Version: 6.00 Build 0)  -->
<svg version="1.2" baseProfile="tiny-ps" id="Layer_1" xmlns="http://www.w3.org/2000/svg" xmlns:xlink="http://www.w3.org/1999/xlink"
	 viewBox="0 0 100 100" xml:space="preserve">
<title>Warby Parker</title>
<rect x="-0.1" y="0" fill="#009CDB" width="100.2" height="99.9"/>
<g>
	<path fill="#FFFFFF" d="M56.8,33.2h-1.6c-0.4-0.1-1.7,0.5-1.7,1L44.8,57l-8.4-23c-0.1-0.7-1.3-1-1.4-0.9h-0.1
		c-0.4-0.1-1.4,0.6-1.4,0.9l-8.2,23c-2-5.2-6.4-16.3-8.9-22.6c-0.1-0.5-0.8-1.3-1.6-1.2h-2.1c-0.1,0-0.3,0-0.8,0.2
		c-0.4,0.2-0.6,0.8-0.6,1.1c0,0.4,0.1,0.5,0.2,0.8l12.3,31.1c0.5,0.7,1.2,0.9,1.4,0.9h0.1c0,0,1.1,0.1,1.4-1
		C29,59.7,33,49.1,34.9,44c1.9,5.1,5.8,15.9,8.1,22.2c0.2,0.7,1.4,1,1.5,1c0.1,0,1.3-0.2,1.4-0.9c4.1-10.3,9.1-22.8,12.3-31
		c0.1-0.3,0.1-0.4,0.2-0.8C58.3,33.3,56.9,33.2,56.8,33.2z"/>
	<path fill="#FFFFFF" d="M76.8,33.5c-4.5,0-12.4,0-12.4,0h-0.1c-0.2,0-0.6,0-1,0.4c-0.3,0.4-0.4,0.8-0.4,1.1v30.3
		c0.1,0.2-0.1,0.5,0.4,1c0.4,0.5,0.8,0.5,1,0.5h2.1c0,0,0,0,0,0c0.2,0,0.8,0,1.1-0.6c0.3-0.5,0.2-0.7,0.2-0.9V54.7h8.1
		c7.4,0,12.8-4.1,12.8-10.6C88.7,37.5,83.1,33.5,76.8,33.5z M76.8,50.3c-2.7,0-6.9,0-8.9,0V37.9h8.8c4,0.1,7.1,2.3,7.1,6.2
		C83.8,48.2,80.7,50.2,76.8,50.3z"/>
</g>
</svg>
