<?xml version="1.0" encoding="utf-8"?>
<!-- Generator: Adobe Illustrator 27.8.0, SVG Export Plug-In . SVG Version: 6.00 Build 0)  -->
<svg version="1.2" baseProfile="tiny-ps" id="Layer_1" xmlns="http://www.w3.org/2000/svg" xmlns:xlink="http://www.w3.org/1999/xlink"
	 viewBox="0 0 566.93 566.93" xml:space="preserve">
<title>Marks and Spencer</title>
<rect x="0.5" y="0.51" width="566.28" height="565.28"/>
<path fill="#FFFFFF" d="M204.38,192.29v181.16h-16.61V225.52l-59.69,115.75h-11.68l-59.7-115.5v147.68H40.08V192.29h17.39
	l64.89,125.1l64.89-125.1H204.38z M380.61,376.05l-30.1-32.19c-10.9,17.14-25.7,29.59-50.09,29.59c-31.41,0-54.51-21.8-54.51-48.54
	c0-22.32,13.75-36.08,40.23-51.13c-15.05-15.05-23.36-27.51-23.36-42.3c0-21.54,18.16-38.67,40.22-38.67
	c23.36,0,40.75,17.13,40.75,38.67c0,20.76-16.35,34.77-32.7,45.43l37.38,40.74l22.05-35.82l13.24,8.3l-24.39,39.72l33.49,35.55
	L380.61,376.05z M296.51,285.21c-23.61,12.98-33.99,23.36-33.99,39.45c0,18.43,16.61,33.75,37.89,33.75
	c19.22,0,29.07-8.84,39.7-25.96L296.51,285.21z M279.13,231.48c0,10.11,6.75,18.69,21.54,34.52c17.38-10.13,27-20.77,27-34.52
	c0-13.5-9.09-24.14-24.67-24.14C288.48,207.34,279.13,218.77,279.13,231.48 M533.23,230.96l-15.06,5.45
	c-5.97-18.95-22.84-31.14-45.68-31.14c-24.91,0-41.27,12.45-41.27,33.48c0,45.16,103.3,21.28,103.3,84.87
	c0,30.37-24.41,51.65-60.74,51.65c-33.74,0-53.99-16.09-68-41.79l14.01-8.57c9.34,19.73,26.47,35.04,52.43,35.04
	c30.1,0,45.68-13.76,45.68-36.59c0-45.43-103.29-23.1-103.29-84.88c0-36.6,32.96-48.53,57.36-48.53
	C499.49,189.95,524.4,202.41,533.23,230.96"/>
</svg>
