<?xml version="1.0" encoding="utf-8"?>
<!-- Generator: Adobe Illustrator 27.4.1, SVG Export Plug-In . SVG Version: 6.00 Build 0)  -->
<svg version="1.2" baseProfile="tiny-ps" id="Warstwa_1"
	 xmlns="http://www.w3.org/2000/svg" xmlns:xlink="http://www.w3.org/1999/xlink" viewBox="0 0 90.71 90.71"
	  xml:space="preserve">
<title>inFakt</title>
<rect fill="none" width="90.71" height="90.71"/>
<rect fill="#FFFFFF" width="90.71" height="90.71"/>
<g>
	<path fill="#1E88E5" d="M43.97,31.03L19.67,19.7l-0.94,2.02c-2.33,4.99-0.67,8.79,4.96,11.42l-0.74,1.58
		c-1.98,4.24-0.55,7.48,3.87,9.55l-0.61,1.3c-1.63,3.49-0.51,6.33,3.35,8.13l2.47,0.94c-2.54,7.64-7.4,15.65-14.07,23.89
		c0,0,4.04,2.01,8.51-0.54c3.8-2.16,25.76-23.67,25.64-38.09c0-0.03-0.01-0.05-0.02-0.08C51.78,36.15,49.36,33.54,43.97,31.03z"/>
	<circle fill="#1E88E5" cx="60.14" cy="24.31" r="12.87"/>
</g>
</svg>
