<?xml version="1.0" encoding="UTF-8" standalone="yes"?>
<svg version="1.2" baseProfile="tiny-ps" viewBox="0 0 243.2 243.2" xml:space="preserve" xmlns="http://www.w3.org/2000/svg">
  <title>City of Ann Arbor</title>
  <path fill="#FFFFFF" stroke="#000000" stroke-width="2" stroke-miterlimit="3.86" d="M1,121.6C1,55,55,1,121.6,1&#xA;&#x9;s120.6,54,120.6,120.6s-54,120.6-120.6,120.6S1,188.2,1,121.6L1,121.6z"/>
  <path fill="#FFFFFF" stroke="#000000" stroke-width="0.8" stroke-miterlimit="3.86" d="M31.7,121.5c0-50.7,40.5-91.7,90.6-91.7&#xA;&#x9;s90.5,41.1,90.5,91.7s-40.5,91.7-90.6,91.7S31.7,172.2,31.7,121.5L31.7,121.5z"/>
  <path d="M94.4,43.3l-0.6,0.2l-1.6-4.8l3.3-1.1l0.2,0.6L93,39.1l0.5,1.5l2.3-0.8l0.2,0.6l-2.3,0.8L94.4,43.3L94.4,43.3z"/>
  <path d="M100.4,41.6c-1.8,0.5-2.8-0.8-3.1-1.9c-0.3-1-0.2-2.7,1.6-3.2c1.8-0.5,2.8,0.8,3.1,1.9C102.3,39.4,102.2,41,100.4,41.6z&#xA;&#x9; M99.1,37.1c-1.1,0.3-1.4,1.3-1.1,2.5s1.2,1.8,2.2,1.5s1.4-1.3,1.1-2.5C101,37.4,100.2,36.8,99.1,37.1z"/>
  <path d="M106.6,34.8l0.6,3.2c0.2,1-0.3,2-1.7,2.2c-1.3,0.2-2.1-0.5-2.2-1.4l-0.6-3.3l0.7-0.1l0.6,3.1c0.2,1.1,0.9,1.3,1.5,1.2&#xA;&#x9;s1.2-0.5,1.1-1.6L106,35L106.6,34.8L106.6,34.8z"/>
  <path d="M111.8,34l0.7-0.1l0.7,5l-0.8,0.1l-3.1-3.7l0,0l0.6,4l-0.7,0.1l-0.7-5l0.8-0.1l3.1,3.7l0,0L111.8,34L111.8,34z"/>
  <path d="M114.3,33.7l2-0.1c1.3-0.1,2.2,0.8,2.3,2.3c0.1,1.1-0.3,2.6-2,2.7l-2,0.1L114.3,33.7L114.3,33.7z M115.3,38.1l1.3-0.1&#xA;&#x9;c0.9-0.1,1.4-0.8,1.3-2.1s-0.7-1.9-1.6-1.8l-1.3,0.1L115.3,38.1L115.3,38.1z"/>
  <path d="M124,38.4l-3.7,0.1l-0.1-5l3.7-0.1V34h-3v1.5h2.8v0.6H121v1.7h3L124,38.4L124,38.4z"/>
  <path d="M125.5,33.4l2,0.1c1.3,0.1,2,1.1,1.9,2.6c-0.1,1.1-0.7,2.5-2.3,2.4l-2-0.1C125.2,38.4,125.5,33.4,125.5,33.4z M125.9,37.9&#xA;&#x9;l1.3,0.1c0.9,0.1,1.5-0.6,1.6-1.8s-0.4-1.9-1.4-2l-1.3-0.1C126.2,34,125.9,37.9,125.9,37.9z"/>
  <path d="M136.2,39.6l-0.6-0.1l0.6-3.4l-1.1-0.2l0.1-0.5c0.8,0.1,1.1,0.1,1.5-0.7l0.5,0.1L136.2,39.6L136.2,39.6z"/>
  <path d="M141.4,38c0.6,0.4,0.6,1,0.5,1.3c-0.2,0.8-0.8,1.4-2,1.1c-0.3-0.1-0.8-0.2-1.1-0.6c-0.4-0.5-0.3-1-0.2-1.2&#xA;&#x9;c0.1-0.6,0.5-0.9,1.1-1c-0.4-0.2-0.5-0.6-0.4-1.1s0.6-1.2,1.8-1c1.1,0.2,1.3,1,1.2,1.6C142.1,37.9,141.6,38,141.4,38L141.4,38z&#xA;&#x9; M139.3,38.8c-0.1,0.4,0,1,0.8,1.2c0.4,0.1,1,0.1,1.2-0.7c0.1-0.7-0.2-1-0.8-1.2C139.8,38,139.4,38.3,139.3,38.8L139.3,38.8z&#xA;&#x9; M141.6,37c0.1-0.3,0-0.8-0.7-0.9c-0.6-0.2-0.9,0.3-1,0.6c-0.1,0.5,0.2,0.8,0.7,0.9S141.5,37.5,141.6,37L141.6,37z"/>
  <path d="M143.6,38c0.4-1.5,1.6-1.4,2.1-1.2c0.8,0.2,1.3,1,1.1,1.8s-0.9,1-1.7,1.2l-0.6,0.1c-0.8,0.2-1,0.5-1.1,0.7l2.6,0.7l-0.2,0.6&#xA;&#x9;l-3.2-0.9c0.3-1,0.9-1.4,1.6-1.6l0.7-0.2c0.6-0.1,1-0.2,1.2-0.8c0.1-0.4,0-0.9-0.7-1.1c-0.9-0.3-1.2,0.6-1.3,0.9L143.6,38L143.6,38z&#xA;&#x9;"/>
  <path d="M149.8,42l-0.4,1.1l-0.6-0.2l0.4-1.1l-2-0.7l0.2-0.6l3.1-2.2l0.5,0.2l-1,3l0.7,0.2l-0.2,0.5L149.8,42L149.8,42z M147.9,40.8&#xA;&#x9;l1.5,0.5l0.7-2.1l0,0L147.9,40.8L147.9,40.8z"/>
  <path d="M81.2,199.9l-0.6-0.3l2.3-4.5l0.6,0.3L81.2,199.9L81.2,199.9z"/>
  <path d="M88.1,197.8l0.6,0.3l-2.1,4.6l-0.7-0.3l-0.6-4.8l0,0l-1.7,3.7L83,201l2.1-4.6l0.7,0.3l0.6,4.7l0,0L88.1,197.8L88.1,197.8z"/>
  <path d="M92.9,201.4c0.2-0.9-0.5-1.3-0.9-1.5c-0.8-0.3-1.8,0-2.3,1.2c-0.4,1.1-0.4,2.1,0.8,2.6c0.4,0.2,1.2,0.3,1.8-0.7l0.6,0.2&#xA;&#x9;c-1,1.6-2.4,1.2-2.8,1c-1.1-0.4-1.8-1.5-1.1-3.3c0.6-1.4,1.8-2.1,3.2-1.6c1.2,0.5,1.5,1.5,1.3,2.3L92.9,201.4L92.9,201.4z"/>
  <path d="M95.8,206.3c-1.8-0.6-1.8-2.3-1.5-3.3s1.4-2.3,3.2-1.7c1.8,0.6,1.8,2.3,1.5,3.3S97.6,206.9,95.8,206.3z M97.4,201.9&#xA;&#x9;c-1-0.4-1.9,0.2-2.3,1.4s0,2.1,1,2.5s1.9-0.2,2.3-1.4C98.7,203.3,98.4,202.2,97.4,201.9z"/>
  <path d="M100.4,207.5l-0.7-0.1l1.1-4.9l2.3,0.5c0.8,0.2,1.5,0.6,1.3,1.7c-0.2,0.7-0.6,0.9-0.9,1c0.2,0.2,0.5,0.4,0.4,1.1l-0.2,0.9&#xA;&#x9;c-0.1,0.3-0.1,0.4,0.1,0.6v0.1l-0.8-0.2c0-0.3,0.1-1.1,0.2-1.2c0.1-0.4,0.1-0.9-0.7-1.1l-1.6-0.4L100.4,207.5L100.4,207.5z&#xA;&#x9; M101,204.8l1.5,0.4c0.5,0.1,1,0.1,1.2-0.6c0.2-0.8-0.4-0.9-0.7-1l-1.7-0.4L101,204.8L101,204.8z"/>
  <path d="M106.2,208.8l-0.7-0.1l0.9-4.9l2.2,0.4c0.9,0.2,1.4,0.9,1.2,1.6c-0.1,0.7-0.7,1.4-1.7,1.2l-1.6-0.3L106.2,208.8L106.2,208.8&#xA;&#x9;z M106.6,206.1l1.3,0.2c0.6,0.1,1.1,0,1.2-0.7c0.1-0.6-0.3-0.9-0.8-1l-1.4-0.2L106.6,206.1L106.6,206.1z"/>
  <path d="M113,209.9c-1.9-0.2-2.2-1.9-2.1-2.9c0.1-1.1,0.9-2.6,2.8-2.3s2.2,1.9,2.1,2.9C115.6,208.6,114.9,210.1,113,209.9z&#xA;&#x9; M113.6,205.2c-1.1-0.1-1.8,0.6-2,1.8c-0.1,1.2,0.4,2.1,1.5,2.2c1.1,0.1,1.8-0.6,2-1.8C115.2,206.3,114.7,205.4,113.6,205.2z"/>
  <path d="M117.7,210.1H117l0.1-5h2.3c0.8,0,1.7,0.3,1.6,1.4c0,0.7-0.4,1-0.7,1.2c0.3,0.1,0.6,0.2,0.6,1v0.9c0,0.3,0,0.4,0.2,0.5v0.1&#xA;&#x9;h-0.8c-0.1-0.3-0.1-1.1-0.1-1.3c0-0.4-0.1-0.9-0.9-0.9h-1.6V210.1L117.7,210.1z M117.8,207.4h1.6c0.5,0,1-0.1,1-0.9&#xA;&#x9;c0-0.8-0.6-0.9-0.9-0.9h-1.7V207.4z"/>
  <path d="M123.7,208.8l-0.5,1.5h-0.7l1.8-5.1h0.8l1.9,5h-0.7l-0.5-1.4H123.7L123.7,208.8z M125.4,208.2l-0.8-2.2l0,0l-0.8,2.2H125.4z&#xA;&#x9;"/>
  <path d="M126.7,205.2l4.1-0.4l0.1,0.6l-1.7,0.1l0.4,4.4l-0.7,0.1l-0.4-4.4l-1.7,0.1L126.7,205.2L126.7,205.2z"/>
  <path d="M136.4,209.1l-3.7,0.5l-0.7-5l3.6-0.5l0.1,0.6l-2.9,0.4l0.2,1.5l2.7-0.4l0.1,0.6l-2.7,0.4l0.2,1.7l3-0.4L136.4,209.1&#xA;&#x9;L136.4,209.1z"/>
  <path d="M137,204l2-0.4c1.3-0.3,2.3,0.5,2.6,1.9c0.2,1.1,0.1,2.6-1.6,3l-2,0.4L137,204L137,204z M138.6,208.2l1.3-0.3&#xA;&#x9;c0.9-0.2,1.3-1,1-2.2s-1-1.7-1.9-1.6l-1.2,0.3L138.6,208.2L138.6,208.2z"/>
  <path d="M149.2,205.9l-0.6,0.2l-1.1-3.3l-1.1,0.4l-0.2-0.5c0.7-0.3,1-0.5,0.9-1.3l0.5-0.2L149.2,205.9L149.2,205.9z"/>
  <path d="M153,201.8c0.7,0,1.1,0.5,1.2,0.8c0.3,0.7,0.1,1.6-1,2.1c-0.2,0.1-0.8,0.2-1.2,0.1c-0.6-0.2-0.8-0.7-0.9-0.9&#xA;&#x9;c-0.2-0.6-0.1-1,0.3-1.4c-0.4,0-0.8-0.2-1-0.6c-0.2-0.5-0.2-1.4,0.9-1.8c1-0.4,1.7,0.1,1.9,0.6C153.4,201.3,153.1,201.6,153,201.8&#xA;&#x9;L153,201.8z M152.6,200.9c-0.1-0.3-0.5-0.6-1.1-0.3c-0.6,0.2-0.6,0.7-0.5,1c0.2,0.4,0.7,0.6,1.1,0.4&#xA;&#x9;C152.6,201.7,152.8,201.3,152.6,200.9L152.6,200.9z M151.7,203.6c0.1,0.4,0.6,0.8,1.3,0.5c0.4-0.2,0.9-0.5,0.6-1.2&#xA;&#x9;c-0.2-0.6-0.8-0.7-1.3-0.5C151.7,202.7,151.5,203.2,151.7,203.6L151.7,203.6z"/>
  <path d="M155.5,200.5c0.1-0.2,0.3-0.5,0.7-0.7c0.7-0.3,1.7-0.2,2.1,0.7c0.2,0.5,0.5,1.7-0.9,2.3c-0.6,0.3-1.4,0.4-2-0.6l0.6-0.3&#xA;&#x9;c0.3,0.5,0.8,0.5,1.3,0.3c0.6-0.3,0.7-0.9,0.5-1.5c-0.3-0.6-0.9-0.8-1.4-0.5c-0.3,0.1-0.5,0.4-0.6,0.8l-0.5,0.2l-0.8-2.6l2.3-1.1&#xA;&#x9;l0.2,0.5l-1.9,0.9L155.5,200.5L155.5,200.5z"/>
  <path d="M162.4,200.4l-0.6,0.3l-1.6-3.1l-1,0.5l-0.2-0.4c0.7-0.4,0.9-0.6,0.8-1.4l0.4-0.2L162.4,200.4L162.4,200.4z"/>
  <path d="M13.8,129.9c-1.2,0.5-3.4,1.4-3,5c0.2,2.1,2,4.9,7.8,4.2c3.7-0.5,6.9-2.3,6.4-6c-0.3-2.4-1.9-3.9-4.5-4.1l-0.5-4.3&#xA;&#x9;c4.6,0.3,8.1,2.9,8.7,8c0.7,5.5-2.5,9.9-9.7,10.8c-7.2,0.9-11.4-2.8-12.1-8.2c-0.8-6.2,3.2-9.2,6.2-9.8L13.8,129.9L13.8,129.9z"/>
  <path d="M27.8,116.2l-0.1,4.3l-20.8-0.4l0.1-4.3L27.8,116.2z"/>
  <path d="M29.4,103.6l-0.8,4.3l-16.9-3l-1.1,6.2L7,110.5l3-16.7l3.6,0.6l-1.1,6.2L29.4,103.6L29.4,103.6z"/>
  <path d="M34.4,86.8l-1.6,4.1l-7.3-2.8l-14.7,2.1l1.8-4.8l10-0.8l-7-7.1l1.8-4.6L27.1,84L34.4,86.8z"/>
  <path d="M45.2,35.3c2.1-1.8,8.3-5.7,14.7,1.7s1.7,13-0.4,14.8s-8.3,5.7-14.7-1.7S43.1,37.1,45.2,35.3z M57.2,49.1&#xA;&#x9;c1.8-1.5,3.3-4.8-0.5-9.2s-7.3-3.3-9-1.8s-3.3,4.8,0.5,9.2S55.4,50.6,57.2,49.1z"/>
  <path d="M73,41.2l-3.7,2.2L58.5,25.6L71.2,18l1.9,3.2l-9,5.4l2.4,4l7.9-4.7l1.9,3.2l-7.8,4.7L73,41.2L73,41.2z"/>
  <path d="M111,28l-4.6,0.1l7.1-21l5-0.1l7.7,20.7l-4.7,0.1l-1.4-4.3l-7.7,0.1L111,28L111,28z M113.4,20.1l5.3-0.1l-2.7-8.2h0&#xA;&#x9;L113.4,20.1L113.4,20.1z"/>
  <path d="M144,9.1l4,0.7l-3.6,20.5l-4.3-0.8l-5.8-16.1h-0.1L131.7,28l-4-0.7l3.6-20.5l4.5,0.8l5.6,15.7h0.1L144,9.1L144,9.1z"/>
  <path d="M166.7,16l3.8,1.5L163,36.9l-4.1-1.6l-2.6-16.9h-0.1L151,32.3l-3.8-1.5l7.5-19.4L159,13l2.5,16.5h0.1L166.7,16L166.7,16z"/>
  <path d="M188.9,56l-3-3.5l20.6-8.1l3.3,3.8l-10.9,19.2l-3.1-3.6l2.4-3.8l-5-5.8C193.1,54.2,188.9,56,188.9,56z M196.6,52.8l3.5,4&#xA;&#x9;l4.5-7.3l0,0L196.6,52.8L196.6,52.8z"/>
  <path d="M217.7,58.4l5.1,9.2c2.7,4.8-0.4,7.7-2,8.6c-2,1.1-4.3,1.1-5.9-0.4c0.2,1.9,0.1,3-3.3,4.9c-2.7,1.5-3.3,1.8-3.2,2.8&#xA;&#x9;l-0.5,0.3l-2.3-4.2c0.7-0.7,1.6-1.4,3.4-2.4c2.5-1.4,3.4-2.1,1.8-4.9l-2.2-3.9l-7.1,3.9l-2.1-3.7L217.7,58.4L217.7,58.4z&#xA;&#x9; M214.2,71.1c1.1,2,2.3,2.6,4.1,1.6c1-0.5,2.1-1.8,0.9-4l-2.6-4.7l-4.9,2.7C211.8,66.6,214.2,71.1,214.2,71.1z"/>
  <path d="M228.6,79.6l3.1,9.6c1.6,4.8-1.1,7.1-3.1,7.7c-2.8,0.9-4.2-0.4-4.8-1.1c-0.1,2.7-1.9,4-3.8,4.6c-1.6,0.5-3.3,0.3-4.6-0.4&#xA;&#x9;c-1.5-0.8-2.5-1.6-3.8-5.7l-2.7-8.4L228.6,79.6L228.6,79.6z M213.5,88.9l1.6,5.1c0.6,2,1.9,2.9,3.9,2.2c1.7-0.6,1.9-2.3,1.4-3.8&#xA;&#x9;l-1.7-5.3L213.5,88.9L213.5,88.9z M222.1,86.1l1.6,4.8c0.5,1.6,1.6,2.7,3.2,2.2c1.6-0.5,1.8-1.8,1.1-3.7l-1.5-4.7L222.1,86.1&#xA;&#x9;L222.1,86.1z"/>
  <path d="M236.4,111.3c0.2,2.7-0.3,10.1-10.1,10.9s-11.6-6.3-11.8-9s0.3-10.1,10.1-10.9S236.1,108.6,236.4,111.3z M218.2,112.9&#xA;&#x9;c0.2,2.3,1.9,5.5,7.8,5s7-3.9,6.8-6.3c-0.2-2.3-1.9-5.5-7.7-5C219.2,107.2,218,110.6,218.2,112.9L218.2,112.9z"/>
  <path d="M236.4,127.7l-1.3,10.4c-0.7,5.5-4.9,6-6.6,5.8c-2.3-0.3-4.1-1.7-4.5-3.8c-1,1.6-1.7,2.4-5.6,2c-3-0.4-3.8-0.5-4.2,0.4&#xA;&#x9;l-0.6-0.1l0.6-4.8c1-0.2,2.1-0.2,4.2,0.1c2.8,0.4,3.9,0.3,4.3-2.9l0.6-4.5l-8.1-1l0.5-4.2L236.4,127.7L236.4,127.7z M226.2,135.9&#xA;&#x9;c-0.3,2.2,0.4,3.4,2.4,3.7c1.1,0.1,2.8-0.2,3.1-2.7l0.7-5.4l-5.5-0.7L226.2,135.9L226.2,135.9z"/>
  <path d="M60.1,221l-3.3-2.4L67,204.5h-0.1l-13.4,11.8l-3.5-2.5l7.2-16.3l0,0l-10.2,14l-3.3-2.4L56,192.3l5.1,3.7l-6.6,15.5l0,0&#xA;&#x9;l12.6-11.1l5.1,3.7L60.1,221L60.1,221z"/>
  <path d="M70.3,226.3l-3.9-2l9.4-18.6l3.9,2L70.3,226.3z"/>
  <path d="M95,221c0.1-1.3,0.2-3.7-3.2-4.9c-2-0.7-5.3-0.4-7.2,5.2c-1.2,3.5-0.9,7.2,2.6,8.4c2.3,0.8,4.3,0,5.6-2.2l4.1,1.4&#xA;&#x9;c-2.3,4-6.1,6-11.1,4.3c-5.2-1.8-7.8-6.6-5.4-13.4c2.4-6.9,7.6-9,12.6-7.3c5.9,2,6.9,6.9,6.1,9.9L95,221z"/>
  <path d="M106.4,227.9l-0.7,9.3l-4.3-0.3l1.4-20.8l4.3,0.3l-0.6,7.9l8.1,0.6l0.6-7.9l4.3,0.3l-1.4,20.8l-4.3-0.3l0.7-9.3L106.4,227.9&#xA;&#x9;z"/>
  <path d="M130.6,237.8l-4.3,0.3l-1.4-20.8l4.3-0.3L130.6,237.8z"/>
  <path d="M145.9,224.1l8.5-2l2.5,10.9l-2.8,0.6l-1-2.4c-0.8,1.5-1.9,3.7-5.6,4.5c-4.9,1.1-10.1-1.4-11.8-8.5&#xA;&#x9;c-1.3-5.5,0.6-11.5,7.4-13c6.2-1.4,9.6,2,10.5,4.8l-4.2,1c-0.2-0.8-2.2-3-5.2-2.3s-5.3,3.4-4.1,8.6c1.3,5.5,4.6,6.3,7.5,5.6&#xA;&#x9;c0.9-0.2,4-1.3,3.9-5.6l-4.7,1.1L145.9,224.1L145.9,224.1z"/>
  <path d="M167.2,229l-4.2,1.9l-1.7-22l4.6-2l15.2,16l-4.3,1.9l-3-3.4l-7,3.1L167.2,229L167.2,229z M166.4,220.7l4.9-2.2l-5.7-6.5&#xA;&#x9;h-0.1L166.4,220.7z"/>
  <path d="M184.1,194.5l3.2-2.4l12.5,16.6l-3.5,2.6l-15.7-6.7h-0.1l8.9,11.9l-3.2,2.4l-12.5-16.6l3.7-2.8l15.3,6.6h0.1L184.1,194.5&#xA;&#x9;L184.1,194.5z"/>
  <path fill-rule="evenodd" d="M152,159.7c0.2,0,2.8,1.2,3,1.3h-0.2c-0.2,0.2-0.4,0.5-0.6,0.7c0.1,0.2,0,0.1,0.1,0.2&#xA;&#x9;c0.2,0.4,1.4,0.3,2,0.2c0.3-0.2,1.5-0.7,1.8-0.7c0.3,0.4,0.8,0.6,1,1.2H159c-1.2,0.9-3.6,0.5-5,1.2c-0.4,0.2-0.7,0.7-1.1,1&#xA;&#x9;c-1.6,1.2-3,2.7-4.7,3.8c-0.6,0.4-1.8,1.4-3,1.1c-1.2-0.3-2-0.9-2.9-1.4c-1.1-0.7-2.2-1-3.4-1.7c-0.5-0.3-1.2-1-1.8-1.2&#xA;&#x9;c-0.7-0.2-1.5,0.1-2.2-0.1c-1.1-0.4-2-0.9-3.5-1.1c-0.2,0.2-0.3,0.2-0.5,0.5c-0.3,0.5,0.1,1.6-0.1,2.3c-0.2,0.8-0.3,2-0.6,2.9&#xA;&#x9;c-0.2,0.7-0.6,1-0.6,1.9c1.3,1.2,2.9,3.5,2.2,6.4c-0.2,0.9-1.2,1.9-0.8,3.2c0.2,0.6,0.8,1.3,1,2c0.4,1.6-0.5,2.9,0.4,4.2&#xA;&#x9;c0.4,0.7,1.2,2,2,2.3c0.7,0.2,1.3,0,1.9,0.2c0.5,0.2,1,0.8,1.6,1c0.7,0,1.4-0.1,2.2-0.1c0.3,0.1,0.7,0.4,1,0.5h1.7&#xA;&#x9;c0.8,0.2,2.1,0.5,2.8,1c0.5,0.3,0.9,0.9,1.6,1.1c0.9,0.3,1.9,0.4,2.6,0.6h2.3c1.2,0.2,2.3,0.5,3.5,0.7c0.1,0.2,0,0.1,0.1,0.2&#xA;&#x9;c-0.1,0.2,0,0.1-0.1,0.2c-0.1,0.4-0.2,0.5-0.6,0.6c-0.8,0.6-3.2,0.4-4.2,0.1c-0.8-0.1-1.6-0.2-2.4-0.2c-2-0.5-4.8-1.3-7.2-0.7&#xA;&#x9;c-1.6,0.4-4.1,1.6-5.8,1.1c-0.9-0.2-1.5-1.1-2.3-1.3c-1-0.3-2.1,0.4-2.9,0.6c-2,0.4-3.6-0.5-5-0.8c-1.1-0.2-2.2,0.2-2.9,0.4&#xA;&#x9;c-1.7,0.4-3.3-0.3-4.4-0.6c-1.7-0.4-3.5,0.6-4.6,0.4c-0.6-0.1-1.7,0.1-2.4-0.1c-0.5-0.1-1-0.5-1.6-0.6c-1.1-0.2-1.9,0.6-3.2,0.4&#xA;&#x9;c-2.9-0.6-6.9-0.4-10.1-0.4V194c0.3-0.3,0.4-0.7,0.7-1c0.5-0.4,3.6-1.3,4.6-1.1c1,0.3,1.9,1.4,3.5,1c2.1-0.6,2.7-2.7,4.7-3.4&#xA;&#x9;c1.1-0.4,1.7,0.5,2.4,0.7c0.6,0.2,1,0,1.6-0.1c0.6-1,1.1-2.2,1.4-3.5c0.7-2.8-0.4-5.9,0.2-8.8c0.2-0.7,1-4.8,0.7-5.5&#xA;&#x9;c-0.2-0.8-1.1-1.4-1.3-2.3c-0.2-0.8,0.3-1.7,0.5-2.3c0.9-3.1,2.1-6-0.6-7.9c-0.6-0.4-2.9-1.6-3.6-1.8c-0.6,0-1.1-0.1-1.7-0.1&#xA;&#x9;c-0.4-0.1-0.9-0.6-1.3-0.7c-0.8-0.2-1.6,0.2-2.2,0.4c-1.1,0.2-4.4-0.5-5.2-0.8c-0.8-0.3-4.5-2.9-4.8-3.5c-0.5-0.9-0.3-2.1-0.8-3&#xA;&#x9;c-0.3-0.5-0.9-0.8-1.2-1.3c0.6-0.5,1.3-1,1.9-1.6c1.3,0,2.1,0.4,3.2,0.5c0,0.9,0.2,1.7,1,1.8c0-0.1,0.1-0.2,0.1-0.4&#xA;&#x9;c0.3-0.4,0.4-1,0.4-1.7c0.4-0.1,0.9-0.2,1.3-0.2c0,1.1-0.8,3.7-0.2,4.6c0.4,1.4,2.2,1.6,3.7,1.2c0.7-1.3,0.9-2.4,3-2.4&#xA;&#x9;c0.2,0.1,0.4,0.1,0.6,0.2c0.5,0.4,0.7,1.2,1.3,1.4c1,0.4,2,0.2,2.8,0.7s0.9,1.2,2.3,1.3c0.1-0.1,0,0,0.2-0.1c0.4-0.7,1.1-2,0.6-3.2&#xA;&#x9;c-0.2-0.4-0.6-0.8-0.7-1.2c-0.4-1.4,0.5-2.9,0.1-4.1c-0.1-0.4-0.6-0.8-0.6-0.8c1-1.5,3-3.3,5.4-3.4v0.1c-0.2,0.3-0.3,0.9-0.4,1.3&#xA;&#x9;c0.2,0.1,0.6,0.1,1,0.1c0.2-0.1,0.5-0.2,0.7-0.2c0.2-0.2,0.4-0.5,0.6-0.7V141c0.4,0,0.6-0.1,0.8-0.2c0.1,0.3,0.1,0.3,0.2,0.5&#xA;&#x9;c0.1,0,0.2-0.1,0.4-0.1c0-0.3,0.1-0.4,0.1-0.6c2-0.2,4,0.3,5.5,1c0.2,0.5,0.4,1.1,0.5,1.8c-0.5,0.2-0.7,0.5-1.1,0.8v0.5&#xA;&#x9;c0.6,0.6,1.2,1.2,1.3,2.3c-0.2,0.3-0.2,0.7-0.5,1c-0.5,0.6-1.2,0.2-1.3,1.2c0.5,0.6,1.2,1.4,1.7,2c0.1,0.4,0.2,0.7,0.4,1.1&#xA;&#x9;c0.2,0.2,0.5,0.3,0.7,0.5c0.3,0.5,0.4,1,0.8,1.3c-0.6,1-0.8,2.9,0,4.1c0.6,0.9,2.4,0.5,3.4,1c0.7,0.4,1.1,1.1,1.8,1.4&#xA;&#x9;c2.1,0.9,4.2,1.3,6.1,2.3c0.5,0.3,0.7,1,1.2,1.3c0.8,0.5,3.4,0.7,4.1,0.1c0.4-0.5,0.3-2.6,0.5-3.2c0.4-0.2,0.7-0.5,1.1-0.7&#xA;&#x9;c0,0.8,0.1,1.8,0.8,1.9c0.5-0.6,1.1-1.4,1.7-1.8L152,159.7L152,159.7z"/>
  <path fill="none" stroke="#000000" stroke-width="0.5" d="M157.8,161.6c-1.7-3.4-4.2,2.5-6.7-5c-3.1-6.7,1,8.4-7.2,5.8&#xA;&#x9;c-6.8-2.5-2.5-4.1-6.6-7.5c-1.2,1.8-8.4-2.4-6.4-2.7c1.9-16.3-12.2-8.8-7.1-16.9c-4.3-3-0.5,3.6-1.3,5.6c-1.4,0.8-0.4-3.2-1.7-2&#xA;&#x9;c-0.9,2.9-6.4,7.2-9.6,5.4c-3.7,4.5-7.7,2-12,2.9c-3.4,0.3-6.7,1.2-8.8,4.7c-3.3-0.1-4.7,2.6-6.3,4.8c-4.4-0.5-7.7,4.7-12,2&#xA;&#x9;c-6.7,8-8.1-11.1-14.1-6.7c-5.7,0.4-2-8-8.6-6c-2.6-3.9-1.1-8.6-2.2-12.6c7-7-2-0.8-5.1-2.3c-1.1-4-2-8.7,0.6-12&#xA;&#x9;c3.1-1.6,5.5,3.5,8.3,0.9c-2.4-2.9-10.9-1.5-5.6-9.1c-0.5-3.6-1-6.2,2.6-7.8c0.3-1.9-2.7-5.6,1.7-4.5c0.7-3.6-7-11.8,2.6-10.2&#xA;&#x9;c0.8,2,0.9,5.8,4.3,4.5c1.8-1.7-2-2.9-0.8-5.2c2.1-1-0.5-2.9,0.2-4.4c-2.1-1.2-0.8-2.8-0.8-4.4c-2.6-2.2-1-4.5,1.2-6&#xA;&#x9;c-3.6-3.2,3.9-5.9,3.8-1.8c1.9,1.6,0,7.1,3.9,7.7c1.7-1.2,13.2-4.1,8.6-6.7c-1.6,4.4-4.8,2.2-7.6,0.5c-1.5-3.6-0.2-12.1,5.1-10.2&#xA;&#x9;c2.5-2.2,2.4-5.7,7-3.6c3.3-4.2,7.4,5.7,11.3,1.6c1-4.7-6.3-0.4-6.5-5.3c-3.6-2.2,1.8-4.5,3.9-3.6c0.8,3,2.2,0.6,4.6,0.9&#xA;&#x9;c7.7,2.8-2-14.4,14.5-7.4c1.8,4.5,6.7-1,10.2,3c6.4-4.6,4.4-1.3,5.8,2c2.9-3.2,6.9-6,10.6-8.4c2.3,4.7,4.4-3.1,7.3,1.8&#xA;&#x9;c7.3-1.6,1.4,8.4,7.6,3.3c6.2,2.2,6.4-8.6,10.7,4.5c7.4,3.1-1.5,9-0.8,13.7c-2.8-0.1-13.8,6.3-8.3,8.4c10.6-2.9,12.4-7.8,15.5-17.4&#xA;&#x9;c9.8,4.8,1.3,5.2,3.4,11.1c2.1-2.9,7.4-5.6,8.1,0.2c-1.6,2-4.2,4.5,0.6,5c0.6-2.6,1.5-8.2,5.3-7.7c2.8,0.9,1.1,4.2,2.1,6.4&#xA;&#x9;c-1.7,1.8-4.2,1.7-3.9,5.4c-2.3,2-0.5,2.8,1.1,4.2c-2.7,3.8,1,5.5,0.3,8.8c-6.4,8.6-7.6-0.7-10.6,6.9c-2.4,2.5-6.9,3.4-8.5,6.3&#xA;&#x9;c3.6,2.4-3.4,4.8,3.8,4.7c1.1-2.8,1.4-7.2,4.7-3.1c-0.1-4.8,6.8-2.6,6.9-7.4c8.1-3.1,0.4,10,11,2.5c-4.6-3.2-2.1-6.4-0.3-10.5&#xA;&#x9;c-4.8-2.5-7.6-11.5,0.9-11.2c1.8,3.5,1.6,7.8,5.3,8.9c5.3,5.2-7.1,11,4.5,13.3c0.4,3.7,2.8,7.5,0.9,11.1c3.7,1.7,4.5,9.2,1.8,12.3&#xA;&#x9;c-6.8,0.1-3.4,12.7-10.8,8.4c-3,1.2-9.7,6.2-3.9,8.2c3.6,7.5,2.6,0.3,5-0.3c4.4,4.3,2-3.7,5.9-5c3.6,0.4,2.4,6.1,6,7.7&#xA;&#x9;c1.1,2.8,0.1,6.9-3.2,6.1c-0.1,3.4-3.2,5.1-4.3,7.6c-0.9,1.9-2.9,0.9-4.6,0.6c-0.8,0.7-2.6,3.1-4.2,2.4c-1.6-1-3.3-4.5-5.1-1.9&#xA;&#x9;c-3.5,4.6-3.3,8.6-10.2,4.8c0.7,5.7-4.5,1.6-6.4,4.6C161,166.8,160.3,163.1,157.8,161.6z"/>
  <path fill="none" stroke="#000000" stroke-width="0.5" d="M112.5,62.8c1.4,3.2,3,4.5,2.7,10.8c-0.9,0.1-0.5-1.6-1-2.2&#xA;&#x9;c-0.3,0.8-0.3,3.8,0.6,3.8c8-3.9,3.4-8.5,11.4-4.2c1.5-2,3.6-0.2,5.3,0.1c4.7-3.1,9.8-4.9,10.7-11.1c4.4-3.8,10.5,8.9,13,3.3&#xA;&#x9;c-0.2-3.6,3.2-5.1,3.8-9.1c-1.2-2-3.5-1.2-3.1-4.1c-2.9-3.7-2.4-5.9-6.7-1.6c-3.4-1-3.3,0.4-6.1,1.5c-2-1-0.9-2.8-1.2-4.4&#xA;&#x9;c-0.6-1.9-2-1-3.5-0.8c-2.3-3.4-2.7,0-5.9,0c-1.3-3.3-8.3,3.7-10.1,5.9c-3.3,2.1-3.8-1-3-3.6c-2.9,1-5,3-8.2,0.1&#xA;&#x9;c-12.5,3.6-3.1-2.5-11.7-2c-7.8-2.6,0.5,12-11.4,8.8c-3.3,3.2-2-3.6-5.4-0.5c0.9,2.6,2.1,3.8,4.8,2.9c7.5,4.4-2.1,8.6-6.5,4&#xA;&#x9;c-11.7-3.7-5.8,4.5-4.8,12.1c3.5-1.6,11.1-0.2,9-7.2c1.7,2.8,1,1,2.1-0.9c4.7-1.1,1.5,10.6,8.3,9.9c3.1-1.3-2-7.8,0.5-9.1&#xA;&#x9;c1.4,0.7-0.3-7.4,1.1-2.2c1.5,0.4,1.3,2,1.7,3.1c-0.3-1,0.6-2.4,0.8-0.8c0.9,0.7-0.2,6.7,1.7,6c-0.1-1.5-2.3-7.2,0.8-7.1&#xA;&#x9;c2.3,7.9-3.6,12.2,5.8,6.7c-2.2,0.3-1.6-7.1-0.5-3.5c2.3,0,0.8-1,2.1-1.7c3.9,3.6,2.1,5.4,3.8,10.1&#xA;&#x9;C114.2,72.1,112.3,67.1,112.5,62.8z"/>
  <path fill="none" stroke="#000000" stroke-width="0.5" d="M59.5,107.8c4.5-4.5,9.7,4.7,7.1-5.2c-0.2-1.4-1.5-6.4-0.4-7.2&#xA;&#x9;c1.3,2.7,0.2,8,1.8,10.1c4.1-2.1-0.8-8.4,1.5-11.1c1.4,2.5,0,7.8,1.9,9.7c-0.3-13.1-0.5-5.4,1.9,1.3c0.8-4.2-2.4-11-0.6-14&#xA;&#x9;c0.7,6.1,2.6,19.2,1.5,6.3c4-8.9-0.5,9.3,4.5,7c-1-11,0-10.1,0.9,0.5c2.3-1.9-2-11.1,0-13.3c0.7,2.5,1.7,18,2.1,11.5&#xA;&#x9;c-0.8-2.4-1-12.8,0-6.3c0.7,1.9-0.2,7.4,1.6,7.9c0.7-3.8-2.2-9.6-0.4-12.7c4.3,8.2,4.9-3.5,6,11.1c0.5-3.1-1.7-7.7-0.2-9.8&#xA;&#x9;c1,5.4,1.9,9.8,3.7,14.3c0.6-1.3-1.3-5.3,0.2-6.1c1,1,0,5.9,1.5,6.3c0.6-3.5-1.7-8.9-0.4-11.5c1.3,3-0.2,10.3,2.5,11.5&#xA;&#x9;c1.5-1.9-1.1-7.4,0.4-8.9c1.1,1.8-0.3,6.8,1.7,7.7c1.4-0.5-0.4-4.7,0.9-3.8c0.9,7.4,12.8,3.7,18.3,4.7c0.8-4.7,6.6-4.4,4.6-9.9&#xA;&#x9;c5.6-1.4,2.2-4.6-1.6-6.2c-0.2-2.7-0.9-4-3.9-3.8c-1.4-3-1.7-3.8-4.4-1.2c-3-0.8-2.8-3.7-5.5-0.1c-3.4,0.1-1.4-2.7-5-2.8&#xA;&#x9;c-6.1,5.7-7.8-8.6-14.9-7.5c-4.7-4.9,1.2,4.4-12.9-0.9c-2.8,3.2-6.6,3.9-10.7,4.6c-3.3-2.5-2.1-7.7-5.3-9.3c2.5,5.6-1.8,2.5-2.3,6.3&#xA;&#x9;c2.1,0.9-0.2,4.8,2.7,4.3c0.1,3,0,3.6,1.4,6.6c-2.2,1.1-2.6,1.8-0.1,3.4c1.7-0.2,2.5,11.1,1.6,13.2C58.3,88.4,61.7,99.8,59.5,107.8z&#xA;&#x9;"/>
  <path fill="none" stroke="#000000" stroke-width="0.5" d="M106.1,73c-6.9,5.6-8.1,8.3,0.3,12.3c1-3.2,3.5-2.8,5-0.3&#xA;&#x9;C116.2,82.7,106.5,76.9,106.1,73z"/>
  <path fill="none" stroke="#000000" stroke-width="0.5" d="M142.8,108.2c2.4,3,0.1,11.5,2.8,14.2c1.2-3.1-1.7-8.7-0.3-11.3&#xA;&#x9;c1.2,2.6,0.2,8,2,9.8c0.8-1.5-1.6-6.3,0.2-7c0.3,5.5,1.9,8.1,1.6,1c0.8,0.9,1.2,7.8,1.8,2.7c-0.1-2.5-1.8-7.8-0.6-9.9&#xA;&#x9;c0.5,5,1.6,10.9,1.9,15.9c3.8-0.1-0.8-10.5,0.2-13.7c0.9,4.7,3.4,21.1,2.7,6.2c-0.5-8.4,0.8,5.4,2,7.9c2.1-0.1-1.3-6.7,0.6-7.2&#xA;&#x9;c2.5,18.6,2.4,3.9,2-1.9c1.5,12.1,2.7,14.8,2.3,1.5c0.9,2.2,0.2,7.1,1.9,8.4c0.8-1.3-1.2-4.7,0.3-5.4c0.8,0.9,0.2,5.6,1.5,5.8&#xA;&#x9;c0.8-0.7-0.9-4.1,0.4-4.4c0.7,0.7,0,4.9,1.3,5.1c0.7-1.1-1.2-4.2,0.5-4.5c0.4,1,0.4,5.8,1.2,6.1c1-3-1-8.4-0.4-11.7&#xA;&#x9;c0.6,6,2.7,16.9,2.5,4.1c1.3,5.1,1,9.5,2,1.3c1.6,5.6,0.8,6.5,1.9,0.6c0.7,3.2,2.9,2.9,2.1,7.5c1.7,8,1.3-6.4,0.6-9.3&#xA;&#x9;c3.7,11.5-2.5,11,11.3,10.5c1.5-2.6,3.1,0.2,5.4,0.3c0.4-4.1,3.5-7.2,3.8-10.8c6.4,4.6,2.6-4.4,2.6-7.5c-4.8-1.2-1.7-2.6-1.2-6&#xA;&#x9;c-0.6-0.8-1.6-1.4-1.8-2.5c2.2-6-4.5-2.9-5.5-7.4c-1.9-4,5-6.2,1.2-9.3c-5.5,1.2-2.9-12.6-8.7-7c-0.8,5.6,7.5,7.3,2.5,12.8&#xA;&#x9;c-1.8,5.9,9.6,9.1-5.7,9.1c-13.7-5.5-6.3,8.3-13.5,2.2c0.5,5.4-5.8,4.9-8.5,2.7c-0.8-1.4,1.2-2,1.7-3c-3.8-0.3-3.9-3.7-7.1-5&#xA;&#x9;c-2.2,3.2-5.6,2.2-9.1,2.2c-1.3-6.9-2.1,1.4-7.3-3.2c-0.7,2.8-2.5,3.2-4.9,2.1c0.3,4.9-6.2,2.4-4.5,4.3c2.9-0.1,3.8,4,4.2,7&#xA;&#x9;c5.5,1.1,2.4-4.3,3.1-7.2c1.1,1.1,1.2,11.1,2.1,7c-0.2-1.2-1.4-5.8-0.2-6.8c1,2.7-1,8.8,3.4,8.6c0.6-3.2-1.5-8-0.4-10.7&#xA;&#x9;c1.9,6.1,0.3,15.9,3.5,21C145.1,118.9,142.6,113.1,142.8,108.2z"/>
  <path fill="none" stroke="#000000" stroke-width="0.5" d="M125,87.5c-2.9,3.5,3.8,7.1,1.2,10.5c-6.5,0,0.4,4.1,2.6,3.6&#xA;&#x9;c-1.2-2.4,5.2-8.9,1-8.1c-0.7,0.5-2.2,2.8-3,0.2C126.2,91.8,127.4,87.6,125,87.5z"/>
  <path fill="none" stroke="#000000" stroke-width="0.5" d="M47.9,115.9c-0.3,0-0.6,0.1-0.6-0.4c0.5-5.2-3.6-2.1-1.3,0.2&#xA;&#x9;c0.5-3.8,0.6,1,1.5,1.6c2.8,0.8,8.2,0.3,7.1-3.7c1.3-1.8,4.7-1.2,4.8-4.3c-1.8-3.9-1.7-9.5-2.2-14c-5.1,0.8-7.1-11.5-8.8-2.2&#xA;&#x9;c6.2,2.1,1.7,11.7-1.9,13.4C45.5,109.7,48.6,112.4,47.9,115.9z"/>
  <path fill="none" stroke="#000000" stroke-width="0.5" d="M151.8,94.7c-0.9,0.8-2.6,4.4-1,5.6c1.2-3.5,10.1-2.1,8.3,1.6&#xA;&#x9;c2.8,0.5,4.3-9.7,0.6-5.7C156.6,99.3,155.3,94.5,151.8,94.7L151.8,94.7z"/>
  <path fill="none" stroke="#000000" stroke-width="0.5" d="M76.8,94.8c1.7,1.8,1.1,6.2,1.5,9C76.8,103.3,76.5,96.7,76.8,94.8z"/>
  <path fill="none" stroke="#000000" stroke-width="0.5" d="M53.5,96.5c8.5,2.9,2,25.3,0.3,6.9C55,124.6,51.4,96.9,53.5,96.5z"/>
  <path fill="none" stroke="#000000" stroke-width="0.5" d="M119.9,104.8c-1.4,0.4-0.4,9,0.3,5.8c0.9-1.4,1.9-2.5,0.3-3.5&#xA;&#x9;C120,106.2,121.2,104.5,119.9,104.8z"/>
  <path fill="none" stroke="#000000" stroke-width="0.5" d="M80.5,129.4c2.3,0.1,0.8-3.1,1.2-4.3c3.5-1.9,4.5,1.1,7.4,1.2&#xA;&#x9;c0.2-3.1,0.5-6.6,4.1-7.5c2.4,0.3,5.8-6.5,1.9-6.3c-4.1-0.6-6.9,1.5-10.4,2.2c-2.9-4.1-6.2-2.6-10.3-4.7c-2.7,2.9-5.4,2.5-8.9,1.8&#xA;&#x9;c-3.4,1.2-4.7,5.1-5.4,7.7c-6.2,2.9-10.1,4.3-16.6,1.1c0.4,2.7-0.5,3.1-1.6,5.5c1.6,1.7,1.3-1.5,3-1.4c1.7,1.9-0.8,3.8,0.1,5.6&#xA;&#x9;c2-1.5,4.2-3,3.4-6.4c0.4,5.5,5,9.6,6.2,2.9c-0.8,7.4,7.3,2.4,9.7,0.9c-2.6-3-1.7-8.7,1.2-3.6c1.5-4-0.4,9.7,3.8,6.1&#xA;&#x9;c0-9.4-1.5-9.6,1.7-1.9c-0.6-5.5,0.3-5.9,1-0.2c1.4-0.4-0.3-3.2,0.3-4.6c1.4-0.2,1,4,1.3,5.3c1.8,0.9,0.2-4.3,0.3-5.5&#xA;&#x9;c1.5-0.6,0.6,7,2,7c0.8-1.2-0.9-6.1,0.2-6.8c0.5,0.6,1.3,9.7,1.4,3.9c0.1-6.3,0.6,2.4,1.7,2.3C77,120.5,82.1,120,80.5,129.4z"/>
  <path fill="none" stroke="#000000" stroke-width="0.5" d="M117.3,136.7c0.5-9-0.8-9.8,1.8,0.1c2.7-0.9-1.8-8.8,3.2-10.1&#xA;&#x9;c3.6,1.1,12.2,2.1,11-4.5c3.9-2.6,0-6.7-2.8-8c-3.1,6.1-4.1-1.1-8.1-2.1c-3.2,5.7-10.7-1.2-13.5,2.8c-2.7-0.3-7.5-3.8-8.7,0.6&#xA;&#x9;c3,2.3,1.7,5.2,0.6,8.3c2.5,0.9,2.5,2.9,1.6,5.1c2.5,0.2,3.8,1.2,2.5,4.1c-3,4.3-13.7-5.5-9.6,2.3c5.2-3.7,2.8,8.5,5.2,9.9&#xA;&#x9;c0.3-2.8-1.7-7.4-0.6-9.7c1.1,1.2,0.9,6.1,1.6,7.6c-0.6-2-0.3-8.4,2.1-7.7c1.9,5.2-0.6,7.6,1.7,2.2c0.5,2.4,0.5,6.1,1.3,8&#xA;&#x9;c0.8-0.8-1.6-6.1,0.3-6.3c0.2,0.4,0.3,1.3,0.6,1.7c1-4.8,1,2.4,1.9,2.4c-0.4-3.7,1-6.7,0.6-10.7c2,1,0.4,7.2,2,9&#xA;&#x9;c0.6-4.2-2.8-9.8,0.5-13.2c2,3,0.4,10.4,2.3,13.1c-0.7-12.5-1-14.2,1.6-0.9c0.7-4.1-1.9-9.4-0.6-13.1&#xA;&#x9;C116.7,130.3,116.9,133.8,117.3,136.7z"/>
  <path fill="none" stroke="#000000" stroke-width="0.5" d="M137.9,143.8c0.2-4.3,0.6,0.6,1.1,1.2c3.2-0.6-0.3,15,3.7,14.7&#xA;&#x9;c0.2-6.9-1.6-16.2,0.4-3.9c2.8,12.8,1.3-2.6,1-7c1.7,2,0.3,7.8,2.1,9.7c0.1-1.9-1.1-11.9,0.1-5.8c0.7,1.5-0.2,8,2.3,5.5&#xA;&#x9;c-0.1-2.8-1.6-3.6,0.9-6.3c-0.5-6.6,0.2-4.4,0.7,0.7c1.5,0.5,0.1-2.7,0.6-3.5c2.1,2.8,0.3-0.8,1.1-2.8c1,1.7,0.3,4.5,1,6.7&#xA;&#x9;c2.5,14,2.4-1.1,1.4-7c1.4,1.7,0.6,6.2,1.3,8.8c2.2,9.2,0.9-3.8,1.5-5.6c0.8,9.6,3,15.5,2,2c1.1,9.2,2.3,14.6,2.4,2.2&#xA;&#x9;c2.4,17.4,3,7.1,1.5-4.2c2.2,2.4-0.2,13.3,3.1,13.1c0.8-1.8-1.7-7,0.1-7.5c0.2,0.2,0.8,7.4,1.2,7.4c0.1-5.1,0.3-6.3,1.6-0.2&#xA;&#x9;c-0.2-2.8-0.6-3.7,1.7-1.9c3.2-2.2,5.5,3.5,8.1-0.2c-1.5-2.5,2.6-4.4,4.2-6c1.6-5.7,2.8,2.1,4.7,3.1c2.1-1,3.4-3.7,6.5-1.8&#xA;&#x9;c1.4-2.4,3-3.7,4.5-6.2c-1.1-2.5,1.1-3.3,3.1-2.8c3.4-5.3-3.3-3.2-3.6-6.6c1.7-0.6,1.2-3.8-0.6-4c-3.3,1.8-0.1,9.7-5.7,5.4&#xA;&#x9;c-0.5,4.8-5.4,2.7-6.6-0.5c-2.7,1.5-4.1-0.5-6.5-1.3c-3.5-2.9-10.4,3.9-7.3-6.9c-3.1-2.4-5.7,2.3-8.3-0.1c-0.8-2.2-7.4-3.1-9.2-1.4&#xA;&#x9;c0.4,5-3.5,1.2-3.5,6.5c-4.2,3.4-5.8-1.1-8.9-3.1c-4.8,2.4-3.8-4.2-6.4-6.2c-3.3,0.2-6.7,0.1-10.1,1.1c-0.9-0.6-3.3-3.1-3.3-0.4&#xA;&#x9;c6.6,0.8,4.9,18.7,5,5.3c5.1,1.6,3.6,10.1,4.6,15.8c6.4,4.2,0.8-3.2,2.7-6.8c1.4,2.7,0,10,1.8,10.7&#xA;&#x9;C136.7,149.7,133.3,142.6,137.9,143.8z"/>
  <path fill="none" stroke="#000000" stroke-width="0.5" d="M56,146.2c-0.2-1.8-0.6-8,0.3-3.6c0.4,1.6,1.6,9-0.4,4.8&#xA;&#x9;c-1.5,3.8,1.4,2.6,4,1.8c0.1-1.8-1.9-0.4-2-1.2c-0.9-2.5-1.4-7.5,2.3-4.1c1.5,1.7,2.1,4.7,1.7,7.9c2.6,0.2,5.3,3.3,3.8-0.7&#xA;&#x9;c-1.6,1.9-0.8-0.7-1-2.2c-1.4-11.1,2.9,3.1,2.3,8c-1.2,0.7-0.5-2.8-1-2.9c-1.7,1.7,2.7,7.8,2,2.9c-1.9-7,0.6-7.2,0.6,0.4&#xA;&#x9;c-0.5,4.5,3.3-0.6,5.6,0.4c0.9-2.8-2-8.4-0.2-10c0.3,8.8,3.3,15.9,3.5,2.7c1.2,6.9,1.4,5.6,1.1-0.6c2.5,1.2-0.4-4.4,1.4-3.7&#xA;&#x9;c0.9,3.3,2.1,14.2-0.3,5.2c0.2,1.7-0.6,5.3,2.1,4.8c0.6-1.5-1.6-5.6,0.4-6.8c0.4-4.6,1.6,3.2,1.1,4.4c-1.4-1.4-0.6,0.4-0.8,1.2&#xA;&#x9;c2.1,2.4,2.1-3.3,1.7-5.4c0.9-1.4,0.1,1.8,1.2,2c0.4-0.5-0.2-3.4,0.6-2.5c3.2,6.7,6.4-6.4,11.8-2.8c1.5-7.1-8-3.7-5.2-10.4&#xA;&#x9;c0.1-7,0.5-5.3-6-5c-4.7,3-0.8,12.2-7.9,3.4c-3.4,3.9-5.7-1.4-9.1-1.2c-1.6,3.9-4.6,2-7.4,0.7c-2.6,4.7-9.1,3.9-11.5-0.6&#xA;&#x9;c-2.8,0-2.6,2-0.6,3.3c-0.8,2.4-2.3,3.6-0.7,5.8C48.8,146.4,54.7,143.3,56,146.2z"/>
</svg>