<svg viewBox="0 0 159 159" fill="none" xmlns="http://www.w3.org/2000/svg" baseProfile="tiny-ps" version="1.2">
    <title>Malt</title>
    <path d="M91.7167 110.023L86.1777 115.562L102.362 131.746C110.345 139.729 122.474 148.086 135.044 135.517C144.268 126.293 142.224 117.308 137.327 110.023H91.7167Z"
          fill="#FC5656"/>
    <path d="M66.4967 49.136L72.0357 43.597L55.8517 27.413C47.8687 19.43 35.7397 11.073 23.1697 23.642C13.9457 32.866 15.9897 41.851 20.8867 49.136H66.4967Z"
          fill="#FC5656"/>
    <path d="M135.045 23.642C122.475 11.071 110.346 19.429 102.362 27.413L26.9406 102.834C18.9576 110.817 10.6006 122.946 23.1696 135.516C35.7406 148.087 47.8686 139.729 55.8526 131.745L131.274 56.324C139.257 48.341 147.614 36.212 135.045 23.642Z"
          fill="#FC5656"/>
    <path d="M98.7447 16.888C97.0557 8.27398 92.1517 0.471985 79.1077 0.471985C66.0617 0.471985 61.1577 8.27398 59.4697 16.888L79.1077 36.526L98.7447 16.888Z"
          fill="#FC5656"/>
    <path d="M59.4697 142.27C61.1587 150.884 66.0627 158.686 79.1067 158.686C92.1527 158.686 97.0567 150.884 98.7447 142.27L79.1067 122.632L59.4697 142.27Z"
          fill="#FC5656"/>
    <path d="M25.776 59.136C14.486 59.136 0 61.803 0 79.579C0 92.625 7.802 97.528 16.416 99.217L56.497 59.136H25.776Z"
          fill="#FC5656"/>
    <path d="M141.799 59.942L101.718 100.023H132.439C143.729 100.023 158.215 97.356 158.215 79.58C158.215 66.534 150.413 61.63 141.799 59.942Z"
          fill="#FC5656"/>
</svg>

