<?xml version="1.0"?>
<svg xmlns="http://www.w3.org/2000/svg" width="250" height="250" viewBox="0 0 250 250" fill="none" version="1.2" baseProfile="tiny-ps">
<title>GovPlus</title>
<rect width="250" height="250" fill="white"/>
<path d="M219.824 130.784H207.883V143H196.765V130.784H184.824V120.284H196.765V108H207.883V120.284H219.824V130.784Z" fill="#216DE3"/>
<path d="M51.905 150C66.8209 150 76.8099 139.944 76.2025 123.34H51.4325V132.114H64.3237C63.4463 136.434 58.5868 140.011 51.905 140.011C43.5358 140.011 38.0689 133.802 38.0689 125.5C38.0689 117.401 43.5358 111.259 51.905 111.259C57.7769 111.259 61.9614 114.296 63.5138 118.346H75.3251C73.0303 108.559 64.3237 101 51.905 101C37.1915 101 27 111.596 27 125.5C27 139.471 37.124 150 51.905 150Z" fill="#191919"/>
<path d="M106.682 150C121.058 150 131.789 139.336 131.789 125.5C131.789 111.731 121.125 101 106.682 101C92.2384 101 81.5745 111.596 81.5745 125.5C81.5745 139.471 92.1709 150 106.682 150ZM106.682 139.741C98.4478 139.741 92.6434 133.667 92.6434 125.5C92.6434 117.468 98.4478 111.259 106.682 111.259C114.849 111.259 120.653 117.468 120.653 125.5C120.653 133.667 114.849 139.741 106.682 139.741Z" fill="#191919"/>
<path d="M151.608 149.123H162.609L180.158 101.877H168.414L157.48 134.679H156.94L146.074 101.877H134.195L151.608 149.123Z" fill="#191919"/>
</svg>
