<?xml version="1.0" encoding="UTF-8"?>
<svg xmlns="http://www.w3.org/2000/svg" baseProfile="tiny-ps" version="1.2" viewBox="0 0 500 500">
  <title>DeveloperAkademie</title>
  <!-- Generator: Adobe Illustrator 28.6.0, SVG Export Plug-In . SVG Version: 1.2.0 Build 709) -->
  <rect width="500" height="500" fill="#fff"/>
  <path d="M257.7,279.2c0,.4.3.7.6.9.3.2.7.2,1.1,0l48.5-23.8c.3-.2.5-.4.6-.8.6-2.5.8-4.9.8-7.5s-.4-5.5-.8-7.9c0-.4-.3-.7-.6-.9l-48.5-23.6c-.3-.2-.7-.2-1,0s-.6.5-.6.8h0c-.2,1.2-.4,2.4-.4,3.6-.2,1.2-.2,2.7-.2,4h0v1.6h0v1.7c0,.5,0,.1,0,.2,0,.5.1,1,.2,1.6h0c0,.6.1,1.2.2,1.8,0,.4.3.7.7.8l35.9,16-35.9,16.7c-.3.2-.6.5-.6.8-.2.9-.4,2.2-.4,3.4-.2,1.2-.2,2.5-.2,3.8h0c0,2,.2,4.2.6,6.8h0Z"/>
  <path d="M241.7,190.8c.3.2.6.5.6.9.4,2.6.6,4.8.6,6.7h0c0,1.4,0,2.6-.2,3.8,0,1.3-.2,2.5-.4,3.4,0,.4-.3.7-.6.8l-35.9,16.7,35.9,16c.3.2.6.5.7.8.1.5.2,1.1.2,1.7h0c0,.6,0,1.1.2,1.6v1.8h0v1.6h0c0,1.4,0,2.8-.2,4.1,0,1.2-.2,2.4-.4,3.6h0c0,.4-.3.7-.6.9s-.7.2-1,0l-48.5-23.6c-.3-.2-.6-.5-.6-.9-.4-2.3-.8-5-.8-7.9s.2-5.1.8-7.5c0-.3.3-.6.6-.8l48.5-23.8c.3-.2.7-.2,1.1,0h0Z" fill-rule="evenodd"/>
  <path d="M348.8,148.3h-197.7c-14.4,0-26.2,11.7-26.2,26.2v122.1c0,14.4,11.7,26.2,26.2,26.2h197.7c14.4,0,26.2-11.7,26.2-26.2v-122.1c0-14.4-11.7-26.2-26.2-26.2ZM139.5,174.4c0-6.4,5.2-11.6,11.6-11.6h197.7c6.4,0,11.6,5.2,11.6,11.6v122.1c0,6.4-5.2,11.6-11.6,11.6h-197.7c-6.4,0-11.6-5.2-11.6-11.6v-122.1h0Z" fill-rule="evenodd"/>
  <path d="M152.6,337.2c-4,0-7.3,3.3-7.3,7.3s3.3,7.3,7.3,7.3h194.8c4,0,7.3-3.3,7.3-7.3s-3.3-7.3-7.3-7.3h-194.8Z"/>
</svg>
