<?xml version="1.0" encoding="utf-8"?>
<!-- Generator: Adobe Illustrator 15.1.0, SVG Export Plug-In . SVG Version: 6.00 Build 0)  -->
<svg version="1.2" baseProfile="tiny-ps" id="Layer_1" xmlns="http://www.w3.org/2000/svg" xmlns:xlink="http://www.w3.org/1999/xlink"
	 width="1306px" height="1306px" viewBox="0 0 1306 1306" xml:space="preserve">
<title>Allegro Cash</title>
<g>
	<rect fill="#FFFFFF" width="1306" height="1306"/>
	<path fill="#FF5A00" d="M181.776,723.252c-11.228-8.862-17.137-21.86-17.137-38.112v-0.592c0-48.161,51.705-54.363,68.843-54.363
		h39.297v-3.546c0-6.797-2.956-17.432-13.001-22.16c-14.183-7.387-42.253-5.022-65.89,9.751c-2.954,1.771-6.551,1.174-6.795-2.659
		l-1.477-23.343c-0.078-1.22,0.295-2.364,1.477-2.954c16.546-9.75,36.343-14.773,55.252-14.773c18.91,0,39.299,5.612,49.934,16.84
		c10.341,10.933,15.068,27.479,15.068,48.75v94.253c0,2.658-2.063,4.135-4.431,4.135h-79.48
		C205.708,734.48,191.822,731.23,181.776,723.252L181.776,723.252L181.776,723.252z M209.255,700.208
		c5.317,3.842,10.629,5.613,16.545,5.613h46.979v-46.684h-37.522c-28.07,0-34.275,16.834-34.275,25.703
		C200.982,691.054,203.937,695.774,209.255,700.208L209.255,700.208L209.255,700.208z"/>
	<path fill="#E9407B" d="M407.325,799.386V504.739c0-3.616,2.791-6.508,6.51-6.508c3.718,0,6.508,2.892,6.508,6.508v294.646
		c0,3.615-2.79,6.508-6.508,6.508C410.116,805.894,407.325,803.001,407.325,799.386L407.325,799.386L407.325,799.386z"/>
	<path fill="#E9407B" d="M601.604,734.895c-47.687,0-82.329-33.612-82.329-81.117c0-48.858,37.211-84.546,89.325-84.546
		c19.592,0,47.426,5.041,47.426,24.358c0,9.149-6.26,15.986-14.614,15.986c-3.244,0-6.263-1.032-10.33-3.453
		c-7.479-4.449-15.464-6.127-24.558-6.127c-30.903,0-53.168,19.502-53.168,51.878c0,32.949,23.055,52.253,50.525,52.253
		c11.461,0,21.761-3.522,30.146-9.082c3.074-2.039,5.822-3.135,9.04-3.135c7.749,0,13.646,6.36,13.488,15.035
		c-0.354,19.59-31.423,27.946-54.954,27.946h0.002V734.895z"/>
	<path fill="#E9407B" d="M681.102,734.893c-9.539,0-19.482-9.938-13.994-21.663l63.099-134.781
		c2.895-6.184,9.365-9.217,15.836-9.217s12.938,3.034,15.832,9.217l62.271,133.013c5.562,11.874-3.854,23.436-15.071,23.436
		c-6.208,0-12.104-3.334-14.937-9.388l-14.187-30.298h-70.438l-14.541,31.061c-2.63,5.618-8.104,8.625-13.869,8.625v-0.002l0,0
		V734.893L681.102,734.893z M767.761,667.282l-23.012-49.47l-23.015,49.47H767.761L767.761,667.282z"/>
	<path fill="#E9407B" d="M896.596,734.896c-22.215,0-57.523-5.035-57.523-25.54c0-8.91,6.602-15.521,15.795-15.521
		c4.837,0,8.521,1.854,12.976,4.086c6.782,3.4,15.339,7.691,32.427,7.691c20.411,0,31.979-6.341,31.979-17.59
		c0-28.889-90.5-9.004-90.5-67.724c0-31.56,24.131-51.067,69.315-51.067c18.945,0,48.87,3.453,48.87,23.633
		c0,9.145-6.6,15.518-15.731,15.518c-4.497,0-7.453-1.55-10.996-3.405c-5.296-2.776-11.904-6.238-26.938-6.238
		c-20.06,0-30.762,6.021-30.762,17.008c0,33.029,90.959,9.277,90.959,68.658c0,30.521-25.414,50.487-69.865,50.487L896.596,734.896
		L896.596,734.896L896.596,734.896z"/>
	<path fill="#E9407B" d="M990.253,718.328v-132.53c0-9.23,7.337-16.565,16.566-16.565c9.229,0,16.564,7.335,16.564,16.565v49.699
		h85.2v-49.699c0-9.23,7.337-16.565,16.566-16.565c9.229,0,16.564,7.335,16.564,16.565v84.017c0,9.229-7.338,16.565-16.564,16.565
		c-9.229,0-16.566-7.339-16.566-16.565v-3.552h-85.2v52.064c0,9.229-7.336,16.566-16.564,16.566
		C997.589,734.895,990.253,727.559,990.253,718.328L990.253,718.328L990.253,718.328z M1124.917,697.976
		c10.091,0,18.459,8.369,18.459,18.46c0,10.092-8.368,18.459-18.459,18.459s-18.46-8.367-18.46-18.459
		C1106.457,706.345,1114.825,697.976,1124.917,697.976L1124.917,697.976L1124.917,697.976z"/>
</g>
</svg>
