<?xml version="1.0" encoding="utf-8"?>
<!-- Generator: Adobe Illustrator 15.1.0, SVG Export Plug-In . SVG Version: 6.00 Build 0)  -->
<svg version="1.2" baseProfile="tiny-ps" id="Layer_1" xmlns="http://www.w3.org/2000/svg" xmlns:xlink="http://www.w3.org/1999/xlink"
	 width="1125px" height="1125px" viewBox="0 0 1125 1125" xml:space="preserve">
<title>Allegro Pay</title>
<g>
	<rect x="-1" fill="#FFFFFF" width="1125" height="1125"/>
	<path fill="#FF5A00" d="M180.348,630.904c-11.228-8.863-17.137-21.862-17.137-38.112v-0.593c0-48.161,51.704-54.363,68.842-54.363
		h39.297v-3.546c0-6.797-2.956-17.432-13.001-22.16c-14.182-7.387-42.252-5.022-65.889,9.751c-2.954,1.771-6.551,1.174-6.795-2.659
		l-1.477-23.342c-0.078-1.22,0.295-2.364,1.477-2.954c16.546-9.75,36.342-14.773,55.251-14.773s39.298,5.612,49.933,16.84
		c10.341,10.933,15.068,27.479,15.068,48.751v94.254c0,2.658-2.066,4.135-4.431,4.135h-79.479
		C204.279,642.133,190.394,638.882,180.348,630.904L180.348,630.904L180.348,630.904z M207.826,607.861
		c5.317,3.841,10.629,5.611,16.545,5.611h46.979V566.79h-37.522c-28.07,0-34.275,16.834-34.275,25.703
		c0,6.213,2.954,10.933,8.274,15.364h-0.001V607.861z"/>
	<path fill="#144393" d="M405.894,707.038V412.392c0-3.616,2.791-6.508,6.512-6.508c3.718,0,6.508,2.892,6.508,6.508v294.646
		c0,3.616-2.79,6.509-6.508,6.509C408.685,713.547,405.894,710.654,405.894,707.038z"/>
	<path fill="#144393" d="M536.535,519.483c10.092,0,18.46,8.368,18.46,18.46c0,10.092-8.368,18.459-18.46,18.459
		s-18.46-8.368-18.46-18.459C518.075,527.852,526.444,519.483,536.535,519.483z M654.094,536.115
		c0,38.164-27.771,60.287-63.166,60.287h-37.826v29.578c0,9.229-7.336,16.563-16.563,16.563c-9.23,0-16.523-7.336-16.523-16.563
		V582.34c0-9.367,7.334-16.703,16.623-16.703h51.112c20.183,0,33.213-8.705,33.213-27.755c0-19.05-13.03-27.751-33.213-27.751
		h-54.104c-8.567,0.045-15.547-6.932-15.547-15.501c0-8.569,6.813-15.384,15.386-15.384h57.447
		C629.409,479.248,654.094,500.148,654.094,536.115L654.094,536.115L654.094,536.115z"/>
	<path fill="#144393" d="M670.672,642.545c-9.539,0-19.484-9.939-13.996-21.664l63.1-134.78c2.895-6.184,9.362-9.218,15.836-9.218
		c6.471,0,12.938,3.034,15.832,9.218l62.271,133.013c5.562,11.875-3.853,23.434-15.073,23.434c-6.208,0-12.103-3.334-14.934-9.386
		l-14.188-30.298h-70.438l-14.54,31.06c-2.63,5.619-8.104,8.624-13.869,8.624V642.545L670.672,642.545L670.672,642.545z
		 M757.329,574.936l-23.011-49.471l-23.017,49.471H757.329L757.329,574.936z"/>
	<path fill="#144393" d="M805.63,493.355c0-10.021,8.492-16.481,16.646-16.481c5.643,0,10.99,2.946,14.24,8.105l46.577,73.167
		l46.985-73.656c3.02-4.778,7.964-7.512,13.18-7.512c7.741,0,15.409,6.072,15.409,15.31c0,2.693-0.646,5.477-2.223,7.94
		l-58.18,91.011v34.741c0,9.229-7.323,16.564-16.563,16.564s-16.566-7.336-16.566-16.564v-34.741l-57.11-89.343
		C806.327,499.243,805.63,496.251,805.63,493.355L805.63,493.355L805.63,493.355z"/>
</g>
</svg>
