<?xml version="1.0" encoding="UTF-8"?><svg xmlns="http://www.w3.org/2000/svg" viewBox="0 0 96 96" version="1.2" baseProfile="tiny-ps"><title>allegro.pl</title><defs></defs><path d="M70.52,42.58c0-7-1.5-12.3-4.8-16S56,21,49.92,21a33.2,33.2,0,0,0-17.3,4.8,1.23,1.23,0,0,0-.5,1l.4,7.7a1.34,1.34,0,0,0,1.5,1.1,1.14,1.14,0,0,0,.6-.3c7.4-4.8,16.3-5.6,20.9-3.3a8.42,8.42,0,0,1,4,7.4v1.1H47.12c-5.3,0-21.6,2.1-21.6,17.7v.2A15.36,15.36,0,0,0,30.72,71,20,20,0,0,0,44,75H69a1.53,1.53,0,0,0,1-.4,1.5,1.5,0,0,0,.4-1.1Zm-11,22.8H44.72a9,9,0,0,1-5.2-1.9,6.21,6.21,0,0,1-2.5-5.1c0-2.8,1.8-8.3,10.8-8.3h11.7Z" fill="#ff5a00"></path></svg>