<?xml version="1.0" encoding="utf-8" standalone="yes"?><!-- Generator: Adobe Illustrator 28.1.0, SVG Export Plug-In . SVG Version: 6.00 Build 0)  --><svg xmlns="http://www.w3.org/2000/svg" xmlns:xlink="http://www.w3.org/1999/xlink" version="1.2" baseProfile="tiny-ps" viewBox="0 0 110 110" xml:space="preserve"><title>Touring Club Suisse</title><rect fill="#FFEB00" width="110" height="110"></rect><linearGradient id="SVGID_1_" gradientUnits="userSpaceOnUse" x1="34.1633" y1="35.9664" x2="74.8889" y2="76.692"><stop offset="0" stop-color="#C6DFF7"></stop><stop offset="0.0037" stop-color="#C1DBF5"></stop><stop offset="0.044" stop-color="#8EB5DD"></stop><stop offset="0.0851" stop-color="#6395C8"></stop><stop offset="0.1263" stop-color="#3F7BB7"></stop><stop offset="0.1676" stop-color="#2367AA"></stop><stop offset="0.2092" stop-color="#1058A0"></stop><stop offset="0.2511" stop-color="#044F9B"></stop><stop offset="0.2939" stop-color="#004C99"></stop><stop offset="0.8806" stop-color="#004C99"></stop></linearGradient><circle fill="url(#SVGID_1_)" cx="54.526" cy="56.329" r="28.797"></circle><path fill="#003A73" d="M58.556,53.244c0.447,0.581,0.775,1.258,0.937,1.999c0.044,0.203,0.089,0.534,0.108,0.86  c0.025,0.432,0.257,0.825,0.621,1.058l0.408,0.261c-0.042-0.119-0.073-0.241-0.081-0.37c-0.019-0.326-0.063-0.657-0.108-0.86  C60.18,54.997,59.496,53.962,58.556,53.244z"></path><path fill="#003A73" d="M67.262,30.499c-0.201,1.486-0.496,2.946-0.926,4.19c-2.164,6.221-7.187,9.439-9.933,10.787l0.251,5.506  c0.02,0.447,0.267,0.844,0.641,1.088c0.144,0.094,0.283,0.196,0.416,0.303c-0.058-0.14-0.102-0.286-0.109-0.443l-0.251-5.506  c2.746-1.349,7.769-4.566,9.933-10.787c0.431-1.244,0.725-2.704,0.926-4.19c2.631,1.299,5.034,2.99,7.135,4.995  C73.031,34.02,70.299,31.999,67.262,30.499z"></path><path fill="#444000" d="M32.395,80.183c5.893,5.937,14.054,9.62,23.082,9.62C73.438,89.803,88,75.241,88,57.28  c0-8.577-3.322-16.375-8.747-22.184c-0.156-0.167-0.314-0.333-0.473-0.496l-0.199-0.156c0.142,0.156,0.283,0.314,0.422,0.473  c5.011,5.72,8.049,13.211,8.049,21.415c0,17.961-14.562,32.523-32.523,32.523c-8.58,0-16.377-3.327-22.189-8.754L32.395,80.183z"></path><path fill="#444000" d="M67.604,20.979l0.027,0.587c0.008,0.171,0.101,2.3-0.024,4.983c0.326,0.144,0.649,0.294,0.97,0.448  c0.092-2.442,0.01-4.321,0.003-4.482l-0.027-0.587c-0.024-0.514-0.337-0.971-0.809-1.178l-0.195-0.086  C67.578,20.765,67.599,20.87,67.604,20.979z"></path><path fill="#003A73" d="M34.606,77.118c-0.967-1.017-1.86-2.104-2.671-3.254c-0.472-0.668-0.235-1.602,0.491-1.979l19.475-10.091  c0.399-0.207,0.869-0.19,1.27,0.014c0.692,0.353,1.476,0.553,2.305,0.553c0.826,0,1.61-0.197,2.302-0.549  c0.4-0.203,0.869-0.22,1.268-0.014l19.194,9.941c-0.104-0.332-0.33-0.628-0.667-0.803L58.098,60.851  c-0.399-0.207-0.868-0.19-1.268,0.014c-0.692,0.351-1.476,0.549-2.302,0.549c-0.829,0-1.614-0.2-2.305-0.553  c-0.401-0.204-0.87-0.221-1.27-0.014L31.477,70.937c-0.726,0.376-0.963,1.31-0.491,1.979C32.055,74.432,33.27,75.838,34.606,77.118z  "></path><path fill="#003A73" d="M25.729,56.331c0,4.317,0.952,8.413,2.655,12.09c0.173,0.373,0.491,0.625,0.853,0.728  c-1.641-3.62-2.56-7.637-2.56-11.869c0-11.037,6.211-20.618,15.325-25.451c-0.079-0.438-0.151-0.881-0.212-1.328  C32.275,35.199,25.729,44.998,25.729,56.331z"></path><path fill="#FFFFFF" d="M67.607,26.549c0.124-2.682,0.032-4.811,0.024-4.982l-0.027-0.587c-0.024-0.514-0.337-0.971-0.809-1.178  l-0.539-0.237c-0.183-0.08-4.551-1.964-11.729-1.964c-7.177,0-11.549,1.884-11.732,1.964l-0.539,0.237  c-0.472,0.207-0.785,0.664-0.809,1.178l-0.027,0.588c-0.008,0.171-0.1,2.3,0.025,4.982C29.997,31.585,22,43.02,22,56.331  c0,17.961,14.562,32.523,32.528,32.523c17.961,0,32.523-14.562,32.523-32.523C87.051,43.02,79.054,31.585,67.607,26.549z   M28.384,68.421c-1.703-3.677-2.655-7.772-2.655-12.09c0-11.333,6.548-21.128,16.063-25.827c0.201,1.485,0.495,2.944,0.926,4.188  c2.166,6.228,7.19,9.438,9.934,10.783l-0.25,5.507c-0.02,0.447-0.267,0.844-0.642,1.089c-1.1,0.716-1.906,1.846-2.196,3.168  c-0.044,0.2-0.09,0.526-0.11,0.849c-0.027,0.438-0.254,0.838-0.623,1.074L30.346,68.987C29.656,69.429,28.729,69.164,28.384,68.421z   M78.065,72.916c-5.21,7.385-13.811,12.209-23.537,12.209c-9.731,0-18.332-4.825-23.542-12.21c-0.472-0.668-0.235-1.602,0.491-1.979  l19.475-10.091c0.399-0.207,0.869-0.19,1.27,0.014c0.692,0.352,1.476,0.553,2.306,0.553c0.826,0,1.61-0.197,2.302-0.549  c0.401-0.204,0.869-0.22,1.268-0.014l19.476,10.087C78.3,71.314,78.537,72.248,78.065,72.916z M78.705,68.987L60.222,57.161  c-0.364-0.233-0.597-0.626-0.621-1.058c-0.019-0.326-0.064-0.657-0.108-0.86c-0.289-1.324-1.096-2.455-2.197-3.172  c-0.375-0.244-0.621-0.642-0.641-1.088l-0.252-5.508c2.744-1.346,7.766-4.556,9.933-10.785c0.43-1.243,0.724-2.702,0.925-4.187  c9.514,4.699,16.062,14.496,16.062,25.828c0,4.317-0.952,8.413-2.655,12.089C80.322,69.164,79.395,69.429,78.705,68.987z"></path><linearGradient id="SVGID_00000078753838148161864880000015530084746290768537_" gradientUnits="userSpaceOnUse" x1="45.8987" y1="19.8508" x2="63.3385" y2="37.2906"><stop offset="0" stop-color="#FACEAF"></stop><stop offset="0.0406" stop-color="#F9C7A9"></stop><stop offset="0.0995" stop-color="#F7B499"></stop><stop offset="0.1698" stop-color="#F4947E"></stop><stop offset="0.2486" stop-color="#EF6858"></stop><stop offset="0.3335" stop-color="#E93029"></stop><stop offset="0.3987" stop-color="#E40000"></stop></linearGradient><path fill="url(#SVGID_00000078753838148161864880000015530084746290768537_)" d="M54.528,19.904c-5.492,0-9.18,1.162-10.38,1.603  c-0.26,0.095-0.433,0.336-0.441,0.613c-0.049,1.722-0.127,8.019,1.187,11.816c2.412,6.936,8.169,9.43,9.399,9.893  c0.151,0.057,0.317,0.057,0.468,0c1.23-0.463,6.986-2.957,9.399-9.893c1.315-3.798,1.236-10.098,1.186-11.818  c-0.008-0.276-0.18-0.516-0.439-0.611C63.709,21.067,60.022,19.904,54.528,19.904z"></path><path fill="#770400" d="M48.987,40.35c-1.323-1.441-2.574-3.315-3.416-5.737c-1.315-3.796-1.237-10.094-1.187-11.816  c0.008-0.277,0.181-0.518,0.441-0.613c1.2-0.44,4.888-1.603,10.38-1.603c5.167,0,8.734,1.028,10.137,1.517  c-0.016-0.267-0.183-0.498-0.435-0.591c-1.198-0.44-4.885-1.603-10.379-1.603c-5.492,0-9.18,1.162-10.38,1.603  c-0.26,0.095-0.433,0.336-0.441,0.613c-0.049,1.722-0.127,8.019,1.187,11.816c0.989,2.844,2.538,4.937,4.109,6.454"></path><path fill="#FFFFFF" d="M61.313,32.742h-4.222c-0.225,0-0.407,0.182-0.407,0.407v4.222c0,0.225-0.182,0.407-0.407,0.407h-3.503  c-0.225,0-0.407-0.182-0.407-0.407v-4.222c0-0.225-0.182-0.407-0.407-0.407h-4.222c-0.225,0-0.407-0.182-0.407-0.407v-3.503  c0-0.225,0.182-0.407,0.407-0.407h4.222c0.225,0,0.407-0.182,0.407-0.407v-4.221c0-0.225,0.182-0.407,0.407-0.407h3.502  c0.224,0,0.407,0.182,0.407,0.406l0.001,4.222c0,0.224,0.182,0.406,0.407,0.406h4.222c0.225,0,0.407,0.182,0.407,0.407v3.503  C61.719,32.56,61.537,32.742,61.313,32.742z"></path><path fill="#FFFFFF" d="M40.425,47.322v9.989c0,0.225-0.182,0.407-0.407,0.407h-2.495c-0.225,0-0.407-0.182-0.407-0.407v-9.989  c0-0.225-0.182-0.407-0.407-0.407h-3.355c-0.225,0-0.407-0.182-0.407-0.407v-1.997c0-0.225,0.182-0.407,0.407-0.407h10.831  c0.225,0,0.407,0.182,0.407,0.407v1.997c0,0.225-0.182,0.407-0.407,0.407h-3.355C40.607,46.916,40.425,47.098,40.425,47.322z"></path><path fill="#FFFFFF" d="M59.296,70.653h-2.643c-0.203,0-0.374-0.152-0.4-0.353c-0.129-0.985-0.82-1.54-2.005-1.54  c-1.09,0-1.797,0.516-1.797,1.281c0,0.899,0.726,1.185,2.715,1.683c2.62,0.65,4.914,1.358,4.914,4.34c0,2.658-2.18,4.36-5.564,4.36  c-3.361,0-5.479-1.536-5.682-4.297c-0.018-0.239,0.167-0.445,0.407-0.445h2.712c0.205,0,0.38,0.153,0.401,0.357  c0.121,1.16,0.863,1.746,2.238,1.746c1.243,0,2.008-0.555,2.008-1.434c0-1.032-0.784-1.242-2.601-1.72  c-2.6-0.669-4.952-1.339-4.952-4.283c0-2.486,2.065-4.149,5.334-4.149c3.255,0,5.143,1.384,5.321,4.035  C59.718,70.462,59.526,70.653,59.296,70.653z"></path><path fill="#FFFFFF" d="M76.815,49.083l-2.634,0c-0.189,0-0.36-0.129-0.396-0.314c-0.245-1.28-1.13-2.019-2.459-2.019  c-1.797,0-2.906,1.606-2.906,4.245c0,2.639,1.109,4.245,2.868,4.245c1.332,0,2.234-0.758,2.51-2.092  c0.039-0.189,0.215-0.318,0.407-0.318h2.651c0.25,0,0.438,0.224,0.403,0.472c-0.436,3.088-2.674,4.805-5.971,4.805  c-3.919,0-6.328-2.696-6.328-7.113c0-4.417,2.428-7.113,6.367-7.113c3.353,0,5.577,1.841,5.895,4.762  C77.247,48.88,77.052,49.083,76.815,49.083z"></path><g></g><g></g><g></g><g></g><g></g><g></g><g></g><g></g><g></g><g></g><g></g><g></g><g></g><g></g><g></g></svg>