<svg version="1.2" baseProfile="tiny-ps" width="512" height="512" viewBox="0 0 512 512" fill="none" xmlns="http://www.w3.org/2000/svg">
<title>Pretto</title>
<rect width="512" height="512" fill="white"/>
<rect width="512" height="512" fill="#006855"/>
<rect width="498" height="187.247" transform="translate(9.00024 159.72)" fill="#00685A"/>
<path d="M128.706 215.594C125.476 210.063 120.981 205.782 115.175 202.72C109.37 199.672 102.605 198.149 94.8791 198.149H49.9131V302.303H73.8665C76.2588 302.303 78.1787 300.368 78.1787 297.991V271.389H93.8429C101.782 271.389 108.715 269.911 114.673 266.97C120.631 264.015 125.247 259.809 128.554 254.355C131.861 248.9 133.521 242.44 133.521 234.975C133.521 227.509 131.906 221.125 128.691 215.594H128.706ZM102.132 242.654C100.867 244.817 99.0542 246.493 96.6923 247.666C94.3305 248.839 91.4963 249.418 88.1746 249.418H78.2092V220.729H88.1746C91.4963 220.729 94.3305 221.292 96.6923 222.435C99.0542 223.578 100.867 225.193 102.132 227.326C103.397 229.459 104.037 232.003 104.037 234.975C104.037 237.946 103.397 240.49 102.132 242.654Z" fill="white"/>
<path d="M140.546 302.303V224.187H167.806V239.043H168.614C170.031 233.542 172.301 229.535 175.409 226.991C178.518 224.446 182.144 223.182 186.32 223.182C187.539 223.182 188.758 223.273 189.961 223.456C191.165 223.639 192.323 223.898 193.451 224.248V248.199C192.064 247.727 190.342 247.361 188.316 247.133C186.289 246.904 184.537 246.783 183.074 246.783C180.331 246.783 177.863 247.407 175.669 248.641C173.474 249.875 171.752 251.612 170.503 253.837C169.254 256.061 168.614 258.667 168.614 261.638V302.318H140.531L140.546 302.303Z" fill="white"/>
<path d="M380.553 281.247C380.004 281.384 379.166 281.551 378.038 281.749C376.895 281.947 375.905 282.054 375.067 282.054C373.848 282.054 372.842 281.871 372.065 281.521C371.288 281.17 370.709 280.622 370.343 279.891C369.962 279.159 369.78 278.26 369.78 277.163V244.512H384.484V224.172H369.78V202.933H341.697V224.187H311.785V202.933H283.703V224.187H273.524V244.528H283.703V279.83C283.642 285.284 284.708 289.825 286.903 293.466C289.112 297.092 292.403 299.743 296.776 301.419C301.15 303.095 306.559 303.766 313.005 303.43C316.189 303.263 318.947 302.897 321.263 302.364C323.579 301.831 325.377 301.358 326.627 300.993L322.558 281.262C322.01 281.399 321.172 281.567 320.044 281.765C318.901 281.963 317.911 282.069 317.073 282.069C315.854 282.069 314.848 281.887 314.071 281.536C313.294 281.186 312.715 280.637 312.349 279.906C311.968 279.175 311.785 278.276 311.785 277.179V248.839C311.785 246.447 313.721 244.528 316.098 244.528H341.682V279.83C341.621 285.284 342.687 289.825 344.881 293.466C347.091 297.092 350.382 299.743 354.755 301.419C359.129 303.095 364.538 303.766 370.983 303.43C374.168 303.263 376.926 302.897 379.242 302.364C381.558 301.831 383.356 301.358 384.606 300.993L380.537 281.262L380.553 281.247Z" fill="white"/>
<path d="M426.646 303.735C418.174 303.735 410.906 302.044 404.872 298.677C398.838 295.31 394.205 290.586 390.99 284.538C387.76 278.489 386.16 271.465 386.16 263.451C386.16 255.437 387.775 248.428 390.99 242.364C394.205 236.315 398.838 231.592 404.872 228.225C410.906 224.858 418.159 223.167 426.646 223.167C435.133 223.167 442.386 224.858 448.421 228.225C454.455 231.592 459.087 236.315 462.302 242.364C465.517 248.413 467.132 255.437 467.132 263.451C467.132 271.465 465.517 278.474 462.302 284.538C459.087 290.586 454.455 295.31 448.421 298.677C442.386 302.044 435.133 303.735 426.646 303.735ZM426.859 282.984C429.236 282.984 431.278 282.191 433.015 280.591C434.737 279.007 436.078 276.721 437.038 273.781C437.998 270.84 438.455 267.321 438.455 263.253C438.455 259.185 437.983 255.635 437.038 252.694C436.093 249.754 434.752 247.499 433.015 245.899C431.294 244.314 429.236 243.507 426.859 243.507C424.345 243.507 422.197 244.299 420.399 245.899C418.601 247.499 417.229 249.754 416.285 252.694C415.34 255.635 414.867 259.139 414.867 263.253C414.867 267.367 415.34 270.825 416.285 273.781C417.229 276.737 418.601 279.007 420.399 280.591C422.197 282.191 424.345 282.984 426.859 282.984Z" fill="white"/>
<path d="M273.28 269.682V263.177C273.28 256.975 272.366 251.399 270.537 246.447C268.709 241.496 266.088 237.29 262.705 233.801C259.307 230.327 255.224 227.676 250.454 225.848C245.67 224.02 240.337 223.106 234.44 223.106C226.364 223.106 219.37 224.782 213.427 228.133C207.485 231.485 202.898 236.193 199.637 242.227C196.376 248.26 194.746 255.315 194.746 263.39C194.746 271.465 196.361 279.007 199.607 285.025C202.837 291.043 207.469 295.66 213.488 298.86C219.507 302.059 226.684 303.659 235.034 303.659C242.257 303.659 248.565 302.562 253.974 300.383C259.384 298.204 265.585 293.588 268.877 289.596L253.654 274.131C245.746 283.456 237.914 283.578 237.914 283.578C222.265 284.888 222.417 270.901 222.417 270.901V269.682H273.28ZM224.215 248.276C225.358 246.584 226.867 245.244 228.771 244.284C230.676 243.324 232.748 242.836 235.034 242.836C237.32 242.836 239.468 243.324 241.312 244.284C243.156 245.244 244.634 246.584 245.731 248.306C246.828 250.013 247.407 251.993 247.437 254.233H222.417C222.478 251.963 223.088 249.982 224.231 248.276H224.215Z" fill="white"/>
</svg>
