<?xml version="1.0" encoding="utf-8"?>
<!-- Generator: Adobe Illustrator 27.9.1, SVG Export Plug-In . SVG Version: 6.00 Build 0)  -->
<svg version="1.2" baseProfile="tiny-ps" id="Layer_1" xmlns="http://www.w3.org/2000/svg" xmlns:xlink="http://www.w3.org/1999/xlink"
	 viewBox="0 0 100 100" xml:space="preserve">
<title>Maryland Institute College of Art</title>
<g>
	<rect y="0" width="100" height="100"/>
	<g>
		<polygon fill="#FFFFFF" points="38.6,56.9 38.6,53.5 40.2,53.5 40.2,46.5 38.6,46.5 38.6,43.1 47.9,43.1 47.9,46.5 46.3,46.5 
			46.3,53.5 47.9,53.5 47.9,56.9 38.6,56.9 		"/>
		<path fill="#FFFFFF" d="M66,49.5v-0.2c0-1.3-0.4-3.1-2-3.1c-2.1,0-2.2,2.3-2.2,3.8c0,1.5,0.2,3.9,2.3,3.9c1.9,0,2.2-1.5,2-3.1h4
			v0.3v0.4c0,4.1-3.2,5.6-6.9,5.6c-4.7,0-7.9-2.3-7.9-7.2c0-4.1,2.6-7.2,6.8-7.2c2,0,3,0.6,4.2,2.2l0-1.9H70v6.5H66L66,49.5z"/>
		<polygon fill="#FFFFFF" points="34.2,39.6 34.2,60.4 34.9,60.4 34.9,39.6 34.2,39.6 		"/>
		<polygon fill="#FFFFFF" points="51.2,39.6 51.2,60.4 51.9,60.4 51.9,39.6 51.2,39.6 		"/>
		<polygon fill="#FFFFFF" points="70.4,60.3 71,60.5 78,39.7 77.5,39.5 70.4,60.3 		"/>
		<path fill="#FFFFFF" d="M12.9,53.5h1.3v3.5H7.5v-3.5H9v-7H7.5v-3.4H18c0.4,1.2,0.9,2.4,1.2,3.7c0.4-1.3,0.9-2.5,1.4-3.7h9.1v3.4
			h-1.5v7h1.5v3.5h-8.1v-3.5h1.2v-6l-3.6,9.5h-2.3l-3.9-9.3V53.5L12.9,53.5z"/>
		<path fill="#FFFFFF" d="M83.7,56.9v-3.5h1.5c-0.2-0.5-0.4-1.1-0.5-1.6h-3.5c-0.1,0.5-0.4,1.1-0.5,1.6h1.5v3.5h-5.8v-3.5h1.2
			c1.2-3.5,2.3-6.9,3.5-10.4h6.3c1.1,3.5,2.2,7,3.4,10.4h1.7v3.5H83.7L83.7,56.9z M82.9,46.5c-0.2,0.9-0.9,2.9-1.2,3.8h2.5
			C83.9,49.3,83.1,47.5,82.9,46.5L82.9,46.5z"/>
	</g>
</g>
</svg>
