<?xml version="1.0" encoding="utf-8"?>
<svg version="1.2" baseProfile="tiny-ps" xmlns="http://www.w3.org/2000/svg"
 viewBox="0 0 178 178"
 preserveAspectRatio="xMidYMid meet">
<title>Craigslist</title>
<g transform="translate(2,181) scale(0.100000,-0.100000)"
fill="#551A8B" stroke="none">
<path d="M725 1606 c-139 -33 -249 -92 -341 -183 -230 -227 -277 -565 -119
-850 46 -81 166 -204 247 -251 173 -102 399 -124 588 -58 104 36 175 81 261
166 371 367 220 996 -278 1157 -97 31 -266 40 -358 19z m85 -389 l0 -262 -193
-193 -194 -194 -32 51 c-105 163 -116 381 -29 559 44 91 159 206 249 250 64
31 176 63 192 55 4 -2 7 -122 7 -266z m319 210 c90 -43 205 -159 249 -249 87
-179 76 -395 -29 -559 l-32 -51 -194 194 -193 193 0 261 c0 143 3 263 6 266
10 11 128 -23 193 -55z m-319 -867 c0 -228 8 -212 -95 -185 -59 16 -129 50
-175 85 l-25 19 140 141 c77 77 143 140 147 140 5 0 8 -90 8 -200z m275 60
l140 -141 -25 -19 c-46 -35 -116 -69 -175 -85 -103 -27 -95 -43 -95 185 0 110
3 200 8 200 4 0 70 -63 147 -140z"/>
</g>
</svg>
