<?xml version="1.0" encoding="UTF-8"?>
<!-- Generator: Adobe Illustrator 28.3.0, SVG Export Plug-In . SVG Version: 6.00 Build 0) -->
<svg version="1.2" baseProfile="tiny-ps" id="Layer_2" xmlns="http://www.w3.org/2000/svg" xmlns:xlink="http://www.w3.org/1999/xlink" viewBox="0 0 140 140" xml:space="preserve">
    <title>Mastro's Restaurants</title>
    <g>
        <g>
            <path d="M122.97,46.2c-0.32,0.4-5.13,6.27-5.22,6.38c-0.14,0-17.41,0.08-17.41,0.08l0.14,0.23c3.56,5.66,5.46,12.19,5.49,18.88
			c0.09,19.77-15.92,35.93-35.69,36.03c-19.77,0.09-35.94-15.91-36.03-35.69c-0.03-6.7,1.81-13.26,5.33-18.96l0.14-0.23
			c0,0-17.3,0.08-17.44,0.08c-0.09-0.11-2.51-3.01-2.51-3.01s-2.08-2.49-2.74-3.28c0.63,0,36.08-0.17,37.06-0.18
			c-2.56,1.61-4.84,3.55-6.77,5.78c-4.74,5.5-7.33,12.52-7.29,19.77c0.08,16.59,13.64,30.02,30.23,29.94
			c16.59-0.08,30.02-13.64,29.94-30.23c-0.03-7.25-2.69-14.25-7.48-19.7c-1.95-2.21-4.24-4.13-6.82-5.72
			C86.88,46.37,122.34,46.21,122.97,46.2z" />
        </g>
        <g>
            <g>
                <path d="M87.26,60.68C87.26,60.68,87.26,60.68,87.26,60.68L87.26,60.68z" />
                <path d="M89.55,55.82c-0.17,0.25-0.42,0.62-0.42,0.62c-0.97,1.43-1.64,2.84-2.02,4.19c-0.38,1.35-0.57,3.05-0.56,5.06l0.07,13.73
				c0.01,2.01,0.1,3.73,0.27,5.11c0.17,1.37,0.48,2.8,0.9,4.23c0,0,0.09,0.3,0.15,0.51c-0.38,0-7.91,0.04-8.28,0.04
				c0.06-0.21,0.14-0.51,0.14-0.51c0.39-1.38,0.67-2.79,0.84-4.19c0.16-1.38,0.23-3.12,0.22-5.16l-0.06-12.91
				c0,0-10.1,13.3-10.33,13.6c-0.24-0.29-10.49-12.81-10.49-12.81l0.06,12.21c0.01,2.02,0.1,3.74,0.27,5.11
				c0.14,1.05,0.76,3.54,1.07,4.74c-0.36,0-7.93,0.04-8.3,0.04c0.06-0.2,0.14-0.51,0.14-0.51c0.39-1.38,0.68-2.79,0.84-4.19
				c0.15-1.39,0.23-3.12,0.22-5.16l-0.09-19.12c0,0-3.48-4-3.87-4.44c0.61,0,8.64-0.04,8.92-0.04c0.01,0.15,0.01,0.38,0.01,0.38
				c0.01,0.37,0.13,0.8,0.37,1.32c0.23,0.51,0.54,0.99,0.93,1.46l10.04,12.28l9.04-11.63c0.51-0.64,0.95-1.31,1.3-2
				c0.31-0.63,0.47-1.14,0.47-1.52c0,0,0-0.24,0-0.4C81.7,55.86,89.02,55.83,89.55,55.82z" />
            </g>
        </g>
    </g>
</svg>
