<?xml version="1.0" encoding="UTF-8"?><svg version="1.2" baseProfile="tiny-ps" viewBox="0 0 400 400" xmlns="http://www.w3.org/2000/svg" xmlns:xlink="http://www.w3.org/1999/xlink"><title>GPlusMedia Inc.</title><defs><linearGradient id="linear-gradient" x1="65.027" y1="110.647" x2="350.76" y2="275.615" gradientUnits="userSpaceOnUse"><stop offset=".064" stop-color="#8facb4"/><stop offset=".231" stop-color="#98a3ae"/><stop offset=".514" stop-color="#b38c9f"/><stop offset=".877" stop-color="#de6787"/><stop offset=".957" stop-color="#e95f82"/></linearGradient></defs><rect width="100%" height="100%" fill="white"/><path fill="url(#linear-gradient)" d="m199.605,42.486c-85.951,0-156.472,65.719-164.203,149.654,18.808-55.719,67.231-94.798,133.674-94.798,59.181,0,122.36,31.573,129.161,103.146h-74.374c-2.406-24.4-26.383-39.186-56.378-39.186-47.97,0-66.368,42.374-66.368,84.765s18.398,84.749,66.368,84.749c36.796,0,61.587-17.194,65.57-43.171h-51.974v-55.176h119.949v105.046c38.674-30.193,63.57-77.207,63.57-130.045,0-91.127-73.871-164.982-164.993-164.982Z"/></svg>