<?xml version="1.0" encoding="utf-8" standalone="yes"?><svg xmlns="http://www.w3.org/2000/svg" xmlns:xlink="http://www.w3.org/1999/xlink" version="1.2" baseProfile="tiny-ps" viewBox="0 0 85.4 85.4" xml:space="preserve"><title>Netcraft Solutions s.r.o.</title><rect y="0" fill="#3B266B" width="85.4" height="85.4"></rect><polygon fill="#F9F9F9" points="25,23.7 23.2,23.7 23.2,17 17.5,17 17.5,23.7 15.6,23.7 15.6,15.1 25,15.1 "></polygon><polygon fill="#F9F9F9" points="25,50.9 15.6,50.9 15.6,28.7 25,28.7 25,30.5 17.5,30.5 17.5,49.1 25,49.1 "></polygon><rect x="64.2" y="21.9" fill="#F9F9F9" width="10.2" height="1.8"></rect><polygon fill="#F9F9F9" points="70.2,56.9 68.4,56.9 68.4,37.3 47.6,37.3 47.6,56.9 45.8,56.9 45.8,35.5 70.2,35.5 "></polygon><rect x="68.4" y="15.1" fill="#F9F9F9" width="1.8" height="15.4"></rect><polygon fill="#F9F9F9" points="58.2,30.5 31.2,30.5 31.2,15.1 58.2,15.1 58.2,17 33,17 33,28.7 58.2,28.7 "></polygon><rect x="32.1" y="21.9" fill="#F9F9F9" width="26.1" height="1.8"></rect><rect x="15.6" y="61.8" fill="#F9F9F9" width="24.4" height="1.8"></rect><rect x="45.8" y="61.8" fill="#F9F9F9" width="24.4" height="1.8"></rect><rect x="56.9" y="55.2" fill="#F9F9F9" width="1.8" height="15.1"></rect><polygon fill="#F9F9F9" points="17.5,70.4 15.6,70.4 15.6,55.1 40.1,55.1 40.1,56.9 17.5,56.9 "></polygon><rect x="45.8" y="42.3" fill="#F9F9F9" width="24.4" height="1.8"></rect><polygon fill="#F9F9F9" points="31.2,50.9 33,50.9 33,46.6 37.4,50.9 40,50.9 33.1,44.1 40.1,44.1 40.1,35.5 31.2,35.5 31.2,37.3   38.2,37.3 38.2,42.3 31.2,42.3 31.2,44.7 31.2,44.8 31.2,44.8 "></polygon><rect x="68.4" y="68.5" fill="#F9F9F9" width="1.8" height="1.8"></rect></svg>
