<svg xmlns="http://www.w3.org/2000/svg" xml:space="preserve" baseProfile="tiny-ps" version="1.2" viewBox="0 0 576 576">
<title>Indian Institute of Technology Bombay</title>
<path fill="#005BAA" d="M525 295h-1l-32 11a232 232 0 0 1-4 27v2l3 2 25 19c-5 18-13 34-21 49l-33-7-1 2-18 25-12-9-11-9-21-18-2-1 2-2 5-5c6-8 11-16 15-25a146 146 0 0 0 11-29 145 145 0 0 0 4-36c0-9 0-17-2-25a141 141 0 0 0-13-40 148 148 0 0 0-50-57c-16-11-35-19-58-23a152 152 0 0 0-25-2 147 147 0 0 0-110 51 139 139 0 0 0-21 33 159 159 0 0 0-7 20 144 144 0 0 0-5 21c-2 9-2 17-2 26 0 8 2 16 3 23 7 30 19 52 36 72l-6 5-17 13a7708 7708 0 0 0-22 19l-3-4-18-24-35 6v-1a238 238 0 0 1-6-11c-6-12-10-25-14-39l1-1 29-17c-3-10-4-20-5-31l-34-10a193 193 0 0 1 6-53l35-5a243 243 0 0 1 9-27l1-1-2-2-4-5-19-18a193 193 0 0 1 27-42 75 75 0 0 1 5-5l30 15 3-3 14-13 6-5-10-33 1-1c15-9 30-19 47-26l6 7 12 13 6 6a190 190 0 0 1 31-8l1-4 8-30c17-2 37-1 53 1l8 34c11 2 21 4 31 8l1-2 24-23a240 240 0 0 1 24 12l22 14-9 33 6 5 11 11 6 6 29-11 2-1 2 2a268 268 0 0 1 27 42l-3 3-21 22 10 27 34 5c3 15 5 33 5 52zm-9-7c0-13-2-26-4-37l-33-5-6-19-7-18 12-12 8-9 3-3c-5-10-11-20-18-29l-3-4-31 12c-8-10-18-19-28-27l-2-2v-2l9-30c-10-8-22-14-34-19l-25 24c-12-4-25-9-40-11l-8-33a219 219 0 0 0-39-1l-9 34c-15 2-29 6-41 10l-6-6-16-18-1-1c-12 5-23 12-34 18l-2 2 11 32-5 3-26 25h-1a2638 2638 0 0 1-30-14l-3 4a178 178 0 0 0-20 30l6 6 17 17 1 2-1 2-1 2c-5 11-8 22-11 34l-35 5c-3 11-4 24-4 38l33 10c1 16 3 29 6 42l-14 9-13 8-2 1a223 223 0 0 0 14 35l1 2 35-6a174 174 0 0 0 17 25l24-19 8-6a151 151 0 0 1-32-128 143 143 0 0 1 9-31l4-10a155 155 0 0 1 53-58 173 173 0 0 1 17-10c9-5 20-9 30-12a150 150 0 0 1 37-4c18 0 34 2 48 7a153 153 0 0 1 38 17 156 156 0 0 1 53 58 156 156 0 0 1 15 40 158 158 0 0 1 2 51 155 155 0 0 1-12 43 159 159 0 0 1-20 35 636 636 0 0 0 31 26l16-23 1-2 33 7c6-11 11-23 15-36l-26-19-2-2c3-12 5-25 6-39a1814 1814 0 0 0 32-11z"/><path fill="#FFF" d="M513 251c2 11 3 24 3 38l-32 10c-1 14-3 28-6 40l2 1 26 19c-4 13-9 25-15 37l-33-8-1 2-15 23a636 636 0 0 1-32-26 159 159 0 0 0 21-35 155 155 0 0 0 11-43c2-18 1-36-2-51a156 156 0 0 0-15-40 156 156 0 0 0-53-58 153 153 0 0 0-38-17 159 159 0 0 0-84-2 151 151 0 0 0-31 11 173 173 0 0 0-17 10 156 156 0 0 0-52 58l-5 10a143 143 0 0 0-9 31c-3 16-4 34-2 51 5 31 18 56 34 77l-8 6-24 19a174 174 0 0 1-17-25l-35 6-1-2a222 222 0 0 1-14-35l2-1 13-8 15-9c-3-13-6-26-6-42l-34-10c0-14 1-27 4-38l35-5 11-33 1-3 1-2-1-2-17-17-6-6a178 178 0 0 1 20-30l3-4 30 15 1-1c8-9 18-17 27-25l4-3-11-32 2-2c11-6 22-13 34-18l2 1 15 18 6 6c13-4 26-8 41-10l9-33a219 219 0 0 1 39 0l8 33c15 3 28 7 40 11l25-24c12 5 24 12 34 19l-8 30-1 2 2 2a189 189 0 0 1 28 27c11-4 21-7 31-12l3 4 19 29-3 3-9 9a367 367 0 0 0-12 12l7 18c3 6 4 12 6 19l34 5zm-78 219 4 2-19 34-3-1 18-35z"/><path fill="#005BAA" d="M430 458a196 196 0 0 1 20 11l-26 48c-18-9-37-16-58-21l5-22a334 334 0 0 0-170-1l5 22c-21 5-40 13-58 21l-1-1a7983 7983 0 0 0-25-46 167 167 0 0 1 26-14l-1-4-5-11a345 345 0 0 1 129-31h5l28 1 20 1a351 351 0 0 1 106 30 379 379 0 0 1-7 14l7 3zm9 14-4-2-18 35 3 1 19-34zm-7-4-4-2-2 3-16 32 3 2 19-35zm-8-4-4-2-17 37 3 1 18-36zm-19 11 14-30c-19-8-40-15-63-20l-17-3-18-3a321 321 0 0 0-76 1 340 340 0 0 0-92 24l13 28 1 2a376 376 0 0 1 238 1zm0 10v-1l-5 2-4 10 3 1a599 599 0 0 0 6-12zm-10 2-4 1-2 5 3 2 3-8zm-9 2-5 1h-3l7 2 1-3zm-199 3 6-2-7-1 1 3zm-4 1-2-6h-4l3 7 3-1zm-10 4 3-1-4-11-5-1 6 13zm-6 2 2-1a951 951 0 0 0-17-36l-4 2a1877 1877 0 0 0 18 36l1-1zm-8 4 3-2-18-35-4 2a5296 5296 0 0 0 16 30l3 5zm-8 3 3-2-18-34-3 2 18 34z"/><path fill="#FFF" d="m428 466 4 2-19 35-3-2 16-32 2-3zm-8-4 4 2-18 36-3-1 17-37zm-1-17-14 30a341 341 0 0 0-119-20c-45 0-85 8-119 19l-1-2-13-28a340 340 0 0 1 92-24 322 322 0 0 1 76-1l18 3a399 399 0 0 1 80 23zm-14 39v1a596 596 0 0 1-6 12l-3-1 4-10 5-2zm-10 3a264 264 0 0 1-3 8l-3-2 2-5 4-1zm-9 2-1 3-7-2h3l5-1z"/><path fill="#005BAA" d="M367 211c1 1 3 2 3 4l-10 8c-5 7-8 16-14 22a28 28 0 0 1-12 6l3 2c3 2 5 6 7 9l6 7 9 2-2 6a34 34 0 0 1-5 5 33 33 0 0 1-11 6 37 37 0 0 1-7 2h-8c-5-1-11-2-14-4a6 6 0 0 1-1-2c-3 5-9 7-15 8-4 8-6 21-3 31a46 46 0 0 1 18-2l9 1c5 2 9 4 15 4h10l21 36c-2 3-5 9-3 13l5 5h-68l-3 2a20 20 0 0 1-11 3c-6 0-10-3-13-5h-67c1-2 3-4 3-7-1-4-5-8-6-11l1-3 6-6 22-28 21-1 9-1c5-2 11-2 17 0a65 65 0 0 1-1-17 56 56 0 0 1 4-14c-5-2-11-4-14-7l-2-1-2-2-2 1-15 4-11-2c-4-1-8-3-11-6a27 27 0 0 1-6-6l-2-4 3-2c3-1 5-4 6-7l8-10a23 23 0 0 1-11-7c-5-6-7-15-11-21l-4-4-5-4a10 10 0 0 1 8-6h11a31 31 0 0 0-3-7l-5-6c2-2 7-3 11-2 5 0 9 3 11 6 0-6-1-11-3-15l-1-2 7-1c7 1 12 4 15 8l2-13-1-6c11-1 18 4 23 10 2-4 4-9 7-12 1-2 2-4 4-4a77 77 0 0 1 11 17l1-1c5-5 12-10 23-8a60 60 0 0 0-4 16l2-1c3-2 7-4 12-4l6 1-1 4-3 10 3-1 3-1h11l3 2-2 3c-3 3-5 7-6 11l2-1c5-2 13-2 17 0zm-6 153 1-1-27-3-12-2-14-1c-7 1-13 3-18 6l2 2a36 36 0 0 1 19-6c8-1 17 1 25 2l18 3h6zm-2-147c1-1 2-1 1-2l-2-1-10 5-3 3v2a49 49 0 0 1-3 6 41 41 0 0 1-5 7c-3 4-6 8-10 10l-2 1c4 1 7 0 10-1a26 26 0 0 0 7-4c6-5 9-12 12-19a56 56 0 0 1 5-7zm2 143-1-2-16-26-1-2-17-2c-5-1-10-4-15-4a38 38 0 0 0-18 3l-4 2v4l-1 24v4l2-1a34 34 0 0 1 13-5h20l18 3 20 2zm-1 16a2 2 0 0 1 0-1h-11l-10-1-22-1a76 76 0 0 0-16 3h-2 61zm-2-6c1 0 2 0 2-2-16 2-29-4-45-3a41 41 0 0 0-18 4c0 1-2 1-1 2l1-1c8-3 17-4 28-4l16 2 7 1 10 1zm0 3 1-1h-1c-7 1-14-1-21-2-8-1-17-2-25-1-5 0-9 2-13 3l-2 2h2a79 79 0 0 1 12-3c11-1 23 0 33 2h14zm2-7c-17 1-30-6-47-5l-11 2a33 33 0 0 0-7 3l-1 1v1l2-1a41 41 0 0 1 12-4c12-2 24 1 34 2 6 1 12 2 18 1zm-13-163 2-3c-3-1-6 0-9 2l-4 2-1 3-1 10-4 12a59 59 0 0 1-5 10l-7 7s-1 0 0 0c5 0 9-3 12-6 3-4 7-8 8-12 3-4 4-9 5-14a46 46 0 0 1 3-8 59 59 0 0 1 1-3zm4 71a23 23 0 0 1-8-6l-4-6-6-7c-3-2-6-2-10-2l-14-1c2 4 5 8 6 14l1 6 4 2a45 45 0 0 0 13 3c6 1 15 0 18-3zm-4 6-4 1v2a17 17 0 0 0 4-3zm-7 5v-3a7 7 0 0 0-2 0v3h2zm-5 1v-4h-2v4h2zm-3-88 1-9c-2-1-3 0-5 1l-3 1-2 2-3 3v3l1 12-2 14c-2 7-4 12-8 16l-4 4a20 20 0 0 0 13-7c3-4 6-9 7-14a55 55 0 0 0 2-8l3-18zm-2 88v-4l-3-1v5h3zm-6-1v-5l-3-1v6h3zm-6-2v-5l-3-1v5l3 1zm-2-67c0-13-3-28 1-39l-6 1a27 27 0 0 0-9 9c3 7 5 16 5 26 0 12-4 22-9 29l2 1 2-1a24 24 0 0 0 9-9c3-4 4-10 5-17zm-12 57c3-1 6-4 5-9 0-4-2-7-3-9a22 22 0 0 0-11-7l-9-1a22 22 0 0 0-10 3c-3 2-5 4-6 7-2 2-3 4-3 7 0 6 5 11 12 11l5-1a26 26 0 0 0 5-2c2 3 7 4 11 3l4-2zm4 8v-5l-2 1v7l2-3zm-5 5v-8h-3v9l3-1zm-4-57a60 60 0 0 0 3-21c0-8-2-14-4-20a36 36 0 0 0-10-16c-4 4-7 10-9 16a71 71 0 0 0-5 20c-1 8 1 16 3 22 1 4 4 8 7 11l5 2 4-2c3-3 5-7 6-12zm-2 51-1-1h-3v9a41 41 0 0 0 4 0v-8zm-3 98-1-5a31 31 0 0 0-6-9h-1l-6 9-1 5 2 2h11l2-2zm-4-85-4-1-1 2a47 47 0 0 0-1 5c-2 8-2 18 0 25l3 2h1a60 60 0 0 1-1-18l3-15zm0-5v-9l-2-1-1 1-1 9h4zm-6 72 2-30c-4-4-10-5-17-5l-8 1c-8 2-18 3-27 2l-13 16-12 15v1c14 0 26-4 39-5h21a38 38 0 0 1 8 2l6 3h1zm-1-72v-9h-3v8l3 1zm-1 75-1-1h-1a30 30 0 0 0-7-3c-6-2-14-2-21-1-15 1-29 6-45 5l2 1a42 42 0 0 0 8 0l29-4c6-1 13-2 20-1 6 0 11 2 14 4h2zm-2 3-1-1c-5-3-14-4-23-4-15 1-30 5-47 5l2 1 17-1c11-2 23-4 36-4a42 42 0 0 1 14 4h2zm-3 4 1-2c-5-2-12-4-19-4-17 1-31 6-48 5h23c8-1 14-3 22-3s15 2 21 4zm0-84v-7l-3-1v6a7 7 0 0 0 3 2zm-1 88v-2l-5-1a54 54 0 0 0-27-1l-10 2h-22 1l1 1h19l21-2 17 2 5 1zm-1 3v-1h-2a92 92 0 0 0-8-2h-23c-9 1-20 2-30 1v1h54l9 1zm-2-186 1-3v-3a18 18 0 0 0-5-6c-2-2-5-4-8-4a147 147 0 0 1-3 19c-1 7-2 14-1 21l2 9c2 6 6 11 10 14l9 3a33 33 0 0 1-6-10c-2-4-2-9-3-15l2-15a85 85 0 0 1 2-10zm-2 91v-4a5 5 0 0 1-2-2v3l2 3zm-19-45a23 23 0 0 0 19 7 34 34 0 0 1-10-7c-6-6-9-15-9-26l1-14v-1l-1-2-7-7-5-1v2l1 8v10c0 7 1 13 3 18a39 39 0 0 0 8 13zm10 39v-6h-2v7l2-1zm-19-35a25 25 0 0 0 16 6l-1-1a39 39 0 0 1-9-6c-7-7-12-18-13-31v-4l-2-3c-3-3-6-5-11-5h-1l1 3a49 49 0 0 1 2 4l3 8a151 151 0 0 0 5 17 31 31 0 0 0 10 12zm14 38v-8l-3 1v8l3-1zm-5 2v-8l-3 1v8l3-1zm-6 1v-8l-3 1 1 7h2zm-2-35h-1a35 35 0 0 1-12-12l-3-9-2-7-1-2-4-4a13 13 0 0 0-7-1l-4 1 2 2 3 4v1l7 15c4 7 10 13 22 12zm-3 35v-7h-3v7h3zm-6-1a29 29 0 0 0 0-6h-2a20 20 0 0 0 0 5l2 1zm-5-3v-3h-4l4 3z"/><path fill="#FFF" d="m362 363-1 1h-6l-18-3c-8-1-17-3-25-2a36 36 0 0 0-19 6l-2-2c5-3 11-5 18-6l14 1 12 2 27 3zm-2-148c1 1 0 1-1 2a56 56 0 0 0-5 7c-3 7-6 14-12 19a26 26 0 0 1-7 4c-3 1-6 2-10 1l2-1c4-2 7-6 10-10a41 41 0 0 0 5-7 49 49 0 0 0 3-6v-2l3-3a17 17 0 0 1 10-5l2 1z"/><path fill="#FFF" d="m360 358 1 2-20-2-18-3h-20a34 34 0 0 0-13 5l-2 1v-4l1-24v-4l4-2c5-2 11-3 18-3 6 0 10 3 15 4 5 2 10 2 17 2l1 2 16 26zm-15-6v-3h-6v2l6 1zm-2-7a4 4 0 0 0-1-2h-5v2h6zm-4-5-1-1-7-1v2h8zm-3 10v-2h-6v2h6zm-1-15a6 6 0 0 0 0-2h-3l-1 2h4zm-1 10v-2l-6-1v2l6 1zm-6-10v-2l-4-1a7 7 0 0 0-1 2l5 1zm0 4v-2h-5l-1 2h6zm-1 11 1-3-7-1v3l6 1zm-2-6v-2l-5-1v2l5 1zm-5-10 1-2-4-1-1 2 4 1zm-1 4 1-2h-5v1l4 1zm-1 10 1-2-5-1a8 8 0 0 0 0 2l4 1zm-1-5 1-2-5-1v2l4 1zm-3-10 1-2a19 19 0 0 0-6-1 4 4 0 0 0 0 2c2-1 4 0 5 1zm-2 4v-2l-5-1v2l5 1zm-1 10v-2a14 14 0 0 0-5 0v2h5zm-1-5v-2a17 17 0 0 0-6 0l1 2h5zm-4-11 1-2h-5l1 2h3zm-2 5v-1c-4 0-6 0-9 2a4 4 0 0 0 2 1l7-2zm-1 11v-2a16 16 0 0 0-6 2l2 2 4-2zm-1-5-1-2-5 2 2 2 4-2zm-2-10v-2l-6 2 2 1 4-1zm60 43v1h-61 2a76 76 0 0 1 16-3l22 1 10 1h11zm0-7c0 2-1 2-2 2l-10-1-7-1a158 158 0 0 0-16-2c-11 0-20 1-28 4l-1 1c-1-1 1-1 1-2a41 41 0 0 1 18-4c16-1 29 5 45 3z"/><path fill="#FFF" d="m359 372-1 1h-14c-10-2-22-3-33-2a79 79 0 0 0-12 3h-2l2-2c4-1 8-3 13-3 8-1 17 0 25 1 7 1 14 3 21 2h1zm-46-11c17-1 30 6 47 5-6 1-12 0-18-1-10-1-22-4-34-2l-12 4-2 1v-1l1-1a33 33 0 0 1 7-3 40 40 0 0 1 11-2zm36-161-2 3a57 57 0 0 0-1 3 46 46 0 0 0-3 8c-1 5-2 10-5 14-1 4-5 8-8 12-3 3-7 6-12 6-1 0 0 0 0 0l7-7a59 59 0 0 0 5-10l4-12 1-10 1-3 4-2c3-2 6-3 9-2z"/><path fill="#005BAA" d="M345 349v3l-6-1v-2h6z"/><path fill="#FFF" d="M343 268a23 23 0 0 0 8 6c-3 3-12 4-18 3-5 0-9-2-13-3l-4-2-1-6c-1-6-4-10-6-14l14 1c4 0 7 0 10 2l6 7 4 6zm0 13 4-1a17 17 0 0 1-4 3v-2z"/><path fill="#005BAA" d="m342 343 1 2h-6v-2h5z"/><path fill="#FFF" d="M340 282v3h-2v-3a7 7 0 0 1 2 0z"/><path fill="#005BAA" d="m338 339 1 1h-8v-2l7 1zm-2 9v2h-6v-2h6zm-1-15a6 6 0 0 1 0 2h-4l1-2h3z"/><path fill="#FFF" d="M335 282v4h-2v-4h2z"/><path fill="#005BAA" d="M334 343v2l-6-1v-2l6 1z"/><path fill="#FFF" d="m333 189-1 9-3 18a54 54 0 0 1-2 8c-1 5-4 10-7 14a20 20 0 0 1-13 7l4-4c4-4 6-9 8-16l2-14-1-12v-3l3-3a32 32 0 0 1 5-3c2-1 3-2 5-1zm-3 93v4a19 19 0 0 1-3 0v-5l3 1z"/><path fill="#005BAA" d="M328 333v2l-5-1 1-2 4 1zm0 4v2h-6l1-2h5zm0 10-1 3-6-1v-3l7 1zm-3-5v2l-5-1v-2l5 1z"/><path fill="#FFF" d="M324 280v5h-3v-6l3 1z"/><path fill="#005BAA" d="m321 332-1 2-4-1 1-2 4 1zm-1 4-1 2-4-1v-1h5zm-1 10-1 2-4-1v-2l5 1z"/><path fill="#FFF" d="M318 278v5a16 16 0 0 1-3-1 54 54 0 0 0 0-5l3 1z"/><path fill="#005BAA" d="m318 341-1 2-4-1v-2l5 1z"/><path fill="#FFF" d="M317 177c-4 11-1 26-1 39-1 7-2 13-5 17a24 24 0 0 1-9 9l-2 1-2-1c5-7 9-17 9-29 0-10-2-19-5-26a27 27 0 0 1 9-9 11 11 0 0 1 6-1z"/><path fill="#005BAA" d="m315 331-1 2-5-1a4 4 0 0 1 0-2l6 1zm-3 4v2l-5-1v-2l5 1zm-1 10v2h-5v-2h5zm-1-5v2h-5l-1-2h6z"/><path fill="#FFF" d="M309 264c1 5-2 8-5 9a14 14 0 0 1-4 2c-4 1-9 0-11-3a26 26 0 0 1-5 2l-5 1c-7 0-12-5-12-11 0-3 1-5 3-7 1-3 3-5 6-7a22 22 0 0 1 10-3l9 1a22 22 0 0 1 11 7c1 2 3 5 3 9zm-1 12v5l-2 3v-7l2-1z"/><path fill="#005BAA" d="m307 329-1 2a34 34 0 0 0-3 0l-1-2h5zm-3 6v1l-7 2a4 4 0 0 1-2-1 19 19 0 0 1 9-2zm-1 10v2l-4 2a6 6 0 0 1-2-2l6-2z"/><path fill="#FFF" d="M303 278v8l-3 1v-9h3zm-1-70c0 8-1 15-3 21-1 5-3 9-6 12l-4 2-5-2c-3-3-6-7-7-11-2-6-3-14-3-22l5-20a44 44 0 0 1 10-15c4 3 6 9 9 15 2 6 4 12 4 20z"/><path fill="#005BAA" d="m301 340 1 2-4 2-2-2 5-2zm-1-10v2l-4 1-2-1 6-2z"/><path fill="#FFF" d="m296 279 1 1v8h-4v-9h3zm-3 94 1 5-2 2h-11l-2-2 1-5 6-9h1a31 31 0 0 1 6 9zm-7-81 4 1-3 15a60 60 0 0 0 1 18h-1l-3-2a55 55 0 0 1 1-30l1-2zm4-13v9h-4l1-9 1-1 2 1zm-4 51-2 30h-1l-6-3a38 38 0 0 0-8-2h-21c-13 1-25 5-39 5v-1l12-15 13-16c9 1 19 0 26-2l9-1c7 0 13 1 17 5zm-7 4 1-2-5-2-1 2 5 2zm-1 5 1-2a20 20 0 0 0-9-2v2l8 2zm-2 5 2-1-5-2-1 2 4 1zm-1 6 1-2a14 14 0 0 0-5-2l-1 2 5 2zm-3-18v-2a14 14 0 0 0-4 0v2h4zm-3 10 1-2a18 18 0 0 0-6 0v2h5zm-2 5 1-2h-5v2h4zm0-10v-2l-5 1 1 1h4zm-1-5-1-2-5 1v2l6-1zm-5 10v-2l-5 1 1 2 4-1zm-1 5v-2l-5 1v2l5-1zm0-9-1-2-4 1v2l5-1zm-2-5v-1h-4v2l4-1zm-4 11v-2h-5v2h5zm-1 5-1-2h-6v3l7-1zm-1-10v-2l-6 1 1 2 5-1zm-1-5v-1h-5v2l5-1zm-5 11v-2h-6v2h6zm-2 5-1-2h-6l1 2h6zm-1-10v-2h-8v2h8zm0-5v-2h-4v1l4 1zm-6 10v-2h-6v2h6zm-2 6v-3h-8v3h8zm48-72v9l-3-1v-8h3z"/><path fill="#FFF" d="m281 362 1 1h-2c-3-2-8-4-14-4-7-1-14 0-20 1l-29 4a42 42 0 0 1-8 0l-2-1c16 1 30-4 45-5 7-1 15-1 21 1a30 30 0 0 1 7 3h1z"/><path fill="#FFF" d="m279 365 1 1h-2a42 42 0 0 0-14-4c-13 0-25 2-36 4l-17 1a4 4 0 0 1-2-1c17 0 32-4 47-5 9 0 18 1 23 4z"/><path fill="#005BAA" d="m280 332-1 2a23 23 0 0 0-5-2l1-2 5 2zm-1 5-1 2a19 19 0 0 0-8-2v-2l9 2z"/><path fill="#FFF" d="m278 368-1 2c-6-2-13-4-21-4s-14 2-22 3h-23c17 1 31-4 48-5 7 0 14 2 19 4zm-1-89v7a7 7 0 0 1-3-2v-6l3 1z"/><path fill="#005BAA" d="m278 343-2 1-4-1 1-2 5 2z"/><path fill="#FFF" d="M276 372v2l-5-1a78 78 0 0 0-17-2l-21 2h-19l-1-1h-1 22l10-2a75 75 0 0 1 10-1c6-1 12 1 17 2l5 1z"/><path fill="#FFF" d="M275 376v1l-9-1h-54v-1c10 1 21 0 30-1a79 79 0 0 1 31 2h2z"/><path fill="#005BAA" d="m276 348-1 2-5-2 1-2 5 2z"/><path fill="#FFF" d="m274 188-1 3a85 85 0 0 0-4 25c1 6 1 11 3 15a33 33 0 0 0 6 10l-9-3c-4-3-8-8-10-14a34 34 0 0 1-2-9c-1-7 0-14 1-21l2-14 1-5c3 0 6 2 8 4a18 18 0 0 1 5 6v3z"/><path fill="#005BAA" d="M272 330v2h-4a5 5 0 0 1 0-2h4z"/><path fill="#FFF" d="M271 278v4l-2-3v-3a5 5 0 0 0 2 2zm0-34a23 23 0 0 1-19-7 39 39 0 0 1-8-13c-2-5-3-11-3-18v-10l-1-8v-2l5 1a20 20 0 0 1 7 7l1 2v1a94 94 0 0 0-1 14c0 11 3 20 9 26a34 34 0 0 0 10 7z"/><path fill="#005BAA" d="m270 340-1 2a69 69 0 0 0-5 0v-2h6z"/><path fill="#FFF" d="M268 251v1l-5 8-4 6-14 5c-6 1-15 1-22-1l3-2c4-4 6-11 11-14 4-2 10-3 15-3h16z"/><path fill="#005BAA" d="m268 345-1 2h-4v-2h5zm-1-10v2h-4l-1-1 5-1zm-2-5 1 2-6 1v-2l5-1z"/><path fill="#FFF" d="M262 270v6l-2 1v-7h2z"/><path fill="#005BAA" d="M261 340v2l-4 1a9 9 0 0 1-1-2l5-1zm-1 5v2l-5 1v-2l5-1zm-1-9 1 2-5 1v-2l4-1z"/><path fill="#FFF" d="M259 247a25 25 0 0 1-16-6 31 31 0 0 1-10-12 151 151 0 0 1-5-17l-3-8a49 49 0 0 0-2-4l-1-3h1c5 0 8 2 11 5l2 3v4c1 13 6 24 13 31a39 39 0 0 0 9 6l1 1z"/><path fill="#005BAA" d="M258 332v1l-4 1v-2h4z"/><path fill="#FFF" d="M257 271v8l-3 1v-8l3-1z"/><path fill="#005BAA" d="M254 342v2h-5v-2h5zm-2 5 1 2-7 1v-3h6zm0-10v2l-5 1-1-2 6-1z"/><path fill="#FFF" d="M252 273v8l-3 1v-8l3-1z"/><path fill="#005BAA" d="M251 333v1l-5 1v-2h5z"/><path fill="#FFF" d="M246 274v8h-2l-1-7 3-1z"/><path fill="#005BAA" d="M246 343v2h-6v-2h6z"/><path fill="#FFF" d="M243 247h1c-12 1-18-5-22-12l-7-15v-1l-3-4-2-2 4-1 7 1 4 4 1 2 2 7 3 9a35 35 0 0 0 12 12z"/><path fill="#005BAA" d="m243 348 1 2h-6l-1-2h6zm0-10v2h-8v-2h8zm0-5v2l-4-1v-1h4z"/><path fill="#FFF" d="M241 275v7h-3v-7h3z"/><path fill="#005BAA" d="M237 343v2h-6v-2h6z"/><path fill="#FFF" d="M235 275a29 29 0 0 1 0 6 10 10 0 0 1-2-1 20 20 0 0 1 0-5h2z"/><path fill="#005BAA" d="M235 348v3h-8v-3h8z"/><path fill="#FFF" d="M230 275v3l-4-3h4zm-37 215-6 2-1-3 7 1zm-12-3 2 6-3 1-3-7h4zm-5 9-3 1-6-13 5 1 4 11zm-7 2-2 1-1 1a1877 1877 0 0 1-18-36l4-2a947 947 0 0 1 17 36zm-7 3-3 2-3-5-16-30 4-2 18 35zm-8 3-3 2a9047 9047 0 0 1-18-34l3-2 18 34z"/><path fill="#005BAA" d="m218 124 1-1 2-1 5 14h-1l-2 1-5-13zm13 10h-1l-2 1-4-14h1l2-1 8 8-3-10h1l2-1 4 14h-1l-2 1-9-8 4 10zm7-18h2l4-1h5l3 5v6c0 2-3 2-5 3l-4 1h-1l-4-14zm6 11 3-1 2-1v-4l-2-3-3-1-2 1 2 9zm9-14h1l2-1 2 14-1 1h-2l-2-14zm10-2h3l7 13h-2l-1 1-1-3-6 1v3h-3l3-15zm1 9h3l-2-6-1 6zm13 4h-3v-14h3l6 9v-10h2l1 15h-3l-6-10v10zm17-15h1l2 1-1 14h-3l1-15zm8 15h-3l1-14h3l5 10 1-10 1 1h2l-2 14h-3l-4-11-1 10zm20-7v-2l-2-1h-2l-1 2 1 1 2 1 4 2 1 3a4 4 0 0 1-3 3l-4 1-4-2a5 5 0 0 1-1-4h3v2l2 1h3l1-1-1-1a8 8 0 0 0-2-1l-4-3-1-3a4 4 0 0 1 2-3 6 6 0 0 1 5 0 6 6 0 0 1 3 2 5 5 0 0 1 1 3h-3zm10 0-5-1 1-1v-1l11 2v3l-5-1-2 11h-3l3-12zm9 0 2 1h1l-4 14-2-1h-1l4-14zm8 5-4-1v-1l1-2 11 5-1 1v1l-4-2-4 11h-2l-1-1 4-11zm17 14-3 4-5-1-3-3v-4l4-9 1 1 2 1-4 8v2l1 2h2l2-2 4-8 1 1h1l-3 8zm8-2-4-2 1-2 1-1 10 6-1 1v1l-4-2-6 10h-1l-2-1 6-10zm2 14 8-12 9 6-1 1-1 1-6-4-2 3 6 3-1 1v2l-6-4-2 3 6 4v1l-1 1-9-6zm17 10c0-2 0-4 2-5 1-2 3-3 5-3a6 6 0 0 1 5 1c2 2 3 3 3 5l-3 5c-1 2-3 3-5 3a7 7 0 0 1-5-1 7 7 0 0 1-2-5zm7 4a6 6 0 0 0 3-2 6 6 0 0 0 2-4l-2-3a3 3 0 0 0-3-1 6 6 0 0 0-3 3l-1 3 1 3a3 3 0 0 0 3 1zm2 6 10-10 8 7-1 1-1 1-5-5-3 2 5 5-1 1h-1l-4-4-5 4-1-1-1-1zm23 7-3-3 1-1 1-1 8 9-1 1-1 1-3-3-9 7-1-1-1-1 9-8zm-3 15 11-9 6 9-1 1h-1l-4-6-3 2 4 6h-1l-1 1-4-6-3 2 5 7-1 1h-1l-6-8zm17 18h-4a6 6 0 0 1-3-3 6 6 0 0 1-1-5c0-2 2-3 4-4 2-2 3-2 5-2a6 6 0 0 1 5 3 6 6 0 0 1 1 5 6 6 0 0 1-3 3l-1-2a3 3 0 0 0 1-2l-1-2a3 3 0 0 0-2-2 6 6 0 0 0-4 1 6 6 0 0 0-2 3v3a3 3 0 0 0 2 1h2l1 3zm10-2v1l1 1-5 3 3 5 5-3v2l1 1-13 6-1-1v-1l6-3-3-5-6 3v-2l-1-1 13-6zm-6 21v-1l-1-1 13-6 1 2 1 1-8 9 10-3v1l1 1-14 6v-2l-1-1 8-10-10 4zm6 12 5-4 6 1a6 6 0 0 1 3 4c1 2 0 4-1 5l-4 4-6-1a7 7 0 0 1-3-4 7 7 0 0 1 0-5zm4 7h4l3-2 1-3a3 3 0 0 0-3-3 6 6 0 0 0-3 0 6 6 0 0 0-4 2v3a3 3 0 0 0 2 3zm-2 6 14-2 1 1v2l-12 2 2 7h-3l-2-10zm4 13c1-2 3-3 5-3l6 1a6 6 0 0 1 3 5 6 6 0 0 1-2 5c-1 2-3 3-5 3l-6-1a7 7 0 0 1-2-5 7 7 0 0 1 1-5zm3 7 4 1 3-2 1-3a3 3 0 0 0-1-2 6 6 0 0 0-4-1l-4 2-1 3 2 2zm-3 13a6 6 0 0 1 2-5c1-2 3-2 5-2l6 1a7 7 0 0 1 2 6 7 7 0 0 1-1 4 5 5 0 0 1-3 2l-1-3 2-1 1-2a4 4 0 0 0-2-3 6 6 0 0 0-4-1l-3 1-1 3a3 3 0 0 0 1 3l2 1v-4h2v6h-7v-2h1a5 5 0 0 1-2-4zm6 12 9-5v4l-7 3 7 3v1l-1 2-8-5h-6v-3h6zm8 16-1 2v5a5 5 0 0 1-2 3l-3 1a3 3 0 0 1-2-2 4 4 0 0 1-1 0 3 3 0 0 1-3 1l-3-2-1-4 1-5v-1l15 2zm-13 1v6h3l1-2v-3l-4-1zm7 1-1 3v2l1 1h2v-2l1-3-3-1zm-9 11h5c3 0 4 1 5 3a6 6 0 0 1 1 5c0 2-2 4-3 5h-6l-5-3-1-5a7 7 0 0 1 3-5zm-1 8 4 2h4a3 3 0 0 0 2-2l-1-4-3-2a6 6 0 0 0-4 1 3 3 0 0 0-2 2v3zm-5 8v-2l1-1 13 5-1 2v2l-12-1 10 6-1 2v2l-14-5v-1l1-1 11 4-10-7v-1l1-2 12 2-11-4zm8 19-1 1-2 5a5 5 0 0 1-2 2h-3a3 3 0 0 1-2-2h-4l-2-2v-4l2-5 1-1 13 6zm-12-3-1 4-1 1 1 2h2l1-2 2-3-4-2zm6 3-2 3v2l1 1h1l1-2 2-3-3-1zm-2 16-1 2-1 1-15-2 1-2 1-1 3 1 2-5-2-2 1-2 1-1 10 11zm-8-4-2 3 6 1-4-4zm-6 11h10l-1 2-1 1-7-1 4 6-1 2-1 1-5-9-4-3v-1l1-1 5 3zM177 139l2 2-3 2-1-2zm-61 96 12 4v-2l-12-5 1-1-2-1v2a48 48 0 0 1-2 0c-4 0-6 1-7 4a4 4 0 0 0 0 3l2 2h4a160 160 0 0 0-6 27h-2c-2 0-3-1-2-3l3-5 4-3v-2a29 29 0 0 0-7 5 8 8 0 0 0-2 5c-1 3 1 5 4 6a5 5 0 0 0 2-1l-1 5-7 5 2 2 5-6 1 22-7 4 1 3 6-6v2l-4 5 2 1 2-4 2 12h2v-2l4-1a3 3 0 0 0 2-2l1-2v-1l3 5 2-2-6-5 5-1v-2l-13 1v-3l12-1v-3l-12 1-1-8h2v5h2a3 3 0 0 0 2-1l1-1v1h2l2-1 1-3a9 9 0 0 0-1-4l-1-2h3v-3l-13 1v-4l13 1v-3l-13-1 1-4 12 2 1-3-13-1 1-5 4 1v2c1 1 1 0 2-1l2-2-1-1-7-1 1-4 12 3 1-3-13-2 3-9 6 1v1l1 2c-1 1-2 2-3 1l-2-2 1-1h-2a9 9 0 0 0-1 2 4 4 0 0 0 3 4l4-1a4 4 0 0 0 2-2v-2l-1-1 4 1v-2l-6-2v-1l-1-2 2-1 3 2 1 1 1-1a14 14 0 0 0-1-2 7 7 0 0 0-3-2h-3l-2 2a4 4 0 0 0 1 3l-4-1 3-8zm-5 4h-2l-2-1v-2l4-2h3l-2 5a9 9 0 0 1-1 0zm2 66a3 3 0 0 1 2 2c0 2 0 2-2 3h-4v-2l-1-2 5-1zm1-22 2 2 1 4v1h-1c-1 1-2 0-2-2v-1h-1a9 9 0 0 0-1 2 6 6 0 0 0 1 2l-1 1h-1v-6h-4v-3h7zm11-83-2-1-1 3 2 1 1-3zm19-1a32 32 0 0 1-6 0h1v-1l-1-2-3-2 1-2-2-1-6 9-3 6-4 10 2 1 2-6 3 2h1v1l-2 1h-1v2h2a67 67 0 0 0 7-2h2v-2a41 41 0 0 1-3 1 32 32 0 0 1-3 0v-2l-2-2-3-1 1-2 1-2 4 2-2 4 2-1 1-2 6 3 2-2-12-6 1-2 3-5 3 2v1l-1 1h-1v2h1l8-1h2v-2h-1zm14-35 1-1-1-2-5 5-5 6-4 4-4 6 2 1 1-2 4 3 1 2a5 5 0 0 1-1 4l-2 1h-1l1-3-2-3-3-1-3 2a4 4 0 0 0-1 2 3 3 0 0 0 1 2h4l1-1-2-1v1h-1v-2h3a3 3 0 0 1 1 2l-1 2-1 2-1-1-2 4h2l2-2h2a6 6 0 0 0 5-3 7 7 0 0 0 1-5l3 3 2-2-10-8 2-3 10 8 1-2-10-8 2-1 5-6 1-1 3 2-5 6h-1a1 1 0 0 0 1 1l2 1 3-1v-1l-2-1 3-4 5 6 2-2-9-9zm50-21h-3c1-1 2-1 2-3l-1-3c-1-1-2-2-3-1l-1 1-1 1h-2l-1-1h1l4-3-2-3 3-2-1-1-3 1h-1a4 4 0 0 1-2-2c-1-1 0-2 1-2l1-1-1-1-1 1c-2 1-3 2-2 4l2 2h2c-8 4-20 12-29 21l1 1 3-2 3 3-1 1-1 1h1l2 1h3v-2l-1-1 3-2 4 5 2 1a1 1 0 0 1 0-1l1-1h2l-1 3a5 5 0 0 1-5 1v2h2l4-1a6 6 0 0 0 2-3 3 3 0 0 0 0-3 3 3 0 0 0-3-2 4 4 0 0 0-2 1h-1l-7-9 8-6 4 5-5 1v-1l1-1a7 7 0 0 1 2-1l-2-1a8 8 0 0 0-1 1 5 5 0 0 0-2 3 4 4 0 0 0 0 3 4 4 0 0 0 3 2l3-1a7 7 0 0 0 2-2l2 3 2-2-6-10 1-1 6-4 1 2-4 2a2 2 0 0 0 0 1v1l2 2h4l1-1 1-1 1 1-1 2-1 1h-1a3 3 0 0 0-2 0l-1 1v1l2 1h2l1-1a35 35 0 0 0 4 1h1l1-2h-2zm-26 6-3 3-3-4 1-1 2-1 3 3zm11-4-1 1-2 1a2 2 0 0 1-2-1v-1l5-1v1zm-49 236-2 1-2-2 5-3-1-3-11 7-2-3 11-6-1-2-11 6-4-7 3-1h2v2l-1 2 2 1v-1l5-8v-2l-2-1a34 34 0 0 1-1 4 24 24 0 0 1-1 2l-1-1-3-1-4 2-4-10 2-1 2 5 2 1h2c2 0 3-2 4-4l1-3-2-1-1 3-2 3h-2l-2-5 8-3-1-3-12 5-2-3 13-5-1-2-12 4-2-5 1-1 1-1 3 2v1c1 0 3-1 3-3l1-4a7 7 0 0 0-2-3h4l-1-3-12 3-1-2-2 1 5 16-2 1c-3 2-3 5-2 8l1 2h3a6 6 0 0 0 2-1l1-1 5 11 10 17 1-1-1-2 4-2 2 3-3 2a3 3 0 0 0-1 2v2c1 2 3 2 4 1h1v-1l-1-1-1 1-1-1v-1l4-2 1 1h1l1-2v-3l-1-1zm-28-41-1 1-1-4 7-2 1 1a5 5 0 0 1 1 2v2l-1 1a5 5 0 0 0-1-1l-4-1-1 1zm1 17a6 6 0 0 1-1 1h-2a2 2 0 0 1-1-1l1-4 3-2 1 5-1 1z"/><g fill="#005BAA"><path d="m306 445 1-14h3l-1-2c-10-1-42-1-54 1l1 2h2v5l1 1 1 1 3 2a5 5 0 0 0 3-1v3l3 2v-14h5v4h-2l-1 1v1l1 2 5 5 1-1-3-4v-1a4 4 0 0 0 2-2v-5h5v5h-1l-1 1 2 2 2 2 1-1v-2h5v4l3 2v-13h3v5h-1l-1 1 2 2 2 2 1-1v-2l4 1v4l3 2zm-40-8a8 8 0 0 1-3 1l-1 1-1-1v-6h5v5zm24-1h-5v-5h5v5zm9 0v-5h5v5h-5z"/><path d="M307 446a4 4 0 0 0-2-2h-2l1 3s0-1 0 0a5 5 0 0 1 2 0l3 2 1 2 1-1-2-2a30 30 0 0 0-2-2zm65 11a4 4 0 0 0-2-2 32 32 0 0 0-2-1v3h1a5 5 0 0 1 1 0l3 4v1h1l-1-3a32 32 0 0 0-1-3z"/><path d="m377 440-35-8a45 45 0 0 1-1-4c-1-3-2-4-4-5a7 7 0 0 0-1 0l1 3 3 3 1 3a153 153 0 0 0-13-2l1 3h4v1l1 1-2 1h-3a30 30 0 0 0 1 3l-1 1-4 1c-2 0-2-1-2-2v-1h5l-1-2h-2l-1-1h1l2-2a3 3 0 0 0 0-2 3 3 0 0 0-2-1c-3 0-4 0-4 2v1l1 2 1 1h-1a3 3 0 0 0-1 2l2 4 3 1a6 6 0 0 0 3 0l1-1v-2 1a5 5 0 0 0 4 2h4l-1 2 3 3 2-13 7 1v1l-2 1h-2v2l1 3a5 5 0 0 0 3 3h4l-1 2 2 3 4-13 5 1-1 5h-1l-1 1 1 2 2 2 1-1v-1l5 1-1 4 2 3 4-13 3 1v-3zm-52-9 1 2-3 1a2 2 0 0 1 0-2l2-1zm13 8a5 5 0 0 1-4 2l-2-2h-1l2-1 2-2a4 4 0 0 0 0-2h4l-1 5zm15 3a5 5 0 0 1-4 1l-2-1v-1h1l3-2a4 4 0 0 0 0-2 8 8 0 0 0-1-1l5 1-2 5zm17 4-5-2 1-4 5 1-1 5zm-123 2-2-1h-3l2 2a5 5 0 0 1 2 0l3 2 2 2v-1l-2-2a32 32 0 0 0-2-2z"/><path d="m243 434 3-1-1-2c-21 2-36 6-52 12a51 51 0 0 0 3 2l10-4v2l-8 3v2h1l4 1v2h-1a2 2 0 0 0-1 0c-1 0-2 1-1 2l1 1h2l4 2v-1l-2-2 1-4a4 4 0 0 0-2-2h-1l4-1 2 6 4 1-4-12 2-1 3 11 4 1-4-13 12-3v3l-7 2h-1v2l1 1 2 2 1-1v-2h1l4-1 1 6 3 1-2-13 3-1 1 5h-1v1l1 2 3 2 1-1v-1l-1-1 5-1 1 4 3 2-2-13zm-7 6-1-5 5-1 1 5-5 1z"/></g></svg>