<?xml version="1.0" encoding="utf-8"?>
<svg viewBox="0 0 120 120" fill="none" version="1.2" baseProfile="tiny-ps" xmlns="http://www.w3.org/2000/svg" xmlns:xlink="http://www.w3.org/1999/xlink" xml:space="preserve">
  <title>BTG Pactual</title>
  <rect width="120" height="120" fill="white" />
  <path fill-rule="evenodd" d="M39.4133 58.5937L39.9402 55.9751H35.4054V52.398L32.2221 52.8887V63.5732C32.2221 67.267 33.6416 68.3661 37.5121 68.3661H39.2067L39.7338 65.7707H37.7411C35.9779 65.7707 35.4051 65.3271 35.4051 63.3627V58.5937H39.4133ZM17.5419 51.1585V62.6383C17.5419 66.8935 19.4654 68.6702 23.6566 68.6702C28.008 68.6702 29.9318 66.9403 29.9318 62.6614V61.5628C29.9318 57.5416 28.1452 55.5774 24.2521 55.5774C23.0152 55.5774 21.6639 55.8345 20.7478 56.5591V50.6442L17.5419 51.1585ZM23.771 58.1489C25.9695 58.1489 26.7485 59.0376 26.7485 61.6792V62.6614C26.7485 65.2329 25.9695 66.1218 23.7253 66.1218C21.481 66.1218 20.7018 65.2329 20.7018 62.6381V61.3055C20.7018 58.944 21.481 58.1489 23.771 58.1489ZM47.1083 55.5774C42.9171 55.5774 40.9933 57.3775 40.9933 61.4924V62.1237C40.9933 66.028 42.6653 67.9217 46.6041 67.9217C47.8639 67.9217 49.1236 67.6883 50.0166 66.9631V67.4313C50.0166 69.629 49.0779 70.3531 46.8791 70.3531H45.5627C44.8102 70.3667 44.4683 70.5032 44.0148 71.2621L44.0123 71.2609C40.2361 77.3619 33.6801 81.0891 26.5354 81.0891C15.1356 81.0891 5.86151 71.6218 5.86151 59.9841C5.86151 48.3467 15.1356 38.8794 26.5354 38.8794C34.5427 38.8794 41.8272 43.6133 45.2353 50.9803H46.1852C42.7118 43.0917 35.0118 38 26.5354 38C14.6609 38 5 47.8621 5 59.9841C5 72.1064 14.6609 81.9685 26.5354 81.9685C33.5189 81.9685 39.9636 78.5505 43.9814 72.8781H47.0623C51.116 72.8781 53.2002 71.3119 53.2002 67.314V61.2821C53.2002 57.3074 51.2078 55.5774 47.1083 55.5774ZM50.0398 62.5211C50.0398 64.7189 49.284 65.3967 47.1086 65.3967C44.6577 65.3967 44.1769 64.5317 44.1769 61.9836V61.5862C44.1769 59.0607 44.6119 58.1489 47.1083 58.1489C49.5587 58.1489 50.0398 59.0376 50.0398 61.6093V62.5211Z" fill="#001E62" stroke="#001E62" stroke-width="0.1" stroke-linejoin="round" />
  <path fill-rule="evenodd" d="M108.182 57.0555H105.504L105.282 58.0358H108.182C110.835 58.0358 111.73 58.7565 111.73 60.8919V61.9256C111.072 61.2533 109.909 60.9125 108.265 60.9125C105.642 60.9125 104.368 62.0473 104.368 64.381V64.5508C104.368 66.7389 105.623 67.8486 108.099 67.8486H108.765C111.388 67.8486 112.718 66.7389 112.718 64.5508V60.8919C112.718 58.1669 111.404 57.0555 108.182 57.0555ZM111.73 64.6923C111.73 66.2582 110.891 66.8684 108.738 66.8684H108.321C106.243 66.8684 105.356 66.1749 105.356 64.5508V64.381C105.356 62.6168 106.201 61.8646 108.182 61.8646H108.349C110.719 61.8646 111.73 62.5914 111.73 64.2957V64.6923ZM114.758 67.8486H115.747V53H114.758L114.758 67.8486ZM92.4962 58.0361L92.7179 57.0555H88.2983V54.2523L87.2826 54.4375V64.0404C87.2826 66.7751 88.2863 67.7921 90.9854 67.7921H92.4449L92.6295 66.8118H90.9854C88.9512 66.8118 88.2983 66.1524 88.2983 64.0966V58.0363L92.4962 58.0361ZM101.645 63.5867C101.645 66.1139 100.871 66.9249 98.4584 66.9249C96.1171 66.9249 95.3267 66.0828 95.3267 63.5867V57.0555H94.311V63.5867C94.311 66.6946 95.474 67.9051 98.4581 67.9051C101.424 67.9051 102.633 66.6545 102.633 63.5867V57.0555H101.645V63.5867ZM79.297 62.8777V61.9699C79.297 59.0653 80.2689 58.0361 83.0119 58.0361H85.3295L85.5503 57.0555H83.0121C79.7407 57.0555 78.281 58.571 78.281 61.9696V62.8777C78.281 66.2763 79.7404 67.7921 83.0121 67.7921H85.3565L85.5782 66.8118H83.0121C80.3384 66.8118 79.297 65.7088 79.297 62.8777ZM71.983 57.0555H69.3045L69.0833 58.0358H71.983C74.6152 58.0358 75.5032 58.7565 75.5032 60.8919V61.9256C74.8458 61.2533 73.6826 60.9125 72.0382 60.9125C69.416 60.9125 68.1412 62.0473 68.1412 64.381V64.5508C68.1412 66.7389 69.4054 67.8486 71.8993 67.8486H72.5661C75.171 67.8486 76.4916 66.7389 76.4916 64.5508V60.8919C76.4916 58.1669 75.1852 57.0555 71.983 57.0555ZM75.5032 64.6923C75.5032 66.2788 74.6997 66.8684 72.5385 66.8684H72.1219C70.0246 66.8684 69.1293 66.1749 69.1293 64.5508V64.381C69.1293 62.6168 69.9744 61.8646 71.9551 61.8646H72.1219C74.4919 61.8646 75.5032 62.5914 75.5032 64.2957V64.6923ZM62.037 56.8854C58.9045 56.8854 57.4453 58.4652 57.4453 61.8563V71.0818H58.4334V66.3445C59.1485 67.2933 60.4816 67.8486 62.0925 67.8486C65.2108 67.8486 66.6014 66.3153 66.6014 62.8777V61.8281C66.6014 58.4098 65.1936 56.8854 62.037 56.8854ZM65.5851 62.8774C65.5851 65.7867 64.6388 66.8681 62.0925 66.8681C59.6829 66.8681 58.461 65.6687 58.461 63.3027V61.8563C58.461 59.0213 59.4971 57.8653 62.037 57.8653C64.5903 57.8653 65.5851 58.9762 65.5851 61.8281V62.8774Z" fill="#001E62" stroke="#001E62" stroke-width="0.4" stroke-linejoin="round" />
</svg>