<?xml version="1.0" encoding="UTF-8"?>
<svg viewBox="0 0 44 44" fill="none" version="1.2" baseProfile="tiny-ps" xmlns="http://www.w3.org/2000/svg">
  <title>Shopify Inc.</title>
  <desc>Shopify Inc. is a Canadian multinational e-commerce company headquartered in Ottawa, Ontario.</desc>
  <rect width="44" height="44" fill="#F1F1F1"/>
  <g>
    <path d="M31.0192 12.1831C30.9973 12.053 30.8877 11.9663 30.7781 11.9663C30.6685 11.9663 28.7398 11.9229 28.7398 11.9229C28.7398 11.9229 27.1179 10.3615 26.9644 10.2097C26.811 10.0578 26.4822 10.1012 26.3727 10.1446C26.3727 10.1446 26.0658 10.2313 25.5617 10.3831C25.474 10.1012 25.3425 9.77592 25.1672 9.42893C24.5973 8.34459 23.7425 7.75905 22.7343 7.75905C22.6685 7.75905 22.6028 7.75905 22.5151 7.78073C22.4932 7.73736 22.4494 7.71567 22.4275 7.6723C21.9891 7.19519 21.4192 6.97833 20.7398 7.00001C19.4247 7.04339 18.1096 7.97592 17.0576 9.6458C16.3124 10.8169 15.7425 12.2916 15.5672 13.441C14.0548 13.8964 13.0028 14.2217 12.9809 14.2434C12.2138 14.4819 12.1918 14.5036 12.1042 15.2193C12.0384 15.7615 10.022 31.0506 10.022 31.0506L26.7672 33.9133L34.022 32.135C34.0001 32.1133 31.0412 12.3133 31.0192 12.1831ZM24.7288 10.6434C24.3343 10.7518 23.8959 10.9036 23.4357 11.0337C23.4357 10.3831 23.348 9.45061 23.0412 8.66989C24.0275 8.86507 24.5096 9.9711 24.7288 10.6434ZM22.537 11.3157C21.6603 11.5759 20.6959 11.8795 19.7316 12.1615C19.9946 11.1422 20.5206 10.1229 21.1343 9.45061C21.3754 9.21206 21.7042 8.93013 22.0768 8.75664C22.4713 9.51567 22.559 10.5783 22.537 11.3157ZM20.7617 7.86748C21.0685 7.86748 21.3316 7.93254 21.5507 8.06266C21.2001 8.25784 20.8494 8.51808 20.5206 8.86507C19.6877 9.75423 19.0521 11.1422 18.7891 12.4651C18.0001 12.7036 17.211 12.9422 16.4877 13.159C16.948 11.0771 18.7233 7.93254 20.7617 7.86748Z" fill="#95BF47"/>
    <path d="M30.7781 11.9663C30.6685 11.9663 28.7398 11.9229 28.7398 11.9229C28.7398 11.9229 27.1178 10.3615 26.9644 10.2097C26.8987 10.1446 26.8329 10.1229 26.7452 10.1012V33.8916L34 32.1133C34 32.1133 31.0411 12.3133 31.0192 12.1615C30.9973 12.053 30.8877 11.9663 30.7781 11.9663Z" fill="#5E8E3E"/>
    <path d="M22.7124 15.653L21.8795 18.7759C21.8795 18.7759 20.937 18.3422 19.8192 18.4289C18.1754 18.5374 18.1754 19.5566 18.1754 19.8169C18.263 21.2048 21.9671 21.5085 22.1863 24.7832C22.3398 27.3639 20.8055 29.1205 18.5918 29.2506C15.9178 29.4241 14.4493 27.8627 14.4493 27.8627L15.0192 25.4771C15.0192 25.4771 16.4877 26.5832 17.6713 26.4964C18.4384 26.453 18.7233 25.8241 18.7014 25.3904C18.5918 23.5687 15.5671 23.6771 15.3699 20.6844C15.2165 18.1687 16.8822 15.6097 20.5644 15.3928C21.9891 15.2844 22.7124 15.653 22.7124 15.653Z" fill="white"/>
  </g>
  <defs/>
</svg>