<?xml version="1.0" encoding="UTF-8"?>
<svg id="Layer_1" xmlns="http://www.w3.org/2000/svg" baseProfile="tiny-ps" version="1.2" viewBox="0 0 612 792">
<title>collegebaby.com</title>
  <!-- Generator: Adobe Illustrator 29.1.0, SVG Export Plug-In . SVG Version: 2.1.0 Build 142)  -->
  <path d="M216.6,530.6c-17.4,0-31.4,14.1-31.4,31.4s14.1,31.4,31.4,31.4,31.4-14.1,31.4-31.4-14.1-31.4-31.4-31.4ZM216.6,577.7c-8.6,0-15.6-7-15.6-15.6s7-15.6,15.6-15.6,15.6,7,15.6,15.6-7,15.6-15.6,15.6Z" fill="#231f20"/>
  <path d="M415.9,530.6c-17.4,0-31.4,14.1-31.4,31.4s14.1,31.4,31.4,31.4,31.4-14.1,31.4-31.4-14.1-31.4-31.4-31.4ZM415.9,577.7c-8.6,0-15.6-7-15.6-15.6s7-15.6,15.6-15.6,15.6,7,15.6,15.6-7,15.6-15.6,15.6Z" fill="#231f20"/>
  <path d="M267.6,263.5l-27.5-44.4c-22.8,12.5-42.3,30-57.2,51.1l43.5,28.7c10.7-14.8,24.8-26.9,41.2-35.3Z" fill="#231f20"/>
  <path d="M218.7,310.9l-45.9-24.7c-12.9,23.3-20.3,50-20.8,78.4h52.1c.4-19.4,5.6-37.7,14.5-53.7Z" fill="#231f20"/>
  <path d="M321.1,250.6c2.8,0,5.6.1,8.4.3l17.6-50.4c-8.5-1.3-17.2-2-26-2-22.8,0-44.5,4.5-64.4,12.7l22.9,47c12.9-4.9,26.9-7.6,41.4-7.6Z" fill="#231f20"/>
  <path d="M418.4,432.2l-4.2,5.4c-22.5,29.5-56.5,46.4-93.1,46.4s-39.4-5.2-56-14.3c0-.4,0-.8,0-1.2,0-13.1-10.6-23.7-23.7-23.7s-4.6.4-6.7,1c-15.7-17.3-26.4-39.3-29.5-63.6h-52.4c3.5,39.5,20.5,76.1,48.8,104.5,31.9,31.9,74.4,49.5,119.5,49.5s102.6-24.6,134.6-67.5l4.2-5.6-41.5-30.8Z" fill="#231f20"/>
  <path d="M388.5,310.6c-2.1-.3-4.3-.5-6.2-.6-21.4-1.4-42.8-1-64.2-2.6-7.2-.5-14.4-1.3-21.7-2-1.8-.1-3.6-.2-5.4-.2l-.2-1.2v-.4c0,0,0-.2-.1-.3h0c0-.1,0-.2,0-.2,0,0,0,0,0-.2,0,0,0-.2-.1-.3h0c0-.1,0-.2,0-.2h-.2c0,0,0-.1,0-.1,0,0-.1,0-.2,0-.1,0-.2,0-.4-.1-.1,0-.2,0-.3,0-.3,0-.6,0-1,.2,0,0-.1,0-.1,0,0,0-.2,0-.3.1-.2,0-.3.2-.3.3-.1.2-.2.3-.3.5,0,.2,0,.4,0,.6,0,0,0,.2,0,.2l16,102.5c-1.9.3-3.7.7-5.5,1.4-1.6.6-2.7,1.6-3.4,2.9,0,0,0,0,0,0,0,0,0,0,0,0,0,0,0,0,0,0-1,1.8-2.2,5-2.8,7h0c0,0,0,.2,0,.2-.3,1.1-.8,2.4-1.3,3.6v.3c-1.9,1.8-3.8,3.5-5.8,5h0c-.8.7-1.6,1.2-2.2,1.6-.4.2-.7.3-1.1.5-.9.4-1.9.8-2.8,1.1l-1.5.6c-.5.2-1.1.4-1.6.6-1.7.7-2.9,1.3-4.1,1.9-2.1,1.1-3.6,2.2-4.8,3.4-.7.7-1.4,1.4-1.8,2.2l-.2.3c-.4.2-.8.4-1.2.6-1.9,1-3.5,1.9-5,2.8-.3.2-.5.3-.8.5,7.6,4.6,13,12.6,14.2,21.9.2,0,.4-.2.6-.3,1-.4,1.9-.7,2.8-1l.7-.3c1.1-.4,2.2-.7,3.2-1.1.6-.2,1.1-.5,1.6-.7.9-.5,1.8-1,2.6-1.6.8-.6,1.5-1.2,2.3-2,.8-.8,1.6-1.7,2.5-2.6h.1c.5-.7,1-1.2,1.5-1.7.4-.4.9-.9,1.3-1.3.4-.4.8-.7,1.2-1.1.8-.7,1.7-1.5,2.5-2.2l.6-.5h.1c0,0,.1-.2.1-.2,1.5-1.3,3-2.6,4.5-4,1.9-1.8,4.4-4.1,6.6-6.7,0,0,0,0,.1,0,0,0,.1,0,.2,0,.3-.2.7-.3,1-.5,0,0,.2,0,.3-.1,0,0,0,0,0,0v.3c0,0,2.2,14,3,18.8v.3c0,0,0,.2.2.3.2.1.3.2.5.3.2,0,.4.1.6.1.5,0,.9,0,1.2-.2.2,0,.4-.2.5-.3.1,0,.3-.2.4-.4,0,0,0-.2.1-.3,0,0,.1-.2.1-.3,0,0,0,0,0,0,0,0,0,0,0-.2,0-.1,0-.2,0-.4h0c0-.1,0-.2,0-.2,0-.3-.8-5.1-1.5-9.8-.4-2.9-1-6.2-1.5-9.8.2-.1.5-.3.7-.4,1.5-.9,2.9-1.8,4.2-2.8,1-.7,1.7-1.4,2.3-2,.3-.2.5-.4.8-.6,0,0,0,0,.1-.1,1.3-1.1,1.3-3.8,0-5.1,0,0-.1-.1-.2-.2,0,0-.7-.3-.7-.4,0,0,0,0,0,0,2.1-1.5,1.7-4.4.4-5.7-.3-.3-.6-.5-.9-.7-.2-.1-.3-.3-.1-.5.9-1.3.4-3.7-.7-4.9-.7-.7-1.4-1.1-2.2-1.1h0c0-.8,0-1.9-.2-2.6-.3-1.4-2.5-3.8-4.3-3.4-1.1.3-1.9.9-2.7,1.7-.3.3-.5.4-.9.3-.7-4.6-1.2-7.5-1.2-7.5l-7.1-45.3c2.3-.9,9.4-4.4,28.1-12.5,19.7-8.5,39.1-17.9,58.9-26,1.8-.7,3.7-1.4,5.5-2l.6-.2.6-.2h.3c0,0,.3-.2.3-.2h.3c0,0,.4-.2.4-.2h.2c0,0,.2-.1.2-.1.2,0,.5-.2.7-.2h.3c-2.5-.9-4.5-1.4-6.5-1.7Z" fill="#231f20"/>
</svg>
