<?xml version="1.0" encoding="utf-8"?>
<svg version="1.2" baseProfile="tiny-ps" id="Lager_1" xmlns="http://www.w3.org/2000/svg"
	 viewBox="0 0 2048 2048" xml:space="preserve">
<title>Svenska Handelsbanken</title>
<desc>Svenska Handelsbanken</desc>
<rect fill="#005FA5" width="2047.95" height="2048"/>
<g>
	<polygon fill="#FFFFFF" points="1116.79,875.58 638.07,875.58 638.07,421.42 377.85,421.42 377.85,1604.69 638.07,1604.69 
		638.07,1094.07 1116.79,1094.07 1116.79,1604.69 1377.01,1604.69 1377.01,421.42 1116.79,421.42 	"/>
	<path fill="#FFFFFF" d="M2038.51,733.35c-44.15-6.06-87.77-9.13-130.81-9.13c-47.48,0-94.67,4.72-141.58,14.12
		c-46.91,9.44-89.14,25.2-126.66,47.33c-37.54,22.14-68.45,51.48-92.73,88c-24.28,36.52-38.09,82.47-41.39,137.78h235.67
		c4.39-46.68,19.8-80.05,46.19-100.07c26.39-20.02,62.7-30.04,108.9-30.04c20.89,0,40.41,1.42,58.55,4.18
		c18.14,2.76,34.1,8.29,47.86,16.57c13.75,8.29,24.76,19.91,33.01,34.83c8.25,14.96,12.37,35.14,12.37,60.57
		c1.11,24.36-6.06,42.89-21.52,55.62c-15.46,12.73-36.44,22.4-62.93,29.04c-26.49,6.63-56.84,11.63-91.07,14.92
		c-34.21,3.34-68.99,7.75-104.29,13.27c-35.33,5.55-70.37,13.01-105.14,22.4c-34.77,9.39-65.67,23.51-92.71,42.31
		c-27.04,18.83-49.12,44-66.23,75.52c-17.11,31.53-25.66,71.62-25.66,120.3c0,44.26,7.44,82.43,22.35,114.49
		c14.88,32.11,35.57,58.66,62.06,79.68c26.48,21.02,57.38,36.52,92.71,46.46c35.31,9.94,73.37,14.92,114.21,14.92
		c52.97,0,104.83-7.74,155.6-23.21c46.46-14.15,87.31-38.14,122.67-71.76V734.82C2044.8,734.32,2041.69,733.79,2038.51,733.35z
		 M2047.89,1273.32c0,13.27-1.38,30.95-4.14,53.05c-2.76,22.09-10.19,43.92-22.31,65.43c-12.12,21.56-30.85,40.05-56.19,55.5
		c-25.35,15.51-61.16,23.22-107.42,23.22c-18.75,0-36.94-1.65-54.56-4.94c-17.63-3.34-33.05-9.14-46.28-17.41
		c-13.23-8.29-23.69-19.61-31.4-33.99c-7.71-14.35-11.56-32.04-11.56-53.01c0-22.09,3.86-40.32,11.56-54.7
		c7.71-14.35,17.9-26.2,30.58-35.6c12.68-9.4,27.56-16.88,44.63-22.4c17.07-5.53,34.42-9.94,52.07-13.23
		c18.72-3.3,37.45-6.06,56.2-8.28c18.72-2.23,36.63-4.99,53.72-8.29c17.07-3.3,33.05-7.44,47.93-12.43
		c14.86-4.98,27.26-11.89,37.19-20.71V1273.32z"/>
</g>
</svg>
