<?xml version="1.0" encoding="UTF-8"?>
<svg xmlns="http://www.w3.org/2000/svg" baseProfile="tiny-ps" version="1.2" viewBox="0 0 96 96">
  <!-- Generator: Adobe Illustrator 28.7.1, SVG Export Plug-In . SVG Version: 1.2.0 Build 142)  -->
  <title>Solarmora Services</title>
  <g>
    <g id="artpix_x5F_logo">
      <rect x="0" width="96" height="96"/>
      <g>
        <path d="M35.9,63.6l-2.3,4.1h4.9l2.3-4.1h-4.9Z" fill="#00bfff"/>
        <path d="M28.7,67.8h2.4l2.3-4.1h-2.4l-2.3,4.1Z" fill="#00bfff"/>
        <path d="M23.4,67.8h1.2l2.3-4.1h-1.2l-2.3,4.1Z" fill="#00bfff"/>
        <path d="M37.3,54.6h5.1v-9.1h12.4s-5.5,7.4-5.5,7.4v2.5h6.1c2.2,0,4.1,1.8,4.1,4.1s-1.8,4.1-4.1,4.1h-12.7l-2.3,4.1h34.9c7.1,0,12.8-5.9,12.8-13.2s-5.7-13.2-12.8-13.2h-9.2s0,18.1,0,18.1h4.8v-14h3.5c4.9,0,8.8,4.1,8.8,9.1s-3.9,9.1-8.8,9.1h-12c.7-1.2,1.1-2.6,1.1-4.1,0-4.5-3.5-8.1-7.9-8.2l5.5-7.4v-2.5h-8.1c.8-1.3,1.2-2.9,1.2-4.5,0-4.8-3.8-8.6-8.4-8.6h-23.1l7.3,13.2h-14.6l-7.3,13.2h4.9l5-9.1h14.3l5,9.1ZM45.4,41.4c2.2,0,3.8-2.2,3.8-4.5s-2-4.5-4.4-4.5h-15.1l8.2,14.8v-5.7h7.4Z" fill="#fff" fill-rule="evenodd"/>
      </g>
      <g>
        <circle cx="84.5" cy="31.8" r="3.5" fill="#fff"/>
        <circle cx="84.5" cy="31.8" r="3"/>
        <path d="M84.5,32.3h-.8s0,1.6,0,1.6h-.7s0-4.1,0-4.1h1.5c1.3,0,1.5.8,1.5,1.2,0,.3,0,.9-.7,1.2l1,1.7h-.8s-.9-1.6-.9-1.6ZM83.8,31.7h.7c.2,0,.4,0,.6-.2.1-.1.2-.3.2-.5,0-.2,0-.4-.2-.5-.1-.1-.3-.2-.6-.2h-.8s0,1.4,0,1.4Z" fill="#fff"/>
      </g>
    </g>
  </g>
</svg>