<?xml version="1.0" encoding="UTF-8"?>
<!-- Generator: Adobe Illustrator 25.3.1, SVG Export Plug-In . SVG Version: 6.00 Build 0) -->
<svg version="1.2" baseProfile="tiny-ps" id="Ebene_2" xmlns="http://www.w3.org/2000/svg" xmlns:xlink="http://www.w3.org/1999/xlink" viewBox="0 0 283.5 283.5" xml:space="preserve">
    <title>Your Brand</title>
    <g id="Bildmarke_2_">
        <rect id="Fond_2_" x="2.8" y="2.8" width="277.8" height="277.8" fill="#FFFFFF" />
        <path id="Bildmarke_4_" d="M0,0v283.5h283.5V0H0z M138.8,226l12.7,14.4c-4.1,6.6-10.3,6.7-10.3,6.7s-8.6,0.6-10-8.1
		C130.3,233.7,135,229.2,138.8,226z M135.6,206.3c-0.2-3.1,1.6-6.6,5.4-7.2c3.4-0.6,6,2.1,6.6,5.1c1.2,6.1-6.3,10.4-6.3,10.4
		S135.8,211,135.6,206.3z M244.2,246.7h-32.3l-14.6-64.3l-13.9,64.3h-11.7l-8-8.7c0,0,4-7.6,5.5-15.4h-9.1c-0.9,4.2-3.2,8.2-3.2,8.2
		l-9.2-10.4c0,0,11.4-6.8,9.1-17.8c-1.4-6.8-7.9-13.3-17.7-11.8c-8.1,1.3-14.1,9.5-11.9,18.8c1.3,5.4,5.8,9.2,5.8,9.2
		s-15.1,8.7-12.9,22.8c0.3,1.6,0.9,3.4,2,5.1h-21.6l-14.6-64.3l-13.9,64.3H39.3l-23.8-95.6H45l13.5,65.5l14.6-65.5h25.6l14.9,65.4
		l13.6-65.4h29.3l13.5,65.5l14.6-65.5h25.6l14.9,65.4l13.5-65.4H268L244.2,246.7z" fill="#F84914" />
    </g>
</svg>
