<?xml version="1.0" encoding="utf-8"?>
<!-- Generator: Adobe Illustrator 28.0.0, SVG Export Plug-In . SVG Version: 6.00 Build 0)  -->
<svg version="1.2" baseProfile="tiny-ps" id="Layer_1" xmlns="http://www.w3.org/2000/svg" xmlns:xlink="http://www.w3.org/1999/xlink"
viewBox="0 0 100 100" xml:space="preserve">
<title>Wallarm</title>
<rect y="0" fill="#FFFFFF" width="100" height="100"/>
<path fill-rule="evenodd" d="M16.4,53.3h2.4l3,9l2.4-9h3L23,66.5h-2.4l-3-9l-3,9h-2.4L8,53.3h3l2.4,9L16.4,53.3z M32.2,64.5
	c2,0,3.4-1.1,3.4-2.7V61c-0.8-0.3-1.8-0.5-3-0.5c-1.9,0-3,0.8-3,2.1v0C29.7,63.8,30.8,64.5,32.2,64.5z M29,54
	c1.1-0.4,2.3-0.6,3.9-0.6c3.8,0,5.7,1.9,5.7,5.4v7.8h-3v-1.6c-0.9,1.1-2.2,1.9-4.1,1.9c-2.5,0-4.6-1.4-4.6-4v0
	c0-2.8,2.2-4.2,5.3-4.2c1.6,0,2.5,0.2,3.5,0.5v-0.3c0-1.8-1.1-2.8-3.1-2.8c-1.3,0-2.4,0.3-3.5,0.7V54z M40.4,66.5v-18h3v18H40.4z
	 M45.2,66.5v-18h3l0.1,18H45.2z M55,64.5c2,0,3.4-1.1,3.4-2.7V61c-0.8-0.3-1.8-0.5-3-0.5c-1.9,0-3,0.8-3,2.1v0
	C52.5,63.8,53.6,64.5,55,64.5z M51.8,54c1.1-0.4,2.3-0.6,3.9-0.6c3.8,0,5.7,1.9,5.7,5.4v7.8h-3v-1.6c-0.9,1.1-2.2,1.9-4.1,1.9
	c-2.5,0-4.6-1.4-4.6-4v0c0-2.8,2.2-4.2,5.3-4.2c1.6,0,2.5,0.2,3.5,0.5v-0.3c0-1.8-1.1-2.8-3.1-2.8c-1.3,0-2.4,0.3-3.5,0.7V54z
	 M63.2,66.5V53.3h3v2.9c0.8-1.9,2.3-3.3,4.6-3.2v3.1h-0.2c-2.6,0-4.4,1.7-4.4,5.1v5.2H63.2z M92,58v8.5h-3V59c0-2.1-0.9-3.3-2.6-3.3
	c-1.6,0-2.8,1.3-2.8,3.3v7.4h-3v-7.6c0-2-0.9-3.1-2.6-3.1c-1.6,0-2.8,1.3-2.8,3.3v7.4h-3V53.3h3v2c0.8-1.2,2-2.2,4-2.2
	c1.9,0,3.2,0.9,3.9,2.3c1.1-1.4,2.4-2.3,4.4-2.3C90.3,53,92,54.8,92,58z"/>
<path fill="#FC7303" d="M52.3,35.8l16-6.8v9.6L83,32.4v7.7l7.9-3.3v5.5L83,45.6v-2.9l-14.8,6.3v-4.5l-15.9,6.8V35.8z"/>
</svg>
