<?xml version="1.0" encoding="utf-8"?>
<!-- Generator: Adobe Illustrator 28.1.0, SVG Export Plug-In . SVG Version: 6.00 Build 0)  -->
<svg version="1.2" baseProfile="tiny-ps" xmlns:xlink="http://www.w3.org/1999/xlink" viewBox="0 0 500 500" xmlns="http://www.w3.org/2000/svg">
  <title>Ash and Erie</title>
<rect x="0" y="-0.3" fill="#66A6A6" width="500" height="500" />
<g>
	<path fill="#FFFFFF" d="M51.7,214h14.6l18.8,71.4H73.2l-4.4-17.5H47.9l-4.6,17.5H31.4L51.7,214z M66.9,258.8l-8.2-35.2h-0.2   L50,258.8H66.9z" />
	<path fill="#FFFFFF" d="M101.9,263.3v1.8c0,8.7,3.9,13.1,11.7,13.1c7.1,0,10.8-5.2,10.8-10.4c0-7.5-3.8-10.8-10.2-12.7l-7.8-2.7   c-10.4-4-14.9-9.4-14.9-19.6c0-13,8.9-20.2,22.2-20.2c18.3,0,20.2,11.4,20.2,18.8v1.6h-11.4v-1.5c0-6.5-2.8-10.3-10-10.3   c-4.9,0-9.6,2.7-9.6,10.3c0,6.1,3.1,9.2,10.7,12.1l7.7,2.8c10.1,3.6,14.5,9,14.5,18.9c0,15.2-9.2,21.5-23.6,21.5   c-17.7,0-21.7-11.8-21.7-21.8v-1.7H101.9z" />
	<path fill="#FFFFFF" d="M145,214h11.4v28.6h21V214h11.4v71.4h-11.4v-33.2h-21v33.2H145V214z" />
	<path fill="#FFFFFF" d="M210.3,266.9c-0.1-4,1.1-7.9,3.4-11.2c2.3-3.3,6.3-6.5,12.2-9.9c-2.1-2.2-3.9-4.5-5.6-7   c-1-1.6-1.8-3.2-2.4-5c-0.6-1.7-0.9-3.5-0.9-5.4c0-4.9,1.6-8.7,4.8-11.4c3.2-2.7,7.6-4.1,13.3-4.1c5.3,0,9.4,1.4,12.4,4.1   s4.5,6.5,4.5,11.3c0,3.5-1.2,6.9-3.3,9.7c-2.2,2.9-5.9,5.9-11,9l19.9,19.1c1.9-2.1,3.3-4.5,4.4-7.1c1.1-2.9,2.1-5.9,2.8-8.9h8.2   c-2.2,9.3-5.5,16.4-10,21.2l14.6,14.1h-11.2l-9-8.7c-6.7,6.4-15.7,9.9-25,9.7c-7,0-12.4-1.7-16.3-5.2   C212.2,277.7,210.3,272.9,210.3,266.9z M232.5,279.1c7.9,0,14.4-2.5,19.5-7.5l-21.3-20.7c-2.7,1.6-5.3,3.4-7.7,5.5   c-1.4,1.3-2.5,2.9-3.3,4.7c-0.7,1.8-1.1,3.7-1.1,5.7c-0.2,3.4,1.2,6.8,3.8,9.1C225,277.9,228.3,279.1,232.5,279.1z M224.9,228.2   c0,2.3,0.6,4.5,1.8,6.5c1.7,2.7,3.7,5.1,6,7.3c4.2-2.4,7.1-4.7,8.8-6.8c1.6-2,2.5-4.6,2.5-7.1c0.1-2.3-0.8-4.6-2.5-6.2   c-1.8-1.6-4.2-2.5-6.7-2.4c-2.6-0.1-5.1,0.7-7.1,2.4C225.8,223.5,224.8,225.8,224.9,228.2z" />
	<path fill="#FFFFFF" d="M296.1,214h38.6v9.6h-27.2v19.8h25.6v9.6h-25.6v22.8h28v9.6h-39.4V214z" />
	<path fill="#FFFFFF" d="M347.2,214h25.2c10,0,18.1,5.1,18.1,18.4c0,9.2-4,16.3-11.9,17.5v0.2c7.2,0.7,10.8,4.6,11.2,14.6   c0.1,4.7,0.1,10.2,0.4,14.5c0.1,2.5,1.3,4.8,3.4,6.2h-12.9c-1.1-1.3-1.6-3.5-1.9-6.3c-0.2-2.1-0.3-4.3-0.3-6.4   c0-2.1-0.1-4.5-0.2-7.1c-0.3-7.8-2.7-11.2-10.4-11.2h-9.3v31h-11.4V214z M367.7,245.8c7.3,0,11.4-4.4,11.4-11.6   c0-7.6-3.2-11.6-10.8-11.6h-9.7v23.2H367.7z" />
	<path fill="#FFFFFF" d="M403.4,214h11.4v71.4h-11.4V214z" />
	<path fill="#FFFFFF" d="M429.1,214h38.6v9.6h-27.2v19.8h25.6v9.6h-25.6v22.8h28v9.6h-39.4V214z" />
</g>
</svg>