<?xml version="1.0" encoding="UTF-8" standalone="yes"?>
<svg version="1.2" baseProfile="tiny-ps" viewBox="0 0 1440 1440" xml:space="preserve" xmlns="http://www.w3.org/2000/svg">
  <title>Overland Sheepskin</title>
  <rect width="1440" height="1440" fill="#3f2016" stroke-width="0"/>
  <g>
    <path d="M76.7,647.8c74.3-45,153-82,231.4-119.1,39.8-18.8,79.3-39.5,120.6-54.9,19.6-7.3,38.4-14.7,56.4-25.6,16.6-10,54.7-36.6,60.7-38.9,16.6-6.2,36.2,14.8,56.8,23.1,22.9,9.3,55.3,36.7,69.2,36.5,31.3-.2,39.6-26.1,59.8-26.1,28.6,0,27.7,18.4,66.5,14.7,32.3-3.1,106.5,40.6,153,68.4,28.4,17,135.5,36.3,177,35.1,40.6-1.2,153.5,45.3,231.9,86.7H76.7Z" fill="none" stroke-width="0"/>
    <path d="M1173,570.2c-16.4-10.8-37.5-12.5-56.8-8.8-19.3,3.6-37.3,12.1-55.1,20.5-43,20.3-85.9,40.7-128.9,61,83-6.6,152.7-78,235.9-75.4" fill="#e1b77e" stroke-width="0"/>
    <path d="M848.5,470.2c-10.2-8.3-37.6-14-50.5-12-12.9,2-24.9,7.8-36.5,13.9-41.5,21.9-80.5,49.3-125,64.2,29.6-.3,69.6-12.8,95.3-27.3,19.9-11.3,40.3-21.8,60.9-31.7,15.3-7.3,32.6-14.3,48.7-9" fill="#e1b77e" stroke-width="0"/>
    <path d="M720.7,443.2c-8,5.1-38,22.2-38,22.2-39.9,17.3-82.3,47.4-113.7,59.8-29.2,11.5-60.8,16.1-91,24.2-20.2,5.4-39.5,12.2-57.6,22.7-19.9,11.5-37.2,25.9-56.1,38.6-3,2-5.9,3.7-8.8,5.2,10.1-3.1,20.2-6.2,30.1-9.6,28.7-9.9,32.5-18,61.7-26,12.3-2.5,27.9-3.6,39.2-10.8,24-15.4,32.2-2.5,65.9-18.4,33.7-15.9,120.1-60.1,133.6-68.4,13.5-8.3,43.2-38.5,48.7-38.5s-6-6-14-1Z" fill="#e1b77e" stroke-width="0"/>
    <path d="M202.2,577.2c34.1-16.3,317-148.3,318.5-150.4,5.9-8.1,31.7-20.9,31.7-20.9-15.2,6-19.7,47.1-31.5,54.3-12.8,7.8-26.4,13.8-40.3,19.2-52.1,20.1-88.7,53.3-152.3,69.5-65.2,16.7-108.9,41.3-154.4,65.3l-97.2,34" fill="#e1b77e" stroke-width="0"/>
    <path d="M76.7,645.4c74.3-45,153-82,231.4-119.1,39.8-18.8,79.3-39.5,120.6-54.9,19.6-7.3,38.4-14.7,56.4-25.6,16.6-10,54.7-36.6,60.7-38.9,16.6-6.2,36.2,14.8,56.8,23.1,22.9,9.3,55.3,36.7,69.2,36.5,31.3-.2,39.6-26.1,59.8-26.1,28.6,0,27.7,18.4,66.5,14.7,32.3-3.1,106.5,40.6,153,68.4,28.4,17,135.5,36.3,177,35.1,40.6-1.2,153.5,45.3,231.9,86.7" fill="none" stroke="#e1b77e" stroke-linecap="round" stroke-miterlimit="10" stroke-width="7"/>
    <path d="M1343.2,835.2c-4.2,0-7.5-3.4-7.5-7.5s3.3-7.6,7.6-7.6,7.5,3.4,7.5,7.5-3.3,7.6-7.6,7.6ZM1343.3,820.7c-3.9,0-6.9,3.1-6.9,6.9s2.9,6.9,6.8,6.9,6.9-3.1,6.9-6.9-2.9-6.9-6.8-6.9ZM1344.7,828.2l2.4,3.1h-1.4l-2.2-2.9h-2v2.9h-1.1v-7.7h3.5c1.7,0,2.9.9,2.9,2.3s-.8,2-2,2.3ZM1343.7,824.6h-2.3v2.8h2.2c1.1,0,1.8-.5,1.8-1.4s-.7-1.4-1.8-1.4Z" fill="#f3e8da" stroke-width="0"/>
    <g>
      <g>
        <path d="M240.2,714.1c-6.9-8.7-16.4-15.6-28.5-20.7-12.1-5.1-26.3-7.7-42.7-7.7s-18.3.8-26.2,2.5c-7.8,1.7-15.5,4.4-23,8.2-7.5,3.8-13.7,8.2-18.7,13.1-5,4.9-8.8,10.3-11.6,16.2-3.8,8.2-5.7,16.3-5.7,24.4s.8,12.6,2.5,17.7c2.5,7.8,4.8,13.3,6.7,16.3,3.6,5.4,8,10.2,13.3,14.4,5.2,4.3,12.1,8.4,20.7,12.5.7.3,4.1,1.2,10.1,2.8,3.3.9,7.2,1.6,11.6,2.2,5.8.7,12.1,1.1,18.8,1.1,27.1,0,48.2-6.6,63.4-19.8,15.2-13.2,22.8-29.1,22.8-47.6s-4.5-24.3-13.5-35.6ZM214,786.3c-5,7.9-11.6,13.5-19.9,16.8-5.8,2.3-12,3.8-18.5,4.5-2.6.3-5.3.5-8.1.5s-3.8-.1-5.6-.4c-3.3-.3-6.5-.9-9.8-1.8-5.1-1.4-9-3-11.6-4.7-5.3-3.3-9.2-6.6-11.9-9.9-1.6-2-4.3-7.1-8.2-15.4-1.1-2.2-2-5.8-2.8-10.6-.4-1.9-.6-3.2-.8-4-.6-2.4-.9-6.4-.9-12.1,0-9.2,1.1-17,3.2-23.5,2.1-6.4,5.7-12.4,10.8-17.8,3-3.2,7.5-6.1,13.5-8.8,6-2.6,12.8-4,20.6-4,14.1,0,25.8,2.8,35.1,8.4,9.3,5.6,15.6,13.8,18.9,24.5.6,2.2,1.1,3.5,1.3,4l.7,1.9c1,9,1.5,16.1,1.5,21.3,0,12.7-2.5,23-7.5,30.9Z" fill="#f3e8da" stroke-width="0"/>
        <path d="M328.1,814.2c-9-16.9-17.8-33.7-26.3-50.4-8.5-16.6-16.5-33.5-23.8-50.5-1.4-3.3-2.8-6.2-4.1-8.6-1.3-2.4-3-4.4-5.1-6-2-1.6-4.6-2.9-7.7-3.9-3.1-.9-7.2-1.7-12.2-2.3-.9-.1-1.6-.5-2-1.2-.5-.7-.7-1.4-.7-2.1s.2-1.4.7-2.1c.5-.6,1.1-.9,2-.9,5.9,0,11.7.2,17.2.6,5.6.4,11.1.6,16.5.6s11.7-.2,17.9-.6c6.2-.4,12.1-.6,17.8-.6s2.1.3,2.6.9c.5.6.8,1.3.8,2s-.3,1.6-.9,2.3c-.6.7-1.4,1.1-2.5,1.1-2,0-4.1,0-6.2,0-2.1,0-4,.3-5.6.8-1.7.5-3,1.2-4.1,2.3-1.1,1.1-1.6,2.6-1.6,4.6,0,3.5,3.1,12.2,9.4,26.2,6.3,14,15.8,33.8,28.6,59.5.2.6.8.9,1.6.9.9,0,1.5-.2,1.9-.9,5.9-12.3,11-23.2,15.4-32.6,4.4-9.4,8-17.6,10.9-24.5,2.9-6.9,5.1-12.5,6.5-16.9,1.4-4.4,2.1-7.6,2.1-9.8s-.3-4.1-1-5.4c-.7-1.3-1.7-2.3-3.1-2.9-1.4-.6-3.1-1-5.1-1.1-2-.1-4.3-.2-7-.2s-1.9-.3-2.4-1c-.5-.7-.8-1.4-.8-2.2s.2-1.5.7-2.1c.5-.6,1.1-.9,2-.9,5,0,9.8.2,14.3.6,4.5.4,9,.6,13.5.6s8.5-.2,12.4-.6c4-.4,8.4-.6,13.1-.6s1.5.3,1.9.8c.4.6.6,1.2.6,2s-.3,1.6-.9,2.2c-.6.7-1.5,1.1-2.8,1.2-4.9.4-8.9,1.4-12,3-3.1,1.6-5.6,3.7-7.6,6.1-2,2.5-3.7,5.2-5.1,8.4-1.4,3.1-2.9,6.4-4.6,9.8-7.7,15.8-15.3,31.4-22.7,47.1-7.4,15.6-14.9,31.3-22.7,47.1-.5.9-1.2,1.5-2.1,2-.9.5-2,.7-3,.7-2.4,0-4-.9-4.9-2.7Z" fill="#f3e8da" stroke-width="0"/>
        <path d="M563,687c1.3,0,2.4.1,3.3.4,1.1.3,1.6,1.3,1.3,3-.2,1-.3,2.1-.4,3.2,0,1.2,0,2.4,0,3.7v3c0,2.8.1,5.4.3,8.1.2,2.6.3,5.2.3,7.8s-.4.9-1.1,1.2c-.8.3-1.6.4-2.4.4s-1.5-.1-2.2-.4c-.7-.2-1.1-.6-1.2-1.2-1-4.8-2-8.7-3.1-11.5-1.1-2.8-2.6-4.9-4.5-6.4-1.9-1.4-4.4-2.3-7.5-2.7-3.1-.4-16.4-.6-21.5-.7h-13.3c-4.2,0-23.8,0-26.1.2-2.4.1-4.2.6-5.3,1.4-1.2.8-1.9,2.1-2.2,3.8-.3,1.7-.4,4.2-.4,7.4v33c0,1.8.4,2.9,1.1,3.3.7.4,1.4.6,2.2.6,6.8,0,28.4-.3,32.3-.8,3.9-.5,6.8-1.4,8.8-2.7,2-1.3,3.3-3,4-5.2.7-2.2,1.2-4.9,1.7-8.2.1-.7.6-1.2,1.5-1.5.8-.3,1.7-.5,2.6-.5s1.6.2,2.3.5c.6.3,1,.8,1,1.5,0,2,0,3.8-.2,5.4-.1,1.6-.3,3.1-.5,4.7-.2,1.6-.3,3.2-.5,4.9-.1,1.7-.2,3.7-.2,5.9,0,3.9.2,7.3.6,10.3.3,1.5.5,3.2.6,5.1.1,1.9.2,3.9.2,6.1s-.4,1.1-1.1,1.4c-.7.3-1.5.5-2.4.5s-1.8-.2-2.5-.5c-.8-.3-1.2-.8-1.3-1.4-.4-3.7-1-6.7-1.7-8.9-.7-2.3-2-4.1-4-5.3-2-1.3-4.9-2.2-8.8-2.6-3.9-.5-25.5-.7-32.3-.7s-1.4.2-2.2.7c-.7.5-1.1,1.4-1.1,2.7v24.8c0,5.8.3,10.3.9,13.6.6,3.3,2,5.8,4.1,7.5,2.1,1.7,21.4,2.8,25.5,3.2,4.1.5,9.5.7,16.3.7s7-.1,10.1-.4c3.1-.2,5.4-.6,7-1.1,2.9-.9,5.4-1.9,7.5-2.9,2.2-1,4-2.4,5.5-4,1.5-1.6,2.7-3.6,3.7-6.1.9-2.5,1.7-5.6,2.3-9.3.1-.7.6-1.2,1.5-1.5.8-.3,1.7-.5,2.7-.5s2,.2,2.9.6c.9.4,1.2.9,1.1,1.6-.7,5.3-1.4,10.3-2,14.8-.6,4.5-.8,9.2-.7,14,0,.2,0,.4-.2.7-.1.3-.3.6-.7.9-.4.3-.9.5-1.6.7-.7.2-1.6.3-2.6.3h-96.3c-5.6,0-11.1.1-16.4.4-5.4.2-10.2.5-14.5.7-.9,0-1.7-.3-2.2-1-.5-.7-.8-1.4-.8-2.3s.2-1.3.6-1.9c.4-.6,1.1-1,2.1-1.1,3.4-.4,6.4-.9,9-1.6,2.6-.7,4.7-1.7,6.3-3,1.7-1.3,2.9-3,3.7-5.1.8-2.1,1.2-4.6,1.2-7.7v-72.6c0-2.8-.1-5.5-.3-8.2-.2-2.7-.7-5.1-1.5-7.3-.8-2.2-1.9-4.1-3.4-5.7-1.5-1.6-3.6-2.7-6.3-3.3-1.6-.4-3.3-.8-5.1-1-1.8-.2-3.5-.4-5.1-.6-.9,0-1.5-.3-1.9-.9-.4-.6-.6-1.2-.6-2s.2-1.5.6-2.2c.4-.6,1-1,1.8-1,4.9,0,9.3,0,13.4.3,4,.2,8.6.3,14,.3h104.5Z" fill="#f3e8da" stroke-width="0"/>
        <path d="M607.4,718.6c0-2.7,0-5.4-.3-8.1-.2-2.7-.6-5.1-1.3-7.4-.7-2.3-1.7-4.2-3.1-5.9-1.3-1.6-3.2-2.7-5.6-3.4-1.4-.4-2.9-.8-4.5-1-1.6-.2-3.1-.4-4.5-.6-.8,0-1.4-.3-1.8-.9-.4-.6-.6-1.3-.6-2s.2-1.4.6-2.1c.4-.6,1-1,1.8-1,2.2,0,4.3,0,6.3,0,1.9,0,3.8.2,5.6.3,1.8.1,3.7.2,5.8.3,2.1,0,4.3,0,6.7,0,4,0,7.5-.1,10.8-.2,3.2,0,6.1-.2,8.7-.3,5.2-.2,31.7-.3,36.4-.3s10.5.6,15.6,1.8c5.1,1.2,9.6,3.1,13.6,5.8,4,2.7,7.2,6.1,9.6,10.3,2.4,4.2,3.6,9.3,3.6,15.4s-.8,8.9-2.2,12.5c-1.5,3.5-3.6,6.6-6.2,9.1-2.6,2.5-5.8,4.6-9.3,6.1-3.6,1.6-7.5,2.8-11.7,3.6-.9.2-1.3.7-1.3,1.2s.4,1.1,1.3,1.6c4.1,2,7.5,4.1,10.3,6.3,2.8,2.2,5.2,4.5,7,6.9,1.9,2.4,3.4,4.8,4.5,7.4,1.1,2.5,2,5.1,2.8,7.6.7,2.6,1.4,5.2,1.9,7.8.5,2.6,1.1,5.2,1.7,7.7.6,2.9,1.7,5.1,3.3,6.4,1.5,1.3,3.1,1.9,4.6,1.9s3.1-.6,4.5-1.8c1.4-1.2,2.5-3.1,3.3-5.7.2-.9.5-1.4,1.1-1.7.5-.3,1.1-.5,1.7-.5,1,0,1.9.3,2.7.9.8.6,1.2,1.3,1.1,2-.4,3.1-1.3,5.8-2.7,8.1-1.4,2.3-3.2,4.1-5.3,5.6-2.1,1.5-4.4,2.5-6.9,3.2-2.5.7-5,1-7.5,1s-4.1-.2-6-.6c-1.9-.4-3.7-1.1-5.3-2-1.6-.9-3-2-4.2-3.2-1.2-1.3-2.1-2.7-2.6-4.4-.8-2.1-1.6-4.4-2.3-6.9-.7-2.5-1.4-5.1-2.1-7.6-.7-2.6-1.3-5.1-1.9-7.5-.6-2.4-1.2-4.6-1.7-6.6-2.4-8-5.5-13.8-9.2-17.3-3.7-3.6-30.4-5.3-37-5.3s-4.1.4-5.7,1.3c-1.6.9-2.3,2.7-2.3,5.3v25.5c0,4.2.5,7.7,1.4,10.3.9,2.6,2.3,4.7,4.1,6.1,1.8,1.5,4.1,2.5,6.7,3.1,2.7.6,5.8,1,9.3,1.3.8,0,1.5.3,1.9,1,.4.7.6,1.4.6,2.2s-.2,1.5-.7,2.1c-.4.6-1.1,1-2,1-3.3,0-6.3,0-9.1-.2-2.8-.2-5.5-.3-8.1-.5-2.6-.2-5-.4-7.4-.5-2.4-.2-4.8-.2-7.1-.2-5,0-9.9.2-14.7.7-4.8.5-9.5.7-14.1.7s-1.4-.3-1.8-1c-.4-.6-.6-1.4-.6-2.2s.2-1.4.5-2c.3-.6,1-1,1.9-1.1,3.7-.4,6.7-.9,9-1.5,2.3-.6,4.1-1.6,5.5-3,1.3-1.4,2.2-3.2,2.7-5.5.5-2.3.7-5.3.7-9v-70.8ZM628.8,741.1c0,3.3.9,5.2,2.8,5.7,1.9.6,4.8.8,8.6.8s30.9-.5,34.4-1.4c3.4-1,6.2-2.5,8.3-4.7,2.1-2.2,3.5-5,4.4-8.5.9-3.5,1.3-7.7,1.3-12.8s-.5-8.9-1.4-12.2c-.9-3.3-2.4-6-4.4-8-2-2-4.7-3.5-7.9-4.4-3.3-.9-28.8-1.3-33.5-1.3s-8.6.6-10.1,1.9c-1.6,1.2-2.4,3.7-2.4,7.6v37.2Z" fill="#f3e8da" stroke-width="0"/>
        <path d="M762.1,715.3c0-3.9-.2-7.3-.7-10-.4-2.7-1.3-5-2.6-6.8-1.3-1.8-3.2-3.2-5.6-4.1-2.4-.9-5.6-1.5-9.7-1.7-.8,0-1.4-.3-1.8-.9-.4-.6-.6-1.3-.6-2.2s.2-1.5.6-2.2c.4-.7,1-1,1.8-1,4.1,0,8.9.2,14.3.6,5.3.4,10.4.6,15.1.6s5.3,0,7.7-.2c2.4-.1,4.8-.2,7.1-.4,2.3-.1,4.6-.2,7-.4,2.4-.1,4.9-.2,7.6-.2s1.3.3,1.6.9c.3.6.5,1.2.5,1.9s-.2,1.7-.6,2.4c-.4.7-1,1.1-1.7,1.1-4.1.2-7.4.8-9.8,1.6-2.5.8-4.3,2.1-5.6,3.8-1.3,1.7-2.1,4-2.5,6.8-.4,2.8-.6,6.3-.6,10.5v65.6c0,4,.2,7.3.6,10.1.4,2.7,1.1,5,2.2,6.8,1.1,1.8,2.5,3.2,4.3,4.3,1.8,1.1,4.1,1.9,6.9,2.6,1.9.4,3.9.6,6.2.8,2.3.2,22.1.3,24.6.3,4.6,0,14.3-.4,17.7-1.2,3.4-.8,6.3-2.1,8.8-4.1,2.5-2,4.6-4.7,6.4-8.2,1.8-3.5,3.4-7.9,4.8-13.3.1-.7.6-1.2,1.3-1.4.7-.3,1.5-.4,2.4-.4s1.8.2,2.6.5c.8.3,1.1.8,1,1.5-.6,5.3-1.2,10.8-1.8,16.3-.5,5.6-.8,10.7-.6,15.5,0,.2,0,.4-.1.7,0,.3-.3.6-.6.9-.3.3-.8.5-1.4.7-.6.2-1.4.3-2.3.3h-94.2c-5.1,0-10,.2-14.7.5-4.7.3-9.3.6-13.9.8-.9,0-1.6-.3-2.1-.9-.5-.6-.7-1.3-.7-2.1s.2-1.5.7-2.1c.5-.6,1.2-1,2.1-1.1,4-.5,7.3-1,9.7-1.6,2.5-.6,4.4-1.5,5.7-2.7,1.3-1.3,2.2-3.1,2.7-5.4.4-2.3.7-5.5.7-9.6v-74.1Z" fill="#f3e8da" stroke-width="0"/>
        <path d="M922.3,769.2c-1.8,0-3.1.3-3.9.8-.8.6-1.5,1.5-2.2,3l-8.8,22.2c-.7,2-1.1,3.5-1.1,4.3,0,1.6.4,3,1.3,4.1.9,1.1,2,2,3.4,2.7,1.4.7,3.1,1.2,4.9,1.5,1.9.3,3.7.6,5.6.7,1,0,1.6.3,2,1,.4.7.6,1.4.6,2.1s-.2,1.5-.6,2.2c-.4.7-1.1,1-2,1-1.5,0-3.2,0-5.1-.2-1.9-.2-3.7-.3-5.7-.5-1.9-.2-3.9-.4-5.9-.5-2-.2-3.9-.2-5.6-.2-3.4,0-6.7.2-9.8.7-3.2.5-6.6.7-10.2.7s-1.4-.4-1.8-1.1c-.4-.7-.7-1.5-.7-2.4s.2-1.3.5-1.8c.3-.5.9-.9,1.8-1l3-.4c2-.4,3.7-1,5.3-1.6,1.6-.6,3-1.5,4.5-2.7,1.4-1.2,2.7-2.8,4-4.9,1.3-2.1,2.6-4.7,4-8.1l44.3-107.3c.4-1,1.4-1.6,3.2-1.6s3.2.5,4.3,1.6c3.3,8,6.7,16.7,10.5,25.8,3.7,9.2,7.5,18.5,11.4,28,3.9,9.5,7.8,18.9,11.7,28.3,3.9,9.4,7.7,18.2,11.2,26.6,1.5,3.6,3,6.4,4.5,8.4,1.5,2,3,3.5,4.5,4.6,1.5,1,3.1,1.8,4.7,2.1,1.6.4,3.3.7,5.1,1.1.8.1,1.3.5,1.7,1.2.4.7.5,1.4.5,2.1s-.2,1.5-.5,2.1c-.3.6-.8.9-1.5.9-2,0-4.1,0-6.1-.2-2-.1-4-.3-6-.6-1.9-.2-4-.4-6.1-.6-2.2-.1-4.5-.2-6.9-.2-5.6,0-10.7.2-15.5.7-4.8.5-9.4.7-13.9.7s-1.6-.3-2.1-1c-.5-.7-.7-1.5-.7-2.4s.2-1.4.6-1.9c.4-.5,1.1-.9,2-1,4.5-.6,7.7-1.3,9.8-2.3,2.1-1,3.2-3.1,3.2-6.3s0-1.9-.3-3c-.2-1.1-.6-2.7-1.2-4.7-.6-2-1.5-4.5-2.7-7.6-1.2-3.1-2.8-7-4.7-11.7-.6-1.7-1.5-2.7-2.6-3.1-1.1-.4-2.9-.6-5.4-.6h-34.6ZM956,761.8c1.8,0,3-.3,3.7-.9.7-.6.7-1.6,0-3.1l-17.1-44.1c-.3-.7-.8-1-1.5-1s-1.3.3-1.5,1l-17.9,44.1c-.6,1.6-.7,2.7-.2,3.2.5.5,1.5.8,3,.8h31.6Z" fill="#f3e8da" stroke-width="0"/>
        <path d="M1045.7,707.6c0-2.1-.3-4-1-5.7-.6-1.7-1.7-3.2-3.1-4.5-1.4-1.3-3.3-2.3-5.6-3.1-2.3-.8-5.1-1.3-8.4-1.7-.7,0-1.2-.3-1.5-1-.3-.7-.5-1.4-.5-2.2s.2-1.5.5-2.1c.3-.6.9-.9,1.7-.9h7.4c3.4,0,6.9,0,10.4.3,3.5.2,6.7.5,9.6.8,3,.4,4.7.9,5.2,1.5l98,90.4c.3.4.7.5,1.4.4.7-.1,1-.6,1-1.3v-50.7c0-2.2,0-4.6,0-7.1,0-2.5-.1-5-.2-7.5-.1-2.4-.3-4.7-.5-6.8-.2-2.1-.6-3.8-1-5.1-.6-1.8-1.2-3.3-1.9-4.4-.7-1.1-1.6-1.9-2.7-2.5-1.1-.6-2.4-1-4.1-1.2-1.6-.2-3.6-.4-6-.6-.7,0-1.2-.3-1.5-1-.3-.7-.5-1.4-.5-2.2s.2-1.4.5-2.1c.3-.6.8-.9,1.5-.9,3.1,0,6.5.2,10.1.6,3.6.4,7.2.6,10.9.6s6.7-.2,10.1-.6c3.3-.4,7.1-.6,11.3-.6s1.4.3,1.8,1c.4.7.6,1.4.6,2.2s-.2,1.5-.6,2.2c-.4.6-1,.9-1.8.9-2.3.2-4.2.4-5.6.6-1.4.1-2.6.4-3.6,1-1,.5-1.8,1.3-2.6,2.4-.8,1.1-1.6,2.7-2.6,4.7-.6,1.5-1.1,3.6-1.5,6.3-.4,2.6-.6,5.5-.8,8.5-.2,3-.3,6-.3,9,0,3,0,5.6,0,7.9v81.6c0,.4-.5.8-1.6,1.1-1.1.3-2.2.5-3.4.5s-1.4,0-2-.2c-.6-.2-1.1-.4-1.2-.8l-103.3-96.2c-.3-.4-.9-.6-1.8-.6s-1.3.5-1.3,1.5v68.7c0,4.5.4,8,1.1,10.4.7,2.5,1.9,4.4,3.4,5.6,1.5,1.3,3.4,2.1,5.6,2.5,2.2.4,4.8.8,7.8,1.2.8.1,1.3.5,1.7,1.1.4.6.5,1.3.5,2.1s-.2,1.5-.6,2.2c-.4.6-1,.9-1.8.9-2.9,0-6-.2-9.5-.6-3.5-.4-7.6-.6-12.3-.6s-9.4.2-13.2.6c-3.8.4-7,.6-9.7.6s-1.3-.3-1.7-1c-.4-.7-.6-1.4-.6-2.2s.2-1.3.5-2c.4-.6.9-1,1.8-1.1,3.4-.4,6.2-.8,8.5-1.2,2.3-.4,4.1-1.3,5.5-2.5,1.4-1.3,2.3-3.1,2.9-5.6.6-2.5.9-6,.9-10.4v-81Z" fill="#f3e8da" stroke-width="0"/>
        <path d="M1221.9,718.6c0-4.2-.2-7.9-.7-11.1-.5-3.2-1.4-5.8-2.8-8-1.4-2.2-3.4-3.9-5.8-5-2.5-1.2-5.8-1.9-9.9-2.1-.8,0-1.4-.3-1.8-.9-.4-.6-.6-1.3-.6-2s.2-1.4.6-2.1c.4-.6,1-1,1.8-1,2.2,0,4.3,0,6.3,0,1.9,0,3.8.2,5.6.3,1.8.1,3.7.2,5.8.3,2.1,0,4.3,0,6.7,0,5.4,0,10.7-.1,15.9-.4,5.2-.2,35.2-.4,40.6-.4,10.7,0,20.6,1.6,29.6,4.9,9,3.3,16.8,7.8,23.5,13.7,6.6,5.8,11.8,12.8,15.5,20.9,3.7,8.1,5.6,16.9,5.6,26.5s-1.8,19.7-5.3,27.6c-3.5,7.8-8.4,14.3-14.6,19.5-6.2,5.2-13.5,9-21.9,11.6-8.4,2.5-17.5,3.8-27.3,3.8s-36.4-.2-41.9-.7c-5.5-.5-10.5-.7-15-.7s-5.3,0-7.5.1c-2.2,0-4.3.2-6.4.3-2.1.1-4.2.3-6.4.5-2.2.2-4.6.4-7.2.7-.8.1-1.5-.2-2-.9-.5-.7-.8-1.5-.8-2.4s.2-1.3.6-1.9c.4-.6,1.1-1,2.2-1.1,3.1-.4,5.8-1,8-1.6,2.2-.6,4.1-1.6,5.5-2.9,1.4-1.3,2.5-2.9,3.2-5,.7-2.1,1-4.7,1-8v-72.6ZM1243.2,778.2c0,6.3.3,11.2.8,15,.5,3.7,1.7,6.5,3.4,8.4,1.7,1.9,4.2,3.1,7.4,3.7,3.2.6,32.2.8,37.6.8s11.2-1.2,16.1-3.5c4.9-2.4,9.1-5.8,12.6-10.4,3.5-4.6,6.3-10.2,8.3-16.9,2-6.7,3-14.4,3-23s-1-17.4-2.9-24.4c-1.9-7.1-5.2-13-9.7-17.8-4.5-4.8-10.4-8.4-17.8-10.9-7.3-2.5-41.1-1.9-51.9-1.9s-4.4.4-5.4,1.3c-1.1.9-1.6,2.6-1.6,5v74.8Z" fill="#f3e8da" stroke-width="0"/>
      </g>
      <g>
        <path d="M375.3,869.2h33v8.6h-23.5v8.9h20.6v8.6h-20.6v9.2h23.8v8.6h-33.3v-43.8Z" fill="#f3e8da" stroke-width="0"/>
        <path d="M420.4,906.6l5.7-6.8c3.9,3.3,8.1,5.3,13.1,5.3s6.3-1.6,6.3-4.1h0c0-2.6-1.5-3.8-8.8-5.7-8.8-2.3-14.5-4.7-14.5-13.4h0c0-8.1,6.4-13.3,15.3-13.3s11.8,2,16.3,5.6l-5,7.3c-3.9-2.7-7.7-4.3-11.4-4.3s-5.6,1.7-5.6,3.8h0c0,3,1.9,3.9,9.4,5.9,8.9,2.3,13.9,5.5,13.9,13.1h0c0,8.8-6.6,13.7-16.1,13.7s-13.3-2.3-18.6-7Z" fill="#f3e8da" stroke-width="0"/>
        <path d="M478.9,878.1h-13.3v-8.9h36.3v8.9h-13.3v34.9h-9.6v-34.9Z" fill="#f3e8da" stroke-width="0"/>
        <path d="M524.8,868.9h8.9l18.8,44.1h-10.1l-4-9.8h-18.5l-4,9.8h-9.8l18.8-44.1ZM534.9,894.6l-5.8-14.2-5.8,14.2h11.6Z" fill="#f3e8da" stroke-width="0"/>
        <path d="M565.5,869.2h20.3c5,0,8.9,1.4,11.4,3.9,2,2,3,4.4,3,7.4h0c0,5.1-2.6,7.8-5.8,9.6,5.1,1.9,8.2,4.9,8.2,10.8h0c0,8.1-6.5,12.1-16.4,12.1h-20.8v-43.8ZM590.7,882.1c0-2.9-2.3-4.5-6.3-4.5h-9.5v9.3h8.9c4.3,0,6.9-1.4,6.9-4.6h0ZM586,894.9h-11.1v9.6h11.4c4.3,0,6.8-1.5,6.8-4.8h0c0-3.1-2.2-4.9-7.1-4.9Z" fill="#f3e8da" stroke-width="0"/>
        <path d="M616.9,869.2h9.6v35h21.8v8.8h-31.5v-43.8Z" fill="#f3e8da" stroke-width="0"/>
        <path d="M662.3,869.2h9.6v43.8h-9.6v-43.8Z" fill="#f3e8da" stroke-width="0"/>
        <path d="M686.1,906.6l5.7-6.8c3.9,3.3,8.1,5.3,13.1,5.3s6.3-1.6,6.3-4.1h0c0-2.6-1.5-3.8-8.8-5.7-8.8-2.3-14.5-4.7-14.5-13.4h0c0-8.1,6.4-13.3,15.3-13.3s11.8,2,16.3,5.6l-5,7.3c-3.9-2.7-7.7-4.3-11.4-4.3s-5.6,1.7-5.6,3.8h0c0,3,1.9,3.9,9.4,5.9,8.9,2.3,13.9,5.5,13.9,13.1h0c0,8.8-6.6,13.7-16.1,13.7s-13.3-2.3-18.6-7Z" fill="#f3e8da" stroke-width="0"/>
        <path d="M735.3,869h9.6v17.3h17.8v-17.3h9.6v43.8h-9.6v-17.6h-17.8v17.6h-9.6v-43.8Z" fill="#f3e8da" stroke-width="0"/>
        <path d="M789,869.2h33v8.6h-23.5v8.9h20.6v8.6h-20.6v9.2h23.8v8.6h-33.3v-43.8Z" fill="#f3e8da" stroke-width="0"/>
        <path d="M837.1,869.2h17.1c13.8,0,23.3,9.4,23.3,21.8h0c0,12.4-9.5,22-23.3,22h-17.1v-43.8ZM846.7,877.9v26.4h7.4c7.9,0,13.2-5.3,13.2-13.1h0c0-7.9-5.3-13.3-13.2-13.3h-7.4Z" fill="#f3e8da" stroke-width="0"/>
        <path d="M923.1,878.6l-7.6,1.9-2-7.9,12.6-3.8h6.6v44.1h-9.5v-34.3Z" fill="#f3e8da" stroke-width="0"/>
        <path d="M972.6,895c-2.3,1.9-5.1,3-8.9,3-9.5,0-15.6-5.3-15.6-14.1h0c0-8.9,6.8-15.4,16.7-15.4s9.3,1.4,12.6,4.8c3.1,3.1,5.2,7.9,5.2,16.5h0c0,14.3-6.7,24-19.1,24s-10.7-2.1-14.4-5.2l5.1-7.3c3.2,2.6,5.9,3.8,9.6,3.8,6.6,0,8.5-6.2,8.9-9.9ZM972.8,883.5h0c0-4-2.9-6.8-7.7-6.8s-7.4,2.8-7.4,6.6h0c0,4,2.9,6.7,7.6,6.7s7.5-2.8,7.5-6.5Z" fill="#f3e8da" stroke-width="0"/>
        <path d="M1016.5,877.5h-20.6v-8.3h31.5v7.3l-19.6,36.5h-10.9l19.6-35.5Z" fill="#f3e8da" stroke-width="0"/>
        <path d="M1037.7,906.2l6.6-6.3c3,3.4,6.1,5.3,10.6,5.3s6.2-2.1,6.2-5.3h0c0-3.7-3.2-5.7-8.6-5.7h-4l-1.5-6.1,10.4-10.5h-17.2v-8.3h29.6v7.3l-11.1,10.6c5.9,1,11.8,4.1,11.8,12.3h0c0,8.4-6,14.4-15.8,14.4s-13.3-3.1-17.1-7.6Z" fill="#f3e8da" stroke-width="0"/>
      </g>
      <rect x="85.9" y="846.8" width="1269.1" height="6.5" fill="#f3e8da" stroke-width="0"/>
      <rect x="85.9" y="868.4" width="256.4" height="4.3" fill="#f3e8da" stroke-width="0"/>
      <rect x="1098.5" y="868.4" width="256.4" height="4.3" fill="#f3e8da" stroke-width="0"/>
    </g>
  </g>
</svg>