<?xml version="1.0" encoding="utf-8"?>
<!-- Generator: Adobe Illustrator 28.1.0, SVG Export Plug-In . SVG Version: 6.00 Build 0)  -->
<svg version="1.2" baseProfile="tiny-ps" id="Layer_1" xmlns="http://www.w3.org/2000/svg" xmlns:xlink="http://www.w3.org/1999/xlink"
	  viewBox="0 0 400 400" xml:space="preserve">
<title>Neeyamo</title>
<g id="Layer_1-2">
	<g>
		<path fill="#0B5ED7" d="M60.85,239.27l28.55-49.44h33.24l-5.81,10.06H95.11l-5.4,9.36h20.53l-5.52,9.57H84.19l-5.93,10.27h22.98
			l-5.89,10.2h-34.5L60.85,239.27z"/>
		<path fill="#0B5ED7" d="M103.24,239.27l28.55-49.44h33.24l-5.81,10.06H137.5l-5.4,9.36h20.53l-5.52,9.57h-20.53l-5.93,10.27h22.98
			l-5.89,10.2h-34.5L103.24,239.27z"/>
		<path fill="#0B5ED7" d="M181.76,218.32l-12.1,20.95h-11.94l12.1-20.95l-2.13-28.49h14.46l-0.02,18.3l21.11-18.3h13.97
			C217.21,189.83,181.76,218.32,181.76,218.32z"/>
		<path fill="#0B5ED7" d="M221.69,239.27l1.76-9.71h-19.13l-9.24,9.71h-12.99l49.29-49.44h11.59l-8.01,49.44H221.69L221.69,239.27z
			 M229.35,203.02l-16.08,16.97h12.43L229.35,203.02L229.35,203.02z"/>
		<path fill="#0B5ED7" d="M286.51,239.27l16.8-34.99h-0.21l-29.37,34.99h-8.38l4.02-34.99h-0.21l-16.24,34.99h-11.24l23.35-49.44
			h16.99l-3.71,31.71h0.28l25.74-31.71h17.27l-23.35,49.44H286.51L286.51,239.27z"/>
		<polygon fill="#0B5ED7" points="35.35,193.68 9.02,239.27 20.61,239.27 38.61,207.63 		"/>
		<path fill="#0B5ED7" d="M352.98,222.62c-1.04,1.02-2.12,1.94-3.27,2.76c-1.89,1.35-3.89,2.41-5.97,3.18
			c-2.09,0.77-4.18,1.15-6.27,1.15s-3.82-0.38-5.18-1.15s-2.34-1.83-2.93-3.18c-0.6-1.35-0.8-2.97-0.6-4.85
			c0.19-1.88,0.82-3.95,1.87-6.18c1.01-2.14,2.29-4.14,3.85-6.01c1.55-1.86,3.27-3.46,5.16-4.78c1.88-1.33,3.87-2.37,5.95-3.14
			c2.09-0.77,4.18-1.15,6.27-1.15s3.83,0.38,5.22,1.15c1.38,0.77,2.38,1.82,2.98,3.14c0.6,1.31,0.81,2.88,0.64,4.71h13.26
			c0.43-1.63,0.69-3.17,0.76-4.64c0.16-3.19-0.44-5.9-1.78-8.14s-3.38-3.96-6.11-5.17c-2.73-1.21-6.03-1.82-9.9-1.82
			s-7.72,0.61-11.58,1.82c-3.85,1.21-7.51,2.93-10.96,5.17c-3.45,2.23-6.61,4.95-9.46,8.14c-2.86,3.19-5.22,6.76-7.09,10.72
			c-1.85,3.91-2.86,7.48-3.04,10.72c-0.18,3.24,0.39,6.01,1.7,8.31c1.31,2.3,3.31,4.09,6,5.34c2.69,1.26,5.96,1.89,9.83,1.89
			s7.74-0.63,11.65-1.89c3.9-1.26,7.59-3.04,11.08-5.34c3.48-2.31,6.67-5.07,9.55-8.31c0.64-0.72,1.25-1.47,1.84-2.22L353,222.62
			H352.98z"/>
		<path fill="#BAD80A" d="M360.75,207.57h26.8c0.26,0,0.46,0.21,0.45,0.47l0.19,1.81c0.08,0.75-0.47,1.36-1.22,1.36h-26.86
			C360.29,210.65,360.67,208.71,360.75,207.57L360.75,207.57z"/>
		<path fill="#BAD80A" d="M359.24,213.62h24.29c0.26,0,0.46,0.21,0.45,0.47l0.19,1.81c0.08,0.75-0.47,1.36-1.22,1.36h-25.63
			C357.74,216.6,358.76,214.76,359.24,213.62L359.24,213.62z"/>
		<path fill="#BAD80A" d="M355.65,219.65h24.74c0.26,0,0.46,0.21,0.45,0.47l0.19,1.81c0.08,0.75-0.47,1.36-1.22,1.36h-27.52
			C352.97,222.74,354.76,220.84,355.65,219.65L355.65,219.65z"/>
		<path fill="#BAD80A" d="M37.35,190.58c0.16-0.04,0.69,1.06,1.49,2.53c2.9,5.34,13.76,25.41,13.76,25.41s42.76-59.25,42.95-59.53
			c2.56-3.72,4-5.78,4.2-5.66c0.19,0.12-1.16,2.59-2.56,4.95c-0.04,0.07-38.99,67.77-46.36,80.57c-0.4,0.69-1.34,0.48-1.56-0.29
			c-2.68-9.42-11.35-45.03-11.42-45.32C37.49,191.8,37.22,190.62,37.35,190.58L37.35,190.58z"/>
	</g>
	<path fill="#0B5ED7" d="M363.37,235.62c0-0.52,0.1-1,0.29-1.45s0.46-0.83,0.79-1.16c0.33-0.32,0.72-0.58,1.16-0.76
		c0.44-0.19,0.91-0.28,1.41-0.28s0.97,0.09,1.41,0.28s0.83,0.44,1.16,0.76c0.33,0.32,0.6,0.71,0.79,1.16
		c0.19,0.45,0.29,0.93,0.29,1.45c0,0.52-0.1,1.01-0.29,1.45s-0.46,0.83-0.79,1.15c-0.33,0.32-0.72,0.58-1.16,0.76
		c-0.44,0.19-0.91,0.28-1.41,0.28s-0.97-0.09-1.41-0.28s-0.83-0.44-1.16-0.76c-0.33-0.32-0.6-0.71-0.79-1.15
		S363.37,236.15,363.37,235.62z M364.02,235.62c0,0.44,0.08,0.86,0.24,1.24c0.16,0.38,0.37,0.71,0.64,0.99s0.58,0.5,0.95,0.66
		c0.37,0.16,0.76,0.24,1.18,0.24s0.81-0.08,1.17-0.24c0.36-0.16,0.68-0.38,0.95-0.66c0.27-0.28,0.48-0.61,0.64-0.99
		c0.16-0.38,0.24-0.79,0.24-1.24s-0.08-0.85-0.24-1.23c-0.16-0.38-0.37-0.71-0.64-0.99c-0.27-0.28-0.59-0.5-0.95-0.66
		c-0.36-0.16-0.75-0.24-1.17-0.24s-0.81,0.08-1.18,0.24s-0.68,0.38-0.95,0.66c-0.27,0.28-0.48,0.61-0.64,0.99
		C364.1,234.77,364.02,235.18,364.02,235.62z M365.63,233.49h1.61c0.99,0,1.49,0.41,1.49,1.22c0,0.39-0.11,0.67-0.32,0.85
		c-0.22,0.18-0.48,0.29-0.8,0.32l1.23,1.88h-0.7l-1.16-1.83h-0.7v1.83h-0.65V233.49L365.63,233.49z M366.28,235.38h0.67
		c0.14,0,0.28,0,0.42-0.01c0.14-0.01,0.26-0.04,0.36-0.08c0.1-0.05,0.19-0.12,0.25-0.22c0.07-0.1,0.1-0.23,0.1-0.4
		c0-0.14-0.03-0.26-0.09-0.35s-0.13-0.16-0.23-0.2c-0.09-0.05-0.19-0.08-0.3-0.09c-0.11-0.01-0.22-0.02-0.33-0.02h-0.85
		L366.28,235.38L366.28,235.38z"/>
</g>
</svg>
