<?xml version="1.0" encoding="utf-8"?>
<!-- Generator: Adobe Illustrator 25.4.1, SVG Export Plug-In . SVG Version: 6.00 Build 0)  -->
<svg version="1.2" baseProfile="tiny-ps" id="Layer_1" xmlns="http://www.w3.org/2000/svg" xmlns:xlink="http://www.w3.org/1999/xlink" viewBox="0 0 200 200" xml:space="preserve">
    <title>All Star Slots</title>
<g id="ASS">
	<rect fill="#1D2944" width="200" height="200"/>
	<g>
		<g id="Frame">
			<path id="Vector" fill="#FC0328" stroke="#FFFFFF" stroke-width="2.29" d="M164.2,102.7c0,12.9-3.8,25.5-11,36.2
				c-7.2,10.7-17.3,19.1-29.2,24c-11.9,4.9-25,6.2-37.6,3.7c-12.6-2.5-24.2-8.7-33.3-17.8c-9.1-9.1-15.3-20.7-17.8-33.3
				c-2.5-12.6-1.2-25.7,3.7-37.6s13.3-22.1,24-29.2c10.7-7.2,23.3-11,36.2-11c8.6,0,17,1.7,24.9,5c7.9,3.3,15.1,8.1,21.1,14.1
				c6,6,10.8,13.2,14.1,21.1C162.5,85.7,164.2,94.1,164.2,102.7L164.2,102.7z"/>
			<path id="Vector_2" fill="#001855" stroke="#FFFFFF" stroke-width="2.29" d="M89.7,45.4c-8.7,1.5-16.9,4.9-24,10
				c-7.1,5.1-13,11.8-17.2,19.5l-24.5,2.5l18.2,16.2c-0.5,2.8-0.7,5.7-0.7,8.6c0.1,15.2,6.1,29.8,16.8,40.6l-5.1,23.8l21.2-12.4
				c7.9,3.9,16.6,5.9,25.4,5.8c8.8-0.1,17.5-2.2,25.3-6.2l21.9,12.7c0,0-5.1-23.6-5.4-24.9c10-10.6,15.6-24.7,15.6-39.3
				c0-2.6-0.2-5.2-0.6-7.7l19.3-17.3L150,74.6c-4-7.5-9.7-14-16.6-19c-6.9-5-14.8-8.4-23.2-10L99.9,22.2L89.7,45.4z"/>
			<path id="Vector_3" fill="#FFFFFF" d="M148.5,102.6c0,9.8-2.9,19.3-8.3,27.4c-5.4,8.1-13.1,14.5-22.2,18.2s-19,4.7-28.5,2.8
				c-9.6-1.9-18.4-6.6-25.3-13.5c-6.9-6.9-11.6-15.7-13.5-25.3c-1.9-9.6-0.9-19.5,2.8-28.5c3.7-9,10.1-16.7,18.2-22.2
				s17.7-8.3,27.4-8.3c13.1,0,25.7,5.2,34.9,14.5C143.3,76.9,148.5,89.5,148.5,102.6z"/>
			<path id="Vector_4" fill="#FFFFFF" stroke="#001855" stroke-width="2.94" d="M81.4,76.5l-46,4.7l34.5,30.8
				c-0.4,1.9-9.7,45.2-9.7,45.2l39.9-23.3l40,23.2l-9.8-45.2L164.6,81l-46-4.6c-0.8-1.7-18.7-42.3-18.7-42.3L81.4,76.5z"/>
			<path id="Vector_5" fill="#FC0328" stroke="#FFFFFF" stroke-width="1.47" d="M136.4,151.8l-36.3-21.1l-36.3,21.2l8.8-41
				L41.3,82.9l41.8-4.3L100,40.2l17,38.4l41.8,4.2l-31.3,28L136.4,151.8z"/>
			<path id="Vector_6" fill="#C40026" d="M100,41.9l-0.4,59.3l16.9-22L100,41.9z"/>
			<path id="Vector_7" fill="#C40026" d="M157.1,83.3l-57.5,17.9l27.2,9.6L157.1,83.3z"/>
			<path id="Vector_8" fill="#C40026" d="M135.9,151l-36.3-49.8l0.5,28.7L135.9,151z"/>
			<path id="Vector_9" fill="#C40026" d="M64.9,150.6l34.7-49.4l-27,9.6L64.9,150.6z"/>
			<path id="Vector_10" fill="#C40026" d="M43,83.2l56.3,17.9L83.5,79.4L43,83.2z"/>
		</g>
	</g>
</g>
</svg>
