<?xml version="1.0" encoding="utf-8"?>
<!-- Generator: Adobe Illustrator 27.5.0, SVG Export Plug-In . SVG Version: 6.00 Build 0)  -->
<svg version="1.2" baseProfile="tiny-ps" id="Layer_1" xmlns="http://www.w3.org/2000/svg" xmlns:xlink="http://www.w3.org/1999/xlink" viewBox="0 0 200 200" xml:space="preserve">
<title>Affiliate Edge</title>
<rect fill="#F3FBFF" width="200" height="200"/>
<g>
	<path fill-rule="evenodd" fill="#0A73A6" d="M164.8,119.9h-34v18.9h42.2l7.1,20.6h-66.3c-2.9,0-5.3-2.4-5.3-5.3v-91h52.3
		c2.3,0,4.3,1.4,5,3.6l5.9,17h-40.8v15.6h26.7L164.8,119.9z"/>
</g>
<g>
	<path fill-rule="evenodd" fill="#0C94D6" d="M36.7,114.6h73.2l6.4,19h-86L36.7,114.6z"/>
	<path fill-rule="evenodd" fill="#0C94D6" d="M53.4,134.4l-7,22.2c-0.7,2.2-2.7,3.7-5.1,3.7H20L58.6,46c1.2-3.6,4.6-6,8.4-6h12.1
		c3.8,0,7.2,2.4,8.4,6L126,160.4h-21.4c-2.3,0-4.4-1.5-5.1-3.7l-7-22.2L73,72.3L53.4,134.4z"/>
	<path fill-rule="evenodd" fill="#0C94D6" d="M72.7,114.6c2.1,0,13.1-1.5,10.2-10.7c16.3,7.1,16.4,29.7,16.4,29.7H72.7
		C72.7,133.5,72.7,124,72.7,114.6z"/>
</g>
</svg>
