<?xml version="1.0" encoding="utf-8"?>
<!-- Generator: Adobe Illustrator 25.4.1, SVG Export Plug-In . SVG Version: 6.00 Build 0)  -->
<svg version="1.2" baseProfile="tiny-ps" id="Layer_1" xmlns="http://www.w3.org/2000/svg" xmlns:xlink="http://www.w3.org/1999/xlink"
	 viewBox="0 0 200 200" xml:space="preserve">
    <title>Crypto Reels</title>
<rect fill="#E90859" width="200" height="200"/>
<path id="Vector_2" fill="#C3863A" d="M98.5,29.2l1.3,8.4v0.9l-1.3-8.4V29.2z"/>
<path id="Vector_3" fill="#C28538" d="M118.1,26.8l1.3,8.4l-0.1,1.1l-1.3-8.4L118.1,26.8z"/>
<path id="Vector_4" fill="#BF8033" d="M96.2,31.2l1.3,8.4h-6.6l-1.3-8.4L96.2,31.2"/>
<path id="Vector_5" fill="#BF8033" d="M115.5,28.9l1.3,8.4h-6.6l-1.3-8.4H115.5"/>
<path id="Vector_6" fill="#BA864C" d="M96.2,31.2l1.3,8.4c0.2,6.5,0.3,13,0.6,19.5l-1.2-8.3C96.6,44.3,96.4,37.8,96.2,31.2"/>
<path id="Vector_7" fill="#C4873B" d="M118,27.9l1.3,8.4c-0.5,5.3-1,10.6-1.4,15.8l-1.3-8.4C117,38.4,117.5,33.1,118,27.9"/>
<path id="Vector_8" fill="#BA864C" d="M115.5,28.9l1.3,8.4c-0.5,5.3-1,10.7-1.5,16.1L114,45C114.6,39.6,115.1,34.2,115.5,28.9z"/>
<path id="Vector_9" fill="#BA8447" d="M114,44.9l1.3,8.4l-0.1,1.3l-1.3-8.4L114,44.9z"/>
<path id="Vector_10" fill="#BC7C30" d="M115.4,45.9l1.3,8.4l-1.5,0.3l-1.3-8.4L115.4,45.9z"/>
<path id="Vector_11" fill="#C4873B" d="M98.6,30.1l1.3,8.4c0.2,6.3,0.4,12.6,0.6,18.8l-1.3-8.4C99,42.7,98.8,36.4,98.6,30.1z"/>
<path id="Vector_12" fill="#C4873B" d="M131.3,44.2l1.3,8.4c0,0.1,0,0.2,0,0.3l-1.3-8.4C131.3,44.4,131.3,44.3,131.3,44.2"/>
<path id="Vector_13" fill="#C18337" d="M131.3,44.5l1.3,8.4c0,0.1-0.1,0.2-0.1,0.3l-1.3-8.4C131.2,44.7,131.3,44.6,131.3,44.5"/>
<path id="Vector_14" fill="#BF8033" d="M131.2,44.8l1.3,8.4l-0.1,0.2l-1.3-8.4L131.2,44.8z"/>
<path id="Vector_15" fill="#BA864C" d="M96.2,31.2l1.3,8.4c0.2,6.5,0.3,13,0.6,19.5l-1.2-8.3C96.6,44.3,96.4,37.8,96.2,31.2"/>
<path id="Vector_16" fill="#BA864A" d="M96.8,50.7l1.3,8.4v1.6l-1.3-8.4V50.7z"/>
<path id="Vector_17" fill="#BC7C30" d="M98.5,51.5l1.3,8.4l-1.7,0.8l-1.3-8.4L98.5,51.5z"/>
<path id="Vector_18" fill="#BF8033" d="M90.7,56l1.3,8.4c-2.8,1.8-5.4,3.8-7.9,6c-4.6,4-8.3,8.5-11.2,13.5l-1.3-8.4
	c2.9-4.9,6.6-9.5,11.2-13.5C85.3,59.8,87.9,57.8,90.7,56z"/>
<path id="Vector_19" fill="#B97F3D" d="M127.6,82.7l1.3,8.4c-4.6-0.8-9.4-0.9-14.2-0.3c-7.7,1.1-13.1,4.9-16.2,11.3l-0.1,0.2
	l-1.2-8.4l0.1-0.2c3.1-6.4,8.5-10.2,16.2-11.3C118.2,81.8,123,81.9,127.6,82.7"/>
<path id="Vector_20" fill="#BA864C" d="M128.7,45.2l1.3,8.4c-0.3,12.5-0.7,25-1,37.5l-1.3-8.4C128,70.2,128.4,57.7,128.7,45.2z"/>
<path id="Vector_21" fill="#C4873B" d="M131.1,45l1.3,8.4c-0.4,13-0.7,26-1.1,38.9l-1.3-8.4C130.4,70.9,130.7,57.9,131.1,45"/>
<path id="Vector_22" fill="#C38639" d="M130,83.9l1.3,8.4v1.3l-1.3-8.4V83.9z"/>
<path id="Vector_23" fill="#BC7C30" d="M130,85.2l1.3,8.4l-1.5-0.3l-1.3-8.4L130,85.2z"/>
<path id="Vector_24" fill="#C18337" d="M71.6,75.4l1.3,8.4C69.4,91,67,98.4,65.6,106l-1.3-8.4C65.7,90,68.2,82.6,71.6,75.4"/>
<path id="Vector_25" fill="#C4873B" d="M64.3,97.6l1.3,8.4c-0.8,4.5-0.9,9.1-0.4,13.6l-1.3-8.4C63.4,106.7,63.5,102.1,64.3,97.6"/>
<path id="Vector_26" fill="#B97F3D" d="M127.6,82.7l1.3,8.4c-4.6-0.8-9.4-0.9-14.2-0.3c-7.7,1.1-13.1,4.9-16.2,11.3l-0.1,0.2
	l-1.2-8.4l0.1-0.2c3.1-6.4,8.5-10.2,16.2-11.3C118.2,81.8,123,81.9,127.6,82.7"/>
<path id="Vector_27" fill="#BA8344" d="M97.1,93.9l1.3,8.4c-1.4,2.8-2.4,5.7-2.9,8.7l-1.3-8.4C94.8,99.6,95.8,96.7,97.1,93.9"/>
<path id="Vector_28" fill="#BA864C" d="M94.3,102.6l1.3,8.4c-0.3,1.9-0.4,3.8-0.2,5.6l-1.3-8.4C93.9,106.4,93.9,104.5,94.3,102.6"/>
<path id="Vector_29" fill="#BF8033" d="M128.5,84.9l1.3,8.4c-4.7-0.9-9.7-1.1-14.6-0.5c-6.9,1-11.7,4.3-14.4,10
	c0,0.1-0.1,0.1-0.1,0.2l-1.3-8.4c0-0.1,0.1-0.1,0.1-0.2c2.7-5.6,7.5-9,14.4-10C118.8,83.8,123.8,84,128.5,84.9"/>
<path id="Vector_30" fill="#C18337" d="M99.4,94.6l1.3,8.4c-1.3,2.6-2.2,5.4-2.7,8.2l-1.3-8.4C97.2,99.9,98.1,97.2,99.4,94.6"/>
<path id="Vector_31" fill="#C4873B" d="M96.7,102.7l1.3,8.4c-0.3,1.7-0.4,3.5-0.2,5.2l-1.3-8.4C96.3,106.2,96.4,104.5,96.7,102.7"/>
<path id="Vector_32" fill="#C4873B" d="M129.7,110.7l1.3,8.4l0.2,1.5l-1.3-8.4L129.7,110.7z"/>
<path id="Vector_33" fill="#BF8033" d="M99,117.9l1.3,8.4c-2.7-2.6-4.3-5.8-4.9-9.3l-1.3-8.4C94.7,112.1,96.3,115.3,99,117.9"/>
<path id="Vector_34" fill="#BF8033" d="M127.7,114.1l1.3,8.4c-1.1,0.7-2.6,1.6-4.2,2.7l-1.3-8.4
	C125.1,115.7,126.5,114.8,127.7,114.1z"/>
<path id="Vector_35" fill="#BF8033" d="M103.6,120.1l1.3,8.4c-1.6-0.7-3.2-1.4-4.6-2.2l-1.3-8.4C100.5,118.7,102,119.5,103.6,120.1"
	/>
<path id="Vector_36" fill="#BF8033" d="M123.5,116.8l1.3,8.4c-3.4,1.9-7.1,3.2-11,3.9c-3,0.5-6,0.3-8.8-0.6l-1.3-8.4
	c2.8,0.8,5.8,1,8.8,0.6C116.4,120,120.1,118.7,123.5,116.8"/>
<path id="Vector_37" fill="#B97F3D" d="M87.1,142.5l1.3,8.4c-12.2-4.7-19.9-14.8-23-29.8l-1.3-8.4C67.2,127.8,74.9,137.8,87.1,142.5
	"/>
<path id="Vector_38" fill="#B87C36" d="M87.7,142.8l1.3,8.4l-0.6-0.2l-1.3-8.4L87.7,142.8z"/>
<path id="Vector_39" fill="#C4873A" d="M87.7,142.8l1.3,8.4l0.1,0.6l-1.3-8.4L87.7,142.8z"/>
<path id="Vector_40" fill="#BF8033" d="M85.4,144.2l1.3,8.4c-12.6-5.1-20.5-15.5-23.7-31l-1.3-8.4C64.9,128.6,72.8,139.1,85.4,144.2
	z"/>
<path id="Vector_41" fill="#B87C36" d="M96.4,145l1.3,8.4l-1.5-0.2l-1.3-8.4L96.4,145z"/>
<path id="Vector_42" fill="#BA864A" d="M94.8,144.8l1.3,8.4l0.1,1.3l-1.3-8.4L94.8,144.8z"/>
<path id="Vector_43" fill="#B97F3D" d="M106.1,145.8l1.3,8.4c-3.3,0-6.6-0.3-9.8-0.8l-1.3-8.4C99.6,145.5,102.8,145.8,106.1,145.8"
	/>
<path id="Vector_44" fill="#BB8A53" d="M127.7,114.1l1.3,8.4c1.2,9.2,2.4,18.5,3.6,27.5l-1.3-8.4
	C130.1,132.6,128.8,123.3,127.7,114.1"/>
<path id="Vector_45" fill="#B97F3D" d="M106.1,145.8l1.3,8.4c-3.3,0-6.6-0.3-9.8-0.8l-1.3-8.4C99.6,145.5,102.8,145.8,106.1,145.8"
	/>
<path id="Vector_46" fill="#B87C36" d="M107.3,145.8l1.3,8.4h-1.2l-1.3-8.4H107.3z"/>
<path id="Vector_47" fill="#C78B3F" d="M129.9,112.2l1.3,8.4c1.3,9.9,2.6,19.9,3.9,29.8l-1.3-8.4
	C132.4,132.1,131.1,122.1,129.9,112.2z"/>
<path id="Vector_48" fill="#C4873B" d="M133.8,141.9l1.3,8.4l0.1,0.6l-1.3-8.4L133.8,141.9z"/>
<path id="Vector_49" fill="#B87C36" d="M115.1,145.4l1.3,8.4l-1,0.1l-1.3-8.4L115.1,145.4z"/>
<path id="Vector_50" fill="#B97F3D" d="M118,145.1l1.3,8.4c-1,0.1-1.9,0.2-2.9,0.3l-1.3-8.4C116.1,145.4,117,145.3,118,145.1z"/>
<path id="Vector_51" fill="#BC7C30" d="M133.8,142.6l1.3,8.4l-0.7,0.4l-1.3-8.4L133.8,142.6z"/>
<path id="Vector_52" fill="#B97F3D" d="M131.3,141.6l1.3,8.4c-3.1,1.6-6.5,2.7-10,3.2c-1.1,0.2-2.2,0.3-3.3,0.3l-1.3-8.4
	c1.1-0.1,2.2-0.2,3.3-0.3C124.8,144.3,128.2,143.2,131.3,141.6z"/>
<path id="Vector_53" fill="#B97F3D" d="M131.3,141.6l1.3,8.4c-3.1,1.6-6.5,2.7-10,3.2c-1.1,0.2-2.2,0.3-3.3,0.3l-1.3-8.4
	c1.1-0.1,2.2-0.2,3.3-0.3C124.8,144.3,128.2,143.2,131.3,141.6z"/>
<path id="Vector_54" fill="#BA8447" d="M114.1,145.5l1.3,8.4l-0.1,0.9l-1.3-8.4L114.1,145.5z"/>
<path id="Vector_55" fill="#BF8033" d="M104.8,147.8l1.3,8.4c-2.5-0.1-5-0.3-7.4-0.6l-1.3-8.4C99.8,147.6,102.3,147.8,104.8,147.8"
	/>
<path id="Vector_56" fill="#BF8033" d="M118.1,147.2l1.3,8.4l-1.8,0.2l-1.3-8.4L118.1,147.2z"/>
<path id="Vector_57" fill="#BF8033" d="M133.2,142.9l1.3,8.4c-3.5,2-7.4,3.3-11.5,3.8c-1.2,0.2-2.4,0.3-3.5,0.4l-1.3-8.4
	c1.2-0.1,2.4-0.2,3.5-0.4C125.7,146.2,129.7,144.9,133.2,142.9"/>
<path id="Vector_58" fill="#C38539" d="M107.3,145.8l1.3,8.4l-0.7,12.7l-1.3-8.4L107.3,145.8z"/>
<path id="Vector_59" fill="#B97F3D" d="M112.8,158.1l1.3,8.4l-6.2,0.5l-1.3-8.4L112.8,158.1z"/>
<path id="Vector_60" fill="#BA864C" d="M114,146.4l1.3,8.4c-0.4,3.9-0.8,7.8-1.2,11.6l-1.3-8.4C113.2,154.2,113.6,150.3,114,146.4z"
	/>
<path id="Vector_61" fill="#C4873B" d="M87.8,143.4l1.2,8.4c0.4,6.2,0.9,12.4,1.4,18.7l-1.2-8.4C88.7,155.8,88.2,149.6,87.8,143.4z"
	/>
<path id="Vector_62" fill="#B97F3D" d="M95.4,161.6l1.3,8.4l-6.2,0.4l-1.3-8.4L95.4,161.6z"/>
<path fill="#FEC73E" d="M117.1,45.5c2-0.3,3.9-0.4,5.9-0.5c4.2-0.1,6.2-0.1,7.2-0.1c-0.3,12.6-0.7,26.2-1,38.7
	c-4.8-0.8-9.8-0.9-14.8-0.3c-8.1,1.1-13.7,4.9-16.9,11.4c-5.1,10.1-3.6,16.2,2.6,22.1c1.6,0.9,3.2,1.7,4.9,2.4
	c2.9,0.9,6.2,1.1,9.4,0.6c4.1-0.7,5.9-2,9.4-3.8c1.8-1.2,4.2-2.1,5.5-2.8c1.3,9.3,2.5,19.5,3.8,28.7c-3.2,1.6-6.8,2.7-10.5,3.2
	c-1.2,0.2-2.3,0.3-3.5,0.3c-1,0.1-2,0.2-3,0.3l-1.2,0.1l-0.1,0.9c-0.4,3.9-0.8,7.8-1.3,11.7l-8,0.7l1.2-11.6l-0.2-1.4
	c-3.5,0-5,0.5-8.4,0l-1.8,0.3l-0.7,2.3l1.2,13.4l-8.1,0.3c-0.5-6.2-0.9-12.5-1.5-18.8l-0.1-0.6l-0.6-0.2c-12.8-4.7-20.8-14.9-24-30
	c-1.8-10.5,0.9-23.1,7.8-37.5c3-4.9,6.9-9.6,11.7-13.6c2.6-2.1,5.3-4.1,8.3-6l0.5-0.3l-0.1-0.6c-0.5-7.9-1.2-16-1.7-24l7.9-1
	c0.2,6.5,0.3,13.1,0.6,19.6l0.1,1.6l1.8-0.8c2-0.9,2-0.8,4-1.5c1-0.3,2-0.7,2.9-1l0.8-0.3v-0.7c0.3-6.1,0.7-12.2,1-18.2h7.9
	c-0.5,5.3-1,10.8-1.6,16.1l-0.1,1.3l1.6-0.2L117.1,45.5z"/>
<path id="Vector_64" fill="#BA864C" d="M94.9,146.1l1.3,8.4l0.5,15.5l-1.3-8.4L94.9,146.1z"/>
<path id="Vector_65" fill="#C4873B" d="M116.3,147.4l1.2,8.4c-0.4,3.9-0.8,7.8-1.2,11.7l-1.3-8.4
	C115.5,155.1,115.9,151.2,116.3,147.4"/>
<path id="Vector_66" fill="#BC7C30" d="M105.4,160.7l1.3,8.4l-1.3,0.1l-1.3-8.4L105.4,160.7z"/>
<path id="Vector_67" fill="#BF8033" d="M114,160l1.3,8.4c-2.9,0.2-5.7,0.4-8.6,0.6l-1.3-8.4L114,160"/>
<path id="Vector_68" fill="#C4873B" d="M97.3,147.3l1.3,8.4c0.2,5.1,0.3,10.1,0.5,15.2l-1.3-8.4C97.7,157.4,97.5,152.3,97.3,147.3z"
	/>
<path id="Vector_69" fill="#BC7C30" d="M115,159.9l1.3,8.4l-1.1,0.1L114,160L115,159.9z"/>
<path id="Vector_70" fill="#C28538" d="M115.1,159l1.3,8.4l-0.1,0.9l-1.3-8.4L115.1,159z"/>
<path id="Vector_71" fill="#BC7C30" d="M88.1,164.1l1.3,8.4l-1.2,0.1l-1.3-8.4L88.1,164.1z"/>
<path id="Vector_72" fill="#BF8033" d="M96.7,163.6L98,172l-8.6,0.6l-1.3-8.4L96.7,163.6z"/>
<path id="Vector_73" fill="#C3863A" d="M97.8,162.5l1.3,8.4v1l-1.3-8.4V162.5z"/>
<path id="Vector_74" fill="#E9BE76" d="M121.9,43.3c8.9-0.3,9.2-0.1,9.4,0.9c0,0.3,0,0.6-0.2,0.8c-0.4,13-0.7,26-1.1,38.9v1.3
	l-1.5-0.3c-4.7-0.9-9.7-1.1-14.6-0.5c-6.9,1-11.7,4.3-14.4,10c-4.5,9.2-4.1,16.6,1.1,21.9c1.3,0.7,2.7,1.4,4.1,2
	c2.4,0.7,5,0.9,7.5,0.4c3.5-0.6,6.9-1.8,9.9-3.5c1.9-1.4,3.9-2.6,6-3.7l1.6-0.8l0.2,1.5c1.3,9.9,2.6,19.9,3.9,29.8l0.1,0.6l-0.7,0.4
	c-3.5,2-7.4,3.3-11.5,3.8c-1.1,0.2-2.3,0.3-3.5,0.4l-1.8,0.2c-0.4,3.9-0.8,7.8-1.2,11.7l-0.1,0.9H114l-8.6,0.6l-1.3,0.1l0.7-12.9
	c-2.5-0.1-5-0.3-7.4-0.6c0.2,5.1,0.3,10.1,0.5,15.2v1l-1.2,0.1l-8.6,0.6l-1.2,0.1l-0.1-1c-0.5-6.3-1-12.7-1.4-19.1
	c-12.6-5.1-20.5-15.5-23.7-31c-1.8-10.8,0.8-23.7,7.7-38.5c3-5.2,6.9-9.9,11.7-14.1c2.4-2.1,5-4.1,7.7-5.8
	c-0.6-8.1-1.1-16.3-1.7-24.5L87,29.1h1.3h9.1h1.1V30c0.2,6.3,0.4,12.6,0.6,18.8c1.4-0.7,2.8-1.3,4.3-1.8c0.7-0.3,1.5-0.5,2.2-0.7
	c0.3-6.2,0.7-12.3,1-18.5l0.1-1h1.2h9h1.2l-0.1,1c-0.5,5.3-1,10.6-1.5,15.9C118.3,43.5,120.1,43.3,121.9,43.3L121.9,43.3z
	 M127.6,82.7c0.4-12.5,0.7-25,1-37.5c-1,0-2.9,0-6.9,0.1c-1.9,0-3.8,0.2-5.6,0.5l-0.8,0.1l-1.5,0.2l0.1-1.3c0.5-5.4,1-10.7,1.5-16
	h-6.6c-0.3,6.1-0.6,12.1-1,18.1v0.7l-0.8,0.3c-0.9,0.3-1.9,0.6-2.8,1c-1.9,0.7-3.9,1.6-5.7,2.5l-1.7,0.8v-1.6
	c-0.2-6.5-0.3-13-0.6-19.5h-6.6c0.5,8,1.1,15.9,1.6,23.9l0.1,0.6L90.8,56c-2.8,1.8-5.4,3.8-7.9,6c-4.6,4-8.3,8.5-11.2,13.5
	c-6.7,14.4-9.2,26.9-7.5,37.3c3.1,15,10.8,25.1,23,29.8l0.6,0.2l0.1,0.6c0.4,6.2,0.9,12.4,1.4,18.7l6.2-0.4L95,146.2v-1.3l1.5,0.2
	c3.2,0.5,6.5,0.8,9.8,0.8h1.2l-0.7,12.7l6.2-0.5c0.4-3.9,0.8-7.8,1.2-11.6l0.1-0.9l1-0.1c1-0.1,1.9-0.2,2.9-0.3
	c1.1-0.1,2.2-0.2,3.3-0.3c3.5-0.5,6.9-1.6,10-3.2c-1.2-9.1-2.4-18.4-3.6-27.6c-1.1,0.7-2.6,1.6-4.2,2.7c-3.4,1.9-7.1,3.2-11,3.9
	c-3,0.5-6,0.3-8.8-0.6c-1.6-0.7-3.2-1.4-4.6-2.2c-6.1-6.1-6.6-14.2-1.7-24.2c3.1-6.4,8.5-10.2,16.2-11.3c4.8-0.6,9.6-0.5,14.2,0.3"
	/>
<path id="Vector_75" fill="#BC7C30" d="M97.9,163.5l1.3,8.4L98,172l-1.3-8.4L97.9,163.5z"/>
</svg>
