<?xml version="1.0" encoding="utf-8"?>
<!-- Generator: Adobe Illustrator 25.4.1, SVG Export Plug-In . SVG Version: 6.00 Build 0)  -->
<svg version="1.2" baseProfile="tiny-ps" id="Layer_1" xmlns="http://www.w3.org/2000/svg" xmlns:xlink="http://www.w3.org/1999/xlink"
	 viewBox="0 0 200 200" xml:space="preserve">
    <title>Buzzluck</title>
<rect fill="#05141E" width="200" height="200"/>
<path fill-rule="evenodd" fill="#EAC218" d="M117.2,94.8C139.4,81,129.9,50.5,105.8,46c-8.1-1.6-16.3-2.2-24.5-2H62v112.8
	c15.2-0.8,43.5,2.6,57.6-3.9c5.7-2.5,10.6-6.6,14-11.8C144.6,124.1,137.5,102.4,117.2,94.8z M86.2,64.2h5.5c9.8,0,14.7,4,14.6,11.7
	c0.6,10.8-10.2,13.3-20.2,12.5V64.2H86.2z M106.7,135c-6.4,2.1-13.8,1.8-20.5,1.8v-28.2h4.5c15.4,0,23.4,4.8,23.8,14.6
	C115,128.4,111.8,133.5,106.7,135z"/>
<path fill="#C1B20D" d="M89.7,157.6c-4,0-8.1-0.1-12-0.2c-5.8-0.1-11.3-0.2-15.6,0h-0.5V43.5h19.7c9-0.2,17.1,0.5,24.6,2
	c12.1,2.3,21.7,11.6,23.9,23.2c1.9,10.3-2.4,19.9-11.5,25.9c9.4,3.8,16.5,11.1,19.4,20c2.9,8.8,1.5,18.6-3.7,26.7
	c-3.5,5.3-8.4,9.5-14.2,12C112.3,156.9,101.1,157.6,89.7,157.6z M67.8,156.2c3.1,0,6.4,0.1,9.9,0.1c14.9,0.3,31.8,0.7,41.7-3.9
	c5.7-2.4,10.4-6.5,13.8-11.6c5.1-7.9,6.4-17.4,3.6-25.9c-2.9-8.9-10.1-16.1-19.8-19.7l-1-0.4l0.9-0.5c9.3-5.8,13.8-15.3,11.9-25.4
	c-2.1-11.2-11.4-20.2-23.1-22.4c-7.5-1.5-15.4-2.2-24.4-2H62.5v111.8C64.1,156.3,65.9,156.2,67.8,156.2z M91.3,137.3
	c-1,0-2.1,0-3.1,0h-2.5v-29.2h5c15.7,0,23.8,5.1,24.3,15c0.6,5.5-2.9,10.8-8.1,12.4C102,137.1,96.6,137.3,91.3,137.3z M86.7,136.3
	h1.5c6.2,0.1,12.6,0.1,18.3-1.8c4.8-1.4,8-6.3,7.4-11.3c-0.4-9.4-8.2-14.1-23.3-14.1h-4L86.7,136.3L86.7,136.3z M89.6,89
	c-1.3,0-2.4-0.1-3.4-0.1h-0.5V63.7h6c5.5,0,9.6,1.3,12.2,3.8c2,2,3,4.9,3,8.4c0.2,3.6-0.8,6.6-3.1,8.8C100.2,88.2,94.2,89,89.6,89z
	 M86.7,87.9c4.5,0.3,12.2,0.1,16.4-4c2-2,3-4.7,2.8-8c0-3.3-0.9-5.9-2.7-7.7c-2.3-2.3-6.2-3.5-11.4-3.5h-5v23.2H86.7z"/>
</svg>
