<?xml version="1.0" encoding="utf-8"?>
<!-- Generator: Adobe Illustrator 25.4.1, SVG Export Plug-In . SVG Version: 6.00 Build 0)  -->
<svg version="1.2" baseProfile="tiny-ps" id="Layer_1" xmlns="http://www.w3.org/2000/svg" xmlns:xlink="http://www.w3.org/1999/xlink"
	 viewBox="0 0 200 200" xml:space="preserve">
    <title>Club World Casinos</title>
<g id="CWC">
	<rect fill="#222222" width="200" height="200"/>
	<g>
		<g>
			<g>
				<g>
					<polygon fill="#9B1E21" points="88.1,136 110,136 110.3,135.1 87.9,135.1 					"/>
					<polygon fill="#9B1E21" points="136.7,135.1 137,136 158.8,136 159.1,135.1 					"/>
					<polygon fill="#9C1E21" points="159.3,134.1 136.4,134.1 136.7,135.1 159.1,135.1 					"/>
					<polygon fill="#9C1E21" points="87.9,135.1 110.3,135.1 110.6,134.1 87.7,134.1 					"/>
					<polygon fill="#9D1E21" points="159.5,133.2 136.1,133.2 136.4,134.1 159.3,134.1 					"/>
					<polygon fill="#9D1E21" points="87.7,134.1 110.6,134.1 110.8,133.2 87.5,133.2 					"/>
					<polygon fill="#9E1E21" points="87.5,133.2 110.8,133.2 111.1,132.2 87.3,132.2 					"/>
					<polygon fill="#9E1E21" points="159.7,132.2 135.9,132.2 136.1,133.2 159.5,133.2 					"/>
					<polygon fill="#9F1F21" points="159.9,131.2 135.6,131.2 135.9,132.2 159.7,132.2 					"/>
					<polygon fill="#9F1F21" points="87.3,132.2 111.1,132.2 111.4,131.2 87,131.2 					"/>
					<polygon fill="#A01F22" points="160.1,130.3 135.3,130.3 135.6,131.2 159.9,131.2 					"/>
					<polygon fill="#A01F22" points="87,131.2 111.4,131.2 111.7,130.3 86.8,130.3 					"/>
					<polygon fill="#A11F22" points="160.4,129.3 135,129.3 135.3,130.3 160.1,130.3 					"/>
					<polygon fill="#A11F22" points="86.8,130.3 111.7,130.3 111.9,129.3 86.6,129.3 					"/>
					<polygon fill="#A21F22" points="86.6,129.3 111.9,129.3 112.2,128.3 86.4,128.3 					"/>
					<polygon fill="#A21F22" points="160.6,128.3 134.8,128.3 135,129.3 160.4,129.3 					"/>
					<polygon fill="#A31F22" points="86.4,128.3 112.2,128.3 112.5,127.4 86.2,127.4 					"/>
					<polygon fill="#A31F22" points="160.8,127.4 134.5,127.4 134.8,128.3 160.6,128.3 					"/>
					<polygon fill="#A41F22" points="86.2,127.4 112.5,127.4 112.8,126.4 86,126.4 					"/>
					<polygon fill="#A41F22" points="161,126.4 134.2,126.4 134.5,127.4 160.8,127.4 					"/>
					<polygon fill="#A51F22" points="161.2,125.5 134,125.5 134.2,126.4 161,126.4 					"/>
					<polygon fill="#A51F22" points="86,126.4 112.8,126.4 113,125.5 85.7,125.5 					"/>
					<polygon fill="#A62022" points="161.5,124.5 133.7,124.5 134,125.5 161.2,125.5 					"/>
					<polygon fill="#A62022" points="85.7,125.5 113,125.5 113.3,124.5 85.5,124.5 					"/>
					<polygon fill="#A72022" points="85.5,124.5 113.3,124.5 113.6,123.5 85.3,123.5 					"/>
					<polygon fill="#A72022" points="161.7,123.5 133.4,123.5 133.7,124.5 161.5,124.5 					"/>
					<polygon fill="#A82023" points="85.3,123.5 113.6,123.5 113.8,122.6 85.1,122.6 					"/>
					<polygon fill="#A82023" points="161.9,122.6 133.1,122.6 133.4,123.5 161.7,123.5 					"/>
					<polygon fill="#A92023" points="162.1,121.6 132.9,121.6 133.1,122.6 161.9,122.6 					"/>
					<polygon fill="#A92023" points="85.1,122.6 113.8,122.6 114.1,121.6 84.9,121.6 					"/>
					<polygon fill="#AA2023" points="84.9,121.6 114.1,121.6 114.4,120.6 84.6,120.6 					"/>
					<polygon fill="#AA2023" points="162.3,120.6 132.6,120.6 132.9,121.6 162.1,121.6 					"/>
					<polygon fill="#AB2023" points="162.5,119.7 132.3,119.7 132.6,120.6 162.3,120.6 					"/>
					<polygon fill="#AB2023" points="84.6,120.6 114.4,120.6 114.7,119.7 84.4,119.7 					"/>
					<polygon fill="#AC2123" points="84.4,119.7 114.7,119.7 114.9,118.7 84.2,118.7 					"/>
					<polygon fill="#AC2123" points="162.8,118.7 132,118.7 132.3,119.7 162.5,119.7 					"/>
					<polygon fill="#AD2123" points="84.2,118.7 114.9,118.7 115.2,117.8 84,117.8 					"/>
					<polygon fill="#AD2123" points="163,117.8 131.8,117.8 132,118.7 162.8,118.7 					"/>
					<polygon fill="#AE2123" points="163.2,116.8 131.5,116.8 131.8,117.8 163,117.8 					"/>
					<polygon fill="#AE2123" points="84,117.8 115.2,117.8 115.5,116.8 83.8,116.8 					"/>
					<polygon fill="#AF2123" points="163.4,115.8 131.2,115.8 131.5,116.8 163.2,116.8 					"/>
					<polygon fill="#AF2123" points="83.8,116.8 115.5,116.8 115.8,115.8 83.5,115.8 					"/>
					<polygon fill="#B02124" points="83.5,115.8 115.8,115.8 116,114.9 83.3,114.9 					"/>
					<polygon fill="#B02124" points="163.6,114.9 130.9,114.9 131.2,115.8 163.4,115.8 					"/>
					<polygon fill="#B12124" points="83.3,114.9 116,114.9 116.3,113.9 83.1,113.9 					"/>
					<polygon fill="#B12124" points="163.8,113.9 130.7,113.9 130.9,114.9 163.6,114.9 					"/>
					<polygon fill="#B22124" points="83.1,113.9 116.3,113.9 116.6,113 82.9,113 					"/>
					<polygon fill="#B22124" points="164.1,113 130.4,113 130.7,113.9 163.8,113.9 					"/>
					<polygon fill="#B32224" points="164.3,112 130.1,112 130.4,113 164.1,113 					"/>
					<polygon fill="#B32224" points="82.9,113 116.6,113 116.8,112 82.7,112 					"/>
					<polygon fill="#B42224" points="164.5,111 129.8,111 130.1,112 164.3,112 					"/>
					<polygon fill="#B42224" points="82.7,112 116.8,112 117.1,111 82.5,111 					"/>
					<polygon fill="#B52224" points="82.5,111 117.1,111 117.4,110.1 82.2,110.1 					"/>
					<polygon fill="#B52224" points="164.7,110.1 129.6,110.1 129.8,111 164.5,111 					"/>
					<polygon fill="#B62224" points="82.2,110.1 117.4,110.1 117.7,109.1 82,109.1 					"/>
					<polygon fill="#B62224" points="164.9,109.1 129.3,109.1 129.6,110.1 164.7,110.1 					"/>
					<polygon fill="#B72224" points="165.1,108.1 129,108.1 129.3,109.1 164.9,109.1 					"/>
					<polygon fill="#B72224" points="82,109.1 117.7,109.1 117.9,108.1 81.8,108.1 					"/>
					<polygon fill="#B82225" points="165.4,107.2 128.7,107.2 129,108.1 165.1,108.1 					"/>
					<polygon fill="#B82225" points="81.8,108.1 117.9,108.1 118.2,107.2 81.6,107.2 					"/>
					<polygon fill="#B92225" points="100.9,106.5 100.8,106.2 81.4,106.2 81.6,107.2 118.2,107.2 118.5,106.2 100.9,106.2 					"/>
					<polygon fill="#B92225" points="165.6,106.2 146.1,106.2 146.1,106.5 146,106.2 128.5,106.2 128.7,107.2 165.4,107.2 					"/>
					<polygon fill="#BA2325" points="145.7,105.3 128.2,105.3 128.5,106.2 146,106.2 					"/>
					<polygon fill="#BA2325" points="100.9,106.2 118.5,106.2 118.8,105.3 101.2,105.3 					"/>
					<polygon fill="#BA2325" points="100.6,105.3 81.1,105.3 81.4,106.2 100.8,106.2 					"/>
					<polygon fill="#BA2325" points="165.8,105.3 146.3,105.3 146.1,106.2 165.6,106.2 					"/>
					<polygon fill="#BB2325" points="145.5,104.3 127.9,104.3 128.2,105.3 145.7,105.3 					"/>
					<polygon fill="#BB2325" points="100.4,104.3 80.9,104.3 81.1,105.3 100.6,105.3 					"/>
					<polygon fill="#BB2325" points="101.2,105.3 118.8,105.3 119,104.3 101.5,104.3 					"/>
					<polygon fill="#BB2325" points="166,104.3 146.5,104.3 146.3,105.3 165.8,105.3 					"/>
					<polygon fill="#BC2325" points="145.2,103.3 127.7,103.3 127.9,104.3 145.5,104.3 					"/>
					<polygon fill="#BC2325" points="101.5,104.3 119,104.3 119.3,103.3 101.8,103.3 					"/>
					<polygon fill="#BC2325" points="166.2,103.3 146.7,103.3 146.5,104.3 166,104.3 					"/>
					<polygon fill="#BC2325" points="100.2,103.3 80.7,103.3 80.9,104.3 100.4,104.3 					"/>
					<polygon fill="#BD2325" points="144.9,102.4 127.4,102.4 127.7,103.3 145.2,103.3 					"/>
					<polygon fill="#BD2325" points="101.8,103.3 119.3,103.3 119.6,102.4 102,102.4 					"/>
					<polygon fill="#BD2325" points="166.4,102.4 146.9,102.4 146.7,103.3 166.2,103.3 					"/>
					<polygon fill="#BD2325" points="100.1,102.4 80.5,102.4 80.7,103.3 100.2,103.3 					"/>
					<polygon fill="#BE2325" points="166.7,101.4 147.1,101.4 146.9,102.4 166.4,102.4 					"/>
					<polygon fill="#BE2325" points="144.7,101.4 127.1,101.4 127.4,102.4 144.9,102.4 					"/>
					<polygon fill="#BE2325" points="99.9,101.4 80.3,101.4 80.5,102.4 100.1,102.4 					"/>
					<polygon fill="#BE2325" points="102,102.4 119.6,102.4 119.8,101.4 102.3,101.4 					"/>
					<polygon fill="#BF2325" points="144.4,100.5 126.8,100.5 127.1,101.4 144.7,101.4 					"/>
					<polygon fill="#BF2325" points="102.3,101.4 119.8,101.4 120.1,100.5 102.6,100.5 					"/>
					<polygon fill="#BF2325" points="99.7,100.5 80,100.5 80.3,101.4 99.9,101.4 					"/>
					<polygon fill="#BF2325" points="166.9,100.5 147.2,100.5 147.1,101.4 166.7,101.4 					"/>
					<polygon fill="#C12426" points="99.5,99.5 79.8,99.5 80,100.5 99.7,100.5 					"/>
					<polygon fill="#C12426" points="144.1,99.5 126.6,99.5 126.8,100.5 144.4,100.5 					"/>
					<polygon fill="#C12426" points="102.6,100.5 120.1,100.5 120.4,99.5 102.8,99.5 					"/>
					<polygon fill="#C12426" points="167.1,99.5 147.4,99.5 147.2,100.5 166.9,100.5 					"/>
					<polygon fill="#C22426" points="102.8,99.5 120.4,99.5 120.7,98.5 103.1,98.5 					"/>
					<polygon fill="#C22426" points="143.8,98.5 126.3,98.5 126.6,99.5 144.1,99.5 					"/>
					<polygon fill="#C22426" points="99.3,98.5 79.6,98.5 79.8,99.5 99.5,99.5 					"/>
					<polygon fill="#C22426" points="167.3,98.5 147.6,98.5 147.4,99.5 167.1,99.5 					"/>
					<polygon fill="#C32426" points="167.5,97.6 147.8,97.6 147.6,98.5 167.3,98.5 					"/>
					<polygon fill="#C32426" points="143.6,97.6 126,97.6 126.3,98.5 143.8,98.5 					"/>
					<polygon fill="#C32426" points="99.1,97.6 79.4,97.6 79.6,98.5 99.3,98.5 					"/>
					<polygon fill="#C32426" points="103.1,98.5 120.7,98.5 120.9,97.6 103.4,97.6 					"/>
					<polygon fill="#C42426" points="143.3,96.6 125.7,96.6 126,97.6 143.6,97.6 					"/>
					<polygon fill="#C42426" points="98.9,96.6 79.2,96.6 79.4,97.6 99.1,97.6 					"/>
					<polygon fill="#C42426" points="167.7,96.6 148,96.6 147.8,97.6 167.5,97.6 					"/>
					<polygon fill="#C42426" points="103.4,97.6 120.9,97.6 121.2,96.6 103.7,96.6 					"/>
					<polygon fill="#C52426" points="168,95.6 148.2,95.6 148,96.6 167.7,96.6 					"/>
					<polygon fill="#C52426" points="103.7,96.6 121.2,96.6 121.5,95.6 103.9,95.6 					"/>
					<polygon fill="#C52426" points="98.8,95.6 79,95.6 79.2,96.6 98.9,96.6 					"/>
					<polygon fill="#C52426" points="143,95.6 125.5,95.6 125.7,96.6 143.3,96.6 					"/>
					<polygon fill="#C62426" points="142.7,94.7 125.2,94.7 125.5,95.6 143,95.6 					"/>
					<polygon fill="#C62426" points="103.9,95.6 121.5,95.6 121.8,94.7 104.2,94.7 					"/>
					<polygon fill="#C62426" points="98.6,94.7 78.7,94.7 79,95.6 98.8,95.6 					"/>
					<polygon fill="#C62426" points="168.2,94.7 148.4,94.7 148.2,95.6 168,95.6 					"/>
					<polygon fill="#C72426" points="104.2,94.7 121.8,94.7 122,93.7 104.5,93.7 					"/>
					<polygon fill="#C72426" points="98.4,93.7 78.5,93.7 78.7,94.7 98.6,94.7 					"/>
					<polygon fill="#C72426" points="142.5,93.7 124.9,93.7 125.2,94.7 142.7,94.7 					"/>
					<polygon fill="#C72426" points="168.4,93.7 148.5,93.7 148.4,94.7 168.2,94.7 					"/>
					<polygon fill="#C82526" points="104.5,93.7 122,93.7 122.3,92.8 104.7,92.8 					"/>
					<polygon fill="#C82526" points="168.6,92.8 148.7,92.8 148.5,93.7 168.4,93.7 					"/>
					<polygon fill="#C82526" points="98.2,92.8 78.3,92.8 78.5,93.7 98.4,93.7 					"/>
					<polygon fill="#C82526" points="142.2,92.8 124.6,92.8 124.9,93.7 142.5,93.7 					"/>
					<polygon fill="#C92526" points="104.7,92.8 122.3,92.8 122.6,91.8 105,91.8 					"/>
					<polygon fill="#C92526" points="141.9,91.8 124.4,91.8 124.6,92.8 142.2,92.8 					"/>
					<polygon fill="#C92526" points="98,91.8 78.1,91.8 78.3,92.8 98.2,92.8 					"/>
					<polygon fill="#C92526" points="168.8,91.8 148.9,91.8 148.7,92.8 168.6,92.8 					"/>
					<polygon fill="#CA2527" points="97.8,90.8 77.9,90.8 78.1,91.8 98,91.8 					"/>
					<polygon fill="#CA2527" points="169,90.8 149.1,90.8 148.9,91.8 168.8,91.8 					"/>
					<polygon fill="#CA2527" points="105,91.8 122.6,91.8 122.9,90.8 105.3,90.8 					"/>
					<polygon fill="#CA2527" points="141.7,90.8 124.1,90.8 124.4,91.8 141.9,91.8 					"/>
					<polygon fill="#CB2527" points="141.4,89.9 123.8,89.9 124.1,90.8 141.7,90.8 					"/>
					<polygon fill="#CB2527" points="97.6,89.9 77.6,89.9 77.9,90.8 97.8,90.8 					"/>
					<polygon fill="#CB2527" points="169.3,89.9 149.3,89.9 149.1,90.8 169,90.8 					"/>
					<polygon fill="#CB2527" points="105.3,90.8 122.9,90.8 123.1,89.9 105.6,89.9 					"/>
					<polygon fill="#CC2527" points="105.6,89.9 123.1,89.9 123.4,88.9 105.8,88.9 					"/>
					<polygon fill="#CC2527" points="169.5,88.9 149.5,88.9 149.3,89.9 169.3,89.9 					"/>
					<polygon fill="#CC2527" points="141.1,88.9 123.5,88.9 123.8,89.9 141.4,89.9 					"/>
					<polygon fill="#CC2527" points="97.5,88.9 77.4,88.9 77.6,89.9 97.6,89.9 					"/>
					<polygon fill="#CD2527" points="169.7,87.9 149.7,87.9 149.5,88.9 169.5,88.9 					"/>
					<polygon fill="#CD2527" points="97.3,87.9 77.2,87.9 77.4,88.9 97.5,88.9 					"/>
					<polygon fill="#CD2527" points="140.8,87.9 106.1,87.9 105.8,88.9 123.4,88.9 123.5,88.7 123.5,88.9 141.1,88.9 					"/>
					<polygon fill="#CE2527" points="97.1,87 77,87 77.2,87.9 97.3,87.9 					"/>
					<polygon fill="#CE2527" points="169.9,87 149.8,87 149.7,87.9 169.7,87.9 					"/>
					<polygon fill="#CE2527" points="140.6,87 106.4,87 106.1,87.9 140.8,87.9 					"/>
					<polygon fill="#CF2627" points="96.9,86 76.8,86 77,87 97.1,87 					"/>
					<polygon fill="#CF2627" points="170.1,86 150,86 149.8,87 169.9,87 					"/>
					<polygon fill="#CF2627" points="140.3,86 106.7,86 106.4,87 140.6,87 					"/>
					<polygon fill="#D02627" points="140,85.1 106.9,85.1 106.7,86 140.3,86 					"/>
					<polygon fill="#D02627" points="96.7,85.1 76.5,85.1 76.8,86 96.9,86 					"/>
					<polygon fill="#D02627" points="170.3,85.1 150.2,85.1 150,86 170.1,86 					"/>
					<polygon fill="#D12627" points="139.7,84.1 107.2,84.1 106.9,85.1 140,85.1 					"/>
					<polygon fill="#D12627" points="170.6,84.1 150.4,84.1 150.2,85.1 170.3,85.1 					"/>
					<polygon fill="#D12627" points="96.5,84.1 76.3,84.1 76.5,85.1 96.7,85.1 					"/>
					<polygon fill="#D22628" points="139.5,83.1 107.5,83.1 107.2,84.1 139.7,84.1 					"/>
					<polygon fill="#D22628" points="170.8,83.1 150.6,83.1 150.4,84.1 170.6,84.1 					"/>
					<polygon fill="#D22628" points="96.4,83.1 76.1,83.1 76.3,84.1 96.5,84.1 					"/>
					<polygon fill="#D32628" points="171,82.2 150.8,82.2 150.6,83.1 170.8,83.1 					"/>
					<polygon fill="#D32628" points="139.2,82.2 107.7,82.2 107.5,83.1 139.5,83.1 					"/>
					<polygon fill="#D32628" points="96.2,82.2 75.9,82.2 76.1,83.1 96.4,83.1 					"/>
					<polygon fill="#D42628" points="96,81.2 75.7,81.2 75.9,82.2 96.2,82.2 					"/>
					<polygon fill="#D42628" points="171.2,81.2 151,81.2 150.8,82.2 171,82.2 					"/>
					<polygon fill="#D42628" points="138.9,81.2 108,81.2 107.7,82.2 139.2,82.2 					"/>
					<polygon fill="#D52628" points="138.7,80.3 108.3,80.3 108,81.2 138.9,81.2 					"/>
					<polygon fill="#D52628" points="95.8,80.3 75.4,80.3 75.7,81.2 96,81.2 					"/>
					<polygon fill="#D52628" points="171.4,80.3 151.2,80.3 151,81.2 171.2,81.2 					"/>
					<polygon fill="#D62728" points="171.6,79.3 151.3,79.3 151.2,80.3 171.4,80.3 					"/>
					<polygon fill="#D62728" points="138.4,79.3 108.6,79.3 108.3,80.3 138.7,80.3 					"/>
					<polygon fill="#D62728" points="95.6,79.3 75.2,79.3 75.4,80.3 95.8,80.3 					"/>
					<polygon fill="#D72728" points="95.4,78.3 75,78.3 75.2,79.3 95.6,79.3 					"/>
					<polygon fill="#D72728" points="171.9,78.3 151.5,78.3 151.3,79.3 171.6,79.3 					"/>
					<polygon fill="#D72728" points="138.1,78.3 108.8,78.3 108.6,79.3 138.4,79.3 					"/>
					<polygon fill="#D82728" points="137.8,77.4 109.1,77.4 108.8,78.3 138.1,78.3 					"/>
					<polygon fill="#D82728" points="172.1,77.4 151.7,77.4 151.5,78.3 171.9,78.3 					"/>
					<polygon fill="#D82728" points="95.2,77.4 74.8,77.4 75,78.3 95.4,78.3 					"/>
					<polygon fill="#D92728" points="137.6,76.4 109.4,76.4 109.1,77.4 137.8,77.4 					"/>
					<polygon fill="#D92728" points="95.1,76.4 74.6,76.4 74.8,77.4 95.2,77.4 					"/>
					<polygon fill="#D92728" points="172.3,76.4 151.9,76.4 151.7,77.4 172.1,77.4 					"/>
					<polygon fill="#DA2729" points="172.5,75.4 152.1,75.4 151.9,76.4 172.3,76.4 					"/>
					<polygon fill="#DA2729" points="137.3,75.4 109.6,75.4 109.4,76.4 137.6,76.4 					"/>
					<polygon fill="#DA2729" points="94.9,75.4 74.4,75.4 74.6,76.4 95.1,76.4 					"/>
					<polygon fill="#DB2729" points="137,74.5 109.9,74.5 109.6,75.4 137.3,75.4 					"/>
					<polygon fill="#DB2729" points="94.7,74.5 74.1,74.5 74.4,75.4 94.9,75.4 					"/>
					<polygon fill="#DB2729" points="172.7,74.5 152.3,74.5 152.1,75.4 172.5,75.4 					"/>
					<polygon fill="#DC2829" points="94.5,73.5 73.9,73.5 74.1,74.5 94.7,74.5 					"/>
					<polygon fill="#DC2829" points="136.7,73.5 110.2,73.5 109.9,74.5 137,74.5 					"/>
					<polygon fill="#DC2829" points="172.9,73.5 152.5,73.5 152.3,74.5 172.7,74.5 					"/>
					<polygon fill="#DD2829" points="173.2,72.6 152.6,72.6 152.5,73.5 172.9,73.5 					"/>
					<polygon fill="#DD2829" points="136.5,72.6 110.5,72.6 110.2,73.5 136.7,73.5 					"/>
					<polygon fill="#DD2829" points="94.3,72.6 73.7,72.6 73.9,73.5 94.5,73.5 					"/>
					<polygon fill="#DE2829" points="94.1,71.6 73.5,71.6 73.7,72.6 94.3,72.6 					"/>
					<polygon fill="#DE2829" points="136.2,71.6 110.7,71.6 110.5,72.6 136.5,72.6 					"/>
					<polygon fill="#DE2829" points="173.4,71.6 152.8,71.6 152.6,72.6 173.2,72.6 					"/>
					<polygon fill="#DF2829" points="173.6,70.6 153,70.6 152.8,71.6 173.4,71.6 					"/>
					<polygon fill="#DF2829" points="135.9,70.6 111,70.6 110.7,71.6 136.2,71.6 					"/>
					<polygon fill="#DF2829" points="93.9,70.6 73.3,70.6 73.5,71.6 94.1,71.6 					"/>
					<polygon fill="#E02829" points="93.8,69.7 73,69.7 73.3,70.6 93.9,70.6 					"/>
					<polygon fill="#E02829" points="173.8,69.7 153.2,69.7 153,70.6 173.6,70.6 					"/>
					<polygon fill="#E02829" points="135.7,69.7 111.3,69.7 111,70.6 135.9,70.6 					"/>
					<polygon fill="#E12829" points="93.6,68.7 72.8,68.7 73,69.7 93.8,69.7 					"/>
					<polygon fill="#E12829" points="174,68.7 153.4,68.7 153.2,69.7 173.8,69.7 					"/>
					<polygon fill="#E12829" points="135.4,68.7 111.5,68.7 111.3,69.7 135.7,69.7 					"/>
					<polygon fill="#E2282A" points="174.2,67.7 153.6,67.7 153.4,68.7 174,68.7 					"/>
					<polygon fill="#E2282A" points="93.4,67.7 72.6,67.7 72.8,68.7 93.6,68.7 					"/>
					<polygon fill="#E2282A" points="135.1,67.7 111.8,67.7 111.5,68.7 135.4,68.7 					"/>
					<polygon fill="#E3292A" points="134.8,66.8 112.1,66.8 111.8,67.7 135.1,67.7 					"/>
					<polygon fill="#E3292A" points="174.5,66.8 153.8,66.8 153.6,67.7 174.2,67.7 					"/>
					<polygon fill="#E3292A" points="93.2,66.8 72.4,66.8 72.6,67.7 93.4,67.7 					"/>
					<polygon fill="#E4292A" points="174.7,65.8 153.9,65.8 153.8,66.8 174.5,66.8 					"/>
					<polygon fill="#E4292A" points="93,65.8 72.2,65.8 72.4,66.8 93.2,66.8 					"/>
					<polygon fill="#E4292A" points="134.6,65.8 112.4,65.8 112.1,66.8 134.8,66.8 					"/>
					<polygon fill="#E5292A" points="134.3,64.9 112.6,64.9 112.4,65.8 134.6,65.8 					"/>
					<polygon fill="#E5292A" points="92.8,64.9 71.9,64.9 72.2,65.8 93,65.8 					"/>
					<polygon fill="#E5292A" points="174.9,64.9 154.1,64.9 153.9,65.8 174.7,65.8 					"/>
					<polygon fill="#E6292A" points="175.1,63.9 154.3,63.9 154.1,64.9 174.9,64.9 					"/>
					<polygon fill="#E6292A" points="134,63.9 112.9,63.9 112.6,64.9 134.3,64.9 					"/>
					<polygon fill="#E6292A" points="92.6,63.9 71.7,63.9 71.9,64.9 92.8,64.9 					"/>
				</g>
			</g>
			<path fill="#E6292A" d="M174.5,64.4l-16,71.1h-21.1l-12.9-45.3l-1-3.4l-1,3.4l-12.9,45.3H88.5L72.4,64.4h19.9l7.7,40.1l0.8,4.2
				l1.1-4.1l11.4-40.2h20.4l11.4,40.2l1.1,4.1l0.8-4.1l7.8-40.1H174.5 M175.7,63.4h-21.8l-7.9,40.9l-11.6-40.9h-21.9L101,104.3
				l-7.9-40.9h-22l16.6,73.1h22.7l13.1-46l13.1,46h22.7L175.7,63.4L175.7,63.4z"/>
		</g>
	</g>
	<g>
		<g>
			<g id="Frame_2">
				<path id="Vector_126" fill="#FFFFFF" d="M70.2,105.9l18.2,5.8c-1.2,5.4-3.2,9.8-5.8,13.4c-2.5,3.5-5.9,6.3-9.8,8.1
					s-8.9,2.7-14.9,2.7c-7.3,0-13.3-1.1-17.9-3.3s-8.6-6.1-12-11.7s-5-12.8-5-21.6c0-11.7,3-20.7,8.9-26.9S46.2,63,57,63
					c8.5,0,15.1,1.8,20,5.4c4.8,3.6,8.4,9.1,10.8,16.6l-18.3,4.3c-0.4-1.7-1.1-3.3-2-4.7c-1.1-1.6-2.6-2.9-4.3-3.9
					c-1.7-0.9-3.7-1.4-5.6-1.3c-4.7,0-8.3,2-10.8,6C44.9,88.3,44,93,44,99.3c0,7.8,1.1,13.2,3.4,16.1s5.4,4.4,9.5,4.4
					c4,0,7-1.2,9-3.5C67.8,113.8,69.3,110.4,70.2,105.9z"/>
			</g>
		</g>
	</g>
</g>
</svg>
