<?xml version="1.0" encoding="utf-8"?>
<!-- Generator: Adobe Illustrator 25.4.1, SVG Export Plug-In . SVG Version: 6.00 Build 0)  -->
<svg version="1.2" baseProfile="tiny-ps" id="Layer_1" xmlns="http://www.w3.org/2000/svg" xmlns:xlink="http://www.w3.org/1999/xlink"
	 viewBox="0 0 200 200" xml:space="preserve">
    <title>Manhattan Slots</title>
<g id="MS">
	<rect fill="#BADBDB" width="200" height="200"/>
	<g id="Group_9">
		<g>
			<path id="Vector" fill="#231F20" d="M127.3,129.7c0,18.2,10.2,26.2,19.9,26.2s15-5.2,15-13.7c0-22.7-36.2-20.8-36.2-48.4
				c0-11.6,8-22.2,21.6-22.2c6.1,0,9.8,2.2,13.2,2.2c2.4,0,3.7-1.3,3.7-3.6v-9.9c0-0.9,0.4-1.3,1-1.3c0.9,0,1.3,0.4,1.3,1.3
				c0,3.8-0.1,17.7-0.1,22.5s0.1,16.8,0.1,20.7c0,0.9-0.4,1.3-1.3,1.3c-0.6,0-1-0.4-1-1.3V93.3c0-11.4-6.3-19.2-16.6-19.2
				c-8.3,0-13.1,6.5-13.1,14.2c0,22.2,37.2,19.9,37.2,47.5c0,14-9.9,22.6-24.3,22.6c-7.4,0-11.9-3.3-16-3.3c-3.2,0-4.4,1.8-4.4,4.4
				v5.5c0,1.1-0.4,1.5-1.2,1.5s-1.1-0.4-1.1-1.5c0-3.7,0.2-17.2,0.2-22c0-4.9-0.2-19.4-0.2-23.5c0-0.9,0.4-1.1,1.1-1.1
				s1.2,0.2,1.2,1.1L127.3,129.7z"/>
		</g>
		<g>
			<g id="Frame_2">
				<path id="Vector_2" fill="#DFBC3C" d="M117.4,49c0.9,0,1.4,0.4,1.4,1.1c0,0.7-0.4,1.1-1.4,1.1h-4.6c-2.9,0-4.1,0.9-4.4,3.5
					c-0.7,6.5-0.8,24.4-0.8,40.3s0.1,33.7,0.8,40.1c0.3,2.5,1.4,3.5,4.4,3.5h4.6c0.9,0,1.5,0.4,1.5,1.1c0,0.7-0.6,1.1-1.5,1.1
					c-4.2,0-10.8-0.3-16.1-0.3c-5.3,0-11.9,0.3-16.1,0.3c-0.9,0-1.4-0.4-1.4-1.1c0-0.7,0.4-1.1,1.4-1.1h4.6c2.9,0,4.1-0.9,4.3-3.5
					c0.7-6.5,0.8-24.3,0.8-40.1c0-11.7,0.1-25.7-0.4-34.2c-0.1-2-1.1-2.3-1.7-0.3c-3.8,13.2-14.6,61.1-18.7,79.6
					c-0.6,2.5-2.5,2.8-3.1,0.1c-3.7-17.1-14.6-63.1-19.6-81.1c-0.6-2-1.5-1.4-1.5,0.3c-0.1,8-0.1,18.7-0.1,27.9
					c0,15.9,0,33.4,0.7,39.9c0.3,2.5,1.5,3.5,4.5,3.5h4.6c0.9,0,1.4,0.4,1.4,1.1c0,0.7-0.4,1.1-1.4,1.1c-4.2,0-6.5-0.3-11.8-0.3
					s-7.5,0.3-11.8,0.3c-0.9,0-1.4-0.4-1.4-1.1c0-0.7,0.4-1.1,1.4-1.1h4.6c2.9,0,4.2-0.9,4.5-3.5c0.7-6.5,0.7-24,0.7-39.9
					s0-34.5-0.7-41c-0.3-2.5-1.5-3.5-4.5-3.5H36c-0.9,0-1.4-0.4-1.4-1.1c0-0.7,0.4-1.1,1.4-1.1c3.5,0,8.6,0.3,11.8,0.3
					c3.5,0,7.3-0.3,10.8-0.3c1.8,0,2.5,0.4,2.9,2.5c2.7,13.3,10.4,48.3,14.7,65.7c0.4,1.7,0.8,1.8,1.4-0.3
					C82.1,92,88,65.6,90.8,51.8c0.4-2.1,1.1-2.8,2.9-2.8c3.2,0,6,0.3,9.1,0.3C108.2,49.3,113.2,49,117.4,49z"/>
				<path id="Vector_3" fill="#FFFFFF" d="M58.6,40.6c1.8,0,2.5,0.4,2.9,2.5c2.7,13.3,10.4,48.3,14.7,65.7c0.2,0.8,0.4,1.3,0.6,1.3
					s0.5-0.5,0.8-1.6c4.5-16.6,10.4-43,13.2-56.7c0.4-2.1,1.1-2.8,2.9-2.8c3.2,0,6,0.3,9.1,0.3c5.3,0,10.4-0.3,14.6-0.3
					c0.9,0,1.4,0.4,1.4,1.1c0,0.7-0.4,1.1-1.4,1.1h-4.6c-2.9,0-4.1,0.9-4.4,3.5c-0.7,6.5-0.8,24.4-0.8,40.3s0.1,33.7,0.8,40.1
					c0.3,2.5,1.4,3.5,4.4,3.5h4.6c0.9,0,1.5,0.4,1.5,1.1c0,0.7-0.6,1.1-1.5,1.1c-4.2,0-10.8-0.3-16.1-0.3c-5.3,0-11.9,0.3-16.1,0.3
					c-0.9,0-1.4-0.4-1.4-1.1c0-0.7,0.4-1.1,1.4-1.1h4.6c2.9,0,4.1-0.9,4.3-3.5c0.7-6.5,0.8-24.3,0.8-40.1c0-11.7,0.1-25.7-0.4-34.2
					c-0.1-1.1-0.4-1.6-0.8-1.6s-0.7,0.4-0.9,1.3c-3.8,13.2-14.6,61.1-18.7,79.6c-0.3,1.3-0.9,2-1.6,2s-1.2-0.6-1.5-1.9
					c-3.7-17.1-14.6-63.1-19.6-81.1c-0.3-0.9-0.6-1.2-0.9-1.2c-0.3,0-0.7,0.6-0.7,1.5c-0.1,8-0.1,18.7-0.1,27.9
					c0,15.9,0,33.4,0.7,39.9c0.3,2.5,1.5,3.5,4.5,3.5h4.6c0.9,0,1.4,0.4,1.4,1.1s-0.4,1.1-1.4,1.1c-4.2,0-6.5-0.3-11.8-0.3
					s-7.5,0.3-11.8,0.3c-0.9,0-1.4-0.4-1.4-1.1c0-0.7,0.4-1.1,1.4-1.1h4.6c2.9,0,4.2-0.9,4.5-3.5c0.7-6.5,0.7-24,0.7-39.9
					s0-34.5-0.7-41c-0.3-2.5-1.5-3.5-4.5-3.5h-4.6c-0.9,0-1.4-0.4-1.4-1.1c0-0.7,0.4-1.1,1.4-1.1c3.5,0,8.6,0.3,11.8,0.3
					C51.4,40.8,55.1,40.5,58.6,40.6 M58.6,38.7c-1.8,0-3.7,0.1-5.5,0.1c-1.8,0.1-3.6,0.1-5.3,0.1c-1.5,0-3.5-0.1-5.6-0.1
					s-4.4-0.1-6.2-0.1c-0.4,0-0.8,0-1.2,0.1s-0.8,0.3-1.1,0.6s-0.6,0.6-0.7,1c-0.2,0.4-0.3,0.8-0.3,1.2s0.1,0.8,0.3,1.2
					s0.4,0.7,0.7,1s0.7,0.5,1.1,0.6c0.4,0.1,0.8,0.2,1.2,0.1h4.6c2.3,0,2.5,0.6,2.6,1.8C44,52.9,44,72,44,87.3
					c0,15.6,0,33.3-0.7,39.7c-0.1,1.3-0.3,1.8-2.6,1.8h-4.6c-0.4,0-0.8,0-1.2,0.1s-0.8,0.3-1.1,0.6s-0.6,0.6-0.7,1
					c-0.2,0.4-0.3,0.8-0.3,1.2s0.1,0.8,0.3,1.2s0.4,0.7,0.7,1s0.7,0.5,1.1,0.6c0.4,0.1,0.8,0.2,1.2,0.1c2,0,3.6-0.1,5.2-0.1
					c1.9-0.1,3.8-0.2,6.6-0.2s4.7,0.1,6.6,0.2c1.7,0.1,3.2,0.1,5.2,0.1c0.4,0,0.8,0,1.2-0.1s0.8-0.3,1.1-0.6s0.6-0.6,0.7-1
					c0.2-0.4,0.3-0.8,0.3-1.2s-0.1-0.8-0.3-1.2s-0.4-0.7-0.7-1s-0.7-0.5-1.1-0.6c-0.4-0.1-0.8-0.2-1.2-0.1h-4.6
					c-2.3,0-2.5-0.6-2.6-1.8c-0.7-6.4-0.7-24-0.7-39.7c0-6.5,0-13.7,0-20.1c5.5,20.9,14.3,58,17.6,73.4c0.5,2.5,2.1,3.4,3.3,3.4
					c1.6,0,3-1.4,3.5-3.5c3.8-17,12.3-55,17-73c0.2,6.4,0.2,14.1,0.1,21.7c0,2,0,4,0,5.9c0,21.7-0.3,34.8-0.8,39.9
					c-0.2,1.4-0.3,1.8-2.5,1.8h-4.6c-0.4,0-0.8,0-1.2,0.1c-0.4,0.1-0.8,0.3-1.1,0.6c-0.3,0.3-0.6,0.6-0.7,1
					c-0.2,0.4-0.3,0.8-0.3,1.2s0.1,0.8,0.3,1.2c0.2,0.4,0.4,0.7,0.7,1c0.3,0.3,0.7,0.5,1.1,0.6s0.8,0.2,1.2,0.1c2,0,4.5-0.1,7.2-0.1
					c3-0.1,6.1-0.2,8.9-0.2s5.9,0.1,8.9,0.2c2.7,0.1,5.2,0.1,7.2,0.1c2.4,0,3.4-1.6,3.4-3s-1.1-3-3.4-3h-4.8c-2.2,0-2.3-0.4-2.5-1.8
					c-0.6-5.1-0.8-18.2-0.8-39.9s0.3-34.9,0.8-40.1c0.2-1.4,0.3-1.8,2.5-1.8h4.6c0.4,0,0.8,0,1.2-0.1c0.4-0.1,0.8-0.3,1.1-0.6
					c0.3-0.3,0.6-0.6,0.7-1c0.2-0.4,0.3-0.8,0.3-1.2s-0.1-0.8-0.3-1.2c-0.2-0.4-0.4-0.7-0.7-1c-0.3-0.3-0.7-0.5-1.1-0.6
					s-0.8-0.2-1.2-0.1c-2,0-4.2,0.1-6.5,0.1c-2.6,0.1-5.3,0.2-8.1,0.2c-1.5,0-2.9-0.1-4.4-0.1c-1.5-0.1-3.1-0.2-4.7-0.2
					c-3.5,0-4.4,2.3-4.8,4.3c-2.4,11.6-7.6,35.2-11.9,52.3c-4.5-18.5-11.1-48.8-13.6-61C62.9,39.9,61.5,38.7,58.6,38.7L58.6,38.7z"
					/>
				<path fill="#D84545" d="M113.7,44.3c0.9,0,1.4,0.4,1.4,1.1c0,0.7-0.4,1.1-1.4,1.1H109c-2.9,0-4.1,0.9-4.4,3.5
					c-0.7,6.5-0.8,24.4-0.8,40.3s0.1,33.7,0.8,40.1c0.3,2.5,1.4,3.5,4.4,3.5h4.6c0.9,0,1.5,0.4,1.5,1.1c0,0.7-0.6,1.1-1.5,1.1
					c-4.2,0-10.8-0.3-16.1-0.3c-5.3,0-11.9,0.3-16.1,0.3c-0.9,0-1.4-0.4-1.4-1.1c0-0.7,0.4-1.1,1.4-1.1H86c2.9,0,4.1-0.9,4.3-3.5
					c0.7-6.5,0.8-24.3,0.8-40.1c0-11.7,0.1-25.7-0.4-34.2c-0.1-2-1.1-2.3-1.7-0.3c-3.8,13.2-14.6,61.1-18.7,79.6
					c-0.6,2.5-2.5,2.8-3.1,0.1c-3.7-17.1-14.6-63.1-19.6-81.1c-0.6-2-1.5-1.4-1.5,0.3C46,62.7,46,73.4,46,82.6
					c0,15.9,0,33.4,0.7,39.9c0.3,2.5,1.5,3.5,4.5,3.5h4.6c0.9,0,1.4,0.4,1.4,1.1s-0.4,1.1-1.4,1.1c-4.2,0-6.5-0.3-11.8-0.3
					s-7.5,0.3-11.8,0.3c-0.9,0-1.4-0.4-1.4-1.1s0.4-1.1,1.4-1.1h4.6c2.9,0,4.2-0.9,4.5-3.5C42,116,42,98.5,42,82.6s0-34.5-0.7-41
					c-0.3-2.5-1.5-3.5-4.5-3.5h-4.6c-0.9,0-1.4-0.4-1.4-1.1c0-0.7,0.4-1.1,1.4-1.1c3.5,0,8.6,0.3,11.8,0.3c3.5,0,7.3-0.3,10.8-0.3
					c1.8,0,2.5,0.4,2.9,2.5c2.7,13.3,10.4,48.3,14.7,65.7c0.4,1.7,0.8,1.8,1.4-0.3C78.3,87.3,84.2,60.9,87,47.1
					c0.4-2.1,1.1-2.8,2.9-2.8c3.2,0,6,0.3,9.1,0.3C104.4,44.6,109.5,44.3,113.7,44.3z"/>
				<path id="Vector_5" fill="#FFFFFF" d="M54.9,35.9c1.8,0,2.5,0.4,2.9,2.5c2.7,13.3,10.4,48.3,14.7,65.7c0.2,0.8,0.4,1.3,0.6,1.3
					s0.5-0.5,0.8-1.6c4.4-16.6,10.3-43,13.1-56.7c0.4-2.1,1.1-2.8,2.9-2.8c3.2,0,6,0.3,9.1,0.3c5.3,0,10.4-0.3,14.6-0.3
					c0.9,0,1.4,0.4,1.4,1.1c0,0.7-0.4,1.1-1.4,1.1H109c-2.9,0-4.1,0.9-4.4,3.5c-0.7,6.5-0.8,24.4-0.8,40.3s0.1,33.7,0.8,40.1
					c0.3,2.5,1.4,3.5,4.4,3.5h4.6c0.9,0,1.5,0.4,1.5,1.1c0,0.7-0.6,1.1-1.5,1.1c-4.2,0-10.8-0.3-16.1-0.3c-5.3,0-11.9,0.3-16.1,0.3
					c-0.9,0-1.4-0.4-1.4-1.1c0-0.7,0.4-1.1,1.4-1.1H86c2.9,0,4.1-0.9,4.3-3.5c0.7-6.5,0.8-24.3,0.8-40.1c0-11.7,0.1-25.7-0.4-34.2
					c-0.1-1.1-0.4-1.6-0.8-1.6s-0.7,0.4-0.9,1.3c-3.8,13.2-14.6,61.1-18.7,79.6c-0.3,1.3-0.9,2-1.6,2s-1.2-0.6-1.5-1.9
					c-3.7-17.1-14.6-63.1-19.6-81.1c-0.3-0.9-0.6-1.2-0.9-1.2S46,53.8,46,54.7c0,7.9,0,18.6,0,27.9c0,15.9,0,33.4,0.7,39.9
					c0.3,2.5,1.5,3.5,4.5,3.5h4.6c0.9,0,1.4,0.4,1.4,1.1s-0.4,1.1-1.4,1.1c-4.2,0-6.5-0.3-11.8-0.3s-7.5,0.3-11.8,0.3
					c-0.9,0-1.4-0.4-1.4-1.1s0.4-1.1,1.4-1.1h4.6c2.9,0,4.2-0.9,4.5-3.5C42,116,42,98.5,42,82.6s0-34.5-0.7-41
					c-0.3-2.5-1.5-3.5-4.5-3.5h-4.6c-0.9,0-1.4-0.4-1.4-1.1c0-0.7,0.4-1.1,1.4-1.1c3.5,0,8.6,0.3,11.8,0.3
					C47.6,36.1,51.4,35.8,54.9,35.9 M54.9,34c-1.8,0-3.7,0.1-5.5,0.1s-3.6,0.1-5.3,0.1c-1.5,0-3.5-0.1-5.6-0.1
					C36.4,34,34.1,34,32.3,34c-0.4,0-0.8,0-1.2,0.1c-0.4,0.1-0.8,0.3-1.1,0.6c-0.3,0.3-0.6,0.6-0.7,1C29.1,36.1,29,36.6,29,37
					s0.1,0.8,0.3,1.2c0.2,0.4,0.4,0.7,0.7,1c0.3,0.3,0.7,0.5,1.1,0.6s0.8,0.2,1.2,0.1h4.6c2.3,0,2.5,0.6,2.6,1.8
					c0.7,6.3,0.7,25.4,0.7,40.8c0,15.6,0,33.3-0.7,39.7c-0.1,1.3-0.3,1.8-2.6,1.8h-4.6c-0.4,0-0.8,0-1.2,0.1
					c-0.4,0.1-0.8,0.3-1.1,0.6c-0.3,0.3-0.6,0.6-0.7,1c-0.2,0.4-0.3,0.8-0.3,1.2c0,0.4,0.1,0.8,0.3,1.2c0.2,0.4,0.4,0.7,0.7,1
					c0.3,0.3,0.7,0.5,1.1,0.6s0.8,0.2,1.2,0.1c2,0,3.6-0.1,5.2-0.1c1.9-0.1,3.8-0.2,6.6-0.2s4.7,0.1,6.6,0.2
					c1.7,0.1,3.2,0.1,5.2,0.1c0.4,0,0.8,0,1.2-0.1s0.8-0.3,1.1-0.6s0.6-0.6,0.7-1c0.2-0.4,0.3-0.8,0.3-1.2c0-0.4-0.1-0.8-0.3-1.2
					c-0.2-0.4-0.4-0.7-0.7-1s-0.7-0.5-1.1-0.6c-0.4-0.1-0.8-0.2-1.2-0.1h-4.6c-2.3,0-2.5-0.6-2.6-1.8c-0.7-6.4-0.7-24-0.7-39.7
					c0-6.5,0-13.6,0-20.1c5.5,20.9,14.3,58,17.6,73.4c0.5,2.5,2.1,3.4,3.3,3.4c1.6,0,3-1.4,3.5-3.5c3.8-17,12.3-55,17-73
					c0.2,6.4,0.2,14.1,0.1,21.7c0,2,0,4,0,5.9c0,21.7-0.3,34.8-0.8,39.9c-0.2,1.4-0.3,1.8-2.5,1.8h-4.6c-0.4,0-0.8,0-1.2,0.1
					c-0.4,0.1-0.8,0.3-1.1,0.6c-0.3,0.3-0.6,0.6-0.7,1c-0.2,0.4-0.3,0.8-0.3,1.2s0.1,0.8,0.3,1.2c0.2,0.4,0.4,0.7,0.7,1
					c0.3,0.3,0.7,0.5,1.1,0.6s0.8,0.2,1.2,0.1c2,0,4.5-0.1,7.2-0.1c3-0.1,6.1-0.2,8.9-0.2s5.9,0.1,8.9,0.2c2.7,0.1,5.2,0.1,7.2,0.1
					c2.4,0,3.4-1.6,3.4-3s-1.1-3-3.4-3H109c-2.2,0-2.3-0.4-2.5-1.8c-0.6-5.1-0.8-18.2-0.8-39.9s0.3-34.9,0.8-40.1
					c0.2-1.4,0.3-1.8,2.5-1.8h4.6c0.4,0,0.8,0,1.2-0.1c0.4-0.1,0.8-0.3,1.1-0.6c0.3-0.3,0.6-0.6,0.7-1c0.2-0.4,0.3-0.8,0.3-1.2
					s-0.1-0.8-0.3-1.2c-0.2-0.4-0.4-0.7-0.7-1c-0.3-0.3-0.7-0.5-1.1-0.6s-0.8-0.2-1.2-0.1c-2,0-4.2,0.1-6.5,0.1
					c-2.6,0.1-5.3,0.2-8.1,0.2c-1.5,0-2.9-0.1-4.4-0.1c-1.5-0.1-3.1-0.2-4.7-0.2c-3.5,0-4.4,2.3-4.8,4.3
					C82.8,58.4,77.6,81.9,73.3,99c-4.5-18.5-11.1-48.8-13.6-61C59.1,35.2,57.7,34,54.9,34L54.9,34z"/>
			</g>
		</g>
	</g>
</g>
</svg>
