<?xml version="1.0" encoding="utf-8"?>
<!-- Generator: Adobe Illustrator 25.4.1, SVG Export Plug-In . SVG Version: 6.00 Build 0)  -->
<svg version="1.2" baseProfile="tiny-ps" id="Layer_1" xmlns="http://www.w3.org/2000/svg" xmlns:xlink="http://www.w3.org/1999/xlink"
	 viewBox="0 0 200 200" xml:space="preserve">
    <title>Aladdins Gold Casino</title>
<g id="AGC">
	<rect fill="#421852" width="200" height="200"/>
	<g id="Group_10">
		<g>
			<path fill="#D7A000" d="M125.6,173.3c-20.3,0-35.4-4.9-44.9-14.6c-7.6-7.6-11.6-18.5-11.4-31.2c0.2-23.9,16.2-34.5,16.4-34.6
				c10.1-8.6,20.9-10.2,36-10.2c0.8,0,1.4,0,2.2,0c2.1-0.2,4.3-0.2,6.5-0.2c13.7,0,26.5,2.9,26.6,2.9c0.5,0,0.9,0.1,1.4,0.1
				c1.4,0.1,3.5,0.1,4.1,0.8c0.6,0.6,0.4,2.3,0.1,3.3v0.1v0.1c0,0-0.2,4.9-0.2,13.6c0,1.4,0,2.6,0,3.7c0,3.5,0,5.3-0.3,5.7
				c0,0-0.1,0.1-0.4,0.1c-0.3,0-0.3,0-0.3,0c0-0.1,0-0.3,0-0.6c0-0.6,0.1-1.5-0.5-2.5c-0.3-0.5-0.6-0.8-0.9-1.1
				c-0.6-0.6-1-1-1.6-5.6c-0.9-5.6-13.7-14.2-29-14.2c-5.1,0-10.1,1-15,2.8c-6.8,2.6-11.7,7.5-14.6,14.6
				c-5.5,13.5-2.1,30.5,1.5,38.8c4.3,9.6,8.9,12.4,12.5,14.6c1.4,0.9,2.8,1.7,3.9,2.8c1.1,1.2,1.4,1.9,1.6,2.4
				c0.6,1.3,0.8,1.3,5.1,1.5l2,0.1c0.8,0,1.4,0.1,2,0.1c7.4,0,8.1-2.6,8.2-2.9c0-0.1,0-1.5,0.1-3.9c0-2.3,0-15,0-21.5
				c0-6.3-1.8-6.8-6.4-7.8c-1.3-0.3-2.9-0.7-4.7-1.3h-0.1h-0.3c-0.7,0-1.2-0.2-1.4-0.3c0.3-0.2,1.3-0.6,4.3-0.7
				c7.3,0,37.5-1.2,40.9-1.7c1-0.2,2.2-0.3,3.4-0.3s1.7,0.1,2,0.2c-0.3,0.2-1,0.6-2.8,1.3c-8.9,2.4-8.8,7.5-8.7,10.5
				c0,0.5,0,1,0,1.4c-0.1,2-0.2,11.9-0.2,19c0,3,0,5.5,0,6.8c0,3.5-1.4,3.7-4,4.2c-0.4,0.1-0.9,0.2-1.3,0.3h-0.1
				c-3.3,0.7-13.1,2.9-30.4,3.8C126.4,173.3,126,173.3,125.6,173.3z"/>
			<path fill="#BB8727" d="M130.4,83c13.7,0,26.4,2.8,26.5,2.9h0.1h0.1c0.4,0,0.9,0.1,1.4,0.1c1.2,0,3.3,0.1,3.7,0.6
				c0.3,0.4,0.3,1.8,0,2.9v0.1v0.1c0,0.1-0.2,4.9-0.2,13.6c0,1.4,0,2.6,0,3.7c0,1.9,0,3.5,0,4.4c0-0.6-0.2-1.3-0.6-2
				c-0.4-0.6-0.7-0.9-0.9-1.2c-0.5-0.5-0.9-0.9-1.5-5.4c-0.9-5.7-13.9-14.6-29.5-14.6c-5.2,0-10.3,1-15.2,2.8
				c-7,2.7-11.9,7.6-14.9,14.9c-5.6,13.6-2.1,30.9,1.5,39.1c4.3,9.8,9,12.6,12.7,14.8c1.4,0.9,2.7,1.6,3.8,2.7
				c1.1,1.2,1.4,1.8,1.6,2.3c0.7,1.5,1.2,1.5,5.5,1.7c0.6,0,1.3,0.1,2,0.1c0.7,0,1.4,0.1,2,0.1c7.6,0,8.6-2.7,8.7-3.3v-0.1v-0.1
				c0,0,0-1.5,0-3.9s0.1-15,0-21.5c0-6.4-1.7-7.1-6.8-8.3c-1.3-0.3-2.7-0.7-4.3-1.2c0.6-0.1,1.3-0.1,2.1-0.1c7.5,0,37.5-1.2,41-1.7
				c1-0.2,2.2-0.3,3.3-0.3c0.2,0,0.3,0,0.4,0c-0.4,0.2-0.8,0.3-1.4,0.5c-9.3,2.5-9.2,7.8-9.1,11c0,0.5,0,1,0,1.3
				c-0.1,2-0.2,11.9-0.2,19.1c0,3,0,5.4,0,6.8c0,3.1-1.1,3.3-3.6,3.7c-0.4,0.1-0.9,0.2-1.4,0.3h-0.1c-3.2,0.7-13,2.9-30.3,3.8
				c-0.4,0-0.8,0-1.3,0c-20.1,0-35.2-4.8-44.6-14.4c-7.5-7.4-11.4-18.1-11.3-30.7c0.1-12.3,4.5-21,8.2-26c4-5.5,8-8.1,8-8.2H86l0,0
				c10-8.5,20.6-10.1,35.7-10.1c0.8,0,1.4,0,2.2,0l0,0l0,0C126,83,128.1,83,130.4,83 M130.4,82c-2.1,0-4.3,0.1-6.5,0.2
				c-0.8,0-1.5,0-2.2,0c-14.6,0-25.9,1.5-36.3,10.3c0,0-16.4,10.6-16.6,35c-0.3,24.2,13.9,46.3,56.9,46.3c0.4,0,0.8,0,1.3,0
				c17.7-1,27.5-3.1,30.7-3.9c3.2-0.7,5.6-0.4,5.6-4.9c0.1-4.4,0.1-23,0.3-25.8c0.2-2.8-1.6-8.7,8.4-11.4c5.1-1.8,3.3-2.4,0.6-2.4
				c-1.2,0-2.4,0.1-3.5,0.3c-3.3,0.6-33.1,1.7-40.8,1.7c-6.6,0.2-5.2,1.9-3,1.9c0.1,0,0.1,0,0.2,0c8.3,2.6,10.8,1,10.8,8.7
				c0,6.5,0,19.2,0,21.5s0,3.9,0,3.9s-0.5,2.5-7.7,2.5c-0.6,0-1.3,0-2-0.1c-9.2-0.5-4.8,0.1-8.5-3.9c-3.7-4-10.2-3.9-16.2-17.3
				c-6-13.4-9.1-44.2,12.8-52.7c5.1-1.9,10.1-2.8,14.9-2.8c15.6,0,27.8,8.8,28.6,13.8c1,6.5,1.4,5,2.5,6.9c1.2,1.8-0.3,3.3,1.2,3.4
				c0,0,0,0,0.1,0c1.4,0,1.2-1.3,1.2-10c0-8.8,0.2-13.6,0.2-13.6s0.7-2.7-0.2-3.8c-1-1-4-0.9-5.7-1C157.1,84.9,144.4,82,130.4,82
				L130.4,82z"/>
		</g>
		<g id="Vector_4702">
			<path fill="#DEDEDE" d="M126.5,119.1c0-0.1-0.2-0.1-0.5-0.2c-1.9-0.3-3.6-1-5.2-2.2c-3.1-2.7-8.1-11.2-8.3-11.6l-10.2-19.8
				C102.4,85,89.8,58.7,87.1,53c-2.4-5-6.4-16.8-8.1-21.8c-0.3-0.8-0.5-1.5-0.7-1.9c-0.5-1.3-0.8-1.6-0.9-1.6c-0.7,0-2.3,1.6-3,2.3
				c-0.5,0.5-0.8,0.8-1.2,1.1c-2,1.9-2.1,2-3.2,6.5c-2.5,8.8-8.8,21.9-12.6,29.7c-1.6,3.4-2.8,6-3.1,6.8c-0.7,2-5.9,11.4-11.6,21.3
				c-0.9,1.7-1.6,2.9-1.9,3.4c-0.8,1.6-10.9,17.6-11.8,18.4c-0.1,0.1-0.2,0.2-0.4,0.4c-1.3,1.2-1.8,1.8-1.9,2.1
				c0.1,0.1,0.3,0.1,0.7,0.1c0.1,0,0.2,0,0.4,0c0.4,0,0.8,0,1.3,0c2.5,0,5.1,0.5,7.5,0.8c1.1,0.2,2.3,0.4,3.4,0.6c0,0,0,0-0.1-0.1
				c0.5,0,0.8-1.3,0.9-2.4c0.2-1.1,0.5-2.4,1-3.4c0.8-1.3,2.4-5.2,4.1-9.2c1.5-3.6,3.1-7.2,4.3-9.9c2.3-4.8,6.1-5.3,7.7-5.3
				c0.3,0,0.6,0,0.7,0c1.7-0.2,24.4-2.1,27.4-2.1c3.5,0,4.2,1.7,4.3,1.9l5,10.2c8.7,16.5,7.7,17.6,7.4,18c-0.3,0.4-0.4,0.6-0.5,0.7
				c0.2,0.1,0.4,0.1,0.7,0.1c0.6,0,2,0,3.5,0c3.1,0,6.9,0,6.9,0c1.1,0,11.2,0,12.5,0.4c0.1,0,0.2,0,0.3,0c0.1,0,0.2,0,0.3-0.5v-0.2
				C126.5,119.3,126.6,119.2,126.5,119.1z M87.1,85.3c-0.1,0-7.4,0.1-14.2,0.2c-0.8,0-1.6,0-2.4,0c-6.2,0-12.9-0.2-13-0.2h-0.8
				l0.3-0.8c0.5-2.3,1.2-4.4,2.1-6.5c0.1-0.3,11.4-26.5,12.7-27H72h0.3c1.9,0.4,3.7,5.5,4.5,8.4l11.4,26H87.1z"/>
			<path fill="#B9B8B8" d="M77.4,28.5L77.4,28.5L77.4,28.5 M77.3,28.6c0.1,0.2,0.3,0.5,0.5,1.1c0.2,0.4,0.4,1,0.7,1.9
				c1.7,5,5.8,16.8,8.1,21.9c2.6,5.7,15.2,32.1,15.3,32.4l10.2,19.8l0,0l0,0c0.2,0.4,5.2,8.9,8.5,11.8l0.1,0.1h0.1
				c1,0.8,2.2,1.3,3.4,1.7c-3.1-0.2-8.5-0.2-10.4-0.2l0,0c0,0-3.8,0-6.9,0c-1.2,0-2.2,0-2.8,0c0.4-1.1-0.2-4.2-7.6-18.2l-5-10.2l0,0
				c-0.3-0.5-1.3-2.3-5-2.3c-3,0-25.2,1.9-27.4,2.1c-0.2,0-0.4,0-0.7,0c-1.7,0-5.9,0.6-8.4,5.6c-1.2,2.6-2.8,6.3-4.3,9.9
				c-1.7,4-3.4,7.9-4,9.1c-0.7,1.1-0.9,2.4-1.1,3.6c-0.1,0.6-0.3,1.3-0.5,1.7c-1-0.1-2.1-0.3-3.2-0.5c-2.4-0.4-5.1-0.8-7.6-0.8
				c-0.3,0-0.7,0-0.9,0c0.3-0.3,0.6-0.6,0.9-0.8c0.2-0.2,0.3-0.3,0.4-0.4c0.9-0.9,11-16.9,11.9-18.6c0.2-0.5,0.9-1.7,1.9-3.4
				c5.4-9.3,11-19.5,11.7-21.5c0.2-0.8,1.6-3.5,3.1-6.7c3.8-7.8,10.1-21,12.6-29.9l0,0l0,0c1-4.3,1.1-4.3,3-6.1
				c0.4-0.3,0.8-0.8,1.2-1.1C76.2,29.3,76.9,28.7,77.3,28.6 M70.6,86.3c0.8,0,1.6,0,2.4,0c6.8-0.1,14.1-0.2,14.2-0.2h2.1l-0.8-2
				L77.4,59.2c-2.4-8.1-4.3-8.7-5.2-8.8l0,0h-0.2H72h-0.2l-0.2,0.1c-0.8,0.3-1,0.4-6.7,12.7c-2.6,5.8-5.6,12.7-6.5,14.7
				c-0.8,2.2-1.6,4.3-2.2,6.6l-0.4,1.7l1.7,0.1C57.7,86.1,64.4,86.3,70.6,86.3 M77.4,27.1c-0.8,0-1.8,0.8-3.5,2.4
				c-3.3,3.1-3.3,2.4-4.6,7.9c-3.7,12.6-15,33.8-15.8,36.5c-0.8,2.7-12.3,22.6-13.4,24.6c-1.1,2.1-10.9,17.6-11.7,18.2
				c-0.7,0.7-4.5,3.7-1.1,3.7c0.1,0,0.3,0,0.5,0c0.5,0,0.8,0,1.3,0c3.7,0,7.3,0.9,10.8,1.4c0.1,0,0.2,0,0.2,0c1.7,0,1.3-3.7,2.6-6
				c1.3-2.4,5.8-13.5,8.5-19.1c2.1-4.4,5.6-4.9,7.1-4.9c0.4,0,0.7,0,0.7,0s24.3-2.1,27.4-2.1s3.7,1.5,3.7,1.5l5,10.2
				c0,0,8.6,16,7.5,17.1s-1.1,1.8,0.7,1.9c0.7,0,2,0,3.5,0c3.1,0,6.9,0,6.9,0s11.1,0,12.3,0.3c0.2,0,0.3,0.1,0.5,0.1
				c0.8,0,0.9-0.8,0.9-1.2c0.1-0.4,0.1-1.1-1-1.3c-1.7-0.4-3.4-1-4.8-2.1c-3.1-2.7-8.2-11.4-8.2-11.4l-10.1-19.7
				c0,0-12.7-26.5-15.3-32.4S80.1,32.2,79,29.3C78.6,27.8,78.1,27.1,77.4,27.1L77.4,27.1z M70.6,84.8c-6.3,0-13-0.2-13-0.2
				c0.6-2.2,1.2-4.3,2.1-6.4c1.5-3.8,11.6-26.3,12.3-26.5h0.1h0.2h-0.2l0,0c1.7,0.1,4,7.9,4,7.9l11,24.9c0,0-7.3,0.1-14.2,0.2
				C72.2,84.8,71.4,84.8,70.6,84.8L70.6,84.8z"/>
			<path fill="#FFFFFF" d="M77.4,28c0,0,0.3,0.2,0.8,1.5c0.2,0.4,0.4,1,0.7,1.9c1.7,5,5.8,16.8,8.1,21.8
				c2.6,5.7,15.2,32.1,15.3,32.4l10.2,19.8l0,0l0,0c0.2,0.4,5.2,8.8,8.4,11.7l0,0l0,0c1.6,1.1,3.3,1.9,5.2,2.2
				c0.2,0,0.3,0.1,0.3,0.1l0,0c0,0,0,0,0,0.1c0,0,0,0.1,0,0.2c0,0.1,0,0.2-0.1,0.3c0,0-0.1,0-0.2,0c-1.3-0.4-10.6-0.4-12.5-0.4l0,0
				c0,0-3.8,0-6.9,0c-1.8,0-2.9,0-3.5,0c-0.1,0-0.2,0-0.2,0c0.1-0.1,0.1-0.2,0.2-0.3c0.5-0.6,1-1.2-3.3-10.1c-2-4.1-4.1-8.1-4.1-8.2
				L90.9,91c-0.2-0.4-1.1-2.1-4.5-2.1c-3,0-25.5,1.9-27.4,2.1c-0.1,0-0.4,0-0.7,0c-1.6,0-5.6,0.6-7.9,5.4c-1.2,2.6-2.8,6.3-4.3,9.9
				c-1.8,4-3.4,7.9-4,9.1c-0.6,1-0.8,2.4-1.1,3.5c-0.2,0.8-0.4,2-0.7,2.2c0,0,0,0-0.1,0c-1.1-0.2-2.2-0.4-3.4-0.6
				c-2.4-0.4-5-0.8-7.6-0.8c-0.5,0-0.9,0-1.4,0c-0.1,0-0.3,0-0.4,0s-0.2,0-0.3,0c0.2-0.3,0.7-0.8,1.7-1.7c0.2-0.2,0.3-0.3,0.4-0.4
				c0.8-0.8,11-16.9,11.8-18.4c0.2-0.5,0.9-1.7,1.9-3.4c5.6-10,10.9-19.5,11.6-21.4c0.3-0.8,1.5-3.4,3.1-6.8
				c3.8-7.8,10.1-20.9,12.6-29.8c1.1-4.4,1.1-4.5,3.1-6.3c0.4-0.3,0.8-0.7,1.2-1.1C75.1,29.6,76.9,28,77.4,28L77.4,28 M70.6,85.8
				c0.8,0,1.6,0,2.4,0c6.8-0.1,14.1-0.2,14.2-0.2h1.4L88,84.3l-11-25c-1.1-3.8-2.8-8.2-4.7-8.6l0,0h-0.2H72h-0.2h-0.1
				c-0.6,0.2-0.8,0.3-6.4,12.4c-2.6,5.8-5.6,12.6-6.5,14.7s-1.6,4.3-2.1,6.5l-0.3,1.1h1.1C57.7,85.6,64.4,85.8,70.6,85.8 M77.4,27.1
				c-0.8,0-1.8,0.8-3.5,2.4c-3.3,3.1-3.3,2.4-4.6,7.9c-3.7,12.6-15,33.8-15.8,36.5c-0.8,2.7-12.3,22.6-13.4,24.6
				c-1.1,2.1-10.9,17.6-11.7,18.2c-0.7,0.7-4.5,3.7-1.1,3.7c0.1,0,0.3,0,0.5,0c0.5,0,0.8,0,1.3,0c3.7,0,7.3,0.9,10.8,1.4
				c0.1,0,0.2,0,0.2,0c1.7,0,1.3-3.7,2.6-6c1.3-2.4,5.8-13.5,8.5-19.1c2.1-4.4,5.6-4.9,7.1-4.9c0.4,0,0.7,0,0.7,0s24.3-2.1,27.4-2.1
				s3.7,1.5,3.7,1.5l5,10.2c0,0,8.6,16,7.5,17.1s-1.1,1.8,0.7,1.9c0.7,0,2,0,3.5,0c3.1,0,6.9,0,6.9,0s11.1,0,12.3,0.3
				c0.2,0,0.3,0.1,0.5,0.1c0.8,0,0.9-0.8,0.9-1.2c0.1-0.4,0.1-1.1-1-1.3c-1.7-0.4-3.4-1-4.8-2.1c-3.1-2.7-8.2-11.4-8.2-11.4
				l-10.1-19.7c0,0-12.7-26.5-15.3-32.4S80.1,32.2,79,29.3C78.6,27.8,78.1,27.1,77.4,27.1L77.4,27.1z M70.6,84.8
				c-6.3,0-13-0.2-13-0.2c0.6-2.2,1.2-4.3,2.1-6.4c1.5-3.8,11.6-26.3,12.3-26.5h0.1h0.2h-0.2l0,0c1.7,0.1,4,7.9,4,7.9l11,24.9
				c0,0-7.3,0.1-14.2,0.2C72.2,84.8,71.4,84.8,70.6,84.8L70.6,84.8z"/>
		</g>
	</g>
</g>
</svg>
