<?xml version="1.0" encoding="UTF-8" standalone="yes"?>
<svg version="1.2" baseProfile="tiny-ps" viewBox="0 0 1000 1000" xml:space="preserve" xmlns="http://www.w3.org/2000/svg">
  <title>SPORTFIVE Global Holding GmbH</title>
  <g>
    <rect x="75.8" y="76.3" fill="#FFFFFF" width="848.3" height="847.4"/>
    <g>
      <path d="M334.5,161.6c21.9,0,43.8,0,65.7,0c1.9,0,2.8,0.2,3.4,2.6c4.7,17.4,9.7,34.8,14.7,52.2c3.7,13,7.6,26,11.4,39&#xA;&#x9;&#x9;&#x9;c5.8,19.9,11.2,39.9,17.3,59.8c3,9.9,5.3,20,8.4,29.9c2.1,6.6,3.9,13.2,5.7,19.8c8.1,28.3,16.2,56.7,24.3,85&#xA;&#x9;&#x9;&#x9;c4.2,14.5,8.5,29,12.8,43.5c0.5,1.6,0.7,4.1,2.3,4.1c1.9,0,1-2.5,1.4-3.9c6.6-22.6,13.2-45.1,19.7-67.7&#xA;&#x9;&#x9;&#x9;c5.9-20.5,11.6-41,17.3-61.4c3.2-11.3,6.3-22.7,9.6-34c2.8-9.8,5.9-19.6,8.9-29.4c4.8-15.7,9.1-31.5,13.7-47.3&#xA;&#x9;&#x9;&#x9;c4.5-15.6,9-31.1,13.5-46.7c4.1-14.5,8.2-29.1,12.2-43.7c0.3-1.1,0.8-1.7,1.9-1.7c0.8,0,1.7,0,2.5,0c43.3,0,86.6,0,130-0.1&#xA;&#x9;&#x9;&#x9;c3.4,0,3.9,0.7,2.9,3.8c-6.3,18.8-12.4,37.6-18.6,56.4c-7.5,22.8-15,45.6-22.5,68.5c-7.1,21.6-14.1,43.1-21.1,64.7&#xA;&#x9;&#x9;&#x9;c-9.7,29.8-19.5,59.5-29.2,89.3c-7.7,23.4-15.4,46.8-23,70.2c-2.8,8.5-5.3,17.2-8.1,25.7c-3.5,10.2-7.1,20.4-10.3,30.7&#xA;&#x9;&#x9;&#x9;c-2,6.5-4.1,12.9-6,19.4c-1.1,3.6-2.8,7.3-4,10.9c-3.6,11.1-7.2,22.2-10.8,33.2c-0.8,2.5-1.4,5.2-2.3,7.6c-1,2.8-4.3,2.6-6.9,2.4&#xA;&#x9;&#x9;&#x9;c-1-0.1-2.1-0.3-3.1-0.3c-46.9,0-93.8,0-140.7,0.1c-3.3,0-4.6-1.1-5.6-4.1c-5-15.9-10.1-31.7-15.3-47.5&#xA;&#x9;&#x9;&#x9;c-5.8-17.8-11.7-35.5-17.6-53.2c-6.6-19.8-13.3-39.6-19.8-59.5c-5-15.2-9.7-30.5-14.7-45.8c-5.9-18.1-11.8-36.2-17.8-54.2&#xA;&#x9;&#x9;&#x9;c-6.6-20-13.2-40-19.8-60c-4.7-14.4-9.1-28.8-14-43.1c-3.9-11.3-7.7-22.6-11.4-34c-4.9-14.9-9.7-29.9-14.6-44.8&#xA;&#x9;&#x9;&#x9;c-3.6-11-7-22.1-10.9-33c-1.1-3.2-0.2-3.3,2.4-3.3C290.4,161.6,312.5,161.6,334.5,161.6z"/>
      <path fill="#F40008" d="M501,708.5c60.1,0,120.2,0,180.3-0.1c2.5,0,3.4,0.4,3.5,3.2c0.7,39.8,0.3,79.5,0.3,119.3&#xA;&#x9;&#x9;&#x9;c0,7.5-0.1,7.5-7.7,7.5c-118.8,0-237.5,0-356.3,0c-1.1,0-2.2,0.2-3.2-0.2c-1.2-0.5-2.7-0.5-2.1-3.2c0.9-3.7,0.3-7.8,0.3-11.7&#xA;&#x9;&#x9;&#x9;c-0.1-35.7-0.1-71.4-0.2-107.2c0-0.8,0-1.7-0.1-2.5c-0.4-4,0.6-5.2,4.6-5.2c24.3-0.1,48.6-0.1,72.8-0.1c35.9,0,71.9,0,107.8,0&#xA;&#x9;&#x9;&#x9;C501,708.4,501,708.5,501,708.5z"/>
    </g>
  </g>
</svg>