<?xml version="1.0"?><svg version="1.2" baseProfile="tiny-ps" viewBox="0 0 300 300" xmlns="http://www.w3.org/2000/svg" xmlns:xlink="http://www.w3.org/1999/xlink"><title>Concepts2code</title><g><g fill="#feffff" transform="matrix(.1 0 0 -.1 0 300)"><path d="M0 1500V0h3000v3000H0V1500z"/></g><g fill="#c5dcec" transform="matrix(.1 0 0 -.1 0 300)"><path d="M2656 2894c-9-8-16-19-16-24 0-8 28-40 35-40 2 0 10 3 19 6l16 6v22c0 21-17 46-31 46-4 0-15-7-23-16zm-436-69-12-15 6-25 6-25 25-6 25-6 15 12 15 12v22c0 28-18 46-46 46h-22l-12-15zm270-9-12-16 6-15c3-9 13-18 22-22l16-6 16 17 17 16-11 18c-6 9-18 18-26 20l-15 3-13-15zm-590-184-35-17-19-38-19-39 12-38 11-39 31-25 31-26h90l34 34 34 34v83l-15 28-14 28-35 17c-43 20-63 20-106-2zm465 0-41-19-27-32-26-32-11-37c-12-46-12-58 1-105l10-38 30-34 30-34 44-17 45-17 45 5 45 6 39 25 39 26 21 43 21 44v88l-21 44-21 43-40 26-39 26-52 4-52 4-40-19zm321-18c-9-8-16-24-16-35v-19l20-20c11-11 27-20 35-20s24 9 35 20l20 20v19c0 11-7 27-16 35l-15 16h-48l-15-16zm-1062-138c-3-9-3-23 0-32l6-15 22 3 23 3v50l-23 3-22 3-6-15zm-400-66c-44-10-91-46-111-83l-17-32-6-49-5-48-93-24-93-23-102-49-102-49-83-62-82-63-57-64c-171-193-259-403-279-660l-6-89 12-95c32-245 125-442 293-617l78-81 74-51c95-66 217-124 328-156l88-25 100-9 99-9 99 9 100 9 88 25c224 65 425 201 564 384l50 66 54 110 54 110 21 81c11 45 25 116 29 159l9 78 14 8c7 5 22 9 34 9 51 0 127 80 140 147l6 34-12 44-12 44-36 35-35 36-36 10c-49 14-76 13-118-5l-35-15h-99l-27 14c-64 33-102 96-102 167v40l16 32c9 18 25 42 37 54l20 22 48 16 47 16 45 40 45 39 23 48 23 47v65l-1 65-15 36c-9 19-30 52-48 73l-33 37-51 26-51 27-65-1h-65l-37-17c-82-36-140-107-159-197l-12-54-19-28-20-27-38-20-39-20h-92l-39 20-40 20-26 40-27 41v47c0 26 4 68 8 93l7 47-11 35-12 36-39 35-39 35-38 10c-42 12-45 12-89 1zm266-549 66-21 46-30c56-37 94-85 121-154l21-51v-110l1-110-18-53-19-52-44-59-44-59-102-84c-56-45-134-111-174-145l-72-62-31-47-31-47 6-8 5-9h509V490H870v248l20 64 20 64 38 60c54 82 104 132 274 272l147 122 28 47 27 47 1 57v57l-21 29-20 28-40 20-39 20-100-1c-87-1-148-8-257-30l-28-6v262l26 6c14 4 65 13 112 20l87 13 140-3 140-4 65-21zm1197 398-15-20 5-20c3-11 15-24 26-30l20-11 22 10 22 10 6 21 5 20-15 20-14 21h-48l-14-21zm-1113-29c-11-4-33-22-47-40l-27-32v-69l14-28c8-15 26-35 40-45l25-16h72l29 15 30 15 15 30c30 59 14 118-44 157l-34 23-26-1c-14 0-35-4-47-9zm924-126-28-15-15-29c-19-37-19-83 0-119l14-28 37-18 37-17 35 6 36 5 28 29 29 28 5 36 6 35-16 35-16 34-29 17-29 17h-34l-33-1-27-15zm-95-331-13-5v-49l27 3 28 3 3 17 3 17-18 9c-10 5-24 7-30 5zm-272-45c-13-7-33-25-43-39l-19-25-1-41v-40l11-22c7-12 27-31 44-41l32-20h62l34 23 34 23 13 38 13 39-11 32c-6 18-21 42-35 55l-24 22-43 5-43 4-24-13z"/></g><g fill="#87b2d5" transform="matrix(.1 0 0 -.1 0 300)"><path d="M2654 2886c-3-9-3-23 0-32l6-15 22 3 23 3v50l-23 3-22 3-6-15zm-428-62c-20-20-20-27 3-55l19-23 26 12 26 12v23c0 44-43 62-74 31zm266-11c-5-10-7-24-5-30l5-13h49l-3 27-3 28-17 3-17 3-9-18zm-562-170c-8-2-26-10-38-16l-24-11-14-28-14-27v-81l28-30 27-31 41-6 41-5 31 16 32 16 15 30 15 29v68l-22 28-21 27-33 14c-35 15-40 15-64 7zm455-5c-16-6-42-20-58-30l-27-20-20-38-20-39v-107l29-45 28-45 36-17c19-10 48-20 64-23l29-6 42 11 41 12 32 26 32 27 18 41 19 40v70l-19 40-18 41-32 27-32 26-37 11c-45 12-68 12-107-2zm299-33-16-24 7-20 6-21 24-6c13-3 33-3 44 1l20 6 6 20 7 20-16 24-16 25h-50l-16-25zm-1060-129c-3-9-3-23 0-32l6-15 22 3 23 3v50l-23 3-22 3-6-15zm-439-85c-64-39-95-92-95-159v-37l-88-21c-232-56-444-197-594-394l-50-65-54-110-53-110-21-80c-11-45-24-123-29-175l-9-95 9-95c10-113 36-221 80-325l32-77 59-90 59-90 79-79 78-78 87-57c102-66 206-113 325-144l85-22 121-5 122-6 83 13c228 33 439 139 604 305l71 70 57 87c67 101 117 210 147 323l21 80 6 81 6 82 43 5 44 5 35 26c39 30 59 63 69 115l6 34-10 38-11 38-25 31c-15 17-40 38-56 46l-31 16h-41l-42 1-52-17-52-18-40 7-39 7-39 28-39 28-16 35-17 35v103l14 27c21 40 65 77 116 95 25 9 62 30 82 47l36 30 26 52 26 52v132l-26 52-26 52-31 26c-18 15-50 35-72 45l-40 19h-133l-53-28-54-28-32-42-32-43-10-37c-6-20-13-49-16-64-7-34-49-84-88-105l-32-16h-100l-30 16c-40 20-71 55-90 99-18 44-19 73-4 130l11 43-11 42-12 42-26 32-27 32-33 13-32 14h-96l-30-19zm258-516 67-14 53-26c28-15 69-42 89-62l36-35 29-62 28-61v-250l-31-65-31-65-43-48c-23-26-90-87-149-134-166-135-271-242-271-277 0-3 116-7 258-8l257-3V495l-432-3-433-2v256l16 55c35 119 111 215 276 350 56 46 131 110 165 142l62 59 15 33 16 33v107l-13 25-12 25-45 23-44 22h-204l-79-15c-43-8-84-15-90-15h-13v267l98 15 97 16 130 1 130 1 68-15zm1249 393c-28-28-7-78 33-78 27 0 45 18 45 45s-18 45-45 45c-12 0-26-5-33-12zm-1112-41-34-12-23-34-23-34v-24c0-14 7-39 15-57l15-32 29-17 29-17h71l35 31 35 31 6 32 7 33-15 36-15 35-24 15c-12 8-34 17-48 20l-25 5-35-11zm935-116c-11-5-30-20-43-34l-24-25-5-39-5-38 24-35 24-35 40-14 41-14 39 19 39 19 19 38 19 39-12 37-11 37-24 23-24 23-39 4-38 4-20-9zm-121-356c-8-20 4-35 27-35h19v50h-41l-5-15zm-261-30-32-13-15-31-16-30v-63l17-29 17-29 32-15c41-19 58-19 100 1l35 17 14 28c8 15 15 42 15 59v31l-16 30-15 31-34 14c-42 17-61 17-102-1z"/></g><g fill="#4687bf" transform="matrix(.1 0 0 -.1 0 300)"><path d="M2654 2886c-3-9-3-23 0-32l6-15 22 3 23 3v50l-23 3-22 3-6-15zm-424-60-12-15 4-23 3-23 23-3 23-4 15 12c18 16 18 35-2 54-19 20-38 20-54 2zm262-28 3-23h40l3 23 3 22h-52l3-22zm-618-192-34-34v-77l19-31 19-32 37-12 36-12 27 7c15 3 39 18 54 32l28 27 6 33 6 33-12 31c-7 16-24 39-38 49l-25 20h-89l-34-34zm481 16c-65-42-95-93-95-162 0-70 39-133 103-166l28-15 49-1h48l36 17c20 10 47 31 61 47l24 29 12 41 11 41-7 36c-10 52-31 87-71 118l-37 28-66 3-66 3-30-19zm343-3-18-10v-55l12-12c7-7 21-12 33-12s26 5 33 12l12 12v55l-19 11c-24 12-31 12-53-1zm-1074-144c-8-21 2-45 19-45 8 0 20 7 27 15l12 15-12 15c-7 8-19 15-27 15-7 0-16-7-19-15zm-429-81c-45-23-66-45-86-89l-19-40v-73l-37-7c-139-26-304-100-428-192l-80-59-63-69c-121-132-201-276-248-447l-25-93-6-126-6-126 13-84c16-112 53-226 106-330 55-106 104-173 194-265l70-72 75-52c42-28 114-69 161-91l85-40 97-26 97-26h330l97 26 97 26 85 40c47 22 119 62 159 90l74 51 80 83c122 125 196 245 249 404 30 87 53 207 54 271v42h27c15 0 46 9 70 21l43 21 25 42 25 43v95l-16 35-17 34-34 26-34 26-54 5-54 4-41-16c-22-9-55-16-73-16h-32l-40 19-41 18-27 32-26 32-11 41-11 40 11 50 12 50 34 33 33 33 38 13c21 6 55 23 75 36l36 25 24 36c34 52 48 97 48 156v51l-24 50-24 50-33 32c-19 17-54 41-79 52l-45 21h-110l-50-24-50-23-32-33c-38-39-61-83-72-143-13-73-56-118-133-138l-45-12-46 13-46 12-35 34-35 34-12 40-12 40 9 63 10 63-8 38c-5 21-18 52-30 68l-21 30-41 19-41 19h-80l-30-16zm263-520c81-18 134-45 192-100l48-45 21-49 22-50 8-70 9-70-9-71-9-72-24-54-25-54-58-61c-32-33-103-97-158-142-55-44-122-101-149-126-49-45-106-116-106-132v-8h520V490H860v93c0 50 5 121 10 157l10 65 36 74 36 74 67 69c36 38 127 119 201 181l134 112 30 42 30 43 4 58 4 59-16 31-16 32-33 17-32 17-86 4-85 4-109-17c-59-9-114-19-121-22l-14-5v271l8 5c10 6 188 34 252 39 71 7 219-3 288-19zm1238 390c-30-30-13-74 29-74s59 44 29 74c-8 9-22 16-29 16s-21-7-29-16zm-1134-47c-12-7-29-23-38-36l-17-23v-37c0-21 6-47 12-60 15-28 69-61 99-61 31 0 77 25 96 52l16 22v88l-34 34-34 34h-38l-39-1-23-12zm948-115-35-17-18-37-18-37 11-40 10-40 27-20 26-21h78l28 14 27 15 12 26c7 14 12 43 12 63v38l-16 23-17 23-33 14c-43 18-52 18-94-4zm-116-347-7-16 11-11 11-11 16 7 16 6-3 17-3 18-18 3-17 3-6-16zm-249-29c-16-7-39-23-50-36l-20-22v-100l33-29 32-29h92l34 34 34 34v82l-32 34-33 35-30 5-30 5-30-13z"/></g><g fill="#006ab7" transform="matrix(.1 0 0 -.1 0 300)"><path d="m2660 2884-13-15 16-17 17-16 17 16 16 17-13 15c-7 9-16 16-20 16s-13-7-20-16zm-425-58-18-13 7-26 6-27h49l9 18c12 21 5 39-17 52l-18 9-18-13zm259-21-7-16 11-11 11-11 16 7 16 6-3 17-3 18-18 3-17 3-6-16zm-600-184-31-19-12-31-13-31 6-33 6-34 23-21c12-11 34-25 49-31l28-10 37 12 36 12 21 28 20 27v69l-14 26-14 27-28 14c-15 8-40 14-55 14h-28l-31-19zm471 3c-45-23-66-45-86-89l-19-40v-33c0-37 23-97 48-125 9-11 34-28 54-38l37-19h94l41 24 41 24 23 40 22 40v104l-22 40-23 40-41 24-41 24h-98l-30-16zm327-16c-7-7-12-22-12-35v-23l26-12 26-12 16 11 17 10 3 22 4 22-12 15-12 14h-22c-12 0-27-5-34-12zm-1062-133-13-16 16-17 17-16 11 11 11 11-4 18c-4 24-22 28-38 9zm-417-76-33-10-33-33-34-34-11-44-11-44 5-21 6-21-57-12c-203-42-390-145-541-297l-73-73-46-70c-25-38-64-108-86-155l-40-86-25-97-25-97-5-110-6-110 16-100c18-122 44-203 99-315l41-85 58-76c103-136 229-241 385-318 124-61 239-92 394-106l76-6 102 11 103 11 84 25 85 24 82 41c45 23 109 60 142 82l60 40 85 86 86 86 42 65c94 143 152 303 174 475l11 93 37 6 37 6 33 22c45 31 69 66 76 110l6 37-6 36-7 35-32 37-32 36-32 13c-42 18-95 18-140-1l-35-15h-40c-101 0-185 85-187 190l-1 35 19 40 18 41 32 27c18 15 39 27 47 27 25 0 77 30 117 68l37 36 20 53c24 65 25 102 4 172l-16 53-48 48-48 48-53 16c-66 20-92 20-158 0l-53-16-48-47-47-47-16-49c-9-27-17-57-17-68v-20l-26-35-27-34-41-19-41-19h-80l-41 19-41 19-29 38-29 38v110c-1 146 0 140-41 186l-36 40-36 10c-44 12-66 12-109-1zm252-524c33-9 80-26 105-37l44-22 41-40 40-41 23-48 22-48 12-74 12-75-12-76-12-75-27-56-28-56-60-62c-33-33-107-99-165-145-126-101-202-175-224-218l-17-32h521V490H860v225l15 63c18 77 39 119 101 201l48 64 172 143 172 143 27 56 28 55-5 50-5 50-19 21c-10 12-32 28-49 38l-30 16-120-1-120-1-73-17c-40-9-78-16-83-16h-9v278l73 13c39 6 97 15 127 20l55 8 120-4 120-4 60-16zm1235 387-23-18 7-22 7-21 18-6c25-8 49 3 56 26 7 22 1 35-25 49l-18 10-22-18zm-1126-41c-12-5-31-22-43-37l-21-27v-72l20-32 19-32 35-10 36-9 36 9 35 10 19 32 20 32v75l-27 30-28 31-40 4-40 5-21-9zm920-129c-30-24-44-55-44-97v-37l34-34 34-34h84l34 34 34 34v74l-17 28c-20 34-52 50-101 50h-37l-21-18zm-93-336-11-13 15-13 16-13 11 11 11 11-6 15c-8 20-21 20-36 2zm-284-46-26-20-11-35-12-35 12-36 12-36 32-19 31-19h77l28 29 29 28 7 27 6 26-6 26-7 27-29 28-28 29h-89l-26-20z"/></g><g fill="#0553a6" transform="matrix(.1 0 0 -.1 0 300)"><path d="M2675 2870c0-33 6-37 25-15l12 15-12 15c-19 22-25 18-25-15zm-415-75v-35h10c5 0 14 8 19 18l9 18-9 17c-6 9-14 17-19 17h-10v-35zm250 0v-27l13 5 12 4v36l-12 5-13 4v-27zm-572-162 12-5v-208h23c12 0 33 7 46 16l23 17 14 33 14 33-6 28c-7 33-20 53-54 76l-24 17-31-1-30-1 13-5zm492-173-1-180h27c15 0 47 9 71 21l43 21 25 42 25 43v106l-25 43-25 42-43 21c-24 12-55 21-69 21h-26l-2-180zm291 115c3-50 2-49 30-35l19 11v22c0 26-17 47-37 47h-14l2-45zm-1074-110c3-14 10-25 15-25h9l-3 22c-2 12-8 23-14 25l-11 4 4-26zm-387-64c14-5 20-9 13-10l-12-1-3-245-3-246 35 2c43 2 149-16 213-35 67-20 130-60 171-108l36-41 22-56 22-56v-230l-22-55c-39-99-89-152-318-340-43-36-79-70-80-75 0-6-4-18-8-27l-8-17-14 6-14 5-1-11c-1-6-3-15-4-21-1-5-3-15-4-21l-1-10-10 6-10 6 6 11 7 11-11-7-11-7 6-14 5-15-18-1h-19l20-8 20-8-20-5c-11-3 96-6 238-7l257-1V490l-337-2c-186-1-294-4-240-5l98-4-3-195-3-195 95 4 95 5 85 21 85 22 100 48 100 48 80 60c181 135 317 330 379 547l26 89 12 92 11 93 37 6 37 6 33 22c45 31 69 66 76 110l6 37-6 36-7 35-32 37-32 36-32 13c-42 18-95 18-140-1l-35-15h-82l-44 21-43 21-26 39-25 39-6 45-5 45 17 45 17 44 35 31c19 16 41 30 50 30 28 0 90 39 127 79l36 40 15 52c20 66 20 92 0 158l-16 53-48 48-48 48-53 16c-65 20-93 20-152 2-58-17-101-48-138-98l-28-40-12-60-12-60-25-29c-13-17-42-39-63-49l-38-20h-92l-38 20c-21 10-50 33-64 50l-26 31-12 42-11 42 11 43c6 23 11 56 11 73v30l-19 37c-10 20-28 45-39 55l-21 19-12-8-12-7 7 11 7 12-8 1c-4 0-15 2-23 5-8 2-31 6-50 9l-35 5 25-9zm1462-171-3-40h10c14 0 41 29 41 44s-20 36-35 36h-11l-2-40zm-1111-109-2-111h56l21 18c30 24 44 55 44 96v36l-27 30-28 30-31 6-31 6-2-111zm940-113-2-102-12-8-12-8h77l34 34 34 34v84l-34 34-34 34h-50l-1-102zm-136-262v-23l13 5 13 5-3 15c-2 8-7 17-13 19l-10 3v-24zm-235-126v-110h52l28 29 29 28 7 27 6 26-6 26-7 27-29 28-28 29h-52v-110zm-981-7 63-4 15-15 14-14h-31v-268l25-16 25-17 6 15c3 7 5 20 3 27-1 8-1 20 0 27l1 12h35l-10-8c-5-4-11-16-12-27l-2-20 34 37 34 36 11 43 12 43-6 34c-3 19-12 45-21 59l-17 25-35 14-35 15-14-5-14-5v19l-72-2-73-2 64-3zm132-31c-7-2-18 1-23 6l-11 11 24-6 23-7-13-4zm-63-299c6-2 12-9 12-14v-10l-12 7-11 7 7-12 7-11 10 5c5 4 9 13 9 21v14l-17-1-18-1 13-5z"/></g></g></svg>