<?xml version="1.0" encoding="utf-8"?>
<!-- Generator: Adobe Illustrator 27.9.0, SVG Export Plug-In . SVG Version: 6.00 Build 0)  -->
<svg version="1.2" baseProfile="tiny-ps" id="Logomark" xmlns="http://www.w3.org/2000/svg" xmlns:xlink="http://www.w3.org/1999/xlink"
	 viewBox="0 0 96 96" xml:space="preserve">
	
<title>IATA</title>
<desc>IATA logo, it is bright blue on a white background, shows a globe with two wings, and the letters I A T and A in bold characters beneath it.</desc>

	
<rect fill="#FFFFFF" width="96" height="96"/>
<path fill="#1E32FA" d="M48.45,41.88c1.37-1.12,2.65-2.63,3.47-4.27c-1.12-0.36-2.3-0.61-3.47-0.61V41.88z M47.59,41.84
	c-1.43-1.09-2.69-2.59-3.5-4.23c1.12-0.4,2.3-0.61,3.5-0.61V41.84z M48.45,20.05c1.37,1.12,2.65,2.59,3.47,4.23
	c-1.12,0.4-2.3,0.65-3.47,0.65V20.05z M47.59,20.05c-1.43,1.12-2.69,2.63-3.5,4.23c1.12,0.36,2.3,0.65,3.5,0.65V20.05z M48.45,36.14
	v-4.78h5.18c0,1.92-0.48,3.79-1.3,5.52C51.13,36.47,49.7,36.16,48.45,36.14z M59.76,31.36h-5.22c-0.08,2.09-0.53,3.98-1.39,5.85
	c1.12,0.51,2.11,1.12,3.09,1.9C58.37,37.04,59.63,34.26,59.76,31.36z M55.61,39.67c-0.82-0.69-1.87-1.33-2.88-1.73
	c-0.93,1.69-2.09,3.1-3.54,4.36C51.53,42.03,53.74,41.15,55.61,39.67z M47.59,36.14v-4.78h-5.22c0.04,1.92,0.48,3.83,1.3,5.52
	C44.91,36.47,46.24,36.16,47.59,36.14z M36.24,31.36h5.22c0.11,2.09,0.55,3.94,1.43,5.85c-1.16,0.51-2.17,1.12-3.14,1.9
	C37.63,37.04,36.39,34.32,36.24,31.36z M40.39,39.67c0.86-0.65,1.87-1.37,2.88-1.73c0.93,1.69,2.09,3.1,3.54,4.36
	C44.45,42.03,42.22,41.15,40.39,39.67z M48.45,25.76v4.78h5.18c0-1.92-0.48-3.75-1.3-5.52C51.09,25.44,49.74,25.73,48.45,25.76z
	 M59.76,30.53h-5.22c-0.08-2.06-0.55-3.98-1.39-5.81c1.12-0.51,2.15-1.16,3.09-1.92C58.48,24.96,59.63,27.67,59.76,30.53z
	 M55.61,22.22c-0.86,0.72-1.87,1.37-2.88,1.77c-0.93-1.73-2.09-3.1-3.54-4.42C51.53,19.88,53.74,20.74,55.61,22.22z M47.59,25.76
	v4.78h-5.22c0.04-1.89,0.48-3.79,1.3-5.52C44.91,25.44,46.24,25.73,47.59,25.76z M36.24,30.53h5.22c0.11-2.09,0.55-3.94,1.43-5.81
	c-1.16-0.51-2.17-1.12-3.14-1.92C37.59,24.89,36.39,27.61,36.24,30.53z M40.39,22.22c0.86,0.72,1.83,1.37,2.88,1.77
	c0.9-1.69,2.13-3.14,3.54-4.42C44.45,19.88,42.24,20.74,40.39,22.22z M10.44,34.75H33.9c0.86,4.19,3.85,7.66,9.77,10.09
	c-0.67,1.98-2.99,3.83-5.37,3.83H25.58c-1.94,0-3.47-1.6-4.11-2.86h12.93c0.78-0.13,0.82-0.74,0.04-0.82H21.71
	c-1.64,0-3.14-1.37-4-2.86h14.82c0.74-0.11,0.74-0.72,0-0.84H17.63c-1.49,0-2.88-1.69-3.43-2.86h16.38c0.82-0.11,0.82-0.84,0-0.88
	H13.9C12.59,37.57,11.33,36.2,10.44,34.75z M85.56,34.75H62.1c-0.86,4.19-3.85,7.66-9.77,10.09c0.67,1.98,2.99,3.83,5.37,3.83h12.72
	c1.94,0,3.47-1.6,4.09-2.86H61.57c-0.78-0.13-0.82-0.74-0.04-0.82h12.72c1.64,0,3.12-1.37,3.98-2.86h-14.8
	c-0.74-0.11-0.74-0.72,0-0.84h14.93c1.49,0,2.86-1.69,3.43-2.86H65.42c-0.82-0.11-0.82-0.84,0-0.88H82.1
	C83.39,37.57,84.67,36.2,85.56,34.75z M59.11,66.48l7.52-14.89h4.93l3.1,14.89h-4.67l-0.23-1.77h-4.93l-0.78,1.77H59.11z
	 M66.08,61.61h3.16l-0.82-5.45L66.08,61.61z M49.34,66.48l1.71-11.2H46.7l0.74-3.77h13.39l-0.74,3.77h-4.13l-1.68,11.2H49.34z
	 M29.19,66.48l7.54-14.89h4.91l3.1,14.89h-4.63l-0.27-1.77h-4.91l-0.78,1.77H29.19z M36.18,61.61h3.16l-0.82-5.45L36.18,61.61z
	 M21.14,66.48l3.07-14.89h4.99l-3.05,14.89H21.14z"/>
</svg>
