<?xml version="1.0" encoding="utf-8"?>
<!-- Generator: Adobe Illustrator 26.0.1, SVG Export Plug-In . SVG Version: 6.00 Build 0)  -->
<svg version="1.2" baseProfile="tiny-ps" id="Layer_1" xmlns="http://www.w3.org/2000/svg" xmlns:xlink="http://www.w3.org/1999/xlink"
	viewBox="0 0 300 300" xml:space="preserve">
<title>DSP Mutual Fund</title>
<rect fill="#0F4066" width="300" height="300"/>
<g>
	<rect x="35" y="191.7" fill="#32BCAD" width="224.7" height="18.5"/>
	<g>
		<path fill="#FFFFFF" d="M40.3,173.2v-2.5h2.3c3.2,0,5.3-0.7,6.5-2s1.7-3.8,1.7-7.4v-58.1c0-2.6-0.2-4.4-0.5-5.5
			c-0.3-1-1-1.9-1.9-2.6c-1.5-1-3.4-1.5-5.8-1.5h-2.3V91h37.6c7,0,12.6,0.7,16.8,2.1c7.3,2.5,13.2,6.6,17.8,12.5
			c5.7,7.3,8.6,16.2,8.6,26.8c0,8.6-2,16.2-6,22.9c-4.3,7.3-11.1,12.4-20.2,15.4c-5.1,1.7-10.8,2.5-17.1,2.5L40.3,173.2L40.3,173.2z
			 M69,95.7v61c0,3.5,0.1,5.9,0.3,7.3c0.2,1.3,0.6,2.3,1.3,2.9c1.2,1.1,3.3,1.7,6.4,1.7c4.9,0,9-1.1,12.6-3.4
			c4.1-2.6,7.1-7,8.9-13.3c1.6-5.5,2.5-12,2.5-19.3c0-12.7-2.3-22.4-7-29.3c-3-4.4-7.5-6.9-13.5-7.3C78.6,95.7,74.8,95.7,69,95.7z"
			/>
		<path fill="#FFFFFF" d="M185.9,90v25.8H183c-1-5.4-3-9.8-6.2-13.2c-5-5.5-11.3-8.2-18.8-8.2c-4.6,0-8.3,1.1-11.3,3.3
			c-2.9,2.2-4.3,5-4.3,8.5c0,1.9,0.5,3.8,1.6,5.5c1,1.8,2.4,3.1,4.2,4.1s6.5,3,14.2,5.8c6.2,2.3,9.9,3.7,11.2,4.2
			c1.2,0.5,2.4,1.1,3.6,1.8c8.7,5.2,13,12.5,13,22c0,7.9-2.8,13.9-8.4,18.1c-5.9,4.5-12.9,6.7-21,6.7c-5.2,0-11.2-1.3-17.8-3.9
			c-2.2-0.8-3.8-1.3-4.9-1.3c-2.6,0-4.4,1.6-5.2,4.9h-3.2v-29.6h3.2c0.2,5.5,2.5,10.9,7.2,16.1c2.3,2.6,5.4,4.8,9.1,6.3
			c3.8,1.6,7.7,2.3,11.8,2.3c4.7,0,8.5-1.2,11.6-3.5c3-2.3,4.5-5.4,4.5-9.3c0-2.2-0.6-4.3-1.7-6.3c-1.2-2-2.7-3.6-4.6-4.7
			c-1.8-1.1-6.7-3.1-14.7-6.2c-6.8-2.6-11-4.3-12.5-5s-3.3-1.9-5.4-3.6c-2.5-2-4.4-4.5-5.8-7.6c-1.4-3.1-2.1-6.4-2.1-9.9
			c0-7,2.5-12.6,7.5-16.7c5.3-4.4,11.7-6.6,19.1-6.6c3,0,5.9,0.3,8.5,0.9s6.5,1.9,11.6,3.8c0.7,0.3,1.5,0.4,2.4,0.4
			c2.5,0,3.8-1.7,3.9-5L185.9,90L185.9,90z"/>
		<path fill="#FFFFFF" d="M224,135.7v25.5c0,2.6,0.2,4.4,0.5,5.4s0.9,1.9,1.9,2.5c1.5,1,3.5,1.5,5.8,1.5h4v2.5h-40.9v-2.5h2.2
			c3.1,0,5.3-0.7,6.5-2s1.8-3.8,1.8-7.4v-58.3c0-2.7-0.1-4.5-0.4-5.5c-0.3-1-0.9-1.8-1.9-2.4c-1.5-1-3.4-1.5-5.8-1.5h-2.4V91h40.9
			c7.2,0,13,1.1,17.3,3.4c7.6,3.9,11.4,10.2,11.4,18.8c0,5.5-1.7,10.1-5.1,13.8c-2.7,3.1-6.3,5.3-10.8,6.7s-10.4,2-17.8,2
			C229.9,135.9,227.4,135.8,224,135.7z M224,130.8c2.2,0.1,4,0.1,5.4,0.1c5.3,0,9.2-1.2,11.6-3.7c2.8-2.8,4.2-7.4,4.2-13.7
			c0-3.8-0.5-7-1.4-9.7s-2.2-4.6-3.9-5.8c-2.1-1.4-5.2-2.2-9.3-2.2c-1.9,0-4.1,0.1-6.6,0.2V130.8z"/>
	</g>
</g>
</svg>
