<?xml version="1.0" encoding="UTF-8"?>
<svg xmlns="http://www.w3.org/2000/svg" baseProfile="tiny-ps" version="1.2" viewBox="0 0 512 512">
  <title>Osara Health</title>
  <!-- Generator: Adobe Illustrator 28.7.0, SVG Export Plug-In . SVG Version: 1.2.0 Build 136)  -->
  <g>
    <g id="Layer_1">
      <rect width="512" height="512" fill="none"/>
      <g>
        <rect width="512" height="512" fill="#516b5e"/>
        <rect width="512" height="512" fill="none"/>
        <path d="M256,438.9c-48.8,0-94.8-19-129.3-53.6-34.5-34.5-53.6-80.5-53.6-129.3s19-94.8,53.6-129.3c34.5-34.5,80.5-53.6,129.3-53.6s94.8,19,129.3,53.6c34.5,34.5,53.6,80.5,53.6,129.3s-19,94.8-53.6,129.3c-34.5,34.5-80.5,53.6-129.3,53.6ZM256,147.5c-59.8,0-108.5,48.7-108.5,108.5s48.7,108.5,108.5,108.5,108.5-48.7,108.5-108.5-48.7-108.5-108.5-108.5Z" fill="#fffff7"/>
      </g>
    </g>
  </g>
</svg>