<?xml version="1.0" encoding="utf-8"?>
<!-- Generator: Adobe Illustrator 27.4.0, SVG Export Plug-In . SVG Version: 6.00 Build 0)  -->
<svg version="1.2" baseProfile="tiny-ps" id="Layer_1" xmlns="http://www.w3.org/2000/svg" xmlns:xlink="http://www.w3.org/1999/xlink"
	 viewBox="0 0 100 100" xml:space="preserve">
<title>Text-Em-All</title>
<g>
	<g>
		<g>
			<path fill="#334B70" d="M19.4,76.9c0.3,0,0.6-0.1,0.9-0.2v1.6c-0.3,0.2-0.8,0.3-1.4,0.3c-1.6,0-2.5-1-2.5-2.6v-3.8H15v-0.3
				l3.2-3.3h0v2h2.1v1.6h-2.1v3.5C18.2,76.5,18.5,76.9,19.4,76.9z"/>
			<path fill="#334B70" d="M28,77.7c-0.8,0.5-1.8,0.8-3,0.8c-2.6,0-4.2-1.7-4.2-4.1c0-2.3,1.6-4.1,3.9-4.1c2.3,0,3.7,1.7,3.7,4
				c0,0.3,0,0.4,0,0.6h-5.8c0.1,1.1,1,1.9,2.5,1.9c1,0,1.9-0.3,2.9-1V77.7z M26.7,73.7c-0.1-1-0.9-1.8-2-1.8c-1.1,0-1.9,0.9-2,1.8
				H26.7z"/>
			<path fill="#334B70" d="M32.4,75.7l-1.9,2.7h-2l2.9-3.9l-2.8-3.8h2.1l1.7,2.5l1.8-2.5h2.1l-2.8,3.8l2.9,4h-2.1L32.4,75.7z"/>
			<path fill="#334B70" d="M40.7,76.9c0.3,0,0.6-0.1,0.9-0.2v1.6c-0.3,0.2-0.8,0.3-1.4,0.3c-1.6,0-2.5-1-2.5-2.6v-3.8h-1.4v-0.3
				l3.2-3.3h0v2h2.1v1.6h-2.1v3.5C39.4,76.5,39.8,76.9,40.7,76.9z"/>
			<path fill="#334B70" d="M52.8,77.7c-0.8,0.5-1.8,0.8-3,0.8c-2.6,0-4.2-1.7-4.2-4.1c0-2.3,1.6-4.1,3.9-4.1c2.3,0,3.7,1.7,3.7,4
				c0,0.3,0,0.4,0,0.6h-5.8c0.1,1.1,1,1.9,2.5,1.9c1,0,1.9-0.3,2.9-1V77.7z M51.4,73.7c-0.1-1-0.9-1.8-2-1.8c-1.1,0-1.9,0.9-2,1.8
				H51.4z"/>
			<path fill="#334B70" d="M56.4,78.3h-1.8v-7.8h1.8v1c0.4-0.7,1.2-1.2,2.2-1.2c1.1,0,1.9,0.5,2.4,1.4c0.4-0.7,1.3-1.4,2.6-1.4
				c1.8,0,2.8,1.3,2.8,3.2v4.8h-1.8v-4.4c0-1.1-0.5-1.9-1.5-1.9c-1,0-1.6,0.8-1.7,2.1v4.2h-1.8V74c0-1.2-0.5-1.9-1.5-1.9
				c-1,0-1.7,0.8-1.7,2.2V78.3z"/>
			<path fill="#334B70" d="M76,78.3l0-1c-0.5,0.8-1.5,1.2-2.4,1.2c-1.4,0-2.4-0.9-2.4-2.2c0-1.4,0.9-2.3,2.7-2.6l2-0.3v-0.1
				c0-0.8-0.6-1.3-1.7-1.3c-1,0-1.9,0.4-2.6,1.1v-1.8c0.7-0.5,1.6-0.9,2.8-0.9c2.2,0,3.3,1.1,3.3,3v5H76z M74,77
				c1.1,0,1.9-0.8,1.9-1.8v-0.4l-1.7,0.3c-0.8,0.1-1.3,0.5-1.3,1.1C72.9,76.7,73.4,77,74,77z"/>
			<path fill="#334B70" d="M81.3,67.3v11.1h-1.8V67.3H81.3z"/>
			<path fill="#334B70" d="M85,67.3v11.1h-1.8V67.3H85z"/>
		</g>
		<rect x="41.9" y="73.7" fill="#334B70" width="2.4" height="1.4"/>
		<rect x="67.7" y="73.7" fill="#334B70" width="2.4" height="1.4"/>
	</g>
	<g>
		<path fill="#FF4D00" d="M51.5,58.7c-4.4,0-8.7-1.2-12.4-3.6c-0.3-0.2-0.7-0.2-1-0.1L26.7,60l4.9-11.4c0.1-0.3,0.1-0.7-0.1-1
			c-2.3-3.8-3.6-8.1-3.6-12.4c0-13,10.6-23.6,23.6-23.6s23.6,10.6,23.6,23.6S64.5,58.7,51.5,58.7z"/>
		<g>
			<path fill="#FFFFFF" d="M63.5,33.6l-2.2-3.4C58.6,32,55.2,33,51.6,33c-3.6,0-7-1-9.7-2.7l-2.2,3.4c2.6,1.7,5.7,2.8,9,3.2
				l-6.9,7.6l3,2.7l6.9-7.5l6.9,7.5l3-2.7l-6.9-7.6C57.8,36.4,60.9,35.3,63.5,33.6z"/>
			<g>
				<circle fill="#FFFFFF" cx="51.6" cy="26.9" r="3.9"/>
			</g>
		</g>
	</g>
</g>
</svg>
