<?xml version="1.0" encoding="utf-8" standalone="yes"?><!-- Generator: Adobe Illustrator 25.2.0, SVG Export Plug-In . SVG Version: 6.00 Build 0)  --><svg xmlns="http://www.w3.org/2000/svg" xmlns:xlink="http://www.w3.org/1999/xlink" version="1.2" baseProfile="tiny-ps" viewBox="0 0 162 162" xml:space="preserve"><title>ihmcLogo2021</title><path fill="#88A1C4" d="M98.45,24.81c0,8.73-7.07,15.8-15.8,15.8c-8.73,0-15.8-7.08-15.8-15.8C66.84,16.08,73.91,9,82.64,9  C91.37,9,98.45,16.08,98.45,24.81"></path><path fill="#88A1C4" d="M90.82,51.51c0,0,25.07,0,34.88-15.26l11.99,13.08c0,0-5.49,20.72-44.73,22.78l-1.09,30.66  c0,0,20.75-2.38,29.47,4.31c8.72,6.7,8.72,42.29,8.72,42.29l-19.55,1.09c0,0-1.16-22.67-5.52-25.93  c-2.76-2.07-17.38-0.03-17.38-0.03s-2.24,7.66-16.41,18.56c-8.15,6.27-34.87,9.94-34.87,9.94v-20.78c0,0,21.83-4.6,27.25-9.88  c9.51-9.26,7.63-51.31,7.63-51.31s-19.62-6.46-34.87,8.8L24.31,63.47c0,0,17.46-17.43,45.79-14.17  C88.26,51.4,90.82,51.51,90.82,51.51"></path></svg>