<?xml version="1.0" encoding="utf-8"?>
<svg version="1.2" baseProfile="tiny-ps" id="Layer_1" xmlns="http://www.w3.org/2000/svg" xmlns:xlink="http://www.w3.org/1999/xlink"
	 viewBox="0 0 80 80" xml:space="preserve">
<title>Releaf</title>
<rect fill="#062431" width="80" height="80"/>
<g>
	<path fill="#FFFFFF" d="M40,15c-13.8,0-25,11.2-25,25s11.2,25,25,25s25-11.2,25-25S53.8,15,40,15z M62.2,44.7H42.9l16.5-16.5
		c2.1,3.4,3.3,7.5,3.3,11.8C62.7,41.6,62.5,43.2,62.2,44.7L62.2,44.7z M58,26.2L41.2,43V17.4C48,17.7,54,21.1,58,26.2L58,26.2z
		 M38.8,17.4V43L22,26.2C26,21.1,32,17.7,38.8,17.4z M20.7,28.2l16.5,16.5H17.8c-0.3-1.5-0.5-3.1-0.5-4.7
		C17.3,35.7,18.6,31.6,20.7,28.2L20.7,28.2z M40,62.7c-10,0-18.6-6.6-21.5-15.6h18.7l-8.8,8.8l1.7,1.7l8.8-8.8v11h2.3v-11l8.8,8.8
		l1.7-1.7L42.8,47h18.7C58.6,56.1,50,62.7,40,62.7L40,62.7z"/>
</g>
</svg>
