<?xml version="1.0" encoding="utf-8"?>
<!-- Generator: Adobe Illustrator 25.2.3, SVG Export Plug-In . SVG Version: 6.00 Build 0)  -->
<svg version="1.2" xmlns:xlink="http://www.w3.org/1999/xlink" viewBox="0 0 116.5 116" baseProfile="tiny-ps" xmlns="http://www.w3.org/2000/svg">
  <title>Cloud Security Alliance</title>

<rect x="8.2" y="5.7" width="100" height="100" fill="#FFFFFF" />
<g>
	<g>
		<path d="M16.2,56.6c0,0.2-0.1,0.4-0.1,0.7c-0.4,2.4,0.1,4.3,2.1,4.3c1.4,0,2.2-0.7,3.3-2.2l3.6,2    c-1.4,2.1-3.6,4.1-7.5,4.1c-4.9,0-7-3.5-6.3-8.1c0-0.2,0.1-0.4,0.1-0.7L16.2,56.6z M11.9,54.8c1.4-3.6,4.5-5.7,8.1-5.7    c4.1,0,5.4,1.7,6.1,4.7l-4.4,1.6c-0.4-1.5-0.8-2.4-2.3-2.4c-1.2,0-2.1,0.7-2.7,1.9L11.9,54.8L11.9,54.8z" fill="#00549F" />
		<path d="M38.4,56.6c1.3,0.8,1.7,2,1.5,3.7c-0.5,3.6-3.6,5.1-7.6,5.1c-2.7,0-5.1-0.8-6.7-1.9l2.7-3.4    c1.1,0.8,3.1,1.6,4.6,1.6c1.6,0,2.2-0.3,2.3-1c0.1-0.6-0.5-0.9-2.6-1.4c-2.6-0.6-4.2-1.3-4.9-2.6L38.4,56.6z M27.4,54.8    c0-0.2,0-0.5,0.1-0.7c0.4-3,3.3-5,7.3-5c2.8,0,4.7,0.7,6.3,1.8l-2.7,3.4c-1.3-0.9-2.7-1.5-4.4-1.5c-1.4,0-1.8,0.4-1.8,1    c-0.1,0.4,0.2,0.7,1.1,1H27.4z" fill="#00549F" />
		<polygon points="51.8,54.8 50.8,49.4 46.8,49.4 44.2,54.8   " fill="#00549F" />
		<polygon points="46.2,58.9 48.5,58.9 48.3,56.6 52.1,56.6 53.6,65.2 49.3,65.2 49,62.4 44.7,62.4 43.5,65.2     39.3,65.2 43.4,56.6 47.1,56.6   " fill="#00549F" />
	</g>
	<g>
		<g>
			<path d="M51.6,42.2c-0.4-0.3-0.8-0.5-1.5-0.5c-1,0-1.9,0.8-2.1,2.2c-0.2,1.4,0.3,2.3,1.5,2.3c0.6,0,1.1-0.2,1.6-0.6     l0.5,0.5c-0.6,0.5-1.3,0.8-2.2,0.8c-1.4,0-2.5-0.9-2.2-2.9c0.3-2.1,1.9-3,3.2-3c0.9,0,1.5,0.3,1.9,0.7L51.6,42.2z" fill="#F98526" />
			<path d="M53.1,46.7l1.1-7.4l1-0.4L54,46.7H53.1z" fill="#F98526" />
			<path d="M58.2,46.8c-1.6,0-2.6-1-2.3-2.9s1.7-2.9,3.2-2.9c1.6,0,2.6,1,2.3,2.9S59.7,46.8,58.2,46.8z M59,41.7     c-1.1,0-2,0.7-2.2,2.2s0.4,2.2,1.5,2.2s2-0.8,2.2-2.2C60.7,42.4,60.1,41.7,59,41.7z" fill="#F98526" />
			<path d="M66.4,46.7l0.1-0.7c-0.4,0.5-1.1,0.8-1.9,0.8c-1.3,0-2.1-0.7-1.9-2.3l0.5-3.4h0.9l-0.5,3.3     c-0.2,1.2,0.2,1.8,1.2,1.8c0.9,0,1.7-0.5,1.8-1.8l0.5-3.3H68l-0.7,5.6H66.4z" fill="#F98526" />
			<path d="M72.9,46.7L73,46c-0.5,0.4-1.2,0.8-2,0.8c-1.3,0-2.1-0.9-1.8-2.8c0.3-2,1.5-3,2.9-3c0.8,0,1.3,0.3,1.7,0.8     l0.4-2.4l1-0.4l-1.4,7.7H72.9L72.9,46.7z M73.5,42.5c-0.3-0.5-0.8-0.8-1.6-0.8c-1.1,0-1.7,0.8-1.9,2.3c-0.2,1.4,0.3,2.1,1.3,2.1     c0.7,0,1.3-0.3,1.8-0.8L73.5,42.5z" fill="#F98526" />
		</g>
		<g>
			<path d="M57.2,72.4l0.1-0.7c-0.5,0.4-1.2,0.8-2.1,0.8c-1,0-2-0.4-1.8-1.8c0.2-1.3,1.5-1.8,2.7-1.8     c0.6,0,1.2,0.1,1.5,0.3l0.1-0.7c0.1-0.8-0.3-1.2-1.2-1.2c-0.7,0-1.2,0.2-1.8,0.4L54.5,67c0.6-0.3,1.4-0.4,2.2-0.4     c1.4,0,2.2,0.5,2,1.8l-0.6,3.9L57.2,72.4L57.2,72.4z M57.6,69.9c-0.4-0.2-0.8-0.3-1.6-0.3c-0.9,0-1.6,0.4-1.7,1.1     c-0.1,0.8,0.3,1.2,1.1,1.2s1.5-0.4,2-0.8L57.6,69.9z" fill="#F98526" />
			<path d="M60.1,72.4l1.1-7.4l1-0.4L61,72.4H60.1z" fill="#F98526" />
			<path d="M63.2,72.4l1.1-7.4l1-0.4l-1.2,7.8H63.2z" fill="#F98526" />
			<path d="M66.2,72.4l0.9-5.6H68l-0.9,5.6H66.2z M67.7,65.7c-0.4,0-0.6-0.3-0.6-0.6c0.1-0.3,0.4-0.6,0.8-0.6     c0.3,0,0.6,0.3,0.5,0.6C68.4,65.5,68,65.7,67.7,65.7z" fill="#F98526" />
			<path d="M72.8,72.4l0.1-0.7c-0.5,0.4-1.2,0.8-2.1,0.8c-1,0-2-0.4-1.8-1.8c0.2-1.3,1.5-1.8,2.7-1.8     c0.6,0,1.2,0.1,1.5,0.3l0.1-0.7c0.1-0.8-0.3-1.2-1.2-1.2c-0.7,0-1.2,0.2-1.8,0.4l-0.1-0.6c0.6-0.3,1.4-0.4,2.2-0.4     c1.4,0,2.2,0.5,2,1.8l-0.6,3.9H72.8L72.8,72.4z M73.2,69.9c-0.4-0.2-0.8-0.3-1.6-0.3c-0.9,0-1.6,0.4-1.7,1.1     c-0.1,0.8,0.3,1.2,1.1,1.2c0.8,0,1.5-0.4,2-0.8L73.2,69.9z" fill="#F98526" />
			<path d="M79.7,72.4l0.5-3.3c0.2-1.2-0.2-1.8-1.2-1.8c-0.9,0-1.7,0.5-1.8,1.8l-0.5,3.3h-0.9l0.9-5.6h0.9l-0.1,0.7     c0.4-0.5,1.1-0.8,1.9-0.8c1.3,0,2.1,0.7,1.9,2.3l-0.5,3.4H79.7z" fill="#F98526" />
			<path d="M87.1,67.9c-0.4-0.4-0.8-0.6-1.4-0.6c-1,0-1.9,0.8-2.1,2.2s0.3,2.3,1.5,2.3c0.6,0,1.1-0.2,1.6-0.6l0.5,0.5     c-0.6,0.5-1.3,0.8-2.2,0.8c-1.4,0-2.5-0.9-2.2-2.9c0.3-2.1,1.9-3,3.2-3c0.9,0,1.5,0.3,1.9,0.7L87.1,67.9z" fill="#F98526" />
			<path d="M93.6,69.8h-4.3c-0.1,1.2,0.4,2,1.5,2c0.7,0,1.2-0.2,1.8-0.5l0.3,0.6c-0.8,0.4-1.4,0.7-2.4,0.7     c-1.2,0-2.5-0.8-2.1-3c0.3-1.8,1.6-2.9,3.1-2.9c1.7,0,2.4,1.2,2.1,2.8C93.6,69.6,93.6,69.7,93.6,69.8z M91.4,67.3     c-0.9,0-1.7,0.6-2,1.9h3.4C92.9,68.1,92.5,67.3,91.4,67.3z" fill="#F98526" />
		</g>
		<g>
			<path d="M64.3,59c-0.9,0-1.6-0.3-2.1-0.7l0.6-0.6c0.4,0.4,1,0.6,1.6,0.6c0.9,0,1.3-0.3,1.4-0.9     c0.1-0.5-0.3-0.7-1.3-1.1c-1.2-0.5-1.7-0.8-1.5-1.7c0.1-0.9,1.1-1.4,2.2-1.4c0.9,0,1.5,0.2,2,0.6l-0.6,0.6     c-0.4-0.3-0.8-0.5-1.5-0.5c-0.7,0-1.1,0.3-1.2,0.7c-0.1,0.5,0.2,0.7,1.2,1.1c1.1,0.5,1.8,0.8,1.6,1.8C66.6,58.5,65.4,59,64.3,59z     " fill="#F98526" />
			<path d="M73.3,56.3H69c-0.1,1.2,0.4,2,1.5,2c0.7,0,1.2-0.2,1.8-0.5l0.3,0.6c-0.8,0.4-1.4,0.7-2.4,0.7     c-1.2,0-2.5-0.8-2.1-3c0.3-1.8,1.6-2.9,3.1-2.9c1.7,0,2.4,1.2,2.1,2.8C73.4,56.1,73.3,56.2,73.3,56.3z M71.1,53.8     c-0.9,0-1.7,0.6-2,1.9h3.4C72.7,54.6,72.3,53.8,71.1,53.8z" fill="#F98526" />
			<path d="M79.2,54.4c-0.4-0.4-0.8-0.6-1.4-0.6c-1,0-1.9,0.8-2.1,2.2s0.3,2.3,1.5,2.3c0.6,0,1.1-0.2,1.6-0.6l0.5,0.5     C78.7,58.7,78,59,77.1,59c-1.4,0-2.5-0.9-2.2-2.9c0.3-2.1,1.9-3,3.2-3c0.9,0,1.5,0.3,1.9,0.7L79.2,54.4z" fill="#F98526" />
			<path d="M84.3,58.8l0.1-0.7c-0.4,0.5-1.1,0.8-1.9,0.8c-1.3,0-2.1-0.7-1.9-2.3l0.5-3.4H82l-0.5,3.3     c-0.2,1.2,0.2,1.8,1.2,1.8c0.9,0,1.7-0.5,1.8-1.8l0.5-3.3h0.9l-0.7,5.6H84.3z" fill="#F98526" />
			<path d="M91.2,54.1c-0.2-0.1-0.5-0.2-0.9-0.2c-0.9,0-1.5,0.6-1.6,1.7l-0.5,3.3h-1l0.9-5.6H89L88.9,54     c0.4-0.4,1-0.8,1.7-0.8c0.5,0,0.8,0.1,1,0.1L91.2,54.1z" fill="#F98526" />
			<path d="M92.2,58.8l0.9-5.6H94l-0.9,5.6H92.2z M93.7,52.2c-0.4,0-0.6-0.3-0.6-0.6c0.1-0.3,0.4-0.6,0.8-0.6     c0.3,0,0.6,0.3,0.5,0.6C94.4,52,94.1,52.2,93.7,52.2z" fill="#F98526" />
			<path d="M97.1,53.9l-0.6,3.7c-0.1,0.5,0.1,0.7,0.5,0.7s0.6-0.1,0.9-0.2l-0.2,0.7C97.3,58.9,97,59,96.5,59     c-0.8,0-1.2-0.3-1-1.3l0.6-3.8h-0.8l0.1-0.7h0.8l0.3-1.7l1-0.4l-0.3,2.1h1.6l-0.1,0.7H97.1L97.1,53.9z" fill="#F98526" />
			<path d="M100.9,60.8H100l1.2-2l-1.4-5.6h1l0.9,4.1l0.1,0.6l0.3-0.6l2.2-4.1h1L100.9,60.8z" fill="#F98526" />
		</g>
		<g>
			<path d="M95.9,66.8c0-0.6,0.2-1.1,0.6-1.5s0.9-0.6,1.5-0.6s1.1,0.2,1.5,0.6c0.4,0.4,0.6,0.9,0.6,1.5     s-0.2,1.1-0.6,1.5s-0.9,0.6-1.5,0.6s-1.1-0.2-1.5-0.6C96.1,67.9,95.9,67.4,95.9,66.8z M99.7,66.8c0-0.5-0.2-0.9-0.5-1.2     c-0.3-0.3-0.8-0.5-1.2-0.5c-0.5,0-0.9,0.2-1.2,0.5c-0.3,0.3-0.5,0.8-0.5,1.2s0.2,0.9,0.5,1.2c0.3,0.3,0.8,0.5,1.2,0.5     c0.5,0,0.9-0.2,1.2-0.5C99.6,67.7,99.7,67.3,99.7,66.8z M98.6,68.1L98,67h-0.4v1.1h-0.4v-2.6h0.7c0.6,0,0.9,0.2,0.9,0.7     c0,0.3-0.2,0.6-0.5,0.7l0.7,1.2L98.6,68.1L98.6,68.1z M97.6,65.8v0.9c0,0,0.1,0,0.2,0c0.2,0,0.4,0,0.5-0.1s0.1-0.2,0.1-0.3     c0-0.3-0.2-0.4-0.6-0.4h-0.1h-0.1V65.8z" fill="#F98526" />
		</g>
	</g>
</g>
</svg>