<?xml version="1.0" encoding="utf-8"?><svg xmlns="http://www.w3.org/2000/svg" xmlns:xlink="http://www.w3.org/1999/xlink" baseProfile="tiny-ps" version="1.2" viewBox="0 0 113.4 113.4" xml:space="preserve"><title>Martrexo by Webstrategy GmbH</title>
<rect fill="#ffffff" height="100%" width="100%"></rect>
<g>
	<path d="M68.2,50.8c-2,1.2-3,3.6-2,5.4c0.6,1,1.6,1.4,2.8,1.4c1,0,2-0.2,2.8-0.8c1-0.6,1.8-1.4,2.2-2.4s0.4-2-0.2-3   C73,49.8,70.4,49.6,68.2,50.8z" fill="#472583"></path>
	<path d="M45.8,68c-0.2-0.4-0.6-0.8-1.2-1c-2-0.8-3.8-0.8-5.4,0c-2,1-2.8,2.6-3,2.8c-0.2,0.6-0.2,1,0,1.6   c0.2,0.6,0.6,1,1,1.2c0.2,0.2,0.6,0.2,0.8,0.2c0.8,0,1.6-0.4,1.8-1.2c0,0,0.2-0.4,0.8-0.8c0.6-0.2,1.4-0.2,2.4,0.2   c0.6,0.2,1,0.2,1.6,0c0.4-0.2,0.8-0.6,1-1.2C46.2,69.2,46,68.6,45.8,68L45.8,68z" fill="#472583"></path>
	<path d="M74,43.2c-7.2-2-10.4,4-10.4,4c-0.2,0.6-0.2,1-0.2,1.4c0.2,0.4,0.4,0.8,0.8,1c0.2,0.2,0.6,0.2,0.8,0.2   c0.2,0,0.4,0,0.6,0c0.4-0.2,0.8-0.4,1-0.8c0-0.2,2-3.6,6.4-2.4c0.4,0.2,1,0,1.4-0.2s0.6-0.6,0.8-1C75.4,44.4,74.8,43.6,74,43.2z" fill="#472583"></path>
	<path d="M56.8,0C25.6,0,0.1,25.4,0.1,56.6s25.4,56.8,56.6,56.8s56.6-25.4,56.6-56.6S88,0,56.8,0z M72.6,88.4   c-0.8,0-1.6,0.2-2.6,0.2s-1.8,0-2.8,0c-0.4,0-0.6,0-1,0c-0.6,0-1.2,0.2-1.8,0.2c-0.4,0-0.8,0-1,0.2c-0.4,0-1,0.2-1.4,0.2   c-0.2,0.2-0.6,0.2-1,0.2c-0.4,0-0.8,0.2-1.2,0.2c-0.4,0-0.8,0.2-1.2,0.4c-0.2,0-0.4,0-0.4,0.2c-2,0.6-3.8,1.2-5.4,1.8   C46.2,94.6,42,97.8,42,97.8c-0.4,0.4-0.8,0.4-1.4,0.4c-0.4,0-0.8,0-1.2-0.2l-21-12c-0.8-0.4-1.2-1.2-1.2-2v-5.8L39,89.6   c0.2,0.2,0.6,0.2,0.8,0.2c0.2,0,0.6,0,0.8-0.2l7.6-4.2c0.2-0.2,0.6-0.4,0.6-0.8l3.4-6.8l4.4,3.2c0.4,0.4,1,0.4,1.4,0.2   c0.6-0.2,1-0.6,1.2-1l2.6-6.6l4.8,3.2c0.4,0.2,1,0.4,1.4,0.2c0.4-0.2,0.8-0.6,1-1l2.8-8c0.4-0.8-0.2-1.8-1-2.2   c-0.8-0.4-1.8,0.2-2.2,1l-2.2,6l-4.6-3.2c-0.4-0.2-1-0.4-1.4-0.2c-0.4,0.2-0.8,0.6-1,1l-2.6,6.4l-4.2-3.2c-0.4-0.4-1-0.4-1.4-0.2   c-0.4,0.2-1,0.4-1.2,1l-4,8.2l-6.2,3.6l-7-3.6l-21-11c-0.4-3-0.8-8.4,0.6-14.8l0.4,0.2c1.4,0.8,1.4,2.6,1.4,2.6   c0,0.6,0.2,1,0.6,1.4c0.4,0.4,0.8,0.6,1.6,0.6c1.2,0,2-0.8,2-2c0-0.2,0.2-4.4-3.4-6.4C14.6,53,14.2,53,13.8,53l-0.4,0.4   c2-5.8,5.6-11.8,12.2-17c1.6,0.8,3.2,1.6,5,2.6c0.2,0,0.2,0.2,0.4,0.2c1.2,0.6,2.2,1.4,3.4,2c0.2,0.2,0.4,0.2,0.6,0.4   c1.2,0.8,2.4,1.6,3.6,2.4c0.2,0.2,0.4,0.2,0.4,0.4c1.2,1,2.6,2,3.8,3c2.4,2,6,1.6,7.8-0.8c2-2.4,1.6-6-0.8-7.8   c-4.4-3.6-9-6.6-13.2-9c0.4-0.2,0.6-0.4,1-0.4c2.2-0.8,4.2-1.6,6-2.4c4.8,2.2,11,5.4,17,10.2c2.4,1.8,6,1.4,7.8-1   c1.8-2.4,1.4-6-1-7.8C64.2,26,61,23.8,58,22c-0.2-0.2-0.4-0.2-0.6-0.4C76.4,22.2,91.6,38,91.6,57C92.2,70.6,84.2,82.6,72.6,88.4z" fill="#472583"></path>
</g>
</svg>
