<?xml version="1.0" encoding="utf-8"?>
<svg version="1.2" baseProfile="tiny-ps" id="Ebene_1" xmlns="http://www.w3.org/2000/svg" xmlns:xlink="http://www.w3.org/1999/xlink"
	 viewBox="0 0 100 100" xml:space="preserve">
<title>Muvac GmbH</title>
<circle fill="#F53E4A" cx="50" cy="50" r="50"/>
<path fill="#FFFFFF" d="M72.4,36.8c0.1-0.2,0.2-0.5,0.4-0.6c0.2-0.1,0.4-0.2,0.6-0.2s0.4,0.1,0.6,0.2c0.1,0.1,0.4,0.4,0.5,0.6
	l8.8,26h8.2l-10.2-29c-0.6-1.6-1.6-2.9-3-3.9c-1.4-1-3-1.5-4.8-1.5c-1.7,0-3.4,0.6-4.8,1.6s-2.4,2.2-3,3.9l-13.2,38
	c-0.1,0.2-0.2,0.5-0.4,0.6c-0.2,0.1-0.4,0.2-0.6,0.2s-0.4-0.1-0.6-0.2c-0.1-0.1-0.4-0.4-0.5-0.6l-16-46.6c-0.6-1.6-1.6-2.9-3-3.9
	c-1.4-1-3-1.5-4.7-1.5c-1.8,0-3.4,0.5-4.8,1.5c-1.4,1-2.4,2.2-3,3.9L8.6,54.1h8.1l8.8-26c0.1-0.2,0.2-0.5,0.4-0.6
	c0.3-0.1,0.4-0.2,0.6-0.2c0.3,0,0.4,0.1,0.6,0.2c0.1,0.1,0.4,0.4,0.5,0.6l16.1,46.6c0.6,1.6,1.6,2.9,3,3.9s3,1.5,4.8,1.5
	c1.8,0,3.4-0.5,4.8-1.5s2.4-2.2,3-3.9L72.4,36.8z"/>
</svg>
