<?xml version="1.0" encoding="utf-8" standalone="yes"?><!-- Generator: Adobe Illustrator 25.0.1, SVG Export Plug-In . SVG Version: 6.00 Build 0)  --><svg xmlns:v="https://vecta.io/nano" xmlns="http://www.w3.org/2000/svg" xmlns:xlink="http://www.w3.org/1999/xlink" version="1.2" baseProfile="tiny-ps" viewBox="0 0 288 288" xml:space="preserve"><title>Tank Garage Winery</title><path d="M-10.9-7.4H298V298H-10.9V-7.4z"></path><g><path fill="#FFFFFF" d="M106.2,104.8c-1.7-0.7-3.6,1.6-3.6,1.6c-8,9.4-16,20.9-20.1,32.6c-0.7,2.1-2.3,7.2-3.4,9.1   s-4.2,3.2-5.6,4.8c3.3,1.4,3,3.7,2.1,7.4c-3.1,12.5-5.7,19.8-15.4,27c-2,1.5-4.1,2.6-6.4,3.5c-7.6,2.4-14.8,0.7-16.2-3.7   c-1.6-4.7,2.7-10,6.2-11s5.6,0.3,6.2,2.2c0.6,1.9,0.4,3.9-0.6,5.6c0.1,0,0.3-0.1,0.4-0.1c6.1-1.5,10.8-5.8,11.7-10.3   c2.6-12.1-12.2-12.2-21-6.6c-5.1,3.1-9.8,9.2-10.3,15.4c-1.1,13.4,12.4,17.1,26.6,12.3c4.4-1.6,8.6-3.7,12.5-6.4   c4.2-2.8,7.8-6.2,10.9-10.2c4.2-5.4,5.6-7.9,7.7-12.9c0.6-1.5,1.2-3,1.6-4.5c1.2-4.5,3.1-8,6.6-10.6c1.5-1.2,1-1,0.1-2   c-1.7-1.9-0.7-7.7,0.1-10.5l2.2-8.2c2.2-7.8,2.7-13.7,6.4-20.9C105,108.3,106.9,105.1,106.2,104.8L106.2,104.8z M174.9,202.1   c-0.2,1.1-0.3,2.3-0.4,3.4l-0.1,0.4l-0.1,0.7c-0.2-1-0.7-3-1.2-4.6v-0.2c-0.1-0.3-0.2-0.4-0.5-0.4l0,0c-0.2,0-0.4,0-0.6,0.1v0.2   c0.2,1.1,0.3,1.2,0.3,1.2l0,0v0.1l0.1,0.5l0.1,0.3l0.2,1c0.1,0.3,0.1,0.7,0.3,1h0.1v0.2l0.1,0.3l0.2,0.9c0.1,0.3,0.2,0.6,0.4,0.9   h1.1c0.1-0.1,0.3-0.3,0.5-2.6l0.2-1.9v0.3l0.4,3.5c0.1,0.3,0.2,0.5,0.4,0.7h1.1l0.1-0.2l0.5-2.4l0.1-0.1v-0.3l0.2-0.6l0.1-0.5   c0.2-0.4,0.3-0.8,0.3-1.2v-0.1h0.1l0.2-0.8l0.1-0.1v-0.3l-0.1-0.1l-0.5-0.1l-0.3,0.1c0,0-0.2,0.2-0.6,1.7l-0.7,3.5l-0.1-0.7   c-0.1-0.4-0.1-1-0.2-1.6c0-0.5-0.1-0.9-0.2-1.4l-0.1-0.7c0-0.1-0.1-0.2-0.2-0.2h-1C175.1,202,175,202,174.9,202.1L174.9,202.1z    M185.9,208.2H185l-0.1-0.1v-0.3l-0.1-6.1c0-0.1,0.1-0.1,0.1-0.1h1l0.1,0.1v6.2C186,207.9,185.9,208,185.9,208.2L185.9,208.2   L185.9,208.2z M196,208.2h-0.8c0,0-0.1,0-0.4-0.6c-0.1-0.3-0.2-0.5-0.4-0.7v-0.2l-0.2-0.2l-0.1-0.4V206H194   c-0.2-0.2-0.3-0.5-0.4-0.8l0,0l-0.1-0.1c0-0.2-0.1-0.3-0.3-0.4l-0.2-0.1v3.6c-0.2,0-0.5,0.1-0.7,0.1H192l-0.2-0.2v-0.6   c0-0.1,0.1-0.9,0-5.8l0.1-0.1l0.2-0.1h0.6l0.2,0.3l0.5,1.1c0.2,0.3,0.4,0.7,0.6,1.1l0,0l0.3,0.3l0.1,0.4l0.2,0.2l0.2,0.3v-3.6   l0.1-0.1h0.9l0.2,0.1v0.4l-0.1,6.1c0,0.1-0.1,0.1-0.2,0.1L196,208.2z M205.6,208.2H202l-0.1-0.1l-0.1-2.1v-4.4l0.1-0.1h3.7   c0.2,0,0.3,0.2,0.3,0.2v0.5l-0.2,0.1h-2.5l-0.2,0.1H203v0.1c-0.1,0.5-0.1,1.1,0,1.6l0,0l0.1,0.1h1.6l0.1,0.1v0.7l-0.1,0.1h-1.5   c-0.2,0.1-0.3,0.3-0.2,0.5c0,0,0,0,0,0v1.6h2.4c0.4,0,0.4,0.1,0.4,0.2v0.6l-0.2,0.1L205.6,208.2z M212.3,208.2L212.3,208.2   c-0.1,0-0.2,0-0.3,0h-0.2c-0.2-0.1-0.2-0.1-0.2-0.1v-2l-0.1-0.6V202l0.1-0.4h0.5l2.2,0.1c0.3,0.1,0.6,0.3,0.8,0.6l0.3,0.5l0.1,0.6   l-0.1,1l-0.1,0.2c0,0-0.1,0.1-0.5,0.4l-0.3,0.1l0.3,0.1c0.2,0.1,0.4,0.2,0.5,0.4v2.4c0,0.2-0.2,0.4-0.4,0.4l-0.6-0.1   c0,0-0.1,0-0.1-0.1v-2.2h-0.1v-0.2c-0.2-0.3-0.6-0.4-0.9-0.4c-0.2,0-0.3,0-0.5,0h-0.1v2.7C212.6,208.2,212.5,208.3,212.3,208.2   L212.3,208.2z M212.7,202.3v0.5c0.1,0.4,0.1,0.8,0,1.2c0,0.2,0.1,0.3,0.2,0.4c0,0,0,0,0.1,0l0,0l0.1-0.1c0.1,0,0.2,0,0.4,0   c0.2,0,0.3,0,0.4-0.1l0.3-0.1h0.1V204h0.1v-1c-0.1-0.4-0.5-0.7-1-0.7h-0.8L212.7,202.3z M223.5,208.2c-0.8,0-0.9-0.1-0.9-0.1v-3   c-0.1-0.2-0.2-0.4-0.3-0.6v-0.1l-0.6-0.8c-0.2-0.5-0.5-1-0.8-1.5c-0.1-0.3,0-0.6,0.3-0.7h0.6c0.1,0.1,0.3,0.2,0.3,0.3v0.1l0.2,0.3   c0.6,1.4,0.7,1.4,0.8,1.4h0.1v-0.1l0.9-1.9l0.2-0.1h0.6v0.1h0.1c0.1,0,0.1,0,0.2,0.2v0.5l-0.8,1.3v0.1l-0.6,0.8   c-0.1,0.4-0.2,0.4-0.2,0.4h-0.1v3.2l-0.1,0.2L223.5,208.2L223.5,208.2z M149.5,196.4c0.5-0.6,1.3-1.1,2.1-1.3c0.8,0,1.6,0.4,2,1.1   c0.6,0.8,0.6,1.2,0.2,1.5l-0.6,0.4c-0.1,0-0.2,0-0.3-0.2h-0.2l-0.5-0.6l-0.8-0.2l-0.4,0.2c-0.1,0.3-0.2,0.7-0.2,1l0.2,0.9l2.6,3.3   c0.2,0.2,0.5,0.4,0.8,0.5h0.5l0.7-0.6l0.2-0.3l-0.1-0.6l-0.6-0.7H155c-0.3,0.3-0.7,0.4-1.1,0.3c-0.6-0.6-0.7-1-0.5-1.3   c0.4-0.4,0.9-0.8,1.5-1c0.5,0,0.9,0.2,1.2,0.6l1,1.4l0.4,0.9v0.5c-0.1,0.6-0.5,1.2-1,1.6c-0.4,0.4-0.9,0.7-1.4,0.9h-0.5l-0.1,0.1   l-1.7-0.8l-0.6-0.7l-1.1-1.2l-1.6-2.5c-0.2-0.4-0.3-0.7-0.4-1.1v-1.3L149.5,196.4z"></path><path fill="#FFFFFF" d="M167.4,186.4l1-0.3c0.4-0.3,0.7-0.1,1,0.6c0.3,0.5,0.6,1,0.7,1.5l0.3,0.3c0.3,0.4,0.6,0.9,0.7,1.5l0.1,0.1   l0.9,1.6l0.4,0.5l1,1.8l0.2,0.2c0.3,0.5,0.2,0.9-0.5,1.2l-0.5,0.1l-0.5-0.4c-0.6-0.8-1.1-1.6-1.5-2.4c-0.4,0.1-0.9,0.3-1.2,0.5   l0.3,2.9c0.1,0.3,0,0.6-0.3,0.8c-0.4,0.2-0.7,0.2-1.1,0.2c-0.2-0.7-0.3-1.5-0.4-2.2v-0.2l-0.4-3.1v-0.2l-0.2-0.8v-0.2l-0.1-0.3   v-0.7C167.1,188.2,167.1,187.2,167.4,186.4L167.4,186.4z M169.3,191.2l0.1,0.3l0.7-0.3c-0.4-0.8-0.8-1.6-1.2-2.4   C169,189.6,169.1,190.4,169.3,191.2L169.3,191.2z M185.2,181.8l2.8-0.2c0.5,0.1,0.9,0.4,1.3,0.8l0.5,0.7l0.3,0.9l0.1,1.6L190,186   c0,0.1-0.2,0.4-0.7,0.7c0.3,0.1,0.6,0.3,0.8,0.6l0.4,3.6c-0.1,0.5-0.3,0.8-0.6,0.9h-0.8c-0.2-0.1-0.3-0.2-0.3-0.4l-0.3-3.1   c-0.1,0-0.1-0.1-0.1-0.3c-0.3-0.4-0.8-0.4-1.6-0.2l0.2,2.8l0.2,1.1c-0.3,0.4-0.5,0.6-0.7,0.5c-0.2-0.1-0.4,0-0.6,0.1   c-0.3-0.2-0.5-0.3-0.4-0.4l-0.3-3l-0.2-0.9l-0.4-3.5l-0.2-1.6l0.1-0.7l0.2-0.2L185.2,181.8z M186.5,185.8c0,0.1,0.1,0.2,0.3,0.2   l0.1-0.1c0.3,0,0.7,0,1-0.2l0.3-0.2c-0.1-0.1,0-0.2,0.1-0.3c0,0,0,0,0,0l-0.1-1.2c-0.2-0.4-0.6-0.7-1.1-0.7l-0.8,0.1v0.6   C186.5,184.6,186.6,185.2,186.5,185.8L186.5,185.8z M205.5,181.4l1.1,0.2c0.5-0.1,0.7,0.2,0.7,1c0.1,0.6,0.1,1.1,0.1,1.7l0.1,0.4   c0.1,0.5,0.1,1.1,0.1,1.6l0.1,0.2l0.1,1.9l0.2,0.6l0.2,2l0.1,0.2c0.1,0.6-0.2,0.9-1,0.8l-0.4-0.1l-0.3-0.6   c-0.2-0.9-0.3-1.9-0.4-2.9c-0.4-0.1-0.9-0.1-1.4-0.1l-0.9,2.8c0,0.3-0.3,0.5-0.6,0.6c-0.4,0-0.8-0.1-1.1-0.3   c0.1-0.7,0.3-1.5,0.6-2.2l0.1-0.1l0.8-3l0.1-0.1l0.2-0.8l0.1-0.1v-0.3l0.3-0.6C204.5,183,204.9,182.1,205.5,181.4L205.5,181.4z    M205.2,186.6v0.3l0.9,0.1c0-0.9,0-1.8-0.2-2.6C205.6,185.1,205.4,185.8,205.2,186.6L205.2,186.6z M224.4,184.9   c0.8,0.1,1.6,0.5,2.2,1.1c0.5,0.7,0.6,1.6,0.3,2.4c-0.3,0.9-0.6,1.2-1,1l-0.7-0.3c-0.1-0.1-0.1-0.2,0-0.3l-0.1-0.2l0.2-0.7L225,187   l-0.4-0.2c-0.3,0.1-0.6,0.2-0.9,0.4l-0.6,0.7L222,192c0,0.3,0,0.7,0.1,1l0.2,0.4l0.8,0.3l0.4-0.1l0.4-0.5l0.2-0.9l-0.1-0.1   c-0.4-0.1-0.7-0.4-0.9-0.8c0.1-0.8,0.4-1.2,0.7-1.2c0.6,0.1,1.1,0.4,1.6,0.7c0.2,0.4,0.3,0.9,0.2,1.4l-0.6,1.7l-0.5,0.9l-0.4,0.3   c-0.6,0.2-1.2,0.3-1.8,0.1c-0.6-0.1-1.1-0.4-1.5-0.7l-0.3-0.4h-0.1l-0.4-1.9l0.3-0.9l0.3-1.7l1-2.8c0.2-0.4,0.4-0.7,0.7-1l1-0.7   L224.4,184.9z M241.6,193.2l3.3,2.5c0.2,0.2,0.3,0.5,0.2,0.7l-0.5,0.7h-0.4l-2.7-1.9h-0.2c-0.5,0.6-0.9,1.3-1.3,2v0.1l1.7,1.2v0.4   l-0.6,0.9l-0.4,0.1l-1.6-1.2c-0.1,0-0.2,0.1-0.3,0.3l-1.2,1.8l2.3,1.7c0.4,0.3,0.5,0.6,0.3,0.8l-0.6,0.9l-0.4-0.1l-2.9-2.2   l-0.9-0.6l-0.1-0.3l1.7-2.7l3.7-5.4l0.3-0.1L241.6,193.2z M75.2,201.9c0,0,28.7-2,49.4,4.8l0,0c0,0,0.1-0.2,0.4-0.5   c1.8-2.4,4-8,19.1-16c9.8-5.2,32.5-12.6,52-16.9c11.5-2.5,22.5-3.9,28.5-5.2c1.4-0.3,2.9-0.5,4.3-0.8c0.5-0.2,2.3-0.6,2.9-0.8   c9.4-2.6,17.4-8.6,22.6-16.8c3.6-5.9,3.9-8.7,4-10.8v-0.4c0.1-6.6-2.6-8.1-2.6-8.1s-3.2-2.4-7.2,1.3c-1.4,1.5-2.8,3-4,4.7   c-0.3,0.6-1.7,2.5-1.7,2.5c-0.5,0.7-1.1,1.4-1.7,2l-0.1,0.1c-0.9,0.8-1.9,1.5-3,2c-0.9,0.4-1.9,0.5-2.9,0.2c-2.5-0.9-1-5.8,0-8.6   l0,0c0.2-0.4,0.3-0.8,0.5-1.2s0.3-0.6,0.3-0.6l0,0c1-2.6,1.7-4.1,3.5-5.8c0.6-0.6,2.4-1.1,2.4-1.8s-2.1-1.4-2.4-2.1   c-0.3-0.7-0.4-1.5-0.3-2.3c0.1-1.8,0.6-3.8,0.1-5.5c-0.6-2.3-2.5-3.9-4.9-4.2c-2.7-0.2-6.1,1.6-8.4,3.1c1.5-2.3,6.1-8.9,9-10.6   c1.6-0.9,3.3-1.1,4.2,0.2l0.1,0.3c0.4,0.7,0.8,2-0.1,4.1c5.7-1,10.4-7.8,7.4-12.3c-2.8-4.1-10.6-0.1-13.4,2.5   c-2.9,2.8-5.5,5.9-7.8,9.2c-1.8,2.5-3,4-4.5,6.4c-0.5,0.9-1.1,1.4-1.8,2.6c0.3-1.7,0.3-1.8,0.6-3.2c0.6-2.8,1.1-5.4,1.7-7.9   c1.5-6.2,1.3-5.7,2.6-12c0.3-1.6,0.8-3.2,1.1-4.8c0.7-3.5,1-4.5,2-8c-0.3-0.1-0.6,0-0.8,0.3c-3.4,6.4-8.5,9.9-17.1,12.9   c1.3,1.2,2.1,2.1,1.8,4.6c-0.2,2-0.8,4.1-1.2,6.3c-0.9,4.3-0.9,3.1-1.8,7.5l-1.8,8.2c-0.8,3.8-1.7,7.5-4,9.6   c-0.7,0.6-2.1,0.9-2.2,1.5s1.7,1.1,2.1,1.7c0.6,0.8,0.8,1.8,0.6,2.7c-0.6,2.5-1.7,4.7-3.4,6.7c-2.9,3.3-6.2,6.6-9.2,7.4H190   c-1,0.3-2.1,0.2-3-0.3c-1.8-0.9-1.6-3.3-1.4-4.5l0.1-0.4c0-0.2,0.1-0.3,0.1-0.3l0,0c0.2-1,0.5-1.8,0.6-2.4c0.9-3.6,1.6-5.6,3.9-7.7   c0.6-0.6,2.4-1.1,2.4-1.8s-2.1-1.4-2.4-2.1c-0.6-1.3-0.2-3.8,0.1-5c0.6-2.8,1.9-5.5,2.2-8.5c0.6-6.1-3.9-9.1-9.6-7.3   c-5.3,1.7-9.3,6-12.5,9.2c0.2-2.7,1.3-5.7,1.6-8.7c-0.2,0-0.2-0.1-0.4-0.1c-3.3,3.5-8.8,6-15.5,6.8c0.8,1.6,1.7,2.1,1.5,4.2   c-0.3,3-1.4,6.1-2,8.8c-0.2,0.7-0.2,0.8-0.4,1.5c-0.4,2.4-1.6,4.7-3.4,6.4c-0.5,0.4-2.4,1.1-2.4,1.5s1.9,1.1,2.2,1.5   c0.4,0.6,0.6,1.2,0.6,1.9c-0.5,2.8-1.8,5.4-3.6,7.6c-2.9,3.3-6.2,6.6-9.2,7.4h-0.3c-1,0.3-2.1,0.2-3-0.3c-2-0.9-1.6-3.7-1.4-4.8   c0.2-0.9,0.5-1.9,0.7-2.9c0.6-2.8,1.9-5.4,3.8-7.5l0.2-0.1c0.3-0.2,1-0.6,1.6-1s1-0.6,1-0.9c0-0.1-0.1-0.3-0.2-0.3   c-0.2-0.2-0.5-0.4-0.7-0.5c-0.6-0.4-1.3-0.8-1.5-1.3c-0.6-1.3-0.2-3.8,0.1-5c0,0,0.2-0.6,0.5-1.6c0.4-1,0.7-2,0.9-3.1   c0.1-0.8,0.2-1.6,0.3-2.4c0-0.5,0-1,0-1.4c0-0.2,0-0.4-0.1-0.6c-0.2-1.8-1.1-3.4-2.4-4.7c-0.6-0.5-1.3-1-2.1-1.3   c-4-1.6-11.3-1-16,0.9c-5.8,2.5-11.7,7-12.9,12.4c-0.2,1-0.3,2-0.2,3c1.1,7.6,13.2,3.6,16.4-1.4c-4,1.4-6-1-5.9-4s1.6-4.6,4.3-6.5   c1.2-0.7,2.6-1.2,4-1.4c4.7-0.4,2.3,7.7,1.7,10.3c-0.7,3-3.5,4.9-6.3,6.6c-5.9,3.7-14,8.6-17.7,12.3c-1.8,1.8-4.3,4.2-4.7,7.8   c-0.6,5.1,2.3,8.7,6.2,9.3c7.1,1.2,12.2-4,16.4-7.6c0.4,4.1,2.4,6.1,6.1,6.1c0.7,0,1.5-0.1,2.2-0.2c3.4-0.3,12.9-1.9,19.3-10.4   c-0.1,0.5-0.2,1-0.3,1.5c-0.2,1.7-0.2,4.2,2.1,3.9c3.5-0.5,7.2-0.9,11.6-1.8c-0.8-0.5-1.3-1.2-1.6-2c-1.4-3.4,1.3-8.1,2-10.9   l0.2-0.7c0.1-0.2,0.1-0.4,0.2-0.6c0.4-1.1,0.7-1.6,1.2-2.9c0.3-0.9,0.7-1.7,1.1-2.5c0.4-0.6,0.9-1.1,1.4-1.6   c0.6-0.6,2.4-1.1,2.4-1.8c0-0.5-1.6-1.2-2.2-1.9c-0.2-0.5-0.4-1-0.4-1.6c0-1.1,0.1-2.3,0.3-3.4c0.6-1.9,2.5-3.8,4.1-5.7   c1-1.1,2-2.1,3.1-3c0.9-0.8,2.7-2.4,4-2.2c1.1,0.2,1.2,2,1,3.2c-0.1,0.7-0.2,1.5-0.4,2.2c-0.9,4.4-2.4,8.4-4.8,10.6   c-0.2,0.2-1.7,0.9-1.7,1.3c-0.1,0.6,1.5,1.2,1.8,1.6c0.5,0.9,0.7,1.9,0.6,2.9c-0.2,4.8-3.4,8.8-2.3,13.6c0.4,2.3,2.3,4.1,4.6,4.4   c0.7,0.1,1.5,0.1,2.2,0.1h0.1c0,0,11.6,0,19.5-9.1c0,0.1,0.2-0.2,0.1-0.1l0.9-1.2c0,0-1.7,5.8,1.8,5.4c3.9-0.5,7.9-1.1,11.8-1.9   c-2.5-1.5-1.6-4.5-1.2-7.6c0.3-1.9,0.8-3.3,1.2-5.6c0.4-2,0.8-3.5,1.3-5.3c1.1-3.8,1.5-4.9,3.1-7.5c0.9-1.3,1.9-2.6,2.9-3.8   c0.8-0.8,3.1-2.5,4.6-2.2s1.4,2.7,1.1,4.3c-0.6,3.4-1.5,6.8-2.7,10.1l-1.4,4.1c-0.7,1.8-1.2,3.6-1.6,5.5c-0.4,3.1,0.5,5.1,2.2,6.2   c0.3,0.2,3.1,2.3,11.5,0.4c0.5-0.1,1-0.2,1.4-0.3c0.4-0.1,0.8-0.2,1.1-0.4c0.4-0.1,0.8-0.3,1.2-0.4c6.2-3.3,8.4-7.3,8.4-7.3   s2.2-4.1,3.5-4c2.7,0.3,1.1,4.1,0.9,4.4l-0.1,0.1c-1.6,2.8-3.7,5.2-6.1,7.2c-2.5,2.3-5.4,4.2-8.5,5.7c-3.2,1.4-6.6,2.4-10,3   l-3.8,0.7c-10,1.9-36.9,4.9-57.7,7.9c-30.8,4.4-71.9,10-94,30.8l0,0l-1.1,1.2c0,0-3.7,3.7-0.8,3.6c0.1,0,4.7-0.4,6-0.5L75.2,201.9z    M124.6,147.9c-0.3,1.6-0.8,3.1-1.5,4.6c-0.7,1.5-1.7,2.9-2.9,4c-1.3,1.2-3.6,3.3-6.4,3.1c-2.4-0.1-3.2-2.4-2.6-5   c1.5-5.9,11.2-9.4,14.3-13.1c0.1,0,0.3-0.5,0.3,0.1C125.6,143.6,125,145.7,124.6,147.9L124.6,147.9z M169.6,95.9   c-0.3-1.8-2.3-0.1-3.7,0.7l-3.2,1.6c-5.9,2.5-9.3,3.1-16.1,2c-3.5-0.6-6.3-1.7-9.6-2.5c-3.5-0.9-6.1-1.4-9.7-2   c-2.8-0.6-5.6-1.1-8.4-1.3c-5-0.3-9.9-0.1-14.9,0.5v-0.1c-35.8,3.5-56.4,26.8-57.4,38.6s8.2,15.1,8.2,15.1h0.1   c2.2,0.8,4.6,1,6.9,0.5c6.1-0.8,11.3-4.6,13.9-10.2c-12,0.9-12.2-6.3-12.2-6.3c-1-6,3.1-12.2,6-15.9c5.6-6.9,14.6-13.4,23.9-15   c9.6-1.6,17.6,0.9,23.7,3.1c0,0,6.3,2.5,8.7,3.2c2.1,0.7,3.2,1.3,5,1.8c9.7,2.7,17,1.2,25.8-3.4c3.8-1.9,7.4-4.4,10.5-7.3   C167.9,98.4,169.7,96.8,169.6,95.9L169.6,95.9z"></path></g></svg>