<?xml version="1.0" encoding="UTF-8" standalone="yes"?>
<svg version="1.2" baseProfile="tiny-ps" viewBox="0 0 96 96" width="96" height="96" fill="none" xmlns="http://www.w3.org/2000/svg">
  <title>wordtune</title>
  <rect width="96" height="96" fill="white"/>
  <path fill-rule="evenodd" d="M74.1728 7.92461L82.1578 7.389C82.5131 7.3684 82.6803 7.80101 82.4503 8.02761L75.2389 14.0428L73.6084 22.2209C73.5248 22.5505 73.044 22.6123 72.9186 22.2827L70.0758 15.4436L63.2197 14.908C62.8852 14.8874 62.7598 14.4548 63.0315 14.2694L69.6577 9.552L70.891 0.302649C70.9328 -0.0681494 71.4554 -0.109347 71.5809 0.240852L74.1728 7.92461ZM75.6354 34.3524C75.5936 35.815 75.5308 37.257 75.4472 38.699C75.3218 40.6766 75.1127 42.6541 74.8619 44.6111C74.3393 48.5457 73.566 52.4597 72.4581 56.2913C71.8937 58.2071 71.2667 60.1023 70.5142 61.9769C70.1379 62.9038 69.7407 63.8309 69.3227 64.7578L69.1818 65.0493L69.1817 65.0494C68.7891 65.8621 68.391 66.686 67.943 67.477C66.9606 69.2692 65.8319 70.9996 64.4941 72.6476C63.8252 73.4716 63.0936 74.2544 62.2993 75.0166C61.505 75.7582 60.627 76.4792 59.6237 77.0766C58.6412 77.6946 57.5333 78.2096 56.3209 78.5598C55.1086 78.8894 53.7499 79.013 52.4121 78.8276L51.9105 78.7452C51.7432 78.704 51.576 78.6628 51.4297 78.6216C51.2067 78.5666 51.0023 78.4934 50.7979 78.4201C50.6957 78.3835 50.5936 78.3469 50.4891 78.3126C49.8829 78.0654 49.2976 77.777 48.7541 77.4268C47.688 76.747 46.8102 75.9024 46.0576 75.0372C45.9512 74.909 45.8514 74.7807 45.7546 74.6563L45.7545 74.6562C45.6802 74.5607 45.6076 74.4674 45.5351 74.378L45.2633 73.9866L45.2215 74.0278C43.7165 75.4904 42.0025 76.7676 40.0794 77.7564C39.8495 77.88 39.5986 78.0036 39.3477 78.1066C39.2223 78.1581 39.0969 78.2147 38.9715 78.2714C38.8461 78.328 38.7207 78.3847 38.5953 78.4362C38.0936 78.6422 37.592 78.8276 37.0694 78.9924C36.5468 79.1572 36.0033 79.3014 35.418 79.4044C34.8536 79.5074 34.2265 79.5692 33.5785 79.5692C32.9305 79.5692 32.2408 79.4662 31.551 79.2396C30.8612 79.013 30.1923 78.6422 29.6279 78.1478C29.0635 77.674 28.6455 77.0972 28.332 76.5204C28.0184 75.9436 27.7884 75.3668 27.6212 74.8106C27.2868 73.6982 27.1613 72.6064 27.0777 71.5764C27.015 70.5258 27.015 69.5164 27.0568 68.507C27.1404 66.5088 27.3704 64.5724 27.6212 62.6566C27.7126 61.9583 27.8096 61.2627 27.9061 60.5709L27.9061 60.5707C28.0743 59.3646 28.2408 58.1698 28.3737 56.9917L28.4574 56.2913C28.4699 56.1426 28.4825 56.0163 28.495 55.8899C28.5034 55.8062 28.5117 55.7224 28.52 55.6321L28.5409 55.3025V54.9935C28.5409 54.9256 28.5432 54.8554 28.5455 54.7845C28.5502 54.6403 28.5549 54.493 28.5409 54.3549C28.5409 53.5309 28.4156 52.7275 28.1856 52.1301C28.0602 51.8623 27.9348 51.6357 27.8094 51.5327C27.684 51.4297 27.6212 51.3885 27.4539 51.3679C27.2867 51.3473 27.0359 51.3885 26.7224 51.4709C26.6766 51.4902 26.6288 51.5076 26.5796 51.5254L26.5795 51.5254C26.4714 51.5646 26.3565 51.6061 26.2417 51.6769L25.9908 51.8005L25.7399 51.9447C25.071 52.3567 24.4021 52.9129 23.7959 53.5515C23.1688 54.1695 22.5627 54.8699 21.9983 55.5703C20.8486 57.0123 19.8035 58.5779 18.7584 60.1847C18.5702 60.4937 18.1522 60.5761 17.8386 60.3907C17.5878 60.2259 17.4833 59.9169 17.5669 59.6491C17.8595 58.7221 18.1939 57.7951 18.5911 56.8887C18.9673 55.9823 19.4272 55.0965 19.9289 54.2107C20.4306 53.3455 21.0159 52.5009 21.6639 51.6769C22.3328 50.8735 23.0644 50.0907 24.005 49.4315L24.3603 49.1843C24.4469 49.1274 24.5335 49.0804 24.6269 49.0296L24.627 49.0296L24.6271 49.0295C24.669 49.0067 24.7122 48.9832 24.7575 48.9577C25.0082 48.793 25.3007 48.6694 25.5932 48.5459L25.5937 48.5457C26.1999 48.3191 26.9105 48.1337 27.7257 48.1955C27.9347 48.2161 28.1229 48.2367 28.332 48.2779C28.4365 48.3088 28.5357 48.3397 28.635 48.3706C28.7343 48.4015 28.8336 48.4324 28.9381 48.4633C29.1262 48.5457 29.3144 48.6487 29.5025 48.7517C29.614 48.8204 29.7254 48.9073 29.8369 48.9943C29.8927 49.0378 29.9484 49.0813 30.0042 49.1225C30.6104 49.6581 30.9866 50.2761 31.2583 50.8735C31.76 52.0683 31.8854 53.1807 31.9481 54.2725C31.969 54.5403 31.9691 54.8081 31.9691 55.0759V55.4673L31.9481 55.8587C31.9379 55.9801 31.9326 56.1114 31.9275 56.2404V56.2405C31.9222 56.3742 31.9169 56.5056 31.9063 56.6209L31.8436 57.3419C31.7461 58.3454 31.6318 59.3378 31.5181 60.3249L31.5181 60.325L31.5181 60.3251C31.4124 61.2427 31.3072 62.1557 31.2166 63.0687C31.0075 64.9433 30.8403 66.8178 30.7985 68.6306C30.7776 69.537 30.7775 70.4434 30.8611 71.3086C30.9238 72.1738 31.0702 72.9978 31.3001 73.7188C31.4047 74.069 31.551 74.3986 31.6973 74.6664C31.8436 74.9342 32.0317 75.1196 32.199 75.2844C32.3662 75.4286 32.5544 75.5316 32.7843 75.5934C33.0142 75.6552 33.3068 75.6964 33.6203 75.6964C34.9372 75.6964 36.714 75.0372 38.1981 74.2544C39.7031 73.451 41.1036 72.4004 42.3578 71.1644C42.4484 71.0683 42.5413 70.9744 42.6342 70.8805C42.82 70.6929 43.0058 70.5052 43.173 70.2992C43.1103 70.1653 43.0476 70.0262 42.9849 69.8872C42.9222 69.7481 42.8595 69.6091 42.7968 69.4752C41.9816 67.5388 41.3962 65.5406 41.02 63.5013C40.6437 61.4619 40.4974 59.3813 40.5601 57.3213C40.6229 55.2613 40.8737 53.2013 41.3545 51.1825C41.8352 49.1637 42.5041 47.1861 43.5283 45.2703C44.0509 44.3227 44.6571 43.3752 45.4723 42.4688C45.8904 42.0156 46.3503 41.5829 46.9355 41.1709C47.5208 40.7796 48.2525 40.3882 49.1931 40.244C49.653 40.1616 50.1756 40.1822 50.6563 40.2646C51.158 40.3676 51.6178 40.5324 52.0359 40.759L52.6003 41.1298C52.7675 41.2534 52.9347 41.3976 53.0601 41.5417L53.2692 41.7477C53.3006 41.7889 53.3319 41.825 53.3632 41.8611C53.3946 41.8971 53.4259 41.9331 53.4573 41.9743C53.5827 42.1185 53.6873 42.2627 53.7918 42.4275C54.1889 43.0249 54.4606 43.6223 54.6697 44.1991C54.8787 44.7759 55.025 45.3527 55.1295 45.8883C55.3385 47.0007 55.4221 48.0719 55.4221 49.1225C55.443 50.1731 55.3803 51.2031 55.2758 52.2331C55.0668 54.2725 54.6487 56.2501 54.1262 58.2071C53.5827 60.1435 52.9138 62.0593 52.0777 63.8926C51.2625 65.7466 50.3009 67.5388 49.1512 69.2486C49.0032 69.482 48.8448 69.705 48.6832 69.9324C48.6166 70.0261 48.5495 70.1206 48.4823 70.2168L48.6705 70.5464L49.0049 71.0614L49.3604 71.5558L49.7366 72.009C50.2383 72.5858 50.8026 73.0802 51.367 73.4304C51.6387 73.6158 51.9314 73.7394 52.224 73.8424C52.2728 73.8561 52.3216 73.8722 52.3704 73.8882C52.4679 73.9202 52.5654 73.9523 52.6629 73.966C52.6804 73.9703 52.6969 73.9746 52.7127 73.9787C52.7727 73.9943 52.8224 74.0072 52.872 74.0072L53.1019 74.0484C53.3946 74.0896 53.6872 74.0896 54.0008 74.069C54.3143 74.0484 54.6279 73.966 54.9414 73.8836C55.5894 73.6982 56.2374 73.3686 56.8854 72.9566C58.1814 72.112 59.3938 70.8966 60.4389 69.5576C60.9615 68.8778 61.4631 68.1568 61.9439 67.4152C62.4246 66.6736 62.8427 65.8908 63.2608 65.0874C64.9121 61.9151 66.1245 58.4337 67.0025 54.8905C68.7792 47.7835 69.239 40.3264 68.7583 32.9722V32.9516V32.8486C68.7164 32.2306 68.5493 30.0676 68.1521 27.9664C62.2366 24.1142 55.1295 21.8482 47.5 21.8482C26.7851 21.8482 10 38.39 10 58.8045C10 79.219 26.7851 95.7607 47.5 95.7607C68.2148 95.7607 84.9999 79.219 84.9999 58.8045C85.0208 49.4109 81.4673 40.862 75.6354 34.3524ZM48.7527 45.4141C48.2719 45.9497 47.833 46.6295 47.4567 47.3505C46.6833 48.8337 46.1189 50.5023 45.7427 52.2121C44.9692 55.6317 44.9066 59.2573 45.5755 62.6975C45.7846 63.7687 46.0562 64.7986 46.4116 65.8286C47.0805 64.6956 47.6658 63.5008 48.1884 62.2855C48.8991 60.6169 49.5052 58.9071 49.9651 57.1561C50.425 55.4051 50.7595 53.6335 50.9267 51.8619C51.0103 50.9761 51.0521 50.0903 51.0312 49.2457C51.0103 48.3805 50.9476 47.5359 50.7803 46.7737C50.6967 46.3823 50.5922 46.0321 50.4877 45.7025C50.3623 45.3729 50.2368 45.1051 50.0905 44.8991C50.0731 44.8819 50.0593 44.8612 50.0461 44.8413C50.0276 44.8135 50.0104 44.7875 49.986 44.7755C49.9756 44.7652 49.9703 44.7549 49.9651 44.7446C49.9599 44.7343 49.9546 44.724 49.9442 44.7137L49.9023 44.6725C49.8892 44.6467 49.8679 44.637 49.8486 44.6284C49.8372 44.6232 49.8265 44.6184 49.8188 44.6107C49.8188 44.6107 49.7978 44.6107 49.7978 44.5901C49.7904 44.5938 49.7789 44.5988 49.7642 44.6052C49.6964 44.6347 49.559 44.6946 49.4216 44.7961C49.2126 44.9197 48.9826 45.1463 48.7527 45.4141Z" fill="#753FEA"/>
</svg>