<?xml version="1.0" encoding="utf-8"?>
<!-- Generator: Adobe Illustrator 28.1.0, SVG Export Plug-In . SVG Version: 6.00 Build 0)  -->
<svg version="1.2" baseProfile="tiny-ps" id="Calque_1"
	 xmlns="http://www.w3.org/2000/svg" xmlns:xlink="http://www.w3.org/1999/xlink" viewBox="-10 -25 110 100"
	 xml:space="preserve">
         <title>Joinsteer</title>
<g>
	<path fill="#003D45" d="M3.8,42.5h5V45c0,2.2-2,2.4-3.5,2.4c-1.4,0-3.1-0.2-3.5-1.7H0C0.4,48.2,2.5,49,5.3,49c3,0,5.3-1,5.3-4.1
		v-4.1H3.9L3.8,42.5C3.9,42.5,3.8,42.5,3.8,42.5z"/>
	<path fill="#003D45" d="M17.8,40.7c-3.6,0-5.8,1.1-5.8,3.9v0.6c0,2.8,2.2,3.9,5.8,3.9s5.8-1.1,5.8-3.9v-0.6
		C23.6,41.7,21.3,40.7,17.8,40.7z M21.8,45.2c0,1.9-2,2.3-4.1,2.3s-4.1-0.4-4.1-2.3v-0.6c0-1.9,2-2.3,4.1-2.3s4.1,0.4,4.1,2.3V45.2z
		"/>
	<polygon fill="#003D45" points="37.2,46.8 30.3,40.9 28.5,40.9 28.5,48.9 30.3,48.9 30.3,43 37.1,48.9 39,48.9 39,40.9 37.2,40.9 	
		"/>
	<path fill="#003D45" d="M48.1,44.2l-3.5-0.5c-1.5-0.2-2.3-0.5-2.3-1.2h5.9l-1.6-1.7h-3.5c-1.6,0-2.5,0.5-2.5,1.7v0.3
		c0,1.2,1.3,2,3.1,2.2l3.9,0.6c0.8,0.1,1.2,0.3,1.2,0.7v0.2c0,0.5-0.8,0.8-3.1,0.8c-2,0-3.5-0.4-3.8-1.7h-1.8
		c0.1,2.3,2.5,3.3,5.5,3.3s4.8-0.8,4.8-2.3v-0.5C50.6,45.1,49.7,44.5,48.1,44.2L48.1,44.2z"/>
	<polygon fill="#003D45" points="49.6,42.5 54,42.5 54,48.9 55.8,48.9 55.8,42.5 60.2,42.5 60.2,40.9 49.6,40.9 	"/>
	<polygon fill="#003D45" points="63.2,45.6 68.6,45.6 68.6,44.1 63.2,44.1 63.2,42.5 64.6,42.5 66.9,42.5 68.1,42.5 69.7,40.9 
		66.9,40.9 63.8,40.9 61.4,40.9 61.4,48.9 70.5,48.9 70.5,47.3 63.2,47.3 	"/>
	<path fill="#003D45" d="M88.4,45.8l2.1-0.2c1.7-0.1,2.8-0.7,2.8-2.3c0-1.5-1.1-2.4-2.8-2.4h-8.1v8h1.8v-2.8l1.1-0.1l6.3,2.9h3.6
		L88.4,45.8L88.4,45.8z M84.3,44.6v-2.1h6.4c0.6,0,0.9,0.2,0.9,0.7S91.2,44,90.7,44L84.3,44.6z"/>
	<polygon fill="#003D45" points="73.7,45.6 79.1,45.6 79.1,44.1 73.7,44.1 73.7,42.5 75.1,42.5 77.4,42.5 78.6,42.5 80.2,40.9 
		77.4,40.9 74.3,40.9 71.9,40.9 71.9,48.9 80.9,48.9 80.9,47.3 73.7,47.3 	"/>
	<rect x="25.1" y="40.9" fill="#003D45" width="1.8" height="8"/>
</g>
<path fill="#003D45" d="M59.9,31.4l-0.5-0.8c-0.3-0.6-0.8-1.6-1.6-2.1l-5.2-2.9l-2.2,0.6l-2.7-9.4c-0.5-1.3-1.5-2.5-2.8-3.2L21.6,0
	l1.9,5.2c0.2,0.8,0.7,1.4,1.3,1.9L39,16.9l-12.8-5.4l1,3.8c0.1,0.4,0.3,0.7,0.5,1c0.1,0.1,0.2,0.3,0.4,0.4l11.4,7.9l-9.2-3.8
	l1.2,4.5c0.2,0.9,1,1.6,1.4,2.1l9.3,9.4c1-1.7,3.4-3.3,7-4.8c1.6-0.6,3.1-1,4.6-1.3C56.2,30.2,58.3,30.4,59.9,31.4L59.9,31.4
	L59.9,31.4z"/>
</svg>
