<?xml version="1.0" encoding="utf-8"?>
<!-- Generator: Adobe Illustrator 28.2.0, SVG Export Plug-In . SVG Version: 6.00 Build 0)  -->
<svg version="1.2" baseProfile="tiny-ps" id="Layer_1" xmlns="http://www.w3.org/2000/svg" xmlns:xlink="http://www.w3.org/1999/xlink"
	  viewBox="0 0 170.08 170.08"  xml:space="preserve">
<title>CruiseOnline Group BV</title>
<rect fill-rule="evenodd" fill="#FFFFFF" width="170.1" height="170.1"/>
<g>
	<path fill-rule="evenodd" fill="#427CAC" d="M151.1,76.6c-0.3,0.4-8.7,14-22.1,16.9c-0.3,0.1-0.6,0.1-0.9,0.2
		c-0.8,0.2-1.7,0.3-2.5,0.3c-21.3,1.5-31.7-12.4-38.3-19c-7.4-7.4-20.2-18.8-40-12.5c-2,0.6-4,1.5-6.2,2.5V24.4H129v38.5
		c-3.4,0-5.7-1.8-12.9-9c-13.4-13.4-33.4-16.4-49.6-8.8c11.6-1,23.3,7.6,29.6,13.9c9.9,9.9,18.7,19.9,32.7,21.4c0,0,0,0,0,0
		c0.1,0,0.1,0,0.2,0C135.2,81.2,142.4,80.1,151.1,76.6z"/>
	<path fill-rule="evenodd" fill="#427CAC" d="M129,105.1v40.6H41.1v-38.5c3.4,0,5.7,1.8,12.9,9c13.4,13.4,33.4,16.4,49.6,8.8
		c-11.6,1-23.3-7.6-29.6-13.9c-9.8-9.8-18.7-19.9-32.7-21.4c-0.1,0-0.2,0-0.2,0C34.9,88.9,27.7,90,19,93.4c0.3-0.4,8.7-14,22.1-16.9
		c0.3-0.1,0.6-0.1,0.9-0.2c0.8-0.2,1.7-0.3,2.5-0.3c21.3-1.4,31.7,12.4,38.3,19c7.4,7.4,20.2,18.8,40,12.5
		C124.8,106.9,126.8,106.1,129,105.1z"/>
</g>
</svg>
