<?xml version="1.0" encoding="UTF-8"?>
<svg version="1.2" baseProfile="tiny-ps" id="Laag_1" xmlns="http://www.w3.org/2000/svg" xmlns:xlink="http://www.w3.org/1999/xlink" viewBox="0 0 559 515">
    <title>Company title</title>
    <g>
        <g />
    </g>
    <g>
        <g>
            <path d="M205.5,20.6l36.8,28.3v72c0,1.3-.6,1.7-1.8,1.4l-34.3-9.1c-.3,0-.5-.2-.7-.5-.2-.2-.3-.5-.3-.8l.4-91.3Z" fill="#dadada" />
        </g>
    </g>
    <g>
        <g>
            <path d="M349.2,21.2c-3.7,2.6-4.7,3.5-8,5.2-.9.5-2.3,2.6-2.3,2.6l-27.1,19.6-69.5.2-36.8-28.3,143.7.6Z" fill="#bbbab9" />
        </g>
    </g>
    <g>
        <g>
            <path d="M349.2,21.2l-.2,165.6c0,.2,0,.4-.1.6,0,.2-.2.4-.4.5-.2.2-.3.3-.5.4-.2,0-.4.1-.6.1h-34.5c-.3,0-.5-.1-.7-.3-.2-.2-.3-.5-.3-.7V48.7c-.1,0,15.2-11.7,15.2-11.7l15.8-11.9s4-2.6,6.4-3.9Z" fill="#878786" />
        </g>
    </g>
    <g>
        <g>
            <path d="M303.9,125.9c.7-.3,1,0,1,.7v23.4c0,.5-.3,1-.8,1.2-19.7,10.7-42.2,10.1-63.7,4.6-14.1-3.6-27.8-7.2-41.1-10.5-22-5.6-42.3-3.9-60.9,5-.4.2-.7,0-.7-.4v-23.7c0-.2,0-.4.1-.6.1-.2.3-.3.4-.4,19.1-10.8,43.1-10.3,64.3-4.6,15.6,4.2,31.2,8.1,46.6,11.7,18.5,4.2,36.7,2.2,54.6-6.2Z" fill="#004996" />
        </g>
    </g>
    <g>
        <g>
            <path d="M476.1,128.4c.5-.2.7,0,.7.4l-.2,23.4c0,.8-.4,1.4-1.1,1.8-22,11.4-46.7,9.3-69.7,2.6-16.4-4.7-32.4-8.6-48-11.5-2-.4-2.8-1.5-2.7-3.5.5-6.3.5-12.8.2-19.6-.1-2.1.9-2.9,2.9-2.4,5.2,1.2,10.7,1.6,15.8,3.1,15.7,4.4,31.3,8.3,46.7,11.8,19.3,4.4,37.7,2.3,55.4-6.1Z" fill="#004996" />
        </g>
    </g>
    <g>
        <g>
            <path d="M57.2,253v37.4c0,.5-.1.9-.5,1.3-.3.3-.8.5-1.3.5H22.5c-.4,0-.8-.2-1.1-.5-.3-.3-.5-.7-.5-1.1v-69.3c0-.3.1-.6.4-.8.2-.2.5-.4.9-.4,25.2-.1,51-.1,77.4,0,44.2.2,68,29.2,71.8,71.1,4.7,50.2-13.4,107.2-72.1,107.9-25,.3-50.6.3-76.8.2-.4,0-.8-.2-1.1-.5-.3-.3-.5-.7-.5-1.1v-76.2c0-.4.1-.8.4-1.1.3-.3.7-.4,1.1-.4h33.4c.4,0,.8.1,1,.4.3.3.4.7.4,1v45.7c0,.5.2.8.8.8,12.8.1,25,0,36.6-.1,7.5-.1,14.3-2.6,20.6-7.4,19.6-15.1,20.4-48.4,17.8-70.4-2.4-20.2-10.9-37.3-33.8-38.2-13.3-.5-26.8-.6-40.4-.3-1,0-1.5.5-1.5,1.5Z" fill="#000" />
        </g>
    </g>
    <g>
        <g>
            <path d="M242.1,321.9v75.6c.1.5,0,.9-.4,1.2-.3.3-.8.5-1.2.5h-33.7c-.5-.1-.9-.3-1.2-.6-.3-.3-.5-.8-.5-1.2v-75.6c0-.2,0-.5-.1-.7,0-.2-.2-.4-.4-.6-.2-.2-.4-.3-.6-.4-.2,0-.4-.1-.7-.1l-18.2.2c-.2,0-.5,0-.7-.1-.2,0-.4-.2-.6-.4-.2-.2-.3-.4-.4-.6,0-.2-.1-.4-.1-.7v-24.7c0-.5.2-.9.5-1.2.3-.3.8-.5,1.2-.5h18.2c.5.1.9,0,1.2-.4.3-.3.5-.8.5-1.2v-68.6c0-.5.2-.9.5-1.2.3-.3.8-.5,1.2-.5h33.7c.5,0,.9.2,1.2.5.3.3.5.8.5,1.2v68.5c-.1.5,0,.9.4,1.2.3.3.8.5,1.2.5h66.3c.2-.1.5-.2.7-.3.2,0,.4-.2.6-.4.2-.2.3-.4.4-.6,0-.2.1-.4.1-.7v-68.4c0-.5.1-.9.4-1.2.3-.3.8-.5,1.2-.5l33.9-.2c.2,0,.5,0,.7.1.2,0,.4.2.6.4.2.2.3.4.4.6,0,.2.1.4.1.7v175.8c0,.5-.2.9-.5,1.2-.3.3-.8.5-1.2.5h-33.9c-.2,0-.5,0-.7-.1-.2,0-.4-.2-.6-.4s-.3-.4-.4-.6c0-.2-.1-.4-.1-.7v-75.6c0-.2,0-.5,0-.7,0-.2-.2-.4-.4-.6-.2-.2-.4-.3-.6-.4-.2,0-.4-.1-.7-.1h-66.3c-.2,0-.5,0-.7.1-.2,0-.4.2-.6.4-.2.2-.3.4-.4.6,0,.2-.1.4-.1.7Z" fill="#000" />
        </g>
    </g>
    <g>
        <g>
            <path d="M512.2,303.7c21.5,8.7,29.3,31.1,24.7,52.1-7.5,34.1-34.3,43.2-65.5,43.3-26.4,0-52.8,0-79.4,0-1.1,0-1.7-.6-1.7-1.7v-76.5c.1-.2,0-.5-.1-.6s-.4-.3-.6-.3h-26.4c-.3,0-.7-.2-.9-.4-.2-.2-.4-.6-.4-.9v-24.5c0-.6.2-1.1.6-1.5.4-.4.9-.6,1.5-.6h24.8c1.1,0,1.6-.6,1.6-1.6v-69.2c0-.2,0-.3,0-.5s.2-.3.3-.4c.1-.1.3-.2.4-.3.2,0,.3,0,.5,0,28.5,0,56.1,0,82.7,0,31.1,0,58.1,11.8,57.9,48-.1,15-6.5,27-20.1,34.1-.1,0-.3.2-.4.3,0,.1-.1.3-.1.5,0,.2,0,.3.2.5,0,.1.2.2.4.3ZM426.3,252.9v37.6c-.1.2,0,.4,0,.5s.2.3.3.4c.1.1.3.2.4.3.2,0,.3.1.5.1l47.5.2c2.8,0,5.6-.4,8.2-1.3s5-2.2,7-3.8c2-1.6,3.6-3.6,4.7-5.7,1.1-2.1,1.6-4.4,1.7-6.8v-4.9c0-4.7-2.2-9.2-6.2-12.5-4-3.3-9.4-5.2-15.1-5.2l-47.5-.2c-.2,0-.4,0-.5,0-.2,0-.3.2-.4.3-.1.1-.2.3-.3.4,0,.2-.1.3-.1.5ZM426.2,321.5v45.6c0,.3.1.7.4.9.2.2.6.4.9.4h47.8c6.6,0,12.9-2.3,17.6-6.4,4.7-4.1,7.3-9.7,7.3-15.5v-4.3c0-5.8-2.6-11.4-7.3-15.5-4.7-4.1-11-6.4-17.6-6.4h-47.8c-.3,0-.7.1-.9.4-.2.2-.4.6-.4.9Z" fill="#000" />
        </g>
    </g>
    <g>
        <g>
            <path d="M198.5,460.8c3.8,1.2,6.7,3.3,8.9,6.3,2.2,2.9,3.3,6.5,3.3,10.8s-2.3,10.6-6.8,13.8c-4.5,3.2-11.1,4.8-19.8,4.8h-33.8v-68.7h31.9c8,0,14.2,1.6,18.6,4.8,4.3,3.1,6.5,7.5,6.5,13s-.8,6.4-2.3,9c-1.6,2.6-3.7,4.6-6.4,6.1ZM162.9,437.9v18.9h17.9c4.4,0,7.8-.8,10.1-2.4,2.4-1.6,3.6-4,3.6-7.1s-1.2-5.5-3.6-7.1c-2.3-1.6-5.7-2.5-10.1-2.5h-17.9ZM183.4,486.5c9.8,0,14.7-3.3,14.7-9.9s-4.9-9.9-14.7-9.9h-20.4v19.8h20.4Z" fill="#bbbab9" />
        </g>
    </g>
    <g>
        <g>
            <path d="M267.4,480.6h-34l-6.7,15.9h-13l30.6-68.7h12.4l30.7,68.7h-13.2l-6.8-15.9ZM263.2,470.6l-12.8-30-12.7,30h25.6Z" fill="#bbbab9" />
        </g>
    </g>
    <g>
        <g>
            <path d="M355.6,427.8v68.7h-10.4l-37.5-46.5v46.5h-12.5v-68.7h10.4l37.5,46.5v-46.5h12.5Z" fill="#bbbab9" />
        </g>
    </g>
    <g>
        <g>
            <path d="M396.3,467.8l-10.8,11.2v17.6h-12.6v-68.7h12.6v35.2l33.6-35.2h14.2l-28.6,30.7,30.3,38h-14.8l-24-28.7Z" fill="#bbbab9" />
        </g>
    </g>
</svg>
