<?xml version="1.0" encoding="utf-8"?>
<!-- Generator: Adobe Illustrator 26.5.0, SVG Export Plug-In . SVG Version: 6.00 Build 0)  -->
<svg version="1.2" baseProfile="tiny-ps" id="Layer_1" xmlns="http://www.w3.org/2000/svg" xmlns:xlink="http://www.w3.org/1999/xlink"
	viewBox="0 0 1000 1000" xml:space="preserve">
<title>Promix Nutrition</title>
<path fill="#E5DAC6" d="M0,0c330,0,660,0,1000,0c0,330,0,660,0,1000c-330,0-660,0-1000,0C0,670,0,340,0,0z"/>
<path fill="#E5DAC6" d="M422.4,432.8c1.6,0,1.6,0,3.3,0c16.8,0,31,6.6,43.4,17.8c5.2,5.4,8.6,11.8,11.9,18.4
	c0.5,1.1,1.1,2.1,1.6,3.2c3.6,8.7,3.8,17.1,3.9,26.5c0,1.2,0,2.4,0,3.7c-0.2,10.9-2.1,20.9-7,30.6c-0.5,1-0.5,1-1,2
	c-8.1,15.1-21.4,24.6-37.5,30c-16.9,3.9-35.8,1.7-50.8-6.9c-15.9-10.5-24.7-25.4-28.8-43.8c-2.4-20.4-0.9-41,11.8-57.9
	c8-9.9,17.8-17,29.8-21.4c1-0.4,2-0.7,3-1.1C411.4,432.4,416.9,432.7,422.4,432.8z"/>
<path fill="#010101" d="M207,419c79.5,0,79.5,0,94,14c9.9,11.1,11.9,23.8,11.4,38.2c-0.8,12.5-5.6,22.5-14.6,31.1
	c-7.2,6.1-14.6,8.8-23.8,9.8c2.3,3.9,4.6,7.9,6.9,11.8c0.8,1.3,1.6,2.7,2.3,4c12.1,23.1,12.1,23.1,32.8,37.2
	c2.7,0.1,5.5,0.1,8.2,0.1c1.1,0,1.1,0,2.3,0c1.8,0,3.7,0,5.5,0c0,5,0,9.9,0,15c-13.1,3.7-24.7,3.1-37-3c-3.4-2-6.2-4.3-9-7
	c-0.7-0.6-1.4-1.3-2.1-1.9c-8.3-8.3-13.3-18.9-18.9-29.1c-1.2-2.2-2.4-4.4-3.7-6.6c-1.2-2.2-2.4-4.4-3.6-6.6c-0.6-1-1.1-2.1-1.7-3.2
	c-0.5-1-1-1.9-1.6-2.9c-0.5-0.9-0.9-1.7-1.4-2.6c-1-2.1-1-2.1-1-4.1c-7.9,0-15.8,0-24,0c0,22.1,0,44.2,0,67c-6.9,0-13.9,0-21,0
	C207,526.9,207,473.7,207,419z"/>
<path fill="#020202" d="M535,419c6.9,0,13.9,0,21,0c5.4,10.7,10.6,21.4,15.7,32.2c0.7,1.5,1.4,3,2.1,4.5c5.4,11.4,10.7,22.9,16,34.3
	c2.2,4.8,4.5,9.7,6.8,14.5c0.3,0.6,0.6,1.3,0.9,1.9c0.6,1.3,1.2,2.6,1.8,3.9c6.3,13.5,12.6,27.1,18.8,40.7
	c6.2-11.9,11.7-24.1,17.4-36.3c3.1-6.6,6.2-13.2,9.2-19.9c4.1-8.7,8.1-17.4,12.2-26.2c0.4-0.9,0.8-1.8,1.3-2.7
	c2-4.4,4.1-8.8,6.1-13.2c5.2-11.3,10.5-22.5,15.8-33.7c6.6,0,13.2,0,20,0c0,53.1,0,106.3,0,161c-6.6,0-13.2,0-20,0
	c-0.3-39.6-0.7-79.2-1-120c-3,6.9-5.9,13.9-9,21c-2.3,5.2-4.7,10.4-7.1,15.5c-1.8,4-3.7,7.9-5.5,11.9c-0.4,0.8-0.7,1.6-1.1,2.4
	c-3.7,8-7.4,16.1-11,24.1c-0.3,0.7-0.6,1.3-0.9,2c-6.5,14.3-12.9,28.6-19.3,43c-5,0-9.9,0-15,0c-5.6-11-10.9-22.1-16-33.3
	c-0.7-1.6-1.5-3.2-2.2-4.8c-1.5-3.3-3-6.6-4.5-9.9c-2.1-4.7-4.3-9.4-6.4-14.1c-1-2.2-2-4.5-3.1-6.7c-0.6-1.4-1.3-2.7-1.9-4.1
	c-6.7-14.6-13.3-29.3-19.8-44c-0.3,38.6-0.7,77.2-1,117c-6.6,0-13.2,0-20,0C535,526.9,535,473.7,535,419z"/>
<path fill="#030303" d="M81,419c78.3,0,78.3,0,93.9,14.8c10,10.5,12.6,23.4,12.4,37.4c-0.9,13.1-5.9,24.7-15.6,33.7
	c-15,11.6-31.3,11.4-49.4,11.2c-9.5-0.1-9.5-0.1-19.2-0.1c0,21.1,0,42.2,0,64c-7.3,0-14.5,0-22,0C81,526.9,81,473.7,81,419z"/>
<path fill="#030303" d="M422.8,414.7c1.9,0,1.9,0,3.8,0c23.6,0.3,44.5,8.8,61.1,25.8c16.9,18.4,22.2,41.5,21.5,65.8
	c-1.1,22.3-11.2,42.3-27.1,57.7c-21.3,18.2-46,21.5-73,20c-5.6-0.7-10.7-2.1-16-4c-1.1-0.4-2.1-0.7-3.2-1.1
	c-21-7.9-35.6-23.8-45-43.8c-9.2-20.8-9.6-46.1-1.9-67.4c8.2-20.9,23.5-37.3,44.1-46.6C398.8,416.2,410,414.6,422.8,414.7z M398,437
	c-0.9,0.4-1.8,0.8-2.7,1.2c-15.4,7.5-24.8,20.2-31.2,35.7c-6.6,19.6-4.4,41.7,4,60.4c7.5,14,19.7,24.7,34.9,29.8
	c6.9,2,13.4,2.3,20.6,2.2c1.5,0,1.5,0,3,0c16.1,0,30.4-6.6,42.1-17.5c15.4-16.4,17.9-36,17.7-57.6c-0.3-8.2-1.7-14.8-5.3-22.2
	c-0.7-1.5-0.7-1.5-1.4-3c-7.1-14.4-19-24.1-33.6-30c-0.8-0.4-1.6-0.7-2.5-1.1C430.6,430.2,410.3,430.8,398,437z"/>
<path fill="#020202" d="M775,419c20.5-3,20.5-3,27.3,1.6c4.2,4.3,7.2,9.5,10.1,14.8c2.4,4.1,5.2,7.9,8.1,11.7c1.1,1.5,2.1,3,3.2,4.4
	c3.9,5.5,7.9,10.9,11.8,16.4c3.1,4.4,6.3,8.7,9.4,13.1c5.3-6.2,10.2-12.6,14.9-19.3c2.4-3.4,4.9-6.8,7.4-10.2
	c0.6-0.8,1.1-1.6,1.7-2.4c1.2-1.6,2.4-3.2,3.6-4.8c3.1-4.1,5.8-8.1,8.3-12.6c5.7-9.8,5.7-9.8,10.1-12.8c7.8-2.1,16.1-1.1,24,0
	c-1.7,3.6-3.9,6.8-6.2,10.1c-0.4,0.6-0.9,1.2-1.3,1.8c-5.5,7.6-11,15.1-16.6,22.6c-1.8,2.4-3.6,4.9-5.4,7.3
	c-6.1,8.3-12.3,16.6-18.5,24.9c-2.8,3.7-5.4,7.4-7.9,11.2c1.3,2.9,2.9,5.3,4.8,7.9c0.6,0.7,1.1,1.5,1.7,2.3c0.6,0.8,1.2,1.6,1.8,2.4
	c1.3,1.7,2.6,3.4,3.8,5.2c0.7,0.9,1.3,1.8,2,2.7c2.4,3.2,4.8,6.5,7.2,9.7c5.4,7.3,10.8,14.6,16.3,21.9c5.2,6.9,10.3,13.7,15.4,20.6
	c0.9,1.2,0.9,1.2,1.8,2.5c0.6,0.7,1.1,1.5,1.7,2.3c0.5,0.7,1,1.3,1.5,2c1.2,1.7,1.2,1.7,2.2,3.7c-6.3,0.5-12.6,0.7-19,0.6
	c-1,0-2.1,0-3.2-0.1c-3.5-0.7-5.1-1.9-7.6-4.4c-1.1-2-2.2-4.1-3.2-6.1c-2-2.9-4.1-5.6-6.1-8.4c-1.1-1.6-2.3-3.1-3.4-4.7
	c-4-5.6-8.1-11.2-12.2-16.7c-3-4.1-6-8.2-9-12.3c-0.9-1.2-0.9-1.2-1.8-2.5c-1.1-1.6-2.3-3.2-3.4-4.8c-0.5-0.7-1-1.4-1.5-2.2
	c-0.4-0.6-0.9-1.3-1.3-1.9c-1.2-1.6-1.2-1.6-3.2-2.5c-0.6,0.8-1.1,1.6-1.7,2.4c-7.9,11.1-16,22.1-24.1,33.1
	c-1.2,1.6-2.4,3.3-3.6,4.9c-1.2,1.6-2.4,3.2-3.6,4.8c-2.7,3.6-5.2,7.1-7.2,11.1c-4,7.6-4,7.6-7.7,9.7c-7.9,1.6-16.1,0.9-24,0
	c1.3-2.7,2.7-5.2,4.5-7.6c0.8-1,0.8-1,1.5-2.1c0.8-1.1,0.8-1.1,1.7-2.3c0.6-0.8,1.1-1.6,1.7-2.4c4.9-6.7,9.9-13.4,14.9-20.1
	c4.9-6.4,9.7-12.9,14.4-19.4c3-4.1,6.1-8.3,9.2-12.4c0.6-0.9,1.3-1.7,2-2.6c1.2-1.7,2.5-3.3,3.7-5c0.6-0.7,1.1-1.5,1.7-2.3
	c0.5-0.7,1-1.3,1.5-2c1.3-2.1,2-3.5,2.2-5.9c-1-2.1-1-2.1-2.7-4.1c-0.6-0.8-1.2-1.6-1.8-2.4c-0.7-0.8-1.3-1.7-2-2.6
	c-1.4-1.8-2.8-3.6-4.2-5.4c-0.7-0.9-1.4-1.8-2.2-2.8c-3.1-4-6.1-8.2-9.2-12.3c-1.2-1.6-2.3-3.1-3.5-4.7c-0.6-0.8-1.1-1.6-1.7-2.4
	c-1.8-2.4-3.5-4.8-5.3-7.1c-6-8.1-11.9-16.2-17.8-24.3c-0.6-0.8-1.1-1.6-1.7-2.4c-0.8-1.1-0.8-1.1-1.6-2.2c-0.5-0.6-0.9-1.3-1.4-1.9
	C775,420,775,420,775,419z"/>
<path fill="#040403" d="M734,419c7.3,0,14.5,0,22,0c0,53.1,0,106.3,0,161c-7.3,0-14.5,0-22,0C734,526.9,734,473.7,734,419z"/>
<path fill="#E4DAC6" d="M103,437c6.4-0.1,12.8-0.2,19.4-0.2c2,0,4-0.1,6.1-0.1c11.6-0.1,21.2,0.4,30.1,8.7c7.4,8.3,7,18.2,6.6,28.7
	c-0.5,7.1-3.3,12.1-8.1,17.3c-7.2,6.1-15.7,6.9-24.8,6.8c-1.1,0-1.1,0-2.2,0c-2.8,0-5.5,0-8.3,0c-6.2,0-12.3,0-18.7-0.1
	C103,477.9,103,457.7,103,437z"/>
<path fill="#E4D9C5" d="M228,437c5.9-0.1,11.7-0.1,17.8-0.2c2.7,0,2.7,0,5.5-0.1c11.5-0.1,22.9-0.1,32.1,7.7c6,6,7.9,12.5,8,20.8
	c-0.1,8.7-1.6,16.1-7.5,22.8c-7.1,6.1-15,7.7-24,7.5c-1.2,0-1.2,0-2.5,0c-3,0-6-0.1-9-0.1c-10.1-0.1-10.1-0.1-20.4-0.2
	C228,475.9,228,456.7,228,437z"/>
</svg>
