<?xml version="1.0" encoding="utf-8"?>
<svg version="1.2" baseProfile="tiny-ps" id="Layer_1" xmlns="http://www.w3.org/2000/svg" xmlns:xlink="http://www.w3.org/1999/xlink"
	viewBox="0 0 80 80" xml:space="preserve">
<title>Kiwi.com</title>
<g>
	<rect x="0" y="0" width="80" height="80" fill="#FFFFFF"/>
	<path d="M48.1748 30.3972C47.8081 30.0322 47.3603 29.837 46.8827 29.837C46.4051 29.837 45.9446 30.0364 45.5821
		30.3972L37.2154 38.7281C36.8571 39.0846 36.6652 39.5515 36.6738 40.048C36.6652 40.5573 36.8571 41.0284 37.2154
		41.3849L45.5821 49.7116C45.9446 50.0723 46.4094 50.2718 46.8827 50.2718C47.3603 50.2718 47.8038 50.0766 48.1748
		49.7116C48.5501 49.3381 48.7463 48.884 48.7377 48.4002C48.7292 47.9333 48.5288 47.4835 48.1748 47.1312L41.0661
		40.0565L48.1748 32.9818C48.9254 32.2306 48.9254 31.1484 48.1748 30.3972ZM35.6034 31.6704C35.6034 31.1781
		35.42 30.7155 35.0832 30.376C34.742 30.0322 34.2772 29.8455 33.7697 29.8455C32.7249 29.8455 31.936 30.6306
		31.936 31.6704V48.4172C31.936 49.4739 32.7079 50.2421 33.7697 50.2421C34.3028 50.2421 34.7591 50.0596 35.1002
		49.7116C35.4243 49.3763 35.6034 48.9179 35.6034 48.4172V31.6704Z"
		fill="#171B1E"/>
	<path d="M67.9616 38.6517C66.8529 38.6517 65.9488 39.5515 65.9488 40.6549C65.9488 41.7583 66.8529 42.658 67.9616
		42.658C69.0703 42.658 69.9744 41.7583 69.9744 40.6549C69.9744 39.5515 69.0746 38.6517 67.9616 38.6517Z"
		fill="#00A991"/>
	<path d="M65.0405 50.7261C64.7249 50.4927 64.3497 50.3696 63.9574 50.3696C63.3774 50.3696 62.8273 50.6455 62.4861
		51.1081C60.1962 54.1977 56.9595 56.7908 53.1258 58.6029C49.1429 60.4873 44.5885 61.4846 39.9446 61.4846C32.8614
		61.4846 26.2132 59.2183 21.2324 55.0974C18.8401 53.1239 16.968 50.8322 15.6674 48.2858C14.3326 45.68 13.6588
		42.9129 13.6546 40.0694C13.6546 37.2217 14.3326 34.4589 15.6674 31.8488C17.629 28.0165 20.8998 24.7444 25.1215
		22.3847C29.5011 19.9402 34.6269 18.65 39.9531 18.65C44.597 18.65 49.1599 19.6516 53.1514 21.5444C56.9893 23.3651
		60.2303 25.9667 62.516 29.069C62.8571 29.5359 63.4115 29.8117 63.9915 29.8117C64.3838 29.8117 64.7548 29.6887
		65.0704 29.4595C65.8849 28.8653 66.0597 27.7237 65.4627 26.9173C62.8188 23.3312 59.1045 20.3391 54.725 18.2596C50.2431
		16.1334 45.1386 15.0129 39.9531 15.0129C32.0171 15.0129 24.5416 17.5806 18.8998 22.2362C16.1237 24.528 13.9403 27.2059
		12.4094 30.1979C10.8102 33.3215 10 36.6403 10 40.0694C10 43.4986 10.8102 46.8174 12.4094 49.941C14.7036 54.4184
		18.4819 58.2167 23.3348 60.9244C28.2559 63.6703 34.0043 65.1259 39.9531 65.1259C45.1215 65.1259 50.2175 64.0098
		54.6908 61.892C59.0618 59.8252 62.7719 56.8417 65.42 53.2725C66.0256 52.4661 65.8507 51.3245 65.0405 50.7261Z"
		fill="#00A991"/>
</g>
</svg>
