<?xml version="1.0" encoding="utf-8"?>
<!-- Generator: Adobe Illustrator 28.5.0, SVG Export Plug-In . SVG Version: 9.03 Build 54727)  -->
<svg version="1.2" baseProfile="tiny-ps" id="Layer_1" xmlns="http://www.w3.org/2000/svg" xmlns:xlink="http://www.w3.org/1999/xlink" viewBox="0 0 80 80" xml:space="preserve">
<title>New Jersey Manufacturers Insurance Company</title>
<path fill="#0079C1" d="M14.2,31.2c-0.1,0-0.2,0.2-0.2,0.4v13.9c0,2.6,0.2,3.4,1.9,3.4s0.3,0,0.6,0c0.6,0,0.8,0.2,0.8,0.5
	c0,0.4-0.4,0.6-1.2,0.6c-0.8,0-1.9-0.2-3-0.2s-2,0.2-2.8,0.2c-0.8,0-1.1-0.2-1.1-0.6s0.2-0.5,0.8-0.5h0.4c1.8,0,1.9-1,1.9-3.8V30.3
	c0-1.2-0.1-1.5-1-1.7c-1.2-0.2-1.9,0-1.9-0.6s0.2-0.5,0.6-0.5h5.7c0.2,0,0.4,0,0.6,0.4l11.7,15.5c0,0,0.1,0,0.1,0
	c0.1,0,0.2-0.2,0.2-0.4V31.8c0-1.1,0-1.9-0.2-2.4c-0.2-0.8-1-0.9-2.4-0.9c-1.4,0-0.8-0.2-0.8-0.5s0.4-0.5,1.1-0.5s1.9,0.1,3,0.1
	s2.1-0.2,2.7-0.2c0.6,0,1,0.2,1,0.6s-0.2,0.5-0.6,0.5h-0.5c-1.6,0-1.7,1-1.7,3.6V50c0,0.5-0.3,0.9-0.7,0.9s-0.5-0.2-0.8-0.6
	L14.2,31.2C14.3,31.2,14.2,31.2,14.2,31.2"/>
<path fill="#0079C1" d="M37.3,53c-2.1,2.4-4.1,3.6-6,3.6c-1.8,0-2.5-0.9-2.5-2.3s0.9-1.9,2-1.9c1.1,0,1,0.2,1.5,0.8
	c0.5,0.6,0.8,1.4,1.6,1.4c1.4,0,2.4-2.2,2.4-6.6V30.3c0-1.2-0.2-1.5-1.2-1.7c-1.2-0.2-1.9,0-1.9-0.6s0.2-0.5,0.7-0.5
	c0.4,0,1.8,0.3,4.3,0.3c2.5,0,3.9-0.3,4.3-0.3s0.7,0.2,0.7,0.5c0,0.6-0.7,0.4-1.9,0.6c-1,0.2-1.2,0.4-1.2,1.7v15.1
	C40.2,48.4,39.4,50.8,37.3,53"/>
<path fill="#0079C1" d="M47.9,32.2c-0.2,0-0.2,0.2-0.2,0.7l-0.7,10.9c-0.1,1-0.1,1.7-0.1,2c0,2.3,0.4,3.2,1.9,3.2s0.4,0,0.6,0
	c0.6,0,0.8,0.2,0.8,0.5c0,0.4-0.4,0.6-1.2,0.6s-1.7-0.1-3-0.1S44,50,43.3,50c-0.7,0-1-0.2-1-0.6s0.2-0.5,0.7-0.5c0.5,0,0.6,0,0.8,0
	c1.6,0,1.6-1.5,1.9-5.7l0.7-12.2v-0.7c0-1.2-0.2-1.5-1.1-1.7c-1.1-0.2-1.8,0-1.8-0.6s0.2-0.5,0.6-0.5h5.7c0.3,0,0.5,0,0.6,0.3
	l5.8,14.4c0.1,0.3,0.2,0.4,0.4,0.4s0.2-0.1,0.4-0.4l5.7-14.1c0.2-0.4,0.2-0.6,0.7-0.6H69c0.4,0,0.6,0.2,0.6,0.5c0,0.8-1,0.4-2.1,0.7
	c-0.6,0.2-0.8,0.5-0.8,1.5c0,1,0,0.5,0,0.8l0.4,15.6c0.1,1.5,0.2,1.9,1.5,2.2c0.9,0.2,1.6-0.1,1.6,0.6c0,0.7-0.3,0.6-0.9,0.6
	s-2.2-0.2-4-0.2S62,50,61.2,50c-0.8,0-0.9-0.2-0.9-0.6s0.2-0.5,0.7-0.5c2,0,2.3-0.4,2.3-2.2v-0.9l-0.4-13.1c0-0.2-0.1-0.4-0.2-0.4
	c-0.1,0-0.2,0.2-0.2,0.4l-6.4,16.1c-0.2,0.3-0.4,0.5-0.7,0.5c-0.3,0-0.6-0.2-0.8-0.4l-6.5-16.2C48,32.4,47.9,32.2,47.9,32.2"/>
<path fill="#4D4D4F" d="M71.2,28.9c0,0.1,0,0.2-0.1,0.2s-0.1,0-0.1-0.2v-1.1h-0.3c-0.1,0-0.1,0-0.1-0.1s0-0.1,0.1-0.1h0.8
	c0.1,0,0.1,0,0.1,0.1s0,0.1-0.1,0.1h-0.3L71.2,28.9L71.2,28.9z M72.5,28.7c0,0-0.1,0.1-0.1,0.1s-0.1,0-0.1-0.1L72,28.2v0.6
	c0,0.1,0,0.2-0.1,0.2c-0.1,0-0.1,0-0.1-0.2v-1.2c0-0.1,0-0.1,0.1-0.1c0.1,0,0.1,0,0.1,0.1l0.4,0.8l0.4-0.8c0,0,0.1-0.1,0.1-0.1
	s0.1,0,0.1,0.1v1.2c0,0.1,0,0.2-0.1,0.2c-0.1,0-0.1,0-0.1-0.2v-0.6L72.5,28.7L72.5,28.7z"/>
<rect x="0" y="0" fill="none" width="80" height="80"/>
</svg>
