<?xml version="1.0" encoding="UTF-8" standalone="yes"?>
<svg version="1.2" baseProfile="tiny-ps" viewBox="0 0 120 120" xml:space="preserve" xmlns="http://www.w3.org/2000/svg">
  <title>CoreTech Lt</title>
  <rect fill="#130F35" width="120" height="120"/>
  <path fill-rule="evenodd" fill="#156161" d="M75.1,60l18-19.2c4-4.2,3.8-10.9-0.5-14.9c0,0,0,0,0,0c-4.3-4-11-3.8-15,0.5L52.9,52.8&#xD;&#xA;&#x9;c-3.8,4.1-3.8,10.4,0,14.4l24.8,26.4c4,4.3,10.7,4.5,15,0.5c4.3-4,4.5-10.6,0.6-14.9c0,0,0,0,0,0L75.1,60z"/>
  <path fill-rule="evenodd" fill="#23E6A8" d="M43.9,60l-18-19.2c-4-4.2-3.8-10.9,0.5-14.9c0,0,0,0,0,0c4.3-4,11-3.8,15,0.5l24.8,26.4&#xD;&#xA;&#x9;c3.8,4.1,3.8,10.4,0,14.4L41.4,93.6c-4,4.3-10.7,4.5-15,0.5c-4.3-4-4.5-10.6-0.6-14.9c0,0,0,0,0,0L43.9,60z"/>
</svg>