<?xml version="1.0" encoding="UTF-8" standalone="yes"?>
<svg version="1.2" baseProfile="tiny-ps" viewBox="0 0 96 96" xmlns="http://www.w3.org/2000/svg" xml:space="preserve">
<title>NLX</title>
<g>
	<rect y="0" fill="#FFFFFF" width="96" height="96"/>
	<path d="M52.959,62.04c-1.981,0-3.224-1.343-3.224-3.089V30.206c0-1.854-1.504-3.358-3.358-3.358s-3.358,1.504-3.358,3.358V58.95
		c0,1.854,1.504,3.358,3.358,3.358c1.669,0,3.022,1.276,3.022,3.19c0,1.947,1.579,3.526,3.526,3.526s3.526-1.579,3.526-3.526
		C56.451,63.551,54.94,62.04,52.959,62.04z"/>
	<path fill-rule="evenodd" d="M33.812,44.383c-1.672,0-3.015-1.282-3.015-3.196c0-1.981-1.478-3.593-3.492-3.593
		s-3.559,1.813-3.559,3.593s-1.41,3.056-3.022,3.056S17.7,43,17.7,41.22c0-2.015-1.679-3.627-3.694-3.627s-3.492,1.645-3.492,3.627
		c0,2.048,1.579,3.492,3.526,3.492c1.713,0,3.122,1.34,3.122,3.087c0,1.747-1.375,2.957-3.021,2.957
		c-1.854,0-3.358,1.369-3.358,3.224c0,0,0,11.954,0.011,11.95c0,1.751,1.581,3.094,3.347,3.094s3.347-1.343,3.347-3.094l0.019-11.95
		c-0.008-1.343,1.604-2.68,3.208-2.68l0.007-0.007l-0.001-0.001c1.921-0.017,3.493-1.544,3.493-3.559
		c0-1.632,1.294-2.962,2.911-3.02h0.18c1.678,0,2.953,1.374,2.953,3.02v17.932c0,1.854,1.504,3.358,3.358,3.358
		c1.854,0,3.358-1.504,3.358-3.358V47.735C36.975,45.946,35.485,44.383,33.812,44.383z M27.304,44.712l-0.094,0
		c0.009,0,0.018,0,0.027,0H27.304z M27.303,44.712L27.303,44.712C27.304,44.712,27.304,44.712,27.303,44.712z"/>
	<path d="M86.001,47.466c0,1.854-1.478,3.358-3.694,3.358c-1.807,0-3.091,0.906-3.153,2.502c0.062,1.596,1.347,2.502,3.153,2.502
		c2.216,0,3.694,1.504,3.694,3.358V65.7c0,1.854-1.504,3.358-3.358,3.358s-3.358-1.504-3.358-3.358c0,0,0.001-4.768,0.001-6.449
		s-1.355-3.02-3.024-3.02h-4.701c-1.669,0-3.024,1.339-3.024,3.02S68.54,65.7,68.54,65.7c0,1.854-1.504,3.358-3.358,3.358
		c-1.854,0-3.358-1.504-3.358-3.358v-6.514c0-1.854,1.478-3.358,3.694-3.358c1.807,0,3.091-0.906,3.153-2.502
		c-0.062-1.596-1.347-2.502-3.153-2.502c-2.216,0-3.694-1.504-3.694-3.358v-6.447c0-1.854,1.504-3.358,3.358-3.358
		c1.854,0,3.358,1.504,3.358,3.358c0,0-0.001,4.701-0.001,6.382s1.355,2.953,3.024,2.953h4.701c1.669,0,3.024-1.272,3.024-2.953
		s-0.001-6.382-0.001-6.382c0-1.854,1.504-3.358,3.358-3.358s3.358,1.504,3.358,3.358V47.466z"/>
</g>
</svg>
