<?xml version="1.0" encoding="UTF-8"?>
<svg version="1.2" baseProfile="tiny-ps" id="Layer_1" xmlns="http://www.w3.org/2000/svg" xmlns:xlink="http://www.w3.org/1999/xlink" viewBox="0 0 400 400" xml:space="preserve">
    <title>VPT-Rad</title>
    <g>
        <g>
            <g id="Layer_1_00000128446082325437147220000016660051921227768221_">
                <g>
                    <path fill="#D8D9DA" d="M287.9,174.3c4.2-21,2.5-32.9-5.1-35.3c-0.7-0.2-1.3-0.3-2-0.3c-7.5,0-15.1,11.4-22.2,23.2&#xD;&#xA;&#x9;&#x9;&#x9;&#x9;c-1.7-1.4-3.3-2.7-5-3.9l-0.5-0.4l-0.2,0.7c-0.4,1.7-1.4,3.2-2.7,4.4l-0.4,0.4l0.4,0.3c1.6,1.3,3.3,2.7,5.1,4.3&#xD;&#xA;&#x9;&#x9;&#x9;&#x9;c-1.7,3.2-3.4,6.5-5,10c-0.5,0.1-1,0.2-1.5,0.3c-4,0.8-7.9,1.7-11.9,2.9c-5.4-9.8-7.4-17.1-5.9-21.2c0.6-1.6,1.8-2.7,3.4-3.3&#xD;&#xA;&#x9;&#x9;&#x9;&#x9;c0.3-0.1,0.6-0.2,0.9-0.2h0.4v-0.4c0-2.2,0.9-4.2,2.5-5.8l0.5-0.5l-0.7-0.2c-1.9-0.6-3.6-1-5.1-0.9c-1.4,0-2.5,0.3-3.4,1&#xD;&#xA;&#x9;&#x9;&#x9;&#x9;c-3.6,2.5-7.7,10,4.6,32.5c-14.6,4.9-28.4,12.1-27.3,19.4l0,0l0,0c1,4,5.4,11.3,31.6,12c-0.3,2-0.6,4-0.9,6v0.7l0.6-0.2&#xD;&#xA;&#x9;&#x9;&#x9;&#x9;c0.3,0,0.6-0.1,0.8-0.2c0.4,0,0.8,0,1.2,0c1.1,0,2.1,0.2,3.1,0.6l0.5,0.2v-0.6c0.4-2,0.8-4.1,1.2-6.4c3.6,0,7.3-0.2,11-0.6&#xD;&#xA;&#x9;&#x9;&#x9;&#x9;c0.4,0.4,0.8,0.8,1.1,1.3c2.6,3,5.5,5.9,8.5,8.7c-3.3,5.4-10.7,17.3-16.1,17.3c-1.5,0-2.3-0.6-3.6-2.2s-1.1-1.6-1.2-1.8l-0.2-0.4&#xD;&#xA;&#x9;&#x9;&#x9;&#x9;l-0.4,0.2c-0.8,0.4-1.7,0.7-2.6,0.8c-0.4,0-0.8,0-1.2,0c-0.7,0-1.4,0-2.1-0.2h-0.5c0-0.1,0,0.4,0,0.4c-0.5,5.8,2.9,10.1,5.4,11.2&#xD;&#xA;&#x9;&#x9;&#x9;&#x9;c0.9,0.4,1.8,0.6,2.7,0.6c7.1,0,14.8-11.8,22.1-24.1c12,10.5,23,15.2,28.5,15.2c1.8,0,3.2-0.5,4.3-1.3l0,0l0,0&#xD;&#xA;&#x9;&#x9;&#x9;&#x9;c5.9-5.9-0.1-19.4-7.6-33.2c2-0.7,4-1.5,5.9-2.3l0.7-0.3l-0.5-0.5c-1.3-1.2-2.2-2.8-2.6-4.5v-0.5c-0.1,0-0.6,0.2-0.6,0.2&#xD;&#xA;&#x9;&#x9;&#x9;&#x9;c-1.9,0.7-3.9,1.5-6.1,2.2c-1.9-3.1-4-6.4-6.3-9.6c0.2-0.5,0.3-1.1,0.5-1.6c1.2-3.7,2.3-7.5,3.2-11.4c11.4,0.3,18.9,2.2,21.6,5.6&#xD;&#xA;&#x9;&#x9;&#x9;&#x9;c1.1,1.3,1.4,2.9,1.1,4.6c0,0.3-0.1,0.6-0.2,0.9v0.3c-0.1,0,0.2,0.2,0.2,0.2c1.8,1.2,3.1,3.1,3.6,5.2l0.2,0.7l0.6-0.5&#xD;&#xA;&#x9;&#x9;&#x9;&#x9;c3.1-2.7,4.6-5.2,4.4-7.5c-0.3-4.4-4.8-11.8-30.8-12.5V174.3z M242.9,196.1c-0.2,0.5-0.3,1-0.5,1.4c-1,2.9-1.9,6-2.7,9.3&#xD;&#xA;&#x9;&#x9;&#x9;&#x9;c-10.8-0.6-19.8-3.1-21.4-8.3c-1.5-5,4.7-9.8,17.2-14C237.7,188.3,240.2,192.2,242.9,196.1z M248.8,180.7&#xD;&#xA;&#x9;&#x9;&#x9;&#x9;c-1.8,4-3.4,8.1-4.7,11.9c-2.2-3.2-4.1-6.3-5.7-9.1c3.4-1.1,6.9-2,10.5-2.8H248.8z M278.9,202.7c0.7-1.8,1.4-3.5,2.1-5.3&#xD;&#xA;&#x9;&#x9;&#x9;&#x9;c0.9,1.3,1.7,2.7,2.5,4.1C282,201.9,280.5,202.3,278.9,202.7z M265.9,178.1c2.2,2.3,4.3,4.7,6.4,7.1c2.1,2.5,4.5,5.7,6.9,9.3&#xD;&#xA;&#x9;&#x9;&#x9;&#x9;c-0.5,1.3-0.9,2.5-1.4,3.6c-0.7,1.8-1.5,3.6-2.3,5.3c-3.1,0.7-6.3,1.3-9.5,1.9c-3.2,0.6-7.2,1-11.6,1.3c-0.8-1-1.7-2.1-2.4-3&#xD;&#xA;&#x9;&#x9;&#x9;&#x9;c-1.1-1.5-2.2-3-3.3-4.5c0.9-3,1.9-6.1,3-9.1c1.1-3.1,2.7-6.9,4.6-10.8c1.4-0.2,2.8-0.4,4.1-0.6&#xD;&#xA;&#x9;&#x9;&#x9;&#x9;C262.1,178.4,264,178.2,265.9,178.1L265.9,178.1z M263.5,166.4c5.4-8.4,10.4-12.7,15-12.7c0.5,0,1.1,0,1.6,0.2&#xD;&#xA;&#x9;&#x9;&#x9;&#x9;c6.8,1.5,6.3,11.8,4.7,20.5c-0.6,0-1.3,0-2,0c-3.7,0-7.5,0.2-11.4,0.5c-0.3-0.4-0.7-0.8-1-1.1c-2.1-2.4-4.4-4.9-6.9-7.2&#xD;&#xA;&#x9;&#x9;&#x9;&#x9;L263.5,166.4z M286.8,207.5c5,9.7,5.7,16.1,2.2,19.9c-1.3,1.5-3,2.2-5,2.2c-3.8,0-8.6-2.5-14.5-7.5c2.1-3.7,4.2-7.8,6.2-12&#xD;&#xA;&#x9;&#x9;&#x9;&#x9;c0.4,0,0.9-0.2,1.3-0.3C280,209.2,283.3,208.5,286.8,207.5z M273.9,177.5c3.3-0.2,6.5-0.3,9.4-0.4c2.9-0.1,0.7,0,1,0&#xD;&#xA;&#x9;&#x9;&#x9;&#x9;c-0.7,3.4-1.6,6.8-2.7,10.2c-2.5-3.5-5.2-6.8-7.7-9.9V177.5z M257.8,176.3c0.7-1.4,1.5-2.8,2.2-4.1c1.1,1.1,2.2,2.2,3.3,3.4&#xD;&#xA;&#x9;&#x9;&#x9;&#x9;c-1.9,0.2-3.8,0.5-5.6,0.8L257.8,176.3z M251,206.9c-1.1,0-2.3,0-3.4,0s-0.7,0-1.1,0c0.4-1.4,0.7-2.8,1.2-4.3&#xD;&#xA;&#x9;&#x9;&#x9;&#x9;c1.1,1.4,2.2,2.9,3.3,4.2V206.9z M272.1,210.8c-1.7,3.4-3.3,6.6-4.9,9.4c-2.6-2.4-5.2-5-7.8-7.7&#xD;&#xA;&#x9;&#x9;&#x9;&#x9;C263.8,212.1,268.1,211.5,272.1,210.8z" />
                    <path fill="#D8D9DA" d="M238.9,235.5L238.9,235.5c0.1,0,0.3,0,0.4,0l0,0l0,0c0.3,0,0.6,0,0.9,0h0.1c0.1,0,0.2,0,0.4,0h0.1&#xD;&#xA;&#x9;&#x9;&#x9;&#x9;c0.1,0,0.3,0,0.4,0c0.2,0,0.4,0,0.6-0.1l0,0c0.2,0,0.4-0.1,0.5-0.2l0,0l0,0c0.4-0.1,0.8-0.3,1.1-0.5c2.8-1.5,4.3-4.5,3.8-7.6&#xD;&#xA;&#x9;&#x9;&#x9;&#x9;c-0.4-2.3-1.8-4.3-3.9-5.4l0,0l-0.3-0.2c-0.2,0-0.3-0.1-0.5-0.2c-0.3-0.1-0.7-0.2-1-0.3v0.2c0,0,0,0-0.1,0l0,0V221&#xD;&#xA;&#x9;&#x9;&#x9;&#x9;c-0.2,0-0.3,0-0.5,0s-0.3,0-0.5,0l0,0c-0.2,0-0.3,0-0.5,0l0,0l0,0l0,0l0,0l0,0c-0.2,0-0.3,0-0.5,0h-0.1c-0.2,0-0.3,0-0.5,0&#xD;&#xA;&#x9;&#x9;&#x9;&#x9;c-0.1,0-0.3,0-0.4,0l0,0l0,0c-0.1,0-0.2,0-0.3,0s-0.3,0-0.4,0.1c-0.1,0-0.3,0-0.4,0.1c-3.2,1.2-5.2,4.6-4.7,8&#xD;&#xA;&#x9;&#x9;&#x9;&#x9;c0.4,2.6,2.2,4.8,4.6,5.8c0.4,0.2,0.9,0.3,1.3,0.4L238.9,235.5z" />
                    <path fill="#D8D9DA" d="M237.6,153c0,0.1-0.1,0.3-0.2,0.4c0,0.1-0.1,0.3-0.1,0.4c-0.2,0.7-0.3,1.3-0.4,2c0,0.5,0,0.9,0,1.4&#xD;&#xA;&#x9;&#x9;&#x9;&#x9;c0.5,3.6,3.7,6.3,7.4,6.3s0.7,0,1.1,0c1.2-0.2,2.4-0.7,3.4-1.4c0.2-0.1,0.4-0.3,0.6-0.5c0.2-0.2,0.4-0.3,0.5-0.5&#xD;&#xA;&#x9;&#x9;&#x9;&#x9;c0.2-0.2,0.3-0.4,0.5-0.6s0.3-0.4,0.4-0.6c0.1-0.2,0.2-0.4,0.3-0.7c0.1-0.2,0.2-0.5,0.3-0.7c0-0.2,0.1-0.5,0.2-0.7&#xD;&#xA;&#x9;&#x9;&#x9;&#x9;c0-0.2,0-0.5,0.1-0.7v-0.3l0,0c0-0.6,0-1.2,0-1.7c-0.5-3.6-3.7-6.3-7.4-6.3c-0.3,0-0.7,0-1.1,0c-1.1,0.2-2.2,0.6-3.2,1.3l0,0&#xD;&#xA;&#x9;&#x9;&#x9;&#x9;l-0.2,0.2c-0.1,0-0.2,0.2-0.3,0.2l0,0l0,0c0,0-0.2,0.1-0.2,0.2l0,0c0,0.1-0.2,0.2-0.2,0.3l0,0c0,0.1-0.2,0.2-0.2,0.3l0,0l0,0&#xD;&#xA;&#x9;&#x9;&#x9;&#x9;c-0.3,0.4-0.6,0.9-0.9,1.3c0,0.1-0.1,0.2-0.2,0.4H237.6z" />
                    <path fill="#D8D9DA" d="M312.4,194.9c0-0.1,0-0.3,0-0.4l0,0h-0.2l0,0h0.2c0,0,0-0.2,0-0.3l0,0v-0.1c0,0,0-0.1,0-0.2l0,0v-0.1&#xD;&#xA;&#x9;&#x9;&#x9;&#x9;v-0.2l0,0c0-0.2,0-0.3-0.1-0.3l0,0c0-0.2,0-0.3-0.1-0.3l0,0c0-0.2,0-0.2-0.1-0.3l0,0l0,0c0-0.1-0.1-0.2-0.2-0.3l0,0l0,0&#xD;&#xA;&#x9;&#x9;&#x9;&#x9;c0,0-0.1-0.2-0.2-0.3l0,0l0,0c0,0-0.1-0.2-0.2-0.3c0-0.1-0.2-0.2-0.2-0.3c0-0.1-0.2-0.2-0.2-0.3c0,0-0.2-0.2-0.3-0.3&#xD;&#xA;&#x9;&#x9;&#x9;&#x9;c0,0-0.2-0.2-0.3-0.2c0,0-0.2-0.2-0.3-0.2c0,0-0.2-0.1-0.3-0.2c-1.3-0.9-2.8-1.4-4.3-1.3c-1.5,0.1-0.7,0-1,0&#xD;&#xA;&#x9;&#x9;&#x9;&#x9;c-2,0.3-3.7,1.3-4.8,2.9c-1.2,1.6-1.7,3.5-1.4,5.5l0,0l0,0c0,0.2,0,0.3,0,0.4c0,0.1,0,0.3,0,0.4c0,0.1,0,0.2,0.1,0.4&#xD;&#xA;&#x9;&#x9;&#x9;&#x9;c0,0.1,0,0.2,0.1,0.4c0,0.1,0,0.2,0.1,0.3c0,0.1,0.1,0.2,0.2,0.3c0,0.1,0.1,0.2,0.2,0.3c0,0.1,0.1,0.2,0.2,0.3&#xD;&#xA;&#x9;&#x9;&#x9;&#x9;c0,0.1,0.1,0.2,0.2,0.3c0,0.1,0.2,0.2,0.2,0.3c0,0.1,0.2,0.2,0.2,0.3c0,0.1,0.2,0.2,0.2,0.3c0,0,0.2,0.2,0.3,0.3&#xD;&#xA;&#x9;&#x9;&#x9;&#x9;c0,0,0.2,0.2,0.3,0.2c0.1,0,0.2,0.2,0.3,0.2c0.1,0,0.2,0.1,0.3,0.2h0.2c0,0.1,0,0.1,0,0.1c1.2,0.8,2.6,1.2,4,1.2s0.7,0,1,0&#xD;&#xA;&#x9;&#x9;&#x9;&#x9;c3.8-0.6,6.5-4,6.3-7.8c0-0.2,0-0.4,0-0.6L312.4,194.9z" />
                </g>
                <g>
                    <path fill="#046DB6" d="M269,223.3l2.9,15.3H264l-2.4-13.9h-3.2l-1.7,13.9h-7.6l4.4-36.5h11.7c3.2,0,5.5,0.9,7.1,2.8&#xD;&#xA;&#x9;&#x9;&#x9;&#x9;c1.5,1.9,2.3,4.5,2.3,7.8C274.6,217.9,272.8,221.5,269,223.3 M259.4,217.1h3c2.9,0,4.3-1.3,4.3-4c0-2.2-1.2-3.4-3.6-3.4h-2.8&#xD;&#xA;&#x9;&#x9;&#x9;&#x9;L259.4,217.1z" />
                    <path fill="#046DB6" d="M295.1,238.6H287c0-0.5,0-1,0-1.3c0-1,0-2.1,0.1-3.4c-1.6,3.6-3.9,5.3-6.8,5.3c-2,0-3.6-0.8-4.8-2.3&#xD;&#xA;&#x9;&#x9;&#x9;&#x9;c-1.2-1.6-1.8-3.5-1.8-5.8c0-1.7,0.3-3.3,1-4.8c0.7-1.4,1.6-2.6,2.8-3.5c1.2-0.9,2.4-1.4,3.7-1.7c1.3-0.3,3.7-0.6,7.4-1.1&#xD;&#xA;&#x9;&#x9;&#x9;&#x9;c0.2-0.7,0.3-1.2,0.3-1.6c0-1.6-0.8-2.3-2.4-2.3c-1.6,0-2.7,1.1-3.4,3.2l-6.7-1.9c1.7-5.2,5.4-7.9,11.2-7.9&#xD;&#xA;&#x9;&#x9;&#x9;&#x9;c2.9,0,5.2,0.7,6.9,2.1c1.7,1.4,2.5,3.4,2.5,6.1c0,1.2-0.5,5.5-1.5,12.9c-0.4,2.7-0.5,4.6-0.5,5.5&#xD;&#xA;&#x9;&#x9;&#x9;&#x9;C295,236.8,295,237.7,295.1,238.6 M287.9,225.2c-3.8,0.4-5.6,2-5.6,4.9c0,1.6,0.6,2.4,1.8,2.4c0.8,0,1.6-0.5,2.3-1.4&#xD;&#xA;&#x9;&#x9;&#x9;&#x9;C287.1,230.1,287.6,228.2,287.9,225.2" />
                    <path fill="#046DB6" d="M323.9,200.4l-4.6,38.2H312l0.5-4.3c-1.7,3.4-3.7,5.1-6.1,5.1c-1.9,0-3.5-1-4.8-3c-1.4-2-2-4.9-2-8.7&#xD;&#xA;&#x9;&#x9;&#x9;&#x9;c0-4.6,0.9-8.8,2.8-12.6s4.3-5.6,7.2-5.6c2.5,0,4.2,1.4,5.1,4l1.6-13.2h7.8L323.9,200.4z M313.5,220.4c0-0.3,0-0.6,0-1&#xD;&#xA;&#x9;&#x9;&#x9;&#x9;c0-0.8-0.2-1.5-0.6-2c-0.4-0.6-0.9-0.8-1.5-0.8c-1.4,0-2.4,1.5-3,4.4c-0.6,3-0.9,5.4-0.9,7.4c0,2.6,0.7,3.9,2.2,3.9&#xD;&#xA;&#x9;&#x9;&#x9;&#x9;c1.4,0,2.4-1.3,2.9-3.9L313.5,220.4z" />
                </g>
                <g>
                    <path fill="#046DB6" d="M108.8,249h4.6c1,0,1.8,0.3,2.4,0.8c0.7,0.6,1.1,1.5,1.2,2.6c0,1.6-0.8,2.8-2.3,3.4l2.7,5.4h-2.1&#xD;&#xA;&#x9;&#x9;&#x9;&#x9;l-2.4-5.2h-2.3v5.2h-1.8L108.8,249L108.8,249z M110.6,254.3h2.7c0.7,0,1.2-0.2,1.5-0.6c0.3-0.4,0.5-0.8,0.5-1.3&#xD;&#xA;&#x9;&#x9;&#x9;&#x9;c0-0.6-0.2-1.1-0.6-1.4c-0.3-0.2-0.7-0.4-1.3-0.4h-2.8C110.6,250.6,110.6,254.3,110.6,254.3z" />
                    <path fill="#046DB6" d="M122.7,260.4L122.7,260.4c-0.2,0.3-0.4,0.5-0.7,0.6c-0.3,0.1-0.8,0.2-1.3,0.2c-0.9,0-1.7-0.3-2.2-0.8&#xD;&#xA;&#x9;&#x9;&#x9;&#x9;s-0.8-1.1-0.8-1.9s0.2-1.3,0.7-1.8s1.1-0.7,2-0.7h2.3v-0.9c0-0.8-0.6-1.1-1.7-1.1c-0.4,0-0.7,0-1,0.1s-0.5,0.3-0.6,0.5l-1.3-1&#xD;&#xA;&#x9;&#x9;&#x9;&#x9;c0.6-0.9,1.6-1.3,2.8-1.3c1,0,1.9,0.2,2.5,0.6c0.6,0.4,0.9,1.2,1,2.2v5.9h-1.7v-0.8L122.7,260.4z M122.7,257.5h-2&#xD;&#xA;&#x9;&#x9;&#x9;&#x9;c-1,0-1.5,0.4-1.4,1c0,0.3,0.1,0.5,0.4,0.7c0.2,0.2,0.6,0.3,1.2,0.3c0.7,0,1.2,0,1.5-0.3c0.3-0.2,0.4-0.6,0.4-1.2v-0.6&#xD;&#xA;&#x9;&#x9;&#x9;&#x9;L122.7,257.5z" />
                    <path fill="#046DB6" d="M130.8,260.2c-0.6,0.6-1.3,1-2.2,1c-0.5,0-0.9-0.1-1.3-0.3c-0.4-0.2-0.7-0.5-0.9-0.8&#xD;&#xA;&#x9;&#x9;&#x9;&#x9;c-0.2-0.3-0.4-0.6-0.5-1.1c0-0.4-0.1-1.2-0.1-2.2c0-1,0-1.8,0.1-2.2c0-0.4,0.2-0.8,0.5-1.1c0.5-0.7,1.2-1.1,2.2-1.1&#xD;&#xA;&#x9;&#x9;&#x9;&#x9;c0.4,0,0.8,0,1.2,0.3c0.3,0.2,0.7,0.4,1,0.7V249h1.7v12.1h-1.7C130.8,261.1,130.8,260.2,130.8,260.2z M129.2,254.1&#xD;&#xA;&#x9;&#x9;&#x9;&#x9;c-0.4,0-0.7,0-0.9,0.2s-0.4,0.4-0.5,0.6c-0.1,0.3-0.2,0.5-0.2,0.8c0,0.3,0,0.7,0,1c0,0.3,0,0.6,0,1c0,0.3,0,0.6,0.2,0.9&#xD;&#xA;&#x9;&#x9;&#x9;&#x9;c0.1,0.2,0.3,0.5,0.5,0.6c0.2,0.2,0.5,0.2,0.9,0.2c0.4,0,0.7,0,0.9-0.2c0.2-0.2,0.4-0.4,0.5-0.6c0.1-0.3,0.2-0.6,0.2-0.9&#xD;&#xA;&#x9;&#x9;&#x9;&#x9;c0-0.3,0-0.6,0-0.9s0-0.7,0-1c0-0.3-0.1-0.6-0.2-0.8c0-0.3-0.2-0.5-0.5-0.6s-0.5-0.2-0.9-0.2V254.1z" />
                    <path fill="#046DB6" d="M134,249h1.7v1.7H134V249z M134,252.5h1.7v8.6H134V252.5z" />
                    <path fill="#046DB6" d="M141.7,260.4L141.7,260.4c-0.2,0.3-0.4,0.5-0.7,0.6s-0.8,0.2-1.3,0.2c-0.9,0-1.7-0.3-2.2-0.8&#xD;&#xA;&#x9;&#x9;&#x9;&#x9;s-0.8-1.1-0.8-1.9s0.2-1.3,0.7-1.8s1.1-0.7,2-0.7h2.3v-0.9c0-0.8-0.6-1.1-1.7-1.1c-0.4,0-0.7,0-1,0.1s-0.5,0.3-0.6,0.5l-1.3-1&#xD;&#xA;&#x9;&#x9;&#x9;&#x9;c0.6-0.9,1.6-1.3,2.8-1.3c1,0,1.9,0.2,2.5,0.6c0.6,0.4,0.9,1.2,1,2.2v5.9h-1.7v-0.8L141.7,260.4z M141.7,257.5h-2&#xD;&#xA;&#x9;&#x9;&#x9;&#x9;c-1,0-1.5,0.4-1.4,1c0,0.3,0.1,0.5,0.4,0.7c0.2,0.2,0.6,0.3,1.2,0.3c0.7,0,1.2,0,1.5-0.3c0.3-0.2,0.4-0.6,0.4-1.2v-0.6&#xD;&#xA;&#x9;&#x9;&#x9;&#x9;L141.7,257.5z" />
                    <path fill="#046DB6" d="M145.3,249.9h1.7v2.6h1.2v1.3H147v5c0,0.4,0.2,0.7,0.6,0.6h0.6v1.6h-0.9c-0.6,0-1.1-0.2-1.4-0.6&#xD;&#xA;&#x9;&#x9;&#x9;&#x9;c-0.4-0.4-0.6-0.9-0.6-1.6v-5.2h-0.8v-1.3h0.8v-2.6L145.3,249.9z" />
                    <path fill="#046DB6" d="M149.6,249h1.7v1.7h-1.7V249z M149.6,252.5h1.7v8.6h-1.7V252.5z" />
                    <path fill="#046DB6" d="M152.2,256.8c0-0.9,0-1.6,0.2-2.1s0.4-0.9,0.7-1.2c0.2-0.3,0.6-0.5,1-0.8c0.4-0.2,0.9-0.3,1.6-0.3&#xD;&#xA;&#x9;&#x9;&#x9;&#x9;s1.2,0.1,1.6,0.3c0.4,0.2,0.7,0.5,0.9,0.8c0.3,0.3,0.6,0.7,0.7,1.2c0.1,0.5,0.2,1.2,0.2,2.1c0,0.9,0,1.6-0.2,2.1&#xD;&#xA;&#x9;&#x9;&#x9;&#x9;c-0.1,0.5-0.4,0.9-0.7,1.2c-0.1,0.1-0.2,0.3-0.4,0.4c-0.1,0.1-0.3,0.3-0.5,0.4c-0.4,0.2-0.9,0.4-1.6,0.4c-0.6,0-1.2-0.1-1.6-0.4&#xD;&#xA;&#x9;&#x9;&#x9;&#x9;c-0.4-0.2-0.7-0.5-1-0.7c-0.3-0.3-0.5-0.8-0.7-1.2c-0.1-0.5-0.2-1.2-0.2-2.1V256.8z M157.4,256.8c0-0.6,0-1.1,0-1.3&#xD;&#xA;&#x9;&#x9;&#x9;&#x9;c0-0.3-0.2-0.5-0.3-0.7c-0.1-0.2-0.3-0.3-0.5-0.5c-0.2-0.1-0.5-0.2-0.8-0.2s-0.5,0-0.8,0.2c-0.2,0.1-0.4,0.3-0.6,0.5&#xD;&#xA;&#x9;&#x9;&#x9;&#x9;c-0.1,0.2-0.2,0.4-0.3,0.7c0,0.3,0,0.7,0,1.3s0,1,0,1.3c0,0.3,0.2,0.5,0.3,0.7c0.1,0.2,0.3,0.3,0.6,0.4c0.2,0.1,0.5,0.2,0.8,0.2&#xD;&#xA;&#x9;&#x9;&#x9;&#x9;s0.6,0,0.8-0.2c0.2-0.1,0.4-0.3,0.5-0.4c0.2-0.2,0.3-0.5,0.3-0.7C157.4,257.8,157.4,257.4,157.4,256.8z" />
                    <path fill="#046DB6" d="M160.4,252.5h1.7v0.9l0,0c0.6-0.7,1.3-1,2.2-1s1.3,0.3,1.9,0.8c0.6,0.5,0.9,1.3,0.9,2.2v5.7h-1.7V256&#xD;&#xA;&#x9;&#x9;&#x9;&#x9;c0-0.6-0.2-1.1-0.5-1.4c-0.3-0.3-0.7-0.5-1.2-0.5s-0.9,0.2-1.2,0.5s-0.5,0.8-0.5,1.4v5.1h-1.7L160.4,252.5L160.4,252.5z" />
                    <path fill="#046DB6" d="M173.8,249h1.8v10.4h5.7v1.7h-7.5V249L173.8,249z" />
                    <path fill="#046DB6" d="M187.4,260.4L187.4,260.4c-0.2,0.3-0.4,0.5-0.7,0.6s-0.8,0.2-1.3,0.2c-0.9,0-1.7-0.3-2.2-0.8&#xD;&#xA;&#x9;&#x9;&#x9;&#x9;s-0.8-1.1-0.8-1.9s0.2-1.3,0.7-1.8s1.1-0.7,2-0.7h2.3v-0.9c0-0.8-0.6-1.1-1.7-1.1c-0.4,0-0.7,0-1,0.1s-0.5,0.3-0.6,0.5l-1.3-1&#xD;&#xA;&#x9;&#x9;&#x9;&#x9;c0.6-0.9,1.6-1.3,2.8-1.3c1,0,1.9,0.2,2.5,0.6c0.6,0.4,0.9,1.2,1,2.2v5.9h-1.7v-0.8V260.4z M187.4,257.5h-2c-1,0-1.5,0.4-1.4,1&#xD;&#xA;&#x9;&#x9;&#x9;&#x9;c0,0.3,0.1,0.5,0.4,0.7c0.2,0.2,0.6,0.3,1.2,0.3c0.7,0,1.2,0,1.5-0.3c0.3-0.2,0.4-0.6,0.4-1.2v-0.6L187.4,257.5z" />
                    <path fill="#046DB6" d="M190.8,249h1.7v4.4c0.3-0.3,0.6-0.6,1-0.7c0.3-0.2,0.7-0.3,1.1-0.3c1,0,1.8,0.4,2.2,1.1&#xD;&#xA;&#x9;&#x9;&#x9;&#x9;c0.2,0.3,0.4,0.6,0.5,1.1c0,0.4,0.1,1.2,0.1,2.2c0,1,0,1.7-0.1,2.2c0,0.5-0.2,0.8-0.5,1.1c-0.2,0.3-0.5,0.6-0.9,0.8&#xD;&#xA;&#x9;&#x9;&#x9;&#x9;c-0.4,0.2-0.8,0.3-1.3,0.3c-0.9,0-1.6-0.4-2.2-1v0.9h-1.7L190.8,249L190.8,249z M194.1,254.1c-0.4,0-0.7,0-0.9,0.2&#xD;&#xA;&#x9;&#x9;&#x9;&#x9;s-0.4,0.4-0.5,0.6c-0.1,0.3-0.2,0.5-0.2,0.8c0,0.3,0,0.6,0,1s0,0.6,0,0.9s0,0.6,0.2,0.9c0.1,0.3,0.3,0.5,0.5,0.6&#xD;&#xA;&#x9;&#x9;&#x9;&#x9;c0.2,0.2,0.5,0.2,0.9,0.2s0.7,0,0.9-0.2c0.2-0.2,0.4-0.4,0.5-0.6c0.1-0.3,0.2-0.6,0.2-0.9c0-0.3,0-0.6,0-1s0-0.7,0-1&#xD;&#xA;&#x9;&#x9;&#x9;&#x9;s-0.1-0.6-0.2-0.8c0-0.3-0.3-0.5-0.5-0.6s-0.5-0.2-0.9-0.2V254.1z" />
                    <path fill="#046DB6" d="M210.9,259.9c-0.5,0.4-1,0.7-1.5,0.9c-0.5,0.2-1.1,0.4-1.8,0.4c-1.1,0-2-0.4-2.7-1.1&#xD;&#xA;&#x9;&#x9;&#x9;&#x9;c-0.7-0.7-1-1.6-1-2.6c0-1.5,0.8-2.7,2.3-3.5c-0.3-0.3-0.5-0.7-0.7-1.1c-0.2-0.4-0.3-0.8-0.3-1.2c0-0.8,0.2-1.4,0.7-1.9&#xD;&#xA;&#x9;&#x9;&#x9;&#x9;s1.1-0.8,1.9-0.8c0.8,0,1.4,0.3,1.9,0.8s0.7,1.2,0.7,1.9c0,1.1-0.6,2-2,2.7l2.5,3.1c0.5-0.6,0.8-1.3,1-2l1.5,0.6&#xD;&#xA;&#x9;&#x9;&#x9;&#x9;c-0.2,0.5-0.4,0.9-0.6,1.4c-0.3,0.5-0.6,0.9-0.9,1.3l2,2.4h-2l-1.1-1.2L210.9,259.9z M207,255.1c-1.2,0.7-1.7,1.5-1.7,2.4&#xD;&#xA;&#x9;&#x9;&#x9;&#x9;c0,0.6,0.2,1.2,0.7,1.6c0.4,0.4,0.9,0.6,1.5,0.6c0.8,0,1.6-0.3,2.4-1.1L207,255.1z M206.6,251.6c0,0.2,0,0.5,0.3,0.8&#xD;&#xA;&#x9;&#x9;&#x9;&#x9;c0.2,0.3,0.4,0.5,0.6,0.8c0.5-0.2,0.9-0.5,1.1-0.7c0.2-0.3,0.3-0.5,0.3-0.8s-0.1-0.6-0.3-0.8s-0.5-0.3-0.8-0.3s-0.6,0.1-0.8,0.3&#xD;&#xA;&#x9;&#x9;&#x9;&#x9;s-0.3,0.5-0.3,0.8L206.6,251.6z" />
                    <path fill="#046DB6" d="M222.8,250.6h-3.2V249h8.2v1.6h-3.2v10.5h-1.8V250.6z" />
                    <path fill="#046DB6" d="M227.7,257.5c0,0.7,0.2,1.2,0.6,1.6c0.4,0.4,0.8,0.5,1.4,0.5s1.3-0.3,1.8-0.8l1.2,1.1&#xD;&#xA;&#x9;&#x9;&#x9;&#x9;c-0.9,0.9-1.9,1.4-3,1.4c-0.4,0-0.9,0-1.3-0.2c-0.2,0-0.4-0.2-0.6-0.3c-0.2-0.1-0.4-0.2-0.6-0.4c-0.4-0.3-0.6-0.8-0.9-1.3&#xD;&#xA;&#x9;&#x9;&#x9;&#x9;c-0.2-0.6-0.4-1.3-0.4-2.2s0.1-1.6,0.3-2.1c0.2-0.6,0.5-1,0.8-1.4c0.3-0.3,0.7-0.6,1.1-0.7c0.4-0.1,0.8-0.2,1.2-0.2&#xD;&#xA;&#x9;&#x9;&#x9;&#x9;c1,0,1.8,0.3,2.4,1c0.7,0.6,1,1.5,1,2.7v1.4h-5.2L227.7,257.5z M231.2,256c0-0.7-0.2-1.2-0.5-1.5s-0.7-0.5-1.2-0.5&#xD;&#xA;&#x9;&#x9;&#x9;&#x9;s-0.9,0.2-1.2,0.5s-0.5,0.9-0.5,1.5h3.5H231.2z" />
                    <path fill="#046DB6" d="M234.8,258.5c0.7,0.7,1.6,1.1,2.6,1.1s0.9,0,1.2-0.3c0.3-0.2,0.5-0.5,0.5-0.8c0-0.3,0-0.5-0.3-0.6&#xD;&#xA;&#x9;&#x9;&#x9;&#x9;c-0.2-0.1-0.4-0.2-0.7-0.2h-1.5c-0.7-0.2-1.3-0.4-1.7-0.9c-0.5-0.4-0.7-1-0.7-1.7c0-0.9,0.3-1.5,0.9-2c0.6-0.4,1.3-0.7,2.2-0.7&#xD;&#xA;&#x9;&#x9;&#x9;&#x9;s0.7,0,1,0s0.6,0.1,0.9,0.2c0.5,0.2,1,0.5,1.4,0.9l-1,1.3c-0.3-0.2-0.7-0.4-1-0.6c-0.4-0.1-0.8-0.2-1.2-0.2s-0.9,0-1.1,0.3&#xD;&#xA;&#x9;&#x9;&#x9;&#x9;c-0.2,0.2-0.3,0.4-0.3,0.7c0,0.2,0,0.4,0.2,0.5c0.2,0.2,0.4,0.3,0.9,0.3h1.4c0.9,0.2,1.5,0.4,1.9,0.9s0.5,1.1,0.5,1.8&#xD;&#xA;&#x9;&#x9;&#x9;&#x9;c0,0.8-0.3,1.5-1,1.9c-0.6,0.5-1.5,0.7-2.5,0.7c-1.4,0-2.6-0.5-3.7-1.5l1.2-1.2L234.8,258.5z" />
                    <path fill="#046DB6" d="M242.5,249.9h1.7v2.6h1.2v1.3h-1.2v5c0,0.4,0.2,0.7,0.6,0.6h0.6v1.6h-0.9c-0.6,0-1.1-0.2-1.4-0.6&#xD;&#xA;&#x9;&#x9;&#x9;&#x9;c-0.4-0.4-0.6-0.9-0.6-1.6v-5.2h-0.8v-1.3h0.8v-2.6L242.5,249.9z" />
                    <path fill="#046DB6" d="M252.1,258.2c0.9,0.8,2,1.2,3.3,1.2c1.5,0,2.3-0.6,2.3-1.7c0-0.9-0.5-1.4-1.5-1.6c-0.5,0-1-0.1-1.6-0.2&#xD;&#xA;&#x9;&#x9;&#x9;&#x9;c-1-0.2-1.8-0.6-2.3-1.2c-0.5-0.6-0.8-1.4-0.8-2.2s0.3-1.9,1-2.6c0.7-0.6,1.6-1,2.8-1c1.5,0,2.7,0.5,3.8,1.2l-1,1.5&#xD;&#xA;&#x9;&#x9;&#x9;&#x9;c-0.9-0.6-1.8-0.9-2.9-0.9c-0.5,0-1,0.1-1.4,0.4c-0.4,0.3-0.6,0.7-0.6,1.3c0,0.3,0.1,0.7,0.4,0.9c0.3,0.3,0.7,0.5,1.3,0.6&#xD;&#xA;&#x9;&#x9;&#x9;&#x9;c0.3,0,0.8,0.1,1.3,0.2c1.1,0.2,1.9,0.6,2.4,1.2c0.5,0.6,0.8,1.4,0.8,2.3c0,2.3-1.4,3.5-4.1,3.5c-1.7,0-3.2-0.6-4.5-1.7l1.2-1.4&#xD;&#xA;&#x9;&#x9;&#x9;&#x9;L252.1,258.2z" />
                    <path fill="#046DB6" d="M262.4,257.5c0,0.7,0.2,1.2,0.6,1.6c0.4,0.4,0.8,0.5,1.4,0.5c0.6,0,1.3-0.3,1.8-0.8l1.2,1.1&#xD;&#xA;&#x9;&#x9;&#x9;&#x9;c-0.9,0.9-1.9,1.4-3,1.4c-0.4,0-0.9,0-1.3-0.2c-0.2,0-0.4-0.2-0.6-0.3s-0.4-0.2-0.6-0.4c-0.4-0.3-0.6-0.8-0.9-1.3&#xD;&#xA;&#x9;&#x9;&#x9;&#x9;c-0.2-0.6-0.4-1.3-0.4-2.2s0.1-1.6,0.3-2.1c0.2-0.6,0.5-1,0.8-1.4c0.3-0.3,0.7-0.6,1.1-0.7c0.4-0.1,0.8-0.2,1.2-0.2&#xD;&#xA;&#x9;&#x9;&#x9;&#x9;c1,0,1.8,0.3,2.4,1c0.7,0.6,1,1.5,1,2.7v1.4h-5.2L262.4,257.5z M265.9,256c0-0.7-0.2-1.2-0.5-1.5c-0.3-0.3-0.7-0.5-1.2-0.5&#xD;&#xA;&#x9;&#x9;&#x9;&#x9;s-0.9,0.2-1.2,0.5c-0.3,0.3-0.5,0.9-0.5,1.5h3.5H265.9z" />
                    <path fill="#046DB6" d="M269.4,252.5h1.7v0.9l0,0c0.6-0.7,1.3-1,2.2-1c0.7,0,1.3,0.2,1.8,0.7l-1.2,1.5c-0.4-0.3-0.7-0.4-1.1-0.4&#xD;&#xA;&#x9;&#x9;&#x9;&#x9;c-0.4,0-0.8,0.1-1.1,0.4c-0.3,0.3-0.5,0.7-0.5,1.4v5.2h-1.7L269.4,252.5L269.4,252.5z" />
                    <path fill="#046DB6" d="M276,252.5h1.8l2,6l0,0l2-6h1.8l-3.1,8.6h-1.4L276,252.5z" />
                    <path fill="#046DB6" d="M284.4,249h1.7v1.7h-1.7V249z M284.4,252.5h1.7v8.6h-1.7V252.5z" />
                    <path fill="#046DB6" d="M293.9,259.7c-0.4,0.4-0.8,0.8-1.3,1c-0.5,0.3-1.1,0.4-1.7,0.4c-1,0-1.8-0.3-2.6-1&#xD;&#xA;&#x9;&#x9;&#x9;&#x9;c-0.8-0.7-1.2-1.8-1.2-3.4c0-1.6,0.4-2.7,1.2-3.4c0.7-0.7,1.6-1,2.6-1c0.6,0,1.2,0.1,1.7,0.4c0.5,0.3,0.9,0.6,1.3,1.1l-1.2,1.1&#xD;&#xA;&#x9;&#x9;&#x9;&#x9;c-0.4-0.6-1-0.9-1.7-0.9c-1.4,0-2.1,0.9-2.2,2.7c0,1.8,0.7,2.7,2.2,2.7c0.7,0,1.3-0.3,1.7-0.9L293.9,259.7L293.9,259.7z" />
                    <path fill="#046DB6" d="M295.9,257.5c0,0.7,0.2,1.2,0.6,1.6c0.4,0.4,0.8,0.5,1.4,0.5s1.3-0.3,1.8-0.8l1.2,1.1&#xD;&#xA;&#x9;&#x9;&#x9;&#x9;c-0.9,0.9-1.9,1.4-3,1.4c-0.4,0-0.9,0-1.3-0.2c-0.2,0-0.4-0.2-0.6-0.3c-0.2-0.1-0.4-0.2-0.6-0.4c-0.4-0.3-0.6-0.8-0.9-1.3&#xD;&#xA;&#x9;&#x9;&#x9;&#x9;c-0.2-0.6-0.4-1.3-0.4-2.2s0.1-1.6,0.3-2.1c0.2-0.6,0.5-1,0.8-1.4c0.3-0.3,0.7-0.6,1.1-0.7c0.4-0.1,0.8-0.2,1.2-0.2&#xD;&#xA;&#x9;&#x9;&#x9;&#x9;c1,0,1.8,0.3,2.4,1c0.7,0.6,1,1.5,1,2.7v1.4h-5.2L295.9,257.5z M299.5,256c0-0.7-0.2-1.2-0.5-1.5s-0.7-0.5-1.2-0.5&#xD;&#xA;&#x9;&#x9;&#x9;&#x9;s-0.9,0.2-1.2,0.5c-0.3,0.3-0.5,0.9-0.5,1.5H299.5L299.5,256z" />
                    <path fill="#046DB6" d="M303,258.5c0.7,0.7,1.6,1.1,2.6,1.1s0.9,0,1.2-0.3c0.3-0.2,0.5-0.5,0.5-0.8c0-0.3,0-0.5-0.3-0.6&#xD;&#xA;&#x9;&#x9;&#x9;&#x9;c-0.2-0.1-0.4-0.2-0.7-0.2h-1.5c-0.7-0.2-1.3-0.4-1.7-0.9c-0.5-0.4-0.7-1-0.7-1.7c0-0.9,0.3-1.5,0.9-2c0.6-0.4,1.3-0.7,2.2-0.7&#xD;&#xA;&#x9;&#x9;&#x9;&#x9;s0.7,0,1,0s0.6,0.1,0.9,0.2c0.5,0.2,1,0.5,1.4,0.9l-1,1.3c-0.3-0.2-0.7-0.4-1-0.6c-0.4-0.1-0.8-0.2-1.2-0.2s-0.9,0-1.1,0.3&#xD;&#xA;&#x9;&#x9;&#x9;&#x9;c-0.2,0.2-0.3,0.4-0.3,0.7c0,0.2,0,0.4,0.2,0.5c0.2,0.2,0.4,0.3,0.9,0.3h1.4c0.9,0.2,1.5,0.4,1.9,0.9s0.5,1.1,0.5,1.8&#xD;&#xA;&#x9;&#x9;&#x9;&#x9;c0,0.8-0.3,1.5-1,1.9c-0.6,0.5-1.5,0.7-2.5,0.7c-1.4,0-2.6-0.5-3.7-1.5l1.2-1.2L303,258.5z" />
                </g>
                <path fill="#046DB6" d="M201.5,178.7c2.1,1.2,4,2.8,5.5,4.7c2.4,3.1,4.1,7.5,4.8,12.4h9.7l-21.4,42.8h21.7l21.4-42.8h18.6&#xD;&#xA;&#x9;&#x9;&#x9;l8.5-17.1h-68.7H201.5z" />
                <path fill="#046DB6" d="M198.5,185.4c-1.6-2.1-3.8-3.8-6.4-4.8c-3.6-1.4-7.4-1.8-10.6-1.8h-5.1h-16.1l-8.7,17.5h23.1&#xD;&#xA;&#x9;&#x9;&#x9;c4.8,0,7.2,2,7.2,5.8s-2.4,5.9-7.2,5.9h-29l-15.3,30.6h24.3l7.5-14.9h11.6c2.7,0,5.1,0,7.2-0.2c3.2-0.3,5.9-0.8,8.4-1.5&#xD;&#xA;&#x9;&#x9;&#x9;c8.6-2.6,13.5-10.4,13.5-21.3s-1.6-11.9-4.4-15.4" />
                <polygon fill="#046DB6" points="147.9,178.7 125.5,178.7 108.3,215 93.5,178.7 70.9,178.7 98.2,238.6 117.9,238.6 &#x9;&#x9;" />
            </g>
        </g>
    </g>
</svg>
