<?xml version="1.0" encoding="utf-8"?>
<svg version="1.2" baseProfile="tiny-ps" xmlns="http://www.w3.org/2000/svg" viewBox="0 0 218 218" width="218" height="218">
   <title>People's Postcode Lottery</title>
   <g>
      <path d="M218 0H0V218H218V0Z" fill="#E30027"/>
      <path d="M39.4 159.2C35 159.2 31.5 155.7 31.5 151.3V66C31.5 61.6 35 58.1 39.4 58.1H178.3C182.7 58.1 186.2 61.6 186.2 66V151.2C186.2 155.6 182.7 159.1 178.3 159.1H39.4V159.2Z" fill="white"/>
      <path d="M178.3 58.7C182.4 58.7 185.7 62 185.7 66.1V151.3C185.7 155.4 182.4 158.7 178.3 158.7H39.4C35.3 158.7 32 155.4 32 151.3V66C32 61.9 35.3 58.6 39.4 58.6L178.3 58.7ZM178.3 57.6H39.4C34.8 57.6 31 61.4 31 66V151.2C31 155.8 34.8 159.6 39.4 159.6H178.3C182.9 159.6 186.7 155.8 186.7 151.2V66C186.7 61.4 183 57.6 178.3 57.6Z" fill="#929191"/>
      <path d="M53.1992 94.4694H40V107.739H53.1992V94.4694Z" fill="#0050A5"/>
      <path d="M67.3912 95.3639C66.2771 94.6579 64.6263 94.2994 62.4828 94.2994C60.3393 94.2994 58.4458 94.3955 56.9899 94.5914L56.9127 94.6025V107.732H61.2401V103.355H61.2695C61.5269 103.377 61.8799 103.407 62.2806 103.407C64.6888 103.407 66.4757 102.93 67.7478 101.947C68.7001 101.226 69.2479 100.032 69.2479 98.6795C69.2479 97.3266 68.553 96.0884 67.3875 95.3676L67.3912 95.3639ZM64.9205 98.6943C64.9205 99.7662 63.891 100.435 62.2365 100.435C61.7843 100.435 61.4791 100.42 61.2401 100.387V97.2712C61.4203 97.2453 61.8137 97.2047 62.5269 97.2047C64.0491 97.2047 64.9205 97.748 64.9205 98.6943Z" fill="#0050A5"/>
      <path d="M75.5166 102.527H81.5978V99.3854H75.5166V97.5595H81.9765V94.414H71.1451V107.728H82.3074V104.586H75.5166V102.527Z" fill="#0050A5"/>
      <path d="M92.1829 94.1811C87.3077 94.1811 83.9068 97.0642 83.9068 101.189C83.9068 105.314 87.1239 107.964 91.9182 107.964H91.9403C96.9589 107.964 100.33 105.163 100.33 100.997C100.33 96.8313 97.0545 94.1811 92.1829 94.1811ZM92.1168 104.937C89.9806 104.937 88.5467 103.392 88.5467 101.093C88.5467 98.7941 90.0137 97.2084 92.1168 97.2084C94.2198 97.2084 95.6868 98.8051 95.6868 101.093C95.6868 103.381 94.2603 104.937 92.1168 104.937Z" fill="#0050A5"/>
      <path d="M112.849 95.3639C111.735 94.6579 110.085 94.2994 107.941 94.2994C105.798 94.2994 103.904 94.3955 102.448 94.5914L102.371 94.6025V107.732H106.698V103.355H106.728C106.985 103.377 107.338 103.407 107.739 103.407C110.147 103.407 111.934 102.93 113.206 101.947C114.158 101.226 114.706 100.032 114.706 98.6795C114.706 97.3266 114.011 96.0884 112.846 95.3676L112.849 95.3639ZM110.379 98.6943C110.379 99.7662 109.349 100.435 107.695 100.435C107.243 100.435 106.937 100.42 106.698 100.387V97.2712C106.879 97.2453 107.272 97.2047 107.985 97.2047C109.507 97.2047 110.379 97.748 110.379 98.6943Z" fill="#0050A5"/>
      <path d="M120.857 94.414H116.486V107.728H127.317V104.471H120.857V94.414Z" fill="#0050A5"/>
      <path d="M133.597 102.527H139.678V99.3854H133.597V97.5595H140.057V94.414H129.225V107.728H140.388V104.586H133.597V102.527Z" fill="#0050A5"/>
      <path d="M143.829 94.1848L143.814 94.255C143.454 96.1845 142.906 98.0474 142.134 99.9473L142.079 100.08L144.884 99.8918L144.91 99.8549C146.109 98.1509 147.09 96.2769 147.914 94.1257L147.962 93.9963L143.895 94.1774H143.825L143.829 94.1848Z" fill="#0050A5"/>
      <path d="M156.333 99.5222L156.083 99.452C154.359 98.9715 153.495 98.7312 153.495 98.1287C153.495 97.6112 154.19 97.3045 155.359 97.3045C157.117 97.3045 158.396 97.7628 159.01 97.9809L159.095 98.0104L160.106 94.9573L160.025 94.9278C158.635 94.4103 157.216 94.1811 155.422 94.1811C151.583 94.1811 149.01 95.8777 149.01 98.4022C149.01 100.409 150.557 101.766 153.738 102.542C155.514 102.982 156.175 103.329 156.175 103.839C156.175 104.46 155.458 104.8 154.157 104.8C152.216 104.8 150.524 104.165 149.888 103.891L149.796 103.851L148.881 107.026L148.951 107.059C149.918 107.495 151.866 107.964 153.848 107.964C158.889 107.964 160.683 105.736 160.683 103.647C160.683 101.559 159.341 100.372 156.333 99.5259V99.5222Z" fill="#0050A5"/>
      <path d="M176.985 94.4694H163.786V107.739H176.985V94.4694Z" fill="#0050A5"/>
      <path d="M53.1992 137.475H40V150.745H53.1992V137.475Z" fill="#E30027"/>
      <path d="M61.549 137.446H56.9825V150.763H68.3728V147.537H61.549V137.446Z" fill="#E30027"/>
      <path d="M77.9579 137.213C72.8253 137.213 69.2405 140.096 69.2405 144.225C69.2405 146.125 70.0421 147.84 71.498 149.052C73.0275 150.327 75.1637 151 77.6785 151H77.7042C82.9913 151 86.5393 148.198 86.5393 144.029C86.5393 139.859 83.0905 137.213 77.9579 137.213ZM77.9138 148.006H77.8917C75.6196 148.006 74.0937 146.446 74.0937 144.125C74.0937 141.804 75.6563 140.203 77.8917 140.203C80.1272 140.203 81.6897 141.815 81.6897 144.125C81.6897 146.435 80.1713 148.006 77.9138 148.006Z" fill="#E30027"/>
      <path d="M87.1275 140.595H91.58V150.763H96.1501V140.595H100.698V137.446H87.1275V140.595Z" fill="#E30027"/>
      <path d="M102.268 140.595H106.724V150.763H111.291V140.595H115.839V137.446H102.268V140.595Z" fill="#E30027"/>
      <path d="M122.515 145.544H128.942V142.432H122.515V140.554H129.339V137.446H117.949V150.763H129.692V147.655H122.515V145.544Z" fill="#E30027"/>
      <path d="M145.028 148.856C144.811 148.209 144.568 147.481 144.325 146.875C143.811 145.607 143.178 144.883 142.278 144.539C143.388 144.21 145.057 143.086 145.057 141.331C145.057 140.059 144.476 139.035 143.381 138.377C142.164 137.653 140.417 137.331 137.718 137.331C135.649 137.331 133.612 137.438 132.13 137.623L132.071 137.631V150.763H136.593V145.855H137.321C138.77 145.855 139.369 146.132 139.858 147.703C140.498 149.728 140.928 150.497 141.086 150.73L141.108 150.76H145.767L145.704 150.656C145.539 150.383 145.303 149.673 145.028 148.852V148.856ZM140.538 141.604C140.538 142.554 139.531 143.12 137.84 143.12H136.597V140.236C136.917 140.192 137.461 140.17 138.219 140.17C139.715 140.17 140.542 140.68 140.542 141.608L140.538 141.604Z" fill="#E30027"/>
      <path d="M156.135 137.446L154.638 140.436C154.418 140.88 154.223 141.268 154.032 141.637C153.852 141.992 153.679 142.329 153.502 142.687C153.234 142.136 153.006 141.696 152.723 141.149C152.609 140.928 152.484 140.687 152.344 140.414L150.866 137.483L150.848 137.446H145.491L151.043 145.223V150.763H155.609V145.086L161.341 137.557L161.426 137.446H156.135Z" fill="#E30027"/>
      <path d="M176.985 137.475H163.786V150.745H176.985V137.475Z" fill="#E30027"/>
      <path d="M40.0184 111.491C41.4964 111.217 43.6142 111.014 46.4378 111.014C49.4233 111.014 51.6072 111.524 53.1478 112.818C54.5927 114.008 55.4604 116.015 55.4604 118.225C55.4604 120.676 54.6883 122.65 53.3757 123.973C51.7396 125.536 49.2652 126.254 46.732 126.254C46.2503 126.254 45.8312 126.22 45.5113 126.187V134.115H40.0184V111.491ZM45.5077 121.63C45.7981 121.696 46.118 121.696 46.5996 121.696C48.7836 121.696 49.9711 120.369 49.9711 118.466C49.9711 116.732 49.0078 115.505 46.9857 115.505C46.2798 115.505 45.7981 115.571 45.5077 115.642V121.63Z" fill="#009B00"/>
      <path d="M65.8911 134.456C59.5672 134.456 56.4531 128.911 56.4531 122.72C56.4531 116.529 60.0158 110.848 66.211 110.848C72.8547 110.848 75.6821 116.732 75.6821 122.347C75.6821 130.105 71.862 134.459 65.9242 134.459H65.8911V134.456ZM66.1154 129.691C68.5236 129.691 69.8398 126.867 69.8398 122.546C69.8398 118.599 68.5236 115.605 66.0823 115.605C63.641 115.605 62.2622 118.599 62.2953 122.613C62.2622 126.867 63.7072 129.687 66.0823 129.687H66.1154V129.691Z" fill="#009B00"/>
      <path d="M77.5792 128.298C78.7668 128.944 80.7265 129.558 82.6199 129.558C84.5134 129.558 85.5098 128.774 85.5098 127.617C85.5098 126.461 84.5796 125.78 82.267 124.794C78.6712 123.16 76.8108 120.916 76.8108 118.022C76.8108 114.041 79.7632 110.877 85.0943 110.877C87.3408 110.877 89.0762 111.354 90.2637 111.931L89.2048 116.728C88.3372 116.322 86.9584 115.741 85.0649 115.741C83.3332 115.741 82.3993 116.492 82.3993 117.512C82.3993 118.636 83.3295 119.146 85.9951 120.369C89.624 121.933 91.1314 124.213 91.1314 127.174C91.1314 131.221 88.1791 134.419 82.3993 134.419C79.9911 134.419 77.7116 133.772 76.6196 133.195L77.5829 128.298H77.5792Z" fill="#009B00"/>
      <path d="M96.5839 116.255H91.6094V111.188H107.209V116.255H102.139V134.115H96.5839V116.255Z" fill="#009B00"/>
      <path d="M122.552 133.605C121.813 133.979 120.015 134.422 117.769 134.422C110.257 134.422 107.048 129.081 107.048 123.027C107.048 114.795 112.346 110.881 118.217 110.881C120.431 110.881 122.166 111.324 122.905 111.764L121.909 116.458C121.107 116.085 119.982 115.745 118.537 115.745C115.456 115.745 112.886 117.856 112.886 122.65C112.886 127.004 115.07 129.454 118.6 129.454C119.754 129.454 121.104 129.218 121.876 128.911L122.549 133.605H122.552Z" fill="#009B00"/>
      <path d="M132.347 134.456C126.023 134.456 122.909 128.911 122.909 122.72C122.909 116.529 126.472 110.848 132.667 110.848C139.31 110.848 142.138 116.732 142.138 122.347C142.138 130.105 138.318 134.459 132.38 134.459H132.347V134.456ZM132.571 129.691C134.979 129.691 136.296 126.867 136.296 122.546C136.296 118.599 134.979 115.605 132.538 115.605C130.097 115.605 128.718 118.599 128.751 122.613C128.718 126.867 130.163 129.687 132.538 129.687H132.571V129.691Z" fill="#009B00"/>
      <path d="M143.969 111.491C145.576 111.217 147.822 111.014 150.164 111.014C153.951 111.014 156.392 111.727 158.348 113.261C160.595 115.032 161.911 117.955 161.911 122.21C161.911 126.801 160.404 129.965 158.315 131.735C156.197 133.539 153.05 134.356 149.135 134.356C146.759 134.356 144.995 134.152 143.965 134.016V111.494L143.969 111.491ZM149.488 129.658C149.745 129.724 150.193 129.724 150.546 129.724C153.694 129.758 156.069 127.58 156.069 122.273C156.069 117.815 154.013 115.538 150.932 115.538C150.227 115.538 149.778 115.605 149.488 115.675V129.658Z" fill="#009B00"/>
      <path d="M176.198 124.727H169.33V129.251H177.004V134.115H163.779V111.184H176.588V116.048H169.334V119.926H176.202V124.723L176.198 124.727Z" fill="#009B00"/>
      <path d="M108.6 83.8C97 82.5 97 81.1 97 80.5V72.6C95.4 72.3 93.8 72.1 92.1 71.8C83.3 70.3 73.4 68.6 63.2 68.6C54.3 68.6 46.4 69.9 39 72.5L38.6 72.7L49.7 76.8L39 85.6L38.3 86.2L39.1 85.9C46.4 83.3 54.3 82 63.2 82C73.4 82 83.3 83.7 92.1 85.2C99.3 86.4 106 87.6 111.7 87.6C113.3 87.6 114.7 87.5 116 87.3C119.2 86.9 119.5 86.3 119.5 85.9V85.8C118.6 85 112.1 84.3 108.6 83.8Z" fill="#F9B10C"/>
      <path d="M178.3 67.8L179 67.2L178.1 67.5C170.8 70.1 162.9 71.4 154 71.4C143.8 71.4 133.9 69.7 125.1 68.2C117.9 67 111.2 65.8 105.5 65.8C103.9 65.8 102.5 65.8 101.2 66.1C98.8 66.5 97.7 68 97.7 68.9V80C98.2 79.7 99.2 79.4 101.2 79.1C102.5 78.9 103.9 78.8 105.5 78.8C108.8 78.8 113.1 79.5 117.2 80.2C117.9 80.3 118.7 80.4 119.4 80.6C121.2 80.9 123.1 81.2 125 81.5C133.8 83 143.7 84.7 153.9 84.7C162.8 84.7 170.7 83.4 178.1 80.8L178.5 80.6L167.4 76.6L178.3 67.8Z" fill="#F9B10C"/>
      <path d="M105.6 79.7C104.1 79.7 102.7 79.8 101.4 80C98.7 80.3 98.1 80.8 98 80.9L98.1 81C98.9 81.5 101.3 82.3 108.6 83.2C115.1 84 118.1 84.5 119.4 85.1V81.5C118.6 81.4 117.9 81.2 117.1 81.1C113.1 80.4 108.9 79.7 105.6 79.7Z" fill="#F9B10C"/>
   </g>
</svg>
