<?xml version="1.0" encoding="utf-8"?>
<svg version="1.2" baseProfile="tiny-ps" xmlns="http://www.w3.org/2000/svg" viewBox="0 0 218 218" width="218" height="218">
   <title>Svenska Postkod Lotteriet</title>
   <g>
      <path d="M218 0H0V218H218V0Z" fill="#E30027"/>
      <path d="M39.4 159.2C35 159.2 31.5 155.7 31.5 151.3V66C31.5 61.6 35 58.1 39.4 58.1H178.3C182.7 58.1 186.2 61.6 186.2 66V151.2C186.2 155.6 182.7 159.1 178.3 159.1H39.4V159.2Z" fill="white"/>
      <path d="M178.3 58.7C182.4 58.7 185.7 62 185.7 66.1V151.3C185.7 155.4 182.4 158.7 178.3 158.7H39.4C35.3 158.7 32 155.4 32 151.3V66C32 61.9 35.3 58.6 39.4 58.6L178.3 58.7ZM178.3 57.6H39.4C34.8 57.6 31 61.4 31 66V151.2C31 155.8 34.8 159.6 39.4 159.6H178.3C182.9 159.6 186.7 155.8 186.7 151.2V66C186.7 61.4 183 57.6 178.3 57.6Z" fill="#929191"/>
      <path d="M60.6 137.3H56.8V150.5H66.1V147.3H60.6V137.3Z" fill="#E30027"/>
      <path d="M74 137.1C69.8 137.1 66.9 140 66.9 144C66.9 148 69.7 150.7 73.8 150.7C78.1 150.7 81 147.9 81 143.8C81 139.8 78.2 137.1 74 137.1ZM74 147.8C72.1 147.8 70.9 146.2 70.9 144C70.9 141.7 72.1 140.1 74 140.1C75.9 140.1 77.1 141.7 77.1 144C77.1 146.3 75.8 147.8 74 147.8Z" fill="#E30027"/>
      <path d="M81.7 140.5H85.2V150.5H89V140.5H92.8V137.3H81.7V140.5Z" fill="#E30027"/>
      <path d="M94.2 140.5H97.8V150.5H101.6V140.5H105.3V137.3H94.2V140.5Z" fill="#E30027"/>
      <path d="M110.9 145.4H116.2V142.3H110.9V140.4H116.5V137.3H107.1V150.5H116.7V147.4H110.9V145.4Z" fill="#E30027"/>
      <path d="M129.6 148.6C129.4 148 129.2 147.2 129.1 146.7C128.8 145.8 128.4 144.8 127.5 144.4C128.4 144.1 129.8 142.9 129.8 141.2C129.8 140 129.3 138.9 128.4 138.3C127.4 137.6 126 137.3 123.7 137.3C122 137.3 120.4 137.4 119.1 137.6H119V150.6H122.7V145.8H123.2C124.4 145.8 124.8 146.1 125.2 147.6C125.6 149 125.9 150.1 126.2 150.6V150.7H130.1L130 150.5C130 150.1 129.8 149.4 129.6 148.6ZM125.9 141.4C125.9 142.3 125.1 142.9 123.7 142.9H122.7V140.1C122.9 140 123.4 140 124 140C125.2 140 125.9 140.6 125.9 141.4Z" fill="#E30027"/>
      <path d="M135.8 137.3H132V150.5H135.8V137.3Z" fill="#E30027"/>
      <path d="M142.1 145.4H147.4V142.3H142.1V140.4H147.7V137.3H138.4V150.5H148V147.4H142.1V145.4Z" fill="#E30027"/>
      <path d="M149.5 137.3V140.5H153.1V150.5H156.9V140.5H160.6V137.3H149.5Z" fill="#E30027"/>
      <path d="M176.6 137.4H163.5V150.5H176.6V137.4Z" fill="#E30027"/>
      <path d="M53.2 137.4H40.1V150.5H53.2V137.4Z" fill="#E30027"/>
      <path d="M40.1 111.6C41.7 111.4 44.1 111.1 47.2 111.1C50.5 111.1 52.9 111.6 54.6 112.9C56.2 114.1 57.2 116.1 57.2 118.3C57.2 120.7 56.3 122.6 54.9 124C53.1 125.6 50.3 126.3 47.5 126.3C47 126.3 46.5 126.3 46.2 126.2V134H40.1V111.6ZM46.3 121.6C46.6 121.7 47 121.7 47.5 121.7C49.9 121.7 51.2 120.4 51.2 118.5C51.2 116.8 50.1 115.6 47.9 115.6C47.1 115.6 46.6 115.7 46.3 115.8V121.6Z" fill="#009B00"/>
      <path d="M68.6 134.4C61.6 134.4 58.2 128.9 58.2 122.8C58.2 116.4 62.2 111.1 69 111.1C76.4 111.1 79.5 116.9 79.5 122.5C79.5 130 75.2 134.4 68.6 134.4ZM68.9 129.6C71.5 129.6 73 126.8 73 122.5C73 118.6 71.5 115.6 68.8 115.6C66.2 115.6 64.6 118.5 64.6 122.5C64.7 126.8 66.2 129.6 68.9 129.6Z" fill="#009B00"/>
      <path d="M81.4 128.2C82.7 128.8 84.9 129.4 87 129.4C89.2 129.4 90.2 128.6 90.2 127.5C90.2 126.3 89.2 125.7 86.6 124.7C82.6 123.1 80.5 120.9 80.5 118C80.5 114 83.8 110.9 89.7 110.9C92.2 110.9 94.1 111.4 95.4 111.9L94.2 116.6C93.3 116.2 91.7 115.6 89.6 115.6C87.7 115.6 86.7 116.4 86.7 117.4C86.7 118.5 87.7 119 90.7 120.2C94.7 121.8 96.4 124 96.4 127C96.4 131 93.1 134.1 86.8 134.1C84.2 134.1 81.6 133.5 80.4 132.9L81.4 128.2Z" fill="#009B00"/>
      <path d="M102.7 116.4H97.2V111.4H114.4V116.4H108.8V134.1H102.7V116.4Z" fill="#009B00"/>
      <path d="M116.4 111.3H122.5V121H122.6C123.1 120.1 123.5 119.2 124 118.4L128 111.3H135.3L128.5 121.1L135.6 134.1H128.5L124.2 125L122.6 127.2V134.1H116.5L116.4 111.3Z" fill="#009B00"/>
      <path d="M144.5 134.4C137.5 134.4 134.1 128.9 134.1 122.8C134.1 116.4 138.1 111.1 144.9 111.1C152.3 111.1 155.4 116.9 155.4 122.5C155.3 130 151.1 134.4 144.5 134.4ZM144.8 129.6C147.4 129.6 148.9 126.8 148.9 122.5C148.9 118.6 147.4 115.6 144.7 115.6C142.1 115.6 140.5 118.5 140.5 122.5C140.5 126.8 142.1 129.6 144.8 129.6Z" fill="#009B00"/>
      <path d="M157.5 111.6C159.3 111.4 161.8 111.1 164.3 111.1C168.5 111.1 171.2 111.8 173.4 113.4C175.9 115.2 177.4 118.1 177.4 122.2C177.4 126.8 175.8 129.9 173.4 131.7C171 133.5 167.6 134.3 163.2 134.3C160.6 134.3 158.6 134.1 157.5 134V111.6ZM163.6 129.6C163.9 129.7 164.4 129.7 164.8 129.7C168.3 129.7 170.9 127.6 170.9 122.3C170.9 117.9 168.6 115.6 165.2 115.6C164.4 115.6 164 115.7 163.6 115.8V129.6Z" fill="#009B00"/>
      <path d="M63.8 99.8L63.6 99.7C61.9 99.2 61 99 61 98.4C61 97.9 61.7 97.5 62.9 97.5C64.7 97.5 65.9 98 66.5 98.2H66.6L67.6 95.2H67.5C66.1 94.7 64.7 94.4 62.9 94.4C59.1 94.4 56.5 96.1 56.5 98.6C56.5 100.6 58.1 101.9 61.2 102.7C63 103.2 63.6 103.5 63.6 104C63.6 104.6 62.9 104.9 61.6 104.9C59.7 104.9 58 104.3 57.3 104L57.2 103.9L56.3 107.1H56.4C57.3 107.6 59.3 108 61.3 108C66.3 108 68.1 105.8 68.1 103.7C68.2 101.8 66.8 100.6 63.8 99.8Z" fill="#0050A5"/>
      <path d="M77.9 99.9C77.4 101.5 76.9 102.8 76.5 104.2C76.1 102.7 75.7 101.4 75.1 99.8L73.3 94.8V94.7H68.6L73.8 107.9V108H78.9L84.3 95L84.4 94.8H79.8C79.7 94.7 77.9 99.9 77.9 99.9Z" fill="#0050A5"/>
      <path d="M90.3 102.7H96.3V99.6H90.3V97.8H96.7V94.7H85.9V107.9H97V104.8H90.3V102.7Z" fill="#0050A5"/>
      <path d="M109.7 98.2C109.7 99.8 109.7 101.3 109.9 103.1C109.1 101.4 108.3 99.8 107.4 98.5L104.9 94.7V94.6H99.5V107.8H103.5V104.2C103.5 102.6 103.5 100.6 103.3 98.6C104.2 100.4 105.2 102.1 106.1 103.5L108.8 107.8H113.5V94.6H109.5L109.7 98.2Z" fill="#0050A5"/>
      <path d="M123.3 99.8L123.1 99.7C121.4 99.2 120.5 99 120.5 98.4C120.5 97.9 121.2 97.5 122.4 97.5C124.2 97.5 125.4 98 126 98.2H126.1L127.1 95.2H127C125.6 94.7 124.2 94.4 122.4 94.4C118.6 94.4 116 96.1 116 98.6C116 100.6 117.6 101.9 120.7 102.7C122.5 103.2 123.1 103.5 123.1 104C123.1 104.6 122.4 104.9 121.1 104.9C119.2 104.9 117.5 104.3 116.8 104L116.7 103.9L115.8 107.1H115.9C116.8 107.6 118.8 108 120.8 108C125.8 108 127.6 105.8 127.6 103.7C127.7 101.8 126.4 100.6 123.3 99.8Z" fill="#0050A5"/>
      <path d="M144 94.7H138.5L135.2 98.9L135.1 99.1C134.8 99.4 134.6 99.8 134.2 100.2V94.8H129.9V108H134.2V104L135.5 102.7L139.1 108H144.2L138.7 100.4L144 94.7Z" fill="#0050A5"/>
      <path d="M155.6 94.8L149.8 94.7L145.1 107.7L145 107.9H149.6L150.5 104.7H154.7L155.8 107.8V107.9H160.6L155.6 94.8ZM154 101.8H151.1L151.8 99.6C152 99.2 152 98.8 152.2 98.4C152.3 98.1 152.4 97.7 152.5 97.4C152.6 97.6 152.7 97.9 152.8 98.3C153 98.8 153.1 99.3 153.3 99.7L154 101.8Z" fill="#0050A5"/>
      <path d="M176.6 94.8H163.5V107.9H176.6V94.8Z" fill="#0050A5"/>
      <path d="M53.2 94.8H40.1V107.9H53.2V94.8Z" fill="#0050A5"/>
      <path d="M108.6 83.8C97 82.5 97 81.1 97 80.5V72.6C95.4 72.3 93.8 72.1 92.1 71.8C83.3 70.3 73.4 68.6 63.2 68.6C54.3 68.6 46.4 69.9 39 72.5L38.6 72.7L49.7 76.8L39 85.6L38.3 86.2L39.1 85.9C46.4 83.3 54.3 82 63.2 82C73.4 82 83.3 83.7 92.1 85.2C99.3 86.4 106 87.6 111.7 87.6C113.3 87.6 114.7 87.5 116 87.3C119.2 86.9 119.5 86.3 119.5 85.9V85.8C118.6 85 112.1 84.3 108.6 83.8Z" fill="#F9B10C"/>
      <path d="M178.3 67.8L179 67.2L178.1 67.5C170.8 70.1 162.9 71.4 154 71.4C143.8 71.4 133.9 69.7 125.1 68.2C117.9 67 111.2 65.8 105.5 65.8C103.9 65.8 102.5 65.8 101.2 66.1C98.8 66.5 97.7 68 97.7 68.9V80C98.2 79.7 99.2 79.4 101.2 79.1C102.5 78.9 103.9 78.8 105.5 78.8C108.8 78.8 113.1 79.5 117.2 80.2C117.9 80.3 118.7 80.4 119.4 80.6C121.2 80.9 123.1 81.2 125 81.5C133.8 83 143.7 84.7 153.9 84.7C162.8 84.7 170.7 83.4 178.1 80.8L178.5 80.6L167.4 76.6L178.3 67.8Z" fill="#F9B10C"/>
      <path d="M105.6 79.7C104.1 79.7 102.7 79.8 101.4 80C98.7 80.3 98.1 80.8 98 80.9L98.1 81C98.9 81.5 101.3 82.3 108.6 83.2C115.1 84 118.1 84.5 119.4 85.1V81.5C118.6 81.4 117.9 81.2 117.1 81.1C113.1 80.4 108.9 79.7 105.6 79.7Z" fill="#F9B10C"/>
   </g>
</svg>
