<svg xmlns="http://www.w3.org/2000/svg" xmlns:xlink="http://www.w3.org/1999/xlink" version="1.2" viewBox="0 0 720 720" baseProfile="tiny-ps">
  <title>CS_BIMILogo</title>
  <g>
    <g>
      <g>
        <g>
          <path d="M277.37,360.04v-0.3c0-22.05,16.91-40.3,40.49-40.3c11.82,0,20.02,3.43,26.59,8.91      c1.37,1.13,3.3,3.62,3.3,7.17c0,5.26-4.28,9.39-9.53,9.39c-2.71,0-4.82-1.08-6.08-2.06c-4.08-3.2-8.33-5.33-14.41-5.33      c-11.45,0-19.67,10.03-19.67,21.95v0.29c0,12.32,8.11,22.2,20.5,22.2c6.08,0,10.76-2.25,15.14-5.72      c1.11-0.89,3.19-1.99,5.65-1.99c4.97,0,8.84,4.02,8.84,8.97c0,2.76-1.2,4.95-3.01,6.6c-6.62,6.05-14.85,10.21-27.6,10.21      C294.39,400.03,277.37,382.1,277.37,360.04z" fill="#24B3E8"/>
          <path d="M540.46,330.51c0-5.79,4.63-10.47,10.43-10.47s10.47,4.67,10.47,10.47v58.16      c0,5.8-4.67,10.44-10.47,10.44c-5.77,0-10.43-4.64-10.43-10.44V330.51z" fill="#24B3E8"/>
          <path d="M687.1,353.23c-1.26-9.94-7.27-16.95-17.13-16.95c-9.53,0-15.86,6.77-17.56,16.95H687.1z       M672.11,400.03c-23.04,0-40.23-16.3-40.23-40.02v-0.29c0-22.1,15.71-40.28,38.13-40.28c25.54,0,37.14,20.96,37.14,37.45      c0,6.01-4.32,10.04-9.79,10.04h-44.7c2.1,10.61,9.52,16.25,19.74,16.25c6.41,0,11.63-2.1,16.27-5.57      c1.51-1.12,2.89-1.7,5.15-1.7c4.67,0,8.14,3.59,8.14,8.3c0,2.72-1.21,4.85-2.76,6.23C692.47,396.45,683.56,400.03,672.11,400.03      z" fill="#24B3E8"/>
          <path d="M619.97,320.01c-8.58,0-15.54,5.34-19.81,12.71v-2.2c0-5.79-4.68-10.47-10.47-10.47      s-10.42,4.67-10.42,10.47v58.16c0,5.8,4.66,10.44,10.42,10.44c5.79,0,10.47-4.67,10.47-10.44v-28.8      c0-10.86,3.86-14.77,15.99-17.96c11.24-2.96,14.82-5.68,14.82-11.42C630.96,324.05,626.53,320.01,619.97,320.01z" fill="#24B3E8"/>
          <path d="M414,351.39c-8.52-2.85-16.75-5.21-16.59-9.65v-0.29c0-3.28,3.51-4.99,9.14-5.01      c4.67,0,10.02,1.62,16.15,4.67c1.39,0.7,2.47,1.03,4.06,1.01c4.9-0.01,8.78-3.76,8.79-8.7c0.01-3.75-2.05-6.66-5.14-8.22      c-7.47-3.82-15.34-5.77-23.44-5.77c-15.5,0.01-29.11,8.38-29.14,24.1v0.28c0.01,15.25,13.36,20.17,24.08,23.71      c8.59,2.77,17.17,4.74,16.99,9.45v0.29c-0.01,3.45-3.73,5.62-10.28,5.64c-6.24,0-13.51-2.25-20.8-6.85      c-1.18-0.75-2.76-1.19-4.38-1.19c-4.9,0.01-8.63,3.81-8.65,8.71c0,3.48,1.88,6.07,4.15,7.51c9.34,5.94,19.56,8.95,29.15,8.95      c16.48-0.03,30.62-6.89,30.65-24.08v-0.3C438.72,361.27,425.54,355.34,414,351.39z" fill="#24B3E8"/>
          <path d="M493.62,319.44c-8.41,0-16.11,3.52-22.02,9.48c-0.77-5.04-5.08-8.87-10.33-8.87      c-5.8,0-10.43,4.67-10.43,10.47v86.32c0,5.79,4.67,10.42,10.43,10.42c5.79,0,10.47-4.64,10.47-10.42v-26.42      c5.89,5.88,13.54,9.35,21.89,9.35c18.65,0,33.78-17.24,33.78-40.16C527.4,336.68,512.28,319.44,493.62,319.44z M489.6,380.81      c-10.09,0-18.09-8.76-18.09-21.21c0-12.45,8-21.22,18.09-21.22s18.27,8.76,18.27,21.22C507.87,372.05,499.7,380.81,489.6,380.81      z" fill="#24B3E8"/>
        </g>
      </g>
      <path d="M201.88,337.66L250.93,279c2.52-2.95,3.69-6.17,3.42-9.49c-0.23-2.96-1.64-5.69-3.96-7.66    c-2.1-1.78-4.63-2.72-7.3-2.72c-2.54,0-6.22,0.83-9.59,4.77l-42.21,47.79l8.89-37.58c1.01-3.79,0.67-7.16-1.01-10.04    c-1.47-2.59-3.93-4.42-6.89-5.21c-0.99-0.25-1.98-0.39-2.97-0.39c-4.27,0-9.5,2.51-11.39,9.59l-10.18,37.4l-16.51-72.99    c-1.5-7.73-7.15-10.48-11.5-10.48c-0.75,0-1.51,0.08-2.26,0.22c-4.59,0.9-8.03,4.32-8.97,8.92c-0.36,1.79-0.34,3.69,0.07,5.76    l14.51,71.61l-18.01-23.22c-3.43-4.59-7.37-5.57-10.09-5.57c-2.43,0-4.74,0.79-6.73,2.28c-3.75,2.78-5.36,7.36-4.21,11.92    c0.44,1.76,1.24,3.46,2.4,5.02l17.6,24.65l-50.88-25.23c-2.24-1.17-4.4-1.74-6.59-1.74c-4.26,0-8.03,2.29-10,6.08    c-1.39,2.67-1.71,5.65-0.87,8.46c0.67,2.22,2.34,5.33,6.64,7.57l50.31,26.71c0,0-93.01-3.31-93.25-3.31    c-7.91,0-12.23,5.59-12.42,11.12c-0.1,3.04,0.96,5.92,3.01,8.11c2.23,2.37,5.41,3.72,9.11,3.83l93.98,5.21L91.53,380.6    c-1.93,0.86-3.47,1.93-4.74,3.26c-3.26,3.39-4.1,8.16-2.22,12.44c1.86,4.19,5.82,6.76,10.4,6.76c1.9,0,3.85-0.43,5.75-1.28    l21.23-8.92L73.8,449.73c-2.52,3-3.69,6.19-3.43,9.49c0.23,2.98,1.64,5.69,3.95,7.68c2.11,1.79,4.63,2.76,7.32,2.76    c2.52,0,6.24-0.85,9.62-4.81l49.62-55.97L132.84,440c-2.12,8.05,2.41,13.73,7.94,15.19c0.98,0.26,1.98,0.39,2.96,0.39    c4.09,0,9.52-2.52,11.37-9.52l9.16-31.07l15.27,72.51c1.48,7.75,7.12,10.5,11.5,10.5c0.72,0,1.47-0.08,2.23-0.23    c4.6-0.9,8.04-4.29,8.98-8.9c0.36-1.75,0.35-3.66-0.02-5.59l-13.93-74.31l26.69,33.98c3.43,4.62,7.39,5.57,10.1,5.57    c2.42,0,4.75-0.76,6.75-2.27c3.76-2.78,5.37-7.38,4.21-11.93c-0.45-1.73-1.29-3.44-2.46-4.99l-33.07-45.43    c0,0-3.79-5.61-8.87-0.16c-7.07,7.53-16.76,12.71-27.91,12.71c-20.47,0-37.08-16.63-37.08-37.1s16.6-37.08,37.08-37.08    c12.3,0,23.19,6,29.92,15.23C193.66,337.5,197.83,342.65,201.88,337.66z" fill="#24B3E8"/>
    </g>
    <g>
      <g>
        <path d="M703.63,324.2v-0.03c0-2.57,2.09-4.74,4.71-4.74c2.66,0,4.71,2.14,4.71,4.71v0.03     c0,2.57-2.09,4.74-4.71,4.74C705.68,328.92,703.63,326.78,703.63,324.2z M712.51,324.18v-0.03c0-2.3-1.79-4.2-4.17-4.2     c-2.36,0-4.17,1.92-4.17,4.23v0.03c0,2.3,1.79,4.2,4.17,4.2C710.69,328.4,712.51,326.48,712.51,324.18z M706.39,322.25     c0-0.35,0.27-0.62,0.6-0.62h1.71c1.17,0,1.98,0.54,1.98,1.63c0,0.73-0.38,1.25-0.98,1.49l0.73,0.89     c0.14,0.14,0.16,0.27,0.16,0.43c0,0.32-0.24,0.57-0.6,0.57c-0.22,0-0.35-0.11-0.49-0.24l-1.14-1.41h-0.79v1.06     c0,0.32-0.27,0.6-0.6,0.6c-0.33,0-0.6-0.27-0.6-0.6v-3.8H706.39z M708.61,324.01c0.54,0,0.84-0.27,0.84-0.68     c0-0.43-0.33-0.68-0.84-0.68h-1.03V324h1.03V324.01z" fill="#24B3E8"/>
      </g>
    </g>
  </g>
</svg>