<?xml version="1.0" encoding="utf-8"?>
<!-- Generator: Adobe Illustrator 28.1.0, SVG Export Plug-In . SVG Version: 6.00 Build 0)  -->
<svg version="1.2" baseProfile="tiny-ps" id="sygnet__on-white"
	 xmlns="http://www.w3.org/2000/svg" xmlns:xlink="http://www.w3.org/1999/xlink" viewBox="0 0 60 60"
	 xml:space="preserve">
	 <title>Vultr</title>
<path fill="#C9F4FF" d="M23.6,13c-0.4-0.6-1-1-1.8-1H11.1C9.9,12,9,12.9,9,14.1c0,0,0,0,0,0c0,0.4,0.1,0.8,0.3,1.1l2.8,4.1l13.9-3
	L23.6,13z"/>
<path fill="#51B9FF" d="M26,16.3c-0.4-0.6-1.1-1-1.8-1H13.5c-1.2-0.1-2.1,0.8-2.2,2c0,0.4,0.1,0.9,0.3,1.2l3.1,4.9l14.3-2.2L26,16.3
	z"/>
<path fill="#007BFC" d="M14.6,23.3c-0.4-0.6-0.4-1.3-0.2-1.9c0.3-0.8,1.1-1.4,2-1.3h10.7c0.7,0,1.4,0.4,1.8,1l9.6,15.3
	c0.2,0.3,0.3,0.7,0.3,1.1c0,0.4-0.1,0.8-0.3,1.1l-5.4,8.5c-0.6,1-1.9,1.3-2.9,0.6c-0.3-0.2-0.5-0.4-0.6-0.6L14.6,23.3z"/>
<path fill="#007BFC" d="M41.7,28.1c0.6,1,1.9,1.3,2.9,0.6c0.3-0.2,0.5-0.4,0.6-0.6l1.8-2.9l3.5-5.6c0.2-0.3,0.3-0.7,0.3-1.1
	c0-0.4-0.1-0.8-0.3-1.1L47.9,13c-0.4-0.6-1.1-1-1.8-1H35.3c-1.2,0-2.1,0.9-2.1,2.1l0,0c0,0.4,0.1,0.8,0.3,1.1L41.7,28.1z"/>
</svg>
