<?xml version="1.0" encoding="utf-8"?>
<!-- Generator: Adobe Illustrator 28.7.2, SVG Export Plug-In . SVG Version: 9.03 Build 54978)  -->
<svg version="1.2" baseProfile="tiny-ps" id="Capa_1" xmlns="http://www.w3.org/2000/svg" xmlns:xlink="http://www.w3.org/1999/xlink"
	  viewBox="0 0 523 523" xml:space="preserve">
<title>Instituto Nacional de Derechos Humanos</title>
<g>
	<path fill="#C8161D" d="M247.9,212.7c-0.6-6.4-1.7-12.8-4.1-18.8c-4.7-12.2-13.2-20.2-26.2-23.1c-6.3-1.4-12.6-1.5-19-0.8
		c-5.5,0.6-10.8,2-15.6,4.8c-0.5,0.3-0.8,0-1.1-0.2c-1.7-1.4-3.6-2.6-5.7-3.3c-5.3-1.8-10.6-2.1-16-1c-5.5,1.2-8.9,5.1-9.5,10.7
		c-0.3,2.7-0.2,5.4-0.2,8.1c0,2.2-0.3,2,2,2c2.2,0,4.4,0,6.6,0c2.8,0.1,3.9,1.2,4,4c0,0.2,0,0.5,0,0.7v39.6c0,13.4,0,26.7,0,40.1
		c0,1,0.2,1.5,1.3,1.7c4.5,0.5,9,1,13.5,1.2c5.1,0.3,10.2,0.6,15.4,0.6c5.3,0.1,10.7,0.3,15.9-0.7c10.5-1.9,19.5-6.6,26.4-14.9
		c7.4-8.9,10.9-19.3,12.2-30.6C248.5,226.1,248.5,219.4,247.9,212.7z M222.1,237.3c-0.8,4.5-2.1,8.9-4.7,12.8
		c-3.3,4.8-8,7.2-13.6,7.9c-5.4,0.7-10.8,0.2-16.3,0c-0.8,0-1-0.3-1-1.2c0-10.7,0-21.5,0-32.2c0-10.7,0-21.5,0-32.2
		c0-0.8,0.3-1.1,1-1.2c5.3-0.8,10.6-1.1,15.9-0.6c8.2,0.8,13.8,5,16.7,12.8c1.8,4.6,2.4,9.4,2.8,14.3
		C223.4,224.2,223.2,230.8,222.1,237.3z"/>
	<path id="XMLID_206_" fill="#C8161D" d="M257,224.3c0-17.3,0-34.5,0-51.8c0-1.4,0-1.4,1.5-1.4c6.7,0,13.4,0,20.1,0.1
		c0.2,0,0.5,0,0.7,0c1.1-0.3,1.3,0.3,1.3,1.3c0,12.8,0,25.5,0,38.3c0,1.4-0.2,1.3,1.3,1.3c11.2,0,22.4,0,33.5,0
		c0.9,0,1.2-0.2,1.2-1.2c0-12.7,0-25.3,0-38c0-1.7,0-1.7,1.7-1.7c6.8,0,13.6,0,20.4,0c1.4,0,1.4,0,1.4,1.3c0,26.7,0,53.5,0,80.2
		c0,0.9,0.1,1.8,0.3,2.7c0.3,1.2,1.2,1.9,2.4,2.2c0.7,0.1,1.4,0.2,2.1,0.2c2.3,0,4.7,0,7,0c0.6,0,0.9,0.1,0.9,0.8
		c-0.2,2.5,0.1,5-0.1,7.5c-0.5,6.7-3.6,10.5-10.1,12.3c-4.3,1.2-8.7,1.3-13,0.3c-6-1.4-9.7-5.2-11.6-11c-0.9-2.8-1.3-5.8-1.3-8.8
		c0-8.2,0-16.3,0-24.5c0-1-0.2-1.3-1.3-1.3c-11.1,0-22.3,0-33.4,0c-1,0-1.3,0.2-1.3,1.3c0,14,0,28,0,42c0,1-0.2,1.3-1.2,1.3
		c-7,0-13.9,0-20.9,0c-1.4,0-1.4,0-1.4-1.4C257,258.9,257,241.6,257,224.3z"/>
	<path id="XMLID_205_" fill="#636363" d="M141,225.7c0,17.5,0,34.9,0,52.4c0,1.4,0,1.4-1.4,1.6c-3.1,0.5-6.1,0.8-9.2,1
		c-1,0.1-1.7-0.3-2.2-1.2c-9.1-15.3-18.2-30.5-27.3-45.8c-6.6-11-13.1-22-19.6-33c-1.8-3.1-3.2-6.4-4.6-9.7
		c-0.1-0.3-0.2-0.6-0.4-0.8c-0.1-0.2-0.3-0.5-0.6-0.3c-0.3,0.1-0.4,0.3-0.3,0.7c1.6,11.6,0.8,23.2,0.8,34.8c0.1,17.8,0,35.5,0,53.3
		c0,1.4,0,1.4-1.4,1.4c-3.2,0-6.5,0-9.7,0c-0.9,0-1.2-0.2-1.2-1.2c0-34.9,0-69.9,0-104.8c0-0.8,0.3-1,1-1.2c3.7-0.7,7.4-1,11.2-1.2
		c1.3-0.1,2.1,0.3,2.8,1.5c14.8,25,29.7,50,44.6,75c2,3.4,3.6,6.9,5,10.6c0.1,0.4,0.2,0.8,0.7,0.6c0.4-0.1,0.4-0.5,0.3-0.8
		c-0.6-4.9-0.7-9.8-0.7-14.6c0-23.5,0-47.1,0-70.6c0-1.3,0-1.3,1.3-1.3c3.2,0,6.5,0,9.7,0c1,0,1.2,0.2,1.2,1.2
		C141,190.5,141,208.1,141,225.7z"/>
	<path id="XMLID_204_" fill="#636363" d="M31.8,225.8c0-17.5,0-35,0-52.6c0-1.4,0-1.4,1.4-1.4c3.6,0,7.2,0,10.8,0
		c1.3,0,1.3,0,1.3,1.4c0,32.4,0,64.9,0,97.3c0,2.7,0,5.4,0,8.1c0,0.9-0.2,1.3-1.2,1.3c-3.7-0.1-7.4-0.1-11.1,0c-1,0-1.2-0.3-1.2-1.3
		C31.8,261,31.8,243.4,31.8,225.8z"/>
	<path id="XMLID_203_" fill="#5B1847" d="M479.7,241.6c5.5,0,9.9,4.3,9.8,9.8c-0.1,5.5-4.4,9.7-9.9,9.7c-5.3,0-9.7-4.4-9.6-9.8
		C470,245.8,474.3,241.5,479.7,241.6z"/>
	<path id="XMLID_202_" fill="#646464" d="M258.6,337.6c0.7-4,2-7.7,2.9-11.6c0.2-0.9,0.5-1.3,1.5-1.2c1.2,0.1,2.4,0,3.5,0
		c0.6,0,0.9,0.2,0.9,0.8c0.4,4.4,0.8,8.7,1.2,13.1c0.1,1.2,0.2,2.5,0.3,3.7c0.1,0.7-0.2,1-0.9,1c-0.9,0-1.8,0.1-2.6,0.2
		c-1,0.1-1.2-0.3-1.2-1.2c-0.1-2.9-0.3-5.7-0.5-8.6c0-0.4-0.1-0.7-0.2-1.1c-0.7,3.3-1.7,6.5-2.5,9.7c-0.2,0.8-0.5,1.1-1.4,1.1
		c-0.9-0.1-1.8,0-2.6,0c-0.6,0-1-0.2-1.1-0.9c-0.9-3.4-1.8-6.8-2.8-10.3c-0.1,2.1-0.3,4-0.4,6c-0.1,1.5-0.3,3-0.3,4.4
		c0,0.6-0.3,0.8-0.9,0.8c-3.4,0.1-3.5,0.1-3.3-3.3c0.4-4.9,0.9-9.7,1.3-14.6c0.1-0.7,0.4-1,1.1-0.9c1.2,0.1,2.4,0,3.6,0
		c0.6,0,0.9,0.2,1.1,0.8c1,3.9,2.4,7.7,3.2,11.7C258.4,337.4,258.5,337.5,258.6,337.6z"/>
	<path id="XMLID_201_" fill="#C8161D" d="M483.2,266.5c5.2,0,9.4,4.2,9.4,9.3c0,5.1-4.2,9.2-9.3,9.3c-5.1,0-9.3-4.1-9.3-9.2
		C474,270.6,478,266.5,483.2,266.5z"/>
	<path id="XMLID_200_" fill="#ED8006" d="M480.8,308.1c-5,0-8.8-3.8-8.8-8.8c0-4.9,4-8.9,8.9-8.8c4.8,0,8.8,4,8.8,8.8
		C489.6,304.2,485.8,308.1,480.8,308.1z"/>
	<path id="XMLID_199_" fill="#FECB05" d="M476.7,318.2c-0.1,4.7-3.9,8.3-8.6,8.3c-4.7-0.1-8.3-3.9-8.2-8.6c0.1-4.6,3.9-8.3,8.6-8.2
		C473.1,309.8,476.8,313.6,476.7,318.2z"/>
	<path id="XMLID_198_" fill="#646464" d="M300.3,332.5c0,3,0,6,0,9c0,2.5,0.4,2.2-2.2,2.2c-2.7,0-2.3,0.4-2.3-2.3c0-5,0-10.1,0-15.1
		c0-0.9,0.3-1.3,1.2-1.3c1,0,2.1-0.1,3.1-0.2c0.7,0,1,0.4,1.2,0.9c1.6,3.2,3.6,6.3,5.1,9.8c0-1.2,0-2.2,0-3.1c0-2.2,0-4.4,0-6.6
		c0-0.7,0.2-1,0.9-0.9c0.9,0,1.8,0.1,2.6,0c0.8-0.1,1,0.3,1,1c0,3.6,0,7.2,0,10.8c0,1.9,0,3.7,0,5.6c0,0.9-0.3,1.2-1.1,1.3
		c-1,0-2,0.1-2.9,0.2c-0.6,0-0.8-0.3-1-0.7c-1.8-3.5-3.9-6.8-5.4-10.4C300.5,332.6,300.5,332.6,300.3,332.5z"/>
	<path fill="#646464" d="M45.5,330.6c-0.8-3.1-2.8-4.9-5.8-5.7c-1.1-0.3-2.3-0.4-3.5-0.4c-1.6,0.2-3.3,0.3-4.9,0.4
		c-0.6,0-0.9,0.3-0.9,0.9c0,5.6,0,11.1,0,16.7c0,0.6,0.2,0.9,0.8,0.9c2.2,0.2,4.4,0.5,6.7,0.3c3.5-0.3,6-2,7.3-5.4
		C46.1,335.9,46.2,333.3,45.5,330.6z M40.3,337.4c-0.5,1.8-2.8,2.9-4.6,2.2c-0.4-0.2-0.3-0.5-0.3-0.8c0-1.6,0-3.1,0-4.7
		c0-1.5,0-2.9,0-4.3c0-0.8,0.3-1,1-1c2.7-0.1,3.6,0.6,4.1,3.3C40.8,333.9,40.8,335.7,40.3,337.4z"/>
	<path id="XMLID_196_" fill="#646464" d="M218.4,334.3c0,2.8,0,5.6,0,8.4c0,0.8-0.3,1-1,1c-1,0-2.1,0-3.1,0c-0.7,0-0.9-0.3-0.9-0.9
		c0-1.9,0-3.8,0-5.7c0-0.8-0.3-1.1-1.1-1.1c-0.9,0.1-1.9,0.1-2.8,0c-0.9-0.1-1.1,0.3-1.1,1.1c0,1.8,0,3.6,0,5.5
		c0,0.8-0.3,1.1-1.1,1.1c-1.1,0-2.2,0-3.2,0c-0.6,0-0.8-0.2-0.8-0.8c0-5.8,0-11.5,0-17.3c0-0.5,0.2-0.7,0.7-0.7c1.2,0,2.4,0,3.5,0
		c0.6,0,0.9,0.3,0.8,0.8c-0.1,1.6,0.1,3.3-0.1,4.9c-0.1,0.7,0.2,1.2,1,1.2c1.1,0,2.2-0.1,3.3,0c0.6,0,0.8-0.2,0.8-0.8
		c0-1.7,0-3.4,0-5.2c0-0.7,0.2-1,1-1c1,0.1,2.1,0.1,3.1,0c0.7,0,0.9,0.2,0.9,0.9C218.3,328.6,218.4,331.4,218.4,334.3z"/>
	<path id="XMLID_195_" fill="#646464" d="M145.6,334.3c0,2.8,0,5.6,0,8.4c0,0.7-0.2,1-1,1c-1,0-2,0-3,0c-0.8,0-1-0.3-1-1
		c0-1.9,0-3.8,0-5.7c0-0.7-0.2-1-0.9-1c-1.1,0-2.2,0-3.2,0c-0.7,0-1,0.3-0.9,1c0,1.9,0,3.8,0,5.7c0,0.8-0.3,1.1-1.1,1
		c-1-0.1-2,0-3,0c-0.7,0-0.9-0.3-0.9-0.9c0-5.7,0-11.3,0-17c0-0.7,0.2-0.9,0.9-0.9c1,0,2.1,0,3.1,0c0.7,0,0.9,0.2,0.9,0.9
		c0,1.7,0,3.4,0,5.1c0,0.8,0.3,1,1,1c1.1,0,2.2,0,3.2,0c0.7,0,0.9-0.2,0.9-0.9c0-1.7,0-3.4,0-5.1c0-0.7,0.2-1.1,1-1
		c1,0.1,2.1,0.1,3.1,0c0.7,0,0.9,0.2,0.9,0.9C145.5,328.6,145.6,331.4,145.6,334.3z"/>
	<path fill="#646464" d="M333.8,330.8c-1-4.2-3.2-6-7.4-6.3c-3.8-0.2-6.6,1.5-8,4.8c-0.7,1.6-0.9,3.2-0.8,4.9
		c-0.1,1,0.1,2.1,0.2,3.1c0.5,2.9,2,5,4.9,6.1c5.2,1.8,9.8-0.7,11.1-6C334.4,335.2,334.4,333,333.8,330.8z M328.4,338.2
		c-0.4,1.1-1.2,1.6-2.4,1.6c-1.3,0-2.2-0.5-2.6-1.6c-0.5-1.3-0.6-2.6-0.5-4c0-1.2,0-2.5,0.4-3.7c0.4-1.3,1.2-1.9,2.4-1.9
		c1.4-0.1,2.3,0.5,2.7,1.8C329.2,333,329.2,335.6,328.4,338.2z"/>
	<path fill="#646464" d="M168.9,332.8c-0.3-5.1-3-8-7.8-8.2c-4.2-0.2-7,1.7-8.3,5.8c-0.9,2.8-0.8,5.6,0.1,8.4
		c1.7,5.3,9.2,7.1,13.2,3.2c2.2-2.1,2.7-4.8,2.7-7.7C168.9,333.8,168.9,333.3,168.9,332.8z M163.6,334.2c0,1.3,0,2.6-0.5,3.8
		c-0.5,1.3-1.3,1.9-2.7,1.8c-1.3,0-2.2-0.7-2.5-1.9c-0.7-2.5-0.7-4.9,0-7.4c0.3-1.3,1.1-1.9,2.5-1.9c1.3,0,2.2,0.5,2.7,1.7
		C163.6,331.6,163.7,332.9,163.6,334.2z"/>
	<path fill="#646464" d="M85.9,342.8c-1.1-2.2-1.9-4.6-3.5-6.6c-0.6-0.7-0.6-1.1,0.2-1.7c2-1.6,2.5-3.7,1.8-6.1
		c-0.6-2.2-2.3-3.3-4.5-3.7c-2.5-0.4-4.9-0.1-7.4,0.1c-1.1,0.1-1.3,0.5-1.3,1.5c0.1,2.6,0,5.3,0,7.9c0,2.8,0,5.5,0,8.3
		c0,0.8,0.3,1.1,1.1,1c0.8-0.1,1.6,0,2.3,0c1.5,0,1.5,0,1.6-1.6c0-1.6,0-3.1,0-4.7c0-0.3,0-0.6,0.4-0.7c0.3-0.1,0.6,0.1,0.8,0.3
		c0.1,0.2,0.3,0.4,0.4,0.6c1.1,1.6,1.9,3.4,2.6,5.2c0.2,0.5,0.4,1,1,1c1.4-0.1,2.8-0.2,4.1-0.4C85.8,343.4,86.1,343.3,85.9,342.8z
		 M77.2,333.1c-0.8,0-1.1-0.2-1.1-1c0.1-0.4,0-0.9,0-1.3c0,0,0,0,0,0c0-0.2,0-0.5,0-0.7c0.1-0.6-0.5-1.4,0.7-1.6
		c1.3-0.2,2.5,0.4,2.8,1.3C80.1,331.6,79,333.1,77.2,333.1z"/>
	<path id="XMLID_191_" fill="#476EA8" d="M449.1,321.8c4.4,0,7.9,3.6,7.9,8.1c0,4.4-3.7,7.9-8.1,7.8c-4.4,0-7.9-3.6-7.8-8.1
		C441.1,325.2,444.6,321.7,449.1,321.8z"/>
	<path id="XMLID_190_" fill="#646464" d="M240.8,332c-0.1,1.8,0.2,4-0.2,6.2c-0.7,3.5-2.4,5.2-5.9,5.6c-2.3,0.3-4.7,0.2-6.6-1.4
		c-1.7-1.4-2.2-3.4-2.3-5.5c-0.1-3.7,0-7.4,0-11c0-0.8,0.3-1,1-1c1,0.1,2.1,0.1,3.1,0c0.7,0,0.9,0.2,0.9,0.9c0,3.3,0,6.5,0,9.8
		c0,0.5,0,1,0,1.5c0.1,1.7,0.7,2.4,2.4,2.4c1.7,0,2.6-0.7,2.6-2.4c0.1-3.6,0.1-7.2,0.1-10.7c0-1.8-0.1-1.5,1.6-1.5
		c0.7,0,1.5,0,2.2,0c0.8-0.1,1,0.3,1,1C240.8,327.7,240.8,329.6,240.8,332z"/>
	<path fill="#646464" d="M290.1,342.2c-1.5-5.5-3-10.9-4.7-16.3c-0.2-0.8-0.6-1.1-1.4-1.1c-0.8,0.1-1.5,0-2.3,0
		c-2.9,0.1-2.2-0.5-3.1,2.3c-1.6,5-3.2,10.1-4.4,15.2c-0.2,0.8-0.1,1.2,0.8,1.2c1,0,1.9,0.1,2.9,0.2c0.6,0.1,0.9-0.2,1.1-0.8
		c0.2-0.9,0.4-1.8,0.6-2.8c0.1-0.6,0.5-1,1.2-1c0.9,0.1,1.8,0.1,2.7,0c0.7,0,1,0.3,1.1,0.9c0.2,1,0.5,1.9,0.7,2.9
		c0.1,0.5,0.4,0.7,0.9,0.7c0.3,0,0.6,0,1,0c0.6-0.1,1.3-0.2,2-0.2C290.2,343.5,290.4,343.1,290.1,342.2z M282.9,335.3
		c-0.5,0-1.1,0-1.6,0c-0.3,0-0.5-0.2-0.4-0.5c0.4-1.7,0.7-3.3,1.1-5c0.4,1.7,0.9,3.3,1.3,5C283.3,335.1,283.2,335.3,282.9,335.3z"/>
	<path id="XMLID_188_" fill="#5B1847" d="M435.9,335.8c0,4.2-3.4,7.5-7.6,7.5c-4.2,0-7.5-3.4-7.5-7.6c0-4.2,3.5-7.6,7.6-7.6
		C432.6,328.2,435.9,331.5,435.9,335.8z"/>
	<path id="XMLID_187_" fill="#646464" d="M52.6,334.2c0-2.6,0-5.2,0-7.8c0-1.6,0-1.6,1.5-1.6c3,0,6.1,0,9.1,0c1,0,1.2,0.3,1,1.2
		c-0.1,0.7-0.1,1.5-0.2,2.2c-0.1,0.6-0.4,0.9-1,0.9c-1.5,0-3,0-4.6,0c-0.7,0-0.9,0.2-0.9,0.9c0,0.2,0,0.5,0,0.7
		c-0.1,1.2,0.1,1.4,1.4,1.3c0.8,0,1.7,0,2.5,0c0.6,0,0.8,0.3,0.8,0.8c0,0.8,0,1.7,0,2.5c0,0.6-0.3,0.8-0.9,0.8c-1,0-2,0-2.9,0
		c-0.6,0-0.9,0.2-0.8,0.8c0.1,2.9-0.5,2.5,2.4,2.5c1.3,0,2.6,0,3.9,0c0.6,0,0.8,0.2,0.8,0.8c-0.1,0.9-0.2,1.8-0.2,2.7
		c0,0.5-0.3,0.8-0.9,0.8c-3.4,0-6.8,0-10.1,0c-0.9,0-0.9-0.5-0.9-1.1C52.6,339.8,52.6,337,52.6,334.2z"/>
	<path id="XMLID_186_" fill="#646464" d="M91.9,334.3c0-2.8,0-5.5,0-8.3c0-0.9,0.2-1.2,1.2-1.1c3.2,0.1,6.3,0,9.5,0c0.7,0,1,0.2,1,1
		c-0.1,3.3-0.1,3.3-3.4,3.3c-0.7,0-1.5,0-2.2,0c-0.8-0.1-1.1,0.3-1,1c0,0.2,0,0.4,0,0.6c-0.1,1,0.4,1.3,1.3,1.3c0.8,0,1.6,0,2.4,0
		c0.7,0,1,0.2,1,0.9c0,0.8,0,1.6,0,2.3c0,0.7-0.2,0.9-0.9,0.9c-0.9,0-1.9,0-2.8,0c-0.7,0-1,0.2-0.9,1c0.1,2.5,0,2.4,2.5,2.4
		c1.2,0,2.5,0,3.7,0c0.6,0,0.8,0.3,0.8,0.9c-0.1,0.8-0.1,1.6-0.2,2.4c0,0.6-0.3,1-1,1c-3.3,0-6.7,0-10,0c-0.7,0-0.9-0.2-0.9-0.9
		C91.9,339.9,91.9,337.1,91.9,334.3C91.9,334.3,91.9,334.3,91.9,334.3z"/>
	<path id="XMLID_185_" fill="#C8161D" d="M407.6,325.3c4,0,7.2,3.2,7.2,7.2c0,3.9-3.4,7.2-7.3,7.2c-4,0-7.1-3.2-7.1-7.4
		C400.4,328.3,403.5,325.3,407.6,325.3z"/>
	<path id="XMLID_184_" fill="#646464" d="M345.2,343.9c-1.5,0-2.9-0.2-4.3-0.6c-0.8-0.2-1.2-0.6-0.9-1.5c0.3-0.8,0.4-1.6,0.6-2.4
		c0.1-0.5,0.3-0.6,0.8-0.4c1.3,0.4,2.6,0.8,4,0.9c0.8,0,1.6,0,1.9-1c0.3-1-0.3-1.5-1.1-1.9c-0.8-0.4-1.6-0.8-2.5-1.2
		c-2.9-1.4-4.2-3.4-3.9-5.9c0.4-2.9,2.2-4.7,5.4-5.2c1.9-0.3,3.8-0.2,5.6,0.2c0.6,0.1,0.9,0.4,0.7,1c-0.1,0.8-0.2,1.6-0.3,2.4
		c-0.1,0.7-0.4,0.8-1,0.7c-1.3-0.2-2.5-0.5-3.8-0.4c-0.7,0-1.3,0.2-1.5,0.9c-0.2,0.7,0.2,1.2,0.7,1.5c1,0.6,2.2,1.1,3.2,1.7
		c3,1.6,4.1,4,3.2,7.1c-0.7,2.2-2.8,3.7-5.7,3.9C346.1,343.9,345.7,343.9,345.2,343.9z"/>
	<path id="XMLID_183_" fill="#646464" d="M182.5,324.6c1.2,0,2.3,0.2,3.4,0.3c0.6,0.1,0.9,0.4,0.8,1c-0.1,0.7-0.3,1.5-0.3,2.2
		c0,1-0.5,1.1-1.3,0.9c-1.1-0.3-2.3-0.4-3.4-0.4c-0.7,0-1.4,0.1-1.6,0.9c-0.2,0.8,0.3,1.3,0.9,1.7c1.2,0.6,2.4,1.2,3.6,1.9
		c2.6,1.5,3.4,3.8,2.6,6.7c-0.5,1.7-1.6,2.8-3.2,3.4c-2.9,1.1-5.8,0.8-8.6-0.1c-0.5-0.2-0.6-0.4-0.5-0.9c0-0.1,0-0.1,0.1-0.2
		c0.2-1,0.2-2.4,0.9-2.9c0.7-0.6,1.8,0.4,2.8,0.5c0.8,0.1,1.6,0.3,2.4,0.2c0.6-0.1,1.2-0.3,1.3-1c0.2-0.7-0.1-1.1-0.6-1.5
		c-0.5-0.4-1-0.6-1.6-0.9c-1-0.4-1.9-0.8-2.8-1.4c-1.8-1.2-2.6-2.8-2.5-5c0.1-2.3,1.3-3.8,3.4-4.7
		C179.6,324.7,181.1,324.5,182.5,324.6z"/>
	<path id="XMLID_182_" fill="#646464" d="M123,338c0.5,1.3,0.6,2.6,0.9,3.9c0.1,0.5-0.1,0.8-0.6,0.9c-2.9,1.2-5.8,1.5-8.8,0.4
		c-2-0.7-3.3-2.2-4-4.1c-1.1-3.2-1.2-6.4,0-9.6c1.1-3,3.3-4.6,6.5-4.9c1.9-0.2,3.8,0.1,5.7,0.6c0.7,0.2,0.9,0.6,0.8,1.3
		c-0.2,0.9-0.3,1.8-0.5,2.7c-0.1,0.7-0.4,0.9-1.1,0.6c-1.1-0.5-2.3-0.8-3.6-0.8c-1.4,0-2.3,0.7-2.8,2.1c-0.6,2.1-0.7,4.2,0,6.4
		c0.5,1.7,1.6,2.4,3.4,2.2C120.4,339.4,121.7,338.7,123,338z"/>
	<path id="XMLID_181_" fill="#ED8006" d="M387.5,329.1c-3.7,0-6.8-3.1-6.7-6.9c0-3.8,3.2-6.8,7-6.8c3.7,0,6.9,3.3,6.8,6.9
		C394.5,326.1,391.4,329.1,387.5,329.1z"/>
	<path id="XMLID_180_" fill="#FECB05" d="M375,313.3c-3.6,0-6.4-2.9-6.4-6.4c0-3.6,2.9-6.5,6.5-6.5c3.5,0,6.6,3,6.5,6.5
		C381.5,310.6,378.7,313.3,375,313.3z"/>
	<path id="XMLID_179_" fill="#656464" d="M42.8,302.5c0,4.8,0,9.5,0,14.3c0,1.1-0.7,0.8-1.3,0.9c-0.8,0.1-1-0.3-1-0.9
		c0-5.6,0-11.1,0-16.7c0-0.4,0-0.9,0.5-1.1c0.8-0.2,1.5-0.4,2.2,0.2c0.3,0.3,0.5,0.7,0.7,1.1c2.6,4.3,5.1,8.7,7.8,13.2
		c0-0.5,0.1-0.8,0.1-1.1c0-4.1,0-8.2,0-12.3c0-1.1,0.9-1.6,1.9-1.2c0.5,0.2,0.3,0.6,0.3,1c0,4.3,0,8.6,0,12.9c0,1.2,0,2.5,0,3.7
		c0,0.5,0.2,1.1-0.5,1.2c-0.7,0.1-1.5,0.4-2-0.5c-0.7-1.2-1.4-2.4-2.1-3.6c-2.1-3.5-4.2-7-6.2-10.5C43,303,42.9,302.8,42.8,302.5z"
		/>
	<path fill="#656464" d="M335.7,304.3c-0.9-3.2-3-5-6.3-5.4c-2.2-0.3-4.3,0-6.4,0.1c-1.1,0.1-1.3,0.5-1.2,1.4c0.1,2.6,0,5.3,0,7.9
		c0,2.8,0,5.5,0,8.3c0,0.8,0.3,1,1,1.1c1.8,0.2,3.7,0.2,5.6,0.2c3.2,0,5.7-1.7,6.9-4.7C336.4,310.4,336.5,307.3,335.7,304.3z
		 M333,312.4c-0.7,2.3-2.4,3.4-4.8,3.5c-1.1,0-2.2,0-3.2-0.1c-0.7,0-0.9-0.3-0.9-1c0-2.2,0-4.3,0-6.5c0-2.2,0-4.3,0-6.5
		c0-0.7,0.2-0.9,0.9-0.9c1.2,0,2.5-0.2,3.7,0c2.1,0.2,3.6,1.3,4.3,3.3C333.9,306.9,333.8,309.7,333,312.4z"/>
	<path id="XMLID_177_" fill="#476EA8" d="M368.7,294.8c-3.5,0-6.1-2.6-6.1-6.2c0-3.4,2.8-6.1,6.2-6.1c3.5,0,6.1,2.7,6.1,6.2
		C374.9,292.2,372.3,294.8,368.7,294.8z"/>
	<path id="XMLID_176_" fill="#656464" d="M180.2,302.8c0,4.8,0,9.3,0,13.8c0,1.1-1,1.7-2,1.2c-0.5-0.2-0.3-0.7-0.3-1.1
		c0-3.8,0-7.6,0-11.3c0-1.7,0-3.3,0-5c0-0.5-0.2-1.1,0.6-1.2c0.8-0.1,1.7-0.5,2.3,0.5c0.8,1.4,1.7,2.8,2.5,4.3
		c1.9,3.2,3.7,6.3,5.7,9.6c0.2-0.4,0.2-0.8,0.2-1.2c0-4.1,0-8.1,0-12.2c0-0.8,0.2-1.1,1.1-1.1c0.9,0,1.2,0.2,1.2,1.1
		c0,5.4,0,10.9,0,16.3c0,0.5,0.3,1.2-0.6,1.4c-0.8,0.2-1.6,0.3-2.2-0.7c-2.6-4.5-5.2-8.9-7.9-13.3
		C180.7,303.5,180.5,303.3,180.2,302.8z"/>
	<path id="XMLID_175_" fill="#656464" d="M264.3,302.7c0,3.8,0,7.3,0,10.8c0,1.2,0,2.4,0,3.5c0,1-0.6,0.8-1.2,0.8
		c-0.5,0-1.1,0.1-1.1-0.8c0-5.7,0-11.3,0-17c0-0.3-0.1-0.7,0.4-0.8c0.8-0.1,1.6-0.5,2.3,0.2c0.2,0.2,0.3,0.4,0.4,0.6
		c2.5,4.3,5.1,8.6,7.6,12.9c0.2,0.3,0.4,0.7,0.6,1.1c0-4.6,0-9.2,0-13.8c0-0.8,0.2-1.2,1.1-1.1c0.9,0,1.2,0.2,1.2,1.1
		c0,5.5,0,11,0,16.5c0,0.5,0.2,1.1-0.6,1.2c-0.8,0.1-1.5,0.4-2.1-0.6C270.1,312.4,267.3,307.6,264.3,302.7z"/>
	<path fill="#656464" d="M165.1,308.4c0-1.5-0.1-3-0.5-4.4c-1-3.4-3.6-5.5-7-5.5c-3.2,0-6.2,2.2-7.2,5.4c-0.9,2.8-0.8,5.7-0.2,8.6
		c0.8,3.5,3.2,5.4,6.7,5.5c3.9,0.1,6.4-1.5,7.5-5.1C165,311.4,165.2,309.9,165.1,308.4z M162.1,312.6c-0.6,2.1-2.6,3.6-4.8,3.6
		c-2.2,0-3.8-1.3-4.5-3.5c-0.4-1.4-0.4-2.9-0.5-4.7c0-1,0.1-2.5,0.5-3.8c0.7-2.1,2.5-3.5,4.7-3.4c2.3,0,3.9,1.2,4.5,3.5
		C162.8,306.9,162.9,309.8,162.1,312.6z"/>
	<path fill="#656464" d="M256.2,306.4c-0.2-1.8-0.5-3.6-1.7-5.1c-1.7-2.2-4-3-6.7-2.7c-3,0.4-5,2.1-6.1,4.9c-0.6,1.5-0.7,3.1-0.7,5
		c0,0.5,0,1.3,0.1,2c0.4,5,3.2,7.5,8.1,7.4c3-0.1,5.2-1.7,6.2-4.5C256.2,311.2,256.5,308.8,256.2,306.4z M253.1,312.8
		c-0.6,2.1-2,3.1-4.3,3.2c-2.5,0.1-4-0.8-4.8-2.9c-0.6-1.5-0.7-3.1-0.6-4.8c-0.1-1.5,0.1-3,0.6-4.5c0.8-2.2,2.2-3.1,4.9-3
		c2.2,0.1,3.6,1.1,4.2,3.2C254,306.9,254,309.9,253.1,312.8z"/>
	<path id="XMLID_172_" fill="#5B1847" d="M366.8,276.5c-3.3,0-5.8-2.5-5.9-5.8c0-3.3,2.6-5.9,5.9-5.9c3.3,0,5.8,2.6,5.9,5.8
		C372.7,273.9,370.2,276.5,366.8,276.5z"/>
	<path id="XMLID_171_" fill="#C8161D" d="M377.6,252.4c0,3.1-2.5,5.6-5.5,5.6c-3.1,0-5.6-2.5-5.6-5.6c0-3.1,2.5-5.6,5.5-5.6
		C375.1,246.8,377.6,249.3,377.6,252.4z"/>
	<path fill="#656464" d="M294.7,316.3c-1.7-5.5-3.6-10.9-5.5-16.3c-0.3-0.9-0.7-1.4-1.6-1.1c-0.8-0.1-1.3-0.1-1.7,0.8
		c-2,5.6-4,11.2-5.7,16.8c-0.1,0.4-0.5,0.9,0.2,1.2c1.1,0.4,1.6,0.2,1.9-0.6c0.5-1.4,1-2.9,1.4-4.3c0.2-0.6,0.6-0.9,1.3-0.9
		c1.6,0,3.2,0,4.8,0c0.7,0,1,0.3,1.2,0.9c0.4,1.4,1,2.7,1.4,4.1c0.4,1.3,0.5,1.1,2,0.8C295.4,317.5,294.8,316.8,294.7,316.3z
		 M289.6,309.9c-1.6,0-3.2,0-4.9,0c0.9-2.8,1.8-5.5,2.7-8.4c0.9,2.7,1.7,5.3,2.5,7.8C290.1,309.6,290.2,309.9,289.6,309.9z"/>
	<path id="XMLID_168_" fill="#656464" d="M115.9,306.2c0-2.1,0-4.3,0-6.4c0-1.2,0.7-0.9,1.4-0.9c0.7,0,1,0.1,1,0.9
		c-0.1,3.6,0,7.2,0,10.7c0,1,0.1,2,0.4,2.9c0.3,1.2,1.1,1.9,2.3,2.2c1,0.2,2.1,0.2,3.1,0c1.7-0.4,2.7-1.6,2.7-3.8
		c0.1-3.9,0-7.8,0-11.6c0-1.2,0.8-1.7,1.9-1.3c0.3,0.1,0.3,0.4,0.3,0.7c0,4.4,0.2,8.7-0.1,13.1c-0.2,3.6-2.8,5.5-6.7,5.4
		c-0.8,0-1.6-0.1-2.4-0.3c-2.2-0.6-3.6-2.4-3.8-4.8c0-0.3-0.1-0.6-0.1-0.9C115.9,310.1,115.9,308.1,115.9,306.2z"/>
	<path id="XMLID_167_" fill="#656464" d="M342,308.3c0-2.8,0-5.5,0-8.3c0-0.9,0.3-1.1,1.1-1.1c2.7,0,5.5,0,8.2,0
		c0.5,0,1.1-0.1,1.1,0.8c0,1.1-0.2,1.4-1.2,1.4c-2,0-3.9,0-5.9,0c-0.7,0-1,0.1-1,0.9c0,1.3,0,2.7,0,4c0,0.6,0.2,0.8,0.8,0.8
		c1.4,0,2.8,0,4.1,0c0.8,0,1,0.4,1,1c0,0.7-0.2,1.2-1,1.2c-1.4,0-2.8,0-4.1,0c-0.6,0-0.8,0.2-0.8,0.8c0,1.7,0,3.3,0,5
		c0,0.6,0.2,0.8,0.8,0.8c2.2,0,4.3,0,6.5,0c0.6,0,1.2-0.1,1.1,0.9c-0.1,0.7-0.1,1.4-1.1,1.4c-2.9-0.1-5.8,0-8.7,0
		c-0.8,0-1-0.3-1-1.1C342,313.9,342,311.1,342,308.3z"/>
	<path id="XMLID_166_" fill="#ED8006" d="M381.7,232.1c3.1,0,5.3,2.3,5.3,5.3c0,2.9-2.4,5.3-5.3,5.3c-2.9,0-5.3-2.3-5.3-5.2
		C376.5,234.3,378.7,232.1,381.7,232.1z"/>
	<path id="XMLID_165_" fill="#656464" d="M64.5,318c-1.3,0.1-2.5-0.2-3.8-0.5c-1.2-0.3-0.6-1.1-0.5-1.7c0.1-0.7,0.5-0.7,1.1-0.5
		c1.7,0.5,3.3,0.9,5.1,0.5c1.1-0.2,1.8-0.8,2.1-1.9c0.3-1.1,0-2.1-0.8-3c-0.7-0.7-1.6-1.2-2.6-1.6c-1.1-0.6-2.3-1.1-3.3-1.8
		c-3.1-2.3-2.5-6.7,1-8.2c2.2-0.9,4.4-0.7,6.7-0.3c0.9,0.2,0.4,1,0.4,1.5c0,0.6-0.4,0.7-0.9,0.6c-1.1-0.2-2.1-0.3-3.2-0.3
		c-0.5,0-1,0-1.5,0.1c-1,0.2-1.7,0.8-2,1.8c-0.3,1,0.1,1.8,0.7,2.5c0.7,0.7,1.6,1.1,2.5,1.6c1,0.5,2.1,1,3.1,1.7
		c2,1.5,2.8,3.5,2.2,5.6c-0.6,2.1-2.4,3.5-4.8,3.7C65.6,318,65,318,64.5,318z"/>
	<path id="XMLID_164_" fill="#656464" d="M214.4,308.3c0-1.9,0.2-3.8,1-5.5c1.1-2.4,3.1-3.7,5.7-4c1.7-0.2,3.4-0.1,5,0.4
		c1,0.3,1.1,0.6,0.7,1.9c-0.3,0.9-0.8,0.4-1.3,0.3c-1.2-0.4-2.5-0.6-3.8-0.5c-2.4,0.3-3.8,1.4-4.4,3.8c-0.5,2.2-0.5,4.3-0.2,6.5
		c0.7,4,3.5,5.1,7.2,4.3c0.5-0.1,1-0.3,1.5-0.5c0.4-0.1,0.9-0.6,1.2,0.2c0.2,0.7,0.5,1.3-0.3,1.8c-4.7,2.8-11.1,0-12.1-5.3
		C214.5,310.7,214.4,309.5,214.4,308.3z"/>
	<path id="XMLID_163_" fill="#FECB05" d="M390.7,225.1c0-2.8,2.1-5,5-5c2.9,0,5,2.2,5,5.1c0,2.8-2.3,5.1-5,5.1
		C392.9,230.2,390.7,228,390.7,225.1z"/>
	<path id="XMLID_162_" fill="#476EA8" d="M405.9,219.5c0-2.7,2-4.7,4.7-4.7c2.7,0,4.8,2,4.8,4.7c0,2.7-2.1,4.9-4.8,4.9
		C408,224.3,405.9,222.2,405.9,219.5z"/>
	<path id="XMLID_161_" fill="#656464" d="M103.7,309.5c0-2.5,0-4.9,0-7.4c0-0.8-0.2-1-1-1c-1,0.1-2,0-2.9,0
		c-0.9,0.1-1.1-0.3-1.1-1.1c0-0.8,0.3-1.1,1.1-1.1c3.5,0,7,0,10.5,0c0.5,0,1,0,0.9,0.8c-0.1,0.6,0.1,1.4-0.9,1.4c-1,0-2,0.1-3,0
		c-0.9-0.1-1.2,0.2-1.2,1.2c0,4.8,0,9.5,0,14.3c0,0.4,0.2,0.9-0.3,1.1c-0.6,0.2-1.3,0.2-1.9,0c-0.4-0.1-0.2-0.6-0.2-0.9
		C103.7,314.3,103.7,311.9,103.7,309.5z"/>
	<path id="XMLID_160_" fill="#656464" d="M79.4,309.4c0-2.4,0-4.9,0-7.3c0-0.8-0.3-1.1-1-1c-1,0.1-2,0-3,0c-0.9,0-0.9-0.6-0.9-1.2
		c0-0.6,0.1-1,0.9-1c3.5,0,7.1,0,10.6,0c0.5,0,1,0,0.9,0.7c-0.1,0.6,0.1,1.5-0.9,1.5c-1,0-2.1,0-3.1,0c-0.8,0-1,0.3-1,1.1
		c0,4.8,0,9.5,0,14.3c0,1.1-1.1,1.8-2.1,1.3c-0.4-0.2-0.3-0.6-0.3-0.9C79.4,314.3,79.4,311.9,79.4,309.4z"/>
	<path id="XMLID_159_" fill="#656464" d="M138.7,309.4c0-2.4,0-4.9,0-7.3c0-0.8-0.2-1-1-1c-1,0.1-2.1,0-3.1,0
		c-0.8,0-0.9-0.5-0.8-1.1c0-0.6,0-1.2,0.9-1.2c3.6,0,7.2,0,10.7,0c0.5,0,0.9,0.1,0.9,0.8c-0.1,0.6,0.1,1.4-0.9,1.4
		c-1.1,0-2.2,0.1-3.2,0c-0.8,0-1,0.2-1,1c0,4.8,0,9.6,0,14.4c0,0.4,0.2,1-0.3,1.2c-0.6,0.2-1.3,0.2-1.9,0c-0.4-0.1-0.2-0.5-0.2-0.8
		C138.7,314.4,138.7,311.9,138.7,309.4z"/>
	<path id="XMLID_158_" fill="#1B1B3A" d="M423.1,218.1c0-2.6,2-4.5,4.5-4.5c2.5,0,4.6,2.1,4.6,4.5c0,2.5-2.1,4.6-4.6,4.6
		C425.1,222.6,423.1,220.6,423.1,218.1z"/>
	<path id="XMLID_157_" fill="#656464" d="M299.6,308.3c0-2.8,0-5.6,0-8.4c0-1,0.6-1,1.2-1c0.7,0,1.2-0.1,1.2,1c0,4.7,0,9.4,0,14.1
		c0,1.9-0.3,1.6,1.7,1.6c1.7,0,3.4,0,5.2,0c0.5,0,1,0,0.9,0.7c-0.1,0.6,0.2,1.5-0.9,1.5c-2.8,0-5.7,0-8.5,0c-0.7,0-0.8-0.3-0.8-0.9
		C299.6,314,299.6,311.1,299.6,308.3z"/>
	<path id="XMLID_156_" fill="#C8161D" d="M448.5,220.2c0,2.4-1.9,4.3-4.2,4.4c-2.4,0-4.4-1.9-4.4-4.3c0-2.4,2-4.4,4.4-4.3
		C446.6,215.9,448.5,217.8,448.5,220.2z"/>
	<path id="XMLID_155_" fill="#656464" d="M94,308.4c0,2.8,0,5.6,0,8.4c0,0.7-0.2,1-1,1c-0.7,0-1.5,0.3-1.5-0.9c0-0.5,0-1.1,0-1.6
		c0-5,0-10,0-15c0-1.2,1.2-1.9,2.2-1.3c0.4,0.2,0.3,0.7,0.3,1C94,302.8,94,305.6,94,308.4z"/>
	<path id="XMLID_154_" fill="#656464" d="M232.6,308.3c0-2.8,0-5.5,0-8.3c0-1.3,0.7-1.1,1.5-1.1c0.9-0.1,1,0.4,1,1.2
		c0,5.4,0,10.9,0,16.3c0,1.2-1.1,1.9-2.2,1.4c-0.4-0.2-0.3-0.7-0.3-1C232.6,313.9,232.6,311.1,232.6,308.3
		C232.6,308.3,232.6,308.3,232.6,308.3z"/>
	<path id="XMLID_153_" fill="#656464" d="M31.2,308.5c0-2.8,0-5.7,0-8.5c0-0.9,0.4-1.1,1.1-1.1c0.8,0,1.3,0,1.3,1.1
		c0,5.5,0,11.1,0,16.6c0,0.4,0.2,0.9-0.3,1.1c-0.6,0.2-1.3,0.2-1.9,0c-0.4-0.1-0.2-0.6-0.2-0.9C31.1,314,31.2,311.2,31.2,308.5z"/>
	<path fill="#656464" d="M210.6,316.5c-1.7-5.6-3.7-11-5.6-16.6c-0.3-0.8-0.8-1.1-1.4-1c-0.8,0.1-1.4-0.2-1.7,0.7
		c-2.1,5.7-4,11.5-5.9,17.3c-0.1,0.3-0.2,0.5,0.1,0.7c0.7,0.6,1.9,0.2,2.2-0.6c0.5-1.4,0.9-2.8,1.3-4.1c0.2-0.6,0.6-0.9,1.3-0.9
		c1.6,0,3.1,0,4.7,0c0.8,0,1.2,0.3,1.4,1c0.4,1.4,0.9,2.8,1.4,4.2c0.3,0.8,0.9,1,2,0.6C211.2,317.4,210.8,316.9,210.6,316.5z
		 M205.5,309.9c-1.6,0-3.2,0-4.9,0c0.9-2.8,1.8-5.5,2.7-8.4c0.9,2.8,1.7,5.3,2.5,7.8C206,309.7,206,309.9,205.5,309.9z"/>
</g>
</svg>
