<?xml version="1.0" encoding="UTF-8"?>
<!-- Generator: Adobe Illustrator 27.3.1, SVG Export Plug-In . SVG Version: 6.00 Build 0) -->
<svg version="1.2" baseProfile="tiny-ps" id="Layer_1" xmlns="http://www.w3.org/2000/svg" xmlns:xlink="http://www.w3.org/1999/xlink" viewBox="0 0 100 100" xml:space="preserve">
    <title>Fontdoor Inc.</title>
<g>
	<path id="fullLogo_8_" fill="#F34113" d="M85.5,79.5H67.8V45.8c0-9.7-7.9-17.6-17.6-17.6s-17.6,7.9-17.6,17.6v33.7H14.8V45.8
		c0-19.6,15.8-35.4,35.4-35.4c19.5,0,35.4,15.8,35.4,35.4L85.5,79.5L85.5,79.5z"/>
	<path id="fullLogo_7_" fill="#91877F" d="M62.8,56.5c0,3.1-2.5,5.7-5.7,5.7c-3.1,0-5.7-2.5-5.7-5.7c0-3.1,2.5-5.7,5.7-5.7
		C60.1,50.9,62.8,53.4,62.8,56.5z"/>
	<g>
		<path fill="#91877F" d="M89.3,77.5L89.3,77.5c0-1.1,0.8-2,2-2c1.1,0,2,0.9,2,2l0,0c0,1.1-0.8,2-2,2C90.2,79.5,89.3,78.5,89.3,77.5
			z M93,77.5L93,77.5c0-1-0.7-1.8-1.8-1.8c-1,0-1.8,0.8-1.8,1.8l0,0c0,0.9,0.7,1.8,1.8,1.8C92.3,79.3,93,78.4,93,77.5z M90.5,76.4
			h0.9c0.5,0,0.7,0.2,0.7,0.7c0,0.4-0.2,0.6-0.5,0.7l0.6,0.7h-0.5l-0.5-0.7h-0.5v0.7h-0.4V76.4z M91.4,77.4c0.3,0,0.4-0.1,0.4-0.4
			c0-0.2-0.2-0.4-0.4-0.4H91v0.7L91.4,77.4L91.4,77.4z"/>
	</g>
</g>
</svg>
