<?xml version="1.0" encoding="UTF-8" standalone="yes"?>
<svg baseProfile="tiny-ps" version="1.2" viewBox="0 0 320 320" xmlns="http://www.w3.org/2000/svg">
  <title>bimi-svg-tiny-12-ps</title>
  <g>
    <g id="Layer_1">
      <path d="M320,0H0v320h320V0Z" fill="#fff"/>
      <path d="M27,141.6h4.6v6.3c1.6-2.3,3.3-4,5-5.1,2.4-1.4,4.8-2.1,7.4-2.1s3.4.3,5,1c1.6.7,2.9,1.6,3.9,2.7,1,1.2,1.9,2.8,2.6,4.9,1.5-2.8,3.5-5,5.8-6.5,2.3-1.5,4.8-2.2,7.5-2.2s4.7.6,6.6,1.9c1.9,1.3,3.3,3,4.3,5.3.9,2.3,1.4,5.7,1.4,10.2v19.8h-4.8v-19.8c0-3.9-.3-6.6-.8-8-.6-1.5-1.5-2.6-2.8-3.5-1.3-.9-2.9-1.3-4.8-1.3s-4.3.7-6.2,2c-1.9,1.3-3.2,3.1-4.1,5.3-.9,2.2-1.3,5.9-1.3,11.1v14.2h-4.6v-18.6c0-4.4-.3-7.3-.8-8.9-.5-1.6-1.5-2.8-2.8-3.8-1.4-.9-3-1.4-4.8-1.4s-4.2.6-6.1,1.9c-1.9,1.3-3.3,3.1-4.2,5.3-.9,2.2-1.4,5.6-1.4,10.1v15.4h-4.6v-36.3Z" fill="#2fa291" fill-rule="evenodd"/>
      <path d="M117.6,165.9l3.9,2.1c-1.3,2.5-2.8,4.6-4.5,6.1-1.7,1.5-3.6,2.7-5.7,3.5-2.1.8-4.5,1.2-7.2,1.2-5.9,0-10.6-1.9-13.9-5.8-3.3-3.9-5-8.2-5-13.1s1.4-8.7,4.3-12.3c3.6-4.6,8.4-6.9,14.4-6.9s11.2,2.3,14.9,7c2.6,3.3,4,7.4,4,12.4h-29v-4h23.9c-.6-2.5-1.5-4.5-2.7-6-1.2-1.5-2.8-2.7-4.8-3.6-2-.9-4-1.4-6.2-1.4-3.6,0-6.7,1.1-9.2,3.4-1.2,1.1-2.2,2.5-3,4.2-1.6,3.3-2.1,7.2-1.3,10.8.6,2.7,1.8,5,3.7,6.9,2.6,2.7,5.8,4,9.7,4s3.7-.3,5.4-1c1.8-.6,3.2-1.5,4.5-2.5,1.2-1.1,2.6-2.8,4-5.1Z" fill="#2fa291" fill-rule="evenodd"/>
      <path d="M164.4,129.9v48h-4.6v-14.9c0-5-.3-9.9-3.9-13.5-2.8-2.8-6.1-4.2-10.2-4.2s-5,.6-7.2,1.9c-2.2,1.3-3.9,3.1-5.2,5.4-1.3,2.3-1.9,4.7-1.9,7.3s.6,5,2,7.3,3.1,4.1,5.3,5.4c2.2,1.3,4.6,1.9,7.1,1.9s5-.6,7.2-1.9c1.6-.9,2.9-2,4-3.3v5.3c-1.2,1-2.4,1.8-3.7,2.5-2.4,1.2-5.1,1.8-8,1.8-5.1,0-9.5-1.9-13.1-5.6-3.6-3.7-5.4-8.2-5.4-13.6s1.8-9.7,5.5-13.4c3.7-3.7,8.1-5.6,13.2-5.6s5.7.6,8.1,1.9c2.4,1.3,4.5,3.1,6.3,5.7v-18.4h4.6Z" fill="#2fa291" fill-rule="evenodd"/>
      <path d="M168.3,129.9v48h4.6v-14.9c0-5,.3-9.9,3.9-13.5,2.8-2.8,6.1-4.2,10.2-4.2s5,.6,7.2,1.9c2.2,1.3,3.9,3.1,5.2,5.4,1.3,2.3,1.9,4.7,1.9,7.3s-.6,5-2,7.3c-1.3,2.3-3.1,4.1-5.3,5.4-2.2,1.3-4.6,1.9-7.1,1.9s-5-.6-7.2-1.9c-1.6-.9-2.9-2-4-3.3v5.3c1.2,1,2.4,1.8,3.7,2.5,2.4,1.2,5.1,1.8,8,1.8,5.1,0,9.5-1.9,13.1-5.6,3.6-3.7,5.4-8.2,5.4-13.6s-1.8-9.7-5.5-13.4c-3.7-3.7-8.1-5.6-13.2-5.6s-5.7.6-8.1,1.9c-2.4,1.3-4.5,3.1-6.3,5.7v-18.4h-4.6Z" fill="#003882" fill-rule="evenodd"/>
      <path d="M265.4,141.6l13,18.2-12.9,18.1h5.7l10.1-14.1,10.1,14.1h5.7l-12.9-18.1,13-18.2h-5.7l-10.1,14.2-10.1-14.2h-5.7Z" fill="#003882" fill-rule="evenodd"/>
      <path d="M257.6,170.1l.5-.3v2.2l-22.6,13.3v-2.2l22.1-13.1ZM257.6,166.8l.5-.3v2.2l-22.6,13.3v-2.2l22.1-13.1ZM257.6,163.4l.5-.3v2.2l-22.6,13.3v-2.2l22.1-13.1ZM257.6,160.1l.5-.3v2.2l-22.6,13.3v-2.2l22.1-13.1ZM257.6,156.8l.5-.3v2.2l-22.6,13.3v-2.2l22.1-13.1ZM257.6,153.5l.5-.3v2.2l-22.6,13.3v-2.2l22.1-13.1ZM257.6,150.2l.5-.3v2.2l-22.6,13.3v-2.2l22.1-13.1ZM257.6,146.8l.5-.3v2.2l-22.6,13.3v-2.2l22.1-13.1Z" fill="#2fa291"/>
      <path d="M236.6,128.6l25.8,15.2v31.7l-26.9,15.9-26.9-15.9v-31.7l26.9-15.9,1.1.6ZM258.1,146.3l-22.6-13.3-22.6,13.3v26.8l22.6,13.3,22.6-13.3v-26.8Z" fill="#003882"/>
      <path d="M256.6,145.5l-22.6,13.4-.8-.5,22.6-13.4.8.5ZM237.7,134.3l-22.6,13.4-.8-.5,22.6-13.4.8.5ZM240.4,135.9l-22.6,13.4-.8-.5,22.6-13.4.8.5ZM243.1,137.5l-22.6,13.4-.8-.5,22.6-13.4.8.5ZM245.8,139.1l-22.6,13.4-.8-.5,22.6-13.4.8.5ZM248.5,140.7l-22.6,13.4-.8-.5,22.6-13.4.8.5ZM251.2,142.3l-22.6,13.4-.8-.5,22.6-13.4.8.5ZM253.9,143.9l-22.6,13.4-.8-.5,22.6-13.4.8.5Z" fill="#2fa291"/>
      <path d="M97.1,190.4h-1.2v9.2h1.2v-9.2Z" fill="#003882"/>
      <path d="M96.5,186.6c.3,0,.5,0,.7.3.2.2.3.4.3.7s0,.5-.3.7c-.2.2-.4.3-.7.3s-.5,0-.7-.3c-.2-.2-.3-.4-.3-.7s0-.5.3-.7c.2-.2.4-.3.7-.3Z" fill="#003882" fill-rule="evenodd"/>
      <path d="M90.4,190.4h1.2v1.3c.4-.5.7-.9,1.1-1.2.4-.3.8-.4,1.3-.4s.7.1,1.1.3l-.6,1c-.2-.1-.5-.2-.6-.2-.4,0-.8.2-1.1.5-.4.3-.6.8-.8,1.5-.1.5-.2,1.6-.2,3.2v3.1h-1.2v-9.2Z" fill="#003882" fill-rule="evenodd"/>
      <path d="M87.3,196.5l1,.5c-.3.6-.7,1.2-1.1,1.5-.4.4-.9.7-1.4.9-.5.2-1.1.3-1.8.3-1.5,0-2.7-.5-3.5-1.5-.8-1-1.3-2.1-1.3-3.3s.4-2.2,1.1-3.1c.9-1.2,2.1-1.7,3.7-1.7s2.8.6,3.8,1.8c.7.8,1,1.9,1,3.1h-7.4v-1h6.1c-.2-.6-.4-1.1-.7-1.5-.3-.4-.7-.7-1.2-.9-.5-.2-1-.3-1.6-.3-.9,0-1.7.3-2.3.9-.3.3-.6.6-.8,1.1-.4.8-.5,1.8-.3,2.7.1.7.5,1.3.9,1.8.7.7,1.5,1,2.5,1s.9,0,1.4-.2c.4-.2.8-.4,1.1-.6.3-.3.6-.7,1-1.3Z" fill="#003882" fill-rule="evenodd"/>
      <path d="M63.3,190.4h1.2v1.6c.4-.6.8-1,1.3-1.3.6-.4,1.2-.5,1.9-.5s.9,0,1.3.3c.4.2.7.4,1,.7.3.3.5.7.7,1.3.4-.7.9-1.3,1.5-1.6.6-.4,1.2-.6,1.9-.6s1.2.2,1.7.5c.5.3.8.8,1.1,1.3.2.6.4,1.4.4,2.6v5h-1.2v-5c0-1,0-1.7-.2-2-.1-.4-.4-.7-.7-.9-.3-.2-.7-.3-1.2-.3s-1.1.2-1.6.5c-.5.3-.8.8-1,1.4-.2.6-.3,1.5-.3,2.8v3.6h-1.2v-4.7c0-1.1,0-1.9-.2-2.3-.1-.4-.4-.7-.7-1-.3-.2-.8-.4-1.2-.4s-1.1.2-1.5.5c-.5.3-.8.8-1.1,1.3-.2.6-.3,1.4-.3,2.6v3.9h-1.2v-9.2Z" fill="#003882" fill-rule="evenodd"/>
      <path d="M60.6,190.4v9.2h-1.2v-3.8c0-1.3,0-2.5-1-3.4-.7-.7-1.6-1.1-2.6-1.1s-1.3.2-1.8.5c-.6.3-1,.8-1.3,1.4-.3.6-.5,1.2-.5,1.9s.2,1.3.5,1.9c.3.6.8,1.1,1.3,1.4.6.3,1.2.5,1.8.5s1.3-.2,1.8-.5c.4-.2.7-.5,1-.8v1.4c-.3.3-.6.5-.9.6-.6.3-1.3.5-2,.5-1.3,0-2.4-.5-3.3-1.4-.9-.9-1.4-2.1-1.4-3.4s.5-2.5,1.4-3.4c.9-.9,2-1.4,3.4-1.4s1.4.2,2,.5c.6.3,1.1.8,1.6,1.4v-1.7h1.2Z" fill="#003882" fill-rule="evenodd"/>
      <path d="M111.3,186.8h1.2v5.2c.5-.6,1-1.1,1.6-1.4.6-.3,1.2-.5,1.9-.5s1.3.2,1.8.5c.5.3.9.8,1.2,1.4.3.6.4,1.5.4,2.8v4.7h-1.2v-4.4c0-1.1,0-1.8-.1-2.1-.1-.6-.4-1.1-.8-1.4-.4-.3-.9-.5-1.5-.5s-1.4.2-1.9.7c-.6.5-.9,1.1-1.1,1.8-.1.5-.2,1.3-.2,2.5v3.4h-1.2v-12.8Z" fill="#2fa291" fill-rule="evenodd"/>
      <path d="M131.1,190.4v9.2h-1.2v-3.8c0-1.3,0-2.5-1-3.4-.7-.7-1.6-1.1-2.6-1.1s-1.3.2-1.8.5c-.6.3-1,.8-1.3,1.4-.3.6-.5,1.2-.5,1.9s.2,1.3.5,1.9c.3.6.8,1.1,1.3,1.4.6.3,1.2.5,1.8.5s1.3-.2,1.8-.5c.4-.2.7-.5,1-.8v1.4c-.3.3-.6.5-.9.6-.6.3-1.3.5-2,.5-1.3,0-2.4-.5-3.3-1.4-.9-.9-1.4-2.1-1.4-3.4s.5-2.5,1.4-3.4c.9-.9,2-1.4,3.4-1.4s1.4.2,2,.5c.6.3,1.1.8,1.6,1.4v-1.7h1.2Z" fill="#2fa291" fill-rule="evenodd"/>
      <path d="M133.3,190.4h1.2v1.3c.4-.5.7-.9,1.1-1.2.4-.3.8-.4,1.3-.4s.7.1,1.1.3l-.6,1c-.2-.1-.5-.2-.6-.2-.4,0-.8.2-1.1.5-.4.3-.6.8-.8,1.5-.1.5-.2,1.6-.2,3.2v3.1h-1.2v-9.2Z" fill="#2fa291" fill-rule="evenodd"/>
      <path d="M139,190.4h1.2v1.6c.4-.6.8-1,1.3-1.3.6-.4,1.2-.5,1.9-.5s.9,0,1.3.3c.4.2.7.4,1,.7.3.3.5.7.7,1.3.4-.7.9-1.3,1.5-1.6.6-.4,1.2-.6,1.9-.6s1.2.2,1.7.5c.5.3.8.8,1.1,1.3.2.6.4,1.4.4,2.6v5h-1.2v-5c0-1,0-1.7-.2-2-.1-.4-.4-.7-.7-.9-.3-.2-.7-.3-1.2-.3s-1.1.2-1.6.5c-.5.3-.8.8-1,1.4-.2.6-.3,1.5-.3,2.8v3.6h-1.2v-4.7c0-1.1,0-1.9-.2-2.3-.1-.4-.4-.7-.7-1-.3-.2-.8-.4-1.2-.4s-1.1.2-1.5.5c-.5.3-.8.8-1.1,1.3-.2.6-.3,1.4-.3,2.6v3.9h-1.2v-9.2Z" fill="#2fa291" fill-rule="evenodd"/>
      <path d="M164.4,190.4v9.2h-1.2v-3.8c0-1.3,0-2.5-1-3.4-.7-.7-1.6-1.1-2.6-1.1s-1.3.2-1.8.5c-.6.3-1,.8-1.3,1.4-.3.6-.5,1.2-.5,1.9s.2,1.3.5,1.9c.3.6.8,1.1,1.3,1.4.6.3,1.2.5,1.8.5s1.3-.2,1.8-.5c.4-.2.7-.5,1-.8v1.4c-.3.3-.6.5-.9.6-.6.3-1.3.5-2,.5-1.3,0-2.4-.5-3.3-1.4-.9-.9-1.4-2.1-1.4-3.4s.5-2.5,1.4-3.4c.9-.9,2-1.4,3.4-1.4s1.4.2,2,.5c.6.3,1.1.8,1.6,1.4v-1.7h1.2Z" fill="#2fa291" fill-rule="evenodd"/>
      <path d="M99.5,190.4h1.2v1.7c.5-.6,1-1.1,1.6-1.4.6-.3,1.3-.5,2-.5,1.3,0,2.4.5,3.4,1.4.9.9,1.4,2.1,1.4,3.4s-.5,2.5-1.4,3.4c-.9.9-2,1.4-3.3,1.4s-1.4-.2-2-.5c-.3-.2-.6-.4-.9-.6v-1.3c.3.3.6.6,1,.8.6.3,1.2.5,1.8.5s1.2-.2,1.8-.5c.6-.3,1-.8,1.3-1.4.3-.6.5-1.2.5-1.9s-.2-1.3-.5-1.9c-.3-.6-.8-1-1.3-1.4-.6-.3-1.2-.5-1.8-.5-1,0-1.9.4-2.6,1.1-.9.9-1,2.2-1,3.4v9.2h-1.2v-14.6Z" fill="#2fa291" fill-rule="evenodd"/>
      <path d="M28.1,195.6c0,.9.3,1.8,1,2.5.7.7,1.5,1.1,2.4,1.1s1.9-.4,2.5-1.1c.6-.7,1-1.6,1-2.6,0-1-.3-1.8-1-2.5-.7-.7-1.5-1-2.4-1-1,0-1.8.4-2.5,1.1-.6.7-.9,1.6-.9,2.6ZM28.1,188v4.4c.5-.6,1-1,1.6-1.3.6-.3,1.2-.4,2-.4,1.3,0,2.3.4,3.2,1.4.9.9,1.3,2,1.3,3.4,0,1.3-.4,2.5-1.3,3.4-.9.9-2,1.4-3.4,1.4s-1.3-.1-1.8-.4c-.5-.2-1-.6-1.5-1.2v1.4h-1.1v-12h1.1Z" fill="#003882"/>
      <path d="M36.4,190.9h1.3l2.8,7.3,2.9-7.3h1.3l-4.9,12h-1.2l1.2-2.9-3.5-9Z" fill="#003882"/>
    </g>
  </g>
</svg>