<?xml version="1.0" encoding="UTF-8" standalone="yes"?>
<svg width="364" height="364" viewBox="0 0 364 364" fill="none" version="1.2" baseProfile="tiny-ps" xmlns="http://www.w3.org/2000/svg">
  <title>bimi-svg-tiny-12-ps</title>
  <desc>AmeriPharma logo on a square white background</desc>
  <g>
    <path d="M0 0H364V364H0V0Z" fill="white"/>
    <path fill-rule="evenodd" d="M179.6 170.7H182.5V193.1H179.6V170.7ZM181.1 161.5C181.8 161.5 182.3 161.7 182.8 162.2C183.3 162.7 183.5 163.2 183.5 163.9C183.5 164.5 183.3 165.1 182.8 165.6C182.3 166.1 181.8 166.3 181.1 166.3C180.5 166.3 179.9 166.1 179.4 165.6C178.9 165.1 178.7 164.6 178.7 163.9C178.7 163.2 178.9 162.7 179.4 162.2C179.9 161.8 180.4 161.5 181.1 161.5ZM166.3 170.7H169.3V174C170.2 172.7 171.1 171.8 172.1 171.1C173.1 170.5 174.1 170.2 175.2 170.2C176 170.2 176.9 170.5 177.8 171L176.3 173.4C175.7 173.1 175.2 173 174.8 173C173.8 173 172.9 173.4 172 174.2C171.1 175 170.4 176.2 170 177.9C169.6 179.2 169.5 181.8 169.5 185.6V193.2H166.5V170.7H166.3ZM158.8 185.7L161.2 187C160.4 188.6 159.5 189.8 158.4 190.8C157.4 191.7 156.2 192.5 154.9 193C153.6 193.5 152.1 193.7 150.5 193.7C146.8 193.7 144 192.5 141.9 190.1C139.8 187.7 138.8 185 138.8 182C138.8 179.2 139.7 176.6 141.4 174.4C143.6 171.6 146.6 170.2 150.3 170.2C154.1 170.2 157.2 171.7 159.5 174.5C161.1 176.5 162 179.1 162 182.1H144.1V179.6H158.9C158.5 178.1 158 176.8 157.2 175.9C156.5 175 155.5 174.2 154.3 173.7C153.1 173.1 151.8 172.9 150.5 172.9C148.3 172.9 146.4 173.6 144.8 175C144.1 175.7 143.4 176.5 142.9 177.6C141.9 179.6 141.6 182.1 142.1 184.2C142.5 185.9 143.2 187.3 144.4 188.5C146 190.2 148 191 150.4 191C151.5 191 152.7 190.8 153.7 190.4C154.7 190 155.7 189.5 156.5 188.8C157.1 188.2 158 187.2 158.8 185.7ZM100.3 170.7H103.2V174.6C104.2 173.2 105.2 172.1 106.3 171.5C107.8 170.6 109.3 170.2 110.9 170.2C112 170.2 113 170.4 114 170.8C115 171.2 115.8 171.8 116.4 172.5C117 173.2 117.5 174.2 118 175.5C119 173.7 120.2 172.4 121.6 171.5C123 170.6 124.6 170.1 126.3 170.1C127.8 170.1 129.2 170.5 130.4 171.3C131.6 172.1 132.5 173.2 133 174.6C133.5 176 133.9 178.1 133.9 180.9V193.1H130.9V180.9C130.9 178.5 130.7 176.8 130.4 175.9C130.1 175 129.5 174.3 128.6 173.7C127.8 173.2 126.8 172.9 125.6 172.9C124.2 172.9 122.9 173.3 121.8 174.1C120.7 174.9 119.8 176 119.3 177.4C118.8 178.8 118.5 181.1 118.5 184.3V193.1H115.6V181.6C115.6 178.9 115.4 177.1 115.1 176.1C114.8 175.1 114.2 174.4 113.3 173.8C112.5 173.2 111.5 172.9 110.3 172.9C109 172.9 107.7 173.3 106.6 174.1C105.4 174.9 104.6 176 104 177.3C103.4 178.7 103.2 180.7 103.2 183.5V193H100.3V170.7ZM93.8 170.7V193.1H91V192.9V189.2V183.8C91 180.7 90.8 177.7 88.6 175.4C86.9 173.7 84.8 172.8 82.3 172.8C80.7 172.8 79.2 173.2 77.9 174C76.5 174.8 75.5 175.9 74.7 177.3C73.9 178.7 73.5 180.2 73.5 181.8C73.5 183.4 73.9 184.9 74.7 186.3C75.5 187.7 76.6 188.9 78 189.6C79.4 190.4 80.8 190.8 82.4 190.8C84 190.8 85.5 190.4 86.9 189.6C87.9 189 88.7 188.4 89.4 187.5V190.8C88.7 191.4 87.9 191.9 87.1 192.3C85.6 193 84 193.4 82.2 193.4C79 193.4 76.3 192.3 74.1 190C71.9 187.7 70.7 184.9 70.7 181.6C70.7 178.4 71.8 175.6 74.1 173.3C76.4 171 79.1 169.9 82.3 169.9C84.1 169.9 85.8 170.3 87.3 171.1C88.8 171.9 90.1 173 91.2 174.6V170.5L93.8 170.7Z" fill="#373435"/>
    <path fill-rule="evenodd" d="M188.5 170.7H191.4V174.8C192.5 173.2 193.9 172.1 195.3 171.3C196.8 170.5 198.4 170.1 200.3 170.1C203.5 170.1 206.2 171.2 208.5 173.5C210.8 175.8 211.9 178.5 211.9 181.8C211.9 185.1 210.8 187.9 208.5 190.2C206.3 192.5 203.5 193.6 200.4 193.6C198.6 193.6 197 193.2 195.5 192.5C194.7 192.1 193.9 191.6 193.2 191V187.7C193.9 188.5 194.7 189.2 195.7 189.8C197.1 190.6 198.6 191 200.2 191C201.7 191 203.2 190.6 204.6 189.8C206 189 207.1 187.9 207.9 186.5C208.7 185.1 209.1 183.6 209.1 182C209.1 180.4 208.7 178.9 207.9 177.5C207.1 176.1 206 175 204.7 174.2C203.3 173.4 201.9 173 200.3 173C197.8 173 195.7 173.9 194 175.6C191.8 177.8 191.6 180.9 191.6 184V189.3V193.5V203.5H188.7L188.5 170.7Z" fill="#0098DA"/>
    <path d="M217.3 162.1H220.2V174.8C221.4 173.3 222.7 172.1 224.1 171.4C225.5 170.6 227 170.3 228.7 170.3C230.4 170.3 231.9 170.7 233.2 171.6C234.5 172.4 235.5 173.6 236.1 175C236.7 176.4 237 178.7 237 181.7V193.2H234V182.5C234 179.9 233.9 178.2 233.7 177.3C233.3 175.8 232.7 174.7 231.7 174C230.8 173.3 229.5 172.9 228 172.9C226.2 172.9 224.7 173.5 223.3 174.6C221.9 175.7 221 177.2 220.6 178.9C220.3 180 220.2 182 220.2 185V193.2H217.3V162.1Z" fill="#0098DA"/>
    <path fill-rule="evenodd" d="M265.3 170.7V193.1H262.4V189.2V183.8C262.4 180.7 262.2 177.7 260 175.4C258.3 173.7 256.2 172.8 253.7 172.8C252.1 172.8 250.6 173.2 249.3 174C247.9 174.8 246.9 175.9 246.1 177.3C245.3 178.7 244.9 180.2 244.9 181.8C244.9 183.4 245.3 184.9 246.1 186.3C246.9 187.7 248 188.9 249.4 189.6C250.8 190.4 252.2 190.8 253.8 190.8C255.4 190.8 256.9 190.4 258.3 189.6C259.3 189 260.1 188.4 260.8 187.5V190.8C260.1 191.4 259.3 191.9 258.5 192.3C257 193 255.4 193.4 253.6 193.4C250.4 193.4 247.7 192.3 245.5 190C243.3 187.7 242.1 184.9 242.1 181.6C242.1 178.4 243.2 175.6 245.5 173.3C247.8 171 250.5 169.9 253.7 169.9C255.5 169.9 257.2 170.3 258.7 171.1C260.2 171.9 261.5 173 262.6 174.6V170.5C262.5 170.7 265.3 170.7 265.3 170.7Z" fill="#0098DA"/>
    <path d="M270.7 170.7H273.7V174C274.6 172.7 275.5 171.8 276.5 171.1C277.5 170.5 278.5 170.2 279.6 170.2C280.4 170.2 281.3 170.5 282.2 171L280.7 173.4C280.1 173.1 279.6 173 279.2 173C278.2 173 277.3 173.4 276.4 174.2C275.5 175 274.8 176.2 274.4 177.9C274 179.2 273.9 181.8 273.9 185.6V193.2H270.9L270.7 170.7Z" fill="#0098DA"/>
    <path d="M284.5 170.7H287.4V174.6C288.4 173.2 289.4 172.1 290.5 171.5C292 170.6 293.5 170.2 295.1 170.2C296.2 170.2 297.2 170.4 298.2 170.8C299.2 171.2 300 171.8 300.6 172.5C301.2 173.2 301.7 174.2 302.2 175.5C303.2 173.7 304.4 172.4 305.8 171.5C307.2 170.6 308.8 170.1 310.5 170.1C312 170.1 313.4 170.5 314.6 171.3C315.8 172.1 316.7 173.2 317.2 174.6C317.7 176 318.1 178.1 318.1 180.9V193.1H315.1V180.9C315.1 178.5 314.9 176.8 314.6 175.9C314.3 175 313.7 174.3 312.8 173.7C312 173.2 311 172.9 309.8 172.9C308.4 172.9 307.1 173.3 306 174.1C304.9 174.9 304 176 303.5 177.4C303 178.8 302.7 181.1 302.7 184.3V193.1H299.8V181.6C299.8 178.9 299.6 177.1 299.3 176.1C299 175.1 298.4 174.4 297.5 173.8C296.7 173.2 295.7 172.9 294.5 172.9C293.2 172.9 291.9 173.3 290.8 174.1C289.6 174.9 288.8 176 288.2 177.3C287.6 178.7 287.4 180.7 287.4 183.5V193H284.5V170.7Z" fill="#0098DA"/>
    <path fill-rule="evenodd" d="M346.4 170.7V193.1H343.5V189.2V183.8C343.5 180.7 343.3 177.7 341.1 175.4C339.4 173.7 337.3 172.8 334.8 172.8C333.2 172.8 331.7 173.2 330.4 174C329 174.8 328 175.9 327.2 177.3C326.4 178.7 326 180.2 326 181.8C326 183.4 326.4 184.9 327.2 186.3C328 187.7 329.1 188.9 330.5 189.6C331.9 190.4 333.3 190.8 334.9 190.8C336.5 190.8 338 190.4 339.4 189.6C340.4 189 341.2 188.4 341.9 187.5V190.8C341.2 191.4 340.4 191.9 339.6 192.3C338.1 193 336.5 193.4 334.7 193.4C331.5 193.4 328.8 192.3 326.6 190C324.4 187.7 323.2 184.9 323.2 181.6C323.2 178.4 324.3 175.6 326.6 173.3C328.9 171 331.6 169.9 334.8 169.9C336.6 169.9 338.3 170.3 339.8 171.1C341.3 171.9 342.6 173 343.7 174.6V170.5C343.6 170.7 346.4 170.7 346.4 170.7Z" fill="#0098DA"/>
    <path fill-rule="evenodd" d="M99.4 194.8C102.3 196.5 103.3 200.1 101.6 203C99.9 205.9 96.3 206.9 93.4 205.2C90.5 203.5 89.5 199.9 91.2 197C92.9 194.2 96.6 193.2 99.4 194.8Z" fill="#A9ABAE"/>
    <path fill-rule="evenodd" d="M79.8 207.6C77.5 206.3 76.8 203.4 78.1 201.1C79.4 198.8 82.3 198.1 84.6 199.4C86.9 200.7 87.6 203.6 86.3 205.9C85 208.1 82.1 208.9 79.8 207.6Z" fill="#A9ABAE"/>
    <path fill-rule="evenodd" d="M68.3 206.3C66.6 205.3 66 203.2 67 201.5C68 199.8 70.1 199.2 71.8 200.2C73.5 201.2 74.1 203.3 73.1 205C72.2 206.7 70 207.3 68.3 206.3Z" fill="#A9ABAE"/>
    <path fill-rule="evenodd" d="M60.8 200C59.6 199.3 59.2 197.8 59.9 196.7C60.6 195.5 62.1 195.1 63.2 195.8C64.4 196.5 64.8 198 64.1 199.1C63.4 200.3 61.9 200.7 60.8 200Z" fill="#A9ABAE"/>
    <path fill-rule="evenodd" d="M55.8 193.3C55.2 192.9 54.9 192.1 55.3 191.5C55.7 190.9 56.5 190.6 57.1 191C57.7 191.4 58 192.2 57.6 192.8C57.2 193.4 56.5 193.7 55.8 193.3Z" fill="#A9ABAE"/>
    <path fill-rule="evenodd" d="M50.6 179C50.1 179 49.7 179.4 49.7 179.9C49.7 180.4 50.1 180.8 50.6 180.8C51.1 180.8 51.5 180.4 51.5 179.9C51.6 179.4 51.1 179 50.6 179ZM32.6 183C32.7 182.5 32.9 182.2 33.5 181.9C34.3 181.4 34.8 180.6 34.8 179.6C34.8 178.1 33.6 176.9 32.1 176.9C30.6 176.9 29.4 178.1 29.4 179.6C29.4 180.4 29.8 181.2 30.4 181.7C30.9 182.1 31.2 182.3 31.2 183L30.3 196L32.6 183ZM38.5 178.8V195.1C38.3 195.1 38.1 195 37.9 195C37.7 195 37.6 195 37.4 195L38 178.8C38 178.4 38.1 178.3 37.5 178C36.8 177.7 36.3 177 36.3 176.2C36.3 175.1 37.2 174.2 38.3 174.2C39.4 174.2 40.3 175.1 40.3 176.2C40.3 177 39.8 177.7 39.1 178C38.4 178.4 38.5 178.4 38.5 178.8ZM44 178.8L45.1 189.9C45 189.9 44.9 189.9 44.8 189.9C44.4 189.9 44.1 190 43.8 190.1L43.5 178.8C43.5 178.6 43.6 178.4 43.1 178.3C42.4 178.1 42 177.4 42 176.7C42 175.8 42.8 175 43.7 175C44.6 175 45.4 175.8 45.4 176.7C45.4 177.4 45 178 44.4 178.2C43.9 178.4 44 178.5 44 178.8ZM48.7 179.2L50.6 182C50.2 182.1 49.9 182.3 49.5 182.6L48.4 179.4C48.4 179.3 48.3 179.1 48 179.1C47.3 179.1 46.8 178.6 46.8 177.9C46.8 177.2 47.3 176.7 48 176.7C48.7 176.7 49.2 177.2 49.2 177.9C49.2 178.2 49.1 178.5 48.8 178.8C48.5 179 48.6 179.1 48.7 179.2ZM26.3 189.4L25.1 194L24.7 193.9L25.1 189.2C25.1 188.6 24.9 188.4 24.5 188.2C23.5 187.6 22.9 186.5 22.9 185.3C22.9 183.4 24.4 181.9 26.3 181.9C28.2 181.9 29.7 183.4 29.7 185.3C29.7 186.9 28.6 188.2 27.1 188.6C26.6 188.7 26.5 188.9 26.3 189.4Z" fill="#A9ABAE"/>
    <path fill-rule="evenodd" d="M62.2999 183.5C58.6999 183.5 55.7 180.6 55.7 176.9C55.7 173.3 58.5999 170.3 62.2999 170.3C65.8999 170.3 68.9 173.2 68.9 176.9C68.9 180.5 65.8999 183.5 62.2999 183.5Z" fill="#0098DA"/>
    <path fill-rule="evenodd" d="M73.1 161.6C75.8 161.6 78 163.8 78 166.5C78 169.2 75.8 171.4 73.1 171.4C70.4 171.4 68.2 169.2 68.2 166.5C68.2 163.9 70.4 161.6 73.1 161.6Z" fill="#0098DA"/>
    <path fill-rule="evenodd" d="M83.8 155.8C86 155.8 87.8 157.6 87.8 159.8C87.8 162 86 163.8 83.8 163.8C81.6 163.8 79.8 162 79.8 159.8C79.8 157.6 81.6 155.8 83.8 155.8Z" fill="#0098DA"/>
    <path fill-rule="evenodd" d="M93.5 156.3C95.2 156.3 96.6 157.7 96.6 159.4C96.6 161.1 95.2 162.5 93.5 162.5C91.8 162.5 90.4 161.1 90.4 159.4C90.3 157.7 91.7 156.3 93.5 156.3Z" fill="#0098DA"/>
    <path fill-rule="evenodd" d="M102 158.6C103.4 158.6 104.6 159.8 104.6 161.2C104.6 162.6 103.4 163.8 102 163.8C100.6 163.8 99.4 162.6 99.4 161.2C99.4 159.8 100.6 158.6 102 158.6Z" fill="#0098DA"/>
    <path fill-rule="evenodd" d="M107.1 163.2C108.2 163.2 109.1 164.1 109.1 165.2C109.1 166.3 108.2 167.2 107.1 167.2C106 167.2 105.1 166.3 105.1 165.2C105.1 164.1 106 163.2 107.1 163.2Z" fill="#0098DA"/>
    <path fill-rule="evenodd" d="M52.1 190.9C49.6 190.9 47.5 188.9 47.5 186.3C47.5 183.7 49.5 181.7 52.1 181.7C54.7 181.7 56.7 183.7 56.7 186.3C56.7 188.9 54.6 190.9 52.1 190.9Z" fill="#0098DA"/>
    <path fill-rule="evenodd" d="M44.8 196.7C42.9 196.7 41.4 195.2 41.4 193.3C41.4 191.4 42.9 189.9 44.8 189.9C46.7 189.9 48.2 191.4 48.2 193.3C48.3 195.2 46.7 196.7 44.8 196.7Z" fill="#0098DA"/>
    <path fill-rule="evenodd" d="M30.4 200.9C29 200.9 27.9 199.8 27.9 198.4C27.9 197 29 195.9 30.4 195.9C31.8 195.9 32.9 197 32.9 198.4C32.9 199.8 31.8 200.9 30.4 200.9Z" fill="#0098DA"/>
    <path fill-rule="evenodd" d="M24.6 198.2C23.4 198.2 22.5 197.3 22.5 196.1C22.5 194.9 23.4 194 24.6 194C25.8 194 26.7 194.9 26.7 196.1C26.7 197.2 25.7 198.2 24.6 198.2Z" fill="#0098DA"/>
    <path fill-rule="evenodd" d="M21.2 194.4C20.3 194.4 19.6 193.7 19.6 192.8C19.6 191.9 20.3 191.2 21.2 191.2C22.1 191.2 22.8 191.9 22.8 192.8C22.8 193.7 22.1 194.4 21.2 194.4Z" fill="#0098DA"/>
    <path fill-rule="evenodd" d="M18.9 191.2C18.2 191.2 17.6 190.6 17.6 189.9C17.6 189.2 18.2 188.6 18.9 188.6C19.6 188.6 20.2 189.2 20.2 189.9C20.2 190.6 19.6 191.2 18.9 191.2Z" fill="#0098DA"/>
    <path fill-rule="evenodd" d="M37.9 201C36.3 201 34.9 199.7 34.9 198C34.9 196.4 36.2 195 37.9 195C39.5 195 40.9 196.3 40.9 198C40.8 199.6 39.5 201 37.9 201Z" fill="#0098DA"/>
  </g>
  <defs/>
</svg>