<svg xmlns="http://www.w3.org/2000/svg" xmlns:xlink="http://www.w3.org/1999/xlink" version="1.2" viewBox="0 0 1000 1000" baseProfile="tiny-ps">  <title>aon_logo_signature_red_rgb1000x1000</title>  <g>    <rect y="0" width="1000" height="1000" fill="#FFFFFF"/>  </g>  <g>    <polygon points="230.8,342.073 110.915,618.304 168.068,618.304 187.852,570.805 289.613,570.805    268.239,522.118 208.132,522.118 253.072,414.228 338.076,618.304 395.229,618.304 275.343,342.073  " fill="#EB0017"/>    <polygon points="803.754,381.549 803.754,522.073 690.415,381.549 644.739,381.549 644.739,618.304    697.167,618.304 697.167,472.266 814.98,618.304 856.182,618.304 856.182,381.549  " fill="#EB0017"/>    <path d="M499.927,375.788c-68.451,0-124.139,55.688-124.139,124.139s55.688,124.139,124.139,124.139   s124.138-55.688,124.138-124.139S568.378,375.788,499.927,375.788z M499.927,571.638c-39.542,0-71.711-32.17-71.711-71.711   c0-39.542,32.169-71.711,71.711-71.711c39.542,0,71.711,32.169,71.711,71.711C571.638,539.468,539.469,571.638,499.927,571.638z" fill="#EB0017"/>  </g></svg>