<svg version="1.2" baseProfile="tiny-ps" id="Layer_1" xmlns="http://www.w3.org/2000/svg" xmlns:xlink="http://www.w3.org/1999/xlink"
	 viewBox="0 0 72 72" xml:space="preserve">
<title>AIPAC</title>
  <rect x="0" y="0" width="72" height="72" fill="#FFFFFF"/>
<g>
	<polygon fill="#0039A6" points="41.32,41.62 32.95,56.12 36.09,61.56 47.6,41.62 	"/>
	<polygon fill="#0039A6" points="43.41,23.49 31.9,43.43 38.18,43.43 49.69,23.49 	"/>
	<polygon fill="#C60C30" points="50.74,36.18 42.37,36.18 39.23,41.62 53.88,41.62 	"/>
	<polygon fill="#C60C30" points="58.07,48.87 54.93,43.43 46.55,43.43 43.41,48.87 	"/>
	<polygon fill="#0039A6" points="50.74,36.18 58.07,23.49 51.79,23.49 44.46,36.18 	"/>
	<polygon fill="#0039A6" points="31.9,54.31 35.04,48.87 28.76,48.87 	"/>
	<polygon fill="#C60C30" points="17.25,43.43 14.11,48.87 37.14,48.87 40.28,43.43 	"/>
	<polygon fill="#C60C30" points="36.09,10.81 36.09,19.87 36.09,19.87 37.14,21.68 42.37,21.68 	"/>
	<polygon fill="#0039A6" points="36.09,10.81 36.09,19.87 36.09,19.87 35.04,21.68 29.81,21.68 	"/>
	<polygon fill="#C60C30" points="21.44,36.18 18.3,41.62 32.95,41.62 36.09,36.18 	"/>
	<path fill="#0039A6" d="M14.11,23.49l6.28,10.88h14.65l6.28-10.87L14.11,23.49z"/>
	<polygon fill="#FFFFFF" points="19.97,28.81 20.53,27.08 19.06,26.02 20.88,26.02 21.44,24.29 22,26.02 23.81,26.02 23.81,26.02 
		22.34,27.08 22.91,28.81 21.44,27.74 	"/>
	<polygon fill="#FFFFFF" points="26.95,30.4 25.48,31.46 26.04,33.19 24.58,32.12 23.11,33.19 23.67,31.46 22.2,30.4 24.02,30.4 
		24.58,28.67 25.14,30.4 26.95,30.4 	"/>
	<polygon fill="#FFFFFF" points="26.25,28.81 26.81,27.08 25.34,26.02 27.16,26.02 27.72,24.29 28.28,26.02 30.09,26.02 
		30.09,26.02 28.62,27.08 29.18,28.81 27.72,27.74 	"/>
	<polygon fill="#FFFFFF" points="33.23,30.4 31.76,31.46 32.32,33.19 30.86,32.12 29.39,33.19 29.95,31.46 28.48,30.4 30.3,30.4 
		30.86,28.67 31.42,30.4 33.23,30.4 	"/>
	<polygon fill="#FFFFFF" points="35.46,28.81 34,27.74 32.53,28.81 33.09,27.08 31.62,26.02 33.44,26.02 34,24.29 34.56,26.02 
		36.37,26.02 36.37,26.02 34.9,27.08 	"/>
</g>
</svg>