<?xml version="1.0" encoding="utf-8"?>
<!-- Generator: Adobe Illustrator 28.3.0, SVG Export Plug-In . SVG Version: 6.00 Build 0)  -->
<svg version="1.2" baseProfile="tiny-ps" id="Layer_1" xmlns="http://www.w3.org/2000/svg" xmlns:xlink="http://www.w3.org/1999/xlink"
	  viewBox="0 0 500 500" xml:space="preserve">
<title>Süti</title>
<rect width="500" height="500"/>
<g>
	<path fill="#FFFFFF" d="M122.9,236.8c-0.3-4-1.8-7.9-4.5-10.1s-6.7-3.4-12.2-3.4c-3.5,0-6.3,0.4-8.5,1.2s-3.8,1.9-4.9,3.4
		s-1.6,3-1.6,4.8c-0.1,1.5,0.2,2.8,0.8,4c0.6,1.2,1.6,2.3,3,3.2s3.1,1.8,5.3,2.6c2.1,0.8,4.7,1.4,7.6,2.1l10.2,2.2
		c6.9,1.4,12.7,3.4,17.6,5.8c4.9,2.4,8.9,5.2,12,8.4s5.4,6.8,6.9,10.8s2.2,8.4,2.3,13.1c0,8.1-2.1,15-6.1,20.7s-9.8,9.9-17.3,12.9
		c-7.5,2.9-16.5,4.4-26.9,4.4c-10.8,0-20.2-1.6-28.2-4.8c-8-3.2-14.2-8.1-18.6-14.7s-6.7-15.1-6.7-25.5H85c0.2,3.8,1.2,7,2.8,9.6
		c1.7,2.6,4.1,4.5,7.2,5.9s6.8,2,11,2c3.6,0,6.6-0.4,9-1.3s4.3-2.1,5.5-3.7s1.9-3.4,1.9-5.4c0-1.9-0.7-3.6-1.8-5
		c-1.2-1.4-3.1-2.7-5.8-3.9s-6.3-2.2-10.9-3.2L91.5,270c-11-2.4-19.6-6.4-25.9-12s-9.5-13.2-9.4-22.9c0-7.9,2.1-14.8,6.3-20.7
		c4.3-5.9,10.2-10.5,17.7-13.8c7.6-3.3,16.2-5,26-5c10,0,18.7,1.7,26,5s12.9,8.1,16.9,14.1s6,13.8,6,21.9L122.9,236.8L122.9,236.8z"
		/>
	<polygon fill="#FFFFFF" points="283.9,231.1 283.9,197.4 391.6,197.4 391.6,231.1 354.3,231.1 354.3,321.3 321.2,321.3 
		321.2,231.1 	"/>
	<path fill="#FFFFFF" d="M273.1,175.7L273.1,175.7c0-9.3-7.5-16.8-16.8-16.8c-9.3,0-16.8,7.5-16.8,16.8s7.5,16.8,16.8,16.8
		C265.6,192.6,273.1,185,273.1,175.7"/>
	<path fill="#FFFFFF" d="M199.8,175.7L199.8,175.7c0-9.3-7.5-16.8-16.8-16.8s-16.8,7.5-16.8,16.8s7.5,16.8,16.8,16.8
		C192.3,192.6,199.8,185,199.8,175.7"/>
	<path fill="#FFFFFF" d="M239.5,197.4v76.5c0,3.8-0.9,7.2-2.5,10.3c-1.7,3-4,5.4-7,7c-3,1.7-6.4,2.5-10.3,2.5
		c-3.8,0-7.2-0.9-10.3-2.5s-5.4-4-7.1-7c-1.7-3-2.5-6.4-2.5-10.3v-76.5h-33.6v79.4c0,9.4,2.2,17.6,6.7,24.5s10.7,12.2,18.7,15.9
		c8,3.7,17.4,5.6,28.1,5.6c10.6,0,19.9-1.9,27.9-5.6s14.3-9,18.8-15.9s6.7-15,6.7-24.5v-79.4H239.5z"/>
	<path fill="#FFFFFF" d="M436,175.7L436,175.7c0-9.3-7.5-16.8-16.8-16.8s-16.8,7.5-16.8,16.8s7.5,16.8,16.8,16.8S436,185,436,175.7"
		/>
	<rect x="402.4" y="197.4" fill="#FFFFFF" width="33.6" height="123.9"/>
</g>
</svg>
