<?xml version="1.0" encoding="UTF-8"?>
<svg width="781px" height="781px" viewBox="0 0 781 781" xmlns="http://www.w3.org/2000/svg" xmlns:xlink="http://www.w3.org/1999/xlink" version="1.2" baseProfile="tiny-ps">
<title>Terminix</title>
 <g id="g10">
  <g id="g12">
   <rect fill="#FFFFFF" width="781" height="781"/>
   <path id="path14" d="M22.481 322.541 L108.556 322.541 99.236 350.503 76.759 350.503 40.572 457.968 0 457.968 36.185 349.957 13.159 349.957 Z" fill="#369e3d" fill-opacity="1" stroke="none"/>
   <path id="path16" d="M116.231 322.541 L189.7 322.541 180.379 349.407 146.935 349.407 138.164 374.628 172.156 374.628 161.737 403.14 127.746 403.14 118.973 430.005 152.416 430.005 142 458.512 67.986 458.512 Z" fill="#369e3d" fill-opacity="1" stroke="none"/>
   <path id="path18" d="M223.691 377.369 L229.723 377.369 C236.301 376.822 238.493 372.985 238.493 371.338 239.045 369.695 242.332 361.471 243.977 355.987 246.171 348.314 240.137 347.763 240.137 347.763 L234.109 347.763 Z M200.665 322.541 L260.973 322.541 C260.973 322.541 275.777 323.091 281.259 328.026 286.74 332.96 290.032 340.086 287.291 351.053 284.551 360.921 281.807 368.048 280.163 372.435 278.517 376.271 273.036 384.495 262.069 388.336 256.04 390.529 253.297 391.076 245.075 391.076 243.429 391.076 245.075 392.172 245.623 392.172 246.171 391.625 254.944 392.719 259.877 396.013 264.811 399.299 268.1 405.334 265.908 413.008 263.167 420.685 254.395 445.901 252.749 449.193 251.652 453.034 252.2 454.128 253.845 458.512 245.075 458.512 213.273 458.512 213.273 458.512 213.273 458.512 211.632 459.057 211.083 455.772 210.535 451.93 211.083 450.289 212.724 445.357 214.369 439.871 224.788 410.814 224.788 410.814 224.788 410.814 225.884 408.073 223.691 406.427 221.497 405.334 219.852 405.334 219.852 405.334 L215.468 405.334 C215.468 405.334 213.273 405.334 212.724 407.523 212.179 409.716 195.181 458.512 195.181 458.512 L152.965 458.512 Z" fill="#369e3d" fill-opacity="1" stroke="none"/>
   <path id="path20" d="M306.479 322.541 L363.499 322.541 351.985 394.917 393.652 321.995 446.284 321.995 400.777 458.512 361.855 457.968 391.459 376.822 343.212 457.968 317.444 457.968 328.959 369.695 300.449 457.968 262.069 457.968 Z" fill="#369e3d" fill-opacity="1" stroke="none"/>
   <path id="path22" d="M458.897 321.995 L499.468 321.995 452.315 457.968 411.747 458.512 Z" fill="#369e3d" fill-opacity="1" stroke="none"/>
   <path id="path24" d="M510.983 322.541 L555.937 322.541 552.1 388.883 575.128 322.541 612.408 322.541 C612.408 322.541 567.453 450.839 564.709 457.968 558.133 457.968 522.492 457.968 522.492 457.968 L527.429 378.465 500.564 458.512 462.731 457.968 Z" fill="#369e3d" fill-opacity="1" stroke="none"/>
   <path id="path26" d="M623.92 322.541 L664.495 322.541 617.345 458.512 576.773 458.512 Z" fill="#369e3d" fill-opacity="1" stroke="none"/>
   <path id="path28" d="M671.62 322.541 L714.387 322.541 710.545 361.471 736.317 322.541 780.177 322.541 727.543 388.336 733.029 458.512 691.36 458.512 693.552 413.557 668.881 457.968 622.825 457.968 674.364 387.784 Z" fill="#369e3d" fill-opacity="1" stroke="none"/>
   <path id="path30" d="M744.284 446.335 L745.784 446.335 C747.491 446.335 748.94 445.714 748.94 444.102 748.94 442.974 748.104 441.839 745.784 441.839 745.104 441.839 744.648 441.882 744.284 441.939 Z M744.284 453.529 L742.213 453.529 742.213 440.547 C743.305 440.383 744.343 440.238 745.892 440.238 747.859 440.238 749.143 440.645 749.923 441.22 750.704 441.778 751.107 442.655 751.107 443.903 751.107 445.619 749.971 446.643 748.571 447.061 L748.571 447.158 C749.721 447.378 750.489 448.399 750.743 450.319 751.056 452.328 751.371 453.099 751.58 453.529 L749.399 453.529 C749.084 453.099 748.784 451.912 748.524 450.216 748.208 448.556 747.388 447.947 745.728 447.947 L744.284 447.947 Z M746.448 436.924 C741.335 436.924 737.148 441.322 737.148 446.747 737.148 452.276 741.335 456.613 746.505 456.613 751.684 456.675 755.815 452.276 755.815 446.798 755.815 441.322 751.684 436.924 746.505 436.924 Z M746.505 435.112 C752.867 435.112 757.939 440.279 757.939 446.747 757.939 453.317 752.867 458.436 746.448 458.436 740.093 458.436 734.923 453.317 734.923 446.747 734.923 440.279 740.093 435.112 746.448 435.112 Z" fill="#369e3d" fill-opacity="1" stroke="none"/>
  </g>
 </g>
</svg>
