<?xml version="1.0"?><svg version="1.2" baseProfile="tiny-ps" viewBox="0 0 300 300" xmlns="http://www.w3.org/2000/svg" xmlns:xlink="http://www.w3.org/1999/xlink"><title>TourTailors</title><g><g fill="#fff" transform="matrix(.1 0 0 -.1 0 300)"><path d="M0 1500V0h3000v3000H0V1500z"/></g><g fill="#d0ece8" transform="matrix(.1 0 0 -.1 0 300)"><path d="m212 1797-22-23v-59l19-32 20-31 43-26c24-14 70-32 103-40 58-16 155-22 155-10 0 26-118 162-179 205l-54 39h-64l-21-23zm1818-112-12-14 4-18 3-18h48l10 17 11 16-13 16c-17 20-35 20-51 1zm110-155v-170h60v340h-60v-170zM670 1665v-25h100v-281l28 3 27 3 3 138 3 137h99v50H670v-25zm872 3 3-23 53-3 52-3v-279h50v280h100v50h-261l3-22zm-988-83-7-17 16-15 15-16 17 7 16 6-3 22-3 23-23 3-22 3-6-16zm393 4c-9-5-24-23-32-39l-15-29v-93l34-34 34-34h37c42 0 73 14 97 44l18 21v117l-29 29-29 29h-49l-48-1-18-10zm96-42 17-12 7-37 6-38-17-25-16-25h-58l-13 17-14 16v89l19 14c24 17 47 18 69 1zm127-34v-88l13-25 12-25 28-9 28-10 31 12 32 12 10-10c6-6 18-10 28-10h18v240h-50v-169l-19-11c-11-5-29-10-40-10h-20l-11 19-10 20v151h-50v-87zm260-34v-120l28 3 27 3 3 80 3 80 16 13c9 6 27 12 40 12h23v50h-53l-19-17-18-16v33h-50v-121zm376 100-28-22 15-14 14-14 36 17 36 17 16-13c8-7 15-21 15-31v-19h-25c-14 0-41-6-60-14l-33-14-12-22-11-21 6-19c4-11 13-27 21-35l15-15h30c17 0 40 5 51 11l21 11 7-12 7-12 19 4 19 3v187l-28 24-28 24h-76l-27-21zm104-139v-19l-19-11c-11-5-27-10-36-10h-16l-6 16-6 17 18 13c10 8 29 14 42 14h23v-20zm120 40v-120h50v240h-50v-120zm267 109c-9-5-24-23-32-39l-15-29v-93l34-34 34-34h37c42 0 73 14 97 44l18 21v117l-29 29-29 29h-49l-48-1-18-10zm96-42 17-12 7-37 6-38-17-25-16-25h-58l-13 17-14 16v89l19 14c24 17 47 18 69 1zm127-67v-120h60v169l19 11c11 5 29 10 40 10h21v50h-53l-19-17-18-16v33h-50v-120zm204 108c-12-5-26-20-32-33l-11-23 6-22 6-22 54-24 54-24-3-18-4-17-29 2c-17 1-41 3-55 5l-24 3-4-16-3-15 26-12c33-15 77-15 109-1l25 12 11 27 12 28-12 22-11 21-44 19c-23 10-45 23-49 28l-6 10 16 13 16 13 28-11 29-11 13 15 12 15-19 14-19 14-35-1c-20 0-46-5-57-11zm-2500-38c-17-6-39-19-49-30l-18-20v-84l29-24 28-24 55 5 56 5 65 26c36 14 79 37 95 50l30 25-11 11c-17 17-143 58-199 63l-50 6-31-9zm336-40c-24-24-24-29-4-58l15-22h18c20 0 51 30 51 48 0 15-36 52-50 52-5 0-19-9-30-20zm57-86c-4-4-7-17-7-30v-22l15-6c8-3 22-3 31 1l15 6-3 26-3 26-20 3c-12 2-24 0-28-4zm-146-40c-70-19-146-61-177-97l-24-29v-38l20-20c25-25 41-25 88-1 41 21 94 73 141 140s44 70-48 45z"/></g><g fill="#9ed7d0" transform="matrix(.1 0 0 -.1 0 300)"><path d="m215 1795-25-24v-64l43-42 42-42 59-22 60-22 63-6 63-6v13c0 18-37 68-105 139l-60 63-37 19c-21 10-47 19-58 19h-21l-24-25zm1815-110-12-15 6-15c3-9 13-18 22-22l17-6 13 18 13 18-10 18c-12 23-32 24-49 4zm120-155v-170h40v340h-40v-170zM670 1665v-25h100v-280h50v280h100v50H670v-25zm880 0v-25h100v-280h50v280h100v50h-250v-25zm-989-79-12-14 17-17 17-16 15 15 15 14-6 16c-8 20-31 21-46 2zm372-21-35-35 4-56 5-55 27-27 26-27h102l29 33 29 32v89l-12 26-12 26-27 15-28 14h-73l-35-35zm121-27 16-22v-76l-20-20c-23-23-49-26-74-7l-17 13-6 42-6 42 17 25 16 25h59l15-22zm123 55c-4-3-7-39-7-80v-74l14-33 14-34 31-7 31-7 30 15 30 15 6-9c3-5 14-9 25-9h19v230h-50v-169l-22-15c-28-20-43-20-62 0l-16 15v169h-18c-10 0-22-3-25-7zm257-6c-2-7-3-60-2-118l3-104 23-3 22-3v147l15 21 15 22 28 3 27 3 3 23 3 22h-23c-13 0-34-7-46-16l-22-15v31h-41l-5-13zm384-2-28-16v-29h16c8 0 24 5 36 11l20 11 24-6 24-6v-50h-12c-28 0-88-22-103-36l-15-15v-58l22-15 22-16h26c14 0 35 7 47 15l21 15 6-15 5-15h31v188l-18 22-17 21-40 5-40 4-27-15zm92-143c0-10-5-23-12-30l-12-12h-54l-6 15-5 14 15 16 15 15h59v-18zm120 38v-121l23 3 22 3v230l-22 3-23 3v-121zm253 85-35-35 4-56 5-55 27-27 26-27h102l29 33 29 32v89l-12 26-12 26-27 15-28 14h-73l-35-35zm121-27 16-22v-76l-20-20c-23-23-49-26-74-7l-17 13-6 42-6 42 17 25 16 25h59l15-22zm120 49c-2-7-3-60-2-118l3-104 23-3 22-3v147l15 21 15 22 28 3 27 3 3 23 3 22h-23c-13 0-34-7-46-16l-22-15v31h-41l-5-13zm216 6c-8-3-23-12-32-21l-18-15v-54l18-16c9-8 29-18 44-22s32-13 39-21l11-14-6-15-5-15h-21c-12 0-31 5-42 11l-20 11-15-14-14-15 17-14 17-14h95l21 19 21 19v65l-14 11c-7 6-31 17-52 25l-39 13v38h98l4 12 5 13-27 10c-28 11-61 12-85 3zm-2555-68-25-24v-81l20-20c11-11 31-22 46-26l26-7 55 13 55 12 71 36c39 21 72 42 74 48l4 11-48 21c-74 31-122 42-191 42h-63l-24-25zm372-11c-4-4-7-20-7-35v-28l20-11 20-11 21 11 20 11-3 32-3 32-30 3c-17 2-34 0-38-4zm63-99-12-15 6-15 5-15h42l5 15 6 15-12 15c-7 8-16 15-20 15s-13-7-20-15zm-191-49c-31-12-73-33-93-45l-36-23-16-30-16-31 13-23c7-13 20-26 30-29l18-6 35 15 35 15 43 43c24 24 58 65 76 91l33 47h-66l-56-24z"/></g><g fill="#6fc5b9" transform="matrix(.1 0 0 -.1 0 300)"><path d="m232 1810-22-9-11-28-10-27 5-22c3-13 18-37 33-55l27-32 53-23 53-24 65-10 66-11 15 9 15 8-44 60c-54 73-127 141-172 160-39 16-42 16-73 4zm1918-275v-165h40v330h-40v-165zM670 1670v-20h100v-280h50v280h100v40H670v-20zm880 0v-20h100v-280h50v280h100v40h-250v-20zm473 4-6-16 15-14 14-15 17 7 17 6v48h-51l-6-16zm-1456-81c-4-3-7-15-7-25v-18h19c11 0 23 5 26 10l7 11-12 14c-14 16-23 19-33 8zm396-3-23-9-20-33-20-33v-70l19-31 19-32 36-12 36-12 36 12 36 12 19 32 19 31v87l-34 34-34 34-33-1c-19 0-44-4-56-9zm91-46 16-15v-92l-17-19-16-18h-47l-20 20-20 20v83l17 19 16 18h56l15-16zm448 40-22-15v21h-40v-220h40v147l18 16c9 8 28 17 42 19l25 3 3 23 3 22h-23c-13 0-34-7-46-16zm320 1-34-15 5-12 4-13 19 2c10 1 34 5 51 9l33 6 10-27c5-14 10-28 10-30s-20-7-45-11l-45-6-25-20-25-19v-20c0-11 4-29 10-39l10-18 29-7 30-6 30 16 31 16v-21h40v178l-17 20-18 21-35 5-35 6-33-15zm96-139 4-20-18-13-18-13h-57l-5 15-6 15 12 15c12 14 43 24 70 21l15-1 3-19zm395 144-23-9-20-33-20-33v-70l19-31 19-32 36-12 36-12 36 12 36 12 19 32 19 31v85l-27 30-28 31-40 4-40 5-22-10zm91-46 16-15v-92l-17-19-16-18h-47l-20 20-20 20v83l17 19 16 18h56l15-16zm186 36-20-20v30h-40v-220h40v147l18 16c9 8 28 17 42 19l25 3 3 23 3 22h-51l-20-20zm138 4-28-15-6-24c-3-14-3-32 0-41l6-16 50-21 51-21-3-21-3-20-27-3-27-3-19 10-20 11-12-15-11-14 22-12 23-12h75l26 17 25 16v28c0 38-9 48-63 71l-47 20v14c0 8 6 20 14 26l14 11 28-10c29-11 54-7 54 9 0 10-54 31-79 31-9-1-28-7-43-16zm-1556-84 4-91 22-21 22-22 35 1 36 1 16 14 16 13 4-12 5-13h38v220h-50v-163l-17-13c-22-17-55-18-71-2l-12 12v166h-52l4-90zm858-20v-110h40v220h-40v-110zm-1825 58c-11-6-26-18-32-26l-13-16v-65l23-26 23-27h50l50 1 49 16c52 17 155 74 155 86 0 8-56 31-129 53l-55 16h-50l-51-1-20-11zm357-30c-16-16-15-43 2-58l15-12 23 4 23 3 3 23 4 23-12 15c-15 17-42 18-58 2zm52-103-7-16 11-11 10-10 18 4 19 3v40l-23 3-22 3-6-16zm-181-39c-65-24-78-32-125-75l-28-25v-52l12-12c16-16 53-15 86 2 42 22 162 154 162 177v9l-22-1c-13 0-51-10-85-23z"/></g><g fill="#3db0a1" transform="matrix(.1 0 0 -.1 0 300)"><path d="m215 1790-18-20v-61l19-27 20-27 67-34 68-34 75-5 76-5-10 19c-6 11-35 49-65 85l-55 65-47 32-48 32h-64l-18-20zm1811-115-5-14 16-16 16-16 15 15 15 14-6 16-6 16h-39l-6-15zm124-145v-160h40v320h-40v-160zM670 1665v-15h100v-280h50v280h100v30H670v-15zm880 0v-15h100v-280h50v280h100v30h-250v-15zm-979-75-14-8 6-16 6-16h31v19c0 24-12 32-29 21zm391-5-33-14-15-37-15-37 6-36c7-42 21-63 52-79 27-15 88-15 115-1l20 11 14 33c18 44 18 79-2 116l-15 31-34 14c-42 17-51 17-93-1zm79-25c6 0 17-16 25-36l15-36-6-29c-4-16-13-36-22-44l-14-15h-52l-19 17-18 16v93l13 16c15 19 37 28 55 22 8-2 18-4 23-4zm467 20-26-20-6 15-5 15h-31v-220h40v141l10 20 11 19h60l-3 22c-4 30-20 32-50 8zm804 5-33-14-15-37-15-37 6-36c7-42 21-63 52-79 27-15 88-15 115-1l20 11 14 33c18 44 18 79-2 116l-15 31-34 14c-42 17-51 17-93-1zm79-25c6 0 17-16 25-36l15-36-6-29c-4-16-13-36-22-44l-14-15h-52l-19 17-18 16v93l13 16c15 19 37 28 55 22 8-2 18-4 23-4zm206 20-25-20-6 15-5 15h-31v-220h40v141l10 20 11 19h57l5 19c9 37-17 42-56 11zm-1417-78v-88l16-22 15-22h75l22 16 22 15v-31h30v220h-39l-3-87-3-88-28-9-28-10-17 10-17 11-3 87-3 86h-39v-88zm631 72-23-16 10-10 10-10 20 11c11 6 32 11 46 11h25l11-19c5-11 10-27 10-35v-16h-75l-32-20-33-20v-49l16-15c22-23 77-24 102-3l13 10 11-11c7-7 18-12 25-12h13v167l-21 27-20 26h-85l-23-16zm107-131-3-27-27-16-28-15-17 11-18 11v37l25 13c14 7 35 13 48 13h23l-3-27zm112 37v-110h40v220h-40v-110zm693 100-22-9-7-25-6-24 11-21 11-20 40-12c22-7 45-18 50-24l10-12-6-16c-3-8-13-18-21-21l-16-6-33 12-33 12-8-8-8-8 19-14 20-14h86l20 20 20 20v47l-17 15c-10 9-35 21-56 28l-38 12 3 26 3 27 25-1c14-1 36-5 49-9l23-8-4 19-3 19-45 2c-25 1-55-2-67-7zm-2510-40c-12-5-29-20-39-34l-16-26 6-35 7-35 25-16 25-17 61 6 61 5 76 39c41 21 77 43 79 49l3 11-48 21c-89 37-192 51-240 32zm347-35-12-14 4-17c2-9 11-22 21-28l17-11 18 11c9 6 18 19 20 28l4 17-12 14c-7 8-20 15-30 15s-23-7-30-15zm58-97c-3-7-3-19-1-25l5-13h36l4 13c3 6 3 18 1 25l-5 12h-36l-4-12zm-153-32c-59-19-126-55-157-84l-28-26v-52l12-12 12-12h54l44 33c42 32 138 143 138 159 0 11-28 9-75-6z"/></g></g></svg>