<?xml version="1.0" encoding="UTF-8"?>
<!-- Generator: Adobe Illustrator 28.2.0, SVG Export Plug-In . SVG Version: 6.00 Build 0) -->
<svg version="1.2" baseProfile="tiny-ps" id="Layer_1" xmlns="http://www.w3.org/2000/svg" xmlns:xlink="http://www.w3.org/1999/xlink" viewBox="0 0 120 45" xml:space="preserve">
    <title>Company title</title>
    <g>
        <g id="Layer_2" />
    </g>
    <g>
        <g id="Layer_1">
            <g>
                <path fill="#005D98" d="M-224.848,56.307" />
            </g>
            <g>
                <rect x="-0.569" y="1.01" fill="none" width="118.821" height="43.432" />
                <g>
                    <g>
                        <g>
                            <path fill="#A4B9D6" d="M39.008,34.441c0.791,0.62,2.231,1.063,4.476,1.063c4.287,0,6.733-1.683,7.228-4.805
						c0.419-2.635-1.552-3.787-4.28-4.384c-1.436-0.332-2.554-0.421-2.425-1.24c0.117-0.73,0.799-1.107,2.087-1.107
						c1.355,0,2.716,0.664,3.53,1.549c0.078,0.067,1.735-0.996,1.932-2.236c0.109-0.687-0.147-1.307-0.869-1.793
						c-0.801-0.554-2.118-0.93-4.095-0.93c-3.933,0-6.389,1.749-6.857,4.694c-0.472,2.968,1.78,3.897,4.099,4.407
						c1.376,0.288,2.462,0.443,2.321,1.328c-0.117,0.73-0.798,1.107-2.154,1.107c-1.511,0-3.183-0.797-3.96-1.639
						c-0.138-0.11-1.632,1.041-1.801,2.104C38.128,33.267,38.334,33.931,39.008,34.441z" />
                            <path fill="#A4B9D6" d="M60.369,20.557c-4.421,0-8.094,3.122-8.788,7.484c-0.697,4.384,1.991,7.462,6.412,7.462
						c1.243,0,2.497-0.332,3.632-0.908l0.47,0.398c0.495,0.376,0.985,0.509,1.429,0.509c1.6,0,2.792-1.351,2.721-1.461l-1.452-1.904
						c0.986-1.174,1.7-2.591,1.943-4.119C67.433,23.635,64.768,20.557,60.369,20.557z M62.525,27.953
						c-0.066,0.42-0.212,0.775-0.439,1.084l-0.539-0.664c-0.496-0.376-1.23-0.509-1.959,0.022l-0.128,0.111
						c-0.729,0.531-0.867,1.395-0.605,2.126l0.528,0.731c-0.262,0.111-0.565,0.199-0.876,0.199c-1.822,0-2.852-1.483-2.528-3.52
						c0.331-2.082,1.811-3.565,3.833-3.565C61.745,24.477,62.85,25.916,62.525,27.953z" />
                            <path fill="#A4B9D6" d="M72.897,22.816c0.218-1.373-0.339-2.059-1.606-2.059h-0.555c-1.222,0-2.065,0.686-2.283,2.059
						l-0.971,6.111c-0.687,4.318,1.165,6.51,5.519,6.51c4.333,0,6.906-2.214,7.593-6.532l0.968-6.089
						c0.222-1.395-0.339-2.059-1.606-2.059h-0.578c-1.221,0-2.06,0.664-2.282,2.059l-0.975,6.133
						c-0.285,1.793-1.063,2.635-2.485,2.635c-1.422,0-1.993-0.886-1.714-2.635L72.897,22.816z" />
                            <path fill="#A4B9D6" d="M81.562,35.393c0.955,0,1.972-0.531,2.749-2.059l0.595-1.085h4.577l0.235,1.041
						c0.372,1.572,1.268,2.081,2.223,2.081c1.334,0,2.692-0.997,2.6-1.395l-2.913-12.001c-0.11-0.709-0.54-1.218-2.562-1.218
						s-2.702,0.509-3.037,1.218L79.492,34.02C79.273,34.418,80.341,35.393,81.562,35.393z M88.341,24.897l0.853,4.14H86.15
						L88.341,24.897z" />
                            <path fill="#A4B9D6" d="M99.492,20.868c-1.333,0-2.447,0.863-2.705,2.48l-1.496,9.41c-0.214,1.351,0.702,2.436,2.101,2.436
						h3.533c4.71,0,8.134-2.812,8.835-7.218c0.697-4.384-1.759-7.107-6.469-7.107H99.492z M105.361,27.975
						c-0.348,2.192-1.905,3.454-3.949,3.454h-1.489l1.081-6.798h1.533C104.581,24.632,105.702,25.827,105.361,27.975z" />
                        </g>
                        <g>
                            <path fill="#005D98" d="M40.761,17.814c0.57,0.447,1.608,0.766,3.225,0.766c3.089,0,4.852-1.213,5.21-3.463
						c0.301-1.899-1.119-2.729-3.085-3.16c-1.035-0.239-1.841-0.303-1.747-0.893c0.084-0.526,0.576-0.798,1.504-0.798
						c0.976,0,1.957,0.479,2.544,1.117c0.056,0.048,1.251-0.718,1.393-1.611c0.078-0.495-0.106-0.942-0.627-1.292
						c-0.577-0.399-1.526-0.67-2.951-0.67c-2.834,0-4.604,1.261-4.941,3.383c-0.34,2.138,1.283,2.808,2.954,3.175
						c0.992,0.207,1.774,0.319,1.673,0.957c-0.084,0.527-0.575,0.798-1.552,0.798c-1.089,0-2.294-0.575-2.854-1.181
						c-0.099-0.08-1.176,0.75-1.298,1.516C40.127,16.968,40.275,17.447,40.761,17.814z" />
                            <path fill="#005D98" d="M51.579,10.809h1.713l-0.977,6.144c-0.154,0.974,0.213,1.484,1.093,1.484h0.464
						c0.913,0,1.507-0.51,1.661-1.484l0.977-6.144h1.665c0.993,0,1.565-0.479,1.71-1.388l0.01-0.064
						c0.14-0.878-0.286-1.324-1.278-1.324H52.02c-0.961,0-1.544,0.447-1.683,1.324l-0.01,0.064
						C50.182,10.33,50.618,10.809,51.579,10.809z" />
                            <path fill="#005D98" d="M63.633,18.58c3.17,0,5.8-2.234,6.302-5.394c0.5-3.144-1.402-5.378-4.589-5.378
						c-3.154,0-5.801,2.25-6.301,5.394C58.545,16.346,60.447,18.58,63.633,18.58z M62.217,13.187c0.251-1.58,1.303-2.553,2.68-2.553
						c1.361,0,2.111,1.021,1.865,2.569c-0.243,1.532-1.297,2.521-2.674,2.521C62.727,15.724,61.971,14.735,62.217,13.187z" />
                            <path fill="#005D98" d="M70.879,18.436h0.449c0.929,0,1.492-0.526,1.645-1.484l0.305-1.915h0.449l1.261,2.043
						c0.509,0.925,0.937,1.356,1.93,1.356c1.377,0,2.092-0.973,2.016-1.101l-1.905-2.92l0.351-0.096
						c1.341-0.479,2.162-1.516,2.38-2.888c0.353-2.218-0.884-3.399-3.751-3.399h-3.186c-1.057,0-1.748,0.622-1.933,1.787
						l-1.076,6.766C69.627,17.75,69.998,18.436,70.879,18.436z M73.957,10.458h1.297c0.993,0,1.391,0.415,1.264,1.213
						c-0.122,0.766-0.673,1.213-1.634,1.213h-1.313L73.957,10.458z" />
                            <path fill="#005D98" d="M80.716,18.5c0.689,0,1.422-0.383,1.981-1.484l0.429-0.782h3.298l0.169,0.75
						c0.268,1.133,0.914,1.5,1.602,1.5c0.961,0,1.94-0.718,1.873-1.005L87.97,8.83c-0.079-0.511-0.389-0.878-1.846-0.878
						c-1.457,0-1.948,0.367-2.189,0.878l-4.711,8.681C79.067,17.798,79.836,18.5,80.716,18.5z M85.602,10.937l0.615,2.984h-2.194
						L85.602,10.937z" />
                            <path fill="#005D98" d="M94.274,18.532c1.505,0,2.624-0.59,3.278-1.484l0.053,0.271c0.132,0.878,0.719,1.117,1.296,1.117
						c0.592,0,1.125-0.223,1.14-0.319l0.688-4.325c0.147-0.925,0.039-1.356-0.89-1.356h-2.802c-1.008,0-1.535,0.192-1.68,1.101
						l-0.023,0.144c-0.139,0.878,0.321,1.101,1.33,1.101h0.961c-0.037,0.127-0.089,0.255-0.136,0.351
						c-0.337,0.606-1.088,1.005-2.001,1.005c-1.425,0-2.277-1.085-2.006-2.792c0.269-1.691,1.584-2.808,3.041-2.808
						c0.897,0,1.666,0.399,2.096,1.117c0.08,0.095,1.662-0.288,1.85-1.468c0.107-0.67-0.165-1.277-0.804-1.691
						c-0.636-0.431-1.604-0.686-2.901-0.686c-3.395,0-5.994,2.25-6.494,5.394C89.78,16.282,91.409,18.532,94.274,18.532z" />
                            <path fill="#005D98" d="M109.41,8.032h-5.476c-1.057,0-1.748,0.622-1.933,1.787l-1.078,6.782
						c-0.185,1.165,0.314,1.755,1.37,1.755h5.54c1.025,0,1.555-0.415,1.694-1.293l0.013-0.08c0.132-0.83-0.282-1.149-1.307-1.149
						h-3.971l0.244-1.532h2.594c1.04,0,1.545-0.351,1.679-1.197l0.008-0.048c0.124-0.782-0.255-1.117-1.312-1.117h-2.594
						l0.215-1.357h3.907c1.009,0,1.529-0.351,1.669-1.229l0.013-0.08C110.82,8.431,110.419,8.032,109.41,8.032z" />
                        </g>
                    </g>
                    <g>
                        <g>
                            <g>
                                <path fill="#FFFFFF" d="M33.309,18.318c-0.881,0.709-7.365,5.913-8.634,6.931l-1.663-1.524l6.995-5.479l-3.335-2.871
							l-5.499,4.283c-0.011,0.008-1.066,0.771-1.841,0.631c-0.645-0.118-1.013-0.492-1.191-0.736l8.176-6.507
							c0.012-0.011,1.239-1.063,2.038-0.381c1.167,0.997,4.918,4.181,4.971,4.224c0.004,0.003,0.416,0.322,0.423,0.715
							C33.753,17.839,33.605,18.079,33.309,18.318z" />
                                <path fill="#FFFFFF" d="M22.518,7.867c0.349-0.311,0.776,0.108,0.794,0.126L23.319,8c0.009,0.008,0.876,0.778,1.14,1.077
							c0.056,0.064,0.081,0.127,0.075,0.193c-0.011,0.127-0.129,0.249-0.173,0.284l-9.051,7.151l-0.003,0.003
							c-0.406,0.34-0.691,0.181-0.728,0.156l-0.606-0.556c-0.271-0.269-0.406-0.544-0.403-0.818c0.004-0.352,0.242-0.6,0.27-0.628
							C14.249,14.535,22.172,8.176,22.518,7.867z" />
                                <path fill="#005D98" d="M34.51,15.544c-0.329-0.284-3.787-3.263-4.896-4.223c-0.526-0.455-1.17-0.696-1.864-0.696
							c-0.73,0-1.386,0.266-1.862,0.536c0.001-0.017,0.002-0.034,0.003-0.051l0.258-1.123c0.067-0.171,0.11-0.347,0.127-0.527
							c0.051-0.525-0.119-1.042-0.478-1.455c-0.295-0.34-1.001-0.984-1.248-1.207c-0.458-0.446-1.081-0.71-1.677-0.71
							c-0.517,0-1,0.184-1.397,0.534C21.424,6.664,21.1,6.928,19.374,8.3l-1.649-1.443c-0.263-0.23-0.592-0.346-0.922-0.346
							c-0.307,0-0.614,0.1-0.868,0.302L15.84,6.888c-0.079,0.062-7.923,6.264-8.901,7.04c-0.874,0.693-1.155,1.444-1.183,2.005
							c-0.005,0.039,0.002,0.077,0,0.116v12.154c0,1.067,0.341,1.914,1.033,2.409c0.434,0.363,3.66,3.06,4.737,3.994
							c0.496,0.43,1.107,0.657,1.767,0.657c0.742,0,1.406-0.287,1.872-0.561c-0.024,0.092-0.04,0.188-0.045,0.285l-0.11,1.847
							c-0.01,0.174,0.01,0.346,0.059,0.508c0.065,0.287,0.203,0.557,0.407,0.792c0.299,0.344,1.043,1.02,1.242,1.2
							c0.208,0.2,0.78,0.668,1.573,0.668c0.481,0,0.932-0.172,1.302-0.498c0.053-0.045,0.387-0.318,2.186-1.747l1.624,1.51
							c0.267,0.249,0.61,0.374,0.953,0.374c0.306,0,0.613-0.1,0.868-0.302c0,0,7.912-6.255,8.901-7.04
							c0.371-0.294,1.455-1.161,1.516-1.97c0,0,0.003-12.436,0-12.555c0.001-0.033-0.03-0.066-0.03-0.1
							C35.597,16.525,34.806,15.782,34.51,15.544z M22.519,7.867c0.349-0.311,0.776,0.108,0.794,0.126l0.007,0.006
							c0.009,0.008,0.876,0.778,1.14,1.077c0.056,0.064,0.081,0.127,0.075,0.193c-0.011,0.127-0.129,0.249-0.173,0.284l-9.051,7.151
							l-0.003,0.003c-0.406,0.34-0.691,0.181-0.728,0.156l-0.606-0.556c-0.271-0.269-0.406-0.544-0.403-0.818
							c0.004-0.352,0.242-0.6,0.27-0.628C14.25,14.535,22.173,8.176,22.519,7.867z M14.966,20.433l-0.005,0.004
							c-0.05,0.043-1.249,1.057-2.039,0.382c-1.114-0.951-4.454-3.703-4.832-4.014l-0.033-0.025
							c-0.004-0.003-0.397-0.271-0.414-0.616c-0.01-0.22,0.137-0.454,0.438-0.696c0.882-0.71,7.387-5.931,8.64-6.936l1.658,1.429
							l-6.986,5.471l3.334,2.871l5.499-4.283c0.011-0.008,1.075-0.773,1.841-0.632c0.592,0.108,0.908,0.365,1.062,0.545
							L14.966,20.433z M18.764,25.684c-0.228,0.202-0.541-0.106-0.569-0.133c-0.009-0.007-0.869-0.772-1.125-1.062
							c-0.034-0.039-0.032-0.057-0.032-0.064c0.004-0.049,0.068-0.13,0.107-0.163l9.058-7.157c0.136-0.114,0.27-0.174,0.388-0.174
							c0.072,0,0.118,0.021,0.114,0.017l0.596,0.547c0.236,0.235,0.354,0.467,0.352,0.692c-0.004,0.288-0.21,0.499-0.22,0.507
							C26.044,19.81,19.093,25.39,18.764,25.684z M33.309,18.318c-0.881,0.709-7.365,5.913-8.634,6.931l-1.663-1.524l6.995-5.479
							l-3.335-2.871l-5.499,4.283c-0.011,0.008-1.066,0.771-1.841,0.631c-0.645-0.118-1.013-0.492-1.191-0.736l8.176-6.507
							c0.012-0.011,1.239-1.063,2.038-0.381c1.167,0.997,4.918,4.181,4.971,4.224c0.004,0.003,0.416,0.322,0.423,0.715
							C33.754,17.839,33.606,18.08,33.309,18.318z" />
                                <path fill="#A4B9D6" d="M22.067,13.391c-0.766-0.141-1.831,0.624-1.841,0.632l-5.499,4.283l-3.334-2.871l6.986-5.471
							l-1.658-1.429c-1.253,1.005-7.758,6.226-8.64,6.936c-0.301,0.242-0.448,0.476-0.438,0.696c0.017,0.344,0.41,0.613,0.414,0.616
							l0.033,0.025c0.377,0.311,3.718,3.063,4.832,4.014c0.79,0.675,1.989-0.339,2.039-0.382l0.005-0.004l8.163-6.497
							C22.975,13.756,22.659,13.499,22.067,13.391z" />
                                <path fill="#A4B9D6" d="M27.654,18.187c0.003-0.225-0.115-0.458-0.352-0.692l-0.596-0.547
							c0.004,0.004-0.042-0.017-0.114-0.017c-0.118,0-0.252,0.06-0.388,0.174l-9.058,7.157c-0.04,0.032-0.103,0.113-0.107,0.163
							c0,0.007-0.002,0.025,0.032,0.064c0.255,0.29,1.116,1.054,1.125,1.062c0.027,0.027,0.34,0.335,0.569,0.133
							c0.329-0.294,7.28-5.874,8.67-6.99C27.444,18.686,27.65,18.475,27.654,18.187z" />
                            </g>
                        </g>
                    </g>
                </g>
            </g>
        </g>
    </g>
</svg>
