<?xml version="1.0"?><svg version="1.2" baseProfile="tiny-ps" viewBox="0 0 300 300" xmlns="http://www.w3.org/2000/svg" xmlns:xlink="http://www.w3.org/1999/xlink"><title>SCF</title><g><g fill="#fefefe" transform="matrix(.1 0 0 -.1 0 300)"><path d="M0 1500V0h3000v3000H0V1500z"/></g><g fill="#dadada" transform="matrix(.1 0 0 -.1 0 300)"><path d="M762 1698c-7-7-12-18-12-24 0-7 54-81 121-164s120-153 118-155c-2-1-74-11-159-20l-155-17-160-2-160-3-92-18-93-18v-27l562 2 561 3 4 12 4 11-108 88c-59 49-113 93-119 99-6 5-64 53-127 105-64 52-115 95-114 96 2 1 107-9 397-36 74-8 137-15 139-17 3-2-4-10-15-17l-19-15 17-6 17-7 48 16 48 16 57 43 58 42v25H774l-12-12zm873-10c-16-12-32-25-35-28s-45-37-95-75c-49-38-92-72-95-75s-42-34-87-69c-46-34-83-66-83-71 0-8 74-72 120-103l24-17h506v23c0 31-36 131-48 135l-11 3-3-28-3-28-192-19-191-18-37 28-37 28 24 21c113 93 240 196 272 220l38 29 24-27c13-16 24-36 24-46v-18l25-23 25-23 7 7 7 7-24 72c-13 40-28 82-34 95l-9 22h-41l-41-1-30-21zm175 3c0-41 184-631 197-631 3 0 12 8 19 18l13 17 1 43v44l-20 16-21 17-9 40c-5 22-10 68-10 101v62l33 5c48 9 237 28 272 29 16 0 42 4 58 10l27 10v28h-399l-6 33c-3 17-6 43-8 57l-2 25 150 12c83 6 237 17 343 23l193 12 19-17 19-17 85 27 86 27v28H1810v-19z"/></g><g fill="#acacac" transform="matrix(.1 0 0 -.1 0 300)"><path d="m765 1694-16-16 17-27c20-30 61-83 157-199l69-83-5-12-5-13-148-12c-82-7-200-18-263-24l-113-11-8 14-9 13-131-25-131-25 1-9v-10h1105v32l-190 155c-104 86-208 172-230 192l-40 35 21 1c12 0 129-11 260-25 132-14 248-25 259-25l20-1-17-13c-25-19-22-26 10-26 38 1 105 33 157 76l45 36-6 9-5 9H781l-16-16zm763-96c-79-61-173-136-210-165l-68-54 1-12c0-7 28-34 62-62l62-50 249-3 249-3 10 10 9 9-22 66c-21 64-40 86-40 47 0-11-4-22-9-26-13-7-283-35-346-34h-50l-29 23-28 24 3 9c2 6 69 63 149 128s153 125 164 134l18 16 29-35 29-35-4-11-4-12 29-28 29-28v10c0 13-48 152-61 176l-10 18h-68l-143-112zm325 105c-24-2-43-8-43-12 0-15 78-276 135-448l56-173h10c13 0 29 44 29 80v29l-20 11-19 10-10 38c-5 20-11 71-13 112l-3 75 150 17c83 10 156 15 163 13l13-5 37 18 37 17-205 5-205 5-8 59c-5 32-6 60-4 62 7 7 535 44 625 44h82v-20h28c15 1 55 11 90 23l64 23-1 9-1 10-472 1c-260 0-492-1-515-3z"/></g><g fill="#828282" transform="matrix(.1 0 0 -.1 0 300)"><path d="m2055 1700-240-5 3-20c11-68 182-605 193-605 5 0 14 18 20 41l13 41-10 13c-5 6-18 24-28 39l-19 28-11 94c-5 51-8 95-5 98 2 2 76 11 164 21 88 9 175 19 193 21l32 5v19l-197 2-198 3-9 58c-4 32-6 60-4 62 7 8 175 23 441 40l249 17 19-18 19-17 47 13c27 8 64 20 83 29l35 15-55 7c-61 8-365 7-735-1zm-1288-7c-17-16 1-45 114-185l121-150-8-7c-9-8-85-16-387-43l-139-12-18 12-18 11-121-23c-67-13-124-26-128-30l-6-6h1113v10c0 8-198 175-396 334-41 32-74 63-74 68v8l23-5c12-2 76-9 142-15s185-18 264-27l143-16-23-19-24-19 45 6 45 7 45 29c52 34 90 65 90 73 0 3-179 6-398 6H773l-6-7zm751-106c-79-62-171-134-205-160-35-27-63-52-63-57s28-32 63-59l62-50 258-1h257v7c0 4-10 35-21 70l-22 63-8-6c-5-3-9-14-9-24v-19l-32-5c-18-3-87-10-153-16s-139-12-161-15l-42-4-41 29c-23 17-41 32-41 34 0 3 217 182 299 246l44 34 28-32 29-32v-37l18-16c10-10 21-17 25-17 3 0-8 41-25 90l-30 90h-87l-143-113z"/></g><g fill="#4a4a4a" transform="matrix(.1 0 0 -.1 0 300)"><path d="m764 1685-6-15 28-38c15-20 66-84 113-142 46-58 89-111 94-118l10-13-9-9-10-10-104-10c-58-6-175-16-260-24l-155-14-17 12-17 12-118-23c-65-13-122-25-128-27-5-3 241-5 548-5l557-1v8c0 4-106 95-235 201-201 164-252 211-231 211 15 0 499-51 529-56l38-6-17-19-17-19 34 6c40 7 131 59 161 91l21 23H769l-5-15zm866-13c-19-16-111-89-205-162-93-73-170-136-170-140 0-5 28-31 63-59l63-51h511l-4 13c-3 6-13 36-23 66l-18 54-14-26-14-27h-19c-11 0-93-7-182-16l-163-15-20 6c-11 3-33 16-48 30l-29 26 13 16c12 14 278 232 314 258l14 9 31-29 30-29v-43l20-18 20-18v14c0 8-13 48-28 89l-28 75-39 3-40 3-35-29zm190 10c0-22 61-227 132-445l52-157 10 3 11 4 3 46 3 47h-9c-5 0-17 15-26 34l-16 34-6 90-7 90 44 6c116 15 234 28 272 31 65 4 67 4 67 15v10h-389l-6 55c-4 30-5 61-1 70l5 15h23c13 0 145 9 293 20 149 11 296 20 327 20h57l9-16 9-16 54 16c30 9 68 23 84 30l30 14-512 1-513 1v-18z"/></g><g fill="#090909" transform="matrix(.1 0 0 -.1 0 300)"><path d="m771 1686-11-13 57-74c32-41 86-110 121-152l63-77-3-17-3-18-265-24-264-23-18 11-19 11-117-22-117-23 535-3c294-1 541 0 548 3l13 5-173 142c-242 198-270 221-292 240l-20 18 7 7 7 6 128-11c215-20 426-43 441-48l13-4-12-15-12-15h11c33 0 170 82 171 103v7H782l-11-14zm732-118c-93-73-187-148-209-166l-39-32 40-36c22-20 54-45 70-55l30-19h485v13c-1 20-39 123-39 106-1-9-7-22-15-29l-15-12-148-14c-81-8-167-15-190-16l-42-1-35 27c-57 43-72 24 178 226l129 105 33-39 34-39v-17c0-10 7-23 15-30 18-15 19-12 2 31-8 19-22 55-31 82l-18 47h-65l-170-132zm384 125-67-4 6-27c16-70 140-468 174-557l11-29 9 14c6 8 10 28 10 44v28l-24 29-24 29-7 62c-4 35-5 83-3 108l3 45 100 12c55 7 136 15 179 18 44 3 82 7 84 10 3 3-80 5-185 5h-191l-6 16c-3 9-6 42-6 74v58l58 6c96 10 482 36 571 39l84 2 4-12 5-13h17c22 0 113 30 126 41l9 9-434-2c-239-1-465-3-503-5z"/></g></g></svg>