<?xml version="1.0" encoding="utf-8"?>
<!-- Generator: Adobe Illustrator 28.0.0, SVG Export Plug-In . SVG Version: 6.00 Build 0)  -->
<svg version="1.2" baseProfile="tiny-ps" xmlns="http://www.w3.org/2000/svg" xmlns:xlink="http://www.w3.org/1999/xlink"
	viewBox="0 0 80 80" xml:space="preserve"><title>Esri</title>
<g id="Layer_1">
	<rect x="0" y="0" fill="#007AC2" width="80" height="80"/>
	<path fill="#FFFFFF" d="M72.1664,32.97805v0.27148h-0.52344v1.36523h-0.32422v-1.36523h-0.52344v-0.27148H72.1664z
		 M73.93398,34.61477l-0.06055-0.96289c-0.00586-0.12695-0.00586-0.2832-0.01172-0.45703h-0.01758
		c-0.04297,0.14453-0.08984,0.33789-0.13867,0.48633l-0.29492,0.9082h-0.33594l-0.29492-0.93164
		c-0.0293-0.125-0.07812-0.31836-0.11328-0.46289h-0.01953c0,0.15039-0.00586,0.30664-0.01172,0.45703l-0.06055,0.96289h-0.3125
		l0.12109-1.63672h0.48633l0.2832,0.80078c0.03516,0.125,0.06641,0.24609,0.10742,0.41406h0.00586
		c0.04297-0.15039,0.07812-0.28906,0.11523-0.4082l0.2832-0.80664h0.46875l0.125,1.63672H73.93398z M64,54h5V33.17139h-5V54z
		 M21.92095,47.89993c-1.22605,1.29-2.79918,2.20895-5.05734,2.20895c-2.90871,0-5.25186-1.86877-5.60011-4.94653h15.88255V43.7308
		c0-7.24864-3.94645-11.32531-9.76645-11.32531c-6.289,0-11.32179,4.38036-11.32179,10.93369
		c0,6.55168,5.03279,10.93662,11.32179,10.93662c2.87002,0,5.57112-0.8916,7.82694-3.09038L21.92095,47.89993z M16.64442,36.30809
		c3.25474,0,5.2514,1.91155,5.2971,4.94769H11.2635C11.65512,38.26021,13.56562,36.30809,16.64442,36.30809z M34.40894,38.78368
		c0-1.56342,1.6497-2.21362,3.04011-2.21362c1.76718,0,3.06641,0.73121,4.06298,2.10854l3.31179-3.30841
		c-1.71469-2.14045-4.55724-2.9647-7.24688-2.9647c-4.20911,0-8.37591,2.08059-8.37591,6.72575
		c0,7.94221,11.23903,4.55561,11.23903,8.85088c0,1.64853-1.95212,2.38594-3.47042,2.38594
		c-2.2079,0-3.59387-1.07771-4.93635-2.54808l-3.3631,3.36206c2.11192,2.28891,4.8426,3.09377,7.99575,3.09377
		c4.25131,0,8.98437-1.73645,8.98437-6.68413C45.65031,39.47597,34.40894,42.51445,34.40894,38.78368z M61.052,32.95056
		c-0.60168-0.17009-1.20559-0.29914-1.84936-0.29914c-2.73652,0-5.03677,1.43097-6.1659,3.81469H52.9534v-3.29472h-4.90687V54
		h4.90687V42.84595c0-1.1268,0.6918-5.25023,5.59729-5.25023c0.75459,0,1.50696,0.1501,2.29816,0.33842L61.052,32.95056z
		 M63.1352,25.74941c0,1.75689,1.43612,3.33119,3.4156,3.33119c1.97841,0,3.50701-1.4339,3.50701-3.33119
		c0-1.89508-1.5286-3.32839-3.50701-3.32839C64.57132,22.42102,63.1352,23.99298,63.1352,25.74941z"/>
</g>
</svg>
