<?xml version="1.0" encoding="UTF-8" standalone="yes"?>
<svg viewBox="0 0 45 45" version="1.2" width="45" height="45" baseProfile="tiny-ps" xmlns="http://www.w3.org/2000/svg">
  <title>bimi-svg-tiny-12-ps</title>
  <defs id="defs843"/>
  <g id="g845" transform="scale(0.140625)">
    <rect id="rect1" width="320" height="320" x="0" y="0" fill="#ff4848" stroke-width="7.11111" fill-opacity="1"/>
    <path d="m 243.14053,184.61532 c 1.1388,-1.09169 1.85977,-2.6217 1.85977,-4.32785 0,-1.64265 -0.77832,-3.11941 -1.84338,-4.20086 l -47.99957,-48.2433 -14.48692,14.5627 37.78929,37.97978 h -53.53995 c -2.6176,-0.0778 -4.69038,-0.96061 -6.44568,-2.67086 L 134.4487,153.57075 a 13.98511,13.98511 0 0 0 -9.60401,-3.867 l -0.0348,0.002 H 95.489892 v -10.0771 h 30.364558 c 6.01761,0.004 11.38595,2.47833 15.32054,6.45183 l 17.9197,18.00983 14.48692,-14.56271 -18.26994,-18.35801 c -7.6316,-7.55786 -17.94428,-12.13354 -29.50637,-12.13354 H 74.999698 v 51.2603 h 42.967132 v 0.004 a 10.075096,10.075096 0 0 1 7.14003,3.03134 l 23.52563,23.64442 a 13.804868,13.804868 0 0 0 9.21485,3.98784 h 64.99553 a 10.05871,10.05871 0 0 0 7.01099,-2.96989 l 13.29487,-13.36246 -0.008,-0.0164" fill="#ffffff" id="path835" fill-rule="evenodd" stroke-width="2.0482"/>
  </g>
</svg>