<?xml version="1.0" encoding="utf-8" standalone="yes"?><!-- Generator: Adobe Illustrator 27.2.0, SVG Export Plug-In . SVG Version: 6.00 Build 0)  -->

<svg xmlns="http://www.w3.org/2000/svg" xmlns:xlink="http://www.w3.org/1999/xlink" version="1.2" baseProfile="tiny-ps" viewBox="0 0 240 240" xml:space="preserve">

	<title>Tuto.com</title>
	<desc>Plateforme de cours en ligne</desc>

	<rect fill="#FFFFFF" width="240" height="240"></rect>
	<g>
		<linearGradient id="SVGID_1_" gradientUnits="userSpaceOnUse" x1="160.6801" y1="119.4992" x2="160.6801" y2="203.4328">
			<stop offset="0" stop-color="#41E2E2"></stop>
			<stop offset="0.8" stop-color="#3040FC"></stop>
		</linearGradient>

		<rect x="117.5" y="119.5" fill="url(#SVGID_1_)" width="86.4" height="83.9"></rect>

		<linearGradient id="SVGID_00000013193290481895049600000010982566291708138940_" gradientUnits="userSpaceOnUse" x1="37.1513" y1="117.6769" x2="123.1086" y2="203.6342">
			<stop offset="0" stop-color="#F53754"></stop>
			<stop offset="0.2" stop-color="#F53754"></stop>
			<stop offset="0.3665" stop-color="#FD51A7"></stop>
			<stop offset="0.5455" stop-color="#FD51A7"></stop>
			<stop offset="0.8133" stop-color="#3040FC"></stop>
			<stop offset="1" stop-color="#3040FC"></stop>
		</linearGradient>

		<rect x="36.9" y="117.9" fill="url(#SVGID_00000013193290481895049600000010982566291708138940_)" width="86.4" height="85.6"></rect>

		<linearGradient id="SVGID_00000092456220311807867470000002571721599164042636_" gradientUnits="userSpaceOnUse" x1="122.453" y1="35.7102" x2="37.8069" y2="120.3563">
			<stop offset="0" stop-color="#F68966"></stop>
			<stop offset="0.3009" stop-color="#F68966"></stop>
			<stop offset="0.5704" stop-color="#F53754"></stop>
			<stop offset="1" stop-color="#F53754"></stop>
		</linearGradient>

		<rect x="36.9" y="36.6" fill="url(#SVGID_00000092456220311807867470000002571721599164042636_)" width="86.4" height="82.9"></rect>

		<linearGradient id="SVGID_00000081623633088947699690000001607473187019723415_" gradientUnits="userSpaceOnUse" x1="122.7146" y1="37.1627" x2="204.4557" y2="118.9037">
			<stop offset="0" stop-color="#F68966"></stop>
			<stop offset="0.15" stop-color="#F68966"></stop>
			<stop offset="0.45" stop-color="#FEA966"></stop>
			<stop offset="0.7" stop-color="#41E2E2"></stop>
			<stop offset="1" stop-color="#41E2E2"></stop>
		</linearGradient>

		<rect x="123.3" y="36.6" fill="url(#SVGID_00000081623633088947699690000001607473187019723415_)" width="80.6" height="82.9"></rect>
	</g>

	<path fill="#FFFFFF" d="M62,95c-13.5,31.8,1.3,68.5,33,82.1c8,3.5,16.2,5,24.5,5c24.4,0,47.5-14.2,57.6-38.1  c13.5-31.7-1.3-68.5-33-82.1C112.3,48.4,75.4,63.2,62,95L62,95z"></path>

	<g>
		<path fill="#FFFFFF" d="M119.8,238.5c-15.5,0-31.3-3-46.4-9.5C13.3,203.5-14.8,133.7,11,73.6l0,0c25.5-60.1,95.3-88.2,155.5-62.5   c60.1,25.6,88.2,95.4,62.5,155.6C209.9,211.6,166,238.5,119.8,238.5z M43.4,87.2c-18.1,42.2,1.6,91.3,44,109.4   c10.6,4.6,21.6,6.7,32.6,6.7c32.4,0,63.2-19,76.7-50.6c18.1-42.2-1.6-91.3-44-109.4S61.3,45.1,43.4,87.2L43.4,87.2z"></path>
	</g>

	<g>
		<path fill-rule="evenodd" fill="#050C15" d="M105.2,96.9v44c0,2.4,2.5,3.8,4.6,2.5l37-22.1c2-1.2,2-4.1,0-5.3l-37-21.9   C107.7,93,105.2,94.5,105.2,96.9z"></path>
	</g>
</svg>