<?xml version="1.0" encoding="UTF-8" standalone="yes"?><svg xmlns="http://www.w3.org/2000/svg" xmlns:xlink="http://www.w3.org/1999/xlink" version="1.2" viewBox="0 0 96 96" xml:space="preserve" baseProfile="tiny-ps"><title>Change.org</title><g><path d="M96 0H0V96H96V0Z" fill="white"></path><path d="M89.2175 14.52H11.6975V77.88H89.2175V14.52Z" fill="white"></path><path d="M96 13.4652C95.9984 9.89346 94.5784 6.46854 92.0524 3.9435C89.5262 1.41846 86.1006 -3.54274e-07 82.5288 0H13.4712C9.89946 -3.54274e-07 6.47392 1.41846 3.94774 3.9435C1.42158 6.46854 0.00159276 9.89346 1.92428e-06 13.4652V82.5216C-0.000943918 84.2912 0.346802 86.0438 1.02337 87.679C1.69994 89.3142 2.69206 90.8002 3.94308 92.0518C5.1941 93.3036 6.67946 94.2964 8.31434 94.9738C9.94922 95.6514 11.7015 96 13.4712 96H82.5288C84.2986 96 86.0508 95.6514 87.6858 94.9738C89.3206 94.2964 90.806 93.3036 92.057 92.0518C93.308 90.8002 94.3002 89.3142 94.9768 87.679C95.6532 86.0438 96.001 84.2912 96 82.5216V13.4652ZM47.3664 60.0516C48.9706 60.0482 50.5252 59.4954 51.7714 58.4854C53.0176 57.4754 53.8804 56.069 54.216 54.5004C54.222 54.474 54.3204 54.0204 54.3552 53.82C54.4198 53.5076 54.5906 53.2272 54.8384 53.0264C55.0862 52.8256 55.3958 52.7168 55.7148 52.7184H65.7192C66.0974 52.7262 66.4572 52.8832 66.72 53.1552C66.9264 53.3702 67.0534 53.6492 67.08 53.946C67.08 54.012 67.0632 54.666 67.056 54.7548C66.8232 59.3412 65.2668 63.0216 62.7828 65.766C61.3484 67.3318 59.6286 68.6094 57.7152 69.5304C54.7248 71.0028 51.228 71.76 47.4168 71.76C36.4128 71.76 27.72 65.5584 27.72 53.5488V39.3396C27.72 27.36 36.342 21.1596 47.3124 21.1296H47.376C58.2624 21.1296 66.9 27.1992 67.0884 38.9508V39.084C67.0888 39.25 67.0566 39.4142 66.9934 39.5678C66.9302 39.7212 66.8372 39.8606 66.72 39.978C66.6324 40.0582 66.5342 40.1264 66.4284 40.1808C66.2114 40.3004 65.967 40.362 65.7192 40.3596H55.7316C55.4928 40.3596 55.258 40.298 55.05 40.1808C54.8798 40.094 54.7314 39.9702 54.6154 39.8184C54.4996 39.6666 54.4192 39.4906 54.3804 39.3036C54.3576 39.1836 54.3312 39.0636 54.3048 38.9436C54.2076 38.4636 54.0912 37.9932 53.9544 37.5432C53.386 35.995 52.2914 34.6958 50.862 33.873C49.4326 33.0502 47.7596 32.756 46.1352 33.042C44.511 33.328 43.0388 34.176 41.9766 35.4376C40.9142 36.699 40.329 38.294 40.3236 39.9432V52.908C40.32 56.784 43.4916 60.06 47.3664 60.0516ZM78.2916 71.76C74.2908 71.76 71.2704 68.4708 71.2704 64.4736C71.2704 60.738 74.2908 57.6336 78.2028 57.6336C82.2036 57.6336 85.2252 60.7416 85.2252 64.4736C85.2288 68.382 82.5636 71.76 78.2916 71.76Z" fill="#E01A2B"></path></g></svg>