<?xml version="1.0" encoding="UTF-8" standalone="yes"?>
<svg baseProfile="tiny-ps" version="1.2" viewBox="0 0 311.8 311.8" xmlns="http://www.w3.org/2000/svg">
  <title>Krahl Verladesysteme GmbH</title>
  <rect width="311.8" height="311.8" fill="#f8f8f8"/>
  <g>
    <g>
      <path d="M83.1,155.9l-1,1.8v6h-3.1v-19.6h3.1v8.6l4-8.6h3.1l-4.3,8.8,4.3,10.9h-3.2l-3-7.8h0Z" fill="#0099ce"/>
      <path d="M98,163.7c-.2-.5-.3-.8-.3-2.4v-3.1c0-1.8-.6-2.5-2-2.5h-1.1v8h-3.1v-19.6h4.7c3.2,0,4.6,1.5,4.6,4.5v1.5c0,2-.6,3.3-2,4,1.5.6,2,2.1,2,4.2v3c0,1,0,1.7.3,2.4h-3.2,0ZM94.6,146.9v6h1.2c1.2,0,1.8-.5,1.8-2.1v-1.9c0-1.4-.5-2-1.6-2h-1.5,0Z" fill="#0099ce"/>
      <path d="M113.6,163.7h-3.1l-.5-3.6h-3.8l-.5,3.6h-2.8l3.1-19.6h4.5s3.1,19.6,3.1,19.6ZM106.6,157.5h3l-1.5-9.9-1.5,9.9Z" fill="#0099ce"/>
      <path d="M119,163.7h-3.1v-19.6h3.1v8.4h3.5v-8.4h3.1v19.6h-3.1v-8.4h-3.5v8.4Z" fill="#0099ce"/>
      <path d="M128.7,144.1h3.1v16.8h5.1v2.8h-8.2v-19.6h0Z" fill="#0099ce"/>
      <path d="M148.9,160.1l2.4-16h2.8l-3,19.6h-4.6l-3-19.6h3.1l2.4,16h0Z" fill="#5a5a5a"/>
      <path d="M159.5,152.4h4.2v2.8h-4.2v5.7h5.3v2.8h-8.4v-19.6h8.4v2.8h-5.3v5.5Z" fill="#5a5a5a"/>
      <path d="M174,163.7c-.2-.5-.3-.8-.3-2.4v-3.1c0-1.8-.6-2.5-2-2.5h-1.1v8h-3.1v-19.6h4.7c3.2,0,4.6,1.5,4.6,4.5v1.5c0,2-.6,3.3-2,4,1.5.6,2,2.1,2,4.2v3c0,1,0,1.7.3,2.4h-3.2.1ZM170.7,146.9v6h1.2c1.2,0,1.9-.5,1.9-2.1v-1.9c0-1.4-.5-2-1.6-2h-1.5,0Z" fill="#5a5a5a"/>
      <path d="M179.7,144.1h3.1v16.8h5.1v2.8h-8.2v-19.6h0Z" fill="#5a5a5a"/>
      <path d="M200,163.7h-3.1l-.5-3.6h-3.8l-.5,3.6h-2.8l3.1-19.6h4.5l3.1,19.6ZM193,157.5h3l-1.5-9.9-1.5,9.9Z" fill="#5a5a5a"/>
      <path d="M202.3,144.1h4.9c3.1,0,4.6,1.7,4.6,4.9v9.9c0,3.1-1.5,4.9-4.6,4.9h-4.9v-19.6h0ZM205.4,146.9v14h1.7c1,0,1.6-.5,1.6-1.9v-10.2c0-1.4-.6-1.9-1.6-1.9h-1.7Z" fill="#5a5a5a"/>
      <path d="M217.7,152.4h4.2v2.8h-4.2v5.7h5.3v2.8h-8.4v-19.6h8.4v2.8h-5.3v5.5Z" fill="#5a5a5a"/>
      <path d="M229.9,143.9c3,0,4.5,1.8,4.5,4.9v.6h-2.9v-.8c0-1.4-.6-1.9-1.5-1.9s-1.5.5-1.5,1.9c0,4,6,4.8,6,10.4s-1.6,4.9-4.6,4.9-4.6-1.8-4.6-4.9v-1.2h2.9v1.4c0,1.4.6,1.9,1.6,1.9s1.6-.5,1.6-1.9c0-4-6-4.8-6-10.4s1.5-4.9,4.5-4.9Z" fill="#5a5a5a"/>
      <path d="M239.8,157.2l-3.9-13.1h3.2l2.4,9,2.4-9h2.9l-3.9,13.1v6.5h-3.1v-6.5h0Z" fill="#5a5a5a"/>
      <path d="M252.8,143.9c3,0,4.5,1.8,4.5,4.9v.6h-2.9v-.8c0-1.4-.6-1.9-1.5-1.9s-1.5.5-1.5,1.9c0,4,6,4.8,6,10.4s-1.6,4.9-4.6,4.9-4.6-1.8-4.6-4.9v-1.2h2.9v1.4c0,1.4.6,1.9,1.6,1.9s1.6-.5,1.6-1.9c0-4-6-4.8-6-10.4s1.5-4.9,4.5-4.9h0Z" fill="#5a5a5a"/>
      <path d="M259.1,144.1h9.5v2.8h-3.2v16.8h-3.1v-16.8h-3.2v-2.8h0Z" fill="#5a5a5a"/>
      <path d="M273.9,152.4h4.2v2.8h-4.2v5.7h5.3v2.8h-8.4v-19.6h8.4v2.8h-5.3v5.5Z" fill="#5a5a5a"/>
      <path d="M288.5,158l2.1-13.9h4.3v19.6h-2.9v-14.1l-2.1,14.1h-2.9l-2.3-13.9v13.9h-2.7v-19.6h4.3l2.3,13.9h0Z" fill="#5a5a5a"/>
      <path d="M301.1,152.4h4.2v2.8h-4.2v5.7h5.3v2.8h-8.4v-19.6h8.4v2.8h-5.3v5.5Z" fill="#5a5a5a"/>
    </g>
    <g>
      <path d="M48.9,168.2c-5.7-5.7-11.4-11.5-17.1-17.1,2.3-2.3,4.6-4.7,7-7,3.3,3.3,6.7,6.7,10,10,5.8-5.8,11.5-11.5,17.2-17.2h.2v13.4c0,.5,0,.9-.5,1.3l-16.5,16.5c-5.5,5.5-.2.1-.2.2h0Z" fill="#ffd005"/>
      <g>
        <g>
          <polygon points="5.2 131.9 5.2 131.9 5.2 131.9 5.2 131.9" fill="#0098cd"/>
          <path d="M5.2,131.9h0Z" fill="#0098cd"/>
        </g>
        <path d="M43.4,169.5c-5.7-5.6-11.3-11.3-17.1-17,8-8,16-16,24.1-24h-13.5c-.5,0-.8.1-1.2.5-5.6,5.6-11.2,11.2-16.7,16.8-6.2-6.2-12.1-12.1-13.8-13.8v13.6c0,.2,0,.4.2.5,1.2,1.3,19.6,19.7,23.4,23.4H4v9.9h62.1v-9.9s-22.7,0-22.7,0Z" fill="#0099ce"/>
      </g>
    </g>
  </g>
</svg>