<?xml version="1.0" encoding="utf-8"?>
<!-- Generator: Adobe Illustrator 27.5.0, SVG Export Plug-In . SVG Version: 6.00 Build 0)  -->
<svg version="1.2" baseProfile="tiny-ps" id="Layer_1" xmlns="http://www.w3.org/2000/svg" xmlns:xlink="http://www.w3.org/1999/xlink"
	  viewBox="0 0 38 38"  xml:space="preserve">
<title>Lemonade</title>
<path fill="#FF0083" d="M6,0h25.9c3.3,0,6,2.7,6,6v26c0,3.3-2.7,6-6,6H6c-3.3,0-6-2.7-6-6V6C0,2.7,2.7,0,6,0z"/>
<path fill-rule="evenodd" fill="#FFFFFF" d="M13.9,26.8c-2.3-0.1-2.4-1.7-0.3-2.2c1.9-0.4,3.5,0.2,3.5,0.2S16.6,26.9,13.9,26.8
	L13.9,26.8z M24,10.1c1.3,0.1,1.2,1.8,0.9,2.9c-1.1,3.1-3.6,3.2-3.6,3.2S22.1,9.9,24,10.1L24,10.1z M20.5,21.4
	c0.3-1.9,0.6-3.7,0.6-3.7s4.2,0,5.7-4.6c0.8-2.7-0.3-5-2.8-5.1c-2.5,0-4.4,2-5.3,8.2c0,0-2.4-0.3-3.5-2.1c-0.5-0.8-1.3-0.4-1,0.3
	c0.8,2.7,4.4,3.1,4.4,3.1s-0.1,1.2-0.4,2.7c-0.2,1.4-0.6,3.2-0.6,3.2s-2.2-0.7-4.6-0.2c-3.7,0.7-4.1,5,0.4,5.4
	c5.3,0.5,6.3-2.9,6.3-2.9s1,0.5,2.5,1.7c1.6,1.4,2.4,2.2,2.7,1.9c0.4-0.3-0.4-1.5-2-3c-1.7-1.7-2.9-2.1-2.9-2.1S20.2,23.2,20.5,21.4
	L20.5,21.4z"/>
</svg>
