<?xml version="1.0" encoding="utf-8"?>
<!-- Generator: Adobe Illustrator 28.1.0, SVG Export Plug-In . SVG Version: 6.00 Build 0)  -->
<svg version="1.2" baseProfile="tiny-ps"
	 id="Layer_1" xmlns:svg="http://www.w3.org/2000/svg" xmlns:rdf="http://www.w3.org/1999/02/22-rdf-syntax-ns#" xmlns:dc="http://purl.org/dc/elements/1.1/" xmlns:cc="http://creativecommons.org/ns#"
	 xmlns="http://www.w3.org/2000/svg" xmlns:xlink="http://www.w3.org/1999/xlink" viewBox="0 0 1200 1200"
	 xml:space="preserve">
	 <title>IMD</title>
<rect fill="#FFFFFF" width="1200" height="1200"/>
<path fill="#005DC4" d="M92.1,407.8l-8,19.9c45.8,0,60.8,32.6,60.8,66.4v211.8c0,33.7-15.1,66.4-61,66.4l-8,19.9h204l8-19.9
	c-45.8,0-60.8-32.6-60.8-66.4V494.1c0-33.7,14.9-66.4,60.8-66.4l8-19.9L92.1,407.8L92.1,407.8z"/>
<path fill="#005DC4" d="M922.1,407.8l-8.2,20.3c73.4,10.5,112.6,68.1,112.6,156.1c0,120-78.4,177-162.8,177h-40.8V494.1
	c0-33.7,14.9-66.4,60.7-66.4l8-19.9H711.2l-98.8,244.7l-97.7-244.7H326.5l-8,19.9c45.8,0,60.7,32.6,60.7,66.4v211.8
	c0,33.7-14.9,66.4-60.8,66.4l-8,19.9h200.7l8-19.9c-45.8,0-60.8-32.6-60.8-66.4V475.3l127.5,316.9h22.6l132-326.8V706
	c0,33.1-14.6,66.4-60.8,66.4l-8,19.9h199.1c141.9,0,253.4-65.8,253.4-199.6c0-107.3-72.3-184.7-199.8-184.7h-2.2L922.1,407.8
	L922.1,407.8z"/>
</svg>
