<?xml version="1.0" encoding="utf-8"?>
<!-- Generator: Adobe Illustrator 27.5.0, SVG Export Plug-In . SVG Version: 6.00 Build 0)  -->


<svg version="1.2" baseProfile="tiny-ps" id="Layer_1" xmlns="http://www.w3.org/2000/svg" xmlns:xlink="http://www.w3.org/1999/xlink" viewBox="0 0 1080 1080" xml:space="preserve">

<title>ROIROI</title>
<g>
	<path fill="#404041" d="M355.3,486.2c-29.8,0-53.9,24.1-53.9,53.9c0,29.8,24.1,53.9,53.9,53.9c29.8,0,53.9-24.1,53.9-53.9
		C409.2,510.4,385.1,486.2,355.3,486.2z M355.3,567.1c-14.9,0-26.9-12.1-26.9-26.9c0-14.9,12.1-26.9,26.9-26.9
		c14.9,0,26.9,12.1,26.9,26.9C382.3,555,370.2,567.1,355.3,567.1z"/>
	<path fill="#404041" d="M242.5,521.4c0-19.4-14-32.9-34.1-32.9H167v104.2h24.3v-38.3h7l18.2,37.9l0.2,0.4h26.8l-21-41.9
		C235,546,242.5,535,242.5,521.4z M217.9,521.5c0,7.3-5.3,11.8-13.8,11.8h-12.8v-23.5h12.8C212.9,509.8,217.9,514,217.9,521.5z"/>
	<rect x="477.2" y="488.5" fill="#404041" width="24.6" height="104.2"/>
	<path fill="#404041" d="M766.1,486.2c-29.8,0-53.9,24.1-53.9,53.9c0,29.8,24.1,53.9,53.9,53.9c29.8,0,53.9-24.1,53.9-53.9
		C820,510.4,795.9,486.2,766.1,486.2z M766.1,567.1c-14.9,0-26.9-12.1-26.9-26.9c0-14.9,12.1-26.9,26.9-26.9
		c14.9,0,26.9,12.1,26.9,26.9C793,555,781,567.1,766.1,567.1z"/>
	<path fill="#404041" d="M653.3,521.4c0-19.4-14-32.9-34.1-32.9h-41.5v104.2h24.3v-38.3h7l18.2,37.9l0.2,0.4h26.8l-21-41.9
		C645.8,546,653.3,535,653.3,521.4z M628.6,521.5c0,7.3-5.3,11.8-13.8,11.8h-12.8v-23.5h12.8C623.6,509.8,628.6,514,628.6,521.5z"/>
	<rect x="888" y="488.5" fill="#404041" width="24.6" height="104.2"/>
</g>
</svg>
