<?xml version="1.0" encoding="UTF-8"?>
<svg id="Layer_1" xmlns="http://www.w3.org/2000/svg" baseProfile="tiny-ps" version="1.2" viewBox="0 0 131.2 131.2">
<title>Rapid Web Services</title>
  <!-- Generator: Adobe Illustrator 29.0.0, SVG Export Plug-In . SVG Version: 2.1.0 Build 186)  -->
  <path d="M64.4,24.6c4.9,0,9.4,1.8,12.9,4.8.3-1,.4-2,.4-3,0-6.6-6-11.9-13.3-11.9s-13.3,5.3-13.3,11.9,0,2,.4,3c3.5-3,8-4.8,12.9-4.8Z" fill="#53a346" fill-rule="evenodd"/>
  <path d="M64.4,26.1c-10,0-18.2,8.1-18.2,18.1s8.1,18.1,18.2,18.1,18.2-8.1,18.2-18.1c0-10-8.2-18.1-18.2-18.1ZM68.1,53.3h-7.1l1.3-10.4c-1.3-.8-2.3-2.2-2.3-3.9,0-2.5,2-4.5,4.4-4.5s4.4,2,4.4,4.5-1,3.2-2.4,4l1.7,10.3Z" fill="#28316c"/>
  <path d="M77.1,59.3c-3.4,2.8-7.8,4.6-12.6,4.6s-9.2-1.7-12.6-4.6c-4.3.8-7.1,1.9-7.1,3.1,0,2.3,8.8,4.1,19.6,4.1s19.6-1.8,19.6-4.1-2.7-2.4-6.9-3.1Z" fill="#d6d4d5"/>
  <path d="M9.4,88.1v-3.2c1.9.7,4.1,1,6.6,1s2.8-.5,2.8-1.6-.6-1.5-1.9-1.5h-3.1c-3.5,0-5.2-1.6-5.2-4.7s2.5-4.8,7.6-4.8,4.2.3,6.1.9v3.2c-1.9-.7-4-1-6.2-1s-3.5.5-3.5,1.6.7,1.5,2,1.5h2.8c3.8,0,5.7,1.6,5.7,4.7s-2.4,4.8-7.2,4.8-4.6-.3-6.5-.9Z" fill="#53a346"/>
  <path d="M26.1,88.1v-3.2c1.9.7,4.1,1,6.6,1s2.8-.5,2.8-1.6-.6-1.5-1.9-1.5h-3.1c-3.5,0-5.2-1.6-5.2-4.7s2.5-4.8,7.6-4.8,4.2.3,6.1.9v3.2c-1.9-.7-3.9-1-6.2-1s-3.5.5-3.5,1.6.7,1.5,2,1.5h2.7c3.8,0,5.7,1.6,5.7,4.7s-2.4,4.8-7.2,4.8-4.5-.3-6.4-.9Z" fill="#53a346"/>
  <path d="M47,67.9v20.9h-4.3v-20.9h4.3Z" fill="#53a346"/>
  <path d="M51.1,88.1v-3.2c1.9.7,4.1,1,6.6,1s2.8-.5,2.8-1.6-.6-1.5-1.9-1.5h-3.1c-3.5,0-5.2-1.6-5.2-4.7s2.5-4.8,7.6-4.8,4.2.3,6.1.9v3.2c-1.9-.7-4-1-6.2-1s-3.5.5-3.5,1.6.7,1.5,2,1.5h2.7c3.8,0,5.7,1.6,5.7,4.7s-2.4,4.8-7.2,4.8-4.5-.3-6.4-.9Z" fill="#28316c"/>
  <path d="M66.9,71h3.1l.7,2.5h4v3.1h-3.5v7.1c0,1.4.7,2.2,2.1,2.2h1.4v3.1h-3.5c-2.9,0-4.3-1.4-4.3-4.1,0,0,0-13.9,0-13.9Z" fill="#28316c"/>
  <path d="M76,81.2c0-5.2,2.9-7.8,8.6-7.8s8.6,2.6,8.6,7.8-2.9,7.8-8.6,7.8-8.6-2.6-8.6-7.8ZM84.6,85.9c2.9,0,4.3-1.6,4.3-4.8s-1.4-4.7-4.3-4.7-4.3,1.6-4.3,4.7c0,3.2,1.5,4.8,4.3,4.8Z" fill="#28316c"/>
  <path d="M95.4,88.9v-15.4h3.3l.5,2c1.5-1.3,3.1-2,4.7-2v3.1c-1.6,0-3,.6-4.3,1.9v10.3h-4.2Z" fill="#28316c"/>
  <path d="M120,82.7h-11.2c0,2.1,1.9,3.1,5.6,3.1s3.4,0,5.2-.4v3.1c-1.5.3-3.4.4-5.8.4-6.2,0-9.3-2.6-9.3-7.9s2.8-7.5,8.5-7.5c5.7,0,8,3,7,9.2ZM108.9,79.8h7.1c.2-2.2-1-3.3-3.4-3.3s-3.6,1.1-3.7,3.3Z" fill="#28316c"/>
  <g>
    <path d="M120.3,75.2v-1.4h-.5v-.2h1.2v.2h-.5v1.4h-.2Z" fill="#28316c"/>
    <path d="M121.3,75.2v-1.6h.3l.4,1.1c0,0,0,.2,0,.2q0,0,0-.3l.4-1.1h.3v1.6h-.2v-1.3l-.5,1.3h-.2l-.5-1.3v1.3h-.2Z" fill="#28316c"/>
  </g>
</svg>