<?xml version="1.0" encoding="UTF-8" standalone="no"?>
<svg
   width="96"
   height="96"
   viewBox="0 0 96 96"
   fill="none"
   version="1.2"
   baseProfile="tiny-ps"
   id="svg15"
   xmlns:inkscape="http://www.inkscape.org/namespaces/inkscape"
   xmlns:sodipodi="http://sodipodi.sourceforge.net/DTD/sodipodi-0.dtd"
   xmlns="http://www.w3.org/2000/svg"
   xmlns:svg="http://www.w3.org/2000/svg">
   <title>AlphaSights Ltd</title>
  <path
     d="M76.8012 40.9944C76.8012 32.0997 75.7786 19.2 54.1135 19.2C40.4875 19.2 37.7079 25.4637 37.7079 30.3261C37.7079 30.4552 37.7079 30.5805 37.7079 30.7176C37.7079 31.0348 37.7079 31.344 37.7079 31.6533C37.6013 40.7359 36.6576 45.3751 46.4734 45.3751H53.8963C59.9256 45.5551 63.7675 49.4935 63.7675 57.1432V61.6924C63.7675 70.0507 62.4763 72.6307 62.1367 73.1671C62.1307 73.1772 62.1276 73.1889 62.1279 73.2007C62.1283 73.2124 62.1319 73.224 62.1384 73.2338C62.1451 73.2436 62.1545 73.2513 62.1653 73.2561C62.1761 73.2609 62.1881 73.2626 62.1999 73.2609C63.1356 73.0927 65.4099 72.0199 67.7278 70.3953C68.3895 69.978 69.0118 69.5025 69.5873 68.9743C70.4391 68.2552 71.2313 67.4697 71.9563 66.6252C74.6374 63.4934 76.7813 56.3683 76.7813 46.295V43.6526C76.7933 42.8148 76.8012 41.926 76.8012 40.9944Z"
     fill="url(#paint0_linear_2570_20889)"
     id="path2" />
  <path
     d="M19.2007 55.0056C19.2007 63.9002 20.2233 76.8 41.8843 76.8C55.5103 76.8 58.29 70.536 58.29 65.6738C58.29 65.5445 58.29 65.4192 58.29 65.2822C58.29 64.9613 58.29 64.6519 58.29 64.3428C58.3927 55.26 59.3364 50.6405 49.5244 50.6405H42.1094C36.0842 50.4605 32.2384 46.5259 32.2384 38.8723V34.3152C32.2384 25.957 33.5256 23.377 33.8652 22.8406C33.8712 22.8305 33.8743 22.8189 33.874 22.8071C33.8736 22.7953 33.87 22.7838 33.8632 22.774C33.8568 22.7642 33.8474 22.7564 33.8366 22.7516C33.8258 22.7467 33.8138 22.7451 33.802 22.7467C32.8663 22.915 30.5959 23.9916 28.2741 25.6123C27.6148 26.0294 26.9964 26.5066 26.4264 27.0374C25.5736 27.7555 24.7814 28.541 24.0573 29.3863C21.3802 32.5183 19.2362 39.6434 19.2362 49.7165V52.3747C19.2086 53.1852 19.1967 54.0739 19.2007 55.0056Z"
     fill="#001D3A"
     id="path4" />
  <defs
     id="defs13">
    <linearGradient
       id="paint0_linear_2570_20889"
       x1="40.8"
       y1="21.6"
       x2="66"
       y2="74.3999"
       gradientUnits="userSpaceOnUse">
      <stop
         stop-color="#E8236A"
         id="stop6" />
      <stop
         offset="0.3125"
         stop-color="#FD3001"
         id="stop8" />
      <stop
         offset="1"
         stop-color="#FC8300"
         id="stop10" />
    </linearGradient>
  </defs>
</svg>
