<?xml version="1.0" encoding="utf-8"?>
<!-- Generator: Adobe Illustrator 28.0.0, SVG Export Plug-In . SVG Version: 6.00 Build 0)  -->
<svg version="1.2" baseProfile="tiny-ps" id="Layer_2_00000180360117578241682310000011023987581090359961_"
	 xmlns="http://www.w3.org/2000/svg" xmlns:xlink="http://www.w3.org/1999/xlink" viewBox="0 0 250 250" xml:space="preserve">
	<title>Adtraction</title>
    <desc>Adtraction logotype</desc>
<g id="LogoFilled">
	<path id="FillCircle" fill-rule="evenodd" fill="#FFFFFF" d="M186.2,165.8c-6.3,11.3-20.6,15.4-31.9,9.1
		c-11.3-6.3-15.4-20.5-9.1-31.9c6.3-11.3,20.6-15.4,31.9-9.1C188.4,140.2,192.5,154.5,186.2,165.8z"/>
	<path id="FillBar" fill-rule="evenodd" fill="#FFFFFF" d="M143.8,97.4l-38,68.4c-6.3,11.3-20.6,15.4-31.9,9
		c-11.3-6.3-15.4-20.5-9.1-31.8l38-68.4c6.3-11.3,20.6-15.4,31.9-9.1C146,71.9,150,86.1,143.8,97.4L143.8,97.4z"/>
	<path id="Design" fill-rule="evenodd" fill="#0D1E79" d="M250,123C248.9,54,192.1-1.1,123,0S-1.1,57.9,0,127
		c1.1,69,57.9,124.1,127,123C196,248.9,251.1,192.1,250,123L250,123z M64.7,143l38-68.4c6.3-11.3,20.6-15.4,31.9-9.1
		c11.3,6.3,15.4,20.5,9.1,31.8l-38,68.4c-6.3,11.3-20.6,15.4-31.9,9C62.5,168.5,58.5,154.3,64.7,143L64.7,143z M186.2,165.8
		c-6.3,11.3-20.6,15.4-31.9,9.1c-11.3-6.3-15.4-20.5-9.1-31.9c6.3-11.3,20.6-15.4,31.9-9.1C188.4,140.2,192.5,154.5,186.2,165.8z"/>
</g>
</svg>
