<?xml version="1.0" encoding="UTF-8"?>
<svg viewBox="0 0 700 700" xmlns:v="https://vecta.io/nano" version="1.2" baseProfile="tiny-ps" xmlns="http://www.w3.org/2000/svg">
  <title>RAIZ Invest</title>
  <path d="M0 0h700v700H0z" fill="#221c35"/>
  <linearGradient id="A" gradientUnits="userSpaceOnUse" x1="324.011" y1="365.904" x2="577.142" y2="112.773">
    <stop offset=".284" stop-color="#07c371"/>
    <stop offset=".311" stop-color="#16ca75"/>
    <stop offset=".377" stop-color="#35d87e"/>
    <stop offset=".442" stop-color="#4be385"/>
    <stop offset=".503" stop-color="#58e989"/>
    <stop offset=".559" stop-color="#5deb8a"/>
    <stop offset=".612" stop-color="#61eb88"/>
    <stop offset=".67" stop-color="#6eed82"/>
    <stop offset=".73" stop-color="#84ef79"/>
    <stop offset=".791" stop-color="#a2f36c"/>
    <stop offset=".854" stop-color="#c9f75b"/>
    <stop offset=".916" stop-color="#f8fc47"/>
    <stop offset=".924" stop-color="#fffd44"/>
  </linearGradient>
  <path d="M493.9 196v263.9l22-21.9-.1-264H251.9l-22 22z" fill="url(#A)"/>
  <linearGradient id="B" gradientUnits="userSpaceOnUse" x1="268.001" y1="421.913" x2="553.697" y2="136.217">
    <stop offset=".036" stop-color="#ffd400"/>
    <stop offset=".052" stop-color="#f7d204"/>
    <stop offset=".076" stop-color="#e3ce0e"/>
    <stop offset=".105" stop-color="#c1c81f"/>
    <stop offset=".138" stop-color="#91be37"/>
    <stop offset=".174" stop-color="#55b256"/>
    <stop offset=".213" stop-color="#0ca37b"/>
    <stop offset=".217" stop-color="#05a27e"/>
    <stop offset=".329" stop-color="#06af7b"/>
    <stop offset=".536" stop-color="#07d172"/>
    <stop offset=".559" stop-color="#07d571"/>
    <stop offset=".673" stop-color="#11de66"/>
    <stop offset=".875" stop-color="#2df748"/>
    <stop offset=".917" stop-color="#33fd41"/>
  </linearGradient>
  <path d="M461 493l32.9-33.1V196h-264L197 228.9h264z" fill="url(#B)"/>
  <linearGradient id="C" gradientUnits="userSpaceOnUse" x1="598.446" y1="91.469" x2="268.604" y2="421.31">
    <stop offset=".196" stop-color="#3ed3ac"/>
    <stop offset=".359" stop-color="#a3e16f"/>
    <stop offset=".477" stop-color="#e5ea47"/>
    <stop offset=".532" stop-color="#ffee37"/>
    <stop offset=".612" stop-color="#ffde27"/>
    <stop offset=".759" stop-color="#ffb600"/>
  </linearGradient>
  <path d="M417 537l44-44V228.9H197l-44 44h264z" fill="url(#C)"/>
  <linearGradient id="D" gradientUnits="userSpaceOnUse" x1="612.143" y1="77.772" x2="279.009" y2="410.905">
    <stop offset=".196" stop-color="#3ed3ac"/>
    <stop offset=".221" stop-color="#4ed4a2"/>
    <stop offset=".371" stop-color="#a9da6a"/>
    <stop offset=".476" stop-color="#e3de46"/>
    <stop offset=".526" stop-color="#f9df38"/>
    <stop offset=".614" stop-color="#f6b833"/>
    <stop offset=".719" stop-color="#f48f2e"/>
    <stop offset=".816" stop-color="#f2722b"/>
    <stop offset=".899" stop-color="#f06029"/>
    <stop offset=".959" stop-color="#f05a28"/>
  </linearGradient>
  <path d="M417 272.9H153l66 66.1 131.9-.1v132L417 537z" fill="url(#D)"/>
  <path d="M477.5 537c-2.3 0-4.4-.4-6.4-1.3s-3.7-2-5.2-3.5-2.7-3.2-3.5-5.2c-.9-2-1.3-4.1-1.3-6.4s.4-4.4 1.3-6.4 2-3.7 3.5-5.2 3.2-2.6 5.2-3.5 4.1-1.3 6.4-1.3 4.4.4 6.4 1.3 3.7 2 5.2 3.5 2.7 3.2 3.5 5.2c.9 2 1.3 4.1 1.3 6.4s-.4 4.4-1.3 6.4-2 3.7-3.5 5.2-3.2 2.7-5.2 3.5-4.2 1.3-6.4 1.3zm0-2.2c2 0 3.8-.4 5.5-1.1s3.1-1.8 4.4-3c1.2-1.3 2.2-2.8 2.9-4.5s1-3.6 1-5.6-.3-3.9-1-5.6-1.7-3.2-2.9-4.5-2.7-2.3-4.4-3-3.5-1.1-5.5-1.1-3.9.4-5.6 1.1-3.2 1.7-4.4 3-2.2 2.8-2.9 4.5-1 3.6-1 5.6.3 3.9 1 5.6 1.7 3.3 2.9 4.5c1.2 1.3 2.7 2.3 4.4 3s3.6 1.1 5.6 1.1zm8.2-5.1H483l-5.3-8.5h-4.1v8.5h-2.3v-18.4h8c2.4 0 4.1.4 5.1 1.3s1.4 2.1 1.4 3.6c0 .9-.1 1.7-.4 2.3s-.7 1.2-1.2 1.5c-.5.4-1.1.7-1.8.9s-1.5.3-2.3.3l5.6 8.5zm-8.7-10.3h2.1c.8 0 1.5-.1 2.1-.3.7-.2 1.2-.5 1.6-1s.6-1.2.6-2.1c0-.7-.1-1.3-.4-1.7s-.6-.7-1.1-1c-.4-.2-.9-.4-1.5-.4-.6-.1-1.1-.1-1.7-.1h-5.3v6.5h3.6z" fill="#3ed3ac"/>
</svg>