<?xml version="1.0" encoding="UTF-8"?>
<svg xmlns="http://www.w3.org/2000/svg" baseProfile="tiny-ps" version="1.2" viewBox="0 0 261.8 27.7">
<title>DASH SOCIAL</title>
  <!-- Generator: Adobe Illustrator 28.7.3, SVG Export Plug-In . SVG Version: 1.2.0 Build 164)  -->
  <g>
    <g id="Layer_1">
      <g>
        <path d="M0,27.1v-.7h1c1.1,0,1.9-.4,2.4-1.1.3-.4.4-1.4.4-2.9V5.3c0-1.7-.2-2.7-.5-3.1-.5-.6-1.3-.9-2.3-.9h-1v-.7h10.8c4,0,7,.4,9,1.3,2.1.9,3.7,2.4,5,4.5,1.3,2.1,1.9,4.5,1.9,7.3s-1.1,6.8-3.4,9.2c-2.5,2.8-6.3,4.1-11.5,4.1H0ZM7.6,25.2c1.7.4,3,.5,4.2.5,3,0,5.5-1.1,7.5-3.2s3-5,3-8.6-1-6.5-3-8.7-4.6-3.2-7.7-3.2-2.5.2-4,.6v22.5Z"/>
        <path d="M46.5,18.2h-10.3l-1.8,4.2c-.4,1-.7,1.8-.7,2.3s.2.8.6,1.1c.4.3,1.2.5,2.5.6v.7h-8.3v-.7c1.1-.2,1.8-.4,2.1-.8.7-.6,1.4-1.9,2.2-3.8L42.2,0h.7l9.2,22c.7,1.8,1.4,2.9,2,3.4s1.4.8,2.5.9v.7h-10.4v-.7c1.1,0,1.8-.2,2.1-.5s.6-.7.6-1.1-.3-1.5-.8-2.7l-1.6-3.8ZM46,16.8l-4.5-10.7-4.6,10.7h9.1Z"/>
        <path d="M75.4,0v9.2h-.7c-.2-1.8-.7-3.2-1.3-4.2s-1.5-1.9-2.6-2.5c-1.1-.6-2.3-.9-3.5-.9s-2.5.4-3.4,1.2c-.9.8-1.3,1.8-1.3,2.8s.3,1.5.8,2.2c.8,1,2.7,2.3,5.8,3.9,2.5,1.3,4.2,2.3,5.1,3.1.9.7,1.6,1.5,2.1,2.5s.7,2,.7,3c0,2-.8,3.7-2.3,5.2-1.6,1.5-3.6,2.2-6,2.2s-1.5,0-2.2-.2c-.4,0-1.2-.3-2.5-.7s-2.1-.6-2.4-.6-.6,0-.8.3c-.2.2-.3.6-.4,1.2h-.7v-9.1h.7c.3,1.9.8,3.3,1.4,4.3.6.9,1.4,1.7,2.6,2.4,1.2.6,2.5.9,3.9.9s2.9-.4,3.9-1.3c.9-.9,1.4-1.9,1.4-3s-.2-1.3-.5-2c-.4-.7-.9-1.3-1.7-1.9-.5-.4-1.9-1.2-4.2-2.5s-3.9-2.3-4.8-3-1.7-1.6-2.2-2.5c-.5-.9-.7-1.9-.7-3,0-1.9.7-3.5,2.2-4.9,1.5-1.4,3.3-2.1,5.6-2.1s2.9.3,4.5,1c.7.3,1.2.5,1.5.5s.6-.1.8-.3.4-.6.5-1.2h.7Z"/>
        <path d="M87.6,12.9h12.3v-7.6c0-1.4,0-2.2-.3-2.7-.1-.3-.4-.6-.8-.8-.6-.3-1.2-.5-1.8-.5h-.9v-.7h11.3v.7h-.9c-.6,0-1.2.1-1.8.4-.4.2-.7.5-.8.9-.1.4-.2,1.3-.2,2.6v17.1c0,1.3,0,2.2.3,2.7.1.3.4.6.8.8.6.3,1.2.5,1.8.5h.9v.7h-11.3v-.7h.9c1.1,0,1.9-.3,2.4-1,.3-.4.5-1.4.5-3v-8.1h-12.3v8.1c0,1.3,0,2.2.3,2.7.1.3.4.6.8.8.6.3,1.2.5,1.8.5h1v.7h-11.3v-.7h.9c1.1,0,1.9-.3,2.4-1,.3-.4.5-1.4.5-3V5.3c0-1.4,0-2.2-.3-2.7-.1-.3-.4-.6-.8-.8-.6-.3-1.2-.5-1.8-.5h-.9v-.7h11.3v.7h-1c-.6,0-1.2.1-1.8.4-.4.2-.7.5-.8.9s-.2,1.3-.2,2.6v7.6Z"/>
        <path d="M136.6,0v9.2h-.7c-.2-1.8-.7-3.2-1.3-4.2s-1.5-1.9-2.6-2.5c-1.1-.6-2.3-.9-3.5-.9s-2.5.4-3.4,1.2c-.9.8-1.3,1.8-1.3,2.8s.3,1.5.8,2.2c.8,1,2.7,2.3,5.8,3.9,2.5,1.3,4.2,2.3,5.1,3.1.9.7,1.6,1.5,2.1,2.5s.7,2,.7,3c0,2-.8,3.7-2.3,5.2-1.6,1.5-3.6,2.2-6,2.2s-1.5,0-2.2-.2c-.4,0-1.2-.3-2.5-.7s-2.1-.6-2.4-.6-.6,0-.8.3c-.2.2-.3.6-.4,1.2h-.7v-9.1h.7c.3,1.9.8,3.3,1.4,4.3.6.9,1.4,1.7,2.6,2.4,1.2.6,2.5.9,3.9.9s2.9-.4,3.9-1.3c.9-.9,1.4-1.9,1.4-3s-.2-1.3-.5-2c-.4-.7-.9-1.3-1.7-1.9-.5-.4-1.9-1.2-4.2-2.5s-3.9-2.3-4.8-3-1.7-1.6-2.2-2.5c-.5-.9-.7-1.9-.7-3,0-1.9.7-3.5,2.2-4.9,1.5-1.4,3.3-2.1,5.6-2.1s2.9.3,4.5,1c.7.3,1.2.5,1.5.5s.6-.1.8-.3.4-.6.5-1.2h.7Z"/>
        <path d="M155.1,0c3.4,0,6.4,1.3,8.9,3.9s3.8,5.9,3.8,9.8-1.3,7.4-3.8,10-5.6,4-9.2,4-6.7-1.3-9.2-3.9-3.7-5.9-3.7-10.1,1.4-7.6,4.3-10.3c2.5-2.3,5.5-3.5,8.9-3.5ZM154.7,1.4c-2.4,0-4.3.9-5.7,2.6-1.8,2.2-2.7,5.4-2.7,9.6s.9,7.6,2.8,10c1.4,1.8,3.3,2.7,5.6,2.7s4.5-1,6.2-2.9,2.4-5,2.4-9.2-.9-7.9-2.7-10.1c-1.4-1.8-3.4-2.7-5.9-2.7Z"/>
        <path d="M193.4,0l.6,9h-.6c-.8-2.7-2-4.6-3.5-5.8-1.5-1.2-3.3-1.8-5.4-1.8s-3.3.4-4.8,1.3c-1.4.9-2.5,2.3-3.3,4.3-.8,2-1.2,4.4-1.2,7.3s.4,4.5,1.2,6.2c.8,1.8,1.9,3.1,3.5,4s3.3,1.4,5.3,1.4,3.2-.4,4.6-1.1c1.3-.7,2.8-2.2,4.3-4.4l.6.4c-1.3,2.4-2.9,4.1-4.6,5.2-1.8,1.1-3.9,1.6-6.3,1.6-4.4,0-7.8-1.6-10.2-4.9-1.8-2.4-2.7-5.3-2.7-8.6s.6-5.1,1.8-7.3c1.2-2.2,2.8-3.9,4.9-5.1,2.1-1.2,4.3-1.8,6.8-1.8s3.8.5,5.7,1.4c.5.3.9.4,1.2.4.4,0,.7-.1.9-.4.3-.4.6-.8.7-1.5h.7Z"/>
        <path d="M208.4,26.4v.7h-11.3v-.7h.9c1.1,0,1.9-.3,2.4-1,.3-.4.5-1.4.5-3V5.3c0-1.3,0-2.2-.3-2.7-.1-.3-.4-.6-.8-.8-.6-.3-1.2-.5-1.8-.5h-.9v-.7h11.3v.7h-1c-1.1,0-1.9.3-2.4,1-.3.4-.5,1.4-.5,3v17.1c0,1.3,0,2.2.3,2.7.1.3.4.6.8.8.6.3,1.2.5,1.8.5h1Z"/>
        <path d="M227.7,18.2h-10.3l-1.8,4.2c-.4,1-.7,1.8-.7,2.3s.2.8.6,1.1c.4.3,1.2.5,2.5.6v.7h-8.3v-.7c1.1-.2,1.8-.4,2.1-.8.7-.6,1.4-1.9,2.2-3.8L223.3,0h.7l9.2,22c.7,1.8,1.4,2.9,2,3.4s1.4.8,2.5.9v.7h-10.4v-.7c1.1,0,1.8-.2,2.1-.5s.6-.7.6-1.1-.3-1.5-.8-2.7l-1.6-3.8ZM227.1,16.8l-4.5-10.7-4.6,10.7h9.1Z"/>
        <path d="M261.2,19.8h.6c0,.1-2.3,7.3-2.3,7.3h-20.5v-.7h1c1.1,0,1.9-.4,2.4-1.1.3-.4.4-1.4.4-2.9V5.3c0-1.7-.2-2.7-.5-3.1-.5-.6-1.3-.9-2.3-.9h-1v-.7h12v.7c-1.4,0-2.4.1-3,.4s-1,.6-1.2,1c-.2.4-.3,1.4-.3,3v16.6c0,1.1.1,1.8.3,2.2.2.3.4.5.7.6.3.1,1.3.2,3,.2h1.9c2,0,3.5-.1,4.3-.4s1.6-.8,2.2-1.6c.7-.8,1.4-2,2-3.6Z"/>
      </g>
    </g>
  </g>
</svg>