<?xml version="1.0" encoding="UTF-8"?>
<svg xmlns="http://www.w3.org/2000/svg" baseProfile="tiny-ps" version="1.2" viewBox="0 0 512 512">
  <title>Curative</title>
  <rect x="0" y="0" width="512.00001" height="512" fill="#fff"/>
  <path d="M281.25699,78.88368h0" fill="#2c90ed" fill-rule="evenodd"/>
  <path d="M312.47648,301.29724c-5.27569,5.27802-11.22394,9.78343-17.76563,13.37891-15.68978,8.62217-39.8342,8.43832-56.14766,1.42655-52.62432-22.61313-52.11001-97.92504.11869-120.66848,8.26844-3.60014,17.05119-5.23148,26.05036-5.23148,18.86871,0,33.28321,5.05462,46.83432,18.15659,1.92923,1.86406,2.01532,4.93826.19083,6.90705l-11.23559,12.12689c-1.83614,1.98274-4.94291,2.11539-6.94196.29787-8.84326-8.0334-16.77425-12.28514-29.08499-12.28514-22.20819,0-36.16192,19.55755-36.16192,40.42063,0,21.66828,15.0312,40.42064,37.58847,40.42064,11.98959,0,20.52798-4.80561,29.24091-12.53182,1.94784-1.72675,4.88706-1.64996,6.74182.17686l10.54441,10.39315c1.93621,1.90828,1.94551,5.08486.0256,7.00712h0l.00233.00467Z" fill="#231f20" fill-rule="evenodd"/>
  <path d="M259.787,91.76806c43.75548,0,83.45934,17.5236,112.64905,46.00585-26.90209-22.96918-62.34957-36.83214-102.62825-36.83214-90.15927,0-156.15086,69.42184-156.15086,155.05708s69.91055,155.05708,156.15086,155.05708c44.92837,0,85.4165-18.84776,113.90574-49.00791-29.77384,35.58478-74.23676,58.18393-123.92652,58.18393-89.64496,0-162.31554-73.5293-162.31554-164.2308s72.67056-164.23309,162.31552-164.23309" fill="#2c90ed" fill-rule="evenodd"/>
  <path d="M267.99494,386.24131c-73.08248-3.29528-131.5736-63.35025-133.44232-137.65218-.54689,4.74278-.83546,9.56235-.83546,14.45173,0,68.36531,54.77463,123.78689,122.34403,123.78689,4.02601,0,8.00547-.20248,11.93373-.58644h.00002Z" fill="#2c90ed" fill-rule="evenodd"/>
  <path d="M260.24778,153.9361c-56.68524,0-102.63756,46.33165-102.63756,103.68479s45.95232,103.85001,102.63756,103.85001c34.09539,0,62.85457-15.31744,81.17872-39.21051-17.80519,18.97575-43.32726,30.80244-72.77763,30.80244-54.88866,0-99.38418-44.40476-99.38418-99.17705s46.07565-99.33996,99.54708-99.33996c1.01464,0,2.02465.02094,3.03231.04887-3.80726-.43286-7.67735-.66092-11.59862-.66092h0l.00233.00232Z" fill="#2c90ed" fill-rule="evenodd"/>
  <path d="M266.57071,121.27426c-37.36971,0-70.91821,16.33906-93.90834,42.25445,24.0676-21.42162,55.77531-34.44213,90.5293-34.44213,52.39858,0,97.88082,29.58998,120.66849,72.96845-18.01697-47.22994-63.72959-80.7831-117.28943-80.7831l-.00002.00233Z" fill="#2c90ed" fill-rule="evenodd"/>
</svg>
