<?xml version="1.0" encoding="UTF-8"?>
<svg id="Group_1161" xmlns="http://www.w3.org/2000/svg" baseProfile="tiny-ps" version="1.2" viewBox="0 0 500 500">
	<title>JDC</title>
	<g>
		<rect x="5" y="5" width="490" height="490" rx="15.8" ry="15.8" fill="#00b6dc" stroke-width="0" />
		<path d="M479.2,10c6,0,10.8,4.9,10.8,10.8v458.3c0,6-4.9,10.8-10.8,10.8H20.8c-6,0-10.8-4.9-10.8-10.8V20.8c0-6,4.9-10.8,10.8-10.8h458.3M479.2,0H20.8C9.4,0,0,9.4,0,20.8v458.3c0,11.5,9.4,20.8,20.8,20.8h458.3c11.5,0,20.8-9.4,20.8-20.8V20.8c0-11.5-9.4-20.8-20.8-20.8h0Z" fill="#00c1de" stroke-width="0" />
	</g>
	<g id="Layer_2">
		<g id="Layer_1">
			<rect id="Rectangle_14" x="212.9" y="365.8" width="72.9" height="15" fill="#fff" stroke-width="0" />
			<rect id="Rectangle_15" x="194.7" y="391.9" width="109.4" height="15" fill="#fff" stroke-width="0" />
			<rect id="Rectangle_16" x="167.3" y="417.9" width="164" height="15" fill="#fff" stroke-width="0" />
			<path id="Path_38" d="M249.6,337c-63.4,0-117.5-45.8-128-108.4h-17.5c11.8,80.3,86.6,135.9,166.9,124,64.2-9.5,114.6-59.9,124.1-124.1h-17.5c-10.5,62.5-64.6,108.4-128,108.4" fill="#fff" stroke-width="0" />
			<path id="Path_39" d="M261.1,108.9c0,17.5-5.2,25.9-11.5,25.9s-11.5-8.1-11.5-25.9,11.6-41.9,11.6-41.9c0,0,11.5,18.7,11.5,41.9" fill="#fff" stroke-width="0" />
			<path id="Path_40" d="M125.7,187.1c0,17.6-5.2,25.9-11.5,25.9s-11.5-8.1-11.5-25.9,11.5-41.9,11.5-41.9c0,0,11.5,18.7,11.5,41.9" fill="#fff" stroke-width="0" />
			<path id="Path_41" d="M396.5,186.8c0,17.6-5.1,25.9-11.5,25.9s-11.5-8.1-11.5-25.9,11.5-41.9,11.5-41.9c0,0,11.5,18.8,11.5,41.9" fill="#fff" stroke-width="0" />
			<path id="Path_42" d="M238.5,266.6h8.2c12.7,0,15.1-6.7,15.1-28v-42.6c0-18.4-1.9-24.5-16.5-24.5h-6.9v95.1ZM221.4,157.2h27.6c27.8,0,30,9.3,30,45.3v36.9c0,31.8-5.6,41.7-32.8,41.7h-25v-123.9Z" fill="#fff" stroke-width="0" />
			<path id="Path_43" d="M293.4,188.7c0-17.3,5.6-32.6,29-32.6s24.9,8.6,24.9,22.5v12.4h-16.1v-8.6c0-7.9-2.7-12.9-9.9-12.9s-10.6,6.3-10.6,21.3v60.8c0,14.6,4.6,17.2,10.1,17.2s10.5-4.5,10.5-14.8v-8.6h16.1v13.7c0,13-5.3,23-25.2,23s-28.7-11.5-28.7-30.7v-62.6Z" fill="#fff" stroke-width="0" />
			<path id="Path_44" d="M205.1,157.2h-17.2v94.4c0,14.6-4.6,17.2-10.1,17.2s-10.4-4.5-10.4-14.8v-8.6h-16.1v13.7c0,13,5.3,23,25.2,23s28.7-11.5,28.7-30.7v-94.2h0Z" fill="#fff" stroke-width="0" />
		</g>
	</g>
</svg>
