<?xml version="1.0" encoding="UTF-8"?><svg xmlns:xlink="http://www.w3.org/1999/xlink" xmlns="http://www.w3.org/2000/svg" version="1.2" viewBox="0.0 0.0 600.0 600.0" fill="none" stroke="none" stroke-linecap="square" stroke-miterlimit="10" baseProfile="tiny-ps"><title>Vardot</title><g><path fill="#008ecf" d="m0 0l600.0 0l0 600.0l-600.0 0z" fill-rule="evenodd"></path><path fill="#ffffff" d="m44.189587 280.93103l32.10059 88.17615l21.7827 0l31.56099 -88.17615l-20.096169 0l-21.514038 67.70743l-0.3364029 0l-22.356163 -67.70743z" fill-rule="evenodd"></path><path fill="#ffffff" d="m188.97864 324.93442l0 14.499237c0 12.273071 -13.318436 16.725342 -21.814316 16.725342c-6.8454742 0 -17.906158 -2.4293213 -17.906158 -11.261597c0 -10.252411 7.486679 -13.320709 15.84935 -14.668579c8.699081 -1.5510559 17.9039 -1.3501282 23.871124 -5.294403zm-15.847107 -46.362732c-19.624298 0 -38.709 6.642273 -40.092987 29.300964l19.457214 0c0.8421478 -9.543457 8.529755 -13.959595 19.421112 -13.959595c7.689865 0 18.242554 1.6865234 18.242554 11.936676c0 11.600281 -12.273087 9.710541 -26.435898 12.442413c-16.352844 1.8874817 -33.920334 5.461487 -33.920334 27.447388c0 17.23108 14.329895 25.760834 30.176987 25.760834c10.419479 0 22.861908 -3.2376099 30.517914 -10.722015c1.5510712 7.990143 7.0125427 10.722015 15.038818 10.722015c3.2014923 0 9.371902 -1.1807861 12.273102 -2.1922607l0 -13.487762c-0.9098816 0.16934204 -1.8220062 0.27093506 -2.7318726 0.33865356l-2.0568085 0c-3.5740051 0 -4.619339 -1.8897095 -4.619339 -6.6761475l0 -45.353516c0 -18.57898 -18.073227 -25.557648 -35.270462 -25.557648z" fill-rule="evenodd"></path><path fill="#ffffff" d="m266.90463 278.5717c-11.7673645 0 -23.534714 10.046936 -25.760849 19.421082l-0.33866882 0l0 -17.061737l-18.240295 0l0 88.17615l19.454956 0l0 -41.946625c0 -19.624298 10.722031 -30.17923 23.873383 -30.17923c2.799591 0.033843994 5.5969543 0.30252075 8.362671 0.84213257l0 -18.746033c-1.8558655 -0.16934204 -2.7318726 -0.5057373 -7.3511963 -0.5057373z" fill-rule="evenodd"></path><path fill="#ffffff" d="m310.032 285.04462c22.523254 0 32.57248 19.962982 32.57248 40.39554c0 20.130035 -10.216309 40.092987 -32.37152 40.092987c-22.523254 0 -32.739532 -19.457214 -32.739532 -40.092987c0 -21.14151 9.3741455 -40.39554 32.538574 -40.39554zm32.74179 -37.697525l0 53.713974l-0.33865356 0c-4.5854797 -13.790314 -18.073242 -21.647247 -32.403137 -21.647247c-26.402039 0 -39.047638 20.130035 -39.047638 46.026337c0 24.042694 11.430939 45.723816 37.86685 45.723816c15.680023 0 26.266571 -7.014801 33.583923 -20.805115l0.33865356 0l0 18.748322l6.506836 0l0 -121.760086z" fill-rule="evenodd"></path><path fill="#ffffff" d="m399.21964 285.04462c21.850433 0 33.78711 19.254028 33.78711 40.226227c0 20.974426 -11.936676 40.2623 -33.78711 40.2623c-21.816559 0 -33.753265 -19.287872 -33.753265 -40.2623c0 -20.972198 11.936707 -40.226227 33.753265 -40.226227zm0 -5.6307983c-25.896301 0 -40.228455 20.972168 -40.228455 45.857025c0 25.088013 14.332153 45.893127 40.228455 45.893127c25.930176 0 40.26007 -20.805115 40.26007 -45.893127c0 -24.884857 -14.329895 -45.857025 -40.26007 -45.857025z" fill-rule="evenodd"></path><path fill="#ffffff" d="m454.48468 254.1587l0 27.311905l-16.18576 0l0 5.5969543l16.18576 0l0 61.234497c-0.74279785 17.470428 9.518616 20.965393 20.841217 20.965393c1.5059204 0 3.0298767 -0.060943604 4.549347 -0.16027832l0 -5.630829c-1.1627502 0.047424316 -2.2735596 0.074523926 -3.3346863 0.074523926c-10.137268 0 -15.580688 -2.5806274 -15.580688 -15.24881l0 -61.234497l19.11856 0l0 -5.5969543l-19.11856 0l0 -27.311905z" fill-rule="evenodd"></path><path fill="#ffffff" d="m483.34766 228.49721c-0.09933472 0 -0.20095825 0.10159302 -0.20095825 0.20318604l0 0.6073303l4.450012 0l0 13.182968l0.77667236 0c0.10159302 0 0.20092773 -0.10159302 0.20092773 -0.200943l0 -12.982025l4.282959 0c0.10159302 0 0.20318604 -0.10159302 0.20318604 -0.20318604l0 -0.6073303z" fill-rule="evenodd"></path><path fill="#ffffff" d="m494.13965 228.49721l0 13.9934845l0.74053955 0c0.13546753 0 0.23706055 -0.10159302 0.23706055 -0.200943l0 -12.544022l4.989624 8.936157c0.06774902 0.09933472 0.16934204 0.16706848 0.30255127 0.16706848l0.81051636 0c0.10159302 0 0.23480225 -0.067733765 0.30255127 -0.16706848c0.70892334 -1.2485352 4.991852 -8.936157 4.991852 -8.936157l0 12.544022c0 0.099349976 0.10159302 0.200943 0.23480225 0.200943l0.74279785 0l0 -13.9934845l-1.1807861 0c-0.06774902 0.033859253 -0.13546753 0.067718506 -0.16934204 0.10159302l-5.3260193 9.40802l-5.3282776 -9.40802c-0.033843994 -0.03387451 -0.10159302 -0.067733765 -0.16931152 -0.10159302z" fill-rule="evenodd"></path><path fill="#ffffff" d="m540.166 335.15073c1.8535767 0 3.336914 1.5171814 3.3707886 3.3730469l0 13.9935c0 1.8536072 -1.5172119 3.370819 -3.3707886 3.370819l-13.99353 0c-1.855835 0 -3.3730469 -1.5172119 -3.3730469 -3.370819l0 -13.9935c0 -1.8558655 1.5172119 -3.3730469 3.3730469 -3.3730469zm-26.234985 -12.239227c-1.8535767 0 -3.370819 1.4833374 -3.370819 3.339203l0 38.5058c0 1.8558655 1.5172424 3.3730469 3.370819 3.3730469l38.508057 0c1.855896 0 3.3730469 -1.5171814 3.3730469 -3.3730469l0 -38.5058c0 -1.8558655 -1.5171509 -3.339203 -3.3730469 -3.339203z" fill-rule="evenodd"></path></g></svg>