<?xml version="1.0" encoding="UTF-8"?>
<svg id="Layer_1" xmlns="http://www.w3.org/2000/svg" baseProfile="tiny-ps" version="1.2" viewBox="0 0 350 350">
<title>Noom Inc</title>
  <!-- Generator: Adobe Illustrator 29.0.1, SVG Export Plug-In . SVG Version: 2.1.0 Build 192)  -->
  <rect width="350" height="350" fill="#fb513b"/>
  <g>
    <path d="M324.9,207.7h-11.2v-53.6l-16.9,29.2c-1.9,3.4-5.5,5.5-9.4,5.5-3.9,0-7.5-2.1-9.4-5.5l-16.9-29.4v53.9h-11.2v-54.4c0-6,4.9-10.9,10.9-10.9s7.5,2.1,9.4,5.5l17.2,30.2,17.2-30.2c3-5.2,9.6-7,14.8-4,3.4,1.9,5.5,5.5,5.5,9.4v54.4Z" fill="#fff"/>
    <path d="M73.2,207.7c-3.9,0-7.5-2.1-9.3-5.5l-27.7-48.4v53.9h-11.2v-54.4c0-6,4.8-10.9,10.8-10.9,3.9,0,7.5,2.1,9.5,5.5l27.7,48.4v-53.9h11.2v54.5c0,4.9-3.3,9.3-8.1,10.5-1,.3-1.9.4-2.9.4h0Z" fill="#fff"/>
    <path d="M129,208.6c-18.6,0-33.6-15-33.6-33.6s15-33.6,33.6-33.6,33.6,15,33.6,33.6c0,18.5-14.9,33.6-33.4,33.6h-.2ZM129,152.5c-12.3,0-22,9.9-22,22.5-.1,6,2.2,11.8,6.4,16.1,8.6,8.6,22.5,8.6,31.1,0,4.2-4.3,6.5-10.1,6.4-16.1,0-12.6-9.6-22.5-21.9-22.5h0Z" fill="#fff"/>
    <path d="M205.2,208.6c-18.6,0-33.6-15-33.6-33.6s15-33.6,33.6-33.6,33.6,15,33.6,33.6c0,18.5-14.9,33.6-33.4,33.6h-.2ZM205.2,152.5c-12.3,0-22,9.9-22,22.5,0,6,2.2,11.8,6.4,16.1,8.6,8.6,22.5,8.6,31.1,0,4.2-4.3,6.5-10.1,6.4-16.1,0-12.6-9.6-22.5-21.9-22.5h0Z" fill="#fff"/>
  </g>
</svg>

