<svg xmlns="http://www.w3.org/2000/svg" xmlns:xlink="http://www.w3.org/1999/xlink" version="1.2" viewBox="0 0 441.76 441.76" baseProfile="tiny-ps">
  <title>DataRay Inc.</title>
  <g>
    <linearGradient id="SVGID_1_" gradientUnits="userSpaceOnUse" x1="332" y1="208.31" x2="427.77" y2="208.31">
      <stop offset="0" stop-color="#EA2E30"/>
      <stop offset="0.1266" stop-color="#EB2A3E"/>
      <stop offset="0.3057" stop-color="#EC254F"/>
      <stop offset="0.4847" stop-color="#EC215A"/>
      <stop offset="0.6613" stop-color="#ED1D62"/>
      <stop offset="0.8344" stop-color="#ED1A66"/>
      <stop offset="1" stop-color="#ED1968"/>
    </linearGradient>
    <path d="M411.14,231.86l-8.33-1.04l-8.33-0.85c-1.58-0.15-3.16-0.38-4.74-0.63l2.49-3.24l3.09-4.33   c2-2.94,4.02-5.87,5.87-8.98l-0.87-0.92c-3.22,1.65-6.27,3.48-9.34,5.29l-4.52,2.81l-4.39,2.94c-0.09,0.06-0.2,0.12-0.29,0.18   c-0.34-1.91-0.68-3.82-0.88-5.74l-0.85-7.59l-1.04-7.59c-0.78-5.06-1.53-10.12-2.53-15.18h-1.27c-1,5.06-1.75,10.12-2.53,15.18   l-1.04,7.59l-0.85,7.59c-0.2,1.91-0.54,3.82-0.88,5.74c-0.09-0.06-0.2-0.11-0.29-0.18l-4.39-2.94l-4.52-2.81   c-3.07-1.81-6.12-3.64-9.34-5.29l-0.87,0.92c1.85,3.11,3.87,6.04,5.87,8.98l3.09,4.33l3.22,4.19c0.09,0.12,0.17,0.25,0.26,0.38   h-25.46L332,239.1h32.02c-0.47,0.73-0.96,1.44-1.48,2.11l-3.19,4.16l-3.06,4.3c-1.98,2.92-3.98,5.83-5.81,8.92l0.87,0.92   c3.2-1.63,6.23-3.43,9.27-5.23l4.48-2.77l4.35-2.91c0.05-0.03,0.1-0.06,0.15-0.09c0.42,2.33,0.9,4.66,1.16,6.99l0.85,7.22   l1.04,7.22c0.78,4.82,1.53,9.63,2.53,14.45h1.27c1-4.82,1.75-9.63,2.53-14.45l1.04-7.22l0.85-7.22c0.26-2.36,0.75-4.71,1.17-7.07   l4.25,2.86l4.56,2.85c3.1,1.84,6.18,3.69,9.43,5.37l0.87-0.92c-1.88-3.13-3.93-6.09-5.96-9.06l-3.13-4.37l-3.26-4.23   c-0.01-0.01-0.02-0.03-0.03-0.05c1.89-0.3,3.78-0.6,5.67-0.78l8.33-0.85l8.33-1.04c5.56-0.78,11.11-1.53,16.67-2.53v-1.26   C422.26,233.39,416.7,232.64,411.14,231.86z" fill="url(#SVGID_1_)"/>
    <polygon points="352.99,170.61 332,203.18 325.41,170.61 313.13,170.61 322.87,217.22 308.65,239.09    320.58,239.09 365.09,170.61  " fill="#20272B"/>
    <path d="M248.23,159.86h-27.55l-12.61,59.19h11.77l4.5-21.4h10.21l0.11,0.32l7.22,21.09h13.63l-8.75-22.78   l0.65-0.15c6.26-1.41,14.36-6.82,16.59-17.43c1.14-5.41,0.31-10.05-2.39-13.44C258.8,161.72,254.17,159.86,248.23,159.86z    M251.87,178.73c-1.09,5.19-5.61,8.68-11.23,8.68h-14.05l3.7-17.31h13.86c2.87,0,5.21,0.95,6.59,2.68   C251.97,174.33,252.36,176.38,251.87,178.73z" fill="#20272B"/>
    <g>
      <path d="M18.24,219.29h24.6c18.29,0,32.6-12.44,36.88-28.45c2.21-8.27,1.09-15.7-3.31-21.76l0,0    c-4.3-5.67-11.99-9.25-20.04-9.53l-25.4-0.24L18.24,219.29z M45.53,207.56h-0.19l-12.61-0.12l8.09-36.99l12.74,0.12    c5.2,0.05,9.57,2.41,12.32,6.23c2.69,3.75,3.41,8.61,2.02,13.68l0,0C65.27,200.06,55.44,207.56,45.53,207.56z" fill="#20272B"/>
    </g>
    <polygon points="126.15,181.41 139.26,181.41 131.12,219.39 142.03,219.39 150.01,181.41 163.05,181.41    170.11,170.56 123.88,170.6  " fill="#20272B"/>
    <path d="M110.55,219.29h11.61l-10.01-48.73h-8.68l-31.66,48.73h11.72l4.76-7.34h20.75L110.55,219.29z    M93.84,203.41l10.21-15.72l3.23,15.72H93.84z" fill="#20272B"/>
    <path d="M189.36,219.29h12.15l-10.04-48.72h-9.16l-31.69,48.72h12.26l4.88-7.5h20.05L189.36,219.29z    M173.45,203.05l9.53-14.65l3.03,14.65H173.45z" fill="#20272B"/>
    <path d="M297.7,219.29h12.01l-9.85-48.68h-8.79l-31.47,48.68h11.92l4.98-7.66h19.61L297.7,219.29z    M282.26,202.79l9.13-14.04l2.9,14.04H282.26z" fill="#20272B"/>
    <linearGradient id="SVGID_00000031926873037226385220000017891738072119623307_" gradientUnits="userSpaceOnUse" x1="13.95" y1="209.125" x2="302.57" y2="209.125">
      <stop offset="0" stop-color="#3C58A7"/>
      <stop offset="0.2896" stop-color="#009E53"/>
      <stop offset="0.3174" stop-color="#47A551"/>
      <stop offset="0.391" stop-color="#8FB94A"/>
      <stop offset="0.4581" stop-color="#BECC40"/>
      <stop offset="0.5165" stop-color="#E0DB35"/>
      <stop offset="0.5638" stop-color="#F4E42B"/>
      <stop offset="0.5941" stop-color="#FCE826"/>
      <stop offset="0.6336" stop-color="#FADE29"/>
      <stop offset="0.7086" stop-color="#F7C42F"/>
      <stop offset="0.8113" stop-color="#F29932"/>
      <stop offset="0.9363" stop-color="#EC5D31"/>
      <stop offset="1" stop-color="#EA2E30"/>
    </linearGradient>
    <polygon points="15.8,230.66 13.95,239.09    297.14,239.09 302.57,230.66  " fill="url(#SVGID_00000031926873037226385220000017891738072119623307_)"/>
    <g>
      <path d="M398.37,166.55" fill="#ED1968"/>
    </g>
    <path d="M373.78,198.94" fill="#ED1968"/>
    <path d="M308.03,157.38" fill="#2584C6"/>
    <path d="M327.29,245.76" fill="#2584C6"/>
  </g>
</svg>