<?xml version="1.0" encoding="UTF-8" standalone="yes"?>
<svg width="50" height="50" viewBox="0 0 50 50" fill="none" version="1.2" baseProfile="tiny-ps" xmlns="http://www.w3.org/2000/svg">
  <title>bimi-svg-tiny-12-ps</title>
  <path d="M25 0C12.2824 0 2 10.2981 2 23.0352C2 29.6748 4.84118 35.6369 9.30588 39.8374V50L15.6647 44.1734C18.5059 45.3929 21.7529 46.206 25 46.206C37.7176 46.206 48 35.9079 48 23.1707C48 10.2981 37.7176 0 25 0ZM36.5 24.2547C36.5 30.8943 31.0882 34.4173 25.6765 34.4173H25.5412H25.2706C19.8588 34.4173 14.4471 30.8943 14.4471 24.2547V15.7182C14.4471 14.3631 15.3941 13.4146 16.8824 13.4146C18.3706 13.4146 19.3176 14.3631 19.3176 15.7182V24.2547C19.3176 27.1003 21.6176 30.0813 25.2706 30.0813C25.4059 30.0813 25.5412 30.0813 25.6765 30.0813C29.4647 30.0813 31.6294 27.1003 31.6294 24.2547V15.7182C31.6294 14.3631 32.5765 13.4146 34.0647 13.4146C35.5529 13.4146 36.5 14.3631 36.5 15.7182V24.2547Z" fill="#007B81"/>
</svg>