<?xml version="1.0" encoding="UTF-8"?>
<svg id="Layer_1" xmlns="http://www.w3.org/2000/svg" baseProfile="tiny-ps" version="1.2" viewBox="0 0 360 360">
  <title>Canadian Protein</title>
  <rect width="360" height="360" fill="#000" stroke-width="0"/>
  <g>
    <path d="M184.41,228.44c13.47,1.62,25.56,3.08,39.03,4.7l-3.43-11.75c-.55-2.05.23-4.31,1.78-5.57l39.13-33.24-8.1-3.98c-3.57-1.33-2.57-3.42-1.29-8.47l5.97-22.7-22.73,5c-2.22.35-3.7-1.12-4.04-2.53l-2.92-10.69-17.98,21.04c-2.56,3.37-7.74,3.37-6.12-4.42l7.68-42.62-10.3,5.58c-2.89,1.68-5.79,1.96-7.4-1.05l-14.24-27.75-14.23,27.75c-1.61,3.02-4.51,2.74-7.4,1.05l-10.3-5.58,7.68,42.62c1.61,7.79-3.57,7.79-6.12,4.42l-17.98-21.04-2.92,10.69c-.34,1.4-1.82,2.88-4.04,2.53l-22.73-5,5.97,22.7c1.28,5.05,2.28,7.14-1.29,8.47l-8.1,3.98,39.13,33.24c1.55,1.26,2.33,3.52,1.78,5.57l-3.43,11.75c13.47-1.62,25.56-3.08,39.03-4.7,1.2-.02,3.18,1.05,3.17,2.49l-1.79,43.05h6.55l-1.03-42.96c0-1.44,1.79-2.6,2.99-2.58h.02Z" fill="#fff" stroke-width="0"/>
    <polygon points="169.13 69.87 169.13 69.87 169.13 69.87 179.53 62.31 189.94 69.87 185.96 57.64 196.37 50.08 183.51 50.08 179.53 37.84 179.53 37.84 179.53 37.84 175.56 50.08 162.7 50.08 173.1 57.64 169.13 69.87" fill="#fff" stroke-width="0"/>
    <polygon points="110.1 84.58 120.51 77.02 130.91 84.58 126.94 72.35 137.35 64.79 124.48 64.79 120.51 52.55 116.53 64.79 103.67 64.79 114.08 72.35 110.1 84.58" fill="#fff" stroke-width="0"/>
    <polygon points="66.07 123.69 76.47 116.13 86.88 123.69 82.9 111.46 93.31 103.9 80.45 103.9 76.47 91.67 72.5 103.9 59.64 103.9 70.04 111.46 66.07 123.69" fill="#fff" stroke-width="0"/>
    <polygon points="54.96 172.11 65.36 179.67 61.39 167.44 71.79 159.88 58.93 159.88 54.96 147.65 50.98 159.88 38.12 159.88 48.53 167.44 44.55 179.67 54.96 172.11" fill="#fff" stroke-width="0"/>
    <polygon points="66.4 221.01 62.43 208.78 58.45 221.01 45.59 221.01 56 228.57 52.02 240.8 62.43 233.24 72.83 240.8 68.86 228.57 79.27 221.01 66.4 221.01" fill="#fff" stroke-width="0"/>
    <polygon points="100.12 269.5 96.15 257.27 92.17 269.5 79.31 269.5 89.72 277.06 85.74 289.29 96.15 281.73 106.55 289.29 102.58 277.06 112.98 269.5 100.12 269.5" fill="#fff" stroke-width="0"/>
    <polygon points="152.59 297.35 148.62 285.12 144.64 297.35 131.78 297.35 142.19 304.91 138.21 317.14 148.62 309.58 159.02 317.14 155.05 304.91 165.45 297.35 152.59 297.35" fill="#fff" stroke-width="0"/>
    <polygon points="214.42 297.35 210.45 285.12 206.47 297.35 193.61 297.35 204.02 304.91 200.04 317.14 210.45 309.58 220.85 317.14 216.88 304.91 227.29 297.35 214.42 297.35" fill="#fff" stroke-width="0"/>
    <polygon points="266.89 269.5 262.92 257.27 258.95 269.5 246.08 269.5 256.49 277.06 252.52 289.29 262.92 281.73 273.33 289.29 269.35 277.06 279.76 269.5 266.89 269.5" fill="#fff" stroke-width="0"/>
    <polygon points="300.61 221.01 296.64 208.78 292.66 221.01 279.8 221.01 290.21 228.57 286.23 240.8 296.64 233.24 307.04 240.8 303.07 228.57 313.47 221.01 300.61 221.01" fill="#fff" stroke-width="0"/>
    <polygon points="320.95 159.88 308.09 159.88 304.11 147.65 300.14 159.88 287.28 159.88 297.68 167.44 293.71 179.67 304.11 172.11 314.52 179.67 310.54 167.44 320.95 159.88" fill="#fff" stroke-width="0"/>
    <polygon points="272.19 123.69 282.59 116.13 293 123.69 289.03 111.46 299.43 103.9 286.57 103.9 282.59 91.67 278.62 103.9 265.76 103.9 276.16 111.46 272.19 123.69" fill="#fff" stroke-width="0"/>
    <polygon points="228.15 84.58 238.56 77.02 248.96 84.58 244.99 72.35 255.39 64.79 242.53 64.79 238.56 52.55 234.58 64.79 221.72 64.79 232.13 72.35 228.15 84.58" fill="#fff" stroke-width="0"/>
  </g>
</svg>