<?xml version="1.0" encoding="UTF-8"?>
<svg version="1.2" baseProfile="tiny-ps" id="Layer_1" xmlns="http://www.w3.org/2000/svg" xmlns:xlink="http://www.w3.org/1999/xlink" viewBox="0 0 200 200" xml:space="preserve">
    <title>Diennea</title>
    <rect fill="#242424" width="200" height="200" />
    <path fill="#FFFFFF" d="M37.7,82.5v34.6h-5.9v-1.5c-1.9,1.2-4.2,1.9-6.5,1.9c-6.6,0-12-5.4-12-12s5.4-12,12-12
	c2.3,0,4.6,0.6,6.5,1.9V82.5H37.7z M31.5,105.5c0-3.7-2.6-6.4-6-6.4s-6,2.7-6,6.4s2.5,6.4,6,6.4S31.5,109.2,31.5,105.5z" />
    <path fill="#FFFFFF" d="M41.4,93.9h5.9v23.2h-5.9V93.9z" />
    <path fill="#FFFFFF" d="M74.2,109.5c-2.2,4.7-6.8,7.7-12,7.7c-4.9-0.1-9.3-3.1-11.1-7.7c-0.6-1.4-0.8-2.8-0.8-4.3
	c0-6.6,5.4-12,12-11.9c6.4,0,11.7,5.1,11.9,11.5c0,0.2,0,0.4,0,0.6L57,108.5c0.9,2,2.9,3.4,5.2,3.3c4,0,6.7-2.9,7-3.9L74.2,109.5z
	 M56.2,104l11.1-2c-1.1-2.2-3.4-3.6-5.9-3.4c-2.5,0.3-4.6,2.2-5.1,4.7L56.2,104z" />
    <path fill="#FFFFFF" d="M98.7,104.2v13h-6.1v-12.9c0-3.1-2-5.3-4.8-5.3s-4.9,2.2-4.9,5.3v12.8H77V93.9h5.9v2.3
	c1.6-1.7,3.9-2.7,6.2-2.7C94.8,93.5,98.7,98.1,98.7,104.2z" />
    <path fill="#FFFFFF" d="M123.2,104.2v13h-6.1v-12.9c0-3.1-2-5.3-4.8-5.3s-4.9,2.2-4.9,5.3v12.8h-5.9V93.9h5.9v2.3
	c1.6-1.7,3.9-2.7,6.2-2.7C119.3,93.5,123.2,98.1,123.2,104.2z" />
    <path fill="#FFFFFF" d="M149.9,109.5c-2.2,4.7-6.8,7.7-12,7.7c-4.9-0.1-9.3-3.1-11.1-7.7c-0.6-1.4-0.8-2.8-0.8-4.3
	c0.3-6.6,5.8-11.7,12.4-11.5c6.1,0.2,11,5,11.4,11c0,0.2,0,0.4,0,0.6l-17,3.1c0.9,2,2.9,3.4,5.2,3.3c4,0,6.7-2.9,7-3.9L149.9,109.5z
	 M132,104l11.1-2c-1.1-2.2-3.4-3.6-5.9-3.4c-2.5,0.3-4.6,2.2-5.1,4.7L132,104z" />
    <path fill="#FFFFFF" d="M176.4,93.9v23.2h-5.9v-1.5c-1.9,1.2-4.2,1.9-6.5,1.9c-6.6,0-12-5.4-12-12s5.4-12,12-12
	c2.3,0,4.5,0.6,6.5,1.9V94h5.9V93.9z M170.2,105.5c0-3.7-2.6-6.4-6-6.4c-3.5,0-6,2.7-6,6.4s2.6,6.4,6,6.4
	C167.6,111.9,170.2,109.2,170.2,105.5z" />
    <path fill="#FFFFFF" d="M182.1,107.8c2.6,0,4.7,2,4.7,4.6s-2,4.7-4.6,4.7s-4.7-2-4.7-4.6v-0.1C177.5,109.9,179.6,107.8,182.1,107.8z
	 M182.1,116.1c2,0.1,3.7-1.5,3.8-3.5s-1.5-3.7-3.5-3.8c-2-0.1-3.7,1.5-3.8,3.5c0,0,0,0,0,0.1c-0.1,2,1.4,3.6,3.4,3.7
	C182,116.1,182,116.1,182.1,116.1z M181.6,113.1v1.8h-1.1v-5h1.9c0.9,0,1.7,0.7,1.7,1.6l0,0c0,0.7-0.4,1.2-1,1.5l1.1,1.9H183
	l-0.9-1.8H181.6z M183,111.5c0-0.4-0.3-0.7-0.8-0.7h-0.6v1.4h0.6C182.7,112.2,183,111.9,183,111.5L183,111.5z" />
    <path fill="#E94444" d="M41.2,85.7c0-1.8,1.5-3.3,3.3-3.3s3.3,1.5,3.3,3.3S46.3,89,44.5,89S41.2,87.5,41.2,85.7z" />
</svg>
