<?xml version="1.0" encoding="utf-8"?>
<!-- Generator: Adobe Illustrator 27.6.1, SVG Export Plug-In . SVG Version: 6.00 Build 0)  -->
<svg version="1.2" baseProfile="tiny-ps" id="Layer_1" xmlns="http://www.w3.org/2000/svg" xmlns:xlink="http://www.w3.org/1999/xlink"
	 viewBox="0 0 360 360" xml:space="preserve">
	 <title>Robotic Imaging</title>
  <rect fill="#000000" width="380" height="450"/>
<circle stroke="#000000" stroke-miterlimit="10" cx="180" cy="180" r="180"/>
<g>
	<path fill="#FFFFFF" d="M69.56,166.77l-8.1-11.7h-0.48h-8.46v11.7h-9.72v-42h18.18c11.22,0,18.24,5.82,18.24,15.24
		c0,6.3-3.18,10.92-8.64,13.26l9.42,13.5H69.56z M60.44,132.69h-7.92v14.64h7.92c5.94,0,8.94-2.76,8.94-7.32
		C69.38,135.39,66.38,132.69,60.44,132.69z"/>
	<path fill="#FFFFFF" d="M84.26,145.77c0-12.48,9.72-21.72,22.98-21.72c13.2,0,22.98,9.18,22.98,21.72s-9.78,21.72-22.98,21.72
		C93.98,167.49,84.26,158.25,84.26,145.77z M120.38,145.77c0-7.98-5.64-13.44-13.14-13.44c-7.5,0-13.14,5.46-13.14,13.44
		c0,7.98,5.64,13.44,13.14,13.44C114.74,159.21,120.38,153.75,120.38,145.77z"/>
	<path fill="#FFFFFF" d="M176.06,155.31c0,7.26-5.76,11.46-16.8,11.46h-21.72v-42h20.52c10.5,0,15.9,4.38,15.9,10.92
		c0,4.2-2.16,7.44-5.58,9.24C173.06,146.43,176.06,150.03,176.06,155.31z M147.2,132.09v9.9h9.66c4.74,0,7.32-1.68,7.32-4.98
		s-2.58-4.92-7.32-4.92H147.2z M166.28,154.29c0-3.54-2.7-5.22-7.74-5.22H147.2v10.38h11.34
		C163.58,159.45,166.28,157.89,166.28,154.29z"/>
	<path fill="#FFFFFF" d="M180.8,145.77c0-12.48,9.72-21.72,22.98-21.72c13.2,0,22.98,9.18,22.98,21.72s-9.78,21.72-22.98,21.72
		C190.52,167.49,180.8,158.25,180.8,145.77z M216.92,145.77c0-7.98-5.64-13.44-13.14-13.44c-7.5,0-13.14,5.46-13.14,13.44
		c0,7.98,5.64,13.44,13.14,13.44C211.28,159.21,216.92,153.75,216.92,145.77z"/>
	<path fill="#FFFFFF" d="M242.18,132.69h-13.44v-7.92h36.6v7.92H251.9v34.08h-9.72V132.69z"/>
	<path fill="#FFFFFF" d="M270.56,124.77h9.72v42h-9.72V124.77z"/>
	<path fill="#FFFFFF" d="M287.6,145.77c0-12.66,9.72-21.72,22.8-21.72c7.26,0,13.32,2.64,17.28,7.44l-6.24,5.76
		c-2.82-3.24-6.36-4.92-10.56-4.92c-7.86,0-13.44,5.52-13.44,13.44c0,7.92,5.58,13.44,13.44,13.44c4.2,0,7.74-1.68,10.56-4.98
		l6.24,5.76c-3.96,4.86-10.02,7.5-17.34,7.5C297.32,167.49,287.6,158.43,287.6,145.77z"/>
	<path fill="#FFFFFF" d="M343.4,128.08c0,3.78-2.95,6.74-6.73,6.74s-6.69-2.96-6.69-6.71c0-3.74,2.91-6.71,6.72-6.71
		S343.4,124.3,343.4,128.08z M342.1,128.08c0-3.1-2.26-5.43-5.4-5.43s-5.41,2.39-5.41,5.47s2.28,5.47,5.38,5.47
		S342.1,131.18,342.1,128.08z M338.82,129.33l1.62,2.47h-1.98l-1.39-2.13h-0.08h-1.24v2.13h-1.98v-7.37h3.21
		c2.01,0,3.21,1.03,3.21,2.62C340.2,128.14,339.71,128.92,338.82,129.33z M336.86,128.19c0.89,0,1.41-0.42,1.41-1.14
		c0-0.74-0.51-1.16-1.41-1.16h-1.12v2.3H336.86z"/>
	<path fill="#FFFFFF" d="M42.81,196.77h9.72v42h-9.72V196.77z"/>
	<path fill="#FFFFFF" d="M100.7,238.77l-0.06-25.2l-12.36,20.76H83.9l-12.3-20.22v24.66h-9.12v-42h8.04l15.72,26.1l15.48-26.1h7.98
		l0.12,42H100.7z"/>
	<path fill="#FFFFFF" d="M147.44,229.77h-19.5l-3.72,9h-9.96l18.72-42h9.6l18.78,42h-10.2L147.44,229.77z M144.38,222.39
		l-6.66-16.08l-6.66,16.08H144.38z"/>
	<path fill="#FFFFFF" d="M193.52,217.11h8.88v17.04c-4.62,3.48-10.98,5.34-16.98,5.34c-13.2,0-22.92-9.06-22.92-21.72
		s9.72-21.72,23.1-21.72c7.38,0,13.5,2.52,17.58,7.26l-6.24,5.76c-3.06-3.24-6.6-4.74-10.86-4.74c-8.16,0-13.74,5.46-13.74,13.44
		c0,7.86,5.58,13.44,13.62,13.44c2.64,0,5.1-0.48,7.56-1.8V217.11z"/>
	<path fill="#FFFFFF" d="M211.4,196.77h9.72v42h-9.72V196.77z"/>
	<path fill="#FFFFFF" d="M269.6,196.77v42h-7.98l-20.94-25.5v25.5h-9.6v-42h8.04l20.88,25.5v-25.5H269.6z"/>
	<path fill="#FFFFFF" d="M307.94,217.11h8.88v17.04c-4.62,3.48-10.98,5.34-16.98,5.34c-13.2,0-22.92-9.06-22.92-21.72
		s9.72-21.72,23.1-21.72c7.38,0,13.5,2.52,17.58,7.26l-6.24,5.76c-3.06-3.24-6.6-4.74-10.86-4.74c-8.16,0-13.74,5.46-13.74,13.44
		c0,7.86,5.58,13.44,13.62,13.44c2.64,0,5.1-0.48,7.56-1.8V217.11z"/>
</g>
</svg>
