<?xml version="1.0" encoding="UTF-8"?>
<svg xmlns="http://www.w3.org/2000/svg" viewBox="0 0 80 80" version="1.2" baseProfile="tiny-ps">
<title>loops</title>
<path d="M44.1549 13H35.807C28.6989 13.0085 21.8843 15.8562 16.8587 20.9186C11.833 25.981 9.00672 32.8447 9 40.0033C9.00839 47.1607 11.8354 54.0225 16.8609 59.0836C21.8864 64.1447 28.7 66.9915 35.807 67H44.1866C51.2948 66.9932 58.1101 64.147 63.1369 59.0858C68.1638 54.0245 70.9916 47.1618 71 40.0033C70.9933 32.8381 68.1618 25.9687 63.1279 20.9052C58.0941 15.8416 51.2697 12.9983 44.1549 13ZM12.3176 40.0033C12.3176 33.7344 14.7903 27.7223 19.1919 23.2896C23.5934 18.8568 29.5633 16.3666 35.788 16.3666C37.0993 16.3661 38.4084 16.475 39.7019 16.6923C45.1773 17.6043 50.1516 20.4496 53.7338 24.7185C57.316 28.9874 59.2722 34.4014 59.2521 39.9905C59.2456 43.5795 57.9796 47.0506 55.6778 49.7906C53.3761 52.5307 50.1867 54.3634 46.6732 54.9646C49.0136 53.2438 50.9172 50.9904 52.229 48.3882C53.5408 45.786 54.2236 42.9088 54.2218 39.9905C54.229 35.8733 52.874 31.8711 50.371 28.6157C47.868 25.3604 44.3595 23.0374 40.3996 22.0138C38.8934 21.6217 37.3437 21.4243 35.788 21.4261C30.9072 21.4413 26.2312 23.4034 22.7835 26.8827C19.3358 30.362 17.3973 35.0751 17.3923 39.9905C17.3799 44.5519 18.5184 49.0415 20.7008 53.0384C22.8833 57.0354 26.0383 60.4086 29.8697 62.8414C24.8551 61.5153 20.4167 58.5565 17.2456 54.4259C14.0744 50.2952 12.3485 45.2245 12.3366 40.0033H12.3176ZM39.9683 25.4188C43.1096 26.3299 45.8711 28.2455 47.836 30.8766C49.8008 33.5076 50.8622 36.7112 50.8598 40.0033C50.8608 43.2943 49.7989 46.4962 47.8341 49.1259C45.8694 51.7557 43.1086 53.6704 39.9683 54.5812C36.8281 53.6704 34.0672 51.7557 32.1025 49.1259C30.1377 46.4962 29.0758 43.2943 29.0768 40.0033C29.0744 36.7112 30.1358 33.5076 32.1006 30.8766C34.0655 28.2455 36.8271 26.3299 39.9683 25.4188ZM44.1549 63.6271H44.0598C42.7845 63.6201 41.5119 63.511 40.2537 63.3012C34.9139 62.4094 30.0473 59.6776 26.486 55.5725C22.9247 51.4675 20.8897 46.244 20.7289 40.7953C20.7289 40.527 20.7289 40.2652 20.7289 40.0033C20.7328 36.4135 21.9979 32.9409 24.3001 30.2003C26.6023 27.4597 29.7932 25.628 33.3078 25.0292C30.9662 26.7493 29.0614 29.0021 27.7485 31.6043C26.4356 34.2065 25.7518 37.0844 25.7528 40.0033C25.7471 44.1194 27.1026 48.1199 29.6055 51.374C32.1085 54.628 35.6161 56.9501 39.575 57.9734C41.0806 58.3686 42.6307 58.5661 44.1866 58.5611C49.0729 58.556 53.7578 56.5995 57.2135 53.1205C60.6692 49.6415 62.6137 44.9242 62.6204 40.0033C62.6346 35.4415 61.4969 30.951 59.3143 26.9538C57.1316 22.9565 53.9757 19.5838 50.143 17.1524C55.1565 18.4801 59.5924 21.4419 62.7584 25.5757C65.9245 29.7095 67.6425 34.7827 67.6443 40.0033C67.6427 43.1078 67.0338 46.1817 65.8524 49.0492C64.6709 51.9167 62.9401 54.5217 60.7589 56.7154C58.5776 58.9092 55.9885 60.6486 53.1396 61.8345C50.2906 63.0204 47.2376 63.6296 44.1549 63.6271Z" fill="#FC5200"/>
</svg>
