<?xml version="1.0" encoding="UTF-8" standalone="yes"?>
<svg version="1.2" baseProfile="tiny-ps" viewBox="0 0 197.6 197.6" xml:space="preserve" xmlns="http://www.w3.org/2000/svg">
  <title>bimi-svg-tiny-12-ps</title>
  <g>
    <path fill="#1A1102" d="M115.6,70.1l-17,17c24.6,0.6,44.4,20.7,44.4,45.5c0,25.1-20.4,45.5-45.5,45.5c-24.7,0-44.9-19.8-45.5-44.4&#xA;&#x9;&#x9;l-17,17c7.8,27.1,32.8,46.9,62.5,46.9c35.9,0,65-29.1,65-65C162.6,102.9,142.7,77.9,115.6,70.1z"/>
    <path fill="#1A1102" d="M98.2,106.6c-0.1,0-0.3,0-0.4,0c-24.2,0-43.9-19.7-43.9-43.9s19.6-43.9,43.9-43.9s43.9,19.7,43.9,43.9&#xA;&#x9;&#x9;c0,0.1,0,0.3,0,0.4l16.7-16.7C151.2,19.7,126.8,0,97.8,0C63.1,0,35,28.1,35,62.8c0,29,19.7,53.4,46.4,60.6L98.2,106.6z"/>
  </g>
</svg>