<svg xmlns="http://www.w3.org/2000/svg" xmlns:xlink="http://www.w3.org/1999/xlink" version="1.2" viewBox="0 0 341.94 341.94" baseProfile="tiny-ps">
  <title>final-logo_tiny_ps</title>
  <rect width="341.94" height="341.94" fill="#222425"/>
  <g>
    <path id="Fill-1" d="M221.927,91.401   c-6.425,0-11.086,4.825-11.086,11.471c0,6.212,4.768,10.889,11.086,10.889s11.086-4.677,11.086-10.889   C233.013,96.226,228.353,91.401,221.927,91.401 M221.927,124.091c-12.005,0-21.417-9.321-21.417-21.22s9.206-21.802,21.417-21.802   c12.21,0,21.417,9.371,21.417,21.802S233.931,124.091,221.927,124.091" fill="#206EE8" fill-rule="evenodd"/>
  </g>
  <g>
    <path id="Fill-3" d="M129.615,218.218   c0,6.465,8.017,16.805,25.848,16.805s24.56-6.204,24.56-14.221c0-8.017-3.619-12.407-18.093-14.737l-20.678-3.356   c-27.143-4.398-42.653-15.508-42.653-37.483s19.39-41.364,55.576-41.364c38.516,0,55.576,27.143,55.576,42.653h-31.019   c0-8.017-9.043-16.805-24.56-16.805s-23.263,7.501-23.263,15.508c0,6.204,5.941,10.34,18.093,12.152l21.975,3.364   c27.143,4.135,41.364,16.542,41.364,40.068c0,21.712-18.355,40.068-56.873,40.068c-49.118,0-56.873-33.602-56.873-42.653   C98.597,218.218,129.615,218.218,129.615,218.218z" fill="#FFFFFF" fill-rule="evenodd"/>
  </g>
</svg>