<?xml version="1.0"?><svg version="1.2" baseProfile="tiny-ps" viewBox="0 0 300 300" xmlns="http://www.w3.org/2000/svg" xmlns:xlink="http://www.w3.org/1999/xlink"><title>British Columbia Institute of Technology</title><g><g fill="#fff" transform="matrix(.1 0 0 -.1 0 300)"><path d="M0 1500V0h3000v3000H0V1500z"/></g><g fill="#dfe7ed" transform="matrix(.1 0 0 -.1 0 300)"><path d="M0 1500V0h3000v3000H0V1500zm1472 548 39-12 44-38 44-39 24-52c24-50 53-164 45-173-2-2-36-6-75-10l-70-7-21 69-21 70-30 28-29 28-44 5-43 5-35-24-35-23-20-40c-10-22-25-69-32-105l-12-65-1-132v-132l11-74 11-73 22-45 22-44 35-17 34-18h62l33 23 34 22 20 34c11 19 25 57 31 85l12 51 69-3 69-3 9-9 9-9-17-68c-10-37-29-90-44-117l-26-48-43-38-43-37-47-14-48-13h-110l-48 13-47 14-45 39-45 39-29 62c-16 34-35 89-43 122l-13 60v380l18 65c23 86 53 146 96 194l36 39 50 23 50 24h148l39-12zm-807-9c75-14 124-39 163-83l31-36 12-38 11-39-3-80-4-79-28-43-28-42-36-22-36-21 18-10c10-6 36-25 59-41l41-31 22-54 22-55 1-61v-61l-14-47c-8-27-26-65-40-86l-25-38-68-34-68-33-207-4-208-3v1052h326l59-11zm1345-514v-525h-170v1050h170v-525zm760 450v-75h-220v-900h-170v900h-220v150h610v-75zm-2322-71-8-7v-287h155l42 19 42 19 17 34 18 33v102l-17 26c-9 15-30 33-46 42l-30 15-83 6-83 6-7-8zm-8-588v-166h195l34 18 34 19 19 34 18 34v110l-19 35-18 35-34 20-34 19-97 4-98 4v-166z"/></g><g fill="#b7c9d6" transform="matrix(.1 0 0 -.1 0 300)"><path d="M0 1500V0h3000v3000H0V1500zm1508 533 53-25 29-40c35-47 65-126 75-190l7-46-44-7c-24-4-59-5-78-3l-34 3-11 45c-24 92-58 134-121 146l-32 6-36-17-37-18-25-43-26-43-13-78-14-78-1-112c0-61 5-147 11-190l10-78 22-44 22-45 28-20 28-21h88l27 21 28 21 23 44c12 24 25 64 29 88l7 43 76-7c42-4 78-9 80-11 10-9-20-120-47-178l-29-61-34-34-34-34-45-21-45-20-85-1h-85l-58 29-58 28-35 47-34 46-26 80-27 80-5 181-4 181 16 84 17 84 28 61 28 60 39 39c41 39 85 63 144 76l35 8 60-5 60-5 53-26zm-813 2 60-15 39-28 40-27 25-49 25-49v-162l-25-45-24-44-43-33-43-32 40-20 39-20 30-36c16-20 34-53 41-74l11-38v-129l-16-53-15-52-35-38-34-39-50-21-50-22-97-9c-54-5-151-10-215-10H280v1060h356l59-15zm1315-510v-525h-170v1050h170v-525zm760 450v-75h-220v-900h-170v900h-220v150h610v-75zM440 1755v-145h68c37 0 84 5 104 10l36 10 31 36 31 35v110l-15 28-14 28-35 17-34 16H440v-145zm8-281-8-7v-319l103 4 103 3 27 18c15 9 35 29 44 44l18 27v131l-20 32-19 33-35 16-35 17-85 4-86 5-7-8z"/></g><g fill="#648aa6" transform="matrix(.1 0 0 -.1 0 300)"><path d="M0 1500V0h3000v3000H0V1500zm1505 540 45-22 35-41 35-40 21-56c11-31 23-77 26-102l5-46-8-6c-5-3-40-7-78-8l-70-4-11 45c-16 61-40 104-71 129l-27 21h-85l-30-25-29-25-22-50-22-51-11-115-11-114 11-123c6-67 17-140 24-161l12-39 32-34 31-33h105l38 38 38 38 17 59c9 33 18 65 20 71l3 10 81-9 81-10-6-26c-3-14-14-55-24-91l-19-65-30-46c-36-58-86-96-147-115l-47-14h-113l-50 15-50 15-42 35-41 36-31 62-30 62-16 75-17 75-1 160v160l18 78c40 176 100 256 221 300l50 18 73-5 73-5 44-21zm505-515V990h-170v1070h170v-535zm760 455v-80h-220V990h-170v910h-220v160h610v-80zm-2025 42c61-28 91-55 116-105l20-38 6-62 6-63-17-56-16-56-27-29c-16-15-39-35-52-43l-23-16 49-30 50-31 26-54 27-53v-169l-12-39-12-39-40-46-40-45-42-19-43-18-76-10-76-11H270v1062l213-4 212-3 50-23zm-303-264 3-143 80 1 80 1 33 17 33 17 20 32 20 32-4 57-3 57-20 22c-10 12-33 28-51 35l-32 14H439l3-142zm0-445 3-158h95l95 1 32 17 33 17 15 30 15 29v126l-20 33-20 33-35 15-34 14H439l3-157z"/></g><g fill="#37678c" transform="matrix(.1 0 0 -.1 0 300)"><path d="M0 1500V0h3000v3000H0V1500zm1505 543c81-43 136-125 160-241l14-67-7-6c-4-4-42-10-84-13l-78-7v14c0 7-7 38-16 67l-16 54-34 34-34 34-52-4-52-5-27-31-28-31-17-53-17-53-5-179-4-179 12-61c6-34 21-80 32-104l20-43 29-14 28-15h79l30 25 29 25 21 47c11 27 23 65 27 86l7 38 37-5c20-3 57-8 84-11 26-3 47-9 47-13-1-23-32-134-49-174l-20-46-37-42c-21-23-56-51-78-63l-41-22h-210l-41 22c-84 45-138 127-171 259l-17 69v185l-1 185 18 64c10 36 29 91 44 123l26 59 50 45 49 44 47 15 46 15 80-3 80-4 40-20zm-861 7c85-13 141-37 183-80l32-33 17-49 16-50-4-71-3-72-21-40-21-40-39-30-40-31 42-26 43-26 25-39 26-39 11-59 11-59-7-56-6-55-25-53-26-52-33-26c-19-14-58-35-87-46l-53-21-207-5-208-4v1072h305l69-10zm1371-525V995h-180l-3 520c-1 286 0 526 3 533l5 13 87-3 88-3v-530zm755 455v-79l-107-3-108-3-3-452-2-453h-170l-2 453-3 452-107 3-108 3v159h610v-80zM450 1761v-141h155l34 18 34 19 19 34 18 34v33c0 18-6 48-14 67l-14 34-34 17-33 18-82 4-83 5v-142zm0-451v-163l90 6 90 7 35 15 36 14 14 35 15 35v102l-14 32-13 33-29 19-29 19-97 4-98 4v-162z"/></g><g fill="#013c6b" transform="matrix(.1 0 0 -.1 0 300)"><path d="M0 1500V0h3000v3000H0V1500zm1481 555c23-9 57-27 76-41l33-25 26-45 27-45 18-71c11-40 19-79 19-88v-17l-61-7c-34-3-72-6-84-6h-23l-11 46c-7 26-21 64-32 85l-19 39-30 15c-36 19-61 19-104 1l-34-14-25-53-26-54-12-68-11-68 5-162 4-162 17-53 17-53 27-30 27-30 41-6 41-5 30 16 31 16 20 32c11 18 28 61 38 96l18 63 65-6c36-4 74-9 84-11l17-5v-16c0-31-32-138-56-184-27-54-80-111-123-133-16-8-56-20-90-25l-61-10-53 9c-69 11-103 25-147 60l-37 29-32 61-33 61-19 92-19 92v140l1 140 13 75c17 93 44 163 84 223l32 45 36 23c20 12 53 28 73 35l36 13 71 1h71l44-15zm-816-6c65-12 140-46 167-76 9-10 26-39 37-63l21-45v-160l-19-41-18-40-43-36-42-37 29-14c35-19 75-62 99-107l19-35v-200l-23-47-24-48-40-34-40-35-47-17-46-18-212-4-213-4v1072h336l59-11zm1355-524V990h-190v1070h190v-535zm758 453-3-83-107-3-108-3V990h-190v899l-107 3-108 3-3 83-3 82h632l-3-82zM450 1761v-141h145l34 18c19 9 44 29 55 44l20 27v49l1 49-15 27-14 28-26 13-26 14-87 7-87 7v-142zm0-445v-156h175l35 18 35 17 17 35 18 35v90l-18 34c-9 19-29 44-45 55l-27 20-95 4-95 4v-156z"/></g></g></svg>