<?xml version="1.0" encoding="utf-8"?>
<!-- Generator: Adobe Illustrator 28.0.0, SVG Export Plug-In . SVG Version: 6.00 Build 0)  -->
<svg version="1.2" baseProfile="tiny-ps" xmlns="http://www.w3.org/2000/svg" viewBox="0 0 550 550">
  <title>Philibert</title>
<rect x="18" y="18" fill="#FFFFFF" width="514" height="514" />
<path fill="#F39223" d="M440.5,226.4c0.6-13.1-30.9-19.5-32.2-21c-0.7-0.7,1.6-20-15.5-20c-17,0-14.8,19.3-15.5,20  c-1.4,1.5-32.8,7.9-32.2,21c0.5,13.1,17.2,6.4,20.8,10.2c3.1,3.4-14.6,25-16.5,38.7c-0.6,4.5,0.6,5.3,5,5.3c7.9,0,15.4,0,22.4,0  c3.1,0,4.3-1.8,5.9-4.3c3.6-5.5,7.9-14.3,10.3-14.3s6.7,8.8,10.3,14.3c1.6,2.5,2.7,4.3,5.9,4.3c6.9,0,14.5,0,22.4,0  c4.4,0,5.6-0.9,5-5.3c-2-13.7-19.7-35.4-16.5-38.7C423.3,232.8,440,239.6,440.5,226.4z" />
<path fill="#F39223" d="M385.7,158.4c-44.4,0-80.4,36-80.4,80.4s36,80.4,80.4,80.4s80.4-36,80.4-80.4S430.1,158.4,385.7,158.4z   M392.8,280.8c-30.6,0-55.5-24.8-55.5-55.5c0-30.6,24.8-55.5,55.5-55.5c30.6,0,55.5,24.8,55.5,55.5  C448.3,255.9,423.5,280.8,392.8,280.8z" />
<path fill="#2F3234" d="M44.6,352.8l-2.3-81.1l0.8-0.4c10.4-5.3,20.2-8,29-8c6.8,0,13.3,1.5,19.3,4.3c6,2.9,10.9,6.9,14.6,12  s5.5,11,5.5,17.4c0,6.1-1.6,11.7-4.9,16.9c-3.2,5.1-7.7,9.2-13.3,12.2c-5.6,3-11.8,4.5-18.4,4.5c-1.6,0-3.4-0.1-5.3-0.4l0.6,22.6  H44.6z M69.1,306.8c1.3,0.4,2.6,0.6,3.9,0.6c2.2,0,4.3-0.5,6.4-1.5c2-1,3.6-2.3,4.9-3.9c1.2-1.6,1.8-3.2,1.8-5c0-3.3-1.2-6-3.6-8.2  c-2.5-2.2-5.3-3.3-8.6-3.3c-1.7,0-3.5,0.4-5.1,1.1L69.1,306.8z" />
<path fill="#FFFFFF" d="M72.1,264.7c6.7,0,12.9,1.4,18.7,4.2s10.5,6.7,14,11.6s5.3,10.4,5.3,16.6c0,5.8-1.6,11.2-4.7,16.1  S98,322,92.6,324.9s-11.3,4.3-17.8,4.3c-2,0-4.3-0.2-6.8-0.6l0.6,22.8H46l-2.3-78.8C54,267.3,63.5,264.7,72.1,264.7 M73,308.8  c2.4,0,4.7-0.5,7-1.6c2.2-1.1,4-2.5,5.4-4.3s2-3.8,2-5.9c0-3.7-1.4-6.8-4.1-9.2c-2.7-2.5-5.9-3.7-9.5-3.7c-2.3,0-4.5,0.6-6.6,1.7  l0.5,22C69.4,308.5,71.2,308.8,73,308.8 M72.1,261.8c-9,0-19,2.7-29.7,8.1l-1.6,0.8l0.1,1.8l2.3,78.8l0.1,2.8H46h22.7h2.9l-0.1-2.9  L71,331.7c1.4,0.1,2.6,0.2,3.9,0.2c6.9,0,13.3-1.6,19.1-4.6c5.8-3.1,10.5-7.4,13.8-12.7c3.4-5.4,5.1-11.3,5.1-17.6  c0-6.7-2-12.8-5.8-18.2c-3.8-5.3-8.9-9.5-15.1-12.5C85.9,263.4,79.1,261.8,72.1,261.8L72.1,261.8z M70.1,287.6  c1.2-0.4,2.4-0.7,3.7-0.7c2.9,0,5.4,1,7.6,2.9c2.1,1.9,3.1,4.2,3.1,7.1c0,1.5-0.5,2.9-1.5,4.2c-1.1,1.4-2.5,2.6-4.3,3.4  c-1.9,0.9-3.7,1.3-5.7,1.3c-0.8,0-1.7-0.1-2.5-0.3L70.1,287.6L70.1,287.6z" />
<path fill="#2F3234" d="M154.8,352.8v-33.2c0-2.8-0.8-4.9-2.4-6.5c-1.6-1.6-3.8-2.3-6.7-2.3c-4.7,0-7.8,2.4-9.7,7.2l0.5,34.7  l-24.2-0.4l-1.6-93.8h24.4l0.5,36.1c2-1.7,4.3-3.1,6.9-4.2c3.8-1.7,7.7-2.5,11.6-2.5c7.4,0,13.3,2.7,17.7,8.1  c4.3,5.3,6.5,12.5,6.6,21.4l0.2,35.4H154.8z" />
<path fill="#FFFFFF" d="M133.7,259.9l0.6,38c2.3-2.6,5.2-4.7,8.9-6.2c3.6-1.6,7.3-2.4,11-2.4c7,0,12.5,2.5,16.6,7.6  s6.2,11.9,6.3,20.5l0.2,33.9h-21v-31.8c0-3.2-0.9-5.7-2.8-7.5c-1.9-1.8-4.5-2.7-7.7-2.7c-5.4,0-9.1,2.8-11.1,8.4l0.5,33.5l-21.3-0.3  l-1.6-91H133.7 M136.5,257.1h-2.8h-21.6h-2.9v2.9l1.6,91l0.1,2.8h2.8l21.3,0.3h3v-3l-0.4-32.9c1.6-4.1,4.3-6,8.2-6  c2.5,0,4.4,0.6,5.7,1.9s2,3,2,5.4v31.8v2.9h2.9h21h2.9v-2.9l-0.2-33.9c-0.1-9.2-2.4-16.8-6.9-22.3c-4.7-5.7-11-8.7-18.8-8.7  c-4.1,0-8.2,0.9-12.2,2.6c-1.8,0.8-3.4,1.7-4.9,2.7l-0.5-31.9L136.5,257.1L136.5,257.1z" />
<path fill="#2F3234" d="M179.4,352.5l-1.9-63h26.6v63H179.4z M191.3,288c-2.4,0-4.8-0.7-7.1-1.9c-2.3-1.3-4.2-3.1-5.6-5.3  c-1.5-2.3-2.2-4.7-2.2-7.4c0-4,1.6-7.5,4.6-10.2c3-2.6,6.7-4,10.9-4c4,0,7.3,1.2,9.8,3.7s3.8,5.8,3.8,9.8c0,4.4-1.4,8-4,10.9  C198.7,286.6,195.3,288,191.3,288z" />
<path fill="#FFFFFF" d="M191.9,260.7c3.6,0,6.6,1.1,8.8,3.3s3.3,5.1,3.3,8.7c0,4-1.2,7.3-3.6,9.9c-2.4,2.6-5.4,3.9-9.1,3.9  c-2.2,0-4.3-0.6-6.4-1.8c-2.1-1.2-3.8-2.8-5.1-4.8s-2-4.2-2-6.6c0-3.6,1.4-6.7,4.1-9.1C184.7,261.9,188,260.7,191.9,260.7   M202.7,290.9V351h-21.9l-1.8-60.1H202.7 M191.9,257.9c-4.6,0-8.5,1.5-11.8,4.3c-3.4,3-5.1,6.8-5.1,11.2c0,2.9,0.8,5.6,2.5,8.1  c1.6,2.4,3.6,4.4,6.1,5.8c0.5,0.3,0.9,0.5,1.4,0.7h-5.9h-3l0.1,3l1.8,60.1l0.1,2.8h2.8h21.9h2.9V351v-60.1V288h-2.9h-4.7  c1.7-0.8,3.2-1.9,4.6-3.4c2.9-3.1,4.4-7.1,4.4-11.9c0-4.4-1.4-8-4.2-10.8C199.9,259.3,196.3,257.9,191.9,257.9L191.9,257.9z" />
<path fill="#2F3234" d="M229,353.7c-7.3,0-13.2-2.4-17.7-7.1s-6.7-11.4-6.6-19.8l0.2-56.9l24.3-7.2l0.1,57.7c0,2.7,0.7,4.6,2,5.8  c1.4,1.2,3,1.9,4.8,1.9c1.3,0,2.3-0.3,3-0.8l1.7-1.2l5.8,23.3l-1.1,0.5C239.7,352.4,234.1,353.7,229,353.7z" />
<path fill="#FFFFFF" d="M227.7,264.6l0.1,55.8c0,3.1,0.8,5.4,2.5,6.9s3.6,2.2,5.8,2.2c1.6,0,2.9-0.3,3.9-1l5,20.1  c-5.7,2.5-11,3.7-16,3.7c-6.9,0-12.4-2.2-16.7-6.7c-4.2-4.5-6.3-10.7-6.2-18.8l0.2-55.8L227.7,264.6 M230.6,260.8l-3.7,1.1  l-21.4,6.4l-2,0.6v2.1l-0.2,55.8c-0.1,8.8,2.3,15.8,7,20.8c4.8,5,11.1,7.6,18.8,7.6c5.4,0,11.1-1.3,17.1-4l2.2-1l-0.6-2.3l-5-20.1  l-1-4l-3.4,2.4c-0.5,0.3-1.2,0.5-2.2,0.5c-1.5,0-2.7-0.5-3.9-1.5c-1-0.9-1.5-2.5-1.5-4.7l-0.1-55.8L230.6,260.8L230.6,260.8z" />
<path fill="#2F3234" d="M245.9,352.5l-1.9-63h26.6v63H245.9z M257.8,288c-2.4,0-4.8-0.7-7.1-1.9c-2.3-1.3-4.2-3.1-5.6-5.3  c-1.5-2.3-2.2-4.7-2.2-7.4c0-4,1.6-7.5,4.6-10.2c3-2.6,6.7-4,10.9-4c4,0,7.3,1.2,9.8,3.7s3.8,5.7,3.8,9.8c0,4.4-1.3,8-4,10.9  C265.2,286.6,261.8,288,257.8,288z" />
<path fill="#FFFFFF" d="M258.4,260.7c3.6,0,6.6,1.1,8.8,3.3c2.2,2.2,3.3,5.1,3.3,8.7c0,4-1.2,7.3-3.6,9.9s-5.4,3.9-9.1,3.9  c-2.2,0-4.3-0.6-6.4-1.8c-2.1-1.2-3.8-2.8-5.1-4.8s-2-4.2-2-6.6c0-3.6,1.4-6.7,4.1-9.1C251.2,261.9,254.5,260.7,258.4,260.7   M269.1,290.9V351h-21.9l-1.8-60.1H269.1 M258.4,257.9c-4.6,0-8.5,1.5-11.8,4.3c-3.4,3-5.1,6.8-5.1,11.2c0,2.9,0.8,5.6,2.4,8.1  c1.6,2.4,3.6,4.4,6.1,5.8c0.5,0.3,0.9,0.5,1.4,0.7h-5.9h-3l0.1,3l1.8,60.1l0.1,2.8h2.8h21.9h2.9V351v-60.1V288h-2.9h-4.7  c1.7-0.8,3.2-1.9,4.6-3.4c2.9-3.1,4.4-7.1,4.4-11.9c0-4.4-1.4-8-4.2-10.8C266.4,259.3,262.8,257.9,258.4,257.9L258.4,257.9z" />
<path fill="#2F3234" d="M314.3,353.6c-3.8,0-7.6-0.7-11.3-2c-2.6-0.9-4.9-2.1-6.9-3.4v4.9h-25v-92.6l25.6-2l-0.2,34  c4.7-2.8,10.3-4.2,16.9-4.2c0.4,0,0.9,0,1.4,0c4.4,0.1,8.8,1.7,12.8,4.9c4,3.1,7.2,7.2,9.7,12.1c2.4,4.9,3.7,10.2,3.7,15.5  c0,5.8-1.2,11.3-3.5,16.3c-2.4,5-5.6,9.1-9.6,12.1C323.5,352.1,319,353.6,314.3,353.6z M307.1,310c-2.9,0-5.4,1-7.6,3.2  c-2.2,2.1-3.3,4.5-3.3,7.3c0,1.8,0.5,3.5,1.5,5.2s2.4,3.1,4.1,4.2c1.7,1,3.4,1.5,5.1,1.5s3.3-0.5,5-1.5s3-2.4,4-4.1s1.5-3.4,1.5-5.2  c0-2.9-1-5.3-3.2-7.4C312.2,311.1,309.9,310,307.1,310z" />
<path fill="#FFFFFF" d="M295.2,259.9l-0.2,35.2c4.9-3.6,11-5.5,18.3-5.5c0.4,0,0.9,0,1.3,0c4.2,0.1,8.1,1.6,12,4.6  c3.8,3,6.9,6.9,9.2,11.6c2.3,4.8,3.5,9.7,3.5,14.9c0,5.6-1.1,10.8-3.4,15.7c-2.3,4.8-5.3,8.7-9.2,11.5c-3.9,2.8-8,4.3-12.5,4.3  c-3.6,0-7.2-0.6-10.8-1.9c-3.6-1.3-6.5-3-8.9-5v6.4h-22.1v-89.8L295.2,259.9 M307.1,332.9c2,0,3.9-0.6,5.7-1.8  c1.9-1.2,3.3-2.7,4.4-4.6s1.6-3.9,1.6-5.9c0-3.2-1.2-6.1-3.6-8.4c-2.4-2.4-5.1-3.6-8.2-3.6c-3.3,0-6.1,1.2-8.6,3.6s-3.7,5.2-3.7,8.3  c0,2,0.6,4,1.8,6c1.2,1.9,2.7,3.5,4.6,4.7C303.1,332.3,305.1,332.9,307.1,332.9 M298.1,256.8L295,257l-22.7,1.8l-2.6,0.2v2.6v89.8  v2.9h2.9h22.1h2.9v-2.9v-0.9c1.5,0.8,3.2,1.6,5,2.2c3.8,1.4,7.8,2.1,11.8,2.1c5.1,0,9.8-1.6,14.2-4.8c4.2-3.1,7.6-7.3,10.1-12.6  c2.4-5.2,3.7-10.9,3.7-16.9c0-5.6-1.3-11-3.8-16.1s-5.9-9.4-10.1-12.6c-4.3-3.4-8.9-5.1-13.7-5.2c-0.4,0-0.9,0-1.4,0  c-5.8,0-11,1.1-15.4,3.2l0.2-30L298.1,256.8L298.1,256.8z M307.1,330c-1.5,0-3-0.4-4.4-1.3c-1.5-0.9-2.7-2.2-3.7-3.7  c-0.9-1.5-1.3-3-1.3-4.5c0-2.4,0.9-4.4,2.8-6.3s4.1-2.8,6.6-2.8c2.3,0,4.4,0.9,6.2,2.7c1.8,1.8,2.7,3.9,2.7,6.4c0,1.5-0.4,3-1.3,4.5  s-2,2.7-3.5,3.6C309.9,329.6,308.6,330,307.1,330L307.1,330z" />
<path fill="#2F3234" d="M372.1,353.6c-1.1,0-1.9,0-2.5-0.1c-5.4-0.4-10.5-2.2-15.1-5.3c-4.6-3.1-8.3-7.3-11-12.4s-4.1-10.7-4.1-16.8  c0-1.2,0-2.1,0.1-2.8c0.3-5.1,1.9-9.9,4.8-14s6.7-7.4,11.4-9.7c4.7-2.3,9.9-3.4,15.6-3.4c9.8,0,17.6,2.9,23,8.7  c5.5,5.8,8.2,13.7,8.2,23.6c0,1.6,0,2.9-0.1,3.8l-0.1,1.3l-39.3,0.4c0.7,1.5,1.6,2.7,2.7,3.8c1.4,1.4,3,2.1,4.8,2.3  c0.6,0,1.1,0.1,1.7,0.1c4.7,0,8-1.6,10.2-4.8l0.6-0.9l18.6,5.3l-0.4,1.4c-1,3.8-3.1,7.2-6,10.2s-6.5,5.3-10.5,7  C380.7,352.8,376.5,353.6,372.1,353.6z M378.5,310.2c-0.4-1-1-1.9-1.8-2.6c-1.3-1-2.6-1.6-4.3-1.7c-0.4,0-0.8,0-1.2,0  c-3.5,0-6.1,1.4-7.8,4.2L378.5,310.2z" />
<path fill="#FFFFFF" d="M371.5,290.5c9.5,0,16.8,2.8,22,8.3s7.8,13,7.8,22.6c0,1.6,0,2.8-0.1,3.6l-40.2,0.5c0.9,2.5,2.2,4.6,3.8,6.2  c1.6,1.6,3.5,2.5,5.7,2.7c0.6,0,1.2,0.1,1.8,0.1c5.1,0,8.9-1.8,11.4-5.4l16.2,4.7c-1,3.6-2.9,6.7-5.7,9.6c-2.8,2.8-6.1,5-10,6.6  s-7.9,2.4-12.1,2.4c-1,0-1.7,0-2.3-0.1c-5.2-0.4-10-2.1-14.5-5.1c-4.4-3-7.9-7-10.6-11.9c-2.6-4.9-3.9-10.3-3.9-16.1  c0-1.1,0-2,0.1-2.6c0.3-5,1.8-9.5,4.6-13.4c2.8-3.9,6.4-7,10.9-9.2C361,291.6,366,290.5,371.5,290.5 M380.3,311.7  c-0.3-2.2-1.2-3.9-2.7-5.1s-3.2-1.9-5-2c-0.5,0-0.9-0.1-1.3-0.1c-4.9,0-8.3,2.4-10.1,7.1L380.3,311.7 M371.5,287.6  c-5.9,0-11.3,1.2-16.2,3.6c-4.9,2.4-9,5.8-12,10.1c-3,4.3-4.8,9.3-5.1,14.8c-0.1,0.7-0.1,1.7-0.1,2.9c0,6.3,1.4,12.1,4.2,17.5  c2.8,5.3,6.7,9.7,11.5,12.9c4.8,3.3,10.1,5.2,15.8,5.6c0.7,0.1,1.5,0.1,2.6,0.1c4.5,0,8.9-0.9,13.2-2.6c4.2-1.7,7.9-4.2,11-7.3  c3.1-3.2,5.3-6.8,6.4-10.8l0.8-2.7l-2.7-0.8l-10-2.9l10.5-0.1h2.6l0.2-2.6c0.1-0.9,0.1-2.2,0.1-3.9c0-10.2-2.9-18.5-8.6-24.5  C389.8,290.7,381.7,287.6,371.5,287.6L371.5,287.6z M366.5,308.7c1.3-0.9,2.8-1.4,4.7-1.4c0.3,0,0.7,0,1.1,0  c1.3,0.1,2.4,0.6,3.5,1.4H366.5L366.5,308.7z M365.7,328.2l15.1-0.2c-1.9,2.3-4.7,3.4-8.4,3.4c-0.5,0-1,0-1.6-0.1  c-1.5-0.1-2.8-0.7-3.9-1.8C366.4,329.1,366.1,328.7,365.7,328.2L365.7,328.2z" />
<path fill="#2F3234" d="M402.5,352.8v-63.3h24v3.7c1.6-1.1,3.2-2,5-2.7c2.8-1.1,5.6-1.6,8.3-1.6c2.9,0,5.7,0.7,8.5,2.1  c2.7,1.4,5.2,3.4,7.3,6l0.6,0.7l-9.2,20.7l-1.5-2c-1.9-2.7-4.5-3.9-7.8-3.9c-3.6,0-6.2,1.2-7.9,3.7c-1.8,2.7-2.9,7.2-3.2,13.5v23.1  L402.5,352.8L402.5,352.8z" />
<path fill="#FFFFFF" d="M439.8,290.4c2.6,0,5.3,0.7,7.8,2c2.6,1.3,4.8,3.2,6.8,5.6l-7.8,17.6c-2.2-3-5.2-4.5-9-4.5  c-4.1,0-7.1,1.5-9.1,4.4s-3.2,7.7-3.5,14.2v21.8h-21.1V291H425v5.2c2-1.8,4.4-3.2,7-4.3C434.6,290.9,437.2,290.4,439.8,290.4   M439.8,287.5c-2.9,0-5.9,0.6-8.8,1.7c-1.1,0.4-2.1,0.9-3.1,1.4V288H425h-21.1H401v2.9v60.5v2.9h2.9H425h2.9v-2.9v-21.8  c0.3-5.9,1.3-10.2,3-12.6c1.5-2.1,3.6-3.1,6.8-3.1c2.9,0,5,1.1,6.6,3.4l2.9,4l2-4.5l7.8-17.6l0.7-1.6l-1.1-1.4  c-2.2-2.7-4.8-4.9-7.7-6.4C445.9,288.3,442.8,287.5,439.8,287.5L439.8,287.5z" />
<path fill="#2F3234" d="M483.8,354.2c-7.3,0-12.8-1.9-16.5-5.7c-3.7-3.8-5.5-9.8-5.5-18c0-2.2,0.2-5.2,0.6-8.8l1.4-11.5h-8.7  l-0.9-20.8l12.2-0.2L468,276l23.1-1.2l-1.6,14.1l12.4-0.2l2.5,21.4H487l-1,8.9c-0.1,1.3-0.2,2.2-0.2,2.8c0,2.7,0.5,4.9,1.5,6.4  c0.9,1.3,1.9,2,3.3,2c1.6,0,3.1-0.3,4.3-1.1c1.3-0.7,2.8-2.1,4.4-4.1l1.6-2l6.8,19l-0.4,0.6c-2.6,3.9-5.9,6.8-9.7,8.7  C493.7,353.2,489.1,354.2,483.8,354.2z" />
<path fill="#FFFFFF" d="M489.4,276.4l-1.6,14.1l12.7-0.2l2.2,18.5h-17l-1.1,10.2c-0.2,1.4-0.2,2.3-0.2,2.9c0,3,0.6,5.4,1.7,7.1  s2.6,2.6,4.5,2.6s3.6-0.4,5-1.2c1.4-0.8,3-2.3,4.8-4.4l5.7,15.9c-2.5,3.7-5.5,6.4-9.1,8.2c-3.6,1.8-8,2.7-13.1,2.7  c-6.9,0-12-1.8-15.4-5.3s-5.1-9.2-5.1-17c0-2.2,0.2-5.1,0.6-8.6l1.6-13h-9l-0.8-17.9l12-0.2l1.6-13.3L489.4,276.4 M492.7,273.4  l-3.4,0.2l-20.2,1l-2.4,0.1l-0.3,2.4l-1.3,10.8l-9.5,0.2l-2.9,0.1l0.1,2.9l0.8,17.9l0.1,2.7h2.7h5.7l-1.2,9.8  c-0.4,3.7-0.6,6.7-0.6,9c0,8.5,2,14.9,5.9,19s9.8,6.1,17.5,6.1c5.6,0,10.4-1,14.4-3s7.5-5.1,10.2-9.2l0.8-1.2l-0.5-1.4L503,325  l-1.7-4.8l-3.2,3.9c-1.9,2.3-3.2,3.3-4,3.8c-1,0.6-2.2,0.9-3.6,0.9c-0.7,0-1.4-0.2-2.1-1.3c-0.8-1.3-1.2-3.1-1.2-5.6  c0-0.3,0-1.1,0.2-2.6l0.9-7.7h14.4h3.2l-0.4-3.2l-2.2-18.5l-0.3-2.6h-2.6l-9.4,0.2l1.2-10.8L492.7,273.4L492.7,273.4z" />
</svg>