<?xml version="1.0" encoding="UTF-8" standalone="yes"?>
<svg version="1.2" baseProfile="tiny-ps" viewBox="0 0 1200 1200" xml:space="preserve" xmlns="http://www.w3.org/2000/svg">
  <title>ZS Associates Inc</title>
  <polygon fill="#C1C5C8" points="547.5,758.6 547.5,358.9 464.9,441.4 464.9,841.1 "/>
  <polygon fill="#97A3AE" points="82.6,758.6 82.6,358.9 0,441.4 0,841.1 "/>
  <polygon fill="#EC7700" points="116.2,957.4 198.8,874.8 198.8,642.3 116.2,724.9 "/>
  <polygon fill="#97A3AE" points="198.8,242.6 116.2,325.2 116.2,557.7 198.8,475.1 "/>
  <polygon fill="#96460A" points="116.2,557.7 116.2,724.9 198.8,642.3 198.8,475.1 "/>
  <polygon fill="#C1C5C8" points="232.5,841.1 232.5,1073.6 315,991 315,758.6 "/>
  <polygon fill="#EC7700" points="232.5,608.7 232.5,673.9 315,591.3 315,526.1 "/>
  <polygon fill="#97A3AE" points="315,126.4 232.5,209 232.5,441.4 315,358.9 "/>
  <polygon fill="#C1531B" points="232.5,841.1 315,758.6 315,591.3 232.5,673.9 "/>
  <polygon fill="#96460A" points="315,526.1 315,358.9 232.5,441.4 232.5,608.7 "/>
  <polygon fill="#C1C5C8" points="431.3,642.3 348.7,724.9 348.7,957.4 431.3,874.8 "/>
  <polygon fill="#EC7700" points="431.3,475.1 431.3,242.6 348.7,325.2 348.7,557.7 "/>
  <polygon fill="#C1531B" points="431.3,475.1 348.7,557.7 348.7,724.9 431.3,642.3 "/>
  <path fill="#898A8D" d="M647.9,758.6v-40.4L847.8,397h-192v-38.2H896v35.9L694.5,720.4H896v38.2L647.9,758.6z"/>
  <path fill="#898A8D" d="M1198.7,673.8c-8.5,56-60.7,91.2-133.7,91.2c-60.1,0-99.5-15.2-137.1-52.8l29.2-29.2&#xA;&#x9;c33.2,33.2,64.1,43.8,109,43.8c46.2,0,78.6-18.5,88.2-50.4c1.2-4.3,2-8.6,2.2-13.1c0.7-10.7-0.8-21.4-4.7-31.4&#xA;&#x9;c-2.9-8.1-12.1-18.9-19.1-23.8c-15.6-11.4-37.8-21-60.7-28.8l-44.7-15.3c-30.1-10.5-52.6-24.8-67.2-42.7c-17.2-21.1-23-51.8-18-82.7&#xA;&#x9;c0-0.2,0.4-2.1,0.4-2.1c12.5-53,56.1-84.1,124.5-84.1c51.1,0,79.5,15.4,113.8,46.3l-27.5,27.5c-24.7-22.5-45.8-36.7-87.9-36.7&#xA;&#x9;c-49.8,0-77.3,26.4-82.8,61.7c-2.1,19.6,3.2,34.2,13.3,46.6c10.3,12.7,28.4,22.9,48.3,29.8l42,14.3c30.5,10.2,64,26.3,82.7,43&#xA;&#x9;C1168.7,584.9,1207.6,615.1,1198.7,673.8"/>
</svg>