<?xml version="1.0" encoding="UTF-8"?>
<svg id="Layer_1" xmlns="http://www.w3.org/2000/svg" baseProfile="tiny-ps" version="1.2" viewBox="0 0 144 144">
<title>Sun Bum</title>
  <!-- Generator: Adobe Illustrator 29.1.0, SVG Export Plug-In . SVG Version: 2.1.0 Build 142)  -->
  <path d="M98.475,48.599c.596-1.412.895-2.864.895-4.332,0-6.235-5.422-11.911-14.182-14.88-2.462-3.373-7.6-5.531-13.24-5.531s-10.782,2.158-13.244,5.531c-8.76,2.974-14.183,8.645-14.183,14.88,0,1.468.299,2.92.893,4.332-14.189,6.998-22.617,18.816-22.617,31.798,0,20.835,22.046,37.784,49.151,37.784s49.152-16.949,49.152-37.784c0-12.984-8.431-24.8-22.624-31.798" fill="#fef492"/>
  <path d="M72.005,42.369c1.252,0,1.879,1.027,2.136,1.818,4.896.136,9.54.743,13.742,1.724,1.189-.221,2.22-.517,2.98-1.102,1.764-1.369,1.715-4.334,1.781-6.227,0-.306,0-.51-.031-.891-.345-3.364-6.653-2.731-10.879-2.076-2.892.451-5.856,1.088-9.472,1.071-3.613.017-6.58-.62-9.471-1.071-4.231-.655-11.031-1.288-11.377,2.076-.031.381-.031.585-.031.891.061,1.893.019,4.858,1.781,6.227.761.585,1.788.876,2.969,1.097,4.201-.976,8.84-1.583,13.733-1.719.258-.796.888-1.818,2.14-1.818" fill="#4f3625" fill-rule="evenodd"/>
  <path d="M77.706,51.418c-.223-.354-.688-.467-1.051-.254l-4.638,2.746-4.642-2.746c-.362-.214-.834-.1-1.057.254-.218.35-.103.809.259,1.025l3.961,2.34-3.961,2.344c-.361.216-.477.672-.254,1.029.218.352.69.46,1.052.248l4.642-2.746,4.638,2.746c.358.211.828.103,1.051-.248.222-.357.099-.813-.255-1.029l-3.961-2.344,3.961-2.34c.361-.216.471-.674.255-1.025" fill="#4f3625"/>
  <path d="M128.41,79.068c0-.151-.017-.308-.026-.458-.012-.345-.035-.688-.066-1.027-.011-.169-.03-.339-.047-.508-.03-.341-.07-.674-.113-1.015-.019-.15-.036-.3-.056-.455-.065-.447-.131-.892-.211-1.335-.005-.033-.01-.063-.019-.099-.086-.484-.183-.963-.291-1.439-.028-.125-.057-.245-.084-.369-.083-.354-.17-.71-.266-1.061-.04-.144-.079-.287-.122-.433-.091-.347-.194-.693-.3-1.038-.035-.125-.075-.245-.117-.367-.141-.446-.294-.897-.458-1.341,0-.007-.004-.021-.007-.031-.179-.479-.36-.958-.555-1.429-.021-.054-.052-.103-.066-.16-.176-.409-.352-.81-.535-1.212-.042-.089-.085-.18-.129-.272-.176-.38-.367-.761-.555-1.137-.035-.07-.068-.144-.108-.211-.707-1.377-1.499-2.725-2.37-4.034-.019-.016-.033-.04-.048-.059-.286-.431-.585-.859-.895-1.284-.002-.005-.005-.007-.005-.012-3.422-4.712-7.886-8.896-13.153-12.333.418-.953.649-1.992.649-3.08,0-4.179-3.374-7.637-7.806-8.315-6.183-9.58-16.694-15.888-28.625-15.888s-22.448,6.31-28.631,15.889c-4.426.677-7.801,4.14-7.801,8.314,0,1.078.23,2.107.641,3.056-4.889,3.181-9.091,7.01-12.406,11.309-.011.019-.03.036-.042.054-.336.435-.665.876-.982,1.323-.008.014-.012.021-.019.03-.641.902-1.243,1.823-1.807,2.765-.033.056-.065.113-.099.164-.239.411-.474.818-.695,1.227-.042.075-.08.146-.122.221-.503.93-.963,1.875-1.385,2.835-.036.083-.071.172-.108.256-.168.388-.325.78-.482,1.172-.047.115-.092.238-.136.355-.155.411-.306.822-.449,1.236-.023.07-.047.14-.07.211-.164.484-.315.975-.456,1.471-.029.094-.052.188-.08.284-.108.392-.211.782-.31,1.179-.033.148-.071.293-.104.441-.087.376-.164.75-.242,1.13-.021.122-.049.249-.073.376-.094.498-.178.991-.251,1.496-.008.077-.02.157-.031.232-.054.427-.106.85-.148,1.273-.016.157-.028.319-.043.477-.035.369-.058.74-.077,1.104-.012.15-.019.308-.026.463-.023.51-.038,1.019-.038,1.537,0,24.694,25.321,44.788,56.448,44.788s56.442-20.095,56.442-44.788c0-.496-.009-.987-.035-1.48M72.003,117.547c-23.564,0-43.238-12.911-47.566-29.952l95.121.002c-4.322,17.041-23.999,29.95-47.556,29.95M119.904,86.101H24.094c-.359-1.814-.545-3.667-.545-5.553,0-.564.019-1.123.056-1.682.005-.136.014-.268.024-.405.042-.554.094-1.104.165-1.653,0-.026.004-.047.009-.065.075-.536.164-1.058.265-1.584.023-.122.049-.248.072-.376.11-.538.23-1.076.376-1.609.007-.035.015-.068.029-.101.137-.508.291-1.015.456-1.518.036-.103.073-.216.108-.324.178-.526.371-1.055.582-1.574.016-.033.031-.066.043-.1.204-.496.42-.99.651-1.474.04-.089.082-.183.127-.273.251-.516.51-1.029.787-1.531.014-.031.033-.059.047-.085.272-.489.554-.969.85-1.442.045-.068.085-.139.127-.207.32-.503.649-.996.991-1.484.02-.023.033-.047.052-.07.336-.475.683-.94,1.048-1.403.037-.044.073-.096.113-.143.378-.485.776-.959,1.184-1.419.018-.025.035-.042.051-.064.402-.455.817-.902,1.243-1.341.026-.033.059-.065.091-.094.439-.456.896-.902,1.363-1.338.024-.024.047-.045.075-.069.454-.421.922-.841,1.4-1.25.028-.021.051-.045.077-.066.498-.418,1.003-.826,1.522-1.229,2.768-2.14,5.871-4.031,9.247-5.609-.831-1.548-1.288-3.199-1.288-4.917,0-1.116.195-2.201.554-3.251l.003-.012c1.602-4.661,6.587-8.579,13.338-10.788,2.099-3.176,6.954-5.403,12.616-5.403s10.512,2.227,12.605,5.403c6.757,2.204,11.732,6.126,13.341,10.788.365,1.059.555,2.147.555,3.263,0,1.717-.451,3.367-1.285,4.917,3.381,1.579,6.486,3.469,9.254,5.609.535.414,1.057.842,1.569,1.274.005.004.021.018.033.028,1.01.86,1.968,1.757,2.875,2.692.019.017.035.038.054.056.888.921,1.725,1.874,2.499,2.854.033.04.061.078.09.113.759.968,1.463,1.967,2.105,2.984.04.058.075.119.108.18.312.494.606.994.883,1.496.007.012.009.021.016.031.284.512.545,1.029.796,1.55.038.085.08.17.118.259.237.497.461,1.005.669,1.512.007.022.016.038.023.057.209.526.404,1.052.585,1.586.038.103.071.214.108.322.166.507.321,1.02.462,1.537.005.023.011.047.014.075.148.531.27,1.072.381,1.612.026.127.049.249.073.377.104.523.193,1.05.263,1.583.005.021.01.043.012.061.073.545.124,1.095.162,1.652.01.134.018.267.028.402.033.559.054,1.118.054,1.682,0,1.889-.19,3.744-.549,5.553" fill="#4f3625"/>
  <g>
    <path d="M117.071,111.49c-1.347,0-2.443,1.104-2.443,2.462s1.096,2.462,2.443,2.462,2.443-1.105,2.443-2.462-1.096-2.462-2.443-2.462M117.071,115.868c-1.053,0-1.877-.842-1.877-1.916s.825-1.922,1.877-1.922,1.879.844,1.879,1.922-.826,1.916-1.879,1.916" fill="#4f3625"/>
    <path d="M118.128,113.479c0-.44-.299-.912-.956-.912h-.864c-.073,0-.131.058-.131.131v2.475c0,.072.058.132.131.132h.297c.071,0,.131-.059.131-.132v-.793h.395l.38.847c.021.047.068.078.12.078h.339c.045,0,.087-.023.11-.061.024-.037.028-.085.009-.126l-.4-.871c.273-.154.437-.439.437-.768M116.737,113.131h.436c.353,0,.391.24.391.341,0,.08-.029.341-.398.341h-.429v-.682Z" fill="#4f3625"/>
  </g>
</svg>