<?xml version="1.0" encoding="utf-8"?>
<!-- Generator: Adobe Illustrator 25.4.1, SVG Export Plug-In . SVG Version: 6.00 Build 0)  -->
<svg version="1.2" baseProfile="tiny-ps" id="Layer_1" xmlns="http://www.w3.org/2000/svg" xmlns:xlink="http://www.w3.org/1999/xlink"
	 viewBox="0 0 1024 1024" xml:space="preserve">
<title>Jet Delivery</title>
<g id="_x23_e3001bff">
	<path fill="#E3001B" d="M0,0h1024v1024H0V0 M196,346.2c47.2,80.4,94.3,160.8,141.6,241.2c-46.4,0-92.9,0-139.3,0
		c0,31.1,0.1,62.1,0,93.2c211,0,421.9,0.1,632.9,0c-47.5-80.2-94.2-160.8-141.7-241c46.9-0.3,93.9,0,140.8-0.1c0-31.1,0-62.1,0-93.1
		C618.8,346.1,407.4,346.2,196,346.2 M776.4,462.7c-8.9,2.1-16.2,9.5-17.9,18.5c-0.8,5.1-0.4,10.6,2.1,15.2
		c4.2,8.5,13.9,14,23.3,12.9c11.1-0.8,20.6-10.3,21.5-21.4c1-9.5-4.4-19.3-13.1-23.4C787.5,462,781.8,461.6,776.4,462.7z"/>
	<path fill="#E3001B" d="M367.4,439.5c68.4-0.2,136.9,0,205.4-0.1c6.3,11,13.1,21.7,19,32.9c-68.3-0.3-136.6-0.1-204.9-0.1
		C380.1,461.4,374.1,450.2,367.4,439.5z"/>
	<path fill="#E3001B" d="M777.4,465.7c12-2.9,25,7,25,19.4c0.8,11.3-9.3,21.5-20.5,21.3c-10.9,0.4-20.8-9.4-20.6-20.3
		C760.9,476.5,768.2,467.7,777.4,465.7 M772.4,472.3c0.1,9.1,0,18.1,0,27.2c1.4,0,2.8,0,4.2,0c0-3.7,0-7.4,0-11.1
		c1.7,0,3.5,0,5.2,0.1c2.2,3.7,4.4,7.4,6.6,11c1.6,0,3.2,0,4.8,0c-2.4-3.8-4.9-7.5-7.1-11.4c6.7-1.2,8.5-11.4,2.4-14.5
		C783.5,471.2,777.7,472.7,772.4,472.3z"/>
	<path fill="#E3001B" d="M776.6,475.5c3.3,0.2,7-0.8,9.9,1.2c1.8,1.5,1.7,4.4,0.7,6.4c-2.5,3.4-7,1.9-10.6,2.2
		C776.6,482,776.6,478.8,776.6,475.5z"/>
	<path fill="#E3001B" d="M436.7,557.5c68.5,0,136.9,0,205.4,0c5.9,9.9,11.6,19.9,17.5,29.8c-68.5,0-136.9,0-205.4,0
		C448.4,577.4,442.6,567.4,436.7,557.5z"/>
</g>
<g id="_x23_ffffffff">
	<path fill="#FFFFFF" d="M196,346.2c211.4,0,422.8-0.1,634.2,0.1c0,31,0,62.1,0,93.1c-46.9,0.1-93.9-0.1-140.8,0.1
		c47.5,80.1,94.2,160.8,141.7,241c-211,0.2-421.9,0-632.9,0c0.1-31.1,0-62.1,0-93.2c46.4,0,92.9,0,139.3,0
		C290.3,507,243.1,426.6,196,346.2 M367.4,439.5c6.7,10.7,12.7,21.9,19.4,32.6c68.3,0,136.6-0.2,204.9,0.1
		c-5.9-11.2-12.7-21.9-19-32.9C504.3,439.5,435.8,439.3,367.4,439.5 M436.7,557.5c5.9,9.9,11.7,19.9,17.5,29.8
		c68.5,0,136.9,0,205.4,0c-5.9-9.9-11.7-19.9-17.5-29.8C573.6,557.6,505.2,557.5,436.7,557.5z"/>
	<path fill="#FFFFFF" d="M776.4,462.7c5.3-1.1,11.1-0.6,16,1.9c8.6,4.1,14.1,13.9,13.1,23.4c-0.8,11-10.4,20.6-21.5,21.4
		c-9.5,1-19.2-4.4-23.3-12.9c-2.5-4.6-2.9-10.1-2.1-15.2C760.2,472.2,767.5,464.7,776.4,462.7 M777.4,465.7
		c-9.2,2-16.5,10.9-16.1,20.4c-0.2,10.9,9.7,20.6,20.6,20.3c11.2,0.2,21.2-10.1,20.5-21.3C802.4,472.6,789.4,462.7,777.4,465.7z"/>
	<path fill="#FFFFFF" d="M772.4,472.3c5.3,0.4,11.1-1.1,16,1.2c6.1,3.1,4.3,13.4-2.4,14.5c2.2,3.9,4.8,7.6,7.1,11.4
		c-1.6,0-3.2,0-4.8,0c-2.2-3.6-4.4-7.4-6.6-11c-1.8,0-3.5,0-5.2-0.1c0,3.7,0,7.4,0,11.1c-1.4,0-2.8,0-4.2,0
		C772.4,490.4,772.5,481.4,772.4,472.3 M776.6,475.5c0,3.3,0,6.5,0,9.8c3.5-0.3,8.1,1.1,10.6-2.2c1-2,1.1-4.9-0.7-6.4
		C783.6,474.7,779.9,475.8,776.6,475.5z"/>
</g>
</svg>
