<?xml version="1.0" encoding="UTF-8" standalone="yes"?>
<svg version="1.2" viewBox="0 0 600 600" xml:space="preserve" baseProfile="tiny-ps" xmlns="http://www.w3.org/2000/svg">
  <title>bimi-svg-tiny-12-ps</title>
  <rect class="st0" width="600" height="601" fill="#001D9B"/>
  <g>
    <g>
      <polygon class="st1" points="68.8,284.1 55.4,289 55.4,294.9 62.4,292.4 62.4,322.2 55.4,322.2 55.4,328 75.8,328 75.8,322.2 &#xA;&#x9;&#x9;&#x9;68.8,322.2 &#x9;&#x9;" fill="#FFFFFF"/>
      <path class="st1" d="M115.3,297.4c4.1-2.4,6.4-6.6,6.4-11.6c0-7.5-6.5-13.8-14.1-13.8c-8.6,0-15.1,6.2-15.1,14.3&#xA;&#x9;&#x9;&#x9;c0,4.9,2.5,9.1,6.7,11.4c-5.8,2.5-9.5,8.2-9.5,14.6c0,9.4,7.7,16.7,17.6,16.7c9.7,0,17.6-7.7,17.6-17.2&#xA;&#x9;&#x9;&#x9;C125,305.6,121.1,299.8,115.3,297.4z M98.6,286.4c0-4.8,3.9-8.6,8.6-8.6c4.7,0,8.5,3.9,8.5,8.7c0,4.8-3.9,8.6-8.6,8.6&#xA;&#x9;&#x9;&#x9;C102.4,295.1,98.6,291.2,98.6,286.4z M118.3,312c0,6.2-4.9,11.2-11,11.2c-6.3,0-11.2-4.9-11.2-11.2c0-6,5-11.1,11-11.1&#xA;&#x9;&#x9;&#x9;C113.3,300.9,118.3,305.9,118.3,312z" fill="#FFFFFF"/>
      <path class="st1" d="M149.4,283c-5.3,0-10.5,2.3-14.3,6.4c-3.5,3.7-4.9,7.8-4.9,13.8v5.7c0,6.2,1.7,10.7,5.6,14.5&#xA;&#x9;&#x9;&#x9;c3.7,3.6,8.5,5.6,13.6,5.6c5.3,0,10.6-2.3,14.3-6.3c3.4-3.7,4.9-7.8,4.9-13.9v-5.7c0-6.3-1.7-10.7-5.6-14.6&#xA;&#x9;&#x9;&#x9;C159.4,285,154.5,283,149.4,283z M162.2,303.2v5.6c0,3.5-0.4,6.2-2.3,8.9c-2.3,3.2-6.3,5.2-10.5,5.2c-4.1,0-7.9-1.9-10.2-5&#xA;&#x9;&#x9;&#x9;c-2.1-2.8-2.6-5.7-2.6-9.1v-5.6c0-3.3,0.4-6.1,2.4-8.9c2.3-3.3,6.3-5.3,10.4-5.3c4.1,0,7.9,1.9,10.2,5&#xA;&#x9;&#x9;&#x9;C161.7,296.8,162.2,299.6,162.2,303.2z" fill="#FFFFFF"/>
      <path class="st1" d="M192.8,283c-5.3,0-10.5,2.3-14.3,6.4c-3.5,3.7-4.9,7.8-4.9,13.8v5.7c0,6.2,1.7,10.7,5.6,14.5&#xA;&#x9;&#x9;&#x9;c3.7,3.6,8.5,5.6,13.6,5.6c5.3,0,10.6-2.3,14.3-6.3c3.4-3.7,4.9-7.8,4.9-13.9v-5.7c0-6.3-1.7-10.7-5.6-14.6&#xA;&#x9;&#x9;&#x9;C202.8,285,197.9,283,192.8,283z M205.6,303.2v5.6c0,3.5-0.4,6.2-2.3,8.9c-2.3,3.2-6.3,5.2-10.5,5.2c-4.1,0-7.9-1.9-10.2-5&#xA;&#x9;&#x9;&#x9;c-2.1-2.8-2.6-5.7-2.6-9.1v-5.6c0-3.3,0.4-6.1,2.4-8.9c2.3-3.3,6.3-5.3,10.4-5.3c4.1,0,7.9,1.9,10.2,5&#xA;&#x9;&#x9;&#x9;C205.1,296.8,205.6,299.6,205.6,303.2z" fill="#FFFFFF"/>
      <path class="st1" d="M260.2,314.9c-2.1,4.8-7.3,8-12.9,8c-8.6,0-15.3-6.5-15.3-14.8c0-8.5,6.5-15.1,14.9-15.1&#xA;&#x9;&#x9;&#x9;c5.2,0,10.2,2.8,13,7.3l0.2,0.3h5.5v-13h-5.8v4.7c-3.6-3.5-8.1-5.4-13.2-5.4c-5.5,0-10.6,2.2-14.8,6.4c-3.8,3.8-5.9,9.3-5.9,14.8&#xA;&#x9;&#x9;&#x9;c0,11.3,9.6,20.8,20.9,20.8c9,0,17.1-5.5,20-13.7l0.3-0.8h-6.7L260.2,314.9z" fill="#FFFFFF"/>
      <path class="st1" d="M291.2,286.9c-11.7,0-21.3,9.5-21.3,21.1c0,11.6,9.5,21,21.1,21c11.7,0,21.1-9.6,21.1-21.4&#xA;&#x9;&#x9;&#x9;C312.2,296.2,302.7,286.9,291.2,286.9z M306.1,307.9c0,8.3-6.8,15.1-15.1,15.1c-8.3,0-15.1-6.8-15.1-15.1c0-8.3,6.8-15,15.1-15&#xA;&#x9;&#x9;&#x9;C299.4,292.9,306.1,299.6,306.1,307.9z" fill="#FFFFFF"/>
      <path class="st1" d="M354.4,305.3c0-5.3-1.4-8.8-2.2-10.5c-2.5-5.1-9.1-7.9-14.1-7.9c-5.1,0-9.8,2.3-12.6,6.1v-5.4h-12.7v5.8h6.6&#xA;&#x9;&#x9;&#x9;v28.8h-6.6v5.8h19.3v-5.8h-6.6v-15.7c0-3.3,0-6.7,2.5-9.6c2.1-2.4,5.4-3.9,8.8-3.9c2.2,0,7.4,0.4,9.7,4.5c1.7,2.8,1.8,5.9,1.8,9.7&#xA;&#x9;&#x9;&#x9;v15.1h-6.6v5.8H361v-5.8h-6.6V305.3z" fill="#FFFFFF"/>
      <path class="st1" d="M371.5,311.5l0-18.2h8.7v-5.8h-8.7v-14.1h-6.1v14.1h-7.6v5.8h7.6v19.4c0,11,4.1,16.3,12.5,16.3h2.8v-5.9h-2.8&#xA;&#x9;&#x9;&#x9;C371.4,323,371.5,317.2,371.5,311.5z" fill="#FFFFFF"/>
      <path class="st1" d="M418.8,294.8c-3.8-5.2-9-7.9-15.5-7.9c-7.3,0-14.2,3.8-17.5,9.6l-0.1,0.3c-1.6,2.9-3.1,5.6-3.2,11.2&#xA;&#x9;&#x9;&#x9;c-0.1,4.1,1,8,3.2,11.6c3.5,5.9,10.3,9.5,17.7,9.5c6.3,0,11.8-2.8,15.4-7.8v6.8h11.4v-5.8h-5.3v-28.8h5.3v-5.8h-11.4V294.8z&#xA;&#x9;&#x9;&#x9; M418.9,307.9c0,8.5-6.7,15.2-15.3,15.2c-8.2,0-15.1-6.9-15.1-15.1c0-8.3,6.9-15.1,15.3-15.1C412.2,292.9,418.9,299.6,418.9,307.9&#xA;&#x9;&#x9;&#x9;z" fill="#FFFFFF"/>
      <path class="st1" d="M465.7,314.9c-2.1,4.8-7.3,8-12.9,8c-8.6,0-15.3-6.5-15.3-14.8c0-8.5,6.5-15.1,14.9-15.1&#xA;&#x9;&#x9;&#x9;c5.2,0,10.2,2.8,13,7.3l0.2,0.3h5.5v-13h-5.8v4.7c-3.6-3.6-8.1-5.4-13.2-5.4c-5.5,0-10.6,2.2-14.8,6.4c-3.8,3.8-5.9,9.3-5.9,14.8&#xA;&#x9;&#x9;&#x9;c0,11.3,9.6,20.8,20.9,20.8c9,0,17.1-5.5,20-13.7l0.3-0.8h-6.7L465.7,314.9z" fill="#FFFFFF"/>
      <path class="st1" d="M488.8,311.5l0-18.2h8.7v-5.8h-8.7v-14.1h-6.1v14.1h-7.6v5.8h7.6v19.4c0,11,4.1,16.3,12.5,16.3h2.8v-5.9h-2.8&#xA;&#x9;&#x9;&#x9;C488.8,323,488.8,317.2,488.8,311.5z" fill="#FFFFFF"/>
      <path class="st1" d="M526.3,307.5c-2.9-1.7-6.2-2.4-9.1-3c-4.3-0.9-8.2-2.1-8.2-6.4c0-4,3.6-6.1,7.1-6.1c1.9,0,3.7,0.6,5.2,1.7&#xA;&#x9;&#x9;&#x9;c1.4,1.1,2.2,2.6,2.3,4.3l0,0.6h5.2v-11.1h-5.2v2.5c-2-2.1-4.8-3.2-8.3-3.2c-3.4,0-8.3,1.2-10.9,4.6c-1.5,1.9-2.1,4.1-2.1,7.1&#xA;&#x9;&#x9;&#x9;c0,3.6,1.8,6.8,4.9,8.8c2.6,1.6,5.6,2.2,8.4,2.9l0.6,0.1c4.2,0.9,8.5,1.8,8.5,6.7c0,4.3-4,6.9-7.9,6.9c-5.1,0-9-3.3-9.4-7.8l0-0.5&#xA;&#x9;&#x9;&#x9;h-5.2V328h5.2v-3.4c2.4,3,5.9,4.5,10.3,4.5c5.2,0,10.1-2.5,12-6.1c0.9-1.7,1.8-3.6,1.8-6.3C531.4,312.8,529.5,309.5,526.3,307.5z" fill="#FFFFFF"/>
    </g>
    <path class="st1" d="M541.9,283.1c0-1-0.8-1.6-2.5-1.6h-2.3v5.9h1.3V285h0.9l1.2,2.5h1.4l-1.3-2.7&#xA;&#x9;&#x9;C541.5,284.6,541.9,284,541.9,283.1 M539.3,284.2h-0.8v-1.9h0.8c1,0,1.4,0.3,1.4,1C540.6,283.9,540.2,284.2,539.3,284.2" fill="#FFFFFF"/>
    <path class="st1" d="M543.1,280.9c-1-1-2.3-1.6-3.8-1.6c-1.4,0-2.7,0.5-3.7,1.5c-1,1-1.6,2.4-1.6,3.8c0,1.4,0.5,2.7,1.5,3.7&#xA;&#x9;&#x9;c1,1,2.3,1.6,3.8,1.6c1.4,0,2.7-0.5,3.8-1.6c1-1,1.6-2.3,1.6-3.8C544.6,283.1,544.1,281.9,543.1,280.9 M542.5,287.8&#xA;&#x9;&#x9;c-0.9,0.9-2,1.3-3.3,1.3c-1.1,0-2.3-0.5-3.1-1.3c-0.9-0.9-1.3-2-1.3-3.2c0-1.2,0.5-2.3,1.4-3.2c0.9-0.8,1.9-1.3,3.2-1.3&#xA;&#x9;&#x9;c1.2,0,2.3,0.5,3.2,1.4c0.8,0.9,1.3,2,1.3,3.2C543.8,285.8,543.4,286.9,542.5,287.8" fill="#FFFFFF"/>
  </g>
</svg>