<?xml version="1.0" encoding="UTF-8" standalone="yes"?>
<svg version="1.2" viewBox="0 0 600 600" xml:space="preserve" baseProfile="tiny-ps" xmlns="http://www.w3.org/2000/svg">
  <title>bimi-svg-tiny-12-ps</title>
  <rect y="-1" class="st0" width="600" height="601" fill="#8CB5B9"/>
  <g>
    <g>
      <path class="st1" d="M74.3,199.2c0-2.4,2.1-4.5,4.5-4.5h19.9c2.4,0,4.5,2.1,4.5,4.5v156.9c0,2.4-2.1,4.5-4.5,4.5H78.8&#xA;&#x9;&#x9;&#x9;c-2.4,0-4.5-2.1-4.5-4.5V199.2z" fill="#FFFFFF"/>
      <path class="st1" d="M124.8,215.8c0-9,7.1-16.4,16.1-16.4c9.2,0,16.6,7.4,16.6,16.4s-7.3,16.4-16.6,16.4&#xA;&#x9;&#x9;&#x9;C131.9,232.2,124.8,224.9,124.8,215.8z M126.9,270.4c0-2.6,2.1-4.5,4.5-4.5h19.7c2.4,0,4.5,1.9,4.5,4.5v85.8&#xA;&#x9;&#x9;&#x9;c0,2.4-2.1,4.5-4.5,4.5h-19.7c-2.4,0-4.5-2.1-4.5-4.5C126.9,356.2,126.9,270.4,126.9,270.4z" fill="#FFFFFF"/>
      <path class="st1" d="M177.2,215.8c0-9,7.1-16.4,16.1-16.4c9.2,0,16.6,7.4,16.6,16.4s-7.3,16.4-16.6,16.4&#xA;&#x9;&#x9;&#x9;C184.3,232.2,177.2,224.9,177.2,215.8z M179.3,270.4c0-2.6,2.1-4.5,4.5-4.5h19.7c2.4,0,4.5,1.9,4.5,4.5v85.8&#xA;&#x9;&#x9;&#x9;c0,2.4-2.1,4.5-4.5,4.5h-19.7c-2.4,0-4.5-2.1-4.5-4.5V270.4z" fill="#FFFFFF"/>
      <path class="st1" d="M231.7,270.4c0-2.6,2.1-4.5,4.5-4.5h9c2.1,0,3.3,1.2,4,2.8l3.3,8.8c3.6-3.8,15.2-14,33.4-14&#xA;&#x9;&#x9;&#x9;c30.1,0,42.2,22.5,42.2,47.2v45.5c0,2.4-2.1,4.5-4.5,4.5h-19.4c-2.6,0-4.5-2.1-4.5-4.5v-46.9c0-12.3-6.4-20.2-17.8-20.2&#xA;&#x9;&#x9;&#x9;c-12.3,0-19.9,8.5-22.3,14.9v52.2c0,3.3-1.4,4.5-5.9,4.5h-17.5c-2.4,0-4.5-2.1-4.5-4.5L231.7,270.4L231.7,270.4z" fill="#FFFFFF"/>
      <path class="st1" d="M357.8,327c0,0-7.1-8.1-7.1-22.3c0-22,17.8-41.3,41.3-41.3h43.1c2.6,0,4.5,1.9,4.5,4.5v7.8&#xA;&#x9;&#x9;&#x9;c0,1.7-0.9,3.6-2.6,4l-13.3,4.3c0,0,9.5,7.3,9.5,24.2c0,18.7-15.6,37.2-40.5,37.2c-9,0-15.2-1.9-19-1.9c-3.3,0-8.8,3.3-8.8,9&#xA;&#x9;&#x9;&#x9;c0,5,4.3,8.1,9.5,8.1h30.3c21.6,0,39.1,12.3,39.1,33.2c0,21.8-17.5,40.3-51.9,40.3c-35.1,0-48.4-17.3-48.4-32.5&#xA;&#x9;&#x9;&#x9;c0-14.2,11.9-21.1,14.2-22.5v-0.7c-4-1.2-17.8-7.6-17.8-24.9C340,335.1,357.8,327,357.8,327z M391.7,410.5c13.3,0,22-5.9,22-14.9&#xA;&#x9;&#x9;&#x9;c0-4.3-3.3-11.6-17.3-11.6c-5.2,0-10.4,0.2-15.4,0.9c-2.8,0.9-10.2,4.3-10.2,11.6C370.9,404.8,378.9,410.5,391.7,410.5z&#xA;&#x9;&#x9;&#x9; M392.7,323c9.7,0,16.4-7.1,16.4-17.1s-6.6-17.1-16.4-17.1c-9.5,0-16.6,7.1-16.6,17.1S383.2,323,392.7,323z" fill="#FFFFFF"/>
      <path class="st1" d="M496,263.5c26.8,0,48.6,22.8,48.6,49.5c0,27.3-21.8,50-48.6,50c-26.8,0-48.6-22.8-48.6-50&#xA;&#x9;&#x9;&#x9;C447.4,286.3,469.2,263.5,496,263.5z M496,337.5c12.6,0,22.8-10.9,22.8-24.4c0-13.3-10.2-23.9-22.8-23.9&#xA;&#x9;&#x9;&#x9;c-12.8,0-22.8,10.7-22.8,23.9C473.3,326.6,483.2,337.5,496,337.5z" fill="#FFFFFF"/>
    </g>
  </g>
</svg>