<?xml version="1.0" encoding="UTF-8" standalone="yes"?>
<svg version="1.2" baseProfile="tiny-ps" viewBox="0 0 141.73 141.73" xml:space="preserve" xmlns="http://www.w3.org/2000/svg">
  <title>LUSINI Group GmbH</title>
  <g id="Flaeche">
    <rect fill="#D6A444" width="141.73" height="141.73"/>
  </g>
  <g id="Logo">
    <path fill="#FFFFFF" d="M116.22,116.19H61.33c-2.95,0-5.41-0.21-7.5-0.65c-2.43-0.51-4.48-1.49-6.09-2.92&#xA;&#x9;&#x9;c-1.64-1.46-2.83-3.4-3.52-5.77c-0.61-2.08-0.91-4.6-0.91-7.72v-2.25c-3.94-0.96-7.26-2.47-9.87-4.48&#xA;&#x9;&#x9;c-2.81-2.16-4.87-4.94-6.14-8.25c-1.19-3.1-1.79-6.78-1.79-10.93V25.49h24.76v65.54c2.24,0.24,4.72,0.36,7.41,0.36h58.53V116.19z&#xA;&#x9;&#x9; M50.27,98.01v1.13c0,2.41,0.21,4.34,0.63,5.76c0.33,1.11,0.81,1.94,1.47,2.53c0.69,0.61,1.66,1.05,2.89,1.3&#xA;&#x9;&#x9;c1.6,0.33,3.64,0.5,6.08,0.5h47.97v-10.9H57.68C55.04,98.34,52.56,98.23,50.27,98.01z M32.47,32.44v40.79&#xA;&#x9;&#x9;c0,3.3,0.45,6.14,1.33,8.45c0.81,2.13,2.08,3.84,3.89,5.23c1.49,1.15,3.37,2.08,5.62,2.78V32.44H32.47z"/>
  </g>
</svg>