<?xml version="1.0" encoding="UTF-8"?>
<svg version="1.2" baseProfile="tiny-ps" id="svg13" xmlns="http://www.w3.org/2000/svg" xmlns:xlink="http://www.w3.org/1999/xlink" viewBox="0 0 500 500">
    <title>REDGIFS</title>
	<defs id="defs11">
        <linearGradient id="paint0_linear" x1="428.05499" y1="95.8853" x2="63.2911" y2="95.8853" gradientUnits="userSpaceOnUse">
            <stop stop-color="#8C18F1" id="stop6"/>
            <stop offset="1" stop-color="#E5194D" id="stop8"/>
        </linearGradient>
	</defs>
    <g>
        <rect id="rect159" width="500" height="500" x="0" y="0" fill="#000000" />
    </g>
    <g>
        <g id="g113" transform="matrix(1.2319745,0,0,1.2319745,-57.143624,142.1139)">
            <path d="m 213.152,120.307 h -18.401 c -2.582,0 -4.676,-2.094 -4.676,-4.676 0,-0.721 0.163,-1.404 0.455,-2.013 -0.61,0.291 -1.293,0.454 -2.014,0.454 -2.583,0 -4.676,-2.094 -4.676,-4.677 V 60.9445 c 0,-3.9412 3.206,-7.1471 7.147,-7.1471 h 22.47 c 11.003,0 19.226,12.3447 19.226,23.3822 v 20.7843 c 0,10.7181 -7.172,19.6181 -17.846,22.1481 -0.552,0.13 -1.116,0.195 -1.685,0.195 z M 193.193,63.1503 v 46.2447 c 0,0.721 -0.164,1.404 -0.455,2.013 0.61,-0.291 1.293,-0.454 2.013,-0.454 h 18.161 c 6.335,-1.598 10.418,-6.673 10.418,-12.9901 V 77.1796 c 0,-6.6868 -5.167,-14.0293 -9.873,-14.0293 z m -85.731,57.1567 c -1.546,0 -3.058,-0.765 -3.95,-2.166 L 90.3421,97.4441 H 79.7917 c -3.9417,0 -7.1477,-3.2059 -7.1477,-7.1471 v 25.333 c 0,2.583 -2.0936,4.677 -4.6764,4.677 -2.5828,0 -4.6765,-2.094 -4.6765,-4.677 V 61.9836 c 0,-3.9412 3.206,-7.1472 7.1477,-7.1472 h 24.5483 c 8.3469,0 15.0689,9.3804 15.0689,17.147 0,7.235 -5.6,15.7186 -13.2726,18.3821 0.2943,0.3167 0.5612,0.6622 0.7987,1.0347 L 111.403,113.12 c 1.387,2.179 0.744,5.069 -1.435,6.456 -0.778,0.495 -1.647,0.731 -2.506,0.731 z M 72.644,64.1894 v 24.8137 c 0,-3.9412 3.206,-7.1471 7.1477,-7.1471 h 12.0778 c 4.5546,0 8.8335,-6.1587 8.8335,-9.8726 0,-3.0775 -3.0661,-7.794 -5.7159,-7.794 z m 55.633,19.2762 c -1.559,-0.7584 -2.633,-2.3576 -2.633,-4.2077 V 61.9836 c 0,-3.9412 3.206,-7.1472 7.148,-7.1472 h 33.901 c 2.583,0 4.676,2.0937 4.676,4.6765 0,2.5828 -2.093,4.6765 -4.676,4.6765 h -31.696 v 15.0685 c 0,0.9613 -0.29,1.8549 -0.788,2.598 h 32.484 c 2.583,0 4.676,2.0936 4.676,4.6764 0,2.5828 -2.093,4.6765 -4.676,4.6765 h -31.696 v 19.7452 h 31.696 c 2.583,0 4.676,2.093 4.676,4.676 0,2.583 -2.093,4.677 -4.676,4.677 h -33.901 c -3.942,0 -7.148,-3.206 -7.148,-7.147 V 89.003 c 0,-2.2307 1.027,-4.2258 2.633,-5.5374 z m 118.955,17.6164 c 0,10.6 10.489,19.225 23.382,19.225 12.893,0 23.382,-8.625 23.382,-19.225 V 89.0032 c 0,-3.9412 -3.206,-7.1471 -7.147,-7.1471 h -16.235 c -2.583,0 -4.676,2.0937 -4.676,4.6765 0,2.5828 2.093,4.6764 4.676,4.6764 h 14.029 v 9.873 c 0,5.351 -6.425,9.872 -14.029,9.872 -7.604,0 -14.029,-4.521 -14.029,-9.872 V 73.0228 c 0,-4.5653 6.128,-9.8725 14.029,-9.8725 7.901,0 14.029,5.3072 14.029,9.8725 v 2.0784 c 0,2.5828 2.094,4.6765 4.677,4.6765 2.583,0 4.676,-2.0937 4.676,-4.6765 v -2.0784 c 0,-10.4211 -10.707,-19.2254 -23.382,-19.2254 -12.675,0 -23.382,8.8043 -23.382,19.2254 z m 67.029,19.225 c -2.583,0 -4.677,-2.094 -4.677,-4.676 V 58.4738 c 0,-2.5828 2.094,-4.6764 4.677,-4.6764 2.583,0 4.676,2.0936 4.676,4.6764 v 57.1572 c 0,2.582 -2.093,4.676 -4.676,4.676 z m 18.186,-41.0489 c 0,1.85 1.074,3.4491 2.633,4.2075 -1.606,1.3117 -2.633,3.3068 -2.633,5.5374 v 27.666 c 0,2.583 2.094,4.677 4.677,4.677 2.582,0 4.676,-2.094 4.676,-4.677 V 91.2088 h 30.657 c 2.583,0 4.676,-2.0937 4.676,-4.6765 0,-2.5828 -2.093,-4.6764 -4.676,-4.6764 h -31.444 c 0.497,-0.7431 0.787,-1.6366 0.787,-2.5978 V 63.1503 h 30.657 c 2.583,0 4.676,-2.0937 4.676,-4.6765 0,-2.5828 -2.093,-4.6764 -4.676,-4.6764 h -32.862 c -3.942,0 -7.148,3.2059 -7.148,7.1471 z m 59.728,29.1109 c 4.24,8.479 10.571,11.938 21.85,11.938 10.246,0 21.304,-6.953 21.304,-18.186 0,-11.7249 -10.675,-16.1989 -17.739,-19.1592 l -0.023,-0.01 c -0.576,-0.2412 -1.144,-0.4794 -1.7,-0.7177 -0.624,-0.2675 -1.263,-0.5346 -1.91,-0.8053 l -0.069,-0.0289 c -7.136,-2.9842 -11.814,-5.2519 -11.814,-9.4163 v -3.1177 c 0,-3.2587 5.139,-5.7156 11.951,-5.7156 6.372,0 9.873,2.732 9.873,3.6372 0,2.5828 2.093,4.6765 4.676,4.6765 2.583,0 4.677,-2.0937 4.677,-4.6765 0,-7.4054 -8.265,-12.9901 -19.226,-12.9901 -12.543,0 -21.304,6.1962 -21.304,15.0685 v 3.1177 c 0,10.7024 10.149,14.9461 17.559,18.0449 v 2e-4 l 0.021,0.0084 c 0.637,0.2666 1.268,0.5302 1.882,0.7939 0.542,0.2322 1.095,0.4644 1.654,0.6989 l 0.138,0.0577 c 7.467,3.1293 12.001,5.4 12.001,10.5334 0,5.284 -6.179,8.833 -11.951,8.833 -9.375,0 -11.502,-2.805 -13.483,-6.768 -1.156,-2.309 -3.961,-3.247 -6.275,-2.091 -2.31,1.155 -3.246,3.964 -2.092,6.274 z" fill="url(#paint0_linear)" id="path2" />
            <path d="m 187.477,60.9448 c 0,-1.9386 1.572,-3.5101 3.51,-3.5101 h 22.47 c 4.475,0 8.387,2.7971 11.129,6.5477 2.751,3.7619 4.459,8.6502 4.459,13.1973 V 97.964 c 0,8.415 -5.395,16.321 -15.048,18.609 -0.282,0.067 -0.568,0.097 -0.845,0.097 h -18.401 v -2.079 h 18.401 c 0.128,0 0.253,-0.014 0.366,-0.041 8.674,-2.055 13.449,-9.091 13.449,-16.586 V 77.1797 c 0,-4.069 -1.545,-8.5336 -4.058,-11.9705 -2.522,-3.4484 -5.884,-5.6961 -9.452,-5.6961 h -22.47 c -0.791,0 -1.432,0.641 -1.432,1.4317 v 48.4502 h -2.078 z M 66.9284,61.9839 c 0,-1.9386 1.5715,-3.5101 3.5101,-3.5101 h 24.5486 c 3.3234,0 6.1929,2.0914 8.1769,4.6962 1.989,2.6119 3.254,5.9452 3.254,8.8135 0,3.4267 -1.692,7.296 -4.279,10.292 -2.5906,2.9994 -6.2317,5.2962 -10.2695,5.2962 H 79.7914 c -0.7907,0 -1.4317,0.641 -1.4317,1.4317 v 1.2935 c 0,0.7907 0.641,1.4317 1.4317,1.4317 h 11.7609 c 1.2001,0 2.317,0.6131 2.9613,1.6256 l 13.8204,21.7188 -1.753,1.115 L 92.7601,94.47 C 92.4973,94.0571 92.0418,93.807 91.5523,93.807 H 79.7914 c -1.9386,0 -3.5101,-1.5715 -3.5101,-3.5101 v -1.2935 c 0,-1.9386 1.5715,-3.5101 3.5101,-3.5101 h 12.0781 c 3.2366,0 6.3504,-1.86 8.6965,-4.5763 2.349,-2.7197 3.774,-6.1248 3.774,-8.9335 0,-2.3277 -1.059,-5.2296 -2.83,-7.5541 -1.7754,-2.3314 -4.1022,-3.8772 -6.5229,-3.8772 H 70.4385 c -0.7907,0 -1.4317,0.641 -1.4317,1.4317 V 115.63 h -2.0784 z m 62.3526,0 c 0,-1.9386 1.572,-3.5101 3.51,-3.5101 h 33.902 v 2.0784 h -33.902 c -0.79,0 -1.431,0.641 -1.431,1.4317 V 79.258 h -2.079 z m 2.079,27.0194 c 0,-0.7907 0.641,-1.4317 1.431,-1.4317 h 33.902 v -2.0784 h -33.902 c -1.938,0 -3.51,1.5715 -3.51,3.5101 v 24.1557 c 0,1.939 1.572,3.511 3.51,3.511 h 33.902 v -2.079 h -33.902 c -0.79,0 -1.431,-0.641 -1.431,-1.432 z M 270.614,57.4347 c -5.403,0 -10.309,1.8492 -13.879,4.7016 -3.56,2.8442 -5.866,6.756 -5.866,10.8866 v 28.0591 c 0,8.843 9.09,15.588 19.745,15.588 10.655,0 19.745,-6.745 19.745,-15.588 V 89.0035 c 0,-1.9385 -1.572,-3.5101 -3.51,-3.5101 h -16.235 v 2.0784 h 16.235 c 0.791,0 1.432,0.641 1.432,1.4317 v 12.0785 c 0,7.239 -7.643,13.509 -17.667,13.509 -10.024,0 -17.667,-6.27 -17.667,-13.509 V 73.0229 c 0,-3.3368 1.877,-6.6994 5.085,-9.2629 3.199,-2.5552 7.646,-4.2469 12.582,-4.2469 4.936,0 9.383,1.6917 12.581,4.2469 3.209,2.5635 5.086,5.9261 5.086,9.2629 v 2.0784 h 2.078 v -2.0784 c 0,-4.1306 -2.306,-8.0424 -5.866,-10.8866 -3.57,-2.8524 -8.476,-4.7016 -13.879,-4.7016 z M 313.222,115.63 V 58.4738 H 315.3 V 115.63 Z m 24.941,-54.6852 c 0,-0.7907 0.641,-1.4317 1.431,-1.4317 h 32.863 v -2.0784 h -32.863 c -1.938,0 -3.51,1.5715 -3.51,3.5101 v 18.3133 h 2.079 z m -2.079,28.0585 c 0,-1.9386 1.572,-3.5101 3.51,-3.5101 h 32.863 v 2.0784 h -32.863 c -0.79,0 -1.431,0.641 -1.431,1.4317 V 116.67 h -2.079 z M 398.437,68.866 c 0,-2.6779 1.455,-4.9753 4.16,-6.6508 2.726,-1.6884 6.677,-2.7021 11.428,-2.7021 3.874,0 7.327,0.8978 9.775,2.2967 2.477,1.4154 3.735,3.2135 3.735,4.9778 h 2.079 c 0,-2.831 -1.996,-5.1897 -4.783,-6.7824 -2.816,-1.6091 -6.638,-2.5705 -10.806,-2.5705 -5.013,0 -9.376,1.0648 -12.522,3.0136 -3.168,1.9618 -5.144,4.8604 -5.144,8.4177 v 3.1176 c 0,4.6347 2.64,7.7704 6.04,10.0824 2.778,1.8887 6.2,3.319 9.318,4.6219 0.649,0.2711 1.285,0.5368 1.899,0.7999 0.591,0.2534 1.19,0.5044 1.791,0.7566 l 0.002,9e-4 c 3.173,1.3311 6.422,2.6937 9.051,4.5866 3.064,2.2063 5.154,5.0422 5.154,9.2891 0,3.76 -1.932,6.851 -4.879,9.038 -2.96,2.196 -6.896,3.432 -10.71,3.432 -5.078,0 -8.512,-0.768 -11.026,-2.201 -2.495,-1.423 -4.206,-3.568 -5.711,-6.577 l -1.859,0.929 c 1.613,3.227 3.566,5.758 6.54,7.453 2.954,1.684 6.796,2.475 12.056,2.475 4.229,0 8.606,-1.362 11.949,-3.842 3.356,-2.49 5.718,-6.154 5.718,-10.707 0,-5.1064 -2.587,-8.5058 -6.018,-10.9759 -2.84,-2.0449 -6.35,-3.5148 -9.518,-4.8411 l -0.004,-0.0017 c -0.586,-0.2457 -1.161,-0.4863 -1.717,-0.7249 -0.653,-0.2798 -1.316,-0.5569 -1.981,-0.8353 l -0.003,-0.0014 c -3.116,-1.3036 -6.297,-2.6347 -8.883,-4.3934 -3.095,-2.1046 -5.131,-4.685 -5.131,-8.364 z" fill="#ffffff" id="path4" />
        </g>
    </g>
    <g>
        <rect fill="#000000" id="rect161" width="48.505318" height="2.4749029" x="133.45967" y="90.419922" />
    </g>
</svg>
