
<svg version="1.2" baseProfile="tiny-ps" xmlns="http://www.w3.org/2000/svg" viewBox="0 0 721 721" xml:space="preserve">
    <title>Emirates</title>
    <path fill="#d71920" d="M0 0h721v721H0z"/>
    <path fill="#fff" d="M393.6 157.1c-1.5 1.6-6.9 9.7-6.9 19.8v62.3c-.1 4.4-2.8 10.7-5 12.9-1.6 1.6-11.2 10.3-12 11.2l5.4.1c1.8-1.7 20.3-18.1 22.2-20.3 2.5-2.9 8.5-10.1 8.5-21.5v-59.9c0-9 4.2-14 6.3-16.4 2.2-2.5 9.5-8.5 10.8-9.9l-5.7-.2c-1.3 1.5-21.7 19.9-23.6 21.9m-45.8 226.7 22.6 19.8h15.2c15.4 0 29.5-6.6 38.8-15.9s12.7-21.8 12.7-33.5v-32.4c0-10.9-6.8-17.2-8.7-19.1-1-1-7.6-7.3-7.6-7.3v24.9s7.3 7.5 8.7 9c6.7 7.1 6.6 20.1-14.6 40.8-3.7 3.6-14.3 13.7-29 13.7h-38.1z"/>
    <path fill="#fff" d="M410.8 250.8c-2.5 2.7-4.9 9.2-4.9 14.9V278h12.4c4.8 0 11.2-4.4 12.6-6.7.1-.2 0-12.2 0-12.2s3.2 4.6 6.6 7c1.3-1.6 12.6-15.4 22.1-15.5 15.8-.1 12.3 19.9 5.8 26.2-2.1 2.1-11.5 10.6-14.3 13.4-7.5 7.1-20.3 3.7-20.3-14.7 0 0-13.7 13-15.8 14.8-2.1 1.7-9.2 9.2-9.2 9.2V332c0 15.5-5.1 20.7-9.3 25.4-1.6 1.8-19.1 17.7-21.4 19.5l-5.7.1s10.2-9.3 12.3-11.4c2.3-2.4 5-7.3 5-15.5 0-2.1-.3-50.8-.3-50.8H307c-27.6 0-33.5-30.7-33.7-38.9v-30.7c0-5-3.2-13.5-8.4-16.2h7.8c.9.4 5.8 2.4 5.8 21.2 0 0-.3 21.9-.3 23 0 9.5 7.6 20.5 18.5 20.5l89.9-.1c.1-2.4 2.5-11.6 6.8-16.4 2.4-2.7 21.7-20.4 23.9-22.1l5.7-.1c-.8.7-10.1 9.1-12.2 11.3m29.5 18.4s5.2 6.9 7.7 8.9c9.7 7.8 14.3-.6 7.8-9.5-2.6-3.5-12.5-2.5-15.5.6"/>
    <path fill="#fff" d="M343.9 327.1c0 4.3-13.9 15.9-14.7 16.7-1-4.7-4.5-9.8-14.8-20.2l15.2-15.2c10.1 10.2 14.3 12.4 14.3 18.7m26.3-173.9c3 3 9.6 11.3 5.7 15.2-3.5 3.5-8.9 9-8.9 9-.3-2-5.3-6.8-5.3-6.8v16.5c-.2 6.6-2.7 8.5-2.7 8.5s12.2 12.1 12.2 27.7v16c0 3.2-.8 5.7-3 8.1a633.2 633.2 0 0 1-14.2 14.2c-3.3 3-6.7 3.5-9.3 3.5h-42.1c-6.6 0-13.5-5.2-13.5-10.4l.1-15.6c2.2 2.5 4.4 5.4 9.7 5.4 4.1-.1 8.5-3.3 9.7-4.5s31.9-33.3 31.9-33.3-14.4-13.3-23.8-19.6c-4.6-3.1-10.7.8-11.7 4.9-2.9 12.8 0 31.9 0 31.9l-11.6-11.6c-4.7-4.7-4.5-15.3 1.1-20.9.9-.9 9.4-10.5 20.2-10.5h16.8c11.3 0 23.6 11.2 23.6 11.2s1.8-2 1.8-3.9c0-5.8-.2-21.4-.2-21.4-8.5-8.5-9.6-17.3-5.6-21.3 7.6-7.6 10.4-10.3 10.4-10.3s-.1 9.2 8.7 18m-52.8 84.7c-4.2 4.3-4.9 5.4-8.8 7.8h47.5c12.9 0 10.3-8 8-12-4.7-8.3-19.7-23.6-19.7-23.6s-26.2 26.9-27 27.8"/>
    <path fill="#fff" d="M263.2 281.1h-7.8s8.4 4.6 8.4 16.5v37.9c0 24.6 20.3 47.4 45 47.4h20.6c12.4 0 16.7-3 24.2-9.6 2.7-2.4 6.3-6.4 7.6-7.9 4.3-4.8 8.9-8.7 8.9-21.4v-12.4c0-10.7-6.2-15.2-9.2-18.2-1.9-1.9-7.2-7-7.2-7v25.4s5.2 5.5 7.5 7.3c10.7 8.5 2.2 23.1-7.7 23.1-2 0-42.6 0-45.3.1-16.7.4-39.2-14.5-39.2-39.5v-20.6c0-21.1-5.8-21.1-5.8-21.1"/>
    <path fill="#fff" d="M312.9 327.2c0 4.3-13.9 15.9-14.7 16.7-1-4.7-4.5-9.8-14.8-20.2l15.2-15.2c10.1 10.2 14.3 12.4 14.3 18.7M154.2 495.7h-24.3c-7.7 0-7.1-6.4-7.7-11.8V449s5.3-.1 11.3-.1c6.7 0 15.1-1 23.3 3.6 0 0-5.9-14.1-23.3-14.1h-11.3v-11.1s0-9.7-2.4-12.6l16 .1c13.9 0 24.6-.2 35.8 7.2 0 0-2.1-18.4-28.9-18.4H90.4s9.1 7.8 8.8 23.6l.3 63.5c0 15.9 6.4 16.4 6.4 16.4h51.6c11.7 0 15.8-8.4 15.8-12.9l.2-6.1c-.1-.1-3.8 7.6-19.3 7.6m137.4-5.4v-44.4c0-17.2-14.1-21.8-24.5-21.8-13.9 0-18 11.6-19.8 15.6-3.1-10.8-13.9-15.7-22.8-15.7-16.8 0-21 16-21 16s-.4-15.4-13.9-15.4h-13.2s7.6 3.1 7.6 16.5v49.3c0 16.3 6.6 16.6 6.6 16.6h21.7c-.6-.3-8.3-6.2-8.3-16.7v-43.7c.3-1.9 3.6-8.5 12.9-8.5 5.3 0 11.2 5.5 11 11.8v40.6c0 16.5 6.5 16.6 6.5 16.6h21.8s-8.3-5.9-8.3-16.7l-.1-43.7c.8-2.4 3.7-8.4 11.9-8.4 6.6 0 12.1 5.5 11.9 11.8v40.5c.1 16.6 6.5 16.5 6.5 16.5h21.8s-8.3-6-8.3-16.8m38.2 0c0 10.9 8.4 16.6 8.4 16.6h-21.7s-6.7.1-6.7-16.4V441c0-13-7.6-16.4-7.6-16.4h13.2c4.6 0 14.3 0 14.3 18.4l.1 47.3zm66.9-59.5s-2.1-5.9-11.1-5.9c-13.7 0-17 16.2-17 16.2-1.1-12.8-4.5-16.6-14.2-16.6h-13.2s7.6 3.1 7.6 16.4v49.3c0 16.3 6.6 16.6 6.6 16.6h21.7c-.6-.3-8.3-6.1-8.3-16.7v-40.4c.6-3.7 2.5-6.5 5.3-8.3 7.2-4.6 16.9-3.5 22.5 3.3v-13.9h.1zm101.5 2.9c7.4 0 12.9 3.2 12.9 3.2l.1-12.4h-18.3v-18.8s-4.8 8.3-14.6 16.4c-6.2 5.1-19.1 11.3-19.1 11.3l13.8.2v57.3c0 15.9 6.6 15.9 6.6 15.9h21.7s-8.4-5.6-8.4-16.1v-57.1c5.6.1 1.7.1 5.3.1m66.1 24.9c-12.2 12.8-21.8 10.8-29.4 20.1 0 0 1.2 12.7 10.9 17.1 3.3 1.5 16.7 6.4 25.4-8.6l-.1 13.3s-5.6 6.5-23.3 6.5c-21.4 0-36-16.8-36-39.6 0-22.4 11.9-43.2 34.4-43.3 22.1-.1 34.1 17.7 18.1 34.5m-13.4-5.2c3.6-6.7 6.5-23.6-5.9-22.7-14.3 1.1-11.6 39.1-11.6 39.1 4.8-5.2 12-6.3 17.5-16.4m-231.2-35.5c5.6 0 10.1-4.4 10.1-9.9s-4.5-9.9-10.1-9.9-10.1 4.4-10.1 9.9c-.1 5.4 4.5 9.9 10.1 9.9m99.7 79.6c-5 0-8.5-5.2-8.5-10.4 0-20.6 16.8-23.4 21.3-28.9v34.7c-2 1.7-4 4.6-12.8 4.6m12.8-47.2c-5.1 8.9-44.4 10.7-38.4 41.2 2.4 12.1 10.4 15.6 20.5 15.6 9.8 0 15.7-5.1 18.2-9.9 1.5 9.2 6.1 9.7 6.1 9.7h21.7s-8.5-5.6-8.5-16.5v-46.3c0-11.1-12.3-19.7-25.3-19.7-12.5 0-20.4 6-20.4 6v14.4s4.5-11.4 15.8-11.4c11.1 0 11.9 5.5 11.8 8.3.2 0 1.3 3.8-1.5 8.6m180.2 34.2c.1 5.8-5.1 13.5-16.2 13.5-11.3 0-15.9-11.6-15.9-11.6v14.7s8.2 5.8 20.7 5.8c14.9 0 29.9-11.3 29.6-27-.1-5.5-2.1-10.3-5.1-14.3-5-6.7-14.2-11.5-21.3-15.8-4-2.5-6.2-6.9-6.2-8.5-.1-2.8 1.2-8.3 12.3-8.3 10.8 0 15.4 11.4 15.4 11.4v-13.8s-8.3-6.6-20.8-6.6c-13 0-24.9 8.6-24.7 19.7.2 9.7 4.3 16 12.2 21.9 3.1 2.3 6.9 4.6 11.2 7 6.4 3.5 8.7 7.8 8.8 11.9"/>
</svg>