<?xml version="1.0" encoding="UTF-8" standalone="yes"?>
<svg width="96" height="96" viewBox="0 0 96 96" fill="none" version="1.2" baseProfile="tiny-ps" xmlns="http://www.w3.org/2000/svg">
  <title>bimi-svg-tiny-12-ps</title>
  <path fill-rule="evenodd" d="M71 43.4233L42.9304 14.5L36.4056 21.1876L45.9472 31.0214L25 52.4889L53.162 81.5L59.5658 74.9149L49.9388 64.9933L71 43.4233ZM44.1471 57.6399C43.9592 57.6983 43.7586 57.6983 43.5707 57.6399C43.2923 57.5433 43.0458 57.3684 42.8592 57.135L39.0669 53.2279C38.8424 53.0336 38.6727 52.7809 38.5758 52.4962C38.5154 52.3035 38.5154 52.0962 38.5758 51.9035C38.666 51.6172 38.834 51.3634 39.0597 51.1718L51.0203 38.9016C51.2092 38.6707 51.455 38.4964 51.7319 38.3967C51.9192 38.3346 52.1209 38.3346 52.3082 38.3967C52.5868 38.4891 52.8338 38.6618 53.0198 38.8942L56.8194 42.8014C57.0451 42.993 57.2129 43.2468 57.3032 43.5331C57.3599 43.7263 57.3599 43.9325 57.3032 44.1258C57.2098 44.4105 57.0426 44.6635 56.8194 44.8574L44.8586 57.135C44.6636 57.3688 44.4102 57.5434 44.1257 57.6399H44.1471Z" fill="#204ECF"/>
  <path fill-rule="evenodd" d="M60.4515 63.4935C60.4407 62.8889 60.5503 62.2885 60.7738 61.7292C60.9972 61.1698 61.3297 60.6635 61.7507 60.2414C62.1586 59.8086 62.6483 59.4661 63.1896 59.2351C63.7309 59.004 64.3123 58.8892 64.8984 58.8978C65.4856 58.8886 66.0685 59.0031 66.6111 59.2342C67.1537 59.4653 67.6444 59.808 68.0534 60.2414C68.4768 60.6625 68.8118 61.1683 69.0378 61.7276C69.2638 62.2869 69.376 62.8879 69.3675 63.4935C69.3751 64.0956 69.2625 64.6929 69.0365 65.2483C68.8105 65.8038 68.4758 66.3056 68.0534 66.7227C67.6452 67.1565 67.1543 67.4991 66.6115 67.729C66.0686 67.9588 65.4853 68.0711 64.8984 68.0587C64.3126 68.0705 63.7308 67.9579 63.1892 67.728C62.6476 67.4982 62.1579 67.1559 61.7507 66.7227C61.3303 66.3049 60.998 65.8026 60.7745 65.247C60.551 64.6915 60.4411 64.0946 60.4515 63.4935ZM61.1939 63.4935C61.1848 64.0002 61.2755 64.5035 61.4605 64.9732C61.6455 65.4428 61.9209 65.8692 62.2703 66.2265C62.6146 66.5891 63.0273 66.8756 63.483 67.0686C63.9387 67.2615 64.4279 67.3568 64.9206 67.3487C65.41 67.3564 65.8957 67.2608 66.3478 67.0678C66.7998 66.8748 67.2086 66.5884 67.5487 66.2265C67.9001 65.8699 68.1778 65.4441 68.3654 64.9745C68.5529 64.5048 68.6463 64.0011 68.64 63.4935C68.6477 62.9879 68.555 62.4861 68.3674 62.0187C68.1797 61.5514 67.9011 61.1284 67.5487 60.7758C67.2107 60.41 66.8028 60.1201 66.3505 59.9243C65.8982 59.7285 65.4113 59.6312 64.9206 59.6383C64.4288 59.6306 63.9408 59.7276 63.4872 59.9234C63.0336 60.1192 62.6243 60.4094 62.2852 60.7758C61.9369 61.1224 61.6602 61.5377 61.4714 61.9967C61.2826 62.4558 61.1857 62.9493 61.1865 63.4477L61.1939 63.4935ZM65.9675 65.9975L64.7722 63.8218H63.963V65.9975H63.2206V60.9895H65.2028C65.3987 60.9647 65.5974 60.9829 65.7859 61.0428C65.9744 61.1028 66.1484 61.2031 66.2965 61.3373C66.4445 61.4715 66.5632 61.6364 66.6446 61.8213C66.7261 62.0061 66.7685 62.2065 66.7692 62.4095C66.7603 62.7457 66.6363 63.0679 66.419 63.3193C66.2017 63.5707 65.9051 63.7351 65.5815 63.7836L66.7989 65.9975H65.9675ZM63.963 61.6537V63.1805H65.0988C65.7373 63.1805 66.0565 62.926 66.0565 62.4171C66.0565 61.898 65.7373 61.6537 65.0988 61.6537H63.963Z" fill="#204ECF"/>
</svg>