<?xml version="1.0" encoding="utf-8"?>
<!-- Generator: Adobe Illustrator 28.3.0, SVG Export Plug-In . SVG Version: 6.00 Build 0)  -->
<svg version="1.2" baseProfile="tiny-ps" xmlns="http://www.w3.org/2000/svg" xmlns:xlink="http://www.w3.org/1999/xlink" viewBox="0 0 720 720" xml:space="preserve">
<title>Browns Shoes</title>
<g id="Layer_1">
	<g>
		<circle fill="#FFFFFF" cx="360" cy="360" r="284"/>
		<path d="M363.9,340.6c12.9,0.9,26.8,0.9,38.6-3.8c29-11.5,34.3-54,25.1-83.4c-8.6-27.8-40.6-27.8-63.7-28.4
			C364.1,241.8,363.9,317.1,363.9,340.6L363.9,340.6z M363.4,362.3c-0.4,44.9,0.5,89.5-0.1,132.7c21.6,1.2,46.3-3.4,58.5-22.3
			c14.8-22.9,15.9-49.9,8.6-75.8c-8.2-28.9-37.6-38.5-65.7-35.4C364,361.7,363.4,361.4,363.4,362.3L363.4,362.3z M385,513.5H167.7
			v-19.8h68.5V225h-68.5v-18.4H414c0,0,58.1-1.1,82.3,15.8c26.4,18.4,37.5,52.5,26.3,85.6c-7.9,23.3-42.2,40.2-51.4,41.5
			c-9.2,1.3,36.2,6.3,47.4,13.2c8.6,5.3,26.3,13.7,32.3,48.1c6.2,35.7-9.9,69.8-33.6,85.6c-19.2,12.8-42.8,17.1-58.6,17.1L385,513.5
			L385,513.5z"/>
		<rect x="277.5" y="293.9" fill="none" width="165" height="132.3"/>
	</g>
</g>
</svg>
