<?xml version="1.0" encoding="utf-8"?>
<!-- Generator: Adobe Illustrator 27.8.0, SVG Export Plug-In . SVG Version: 6.00 Build 0)  -->
<svg version="1.2" baseProfile="tiny-ps" 
	id="Layer_1" xmlns="http://www.w3.org/2000/svg" xmlns:xlink="http://www.w3.org/1999/xlink"
	viewBox="0 0 106.2 106.2" xml:space="preserve">
<title>PinkCherry</title>	
<g>
	<path fill="#0E8D45" d="M54.2,38.1c-3.5-5.5-11.2-10.6-16-11.9c-0.6-3.8-1.7-11.1-1.6-11.2c9.2,6,13.9,14,18,23.2L54.2,38.1z"/>
	<path fill="#E60060" d="M39.7,42.1c1-0.4,2-0.6,3.1-0.9c-8.1,4.3-11.7,15.6-8.4,24.5c1.4,3.6,3.7,6.5,6.6,8.6
		c0.3,0.2,0.5,0.5,0.8,0.5c0.9,0.7,1.6,1.1,2,1.4c5.4,3.4,13.1,4,20.5,1.3c8.2-3.1,13.7-9.4,15-16.2c0.2-0.6,0.4-1.7,0.5-2.9
		c0.3-2.9-0.2-6.1-1.3-9.2c-2.1-5.4-6-9.5-10.5-11.4c6.3,2,12.2,7.3,15.2,15c2,5.1,2.3,10.2,1.4,14.9C83.1,76.5,76,84.9,65.5,89
		c-9.2,3.6-18.9,2.9-25.9-1.1c-0.5-0.3-2.6-1.5-4.2-2.7c-0.5-0.4-2-1.5-2.9-2.5c-2.3-2.3-4.1-5-5.3-8.2
		C22.4,62.3,27.9,46.6,39.7,42.1z"/>
	<path fill="#D80000" d="M47.6,42.4C47.7,42.3,47.7,42.3,47.6,42.4c4.8-4.1,8.2-0.5,8.2-0.5c0.6-1.4,1.7-2,2.4-2.4c0,0,0,0,0.1,0
		c1-0.5,2.2-0.4,3.1-0.2c1,0.2,1.7,0.5,2.4,0.8c0.5,0.3,1.4,0.8,2.1,1.5c0.1,0.1,0.1,0.2,0.2,0.2c0.2,0.2,0.3,0.4,0.3,0.4
		c0,0.1,0.1,0.2,0.1,0.2c0.1,0.2,0.2,0.4,0.3,0.5c0,0.1,0.1,0.2,0.1,0.3l0,0c2.8,7.5-6.4,19.1-6.4,19.1c0.5-1.5-2.2-4.2-4.4-6.1
		c-0.5-0.5-2.5-2-4.6-3.4c-0.5-0.4-1.1-0.6-1.5-1l-0.3-0.2c0,0-0.5-0.3-1.1-0.8c-0.2-0.2-0.4-0.3-0.5-0.5c-0.5-0.5-1.3-1.2-1.7-2.1
		c0,0,0-0.1-0.1-0.1C46.3,48.3,44.8,44.8,47.6,42.4C47.5,42.5,47.5,42.5,47.6,42.4z"/>
</g>
</svg>
