<?xml version="1.0" encoding="UTF-8" standalone="yes"?>
<svg version="1.2" viewBox="0 0 113.386 113.386" baseProfile="tiny-ps" xmlns="http://www.w3.org/2000/svg">
  <title>bimi-svg-tiny-12-ps</title>
  <rect x="0" y="0" width="113.386" height="113.386" fill="#FFFFFF"/>
  <g>
    <defs>
      <rect id="SVGID_1_" x="0" y="0" width="113.386" height="113.386"/>
    </defs>
    <path d="M13.513,66.289V47.098   h5.277c5.915,0,11.136,1.978,11.136,9.594c0,7.618-5.221,9.597-11.136,9.597H13.513z M17.382,50.12v13.142h2.154   c3.233,0,6.355-2.391,6.355-6.57s-3.122-6.572-6.355-6.572H17.382z" fill="#0066B3"/>
  </g>
  <g>
    <defs>
      <rect id="SVGID_00000103948851310948641700000001091745459356982443_" x="0" y="0" width="113.386" height="113.386"/>
    </defs>
    <path d="M93.268,55.978h1.348   c1.007,0.018,1.869-0.183,2.583-0.605c0.697-0.421,1.055-1.172,1.073-2.253c0-0.569-0.092-1.046-0.275-1.431   c-0.202-0.385-0.468-0.687-0.798-0.906c-0.696-0.44-1.557-0.66-2.583-0.66h-1.348V55.978z M89.42,47.098h4.866   c2.162-0.018,4.023,0.367,5.58,1.154c1.576,0.825,2.383,2.375,2.42,4.648c-0.019,2.199-0.725,3.766-2.117,4.7   c-1.393,0.953-3.153,1.421-5.279,1.402h-1.622v7.285H89.42V47.098z" fill="#0066B3"/>
  </g>
  <polygon points="30.974,66.288 30.974,63.152 40.036,50.119 31.332,50.119 31.332,47.097 44.152,47.097   44.152,50.231 35.007,63.262 44.344,63.262 44.344,66.288 " fill="#0066B3"/>
  <polygon points="76.499,58.7 69.489,47.098 73.997,47.098 78.533,55.154 83.152,47.098 87.221,47.098   80.348,58.7 80.348,66.288 76.499,66.288 " fill="#0066B3"/>
  <polygon points="51.936,47.098 55.784,47.098 55.784,54.851 63.483,54.851 63.483,47.098 67.331,47.098   67.331,66.287 63.483,66.287 63.483,57.875 55.784,57.875 55.784,66.287 51.936,66.287 " fill="#0066B3"/>
</svg>