<?xml version="1.0" encoding="utf-8"?>
<!-- Generator: Adobe Illustrator 28.0.0, SVG Export Plug-In . SVG Version: 6.00 Build 0)  -->
<svg version="1.2" baseProfile="tiny-ps" id="a" xmlns="http://www.w3.org/2000/svg" xmlns:xlink="http://www.w3.org/1999/xlink"
	viewBox="0 0 2594.6 1260.4" xml:space="preserve">
<title>Brasfield &amp; Gorrie</title>
<path fill="#002070" d="M500.4,429.3c0,45.7-41.1,70.7-120,70.7H250v-7.1l8.9-2.5c20.7-5.7,23.2-9.6,23.2-36.1V295.7
	c0-26.8-2.5-30.4-23.2-36.1l-8.9-2.5V250h129.3c75.4,0,109.6,19.6,109.6,60.4c0,27.1-22.5,52.1-66.8,57.9
	C475,372.9,500.4,395.7,500.4,429.3L500.4,429.3z M359.3,274.3v89.6h3.9c32.1,0,45.4-16.8,45.4-50.7c0-32.5-15-51.1-37.1-51.1
	C361.8,262.1,359.3,264.6,359.3,274.3L359.3,274.3z M418.9,431.8c0-38.6-17.5-56.8-56.1-56.8h-3.6v87.9c0,19.3,4.6,25,21.1,25
	C406.1,487.9,418.9,467.5,418.9,431.8z M1014.3,492.9v7.1H867.9v-7.1l11.8-1.1c21.4-1.8,26.8-9.3,12.5-40.7l-7.5-16.4h-74.3
	l-7.5,18.2c-11.1,26.8-11.1,35.7,15.7,38.9l8.6,1.1v7.1H703.2c-19.3,0-26.8-2.9-36.8-27.9l-26.8-66.4c-6.4-15.7-11.1-18.9-19.6-18.9
	h-2.5v67.5c0,25.7,3.2,30.4,23.2,36.1l8.9,2.5v7.1H506.8v-7.1l8.9-2.5c20.7-5.7,23.2-9.6,23.2-36.1V295.7c0-26.8-2.5-30.4-23.2-36.1
	l-8.9-2.5V250h139.3c63.9,0,101.8,26.1,101.8,69.6c0,27.1-16.4,47.1-45.7,57.9l47.9,93.9c8.9,17.5,11.4,20.4,15.4,20.4
	c5,0,8.2-4.6,15.7-21.8l95.4-222.9h7.1L985.4,460c11.4,24.3,13.9,28.2,25.4,31.8L1014.3,492.9L1014.3,492.9z M620.7,375.4
	c30,0,47.5-23.9,47.5-57.1c0-33.9-14.3-56.1-38.6-56.1c-9.6,0-12.1,2.5-12.1,12.1v101.1H620.7z M815.4,422.5h63.9l-33.6-73.9
	L815.4,422.5L815.4,422.5z M1074,498.6c-11.8-4.6-17.5-6.1-22.1-6.1c-4.3,0-8.2,1.4-11.8,5l-5.4,5.4h-5.4v-87.1h6.4l2.1,5.7
	c18.2,48.2,47.5,73.6,86.8,73.6c30.7,0,50.4-14.3,50.4-37.1c0-20-10.7-30.7-43.6-42.5l-35.7-12.9c-44.3-16.1-66.1-42.1-66.1-80
	c0-47.9,40.4-79.6,100.4-79.6c12.5,0,27.9,3.2,43.2,8.2c11.4,3.6,17.9,5,22.9,5c4.3,0,8.2-1.1,12.1-4.3l5.4-4.6h5.4v84.3h-6.4
	l-2.1-5.7c-16.8-44.6-43.6-70.7-82.1-70.7c-26.8,0-43.9,12.9-43.9,33.2c0,18.6,8.9,26.4,43.2,38.6l35.7,12.9
	c47.5,17.1,68.2,41.4,68.2,79.6c0,53.2-40.7,87.9-104.6,87.9C1107.6,507.1,1089,504.3,1074,498.6L1074,498.6z M1242.9,250h222.9
	v73.6h-6.4l-5-12.1c-16.4-40-26.8-49.3-69.6-49.3h-17.5c-9.6,0-12.1,2.5-12.1,12.1v93.6h11.8c26.8,0,31.1-6.1,43.6-36.1l4.3-10.4
	h6.4v104.3h-6.4l-4.3-10.4c-12.5-30.4-16.8-36.1-43.9-36.1h-11.4v75c0,26.4,4.3,29.3,30,36.1l9.3,2.5v7.1h-151.4v-7.1l8.9-2.5
	c20.7-5.7,23.2-9.6,23.2-36.1V295.7c0-26.8-2.5-30.4-23.2-36.1l-8.9-2.5L1242.9,250L1242.9,250z M1477.6,500v-7.1l8.9-2.5
	c20.7-5.7,23.2-9.6,23.2-36.1V295.7c0-26.8-2.5-30.4-23.2-36.1l-8.9-2.5V250h144.3v7.1l-8.9,2.5c-20.7,5.7-23.2,9.6-23.2,36.1v158.6
	c0,26.8,2.5,30.4,23.2,36.1l8.9,2.5v7.1L1477.6,500L1477.6,500z M1865.8,422.9h6.4l-14.3,77.1h-223.2v-7.1l8.9-2.5
	c20.7-5.7,23.2-9.6,23.2-36.1V295.7c0-26.8-2.5-30.4-23.2-36.1l-8.9-2.5V250h222.9v73.6h-6.4l-4.3-12.1c-14.6-41.4-27.1-50-70.4-50
	H1759c-9.6,0-12.1,2.5-12.1,12.1v92.9h11.8c26.8,0,31.1-6.1,43.6-36.1l4.3-10.4h6.4v104.3h-6.4l-4.3-10.4
	c-12.5-30.4-16.8-36.1-43.9-36.1h-11.4v85c0,20,4.6,25,23.2,25h5c38.9,0,60.7-13.9,86.1-57.1L1865.8,422.9L1865.8,422.9z
	 M1875.1,500v-7.1l8.9-2.5c20.7-5.7,23.2-9.6,23.2-36.1V295.7c0-26.8-2.5-30.4-23.2-36.1l-8.9-2.5V250h144.3v7.1l-8.9,2.5
	c-20.7,5.7-23.2,9.6-23.2,36.1v166.8c0,20,4.6,25.4,22.9,25.4h2.5c29.3,0,44.6-17.9,73.9-60.7l5.4-7.9h6.4L2084,500L1875.1,500
	L1875.1,500z M2099.4,500v-7.1l8.9-2.5c20.7-5.7,23.2-9.6,23.2-36.1V295.7c0-26.8-2.5-30.4-23.2-36.1l-8.9-2.5V250h110
	c102.5,0,166.1,49.6,166.1,126.4c0,73.6-54.3,123.6-138.2,123.6L2099.4,500L2099.4,500z M2288.7,377.9c0-69.6-26.8-115.7-65-115.7
	c-8.9,0-12.1,1.8-12.1,12.1v190.4c0,18.2,3.9,22.9,19.6,22.9C2263,487.5,2288.7,447.1,2288.7,377.9L2288.7,377.9z M770.2,695.7
	c0,68.2-46.1,120-113.9,120c-9.3,0-18.9-0.4-28.2-2.9c17.9,18.6,27.5,43.2,27.5,69.6c0,80.7-77.9,135-185.4,135
	c-132.9,0-248.2-36.8-248.2-145.7c0-77.1,77.9-120.4,163.9-130.7c-57.9-12.5-87.9-42.5-87.9-83.6c0-59.6,74.6-99.6,156.8-99.6
	c54.6,0,106.4,27.1,106.4,78.6c0,33.2-23.6,61.8-67.5,61.8c-30,0-65-15.4-65-51.1c0-26.8,20-43.6,42.5-43.6
	c16.1,0,26.1,7.1,26.1,20.4c0,16.8-23.2,25.4-23.2,41.8c0,12.9,9.3,21.1,23.6,21.1c30.7,0,49.6-19.3,49.6-50
	c0-35-32.9-60.4-77.9-60.4c-49.3,0-80.7,31.1-80.7,79.6c0,49.6,26.4,82.1,67.5,82.1c25,0,42.5-20,89.6-20
	c52.5,0,67.5,21.4,127.9,21.4c45,0,75-29.3,75-70.7c0-35-23.9-60.7-55.7-66.8c18.9,12.9,28.2,29.6,28.2,52.1
	c0,30-23.6,51.8-57.1,51.8c-32.5,0-57.1-23.9-57.1-55.7c0-36.1,27.9-58.9,71.8-58.9C732.7,591.4,770.2,633.2,770.2,695.7
	L770.2,695.7z M642.7,883.2c0-57.1-40-92.5-102.5-92.5c-58.2,0-93.6,30.7-93.6,75c0,38.9,26.1,65.4,65.7,70.7
	c-22.5-11.4-33.2-28.6-33.2-53.2c0-31.8,26.4-55.4,61.8-55.4c33.6,0,58.2,24.3,58.2,57.1c0,37.5-31.1,61.8-72.5,61.8
	c-67.5,0-101.4-45-101.4-109.6c0-35.4,13.2-66.8,37.5-88.2C395.6,757.2,352,801.8,352,871.4c0,74.6,47.1,131.1,136.1,131.1
	C574.8,1002.5,642.7,953.9,642.7,883.2L642.7,883.2z M979.2,734.3c0-26.8-2.5-30.4-23.2-36.1l-8.9-2.5v-7.1h139.3v7.1l-8.9,2.5
	c-17.9,5-20.4,9.6-20.4,36.1v70.4c-28.9,11.1-65,17.5-97.1,17.5c-89.6,0-148.9-53.2-148.9-133.9c0-76.1,63.2-130.4,151.8-130.4
	c33.6,0,57.1,13.2,73.9,13.2c5.7,0,9.3-1.1,13.6-4.6l5-4.3h5.4v84.3h-6.4l-2.1-5.7c-17.1-45.4-45.4-70.7-80-70.7
	c-46.4,0-74.3,44.6-74.3,117.9c0,75.4,26.1,122.1,67.9,122.1c11.1,0,13.6-2.5,13.6-12.1L979.2,734.3L979.2,734.3z M1384.9,691.4
	c0,75.4-59.3,130.7-140,130.7c-79.6,0-139.3-57.1-139.3-133.6c0-75.4,59.3-130.7,140-130.7C1325.2,557.9,1384.9,615,1384.9,691.4z
	 M1298.1,693.2c0-78.2-19.6-123.2-53.2-123.2h-0.4c-32.9,0-52.1,42.9-52.1,116.8c0,78.2,19.6,123.2,53.2,123.2h0.4
	C1278.8,810,1298.1,767.2,1298.1,693.2z M2085.3,574.7c-20.7,5.7-23.2,9.6-23.2,36.1v158.6c0,26.8,2.5,30.4,23.2,36.1l8.9,2.5v7.1
	h-227.1c-19.3,0-26.8-2.1-36.1-24.6l-29.3-71.4c-6.4-16.1-11.4-17.1-18.9-17.1h-2.5v67.5c0,25.7,3.2,30.4,23.2,36.1l8.9,2.5v7.1
	h-218.6c-19.3,0-27.1-2.9-36.1-24.6l-28.9-70.4c-6.8-16.4-11.8-18.2-19.3-18.2h-2.5v67.5c0,25.7,3.2,30.4,23.2,36.1l8.9,2.5v7.1
	h-142.9v-7.1l8.9-2.5c20.7-5.7,23.2-9.6,23.2-36.1V610.7c0-26.8-2.5-30.4-23.2-36.1l-8.9-2.5V565h135.7
	c67.5,0,105.4,26.1,105.4,69.6c0,27.1-16.4,47.1-45.7,57.9l42.9,83.6c11.4,22.5,18.6,30.7,35.7,30.7c6.1,0,11.4-1.8,15.7-3.2
	c12.5-4.6,15.7-9.3,15.7-33.6V610.7c0-26.8-2.5-30.4-23.2-36.1l-8.9-2.5V565h135.7c67.5,0,105.4,26.1,105.4,69.6
	c0,27.1-16.4,47.1-45.7,57.9l42.9,83.6c14.3,27.9,20.4,30.7,40.7,30.7c3.2,0,6.4,0,12.9-1.8c17.9-4.6,20.7-9.3,20.7-35.7V610.7
	c0-26.8-2.5-30.4-23.2-36.1l-8.9-2.5V565h144.3v7.1L2085.3,574.7L2085.3,574.7z M1510.3,690.4c30,0,47.5-23.9,47.5-57.1
	c0-33.9-14.3-56.1-38.6-56.1c-9.6,0-12.1,2.5-12.1,12.1v101.1H1510.3z M1783.5,690.4c30,0,47.5-23.9,47.5-57.1
	c0-33.9-14.3-56.1-38.6-56.1c-9.6,0-12.1,2.5-12.1,12.1v101.1H1783.5z M2338.2,737.9h6.4l-14.3,77.1h-223.2v-7.1l8.9-2.5
	c20.7-5.7,23.2-9.6,23.2-36.1V610.7c0-26.8-2.5-30.4-23.2-36.1l-8.9-2.5V565H2330v73.6h-6.4l-4.3-12.1c-14.6-41.4-27.1-50-70.4-50
	h-17.5c-9.6,0-12.1,2.5-12.1,12.1v92.9h11.8c26.8,0,31.1-6.1,43.6-36.1l4.3-10.4h6.4v104.3h-6.4l-4.3-10.4
	c-12.5-30.4-16.8-36.1-43.9-36.1h-11.4v85c0,20,4.6,25,23.2,25h5c38.9,0,60.7-13.9,86.1-57.1L2338.2,737.9L2338.2,737.9z"/>
</svg>
