<?xml version="1.0" encoding="utf-8"?>
<!-- Generator: Adobe Illustrator 28.0.0, SVG Export Plug-In . SVG Version: 6.00 Build 0)  -->
<svg version="1.2" baseProfile="tiny-ps"
	 id="svg22" xmlns:cc="http://creativecommons.org/ns#" xmlns:dc="http://purl.org/dc/elements/1.1/" xmlns:inkscape="http://www.inkscape.org/namespaces/inkscape" xmlns:rdf="http://www.w3.org/1999/02/22-rdf-syntax-ns#" xmlns:sodipodi="http://sodipodi.sourceforge.net/DTD/sodipodi-0.dtd" xmlns:svg="http://www.w3.org/2000/svg"
	 xmlns="http://www.w3.org/2000/svg" xmlns:xlink="http://www.w3.org/1999/xlink" viewBox="0 0 320 320"
	 xml:space="preserve">
   <title>Michael Kors</title>
<desc>Black Michael Kors Logo</desc>
<rect fill="#FFFFFF" width="320" height="320"/>
<path d="M47.2,172v-17.3l-6,17.3h-4.8l-6-17.3V172H26V148h6.5l6.3,17.3L45,148h6.5V172H47.2z"/>
<path d="M57.2,172V148h4.4V172H57.2z"/>
<path d="M109.3,172v-9.8H98.1v9.8h-4.4V148h4.4v9.8h11.2V148h4.4V172H109.3z"/>
<path d="M132.3,162.2h-6.5l3.3-8.3L132.3,162.2z M141,172l-9.7-24.1h-4.5l-9.7,24.1h4.7l2.2-5.5h10l2.2,5.5H141z"/>
<path d="M144.4,172V148h16.7v4.4h-12.3v5.4h12.3v4.4h-12.3v5.4h12.3v4.4H144.4z"/>
<path d="M167.4,172V148h4.4v19.7h10.3v4.4H167.4z"/>
<path d="M214.6,172l-7.9-11.1l-3.1,3.2v7.9h-4.4V148h4.4v10l9.8-10h5.8l-9.4,9.8L220,172H214.6z"/>
<path d="M241,160c0,4.5-3.7,8.2-8.2,8.2c-4.5,0-8.2-3.7-8.2-8.2c0-4.5,3.7-8.2,8.2-8.2C237.3,151.8,241,155.5,241,160z M245.4,160
	c0-7-5.6-12.6-12.6-12.6c-7,0-12.6,5.6-12.6,12.6c0,7,5.6,12.6,12.6,12.6C239.8,172.6,245.4,167,245.4,160z"/>
<path d="M265.8,156c0,2-1.6,3.7-3.7,3.7h-7.2v-7.4h7.2C264.1,152.4,265.8,154,265.8,156z M271,172l-5.1-8.8c2.5-1.3,4.3-4.1,4.3-7.1
	c0-4.5-3.6-8.1-8.1-8.1h-11.6V172h4.4v-7.9h6.4l4.5,7.9H271z"/>
<path d="M283.8,172.6c-4.2,0-8.5-1.7-10.8-5.1l3.7-2.7c1.8,2.4,4.3,3.5,7,3.5c2.4,0,5.5-0.7,5.5-3.1c0-2.6-4.5-3.1-6.5-3.5
	c-4-1-8.4-1.8-8.4-7c0-5.1,4.8-7.5,9.3-7.5c4.1,0,7.6,1.5,10.1,4.8l-3.6,2.7c-1.6-2.1-3.5-3.3-6.5-3.3c-2.6,0-4.6,0.9-4.6,2.6
	c0,2.7,3.9,2.7,7.2,3.6c3.5,0.9,7.7,1.9,7.7,6.9C294,170.6,288.6,172.6,283.8,172.6z"/>
<path d="M84.3,164.5c-1.3,2.2-3,3.7-6.3,3.7c-4.5,0-8-3.7-8-8.2c0-4.5,3.5-8.2,8-8.2c3.3,0,5.3,1.7,6.5,4.1h4.8
	c-1.3-5-5.9-8.5-11.4-8.5c-7,0-12.3,5.6-12.3,12.6c0,7,5.3,12.6,12.3,12.6c5.4,0,9.8-3.2,11.3-8.1H84.3z"/>
</svg>
