<?xml version="1.0" encoding="utf-8"?>
<!-- Generator: Adobe Illustrator 26.5.0, SVG Export Plug-In . SVG Version: 6.00 Build 0)  -->
<svg version="1.2" baseProfile="tiny-ps" id="bil-svg" xmlns="http://www.w3.org/2000/svg" xmlns:xlink="http://www.w3.org/1999/xlink"
	 viewBox="0 0 216 216" xml:space="preserve">
<title>BIL Luxembourg</title>
<rect fill="#FFFFFF" width="216" height="216"/>
<g>
	<path fill="#702F8A" d="M24,145.1l-2.5,1.4v-1.8l2.8-1.5h1.8v12.4H24V145.1z"/>
	<path fill="#702F8A" d="M61.2,146.1c0-0.5-0.4-1.4-1.5-1.4c-1.8,0-2,2.1-2,4.5c0.5-0.5,1.3-1.1,2.7-1.1c2.3,0,3.4,1.6,3.4,3.8
		c0,2.3-1.5,3.8-4.1,3.8c-3.8,0-4.4-2.8-4.4-6.3c0-3.8,0.8-6.3,4.5-6.3c2.8,0,3.7,1.7,3.8,2.9h-2.4V146.1z M59.6,154.3
		c1.3,0,1.8-1.2,1.8-2.4s-0.4-2.3-1.8-2.3c-1.4,0-1.8,1-1.8,2.3C57.8,153.1,58.3,154.3,59.6,154.3z"/>
	<path fill="#702F8A" d="M43.5,99.8c-0.8,0-4.3,0-5.6,0.1v17.4c1.4,0.3,3.9,0.3,6.5,0.3c7.4,0,11.7-3.5,11.7-9.2
		C56,102.7,51.3,99.8,43.5,99.8 M44.9,70.7c-2.6,0-5,0.1-7,0.3v16.2c1.4,0.1,3,0.1,5,0.1c8.3,0,12.3-3.4,12.3-9
		C55,73.5,51.9,70.7,44.9,70.7 M44,131.6c-4.3,0-12.4-0.3-23-0.3V57.5c6.7-0.3,17.6-0.6,26.6-0.6c15.9,0,25.3,6.3,25.3,18.6
		c0,6.9-4.3,13.2-10.6,16v0.3c7.5,2,11.8,9,11.8,16.4C74.1,120.1,65.5,131.6,44,131.6"/>
	<path fill="#702F8A" d="M99.7,81.8V56.9H82.8v25v14.7v23.1c0,4.1,0,8.2,0,11.7v0.1h16.9C99.7,131.5,99.7,81.8,99.7,81.8z"/>
	<path fill="#702F8A" d="M103.7,143.5c0,0,2.8,3.6,9,8.1c1.8,1.3,4.8,3.1,6.4,4.1c1.3,0.8,2.7,1.5,4.6,2.5c0.6,0.3,1.9,0.6,3.6-0.3
		c2.5-1.3,13.9-7.5,25.8-19.8s20.8-25.5,26.6-39.2c4.8-11.2,7.8-23.3,9.3-35.5c0.3-2.8,0.7-7.6,0.8-8.4c0-0.8,0.3-2.2-1.9-2.9
		c-1.9-0.7-16.1-5.3-36.1-8.3s-31.9-2.7-44.9-1.9c-11.3,0.6-25.4,2.8-31.4,3.8v-1.3c0,0,12.4-2.7,27.9-4c15.4-1.3,36.5-1.3,53.2,1.1
		s26.9,4.6,30.4,5.6c2.1,0.6,3.4,0.9,5.7,1.6c1,0.3,1.5,0.6,2,1.3c0.3,0.4,0.5,1.1,0.5,1.6c0,1.3,0,3.4-0.1,4
		c0,1.3-0.2,7.6-0.8,12.9c-0.7,5.3-2.3,21.2-9.5,38.5c-1.9,4.6-4,9.4-6.5,14.2c-6.9,13.2-16.5,26.6-29.1,38.1
		c-14.7,13.5-20.9,16.4-21.9,17c-1.4,0.8-2.3,1-3.5,0.4c-1.3-0.6-5.8-2.9-13.2-7.8c-7.4-4.9-13-9.8-17.4-14.4
		c-4.3-4.6-6.6-8.3-7.9-10.8h18.4V143.5z"/>
	<path fill="#702F8A" d="M31.3,152.3c0-2.3,1.3-2.8,2.1-3.2c-0.9-0.4-1.9-0.9-1.9-2.9c0-2.3,1.9-3.1,4.1-3.1c2.3,0,4.1,0.8,4.1,3.2
		c0,1.9-1.1,2.4-1.9,2.8c0.9,0.3,2.1,0.8,2.1,3.2c0,2.6-1.8,3.4-4.3,3.4C33,155.7,31.3,154.8,31.3,152.3z M35.6,154.3
		c1.3,0,1.9-0.9,1.9-2.3c0-1.2-0.6-2.1-1.9-2.1c-1.3,0-1.9,1-1.9,2.1C33.6,153.4,34.4,154.3,35.6,154.3z M35.6,148.5
		c1.1,0,1.8-0.7,1.8-1.9s-0.6-1.8-1.8-1.8c-0.9,0-1.8,0.7-1.8,1.8C33.8,147.7,34.6,148.5,35.6,148.5z"/>
	<path fill="#702F8A" d="M46,148.6c0.4-0.3,1.1-0.6,2.1-0.6c2.4,0,3.8,1.3,3.8,3.9c0,2.8-2,3.8-4.3,3.8c-3.4,0-4.2-1.7-4.3-2.9h2.5
		c0.1,0.6,0.4,1.4,1.8,1.4c1.4,0,2-0.8,2-2.3c0-1.3-0.5-2.3-2-2.3c-0.9,0-1.4,0.5-1.6,0.9h-2.3l0.3-6.9h6.8v1.7H46V148.6z"/>
	<path fill="#702F8A" d="M112.3,56.9v74.6h30.2c0,0,8.3-7.2,13.2-15.1h-26.5V56.9H112.3z"/>
</g>
</svg>
