<?xml version="1.0" encoding="UTF-8" standalone="yes"?>
<svg xml:space="preserve" baseProfile="tiny-ps" version="1.2" viewBox="0 0 80 80" xmlns="http://www.w3.org/2000/svg">
  <title>bimi-svg-tiny-12-ps</title>
  <path fill="#FFF" d="M0 0h80v80H0z"/>
  <path fill-rule="evenodd" d="M23.4 47.2v-3.1h.9c.8.3 1.2.8 1.1 1.5 0 .8-.3 1.4-1.1 1.5h-.9zM23.4 48v3.2h1.2c.7-.1 1.1-.6 1.1-1.5 0-.8-.4-1.5-1.1-1.7h-1.2zM51.4 44.2h-.9v3.1h.9c.8-.1 1.2-.7 1.1-1.5 0-.9-.3-1.4-1.1-1.6zM50.5 51.2V48h1.2c.8.3 1.1.9 1.1 1.7 0 .9-.4 1.4-1.1 1.5h-1.2z"/>
  <path fill-rule="evenodd" d="M14.8 12.3h50.5v42.8H14.8V12.3zm20 32.9c0-.7-.3-1-1.2-1.5v-.3h2.9l4.2 5.1v-4c-.2-.5-.5-.6-1.2-.6v-.5h2.8v.5c-.7.1-.9.3-.9.6V52h-.5l-5.5-6.5v5.4c.1.4.5.7 1.2.8v.3h-2.9v-.3c.6-.1.9-.2 1.2-.8v-5.7zm-5.4 4.3v-1.2h3.4v1.2h-3.4zm14 0v-1.2h3.4v1.2h-3.4zm-22.9-5.8v-.3h5.4c1 .2 1.7.9 1.8 2.2 0 1-.5 1.8-1.8 2.2 1.5.2 2.1.8 2.1 2s-.7 2-2 2.2h-5.7v-.3c.4 0 1.1-.3 1.1-.8v-6.2c0-.5-.3-.8-.9-1zm27-.3v.3c.7.2.9.5.9 1.1V51c0 .5-.6.7-1.1.8v.2H53c1.3-.2 2-1 1.9-2.3 0-1.2-.6-1.8-2.1-2 1.2-.4 1.8-1.1 1.8-2.2-.1-1.3-.8-1.9-1.8-2.2h-5.3zM14.8 59.7h50.5v8H14.8v-8z"/>
  <path fill="none" stroke="#000" d="M33 43.7v.3l.3.1c.5.3.7.4.8.6.1.1.2.3.2.5v5.6c-.1.2-.2.2-.3.3-.1.1-.2.1-.5.1h-.4v1.3H37v-1.3h-.5c-.6 0-.7-.2-.8-.3v-4l4.7 5.4.1.2h1.2v-8s.2-.1.5-.2l.4-.1v-1.4h-3.8v1.5h.5c.4 0 .5.1.6.1l.1.1V47l-3.3-4-.2-.2H33v.9zm-3.6 4.1h-.5V50h4.4v-2.2h-3.9zm14 0h-.5V50h4.4v-2.2h-3.9zm-22.9-4.9H20V44.1l.3.1c.3.1.4.2.5.2 0 0 .1.1.1.4v6.1l-.1.1c-.1.1-.3.1-.5.1h-.5v1.4H26c.7-.1 1.4-.4 1.8-.9.4-.5.6-1.2.6-1.9s-.2-1.3-.6-1.7c-.2-.2-.4-.3-.6-.4.1-.1.3-.2.4-.4.4-.5.5-1 .5-1.6 0-.7-.3-1.3-.7-1.8-.4-.5-.9-.7-1.5-.8H20.5zm4.4 2.8c0 .4-.1.6-.2.7-.1.1-.3.2-.5.3h-.4v-2.1h.3c.3.1.5.2.6.4.2.2.3.4.2.7zm22.1-2v.4l.3.1c.3.1.4.2.5.2 0 0 .1.1.1.4v6.1l-.1.1c-.1.1-.3.1-.5.1h-.5v1.4H53c.7-.1 1.4-.4 1.8-.9.4-.5.6-1.2.6-1.9s-.2-1.3-.6-1.7c-.2-.2-.4-.3-.6-.4.1-.1.3-.2.4-.4.4-.5.5-1 .5-1.6 0-.7-.3-1.3-.7-1.8-.4-.5-.9-.7-1.5-.8H47v.7zm5 2c0 .4-.1.6-.2.7-.1.1-.3.2-.5.3H51v-2.1h.3c.3.1.5.2.6.4.1.2.1.4.1.7zM15.3 12.8h49.5v41.8H15.3V12.8zm0 54.4v-7h49.5v7H15.3zm8.6-16.5v-2.2h.6c.2.1.4.3.5.4.1.2.2.5.2.8 0 .4-.1.6-.2.7-.1.1-.2.2-.5.2h-.6zm27.8 0H51v-2.2h.6c.2.1.4.3.5.4.1.2.2.5.2.8 0 .4-.1.6-.2.7-.1.2-.2.3-.4.3z"/>
</svg>