<?xml version="1.0" encoding="utf-8"?>
<!-- Generator: Adobe Illustrator 28.0.0, SVG Export Plug-In . SVG Version: 6.00 Build 0)  -->
<svg version="1.2" baseProfile="tiny-ps" id="Logo" xmlns="http://www.w3.org/2000/svg" xmlns:xlink="http://www.w3.org/1999/xlink"
	  viewBox="0 0 50 50" xml:space="preserve">
<title>Keurig</title>
	<path fill="#3B2B2F" d="M49.5,25c0,13.53-10.97,24.5-24.5,24.5C11.47,49.5,0.5,38.53,0.5,25C0.5,11.47,11.47,0.5,25,0.5
		C38.53,0.5,49.5,11.47,49.5,25"/>
	<path fill="#FFFFFF" d="M21.13,24.63c0,2.52-2.03,4.56-4.54,4.56s-4.54-2.04-4.54-4.56c0-2.52,2.03-4.56,4.54-4.56
		S21.13,22.11,21.13,24.63 M16.59,9.57c-2.51,0-4.54,2.04-4.54,4.56c0,2.52,2.03,4.56,4.54,4.56s4.54-2.04,4.54-4.56
		C21.13,11.62,19.1,9.57,16.59,9.57 M16.59,30.56c-2.51,0-4.54,2.04-4.54,4.56c0,2.52,2.03,4.56,4.54,4.56s4.54-2.04,4.54-4.56
		C21.13,32.6,19.1,30.56,16.59,30.56 M39.38,10.13H31l-8.51,14.5l8.52,14.5h8.39l-8.77-14.5L39.38,10.13z"/>
</svg>
