<?xml version="1.0" encoding="UTF-8"?>
<svg id="Square" version="1.2" baseProfile="tiny-ps" xmlns="http://www.w3.org/2000/svg" viewBox="0 0 1024 1024">
  <title>Interzone Division LLC</title>
  <path id="Logo" d="m873.86,662.14c0-40.98-14.37-94.34-42.85-159.67-28.48-65.34-71.1-142.65-127.64-231.51-82.66-129.89-166.48-238.73-167.32-239.82l-24.04-31.14-24.04,31.14c-.85,1.09-84.67,109.93-167.33,239.82-56.54,88.86-99.16,166.17-127.64,231.51-28.48,65.34-42.85,118.69-42.85,159.67,0,96.65,37.64,187.53,105.98,255.87,68.34,68.34,159.22,105.99,255.87,105.98,96.65,0,187.53-37.64,255.87-105.98,68.34-68.34,105.99-159.22,105.99-255.87Zm-300.47.72c0,16.93-6.88,32.27-18,43.39-11.12,11.12-26.46,18-43.39,18s-32.27-6.88-43.39-18c-11.12-11.12-18-26.46-18-43.39s6.88-32.27,18-43.39c11.12-11.12,26.46-18,43.39-18s32.27,6.88,43.39,18c11.12,11.12,18,26.46,18,43.39Zm-172.5,49.09c-7.35-1.28-14.74-2.64-22.13-4.07-23.6-4.57-47.13-9.88-68.99-15.61-16.39-4.3-31.85-8.84-45.64-13.46-10.34-3.46-19.74-6.96-27.83-10.37-4.79-2.02-9.11-4.01-12.87-5.91,5.16-2.54,11.37-5.25,18.38-7.98,16.49-6.43,37.36-12.96,60.3-19,30.58-8.06,64.92-15.31,98.41-20.94-6.43,14.8-10,31.11-10,48.25s3.71,34.07,10.37,49.09Zm222.59-97.34c7.29,1.23,14.62,2.53,21.95,3.9,23.61,4.42,47.15,9.55,69.02,15.12,16.4,4.17,31.86,8.59,45.65,13.09,10.34,3.37,19.74,6.79,27.82,10.13,4.7,1.94,8.95,3.86,12.66,5.69-5.39,2.72-11.94,5.63-19.37,8.56-16.58,6.55-37.43,13.22-60.34,19.41-30.43,8.23-64.51,15.66-97.75,21.44,6.66-15.02,10.37-31.63,10.37-49.09s-3.57-33.45-10-48.25Zm112.94-38.03c-36.75-9.64-77.5-17.97-116.7-24.11-19.6-3.07-38.8-5.58-56.93-7.43-7.21-.73-14.23-1.35-21.06-1.86l.07-130.2h176.66c22.97,40.91,43.75,81.59,59.94,119.38,9.84,22.96,17.98,44.84,23.92,64.87-19.36-7.41-41.75-14.3-65.9-20.65Zm-194.7-224.34l.12-211.78c23.01,31.99,51.42,72.55,81.14,117.49,19.79,29.92,40.15,61.78,59.86,94.29h-141.13Zm-60.86,0h-139.8c3.81-6.28,7.64-12.54,11.49-18.77,43.85-70.92,89.7-137.41,124.53-186.07,1.32-1.84,2.61-3.64,3.9-5.43l-.12,210.27Zm-175.16,60.74h175.27l-.07,130.32c-5.54.43-11.21.92-17,1.49-30.09,2.97-63.25,7.83-96.32,14.02-24.8,4.64-49.52,10.03-72.82,15.96-17.48,4.45-34.15,9.2-49.5,14.2-8.2,2.68-16.01,5.42-23.41,8.26,3.99-13.45,8.96-27.74,14.79-42.62,9.6-24.54,21.49-50.69,34.94-77.57,10.53-21.04,22.02-42.51,34.12-64.06Zm-85.13,314.64c19.56,7.71,42.26,14.9,66.78,21.54,36.76,9.94,77.52,18.56,116.75,24.93,19.61,3.18,38.83,5.79,56.99,7.7,6.78.71,13.42,1.33,19.88,1.84l-.1,178.95c-30.36-3.11-59.32-10.7-86.31-22.11-54.11-22.88-100.25-61.19-132.79-109.36-16.27-24.09-29.15-50.63-37.96-78.95-2.64-8.5-4.91-17.16-6.81-25.96,1.18.48,2.37.96,3.57,1.43Zm321.24,56.1c6.03-.46,12.22-1.02,18.54-1.67,30.13-3.08,63.32-8.13,96.4-14.53,24.81-4.81,49.54-10.38,72.85-16.49,17.48-4.59,34.15-9.47,49.51-14.61,9.86-3.3,19.17-6.7,27.85-10.23-4,18.58-9.68,36.52-16.93,53.66-22.88,54.11-61.19,100.25-109.36,132.79-24.09,16.27-50.63,29.15-78.95,37.96-19.24,5.98-39.3,10.09-60.01,12.11l.1-179Zm-29.82-97.85c-12.7,0-23-10.3-23-23s10.3-23,23-23,23,10.3,23,23-10.3,23-23,23Z"/>
</svg>