<?xml version="1.0" encoding="UTF-8"?>
<svg xmlns="http://www.w3.org/2000/svg" baseProfile="tiny-ps" version="1.2" viewBox="0 0 96 96" xml:space="preserve">
<title>EAGE</title>
  <!-- Generator: Adobe Illustrator 28.6.0, SVG Export Plug-In . SVG Version: 1.0.2 Build 62)  -->
  <g>
    <g id="Layer_1">
      <rect width="96" height="96" fill="#009b7c" stroke-width="0"/>
      <path d="M16.7,53v-4.9h2.9c2,0,2.9.4,3.4,2.3h1.7v-5.6h-1.7c-.4,1.5-1.2,2.1-3.3,2.1h-3v-6.4h3.6c2.1,0,3.1.5,4.7,2.4h1.6v-3.6H10v1.2c1.7,0,2.3.7,2.3,2v10.7c0,1.6-.7,2.2-2.3,2.2v1.2h17l.8-4.3h-1.7c-2.2,2.6-3.6,3.1-6,3.1s-3.3-.9-3.3-2.4M39.4,48.2h-4.4l2.1-5.9,2.3,5.9ZM48.3,55.5c-1,0-1.7-.6-2.3-2.1l-5.4-14h-4.7l.6,1.2-5,12.6c-.5,1.2-.9,1.9-2.7,2.3v1.2h5.9v-1.2c-1.6-.2-1.9-1.3-1.4-3l1.1-3.1h5.3l1.5,3.7c.6,1.5.2,2.2-1.5,2.4v1.2h8.6s0-1.2,0-1.2ZM67.6,49.4v-1.2h-8.3v1.2c1.4,0,1.9.7,1.9,1.9v4c-.6.3-1.3.5-2.1.5-3.7,0-5.8-3-5.8-8s1.8-7.6,5.2-7.6,4.8,2,5.9,4.6h1.3v-4.3c-1.5-1-4.5-1.5-7.1-1.5-6.6,0-10.2,4.4-10.2,9.3s3.8,8.7,10.1,8.7,5.6-.5,7.2-1.1v-4.5c0-1.3.5-1.9,1.9-1.9M83.2,43h1.6v-3.6h-16.6v1.2c1.7,0,2.3.7,2.3,2v10.7c0,1.6-.7,2.2-2.3,2.2v1.2h17l.8-4.3h-1.7c-2.2,2.6-3.6,3.1-6,3.1s-3.3-.9-3.3-2.4v-4.9h2.9c2,0,2.9.4,3.4,2.3h1.7v-5.6h-1.7c-.4,1.5-1.2,2.1-3.3,2.1h-3v-6.4h3.6c2.1,0,3.1.5,4.7,2.4" fill="#fff" stroke-width="0"/>
    </g>
  </g>
</svg>