<?xml version="1.0" encoding="utf-8"?>
<!-- Generator: Adobe Illustrator 26.3.1, SVG Export Plug-In . SVG Version: 6.00 Build 0)  -->
<svg version="1.2" baseProfile="tiny-ps" id="Layer_1" xmlns="http://www.w3.org/2000/svg" xmlns:xlink="http://www.w3.org/1999/xlink" viewBox="0 0 150 150" xml:space="preserve">
<title>Reddit</title>
<g id="icon_2">
	<circle fill="#FF4500" cx="75" cy="74.8" r="73.6"/>
	<path fill="#FFFFFF" d="M117.7,84.6c0.2,1.1,0.2,2.1,0.3,3.2c0,16.5-19.2,29.9-43,29.9s-43-13.4-43-29.9c0-1.1,0.1-2.2,0.2-3.2
		c-1.2-0.5-2.2-1.2-3.1-2.1c-4.3-4.1-4.4-10.9-0.2-15.2s10.9-4.4,15.2-0.2c8.6-5.8,18.7-9,29.1-9.1l5.5-25.7c0.2-1,1.2-1.7,2.3-1.5
		l17.9,3.8c1.2-2.5,3.7-4.1,6.5-4.3c4.2-0.2,7.8,3.1,8,7.3c0.2,4.2-3.1,7.8-7.3,8c-4.2,0.2-7.8-3.1-8-7.3l-16-3.4l-4.9,23
		c10.3,0.2,20.2,3.3,28.7,9.1c2-1.9,4.7-3,7.4-3c5.9,0,10.7,4.8,10.7,10.7C124.1,79.1,121.6,82.9,117.7,84.6z M58.1,90.2
		c4.2,0,7.7-3.4,7.7-7.7c0-4.2-3.4-7.7-7.7-7.7s-7.7,3.4-7.7,7.7C50.5,86.7,53.9,90.2,58.1,90.2z M93.3,102.7
		c0.8-0.8,0.7-2.1-0.1-2.8c-0.8-0.8-2.1-0.7-2.8,0.1c-3.3,3.3-10.4,4.5-15.4,4.5c-5,0-12.1-1.2-15.4-4.5c-0.8-0.8-2-0.8-2.8,0
		c-0.8,0.8-0.8,2,0,2.8c5.2,5.2,15.3,5.6,18.2,5.6C78,108.4,88,108,93.3,102.7C93.3,102.7,93.3,102.7,93.3,102.7z M99.6,82.5
		c0-4.2-3.4-7.7-7.7-7.7c-4.2,0-7.7,3.4-7.7,7.7c0,4.2,3.4,7.7,7.7,7.7C96.1,90.2,99.6,86.7,99.6,82.5z"/>
</g>
</svg>
