<?xml version="1.0" encoding="UTF-8"?><svg xmlns="http://www.w3.org/2000/svg" width="320" height="320" version="1.2" baseProfile="tiny-ps"><title>Flexibits</title><g fill="none" fill-rule="evenodd"><path fill="#FFF" d="M0 0h320v320H0z"></path><path fill="#FA0" d="M160 25c100 0 140 42.5 140 135s-40 135-140 135S20 252.5 20 160 60 25 160 25Zm-.422 44.423c-57.273 0-97.459 81.566-19.21 148.194-39.794 16.524-81.3-3.114-92.46-31.808.787 13.041 5.77 31.033 10.911 38.872 12.2 15.974 58.422 32.445 100.76 7.046 42.336 25.399 88.562 8.928 100.76-7.046 5.138-7.839 10.125-25.83 10.912-38.872-11.16 28.694-52.662 48.332-92.463 31.808 78.25-66.628 38.066-148.194-19.21-148.194Zm0 24.321c36.436.198 53.403 45.962 22.58 89.932-6.732 9.608-14.536 17.272-22.58 22.991-8.044-5.72-15.844-13.383-22.574-22.99-30.828-43.971-13.86-89.735 22.574-89.933Z"></path></g></svg>