<?xml version="1.0" encoding="UTF-8"?>
<svg version="1.2" xmlns="http://www.w3.org/2000/svg" baseProfile="tiny-ps" width="330" height="330">
<title id="titleID">Kenneth's Hair Salons + Day Spas, Inc.</title>
  <desc id="descID">This is the logo for Kenneth's Hair Salons &amp; Day Spas. It has a stylized fiery letter K in black representing a constant drive for innovation.</desc>
<path d="M0 0 C5.62713649 1.04583293 5.62713649 1.04583293 8.375 3.44140625 C9.90583454 7.70249208 9.97603167 11.57880315 8.5859375 15.88671875 C5.84432739 21.38858938 1.89612389 25.64242694 -3.625 28.44140625 C-4.945 28.44140625 -6.265 28.44140625 -7.625 28.44140625 C-7.72361328 29.54548828 -7.72361328 29.54548828 -7.82421875 30.671875 C-8.87086047 34.29172367 -10.51959153 35.41701616 -13.4375 37.75390625 C-18.0327718 41.6720493 -20.39413883 44.86425333 -22.625 50.44140625 C-23.285 50.44140625 -23.945 50.44140625 -24.625 50.44140625 C-24.79515625 51.02148438 -24.9653125 51.6015625 -25.140625 52.19921875 C-27.09019384 58.48346726 -29.39966176 63.27034455 -34.1875 67.94140625 C-36.79277829 70.61348655 -37.99599102 73.11256182 -39.625 76.44140625 C-40.264375 77.06015625 -40.90375 77.67890625 -41.5625 78.31640625 C-43.99884468 80.82657955 -45.20269165 83.35436986 -46.6875 86.4921875 C-47.8485031 88.90610644 -49.23866259 91.15093574 -50.625 93.44140625 C-51.6400089 95.43383114 -52.64373444 97.4321482 -53.625 99.44140625 C-54.285 99.44140625 -54.945 99.44140625 -55.625 99.44140625 C-56.058125 100.74078125 -56.058125 100.74078125 -56.5 102.06640625 C-57.18338414 104.11655868 -57.88647601 106.16046528 -58.625 108.19140625 C-59.6555922 111.24259111 -59.6555922 111.24259111 -59.94921875 113.69140625 C-60.87207892 120.04227193 -63.00805998 123.87986836 -66.87109375 128.96875 C-69.4059858 132.54243968 -71.04303872 136.37350581 -72.625 140.44140625 C-71.80257812 139.80074219 -70.98015625 139.16007813 -70.1328125 138.5 C-62.37043395 132.47647833 -54.51531742 126.67086115 -46.3125 121.25390625 C-43.61980603 119.50589012 -43.61980603 119.50589012 -41.30078125 117.4921875 C-38.63986221 115.452797 -36.17555791 114.18245278 -33.125 112.81640625 C-25.30198086 109.02079326 -18.51717452 103.8347202 -12.05200195 98.02880859 C-8.12712404 94.54673426 -8.12712404 94.54673426 -5.46484375 93.98828125 C-4.83707031 94.0553125 -4.20929688 94.12234375 -3.5625 94.19140625 C0.19935437 94.63367027 0.19935437 94.63367027 3.0625 93.75390625 C7.41681828 93.16548486 10.1499082 96.27483832 13.5 98.75390625 C16.44431845 101.50620393 17.79240259 103.77644383 19.375 107.44140625 C19.705 107.77140625 20.035 108.10140625 20.375 108.44140625 C20.875 111.56640625 20.875 111.56640625 20.375 115.44140625 C18.82689194 117.27139526 17.10101868 118.76110094 15.30859375 120.3515625 C12.96342815 122.88623643 11.75684982 125.43634312 10.3125 128.56640625 C8.37286335 132.70089489 6.91340061 135.31433556 3.078125 137.96875 C-0.33658144 140.9213746 -2.78332609 144.93258734 -5.37890625 148.6015625 C-7.5982733 151.4076144 -9.66521247 153.44103121 -12.625 155.44140625 C-13.615 155.44140625 -14.605 155.44140625 -15.625 155.44140625 C-15.686875 156.03953125 -15.74875 156.63765625 -15.8125 157.25390625 C-16.94934588 160.31464515 -18.8377103 160.87780471 -21.625 162.44140625 C-22.285 163.43140625 -22.945 164.42140625 -23.625 165.44140625 C-24.615 165.44140625 -25.605 165.44140625 -26.625 165.44140625 C-26.625 166.76140625 -26.625 168.08140625 -26.625 169.44140625 C-29 171.12890625 -29 171.12890625 -30.66015625 172.11328125 C-33.16343822 173.80536051 -35.23908125 175.80738531 -37.4375 177.87890625 C-47.86788366 187.44140625 -47.86788366 187.44140625 -53.625 187.44140625 C-52.69363425 190.46416485 -51.75378647 193.48422365 -50.8125 196.50390625 C-50.55146484 197.35146484 -50.29042969 198.19902344 -50.02148438 199.07226562 C-48.10705962 205.19369787 -46.20746177 211.0677136 -42.625 216.44140625 C-42.191875 218.01921875 -42.191875 218.01921875 -41.75 219.62890625 C-40.67407164 223.27510792 -39.29655086 226.30640462 -37.52734375 229.64453125 C-36.625 231.44140625 -36.625 231.44140625 -35.625 234.44140625 C-34.861875 234.97765625 -34.09875 235.51390625 -33.3125 236.06640625 C-30.10442237 238.9014516 -29.05234105 241.49136662 -27.51953125 245.41796875 C-26.69512212 247.6118301 -26.69512212 247.6118301 -24.625 249.44140625 C-22.40829122 249.23072298 -22.40829122 249.23072298 -19.9375 248.69140625 C-16.82859571 248.29040265 -15.22093854 248.11566924 -12.4453125 249.6328125 C-10.0170292 251.72355435 -8.06518345 253.56103934 -6.625 256.44140625 C-6.16334472 263.71247687 -6.16334472 263.71247687 -7.8125 266.31640625 C-9.98509204 267.66491165 -12.25053843 268.50411879 -14.625 269.44140625 C-14.955 270.10140625 -15.285 270.76140625 -15.625 271.44140625 C-15.04105469 271.53164063 -14.45710937 271.621875 -13.85546875 271.71484375 C-9.62007611 273.09449879 -7.0297628 276.82779763 -4.625 280.44140625 C-4.480625 281.61703125 -4.33625 282.79265625 -4.1875 284.00390625 C-3.415167 288.72371904 -1.02143845 290.13342101 2.66015625 292.9609375 C3.22605469 293.44949219 3.79195312 293.93804687 4.375 294.44140625 C4.375 295.10140625 4.375 295.76140625 4.375 296.44140625 C5.5196875 296.81265625 5.5196875 296.81265625 6.6875 297.19140625 C9.76147975 298.62116427 10.65793138 299.55360903 12.375 302.44140625 C12.88671875 305.45703125 12.88671875 305.45703125 13.0625 308.69140625 C13.16111328 310.30789063 13.16111328 310.30789063 13.26171875 311.95703125 C13.29910156 312.776875 13.33648437 313.59671875 13.375 314.44140625 C8.25193555 314.44140625 5.88765462 313.41242894 2.1875 309.81640625 C-0.22669012 307.23043722 -2.16033561 304.7533623 -3.8125 301.62890625 C-5.78135788 298.16643205 -7.15592371 297.22041973 -10.625 295.44140625 C-12.58215306 293.83374481 -13.50008849 293.06596381 -14 290.56640625 C-14.94280621 287.36086513 -17.25916833 285.75221858 -19.625 283.44140625 C-20.615 281.92546875 -20.615 281.92546875 -21.625 280.37890625 C-23.69073118 277.34486357 -25.7083505 275.62889337 -28.625 273.44140625 C-29.24375 272.67828125 -29.8625 271.91515625 -30.5 271.12890625 C-32.64710961 269.0418222 -32.64710961 269.0418222 -36.25 269.62890625 C-39.46983709 270.26988833 -39.46983709 270.26988833 -41.625 271.44140625 C-43.35292703 271.54737792 -45.08256106 271.62603744 -46.8125 271.69140625 C-52.42561164 272.11754996 -57.2217619 273.468257 -62.50390625 275.36669922 C-67.70593172 277.20951674 -72.9433369 278.5521859 -78.3125 279.81640625 C-85.44225654 281.53693125 -92.42783015 283.5236035 -99.375 285.87890625 C-100.58869263 286.27505127 -100.58869263 286.27505127 -101.8269043 286.67919922 C-106.88841762 288.45086062 -110.69351131 290.77539458 -114.8828125 294.11010742 C-116.90777177 295.65748731 -118.83855524 296.56778392 -121.25 297.37890625 C-124.99347556 298.73071687 -128.4148583 300.36418716 -131.91210938 302.26635742 C-141.50754541 307.42224727 -141.50754541 307.42224727 -146.5703125 306.0859375 C-147.24835938 305.87324219 -147.92640625 305.66054688 -148.625 305.44140625 C-149.57117188 305.25964844 -150.51734375 305.07789063 -151.4921875 304.890625 C-157.60503921 303.64823743 -161.95623485 302.01915007 -166.734375 298.00390625 C-169.80320629 295.46768204 -173.21875446 293.48877724 -176.625 291.44140625 C-175.69378439 287.99766549 -175.01713592 286.69246537 -171.96484375 284.73828125 C-170.84207031 284.2278125 -169.71929687 283.71734375 -168.5625 283.19140625 C-167.2874708 282.60370139 -166.01410114 282.01238624 -164.7421875 281.41796875 C-164.07026367 281.10504883 -163.39833984 280.79212891 -162.70605469 280.46972656 C-160.55845866 279.4085259 -158.50858264 278.24379943 -156.4453125 277.02734375 C-146.73787678 271.36513852 -139.98395519 269.4954322 -128.625 269.44140625 C-121.50419161 268.6666623 -115.28913933 265.66986207 -108.859375 262.68359375 C-105.7986848 261.50811128 -103.85260213 261.16232787 -100.625 261.44140625 C-100.625 260.78140625 -100.625 260.12140625 -100.625 259.44140625 C-100.08230469 259.17585938 -99.53960937 258.9103125 -98.98046875 258.63671875 C-98.26503906 258.28351563 -97.54960937 257.9303125 -96.8125 257.56640625 C-96.10480469 257.21835937 -95.39710938 256.8703125 -94.66796875 256.51171875 C-92.41253582 255.37575765 -92.41253582 255.37575765 -89.625 253.44140625 C-86.9375 253.31640625 -86.9375 253.31640625 -84.625 253.44140625 C-84.295 254.43140625 -83.965 255.42140625 -83.625 256.44140625 C-76.035 256.44140625 -68.445 256.44140625 -60.625 256.44140625 C-59.965 255.12140625 -59.305 253.80140625 -58.625 252.44140625 C-54.005 252.44140625 -49.385 252.44140625 -44.625 252.44140625 C-44.625 249.36122128 -46.50498214 247.44863411 -48.1171875 244.93359375 C-54.79018229 233.90413604 -54.79018229 233.90413604 -56.1796875 228.140625 C-56.32664063 227.57988281 -56.47359375 227.01914063 -56.625 226.44140625 C-57.24375 226.13203125 -57.8625 225.82265625 -58.5 225.50390625 C-63.71611088 222.89585081 -66.18242199 214.3535455 -68.6640625 209.23632812 C-70.40553088 205.69689335 -72.1576366 202.54198681 -74.625 199.44140625 C-75.99749613 196.47970407 -76.625 194.72859734 -76.625 191.44140625 C-77.56085938 191.31958984 -77.56085938 191.31958984 -78.515625 191.1953125 C-80.625 190.44140625 -80.625 190.44140625 -81.671875 188.59375 C-81.90390625 187.86285156 -82.1359375 187.13195312 -82.375 186.37890625 C-82.61734375 185.64542969 -82.8596875 184.91195312 -83.109375 184.15625 C-83.27953125 183.59035156 -83.4496875 183.02445313 -83.625 182.44140625 C-84.285 182.44140625 -84.945 182.44140625 -85.625 182.44140625 C-85.96273437 183.6221875 -86.30046875 184.80296875 -86.6484375 186.01953125 C-87.09875566 187.57688154 -87.54928771 189.13416998 -88 190.69140625 C-88.22171875 191.46871094 -88.4434375 192.24601563 -88.671875 193.046875 C-88.89101562 193.80097656 -89.11015625 194.55507812 -89.3359375 195.33203125 C-89.53493652 196.02329102 -89.73393555 196.71455078 -89.93896484 197.42675781 C-90.66036447 199.54525949 -91.6207829 201.44472491 -92.625 203.44140625 C-92.96704167 205.42669517 -92.96704167 205.42669517 -93.0625 207.50390625 C-93.36956897 210.91456511 -94.01552788 213.87282295 -95.0625 217.12890625 C-97.02711667 223.77837805 -97.34606398 230.58123998 -97.71459961 237.47338867 C-98.20069957 244.62202913 -99.67788483 250.17810261 -104.5546875 255.578125 C-105.19664062 256.08988281 -105.83859375 256.60164063 -106.5 257.12890625 C-107.19867188 257.6909375 -107.89734375 258.25296875 -108.6171875 258.83203125 C-109.27976562 259.363125 -109.94234375 259.89421875 -110.625 260.44140625 C-111.14320313 260.951875 -111.66140625 261.46234375 -112.1953125 261.98828125 C-114.90164016 264.62066553 -116.91400862 265.76645197 -120.625 265.87890625 C-124.18515986 265.75281725 -127.28321378 264.62337325 -130.625 263.44140625 C-130.8492 260.77524409 -131.05464971 258.10971358 -131.25 255.44140625 C-131.31445312 254.69761719 -131.37890625 253.95382812 -131.4453125 253.1875 C-131.81767949 247.83472453 -131.15697383 243.58696721 -129.625 238.44140625 C-128.305 238.44140625 -126.985 238.44140625 -125.625 238.44140625 C-125.851875 237.71953125 -126.07875 236.99765625 -126.3125 236.25390625 C-126.625 233.44140625 -126.625 233.44140625 -125.1875 231.19921875 C-123.27732084 227.82775253 -123.12577867 225.35734312 -122.9375 221.50390625 C-122.87175781 220.31925781 -122.80601563 219.13460937 -122.73828125 217.9140625 C-122.58005176 214.48631118 -122.58005176 214.48631118 -122.77734375 211.2421875 C-122.60033051 207.9878672 -121.93431009 207.02330591 -119.875 204.56640625 C-116.28362602 199.64833647 -115.16779188 194.63674943 -114.00683594 188.76220703 C-113.6331886 186.96827031 -113.13808205 185.2005447 -112.625 183.44140625 C-111.635 183.11140625 -110.645 182.78140625 -109.625 182.44140625 C-109.51542969 181.75433594 -109.40585938 181.06726563 -109.29296875 180.359375 C-109.05513672 179.00779297 -109.05513672 179.00779297 -108.8125 177.62890625 C-108.58626953 176.28892578 -108.58626953 176.28892578 -108.35546875 174.921875 C-107.625 172.44140625 -107.625 172.44140625 -106.14453125 170.98828125 C-103.94996391 168.75422298 -103.75499642 166.53763901 -103.125 163.50390625 C-102.24644565 159.28370766 -101.24785357 156.81763266 -98.625 153.44140625 C-97.95628598 151.33363328 -97.95628598 151.33363328 -97.625 149.12890625 C-96.79766231 144.89405908 -95.45180513 141.34412629 -93.625 137.44140625 C-98.22909146 141.03750135 -101.70172231 144.73227317 -105.078125 149.48828125 C-107.1276358 152.07604741 -109.49736903 154.0193465 -112.109375 156.01953125 C-113.73811143 157.38055663 -113.73811143 157.38055663 -114.59375 159.40625 C-115.83112456 161.84818995 -117.2569039 163.03397938 -119.375 164.75390625 C-122.7311818 167.57504457 -125.51392874 170.50452936 -128.203125 173.9609375 C-129.8467411 175.67228503 -131.51500026 176.39066041 -133.625 177.44140625 C-134.55716884 178.8396595 -135.48373108 180.24234513 -136.3671875 181.671875 C-138.44120705 184.5896727 -141.05434989 186.94802907 -143.62109375 189.4296875 C-145.41685214 191.2324469 -146.98443183 193.07513917 -148.5625 195.06640625 C-150.80508546 197.76604038 -153.09080298 199.51657585 -156.0625 201.37890625 C-160.16331101 203.95655888 -163.01628015 206.85669108 -166.0859375 210.578125 C-168.10959361 213.0280843 -170.37838744 215.19479369 -172.625 217.44140625 C-173.20121094 218.15941406 -173.77742188 218.87742188 -174.37109375 219.6171875 C-179.5490471 225.91099469 -185.07038752 229.98022402 -192.0402832 234.04174805 C-194.97616682 235.75479246 -197.40768788 237.2229341 -199.8203125 239.6484375 C-201.92840536 241.74284144 -203.29951588 242.19194657 -206.1875 242.75390625 C-206.95191406 242.91503906 -207.71632813 243.07617188 -208.50390625 243.2421875 C-210.625 243.44140625 -210.625 243.44140625 -213.625 242.44140625 C-215.05237361 238.53491005 -216.43178439 234.59058311 -215.625 230.44140625 C-213.98521682 229.39790786 -212.31035024 228.40958617 -210.625 227.44140625 C-208.81429596 225.51933772 -207.1391283 223.52120009 -205.46875 221.4765625 C-201.72202274 217.34087415 -197.73456817 214.86584271 -192.6875 212.56640625 C-188.99024118 210.78557499 -186.0685587 209.24541725 -183.3125 206.19140625 C-180.625 203.44140625 -180.625 203.44140625 -177.0625 202.44140625 C-173.32765066 201.35490462 -172.32262145 200.21011418 -170.0703125 197.15234375 C-167.68633644 194.33023155 -164.69280217 192.30803726 -161.7578125 190.08984375 C-158.46856798 187.54760714 -155.66439313 184.72581761 -153.05078125 181.49609375 C-149.42477879 177.07970424 -146.48285281 174.64282272 -141.26171875 172.35546875 C-138.81247222 170.98763179 -138.58482243 169.02092903 -137.625 166.44140625 C-136.4329477 165.3574637 -135.19679407 164.32144285 -133.9375 163.31640625 C-129.64112548 159.75944401 -127.07045058 155.75607493 -124.20703125 151.01171875 C-121.82474016 147.14123101 -118.96224659 143.9396177 -115.9375 140.55078125 C-108.70277584 132.74147949 -108.70277584 132.74147949 -104.5 123.19140625 C-102.83069717 117.43722119 -98.53801066 114.08127869 -94.21875 110.21484375 C-91.34206894 107.13887455 -90.24100687 104.2928893 -88.625 100.44140625 C-86.6875 98.69140625 -86.6875 98.69140625 -84.625 97.44140625 C-80.44375416 94.59754419 -79.15286353 92.21597977 -77.625 87.44140625 C-76.965 87.44140625 -76.305 87.44140625 -75.625 87.44140625 C-75.70363281 86.76207031 -75.78226563 86.08273438 -75.86328125 85.3828125 C-75.54501301 81.4540259 -73.80953401 78.67698519 -71.8125 75.37890625 C-71.45607422 74.76724609 -71.09964844 74.15558594 -70.73242188 73.52539062 C-69.23550337 70.98474912 -67.70169252 68.54208706 -65.9140625 66.1953125 C-64.41305831 64.37416552 -64.41305831 64.37416552 -63.8125 61.44140625 C-62.26213757 57.52470117 -60.26839041 56.41490939 -56.625 54.44140625 C-55.965 54.44140625 -55.305 54.44140625 -54.625 54.44140625 C-54.356875 53.67828125 -54.08875 52.91515625 -53.8125 52.12890625 C-52.67365495 49.55152007 -51.81083329 48.17185761 -49.625 46.44140625 C-48.965 46.44140625 -48.305 46.44140625 -47.625 46.44140625 C-47.295 45.45140625 -46.965 44.46140625 -46.625 43.44140625 C-44.38290702 41.78570682 -42.0374563 40.38821514 -39.65625 38.94140625 C-37.3341093 37.52756665 -37.3341093 37.52756665 -36.625 34.44140625 C-35.635 34.44140625 -34.645 34.44140625 -33.625 34.44140625 C-33.6559375 32.52328125 -33.6559375 32.52328125 -33.6875 30.56640625 C-33.75 26.69140625 -33.75 26.69140625 -32.625 24.44140625 C-31.4803125 24.00828125 -31.4803125 24.00828125 -30.3125 23.56640625 C-27.21667906 22.2704812 -25.72648074 21.05014097 -23.625 18.44140625 C-22.35715876 15.30789908 -22.35715876 15.30789908 -21.625 12.44140625 C-19.975 12.44140625 -18.325 12.44140625 -16.625 12.44140625 C-16.356875 11.8690625 -16.08875 11.29671875 -15.8125 10.70703125 C-12.09716145 3.61855639 -8.40194416 -0.80689403 0 0 Z M-18.625 115.44140625 C-22.15223577 118.03284478 -25.69880074 119.9828962 -29.625 121.87890625 C-32.64900016 123.35028543 -35.23797149 124.76641637 -37.75 127.00390625 C-40.15299272 129.04122616 -41.54658162 129.93313548 -44.3125 131.12890625 C-49.30654026 133.47791945 -52.97095137 137.16521121 -56.953125 140.921875 C-59.20858223 143.0487316 -61.50596795 145.06925714 -63.875 147.06640625 C-70.35182883 152.74690367 -76.33114752 158.89005913 -78.625 167.44140625 C-78.295 168.43140625 -77.965 169.42140625 -77.625 170.44140625 C-76.18377387 169.84618288 -74.74714132 169.23983006 -73.3125 168.62890625 C-72.51199219 168.29246094 -71.71148437 167.95601563 -70.88671875 167.609375 C-68.60608196 166.43163683 -67.38779136 165.27217157 -65.625 163.44140625 C-60.42249584 159.65377231 -55.26811656 156.48100124 -49.125 154.50390625 C-41.04336401 151.82548744 -34.47781029 146.52373852 -28.625 140.44140625 C-26.80249234 138.55380903 -24.99102302 136.7359271 -22.9453125 135.08984375 C-17.34936575 130.52768636 -13.1998925 125.2854131 -8.921875 119.52734375 C-7.44005167 117.53645866 -5.91111352 115.57940046 -4.328125 113.66796875 C-2.42248215 111.64385515 -2.42248215 111.64385515 -2.625 109.44140625 C-2.026875 109.37953125 -1.42875 109.31765625 -0.8125 109.25390625 C2.24643458 108.11773055 2.92541099 106.26810483 4.375 103.44140625 C-5.30825642 103.44140625 -11.7262704 109.42009854 -18.625 115.44140625 Z " fill="#030606" transform="translate(248.625,7.55859375)"/>
</svg>
