<?xml version="1.0" encoding="utf-8"?>
<!-- Generator: Adobe Illustrator 28.0.0, SVG Export Plug-In . SVG Version: 6.00 Build 0)  -->
<svg version="1.2" baseProfile="tiny-ps" id="Layer_1" xmlns="http://www.w3.org/2000/svg" xmlns:xlink="http://www.w3.org/1999/xlink"
	 viewBox="0 0 48 48" xml:space="preserve">
<title>Regulatory Affairs Professionals Society (RAPS)</title>
<g>
	<rect id="Rectangle_16" fill="#19204A" width="48" height="48"/>
	<g id="Group_717" transform="translate(17.899 158.45)">
		<path id="Path_1697" fill="#FFFFFF" d="M-4.2-113.5h-2.6c-0.4,0-0.8-0.2-1-0.5l-2-3.6c-0.2-0.3-0.5-0.5-0.8-0.4h-0.7v4.5h-2.8
			v-12.2h4c0.8,0,1.5,0.1,2.3,0.3c0.6,0.1,1.1,0.4,1.5,0.8c0.4,0.3,0.7,0.7,0.9,1.2c0.2,0.5,0.3,1,0.3,1.4c0,0.4-0.1,0.8-0.2,1.1
			c-0.1,0.3-0.3,0.7-0.5,1c-0.2,0.3-0.5,0.6-0.8,0.8c-0.3,0.2-0.7,0.4-1.1,0.6c0.2,0.1,0.4,0.2,0.5,0.4c0.2,0.1,0.3,0.3,0.4,0.5
			L-4.2-113.5z M-10.2-120c0.3,0,0.7,0,1-0.1c0.3-0.1,0.5-0.2,0.7-0.4c0.2-0.2,0.3-0.4,0.4-0.6c0.1-0.2,0.1-0.5,0.1-0.8
			c0-0.5-0.2-0.9-0.5-1.3c-0.4-0.3-0.9-0.5-1.6-0.5h-1.1v3.6L-10.2-120z"/>
		<path id="Path_1698" fill="#FFFFFF" d="M7.8-113.5H5.6c-0.2,0-0.4-0.1-0.6-0.2c-0.2-0.1-0.3-0.3-0.3-0.4L4-116.2h-4.7l-0.7,2.1
			c-0.1,0.2-0.2,0.3-0.3,0.4c-0.2,0.1-0.4,0.2-0.6,0.2h-2.2l4.7-12.2h2.9L7.8-113.5z M3.3-118.2l-1.1-3.4c-0.1-0.2-0.2-0.5-0.3-0.8
			c-0.1-0.3-0.2-0.6-0.3-0.9c-0.1,0.3-0.2,0.7-0.3,0.9s-0.2,0.5-0.3,0.8L0-118.2H3.3z"/>
		<path id="Path_1699" fill="#FFFFFF" d="M13.1-125.7c0.8,0,1.5,0.1,2.2,0.3c0.6,0.2,1.1,0.5,1.5,0.8c0.4,0.3,0.7,0.8,0.9,1.3
			c0.2,0.5,0.3,1,0.3,1.6c0,0.6-0.1,1.1-0.3,1.7c-0.2,0.5-0.5,1-0.9,1.3c-0.4,0.4-1,0.7-1.5,0.9c-0.7,0.2-1.5,0.3-2.2,0.3h-1.5v4.1
			H8.8v-12.2H13.1z M13.1-119.7c0.7,0,1.3-0.2,1.6-0.5c0.3-0.4,0.5-0.9,0.5-1.5c0-0.3,0-0.5-0.1-0.8c-0.1-0.2-0.2-0.4-0.4-0.6
			c-0.2-0.2-0.4-0.3-0.6-0.4c-0.3-0.1-0.6-0.1-0.9-0.1h-1.5v3.9L13.1-119.7z"/>
		<path id="Path_1700" fill="#FFFFFF" d="M26.3-123.2c-0.1,0.1-0.2,0.2-0.3,0.3c-0.1,0.1-0.2,0.1-0.4,0.1c-0.1,0-0.3,0-0.4-0.1
			c-0.1-0.1-0.3-0.2-0.5-0.3c-0.2-0.1-0.4-0.2-0.6-0.3c-0.3-0.1-0.5-0.1-0.8-0.1c-0.5,0-0.9,0.1-1.2,0.3c-0.3,0.2-0.4,0.6-0.4,0.9
			c0,0.2,0.1,0.4,0.2,0.6c0.2,0.2,0.4,0.3,0.6,0.4c0.3,0.1,0.6,0.2,0.9,0.3c0.3,0.1,0.7,0.2,1,0.3c0.3,0.1,0.7,0.3,1,0.4
			c0.3,0.2,0.6,0.4,0.9,0.6c0.3,0.3,0.5,0.6,0.6,0.9c0.2,0.4,0.2,0.9,0.2,1.3c0,0.5-0.1,1.1-0.3,1.6c-0.2,0.5-0.5,0.9-0.9,1.3
			c-0.4,0.4-0.9,0.7-1.4,0.9c-0.6,0.2-1.2,0.3-1.9,0.3c-0.4,0-0.8,0-1.2-0.1c-0.4-0.1-0.8-0.2-1.1-0.3c-0.4-0.1-0.7-0.3-1-0.5
			c-0.3-0.2-0.6-0.4-0.8-0.7l0.8-1.3c0.1-0.1,0.2-0.2,0.3-0.2c0.1-0.1,0.2-0.1,0.4-0.1c0.2,0,0.4,0.1,0.5,0.2
			c0.2,0.1,0.4,0.2,0.6,0.4c0.2,0.1,0.5,0.3,0.7,0.4c0.3,0.1,0.7,0.2,1,0.2c0.4,0,0.9-0.1,1.2-0.3c0.3-0.2,0.4-0.6,0.4-1.1
			c0-0.3-0.1-0.5-0.2-0.7c-0.2-0.2-0.4-0.3-0.6-0.4c-0.3-0.1-0.6-0.2-0.9-0.3c-0.3-0.1-0.7-0.2-1-0.3c-0.3-0.1-0.7-0.2-1-0.4
			c-0.3-0.2-0.6-0.4-0.9-0.6c-0.3-0.3-0.5-0.6-0.6-1c-0.2-0.5-0.2-1-0.2-1.4c0-0.5,0.1-0.9,0.3-1.3c0.2-0.4,0.5-0.8,0.8-1.2
			c0.4-0.4,0.8-0.6,1.3-0.8c0.6-0.2,1.2-0.3,1.8-0.3c0.4,0,0.7,0,1.1,0.1c0.3,0.1,0.7,0.1,1,0.3c0.3,0.1,0.6,0.2,0.9,0.4
			c0.3,0.2,0.5,0.3,0.7,0.5L26.3-123.2z"/>
	</g>
</g>
</svg>