<?xml version="1.0" encoding="utf-8"?>
<!-- Generator: Adobe Illustrator 28.3.0, SVG Export Plug-In . SVG Version: 6.00 Build 0)  -->
<svg version="1.2" baseProfile="tiny-ps" id="Layer_1" xmlns="http://www.w3.org/2000/svg" xmlns:xlink="http://www.w3.org/1999/xlink"
	 viewBox="0 0 135 135" xml:space="preserve">
<title>Faye</title>
<rect fill="#561DCF" width="135" height="135"/>
<path fill-rule="evenodd" fill="#FFFFFF" d="M17,45.8v32.8h5.5V65.5h15.1v-4.2H22.5V50.7H40v-4.9H17z M106,79c5.6,0,9.1-2.6,11.2-6
	l-4.5-2.5c-1.5,2.6-3.4,4-6.8,4c-4.7,0-7.3-2.7-7.7-7h19.6v-1.9c0-6.8-3.9-12.7-12.1-12.7c-8,0-12.9,6.1-12.9,13.2
	C93,73.5,97.4,79,106,79z M112.6,64.1H98.3v0c0.6-4.1,3.2-6.7,7.5-6.7C110.3,57.4,112.3,60.3,112.6,64.1z M84.4,54.4v14
	c0,3.7-2.9,6.4-6.3,6.4c-3.5,0-5.9-2.5-5.9-5.9V54.4h-5v14.8c0,5.8,4.1,9.8,9.7,9.8c6.4,0.1,7.5-4.5,7.5-4.5V77
	c-0.1,7.6-3.3,13.3-10.4,13.3c-7.3,0-9.4-3.6-10.7-7.3h-5.2C60.9,93.4,68.8,94.7,74,94.7C87.1,94.7,89.4,84,89.4,77V54.4L84.4,54.4z
	 M40.6,60.8c2.1-5.2,6.6-7.9,12.1-7.9c6.2,0,10.2,3.1,10.2,9V79h-5.2v-4.5c-3,3-5.2,4.5-9.8,4.5c-5,0-7.9-2.5-7.9-6.3
	c0-2.9,1.3-4.5,3.2-5.8c1.8-1.1,4.1-1.8,8.5-2.7c4.5-0.9,6-1.8,6-3.6c0-1.8-1.4-3.5-5.2-3.5c-3.6,0-5.9,1.9-7,5.1L40.6,60.8z M50,75
	c4.5,0,7.9-3.5,7.9-8.2l0-1c-0.8,0.2-1.3,0.4-2,0.5c-0.9,0.2-1.9,0.5-3.7,1c-4.4,1.2-6.7,1.9-6.7,4.5C45.5,73.8,47.1,75,50,75z"/>
</svg>
