<?xml version="1.0" encoding="UTF-8" standalone="yes"?>
<svg width="128" height="128" viewBox="0 0 128 128" fill="none" version="1.2" baseProfile="tiny-ps" xmlns="http://www.w3.org/2000/svg">
  <title>vidIQ</title>
  <rect width="128" height="128" fill="#0A0D15"/>
  <path d="M8.21826 58.571H15.7793L19.5197 70.4974H19.5972L23.3376 58.5873H30.9042L24.151 77.8059H14.6063L8.21826 58.571Z" fill="white"/>
  <path d="M34.1228 58.5484L42.7628 58.5132V77.7887H34.1228V58.5484Z" fill="white"/>
  <path d="M72.9956 47.5911H81.6356V77.7887H72.9956V47.5911Z" fill="#139DFF"/>
  <path d="M34.1228 47.5911L44.052 51.7082L34.1228 55.8253V47.5911Z" fill="white"/>
  <path d="M120.406 78.0302L114.419 72.1672C115.725 69.731 116.264 66.5802 116.264 62.7663C116.256 52.2583 110.446 47.2181 100.55 47.2181C90.2499 47.2181 84.8689 52.2583 84.8689 62.7663C84.8689 73.5937 89.8238 78.3144 100.55 78.3144C104.376 78.3144 107.361 77.7541 109.655 76.6606L115.835 82.7104L120.406 78.0302ZM93.1022 62.7663C93.1022 57.9806 95.9739 55.2629 100.55 55.2629C105.126 55.2629 108.044 57.9698 107.997 62.7663C107.956 67.931 105.059 70.2264 100.55 70.2724C95.9435 70.3319 93.1022 67.552 93.1022 62.7663Z" fill="#139DFF"/>
  <path d="M62.2034 47.5911V60.1238H62.0789C60.6956 58.4997 58.4519 57.8852 55.6051 57.8852C49.1673 57.8852 45.5154 61.7506 45.5154 68.201C45.5154 74.7922 48.6776 78.4356 55.7517 78.4356C58.4547 78.4356 61.3651 77.6236 62.4994 75.9156H62.5852V77.7887H69.7561V47.5911H62.2034ZM57.3065 72.0231C55.1846 72.0556 53.876 70.6237 53.876 68.1604C53.876 65.6972 55.1984 64.3005 57.3065 64.3005C59.4147 64.3005 60.7592 65.6999 60.7371 68.1604C60.715 70.8186 59.3842 71.9933 57.3065 72.0231Z" fill="white"/>
</svg>