<svg xmlns="http://www.w3.org/2000/svg" version="1.2" viewBox="0 0 70 70" baseProfile="tiny-ps">
  <title>Dartmouth Health</title>
  <desc>Dartmouth Health weave logo</desc>
  <rect x="0" y="0" width="100%" height="100%" fill="white"/>
  <path d="M65,46.669H1.666C0.744,46.669,0,45.922,0,45.003s0.747-1.666,1.666-1.666H65  c0.919,0,1.666-0.747,1.666-1.666c0-0.919-0.747-1.666-1.666-1.666H5c-2.758,0-5-2.242-5-5c0-2.758,2.242-5,5-5H65  c0.919,0,1.666-0.747,1.666-1.666c0-0.919-0.747-1.666-1.666-1.666H1.666C0.744,26.672,0,25.926,0,25.006  c0-0.919,0.747-1.666,1.666-1.666H65c2.758,0,5,2.242,5,5s-2.242,5-5,5H5c-0.919,0-1.666,0.747-1.666,1.666S4.081,36.673,5,36.673  H65c2.758,0,5,2.242,5,5c0,2.758-2.242,5-5,5V46.669z" fill="#6ECEB2"/>
  <path d="M68.544,55.442H56.399v-15.44h-0.961v15.44h-8.773v-15.44H43.33v15.44h-3.334v-8.773h-3.334v8.773  h-3.334v-15.44h-3.334v15.44h-3.334v-8.773h-3.332v8.773h-8.776v-8.773h-0.961v8.773H1.444c-0.266,0-0.481,0.215-0.481,0.481  c0,0.266,0.215,0.481,0.481,0.481h12.145v12.145c0,0.266,0.215,0.481,0.481,0.481s0.481-0.215,0.481-0.481V56.404h8.776v11.933  c0,0.922,0.747,1.666,1.666,1.666c0.919,0,1.666-0.747,1.666-1.666V56.404h3.334v8.601c0,2.758,2.242,5,5,5s5-2.242,5-5v-8.601  h3.334v11.933c0,0.922,0.747,1.666,1.666,1.666s1.666-0.747,1.666-1.666V56.404h8.773v12.145c0,0.266,0.215,0.481,0.481,0.481  c0.266,0,0.481-0.215,0.481-0.481V56.404h12.145c0.266,0,0.481-0.215,0.481-0.481s-0.215-0.481-0.481-0.481H68.544z M36.668,65.002  c0,0.919-0.747,1.666-1.666,1.666s-1.666-0.747-1.666-1.666v-8.601h3.334v8.601H36.668z" fill="#00664F"/>
  <path d="M1.456,14.562h12.145v15.44h0.961v-15.44h8.776v15.44h3.332v-15.44h3.334v8.773h3.334v-8.773h3.334  v15.44h3.334v-15.44h3.334v8.773h3.334v-8.773h8.773v8.773h0.961v-8.773h12.145c0.266,0,0.481-0.215,0.481-0.481  s-0.215-0.481-0.481-0.481H56.411V1.456c0-0.266-0.215-0.481-0.481-0.481s-0.481,0.215-0.481,0.481v12.145h-8.773V5  c0-2.758-2.242-5-5-5s-5,2.242-5,5v8.601h-3.334V5c0-2.758-2.242-5-5-5s-5,2.242-5,5v8.601h-8.776V1.456  c0-0.266-0.215-0.481-0.481-0.481s-0.481,0.215-0.481,0.481v12.145H1.458c-0.266,0-0.481,0.215-0.481,0.481s0.215,0.481,0.481,0.481  C1.458,14.562,1.456,14.562,1.456,14.562z M40.003,5.003c0-0.919,0.747-1.666,1.666-1.666s1.666,0.747,1.666,1.666v8.601H40V5.003  H40.003z M26.668,5.003c0-0.919,0.747-1.666,1.666-1.666C29.253,3.337,30,4.083,30,5.003v8.601h-3.334V5.003H26.668z" fill="#00664F"/>
  <rect x="43.335" y="26.67" width="3.334" height="10.001" fill="#00664F"/>
  <rect x="30.002" y="26.67" width="3.334" height="10.001" fill="#00664F"/>
  <rect x="36.668" y="33.336" width="3.334" height="10.001" fill="#00664F"/>
  <rect x="23.336" y="33.336" width="3.332" height="10.001" fill="#00664F"/>
  <rect x="13.601" y="33.336" width="0.961" height="10.001" fill="#00664F"/>
  <rect x="55.44" y="26.67" width="0.961" height="10.001" fill="#00664F"/>
</svg>