<?xml version="1.0" encoding="utf-8"?>
<svg version="1.2" baseProfile="tiny-ps" xmlns="http://www.w3.org/2000/svg" xmlns:xlink="http://www.w3.org/1999/xlink" viewBox="0 0 48 48" xml:space="preserve">
<title>Good Hood GmbH</title>
<rect y="0" fill="#B2CA06" width="48" height="48"/>
<path fill="#FFFFFF" d="M35.2,16.1l-9.9-5.8c-0.9-0.4-1.9-0.4-2.8,0l-9.9,5.8c-0.9,0.4-1.4,1.4-1.4,2.4v11c0,1,0.5,1.9,1.4,2.4l4.2,2.5
	v-6.4l2,1.2c0.1,0.1,0.2,0.2,0.2,0.3v6.2l3.6,2C23,37.9,23.5,38,24,38c0.4,0,1-0.1,1.4-0.4l3.6-2v-6.3c0-0.1,0.1-0.2,0.2-0.3l2-1.2
	v6.4l4.2-2.5c0.9-0.4,1.4-1.4,1.4-2.4V18.5C36.6,17.5,36.1,16.6,35.2,16.1z M34.2,17.4l-9.4,5.4V11.9L34.2,17.4z M23,11.9v10.9
	l-9.4-5.4L23,11.9z M20.6,34.6v-5.3c0-0.7-0.4-1.3-1-1.7l-3.2-1.8c-0.4-0.2-0.7-0.2-1,0c-0.4,0.2-0.4,0.4-0.4,0.9v4.7l-1.7-1
	c-0.4-0.2-0.5-0.6-0.5-1V18.8l10.2,6v11.3L20.6,34.6z M34.4,30.5l-1.7,1v-4.7c0-0.4-0.2-0.7-0.4-0.9c-0.4-0.2-0.7-0.2-1,0l-3.2,1.8
	c-0.6,0.4-1,1-1,1.7v5.3l-2.5,1.5V24.8l10.2-6v10.7C34.9,29.9,34.8,30.3,34.4,30.5z"/>
</svg>
