<?xml version="1.0" encoding="utf-8"?>
<!-- Generator: Adobe Illustrator 27.6.1, SVG Export Plug-In . SVG Version: 6.00 Build 0)  -->
<svg version="1.2" baseProfile="tiny-ps" id="Layer_1" xmlns="http://www.w3.org/2000/svg" xmlns:xlink="http://www.w3.org/1999/xlink"
	 viewBox="0 0 1000 1000" xml:space="preserve">
<title>FinMkt</title>
<g>
	<rect x="469.4" y="409.8" fill="#19BDFD" width="54.5" height="52.4"/>
	<path fill="#19BDFD" d="M182.5,409.8v22.8H55.2c-6.3,0-11.6,2-15.7,6.1s-6.2,9.2-6.2,15.5v31.4h124v22.8h-124v81.9H8.1V450.5
		c0-11.2,4-20.8,12.1-28.8c8-7.9,17.7-11.9,29.1-11.9C49.4,409.8,182.5,409.8,182.5,409.8z"/>
	<path fill="#19BDFD" d="M249.4,409.8v21.6h-24.1v-21.6H249.4z M249.4,457.1v133.2h-24.1V457.1H249.4z"/>
	<path fill="#19BDFD" d="M429.7,590.2h-24.4v-92.6c0-5.5-2-10-6-13.6s-9-5.4-15.1-5.4h-48.1c-6,0-11.1,1.8-15.1,5.4s-6,8.1-6,13.6
		v92.6h-24.3v-97.7c0-9.8,3.9-18.1,11.6-25.1s17.1-10.5,28-10.5H390c11,0,20.3,3.5,28,10.5c7.8,7,11.6,15.3,11.6,25.1L429.7,590.2
		L429.7,590.2z"/>
	<path fill="#19BDFD" d="M701.3,409.8v180.5h-25V463.2L597,586h-23.2l-79.3-122.8v127.1h-25V409.8h21.1l94.8,148.6l94.8-148.6
		C680.2,409.8,701.3,409.8,701.3,409.8z"/>
	<path fill="#19BDFD" d="M766.9,409.8v102.9l67-55.7h36L796,519.7l74.8,70.6h-34.4L778.1,535l-11.2,9.6v45.6h-24.3V409.7
		L766.9,409.8L766.9,409.8z"/>
	<path fill="#19BDFD" d="M930.3,431.3V457h61.6v21.6h-61.5v71c0,5.2,1.8,9.6,5.4,13.4c3.6,3.8,8.1,5.7,13.6,5.7h42.5v21.5h-46
		c-11,0-20.3-3.5-28.1-10.4s-11.7-15.2-11.7-25c0-39.6,0-80.8-0.2-123.5H930.3L930.3,431.3z"/>
</g>
</svg>
