<?xml version="1.0" encoding="utf-8"?>
<svg version="1.2" baseProfile="tiny-ps" xmlns="http://www.w3.org/2000/svg" xmlns:xlink="http://www.w3.org/1999/xlink" viewBox="0 0 200 200" xml:space="preserve">
<title>OWC Logo</title>
<g id="blue_field">
	<rect x="0" y="0" fill="#005C9F" width="200" height="200"/>
</g>
<g id="owc_logo">
	<g>
		<g>
			<path fill="#FFFFFF" d="M135.2,90.2c-0.3-1.2-1.2-2.1-2.6-3c-1.4-0.7-3.3-1.2-5.5-1.2c-1.7,0-3.3,0.2-4.7,0.7S119.9,88,119,89
				c-0.9,0.9-1.5,1.8-1.7,2.8c-0.3,1-0.5,2.5-0.9,4.4l-1.1,7.8c-0.3,2.7-0.4,4.6-0.1,5.9c0.3,1.3,1.2,2.3,2.6,3.1
				c1.4,0.7,3.2,1.1,5.5,1.1c2.2,0,4.2-0.4,5.8-1.3c1.6-0.9,2.8-1.9,3.3-3.1c0.6-1.2,1.1-3.1,1.5-5.9l0.1-1.1h-7.9l-0.4,3.4
				c-0.2,1.5-0.4,2.5-0.6,2.8c-0.2,0.4-0.6,0.6-1.2,0.6c-0.6,0-1-0.2-1.1-0.6c-0.1-0.4-0.1-1.3,0.1-2.6l1.7-12.5
				c0.2-1.4,0.4-2.2,0.6-2.7c0.2-0.4,0.6-0.6,1.3-0.6c0.5,0,1,0.2,1.1,0.5c0.1,0.3,0.1,1.2-0.1,2.6l-0.6,4.7h7.9l0.3-2.6
				C135.4,93.3,135.4,91.5,135.2,90.2"/>
		</g>
		<g>
			<path fill="#FFFFFF" d="M157.1,111.1c6.6,4.3,10.1,8.1,9.3,10.8c-1,3-7.1,4.1-16.7,3.4c3.8-7.5,6.1-15.9,6.1-24.8
				c0-29.9-24.3-54.3-54.3-54.3c-27.2,0-49.8,20.2-53.6,46.4c-6.9-4.5-10.7-8.4-9.8-11.1s5.9-3.8,13.8-3.5
				c-16-2.7-26.6-2.5-27.6,1.1c-1.4,4.8,15.4,14.6,40.8,24.7c-0.2,2-0.4,3.5-0.4,4.4c0,1.1,0.3,2.1,1,3.1c0.6,1,1.6,1.6,2.9,2.1
				c1.2,0.4,2.7,0.7,4.3,0.7c1.7,0,3.2-0.2,4.6-0.7s2.5-1.2,3.3-2.1c0.3-0.4,0.6-0.7,1-1.2c1.4,0.5,2.9,1,4.4,1.5v1.9h5.9
				c2,0.6,4.1,1.3,6.2,2c42.8,13.4,79.1,19,81.3,12.4C180.2,124.3,171.7,118.2,157.1,111.1 M74.3,108.9c-0.2,0.4-0.5,0.6-1.2,0.6
				c-0.5,0-0.9-0.2-1-0.5c-0.1-0.3,0-1.3,0.2-2.9l1.7-12.5c0.2-1.4,0.4-2.2,0.6-2.5c0.2-0.3,0.6-0.4,1-0.4c0.5,0,0.7,0.2,1,0.5
				c0.1,0.3,0.1,1.2-0.1,2.3L75,105.9C74.7,107.5,74.5,108.5,74.3,108.9 M95.6,113.4c2.1-7,3.5-11.7,4.2-14c0,5.2,0.1,9.9,0.4,14.1
				h9.8l7.1-26.8h-7.7c-1.8,6.2-3.4,12.6-4.8,19l0.5-10.2c0.2-5.1,0.3-8.1,0.4-8.9h-8.2c-2.2,7.6-3.7,13.6-4.7,18.3l0.4-9.1l0.4-9.4
				h-7.7l-0.1,23.6c-1.3-0.4-2.5-0.9-3.7-1.4c0.1-0.2,0.1-0.4,0.2-0.6c0.3-1.1,0.6-3,1-5.8l0.6-4.6c0.4-2.8,0.5-4.7,0.5-5.8
				c0-1.1-0.3-2.1-1-3.1c-0.6-1-1.6-1.6-2.9-2.1c-1.3-0.4-2.7-0.7-4.3-0.7c-1.7,0-3.3,0.2-4.6,0.7c-1.4,0.5-2.5,1.2-3.4,2.1
				c-0.9,1-1.5,1.9-1.8,3.1c-0.3,1.1-0.6,3-1,5.8l-0.5,3.9c-2.3-1.1-4.6-2.1-6.7-3.2c1-22.8,19.8-41.2,43-41.2c23.7,0,43,19.3,43,43
				c0,8.6-2.6,16.6-6.9,23.4c-11.2-1.8-24.8-5-39.2-9.6C97.4,114,96.5,113.7,95.6,113.4"/>
		</g>
	</g>
</g>
</svg>
