<svg version="1.2" baseProfile="tiny-ps" id="Layer_1" xmlns="http://www.w3.org/2000/svg" width="384" height="384" fill="none" xmlns:xlink="http://www.w3.org/1999/xlink" xml:space="preserve">
<title>sellerboard</title>
<rect width="384" height="384" fill="#333333"/>
<path d="M203.453 187.723C206.043 187.723 208.391 188.327 210.498 189.536C212.639 190.71 214.313 192.385 215.522 194.56C216.731 196.701 217.335 199.205 217.335 202.071C217.335 204.937 216.731 207.458 215.522 209.634C214.313 211.775 212.639 213.45 210.498 214.659C208.391 215.833 206.043 216.42 203.453 216.42C199.62 216.42 196.701 215.211 194.699 212.794V216.005H186.98V176H195.061V191.09C197.099 188.845 199.896 187.723 203.453 187.723ZM202.054 209.789C204.126 209.789 205.818 209.099 207.131 207.717C208.477 206.301 209.151 204.419 209.151 202.071C209.151 199.723 208.477 197.858 207.131 196.477C205.818 195.061 204.126 194.353 202.054 194.353C199.982 194.353 198.273 195.061 196.926 196.477C195.614 197.858 194.958 199.723 194.958 202.071C194.958 204.419 195.614 206.301 196.926 207.717C198.273 209.099 199.982 209.789 202.054 209.789Z" fill="#FEB72B"/>
<path d="M236.323 216.42C233.388 216.42 230.746 215.815 228.398 214.607C226.084 213.364 224.271 211.654 222.959 209.479C221.647 207.303 220.991 204.834 220.991 202.071C220.991 199.308 221.647 196.839 222.959 194.664C224.271 192.488 226.084 190.796 228.398 189.587C230.746 188.344 233.388 187.723 236.323 187.723C239.259 187.723 241.883 188.344 244.197 189.587C246.511 190.796 248.324 192.488 249.636 194.664C250.948 196.839 251.604 199.308 251.604 202.071C251.604 204.834 250.948 207.303 249.636 209.479C248.324 211.654 246.511 213.364 244.197 214.607C241.883 215.815 239.259 216.42 236.323 216.42ZM236.323 209.789C238.395 209.789 240.088 209.099 241.4 207.717C242.747 206.301 243.42 204.419 243.42 202.071C243.42 199.723 242.747 197.858 241.4 196.477C240.088 195.061 238.395 194.353 236.323 194.353C234.251 194.353 232.542 195.061 231.195 196.477C229.848 197.858 229.175 199.723 229.175 202.071C229.175 204.419 229.848 206.301 231.195 207.717C232.542 209.099 234.251 209.789 236.323 209.789Z" fill="#FEB72B"/>
<path d="M285.607 188.137V216.005H277.888V212.794C275.885 215.211 272.985 216.42 269.186 216.42C266.561 216.42 264.179 215.833 262.038 214.659C259.931 213.484 258.273 211.81 257.065 209.634C255.856 207.458 255.252 204.937 255.252 202.071C255.252 199.205 255.856 196.684 257.065 194.508C258.273 192.333 259.931 190.658 262.038 189.484C264.179 188.31 266.561 187.723 269.186 187.723C272.743 187.723 275.523 188.845 277.526 191.09V188.137H285.607ZM270.585 209.789C272.622 209.789 274.314 209.099 275.661 207.717C277.008 206.301 277.681 204.419 277.681 202.071C277.681 199.723 277.008 197.858 275.661 196.477C274.314 195.061 272.622 194.353 270.585 194.353C268.513 194.353 266.803 195.061 265.456 196.477C264.11 197.858 263.436 199.723 263.436 202.071C263.436 204.419 264.11 206.301 265.456 207.717C266.803 209.099 268.513 209.789 270.585 209.789Z" fill="#FEB72B"/>
<path d="M301.124 191.815C302.091 190.468 303.386 189.449 305.009 188.759C306.667 188.068 308.566 187.723 310.707 187.723V195.182C309.809 195.113 309.205 195.078 308.894 195.078C306.58 195.078 304.768 195.734 303.455 197.047C302.143 198.324 301.487 200.258 301.487 202.848V216.005H293.406V188.137H301.124V191.815Z" fill="#FEB72B"/>
<path d="M344.064 176V216.005H336.345V212.794C334.342 215.211 331.442 216.42 327.643 216.42C325.018 216.42 322.636 215.833 320.495 214.659C318.388 213.484 316.73 211.81 315.522 209.634C314.313 207.458 313.709 204.937 313.709 202.071C313.709 199.205 314.313 196.684 315.522 194.508C316.73 192.333 318.388 190.658 320.495 189.484C322.636 188.31 325.018 187.723 327.643 187.723C331.2 187.723 333.98 188.845 335.983 191.09V176H344.064ZM329.042 209.789C331.079 209.789 332.771 209.099 334.118 207.717C335.465 206.301 336.138 204.419 336.138 202.071C336.138 199.723 335.465 197.858 334.118 196.477C332.771 195.061 331.079 194.353 329.042 194.353C326.97 194.353 325.26 195.061 323.913 196.477C322.567 197.858 321.893 199.723 321.893 202.071C321.893 204.419 322.567 206.301 323.913 207.717C325.26 209.099 326.97 209.789 329.042 209.789Z" fill="#FEB72B"/>
<path d="M48.8054 216.42C46.4916 216.42 44.2297 216.143 42.0196 215.591C39.8094 215.004 38.0482 214.279 36.736 213.415L39.4296 207.614C40.6728 208.408 42.175 209.064 43.9362 209.582C45.6974 210.066 47.424 210.307 49.1162 210.307C52.535 210.307 54.2444 209.461 54.2444 207.769C54.2444 206.975 53.7782 206.405 52.8458 206.06C51.9134 205.714 50.4802 205.421 48.5464 205.179C46.2672 204.834 44.3851 204.437 42.9002 203.988C41.4152 203.539 40.1202 202.745 39.0152 201.605C37.9446 200.465 37.4094 198.842 37.4094 196.736C37.4094 194.975 37.9101 193.421 38.9116 192.074C39.9476 190.692 41.4325 189.622 43.3664 188.862C45.3348 188.102 47.6485 187.723 50.3076 187.723C52.276 187.723 54.2271 187.947 56.161 188.396C58.1294 188.81 59.7524 189.397 61.0302 190.157L58.3366 195.907C55.8847 194.526 53.2084 193.835 50.3076 193.835C48.5809 193.835 47.2859 194.077 46.4226 194.56C45.5592 195.044 45.1276 195.665 45.1276 196.425C45.1276 197.288 45.5938 197.893 46.5262 198.238C47.4586 198.583 48.9435 198.911 50.981 199.222C53.2602 199.602 55.125 200.016 56.5754 200.465C58.0258 200.88 59.2862 201.657 60.3568 202.796C61.4273 203.936 61.9626 205.524 61.9626 207.562C61.9626 209.289 61.4446 210.825 60.4086 212.172C59.3726 213.519 57.8531 214.572 55.8502 215.332C53.8818 216.057 51.5335 216.42 48.8054 216.42Z" fill="white"/>
<path d="M94.5649 202.175C94.5649 202.278 94.5131 203.004 94.4095 204.35H73.3269C73.7068 206.077 74.6046 207.441 76.0205 208.443C77.4364 209.444 79.1976 209.945 81.3041 209.945C82.7545 209.945 84.0322 209.738 85.1373 209.323C86.2769 208.874 87.3302 208.184 88.2971 207.251L92.5965 211.913C89.972 214.918 86.1388 216.42 81.0969 216.42C77.9544 216.42 75.1744 215.815 72.7571 214.607C70.3398 213.364 68.475 211.654 67.1627 209.479C65.8504 207.303 65.1943 204.834 65.1943 202.071C65.1943 199.343 65.8332 196.891 67.1109 194.716C68.4232 192.505 70.2016 190.796 72.4463 189.587C74.7255 188.344 77.2637 187.723 80.0609 187.723C82.789 187.723 85.2582 188.31 87.4683 189.484C89.6784 190.658 91.4051 192.35 92.6483 194.56C93.926 196.736 94.5649 199.274 94.5649 202.175ZM80.1127 193.835C78.2824 193.835 76.7457 194.353 75.5025 195.389C74.2593 196.425 73.4996 197.841 73.2233 199.637H86.9503C86.674 197.875 85.9143 196.477 84.6711 195.441C83.4279 194.37 81.9084 193.835 80.1127 193.835Z" fill="white"/>
<path d="M158.958 202.175C158.958 202.278 158.907 203.004 158.803 204.35H137.72C138.1 206.077 138.998 207.441 140.414 208.443C141.83 209.444 143.591 209.945 145.698 209.945C147.148 209.945 148.426 209.738 149.531 209.323C150.67 208.874 151.724 208.184 152.691 207.251L156.99 211.913C154.365 214.918 150.532 216.42 145.49 216.42C142.348 216.42 139.568 215.815 137.151 214.607C134.733 213.364 132.868 211.654 131.556 209.479C130.244 207.303 129.588 204.834 129.588 202.071C129.588 199.343 130.227 196.891 131.504 194.716C132.817 192.505 134.595 190.796 136.84 189.587C139.119 188.344 141.657 187.723 144.454 187.723C147.182 187.723 149.652 188.31 151.862 189.484C154.072 190.658 155.799 192.35 157.042 194.56C158.319 196.736 158.958 199.274 158.958 202.175ZM144.506 193.835C142.676 193.835 141.139 194.353 139.896 195.389C138.653 196.425 137.893 197.841 137.617 199.637H151.344C151.067 197.875 150.308 196.477 149.065 195.441C147.821 194.37 146.302 193.835 144.506 193.835Z" fill="white"/>
<path d="M172.374 191.815C173.341 190.468 174.636 189.449 176.259 188.759C177.917 188.068 179.816 187.723 181.957 187.723V195.182C181.06 195.113 180.455 195.078 180.144 195.078C177.831 195.078 176.018 195.734 174.705 197.047C173.393 198.324 172.737 200.258 172.737 202.848V216.005H164.656V188.137H172.374V191.815Z" fill="white"/>
<path d="M116 168L124 168V216H116V168Z" fill="white"/>
<path d="M100 176H108V216H100V176Z" fill="white"/>
</svg>
