<?xml version="1.0" encoding="UTF-8"?>
<svg xmlns="http://www.w3.org/2000/svg" baseProfile="tiny-ps" version="1.2" viewBox="0 0 507.7 513">
<title>Pepsico</title>
  <!-- Generator: Adobe Illustrator 28.7.1, SVG Export Plug-In . SVG Version: 1.2.0 Build 142)  -->
      <rect x="-5.3" width="513" height="513" fill="#00529c"/>
      <g>
        <g>
          <path d="M143.6,380.7h7.7c3,0,4.2,1.1,4.2,3.6s-1.2,3.5-4.2,3.5h-7.7s0-7.1,0-7.1ZM131.6,406.5h12s0-10.5,0-10.5h12.9c8.5,0,11.6-5,11.6-11.5,0-7.5-3.2-11.8-11.7-11.8h-24.8v33.7Z" fill="#fff"/>
          <polygon points="172 372.8 204.3 372.8 204.3 381 184 381 184 385.6 202.8 385.6 202.8 393.8 184 393.8 184 398.3 204.3 398.4 204.3 406.6 172 406.6 172 372.8" fill="#fff"/>
          <path d="M221.3,380.8h7.7c3,0,4.2,1.1,4.2,3.6s-1.1,3.5-4.2,3.5h-7.7v-7.1ZM209.3,406.6h12s0-10.5,0-10.5h12.8c8.5,0,11.6-5,11.6-11.5,0-7.5-3.1-11.8-11.7-11.8h-24.8s0,33.8,0,33.8Z" fill="#fff"/>
          <path d="M257.3,392.3c-5.9-1-8.3-4.8-8.3-9.5,0-8.7,7.7-11.1,17.6-11.1,13.5,0,19.1,3.9,19.5,11.1h-14c0-1.4-.7-2.2-1.8-2.7-1.1-.5-2.4-.7-3.7-.7-3.6,0-4.8,1-4.8,2.4s.4,1.6,1.6,1.7l14.3,2.4c6,1,9.8,4.1,9.8,9.8,0,8.2-6.1,12.1-19.5,12.1-9.2,0-19.3-1.4-19.4-11.4h14.5c0,1.2.4,1.9,1.3,2.4.9.5,2.2.7,4.1.7,3.7,0,4.8-1.1,4.8-2.7s-.6-2-2.2-2.3l-13.7-2.3Z" fill="#fff"/>
          <rect x="291.4" y="372.9" width="12" height="33.8" fill="#fff"/>
          <path d="M347.9,393.5c-.8,4.5-2.1,8-5.1,10.5-2.9,2.5-7.5,3.8-14.8,3.8-7.3,0-20.8-.6-20.8-18.1,0-17.5,13.5-18.1,20.8-18.1,7.2,0,18.4,1.1,20,14.4h-13.5c-.3-2.4-1.8-5.9-6.4-5.9s-8,2.7-8,9.6c0,6.9,3,9.6,7.4,9.6s6-1.8,7-5.8h13.5Z" fill="#fff"/>
          <path d="M363.6,389.8c0-6.9,3.1-9.6,8-9.6s8,2.7,8,9.6c0,6.9-3.1,9.6-8,9.6-4.9,0-8-2.7-8-9.6M350.8,389.8c0,17.5,13.5,18.1,20.8,18.1s20.8-.6,20.8-18c0-17.5-13.5-18.1-20.8-18.1-7.3,0-20.8.6-20.8,18.1" fill="#fff"/>
        </g>
        <g>
          <path d="M374.5,272.3c3.6-74.4-60.6-158.2-148-168.6v-1c86.4,0,152.5,79.9,152.5,142.9-.1,13.1-1.1,21.2-3,27.1l-1.5-.3ZM369.3,281.8c-5.7,7-13,14.1-21.4,20.8-15.5-89.5-81.2-167.7-127.7-190.6l-1,.7c46.7,38.4,102.5,112.9,124.1,193.3-10.4,7.7-22.4,14.7-35.6,20.4-44.1-50.4-85.2-147.3-98.4-208.9l-1.3.4c.3,59.7,42.7,161.1,94.4,210.7-11.5,4.5-23.8,8.1-36.8,10.1-49.6-19.6-84.9-82.6-84.9-147,0-42.1,12.9-68.1,15.4-73.4l-1.1-.4c-3,4.5-21.8,30.5-21.8,75.9,0,72.8,35.9,128.5,83.6,146.1-16.3,1.8-33.5,1.3-51.1-2.4l-.4,1.1c5.1,1.9,22.4,9.1,48.8,9.1,59.7,0,100.2-37,116.4-65.2l-1.2-.8Z" fill="#fff"/>
          <path d="M248.1,76.5c-45.3,0-98.4,32.6-98.4,62.5,0,11.5,10.6,21.3,32.5,21.3,50.8,0,98-34.8,98-62,0-14.3-13.7-21.8-32-21.8M266.2,97.4c0,22.9-43.9,50.8-80.7,50.8-16.2,0-25-6.3-25-16.9,0-23.2,44.4-50.7,78.9-50.6,22.5,0,26.8,11.4,26.8,16.8" fill="#fff"/>
          <path d="M131.6,152.8c-1.2,2.2-6.4,12.2-6.4,22.4,0,19,19.2,36.6,54.4,36.6,67.8,0,146.2-49.9,146.2-96.2,0-20.8-19.7-32.1-33.4-34.5l-.3.8c4.2,1.4,19.8,8.6,19.8,27.1,0,36.9-69.2,87.2-138.1,87.1-26.4,0-43-13-43-32,0-6,1.3-9.9,1.6-11.1l-.9-.3Z" fill="#fff"/>
          <path d="M353.9,119.1c1.8,1.5,13,10.7,13,28.3,0,60-94.1,119-177.3,118.9-49.6,0-72.2-24.5-71.2-46.2h.9c2,11.2,18,31.5,61.4,31.5,83.3,0,176.3-60.9,176.3-114.4,0-9.2-2.5-14.9-3.9-17.4l.7-.7Z" fill="#fff"/>
          <path d="M385.3,175.1c.4,1.3,2.4,7,2.4,16,0,66.7-95.2,123.8-178,123.8-42.6,0-64.9-20.7-69.6-29.1l.8-.5c11.8,10.3,35,18.1,62.1,18.1,73.1,0,182.3-55.5,181.3-128.1l1-.2Z" fill="#fff"/>
        </g>
      </g>
</svg>