<?xml version="1.0" encoding="utf-8"?>
<!-- Generator: Adobe Illustrator 26.1.0, SVG Export Plug-In . SVG Version: 6.00 Build 0)  -->
<svg version="1.2" baseProfile="tiny-ps" id="Layer_1" xmlns="http://www.w3.org/2000/svg" xmlns:xlink="http://www.w3.org/1999/xlink" viewBox="0 0 605 604.1"  xml:space="preserve">
<title>Dav_fondo blanco</title>
<g>
	<path fill-rule="evenodd" fill="#EC1C27" d="M118.2,279.4c1.1,9.7,0.2,50.1-37.2,105.7c-38.8,61.3,22.5,163.6,146.1,137.6
		c27.1,9.7,56.4,11.1,75.4,11c19,0.2,48.6-1,75.7-10.8c123.6,26,184.6-76.5,145.8-137.8c-37.4-55.5-38.3-96-37.2-105.7L118.2,279.4z
		"/>
	<path fill-rule="evenodd" fill="#0080C2" d="M302.5,533.1c-120.8-3.1-142.7-58.6-109.3-70.3c19.4-6.8,44.9-18.1,44.9-18.1
		c-12.9-62.8,8.4-142.8,64.8-142.7c56.4-0.1,76.9,82.5,64.1,144c0,0,25.7,9.3,44.8,16.8C443.2,475.1,423.3,530,302.5,533.1z"/>
	<path fill-rule="evenodd" fill="#FFDE1B" d="M257,489.3c-32.1-89.7-3.9-173.8,45.5-173.6c47.1,0.3,79,81.8,45.8,173.5
		c0,0-15.7-3.6-47.4-3.6C277.3,485.6,257,489.3,257,489.3z"/>
	<path fill-rule="evenodd" fill="#F7981D" d="M302.5,534c48.7,0,86.9-10.4,86.9-25c0-14.5-38.3-25-86.9-25s-86.9,10.4-86.9,25
		C215.6,523.6,253.9,534,302.5,534z"/>
	<path fill-rule="evenodd" fill="#0080C2" d="M141.8,323.7h58.4c9.2,0,16.8,7.5,16.8,16.8v39.4c0,9.3-7.5,16.8-16.8,16.8h-58.4
		c-9.2,0-16.8-7.5-16.8-16.8v-39.4C125,331.2,132.5,323.7,141.8,323.7z"/>
	<path fill-rule="evenodd" fill="#231F20" d="M141.8,325.1c-8.4,0-15.3,6.9-15.3,15.3v39.4c0,8.4,6.9,15.3,15.3,15.3h58.4
		c8.4,0,15.3-6.9,15.3-15.3v-39.4c0-8.4-6.9-15.3-15.3-15.3H141.8L141.8,325.1z M200.2,398h-58.4c-10,0-18.2-8.2-18.2-18.2v-39.4
		c0-10,8.2-18.2,18.2-18.2h58.4c10,0,18.2,8.2,18.2,18.2v39.4C218.4,389.9,210.2,398,200.2,398z"/>
	<path fill-rule="evenodd" fill="#231F20" d="M135.8,345.7c0-7,5.7-12.6,12.6-12.6h46.3c7,0,12.6,5.6,12.6,12.6v28.7
		c0,7-5.6,12.6-12.6,12.6h-46.3c-7,0-12.6-5.6-12.6-12.6V345.7z"/>
	<path fill-rule="evenodd" fill="#FFDE1B" d="M207.4,367.3c-20.9-2.1-28.2-26.5-29.9-34.2h17.3c7,0,12.6,5.6,12.6,12.6V367.3z"/>
	<path fill-rule="evenodd" fill="#FFDE1B" d="M166,333.1c-1.4,7-7.9,33.2-30.2,34.3v-21.6c0-7,5.7-12.6,12.6-12.6H166z"/>
	<path fill-rule="evenodd" fill="#0080C2" d="M404.9,323.7h58.4c9.3,0,16.8,7.5,16.8,16.8v39.4c0,9.3-7.5,16.8-16.8,16.8h-58.4
		c-9.3,0-16.8-7.5-16.8-16.8v-39.4C388.1,331.2,395.6,323.7,404.9,323.7z"/>
	<path fill-rule="evenodd" fill="#231F20" d="M404.9,325.1c-8.4,0-15.3,6.9-15.3,15.3v39.4c0,8.4,6.9,15.3,15.3,15.3h58.4
		c8.4,0,15.3-6.9,15.3-15.3v-39.4c0-8.4-6.9-15.3-15.3-15.3H404.9L404.9,325.1z M463.3,398h-58.4c-10,0-18.2-8.2-18.2-18.2v-39.4
		c0-10,8.2-18.2,18.2-18.2h58.4c10,0,18.2,8.2,18.2,18.2v39.4C481.5,389.9,473.3,398,463.3,398z"/>
	<path fill-rule="evenodd" fill="#231F20" d="M398.9,345.7c0-7,5.6-12.6,12.6-12.6h46.3c7,0,12.6,5.6,12.6,12.6v28.7
		c0,7-5.6,12.6-12.6,12.6h-46.3c-7,0-12.6-5.6-12.6-12.6V345.7z"/>
	<path fill-rule="evenodd" fill="#FFDE1B" d="M470.5,367.3c-20.9-2.1-28.2-26.5-29.9-34.2h17.3c7,0,12.6,5.6,12.6,12.6V367.3z"/>
	<path fill-rule="evenodd" fill="#FFDE1B" d="M429.1,333.1c-1.4,7-7.9,33.2-30.2,34.3v-21.6c0-7,5.6-12.6,12.6-12.6H429.1z"/>
	<path fill-rule="evenodd" fill="#EC1C27" d="M423.4,127.8c-6.2-21-7.3-31.5,11.9-31.5h42.4c25.6-0.5,15,19.5,12.5,39.1
		c-3.3,25.8-3.3,33.6-3.3,33.6S423.5,128.1,423.4,127.8z"/>
	<path fill-rule="evenodd" fill="#F7981D" d="M302.3,277.5c-62.9,0.1-149.6,5.5-205.1,9.8c-42.7,3.3-75.7-29.2-47.3-60
		C110.3,161.8,258,79.1,302.8,79.1c47.5,0,192.5,82.7,252.9,148.2c28.4,30.8-0.2,60-43.1,60C464.8,287.2,365.2,277.5,302.3,277.5z"
		/>
	<path fill-rule="evenodd" fill="#231F20" d="M336.4,424.3c0-4.7,3.7-8.4,8.2-8.4s8.2,3.8,8.2,8.4s-3.7,8.4-8.2,8.4
		C340.1,432.7,336.4,428.9,336.4,424.3z"/>
	<path fill-rule="evenodd" fill="#231F20" d="M418,121.7c-0.5-1.9-1-3.7-1.5-5.6c-3.1-11.3-0.3-23.8,19.1-23.8h42.2
		c24.9,0,22.1,17.2,17.9,33.8c-3,11.9-5.5,26.9-6.5,41.1c0,0,34.6,25.5,53.7,41.6c60.5,51,21.1,84.4-36.6,81.5
		c-5.8-0.3-11.5-0.6-17.1-0.9c0.4,17,5.4,48.3,32,83.9c67,80.1-21.7,180.7-147,152.4c-20.7,6.9-53.5,10.1-71.7,10.1
		c-18.1,0-51-3.2-71.7-10.1c-125.3,28.3-214-72.3-147-152.4c26.6-35.6,31.6-66.9,32-83.9l-17.1,0.9c-57.7,2.9-97.1-30.5-36.6-81.5
		C152,133.1,260.7,76.9,302.6,76.7C325.6,76.8,368.9,93.9,418,121.7L418,121.7z M302.6,272.9c65.2,0.9,127.1,5.5,200,10.2
		c45.2,2.9,70.6-27.3,42.1-58.5c-42-45.9-185.3-140.5-242.2-140.5S102.3,178.7,60.4,224.6c-28.5,31.2-3.1,61.4,42.1,58.5
		C175.4,278.4,237.4,273.8,302.6,272.9L302.6,272.9z M384.2,522.1c115.9,19.6,172.7-77.6,135.5-136.4
		c-28.6-42.5-35.4-78.3-36.5-96.5c-76-4-128.3-7.7-180.6-8.5c-52.4,0.8-104.6,4.4-180.6,8.4c-1.1,18.2-7.9,54-36.5,96.5
		C48.2,444.4,105,541.7,220.9,522.1c-49.2-18.6-55.3-50.4-29-60.5c19.2-7.4,44.9-16.8,44.9-16.8c-12.9-62.8,9.4-145.5,65.8-145.4
		c56.4-0.1,78.6,82.6,65.7,145.4c0,0,25.7,9.4,44.9,16.8C439.5,471.6,433.4,503.5,384.2,522.1L384.2,522.1z M426.5,126.6
		c18.6,10.9,38,23.3,57.3,36.8c0.4-7,1.2-15.9,2.5-27.2c2.2-18.5,12.1-37.2-12-36.7l-36.2,0C421.5,99.6,421.6,107.5,426.5,126.6
		L426.5,126.6z M350.5,487c24.2,4.7,40.3,12.8,40.3,22.1c0,2.9-1.5,5.6-4.4,8.2c40.5-18.1,43.8-47.5,21.9-54.8
		c-19.4-6.5-42.9-16-42.9-16c12.5-60.9-6.8-142.6-62.9-142.6c-56.1,0-75.4,81.7-62.9,142.6c0,0-23.6,9.2-42.9,16
		c-22.3,7.9-18.5,37.1,22.2,55c-3.1-2.6-4.7-5.5-4.7-8.4c0-9.2,16.1-17.4,40.3-22.1c-31.4-90.5-0.9-173.6,47.9-173.4
		C351.4,313.5,381.9,396.6,350.5,487L350.5,487z M346.9,489.7c0,0-27-3.3-44.3-3.3s-44.3,3.2-44.3,3.2c-24.8,4-41.3,11.2-41.3,19.5
		c0,12.6,38.5,22.8,85.7,22.8s85.5-10.2,85.5-22.8C388.2,500.9,371.6,493.6,346.9,489.7L346.9,489.7z M302.6,482.9
		c26,0,45.4,3.8,45.4,3.8c29.9-87.1,2.5-169.4-45.4-169.4c-47.9,0-75.3,82.2-45.4,169.4C257.2,486.6,277.5,482.9,302.6,482.9z"/>
</g>
</svg>
