<?xml version="1.0" encoding="UTF-8"?>
<svg id="Layer_2" xmlns="http://www.w3.org/2000/svg" baseProfile="tiny-ps" version="1.2" viewBox="0 0 375.5 375.5">
<title>Jitsu</title>
  <g id="Layer_14">
    <g>
      <polygon points="27 122.2 349 122.7 349 255.5 27 255.1 27 122.2" fill="none" stroke-width="0"/>
      <g>
        <path d="M93.9,205.6c0,1.9-.3,3.6-.8,4.9s-1.3,2.3-2.4,3c-1,.7-2.3,1-3.8,1s-2.8-.3-3.8-1-1.9-1.6-2.4-2.9c-.6-1.3-.9-2.9-1-4.8h-20.5c0,5.8,1.2,10.5,3.5,14.1,2.4,3.6,5.6,6.3,9.6,8s8.4,2.5,13.3,2.5,10.5-1,14.8-3.1c4.3-2.1,7.7-5,10.1-8.7,2.4-3.7,3.7-8,3.7-12.9v-51.7h-20.2v51.7h0Z" fill="#000" stroke-width="0"/>
        <rect x="124.1" y="172.7" width="20.3" height="56.6" fill="#000" stroke-width="0"/>
        <path d="M134.3,166.9c2.8,0,5.1-.9,7.1-2.7,1.9-1.8,2.9-4,2.9-6.6s-1-4.7-2.9-6.6-4.3-2.7-7.1-2.7-5.1.9-7.1,2.7-2.9,4-2.9,6.6,1,4.7,2.9,6.6c2,1.8,4.3,2.7,7.1,2.7Z" fill="#000" stroke-width="0"/>
        <path d="M184.8,214.5c-.8.2-1.5.2-2.2.2-.9,0-1.6-.1-2.2-.4-.6-.3-1-.7-1.2-1.2s-.4-1.2-.4-2v-23.7h9.7v-14.7h-9.7v-13.6h-20.3v13.6h-7.2v14.7h7.2v25.6c0,4,.7,7.2,2.3,9.9s4,4.6,7.1,5.8c3.2,1.2,7.1,1.7,11.8,1.5,2.3-.1,4.3-.4,6-.8,1.7-.4,3-.7,3.9-1l-2.9-14.3c-.4,0-1,.2-1.8.4h0Z" fill="#000" stroke-width="0"/>
        <path d="M245.1,200.6c-2.8-2.5-7.2-4.3-12.9-5.3l-11.5-2.1c-2.2-.4-3.6-.9-4.4-1.7-.8-.7-1.1-1.5-1.1-2.3,0-1.2.6-2.1,1.8-2.7,1.2-.6,2.8-1,4.5-1s2.6.2,3.7.7c1.1.4,2,1.1,2.8,1.9.7.8,1.1,1.8,1.2,3h18.7c-.2-6-2.7-10.7-7.5-14.1-4.7-3.4-11.2-5.1-19.4-5.1s-10,.7-13.9,2.2-6.9,3.5-9,6.3c-2.1,2.7-3.1,6.1-3.1,10,0,4.4,1.4,8.1,4.3,10.9,2.9,2.8,7.2,4.7,13,5.8l10,1.8c2.2.4,3.8.9,4.9,1.6,1,.6,1.6,1.5,1.6,2.6,0,1.2-.6,2.1-1.9,2.7-1.2.6-2.8,1-4.6,1s-4.2-.5-5.7-1.5c-1.5-1-2.4-2.3-2.7-4.2h-20.2c.6,5.8,3.3,10.5,8.2,14,4.9,3.5,11.6,5.3,20.3,5.3s9.9-.8,14-2.4c4.1-1.6,7.3-3.9,9.7-6.8s3.6-6.4,3.6-10.5c0-4.2-1.5-7.5-4.3-10h0Z" fill="#000" stroke-width="0"/>
        <path d="M293.9,172.7v31.8c0,1.9-.3,3.5-1,4.8-.7,1.3-1.6,2.4-2.9,3.1-1.2.7-2.7,1.1-4.4,1.1-2.6,0-4.5-.8-5.9-2.4s-2.1-3.8-2.2-6.6v-31.8h-20.3v36.1c0,4.1.9,7.8,2.5,11,1.6,3.2,3.9,5.7,6.9,7.5s6.4,2.7,10.4,2.7,7.9-1,10.9-3c3.1-2,5.2-4.8,6.5-8.5h.6v10.8h19.3v-56.6s-20.3,0-20.3,0Z" fill="#000" stroke-width="0"/>
      </g>
    </g>
  </g>
</svg>
