<?xml version="1.0" encoding="utf-8"?>
<svg version="1.2" baseProfile="tiny-ps" xmlns="http://www.w3.org/2000/svg" xmlns:xlink="http://www.w3.org/1999/xlink" viewBox="0 0 170 170" xml:space="preserve">
<title>Sumitomo Mitsui Banking Corporation</title>
<g>
	<path fill="#004730" d="M95.6,170c-32,0-63.8,0-95.6,0C0,113.3,0,56.7,0,0c56.7,0,113.3,0,170,0c0,56.7,0,113.3,0,170
		C145.3,170,120.5,170,95.6,170 M80,90.8c0.3-3.1,0.5-6.3,0.8-9.4c2.7,5.2,4.9,10.5,7.4,15.7c0.2,0,0.4,0,0.6,0
		c2.3-5.3,4.7-10.6,7-15.9c0.1,0,0.2,0.1,0.3,0.1c0.4,5.1,0.8,10.2,1.3,15.6c1.7,0,3.8,0,5.8,0c0.1,0,0.2-0.3,0.3-0.5
		c-3-0.8-3.3-1-3.5-3.3C99.4,87,98.8,81,98.1,74.9c0-0.4-0.4-0.8-0.5-1.2c-0.3,0.3-0.7,0.7-0.9,1c-1.4,3.2-2.8,6.4-4.2,9.6
		c-1.1,2.6-2.3,5.2-3.5,8c-0.3-0.7-0.5-1.1-0.7-1.5c-2.4-5.4-4.9-10.9-7.4-16.3c-0.2-0.3-0.5-0.6-0.8-0.9c-0.2,0.4-0.5,0.7-0.6,1.1
		c-0.7,6.2-1.3,12.3-1.9,18.5c-0.1,1.5,0,3.1-2.3,3.1c0.7,1,5.7,1,6.4,0.1c-0.2-0.1-0.4-0.2-0.6-0.2c-1.3,0-1.5-0.8-1.4-1.9
		C79.8,93.2,79.9,92.1,80,90.8 M118.7,81.3c1.4-4.2-0.4-6.9-4.7-7.3c-2.5-0.2-4.9-0.1-7.4-0.1c-0.3,0-0.6,0.3-0.9,0.4
		c0.3,0.2,0.5,0.5,0.8,0.5c0.9,0.1,1.6,0.5,1.6,1.5c0,6,0,11.9-0.1,17.9c0,0.9-0.2,1.7-1.4,1.8c-0.2,0-0.4,0.3-0.6,0.5
		c0.2,0.1,0.4,0.3,0.6,0.3c2.9,0,5.8,0.2,8.7,0c3.1-0.2,5.5-2.6,6-5.4c0.5-3.1-0.8-5.6-3.8-7.2c-0.3-0.1-0.5-0.3-0.7-0.4
		C117.5,83.1,118.1,82.3,118.7,81.3 M128.1,77.8c-1.9,2.8-2.6,5.9-2.2,9.2c0.5,4.4,2.7,7.7,6.8,9.4c3.4,1.4,7,1.2,10.6,0.3
		c0.5-0.1,1.2-0.5,1.2-0.9c0.3-1.5,0.5-3,0.6-4.6c0-0.1-0.2-0.3-0.6-0.7c-0.2,0.6-0.4,1.1-0.5,1.5c-0.4,1.8-1.5,2.9-3.3,3.1
		c-1.4,0.1-3,0.3-4.3-0.1c-6.8-1.6-10.2-11.3-6-17c2.3-3.1,5.5-3.2,8.9-2.8c2.4,0.3,4.2,1.5,4.4,4.3c0,0.2,0.3,0.4,0.5,0.6
		c0.1-0.2,0.4-0.4,0.4-0.6c0.1-1.6,0.1-3.2,0.1-4.8c0-0.3-0.4-0.7-0.7-0.7c-2.7-0.2-5.4-0.6-8-0.5C132.9,73.7,130.2,75.1,128.1,77.8
		M40.5,86.4c0.2,0.1,0.4,0.3,0.5,0.2c2-0.8,4.1-1.7,6.1-2.6c0.3-0.1,0.5-0.7,0.5-1.1c0-2.6,0-5.2,0-7.8c0-2.7,0-5.5,0-8.4
		c-2.1,0.9-4,1.8-6,2.5c-0.9,0.3-1.1,0.8-1.1,1.7C40.5,76.1,40.5,81.1,40.5,86.4 M24.7,86.2c0,4.8,0,9.7,0,14.8
		c2.1-0.9,4.1-1.8,6.1-2.6c0.8-0.3,1-0.8,1-1.6c0-4.4,0-8.8,0-13.1c0-0.9,0-1.7,0-2.8c-1.9,0.8-3.5,1.6-5.2,2.1
		C25.1,83.5,24.4,84.3,24.7,86.2 M35.7,75.9c-0.7,1-1.3,2-2,3c-0.8,1.1-1.1,2.2-1.1,3.6c0.1,4.5,0,9,0,13.5c0,0.4,0,0.8,0.1,1.6
		c2.2-3.3,4.3-6.3,6.3-9.4c0.4-0.6,0.6-1.3,0.6-1.9c0-4.9,0-9.8,0-14.7c0-0.3-0.1-0.6-0.1-1.2C38.2,72.3,37,74,35.7,75.9 M70,73.9
		c-1.2-0.1-2.5-0.3-3.7-0.3c-3.7,0.1-5.9,2.4-5.8,6.1c0.1,2.4,1.6,4.1,3.2,5.6c1.3,1.2,2.7,2.3,4,3.5c1.2,1.2,1.7,2.7,1.2,4.4
		c-0.5,1.9-2.3,2.8-4.5,2.6c-2.2-0.2-3.2-1.3-3.5-3.4c0-0.3-0.3-0.6-0.4-0.9c-0.2,0.3-0.5,0.6-0.5,0.9c-0.7,4,0.1,4.9,4.1,5.2h0.1
		c3.2,0.1,5.9-1.3,7-3.9c1.2-2.7,0.6-5.5-1.7-7.9c-0.8-0.8-1.7-1.5-2.5-2.2c-1.2-1.1-2.4-2.1-3.4-3.3c-0.9-1.1-0.8-2.6-0.1-3.7
		c1-1.4,2.5-1.5,4.1-1.3c1.3,0.2,2.3,0.8,2.6,2.3c0.1,0.4,0.2,0.7,0.4,1.1c0.1,0,0.2,0,0.4,0c0.1-0.3,0.3-0.7,0.3-1
		c0.1-0.9,0-1.8,0.1-2.7C71.3,74.1,70.9,74,70,73.9z"/>
	<path fill="#F6F9F8" d="M80,90.9c-0.1,1.2-0.2,2.2-0.3,3.3c-0.1,1.1,0.1,1.8,1.4,1.9c0.2,0,0.4,0.1,0.6,0.2
		c-0.6,0.9-5.7,0.9-6.4-0.1c2.3,0.1,2.1-1.6,2.3-3.1c0.6-6.2,1.2-12.3,1.9-18.5c0-0.4,0.4-0.7,0.6-1.1c0.3,0.3,0.7,0.5,0.8,0.9
		c2.5,5.4,4.9,10.8,7.4,16.3c0.2,0.4,0.4,0.8,0.7,1.5c1.2-2.8,2.4-5.4,3.5-8c1.4-3.2,2.8-6.4,4.2-9.6c0.2-0.4,0.6-0.7,0.9-1
		c0.2,0.4,0.5,0.8,0.5,1.2c0.6,6.1,1.3,12.1,1.9,18.2c0.2,2.3,0.5,2.5,3.5,3.3c-0.1,0.2-0.2,0.5-0.3,0.5c-2,0-4.1,0-5.8,0
		c-0.4-5.4-0.8-10.5-1.3-15.6c-0.1,0-0.2-0.1-0.3-0.1c-2.3,5.3-4.7,10.6-7,15.9c-0.2,0-0.4,0-0.6,0c-2.6-5.1-4.8-10.5-7.4-15.7
		C80.5,84.5,80.2,87.7,80,90.9z"/>
	<path fill="#F6F8F7" d="M118.7,81.4c-0.6,0.9-1.1,1.7-1.7,2.5c0.2,0.1,0.4,0.2,0.7,0.4c3,1.6,4.3,4.1,3.8,7.2
		c-0.4,2.7-2.9,5.1-6,5.4c-2.9,0.2-5.8,0.1-8.7,0c-0.2,0-0.4-0.2-0.6-0.3c0.2-0.2,0.4-0.5,0.6-0.5c1.1-0.1,1.4-0.9,1.4-1.8
		c0-6,0-11.9,0.1-17.9c0-1.1-0.7-1.4-1.6-1.5c-0.3,0-0.6-0.3-0.8-0.5c0.3-0.1,0.6-0.4,0.9-0.4c2.5,0,4.9-0.1,7.4,0.1
		C118.3,74.4,120.1,77.2,118.7,81.4 M116.4,95.1c1.2-0.5,1.7-1.5,2-2.6c0.8-4.4-2.8-8.1-7.2-7.3c0,2.5-0.1,4.9,0,7.4
		c0.1,2.6,0.8,3.2,3.4,3.1C115.1,95.6,115.7,95.4,116.4,95.1 M116.3,78.7c-0.9-2.9-2.3-3.8-5.1-3.1c0,2.7,0,5.3,0,8
		c0.6,0,1.2,0.1,1.7,0.1c2.3,0,3.5-1.1,3.5-3.5C116.4,79.8,116.3,79.4,116.3,78.7z"/>
	<path fill="#F6F9F8" d="M128.2,77.7c2-2.7,4.7-4,7.8-4.1c2.7-0.1,5.4,0.3,8,0.5c0.3,0,0.7,0.5,0.7,0.7c0,1.6,0,3.2-0.1,4.8
		c0,0.2-0.3,0.4-0.4,0.6c-0.2-0.2-0.5-0.4-0.5-0.6c-0.1-2.8-1.9-3.9-4.4-4.3c-3.4-0.5-6.6-0.3-8.9,2.8c-4.2,5.7-0.8,15.4,6,17
		c1.4,0.3,2.9,0.2,4.3,0.1c1.8-0.2,2.9-1.3,3.3-3.1c0.1-0.4,0.3-0.9,0.5-1.5c0.3,0.4,0.6,0.5,0.6,0.7c-0.2,1.5-0.3,3.1-0.6,4.6
		c-0.1,0.4-0.8,0.7-1.2,0.9c-3.5,0.9-7.1,1.1-10.6-0.3c-4.2-1.7-6.3-5-6.8-9.4C125.5,83.7,126.2,80.6,128.2,77.7z"/>
	<path fill="#BFD301" d="M40.5,86.3c0-5.2,0-10.3,0-15.4c0-0.9,0.2-1.3,1.1-1.7c2-0.8,3.9-1.6,6-2.5c0,2.9,0,5.7,0,8.4
		c0,2.6,0,5.2,0,7.8c0,0.4-0.2,1-0.5,1.1c-2,0.9-4.1,1.7-6.1,2.6C40.9,86.7,40.7,86.5,40.5,86.3z"/>
	<path fill="#BFD301" d="M24.7,86.1c-0.3-1.8,0.4-2.6,1.9-3.1c1.7-0.5,3.3-1.4,5.2-2.1c0,1.1,0,2,0,2.8c0,4.4,0,8.8,0,13.1
		c0,0.8-0.2,1.3-1,1.6c-2,0.8-4,1.7-6.1,2.6C24.7,95.9,24.7,91.1,24.7,86.1z"/>
	<path fill="#C2D500" d="M35.8,75.9c1.2-1.8,2.4-3.6,3.7-5.6c0.1,0.6,0.1,0.9,0.1,1.2c0,4.9,0,9.8,0,14.7c0,0.7-0.2,1.4-0.6,1.9
		c-2,3.1-4.1,6.1-6.3,9.4c0-0.8-0.1-1.2-0.1-1.6c0-4.5,0-9,0-13.5c0-1.3,0.2-2.5,1.1-3.6C34.4,78,35,76.9,35.8,75.9z"/>
	<path fill="#F7F9F8" d="M70.1,73.9c0.8,0,1.2,0.2,1.1,1c-0.1,0.9,0,1.8-0.1,2.7c0,0.3-0.2,0.7-0.3,1c-0.1,0-0.2,0-0.4,0
		c-0.1-0.4-0.3-0.7-0.4-1.1c-0.3-1.4-1.3-2.1-2.6-2.3c-1.5-0.2-3-0.2-4.1,1.3c-0.8,1.1-0.8,2.6,0.1,3.7c1,1.2,2.3,2.2,3.4,3.3
		c0.8,0.7,1.7,1.4,2.5,2.2c2.3,2.3,2.9,5.2,1.7,7.9c-1.1,2.5-3.8,4-7,3.9h-0.1c-4.1-0.3-4.8-1.2-4.1-5.2c0.1-0.3,0.3-0.6,0.5-0.9
		c0.2,0.3,0.4,0.6,0.4,0.9c0.3,2.1,1.4,3.2,3.5,3.4c2.3,0.2,4-0.7,4.5-2.6c0.5-1.7,0-3.2-1.2-4.4c-1.3-1.2-2.7-2.3-4-3.5
		c-1.7-1.5-3.2-3.1-3.2-5.6c-0.1-3.7,2.1-6,5.8-6.1C67.5,73.6,68.8,73.8,70.1,73.9z"/>
	<path fill="#044A34" d="M116.3,95.2c-0.6,0.2-1.2,0.4-1.8,0.4c-2.6,0.1-3.3-0.5-3.4-3.1c-0.1-2.5,0-4.9,0-7.4
		c4.5-0.7,8.1,2.9,7.2,7.3C118.2,93.7,117.6,94.6,116.3,95.2z"/>
	<path fill="#054B34" d="M116.3,78.8c0,0.6,0.1,1,0.1,1.4c0,2.4-1.1,3.5-3.5,3.5c-0.5,0-1.1-0.1-1.7-0.1c0-2.7,0-5.4,0-8
		C114,74.9,115.4,75.8,116.3,78.8z"/>
</g>
</svg>