<?xml version="1.0" encoding="utf-8"?>
<svg version="1.2" baseProfile="tiny-ps" xmlns="http://www.w3.org/2000/svg" xmlns:xlink="http://www.w3.org/1999/xlink" viewBox="0 0 512 512" >
  <title>USAA</title><desc>USAA</desc>
  <rect fill="#FFFFFF" width="512" height="512"/>
  <path fill="#12395B"
     d="m 383.31887,319.24481 c 0,0 9.13848,6.14896 18.06596,6.14896 8.96848,0 16.84669,-6.4333 16.84669,-6.4333 v -31.41316 c 0,0 -7.98955,5.67123 -16.84669,5.67123 -8.83955,0 -18.06596,-6.15191 -18.06596,-6.15191 l -91.91236,-54.37658 8.51129,37.24267 z M 135.29033,222.27673 c 0,0 -8.87472,-6.17832 -18.13042,-6.17832 -9.21471,0 -16.79393,6.44501 -16.79393,6.44501 v 31.40146 c 0,0 7.54992,-5.65077 16.79393,-5.65077 9.26747,0 18.13042,6.19002 18.13042,6.19002 l 75.87457,44.85419 6.47722,-28.35037 z m 248.02854,55.88306 c 0,0 9.13848,6.14896 18.06596,6.14896 8.96848,0 16.84669,-6.43035 16.84669,-6.43035 v -31.41611 c 0,0 -7.98955,5.67123 -16.84669,5.67123 -8.83955,0 -18.06596,-6.15191 -18.06596,-6.15191 l -102.76836,-60.79516 8.51715,37.24267 z M 135.29033,181.18871 c 0,0 -8.87472,-6.17537 -18.13042,-6.17537 -9.21471,0 -16.79393,6.43623 -16.79393,6.43623 v 31.41316 c 0,0 7.54992,-5.65951 16.79393,-5.65951 9.26747,0 18.13042,6.19295 18.13042,6.19295 l 84.1455,49.74581 6.47135,-28.35036 z m 248.02854,55.88895 c 0,0 9.13848,6.15189 18.06596,6.15189 8.96848,0 16.84669,-6.43623 16.84669,-6.43623 v -31.42193 c 0,0 -7.98955,5.67711 -16.84669,5.67711 -8.83955,0 -18.06596,-6.15485 -18.06596,-6.15485 l -113.61261,-67.21675 8.5054,37.25144 z M 135.29033,140.10369 c 0,0 -8.87472,-6.17243 -18.13042,-6.17243 -9.21471,0 -16.79393,6.43329 -16.79393,6.43329 v 31.41023 c 0,0 7.54992,-5.66246 16.79393,-5.66246 9.26747,0 18.13042,6.1959 18.13042,6.1959 l 92.41061,54.64038 6.48313,-28.35624 z m 132.07126,-12.66142 115.95728,68.54448 c 0,0 9.13848,6.15485 18.06596,6.15485 8.96848,0 16.84669,-6.43624 16.84669,-6.43624 v -31.42193 c 0,0 -7.98955,5.68593 -16.84669,5.68593 -8.83955,0 -18.06596,-6.16073 -18.06596,-6.16073 l -89.70249,-53.06359 -6.20761,-23.80166 c 0,-0.978938 0.89101,-1.462495 1.23099,-1.532844 l 15.20537,-4.821278 c 2.01646,0 3.18879,1.776122 3.18879,3.29726 l 0.82066,1.676481 c 0.53926,0.293099 3.00123,-0.448443 3.00123,-0.920294 v -9.378811 c 0.0586,-6.19878 -4.84182,-11.726426 -11.5301,-11.726426 h -15.18779 c 0,0 -2.21574,-5.263839 -8.66368,-5.263839 h -28.81639 c -7.62615,0 -9.46674,7.262711 -9.46674,7.262711 l -20.00619,81.92688 -81.89459,-48.44461 c 0,0 -8.87472,-6.17831 -18.13042,-6.17831 -9.21471,0 -16.79393,6.44499 -16.79393,6.44499 v 31.40435 c 0,0 7.54992,-5.65657 16.79393,-5.65657 9.26747,0 18.13042,6.19001 18.13042,6.19001 l 100.68738,59.52613 22.92536,-100.36499 z m -18.24184,275.27984 c 0,17.08115 -13.91581,29.4817 -33.08377,29.51981 -20.17618,-0.0381 -26.91721,-3.4526 -26.91721,-3.4526 l -1.71166,-18.93349 c 0,0 11.2194,7.53234 27.70264,7.53234 4.59559,0 14.92987,-3.25327 14.92987,-12.61155 0,-8.87178 -8.13024,-11.60336 -10.135,-12.71706 -3.99774,-2.14539 -8.80438,-4.28497 -12.7493,-6.25448 -7.47376,-3.66654 -18.41176,-10.69479 -18.41176,-25.62171 0,-21.50092 19.22653,-29.3586 34.48472,-29.3586 12.27451,0 23.03083,5.40748 23.03083,5.40748 v 17.63805 c -3.42325,-2.03699 -9.05054,-8.34128 -23.03083,-8.34128 -9.54879,0 -16.00261,5.0792 -16.00261,12.16315 0,6.61793 5.42212,10.89701 10.62737,13.3355 5.20525,2.49713 8.69886,4.08275 14.71301,7.01655 7.6204,3.77488 16.5537,11.55927 16.5537,24.67789 z m -90.35309,-8.10095 c 0,7.8782 -2.59089,22.62638 -20.4751,22.33327 -16.27226,-0.35168 -19.30278,-15.34606 -19.30278,-24.98281 v -59.27991 h -18.6228 v 60.21197 c 0,33.88683 20.65686,39.50823 37.92558,39.50823 25.53965,0 37.37454,-16.91115 37.37454,-39.85992 v -59.86028 h -16.89944 z m 259.4648,35.61607 h -20.32858 l -5.84416,-17.1339 h -34.67813 l -5.88521,17.1339 h -34.66054 l -5.7797,-17.1339 h -34.68989 l -5.89693,17.1339 h -18.30041 l 33.54685,-89.96624 -3.25914,-7.59098 h 20.29928 l 32.48587,91.971 31.46593,-84.38002 -3.21227,-7.59098 h 20.24653 z m -111.80715,-30.75961 -12.02245,-38.42966 -13.5172,38.42966 z m 81.02123,0 -12.05175,-38.42966 -13.41756,38.42966 z m 35.62772,-62.30755 c -3.34119,1.80247 -5.94967,4.38754 -7.82544,7.74634 -1.87576,3.35878 -2.81364,6.8612 -2.81364,10.5072 0,3.60789 0.92618,7.07809 2.77259,10.41051 1.84641,3.33243 4.4256,5.91745 7.74338,7.75804 3.31191,1.84352 6.77623,2.76382 10.39875,2.76382 3.62253,0 7.08684,-0.9203 10.39874,-2.76382 3.31773,-1.84059 5.89693,-4.42561 7.73169,-7.75804 1.83477,-3.33242 2.755,-6.80257 2.755,-10.41051 0,-3.646 -0.932,-7.14842 -2.79606,-10.5072 -1.86406,-3.3588 -4.46665,-5.94381 -7.81373,-7.74634 -3.34121,-1.80541 -6.77034,-2.70518 -10.27564,-2.70518 -3.50531,0 -6.93444,0.89977 -10.27564,2.70518 z m 18.83386,3.0247 c 2.79016,1.50936 4.96491,3.66652 6.52411,6.46846 1.56508,2.80489 2.33884,5.72398 2.33884,8.76038 0,3.01587 -0.762,5.90868 -2.29779,8.67539 -1.53577,2.76671 -3.68117,4.92385 -6.45382,6.46846 -2.77259,1.5475 -5.65657,2.31832 -8.66956,2.31832 -3.01298,0 -5.89692,-0.77082 -8.66957,-2.31832 -2.77258,-1.54455 -4.92974,-3.7017 -6.46552,-6.46846 -1.54749,-2.76677 -2.31538,-5.65952 -2.31538,-8.67539 0,-3.0364 0.78548,-5.95556 2.35644,-8.76038 1.56507,-2.80194 3.74564,-4.95904 6.52411,-6.46846 2.77847,-1.50944 5.63317,-2.25969 8.56986,-2.25969 2.91929,-6e-5 5.76804,0.75025 8.55828,2.25969 z m -14.09751,26.80286 v -9.57515 h 2.13368 c 1.27198,0 2.24503,0.26087 2.90747,0.77666 0.96136,0.70342 2.22162,2.45313 3.79258,5.24624 l 1.99299,3.55225 h 4.43147 l -2.7374,-4.41094 c -1.31303,-2.0897 -2.42091,-3.58154 -3.32362,-4.46961 -0.48067,-0.46308 -1.11957,-0.86165 -1.91093,-1.1958 1.9344,-0.14653 3.4936,-0.83235 4.66593,-2.05163 1.17234,-1.2251 1.75855,-2.65536 1.75855,-4.30255 0,-1.1694 -0.3517,-2.2685 -1.05512,-3.30602 -0.69754,-1.03753 -1.64131,-1.76148 -2.82535,-2.18058 -1.17821,-0.4162 -3.08915,-0.62424 -5.7328,-0.62424 h -7.72581 v 22.54137 z m 0,-19.48446 h 4.12668 c 1.77611,0 2.98363,0.12894 3.64017,0.38686 0.65656,0.25792 1.17234,0.65361 1.54168,1.17823 0.36927,0.52754 0.55683,1.12546 0.55683,1.7937 0,1.03458 -0.38684,1.86987 -1.15475,2.49714 -0.76788,0.62725 -2.19814,0.94376 -4.30836,0.94376 h -4.40219 v -6.79969 z" />
</svg>
