<svg xmlns="http://www.w3.org/2000/svg" xmlns:xlink="http://www.w3.org/1999/xlink" version="1.2" viewBox="0 0 80 80" baseProfile="tiny-ps">
  <title>UiPath</title>
  <g>
    <rect width="80" height="80" fill="#FA4616"/>
    <g id="uipath-corporate-logo-digital-rgb-white-small_00000183949411654288392290000004306504227084738215_">
      <path id="UiPath_00000113324109560476076620000018202209946597846957_" d="M10,29h22v22H10V29z     M29.723,48.723V31.277H12.277v17.446H29.723z M14.26,34.674v6.666c0,3.048,1.671,4.83,4.499,4.83c2.883,0,4.591-1.818,4.591-4.83    v-6.666h-2.277v6.666c0,1.726-0.734,2.681-2.259,2.681c-1.579,0-2.277-1.01-2.277-2.681v-6.666    C16.537,34.674,14.26,34.674,14.26,34.674z M26.289,36.033c0.808,0,1.395-0.551,1.395-1.359c0-0.826-0.588-1.396-1.395-1.396    c-0.808,0-1.396,0.569-1.396,1.396C24.893,35.482,25.481,36.033,26.289,36.033z M25.15,37.117v8.943h2.277v-8.943H25.15z     M38.757,42.387c2.479,0,4.095-1.451,4.095-3.893c0-2.351-1.579-3.82-4.095-3.82h-4.334V46.06H36.7v-3.673H38.757z M38.519,40.569    h-1.818v-4.058h1.818c1.304,0,2.02,0.735,2.02,1.983C40.539,39.835,39.822,40.569,38.519,40.569z M43.624,41.598    c0,2.663,1.708,4.573,4.132,4.573c1.432,0,2.369-0.514,2.902-1.377v1.267h2.277v-8.943h-2.277v1.396    c-0.551-0.918-1.506-1.506-2.902-1.506C45.295,37.007,43.624,38.953,43.624,41.598z M50.657,41.598    c0,1.561-0.973,2.571-2.369,2.571c-1.543,0-2.351-1.083-2.351-2.571c0-1.598,0.9-2.608,2.351-2.608    C49.739,38.99,50.657,40.055,50.657,41.598z M58.682,44.113c-0.881,0-1.12-0.386-1.12-1.175v-3.893h2.002v-1.928h-2.002v-2.442    h-2.277v2.442H54.22v1.928h1.065v3.875c0,2.112,0.937,3.14,3.103,3.14h1.194v-1.947H58.682z M63.126,38.366v-4.242h-2.277V46.06    h2.277v-4.738c0-1.524,0.808-2.442,2.148-2.442c1.341,0,2.038,0.881,2.038,2.24v4.94h2.277v-5.197c0-2.35-1.653-3.875-3.765-3.875    C64.466,36.988,63.64,37.502,63.126,38.366z" fill="#FFFFFF"/>
      <path id="R_00000132789726274934973890000005345420420036541584_" d="M71.888,37.811    c-1.405,0-2.366-0.98-2.366-2.346c0-1.411,0.994-2.333,2.366-2.333c1.392,0,2.352,0.941,2.352,2.333    C74.24,36.851,73.274,37.811,71.888,37.811z M71.888,33.551c-1.176,0-1.921,0.739-1.921,1.914c0,1.176,0.784,1.902,1.921,1.902    c1.183,0,1.914-0.765,1.914-1.902C73.803,34.296,73.058,33.551,71.888,33.551z M72.424,35.832l0.496,0.928h-0.589l-0.47-0.85    h-0.372v0.85H70.96v-2.64h1.012c0.575,0,1,0.34,1,0.882C72.972,35.407,72.757,35.695,72.424,35.832z M71.489,35.486h0.418    c0.307,0,0.517-0.17,0.517-0.484c0-0.287-0.209-0.457-0.517-0.457h-0.418V35.486z" fill="#FFFFFF"/>
    </g>
  </g>
</svg>