<svg version="1.2" baseProfile="tiny-ps" id="Trafiko" xmlns="http://www.w3.org/2000/svg"
	viewBox="0 0 1850 1850" xml:space="preserve">
	<title>Trafiko</title>
<rect y="0" fill="#06C78B" width="1850" height="1850"/>
<path fill="#FFFFFF" stroke="#FFFFFF" stroke-miterlimit="10" d="M1525.2,836.8c24.9,0,48.4,6.3,70.3,18.7
	c21.9,12.4,39,29.4,51.3,50.7c12.3,21.4,18.5,44.4,18.5,69.1c0,24.9-6.2,48.2-18.5,69.9c-12.4,21.7-29.2,38.6-50.6,50.8
	c-21.4,12.2-44.9,18.3-70.6,18.3c-37.8,0-70.1-13.5-96.9-40.4c-26.7-26.9-40.2-59.6-40.2-98.1c0-41.2,15.2-75.6,45.4-103.1
	C1460.3,848.9,1490.8,836.8,1525.2,836.8 M1526.2,899.2c-20.5,0-37.7,7.2-51.3,21.5c-13.7,14.3-20.5,32.6-20.5,54.9
	c0,23,6.7,41.6,20.3,55.8c13.5,14.2,30.6,21.4,51.3,21.4c20.7,0,37.9-7.2,51.7-21.6c13.7-14.4,20.6-32.9,20.6-55.6
	c0-22.6-6.7-41-20.2-55.1C1564.5,906.3,1547.2,899.2,1526.2,899.2"/>
<path fill="#FFFFFF" stroke="#FFFFFF" stroke-miterlimit="10" d="M1214.6,758.8v193.8l97.5-109h83l-113.5,126.7l127.4,137.3h-82.3
	l-112-121.6v121.6h-66.2V758.8H1214.6z"/>
<path fill-rule="evenodd" fill="#FFFFFF" stroke="#FFFFFF" stroke-miterlimit="10" d="M1037.4,843.6h66.5v264h-66.5V843.6z"/>
<path fill="#FFFFFF" stroke="#06C78B" stroke-miterlimit="10" d="M885.5,823c0.9-44.5,23.1-72.4,68.3-81.5
	c13.5-2.7,26.1-2.2,39.6-2.3v58.4c-13.7-1.4-28.7,2.3-36,10.8c-6.6,7.7-5.8,16.7-6,35.3h42v56.3h-42v207.7h-66.2
	C885.3,977.9,883.9,903.1,885.5,823 M772.8,843.6h66v264h-66v-27.9c-12.9,12.3-25.9,21.1-38.9,26.6c-13.1,5.4-27.2,8.1-42.4,8.1
	c-34.1,0-63.6-13.2-88.5-39.7c-24.9-26.4-37.3-59.3-37.3-98.6c0-40.7,12-74.1,36.1-100.2c24.1-26,53.4-39.1,87.9-39.1
	c15.8,0,30.7,3.1,44.6,9c13.9,6,26.8,15,38.6,26.9V843.6z M703.1,898c-20.5,0-37.6,7.2-51.2,21.7c-13.6,14.5-20.4,33-20.4,55.6
	c0,22.9,6.9,41.6,20.7,56.3c13.8,14.7,30.9,22.1,51.1,22.1c20.9,0,38.2-7.3,51.9-21.8c13.8-14.4,20.6-33.4,20.6-56.9
	c0-22.9-6.9-41.6-20.6-55.7C741.6,905.2,724.2,898,703.1,898 M422,843.6h56.7v33.3c6.2-13.1,14.3-23,24.5-29.8
	c10.2-6.9,21.4-10.3,33.5-10.3c8.5,0,17.5,2.3,26.9,6.8l-20.6,57c-7.8-3.9-14.2-5.8-19.2-5.8c-10.2,0-18.8,6.3-25.8,18.9
	c-7,12.7-10.5,37.3-10.5,74.3l0.2,12.8v106.7H422L422,843.6L422,843.6z M1070.7,735c11.6,0,21.6,4.2,30,12.6
	c8.3,8.5,12.4,18.6,12.4,30.6c0,11.8-4.1,21.9-12.3,30.2c-8.3,8.4-18.1,12.5-29.6,12.5c-11.8,0-21.9-4.2-30.2-12.8
	c-8.4-8.4-12.5-18.8-12.5-30.9c0-11.7,4.1-21.6,12.3-29.9C1049.1,739.1,1059,735,1070.7,735 M277.9,1023.8
	c0.9,44.5,23.1,72.4,68.3,81.5c13.5,2.7,26.1,2.2,39.6,2.3v-58.4c-13.6,1.4-28.7-2.3-36-10.8c-6.6-7.7-5.8-119.9-6-138.5h42v-56.3
	h-42v-84.9h-66.2C277.2,860.4,275.4,889.5,277.9,1023.8"/>
<path fill-rule="evenodd" fill="#FFFFFF" stroke="#FFFFFF" stroke-miterlimit="10" d="M184.5,843.6h56.3v56.3h-56.3V843.6z"/>
</svg>