<?xml version="1.0" encoding="UTF-8" standalone="yes"?>
<svg version="1.2" baseProfile="tiny-ps" viewBox="0 0 25.2 25" xml:space="preserve" xmlns="http://www.w3.org/2000/svg">
  <title>bimi-svg-tiny-12-ps</title>
  <path fill="#E4610F" d="M13.602,1.383C-5.877,2.242,1.593,23.621,1.593,23.621c1.702-1.842,7.17-6.24,14.836-6.271&#xD;&#xA;&#x9;c0.009,0,0.018,0,0.026,0c3.693,0,5.872,3.142,5.033,6.267c0,0,5.758-6.743,2.556-14.426c-1.067-2.56-3.934-4.465-7.292-4.465&#xD;&#xA;&#x9;c-1.138,0-2.332,0.219-3.531,0.705c-2.808,1.138-3.185,3.678-2.611,4.853c0.42,0.86,1.255,1.287,2.155,1.287&#xD;&#xA;&#x9;c0.151,0,0.303-0.012,0.456-0.036c2.824-0.443,3.973-1.749,4.626-1.749c0.093,0,0.175,0.026,0.251,0.085&#xD;&#xA;&#x9;c0.416,0.322,0.017,1.647-3.596,3.101c-0.874,0.352-2.476,0.763-4.057,0.763c-1.843,0-3.658-0.558-4.268-2.416&#xD;&#xA;&#x9;c-1.132-3.454,2.932-7.59,9.037-8.068c0.309-0.027,0.729-0.04,1.022-0.04c3.101,0,5.332,1.396,6.432,2.323&#xD;&#xA;&#x9;c-1.266-2.12-3.926-4.071-8.222-4.145C14.449,1.387,14.095,1.373,13.602,1.383L13.602,1.383z"/>
</svg>