<?xml version="1.0" encoding="utf-8"?>
<!-- Generator: Adobe Illustrator 28.0.0, SVG Export Plug-In . SVG Version: 6.00 Build 0)  -->
<svg version="1.2" baseProfile="tiny-ps" xmlns="http://www.w3.org/2000/svg" xmlns:xlink="http://www.w3.org/1999/xlink" viewBox="0 0 323.51 342.82" xml:space="preserve">
<title>Blue10</title>
<g id="Laag_2">
	<rect y="0" fill="#FFFFFF" width="323.51" height="342.82"/>
	<g>
		<path d="M213.05,49.02H58.83v239.35l225.87-39.83V120.66C284.7,81.09,252.62,49.02,213.05,49.02z"/>
		<g>
			<path fill="#FFFFFF" d="M103.77,202.59c-4.15,0-4.68,3.4-4.68,7.92c0,4.52,0.53,7.98,4.68,7.98c4.15,0,4.68-3.46,4.68-7.98
				C108.45,205.99,107.92,202.59,103.77,202.59 M112.55,222.21c-1.54,1.54-4.04,2.5-6.76,2.5c-2.93,0-5-0.79-6.92-2.92v2.6h-6.7
				v-37.87h6.92v12.61c1.81-2.02,3.88-2.77,6.7-2.77c2.71,0,5.21,0.96,6.76,2.5c2.77,2.77,2.82,7.5,2.82,11.65
				C115.37,214.66,115.32,219.45,112.55,222.21"/>
			<path fill="#FFFFFF" d="M129.79,224.4c-5.69,0-8.09-3.99-8.09-7.92v-29.95h6.91v29.52c0,1.65,0.69,2.5,2.45,2.5h2.66v5.85H129.79
				z"/>
			<path fill="#FFFFFF" d="M155.21,224.4v-2.56c-1.81,1.92-4.36,2.88-6.92,2.88c-2.77,0-5-0.9-6.54-2.45
				c-2.23-2.23-2.82-4.84-2.82-7.88v-17.71h6.92v16.76c0,3.77,2.39,5.05,4.58,5.05c2.18,0,4.63-1.27,4.63-5.05v-16.76h6.92v27.71
				H155.21z"/>
			<path fill="#FFFFFF" d="M185.06,204.98c-0.75-1.65-2.29-2.88-4.63-2.88c-2.34,0-3.88,1.23-4.63,2.88
				c-0.43,1.01-0.59,1.76-0.64,2.98h10.53C185.64,206.74,185.48,205.99,185.06,204.98 M175.16,212.69c0,3.57,2.18,6.17,6.06,6.17
				c3.03,0,4.52-0.85,6.28-2.6l4.2,4.09c-2.82,2.82-5.54,4.36-10.54,4.36c-6.54,0-12.82-2.98-12.82-14.2
				c0-9.04,4.89-14.15,12.07-14.15c7.72,0,12.08,5.64,12.08,13.25v3.08H175.16z"/>
			<polygon fill="#FFFFFF" points="208.2,224.4 208.2,190.78 201.12,197 201.12,192.64 208.2,186.52 212.03,186.52 212.03,224.4 			
				"/>
			<path fill="#FFFFFF" d="M242.67,196.84c0-4.15-2.34-7.23-6.54-7.23c-4.2,0-6.54,3.08-6.54,7.23v17.23c0,4.15,2.34,7.23,6.54,7.23
				c4.2,0,6.54-3.08,6.54-7.23V196.84z M236.12,224.71c-5.91,0-10.37-4.15-10.37-10.42v-17.66c0-6.28,4.46-10.42,10.37-10.42
				c5.91,0,10.38,4.15,10.38,10.42v17.66C246.5,220.57,242.03,224.71,236.12,224.71"/>
		</g>
		<g>
			<polygon fill="#D8D100" points="109.74,156.79 127.07,156.79 127.07,85.89 109.52,85.89 90.71,99.63 90.71,117.87 109.74,104.07 
							"/>
			<path fill="#D8D100" d="M181.82,156.79v-29.47c0-8.03,2.15-14.3,6.45-18.81c4.3-4.51,10.04-6.76,17.23-6.76
				c7.19,0,12.93,2.26,17.23,6.76c4.3,4.51,6.45,10.78,6.45,18.81v29.47h17.33v-30.74c0-6.62-1.13-12.5-3.38-17.65
				c-2.26-5.14-5.28-9.48-9.09-13c-3.8-3.52-8.17-6.2-13.11-8.03c-4.93-1.83-10.08-2.75-15.43-2.75c-5.36,0-10.5,0.92-15.43,2.75
				c-4.93,1.83-9.3,4.51-13.11,8.03c-3.8,3.52-6.84,7.86-9.09,13c-2.26,5.15-3.38,11.03-3.38,17.65v30.74H181.82z"/>
		</g>
	</g>
</g>
</svg>
