<?xml version="1.0" encoding="utf-8"?>
<!-- Generator: Adobe Illustrator 27.5.0, SVG Export Plug-In . SVG Version: 6.00 Build 0)  -->
<svg version="1.2" baseProfile="tiny-ps" id="Layer_1" xmlns="http://www.w3.org/2000/svg" xmlns:xlink="http://www.w3.org/1999/xlink"
	 viewBox="0 0 64 64" xml:space="preserve">
<title>ZettaScale</title>

<path id="Combined-Shape" fill="#1561FF" d="M52.7,11.1v2.6c0,6.7-3.1,12.7-8,16.5c4.7,1.6,8,6,8,11.2c0,6.4-5.2,11.7-11.6,11.8
	l-0.2,0H10.7v-2.6c0-6.7,3.1-12.7,8-16.5c-4.7-1.6-8-6-8-11.2c0-6.4,5.2-11.7,11.6-11.8l0.2,0H52.7z M40.9,34.6h-9.2
	c-7.8,0-14.3,5.6-15.6,13.1l0,0.2h24.9c3.6,0,6.5-2.9,6.7-6.4l0-0.1l0-0.1c0-3.6-2.9-6.6-6.5-6.7L40.9,34.6z M47.3,16.2H22.4
	c-3.7,0-6.7,3-6.7,6.7c0,3.6,2.9,6.6,6.5,6.7l0.1,0h9.2c7.8,0,14.3-5.6,15.6-13.1L47.3,16.2z"/>
</svg>
