<?xml version="1.0" encoding="utf-8"?>
<svg version="1.2" baseProfile="tiny-ps" id="Calque_1"
	 xmlns="http://www.w3.org/2000/svg" xmlns:xlink="http://www.w3.org/1999/xlink" viewBox="0 0 296 296" xml:space="preserve">
<title>euroassurance</title>
<rect y="0" fill="#FFFFFF" width="296" height="296"/>
<g>
	<g>
		<path fill="#393837" d="M172.5,110.6c-1.1,0-2.1,0-3.2,0c2.4,7,3.7,14.8,3.8,23.2c6.4,0.2,11.1,1.5,14,4.1
			c3.2,2.7,4.8,7.1,4.8,13.2v5.5H166c-0.5,0-1,0-1.5,0c-11.5,0.2-20.3,3.2-26.5,8.9c-4.7,4.4-7.7,9.7-8.9,15.9
			c-0.4,2.2-0.6,4.5-0.6,6.9c0,1,0,2,0.1,2.9c0,0.5,0,1,0.1,1.5c0.8,8.1,3.7,14.9,8.8,20.2c6.4,6.5,15.8,9.7,28,9.7
			c6.2,0,11.3-0.8,15.3-2.4c4-1.6,7.9-4.3,11.6-8.1v9.5h26.8v-72.3C219.2,123.6,203.6,110.6,172.5,110.6z M191.9,181.1
			c0,6.8-1.4,11.4-4,13.9c-2.3,2.1-4.6,3.5-7.1,4.2c-2.6,0.7-5.9,1.1-10.1,1.1c-5.2,0-9.2-1.1-11.8-3.4c-2.6-2.3-4-5.3-4-9.3
			c0-8.3,5.1-12.4,15.4-12.4h21.7L191.9,181.1L191.9,181.1L191.9,181.1z"/>
		<path fill="#F9B500" d="M155.3,102.7c-1.3-1.9-2.7-3.8-4.2-5.5c-8.5-9.8-20.2-14.6-35.1-14.6c-14.5,0-26,4.9-34.8,14.7
			c-8.7,9.9-13,23.6-13,41.3c0,10.7,1.4,19.7,4.1,27.1c2.7,7.4,6.5,13.2,11.2,17.4c4.7,4.2,10,7.2,16,9c6,1.9,12.5,2.8,19.5,2.8h0.5
			c-0.2-2.1-0.4-4.2-0.4-6.5c0-6.1,1.1-11.8,3.3-16.8c-1,0.1-2.1,0.1-3.2,0.1c-7.4,0-13.3-2.2-17.6-6.8c-4.3-4.5-6.4-10.4-6.4-17.6
			h68.7V135C163.8,122.3,161,111.6,155.3,102.7z M95.2,128.5c0.1-2.4,0.4-4.5,0.7-6.2c0.4-1.7,1-3.6,1.8-5.6
			c1.6-3.5,3.9-6.3,7.1-8.3c3.2-2.1,6.9-3,11.3-3c4.5,0,8.3,1,11.4,3c2,1.3,3.7,3,5,4.9c0.7,1,1.4,2.1,1.9,3.4
			c0.8,2,1.4,3.9,1.8,5.6c0.4,1.8,0.6,3.9,0.7,6.2L95.2,128.5L95.2,128.5z"/>
	</g>
</g>
</svg>
