<?xml version="1.0" encoding="utf-8"?>
<!-- Generator: Adobe Illustrator 24.0.3, SVG Export Plug-In . SVG Version: 6.00 Build 0)  -->
<svg version="1.2" baseProfile="tiny-ps"
	 id="svg22" xmlns:cc="http://creativecommons.org/ns#" xmlns:dc="http://purl.org/dc/elements/1.1/" xmlns:inkscape="http://www.inkscape.org/namespaces/inkscape" xmlns:rdf="http://www.w3.org/1999/02/22-rdf-syntax-ns#" xmlns:sodipodi="http://sodipodi.sourceforge.net/DTD/sodipodi-0.dtd" xmlns:svg="http://www.w3.org/2000/svg"
	 xmlns="http://www.w3.org/2000/svg" xmlns:xlink="http://www.w3.org/1999/xlink" viewBox="0 0 216 216"
	 xml:space="preserve">
<title>Axero</title>
<path fill="#FFFFFF" d="M216,216H0V0h216V216z"/>
<g transform="translate(0,200) scale(0.05,-0.05)">
	<path fill="#FFFFFF" d="M672.7,3336.7h2974.7V362H672.7V3336.7z"/>
	<path fill="#CA4FFF" d="M1121.2,759.7c0-71.2,12.6-139.5,26.4-209c8.5-42.7,24.9-81.5,55.3-113.5c17.6-18.5,38.7-33.7,61.8-44.7
		c24.3-11.6,51-18.2,76.6-26.3c8-2.5,17.4-2.9,25.9-4.2c9.4-1.4,18.8-2.6,28.2-3.7c23.9-2.8,47.8-5,71.8-6.9
		c15.2-1.2,30.4-2.3,45.7-3.3c77.8-5.3,222.3-5.9,443.9-3.3c52.6,0.7,105.2,1.4,157.8,2.3c37.5,0.6,74.9,1.3,112.4,2.3
		c57.4,1.5,115.1,2.7,171.2,16.1c34.7,8.2,69.2,19.4,100,37.6c36.6,21.7,66,53.3,84.6,91.6c4.5,9.3,8.4,19,11.8,28.8
		c16.5,49.5,30.3,155.7,30.3,239.4v73.9h-751.9h-751.9C1121.2,836.9,1121.2,759.7,1121.2,759.7z"/>
	<path fill="#CA4FFF" d="M672.7,2314.3V1292h976.2H2625v120.7c0,251.3-29,355.5-118.1,426.7c-29,22.4-91,43.5-159,53.4
		c-32.3,5.3-253.3,8.6-639.8,10.6l-590.3,2.6v222.3v222.3c0,0,593.6,0.7,593.6,0.7c145.3,0.3,290.7,0.1,436-1.1
		c27.4-0.2,54.8-0.5,82.2-0.8c127.3-1.5,260.4-5.9,383.3-42.3c116-34.4,221.7-101.2,304.7-189c41.7-44.1,77.8-93.6,106.7-147.1
		c32.1-59.4,51.2-124.5,65.1-190.6c0.2-0.8,0.3-1.5,0.5-2.3c28.4-139.2,31-206.4,28.4-700.5c-3.3-435.3-4-465.7-17.1-534.3
		c-7.9-39.6-21.1-97-29.7-126.6l-15.8-54.1l295.5-0.7h296.1v1487.3v1487.3H2160H672.7V2314.3z"/>
</g>
</svg>
