<?xml version="1.0" encoding="UTF-8"?>
<svg id="Layer_1" xmlns="http://www.w3.org/2000/svg" baseProfile="tiny-ps" version="1.2" viewBox="0 0 400 400">
<title>Snusbolaget</title>
  <!-- Generator: Adobe Illustrator 29.0.1, SVG Export Plug-In . SVG Version: 2.1.0 Build 192)  -->
  <rect y="0" width="400" height="400" fill="#fff"/>
  <g>
    <path d="M88.9,173.1c-12.5-.7-25.5.5-38.1,0-2.7.3-2.6,3.6-.7,4h22.9c0,.4,0,.3-.2.4-3.5,2.4-6.2,4.9-8.4,8.5h-11.5c-1.8.2-2.4,2.5-1,3.6.2.1.9.5,1,.5h9.5c-.9,2.8-1.8,5.7-1.8,8.7-1.7.2-5.7-.7-6.7.9-.7,1-.3,2.8,1,3.1.9.2,5.6-.2,5.8.2.3,3,1.2,6,2.4,8.7h-5.6c-.1,0-.9.5-1.1.6-1.2,1.1-.4,3.2,1.2,3.4,1.3.2,7.5-.2,7.9,0,9.9,14.3,31.1,15.3,42.6,2.2,15-17.1,3.3-43.7-19.2-44.9ZM106.9,212.7c-9,13.7-29.3,13.8-38.5.2-10.1-15,.3-35,18.1-35.8,18.6-.8,30.7,19.9,20.3,35.6Z" fill="#003556"/>
    <path d="M213.6,186.5c-3.3-2.4-10.8-1.3-15.1-1.4l-3.6,25.7h11.3c5.3,0,11-5.6,8.8-11.1-.6-1.5-1.3-1.5-2.2-2.4-.1-.1-.2-.1-.1-.3,3.7-1.7,4.2-8,.9-10.4ZM208,205.1c-.2,0-1.3.5-1.4.5h-5.6l.7-5.9c1.8.1,3.7-.1,5.5,0,3.6.3,3.9,4.1.9,5.4ZM209,194.7c-.3.2-1.6.5-1.9.5h-4.5l.6-5c1.9,0,5.9-.5,7,.8,1,1.2.1,3.1-1.1,3.7Z" fill="#003556"/>
    <path d="M123.2,191.7c-1.1,4.6,1.5,7.3,5.8,8.3,1.8.4,5.9.3,5.7,3-.2,4.1-8,3.7-9.2.3l-4.5,2.9c3.3,7.7,16.7,5.6,18.8-1.8,1.5-5.2-1.1-7.7-5.8-9-1.7-.5-5.9-.6-5.5-3.2.5-3.3,7.2-3.5,8.2-.3h.2s4.6-2.7,4.6-2.7c.2-.2-.6-1.3-.8-1.6-4.5-5.6-15.9-3.2-17.5,3.9Z" fill="#003556"/>
    <path d="M263.4,214.8c4.2,5.4,13.7,2.5,14.9-4.1l2.4-17.6c-4.3-2.2-12.3-2.6-14.8,2.3-.9,1.7-2,9.4-1.8,11.3.4,3.5,4.1,4.5,7.1,4.3,1.1,0,3-1.1,1.6.9-1.2,1.7-3.7,1.8-5.4,1.1-.3-.1-1.3-.6-1.5-.8l-2.5,2.6ZM275.2,195.7l-1.5,10.6c-.5,1.1-4.9,1.1-4.8-1.6,0-1.4.7-6,1.1-7.3.3-1,1.6-1.8,2.6-2,.5,0,2.4-.1,2.7.3Z" fill="#003556"/>
    <path d="M246.7,196.7c-.6,1.7-1.5,8-1.2,9.8.6,4.4,6.9,5.7,9.9,2.8l.4,1.5h4.1s2.3-17.3,2.3-17.3c-4.7-2.8-13.3-2.9-15.4,3.2ZM255.5,205.9c-1.6.8-4.3,1-5-1.1.3-1.8.4-3.6.7-5.3.1-.6.2-1.3.4-1.8.7-1.7,3.9-2.3,5.3-1.1l-1.4,9.2Z" fill="#003556"/>
    <path d="M226.4,191.6c-2.5.2-5.3,1.5-6.7,3.5-1.3,1.8-2,7.1-2.1,9.4-.6,8.4,11.8,8.3,14.6,2,.7-1.6,1.7-8.5,1.5-10.2-.4-3.4-4.2-4.9-7.2-4.7ZM227.3,205.4c-1,1.4-3.3,1.7-4.3.3s-.3-1-.3-1.5c.2-1.9.5-4.6,1-6.4s3.5-1.8,4.5-.6c.2.2.4.7.4,1,0,1.6-.6,4.1-.9,5.8s-.2,1-.5,1.4Z" fill="#003556"/>
    <path d="M148.8,191.6c-.8.1-4.1,1-4.5,1.6l-2.5,17.7h4.9l2.1-14.5c1.6-1.1,4.8-.9,4.9,1.5l-1.9,13h5l1.8-13c.4-5.9-5.2-7-9.9-6.2Z" fill="#003556"/>
    <path d="M349.4,207.4l-2.7-2.1c-2.1,1.8-7.1,2.5-6.4-1.7,4.6,1.4,10.7-.3,11.1-5.8.5-7.9-12.4-8.1-14.9-.8-.6,1.7-1.4,7.9-1.1,9.6.8,4.8,7.4,5.3,11,3.3.4-.2,1.8-1.1,2.5-1.9l.6-.6ZM340.9,200c-.2-1.7.7-3.4,2.5-3.7,1.1-.2,2.7.2,2.9,1.5.3,2.8-3.5,3-5.4,2.2Z" fill="#003556"/>
    <path d="M283.5,197c-.6,1.7-1.4,7.7-1.2,9.5.7,4.9,7.5,5.4,11.1,3.4.6-.3,3.2-2.2,2.9-2.8l-2.6-1.8c-2.1,1.9-7.3,2.4-6.4-1.7,4.1,1.2,9.8,0,10.9-4.7,2-8.8-12-9.8-14.7-1.9ZM292.1,200c-1.5.7-2.7.3-4.2,0,.2-1.3.2-2.4,1.4-3.3,3-2.2,6.1,1.7,2.9,3.2Z" fill="#003556"/>
    <path d="M171.1,206.7c-.9.4-2.1.5-3.1,0-1-.4-1.6-1.5-1.5-2.6l1.6-12.2h-5l-1.9,13.3c0,6.6,7.8,6.1,12.4,5,.5-.1,2-.4,2.2-.9l2.4-17.4h-5l-2,14.6Z" fill="#003556"/>
    <path d="M331.2,197.1l2.8-3.4c-2.8-2.5-7.8-2.5-10.6-.1-3,2.6-3.2,7.2.5,9.2,1,.5,3.5.9,4,1.4.7.8.2,2.2-.8,2.5-1.8.6-3.7-.8-5-1.9l-2.8,3.3c2.8,4.7,11.1,3.9,13.3-.9,1.2-2.6,1-5.2-1.6-6.7-1.2-.7-4.7-1.2-4.7-2.7,0-2.5,3.7-1.7,4.9-.6Z" fill="#003556"/>
    <path d="M191.3,192.4c-2.8-1.1-6.1-.8-8.5,1.1-3.2,2.6-3.4,7.3.6,9.3,1.4.7,4.4.6,4.1,2.6-.4,2.8-5.1.9-6.1-.6h-.2s-2.6,3.3-2.6,3.3c3.1,4.8,11.5,3.9,13.5-1.3,1-2.5.6-5-1.9-6.4-1.4-.8-5.8-1.2-4.3-3.5.9-1.5,3.4-.7,4.6.2.2,0,2.5-2.7,2.8-3.1.1-.2.3-.2,0-.4-.2-.2-1.6-1-2-1.2Z" fill="#003556"/>
    <path d="M308,185.2h-5l-2.7,20.4c0,.6,0,1.3,0,1.9.9,3.6,4.5,4.2,8,3l.6-3.5c-2.7.1-3.8-.3-3.5-3.1s.6-4.5,1-6.8h3.3s.7-5,.7-5h-3.4l1-6.9Z" fill="#003556"/>
    <path d="M240.9,204.2l2.7-19h-5l-2.7,18.9c-.3,4.8,2.3,7.3,7.1,6.7l.7-4.2c-1.4-.4-2.6-.7-2.7-2.4Z" fill="#003556"/>
    <path d="M313.8,204.8c-3.3.6-3.9,6.1-.2,6.2,4.5.1,5.2-7,.2-6.2Z" fill="#003556"/>
    <path d="M85.7,178.7c-16.6,1.4-25.5,20.4-15.7,34,9.3,12.9,28.9,11.6,36.6-2.3,8.3-15.1-3.9-33.2-20.9-31.8ZM85.5,195.9c1.9,1.1,5.7,1.2,8.1,2.3,6.6,2.8,5.9,10.7,1,14.8-5.8,4.8-15.8,4.7-19.5-2.6l5.5-3.8c1.4,3.7,9.1,4.8,10.8,1,1.9-4.3-4.6-4.2-7.2-4.9-4.7-1.3-7.4-4.5-6.5-9.6,1.6-8.5,14.6-11.8,20.5-5.9.7.7,1.3,1.7,1.9,2.5l-5.8,3.6c-1.5-2.8-4.9-3.6-7.8-2.4-2.1.8-3.5,3.6-1.1,5Z" fill="#003556"/>
  </g>
</svg>