<?xml version="1.0" encoding="utf-8"?>
<!-- Generator: Adobe Illustrator 27.5.0, SVG Export Plug-In . SVG Version: 6.00 Build 0)  -->
<svg version="1.2" baseProfile="tiny-ps" id="Layer_1" xmlns="http://www.w3.org/2000/svg" xmlns:xlink="http://www.w3.org/1999/xlink"
	 viewBox="0 0 286.9 286.9" xml:space="preserve">
<title> Vanguard </title>
<rect fill="#971B20" width="286.9" height="286.9"/>
<path fill="#FFFFFF" d="M168.5,80.2c0,0,0,1,0,1.2c14.3,5.6,8.9,19.6,8.9,19.6l-26.1,83.5L115.9,80.5H66.5V82
	c8.5,1.9,12.6,16.7,12.6,16.7l32.4,90.3c9,25.4,25.8,30.4,25.8,30.4l20.7,8.1l49.9-147.2L168.5,80.2L168.5,80.2z"/>
<g>
	<path fill="#FFFFFF" d="M167.4,223.1c0-2.3,1.9-4.2,4.2-4.2c2.3,0,4.2,1.9,4.2,4.2c0,2.3-1.9,4.2-4.2,4.2
		C169.3,227.3,167.4,225.4,167.4,223.1z M175.1,223.1c0-2-1.5-3.5-3.5-3.5c-2.1,0-3.5,1.5-3.5,3.5c0,2.1,1.5,3.5,3.5,3.5
		C173.6,226.6,175.1,225.2,175.1,223.1z M170.7,225.5h-0.6v-4.8h2.1c1.2,0,1.7,0.5,1.7,1.3c0,0.9-0.6,1.3-1.5,1.3l1.4,2.1H173
		l-1.3-2.1h-1V225.5z M171.5,222.8c0.7,0,1.6,0.1,1.6-0.8c0-0.7-0.6-0.8-1.1-0.8h-1.3v1.5H171.5z"/>
</g>
</svg>
