<svg
   version="1.2"
   baseProfile="tiny-ps"
   viewBox="0 0 300 300"
   xmlns="http://www.w3.org/2000/svg">
<title>Bigstock</title>
<rect fill="#FFFFFF" width="300" height="300"/>
<g>
	<g>
		<path d="M46,149.2c4-1.5,6.2-4.8,6.2-11.2v-10.6c0-9-4.3-13.4-13.1-13.4H24.3v72.2h15c8.8,0,13.1-4.4,13.1-13.4v-12.2
			C52.4,154.1,50.2,150.8,46,149.2z M32.3,121.3h6.6c3.6,0,5.4,1.8,5.4,5.5v12.7c0,4.1-1.9,6.1-6,6.1h-6V121.3z M44.4,173.2
			c0,3.7-1.7,5.5-5.4,5.5h-6.8v-25.8h6.2c4,0,6,2,6,6.1V173.2z"/>
		<polygon points="68.4,186.1 60.3,186.1 60.3,113.9 68.4,113.9 68.4,186.1 		"/>
		<path d="M91,155.3v-7.5h14.5v25.6c0,9-4.3,13.4-13.1,13.4h-3c-8.8,0-13.1-4.4-13.1-13.4v-46.6c0-9,4.3-13.4,13.1-13.4h3
			c8.7,0,12.9,4.4,12.9,13.2v9.9h-7.9v-10.1c0-3.7-1.7-5.5-5.4-5.5h-2.4c-3.6,0-5.4,1.8-5.4,5.5v47.4c0,3.7,1.7,5.5,5.4,5.5h2.6
			c3.6,0,5.4-1.8,5.4-5.5v-18.5H91L91,155.3z"/>
		<path d="M141.2,162.8v10.5c0,9-4.3,13.4-13.1,13.4h-2.2c-8.7,0-12.9-4.4-12.9-13.2v-15.2h7.9v15.5c0,3.7,1.7,5.5,5.4,5.5h1.6
			c3.6,0,5.4-1.8,5.4-5.5V163c0-3.6-1.2-5.2-3.5-6.9l-9.9-7.3c-5.3-3.8-6.8-7.5-6.8-13.4v-8.7c0-9,4.3-13.4,13.1-13.4h2
			c8.7,0,12.9,4.4,12.9,13.2v13h-7.9v-13.3c0-3.7-1.7-5.5-5.4-5.5h-1.4c-3.6,0-5.4,1.8-5.4,5.5v9.1c0,3.6,1.3,5.2,3.6,6.9l9.8,7.2
			C139.6,153.2,141.2,156.6,141.2,162.8"/>
		<polygon points="155,186.1 155,121.5 144.4,121.5 144.4,113.9 173.7,113.9 173.7,121.5 163.1,121.5 163.1,186.1 155,186.1 		"/>
		<path d="M193.4,113.3h-3c-8.8,0-13.1,4.4-13.1,13.4v46.6c0,9,4.3,13.4,13.1,13.4h3c8.8,0,13.1-4.4,13.1-13.4v-46.6
			C206.5,117.7,202.2,113.3,193.4,113.3z M198.4,173.7c0,3.7-1.7,5.5-5.4,5.5h-2.4c-3.6,0-5.4-1.8-5.4-5.5v-47.4
			c0-3.7,1.7-5.5,5.4-5.5h2.4c3.6,0,5.4,1.8,5.4,5.5V173.7z"/>
		<path d="M241.6,158.4v14.9c0,9-4.3,13.4-13.1,13.4h-2.6c-8.8,0-13.2-4.4-13.2-13.4v-46.6c0-9,4.3-13.4,13.2-13.4h2.6
			c8.7,0,12.9,4.3,12.9,13.2v13h-7.9v-13.2c0-3.7-1.7-5.5-5.4-5.5h-2c-3.6,0-5.4,1.8-5.4,5.5v47.4c0,3.7,1.7,5.5,5.4,5.5h2.2
			c3.6,0,5.4-1.8,5.4-5.5v-15.4H241.6L241.6,158.4z"/>
		<polygon points="270.4,186.1 257.2,150.6 257.2,186.1 249.1,186.1 249.1,113.9 257.2,113.9 257.2,148.9 271.1,113.9 279.7,113.9 
			265.2,149.4 279.3,186.1 270.4,186.1 		"/>
	</g>
</g>
</svg>
