<svg
   version="1.2"
   baseProfile="tiny-ps"
   viewBox="0 0 300 300"
   xmlns="http://www.w3.org/2000/svg">
<title>Pond5</title>
<rect fill="#FFFFFF" width="300" height="300"/>
<g>
	<path id="Fill-4_00000160905501886135262250000003259121343094318014_" fill-rule="evenodd" d="M201.2,163.2h8.9
		c10.2,0,13-7.5,13-14.2c0-6.8-3.2-13.5-13-13.5h-8.9V163.2z M210.1,126c16.1,0,23.3,10.9,23.3,23.1c0,12.3-6.9,23.8-23.3,23.8
		c-5.9,0-13.3,0-19.2,0V126H210.1L210.1,126z"/>
	<path id="Fill-8_00000135684672566573348750000015893307987819061150_" fill-rule="evenodd" d="M263.4,142.6h-8.2v-7.2h24.6V126
		h-34.3c0,8.8,0,16.8,0,25.6h17.9c3.2,0,8.8,1.1,8.7,6.3c0,5.4-6,6.3-8.6,6.3c-3.9,0-8.7-1.6-8.7-5.8v-1.5h-10.3v1.5
		c0,11.1,8.3,15.1,19.2,15.1c8.6,0,18.7-4,18.7-15.5C282.5,145.8,273.5,142.6,263.4,142.6"/>
	<path id="Fill-6_00000147218050335056837430000011227993758210078395_" fill-rule="evenodd" d="M43.7,126c-7.4,0-14.6,0-22.1,0
		v46.8H32v-36.9h11.6c4.9,0,7.5,3.4,7.5,7.1c0,3.7-2.5,7-7.5,7h-6.4v9.6h6.4c11.9-0.1,17.9-7.4,17.9-16.8
		C61.6,133.7,55.7,126,43.7,126"/>
	<g id="Group-3_00000133519754671869822700000004072319265193335982_" transform="translate(127.000000, 0.000000)">
		<g id="Clip-2_00000024721080669792092100000014489776898318435514_">
		</g>
		<path id="Fill-1_00000030450100700703982450000008916562932849681819_" fill-rule="evenodd" d="M-30.6,134.2
			c-8.9,0-15.1,6.7-15.1,15.2c0,8.8,6.1,15.1,15.1,15.1c9.1,0,15.1-6.4,15.1-15.1C-15.5,140.8-21.5,134.2-30.6,134.2z M-30.6,174
			c-15,0-25.3-9.3-25.3-24.6s10.3-24.6,25.3-24.6s25.3,9.3,25.3,24.6C-5.3,164.7-15.6,174-30.6,174L-30.6,174z"/>
	</g>
	<polyline id="Fill-5_00000011717468612603615320000008274478397323561344_" fill-rule="evenodd" points="173.5,173.8 144.8,147.9 
		144.8,172.8 134.3,172.8 134.3,125.3 135.8,125.1 164.2,150.7 164.2,126 174.6,126 174.6,173.6 173.5,173.8 	"/>
</g>
</svg>
