<?xml version="1.0" encoding="utf-8"?>
<!-- Generator: Adobe Illustrator 27.6.1, SVG Export Plug-In . SVG Version: 6.00 Build 0)  -->
<svg version="1.2" baseProfile="tiny-ps" id="Layer_1" xmlns="http://www.w3.org/2000/svg" xmlns:xlink="http://www.w3.org/1999/xlink"
	 viewBox="0 0 343 358" xml:space="preserve">
	 <title>Danske Spil A/S</title>
<g>
	<polygon fill="#00523B" points="89.1,219.9 114.5,250.2 128,213.1 102.6,182.8 	"/>
</g>
<g>
	<path fill="#00523B" d="M143.3,142.9c-12.3,2.2-20.4,13.9-18.3,26.1c2.2,12.3,13.9,20.4,26.1,18.3c12.3-2.2,20.5-13.9,18.3-26.1
		C167.2,148.9,155.5,140.8,143.3,142.9z"/>
</g>
<g>
	<polygon fill="#00523B" points="76.4,268.5 83.3,307.4 122.2,300.6 115.3,261.6 	"/>
</g>
<g>
	<polygon fill="#00523B" points="201.7,160.5 217.8,115.9 171.1,124.1 	"/>
</g>
<g>
	<polygon fill="#00523B" points="133.4,60.8 98,67 86.7,77.8 122.6,72.1 	"/>
</g>
<g>
	<path fill="#00523B" d="M191.3,74.8c11.2-1.6,23.9-5.8,28.4-9.5c4.5-3.6-1-5.3-12.2-3.7c-11.2,1.6-24,5.9-28.4,9.5
		C174.6,74.7,180.1,76.4,191.3,74.8z"/>
</g>
<g>
	<polygon fill="#00523B" points="158.1,69.6 193.9,58.6 167.9,58.5 132.4,69.5 	"/>
</g>
<g>
	<path fill="#00523B" d="M268.9,138c2.3-3.5,2.5-15.3,0.6-26.4c-1.9-11.1-5.4-17.3-7.6-13.8c-2.3,3.5-2.5,15.3-0.6,26.5
		C263.2,135.3,266.6,141.5,268.9,138z"/>
</g>
<g>
	<polygon fill="#00523B" points="218.4,85.3 228.4,72.5 183.6,86 	"/>
</g>
<g>
	<polygon fill="#00523B" points="266.8,229.1 273.4,266.3 280.3,251.6 273.9,215 	"/>
</g>
<g>
	<polygon fill="#00523B" points="271.1,169.6 261.6,143.3 263.4,181.9 273,207.9 	"/>
</g>
<g>
	<polygon fill="#00523B" points="274.1,62.5 264.9,75.5 275.9,103.1 	"/>
</g>
<path fill="#FEB700" d="M278.8,45.1c-2.2-10.7-11-14.3-18-12.8L100.1,60.4c-4.8,1-7.9,2.4-12.1,6.1c0,0-40.8,38.6-46.8,44.7
	c-6,6.1-9.7,14.2-8,26l31,175.7c2.2,10.9,11.8,13.9,18.5,12.9c6.7-1,165.1-28.9,173.4-30.6c8.4-1.7,16.8-7.4,22.8-18.7l24.4-52.6
	c4.5-10,4.7-12.3,2.7-25.3L278.8,45.1z M219.7,65.3c-4.5,3.7-17.2,7.9-28.4,9.5c-11.2,1.6-16.7-0.1-12.2-3.7
	c4.5-3.6,17.2-7.9,28.4-9.5C218.7,60,224.2,61.7,219.7,65.3z M193.9,58.6l-35.7,11l-25.8-0.1l35.5-11L193.9,58.6z M98,67l35.3-6.2
	L122.6,72l-35.8,5.8L98,67z M83.3,307.4l-6.9-38.9l38.9-6.9l6.9,39L83.3,307.4z M114.5,250.2l-25.4-30.3l13.4-37.1l25.5,30.3
	L114.5,250.2z M151.1,187.4c-12.2,2.1-23.9-6-26.1-18.3c-2.2-12.2,6-24,18.3-26.1c12.3-2.2,24,6,26.1,18.3
	C171.6,173.5,163.4,185.2,151.1,187.4z M201.7,160.5l-30.6-36.3l46.7-8.2L201.7,160.5z M218.4,85.3L183.6,86l44.8-13.5L218.4,85.3z
	 M274.1,62.5l1.8,40.6l-11-27.6L274.1,62.5z M261.8,97.7c2.3-3.5,5.7,2.7,7.6,13.8c2,11.1,1.7,22.9-0.6,26.4
	c-2.2,3.5-5.7-2.7-7.6-13.8C259.2,113.1,259.5,101.2,261.8,97.7z M261.6,143.3l9.5,26.2l1.8,38.3l-9.6-26L261.6,143.3z M273.4,266.3
	l-6.5-37.2l7-14.1l6.5,36.6L273.4,266.3z"/>
</svg>
