<?xml version="1.0" encoding="UTF-8" standalone="yes"?>
<svg version="1.2" baseProfile="tiny-ps" viewBox="0 0 3000 3000" xml:space="preserve" xmlns="http://www.w3.org/2000/svg">
  <title>bimi-svg-tiny-12-ps</title>
  <g>
    <path fill="#0080C9" d="M441.5,872.8l-1,602.9v880.7h412.1v-1074c0-225.8-183.7-409.6-409.6-409.6H441.5z M458.9,623.3l1.3,0.2&#xA;&#x9;&#x9;C643.9,651.4,799,728.2,908.6,845.7c112,120.1,171.2,277.6,171.2,455.5l7.5,198c0,244.8,91,470.3,256.3,635&#xA;&#x9;&#x9;c151.5,150.9,352.7,239.1,571.2,251.3h104c200-11.5,390.1-90.1,540.2-224.2l0.5-0.4l0-687.5h-240.5&#xA;&#x9;&#x9;c-142.1,1.5-228.8,15.7-289.9,47.5c-63.9,31.1-108.7,95-117,166.7c-0.3,2.3,0.5,4.5,2,6.3c1.7,1.8,4,2.9,6.3,2.9l396.6,0l0.4,372.9&#xA;&#x9;&#x9;c-91.4,63.7-198.7,97.3-310.5,97.3c-145.3,0-282.4-57-386-160.6c-103.7-103.6-160.8-240.6-160.8-385.8c0-198.8,63-364,182.1-478&#xA;&#x9;&#x9;c113.8-108.8,272.3-166.2,458.5-166.2c177.4,0,352.1,62.6,456.1,163.4l2.5,2.5V614.6l-2100.6-0.2V623.3z"/>
  </g>
</svg>