<?xml version="1.0" encoding="utf-8"?>
<!-- Generator: Adobe Illustrator 23.0.3, SVG Export Plug-In . SVG Version: 6.00 Build 0)  -->
<svg version="1.2" baseProfile="tiny-ps" id="レイヤー_1"
	 xmlns="http://www.w3.org/2000/svg" xmlns:xlink="http://www.w3.org/1999/xlink" viewBox="0 0 800 800"
	 xml:space="preserve">
<title>JRE BANK</title>
<rect fill="#FFFFFF" width="800" height="800"/>
<path fill="#00833e" d="M106,400.57c0-132.62,106.8-244.12,239.42-239.42,61.03,2.35,105.63,25.82,143.19,58.68-25.82-14.08-55.16-22.3-86.85-23.47-55.16-2.35-106.8,16.43-147.88,52.81-38.73,35.21-59.86,88.02-59.86,151.4,0,83.33,68.07,151.4,151.4,151.4,51.64,0,97.41-25.82,124.41-65.72-29.34,64.55-91.54,110.32-169.01,110.32h0c-107.98-1.17-194.83-89.2-194.83-196h0ZM536.73,267.95c-35.21-38.73-82.16-61.03-136.14-63.38-51.64-2.35-102.11,15.26-140.84,50.47-22.3,21.13-36.38,45.77-44.6,69.25,25.82-44.6,75.11-75.11,130.28-75.11,83.33,0,151.4,68.07,151.4,151.4,0,111.5-83.33,203.04-194.83,203.04h0c-66.9,0-125.58-31.69-163.14-80.98,42.25,71.59,118.54,119.71,205.39,116.19,198.35-5.87,214.78-187.78,349.75-237.08-66.9-26.99-110.32-82.16-157.27-133.8h0Z"/>
<path fill="#231815" d="M419.37,431.08c0,23.47-19.95,41.08-48.12,41.08h-98.59v-140.84h88.02c34.04,0,50.47,17.6,50.47,37.56,0,11.74-4.69,21.13-12.91,28.17,12.91,5.87,21.13,17.6,21.13,34.04ZM307.87,354.8v35.21h44.6c15.26,0,24.65-7.04,24.65-17.6s-7.04-17.6-22.3-17.6h-46.95ZM384.16,429.91c0-9.39-7.04-15.26-21.13-15.26h-55.16v31.69h53.99c16.43,0,22.3-7.04,22.3-16.43h0Z"/>
</svg>