<?xml version="1.0"?><svg version="1.2" baseProfile="tiny-ps" viewBox="0 0 300 300" xmlns="http://www.w3.org/2000/svg" xmlns:xlink="http://www.w3.org/1999/xlink"><title>Belk</title><g><g fill="#fefefe" transform="matrix(.1 0 0 -.1 0 300)"><path d="M0 1500V0h3000v3000H0V1500z"/></g><g fill="#d9d9d9" transform="matrix(.1 0 0 -.1 0 300)"><path d="M220 1677v-384l15-44c28-79 45-108 101-168l55-60 59-30 59-29 70-12 69-13 64 12 63 12 60 29 60 29 48 48c57 56 91 111 112 179l15 49 1 77v77l-16 46c-34 103-88 176-169 231l-51 34-64 20-63 20H582l-59-18-58-18-58-37-57-36-2 182-3 182-62 3-63 3v-384zm550-34 45-20 39-38 39-39 25-54 24-54-4-82-5-81-21-41-21-40-40-37c-22-20-59-46-83-58l-43-22-75-1h-75l-46 21c-26 11-65 37-87 57l-40 37-23 42-22 42-5 70-4 70 11 41c23 87 105 171 194 200l42 14 65-4 65-3 45-20zm1177 411-7-7V949l63 3 62 3v1100l-55 3c-31 2-59 0-63-4zm170 0-7-7V950h130v281l73-59c39-32 118-95 175-140l103-82h189v8c0 7-40 40-357 291-79 62-143 114-143 115s112 92 250 201l249 198-5 9-5 8h-177l-174-138-173-138-5 275-5 276-55 3c-31 2-59 0-63-4zm-728-273c-142-48-248-158-285-296l-14-50v-120l14-51c7-29 26-75 41-103l28-51 54-51 53-50 52-24c29-13 81-29 116-36l64-12 69 13 70 12 59 30 60 29 44 43c47 46 106 139 106 168v18l-33 14c-19 7-43 17-55 20l-21 7-25-48-24-48-39-36c-48-46-104-74-166-83l-48-7-54 11-55 11-47 32c-27 18-48 37-48 42 1 9 290 197 493 320 51 31 96 63 98 70l6 14-31 45c-17 24-50 61-73 81l-43 38-65 30-65 30-90 3-90 4-56-19zm233-131c29-11 64-29 77-39l24-18-54-35c-30-20-128-82-219-139-91-56-176-111-190-122l-24-18-7 18c-4 10-8 44-8 75l-1 57 20 53 20 54 42 40c75 71 123 92 215 93l52 1 53-20z"/></g><g fill="#b6b6b6" transform="matrix(.1 0 0 -.1 0 300)"><path d="M220 1687v-363l15-59 16-60 32-54 32-53 44-39 44-39 66-33 66-32h220l65 31 65 31 48 43 47 42 26 44c15 25 35 72 45 105l19 61v113l-14 51c-7 29-26 75-41 103l-28 51-54 51-53 50-54 25c-29 13-79 29-112 35l-58 11-55-7c-75-9-153-40-206-81-25-19-47-34-50-34s-5 83-5 185v185H220v-363zm532-34 47-14 49-44 49-44 24-53 23-53v-150l-24-49-23-49-38-38c-21-21-57-48-80-60l-43-21-57-5-57-6-50 13-51 12-44 29-43 28-31 44-31 43-17 58-17 59 7 51c8 67 35 124 78 173l35 39 46 22c84 42 150 46 248 15zm1190-150 3-548h110l3 548 2 547h-120l2-547zm168 2V960h129l3 135 3 136 110-88c61-49 138-110 173-137l62-49 84-5 84-4 6 10 6 10-244 193c-135 107-245 199-245 204 0 6 96 86 212 178 117 92 228 181 247 197l35 29-95 1h-95l-170-135-170-135-5 272-5 273-62 3-63 3v-546zm-678 285c-24-5-68-20-98-34l-55-25-58-58-57-58-27-55c-14-30-32-83-39-118l-12-62 12-70 12-71 31-61 31-61 49-48 49-48 67-33 68-33h220l67 32 67 32 50 46 50 46 33 64c18 35 30 66 28 69-3 2-28 13-55 24l-51 20-28-54-29-54-34-30c-18-16-52-40-75-51l-42-22-61-5-61-4-58 16-57 17-37 34-37 34 10 9c12 11 539 343 573 361 12 6 22 16 22 20 0 5-18 32-39 61l-39 52-51 38-51 39-55 20-56 21-67 4-67 5-43-9zm159-124 35-6 47-30c26-16 47-33 47-37 0-7-171-118-417-270l-68-42-9 9-9 9v141l32 64 32 65 37 31c45 37 90 59 145 70 41 8 55 7 128-4z"/></g><g fill="#8c8c8c" transform="matrix(.1 0 0 -.1 0 300)"><path d="M220 1701v-348l10-54 10-54 30-61 30-61 51-50 52-51 52-26c127-62 254-61 383 2l56 27 46 46 45 45 32 60 32 59 12 68 12 67-12 68-12 67-25 52-25 52-45 50-46 51-76 37-76 38H535l-58-27c-32-15-76-42-98-59l-39-31v382H220v-349zm552-54 53-24 37-38c21-21 48-59 60-84l23-46v-170l-27-50c-31-60-77-105-138-137l-45-23-77-3-77-4-53 24c-30 14-70 40-91 57l-36 32-28 57-28 57v160l23 45c44 83 107 137 197 167l40 13 57-4 57-4 53-25zm1175 396-7-6V960h120v1090h-53c-30 0-57-3-60-7zm173-538V960h110v270h10c6 0 86-61 179-135l169-136 91 3 91 3-250 199c-138 109-250 200-250 201s113 91 250 201l250 199-90 3-90 3-177-142-178-141-3 281-2 281h-110v-545zm-736 267c-28-10-74-33-103-51l-52-34-34-41c-45-56-81-136-95-213l-11-63 11-62c6-35 22-87 35-116l24-53 56-58 55-58 54-26c66-33 125-46 197-47h57l64 20 64 20 56 40 56 40 36 49c20 27 43 65 51 85l15 37-46 19c-25 11-49 20-54 20-4 0-18-20-30-45l-22-45-49-44-49-44-47-16-47-16h-133l-60 30c-55 28-102 65-92 74 2 2 128 81 279 176s287 181 303 192l27 19-30 44c-56 81-128 135-229 170l-44 15h-81l-81-1-51-17zm246-116c19-8 50-26 68-39l33-25-28-20c-62-43-464-292-473-292h-9l-7 45-6 46 6 42c20 120 101 215 219 253l42 14 60-4 60-5 35-15z"/></g><g fill="#545454" transform="matrix(.1 0 0 -.1 0 300)"><path d="M230 1676v-376l21-62 20-63 34-47c19-26 57-65 85-87l50-40 53-19c29-11 77-23 108-27l55-7 59 11 60 11 62 30 61 30 51 55 50 55 27 58 28 57 4 91 4 91-16 55-16 55-39 60-40 59-57 42-57 42-69 21-70 21-76-5-77-5-57-22-57-23-40-33c-21-19-42-34-45-34s-7 84-8 188l-3 187-52 3-53 3v-375zm523-16 54-20 41-35 41-36 31-63 31-63v-140l-24-54-24-54-38-39-39-39-55-25-56-26H575l-53 23-52 24-49 53-49 53-16 47-16 48v115l21 58 22 57 47 47 46 46 55 21 54 21h57l57 1 54-20zm1197-154V960h110l-2 543-3 542-52 3-53 3v-545zm170-1V960h110v140c0 77 2 140 5 140s85-63 182-140l177-140h86l85 1-35 30c-19 17-114 93-210 169s-193 154-214 173l-40 34 247 197c136 109 247 199 247 202 0 2-37 4-83 4h-83l-174-140c-96-76-178-139-182-140h-8v560h-110v-545zm-734 265c-72-26-128-63-182-122l-41-44-29-59-29-60v-220l32-68 33-68 54-54 55-53 53-26 54-26 63-11 63-12 64 11 64 11 55 25 54 25 52 48 51 48 29 50c16 28 29 56 29 63v13l-46 20c-25 12-47 19-48 17-2-1-16-27-31-56l-29-53-37-30c-50-39-119-69-177-76l-49-5-56 16-56 16-42 33c-23 17-44 37-46 43l-3 10 300 190c165 104 300 193 300 198s-18 33-39 61l-40 53-61 41c-77 51-113 62-220 67l-85 4-59-20zm272-125c29-16 58-35 64-43l12-14-14-9c-8-4-121-76-250-158l-235-149-10 9-10 10v164l24 49 25 50 45 43 44 43 51 20 51 20 75-3 76-3 52-29z"/></g><g fill="#2d2d2d" transform="matrix(.1 0 0 -.1 0 300)"><path d="M230 1691v-348l10-52c5-28 22-76 36-106l27-54 46-46c53-54 106-86 180-110l53-17 87 4 86 5 65 30 65 30 45 45c26 24 58 65 73 91l27 46 16 63 16 63-6 73-6 74-30 63-30 63-44 49-44 48-63 32-64 32-66 12-67 12-63-12c-73-15-142-46-198-90-21-17-42-31-45-31s-6 86-6 190v190H230v-349zm549-37 53-27 35-36 36-36 26-55 26-55v-150l-22-46c-11-26-38-65-59-89l-38-42-50-25-51-26-70-5-70-4-56 21-57 22-45 40-46 40-28 57-28 57 1 75v75l22 51 23 51 43 42 43 43 49 23 49 24 81 1h80l53-26zm1171-154V960h100v1080h-100v-540zm172 3 3-538 48-3 47-3v266l8 13 8 12 85-67c46-38 128-103 182-146l99-77h149l-6 10c-3 6-75 64-158 131-84 66-161 128-172 137-11 10-48 39-82 65s-65 51-68 56l-5 9 239 191c132 105 243 195 246 201l6 10h-147l-24-17c-14-9-27-19-30-23-3-3-36-30-75-60-38-30-79-63-90-72-66-56-150-116-157-112l-8 5v549h-100l2-537zm-687 277c-62-15-115-41-172-83l-52-39-34-51c-19-29-42-74-53-102l-19-50 1-90 1-90 31-67 30-67 47-50c54-57 106-91 184-116l53-17 87 4 86 4 68 32 68 31 50 52 50 51 24 49c14 26 25 50 25 53 0 6-90 40-93 35-2-2-15-25-30-51l-27-46-46-41-47-41-50-15-51-15h-105l-54 20-54 20-39 35-39 36 18 12c20 13 291 185 323 204 100 61 266 168 270 174 7 12-76 109-124 146-23 17-66 41-97 52l-56 21-67 5-67 4-40-9zm222-130c57-28 91-55 82-64-2-2-47-31-99-63-52-33-164-103-248-156-85-53-158-97-163-97-14 0-24 50-23 115l1 60 26 55 26 55 39 38c22 21 61 49 88 62l49 24 81 1h81l60-30z"/></g></g></svg>