<?xml version="1.0" encoding="utf-8"?>
<!-- Generator: Adobe Illustrator 28.3.0, SVG Export Plug-In . SVG Version: 6.00 Build 0)  -->
<svg version="1.2" baseProfile="tiny-ps" xmlns="http://www.w3.org/2000/svg" xmlns:xlink="http://www.w3.org/1999/xlink" viewBox="0 0 300 300" xml:space="preserve">
<title>IÉSEG School of Management</title>
<g id="BG_White">
	<rect fill="#FFFFFF" width="300" height="300"/>
</g>
<g id="Globe_IÉSEG">
	<g>
		<polygon fill="#FDC300" points="149.2,56.2 145.7,12.5 117.7,24 85.7,56.2 		"/>
		<g>
			<polygon fill="#FFDD00" points="147.8,45.2 79.6,59.7 76,104.7 156.8,89.5 			"/>
		</g>
		<polygon fill="#F7A600" points="15.3,190.2 35.2,230.5 79.6,235.7 50.3,181.7 		"/>
		<polygon fill="#FDC300" points="58.2,186.8 85.7,239 149.2,241.4 139.5,164.2 		"/>
		<polygon fill="#FFDD00" points="89.8,231.8 150.5,241.4 150.5,280.3 111.2,267.6 		"/>
		<polygon fill="#FFDD00" points="288.6,177.2 286.4,110.9 244.5,114.9 234.4,191.4 		"/>
		<polygon fill="#F7A600" points="284.1,105.4 263.9,65.1 219.6,59.9 248.9,113.9 		"/>
		<polygon fill="#FDC300" points="153,243.8 156.4,287.5 184.5,276 216.4,243.8 		"/>
		<polygon fill="#F7A600" points="61.7,100.2 54.8,179.9 152.9,175.9 151.2,111.5 		"/>
		<polygon fill="#F7A600" points="222.6,236.3 150.5,249.4 153,188.3 237,186.9 		"/>
		<polygon fill="#FDC300" points="232.1,195 239,115.1 151.2,111.5 142.5,183.6 		"/>
		<polygon fill="#FFDD00" points="243.8,113.1 216.4,60.8 153,58.5 162.5,135.8 		"/>
		<polygon fill="#FDC300" points="212.2,68.2 151.5,58.5 151.5,19.7 191,32.4 		"/>
		<polygon fill="#FDC300" points="105.3,269.3 99.1,239.7 50.3,229.4 73,252.8 		"/>
		<polygon fill="#F7A600" points="196.8,26.9 203,56.5 251.8,66.8 229.1,43.4 		"/>
		<polygon fill="#FFDD00" points="112.8,17.4 97.1,49.4 41.3,64.4 74.7,34.5 		"/>
		<polygon fill="#F7A600" points="189.2,278.2 205,246.2 260.7,231.1 227.4,261 		"/>
		<polygon fill="#FDC300" points="264.8,234.5 291.3,184.1 230.4,191.9 212.2,234.5 		"/>
		<polygon fill="#FDC300" points="37.3,61.1 10.8,111.5 71.6,103.7 89.8,61.1 		"/>
		<polygon fill="#F7A600" points="8.7,109.5 10.8,175.9 52.7,171.7 58.2,97.2 		"/>
	</g>
</g>
</svg>
