<?xml version="1.0" encoding="utf-8"?>
<!-- Generator: Adobe Illustrator 27.7.0, SVG Export Plug-In . SVG Version: 6.00 Build 0)  -->
<svg version="1.2" baseProfile="tiny-ps" id="Layer_1" xmlns="http://www.w3.org/2000/svg" xmlns:xlink="http://www.w3.org/1999/xlink"
	 viewBox="0 0 500 500" xml:space="preserve">
	 <title>Safe Security</title>
<g>
	<path fill="#010D54" d="M234.9,262.6c0.1-2.4-0.3-4.7-1.2-6.9c-0.7-1.8-1.7-3.4-3.1-4.7c-1.3-1.3-2.8-2.3-4.4-3.2
		c-1.6-0.8-3.2-1.6-4.9-2.2c-1.8-0.7-3.5-1.4-5.2-2.2c-1.5-0.7-2.9-1.7-4.1-2.8c-1-0.9-1.6-2.2-1.6-3.6c-0.1-1.7,0.7-3.4,2.1-4.4
		c1.4-1,3.3-1.5,5.7-1.5c2.2,0,4.3,0.4,6.3,1.2c2.3,0.8,4.5,1.8,6.6,2.9l4.2-8.6c-2.4-1.6-5-2.9-7.7-3.9c-2.9-1.1-6.6-1.6-11.2-1.6
		c-3.2,0.1-6.4,0.9-9.3,2.4c-2.6,1.3-4.7,3.3-6.2,5.8c-1.5,2.6-2.3,5.6-2.2,8.6c-0.2,4.5,1.8,8.9,5.5,11.6c1.6,1.3,3.4,2.3,5.2,3.2
		c1.9,0.9,3.7,1.6,5.4,2.3c1.4,0.5,2.8,1.2,4.1,2c1.1,0.7,2.2,1.5,3,2.6c0.7,0.9,1.1,2,1.1,3.1c0.1,1.4-0.4,2.8-1.4,3.9
		c-0.9,0.9-2.1,1.6-3.4,2c-1.3,0.4-2.7,0.6-4.1,0.6c-1.5,0-3-0.2-4.4-0.6c-3.3-0.9-6.4-2.3-9.1-4.3l-4.9,8.7c2,1.4,4.1,2.5,6.3,3.4
		c4.2,1.7,8.7,2.6,13.2,2.6c4.2,0,7.8-0.8,10.7-2.3c2.7-1.4,5-3.4,6.6-6C234.1,268.2,234.9,265.4,234.9,262.6"/>
	<polygon fill="#010D54" points="279.2,219.5 278.6,219.5 253,278.3 264,278.3 278.3,244.1 291.8,278.3 304.7,278.3 	"/>
	<polygon fill="#010D54" points="337.8,232.5 362,232.5 362,221.7 326.7,221.7 326.7,278.3 337.8,278.3 337.8,256.1 358.8,256.1 
		358.8,245.3 337.8,245.3 	"/>
	<polygon fill="#010D54" points="425,267.5 396.5,267.5 396.5,255.3 420.8,255.3 420.8,244.6 396.5,244.6 396.5,232.5 423.9,232.5 
		423.9,221.7 385.3,221.7 385.3,278.3 425,278.3 	"/>
	<polygon fill="#010D54" points="99,261.1 126,268.4 105.3,283.6 105.3,283.6 134.2,270.6 136.3,260.9 112.3,254.2 140.5,239.5 
		145.3,216.4 95.9,249.7 	"/>
	<path fill="#010D54" d="M145.4,295.6H95.8c-11.5,0-20.8-9.3-20.8-20.8v-49.7c0-11.5,9.3-20.8,20.8-20.8h49.7
		c11.5,0,20.8,9.3,20.8,20.8v49.7C166.2,286.3,156.9,295.6,145.4,295.6z M95.8,206c-10.6,0-19.2,8.6-19.2,19.2v49.7
		c0,10.6,8.6,19.2,19.2,19.2h49.7c10.6,0,19.2-8.6,19.2-19.2v-49.7c0-10.6-8.6-19.2-19.2-19.2H95.8z"/>
</g>
</svg>
