<svg xmlns:sodipodi="http://sodipodi.sourceforge.net/DTD/sodipodi-0.dtd" xmlns:cc="http://creativecommons.org/ns#" xmlns:inkscape="http://www.inkscape.org/namespaces/inkscape" xmlns:svg="http://www.w3.org/2000/svg" xmlns:rdf="http://www.w3.org/1999/02/22-rdf-syntax-ns#" xmlns:dc="http://purl.org/dc/elements/1.1/" xmlns="http://www.w3.org/2000/svg" xmlns:xlink="http://www.w3.org/1999/xlink" version="1.2" viewBox="0 0 216 216" baseProfile="tiny-ps">
  <title>Spark NZ</title>
  <desc>Connecting New Zealand with technology. Discover endless and flexible broadband plans, mobile phones, mobile plans and accessories with Spark NZ.</desc>
<rect  width="216" height="216" fill="#FFFFFF"/>
<g>
	<path fill="#5A12AA" d="M140.858,104.597c0.003-0.003,0.009-0.006,0.014-0.01
		C140.884,104.578,140.871,104.587,140.858,104.597 M43.224,103.924c1.91,0.857,4.592,1.351,6.673,2.012
		C47.668,105.268,45.432,104.596,43.224,103.924 M172.042,121.2c-12.33-1.97-30.369,2.077-43.388-7.081
		c0.661-0.602,1.316-1.22,1.995-1.805c5.81,2.163,14.893,5.287,20.842,7.308c0.006,0.004,0.013,0.004,0.023,0.008
		c0.001-0.002,0.001-0.004,0.001-0.008c1.21,0.36,2.554-3.849,1.467-4.276c0,0-13.373-4.687-18.46-6.476
		c11.201-9.049,21.538-19.581,34.055-26.783c0.006-0.062,0.075-0.128,0.12-0.175c0.02-0.207,0.135-0.548-0.017-0.706
		c-0.196-0.038-0.506,0.069-0.483,0.034c-7.983,3.96-15.985,8.058-23.745,12.406c1.838-1.02,26.552-16.285,24.786-11.634
		c-10.227,6.287-19.064,14.669-28.203,22.428c3.988-3.296,8.194-6.837,12.335-10.135c-3.346,2.811-6.664,5.651-9.961,8.508
		c-0.012,0.048,0.052-0.022,0.044-0.016c0.405-0.313,0.819-0.696,1.248-0.954c-2.507,2.607-5.603,4.893-8.007,7.523
		c10.67-8.971,21.484-19.05,33.085-26.253c-1.731,0.961-3.64,2.11-5.323,3.153c1.316-1.836,8.117-3.452,4.679-6.173
		c2.014-0.808,4.767-2.858,2.962-5.166c-2.819-2.429-7.417,0.585-10.25,1.19c0.484-0.108,1.129-0.394,1.626-0.513
		c-2.615,0.998-5.265,1.908-7.537,3.476c2.134-1.767,9.213-8.246,3.521-9.269c-13.214,8.648-24.209,20.821-36.521,30.813
		c11.405-11.125,22.972-22.173,33.836-33.821c2.033-3.974-2.297-4.822-4.827-2.329c0.201-0.216,0.503-0.465,0.762-0.676
		c0.006-0.038-0.018-0.044-0.029-0.059c1.75-1.889-0.979-3.376-2.254-1.435c-4.496,5.1-9.926,9.229-14.918,13.812
		c0.809-0.599,1.633-1.179,2.444-1.774c-5.841,5.021-11.679,10.162-17.449,15.238c-0.512-3.042,1.265-6.832-1.75-6.234
		c-0.617-2.623,2.383-11.304-2.663-9.338c-0.645,0.33-0.483,1.084-0.471,1.679c0.222,4.61,0.45,9.225,0.66,13.835
		c-2.549-10.502-1.853-29.244-0.448-38.649c0.154-4.074-4.098-4.222-4.231-0.14c-0.116,0.792,0.812,8.776,0.395,11.818
		c-1.558-4.884-0.863-22.32-9.109-18.934c-3.786,4.686,0.494,13.509,0.264,19.314c-2.975-6.303-5.867-12.654-8.799-18.961
		c-0.068-0.047-0.035-0.025-0.041-0.037c-0.02,0.006,0.003,0.001-0.017,0.006c1.1,2.459,2.277,4.972,3.343,7.511
		c-1.252-2.416-2.391-4.942-3.592-7.409c-0.754,0.366-1.44,0.629-2.191,0.998c0.06-0.007-0.028,0.008,0.036,0
		c4.15,9.582,8.443,19.109,12.451,28.733c-2.471-5.301-4.928-10.683-7.42-15.931c1.832,4.076,3.714,8.215,5.454,12.335
		c-2.314-4.867-4.641-9.727-6.954-14.598c-0.178,0.063-0.289,0.15-0.451,0.183c-1.462-3.528-4.275-10.299-4.423-10.584
		c-1.455-3.485-5.441-2.082-4.6,1.227c0.614,2.314,1.662,4.527,2.47,6.765c-1.812-2.354-3.766-0.6-2.903,2.119
		c-5.404-4.31-1.356,5.84-0.357,7.79c-11.021-15.332,8.731,26.587,9.563,28.758c-1.459-3.128-2.911-6.269-4.388-9.384
		c1.862,4.343,3.781,8.727,5.648,13.041c-5.549-2.411-20.96-9.655-26.34-11.645c-1.878-1.111-2.943,0.862-2.626,1.524
		c-1.99-0.465-5.608-3.17-5.417,0.433c-11.052-4.831-12.093,2.747-2.01,5.931c-0.383-0.06-0.769-0.118-1.137-0.189
		c-0.247,0.936-0.709,2.297-0.646,2.329c0,0,16.107,6.871,24.243,10.223C69,99.355,55.678,96.378,42.082,93.7
		c-1.466-0.332-2.12,2.915-0.655,3.21c2.919,0.338,5.823,0.726,8.557,1.791c-0.318,0.834-0.552,1.798-0.823,2.655
		c8.723,2.563,17.446,5.18,26.136,7.772c-0.21,0.662-0.421,1.319-0.631,1.982c-5.909-2.017-12.297-4.273-18.026-6.174
		c3.3,1.248,6.76,2.265,9.973,3.667c-5.996-1.622-11.289-3.484-17.23-5.531c-2.055-0.135-5.413-3.367-6.631-0.853
		c-0.225,0.794,0.07,1.54,0.708,1.629c6.5,1.767,12.981,3.497,19.254,5.872c-0.952-0.223-2.052-0.552-2.907-0.735
		c9.672,2.738,18.978,6.482,28.543,9.592c-8.18,6.833-15.033,14.788-22.464,22.264c-0.583,0.807,1.885,2.606,2.485,1.76
		c0,0,0.003,0.002,0.005,0.002c0.003-0.002,0.005-0.013,0.008-0.019c7.067-8.429,17.341-14.179,25.538-21.647
		c0.45-0.575,0.911-0.082,1.455,0.016c-3.575,3.995-7.35,7.824-10.766,11.952c0.121,0,0.239-0.202,0.339-0.234
		c-3.219,3.445-9.909,10.096-9.902,10.12c0.193,0.175,0.309,0.307,0.498,0.489c-1.563,1.455-3.118,2.921-4.693,4.366
		c0.157,0.15,0.299,0.31,0.438,0.47c-0.696,0.605-1.472,1.264-2.182,1.862c-0.77,0.63,1.361,3.241,2.228,2.965
		c0.009,0.004,0.017,0.009,0.03,0.013c-1.405,1.878-5.654,3.698-3.904,6.499c-0.946,0.829-1.908,1.55-2.836,2.388
		c-0.613,0.629,1.037,2.636,1.711,1.973c-0.153,4.901,11.277-7.456,13.376-8.235c-2.41,4.015-5.909,7.036-9.214,10.261
		c-1.655,1.829,1.091,3.932,2.519,2.085c10.283-14.29,24.046-25.978,37.479-37.264c-10.612,10.925-21.204,21.888-31.725,32.901
		c-0.01,0.034-0.048,0.036-0.059,0.072c11.892-11.508,23.273-23.61,35.069-35.213c1.922,8.334,1.73,14.883,2.935,20.749
		c1.391,5.294,2.496,22.799,5.633,23.679c3.697-0.169-0.281-24.176-0.225-27.916c3.767,7.38,11.295,22.149,11.295,22.149
		c0.337,0.62,2.851-0.458,2.494-1.133c-3.004-7.468-5.993-14.951-9.051-22.362c4.459,5.187,7.841,11.264,10.4,17.537
		c-1.598-2.727-2.996-5.812-4.312-8.742c2.717,5.388,4.654,15.426,11.293,16.622c1.854-0.491,2-2.854,1.305-4.358
		c0.681-0.325,1.401-0.61,2.041-0.954c-4.817-10.041-9.577-20.156-14.476-30.152c0.458,0.173,0.963,0.295,1.407,0.482
		c5.31,10.939,10.701,22.096,16.132,32.764c-5.052-10.838-10.175-21.686-15.224-32.486c5.68,1.853,11.59,3.798,17.205,5.562
		c-5.82-2.07-11.639-4.129-17.483-6.145c-0.002-0.019-0.017-0.025-0.028-0.03c-0.297-0.687-0.667-1.379-0.939-2.041
		c11.721,3.976,24.049,6.717,35.449,11.482c-0.002,0-0.003,0-0.003,0c1.845,0.085,4.208-7.623,1.487-7.504
		c0.182-0.88,0.096-1.575-0.422-1.731c-3.897-1.264-23.689-7.578-30.992-9.802c5.966,0.851,16.916,5.373,22.331,6.651
		c0.449-0.173,0.868-1.46,0.398-1.722c-5.022-1.72-10.009-3.432-15.026-5.139C162.275,123.365,178.122,122.217,172.042,121.2
		 M112.464,80.915c0.078-0.845,0.214-1.772,0.294-2.595c0.23,1.783,0.59,3.475,0.748,5.277
		C113.215,82.736,112.391,81.852,112.464,80.915 M112.052,84.259c0.031-0.257,0.084-0.641,0.121-0.893
		c0.746,1.574,1.759,3.063,1.595,4.898C113.278,86.964,112.278,85.665,112.052,84.259 M111.452,70.37
		c-0.252,2.251-0.509,4.418,0.163-0.192c0.011,2.579-0.507,5.311-0.693,7.891c-0.908-2.661,0.529-6.026,0.547-8.816
		C111.58,69.565,111.491,69.983,111.452,70.37 M107.124,74.049c-0.061-0.532-0.138-1.053-0.205-1.582
		c1.041,2.127,2.056,4.281,3.095,6.408c-0.045,0.351-0.092,0.707-0.13,1.071C108.949,77.995,108.05,76.011,107.124,74.049
		 M109.677,81.603c-0.037,0.186-0.061,0.379-0.073,0.587c-0.663-1.719-1.745-3.419-2.099-5.235
		C108.241,78.492,108.941,80.068,109.677,81.603 M106.114,73.933c0.282,0.717,0.804,1.39,0.837,2.171
		C106.683,75.388,106.185,74.688,106.114,73.933 M105.306,67.277c-0.037-0.464-0.108-0.893-0.146-1.352
		c0.455,0.992,1.037,1.953,1.025,3.08C105.88,68.44,105.612,67.841,105.306,67.277 M106.435,68.741
		c0.65,1.426,1.304,2.852,1.892,4.342C107.613,71.817,106.539,70.3,106.435,68.741 M110.22,80.679
		c-0.239-0.345,0.028-0.907,0.029-1.29c0.151,0.258,0.263,0.559,0.411,0.822c-0.049,0.361-0.102,0.714-0.132,1.098
		C110.406,81.129,110.321,80.898,110.22,80.679 M92.457,45.274c-0.223-1.441,2.808,6.581,3.3,7.61
		C94.66,50.393,93.57,47.804,92.457,45.274 M96.006,49.805c-0.651-1.759-1.993-3.831-2.345-5.542
		c3.101,7.376,7.465,14.483,9.898,22.072C101.011,60.884,98.534,55.339,96.006,49.805 M103.885,53.267
		c0.065,0.16,0.078,0.373,0.102,0.572c-0.014-2.644-1.22-5.52-0.402-8.09c1.015-1.635,2.8-0.251,3.202,1.095
		c2.943,9.569,5.521,19.855,3.489,29.86C105.003,66.639,104.523,63.625,103.885,53.267 M98.384,68.566
		c2.445,6.232,5.452,12.341,7.582,18.655C103.445,80.99,100.781,74.551,98.384,68.566 M99.675,82.409
		c0.842,1.774,1.484,3.648,2.256,5.503c-1.823-3.473-3.172-7.217-4.704-10.828C98.065,78.845,98.831,80.639,99.675,82.409
		 M97.608,84.023c0.881,1.875,1.661,3.802,2.493,5.706c-4.29-6.71-8.012-15.028-10.533-22.003
		C92.285,73.146,94.938,78.575,97.608,84.023 M88.584,46.305c0.655,1.519,1.201,3.139,1.91,4.632
		c-0.529-1.61-1.114-3.163-1.699-4.712l0.081-0.032c1.523,3.402,3.009,6.845,4.477,10.303c-0.238,0.096-0.47,0.194-0.689,0.306
		c-1.306-3.569-3.341-6.742-4.12-10.484L88.584,46.305z M87.985,46.526l0.049-0.019c1.424,3.429,2.909,6.83,4.35,10.281
		c-0.001-0.01,0.045,0.081,0.045,0.072C90.827,53.976,89.509,49.804,87.985,46.526 M85.435,66.351
		c0.865,1.409,1.516,3.011,2.094,4.588C86.795,69.447,86.134,67.88,85.435,66.351 M86.738,68.784c0.002-0.059,0.011-0.003,0.029,0
		c5.001,8.891,8.243,18.897,12.688,27.939c-0.07-0.034-0.152-0.064-0.235-0.085C94.921,87.489,90.792,78.178,86.738,68.784
		 M89.011,99.63c3.279,1.433,6.549,3.012,9.837,4.484l-2.401,1.554c-3.825-1.845-7.991-3.369-11.676-5.439
		c-3.321-0.268-5.878-2.826-8.959-3.914C80.305,97.257,84.779,98.137,89.011,99.63 M72.029,91.811
		c2.678,1.225,5.312,2.455,8.008,3.683c-3.575-0.863-7.486-1.215-11.059-2.259l7.048,0.551c0,0-3.739-1.778-8.051-3.537
		C69.419,90.602,70.708,91.133,72.029,91.811 M75.724,99.318c0.589,0.333,1.246,0.694,1.849,1.03
		c-4.946-2.116-9.884-4.255-14.871-6.322c2.285,0.19,4.633,1.454,6.919,1.496c0.114,0.064,3.14,2.184,3.18,2.08
		c0,0.001,0.003,0.001,0.004,0.003v-0.002c3.284,1.313,9.855,4.231,13.063,5.758c-3.452-1.402-6.949-2.773-10.379-4.202
		C75.556,99.221,75.639,99.274,75.724,99.318 M79.961,110.554c0.99,0.246,1.966,0.596,2.963,0.867
		C81.968,111.248,80.889,110.882,79.961,110.554 M81.514,111.096c1.497,0.837,12.745,2.753,10.855,3.844
		C88.765,113.657,85.059,112.408,81.514,111.096 M91.871,119.826c-4.474,3.581-9.059,7.354-13.465,10.853
		c3.974-3.782,7.819-7.719,11.838-11.459C90.752,119.438,91.513,119.564,91.871,119.826 M91.504,109.808
		c-5.06-1.604-10.175-3.177-15.18-4.81c6.742,2.067,13.549,4.069,20.225,6.204C94.955,111.192,93.139,110.174,91.504,109.808
		 M68.757,160.832c6.151-5.174,12.207-10.525,18.288-15.793c-1.536,2.693-4.397,4.333-6.643,6.394
		c0.258-0.162,0.505-0.339,0.748-0.514c-4.182,3.62-8.648,6.931-12.964,10.412C68.348,161.137,68.567,160.996,68.757,160.832
		 M70.868,159.644c-1.443,1.211-2.923,2.464-4.361,3.704c0-0.08-0.013-0.162-0.032-0.244c1.63-1.326,3.395-2.662,5.026-4.016
		C71.309,159.288,71.086,159.465,70.868,159.644 M71.573,159.048C71.468,159.119,71.603,159.02,71.573,159.048 M80.843,152.106
		c-2.707,2.289-5.493,4.579-8.273,6.792c3.183-2.535,6.094-5.402,9.4-7.79C81.639,151.489,81.224,151.782,80.843,152.106
		 M80.741,151.9c1.113-1.098,2.437-2.064,3.649-3.066C83.335,149.903,81.891,150.874,80.741,151.9 M83.923,152.765
		c0.743-1.398,2.114-2.249,3.299-3.254C86.179,150.592,85.013,151.674,83.923,152.765 M86.372,133.335
		c2.219-2.414,7.809-8.168,11.205-11.634c0.049,0.027,0.109,0.051,0.176,0.059c-0.667,0.786-1.385,1.531-2.068,2.304
		c0.759-0.737,1.475-1.518,2.244-2.243c0.166,0.07,0.343,0.124,0.528,0.173C94.722,126.075,90.413,129.533,86.372,133.335
		 M93.529,140.388c-0.644,0.604-1.384,1.164-2.054,1.756C91.872,141.291,92.811,140.929,93.529,140.388 M99.675,136.342
		c-3.106,2.435-6.231,4.939-9.345,7.388c2.742-3.222,6.483-5.513,9.945-7.889C100.089,136.022,99.878,136.18,99.675,136.342
		 M100.922,133.364c1.02-0.943,2.226-1.854,3.359-2.742c-0.175,0.181-0.369,0.348-0.559,0.51c2.054-1.712,4.157-3.513,6.233-5.263
		c0.29,0.101,0.583,0.198,0.88,0.293C107.547,128.575,104.213,130.951,100.922,133.364 M112.464,124.681
		c-0.281,0.28-0.584,0.613-0.895,0.876c-0.301-0.086-0.577-0.202-0.878-0.289c0.352-0.329,0.733-0.628,1.099-0.941
		c0.266,0.067,0.506,0.156,0.777,0.221C112.575,124.616,112.502,124.645,112.464,124.681 M111.862,87.399
		c-0.248-0.367-0.051-0.763-0.044-1.159c0.795,1.983,2.273,3.816,2.185,6.024C113.297,90.678,112.58,89.037,111.862,87.399
		 M119.68,133.977c0.013,0.531,0.028,1.055,0.046,1.586c-0.835-1.605-1.642-3.233-2.481-4.827
		C118.077,131.777,118.869,132.906,119.68,133.977 M117.317,126.046c0.092,0.267,0.2,0.512,0.295,0.777
		c-0.228-0.291-0.455-0.586-0.661-0.897C117.071,125.97,117.184,126.016,117.317,126.046 M116.234,129.388
		c0.419,0.359,0.521,0.945,0.733,1.453C116.707,130.367,116.493,129.854,116.234,129.388 M118.325,139.108
		c-0.259-0.509-1.271-3.096-1.374-4.381c0.988,2.389,3.145,4.74,2.955,7.468C119.225,140.87,118.588,139.632,118.325,139.108
		 M139.039,159.981c1.264,1.888,2.923,3.549,3.915,5.619c-1.695-1.623-3.049-3.841-4.193-5.956
		C138.871,159.745,138.953,159.865,139.039,159.981 M129.155,120.852c1.225,0.318,2.456,0.636,3.688,0.958l-0.146,0.131
		C131.515,121.579,130.339,121.215,129.155,120.852 M131.032,126.793c-0.511-0.141-1.017-0.286-1.524-0.425
		c-0.199-0.415-0.418-0.805-0.619-1.219c0.522,0.162,1.052,0.322,1.585,0.468C130.661,126.01,130.857,126.391,131.032,126.793
		 M131.222,118.915c-1.029-0.248-2.392-0.771-3.551-1.102c-0.122-0.198-0.199-0.443-0.321-0.644
		C128.635,117.717,129.927,118.346,131.222,118.915 M128.786,112.86c-0.324,0.291-0.645,0.579-0.979,0.863
		c-0.89-0.408-1.76-0.83-2.657-1.232c-0.284-0.636-0.582-1.254-0.879-1.878c0.147-0.18,0.34-0.312,0.514-0.468
		c1.671,0.597,3.293,1.241,4.971,1.832C129.455,112.294,129.111,112.566,128.786,112.86 M131.297,110.644
		c-0.914-0.545-5.296-1.3-4.825-1.982c1.668,0.597,3.316,1.22,4.999,1.805C131.471,110.527,131.353,110.593,131.297,110.644
		 M161.479,85.52c-9.575,7.165-18.558,15.079-27.602,22.894c-1.503-0.034-3.984-1.122-5.191-1.7
		C138.023,97.267,149.715,91.57,161.479,85.52 M163.973,82.102c-4.713,2.524-9.527,4.908-14.197,7.523
		C154.052,86.597,159.259,84.111,163.973,82.102 M156.799,81.957c0.059-0.055,0.358-0.274,0.361-0.274
		c-0.039-0.044-0.118-0.141-0.243-0.301c3.742-2.319,8.513-3.91,12.716-4.635c-4.721,2.782-10.923,4.629-15.225,7.349
		C155.1,83.429,156.027,82.677,156.799,81.957 M125.487,101.489c11.561-9.511,21.881-20.38,33.837-29.392
		C148.523,84.26,134.662,93.72,122.6,104.703c-0.073-0.055-0.625-0.103-0.53-0.235C123.206,103.485,124.353,102.48,125.487,101.489
		 M125.487,97.913c-1.166,0.902-2.59,3.152-3.65,3.43c2.421-2.298,4.827-4.739,7.232-7.068
		C127.931,95.433,126.689,96.711,125.487,97.913 M120.543,92.456c2.591-3.676,7.282-6.462,10.592-9.811
		c-3.492,3.714-7.043,7.493-10.562,11.205C120.565,93.435,120.543,92.913,120.543,92.456 M120.645,98.72
		c10.398-11.236,20.98-22.695,32.959-32.237c-10.726,11.132-21.69,22.12-32.691,32.953C120.831,99.196,120.645,99.021,120.645,98.72
		 M121.679,127.718l1.195,1.731c-0.386-0.133-0.774-0.261-1.155-0.4C121.699,128.613,121.687,128.164,121.679,127.718
		 M128.012,151.771c-1.969-4.811-6.229-9.378-6.074-14.757C124.01,141.888,126.013,146.824,128.012,151.771 M130.534,144.434
		c-2.861-4.791-8.275-8.877-8.801-14.637c0.599,0.196,1.193,0.394,1.787,0.592l5.298,7.666c0.596,2.134,1.098,4.308,1.745,6.394
		C130.557,144.472,130.537,144.451,130.534,144.434 M130.021,127.366c-0.024-0.032-0.029-0.082-0.059-0.105
		c0.003-0.019,0.013-0.008,0.013,0c0.453,0.201,1.216,0.136,1.543,0.529C131.002,127.661,130.524,127.503,130.021,127.366
		 M138.037,154.023c-2.827-3.33-5.372-6.693-6.385-11.059L138.037,154.023z M134.216,133.364c-0.463-0.122-0.966-0.331-1.438-0.484
		c-0.332-0.666-0.663-1.323-0.985-1.994c0.489,0.143,0.949,0.312,1.437,0.453C133.557,132.014,133.876,132.703,134.216,133.364
		 M170.261,137.153c0.1-0.11,0.215-0.107,0.312-0.11c0.121,0.64,0.064,1.857-0.911,1.35c-12.412-3.442-25.076-6.617-37.237-10.471
		c0.012-0.002,0.014,0.006,0.014,0.013c12.409,3.465,25.027,6.321,37.369,10.018c0.285-0.235,0.077-0.532-0.268-0.564
		C169.776,137.431,170.028,137.334,170.261,137.153 M169.364,137.324c0.043,0.02,0.087,0.047,0.135,0.059
		c-0.052-0.011-0.101-0.023-0.142-0.034C169.357,137.343,169.363,137.332,169.364,137.324 M140.785,128.67
		c6.599,2.331,13.409,4.231,20.035,6.409c-9.309-3.409-21.411-4.22-29.335-9.153C134.595,126.838,137.669,127.76,140.785,128.67
		 M145.078,122.474c-0.017-0.236-0.105-0.459-0.252-0.647C167.499,121.085,175.348,121.722,145.078,122.474"/>
</g>
</svg>
