<?xml version="1.0" encoding="utf-8"?>
<svg version="1.2" baseProfile="tiny-ps" xmlns="http://www.w3.org/2000/svg"
	xmlns:xlink="http://www.w3.org/1999/xlink"
	viewBox="0 0 36 36" xml:space="preserve">
<title>Sight &amp; Sound Ministries, Inc.</title>
<rect fill="#CE9B50" width="36" height="36"/>
<g>
<path fill="#FFFFFF" d="M16.2,27.7c-2.3,0-4.2-0.6-5.5-1.6C9.6,25.2,9,23.8,9,22.4c0-1.9,0.8-3.7,2.4-5.1c1.4-1.3,3.4-2.3,5.4-2.6
	l0.3-0.1l-0.1-0.3c-0.2-0.4-0.4-0.8-0.4-1.2l0-0.1l-0.1,0c-0.7-0.2-1.5-0.4-2.2-0.4c-0.4,0-0.7,0-1,0.1c-1.1,0.4-1.7,1.3-1.7,2.6
	l-0.2,0.1c-0.6-0.4-0.8-0.9-0.8-1.6c0-0.7,0.3-1.3,0.8-1.8c0.6-0.6,1.4-0.9,2.4-0.9c1,0,2,0.3,2.8,0.5l0.2,0.1l0.1-0.2
	c0.6-2.2,2.7-3.1,4.4-3.1c1.2,0,2.7,0.5,2.7,2.1c0,1.5-1.6,3-4.3,3c-0.3,0-0.7,0-1-0.1l-0.4-0.1l0.2,0.4c0.3,0.6,0.7,1,1.1,1.4
	l0.2,0.2l-0.2,0c-2.6,0.4-4.6,1.3-6,2.6c-1.3,1.2-2,2.7-2,4.3c0,2.6,2.3,4.6,5,4.6c2.7,0,4.3-1,5.2-1.8c1.1-1,1.7-2.3,1.7-3.6
	c0-1.6-1-2.7-2.5-2.7c-1.3,0-2.1,0.5-2.5,0.9c-0.5,0.5-0.9,1.2-0.9,1.8c0,0.8,0.6,1.4,1.4,1.4c0.3,0,0.7-0.1,1-0.3l0.2,0.1
	c0,0.2-0.1,0.3-0.2,0.5c-0.3,0.6-1.1,0.9-1.9,0.9c-1.3,0-2.2-0.6-2.6-1.6c-0.4-1.1,0.2-2.5,1.5-3.4c1-0.7,2.3-1.2,3.6-1.7
	c0.8-0.3,1.6-0.6,2.2-0.9c1.7-0.8,2.8-2.2,3.3-3.8c0.3-0.9,0.3-1.8,0.1-2.6l0.2-0.1c0.5,0.6,0.7,1.5,0.7,2.4c0,2.1-1.4,4.1-3.8,5.2
	l-0.4,0.2l0.4,0.2c1.4,0.7,2.2,2.1,2.2,3.6c0,2.3-1.6,3.8-2.9,4.7C20.8,27.1,18.5,27.7,16.2,27.7z M17.9,12.1
	c0.6,0.2,1.2,0.3,1.7,0.3c1.7,0,2.4-1.1,2.4-1.9c0-0.7-0.6-1.2-1.5-1.2c-1.2,0-2.6,0.9-2.8,2.5l0,0.2L17.9,12.1z"/>
</g>
</svg>