<svg xmlns="http://www.w3.org/2000/svg" xmlns:xlink="http://www.w3.org/1999/xlink" version="1.2" viewBox="0 0 72 72" baseProfile="tiny-ps">
  <title>Apkudo</title>
  <g>
    <path d="M6.9,28.626c0.505,0,1.013,0.168,1.531,0.504   c0.495,0.312,0.933,0.773,1.291,1.354v-1.512h2.344v13.401H9.722v-2.256c-0.271,0.725-0.665,1.349-1.18,1.872   c-0.515,0.523-1.12,0.782-1.809,0.782c-0.732,0.01-1.451-0.278-2.077-0.821c-0.632-0.547-1.14-1.344-1.521-2.39   c-0.381-1.046-0.572-2.308-0.572-3.796s0.194-2.76,0.582-3.821s0.91-1.881,1.568-2.453C5.372,28.914,6.1,28.626,6.9,28.626   L6.9,28.626z M7.378,31.914c-0.492,0-0.913,0.183-1.264,0.543c-0.351,0.365-0.635,0.854-0.819,1.421   C5.098,34.464,4.998,35.112,5,35.764c0,1.008,0.214,1.867,0.639,2.573c0.424,0.706,0.986,1.061,1.689,1.061   c0.414,0,0.819-0.163,1.17-0.475c0.371-0.331,0.675-0.792,0.886-1.339c0.227-0.576,0.341-1.272,0.341-2.083v-1.91   c-0.311-0.489-0.675-0.902-1.08-1.219c-0.388-0.303-0.823-0.456-1.264-0.451l0,0L7.378,31.914z" fill-rule="evenodd"/>
    <path d="M20.257,28.626c0.726,0,1.434,0.274,2.056,0.806   c0.635,0.537,1.144,1.325,1.531,2.357c0.388,1.032,0.582,2.289,0.582,3.772c0,1.483-0.194,2.765-0.582,3.84   c-0.388,1.075-0.91,1.901-1.568,2.477c-0.659,0.571-1.388,0.859-2.187,0.859s-1.03-0.183-1.542-0.543   c-0.511-0.36-0.94-0.816-1.284-1.363v7.867h-2.344V28.976h2.344v2.246c0.271-0.725,0.665-1.339,1.18-1.838   c0.518-0.504,1.12-0.754,1.809-0.754l0,0L20.257,28.626z M19.669,31.991c-0.414,0-0.823,0.158-1.18,0.461   c-0.374,0.317-0.682,0.768-0.896,1.315c-0.227,0.566-0.334,1.243-0.321,2.04v1.934c0.318,0.48,0.682,0.893,1.08,1.234   c0.381,0.326,0.819,0.494,1.264,0.489c0.478,0,0.896-0.187,1.254-0.557c0.358-0.374,0.642-0.869,0.829-1.44   c0.197-0.59,0.297-1.238,0.295-1.896c0-1.008-0.211-1.853-0.635-2.544c-0.424-0.691-0.986-1.032-1.689-1.032l0,0V31.991z" fill-rule="evenodd"/>
    <polygon points="29.011,23.303 29.011,34.962 32.805,29.001 35.738,29.001    31.719,34.804 35.941,42.382 32.989,42.382 30.171,37.055 29.011,38.72 29.011,42.378 26.67,42.378 26.67,23.303  " fill-rule="evenodd"/>
    <path d="M45.674,29.015v7.977c0,1.186-0.184,2.203-0.552,3.062   c-0.361,0.845-0.879,1.531-1.498,1.973c-0.632,0.456-1.344,0.686-2.143,0.686c-0.796,0-1.528-0.23-2.16-0.686   c-0.619-0.442-1.133-1.123-1.488-1.973c-0.361-0.854-0.541-1.877-0.541-3.062v-7.977h2.35l0.02,7.368   c0,1.042,0.164,1.819,0.495,2.333s0.773,0.768,1.324,0.768s0.977-0.254,1.314-0.768s0.505-1.291,0.505-2.333v-7.368H45.674   L45.674,29.015L45.674,29.015z" fill-rule="evenodd"/>
    <path d="M57.226,23.303v19.069h-2.344v-2.251c-0.271,0.725-0.665,1.349-1.18,1.867   c-0.515,0.518-1.12,0.782-1.809,0.782c-0.732,0.01-1.451-0.278-2.077-0.821c-0.635-0.547-1.14-1.339-1.521-2.386   c-0.381-1.042-0.572-2.304-0.572-3.787c0-1.483,0.194-2.755,0.582-3.811c0.388-1.061,0.91-1.877,1.568-2.448   c0.659-0.576,1.388-0.859,2.187-0.859c0.799,0,1.013,0.168,1.531,0.504c0.495,0.312,0.933,0.773,1.291,1.349v-7.209L57.226,23.303   L57.226,23.303z M52.539,31.962c-0.492,0-0.913,0.183-1.264,0.543c-0.351,0.36-0.632,0.845-0.819,1.402   c-0.197,0.581-0.301,1.219-0.295,1.867c0,1.008,0.214,1.862,0.639,2.568c0.425,0.706,0.986,1.061,1.689,1.061   c0.414,0,0.819-0.163,1.17-0.475c0.371-0.331,0.675-0.787,0.886-1.339c0.227-0.576,0.341-1.267,0.341-2.078v-1.906   c-0.308-0.485-0.675-0.893-1.08-1.205c-0.391-0.293-0.823-0.442-1.264-0.437l0,0L52.539,31.962L52.539,31.962z" fill-rule="evenodd"/>
    <path d="M64.442,28.626c0.91,0,1.739,0.312,2.488,0.941   c0.743,0.619,1.367,1.493,1.815,2.549c0.462,1.07,0.692,2.27,0.692,3.595s-0.231,2.52-0.692,3.581   c-0.451,1.046-1.073,1.915-1.815,2.534c-0.749,0.629-1.579,0.941-2.488,0.941c-0.91,0-1.722-0.312-2.478-0.941   c-0.745-0.609-1.367-1.483-1.815-2.534c-0.455-1.061-0.682-2.256-0.682-3.581c0-1.329,0.227-2.525,0.682-3.595   c0.444-1.056,1.07-1.934,1.815-2.549C62.717,28.943,63.572,28.617,64.442,28.626L64.442,28.626z M64.442,31.89   c-0.431,0-0.856,0.154-1.234,0.451c-0.381,0.303-0.699,0.754-0.913,1.301c-0.227,0.566-0.341,1.257-0.341,2.069   c0,0.811,0.114,1.502,0.341,2.069c0.214,0.547,0.528,0.994,0.913,1.286c0.773,0.581,1.696,0.581,2.471,0   c0.385-0.297,0.702-0.744,0.92-1.286c0.234-0.566,0.351-1.257,0.351-2.069c0-0.811-0.117-1.502-0.351-2.069   c-0.217-0.547-0.538-0.994-0.92-1.301c-0.378-0.297-0.802-0.456-1.234-0.451l0,0H64.442z" fill-rule="evenodd"/>
  </g>
</svg>