<?xml version="1.0" encoding="utf-8"?>
<!-- Generator: Adobe Illustrator 26.0.3, SVG Export Plug-In . SVG Version: 6.00 Build 0)  -->
<svg version="1.2" baseProfile="tiny-ps" id="Layer_1" xmlns="http://www.w3.org/2000/svg" xmlns:xlink="http://www.w3.org/1999/xlink" viewBox="0 0 1080 1080" xml:space="preserve">
	<title>Bank of Georgia</title>
<g>
	<g id="Layer_1_00000021799855821686678730000018183051119646371989_">
		<rect y="0" fill="#FF671D" width="1080" height="1080"/>
		<g>
			<path fill="#FFFFFF" d="M862.6,364.8c-5.2-7.7-76.8-113.6-200.8-113.6h-265c-86.1,0-156.1,70.1-156.1,156.2V699
				c0,8.8-13.7,3.6-13.7,3.6c-2.9-1.2-6.5-2.2-10.8-2.2c-14.2,0-25.8,11.6-25.8,25.8c0,30.4,47.7,43.3,66.7,43.3s11.4-0.4,16.6-1.3
				c28.6,36.6,73.1,60.3,123.1,60.3h265c86.1,0,156.1-70.1,156.1-156.2V512.5c0,0,32.4-40.9,35.9-45.3l0,0c0,0,26.2-35.7,32.7-49.1
				C892.2,406.4,886.5,400.2,862.6,364.8L862.6,364.8L862.6,364.8z"/>
			<path fill="#FF671D" d="M706.8,662.2c5.4,1.7,11.6,2.8,18.8,2.8c28.2,0,41.5-11.2,41.5-24.6s-21.1-15.6-23.3-29.3
				c-2.8-17.2-1-93.2,28.5-135.2l19.7,8.9c0,0,5.7,3.2,12.4,2.9c4.3-0.2,8.9-2.1,13.4-6.9c11.1-11.9,41.7-50.7,51.6-71.1
				c2.4-5-39.1-56.9-62.3-75.7c-15.9-12.7-36.1-20.3-58.1-20.3c-40.6,0-75.1,26-87.9,62.2c-25.9,18.5-77.7,48.3-131.9,62.6
				c-63.6,16.8-129.4,1.1-174.1,3.3c-57.5,2.9-91.8,45.1-90.4,93.9c1.4,49.6,35.6,94.8,35.6,141.3s-29.7,52.6-50.2,52.6
				s-26.1-10-33.5-10s-6.5,2.5-6.5,6.5c0,12.3,30.2,24.1,47.4,24.1c45.9,0,65-32.7,65-32.7s11.6,33.9,56.9,33.9s51.7-17.3,51.7-31.6
				s-7.1-16.7-12.2-23.5c-7.2-9.8-6.9-21.7-6.9-21.7s7.8,1.3,19.5,1.3c26.2,0,34.3-10.6,34.3-21.1s-15.7-12.5-15.7-34.6
				s9.2-22.2,17.4-22.2s42.3,3.2,82.7,7.4c13.5,1.4,47.2,14.4,47.2,66.8V691c0,31.9,12.9,71.4,69.3,71.4s59.9-21.4,59.9-36.9
				s-8.9-14.5-13.2-20.5c-12.8-17.9-6.5-42.8-6.5-42.8h0.2H706.8z"/>
			<path fill="#FFFFFF" d="M799.8,433.5c-3.7,0-6.7,3-6.7,6.6s3,6.7,6.7,6.7s6.6-3,6.6-6.7S803.4,433.5,799.8,433.5L799.8,433.5z"/>
			<path fill="#FFFFFF" d="M823,414c-3.3,0-6,2.7-6,6s2.7,6,6,6s6-2.7,6-6S826.3,414,823,414L823,414z"/>
			<path fill="#FFFFFF" d="M833.9,391.7c-2.8,0-5,2.2-5,5s2.2,5,5,5s5-2.2,5-5S836.7,391.7,833.9,391.7L833.9,391.7z"/>
			<path fill="#FFFFFF" d="M643.3,423.2c4,0,7.2-3.2,7.2-7.2s-3.2-7.2-7.2-7.2s-7.2,3.2-7.2,7.2S639.3,423.2,643.3,423.2
				L643.3,423.2z"/>
			<path fill="#FFFFFF" d="M670.9,597.3c-3.9,0-7.2,3.2-7.2,7.2s3.2,7.2,7.2,7.2s7.2-3.2,7.2-7.2S674.9,597.3,670.9,597.3
				L670.9,597.3z"/>
			<path fill="#FFFFFF" d="M713.8,604.5c-4,0-7.2,3.2-7.2,7.2s3.2,7.2,7.2,7.2s7.2-3.2,7.2-7.2S717.8,604.5,713.8,604.5L713.8,604.5
				z"/>
			<path fill="#FFFFFF" d="M676.9,531.9c-4,0-7.2,3.2-7.2,7.2s3.2,7.2,7.2,7.2s7.2-3.2,7.2-7.2S680.8,531.9,676.9,531.9L676.9,531.9
				z"/>
			<path fill="#FFFFFF" d="M701.4,483.2c4,0,7.2-3.2,7.2-7.2s-3.2-7.2-7.2-7.2s-7.2,3.2-7.2,7.2S697.4,483.2,701.4,483.2
				L701.4,483.2z"/>
			<path fill="#FFFFFF" d="M589.2,454.1c4,0,7.2-3.2,7.2-7.2s-3.2-7.2-7.2-7.2s-7.2,3.2-7.2,7.2S585.2,454.1,589.2,454.1
				L589.2,454.1z"/>
			<path fill="#FFFFFF" d="M629.4,582.5c-4,0-7.2,3.2-7.2,7.2s3.2,7.2,7.2,7.2s7.2-3.2,7.2-7.2S633.4,582.5,629.4,582.5L629.4,582.5
				z"/>
			<path fill="#FFFFFF" d="M609.6,489.5c3.9,0,7.2-3.2,7.2-7.2s-3.2-7.2-7.2-7.2s-7.2,3.2-7.2,7.2S605.6,489.5,609.6,489.5
				L609.6,489.5z"/>
			<path fill="#FFFFFF" d="M564.1,530.4c-3.9,0-7.2,3.2-7.2,7.2s3.2,7.2,7.2,7.2s7.2-3.2,7.2-7.2S568.1,530.4,564.1,530.4
				L564.1,530.4z"/>
			<path fill="#FFFFFF" d="M638.5,522.7c4,0,7.2-3.2,7.2-7.2s-3.2-7.2-7.2-7.2s-7.2,3.2-7.2,7.2S634.5,522.7,638.5,522.7
				L638.5,522.7z"/>
			<path fill="#FFFFFF" d="M524.9,458.3c-4,0-7.2,3.2-7.2,7.3s3.2,7.2,7.2,7.2s7.2-3.2,7.2-7.2S528.9,458.3,524.9,458.3L524.9,458.3
				z"/>
			<path fill="#FFFFFF" d="M540.6,495.6c-4,0-7.2,3.2-7.2,7.2s3.2,7.2,7.2,7.2s7.2-3.2,7.2-7.2S544.6,495.6,540.6,495.6L540.6,495.6
				z"/>
			<path fill="#FFFFFF" d="M593.2,558.3c-4,0-7.2,3.3-7.2,7.2s3.2,7.2,7.2,7.2s7.2-3.2,7.2-7.2S597.1,558.3,593.2,558.3L593.2,558.3
				z"/>
			<path fill="#FFFFFF" d="M667.2,456.6c4,0,7.2-3.2,7.2-7.2s-3.2-7.2-7.2-7.2s-7.2,3.2-7.2,7.2S663.2,456.6,667.2,456.6
				L667.2,456.6z"/>
			<path fill="#FFFFFF" d="M720.1,545.6c-4,0-7.2,3.2-7.2,7.2s3.2,7.2,7.2,7.2s7.2-3.2,7.2-7.2S724.1,545.6,720.1,545.6L720.1,545.6
				z"/>
			<path fill="#FFFFFF" d="M738.1,486.9c-4,0-7.2,3.2-7.2,7.2s3.2,7.2,7.2,7.2s7.2-3.2,7.2-7.2S742.1,486.9,738.1,486.9L738.1,486.9
				z"/>
			<path fill="#FFFFFF" d="M733.5,427.8c-4,0-7.2,3.2-7.2,7.2s3.2,7.2,7.2,7.2s7.2-3.2,7.2-7.2S737.5,427.8,733.5,427.8L733.5,427.8
				z"/>
			<path fill="#FFFFFF" d="M767.6,438.9c-4,0-7.2,3.2-7.2,7.2s3.2,7.2,7.2,7.2s7.2-3.2,7.2-7.2S771.6,438.9,767.6,438.9L767.6,438.9
				z"/>
			<path fill="#FFFFFF" d="M707.8,405.6c-4,0-7.2,3.2-7.2,7.2s3.2,7.2,7.2,7.2s7.2-3.2,7.2-7.2S711.8,405.6,707.8,405.6L707.8,405.6
				z"/>
			<path fill="#FFFFFF" d="M693.6,378.5c-3.9,0-7.1,3.2-7.1,7.2s3.2,7.2,7.1,7.2s7.3-3.2,7.3-7.2S697.6,378.5,693.6,378.5
				L693.6,378.5z"/>
			<path fill="#FFFFFF" d="M723.5,378.5c-4,0-7.2,3.2-7.2,7.2s3.2,7.2,7.2,7.2s7.2-3.2,7.2-7.2S727.5,378.5,723.5,378.5L723.5,378.5
				z"/>
			<path fill="#FFFFFF" d="M689.5,358.8c0-3.3,2.7-6,6-6s6.1,2.7,6.1,6s-2.7,6.1-6.1,6.1S689.5,362.2,689.5,358.8L689.5,358.8z"/>
			<path fill="#FFFFFF" d="M707.3,336.9c0-2.4,2-4.5,4.5-4.5s4.5,2.1,4.5,4.5s-2,4.6-4.5,4.6S707.3,339.5,707.3,336.9L707.3,336.9z"
				/>
			<path fill="#FFFFFF" d="M730.5,326.6c0-2.2,1.8-4,4-4s4,1.8,4,4s-1.7,4-4,4S730.5,328.9,730.5,326.6L730.5,326.6z"/>
			<path fill="#FFFFFF" d="M829.3,376.2c0-2,1.6-3.6,3.6-3.6s3.7,1.6,3.7,3.6s-1.7,3.6-3.7,3.6S829.3,378.2,829.3,376.2L829.3,376.2
				z"/>
			<path fill="#FFFFFF" d="M824.2,448.1c0-2.1,1.7-4,3.8-4.1s4,1.6,4.1,3.8c0.1,2.2-1.6,4-3.8,4.1
				C826.1,451.9,824.3,450.3,824.2,448.1L824.2,448.1z"/>
			<path fill="#FFFFFF" d="M834.4,434.3c-0.1-2.2,1.6-4,3.8-4.1s4,1.6,4.1,3.7c0,2.2-1.5,4-3.8,4.1
				C836.4,438.1,834.5,436.4,834.4,434.3L834.4,434.3z"/>
			<path fill="#FFFFFF" d="M813.4,461.9c-0.1-2.2,1.6-4,3.7-4.1c2.2-0.1,4,1.6,4.1,3.7c0,2.2-1.6,4-3.8,4.1
				C815.3,465.7,813.5,464,813.4,461.9L813.4,461.9z"/>
			<path fill="#FFFFFF" d="M801.2,474.8c-0.1-2.2,1.6-4,3.7-4.1c2.2-0.1,4,1.6,4.1,3.7c0,2.2-1.6,4-3.8,4.1
				C803.1,478.6,801.3,476.9,801.2,474.8L801.2,474.8L801.2,474.8z"/>
			<path fill="#FFFFFF" d="M843.7,420.4c0-2.2,1.6-4,3.7-4.1c2.2-0.1,4,1.6,4.1,3.8c0.1,2.2-1.6,4-3.7,4.1
				C845.6,424.3,843.8,422.6,843.7,420.4L843.7,420.4z"/>
			<path fill="#FFFFFF" d="M851,408.3c-0.1-2.2,1.6-4,3.7-4.1c2.2-0.1,4,1.6,4.1,3.8c0.1,2.2-1.5,4-3.7,4.1
				C852.9,412.1,851.1,410.5,851,408.3L851,408.3L851,408.3z"/>
			<path fill="#FFFFFF" d="M402,712.2c0,0-26.3-45.4-8.1-92.2c20.1-51.6,77.9-44.8,77.9-44.8c-9.4-4.2-19.7-6.4-30.5-5.9
				c-40.1,1.5-71.3,38.2-69.6,81.8C372.6,676.4,384.4,698.4,402,712.2L402,712.2L402,712.2z"/>
			<path fill="#FFFFFF" d="M304.8,567.3c-11.3-11.3-18.3-26.9-18.3-44.2c0-34.5,28-60.7,62.5-62.5c35.5-1.9,100.7,8.7,142.3,3.3
				c14.4,64.2,61.7,109.5,97.8,138.2c-42.9-19.1-85.9-69.9-135.6-97.4c-52-28.8-104-33.1-131.3-7.9
				C298.6,518.5,300.5,549.1,304.8,567.3L304.8,567.3L304.8,567.3z"/>
			<path fill="#FFFFFF" d="M451.8,632.1c3.2,18.5-30.2,24.4-30.2,24.4c30.3,5.4,40.6-10.7,40.6-10.7
				C460.3,643.4,451.8,632.1,451.8,632.1L451.8,632.1z"/>
			<path fill="#FFFFFF" d="M693.6,642v-0.2c0,0-19.7,28.1-6.1,79.2c-8.2,8-23.2,14.5-35.2,17.9c0,0,45.8,5.9,60.1-18.5
				c-27.7-21.4-19.4-74.7-18.8-78.3l0,0V642z"/>
			<path fill="#FFFFFF" d="M785,349.4c-17.9-3.3-34.5,6.1-37.2,20.9c-2.7,14.9,9.5,29.5,27.4,32.8c17.8,3.2,34.5-6.1,37.2-21
				C815.1,367.3,802.8,352.6,785,349.4L785,349.4L785,349.4z M807.4,380.9c-1.9,10.5-13.7,17.2-26.4,14.9
				c-12.7-2.3-21.3-12.7-19.4-23.2c1.9-10.5,13.7-17.2,26.4-14.9C800.6,360,809.4,370.4,807.4,380.9L807.4,380.9z"/>
			<path fill="#FFFFFF" d="M783.4,376.3c1.1-5.8,7.6-9.5,14.6-8.2s11.8,7.1,10.8,12.8c-1.1,5.8-7.6,9.5-14.6,8.2
				S782.4,382.1,783.4,376.3L783.4,376.3L783.4,376.3z"/>
			<path fill="#FFFFFF" d="M746.1,616.7L746.1,616.7c11,20.4-24.2,27.9-24.2,27.9c24.4,4.1,37.9-10.6,37.9-17.1
				C755.1,624,749.4,621.3,746.1,616.7L746.1,616.7L746.1,616.7z"/>
			<path fill="#FFFFFF" d="M531.4,551c0,0,4.6,5.5,12.4,13.1c7.7,7.7,18.7,17.3,30.4,26s24.2,16.4,33.8,21.5c4.8,2.6,9,4.6,11.9,5.9
				c2.9,1.3,4.6,2.1,4.6,2.1s-1.7-0.7-4.7-1.9s-7.2-2.9-12.1-5.3c-10-4.7-22.9-11.8-35.1-20c-12.2-8.2-23.8-17.4-32-24.8
				c-8.2-7.4-13.3-12.9-13.3-12.9c-1-1.1-1-2.9,0.2-3.9c1.1-1,2.8-1,3.9,0.1C531.4,550.9,531.4,550.9,531.4,551L531.4,551L531.4,551
				z"/>
			<path fill="#FFFFFF" d="M819.5,365.6c-8.9-15.5-25.6-26-44.7-26s-32.9,8.7-42.2,21.9c-2.9,3.5-8.2,4.1-11.8,1.2
				c-3.5-3-4-8.2-1.1-11.8c10.9-12.2,27.2-20.1,45.1-20.1S810.4,345.1,819.5,365.6L819.5,365.6z"/>
			<path fill="#FFFFFF" d="M763.7,471.8c-18.4-0.6-42.1-9.6-64.1-25.9c-18.6-13.7-32.5-30-40-45.2c-1.5-2.6-0.6-6,2-7.6
				c2.6-1.5,6.2-0.7,7.5,2c8,16.1,20.1,33.8,37.9,48.5C725.6,458.8,745.6,468.4,763.7,471.8L763.7,471.8L763.7,471.8z"/>
			<path fill="#FFFFFF" d="M739.2,522c-33.2-2.1-71.3-19.4-100.5-49.5c-13.8-14.1-24.2-29.2-31.3-44.3c-1.4-2.7-0.5-6,2.2-7.5
				s6.2-0.6,7.5,2.2c8.6,18.4,19.4,37.7,37.1,55.4c25.4,25.4,56.3,40.4,85.1,43.8l0,0L739.2,522z"/>
			<path fill="#FFFFFF" d="M552.5,446.7c2.9-1,5.9,0.6,7,3.4c14.1,35.2,21.8,49.6,48.8,78.3c36.5,38.8,89.6,52.7,119,53.3
				c-24.9,2.2-86.4-9.4-129.2-53.7c-24-24.9-41.5-51.3-49.1-74.3C548,450.8,549.5,447.7,552.5,446.7L552.5,446.7L552.5,446.7z"/>
			<path fill="#FFFFFF" d="M747.5,404c7.2,4.7,17.8,9.4,31.9,9.9c29.9,0.9,40.1-22.8,41.4-32c0.4,6.7-8.5,39.5-45.2,40
				c-14.1,0.2-25.2-3.1-33-7.9c-2.7-1.4-3.9-4.7-2.5-7.5S745,402.3,747.5,404L747.5,404L747.5,404z"/>
			<path fill="#FFFFFF" d="M822,414c-3.3,0-6,2.7-6,6s2.7,6,6,6s6-2.7,6-6S825.3,414,822,414L822,414z"/>
			<path fill="#FFFFFF" d="M832.8,391.6c-2.7,0-5,2.2-5,5s2.3,5,5,5s5-2.2,5-5S835.6,391.6,832.8,391.6L832.8,391.6z"/>
			<path fill="#FFFFFF" d="M828.3,376.2c0-2,1.6-3.6,3.6-3.6s3.6,1.6,3.6,3.6s-1.6,3.6-3.6,3.6S828.3,378.2,828.3,376.2L828.3,376.2
				z"/>
			<path fill="#FFFFFF" d="M823.2,448.1c0-2.1,1.6-4,3.8-4.1c2.2,0,4,1.6,4.1,3.8c0.1,2.2-1.6,4-3.7,4.1
				C825.2,451.9,823.4,450.3,823.2,448.1L823.2,448.1L823.2,448.1z"/>
			<path fill="#FFFFFF" d="M833.4,434.2c-0.1-2.2,1.6-4,3.7-4.1c2.2-0.1,4,1.6,4.1,3.7c0,2.2-1.6,4-3.7,4.1
				C835.4,438,833.5,436.3,833.4,434.2L833.4,434.2z"/>
			<path fill="#FFFFFF" d="M812.4,461.9c-0.1-2.2,1.6-4,3.7-4.1c2.1-0.1,3.9,1.6,4.1,3.7c0,2.2-1.5,4-3.7,4c-2.1,0.1-4-1.6-4.1-3.7
				l0,0V461.9z"/>
			<path fill="#FFFFFF" d="M842.7,420.4c0-2.2,1.6-4,3.8-4.1c2.1-0.1,4,1.6,4,3.8c0.1,2.2-1.5,4-3.7,4.1
				C844.6,424.2,842.8,422.6,842.7,420.4L842.7,420.4z"/>
			<path fill="#FFFFFF" d="M849.9,408.3c-0.1-2.2,1.6-4,3.7-4.1c2.2-0.1,4,1.6,4.1,3.8c0.1,2.2-1.5,4-3.7,4.1
				C851.9,412.1,850,410.5,849.9,408.3L849.9,408.3z"/>
		</g>
	</g>
</g>
</svg>