<?xml version="1.0" encoding="UTF-8" standalone="yes"?>
<svg version="1.2" viewBox="0 0 792 792" xml:space="preserve" baseProfile="tiny-ps" xmlns="http://www.w3.org/2000/svg">
  <title>Chubb</title>
  <g>
    <g>
      <g id="XMLID_10_">
        <path id="XMLID_11_" d="M718.9,420.3h-77.3v-18.4h77.3V420.3z M641.7,371.7H719v17.9h-77.3V371.7z&#xA;&#x9;&#x9;&#x9;&#x9; M713.2,432.8c13.7,0,20-5.7,20-15.5v-8.6c0-2.7-0.9-4-2.9-5.7l-8.8-7.6l8.8-7.6c2-1.7,2.9-2.9,2.9-5.7v-7.6&#xA;&#x9;&#x9;&#x9;&#x9;c0-9.8-6.3-15.5-20-15.5h-85.4v73.6h85.4V432.8z M569.6,420.3h-77.3v-18.4h77.3V420.3z M492.4,371.7h77.3v17.9h-77.3L492.4,371.7&#xA;&#x9;&#x9;&#x9;&#x9;L492.4,371.7z M563.9,432.8c13.7,0,20-5.7,20-15.5v-8.6c0-2.7-0.9-4-2.9-5.7l-8.8-7.6l8.8-7.6c2-1.7,2.9-2.9,2.9-5.7v-7.6&#xA;&#x9;&#x9;&#x9;&#x9;c0-9.8-6.3-15.5-20-15.5h-85.4v73.6h85.4V432.8z M416.8,359.2v60.4h-73.1v-60.4h-13.9V416c0,10.4,6.3,16.8,18.8,16.8h63.2&#xA;&#x9;&#x9;&#x9;&#x9;c12.5,0,18.8-6.4,18.8-16.8v-56.8H416.8z M194,389.3v-30.1h-13.9v73.6H194v-30.6h74.1v30.6H282v-73.6h-13.9v30.1H194z&#xA;&#x9;&#x9;&#x9;&#x9; M139.7,372.3v-13.1H58.2c-12.5,0-18.8,6.4-18.8,16.8v40c0,10.4,6.3,16.8,18.8,16.8h81.5v-13.1H53.6v-47.3h86.1V372.3z" fill="#1B449C"/>
      </g>
    </g>
    <g>
      <path d="M761.5,359.9c1.2,0.5,2.3,1.2,3.2,2.1s1.6,2,2.1,3.2s0.8,2.5,0.8,3.9s-0.3,2.7-0.8,4&#xA;&#x9;&#x9;&#x9;c-0.5,1.2-1.2,2.3-2.1,3.2c-0.9,0.9-2,1.6-3.2,2.1s-2.5,0.8-4,0.8s-2.7-0.3-4-0.8c-1.2-0.5-2.3-1.2-3.2-2.1s-1.6-2-2.1-3.2&#xA;&#x9;&#x9;&#x9;s-0.8-2.5-0.8-4c0-1.4,0.3-2.7,0.8-3.9c0.5-1.2,1.2-2.3,2.1-3.2c0.9-0.9,2-1.6,3.2-2.1s2.5-0.8,4-0.8S760.3,359.4,761.5,359.9z&#xA;&#x9;&#x9;&#x9; M754.2,361.3c-1,0.4-1.9,1.1-2.7,1.8c-0.8,0.8-1.3,1.7-1.8,2.7c-0.4,1-0.6,2.2-0.6,3.4c0,1.2,0.2,2.3,0.6,3.4c0.4,1,1,2,1.8,2.7&#xA;&#x9;&#x9;&#x9;c0.8,0.8,1.6,1.4,2.7,1.8c1,0.4,2.2,0.7,3.4,0.7s2.3-0.2,3.4-0.7c1-0.4,1.9-1.1,2.7-1.8c0.8-0.8,1.3-1.7,1.8-2.7&#xA;&#x9;&#x9;&#x9;c0.4-1,0.6-2.2,0.6-3.4c0-1.2-0.2-2.3-0.6-3.4c-0.4-1-1-2-1.8-2.7c-0.8-0.8-1.6-1.4-2.7-1.8c-1-0.4-2.2-0.7-3.4-0.7&#xA;&#x9;&#x9;&#x9;C756.3,360.6,755.2,360.8,754.2,361.3z M753.9,375v-11.6h4.4c1.3,0,2.3,0.3,2.9,0.8s0.9,1.3,0.9,2.4c0,0.5-0.1,0.9-0.2,1.3&#xA;&#x9;&#x9;&#x9;c-0.2,0.4-0.4,0.7-0.6,1c-0.3,0.3-0.6,0.5-0.9,0.6c-0.4,0.2-0.7,0.3-1.1,0.3l3.5,5.2H761l-3.3-5.2h-2.4v5.2L753.9,375L753.9,375z&#xA;&#x9;&#x9;&#x9; M758.5,368.6c0.4,0,0.8-0.1,1.1-0.2s0.6-0.3,0.8-0.6c0.2-0.3,0.3-0.7,0.3-1.1s-0.1-0.7-0.2-1c-0.2-0.3-0.4-0.5-0.6-0.6&#xA;&#x9;&#x9;&#x9;c-0.3-0.2-0.6-0.3-0.9-0.3c-0.3-0.1-0.7-0.1-1-0.1h-2.6v4h1.9C757.7,368.6,758.1,368.6,758.5,368.6z" fill="#1B449C"/>
    </g>
  </g>
</svg>