<svg xmlns="http://www.w3.org/2000/svg" xmlns:xlink="http://www.w3.org/1999/xlink" version="1.2" viewBox="0 0 1080 1080" baseProfile="tiny-ps">
  <title>2ollies_gsc_rgb_ylw-01</title>
  <path d="M1024.6,1174.7H55.4c-33.4,0-60.8-27.4-60.8-60.8V7.2c0-33.4,27.4-60.8,60.8-60.8h969.3  c33.4,0,60.8,27.4,60.8,60.8v1106.7C1085.4,1147.4,1058.1,1174.7,1024.6,1174.7z" fill="#FFFF00"/>
  <g>
    <path d="M854.5,362.9   c-8.5,24.5-22.1,37.7-25.5,57.7l-22,2.3l10.4-56.9L854.5,362.9z" stroke-linejoin="round" stroke-linecap="round" stroke-width="14.4637" stroke="#000000"/>
    <path d="M296.9,412.2l57-5.1   c-7.8,48.3-12.7,92.7-14.6,133.2l59.4-2.9l3.2,48.8c-30.9,0.1-69.3,3.7-115.3,10.8L296.9,412.2z" stroke-linejoin="round" stroke-linecap="round" stroke-width="15.0137" stroke="#000000"/>
    <path d="M423,418.3l56.1-11.4   c-2.4,48.8-2.4,93.5,0.2,134l58.7-9.5l8.6,48.2c-30.7,3.5-68.5,11.3-113.5,23.4L423,418.3z" stroke-linejoin="round" stroke-linecap="round" stroke-width="15.0137" stroke="#000000"/>
    <path d="M566.7,449.3l28.5-5.2l28.2-5.2   c-2.3,35.3-2.3,35.4-2.1,65.8c0.5,30.4,2.2,58.2,5.3,83.6l-25.9,6.8l-25.9,6.5L566.7,449.3z" stroke-linejoin="round" stroke-linecap="round" stroke-width="15.0137" stroke="#000000"/>
    <path d="M602.8,373.3   c10,1.1,17.4,5.6,22.2,13.6c4.1,6.9,4.6,14.1,1.5,21.8c-1.6,4.2-3.8,7.7-6.7,10.5c-2.8,2.9-6.3,5.3-10.4,7.3   c-7,3.4-14.7,4.7-23.1,3.7c-10-1.1-17.5-5.7-22.3-13.7c-4.2-6.9-4.7-14.2-1.6-21.9c1.4-3.5,3.6-6.8,6.6-9.9c2.9-3,6.5-5.5,10.6-7.5   C586.9,373.7,594.6,372.4,602.8,373.3z" stroke-linejoin="round" stroke-linecap="round" stroke-width="5.0023" stroke="#000000"/>
    <path d="M751,458.6   c-10.6-0.4-20.4-0.8-29.6-1c-1.7,5.6-2.9,9.8-3.6,12.7l-2.6,12.5l23.6,0.1l23.7-0.2l-1,18.5l-0.4,18.6c-15.1,0-25.1,0-30-0.1   c-8.1-0.1-15.3,0-21.8,0.1l-4.5,24.4l31.6,0.3l31.6,0.3l-0.4,24.7l-0.7,24.6c-16.2-1.5-34.5-2.2-55-2.1c-20.6-0.2-43.3,0.5-68.1,2   c1.4-10.4,3.6-25.9,6.6-46.4l6.4-46.8c6-40.9,10.5-71.8,13.6-92.7l56.3,2l56.3,2l-0.3,24.3l-0.3,24.7   C771.6,459.9,761.1,459.2,751,458.6z" stroke-linejoin="round" stroke-linecap="round" stroke-width="15.2751" stroke="#000000"/>
    <path d="M916.1,460.6c15.7-17.1,38.8-5.7,58.3,1.2   c1.2,0.4,3.3,1.5,3.9,0.7l14.1-39.7c0,0-97.9-54-134,16.9c-17.1,42.6,15.8,66.4,32.7,74.5c15.2,7.2,32.9,25.7,24.3,37.5   c-9.3,12.9-49.7-9-61.6-28.9c-0.7-1.1-18.7,33.1-18,39.3c0.4,5.9,12.6,15.3,12.6,15.3c21.7,17.2,50.9,33.8,79.2,31   c61.7-6.2,64.3-74.1,37.1-94C937.4,494.1,901.4,481.9,916.1,460.6z" stroke-linejoin="round" stroke-width="15.1993" stroke="#000000"/>
    <path d="M175.8,405.5c8.4,0,16.4,1.2,24.1,3.6   c7.6,2.4,14.7,5.8,21.2,10.2c6.5,4.4,12.4,9.6,17.8,15.8c5.3,6.2,9.8,13,13.6,20.5c3.7,7.5,6.6,15.5,8.7,24.1   c2,8.6,3.1,17.6,3.1,26.9c0,9.2-1,18-3.1,26.5s-4.9,16.4-8.7,23.8c-3.7,7.4-8.3,14.1-13.6,20.1c-5.3,6.1-11.2,11.2-17.8,15.5   c-6.5,4.3-13.6,7.6-21.2,10c-7.6,2.4-15.7,3.5-24.1,3.5c-7.9,0-15.6-1.2-23-3.5c-7.4-2.4-14.2-5.7-20.6-10   c-6.4-4.3-12.1-9.4-17.4-15.5c-5.2-6-9.7-12.8-13.4-20.1c-3.7-7.4-6.6-15.3-8.6-23.7c-2-8.5-3.1-17.3-3.1-26.6   c0-9.3,1-18.2,3.1-26.9c2-8.6,4.9-16.7,8.6-24.1c3.7-7.5,8.2-14.3,13.4-20.5c5.2-6.2,11-11.5,17.4-15.8c6.4-4.4,13.2-7.8,20.6-10.2   C160.2,406.7,167.8,405.5,175.8,405.5z M184.3,530.7c5.2,0,10-1.2,14.3-3.5c4.4-2.4,8.2-5.5,11.4-9.5s5.7-8.5,7.5-13.7   s2.7-10.6,2.7-16.4c0-6.3-0.9-12.1-2.7-17.3c-1.8-5.2-4.3-9.8-7.5-13.5c-3.2-3.8-7-6.7-11.4-8.8c-4.4-2.1-9.2-3.2-14.3-3.2   c-4.7,0-9.2,1.1-13.3,3.2s-7.8,5-10.8,8.8c-3.1,3.8-5.5,8.3-7.3,13.5c-1.8,5.3-2.7,11-2.7,17.3c0,5.7,0.9,11.2,2.7,16.4   c1.8,5.2,4.2,9.8,7.3,13.7c3.1,4,6.7,7.1,10.8,9.5C175.1,529.5,179.6,530.7,184.3,530.7z" stroke-linejoin="round" stroke-width="16.4548" stroke="#000000"/>
    <path d="M851.8,360.4c-8.4,24.3-22.1,37.4-25.5,57.2l-22,2.2l10.3-56.5L851.8,360.4z" fill="#FF0000"/>
    <path d="M294.4,410.2l57-5c-7.8,47.8-12.6,91.9-14.5,132.1l59.4-2.9l3.2,48.4c-30.9,0-69.3,3.6-115.3,10.6   L294.4,410.2z" fill="#FF0000"/>
    <path d="M420.3,416.6l56.1-11.3c-2.5,48.4-2.4,92.7,0.1,132.9l58.7-9.4l8.5,47.8   c-30.7,3.4-68.5,11.2-113.5,23.3L420.3,416.6z" fill="#FF0000"/>
    <g>
      <path d="M601,374.5c9.3,0.7,16,4.7,20.3,11.8c3.7,6.1,4,12.6,0.9,19.7c-1.6,3.8-3.8,7-6.5,9.6    s-6,4.9-9.9,6.8c-6.6,3.3-13.8,4.5-21.5,3.8c-9.3-0.8-16.1-4.7-20.4-11.9c-3.7-6.1-4-12.7-0.9-19.7c1.4-3.1,3.5-6.2,6.4-9.1    c2.8-2.8,6.1-5.1,10-7C586.3,375.2,593.5,373.9,601,374.5z" fill="#FF0000"/>
      <path d="M564.1,447.6l28.5-5.2l28.2-5.2c-2.3,35.1-2.4,34.8-2.1,64.9c0.5,30.1,2.2,57.7,5.2,82.8l-25.9,6.8    l-25.9,6.4L564.1,447.6z" fill="#FF0000"/>
    </g>
    <path d="M748.9,456c-10.6-0.5-20.4-0.8-29.6-1.1c-1.7,5.6-2.9,9.8-3.6,12.6l-2.6,12.4l23.6,0.2l23.7-0.2   l-0.9,18.3l-0.3,18.4c-15.1,0-25.1-0.1-30-0.1c-8.1-0.1-15.3-0.1-21.7,0.1l-4.4,24.2l31.6,0.4l31.6,0.3L766,566l-0.6,24.4   c-16.2-1.5-34.5-2.2-55-2.2c-20.6-0.2-43.3,0.5-68.1,1.9c1.4-10.3,3.6-25.6,6.6-46l6.3-46.4c5.9-40.5,10.4-71.2,13.5-92l56.3,2   l56.3,2l-0.3,24.1l-0.3,24.4C769.5,457.4,759,456.7,748.9,456z" fill="#FF0000"/>
    <path d="M914.4,456.9c15.7-17.1,38.8-5.7,58.3,1.2c1.2,0.4,3.3,1.5,3.9,0.7l14.1-39.7c0,0-97.9-54-134,16.9   c-17.1,42.6,15.8,66.4,32.7,74.5c15.2,7.3,32.9,25.7,24.3,37.5c-9.3,12.9-49.7-9-61.6-28.9c-0.7-1.1-18.7,33.1-18,39.3   c0.4,5.9,12.7,15.3,12.7,15.3c21.7,17.2,50.9,33.8,79.2,31c61.7-6.2,66.4-74.7,39-93.1C936.8,492.4,899.7,478.3,914.4,456.9z" fill="#FF0000"/>
    <path d="M174.2,401.7c8.5,0,16.6,1.2,24.2,3.6c7.7,2.4,14.8,5.8,21.4,10.2c6.6,4.4,12.5,9.7,17.9,15.9   c5.4,6.2,9.9,13,13.7,20.5s6.7,15.5,8.7,24.2c2.1,8.7,3.1,17.6,3.1,26.9c0,9.2-1,18.1-3.1,26.6s-5,16.5-8.7,23.8   c-3.8,7.4-8.3,14.1-13.7,20.2c-5.4,6.1-11.3,11.2-17.9,15.5c-6.6,4.3-13.7,7.6-21.4,10s-15.8,3.6-24.2,3.6c-8,0-15.7-1.2-23.1-3.6   c-7.4-2.4-14.3-5.7-20.8-10c-6.4-4.3-12.2-9.5-17.5-15.5c-5.2-6.1-9.7-12.8-13.5-20.2c-3.7-7.4-6.6-15.3-8.7-23.8   s-3.1-17.4-3.1-26.7s1-18.3,3.1-26.9c2.1-8.7,5-16.7,8.7-24.2s8.2-14.3,13.5-20.5c5.2-6.2,11.1-11.5,17.5-15.9   c6.4-4.4,13.3-7.8,20.8-10.2C158.5,402.9,166.2,401.7,174.2,401.7z M182.8,527.2c5.2,0,10-1.2,14.4-3.5c4.4-2.4,8.2-5.5,11.5-9.5   c3.2-4,5.7-8.6,7.6-13.7c1.8-5.2,2.7-10.6,2.7-16.4c0-6.3-0.9-12.1-2.7-17.3c-1.8-5.3-4.3-9.8-7.6-13.5c-3.2-3.8-7-6.7-11.5-8.8   c-4.4-2.1-9.2-3.2-14.4-3.2c-4.8,0-9.2,1.1-13.4,3.2s-7.8,5-10.9,8.8c-3.1,3.8-5.6,8.3-7.3,13.5c-1.8,5.3-2.7,11-2.7,17.3   c0,5.7,0.9,11.2,2.7,16.4c1.8,5.2,4.2,9.8,7.3,13.7c3.1,4,6.7,7.1,10.9,9.5C173.6,526,178.1,527.2,182.8,527.2z" fill="#FF0000"/>
    <path d="M916.7,719.6H163.2c-18.7,0-34-18.2-34-40.5l0,0c0-22.3,15.3-40.5,34-40.5h753.5c37.2,0,34,40.5,34,40.5   C950.7,701.4,935.4,719.6,916.7,719.6z"/>
    <g>
      <g>
        <g>
          <path d="M165,691.5c-1.8-3-2.8-6.3-2.8-9.6c0-1.1,0.1-2.2,0.3-3.3c0.9-4.9,3.8-9.2,8.2-12.2      c7.9-5.4,18.1-6.4,23.5-6.5c7.8-0.1,25.7,1.2,29.5,14.9c-11.5,0.1-17.9,0.7-21,1c-1.3-3.3-1.8-4.3-4.3-5.6      c-2.6-1.4-4.6-1.2-6.6-1.2c-3.7,0.2-6.4,2.1-8.8,5.4c-2.2,2.9-3.2,6.5-2.8,10.1c0.7,8.1,6.6,13.5,14.8,13.5      c4.8-0.1,10-3.5,10.4-7.2c0-0.4,0-0.7-0.3-1c-0.2-0.3-0.5-0.4-0.8-0.4c0,0-6,0.8-7.3,0.9c-0.6-1.8-0.4-6.2-0.4-6.2      c2.9-0.2,19.1-0.5,19.1-0.5s9.5-0.6,11.1-0.7c0.1,0.7,0,2.8,0,3.4c0,2.7-0.7,5.1-2.2,7.2c-4.6,6.7-15.4,10.7-30.2,10.6      C181,704.2,170,699.4,165,691.5z" fill="#FFFFFF"/>
        </g>
        <g>
          <g>
            <path d="M290.5,681.6c-3.7-16.6-17.8-22.3-28.8-22.1c-12.9,0.3-26.4,7.4-27.5,22.8       c-0.3,4.7,0.8,8.9,3.3,12.4c4.8,6.7,14.6,10.9,25.7,10.9c11.7,0,21.9-4.5,25.8-11.4C291.2,690.6,291.6,686.4,290.5,681.6z        M271.8,693.6c-1.9,3.4-5.3,5.2-9.9,5.3c-4.4,0-8.2-1.8-10.6-5.2c-1.9-2.6-2.9-6-2.9-9.7c0-0.2,0-0.5,0-0.7       c0.3-7.4,5.4-14,11.2-14.5c6.3-0.6,11.5,6.4,13.2,13.3C273.8,686.7,273.5,690.6,271.8,693.6z" fill="#FFFFFF"/>
          </g>
        </g>
        <g>
          <g>
            <path d="M351.2,681.6c-3.6-16.6-17.3-22.3-27.9-22.1c-12.5,0.3-25.6,7.4-26.7,22.8       c-0.3,4.7,0.8,8.9,3.2,12.4c4.6,6.7,14.2,10.9,25,10.9c11.4,0,21.2-4.5,25.1-11.4C351.8,690.6,352.2,686.4,351.2,681.6z        M336.6,691.1c-1.8,3.5-5.1,5.3-9.4,5.4c-4.2,0-7.8-1.9-10.2-5.3c-1.8-2.7-2.8-6.2-2.8-9.9c0-0.2,0-0.5,0-0.7       c0.3-7.5,5.2-14.2,10.7-14.7c6-0.7,11,6.5,12.6,13.6C338.5,684,338.1,688.1,336.6,691.1z" fill="#FFFFFF"/>
          </g>
        </g>
        <g>
          <path d="M463.1,694.8c1.6-1.1,1.9-2.4,1.8-3.4c-0.3-3.1-5.5-4.6-14.1-7c-8.4-2.4-20.3-7.2-20.6-14.7      c-0.1-1.2,0.3-2.6,1.1-3.9c1.5-2.5,5.8-6.7,17.3-7.2c12.3-0.5,23.1,3.2,29.4,10c-7.2,2.3-13,4.8-14.5,5.5      c-2.1-3.1-6.4-5.2-10.6-5.2c-2.6,0-4.4,0.8-5.1,2.3c-0.4,0.7-0.5,1.6-0.3,2.4c0.6,3.8,5.1,3.5,14.2,5.5l0.5,0.1      c12,2.6,19.3,8.5,19.5,13.6c0,1.6-0.4,3.1-1.4,4.6c-3.2,4.9-12.3,8.2-22.5,8.2c-11.6,0-21.2-2.9-27.9-8.3      c3.9-3.7,8.7-7.6,10.1-8.7C445.9,695.2,458.6,697.9,463.1,694.8z" fill="#FFFFFF"/>
        </g>
        <g>
          <path d="M497.9,658.9c9.8-0.2,19.9-0.3,28.7-1c0,0.4,0,0.9,0,1.5c0,2.2,0,5.4,0.2,8.7      c-5.3-0.2-10.1-1.6-14.6-1.5c-0.4,0-0.7,1.9-0.7,2.5v0.1c0,13.7,1.3,27.3,3.3,36.3c-1.7,0.1-15,0.7-16.8,0.8      c1-5,1.7-11.5,1.7-18.8c0-5.8-0.4-14.5-1.6-20.7c-0.1-0.5-0.4,0.4-0.8,0.4c-5.5,0.4-10,1-14,1.7c-0.3-4.5-1.1-7.4-1.6-9.6      C483.7,659.2,497.9,658.9,497.9,658.9z" fill="#FFFFFF"/>
        </g>
        <g>
          <path d="M574.4,658c3.4,7,5.8,15.9,5.8,23.9c0,5.5-1.1,10.5-3.7,14.1c-5,7.1-12.2,10.3-22.7,9.9l0,0      c-10.4-0.4-16.8-4.4-19.2-12c-0.7-2.4-1.1-4.9-1.1-7.6c0-8.5,0.9-19,3.3-24.8c5.3,0.8,9.7,2.2,11.9,2.1      c-2.3,6.7-2.8,13.8-2.8,19.9c0,4,1.3,7.6,2.3,10.3c1.5,3.9,4.7,7.1,7.6,6.7c2.4-0.4,7-4.6,8.6-10.5c0.5-1.8,0.9-4.2,0.9-7.4      c0-5.6-2.1-13.5-6.8-23.4C560.8,659.1,573.7,658.1,574.4,658z" fill="#FFFFFF"/>
        </g>
        <g>
          <path d="M608,659.4c0,0,13.8-0.3,15.5-0.4c-0.4,2.1-0.9,6.2-1.2,10.8c-6.6-1.6-15.5-2.5-22.3-2.2      c-0.4,0-0.7,0.5-0.7,1.1c-0.1,2.6,0,5.6,0.1,9.1v0.9c0,0.7,0.4,1.2,0.8,1.1l1.5-0.1c0,0,9.6-0.8,11-0.9c0,1.5,0,4.5,0,6.1      c-2-0.2-7.5-0.8-12-0.7c-0.2,0-0.4,0.2-0.6,0.4c-0.1,0.2-0.2,0.5-0.2,0.7c0,0.1,0,0.2,0,0.2c0.6,6,1.7,12.4,3,18.3      c-7.3,0-14,0.6-16.2,0.8c0.3-3.8,0.5-7.7,0.6-11.8c0.2-11.8-0.7-24-2.4-33.3C587,659.8,608,659.4,608,659.4z M586.9,706.3v0.1      C586.9,706.4,586.9,706.3,586.9,706.3z" fill="#FFFFFF"/>
        </g>
        <g>
          <path d="M649.4,659.9c0,0,13.7-0.4,15.5-0.5c-0.4,2.2-0.9,6.3-1.1,10.8c-6.6-1.6-15.6-2.4-22.3-2      c-0.4,0-0.7,0.5-0.7,1.1c-0.1,2.6,0,5.6,0.1,9.1v0.9c0,0.7,0.4,1.2,0.8,1.1l1.5-0.1c0,0,9.6-0.9,11-1.1c0,1.5,0.1,4.5,0.1,6.1      c-2-0.2-7.5-0.7-12-0.6c-0.2,0-0.4,0.2-0.6,0.4c-0.1,0.2-0.2,0.5-0.2,0.8c0,0.1,0,0.1,0,0.2c0.6,6,1.7,12.4,3,18.3      c-7.3,0.1-14,0.8-16.2,1c0.3-3.8,0.5-7.7,0.6-11.8c0.2-11.8-0.7-24-2.5-33.3C628.3,660.4,649.4,659.9,649.4,659.9z M626.1,708.1      c0,0,0,0.1,0,0.2C626.1,708.2,626.1,708.1,626.1,708.1z" fill="#FFFFFF"/>
        </g>
        <g>
          <path d="M692.8,706.1c-9.8-3.6-14-8.9-15.2-20.1c-1.8-16.9,9.2-25.4,12.9-26.8c7.2-2.8,15.2-3.1,22.3-0.7      c8,2.7,10.3,7.6,10.9,13.1c-1.9,0.9-4.6,1-11.4,2.1c-0.7-5.4-6.3-9.6-9.9-9.4c-2.2,0-7.7,1.4-10.1,9.4      c-1.1,3.5-1.4,6.3-1.3,10.1c0.2,10.3,4.6,14.7,8.7,15.4c2.9,0.5,5.7-0.7,7.3-3.1c0.6-0.9,2.2-3.8,2.4-5c2-0.2,7.4-0.1,15.5,0      c-0.2,4.9-2.8,10-9,13.3l0,0C709.3,707.9,698.8,708.3,692.8,706.1z M716.2,706.9L716.2,706.9L716.2,706.9z" fill="#FFFFFF"/>
        </g>
        <g>
          <path d="M742.8,681l14.6-0.8c0.4,0,0.7-0.6,0.7-1.2c0-0.9,0-1.7,0-2.5c0-7.3-0.5-13.9-1.3-19.5      c7.1,0.5,13.7,0.6,16.3,0.6c-1.6,6.3-2.6,14.6-2.6,23c0,8.7,1,17.3,3.3,23.9c-2,0.1-16.3,0.7-18.1,0.8      c1.1-5.1,1.9-11.4,2.2-17.9v-0.1c0-0.3-0.1-0.6-0.2-0.8c-0.1-0.3-0.3-0.4-0.5-0.4c-5.6-0.3-10.6-0.3-14.3-0.2      c-0.2,0-0.4,0.1-0.5,0.4c-0.1,0.2-0.2,0.5-0.2,0.8v0.1c0.3,5.7,1.1,13.5,2.9,19.5c-7.5-0.4-15.5-0.4-18.4-0.3      c1.8-6.3,2.7-15.8,2.7-25c0-8.2-0.7-16.1-1.9-21.3c2.4,0,9.1-0.1,16.2,0.1c-1,5.1-1.6,12-1.7,19.7l0,0c0,0.3,0.1,0.6,0.2,0.9      C742.3,680.8,742.5,681,742.8,681z" fill="#FFFFFF"/>
        </g>
        <g>
          <path d="M808.5,658.9c0,0,6.9-0.3,8.5-0.3c-0.2,1.6-0.5,4.1-0.5,7.2c0,1.1,0.1,2.4,0.2,3.6      c-5.9-1.1-13.3-1.5-22.5-1.4c-0.2,0-0.4,0.2-0.5,0.4s-0.2,0.6-0.2,0.9l0.3,9.7c0,0.3,0.1,0.6,0.3,0.9c0.2,0.2,0.4,0.3,0.5,0.3      l1.8-0.2c0,0,8-0.8,9.4-1c0,0.3,0,0.5,0,0.8c0,1.3,0.1,3,0.2,4.7c-1.9-0.2-6.7-0.6-11.5-0.6c-0.2,0-0.4,0.1-0.5,0.4      c-0.1,0.2-0.2,0.6-0.2,0.9c0,3.6-0.2,7.5-0.5,10.9c0,0.4,0,0.8,0.2,1c0.2,0.3,0.4,0.4,0.6,0.4c5.8-1.2,11.8-1.3,19.7-1.4      c-0.1,0.9-0.2,5.5-0.2,6.9c0,1.5-0.2,0.8,0,2.5c-12.2-0.1-19.9-1.3-33.2,0.4c0.4-4.6,0.6-10.1,0.6-16.3c0-9.4-0.5-19.9-1.8-29.5      C780.8,660,808.5,658.9,808.5,658.9z M806.4,703.6L806.4,703.6L806.4,703.6z M805.6,704.8L805.6,704.8c0,0.1,0,0.2,0,0.3      C805.6,705,805.6,704.9,805.6,704.8z M805,670.8L805,670.8c0,0.1,0,0.1,0,0.2C805,670.9,805,670.8,805,670.8z" fill="#FFFFFF"/>
        </g>
      </g>
      <g>
        <path d="M407,674.6c-2-10.2-18.9-15.3-47.7-14.5c0.8,5.4,1.2,12,1.2,18.7c0,9.9-0.9,20-2.5,27.2     c19.5,0.9,27.8-1.4,36-6c6.8-3.8,13.4-11.1,13.4-20.8C407.5,677.8,407.4,676.2,407,674.6z M389.9,688.3     c-2.7,5.6-7.8,9.1-14.4,9.7c-0.4,0-0.8-0.4-0.9-1.1c-1.8-13-1.3-28.5-1.3-29.1c0-0.8,0.4-1.4,0.9-1.4c12.3,0.2,17,3.4,17.6,12     C392.1,681.7,391.4,685.2,389.9,688.3z" fill="#FFFFFF"/>
      </g>
      <g>
        <path d="M909,669.4c-2.6-10.4-24.5-12-45.4-9c2.4,8.1,3.7,17.5,3.7,26.5c0,7.5-0.9,14.5-2.6,20.3     c3.1-0.3,11.3-0.9,19.4-0.5c-1.9-5.4-3.3-11.7-4-18.6c0-0.1,0-0.1,0-0.2c0-0.3,0.1-0.6,0.2-0.8c0.1-0.3,0.4-0.4,0.6-0.5     c20.4-1.8,26.1-8.2,27.7-11.9c0.5-1.1,0.7-2.2,0.7-3.3C909.3,670.7,909.2,670.1,909,669.4z M894.7,673.7     c-0.8,5.4-10.6,6.8-14.8,7.2c-0.2,0-0.5-0.1-0.6-0.3c-0.2-0.3-0.3-0.6-0.3-1c-0.1-4.1,0-8,0.3-11.5c0-0.6,0.4-1.1,0.8-1.2     c4.3-0.6,11.9-0.9,14.1,3.2C894.7,671.1,894.9,672.4,894.7,673.7z" fill="#FFFFFF"/>
      </g>
      <g>
        <path d="M846,658.7c-2.2,0.3-9.6,1.4-17.6,1.3c-1.1,13.3-4.7,32.3-13.2,46.3c3.1,0.1,8.8,3.1,15.1,3.7     c0.4-3.5,1.7-8.9,2.5-12.8c0.1-0.5,0.5-1.8,0.8-1.8c3.2-0.1,12-0.9,16.7-0.5c0.3,0,0.5,1.1,0.6,1.7c0.5,3.9,2.7,9.9,2.7,12.7     c1.4-0.2,2.3-0.5,2.3-0.5c3.2-0.7,2.8-1.7,4.6-1.9C854.6,694.4,848.6,672.9,846,658.7z M834.7,689.2c2.2-5,6.4-20.9,8.2-25.1     c1.8,5.3,5.2,18.6,6.2,24.1C845.5,688.7,836.1,686.2,834.7,689.2z" fill="#FFFFFF"/>
      </g>
    </g>
    <g>
      <path d="M918.8,671.5c0,0-0.9,0.7-0.9-0.8l2.2-13.5c0,0,0.2-2,1.3-1.2l2.9,2.5c0,0,0.4,0.9,0,2L918.8,671.5    z" fill="#FFFFFF"/>
      <path d="M926.2,676c0,0-0.9,0.5-0.8-0.9l3.3-13c0,0,0.3-1.9,1.4-1l2.6,2.9c0,0,0.4,0.9-0.2,2L926.2,676z" fill="#FFFFFF"/>
    </g>
    <g>
      <path d="M161.2,672.4c0,0,0.9,0.7,0.9-0.8l-2.2-13.5c0,0-0.2-2-1.3-1.2l-2.9,2.5c0,0-0.4,0.9,0,2    L161.2,672.4z" fill="#FFFFFF"/>
      <path d="M153.8,676.9c0,0,0.9,0.5,0.8-0.9l-3.3-13.1c0,0-0.3-1.9-1.4-1l-2.6,2.9c0,0-0.3,0.9,0.2,2    L153.8,676.9z" fill="#FFFFFF"/>
    </g>
    <path d="M939.6,624.9c0.6-1.5,1.5-2.7,2.6-3.8s2.4-1.9,3.9-2.5s3-0.9,4.7-0.9c1.6,0,3.2,0.3,4.7,0.9c1.5,0.6,2.7,1.5,3.8,2.5   c1.1,1.1,1.9,2.4,2.6,3.8c0.6,1.5,1,3.1,1,4.8s-0.3,3.4-1,4.8c-0.6,1.5-1.5,2.8-2.6,3.9c-1.1,1.1-2.4,1.9-3.8,2.5   c-1.5,0.6-3,0.9-4.7,0.9c-1.6,0-3.2-0.3-4.7-0.9c-1.5-0.6-2.8-1.5-3.9-2.5c-1.1-1.1-2-2.4-2.6-3.9s-1-3.1-1-4.8   C938.7,628,939,626.4,939.6,624.9z M941.6,633.8c0.5,1.3,1.2,2.4,2.1,3.3c0.9,0.9,1.9,1.7,3.2,2.2c1.2,0.5,2.5,0.8,3.9,0.8   s2.7-0.3,3.9-0.8s2.2-1.3,3.1-2.2c0.9-0.9,1.6-2,2.1-3.3s0.8-2.6,0.8-4.1s-0.3-2.8-0.8-4c-0.5-1.3-1.2-2.3-2.1-3.3   c-0.9-0.9-1.9-1.6-3.1-2.2c-1.2-0.5-2.5-0.8-3.9-0.8s-2.7,0.3-3.9,0.8s-2.3,1.2-3.2,2.2c-0.9,0.9-1.6,2-2.1,3.3s-0.8,2.6-0.8,4   C940.8,631.2,941.1,632.5,941.6,633.8z M951.5,622.6c1.7,0,2.9,0.3,3.7,1s1.2,1.7,1.2,3.1c0,1.3-0.3,2.2-1.1,2.8   c-0.7,0.6-1.6,0.9-2.6,1.1l4,6.2h-2.4l-3.8-6.1h-2.3v6.1H946v-14.1h5.5V622.6z M950.6,628.9c0.5,0,1,0,1.4,0s0.8-0.1,1.2-0.3   c0.3-0.1,0.6-0.4,0.8-0.7s0.3-0.8,0.3-1.3s-0.1-0.8-0.3-1.1s-0.4-0.5-0.7-0.6s-0.6-0.3-1-0.3c-0.4-0.1-0.8-0.1-1.1-0.1h-2.9v4.5   h2.3V628.9z"/>
  </g>
</svg>