<?xml version="1.0" encoding="UTF-8"?>
<svg version="1.2" baseProfile="tiny-ps" id="Politie_Symbool_Blauw_RGB" xmlns="http://www.w3.org/2000/svg" xmlns:xlink="http://www.w3.org/1999/xlink" viewBox="0 0 59.5 77.6">
    <title>Politie</title>
    <path d="M28.6,51.8c-.6-1.6-.9-3.3-.8-5,0-4.6,5-8.5,5-8.5,3.4-3,5.7-5.6,6.1-8.4.1-2-.1-4-.8-5.9,1,.3,1.8.8,2.5,1.5.4.5.8,1,1.1,1.6.6-1.8.6-3.7.2-5.5-.4-1.9-1.4-3.5-2.8-4.8-1-1-2.2-1.7-3.6-2.1.4.9.7,2.1.5,4.7-.2,2.4-1.1,4.6-2.7,6.4-1.6,2.2-4.9,4.9-6.9,7.5-1.5,1.9-2.4,4.2-2.6,6.6,0,2.1.3,4.1,1,6.1h0c-1.4-.8-2.6-2.1-3.4-3.6-1.1-2-1.6-4.3-1.5-6.6,0-3.4,1.1-6.6,3.1-9.3,1.5-1.9,5.2-5.5,6.6-8.4.9-1.7,1.3-3.6,1.2-5.6,0-1-.3-2-.6-2.9.8.2,1.6.6,2.2,1.1.6.5,1.1,1,1.1,1,.2-1.4.1-2.9-.2-4.3-.4-2.5-1.8-4.7-3.9-6.1C28.4.6,27,0,25.5,0c.9,1.2,1.5,2.5,1.8,4,.4,1.9.2,3.8-.6,5.6-1.1,2.4-3.8,4.6-5.9,6.6-2.2,2.1-4.1,4.5-5.4,7.2-1.6,3-2,6.4-1.2,9.7.4,2.4,1.5,4.7,3,6.7-1.6-.6-2.9-1.5-4.1-2.7-.9-.9-1.6-2-2-3.2L0,41.3v11.3l29.8,24.9,29.8-24.9v-3.9l-29.5,24.8v-3.9l29.5-24.7v-3.4l-16.2-10.8c.5,2.4.1,4.9-1,7-1.9,4.2-6.8,7.4-8.4,8.4-1.8,1.2-2.8,2.3-3.1,3.3-.3.7-.4,1.6-.2,2.3h0c2.1.4,3.6,2.2,3.5,4.3,0,2.5-2,4.5-4.5,4.5-2.5,0-4.5-2-4.5-4.5,0-2.1,1.5-4,3.6-4.4h0Z" fill="#182866" stroke-width="0" />
</svg>
