<?xml version="1.0" encoding="utf-8"?>
<!-- Generator: Adobe Illustrator 26.0.1, SVG Export Plug-In . SVG Version: 6.00 Build 0)  -->
<svg version="1.2" baseProfile="tiny-ps" id="Warstwa_1"
	 xmlns="http://www.w3.org/2000/svg" xmlns:xlink="http://www.w3.org/1999/xlink" viewBox="0 0 198.4 198.4" xml:space="preserve">
<title>Conotoxia Holding</title>
<rect y="0" fill="#FFFFFF" width="198.4" height="198.4"/>
<path fill="#08090A" d="M175,99.2c0,22.8-18.6,41.2-41.5,41.2c-11.4,0-22.3-4.6-30.1-12.8c12.6-16.8,12.6-39.9,0-56.8
	c7.9-8.2,18.7-12.9,30.1-12.9C156.4,58,175,76.4,175,99.2 M23.4,99.2C23.4,76.4,42,58,65,58s41.5,18.5,41.5,41.2
	c0,22.8-18.6,41.2-41.5,41.2S23.4,122,23.4,99.2 M33.6,99.2c0,17.2,14.1,31.1,31.4,31.1l0,0c17.3,0,31.4-13.9,31.4-31.1
	S82.3,68.1,65,68C47.6,68.1,33.6,82,33.6,99.2 M75.6,110.7c-2.2,1-4.6,1.6-7.1,1.6c-3.1,0-6-0.9-8-3.1c-0.9-1-1.6-2.5-2-4.3H74v-4.4
	H57.7v-1c0-0.7,0-1.3,0.1-1.9h16.4v-4.4H58.7c0.4-1.5,1-2.8,2-4c1.9-2.3,4.6-3.3,7.6-3.3c2.4,0,4.7,0.5,6.9,1.5l1.7-7
	c-2.9-1.2-6.1-1.9-9.3-1.8c-5.8,0-10.8,2.3-14.3,6.3c-2.1,2.4-3.6,5.3-4.3,8.4h-4.1v4.4h3.5c0,0.6-0.1,1.2-0.1,1.8v1H45v4.4h3.9
	c0.6,3.3,1.8,5.9,3.5,8c3.5,4.5,9,7,15.1,7c3.4,0,6.7-0.8,9.7-2.3L75.6,110.7z M141.2,94.9c-4.9-1.7-6.9-2.9-6.9-4.3
	c0-1.3,1.1-2.5,4.5-2.5c4.5,0,7.3,1.3,8.9,2l1.9-7.8c-2.1-0.9-4.8-1.7-8.9-1.9v-4.9H134v5.4c-6.7,1.3-10.4,5.5-10.4,10.9
	c0,5.9,4.5,8.9,10.9,10.9c4.4,1.3,6.1,2.5,6.1,4.3s-2.1,2.7-5.1,2.7c-4,0-7.6-1.3-10.3-2.6l-1.9,8.1c2.3,1.2,6.3,2.3,10.4,2.5v5.4
	h6.7v-5.9c7.1-1.2,10.9-5.7,10.9-11.1C151.3,100.6,148.6,97.3,141.2,94.9"/>
</svg>
