<?xml version="1.0" encoding="UTF-8" standalone="yes"?>
<svg version="1.2" baseProfile="tiny-ps" viewBox="0 0 122 122" xml:space="preserve" xmlns="http://www.w3.org/2000/svg">
  <title>bimi-svg-tiny-12-ps</title>
  <ellipse fill="#2A313D" cx="61" cy="61" rx="36.5" ry="60.8"/>
  <path fill="#F8F8F3" d="M66,57.3h0.4v-0.9c10.9-1.4,17.1-7.2,17.1-15.9V28.7h-1.6v0.4c0,1.2-0.6,3.3-4.5,3.3l-33.3,0&#xA;&#x9;c-3.9,0-4.5-2.1-4.5-3.3v-0.4h-1.6v11.8c0,8.7,6.3,14.5,17.2,15.9v0.9h0.4c1.2,0,3.2,0.6,3.2,4.6l0.1,34c0,3.8-3.7,4.6-5.2,4.6h-0.4&#xA;&#x9;v1.7h15v-1.7H68c-1.4,0-5.1-0.8-5.1-4.6l-0.1-34C62.8,57.9,64.8,57.3,66,57.3z M41.5,39.5v-3.1l38.6-0.1v3.1&#xA;&#x9;c0,8.2-7.2,13.2-19.3,13.2C48.7,52.7,41.5,47.7,41.5,39.5z"/>
</svg>