<?xml version="1.0" encoding="utf-8"?>
<svg version="1.2" baseProfile="tiny-ps" xmlns="http://www.w3.org/2000/svg" xmlns:xlink="http://www.w3.org/1999/xlink" viewBox="0 0 170 170" xml:space="preserve">
<title>Sumitomo Mitsui Card Company, Limited</title>
<g>
	<path fill="#4F4F4F" d="M125.5,75.1c2.8,0,4.9,0.6,6.5,1.9l2.1-5.5c-2.8-1.4-5.8-2.1-8.9-2.1c-3.1,0-5.7,0.7-7.7,2.2
		c-2,1.4-3.1,3.7-3,6.1c0,3.9,2.6,7,7.9,9.1c2.4,1,4,1.9,4.9,2.6c0.8,0.7,1.3,1.8,1.2,2.8c0,2-1.4,2.9-4.1,2.9
		c-2.6,0-5.1-0.9-7.2-2.5l-2.5,5.6c1.5,0.8,3.1,1.5,4.7,2c1.6,0.4,3.2,0.5,4.9,0.5c3.6,0,6.4-0.8,8.5-2.4c2.1-1.6,3.3-4.1,3.2-6.7
		c0-1.9-0.6-3.9-1.8-5.4c-1.2-1.5-3.1-2.8-5.8-3.8c-2.7-1.1-4.4-1.9-5.2-2.5c-0.7-0.5-1.2-1.2-1.2-2.1
		C121.8,76.1,123,75.1,125.5,75.1z"/>
	<path fill="#4F4F4F" d="M153.3,82.6c-2.7-1.1-4.4-1.9-5.2-2.5c-0.7-0.5-1.2-1.2-1.2-2.1c0-2,1.2-2.9,3.7-2.9c2.8,0,4.9,0.6,6.5,1.9
		l2-5.5c-2.8-1.4-5.8-2.1-8.9-2.1c-3.1,0-5.7,0.7-7.7,2.2c-2,1.4-3.1,3.7-3,6.1c0,3.9,2.6,7,7.8,9.1c2.4,1,4,1.9,4.9,2.6
		c0.8,0.7,1.3,1.8,1.2,2.8c0,2-1.4,2.9-4.1,2.9c-2.6,0-5.1-0.9-7.2-2.5l-2.5,5.6c1.5,0.9,3.1,1.5,4.7,2c1.6,0.4,3.2,0.5,4.9,0.5
		c3.6,0,6.4-0.8,8.5-2.4c2.1-1.6,3.2-4.1,3.1-6.7c0.1-2-0.6-3.9-1.8-5.4C157.9,85,155.9,83.7,153.3,82.6z"/>
	<g>
		<path fill="none" d="M62.4,94.3c5.1,0,9.2-4.1,9.2-9.2S67.5,76,62.4,76s-9.2,4.1-9.2,9.2C53.3,90.2,57.4,94.3,62.4,94.3z"/>
		<path fill="#4F4F4F" d="M46.7,69.6v42.3h6.6V98c5.5,4,13,3.9,18.5-0.1c5.5-4,7.8-11.1,5.7-17.6c-2.1-6.5-8.2-10.9-15-10.9
			c-3.3,0-6.5,1-9.2,3v-2.8L46.7,69.6L46.7,69.6z M62.4,76c5.1,0,9.2,4.1,9.2,9.2c0,5.1-4.1,9.2-9.2,9.2s-9.2-4.1-9.2-9.2
			S57.4,76,62.4,76z"/>
	</g>
	<g>
		<path fill="none" d="M88.9,91.2c0,2.7,1.6,4.1,4.7,4.1c4.3,0,6.4-2.1,6.4-6.4V86c-0.9-0.2-1.8-0.3-2.7-0.3
			C91.7,85.7,88.9,87.5,88.9,91.2z"/>
		<path fill="#4F4F4F" d="M85.8,83.3c-2.6,2-4,4.7-4,8.3c0,3,0.9,5.3,2.8,7s4.4,2.5,7.7,2.5c1.7,0.1,3.4-0.2,5-0.9
			c1.3-0.5,2.5-1.4,3.2-2.6c0.3,0.9,0.9,1.5,1.7,2.3c0.7,0.7,1.7,1.1,2.8,1.1c1.9,0,3.8-0.7,5.3-1.9c-0.8-1.4-2.1-4.9-2-5.5
			c-0.5,0.5-1.1,0.6-1.2,0.3c-0.1-0.9-0.1-1.8-0.1-2.7v-6.5c0-5.9-1.1-9.9-3.2-12c-2.2-2.1-5.6-3.2-10.2-3.2c-3-0.1-6,0.5-8.7,1.8
			l1.5,5.5c2.1-1,4.4-1.5,6.7-1.4c4.5,0,6.8,1.8,6.8,5.3c-1-0.2-2-0.4-3-0.4C92.1,80.3,88.4,81.3,85.8,83.3z M100,86v2.9
			c0,4.3-2.1,6.4-6.4,6.4c-3.2,0-4.7-1.4-4.7-4.1c0-3.7,2.8-5.5,8.4-5.5C98.2,85.7,99.1,85.8,100,86z"/>
	</g>
	<polygon fill="#4F4F4F" points="46.8,58.2 46,58.2 37.6,58.2 27.9,85.2 18.6,58.2 9.3,58.2 25.3,101.6 30.2,101.6 	"/>
</g>
</svg>