<?xml version="1.0" encoding="utf-8"?>
<svg version="1.2" baseProfile="tiny-ps" xmlns="http://www.w3.org/2000/svg" xmlns:xlink="http://www.w3.org/1999/xlink" viewBox="0 0 170 170" xml:space="preserve">
<title>Sumitomo Mitsui Card Company, Limited</title>
<rect fill="#FFFFFF" width="170" height="170"/>
<rect x="13.4" y="55.4" fill="#004730" width="30.3" height="3.8"/>
<rect x="15" y="67.3" fill="#004730" width="27.2" height="3.8"/>
<rect x="12.2" y="80.2" fill="#004730" width="32.8" height="3.8"/>
<path fill="#004730" d="M83,60.8v-3.3h-6.3v-5.1h-4.8v5.1H61.5v-5.1h-4.8c0,0,0,2.3,0,5.1h-6.8v3.3h6.8c0,3,0,6,0,7.4
	c0,1.2-0.1,2.3-0.2,3.2h-6.6v3.3h6c0,0-0.2,3.3-5,8l1.8,3.1c0,0,6.8-4.1,8.4-11.2h0.4h10.4v10.6h4.8V74.7H83v-3.3h-6.3V60.8H83z
	 M71.9,71.5H61.5V60.8h10.4V71.5z"/>
<path fill="#004730" d="M98.9,53.2l-4.5-1.7c0,0-2.6,9.6-7.6,15.4l1.7,2.6c0,0,1.3-1.2,2.9-3v18.8h4.5V60.6
	C97.3,58.3,98.5,55.7,98.9,53.2z"/>
<path fill="#004730" d="M112.4,80.9v-9h8v-3.3h-8v-7.8h9v-3.3H111l2.6-1.8c0,0-3.2-3.1-5.7-4.9c-0.6,0.4-3.4,2.4-3.4,2.4l5,4.3h-11
	v3.3h9v7.8h-8.1v3.3h8.1v9h-9.7v3.3H122v-3.3H112.4z"/>
<path fill="#004730" d="M158.7,59.5v-3h-18.5c0.3-3.1,0.2-5,0.2-5h-5.1c0,1.8-0.1,3.4-0.2,5h-8.8v3h8.5c-2.1,14.9-9.2,22.4-9.2,22.4
	s1.5,2.2,2,3.1c4.7-4.9,7.6-10.3,9.5-15.3c0,0,0.4,3.8,5.3,8.3c-4.6,3.3-9.6,4.5-9.6,4.5l1.5,2.6c4.7-1.1,8.3-2.8,11.1-4.8
	c5.4,3.6,11.2,4.8,11.2,4.8l2.1-3.8c-4.2-1.1-7.5-2.3-10-3.7c6.2-6.2,6.5-13.3,6.5-13.3h-16.4c0.5-1.7,0.8-3.4,1-4.9H158.7z
	 M149.5,67.6c-0.5,3.3-2.1,5.9-4.2,8c-5.7-4-6-8-6-8H149.5z"/>
<path fill="#004730" d="M61,106.2v-4.9h-5c0,0,0,2.6,0,4.9h-6.7v3.2H56c0,15.2-7.7,20.9-7.7,20.9l1.5,2.3
	c11.6-8.3,11.2-23.2,11.2-23.2h9v14.1c0,5.8-5.2,6.4-6.7,6.4c0.2,2.4,0.2,2.7,0.2,2.7c7.2,0,11.4-4.4,11.4-10.6v-12.6v-3.2H61z"/>
<rect x="77.6" y="115.7" fill="#004730" width="20.3" height="3.2"/>
<path fill="#004730" d="M105.6,113.3v-11.5h-4.8v30.9h4.8v-15.8c0,0,7,1.2,12.7,4.8l1.9-2.3C120.2,119.3,113.2,114.5,105.6,113.3z"
	/>
<path fill="#004730" d="M114.5,102.5c0,0,2.8,3.1,3.1,5.5l-2.6,0.8c0,0-1.7-3.7-3.1-5.2L114.5,102.5z"/>
<path fill="#004730" d="M118.9,100.9c0,0,2.8,3.1,3.1,5.5l-2.6,0.8c0,0-1.7-3.7-3.1-5.2L118.9,100.9z"/>
</svg>
