<?xml version="1.0" encoding="utf-8"?>
<!-- Generator: Adobe Illustrator 24.0.3, SVG Export Plug-In . SVG Version: 6.00 Build 0)  -->
<svg version="1.2" baseProfile="tiny-ps"
	 id="svg22" xmlns:cc="http://creativecommons.org/ns#" xmlns:dc="http://purl.org/dc/elements/1.1/" xmlns:inkscape="http://www.inkscape.org/namespaces/inkscape" xmlns:rdf="http://www.w3.org/1999/02/22-rdf-syntax-ns#" xmlns:sodipodi="http://sodipodi.sourceforge.net/DTD/sodipodi-0.dtd" xmlns:svg="http://www.w3.org/2000/svg"
	 xmlns="http://www.w3.org/2000/svg" xmlns:xlink="http://www.w3.org/1999/xlink" viewBox="0 0 216 216"
	 xml:space="preserve">
<title>My People Know</title>
<path fill="#FFFFFF" d="M216,216H0V0h216V216z"/>
<path fill="#FFC300" d="M206.6,109.8c0,54.2-43.9,98.1-98.1,98.1c-54.2,0-98.1-43.9-98.1-98.1c0-54.2,43.9-98.1,98.1-98.1
	C162.7,11.7,206.6,55.6,206.6,109.8z"/>
<path fill="#000814" d="M108.5,214.8C49.8,214.8,2.1,167,2.1,108.4C2.1,49.7,49.8,2,108.5,2c58.7,0,106.4,47.7,106.4,106.4
	C214.9,167,167.2,214.8,108.5,214.8z M108.5,18.5c-49.6,0-89.9,40.3-89.9,89.9c0,49.6,40.3,89.9,89.9,89.9
	c49.6,0,89.9-40.3,89.9-89.9C198.4,58.8,158.1,18.5,108.5,18.5z"/>
<path fill="#231F20" d="M108.3,184.3c-30.5,0-59.5-20-68.5-48.6c-1.2-3.8,0.9-7.8,4.7-9c3.8-1.2,7.8,0.9,9,4.7
	c7.2,22.7,30.5,38.5,54.8,38.5c24.1,0,48.2-16.2,55.4-38.5c1.2-3.8,5.3-5.9,9-4.6c3.8,1.2,5.9,5.3,4.6,9
	C168.1,164.3,138.9,184.3,108.3,184.3z"/>
<path fill="#000814" stroke="#000814" stroke-width="0.7492" stroke-miterlimit="10" d="M122.3,80.8c-2.2,0-4.4,0.3-5.7,1
	c-1.3,0.7-2.3,1.6-2.9,2.7c-0.6,1.1-1.1,2.4-1.3,3.7c-0.2,1.4-0.3,2.8-0.3,4.2c0,1.1,0.1,2.4,0.3,3.7c0.2,1.4,0.7,2.6,1.4,3.8
	c0.7,1.2,1.7,2.1,3,2.9c1.3,0.8,3.4,1.2,5.5,1.2c2.1,0,4.3-0.4,5.5-1.2c1.3-0.8,2.2-1.8,2.9-2.9c0.7-1.2,1.1-2.4,1.4-3.8
	c0.2-1.4,0.3-2.6,0.3-3.7c0-1.1-0.1-2.4-0.3-3.7c-0.2-1.4-0.7-2.6-1.4-3.8c-0.7-1.2-1.7-2.1-2.9-2.9
	C126.5,81.2,124.3,80.8,122.3,80.8z M111.9,121.9l0,1c0,2.6-2.1,4.7-4.7,4.7c-2.5,0-4.8-2.1-4.8-4.7v-1l0-29.4
	c0-3.3,0.4-6.2,1.1-8.8c0.7-2.6,1.9-4.8,3.5-6.5c1.6-1.8,3.7-3.2,6.1-4.1c2.5-1,5.5-1.4,9.1-1.4c3.7,0.1,7.1,0.9,10,2.3
	c1.2,0.6,2.5,1.4,3.7,2.4c1.2,1,2.3,2.2,3.2,3.7c0.9,1.5,1.7,3.2,2.3,5.3c0.6,2,0.9,4.4,0.9,7.1c0,2.7-0.3,5.1-0.8,7.1
	c-0.5,2-1.2,3.8-2.1,5.2c-0.9,1.5-1.9,2.7-3,3.6c-1.1,1-2.2,1.8-3.4,2.4c-2.7,1.4-5.8,2.1-9.3,2.2c-1.7-0.1-3.4-0.4-5.1-1
	c-1.4-0.5-2.8-1.4-4.3-2.5c-1.5-1.1-2.7-2.8-3.6-5l1.3,2.3V121.9z M98.5,85.9c0.5,2,0.8,4.4,0.8,7.1v13.9v1c0,2.6-2.1,4.7-4.7,4.7
	c-2.5,0-4.8-2.1-4.8-4.7l0-1V93c0-1.1-0.1-2.3-0.2-3.5c-0.1-1.2-0.5-2.3-1-3.3c-0.5-1-1.3-1.8-2.4-2.4c-1.1-0.6-2.5-1-4.5-1
	c-1.9,0-3.4,0.3-4.5,1c-1.1,0.6-1.9,1.5-2.4,2.4c-0.5,1-0.8,2.1-1,3.3c-0.1,1.2-0.2,2.3-0.2,3.4c0,0,0,0,0,0.1v13.9l0,1
	c0,2.6-2.1,4.7-4.7,4.7c-2.5,0-4.8-2.1-4.8-4.7l0-1V93c0-1.1-0.1-2.3-0.2-3.5c-0.1-1.2-0.5-2.3-1-3.3c-0.5-1-1.3-1.8-2.4-2.4
	c-1.1-0.6-2.5-1-4.5-1c-1.9,0-3.4,0.3-4.5,1c-1.1,0.6-1.9,1.5-2.4,2.4c-0.5,1-0.8,2.1-1,3.3c-0.1,1.2-0.2,2.4-0.2,3.5v14l0,1
	c0,2.6-2.1,4.7-4.7,4.7c-2.5,0-4.8-2.1-4.8-4.7l0-1V93c0-2.7,0.3-5,0.7-7.1c0.5-2,1.2-3.8,2-5.2c0.8-1.5,1.8-2.7,2.8-3.7
	c1-1,2.1-1.8,3.2-2.4c2.5-1.4,5.5-2.2,8.8-2.3c3.3,0.1,6.2,0.9,8.7,2.3c1.1,0.6,2.2,1.4,3.2,2.4c0.3,0.3,0.5,0.5,0.8,0.8
	c0.3-0.3,0.5-0.6,0.8-0.8c1-1,2.1-1.8,3.2-2.4c2.5-1.4,5.5-2.2,8.8-2.3c3.3,0.1,6.2,0.9,8.7,2.3c1.1,0.6,2.2,1.4,3.2,2.4
	c1.1,1,2,2.2,2.8,3.7C97.3,82.2,98,83.9,98.5,85.9z M144.6,107.9V64.4c0-2.8,2.2-5.1,5.1-5.1c2.9,0,5.2,2.3,5.2,5.1V85l13.7-13.7
	c1.9-1.9,5.2-1.9,7.2,0c2,2,2,5.2,0,7.2l-11,11l12.4,15.4c1.8,2.2,1.5,5.4-0.7,7.2c-0.9,0.8-2.1,1.2-3.2,1.2c-1.5,0-2.9-0.6-3.9-1.8
	l-11.8-14.7l-2.7,2.7v8.6c0,2.8-2.3,5.1-5.2,5.1C146.8,113,144.6,110.7,144.6,107.9z"/>
<path fill="#000814" d="M108.2,184.9c-30.6,0-59.7-20-68.7-48.7c-1.2-3.8,0.9-7.8,4.7-9c3.8-1.2,7.8,0.9,9,4.7
	c7.2,22.8,30.6,38.6,55,38.6c24.1,0,48.3-16.3,55.6-38.7c1.2-3.8,5.3-5.9,9.1-4.7c3.8,1.2,5.9,5.3,4.7,9.1
	C168.2,164.9,138.9,184.9,108.2,184.9z"/>
</svg>
