<?xml version="1.0" encoding="utf-8" standalone="yes"?><!-- Generator: Adobe Illustrator 27.7.0, SVG Export Plug-In . SVG Version: 6.00 Build 0)  --><svg xmlns="http://www.w3.org/2000/svg" xmlns:xlink="http://www.w3.org/1999/xlink" version="1.2" baseProfile="tiny-ps" viewBox="0 0 80 80" xml:space="preserve"><title>vds3</title><g id="Layer_1_00000118364901499725663310000000982914487273649552_"></g><g id="Layer_2_00000047741100438446289880000014230892548247606418_"><path fill="#6D6C6C" d="M14.4,46.9c-1.4-0.8-2.2-2.2-2.2-3.8s0.9-3,2.4-3.7l28.6-14.5l29.3,14c1.5,0.7,2.4,2.1,2.5,3.7   s-0.8,3-2.2,3.8l-29.6,17L14.4,46.9z"></path><path fill="#ECDDCC" d="M14.4,44.9c-1.4-0.8-2.2-2.2-2.2-3.8s0.9-3,2.4-3.7l28.6-14.5l29.3,14c1.5,0.7,2.4,2.1,2.5,3.7   s-0.8,3-2.2,3.8l-29.6,17L14.4,44.9z"></path><path d="M43.3,23.9l28.9,13.8c2.5,1.2,2.6,4.7,0.2,6L43.2,60.4L14.9,44.1c-2.4-1.4-2.3-4.7,0.2-6L43.3,23.9 M43.2,22l-0.8,0.4   L14.2,36.6c-1.7,0.9-2.8,2.5-2.8,4.4s0.9,3.6,2.6,4.6l28.3,16.2l0.9,0.5l0.9-0.5l29.2-16.7c1.7-1,2.7-2.7,2.6-4.6   c-0.1-1.9-1.2-3.6-2.9-4.4L44,22.3L43.2,22L43.2,22z"></path><path fill="#FEC201" d="M43.3,23.9l28.9,13.8c2.5,1.2,2.6,4.7,0.2,6L43.2,60.4L14.9,44.1c-2.4-1.4-2.3-4.7,0.2-6L43.3,23.9    M43.3,22.6l-0.5,0.3L14.5,37.2C13,37.9,12,39.4,12,41.1c0,1.7,0.8,3.2,2.3,4l28.3,16.2l0.6,0.3l0.6-0.3L73,44.7   c1.5-0.8,2.4-2.4,2.3-4.1c-0.1-1.7-1.1-3.2-2.6-3.9L43.8,22.8L43.3,22.6L43.3,22.6z"></path><path fill="#FCE691" d="M43.3,23.9l28.9,13.8c2.5,1.2,2.6,4.7,0.2,6L43.2,60.4L14.9,44.1c-2.4-1.4-2.3-4.7,0.2-6L43.3,23.9    M43.3,23.2L43,23.4L14.8,37.7c-1.3,0.7-2.2,2-2.2,3.4c0,1.5,0.7,2.8,2,3.5l28.3,16.2l0.3,0.2l0.3-0.2l29.2-16.7   c1.3-0.8,2.1-2.1,2-3.6s-0.9-2.8-2.3-3.4L43.6,23.3L43.3,23.2L43.3,23.2z"></path><path fill="#6D6C6C" d="M28.2,55.1h-5.9c-0.9,0-1.8-0.8-2-1.7l-1-5.9c-0.2-0.9,0.5-1.7,1.4-1.7h5.9c0.9,0,1.8,0.8,2,1.7l1,5.9   C29.7,54.3,29.1,55.1,28.2,55.1z"></path><path fill="#FEE379" stroke="#8A602E" stroke-width="0.1975" stroke-miterlimit="10" d="M28.6,54.6h-5.9c-0.9,0-1.8-0.8-2-1.7   l-1-5.9c-0.2-0.9,0.5-1.7,1.4-1.7H27c0.9,0,1.8,0.8,2,1.7l1,5.9C30.1,53.8,29.5,54.6,28.6,54.6z"></path><path d="M26,52.4l-1.4-3.1l-0.3,3.1h-1l-2.1-4.6h1.1l1.4,3.3l0.3-3.3h0.8l1.4,3.3l0.2-3.3h1.1L27,52.4H26z"></path><path fill="#6D6C6C" d="M37.4,54.4h-5.9c-0.9,0-1.6-0.8-1.4-1.7l1-5.9c0.2-0.9,1.1-1.7,2-1.7H39c0.9,0,1.6,0.8,1.4,1.7l-1,5.9   C39.2,53.6,38.3,54.4,37.4,54.4z"></path><path fill="#FEE379" stroke="#8A602E" stroke-width="0.1975" stroke-miterlimit="10" d="M36.9,53.7H31c-0.9,0-1.6-0.8-1.4-1.7   l1-5.9c0.2-0.9,1.1-1.7,2-1.7h5.9c0.9,0,1.6,0.8,1.4,1.7l-1,5.9C38.7,53,37.9,53.7,36.9,53.7z"></path><path d="M35.1,46.9c1.4,0,2.2,1,2,2.4s-1.4,2.4-2.8,2.4c-1.4,0-2.2-1-2-2.4C32.6,47.9,33.8,46.9,35.1,46.9z M35,47.7   c-0.8,0-1.5,0.7-1.7,1.5s0.3,1.5,1.1,1.5s1.5-0.7,1.7-1.5S35.8,47.7,35,47.7z"></path><path fill="#6D6C6C" d="M46.4,55.7L40.5,55c-0.9-0.1-1.6-0.9-1.5-1.9l0.7-5.9c0.1-0.9,0.9-1.6,1.9-1.5l5.9,0.7   c0.9,0.1,1.6,0.9,1.5,1.9l-0.7,5.9C48.2,55.2,47.3,55.8,46.4,55.7z"></path><path fill="#FEE379" stroke="#8A602E" stroke-width="0.1975" stroke-miterlimit="10" d="M46.4,54.7L40.5,54   c-0.9-0.1-1.6-0.9-1.5-1.9l0.7-5.9c0.1-0.9,0.9-1.6,1.9-1.5l5.9,0.7c0.9,0.1,1.6,0.9,1.5,1.9l-0.7,5.9   C48.2,54.2,47.3,54.8,46.4,54.7z"></path><path d="M44.5,52.3l-0.7-1.7l-0.7-0.1l-0.2,1.6L42,52l0.6-4.5l2.1,0.3c0.9,0.1,1.5,0.8,1.3,1.7c-0.1,0.8-0.7,1.2-1.2,1.2l0.8,1.9   L44.5,52.3z M44.4,48.5l-1-0.1l-0.2,1.3l1,0.1c0.4,0,0.7-0.2,0.8-0.6C45,48.8,44.8,48.5,44.4,48.5z"></path><path fill="#6D6C6C" d="M57.3,54.2l-5.9,0.6c-0.9,0.1-1.8-0.6-2-1.5l-1.2-5.8c-0.2-0.9,0.4-1.8,1.3-1.9l5.9-0.6   c0.9-0.1,1.8,0.6,2,1.5l1.2,5.8C58.8,53.3,58.2,54.1,57.3,54.2z"></path><path fill="#FEE379" stroke="#8A602E" stroke-width="0.1975" stroke-miterlimit="10" d="M57.5,53.5l-5.9,0.6   c-0.9,0.1-1.8-0.6-2-1.5l-1.2-5.8c-0.2-0.9,0.4-1.8,1.3-1.9l5.9-0.6c0.9-0.1,1.8,0.6,2,1.5l1.2,5.8C59.1,52.6,58.5,53.4,57.5,53.5z   "></path><path d="M52.1,51.9l-0.9-4.5l1.8-0.2c1.4-0.1,2.6,0.7,2.9,2s-0.5,2.4-2,2.5L52.1,51.9z M52.9,50.9l0.8-0.1c0.9-0.1,1.3-0.8,1.1-1.6   s-0.8-1.4-1.7-1.3L52.3,48L52.9,50.9z"></path><path fill="#6D6C6C" d="M66.7,54.8h-5.9c-0.9,0-1.6-0.8-1.6-1.7l0.5-5.9c0.1-0.9,0.9-1.7,1.9-1.7h5.9c0.9,0,1.6,0.8,1.6,1.7   l-0.5,5.9C68.5,54,67.7,54.8,66.7,54.8z"></path><path fill="#FEE379" stroke="#8A602E" stroke-width="0.1975" stroke-miterlimit="10" d="M66.1,54.1h-5.9c-0.9,0-1.6-0.8-1.6-1.7   l0.5-5.9c0.1-0.9,0.9-1.7,1.9-1.7h5.9c0.9,0,1.6,0.8,1.6,1.7L68,52.4C67.8,53.4,67,54.1,66.1,54.1z"></path><path d="M62,50.5c0.3,0.3,0.8,0.6,1.4,0.6c0.5,0,0.8-0.3,0.8-0.5c0-0.3-0.4-0.5-0.9-0.6c-0.7-0.2-1.7-0.4-1.6-1.4   c0.1-0.8,0.8-1.4,1.9-1.4c0.7,0,1.3,0.2,1.7,0.6l-0.6,0.7c-0.3-0.3-0.8-0.5-1.3-0.5s-0.7,0.2-0.7,0.5s0.4,0.4,0.9,0.5   c0.8,0.2,1.7,0.4,1.6,1.4c-0.1,0.8-0.7,1.5-2,1.5c-0.9,0-1.5-0.3-1.9-0.7L62,50.5z"></path><path fill="#6D6C6C" d="M69.4,34.2c0.5,0.1,1,0.1,1.4,0.2c0.3,0.1,0.6,0.1,0.9,0.2c0.3,0.1,0.5,0.3,0.6,0.7s-0.2,0.7-0.6,0.6   c-0.7-0.1-1.4-0.2-2.1-0.2h-0.1c0.1,0.3,0.1,0.6,0.2,0.9c0.2,0.7,0.2,1.5,0,2.2c-0.3,0.8-0.8,1.4-1.4,1.9c-0.8,0.6-1.8,1-2.8,1   c-0.9,0-1.7-0.2-2.3-0.9c-0.3-0.3-0.5-0.7-0.7-1.2c0,0,0,0-0.1-0.1c0,0.1,0,0.1-0.1,0.1c-0.5,0.6-1.1,1.1-1.8,1.5   c-0.4,0.2-0.9,0.3-1.4,0.2c-0.7-0.1-1.1-0.7-1.2-1.4c-0.1-0.4,0-0.7,0.1-1c0-0.1,0-0.1,0-0.2c0,0.2,0,0.3-0.1,0.4   c-0.5,0.7-1,1.3-1.6,1.7c-0.5,0.4-1.1,0.7-1.8,0.7c-1,0.1-1.7-0.4-2-1.4c-0.1-0.3-0.1-0.7-0.2-1V39c-0.2,0.2-0.4,0.4-0.7,0.6   c-1,0.8-2.1,1.5-3.2,2.1c-0.1,0.1-0.2,0.1-0.2,0.2c-0.4,0.9-0.9,1.8-1.3,2.7c-0.4,0.8-0.9,1.5-1.7,2C44.5,47,43.8,47.1,43,47   c-0.6-0.1-1.1-0.2-1.6-0.6c-0.7-0.6-0.9-1.3-0.7-2.1c0.1-0.6,0.5-0.9,1-1.2s1.1-0.4,1.7-0.6c0.9-0.3,1.7-0.6,2.6-0.9   c0.1,0,0.2-0.1,0.2-0.2c0.3-0.6,0.6-1.2,0.9-1.7v-0.1c-0.2,0.2-0.3,0.4-0.5,0.6c-0.6,0.7-1.3,1.2-2.3,1.4c-0.6,0.1-1.1,0.1-1.6-0.3   C42.3,41,42,40.6,41.9,40c-0.1-0.3-0.1-0.6-0.1-0.8c-0.1,0.1-0.3,0.3-0.5,0.4c-0.9,0.8-1.8,1.4-2.9,1.8c-0.8,0.3-1.6,0.4-2.3,0.1   c-1.1-0.3-1.7-1.1-1.9-2.2c-0.2-1,0-2,0.4-2.9c0.7-1.6,1.8-2.8,3.2-3.7c0.6-0.4,1.3-0.7,2.1-0.8c0.6-0.1,1.2,0,1.8,0.3   s0.9,0.8,0.9,1.5c0.1,1-0.3,1.8-1.1,2.4c-0.6,0.6-1.4,0.8-2.3,1c-0.7,0.1-1.5,0.1-2.2,0h-0.1c-0.2,0.5-0.3,1.1-0.2,1.7   c0.1,0.5,0.5,0.8,1,0.9c0.7,0.1,1.4-0.1,2-0.5c1-0.6,1.8-1.4,2.6-2.3c0.3-0.3,0.4-0.7,0.7-1c0.8-1.3,1.9-2.3,3.2-3.1   c0.7-0.4,1.4-0.7,2.3-0.8c0.5-0.1,0.9-0.1,1.4,0.1c0.6,0.2,1.1,0.6,1.2,1.2c0.3,0,0.6-0.1,0.9,0c0.5,0,0.8,0.3,0.8,0.8   c0,0.2-0.1,0.4-0.2,0.7c-0.8,1.3-1.6,2.7-2.3,4c-0.2,0.4-0.5,0.9-0.7,1.3c0.1,0,0.1-0.1,0.2-0.1c1.2-0.8,2.3-1.8,3.1-2.9   c0.3-0.4,0.5-0.8,0.8-1.2c0.9-1.4,2.1-2.5,3.6-3.2c0.8-0.4,1.6-0.6,2.5-0.6c0.4,0,0.8,0.1,1.2,0.3c0.3,0.2,0.5,0.5,0.7,0.9v0.1   c0.3,0,0.6-0.1,0.9,0c0.6,0,0.9,0.5,0.8,1.1c-0.1,0.2-0.1,0.4-0.2,0.6c-0.4,0.7-0.9,1.3-1.3,2c-0.4,0.6-0.8,1.2-1.1,1.8   c-0.1,0.2-0.2,0.4-0.2,0.5c-0.1,0.3,0.1,0.5,0.4,0.3c0.2-0.1,0.5-0.2,0.7-0.4c0.5-0.4,1-0.9,1.5-1.4c0.1-0.1,0.2-0.3,0.3-0.5   c0.5-0.8,1.1-1.4,1.9-1.9c0.2-0.1,0.5-0.3,0.8-0.4c0.2-0.1,0.3-0.3,0.5-0.4c0.8-0.7,1.6-1.5,2.4-2.2c0.4-0.4,0.8-0.7,1.2-1   c0.3-0.1,0.6-0.3,0.9-0.2c0.5,0.1,0.8,0.6,0.4,1c-0.2,0.3-0.5,0.6-0.8,0.8c-0.4,0.3-0.6,0.7-0.8,1.2C69.5,34.1,69.5,34.1,69.4,34.2   z M55,39.3c0.4,0,0.7-0.1,1-0.3c0.6-0.3,1.1-0.7,1.6-1.2c1.1-1.2,2-2.5,2.9-3.8c0.1-0.1,0-0.2,0-0.3c-0.1-0.1-0.2-0.2-0.3-0.2   c-0.2,0-0.5,0-0.7,0c-0.4,0.1-0.8,0.3-1.1,0.6c-0.7,0.5-1.3,1.1-1.9,1.8c-0.5,0.6-1,1.3-1.4,2c-0.2,0.4-0.3,0.7-0.3,1.1   C54.6,39.2,54.7,39.3,55,39.3z M44.5,39.3c0.1,0,0.1,0,0.2,0c0.5-0.1,0.9-0.3,1.3-0.5c0.6-0.4,1.2-1,1.6-1.5c0.9-1,1.6-2.1,2.4-3.3   c0.1-0.1,0-0.2,0-0.2c-0.1-0.1-0.1-0.2-0.2-0.2c-0.3-0.1-0.6-0.1-0.9,0c-0.4,0.1-0.8,0.3-1.1,0.6c-0.8,0.5-1.4,1.2-2,1.8   c-0.5,0.6-1,1.3-1.4,2.1c-0.1,0.3-0.3,0.6-0.3,1C44.2,39.2,44.2,39.3,44.5,39.3z M68,35.8c-0.3,0.1-0.6,0.2-0.9,0.3   c-0.8,0.3-1.6,0.8-2.2,1.5c-0.3,0.4-0.6,0.9-0.5,1.5c0,0.3,0.2,0.6,0.5,0.7c0.1,0,0.3,0,0.5,0c0.6-0.1,1.2-0.4,1.6-0.8   c0.7-0.6,1-1.4,1.1-2.3C68,36.5,68,36.2,68,35.8z M37.4,35.8C37.5,35.8,37.5,35.8,37.4,35.8C37.5,35.8,37.5,35.8,37.4,35.8   c0.6,0,1.1,0,1.6-0.1c0.6-0.1,1.2-0.4,1.7-1c0.3-0.3,0.4-0.7,0.4-1.1c0-0.3-0.1-0.4-0.4-0.4c-0.3,0-0.5,0.1-0.8,0.2   c-0.8,0.4-1.5,1-2.1,1.7C37.7,35.4,37.6,35.6,37.4,35.8z M45.3,43.1C45.3,43.1,45.3,43,45.3,43.1C45.2,43.1,45.2,43.1,45.3,43.1   c-0.8,0.3-1.5,0.5-2.1,0.8C43,44,42.9,44,42.7,44.1c-0.2,0.1-0.2,0.4,0,0.5c0.1,0.1,0.3,0.1,0.4,0.1c0.6,0.1,1.2-0.1,1.6-0.7   C45,43.7,45.1,43.4,45.3,43.1z"></path><path fill="#6D6C6C" d="M38.2,29.3c0.4-0.1,0.8-0.3,1.2-0.4c0.6-0.2,1.1-0.5,1.7-0.7c0.2-0.1,0.3-0.1,0.5-0.1   c0.3,0,0.5,0.1,0.6,0.4c0.2,0.5-0.1,0.9-0.5,1.3c-0.6,0.5-1.2,0.8-1.9,1c-0.8,0.3-1.6,0.4-2.4,0.5c-0.1,0-0.1,0.1-0.2,0.1   c-0.6,1-1.1,2-1.8,2.9c-0.9,1.3-1.9,2.5-2.9,3.7c-1,1.1-2.1,2.1-3.4,2.9c-0.8,0.5-1.7,0.9-2.6,1.1c-1.3,0.3-2.3-0.2-3.1-1.2   c-0.7-0.9-0.9-2-0.6-3.1c0.2-1,0.6-2,1.1-2.9c0.6-1.2,1.3-2.4,2-3.5c0.5-0.7,0.9-1.5,1.4-2.2c0.1-0.2,0.2-0.4,0.3-0.6   c0-0.1,0-0.1,0.1-0.2c0-0.2,0-0.2-0.2-0.2c-0.7,0.1-1.3,0.3-1.8,0.7c-0.7,0.5-1.4,1.1-2.2,1.6c-0.2,0.2-0.5,0.3-0.7,0.5   c-0.5,0.3-1.2,0-1.3-0.6c-0.1-0.4,0.1-0.8,0.3-1.2c0.4-0.6,0.9-1,1.5-1.4c1.5-0.9,3.1-1.3,4.8-1.4c0.5,0,1,0.1,1.4,0.5   s0.6,0.8,0.6,1.3c0.1,0.6-0.1,1.2-0.4,1.8c-0.4,1-0.9,1.9-1.4,2.8c-0.7,1.2-1.4,2.4-1.9,3.7c-0.3,0.6-0.5,1.2-0.6,1.9   c0,0.4,0,0.7,0.1,1.1c0.1,0.3,0.2,0.4,0.6,0.3c0.5-0.1,1-0.3,1.4-0.6c0.8-0.5,1.5-1.1,2.2-1.7c1.9-1.7,3.6-3.7,5-5.8   c0.1-0.1,0.2-0.3,0.3-0.5C35,31,34.8,31,34.6,30.9c-0.5-0.2-0.9-0.4-1.3-0.8c-0.6-0.6-0.8-1.3-0.6-2.1c0.2-0.6,0.5-1,0.9-1.5   c0.6-0.7,1.3-1.2,2-1.6c0.9-0.4,2-0.1,2.5,0.5c0.4,0.5,0.6,1,0.5,1.6c-0.1,0.7-0.3,1.4-0.5,2.1C38.1,29.2,38.1,29.2,38.2,29.3   C38.2,29.2,38.2,29.2,38.2,29.3z M37,26.7c-0.1,0.1-0.2,0.1-0.3,0.1c-0.5,0.3-0.9,0.7-1.3,1.2c-0.2,0.2-0.3,0.5-0.4,0.8   c-0.1,0.4,0,0.5,0.4,0.6c0.2,0.1,0.5,0,0.7,0.1c0.1,0,0.2,0,0.2-0.1c0.2-0.5,0.4-1,0.5-1.4C36.9,27.5,37,27.1,37,26.7z"></path><path fill="#E81D12" stroke="#5D1111" stroke-width="0.25" stroke-miterlimit="10" d="M69.4,33.4c0.5,0.1,1,0.1,1.4,0.2   c0.3,0.1,0.6,0.1,0.9,0.2c0.3,0.1,0.5,0.3,0.6,0.7s-0.2,0.7-0.6,0.6c-0.7-0.1-1.4-0.2-2.1-0.2h-0.1c0.1,0.3,0.1,0.6,0.2,0.9   c0.2,0.7,0.2,1.5,0,2.2c-0.3,0.8-0.8,1.4-1.4,1.9c-0.8,0.6-1.8,1-2.8,1c-0.9,0-1.7-0.2-2.3-0.9c-0.3-0.3-0.5-0.7-0.7-1.2   c0,0,0,0-0.1-0.1c0,0.1,0,0.1-0.1,0.1c-0.5,0.6-1.1,1.1-1.8,1.5c-0.4,0.2-0.9,0.3-1.4,0.2c-0.7-0.1-1.1-0.7-1.2-1.4   c-0.1-0.4,0-0.7,0.1-1c0-0.1,0-0.1,0-0.2c-0.1,0.1-0.1,0.1-0.2,0.2c-0.5,0.7-1,1.3-1.6,1.7c-0.5,0.4-1.1,0.7-1.8,0.7   c-1,0.1-1.7-0.4-2-1.4c-0.1-0.3-0.1-0.7-0.2-1V38c-0.2,0.2-0.4,0.4-0.7,0.6c-1,0.8-2.1,1.5-3.2,2.1c-0.1,0.1-0.2,0.1-0.2,0.2   c-0.4,0.9-0.9,1.8-1.3,2.7c-0.4,0.8-0.9,1.5-1.7,2c-0.7,0.4-1.4,0.6-2.2,0.5c-0.6-0.1-1.1-0.2-1.6-0.6c-0.7-0.6-0.9-1.3-0.7-2.1   c0.1-0.6,0.5-0.9,1-1.2s1.1-0.4,1.7-0.6c0.9-0.3,1.7-0.6,2.6-0.9c0.1,0,0.2-0.1,0.2-0.2c0.3-0.6,0.6-1.2,0.9-1.7v-0.1   c-0.2,0.2-0.3,0.4-0.5,0.6c-0.6,0.7-1.3,1.2-2.3,1.4c-0.6,0.1-1.1,0.1-1.6-0.3c-0.4-0.3-0.7-0.7-0.8-1.3c-0.1-0.3-0.1-0.6-0.1-0.8   c-0.1,0.1-0.3,0.3-0.5,0.4c-0.9,0.8-1.8,1.4-2.9,1.8c-0.8,0.3-1.6,0.4-2.3,0.1c-1.1-0.3-1.7-1.1-1.9-2.2c-0.2-1,0-2,0.4-2.9   c0.7-1.6,1.8-2.8,3.2-3.7c0.6-0.4,1.3-0.7,2.1-0.8c0.6-0.1,1.2,0,1.8,0.3s0.9,0.8,0.9,1.5c0.1,1-0.3,1.8-1.1,2.4   c-0.6,0.6-1.4,0.8-2.3,1c-0.7,0.1-1.5,0.1-2.2,0h-0.1c-0.2,0.5-0.3,1.1-0.2,1.7c0.1,0.5,0.5,0.8,1,0.9c0.7,0.1,1.4-0.1,2-0.5   c1-0.6,1.8-1.4,2.6-2.3c0.3-0.3,0.4-0.7,0.7-1c0.8-1.3,1.9-2.3,3.2-3.1c0.7-0.4,1.4-0.7,2.3-0.8c0.5-0.1,0.9-0.1,1.4,0.1   c0.6,0.2,1.1,0.6,1.2,1.2c0.3,0,0.6-0.1,0.9,0c0.5,0,0.8,0.3,0.8,0.8c0,0.2-0.1,0.4-0.2,0.7c-0.8,1.3-1.6,2.7-2.3,4   c-0.2,0.4-0.5,0.9-0.7,1.3c0.1,0,0.1-0.1,0.2-0.1c1.2-0.8,2.3-1.8,3.1-2.9c0.3-0.4,0.5-0.8,0.8-1.2c0.9-1.4,2.1-2.5,3.6-3.2   c0.8-0.4,1.6-0.6,2.5-0.6c0.4,0,0.8,0.1,1.2,0.3c0.3,0.2,0.5,0.5,0.7,0.9v0.1c0.3,0,0.6-0.1,0.9,0c0.6,0,0.9,0.5,0.8,1.1   c-0.1,0.2-0.1,0.4-0.2,0.6c-0.4,0.7-0.9,1.3-1.3,2c-0.4,0.6-0.8,1.2-1.1,1.8c-0.1,0.2-0.2,0.4-0.2,0.5c-0.1,0.3,0.1,0.5,0.4,0.3   c0.2-0.1,0.5-0.2,0.7-0.4c0.5-0.4,1-0.9,1.5-1.4c0.1-0.1,0.2-0.3,0.3-0.5c0.5-0.8,1.1-1.4,1.9-1.9c0.2-0.1,0.5-0.3,0.8-0.4   c0.2-0.1,0.3-0.3,0.5-0.4c0.8-0.7,1.6-1.5,2.4-2.2c0.4-0.4,0.8-0.7,1.2-1c0.3-0.1,0.6-0.3,0.9-0.2c0.5,0.1,0.8,0.6,0.4,1   c-0.2,0.3-0.5,0.6-0.8,0.8C70.3,32.5,69.5,33.3,69.4,33.4z M55,38.5c0.4,0,0.7-0.1,1-0.3c0.6-0.3,1.1-0.7,1.6-1.2   c1.1-1.2,2-2.5,2.9-3.8c0.1-0.1,0-0.2,0-0.3c-0.1-0.1-0.2-0.2-0.3-0.2c-0.2,0-0.5,0-0.7,0c-0.4,0.1-0.8,0.3-1.1,0.6   c-0.7,0.5-1.3,1.1-1.9,1.8c-0.5,0.6-1,1.3-1.4,2c-0.2,0.4-0.3,0.7-0.3,1.1C54.6,38.4,54.7,38.5,55,38.5z M44.5,38.5   c0.1,0,0.1,0,0.2,0c0.5-0.1,0.9-0.3,1.3-0.5c0.6-0.4,1.2-1,1.6-1.5c0.9-1,1.6-2.1,2.4-3.3c0.1-0.1,0-0.2,0-0.2   c-0.1-0.1-0.1-0.2-0.2-0.2c-0.3-0.1-0.6-0.1-0.9,0c-0.4,0.1-0.8,0.3-1.1,0.6c-0.8,0.5-1.4,1.2-2,1.8c-0.5,0.6-1,1.3-1.4,2.1   c-0.1,0.3-0.3,0.6-0.3,1C44.2,38.4,44.2,38.5,44.5,38.5z M68,35c-0.3,0.1-0.6,0.2-0.9,0.3c-0.8,0.3-1.6,0.8-2.2,1.5   c-0.3,0.4-0.6,0.9-0.5,1.5c0,0.3,0.2,0.6,0.5,0.7c0.1,0,0.3,0,0.5,0c0.6-0.1,1.2-0.4,1.6-0.8c0.7-0.6,1-1.4,1.1-2.3   C68,35.7,68,35.4,68,35z M37.4,35C37.5,35,37.5,35,37.4,35C37.5,35,37.5,35,37.4,35c0.6,0,1.1,0,1.6-0.1c0.6-0.1,1.2-0.4,1.7-1   c0.3-0.3,0.4-0.7,0.4-1.1c0-0.3-0.1-0.4-0.4-0.4c-0.3,0-0.5,0.1-0.8,0.2c-0.8,0.4-1.5,1-2.1,1.7C37.7,34.6,37.6,34.8,37.4,35z    M45.3,42.2L45.3,42.2C45.2,42.2,45.2,42.2,45.3,42.2c-0.8,0.3-1.5,0.5-2.1,0.8c-0.2,0.1-0.3,0.1-0.5,0.2c-0.2,0.1-0.2,0.4,0,0.5   c0.1,0.1,0.3,0.1,0.4,0.1c0.6,0.1,1.2-0.1,1.6-0.7C45,42.9,45.1,42.6,45.3,42.2z"></path><path fill="#E81D12" stroke="#5D1111" stroke-width="0.25" stroke-miterlimit="10" d="M38.2,28.4c0.4-0.1,0.8-0.3,1.2-0.4   c0.6-0.2,1.1-0.5,1.7-0.7c0.2-0.1,0.3-0.1,0.5-0.1c0.3,0,0.5,0.1,0.6,0.4c0.2,0.5-0.1,0.9-0.5,1.3c-0.6,0.5-1.2,0.8-1.9,1   c-0.8,0.3-1.6,0.4-2.4,0.5c-0.1,0-0.1,0.1-0.2,0.1c-0.6,1-1.1,2-1.8,2.9c-0.9,1.3-1.9,2.5-2.9,3.7c-1,1.1-2.1,2.1-3.4,2.9   c-0.8,0.5-1.7,0.9-2.6,1.1c-1.3,0.3-2.3-0.2-3.1-1.2c-0.7-0.9-0.9-2-0.6-3.1c0.2-1,0.6-2,1.1-2.9c0.6-1.2,1.3-2.4,2-3.5   c0.5-0.7,0.9-1.5,1.4-2.2c0.1-0.2,0.2-0.4,0.3-0.6c0-0.1,0-0.1,0.1-0.2c0-0.2,0-0.2-0.2-0.2c-0.7,0.1-1.3,0.3-1.8,0.7   c-0.7,0.5-1.4,1.1-2.2,1.6c-0.2,0.2-0.5,0.3-0.7,0.5c-0.5,0.3-1.2,0-1.3-0.6c-0.1-0.4,0.1-0.8,0.3-1.2c0.4-0.6,0.9-1,1.5-1.4   c1.5-0.9,3.1-1.3,4.8-1.4c0.5,0,1,0.1,1.4,0.5s0.6,0.8,0.6,1.3c0.1,0.6-0.1,1.2-0.4,1.8c-0.4,1-0.9,1.9-1.4,2.8   c-0.7,1.2-1.4,2.4-1.9,3.7c-0.3,0.6-0.5,1.2-0.6,1.9c0,0.4,0,0.7,0.1,1.1c0.1,0.3,0.2,0.4,0.6,0.3c0.5-0.1,1-0.3,1.4-0.6   c0.8-0.5,1.5-1.1,2.2-1.7c1.9-1.7,3.6-3.7,5-5.8c0.1-0.1,0.2-0.3,0.3-0.5c-0.2-0.1-0.5-0.1-0.7-0.2c-0.5-0.2-0.9-0.4-1.3-0.8   c-0.6-0.6-0.8-1.3-0.6-2.1c0.2-0.6,0.5-1,0.9-1.5c0.6-0.7,1.3-1.2,2-1.6c0.9-0.4,2-0.1,2.5,0.5c0.4,0.5,0.6,1,0.5,1.6   c-0.1,0.7-0.3,1.4-0.5,2.1C38.1,28.3,38.1,28.3,38.2,28.4L38.2,28.4z M37,25.8c-0.1,0.1-0.2,0.1-0.3,0.1c-0.5,0.3-0.9,0.7-1.3,1.2   c-0.2,0.2-0.3,0.5-0.4,0.8c-0.1,0.4,0,0.5,0.4,0.6c0.2,0.1,0.5,0,0.7,0.1c0.1,0,0.2,0,0.2-0.1c0.2-0.5,0.4-1,0.5-1.4   S37,26.3,37,25.8z"></path><path fill="#6D6C6C" d="M23.2,34.1l-6.3-1.7l2.3-4.9c0-0.1,0-0.1-0.1-0.1L15.4,31l-1.3-10.3c0-0.1-0.1-0.1-0.1,0l-1.2,10l-3.6-3.3   c0,0-0.1,0-0.1,0.1l2.4,5.1L5,34.3c-0.1,0-0.1,0.2,0,0.2l6.7,1.9L9,41.6c0,0.1,0,0.1,0.1,0.1l3.8-3.7L14,48.1c0,0.1,0.1,0.1,0.1,0   l1.2-10.4l3.8,3.5c0,0,0.1,0,0.1-0.1l-2.4-5L23.2,34.1C23.2,34.2,23.2,34.1,23.2,34.1z"></path><path fill-opacity="0.41" d="M19,41l-5.1-4.4l-5,4.6c0,0-0.1,0-0.1-0.1l3.2-6.9l-3.2-7c0-0.1,0.1-0.3,0.1-0.2l5.2,5.2l4.9-5.1   c0,0,0.1,0,0.1,0.1l-3.3,7L19,41C19.1,41,19,41,19,41z"></path><path fill="#E9292A" d="M23.1,33.7L16.7,32l2.3-4.9c0-0.1,0-0.1-0.1-0.1l-3.7,3.6L14,20.3c0-0.1-0.1-0.1-0.1,0l-1.2,10L9,26.9   c0,0-0.1,0-0.1,0.1l2.4,5.1l-6.5,1.7c-0.1,0-0.1,0.2,0,0.2l6.7,1.9L8.8,41c0,0.1,0,0.1,0.1,0.1l3.8-3.7l1.2,10.4   c0,0.1,0.1,0.1,0.1,0l1.2-10.4l3.8,3.5c0,0,0.1,0,0.1-0.1l-2.4-5l6.4-1.9C23.1,33.9,23.1,33.7,23.1,33.7z"></path><path fill="#FEC201" d="M18,39.5l-4.1-3.8l-4,4c0,0-0.1,0-0.1-0.1l2.9-5.5L10,28.4c0-0.1,0-0.1,0.1-0.1l4.1,3.8l3.9-3.8   c0,0,0.1,0,0.1,0.1l-2.7,5.3L18,39.5C18.1,39.5,18.1,39.5,18,39.5z"></path><g><path fill="#FFFEC6" d="M13.8,44.4l-0.1-0.2l-1-8.4l-6.2-1.7v-0.2c0-0.1,0.1-0.2,0.2-0.3l6-1.6l1-8.2l0.2-0.1    c0.1,0,0.2,0.1,0.3,0.2l1,8l6.2,1.7v0.2c0,0.1-0.1,0.2-0.2,0.3l-6,1.6l-1,8.6L14,44.4H13.8z"></path><path fill="#E81D12" d="M14,23.9C14,23.9,14.1,23.9,14,23.9l1.1,8.2l6.2,1.7c0.1,0,0.1,0.1,0,0.1l-6.2,1.6l-1,8.5    c0,0,0,0.1-0.1,0.1s0,0-0.1-0.1l-1-8.5l-6.2-1.6c-0.1,0-0.1-0.1,0-0.1l6.2-1.7L14,23.9L14,23.9 M14,23.5c-0.2,0-0.4,0.2-0.5,0.4    l-1,7.9l-5.9,1.6c-0.2,0.1-0.4,0.2-0.4,0.5c0,0.2,0.1,0.4,0.4,0.5l5.9,1.6l1,8.3c0,0.2,0.2,0.4,0.5,0.4c0.2,0,0.4-0.2,0.5-0.4    l1-8.3l5.9-1.6c0.2-0.1,0.4-0.2,0.4-0.5c0-0.2-0.1-0.4-0.4-0.5l-5.9-1.6l-1-7.9C14.4,23.6,14.3,23.5,14,23.5L14,23.5z"></path></g></g></svg>