<?xml version="1.0" encoding="UTF-8"?>
<svg id="Layer_1" xmlns="http://www.w3.org/2000/svg" version="1.2" viewBox="0 0 600 600" baseProfile="tiny-ps">
  <title>rePurpose Global Sunrise Logo</title>
  <defs>
  </defs>
  <path fill="#01696c" stroke-width="0px" d="M199.4,113c14-6.5,28.6-11.7,43.6-15.4,91.8-22.6,170.5-4.4,223.2,77.3,11.3,17.6,31.7,46.2,36.1,66.7,11.5,53.3,3.6,109.8-23.1,156.4-34.4,60.1-96.8,110-164.5,110.5-69.9.5-138.6-37.7-179.6-90.4-41.2-53.1-41.3-95.8-39.5-159.9,2.1-67.9,46.2-118.3,103.8-145.2ZM194.1,95.5c-5.8,2.9-11.5,6.1-17.1,9.3-21.7,12.7-43.5,24.8-57.3,46.6-33.5,52.9-47.1,118.4-38.2,180.4,18.8,131.2,178.1,244.3,304.3,172.6l24.7-14c37.5-21.3,64.7-57,84.6-94.5,10.3-19.5,20.5-40.5,23.4-63,3.3-25.5,3.6-51.3,1-76.9-.2-1.6-.4-3.2-.6-4.9-2.8-21-11.4-37.4-20.1-56.3-24.3-52.3-85.7-99.5-141.3-113.8-19.2-5-39-7-58.8-7.7-18-.6-37.2,3.4-55,5.8-17.3,2.4-33.9,8.5-49.6,16.4h0Z"/>
  <path fill="#e8803f"  stroke-width="0px" d="M178.8,266.8h0c3.5-28.8,11.8-45.3,24.7-61.2,14.3-17.7,32.5-31.9,54.4-38.8,71.9-22.5,153.4,29.9,164.9,104.1,2.7,17.7,0,33.7-1.7,51.1-.2,2.1-.3,4.5.9,6.2,2.9,4.2,34.1-2.3,39.8-3.3,10.5-1.8,24.1-5.5,25.4-18.1,3.2-31.7-.2-65.7-17.3-93.3-19.6-31.6-44.3-61.2-76.6-80.6-78.1-46.9-185.6-23.4-244.6,43.4-21.7,24.6-36.4,63.1-34.2,96.5l64.3-6Z"/>
  <path fill="#efc993"  stroke-width="0px" d="M198,266.1c12.1-24.1,21.2-41.5,38.8-54.7,37.1-27.8,89.2-24.9,124,5.1,16.1,13.9,28.6,32,35,52.4,3.2,10.2,4.9,20.9,4.8,31.6v28.9c-3.1.3-15.7-2.8-18.6-3.8-4-1.3-16.8-2.7-18.9-6.5-.4-.8-.5-1.8-.3-2.7,1.2-12,3.5-24.6,2-36.7-4-32.4-33.8-63.5-67.8-62.1-15.5.6-29.4,8.1-40.3,18.8-8,7.9-14.5,17.2-19.2,27.4-.5,1.4-1.3,2.7-2.1,3.9-4.5,5.4-11.1,3-16.8,1.3-2.5-.6-19.6-4.9-20.6-2.9Z"/>
  <path fill="#f1b553"  stroke-width="0px" d="M257.8,272.9c6.2-20,26.7-31,46.6-32.1,13-.8,26.5,2.6,36.3,11.5,7.1,6.5,11.4,15.4,13.4,24.8,1.7,8.3,1.1,16.9-1.9,24.8-1.8,5.2-4.3,13-9.7,14.1s-10.3-2.7-15.4-5c-10.3-4.7-18-9.1-29.1-14.3-13.3-6.2-26.5-9.6-40.4-14.6-1.8-.9-1-5.2.2-9.2Z"/>
  <path fill="#00959a"  stroke-width="0px" d="M111.4,283.5v22.6l2.8,27,5.3,16.2,2.7,2.7c2.2,2.2,14.4-2.9,17-3.8,9.5-3.2,19.4-5.2,29.5-5.9,33-2.5,66.2.6,98.6,7.4,24.1,5.1,46.9,14.6,70.2,22.4,21.6,7.2,44.1,11.4,66.9,12.3,18.5.8,38.6.6,56.5-4.4,10.1-2.9,13.8-13,15.8-22.4,1.6-7.4,2.4-15.2,5.1-22.2-27.9,11-49.5,7.8-80,5.2-26-2.2-54.2-7.4-78.7-16.5-26-9.7-49.3-26-76.4-33.1-21.9-5-43-11.6-65.6-12.5-23.8-.8-46.4-.5-69.7,5Z"/>
  <path fill="#43afae"  stroke-width="0px" d="M127.6,366.5c-2.5-6,40-15.5,44.7-16.2,31.1-4.3,62.5,3.9,91.4,14.9,29.9,11.4,64.5,25,96.1,31.6,35.7,7.5,68.9,16.6,97.3-2.8.4-.3.9-.2,1.2.2,0,.2.2.5,0,.7-.3.8-.6,1.6-1.1,2.2-2.2,3.1-3.2,6-7.3,11.5-8.4,10.8-17.4,21.1-27.1,30.8h0l-13.3,12.1q0,.1-.2.1c-8.4,5.6-61.5-11.8-80.6-20.5-26.2-12-46.1-29-72.2-41-32.3-14.8-74.2-18.6-108.4-8.1l-11.7,3.6c-.4.1-.8-.1-1-.5l-7.9-18.6Z"/>
  <path fill="#65b8c0"  stroke-width="0px" d="M147.5,403.8c23.1-7.1,52.1-19.4,75-7.4,16.2,8.6,30.3,19,46.3,28.1,8.1,4.6,16.2,9,24.6,13,13.9,6.6,28.2,12.4,42.4,18.4s28.6,11.8,44,13.1c4.3.5,8.7.2,12.9-.8-3.6,1-7.6,4.3-10.9,6.1-7.1,3.9-14.2,8.2-21.9,10.9-35.7,12.9-75.3,9.2-110.2-4.5-17.3-7-33.9-15.8-49.4-26.3-14.8-9.8-30.8-20.2-42.5-33.7-1.1-1.2-11.6-16.7-10.5-17h.2Z"/>
</svg>