<?xml version="1.0" encoding="utf-8"?>
<!-- Generator: Adobe Illustrator 28.0.0, SVG Export Plug-In . SVG Version: 6.00 Build 0)  -->
<svg version="1.2" baseProfile="tiny-ps" id="Layer_1" xmlns="http://www.w3.org/2000/svg" xmlns:xlink="http://www.w3.org/1999/xlink"
	  viewBox="0 0 1700 1700"  xml:space="preserve">
	  <title>Mode Mobile</title>
<rect fill="#240142" width="1700" height="1700"/>
<path fill="#FFFFFF" d="M228.3,1007.4c0,0-28.2,0-42.8,0c0-83.4,0-166.4,0-249.9c12.3,0,25.1,0,38.8,0c0,8.1,0,24.4,0,24.4
	s1.2,1,1.8,1.6c18.3-23.9,42.5-33,71.5-31.2c29.6,1.8,52,14.6,66.7,41.4c1.7-2.1,3.2-3.7,4.2-5.5c20.4-31.7,51.4-39.8,86.1-35.7
	c49,5.5,79.9,40.5,81.3,92.2c1.4,52.2,0.6,104.3,0.8,156.5c0,1.2-0.3,2.2-0.6,2.5h-44.3c-0.2-1.5-0.5-4.2-0.5-6.7
	c-0.3-44.7,0.1-89.4-1.1-134.1c-0.5-14.2-3.2-29.1-8.3-42.5c-7.4-19.4-26.9-29-49-27.5c-23.6,1.5-38.3,12-44,33.9
	c-3.6,14.1-5.4,28.7-5.6,43.2c-0.6,41.7,0,83.4,0,125.3c0,3.1,0,10.3,0,10.3h-44.8c0,0,0-7,0-10.3c-0.2-41.1,0.5-82.4-0.6-123.5
	c-0.5-15.2-2.9-30.9-7.2-45.6c-6.3-21.7-21.3-31.7-44-32.7c-23.3-1-40.7,9.1-49.9,29.3c-8.3,18.1-9.2,37.5-9.2,57
	c-0.2,38.4,0.3,76.8,0.4,115.4C228.3,998.3,228.3,1007.4,228.3,1007.4z M1146.2,774.8c-42.1-35.4-108.6-38.4-152.9-5.4
	c-45.2,33.8-61.1,80-51.4,134.2c8.3,46.5,35.2,80,80.4,96.3c45.5,16.4,88.5,11.5,126.2-21.1c1.7-1.3,3.5-2.5,4.8-4.9v28
	c0,0,33.3,0,48.1,0c0-110.2,0-219.7,0-328.9c-15.9,0-30.8,0-46.1,0c0,36.3,0,109,0,109S1148.5,776.6,1146.2,774.8z M1071.7,790.6
	c46.4-0.2,85.8,41.1,85.3,89.4c-0.5,45.4-40.7,86.1-84.4,85.7c-48.4-0.6-86.4-39.8-86.2-89.2C986.5,829.2,1024.7,790.8,1071.7,790.6
	z M1491.8,920.4c-6.5-0.3-9.9,1.8-13.7,7.2c-18.6,28-52.3,40.2-86.1,32c-31.6-7.6-57.1-35.9-60.7-68c35.1,0,70.2,0,105.2,0
	c34.9,0,69.9,0,106.2,0c-1.4-15.8-2-29.6-3.9-43.1c-12.6-83.6-106.4-132.3-182.7-95.2c-58.3,28.4-87.3,96.9-67.8,160.7
	c19.4,63.8,77.4,101.1,143.8,92.2c44.5-6,84-37.2,100.8-85.7C1519.2,920.5,1505.6,920.8,1491.8,920.4z M1423.1,787.2
	c32.5,2.7,65.2,33.5,67.3,63.8c-52.4,0-104.7,0-157.5,0C1342.7,808.9,1378.6,783.6,1423.1,787.2z M733.5,696.2
	c-65.5-9.9-116,33.3-116,99.1c0,65.3,52.3,128.9,116.7,141.9c68.7,13.9,123.2-28.7,123.6-96.4C858.2,771.7,802.2,706.5,733.5,696.2z
	 M801.9,787.2c12.5,19.1,18,40.4,12.9,63.1c-7.5,33.5-40,52.8-76,45.7c-42.4-8.2-80.2-54.4-79.8-97.3c0.3-35.6,28.1-62.6,69.9-61.9
	C758.3,739.2,783.2,758.7,801.9,787.2z M610.8,986.6c93.9,32.1,187.9,32.7,281.7-2.4c-93.7-34.8-187.6-34.7-281.5-2.2
	C610.9,983.5,610.8,985,610.8,986.6z"/>
</svg>
