<?xml version="1.0" encoding="UTF-8"?>
<svg id="Layer_1" xmlns="http://www.w3.org/2000/svg" baseProfile="tiny-ps" version="1.2" viewBox="0 0 80 80" xml:space="preserve">
<title>Heart and Stroke Foundation of Canada</title>
  <!-- Generator: Adobe Illustrator 29.1.0, SVG Export Plug-In . SVG Version: 2.1.0 Build 142)  -->
  <rect width="80" height="80" fill="#d21"/>
  <g id="Mark_x5F_RGB_x5F_White_x5F_BIL_x5F_EN">
    <g>
      <path d="M43.1,28.3c-3.7-3.6-9.7-3.2-13.5.2-3.8-3.5-9.8-3.8-13.5-.2-1.9,1.8-2.8,4.6-2.8,7.1,0,10.3,15.5,18.7,16.4,18.7s16.4-8.4,16.4-18.7c0-2.4-1-5.3-2.9-7.1Z" fill="#fff"/>
      <polygon points="51 54.3 42.2 54.3 58.1 26.7 66.9 26.7 51 54.3" fill="#fff"/>
      <path d="M43.1,28.3c-3.7-3.6-9.7-3.2-13.5.2-3.8-3.5-9.8-3.8-13.5-.2-1.9,1.8-2.8,4.6-2.8,7.1,0,10.3,15.5,18.7,16.4,18.7s16.4-8.4,16.4-18.7c0-2.4-1-5.3-2.9-7.1Z" fill="#fff"/>
      <polygon points="51 54.3 42.2 54.3 58.1 26.7 66.9 26.7 51 54.3" fill="#fff"/>
    </g>
  </g>
  <g>
    <path d="M53.8,52h1.8v.4h-.7v1.8h-.4v-1.8h-.7v-.4Z" fill="#fff"/>
    <path d="M55.8,52h.6l.3,1.1c0,.3.1.6.1.6h0s0-.3.1-.6l.3-1.1h.6v2.2h-.4v-1.3c0-.2,0-.5,0-.5h0s0,.3,0,.4l-.4,1.3h-.4l-.4-1.3c0-.2,0-.4,0-.4h0s0,.3,0,.5v1.3h-.4v-2.2Z" fill="#fff"/>
    <path d="M59,52h.3l-.9,2.2h-.3l.9-2.2Z" fill="#fff"/>
    <path d="M59.6,52h.6l.3,1.1c0,.3.1.6.1.6h0s0-.3.1-.6l.3-1.1h.6v2.2h-.4v-1.3c0-.2,0-.5,0-.5h0s0,.3,0,.4l-.4,1.3h-.4l-.4-1.3c0-.2,0-.4,0-.4h0s0,.3,0,.5v1.3h-.4v-2.2Z" fill="#fff"/>
    <path d="M62,53.2c0-.7.4-1.2,1.1-1.2s.9.3.9.7h-.4c0-.2-.2-.4-.5-.4-.4,0-.6.3-.6.8s.2.8.6.8.4-.2.5-.4h.4c0,.2,0,.4-.2.5-.2.1-.4.2-.7.2-.6,0-1.1-.5-1.1-1.1Z" fill="#fff"/>
  </g>
</svg>