<?xml version="1.0" encoding="iso-8859-1"?>
<!-- Generator: Adobe Illustrator 27.3.1, SVG Export Plug-In . SVG Version: 6.00 Build 0)  -->
<svg version="1.2" baseProfile="tiny-ps" id="Layer_1" xmlns="http://www.w3.org/2000/svg" xmlns:xlink="http://www.w3.org/1999/xlink" viewBox="0 0 96 96" xml:space="preserve">
<title>Greenoaks</title>
<rect fill="#084639" width="96" height="96"/>
<g>
	
</g>
<polygon fill="#F2F4F3" points="45.859,41.456 45.859,45.835 32.577,45.835 32.577,15.136 63.423,15.136 63.423,45.835 
	50.092,45.835 50.092,41.408 58.849,41.408 58.849,19.563 37.151,19.563 37.151,41.456 "/>
<rect x="41.383" y="23.942" fill="#F2F4F3" width="13.233" height="13.136"/>
<polygon fill="#88A79D" points="32.577,50.214 45.811,50.214 45.811,67.68 50.141,67.68 50.141,58.922 54.617,58.922 54.617,72.155 
	41.383,72.155 41.383,54.544 37.151,54.544 37.151,76.437 58.801,76.437 58.801,54.544 50.092,54.544 50.092,50.214 63.423,50.214 
	63.423,80.864 32.577,80.864 "/>
</svg>
