<?xml version="1.0" encoding="utf-8"?>
<!-- Generator: Adobe Illustrator 25.4.1, SVG Export Plug-In . SVG Version: 6.00 Build 0)  -->
<svg version="1.2" baseProfile="tiny-ps" id="Calque_1"
	 xmlns="http://www.w3.org/2000/svg" xmlns:xlink="http://www.w3.org/1999/xlink" viewBox="0 0 200 200" xml:space="preserve">
<title>Lombard Odier</title>
<rect fill="#382F2D" width="200" height="200"/>
<g>
	<path fill="#FFFFFF" d="M161.3,105.5c-0.9,0.5-2.1,0.9-3.2,0.9c-3.7,0-5.9-2.5-5.9-5.8c0-4.1,3.4-6.7,7-6.7c4,0,7,2.7,7,6.9
		c0,7.6-7.4,12.1-12.8,13.2l-0.3-1C156.3,111.8,159.8,109.3,161.3,105.5z M161.8,104.3c0.2-0.9,0.4-1.9,0.4-3c0-3.4-1.4-6.1-3.5-6.1
		c-1.6,0-2.6,1.7-2.6,4c0,3,1.6,5.3,4.2,5.3C160.8,104.6,161.3,104.5,161.8,104.3z"/>
	<path fill="#FFFFFF" d="M174,96.9c0.9-0.5,2-0.9,3.1-0.9c3.5,0,5.9,2.5,5.9,5.7c0,4-3.4,6.6-7,6.6c-3.8,0-7-2.3-7-6.9
		c0-7.5,7.6-11.6,13.2-12.8l0.3,1C179.4,90.8,175.7,93.2,174,96.9z M173.6,98.1c-0.3,0.9-0.5,1.9-0.5,3c0,3.4,1.3,5.9,3.4,5.9
		c1.7,0,2.6-1.6,2.6-4c0-2.9-1.6-5.2-4-5.2C174.6,97.8,174,97.9,173.6,98.1z"/>
</g>
<g>
	<path fill="#FFFFFF" d="M30.1,106.1l3,0.4v1.3h-9.8v-1.3l3.2-0.3v-9.5H23v-1.3l6.9-1.5H30v12.2C30,106.1,30.1,106.1,30.1,106.1z"/>
	<path fill="#FFFFFF" d="M35.8,112.5l9.9-15h-9.4v-3.4h12.9v0.5L40.6,109l-2.6,4.6L35.8,112.5z"/>
</g>
<path fill="#FFFFFF" d="M135.2,131.8c-1.7-2.4-4.2-5.7-7.1-9.6c-4.8-6.3-9.7-12.6-11.5-14.6l6.8-6.8h0.8c0.3,1.7,1.9,3,3.7,3
	c1,0,3.6-0.6,5.6-1.3c0.8-0.3,2-0.6,3-1c1.1-0.5,1.7-0.8,1.7-1.5c0-0.6-0.6-1-1.7-1.5c-0.9-0.4-2.1-0.8-3-1c-2-0.6-4.6-1.3-5.6-1.3
	c-1.8,0-3.3,1.3-3.7,3h-0.8l-6.8-6.8c1.8-2.1,6.8-8.4,11.5-14.6c2.9-3.8,5.4-7.1,7.1-9.6c1-1.4,1.7-2.5,2.2-3.2
	c0.7-1.1,1-1.8,0.5-2.3c-0.2-0.2-0.4-0.2-0.6-0.2c-0.4,0-1.4,0-14.9,10.3c-6.1,4.6-12.2,9.5-14.3,11.2l-6.8-6.8v-0.8
	c1.7-0.4,3-1.9,3-3.7c0-1-0.6-3.6-1.3-5.6c-0.3-0.8-0.6-2-1-3c-0.5-1.1-0.8-1.7-1.5-1.7c-0.6,0-1,0.6-1.5,1.7c-0.4,0.9-0.8,2.1-1,3
	c-0.6,2-1.3,4.6-1.3,5.6c0,1.8,1.3,3.3,3,3.7v0.8L93,83.9c-2-1.8-8.2-6.6-14.3-11.2C65.2,62.3,64.2,62.3,63.8,62.3
	c-0.2,0-0.4,0.1-0.6,0.2c-0.5,0.5-0.1,1.2,0.5,2.3c0.5,0.8,1.2,1.9,2.2,3.2c1.7,2.4,4.1,5.7,7.1,9.6c4.8,6.3,9.7,12.6,11.5,14.6
	L77.7,99h-0.8c-0.3-1.7-1.9-3-3.7-3c-1,0-3.6,0.6-5.6,1.3c-0.8,0.2-2,0.6-3,1c-1,0.6-1.6,1-1.6,1.6s0.6,1,1.7,1.5
	c0.9,0.4,2.1,0.8,3,1c2,0.6,4.6,1.3,5.6,1.3c1.8,0,3.3-1.3,3.7-3h0.8l6.8,6.8c-1.8,2.1-6.8,8.4-11.5,14.6c-2.9,3.8-5.4,7.1-7.1,9.6
	c-1,1.4-1.7,2.5-2.2,3.3c-0.7,1.1-1,1.8-0.5,2.3c0.2,0.2,0.4,0.2,0.6,0.2c0.4,0,1.4,0,14.9-10.3c6.1-4.6,12.2-9.5,14.3-11.2
	c1.5,1.5,5.8,5.8,6.8,6.8v0.8c-1.7,0.3-3,1.9-3,3.7c0,1,0.6,3.6,1.3,5.6c0.2,0.8,0.6,2,1,3c0.5,1.1,0.8,1.7,1.5,1.7
	c0.6,0,1-0.6,1.5-1.7c0.4-0.9,0.8-2.1,1-3c0.6-2,1.3-4.6,1.3-5.6c0-1.8-1.3-3.3-3-3.7v-0.8l6.8-6.8c2,1.7,8.2,6.6,14.3,11.2
	c13.5,10.3,14.5,10.3,14.9,10.3l0,0c0.2,0,0.4-0.1,0.6-0.2c0.5-0.5,0.1-1.2-0.5-2.3C136.9,134.1,136.1,133.1,135.2,131.8z
	 M127.8,97.6c1.3,0,6.3,1.4,8.2,2.3c-1.9,0.8-6.9,2.3-8.2,2.3c-1.2,0-2.3-1-2.3-2.3C125.6,98.8,126.6,97.6,127.8,97.6z M73.2,102.2
	c-1.3,0-6.3-1.4-8.2-2.3c1.9-0.8,6.9-2.3,8.2-2.3c1.2,0,2.3,1,2.3,2.3C75.5,101.1,74.5,102.2,73.2,102.2z M108.1,86l0.5-0.5
	c1-1,7.7-6.3,14.3-11.3c6.5-4.9,10.5-7.8,12.6-9.2c-1.4,2.1-4.3,6.1-9.2,12.6c-5.1,6.7-10.4,13.4-11.3,14.3l-0.5,0.5l6.8,6.8h-11.6
	c-0.4-4.5-3.9-8.1-8.4-8.4V79.2L108.1,86z M98.3,72.6c0-1.3,1.4-6.3,2.3-8.2c0.8,1.9,2.3,6.9,2.3,8.2c0,1.2-1,2.3-2.3,2.3
	S98.3,73.8,98.3,72.6z M86.6,92.3l-0.5-0.5c-1-1-6.3-7.7-11.3-14.3C69.9,71,67,67,65.6,64.9c2.1,1.4,6.1,4.3,12.6,9.2
	c6.7,5.1,13.4,10.4,14.3,11.3l0.5,0.5l6.8-6.8v11.6c-4.5,0.4-8.1,3.9-8.4,8.4H79.8L86.6,92.3z M93,113.8l-0.5,0.5
	c-1,1-7.7,6.3-14.3,11.3c-6.5,4.9-10.5,7.8-12.6,9.2c1.4-2.1,4.3-6.1,9.2-12.6c5.1-6.7,10.4-13.4,11.3-14.3l0.5-0.5l-6.8-6.8h11.6
	c0.4,4.5,3.9,8.1,8.4,8.4v11.6L93,113.8z M102.8,127.2c0,1.3-1.4,6.3-2.3,8.2c-0.8-1.9-2.3-6.9-2.3-8.2c0-1.2,1-2.3,2.3-2.3
	S102.8,126,102.8,127.2z M100.5,107.6c-4.2,0-7.7-3.5-7.7-7.7s3.5-7.7,7.7-7.7s7.7,3.5,7.7,7.7S104.8,107.6,100.5,107.6z M123,125.8
	c-6.7-5.1-13.4-10.4-14.3-11.3l-0.5-0.5l-6.8,6.8v-11.6c4.5-0.4,8.1-3.9,8.4-8.4h11.6l-6.8,6.8l0.5,0.5c1,1,6.3,7.7,11.4,14.3
	c4.9,6.5,7.8,10.5,9.2,12.6C133.5,133.6,129.4,130.8,123,125.8z"/>
</svg>
