<?xml version="1.0" encoding="UTF-8"?>
<!-- Generator: Adobe Illustrator 29.1.0, SVG Export Plug-In . SVG Version: 2.1.0 Build 142) -->
<svg version="1.2" baseProfile="tiny-ps" id="Layer_1" xmlns="http://www.w3.org/2000/svg" xmlns:xlink="http://www.w3.org/1999/xlink" viewBox="0 0 512 512" xml:space="preserve">
    <title>Eflorist</title>
    <g>
        <g id="Layer_11">
            <g id="Layer_1-2">
                <path d="M.1,362.9h90.4s57.5,2.5,89.3-33.7c29.5-33.6,29.4-73.7,29.4-73.7h-104.6s-49.8,0-79.1,38.1C-2.9,330.5,0,362.9,0,362.9h.1Z" fill="#b11f24" />
                <path d="M.1,148h90.4s57.5-2.5,89.3,33.7c29.5,33.6,29.4,73.7,29.4,73.7h-104.6s-49.8,0-79.1-38.1C-2.9,180.4,0,148,0,148h.1Z" fill="#f15b25" />
                <path d="M511.9,148h-90.4s-57.5-2.5-89.3,33.7c-29.5,33.6-29.4,73.7-29.4,73.7h104.6s49.8,0,79.1-38.1c28.5-36.9,25.5-69.4,25.5-69.4h-.1Z" fill="#f68b21" />
                <path d="M511.9,362.9h-90.4s-57.5,2.5-89.3-33.7c-29.5-33.6-29.4-73.7-29.4-73.7h104.6s49.8,0,79.1,38.1c28.5,37,25.5,69.4,25.5,69.4h-.1Z" fill="#fcb918" />
                <path d="M148.5,1.1v90.4s-2.5,57.5,33.7,89.3c33.6,29.5,73.7,29.4,73.7,29.4v-104.6s0-49.8-38.1-79.1C180.9-1.9,148.5,1.1,148.5,1.1h0Z" fill="#00b6bd" />
                <path d="M363.5,1.1v90.4s2.5,57.5-33.7,89.3c-33.6,29.5-73.7,29.4-73.7,29.4v-104.6s0-49.8,38.1-79.1C331.1-1.9,363.5,1.1,363.5,1.1h0Z" fill="#96d5d2" />
                <path d="M148.6,509.9v-90.4s-2.5-57.5,33.7-89.3c33.6-29.5,73.7-29.4,73.7-29.4v104.6s0,49.8-38.1,79.1c-36.9,28.5-69.3,25.5-69.3,25.5h0Z" fill="#b36aab" />
                <path d="M363.6,509.9v-90.4s2.5-57.5-33.7-89.3c-33.6-29.5-73.7-29.4-73.7-29.4v104.6s0,49.8,38.1,79.1c37,28.5,69.4,25.5,69.4,25.5h-.1Z" fill="#812b90" />
            </g>
        </g>
    </g>
</svg>
