<?xml version="1.0" encoding="utf-8"?>
<!-- Generator: Adobe Illustrator 28.0.0, SVG Export Plug-In . SVG Version: 6.00 Build 0)  -->
<svg version="1.2" baseProfile="tiny-ps" id="Layer_1" xmlns="http://www.w3.org/2000/svg" xmlns:xlink="http://www.w3.org/1999/xlink"
	 viewBox="0 0 80 80" xml:space="preserve">
<title>Hastings Direct</title>	 
<rect x="0" y="0" fill="#FFFFFF" width="80" height="80"/>
<path fill="#E40034" d="M38.69,27.38c0,0,2.99,2.59,7.17,0.52c3.93-1.95,6.91-0.91,9.55,2.7c0,0-3.31-3.55-7.7-1.24
	C43.56,31.55,39.82,29.91,38.69,27.38"/>
<path fill="#0072BA" d="M12.07,44.54c1.17,0,2.17,0.41,3,1.24c0.84,0.83,1.25,1.81,1.25,2.96c0,1.14-0.42,2.13-1.25,2.96
	c-0.84,0.83-1.84,1.24-3,1.24H9.13v-8.39H12.07z M10.45,45.74v5.99h1.62c0.82,0,1.51-0.29,2.08-0.87c0.57-0.58,0.85-1.29,0.85-2.13
	c0-0.84-0.28-1.55-0.85-2.13c-0.57-0.58-1.26-0.87-2.08-0.87H10.45z"/>
<path fill="#0072BA" d="M17.7,44.54h1.32v8.39H17.7V44.54z"/>
<path fill="#0072BA" d="M20.81,44.54h3.54c0.78,0,1.42,0.25,1.93,0.74c0.51,0.5,0.77,1.11,0.77,1.84c0,0.34-0.06,0.66-0.18,0.96
	c-0.12,0.3-0.26,0.53-0.42,0.71c-0.16,0.17-0.33,0.32-0.49,0.45c-0.16,0.13-0.3,0.22-0.42,0.26l-0.17,0.08l1.92,3.35h-1.44
	l-1.8-3.24h-1.92v3.24h-1.32V44.54z M25.33,46.13c-0.26-0.26-0.59-0.4-0.98-0.4h-2.22v2.76h2.22c0.39,0,0.72-0.13,0.98-0.4
	c0.26-0.26,0.4-0.59,0.4-0.98C25.72,46.72,25.59,46.4,25.33,46.13z"/>
<path fill="#0072BA" d="M34.48,51.73v1.2h-6.05v-8.39h5.94v1.2h-4.62v2.22h3.66v1.2h-3.66v2.58H34.48z"/>
<path fill="#0072BA" d="M40.5,44.59c0.39,0.11,0.71,0.25,0.97,0.41c0.26,0.16,0.48,0.32,0.67,0.47c0.19,0.16,0.33,0.29,0.42,0.4
	l0.13,0.16l-0.84,0.84c-0.02-0.03-0.06-0.08-0.1-0.13c-0.04-0.06-0.15-0.16-0.31-0.31c-0.16-0.15-0.33-0.28-0.52-0.38
	c-0.18-0.11-0.42-0.21-0.72-0.3c-0.29-0.09-0.61-0.14-0.93-0.14c-0.87,0-1.61,0.3-2.21,0.9c-0.6,0.6-0.91,1.34-0.91,2.21
	s0.3,1.61,0.9,2.21c0.6,0.6,1.34,0.91,2.22,0.91c0.33,0,0.64-0.05,0.94-0.14c0.3-0.09,0.55-0.2,0.74-0.33
	c0.2-0.13,0.37-0.26,0.52-0.38c0.15-0.13,0.26-0.24,0.34-0.32l0.09-0.15l0.84,0.84c-0.03,0.05-0.08,0.11-0.14,0.18
	c-0.06,0.08-0.21,0.21-0.43,0.4c-0.22,0.19-0.45,0.36-0.7,0.51c-0.25,0.15-0.57,0.28-0.97,0.4c-0.4,0.12-0.81,0.18-1.23,0.18
	c-1.26,0-2.31-0.42-3.16-1.25c-0.85-0.84-1.28-1.86-1.28-3.06c0-1.21,0.43-2.23,1.28-3.06c0.85-0.84,1.9-1.25,3.16-1.25
	C39.7,44.42,40.1,44.48,40.5,44.59z"/>
<path fill="#0072BA" d="M49.34,44.54v1.2h-2.52v7.19H45.5v-7.19h-2.52v-1.2H49.34z"/>
<path fill-rule="evenodd" fill="#E40034" d="M40.7,38.89c-0.21,0.04-0.4,0.06-0.57,0.06c-0.12,0-0.22-0.02-0.32-0.06
	c-0.09-0.04-0.17-0.11-0.24-0.21c-0.06-0.1-0.11-0.23-0.15-0.39c-0.03-0.16-0.05-0.36-0.05-0.6V33.4h1.87l0.19-1.44h-2.06v-2.17
	H37.9l-0.53,2.17l-1.24,0.42v1.03h1.24v4.51c0,0.4,0.04,0.76,0.11,1.09c0.07,0.32,0.2,0.59,0.37,0.82c0.18,0.22,0.42,0.4,0.72,0.52
	c0.3,0.12,0.69,0.18,1.15,0.18c0.34,0,0.69-0.07,1.06-0.21c0.36-0.14,0.73-0.35,1.1-0.64l-0.47-0.99
	C41.14,38.79,40.91,38.86,40.7,38.89"/>
<path fill-rule="evenodd" fill="#E40034" d="M35.18,36.72c-0.13-0.18-0.27-0.33-0.44-0.46c-0.17-0.13-0.32-0.23-0.49-0.32
	c-0.17-0.09-0.33-0.16-0.48-0.22c-0.16-0.06-0.29-0.11-0.4-0.15c-0.22-0.08-0.44-0.16-0.66-0.23c-0.22-0.07-0.43-0.15-0.66-0.23
	c-0.14-0.05-0.28-0.1-0.41-0.15c-0.14-0.06-0.26-0.12-0.36-0.19c-0.11-0.08-0.19-0.16-0.26-0.27c-0.07-0.1-0.1-0.22-0.1-0.36
	c0-0.13,0.03-0.25,0.07-0.36c0.04-0.11,0.12-0.22,0.22-0.3c0.1-0.09,0.23-0.16,0.38-0.21c0.16-0.05,0.34-0.08,0.56-0.08
	c0.26,0,0.49,0.02,0.69,0.07c0.2,0.05,0.39,0.12,0.57,0.21c0.17,0.1,0.33,0.2,0.48,0.33c0.15,0.13,0.31,0.27,0.47,0.43l0.92-1.42
	c-0.44-0.35-0.92-0.6-1.44-0.75c-0.53-0.15-1.11-0.23-1.76-0.23c-0.4,0-0.79,0.05-1.17,0.15c-0.38,0.09-0.72,0.24-1.03,0.42
	c-0.3,0.19-0.54,0.43-0.72,0.7c-0.18,0.28-0.27,0.61-0.27,0.98c0,0.3,0.05,0.57,0.13,0.8c0.09,0.23,0.21,0.44,0.35,0.62
	c0.14,0.18,0.3,0.33,0.48,0.46c0.18,0.13,0.35,0.24,0.54,0.34c0.18,0.1,0.35,0.17,0.53,0.24c0.17,0.06,0.31,0.12,0.43,0.16
	c0.21,0.09,0.42,0.17,0.63,0.24c0.21,0.07,0.42,0.15,0.63,0.23c0.11,0.04,0.23,0.09,0.34,0.15c0.12,0.06,0.22,0.13,0.31,0.21
	c0.09,0.07,0.17,0.17,0.23,0.27c0.06,0.1,0.09,0.22,0.09,0.35c0,0.18-0.03,0.34-0.1,0.46c-0.07,0.13-0.16,0.24-0.29,0.32
	c-0.12,0.08-0.26,0.14-0.43,0.18c-0.16,0.04-0.35,0.06-0.54,0.06c-0.87,0-1.69-0.43-2.46-1.27l-1.11,1.33
	c0.24,0.26,0.49,0.47,0.76,0.63c0.27,0.17,0.56,0.3,0.85,0.4c0.3,0.1,0.61,0.17,0.95,0.21c0.33,0.04,0.69,0.06,1.06,0.06
	c0.41,0,0.83-0.05,1.23-0.16c0.4-0.1,0.75-0.25,1.07-0.45c0.31-0.2,0.57-0.45,0.76-0.75c0.2-0.3,0.29-0.64,0.29-1.03
	c0-0.31-0.04-0.59-0.12-0.82C35.42,37.1,35.31,36.9,35.18,36.72z"/>
<path fill-rule="evenodd" fill="#E40034" d="M27.79,39.12c-0.11,0.02-0.19,0.02-0.23,0.02c-0.11,0-0.21-0.01-0.29-0.04
	c-0.08-0.03-0.14-0.08-0.19-0.15c-0.05-0.07-0.09-0.17-0.11-0.29c-0.02-0.12-0.03-0.27-0.03-0.45v-3.75c0-0.45-0.09-0.85-0.29-1.18
	c-0.19-0.34-0.45-0.61-0.77-0.82c-0.32-0.21-0.69-0.37-1.11-0.47c-0.41-0.1-0.84-0.16-1.3-0.16c-0.67,0-1.31,0.11-1.91,0.34
	c-0.61,0.23-1.13,0.54-1.57,0.94l1.07,1.21c0.23-0.22,0.44-0.41,0.63-0.55c0.2-0.14,0.38-0.26,0.56-0.34
	c0.18-0.09,0.36-0.15,0.53-0.18c0.17-0.03,0.36-0.05,0.56-0.05c0.23,0,0.45,0.03,0.64,0.09c0.19,0.06,0.36,0.15,0.49,0.27
	c0.14,0.12,0.25,0.28,0.32,0.48c0.08,0.2,0.11,0.44,0.11,0.71v0.3c-0.44,0-0.87,0.02-1.3,0.05c-0.43,0.04-0.83,0.1-1.21,0.19
	c-0.38,0.09-0.73,0.21-1.05,0.36c-0.32,0.16-0.6,0.35-0.83,0.58c-0.23,0.24-0.42,0.51-0.55,0.84c-0.13,0.32-0.2,0.7-0.2,1.13
	c0,0.38,0.06,0.72,0.17,1.01c0.11,0.29,0.28,0.53,0.49,0.73c0.21,0.19,0.47,0.34,0.77,0.44c0.3,0.09,0.64,0.15,1.02,0.15
	c0.23,0,0.45-0.01,0.69-0.04c0.24-0.03,0.47-0.09,0.71-0.17c0.24-0.08,0.47-0.18,0.7-0.32c0.24-0.14,0.46-0.31,0.68-0.51
	c0.07,0.33,0.24,0.59,0.5,0.77c0.26,0.18,0.59,0.27,0.98,0.27c0.21,0,0.4-0.01,0.57-0.04c0.17-0.03,0.33-0.07,0.48-0.12
	c0.15-0.05,0.29-0.11,0.42-0.17c0.13-0.07,0.26-0.14,0.38-0.22l-0.21-0.9C28.01,39.09,27.9,39.11,27.79,39.12 M24.91,38.51
	c-0.17,0.12-0.34,0.22-0.5,0.3c-0.17,0.08-0.33,0.14-0.49,0.18c-0.16,0.05-0.32,0.08-0.47,0.09c-0.15,0.01-0.3,0.02-0.45,0.02
	c-0.16,0-0.31-0.02-0.44-0.06c-0.13-0.04-0.25-0.1-0.35-0.2c-0.1-0.09-0.17-0.21-0.22-0.36c-0.05-0.15-0.08-0.34-0.08-0.57
	c0-0.27,0.04-0.52,0.13-0.74c0.09-0.22,0.25-0.42,0.47-0.59c0.23-0.17,0.54-0.3,0.92-0.41c0.39-0.1,0.88-0.17,1.48-0.19L24.91,38.51
	L24.91,38.51z"/>
<rect x="43.16" y="31.96" fill="#E40034" width="2.02" height="8.4"/>
<path fill-rule="evenodd" fill="#E40034" d="M61.67,32.32c-0.19-0.08-0.36-0.16-0.51-0.21c-0.15-0.06-0.3-0.11-0.46-0.15
	c-0.16-0.04-0.32-0.07-0.49-0.1c-0.17-0.02-0.37-0.03-0.6-0.03c-0.51,0-0.97,0.06-1.4,0.19c-0.43,0.13-0.79,0.31-1.11,0.56
	c-0.3,0.25-0.55,0.55-0.72,0.9c-0.18,0.35-0.26,0.76-0.26,1.23c0,0.27,0.02,0.51,0.06,0.73c0.04,0.21,0.11,0.42,0.2,0.61
	c0.09,0.18,0.21,0.37,0.36,0.53c0.14,0.17,0.32,0.33,0.54,0.48c-0.2,0.07-0.38,0.17-0.55,0.27c-0.17,0.11-0.32,0.22-0.44,0.35
	c-0.13,0.13-0.22,0.28-0.29,0.43c-0.07,0.15-0.1,0.32-0.1,0.5c0,0.26,0.05,0.48,0.15,0.65c0.1,0.18,0.23,0.32,0.38,0.45
	c0.15,0.12,0.3,0.22,0.46,0.29c0.16,0.08,0.29,0.15,0.4,0.21c-0.21,0.11-0.41,0.24-0.61,0.37c-0.2,0.13-0.38,0.28-0.54,0.46
	c-0.16,0.18-0.28,0.37-0.38,0.59c-0.1,0.22-0.14,0.47-0.14,0.76c0,0.25,0.07,0.48,0.21,0.69c0.14,0.21,0.35,0.38,0.63,0.53
	c0.28,0.15,0.65,0.27,1.09,0.35c0.44,0.08,0.96,0.12,1.57,0.12c0.33,0,0.67-0.02,1.02-0.04c0.35-0.03,0.7-0.08,1.04-0.15
	c0.34-0.07,0.66-0.18,0.97-0.3c0.31-0.12,0.58-0.29,0.8-0.5c0.23-0.2,0.42-0.45,0.55-0.73c0.14-0.29,0.21-0.63,0.21-1.02
	c0-0.29-0.05-0.54-0.16-0.75c-0.1-0.21-0.25-0.39-0.43-0.54c-0.18-0.15-0.39-0.27-0.63-0.37c-0.24-0.1-0.49-0.18-0.77-0.25
	c-0.27-0.07-0.54-0.13-0.83-0.17c-0.28-0.05-0.56-0.09-0.83-0.14c-0.16-0.03-0.33-0.06-0.53-0.09c-0.19-0.03-0.38-0.07-0.57-0.11
	c-0.19-0.04-0.38-0.08-0.56-0.13c-0.19-0.05-0.34-0.1-0.48-0.16c-0.14-0.05-0.25-0.12-0.33-0.18c-0.09-0.06-0.13-0.13-0.13-0.2
	c0-0.16,0.04-0.3,0.12-0.42c0.08-0.12,0.18-0.23,0.28-0.32c0.2,0.09,0.45,0.17,0.75,0.23c0.3,0.06,0.68,0.09,1.14,0.09
	c0.33,0,0.67-0.06,1.02-0.2c0.36-0.13,0.68-0.31,0.98-0.56c0.3-0.25,0.54-0.55,0.74-0.91c0.19-0.36,0.29-0.76,0.29-1.22
	c0-0.4-0.05-0.75-0.15-1.04c-0.1-0.28-0.21-0.5-0.34-0.66l1.45,0.23l0.34-1.51c-0.36,0-0.74,0.03-1.15,0.08
	C62.54,32.09,62.11,32.18,61.67,32.32z M57.51,41.45c0.02-0.12,0.05-0.23,0.1-0.35c0.05-0.12,0.11-0.23,0.18-0.33
	c0.07-0.11,0.17-0.2,0.28-0.28c0.27,0.03,0.56,0.06,0.87,0.11c0.31,0.05,0.68,0.12,1.09,0.21c0.26,0.06,0.51,0.11,0.73,0.17
	c0.23,0.05,0.42,0.12,0.58,0.19c0.16,0.07,0.29,0.15,0.38,0.24c0.09,0.09,0.14,0.2,0.14,0.31c0,0.18-0.05,0.36-0.13,0.52
	c-0.08,0.16-0.22,0.3-0.42,0.42c-0.2,0.12-0.46,0.21-0.8,0.28c-0.33,0.07-0.74,0.11-1.23,0.11c-0.23,0-0.45-0.04-0.67-0.11
	c-0.21-0.07-0.41-0.17-0.58-0.29c-0.17-0.12-0.3-0.25-0.41-0.4c-0.1-0.16-0.16-0.31-0.16-0.46C57.47,41.68,57.48,41.57,57.51,41.45z
	 M60.79,35.44c-0.03,0.23-0.09,0.43-0.18,0.61c-0.09,0.17-0.22,0.32-0.39,0.42c-0.17,0.1-0.4,0.16-0.69,0.16
	c-0.28,0-0.52-0.05-0.71-0.16c-0.2-0.11-0.35-0.26-0.47-0.44c-0.12-0.18-0.21-0.39-0.27-0.62C58.02,35.17,58,34.93,58,34.67
	c0-0.55,0.13-0.96,0.39-1.24c0.25-0.28,0.59-0.41,1-0.41c0.47,0,0.83,0.13,1.08,0.4c0.25,0.27,0.37,0.7,0.37,1.3
	C60.83,34.97,60.81,35.21,60.79,35.44z"/>
<path fill-rule="evenodd" fill="#E40034" d="M71.13,37.34c-0.08-0.24-0.18-0.44-0.31-0.62c-0.13-0.18-0.28-0.33-0.44-0.46
	c-0.16-0.13-0.33-0.23-0.49-0.32c-0.17-0.09-0.33-0.16-0.48-0.22c-0.16-0.06-0.29-0.11-0.4-0.15c-0.22-0.08-0.43-0.16-0.65-0.23
	c-0.22-0.08-0.44-0.15-0.66-0.23c-0.14-0.05-0.28-0.1-0.41-0.15c-0.14-0.06-0.26-0.12-0.36-0.19c-0.11-0.08-0.2-0.16-0.26-0.27
	c-0.07-0.1-0.1-0.22-0.1-0.36c0-0.13,0.02-0.25,0.07-0.36c0.05-0.11,0.12-0.22,0.22-0.3c0.1-0.09,0.23-0.16,0.39-0.21
	c0.16-0.05,0.34-0.08,0.56-0.08c0.26,0,0.49,0.02,0.69,0.07c0.2,0.05,0.39,0.12,0.56,0.21c0.17,0.1,0.33,0.2,0.49,0.33
	c0.15,0.13,0.31,0.27,0.47,0.43l0.92-1.42c-0.43-0.35-0.92-0.6-1.44-0.75c-0.53-0.15-1.11-0.23-1.75-0.23c-0.4,0-0.8,0.05-1.18,0.15
	c-0.38,0.09-0.73,0.24-1.02,0.42c-0.3,0.19-0.55,0.43-0.73,0.71c-0.18,0.28-0.27,0.61-0.27,0.98c0,0.3,0.04,0.57,0.13,0.8
	c0.08,0.23,0.2,0.44,0.34,0.62c0.14,0.18,0.3,0.34,0.48,0.47c0.17,0.13,0.35,0.24,0.54,0.34c0.18,0.1,0.35,0.17,0.52,0.24
	c0.17,0.06,0.31,0.12,0.43,0.16c0.21,0.09,0.43,0.17,0.64,0.24c0.21,0.07,0.42,0.15,0.63,0.23c0.12,0.04,0.23,0.09,0.34,0.15
	c0.12,0.06,0.22,0.13,0.31,0.21c0.1,0.07,0.17,0.17,0.23,0.27c0.06,0.1,0.09,0.22,0.09,0.35c0,0.18-0.04,0.34-0.11,0.46
	c-0.07,0.13-0.17,0.24-0.29,0.32c-0.12,0.08-0.26,0.14-0.43,0.18c-0.17,0.04-0.35,0.06-0.54,0.06c-0.87,0-1.69-0.43-2.46-1.27
	l-1.1,1.33c0.24,0.26,0.49,0.47,0.77,0.63c0.27,0.17,0.55,0.3,0.85,0.4c0.3,0.1,0.61,0.17,0.94,0.21c0.33,0.04,0.69,0.06,1.06,0.06
	c0.42,0,0.83-0.05,1.23-0.16c0.4-0.1,0.76-0.25,1.07-0.45c0.31-0.2,0.57-0.45,0.76-0.75c0.19-0.3,0.29-0.64,0.29-1.03
	C71.26,37.85,71.22,37.57,71.13,37.34z"/>
<path fill-rule="evenodd" fill="#E40034" d="M53.85,32.61c-0.28-0.26-0.61-0.45-0.98-0.58c-0.37-0.14-0.78-0.2-1.22-0.2
	c-0.26,0-0.52,0.03-0.76,0.08c-0.24,0.05-0.47,0.13-0.68,0.22c-0.21,0.09-0.4,0.19-0.58,0.31c-0.17,0.11-0.32,0.23-0.45,0.34
	c-0.01-0.07-0.02-0.14-0.04-0.22c-0.01-0.08-0.03-0.16-0.05-0.23c-0.02-0.08-0.04-0.15-0.05-0.21c-0.02-0.06-0.03-0.12-0.05-0.15
	H47.1c0.05,0.27,0.08,0.53,0.09,0.8c0.01,0.26,0.01,0.48,0.01,0.64v6.96h2.02v-6.49c0.15-0.08,0.3-0.15,0.47-0.21
	c0.17-0.06,0.34-0.12,0.51-0.16c0.17-0.05,0.35-0.08,0.51-0.1c0.17-0.03,0.32-0.04,0.47-0.04c0.25,0,0.47,0.03,0.66,0.1
	c0.19,0.07,0.35,0.17,0.49,0.31c0.13,0.14,0.23,0.33,0.3,0.56c0.07,0.23,0.1,0.52,0.1,0.86v5.18h2.03V34.8
	c0-0.46-0.08-0.88-0.24-1.25C54.35,33.18,54.13,32.87,53.85,32.61"/>
<polygon fill-rule="evenodd" fill="#E40034" points="16.31,28.17 16.31,32.84 11.26,32.84 11.26,28.17 9.12,28.17 9.12,33.99 
	9.12,36.3 9.12,40.36 11.26,40.36 11.26,36.04 11.26,34.54 16.31,34.54 16.31,34.76 16.31,40.36 18.45,40.36 18.45,35.54 
	18.45,34.61 18.45,28.17 "/>
</svg>
