<?xml version="1.0" encoding="UTF-8" standalone="yes"?>
<svg width="400" height="400" viewBox="0 0 400 400" version="1.2" baseProfile="tiny-ps" xmlns="http://www.w3.org/2000/svg">
  <title>bimi-svg-tiny-12-ps</title>
  <g id="Dark-Purple">
    <g id="Group">
      <g id="g1">
        <path id="Rectangle" fill="#451f61" fill-rule="evenodd" stroke="none" d="M -228 503 L 630 503 L 630 -153 L -228 -153 Z"/>
        <path id="Path" fill="#ffffff" stroke="none" d="M 201.40889 66.462189 L 197.35788 74.56427 C 210.416611 96.70694 234.856934 153.870697 253.654343 197.837402 C 276.387848 251.015106 291.708954 286.157013 302.305023 306.39856 L 311.135101 306.39856 C 298.640656 283.009705 278.192139 235.18187 260.903015 194.738937 C 227.604782 116.849518 211.276993 81.076141 201.40889 66.462189 Z"/>
        <path id="path1" fill="#ffffff" stroke="none" d="M 190.660431 87.959381 L 186.776581 95.727112 C 200.942154 115.572235 217.48764 164.448929 231.340576 205.38913 C 245.247482 246.487335 257.886505 283.822845 270.431458 306.39856 L 279.479248 306.39856 C 266.451843 284.549561 251.975403 241.776993 238.806946 202.863205 C 219.319824 145.269226 204.933975 105.022095 190.660431 87.959381 Z"/>
        <path id="path2" fill="#ffffff" stroke="none" d="M 179.922409 109.434509 L 176.167435 116.945618 C 191.526016 134.459808 200.513718 174.191895 209.263657 212.90332 C 217.484161 249.275864 225.398117 284.260773 238.561371 306.39856 L 247.936554 306.39856 C 233.827621 285.81012 225.283173 248.019485 216.952942 211.165497 C 207.278198 168.363739 198.019684 127.469177 179.922409 109.434509 Z"/>
        <path id="path3" fill="#ffffff" stroke="none" d="M 169.203552 130.87204 L 165.540894 138.199066 C 182.199585 153.871506 184.80246 186.372528 187.521133 220.350204 C 190.05957 252.089462 192.674622 284.568207 206.830612 306.39856 L 216.669083 306.39856 C 200.731415 286.423798 198.012711 252.65239 195.379364 219.721863 C 192.553589 184.397522 189.631119 148.139038 169.203552 130.87204 Z"/>
        <path id="path4" fill="#ffffff" stroke="none" d="M 174.11145 228.620773 C 177.617355 198.834961 181.187698 168.259445 158.545639 152.188171 L 154.908249 159.462799 C 172.671127 173.309967 169.662445 198.980789 166.281952 227.699875 C 163.081696 254.902863 159.585388 284.697266 175.192993 306.39856 L 185.560074 306.39856 C 167.268585 286.845001 170.730072 257.354797 174.11145 228.620773 Z"/>
        <path id="path5" fill="#ffffff" stroke="none" d="M 93.862335 281.554321 L 88.276062 292.728577 C 88.376198 293.343445 88.476357 293.967377 88.578247 294.617737 C 89.152985 298.263184 89.785194 302.254639 90.835396 306.39856 L 99.003624 306.39856 C 97.722664 301.954315 97.020782 297.544678 96.366806 293.391785 C 95.731979 289.357483 95.076256 285.28244 93.862335 281.554321 Z"/>
        <path id="path6" fill="#ffffff" stroke="none" d="M 115.142456 275.917328 C 115.82692 265.390198 116.553177 254.060165 111.979645 245.321228 L 107.068245 255.143311 C 108.074928 260.570618 107.80323 267.29541 107.27552 275.405457 C 106.618904 285.494873 105.917046 296.347015 108.830788 306.39856 L 117.19931 306.39856 C 113.777893 297.070496 114.461472 286.383484 115.142456 275.917328 Z"/>
        <path id="path7" fill="#ffffff" stroke="none" d="M 134.172379 259.216492 C 136.870163 241.739014 139.788269 222.703156 129.753006 209.773117 L 125.699348 217.881943 C 130.589844 227.310211 129.041534 240.774368 126.382057 258.014648 C 123.892403 274.137756 121.203331 291.645111 127.073494 306.39856 L 135.738983 306.39856 C 128.922241 293.31427 131.486786 276.607971 134.172379 259.216492 Z"/>
        <path id="path8" fill="#ffffff" stroke="none" d="M 153.193588 242.611908 C 157.991791 218.884674 162.523529 196.473862 151.540802 179.961639 C 150.293777 178.087204 148.872604 176.342361 147.280762 174.718674 L 143.465729 182.349258 C 143.986465 182.997192 144.518555 183.63887 144.976593 184.327347 C 154.148026 198.11644 149.931534 218.970337 145.466858 241.049225 C 140.977798 263.248901 136.088181 287.498596 145.761185 306.39856 L 154.898651 306.39856 C 143.659912 289.77063 148.32399 266.69342 153.193588 242.611908 Z"/>
      </g>
    </g>
  </g>
</svg>