<?xml version="1.0" encoding="UTF-8" standalone="yes"?>
<svg baseProfile="tiny-ps" version="1.2" viewBox="0 0 340.16 340.16" xmlns="http://www.w3.org/2000/svg">
  <title>bimi-svg-tiny-12-ps</title>
  <rect x="241.01" y="179.35" width="89.56" height="34.85" rx="1.59" ry="1.59" fill="#569f3e" stroke-width="0"/>
  <rect x="0" width="340.16" height="340.16" fill="#fff" stroke-width="0"/>
  <g>
    <path d="M46.73,175.87c.07,1.72.63,2.23,2.1,2.31,11.32.57,41.81.47,48.51.59.88.02,1.57.5,1.59,1.38.23,10.16.55,23.9.05,32.96-.05.87-.71,1.24-1.59,1.24-28.93.11-65.12.22-85.03-.44-1.71-.06-2.43-.48-2.45-2.19-.31-20.66-.41-53.57-.25-85.11,0-.88.38-1.34,1.26-1.36,8.12-.25,24.9-.21,33.61-.03.88.02,1.55.53,1.59,1.41.2,4.89.2,38.67.61,49.24Z" fill="#6da743" stroke-width="0"/>
    <path d="M43.37,177.88c.07,1.72.63,2.23,2.1,2.31,11.32.57,45.16.47,51.87.59.88.02,1.57.5,1.59,1.38.23,10.16.55,20.62.05,29.68-.05.87-.71,1.24-1.59,1.24-28.93.11-63.83.22-83.73-.44-1.71-.06-2.43-.48-2.45-2.19-.31-20.66-.41-52.3-.25-83.83,0-.88.38-1.34,1.26-1.36,8.12-.25,20.24-.21,28.96-.03.88.02,1.55.53,1.59,1.41.2,4.89.2,40.68.61,51.24Z" fill="#6da743" stroke-width="0"/>
    <path d="M40.02,179.88c.07,1.72.63,2.23,2.1,2.31,11.32.57,48.52.47,55.23.59.88.02,1.57.5,1.59,1.38.23,10.16.55,17.34.05,26.4-.05.87-.71,1.24-1.59,1.24-28.93.11-62.53.22-82.43-.44-1.71-.06-2.43-.48-2.45-2.19-.31-20.66-.41-51.03-.25-82.56,0-.88.38-1.34,1.26-1.36,8.12-.25,15.59-.21,24.3-.03.88.02,1.55.53,1.59,1.41.2,4.89.2,42.68.61,53.25Z" fill="#6da743" stroke-width="0"/>
    <path d="M36.66,181.89c.07,1.72.63,2.23,2.1,2.31,11.32.57,51.88.47,58.59.59.88.02,1.57.5,1.59,1.38.23,10.16.55,14.06.05,23.12-.05.87-.71,1.24-1.59,1.24-28.93.11-61.23.22-81.14-.44-1.71-.06-2.43-.48-2.45-2.19-.31-20.66-.41-49.76-.25-81.29,0-.88.38-1.34,1.26-1.36,8.12-.25,10.94-.21,19.65-.03.88.02,1.55.53,1.59,1.41.2,4.89.2,44.69.61,55.25Z" fill="#6da743" stroke-width="0"/>
    <path d="M33.3,183.9c.07,1.72.63,2.23,2.1,2.31,11.32.57,55.24.47,61.95.59.88.02,1.57.5,1.59,1.38.23,10.16.55,10.78.05,19.84-.05.87-.71,1.24-1.59,1.24-28.93.11-59.94.22-79.84-.44-1.71-.06-2.43-.48-2.45-2.19-.31-20.66-.41-48.48-.25-80.01,0-.88.38-1.34,1.26-1.36,8.12-.25,6.28-.21,14.99-.03.88.02,1.55.53,1.59,1.41.2,4.89.2,46.69.61,57.26Z" fill="#6da743" stroke-width="0"/>
  </g>
  <g>
    <path d="M36.89,183.9c.07,1.72.63,2.23,2.1,2.31,11.32.57,51.65.47,58.36.59.88.02,1.57.5,1.59,1.38.23,10.16.55,10.78.05,19.84-.05.87-.71,1.24-1.59,1.24-28.93.11-59.94.22-79.84-.44-1.71-.06-2.43-.48-2.45-2.19-.31-20.66-.41-48.48-.25-80.01,0-.88.38-1.34,1.26-1.36,8.12-.25,9.87-.21,18.58-.03.88.02,1.55.53,1.59,1.41.2,4.89.2,46.69.61,57.26Z" fill="#6da743" stroke-width="0"/>
    <path d="M17.01,126.58c0-.85.37-1.3,1.23-1.33,7.9-.24,8.91-.2,17.39-.03.85.02,1.67.39,1.73,1.78.13,3.32.14,44.38.6,56.1.07,1.68.71,2.17,2.13,2.25,11.02.55,50.78.45,57.31.58.85.02,1.52.49,1.54,1.34.22,9.89.53,10.24.05,19.06-.05.85-.69,1.21-1.54,1.21-28.17.11-58.42.21-77.8-.42-1.67-.05-2.36-.47-2.39-2.13-.31-20.12-.4-47.71-.25-78.41Z" fill="#78ac46" stroke-width="0"/>
    <path d="M19.17,126.54c0-.83.36-1.27,1.19-1.29,7.69-.23,7.94-.19,16.2-.03.83.02,1.76.26,1.86,2.15.09,1.75.08,42.06.58,54.95.06,1.63.78,2.12,2.17,2.19,10.72.54,49.92.44,56.27.56.83.02,1.48.48,1.5,1.31.22,9.62.52,9.7.05,18.28-.05.83-.67,1.18-1.5,1.18-27.41.11-56.91.21-75.76-.41-1.62-.05-2.3-.45-2.32-2.08-.3-19.57-.38-46.94-.24-76.81Z" fill="#83b149" stroke-width="0"/>
    <path d="M21.32,126.5c0-.81.35-1.23,1.16-1.26,7.48-.23,6.98-.19,15-.03.81.02,1.98.11,2,2.52.14.18.02,39.74.57,53.79.06,1.59.85,2.06,2.21,2.12,10.42.52,49.06.43,55.23.55.81.02,1.44.46,1.46,1.27.21,9.35.51,9.16.05,17.5-.04.81-.65,1.14-1.46,1.15-26.65.11-55.39.2-73.73-.4-1.58-.05-2.24-.44-2.26-2.02-.29-19.03-.37-46.16-.23-75.2Z" fill="#8eb64c" stroke-width="0"/>
    <path d="M23.48,126.46c0-.78.34-1.2,1.13-1.22,7.26-.22,6.02-.18,13.81-.03.78.02,2.12-.02,2.14,2.9.11-1.39-.04,37.43.55,52.64.06,1.54.93,2,2.24,2.06,10.12.51,48.19.42,54.19.53.78.01,1.4.45,1.42,1.23.21,9.09.49,8.62.04,16.72-.04.78-.64,1.11-1.42,1.11-25.89.1-53.88.2-71.69-.39-1.53-.05-2.17-.43-2.19-1.96-.28-18.49-.36-45.39-.23-73.6Z" fill="#98bc4f" stroke-width="0"/>
    <path d="M25.64,126.42c0-.76.33-1.16,1.09-1.18,7.05-.21,5.05-.18,12.62-.03.76.02,2.27-.16,2.28,3.27.09-2.96-.1,35.11.53,51.48.06,1.5,1,1.94,2.28,2,9.83.49,47.33.4,53.15.51.76.01,1.36.44,1.38,1.2.2,8.82.48,8.07.04,15.94-.04.76-.62,1.08-1.38,1.08-25.12.1-52.36.19-69.65-.38-1.49-.05-2.11-.42-2.13-1.9-.27-17.94-.35-44.61-.22-72Z" fill="#a3c253" stroke-width="0"/>
    <path d="M27.8,126.38c0-.74.32-1.13,1.06-1.15,6.84-.21,4.09-.17,11.42-.02.74.01,2.41-.3,2.42,3.64.07-4.53-.16,32.79.52,50.32.06,1.45,1.08,1.88,2.31,1.94,9.53.48,46.46.39,52.11.5.74.01,1.32.42,1.34,1.16.19,8.55.46,7.53.04,15.16-.04.74-.6,1.05-1.34,1.05-24.36.1-50.85.18-67.61-.37-1.44-.05-2.04-.4-2.07-1.85-.26-17.4-.34-43.84-.21-70.39Z" fill="#afc857" stroke-width="0"/>
    <path d="M29.96,126.34c0-.71.31-1.09,1.03-1.11,6.62-.2,3.13-.17,10.23-.02.71.01,2.55-.44,2.56,4.01.05-6.1-.22,30.47.5,49.17.05,1.41,1.15,1.82,2.35,1.88,9.23.46,45.6.38,51.07.48.71.01,1.28.41,1.29,1.12.19,8.29.45,6.99.04,14.38-.04.71-.58,1.01-1.29,1.02-23.6.09-49.34.18-65.57-.35-1.4-.05-1.98-.39-2-1.79-.26-16.85-.33-43.07-.21-68.79Z" fill="#bacf5b" stroke-width="0"/>
    <path d="M32.12,126.3c0-.69.3-1.06.99-1.08,6.41-.19,2.16-.16,9.04-.02.69.01,2.7-.58,2.7,4.39.02-7.67-.29,28.16.48,48.01.05,1.36,1.23,1.76,2.38,1.82,8.93.45,44.73.37,50.03.47.69.01,1.24.4,1.25,1.09.18,8.02.43,6.45.04,13.6-.04.69-.56.98-1.25.98-22.84.09-47.82.17-63.53-.34-1.35-.04-1.92-.38-1.94-1.73-.25-16.31-.32-42.29-.2-67.19Z" fill="#c7d760" stroke-width="0"/>
    <path d="M46.39,176.81c.05,1.32,1.3,1.7,2.42,1.76,8.64.43,43.87.36,48.99.45.67.01,1.19.38,1.21,1.05.18,7.75.42,5.91.04,12.82-.04.67-.54.95-1.21.95-22.08.09-46.31.17-61.5-.33-1.31-.04-1.85-.37-1.87-1.67-.24-15.77-.31-41.52-.19-65.58,0-.67.29-1.02.96-1.04,6.19-.19,1.2-.16,7.85-.02.67.01,2.84-.72,2.84,4.76,0-9.24-.35,25.84.47,46.86Z" fill="#d4e165" stroke-width="0"/>
  </g>
  <g>
    <rect x="241.01" y="125.08" width="89.56" height="34.85" rx="1.59" ry="1.59" fill="#569f3e" stroke-width="0"/>
    <path d="M242.59,158.54h86.39c.88,0,1.59-.67,1.59-1.5v-30.39c0-.83-.71-1.5-1.59-1.5h-86.39c-.88,0-1.59.67-1.59,1.5v30.39c0,.83.71,1.5,1.59,1.5Z" fill="#5fa23e" stroke-width="0"/>
    <path d="M242.59,157.15h86.39c.88,0,1.59-.63,1.59-1.42v-29.09c0-.78-.71-1.42-1.59-1.42h-86.39c-.88,0-1.59.63-1.59,1.42v29.09c0,.78.71,1.42,1.59,1.42Z" fill="#67a640" stroke-width="0"/>
    <path d="M242.59,155.75h86.39c.88,0,1.59-.6,1.59-1.33v-27.79c0-.74-.71-1.33-1.59-1.33h-86.39c-.88,0-1.59.6-1.59,1.33v27.79c0,.74.71,1.33,1.59,1.33Z" fill="#6fa941" stroke-width="0"/>
    <path d="M242.59,154.36h86.39c.88,0,1.59-.56,1.59-1.25v-26.5c0-.69-.71-1.25-1.59-1.25h-86.39c-.88,0-1.59.56-1.59,1.25v26.5c0,.69.71,1.25,1.59,1.25Z" fill="#76ac43" stroke-width="0"/>
    <path d="M242.59,152.97h86.39c.88,0,1.59-.52,1.59-1.17v-25.2c0-.64-.71-1.17-1.59-1.17h-86.39c-.88,0-1.59.52-1.59,1.17v25.2c0,.64.71,1.17,1.59,1.17Z" fill="#7db045" stroke-width="0"/>
    <path d="M242.59,151.58h86.39c.88,0,1.59-.48,1.59-1.08v-23.91c0-.6-.71-1.08-1.59-1.08h-86.39c-.88,0-1.59.48-1.59,1.08v23.91c0,.6.71,1.08,1.59,1.08Z" fill="#85b348" stroke-width="0"/>
    <path d="M242.59,150.19h86.39c.88,0,1.59-.45,1.59-1v-22.61c0-.55-.71-1-1.59-1h-86.39c-.88,0-1.59.45-1.59,1v22.61c0,.55.71,1,1.59,1Z" fill="#8cb74a" stroke-width="0"/>
    <path d="M242.59,148.8h86.39c.88,0,1.59-.41,1.59-.91v-21.32c0-.5-.71-.91-1.59-.91h-86.39c-.88,0-1.59.41-1.59.91v21.32c0,.5.71.91,1.59.91Z" fill="#93bb4c" stroke-width="0"/>
    <path d="M242.59,147.41h86.39c.88,0,1.59-.37,1.59-.83v-20.02c0-.46-.71-.83-1.59-.83h-86.39c-.88,0-1.59.37-1.59.83v20.02c0,.46.71.83,1.59.83Z" fill="#9bbf4e" stroke-width="0"/>
    <path d="M242.59,146.02h86.39c.88,0,1.59-.33,1.59-.75v-18.72c0-.41-.71-.75-1.59-.75h-86.39c-.88,0-1.59.33-1.59.75v18.72c0,.41.71.75,1.59.75Z" fill="#a2c351" stroke-width="0"/>
    <path d="M242.59,144.63h86.39c.88,0,1.59-.3,1.59-.66v-17.43c0-.37-.71-.66-1.59-.66h-86.39c-.88,0-1.59.3-1.59.66v17.43c0,.37.71.66,1.59.66Z" fill="#aac754" stroke-width="0"/>
    <path d="M242.59,143.24h86.39c.88,0,1.59-.26,1.59-.58v-16.13c0-.32-.71-.58-1.59-.58h-86.39c-.88,0-1.59.26-1.59.58v16.13c0,.32.71.58,1.59.58Z" fill="#b2cb57" stroke-width="0"/>
    <path d="M242.59,141.84h86.39c.88,0,1.59-.22,1.59-.49v-14.84c0-.27-.71-.49-1.59-.49h-86.39c-.88,0-1.59.22-1.59.49v14.84c0,.27.71.49,1.59.49Z" fill="#bad05a" stroke-width="0"/>
    <path d="M242.59,140.45h86.39c.88,0,1.59-.18,1.59-.41v-13.54c0-.23-.71-.41-1.59-.41h-86.39c-.88,0-1.59.18-1.59.41v13.54c0,.23.71.41,1.59.41Z" fill="#c2d55d" stroke-width="0"/>
    <path d="M242.59,139.06h86.39c.88,0,1.59-.15,1.59-.33v-12.25c0-.18-.71-.33-1.59-.33h-86.39c-.88,0-1.59.15-1.59.33v12.25c0,.18.71.33,1.59.33Z" fill="#cbda61" stroke-width="0"/>
    <path d="M242.59,137.67h86.39c.88,0,1.59-.11,1.59-.24v-10.95c0-.13-.71-.24-1.59-.24h-86.39c-.88,0-1.59.11-1.59.24v10.95c0,.13.71.24,1.59.24Z" fill="#d4e165" stroke-width="0"/>
  </g>
  <g>
    <rect x="241.01" y="179.35" width="89.56" height="34.85" rx="1.59" ry="1.59" fill="#569f3e" stroke-width="0"/>
    <path d="M242.59,212.81h86.39c.88,0,1.59-.67,1.59-1.5v-30.39c0-.83-.71-1.5-1.59-1.5h-86.39c-.88,0-1.59.67-1.59,1.5v30.39c0,.83.71,1.5,1.59,1.5Z" fill="#5fa23e" stroke-width="0"/>
    <path d="M242.59,211.42h86.39c.88,0,1.59-.63,1.59-1.42v-29.09c0-.78-.71-1.42-1.59-1.42h-86.39c-.88,0-1.59.63-1.59,1.42v29.09c0,.78.71,1.42,1.59,1.42Z" fill="#67a640" stroke-width="0"/>
    <path d="M242.59,210.03h86.39c.88,0,1.59-.6,1.59-1.33v-27.79c0-.74-.71-1.33-1.59-1.33h-86.39c-.88,0-1.59.6-1.59,1.33v27.79c0,.74.71,1.33,1.59,1.33Z" fill="#6fa941" stroke-width="0"/>
    <path d="M242.59,208.63h86.39c.88,0,1.59-.56,1.59-1.25v-26.5c0-.69-.71-1.25-1.59-1.25h-86.39c-.88,0-1.59.56-1.59,1.25v26.5c0,.69.71,1.25,1.59,1.25Z" fill="#76ac43" stroke-width="0"/>
    <path d="M242.59,207.24h86.39c.88,0,1.59-.52,1.59-1.17v-25.2c0-.64-.71-1.17-1.59-1.17h-86.39c-.88,0-1.59.52-1.59,1.17v25.2c0,.64.71,1.17,1.59,1.17Z" fill="#7db045" stroke-width="0"/>
    <path d="M242.59,205.85h86.39c.88,0,1.59-.48,1.59-1.08v-23.91c0-.6-.71-1.08-1.59-1.08h-86.39c-.88,0-1.59.48-1.59,1.08v23.91c0,.6.71,1.08,1.59,1.08Z" fill="#85b348" stroke-width="0"/>
    <path d="M242.59,204.46h86.39c.88,0,1.59-.45,1.59-1v-22.61c0-.55-.71-1-1.59-1h-86.39c-.88,0-1.59.45-1.59,1v22.61c0,.55.71,1,1.59,1Z" fill="#8cb74a" stroke-width="0"/>
    <path d="M242.59,203.07h86.39c.88,0,1.59-.41,1.59-.91v-21.32c0-.5-.71-.91-1.59-.91h-86.39c-.88,0-1.59.41-1.59.91v21.32c0,.5.71.91,1.59.91Z" fill="#93bb4c" stroke-width="0"/>
    <path d="M242.59,201.68h86.39c.88,0,1.59-.37,1.59-.83v-20.02c0-.46-.71-.83-1.59-.83h-86.39c-.88,0-1.59.37-1.59.83v20.02c0,.46.71.83,1.59.83Z" fill="#9bbf4e" stroke-width="0"/>
    <path d="M242.59,200.29h86.39c.88,0,1.59-.33,1.59-.75v-18.72c0-.41-.71-.75-1.59-.75h-86.39c-.88,0-1.59.33-1.59.75v18.72c0,.41.71.75,1.59.75Z" fill="#a2c351" stroke-width="0"/>
    <path d="M242.59,198.9h86.39c.88,0,1.59-.3,1.59-.66v-17.43c0-.37-.71-.66-1.59-.66h-86.39c-.88,0-1.59.3-1.59.66v17.43c0,.37.71.66,1.59.66Z" fill="#aac754" stroke-width="0"/>
    <path d="M242.59,197.51h86.39c.88,0,1.59-.26,1.59-.58v-16.13c0-.32-.71-.58-1.59-.58h-86.39c-.88,0-1.59.26-1.59.58v16.13c0,.32.71.58,1.59.58Z" fill="#b2cb57" stroke-width="0"/>
    <path d="M242.59,196.11h86.39c.88,0,1.59-.22,1.59-.49v-14.84c0-.27-.71-.49-1.59-.49h-86.39c-.88,0-1.59.22-1.59.49v14.84c0,.27.71.49,1.59.49Z" fill="#bad05a" stroke-width="0"/>
    <path d="M242.59,194.72h86.39c.88,0,1.59-.18,1.59-.41v-13.54c0-.23-.71-.41-1.59-.41h-86.39c-.88,0-1.59.18-1.59.41v13.54c0,.23.71.41,1.59.41Z" fill="#c2d55d" stroke-width="0"/>
    <path d="M242.59,193.33h86.39c.88,0,1.59-.15,1.59-.33v-12.25c0-.18-.71-.33-1.59-.33h-86.39c-.88,0-1.59.15-1.59.33v12.25c0,.18.71.33,1.59.33Z" fill="#cbda61" stroke-width="0"/>
    <path d="M242.59,191.94h86.39c.88,0,1.59-.11,1.59-.24v-10.95c0-.13-.71-.24-1.59-.24h-86.39c-.88,0-1.59.11-1.59.24v10.95c0,.13.71.24,1.59.24Z" fill="#d4e165" stroke-width="0"/>
  </g>
  <g>
    <path d="M218.43,155.14c3.28-3.42,4.99-7.88,4.99-12.33,0-4.53-2.1-9.76-5.47-13.2-3.73-3.8-9.07-5.51-13.94-5.06-3.87.35-7.64,2.13-10.56,5.18l-30.13,32.65c-1.01,1.1-2.74,1.1-3.75,0l-30.34-32.74c-2.83-2.89-6.41-4.61-10.11-5.03-5.03-.56-10.57,1.18-14.39,5.15-3.47,3.61-5.57,9.13-5.44,13.88.12,4.33,1.83,8.6,5.01,11.85l55.8,59.61c.73.78,1.97.78,2.69,0l55.63-59.96Z" fill="#6da743" stroke-width="0"/>
    <path d="M162.95,213.25l55-59.23c3.16-3.3,4.81-7.6,4.81-11.89,0-4.37-2.02-9.41-5.28-12.73-3.6-3.66-8.75-5.31-13.44-4.88-3.73.34-7.36,2.05-10.18,5l-30.58,33.08c-1.04,1.13-2.73,1.02-3.7-.03l-30.41-32.79c-2.73-2.79-6.18-4.45-9.74-4.85-4.85-.54-10.19,1.08-13.88,4.9-3.35,3.48-5.37,8.8-5.24,13.39.12,4.17,1.76,8.35,4.83,11.49l54.7,58.56c1.03,1.12,2.41.75,3.11,0Z" fill="#73a945" stroke-width="0"/>
    <path d="M163.1,211.4l54.37-58.51c3.04-3.18,4.63-7.32,4.63-11.45,0-4.21-1.95-9.06-5.08-12.26-3.46-3.52-8.42-5.11-12.94-4.7-3.59.33-7.09,1.97-9.81,4.81l-31.04,33.5c-1.08,1.16-2.72.95-3.66-.07l-30.48-32.84c-2.63-2.69-5.95-4.28-9.38-4.67-4.67-.52-9.81.97-13.36,4.66-3.22,3.35-5.17,8.47-5.05,12.89.11,4.02,1.69,8.1,4.65,11.13l53.6,57.51c1.33,1.46,2.86.72,3.53,0Z" fill="#79ac46" stroke-width="0"/>
    <path d="M163.24,209.55l53.74-57.79c2.93-3.05,4.45-7.03,4.46-11.01,0-4.05-1.87-8.71-4.89-11.78-3.33-3.39-8.1-4.91-12.44-4.52-3.46.31-6.82,1.9-9.43,4.62l-31.49,33.93c-1.11,1.19-2.71.87-3.61-.11l-30.55-32.88c-2.52-2.58-5.72-4.12-9.02-4.49-4.49-.5-9.43.87-12.85,4.41-3.1,3.22-4.97,8.14-4.85,12.39.11,3.86,1.63,7.86,4.47,10.76l52.5,56.46c1.64,1.8,3.3.69,3.95,0Z" fill="#7faf48" stroke-width="0"/>
    <path d="M163.39,207.7l53.12-57.07c2.81-2.93,4.27-6.75,4.28-10.56,0-3.88-1.8-8.36-4.69-11.31-3.2-3.25-7.77-4.72-11.94-4.34-3.32.3-6.54,1.82-9.05,4.44l-31.95,34.36c-1.15,1.22-2.7.8-3.56-.14l-30.62-32.93c-2.42-2.48-5.49-3.95-8.66-4.31-4.31-.48-9.05.76-12.33,4.16-2.97,3.09-4.77,7.82-4.66,11.89.1,3.71,1.56,7.61,4.29,10.4l51.4,55.41c1.94,2.14,3.75.66,4.37,0Z" fill="#85b249" stroke-width="0"/>
    <path d="M163.53,205.85l52.49-56.35c2.69-2.81,4.09-6.47,4.1-10.12,0-3.72-1.72-8.01-4.49-10.84-3.06-3.12-7.45-4.52-11.44-4.16-3.18.29-6.27,1.75-8.67,4.25l-32.41,34.79c-1.18,1.25-2.69.72-3.52-.18l-30.69-32.98c-2.32-2.37-5.26-3.79-8.29-4.13-4.13-.46-8.67.66-11.81,3.92-2.85,2.96-4.57,7.49-4.46,11.39.1,3.55,1.5,7.37,4.11,10.04l50.3,54.37c2.24,2.47,4.19.63,4.79,0Z" fill="#8bb54b" stroke-width="0"/>
    <path d="M163.68,204l51.86-55.63c2.57-2.69,3.91-6.19,3.92-9.68,0-3.56-1.65-7.66-4.3-10.36-2.93-2.98-7.12-4.32-10.94-3.97-3.04.28-5.99,1.67-8.29,4.07l-32.86,35.22c-1.22,1.28-2.68.64-3.47-.22l-30.76-33.02c-2.22-2.27-5.03-3.62-7.93-3.95-3.95-.44-8.3.55-11.3,3.67-2.73,2.83-4.37,7.16-4.27,10.9.09,3.4,1.43,7.12,3.93,9.68l49.2,53.32c2.54,2.81,4.64.6,5.21,0Z" fill="#92b84d" stroke-width="0"/>
    <path d="M163.83,202.15l51.23-54.91c2.46-2.56,3.74-5.9,3.74-9.24,0-3.4-1.57-7.31-4.1-9.89-2.79-2.84-6.8-4.12-10.44-3.79-2.9.26-5.72,1.59-7.91,3.88l-33.32,35.64c-1.26,1.31-2.67.57-3.43-.25l-30.83-33.07c-2.12-2.17-4.8-3.46-7.57-3.77-3.77-.42-7.92.45-10.78,3.42-2.6,2.7-4.17,6.84-4.07,10.4.09,3.24,1.37,6.88,3.75,9.31l48.1,52.27c2.84,3.15,5.08.58,5.62-.01Z" fill="#98bc4f" stroke-width="0"/>
    <path d="M163.97,200.3l50.6-54.19c2.34-2.44,3.56-5.62,3.56-8.79,0-3.23-1.5-6.96-3.9-9.42-2.66-2.71-6.47-3.93-9.94-3.61-2.76.25-5.45,1.52-7.53,3.7l-33.77,36.07c-1.29,1.34-2.66.49-3.38-.29l-30.9-33.12c-2.02-2.06-4.57-3.29-7.21-3.58-3.59-.4-7.54.34-10.27,3.17-2.48,2.57-3.97,6.51-3.88,9.9.09,3.09,1.3,6.63,3.57,8.95l47,51.22c3.15,3.49,5.53.55,6.04-.01Z" fill="#9ebf51" stroke-width="0"/>
    <path d="M164.12,198.45l49.97-53.47c2.22-2.32,3.38-5.34,3.38-8.35,0-3.07-1.42-6.61-3.71-8.94-2.53-2.57-6.14-3.73-9.44-3.43-2.62.24-5.17,1.44-7.15,3.51l-34.23,36.5c-1.33,1.37-2.65.41-3.33-.33l-30.97-33.16c-1.92-1.96-4.34-3.12-6.84-3.4-3.41-.38-7.16.24-9.75,2.93-2.35,2.44-3.77,6.18-3.68,9.4.08,2.93,1.24,6.38,3.39,8.59l45.9,50.17c3.45,3.83,5.97.52,6.46-.01Z" fill="#a4c253" stroke-width="0"/>
    <path d="M164.27,196.6l49.35-52.75c2.1-2.19,3.2-5.05,3.2-7.91,0-2.91-1.35-6.26-3.51-8.47-2.39-2.44-5.82-3.53-8.94-3.25-2.48.23-4.9,1.36-6.78,3.32l-34.69,36.93c-1.36,1.39-2.64.34-3.29-.36l-31.04-33.21c-1.81-1.86-4.11-2.96-6.48-3.22-3.23-.36-6.78.13-9.23,2.68-2.23,2.31-3.57,5.85-3.49,8.91.08,2.78,1.17,6.14,3.21,8.23l44.8,49.12c3.75,4.17,6.41.49,6.88-.01Z" fill="#abc655" stroke-width="0"/>
    <path d="M164.41,194.75l48.72-52.03c1.99-2.07,3.02-4.77,3.02-7.47,0-2.75-1.27-5.91-3.32-8-2.26-2.3-5.49-3.33-8.44-3.07-2.34.21-4.62,1.29-6.4,3.14l-35.14,37.36c-1.4,1.42-2.63.26-3.24-.4l-31.11-33.26c-1.71-1.75-3.88-2.79-6.12-3.04-3.04-.34-6.4.03-8.72,2.43-2.1,2.18-3.37,5.53-3.29,8.41.07,2.62,1.11,5.89,3.03,7.86l43.7,48.07c4.05,4.51,6.86.46,7.3-.01Z" fill="#b1ca57" stroke-width="0"/>
    <path d="M164.56,192.9l48.09-51.31c1.87-1.95,2.84-4.49,2.84-7.03,0-2.58-1.19-5.56-3.12-7.52-2.13-2.16-5.17-3.14-7.94-2.89-2.21.2-4.35,1.21-6.02,2.95l-35.6,37.78c-1.43,1.45-2.62.19-3.2-.44l-31.18-33.3c-1.61-1.65-3.65-2.63-5.76-2.86-2.86-.32-6.02-.08-8.2,2.19-1.98,2.05-3.17,5.2-3.1,7.91.07,2.47,1.04,5.65,2.85,7.5l42.6,47.02c4.36,4.85,7.3.43,7.72-.01Z" fill="#b8ce5a" stroke-width="0"/>
    <path d="M164.71,191.05l47.46-50.59c1.75-1.83,2.66-4.21,2.67-6.58,0-2.42-1.12-5.21-2.92-7.05-1.99-2.03-4.84-2.94-7.44-2.7-2.07.19-4.08,1.14-5.64,2.77l-36.05,38.21c-1.47,1.48-2.61.11-3.15-.47l-31.25-33.35c-1.51-1.54-3.42-2.46-5.4-2.68-2.68-.3-5.64-.18-7.68,1.94-1.85,1.93-2.97,4.87-2.9,7.41.06,2.31.97,5.4,2.67,7.14l41.5,45.97c4.66,5.19,7.75.4,8.14-.01Z" fill="#bed25c" stroke-width="0"/>
    <path d="M164.85,189.2l46.83-49.86c1.63-1.7,2.48-3.92,2.49-6.14,0-2.26-1.04-4.86-2.73-6.57-1.86-1.89-4.52-2.74-6.94-2.52-1.93.17-3.8,1.06-5.26,2.58l-36.51,38.64c-1.5,1.51-2.6.03-3.1-.51l-31.32-33.4c-1.41-1.44-3.19-2.3-5.03-2.5-2.5-.28-5.26-.29-7.17,1.69-1.73,1.8-2.77,4.55-2.71,6.91.06,2.15.91,5.16,2.49,6.78l40.4,44.93c4.96,5.52,8.19.38,8.56-.01Z" fill="#c5d65f" stroke-width="0"/>
    <path d="M165,187.35l46.21-49.14c1.52-1.58,2.31-3.64,2.31-5.7,0-2.1-.97-4.51-2.53-6.1-1.72-1.75-4.19-2.54-6.44-2.34-1.79.16-3.53.98-4.88,2.39l-36.97,39.07c-1.54,1.54-2.59-.04-3.06-.55l-31.39-33.44c-1.31-1.34-2.96-2.13-4.67-2.32-2.32-.26-4.88-.39-6.65,1.44-1.61,1.67-2.57,4.22-2.51,6.42.06,2,.84,4.91,2.31,6.41l39.3,43.88c5.26,5.86,8.64.35,8.97-.01Z" fill="#ccdb62" stroke-width="0"/>
    <path d="M210.72,137.08c1.4-1.46,2.13-3.36,2.13-5.26,0-1.93-.89-4.16-2.33-5.63-1.59-1.62-3.87-2.35-5.94-2.16-1.65.15-3.26.91-4.5,2.21l-37.42,39.5c-1.57,1.57-2.58-.12-3.01-.58l-31.46-33.49c-1.21-1.23-2.73-1.97-4.31-2.14-2.14-.24-4.51-.5-6.14,1.2-1.48,1.54-2.37,3.89-2.32,5.92.05,1.84.78,4.66,2.13,6.05l38.2,42.83c5.56,6.2,9.08.32,9.39-.02l45.58-48.42Z" fill="#d4e165" stroke-width="0"/>
  </g>
</svg>