<?xml version="1.0"?>
<svg xmlns="http://www.w3.org/2000/svg" width="378" height="378" viewBox="0 0 378 378" fill="none" version="1.2" baseProfile="tiny-ps">
  <title>kmong</title>
  <path fill-rule="evenodd" d="M0 0H378V378H0V0Z" fill="#FFD400"/>
  <path fill-rule="evenodd" d="M189 295C230.639 295 266.393 268.805 281.845 231.401C300.12 228.166 314 212.204 314 193C314 174.663 301.345 159.281 284.291 155.114C270.457 114.273 233.017 85 189 85C144.983 85 107.543 114.273 93.7085 155.114C76.6554 159.281 64 174.663 64 193C64 212.204 77.8797 228.166 96.1546 231.401C111.607 268.805 147.361 295 189 295ZM259 175C259 187.026 253.557 197.78 245 204.934V216.5V217H244.997C244.69 243.556 219.961 265 189.5 265C159.039 265 134.31 243.556 134.003 217H134V216.5V205.743C124.869 198.605 119 187.488 119 175C119 153.461 136.461 136 158 136C170.639 136 181.873 142.012 189 151.332C196.127 142.012 207.361 136 220 136C241.539 136 259 153.461 259 175Z" fill="#212224"/>
  <path fill-rule="evenodd" d="M170 177C170 183.075 165.747 188 160.5 188C155.253 188 151 183.075 151 177C151 170.925 155.253 166 160.5 166C165.747 166 170 170.925 170 177ZM222 215H157V217.896C157 232.485 171.683 244 189.5 244C207.317 244 222 232.485 222 217.896V215ZM218.5 188C223.747 188 228 183.075 228 177C228 170.925 223.747 166 218.5 166C213.253 166 209 170.925 209 177C209 183.075 213.253 188 218.5 188Z" fill="#212224"/>
</svg>
