<?xml version="1.0" encoding="UTF-8"?>
<svg version="1.2" baseProfile="tiny-ps" id="Layer_1" xmlns="http://www.w3.org/2000/svg" xmlns:xlink="http://www.w3.org/1999/xlink" viewBox="0 0 96 96">
    <title>Rivian</title>
	<path fill="#FFAC00" d="M95.7,44.5c-5.4-5.8-34.6-37-40-41.5c-1.9-1.6-4.4-2.8-7.5-2.8c-3.1,0-5.6,1.1-7.5,2.7
		C35.2,7.4,5.8,38.4,0.4,44.1c-0.4,0.5,0,1.3,0.6,1.3c2.7,0,9,0,12.7,0.1c1.3,0,1.7-0.2,2.6-1.2c0.8-0.9,5-5.5,5-5.5
		C26.6,33,39.6,20,44.3,16c1.8-1.5,3.8-1.5,3.8-1.5c0,0,2,0,3.8,1.5c4.7,4.1,17.6,17.2,22.8,23c0,0,4.1,4.6,5,5.5
		c0.8,0.9,1.2,1.2,2.6,1.2c3.8,0,10,0,12.7,0C95.7,45.8,96.1,45,95.7,44.5z"/>
	<path fill="#FFAC00" d="M0.3,51.5c5.4,5.8,34.6,37,40,41.5c1.9,1.6,4.4,2.8,7.5,2.8c3.1,0,5.6-1.1,7.5-2.7
		c5.5-4.5,34.9-35.5,40.3-41.2c0.4-0.5,0-1.3-0.6-1.3c-2.7,0-9,0-12.7-0.1c-1.3,0-1.7,0.2-2.6,1.2c-0.8,0.9-5,5.5-5,5.5
		C69.4,63,56.4,75.9,51.7,80c-1.8,1.5-3.8,1.5-3.8,1.5c0,0-2,0-3.8-1.5c-4.7-4.1-17.6-17.2-22.8-23c0,0-4.1-4.6-5-5.5
		c-0.8-0.9-1.2-1.2-2.6-1.2c-3.8,0-10,0-12.7,0C0.3,50.2-0.1,51,0.3,51.5z"/>
	<path fill="#FFAC00" d="M44.4,58.3c-2.4-2.3-6.6-6.5-8.2-8.5c-0.7-0.8-0.7-1.9-0.7-1.9s0-1.1,0.7-1.9c1.6-1.9,5.9-6.1,8.3-8.4
		c1-0.9,1.2-1.5,1.2-2.7c0-3.6,0-10.4,0-12.9c0-0.5-0.6-0.8-1-0.4c-5.4,5.1-17.4,17.3-21.5,22.1c-1.9,2.1-1.8,4.2-1.8,4.2
		s-0.2,2.1,1.7,4.2c4,4.8,16,17.1,21.3,22.2c0.5,0.4,1,0.2,1-0.4c0-2.6,0-9.3,0-12.9C45.6,59.8,45.4,59.2,44.4,58.3z"/>
	<path fill="#FFAC00" d="M51.5,58.3c2.4-2.3,6.7-6.5,8.3-8.4c0.7-0.8,0.7-1.9,0.7-1.9s0.1-1.1-0.7-1.9c-1.6-1.9-5.8-6.2-8.2-8.5
		c-1-1-1.2-1.6-1.2-2.7c0-3.6,0-10.3,0-12.9c0-0.6,0.6-0.9,1-0.4c5.4,5.2,17.3,17.5,21.3,22.2c1.9,2.1,1.7,4.2,1.7,4.2
		s0.2,2.1-1.8,4.2c-4,4.7-16.1,16.9-21.5,22.1c-0.5,0.4-1,0.2-1-0.5c0-2.6,0-9.3,0-12.9C50.3,59.9,50.5,59.3,51.5,58.3z"/>
</svg>
