<?xml version="1.0" encoding="utf-8"?>
<!-- Generator: Adobe Illustrator 27.0.0, SVG Export Plug-In . SVG Version: 6.00 Build 0)  -->
<svg version="1.2" baseProfile="tiny-ps" id="Layer_1" xmlns="http://www.w3.org/2000/svg" xmlns:xlink="http://www.w3.org/1999/xlink" viewBox="0 0 200 200" xml:space="preserve">
<title>HENNGE K.K.</title>
<rect x="0.00001" y="-0.00001" fill="none" width="200.00002" height="199.99998"/>
<g>
	<path fill="#282829" d="M39.46689,37.74258c-0.54679-0.40551-1.31878-0.29097-1.72429,0.25582
		c-0.32339,0.43607-0.32339,1.03239-0.00001,1.46846c26.30451,36.06892,26.30451,84.99722,0,121.06613
		c-0.40549,0.54681-0.29092,1.3188,0.2559,1.7243c0.43606,0.32335,1.03233,0.32335,1.46839,0
		c36.06903-26.30461,84.99753-26.30452,121.06645,0.00021c0.54681,0.40544,1.31879,0.2908,1.7242-0.25601
		c0.32329-0.43602,0.32329-1.0322,0-1.4682c-26.30296-36.06819-26.30058-84.99637-0.00021-121.06644
		c0.4055-0.54679,0.29097-1.31878-0.2558-1.72429c-0.43611-0.3234-1.03242-0.32339-1.46849,0.00001
		c-17.56497,12.8487-38.77039,19.75977-60.53311,19.72837C78.23723,57.50233,57.03184,50.59127,39.46689,37.74258z"/>
</g>
</svg>
