<?xml version="1.0" encoding="UTF-8"?>
<svg id="Calque_1" xmlns="http://www.w3.org/2000/svg" baseProfile="tiny-ps" version="1.2" viewBox="0 0 300 300" xml:space="preserve">
  <title>GMP Energie</title>
  <g>
    <g>
      <path d="M176.15,172.39v-53.51l-16.52,34.81h-13.24l-16.66-34.81v53.51h-19.58v-91.8h19.3l23.56,47,23.42-47h19.3v91.8h-19.58,0Z" fill="#0699d6"/>
      <path d="M238.03,140.8h-12.83v31.24h-19.58v-91.41h32.41c20.85,0,33.1,13.69,33.1,30.09s-12.26,30.09-33.1,30.09ZM237.04,97.44h-11.84v26.42h11.84c8.87,0,14.51-5.29,14.51-13.14s-5.63-13.28-14.51-13.28h0Z" fill="#0699d6"/>
    </g>
    <path d="M77.56,152.49c-2.98,2.93-7.38,4.69-12.9,4.69-5.14,0-9.2-1.81-12.05-4.77-3.52-3.87-4.6-8.38-4.6-25.92s1.08-21.92,4.6-25.78c2.84-2.96,6.9-4.9,12.05-4.9,9.6,0,15.15,4.64,17.32,13.41h18.95c-2.57-15.47-13.8-29.4-36.26-29.4-10.96,0-19.08,3.48-25.71,9.67-9.6,9.15-9.74,19.47-9.74,37s.14,27.85,9.74,37c6.63,6.19,14.75,9.67,25.71,9.67,4.55,0,8.84-.49,12.9-1.72v-18.96h0Z" fill="#0699d6"/>
    <polygon points="65.63 124.5 65.63 140.36 84.87 140.36 84.87 159.68 101.42 159.68 101.42 124.5 65.63 124.5" fill="#0699d6"/>
    <g>
      <path d="M35.65,219.61v-28.18h19.19v2.69h-15.89v9.93h13.54v2.69h-13.54v10.17h15.89v2.69h-19.19Z" fill="#0d4d87"/>
      <path d="M90.77,219.61l-16.41-22.6v22.6h-3.3v-28.18h3.13l16.41,22.52v-22.52h3.3v28.18h-3.13Z" fill="#0d4d87"/>
      <path d="M112.21,219.61v-28.18h19.19v2.69h-15.89v9.93h13.54v2.69h-13.54v10.17h15.89v2.69h-19.19Z" fill="#0d4d87"/>
      <path d="M165.38,219.61l-7.03-12.51h-7.42v12.51h-3.3v-28.18h11.85c5.38,0,9.16,2.97,9.16,7.83,0,4.12-2.74,6.81-6.72,7.56l7.34,12.78h-3.87ZM159.17,194.12h-8.25v10.33h8.25c3.6,0,6.16-1.7,6.16-5.15s-2.56-5.18-6.16-5.18Z" fill="#0d4d87"/>
      <path d="M203.36,216.61c-2.17,2.18-5.08,3.25-8.25,3.25s-5.82-1.03-7.73-2.77c-2.91-2.65-3.08-5.11-3.08-11.56s.17-8.91,3.08-11.56c1.91-1.74,4.51-2.77,7.73-2.77,5.81,0,9.94,3.56,10.8,8.43h-3.3c-.87-3.6-3.65-5.74-7.51-5.74-2.13,0-3.95.67-5.34,1.98-1.96,1.82-2.17,3.88-2.17,9.66s.22,7.83,2.17,9.66c1.39,1.31,3.21,1.98,5.34,1.98,2.26,0,4.43-.83,5.86-2.42,1.26-1.42,1.73-2.97,1.73-5.11v-2.18h-7.59v-2.57h10.89v4.48c0,3.25-.65,5.23-2.65,7.24h0Z" fill="#0d4d87"/>
      <path d="M223.07,219.61v-28.18h3.3v28.18h-3.3Z" fill="#0d4d87"/>
      <path d="M244.69,219.61v-28.18h19.19v2.69h-15.89v9.93h13.54v2.69h-13.54v10.17h15.89v2.69h-19.19Z" fill="#0d4d87"/>
    </g>
    <rect x="39.3" y="186.41" width="12.68" height="2.06" fill="#0d4d87"/>
  </g>
</svg>