<?xml version="1.0" encoding="UTF-8"?>
<svg version="1.2" baseProfile="tiny-ps" id="レイヤー_1" xmlns="http://www.w3.org/2000/svg" xmlns:xlink="http://www.w3.org/1999/xlink" viewBox="0 0 750 750" xml:space="preserve">
<title>株式会社セブン銀行</title>
  <rect width="750" height="750" fill="#fff"/>
  <g>
    <path d="M429.798,178.18c62.487-28.022,115.509-31.775,140.075-4.488,30.067,33.389,9.443,104.299-45.887,179.433-.163.215-.134.334.119.334h26.214l-28.931,50.256c-.126.223-.163.483-.03.772l23.738,50.758c.074.159.174.185.293.052,100.587-111.589,141.318-233.461,90.646-289.742-40.086-44.521-126.972-36.444-221.675,12.617-.204.108-.078.189.033.189h14.573c.278,0,.557-.059.831-.182ZM425.195,466.972c-.074,7.732-.074,15.468-.074,23.159v54.57c0,7.561-4.788,12.123-12.123,12.123h-86.444c-7.431,0-12.123-4.503-12.123-12.123v-11.214c0-.263-.108-.342-.334-.223-70.238,35.694-131.278,43.052-158.189,13.166-28.152-31.262-11.871-95.401,35.716-165.108.163-.234.215-.445.215-.802v-9.855c0-.119-.122-.137-.185-.052-70.579,96.593-94.076,192.651-50.754,240.77,58.527,64.997,216.816,17.895,353.539-105.216,14.243-12.829,27.691-25.98,40.29-39.313.178-.186.104-.26-.137-.26h-108.987c-.256,0-.408.104-.408.379ZM336.197,361.871l28.04,96.24c.074.26-.007.39-.238.39h-32.279c-.267,0-.434-.086-.497-.36l-4.15-17.019h-25.056l-4.365,17.027c-.07.267-.208.353-.442.353h-23.545c-.212,0-.312-.063-.223-.371l27.517-96.318c.056-.182.174-.282.427-.282h34.354c.212,0,.397.13.457.342ZM322.93,422.075l-7.632-32.034h-.542l-8.211,32.034h16.385ZM254.875,408.267v-.479c10.264-2.112,14.978-9.996,14.978-21.088,0-17.253-9.172-25.171-27.324-25.171h-42.302c-.178,0-.308.163-.308.312v96.288c0,.26.137.371.382.371h42.714c16.737,0,29.098-6.277,29.098-26.01,0-13.207-2.78-21.255-17.238-24.224ZM229.058,378.827h6.57c5.531,0,8.051,4.755,8.051,10.828,0,8.055-3.682,10.895-7.877,10.895h-6.745v-21.722ZM234.44,440.672h-5.382v-23.534h5.809c7.442,0,9.777,4.506,9.777,11.849,0,11.578-7.012,11.685-10.204,11.685ZM535.136,361.771c.059-.104-.026-.241-.141-.241h-29.555c-.156,0-.286.074-.36.212l-15.479,28.753h-.449v-28.697c0-.148-.071-.267-.267-.267h-29.592c-.186,0-.278.119-.278.267v96.437c0,.212.13.267.278.267h29.592c.148,0,.267-.071.267-.267v-36.834h.512l15.267,36.852c.063.156.204.249.371.249h31.065c.134,0,.215-.089.148-.23l-25.524-54.566,24.143-41.934ZM417.496,361.529c-.148,0-.267.119-.267.267v50.104h-.408l-19.02-50.112c-.059-.163-.163-.26-.379-.26h-27.261c-.197,0-.275.045-.275.267v96.437c0,.197.126.267.275.267h26.863c.148,0,.278-.123.278-.267v-49.818h.408l18.924,49.826c.059.16.137.26.379.26h27.365c.149,0,.267-.071.267-.267v-96.437c0-.148-.119-.267-.267-.267h-26.882Z" fill="#094"/>
    <path d="M436.828,353.459h-94.975c-.2,0-.267-.1-.2-.301,23.074-65.293,68.605-126.452,157.811-165.105,3.163-1.374,6.006-2.283,8.018-1.247,2.042,1.051,2.201,3.545,2.201,6.908v75.769c0,3.764-.241,6.34-1.875,9.165-1.744,3.003-3.89,4.532-7.628,6.466-32.246,16.696-51.348,40.167-62.662,67.873-.126.319-.368.471-.69.471ZM320.15,466.972c-1.318,20.074-1.682,39.77-1.682,58.623v19.105c0,4.911,3.241,8.081,8.085,8.081h86.444c4.981,0,8.081-3.226,8.081-8.081v-54.57c0-7.78.011-15.527.085-23.215,0-.241-.141-.323-.364-.323h-100.223c-.245,0-.401.104-.427.379Z" fill="#e60012"/>
    <path d="M360.313,276.002h-111.916c-4.881,0-8.081-3.237-8.081-8.085v-73.393c0-4.789,3.274-8.081,8.081-8.081h210.209c5.468,0,7.684.286,8.489,2.669.935,2.799-2.042,5.13-5.471,7.127-32.509,18.894-61.834,42.94-83.802,71.307-2.81,3.63-4.703,5.761-7.238,6.975-2.754,1.277-5.382,1.481-10.271,1.481Z" fill="#f08300"/>
  </g>
</svg>