<?xml version="1.0" encoding="UTF-8"?>
<!-- Generator: Adobe Illustrator 26.3.1, SVG Export Plug-In . SVG Version: 6.00 Build 0) -->
<svg version="1.2" baseProfile="tiny-ps" id="Layer_1" xmlns="http://www.w3.org/2000/svg" xmlns:xlink="http://www.w3.org/1999/xlink" viewBox="0 0 1024 1024">
    <title>Siemens_BIMI</title>
    <g id="BoundingBox">
        <polygon fill="#009999" points="0,1024 1024,1024 1024,0 0,0 0,0  " />
    </g>
    <g id="SIEMENS">
        <g>
            <path fill-rule="evenodd" fill="#FFFFFF" d="M94.6,573.70001v-25.29999c14.4,4.5,27.1,6.79999,38.2,6.79999    c15.3,0,22.89999-4,22.89999-12.09998c0-3-1.10001-5.5-3.3-7.59998c-2.3-2.20001-8.10001-5.20001-17.5-9    c-16.8-6.90002-27.8-12.79999-32.9-17.70001c-6.6-6.39999-9.9-14.60001-9.9-24.39999c0-12.60001,4.8-22.29999,14.5-28.89999    c9.5-6.60001,21.89999-9.79999,37.2-9.79999c8.39999,0,20.60001,1.60001,36.60001,4.70001v24.29999    c-11.89999-4.70001-22.89999-7.10001-33.10001-7.10001c-14.3,0-21.5,3.89999-21.5,11.79999c0,3,1.4,5.39999,4.3,7.20001    c2.39999,1.5,9,4.70001,19.89999,9.60001c15.60001,6.89999,26,13,31.2,18.09998c6.10001,6.09998,9.2,13.90002,9.2,23.59998    c0,13.90002-6,24.40002-18.10001,31.70001c-9.8,5.90002-22.39999,8.79999-38,8.79999    C121.1,578.40002,107.9,576.79999,94.6,573.70001L94.6,573.70001z" />
            <polygon fill-rule="evenodd" fill="#FFFFFF" points="210.5,447.89999 210.5,447.89999 246.2,447.89999 246.2,575.79999     210.5,575.79999   " />
            <polygon fill-rule="evenodd" fill="#FFFFFF" points="279,575.79999 279,447.89999 370.60001,447.89999 370.60001,471     313.39999,471 313.39999,499.89999 363.20001,499.89999 363.20001,521 313.39999,521 313.39999,551.29999 372.10001,551.29999     372.10001,575.79999   " />
            <polygon fill-rule="evenodd" fill="#FFFFFF" points="395.39999,575.79999 395.39999,447.89999 441.79999,447.89999 474,529.59998     507,447.89999 551,447.89999 551,575.79999 517.09998,575.79999 517.09998,485.20001 479.60001,577.09998 457.39999,577.09998     420.60001,485.20001 420.60001,575.79999   " />
            <polygon fill-rule="evenodd" fill="#FFFFFF" points="583.70001,575.79999 583.70001,447.89999 675.40002,447.89999 675.40002,471     618.20001,471 618.20001,499.89999 668,499.89999 668,521 618.20001,521 618.20001,551.29999 676.90002,551.29999     676.90002,575.79999   " />
            <polygon fill-rule="evenodd" fill="#FFFFFF" points="700.40002,575.79999 700.40002,447.89999 741.79999,447.89999     785.70001,533.5 785.70001,447.89999 810.90002,447.89999 810.90002,575.79999 770.70001,575.79999 725.59998,489     725.59998,575.79999   " />
            <path fill-rule="evenodd" fill="#FFFFFF" d="M836.29999,573.70001v-25.29999c14.29999,4.5,27,6.79999,38.20001,6.79999    c15.29999,0,22.90002-4,22.90002-12.09998c0-3-1.09998-5.5-3.20001-7.59998c-2.29999-2.20001-8.20001-5.20001-17.59998-9    c-16.79999-6.90002-27.79999-12.79999-32.90002-17.70001c-6.59998-6.39999-9.90002-14.5-9.90002-24.5    c0-12.60001,4.79999-22.20001,14.5-28.79999c9.5-6.60001,21.90002-9.79999,37.20001-9.79999    c8.59998,0,19.79999,1.39999,33.40002,4.10001l3.20001,0.5v24.29999c-11.90002-4.70001-22.90002-7.10001-33.20001-7.10001    c-14.29999,0-21.40002,3.89999-21.40002,11.79999c0,3,1.40002,5.39999,4.29999,7.20001c2.29999,1.5,9,4.60001,20,9.60001    c15.5,6.89999,25.90002,13,31.09998,18.10001c6.20001,6.09998,9.20001,13.90002,9.20001,23.59998    c0,13.90002-6,24.40002-18,31.70001c-9.79999,5.90002-22.5,8.79999-38.09998,8.79999    C862.79999,578.40002,849.59998,576.79999,836.29999,573.70001L836.29999,573.70001z" />
        </g>
    </g>
</svg>
