<svg xmlns="http://www.w3.org/2000/svg" xmlns:xlink="http://www.w3.org/1999/xlink" version="1.2" viewBox="0 0 636.01 636.01" baseProfile="tiny-ps">
  <title>Mintel_Logo_square_BIMI-01</title>
  <rect width="636.01" height="636.01" fill="#FFDB03"/>
  <g>
    <g>
      <path d="M157.78,331.04l-17.98-20.79v38.89h-15.53v-62.27h13.51l20,23.09l20-23.09h13.5v62.27h-15.51v-38.89L157.78,331.04z"/>
    </g>
    <g>
      <path d="M227.54,349.14h-15.52v-62.27h15.52V349.14z"/>
    </g>
    <g>
      <path d="M311.28,349.14h-13.06l-34.42-39.91v39.91h-15.52v-62.27h14.25l33.22,38.07v-38.07h15.53L311.28,349.14L311.28,349.14z"/>
    </g>
    <g>
      <path d="M385.79,298.28h-22.56v50.86h-15.52v-50.86h-22.55v-11.41h60.64v11.41H385.79z"/>
    </g>
    <g>
      <path d="M511.74,349.14h-47.47v-62.27h15.52v50.86h31.95V349.14z"/>
    </g>
    <polygon points="415.18,298.28 445.59,298.28 445.59,286.87 399.66,286.87 399.66,349.14 445.59,349.14 445.59,337.73    415.18,337.73 415.18,323.71 443.59,323.71 443.59,312.3 415.18,312.3  "/>
  </g>
</svg>