<?xml version="1.0" encoding="UTF-8"?>
<svg version="1.2" baseProfile="tiny-ps" xmlns="http://www.w3.org/2000/svg" width="739" height="739">
<title>Neckermann.at</title>
<path d="M0 0 C243.87 0 487.74 0 739 0 C739 243.87 739 487.74 739 739 C495.13 739 251.26 739 0 739 C0 495.13 0 251.26 0 0 Z " fill="#E20026" transform="translate(0,0)"/>
<path d="M0 0 C0.87295715 -0.00376648 1.74591431 -0.00753296 2.64532471 -0.01141357 C17.40148936 -0.04373471 31.65464368 0.76458526 45.8125 5.3125 C46.90046875 5.65023437 47.9884375 5.98796875 49.109375 6.3359375 C70.7512187 13.50179241 87.98600987 26.60888365 98.5625 47.125 C113.9917966 80.95993719 106.92576203 120.3175519 95.8125 154.3125 C95.33321045 155.7975 95.33321045 155.7975 94.84423828 157.3125 C89.73083406 173.01465909 83.9495946 188.46969328 77.04858398 203.48193359 C75.76469114 206.27573697 75.76469114 206.27573697 74.93774414 209.16259766 C73.88421209 212.14629577 73.00107183 214.01324817 70.8125 216.3125 C65.58720431 218.38234739 60.30079301 219.00890932 54.75 219.6875 C53.18089727 219.91216001 51.61237092 220.1408808 50.04443359 220.37353516 C46.85623787 220.8391289 43.66614816 221.2786694 40.47119141 221.6953125 C36.12179963 222.26396924 31.78536896 222.90123652 27.44921875 223.5625 C22.70050281 224.27725704 17.95150129 224.98501676 13.1953125 225.6484375 C12.27121582 225.77782715 11.34711914 225.9072168 10.39501953 226.04052734 C7.84601107 226.30897085 5.37345657 226.3616269 2.8125 226.3125 C3.08400879 225.65467529 3.35551758 224.99685059 3.63525391 224.3190918 C17.65313027 190.21169435 30.88518492 152.96610142 17.5 116.4375 C16.63469106 114.38271033 15.73989926 112.34002331 14.8125 110.3125 C14.39355469 109.38050781 13.97460938 108.44851563 13.54296875 107.48828125 C3.66863271 87.54041507 -15.25293226 76.30418561 -35.1875 68.3125 C-37.73171831 67.56310236 -40.2398042 66.87391725 -42.8125 66.25 C-44.08351563 65.92902344 -45.35453125 65.60804688 -46.6640625 65.27734375 C-57.51247719 62.85230121 -68.07973219 61.95272699 -79.1875 62 C-79.8608136 62.00149048 -80.5341272 62.00298096 -81.22784424 62.0045166 C-93.0776179 62.05139098 -104.55395073 63.00387729 -116.1875 65.3125 C-116.89374512 65.44640137 -117.59999023 65.58030273 -118.32763672 65.71826172 C-156.19094086 73.06992703 -193.21882834 91.1743092 -223.1875 115.3125 C-224.10917969 116.04082031 -225.03085937 116.76914062 -225.98046875 117.51953125 C-233.37291051 123.43988504 -240.31851629 129.80037691 -247.1875 136.3125 C-247.94160156 137.0240625 -248.69570313 137.735625 -249.47265625 138.46875 C-254.86090558 143.69631595 -259.50396448 149.45600087 -264.1875 155.3125 C-264.79980469 156.034375 -265.41210938 156.75625 -266.04296875 157.5 C-277.49201959 171.17050847 -286.83653757 186.69652182 -295.15112305 202.42578125 C-295.49312744 203.04839844 -295.83513184 203.67101562 -296.1875 204.3125 C-296.60169189 205.18382568 -297.01588379 206.05515137 -297.44262695 206.95288086 C-299.1875 209.3125 -299.1875 209.3125 -301.85351562 210.27563477 C-303.45743164 210.51237915 -303.45743164 210.51237915 -305.09375 210.75390625 C-306.29926514 210.94291504 -307.50478027 211.13192383 -308.74682617 211.32666016 C-310.04724854 211.5076123 -311.3476709 211.68856445 -312.6875 211.875 C-314.04106757 212.07926494 -315.39433795 212.28550833 -316.74731445 212.49365234 C-320.21887722 213.02256442 -323.69363138 213.52582644 -327.16998291 214.02215576 C-330.28603879 214.47059254 -333.39874121 214.94089095 -336.51171875 215.41015625 C-340.99590221 216.0835866 -345.48144409 216.74614826 -349.96875 217.3984375 C-358.38708025 218.62676264 -366.78803356 219.96203767 -375.1875 221.3125 C-375.5175 220.6525 -375.8475 219.9925 -376.1875 219.3125 C-375.22216797 216.86767578 -375.22216797 216.86767578 -373.6796875 213.7578125 C-373.11217773 212.60087891 -372.54466797 211.44394531 -371.95996094 210.25195312 C-371.49728821 209.32201538 -371.49728821 209.32201538 -371.02526855 208.37329102 C-369.37816346 205.06153843 -367.75708292 201.73705736 -366.1328125 198.4140625 C-365.79854248 197.7318866 -365.46427246 197.04971069 -365.11987305 196.34686279 C-361.95872303 189.88124041 -358.93898952 183.35361762 -355.9375 176.8125 C-350.83807319 165.73705855 -345.54438757 154.76536455 -340.1875 143.8125 C-334.24800692 131.66808935 -328.42176298 119.48591612 -322.7668457 107.20605469 C-317.37620513 95.50916947 -311.79624215 83.9062457 -306.1875 72.3125 C-307.36441406 72.55484375 -308.54132813 72.7971875 -309.75390625 73.046875 C-326.98241271 76.56199324 -344.27639001 79.58798452 -361.65917969 82.23193359 C-367.32706009 83.11715834 -372.87141947 84.3156566 -378.42578125 85.76171875 C-381.40887221 86.3566492 -384.1534256 86.40661457 -387.1875 86.3125 C-385.2179933 75.12037482 -380.04987277 60.17402433 -370.50634766 53.41308594 C-364.00874028 50.3253934 -357.04501118 48.82976591 -350.05615234 47.25292969 C-344.09536529 45.80392352 -338.34912679 43.79326174 -332.55804443 41.79098511 C-328.83856864 40.51320819 -325.10368439 39.28178846 -321.37109375 38.04296875 C-314.47343436 35.74580557 -307.57868935 33.43996599 -300.68496132 31.13103676 C-295.08305045 29.25484315 -289.4804164 27.38081848 -283.87740135 25.50792503 C-280.36428805 24.33346565 -276.85155759 23.15788828 -273.33972168 21.97961426 C-265.69344544 19.41478992 -258.04181692 16.86824205 -250.37698364 14.35928345 C-248.40325849 13.71151 -246.4311291 13.0588239 -244.4616394 12.39828491 C-234.72441392 9.14171186 -225.98704851 7.62097178 -215.625 8 C-214.41392578 8.02255859 -213.20285156 8.04511719 -211.95507812 8.06835938 C-209.03112242 8.12614506 -206.11007303 8.20751092 -203.1875 8.3125 C-204.61457765 12.94794686 -206.49454247 17.23541563 -208.64453125 21.5703125 C-209.15344406 22.60905266 -209.15344406 22.60905266 -209.67263794 23.66877747 C-210.40054494 25.15433294 -211.12998078 26.63914011 -211.86080933 28.1232605 C-213.79908414 32.06082095 -215.72485756 36.00446251 -217.6484375 39.94921875 C-218.03569504 40.74334671 -218.42295258 41.53747467 -218.82194519 42.35566711 C-222.35056675 49.61129374 -225.75508286 56.91940282 -229.125 64.25 C-234.25013913 75.39112179 -239.61290565 86.38981853 -245.1875 97.3125 C-240.1957022 95.03577017 -236.19619537 92.76866698 -232.25 88.875 C-203.00980048 61.4823955 -165.76344194 42.47311234 -129 27.375 C-127.8773877 26.91391846 -126.75477539 26.45283691 -125.59814453 25.9777832 C-119.94221157 23.69604675 -114.31680995 21.66273513 -108.45263672 19.98876953 C-106.33498828 19.35653347 -104.29815243 18.63028984 -102.23828125 17.83203125 C-69.59195928 5.28077232 -34.78087032 0.08325436 0 0 Z " fill="#FEFDFD" transform="translate(508.1875,212.6875)"/>
<path d="M0 0 C2.62863642 1.47929539 4.85793149 3.04152524 6.9921875 5.17578125 C7.7346875 4.55703125 8.4771875 3.93828125 9.2421875 3.30078125 C14.10724739 -0.45858321 17.75831614 -1.6169654 23.9921875 -0.82421875 C27.57858574 0.59680697 30.62893818 2.06624267 32.9921875 5.17578125 C34.23041998 8.8005512 34.10595364 12.32697327 34.08984375 16.12890625 C34.0884288 16.78912781 34.08701385 17.44934937 34.08555603 18.12957764 C34.07997995 20.22835919 34.06743197 22.3270322 34.0546875 24.42578125 C34.0496694 25.85286304 34.04510704 27.2799465 34.04101562 28.70703125 C34.03087127 32.19668957 34.01129151 35.68611457 33.9921875 39.17578125 C29.3721875 39.17578125 24.7521875 39.17578125 19.9921875 39.17578125 C19.93160156 37.31050781 19.87101562 35.44523438 19.80859375 33.5234375 C19.7242094 31.09504335 19.63956036 28.66665838 19.5546875 26.23828125 C19.51537109 25.00658203 19.47605469 23.77488281 19.43554688 22.50585938 C19.39365234 21.33603516 19.35175781 20.16621094 19.30859375 18.9609375 C19.25360718 17.33490601 19.25360718 17.33490601 19.19750977 15.67602539 C19.26854485 13.23651825 19.26854485 13.23651825 17.9921875 12.17578125 C15.0764184 11.75876003 15.0764184 11.75876003 11.9921875 12.17578125 C9.04157906 15.15713873 8.59476086 17.48314028 8.48046875 21.59765625 C8.44501953 22.62246094 8.40957031 23.64726563 8.37304688 24.703125 C8.35048828 25.76660156 8.32792969 26.83007812 8.3046875 27.92578125 C8.27052734 29.00472656 8.23636719 30.08367188 8.20117188 31.1953125 C8.11878892 33.85510517 8.05380913 36.51542662 7.9921875 39.17578125 C3.3721875 39.17578125 -1.2478125 39.17578125 -6.0078125 39.17578125 C-6.3378125 30.26578125 -6.6678125 21.35578125 -7.0078125 12.17578125 C-13.38102945 11.57159193 -13.38102945 11.57159193 -15.91333008 13.3293457 C-17.41182379 15.85736443 -17.44197402 17.78708656 -17.51953125 20.71875 C-17.55498047 21.79189453 -17.59042969 22.86503906 -17.62695312 23.97070312 C-17.64951172 25.09025391 -17.67207031 26.20980469 -17.6953125 27.36328125 C-17.72947266 28.49443359 -17.76363281 29.62558594 -17.79882812 30.79101562 C-17.8813682 33.58558682 -17.94626485 36.38066893 -18.0078125 39.17578125 C-22.6278125 39.17578125 -27.2478125 39.17578125 -32.0078125 39.17578125 C-32.0078125 26.30578125 -32.0078125 13.43578125 -32.0078125 0.17578125 C-28.0478125 0.17578125 -24.0878125 0.17578125 -20.0078125 0.17578125 C-19.6778125 1.82578125 -19.3478125 3.47578125 -19.0078125 5.17578125 C-18.0796875 4.37140625 -17.1515625 3.56703125 -16.1953125 2.73828125 C-11.61252011 -1.23347216 -5.68273527 -2.332796 0 0 Z " fill="#FEF8F9" transform="translate(373.0078125,577.82421875)"/>
<path d="M0 0 C4.62 0 9.24 0 14 0 C14.33 10.56 14.66 21.12 15 32 C16.340625 29.525 17.68125 27.05 19.0625 24.5 C23.1811606 17.66409318 23.1811606 17.66409318 26.94580078 16.28955078 C31.36612053 15.67605445 35.61753395 16.21115611 40 17 C38.03878679 21.66358258 34.5595507 25.34641016 31.28125 29.13476562 C29.71584402 30.98270212 29.71584402 30.98270212 28 34 C28.71185438 38.84851928 32.82036596 43.29219156 35.625 47.25 C36.64000782 48.6913111 37.65313792 50.13394702 38.6640625 51.578125 C39.33622803 52.52800293 39.33622803 52.52800293 40.02197266 53.49707031 C41 55 41 55 41 56 C35.39 56 29.78 56 24 56 C19.545 47.585 19.545 47.585 15 39 C14.67 44.61 14.34 50.22 14 56 C9.38 56 4.76 56 0 56 C0 37.52 0 19.04 0 0 Z " fill="#FDF6F7" transform="translate(216,561)"/>
<path d="M0 0 C0.7014917 0.00281982 1.4029834 0.00563965 2.12573242 0.00854492 C7.95326003 0.19071865 11.83372542 1.53901062 16.0625 5.5 C16.60261719 5.98855469 17.14273438 6.47710938 17.69921875 6.98046875 C20.6461697 10.26517912 20.25516268 14.16586514 20.37890625 18.35546875 C20.39968735 19.01710526 20.42046844 19.67874176 20.44187927 20.36042786 C20.50714727 22.46934852 20.56615344 24.57839135 20.625 26.6875 C20.66820689 28.11915315 20.71182188 29.55079404 20.75585938 30.98242188 C20.86357185 34.48815796 20.96281308 37.99398975 21.0625 41.5 C16.7725 41.5 12.4825 41.5 8.0625 41.5 C7.7325 40.18 7.4025 38.86 7.0625 37.5 C5.886875 38.4590625 5.886875 38.4590625 4.6875 39.4375 C-0.06206605 43.1693019 -4.04432405 42.98958692 -9.9375 42.5 C-13.87672306 41.18692565 -15.56744294 39.91874878 -18.3125 36.8125 C-20.23144797 32.90079838 -21.02049041 29.72610545 -19.9375 25.5 C-17.21342829 20.87541315 -14.13710968 18.00210946 -8.9375 16.5 C-6.12756055 16.36239278 -3.42748076 16.30988427 -0.625 16.375 C0.11556641 16.38402344 0.85613281 16.39304687 1.61914062 16.40234375 C3.43373467 16.42575787 5.24816071 16.46162385 7.0625 16.5 C6.05529248 13.89462216 6.05529248 13.89462216 4.0625 11.5 C0.811264 10.85488506 0.811264 10.85488506 -2.8125 11.125 C-4.02679687 11.15851562 -5.24109375 11.19203125 -6.4921875 11.2265625 C-9.39794261 11.45717798 -12.10306199 11.84258282 -14.9375 12.5 C-14.9375 9.53 -14.9375 6.56 -14.9375 3.5 C-9.88549672 1.02983975 -5.67056346 -0.05095151 0 0 Z " fill="#FEF8F9" transform="translate(603.9375,577.5)"/>
<path d="M0 0 C3.62334074 3.05970996 5.56284125 5.50937988 7 10 C7.22705078 13.04614258 7.22705078 13.04614258 7.1953125 16.39453125 C7.18886719 17.59658203 7.18242187 18.79863281 7.17578125 20.03710938 C7.15902344 21.28298828 7.14226562 22.52886719 7.125 23.8125 C7.11597656 25.07771484 7.10695313 26.34292969 7.09765625 27.64648438 C7.07412478 30.76440405 7.03825489 33.88222622 7 37 C3.04 37 -0.92 37 -5 37 C-5 35.35 -5 33.7 -5 32 C-5.66 32 -6.32 32 -7 32 C-7.2475 32.61875 -7.495 33.2375 -7.75 33.875 C-9.27133713 36.46127312 -10.2350516 36.90932831 -13 38 C-18.34961508 38.6949651 -22.71878006 38.65184874 -27.5625 36.1875 C-30.23254759 33.79130345 -31.80599866 32.09361816 -32.44140625 28.51171875 C-32.76019391 21.07676781 -32.76019391 21.07676781 -30.57421875 17.98046875 C-25.07495358 13.14064437 -20.41779272 12.84942693 -13.25 12.9375 C-12.55261719 12.94201172 -11.85523438 12.94652344 -11.13671875 12.95117188 C-9.42444197 12.9628998 -7.71220967 12.98083347 -6 13 C-7.3089572 9.87802522 -7.3089572 9.87802522 -10 8 C-12.10231877 7.90248453 -14.20792623 7.87023313 -16.3125 7.875 C-17.44300781 7.87242187 -18.57351563 7.86984375 -19.73828125 7.8671875 C-22.62153596 7.98458949 -25.1990855 8.33787012 -28 9 C-28 6.03 -28 3.06 -28 0 C-18.53040068 -3.22827249 -9.1099554 -5.28377413 0 0 Z " fill="#FDF7F8" transform="translate(446,580)"/>
<path d="M0 0 C5.30625224 3.29466072 6.68910468 7.87498367 8.390625 13.5859375 C8.90625 16.18359375 8.90625 16.18359375 8.90625 22.18359375 C-0.00375 22.18359375 -8.91375 22.18359375 -18.09375 22.18359375 C-15.77123574 27.068549 -15.77123574 27.068549 -13.09375 28.18359375 C-6.7519918 28.6904629 -1.16801803 27.98337687 4.90625 26.18359375 C4.90625 29.48359375 4.90625 32.78359375 4.90625 36.18359375 C-2.61573024 39.11271378 -11.87711359 39.53976511 -19.73828125 37.49609375 C-25.52214483 34.84193073 -29.71354334 30.0819129 -32.09375 24.18359375 C-32.95202022 16.54898072 -32.9415876 10.30717808 -28.09375 4.18359375 C-20.0667608 -4.01932946 -10.14301413 -5.16079416 0 0 Z " fill="#FDF7F8" transform="translate(164.09375,579.81640625)"/>
<path d="M0 0 C3.67994631 3.29729702 6.86749073 7.13021015 8 12 C8 15.3 8 18.6 8 22 C-0.91 22 -9.82 22 -19 22 C-17.69851484 26.94753044 -17.69851484 26.94753044 -15.17578125 27.80078125 C-8.3976029 28.4214044 -2.45542916 28.24536666 4 26 C4 29.3 4 32.6 4 36 C-4.27640554 39.17451172 -14.76099965 39.60456265 -23 36 C-28.08550726 32.60966183 -31.21611351 28.91288219 -33 23 C-34.01644122 15.88491143 -33.25626208 9.88899213 -29 4 C-21.37298214 -3.83887946 -9.44649519 -5.56250233 0 0 Z " fill="#FDF7F8" transform="translate(293,580)"/>
<path d="M0 0 C3.98561154 2.62688033 6.23980531 5.28191592 7.75 9.8125 C7.83358958 12.02339945 7.85731764 14.23676078 7.84765625 16.44921875 C7.84443359 17.74794922 7.84121094 19.04667969 7.83789062 20.38476562 C7.82953531 21.75651108 7.82107037 23.12825587 7.8125 24.5 C7.80748335 25.88346195 7.80292073 27.26692563 7.79882812 28.65039062 C7.78702538 32.03777896 7.76908967 35.4251449 7.75 38.8125 C3.13 38.8125 -1.49 38.8125 -6.25 38.8125 C-6.58 29.9025 -6.91 20.9925 -7.25 11.8125 C-14.53614269 11.06470247 -14.53614269 11.06470247 -17.1875 13.125 C-19.15755958 16.25391815 -19.41365216 19.09858659 -19.56640625 22.69921875 C-19.60830078 23.63701172 -19.65019531 24.57480469 -19.69335938 25.54101562 C-19.73267578 26.51748047 -19.77199219 27.49394531 -19.8125 28.5 C-19.85568359 29.48806641 -19.89886719 30.47613281 -19.94335938 31.49414062 C-20.04941542 33.93342972 -20.15020974 36.37294654 -20.25 38.8125 C-24.87 38.8125 -29.49 38.8125 -34.25 38.8125 C-34.25 25.9425 -34.25 13.0725 -34.25 -0.1875 C-29.96 -0.1875 -25.67 -0.1875 -21.25 -0.1875 C-20.92 1.4625 -20.59 3.1125 -20.25 4.8125 C-19.321875 4.008125 -18.39375 3.20375 -17.4375 2.375 C-12.27951801 -2.09525106 -6.22621963 -2.27496486 0 0 Z " fill="#FDF5F7" transform="translate(544.25,578.1875)"/>
<path d="M0 0 C4.09529785 1.95139192 6.25862764 4.64222869 8.21948242 8.76757812 C9.91355609 14.30747434 9.41712265 20.13749028 9.265625 25.87109375 C9.24757812 27.17046875 9.22953125 28.46984375 9.2109375 29.80859375 C9.16405779 32.99641387 9.09232334 36.18385166 9.015625 39.37109375 C4.395625 39.37109375 -0.224375 39.37109375 -4.984375 39.37109375 C-5.03335938 37.67339844 -5.08234375 35.97570312 -5.1328125 34.2265625 C-5.20783944 32.00388952 -5.2833873 29.78123409 -5.359375 27.55859375 C-5.3903125 26.43904297 -5.42125 25.31949219 -5.453125 24.16601562 C-5.49179688 23.09287109 -5.53046875 22.01972656 -5.5703125 20.9140625 C-5.61744385 19.42942505 -5.61744385 19.42942505 -5.66552734 17.91479492 C-5.82210933 15.13034281 -5.82210933 15.13034281 -7.984375 12.37109375 C-11.44206691 11.78767022 -11.44206691 11.78767022 -14.984375 12.37109375 C-17.95214963 15.33501135 -18.38191219 17.68243256 -18.49609375 21.79296875 C-18.53154297 22.81777344 -18.56699219 23.84257813 -18.60351562 24.8984375 C-18.63735352 26.49365234 -18.63735352 26.49365234 -18.671875 28.12109375 C-18.70603516 29.20003906 -18.74019531 30.27898438 -18.77539062 31.390625 C-18.85777358 34.05041767 -18.92275337 36.71073912 -18.984375 39.37109375 C-23.604375 39.37109375 -28.224375 39.37109375 -32.984375 39.37109375 C-32.984375 26.50109375 -32.984375 13.63109375 -32.984375 0.37109375 C-28.694375 0.37109375 -24.404375 0.37109375 -19.984375 0.37109375 C-19.654375 1.69109375 -19.324375 3.01109375 -18.984375 4.37109375 C-18.51128906 4.01015625 -18.03820312 3.64921875 -17.55078125 3.27734375 C-11.74544801 -0.79657431 -6.90109571 -2.18715829 0 0 Z " fill="#FDF6F7" transform="translate(116.984375,577.62890625)"/>
<path d="M0 0 C2.41228198 1.86671045 3.4135224 3.6164013 4.76171875 6.36328125 C5.10229492 9.77661133 5.10229492 9.77661133 5.0546875 13.6328125 C5.05044266 14.31381516 5.04619781 14.99481781 5.04182434 15.69645691 C5.02512485 17.85664584 4.98749187 20.01587767 4.94921875 22.17578125 C4.93416049 23.64647083 4.92047409 25.11717514 4.90820312 26.58789062 C4.87525089 30.17999482 4.82353048 33.77154451 4.76171875 37.36328125 C0.47171875 37.36328125 -3.81828125 37.36328125 -8.23828125 37.36328125 C-8.29886719 35.73777344 -8.35945313 34.11226562 -8.421875 32.4375 C-8.50628134 30.30858466 -8.59092929 28.17967888 -8.67578125 26.05078125 C-8.71509766 24.97892578 -8.75441406 23.90707031 -8.79492188 22.80273438 C-8.83681641 21.77470703 -8.87871094 20.74667969 -8.921875 19.6875 C-8.95853271 18.73963623 -8.99519043 17.79177246 -9.03295898 16.81518555 C-9.15258312 14.22711025 -9.15258312 14.22711025 -10.23828125 11.36328125 C-13.06711872 9.94886251 -15.1120487 10.04427793 -18.23828125 10.36328125 C-21.18560534 13.34833039 -21.63567278 15.66937627 -21.75 19.78515625 C-21.78544922 20.80996094 -21.82089844 21.83476563 -21.85742188 22.890625 C-21.89125977 24.48583984 -21.89125977 24.48583984 -21.92578125 26.11328125 C-21.95994141 27.19222656 -21.99410156 28.27117188 -22.02929688 29.3828125 C-22.11167983 32.04260517 -22.17665962 34.70292662 -22.23828125 37.36328125 C-26.85828125 37.36328125 -31.47828125 37.36328125 -36.23828125 37.36328125 C-36.23828125 24.49328125 -36.23828125 11.62328125 -36.23828125 -1.63671875 C-32.27828125 -1.63671875 -28.31828125 -1.63671875 -24.23828125 -1.63671875 C-23.90828125 0.01328125 -23.57828125 1.66328125 -23.23828125 3.36328125 C-22.31015625 2.55890625 -21.38203125 1.75453125 -20.42578125 0.92578125 C-14.11114801 -4.54690089 -6.98440172 -3.44261586 0 0 Z " fill="#FEFAFA" transform="translate(497.23828125,579.63671875)"/>
<path d="M0 0 C0 4.29 0 8.58 0 13 C3.3 13 6.6 13 10 13 C10 16.3 10 19.6 10 23 C6.7 23 3.4 23 0 23 C0.14016167 26.14618209 0.28684905 29.29181816 0.4375 32.4375 C0.47681641 33.33533203 0.51613281 34.23316406 0.55664062 35.15820312 C0.59853516 36.01220703 0.64042969 36.86621094 0.68359375 37.74609375 C0.72025146 38.53685303 0.75690918 39.3276123 0.79467773 40.14233398 C0.80563257 42.01401441 0.80563257 42.01401441 2 43 C3.34747084 43.23075082 4.70377565 43.41153063 6.0625 43.5625 C7.361875 43.706875 8.66125 43.85125 10 44 C10.02689216 45.47906892 10.04634621 46.95827483 10.0625 48.4375 C10.07410156 49.26121094 10.08570313 50.08492187 10.09765625 50.93359375 C10 53 10 53 9 54 C6.75365446 54.15289263 4.50136826 54.22197467 2.25 54.25 C1.01765625 54.27578125 -0.2146875 54.3015625 -1.484375 54.328125 C-6.11091653 53.89631446 -8.71183824 52.47218487 -11.75 49 C-13.84040398 45.65535364 -14.12098105 42.96187345 -14.09765625 39.11328125 C-14.09443359 38.17548828 -14.09121094 37.23769531 -14.08789062 36.27148438 C-14.07951172 35.29501953 -14.07113281 34.31855469 -14.0625 33.3125 C-14.05798828 32.32443359 -14.05347656 31.33636719 -14.04882812 30.31835938 C-14.03704303 27.87884526 -14.02059011 25.43945311 -14 23 C-16.64 23 -19.28 23 -22 23 C-22 19.7 -22 16.4 -22 13 C-19.36 13 -16.72 13 -14 13 C-14 10.03 -14 7.06 -14 4 C-12.23141309 3.32739649 -10.46003984 2.66211605 -8.6875 2 C-7.70136719 1.62875 -6.71523438 1.2575 -5.69921875 0.875 C-3 0 -3 0 0 0 Z " fill="#FEF8F9" transform="translate(651,566)"/>
<path d="M0 0 C0.125 7.75 0.125 7.75 -1 10 C-1.89203125 9.95359375 -2.7840625 9.9071875 -3.703125 9.859375 C-4.87359375 9.82328125 -6.0440625 9.7871875 -7.25 9.75 C-8.41015625 9.70359375 -9.5703125 9.6571875 -10.765625 9.609375 C-14.04964581 9.7393401 -14.04964581 9.7393401 -16.38671875 11.73828125 C-18.64984257 14.91103837 -18.63795501 17.00857075 -18.4375 20.8046875 C-18.08141814 23.27705662 -18.08141814 23.27705662 -16.0625 26.0625 C-11.94932635 28.6647119 -8.74063834 28.59363986 -4 28 C-2.68 27.67 -1.36 27.34 0 27 C0 30.63 0 34.26 0 38 C-6.73777029 40.24592343 -15.32991838 40.16943407 -22.1015625 38.01171875 C-27.64705181 35.03792916 -30.78552305 31.3669702 -33.22265625 25.58203125 C-34.93981577 19.8783004 -34.79891062 15.21146951 -32.375 9.75 C-29.36338093 4.43475651 -24.82691528 0.74003814 -19.125 -1.5 C-12.65791368 -3.02166737 -6.03356696 -2.77367272 0 0 Z " fill="#FDF5F6" transform="translate(211,579)"/>
<path d="M0 0 C0 3.96 0 7.92 0 12 C-2.10375 12.12375 -2.10375 12.12375 -4.25 12.25 C-7.54454557 12.61260722 -8.7851844 12.8388883 -11.5 14.875 C-13.77132124 18.0927051 -14.14548771 20.83451013 -14.31640625 24.66796875 C-14.35830078 25.56064453 -14.40019531 26.45332031 -14.44335938 27.37304688 C-14.50233398 28.76620117 -14.50233398 28.76620117 -14.5625 30.1875 C-14.60568359 31.12787109 -14.64886719 32.06824219 -14.69335938 33.03710938 C-14.79938543 35.35790188 -14.90019194 37.67893177 -15 40 C-19.62 40 -24.24 40 -29 40 C-29 27.13 -29 14.26 -29 1 C-24.71 1 -20.42 1 -16 1 C-15.67 2.65 -15.34 4.3 -15 6 C-14.21625 5.195625 -13.4325 4.39125 -12.625 3.5625 C-8.32182266 -0.63822074 -5.79413828 -0.09345384 0 0 Z " fill="#FDF3F5" transform="translate(336,577)"/>
<path d="M0 0 C4.29 0 8.58 0 13 0 C13 4.29 13 8.58 13 13 C8.71 13 4.42 13 0 13 C0 8.71 0 4.42 0 0 Z " fill="#FDF0F2" transform="translate(564,606)"/>
<path d="M0 0 C0.90105469 0.01804687 1.80210937 0.03609375 2.73046875 0.0546875 C3.41753906 0.07789063 4.10460937 0.10109375 4.8125 0.125 C4.3325 5.525 4.3325 5.525 2.1875 8 C-1.07973991 9.54763996 -3.62022567 9.45530318 -7.1875 9.125 C-7.8475 8.465 -8.5075 7.805 -9.1875 7.125 C-9 4.625 -9 4.625 -8.1875 2.125 C-4.87379 -0.08414 -3.8428979 -0.09981553 0 0 Z " fill="#E31033" transform="translate(606.1875,600.875)"/>
<path d="M0 0 C0.99773437 0.02320313 1.99546875 0.04640625 3.0234375 0.0703125 C4.52777344 0.09738281 4.52777344 0.09738281 6.0625 0.125 C6.83335937 0.14820313 7.60421875 0.17140625 8.3984375 0.1953125 C7.87198117 3.60878741 7.65111261 4.92819882 5.2109375 7.5078125 C1.9326876 9.47476244 0.15807092 9.69659696 -3.6015625 9.1953125 C-4.2615625 8.5353125 -4.9215625 7.8753125 -5.6015625 7.1953125 C-5.18473173 3.0270048 -4.61912383 0.34678107 0 0 Z " fill="#E31033" transform="translate(431.6015625,599.8046875)"/>
<path d="M0 0 C2 2 2 2 2 7 C-2.62 7 -7.24 7 -12 7 C-11 2 -11 2 -9.375 0.125 C-5.95349813 -1.49571141 -3.61340687 -0.86989425 0 0 Z " fill="#E2072C" transform="translate(286,587)"/>
<path d="M0 0 C4.80131681 1.1145914 4.80131681 1.1145914 6.5 3.8125 C6.5 5.1325 6.5 6.4525 6.5 7.8125 C1.88 7.8125 -2.74 7.8125 -7.5 7.8125 C-7.17 5.8325 -6.84 3.8525 -6.5 1.8125 C-3.5 -0.1875 -3.5 -0.1875 0 0 Z " fill="#E2062B" transform="translate(153.5,586.1875)"/>
</svg>
