<svg xmlns="http://www.w3.org/2000/svg" xmlns:xlink="http://www.w3.org/1999/xlink" version="1.2" viewBox="0 0 1000 1000" baseProfile="tiny-ps">
  <title>888poker tb</title>
  <rect width="1000" height="1000"/>
  <g>
    <g>
      <path d="M317.438,447.678c0-26.475-21.462-47.937-47.937-47.937c-26.474,0-47.937,21.461-47.937,47.937    c0,13.022,5.21,24.815,13.638,33.454c-8.427,8.639-13.638,20.432-13.638,33.454c0,26.475,21.462,47.937,47.937,47.937    c26.474,0,47.937-21.462,47.937-47.937c0-13.022-5.21-24.815-13.638-33.454C312.227,472.493,317.438,460.7,317.438,447.678    L317.438,447.678z M269.503,533.621c-10.504,0-19.019-8.515-19.019-19.019c0-10.503,8.514-19.019,19.019-19.019    s19.019,8.514,19.019,19.019C288.521,525.107,280.006,533.621,269.503,533.621z M269.503,466.681    c-10.504,0-19.019-8.515-19.019-19.019c0-10.503,8.514-19.019,19.019-19.019s19.019,8.514,19.019,19.019    C288.521,458.166,280.006,466.681,269.503,466.681z" fill="#0372D8"/>
      <path d="M417.002,447.678c0-26.475-21.462-47.937-47.937-47.937s-47.937,21.461-47.937,47.937    c0,13.022,5.21,24.815,13.638,33.454c-8.427,8.639-13.638,20.432-13.638,33.454c0,26.475,21.462,47.937,47.937,47.937    s47.937-21.462,47.937-47.937c0-13.022-5.21-24.815-13.638-33.454C411.791,472.493,417.002,460.7,417.002,447.678L417.002,447.678    z M369.067,533.621c-10.504,0-19.019-8.515-19.019-19.019c0-10.503,8.514-19.019,19.019-19.019s19.019,8.514,19.019,19.019    C388.085,525.107,379.57,533.621,369.067,533.621z M369.067,466.681c-10.504,0-19.019-8.515-19.019-19.019    c0-10.503,8.514-19.019,19.019-19.019s19.019,8.514,19.019,19.019C388.085,458.166,379.57,466.681,369.067,466.681z" fill="#0372D8"/>
      <path d="M217.874,447.678c0-26.475-21.462-47.937-47.937-47.937s-47.937,21.461-47.937,47.937    c0,13.022,5.21,24.815,13.638,33.454c-8.427,8.639-13.638,20.432-13.638,33.454c0,26.475,21.462,47.937,47.937,47.937    s47.937-21.462,47.937-47.937c0-13.022-5.21-24.815-13.638-33.454C212.663,472.493,217.874,460.7,217.874,447.678L217.874,447.678    z M169.94,533.621c-10.504,0-19.019-8.515-19.019-19.019c0-10.503,8.514-19.019,19.019-19.019    c10.504,0,19.019,8.514,19.019,19.019C188.958,525.107,180.443,533.621,169.94,533.621z M169.94,466.681    c-10.504,0-19.019-8.515-19.019-19.019c0-10.503,8.514-19.019,19.019-19.019c10.504,0,19.019,8.514,19.019,19.019    C188.958,458.166,180.443,466.681,169.94,466.681z" fill="#0372D8"/>
      <path d="M204.024,481.132c-0.106-0.108-0.196-0.223-0.303-0.331c-9.309-9.368-20.521-13.994-33.695-13.994    s-24.504,4.625-33.871,13.994c-0.107,0.107-0.196,0.222-0.302,0.33c0.106,0.107,0.195,0.222,0.302,0.329    c9.368,9.309,20.698,13.995,33.871,13.995s24.386-4.684,33.695-13.995C203.829,481.354,203.918,481.239,204.024,481.132    L204.024,481.132z" fill="#0080FF"/>
      <path d="M303.587,481.132c-0.106-0.108-0.196-0.223-0.303-0.331c-9.309-9.368-20.521-13.994-33.695-13.994    s-24.504,4.625-33.871,13.994c-0.107,0.107-0.196,0.222-0.302,0.33c0.106,0.107,0.195,0.222,0.302,0.329    c9.368,9.309,20.698,13.995,33.871,13.995s24.386-4.684,33.695-13.995C303.392,481.354,303.481,481.239,303.587,481.132    L303.587,481.132z" fill="#0080FF"/>
      <path d="M403.151,481.132c-0.106-0.108-0.196-0.223-0.303-0.331c-9.309-9.368-20.521-13.994-33.695-13.994    c-13.174,0-24.503,4.625-33.871,13.994c-0.107,0.107-0.196,0.222-0.302,0.33c0.106,0.107,0.195,0.222,0.302,0.329    c9.368,9.309,20.698,13.995,33.871,13.995c13.173,0,24.386-4.684,33.695-13.995C402.956,481.354,403.045,481.239,403.151,481.132    L403.151,481.132z" fill="#0080FF"/>
    </g>
    <g>
      <path d="M528.915,514.338v0.349c0,27.244-19.211,47.501-46.105,47.501c-15.717,0-26.894-7.51-33.355-19.21    v57.28h-17.638v-131.85h17.638v17.114c6.462-11.701,17.639-18.861,33.355-18.861C509.879,466.662,528.915,487.095,528.915,514.338    L528.915,514.338z M510.927,514.164c0-18.162-12.923-30.735-29.688-30.735c-16.242,0-29.862,12.573-29.862,30.735v0.349    c0,17.987,13.272,30.735,29.513,30.735c16.59,0,30.038-12.747,30.038-30.735v-0.349H510.927z" fill="#0080FF"/>
      <path d="M539.565,514.513v-0.349c0-27.068,20.433-47.675,47.501-47.675s47.676,20.082,47.676,47.326v0.349    c0,27.244-20.433,47.85-47.676,47.85C560.171,562.013,539.565,541.755,539.565,514.513L539.565,514.513z M616.928,514.338v-0.349    c0-17.987-13.447-30.736-30.038-30.736c-16.242,0-29.513,12.748-29.513,30.736v0.349c0,18.162,13.621,30.735,29.862,30.735    C604.005,545.073,616.927,532.5,616.928,514.338L616.928,514.338z" fill="#0080FF"/>
      <path d="M677.874,521.673l-12.4,14.32v24.1h-17.638V431.038h17.638v80.681l37.721-43.309h20.781    l-35.451,41.04l39.468,50.644h-20.607l-29.513-38.42L677.874,521.673z" fill="#0080FF"/>
      <path d="M814.436,518.879h-72.125c1.747,16.59,13.273,27.767,29.164,27.767    c11.876,0,21.48-6.637,26.545-16.59l13.621,7.334c-7.51,13.796-20.956,24.624-41.214,24.624    c-26.371,0-46.278-20.258-46.278-47.501v-0.349c0-27.068,19.909-47.675,45.58-47.675c30.212,0,44.707,23.576,44.707,45.754    L814.436,518.879L814.436,518.879z M796.973,505.606c-0.175-11.001-8.209-23.749-26.719-23.749    c-14.67,0-24.448,10.304-27.244,23.749H796.973z" fill="#0080FF"/>
      <path d="M827.356,468.409h17.639v20.956c5.937-13.272,17.638-22.528,33.006-22.353v16.766h-2.271    c-16.939,0-30.735,14.844-30.735,29.688v46.628h-17.639V468.409L827.356,468.409z" fill="#0080FF"/>
    </g>
  </g>
</svg>