<svg xmlns="http://www.w3.org/2000/svg" xmlns:xlink="http://www.w3.org/1999/xlink" version="1.2" viewBox="0 0 1000 1000" baseProfile="tiny-ps">
  <title>888sport</title>
  <rect y="-0.5" width="1000" height="1000"/>
  <g>
    <g>
      <path d="M512.253,474.281l-4.862,15.487c-4.682-3.243-15.307-10.085-24.85-10.265    c-9.904-0.18-17.288,4.682-16.567,12.246c0.54,4.68,4.502,8.644,15.847,12.965c16.387,6.124,33.133,12.426,34.214,30.613    c0.721,17.108-13.145,28.632-35.835,28.812c-17.647,0-32.413-9.365-38.536-16.927l7.203-14.406    c6.663,7.024,18.368,15.847,31.332,16.028c11.166,0,18.368-5.403,17.467-12.965c-0.901-8.284-10.084-10.986-17.648-14.227    c-25.39-9.005-32.053-16.387-32.413-30.433c-0.36-15.307,13.506-27.911,35.114-27.19    C495.686,464.378,506.67,469.781,512.253,474.281L512.253,474.281z" fill="#FF6400"/>
      <path d="M630.009,514.079v0.359c0,28.091-19.628,48.98-47.54,48.98c-16.207,0-27.731-7.743-34.394-19.988    v59.245h-18.188V466.72h18.188v17.827c6.663-12.064,18.188-19.628,34.394-19.628C610.56,464.919,630.009,485.988,630.009,514.079    L630.009,514.079z M611.461,513.899c0-18.728-13.325-31.693-30.432-31.693c-16.747,0-30.973,12.965-30.973,31.693v0.359    c0,18.547,13.686,31.693,30.613,31.693c17.108,0,30.792-13.146,30.792-31.693V513.899z" fill="#FF6400"/>
      <path d="M738.757,513.538v0.361c0,28.091-21.068,49.34-48.98,49.34s-49.161-20.889-49.161-48.98v-0.359    c0-27.911,21.068-49.16,49.161-49.16C717.508,464.739,738.757,485.447,738.757,513.538z M658.985,513.717v0.361    c0,18.727,14.226,31.693,30.972,31.693c17.108,0,30.433-12.967,30.433-31.693v-0.361c0-18.547-13.686-31.691-30.793-31.691    C672.67,482.026,658.985,495.171,658.985,513.717L658.985,513.717z" fill="#FF6400"/>
      <path d="M803.03,482.565c-17.467,0-31.513,15.307-31.513,30.613v48.08h-18.188v-94.538h18.188v21.608    c6.123-13.685,18.188-23.229,33.854-23.049v17.288L803.03,482.565L803.03,482.565z" fill="#FF6400"/>
      <path d="M871.448,466.72v17.106h-27.191v48.801c0,9.185,4.862,13.506,12.966,13.506    c3.961,0,9.544-0.719,14.227-2.16v15.307c-5.043,2.34-12.786,3.782-18.727,3.782c-16.568,0-26.651-8.284-26.651-27.011v-52.222    h-12.785v-17.106h12.785v-27.913h18.188v27.913h27.191L871.448,466.72z" fill="#FF6400"/>
    </g>
    <g>
      <path d="M331.228,446.037c0-27.455-22.257-49.712-49.712-49.712c-27.455,0-49.712,22.256-49.712,49.712    c0,13.505,5.404,25.733,14.144,34.693c-8.74,8.959-14.144,21.188-14.144,34.693c0,27.455,22.257,49.712,49.712,49.712    c27.455,0,49.712-22.257,49.712-49.712c0-13.505-5.404-25.733-14.143-34.693C325.825,471.771,331.228,459.542,331.228,446.037    L331.228,446.037z M281.518,535.164c-10.893,0-19.723-8.831-19.723-19.723c0-10.892,8.83-19.723,19.723-19.723    c10.893,0,19.723,8.83,19.723,19.723S292.411,535.164,281.518,535.164z M281.518,465.744c-10.893,0-19.723-8.831-19.723-19.723    s8.83-19.723,19.723-19.723c10.893,0,19.723,8.83,19.723,19.723C301.241,456.914,292.411,465.744,281.518,465.744z" fill="#EB590E"/>
      <path d="M434.48,446.037c0-27.455-22.257-49.712-49.712-49.712c-27.455,0-49.712,22.256-49.712,49.712    c0,13.505,5.404,25.733,14.144,34.693c-8.74,8.959-14.144,21.188-14.144,34.693c0,27.455,22.257,49.712,49.712,49.712    c27.455,0,49.712-22.257,49.712-49.712c0-13.505-5.403-25.733-14.143-34.693C429.077,471.771,434.48,459.542,434.48,446.037    L434.48,446.037z M384.769,535.164c-10.893,0-19.723-8.831-19.723-19.723c0-10.892,8.83-19.723,19.723-19.723    c10.893,0,19.723,8.83,19.723,19.723S395.662,535.164,384.769,535.164z M384.769,465.744c-10.893,0-19.723-8.831-19.723-19.723    s8.83-19.723,19.723-19.723c10.893,0,19.723,8.83,19.723,19.723C404.492,456.914,395.662,465.744,384.769,465.744z" fill="#EB590E"/>
      <path d="M227.977,446.037c0-27.455-22.257-49.712-49.712-49.712s-49.712,22.256-49.712,49.712    c0,13.505,5.404,25.733,14.144,34.693c-8.74,8.959-14.144,21.188-14.144,34.693c0,27.455,22.257,49.712,49.712,49.712    s49.712-22.257,49.712-49.712c0-13.505-5.403-25.733-14.143-34.693C222.574,471.771,227.977,459.542,227.977,446.037    L227.977,446.037z M178.267,535.164c-10.893,0-19.723-8.831-19.723-19.723c0-10.892,8.83-19.723,19.723-19.723    s19.723,8.83,19.723,19.723S189.16,535.164,178.267,535.164z M178.267,465.744c-10.893,0-19.723-8.831-19.723-19.723    s8.83-19.723,19.723-19.723s19.723,8.83,19.723,19.723C197.99,456.914,189.16,465.744,178.267,465.744z" fill="#EB590E"/>
      <path d="M213.615,480.731c-0.111-0.112-0.203-0.231-0.314-0.343c-9.654-9.715-21.281-14.511-34.943-14.511    c-13.662,0-25.411,4.797-35.125,14.511c-0.112,0.112-0.203,0.23-0.313,0.342c0.11,0.112,0.202,0.23,0.313,0.341    c9.715,9.655,21.464,14.512,35.125,14.512c13.662,0,25.289-4.858,34.943-14.512C213.412,480.961,213.504,480.842,213.615,480.731z    " fill="#FA6200"/>
      <path d="M316.864,480.731c-0.111-0.112-0.203-0.231-0.314-0.343c-9.654-9.715-21.281-14.511-34.943-14.511    c-13.662,0-25.41,4.797-35.125,14.511c-0.112,0.112-0.203,0.23-0.313,0.342c0.11,0.112,0.202,0.23,0.313,0.341    c9.715,9.655,21.464,14.512,35.125,14.512s25.289-4.858,34.943-14.512C316.662,480.961,316.754,480.842,316.864,480.731z" fill="#FA6200"/>
      <path d="M420.116,480.731c-0.111-0.112-0.203-0.231-0.314-0.343c-9.654-9.715-21.281-14.511-34.943-14.511    c-13.662,0-25.411,4.797-35.125,14.511c-0.112,0.112-0.203,0.23-0.313,0.342c0.11,0.112,0.202,0.23,0.313,0.341    c9.715,9.655,21.464,14.512,35.125,14.512c13.662,0,25.289-4.858,34.943-14.512C419.913,480.961,420.005,480.842,420.116,480.731z    " fill="#FA6200"/>
    </g>
  </g>
</svg>