<?xml version="1.0"?><svg version="1.2" baseProfile="tiny-ps" viewBox="0 0 31 31" xmlns="http://www.w3.org/2000/svg" xmlns:xlink="http://www.w3.org/1999/xlink"><title>LuxuryEscapes</title><g><g transform="matrix(.1 0 0 -.1 0 31)"><path d="M82 290c-18-11-41-34-53-52L9 205l4-58 3-57 30-31C83 20 121 0 160 0c37 0 90 21 108 43l13 15-38-19c-20-10-44-19-53-18h-15l25 10c14 6 37 22 52 36l28 26 11 34 11 34-6 34c-8 40-38 80-76 100l-29 15h-76l-33-20zm53-99c-12-49-26-94-30-101l-8-12 47 3 46 4-3-10-4-10h-46c-26 0-47 2-47 5 1 3 7 34 15 70s14 71 15 78v13l-10-6c-5-3-10-15-10-26v-19H90c-20 0-9 29 23 64 17 19 35 36 38 36 4 0-3-40-16-89zm95 14c0-13-39-49-63-58l-12-5 13-13 13-14 15 19 14 20v-32l-16-6-17-6-13 11-14 11v25c0 26 17 64 33 75l11 7 18-10c10-5 18-16 18-24zm-50-4c-5-11-10-25-10-32v-12l20 18c21 19 27 45 10 45-5 0-14-9-20-19z"/></g></g></svg>