<svg xmlns="http://www.w3.org/2000/svg" xmlns:xlink="http://www.w3.org/1999/xlink" version="1.2" viewBox="0 0 792 612" baseProfile="tiny-ps">
  <title>DSI_logo_cmyk_tiny_ps_tiny_ps_tiny_ps_tiny_ps</title>
  <g>
    <path d="M95.38,364.999V156.787h175.901c72.293,0,87.46,32.872,87.46,60.438v87.88   c0,27.318-15.168,59.894-87.46,59.894L95.38,364.999L95.38,364.999z M271.281,320.553c35.096,0,35.096-11.621,35.096-15.448v-87.88   c0-3.951,0-15.992-35.096-15.992H147.76v119.321H271.281z" fill="#B6B6B6"/>
    <path d="M376.336,364.999v-44.461H548.41c21.002,0,24.144-4.309,24.175-4.356v-34.287   c0-1.073-4.107-5.072-24.175-5.072H446.326c-63.27,0-76.54-26.929-76.54-49.517v-21.017c0-22.589,13.286-49.517,76.54-49.517   h166.629v44.461H446.326c-20.068,0-24.175,3.998-24.175,5.072v21.017c0,1.073,4.107,5.072,24.175,5.072H548.41   c63.27,0,76.54,26.929,76.54,49.517v34.116c0,22.34-13.285,48.973-76.54,48.973L376.336,364.999L376.336,364.999z" fill="#B6B6B6"/>
    <rect x="639.371" y="201.606" width="52.364" height="163.393" fill="#B6B6B6"/>
  </g>
  <g>
    <g>
      <path d="M103.407,164.814h167.858c52.955,0,79.433,17.47,79.433,52.411v87.88    c0,34.583-26.478,51.866-79.433,51.866H103.407V164.814z M271.281,328.581c28.749,0,43.124-7.825,43.124-23.475v-87.88    c0-16.008-14.374-24.02-43.124-24.02H139.717v135.391h131.564V328.581z" fill="#465A6A"/>
    </g>
    <g>
      <path d="M548.41,240.42c45.69,0,68.512,13.83,68.512,41.49v34.116c0,27.302-22.822,40.946-68.512,40.946    H384.379v-28.391H548.41c21.468,0,32.218-4.185,32.218-12.554V281.91c0-8.743-10.734-13.099-32.218-13.099H446.326    c-45.675,0-68.512-13.83-68.512-41.49v-21.017c0-27.66,22.837-41.49,68.512-41.49h158.586v28.391H446.326    c-21.468,0-32.203,4.371-32.203,13.099v21.017c0,8.727,10.734,13.099,32.203,13.099L548.41,240.42L548.41,240.42z" fill="#465A6A"/>
    </g>
    <g>
      <path d="M647.414,209.649h36.31v147.323h-36.31V209.649z" fill="#465A6A"/>
    </g>
    <g>
      <path d="M144.337,424.364c12.103,0,18.139,3.656,18.139,10.983v9.039c0,7.234-6.052,10.843-18.139,10.843    h-43.45v-7.514h43.45c5.678,0,8.525-1.105,8.525-3.329v-9.039c0-2.318-2.847-3.469-8.525-3.469H117.3    c-12.103,0-18.139-3.656-18.139-10.983v-5.569c0-7.327,6.052-10.983,18.139-10.983h42.003v7.514H117.3    c-5.694,0-8.525,1.151-8.525,3.469v5.569c0,2.318,2.847,3.469,8.525,3.469H144.337z" fill="#465A6A"/>
      <path d="M173.833,415.31c0-7.327,6.052-10.983,18.139-10.983h29.216c12.103,0,18.155,3.671,18.155,10.983    v29.06c0,7.234-6.052,10.843-18.155,10.843h-29.2c-12.103,0-18.139-3.671-18.139-10.999V415.31H173.833z M221.188,447.699    c5.694,0,8.525-1.105,8.525-3.329v-29.06c0-2.318-2.847-3.469-8.525-3.469h-29.2c-5.694,0-8.525,1.151-8.525,3.469v28.92    c0,2.318,2.847,3.469,8.525,3.469H221.188z" fill="#465A6A"/>
      <path d="M249.673,404.327h9.614v43.372h41.288v7.514h-50.902V404.327z" fill="#465A6A"/>
      <path d="M356.175,447.699c5.694,0,8.525-1.836,8.525-5.492v-37.881h9.614v37.881    c0,8.681-6.052,13.021-18.155,13.021h-27.038c-12.103,0-18.155-4.387-18.155-13.161v-37.741h9.614v37.741    c0,3.765,2.847,5.647,8.525,5.647h27.069V447.699z" fill="#465A6A"/>
      <path d="M383.508,404.327h62.243v7.514h-25.949v43.372h-9.614v-43.372h-26.68L383.508,404.327    L383.508,404.327z" fill="#465A6A"/>
      <path d="M455.085,404.327h9.614v50.902h-9.614V404.327z" fill="#465A6A"/>
      <path d="M477.067,415.31c0-7.327,6.052-10.983,18.139-10.983h29.216c12.103,0,18.139,3.671,18.139,10.983    v29.06c0,7.234-6.052,10.843-18.139,10.843h-29.216c-12.103,0-18.139-3.671-18.139-10.999V415.31z M524.422,447.699    c5.694,0,8.525-1.105,8.525-3.329v-29.06c0-2.318-2.847-3.469-8.525-3.469h-29.216c-5.694,0-8.541,1.151-8.541,3.469v28.92    c0,2.318,2.847,3.469,8.541,3.469H524.422z" fill="#465A6A"/>
      <path d="M563.391,416.477v38.752h-9.116v-50.902h7.592l50.684,39.048v-39.048h9.101v50.902h-7.592    L563.391,416.477z" fill="#465A6A"/>
      <path d="M678.481,424.364c12.103,0,18.139,3.656,18.139,10.983v9.039c0,7.234-6.052,10.843-18.139,10.843    h-43.45v-7.514h43.45c5.694,0,8.525-1.105,8.525-3.329v-9.039c0-2.318-2.847-3.469-8.525-3.469h-27.038    c-12.103,0-18.139-3.656-18.139-10.983v-5.569c0-7.327,6.052-10.983,18.139-10.983h42.003v7.514h-42.003    c-5.694,0-8.525,1.151-8.525,3.469v5.569c0,2.318,2.847,3.469,8.525,3.469H678.481z" fill="#465A6A"/>
    </g>
  </g>
  <rect x="639.278" y="157.067" width="52.349" height="33.556" fill="#38A4DD"/>
</svg>