<?xml version="1.0" encoding="utf-8"?>
<!-- Generator: Adobe Illustrator 27.0.1, SVG Export Plug-In . SVG Version: 6.00 Build 0)  -->
<svg version="1.2" baseProfile="tiny-ps" id="Layer_1" xmlns="http://www.w3.org/2000/svg" xmlns:xlink="http://www.w3.org/1999/xlink"
	 viewBox="0 0 1365.7 1365.7" xml:space="preserve">
<title>PITSCO EDUCATION</title>
<rect x="-16.5" y="-14.8" fill="#00539F" width="1393.1" height="1386.4"/>
<g>
	<g>
		<path fill="#FFFFFF" d="M129.3,605.5h87c21.6,0,27.7-6.8,27.7-25.2s-6.3-25.2-27.7-25.2h-87V605.5z M129.3,715.5
			c0,6.3,1.1,8.6,8,8.6v3.9H81v-3.9c6.8,0,7.9-2.3,7.9-8.6V534.2c0-6.3-1.1-8.6-7.9-8.6v-3.9h135.7c44.7,0,67.4,22.7,67.4,58.7
			S266.1,639,216.8,639h-87.5V715.5z"/>
		<path fill="#FFFFFF" d="M1092.5,626.6c0,46.4,34.2,71.2,76.4,71.2s76.4-24.8,76.4-71.2c0-46.4-34.2-71.2-76.4-71.2
			C1126.6,555.5,1092.5,580.2,1092.5,626.6 M1284.7,626.6c0,67.2-51.6,103.9-115.9,103.9c-64.1,0-115.8-36.7-115.8-103.9
			s51.6-103.9,115.8-103.9C1233,522.6,1284.7,559.4,1284.7,626.6"/>
		<path fill="#FFFFFF" d="M351.8,715.5c0,6.1,1.4,8.3,10.3,8.3v3.8h-59.8v-3.8c8.9,0,10-2.2,10-8.3V537.7c0-6.1-1.1-8.3-10-8.3v-3.8
			h59.8v3.8c-8.9,0-10.3,2.2-10.3,8.3V715.5z"/>
		<path fill="#FFFFFF" d="M503.2,715.5c0,6.1,1.4,8.3,8.7,8.3v3.8h-56.4v-3.8c7.2,0,8.3-2.2,8.3-8.3V558.3h-67
			c-6.7,0-9.4,2.2-9.4,6.9h-3.9v-46.4h3.9c0,4.5,2.7,6.7,9.4,6.7h173.2c6.7,0,9.4-2.2,9.4-6.7h3.9v46.4h-3.9c0-4.7-2.7-6.9-9.4-6.9
			h-66.9V715.5z"/>
		<path fill="#FFFFFF" d="M771.6,584.9l-4.4-2.5c0.2-1.1,0.5-2.5,0.5-3.9c0-3.6-26.1-23-71.4-23c-43.3,0-62,13.3-62,30.6
			c0,45.5,163.7-21.2,163.7,79.5c0,36.6-35.5,65-106.7,65c-67.8,0-87.3-21.7-93.6-21.7c-1.6,0-2.5,1.4-3.8,2.2l-3.6-0.9l23-47.3
			l4.5,2.2c0,1.1-0.5,2.2-0.5,4.5c0,16.4,35.9,28.1,71.4,28.1c50.5,0,67.8-14.5,67.8-29.7c0-54.5-161.4,13-161.4-79.2
			c0-46.7,49.1-66.1,103.1-66.1c48.4,0,82.2,21.2,85.5,21.2c3.6,0,4.2-1.1,5-2l4.4,1.4L771.6,584.9z"/>
		<path fill="#FFFFFF" d="M1013.7,586.6l-4.2-2.2c0.3-1.6,0.3-3.1,0.3-4.5c0-6.7-33.6-24.5-68.3-24.5c-44.2,0-83.9,20-83.9,71.2
			c0,51.1,39.7,71.2,87.3,71.2c38.6,0,71.7-21.7,71.7-34.2c0-1.4-0.5-3.9-1.1-5l2.7-2l28.6,40.8l-2.2,1.1c-0.8-0.5-2.5-0.8-3.3-0.8
			c-8.3,0-29.7,32.8-99.8,32.8c-62,0-123.4-30.8-123.4-103.9c0-65,57.2-103.9,125.3-103.9c48.9,0,81.7,21.7,87.5,21.7
			c2.9,0,4.5-0.3,6.5-3.3l3.8,1.3L1013.7,586.6z"/>
	</g>
	<rect x="78.9" y="754" fill="#FFFFFF" width="1207.8" height="10.5"/>
	<g>
		<path fill="#FFFFFF" d="M96.2,822.7v12.3h31.9c0.9,0,1.6-0.2,2.1-0.7c0.5-0.4,0.9-1.1,1.2-2.2h1.2v14.8h-1.2
			c-0.2-1.1-0.7-1.8-1.2-2.2c-0.4-0.4-1.2-0.7-2.2-0.7H81.1v-1.2c1.1-0.2,1.8-0.7,2.2-1.2c0.4-0.4,0.7-1.2,0.7-2.2v-41.1
			c0-0.9-0.2-1.6-0.7-2.1c-0.4-0.4-1.2-0.9-2.2-1.2v-1.2h45.4c1,0,1.6-0.2,2.2-0.7c0.4-0.4,0.9-1.2,1.2-2.3h1.2v14.8h-1.2
			c-0.3-1.1-0.8-1.9-1.2-2.3c-0.4-0.4-1.2-0.7-2.2-0.7H96v11.1h18.9c0.9,0,1.6-0.2,2.1-0.7c0.5-0.4,0.9-1.2,1.2-2.3h1.2v14.5h-1.2
			c-0.3-1.1-0.7-1.9-1.2-2.3c-0.4-0.4-1.2-0.7-2.2-0.7H96.2V822.7z"/>
		<path fill="#FFFFFF" d="M226.8,839.4v-41.1c0-0.9-0.2-1.6-0.7-2.1s-1.1-0.9-2.2-1.2v-1.2h29.5c6.1,0,11,0.8,14.5,2.3
			c4.9,2.2,8.6,5.7,10.7,10.6c1.5,3.4,2.3,7.5,2.3,12.2c0,8.6-2.5,15.1-7.7,19.5c-2.3,2-5,3.4-8.1,4.3c-3.2,0.9-7,1.3-11.7,1.3
			h-29.5v-1.2c1.1-0.2,1.8-0.7,2.2-1.2C226.5,841.1,226.8,840.4,226.8,839.4z M238.7,834.9h12.8c5.9,0,10.2-1.3,12.8-4.1
			c2.7-2.9,4.2-6.8,4.2-12c0-5.2-1.4-9.2-4.2-12c-1.3-1.4-3.1-2.4-5.2-3.1c-2-0.7-4.6-1-7.7-1h-12.8V834.9z"/>
		<path fill="#FFFFFF" d="M425.7,798.3V825c0,6-1.2,10.5-3.6,13.4c-3.8,4.5-11.2,6.8-21.8,6.8c-7.1,0-12.9-1.1-17.3-3.3
			c-3.2-1.6-5.4-3.8-6.5-6.8c-1.1-2.7-1.6-6-1.6-10.1v-26.6c0-0.9-0.2-1.6-0.7-2.1s-1.2-0.9-2.2-1.2v-1.2h17.8v1.2
			c-1.1,0.3-1.9,0.7-2.3,1.2c-0.4,0.5-0.7,1.2-0.7,2.1v24.2c0,2.7,0.2,4.9,0.8,6.5s1.3,2.7,2.6,3.7c2.4,2,6,3,10.6,3s8.2-1,10.6-3
			c1.2-1,2.1-2.2,2.5-3.7s0.7-3.6,0.7-6.5v-24.2c0-0.9-0.2-1.6-0.7-2.1s-1.2-0.9-2.2-1.2v-1.2h16.9v1.2c-1.1,0.3-1.9,0.7-2.2,1.2
			C425.9,796.8,425.7,797.4,425.7,798.3z"/>
		<path fill="#FFFFFF" d="M570.1,825.9l7.6,11.1l-1,0.8c-0.7-0.5-1.3-0.8-1.6-0.8c-0.5,0-1.8,0.5-3.5,1.6c-4.1,2.4-7.7,4.1-10.9,4.9
			s-6.8,1.4-10.9,1.4c-8.2,0-14.9-2-20.1-5.9c-3-2.2-5.3-5-7-8.4c-1.9-3.6-2.9-7.6-2.9-11.8c0-5.9,1.8-11.1,5.2-15.6
			c5.4-7,13.6-10.5,24.7-10.5c4.1,0,7.7,0.4,10.9,1.3c3.2,1,6.8,2.6,10.9,5c1.9,1.1,3.1,1.6,3.5,1.6c0.4,0,1-0.2,1.6-0.8l1,0.8
			l-7.6,11l-1-0.8c0-0.3,0-0.5,0.1-0.7c0-0.3,0-0.4,0-0.5c0-1.4-2-3.1-6-4.9c-3.8-1.8-7.7-2.6-11.6-2.6c-5.5,0-9.9,1.4-13.5,4.3
			c-4.1,3.2-6,7.3-6,12.4s2,9.2,6,12.5c3.5,2.9,8,4.3,13.5,4.3c4.3,0,8.4-1.1,12.7-3.2c3.3-1.6,4.9-3.2,4.9-4.4c0-0.1,0-0.5-0.1-1.3
			L570.1,825.9z"/>
		<path fill="#FFFFFF" d="M711.1,831.4h-23.1l-2.6,5.5c-0.7,1.3-0.9,2.4-0.9,3.1c0,1.4,1,2.3,2.9,2.7v1.2h-18.4v-1.2
			c1.1-0.2,2-0.5,2.5-1.1c0.5-0.4,1.2-1.5,2-3l18.3-37.2c0.7-1.4,1-2.6,1-3.6c0-1.2-0.9-2.2-2.5-2.9v-1.2h19.5v1.2
			c-1.6,0.7-2.4,1.6-2.4,3.1c0,1,0.3,2.2,1.1,3.6l19.1,36.1c1,2,1.9,3.2,2.4,3.8c0.7,0.5,1.5,1,2.7,1.2v1.2h-20.5v-1.2
			c2-0.3,3-1.2,3-2.7c0-1-0.3-2.1-1.1-3.4L711.1,831.4z M707.5,824.4l-8.2-16.1l-7.9,16.1H707.5z"/>
		<path fill="#FFFFFF" d="M855.2,802.9v36.5c0,1,0.2,1.6,0.7,2.2c0.4,0.4,1.2,0.9,2.3,1.2v1.2h-17.8v-1.2c1-0.2,1.8-0.7,2.2-1.2
			c0.4-0.4,0.7-1.2,0.7-2.2v-36.5h-14.8c-1,0-1.6,0.2-2.2,0.7c-0.4,0.4-0.9,1.2-1.2,2.2h-1.2V791h1.2c0.2,1.1,0.7,1.8,1.1,2.2
			c0.4,0.4,1.2,0.7,2.2,0.7H870c1,0,1.6-0.2,2.2-0.7s0.9-1.2,1.2-2.3h1.2v14.8h-1.2c-0.3-1.1-0.7-1.9-1.2-2.2
			c-0.5-0.4-1.2-0.7-2.2-0.7h-14.8V802.9z"/>
		<path fill="#FFFFFF" d="M980.7,798.3v41c0,1,0.2,1.6,0.7,2.2c0.4,0.4,1.2,0.9,2.3,1.2v1.2h-17.8v-1.2c1.1-0.2,1.8-0.7,2.2-1.2
			c0.4-0.4,0.7-1.2,0.7-2.2v-41.1c0-0.9-0.2-1.6-0.7-2.1s-1.2-0.9-2.2-1.2v-1.2h17.8v1.2c-1.1,0.3-1.9,0.7-2.3,1.2
			C980.9,796.8,980.7,797.4,980.7,798.3z"/>
		<path fill="#FFFFFF" d="M1104.2,792.7c8,0,14.6,2,20,6.1c6.4,4.9,9.5,11.7,9.5,20.5c0,8.2-3.2,14.8-9.5,19.6
			c-5.3,4.1-11.8,6.1-19.8,6.1s-14.6-2.1-19.8-6.1c-6.4-4.9-9.6-11.6-9.6-20.1c0-8.6,3.2-15.2,9.6-20.1
			C1089.7,794.8,1096.3,792.8,1104.2,792.7z M1104.2,802.2c-5.2,0-9.4,1.6-12.6,5c-3,3.1-4.5,7-4.5,11.7s1.5,8.6,4.5,11.6
			c3.3,3.4,7.5,5,12.7,5c5.2,0,9.4-1.6,12.7-5c3-3.1,4.5-6.9,4.5-11.4c0-4.9-1.5-8.9-4.5-12C1113.6,803.9,1109.4,802.3,1104.2,802.2
			z"/>
		<path fill="#FFFFFF" d="M1238.7,810.9v28.5c0,1,0.2,1.6,0.7,2.2c0.4,0.4,1.1,0.9,2.2,1.2v1.2h-16.7v-1.2c1.1-0.2,1.8-0.7,2.2-1.2
			c0.4-0.4,0.7-1.2,0.7-2.2v-41.1c0-0.9-0.2-1.6-0.7-2.1c-0.4-0.4-1.1-0.9-2.2-1.2v-1.2h19.3v1.2c-1.3,0.3-2,0.9-2,1.8
			c0,0.8,0.4,1.5,1.4,2.5l27,26.8v-27.6c0-0.9-0.2-1.6-0.7-2.1s-1.2-0.9-2.3-1.2v-1.2h16.7v1.2c-1.1,0.3-1.9,0.7-2.3,1.2
			c-0.4,0.5-0.7,1.2-0.7,2.1v41c0,1,0.2,1.6,0.7,2.2c0.4,0.4,1.2,0.9,2.3,1.2v1.2h-18v-1.2c1.3-0.2,2-0.8,2-1.6
			c0-0.4-0.2-0.9-0.5-1.3s-1.2-1.3-2.5-2.6L1238.7,810.9z"/>
	</g>
</g>
</svg>
