<?xml version="1.0" encoding="UTF-8"?>
<svg xmlns="http://www.w3.org/2000/svg" baseProfile="tiny-ps" version="1.2" viewBox="0 0 258 258">
<title>Mercari</title>
  <g>
    <path d="M129.7,208.9l62.9-31.5c4.4-2.2,7.2-6.8,7.2-11.7v-73.4c0-4.9-2.8-9.5-7.2-11.7l-62.9-31.5c-3.7-1.9-8.1-1.9-11.8,0l-62.9,31.5c-4.4,2.2-7.2,6.8-7.2,11.7v73.4c0,4.9,2.8,9.5,7.2,11.7l62.9,31.5c3.7,1.9,8.1,1.9,11.8,0Z" fill="#ff0211"/>
    <circle cx="176.2" cy="93.2" r="34.1" fill="#4dc9ff"/>
  </g>
  <path d="M70.6,156.5l-6.7-3.3v-19.7c0-5.8,3.2-11.5,10-10.8,6.3.7,11.1,6.2,12.6,9.9,2.3-2.1,4.5-2.5,7.6-2.1,3.4.5,16.3,5.4,16.3,22.9v23.2l-7.3-3.7v-21.8c0-6.4-3.9-11.7-9.2-12.3-2.2-.2-4,1.5-4.1,5.2,0,3.8,0,22.1,0,22.1l-6.7-3.4v-20.6c0-9.1-5.9-12-8.4-12.2-1.4-.2-4.1.7-4.1,5.4v21.2h0Z" fill="#fff"/>
</svg>