<?xml version="1.0" encoding="iso-8859-1"?>
<!-- Generator: Adobe Illustrator 27.9.0, SVG Export Plug-In . SVG Version: 6.00 Build 0)  -->
<svg version="1.2" baseProfile="tiny-ps" id="Layer_1" xmlns="http://www.w3.org/2000/svg" xmlns:xlink="http://www.w3.org/1999/xlink" viewBox="0 0 80 80" xml:space="preserve">
<title>Freewrite</title>
<g>
	<path d="M27.067,37.753c-0.476-0.363-1.096-0.548-1.843-0.548c-1.229,0-2.343,0.472-3.312,1.402
		c-0.968,0.929-1.458,2.216-1.458,3.825c0,1.115,0.257,1.995,0.764,2.615c0.506,0.621,1.179,0.922,2.058,0.922
		c0.886,0,1.713-0.208,2.457-0.619c0.27-0.154,0.566-0.352,0.878-0.586c0.248-0.186,0.43-0.343,0.541-0.467l-0.323-0.43
		l-0.184,0.147c-0.207,0.166-0.499,0.333-0.867,0.496c-0.375,0.167-0.735,0.251-1.072,0.251c-1.011,0-1.574-0.673-1.673-2.001
		l-0.01-0.135l0.612-0.076c0.761-0.116,1.617-0.406,2.54-0.862c0.44-0.227,0.822-0.554,1.132-0.972
		c0.305-0.411,0.459-0.927,0.459-1.536C27.767,38.58,27.538,38.112,27.067,37.753z M24.874,41.016
		c-0.418,0.473-0.987,0.777-1.693,0.901l-0.167,0.03v-0.169c0-0.753,0.139-1.574,0.414-2.44c0.291-0.917,0.728-1.382,1.299-1.382
		c0.355,0,0.779,0.211,0.779,1.216C25.506,39.92,25.293,40.54,24.874,41.016z"/>
	<path d="M35.003,37.753c-0.476-0.363-1.096-0.548-1.843-0.548c-1.229,0-2.343,0.472-3.312,1.402
		c-0.968,0.929-1.458,2.216-1.458,3.825c0,1.115,0.257,1.995,0.764,2.615c0.506,0.621,1.179,0.922,2.058,0.922
		c0.886,0,1.713-0.208,2.457-0.619c0.27-0.154,0.566-0.352,0.878-0.586c0.248-0.186,0.43-0.343,0.541-0.467l-0.323-0.43
		l-0.184,0.147c-0.207,0.166-0.499,0.333-0.867,0.496c-0.375,0.167-0.735,0.251-1.072,0.251c-1.011,0-1.574-0.673-1.673-2.001
		l-0.01-0.135l0.611-0.076c0.761-0.116,1.617-0.406,2.54-0.862c0.44-0.227,0.822-0.554,1.132-0.972
		c0.305-0.411,0.459-0.928,0.459-1.536C35.703,38.58,35.474,38.112,35.003,37.753z M32.809,41.016
		c-0.418,0.473-0.987,0.777-1.693,0.901l-0.167,0.03v-0.169c0-0.753,0.139-1.574,0.414-2.44c0.291-0.917,0.728-1.382,1.299-1.382
		c0.355,0,0.779,0.211,0.779,1.216C33.442,39.92,33.229,40.54,32.809,41.016z"/>
	<path d="M46.74,37.206l-0.237,0.22c-0.185,0.173-0.389,0.487-0.605,0.933c-0.209,0.431-0.343,0.915-0.398,1.441l1.351,1.51
		l-0.005,0.061c-0.042,0.538-0.364,1.178-0.985,1.957c-0.631,0.792-1.207,1.177-1.762,1.177c-0.46,0-0.46-0.698-0.46-0.928
		c0-0.531,0.115-1.39,0.341-2.553c0.223-1.146,0.336-2.053,0.336-2.698c0-0.711-0.103-0.944-0.17-1.021
		c-0.745,0.008-1.595,0.185-2.528,0.526c0.066,0.355,0.099,0.772,0.099,1.241c0,0.521-0.081,1.364-0.24,2.506
		c-0.161,1.153-0.245,1.813-0.258,2.018l-0.003,0.052l-0.036,0.037c-0.516,0.544-1.006,0.82-1.455,0.82
		c-0.345,0-0.52-0.312-0.52-0.928c0-0.529,0.091-1.34,0.27-2.41c0.177-1.054,0.266-1.876,0.266-2.443
		c0-0.538-0.105-0.932-0.313-1.169c-0.206-0.235-0.444-0.349-0.728-0.349c-0.318,0-0.664,0.02-1.029,0.059
		c-0.15,0.025-0.302,0.052-0.447,0.078c-0.143,0.026-0.27,0.052-0.381,0.078l-0.299,0.07c-0.057,0.013-0.115,0.028-0.175,0.044
		l-0.013,0.078c0.469,0.485,0.706,0.969,0.706,1.44l-0.219,5.197c0,0.477,0.131,0.893,0.389,1.23
		c0.252,0.331,0.638,0.491,1.18,0.491c0.832,0,1.708-0.454,2.605-1.351l0.176-0.176l0.062,0.241c0.098,0.38,0.293,0.693,0.58,0.931
		c0.288,0.239,0.632,0.355,1.053,0.355c0.86,0,1.725-0.399,2.568-1.185c0.857-0.799,1.549-1.784,2.055-2.927
		c0.507-1.143,0.763-2.241,0.763-3.264c0-0.376-0.13-0.695-0.398-0.976C47.621,37.354,47.239,37.215,46.74,37.206z"/>
	<path d="M55.276,37.205c-0.454,0-0.904,0.189-1.34,0.563c-0.451,0.387-0.749,0.696-0.886,0.921l-0.263,0.431v-0.506
		c0-0.551-0.064-0.991-0.19-1.31c-1.441,0.004-2.521,0.094-3.213,0.268l-0.008,0.104l0.147,0.196
		c0.388,0.514,0.585,0.998,0.585,1.438c0,0.251-0.177,1.191-0.54,2.874c-0.354,1.641-0.534,2.658-0.534,3.023
		c0,0.302,0.009,0.48,0.019,0.584h0.018c1.262,0,2.14-0.078,2.614-0.233c-0.008-0.124-0.011-0.296-0.011-0.52
		c0-0.816,0.309-2.62,0.918-5.361l0.008-0.037l0.025-0.028c0.266-0.295,0.58-0.508,0.932-0.635l0.048-0.008
		c0.17,0,0.344,0.176,0.6,0.607c0.158,0.266,0.238,0.394,0.277,0.455c0.258-0.055,0.548-0.184,0.844-0.382
		c0.326-0.218,0.545-0.387,0.649-0.504c0.093-0.104,0.171-0.193,0.232-0.265C56.194,37.205,55.504,37.205,55.276,37.205z"/>
	<path d="M60.548,44.211c-0.763,0.363-0.905,0.393-0.978,0.393c-0.321,0-0.321-0.539-0.321-0.769c0-0.434,0.177-1.318,0.542-2.702
		c0.353-1.341,0.532-2.296,0.532-2.838c0-0.569-0.095-0.851-0.187-0.992c-1.452,0.003-2.533,0.093-3.216,0.267l-0.008,0.105
		l0.147,0.196c0.363,0.516,0.545,1.073,0.545,1.657c0,0.386-0.164,1.189-0.502,2.453c-0.327,1.222-0.493,2.079-0.493,2.549
		c0,0.451,0.118,0.797,0.36,1.057c0.24,0.257,0.563,0.383,0.99,0.383c0.439,0,0.926-0.132,1.448-0.393
		c0.532-0.266,0.898-0.478,1.089-0.63c0.155-0.124,0.285-0.231,0.391-0.322l-0.228-0.469L60.548,44.211z"/>
	<path d="M59.609,32.432c-0.445,0-0.827,0.151-1.167,0.46c-0.337,0.306-0.5,0.649-0.5,1.048c0,0.402,0.116,0.71,0.355,0.942
		c0.24,0.234,0.565,0.348,0.995,0.348c0.433,0,0.815-0.151,1.169-0.462c0.349-0.306,0.519-0.645,0.519-1.037
		c0-0.395-0.117-0.704-0.356-0.944C60.386,32.552,60.045,32.432,59.609,32.432z"/>
	<path fill-rule="evenodd" d="M66.289,35.363c3.538,0,4.181-0.13,7.659-0.13c-0.107,0.82-0.334,1.011-1.157,0.985
		c-2.927-0.095-3.024-0.063-5.951-0.158c-0.225-0.007-0.451-0.001-0.766-0.001c-0.27,1.529-0.55,3.038-0.798,4.552
		c-0.158,0.963-0.288,1.931-0.394,2.901c-0.124,1.137,0.148,1.337,1.194,0.93c0.145-0.056,0.292-0.111,0.567-0.215
		c-0.034,0.23-0.011,0.466-0.084,0.501c-0.846,0.408-1.674,0.948-2.573,1.13c-1.171,0.237-1.82-0.48-1.65-1.677
		c0.219-1.548,0.544-3.08,0.81-4.622c0.196-1.138,0.369-2.279,0.566-3.498c-0.834,0-1.594,0-2.421,0
		c0.197-0.548,0.509-0.714,1-0.715c1.624-0.004,1.624-0.017,1.72-1.605c0.078-1.3,0.077-1.304,1.419-1.529
		c0.351-0.059,0.708-0.086,1.242-0.15C66.537,33.219,66.416,34.262,66.289,35.363z"/>
	<path d="M74.541,40.718C74.845,40.307,75,39.79,75,39.181c0-0.602-0.229-1.069-0.7-1.428c-0.476-0.363-1.096-0.548-1.843-0.548
		c-1.229,0-2.343,0.472-3.312,1.402c-0.968,0.929-1.458,2.216-1.458,3.825c0,1.115,0.257,1.995,0.764,2.615
		c0.506,0.621,1.179,0.922,2.058,0.922c0.886,0,1.713-0.208,2.457-0.619c0.27-0.154,0.566-0.352,0.878-0.586
		c0.248-0.186,0.43-0.343,0.541-0.467l-0.323-0.43l-0.184,0.147c-0.207,0.166-0.499,0.333-0.867,0.496
		c-0.375,0.167-0.735,0.251-1.072,0.251c-1.011,0-1.574-0.673-1.673-2.001l-0.01-0.135l0.612-0.076
		c0.761-0.116,1.617-0.406,2.54-0.862C73.849,41.463,74.23,41.135,74.541,40.718z M72.106,41.016
		c-0.418,0.473-0.987,0.777-1.693,0.901l-0.167,0.03v-0.169c0-0.753,0.139-1.574,0.414-2.44c0.291-0.917,0.728-1.382,1.299-1.382
		c0.355,0,0.779,0.211,0.779,1.216C72.739,39.92,72.526,40.54,72.106,41.016z"/>
	<path d="M19.755,37.205c-0.454,0-0.904,0.189-1.34,0.563c-0.451,0.387-0.749,0.696-0.886,0.921l-0.263,0.431v-0.506
		c0-0.527-0.15-0.956-0.308-1.31c-0.426,0.001-0.862,0.01-1.212,0.026c-0.914,0.013-1.288,0.113-1.722,0.229
		c-0.031,0.008-0.063,0.017-0.096,0.026c0.066,0.088,0.132,0.178,0.187,0.263c0.535,0.839,0.532,1.3,0.53,1.497
		c0,0.188-0.087,0.565-0.244,1.249c-0.096,0.419-0.217,0.947-0.356,1.591c-0.354,1.641-0.533,2.658-0.533,3.023
		c0,0.302,0.009,0.48,0.019,0.584h0.018c1.262,0,2.14-0.078,2.614-0.233c-0.008-0.124-0.011-0.296-0.011-0.52
		c0-0.816,0.309-2.62,0.918-5.361l0.008-0.037l0.025-0.028c0.266-0.295,0.58-0.508,0.932-0.635l0.048-0.008
		c0.17,0,0.344,0.176,0.6,0.607c0.158,0.266,0.238,0.394,0.277,0.455c0.258-0.055,0.548-0.184,0.844-0.382
		c0.326-0.218,0.545-0.387,0.649-0.504c0.093-0.104,0.171-0.193,0.232-0.265C20.673,37.205,19.983,37.205,19.755,37.205z"/>
	<path d="M12.353,37.661C11.657,37.666,9.8,37.799,9.781,37.8l-0.189,0.014l0.04-0.185c0.158-0.734,0.264-1.224,0.337-1.558
		c0.153-0.705,0.153-0.705,0.165-0.848c0.003-0.041,0.008-0.092,0.016-0.17l0.009-0.082l0.128-0.048
		c0.109-0.011,0.221-0.021,0.339-0.031c0.761-0.064,1.721-0.097,2.853-0.097h16.445l-2.818-2.888
		c-0.38,0.268-1.287,0.64-2.121,0.861c-1.414,0.376-3.785,0.417-4.565,0.43c-0.392,0.009-1.955-0.001-3.904-0.014
		c-1.998-0.013-4.485-0.03-6.47-0.03c-1.984,0-3.17,0.017-3.534,0.049l-0.027,0.138l0.163,0.228c0.55,0.84,0.632,1.793,0.643,1.975
		c0.143,2.419,0.01,3.015-0.43,4.99c-0.068,0.306-0.144,0.646-0.228,1.031c-0.535,2.475-1.448,5.8-1.632,6.483
		c0.209,0.03,0.417,0.044,0.621,0.044c1.166,0,2.149-0.499,2.571-1.305c0.051-0.332,0.78-4.582,1.246-6.864l0.014-0.068l0.129-0.064
		c0.369-0.186,1.347-0.681,2.652-0.681c0.3,0,0.599,0.027,0.893,0.08c0.032-0.164,0.051-0.492-0.182-0.862
		C12.663,37.882,12.427,37.708,12.353,37.661z"/>
</g>
</svg>
