<?xml version="1.0" encoding="utf-8"?>
<svg version="1.2" baseProfile="tiny-ps" id="Layer_1" xmlns="http://www.w3.org/2000/svg" xmlns:xlink="http://www.w3.org/1999/xlink" viewBox="0 0 750 750" xml:space="preserve">
<title>Zurich logo</title>
<g id="a">
	<rect fill="#2167AE" width="750" height="750"/>
</g>
<g id="b">
	<g id="c">
		<path fill="#EBEDEF" d="M374.5,145.1c-56.8,0-102.7,46-102.7,102.7c0,23.4,7.8,45,21,62.4l85.4-112.2h-18.3
			c-9.7,0-18.9,0.7-25.4,2c-4,0.8-7.5,2.2-10.4,4.3c-3.4,2.4-7.7,7.5-10.4,12.5c-0.3,0.6-0.8,1.5-1.4,2.6l-5-1.1l8.3-32.3h107
			l-85.1,113.7c5.5-0.5,7.8-0.7,12.3-0.7c3.4,0,8.6,0.2,15.7,0.7l15.1,0.9c5.4,0.4,10,0.5,13.5,0.5c7.8,0,12.9-0.6,17.9-2.2
			c3.9-1.2,7.6-3,11-5.3c6-4.1,11.7-10.7,15.2-17.4c0.4-0.7,0.9-1.7,1.5-3l4.5,1.2c-1.5,5.6-2.2,7.8-4.5,12.8
			c-4.6,10.2-9.7,17-16.8,22.3c-7.3,5.4-15.4,8-24.9,8.2h-1.5c-7.1,0-12.5-0.6-29.4-3.2c-17.2-2.6-26-3.6-34.6-3.6
			c-5.8,0-11.2,0.4-16.7,1.4c-7.4,1.2-10.3,2-17,5.1c18.8,20.5,45.7,33.4,75.7,33.4c56.8,0,102.8-46,102.8-102.8
			C477.3,191.1,431.3,145.1,374.5,145.1L374.5,145.1z"/>
		<path fill="#EBEDEF" d="M439.6,437.6c0-6.6,0.2-8.4,1-11c0.3-1.1,0.8-2.1,1.4-3.1c1-1.7,1.7-2.5,3.7-4.1h-31.5
			c2,1.8,2.7,2.5,3.7,3.9c0.6,1,1.2,2.1,1.5,3.2c0.7,2.4,1,4.7,1,10.6c0,3,0,5,0,5.9v58.8c0,3.5-0.6,7.1-1.5,9.5
			c-0.4,1-0.9,2-1.6,2.9c-0.7,1.1-1.3,1.7-3,3.5h31.2c-1.5-1.3-2.1-1.9-3-3.5c-0.7-1-1.2-2-1.6-3c-0.8-2.2-1.3-5.5-1.3-8.6v-59.2
			L439.6,437.6L439.6,437.6z"/>
		<path fill="#EBEDEF" d="M649.6,437.5c0-4.4,0.3-7.7,1.1-10.4c0.3-1.3,0.9-2.5,1.6-3.6c1-1.7,1.8-2.5,3.9-4.1H624
			c1.9,1.6,2.5,2.3,3.6,4c0.7,1.1,1.2,2.3,1.6,3.4c0.7,2.3,1.1,5.2,1.1,10.3V461h-44v-17.9c0-5.4,0-9,0.3-11.7
			c0.1-1.6,0.4-3,0.8-4.3c0.7-2.1,2.5-5,4.1-6.7c0.2-0.2,0.6-0.6,1.1-1.1H561c1.9,1.9,2.4,2.5,3.2,3.8c0.7,1,1.3,2.1,1.7,3.3
			c0.8,2.5,1,3.9,1.1,10.4l0.1,6.2v53.8c0,5.5-0.1,7.8-0.4,10.4c-0.2,1.3-0.5,2.6-1,3.9c-0.8,2.1-1.9,3.8-3.8,5.5
			c-0.2,0.2-0.6,0.5-1.1,1H592c-1.4-1.4-1.8-2-2.6-3.2c-0.6-0.9-1.1-1.9-1.6-3c-1-2.6-1.3-4.5-1.4-8.6c0-2.1,0-4,0-5.9v-23.8h44v24
			c0,5.3-0.1,7.2-0.4,10c-0.2,1.5-0.5,2.9-1.1,4.2c-0.7,1.8-1.8,3.5-3.5,5.2c-0.3,0.3-0.7,0.7-1.4,1.2h31.4c-1.3-1.3-1.8-1.8-2.6-3
			c-0.8-1.1-1.4-2.2-1.8-3.2c-1-2.3-1.2-4-1.3-8.9c-0.1-2.9-0.1-4.6-0.1-5.1l0.1-54.1V437.5L649.6,437.5z"/>
		<path fill="#EBEDEF" d="M398.5,510.9c-3.5-3.3-6.6-6.4-11.1-11.4c-2.9-3.1-5.3-5.8-7.2-8l-15.3-18c1.9-0.6,2.7-0.8,4.4-1.5
			c5-2,8.7-4.1,12.1-7c3.9-3.3,6.3-6.8,7.7-11.2c0.8-2.5,1.2-5,1.2-7.6c0-6-2.2-11.5-6.6-16.1c-4-4.2-9.7-7.4-16-8.9
			c-4.4-1-9-1.5-16.8-1.7c-2.9-0.1-6-0.1-9.1-0.1h-25.4c1.7,1.6,2.3,2.3,3.3,3.7c0.7,1.1,1.4,2.3,1.7,3.6c0.7,2.2,0.9,5.3,0.9,10.5
			v64.5c0,4.6-0.3,7.3-1.1,9.5c-0.4,1.1-1,2.1-1.7,3.1c-0.9,1.2-1.5,1.8-3.3,3.4h31.3c-1.4-1.5-1.8-2-2.7-3.2c-0.7-0.9-1.3-2-1.7-3
			c-0.8-2.2-1.2-4.5-1.2-9.1c0-1.5-0.1-3.1-0.1-4.9v-22.1l18.2,21.8c0.8,1,2.2,2.6,4.1,4.8c2.1,2.4,3.7,4.2,4.8,5.3
			c3.5,3.6,6.8,6.3,10.1,8.1c2.9,1.5,5.5,2.2,9.8,2.3c1.6,0,3.3,0.1,5.1,0.1h12.3c-1.6-1.3-2.3-1.9-3.6-3
			C401.3,513.5,399.9,512.3,398.5,510.9L398.5,510.9z M360.9,462.7c-3.5,2.1-7.1,3.2-12.4,4c-2,0.3-3.7,0.5-5.1,0.5
			c-0.5,0-0.8,0-1.6-0.1v-36.4c1.3,0,1.7,0,2.6,0c4.8,0,9.5,0.6,13.2,1.6c2.5,0.7,4.8,1.9,6.7,3.6c3.3,2.8,5.1,6.9,5.1,12.1
			c0,4.5-1.3,8.2-3.8,11.1C364.3,460.3,362.8,461.6,360.9,462.7L360.9,462.7z"/>
		<path fill="#EBEDEF" d="M533.9,503.5c-5.9,2.5-11.3,3.6-17.2,3.6c-10.2,0-18.9-3.6-25.3-10.6c-6.4-6.9-9.8-16.4-9.8-27.2
			c0-10.3,3.2-19.9,8.9-26.5c2.5-2.9,5.5-5.4,8.9-7.3c5.6-3.1,12-4.7,19-4.7c6,0,11.8,1.2,17.6,3.5c3.6,1.5,5,2.2,8.1,4.4v-18.5
			c-2.4-0.8-3.4-1.1-6-1.6c-5.7-1.2-11.1-1.7-17.3-1.7c-10.6,0-19.7,1.7-28,5.2c-5,2.1-9.5,4.8-13.5,8
			c-12.1,9.8-18.7,23.9-18.7,40.2c0,15.8,6.4,29.5,18,38.6c9.6,7.6,21.9,11.4,36.7,11.4c9.2,0,17.9-1.4,27.6-4.4
			c0.4-0.1,0.9-0.3,1.6-0.5v-17.9c-2.4,1.6-3.2,2.1-4.6,2.9C538,501.6,536,502.6,533.9,503.5L533.9,503.5z"/>
		<path fill="#EBEDEF" d="M272.5,423.2c0.6,1,1.1,2.2,1.5,3.3c0.7,2.4,0.9,4.8,0.9,10.3v37.4c0,8-0.2,12.8-0.8,16.7
			c-0.4,2.6-1.3,5-2.5,7.2c-2.4,4-6.8,7.1-12.1,8.4c-2.1,0.5-4.5,0.8-7,0.8c-8.4,0-15.7-3.2-19.2-8.3c-2.7-4-3.5-7.8-3.6-17.9
			l-0.1-8.1v-29.6c0-5.7,0-8.5,0.2-11.4c0.1-1.8,0.3-3.3,0.7-4.5c0.7-2.3,2.4-5.3,3.9-7.1c0.2-0.2,0.5-0.5,0.8-0.9h-31.9
			c2,1.6,2.6,2.4,3.6,4c0.6,1.1,1.1,2.2,1.4,3.4c0.4,1.5,0.6,3,0.7,4.5c0,1,0,3,0,6.1l0,5.7v28.2c0,10.5,0,13.1,0.4,17.3
			c0.6,7.2,2.7,12.9,6.9,18.1c7.4,9.4,19.4,14.3,34.7,14.3c7.3,0,14.4-1.1,19.7-3.1c5.7-2.1,10.9-5.6,14.6-9.8
			c4.5-5.1,7.2-11.4,7.9-19.1c0.5-4.5,0.7-9.9,0.7-17.5v-28.3l-0.1-5.6v-1.1c0-4.2,0.2-6.7,0.8-9c0.4-1.4,0.9-2.7,1.7-4
			c1-1.7,1.8-2.4,3.9-4.1H269C270.9,420.9,271.5,421.6,272.5,423.2L272.5,423.2z"/>
		<path fill="#EBEDEF" d="M164.7,503.9c-4.4,0.8-9.3,1.2-15.4,1.4c-2.1,0.1-4.7,0.1-7.9,0.1h-15.1l59.6-85.9h-77.3l-9.5,21
			c3.2-1.7,4.4-2.3,7.2-3.4c4.4-1.7,9.2-3.1,13.9-3.9c4.1-0.7,7.8-1,13.9-1.2c2.7-0.1,5.3-0.1,7.6-0.1h11.4l-60.1,86h85l9.8-22.4
			c-3.4,2-4.6,2.6-7.2,3.8C175.7,501.3,170.3,502.9,164.7,503.9L164.7,503.9z"/>
	</g>
</g>
</svg>
