<?xml version="1.0" encoding="utf-8"?>
<svg baseProfile="tiny-ps" version="1.2" viewBox="0 0 750 750" xmlns="http://www.w3.org/2000/svg">
  <title>Onepath logo</title>
  <g id="a">
    <rect width="750" height="750" fill="#fff" stroke-width="0" />
  </g>
  <g>
    <path d="M93,406c-32.4,0-58.5-26.1-58.5-64.2s22.2-68,61-68c31.1,0,58.5,23.5,58.5,64.2s-22.2,68-61,68M93.7,296.1c-19.1,0-32.4,15.3-32.4,41.3s11.4,45.8,34.3,45.8,32.4-14,32.4-41.9-12.7-45.1-34.3-45.1" fill="#514244" stroke-width="0" />
    <path d="M244.3,403.5c-8.9.6-17.2-5.7-18.4-14.6v-41.3c0-17.2-7.6-24.1-20.3-24.1s-18.4,8.3-18.4,22.2v57.8h-7.6c-8.9.6-16.5-5.7-17.2-15.3v-44.5c0-21,14-43.2,45.1-43.2s43.2,15.9,43.2,44.5v58.5h-6.4Z" fill="#514244" stroke-width="0" />
    <path d="M398.1,296.1c-5.1,0-10.2.6-15.3,2.5v36.2c5.7,1.3,12.1,2.5,17.8,1.9,10.2,1.3,19.1-5.7,20.3-15.9v-3.8c.6-14.6-5.1-21.6-22.9-21M404.4,358.4c-7.6,0-14.6-1.3-21.6-4.4v49.6h-9.5c-7,0-15.3-4.4-15.3-18.4v-103.6c12.7-4.4,26.7-7,40-7.6,35-.6,48.9,17.8,48.9,41.3,1.3,22.9-15.9,41.9-38.8,43.8-.6-.6-1.9-.6-3.8-.6" fill="#6e9934" stroke-width="0" />
    <path d="M565.2,273.2h3.2v29.2h35v10.2c-.6,7-7,12.7-14.6,12.1h-20.3v40.7c0,13.3,5.7,17.8,15.9,17.8,6.4.6,12.7-.6,17.8-3.8h.6v8.9c0,10.2-7.6,16.5-22.2,16.5-25.4,0-37.5-14-37.5-37.5v-66.7c.6-20.3,15.3-27.3,22.2-27.3" fill="#6e9934" stroke-width="0" />
    <path d="M693,403.5c-8.3.6-15.9-5.1-17.2-14v-43.8c0-16.5-8.9-22.9-19.7-22.9s-18.4,5.7-18.4,23.5v57.2h-7.6c-8.3,1.3-15.9-4.4-17.2-13.3v-116.3h7.6c12.1,0,17.2,7,17.2,15.9v24.8c5.7-8.9,15.3-14,25.4-13.3,22.2,0,37.5,15.3,37.5,43.8v59.1l-7.6-.6Z" fill="#6e9934" stroke-width="0" />
    <path d="M492.8,406c-26.7,0-43.2-13.3-43.2-32.4s13.3-31.8,50.2-31.8h8.9v-1.3c0-14-6.4-18.4-21.6-18.4s-28.6,7-32.4,11.4c0,0-.6.6-.6,0-2.5-11.4,3.2-23.5,14-28.6,7-3.2,14.6-4.4,22.9-4.4,22.2,0,42.6,10.8,42.6,45.8v23.5c0,21-15.9,36.2-40.7,36.2M508.7,359.6h-8.9c-19.1,0-24.8,4.4-24.8,12.7s6.4,12.7,17.2,12.7c7.6,1.3,14.6-3.8,15.9-11.4v-4.4l.6-9.5Z" fill="#6e9934" stroke-width="0" />
    <path d="M308.5,406c-27.3-.6-49.6-22.9-49.6-50.2s20.3-54.7,48.9-54.7c21.6-.6,39.4,15.9,40,37.5v1.3c0,18.4-14,24.1-47,24.1h-16.5c1.9,12.7,13.3,21,28,21,10.8.6,22.2-2.5,30.5-9.5,0,0,.6-.6.6,0,5.7,22.9-12.7,30.5-35,30.5M306.6,321.5c-11.4,0-21,9.5-21,21.6v3.2h11.4c23.5,0,29.2-2.5,29.2-9.5-1.3-10.2-8.3-15.3-19.7-15.3" fill="#514244" stroke-width="0" />
    <path d="M84.8,460c139.2-19.7,272-21,294.2-17.2,1.3,0,.6.6,0,.6-62.9,9.5-124.6,24.1-185.6,43.2-8.3,3.2-11.4,6.4-9.5,10.2,143.6-35,277.7-44.5,467.7-37.5,0-1.3.6-5.7-8.3-7.6-218.6-45.8-453.7-22.9-551-.6-6.4,1.9-8.3,5.7-7.6,8.9" fill="#6e9934" stroke-width="0" />
  </g>
</svg>