<?xml version="1.0" encoding="utf-8"?>
<!-- Generator: Adobe Illustrator 16.0.0, SVG Export Plug-In . SVG Version: 6.00 Build 0)  -->
<svg version="1.2" baseProfile="tiny-ps" id="Layer_1" xmlns="http://www.w3.org/2000/svg" xmlns:xlink="http://www.w3.org/1999/xlink"
	 width="500px" height="500px" viewBox="0 0 500 500" xml:space="preserve">
	 <title>Adwebtech</title>
<g>
	<linearGradient id="SVGID_1_" gradientUnits="userSpaceOnUse" x1="116.6113" y1="184.6592" x2="149.3887" y2="184.6592">
		<stop  offset="0" stop-color="#F9B46E"/>
		<stop  offset="0.3674" stop-color="#F9B46E"/>
		<stop  offset="0.5194" stop-color="#F89C62"/>
		<stop  offset="0.7125" stop-color="#F78254"/>
		<stop  offset="1" stop-color="#F78254"/>
	</linearGradient>
	<path fill="url(#SVGID_1_)" d="M116.611,186.507l12.555,11.088c4.758-3.925,9.867-7.811,15.358-11.63l4.865-3.922l-13.078-10.319
		C130.191,175.782,123.499,180.699,116.611,186.507"/>
	<linearGradient id="SVGID_2_" gradientUnits="userSpaceOnUse" x1="129.1826" y1="159.6045" x2="163.2837" y2="159.6045">
		<stop  offset="0" stop-color="#F9B46E"/>
		<stop  offset="1" stop-color="#F78254"/>
	</linearGradient>
	<path fill="url(#SVGID_2_)" d="M149.215,151.831h-0.02c-3.972,1.582-11.19,4.724-20.013,9.777l8.891,7.011
		c3.229-1.792,6.556-3.471,9.991-5.022c4.846-2.229,9.921-4.198,15.22-5.894l-10.756-7.111
		C152.528,150.591,151.341,150.993,149.215,151.831"/>
	<linearGradient id="SVGID_3_" gradientUnits="userSpaceOnUse" x1="98.7749" y1="165.3496" x2="125.0537" y2="165.3496">
		<stop  offset="0" stop-color="#F9B46E"/>
		<stop  offset="1" stop-color="#F78254"/>
	</linearGradient>
	<polygon fill="url(#SVGID_3_)" points="98.775,167.468 105.772,175.096 125.054,162.457 116.938,155.603 	"/>
	<linearGradient id="SVGID_4_" gradientUnits="userSpaceOnUse" x1="68.5625" y1="245.3599" x2="86.9902" y2="245.3599">
		<stop  offset="0" stop-color="#F9B46E"/>
		<stop  offset="0.3674" stop-color="#F9B46E"/>
		<stop  offset="0.5194" stop-color="#F89C62"/>
		<stop  offset="0.7125" stop-color="#F78254"/>
		<stop  offset="1" stop-color="#F78254"/>
	</linearGradient>
	<path fill="url(#SVGID_4_)" d="M76.772,231.889l-0.227,0.368l-2.84,4.69c-1.799,3.031-3.506,6.167-5.143,9.395
		c1.532,4.046,4.638,10.407,7.357,15.049c2.824-5.407,6.452-11.633,11.071-18.362c-2.857-3.8-6.434-9.343-8.615-13.632
		c-0.017-0.017-0.017-0.055-0.033-0.069L76.772,231.889z"/>
	<linearGradient id="SVGID_5_" gradientUnits="userSpaceOnUse" x1="80.5933" y1="223.8096" x2="104.0771" y2="223.8096">
		<stop  offset="0" stop-color="#F9B46E"/>
		<stop  offset="0.3674" stop-color="#F9B46E"/>
		<stop  offset="0.5194" stop-color="#F89C62"/>
		<stop  offset="0.7125" stop-color="#F78254"/>
		<stop  offset="1" stop-color="#F78254"/>
	</linearGradient>
	<path fill="url(#SVGID_5_)" d="M80.593,226.101c0.349,0.506,0.852,1.187,1.062,1.552l8.003,11.594
		c4.078-5.684,8.839-11.68,14.419-17.836c-2.354-2.965-6.401-7.791-8.386-10.861c-0.47-0.733-0.943-1.447-1.38-2.177
		C89.571,213.793,84.952,219.701,80.593,226.101"/>
	<linearGradient id="SVGID_6_" gradientUnits="userSpaceOnUse" x1="89.084" y1="189.7705" x2="111.001" y2="189.7705">
		<stop  offset="0" stop-color="#F9B46E"/>
		<stop  offset="1" stop-color="#F78254"/>
	</linearGradient>
	<path fill="url(#SVGID_6_)" d="M89.084,191.507l5.595,10.825c4.899-5.509,10.341-10.963,16.322-16.163l-6.526-8.961
		C99.333,181.41,94.139,186.153,89.084,191.507"/>
	<linearGradient id="SVGID_7_" gradientUnits="userSpaceOnUse" x1="97.1353" y1="203.7856" x2="124.8931" y2="203.7856">
		<stop  offset="0" stop-color="#F9B46E"/>
		<stop  offset="0.3674" stop-color="#F9B46E"/>
		<stop  offset="0.5194" stop-color="#F89C62"/>
		<stop  offset="0.7125" stop-color="#F78254"/>
		<stop  offset="1" stop-color="#F78254"/>
	</linearGradient>
	<path fill="url(#SVGID_7_)" d="M97.135,205.198l6.766,8.872l0.925,1.236l2.212,2.898c4.848-5.18,11.821-11.597,17.854-16.843
		c-8.729-8.12-11.385-11.419-11.751-11.945c-0.017-0.033-0.033-0.05-0.033-0.05C108.26,193.706,101.95,199.915,97.135,205.198"/>
	<linearGradient id="SVGID_8_" gradientUnits="userSpaceOnUse" x1="134.0225" y1="200.6826" x2="171" y2="200.6826">
		<stop  offset="0" stop-color="#F9B46E"/>
		<stop  offset="1" stop-color="#F78254"/>
	</linearGradient>
	<path fill="url(#SVGID_8_)" d="M134.022,202l15.167,13.422c6.383-5.473,13.336-10.811,20.942-15.848
		c0.276-0.193,0.572-0.384,0.868-0.575l-16.771-13.057C147.973,190.633,141.029,196.071,134.022,202"/>
	<linearGradient id="SVGID_9_" gradientUnits="userSpaceOnUse" x1="126.7378" y1="236.522" x2="145.3874" y2="217.8724">
		<stop  offset="0" stop-color="#F9B46E"/>
		<stop  offset="1" stop-color="#F78254"/>
	</linearGradient>
	<path fill="url(#SVGID_9_)" d="M119.364,229.148l15.171,14.221c0,0,10.372-12.042,18.648-17.7l-15.589-13.84
		C137.595,211.83,126.421,219.75,119.364,229.148"/>
	<linearGradient id="SVGID_10_" gradientUnits="userSpaceOnUse" x1="74.5601" y1="207.7974" x2="92.4307" y2="207.7974">
		<stop  offset="0" stop-color="#F9B46E"/>
		<stop  offset="1" stop-color="#F78254"/>
	</linearGradient>
	<path fill="url(#SVGID_10_)" d="M74.56,209.324l4.81,12.501c3.803-5.509,8.145-11.229,13.061-16.913l-0.943-1.358
		c-1.463-2.669-3.4-6.837-4.497-9.785C82.666,198.513,78.483,203.676,74.56,209.324"/>
	<linearGradient id="SVGID_11_" gradientUnits="userSpaceOnUse" x1="98.5371" y1="250.3643" x2="115.3484" y2="233.553">
		<stop  offset="0" stop-color="#F9B46E"/>
		<stop  offset="1" stop-color="#F78254"/>
	</linearGradient>
	<path fill="url(#SVGID_11_)" d="M91.924,243.049c0.558,0.678,1.116,1.358,1.708,2.036c3.279,3.789,9.71,10.236,14.628,14.509
		c4.395-6.785,8.875-13.024,13.407-18.746c-3.207-3.134-10.026-9.971-15.795-16.771C100.591,230.512,95.968,236.926,91.924,243.049"
		/>
	<path fill="none" d="M155.213,181.357l17.501,13.289c7.537-4.757,15.659-9.204,24.41-13.231l-20.624-14.578
		C176.501,166.837,167.07,172.623,155.213,181.357"/>
	<linearGradient id="SVGID_12_" gradientUnits="userSpaceOnUse" x1="84.3179" y1="272.2998" x2="100.113" y2="256.5047">
		<stop  offset="0" stop-color="#F9B46E"/>
		<stop  offset="1" stop-color="#F78254"/>
	</linearGradient>
	<path fill="url(#SVGID_12_)" d="M78.707,265.557c0,0,0.02,0.017,0.036,0.033c0.595,0.769,9.729,12.362,16.546,16.268l0.906-1.726
		c3.226-6.102,6.556-11.873,9.972-17.28c-0.66-0.642-2.438-2.403-2.716-2.63c-1.625-1.345-6.82-5.86-12.416-12.59
		c0,0,0-0.017-0.018-0.017c-0.382-0.454-0.784-0.904-1.169-1.375C85.351,253.263,81.655,259.856,78.707,265.557"/>
	<linearGradient id="SVGID_13_" gradientUnits="userSpaceOnUse" x1="74.291" y1="292.291" x2="87.4099" y2="279.1721">
		<stop  offset="0" stop-color="#F9B46E"/>
		<stop  offset="1" stop-color="#F78254"/>
	</linearGradient>
	<path fill="url(#SVGID_13_)" d="M71.666,280.532c-0.036,0.033-0.054,0.089-0.07,0.139c-1.048,2.492-1.727,4.254-2.022,5.089
		c-0.141,0.368-0.21,0.559-0.21,0.559c0,0.02,0.018,0.02,0.018,0.036c0.276,0.473,3.486,5.736,11.456,11.387
		c1.322,0.942,3.449,2.544,5.14,3.573c2.424-5.596,4.937-10.934,7.537-16.039c-0.664-0.522-1.958-1.726-2.55-2.234
		c-0.628-0.503-1.238-1.028-1.83-1.535c-0.574-0.503-1.132-1.007-1.673-1.516c-0.521-0.47-1.048-0.94-1.535-1.43
		c-0.051-0.033-0.105-0.089-0.156-0.139c-0.436-0.414-0.854-0.821-1.274-1.235c-1.167-1.151-2.266-2.305-3.313-3.455
		c-1.499-1.656-2.875-3.294-4.129-4.914C74.7,273.558,72.921,277.554,71.666,280.532"/>
	<linearGradient id="SVGID_14_" gradientUnits="userSpaceOnUse" x1="63.8389" y1="227.063" x2="76.3369" y2="227.063">
		<stop  offset="0" stop-color="#F9B46E"/>
		<stop  offset="1" stop-color="#F78254"/>
	</linearGradient>
	<path fill="url(#SVGID_14_)" d="M63.839,227.368c0.294,2.287,1.184,8.159,3.067,14.403l9.38-16.32l0.051-0.102
		c-1.583-3.629-3.277-9.083-3.834-12.994C69.417,217.046,66.49,222.035,63.839,227.368"/>
	<linearGradient id="SVGID_15_" gradientUnits="userSpaceOnUse" x1="55.2056" y1="246.4521" x2="64.9878" y2="246.4521">
		<stop  offset="0" stop-color="#F9B46E"/>
		<stop  offset="1" stop-color="#F78254"/>
	</linearGradient>
	<path fill="url(#SVGID_15_)" d="M60.21,235.145c-0.033,0.072-0.054,0.138-0.087,0.21c-1.81,4.22-3.453,8.629-4.917,13.231
		l1.377,11.804l0.02,0.086l0.348,2.948c0,0,0.068-0.21,0.227-0.628c0.75-1.936,3.259-8.28,7.81-17.053
		c-1.359-4.494-2.181-9.237-2.181-14.122l-0.017-2.141C61.901,231.328,61.045,233.208,60.21,235.145"/>
	<linearGradient id="SVGID_16_" gradientUnits="userSpaceOnUse" x1="59.2671" y1="266.5742" x2="74.0703" y2="266.5742">
		<stop  offset="0" stop-color="#F9B46E"/>
		<stop  offset="1" stop-color="#F78254"/>
	</linearGradient>
	<path fill="url(#SVGID_16_)" d="M59.267,267.943c0,0,0.018,0.053,0.037,0.124c0.417,1.253,3.871,11.351,7.723,14.642l0.017-0.05
		l4.169-10.811l1.951-4.898l0.036-0.072l0.87-2.192c-0.297-0.421-0.575-0.839-0.852-1.256c-0.213-0.332-0.419-0.684-0.629-0.993
		c-0.019,0-0.019-0.022-0.019-0.022c-0.086-0.171-0.21-0.343-0.295-0.52c-0.889-1.446-1.674-2.843-2.388-4.237
		c-0.229-0.437-0.455-0.871-0.665-1.308c-0.227-0.438-0.433-0.869-0.626-1.306c-0.138-0.296-0.279-0.595-0.398-0.894
		c-0.142-0.293-0.28-0.586-0.402-0.888c-0.246-0.572-0.47-1.132-0.683-1.673c-0.03-0.103-0.328-0.678-0.572-1.151
		C63.869,255.984,61.431,261.825,59.267,267.943"/>
	<path fill="#BD0A0E" d="M431.224,176.011c0,11.577-1.482,37.378-4.535,77.481c-2.981,40.202-6.257,93.832-7.811,158.983
		l-170.777,7.341c-14.623,0.406-23.916-0.296-35.056-0.296c-24.864,0-45.557-3.537-62.226-10.579
		c-16.544-7.027-29.307-18.5-38.199-34.314c-8.963-15.762-13.374-31.625-13.374-47.335c0-9.657,1.64-19.108,4.916-28.263
		c3.402-9.204,8.525-18.253,15.517-27.057c7.098-8.806,15.325-16.39,24.793-22.665c9.485-6.176,22.299-12.1,38.652-17.642
		c16.442-5.582,37.121-10.812,62.276-15.765c10.41-1.969,20.068-4.182,28.819-6.591c8.756-2.298,14.891-4.306,18.585-6.098
		c3.733-1.781,6.787-3.767,9.083-6.212c2.34-2.262,4.01-4.705,5.022-7.324c0.907-2.505,1.449-5.247,1.449-8.07
		c0-7.793-3.208-13.756-9.681-17.958c-6.36-4.201-15.809-6.292-28.293-6.292c-34.503,0-77.41,10.576-128.197,30.4
		c3.783-20.278,6.38-34.936,7.304-42.569c1.045-7.656,2.699-19.736,4.845-36.11c57.886-12.899,107.541-19.439,149.192-19.439
		c23.619,0,45.297,2.738,65.066,8.196c19.647,5.37,35.08,14.174,46.065,26.256C425.765,136.138,431.224,153.484,431.224,176.011"/>
	<path fill="#8E0F06" d="M92.53,312.667c8.091,2.139,17.328,3.659,27.873,4.348c16.93,1.115,33.834-0.838,50.199-4.538
		c55.657-12.595,87.987-31.521,87.987-31.521l-35.583-27.386l172.452-37.78l-16.45,114.154l-33.72-1.217
		c0,0-59.313,52.809-178.746,52.809"/>
	<linearGradient id="SVGID_17_" gradientUnits="userSpaceOnUse" x1="51.8813" y1="306.957" x2="399.9658" y2="306.957">
		<stop  offset="0" stop-color="#F88313"/>
		<stop  offset="0.1089" stop-color="#F88313"/>
		<stop  offset="0.1227" stop-color="#F88619"/>
		<stop  offset="0.2331" stop-color="#F99F47"/>
		<stop  offset="0.3183" stop-color="#F9AE63"/>
		<stop  offset="0.3674" stop-color="#F9B46E"/>
		<stop  offset="0.5194" stop-color="#F89C62"/>
		<stop  offset="0.7125" stop-color="#F78254"/>
		<stop  offset="0.7869" stop-color="#F67645"/>
		<stop  offset="0.914" stop-color="#F56730"/>
		<stop  offset="0.999" stop-color="#F56129"/>
		<stop  offset="1" stop-color="#F56129"/>
	</linearGradient>
	<path fill="url(#SVGID_17_)" d="M251.071,259.768l28.398,21.83c0,0-40.22,26.534-90.642,37.135
		c-16.511,2.981-33.509,4.201-50.441,3.087c-84.35-5.513-85.081-64.267-85.081-66.288c-9.467,68.398,27.515,131.29,133.144,131.29
		c119.433,0,178.746-52.813,178.746-52.813l18.674,16.804l16.097-123.718L251.071,259.768z"/>
	<path fill="#BD0A0E" d="M66.714,329.768c0.155,0.157,0.297,0.332,0.47,0.487c-0.105-0.05-0.21-0.105-0.294-0.155
		C66.784,329.944,66.73,329.82,66.714,329.768"/>
	<linearGradient id="SVGID_18_" gradientUnits="userSpaceOnUse" x1="66.8877" y1="312.8252" x2="396.4756" y2="312.8252">
		<stop  offset="0" stop-color="#F7942E"/>
		<stop  offset="0.0752" stop-color="#F7A54F"/>
		<stop  offset="0.2076" stop-color="#F6C691"/>
		<stop  offset="1" stop-color="#F7E7D1"/>
	</linearGradient>
	<path fill="url(#SVGID_18_)" d="M242.912,341.727c-91.421,29.021-161.413-4.478-175.729-11.47
		c-0.101-0.052-0.206-0.104-0.295-0.157c1.759,3.629,16.874,32.458,62.887,46.563c26.955,7.583,58.119,9.231,93.232,6.093
		c0,0,85.62-6.704,142.289-51.694l16.76,15.538l14.421-105.21C396.476,241.39,345.288,309.227,242.912,341.727"/>
</g>
</svg>
