<?xml version="1.0"?><svg version="1.2" baseProfile="tiny-ps" viewBox="0 0 300 300" xmlns="http://www.w3.org/2000/svg" xmlns:xlink="http://www.w3.org/1999/xlink"><title>Cheat Happens</title><g><g fill="#f3a32e" transform="matrix(.1 0 0 -.1 0 300)"><path d="M1306 2896c-66-40-121-77-123-83l-4-11 81-47c44-26 80-48 80-50 0-1-43 8-94 20l-95 22-20-11c-11-6-45-24-75-41l-56-29-11-40c-10-37-10-46 6-91l6-20-16 29-17 28 4 34 4 34h-7c-11 0-373-212-380-222-3-5-21-51-40-103s-37-95-40-95-9 39-12 86c-3 48-8 89-11 91-5 6-235-129-236-138 0-3 41-27 92-54l92-48 39 21 39 21-12-14c-6-8-20-17-31-20-26-9-24-20 7-33l25-12 464 277 464 278 1 148c0 81-1 147-2 146-2 0-57-33-122-73zm-114-240-5-10-15 22-14 22-22 1-21 1 25 7 25 7 17-20 16-21-6-9zm-455-231 68-36-25 6-25 5-33-20-33-20 6-19 6-19-8-5-8-5-2 29-2 29 29 15c17 9 30 17 30 20 0 2-19 15-42 29-62 37-40 32 39-9zm793 398v-148l54-32 55-31 17 19c20 22 33 17 14-6l-13-16 14-13c18-16 268-166 277-166 4 0 13 9 20 20 6 11 31 29 53 41l42 21 9-14 10-13 5 13 5 12 9-6 9-5-5-10-6-9h-72l-34-26-35-26 14-13c7-7 120-76 251-154l238-142 124 68c69 37 125 70 125 73-1 7-231 143-235 138-3-2-8-47-12-99l-8-94-43 110-42 110-278 162-278 161-97-23c-53-12-97-21-97-20 0 2 37 25 83 50 45 26 84 50 87 52 5 5 5 5-80 55l-55 32 17-26 17-26-40 26-41 27 17 3 17 4-19 12c-10 7-35 23-55 35l-38 23v-149zm485-262c-13-11-81-34-71-24 4 5 22 13 39 20 40 15 43 15 32 4zm166-77 24-26-32 18-31 18 4 8c7 11 8 11 35-18zm82-31c-7-2-19-2-25 0l-13 5h50l-12-5zm-1057-21-277-167-6-25-6-24-6 17-6 17-168-101-167-101V962l258-150c141-83 347-203 456-267l199-117 93 64 93 63 1 24v24l-22 36-22 36 24-20 23-20-5 72-5 73-14 16-13 16-35-7c-20-4-56-8-81-9l-45-1-3-17-3-18 26-10 27-10-6-16c-4-9-4-32 0-50l6-33 32-4 31-4-55-1c-30 0-49 2-42 5l12 5v97l-20 6-20 6v48l-17 4c-10 3 17 5 59 6l77 1 7 11 7 11 38-6 39-6v271l-12-7c-7-4-82-55-167-113l-155-105-77 42-77 42-6-18c-10-30-41-75-51-74-6 0-29 3-53 7l-42 6 5 10 6 9h77l12 15 12 14-13 34-12 34-41 22-41 22-35 1c-19 1-51 1-71 0l-36-2-15-33c-8-17-13-26-11-19 2 8 3 34 3 59v44l16-15 15-16h93l-19 13c-11 8-48 29-82 48l-63 34v425h-8c-5 0-17-9-28-21l-18-20-1-59v-59l-12 22-13 22 6 42 6 42-27 25-28 26h16c9 0 28-5 42-10l26-10 20 10 19 11v324l130 79c72 43 131 84 131 90 1 6 1 19 0 28l-2 18 32 19 31 19-41 26c-61 39-50 40 22 3l62-32-25-6c-52-12-87-47-62-63 10-6 180 98 395 242l167 112v28l-49 31-49 32-36-15-35-14-11-43-12-43 11-35 10-34-12 12-11 11-3 63-2 62-28 24-28 24 28-6c15-4 37-9 50-12l22-6 19 14 18 14-35 20-35 21-276-166zm165 6 12-23-16 14c-10 7-17 17-17 22 0 15 9 10 21-13zm-96-41c0-36-11-57-28-57h-11l12 12 12 12v33c0 18 3 33 8 33 4 0 7-15 7-33zm-615-822c-14-8-28-14-32-15h-7l5 15 6 15h27l26-1-25-14zm-5-91 17-26-11 6c-11 7-35 46-28 46 3 0 12-12 22-26zm1355 652v-144l65-42 65-42v-179c0-99-1-179-2-179-2 0-106 31-233 68l-230 68-5 292-5 291-32-20c-37-24-40-34-15-48 9-6 14-11 9-11-4 0-16 5-27 12l-19 12-118-80-118-80-3-176-2-176 25-4 25-5 11 13 11 14h46l6 13c3 6 4-12 2-41l-3-53 14-8 14-7-18-32-18-32-13 5c-8 3-22 5-33 5h-19v19l33 3 32 3v110l-19 3-19 4-9-17-10-16-29 6-29 7v-140l14-11 14-12 4 12 4 13 12-8 12-7-5-10c-4-5-17-9-31-9h-24v-471l18 10c9 5 82 54 162 108l145 98 3 73c2 39 5 72 8 72 2 0 31-8 64-17l60-16 28 25c15 14 41 33 59 42l31 16 6-13 6-12 6 13 6 12 9-6c5-3 9-9 9-15v-9h-80l-31-28-32-28 129-34c71-18 144-37 162-42l32-9v-179l-65-42-65-43V894l66-34 65-33-13-9-13-10 11 4c6 2 70 38 142 82l132 78v348h-40l-10-25c-13-35-16-31-12 16l4 41 11-11c6-6 19-11 29-11h17l1 359v359l-114 66c-63 37-149 89-191 116-41 28-78 50-80 50-3 0-5-65-5-144zm-542-611 27-25h-13c-6 0-12 4-12 9s-9 13-20 16-20 11-20 16c0 14 9 11 38-16zm92-31c0-2-9-4-21-4h-20l6 10 6 9 14-6c8-3 15-7 15-9zM220 2045v-156l78 42c42 23 84 47 92 53 15 10-16-28-81-99l-37-40-7-65-6-66 18-17c10-9 35-23 56-32 40-16 49-26 18-18l-20 5-29-17-30-18-6-45c-3-25-6-119-6-209v-165l70-89c39-49 68-89 65-89s-41 18-85 40-82 40-85 40-5-63-5-140V820h8c4 0 61 33 127 73l120 73v87c0 48-2 293-3 545l-2 458-73 42c-40 23-77 42-81 42h-8l5-15 6-14-10-6-9-6 1 8c1 4 1 17 0 29l-1 20-40 23-40 22v-156zm205-635 30-8h-30c-16 0-41 4-55 8l-25 8h25c14 0 39-4 55-8zM283 979l-14-42 6-28 7-29h-22l-1 23c0 12-1 40-3 62-3 49 0 55 23 55h19l-15-41zm2337 1151-115-69-6-88c-4-48-7-208-8-355l-1-268h15c8 0 15 5 15 10 0 6 4 10 9 10h9l-5-19-5-19-19 5-19 5v-122h14c19 0 25 20 15 46l-7 21 9 14 9 14v-18c0-9 5-25 11-35l12-19-17-26-18-26-14 6-14 5V965l49-27c58-33 58-33 64-10l4 17-2-23-2-22 61-37c33-20 64-38 69-40l7-4v281l-61-30c-33-17-72-36-86-41l-26-10 10 13c6 7 38 49 73 93l63 80-7 164c-3 90-6 207-6 260v96l-45-47-45-47-6 11-6 10-25-7-25-6 4 13 5 13 40 5 40 6 31 34 31 35 1 50v51l-65 64c-35 35-63 66-60 68 2 2 42-17 89-43l86-47v312l-7-1c-5 0-60-32-123-69zM260 1660c0-33 2-35 31-19l20 10-6 9c-3 6-15 15-26 20l-19 11v-31zm108-843c-65-34-118-65-118-70v-7l26 6 25 7 55-58 55-57 12 10c7 6 26 12 42 14l30 3 5 65 6 65 11-25c6-14 18-42 26-62l16-38 15 6 14 5 25-21 25-22-4-13-5-13 10-6 11-7 45 16c25 8 58 15 72 15h26l-6-6c-3-4-35-14-69-24l-63-17v-37l118-69 117-69 23 28c12 15 27 37 34 48l12 21-6 22-5 22 12 18 11 18-6-21-5-21 27-53 27-53 31-18c16-11 33-19 38-19 4 0 17 20 29 45l22 46-9 14c-13 19-609 375-627 375-7-1-66-29-130-63zm2039 39c-20-12-39-25-42-28-2-2 23-3 58-1 34 1 56 0 50-3-7-3-13-10-13-15v-9l25 5c14 3 36 7 50 10 36 8 31 18-20 43-56 27-61 27-108-2zm-397-56v-70l38 25 38 25-4 34-4 35-31 10c-16 6-32 11-33 11-2 0-4-32-4-70zm370 11c0-9 33-21 58-21h12v30h-70v-9zm189-1c-8-4-36-11-62-14l-48-7 3-52 3-52 35-17c39-19 36-24-4-8l-26 10v-72l26 17c15 10 69 42 120 72 52 30 94 58 94 62s-28 21-63 38l-63 31-15-8zm-603-219c-191-115-353-214-359-220l-12-12 24-6 23-6-13-8-13-8-12 17-13 17-28-17-28-17-3-121-3-121 53 26 53 26-30-26c-16-14-40-28-52-31l-23-6V39l8 4c41 23 252 150 252 153 0 1-28 19-62 40-35 21-72 44-83 52l-20 14 30-7c17-3 41-9 54-12l23-6-12 24-13 24 20-18 20-17h48l-14-9-15-10 25-6 25-6 269 157c149 86 277 163 285 170l14 14h-11c-7 0-15-4-18-10-3-5-14-10-23-10h-17l33 20 33 21 24 54c14 30 27 65 31 79l6 24-36-2-35-3-5 13-5 14h-46l-349-209zm244-42c-7-11-14-18-17-15s0 12 7 21c18 21 23 19 10-6zm-53-25c-3-3-12-4-19-1l-13 5 19 1c11 1 17-2 13-5zm-467-149c0-2-10-9-22-15l-23-11 19 15c21 17 26 19 26 11zm199-56c-8-5-18-9-23-9h-8l12 15 12 15 10-6 10-6-13-9zm-749 167c0-9-16-48-35-86s-35-76-35-85v-15l40-20 39-20 87 20c48 11 89 19 91 17s-33-25-78-51c-44-26-78-50-75-53 3-4 61-39 128-79l123-74 3 137c1 75 1 142-2 149-3 8-242 157-278 172-5 2-8-4-8-12zm-208-40-32-44 71-41c40-23 72-40 73-39 1 2 10 16 21 33l18 29-19 11c-10 5-37 29-60 52l-41 43-31-44z"/></g><g fill="#a1a7b5" transform="matrix(.1 0 0 -.1 0 300)"><path d="M1306 2896c-66-40-121-77-123-83l-4-11 81-47c44-26 80-48 80-50 0-1-43 8-94 20l-95 22-20-11c-11-6-45-24-75-41l-56-29-11-40c-10-37-10-46 6-91l6-20-16 29-17 28 4 34 4 34h-7c-11 0-373-212-380-222-3-5-21-51-40-103s-37-95-40-95-9 39-12 86c-3 48-8 89-11 91-5 6-235-129-236-138 0-3 41-27 92-54l92-48 39 21 39 21-12-14c-6-8-20-17-31-20-26-9-24-20 7-33l25-12 464 277 464 278 1 148c0 81-1 147-2 146-2 0-57-33-122-73zm-114-240-5-10-15 22-14 22-22 1-21 1 25 7 25 7 17-20 16-21-6-9zm-455-231 68-36-25 6-25 5-33-20-33-20 6-19 6-19-8-5-8-5-2 29-2 29 29 15c17 9 30 17 30 20 0 2-19 15-42 29-62 37-40 32 39-9zm793 398v-148l54-32 55-31 17 19c20 22 33 17 14-6l-13-16 14-13c18-16 268-166 277-166 4 0 13 9 20 20 6 11 31 29 53 41l42 21 9-14 10-13 5 13 5 12 9-6 9-5-5-10-6-9h-72l-34-26-35-26 14-13c7-7 120-76 251-154l238-142 124 68c69 37 125 70 125 73-1 7-231 143-235 138-3-2-8-47-12-99l-8-94-43 110-42 110-278 162-278 161-97-23c-53-12-97-21-97-20 0 2 37 25 83 50 45 26 84 50 87 52 5 5 5 5-80 55l-55 32 17-26 17-26-40 26-41 27 17 3 17 4-19 12c-10 7-35 23-55 35l-38 23v-149zm485-262c-13-11-81-34-71-24 4 5 22 13 39 20 40 15 43 15 32 4zm166-77 24-26-32 18-31 18 4 8c7 11 8 11 35-18zm82-31c-7-2-19-2-25 0l-13 5h50l-12-5zM220 2045v-156l78 42c42 23 84 47 92 53 15 10-16-28-81-99l-37-40-7-65-6-66 18-17c10-9 35-23 56-32 40-16 49-26 18-18l-20 5-29-17-30-18-6-45c-3-25-6-119-6-209v-165l70-89c39-49 68-89 65-89s-41 18-85 40-82 40-85 40-5-63-5-140V820h8c4 0 61 33 127 73l120 73v87c0 48-2 293-3 545l-2 458-73 42c-40 23-77 42-81 42h-8l5-15 6-14-10-6-9-6 1 8c1 4 1 17 0 29l-1 20-40 23-40 22v-156zm205-635 30-8h-30c-16 0-41 4-55 8l-25 8h25c14 0 39-4 55-8zM283 979l-14-42 6-28 7-29h-22l-1 23c0 12-1 40-3 62-3 49 0 55 23 55h19l-15-41zm2337 1151-115-69-6-88c-4-48-7-208-8-355l-1-268h15c8 0 15 5 15 10 0 6 4 10 9 10h9l-5-19-5-19-19 5-19 5v-122h14c19 0 25 20 15 46l-7 21 9 14 9 14v-18c0-9 5-25 11-35l12-19-17-26-18-26-14 6-14 5V965l49-27c58-33 58-33 64-10l4 17-2-23-2-22 61-37c33-20 64-38 69-40l7-4v281l-61-30c-33-17-72-36-86-41l-26-10 10 13c6 7 38 49 73 93l63 80-7 164c-3 90-6 207-6 260v96l-45-47-45-47-6 11-6 10-25-7-25-6 4 13 5 13 40 5 40 6 31 34 31 35 1 50v51l-65 64c-35 35-63 66-60 68 2 2 42-17 89-43l86-47v312l-7-1c-5 0-60-32-123-69zM260 1660c0-33 2-35 31-19l20 10-6 9c-3 6-15 15-26 20l-19 11v-31zm108-843c-65-34-118-65-118-70v-7l26 6 25 7 55-58 55-57 12 10c7 6 26 12 42 14l30 3 5 65 6 65 11-25c6-14 18-42 26-62l16-38 15 6 14 5 25-21 25-22-4-13-5-13 10-6 11-7 45 16c25 8 58 15 72 15h26l-6-6c-3-4-35-14-69-24l-63-17v-37l118-69 117-69 23 28c12 15 27 37 34 48l12 21-6 22-5 22 12 18 11 18-6-21-5-21 27-53 27-53 31-18c16-11 33-19 38-19 4 0 17 20 29 45l22 46-9 14c-13 19-609 375-627 375-7-1-66-29-130-63zm2039 39c-20-12-39-25-42-28-2-2 23-3 58-1 34 1 56 0 50-3-7-3-13-10-13-15v-9l25 5c14 3 36 7 50 10 36 8 31 18-20 43-56 27-61 27-108-2zm-27-45c0-9 33-21 58-21h12v30h-70v-9zm189-1c-8-4-36-11-62-14l-48-7 3-52 3-52 35-17c39-19 36-24-4-8l-26 10v-72l26 17c15 10 69 42 120 72 52 30 94 58 94 62s-28 21-63 38l-63 31-15-8zm-603-219c-191-115-353-214-359-220l-12-12 24-6 23-6-13-8-13-8-12 17-13 17-28-17-28-17-3-121-3-121 53 26 53 26-30-26c-16-14-40-28-52-31l-23-6V39l8 4c41 23 252 150 252 153 0 1-28 19-62 40-35 21-72 44-83 52l-20 14 30-7c17-3 41-9 54-12l23-6-12 24-13 24 20-18 20-17h48l-14-9-15-10 25-6 25-6 269 157c149 86 277 163 285 170l14 14h-11c-7 0-15-4-18-10-3-5-14-10-23-10h-17l33 20 33 21 24 54c14 30 27 65 31 79l6 24-36-2-35-3-5 13-5 14h-46l-349-209zm244-42c-7-11-14-18-17-15s0 12 7 21c18 21 23 19 10-6zm-53-25c-3-3-12-4-19-1l-13 5 19 1c11 1 17-2 13-5zm-467-149c0-2-10-9-22-15l-23-11 19 15c21 17 26 19 26 11zm199-56c-8-5-18-9-23-9h-8l12 15 12 15 10-6 10-6-13-9zm-749 167c0-9-16-48-35-86s-35-76-35-85v-15l40-20 39-20 87 20c48 11 89 19 91 17s-33-25-78-51c-44-26-78-50-75-53 3-4 61-39 128-79l123-74 3 137c1 75 1 142-2 149-3 8-242 157-278 172-5 2-8-4-8-12zm-208-40-32-44 71-41c40-23 72-40 73-39 1 2 10 16 21 33l18 29-19 11c-10 5-37 29-60 52l-41 43-31-44z"/></g></g></svg>