<?xml version="1.0" encoding="utf-8"?>
<!-- Generator: Adobe Illustrator 26.3.1, SVG Export Plug-In . SVG Version: 6.00 Build 0)  -->
<svg version="1.2" baseProfile="tiny-ps" id="Layer_1" xmlns="http://www.w3.org/2000/svg" xmlns:xlink="http://www.w3.org/1999/xlink"
	 viewBox="0 0 400 400" xml:space="preserve">
<title>Impression Digital Limited</title>
<g>
	<polygon fill="#2A7DE1" points="151.4,239.5 55,292.2 55,292.3 151.4,345 	"/>
	<polygon fill="#26358C" points="151.4,177.2 55,134.2 55,292.2 151.4,239.5 	"/>
	<polygon fill="#23B09B" points="248.6,239.5 345,292.2 345,292.3 248.6,345 	"/>
	<polygon fill="#008581" points="248.6,177.2 345,134.2 345,292.2 248.6,239.5 	"/>
	<polygon fill="#FAB72D" points="200.5,55 200.5,109.1 247.2,134.5 200.5,160 200.5,213.2 345,134.2 345,134.1 	"/>
	<polygon fill="#24B6E0" points="200.5,109.1 200.5,55 55,134.1 55,134.2 200.5,213.2 200.5,160 153.9,134.5 	"/>
</g>
</svg>
