<?xml version="1.0" encoding="utf-8"?>
<!-- Generator: Adobe Illustrator 26.1.0, SVG Export Plug-In . SVG Version: 6.00 Build 0)  -->
<svg version="1.2" baseProfile="tiny-ps" id="Layer_1" xmlns="http://www.w3.org/2000/svg" xmlns:xlink="http://www.w3.org/1999/xlink"
	 viewBox="0 0 600 600" xml:space="preserve">
    <title>ModiformBV</title>
<rect fill="#FFFFFF" width="600" height="600"/>
<g>
	<g>
		<polygon fill="#0072BB" points="34.3,349.2 300.2,310.7 566,349.2 566,358.4 300.2,310.7 34.3,358.4 		"/>
		<polygon fill="#0072BB" points="34.3,390.2 300.2,310.7 566,390.2 566,399.3 300.2,310.7 34.3,399.3 		"/>
	</g>
	<g>
		<g>
			<path fill="#0072BB" d="M432.4,270c0.2-1.5,0.4-3,0.4-4.6c0-16.5-13-30.4-29.8-30.4c-8.5,0-16.2,3.3-21.7,8.8
				c-5.5,5.5-9,13.1-9,21.6c0,1.6,0.1,3.1,0.4,4.6l0,0c2.3,14.4,14.8,25.5,29.7,25.5C417.5,295.5,430.1,284.6,432.4,270
				 M402.4,281.7c-9.1,0-15.9-7.5-15.9-16.3c0-4.4,1.5-8.4,4.6-11.5c2.8-3,7.3-5.1,11.3-5.1c9.2,0,16.2,7.5,16.2,16.5
				C418.6,274.7,411.7,281.7,402.4,281.7z"/>
			<path fill="#0072BB" d="M296.6,218.4v22.8c-4.3-4-10.3-6.1-16.1-6.1c-7.9,0-15.8,3.9-21,9.7c-5.1,5.8-7.7,13.2-7.7,20.8
				c0,1.5,0.1,3,0.3,4.5h0h0c0.9,5.9,3.5,11.5,7.3,16c5,5.8,12.2,9.6,20.6,9.6c6.5,0,13.2-2.6,17.6-7.6v5.8h13.9v-0.9V270v-13.3
				v-38.3H296.6z M282.1,281.7c-9.3,0-16.1-7.7-16.1-16.8c0-8.5,7.5-16,15.9-16c9.1,0,16.5,7.2,16.5,16.3
				C298.4,274.2,291.2,281.7,282.1,281.7z"/>
			<path fill="#0072BB" d="M218.4,235c-8.5,0-16.2,3.3-21.7,8.8c-5.5,5.5-9,13.1-9,21.6c0,1.6,0.1,3.1,0.4,4.6l0,0
				c2.3,14.4,14.8,25.5,29.7,25.5c15.1,0,27.8-11,30-25.5l0,0c0.2-1.5,0.4-3,0.4-4.6C248.1,248.9,235.1,235,218.4,235z M217.8,281.7
				c-9.1,0-15.9-7.5-15.9-16.3c0-4.4,1.5-8.4,4.6-11.5c2.8-3,7.3-5.1,11.3-5.1c9.2,0,16.2,7.5,16.2,16.5
				C234,274.7,227.1,281.7,217.8,281.7z"/>
			<polygon fill="#0072BB" points="321,218.4 321,219.3 321,232.2 336.1,232.2 336.1,218.4 			"/>
			<path fill="#0072BB" d="M469.9,270v23.7h15V270v-3.4c0-3.9,0.1-8.2,1.4-11.4c1.3-3.2,3.5-5.3,8.5-5.4c3.1,0,6.2,1.5,7.9,4.1
				c1.9,2.9,1.9,6.1,1.9,9.7v6.5v23.7h15V270v-3.4c0-0.6,0-1.2,0-1.9c0-3.7,0.2-7.9,2-10.6c1.8-2.9,5-4.4,8.4-4.4
				c2.9,0,6.1,1.4,7.5,3.7c1.7,2.4,1.9,6.9,1.8,10.1v6.5v23.7h15V270l0,0v-8.1c0-7.2-0.6-14-5.9-19.7C544,237,537.7,235,531,235
				c-6.2,0-12.6,2.2-16.8,7.1c-0.3,0.2-0.5,0.5-0.8,0.8c-0.2-0.3-0.4-0.5-0.6-0.7c-3.7-4.7-9.5-7.2-15.4-7.2c-4.5,0-10.2,1.3-13.6,5
				v-3.2h-13.9v0.9L469.9,270"/>
			<path fill="#0072BB" d="M438.4,270v23.7h15V270v-6.9c0-0.6,0-1.1,0-1.6c0-3.9,0.5-6.9,3.5-9.4c2-1.5,5-2.4,7.5-2.4h0.9V235h-1.9
				c-4.8,0-8.3,1.6-11.2,5v-3.2h-13.8v0.9L438.4,270"/>
			<path fill="#0072BB" d="M364.8,232.9c1-0.7,2.9-0.8,5.6-0.8h0.9v-14.9l-4.4-0.3c-11.5,0-18.3,9.4-18.9,19.8l0,13.5V270v23.7h15
				V270v-19.7h7.7v-13.5H363C363.3,234.5,363.9,233.5,364.8,232.9z"/>
			<polyline fill="#0072BB" points="321,270 321,293.8 336.1,293.8 336.1,270 336.1,236.8 321,236.8 321,237.7 321,270 			"/>
			<polygon fill="#0072BB" points="183.1,292.9 183.1,199.9 168.9,199.9 122.4,261.7 122.4,199.9 108,199.9 34.3,292.9 56.3,292.9 
				106.4,229.5 106.4,293 119.3,293 167.1,229.7 167.1,292.9 			"/>
		</g>
		<g>
			<path fill="#0072BB" d="M555.5,213.7c2.2-0.2,4.1-1.5,4-4.1c0-1.6-0.7-2.7-1.7-3.3c-1-0.6-2.3-0.8-3.6-0.8h-6.4v14.6h2.8v-6.4
				h1.7l4.1,6.4h3.3l-0.4-0.6L555.5,213.7z M552.5,211h-1.9v-2.8h3.3c0.7,0,1.5,0.1,2.1,0.3c0.6,0.2,0.8,0.5,0.9,1
				c0,0.7-0.3,1-0.8,1.2c-0.5,0.2-1.4,0.3-2.2,0.3C553.3,211,552.9,211,552.5,211z"/>
			<path fill="#0072BB" d="M552.9,199.9c-7.3,0-13.1,5.8-13.1,13c0,7.2,5.8,13,13.1,13c7.3,0,13.1-5.8,13.1-13
				C566,205.7,560.2,199.9,552.9,199.9z M552.9,223.2c-5.6,0-10.3-4.5-10.3-10.3c0-5.7,4.8-10.3,10.3-10.3c5.6,0,10.3,4.5,10.3,10.3
				S558.5,223.1,552.9,223.2z"/>
		</g>
	</g>
</g>
</svg>
