<?xml version="1.0" encoding="UTF-8" standalone="yes"?>
<svg version="1.2" viewBox="0 0 101 101" baseProfile="tiny-ps" xmlns="http://www.w3.org/2000/svg">
  <title>Flo Health UK Limited</title>
  <rect width="101" height="101" fill="#FF5A7D"/>
  <path d="M29.3,59.7c0.4,0.6,0.7,0.9,0.7,0.9c-0.2-0.2-2-5.1-1.9-10.9c0.1-0.1,0.1-0.2,0.2-0.2c0.6,6.4,3.1,11,3.1,11&#xD;&#xA;&#x9;c-0.2-0.2,0-5.3,0.5-12c1.1-2.8,4.8-6.8,7.4-10.9c-0.3,1-2.3,9.8-0.9,16.1c-0.7-8.7,4.1-42.5,28.2-31.2c13.3,6.3,17.4,30.3,3.6,41.2&#xD;&#xA;&#x9;c-7.3,5.7-21.2,3.5-21.4,3.5c0.6,0.1,7.7,1.8,15.6,1c-4.3,4.8-17.6,8.1-26.3,3.9c3.5,4.4,7.6,4.4,10.4,4.6c-5.8,1.3-12-3.2-12-3.2&#xD;&#xA;&#x9;s1.6,2.6,1.1,5.4c-0.6,2.9-3.4,2.6-3.4,2.6s4-0.8,2.8-5.3c-1.5-5.3-9.7-4.3-9.7-4.3s7.1-1.1,15.6-5.9c14.4-8.1,17.7-19,17.7-19&#xD;&#xA;&#x9;s-6.9,12-22.1,18.7c-9.9,4.4-16.3,4.8-20.2,4.3c-0.8-0.1,9-0.7,10.3-5.5c1.1-3.8-1-6-2.9-6.4c-1.4-0.3-2.6,0.6-2.6,0.6&#xD;&#xA;&#x9;S25.3,55.2,29.3,59.7z" fill="#FFFFFF"/>
</svg>