<?xml version="1.0"?><svg version="1.2" baseProfile="tiny-ps" viewBox="0 0 300 300" xmlns="http://www.w3.org/2000/svg" xmlns:xlink="http://www.w3.org/1999/xlink"><title>AOC Trusted Solutions</title><g><g fill="#fdfefe" transform="matrix(.1 0 0 -.1 0 300)"><path d="M0 1500V0h3000v3000H0V1500z"/></g><g fill="#99bfe5" transform="matrix(.1 0 0 -.1 0 300)"><path d="M1340 2274c-72-19-135-57-190-114l-45-47-32-59c-17-32-38-87-47-120l-16-62v-148l15-57c8-31 28-83 44-115l29-58 47-52 47-52 76-37 76-38h181l68 32 67 32 53 53 52 53 32 61 32 61 16 64 15 64v62c0 86-16 156-55 239l-34 70-51 52c-63 64-117 96-195 116-72 19-113 19-185 0zm208-163c23-12 58-38 78-58l37-36 26-56 26-56v-220l-28-52c-15-29-41-68-57-87l-31-35-51-25-52-26h-121l-50 24-50 23-39 43c-46 51-73 108-87 186l-10 56 11 67 11 67 33 60 33 59 48 37 49 37 35 10 36 10 56-3 55-4 42-21zm672 164c-73-21-129-55-190-117l-50-51-30-61c-16-34-36-88-45-121l-15-59v-131l15-64 16-64 32-61 32-60 52-53 52-53 66-32 67-31 67-5 67-4 60 17c32 9 75 26 94 38 47 29 110 87 110 101-1 6-20 32-44 58l-43 47-29-31-29-31-50-23-50-24h-120l-41 19c-23 11-59 35-81 54l-39 36-27 54-26 54-10 61-10 62 9 55c11 67 40 134 79 184l30 37 53 29 53 30h140l36-18c20-10 55-34 77-53l40-34 41 47c23 27 41 54 41 60 0 7-26 33-57 58l-58 45-54 21-55 20-60 5-61 4-55-15zM491 1808c-85-260-157-476-159-480l-3-8h148l13 43c7 23 21 66 32 95l20 53 25 17 26 16 116 7c64 4 125 10 136 14l20 6 41-123 40-123 72-3 72-3-1 8c0 4-69 219-152 478l-152 470-70 3-70 3-154-473zm269 86c28-81 50-154 50-160v-12l-31-11-32-11H598l4 13c3 6 27 85 54 174 26 89 50 161 51 159 2-2 26-70 53-152zm-430-754v-30h2281l-3 28-3 27-1137 3-1138 2v-30zm1120-182c-13-7-31-26-40-41l-15-27 15-27 15-28 50-17 50-16v-37l-28-3-28-3-23 14-22 15-18-13-18-13 21-21c11-11 32-23 46-27l25-6 34 6c39 7 52 20 61 59l7 27-16 25-16 24-48 14-47 14v38l23 3 24 4 17-16 18-16 17 6c36 14 3 59-50 69l-29 6-25-13zM330 935v-25h60V709l18 3 17 3 3 97 3 97 27 3 27 3 3 23 3 22H330v-25zm910-8v-34h-62l-19-24-19-24v-82l21-26 20-27 52 3 52 2 3 123 3 122h-51v-33zm-2-123 3-41-18-7-17-7-13 17c-14 19-16 43-7 69l7 16 21-3 21-3 3-41zm532 30V709l18 3 17 3 3 123 3 122h-41V834zm320 101v-25h40v50h-40v-25zM900 920v-30h-10c-5 0-10-7-10-15s5-15 10-15h10V731l21-11 21-12 14 6 14 5v41l-12-2-13-3-3 53-3 52h31v30h-30v60h-40v-30zm1110 0v-30h-30v-30h30V732l15-12 14-12 18 4 18 3 3 23 3 22-13-2-13-3-3 53-3 52h31v30h-30v60h-40v-30zM772 888l-22-11-7-25-6-25 10-16 10-16 36-9c39-10 47-23 21-33l-17-6-20 12-20 13-14-15-15-15 25-17 26-16 32 3 32 3 20 27 20 27-16 25-17 25-35 7-35 6v9c0 5 7 12 15 16l16 5 18-16 18-17 13 16 13 16-14 14c-8 7-25 16-39 19l-25 5-23-11zm251 2c-12-5-27-19-34-31l-11-22v-41l1-41 26-22 26-23h46l28 22 28 21-18 14-18 13-13-11-13-11-22 4-22 3-5 13-4 12h115l-7 32c-7 36-30 63-61 71l-20 6-22-9zm41-36c9-3 16-10 16-15v-9h-62l12 15c14 17 13 17 34 9zm580 36c-12-5-29-19-38-32l-16-22v-29c0-35 24-82 45-91 9-3 27-6 39-6h23l24 26 24 26v87l-20 20c-11 10-29 21-40 24l-20 6-21-9zm54-81 3-36-14-12-14-11-17 6-16 6-6 23-6 23 12 22 11 21 22-3 22-3 3-36zm502 78c-29-15-50-51-50-89v-26l26-31 26-31h23c13 0 31 3 40 6 22 9 45 56 45 93v30l-22 25c-13 13-32 27-43 30l-20 6-25-13zm60-57 10-20-6-24-6-25-15-5-16-6-12 10c-18 15-23 42-14 68l8 22h40l11-20zm132 61-13-8-25 5-24 4V709l18 3 17 3 5 62c3 34 8 65 12 68l7 7 15-5 15-6 3-63 3-63 18-3 17-3v160l-22 15c-26 18-28 19-46 7zm133-1c-12-4-27-15-34-24l-13-16 6-23 6-24 25-11c14-7 32-12 40-12h15v-30h-23c-13 0-28 5-33 10l-11 11-12-15-13-15 6-10c4-6 22-13 40-17l34-6 21 7c12 3 26 15 32 27l11 20-6 24-6 23-40 12-40 12v27h14c8 0 21-7 29-15l15-14 13 15 12 15-14 13c-8 8-23 16-34 19l-20 6-20-9zM482 802l3-87h30l3 40c1 22 5 50 7 62l5 22 20 6 20 6v37h-91l3-86zm98 14v-75l16-15 15-16h48l7 11 7 11 7-12 8-13 16 6 16 6v171h-40v-49c0-27-3-56-6-65l-6-16h-48v130h-40v-74zm1250 7v-69l15-21 15-21 55 1 55 1v176h-39l-3-62-3-63-22-3-22-3-3 63-3 63-22 3-23 3v-68zm262-20 3-88 18-3 17-3v181h-41l3-87z"/></g><g fill="#fd7975" transform="matrix(.1 0 0 -.1 0 300)"><path d="M495 1809c-85-259-155-475-155-480v-9h128l28 83 27 82 33 33 32 32h75c70 0 152 11 189 25l16 6 43-130 43-131h133l-99 308c-54 169-124 385-154 480l-55 172H651l-156-471zm274 81c28-85 51-158 51-161 0-4-12-11-27-17l-28-11-86-3-87-3 14 45c8 25 33 107 56 183l41 138 7-8c4-4 31-78 59-163zm554 376c-138-45-240-159-289-321l-18-60 1-95v-95l22-64c27-78 74-152 132-208l44-42 52-26 53-26 57-9 58-10 60 11 60 11 57 30 57 31 50 52 49 52 25 49c14 28 33 77 43 109l18 60v170l-22 70-21 71-39 60-39 60-44 37c-24 21-68 50-98 64l-54 27-86 3-86 3-42-14zm235-155 38-20 38-42 38-42 27-56 26-56v-190l-31-65-31-65-37-38c-20-20-56-47-79-59l-42-22-70-1h-70l-55 31-55 31-38 49-37 49-21 68-22 69 5 72 5 72 27 60 27 59 37 38c45 47 103 79 157 87l40 6 42-8c23-4 60-16 81-27zm647 155c-58-19-94-39-144-82l-44-38-39-60-39-60-21-71-22-70v-170l18-60c10-33 31-86 48-117l31-57 52-50 52-49 50-26 51-25 61-10 61-10 54 9c29 5 70 16 91 25 44 18 141 89 148 109l5 12-42 48-41 48-35-32c-44-42-95-67-152-75l-46-7-57 17-58 16-52 50-53 50-28 62-29 62v190l26 56 27 56 38 43 39 43 50 23 50 24h120l45-21c25-11 61-35 80-54l35-33 44 50 44 49-39 40-39 40-65 32-64 32-86 2-85 3-40-14zM330 1140v-30h2281l-3 28-3 27-1137 3-1138 2v-30zm0-200v-20h60V720h40v200h50v40H330v-20zm920-19v-40l-33 6-32 5-20-22-20-22v-97l16-17 17-16 28 1c16 0 39 0 52 1h22v240h-30v-39zm-4-98 7-24-12-25-11-24h-13c-7 0-18 5-25 12l-12 12v65l17 9c23 14 42 4 49-25zm184 117-20-20v-27c0-40 11-52 66-71l49-18 3-22 3-21-26-7-27-7-28 21-28 21-13-15-12-15 22-22 22-22h87l21 19 21 19v77l-32 14c-18 8-46 19-61 25l-28 11 3 18 3 17 28 3 29 3 17-16 18-16 14 17 13 16-23 19-23 19h-78l-20-20zm340-100V720h30v240h-30V840zM907 943c-4-3-7-17-7-30v-23h-10c-5 0-10-7-10-15s5-15 10-15h10V759l10-20 11-19h49v30h-30v110h30v30h-30v60h-13c-8 0-17-3-20-7zm1103-23v-30h-10c-5 0-10-7-10-15s4-15 10-15h9l3-67 3-68 33-3 32-3v29l-20 5-20 5v102h40v11c0 6-9 13-20 16l-20 5v58h-30v-30zm90 15v-15h30v30h-30v-15zM487 883c-4-3-7-42-7-85v-78h40v110l20 12 20 13v17c0 20-11 23-27 7l-11-11-6 11c-8 12-20 14-29 4zm93-58v-66l10-20 11-19 54 1 55 2v167h-30V772l-15-12-15-12-14 5-15 6-3 63-3 63-17 3-18 3v-66zm174 40-16-24 7-20 6-21 40-10 39-11v-31l-42 4-41 3-4-12-4-11 34-11 34-12 26 10 26 10 7 26c3 14 4 31 1 39l-6 15-40 11-41 11v29h23c13 0 28-5 34-11l11-11 7 12 7 11-12 14-12 15h-68l-16-25zm247-1-21-27v-73l15-21 15-21 25-6 25-6 30 15c47 24 34 56-14 34l-25-12-16 13c-8 7-15 19-15 26v14h100v50l-20 20-20 20h-59l-20-26zm78-17 11-14-7-6c-3-4-19-7-35-7h-28v13c0 29 39 38 59 14zm549 33-16-10-12-34-11-34 6-25c4-14 15-33 26-43l19-17h63l19 22 18 23v85l-23 21-23 22h-25c-13 0-32-5-41-10zm72-52 14-26-12-26-12-26h-18c-10 0-23 5-30 12l-12 12v65l18 10c23 14 34 9 52-21zm140-12v-74l13-10 13-11 52 1 52 1v167h-28l-4-60-4-60-12-12-13-13-17 11-17 11-3 62-3 61h-29v-74zm260-11v-85h30v170h-30v-85zm80 65-20-20v-41c0-50 14-77 46-89l24-10 25 10 26 10 15 36 15 36-11 34-12 34-18 10c-10 6-30 10-44 10h-26l-20-20zm74-26 16-15v-55l-12-12c-7-7-20-12-30-12h-17l-11 19c-5 11-10 29-10 40 0 20 24 51 40 51 5 0 16-7 24-16zm76-41v-83h39l3 63 3 62 21 3 21 3 7-23c3-13 6-42 6-65v-43h30v131l-10 19-10 18-55-1-55-1v-83zm178 76-18-10v-58l13-8c6-4 26-12 42-18l30-10-3-10-3-10h-79l-1-10c-1-5 9-16 22-23l24-12 25 6c14 3 31 10 38 16l13 11-3 31-3 31-42 13c-45 15-54 28-27 39l17 6 20-12 20-13 8 14 9 13-17 13c-20 14-61 15-85 1z"/></g><g fill="#0c84e1" transform="matrix(.1 0 0 -.1 0 300)"><path d="M495 1809c-85-259-155-475-155-480v-9h128l28 83 27 82 33 33 32 32h75c70 0 152 11 189 25l16 6 43-130 43-131h133l-99 308c-54 169-124 385-154 480l-55 172H651l-156-471zm274 81c28-85 51-158 51-161 0-4-12-11-27-17l-28-11-86-3-87-3 14 45c8 25 33 107 56 183l41 138 7-8c4-4 31-78 59-163zm554 376c-138-45-240-159-289-321l-18-60 1-95v-95l22-64c27-78 74-152 132-208l44-42 52-26 53-26 57-9 58-10 60 11 60 11 57 30 57 31 50 52 49 52 25 49c14 28 33 77 43 109l18 60v170l-22 70-21 71-39 60-39 60-44 37c-24 21-68 50-98 64l-54 27-86 3-86 3-42-14zm235-155 38-20 38-42 38-42 27-56 26-56v-190l-31-65-31-65-37-38c-20-20-56-47-79-59l-42-22-70-1h-70l-55 31-55 31-38 49-37 49-21 68-22 69 5 72 5 72 27 60 27 59 37 38c45 47 103 79 157 87l40 6 42-8c23-4 60-16 81-27zm647 155c-58-19-94-39-144-82l-44-38-39-60-39-60-21-71-22-70v-170l18-60c10-33 31-86 48-117l31-57 52-50 52-49 50-26 51-25 61-10 61-10 54 9c29 5 70 16 91 25 44 18 141 89 148 109l5 12-42 48-41 48-35-32c-44-42-95-67-152-75l-46-7-57 17-58 16-52 50-53 50-28 62-29 62v190l26 56 27 56 38 43 39 43 50 23 50 24h120l45-21c25-11 61-35 80-54l35-33 44 50 44 49-39 40-39 40-65 32-64 32-86 2-85 3-40-14zM340 1140v-20h2260v40H340v-20zm-10-200v-20h60V720h40v200h50v40H330v-20zm920-19v-40l-33 6-32 5-20-22-20-22v-97l16-17 17-16 28 1c16 0 39 0 52 1h22v240h-30v-39zm-4-98 7-24-12-25-11-24h-13c-7 0-18 5-25 12l-12 12v65l17 9c23 14 42 4 49-25zm184 117-20-20v-27c0-40 11-52 66-71l49-18 3-22 3-21-26-7-27-7-28 21-28 21-13-15-12-15 22-22 22-22h87l21 19 21 19v77l-32 14c-18 8-46 19-61 25l-28 11 3 18 3 17 28 3 29 3 17-16 18-16 14 17 13 16-23 19-23 19h-78l-20-20zm340-100V720h30v240h-30V840zM907 943c-4-3-7-17-7-30v-23h-10c-5 0-10-7-10-15s5-15 10-15h10V759l10-20 11-19h49v30h-30v110h30v30h-30v60h-13c-8 0-17-3-20-7zm1103-23v-30h-10c-5 0-10-7-10-15s4-15 10-15h9l3-67 3-68 33-3 32-3v29l-20 5-20 5v102h40v11c0 6-9 13-20 16l-20 5v58h-30v-30zm90 15v-15h30v30h-30v-15zM487 883c-4-3-7-42-7-85v-78h40v110l20 12 20 13v17c0 20-11 23-27 7l-11-11-6 11c-8 12-20 14-29 4zm93-58v-66l10-20 11-19 54 1 55 2v167h-30V772l-15-12-15-12-14 5-15 6-3 63-3 63-17 3-18 3v-66zm174 40-16-24 7-20 6-21 40-10 39-11v-31l-42 4-41 3-4-12-4-11 34-11 34-12 26 10 26 10 7 26c3 14 4 31 1 39l-6 15-40 11-41 11v29h23c13 0 28-5 34-11l11-11 7 12 7 11-12 14-12 15h-68l-16-25zm247-1-21-27v-73l15-21 15-21 25-6 25-6 30 15c47 24 34 56-14 34l-25-12-16 13c-8 7-15 19-15 26v14h100v50l-20 20-20 20h-59l-20-26zm78-17 11-14-7-6c-3-4-19-7-35-7h-28v13c0 29 39 38 59 14zm549 33-16-10-12-34-11-34 6-25c4-14 15-33 26-43l19-17h63l19 22 18 23v85l-23 21-23 22h-25c-13 0-32-5-41-10zm72-52 14-26-12-26-12-26h-18c-10 0-23 5-30 12l-12 12v65l18 10c23 14 34 9 52-21zm140-12v-74l13-10 13-11 52 1 52 1v167h-28l-4-60-4-60-12-12-13-13-17 11-17 11-3 62-3 61h-29v-74zm260-11v-85h30v170h-30v-85zm80 65-20-20v-41c0-50 14-77 46-89l24-10 25 10 26 10 15 36 15 36-11 34-12 34-18 10c-10 6-30 10-44 10h-26l-20-20zm74-26 16-15v-55l-12-12c-7-7-20-12-30-12h-17l-11 19c-5 11-10 29-10 40 0 20 24 51 40 51 5 0 16-7 24-16zm76-41v-83h39l3 63 3 62 21 3 21 3 7-23c3-13 6-42 6-65v-43h30v131l-10 19-10 18-55-1-55-1v-83zm178 76-18-10v-58l13-8c6-4 26-12 42-18l30-10-3-10-3-10h-79l-1-10c-1-5 9-16 22-23l24-12 25 6c14 3 31 10 38 16l13 11-3 31-3 31-42 13c-45 15-54 28-27 39l17 6 20-12 20-13 8 14 9 13-17 13c-20 14-61 15-85 1z"/></g><g fill="#ff0400" transform="matrix(.1 0 0 -.1 0 300)"><path d="M496 1806c-86-261-156-477-156-480s13-6 28-6h28l31 53c48 79 68 131 117 310 68 246 110 348 203 488l45 67-7 21-6 21H652l-156-474zm1709 458c-27-9-74-32-103-52l-54-35-38-48c-45-57-77-121-96-192l-14-52v-171l15-59c21-77 59-147 118-212l49-53 62-30 62-31 93 45c52 24 140 59 196 77l103 33-31 38-30 37-34-29c-18-17-53-40-76-52l-42-22-70-1h-70l-54 30-53 29-29 36c-17 19-42 60-57 90l-27 55v200l28 60 28 60 37 38 37 39 50 25 49 26h121l45-20c25-12 61-35 80-53l34-33 44 49 44 49-46 42-47 42-57 27-57 27-80 4-80 3-50-16zm-485-163c0-93 38-316 82-476l11-40 14 40 15 40 5 98 6 99-13 56c-14 66-59 164-95 207l-25 30v-54zM340 1140v-20h2260v40H340v-20zm-3-187c-4-3-7-12-7-20v-13h60V720h30v200h60v40h-68c-38 0-72-3-75-7zm913-32v-38l-37 1-38 1-19-39-19-39 14-41 14-41 58-2 57-1v238h-30v-39zm-10-80c23-44 6-91-32-91h-18l-10 25-9 25 6 17c16 46 45 56 63 24zm190 99-20-20v-57l18-16c9-8 36-20 58-26l42-11 6-15 5-14-15-16c-20-20-48-19-80 1l-25 17-11-11-11-11 12-15c7-8 28-20 47-26l34-12 38 19 37 18 3 36 3 37-16 16c-9 9-36 21-60 27l-44 11-5 14-5 13 15 16c20 20 36 19 67-5l25-20 11 14 12 14-27 21-27 21h-67l-20-20zm340-100V720h30v240h-30V840zm-860 80v-31l-15-5c-19-8-20-24 0-24h14l3-67 3-68 28-3 27-3v31h-30v110h15c8 0 15 5 15 10 0 6-7 10-15 10h-15v70h-30v-30zm1100-4v-34l-12-6-13-6 13-6 12-6v-53c0-29 3-60 6-69l6-16h48v14c0 8-7 16-15 20l-15 5v101h15c8 0 15 4 15 9s-7 11-15 15l-15 5v61h-30v-34zm90 19v-15h30v30h-30v-15zM535 880l-7-11-19 6-19 6V720h20v91l25 25c25 25 33 54 16 54-6 0-13-5-16-10zm233-2c-8-7-18-20-21-29l-5-17 14-21 15-21h18c9 0 25-6 35-13l18-13-16-13-17-14-25 12-25 11-10-6-10-6 12-14 11-14h77l15 16c32 32 17 68-34 81l-35 9-3 17-3 17h23c13 0 29-5 35-11l11-11 7 13 8 12-18 14c-23 16-56 17-77 1zm233-14-21-27v-29c0-31 16-68 34-80 6-4 25-8 43-8h32l16 16 16 17-10 10-11 11-12-12c-7-7-20-12-29-12-19 0-49 25-49 41v9h110v16c0 19-19 56-34 66-6 4-23 8-38 8h-27l-20-26zm77-16c7-7 12-16 12-20v-8h-70v13c0 28 36 37 58 15zm542 22-20-20v-86l16-22 15-22h69l20 20 20 20v81l-25 24-24 25h-51l-20-20zm75-26 16-17-3-30-3-30-17-11-18-11-17 11-18 11-3 32-3 32 12 15c15 18 34 18 54-2zm486 20-21-27v-73l16-22 15-22h78l15 22 16 22v83l-23 21-23 22h-53l-20-26zm79-24 11-21-3-26-3-26-17-11-18-11-17 11-18 11-3 32-3 32 12 15c6 8 20 14 30 14h18l11-20zm121 41-13-9-19 5-19 5V720h30v98l19 23 19 23 16-13 16-13V720h32l-4 76-3 75-15 9c-19 12-41 12-59 1zm125-4-18-13 4-29 3-30 43-13c45-15 50-23 27-42l-16-13-25 12-25 11-11-6-11-7 18-14 19-13h72l12 12 12 12v55l-12 7c-6 4-25 10-42 13l-31 7-3 17-3 17h50l6-10 7-11 14 12 14 12-17 13c-23 17-64 18-87 1zM580 826c0-30 4-66 10-80l9-25 56 1 55 2v156h-30V772l-16-13-16-13-16 11-17 10-3 57-3 56h-29v-54zm1260-15v-69l13-10 13-11 52 1 52 1v157h-30v-96l-13-18-13-18-20 4-19 3-3 63-3 62h-29v-69zm260-11v-80h30v160h-30v-80z"/></g><g fill="#0451bd" transform="matrix(.1 0 0 -.1 0 300)"><path d="M496 1806c-86-261-156-477-156-480s13-6 28-6h28l31 53c48 79 68 131 117 310 68 246 110 348 203 488l45 67-7 21-6 21H652l-156-474zm1709 458c-27-9-74-32-103-52l-54-35-38-48c-45-57-77-121-96-192l-14-52v-171l15-59c21-77 59-147 118-212l49-53 62-30 62-31 93 45c52 24 140 59 196 77l103 33-31 38-30 37-34-29c-18-17-53-40-76-52l-42-22-70-1h-70l-54 30-53 29-29 36c-17 19-42 60-57 90l-27 55v200l28 60 28 60 37 38 37 39 50 25 49 26h121l45-20c25-12 61-35 80-53l34-33 44 49 44 49-46 42-47 42-57 27-57 27-80 4-80 3-50-16zm-485-163c0-93 38-316 82-476l11-40 14 40 15 40 5 98 6 99-13 56c-14 66-59 164-95 207l-25 30v-54zM337 953c-4-3-7-12-7-20v-13h60V720h30v200h60v40h-68c-38 0-72-3-75-7zm913-32v-38l-37 1-38 1-19-39-19-39 14-41 14-41 58-2 57-1v238h-30v-39zm-10-80c23-44 6-91-32-91h-18l-10 25-9 25 6 17c16 46 45 56 63 24zm190 99-20-20v-57l18-16c9-8 36-20 58-26l42-11 6-15 5-14-15-16c-20-20-48-19-80 1l-25 17-11-11-11-11 12-15c7-8 28-20 47-26l34-12 38 19 37 18 3 36 3 37-16 16c-9 9-36 21-60 27l-44 11-5 14-5 13 15 16c20 20 36 19 67-5l25-20 11 14 12 14-27 21-27 21h-67l-20-20zm340-100V720h30v240h-30V840zm-860 80v-31l-15-5c-19-8-20-24 0-24h14l3-67 3-68 28-3 27-3v31h-30v110h15c8 0 15 5 15 10 0 6-7 10-15 10h-15v70h-30v-30zm1100-4v-34l-12-6-13-6 13-6 12-6v-53c0-29 3-60 6-69l6-16h48v14c0 8-7 16-15 20l-15 5v101h15c8 0 15 4 15 9s-7 11-15 15l-15 5v61h-30v-34zm90 19v-15h30v30h-30v-15zM535 880l-7-11-19 6-19 6V720h20v91l25 25c25 25 33 54 16 54-6 0-13-5-16-10zm233-2c-8-7-18-20-21-29l-5-17 14-21 15-21h18c9 0 25-6 35-13l18-13-16-13-17-14-25 12-25 11-10-6-10-6 12-14 11-14h77l15 16c32 32 17 68-34 81l-35 9-3 17-3 17h23c13 0 29-5 35-11l11-11 7 13 8 12-18 14c-23 16-56 17-77 1zm233-14-21-27v-29c0-31 16-68 34-80 6-4 25-8 43-8h32l16 16 16 17-10 10-11 11-12-12c-7-7-20-12-29-12-19 0-49 25-49 41v9h110v16c0 19-19 56-34 66-6 4-23 8-38 8h-27l-20-26zm77-16c7-7 12-16 12-20v-8h-70v13c0 28 36 37 58 15zm542 22-20-20v-86l16-22 15-22h69l20 20 20 20v81l-25 24-24 25h-51l-20-20zm75-26 16-17-3-30-3-30-17-11-18-11-17 11-18 11-3 32-3 32 12 15c15 18 34 18 54-2zm486 20-21-27v-73l16-22 15-22h78l15 22 16 22v83l-23 21-23 22h-53l-20-26zm79-24 11-21-3-26-3-26-17-11-18-11-17 11-18 11-3 32-3 32 12 15c6 8 20 14 30 14h18l11-20zm121 41-13-9-19 5-19 5V720h30v98l19 23 19 23 16-13 16-13V720h32l-4 76-3 75-15 9c-19 12-41 12-59 1zm125-4-18-13 4-29 3-30 43-13c45-15 50-23 27-42l-16-13-25 12-25 11-11-6-11-7 18-14 19-13h72l12 12 12 12v55l-12 7c-6 4-25 10-42 13l-31 7-3 17-3 17h50l6-10 7-11 14 12 14 12-17 13c-23 17-64 18-87 1zM580 826c0-30 4-66 10-80l9-25 56 1 55 2v156h-30V772l-16-13-16-13-16 11-17 10-3 57-3 56h-29v-54zm1260-15v-69l13-10 13-11 52 1 52 1v157h-30v-96l-13-18-13-18-20 4-19 3-3 63-3 62h-29v-69zm260-11v-80h30v160h-30v-80z"/></g></g></svg>