<?xml version="1.0" encoding="UTF-8" standalone="yes"?>
<svg version="1.2" baseProfile="tiny-ps" viewBox="0 0 250 250" xml:space="preserve" xmlns="http://www.w3.org/2000/svg">
  <title>P2H</title>
  <path fill="#1A1A1A" stroke="#FFFFFF" stroke-width="2" d="M41.4,92h-0.8v0.8l0.2,63.9v0.8h0.8H55h0.8v-0.8v-20.4h15.3&#xA;&#x9;c5.6,0,10-1,13.1-2.8c3.2-2,5.3-4.5,6.3-7.8c1-3.2,1.5-7,1.5-11.6c0-4.8-0.5-8.8-1.5-11.9c-1.2-3.3-3.2-5.6-6.3-7.5&#xA;&#x9;c-3-1.8-7.5-2.7-12.9-2.7C71.3,92,41.4,92,41.4,92z M73.3,122.4L73.3,122.4L73.3,122.4c-1.3,0.5-3.6,0.7-7,0.8V123h-0.8h-10v-18&#xA;&#x9;h10.1c3.8,0,6.3,0.3,7.8,0.8s2.2,1.3,2.7,2.2c0.3,1.2,0.7,3.2,0.7,6.1c0,2.8-0.3,5-0.8,6.1C75.6,121.4,74.8,122,73.3,122.4z"/>
  <path fill="#1A1A1A" stroke="#FFFFFF" stroke-width="2" d="M145.8,145.4v-0.8H145h-32.3v-1.5c0-1.3,0.2-2.5,0.2-3.3&#xA;&#x9;c0.2-0.8,0.5-1.5,0.8-2l0,0l0,0c0.3-0.3,0.7-0.8,1.2-1c0.5-0.3,1.3-0.7,2.5-1.2l0,0l7.3-2.8l0,0l0,0c1.2-0.5,4.3-1.8,9.5-3.8l0,0&#xA;&#x9;l0,0c2.7-1.2,5-2.3,6.6-3.8c1.7-1.5,3.2-3.5,4-6s1.3-5.6,1.3-9.5c0-5-1-8.8-3-11.6l0,0l0,0c-2-2.7-4.8-4.5-8.1-5.3&#xA;&#x9;s-7.5-1.3-12.1-1.3c-3.6,0-7.5,0.2-11.8,0.5s-8,1-10.8,1.5l-0.7,0.2v0.7v10.5v1l1-0.2c3.2-0.5,6.5-0.8,9.8-1&#xA;&#x9;c3.5-0.2,6.3-0.3,8.3-0.3c3.6,0,6.3,0.2,8.1,0.5c1.7,0.3,2.7,0.8,3.3,1.7c0.7,0.8,1,2.2,1,4.3c0,1.8-0.2,3-0.3,3.6&#xA;&#x9;c-0.3,0.7-0.8,1.3-1.5,2c-0.8,0.7-2.3,1.3-4.5,2l0,0l0,0c-5.6,2.3-9.8,4-12.6,5.1l-2.2,0.8l0,0l0,0c-3.5,1.3-6.1,3-7.8,5&#xA;&#x9;c-1.7,2-2.7,4.3-3.2,7.1c-0.5,2.7-0.7,6.8-0.7,12.1v8.5v0.8h0.8h46.1h0.8v-1.2v-11.3L145.8,145.4L145.8,145.4z"/>
  <path fill="#1A1A1A" stroke="#FFFFFF" stroke-width="2" d="M195.2,156.7v0.8h0.8h13.4h0.8v-0.8V92.9V92h-0.8H196h-0.8v0.8v25h-23.9&#xA;&#x9;v-25V92h-0.8h-13.4h-0.8v0.8v63.9v0.8h0.8h13.4h0.8v-0.8v-25.4h23.9V156.7z"/>
</svg>