<?xml version="1.0" encoding="UTF-8"?>
<!-- Generator: Adobe Illustrator 25.1.0, SVG Export Plug-In . SVG Version: 6.00 Build 0) -->
<svg version="1.2" baseProfile="tiny-ps" id="Livello_1" xmlns="http://www.w3.org/2000/svg" xmlns:xlink="http://www.w3.org/1999/xlink" viewBox="0 0 252 252.001" xml:space="preserve">
    <title>Your Brand</title>
    <g>
        <circle cx="126" cy="126.001" r="120.817" fill="#FFFFFF" />
        <circle cx="126" cy="126.001" r="77.923" fill="#001B71" />
        <g>
            <g>
                <g>
                    <g>
                        <g>
                            <path d="M130.609,126.035c0-2.5-2.11-4.612-4.61-4.612c-2.502,0-4.612,2.111-4.612,4.612
							c0,2.5,2.11,4.612,4.612,4.612C128.499,130.646,130.609,128.535,130.609,126.035" fill="#474442" />
                            <path d="M181.975,124.084c-0.374-0.573-0.693-1.123-0.883-1.631c-0.396-1.007-0.851-2.751-0.316-4.306
							c0.664-1.935,2.482-4.978,3.094-6.672c1.389-3.853,0.735-10.195-2.498-14.304c-0.167-0.209-0.308-0.398-0.456-0.595
							l11.6-6.684c5.571,10.212,8.852,21.833,9.159,34.192H181.975z M180.407,155.192c1.231-0.221,2.391-0.154,3.228-0.54
							c1.789-0.827,1.698-2.636,4.351-4.291c0.759-0.472,2.454-0.868,2.407-2.176c-0.157-4.414-2.027-5.309-2.01-7.358
							c0.018-1.81,1.158-4.68,0.274-6.101c-0.44-0.696-1.63-0.357-2.442-0.886c-1.561-1.008-0.13-2.472-0.685-4.085
							c-0.195-0.566-0.512-1.161-0.888-1.768h17.031c-0.307,12.358-3.588,23.979-9.159,34.191L180.407,155.192z M139.05,143.886
							c0.078-0.133,0.188-0.262,0.37-0.388c1.851-1.281,2.719,1.826,5.722,4.82c1.833,1.844,4.266-1.225,5.772,0.207
							c2.296,2.19,2.908,4.215,8.085,6.364c2.412,0.991-2.73,5.019,1.24,6.212c1.709,0.504,4.729,0.42,5.565,1.257
							c0.882,0.892-1.001,2.323,1.662,3.143c1.694,0.51,4.364,0.476,6.259-1.383c1.883-1.854,0.452-4.003,2.834-6.636l13.996,8.077
							c-6.185,10.065-14.65,18.57-24.672,24.801L139.05,143.886z M128.26,152.368c0.906-0.466,1.299-1.215,1.632-1.504
							c2.299-1.984,5.312-1.051,7.417-2.184l25.21,43.665c-10.216,5.655-21.865,8.987-34.259,9.359V152.368z M149.064,82.181
							c-0.266-0.239-0.601-0.398-1.057-0.398c-2.107,0-1.709,2.512-2.842,2.512c-0.753,0-0.869-1.273-2.985-1.273
							c-0.942,0-2.943,0.175-4.159,0.721c-1.679,0.743-0.983,3.356-4.455,3.941c-1.217,0.21-2.086,0.426-2.995-0.106
							c-1.348-0.794-0.762-3.174-2.332-4.239c-0.098-0.067-0.193-0.112-0.288-0.167v-32.82c12.361,0.322,23.979,3.595,34.191,9.174
							L149.064,82.181z M168.738,89.846c-0.381-1.184,0.427-2.897-1.455-4.151c-1.887-1.267-5.317-1.331-6.392,2.463
							c-0.192,0.693-0.853,1.596-2.703,1.009c-1.945-0.62-2.465-0.736-3.059-2.481c-0.612-1.736-0.321-3.396-2.253-3.298
							l12.648-21.909c10.182,6.251,18.771,14.847,25.031,25.029l-12.559,7.256c-1.268-0.762-3.135-1.502-6.206-2.275
							C170.539,91.177,169.134,91.085,168.738,89.846 M123.531,132.349l-1.392,2.411l-1.765-1.021l1.397-2.421
							c-0.392-0.312-0.745-0.664-1.058-1.053l-2.418,1.396l-1.019-1.767l2.395-1.382c-0.169-0.43-0.294-0.878-0.372-1.344h-5.547
							v-2.265h5.543c0.076-0.469,0.196-0.921,0.363-1.351l-2.381-1.375l1.019-1.767l2.388,1.379
							c0.316-0.396,0.672-0.753,1.068-1.071l-1.378-2.386l1.765-1.019l1.366,2.366c0.434-0.171,0.888-0.293,1.361-0.371v-5.519
							h2.264v5.519c0.472,0.078,0.927,0.2,1.361,0.371l1.366-2.366l1.765,1.019l-1.378,2.386c0.395,0.318,0.752,0.675,1.067,1.071
							l2.388-1.379l1.019,1.767l-2.38,1.375c0.167,0.43,0.286,0.882,0.363,1.351h5.541v2.265h-5.547
							c-0.08,0.466-0.202,0.914-0.371,1.344l2.394,1.382l-1.019,1.767l-2.416-1.396c-0.315,0.389-0.666,0.741-1.058,1.053
							l1.397,2.421l-1.765,1.021l-1.393-2.411c-0.426,0.165-0.871,0.286-1.334,0.364v5.569h-2.264v-5.569
							C124.403,132.634,123.956,132.514,123.531,132.349 M75.248,157.59c-0.007,1.376-0.458,2.747,0.207,3.825
							c0.447,0.736,1.389,0.71,3.315,0.34c2.778-0.539,4.075,5.87,8.631,2.933c2.061-1.322,2.142-4.206,4.094-6.1
							c2.654-2.565,6.002-3.69,8.27-4.416c4.101-1.308,6.167-1.365,7.976-0.615c0.064,0.028,0.12,0.057,0.183,0.085l-21.368,36.999
							c-10.227-6.254-18.836-14.871-25.112-25.084L75.248,157.59z M64.242,127.986c0.097,0.573,0.217,1.156,0.463,1.68
							c0.588,1.214,2.407,2.131,1.901,3.256c-2.695,5.986,0.91,5.557,0.91,7.724c0,1.694-2.894,2.388,0.679,5.629
							c2.745,2.5,0.927,4.269,5.166,7.89l-13.878,8.011c-5.572-10.212-8.854-21.833-9.162-34.191H64.242z M74.005,98.268
							c-1.526,2.464-0.937,5.499-4.32,9.618c-3.986,4.861-3.507,8.763-5.541,8.392c-3.457-0.636-3.431,1.198-3.821,3.531
							c-0.288,1.728-0.35,3.342,0.277,4.276H50.322c0.308-12.359,3.59-23.981,9.162-34.192L74.005,98.268z M86.473,61.479
							l12.281,21.024c-2.778-0.392-3.601,0.937-4.613,3.802c-0.62,1.746,0.032,4.556-2.341,4.505
							c-3.637-0.073-5.456-0.536-7.813,1.555c-1.109,0.836-2.282,3.003-3.538,3.73c-0.805,0.466-1.778-0.932-3.241-0.48
							l-15.763-9.107C67.703,76.326,76.284,67.73,86.473,61.479 M108.064,82.42c-1.876-0.384-3.343,0.153-4.718,0.477l-13.49-23.372
							c10.213-5.579,21.834-8.854,34.194-9.174l-0.003,32.883c-1.088,0.479-2.089,1.088-3.025,1.06
							c-2.24-0.064-0.9-2.594-3.265-2.594c-1.373,0-1.96,1.992-3.541,2.388C112.007,84.644,110.396,82.891,108.064,82.42
							 M111.466,155.299c1.546,0.414,2.769-0.421,4.43-5.061c0.925-2.582,5.845-2.24,6.853-0.771
							c0.711,1.043,1.191,1.753,1.61,2.254v50.012c-12.44-0.272-24.139-3.548-34.415-9.143L111.466,155.299z M125.998,46.064
							c-44.005,0-79.805,35.801-79.805,79.807c0,44.006,35.801,79.805,79.805,79.805c44.006,0,79.807-35.799,79.807-79.805
							C205.805,81.865,170.004,46.064,125.998,46.064" fill="#AC1924" />
                        </g>
                        <g>
                            <path d="M188.377,140.775c0.014-1.813,1.148-4.686,0.266-6.104c-0.431-0.694-1.63-0.36-2.444-0.889
							c-1.555-1.012-0.132-2.477-0.68-4.084c-0.801-2.344-3.62-5.19-4.444-7.309c-0.391-1.008-0.851-2.748-0.316-4.311
							c0.662-1.933,2.492-4.98,3.102-6.675c1.389-3.854,0.731-10.196-2.506-14.305c-1.725-2.187-2.248-3.83-9.582-5.684
							c-1.25-0.316-2.652-0.405-3.053-1.644c-0.385-1.186,0.424-2.894-1.455-4.155c-1.884-1.264-5.32-1.33-6.395,2.47
							c-0.196,0.694-0.854,1.589-2.706,1.002c-1.943-0.615-2.458-0.736-3.063-2.477c-0.606-1.739-0.72-3.132-1.681-3.132
							c-0.946,0-0.853,2.036-2.46,2.036c-1.247,0-0.68-3.807-2.976-3.807c-2.11,0-1.712,2.512-2.846,2.512
							c-0.757,0-0.869-1.277-2.988-1.277c-0.945,0-2.941,0.179-4.159,0.72c-1.684,0.746-0.983,3.364-4.462,3.951
							c-1.21,0.204-2.075,0.42-2.985-0.111c-1.352-0.791-0.77-3.179-2.335-4.241c-2.866-1.943-5.202,1.016-7.225,0.958
							c-2.24-0.066-0.897-2.6-3.261-2.6c-1.379,0-1.967,1.991-3.541,2.388c-2.215,0.56-3.83-1.196-6.159-1.669
							c-3.062-0.624-5.047,1.228-7.311,0.538c-4.486-1.369-5.393-0.123-6.622,3.356c-0.616,1.744,0.038,4.557-2.338,4.508
							c-3.639-0.076-5.46-0.542-7.816,1.553c-1.112,0.834-2.282,2.999-3.541,3.73c-0.885,0.514-1.97-1.259-3.692-0.309
							c-5.247,2.892-2.468,6.495-7.077,12.109c-3.991,4.859-3.503,8.764-5.543,8.39c-3.458-0.633-3.433,1.197-3.822,3.532
							c-0.444,2.667-0.405,5.111,1.991,5.111c2.255,0,1.463,2.792,2.397,4.747c0.582,1.218,2.405,2.139,1.901,3.262
							c-2.695,5.984,0.904,5.558,0.904,7.724c0,1.694-2.897,2.387,0.676,5.634c2.871,2.608,0.757,4.403,5.711,8.35
							c2.691,2.143,0.396,4.91,1.555,6.794c0.455,0.738,1.394,0.713,3.319,0.34c2.779-0.539,4.084,5.87,8.637,2.94
							c2.062-1.326,2.135-4.218,4.098-6.11c2.652-2.559,6.002-3.685,8.268-4.411c4.102-1.313,6.17-1.372,7.98-0.615
							c3.846,1.609,5.389,4.396,8.156-3.325c0.927-2.586,5.853-2.246,6.854-0.769c1.835,2.703,2.176,3.3,3.735,3.3
							c2.297,0,2.916-1.469,3.419-1.904c2.521-2.185,5.935-0.795,8.033-2.562c2.926-2.464-0.115-3.696,1.49-4.808
							c1.854-1.285,2.723,1.824,5.719,4.82c1.844,1.844,4.269-1.225,5.776,0.209c2.306,2.194,2.916,4.221,8.095,6.366
							c2.407,0.998-2.726,5.025,1.24,6.212c1.709,0.51,4.724,0.423,5.565,1.264c0.886,0.886-1.004,2.323,1.662,3.136
							c1.698,0.517,4.371,0.48,6.261-1.38c2.209-2.174-0.172-4.746,4.403-8.035c1.968-1.417,4.157-0.808,5.52-1.438
							c1.785-0.823,1.693-2.633,4.351-4.287c0.762-0.475,2.45-0.869,2.402-2.174C190.22,143.718,188.359,142.819,188.377,140.775" fill="#FFFFFF" />
                            <path d="M125.998,130.646c-2.5,0-4.612-2.11-4.612-4.612c0-2.5,2.111-4.612,4.612-4.612
							c2.502,0,4.612,2.111,4.612,4.612C130.609,128.536,128.5,130.646,125.998,130.646 M138.244,127.168v-2.264h-5.541
							c-0.077-0.469-0.196-0.921-0.364-1.352l2.381-1.375l-1.019-1.765l-2.387,1.378c-0.318-0.396-0.673-0.753-1.068-1.071
							l1.378-2.386l-1.765-1.019l-1.366,2.366c-0.434-0.171-0.889-0.293-1.361-0.371v-5.519h-2.264v5.519
							c-0.472,0.078-0.928,0.2-1.361,0.371l-1.366-2.366l-1.765,1.019l1.376,2.386c-0.395,0.318-0.75,0.675-1.067,1.072l-2.39-1.379
							l-1.018,1.765l2.381,1.375c-0.168,0.431-0.287,0.883-0.363,1.352h-5.543v2.264h5.547c0.08,0.465,0.203,0.914,0.372,1.344
							l-2.395,1.382l1.018,1.767l2.419-1.396c0.314,0.389,0.666,0.741,1.058,1.054l-1.397,2.419l1.765,1.021l1.392-2.411
							c0.427,0.165,0.872,0.286,1.336,0.364v5.569h2.264v-5.569c0.463-0.078,0.909-0.197,1.334-0.364l1.393,2.411l1.765-1.021
							l-1.399-2.419c0.392-0.314,0.745-0.665,1.06-1.054l2.416,1.396l1.019-1.767l-2.395-1.382c0.171-0.428,0.291-0.879,0.372-1.344
							H138.244z" fill="#AC1924" />
                            <path d="M126,242.298C61.771,242.298,9.702,190.229,9.702,126S61.771,9.702,126,9.702S242.298,61.771,242.298,126
							S190.229,242.298,126,242.298 M126,0C57.947,0,0,57.947,0,126s57.947,126.001,126,126.001S252,194.052,252,126
							S194.052,0,126,0" fill="#AC1924" />
                        </g>
                        <g>
                            <path d="M163.314,130.595c-0.371,0.371-2.498-0.216-3.603,0.738c-0.094,0.081-0.187,0.166-0.276,0.263
							c-0.184,0.201-0.347,0.44-0.501,0.701c-0.297,0.502-0.696,0.954-1.111,1.342c-0.252,0.235-0.487,0.494-0.759,0.716
							c-0.599,0.494-1.27,0.746-1.97,0.694c-0.597-0.044-1.233-0.289-1.739-0.845c-1.103-1.21-1.217-2.023-1.864-2.919
							c-0.58-0.803-1.248-1.221-1.703-1.562c-0.698-0.524-0.872-1.527,0-2.836c0.89-1.336,2.232-0.601,3.466-0.46
							c0.086,0.01,0.169,0.005,0.255,0.01c0.174,0.01,0.345,0.056,0.506,0.027c0.039-0.007,0.079-0.006,0.118-0.011
							c0.016-0.002,0.032-0.004,0.047-0.007c1.404-0.244,3.145-0.201,3.898-0.431c0.759-0.231,1.527-0.873,3.491,0.654
							C163.532,128.195,163.751,130.159,163.314,130.595" fill="#009ACA" />
                            <path d="M103.093,104.046c-0.133,0.153-1.183,1.331-1.383,1.4c-0.096,0.087-0.203,0.169-0.329,0.218
							c-0.104,0.04-0.9,0.43-1.007,0.47c-0.351,0.131-0.592,0.435-0.697,0.739c-0.079,0.031-0.155,0.644-0.228,0.686
							c-0.363,0.544-0.714,1.054-1.212,1.392c-0.12,0.082-0.72,0.286-0.948,0.31c-0.001,0.002-0.002,0.006-0.003,0.007
							c0,0-0.603,0.14-1.031,0.474c-0.288,0.225-0.778,0.225-0.99,0.175c-0.094-0.046-0.511,0.007-0.579-0.077
							c-0.051-0.011-0.102-0.027-0.151-0.047c-0.103,0.017-0.359-0.215-0.444-0.266c-0.212-0.127-0.384-0.339-0.54-0.524
							c-0.111-0.131-0.258-0.237-0.428-0.305c-0.049-0.007-0.215-0.087-0.266-0.084l-0.497-0.151
							c-0.404-0.075-0.767-0.268-1.049-0.541c-0.054-0.033-0.162-0.176-0.207-0.22c-0.395-0.39-0.585-0.963-0.637-1.551
							c-0.017-0.2-0.056-1.348-0.014-1.548c-0.009-0.197,0.104-0.737,0.171-0.919c0.076-0.206,0.179-0.401,0.322-0.57l0,0
							c0.217-0.255,0.505-0.446,0.829-0.547c0.1-0.043,0.413-0.104,0.522-0.122l0.839-0.131c0.001,0,0.004-0.001,0.005-0.001
							c0.533-0.088,0.907-0.502,1.029-1.006c0.007-0.031,0.028-0.224,0.032-0.257l0.079-0.931c0.039-0.448,0.272-0.856,0.632-1.127
							c0.112-0.084,0.239-0.145,0.367-0.207c0.15-0.073,0.822-0.266,0.994-0.271c0.262-0.07,1.213-0.123,1.481-0.125
							c0.303-0.003,0.598,0.037,0.879,0.112c0.378-0.086,0.714,0.041,1.091-0.001c0.009-0.001,0.032,0.005,0.042,0.005
							c0.052,0,0.26,0.059,0.309,0.069c0.439,0.09,0.799,0.365,1.136,0.638c0.135,0.11,0.674,0.691,0.777,0.801
							c0.197,0.211,0.417,0.414,0.648,0.584l0,0c0.646,0.469,1.002,1.293,0.988,2.001c0,0.009,0,0.022,0.001,0.031
							c0.008,0.146-0.169,0.763-0.237,0.917C103.314,103.72,103.222,103.891,103.093,104.046" fill="#009ACA" />
                            <path d="M130.906,103.681c-0.439,1.255-1.459,3.434-3.36,4.145c-1.27,0.475-3.544,0.258-3.559-1.535
							c-0.012-1.42,0.669-0.866,0.385-1.853c-0.136-0.472-0.38-1.374-0.521-2.45c-0.061-0.466-0.098-0.906-0.109-1.29
							c-0.018-0.583-0.365-0.916-0.604-0.816v0c-0.197,0.05-0.56-0.271-0.606-0.803c-0.026-0.299-0.534-0.931-0.66-1.137
							c-0.056-0.092-0.076-0.208-0.087-0.335c-0.06-0.653-0.036-1.624,0.807-2.19c0.609-0.992,1.54-1.937,3.095-2.063
							c2.059-0.161,3.005,0.353,3.554,0.733c0.56,0.387,0.366,1.357,0.844,1.851c0.399,0.413,0.212,0.419,0.864,0.707
							c0.232,0.263,0.329,0.999,0.346,1.884C131.326,100.272,131.524,102.234,130.906,103.681" fill="#009ACA" />
                            <path d="M164.99,100.286c-0.082,0.749-0.205,1.531-0.499,2.215c-0.045,1.636-0.823,3.234-3.077,3.759
							c-0.284,0.065-0.551,0.213-0.82,0.387c-0.021,0.123-0.037,0.248-0.069,0.37c-0.321,1.253-0.254,2.2-2.829,2.355
							c-1.294,0.077-2.584-0.002-3.849-0.282c-0.687-0.151-1.384-0.325-2.005-0.642c-0.995-0.078-1.89-0.162-2.422-0.224
							c-1.912-0.217-2.967-1.012-3.61-1.658c-3.994-4.026-0.17-7.191,1.509-7.227c1.522-0.034,2.067,0.715,2.986,1.49
							c0.995,0.84,3.406,1.204,4.39,0.349c0.528-0.457,1.189-1.503,1.671-2.002c0.512-0.53,1.218-0.889,2.006-1.035
							c0.415-0.528,0.937-0.964,1.744-1.266C162.983,95.797,165.325,97.25,164.99,100.286" fill="#009ACA" />
                        </g>
                    </g>
                </g>
            </g>
            <g>
                <g>
                    <g>
                        <g>
                            <path d="M228.792,146.005l0.092-1.736l-3.279,2.076c-0.277,0.162-0.622,0.082-0.786-0.178
							c-0.091-0.138-0.111-0.307-0.053-0.464l1.729-5.461l-2.073,0.644l-0.772-3.583l-2.246,2.904l-1.599-1.474l-0.762,5.681
							c-0.02,0.16-0.112,0.305-0.256,0.395c-0.27,0.168-0.618,0.085-0.781-0.172l-2.085-3.286l-0.672,1.605l-2.79-1.478l1.037,3.301
							l-1.616,1.02l4.03,3.727l-3.34,2.105l7.308-0.284l-1.163,5.171l1.143,0.244l1.164-5.165l6.46,3.398l-2.096-3.336l5.245-1.635
							l-1.019-1.614l2.346-2.533L228.792,146.005z" fill="#A92337" />
                        </g>
                        <g>
                            <path d="M220.296,171.51l0.524-1.655l-3.7,1.15c-0.31,0.093-0.616-0.07-0.71-0.371
							c-0.054-0.16-0.033-0.324,0.061-0.467l3.093-4.823l-2.167,0.087l0.177-3.668l-2.919,2.228l-1.162-1.833l-2.214,5.291
							c-0.055,0.145-0.183,0.259-0.347,0.315c-0.142,0.047-0.292,0.026-0.424-0.042c-0.134-0.072-0.233-0.192-0.275-0.334
							l-1.17-3.712l-1.055,1.379l-2.324-2.145l0.15,3.459l-1.831,0.568l2.936,4.641l-3.775,1.163l7.142,1.616l-2.465,4.696
							l1.028,0.54l2.471-4.696l5.374,4.959l-1.182-3.766l5.498-0.221l-0.579-1.822l2.938-1.849L220.296,171.51z" fill="#A92337" />
                        </g>
                        <g>
                            <path d="M231.891,121.287l1.611-3.057l-3.028,0.94l-0.366-1.701l-2.622,2.851
							c-0.221,0.23-0.576,0.246-0.805,0.033c-0.122-0.106-0.187-0.265-0.179-0.433l0.261-5.723l-1.833,1.162l-1.68-3.26
							l-1.413,3.384l-1.919-1.011l0.721,5.69c0.024,0.154-0.03,0.32-0.144,0.443c-0.097,0.106-0.239,0.17-0.389,0.176
							c-0.002,0-0.003,0-0.003,0c-0.15,0.005-0.288-0.046-0.394-0.145l-2.862-2.633l-0.234,1.721l-3.082-0.693l1.848,2.918
							l-1.292,1.402l4.862,2.556l-2.675,2.889l6.979-2.166l0.212,5.29l1.161-0.047l-0.212-5.29l7.125,1.598l-2.885-2.664
							l4.639-2.939L231.891,121.287z" fill="#A92337" />
                        </g>
                        <g>
                            <path d="M202.11,78.71l-0.429,1.862l5.496-0.221l-0.878,3.849l4.967-5.372l2.835,4.483l0.979-0.636l-2.833-4.469
							l6.962-2.172l-3.824-0.877l2.55-4.863l-1.869-0.42l-0.13-3.449l-2.146,2.323l-1.169-1.287l-0.849,3.788
							c-0.076,0.305-0.379,0.493-0.673,0.424c-0.162-0.033-0.302-0.138-0.38-0.284l-2.626-5.086l-1.009,1.918l-3.09-1.984
							l0.468,3.639l-2.167,0.087l3.47,4.561l0.002,0.002c0.103,0.132,0.138,0.296,0.1,0.461c-0.07,0.297-0.38,0.489-0.678,0.423
							l-3.797-0.85l0.67,1.603l-3.027,0.937L202.11,78.71z" fill="#A92337" />
                        </g>
                        <g>
                            <path d="M216.604,87.822l-0.495,3.634l-2.118-0.475l2.183,5.305c0.062,0.148,0.05,0.316-0.038,0.472
							c-0.065,0.13-0.177,0.227-0.316,0.273c-0.142,0.047-0.3,0.036-0.435-0.036l-3.448-1.808l0.229,1.722l-3.16,0.127l2.551,2.343
							l-0.886,1.684l5.349,1.207l-1.841,3.496l6.187-3.909l1.574,5.057l1.112-0.333l-1.576-5.061l7.294-0.303l-3.483-1.833
							l3.724-4.026l-1.682-0.896l0.759-3.372l-2.671,1.695l-0.798-1.55l-1.805,3.443c-0.151,0.273-0.485,0.379-0.76,0.233
							c-0.15-0.076-0.25-0.208-0.285-0.375l-1.226-5.596l-1.472,1.594L216.604,87.822z" fill="#A92337" />
                        </g>
                    </g>
                </g>
            </g>
            <g>
                <g>
                    <g>
                        <g>
                            <path d="M23.208,146.005l-0.092-1.736l3.279,2.076c0.277,0.162,0.622,0.082,0.786-0.178
							c0.091-0.138,0.11-0.307,0.053-0.464l-1.729-5.461l2.073,0.644l0.772-3.583l2.246,2.904l1.599-1.474l0.762,5.681
							c0.02,0.16,0.112,0.305,0.256,0.395c0.27,0.168,0.618,0.085,0.781-0.172l2.085-3.286l0.672,1.605l2.79-1.478l-1.037,3.301
							l1.616,1.02l-4.03,3.727l3.34,2.105l-7.308-0.284l1.163,5.171l-1.143,0.244l-1.164-5.165l-6.46,3.398l2.096-3.336
							l-5.245-1.635l1.019-1.614l-2.346-2.533L23.208,146.005z" fill="#A92337" />
                        </g>
                        <g>
                            <path d="M31.704,171.51l-0.524-1.655l3.7,1.15c0.31,0.093,0.616-0.07,0.71-0.371
							c0.054-0.16,0.033-0.324-0.061-0.467l-3.093-4.823l2.167,0.087l-0.177-3.668l2.919,2.228l1.162-1.833l2.214,5.291
							c0.055,0.145,0.183,0.259,0.347,0.315c0.142,0.047,0.292,0.026,0.424-0.042c0.134-0.072,0.233-0.192,0.275-0.334l1.17-3.712
							l1.055,1.379l2.324-2.145l-0.15,3.459l1.831,0.568l-2.936,4.641l3.775,1.163l-7.142,1.616l2.465,4.696l-1.028,0.54
							l-2.471-4.696l-5.374,4.959l1.182-3.766l-5.498-0.221l0.579-1.822l-2.938-1.849L31.704,171.51z" fill="#A92337" />
                        </g>
                        <g>
                            <path d="M20.109,121.287l-1.611-3.057l3.028,0.94l0.366-1.701l2.622,2.851c0.221,0.23,0.576,0.246,0.805,0.033
							c0.122-0.106,0.187-0.265,0.179-0.433l-0.261-5.723l1.833,1.162l1.68-3.26l1.413,3.384l1.919-1.011l-0.721,5.69
							c-0.024,0.154,0.03,0.32,0.144,0.443c0.097,0.106,0.239,0.17,0.389,0.176c0.002,0,0.003,0,0.003,0
							c0.15,0.005,0.288-0.046,0.394-0.145l2.862-2.633l0.234,1.721l3.082-0.693l-1.848,2.918l1.292,1.402l-4.862,2.556l2.675,2.889
							l-6.979-2.166l-0.212,5.29l-1.161-0.047l0.212-5.29l-7.125,1.598l2.885-2.664l-4.639-2.939L20.109,121.287z" fill="#A92337" />
                        </g>
                        <g>
                            <path d="M49.89,78.71l0.429,1.862l-5.496-0.221l0.878,3.849l-4.967-5.372l-2.835,4.483l-0.979-0.636l2.833-4.469
							l-6.962-2.172l3.824-0.877l-2.55-4.863l1.869-0.42l0.13-3.449l2.146,2.323l1.169-1.287l0.849,3.788
							c0.076,0.305,0.379,0.493,0.673,0.424c0.162-0.033,0.302-0.138,0.38-0.284l2.626-5.086l1.009,1.918l3.09-1.984l-0.468,3.639
							l2.167,0.087l-3.47,4.561l-0.002,0.002c-0.103,0.132-0.138,0.296-0.1,0.461c0.07,0.297,0.38,0.489,0.678,0.423l3.797-0.85
							l-0.67,1.603l3.027,0.937L49.89,78.71z" fill="#A92337" />
                        </g>
                        <g>
                            <path d="M35.396,87.822l0.495,3.634l2.118-0.475l-2.183,5.305c-0.062,0.148-0.05,0.316,0.038,0.472
							c0.065,0.13,0.177,0.227,0.316,0.273c0.142,0.047,0.3,0.036,0.435-0.036l3.448-1.808l-0.229,1.722l3.16,0.127l-2.551,2.343
							l0.886,1.684l-5.349,1.207l1.841,3.496l-6.187-3.909l-1.574,5.057l-1.112-0.333l1.576-5.061l-7.294-0.303l3.483-1.833
							l-3.724-4.026l1.682-0.896l-0.759-3.372l2.671,1.695l0.798-1.55l1.805,3.443c0.151,0.273,0.485,0.379,0.76,0.233
							c0.15-0.076,0.25-0.208,0.285-0.375l1.226-5.596l1.472,1.594L35.396,87.822z" fill="#A92337" />
                        </g>
                    </g>
                </g>
            </g>
            <g>
                <g>
                    <path d="M54.441,58.766c-2.67-2.84-2.703-6.783,0.149-9.465c1.035-0.973,2.213-1.58,3.352-1.753
					c1.617-0.246,3.186,0.279,4.441,1.374l-2.773,2.607c-0.764-0.681-2.012-0.757-2.915,0.09c-1.312,1.236-0.901,2.949,0.558,4.501
					c1.46,1.552,3.251,1.967,4.484,0.808c0.968-0.911,0.953-2.097,0.247-3.034l2.8-2.632c0.905,1.122,1.302,2.501,1.236,3.787
					c-0.072,1.544-0.757,2.837-2.137,4.134C60.993,61.904,57.112,61.605,54.441,58.766z" fill="#A92337" />
                    <path d="M64.474,41.411l3.172-2.23l11.43,7.872l-3.304,2.323l-1.621-1.196l-3.603,2.533l0.578,1.929l-3.098,2.178
					L64.474,41.411z M69.739,48.078l2.204-1.55l-2.136-1.613c-0.53-0.406-1.364-1.087-1.364-1.087l-0.03,0.021
					c0,0,0.373,1.006,0.561,1.653L69.739,48.078z" fill="#A92337" />
                    <path d="M74.591,34.707l3.41-1.683l7.057,4.677l0.033-0.016l-3.237-6.561l3.296-1.627l5.759,11.669l-3.526,1.74
					l-6.966-4.782l-0.033,0.016l3.262,6.61l-3.298,1.627L74.591,34.707z" fill="#A92337" />
                    <path d="M92.509,26.847l3.696-1.173l8.537,10.942l-3.85,1.224l-1.187-1.628l-4.197,1.333l-0.029,2.015l-3.608,1.146
					L92.509,26.847z M95.529,34.787l2.568-0.816l-1.553-2.181c-0.383-0.546-0.975-1.446-0.975-1.446l-0.036,0.011
					c0,0,0.055,1.072,0.04,1.745L95.529,34.787z" fill="#A92337" />
                    <path d="M104.073,23.511l5.936-0.916c3.705-0.573,6.645,1.404,7.275,5.488c0.633,4.1-1.457,6.781-5.451,7.398
					l-5.774,0.891L104.073,23.511z M111.047,32.415c1.727-0.267,2.759-1.568,2.424-3.745c-0.328-2.122-1.65-3.171-3.449-2.893
					l-1.709,0.264l1.025,6.638L111.047,32.415z" fill="#A92337" />
                    <path d="M122.734,21.409l3.876-0.064l5.038,12.935l-4.041,0.066l-0.669-1.9l-4.404,0.072l-0.606,1.921l-3.786,0.063
					L122.734,21.409z M123.346,29.883l2.693-0.045l-0.861-2.535c-0.211-0.633-0.518-1.667-0.518-1.667l-0.037,0.001
					c0,0-0.256,1.042-0.463,1.683L123.346,29.883z" fill="#A92337" />
                    <path d="M145.27,34.938l-0.036-0.005c-1.009,1.027-2.406,1.303-3.968,1.034c-1.723-0.297-3.091-1.143-3.94-2.435
					c-0.968-1.462-1.262-3.287-0.919-5.277c0.654-3.787,3.56-6.278,7.526-5.595c3.355,0.58,5.172,2.685,5.093,5.61l-3.626-0.625
					c-0.055-0.86-0.708-1.675-1.857-1.873c-1.795-0.31-2.97,1.039-3.332,3.139s0.409,3.84,2.22,4.154
					c1.364,0.235,2.155-0.386,2.537-1.207l-1.705-0.294l0.458-2.656l5.294,0.915l-1.202,6.962l-2.494-0.431L145.27,34.938z" fill="#A92337" />
                    <path d="M150.818,30.869c1.239-3.694,4.576-5.629,8.407-4.344c3.832,1.285,5.362,4.852,4.123,8.546
					s-4.605,5.599-8.436,4.313C151.081,38.1,149.578,34.562,150.818,30.869z M159.69,33.844c0.677-2.019,0.312-3.851-1.414-4.43
					c-1.727-0.578-3.123,0.662-3.799,2.681s-0.306,3.834,1.419,4.413C157.623,37.087,159.012,35.863,159.69,33.844z" fill="#A92337" />
                    <path d="M164.783,35.671c1.783-3.466,5.374-4.874,8.969-3.024c3.596,1.85,4.571,5.607,2.788,9.073
					c-1.784,3.466-5.399,4.841-8.993,2.991C163.95,42.861,163,39.135,164.783,35.671z M173.106,39.953
					c0.975-1.895,0.89-3.761-0.729-4.594c-1.62-0.833-3.187,0.183-4.162,2.078c-0.975,1.894-0.882,3.745,0.737,4.577
					C170.571,42.847,172.131,41.847,173.106,39.953z" fill="#A92337" />
                    <path d="M176.327,44.352l3.177,2.249c-0.495,0.92-0.126,1.784,0.898,2.509c0.608,0.431,1.519,0.719,1.971,0.081
					c0.453-0.638-0.145-1.307-1.221-2.558c-1.466-1.706-3.188-3.839-1.59-6.096c1.724-2.435,4.364-1.947,6.755-0.254
					c2.197,1.556,3.564,3.905,1.97,6.252l-3.073-2.175c0.32-0.641,0.167-1.307-0.679-1.906c-0.682-0.484-1.378-0.509-1.683-0.078
					c-0.442,0.623,0.401,1.354,1.717,2.864c1.477,1.691,2.764,3.65,1.166,5.908c-1.639,2.316-4.576,2.088-7.085,0.312
					C175.89,49.504,174.637,46.834,176.327,44.352z" fill="#A92337" />
                    <path d="M193.378,45.882l7.425,6.902l-2.107,2.267l-4.639-4.312l-1.202,1.293l3.879,3.605l-1.946,2.093
					l-3.879-3.607l-1.388,1.493l4.773,4.437l-2.219,2.386l-7.558-7.025L193.378,45.882z" fill="#A92337" />
                </g>
                <g>
                    <path d="M56.604,185.579l2.529,2.934l-6.705,12.145l-2.636-3.06l1.031-1.729l-2.874-3.335l-1.863,0.766
					l-2.471-2.866L56.604,185.579z M50.492,191.472l1.758,2.04l1.395-2.283c0.351-0.567,0.946-1.464,0.946-1.464l-0.023-0.029
					c0,0-0.964,0.47-1.589,0.722L50.492,191.472z" fill="#A92337" />
                    <path d="M62.278,192.153l5.059,4.02c2.081,1.653,3.088,4.013,1.436,6.092c-0.928,1.169-2.183,1.519-3.637,1.155
					l-0.034,0.042c0.577,0.969,0.552,1.88,0.089,2.814c-0.703,1.44-2.097,2.726-1.806,3.121l-0.124,0.156l-2.935-2.332
					c-0.127-0.425,0.984-1.589,1.494-2.67c0.438-0.931,0.413-1.602-0.457-2.293l-1.382-1.098l-2.819,3.548l-2.978-2.367
					L62.278,192.153z M61.667,199.036l1.596,1.267c0.856,0.679,1.62,0.684,2.186-0.029c0.532-0.67,0.444-1.437-0.41-2.116
					l-1.639-1.303L61.667,199.036z" fill="#A92337" />
                    <path d="M68.273,206.168c1.788-3.462,5.493-4.804,8.97-3.009c1.261,0.652,2.226,1.56,2.766,2.577
					c0.771,1.442,0.798,3.095,0.183,4.642l-3.38-1.746c0.387-0.947,0.045-2.148-1.054-2.717c-1.601-0.826-3.079,0.131-4.056,2.023
					c-0.978,1.892-0.774,3.717,0.73,4.495c1.181,0.61,2.293,0.201,2.941-0.777l3.412,1.762c-0.757,1.228-1.924,2.059-3.158,2.425
					c-1.479,0.444-2.926,0.231-4.607-0.638C67.495,213.385,66.486,209.628,68.273,206.168z" fill="#A92337" />
                    <path d="M83.515,207.27l10.225,4.592l-1.328,2.954l-3.403-1.527l-4.003,8.913l-3.469-1.559l4.003-8.913
					l-3.354-1.507L83.515,207.27z" fill="#A92337" />
                    <path d="M95.74,212.44l3.626,1.151l-3.942,12.403l-3.624-1.153L95.74,212.44z" fill="#A92337" />
                    <path d="M99.53,220.667c0.804-3.813,4.021-6.092,7.852-5.284c1.389,0.293,2.561,0.913,3.352,1.75
					c1.127,1.187,1.591,2.774,1.41,4.428l-3.723-0.786c0.122-1.016-0.528-2.084-1.739-2.339c-1.764-0.372-2.935,0.945-3.376,3.028
					c-0.439,2.085,0.242,3.791,1.899,4.141c1.302,0.275,2.265-0.416,2.63-1.529l3.76,0.793c-0.405,1.385-1.308,2.496-2.402,3.177
					c-1.308,0.822-2.76,0.999-4.613,0.608C100.696,227.836,98.725,224.48,99.53,220.667z" fill="#A92337" />
                    <path d="M117.883,217.317l5.988,0.183c1.656,0.051,2.844,0.524,3.676,1.314c0.902,0.848,1.395,2.047,1.351,3.485
					c-0.077,2.512-1.991,4.348-4.612,4.267l-2.877-0.087l-0.12,3.968l-3.805-0.116L117.883,217.317z M121.5,223.531l2.056,0.063
					c0.928,0.027,1.53-0.573,1.557-1.466c0.027-0.874-0.52-1.455-1.503-1.485l-2.021-0.062L121.5,223.531z" fill="#A92337" />
                    <path d="M129.921,217.603l6.431-0.652c2.644-0.268,5.013,0.718,5.281,3.363c0.152,1.485-0.503,2.613-1.799,3.367
					l0.005,0.053c1.091,0.293,1.708,0.962,2.029,1.954c0.502,1.523,0.401,3.419,0.885,3.497l0.021,0.2l-3.731,0.379
					c-0.388-0.217-0.406-1.825-0.794-2.957c-0.336-0.972-0.823-1.436-1.928-1.323l-1.758,0.178l0.458,4.51l-3.786,0.384
					L129.921,217.603z M134.289,222.962l2.029-0.206c1.087-0.109,1.637-0.641,1.545-1.548c-0.086-0.85-0.685-1.34-1.772-1.229
					l-2.082,0.212L134.289,222.962z" fill="#A92337" />
                    <path d="M143.401,222.761c-0.947-3.78,0.823-7.208,4.745-8.189c3.922-0.983,7.134,1.199,8.08,4.979
					c0.946,3.78-0.864,7.2-4.785,8.181C147.519,228.714,144.348,226.541,143.401,222.761z M152.481,220.489
					c-0.517-2.067-1.812-3.414-3.578-2.972c-1.766,0.443-2.274,2.241-1.757,4.308c0.517,2.066,1.807,3.396,3.574,2.953
					C152.488,224.336,152.999,222.556,152.481,220.489z" fill="#A92337" />
                    <path d="M168.905,219.887l-0.034,0.015c-0.298,1.407-1.328,2.39-2.788,3.002c-1.612,0.674-3.221,0.696-4.631,0.063
					c-1.6-0.711-2.829-2.092-3.609-3.955c-1.482-3.542-0.37-7.205,3.34-8.758c3.139-1.314,5.802-0.514,7.306,1.993l-3.392,1.421
					c-0.507-0.696-1.497-1.032-2.572-0.582c-1.679,0.704-1.946,2.472-1.122,4.437c0.822,1.965,2.408,3.017,4.103,2.308
					c1.277-0.533,1.609-1.482,1.49-2.38l-1.594,0.669l-1.04-2.486l4.953-2.073l2.726,6.515l-2.334,0.976L168.905,219.887z" fill="#A92337" />
                    <path d="M168.35,207.324l5.536-3.337c2.276-1.371,4.84-1.493,6.212,0.785c0.771,1.278,0.662,2.577-0.189,3.813
					l0.027,0.046c1.112-0.202,1.955,0.139,2.669,0.9c1.105,1.163,1.824,2.919,2.296,2.785l0.103,0.171l-3.212,1.936
					c-0.444-0.03-1.147-1.478-1.982-2.335c-0.719-0.736-1.356-0.946-2.308-0.373l-1.512,0.912l2.339,3.883l-3.259,1.965
					L168.35,207.324z M174.588,210.303l1.747-1.053c0.935-0.565,1.206-1.28,0.736-2.059c-0.442-0.734-1.192-0.919-2.127-0.355
					l-1.794,1.081L174.588,210.303z" fill="#A92337" />
                    <path d="M182.087,198.309l3.008-2.449l11.959,7.051l-3.135,2.551l-1.701-1.08l-3.417,2.781l0.712,1.885
					l-2.937,2.391L182.087,198.309z M187.81,204.59l2.089-1.701l-2.244-1.46c-0.558-0.368-1.44-0.988-1.44-0.988l-0.027,0.023
					c0,0,0.443,0.978,0.675,1.609L187.81,204.59z" fill="#A92337" />
                    <path d="M188.684,193.006l3.341-3.649l6.717,3.438l0.025-0.027l-4.014-6.389l3.365-3.676l9.592,8.783l-2.321,2.536
					l-6.01-5.503l-0.025,0.026l4.549,7.1l-1.879,2.052l-7.473-3.906l-0.025,0.027l6.01,5.503l-2.26,2.468L188.684,193.006z" fill="#A92337" />
                </g>
            </g>
        </g>
    </g>
</svg>
