<?xml version="1.0" encoding="utf-8"?>
<!-- Generator: Adobe Illustrator 25.2.3, SVG Export Plug-In . SVG Version: 6.00 Build 0)  -->
<svg version="1.2" baseProfile="tiny-ps" id="Layer_1" xmlns="http://www.w3.org/2000/svg" xmlns:xlink="http://www.w3.org/1999/xlink"
	  viewBox="0 0 400 400"  xml:space="preserve">
	  <title>PowerDMARC</title>
<rect fill="#002548" width="400" height="400"/>
<path fill="#FFFFFF" d="M47.6,216.1v-32.2h9.1c1.1,0,2,0,2.8,0c0.8,0,1.7,0.1,2.6,0.2c0.9,0.1,1.8,0.3,2.4,0.5
	c0.6,0.2,1.3,0.5,2,0.7c0.6,0.3,1.3,0.6,1.8,1.1s0.9,1,1.3,1.6c0.4,0.6,0.6,1.4,0.8,2.2c0.2,0.8,0.3,1.8,0.3,2.9
	c0,1.8-0.3,3.1-0.8,4.3c-0.6,1.2-1.4,2.1-2.5,2.8c-1.1,0.6-2.4,1.2-3.9,1.5c-1.5,0.3-3.2,0.5-5.3,0.5h-4.9V216L47.6,216.1
	L47.6,216.1z"/>
<path fill="#002548" d="M53.2,197.5H58c1.1,0,1.9-0.1,2.8-0.2c0.7-0.1,1.5-0.4,2-0.6c0.6-0.3,1.1-0.7,1.4-1.3
	c0.3-0.6,0.5-1.3,0.5-2.1c0-0.5,0-0.9-0.1-1.3c-0.1-0.4-0.2-0.7-0.3-1s-0.3-0.6-0.6-0.7c-0.3-0.2-0.5-0.4-0.6-0.6
	c-0.2-0.2-0.5-0.3-0.9-0.4c-0.5-0.1-0.7-0.2-1-0.2c-0.3-0.1-0.6-0.1-1.2-0.1s-1,0-1.3,0c-0.4,0-0.8,0-1.5,0h-3.8v8.5H53.2z"/>
<path fill="#FFFFFF" d="M86.4,216.6c-1.9,0-3.7-0.3-5.3-0.9c-1.6-0.6-2.8-1.5-3.7-2.6c-0.9-1.1-1.7-2.3-2.1-3.8
	c-0.5-1.4-0.7-2.9-0.7-4.5c0-1.7,0.3-3.1,0.7-4.6c0.5-1.4,1.2-2.7,2.2-3.8c0.9-1.1,2.2-1.9,3.8-2.6c1.6-0.6,3.2-0.9,5.2-0.9
	s3.7,0.3,5.3,0.9c1.6,0.6,2.8,1.5,3.7,2.6c0.9,1.1,1.7,2.3,2.1,3.8c0.5,1.4,0.7,3,0.7,4.6c0,1.6-0.3,3-0.7,4.4s-1.2,2.7-2.1,3.7
	c-0.9,1.1-2.1,1.9-3.7,2.6C90,216.3,88.4,216.6,86.4,216.6z"/>
<path fill="#002548" d="M86.3,212.2c1.1,0,2-0.2,2.9-0.6c0.8-0.4,1.5-0.9,1.9-1.7c0.5-0.7,0.8-1.5,1-2.4c0.2-0.8,0.4-1.8,0.4-2.9
	c0-2.1-0.6-4-1.6-5.4c-1-1.4-2.6-2-4.5-2c-1.4,0-2.5,0.4-3.4,1s-1.7,1.6-2,2.7c-0.4,1.1-0.6,2.3-0.6,3.7s0.2,2.6,0.6,3.7
	c0.4,1.1,1,2,2,2.7C83.7,211.8,84.9,212.2,86.3,212.2z"/>
<path fill="#FFFFFF" d="M109,216.1l-8.2-22.6h5.9c2.3,7,4,12.4,5.2,15.9c0.6-1.8,2.4-7.1,5.4-15.9h4.8c0.4,1.2,0.9,2.9,1.6,5
	c0.6,2.1,1.3,4.2,1.8,5.9c0.6,1.8,1.1,3.4,1.7,5c0.5-1.3,2.2-6.7,5.3-16h5.1l-8.6,22.6h-4.6c-3.1-9.2-4.8-14.4-5.2-15.4
	c-0.6,1.7-2.4,6.7-5.5,15.4L109,216.1L109,216.1L109,216.1z"/>
<path fill="#FFFFFF" d="M152.4,216.6c-3.8,0-6.8-1.1-9.1-3.2c-2.2-2.2-3.3-5-3.3-8.5c0-1.6,0.3-3.1,0.8-4.5c0.6-1.4,1.3-2.7,2.2-3.8
	c0.9-1.1,2.2-1.9,3.7-2.6c1.5-0.6,3.1-1,4.9-1c1.8,0,3.3,0.3,4.7,0.9c1.3,0.6,2.4,1.5,3.1,2.6c0.7,1.1,1.4,2.4,1.8,3.7
	c0.4,1.4,0.6,3,0.6,4.6c0,0.5,0,0.7-0.1,1h-15.9c0.1,2.2,0.7,3.9,2,4.9c1.3,1,3,1.6,5,1.6c2.4,0,4.8-0.8,7.1-2.4l1.5,4
	c-1.4,1-2.9,1.8-4.3,2.2C155.7,216.4,154.2,216.6,152.4,216.6z"/>
<path fill="#002548" d="M145.9,202h11.3c-0.3-1.6-0.8-2.9-1.8-3.7c-0.9-0.8-2-1.3-3.4-1.3c-1.6,0-2.9,0.5-4,1.3
	C147,199.2,146.2,200.6,145.9,202z"/>
<path fill="#FFFFFF" d="M167.8,216.1v-16.9c0-0.9,0-1.8-0.1-2.8c-0.1-0.9-0.2-1.7-0.2-2.2l-0.1-0.7h5.8v3c0.9-1.2,1.8-2,2.7-2.7
	c0.9-0.6,1.8-0.9,3-0.9c0.6,0,1.4,0.1,2.2,0.4v4.8c-1-0.3-1.9-0.5-2.8-0.5c-1.5,0-2.8,0.5-3.7,1.5c-0.9,1-1.5,2.4-1.5,4.3v12.8
	H167.8z"/>
<path fill="#FFFFFF" d="M185.7,216.1v-32.2h9c6.5,0,11.3,1.4,14.4,4.1c3.1,2.8,4.8,6.7,4.8,11.7c0,5.3-1.6,9.3-4.7,12.1
	c-3.1,2.8-7.7,4.2-13.6,4.2L185.7,216.1L185.7,216.1z"/>
<path fill="#002548" d="M191.3,211.3h4.5c3.9,0,6.8-1,9-3c2-1.9,3.1-4.8,3.1-8.6c0-3.6-1-6.3-3.1-8.2c-2.1-1.8-5.3-2.9-9.6-2.9h-3.9
	V211.3z"/>
<path fill="#FFFFFF" d="M220.3,216.1v-32.2h6.6c0.5,1,2,4.6,4.8,10.8s4.9,10.9,6.4,14.1c1.1-2.5,2.3-5,3.5-7.8
	c1.2-2.7,2.6-5.8,4.2-9.4c1.6-3.6,2.7-6.2,3.4-7.8h6.6v32.2h-5.3v-22.9c-0.7,1.7-4.3,9.3-10.4,22.9H236c-0.7-1.7-1.8-4.1-3.2-7.1
	c-1.4-3-2.7-5.9-3.8-8.4c-1.1-2.5-2.2-4.9-3.3-7v22.6H220.3z"/>
<polygon fill="#FFFFFF" points="260.3,216.1 273.2,184 278.9,184 291.9,216.1 285.6,216.1 282.4,208.3 269.5,208.3 266.4,216.1 "/>
<path fill="#002548" d="M271.5,203h8.6c-1.7-5-3.1-9.1-4.3-12.5C275,193.3,273.5,197.5,271.5,203z"/>
<path fill="#FFFFFF" d="M296.4,216.1v-32.2h11.6c1.8,0,3.3,0.1,4.6,0.4c1.3,0.3,2.5,0.7,3.5,1.4c1,0.6,1.8,1.6,2.4,2.8
	c0.6,1.2,0.8,2.7,0.8,4.3c0,1.8-0.6,3.4-1.6,4.8c-1.1,1.4-2.7,2.3-4.9,2.8c1.9,1.1,3.3,2.8,4.3,5l4.3,10.6h-6.1l-3.7-9.5
	c-0.6-1.6-1.3-2.7-1.9-3.2c-0.7-0.6-1.8-0.8-3.2-0.8H302V216L296.4,216.1L296.4,216.1z"/>
<path fill="#002548" d="M301.9,197.8h5.4c4,0,6-1.6,6-4.6c0-1.7-0.5-2.9-1.3-3.4c-0.8-0.6-2.2-0.9-4.2-0.9h-5.9V197.8z"/>
<path fill="#FFFFFF" d="M341.2,216.6c-2.1,0-4.2-0.4-6-1.1c-1.9-0.7-3.6-1.8-5.1-3.1c-1.5-1.4-2.7-3-3.6-5.2
	c-0.9-2.1-1.3-4.5-1.3-7.1c0-2.2,0.3-4.2,0.9-6c0.6-1.8,1.4-3.4,2.4-4.7c1-1.3,2.2-2.4,3.5-3.3c1.3-0.9,2.8-1.6,4.3-2
	c1.5-0.5,3-0.6,4.5-0.6c4.3,0,7.8,1.1,10.7,3.4l-2.2,3.9c-2.4-1.7-5.2-2.5-8-2.5c-1.4,0-2.7,0.3-3.9,0.8c-1.2,0.6-2.3,1.3-3.2,2.3
	s-1.7,2.2-2.2,3.7c-0.6,1.5-0.8,3.1-0.8,4.9c0,3.5,1,6.4,3,8.5c2,2.1,4.5,3.2,7.6,3.2c3.2,0,6.2-1.1,8.9-3.2l1.8,4.4
	C349.3,215.3,345.6,216.6,341.2,216.6z"/>
</svg>
