<svg xmlns="http://www.w3.org/2000/svg" viewBox="0 0 186 186" version="1.2" baseProfile="tiny-ps" width="186" height="186">
  <title>Stripo.email</title>
  <g fill="none">
    <path fill="#4A4A4A" d="M55.0494274,83.1922845 C54.2778782,83.86739 53.79566,84.5424955 53.4098855,85.4104882 C53.0241109,86.278481 52.8312236,87.3393611 52.8312236,88.5931284 C52.8312236,89.8468957 53.1205546,90.8113321 53.79566,91.6793249 C54.4707655,92.5473177 55.3387583,93.2224231 56.3031947,93.7046414 C57.2314647,94.1265823 58.1597348,94.5485232 59.2172242,94.8412447 L61.1515262,95.3304056 C61.7926093,95.4957375 62.4066994,95.6610695 62.9578059,95.8264014 C63.9222423,96.1157324 64.7902351,96.4050633 65.4653406,96.7908379 C66.1404461,97.1766124 66.429777,97.6588306 66.429777,98.3339361 C66.429777,100.455696 64.7902351,101.516576 61.4147077,101.516576 C59.2929476,101.516576 57.3640747,101.130802 55.6280892,100.359253 C55.0494274,100.069922 54.5672092,99.973478 54.1814346,99.973478 C53.79566,99.973478 53.4098855,100.166365 53.1205546,100.55214 C52.73478,100.937914 52.6383363,101.420133 52.6383363,101.902351 C52.6383363,102.481013 52.9276673,102.866787 53.4098855,103.252562 C55.8209765,104.602773 58.6178421,105.277878 61.6075949,105.277878 C64.5009042,105.277878 66.6226643,104.602773 68.2622061,103.252562 C69.7088608,102.095238 70.4804099,100.455696 70.4804099,98.5268234 C70.4804099,96.0192887 69.3230862,94.0904159 66.9119952,92.9330922 C65.9475588,92.450874 64.7902351,92.0650995 63.6329114,91.7757685 L62.2502954,91.4285714 C61.5651597,91.2549729 60.893912,91.0813743 60.257384,90.9077758 C59.1965039,90.6184448 58.4249548,90.2326703 57.7498493,89.8468957 C57.0747438,89.4611212 56.7854129,88.7860157 56.7854129,87.9180229 C56.7854129,87.0500301 57.2676311,86.278481 58.1356239,85.6998192 C59.0036166,85.1211573 60.3538276,84.8318264 62.0898131,84.8318264 C63.8257987,84.8318264 65.4653406,85.0247137 66.9119952,85.5069319 C67.3942134,85.6998192 67.7799879,85.6998192 68.1657625,85.6998192 C68.4550934,85.6998192 68.840868,85.5069319 69.2266426,85.1211573 C69.6124171,84.7353828 69.7088608,84.3496082 69.7088608,83.9638336 C69.7088608,83.5780591 69.6124171,83.1922845 69.3230862,82.8065099 C69.0337553,82.4207354 68.7444244,82.2278481 68.3586498,82.0349608 C66.2368897,81.2634117 64.018686,80.8776371 61.7040386,80.8776371 C58.907173,81.1669681 56.6889693,81.8420735 55.0494274,83.1922845 Z M80.6069922,77.1163351 C80.3176612,77.1163351 80.124774,77.3092224 79.835443,77.5021097 L73.66305,83.5780591 C73.3737191,83.7709464 73.1808318,84.0602773 73.1808318,84.2531646 C73.1808318,84.8318264 73.4701627,85.1211573 74.0488246,85.1211573 L77.2314647,85.1211573 L77.2314647,99.2019289 C77.2314647,101.61302 78.0994575,103.349005 79.7389994,104.313442 C80.4141049,104.699216 81.185654,104.988547 81.9572031,105.084991 C82.7287523,105.181435 83.596745,105.181435 84.4647378,105.181435 C85.4291742,105.181435 86.4900542,104.892104 87.8402652,104.313442 C88.4189271,104.024111 88.708258,103.638336 88.708258,102.963231 C88.708258,102.384569 88.5153707,101.902351 88.2260398,101.61302 C87.9367089,101.323689 87.5509343,101.130802 87.0687161,101.130802 C86.7600964,101.130802 86.4514768,101.192526 86.1428571,101.266594 L85.9113924,101.323689 C85.5256178,101.420133 84.946956,101.516576 84.1754069,101.516576 C83.4038577,101.516576 82.7287523,101.420133 82.4394213,101.227245 C81.8607595,100.841471 81.4749849,100.069922 81.4749849,98.912598 L81.4749849,85.1211573 L86.6829415,85.1211573 C87.1651597,85.1211573 87.6473779,84.92827 87.9367089,84.6389391 C88.2260398,84.3496082 88.4189271,83.86739 88.4189271,83.3851718 C88.4189271,82.9029536 88.2260398,82.4207354 87.9367089,82.1314045 C87.6473779,81.8420735 87.1651597,81.6491863 86.6829415,81.6491863 L81.4749849,81.6491863 L81.4749849,78.0807715 C81.4749849,77.7914406 81.3785413,77.5985533 81.2820976,77.4056661 C81.0892104,77.1163351 80.9927667,77.0198915 80.6069922,77.1163351 Z M104.621459,81.1669681 C102.01748,81.1669681 99.6063894,82.6136227 97.4846293,85.4104882 L97.4846293,83.4816154 C97.4846293,82.9029536 97.291742,82.4207354 96.9059675,81.9385172 C96.5201929,81.5527426 96.0379747,81.3598553 95.4593128,81.3598553 C94.9385172,81.3598553 94.4958409,81.516094 94.1312839,81.8988788 L94.0126582,82.0349608 C93.6268837,82.4207354 93.4339964,82.9993972 93.4339964,83.4816154 L93.4339964,102.963231 C93.4339964,103.541893 93.6268837,104.024111 94.0126582,104.409885 C94.3984328,104.79566 94.880651,104.988547 95.4593128,104.988547 C96.0379747,104.988547 96.5201929,104.79566 96.9059675,104.409885 C97.291742,104.024111 97.4846293,103.541893 97.4846293,102.963231 L97.4846293,89.1717902 C98.2561784,88.0144665 99.3170585,87.0500301 100.474382,86.278481 C101.631706,85.5069319 102.981917,85.1211573 104.525015,85.1211573 L104.717902,85.1211573 C105.296564,85.1211573 105.778782,84.92827 106.261001,84.6389391 C106.646775,84.2531646 106.839662,83.7709464 106.839662,83.1922845 C106.839662,82.6136227 106.646775,82.1314045 106.261001,81.7456299 C105.875226,81.3598553 105.393008,81.1669681 104.814346,81.1669681 L104.621459,81.1669681 Z M113.012055,72.0048222 C112.33695,72.0048222 111.854732,72.1977095 111.372514,72.6799277 C110.890295,73.1621459 110.697408,73.6443641 110.697408,74.3194696 L110.697408,74.5123568 C110.697408,75.1874623 110.890295,75.7661242 111.372514,76.1518987 C111.758288,76.6341169 112.33695,76.8270042 113.012055,76.8270042 L113.301386,76.8270042 C113.976492,76.8270042 114.555154,76.6341169 114.940928,76.1518987 C115.423146,75.6696805 115.616034,75.1874623 115.616034,74.5123568 L115.616034,74.3194696 C115.616034,73.6443641 115.423146,73.0657022 114.940928,72.6799277 C114.45871,72.1977095 113.976492,72.0048222 113.301386,72.0048222 L113.012055,72.0048222 Z M111.661844,81.9385172 C111.27607,82.3242917 111.083183,82.8065099 111.083183,83.4816154 L111.083183,102.963231 C111.083183,103.541893 111.27607,104.024111 111.661844,104.409885 C112.047619,104.79566 112.529837,104.988547 113.204943,104.988547 C113.783605,104.988547 114.265823,104.79566 114.651597,104.409885 C115.037372,104.024111 115.230259,103.541893 115.230259,102.963231 L115.230259,83.4816154 C115.230259,82.8065099 115.037372,82.3242917 114.651597,81.9385172 C114.265823,81.5527426 113.783605,81.3598553 113.204943,81.3598553 C112.529837,81.3598553 112.047619,81.5527426 111.661844,81.9385172 Z M126.610609,84.6389391 L126.610609,83.4816154 C126.610609,82.9029536 126.417722,82.4207354 126.031947,82.0349608 C125.646172,81.6491863 125.163954,81.456299 124.585292,81.456299 C124.006631,81.456299 123.524412,81.6491863 123.138638,82.0349608 C122.752863,82.4207354 122.559976,82.9029536 122.559976,83.4816154 L122.559976,113.475588 C122.559976,114.05425 122.752863,114.536468 123.138638,115.018686 C123.524412,115.404461 124.006631,115.597348 124.585292,115.597348 C125.163954,115.597348 125.646172,115.404461 126.031947,115.018686 C126.417722,114.632911 126.610609,114.150693 126.610609,113.475588 L126.610609,101.902351 C128.828813,104.216998 131.432791,105.374322 134.3261,105.374322 C137.219409,105.374322 139.726944,104.409885 141.945148,102.288125 C144.259795,99.973478 145.417119,96.9837251 145.417119,93.3188668 C145.417119,89.6540084 144.259795,86.6642556 141.945148,84.3496082 C139.908258,82.3127185 137.515838,81.3424183 134.767889,81.2680533 L134.422544,81.2634117 C131.529234,81.1669681 128.925256,82.3242917 126.610609,84.6389391 Z M126.610609,98.0446052 L126.610609,88.4966847 C128.732369,86.278481 131.047016,85.1211573 133.843882,85.1211573 C136.062086,85.1211573 137.894515,85.7962628 139.244726,87.1464738 C140.594937,88.5931284 141.270042,90.7148885 141.270042,93.2224231 C141.270042,94.5726341 141.173599,95.7299578 140.787824,96.7908379 C139.665571,99.7835133 137.455072,101.325195 134.156327,101.415882 L133.747438,101.420133 C131.047016,101.420133 128.635925,100.262809 126.610609,98.0446052 Z M152.939723,84.4460518 C150.817963,86.6642556 149.757083,89.5575648 149.757083,93.1259795 C149.757083,96.6943942 150.817963,99.5877034 152.939723,101.805907 C154.965039,104.024111 157.858348,105.181435 161.426763,105.181435 C164.898734,105.181435 167.792043,104.024111 169.913803,101.805907 C171.861223,99.673019 172.916967,96.9159578 172.995297,93.5347236 L173,92.9330922 L173,92.5473177 C173,89.2682339 171.93912,86.4713683 169.913803,84.3496082 C167.792043,82.1314045 164.898734,80.9740808 161.426763,80.9740808 C157.858348,81.1669681 155.061483,82.2278481 152.939723,84.4460518 Z M158.726341,101.034358 C157.858348,100.745027 156.990356,100.262809 156.31525,99.5877034 C155.543701,98.912598 154.965039,98.0446052 154.579265,96.9837251 C154.097046,95.9228451 153.904159,94.6690778 153.904159,93.1259795 C153.904159,91.7998794 154.066238,90.5548188 154.464682,89.53937 L154.579265,89.2682339 C155.833032,86.278481 158.147679,84.8318264 161.426763,84.8318264 C163.45208,84.8318264 165.091621,85.4104882 166.441832,86.6642556 C168.081374,88.2073538 168.852923,90.3291139 168.852923,93.0295359 C168.852923,95.8264014 168.081374,98.0446052 166.441832,99.4912598 C165.670283,100.166365 164.898734,100.648583 164.030741,100.937914 C163.162749,101.227245 162.294756,101.420133 161.426763,101.420133 C160.55877,101.516576 159.690778,101.323689 158.726341,101.034358 Z"/>
    <path fill="#2CB543" d="M49.2628089,123.505726 C48.973478,123.505726 48.7805907,123.60217 48.4912598,123.795057 C48.2983725,123.987945 48.2019289,124.277275 48.2019289,124.566606 L48.2019289,124.66305 C48.2019289,124.952381 48.2983725,125.145268 48.4912598,125.338156 C48.6841471,125.531043 48.973478,125.627486 49.2628089,125.627486 L49.4556962,125.627486 C49.7450271,125.627486 50.034358,125.531043 50.2272453,125.338156 C50.4201326,125.145268 50.5165763,124.855937 50.5165763,124.66305 L50.5165763,124.566606 C50.5165763,124.277275 50.4201326,123.987945 50.2272453,123.795057 C50.034358,123.60217 49.7450271,123.505726 49.4556962,123.505726 L49.2628089,123.505726 Z M53.6992164,117.526221 C53.0241109,118.394213 52.6383363,119.551537 52.6383363,120.901748 C52.6383363,122.444846 53.0241109,123.698614 53.8921037,124.566606 C54.7600964,125.434599 55.9174201,125.820374 57.4605184,125.820374 C58.2320675,125.820374 58.8107294,125.72393 59.3893912,125.627486 C59.5340567,125.555154 59.7329717,125.482821 59.9047619,125.410488 L60.3299096,125.216251 C60.4734177,125.149126 60.6238698,125.068113 60.7396022,124.952381 C61.0289331,124.855937 61.1253767,124.566606 61.1253767,124.277275 C61.1253767,124.084388 61.0289331,123.987945 60.9324895,123.795057 C60.8360458,123.698614 60.6431585,123.60217 60.4502712,123.60217 C60.257384,123.60217 60.0644967,123.698614 59.8716094,123.795057 C59.1965039,124.084388 58.4249548,124.277275 57.4605184,124.277275 C56.496082,124.277275 55.8209765,123.987945 55.2423146,123.505726 C54.6636528,123.023508 54.3743219,122.348403 54.2778782,121.48041 L60.5467149,121.48041 C60.8360458,121.48041 61.0289331,121.383966 61.1253767,121.191079 C61.318264,120.998192 61.318264,120.805304 61.318264,120.612417 C61.318264,119.35865 60.9856319,118.354357 60.3203676,117.522319 L60.1609403,117.333333 C59.3893912,116.368897 58.2320675,115.886679 56.8818565,115.886679 C55.6280892,115.983122 54.4707655,116.561784 53.6992164,117.526221 Z M54.6636528,118.876432 C55.145871,117.911995 55.9174201,117.429777 57.0747438,117.429777 C57.7498493,117.429777 58.3285112,117.622664 58.8107294,118.104882 C59.3893912,118.587101 59.7751658,119.262206 59.7751658,120.226643 L54.2778782,120.226643 C54.3743219,119.647981 54.4707655,119.262206 54.6636528,118.876432 Z M72.4092827,116.754671 C72.1199518,116.947559 71.7341772,117.333333 71.3484027,117.911995 C71.1555154,117.333333 70.7697408,116.947559 70.2875226,116.561784 C69.7088608,116.17601 69.1301989,115.983122 68.4550934,115.983122 C67.1048825,115.983122 66.0440024,116.561784 65.2724533,117.719108 L65.2724533,116.947559 C65.2724533,116.754671 65.1760096,116.465341 64.9831224,116.368897 C64.7902351,116.17601 64.5973478,116.079566 64.4044605,116.079566 C64.1151296,116.079566 63.9222423,116.17601 63.8257987,116.368897 C63.6604667,116.534229 63.6368479,116.699561 63.6334737,116.864893 L63.6329114,124.855937 C63.6329114,125.048825 63.729355,125.241712 63.9222423,125.434599 C64.1151296,125.627486 64.3080169,125.72393 64.5009042,125.72393 C64.6937914,125.72393 64.8866787,125.627486 65.079566,125.434599 C65.2724533,125.241712 65.3688969,125.048825 65.3688969,124.855937 L65.3688969,119.35865 C66.0440024,118.201326 67.0084388,117.526221 68.0693189,117.526221 C68.7444244,117.526221 69.2266426,117.719108 69.5159735,118.104882 C69.8053044,118.490657 69.901748,119.069319 69.901748,119.840868 L69.901748,124.855937 C69.901748,125.048825 69.9981917,125.241712 70.191079,125.434599 C70.3839662,125.627486 70.5768535,125.72393 70.7697408,125.72393 C71.0590717,125.72393 71.251959,125.627486 71.3484027,125.434599 C71.5137346,125.269267 71.5373535,125.103935 71.5407276,124.938603 L71.5412899,119.35865 C72.2163954,118.201326 73.1808318,117.526221 74.2417119,117.526221 C74.9168174,117.526221 75.3990356,117.719108 75.6883665,118.104882 C75.9776974,118.490657 76.074141,119.069319 76.074141,119.840868 L76.074141,124.855937 C76.074141,125.048825 76.1705847,125.241712 76.363472,125.434599 C76.5563593,125.627486 76.7492465,125.72393 76.9421338,125.72393 C77.1350211,125.72393 77.424352,125.627486 77.5207957,125.434599 C77.6861276,125.269267 77.7097465,125.103935 77.7131206,124.938603 L77.7136829,119.551537 C77.7136829,118.587101 77.424352,117.815552 76.9421338,117.140446 C76.363472,116.368897 75.5919228,115.983122 74.6274864,115.983122 C73.8559373,115.983122 73.0843882,116.272453 72.4092827,116.754671 Z M81.0892104,116.658228 C80.7998794,116.754671 80.6069922,117.044002 80.6069922,117.23689 C80.6069922,117.526221 80.7034358,117.719108 80.7998794,117.815552 C80.8963231,117.911995 81.0892104,118.008439 81.185654,118.008439 L81.4749849,118.008439 C82.4394213,117.719108 83.2109705,117.622664 83.9825196,117.622664 C84.8505124,117.622664 85.4291742,117.815552 85.8149488,118.104882 C86.2007233,118.490657 86.3936106,119.069319 86.3936106,119.840868 L86.3936106,120.033755 L84.1754069,120.033755 C82.8251959,120.033755 81.7643159,120.323086 80.9927667,120.901748 C80.3176612,121.383966 79.9318867,122.155515 79.9318867,123.119952 C79.9318867,123.987945 80.2212176,124.66305 80.7998794,125.145268 C81.3785413,125.627486 82.0536468,125.916817 82.9216395,125.916817 C83.7896323,125.916817 84.4647378,125.72393 85.0433996,125.434599 C85.6220615,125.145268 86.007836,124.855937 86.3936106,124.470163 L86.3936106,124.952381 C86.3936106,125.145268 86.4900542,125.338156 86.6829415,125.531043 C86.8758288,125.72393 87.0687161,125.820374 87.2616034,125.820374 C87.4544907,125.820374 87.7438216,125.72393 87.8402652,125.531043 C88.0331525,125.338156 88.1295961,125.145268 88.1295961,124.952381 L88.1295961,119.744424 C88.1295961,118.854175 87.8830657,118.046103 87.3141491,117.396063 L87.1651597,117.23689 C86.5350613,116.516777 85.6529234,116.132717 84.5187462,116.08471 L84.1754069,116.079566 C83.1145268,115.983122 82.0536468,116.272453 81.0892104,116.658228 Z M81.6678722,122.830621 C81.6678722,122.348403 81.9572031,121.962628 82.4394213,121.673297 C82.9216395,121.48041 83.596745,121.383966 84.4647378,121.383966 L86.4900542,121.383966 L86.4900542,122.927064 C86.2007233,123.312839 85.8149488,123.60217 85.2362869,123.891501 C84.814346,124.144665 84.3185654,124.250151 83.8135549,124.272566 L83.5003014,124.277275 C82.2465341,124.373719 81.6678722,123.891501 81.6678722,122.830621 Z M91.7944545,112.318264 C91.5051236,112.318264 91.3122363,112.414708 91.119349,112.607595 C90.9264617,112.800482 90.8300181,112.993369 90.8300181,113.2827 L90.8300181,113.379144 C90.8300181,113.668475 90.9264617,113.861362 91.119349,114.05425 C91.3122363,114.247137 91.5051236,114.34358 91.7944545,114.34358 L91.8908981,114.34358 C92.1802291,114.34358 92.3731163,114.247137 92.5660036,114.05425 C92.7588909,113.861362 92.8553345,113.668475 92.8553345,113.379144 L92.8553345,113.2827 C92.8553345,112.993369 92.7588909,112.800482 92.5660036,112.607595 C92.3731163,112.414708 92.1802291,112.318264 91.8908981,112.318264 L91.7944545,112.318264 Z M91.3122363,116.368897 C91.119349,116.561784 91.0229054,116.754671 91.0229054,116.947559 L91.0229054,124.855937 C91.0229054,125.048825 91.119349,125.241712 91.3122363,125.434599 C91.5051236,125.627486 91.6980108,125.72393 91.8908981,125.72393 C92.0837854,125.72393 92.3731163,125.627486 92.46956,125.434599 C92.6348919,125.269267 92.6585108,125.103935 92.6618849,124.938603 L92.6624473,116.947559 C92.6624473,116.658228 92.5660036,116.465341 92.46956,116.368897 C92.2766727,116.17601 92.0837854,116.17601 91.8908981,116.17601 C91.6980108,116.079566 91.5051236,116.17601 91.3122363,116.368897 Z M96.1344183,112.318264 C95.941531,112.511151 95.8450874,112.704039 95.8450874,112.896926 L95.8450874,124.952381 C95.8450874,125.145268 95.941531,125.338156 96.1344183,125.531043 C96.3273056,125.72393 96.5201929,125.820374 96.7130802,125.820374 C96.9059675,125.820374 97.1952984,125.72393 97.291742,125.531043 C97.457074,125.365711 97.4806928,125.200379 97.4840669,125.035047 L97.4846293,112.896926 C97.4846293,112.704039 97.3881857,112.414708 97.291742,112.318264 C97.0988547,112.125377 96.9059675,112.125377 96.7130802,112.125377 C96.5201929,112.028933 96.230862,112.125377 96.1344183,112.318264 Z M18.7866184,96.0192887 C17.6292948,96.5015069 16.6648583,96.4050633 15.8933092,96.1157324 C15.7004219,96.4050633 15.6039783,96.6943942 15.411091,96.9837251 C14.9288728,98.0446052 14.4466546,99.1054852 14.1573237,100.166365 C13.9644364,101.227245 13.7715491,102.384569 13.7715491,103.541893 C13.7715491,104.699216 13.9644364,105.760096 14.4466546,106.628089 C14.9288728,107.496082 15.7968656,108.074744 16.8577456,108.171187 C17.822182,108.267631 18.7866184,107.785413 19.7510549,107.206751 C21.583484,105.952984 23.2230259,104.120555 24.7661242,102.384569 C26.3092224,100.648583 27.8523207,98.8161543 29.3954189,96.9837251 C30.9385172,95.151296 32.5780591,93.4153104 34.5069319,91.8722122 C35.4713683,91.1006631 36.5322483,90.4255576 37.978903,90.1362266 L38.9433394,90.1362266 C39.1748041,90.1362266 39.4679928,90.1979506 39.7241471,90.2720193 L39.9077758,90.3291139 C40.5828813,90.5220012 41.1615431,90.9077758 41.6437613,91.4864376 C42.0295359,91.9686558 42.3188668,92.450874 42.5117541,93.0295359 L42.6253871,91.2143369 C42.9335293,85.761196 43.0392417,75.7700606 36.5322483,78.8523207 C31.8065099,81.0705244 28.4309825,86.7606992 25.0554551,90.6184448 L23.8247299,91.9983461 C22.3739632,93.6074007 20.7242589,95.2740424 18.7866184,96.0192887 Z"/>
    <path fill="#31CB4B" d="M40.1006631,91.7757685 C40.389994,91.9686558 40.5828813,92.1615431 40.7757685,92.3544304 C41.450874,93.0295359 41.7402049,94.1868596 41.8366486,95.2477396 C41.9330922,96.3086197 41.9330922,97.4659433 41.7402049,98.623267 C41.450874,100.841471 40.1971067,102.866787 38.9433394,104.79566 C37.689572,106.820976 36.3393611,108.749849 34.9891501,110.678722 C34.217601,111.643159 33.6389391,112.607595 33.0602773,113.668475 C32.3851718,114.729355 31.9029536,115.790235 31.3242917,116.851115 C30.2634117,118.972875 29.3954189,121.191079 28.7203134,123.505726 L28.5797852,124.064848 C28.3113745,125.172888 28.1195389,126.201524 28.0168734,126.823282 L27.948,127.268 L27.9487643,118.683544 C28.0420969,112.896926 29.8515442,107.923204 32.7652486,102.975704 L33.0602773,102.481013 C35.1820374,98.8161543 37.978903,95.4406269 40.1006631,91.7757685 Z M29.0096444,64 L29.0096444,76.5376733 C25.8270042,80.0096444 22.8372514,83.6745027 19.9439421,87.4358047 C18.4972875,89.2682339 17.2435202,91.2935503 15.9897529,93.3188668 C15.411091,94.2833032 14.8324292,95.3441832 14.2537673,96.4050633 C13.7715491,97.4659433 13.2893309,98.5268234 13,99.6841471 L13,95.9228451 C13,93.801085 13.0964436,91.389994 13.2893309,89.1717902 C13.6751055,85.6033755 15.7004219,82.4207354 17.6292948,79.4309825 C21.1012658,74.0301386 25.0554551,68.9186257 29.0096444,64 Z"/>
  </g>
</svg>
