<?xml version="1.0" encoding="UTF-8"?>
<svg version="1.2" baseProfile="tiny-ps" id="_レイヤー_1" xmlns="http://www.w3.org/2000/svg" xmlns:xlink="http://www.w3.org/1999/xlink" viewBox="0 0 265.54 265.54">
    <title>AEON Bank</title>
  <!-- Generator: Adobe Illustrator 29.1.0, SVG Export Plug-In . SVG Version: 2.1.0 Build 142)  -->
  <g>
    <g>
      <g>
        <path d="M467.05,309.53l3.9-1.31s-.48-2.69-1.14-4.31c0,0-.73-1.81-.73-1.81l-4,1.58.7,1.59c.8,1.92,1.27,4.26,1.27,4.26Z" fill="#727171"/>
        <path d="M479.21,308.35h0c-.54.15-1.92.5-3.28.81v-8.08h4.51v-4.38h-4.51v-2.3h3.7v-1.54c.45.47,1.72,1.83,1.72,1.83v-6.3l-.29-.35c-.62-.75-1.65-1.65-2.92-2.77l-.65-.57c-.82-.74-1.54-1.37-2.32-1.91l-.31-.22h-3.05l-.35.65c-.96,1.77-2.91,3.79-5.64,5.81l-.5.37v5.61l1.93-1.29s.17-.13.34-.24v.91h3.87v2.3h-4.62v4.38h4.62v8.97c-1.46.24-3.46.57-5.07.79l-1.07.16v4.47l1.44-.23c4.44-.71,9.97-1.83,13.14-2.58l1-.23-.2-4.48-1.49.39ZM476.87,290.02h-5.12c.96-.9,1.73-1.73,2.27-2.46.79.63,1.51,1.25,1.99,1.68.26.23.55.5.86.79Z" fill="#727171"/>
        <path d="M477.78,301.85s-.49,2.38-.94,3.57c0,0-.35.99-.35.99l3.44,1.27.44-.94c.86-1.91,1.17-3.87,1.18-3.91l.04-.18-3.76-1.01-.05.2Z" fill="#727171"/>
        <path d="M494.56,304.4c-.46-1.1-.75-2.35-.94-3.32h5.64v-17.66h-16.79v32.13s.86-.25.86-.25c3.26-.92,4.26-1.25,7.24-2.19l.13-.05v-.15s.01-4.75.01-4.75l-1.16.52c-.94.38-1.66.67-2.62.99v-8.6h2.27c.27,2,.86,4.08,1.79,6.2,1.23,2.82,3.48,5.43,6.34,7.36l1.92,1.31v-5.64s-2-1.27-2.65-1.99c.28-.12,2.65-1.34,2.65-1.34v-5.01s-3.85,2.03-4.7,2.43ZM486.95,289.99v-2.14h7.84v2.14h-7.84ZM494.78,294.47v2.15h-7.84v-2.15h7.84Z" fill="#727171"/>
        <polygon points="536.47 283.37 536.27 283.37 517.33 283.37 517.33 287.85 536.47 287.85 536.47 283.37" fill="#727171"/>
        <path d="M537.69,292.45h-21.8v4.62h13.02v13.97c-.08.01-.19.02-.3.02-.96,0-1.26-.02-1.91-.06l-2.87-.16.38,1.62.72,3.07h2.47c2.07,0,3.68-.19,4.54-.6.78-.37,1.71-1.2,1.71-3.04v-14.82h4.25v-4.62h-.2Z" fill="#727171"/>
        <path d="M509.8,289.68h0c.58-.67,2.6-3.04,3.93-5.55l.98-1.83h-5.2l-.36.61c-.86,1.44-1.78,2.71-2.73,3.79-.56.63-1.22,1.28-1.95,1.91l-.44.38v6.09l2.04-1.72c1.31-1.12,2.58-2.36,3.73-3.67Z" fill="#727171"/>
        <path d="M515.6,289.7h-4.78l-.32.75c-.77,1.78-1.88,3.28-3.16,5-.97,1.3-1.95,2.44-2.93,3.38l-.38.37v6.37l2.07-1.89c.55-.5.79-.83,1.3-1.38v13.18h4.73v-18.72c1.16-1.63,2.31-3.66,3.03-5.33l.74-1.73h-.3Z" fill="#727171"/>
      </g>
      <g>
        <path d="M418.73,282.65h-5.72v5.49h-21.59v5.71h14.07c-.44,2.92-2.69,11.04-13.97,14.9v5.82s16.24-2.02,19.64-20.72h1.86v20.63h5.72v-20.63h5.64v-5.71h-5.64v-5.49Z" fill="#727171"/>
        <path d="M377.72,285.89c-2.03,1.06-11.77,6.14-11.77,6.14-2.51,1.38-4.85,1.57-6.77,1.57h-3.16v5.71h4.14c1.62,0,4.29.05,6.92-1.36l3.49-1.83v18.36h5.72v-21.33l3.18-1.67c2.52-1.36,4.02-1.32,6.16-1.32h3.15v-5.71h-4.6c-1.61,0-4.01.17-6.47,1.45Z" fill="#727171"/>
        <rect x="428.03" y="284.5" width="17.98" height="5.71" fill="#727171"/>
        <path d="M453.42,288.01s1.23,22.61-25.51,20.74v5.82s32.19,3.66,31.56-26.56h-6.06Z" fill="#727171"/>
      </g>
    </g>
    <g>
      <rect x="306.24" y="277.38" width="42.57" height="42.57" rx="1.7" ry="1.7" fill="#b60081"/>
      <path d="M342.95,286.64c0-2.24-18.42-3.98-35.74-3.92-.31,0-.63,0-.94,0v-.77c25.5,0,40.36,1.81,40.36,5.26,0,2.67-8.42,6.54-34.38,7.3-1.9.06-3.89.09-5.98.11v-4.3c22.64-.1,36.68-1.39,36.68-3.67Z" fill="#e7c2db"/>
      <g>
        <polygon points="321.02 299.37 324.96 299.37 324.96 298.38 318.81 298.38 312.4 306.83 313.64 306.83 319.92 298.54 319.92 306.83 325.06 306.83 325.06 305.84 321.02 305.84 321.02 299.37" fill="#fff"/>
        <polygon points="340.87 298.38 340.87 304.84 336.23 298.38 335.4 298.38 335.4 306.83 336.44 306.83 336.44 300.37 341.08 306.83 341.91 306.83 341.91 298.38 340.87 298.38" fill="#fff"/>
        <g>
          <path d="M317.88,310.11h2.33c.8,0,1.24.08,1.65.48.28.27.46.65.46,1.17,0,1.08-.79,1.36-1.1,1.47.38.11,1.3.38,1.3,1.63,0,.89-.57,1.34-.79,1.48-.45.3-.96.3-1.48.3h-2.38v-6.53ZM318.76,312.87h1.27c.31,0,1.36,0,1.36-1.03s-.82-.99-1.32-.99h-1.3v2.02ZM318.76,315.91h1.55c.71,0,1.28-.38,1.28-1.13,0-.65-.45-1.13-1.25-1.13h-1.58v2.26Z" fill="#fff" stroke="#fff" stroke-width=".1"/>
          <path d="M326.61,316.64c-.06-.23-.08-.44-.08-.68-.41.75-1.02.82-1.4.82-1.04,0-1.6-.59-1.6-1.34,0-.36.13-.94.8-1.33.49-.27,1.21-.3,1.57-.3.22,0,.35,0,.62.03,0-.56,0-.8-.16-1-.17-.23-.54-.3-.79-.3-.86,0-.9.59-.91.77h-.85c.03-.24.05-.55.32-.86.34-.38.99-.49,1.47-.49.66,0,1.37.21,1.61.67.14.27.15.49.15.7l-.04,2.17c0,.07,0,.68.07,1.14h-.77ZM326.02,314.41c-.34,0-1.64,0-1.64.92,0,.29.18.79.94.79.43,0,.76-.17.97-.49.19-.31.2-.56.22-1.19-.15-.02-.28-.03-.49-.03Z" fill="#fff" stroke="#fff" stroke-width=".1"/>
          <path d="M328.81,312.63v-.52s.84,0,.84,0v.73c.11-.19.43-.82,1.47-.82.41,0,1.65.15,1.65,1.55v3.08h-.87v-2.89c0-.3-.04-.57-.24-.78-.22-.21-.52-.31-.81-.31-.62,0-1.19.44-1.19,1.36v2.62h-.85v-4.02Z" fill="#fff" stroke="#fff" stroke-width=".1"/>
          <path d="M334.21,310.07h.84v3.89l1.7-1.85h1.11l-1.92,1.93,2.04,2.62h-1.11l-1.82-2.45v2.45h-.84v-6.58Z" fill="#fff" stroke="#fff" stroke-width=".1"/>
        </g>
        <path d="M330,298.19c-2.55,0-4.54,1.94-4.54,4.42s1.99,4.42,4.54,4.42,4.56-1.94,4.56-4.42-2-4.42-4.56-4.42M330.03,306.05c-1.91,0-3.45-1.54-3.45-3.45s1.54-3.45,3.45-3.45,3.45,1.55,3.45,3.45-1.54,3.45-3.45,3.45Z" fill="#fff"/>
        <path d="M327.1,301.55c1.62.15,1.95.56,1.91.76-.1.5-2.19.93-4.88.93s-4.89-.42-4.89-.93,2.5-.95,5.37-.95c0,0,.21,0,.21-.08,0-.11-.2-.1-.2-.1-4.07,0-6.25.61-6.25,1.42,0,.77,2.58,1.41,5.76,1.41s5.75-.64,5.75-1.41c0-.44-.67-1.03-2.8-1.23,0,0-.16-.02-.17.08-.01.1.19.11.19.11Z" fill="#fff"/>
        <rect x="319.92" y="300.28" width="1.1" height="2.07" fill="#fff"/>
      </g>
    </g>
  </g>
  <g>
    <g>
      <g>
        <path d="M177.75,144.02l3.9-1.31s-.48-2.69-1.14-4.31c0,0-.73-1.81-.73-1.81l-4,1.58.7,1.59c.8,1.92,1.27,4.26,1.27,4.26Z" fill="#727171"/>
        <path d="M189.91,142.84h0c-.54.15-1.92.5-3.28.81v-8.08h4.51v-4.38h-4.51v-2.3h3.7v-1.54c.45.47,1.72,1.83,1.72,1.83v-6.3l-.29-.35c-.62-.75-1.65-1.65-2.92-2.77l-.65-.57c-.82-.74-1.54-1.37-2.32-1.91l-.31-.22h-3.05l-.35.65c-.96,1.77-2.91,3.79-5.64,5.81l-.5.37v5.61l1.93-1.29s.17-.13.34-.24v.91h3.87v2.3h-4.62v4.38h4.62v8.97c-1.46.24-3.46.57-5.07.79l-1.07.16v4.47l1.44-.23c4.44-.71,9.97-1.83,13.14-2.58l1-.23-.2-4.48-1.49.39ZM187.58,124.51h-5.12c.96-.9,1.73-1.73,2.27-2.46.79.63,1.51,1.25,1.99,1.68.26.23.55.5.86.79Z" fill="#727171"/>
        <path d="M188.48,136.33s-.49,2.38-.94,3.57c0,0-.35.99-.35.99l3.44,1.27.44-.94c.86-1.91,1.17-3.87,1.18-3.91l.04-.18-3.76-1.01-.05.2Z" fill="#727171"/>
        <path d="M205.27,138.89c-.46-1.1-.75-2.35-.94-3.32h5.64v-17.66h-16.79v32.13s.86-.25.86-.25c3.26-.92,4.26-1.25,7.24-2.19l.13-.05v-.15s.01-4.75.01-4.75l-1.16.52c-.94.38-1.66.67-2.62.99v-8.6h2.27c.27,2,.86,4.08,1.79,6.2,1.23,2.82,3.48,5.43,6.34,7.36l1.92,1.31v-5.64s-2-1.27-2.65-1.99c.28-.12,2.65-1.34,2.65-1.34v-5.01s-3.85,2.03-4.7,2.43ZM197.65,124.48v-2.14h7.84v2.14h-7.84ZM205.49,128.96v2.15h-7.84v-2.15h7.84Z" fill="#727171"/>
        <polygon points="247.17 117.86 246.97 117.86 228.03 117.86 228.03 122.34 247.17 122.34 247.17 117.86" fill="#727171"/>
        <path d="M248.4,126.94h-21.8v4.62h13.02v13.97c-.08.01-.19.02-.3.02-.96,0-1.26-.02-1.91-.06l-2.87-.16.38,1.62.72,3.07h2.47c2.07,0,3.68-.19,4.54-.6.78-.37,1.71-1.2,1.71-3.04v-14.82h4.25v-4.62h-.2Z" fill="#727171"/>
        <path d="M220.5,124.17h0c.58-.67,2.6-3.04,3.93-5.55l.98-1.83h-5.2l-.36.61c-.86,1.44-1.78,2.71-2.73,3.79-.56.63-1.22,1.28-1.95,1.91l-.44.38v6.09l2.04-1.72c1.31-1.12,2.58-2.36,3.73-3.67Z" fill="#727171"/>
        <path d="M226.3,124.19h-4.78l-.32.75c-.77,1.78-1.88,3.28-3.16,5-.97,1.3-1.95,2.44-2.93,3.38l-.38.37v6.37l2.07-1.89c.55-.5.79-.83,1.3-1.38v13.18h4.73v-18.72c1.16-1.63,2.31-3.66,3.03-5.33l.74-1.73h-.3Z" fill="#727171"/>
      </g>
      <g>
        <path d="M129.43,117.14h-5.72v5.49h-21.59v5.71h14.07c-.44,2.92-2.69,11.04-13.97,14.9v5.82s16.24-2.02,19.64-20.72h1.86v20.63h5.72v-20.63h5.64v-5.71h-5.64v-5.49Z" fill="#727171"/>
        <path d="M88.42,120.38c-2.03,1.06-11.77,6.14-11.77,6.14-2.51,1.38-4.85,1.57-6.77,1.57h-3.16v5.71h4.14c1.62,0,4.29.05,6.92-1.36l3.49-1.83v18.36h5.72v-21.33l3.18-1.67c2.52-1.36,4.02-1.32,6.16-1.32h3.15v-5.71h-4.6c-1.61,0-4.01.17-6.47,1.45Z" fill="#727171"/>
        <rect x="138.73" y="118.99" width="17.98" height="5.71" fill="#727171"/>
        <path d="M164.12,122.5s1.23,22.61-25.51,20.74v5.82s32.19,3.66,31.56-26.56h-6.06Z" fill="#727171"/>
      </g>
    </g>
    <g>
      <rect x="16.94" y="111.87" width="42.57" height="42.57" rx="1.7" ry="1.7" fill="#b60081"/>
      <path d="M53.66,121.13c0-2.24-18.42-3.98-35.74-3.92-.31,0-.63,0-.94,0v-.77c25.5,0,40.36,1.81,40.36,5.26,0,2.67-8.42,6.54-34.38,7.3-1.9.06-3.89.09-5.98.11v-4.3c22.64-.1,36.68-1.39,36.68-3.67Z" fill="#e7c2db"/>
      <g>
        <polygon points="31.73 133.86 35.67 133.86 35.67 132.87 29.51 132.87 23.1 141.32 24.35 141.32 30.62 133.03 30.62 141.32 35.76 141.32 35.76 140.33 31.73 140.33 31.73 133.86" fill="#fff"/>
        <polygon points="51.57 132.87 51.57 139.33 46.94 132.87 46.1 132.87 46.1 141.32 47.14 141.32 47.14 134.86 51.79 141.32 52.61 141.32 52.61 132.87 51.57 132.87" fill="#fff"/>
        <g>
          <path d="M28.59,144.6h2.33c.8,0,1.24.08,1.65.48.28.27.46.65.46,1.17,0,1.08-.79,1.36-1.1,1.47.38.11,1.3.38,1.3,1.63,0,.89-.57,1.34-.79,1.48-.45.3-.96.3-1.48.3h-2.38v-6.53ZM29.46,147.36h1.27c.31,0,1.36,0,1.36-1.03s-.82-.99-1.32-.99h-1.3v2.02ZM29.46,150.4h1.55c.71,0,1.28-.38,1.28-1.13,0-.65-.45-1.13-1.25-1.13h-1.58v2.26Z" fill="#fff" stroke="#fff" stroke-width=".1"/>
          <path d="M37.31,151.13c-.06-.23-.08-.44-.08-.68-.41.75-1.02.82-1.4.82-1.04,0-1.6-.59-1.6-1.34,0-.36.13-.94.8-1.33.49-.27,1.21-.3,1.57-.3.22,0,.35,0,.62.03,0-.56,0-.8-.16-1-.17-.23-.54-.3-.79-.3-.86,0-.9.59-.91.77h-.85c.03-.24.05-.55.32-.86.34-.38.99-.49,1.47-.49.66,0,1.37.21,1.61.67.14.27.15.49.15.7l-.04,2.17c0,.07,0,.68.07,1.14h-.77ZM36.72,148.9c-.34,0-1.64,0-1.64.92,0,.29.18.79.94.79.43,0,.76-.17.97-.49.19-.31.2-.56.22-1.19-.15-.02-.28-.03-.49-.03Z" fill="#fff" stroke="#fff" stroke-width=".1"/>
          <path d="M39.52,147.11v-.52s.84,0,.84,0v.73c.11-.19.43-.82,1.47-.82.41,0,1.65.15,1.65,1.55v3.08h-.87v-2.89c0-.3-.04-.57-.24-.78-.22-.21-.52-.31-.81-.31-.62,0-1.19.44-1.19,1.36v2.62h-.85v-4.02Z" fill="#fff" stroke="#fff" stroke-width=".1"/>
          <path d="M44.91,144.55h.84v3.89l1.7-1.85h1.11l-1.92,1.93,2.04,2.62h-1.11l-1.82-2.45v2.45h-.84v-6.58Z" fill="#fff" stroke="#fff" stroke-width=".1"/>
        </g>
        <path d="M40.71,132.67c-2.55,0-4.54,1.94-4.54,4.42s1.99,4.42,4.54,4.42,4.56-1.94,4.56-4.42-2-4.42-4.56-4.42M40.73,140.54c-1.91,0-3.45-1.54-3.45-3.45s1.54-3.45,3.45-3.45,3.45,1.55,3.45,3.45-1.54,3.45-3.45,3.45Z" fill="#fff"/>
        <path d="M37.81,136.04c1.62.15,1.95.56,1.91.76-.1.5-2.19.93-4.88.93s-4.89-.42-4.89-.93,2.5-.95,5.37-.95c0,0,.21,0,.21-.08,0-.11-.2-.1-.2-.1-4.07,0-6.25.61-6.25,1.42,0,.77,2.58,1.41,5.76,1.41s5.75-.64,5.75-1.41c0-.44-.67-1.03-2.8-1.23,0,0-.16-.02-.17.08-.01.1.19.11.19.11Z" fill="#fff"/>
        <rect x="30.62" y="134.77" width="1.1" height="2.07" fill="#fff"/>
      </g>
    </g>
  </g>
</svg>