<?xml version="1.0" encoding="iso-8859-1"?>
<!-- Generator: Adobe Illustrator 27.6.1, SVG Export Plug-In . SVG Version: 6.00 Build 0)  -->
<svg version="1.2" baseProfile="tiny-ps" xmlns="http://www.w3.org/2000/svg" xmlns:xlink="http://www.w3.org/1999/xlink" 
	 viewBox="0 0 141.732 141.732"  xml:space="preserve">
	 <title>BRACK.CH</title>
<g id="Fl&#xE4;che">
	<rect x="0" fill="#FFFFFF" width="141.732" height="141.732"/>
</g>
<g id="Ebene_1">
	<rect x="22.865" y="22.865" fill="#E2001A" width="96.003" height="96.003"/>
	<rect x="32.945" y="32.404" fill="#FFFFFF" width="75.838" height="76.922"/>
	<g>
		<path fill="#E2001A" d="M95.483,83.773c0,12.829-9.198,14.728-20.768,14.728H46.25v-55.27h27.315
			c15.137,0,21.015,4.54,21.015,14.428c0,8.503-4.966,11.195-8.405,12.515c4.105,1.546,9.309,4.704,9.309,12.075
			C95.483,84.254,95.483,83.773,95.483,83.773z M72.519,53.148h-12.99v12.344h12.99c5.63,0,8.781-1.318,8.781-6.268
			C81.3,54.676,78.15,53.44,72.519,53.148z M73.375,75.387H59.529v13.197h13.847c6.017-0.292,8.891-2.206,8.891-6.537
			C82.266,77.136,79.392,75.387,73.375,75.387z"/>
	</g>
</g>
</svg>
