<?xml version="1.0" encoding="utf-8"?>
<svg version="1.2" baseProfile="tiny-ps" xmlns="http://www.w3.org/2000/svg" xmlns:xlink="http://www.w3.org/1999/xlink"
viewBox="0 0 512 512" xml:space="preserve">
    <title>VWO</title>
    <rect fill="#FFFFFF" width="512" height="512"/>
    <path fill="#BF3078" d="M406.2,183c-2.8,0-6.1,0-8.8,0.5l-16,27.5c7.2-4.3,16-6.5,24.8-6.5c28.6,0,52.3,23.2,52.3,51.2
    c0,28-23.7,51.2-52.3,51.2c-28.6,0-51.7-22.6-52.3-50.7l-16.5,27.5c11,26.4,38,44.8,68.2,44.8c40.7,0,74.3-32.9,74.3-72.8
    C480.5,215.9,447,183,406.2,183z"/>
    <path fill="#802050" d="M181.7,259l12.7-21.6l28.6,48l33-55.5l33,55.5l56.7-94.4c2.8-4.9,8.3-8.1,14.3-8.1h16l-87,145.6l-33-55.5
    l-33,55.5L181.7,259z"/>
    <path fill="#26134D" d="M205.4,183l-87,145.6L32,183h16c6.1,0,11.6,3.2,14.3,8.1l56.1,94.9l56.7-94.9c2.8-4.9,8.3-8.1,14.3-8.1
    H205.4z"/>
</svg>
