<?xml version="1.0" encoding="utf-8"?>
<!-- Generator: Adobe Illustrator 28.1.0, SVG Export Plug-In . SVG Version: 6.00 Build 0)  -->
<svg version="1.2" baseProfile="tiny-ps" id="Layer_1" xmlns="http://www.w3.org/2000/svg" xmlns:xlink="http://www.w3.org/1999/xlink"
	 viewBox="0 0 1000 1000" xml:space="preserve">
<title>Dandi Technologies, Inc.</title>
<g id="design">
</g>
<path fill="#111112" d="M322.3,499.2c0,0,5.6-44.9,61-47c39.5-1.5,65.9,21,65.9,59.3v102.1h-32.9v-16.5c0,0-18.1,19.8-47.8,19.8
	c-32.9,0-56-23.1-56-46.1c0-26.4,17.2-45.4,46.1-49.4c23.3-3.2,58.4-6.7,58.4-19.1c0-16-10.4-25.4-31.5-25.4c0,0-27.4-0.2-33.7,22.3
	L322.3,499.2L322.3,499.2z M416.3,541.2v-9.9c0-0.9-1-1.4-1.7-0.9c-10.4,7.9-34.9,11.8-49.3,15.7c-12.5,3.3-19.8,9.9-19.8,21.4
	c0,9.9,9.9,19.8,28,19.8C399.8,587.4,416.3,570.9,416.3,541.2z"/>
<path fill="#111112" d="M517.7,474.8c0,1,1.3,1.5,2,0.7c4.9-6.9,19.3-23.2,45.8-23.2c37.9,0,62.1,26.4,62.1,69.2l0,92.2h-32.9v-92.3
	c0-23.1-12.1-39.6-33.5-39.6c-24.7,0-43.4,16.5-43.4,51.1v80.7h-32.9V455.5h32.9V474.8z"/>
<path fill="#111112" d="M780.2,481.8V383h32.9v230.7h-32.9v-22.6c0-1.1-1.4-1.5-2-0.6c-5.2,7.6-21,26.5-49.1,26.5
	c-41.2,0-75.3-36.3-75.3-82.4c0-46.1,34-82.4,75.3-82.4c31.2,0,44.4,20.2,49,30.1C778.5,483.4,780.2,483,780.2,481.8z M780.2,534.6
	c0-29.6-23.1-52.7-47.8-52.7c-24.7,0-45.6,23.1-45.6,52.7c0,29.6,20.9,52.7,45.6,52.7C757.1,587.4,780.2,564.3,780.2,534.6z"/>
<path fill="#111112" d="M889.3,613.7h-32.9V455.5h32.9V613.7z M889.3,429.7h-32.9v-33.2h32.9V429.7z"/>
<path fill="#111112" d="M173.3,383h-20.6V416h20.6c44.5,0,80.7,36.3,80.7,82.4s-36.3,82.4-80.7,82.4h-20.6v33h20.6
	c64.3,0,117-52.7,117-115.4C290.3,435.7,237.6,383,173.3,383z"/>
<path fill="#111112" d="M92.6,434.1V470h36.3v-35.9H92.6z"/>
<path fill="#111112" d="M92.6,524.6v35.9h36.3v-35.9H92.6z"/>
</svg>
