<?xml version="1.0" encoding="UTF-8" standalone="yes"?><svg xmlns="http://www.w3.org/2000/svg" xmlns:xlink="http://www.w3.org/1999/xlink" width="60px" height="60px" viewBox="0 0 60 60" version="1.2" baseProfile="tiny-ps"><title>Mimeo Photos</title><defs><linearGradient x1="12.7836725%" y1="6.30863321e-16%" x2="87.2163275%" y2="100%" id="linearGradient-1"><stop stop-color="#E14E91" offset="0%"></stop><stop stop-color="#6748C1" offset="100%"></stop></linearGradient><linearGradient x1="77.4701599%" y1="7.66805321%" x2="16.9376545%" y2="95.7734875%" id="linearGradient-2"><stop stop-color="#8DC85A" offset="0%"></stop><stop stop-color="#1FB8C2" offset="100%"></stop></linearGradient><linearGradient x1="100%" y1="1.07032089e-14%" x2="5.31583727e-15%" y2="1.07032089e-14%" id="linearGradient-3"><stop stop-color="#25B8B7" offset="0%"></stop><stop stop-color="#10A7EB" offset="49.7532872%"></stop><stop stop-color="#7B56BF" offset="100%"></stop></linearGradient><linearGradient x1="1.01817974e-14%" y1="100%" x2="100%" y2="100%" id="linearGradient-4"><stop stop-color="#FF4B4B" offset="0%"></stop><stop stop-color="#FFFC2D" offset="100%"></stop></linearGradient><linearGradient x1="-2.05214502e-13%" y1="0.0409922142%" x2="100%" y2="99.9590078%" id="linearGradient-5"><stop stop-color="#F3E74B" offset="0%"></stop><stop stop-color="#D9DF50" offset="100%"></stop></linearGradient><linearGradient x1="50%" y1="4.19974877e-16%" x2="50%" y2="100%" id="linearGradient-6"><stop stop-color="#FFD427" offset="0%"></stop><stop stop-color="#B445B0" offset="40.7912796%"></stop><stop stop-color="#10A7EB" offset="100%"></stop></linearGradient></defs><g id="Page-1" stroke="none" stroke-width="1" fill="none" fill-rule="evenodd"><g id="Group-2" transform="translate(-106, -28)"><g id="Mimeo-Photos-Logo" transform="translate(106, 28)"><path d="M1.36709839,21.0218811 C0.478789541,23.8566395 0,26.8724207 0,29.9999833 C0,34.1146261 0.82869919,38.0357952 2.32836496,41.6058227 L16.5070692,41.6058227 C17.198306,41.6058227 17.7586643,41.0461786 17.7586643,40.3558227 C17.7586643,40.0854111 17.6708632,39.8222911 17.5084351,39.6059424 C16.3020647,37.9990979 15.4316727,36.2718664 14.8972593,34.4242477 C14.5397372,33.1881926 14.2675657,31.4511108 14.2745556,30.0839615 C14.2962125,28.4857941 14.5365013,26.7591476 15.0192562,25.2579689 C15.3798908,24.2824708 15.7134877,23.4607102 16.0200469,22.7926872 C16.3080472,22.1651058 16.032113,21.4231777 15.4037308,21.1355444 C15.2401122,21.0606503 15.0622448,21.0218811 14.8822601,21.0218811 L1.36709839,21.0218811 Z" id="Path" fill="url(#linearGradient-1)"></path><path d="M58.6329016,21.0218811 C59.5212105,23.8566395 60,26.8724207 60,29.9999833 C60,34.1146261 59.1713008,38.0357952 57.671635,41.6058227 L43.4929308,41.6058227 C42.801694,41.6058227 42.2413357,41.0461786 42.2413357,40.3558227 C42.2413357,40.0854111 42.3291368,39.8222911 42.4915649,39.6059424 C43.6979353,37.9990979 44.5683273,36.2718664 45.1027407,34.4242477 C45.4602628,33.1881926 45.7324343,31.4511108 45.7254444,30.0839615 C45.7037875,28.4857941 45.4634987,26.7591476 44.9807438,25.2579689 C44.6201092,24.2824708 44.2865123,23.4607102 43.9799531,22.7926872 C43.6919528,22.1651058 43.967887,21.4231777 44.5962692,21.1355444 C44.7598878,21.0606503 44.9377552,21.0218811 45.1177399,21.0218811 L58.6329016,21.0218811 Z" id="Path" fill="url(#linearGradient-2)"></path><path d="M30.0123052,60 C40.7831148,60 50.2287401,54.328538 55.5234177,45.810219 L4.50119279,45.810219 C9.7958704,54.328538 19.2414957,60 30.0123052,60 Z" id="Path" fill="url(#linearGradient-3)"></path><path d="M6.06633232,11.9124088 C11.5457245,4.67557031 20.2327719,0 30.0123052,0 C39.7918386,0 48.478886,4.67557031 53.9582781,11.9124088 L41.5225909,11.9124088 C40.714872,11.9124088 39.9657833,11.4906347 39.546921,10.8000088 L38.4343263,8.9655475 C38.2248952,8.62023455 37.8503508,8.40934753 37.4464914,8.40934753 L22.6660553,8.40934753 C22.2621959,8.40934753 21.8876515,8.62023455 21.6782204,8.9655475 L20.5656257,10.8000088 C20.1467634,11.4906347 19.3976746,11.9124088 18.5899558,11.9124088 L6.06633232,11.9124088 L6.06633232,11.9124088 Z" id="Path" fill="url(#linearGradient-4)"></path><path d="M47.7568069,18.2189781 C46.7889039,18.2189781 46.0042635,17.4346594 46.0042635,16.4671533 C46.0042635,15.4996472 46.7889039,14.7153285 47.7568069,14.7153285 C48.7247098,14.7153285 49.5093502,15.4996472 49.5093502,16.4671533 C49.5093502,17.4346594 48.7247098,18.2189781 47.7568069,18.2189781 Z" id="Path" fill="url(#linearGradient-5)"></path><path d="M30.0561188,17.080292 C37.2186008,17.080292 43.0249398,22.8842503 43.0249398,30.0437956 C43.0249398,37.203341 37.2186008,43.0072993 30.0561188,43.0072993 C22.8936368,43.0072993 17.0872979,37.203341 17.0872979,30.0437956 C17.0872979,22.8842503 22.8936368,17.080292 30.0561188,17.080292 Z M30.0561188,19.8832117 C24.4422815,19.8832117 19.8913673,24.4322601 19.8913673,30.0437956 C19.8913673,35.6553312 24.4422815,40.2043796 30.0561188,40.2043796 C35.6699561,40.2043796 40.2208704,35.6553312 40.2208704,30.0437956 C40.2208704,24.4322601 35.6699561,19.8832117 30.0561188,19.8832117 Z" id="Combined-Shape" fill="url(#linearGradient-6)"></path></g></g></g></svg>