<?xml version="1.0" encoding="utf-8"?>
<!-- Generator: Adobe Illustrator 28.0.0, SVG Export Plug-In . SVG Version: 6.00 Build 0)  -->
<svg version="1.2" baseProfile="tiny-ps" id="Layer_1" xmlns="http://www.w3.org/2000/svg" xmlns:xlink="http://www.w3.org/1999/xlink"
	  viewBox="0 0 113 112"  xml:space="preserve">
<title>MedialakeAI</title>
<path fill="#FFFFFF" d="M31.2,0.1h50.1c17,0,30.8,13.8,30.8,30.8V81c0,17-13.8,30.8-30.8,30.8H31.2c-17,0-30.8-13.8-30.8-30.8V31
	C0.3,13.9,14.1,0.1,31.2,0.1z"/>
<path d="M94.7,71.5c-2.6,2.6-6.8,2.6-9.4,0c-1.1-1.1-1.7-2.5-1.9-3.9c-0.5-3.9-2.3-7.6-5.2-10.6c-3-3-6.7-4.7-10.6-5.2
	c-1.4-0.2-2.8-0.8-3.9-1.9c-2.6-2.6-2.6-6.8,0-9.4c2.6-2.6,6.8-2.6,9.4,0c1.1,1.1,1.7,2.4,1.9,3.7c0,0.1,0,0.1,0,0.2
	c0.5,3.9,2.3,7.6,5.2,10.6c3,3,6.7,4.7,10.6,5.2c0.1,0,0.1,0,0.2,0c1.4,0.2,2.7,0.8,3.7,1.9C97.3,64.7,97.3,69,94.7,71.5L94.7,71.5z
	"/>
<path d="M70.4,62.1c-1.1-1.1-2.4-1.7-3.7-1.9c-0.1,0-0.1,0-0.2,0c-3.9-0.5-7.6-2.3-10.6-5.2c-3-3-4.7-6.7-5.2-10.6
	c0-0.1,0-0.1,0-0.2c0-0.1,0-0.2,0-0.3c0-0.1,0-0.1,0-0.2c0,0,0,0,0-0.1c0-0.1,0-0.1-0.1-0.2c0,0,0,0,0,0c0-0.1,0-0.1-0.1-0.2
	c0,0,0,0,0-0.1c0-0.1,0-0.1-0.1-0.2c0-0.1-0.1-0.2-0.1-0.3c0-0.1-0.1-0.1-0.1-0.2c0,0,0,0,0,0c0-0.1-0.1-0.1-0.1-0.2
	c0-0.1-0.1-0.1-0.1-0.2c0,0,0-0.1-0.1-0.1c0-0.1-0.1-0.1-0.1-0.1c0,0,0-0.1-0.1-0.1c-0.1-0.1-0.2-0.3-0.3-0.4c0-0.1-0.1-0.1-0.1-0.2
	c-0.1-0.1-0.1-0.1-0.2-0.2c-0.1-0.1-0.1-0.1-0.2-0.2c-0.1-0.1-0.1-0.1-0.2-0.2c-2.6-2.6-6.8-2.6-9.4,0c-0.1,0.1-0.1,0.1-0.2,0.2
	c-0.1,0.1-0.2,0.3-0.3,0.4c-0.1,0.1-0.1,0.1-0.1,0.2c0,0,0,0,0,0c0,0.1-0.1,0.1-0.1,0.2c-0.1,0.1-0.1,0.1-0.1,0.2
	c0,0.1-0.1,0.1-0.1,0.2c0,0,0,0,0,0c0,0.1-0.1,0.1-0.1,0.2c0,0.1-0.1,0.1-0.1,0.2c0,0,0,0,0,0c0,0.1-0.1,0.1-0.1,0.2
	c0,0.1-0.1,0.2-0.1,0.3c0,0.1-0.1,0.1-0.1,0.2s0,0.1-0.1,0.2c0,0,0,0,0,0c0,0.1,0,0.2-0.1,0.2c0,0.1,0,0.2-0.1,0.2
	c0,0.1,0,0.2,0,0.3c0,0,0,0.1,0,0.1c0,0,0,0.1,0,0.1s0,0,0,0.1c-0.5,3.9-2.3,7.6-5.2,10.6c-3,3-6.7,4.7-10.6,5.2c-0.1,0-0.1,0-0.2,0
	c-1.4,0.2-2.7,0.8-3.7,1.9c-2.6,2.6-2.6,6.8,0,9.4c2.6,2.6,6.8,2.6,9.4,0c1.1-1.1,1.7-2.5,1.9-3.9c0-0.2,0.1-0.4,0.1-0.6
	c0-0.1,0-0.1,0-0.2c0-8.3,6.7-14.9,14.9-15c0,0,0,0,0,0s0,0,0,0c8.2,0,14.9,6.7,14.9,15c0,0.1,0,0.1,0,0.2c0,0.2,0.1,0.4,0.1,0.6
	c0.2,1.4,0.8,2.8,1.9,3.9c2.6,2.6,6.8,2.6,9.4,0C73,68.9,73,64.7,70.4,62.1L70.4,62.1z"/>
</svg>
