<?xml version="1.0" encoding="UTF-8"?>
<svg version="1.2" baseProfile="tiny-ps" id="Layer_1" xmlns="http://www.w3.org/2000/svg" xmlns:xlink="http://www.w3.org/1999/xlink" viewBox="0 0 1900 1900">
    <title>Company title</title>
    <g>
        <g id="mask0_1434_2047">
            <path d="M1771.3,608.4H103.5v702h1667.8v-702Z" fill="#fff" />
        </g>
    </g>
    <g>
        <!-- Generator: Adobe Illustrator 28.7.1, SVG Export Plug-In . SVG Version: 1.2.0 Build 142) -->
        <g>
            <g id="Layer_1">
                <rect x="-61.8" y="-47.6" width="2029.9" height="2004.9" fill="#ffa300" />
            </g>
            <g class="cls-1">
                <g>
                    <path d="M758.3,613.9h2.7c-.4,4.2-.4,9.3-.4,14.8.2,5.1.8,9.7,1.5,13.8h-1.9c-3.2-.2-5.1-3-5.7-3.6-.4-8.7-.8-17.1-1.3-25.8,1.5.2,3.2.4,4.9.6M762.9,649.5c2.1.4,3.6.8,4.9,1.1-.4-1.5-.6-3.6-1.1-5.9,0,0-.2-1.5-.4-3-2.5-16.5-1.1-27.5-1.1-28.8l.4-2.1c0-1.3-.8-1.7-.8-1.7,0,0-1.9,0-4.9-.2-25.2-1.5-40.4,1.5-45,2.5-.8.4-1.5,1.1-1.3,2.1.8,11.2.4,30.9,0,36.4v1.1c10.4-3.8,19-4.7,24.5-4.7,9.3,0,18.6,1.9,25,3.2" fill="#2f3850" />
                    <path d="M793.1,967h-221.2c-2.7,10.2-9.1,18.6-17.6,23.5v54.6c8.5,4.7,15,13.1,17.6,23.3h88.6c38.1-39.2,97.9-54.4,150.4-39v-39.2c-8.5-4.9-15-13.1-17.8-23.5" fill="#2f3850" />
                    <path d="M1137.9,899.5c1.1-3.6,2.3-7.2,3.6-11,9.1,1.3,18.2,2.5,27.3,3.6-.8,2.1-1.9,4.2-3.2,6.6-.6,1.5-1.3,3.2-1.9,4.9-8.7-1.3-17.1-2.8-25.8-4ZM1171.1,884c-8.9-1.1-17.8-2.3-26.9-3.6,13.5-20.7,30-15.2,26.9,3.6ZM1096,891.7c-59-11.9-117.4-27.5-174.5-46.8,59.4,15,119.1,27.5,179.1,37.3-1.5,3.2-3,6.4-4.7,9.5ZM817.3,822.9c.4-4.2-6.6-4.9-8.2-2.8,1.1-2.1-1.1-8.7-2.8-10,1.1-.8,2.5-1.9,4.4-2.8,9.5-6.4,20.7,14.8,6.6,15.5ZM798,821.2c0-1.1-1.1-4.2-1.9-5.1-11.2-4.4-22,5.5-31.9,9.3-32.8,2.8-5.9-12.7-3-25.8,0,2.5.2,6.4,1.1,8.9,1.1.6,2.5,1.5,3.6,2.1,9.3-.6,14.4-7,20.7-13.5-.4,2.3,2.1,8.3,4.4,10.4,1.9.6,6.8-.4,8.2-1.5,0,3.4,2.5,8.7,3.8,12.5-1.7.2-4.4,1.7-5.3,2.8M735.8,815c1.1-9.5-7.4-29.9-14.2-34.9,2.1-1.1.6-9.7-1.9-10,11.8-9.7,40.2.2,19.9,16.5,0,3,4,9.3,6.6,10.2,4-1.5,7.8-11.6,6.6-14.4,9.1,7-1.3,21.8-7.2,27.9-2.5-1.3-9.3,2.8-9.7,4.7ZM705.6,736c6.8-25.8,29.8-28.8,52.4-9.3,1.7,3.4,2.1,6.1,1.3,6.6l-3.4-.4,8.5,26.3c-1.5,0-4.4-.2-5.9,0-1.5-27.7-30.2-49.8-52.9-22.9M724,694.8c5.1-.2,13.5,1.3,18.4,3.2-1.9-9.5,3.6-9.7,5.5-16.7-1.9-.6-3.8-1.1-5.7-1.7,1.1-1.1,2.3-3.6,2.7-4.9,1.3,2.8,15.4,3.2,18.8-1.5,0,5.7,12.1,8,.6,10.6-2.3,3,3.4,9.5-1.9,11-.4,0,0,4.4,1.1,6.1-1.7,3.4-9.9,1.3-10.2-3.4-1.3-.8-5.7,2.1-5.5,4.9,2.1,2.8,4.9,7,2.3,10.8-4.9-4.9-21.4-8.5-26.6-6.6-3-1.5-1.5-11,.6-11.4M875.8,888.3c-5.3-.6-9.7.4-12.9,1.7,1.1-1.5,4-5.3,9.5-7,2.5-.8,4.9-.8,6.6-.8-1.3-1.5-3.4-3.6-6.8-5.1-4-1.9-7.8-2.1-9.7-2.1-5.5-.6-12.9-1.7-21.6-3.2-23.9-4.7-27.1-10.2-30.2-11.6-.8-.4-3.8-13.1-4-15.2,4.4.8,5.9.6,8-1.5l-.6-1.3c-1.7-5.3-3.8-8.3,3.4-11,3.2-2.5,7.6-.8,11.2-2.3,1.1-1.9,1.9-5.1,2.1-8.7,84.6,34.9,171.9,61.4,261.2,79.4-15.9,46.4-49.1,82.4-82.5,118.6-6.3,6.1-10.8,10.2-13.1,13.3,14.6,7,28.6-3.4,42.7-7,54.1,8.5,80.6-68.4,96-116.9,8.5,1.5,16.9,2.8,25.4,4-6.8,19.5-9.5,37.9-11.4,55.9,30.2,12.5,64.1,21.8,96.7,27.3-24.5-42.3-34.9-97.8-32.6-148-44,19.5-12.5-7.4-53.7-19.9-29.8-6.1-46.3,24.3-55.4,47.6-91.6-14.6-182.5-35.8-272.2-63.1,0,0-1.5-.4-2.3-.6-9.3-25-34.9,5.7-37.6-20.7-4.4,1.5-10.6,1.7-10.2-3.2.8-9.7-18.6-46.6-17.3-64.8-4.9-1.5-9.5-6.6-8-12.1,4.2-6.6,20.1,0,12.7-12.1,5.3-3.2-.6-5.3,1.3-9.1,1.5-3.8,8.9-5.3,6.6-10.2-8.5-1.9-7.8-13.8-10.4-19.5,7.4,4.2,27.1-8,6.8-12.3.2,1.3.4,3,.6,4.4,10.4,5.9-9.9,5.1-13.5,3.4-29.6-13.5-91.6,18-44.4,8.3-1.7,5.3-1.3,9.3,1.3,15.2,11,22.2-18,40.9-17.3,63.1-7,36.2,29.8,94.4-.6,122.4v47.6h99.6v13.3h-274.1v189.7h104.3c1.9-4.4,4.2-8.9,6.6-13.1,4-7,8.5-13.8,13.5-19.9h-87.1c-2.1-9.3-5.3-20.5-14.2-25l-6.3-3.6v-69.2c12.3-4.7,18.6-15.9,20.5-28.6h240.5c2.1,9.5,5.3,20.3,14.4,25l6.3,3.6v50.6c16.5,6.4,31.9,15.7,45,27.1,10.8-3.8,107.9-20.5,113.1-37,.4-1.1.6-2.3.6-3.8v-79.8c-3.6-5.1-10.6-12.1-13.5-11.2v91.9c-6.6,1.7-24.7,6.6-31.5,8.3-14,3.6-42.9,11.2-56.9,14.8l-1.9-9.5c-8-4.2-19.9-18-25.6-27.7,4-29.4-3-71.3,16.5-24.3,1.9,11.6,3,22.7,8,25.2,1.7.8,3.8-.6,5.1.6-.4,4.7.6,11,1.3,16.1-.6,0,2.3,4.9,3.6,7l70.2-18.4c-.2-3.8,1.7-14.2-3.4-15.9-42.3,21.4-48.6-12.1-57.9-57.2-1.1-3.4-2.7-8.7-3.8-11.9-1.5-3.8-3-8.3-4-13.5-1.1-4.4-2.3-11-2.1-19.5,0-.4,0-1.3-.2-2.1-1.3-3.8-7.6-4.7-10.2-5.1" fill="#2f3850" />
                    <path d="M327.2,843.4s.8.6,1.1.8c5.3,11.2,12.3,22,21.4,32.6.6.6,1.3,1.5,1.7,2.1-1.3-.6-2.3-1.3-3.6-1.9-3.8-2.1-7.8-4.2-12.1-5.5-.2-.4-.6-1.1-1.1-1.5-2.1-3-5.5-4-8.7-5.1-.4,0-1.1-.4-1.5-.4l-1.7-.6.8,1.5c.6,1.3,1.3,2.8,1.3,4-1.5,0-3,.4-4.4,1.3,3-9.7-1.9-20.1-6.3-29.2-.6-1.1-1.1-2.3-1.5-3.2,1.1.6,2.1,1.1,3.4,1.5,1.9.6,3.8,1.3,5.9,1.9,1.9.6,3.6,1.3,5.3,1.9M322.6,876.4s1.7,1.9,2.5,3v9.1c0,1.3,0,2.8.2,4,0,1.1,0,2.1.4,3.2h-1.7c-.2-.8-.6-1.5-1.1-2.3-.6-1.5-1.3-3.2-1.9-4.7-1.3-3.4-2.5-6.8-3.6-9.7-.4-1.1-.2-1.7.4-2.3.6-1.1,1.3-2.3,1.9-3.4.8,1.1,1.9,2.3,2.7,3.4M685.1,903.5s-1.5-1.5-3-1.7h-.4c1.1-2.5,1.9-5.5-1.1-7.8,0,0,.6-1.7.8-2.5.2-.8.2-1.5,0-2.1-.2-.4-.6-.8-1.7-.8h-3.4s.2-.4.4-.6c.4-.6,1.1-1.7.6-2.5-.2-.6-1.1-1.1-2.3-1.5.8-1.1,1.9-2.1,3-3.6l.8-1.1h-1.3s-1.1-.4-1.7-.6c-.8-.2-1.5-.4-2.3-.4-9.7.8-21.6,6.1-25,17.8v.4c-.4,1.5-.6,2.5-.6,3.6v.6s0,1.9-.6,2.8c-2.3-.6-4.9-1.3-7.6-1.9.4-1.1.6-2.1,1.1-3,.6-1.3,1.3-2.3,1.9-3.6.2-.4.6-.8.8-1.3.2-.4.4-.8.8-1.3l.6-.8h-1.7s-1.5-.2-1.9-.2c-1.7,0-3.4.6-5.1,1.5h-.2c-1.5.8-2.8,1.9-4.4,3.6v-4.4s-.2-1.5-.8-2.1c-.8-.8-2.1-.8-4.4-.6-.8,0-1.9.2-2.8.4-1.3,0-2.5.2-3.6.4-2.7.4-5.3.6-8,.8-2.7.2-5.5.6-8,.8h-.6c.6-1.1,1.3-2.1,1.7-3.2.6-1.1,1.1-2.1,1.5-3v-.6c1.1-1.7,2.1-4,1.1-5.5-.4-.4-.8-.8-1.7-.8.6-1.1,1.1-1.9,1.5-3v-.4c5.1,5.7,11.8,6.4,18.2,6.1,5.1,0,9.5-1.3,13.1-3.6,1.5-.8,2.7-2.1,3.4-3.4.8-1.5.8-2.5.4-3.2-.2-.6-1.1-1.5-3-1.7h-.4c1.1-2.3,2.1-5.5-1.1-7.8,0-.2.2-.4.4-.8.2-.6.6-1.3.8-1.9.2-.8,0-1.5-.2-2.1-.2-.4-.6-.8-1.7-.8h-3.4s0,0,.2-.2c.4-.4,1.1-1.3.8-2.1s-1.1-1.5-2.7-2.1c0,0,.2-.2.4-.4.8-.8,1.7-2.1,2.7-3.2l.8-.8h-1.1s-.8-.6-1.1-.6c-1.1-.4-1.9-.6-3-.4-9.5.8-22,6.4-25.2,18.6-.2,1.1-.6,2.1-.4,3.4.4,1.9-.8,3.4-1.9,5.1-.8,1.3-1.7,2.3-2.1,3.8-.8,2.3-2.3,3.8-4.7,4.4-.2-1.3-.4-2.3-.6-3.6,3.6-9.3,5.1-17.1,4.4-24.1v-3.6c-.2-3.6-2.3-6.4-4.4-8.9-.4-.4-.6-.8-1.1-1.3l-1.1-1.5v1.7c-.4,4.2-2.7,7.2-5.1,10.6-.4.6-.8,1.3-1.3,1.9-2.1,3-3.8,5.5-5.3,8,0-2.3.2-4.7,0-7.4v-3.6c-.2-3.6-2.3-6.4-4.4-8.9-.4-.4-.6-.8-1.1-1.3l-1.1-1.5v1.7c-.4,4.2-2.7,7.2-5.1,10.6-.4.6-.8,1.3-1.3,1.9-3.6,4.9-6.3,9.3-8.2,13.8,0-.4-.2-.8-.4-1.3,0-.6-.4-1.5-.8-2.1.6-3.8,1.5-7.6,2.3-11.2l.8-3.8s.6-1.5,1.7-1.7c12.3-5.3,14.2-18.6,15.9-30.5.2-1.5.4-3,.6-4.4v-2.5h-.4s-.4-.2-.8-.2h-.4c-1.1,1.1-2.1,1.9-3.2,2.8-.2,0-.4.4-.6.6,0-.4,0-.8-.2-1.5-.4-1.1-1.1-2.1-1.5-3.2v-.6l-.8.2c-.4,0-.6.4-1.1.4-.6.4-1.5.6-2.1,1.1-.4.2-.8.6-1.5,1.1-.2-.6-.4-1.3-.8-1.9-.4-.8-1.1-1.9-2.1-1.9s-1.7.6-2.1,1.3c-.6.6-1.3,1.7-1.7,2.5,0,0,0,.4-.2.4l-.4-1.1s-.8-1.7-1.3-2.5l-.4-.8-.6.6c-2.3,2.1-3,4.7-3.4,7-1.9,0-3.4.6-3.8,3.6-.8,4.2-1.9,8.9-1.9,13.3.2,7.4,3.2,13.1,8.9,16.7l.2.6c-.4,2.1-.8,4.2-1.3,6.1,0,.4,0,.8-.2,1.3,0-.4-.2-1.1-.4-1.5,0-.4,0-.8-.2-1.3-.4-1.9-1.1-4-3.6-5.5l-.8-.4v1.1c-.4,1.3-.6,2.3-.8,3.6-.2,1.5-.6,2.8-.6,4.2-.6,6.1-1.1,12.5-1.7,18.4v1.1l-3.4,1.3c-.2-.8-.4-1.9-.8-3-.6-2.5-1.5-5.1-2.1-7.6-.2-1.3-.8-2.3-1.3-3.4-.2-.4-.4-.8-.6-1.3v-.6l-.8.2h-1.1v.4c-1.5,4.4-1.7,9.1-1.9,13.3,0,1.9,0,3.6-.2,5.5v1.1c-1.1.8-2.1,1.9-3,3.2-1.1,1.3-1.9,2.5-2.5,3.8h-2.7c0-1.3,0-2.3.2-3.4,0-1.1,1.1-3.4,1.9-5.9,2.3-6.6,5.3-14.8,2.7-17.6-1.1-1.1-2.7-1.3-5.1-.6-7.2,1.7-12.9,8.9-13.3,16.7v.6c-1.9-2.3-3.4-4.4-5.1-6.6-.4-2.3-.4-5.1-.2-7.6v-5.7c0-2.5-.4-5.1-1.9-5.9-.6-.2-1.3-.4-1.9,0v-3.8c7.2,3,13.3,0,18.8-3,6.8-4,10.6-8.7,11.2-14,0-1.7-.6-2.5-1.1-3-.6-.4-1.7-.8-3.4,0h-.4c-.2-2.5-.8-5.7-4.7-6.4v-2.8s-.8-1.5-1.3-1.7c-.6-.2-1.3-.4-2.1,0l-3.4,1.7s0-.4-.2-.6c-.4-1.1-.8-2.3-2.8-2.5,0-.4,0-.8.2-1.3,0-1.1.4-2.3.6-3.6v-1.1l-.8.4c-.4,0-1.1.2-1.5.4-.8,0-1.7.4-2.3.8-8.5,5.7-16.3,16.1-13.5,28.2-3.2,2.5-5.1,6.4-6.8,10-3-4.4-3.8-9.7-3-16.7v-1.1l-.8.4c-1.9.6-3,1.5-4.2,2.5-.2-1.3-.6-2.5-1.3-3.8-.8-2.5-1.7-5.3-1.5-6.6.6-1.5,1.5-3,2.3-4.4,3-5.5,6.1-11,4.2-17.6-.2-.6-.4-1.5-.6-2.3-.6-2.1-1.3-4.4-3-6.1-.6-.6-1.3-.8-1.9-.8s-1.1.6-1.3,1.5c-.4,1.1-.8,2.1-1.3,3.4-.6-1.5-1.1-2.8-1.7-4.2v-.4h-1.9v.4c-.4.8-.8,1.9-1.3,2.8v.6s-.8-.8-1.3-1.5c-.4-.4-.6-.8-1.1-1.1l-1.1-.8-.4.4c-1.1,1.1-1.7,2.3-2.1,3.8,0,0-1.5-1.7-2.3-2.8l-.8-.8-1.9,5.1s-.4-.2-.6-.4c-1.3-.8-2.5-1.7-4.2-1.5h-.6v2.3c1.3,6.8,4,16.5,11.8,21.4,1.1.8,2.1,1.5,3.2,1.9,1.7,1.1,3.2,1.9,4.2,3.2.8,1.9,2.1,6.4,3,10.4-1.9-4-4.2-7.8-7.4-11.2l-.8-1.1-.4,1.3c-2.7,10-3.4,21-2.1,33.2,1.1,2.8,2.1,5.1,3,7.6-1.5,1.9-3,3.6-4.7,5.1l-.4.4.4.4s.4.6.8,1.1c.4.4.8,1.1,1.3,1.5.6.8,1.3,1.5,1.7,2.1-.8-.4-1.7-.8-2.5-1.3-1.1-.6-2.3-1.3-3.4-1.9h-.8c-1.5,1.1-3,2.1-4.4,3,2.1-5.9,3-12.3,2.5-18.6v-3.6c-.2-3.6-2.3-6.4-4.4-8.9-.4-.4-.6-.8-1.1-1.3l-1.1-1.5v1.7c-.4,4.2-2.7,7.2-5.3,10.6-.4.6-.8,1.3-1.3,1.9-4.7,6.1-7.6,11.6-9.5,17.4-.6-4.9.4-9.5,1.7-14.4.6-2.5,1.3-5.1,1.7-7.6.2-.8.6-1.5,1.7-1.7,12.3-5.3,14.2-18.6,15.9-30.5,0-1.5.4-3,.6-4.4v-2.5h-.4s-.4-.2-.6-.2h-.4c-1.1.8-2.1,1.9-3.2,2.8-.2,0-.4.4-.6.6,0-.4,0-.8-.2-1.5-.4-1.1-.8-1.9-1.5-3l-.4-.8-.6.4s-.6.4-1.1.4c-.6.4-1.5.6-2.1,1.1-.4.2-.8.6-1.5,1.1-.2-.6-.4-1.3-.8-1.9-.4-.8-1.1-1.9-2.1-1.9,0,0-1.5.6-2.1,1.3-.6.6-1.3,1.5-1.7,2.3,0,0,0,.4-.2.6-.4-.8-.8-1.9-1.3-2.8l-.8-1.7-.6.6c-2.3,2.1-3,4.4-3.4,7-1.9,0-3.2.6-3.8,3.6-.8,4.2-1.9,8.9-1.9,13.3.2,7.4,3.2,13.1,8.9,16.7l.2.6v1.1c-.6,1.9-.8,3.6-1.3,5.3,0,.4,0,.8-.2,1.3,0-.4-.2-1.1-.4-1.5,0-.4,0-.8-.2-1.3-.4-1.9-1.1-4-3.6-5.3l-.8-.4v1.1c-.4,1.3-.6,2.3-.8,3.6-.2,1.5-.6,2.8-.6,4.2-.6,6.4-1.1,12.9-1.7,19.3l-3.2,1.5c-.4-1.3-.6-2.3-1.1-3.6-.6-2.3-1.3-4.7-1.9-7-.2-1.3-.8-2.3-1.3-3.4-.2-.4-.4-.8-.6-1.3v-.6l-.8.2h-1.1v.4c-1.5,4.4-1.7,9.1-1.9,13.5,0,1.9,0,3.6-.2,5.5v.8c-.8.8-2.1,1.9-3,3.2-1.1,1.3-1.9,2.5-2.5,3.6h-2.7c0-1.3,0-2.3.2-3.4,0-1.1,1.1-3.4,1.9-5.9,2.3-6.6,5.3-14.8,2.5-17.8-1.1-1.1-2.7-1.3-5.1-.6-7.2,1.7-12.9,8.9-13.5,16.7v.6c-1.9-2.3-3.4-4.4-5.1-6.6-.4-2.3-.4-5.1-.2-7.6v-5.7c0-1.7-.2-3.2-.6-4.2-.4-.8-.6-1.7-1.3-1.9-.4-.2-1.1,0-1.9,0v-3.8c7.2,3,13.1,0,18.8-3,6.8-4,10.6-8.7,11.2-14,0-1.7-.6-2.5-1.1-3-.6-.4-1.7-.8-3.4,0h-.4c-.2-2.3-.8-5.5-4.7-6.1,0-1.1,0-1.9-.2-2.8,0-1.1-.6-1.5-1.1-1.7-.4-.2-1.1-.4-1.9,0l-3.2,1.7v-.6c0-.8,0-1.9-.8-2.3-.4-.4-1.3-.4-2.1-.2,0-.4,0-.8.2-1.3,0-1.1.4-2.1.6-3.4v-1.1l-.8.4c-.4,0-1.1.2-1.5.4-.8,0-1.7.4-2.3.8-8.5,5.7-16.3,16.1-13.3,28.4,0,1.1.4,2.1,1.1,3.2,1.1,1.5,1.1,3.2.8,4.9-.2,1.3-.6,3.2-.4,5.1.4,2.3,0,4.2-1.9,5.9-5.9-7-11.6-15.7-9.7-26v-1.3l-.8.4c-4.4,1.7-7.4,5.1-8.7,10.4-.4,1.5-.6,3-.8,4.7-4.2-9.7-10.6-18.4-18.6-25.2-.4-.4-.8-.6-1.5-1.1-.2,0-.6-.4-1.1-.6l-.8-.6v1.1c-2.3,11.2-1.7,21.4,1.7,31.3-2.5-4-5.3-9.1-5.9-11.2v-1.5c.2-1.3.6-2.3.8-3.6.4-1.5.8-3.2,1.3-4.7.8-4,.8-7.2,0-10.2-1.5-4.9-3.4-10.8-7.2-16.1-.2-.4-.6-.6-.8-.8,0,0-.4-.2-.4-.4l-.4-.4-.6.6s-1.1.8-1.1,1.5c-.4,1.1-.6,2.1-.8,3v.6c-1.3-.6-2.7-1.3-4.4-2.1l-1.1-.4v2.1c0,1.1.2,2.1.2,3.2-1.5-.8-3-1.5-4.9-1.5h-.6v3c0,.6,0,1.1.4,1.7v.2c-1.5-.6-2.7-1.3-4-1.9h-.8s-.4.2-.4.4v.6c.6,1.7,1.3,3.2,1.9,4.9,0,0-.6-.2-1.1-.4-1.9-1.1-3.8-2.1-4.9-1.5-.6.4-.8.8-.8,1.9s0,1.9.4,2.5l.4.8c1.1,2.1,1.9,4.2,3,6.4,1.3,2.3,2.7,4.2,4.7,5.7-.6,1.7-1.1,3.2-1.7,5.1-.4-.4-.6-.6-1.1-1.1-.4-.2-1.1-.6-1.5-1.1-.4-.4-1.1-.6-1.5-1.1l-.6-.4-.4.6s-.4.8-.6,1.3c-.4.6-.8,1.3-1.1,1.9,0,.4-.4.8-.4,1.5v.2c-.2,0-.6-.4-.8-.6-.4,0-.6-.4-1.1-.6-1.1-.6-1.9-.8-2.7-.6-.8.4-1.1,1.5-1.3,2.3v3.4s-.2,0-.4-.2c-1.1-.6-1.9-1.3-3-1.9l-.8-.4v.8c-1.1,3-.2,5.3.6,7.4-1.7,1.5-2.3,2.8-1.3,5.5v.6c1.9,3.8,3.4,7.8,5.7,11.2,4,6.1,9.7,9.3,16.5,9.5,0,0,.4.2.6.6v.4c1.1,1.7,1.7,3.4,2.5,5.3,0,.4.4.6.4,1.1,0,0-.2-.2-.4-.4-.6-.6-1.3-1.3-1.9-1.7-1.5-1.3-3-2.8-5.9-2.8h-1.1l.4,1.1s.8,2.1,1.3,3c.4,1.1.8,2.1,1.3,3,0,.4.4.8.4,1.1l1.5,2.8s1.1,1.9,1.5,2.8h-2.5c-.4-1.1-1.1-2.3-1.7-3.4-.2-.4-.4-.8-.6-1.3-.4-.8-1.1-1.7-1.5-2.5-5.7-10-14.8-24.1-29.2-31.3-3.2-1.7-6.6-1.5-9.9-1.1h-3.4l1.5,1.3c3.4,2.5,4.9,6.4,6.1,10.2.2.6.4,1.3.6,1.9,2.1,5.5,5.1,11.6,9.5,17.4-1.5-.6-2.7-1.3-3.8-2.1-3.2-2.8-6.1-5.9-8.9-8.7-1.3-1.3-2.5-2.5-3.8-3.8-.6-.6-.8-1.3-.6-2.3.8-3.2,0-6.1-.6-8.9-2.1-8.7-8.7-14.2-14.8-19.3-1.7-1.5-3.6-3-5.3-4.4-.6-.6-1.3-.8-1.9-1.1h-.2s-.4,0-.8.2h-.4v.6c0,1.7.4,3.4.4,5.1-.4-.2-.8-.4-1.5-.6-1.3-.2-2.3-.4-3.6-.4h-.6v2.1c0,.6,0,1.3-.2,2.3v1.7h-.4c-1.7-.2-3.4-.6-4.2.4-.4.6-.6,1.5,0,2.5.2,1.1.6,1.9,1.3,3v.2c-1.1,0-2.1-.4-3.2-.6h-1.7v.6c.4,3.2,2.3,5.1,4,6.8-1.1,1.7-1.1,3.2,1.1,5.1l.6.6c3,3,6.1,5.7,9.5,8,6.3,3.8,12.9,4.4,19,1.7,0,0,.4,0,.6.4,1.3,1.1,2.3,2.1,3.6,3.2l2.1,1.9h-.4c-.8-.2-1.5-.6-2.5-.8-1.7-.6-3.8-1.3-6.3,0l-.8.4.6.6c4,4,8,7.2,12.3,10.6,1.1.8,1.9,1.5,3,2.3h.2s1.9,1.5,2.7,2.1c.4.4,1.1.6,1.5,1.1.6.6,1.5,1.1,2.1,1.7l1.1.8c-1.9.2-3.8.6-5.7.8h-.4c-1.9-.6-4-1.3-6.6-1.9-.6-.2-1.5-.4-2.3-.4s-1.3.2-1.9.4l-2.3.4.8.8s.6.6.8,1.1c.4.6.8,1.1,1.5,1.5-1.7.4-3.4.6-4.9,1.1-.4-1.3-1.1-2.1-1.5-3-.8-1.5-1.7-2.5-2.7-3.6-3.2-3.6-7.2-6.4-11.2-8.9-2.3-1.7-3.8-1.3-5.3,0h-.2c-1.9-1.3-4-2.5-6.8-2.5h-1.3l.4.8c.4.8.6,1.9,1.1,2.8,0,.4.2.6.4,1.1h-.2c-1.1-.4-2.1-.6-3.2-.6s-2.1,0-2.5.6c-.8,1.1,0,2.8.4,4.2,0,0,0,.4.2.6h-1.7c-1.1.2-1.9.6-3,1.1l-1.1.4v.6c.8,1.7,1.3,3.2,2.3,4.7-1.7,0-3.4.4-5.1.4h-.4l-.4,1.5h.4s.4.6.6.8c.2.2.4.4.8.8,0,0,1.7,1.3,2.5,1.9,1.1.8,2.1,1.5,3.2,2.3h453.4s1.5-.8,2.1-1.3c1.1-.6,2.5-1.7,3.4-3.4.8-1.5.6-2.5.4-3.2" fill="#2f3850" />
                    <path d="M214.7,983.1c12.1-4.7,18.6-16.1,20.5-28.6h240.5c1.9,12.5,8.5,23.9,20.5,28.6v69.2c-12.1,4.4-18.6,15.9-20.5,28.6h-100.9c-3-4.2-6.1-8.5-9.7-12.5h100.9c2.7-10.2,9.3-18.6,17.6-23.3v-54.6c-8.5-4.9-15-13.1-17.6-23.5h-221c-2.7,10.2-9.1,18.6-17.6,23.5v21c-4.2.2-8.5.8-12.5,1.5v-29.6l-.2-.2ZM178.4,937.4h20.9v78.3c-7.2,1.7-14,4-20.7,6.8v13.8c74.9-34.3,169.4,3,200.5,77.5h132.6v-189.7H178.4v13.3Z" fill="#2f3850" />
                    <path d="M240.1,1166.5c-4.7,0-8.2,3.6-8.2,8.3s3.6,8.3,8.2,8.3,8.2-3.6,8.2-8.3-3.6-8.3-8.2-8.3Z" fill="#2f3850" />
                    <path d="M272,1169.2c-.4-2.1-.8-4-1.5-5.9l73.8-42.3c7.8,15,12.3,31.1,12.9,48.1h-85.2v.2ZM344.2,1228.3l-73.8-42.3c.6-1.9,1.3-3.8,1.5-5.9h85.2c-.6,16.9-5.1,33.2-12.9,48.3ZM303.3,1273l-42.5-73.3c1.5-1.3,3-2.8,4.4-4.4l73.8,42.3c-9.1,14-21.4,26.3-35.5,35.4M245.4,1291.4v-84.7c2.1-.4,4-.8,5.9-1.5l42.5,73.3c-15.2,7.8-31.5,12.1-48.4,12.9ZM221.7,1174.7c.6-24.1,36-24.1,36.6,0-.6,23.9-36,24.1-36.6,0ZM234.4,1291.4c-17.1-.6-33.4-5.1-48.4-12.9l42.5-73.3c1.9.6,3.8,1.3,5.9,1.5v84.7ZM141.1,1237.8l73.6-42.3c1.3,1.5,2.7,3,4.4,4.4l-42.7,73.3c-14.2-9.1-26.2-21.2-35.3-35.4ZM122.7,1180h85c.4,2.1.8,4,1.5,5.9l-73.8,42.3c-7.8-15-12.3-31.1-12.9-48.3M135.6,1121.2l73.8,42.3c-.6,1.9-1.3,3.8-1.5,5.7h-85.2c.8-16.9,5.1-33,12.9-48.1ZM176.4,1076.5l42.7,73.3c-1.7,1.3-3,2.8-4.4,4.4l-73.6-42.3c9.1-14,21.4-26.3,35.3-35.1M234.4,1058.1v84.7c-2.1.4-4,.8-5.9,1.5l-42.5-73.3c15-7.8,31.5-12.1,48.4-12.9ZM245.4,1058.1c17.1.8,33.2,5.1,48.4,12.9l-42.5,73.5c-1.9-.6-3.8-1.3-5.9-1.5v-84.9ZM303.3,1076.5c14.2,9.1,26.4,21.2,35.5,35.1l-73.8,42.3c-1.3-1.5-2.7-3-4.4-4.4l42.5-73.3.2.2ZM369.5,1132.2c-9.1-27.3-26.6-50.6-49.5-67.3-7.8-5.5-16.1-10.4-25-14.2l-3-1.3c-30.2-12.9-67-13.5-97.7-2.3-53.1,18.6-90.9,68.8-90.9,127.7-.4,114.1,135.8,177.2,223.1,104.8,41.7-32.6,61.3-95.5,42.7-147.1l.2-.2Z" fill="#2f3850" />
                    <path d="M1014.8,1175.1c-18.2,44.3-13.5,55.3-29.6,73.3,1.5-2.3-56.3,41.5-49.7,34.3-10.4,4.9,2.3-23.7,3.4-22.4-6.3-4,6.6-7.4,9.5-8-15.4-8.5,14.2-8.5,19.5-13.8-11.8-1.1,1.7-7.8,7-7,20.3-22.2,29.2-110.3,46.7-101.8,14-7.4,2.5-.8,14,0,19.7-8-17.8,35.8-20.7,45.7M1146.3,979.3s-1.9-.6-2.7-1.1c-16.9,21.2-33.8,41.5-56.7,53.8-2.1,1.9-4,3.6-6.1,5.5-9.3,25-30.7,43-54.6,52.9-15,6.4-21.4,16.9-23.3,31.3-3.6,26.9-16.3,43.4-25,68.8-1.1.4-2.5,1.3-4.2,2.5-5.7,4.2-11,11.9-8.7,15.5,0,.4.4.8,1.1,1.1-1.3,1.7-2.7,3.2-4,4.9-1.1,0-4.9.6-8,3.8-2.5,2.5-3.2,5.3-3.6,6.6-1.9,1.7-3.8,3.2-5.7,4.9h-2.5c-5.5-1.3-8.7,5.1-9.7,10-3.2,4-12.9,8.3-5.9,11.9-.6,2.3-.6,5.1,0,7.4-6.1,9.1-7.4,19.7-7.2,30.7,0,3,2.3,7.2,4.7,8.3,2.3,1.1,6.8-.6,9.1-2.3,12.5-9.5,24.5-19.5,36.8-29.2,10.4-8.7,25.6-11.9,27.9-27.3,4.7-7.4,6.8-16.1,8.9-24.3,5.9-13.3,10.4-26.7,15.4-40,4.7-8.5,9.9-16.7,15.7-24.8,20.5-25,46.7-40.7,74.7-56.1,16.9-9.7,29-25.2,47.8-32-8.7-26.7-9.1-54.8-14-82.4" fill="#2f3850" />
                    <path d="M1274.5,1011.3c.6,9.3-.6,18.8-4.9,27.3,40.4,10.4,80.8,28.8,122.7,29.8-8-17.4-14.4-37.3-18.8-58.6-15.7,3-33.2,4.4-52.2,4.4s-30.9-.8-46.9-2.8" fill="#2f3850" />
                    <path d="M1386.6,1010.2c4.7,21.4,11.2,41.1,19.7,57.8,4.4-.4,8.9-.8,13.3-1.7,10.4-4,33.8-5.3,45.7-1.9-1.3-14.6-10.2-35.1-18.6-47.2-5.9-.2-12.1-.8-18-1.3-14.4-1.3-27.3-3-42.1-5.7Z" fill="#2f3850" />
                    <path d="M1711.4,805.5c-5.1.4-9.3,1.3-12.7,2.3,5.7-10.8,17.6-12.5,23.1-1.9-3-.4-6.3-.6-10.4-.4ZM1708.3,815.9c-.2-1.7-.6-4.4-1.1-6.1,1.9,1.1,8.2.6,9.7-.8.2,1.5.6,3.2.8,4.7-1.1,1.7-7.8,3.2-9.5,2.1M1707.2,824.8c-4.9-2.1-5.7-7.2-5.7-7.4,3.8,0,12.5,3.6,15.4,6.6-.2.2-4.7,3.2-9.7,1.1M1609.5,947.8c0,1.5-1.3,3.4-2.5,4.4-.2,0-.4.4-.6.4-.4.4-1.1.6-1.5.6,0,0-1.7-.4-1.9-1.9-.8-13.8-6.1-27.3-14.4-39.8-1.7-2.5-3.4-5.1-5.3-7.4-.6-.8-1.3-1.5-1.9-2.3-2.1-2.8-4.4-5.3-6.8-7.8-11-11.9-23.9-21.8-36.4-28.6-1.3-.8-1.5-2.5-.4-4.2,1.1-2.1,3.4-3.6,5.3-2.8,14.6,8,29.8,20.3,42.1,34.7,2.1,2.5,4.2,5.1,6.1,7.8.4.6.8,1.1,1.3,1.7,1.7,2.5,3.4,5.1,4.9,7.6,7,11.9,11.6,24.6,12.3,37.5M1549,829.2c25.2-25.4,58.2-42.3,95.4-49.3,1.7-.2,2.3.6,2.5,1.5.4,1.9-1.7,5.5-4,5.9-35.7,6.6-67,22.7-90.7,46.6-1.1,1.1-1.9,1.5-2.5,1.5s-1.3-.4-1.3-.6c-1.3-1.3-.8-4,.6-5.7M1662.8,872.8c-8-30.3-7.4-69.9,10.4-83.2,1.1-.4,3.6-1.9,4.7-.8,1.3,1.1,0,4.2-.2,4.4-4,7.6-8.9,19.5-11,34.9-2.5,18.8.4,34.3,3,43.4,6.8,1.7,15.4,5.5,23.7,10.2-15.4,2.1-30.9,4-46.3,5.7,4.7-5.3,9.9-10,15.9-14.4M1695.4,764.6c3.2-5.3,7.2-8.3,9.5-9.7.2,1.5,1.5,8.7-3.2,15.7-3.6,5.3-8.7,7.2-10.4,7.8,0-2.8.8-8,4.2-14M1745.3,868.4c-2.1-2.5-1.5-4.4-2.7-8-2.3-5.7-5.7-4.7-8.7-10-2.7-5.1,0-6.6-3-13.5-2.3-5.3-5.1-7.2-4.2-9.7.8-2.3,4.4-3.2,7.2-3.6,4,10.6,4.7,11,8.9,18.2,7,11.9,5.3,9.1,16.3,27.5,1.5-.4,3-.8,4.2-1.3-9.7-21.2-20.1-42.1-33.2-61.4,2.3-2.3,3.4-3.6,3.2-5.9,0-4-.4-7.8-1.9-11.2v-4c5.5-8.7-9.3-17.4-16.7-18.8-1.5-1.9-.6-6.1-3.2-6.8,1.7-5.5,4.9-9.7,5.3-15.7-2.1,1.5-3.6,2.3-5.9,4,.2-3.8.6-6.8.8-10.2-6.8,5.9-12.9,13.5-20.9,18.8-3.6,2.5-6.6,4.7-11.2,3.2-5.5.6-16.5,1.9-22,2.5-46.5,7.4-117,32.4-157.8,66.9-1.9,1.5-3.8,3.2-5.7,4.9,11,22.4,23.9,43.4,38.3,62.2,1.9,2.8,4,5.3,6.1,7.8,1.3,1.7,2.5,3.2,3.8,4.9,2.1,2.5,4.2,5.1,6.3,7.4,19.2,22,40.2,40.2,62.2,53.8.4-1.9.8-3.8,1.1-5.7,4.4-16.7,9.1-34.1,16.5-50.2,1.9-3.8,3.8-7.6,5.9-11.4,23.5-4.4,47-9.3,70.2-14.8,4.4,3.2,8.5,6.1,11,8.9,0,0,0-.2.2-.2,9.5-11.2,21.6-19.7,35.3-25.2-1.9-.4-4.7-1.5-6.6-3.8" fill="#2f3850" />
                    <path d="M1381.1,1285.9s-1.1-2.1-1.3-3.6c-.6-3.6.2-6.6,1.3-8.9.8-2.1,2.5-5.1,5.3-8.3,1.5-1.5,2.7-3,4.2-4.4l6.6-3.4c-1.7-6.1,9.1-4.2,12.5-6.8-17.8-8,6.3-1.9,14-8.5,2.3-11.9,53.9-25,65.1-48.7,15.9,9.3.4,10.8,10.8,15.9-18.4,15.7-34.9,28.6-48.4,38.5-27.7,20.3-45,30.5-66.6,37.3-1.3.4-2.3.8-3.2,1.1M1473.3,1018.1c-6.1,0-12.3,0-18.6-.4,10.8,15.5,18.4,36.6,18,55.3,1.5,3.4,2.5,7.4,3.2,12.5,0,1.5,0,3,.4,4.4,4.4,23.7,10.8,47,16.1,70.5,2.7,13.5.2,18-9.7,27.7-3.4,3.4-6.8,8-10.6,11.2l-5.7,3.8c.2.4-1.1,1.9-1.7,2.1-.6.6-2.3,1.3-3,1.9-3,2.5-4.2,2.3-7.6,4.2-11.2,7.4-22.4,18.2-36.6,14-2.1.4-4,2.8-3,4.7-2.7,1.1-14.8-.2-10.6,4.9,1.7,1.3-.6,3.4-1.9,3.8-3.2.6-6.3-.6-8.9-2.3-1.7,4.7-4.7,8.7-7.2,12.9v.8c-14,9.1-21.6,25.2-18.2,40,1.1,3.6,2.3,4.2,4.2,6.4,3.4,3.4,44.8-16.5,64.7-26.3,8.2-4,18.4-20.5,26.4-25.2,17.1-10.2,29.2-24.6,45.3-33,19.2-10.4,20.1-31.5,17.1-53.6-4.4-30.9.6-62,3.6-92.9-.8-16.9-1.5-33.9.6-50.8-18.2,2.3-37.2,3.4-56.7,3.4" fill="#2f3850" />
                    <path d="M1286.3,1302.4c-1.5.2-3.6.4-6.1.4-6.1,0-9.5-6.1-21.6-12.3-4-2.1-10.4-.6-15.9-3.8-.8-5.9-1.9-16.1-9.1-25.6-5.7-7.4-13.1-14.4-19-21.2-6.1,11.2-8.2-8.3-7.4-13.1-3.6-3-11.2-24.6-4.9-24.1-1.1-5.7-3.6-12.5,5.3-8.7.2-1.3,0-3,1.3-3.6,9.9,19.7,22.2,38.3,36.8,55,11.6,14.8,22.2,25.6,30,33,8,7.6,18,16.1,15.6,20.7-.8,1.7-3.2,2.3-5.1,2.8M1216.8,1142.7c10.6-32.4,19.7-64.6,38.5-93.8,6.1-12.5,13.7-24.3,12.5-38.5-26.6-3.4-54.4-9.1-81-16.9-11.2-3.4-22.2-7-32.6-11,3.2,19.9,4.9,39.8,8.9,59.5,1.9,9.5,9.1,27.5,9.1,27.5,3.8,15.9,3,32.4-2.1,48.5-4.9,19.1-18.2,40-.8,57,2.7,2.8,5.1,12.5,7.4,15.5,13.3,16.7,18.4,42.3,29.2,61.4,1.1,6.4,8-1.3,6.1,5.1-.6,1.9,2.5,3.4,3.6,1.5.6-1.1,1.3-2.1,1.7-3.2.4,4.7-.4,9.3-2.3,14,.6.2,2.3,1.3,4.4.8,3.6-.6,4.9-3.8,5.1-4.2.6,6.6-.6,12.9-3.8,18.8-.8,1.5.8,3.6,2.7,2.5,1.1-.6,2.1-1.3,3.2-1.9-1.1,1.7-3.2,3-3.2,4.9,0,3.8,5.1,3.8,7.8,3-.4,1.3.4,2.5,1.7,2.5,2.7-.4,6.3.8,8.7-.4,6.6,3.8,13.3-1.1,14.4,5.3,1.5,4.2,9.7,5.1,13.5,7,1.9.8,3.8,1.5,5.9,1.7,8.7,2.1,17.8,2.5,27.5-1.1-7.2-25.6-29.6-39.6-45.5-59.1-25.6-28.8-54.1-65.4-40.6-105.9" fill="#2f3850" />
                    <path d="M1429.7,1003.9c65.6,6.1,131.3-1.7,177.6-21-26-15.7-51-37.7-73.2-64.2-2.1-2.5-4.2-5.1-6.1-7.6-1.5-1.9-3-3.8-4.4-5.7-2.1-2.5-4-5.3-5.9-8-12.1-16.7-23.1-34.9-32.8-54.2-24.1,21.2-57.7,27.7-89.7,27.7s-7.2,0-10.8-.2c-1.7,9.1-3.2,18.8-4,28.6-.2,2.8-.4,5.5-.6,8.3-.2,2.8-.4,5.5-.4,8.3v3.4c0,2.8,0,5.5-.2,8.3-.4,23.9,1.5,47.4,5.3,69.7,16.3,3.6,30.2,5.3,45.7,6.6" fill="#2f3850" />
                    <path d="M1707.6,1296.2c-1.7.8-4.9,2.1-8.7,1.9-2.1,0-3.8-.4-5.1-.8-4.2-.4-7.4-1.7-9.7-2.5-4.4-1.9-7.6-4.4-10.2-6.4-2.3-1.9-4.2-3.6-5.5-4.9-1.3-.6-2.5-1.3-3.8-1.9-6.1-27.5-28.1-30.7-33.8-58.4-2.5-12.3-10.6-21.6-4.4-22.9,1.5-.4.2-3.8,1.1-6.4.6-2.1,1.7-3.8,2.3-5.1-.4-.8-.8-2.3-.8-4s.8-4,1.3-4.9c0,0,1.3,1.7,3.4,1.5,1.7,0,2.8-1.3,2.8-1.5,0-3.4.6-5.3,1.9-5.7,8.2-2.1,40.6,98.7,57.3,104.2,2.1,2.5,4.4,5.5,6.6,8.9,2.1,3.2,3.8,6.1,5.3,8.9M1697.7,1270c-20.9-24.6-27.5-51.9-42.5-80.2-9.1-16.7-25.2-40-34.1-56.5-18.4-33.9-17.6-71.1-27.7-108.6,6.3-10.6,11.6-17.4,14.2-28.2-20.5,8-44.6,14-70.4,17.6-1.1,7.2-1.3,14.4-1.3,21.6s.2,17.1,0,25.8c11.4,6.4,15,10,21.6,20.7,14.6,23.9,22.8,54,36,78.8,13.7,26.3,32.4,52.7,36.6,83.6,1.7,12.5,3,5.5,6.1,7,7,3.4,6.6,9.7,7.4,12.1.8,2.8,1.3,5.3,2.8,5.5,2.1.4,4.7-4.7,5.7-4.2s-2.5,6.8-.2,9.3c1.5,1.7,1.7,1.9,4.7,3.2,2.3.8,4.9,3.6,6.1,11.4,0,.2,0,.4.2.8,0,.2,0,.4.2.8-1.1,10.6,1.7,4,14.4,10.6,10.4,5.5,20.3,8.7,33,2.3,3-1.9,8-3.2,6.1-6.6-4-7-12.9-20.5-18.4-26.5" fill="#2f3850" />
                    <path d="M1764.7,896.1s-2.1,0-2.3-.8c-.2-1.7.4-5.5,1.5-7.2,4.2,1.7,4,7,.8,8ZM1759.4,910.1c-2.1,4.7-6.6,3-9.9-1.1,0,3.2-2.5,6.4-7.4,6.1-4,.4-9.1,0-9.7-4.2,0-.2,0-1.3.6-2.3,1.3-1.5,3.4-1.3,3.6-1.3,1.5.2,4,1.9,4.7,3,3.2-1.7,2.3-6.8,1.5-7.6-.2-1.5,1.5-2.5,2.7-1.7,3.6,0,9.3,4.4,9.9,7,.8-3.2,0-8.9-1.3-11.2,4.9.8,11.6,11,5.1,13.5M1770.4,886.2c-.2-2.8-1.1-4.9-2.5-6.4h-.4c-16.7,4.7-31.7,14-42.3,26.7l-1.1,1.5c2.1,5.9,3,13.5,11.2,12.3,5.9-1.1,13.3,3.2,16.7-4.2,2.3,1.3,4.4,2.3,6.6,3.6,8-3.8,7.2-13.3,10.4-19.1,1.1-1.9,1.7-6.8,2.1-8.9-.4-2.3-.6-4-.8-5.3" fill="#2f3850" />
                    <path d="M1480.9,834.1c46.7-46.6,145.7-76.4,194.6-82.4-2.1-4.7-38.9-18.6-29.4-1.3-1.9-1.3-24.1-13.5-13.7.6-16.7-8.7-65.6,2.1-45.9,7.8,15,1.7-51.8,5.5-27.3,14.4-11.8,3.8-22.8,3.2-33.8,9.1-23.1,9.7-2.3,7.4-10.4,10.8-3.8,1.5-38.3,26.9-22,25.8-7,1.1-15,4.4-26.4,12.1,1.1-.6,4,7.6,14.4,3Z" fill="#2f3850" />
                    <path d="M1228.2,898.6c.6,4.4,1.3,8.9,2.1,13.3.4,2.8,1.1,5.7,1.7,8.5,5.9,28.6,16.3,55,30.5,76.6,40.4,5.7,79.3,5.9,109.1.2-3.8-22.2-5.7-45.9-5.3-69.9,0-2.8,0-5.5.2-8.3v-4c0-2.8.2-5.3.4-8,0-2.8.4-5.5.6-8.3.8-10.4,2.3-20.3,4.2-30.1-4.2-.8-8.5-1.7-12.7-2.3-15.2-4.4-29.6-11.6-44.8-16.1-26.2-5.5-53.9-10-80.4-7.4-2.3,0-5.3.4-8,.8-.8,15.7-.4,31.3,1.1,46.4.2,2.8.6,5.5.8,8.3" fill="#2f3850" />
                    <path d="M768.6,1166.5c-4.7,0-8.2,3.6-8.2,8.3s3.6,8.3,8.2,8.3,8.2-3.6,8.2-8.3-3.6-8.3-8.2-8.3Z" fill="#2f3850" />
                    <path d="M800.6,1169.2c-.4-2.1-.8-4-1.5-5.9l73.8-42.3c7.8,15,12.3,31.1,12.9,48.1h-85.2v.2ZM872.9,1228.3l-73.8-42.3c.6-1.9,1.3-3.8,1.5-5.9h85.2c-.6,16.9-5.1,33.2-12.9,48.3ZM831.9,1273l-42.5-73.3c1.5-1.3,3-2.8,4.4-4.4l73.8,42.3c-9.1,14-21.4,26.3-35.5,35.4M773.9,1291.4v-84.7c2.1-.4,4-.8,5.9-1.5l42.5,73.3c-15.2,7.8-31.5,12.1-48.4,12.9ZM750.2,1174.7c.6-24.1,36-24.1,36.6,0-.6,23.9-36,24.1-36.6,0ZM763.1,1291.4c-17.1-.6-33.4-5.1-48.4-12.9l42.5-73.3c1.9.6,3.8,1.3,5.9,1.5v84.7ZM669.6,1237.8l73.6-42.3c1.3,1.5,2.8,3,4.4,4.4l-42.7,73.3c-14.2-9.1-26.2-21.2-35.3-35.4ZM651.2,1180h85c.4,2.1.8,4,1.5,5.9l-73.8,42.3c-7.8-15-12.3-31.1-12.9-48.3M664.1,1121.2l73.8,42.3c-.6,1.9-1.3,3.8-1.5,5.7h-85c.8-16.9,5.1-33,12.9-48.1M705.2,1076.5l42.7,73.3c-1.7,1.3-3,2.8-4.4,4.4l-73.6-42.3c9.1-14,21.4-26.3,35.3-35.1M763.1,1058.1v84.7c-2.1.4-4,.8-5.9,1.5l-42.5-73.3c15-7.8,31.5-12.1,48.4-12.9ZM773.9,1058.1c17.1.8,33.2,5.1,48.4,12.9l-42.5,73.5c-1.9-.6-3.8-1.3-5.9-1.5v-84.9ZM831.9,1076.5c14.2,9.1,26.4,21.2,35.5,35.1l-73.8,42.3c-1.3-1.5-2.7-3-4.4-4.4l42.5-73.3.2.2ZM898.1,1132.2c-9.1-27.3-26.6-50.6-49.5-67.3-7.8-5.5-16.1-10.4-25-14.2l-3-1.3c-30.2-12.9-67-13.5-97.7-2.3-52.9,18.6-90.7,69-90.7,127.9-.4,114.1,135.8,177.2,223.1,104.8,41.7-32.6,61.3-95.5,42.7-147.1v-.4Z" fill="#2f3850" />
                </g>
            </g>
        </g>
    </g>
</svg>
