<?xml version="1.0" encoding="UTF-8"?>
<svg id="Layer_1" xmlns="http://www.w3.org/2000/svg" baseProfile="tiny-ps" version="1.2" viewBox="0 0 130 130">
  <title>VSP</title>
  <rect x="17" y="12.8" width="96" height="96" fill="#fff" stroke-width="0"/>
  <g>
    <path id="TM" d="M95.7,104.7h1.4v-4.2l2.1,2.7h.3c.3-.4,1.8-2.3,2.1-2.6v4.1h1.4v-6.3h-1.3l-2.3,2.9-2.3-2.9h-1.3v6.3h0ZM90.8,104.7h1.4v-5.1h2.3v-1.2h-6v1.2h2.3s0,5.1,0,5.1Z" fill="#3a60ff" stroke-width="0"/>
    <path id="V_Heart_Symbol" d="M74.6,58.1v-.3h.3c4,3.2,9.2,5.2,14.7,5.2,12.9,0,23.4-10.3,23.4-23s-10.5-23-23.4-23-23.4,10.3-23.4,23,.4,4.9,1.2,7.2v.3h-.2l-13.8-19.8c-4-5.6-9.1-10-18.2-9.8-11,0-18.4,8.3-18.2,17.9,0,4.4,2.1,9,4.8,12.9l36.3,51.8c3.9,5.6,10.7,5.6,14.5,0l15.8-22.6-13.9-19.9h0Z" fill="#3a60ff" stroke-width="0"/>
  </g>
</svg>