<?xml version="1.0" encoding="UTF-8" standalone="yes"?>
<svg version="1.2" baseProfile="tiny-ps" viewBox="0 0 320 320" xml:space="preserve" xmlns="http://www.w3.org/2000/svg">
  <title>ClickXposure, LLC</title>
  <rect fill="#FFFFFF" width="320" height="320"/>
  <g id="Layer_2_1_">
    <g id="Layer_1-2">
      <path fill="#4C4E60" d="M170.6,184.1c7.9,0.1,15.4-3.8,19.9-10.3c0.9-1.1,0.8-2.8-0.3-3.8c-1.1-0.9-2.8-0.8-3.8,0.3&#xA;&#x9;&#x9;&#x9;c-0.1,0.1-0.2,0.3-0.3,0.4c-6,8.6-17.7,10.7-26.3,4.7c-5.1-3.5-8.1-9.3-8.1-15.5c0-10.4,8.5-18.9,19-18.8c5.7,0,11.1,2.6,14.6,7.1&#xA;&#x9;&#x9;&#x9;c0.9,1.1,2.6,1.2,3.7,0.3l0,0c1.1-1,1.2-2.6,0.2-3.7c-8.3-10.4-23.5-12-33.8-3.6c-5.6,4.6-8.9,11.5-8.9,18.7&#xA;&#x9;&#x9;&#x9;C146.5,174,157.3,184.1,170.6,184.1z"/>
      <path fill="#4C4E60" d="M55.7,184.1c7.9,0.1,15.4-3.8,19.9-10.3c0.8-1.2,0.5-2.9-0.7-3.7c-1.2-0.8-2.9-0.5-3.7,0.7l0,0&#xA;&#x9;&#x9;&#x9;c-6,8.5-17.8,10.6-26.3,4.6c-5-3.5-8-9.3-8-15.4c0-10.4,8.5-18.9,19-18.8c5.7,0,11.1,2.6,14.6,7.1c0.9,1.1,2.6,1.2,3.7,0.3l0,0&#xA;&#x9;&#x9;&#x9;c1.1-1,1.2-2.6,0.2-3.7c-8.4-10.5-23.6-12.1-33.9-3.7c-5.6,4.6-8.9,11.5-8.9,18.7C31.7,174,42.4,184.1,55.7,184.1z"/>
      <path fill="#4C4E60" d="M131.9,183c1.5,0,2.8-1.2,2.8-2.8l0,0v-41.1c0-1.5-1.2-2.8-2.8-2.8s-2.8,1.2-2.8,2.8v41.1&#xA;&#x9;&#x9;&#x9;C129.2,181.8,130.4,183,131.9,183z"/>
      <path fill="#4C4E60" d="M115,177.5H94.5c-0.9,0-1.3-0.1-1.3-1v-37.3c0-1.5-1.2-2.8-2.8-2.8l0,0c-1.5,0-2.7,1.2-2.8,2.7v0.1v42.5&#xA;&#x9;&#x9;&#x9;c0,0.7,0.7,1.3,1.4,1.3h26c1.5,0,2.7-1.2,2.7-2.7C117.7,178.7,116.5,177.5,115,177.5L115,177.5L115,177.5z"/>
      <path fill="#4C4E60" d="M236.2,179l-16.3-22c-0.5-0.7-0.4-1.7,0.2-2.4l13.8-13.8c0.9-1,0.8-2.5-0.1-3.4c-0.4-0.4-1-0.6-1.6-0.6&#xA;&#x9;&#x9;&#x9;s-1.2,0.2-1.7,0.7l-15,15c-2.6,2.6-5.4,5.5-6.8,6.9c-0.3,0.3-0.7,0.1-0.7-0.4v-19.9c0-1.5-1.2-2.8-2.8-2.8s-2.8,1.2-2.8,2.8v41.2&#xA;&#x9;&#x9;&#x9;c0,1.5,1.2,2.7,2.8,2.8c1.5,0,2.8-1.2,2.8-2.8v-12.6c0-0.5,0.1-1,0.4-1.4l5.4-5.5c0.7-0.7,1.8-0.7,2.5-0.1&#xA;&#x9;&#x9;&#x9;c0.1,0.1,0.1,0.1,0.2,0.2l15.5,21c0.5,0.6,1.2,1,2,1c0.5,0,1.1-0.2,1.5-0.5C236.7,181.7,237,180.1,236.2,179&#xA;&#x9;&#x9;&#x9;C236.3,179.1,236.3,179.1,236.2,179z"/>
      <path fill="#4C4E60" d="M274.1,153.4c1.1,0.9,2.8,0.6,3.6-0.5c0,0,0,0,0.1-0.1l8.8-12c0.9-1.1,0.6-2.8-0.5-3.6c0,0,0,0-0.1-0.1&#xA;&#x9;&#x9;&#x9;c-1.1-0.9-2.8-0.6-3.6,0.5c0,0,0,0-0.1,0.1l-8.9,12C272.6,150.9,272.9,152.5,274.1,153.4z"/>
      <path fill="#4C4E60" d="M283.6,182.1c0.9,1.1,2.5,1.3,3.7,0.5c1.2-0.9,1.4-2.5,0.5-3.7l-10.1-13.7c-0.9-1.2-2.5-1.4-3.7-0.6&#xA;&#x9;&#x9;&#x9;c-1.2,0.9-1.4,2.5-0.6,3.7L283.6,182.1z"/>
      <path fill="#F8B018" d="M271.6,157.4l-6.8-9.2l-7.7-10.4c-0.9-1.2-2.5-1.4-3.7-0.6c-1.2,0.9-1.4,2.5-0.6,3.7l12.1,16.4l0.1,0.2&#xA;&#x9;&#x9;&#x9;c0.7,1,0.7,2.3,0,3.3L251.6,179c-0.9,1.2-0.6,2.8,0.6,3.7c1.2,0.9,2.8,0.6,3.7-0.6l0,0l15.7-21.5&#xA;&#x9;&#x9;&#x9;C272.3,159.7,272.3,158.4,271.6,157.4z"/>
    </g>
  </g>
</svg>