<?xml version="1.0" encoding="UTF-8"?>
<svg id="Layer_1" xmlns="http://www.w3.org/2000/svg" xmlns:xlink="http://www.w3.org/1999/xlink" baseProfile="tiny-ps" version="1.2" viewBox="0 0 500 500" xml:space="preserve">
  <title>Ebury</title>
  <rect width="500" height="500" fill="#00bef0" stroke-width="0"/>
  <g>
    <path d="M356.4,222.5v-11.5c-12.3,0-19.6,6-24.3,13.2v-13.2h-25.5v11.5h11.9v50.2h-23.8v-61.7h-27.7v11.5h12.8v43c-6.4,5.5-14.5,9.4-23.4,9.4s-11.5-5.1-11.5-13.2v-50.7h-26.4v11.5h11.9v40.4c0,15.7,8.5,23.4,21.7,23.4s20.9-4.3,28.5-11.5v9.4h70.7v-11.5h-18.3v-39.2c4.7-5.5,12.8-11.1,23.4-11.1Z" fill="#fff" stroke-width="0"/>
    <polygon points="55.4 179.9 55.4 191.4 68.2 191.4 68.2 272.7 55.4 272.7 55.4 284.6 137.1 284.6 137.1 261.2 125.7 261.2 125.7 272.7 83.1 272.7 83.1 234.4 125.2 234.4 125.2 222.5 83.1 222.5 83.1 191.4 125.7 191.4 125.7 203.3 137.1 203.3 137.1 179.9 55.4 179.9" fill="#fff" stroke-width="0"/>
    <g>
      <path d="M185.2,209.3c-8.9,0-16.2,3-22.1,6.8v-36.2h-14.5v104.7h14.5v-6.8c6,4.7,13.6,8.5,22.1,8.5,20.4,0,31.9-17.5,31.9-40s-11.5-37-31.9-37M182.3,274.8c-5.1,0-13.2-3.4-19.2-8.5v-39.6c5.1-3.4,11.5-6.4,18.7-6.4,14.5,0,20.4,11.5,20.4,26s-4.3,28.5-20,28.5" fill="#fff" stroke-width="0"/>
      <path d="M408.7,211v11.5h11.5l-20,57-17-57h11.5v-11.5h-26.4v11.5l19.6,61.7h11.1l-3.8,10.6c-3.8,10.6-12.8,12.8-23.4,12.8h-3.4v11.5h3.4c18.7,0,30.6-4.7,37.5-23l26-73.6h9.8v-11.5h-36.2Z" fill="#fff" stroke-width="0"/>
    </g>
  </g>
</svg>
