<?xml version="1.0" encoding="utf-8"?> <svg version="1.2" baseProfile="tiny-ps" id="Ebene_1" xmlns="http://www.w3.org/2000/svg" xmlns:xlink="http://www.w3.org/1999/xlink"
viewBox="0 0 32 32" xml:space="preserve">
<title>Erste Group</title>
<g>
	<rect fill="#2870ED" width="32" height="32"/>
	<path fill="#FFFFFF" d="M6.04,23.53h15.26v-2.05H6.07c-.01-.24,0-4.86-.04-6.99-.03-1.82,1.22-3.59,3.57-3.55,4.28,.07,8.57,.07,12.85,0,1.85-.03,3.52,1.32,3.52,3.53,0,.31,0,.68,0,1.08H10.69v2h15.28c0,.27,0,4.9,0,7.05,0,2.17-1.39,3.53-3.59,3.53-4.25,0-8.49,0-12.74,0-2.21,0-3.59-1.38-3.6-3.59,0-.31,0-.61,0-1.01"/>
	<path fill="#FFFFFF" d="M16.02,8.79c-1.81,0-3.27-1.49-3.26-3.31,0-1.79,1.48-3.25,3.27-3.25,1.79,0,3.25,1.47,3.26,3.26,0,1.82-1.46,3.3-3.27,3.3"/>
</g>
</svg>
