<?xml version="1.0" encoding="UTF-8"?>
<svg xmlns="http://www.w3.org/2000/svg" version="1.2" baseProfile="tiny-ps" id="Layer_1" viewBox="75 15 250 250" xml:space="preserve">
    <title>Autotrader</title>
    <g>
        <!-- Generator: Adobe Illustrator 28.6.0, SVG Export Plug-In . SVG Version: 1.2.0 Build 709) -->
        <g>
            <g id="Layer_1">
                <g id="Layer_1-2">
                    <path d="M168.2,53.3l-14.5,80h-43.6c1.7-36.7,25.4-67.6,58.1-80h0ZM179.1,160.6l-11,61c9.9,3.8,20.7,5.9,31.9,5.9s22-2.1,31.9-5.9l-11-61h-41.8,0ZM200.5,47.5h-1l-15.5,85.8h32l-15.5-85.8h0ZM140.8,205.2l8.1-44.6h-35.9c4.7,17.6,14.5,33,27.8,44.6h0ZM231.8,53.3l27.4,151.9c18.8-16.5,30.8-40.7,30.8-67.7,0-38.5-24.2-71.3-58.2-84.2Z" fill="#ff821c" />
                    <path d="M200,20.6c-64.6,0-116.9,52.4-116.9,116.9s52.3,116.9,116.9,116.9,116.9-52.3,116.9-116.9-52.3-116.9-116.9-116.9ZM199.5,47.5h1l15.5,85.7h-32l15.5-85.7h0ZM140.8,205.2c-13.2-11.6-23.1-27-27.7-44.6h35.8l-8.1,44.6h0ZM110.1,133.3c1.7-36.7,25.3-67.6,58.1-80l-14.5,80h-43.6ZM200,227.5c-11.3,0-22-2.1-31.9-5.9l11-61h41.9l11,61c-10,3.8-20.7,5.9-32,5.9h0ZM259.2,205.2l-27.4-151.9c34,12.8,58.2,45.7,58.2,84.2s-11.9,51.2-30.8,67.7h0Z" fill="#fff" />
                    <path d="M200,17.2c-66.5,0-120.3,53.8-120.3,120.3s53.8,120.3,120.3,120.3,120.3-53.8,120.3-120.3-53.8-120.3-120.3-120.3h0ZM200,254.4c-64.6,0-116.9-52.3-116.9-116.9S135.4,20.6,200,20.6s116.9,52.4,116.9,116.9-52.3,116.9-116.9,116.9h0Z" fill="#ff821c" />
                </g>
            </g>
        </g>
    </g>
</svg>
