<?xml version="1.0" encoding="UTF-8" standalone="yes"?>
<svg version="1.2" baseProfile="tiny-ps" viewBox="0 0 512 512" xml:space="preserve" xmlns="http://www.w3.org/2000/svg">
  <title>bimi-svg-tiny-12-ps</title>
  <rect width="512" height="512"/>
  <path fill="#FFFFFF" d="M169.1,365.4V146.6c0-14.2-8.5-17.3-18.1-18.5v-6.9h97.1c47.8,0,97.1,13.5,97.1,53.6&#xA;&#x9;c0,28.1-25,48.5-55.5,49.7c53.5,0,91.3,32.4,91.3,80.5c0,54.3-43.5,85.9-121,85.9H151v-6.9C160.2,382.8,169.1,379.7,169.1,365.4z&#xA;&#x9; M288.9,175.5c0-29.3-20.4-43.2-40.1-43.2h-7.3v90.1C263.1,222.5,288.9,209.4,288.9,175.5z M251.2,379.7c15.8,0,52-11.2,52-74.7&#xA;&#x9;c0-64.7-49.3-71.3-61.6-71.3v146L251.2,379.7z"/>
</svg>