<?xml version="1.0" encoding="UTF-8"?>
<svg version="1.2" baseProfile="tiny-ps" id="Layer_1" xmlns="http://www.w3.org/2000/svg" xmlns:xlink="http://www.w3.org/1999/xlink" viewBox="0 0 1080 1080" xml:space="preserve">
  <title>MeanPug, LLC</title>
  <!-- Generator: Adobe Illustrator 29.0.0, SVG Export Plug-In . SVG Version: 2.1.0 Build 186)  -->
  <rect width="1080" height="1080" fill="#4250c5"/>
  <g>
    <path d="M171.9,549.2l15.4-90.9h23.4l18.2,48.5,18.1-48.5h23.4l15.4,90.9h-23.5l-7.8-52.3-21.5,52.3h-9.4l-20.4-52.3-7.8,52.3s-23.5,0-23.5,0Z" fill="#fff"/>
    <path d="M356.2,478.3h-28.1v15.2h26.5v20h-26.5v15.7h28.1v20h-51.7v-90.9h51.7v20Z" fill="#fff"/>
    <path d="M434.9,533.4h-33.8l-5.4,15.8h-25.2l34.6-90.9h25.8l34.6,90.9h-25.2l-5.4-15.8ZM428.6,515.5l-10.6-30.3-10.6,30.3h21.2Z" fill="#fff"/>
    <path d="M477.2,549.2v-90.9h23.6l43.7,55.6v-55.6h23.5v90.9h-23.5l-43.7-55.6v55.6h-23.6Z" fill="#fff"/>
    <path d="M695,458.3v49.4c0,2.7,0,5.4.3,8.1.2,2.8.8,5.3,1.8,7.5,1,2.2,2.6,4.1,4.8,5.5s5.2,2.1,9.2,2.1,7-.7,9.1-2.1c2.1-1.4,3.7-3.2,4.8-5.5,1-2.2,1.7-4.8,1.9-7.5.2-2.8.3-5.5.3-8.1v-49.4h23.5v52.7c0,14.2-3.2,24.5-9.7,31-6.5,6.5-16.4,9.8-29.8,9.8s-23.4-3.3-29.9-9.8c-6.5-6.5-9.8-16.8-9.8-31v-52.7h23.6Z" fill="#fff"/>
    <path d="M814,498.4h46.9c0,4.8-.2,9.2-.6,13.1-.4,3.9-1.2,7.6-2.4,11-1.7,4.7-4,9-6.9,12.6-2.9,3.7-6.3,6.7-10.2,9.2-3.9,2.5-8.2,4.3-12.8,5.6-4.7,1.3-9.6,1.9-14.7,1.9s-13.5-1.2-19.4-3.5c-5.8-2.3-10.8-5.6-15-9.8-4.2-4.2-7.4-9.3-9.8-15.2-2.3-5.9-3.5-12.4-3.5-19.6s1.1-13.6,3.4-19.5c2.3-5.9,5.5-10.9,9.8-15.1s9.3-7.4,15.3-9.8c5.9-2.3,12.6-3.5,19.9-3.5s17.8,2,25,6.1c7.2,4.1,12.8,10.5,17,19.1l-22.4,9.3c-2.1-5-4.8-8.6-8.1-10.7s-7.1-3.3-11.4-3.3-6.8.7-9.6,2c-2.9,1.3-5.4,3.2-7.4,5.7s-3.7,5.4-4.8,8.9c-1.2,3.5-1.8,7.3-1.8,11.6s.5,7.4,1.5,10.7c1,3.3,2.5,6.1,4.5,8.6,2,2.4,4.5,4.3,7.5,5.6,3,1.3,6.4,2,10.4,2s4.6-.3,6.8-.8,4.1-1.4,5.8-2.5c1.7-1.2,3.2-2.7,4.3-4.5,1.1-1.8,1.9-4.1,2.3-6.8h-19.4v-18.3Z" fill="#fff"/>
    <circle cx="891.5" cy="549.2" r="16.7" fill="#f9ca47"/>
    <path d="M739.4,573.3c-50.1,0-99.5,11-127.4,18.5v-72.7h14c10.2,0,18-2.7,23.4-8,5.4-5.3,8.1-12.8,8.1-22.4s-2.7-17.1-8.1-22.4c-5.4-5.3-13.2-8-23.4-8h-37.6v165.9l20.1-6.8c23.4-6.8,77.5-20.5,130.9-20.5s142.4,24,143.1,24.2l7.2-22.6c-3.2-1-80.7-25.3-150.3-25.3ZM612,477.4h7.8c8.7,0,13,3.8,13,11.3s-4.3,11.3-13,11.3h-7.8v-22.7Z" fill="#f9ca47"/>
  </g>
</svg>