<?xml version="1.0" encoding="UTF-8"?>
<svg xmlns="http://www.w3.org/2000/svg" width="192" height="192" viewBox="0 0 192 192" fill="none" version="1.2"
     baseProfile="tiny-ps">
    <title>logo.svg</title>
    <g>
        <rect width="192" height="192" fill="white"></rect>
        <rect y="0.35556" width="192" height="192" rx="96" fill="white"></rect>
        <path d="M102.035 126.168C104.695 119.644 112.18 110.516 119.815 105.807L136.72 133.776L119.405 146.356L102.035 126.168ZM77.0641 146.326L53.2301 130.996C71.2752 97.2664 104.994 73.2464 144.625 68.7712L151.264 89.2196C118.598 95.6539 91.3373 117.216 77.0641 146.326ZM82.2654 76.9023L85.2779 41.0918H106.688L109.408 73.477C97.1235 77.69 89.8992 81.0557 81.6219 86.1441C75.5113 89.8913 69.9541 94.2764 64.9819 99.3053L40.7361 89.0698L47.3451 68.68L82.2654 76.9023Z"
              fill="#00C3A5"></path>
    </g>
</svg>