<?xml version="1.0" encoding="utf-8"?>
<!-- Generator: Adobe Illustrator 15.0.0, SVG Export Plug-In . SVG Version: 6.00 Build 0)  -->
<svg version="1.2" baseProfile="tiny-ps" xmlns:xlink="http://www.w3.org/1999/xlink" width="100px" height="100px" viewBox="0 0 100 100" xmlns="http://www.w3.org/2000/svg">
  <title>The New York Athletic Club</title>
<circle fill="#FFFFFF" cx="50" cy="50" r="49.951" />
<path fill="#BE1E2D" d="M78.838,83.418c-0.08-0.025-0.152-0.05-0.221-0.073c-1.674-0.606-4.31-1.661-6.96-4.031  C69.008,76.944,60.62,62.405,60.419,62.02c0.096-0.058,0.19-0.11,0.289-0.164c0.135-0.077,0.203-0.235,0.161-0.385l-0.8-2.893  c-0.028-0.096-0.092-0.173-0.181-0.213c-0.087-0.043-0.188-0.045-0.276-0.005c-0.048,0.021-0.091,0.041-0.138,0.063  c0.001,0.042-0.02,0.008,0,0c-0.007-0.217,0.002-0.399,0.018-0.543c0.085-0.861,0.626-2.299,1.461-3.473  c0.829-1.178,1.946-2.471,3.04-3.8c2.064-2.508,2.858-4.972,2.855-7.215c-0.024-5.588-4.747-9.629-5.899-10.608  c-1.769-1.476-13.584-10.042-19.045-13.55c-2.964-1.903-6.726-4.696-9.739-7.009c-1.508-1.157-2.831-2.195-3.774-2.944  c-0.943-0.747-1.509-1.205-1.51-1.206c-0.1-0.08-0.229-0.119-0.355-0.103c-0.126,0.014-0.242,0.078-0.322,0.179  c-1.001,1.269-1.376,2.532-1.375,3.653c0,1.07,0.333,1.997,0.725,2.713c-0.299,1.05-0.446,2.007-0.446,2.909  c-0.004,2.264,0.949,4.115,2.589,6.132c-0.476,0.869-0.685,1.729-0.685,2.544c0.006,1.77,0.945,3.261,1.972,4.441  c-0.062,0.304-0.089,0.61-0.089,0.915c0.025,2.749,2.167,5.41,3.475,6.791c-0.126,0.44-0.187,0.871-0.187,1.285  c0.002,1.549,0.829,2.825,1.884,3.827c0.876,0.833,1.925,1.505,2.888,2.04c-0.345,0.446-0.48,0.969-0.473,1.432  c0.003,0.578,0.174,1.087,0.377,1.452c0.755,1.352,1.648,1.97,2.978,2.779c-0.009,0.081-0.027,0.192-0.053,0.316  c-0.035-0.008-0.071-0.012-0.107-0.01c-0.122,0.01-0.228,0.084-0.277,0.195l-1.306,2.854c-0.05,0.111-0.037,0.237,0.034,0.336  c0.056,0.079,0.121,0.162,0.184,0.243v0.001l0,0c-0.51,0.848-1.162,1.703-1.976,2.45c-2.304,2.123-4.144,5.25-4.155,8.264  c0,0.509,0.055,1.017,0.173,1.512c0.541,2.28,2.214,4.182,4.359,5.351c1.077,0.586,2.92,1.303,4.8,2.063  c1.26,0.511,2.536,1.036,3.568,1.529c0.001-0.002,0.003-0.006,0.004-0.009v0.001c-0.001,0.002-0.002,0.006-0.003,0.008  c-0.028,0.064-0.044,0.103-0.045,0.104c-0.035,0.083-0.036,0.179-0.003,0.262c0.036,0.083,0.104,0.152,0.189,0.183  c0.546,0.215,1.285,0.656,1.872,1.041c0.59,0.386,1.028,0.716,1.03,0.716c0.059,0.042,0.128,0.065,0.199,0.065  c0.034,0,0.068-0.006,0.101-0.015c0.061-0.02,0.109-0.058,0.149-0.103c0,0,0,0-0.001-0.002c0.011-0.011,0.021-0.022,0.03-0.035l0,0  c-0.009,0.013-0.019,0.024-0.028,0.037c1.663,1.391,3.045,3.095,4.999,5.653c1.531,2.214,3.68,3.582,5.742,4.48  c0.944,0.456,4.032,1.056,4.591,1.344c0.222,0.113,0.489,0.381,0.868,0.697" />
<path fill="#FFFFFF" d="M45.116,57.73c2.646,2.528,5.541,5.177,7.162,6.576c0.141,0.121,0.353,0.106,0.477-0.034  c0,0,0.178-0.204,0.525-0.552c0.824-0.825,2.569-2.42,4.88-3.753c-0.031-0.241-0.056-0.486-0.058-0.744  c-2.903,1.618-4.966,3.656-5.629,4.355c-1.644-1.433-4.381-3.942-6.891-6.339c-1.997-1.906-4.991-5.025-6.023-6.181  c-0.059,0.205-0.143,0.445-0.258,0.726C40.396,52.98,43.25,55.947,45.116,57.73" />
<path fill="#FFFFFF" d="M50.84,66.664c0.101-0.142,0.079-0.339-0.052-0.452c-0.005-0.003-2.428-2.128-5.163-4.682  c-2.242-2.092-5.955-5.875-7.424-7.582c-0.114,0.194-0.24,0.393-0.381,0.594c1.519,1.741,5.154,5.438,7.341,7.482  c2.249,2.101,4.289,3.911,4.954,4.497c-1.394,2.069-4.084,7.93-5.1,10.171c0.209,0.086,0.415,0.181,0.615,0.279  c0.318-0.699,1.482-3.327,1.937-4.277C48.614,70.5,49.912,67.962,50.84,66.664" />
<path fill="#FFFFFF" d="M48.045,78.44c0.183,0.158,0.63,0.156,0.543,0.388c2.674-7.055,5.395-12.468,10.725-15.957  c-0.129-0.19-0.25-0.383-0.359-0.577c-5.42,3.54-8.203,8.579-10.307,14.42" />
<path fill="#FFFFFF" d="M50.066,65.954c0-1.306,1.059-2.364,2.364-2.364c1.306,0,2.365,1.059,2.366,2.364  c-0.001,1.307-1.061,2.363-2.366,2.363C51.125,68.317,50.066,67.261,50.066,65.954 M50.895,65.954  c0.001,0.848,0.688,1.533,1.535,1.534c0.848-0.001,1.533-0.687,1.535-1.534c-0.002-0.849-0.688-1.532-1.535-1.534  C51.582,64.422,50.896,65.105,50.895,65.954" />
<path fill="#FFFFFF" d="M58.159,59.969c0.498-0.29,1.604-0.827,2.153-1.079c-0.031-0.268-0.047-0.508-0.049-0.72  c-0.553,0.246-1.658,0.774-2.162,1.054C58.104,59.482,58.128,59.727,58.159,59.969" />
<path fill="#FFFFFF" d="M58.954,62.294c0.109,0.194,0.23,0.387,0.359,0.577c0.424-0.279,1.447-0.954,1.905-1.211  c-0.11-0.209-0.203-0.415-0.29-0.618C60.445,61.312,59.401,62.002,58.954,62.294" />
<path fill="#FFFFFF" d="M40.523,61.273c-0.317-1.46,0.637-2.899,0.607-3.718c-0.013-0.358-1.763,2.909-1.397,4.118  c0.398,1.331,3.272,3.213,3.191,2.917C42.842,64.295,40.827,62.671,40.523,61.273" />
<path fill="#FFFFFF" d="M39.062,51.103" />
<path fill="#BE1E2D" d="M80.613,84.023c-0.18-0.062-0.421-0.139-0.782-0.253c-0.061-0.02-0.245-0.096-0.31-0.116  c-0.493,0.266-2.113,0.909-0.48,1.642c0.661,0.3,1.391,0.613,1.225,0.652c-0.164,0.037-2.838-0.731-2.633-1.249  c0.146-0.373,1.035-0.984,1.537-1.184c-0.21-0.062-0.4-0.117-0.553-0.171l-25.044,0.732c1.531,2.214,3.68,3.582,5.742,4.48  c0.944,0.456,4.032,1.056,4.591,1.344c0.563,0.291,1.434,1.569,3.666,2.173c0.203,0.038,0.391,0.063,0.562,0.076  c0.234-0.037,0.433-0.101,0.577-0.179c0.229-0.126,0.304-0.254,0.316-0.338c0.009-0.036,0.021-0.073,0.036-0.108  c-0.126-0.438-1.291-1.223-1.146-1.433c0.283-0.418,1.217,0.776,1.768,1.132c0.035,0.011,0.072,0.021,0.105,0.039  c0.057,0.029,0.13,0.059,0.213,0.085l0,0c0.015,0.004,0.03,0.01,0.05,0.015c0.027,0.008,0.053,0.015,0.082,0.021  c-0.001,0.001-0.001,0.002-0.002,0.005c0.084,0.026,0.195,0.062,0.327,0.092c0.1-0.007,0.24-0.023,0.291-0.024  c0.307,0.004,0.598-0.059,0.75-0.144c0.163-0.087,0.342-0.184,0.478-0.304c0.088-0.076,0.147-0.154,0.191-0.235  c0.059-0.141,0.059-0.293-0.062-0.438c-0.111-0.132-0.072-0.086-0.535-0.354c-0.464-0.266-1.161-0.849-1.101-0.977  c0.143-0.315,1.038,0.473,1.12,0.528c0.255,0.181,0.287,0.186,0.616,0.37c0.331,0.186,0.568,0.286,0.894,0.367  c0.004,0,0.006,0.002,0.01,0.003c0.17,0.03,0.433,0.061,0.683,0.056c0.395,0.012,0.812-0.08,0.891-0.151  c0.234-0.156,0.356-0.267,0.437-0.384c0.054-0.08,0.103-0.189,0.146-0.353c0.012-0.161-0.006-0.332-0.105-0.433  c-0.119-0.12-0.271-0.309-0.717-0.585c-0.442-0.272-1.618-1.032-1.557-1.13c0.169-0.268,1.602,0.69,1.689,0.742  c0.264,0.159,0.505,0.413,0.852,0.541c0.164,0.064,0.34,0.115,0.524,0.163c0.015,0.002,0.027,0.003,0.041,0.007  c0.184,0.058,0.385,0.085,0.591,0.085c0.475,0.002,0.968-0.153,1.307-0.399c0.315-0.229,0.478-0.494,0.509-0.793  c-0.104-0.321-0.837-0.562-1.224-0.773c-0.442-0.244-2.101-1.033-2.011-1.212c0.192-0.389,2.377,0.887,2.685,1.008  c0.308,0.12,0.689,0.254,1.133,0.34c0.023,0.003,0.049,0.003,0.072,0.01c0.669,0,0.937-0.046,1.606-0.383  c0.261-0.135,0.558-0.394,0.786-0.688c0.055-0.13,0.102-0.271,0.137-0.423C81.752,84.798,81.264,84.342,80.613,84.023z" />
<g>
	<path fill="#FFFFFF" d="M52.73,49.09c0.865,0.146,1.513,0.17,1.988,0.137c-0.339-0.02-0.728-0.062-1.175-0.137   c-1.694-0.288-3.341-1.586-3.392-2.3c-0.036-0.519,0.244-0.729,0.973-1.056c0.049-0.022,0.103-0.038,0.159-0.051   c-0.384-0.054-0.729-0.058-0.974,0.051c-0.729,0.326-1.008,0.537-0.972,1.056C49.389,47.504,51.037,48.803,52.73,49.09z" />
	<path fill="#FFFFFF" d="M49.622,35.688c-0.21-0.032-0.421-0.046-0.632-0.027c-0.609,0.056-2.86,0.797-2.613,1.449   c0.526,1.399,1.374,1.943,3.094,2.818c1.974,1.007,5.738,1.424,6.001,1.329c0.019-0.007,0.035-0.017,0.052-0.024   c-1.259-0.124-3.755-0.547-5.239-1.305c-1.721-0.875-2.567-1.419-3.095-2.818C46.964,36.51,48.84,35.837,49.622,35.688z" />
	<path fill="#FFFFFF" d="M48.434,31.338c0.094-0.02,0.239-0.06,0.395-0.097c-0.017-0.011-0.033-0.023-0.048-0.033   c-0.214-0.157-0.891,0.077-1.161,0.13c-0.487,0.097-1.857,0.285-1.927,0.866c-0.167,1.365,3.59,2.828,4.975,3.234   c1.222,0.36,2.725,0.516,3.07,0.423c-0.631-0.056-1.497-0.2-2.256-0.423c-1.385-0.406-5.143-1.87-4.976-3.234   C46.578,31.624,47.947,31.436,48.434,31.338z" />
	<path fill="#FFFFFF" d="M43.803,27.048c0.001-0.016,0.004-0.031,0.01-0.045c0.118-0.345,1.039-0.017,1.074-0.289   c0.02-0.16-2.584-0.432-4.672-1.564c-0.362-0.198-0.712-0.42-1.034-0.679c-0.158-0.128-0.31-0.265-0.452-0.412   c-0.044-0.046-0.308-0.292-0.16-0.335c0.093-0.026,0.206,0.014,0.3,0.017c0.13,0.005,0.261,0.008,0.391,0.006   c0.256-0.004,0.514-0.027,0.761-0.099c0.077-0.021,0.22-0.057,0.257-0.141c0.08-0.179-0.204-0.181-0.32-0.196   c-0.216-0.027-0.431-0.055-0.643-0.093c-1.64-0.292-3.182-1.007-4.575-1.903c-1.24-0.799-1.335-1.385-1.323-1.55   c-0.365-0.102-0.749-0.192-0.807-0.041c-0.027,0.071-0.069,0.698,1.317,1.591c1.407,0.904,2.966,1.627,4.624,1.912   c0.302,0.053,0.607,0.079,0.912,0.122c0.048,0.006,0.16,0.005,0.198,0.041c0.224,0.211-0.664,0.176-0.771,0.165   c-0.285-0.029-0.579-0.033-0.866-0.033c-0.083,0-0.53,0.045-0.393,0.216c0.479,0.597,1.089,1.041,1.77,1.412   c0.875,0.475,1.828,0.801,2.788,1.059c0.371,0.1,0.744,0.188,1.117,0.275c0.134,0.031,0.269,0.059,0.402,0.094   c0.281,0.075,0.06,0.181-0.104,0.282c-0.16,0.098-0.419,0.111-0.397,0.351c0.023,0.25,0.341,0.48,0.515,0.621   c0.249,0.244,1.263,1.266,3.018,1.699c0.281,0.069,0.391,0.002,0.414-0.091c-0.698-0.208-1.354-0.584-1.953-0.994   c-0.336-0.23-0.664-0.479-0.958-0.765C44.112,27.552,43.779,27.272,43.803,27.048z" />
	<path fill="#FFFFFF" d="M45.888,40.841c-1.918-0.651-3.386-1.845-3.405-2.264c-0.008-0.167,0.123-0.185,0.334-0.179   c0.287,0.008,0.422-0.094,0.021-0.213c-0.982-0.286-2.581-0.747-3.73-1.405c-1.627-0.933-1.95-1.856-1.925-2.12   c0.003-0.041,0.028-0.072,0.066-0.095c-0.362-0.062-0.862-0.109-0.88,0.095c-0.005,0.058,0.006,0.147,0.044,0.261   c0.164,0.334,0.425,0.7,0.762,1.056c0.277,0.257,0.642,0.529,1.119,0.803c1.15,0.659,2.748,1.119,3.73,1.405   c0.402,0.119,0.267,0.221-0.02,0.213c-0.212-0.006-0.343,0.012-0.335,0.179c0.001,0.021,0.007,0.046,0.016,0.071   c0.087,0.12,0.177,0.253,0.28,0.394c0.524,0.543,1.694,1.319,3.11,1.799c0.153,0.052,0.244,0.096,0.292,0.131   c0.263,0.048,0.458,0.071,0.547,0.084C46.237,41.104,46.405,41.016,45.888,40.841z" />
	<path fill="#FFFFFF" d="M61.005,46.506c-0.589-0.063-1.229-0.23-1.568-0.393c-0.583-0.28-1.559-0.768-1.447-1.491   c0.213-1.402,1.896-1.161,2.1-1.172c0.188-0.009,0.126-0.155-0.065-0.228c-0.235-0.092-0.853-0.389-1.043-0.503   c-0.283-0.169-1.602-0.922-1.354-2.137c0.117-0.573,0.55-0.833,1.168-0.902c-1.04-0.088-1.819,0.1-1.981,0.902   c-0.072,0.352-0.011,0.708,0.158,1.021c0.071,0.131,0.15,0.284,0.238,0.404c0.135,0.185,0.372,0.31,0.537,0.47   c0.142,0.137,0.301,0.181,0.472,0.271c0.322,0.171,0.65,0.34,0.991,0.474c0.191,0.073,0.149,0.158-0.038,0.166   c-0.146,0.009-0.928-0.049-1.508,0.381c-0.166,0.21-0.325,0.497-0.374,0.763c-0.021,0.115-0.013,0.242-0.013,0.361   c0,0.647,0.846,0.979,1.347,1.22C59.135,46.357,60.333,46.617,61.005,46.506z" />
	<path fill="#FFFFFF" d="M56.099,53.264c0.094-0.014,0.182-0.027,0.264-0.046c-0.404-0.086-0.849-0.26-0.998-0.369   c-0.228-0.169-0.423-0.442-0.224-0.885c0.132-0.293,0.462-0.539,0.682-0.683c-0.626-0.382-1.886,0.509-1.524,1.272   C54.615,53.321,55.686,53.328,56.099,53.264z" />
	<path fill="#FFFFFF" d="M54.552,45.604c-0.165-0.007-0.32-0.021-0.456-0.04c-1.242-0.174-5.507-0.521-5.673-3.319   c-0.03-0.494,1.29-1.09,2.194-1.262c-0.067-0.013-0.138-0.024-0.211-0.037c-0.709-0.118-2.834,0.674-2.797,1.299   c0.011,0.181,0.04,0.351,0.083,0.513c0.257,0.583,0.814,1.237,1.839,1.917c1.354,0.634,3.043,0.79,3.75,0.889   C53.627,45.613,54.084,45.622,54.552,45.604z" />
	<path fill="#FFFFFF" d="M55.859,35.418c-0.099-0.053-0.238-0.104-0.361-0.116c-0.596-0.052-0.895,0.49-0.8,0.998   c0.11,0.591,0.429,1.151,0.905,1.521c0.417,0.323,0.935,0.552,1.438,0.703c0.511,0.152,1.021,0.331,1.54,0.469   c3.308,0.883,3.658,0.849,3.835,0.739c-0.395-0.072-1.231-0.262-3.02-0.739c-0.794-0.212-1.584-0.49-2.288-0.918   c-0.584-0.356-1.343-0.572-1.692-1.224C55.134,36.33,55.414,35.736,55.859,35.418z" />
	<path fill="#FFFFFF" d="M33.623,37.814c1.281,0.866,2.644,1.609,4.108,2.112c0.104,0.035,0.572,0.144,0.5,0.2   c-0.866,0.674,0.778,1.457,1.173,1.772c0.709,0.47,1.505,0.806,2.417,1.103c0.134,0.043,0.469,0.065,0.518,0.21   c0.015,0.047-0.098,0.508-0.035,0.619c0.098,0.176,0.325,0.325,0.487,0.441c0.403,0.292,2.293,1.076,2.81,1.238   c0.986,0.309,2.044,0.413,2.852,0.364c-0.643-0.035-1.357-0.151-2.038-0.364c-0.977-0.306-3.122-1.565-3.21-1.727   c-0.057-0.108-0.007-0.529-0.02-0.564c-0.055-0.149-0.422-0.175-0.549-0.217c-1.557-0.506-2.795-0.994-3.816-2.2   c-0.321-0.38,0.271-0.508,0.251-0.655c-0.329-0.431-1.671-0.33-4.635-2.332c-0.007-0.009-0.011-0.019-0.02-0.026   c-1.134-1.122-3.121-3.604-3.369-5.833c-0.454-0.293-0.722-0.378-0.836-0.26c0.111,2.293,2.213,4.928,3.391,6.093   C33.61,37.796,33.616,37.805,33.623,37.814z" />
	<path fill="#FFFFFF" d="M52.577,52.614c0.261,0.012,0.495,0.02,0.683-0.005c-0.663-0.016-3.286-0.364-6.028-0.925   c-2.238-0.459-6.542-1.512-8.373-3.868c-0.157-0.2-0.259-0.608-0.256-0.981c0.008-0.382,0.112-0.726,0.453-1.028   c-0.307-0.076-0.583-0.103-0.771-0.04c-0.379,0.311-0.488,0.669-0.496,1.068c-0.002,0.373,0.146,0.752,0.256,0.981   c1.222,2.56,6.09,3.708,8.329,4.166C49.367,52.595,52.277,52.599,52.577,52.614z" />
	<path fill="#FFFFFF" d="M38.378,44.903c2.276,1.111,4.229,1.157,4.986,1.387c0.469,0.143,0.141,0.273-0.019,0.27   c-0.16-0.002-1.01-0.013-1.057,0.306c-0.096,0.648,2.65,1.668,3.64,1.77c0.355,0.037,0.937,0.06,1.505,0.042   c-0.268-0.008-0.51-0.022-0.691-0.042c-0.989-0.102-3.736-1.122-3.639-1.77c0.046-0.319,0.896-0.308,1.057-0.306   c0.159,0.003,0.487-0.127,0.02-0.27c-0.759-0.23-2.711-0.276-4.986-1.387c-0.016-0.011-0.028-0.024-0.044-0.032   c-1.068-0.558-2.31-1.297-3.258-2.202c-0.951-0.911-1.586-1.947-1.585-3.134c0-0.21,0.021-0.426,0.064-0.648   c-0.433-0.189-0.658-0.228-0.784-0.148c-0.063,0.276-0.095,0.541-0.095,0.797c-0.001,1.187,0.634,2.223,1.586,3.134   c0.949,0.904,2.188,1.644,3.256,2.202C38.35,44.879,38.363,44.893,38.378,44.903z" />
	<path fill="#FFFFFF" d="M46.161,54.308c-1.777-0.426-2.119-1.944-1.583-2.147c-0.338-0.053-0.626-0.066-0.808-0.002   c-0.544,0.192-0.208,1.723,1.578,2.149c0.476,0.115,0.876,0.125,1.226,0.074C46.442,54.367,46.306,54.343,46.161,54.308z" />
	<path fill="#FFFFFF" d="M59.746,51.343c0.36-0.521,3.794-4.577,4.594-6.128c0.843-1.634,0.816-3.364,0.411-5.124   c-1.046-4.524-9.517-10.114-15.142-13.679c-8.898-5.638-17.283-12.283-17.541-11.926c-0.085,0.119,0.324,0.539,0.981,1.1   c2.894,2.081,8.917,6.721,15.396,10.826c2.941,1.863,6.659,4.281,9.688,6.811c0.006,0.004,0.012,0.009,0.018,0.014   c0.645,0.499,3.693,3.591,4.216,4.339c0.605,0.861,2.363,3.788,1.104,6.812c-0.738,1.772-3.631,5.274-3.656,5.304   c-0.051,0.138-1.771,2.416-2.074,3.139c-0.221,0.526-0.419,1.165-0.312,1.748c0.022,0.116,0.612,1.104,0.645,0.712   C58.088,55.149,58.221,53.555,59.746,51.343z" />
	<path fill="#FFFFFF" d="M52.729,55.219c-0.333-0.89,1.312-1.39,1.271-1.757c-0.59-0.03-0.938,0.111-1.341,0.513   c-0.157,0.155-0.348,0.343-0.483,0.5c-0.343,0.401-0.435,0.797,0.071,1.113c0.46,0.29,0.901,0.115,1.381,0.192   c-0.305-0.049-0.786-0.196-0.892-0.535C52.734,55.234,52.733,55.227,52.729,55.219z" />
	<path fill="#FFFFFF" d="M56.403,49.938c0.127-0.507,0.752-0.798,1.221-0.938c-0.214-0.061-0.422-0.11-0.748-0.02   c-0.332,0.092-0.672,0.229-0.939,0.452c-0.248,0.208-0.44,0.578-0.406,0.945c0.073,0.794,1.89,0.936,2.126,0.816   c0.034-0.017,0.073-0.043,0.117-0.073c-0.101-0.035-0.216-0.076-0.353-0.123C56.824,50.79,56.243,50.59,56.403,49.938z" />
	<path fill="#FFFFFF" d="M48.106,54.801c0.135-0.33,0.632-0.677,0.87-0.814c0.278-0.158,1.292-0.469,1.274-0.844   c-0.763-0.04-1.322,0.194-1.943,0.601c-0.321,0.21-1.555,1.11-0.709,1.646c0.404,0.258,0.934,0.311,1.391,0.227   c-0.255,0.047-0.912-0.339-0.917-0.652C48.07,54.911,48.083,54.855,48.106,54.801z" />
	<path fill="#FFFFFF" d="M50.321,28.247c-0.078-0.037-0.136-0.057-0.17-0.058c-0.185-0.002-1.751,0.133-2.275,0.487   c-0.645,0.574,1.23,2.157,1.342,2.25c0.851,0.703,3.49,1.809,4.227,1.564c0.02-0.007,0.043-0.014,0.065-0.021   c-1.089-0.214-2.819-1-3.478-1.543c-0.852-0.702-1.707-1.617-1.493-2.09C48.685,28.516,49.647,28.332,50.321,28.247z" />
	<path fill="#FFFFFF" d="M55.832,32.496c-0.582-0.132-1.087-0.041-1.247,0.438c-0.158,0.464,0.457,1.453,1.544,2.059   c0.612,0.341,2.849,1.239,3.488,1.355c0.607,0.109,0.762,0.236,0.864,0.01c-0.018-0.003-0.032-0.006-0.052-0.01   c-0.638-0.117-2.902-0.97-3.486-1.355c-0.585-0.388-1.702-1.595-1.546-2.059C55.475,32.707,55.629,32.567,55.832,32.496z" />
	<path fill="#FFFFFF" d="M57.536,47.275c0.104-0.42,0.446-0.641,0.745-0.749c-0.933-0.26-1.427,0.655-1.447,0.683   c-0.571,0.762,0.495,1.234,0.927,1.371c0.605,0.189,1.308,0.227,1.735,0.176c-0.301-0.027-0.623-0.083-0.921-0.176   C57.863,48.357,57.411,47.792,57.536,47.275z" />
	<path fill="#FFFFFF" d="M30.325,30.336c0.585,0.587,1.525,1.43,2.573,1.98c1.74,0.917,3.053,1.614,4.514,2.029   c0.186,0.062,0.784,0.242,0.916,0.271c0.297,0.063,0.391-0.107-0.101-0.271c-1.462-0.415-2.773-1.112-4.514-2.029   c-1.048-0.55-1.988-1.393-2.573-1.98c-0.015-0.089-0.052-0.174-0.113-0.244c-1.028-1.131-1.897-2.506-1.891-3.988   c0.001-0.504,0.099-1.03,0.329-1.586c-0.299-0.161-0.552-0.276-0.679-0.299c-0.328,0.666-0.463,1.292-0.464,1.885   c-0.006,1.482,0.863,2.856,1.891,3.988C30.273,30.162,30.31,30.247,30.325,30.336z" />
	<path fill="#FFFFFF" d="M26.89,14.386c1.829,2.636,5.473,4.569,6.899,5.275c0.503,0.082,1.316,0.427,1.113,0.146   c-1.127-0.547-5.223-2.575-7.198-5.422c-0.008-0.06-0.027-0.119-0.06-0.172c-0.373-0.63-0.696-1.466-0.696-2.408   c0.002-0.681,0.164-1.43,0.616-2.234c-0.217-0.172-0.401-0.319-0.546-0.436c-0.659,0.971-0.881,1.867-0.884,2.669   c0,0.942,0.322,1.778,0.696,2.408C26.863,14.267,26.882,14.326,26.89,14.386z" />
</g>
<path fill="#FFFFFF" d="M43.799,33.912c-4.167-1.828-5.327-3.778-5.179-4.001c0.135-0.205-0.184-0.298-0.34-0.361  c-4.015-1.513-4.638-2.784-4.657-3.045c0.016-0.015,0.035-0.03,0.061-0.045c0.105-0.06,0.37-0.028,0.485-0.004  c0.388,0.078,0.709,0.232,1.127,0.217c0.087-0.003,0.237-0.149,0.185-0.203c0,0-0.081-0.137-0.246-0.176  c-0.804-0.188-3.684-1.928-5.137-3.362c-2.149-2.122-2.868-4.281-2.869-5.503c0-0.38,0.033-0.779,0.096-1.197  c-0.353-0.366-0.576-0.611-0.702-0.622c-0.136,0.651-0.208,1.255-0.208,1.819c0.002,2.05,0.854,3.693,2.551,5.741  c1.131,1.018,3.222,2.49,5.136,3.039c-0.404-0.024-0.833-0.049-1.169,0.103c-0.123,0.055-0.151,0.111-0.124,0.163  c-0.01,0.046,0.021,0.177,0.151,0.376c0.348,0.363,0.789,0.759,1.297,1.157c0.697,0.456,1.72,0.983,3.208,1.544  c0.157,0.062,0.488,0.166,0.339,0.361c-0.44,0.581,3.081,3.081,5.179,4.001c0.117,0.052,0.189,0.111,0.228,0.168  c0.174,0.07,0.322,0.13,0.433,0.178C44.054,34.439,44.25,34.111,43.799,33.912z" />
</svg>