<?xml version="1.0" encoding="UTF-8" standalone="yes"?><svg xmlns="http://www.w3.org/2000/svg" width="1080" height="1080" viewBox="0 0 1080 1080" fill="none" version="1.2" baseProfile="tiny-ps"><title>OFX logo bimi</title><g id="OFX-logo-bg"><g id="OFX_SOLO_LOGO_RGB"><g id="OFX_solo_gradient_00000177463660385904665010000009022570725806785959_"><g id="Group"><g id="Group_2"><path id="Vector" d="M494.646 654.005C494.646 670.893 508.233 684.497 525.1 684.497C541.967 684.497 555.555 670.893 555.555 654.005C555.555 607.095 593.505 568.628 640.827 568.628C657.694 568.628 671.281 555.024 671.281 538.136C671.281 521.249 657.694 507.645 640.827 507.645C560.24 508.114 494.646 573.319 494.646 654.005ZM408.905 538.605C408.905 585.516 370.954 623.983 323.633 623.983C276.78 623.983 238.361 585.985 238.361 538.605C238.361 491.695 276.312 453.228 323.633 453.228C370.954 453.228 408.905 491.226 408.905 538.605ZM469.814 538.605C469.814 457.919 404.22 392.245 323.633 392.245C243.046 392.245 177.452 457.45 177.452 538.605C177.452 619.761 243.046 684.966 323.633 684.966C404.22 684.966 469.814 619.292 469.814 538.605ZM897.58 441.97C907.419 428.366 905.077 408.663 891.489 398.812C877.433 388.492 857.755 391.775 847.916 405.849L801.532 471.992C796.847 479.029 786.539 479.029 781.385 471.992L735.001 405.849C729.379 397.874 720.476 392.714 709.7 392.714H525.569C508.702 392.714 495.114 406.318 495.114 423.205V483.72C495.114 500.608 508.233 515.15 524.632 515.619C541.967 516.088 556.023 502.015 556.023 485.127V466.832C556.023 460.265 561.645 454.636 568.205 454.636H686.742C690.959 454.636 694.707 456.512 696.582 459.796L738.281 519.372C747.183 532.038 747.183 548.926 738.281 561.592L684.4 638.525C674.561 652.129 676.903 671.831 690.491 681.683C704.547 692.003 724.225 688.719 734.064 674.646L780.448 608.502C785.133 601.466 795.441 601.466 800.595 608.502L846.042 673.708C855.881 687.312 874.622 692.003 888.678 682.621C903.203 673.239 906.951 653.536 897.112 639.463L842.762 561.592C833.86 548.926 833.86 532.038 842.762 519.372L897.58 441.97Z" fill="url(#paint0_linear_199_231)"></path></g></g></g></g></g><defs><linearGradient id="paint0_linear_199_231" x1="427.512" y1="711.357" x2="996.549" y2="34.0396" gradientUnits="userSpaceOnUse"><stop stop-color="#FF9E1B"></stop><stop offset="0.1567" stop-color="#FE8312"></stop><stop offset="0.3369" stop-color="#FE6B0A"></stop><stop offset="0.5289" stop-color="#FD5A04"></stop><stop offset="0.7387" stop-color="#FD5001"></stop><stop offset="1" stop-color="#FF4D00"></stop></linearGradient></defs></svg>