<svg xmlns="http://www.w3.org/2000/svg" xmlns:xlink="http://www.w3.org/1999/xlink" version="1.2" viewBox="0 0 1080 1080" baseProfile="tiny-ps">
  <title>Inductive Automation</title>
  <g>
    <path d="M914.815,775.963c-0.085-17.974,14.396-32.541,32.285-32.626   c17.889-0.085,32.541,14.396,32.626,32.285c0.085,17.974-14.396,32.541-32.285,32.626c-0.085,0-0.085,0-0.17,0   c-17.719,0.17-32.285-14.056-32.456-31.774C914.815,776.304,914.815,776.133,914.815,775.963z M974.7,775.963   c0.085-15.163-12.182-27.515-27.344-27.515c-15.163-0.085-27.515,12.181-27.515,27.344c0,15.163,12.181,27.515,27.344,27.515h0.085   C962.433,803.307,974.615,791.126,974.7,775.963z M962.689,793.511h-5.963l-10.563-16.27H940.2v16.27h-5.026v-35.437h15.419   c6.389,0,12.607,1.704,12.607,9.285c0,6.985-4.856,9.541-11.159,9.711L962.689,793.511z M946.078,772.215   c4.344,0,12.096,0.852,12.096-4.856c0-3.578-4.77-4.259-8.604-4.259h-9.37v9.115H946.078z" fill="#445C6D"/>
    <path d="M920.948,540c0-12.352-0.596-24.533-1.704-36.63L1000,449.107c-4.004-20.53-9.37-40.719-16.1-60.481   l-97.111-6.559c-10.222-22.233-22.489-43.53-36.715-63.463l42.763-87.144c-13.8-15.759-28.537-30.581-44.296-44.381l-87.23,42.848   c-19.933-14.226-41.23-26.578-63.463-36.715L691.289,96.1c-19.763-6.73-39.952-12.096-60.482-16.1l-54.178,80.756   c-12.096-1.107-24.278-1.704-36.63-1.704s-24.533,0.596-36.63,1.704L449.193,80c-20.53,4.004-40.719,9.456-60.567,16.185   l-6.559,97.026c-22.319,10.137-43.53,22.404-63.463,36.715l-87.144-42.763c-15.759,13.8-30.496,28.622-44.296,44.381l42.848,87.144   c-14.226,19.933-26.578,41.144-36.715,63.463l-97.111,6.559c-6.73,19.763-12.181,39.952-16.185,60.481l80.841,54.178   c-1.107,12.011-1.789,24.278-1.789,36.715s0.681,24.533,1.789,36.63L80,630.807c4.004,20.53,9.37,40.719,16.1,60.482l97.111,6.559   c10.137,22.233,22.489,43.444,36.715,63.378l-42.848,87.23c13.8,15.759,28.622,30.582,44.381,44.381l87.23-42.848   c19.933,14.226,41.144,26.493,63.378,36.715l6.559,97.111c19.763,6.73,39.952,12.182,60.481,16.185l54.263-80.926   c12.096,1.107,24.278,1.874,36.63,1.874s24.619-0.681,36.715-1.874l54.263,80.841c20.444-4.004,40.548-9.37,60.311-16.1   l6.559-97.111c22.319-10.222,43.53-22.489,63.463-36.715l87.144,42.848c15.759-13.8,30.496-28.537,44.296-44.296l-42.678-87.23   c14.226-19.933,26.578-41.23,36.715-63.463l97.026-6.559c6.73-19.763,12.182-39.952,16.185-60.482l-80.841-54.178   C920.352,564.533,920.948,552.352,920.948,540z M540,826.478c-158.189,0-286.478-128.204-286.478-286.393   S381.811,253.607,540,253.607S826.478,381.811,826.478,540S698.189,826.478,540,826.478z" fill="#445C6D"/>
    <path d="M720.933,539.915c0-23.596-101.456-176.248-101.456-176.248c-8.093-13.885-33.904-13.885-57.756,0   c-23.852,13.885-36.63,36.289-28.537,50.174l11.33,19.422l31.519,54.604H425.256h-54.774c-16.1,0-29.048,23.341-29.133,52.133   v0.085c0.085,28.793,13.033,52.133,29.133,52.133h54.774h150.778l-31.519,54.604l-11.33,19.422   c-8.093,13.885,4.685,36.374,28.537,50.259c23.852,13.885,49.748,13.8,57.756-0.085c0,0,101.456-152.652,101.456-176.248v-0.085   C720.933,540.085,720.933,540,720.933,539.915z" fill="#8DC63E"/>
  </g>
</svg>
