<?xml version="1.0" encoding="utf-8"?>
<!-- Generator: Adobe Illustrator 16.0.0, SVG Export Plug-In . SVG Version: 6.00 Build 0)  -->
<svg version="1.2" baseProfile="tiny-ps" id="svg" xmlns="http://www.w3.org/2000/svg" xmlns:xlink="http://www.w3.org/1999/xlink"
	  width="400px" height="404.625px" viewBox="0 0 400 404.625" xml:space="preserve">
	 <title>CDSL</title>
<g id="svgg">
	<path id="path0" fill="#ACACAC" d="M195.544,23.379c-15.379,4.302-18.153,24.869-4.451,33.009
		c10.952,6.506,25.325-0.707,26.771-13.437C219.305,30.279,207.594,20.01,195.544,23.379 M197.235,166.961
		c-22.529,1.708-37.532,24.784-30.301,46.602c8.099,24.443,38.712,32.132,57.164,14.36
		C248.065,204.839,230.269,164.455,197.235,166.961 M35.838,184.803c-10.875,2.895-16.348,15.037-11.482,25.473
		c6.479,13.89,26.873,13.205,32.65-1.098C62.568,195.404,50.072,181.014,35.838,184.803 M355.307,184.808
		c-19.518,5.114-16.649,34.511,3.458,35.428c14.075,0.642,23.127-13.468,16.848-26.258
		C372.019,186.657,363.291,182.715,355.307,184.808 M195.501,346.319c-14.812,3.884-17.964,23.955-5.104,32.503
		c11.842,7.873,27.48-0.77,27.48-15.188C217.878,351.83,206.897,343.332,195.501,346.319"/>
	<path id="path4" fill="#145C9C" d="M182.89,71.633c-7.548,7.173-34.694,34.097-34.957,34.673c-0.22,0.48-0.293,5.83-0.302,21.822
		l-0.011,21.186h-21.241h-21.242l-16.965,15.388c-9.331,8.463-17.67,16.063-18.534,16.887l-1.568,1.5l-0.065,16.305
		c-0.055,13.67-0.01,16.433,0.277,17.095c0.189,0.433,5.583,6.22,11.986,12.859c6.404,6.639,14.536,15.091,18.071,18.78
		c4.938,5.152,6.625,6.767,7.276,6.961c0.575,0.173,7.485,0.229,21.427,0.173l20.579-0.081v21.17c0,11.743,0.096,21.42,0.214,21.733
		c0.276,0.725,37.281,37.157,38.133,37.543c0.883,0.399,31.712,0.439,32.85,0.043c0.558-0.194,2.566-2.294,7.215-7.545
		c3.542-4.002,10.747-12.113,16.01-18.026c5.261-5.912,9.771-11.127,10.022-11.588c0.437-0.799,0.462-1.83,0.578-21.964l0.12-21.125
		l20.884-0.12c18.106-0.105,20.972-0.17,21.547-0.488c0.363-0.203,4.058-3.909,8.209-8.236c4.15-4.329,12.217-12.719,17.928-18.646
		c5.709-5.927,10.52-11.109,10.689-11.515c0.577-1.383,0.304-32.749-0.293-33.631c-0.257-0.379-3.244-3.201-6.64-6.272
		c-3.395-3.071-11.372-10.312-17.729-16.091s-11.789-10.638-12.072-10.799c-0.392-0.224-5.41-0.296-21.111-0.302
		c-13.722-0.006-20.754-0.092-21.065-0.26c-0.456-0.244-0.467-0.735-0.474-21.064c-0.005-19.186-0.038-20.885-0.423-21.716
		c-0.35-0.757-30.411-34.937-32.491-36.942l-0.689-0.665h-16.516h-16.515L182.89,71.633 M215.494,109.877
		c0.272,0.328,0.353,3.877,0.457,19.978c0.069,10.769,0.152,19.596,0.182,19.616c0.736,0.495,3.058,0.567,18.168,0.567
		c13.406,0,16.643,0.062,16.856,0.317c0.184,0.22,0.284,5.499,0.331,17.323c0.038,9.353,0.165,17.204,0.282,17.446
		c0.412,0.849,1.278,0.887,20.219,0.887c12.52,0,18.988,0.084,19.299,0.25c0.454,0.243,0.466,0.675,0.466,15.926
		s-0.012,15.683-0.466,15.925c-0.311,0.168-6.735,0.252-19.157,0.252c-19.08,0-19.938,0.038-20.374,0.922
		c-0.109,0.224-0.23,8.058-0.269,17.41c-0.047,11.825-0.147,17.104-0.331,17.323c-0.214,0.256-3.404,0.318-16.592,0.318
		c-16.077,0.002-17.846,0.078-18.31,0.793c-0.104,0.16-0.243,9.061-0.311,19.775c-0.095,15.538-0.185,19.547-0.435,19.798
		c-0.461,0.461-30.538,0.461-30.999,0c-0.251-0.251-0.339-4.268-0.435-19.849c-0.114-18.34-0.147-19.563-0.552-19.967
		c-0.405-0.405-1.447-0.432-17.745-0.432h-17.314v-17.141c0-9.429-0.081-17.431-0.18-17.782c-0.327-1.163-0.441-1.17-20.361-1.17
		c-16.64,0-18.698-0.042-19.037-0.38c-0.577-0.577-0.577-31.016,0-31.593c0.339-0.338,2.411-0.379,19.179-0.379
		c11.489,0,19.037-0.09,19.411-0.233c0.973-0.37,0.988-0.664,0.988-18.72v-17.142h17.314c16.298,0,17.34-0.025,17.745-0.431
		c0.405-0.405,0.438-1.629,0.552-19.987c0.104-17.032,0.167-19.586,0.482-19.786C185.282,109.257,215.11,109.415,215.494,109.877
		 M22.56,22.804 M22.56,22.804 M22.56,22.804"/>
</g>
</svg>
