<?xml version="1.0" encoding="utf-8"?>
<svg
	xmlns:sodipodi="http://sodipodi.sourceforge.net/DTD/sodipodi-0.dtd"
	xmlns="http://www.w3.org/2000/svg"
	xmlns:xlink="http://www.w3.org/1999/xlink" version="1.2" viewBox="0 0 784.822 784.822" baseProfile="tiny-ps">
	<title>Power_P</title>
	<g id="g19" transform="translate(70.010849)">
		<path id="path6" d="M322.4,102.306L5.34,327.736L5,327.986c-3.139,2.228-5.003,5.84-5,9.69v219.73   c0,3.841,1.864,7.443,5,9.66l0.36,0.26l303.69,215.93c3.802,2.706,9.078,1.818,11.784-1.984c1.026-1.441,1.573-3.167,1.566-4.936   L322.4,102.306z" fill="#0072CE"/>
		<path id="path8" d="M322.4,682.516l317.06-225.43l0.34-0.25c3.142-2.226,5.007-5.839,5-9.69v-219.73   c0-3.841-1.864-7.443-5-9.66l-0.36-0.26L335.76,1.566c-3.802-2.706-9.078-1.818-11.784,1.984c-1.028,1.444-1.575,3.174-1.566,4.946   L322.4,682.516z" fill="#009CDE"/>
		<path id="path10" d="M322.76,386.286l32.21-5.7c23.63-4.18,35.11-16.51,35.11-37.69   c0-7.79,0-31.49-35.11-25.28l-32.21,5.7L322.76,386.286z M244.97,580.206c-0.703,0.146-1.432-0.072-1.94-0.58   c-0.478-0.548-0.661-1.293-0.49-2l4.46-21.42v-268.88l-4.46-19.91c-0.147-0.763,0.03-1.553,0.49-2.18   c0.458-0.656,1.154-1.108,1.94-1.26l109.6-19.41c44.7-7.9,76.93,0,95.8,23.49c16,19.91,18.39,46.72,18.39,60.92   c0,14.2-2.38,42-18.39,67.7c-18.87,30.26-51.11,49.61-95.8,57.52l-31.81,5.63v104.1c-0.052,1.463-1.097,2.702-2.53,3   L244.97,580.206z" fill="#FFFFFF"/>
	</g>
</svg>
