<?xml version="1.0" encoding="UTF-8"?>
<svg id="Layer_1" xmlns="http://www.w3.org/2000/svg" baseProfile="tiny-ps" version="1.2" viewBox="0 0 960 560">
<title>Scandinavian Capital Markets SCM AB</title>
  <path d="M148.87,186.34l-97.56.07c-25.04,0-45.42,20.37-45.42,45.41v96.55c0,18.25,10.86,33.97,26.4,41.18v-91.83h5.95v-16.39h12.58v16.39h5.97v96.06l11.47-.02v-118.84h5.93v-16.38h12.61v16.38h5.97v118.84l10.87-.02v-138.1h5.89v-16.37h12.63v16.37h5.95v138.08h11.49v-126.51h5.91v-16.37h12.63v16.37h5.97v123.82c17.54-6.28,30.17-23.03,30.17-42.72v-96.54c0-25.04-20.36-45.42-45.43-45.42" fill="#142638" stroke-width="0"/>
  <g>
    <path d="M226.42,270.31l8.08-9.39c5.6,5.23,13.09,8.79,20.23,8.79,8.79,0,13.55-3.92,13.55-9.99,0-6.41-4.99-8.43-12.02-11.41l-10.69-4.63c-7.61-3.22-15.69-9.28-15.69-20.69,0-12.37,10.94-21.88,26.16-21.88,9.04,0,17.83,3.81,23.9,9.87l-7.02,8.79c-5.01-4.16-10.23-6.66-16.88-6.66-7.37,0-12.25,3.44-12.25,9.15,0,6.07,5.94,8.32,12.36,10.95l10.58,4.39c9.16,3.92,15.7,9.74,15.7,21.04,0,12.61-10.47,23.07-27.93,23.07-10.46,0-20.69-4.17-28.06-11.41Z" fill="#142638" stroke-width="0"/>
    <path d="M289.57,241.66c0-25.44,15.93-40.55,35.54-40.55,9.76,0,17.61,4.64,22.47,9.87l-7.36,8.91c-4.04-4.04-8.67-6.78-14.75-6.78-12.71,0-21.75,10.7-21.75,28.18s8.32,28.41,21.39,28.41c6.91,0,12.26-3.21,16.65-7.96l7.37,8.68c-6.3,7.25-14.5,11.29-24.5,11.29-19.61,0-35.06-14.27-35.06-40.07Z" fill="#142638" stroke-width="0"/>
    <path d="M377.31,202.54h16.18l25.33,77.76h-14.5l-6.07-21.04h-26.15l-6.07,21.04h-14.03l25.31-77.76ZM375.3,248.44h19.86l-2.73-9.52c-2.49-8.21-4.76-17.13-7.02-25.69h-.48c-2.13,8.68-4.39,17.49-6.89,25.69l-2.74,9.52Z" fill="#142638" stroke-width="0"/>
    <path d="M425.49,202.54h14.14l24.25,43.75,7.96,16.54h.49c-.6-7.98-1.79-17.84-1.79-26.52v-33.76h13.2v77.76h-14.15l-24.26-43.75-7.97-16.53h-.47c.59,8.21,1.78,17.6,1.78,26.28v34.01h-13.19v-77.76Z" fill="#142638" stroke-width="0"/>
    <path d="M500.53,202.54h20.8c23.78,0,37.81,12.84,37.81,38.52s-14.03,39.24-37.1,39.24h-21.52v-77.76ZM520.38,269.13c15.7,0,24.61-8.93,24.61-28.07s-8.91-27.34-24.61-27.34h-6.06v55.41h6.06Z" fill="#142638" stroke-width="0"/>
    <path d="M571.89,202.54h13.78v77.76h-13.78v-77.76Z" fill="#142638" stroke-width="0"/>
    <path d="M602.44,202.54h14.14l24.26,43.75,7.97,16.54h.48c-.61-7.98-1.79-17.84-1.79-26.52v-33.76h13.2v77.76h-14.15l-24.26-43.75-7.97-16.53h-.48c.6,8.21,1.79,17.6,1.79,26.28v34.01h-13.19v-77.76Z" fill="#142638" stroke-width="0"/>
    <path d="M692.69,202.54h16.17l25.33,77.76h-14.51l-6.06-21.04h-26.16l-6.07,21.04h-14.04l25.33-77.76ZM690.68,248.44h19.86l-2.74-9.52c-2.5-8.21-4.75-17.13-7.01-25.69h-.47c-2.14,8.68-4.4,17.49-6.9,25.69l-2.73,9.52Z" fill="#142638" stroke-width="0"/>
    <path d="M728.61,202.54h14.63l10.94,39.12c2.5,8.8,4.27,16.41,6.9,25.33h.47c2.62-8.92,4.39-16.53,6.78-25.33l10.81-39.12h14.16l-24.13,77.76h-16.3l-24.25-77.76Z" fill="#142638" stroke-width="0"/>
    <path d="M802.7,202.54h13.8v77.76h-13.8v-77.76Z" fill="#142638" stroke-width="0"/>
    <path d="M848.49,202.54h16.17l25.32,77.76h-14.5l-6.05-21.04h-26.16l-6.07,21.04h-14.03l25.33-77.76ZM846.46,248.44h19.84l-2.73-9.52c-2.49-8.21-4.76-17.13-7.01-25.69h-.48c-2.14,8.68-4.4,17.49-6.9,25.69l-2.73,9.52Z" fill="#142638" stroke-width="0"/>
    <path d="M896.65,202.54h14.14l24.26,43.75,7.97,16.54h.47c-.59-7.98-1.78-17.84-1.78-26.52v-33.76h13.19v77.76h-14.13l-24.26-43.75-7.97-16.53h-.48c.61,8.21,1.79,17.6,1.79,26.28v34.01h-13.2v-77.76Z" fill="#142638" stroke-width="0"/>
    <path d="M226.71,337.49c0-19.94,13.15-31.78,29.34-31.78,8.05,0,14.51,3.64,18.54,7.73l-6.08,6.99c-3.33-3.16-7.16-5.31-12.16-5.31-10.5,0-17.96,8.39-17.96,22.09s6.88,22.27,17.67,22.27c5.68,0,10.1-2.52,13.74-6.24l6.08,6.81c-5.2,5.68-11.97,8.84-20.21,8.84-16.19,0-28.95-11.18-28.95-31.41Z" fill="#142638" stroke-width="0"/>
    <path d="M299.11,306.83h13.34l20.9,60.96h-11.96l-5.01-16.49h-21.58l-5.01,16.49h-11.58l20.9-60.96ZM297.44,342.81h16.39l-2.25-7.45c-2.07-6.43-3.93-13.42-5.79-20.14h-.39c-1.76,6.81-3.63,13.71-5.69,20.14l-2.26,7.45Z" fill="#142638" stroke-width="0"/>
    <path d="M338.85,306.83h20.22c14.21,0,24.82,4.66,24.82,18.83s-10.6,19.76-24.44,19.76h-9.22v22.37h-11.38v-60.96ZM358.56,336.75c9.52,0,14.13-3.64,14.13-11.09s-5.01-10.16-14.52-10.16h-7.95v21.25h8.33Z" fill="#142638" stroke-width="0"/>
    <path d="M393.49,306.83h11.38v60.96h-11.38v-60.96Z" fill="#142638" stroke-width="0"/>
    <path d="M431.66,315.96h-18.55v-9.13h48.47v9.13h-18.54v51.83h-11.38v-51.83Z" fill="#142638" stroke-width="0"/>
    <path d="M478.45,306.83h13.35l20.9,60.96h-11.98l-4.99-16.49h-21.59l-5.01,16.49h-11.58l20.9-60.96ZM476.79,342.81h16.39l-2.26-7.45c-2.07-6.43-3.93-13.42-5.79-20.14h-.39c-1.76,6.81-3.63,13.71-5.69,20.14l-2.26,7.45Z" fill="#142638" stroke-width="0"/>
    <path d="M518.18,306.83h11.38v51.82h26.69v9.13h-38.07v-60.96Z" fill="#142638" stroke-width="0"/>
    <path d="M582.15,306.83h12.85l11.37,29.82c1.38,3.82,2.75,7.92,4.13,11.93h.39c1.37-4.01,2.65-8.11,4.03-11.93l11.09-29.82h12.96v60.96h-10.51v-27.86c0-5.68.88-13.81,1.47-19.4h-.4l-5.19,14.16-10.51,27.42h-6.76l-10.6-27.42-5.1-14.16h-.39c.47,5.59,1.46,13.72,1.46,19.4v27.86h-10.3v-60.96Z" fill="#142638" stroke-width="0"/>
    <path d="M665.35,306.83h13.35l20.9,60.96h-11.97l-5.01-16.49h-21.58l-5,16.49h-11.57l20.89-60.96ZM663.68,342.81h16.38l-2.24-7.45c-2.06-6.43-3.94-13.42-5.8-20.14h-.38c-1.77,6.81-3.64,13.71-5.7,20.14l-2.25,7.45Z" fill="#142638" stroke-width="0"/>
    <path d="M705.07,306.83h21.7c13.33,0,23.53,4.46,23.53,18.09,0,9.33-5.09,14.91-12.75,17.43l15.31,25.44h-12.76l-13.82-23.86h-9.81v23.86h-11.39v-60.96ZM725.58,335.36c8.73,0,13.55-3.54,13.55-10.44s-4.82-9.42-13.55-9.42h-9.12v19.85h9.12Z" fill="#142638" stroke-width="0"/>
    <path d="M760.7,306.83h11.38v27.68h.3l22.86-27.68h12.65l-19.72,23.77,23.06,37.19h-12.56l-17.36-28.7-9.23,10.91v17.79h-11.38v-60.96Z" fill="#142638" stroke-width="0"/>
    <path d="M816.83,306.83h38.66v9.13h-27.27v15.57h23.06v9.14h-23.06v17.99h28.25v9.13h-39.63v-60.96Z" fill="#142638" stroke-width="0"/>
    <path d="M880.11,315.96h-18.54v-9.13h48.46v9.13h-18.54v51.83h-11.38v-51.83Z" fill="#142638" stroke-width="0"/>
    <path d="M910.72,359.96l6.67-7.37c4.61,4.1,10.79,6.9,16.68,6.9,7.26,0,11.18-3.07,11.18-7.83,0-5.04-4.11-6.61-9.92-8.94l-8.83-3.63c-6.29-2.52-12.95-7.27-12.95-16.22,0-9.7,9.04-17.15,21.59-17.15,7.46,0,14.72,2.98,19.73,7.73l-5.78,6.9c-4.13-3.26-8.45-5.22-13.94-5.22-6.07,0-10.1,2.7-10.1,7.17,0,4.75,4.9,6.53,10.21,8.57l8.72,3.45c7.55,3.08,12.95,7.65,12.95,16.51,0,9.88-8.64,18.07-23.07,18.07-8.62,0-17.06-3.25-23.14-8.94Z" fill="#142638" stroke-width="0"/>
  </g>
</svg>