<?xml version="1.0" encoding="utf-8"?>
<!-- Generator: Adobe Illustrator 27.1.0, SVG Export Plug-In . SVG Version: 6.00 Build 0)  -->
<svg version="1.2" baseProfile="tiny-ps" id="Layer_1" xmlns="http://www.w3.org/2000/svg" xmlns:xlink="http://www.w3.org/1999/xlink"
	 viewBox="0 0 160 160" xml:space="preserve">
<title>	PAYCEC, LLC</title>
<g>
	<g>
		<polygon fill="#B40A0A" points="61.8,100.2 66.3,90.5 58.2,70.8 64.7,70.8 69.7,82.9 75.3,70.8 81.9,70.8 68.4,100.2 		"/>
		<path fill="#B40A0A" d="M50.9,93v-1.2c-1.5,0.7-3.1,1.1-4.8,1.1c-6,0-11-4.9-11-11c0-6,4.9-11,11-11c1.7,0,3.3,0.4,4.8,1.1v-1.2
			h6.2V93H50.9z M46.1,76.7c-2.9,0-5.2,2.3-5.2,5.2c0,2.9,2.3,5.2,5.2,5.2c2.9,0,5.2-2.3,5.2-5.2C51.3,79,49,76.7,46.1,76.7z"/>
		<path fill="#B40A0A" d="M35.2,65.2c-2-3.4-5.6-5.4-9.6-5.4H11.6V93h8.7V82.2h5.4c5.1,0,9.6-3.4,10.8-8.4c0.2-0.9,0.4-1.8,0.4-2.8
			C36.8,69,36.3,67,35.2,65.2z M24.5,80.5c0-0.1,0-0.1,0-0.2c0-0.2,0-0.4,0-0.5l0,0c0-5.5-4.7-10-10.5-10l-0.7,0l17.8-6.9L24.5,80.5
			z"/>
		<path fill="#808285" stroke="#808285" stroke-width="0.2882" stroke-miterlimit="10" d="M101.5,71.7h4.7v-2.1
			c0-5.4-4.4-9.8-9.8-9.8h-1.2c-5.4,0-9.8,4.4-9.8,9.8v6.7v6.7c0,5.4,4.4,9.8,9.8,9.8h1.2c5.4,0,9.8-4.4,9.8-9.8V81h-4.7v2.1
			c0,2.8-2.3,5.1-5.1,5.1h-1.2c-2.8,0-5.1-2.3-5.1-5.1v-6.7v-6.7c0-2.8,2.3-5.1,5.1-5.1h1.2c2.8,0,5.1,2.3,5.1,5.1V71.7z"/>
		<path fill="#808285" stroke="#808285" stroke-width="0.2882" stroke-miterlimit="10" d="M143.7,71.7h4.7v-2.1
			c0-5.4-4.4-9.8-9.8-9.8h-1.2c-5.4,0-9.8,4.4-9.8,9.8v6.7v6.7c0,5.4,4.4,9.8,9.8,9.8h1.2c5.4,0,9.8-4.4,9.8-9.8V81h-4.7v2.1
			c0,2.8-2.3,5.1-5.1,5.1h-1.2c-2.8,0-5.1-2.3-5.1-5.1v-6.7v-6.7c0-2.8,2.3-5.1,5.1-5.1h1.2c2.8,0,5.1,2.3,5.1,5.1V71.7z"/>
		<path fill="#808285" stroke="#808285" stroke-width="0.2882" stroke-miterlimit="10" d="M111.9,59.8c-1.8,0-2.8,0.9-2.8,2.7v13.9
			v13.9c0,1.8,0.9,2.7,2.8,2.7h13.9v-2.1v-2.7h-2.4h-9.5v-9.7h8.4v-2.1v-2.1h-8.4v-9.7h9.5h2.4v-2.7v-2.1H111.9z"/>
	</g>
</g>
</svg>
