<?xml version="1.0" encoding="utf-8"?>
<!-- Generator: Adobe Illustrator 27.5.0, SVG Export Plug-In . SVG Version: 6.00 Build 0)  -->
<svg version="1.2" baseProfile="tiny-ps" id="Ebene_1" xmlns="http://www.w3.org/2000/svg" xmlns:xlink="http://www.w3.org/1999/xlink"
	 viewBox="0 0 283.46 283.46" xml:space="preserve">
<title>GRAWE</title>
<rect fill="#007C57" width="283.46" height="283.46"/>
<g>
	<polyline fill="#FFFFFF" points="265.13,129.68 249.41,129.68 249.41,139.37 262.88,139.37 262.88,146.3 249.41,146.3 
		249.41,159.33 265.45,159.33 265.45,166.97 240.42,166.97 240.42,122.04 265.77,122.04 265.13,129.68 	"/>
	<path fill="#FFFFFF" d="M229.19,166.97h-10.56c0,0-6.26-30.71-6.46-32c-0.19,1.28-6.12,32-6.12,32H195.5l-7.44-44.93h9.29
		c0,0,3.14,27.97,3.46,32.08c0.13-1.09,6.04-32.08,6.04-32.08h11.01c0,0,5.43,25.29,6.26,32.09c0.58-6.93,3.24-32.09,3.24-32.09
		h9.29L229.19,166.97L229.19,166.97z"/>
	<path fill="#FFFFFF" d="M180.41,166.97l-1.86-8.73h-12.58l-1.86,8.73h-9.5l12.07-44.93h11.17l12.07,44.93H180.41 M174.69,140.14
		c-1.09-5.07-2.31-11.68-2.44-12.32c-0.58,2.89-1.35,7.25-2.44,12.32l-2.37,11.17h9.63L174.69,140.14L174.69,140.14z"/>
	<path fill="#FFFFFF" d="M142,166.97l-2.76-10.21c-1.09-4.11-2.76-7-3.91-8.22l-3.66,0.32v18.1h-8.99v-44.93h12.32
		c9.63,0,16.56,2.25,16.56,12.71c0,7.12-3.21,10.46-8.15,12.2c1.73,1.09,3.34,3.98,4.43,7.12l4.36,12.9H142 M134.56,129.17h-2.89
		v13.42c6.1-0.58,10.91-1.03,10.91-7.64C142.58,130.64,140.27,129.17,134.56,129.17"/>
	<path fill="#FFFFFF" d="M117.06,165.3c-3.4,0.96-9.63,2.31-14.96,2.31c-8.28,0-17.14-2.31-17.14-22.47
		c0-20.09,10.72-23.75,19.64-23.75c4.81,0,8.47,1.28,10.53,2.31v7.19c-2.18-0.77-6.74-2.25-10.53-2.25
		c-4.56,0-10.66,2.44-10.66,15.85c0,14.19,4.75,15.92,8.02,15.92c1.86,0,4.94-0.39,6.1-0.64v-13.54h-6.1l-0.64-6.87h15.73V165.3"/>
	<path fill="#FFFFFF" d="M58.77,148.27l0.24-0.27c1.24-1.5,1.77-1.94,2.91-3.97c0.54-0.93,1.06-3.8,1.02-5.48l-0.01-16.5l13.15,0
		l-0.01,15.78c-0.14,3.54,0,5.93-1.15,9.71c-1.11,3.67-2.93,6.55-5.19,8.67l-10.99,10.77l-9.31-9.26l8-7.96L58.77,148.27"/>
	<path fill="#FFFFFF" d="M35.01,148.27L34.76,148c-1.24-1.5-1.77-1.94-2.9-3.97c-0.54-0.93-1.06-3.8-1.02-5.48l0.01-16.5l-13.15,0
		l0.01,15.78c0.14,3.54,0,5.93,1.15,9.71c1.11,3.67,2.93,6.55,5.19,8.67l10.99,10.77l9.31-9.26l-8-7.96L35.01,148.27"/>
	<path fill="#FFFFFF" d="M43.13,127.27l1.01-0.83h-1.68L43.13,127.27L43.13,127.27z M55.14,135.44l-0.01-8.46
		c0.22-0.65-0.49-0.51-0.77-0.42c-1.08,0.4-1.87,1.28-2.02,2.44v6.2l-0.07,0.73c-0.17,0.4-0.47,0.8-0.9,0.94
		c-0.36,0.07-0.77,0.04-1.08-0.11l-2.09-2.05l-0.38-0.56c-0.22-0.62-0.22-1.25,0.14-1.81c0.99-1.33,2.4-1.98,3.03-3.45
		c0.5-1.38-0.17-2.78-1.18-3.69h1.13c-0.3-0.85-1.3-0.77-1.99-0.77c-0.05-0.05-0.09-0.09-0.13-0.14c-0.55-0.67-0.78-1.31-1.21-1.05
		c-0.31,0.3,0.21,0.61,0.61,1.18h-0.59c-0.05,0-0.09-0.06-0.15-0.13c-0.59-0.72-0.74-1.34-1.2-1.02c-0.23,0.28,0.14,0.6,0.58,1.16
		c-0.29-0.01-0.75,0.13-0.98,0.28c-1.14,0-2.4,0.01-3.35,0.01c0.62,1.65,2.82,0.99,3.49,1.19c-0.31,0.4-0.73,0.77-1.08,1.21
		c0.21,0.08,0.36,0.07,0.56,0.07c0.57,0.04,1.05-0.21,1.39-0.66c0.38,0,0.87,0.01,1.23,0.01c-1.44,1.49-3.2,3.25-4.64,4.64
		l-2.82-2.73l0-1.36c-0.06-0.39-0.58-0.46-0.91-0.35c-0.28,0.13-0.35,0.56-0.36,0.84c-0.02,0-0.44-0.43-0.76-0.35
		c-0.2,0.06-0.42,0.13-0.52,0.35c-0.11,0.35,0.15,0.68,0.34,0.93c-0.02-0.01-0.27,0.08-0.55,0.11c-0.34,0.11-0.6,0.42-0.48,0.77
		c0.14,0.62,1.1,0.45,1.89,0.45c-0.02,0.83-0.28,1.51,0.47,1.84c0.35,0.12,0.66-0.13,0.87-0.38c0.7,0.67,1.44,1.32,1.99,2.05
		c-0.9,0.95-2,2-2.88,2.88c-0.49-0.44-0.88-0.96-1.26-0.75c-0.19,0.03-0.38,0.2-0.45,0.38c-0.13,0.36,0.29,0.94,0.29,0.95
		l-0.43,0.02c-0.22,0.05-0.36,0.22-0.45,0.42c-0.04,0.25,0.03,0.57,0.31,0.7c0.17,0.11,0.6,0.1,0.59,0.13
		c0.01-0.01-0.27,0.26-0.31,0.43c-0.06,0.23-0.05,0.52,0.14,0.7c0.76,0.51,1.16-0.11,1.82-0.82c0.54,0.5,0.78,1.03,1.45,0.96
		c0.36-0.09,0.59-0.36,0.45-0.77c-0.12-0.35-0.26-0.35-0.76-0.94l2.29-2.15c0.91,0.96,1.09,1.11,1.93,2.01
		c-0.71,0.76-1.66,1.3-1.95,2.26c-0.05,1.49-0.01,2.47-0.07,3.79l-0.95,0.93c-0.56-0.45-0.58-0.98-1.22-0.8
		c-0.26,0.03-0.36,0.25-0.45,0.43c-0.09,0.32,0.16,0.59,0.35,0.84c-0.37,0-0.11-0.11-0.59-0.02c-0.37,0.18-0.5,0.34-0.48,0.67
		c0.1,0.48,0.3,0.77,1.04,0.69c-0.21,0.29-0.39,0.52-0.35,0.85c0.07,0.27,0.19,0.36,0.38,0.42c0.67,0.18,1.04-0.51,1.54-0.96
		c0.5,0.46,0.74,0.99,1.39,1.04c0.23,0.03,0.34-0.09,0.5-0.17c0.43-0.54-0.29-1.07-0.64-1.57c0.55-0.79,1.54-1.63,2.25-2.41
		l0.04-0.21c0-0.82-0.01-1.09-0.01-1.77c0-0.94,0.11-1.11,0.85-1.59l0.47-0.21c0.15,0.7-0.06,1.37,0.21,2.05
		c0.63,1.44,2.85,1.27,3.94,1.26v1.54l-0.54-0.46c0,0-0.52-0.5-0.9-0.43c-0.2,0.03-0.42,0.18-0.49,0.38
		c-0.14,0.35,0.08,0.63,0.31,0.87c-0.46-0.01-0.79,0.02-0.95,0.36c-0.11,0.26-0.19,0.46,0.03,0.75c0.45,0.42,0.5,0.22,0.89,0.28
		c-0.17,0.22-0.31,0.45-0.35,0.73c0.03,0.22,0.21,0.44,0.42,0.52c0.77,0.13,0.93-0.39,1.5-0.98c0.86,0.75,0.85,1.06,1.57,1.01
		c0.19-0.03,0.33-0.18,0.42-0.35c0.28-0.62-0.32-0.87-0.7-1.36c0.28-0.37,0.84-0.68,0.87-1.01v-3.95c-1.12-0.05-1.57,0.1-2.02-0.19
		c-1.08-0.66-0.66-2.1-0.66-3.1l0.14-0.04c0.71,0.41,1.8,0.29,2.51-0.03C54.41,137.13,55.04,136.3,55.14,135.44L55.14,135.44
		L55.14,135.44z M54.2,148.62l-7.27,7.25l-7.27-7.25h0l-2.99-2.98c-0.47-0.7-1.4-1.18-2.07-3.34c-0.37-1.48-0.28-3.55-0.28-3.55
		v-16.7h25.25l0,16.7c0.03,1.26,0,2.59-0.43,3.69c-0.83,1.99-1.46,2.66-1.95,3.21L54.2,148.62"/>
	<path fill="#FFFFFF" d="M46.63,124.84c-0.03,0.08-0.19-0.04-0.22,0.17c0.1,0,0.34,0.17,0.42,0.01
		C46.85,124.92,46.71,124.82,46.63,124.84"/>
	<polyline fill="#FFFFFF" points="46.6,102.05 46.14,102.05 46.14,102.72 45.45,102.72 45.45,103.18 46.6,103.18 46.6,102.05 	"/>
	<polyline fill="#FFFFFF" points="47.3,102.05 47.76,102.05 47.76,102.72 48.45,102.72 48.45,103.18 47.3,103.18 47.3,102.05 	"/>
	<path fill="#FFFFFF" d="M56.06,119.08h-2.61l2.61-7.14V119.08L56.06,119.08z M50.76,110.91h5.15l-2.74,7.53L50.76,110.91
		L50.76,110.91z M47.79,119.08l2.71-7.43l2.39,7.43H47.79L47.79,119.08z M47.77,110.91h2.48l-2.48,6.75V110.91L47.77,110.91z
		 M50.52,107.8c0.46,0,0.83,0.56,0.83,1.25c0,0.69-0.37,1.24-0.83,1.24c-0.46,0-0.83-0.56-0.83-1.24
		C49.69,108.36,50.06,107.8,50.52,107.8L50.52,107.8z M46.14,117.92l-2.57-7.01h2.57V117.92L46.14,117.92z M40.95,119.08l2.39-7.43
		l2.71,7.43H40.95L40.95,119.08z M37.91,110.91h5.15l-2.42,7.53L37.91,110.91L37.91,110.91z M37.76,119.08v-7.15l2.61,7.15H37.76
		L37.76,119.08z M43.33,107.8c0.46,0,0.83,0.56,0.83,1.25c0,0.69-0.37,1.24-0.83,1.24c-0.46,0-0.83-0.56-0.83-1.24
		C42.5,108.36,42.87,107.8,43.33,107.8L43.33,107.8z M47.77,105.29v-0.95h0.68v-0.46H47.3l0.01,7.03l-0.01,8.17h-0.7v-10.33l0-3.48
		v-1.39h-1.15v0.46h0.69v0.95c-4.86,0.22-8.7,2.44-8.84,5.17v9.08h8.84h10.39v-9.08C56.39,107.74,52.59,105.52,47.77,105.29
		L47.77,105.29z"/>
</g>
</svg>
