<?xml version="1.0" encoding="UTF-8" standalone="yes"?>
<svg width="90" height="90" viewBox="0 0 90 90" fill="none" version="1.2" baseProfile="tiny-ps" xmlns="http://www.w3.org/2000/svg">
  <title>bimi-svg-tiny-12-ps</title>
  <rect width="90" height="90" fill="white"/>
  <path d="M73.1168 45.3534L70.0802 48.3896L68.4924 49.9772L66.186 52.2833C62.7901 55.6787 59.4058 52.2833 59.4058 52.2833L59.0697 51.9472C55.6738 48.5518 59.0697 45.168 59.0697 45.168L62.9639 41.2744C66.3598 37.879 69.7441 41.2744 69.7441 41.2744L70.0802 41.6104C70.1034 41.6336 70.1266 41.6568 70.1497 41.6799C70.1729 41.7031 70.1961 41.7263 70.2193 41.7495C70.2541 41.7726 70.2772 41.7958 70.2772 41.7958L73.1284 44.6466C73.4761 44.9942 73.1168 45.3534 73.1168 45.3534ZM64.7488 36.5695C64.6908 36.639 64.5981 36.639 64.517 36.6158C63.2073 36.0364 61.3065 35.8047 59.3942 37.7051L57.7948 39.3043L48.3721 48.7372C44.9762 52.1326 41.5919 48.7372 41.5919 48.7372L41.2558 48.4012C37.8599 45.0058 41.2558 41.622 41.2558 41.622L52.2779 30.6015C55.6738 27.2061 59.0581 30.6015 59.0581 30.6015L59.3942 30.9376C59.4405 30.9839 59.4869 31.0303 59.5333 31.0882C59.568 31.1114 59.5912 31.1346 59.5912 31.1346L62.4192 33.9621L62.4308 33.9737L63.1378 34.6806L63.2769 34.8196L64.7256 36.2682L64.7372 36.2798C64.8299 36.3609 64.8299 36.4884 64.7488 36.5695ZM54.0744 25.885C54.0048 25.9546 53.9237 25.9546 53.8426 25.9314C52.5329 25.352 50.6321 25.1086 48.7198 27.0207L47.1203 28.6083L37.6976 38.0412C34.3017 41.4366 30.9175 38.0412 30.9175 38.0412L30.5813 37.7051C27.1855 34.3098 30.5813 30.926 30.5813 30.926L41.6035 19.9055C44.9994 16.5101 48.3952 19.9055 48.3952 19.9055L48.7313 20.2415C48.7777 20.2879 48.8125 20.3226 48.8588 20.3806L48.8704 20.3922C48.8936 20.4038 48.9052 20.4269 48.9052 20.4269L51.7332 23.2661L51.7448 23.2777L52.4518 23.9845L52.5908 24.1236L54.0396 25.5722C54.028 25.5722 54.028 25.5606 54.0164 25.5606C54.0164 25.5606 54.0048 25.5606 53.9932 25.549C54.0048 25.549 54.0048 25.5606 54.0164 25.5606C54.028 25.5722 54.0396 25.5722 54.0512 25.5837C54.1555 25.6764 54.1555 25.8039 54.0744 25.885ZM27.0116 41.2628L44.6285 58.877C44.6285 58.877 44.9762 59.2247 45.3355 58.877L48.7082 55.5048C52.1041 52.1094 55.4883 55.5048 55.4883 55.5048L55.8245 55.8409C55.8476 55.8641 55.8708 55.8872 55.894 55.9104C55.9172 55.9336 55.9404 55.9568 55.9635 55.98C55.9983 56.0031 56.0215 56.0263 56.0215 56.0263L58.8726 58.877C59.2319 59.2363 58.8726 59.5839 58.8726 59.5839L55.836 62.6201L54.2482 64.2077L50.0178 68.4374L49.9831 68.4722L48.7198 69.7353L48.4068 70.0482L48.3836 70.0714C44.9878 73.4668 41.6035 70.0714 41.6035 70.0714L21.4947 49.9772L19.9069 48.3896L16.8703 45.3534C16.511 44.9942 16.8703 44.6466 16.8703 44.6466L19.7215 41.7958C19.7331 41.7842 19.7331 41.7842 19.7447 41.7726C19.7562 41.7611 19.7678 41.7611 19.7678 41.7495C19.849 41.6568 19.8953 41.5988 19.8953 41.5988L20.2314 41.2628C23.6273 37.879 27.0116 41.2628 27.0116 41.2628ZM76.5127 52.8627C76.7793 52.5846 84.2317 44.8551 76.5011 37.1257L52.8806 13.4971C52.8806 13.4971 44.9994 5.62862 37.1297 13.4971L13.4976 37.1257C13.4976 37.1257 5.62798 44.9942 13.4976 52.8743L37.1297 76.5029C37.1297 76.5029 45.0109 84.3714 52.8806 76.5029L76.5127 52.8627Z" fill="#333333"/>
</svg>