<svg xmlns="http://www.w3.org/2000/svg" xml:space="preserve" version="1.2" baseProfile="tiny-ps" viewBox="157.91 158.88 159.35 159.35">
  <title>bimi-svg-tiny-12-ps</title>
  <defs id="defs6"/>
  <g transform="matrix(1.3333333,0,0,-1.3333333,0,476.22)" id="g10">
    <path id="path12" d="m 118.435,118.494 h 119.51 v 119.51 h -119.51 z" fill="#0086b1" fill-opacity="1" fill-rule="nonzero" stroke="none"/>
    <g id="g14">
      <g id="g16">
        <g transform="translate(154.7188,168.0892)" id="g22">
          <path id="path24" d="m 0,0 c -0.001,-0.051 -0.001,-0.116 -0.001,-0.195 0,-0.297 0,-0.187 0.001,0.195" fill="#ffffff" fill-opacity="1" fill-rule="nonzero" stroke="none"/>
        </g>
        <g transform="translate(218.4146,167.5965)" id="g26">
          <path id="path28" d="m 0,0 v 18.679 c 0,2.553 -1.617,10.936 -13.318,10.936 -10.595,0 -15.084,-6.468 -15.084,-10.106 0,-2.106 1.277,-4.532 4.467,-4.532 3.192,0 4.022,2.266 4.022,3.798 0,1.532 -0.99,2.681 -0.99,2.681 -3.701,3.925 4.595,5.265 6.287,5.201 8.617,-0.542 8.17,-6.893 8.17,-6.893 V 14.403 C -30.189,11.722 -30.189,1.893 -30.189,0.266 c 0,-4.117 2.585,-5.782 2.585,-5.782 -1.691,0 -3.319,0.006 -4.532,1.218 -1.213,1.213 -1.148,4.947 -1.148,4.947 v 16.658 c 0,1.181 -0.288,11.839 -11.234,11.839 -9.063,0 -12.924,-7.595 -12.924,-7.595 v 6.925 c 0,0.319 -0.511,0.511 -0.511,0.511 h -10.052 l 0.032,-1.596 c 1.213,0 2.106,-0.542 2.713,-0.989 1.723,-1.723 1.58,-4.468 1.58,-4.468 v -3.638 -8.233 c 0,0 -0.011,-7.78 -0.015,-9.57 0.017,1.05 0.176,-3.432 -1.087,-4.695 -1.324,-1.324 -3.223,-1.308 -4.404,-1.308 -1.18,0 -2.84,-0.16 -4.212,1.212 -1.372,1.373 -1.181,7.245 -1.181,7.245 v 7.595 17.966 c 0,0.287 -0.447,0.479 -0.447,0.479 h -10.339 v -1.596 c 4.723,0 4.372,-6.127 4.372,-6.127 V 0.617 c 0,-1.979 -0.128,-6.095 -4.372,-6.095 v -1.468 h 32.199 v 1.436 c -0.51,0 -1.691,0.016 -2.617,0.734 -1.882,1.532 -1.659,5.712 -1.659,5.712 v 11.776 c 0,2.808 1.626,12.222 9.957,12.222 8.33,0 7.978,-9.957 7.978,-9.957 V 0.011 c 0,-0.447 -0.104,-3.359 -1.229,-4.484 -1.125,-1.125 -3.095,-1.037 -3.095,-1.037 v -1.532 h 9.477 1.78 1.347 1.391 4.21 0.383 c 0.415,-0.032 1.435,-1.117 6.35,-1.117 8.139,0 12.638,6.329 12.638,6.329 0,-0.893 1.426,-5.169 6.106,-5.169 h 4.447 v 1.483 C -0.277,-5.516 0,-0.877 0,0 m -11.701,-3.404 c -1.021,-0.553 -3.32,-1.702 -5.744,-1.702 -2.426,0 -5.533,1.957 -5.533,6.042 0,4.085 1.746,8.872 16.532,10.882 V 6.457 c 0,0 0.319,-6.031 -5.255,-9.861" fill="#ffffff" fill-opacity="1" fill-rule="nonzero" stroke="none"/>
        </g>
        <g transform="translate(144.6333,205.4232)" id="g30">
          <path id="path32" d="m 0,0 c 0,-2.256 -1.829,-4.085 -4.085,-4.085 -2.256,0 -4.085,1.829 -4.085,4.085 0,2.256 1.829,4.085 4.085,4.085 C -1.829,4.085 0,2.256 0,0" fill="#ffffff" fill-opacity="1" fill-rule="nonzero" stroke="none"/>
        </g>
      </g>
    </g>
  </g>
</svg>