<?xml version="1.0" encoding="UTF-8"?>
<svg xmlns="http://www.w3.org/2000/svg" xmlns:xlink="http://www.w3.org/1999/xlink" baseProfile="tiny-ps" version="1.2" viewBox="0 0 1024 1024">
  <title>Seats.aero</title>
  <defs>
    <linearGradient id="linear-gradient" x1="667.671" y1="771.986" x2="364.681" y2="247.192" gradientUnits="userSpaceOnUse">
      <stop offset="0" stop-color="#2c7cef"/>
      <stop offset="1" stop-color="#36a9e1"/>
    </linearGradient>
    <linearGradient id="linear-gradient1" x1="639.555" y1="679.194" x2="431.618" y2="319.035" gradientUnits="userSpaceOnUse">
      <stop offset="0" stop-color="#36a9e1"/>
      <stop offset="1" stop-color="#f6f6f6"/>
    </linearGradient>
  </defs>
  <g id="full_background">
    <rect width="1024" height="1024" fill="#2c7cef"/>
  </g>
  <g id="Main_Icon">
    <path d="M512,121.66c-159.83,0-289.45,129.63-289.45,289.45v203.78c0,159.82,129.62,289.45,289.45,289.45s289.45-129.63,289.45-289.45v-203.78c0-159.82-129.62-289.45-289.45-289.45ZM750.64,604.51c0,131.78-106.859,238.641-238.64,238.641s-238.64-106.86-238.64-238.641v-183.02c0-131.78,106.86-238.64,238.64-238.64s238.64,106.86,238.64,238.64v183.02Z" fill="#fff"/>
    <path d="M750.64,421.49v183.02c0,131.78-106.859,238.641-238.64,238.641s-238.64-106.86-238.64-238.641v-183.02c0-131.78,106.86-238.64,238.64-238.64s238.64,106.86,238.64,238.64Z" fill="#c3d1ed"/>
    <path d="M737.396,422.545v178.909c0,124.465-100.932,225.395-225.396,225.395s-225.396-100.931-225.396-225.395v-178.909c0-124.464,100.931-225.396,225.396-225.396s225.396,100.932,225.396,225.396Z" fill="#fff"/>
    <g>
      <path d="M571.798,709.576s-17.019-4.073-41.994-9.114h-.045c-24.601-4.995-56.976-10.956-88.612-14.895l28.859-27.695c71.36,14.706,101.792,51.704,101.792,51.704Z" fill="#fff"/>
      <path d="M653.567,573.515c-.65-.28-13.369-6.296-30.342-12.447h-.045c-12.163-4.436-26.502-9.015-40.097-11.607l12.393-11.887c43.105,11.797,57.255,34.505,58.091,35.941Z" fill="#fff"/>
      <path d="M737.46,422.511v178.979c0,124.5-100.96,225.46-225.46,225.46-59.752,0-114.094-23.26-154.421-61.233l16.231-15.582c3.145.325,144.246,13.459,197.987-19.746v-20.811s-30.432-36.998-101.792-51.704l65.579-62.859s88.567,9.765,118.027-8.184v-13.27s0-.045-.045-.045c-.836-1.436-14.985-24.145-58.091-35.941l58.736-56.326,49.717-120.246h-39.311s-30.061,40.468-54.342,73.997c-24.28,33.53-42.779,36.999-42.779,36.999l-280.958,82.783v-132.27c0-124.5,100.96-225.46,225.46-225.46s225.46,100.96,225.46,225.46Z" fill="url(#linear-gradient)"/>
      <path d="M571.798,709.576v20.811c-53.741,33.205-194.843,20.071-197.987,19.746l67.291-64.566h.045c31.637,3.939,64.012,9.899,88.612,14.895h.045c24.976,5.041,41.994,9.114,41.994,9.114Z" fill="#c3d1ed"/>
      <path d="M653.612,573.56v13.27c-29.46,17.948-118.027,8.184-118.027,8.184l47.499-45.553c13.595,2.593,27.934,7.172,40.097,11.607h.045c16.973,6.151,29.691,12.167,30.342,12.447.045,0,.045.045.045.045Z" fill="#c3d1ed"/>
      <path d="M738.09,422.26v179.48c0,7.12-.33,14.17-.979,21.13-20.91,7.21-43.36,11.13-66.721,11.13h-171.769c-1.12,0-2.229-.01-3.341-.03l28.11-26.97,12.261-11.76s6.619.72,16.869,1.41c12.711.859,30.981,1.67,49.101,1.01h.01c21.23-.76,40.352-3.751,51.982-10.831l-.045-13.315s-14.384-24.121-58.091-35.941l58.736-56.326,49.717-120.246h-39.311s-9.249,12.6-22.059,29.999c-9.8,13.32-21.46,29.2-32.01,43.78-24.35,33.63-42.899,37.11-42.899,37.11l-89.91,26.489-25.28,7.45-103.89,30.61-62.66,18.46v-132.641c0-4.97.16-9.899.48-14.789,14.699-6.56,30.979-10.2,48.119-10.2,5.551,0,11.01.38,16.35,1.13,26.57-54.83,82.75-92.63,147.761-92.63,2.899,0,5.79.08,8.659.22,29.471-38.89,72.52-66.91,122.091-76.99,65.18,39.67,108.72,111.391,108.72,193.26Z" fill="url(#linear-gradient1)"/>
    </g>
  </g>
</svg>