<svg xmlns="http://www.w3.org/2000/svg" xml:space="preserve" baseProfile="tiny-ps" version="1.2" viewBox="0 0 5760 5760">
<title>Best Diplomats</title>
  <path d="M-5-10h5770v5770H-5" fill="#418FDE"/>
  <path d="M4500 3721c31-64 60-133 88-207 34 0 183-4 231-153 0 0-133-26-206 85 20-60 40-125 57-192 10-12 124-150 46-305 0 0-124 115-52 280-13 50-26 97-40 143 6-52 5-176-128-252 0 0-30 183 120 274a2150 2150 0 01-90 240c10-54 20-193-88-293A1543 1543 0 00 4000 1967a1577 1577 0 00-695-402c47-13 84-33 84-33-100-49-175-137-175-137a521 521 0 00 206 86c107-9 187-114 187-114-210-15-305-60-305-60 62 20 292 13 292 13 83-35 125-155 125-155-156 32-366 22-366 22 157-4 342-70 342-70 84-64 106-213 106-213-246 166-635 223-635 223a230 230 0 01-170 196c-35-60-34-159-34-159 19-9 40 3 40 3s0-30-14-43c-14-14-54-8-54-8a100 100 0 00-72-10c-28 4-33 26-33 26l-60 192c-70-19-151-70-174-197 0 0-388-57-634-223 0 0 22 150 105 212 0 0 186 67 343 70 0 0-210 11-366-20 0 0 42 120 125 154 0 0 230 7 291-13 0 0-95 45-304 60 0 0 80 105 186 114 0 0 101-13 206-86 0 0-74 88-174 137 0 0 37 20 83 33-260 72-499 208-695 402a1543 1543 0 00-440 1368c-107 99-98 237-89 290-27-62-52-130-76-200 155-114 90-283 90-283a264 264 0 00-101 246c-17-54-33-110-47-167 74-165-50-282-50-282-80 157 38 298 43 305 17 67 36 132 57 193C1074 3326 940 3350 940 3350c47 150 195 156 230 155a2000 2000 0 00 86 208c-113-128-280-84-280-84 80 208 295 197 336 193a1900 1900 0 00 56 96l2 3c27 43 55 82 83 120-163-170-368-56-368-56 150 215 398 117 412 111 36 44 73 85 110 122l5 4 50 47c-225-137-415 52-415 52 213 176 438 22 473-3 76 61 153 110 226 148-267-88-406 160-406 160 254 112 430-105 453-136a1412 1412 0 00 159 64l14 5c42 13 84 25 124 34-260-10-360 244-360 244 306 88 467-203 477-223 143 20 254 16 303 11a1630 1630 0 00 347 0c55 3 157 6 284-11 10 20 169 311 475 226 0 0-98-255-358-247 40-9 82-20 125-33l14-5a1375 1375 0 00 158-62c24 31 198 250 452 140 0 0-137-250-404-164a1420 1420 0 00 235-153c25 19 257 186 475 4 0 0-197-196-430-42a1490 1490 0 00 56-50l4-5c38-37 75-77 112-120 13 5 260 105 413-109 0 0-205-115-369 53 29-37 57-77 84-119l2-3c20-30 38-62 57-96 40 5 255 18 338-190 0 0-168-45-281 82zM3225 1542c10 3 17 9 20 17 3 7 2 16-2 23 4 10 1 27-8 40l-2 3-4 4a30 30 0 01-10 7 100 100 0 01-53 42l-10 3h-3a4 4 0 01-3-2 4 4 0 01 1-5c10-10 16-28 21-45l3-8a23 23 0 01-3-11v-1c-1-15 8-31 10-36 0-6 3-13 9-20 10-10 22-14 34-11zm1080 1530c0 778-640 1410-1425 1410s-1425-632-1425-1410a1420 1420 0 01 1702-1383l3-2a1417 1417 0 01 1145 1384zM3107 1498a37 37 0 01 27-27c13-3 26 0 34 8 5 6 8 15 7 22a40 40 0 01 11 33 30 30 0 01-13 20 110 110 0 01-35 58l-6 5-6 5-6 4h-1l-8 5h-5a4 4 0 01 0-6l3-6 2-4 1-3 2-5 1-2 2-7c5-14 8-29 10-40l-5-4c-8-8-9-20-9-25-6-8-9-20-6-31zm-87 20a30 30 0 01 17-11c0-4 4-12 10-16 5-3 12-4 20-1 8 2 14 8 17 17 3 9 2 20-3 29 0 6-5 25-17 35-2 2-5 4-8 4l-2 15v34l1 5c0 2 0 3-2 4h-5a91 91 0 01-30-73h-1c-6-16 0-34 3-40zm-127-403c10 0 19 10 19 10h-20c-6 0-18-9-18-9h20zm-220 377c4-8 10-14 18-17 8-2 14-1 20 2 6 4 9 11 10 15 4 2 13 5 17 12 3 7 9 25 2 40v1a91 91 0 01-32 73h-4a4 4 0 01-2-5l1-5v-5l1-5v-7l-2-29c-3 0-6-2-9-4a54 54 0 01-16-36c-5-8-7-20-3-29zm16 70 6 4 2 25-19 2 7 37 30-3-1-4c13-13 20-25 26-36l4 37 30-3-3-37-31 2a90 90 0 00 7-30 1578 1578 0 01 262 0 50 50 0 00 1 5c0 7 0 15 3 25l-26-2-3 37 30 2 3-25c4 12 12 26 26 40l5 2h3a12 12 0 00 12-11l10 1 6-37-17-2v-10l7-4c5-4 8-9 10-13l38 5-7 28v1c-3 10-7 17-10 23a12 12 0 00 15 17l2-1 15 2 3-15c14-10 24-22 31-33a47 47 0 00 0 30l-1 5c-5 16-10 33-19 42a1472 1472 0 00-532 0c2-5 1-10-2-14-9-8-15-26-20-42l-1-6v-3c3-9 3-17 0-25h1c6 10 15 20 26 29l8 32 29-4-2-10 4-4c4-4 4-10 1-14-6-9-10-23-14-38l45-7zm-100-97c9-9 21-12 35-8a37 37 0 01 20 58c0 5 0 17-8 25l-5 3c3 16 7 38 14 55l7 13v5l-2 2h-3l-7-5-4-2-2-2a138 138 0 01-6-4l-4-4a110 110 0 01-40-61 30 30 0 01-13-20 40 40 0 01 12-33c-2-8 1-16 7-22zm-77 79c3-9 10-15 20-17 13-4 26 0 35 10 6 7 9 15 8 20 4 6 15 26 10 43l-2 5v4l3 5c3 10 6 20 10 28 3 7 6 13 10 17 2 1 2 4 1 5a4 4 0 01-4 2 94 94 0 01-35-16h-1a97 97 0 01-28-30c-5-2-10-5-15-10-10-14-13-33-9-43-4-8-5-16-3-23zm-1148 2340c-44-72-86-151-124-239 68-49 100-107 114-161 12 46 27 90 44 135a474 474 0 00-35 265zm18 30c45-35 77-71 101-109 22 40 46 80 71 119a477 477 0 00 38 259 1678 1678 0 01-210-270zm239 297c30-40 50-80 62-119a1170 1170 0 00 58 63c11 105 60 188 87 225a1435 1435 0 01-207-169zm443 296c-68-28-141-65-216-114a440 440 0 00 40-105c46 37 95 72 145 103a632 632 0 00 100 143 1510 1510 0 01-69-27zm107 40c7-25 13-48 17-70 94 45 192 80 294 106a570 570 0 00 44 30 1460 1460 0 01-355-67zm379 68V4600c31 7 62 12 94 17l-94-1zm576 0 74-14v12c-27 1-51 2-74 1zm98-3a570 570 0 00 38-25 1550 1550 0 00 302-107c4 22 10 44 16 67-135 43-259 60-356 65zm463-103c-24 10-47 18-70 26a640 640 0 00 100-138c50-32 100-66 149-104a440 440 0 00 38 104c-75 48-148 84-217 112zm237-125a496 496 0 00 88-222l60-64a430 430 0 00 60 119 1464 1464 0 01-208 167zM2880 4591a1528 1528 0 01-1533-1520c0-710 495-1310 1162-1474a60 60 0 00 10 18l7 7-29 7 12 36 30-7-12-35 7 4a110 110 0 00 60 45 1439 1439 0 00-1157 1400c0 380 150 739 422 1008 273 270 635 420 1021 420 386 0 749-149 1021-418 273-270 423-628 423-1010s-150-739-423-1009a1438 1438 0 00-714-386c19-10 30-25 36-34l2-1-5 17 30 7 11-36-19-5c6-8 9-18 10-27A1525 1525 0 01 4413 3070c0 838-688 1520-1533 1520zM4162 4190c23-52 56-150 40-258 25-38 50-78 71-118a420 420 0 00 101 108 1670 1670 0 01-212 268zm230-297a470 470 0 00-32-266c17-44 32-90 45-135a284 284 0 00 113 163c-40 87-81 166-126 238" fill="#FFF"/>
  <path d="M2022 2862a905 905 0 01 73-198v-1h2l157 20h2v2c-22 60-38 126-50 195v2h-1l-176-10 3 5 171 10h2v2A1480 1480 0 00 2190 3090v2h-1l-163 2 3 5 160-2h2v1c2 37 6 92 17 157 3 3 4 7 5 11v16l3 17v2h-4l1 6h5l2 11 6 4c0-5-2-10-3-14v-2h2l37-3-4-5-35 3h-1v-2a1380 1380 0 01-26-200v-2h1l193-2h1v1l1 20 5 1v-22h55v-6h-58v-34c1-55 5-108 10-159v-2h2l100 4-3-6-96-2h-2v-2c4-29 7-56 12-83a50 50 0 00-6 2l-10 80v2h-2l-187-8h-2v-2a1150 1150 0 01 50-196v-1h1l88 8 3-5-88-8h-2v-3a897 897 0 01 92-184h2a5070 5070 0 00 138 15h2v2a1070 1070 0 00-48 132l6-2c14-46 30-90 47-130v-1h2l146 10h3v2c-10 37-18 76-26 118v1l3 10a1570 1570 0 01 27-130h2l151 4h2v2l-3 34h5l3-35v-1h64l-1-6h-62v-1c6-70 13-132 22-182v-2h45l-1-5H2840v-2a936 936 0 01 12-60l-4-5c-4 18-9 40-13 66v1h-2c-35 0-70 0-103-2h-3l2-3a405 405 0 01 30-52 48 48 0 00-10 9 778 778 0 00-26 45h-2c-32 0-65-3-97-5h-3l2-3 13-14 13-13h-7l-10 10a550 550 0 00-17 18v1h-1l-80-8-10 4 83 9h3l-2 2c-42 50-79 109-110 176v1a3870 3870 0 01-138-15h-2l1-3c31-46 67-88 106-126v-6a750 750 0 00-113 133h-1c-39-5-78-10-117-17h-3l2-3c56-60 120-114 190-157l-7-3h-1a910 910 0 00-400 551l6 7zm190 25 187 8h2v2a2070 2070 0 00-11 159v35h-1c-65 0-130 0-193 2h-1v-2c-2-23-1-35-1-35 2-57 8-113 16-167v-2h2zm514-557h1l106 1h2v2a2690 2690 0 00-22 182v2h-2c-50 0-100-2-150-4h-2l1-3c18-69 40-130 66-180zm-220 170a726 726 0 01 111-177h2l100 6h2l-1 2c-26 50-47 111-65 180v1h-2a3530 3530 0 01-145-10h-3l1-2zM2100 2656a905 905 0 01 128-185h1l119 18h2l-1 3a895 895 0 00-90 184h-2c-52-5-105-11-156-18h-2v-3" fill="#FFF"/>
  <path d="m2212 3283-5-27c-10-12-32-13-45-17-19-6-29-26-40-40a46 46 0 00-36-14c-28 0-32-18-36-40-3-14-10-24-17-36l-5-9h-31v2a883 883 0 00 35 215v1h1l178-15 1-20zm0 25c-60 4-120 10-176 15h-3l1 2c14 50 33 100 53 145l30 55v1h2l154-22h2l-1-3A977 977 0 01 2220 3320c-4-4-7-8-8-12zm776 170c-4 67-8 129-13 183v2h2l142 8h2a1890 1890 0 00 40-184v-2h-2a4920 4920 0 00-170-8l-1 2zm-178-3h-2v2c4 66 8 128 13 182v1h2c47 0 96 0 145 3h2v-2c5-55 10-116 13-182v-2h-2a4650 4650 0 00-170-2zm-790-410 15-17c10-7 20-10 27-20 17-22-6-50-10-74v-10c0-9 1-16-2-23 0-7-2-13-4-20l-2-4-3-7-8-13H2020l-1-1v2a910 910 0 00-22 216v2h29c-5-10-8-22-5-31zm1357 234h-2a9260 9260 0 00-184-8h-2v1c-5 65-13 128-22 186v2h2c55 4 110 8 167 14h1l1-3v-3c16-58 30-121 39-187v-2zm-914-962c2 4 2 9 3 14l42-37 4-2h-5l-73-10-10 5c15 6 35 14 40 30zm421-11 63-1h2v-3l-3-15c-17-95-35-125-42-133v-1h-17c-6 8-19 30-33 90 7 10 12 23 18 34 4 7 10 18 12 29zm-2 206c-20 16-43 22-67 25-4 46-7 96-9 148v2h40c45 0 91 0 137-2h2v-1c-3-67-7-128-12-183v-1h-2l-90 2 3 6c0 1 0 3-2 3zm-41-280 9 7c12-50 23-73 30-83l1-3h-14c-18 7-60 30-106 96l23-10c16-8 40-18 57-8" fill="#FFF"/>
  <path d="M2712 2296c18 8 27-7 38-18 37-58 72-87 96-100l7-4h-10A440 440 0 00 2650 2290l30 3c10 2 23 0 32 4zm-234 88c8-1 24 0 24-14 0-19-3-34 11-48l13-9h-8a717 717 0 00-51 44v18c0 10 0 10 11 10" fill="#FFF"/>
  <path d="M2570 2284c16-9 41 0 57 2l17 2c60-60 120-91 161-107v-3a720 720 0 00-275 126l-6 4h5l6 1 7-2c12-6 18-16 29-23zm311 68c-5 7-14 8-20 15-7 10-19 23-22 35 1 4 4 8 8 13 15 17 20 23 20 45 0 13-3 24 4 37l10 20 90-2h2v-2a3280 3280 0 00-22-182v-2h-2l-64 2c1 8 0 16-4 21zm-82 546h193v-3l-6-183v-1h-2l-143 2h-35v1c-3 57-5 118-6 182v2zm-155 966-75 7h-5l4 3a686 686 0 00 233 95l1-3a440 440 0 01-157-102h-1zm-87 3h1l78-8h3l-2-3a662 662 0 01-119-173v-1h-1a3109 3109 0 00-129 15h-3l2 3a692 692 0 00 170 167zm288-18v2h2c32 0 64 0 97 2h1v-2c10-47 17-109 24-181v-2h-2l-144-3h-2v2c7 73 15 134 24 183zm-53-793 2-151v-2h-1l-189-2h-2v1c-3 50-5 102-6 154v34h196v-34" fill="#FFF"/>
  <path d="m2550 3868-4-3A703 703 0 01 2380 3700h-2c-36 5-73 10-110 17l-3 1 2 2a903 903 0 00 216 157l62-8h5zm-174-174-2-3c-37-54-70-115-97-181v-1h-1a4130 4130 0 00-153 22h-3l1 2a910 910 0 00 139 179h1l112-18h3zm180 178-60 8h-5l5 3a943 943 0 00 250 81v-4c-68-20-132-49-190-88zm579-5h1a650 650 0 00 126-174l1-2h-2c-45-6-90-10-135-14h-1v1c-20 71-45 132-73 179v2h2l81 8" fill="#FFF"/>
  <path d="M3216 3877h1a686 686 0 00 178-165l2-2h-3a3540 3540 0 00-124-20h-2v1c-35 70-76 128-123 173l-3 3h4l70 10zm-97-200h-2l-140-10h-3v2a2000 2000 0 01-24 182v2h2l91 5h2a769 769 0 00 73-180l1-2zm-321-588h196v-33l-2-152v-2h-193v2a10290 10290 0 00-1 183v2zm538 410h-3c-55-6-110-10-165-14h-2v4a1690 1690 0 01-40 180v3h2l136 14h1a1080 1080 0 00 70-185v-2zM2800 3278v2h190v-1l3-184v-1h-196v1l4 183zm187 194h2c57 2 114 4 170 8h1v-2c10-58 17-120 23-186v-2h-2l-185-5h-2v2c-1 64-4 125-7 183v2zm-194-576 6-182v-2h-1c-59 0-118-1-176-3h-2v1c-8 57-14 120-18 184v2h2l188 2h1v-2zm-94 866-25-74-5-7-4-5c9 30 18 59 28 85l6 1zm-95-54c-8-10-13-21-19-33l-60 5h-3l1 3c34 70 75 129 121 175h2l87-5h2l-1-3a670 670 0 01-41-89l-10-2c-28-8-61-27-80-50zm123 26c18 12 38 24 49 43 1 3-2 7-5 6-16-1-26-10-40-15-10-4-20-5-30-6a660 660 0 00 41 90h2l95-1h2v-2c-10-49-18-110-25-182v-1h-1c-48 0-96 1-143 4h-2v2l5 16c15 17 33 33 52 46zm-62-63h-2l3 5-1-5zm-221-280c-6-10-13-22-20-31l7 36a60 60 0 01 13-6zm142 284 77-5-3-5-76 5 2 5zm-183-419c-6-55-10-103-12-138l-33-10c-15-7-42-22-43 7 0 32 14 56 33 81 10 13 9 19-3 30-24 23-68 40-92 69l4 5 111-7c8-17 17-34 35-37zm551-933v1h2c33-1 67-3 100-6h3l-2-3-7-13c-53-93-106-120-126-129H2910l2 3a440 440 0 01 42 147zm-437-16 5-3 9-7a724 724 0 01 210-107l-1-4a930 930 0 00-234 76c-20 10-41 20-61 32l-5 3h5l72 10zm177 324c0 13 0 26-4 38-3 10-15 24-28 20-16-5-25-25-31-42l-8 54v1h1c58 3 117 4 175 5h2v-2c2-52 5-102 9-147-30 4-60 6-86 21a58 58 0 00-30 52zm110 772-1-64-6-6c0 28 2 56 3 83l5-13" fill="#FFF"/>
  <path d="m3053 2298 11 19h2c28-1 60-4 91-8h4l-5-5-3-3a447 447 0 00-205-127h-10l6 3c27 16 68 50 110 120zm-248 1105c0 22 2 44 3 65v2h2c56 0 114 0 171 2h2v-2l7-183v-1h-2c-62-1-124-2-185-1h-2v2l1 52c14 18 10 42 3 64zM2020 2870v2h9a580 580 0 00-7-9l-2 7zm269 464c3 2 7-2 13-3 18-5 37 0 51-14 5-5 9-11 12-18l-103 6 11 14 16 14zm172-505c17 20 30 43 43 65l92 2h2v-1c4-65 10-127 18-184v-2h-1c-59-2-117-5-174-10h-2v2c-8 34-15 70-21 106h2c17-7 32 10 41 22zm70 105c6 5 10 10 12 16 4 16-20 40-30 50-5 6-11 15-18 20-10 5-20 6-30 12-15 10-10 37-11 60l136-2h1v-34c1-53 3-104 6-154v-2h-1c-30 0-60 0-90-2a157 157 0 00 25 35zm70 350h-2l-185 7h-1v-1l-5-33h-5l4 33v2h-1l-38 2-3 5 42-2h1v1l10 56 6 7-10-63v-2h1l185-7h2v2c5 64 12 125 21 183v2h-2l-168 10h-1a1490 1490 0 01-21-88c-2 0-3 2-5 3l20 84v2l-10 1a5331 5331 0 00-68 7v5l52-5 26-3h2v2c8 30 17 58 27 85l6 2c-10-28-20-57-28-87v-2h2c54-5 110-9 167-11h2l1 9c10 56 20 108 32 155l3-12c-12-46-22-97-30-150v-3h1l147-4 1-5c-50 0-100 2-149 4h-1v-1c-10-58-17-120-22-183v-2h2l53-1c0-2-2-4-3-5h-53l-8-120a40 40 0 00-5-4c2 35 4 77 8 123v2" fill="#FFF"/>
  <path d="M2429 3122c-11 0-22-1-32-3 1 35 5 82 11 137 17 0 32 6 49 5 20 0 40-3 59-5a60 60 0 01 10-48c10-15 20-32 35-45 11-10 23-10 33-5l-2-62v-1h-139c-1 15-7 27-24 27zm196-564c15-30-30-30-44-30-20 0-40 4-46 25-6 22-3 45-3 67 0 2-3 5-6 5-24-4-47 5-70 13-6 17-10 35-15 53v2h2l173 10h1v-2l10-64c-6-23-13-58-2-80zm-272 128 81 6h2v-1l14-51-25 7c-24 4-60 16-72 39zm3 65c-1 14-7 22-14 34-10 16-28 11-44 10-23-1-20 18-20 34 0 10-1 25 13 23a270 270 0 00 64-16c15-6 32-10 45-20l13-8a1510 1510 0 01 21-108v-2h-13l-70-7c-2 5-3 10-2 14 0 16 8 30 7 46zm51 670c6-9 12-16 20-21l-10-47-2-3c-20-17-48-12-65 7-10 10-22 23-36 30-15 7-23 5-36 2-7-14 0-33-14-47-9-10-19-13-32-16l-6-3a1198 1198 0 00 54 180h1l87-10 3-10c7-21 23-44 36-62zm74 160c12 33 25 64 40 94v1h1l62-6c-7-14-14-28-24-40-20-25-50-38-79-50zm-113-82-84 9h-2v2a860 860 0 00 100 182 11351 11351 0 01 130-15h3v-3c-15-30-28-62-40-96-30-13-104-38-107-80zm262-296c10 24 15 56 30 79l134-2h2v-2c-3-77-3-142-4-182v-2h-194v2c0 18 0 40 2 65 14 10 26 28 31 42zm30 430 8 30v2h2c48-3 96-4 144-4h2v-2c-5-55-10-116-13-182v-2h-25a218 218 0 01-52 90c-22 20-55 41-66 67zm32-325c30 9 66 2 94 17l11 8-1-47v-1h-2c-44 0-87 0-131 2 7 10 16 17 30 20zM2780 3470h23v-2l-3-52-7 18-13 36zm-120 195h3v-2l-6-20c0 8 0 15 3 22zm610-832c35 11 61 4 93-14l11-4a1510 1510 0 00-24-123v-1h-2l-29 2c-4 10-10 16-21 18-19 3-37-3-57 0-16 4-38 10-50-5l-2-4-13 1h-2v2c6 40 10 83 14 128 5-5 10-8 18-10 20-6 44 5 63 10zm-86 4c-4-45-9-90-15-132v-2h-2c-57 4-116 6-175 7h-2v2l7 183v2h1l156-3a1384 1384 0 01 30-57zm-162 175c33-30 93-36 113-78l16-35-153 3h-1v2l2 152v33h7c-9-27-8-55 16-77" fill="#FFF"/>
  <path d="m3322 2688-135 10 2 4 130-9 3-5zm33 3v1c10 39 18 80 24 122 12-2 25 0 35 6 15 10 22 28 30 44l8 11c18 7 25 5 21-7l-2-17-6-40c-3-30 2-58-33-62-17-3-40-12-48-30-5-12 3-22 10-32l-37 3h-2zm-155-43c7-20 3-31-16-40-10-6-19-10-27-20l-3-3 19 112v1h14c-3-17 7-38 12-50zm-62 581a120 120 0 00-66-64 138 138 0 01-64-71h-10v2c0 40 0 105-3 183v2h2c61 0 123 2 185 4h2v-1l4-51c-20 11-39 23-50-4zm-15-700-7-17-136 8h-2v1c5 55 9 117 12 183v1h2l174-6h2v-2a2620 2620 0 00-20-118c-5-5-8-10-10-14-7-12-9-24-15-36zm223 157h2v-2l-14-52c-4 14-5 38-12 56l24-2zm8 0h1l43-4c5-8 9-16 5-25-10-26-50-69-67-33l17 60v2" fill="#FFF"/>
  <path d="M3252 2297h-4c-20 4-40 6-57 8l4 5 62-8h1a730 730 0 01 164 169l2 2h-3c-45 8-90 13-133 18h-2a774 774 0 00-73-126v2l-2 3a860 860 0 01 70 120v2h-2c-46 6-94 10-142 14h-2v-2l-14-48-4 4 12 44v2h-1l-14 1 2 5h15l16 66 7 7-17-72v-2h2l143-14h2v1c19 41 36 86 50 134v-1l3-7c-14-44-30-86-47-125l-1-3h2l135-18h1c39 57 71 120 97 188v3h-2l-124 13-4 5 130-14h2v2c23 62 40 130 53 200v2h-2l-186 10h-2v-2l-10-71h-5l10 70v3h-2l-187 6h-2v-2l-5-59-4 5 4 54v2h-2l-32 1c0 2-2 3-3 5h37v1c4 50 6 103 7 156v33h-188c0 1 0 3 2 5h186v2c-1 32-3 80-7 136h2l4-3 6-133v-2h1l193 2h2v2h4v-2h2l193 2h1v2c-2 46-9 120-27 206v1h-2l-101-7v5l100 7h2v2c-13 61-30 120-50 174l-10 24v1h-2l-46-6-2 5 45 6h2v2c-11 25-23 50-35 72h6c12-23 23-47 34-72v-1h1l18 2 3-4-18-3h-2v-2l10-23a1210 1210 0 00 50-175v-1h2c60 4 120 10 180 16h2v2c-11 36-24 72-38 106 6-9 11-18 14-27 10-27 18-56 30-82l6-8a912 912 0 00-554-1096H3200l-4 1a1131 1131 0 01 129 57l4 3h-5l-64 10-1 1a720 720 0 00-80-50l-1 4c23 13 46 27 70 44l4 3zm144 792v2h-2L3200 3090h-2v-34c0-53-2-105-6-156v-2h2l188-6h1v2a2052 2052 0 01 12 195zm199 4-193-2h-1v-35c-2-56-5-110-11-162v-2h2l186-10h2v2c10 55 15 113 18 172l-1 35v2h-2zm199 10a910 910 0 01-36 220v1h-2l-180-16h-2v-2a1320 1320 0 00 27-206v-2h2l190 3h1v2zm-23-231a908 908 0 01 23 222v2h-2l-189-3h-2v-2c2-22 1-35 1-35a1490 1490 0 00-17-172v-2h2l183-11h1v1zm-81-220v2a900 900 0 01 80 210v2h-2l-182 11h-2v-1a1150 1150 0 00-52-201v-2h2l154-20h2zm-140-195v1c54 57 100 120 136 188l1 2h-2c-52 8-104 14-154 20h-1v-1a893 893 0 00-96-187l-2-3h3a4270 4270 0 00 114-20h1zM3270 2300l67-10v-1a904 904 0 01 208 162l2 2h-3c-38 8-76 14-113 20l-1-1a739 739 0 00-160-169l-4-2 4-1zm-530 1559v-1l-84 5h-4l3 3c56 53 120 90 192 108l14 3-13-7c-40-21-76-59-107-111" fill="#FFF"/>
  <path d="M3476 3593c-20 40-43 77-68 110l-2 3h3l107 20h1a908 908 0 00 146-182l1-2h-2c-44-8-88-14-133-20-10 18-14 40-27 58-5 7-15 12-26 13zm20-464c-25-13-55-11-80-25-6-4-10-6-16-6a1930 1930 0 01-17 195v2h2l80 5c0-21 9-44 16-60 11-28 56-90 15-111zm-139-3c-14 14-26 27-45 36-22 10-48 17-70 30-17 10-31 26-48 37l-4 55v2h2l184 8h2v-1c12-82 16-150 17-195a314 314 0 00-38 28zm85 444c0-20 6-39 16-58l-116-13h-1v2c-20 67-43 130-70 183v3h2l126 18h1c26-35 50-72 70-112-14 0-28-8-28-23zm67-150c15-32-20-52-36-74-7-10-8-20-6-30l-2-11-82-5h-1v1c-10 67-23 130-38 188l-2 5h2l116 14 22-39c10-16 19-32 27-50zm190 34c-22 10-47 9-70 13-35 6-74 19-96 50l133 20h1a898 898 0 00 51-100 60 60 0 01-20 17zm-295 257h-2a694 694 0 01-173 165l-4 3h5l54 9c83-40 159-92 226-155l2-3h-3a3570 3570 0 00-105-20zm-208-1485a912 912 0 00-144-40l-1 4c45 14 88 33 129 55 2-8 8-16 16-20zm23 1657h-1c-53 33-111 60-173 77v4a1072 1072 0 00 226-70l6-2-6-1-52-8zm-62-1586 10 10v1l25-3a70 70 0 01-16-45l2-10c-80-43-150-63-191-72l-1 3a480 480 0 01 170 116zm-40 164a830 830 0 00-55-137v-1h-2c-34 3-68 5-103 6h-2v2c10 51 17 112 23 182v2h1l135-8c-6-17-7-33 3-46" fill="#FFF"/>
  <path d="m3210 3882-4-1-68-8a437 437 0 01-149 93l1 3a687 687 0 00 216-85l4-2zm-75-1438c20-12 40-20 53-42 6-10 11-20 20-29l2-3a500 500 0 00-45-56h-1l-94 8h-3l1 3a830 830 0 01 52 130l15-11zm78-103c-3-11-10-20-17-29l-1-2-20 2h-4l2 3a630 630 0 01 40 50 40 40 0 00 0-24" fill="#FFF"/>
  <path d="M3131 3872h-4l-78-8h-1c-30 50-66 86-104 106l-13 7 14-3c67-17 129-50 183-100l3-2" fill="#FFF"/>
  <path d="m3040 3866 2-3h-3l-89-5h-1v2a330 330 0 01-39 114l-2 3h9c47-17 88-54 123-111" fill="#FFF"/>
  <path d="M2944 3858h-2l-93-2h-3v2a280 280 0 00 43 118h13c16-18 30-57 42-116v-2" fill="#FFF"/>
  <path d="M2842 3857v-1h-2c-30 0-61 0-91 2h-3l1 2a260 260 0 00 127 117h9l-2-3c-15-20-28-60-39-117zm-327 237-34-12-60 164 33 12c14 5 27 4 40-4a70 70 0 00 28-38l18-46a70 70 0 00 2-47 44 44 0 00-27-29zm342 68-40-1-4 81 40 2c15 0 25-3 33-10a40 40 0 00 12-29c0-12-3-22-10-30-7-8-17-12-30-13zM3291 2060c15 5 30 4 42-4a80 80 0 00 30-40l18-46a80 80 0 00 5-50 45 45 0 00-30-31c-15-6-30-5-43 3a80 80 0 00-30 40l-18 46a80 80 0 00-4 50 46 46 0 00 30 32zm-797-2a43 43 0 00 27-30c4-14 3-30-4-47l-18-46a70 70 0 00-29-37 43 43 0 00-40-3l-33 13L2460 2070l34-13zm305-248 4 81 40-1c14-1 24-5 31-13a40 40 0 00 10-30c0-12-5-21-12-29-8-7-19-10-32-10l-41 2zm-970 901c-12-3-21-3-28 0-8 5-14 13-18 26v2l-12 40 65 19 12-39c4-13 4-23 0-31-2-8-10-14-20-17zm-59 796c4-8 4-18 0-31l-1-2-14-38-64 22 14 38c4 13 10 22 17 26 7 5 16 5 26 2 11-4 19-10 22-17zm-50-817c-10-3-20-2-27 3-7 5-13 15-17 30l-7 25 62 18 7-24c4-14 5-26 2-34-3-10-10-15-20-18zm102 785c8 5 16 6 26 2 10-3 18-10 20-18 3-9 2-20-3-34l-9-25-61 22 8 23a59 59 0 00 19 30zM3356 4130a79 79 0 00-30-40 46 46 0 00-43-3 46 46 0 00-30 32 80 80 0 00 5 50l17 45a80 80 0 00 30 40c14 9 28 10 44 4a45 45 0 00 30-32 80 80 0 00-5-50l-18-46zm507-1817-82 32 32 41" fill="#FFF"/>
  <path d="M1887 2090a1370 1370 0 00-410 981c0 370 145 720 410 981A1402 1402 0 00 2880 4460a1400 1400 0 00 993-407c265-262 410-610 410-980s-145-720-410-982a1402 1402 0 00-993-406c-375 0-728 144-993 406zm768-311 55 266-61 13-56-266 61-13zm240 363a932 932 0 01 0 1866 932 932 0 01 0-1866zm-482-294a110 110 0 01 146 63l17 46c12 30 12 60 0 87a111 111 0 01-64 58l-93 36-99-253 93-37zm-252 127 30 38-56 45 138 176-50 39-138-176-55 44-30-38 162-128zm-307 317a130 130 0 01 30-69 120 120 0 01 66-43 70 70 0 01 64 18l1 1-40 47c-10-8-19-12-28-10-8 2-17 8-27 19a40 40 0 00-10 26c0 8 3 15 9 20 6 6 13 7 21 5 8-2 20-8 38-17 28-19 52-30 73-33 20-4 40 2 58 17a65 65 0 01 25 58c-2 23-13 46-33 70-20 23-42 38-67 45-25 7-49 0-72-20v-1l39-47c12 10 23 14 33 13 10-2 20-9 30-21 10-10 14-20 14-28 0-8-3-15-10-20-7-7-15-9-23-7-8 1-20 6-35 15-30 20-55 30-75 35s-39 0-57-15a65 65 0 01-24-58zm-73 73 43 23-55 101 51 28 46-84 43 23-46 84 60 33 55-101 42 23-85 156-239-130 85-156zM1630 2708c10-33 24-56 41-70a63 63 0 01 62-12c12 4 22 10 30 19 8 9 13 20 14 33a57 57 0 01 31-28c13-4 26-4 40 0a70 70 0 01 50 43c8 20 7 47-3 79l-30 100-260-79 25-85zm113 378a55 55 0 11-110 0 55 55 0 01 110 0zm-83 425-35-97 257-90 30 84c10 31 14 58 8 80-5 22-20 37-43 46-12 4-24 5-36 3a55 55 0 01-30-20c2 17-1 30-9 42a64 64 0 01-32 23c-25 10-47 7-65-5a124 124 0 01-45-66zm156 314-90-153 233-139 91 153-41 25-60-99-50 30 50 83-42 24-50-82-58 34 59 100-42 24zm230 158a66 66 0 01-60 17c-22-5-44-19-64-42a135 135 0 01-37-72c-3-26 7-49 30-70h1l42 46c-12 10-18 21-17 31 0 10 5 22 16 34 9 10 17 15 26 16a20 20 0 00 21-6c8-7 11-14 10-22 0-8-3-20-10-37a262 262 0 01-25-80c-1-20 6-38 24-53 17-16 37-20 60-16 23 5 45 18 64 40a120 120 0 01 34 70 70 70 0 01-27 62h-1l-41-46c10-8 14-17 14-26s-6-19-15-30a40 40 0 00-24-14c-10-1-16 1-22 7-6 5-9 12-8 20 1 8 5 22 12 40 14 30 22 55 23 76 0 21-8 40-25 55zm226-17-133 180-51-38 133-180-56-41 29-40 165 123-30 40-57-44zm328 226-17 46c-12 30-31 52-58 64a110 110 0 01-87 2l-93-35 94-255 94 35c30 10 51 30 64 57 13 27 14 56 3 86zm73 176-61-13 52-266 62 12-53 267zM2930 4270a110 110 0 01-78 21l-40-1-4 93-63-2 10-272 104 4c32 1 58 10 76 28 18 17 27 39 26 65s-12 48-31 64zm92 112-44-268 63-10 36 220 115-19 8 48-178 30zm410-140a111 111 0 01-65 60 113 113 0 01-90 0 113 113 0 01-60-66l-18-46c-12-31-12-60 0-89 13-28 35-48 67-60 32-12 61-12 90 0 27 13 47 35 59 66l18 46c12 31 12 60 0 89zm299-154-103-142 53 178-34 25-149-106v1l100 140-50 37-160-220 67-49 160 119h2l-62-191 68-50 160 221-52 37zm214-225-51-21-52 62 31 46-42 51-154-241 22-26 21-27 267 105-42 51zm84-130-196-107-34 62-42-23 99-180 42 23-34 63L4060 3680l-30 55zm120-264c-8 30-23 52-44 68-20 16-45 20-74 9h-1l18-60c15 5 27 5 36 0 9-6 16-16 20-31 5-13 5-23 2-30-3-9-9-14-17-16-9-3-17-3-24 2s-15 14-26 28c-20 29-40 50-56 60a63 63 0 01-59 8c-22-7-36-22-44-44s-7-48 2-76c10-30 24-50 44-64a70 70 0 01 66-8h1l-18 60a35 35 0 00-30 0c-8 5-14 15-18 28a40 40 0 00 0 28 25 25 0 00 38 12 200 200 0 00 29-30 180 180 0 01 54-58 68 68 0 01 60-7c23 8 38 22 45 44 7 22 6 48-3 77zm-162-384a55 55 0 11 110 0 55 55 0 01-110 0zm180-370c9 30 9 56 0 78a70 70 0 01-52 43h-1l-17-59c13-3 20-9 24-17 4-9 4-20 0-33a40 40 0 00-15-24c-7-5-15-6-23-4-8 2-13 7-16 15-2 8-5 22-7 42 0 33-5 59-13 78-9 20-24 32-47 38-23 7-43 3-61-11a124 124 0 01-40-67c-8-30-9-56 0-80 8-25 27-41 57-50h1l17 60c-15 4-25 11-30 20a60 60 0 00 0 38c4 12 10 21 16 26s15 6 23 4c10-3 16-8 19-15 3-8 5-20 6-38a260 260 0 01 14-82c7-20 22-32 45-38 22-6 42-2 60 12a110 110 0 01 40 64zM4020 2380l94 182-43 23-33-64-199 102-29-56 199-102-33-63 44-22zm-110-147 20 26 22 27-158 239-42-53 32-45-50-63-51 20-42-52 269-99zm-278-252-65 189h1l163-116 67 50-162 219-51-38 105-140-1-2-153 105-34-25 56-174h-1l-103 138-50-38 162-218 66 50zm-425-27 18-46c12-30 32-53 60-65 27-13 57-13 90 0a110 110 0 01 65 150l-18 45a114 114 0 01-60 66 111 111 0 01-89 0 113 113 0 01-66-60 114 114 0 01 0-90zM3020 1760l63 10-36 220 116 20-8 47-178-28L3020 1760zm-73 83c0 27-8 49-26 66a113 113 0 01-75 28l-41 2 4 93-63 3-12-272 103-5c33-1 59 6 78 21 20 16 30 37 32 64" fill="#FFF"/>
  <path d="m3847 3823-81-34-1 1 49 73zm-796-2271-5 17c-3 11-5 23-5 34a153 153 0 01 2-53c1-4 2-10 5-14l-4-2c-5 0-10 3-13 9-8 14-10 44 14 73a220 220 0 01 7-63v-2zm70-35 5-5 4-4c0 2-2 3-3 5a130 130 0 00-5 14v3s0 11 6 18v-9a27 27 0 01 36-25c6 3 10 10 10 20v7l4-8c1-12-7-24-10-26l-4-1a40 40 0 00-19-4c-2 0-5 0-7 2l7-4 9-2h12c0-4-1-9-5-12-6-7-15-8-25-6-10 4-18 10-20 20-3 8-1 16 2 21l3-4" fill="#FFF"/>
  <path d="M3046 1526c6 0 10 4 13 10 3 5 4 13 1 20l-2 10h1a40 40 0 00 12-23v-8c0-3 0-6-3-8 2 0 4 2 6 4 3-6 4-14 2-20-2-4-5-10-12-12h-12a20 20 0 00-7 10h1c3 0 5 2 8 3l6 5c2 1 4 3 5 6a20 20 0 00-6-5 34 34 0 00-14-3h-4c-3 1-10 4-14 10l-4 16v-2c6-10 14-15 23-13zm115-3c-5-2-9-1-11 0l1 7v12c0 7-3 15-5 21l-8 20-5 10-5 10v-2l4-8 4-10 5-21 2-20v-2c0-4-3-6-5-5l-1 2v2c0 6-3 36-10 62l-3 7v1c-2 2-2 5-3 7l8-6 1-1 7-7a90 90 0 00 30-67c-2-8-4-12-6-12zm-447-3c-2 0-3 0-5 2l6 14 2 18v35a146 146 0 00-10-50l-1-2h-1v2c4 9 9 40 7 63 24-29 22-59 14-73-3-7-8-10-12-10zm503 75h-2c-2-1-5-1-8 0 0 5-2 10-4 14l-2 6a132 132 0 01-21 34l-3 4 8-17 6-13 3-10v-2c1-4 0-7-1-7l-1 1-4 7-4 10-2 4v1l-2 5-5 16c-3 7-5 15-10 20 39-14 54-45 55-63 0-6-1-10-3-10" fill="#FFF"/>
  <path d="M3185 1600c11-14 22-17 35-13 6 2 9 9 9 18 0 5-2 10-4 16l1-2c10-11 11-30 8-35l-1-1a30 30 0 00-25-12c4-2 10-2 16 0 5 0 9 2 12 5 2-5 3-10 1-14-2-5-7-10-14-11-13-4-23 5-26 8-4 5-6 9-6 12h1a32 32 0 01 12-1 29 29 0 00-14 7c-2 3-10 18-10 30l5-8zm-619-10h-1c-2 0-2 2-2 6a109 109 0 00 11 30l7 12a220 220 0 01-17-24l-2-4-8-15-3-15H2540c-1 1-3 5-2 10 0 13 8 31 25 47l8 6 20 11-3-7-3-6v-2l-3-6v-2l-2-6-3-7a100 100 0 00-11-27zm17-63v-7c0-10 4-18 10-20 10-3 19-1 26 5 7 5 11 13 10 20v9a30 30 0 00 7-19v-2a60 60 0 00-9-20l5 5 4 4 4 5c3-5 4-13 2-20-2-10-10-17-21-20-10-3-20-2-25 5a20 20 0 00-5 13 45 45 0 01 21 1c3 0 6 2 8 4l-8-2a36 36 0 00-19 4l-3 2c-4 2-12 13-10 25 0 3 1 6 3 8" fill="#FFF"/>
  <path d="M2533 1556c6-2 12-2 18 0a32 32 0 00-26 12l-2 2c-3 4-1 23 8 35l1 1-3-15c0-10 3-16 8-18 13-5 25-1 36 12l4 8a60 60 0 00-10-30c0-2-2-3-3-4l-10-4h6a32 32 0 01 6 0 20 20 0 00-6-10c-2-3-12-13-25-10-7 3-12 7-14 13-2 4-2 8 0 13a30 30 0 01 12-5zm156-44a20 20 0 00-3 8v8c2 7 6 17 13 23 0-4 0-7-2-10-2-7-2-14 1-20a20 20 0 01 14-10c8-2 16 3 22 13v2c0-8-2-14-4-17-3-5-10-8-13-8h-12l-6 2a20 20 0 00-6 5c0-2 2-4 4-6a33 33 0 01 14-8h1c0-3-3-7-6-9-3-2-7-2-12 0-8 1-10 7-12 10-3 7-2 15 2 21l5-4zm-68 12v-1l-2-2c-1-2-3 0-4 4v2c0 7 0 14 2 20l5 21 4 10 4 10-5-10-5-9-8-20a110 110 0 01-5-22 55 55 0 01 1-19h-12c0 1-4 5-4 13-2 18 6 52 43 80l2 1v-2a235 235 0 01-16-76zm-1018 832-38-17-13 25 38 16 13-24zm159-224-34-23-18 22 34 22 18-22zm37-42-33-24-20 21 34 23 20-20zm122-118-30-26-22 19 30 26 22-18zm-43 38-30-25c-8 6-15 13-21 20l31 25 20-20zm-217 253-36-19-16 24 37 18 15-23zm304-327-29-28-22 19 29 27 22-18zM1632 2310l-38-18-15 24 38 18 15-24zm61-90-36-21-16 23 36 20 16-23zm34-45-35-21-18 22 36 21 17-22zm110-125-31-24-20 20 32 25 20-20zm423-295-20-33-27 13 20 33 27-13zm54-23-19-34-27 12 19 33 27-11zM2010 1900l-27-28-23 17 27 29 23-18zm470-228-12-36-30 9 14 35 29-8zm-112 36-16-34-29 10 18 35 27-10zm-310 160-26-30-25 16 27 30 23-17zm48-32-24-30-26 15 26 30 24-15zm50-30-23-31-26 15 24 31 25-14zm51-27-21-32c-10 4-18 9-27 14l22 32 26-14zm217-90-15-35-29 10 16 34 28-9zM1423 3231l-43 4 4 27 42-4-3-27zm-8-106-43 2 2 27 42-2-1-27zm3 53-43 3 3 27 42-3-2-27zm-3-159h-43v26h42V3020zm-1 53H1370v28l43-1v-27zm24 264-42 6 5 27 42-6-5-27zm24 104-42 9 7 26 42-9-7-26zm-13-51-42 7 6 26 42-7-6-26zm-20-105-42 5 4 27 43-6-5-26zm-11-318-43-2-1 27 42 2 2-27zm74-364-40-10-10 25 42 10 8-25zm19-50-40-13-10 26 40 12 10-25zm66-148-38-16-13 25 39 15 12-24zm-46 98-40-14-10 26 40 13 10-25zm22-50-40-14-10 25 39 14 11-24zm-77 201-42-10-7 27 41 9 8-26zm-38 155-42-6-5 27 42 6 5-27zm-9 53-42-5-4 27 42 4 4-26zm-7 53-42-4-3 27 43 3c0-9 2-18 3-26zm27-158-42-7-6 27 42 6 5-26zm12-52-41-8-7 26 42 8 6-26zm2732-367-38 17 13 23 39-16-14-24zm-60-95-36 19 15 23 37-20a950 950 0 00-16-23zm31 47-37 18 14 23 38-18-15-23zm56 96-39 16 12 24 40-15-13-25zm25 50-40 15 12 24 40-14a930 930 0 00-12-25zm-144-240-36 20 16 23 36-20-16-23zm-71-89-34 23 18 21 34-22-18-22zm-38-42-33 23 19 21 33-23-20-21zm276 422-40 13 10 25 40-13-10-25zM4066 2150l-35 22 17 22 36-21-18-23zm278 840 42-2-1-27-43 2 2 27zm-10-106 42-4c0-10-2-18-3-27l-43 5 4 26zm6 53 42-3-2-27-43 4 3 26zm28-110-4-28-42 6 4 27 42-6zm-416-805-32 25 20 20 32-24-20-20zm394 1020h42v-27l-43 1v27zm-21-402-42 10 8 26 41-10-7-26zm-17-52-41 11 8 25 41-10-8-26zm45 158-42 7 5 26 42-6-5-27zm-64-210-40 13 9 25 40-12-10-25zm50 157-40 8c1 9 4 18 6 26l41-8-6-26zm-429-710-30 25 20 20 31-26-21-20zm-1076-364-2-37h-30l2 38h30zM1476 3492l-41 10 8 26 41-10-8-26zm2299-1620-27 28 22 17 28-28-23-18zm46 35-28 27 22 18 30-27-24-18zm-95-70-25 30 23 16 27-29-25-17zm140 107-30 27 22 18 30-26-22-20zm-190-139-24 31 25 15 25-30-25-16zm50 2454 26 29 24-17-27-29-24 17zm-98 62 24 31 25-15-24-30-25 14zm50-30 25 30 24-16-25-30-25 16zm-100 59 22 32 26-15-23-31-26 14zm24-2543 26 14 23-31-26-15-23 32zm214 2382 30 28 22-20-30-26-22 18zm85-75 32 25 20-20-32-25-20 20zm-41 38 30 27 22-20-31-26-21 20zm-88 73 28 28 23-18-29-28-22 18zm-220-2446 25 14 22-32-26-14-22 32zm-161-70 27 10 17-34-28-10-16 34zm-56-20 28 10 15-35-29-10-14 36zm28 2755 15 35 29-10-16-35-28 10zm-56 18 13 35 30-9-15-35-28 9zm-30-2790 30 9 13-36-30-8-12 36zm664 2402 33 24 20-20-34-24-19 20zm-416 302 21 33 27-13-21-33-26 13zm-53 25 20 33 27-12-20-33-27 12zm27-2647 26 12 21-32c-9-5-18-10-27-13l-20 33zm-80 2670 16 34 29-12-19-34-27 11zm26-2694 27 12 20-34-29-12-18 34zM4340 3204l43 3 2-27-43-3-2 27zm-23 158 42 6 5-27-42-6-5 26zm-58 205 40 12 10-26-41-11-10 25zm33-102 40 10 8-27-41-9-7 26zm34-156 43 6 4-27-42-5-5 26zm-50 207 41 10 8-26-41-10-8 26zm30-103 40 8 7-26-42-8-6 27zm-327 620 34 23 18-21-34-23-18 21zm355-776 43 4c0-10 2-18 3-27l-43-4-3 27zm10-106 43 2v-27l-42-2-1 27zM3250 4478l12 36 30-8-14-36-28 8zm1096-1409v29h43V3070h-43zM4240 3617l40 13 10-26-40-12-10 25zm-126 240 37 20 15-25-37-18-15 24zm-30 46 36 20 16-23-37-20-16 23zm-68 88 35 22 18-22-35-22-18 22zm35-44 35 21 17-22-36-20-16 21zm-2557-404-41 10 10 26 40-11-10-25zm2725 124 40 14 10-26-40-13-10 25zm-49 97 39 16 13-24-39-16-13 24zm-27 47 38 18 14-25-38-16-14 23zm52-95 40 15c3-9 8-17 12-25l-40-15-12 25zm-2182 526-28 29 24 17 27-30-23-16zm-90-70-30 26 23 20 30-28-23-19zm44 36-28 28 23 17 28-28-23-17zm-86-74-30 26 20 20 30-27-20-20zm-40-40-33 26 21 20 31-25-20-20zm293 273 27 14 22-32-26-14-23 32zm-75-92-26 30 25 16 25-30a760 760 0 01-24-16zm128 120 27 14 20-33-25-13-22 32zm-104-58 26 15 23-31-24-15-25 30zM1728 3970l-35 22 18 22 35-22-18-22zm-123-182-38 17 14 24 37-17-13-24zm-50-96-40 15 12 25 39-15-12-25zm208 320-34 24 20 21 33-23a740 740 0 01-19-21zm-252-419-40 12 10 26 40-13-10-25zm20 50-40 13 12 26 40-14-11-25zm47 98-38 15 13 25 38-16-13-24zm55 94-38 18 16 24 37-19c-6-7-10-15-15-23zm61 91-35 20c5 8 10 16 17 23l35-20-17-23zm546 496 28 12 19-33-27-13-20 34zm-577-540-37 18 16 24 36-20-15-23zm138 173-33 23 20 21 32-24-20-20zm494 390 28 12 18-34-27-10-19 33zm599-2827v-37h-30v37h30zm1 2906v38h31l-1-38h-30zm120-6 4 38 30-3-4-38-30 3zm-59-2935-30-1-2 37 30 1 2-37zm-1 2940 2 37 31-2-3-37-30 2zm178-20 8 37 30-6-8-37-30 6zm59-12 10 37 30-7-11-36-30 6zm-118 20 7 38 30-4-7-37-30 4zm-546 10 30 7 10-37-30-6-10 36zm-60-15 30 8 12-36-29-8-13 36zm-59-18 30 10 13-36-28-10-15 36zm-57-20 29 10 15-35-28-10-16 35zm358 85 31 3 4-38-30-3-5 38zm62 5 30 2 3-37-30-2-3 37zm62 3h30l1-37h-30l-1 37zm-185-17 30 5 7-37-30-4-7 36zm-61-10 30 6 9-37-30-6-9 37" fill="#FFF"/>
</svg>
