<?xml version="1.0" encoding="utf-8" standalone="yes"?><!-- Generator: Adobe Illustrator 26.5.0, SVG Export Plug-In . SVG Version: 6.00 Build 0)  --><svg xmlns="http://www.w3.org/2000/svg" xmlns:xlink="http://www.w3.org/1999/xlink" version="1.2" baseProfile="tiny-ps" viewBox="0 0 120.5 120.5" xml:space="preserve"><title>mlb-logo</title><g><path fill="#FFFFFF" d="M101.9,38.1c-1-1-2.3-1.5-3.6-1.5H19.1c-1.3,0-2.6,0.5-3.6,1.5S14,40.4,14,41.8v35.3c0,1.4,0.5,2.7,1.5,3.6   c1,1,2.3,1.5,3.7,1.5h79.2c2.8,0,5.1-2.3,5.1-5.2V41.7C103.4,40.4,102.9,39,101.9,38.1z"></path><path fill="#C5203E" d="M103.4,41.7c0-1.4-0.5-2.7-1.5-3.7s-2.3-1.5-3.6-1.5H76.2l12.7,21.2l1.2,0.1l0.7,1v0.9l0.8,0.2l0.7,1v0.9   l0.8,0.1l0.8,0.9v2c0,0,1.8,1.6,3.4,2.3c1.1,0.4,1.2,2.2,1.9,3.2c0.8,1.4,2,1.9,1.8,2.7c-0.6,2.1-2.7,5.6-4.7,5.8h-7.9v3.4h9.8   c2.8,0,5.1-2.3,5.1-5.2L103.4,41.7"></path><path fill="#091F3F" d="M49.3,78.9h-3.8c0-9.5,3.2-14.8,7.1-15.8c0.5-0.1,0.3-2.7-0.4-3.5c0,0-1.9,0-2.3,0   c-0.5-0.1-0.1-0.7-0.1-0.7l1.8-3.9l-0.2-1.1h-6.6l5.5-3.8c0.1-10,10.5-10.8,16.7-6.6c3.7,2.5,4,7.3,3.7,10.7c0,0.2-1,0.1-1,0.1   s-0.6,3.7,1,3.7H78c3-0.1,5.8,1.9,5.8,1.9l0.7-2.5L68.6,36.6H19.2c-1.4,0-2.7,0.5-3.7,1.5S14,40.4,14,41.8v35.3   c0,1.4,0.5,2.7,1.5,3.6c1,1,2.3,1.5,3.7,1.5h32.1C50.5,80.9,49.6,79.4,49.3,78.9"></path><path fill="#FFFFFF" d="M21.1,71.4c0-1.9,1.5-3.5,3.5-3.5s3.5,1.6,3.5,3.5s-1.6,3.5-3.5,3.5S21.1,73.4,21.1,71.4"></path><path fill="#C5203E" d="M103.7,83.3c0-0.4-0.2-0.5-0.6-0.5h-0.7v1.5h0.3v-0.6h0.3l0.3,0.6h0.3l-0.4-0.6   C103.5,83.7,103.7,83.6,103.7,83.3 M103.1,83.5h-0.4v-0.4h0.3c0.1,0,0.3,0,0.3,0.2C103.4,83.4,103.3,83.5,103.1,83.5"></path><path fill="#C5203E" d="M103,82.2c-0.8,0-1.4,0.6-1.4,1.4s0.6,1.4,1.4,1.4s1.4-0.6,1.4-1.4S103.8,82.2,103,82.2 M103,84.7   c-0.6,0-1.1-0.5-1.1-1.1s0.5-1.1,1.1-1.1s1.1,0.5,1.1,1.1S103.6,84.7,103,84.7"></path></g></svg>