<?xml version="1.0" encoding="UTF-8" standalone="yes"?>
<svg version="1.2" baseProfile="tiny-ps" xmlns="http://www.w3.org/2000/svg" viewBox="-0 0 566.93 566.93"><title>bjurfors_logo_fåglar.svg</title>
  
  <rect class="cls-1" width="566.93" height="566.93" fill="#fff"/>
  <g>
    <path class="cls-2" d="M422,221.63c-3.2,6.6,3.02,11.52,5.92,14.42,2.9,2.9,16.54,9.93,21.1,16.13,4.55,6.2,9.47,58.69,8.17,101.93-.89,28.84-35.64-40.6-47.42-50.93-11.77-10.32-29.96-59.41-29.96-59.41-20.92-11.71-48.04-8.5-78.94-3.51-32.9,5.31-65.78,3.72-69.8,2.34-1.06-.35-4.15-.95-4.7-3.38-1.83-7.76,18.62-16.3,30.02-19.68-25.65-24.57-15.61-64.46-31.06-93.14-3.34-6.19-.83-24.31,4.41-16.17,10.73,16.62,9.56,12.28,16.28,17.21,0,0,2.8,2.72,5.91,6.03,3.11,3.31,39.87,42.53,52.32,68.66,2.77,5.8,15.72,6.9,32.87-2.24,8.54-4.56,25.97-16.03,33.73-13.07,4.22,1.62,6.39,2.93,8.08,3.61,1.81.73,9.41,2.56,12.68,3.42.97.25,1.18.3,1.23.84.05.55-.85.61-1.63.79-16.8,3.62-29.27-1.52-46.84,9.58-7.28,4.61,16.64,7.55,21.75,3.13,14.25-12.4,45.11-.63,86.06-3.57,16.01-1.16,18.79-8.59,28.81-8.35,4.53.11,7.86,2,9.55,2.7,1.8.71,9.41,2.55,12.67,3.42.97.24,1.18.31,1.24.84.05.54-.86.52-1.64.78-13.3,4.28-25.97,5.26-41.24,6.23-11.66.76-36.53,5.14-39.55,11.4" fill="#537488"/>
    <path class="cls-2" d="M201.66,319.73c.93.96,17.79,5.56,14.9,6.49-3.44,1.11-11.05.84-15.33.82-16.24-.06-41.56,1.86-40.21,11.73,1.21,8.96,9.04,11.49,17.22,21.68,6.06,7.55,12.44,50.77,7.63,95.28-.07.68-.21,1.32-.45,1.78-.46.95-1.39,1.18-2.21,1.24-4.55.33-8.73-4.26-21.43-23.79-15.36-23.64-43.57-62.13-47.54-81.45-2.14-10.47-21.4,3.59-38.49,6.71-4.61.83-8.67.57-12.06-2.81-3.08-7.24.37-16.57,4.15-22.77,20.43-33.44,64.75-24.34,79.18-21.14,7.55,1.69,19.42,5.42,24.81,7.21,12.82,4.26,22.39-8.72,29.83-.98" fill="#537488"/>
    <path class="cls-2" d="M362.01,300.33c4.45,1.05,9.77,2.06,8.8,2.71-1.73,1.15-9.69,2.16-13.49,2.52-13.96,1.29-41.41-1.29-48.34,6.07-5.39,5.72.4,11.93,1.56,16.17,2.44,9.1.86,35.63-8.49,69.93-1,3.7-2.22,4.53-3.28,4.71-1.05.2-1.7-1.04-1.7-1.04-9.65-23.62-22.57-50.67-31.84-69.43-5.5-11.12-12.89-7.66-13.36-7.57-2.26,11.7-24.83,38.15-24.05,33.97,2.07-11.09,6.88-33.02-3.4-31.63-4.86.67-7.02-7.4-3.56-13.11,24.49-40.47,92.97-13.82,97.19-12.64,10.42,2.93,29.73-4.87,36.05-3.77,4.56.79,3.48,2.05,7.91,3.09" fill="#537488"/>
  </g>
</svg>