<?xml version="1.0" encoding="UTF-8" standalone="yes"?>
<svg version="1.2" baseProfile="tiny-ps" viewBox="0 0 286.6 286.6" xmlns="http://www.w3.org/2000/svg">
  <title>ivoclar</title>
  <g id="Ebene_2_00000180325391188437863560000002103651028963623072_">
    <g id="Ivoclar_Logo">
      <path fill="#69B42D" d="M9.3,124.4c4.4,0.1,8-3.4,8.1-7.8c0,0,0-0.1,0-0.1c0-4.5-3.6-8.1-8.1-8.2c0,0,0,0,0,0c-4.4,0-8,3.5-8,7.9    c0,0.1,0,0.2,0,0.3c-0.1,4.3,3.3,7.8,7.6,7.9C9,124.5,9.2,124.4,9.3,124.4z"/>
      <path fill="#005091" d="M262.3,178.2c3.2,0,5.3-1.7,5.3-5.2v-18.6c0-7,4.9-11.2,13.2-11.2h4v-10.4h-2.9c-6.4,0-10.9,2.2-14.1,6.9    h-0.2v-6.9H257V173C257,176.4,259.1,178.2,262.3,178.2z M221.5,168.2c-7.1-0.1-12.9-5.9-12.8-13.1c0-0.1,0-0.1,0-0.2    c-0.3-7.1,5.2-13,12.3-13.3c7.1-0.3,13,5.2,13.3,12.3c0,0.3,0,0.7,0,1c0.2,7.1-5.5,13.1-12.6,13.3    C221.7,168.2,221.6,168.2,221.5,168.2L221.5,168.2z M220.6,178.2c5.3,0.2,10.3-2.3,13.3-6.7h0.2v1.6c0,3.4,2.1,5.2,5.3,5.2    s5.3-1.7,5.3-5.2v-40.2h-10.6v5.6h-0.2c-3-4.4-8-6.9-13.3-6.7c-12.2,0-22.6,10.6-22.6,23.2S208.3,178.2,220.6,178.2L220.6,178.2z     M182.7,178.2c3.1,0,5.2-1.6,5.3-4.9v-60.9h-10.6v60.9C177.5,176.5,179.6,178.2,182.7,178.2L182.7,178.2z M148.9,178.2    c8.1,0,15.6-4.3,19.9-11.2l-8.2-5.8c-2.4,4.3-6.8,6.9-11.7,7c-7.1-0.1-12.9-5.9-12.8-13.1c0-0.1,0-0.1,0-0.2    c-0.2-7.1,5.5-13.1,12.6-13.3c0,0,0.1,0,0.1,0c4.9,0.1,9.3,2.7,11.7,7l8.2-5.8c-6.6-11.1-20.9-14.7-32-8.1    c-11.1,6.6-14.7,20.9-8.1,32C132.9,173.9,140.5,178.2,148.9,178.2L148.9,178.2z M94.8,168.2c-7.1-0.1-12.9-5.9-12.8-13    c0-0.1,0-0.1,0-0.2c-0.3-7.1,5.2-13,12.3-13.3s13,5.2,13.3,12.3c0,0.3,0,0.7,0,1c0.2,7.1-5.5,13.1-12.6,13.2    C94.9,168.2,94.8,168.2,94.8,168.2L94.8,168.2z M44.7,178.2c3.6,0,6.1-1.6,8.1-6.6L68,132.8H56.8l-11.7,31.6h-0.2l-11.6-31.6H21.6    l15.2,38.8C38.7,176.5,41,178.2,44.7,178.2L44.7,178.2z M9.4,178.2c3.2,0,5.3-1.7,5.3-5.2v-40.2H4.1V173    C4.1,176.4,6.2,178.2,9.4,178.2L9.4,178.2z M94.8,178.2c12.8-0.1,23.1-10.7,23-23.5c-0.1-12.8-10.7-23.1-23.5-23    c-12.7,0.1-23,10.5-23,23.2C71.4,167.8,81.9,178.2,94.8,178.2L94.8,178.2z"/>
    </g>
  </g>
</svg>