<?xml version="1.0" encoding="utf-8"?>
<!-- Generator: Adobe Illustrator 26.2.1, SVG Export Plug-In . SVG Version: 6.00 Build 0)  -->
<svg version="1.2" baseProfile="tiny-ps" id="Layer_1" xmlns="http://www.w3.org/2000/svg" xmlns:xlink="http://www.w3.org/1999/xlink"
	 viewBox="0 0 800 800" xml:space="preserve">
<title>BlaBlaCar</title>
<g>
	<path fill="#054752" d="M674.6,451.9c-14.4-84.9-95-142.1-179.9-127.8L519.8,182L429,166c-7.8,17.1-42,95.1-58.6,183.2
		c33.8,23,58.7,59.3,66,102.8c7.9,46.5-5.7,91.6-33.5,125.4c6.8,8.3,14.6,16,23.5,23c35.6,27.8,78.6,38.7,120.4,31.5
		C631.8,617.5,689,536.9,674.6,451.9z"/>
	<path fill="#2ED1FF" d="M368.7,358.8c0.6-3.3,1.2-6.4,1.7-9.7c-32.2-21.9-72.5-32-113.9-24.9L281.7,182l-90.8-16
		c-8.1,17.7-44.5,100.8-60.3,192.8c-12.7,73.7-12,153.1,27,209c8.4,12,18.5,23,30.8,32.4c35.6,27.8,78.6,38.7,120.4,31.5
		c38.5-6.5,71.2-26.6,94.2-54.5c-2.6-3.1-5-6.3-7.3-9.5C356.6,512,356,432.6,368.7,358.8z"/>
	<g>
		<path fill="#9AED66" d="M436.5,451.9c-7.4-43.6-32.2-79.8-66-102.8c-0.6,3.2-1.2,6.4-1.7,9.7c-12.7,73.7-12.1,153.1,27,209
			c2.3,3.3,4.7,6.4,7.3,9.5C430.7,543.6,444.3,498.5,436.5,451.9z"/>
	</g>
</g>
</svg>
