<?xml version="1.0" encoding="UTF-8" standalone="yes"?>
<svg version="1.2" viewBox="0 0 360 360" xml:space="preserve" baseProfile="tiny-ps" xmlns="http://www.w3.org/2000/svg">
  <title>The Harry &amp; Jeanette Weinberg Foundation</title>
  <rect class="st0" width="360" height="360" fill="#00274D"/>
  <g>
    <g>
      <polyline class="st1" points="236.1,77.8 193.6,151.4 180.4,128.2 167,150.7 124.6,77.8 153,77.5 165.9,102.1 180.5,77.8 &#xA;&#x9;&#x9;&#x9;193.7,101.5 206,77.8 &#x9;&#x9;" fill="#FFFFFF"/>
      <polyline class="st1" points="294.8,177.9 209.8,177.8 223.3,154.8 197.1,154.4 239,81.2 253.6,105.7 238.7,129.2 267,129.7 &#xA;&#x9;&#x9;&#x9;253.1,153 279.7,151.8 &#x9;&#x9;" fill="#FFFFFF"/>
      <polyline class="st1" points="121.5,81.3 163.9,155 137.3,154.8 150.1,177.6 65.7,178 79.6,153.1 107.4,154.3 93.7,129.5 &#xA;&#x9;&#x9;&#x9;120.8,129.9 106.4,107.5 &#x9;&#x9;" fill="#FFFFFF"/>
      <polyline class="st1" points="123.9,282.2 166.4,208.6 179.6,231.8 193,209.3 235.4,282.2 207,282.5 194.1,257.9 179.5,282.2 &#xA;&#x9;&#x9;&#x9;166.3,258.5 154,282.2 &#x9;&#x9;" fill="#FFFFFF"/>
      <polyline class="st1" points="65.2,182.1 150.2,182.2 136.7,205.2 162.9,205.6 121,278.8 106.4,254.3 121.3,230.8 93,230.3 &#xA;&#x9;&#x9;&#x9;106.9,207 80.3,208.2 &#x9;&#x9;" fill="#FFFFFF"/>
      <polyline class="st1" points="238.5,278.7 196.1,205.1 222.7,205.2 209.9,182.4 294.3,182 280.4,206.9 252.6,205.7 266.3,230.5 &#xA;&#x9;&#x9;&#x9;239.2,230.1 253.6,252.5 &#x9;&#x9;" fill="#FFFFFF"/>
    </g>
  </g>
</svg>