<?xml version="1.0" encoding="utf-8"?>
<!-- Generator: Adobe Illustrator 27.9.5, SVG Export Plug-In . SVG Version: 9.03 Build 54986)  -->
<svg version="1.2" baseProfile="tiny-ps" id="_レイヤー_2"
	 xmlns="http://www.w3.org/2000/svg" xmlns:xlink="http://www.w3.org/1999/xlink" viewBox="0 0 500 500"
	 xml:space="preserve">
<title>JAPAN POST BANK</title>
<g id="_レイヤー_1-2">
	<g>
		<rect fill="#FFFFFF" width="500" height="500"/>
		<g>
			<path fill="#008C38" d="M350,156.5h-66l-19.5,95c-7,32.5-27.5,41.5-53,41.5c-23,0-44.5-12-39-41.5c1-6.5,1.5-9,2.5-14h30
				c-0.5,3-1.5,7.5-3,14c-2,10,2.5,16.5,13.5,16.5s17-6,19-16.5l19.5-95h-69.5c-37,0-48.5,9.5-55,42l-22,106.5h134
				c33,0,51-19,55.5-42l4.5-22H334c33,0,53-14,57.5-42C396.5,172.5,377.5,156.5,350,156.5z M361.5,199c-2,13-12,19-30.5,19h-24.5
				l8-39h25C358,179,363,188,361.5,199z"/>
			<g>
				<path fill="#008C38" d="M102.5,327.5H119c4,0,10.5,1.5,10.5,8.5c0,5-4,8.5-10,9.5l0,0c4.5,0.5,7,3,7,7c0,8-6.5,11.5-15.5,12
					L95,365L102.5,327.5z M106.5,358h2.5c5,0,8.5-1.5,8.5-5c0-3-2.5-3.5-7-3.5H108L106.5,358z M109.5,342.5h4c4,0,6.5-1.5,6.5-4
					c0-3-2.5-3.5-6-3.5h-2.5L109.5,342.5z"/>
				<path fill="#008C38" d="M187,327.5h12.5l6,37h-10l-1-8H180l-4,8.5h-11L187,327.5z M192,335.5L192,335.5l-8,14.5h9.5L192,335.5z"
					/>
				<path fill="#008C38" d="M255.5,327.5H268l7.5,26l0,0l5-26h9.5l-7.5,37.5H270l-8-26l0,0l-5,26h-9.5L255.5,327.5z"/>
				<path fill="#008C38" d="M335,327.5h10l-3,15l0,0l13.5-15h13l-17.5,18l11,19h-12l-9-17l0,0l-3.5,17.5h-10L335,327.5z"/>
			</g>
		</g>
	</g>
</g>
</svg>
