<?xml version="1.0" encoding="utf-8"?>
<!-- Generator: Adobe Illustrator 27.5.0, SVG Export Plug-In . SVG Version: 6.00 Build 0)  -->
<svg version="1.2" baseProfile="tiny-ps" xmlns="http://www.w3.org/2000/svg" xmlns:xlink="http://www.w3.org/1999/xlink"
	 viewBox="0 0 1000 1000" xml:space="preserve">
<title>Mobile Vikings</title>
<g>
	<rect fill-rule="evenodd" fill="#FFFFFF" width="1000" height="1000"/>
	<g transform="translate(125, 120,687)">
		<path fill-rule="evenodd" fill="#000000" d="M736.7,670.4c-17-49.5-54-77.6-93-107.5c-13.1-9.9-26.4-20.2-39.5-31.4v-70
			c13.9,4,28.3,8.2,36.1,11.8c23.6,10.8,29.9,17,40.3,38.8l0,0c0.3,0.8,0.8,1.5,1.5,2.3c0.2,0.2,0.3,0.3,0.5,0.5
			c0.6,0.6,1.3,1.1,1.9,1.6c0,0,0.2,0,0.2,0.2c0.6,0.3,1.5,0.6,2.1,1c0.2,0,0.3,0.2,0.6,0.2c0.8,0.2,1.6,0.3,2.4,0.3l0,0l0,0
			c0.2,0,0.3,0,0.5,0l65.3-3.7c0.2,0,0.5,0,0.6-0.2c0.3,0,0.6-0.2,1-0.2c0.3,0,0.6-0.2,1-0.3c0.3-0.2,0.6-0.2,0.8-0.3
			c0.3-0.2,0.6-0.3,1-0.5c0.3-0.2,0.5-0.3,0.8-0.5c0.3-0.2,0.6-0.5,1-0.6c0.2-0.2,0.3-0.2,0.5-0.3l0.2-0.2c0.3-0.3,0.5-0.6,0.8-1
			c0.2-0.2,0.3-0.5,0.5-0.6c0.2-0.3,0.3-0.6,0.5-1c0.2-0.3,0.3-0.5,0.3-0.8c0.2-0.3,0.2-0.6,0.3-1c0-0.3,0.2-0.6,0.2-1s0-0.6,0.2-1
			c0-0.3,0-0.6,0-1c0-0.2,0-0.2,0-0.3s0-0.3-0.2-0.6c0-0.3-0.2-0.6-0.2-1.1c0-0.3-0.2-0.6-0.3-0.8c-0.2-0.3-0.2-0.6-0.3-1
			c-0.2-0.2-0.2-0.5-0.3-0.6c-0.2-0.3-0.3-0.6-0.6-1c-0.2-0.2-0.3-0.3-0.5-0.6c-0.2-0.2-0.3-0.5-0.5-0.6l-100.9-102
			c21.2,1.3,51.6,7.1,78.9,13.3c30.7,48.7,46.9,104.6,46.9,162.2c0,31.9-7.4,72-19.4,106.9C757.3,673.9,746.8,671.7,736.7,670.4z
			 M591.4,519.8c-2.3-2.1-4.4-4.2-6.5-6.5c-25.7-26-39-60-39-94.3c8.9,17.3,23.4,32.2,42,37.7l3.4,1V519.8z M578.7,297.8
			c28.1,0.3,53.7,9.7,76.3,28.3c-22.8,10.2-43.3,7.8-47.7,7C598.2,327.6,587,312.4,578.7,297.8z M627.7,698.2
			c-3.2-45-40.4-84.4-79.4-126c-44.5-47.4-90.4-96.2-90.1-156.9l0,0l0,0c0-60.3,46.6-110.1,106.2-116.6c9.2,17.5,23.9,39,37.7,46.2
			l0.8,0.5l0.8,0.2c0.5,0.2,6.1,1.3,15,1.3c12.5,0,31-2.3,50.3-13.3c1.1-0.6,2.1-1.6,2.6-2.7c1.6-2.6,1.3-6-1-8.1
			c-27-24.9-58.4-37.5-93.1-37.5c-72.9,0-132.3,58.4-132.3,130.2l0,0c-0.5,65.7,47.2,116.6,93.5,165.6
			c39.8,42.4,77.5,82.5,76.2,126.1c-18.1,13.3-38.8,30.9-63.1,55c-38,37.8-90.6,81.2-160.4,81.2c-48.8,0-95.2-17.6-131.3-49.5
			c-30.2-27.2-53.7-61.4-69.4-100.1c13.3,5.3,34.3,12.6,61.1,19.6c25.4,53.8,74.9,85.9,132.8,85.9c33,0,62.1-10,79.9-27.7
			c16-16,23.6-34.9,21.2-53.5c-4-30.9-28.6-54-58.2-57.7c3.6-5.2,8.1-9.4,13.7-12.3c23.1-12,56.8-1.3,57.1-1.3
			c5.3,1.8,11.2-1.1,12.9-6.5c0.5-1.3,0.6-2.7,0.5-4c0-1.6-0.2-3.2-1-4.7c-6.8-13.7-18.9-23-33-33.6c-14.1-10.7-31.7-24.1-50.3-46.7
			c-29.6-36.2-37-86.5-37.2-87c-0.5-3.2-2.4-5.8-5-7.3l-19.1-14.4l17-14.7c0,0,0,0,0.2-0.2c0.3-0.3,0.5-0.5,0.8-0.8
			c0.2-0.2,0.3-0.3,0.3-0.5c0.2-0.3,0.5-0.6,0.6-1c0-0.2,0.2-0.2,0.2-0.3c0.2-0.5,0.5-1,0.5-1.5l0,0c0-0.2,0-0.3,0-0.5
			c0.2-0.3,0.2-0.8,0.2-1.1l0,0l0.6-11.2c0.5-3.1-0.8-6.5-3.7-8.2l-20.7-13.9l26.2-10.5c0.2,0,0.2-0.2,0.2-0.2
			c0.3-0.2,0.6-0.3,1-0.5c0.2-0.2,0.3-0.2,0.3-0.2c0.5-0.3,0.8-0.6,1.1-1c0,0,0-0.2,0.2-0.2c0.3-0.3,0.6-0.6,1-1.1
			c0.2-0.2,0.2-0.3,0.3-0.5c0.2-0.3,0.3-0.6,0.5-1c0.2-0.2,0.2-0.3,0.2-0.5c0-0.2,0.2-0.3,0.2-0.5l3.6-11.2
			c1.3-4.2-0.8-8.7-4.7-10.5L371,329.7l35.6-4.4c0.6,0.2,1.3,0.3,1.8,0.3c2.9,0,5.8-1.5,7.4-4l6.3-10c0-0.2,0-0.2,0.2-0.2
			c0.2-0.3,0.3-0.6,0.5-0.8c0.2-0.2,0.2-0.5,0.3-0.6c0.2-0.3,0.2-0.5,0.2-0.8s0.2-0.5,0.2-0.8s0-0.5,0-0.8s0-0.5,0-0.8
			s0-0.5-0.2-0.8c0-0.3-0.2-0.6-0.2-0.8c0-0.3-0.2-0.5-0.2-0.6c-0.2-0.3-0.2-0.6-0.3-1c0-0.2,0-0.2-0.2-0.3l-19.2-35.3l39.8,11.2
			c0.2,0,0.2,0,0.2,0c0.6,0.2,1.5,0.3,2.1,0.3l0,0c0.5,0,1,0,1.5-0.2c0.2,0,0.3,0,0.5-0.2c0.3-0.2,0.6-0.2,1-0.3
			c0.2,0,0.3-0.2,0.5-0.2c0.3-0.2,0.5-0.3,0.8-0.3c0.2-0.2,0.3-0.2,0.5-0.3c0.3-0.2,0.5-0.3,0.8-0.6c0.2,0,0.2-0.2,0.3-0.2l8.7-7.9
			l0,0c0.5-0.3,0.8-0.8,1.1-1.3c0.2-0.2,0.3-0.5,0.5-0.6c0.2-0.3,0.3-0.5,0.5-0.8c0.2-0.3,0.2-0.5,0.3-0.8s0.2-0.5,0.3-0.8
			c0-0.3,0.2-0.6,0.2-0.8c0-0.3,0.2-0.5,0.2-0.8c0-0.5,0-1.1,0-1.8l0,0l-6.8-45.1l36.2,24.3c0,0,0.2,0,0.2,0.2
			c0.5,0.3,1.1,0.5,1.6,0.8c0.2,0.2,0.5,0.2,0.6,0.3c0.8,0.2,1.6,0.3,2.4,0.3l0,0l0,0c0.6,0,1.3-0.2,1.9-0.2c0.2,0,0.5-0.2,0.6-0.2
			c0.3-0.2,0.8-0.2,1.1-0.5l10.7-5.2c2.9-1.5,4.7-4.2,4.9-7.3l7.1-45.1l27.2,24.4c0.5,0.5,1,0.8,1.5,1.1
			c-2.3,21.3,3.9,35.3,5.3,38.3c3.9,11.2,14.6,18.3,26,18.3c2.7,0,5.7-0.5,8.4-1.3c14.4-4.5,22.3-19.6,17.9-33.8l0,0
			c-0.3-1.3-0.6-2.7-1-4c38,9.2,70.5,44.8,96.9,73.9l1.1,1.1l0,0c0,0,0.2,0.2,0.2,0.3c2.7,2.9,5.5,5.7,8.2,8.6
			c22.6,23.6,45.9,47.9,76.3,56.3c7.9,2.1,15.8,17.1,20.5,38.6c-0.6,0-1.5-0.2-2.1-0.2c-3.6-0.8-8.7-2.1-15-3.7
			c-66.6-16.8-132.1-31.5-159.3-24.3c-0.2,0-0.3,0.2-0.5,0.2c-0.3,0.2-0.6,0.2-1,0.3c-0.3,0.2-0.6,0.3-0.8,0.5
			c-0.3,0.2-0.5,0.3-0.8,0.5c-0.3,0.2-0.6,0.5-0.8,0.6c-0.2,0.2-0.3,0.2-0.3,0.3c-0.2,0.2-0.2,0.2-0.3,0.3c-0.3,0.3-0.5,0.5-0.6,0.8
			c-0.2,0.2-0.3,0.5-0.5,0.8c-0.2,0.3-0.3,0.6-0.5,1c-0.2,0.3-0.3,0.5-0.3,0.8c-0.2,0.3-0.2,0.6-0.3,1c-0.2,0.3-0.2,0.6-0.2,0.8
			c0,0.3-0.2,0.6-0.2,1s0,0.6,0,1s0,0.6,0.2,1c0,0.3,0.2,0.6,0.2,1c0,0.2,0,0.3,0,0.5c0,0.2,0.2,0.3,0.2,0.5c0.2,0.3,0.2,0.6,0.3,1
			c0.2,0.3,0.3,0.6,0.5,1c0.2,0.3,0.3,0.5,0.5,0.8c0.2,0.3,0.5,0.6,0.6,1c0.2,0.2,0.2,0.3,0.3,0.3l100.9,101.9l-36.2,2.1
			c-11.2-21.7-21.5-30.7-47.1-42.4c-10.3-4.7-28.5-9.9-45.9-14.9l-9.4-2.7c-19.9-5.8-37.4-32.5-37.4-57.4c0-7.3,1.6-14.4,4.7-20.9
			c0.5-1,0.6-1.9,0.8-2.9c0.5-1,1-1.8,1.5-2.7c2.7-4.9,1-11-4-13.6c-5-2.7-11.2-1-13.9,3.9c-33.6,60.3-23.6,133.9,25.1,183.4
			c19.7,20.1,40.7,36.1,61,51.4c35.9,27.3,67.3,51.3,83.4,90.4C694.2,669.4,668.3,671.4,627.7,698.2z M465.7,726.3
			c-0.8,13.7-9.9,24.9-15.7,30.7c-13.7,13.6-38.2,21.8-65.5,21.8c-58.5,0-90.7-34.6-106.4-59.8c19.2,3.9,40.7,7.3,63.9,9.4
			c0.6,0.2,1.3,0.3,1.8,0.3c0.2,0,0.3,0,0.5,0c16,1.5,32.8,2.3,50.3,2.3C417.4,730.9,441.1,729.4,465.7,726.3z M402.2,666.3
			c0,0.2,0,0.3-0.2,0.6c0,0,0,0,0,0.2c-0.2,0.5-0.2,1-0.3,1.5c-0.2,0.8-0.2,1.6,0,2.4c0.6,5.5,5.8,9.4,11.3,8.7
			c23.8-3.1,45,11.6,50.9,34c-39.3,5-76.2,5.3-109.3,2.9c33.1-60,41.4-130.5,43-172.9c4,6.8,8.6,13.4,13.7,19.7
			c20.1,24.4,38.6,38.6,53.7,50c4,3.1,7.8,5.8,11,8.6c-13.6-1-30.1,0.2-44.5,7.6C417.2,637.2,407.3,649.5,402.2,666.3z M244.2,386.1
			l93.5,6.1c0.5,0.5,0.8,0.8,1.5,1.1h0.2l0,0l29.9,20.1l-0.2,3.2l-22.3,19.2l0,0l0,0c-0.2,0-0.2,0.2-0.2,0.3c-0.3,0.3-0.6,0.6-1,1
			l0,0c-0.3,0.5-0.6,1-1,1.5c-0.2,0.3-0.3,0.6-0.3,1c0,0.2-0.2,0.3-0.2,0.5c-0.2,0.3-0.2,0.8-0.2,1.1c0,0.2,0,0.3,0,0.5
			c0,0.3,0,0.6,0,1.1c0,0.2,0,0.3,0,0.6c0,0.3,0.2,0.6,0.2,1c0,0.2,0,0.5,0.2,0.6c0.3,1.1,1,2.1,1.8,2.9l0,0l0,0
			c0.3,0.5,0.8,0.8,1.3,1.1l23.1,17.5c0.5,3.1,4,25.4,14.9,51.4c0.5,32.5-2.6,125-44.5,197.1c-77.6-7.4-133.7-28.8-153.1-37.2
			C206.4,649.5,263.9,547,244.2,386.1z M168.2,576.1c0-66.9,21.5-130.7,62.1-184c0.5-0.6,1-1.1,1.5-1.8
			c16.7,142.9-30.2,239.5-50.9,274.1C172.6,636.4,168.2,606.7,168.2,576.1z M387.5,282.6c1.1-0.3,2.1-1,3.1-1.6l13.9,25.5l-1,1.6
			l-52.7,6.5c-0.2,0-0.2,0-0.3,0c-0.3,0-0.6,0.2-1,0.2s-0.5,0.2-0.8,0.3c-0.3,0.2-0.5,0.2-0.8,0.3c-0.3,0.2-0.5,0.3-0.8,0.5
			c-0.2,0.2-0.5,0.3-0.6,0.5c-0.3,0.2-0.5,0.3-0.8,0.6l-0.2,0.2c-0.2,0.2-0.2,0.2-0.3,0.3s-0.5,0.5-0.6,0.8
			c-0.2,0.2-0.3,0.5-0.5,0.6c-0.2,0.3-0.3,0.5-0.3,0.8c-0.2,0.3-0.2,0.5-0.3,0.8s-0.2,0.5-0.2,0.8s-0.2,0.5-0.2,0.8s0,0.5,0,0.8
			c0,0.3,0,0.6,0,1c0,0.2,0,0.3,0,0.5s0,0.2,0,0.3c0,0.3,0.2,0.5,0.2,0.8s0.2,0.6,0.3,0.8s0.2,0.5,0.3,0.6c0.2,0.3,0.3,0.6,0.5,0.8
			c0.2,0.2,0.2,0.3,0.3,0.5c0.2,0.3,0.5,0.5,0.6,0.8c0.2,0.2,0.2,0.2,0.3,0.3l33.1,32l-0.5,1.6l-37.5,15c-0.2,0-0.3,0.2-0.5,0.2
			c-0.3,0.2-0.6,0.3-1.1,0.5c-0.2,0.2-0.3,0.3-0.6,0.5l-93-6.1C283.5,331.1,333.1,299.3,387.5,282.6z M574.4,179
			c12.1-25.9,35.6-39.3,54.2-46.2c-25.1,25.2-41.4,61.8-31,100.9c0,0,0,0,0,0.2v0.2c2.4,7.6-1.8,15.7-9.4,18.1s-15.8-1.8-18.3-9.2
			l-0.5-1.1C569,240.8,556.6,217,574.4,179z M696.1,163c-12.3,14.1-26.8,37.4-30.1,70.5c-7.3-5.7-15-10.7-23-15
			C649.9,202.3,665.7,174.6,696.1,163z M852.7,750.8c0-0.3-0.2-0.6-0.2-1s-0.2-0.6-0.2-1c-0.2-0.3-0.3-0.6-0.5-1
			c-0.2-0.2-0.2-0.5-0.3-0.6c0-0.2-0.2-0.2-0.2-0.2l0,0c-16-29.8-39.6-49.5-64.7-61.6c12.9-37.4,20.9-80.5,20.9-114.6
			c0-54.8-13.7-108-39.9-155.7c8.7,2.1,16.5,4,22.5,5.7c6.6,1.6,12,3.1,15.7,3.9l0.5,0.2c1.3,0.3,4,0.6,7.1,0.6c5,0,11.3-1,15.7-5.3
			c3.7-3.7,5.2-8.7,4.2-14.4c-4.5-23.4-14.2-52.6-35.9-58.4c-24.9-6.8-46.2-29.1-66.9-50.6c-2.7-2.9-5.5-5.8-8.2-8.6l-1-1.1
			c-12.3-13.6-26.7-29.3-42.7-43.3c1.8-58.4,41.7-85.7,43.5-86.8l0.2-0.2c0.2-0.2,0.3-0.3,0.5-0.5c0.2-0.2,0.3-0.3,0.5-0.3
			c0.2-0.2,0.3-0.3,0.5-0.5s0.3-0.3,0.3-0.5c0.2-0.2,0.2-0.3,0.3-0.5c0.2-0.2,0.2-0.3,0.3-0.5c0-0.2,0.2-0.3,0.2-0.6
			c0-0.2,0.2-0.3,0.2-0.6c0-0.2,0-0.5,0-0.6c0-0.2,0-0.5,0-0.6c0-0.2,0-0.2,0-0.3c0-0.2,0-0.2,0-0.3c0-0.2,0-0.5-0.2-0.6
			c0-0.2-0.2-0.3-0.2-0.6c0-0.2-0.2-0.3-0.3-0.6c-0.2-0.2-0.2-0.3-0.3-0.5c0-0.2-0.2-0.2-0.2-0.3c0-0.2-0.2-0.2-0.2-0.3
			c-0.2-0.2-0.2-0.3-0.3-0.3c-0.2-0.2-0.3-0.3-0.5-0.5s-0.2-0.2-0.3-0.3c-0.2-0.2-0.5-0.3-0.6-0.5c-0.2,0-0.3-0.2-0.5-0.2
			c-0.2-0.2-0.5-0.2-0.6-0.3c-0.2,0-0.3-0.2-0.5-0.2s-0.5-0.2-0.6-0.2c-0.2,0-0.3,0-0.6,0c-0.2,0-0.5,0-0.6,0c-0.2,0-0.2,0-0.3,0
			c-52.1,4.5-76.6,45.4-86.2,67.6c-7.8-3.2-15.7-5.8-23.9-7.3c1.8-34,24.7-63.7,51.1-80.5c0.2,0,0.2-0.2,0.3-0.2
			c0.2-0.2,0.3-0.3,0.5-0.5c0.2-0.2,0.3-0.3,0.5-0.5c0.2-0.2,0.3-0.3,0.3-0.5c0.2-0.2,0.3-0.3,0.3-0.5s0.2-0.3,0.3-0.5
			c0.2-0.2,0.2-0.3,0.3-0.5c0-0.2,0.2-0.3,0.2-0.6c0-0.2,0.2-0.3,0.2-0.6c0-0.2,0-0.3,0-0.6c0-0.2,0-0.5,0-0.6s0-0.2,0-0.3v-0.2
			c0-0.2-0.2-0.5-0.2-0.6c0-0.2-0.2-0.3-0.2-0.6c0-0.2-0.2-0.3-0.2-0.5c-0.2-0.2-0.2-0.5-0.3-0.6c0,0,0-0.2-0.2-0.2
			c0-0.2-0.2-0.2-0.2-0.3c-0.2-0.2-0.3-0.3-0.5-0.5c-0.2-0.2-0.3-0.3-0.5-0.5c-0.2-0.2-0.3-0.3-0.5-0.3c-0.2-0.2-0.3-0.2-0.5-0.3
			s-0.3-0.2-0.5-0.3c-0.2-0.2-0.3-0.2-0.5-0.2c-0.2,0-0.3-0.2-0.6-0.2c-0.2,0-0.5-0.2-0.6-0.2c-0.2,0-0.3,0-0.6,0s-0.5,0-0.8,0
			c-0.2,0-0.2,0-0.3,0c-2.7,0.3-66.9,7-91.8,60.5c-2.6,5.5-4.5,10.8-6.1,15.8l-33.1-29.8l0,0l0,0c-0.2-0.2-0.3-0.2-0.3-0.3
			c-0.3-0.2-0.6-0.5-1-0.6c-0.2-0.2-0.5-0.3-0.8-0.3c-0.3-0.2-0.5-0.3-0.8-0.3c-0.3-0.2-0.8-0.2-1.1-0.3c-0.2,0-0.3-0.2-0.5-0.2l0,0
			c-2.7-0.5-5.8,0.5-7.8,2.7c-0.2,0.3-0.5,0.5-0.6,0.8c-0.2,0.2-0.3,0.3-0.3,0.5c-0.2,0.3-0.3,0.6-0.5,1c-0.2,0.2-0.2,0.3-0.3,0.6
			s-0.2,0.8-0.3,1.1c0,0.2-0.2,0.3-0.2,0.5l-9.1,57.4l-1.9,1l-48.5-32.7c-0.2-0.2-0.3-0.2-0.5-0.2c-0.3-0.2-0.6-0.3-1-0.5
			c-0.2-0.2-0.5-0.2-0.6-0.3c-0.3-0.2-0.6-0.2-1-0.3c-0.3,0-0.5-0.2-0.8-0.2s-0.6,0-0.8-0.2c-0.3,0-0.6,0-1,0c-0.2,0-0.3,0-0.6,0
			h-0.2c-0.3,0-0.6,0.2-1,0.2c-0.2,0-0.5,0.2-0.6,0.2c-0.3,0.2-0.5,0.2-0.8,0.3c-0.3,0.2-0.5,0.2-0.8,0.3c-0.2,0.2-0.5,0.3-0.6,0.5
			c-0.3,0.2-0.5,0.3-0.8,0.6c-0.2,0.2-0.3,0.3-0.5,0.5c-0.2,0.3-0.5,0.5-0.6,0.8c0,0,0,0-0.2,0.2s-0.2,0.3-0.3,0.5
			c-0.2,0.3-0.3,0.6-0.5,0.8c-0.2,0.3-0.2,0.5-0.3,0.8c-0.2,0.3-0.2,0.5-0.3,0.8c0,0.3-0.2,0.6-0.2,0.8c0,0.3-0.2,0.5-0.2,0.8
			s0,0.6,0,1c0,0.2,0,0.3,0,0.6l9.1,60l-1.8,1.6l-55-15.4c-0.2,0-0.3,0-0.5-0.2c-0.3,0-0.6-0.2-1.1-0.2c-0.3,0-0.5,0-0.8,0
			s-0.6,0-0.8,0c-0.3,0-0.6,0.2-1,0.2s-0.5,0.2-0.8,0.2c-0.3,0.2-0.6,0.3-1,0.3c-0.2,0-0.3,0.2-0.5,0.2l0,0c-0.3,0.2-0.6,0.5-1,0.6
			c-0.2,0.2-0.3,0.2-0.5,0.3c-0.3,0.2-0.5,0.5-0.6,0.6c-0.2,0.2-0.3,0.3-0.5,0.5c-0.2,0.2-0.2,0.3-0.3,0.5c-0.2,0.3-0.5,0.6-0.6,1
			c0,0.2-0.2,0.3-0.2,0.5c-0.2,0.3-0.3,0.8-0.5,1.1l0,0c0,0.2,0,0.3-0.2,0.5c0,0.3-0.2,0.6-0.2,1c0,0.3,0,0.5,0,0.8s0,0.6,0,0.8
			c0,0.3,0.2,0.6,0.2,0.8c0,0.3,0.2,0.5,0.2,0.8c0.2,0.3,0.3,0.6,0.5,1c0,0.2,0.2,0.3,0.2,0.5l3.1,5.8
			c-66.1,20.2-125.5,61.6-167.2,116.6c-43.2,56.9-66.1,124.7-66.1,196c0,89.3,34.1,171.7,93.6,228c0.2,0.2,0.2,0.3,0.3,0.3
			c1,0.8,1.9,1.8,2.9,2.6c1,0.8,1.9,1.8,2.9,2.6c0.2,0.2,0.3,0.2,0.3,0.3c39.8,34.4,90.2,53.2,143.4,53.2
			c77.5,0,134.1-46.6,175-87.2c87.2-86.7,125.2-86.7,152.8-86.7c25.4,0,58.5,8.7,85.1,31.2c-51.6-16.3-94.1,3.9-96.4,5
			c-0.2,0-0.2,0.2-0.3,0.2c-0.2,0-0.3,0.2-0.5,0.3c-0.5,0.3-0.8,0.5-1.1,0.8c-0.2,0.2-0.3,0.3-0.3,0.3c-0.3,0.3-0.6,0.6-1,1
			c-0.2,0.2-0.3,0.5-0.5,0.6c-0.2,0.3-0.5,0.6-0.6,1c-0.2,0.3-0.3,0.5-0.3,0.8c-0.2,0.3-0.3,0.6-0.3,1c-0.2,0.3-0.2,0.5-0.2,0.8
			c-0.2,0.3-0.2,0.8-0.2,1.1v0.2c0,0.2,0,0.5,0,0.6c0,0.3,0,0.8,0,1.1s0.2,0.6,0.2,1s0.2,0.6,0.2,1c0.2,0.3,0.3,0.8,0.5,1.1
			c0,0.2,0.2,0.3,0.2,0.5c0,0,0,0.2,0.2,0.2c0.2,0.3,0.5,0.6,0.6,1.1c0.2,0.2,0.3,0.5,0.5,0.6c0.3,0.3,0.5,0.6,0.8,0.8
			c0.2,0.2,0.3,0.3,0.5,0.5c0.3,0.3,0.6,0.5,1,0.6c0.2,0.2,0.3,0.3,0.6,0.3c0.3,0.2,0.6,0.3,1.1,0.5c0.3,0.2,0.5,0.2,0.8,0.3
			c0.3,0.2,0.6,0.2,1,0.2c0.3,0,0.6,0.2,1,0.2h0.2c5.7,0.5,19.4,3.6,23.6,9.4c0.8,1.1,1.6,2.7,0.8,6c-2.1,3.6-20.4,5.3-30.1,6.3
			c-23,2.3-48.8,4.9-60.8,22.6c-6.6,10-7.6,23.1-2.6,39c1.3,4.4,5.3,7.1,9.7,7.1c1,0,1.9-0.2,3.1-0.5c5.3-1.6,8.4-7.3,6.8-12.6
			c-3.1-9.9-3.1-17.1,0.2-21.8c6.6-9.9,28.3-12,45.9-13.7c22.3-2.3,43.3-4.4,47.7-21.2c2.3-8.2,0.8-16.2-3.7-22.6
			c-1.8-2.6-4-4.7-6.6-6.6c23-3.4,57.1-1.8,91.2,24.1c0.3,0.3,0.8,0.5,1.1,0.6c0.2,0,0.2,0.2,0.3,0.2c0.5,0.3,1.1,0.5,1.6,0.6
			c0.2,0,0.3,0,0.5,0.2c0.5,0.2,0.8,0.2,1.3,0.3c0.2,0,0.5,0,0.6,0c0.2,0,0.5,0,0.6,0c0.2,0,0.2,0,0.3,0c0.5,0,1,0,1.5-0.2
			c0.2,0,0.5,0,0.6-0.2c0.5-0.2,1-0.3,1.3-0.5c0.3-0.2,0.5-0.2,0.8-0.3h0.2c0.5-0.3,1-0.6,1.3-1c0.2,0,0.2-0.2,0.3-0.2
			c0.6-0.5,1.1-1,1.6-1.6c0,0,0,0,0.2,0c0.2-0.2,0.2-0.3,0.3-0.5c0.3-0.3,0.5-0.6,0.6-1.1c0.2-0.3,0.2-0.5,0.3-0.8
			c0.2-0.3,0.3-0.6,0.3-1c0.2-0.3,0.2-0.6,0.2-1c0-0.3,0.2-0.6,0.2-1c0-0.3,0-0.6,0-1C852.7,751.4,852.7,751.1,852.7,750.8
			L852.7,750.8z"/>
	</g>
</g>
</svg>
