<?xml version="1.0" encoding="UTF-8"?><svg xmlns:inkscape="http://www.inkscape.org/namespaces/inkscape" xmlns:sodipodi="http://sodipodi.sourceforge.net/DTD/sodipodi-0.dtd" xmlns="http://www.w3.org/2000/svg" xmlns:svg="http://www.w3.org/2000/svg" width="100" height="100" viewBox="0 0 100 100" fill="none" version="1.2" baseProfile="tiny-ps"><title>rebuy</title><rect id="rect684" width="100" height="100" x="0" y="1.1667292e-07" fill="#ffffff"></rect><rect width="100" height="100" fill="none" id="rect420" x="0" y="0"></rect><g id="g426" transform="matrix(0.8,0,0,0.80001673,10,9.8744813)"><path d="m 12.2482,45.1613 1.3232,-3.7309 C 12.4068,40.9594 11.1628,40.7188 9.90757,40.7217 7.28298,40.7241 4.76639,41.7727 2.90927,43.6376 1.05216,45.5025 0.00598224,48.0316 0,50.6707 v 9.2737 h 3.93643 v -9.2737 c 0.00229,-1.5893 0.63164,-3.1128 1.74989,-4.236 1.11826,-1.1232 2.63403,-1.7543 4.2146,-1.7548 0.80708,-0.0044 1.60638,0.1595 2.34728,0.4814 z m 65.0641,-3.7041 v 9.3405 c 0,2.6395 -1.0428,5.171 -2.8989,7.0374 -1.8562,1.8664 -4.3737,2.915 -6.9987,2.915 -2.625,0 -5.1425,-1.0486 -6.9986,-2.915 -1.8562,-1.8664 -2.899,-4.3979 -2.899,-7.0374 v -9.3405 h 3.9365 v 9.3405 c 0,1.5906 0.6284,3.1161 1.7469,4.2409 1.1186,1.1247 2.6357,1.7566 4.2175,1.7566 1.5819,0 3.099,-0.6319 4.2176,-1.7566 1.1185,-1.1248 1.7469,-2.6503 1.7469,-4.2409 v -9.3405 z m 18.7646,0 v 9.3405 c 0,1.5906 -0.6284,3.1161 -1.747,4.2409 -1.1186,1.1247 -2.6357,1.7566 -4.2175,1.7566 -1.5819,0 -3.099,-0.6319 -4.2176,-1.7566 -1.1185,-1.1248 -1.7469,-2.6503 -1.7469,-4.2409 v -9.3405 h -3.9365 v 9.3405 c 0.0036,2.6376 1.0471,5.1661 2.9019,7.0311 1.8548,1.865 4.3694,2.9144 6.9924,2.9179 2.1544,0 4.2955,-0.8157 5.9645,-2.2131 v 0.8291 c -0.0033,1.589 -0.633,3.1118 -1.751,4.2348 -1.1181,1.1229 -2.6332,1.7544 -4.2135,1.756 v 3.9582 c 2.6231,-0.0035 5.1377,-1.0529 6.9924,-2.9179 1.8548,-1.865 2.8984,-4.3936 2.9019,-7.0311 V 41.4572 Z m -60.4695,0.3209 c 1.0548,-1.1562 2.3097,-2.11 3.7037,-2.8149 V 31 h -3.9364 v 11.0255 z" fill="#4a4a4a" id="path422"></path><path d="m 45.2828,40.668 c -1.4081,-0.0017 -2.8004,0.298 -4.0844,0.879 -1.284,0.581 -2.4304,1.4301 -3.363,2.4908 l -10.0871,10.865 c -0.7837,0.8152 -1.7812,1.3903 -2.8768,1.6588 -1.0955,0.2685 -2.2443,0.2193 -3.3132,-0.1418 -1.0689,-0.3612 -2.0141,-1.0196 -2.7261,-1.8988 -0.712,-0.8792 -1.1617,-1.9433 -1.2969,-3.069 -0.1352,-1.1257 0.0497,-2.2669 0.5331,-3.2912 0.4834,-1.0244 1.2456,-1.8901 2.1983,-2.4967 0.9527,-0.6066 2.0568,-0.9294 3.1844,-0.9308 1.1276,-0.0015 2.2326,0.3184 3.1868,0.9225 l -4.5149,4.9277 2.8991,2.7347 7.2079,-7.7426 -1.2368,-1.384 c -1.3216,-1.5392 -3.0779,-2.6374 -5.0352,-3.1486 -1.9574,-0.5112 -4.0231,-0.4112 -5.9226,0.2867 -1.8995,0.6979 -3.5427,1.9607 -4.7112,3.6204 -1.1685,1.6597 -1.8069,3.6377 -1.8304,5.6711 -0.0234,2.0333 0.5692,4.0257 1.6991,5.7122 1.13,1.6865 2.7436,2.9872 4.6265,3.7292 1.8829,0.7419 3.9458,0.8901 5.9144,0.4246 1.9686,-0.4654 3.7497,-1.5223 5.1065,-3.0303 0,0 9.8876,-10.6443 9.8943,-10.6443 0.7846,-0.9322 1.8334,-1.6014 3.0064,-1.9182 1.1729,-0.3169 2.4141,-0.2662 3.5576,0.1452 1.1436,0.4113 2.135,1.1638 2.8419,2.1569 0.7069,0.993 1.0956,2.1794 1.1141,3.4004 0.0185,1.2211 -0.334,2.4188 -1.0104,3.4331 -0.6765,1.0143 -1.6446,1.7968 -2.7752,2.2431 -1.1305,0.4462 -2.3695,0.5349 -3.5515,0.2542 -1.182,-0.2807 -2.2507,-0.9174 -3.0632,-1.8251 l -1.6358,-1.7451 -2.7395,2.9353 1.6424,1.745 c 1.1428,1.1902 2.561,2.0771 4.1279,2.5815 1.5669,0.5044 3.2337,0.6106 4.8513,0.3091 1.6177,-0.3015 3.1359,-1.0013 4.419,-2.0369 1.283,-1.0355 2.2909,-2.3746 2.9336,-3.8975 0.6427,-1.5229 0.9001,-3.1822 0.7493,-4.8296 -0.1507,-1.6474 -0.7051,-3.2315 -1.6134,-4.6109 -0.9084,-1.3793 -2.1424,-2.5109 -3.5919,-3.2936 -1.4495,-0.7826 -3.0692,-1.192 -4.7144,-1.1915 z" fill="#4a4a4a" id="path424"></path></g><defs id="defs431"><rect width="100" height="38.311699" fill="#ffffff" transform="translate(0,31)" id="rect428" x="0" y="0"></rect></defs></svg>
