<?xml version="1.0" encoding="UTF-8"?><svg xmlns="http://www.w3.org/2000/svg" xmlns:xlink="http://www.w3.org/1999/xlink" version="1.2" baseProfile="tiny-ps" viewBox="0 0 323 323" xml:space="preserve"><title>Visme</title><path d="M323 0H0V323H323V0Z" fill="#0F1421"></path><path d="M260.884 193.244C261.034 193.244 261.034 193.244 261.184 193.244L308.536 168.567C294.45 159.123 220.276 122.869 191.505 153.639C189.557 155.619 187.609 157.752 185.811 159.884C216.08 164.454 242.603 176.336 260.884 193.244Z" fill="#F05E4E"></path><path d="M238.568 177.25L279.776 154.248C242.614 138.863 221.635 143.433 197.809 158.361C196.311 159.275 194.962 160.189 193.613 161.255C210.246 164.454 225.381 169.938 238.568 177.25Z" fill="#B23232"></path><path d="M149.099 158.208C179.068 156.532 206.94 162.168 229.867 172.831H230.017C230.017 172.831 243.803 161.864 264.032 147.545C284.262 133.378 297.448 123.173 297.448 123.173C286.959 115.861 261.335 109.159 245.301 106.874C197.65 100.019 158.689 123.782 143.105 158.665C145.203 158.512 147.151 158.36 149.099 158.208Z" fill="#6CC294"></path><path d="M149.105 158.211C172.032 156.993 193.759 159.887 212.94 166.132L231.671 105.963C185.818 104.44 146.108 127.289 132.621 158.973C132.472 159.278 132.322 159.582 132.322 159.887C137.716 159.125 143.411 158.516 149.105 158.211Z" fill="#4B9F71"></path><path d="M149.099 158.21C167.231 157.296 184.763 159.276 200.797 162.932L227.17 64.5288C206.641 62.8532 184.613 65.1381 163.035 71.6882C103.545 89.815 68.4807 135.056 78.3707 176.946C98.6002 166.435 122.876 159.733 149.099 158.21Z" fill="#F3DE3C"></path><path d="M149.097 158.205C157.039 157.748 164.831 157.901 172.474 158.358L140.107 80.5186C94.8524 102.149 69.8278 140.688 78.3691 176.941C98.5986 166.431 122.874 159.729 149.097 158.205Z" fill="#CDAF31"></path><path d="M149.104 158.21C152.101 158.057 155.248 158.057 158.245 157.905C155.697 151.66 147.905 133.076 135.618 111.293C120.333 84.4839 110.743 67.4233 110.743 67.4233C88.1159 75.9536 60.5439 90.7293 44.5102 106.876C9.29587 142.52 6.29891 185.933 31.7731 218.226C51.8527 185.324 96.3576 161.104 149.104 158.21Z" fill="#19ABD6"></path><path d="M187.314 203.602L157.944 224.47L168.583 192.634C165.137 191.72 161.69 191.263 157.944 191.263C136.966 191.263 120.033 206.343 120.033 224.775C120.033 243.359 136.966 258.287 157.944 258.287C178.923 258.287 195.856 243.207 195.856 224.775C195.856 216.854 192.559 209.39 187.314 203.602Z" fill="white"></path></svg>