<?xml version="1.0" encoding="utf-8"?>
<!-- Generator: Adobe Illustrator 27.8.0, SVG Export Plug-In . SVG Version: 6.00 Build 0)  -->
<svg version="1.2" baseProfile="tiny-ps" xmlns="http://www.w3.org/2000/svg" xmlns:xlink="http://www.w3.org/1999/xlink" viewBox="0 0 708.7 708.7" xml:space="preserve">
<title>italiainnovation</title>
<g id="Layer_1">
	<rect fill="#181E2C" stroke="#000000" stroke-miterlimit="10" width="708.7" height="708.7"/>
</g>
<g id="Layer_2">
	<g>
		<path fill="#FFFFFF" d="M60.3,310.7h13.1v11.7H60.3V310.7z M60.3,330.1h13.1v49.2H60.3V330.1z"/>
		<path fill="#FFFFFF" d="M77,330.1h6.8v-15.4h12.8v15.4h8.4v8.6h-8.4v26.1c0,3.6,2,4.9,4.9,4.9c1.6,0,3.8-0.1,3.8-0.1v9.6
			c0,0-3,0.2-8.2,0.2c-6.3,0-13.3-2.5-13.3-11.8v-28.9H77V330.1z"/>
		<path fill="#FFFFFF" d="M139.7,373.9h-0.2c-2.5,3.7-6,6.6-14.5,6.6c-10.1,0-17.2-5.3-17.2-15.1c0-10.8,8.8-14.3,19.8-15.8
			c8.2-1.2,11.9-1.8,11.9-5.6c0-3.6-2.8-5.9-8.3-5.9c-6.1,0-9.1,2.2-9.5,6.9h-11.6c0.4-8.6,6.8-16.2,21.2-16.2
			c14.8,0,20.7,6.6,20.7,18.1v25.1c0,3.7,0.6,6,1.7,6.8v0.5h-12.6C140.5,378.4,140,376.1,139.7,373.9z M139.8,362v-7.4
			c-2.3,1.3-5.9,2.1-9.1,2.9c-6.8,1.5-10.2,3.1-10.2,7.7c0,4.6,3.1,6.2,7.7,6.2C135.7,371.4,139.8,366.8,139.8,362z"/>
		<path fill="#FFFFFF" d="M158.7,310.7h13.1v68.6h-13.1V310.7z"/>
		<path fill="#FFFFFF" d="M178.4,310.7h13.1v11.7h-13.1V310.7z M178.4,330.1h13.1v49.2h-13.1V330.1z"/>
		<path fill="#FFFFFF" d="M227.5,373.9h-0.2c-2.5,3.7-6,6.6-14.5,6.6c-10.1,0-17.2-5.3-17.2-15.1c0-10.8,8.8-14.3,19.8-15.8
			c8.2-1.2,11.9-1.8,11.9-5.6c0-3.6-2.8-5.9-8.3-5.9c-6.1,0-9.1,2.2-9.5,6.9h-11.6c0.4-8.6,6.8-16.2,21.2-16.2
			c14.8,0,20.7,6.6,20.7,18.1v25.1c0,3.7,0.6,6,1.7,6.8v0.5H229C228.3,378.4,227.8,376.1,227.5,373.9z M227.6,362v-7.4
			c-2.3,1.3-5.9,2.1-9.1,2.9c-6.8,1.5-10.2,3.1-10.2,7.7c0,4.6,3.1,6.2,7.7,6.2C223.5,371.4,227.6,366.8,227.6,362z"/>
		<path fill="#FFFFFF" d="M246.2,310.7h13.1v11.7h-13.1V310.7z M246.2,330.1h13.1v49.2h-13.1V330.1z"/>
		<path fill="#FFFFFF" d="M278.6,336.9h0.3c3.4-5.3,7.9-8.1,14.6-8.1c10.2,0,17,7.7,17,18.4v32.2h-13.1v-30.2c0-5.3-3.1-9-8.5-9
			c-5.8,0-10,4.6-10,11.3v27.9h-13.1v-49.2h12.8V336.9z"/>
		<path fill="#FFFFFF" d="M329.3,336.9h0.3c3.4-5.3,7.9-8.1,14.6-8.1c10.2,0,17,7.7,17,18.4v32.2h-13.1v-30.2c0-5.3-3.1-9-8.5-9
			c-5.8,0-10,4.6-10,11.3v27.9h-13.1v-49.2h12.8V336.9z"/>
		<path fill="#FFFFFF" d="M365,354.8c0-14.7,10.5-26,25.7-26s25.7,11.3,25.7,26s-10.5,26-25.7,26S365,369.5,365,354.8z M403.2,354.8
			c0-9.6-4.5-16.1-12.5-16.1c-8.1,0-12.5,6.5-12.5,16.1s4.4,16,12.5,16C398.6,370.8,403.2,364.4,403.2,354.8z"/>
		<path fill="#FFFFFF" d="M415.1,330.1h13.2l7.9,25.5c1.4,4.7,2.2,7.9,2.2,7.9h0.2c0,0,0.7-3.2,2.1-7.9l8.1-25.5h13.1l-17.2,49.2
			h-12.5L415.1,330.1z"/>
		<path fill="#FFFFFF" d="M492.3,373.9h-0.2c-2.5,3.7-6,6.6-14.5,6.6c-10.1,0-17.2-5.3-17.2-15.1c0-10.8,8.8-14.3,19.8-15.8
			c8.2-1.2,11.9-1.8,11.9-5.6c0-3.6-2.8-5.9-8.3-5.9c-6.1,0-9.1,2.2-9.5,6.9h-11.6c0.4-8.6,6.8-16.2,21.2-16.2
			c14.8,0,20.7,6.6,20.7,18.1v25.1c0,3.7,0.6,6,1.7,6.8v0.5h-12.6C493.1,378.4,492.6,376.1,492.3,373.9z M492.4,362v-7.4
			c-2.3,1.3-5.9,2.1-9.1,2.9c-6.8,1.5-10.2,3.1-10.2,7.7c0,4.6,3.1,6.2,7.7,6.2C488.3,371.4,492.4,366.8,492.4,362z"/>
		<path fill="#FFFFFF" d="M507.2,330.1h6.8v-15.4h12.8v15.4h8.4v8.6h-8.4v26.1c0,3.6,2,4.9,4.9,4.9c1.6,0,3.8-0.1,3.8-0.1v9.6
			c0,0-3,0.2-8.2,0.2c-6.3,0-13.3-2.5-13.3-11.8v-28.9h-6.8V330.1z"/>
		<path fill="#FFFFFF" d="M540.1,310.7h13.1v11.7h-13.1V310.7z M540.1,330.1h13.1v49.2h-13.1V330.1z"/>
		<path fill="#FFFFFF" d="M557.2,354.8c0-14.7,10.5-26,25.7-26s25.7,11.3,25.7,26s-10.5,26-25.7,26S557.2,369.5,557.2,354.8z
			 M595.4,354.8c0-9.6-4.5-16.1-12.5-16.1c-8.1,0-12.5,6.5-12.5,16.1s4.4,16,12.5,16C590.9,370.8,595.4,364.4,595.4,354.8z"/>
		<path fill="#FFFFFF" d="M625.6,336.9h0.3c3.4-5.3,7.9-8.1,14.6-8.1c10.2,0,17,7.7,17,18.4v32.2h-13.1v-30.2c0-5.3-3.1-9-8.5-9
			c-5.8,0-10,4.6-10,11.3v27.9h-13.1v-49.2h12.8V336.9z"/>
	</g>
</g>
</svg>
