<?xml version="1.0" encoding="UTF-8" standalone="no"?>
<svg
  id="Group_827"
  width="99.777214"
  height="97.91317"
  viewBox="0 0 99.777214 97.91317"
  baseProfile="tiny-ps"
  version="1.2"
  xmlns="http://www.w3.org/2000/svg"
  xmlns:svg="http://www.w3.org/2000/svg">
  <title>Kudelski Security</title>
  <rect
     width="99.909828"
     fill="#ffffff"
     height="97.981194"
     x="-0.049912803"
     y="-0.0073094633" />
  <g
     id="g1"
     transform="matrix(2.464749,0,0,2.464749,1.2279415,1.2049938)">
    <path
       id="Path_229"
       d="m 19.742145,38.747628 a 20.029,20.029 0 0 1 -12.7999999,-4.62 l -0.034,-0.031 a 2.179,2.179 0 0 1 -0.656,-1.578 3.508,3.508 0 0 1 1.1,-2.393 l 10.0939999,-10.01 a 3.276,3.276 0 0 1 4.594,0 l 10.094,10.01 c 1.329,1.318 1.5,2.833 0.455,3.957 l -0.047,0.045 a 20.033,20.033 0 0 1 -12.8,4.62"
       fill="#67737a" />
    <path
       id="Path_230"
       d="m 35.856145,28.155628 a 3.107,3.107 0 0 1 -2.287,-1.146 l -9.049,-8.948 a 6.747,6.747 0 0 0 -9.554,0 l -9.0619999,8.96 a 3.57,3.57 0 0 1 -2.373,1.134 2.3,2.3 0 0 1 -2.074,-1.384 l -0.019,-0.04 a 18.531,18.531 0 0 1 -1.43800001923,-7.231 19.744,19.744 0 0 1 39.48499991923,0 18.54,18.54 0 0 1 -1.437,7.231 l -0.018,0.04 a 2.436,2.436 0 0 1 -2.173,1.384"
       fill="#003a63" />
  </g>
</svg>

