<?xml version="1.0" encoding="utf-8"?>
<!-- Generator: Adobe Illustrator 27.2.0, SVG Export Plug-In . SVG Version: 6.00 Build 0)  -->
<svg version="1.2" baseProfile="tiny-ps" id="Livello_1"
	 xmlns="http://www.w3.org/2000/svg" xmlns:xlink="http://www.w3.org/1999/xlink" viewBox="0 0 98 98"
	 xml:space="preserve">
<title>Facile.it</title>
<path fill="#FF6600" d="M97.5,0H0v97.5h97.5V0z"/>
<path fill="#FFFFFF" d="M74.2,51.7V40.5c0-11.6-9.4-21-21-21H40.8c-11.6,0-20.9,9.4-20.9,20.9V53c0,11.6,9.4,21,20.9,21h40.8
	C81.7,74,74.2,71.8,74.2,51.7z M39.3,64.6c-3.5,0-6.4-1.7-8.3-4.4c-1.2-1.7-1.8-3.6-1.8-5.8V39.1c0-3.5,1.7-6.5,4.4-8.3
	c1.7-1.2,3.6-1.8,5.7-1.8h15.5c3.5,0,6.5,1.7,8.3,4.4c1.2,1.7,1.8,3.6,1.8,5.8v13.8c0,4.3,0.2,8.2,0.7,11.8L39.3,64.6L39.3,64.6z"/>
<path fill="#FFFFFF" d="M37.4,45.1l-2.2,4.8c7.6,3.6,16.5,3.6,24.1,0L57,45.1C50.8,48,43.6,48,37.4,45.1L37.4,45.1z"/>
</svg>
