<?xml version="1.0" encoding="utf-8"?>
<!-- Generator: Adobe Illustrator 28.3.0, SVG Export Plug-In . SVG Version: 6.00 Build 0)  -->
<svg version="1.2" baseProfile="tiny-ps" id="Layer_1" xmlns="http://www.w3.org/2000/svg" xmlns:xlink="http://www.w3.org/1999/xlink"
	  viewBox="0 0 1000 1000"  xml:space="preserve">
<title>BateWorld</title>
<rect y="0" fill="#F15C27" width="1000" height="1000"/>
<g id="LenIvh.tif_1_">
	<g>
		<path fill="#FFFFFF" d="M425.58,405.9c0,84.82-0.01,169.64,0.02,254.46c0,4.98,0.28,9.96,0.46,14.94
			c0.02,0.66,0.21,1.31,0.31,1.96c0.17,1.09,0.43,2.17,0.48,3.26c0.13,2.77,0.3,5.52,1.06,8.21c0.09,0.32,0.16,0.65,0.19,0.98
			c0.36,4.42,1.46,8.69,2.48,12.99c1.23,5.17,2.92,10.17,4.92,15.06c2.61,6.35,5.74,12.44,9.59,18.16
			c3.79,5.62,8.12,10.79,12.94,15.53c5.46,5.37,11.39,10.2,17.98,14.13c3.9,2.32,8.07,4.12,12.27,5.84
			c4.71,1.94,9.57,3.41,14.45,4.79c2.75,0.78,5.62,1.16,8.44,1.7c3.36,0.65,6.71,1.4,10.09,1.89c2.62,0.38,5.29,0.47,7.94,0.64
			c3.08,0.2,6.21-0.45,9.22,0.7c0.38,0.14,0.91,0.08,1.3-0.07c2.25-0.87,4.6-0.63,6.91-0.61c5.14,0.06,10.08-1,15.04-2.24
			c5.6-1.41,10.91-3.55,16.23-5.7c1.84-0.75,3.64-1.63,5.39-2.57c6.15-3.3,11.99-7.09,17.57-11.29c4.88-3.68,9.29-7.87,13.47-12.3
			c2.96-3.14,5.53-6.61,8.12-10.06c4.41-5.88,7.62-12.44,10.78-19.02c1.86-3.89,3.2-8,4.4-12.15c0.77-2.65,1.63-5.29,2.13-8
			c0.78-4.24,1.4-8.51,1.89-12.79c0.26-2.29-0.13-4.66,0.82-6.88c-0.04-3.64,0.49-7.3-0.41-10.92c-0.24-0.96-0.34-1.97-0.33-2.96
			c0.05-5.47-1.16-10.75-2.28-16.05c-0.53-2.49-1.06-4.98-1.77-7.42c-0.78-2.64-1.63-5.27-2.69-7.81c-2.39-5.72-5.04-11.32-8.3-16.6
			c-2.85-4.62-6.15-8.89-9.71-13.01c-4.02-4.65-8.57-8.62-13.54-12.18c-5.78-4.14-12.01-7.56-18.53-10.3
			c-5.59-2.35-11.37-4.38-17.36-5.63c-1.73-0.36-3.43-0.86-5.15-1.27c-2.9-0.69-5.8-1.38-8.7-2.04c-0.64-0.15-1.31-0.18-1.97-0.26
			c-2.52-0.28-5.03-0.42-7.54-1.05c-2.22-0.56-4.63-0.33-6.94-0.52c-1.31-0.11-2.61-0.36-3.92-0.52c-0.98-0.12-1.97-0.27-2.96-0.29
			c-2.33-0.04-4.66-0.06-6.98,0c-7.39,0.18-14.5-1.18-21.46-3.64c-6.65-2.35-12.8-5.64-18.19-10.11
			c-8.11-6.73-14.54-14.87-18.54-24.71c-1.45-3.58-2.54-7.3-3.42-11.1c-1.48-6.36-1.22-12.76-1.02-19.16
			c0.25-7.85,2.65-15.18,6.02-22.25c3.29-6.89,7.58-13.02,13.13-18.22c3.31-3.1,6.91-5.82,10.8-8.24c4.95-3.07,10.3-5.14,15.77-6.78
			c3.66-1.1,7.47-2.06,11.42-1.88c2.2,0.1,4.37-0.1,6.58-0.59c2.12-0.48,4.41-0.21,6.62-0.23c1.99-0.02,3.97-0.09,5.91,0.62
			c0.8,0.29,1.75,0.2,2.63,0.21c1.88,0.03,3.77-0.02,5.65,0.02c5.65,0.13,11.3,0.29,16.95,0.43c0.22,0.01,0.45-0.01,0.66,0.04
			c4.68,1.15,9.46,0.84,14.2,1.08c0.55,0.03,1.14,0,1.64,0.2c1.9,0.75,3.9,0.71,5.88,0.89c2.4,0.22,4.86,0.01,7.18,1.05
			c0.86,0.39,1.97,0.19,2.96,0.29c1.86,0.18,3.75,0.02,5.53,0.9c0.74,0.37,1.74,0.2,2.62,0.31c1.52,0.2,3.12,0.05,4.52,0.9
			c0.27,0.16,0.64,0.22,0.96,0.23c3.47,0.03,6.74,1.21,10.14,1.68c1.96,0.27,3.88,0.87,5.81,1.35c4.72,1.18,9.48,2.21,14.13,3.62
			c5.7,1.73,11.42,3.4,16.95,5.67c2.33,0.96,4.74,1.76,7.1,2.7c5.45,2.18,10.71,4.75,15.97,7.34c4.57,2.25,9.03,4.7,13.39,7.32
			c8.64,5.2,16.86,10.98,24.54,17.55c4.63,3.95,9.22,7.94,13.45,12.31c3.15,3.26,6.11,6.7,9.08,10.13c2.6,3.01,5.23,6.01,7.61,9.19
			c2.85,3.81,5.55,7.73,8.13,11.73c4.2,6.51,8.11,13.21,11.3,20.29c1.73,3.83,3.33,7.72,4.95,11.59c1.07,2.55,2.12,5.1,3.13,7.67
			c0.6,1.53,1.19,3.08,1.66,4.66c1.39,4.65,2.66,9.34,4.08,13.98c1.04,3.38,1.67,6.86,2.58,10.26c0.77,2.88,0.7,5.96,2.09,8.68
			c0.04,3.9,1.76,7.55,1.66,11.47c-0.01,0.55-0.05,1.17,0.17,1.64c1.14,2.4,0.88,4.99,1.08,7.5c0.11,1.44,0.08,2.87,0.76,4.21
			c0.24,0.47,0.26,1.07,0.28,1.62c0.11,2.21,0.22,4.43,0.27,6.64c0.06,2.65-0.13,5.31,0.69,7.91c0.29,0.92,0.17,1.98,0.17,2.97
			c0.01,8.09,0,16.19,0.01,24.28c0,1.44-0.02,2.86-0.54,4.26c-0.26,0.7-0.28,1.52-0.31,2.29c-0.11,2.77-0.21,5.54-0.26,8.3
			c-0.03,1.67-0.28,3.24-0.71,4.88c-0.53,2-0.45,4.17-0.57,6.26c-0.07,1.22-0.02,2.44-0.65,3.55c-0.16,0.28-0.27,0.63-0.27,0.95
			c0.08,3.58-1.41,6.91-1.65,10.45c-0.05,0.75-0.34,1.5-0.53,2.24c-0.14,0.53-0.37,1.05-0.46,1.59c-0.84,5.03-2.11,9.93-3.77,14.76
			c-0.86,2.51-1.37,5.14-2.25,7.64c-1.88,5.31-3.85,10.58-6.36,15.64c-2.02,4.06-3.74,8.27-5.87,12.28
			c-2.85,5.37-5.86,10.66-8.98,15.88c-4.26,7.13-8.95,13.96-14.02,20.55c-4.52,5.88-9.13,11.67-14.39,16.92
			c-1.71,1.71-3.01,3.87-4.82,5.45c-5.09,4.43-9.74,9.36-15.12,13.47c-4.31,3.29-8.54,6.69-12.86,9.97
			c-1.94,1.47-3.97,2.83-6.03,4.12c-8.15,5.13-16.41,10.03-25.13,14.18c-6.89,3.28-13.83,6.43-21.05,8.94
			c-6.06,2.1-12.16,4.1-18.26,6.08c-3.67,1.19-7.43,2.06-11.19,2.94c-3.87,0.91-7.75,1.74-11.61,2.67c-2.27,0.54-4.6,0.63-6.81,1.23
			c-2.27,0.61-4.55,0.85-6.85,1.17c-4.05,0.57-8.06,1.34-12.1,1.96c-1.53,0.23-3.09,0.25-4.63,0.39c-8.47,0.81-16.94,1.6-25.48,1.51
			c-12.86-0.13-25.72,0-38.58-0.06c-3.98-0.02-8.01,0-11.94-0.56c-4.06-0.58-8.2-0.53-12.18-1.31c-3.8-0.75-7.76-0.46-11.44-1.84
			c-0.1-0.04-0.22-0.06-0.33-0.06c-3.8,0.09-7.39-1.25-11.12-1.68c-3.05-0.35-6.05-1.24-9.06-1.93c-2.58-0.59-5.17-1.18-7.73-1.87
			c-4.9-1.33-9.8-2.66-14.66-4.12c-3.06-0.92-6-2.23-9.08-3.07c-2.69-0.73-5.19-1.88-7.78-2.84c-9.56-3.55-18.65-8.16-27.65-12.89
			c-4.98-2.62-9.82-5.54-14.49-8.73c-4.94-3.37-9.95-6.63-14.58-10.42c-4.11-3.36-8.32-6.6-12.11-10.35c-2.83-2.8-5.84-5.42-8.7-8.2
			c-3.65-3.56-7.02-7.38-10.22-11.34c-3.33-4.13-6.73-8.21-9.95-12.43c-4.3-5.63-8.15-11.58-11.88-17.6
			c-5.31-8.59-9.81-17.6-14.21-26.67c-2.71-5.58-5.08-11.33-6.71-17.31c-1.19-4.35-2.41-8.69-3.31-13.13
			c-0.92-4.55-1.94-9.06-2.53-13.68c-0.42-3.27-1.28-6.49-1.86-9.74c-0.25-1.41-0.21-2.87-0.41-4.29c-0.65-4.71-1.46-9.39-1.5-14.16
			c-0.01-0.65-0.24-1.3-0.36-1.95c-0.14-0.76-0.38-1.51-0.41-2.27c-0.12-3.1-0.2-6.2-0.27-9.3c-0.04-1.88,0.12-3.77-0.8-5.54
			c-0.24-0.46-0.21-1.08-0.22-1.63c-0.1-3.77-0.26-7.53-0.26-11.3c-0.01-101.67-0.01-203.35-0.02-305.02c0-1.33-0.03-2.66-0.12-3.99
			c-0.09-1.24-0.8-2.06-1.99-2.38c-0.85-0.23-1.75-0.49-2.6-0.43c-3.51,0.26-6.82-0.78-10.13-1.56c-5.96-1.41-11.49-3.94-16.66-7.23
			c-4.99-3.18-9.3-7.11-12.9-11.83c-1.34-1.76-2.69-3.49-3.97-5.29c-3.18-4.49-5.18-9.52-6.97-14.63
			c-3.05-8.73-3.68-17.76-2.4-26.87c0.96-6.85,3.35-13.22,7.29-19.03c7.21-10.63,14.23-21.4,21.36-32.09
			c9.71-14.56,19.47-29.09,29.18-43.65c7.13-10.69,14.21-21.42,21.33-32.11c8.05-12.07,16.13-24.13,24.19-36.19
			c1.29-1.93,2.53-3.91,3.87-5.81c2.44-3.44,5.37-6.42,8.4-9.34c2.49-2.4,5.2-4.45,8.04-6.39c3.58-2.46,7.52-4.23,11.45-5.99
			c3.44-1.54,7.15-2.14,10.8-3.02c5.52-1.34,11.02-0.56,16.53-0.83c0.33-0.02,0.68-0.02,0.99,0.05c3.75,0.92,7.62,1.52,11.21,2.86
			c4.96,1.85,9.83,4.09,14.09,7.31c5.24,3.95,9.85,8.56,13.71,13.9c3.34,4.62,5.56,9.81,7.67,15.04c1.2,2.97,1.76,6.15,2.47,9.27
			c1.11,4.81,0.97,9.67,0.97,14.54C425.58,238.26,425.58,322.08,425.58,405.9z"/>
	</g>
</g>
</svg>
