<?xml version="1.0" encoding="UTF-8" standalone="yes"?><svg xmlns="http://www.w3.org/2000/svg" xmlns:xlink="http://www.w3.org/1999/xlink" baseProfile="tiny-ps" version="1.2" viewBox="0 0 80 80"><title>fiera-bimi5</title><defs><linearGradient id="linear-gradient" x1=".5" y1="1.8" x2="80.7" y2="79.5" gradientUnits="userSpaceOnUse"><stop offset="0" stop-color="#d37fff"></stop><stop offset=".3" stop-color="#db94ea"></stop><stop offset="1" stop-color="#f3cfb3"></stop></linearGradient></defs><rect x="-.8" y="-.7" width="81.7" height="81.7" fill="url(#linear-gradient)" stroke-width="0"></rect><g><g id="_4DYSXP"><path d="M46.8,44.6c2.6-2.4,5.7-4.1,8.8-5.5.2,0,.4-.4.7-.2.3,0,.5.2.8.1.2,0,.8.8,1,1,.4.3,1,.3,1.4.6.3.2-.1.5,0,.8-.7,1.6-1.6,3-2.3,4.5,0,0,0,0,0,0,5.5-2.3,11.2-6.3,17.1-6.3-.3.3-.6.5-1,.6v.3c-1,.5-2,1-3,1.5.6.2,1.6-.7,2-.7-.7.8-2.1.8-3,1.4-1.6.7-3.1,1.3-4.6,2.1-2.8.8-7.9,5.7-9.9,2.1-3.8,1.7-5-.5-2.6-3.7-1.7.8-3,2.5-4.6,3.4-.4.2-1.1.6-1.5.2,0-.1-.2-.2-.4-.2-2.2-1,0-4.2.9-5.5-.3,0-.6-.3-.8,0-1,.7-2.1,1.4-3,2.2-1.9,1.7-4.3,2.7-6.8,3.5-1.5.5-3.2.6-4.6,0-4.7,1.9-6.3-.6-4-4.9-1.4.8-3,1.3-4.3,2.3.1,0,.2,0,.4.1-1.3.4-4,1.9-2.7-.8,1.5-1.3,3.7-2,5.4-3.2,1-.4,1.9-1.5,3-1.6.5,0,1,0,1.5.4.5.1.1.7.1,1.1-1,0-1,1.3-1.5,1.9-.3.9-2.3,3.8-.8,4.1.8-.2,1.8-.4,2.3-1,0-.7.3-1.3.7-1.8,1.6-2.6,4.4-4.3,6.9-6,.1,0,.3,0,.4.1.1,0,.2-.2.3,0,.3.2.7.5,1.1.6.4,0,.4.3.6.4.4,0,.6.3.2.5.3.9-.7,1.2-1.1,1.8-1.4,1.6-3.2,2.8-4.9,4-2.4,1.6,2,0,2.7-.4,2.7-1.2,5.2-3.3,7.2-5.4.4-1.2,1.7-.5,2.6-.5.5,0,1.4-.3,1.7.1.2.4.5.8.5,1.3-.4,1.8-2,2.9-2.6,4.7,0,0,0,0,0,0ZM56.7,41.2c-1.5,1.3-3,2.7-3.8,4.5,1.5-1.2,3.2-2.7,3.8-4.5ZM37.9,39.7s0,0,0,0c-1.8.9-3.4,2.3-4.7,3.8,1.7-1.1,3.4-2.3,4.8-3.8Z" fill="#46295a" stroke-width="0"></path><path d="M16.4,38.8c1.8-.2,6.8-2.8,7.9-1.6.3.7,2.1,2.1.5,2.3-1.6,0-3.1.7-4.7.9-1.9.2-3.8.7-5.5,1.6-.8,1.4-1.3,3.1-2.1,4.6-.8,1.3-1.5,2.8-2.2,4.2-.1.2-.3.2-.4.4-.4.5-1.3.6-1.9.3-1.1-.7,2.5-6.1,2.9-7.5,0-.4.8-1,.4-1.3-.2-.1-.4-.4-.6-.5,0-.3-.1-.8.2-.9,0,0,0-.1.1-.2.6-.3,1.5-.2,1.7-.9.6-1.2,1.1-2.4,1.7-3.5-1-.3-3,.2-2.9-1.4,1.1-1.6,3.4-1.8,5-2.5.7-1.3,1.5-2.6,2.2-3.9.1-.3.4-.1.6-.1.2,0,.4,0,.5,0,.6.8.9,1.9.4,2.8,2.7-.2,5.4-1.3,8-1.6.7-.1.6.7.6,1.2.1.4.3,1.3-.3,1.4-.6,0-.9.6-1.5.7-.4.2-.8.5-1.2.5-.3.1-.5.4-.9.3-.3.1-.5.5-.9.4-.1,0-.2,0-.3.1-.5.2-1.4.6-1.9.7-1.4.4-2.8.8-4.1,1.4-.4.7-1,1.5-1.1,2.2Z" fill="#46295a" stroke-width="0"></path></g><path d="M32.9,36c-.3-.4-.6-.7-1-.6,0,0-.2,0-.2,0-.9.2-1.5,1.1-1.9,1.9-.1.3.3.4.4.6.1.2.4.1.6.2.4.2,1-.3,1.2-.6.5-.3.8-.9,1-1.4Z" fill="#46295a" stroke-width="0"></path><path d="M38.1,33c.3.5,1,.5,1.2,1.1,0,0,0,0-.1,0,.3.3.3.7.6,1,0,.4.2,1.4.8,1.3.5-.5,1.5-.4,1.7-1.1-.6-1.5-2.7-2.4-4.2-2.3Z" fill="#46295a" stroke-width="0"></path></g></svg>