<?xml version="1.0" encoding="utf-8"?>
<!-- Generator: Adobe Illustrator 25.1.0, SVG Export Plug-In . SVG Version: 6.00 Build 0)  -->
<svg version="1.2" baseProfile="tiny-ps" id="Layer_1" xmlns="http://www.w3.org/2000/svg" xmlns:xlink="http://www.w3.org/1999/xlink"
	 viewBox="0 0 500 500" xml:space="preserve">
<title>CITGO Petroleum Corporation</title>
<g>
	<g>
		<path fill="#FFFFFF" stroke="#000000" stroke-width="9.1004" d="M251.7,230.2"/>
	</g>
	<polygon fill="#E21F26" points="98.8,312.9 395,312.9 247.6,225.6 	"/>
	<path fill="#005DA9" d="M162.5,383.3V401c-3.6,2-18.9,9.1-38.4,2.7c-11.1-3.6-16.4-14.3-17.5-19.1c-1.1-4.8-8-44.4,28.4-48
		c9.3-0.9,23.2,0,27.5,3.9V358c-2.5-1.6-13.4-7.5-27.1-4.1c-13.7,3.4-14.8,28.4-3,33.4C144.3,392.4,161.1,386.2,162.5,383.3z"/>
	<g>
		<rect x="171.8" y="337.5" fill="#005DA9" width="19.1" height="67.1"/>
		<path fill="#005DA9" d="M181.4,371.1"/>
	</g>
	<polygon fill="#005DA9" points="197.1,337.5 197.1,353.7 215.3,353.7 215.3,404.9 234.4,404.9 234.4,353.9 251.9,353.9 
		251.9,337.5 	"/>
	<path fill="#005DA9" d="M311.6,340.7c-2.3-1.8-18-6.6-37.1-3c-17.2,3.3-19.4,22.4-19.8,24.1c-1.1,4.6-5.2,38.2,18.9,42.5
		c26.5,4.8,44.4-0.7,44.4-22.3v-17.1h-30.7v14.3h13.9c0,5.7-1.1,10.5-6.8,11.1c-5.7,0.7-23.2,3-22.5-16.2
		c0.6-15.8,1.9-24.1,24.3-21.6c8.2,0.9,15.2,3.2,15.2,3.2L311.6,340.7z"/>
	<path fill="#005DA9" d="M356.8,336.1c24.5,0,33.6,10.4,33.6,34.4c0,24.1-8.8,34.7-32.7,34.9c-23.8,0.2-33.3-9.3-33.6-33.5
		C323.9,346.3,332.3,336.1,356.8,336.1z M340.7,371c0.1,12.9,4.7,18,16.3,17.9c11.6-0.1,15.9-5.8,15.9-18.6
		c0-12.8-4.4-18.3-16.3-18.3C344.6,352,340.5,357.4,340.7,371z"/>
	<polygon fill="#B7292F" points="395,312.9 247.6,62.7 247.6,225.6 	"/>
	<polygon fill="#F48120" points="98.8,312.9 247.6,62.7 247.6,225.6 	"/>
	<g>
		<path fill="#005DA9" d="M389.3,399.1c0-3.3,2.7-5.7,5.8-5.7c3.1,0,5.8,2.4,5.8,5.7c0,3.3-2.7,5.8-5.8,5.8
			C392,404.8,389.3,402.4,389.3,399.1z M395.2,403.9c2.6,0,4.6-2,4.6-4.8c0-2.7-2-4.8-4.6-4.8c-2.6,0-4.7,2.1-4.7,4.8
			C390.5,401.8,392.5,403.9,395.2,403.9z M394,402.4h-1v-6.6h2.5c1.6,0,2.3,0.6,2.3,1.9c0,1.2-0.7,1.7-1.7,1.8l1.9,2.9h-1.1
			l-1.7-2.9H394V402.4z M395.2,398.7c0.8,0,1.6-0.1,1.6-1.1c0-0.8-0.7-1-1.4-1H394v2H395.2z"/>
	</g>
</g>
</svg>
