<?xml version="1.0" encoding="utf-8"?>
<!-- Generator: Adobe Illustrator 28.2.0, SVG Export Plug-In . SVG Version: 6.00 Build 0)  -->
<svg version="1.2" baseProfile="tiny-ps" id="Layer_1" xmlns="http://www.w3.org/2000/svg" xmlns:xlink="http://www.w3.org/1999/xlink"
	 viewBox="0 0 150 150" xml:space="preserve">
<title>Snowbird</title>
<g>
	<path fill="#61A60E" d="M106.3,42.3c-6,0.1-12.9,2.1-17.8,6.4c-2.4,2.1-4.6,4.4-6,7c-2.7,4.6-3.6,9.8-3.6,12.9v39.1
		c0,0,0,0.1,0.1,0c0,0,0.1-0.1,0.1-0.1l60.1-65.1l-0.2-0.2L106.3,42.3z"/>
	<path fill="#0082CA" d="M63.2,50.3c-0.6-0.6-1.2-1.1-1.8-1.6c-4.9-4.3-11.8-6.3-17.8-6.4l-32.8,0l0,0.2l60.1,65.2l0.1,0V68.6
		c0-3.1-0.9-8.3-3.6-12.9C66.4,53.8,64.9,52,63.2,50.3"/>
</g>
</svg>
