<svg version="1.2" baseProfile="tiny-ps" xmlns="http://www.w3.org/2000/svg" width="1082.4" height="1082.4"><title>Quelli della Pizza</title><circle fill="none" stroke="#000" stroke-width="13.2" stroke-miterlimit="10" cx="541.2" cy="541.2" r="474"/><path d="M425 905.6c0 .4.4.7.8 1l1.7.7 2.7.8 3.3 1a8 8 0 0 1 2.3 1.4 5.4 5.4 0 0 1 1.9 4.4 6.3 6.3 0 0 1-2.3 5.1c-.7.7-1.6 1.1-2.6 1.4-1 .3-2.1.5-3.4.5-1.8 0-3.5-.3-5.1-1a14 14 0 0 1-4.5-2.7l2.4-3c1.1 1 2.3 1.8 3.4 2.3 1.2.5 2.5.8 4 .8a5 5 0 0 0 3-.8c.7-.5 1-1.3 1-2.2 0-.4 0-.8-.2-1.1-.1-.3-.4-.6-.8-1l-1.6-.7a27 27 0 0 0-2.6-.7 28 28 0 0 1-3.3-1c-1-.4-1.8-.8-2.4-1.3a5.3 5.3 0 0 1-1.5-2c-.4-.7-.5-1.6-.5-2.7a6.3 6.3 0 0 1 2.2-5c.7-.5 1.5-1 2.5-1.3s2-.5 3.1-.5a13.3 13.3 0 0 1 8.5 3l-2.2 3c-1-.7-2.1-1.3-3.2-1.7-1-.4-2-.7-3.1-.7-1.2 0-2.1.3-2.8.9-.7.5-1 1.2-1 2 0 .4 0 .8.2 1.1zM451.4 898.4v23.2h-4v-23.2h4zM478.4 898.4h4v23.2h-3.3L466.3 905v16.5h-4v-23.2h3.7l12.4 16v-16zM511.4 919.5a12.3 12.3 0 0 1-4.6 2.2c-.9.2-1.9.3-3 .3a11.8 11.8 0 0 1-8.4-3.5 12.3 12.3 0 0 1-3.4-8.5 12.4 12.4 0 0 1 3.4-8.5 11.6 11.6 0 0 1 8.6-3.5 14.6 14.6 0 0 1 5.3 1 11.4 11.4 0 0 1 3.8 2.6l-2.6 3c-1-.9-2-1.6-3-2-1-.6-2.2-.9-3.5-.9a7.3 7.3 0 0 0-5.5 2.4 8 8 0 0 0-1.6 2.6 9.2 9.2 0 0 0 0 6.4 7.5 7.5 0 0 0 7 5c1.5.1 2.7-.2 3.7-.7 1-.5 2-1.3 3-2.2l2.6 2.6a15 15 0 0 1-1.8 1.8zM539.3 902h-13.1v6h11.6v3.7h-11.6v6.2h13.3v3.7h-17.3v-23.2h17.1v3.6zM568 902.6c-.8.5-1.7 1.4-2.6 2.6l-2.9-2.3 1.7-2a9 9 0 0 1 4.1-2.5 10.4 10.4 0 0 1 6 .1c.9.4 1.7.8 2.3 1.5.7.6 1.2 1.3 1.6 2.2.3.8.5 1.8.5 2.8 0 1 0 1.7-.3 2.5-.3.7-.6 1.4-1.1 2.1a61.9 61.9 0 0 1-4.6 4.4l-4.8 4h11v3.6h-16.7v-3.3l8-6.7a34 34 0 0 0 3.3-3.4l.8-1.4.2-1.5c0-1.1-.3-2-1-2.6-.8-.7-1.7-1-2.7-1-1 0-2 .3-2.8.9zM606.9 914.6c-.5 1.5-1.2 2.8-2 3.8-1 1.1-2 2-3.3 2.6a9.1 9.1 0 0 1-11.5-2.5c-.8-1.1-1.5-2.4-2-3.8a15 15 0 0 1 2-13.2c1-1.1 2-2 3.3-2.6a9 9 0 0 1 4.1-1 9.1 9.1 0 0 1 7.4 3.5c.8 1.1 1.5 2.4 2 3.9a15 15 0 0 1 0 9.3zm-4-7.9c-.2-1-.6-1.9-1.1-2.6a6.1 6.1 0 0 0-1.9-1.8 4.6 4.6 0 0 0-4.9 0 6 6 0 0 0-1.8 1.7c-.5.8-.9 1.7-1.2 2.7a12.3 12.3 0 0 0 1.2 9.1c.5.8 1.2 1.4 1.9 1.8a5 5 0 0 0 6.7-1.7c.5-.8 1-1.7 1.2-2.7a12.1 12.1 0 0 0 0-6.5zM635.5 914.6a12 12 0 0 1-2 3.8 9.1 9.1 0 0 1-7.4 3.5 9.1 9.1 0 0 1-7.3-3.4c-1-1.1-1.6-2.4-2-3.8a15 15 0 0 1 2-13.2 9.1 9.1 0 0 1 7.4-3.5 9.1 9.1 0 0 1 7.3 3.4c.9 1.1 1.5 2.4 2 3.9a15 15 0 0 1 0 9.3zm-3.9-7.9c-.3-1-.7-1.9-1.2-2.6s-1.1-1.3-1.9-1.8a4.6 4.6 0 0 0-4.9 0c-.7.4-1.3 1-1.8 1.7-.5.8-.9 1.7-1.2 2.7a12.3 12.3 0 0 0 1.2 9.1c.6.8 1.2 1.4 2 1.8s1.5.7 2.4.7c.9 0 1.7-.2 2.4-.7a7 7 0 0 0 3-4.4 12.1 12.1 0 0 0 0-6.5zM662 914.4c-.5 1.6-1.2 3-2 4a9 9 0 0 1-7.3 3.6c-1.7 0-3-.3-4.2-.8a14 14 0 0 1-3.3-2l2.3-3.1c.8.7 1.7 1.3 2.5 1.6.9.4 1.8.6 2.8.6a5 5 0 0 0 4-2 12.2 12.2 0 0 0 1.6-5.3 6.8 6.8 0 0 1-5.5 2.4c-1.2 0-2.3-.2-3.3-.5s-1.9-.8-2.6-1.5a6.9 6.9 0 0 1-2.3-5.4 8 8 0 0 1 2.4-5.7c.8-.7 1.7-1.3 2.7-1.7 1.1-.4 2.3-.6 3.6-.6a8.2 8.2 0 0 1 6.4 2.5c.8.8 1.5 1.9 2 3.3s.8 3.2.8 5.5c0 1.9-.2 3.6-.7 5.1zm-4.1-10.3l-1-1.4c-.4-.4-1-.7-1.5-.9-.6-.2-1.3-.3-2-.3-1.5 0-2.6.4-3.4 1.2-.8.9-1.2 2-1.2 3.1 0 1.3.4 2.3 1.2 3a5 5 0 0 0 3.5 1.2c.7 0 1.4-.1 2-.3l1.5-1c.4-.3.7-.8 1-1.3l.2-1.6c0-.6 0-1.2-.3-1.7z"/><g><path d="M602.1 382.5a2 2 0 0 0-.2-.3 4 4 0 0 0-1-.6l-1.7-.7c-1-.4-2-.6-3.1-.9l-1.5-.3a20.6 20.6 0 0 1-2.8-.9 10.6 10.6 0 0 0-2.7-.4l-1.2.2c-.6 0-1.2.2-1.7.3h.3l-1.5.2-2.1.4-.5.2-1.5.3-1.8.4a11 11 0 0 0-3.3 1.2 34 34 0 0 0-5.7 4.4c-.4.4-.7 1-1 1.5l-.6 1.2-1.9 2.7a8.7 8.7 0 0 0-1.3 3.7l-.3 1.6c-.8 3.6.2 9.7 4.4 10.9 4.3 1.1 8.3-3.6 10.9-6.3l.2-.6 1-.9 1.1-1.2 1.2-1.2 1.2-1.2 2.4-2.2 1.9-1.4c.5-.5 1-1 1.5-1.3l1-.7 1.1-.7 2.2-1.7a13 13 0 0 1 2.5-1.5l2.1-.8 1.2-.5 1.5-1c.4-.4.4-1 .2-1.5l-.5-.4zm-31.7 21.3zm25.2-20.2a38.6 38.6 0 0 0-16 13.6c-1.2 1.7-2.3 3.5-4 4.7-2 1.5-4.7 1.7-5.6-1.1-1.1-3.6-1-6.7 1.2-9.7 2.3-3 5.3-5.3 8.7-7 5.2-2.6 11.5-3 17-1l-1.3.5z"/><path d="M935.3 406.3a137 137 0 0 0-5.9-37.6 94.5 94.5 0 0 0-39.5-46.2c-20.6-13.3-45.2-22.3-67.7-31.4a464.2 464.2 0 0 0-10.2-3.7c-1.5-.5-3-1-4.4-1.2l-3.6-.7c-2.1-1-4.3-1.8-6.5-2.6l-3.6-1.3h.7l2.3.6a52.3 52.3 0 0 0-3.9-1.6c-1.2-.4-2.5-.7-3.8-.8h-.2l-.4-.1-1-.4-4.7-1.4a137.3 137.3 0 0 1-9.4-2.7l-4.8-1.3-5-1.3c-1.6-.4-3.2-1-4.8-1.3l-4.7-1.3-4.7-1.2c-1.6-.5-3.2-.8-4.8-1a36 36 0 0 0-2-.4l-3-.3a116 116 0 0 0-5-.5l-4.7-.3-5.2-.5-4.6-.5-6.9-.6-1.9-.1-3.5-.6c-7.4-1.3-14.7-2.6-22-3.7 4.9-15.9-6.5-27.2-11.6-42.2-2.6-7.6-5.6-23.1-8-36.8-3.4-2.1-6-3.1-8.5.5a838 838 0 0 0 5.7 31.6c3 9.7 7.8 18.8 11.6 28.2.5 1 1 1.8 1.2 2.8 2 6.6 2.8 13.3 1.8 20.2 0 .7-.3 1.6-1 2-1 .5-2.1-.7-2.8-1.7a16.8 16.8 0 0 0-13.5-6.5c3.5 3.5 6.9 7 10 10.9a80 80 0 0 1 7.2 10.3c2 3.3 4.3 6 6.4 9.2l1 1.6 2.4 3 2 3 1.3 1.5 1.5 1.7 2.7 2.8 1.3 1.4 1.4 1.4 1.4 1.5a81 81 0 0 0 8.6 7.8c1 1 2 1.8 3 2.6l3 2.6 3.1 2.4 3 2.8 2.4 2.2 2.5 2.3c2 1.7 3.7 3.8 5.8 5.2 8 5.6 14 14.5 18.1 23.2a76.5 76.5 0 0 0 23.4 26c9.7 7.6 19.1 15.6 29.1 22.7 5 3.6 9.3 5.7 13.6 10.4.8 1 1.7 1.8 2.7 2.7l2.9 2.8 2.7 2.7a65.7 65.7 0 0 0 6 5.3l3 2.7a50.6 50.6 0 0 0 5.6 5.7l6 5.2c1 1 2 1.8 3.1 2.5.9.7 6.5 5.9 7.2 5.4a9.9 9.9 0 0 0-1.3 1.4c-.4.5-.5 1-.7 1.6v1.6l.4 1.1c.2.6.5 1 .9 1.5l.5.6.5.6.5.6.5.6.5.6.8.8.7.5 1.4 1 1.1.8.7.6.6.4.6.5.7.4h.9a4.7 4.7 0 0 0 .8-.2h1.2l1.3-.2a13.1 13.1 0 0 0 1.3-.4l.7-.4 1-.8.3-.5.2-.1.7.7c.5.6 1 1.2 1.3 1.9l.3.6v.7c-.7 8.2-10.5 11.6-17.5 9.8a40.5 40.5 0 0 1-16.7-11.3l-31.2-29.7-15.5-14.8c-3.9-3.7-6.8-8-10.6-11.9l-2.7-2.7a148.7 148.7 0 0 1-6.4-6.4l-5-5.8a174.4 174.4 0 0 1-7.6-9l-2.3-3.2a174.7 174.7 0 0 0-5.7-7.4 1.9 1.9 0 0 0-1.3-.8c-.4 0-.8 0-1.2.3-.8.5-1 1.7-.5 2.5l2.6 3.2 2.4 3.1 4.6 6.2a158 158 0 0 0 6.9 7.8c12.5 13.6 25.6 26.9 38 40.4l2.4 2.8 2.5 3 1.2 1.6 1.2 1.5 2.4 2.8c1.7 2.1 3.6 4.2 5.7 6.1l3 2.7 1.4 1.3 1.5 1.4c2 2 4.8 3.5 6.5 5.9a5.6 5.6 0 0 0-1.9 0 24.6 24.6 0 0 0-2 .7l-.7.4-.6 1c-.3.4-.4.9-.5 1.3l-.1 1c0 1 .2 1.9.5 2.8l.8 1.6 1.6 3.5.7 1.8.3.8.6 1.1.5.8.6.9.3.4a9 9 0 0 1 .5.6l.6.7c.6.5 1.3.7 2 .9a9.8 9.8 0 0 0 1.7.2h1.4l1.5.2 1.3.1h.7l.8.1h4.5c.3 0 .6 0 .9-.2l1-.2a18.6 18.6 0 0 0 3.7-1h.4c.4 0 .7-.1 1-.3l.5-.7.2.3.1.3v.4l.2.8v3l-.2 1.1c-3.3 9.9-11.3 13.9-21.3 12.8a44 44 0 0 1-20.5-8.6c-6-4.4-11.3-9.8-16.4-15.3a428.3 428.3 0 0 1-59.2-78.8l-2.2-3.1c-.7-1-1.3-2.1-1.8-3.2l-1.6-3.4-1.8-3.6c-1-1.8-1.7-3.7-2.5-5.6-.2-.5-.5-.8-1-1a1.8 1.8 0 0 0-1.4-.1c-.9.3-1.5 1.4-1 2.3l3.1 7 .3.6c10.6 20 22.8 37.7 35 56.4l2.3 3.3 2.3 3.2 2.4 3.1c0 .6 1.8 2 2.2 2.5l2.8 2.9a191.6 191.6 0 0 1 9.5 10.7c1 1.2 1.5 2.4 2.6 3.4 1 1 2.5 3 3.7 3.4-1.8-1-4-1.1-5.9-.3-3.4 1.6-4.6 5.8-4 9.3 0 .7.3 1.4.5 2 2 4.6 4.7 10 9.6 12 2.2.8 4.7.8 7 1.2 2.6.5 5 1.4 7.2 2.7 1 .6 1.9 1.3 2 2.4.2 1-.5 2-1.2 2.8-2.5 2.7-5.9 4.7-9.6 5.5-4.2.9-7.9-.3-12-1-4.3-.9-8.5-3.2-12.2-5.5a256.8 256.8 0 0 1-71.5-72 211 211 0 0 1-25.5-54.5c-1-3.2-1.8-6.4-2.5-9.6-.3-2 0-6.6-2.9-6.7-1.1 0-2 1-2.4 2.1-.3 1.1 0 2.3.2 3.4a485 485 0 0 0 7 30.6c2.4 9.6 6.4 18.6 9.6 28l.8 2.4.1.3c.4 1.2 1 2.3 1.3 3.5l1.2 3.5c4.1 12.8 10.5 25.1 14 38.2l.4 1.7.2 1.4v.7l-1-1.6a27.6 27.6 0 0 0-1.6-3l-.6-.8-1.1-1.5-1.5-1.5a19.1 19.1 0 0 0-2.7-2l-1-.8c-.5-.5-1.2-.8-1.9-1l-.5-.4a9.3 9.3 0 0 0-4-1.3 9.6 9.6 0 0 0-5.4 1.1 11.6 11.6 0 0 0-3.3 2.5l-.5.9-.5 1.4-.7 1.2-.7 2.3-.3 1.7c-.2 1.5 0 3 .5 4.4l.5 1.4.2.8c0 .5 0 1 .2 1.4.2.9.3 1.8.6 2.6l.5 2 .5 1.1.5 1.2.2.4.3.6.7.5.3.2.7.2h1a16 16 0 0 1 2.5.8l1.8.9 1.9.6 2.3.7 1.6.2a14 14 0 0 0 4-.3l1.8-.4c.8-.2 1.6-.4 2.3-.8l.7-.2-.4 1.2-.4.6c-.5.6-1 1.2-1.7 1.7l-2.2 1.2c-.8.5-1.6 1-2.5 1.3l-3 .6a36.1 36.1 0 0 0-2.4.5h-2.4c-15.2-1-23.6-17.7-29-29.8l-18.1-40.4a442.6 442.6 0 0 1-13-31c-4.1-11.4-5.4-23.4-11.4-34-1.2-2.1-3.3-3.9-5.2-5.4-3.7-2.9-7.9-5.1-11.5-8.1a62.7 62.7 0 0 1-8.3-8.8 317.3 317.3 0 0 1-15.6-20.7c-4.6-6.7-9.5-13.4-12.2-21-.2-.7-.9-1.1-1.5-1.2a2 2 0 0 0-1 0 2 2 0 0 0-1 1.1 2 2 0 0 0 0 1.5c.9 2.7 2 5.3 3 8l.6 1.8a85.4 85.4 0 0 0 3 5.9l.3.6.2.5 1 2 .8 1.5c1.2 2 2.6 3.8 4 5.6l2 3 2.3 3 2.3 3.2 1.1 1.6c1.1 1.6 6.9 6.4 2.8 7.5l-9.2 2.3c4 0 8.2.2 12.2 1 6.6 1.4 10.6 6 16.3 8.8 5.7 2.8 10 7.5 11.5 13.7.9 4 .4 9.3-.4 13.4-.8 4.6-3 9-6.1 12.5-6.3 6.9-19.7 11.4-28.6 8-20-7.4-32.6-29.7-42.2-48-4.1-8-8-15.5-7.5-24.6.5-9.2 2.8-18.2 7.5-26.2 4-7 10.8-12.1 12.3-20.2 6.1-33.6 2.9-67.5-3-101.3-.6-3.7-1.4-7.5-3.6-10.5-2.3-3-6.6-4.8-10-3.2-4.3 2.2-4.6 8.3-3.8 13.1 1.4 9.4 4.2 18.6 5.6 28 .9 6.2 1.6 13.4-.1 19.6-2 7-1.6 5.6-7.5 6.6-11.8 2-25.5-1.5-37.8.3-11 1.5-22.5 7.5-33.4 7.4-19.6-.2-39-3-58.4.8-18 3.4-35.2 12.8-53.8 12.4-15.6-.4-30.2-8.3-42.8-17.5-12.7-9.2-24.2-20-37.9-27.8-1.5.8-2.8 1.1-4 2.4 5.6 12.8 19.5 20.3 30.5 28.2a495 495 0 0 0 39.3 25.8 298 298 0 0 0 87 35.6c21.9 4.7 44 8.8 65.6 14.1 13.6 3.4 18.9 9.1 27.1 19.8a480.2 480.2 0 0 0 34.5 39c5 5.2 9 10.8 14.7 15.2 5.3 4.1 11.2 7.7 15.7 12.8 3.3 3.8 5.8 8.3 8.4 12.6l2.5 3.9a147 147 0 0 0 14.2 18.3c1.2 1.3 2.6 2.3 3.7 3.6a138.8 138.8 0 0 1 11.1 15c0 .4-.5.4-.9.4-2.3 0-5-.4-7.1.3a11 11 0 0 0-4.6 2.7c-1.4 1.3-2.4 3-3.1 4.8-.2.5-1.7 4.7-1 5-6.8-3.9-11.1-11.2-16.5-16.8a507.5 507.5 0 0 0-52.5-47.4c-6.5-5-14-9.5-20.2-15-5-4.6-8.3-9.6-15.4-11.7-1.5-.5 5.8 8.1 6.2 8.5 2.5 2.4 5.8 5 8.6 7.3l3 2.4c1 .9 2 1.6 3.2 2.4l3.2 2.2 3 2.2a317.6 317.6 0 0 1 6.3 5 230 230 0 0 0 9 7.5l5.1 4.6c2 1.6 4 2.7 5.8 4.4 2 2 3.8 4.3 5.6 6.5 2.2 2.5 5.3 4.5 7.8 6.9 2.4 2.3 5.1 4.4 7.5 6.7l4.7 4.6 1 1-.2.1h.3l.2.2 5.4 5.5 1.6 1.8 1 1.2 3 3.1 1.7 1.7c.9.8 1.7 1.7 2.4 2.6l2.5 3a75.8 75.8 0 0 0 7.2 7.2l2.1 2.1.6.7c.8 1 1.6 1.7 2.5 2.5 1.7 1.5 10 7.4 9 9.8-1.2 2.4-6.8.8-8.8 1.2a20 20 0 0 0-7.4 3.4c-3.8 2.8-6 9.3-4.2 13.8.8 2 2.6 4 3.8 5.9 2 3 6 9.5 10.6 7.4 1.5-.7 2.5-2 3.6-3.3 3.2-3.5 7-6.6 11.2-9 1-.5 2.2-1 3.3-.6 1.1.5 1.5 2 1.8 3.1.4 2.2.9 4.4.8 6.6a17.7 17.7 0 0 1-12.3 15.7c-2 .7-4 .7-6.1 1-1.5.3-3.9 1.3-5-.2-1.5-1.7-1.4-5.3-2.6-7.4a36.3 36.3 0 0 0-5.1-6.9c-6.3-7-13.2-13.1-20.8-18.6-3.1-2.2-6.6-4-9-7-2.8-3.3-6.4-6-9.7-8.7-9-7.2-17.7-14.8-25.5-23.2a156 156 0 0 1-10.9-12.9c-3.8-5-10-11-15.3-14.2l-3.4-2-3-2.1-3.3-2-3.2-2.3-3-2.1-3-2-3.1-2.2-3-1.9-2.9-2-3-2.2-2.6-2c-1-.8-1.7-1.7-2.6-2.5l-3.3-2.6a88 88 0 0 1-6.2-5l-2.5-1.7-3-1.6a2 2 0 0 0-.6-.2h-.5a1.6 1.6 0 0 0-.5 3l2 1 1.7 1.1c4 2.8 7.6 6.2 11.6 9.2l13.5 10 15.1 11.1c3.3 2.5 7.2 4.7 10.2 7.4C524.3 479 542 505 567.9 524l2.6 1.9h-.5a16.7 16.7 0 0 0-3.7 0c-.6 0-1.3 0-2 .2a19.8 19.8 0 0 0-3.8 1.3l-1.7 1-1.6 1.1c-.6.5-1 1.1-1.5 1.7a14.4 14.4 0 0 0-1.8 3.2l-.5 2-.3 1.7a4.7 4.7 0 0 0 .1 1.5c0 .4.2.7.3 1.1l.7 2.8c0 .6.2 1.2.4 1.7l1 1.7a90 90 0 0 1 2.9 3.9c2.7 2.8 5.7 6.5 10 6.6 2.5 0 4.9-.8 7.2-1.7 4.3-1.5 8-2.7 11.4-5.8l1.3-1.4c.5-.6 1-1.2 1.3-2l.5-2 .4-2v-.3.1c.7 1.2 1.3 2.4 1.7 3.7l.2 1.5.2 1.1-.2 1.8c-.9 5.7-3.7 11.3-9.3 13.7-8.3 3.7-21.2-.7-28.7-4.8-10.1-5.5-21-13-29.8-20.4-3-2.6-5.8-5.4-7.7-8.8-2.9-5.3-1.2-10.7-2.9-16.2l-.8-2-1.4-1.9-.4-.4-.7-1c-.5-.7-1-1.1-1.6-1.6l-1.7-1.2h-.1l-.1-.2-1.5-1-3-2.1c-5.1-3.8-10.5-7-16-10.4a171.3 171.3 0 0 1-20.1-17.3l-1.3-1.4-1.2-1.3-2.6-2.8-1.3-1.4-1.4-1.4-1.4-1.5-1.7-1.5-1.6-1.2-1.7-1.3a69 69 0 0 1-.7-.6l-1-.8a95.6 95.6 0 0 0-23.2-13.2l-3.4-1.6-1.5-.7-1.7-1-3.2-1.5-1.5-.8-1.6-1-3-1.6c-1-.6-2.1-1-3.2-1.5l-1.8-.7-1.8-.8a22.6 22.6 0 0 0-12-2c-.6 0-1.2.5-1 1l.6.3c11.6 3.7 23.3 9 34.1 14.8 8.6 4.6 16.8 9.9 24.4 16 12.5 10.2 23.5 23.7 37 32.3.2 0 .4.2.5.4 0 .4-.4.7-.8.9-1.9.7-3.6 1.7-5.1 3a9.8 9.8 0 0 0-.4 14.8l.1.1 1 1 1.2 1.1 2.3 1.5 1.2.8c1.3.9 2.4 2.1 4 2.6 1.3.4 2.7.3 4 0 5.4-.9 10.4-4 13.7-8.4.2-.3.5-.7.9-.5.3.1.3.5.3.8 0 1.9-.1 3.7-.5 5.5-.4 1.8-1.1 3.6-2.4 5-1.6 1.9-4 3-6.4 3.8a44 44 0 0 1-38.2-5.7c-19.2-12.3-35.7-29.4-56.8-38.8-13.6-6-27.8-10.5-42-14.8-12-3.7-24-7.2-35.7-11.5a187.1 187.1 0 0 1-92.4-73c-3.5-5.5-6.7-11.2-9.6-17-1.1-2.5-2.7-4.7-3.7-7-1.3-3-2-6.2-3-9.3l-.7-1.4c-.3-.4-1-.7-1.4-.5-.6.2-1 1-1 1.6v2c-.4 1-1.4 1.6-2.5 1.7-1 .2-2.1-.1-3.2-.4-3.6-1-5.6-3-8.3-5.7l-3.5-3.6c-.3-.3-2.5-2-2.5-2.3l-33.1-26c-2.6-2-5.2-4.1-8.4-4.7-3.2-.6-7.8.9-8.2 4.6-.4 3.5 3.3 5.5 5.7 7.1 8.3 5.7 16.3 11.7 24.5 17.6 5.7 4 12.8 8 17.5 13 4.8 5.2 9.1 11.2 13.7 16.6.4.5-7 17.1-7.6 19.1a106 106 0 0 0-3.9 22c-1 13.7-.5 30.3 5.3 43 8.3 18.3 25.8 29.7 42.2 40 18 11.2 38.2 17.3 56.2 28.3 10 6 18.6 13.8 27.7 21 8.6 6.7 18.2 12.1 27.6 17.6 22.3 13 50.6 20.6 75.6 25.6 40.3 8.1 81.8 7 122.9 5.5 69.3-2.6 138.9-6 207-19.2 10.6-2 21.4-5.6 32-6.7 16.2-1.5 31.2-10.6 45.4-18.3a187.6 187.6 0 0 0 43-30.8c15-14.8 26.1-32.9 37.2-50.7a108.8 108.8 0 0 0 15-32.4c2-9.9 1.6-20 1-30.1zm-86 77.6l-1.4.5-.8.1-1.5.4-.8.1h-1l-1 .1h-4 .3l-1.8-.1h-1.7l-1-.1-.5-.1h-.2l-.4-.5-.6-.8-.5-.7-.3-.6-1-2-1-2.4-1-2.4-.6-1.1c-1.6-3.3.7-4.9 3.6-3.4 1.4.7 2.9 2.3 4 3 1.7 1 3.8 2.2 5.7 3.7a26.4 26.4 0 0 0 8.3 5.7l.2.3-1 .3zm-327-163.2c-5.4 12.2-4.1 21.4-1 33.7l.7 3.3c-5.1-7.1-11.6-12.4-16.7-19.6a48.9 48.9 0 0 0-20.5-15.9c-10.9-4.7-22.7-6.6-34.3-9a386.4 386.4 0 0 1-94.2-32.2c16.6-8.4 30.1-14.3 49-15.3 12.9-.6 25.7.2 38.5-.5 27.2-1.6 54.2-10.3 81.2-6.5 2.1.3 4.4.7 6.2 2 2.4 1.8 3.5 4.8 4.2 7.8a49 49 0 0 1-.6 25c-2.6 9-7.7 16.8-11.6 25.2a85 85 0 0 0-1 2zm65.1 222.7c-.2.7-.4 1.5-.8 2.2l-.8 1-.6.7-1.9 1.4c-3.3 2.4-7.7 5.3-12 4.8-1.9-.2-3.6-1.1-5.2-2.2-4.3-3-10-9-9-14.8 0-.5 0-1 .2-1.6v.2l.1-.6.6-1.4c.4-.6.8-1.4 1.4-2 3.7-4.2 13.5-2.4 18-.5a21.8 21.8 0 0 1 10 9c.4 1 .4 2.1 0 3.8zm-79.3-29.7a17.7 17.7 0 0 1-10 7.3c-1.3.5-2.9.8-4.3.4-1.7-.3-3-1.5-4.3-2.5l-3-2.3c-1-.7-2-1.7-2.8-2.6-.8-1-1.6-2-1.9-3.3-.4-1.6 0-3.3 1-4.7a9.8 9.8 0 0 1 4.6-3.5l2.1-.7c4-1.2 8 .6 11 3 1.4 1.2 2.7 2.5 4.2 3.5 1.8 1.3 5 2.7 3.4 5.4zM868 462.9l-.5.4-.2.2-.9.3-1 .2-.7.1a3.2 3.2 0 0 1-.9.1l-.5-.4-.6-.7-1-1-1-.7-1.1-.8-.7-.6-.5-.5-.7-.7-.4-.4-.4-.6a10 10 0 0 0-.5-.5l-.2-.3-.3-.3v-.1a7 7 0 0 1-.2-1.3l.5-.6.7-.5.1-.1.2.2 1.5 1 3.3 2 2.3 1.8 2.3 2 1.7 1.6-.3.2zm-63.5 42l-2-1c-1.4-.6-3.1-.8-4.7-1-2.4-.2-4.8-.2-7-1.3-2-1.1-3.4-3-4.6-5-1-1.7-3.2-3.8-3.6-5.7-.6-2.5-1.8-5 .8-7 1.6-1.3 4-1.4 6-.8 2 .7 3.6 2 5.2 3.4a46 46 0 0 1 9.5 11.7c.6 1.1 1 2.3 1.5 3.5l.7 2 .5 2v.3l-.3-.2-2-1zm-106.8-7.4l-1.3.5c-.4 0-.7.2-1.1.3l-1.8.3a13.8 13.8 0 0 1-3.3.2l-1.2-.3-2-.5h.3l-2.1-.6-1-.4a11 11 0 0 0-3.2-1l-.6-.1-.1-.5c-.1-.8-.4-1.5-.6-2.2l-.5-2.2-.5-2.2c-.2-1-.5-1.9-.9-2.8l-.5-1.1c.2-.2.4-.6.3-.9l-.1-2.2.2-1.4.6-1.3a6.6 6.6 0 0 1 1.9-2l1-.8 2.8-1.2 1.5-.2a7.8 7.8 0 0 1 2.6.6l.5.3 1.2.7 1 .9c.5.6 1.2 1 1.8 1.6l.8 1 1 1.6 1 1.3.6.6.5.6.6.7.1.3.6 1.3.4 1.2v-.2c0 .4.2.8.3 1.1 0 .2.2.4.3.5l.6 1 .2.1c0 .3.2.6.3.8l.6 1.1.6 1.2.1 1.2v2.6h-.3l-1.5.1-1.7.4zm-96.8-8.2c-3.8-3.7-6.8-9.5-3-14.3 1.8-2.3 4.6-3.7 7.5-3l1.6.6 1.3 1c.5.2 1 .5 1.4.9l1 1.1c3.4 4 8.5 11.2 5 16.4a8.5 8.5 0 0 1-5.1 4c-.8 0-1.5 0-2.2-.2-3-1-5.5-4.6-7.5-6.5zm14.2 30.7a42 42 0 0 0-11.4 9.8c-1.3 1.4-2.7 3.2-4.7 3.2-1.8 0-3.1-1.4-4.3-2.7l-2.3-2.8a17.4 17.4 0 0 1-3-5.2c-1.7-5.3 2.3-12.3 8-13.8 8.5-2.3 13.7 3.2 18.6 8.4.3.3.7.7.7 1.1.2.9-.8 1.6-1.6 2zm303.6-97.3c-3.6 17-10.7 33.1-18.5 48.7-4.8 9.7-9.8 19.3-16.4 27.8-14 18.2-33.9 30.6-54.4 40.3a371.8 371.8 0 0 1-31.1 13.5c-11.4 4.1-24.3 4.2-36.3 6.3-17.5 3-35 6-52.6 8.8a1143 1143 0 0 1-106 11.8 850.7 850.7 0 0 1-143.3-3.5c-35.9-4-72.4-10.5-103.4-28.9C339 537 323.6 523 306 512.1c-18.7-11.6-39.7-19.4-57.7-32a88.6 88.6 0 0 1-24-24.6 54 54 0 0 1-7.9-23.3c-1.5-14.5 3.7-25.8 4-40-.1 4.2 18 22.2 21.9 25.7a241 241 0 0 0 73.7 45.7c27.3 10.9 58.2 17.3 84 31.4 8.6 4.7 14 11.2 21.5 17.4 12 10 25.2 18.8 39 26a70 70 0 0 0 24.3 8.7c5.8.6 11.4-.1 16.7-2.6 9.2-4.3 17.7 5.4 24.6 10.3a142 142 0 0 0 19.8 12.4c3.2 1.6 6.6 3 10 4 13.6 4 39.8 3.2 40.5-16 3.4 1.2 9 .2 12.6-.8a24.2 24.2 0 0 0 13.4-9.2c3.8-5.7 4-12.9 2.6-19.4-.7-2.9-1.3-6-3.1-8.3-2.4-3-4.8-6-7-9-4.5-5.7 2.2-6.7 5-10.4 1-1.2 1-2.6 1.3-4 2.3-11.5-3.8-20.2-9.5-29.7s-12-18.5-19-27c-2-2.5-4.1-6.2-2-8.6 2.3-2.4 6.5-.6 9.3-1 3-.4 5.8-2.6 9-2.3 3.9.3 6.4 4.1 8.3 7.5l28.7 51.2c5.6 10 14 27.7 26.3 30.2 9.8 2 26 .8 32-8.4 2.6-4 2.8-9.5 2.3-14.1-.4-3.8-1.6-7.5-2.6-11.2-.5-1.9-1-3.7-1.3-5.6-.2-2-.6-3.8-.6-5.8 0 .3 1 1.1 1.1 1.3l1.3 1.4c.8.8 1.7 1.8 2.7 2.5 1.9 1.4 3.5 3.1 5.4 4.6 7.6 6.2 15.6 13.1 23.8 19.1L755 512c11.6 8.5 24.4 15.8 39.5 13.5 8.1-1.3 16.2-7.1 17.2-15.3-.4 3.2 19.5 4.2 21.8 4 8-1 14.9-5 19.2-11.8l1-1.8 1-1.8 1.5-2.2.5-.8.5-1a8.1 8.1 0 0 0 .6-2.5v-2.5a7.7 7.7 0 0 0 0-1.7l-.2-.8-.2-1.3c0-.3-.2-.6-.4-.9l-.2-.5 1.6.4h3.7c.8 0 1.6-.3 2.4-.4l1.5-.4 1.8-.8c.8-.4 1.7-.8 2.4-1.4.8-.5 1.5-1 2-1.7l1.3-1.5a23 23 0 0 0 2.3-3.6l.4-.8a7.8 7.8 0 0 0 1-3.4c1-12.6-17-22-25.2-28.8L832.7 426c-5.3-4.4-11.5-11.8-17.7-14.8-15.8-13-34-23.3-48.3-38.1-8.1-8.5-11.6-21.3-18.5-31-9-12.7-22.2-21.5-34.4-31s-24.1-20.8-28.5-35.6c-2.6-8.7 7.6-5.5 12.5-5a455.9 455.9 0 0 1 65.1 12.4 536.6 536.6 0 0 1 83 29c28.7 12.8 58.2 30.4 69.8 59.5 3.3 8.2 5 16.9 5.3 25.7.3 8.6-.5 17.3-2.3 25.7z"/></g><g><path d="M212.4 737c-3.1 0-4-.9-4-4v-6.7c0-1.1-.2-1.5-1.6-1.9-9-2.6-12.2-9.6-12.2-23.8v-33.7c0-18.3 5.2-25 21-25 15.7 0 21 6.7 21 25v33.7c0 14.2-3.2 21.2-12.2 23.8-1.4.4-1.7.8-1.7 1.9v6.7c0 3.1-.8 4-4 4h-6.3zm3.2-79.9c-3.8 0-5.6 1.8-5.6 6.1v41c0 4.4 1.8 6.2 5.6 6.2s5.5-1.8 5.5-6.1v-41.1c0-4.3-1.7-6-5.5-6zM275.3 643h7c3 0 4 .8 4 4v54.7c0 17.5-5.3 23.9-21 23.9-15.8 0-21-6.4-21-24V647c0-3.2.8-4 4-4h7c3.1 0 4 .8 4 4v57.3c0 4.3 1.8 6 6 6 4 0 6-1.7 6-6V647c0-3.2.8-4 4-4zM310.6 672.3c0 1.4.4 2 2 2H326c3.2 0 4 .9 4 4v7.2c0 3.1-.8 4-3.8 4h-13.7c-1.5 0-2 .4-2 2v15.8c0 1.4.5 2 2 2h14.8c3.2 0 4 .9 4 4v7.2c0 3.1-.8 4-4 4h-27.7c-3.2 0-4-.9-4-4V647c0-3.2.8-4 4-4h27.7c3.2 0 4 .8 4 4v7.2c0 3.1-.8 4-4 4h-14.8c-1.5 0-2 .4-2 2v12.1zM355.3 709.3h13.5c3.2 0 4 .9 4 4v7.2c0 3.1-.8 4-4 4h-26.5c-3.1 0-4-.9-4-4V647c0-3.2.9-4 4-4h7c3.1 0 4 .8 4 4v60.6c0 1.3.4 1.7 2 1.7zM393 709.3h13.7c3.1 0 4 .9 4 4v7.2c0 3.1-.9 4-4 4h-26.5c-3.2 0-4-.9-4-4V647c0-3.2.8-4 4-4h7c3 0 4 .8 4 4v60.6c0 1.3.4 1.7 1.9 1.7zM429 720.5c0 3.1-1 4-4 4h-7c-3.2 0-4-.9-4-4V647c0-3.2.8-4 4-4h7c3 0 4 .8 4 4v73.5zM498.6 669v29.4c0 18.5-4.2 26.1-25 26.1h-13.3c-3.2 0-4-.9-4-4V647c0-3.2.8-4 4-4h13.2c20.9 0 25.1 7.6 25.1 26zm-27.4-8.8v47.1c0 1.4.5 2 2 2h1.2c6 0 8.8-2.8 8.8-9.9v-31.3c0-7-2.7-9.9-8.8-9.9h-1.2c-1.5 0-2 .4-2 2zM521.7 672.3c0 1.4.4 2 2 2H537c3.2 0 4 .9 4 4v7.2c0 3.1-.8 4-3.8 4h-13.7c-1.5 0-2 .4-2 2v15.8c0 1.4.5 2 2 2h14.8c3.2 0 4 .9 4 4v7.2c0 3.1-.8 4-4 4h-27.7c-3.1 0-4-.9-4-4V647c0-3.2.9-4 4-4h27.7c3.2 0 4 .8 4 4v7.2c0 3.1-.8 4-4 4h-14.8c-1.5 0-2 .4-2 2v12.1zM566.4 709.3H580c3.1 0 4 .9 4 4v7.2c0 3.1-.9 4-4 4h-26.6c-3.1 0-4-.9-4-4V647c0-3.2.9-4 4-4h7c3.1 0 4 .8 4 4v60.6c0 1.3.4 1.7 2 1.7zM604.2 709.3h13.6c3.1 0 4 .9 4 4v7.2c0 3.1-.9 4-4 4h-26.5c-3.2 0-4-.9-4-4V647c0-3.2.8-4 4-4h7c3 0 4 .8 4 4v60.6c0 1.3.4 1.7 1.9 1.7zM655.4 643c4.9 0 6.4 1.6 7 5.6l9.5 71.9c.5 3.1-.4 4-3.6 4h-7.5c-3.2 0-4-.7-4.4-4l-1.4-11.9c-.1-1-.5-1.4-1.8-1.4H644c-1.3 0-1.7.4-1.8 1.4l-1.4 11.9c-.4 3.3-1.2 4-4.4 4h-7.5c-3.2 0-4-.9-3.6-4l9.5-71.9c.6-4 2.1-5.6 7-5.6h13.7zm-6.9 20.6c-1.2 0-1.8.3-2 1.6l-2.4 25.3c-.1 1.3.2 1.6 1.6 1.6h5.7c1.4 0 1.7-.3 1.6-1.6l-2.5-25.3c-.1-1.3-.8-1.6-2-1.6zM712.5 696.6c-1.6 0-2 .4-2 2v21.9c0 3.1-.9 4-4 4h-7c-3.1 0-4-.9-4-4V647c0-3.2.9-4 4-4H714c16.5 0 24 6 24 20.6V676c0 14.7-7.5 20.7-24 20.7h-1.4zm-2-17.2c0 1.5.4 2 2 2h2.2c5.4 0 7.8-2.2 7.8-7.8V666c0-5.5-2.4-7.7-7.8-7.7h-2.2c-1.6 0-2 .4-2 2v19.2zM758 720.5c0 3.1-.9 4-4 4h-7c-3.1 0-4-.9-4-4V647c0-3.2.9-4 4-4h7c3.1 0 4 .8 4 4v73.5zM781.7 710h14.8c3.1 0 4 .8 4 4v6.6c0 3.2-.9 4-4 4h-29.4c-3.1 0-4-.8-4-4v-6c0-3.6.2-5.2 1.7-8.6l19.2-45c1-2.5.5-3.3-1.4-3.3h-15c-3 0-4-1-4-4V647c0-3.2 1-4 4-4H797c3.2 0 4 .8 4 4v6a18 18 0 0 1-1.6 8.6l-19.1 45c-1 2.5-.5 3.3 1.4 3.3zM822.2 710h14.7c3.2 0 4 .8 4 4v6.6c0 3.2-.8 4-4 4h-29.3c-3.2 0-4-.8-4-4v-6c0-3.6.2-5.2 1.6-8.6l19.2-45c1-2.5.6-3.3-1.4-3.3h-14.9c-3.1 0-4-1-4-4V647c0-3.2.9-4 4-4h29.4c3.1 0 4 .8 4 4v6a18 18 0 0 1-1.6 8.6l-19.2 45c-1 2.5-.5 3.3 1.5 3.3zM874.8 643c4.9 0 6.4 1.6 7 5.6l9.5 71.9c.4 3.1-.4 4-3.6 4h-7.5c-3.3 0-4-.7-4.5-4l-1.4-11.9c0-1-.4-1.4-1.7-1.4h-9.4c-1.3 0-1.6.4-1.7 1.4l-1.4 11.9c-.4 3.3-1.2 4-4.5 4h-7.5c-3.1 0-4-.9-3.6-4l9.6-71.9c.6-4 2-5.6 7-5.6h13.7zm-6.9 20.6c-1.2 0-1.8.3-2 1.6l-2.4 25.3c-.1 1.3.2 1.6 1.6 1.6h5.6c1.5 0 1.8-.3 1.7-1.6l-2.5-25.3c-.1-1.3-.8-1.6-2-1.6z"/><g><path d="M282.6 794.3c-1.7-.4-3.4-1-5.3-1.8l2-4.6c3.1 1.5 6.1 2.3 9 2.3 1.4 0 2.6-.3 3.4-.8.8-.5 1.2-1.3 1.2-2.3 0-1-.5-1.7-1.3-2.2-.9-.4-2.3-.9-4.3-1.3a26 26 0 0 1-5.2-1.5 8 8 0 0 1-3.3-2.5c-.8-1-1.2-2.4-1.2-4 0-2.5.9-4.5 2.6-5.9 1.7-1.4 4.1-2.1 7.3-2.1 3.8 0 7 .6 10 2l-2.2 4.4a19.7 19.7 0 0 0-7.8-1.7c-1.4 0-2.5.3-3.3.8-.8.6-1.2 1.3-1.2 2.1 0 1 .5 1.7 1.5 2.2 1 .5 2.7 1 5 1.4 2 .4 3.5.9 4.8 1.5a7 7 0 0 1 3 2.4c.7 1 1 2.4 1 4 0 2.7-.7 4.8-2.4 6.1-1.7 1.4-4.1 2.1-7.4 2.1-2.2 0-4.2-.2-5.9-.6zM313.9 772.7h-8.4V768h22.1v4.6h-8.4v21.7H314v-21.7zM350.1 789.4h-12l-2.2 5h-5.6l12.4-26.4h2.9l12.4 26.4h-5.7l-2.2-5zm-10.3-4.3h8.6l-4.3-10-4.3 10zM382.2 794.4l-5.2-7.5h-5.4v7.5h-5.3V768H377c3.5 0 6.1.8 8 2.4 1.7 1.6 2.6 4 2.6 7 0 2-.4 3.8-1.3 5.2a8 8 0 0 1-4 3.2l6.3 8.5h-6.4zm-1.6-13.3c1-.8 1.6-2 1.6-3.4 0-1.7-.5-3-1.4-3.8-1-.9-2.3-1.3-4.2-1.3h-5v9.8h4.6c2 0 3.4-.4 4.4-1.3zM403.5 772.7h-8.4V768h22.1v4.6h-8.4v21.7h-5.3v-21.7zM439.6 768H459v4.6h-14.1v8h12v4.6h-12v9.2h-5.2V768zM483.9 794.4l-5.2-7.5h-5.4v7.5H468V768h10.7c3.4 0 6 .8 7.9 2.4 1.8 1.6 2.7 4 2.7 7 0 2-.5 3.8-1.3 5.2a8 8 0 0 1-4 3.2l6.3 8.5h-6.4zm-1.6-13.3c1-.8 1.5-2 1.5-3.4 0-1.7-.4-3-1.3-3.8-1-.9-2.4-1.3-4.2-1.3h-5v9.8h4.5c2 0 3.5-.4 4.5-1.3zM504.7 793.2a12.1 12.1 0 0 1-5-4.8c-1.1-2-1.7-4.4-1.7-7.2 0-2.6.6-5 1.7-7a12 12 0 0 1 4.9-5c2-1 4.5-1.6 7.3-1.6s5.2.5 7.3 1.6c2.1 1.2 3.8 2.8 5 4.9 1.2 2 1.7 4.4 1.7 7.1 0 2.7-.5 5-1.7 7.1-1.1 2.1-2.7 3.7-4.9 4.9a15.2 15.2 0 0 1-7.4 1.7c-2.7 0-5.1-.6-7.2-1.7zm11.7-4.3a7.7 7.7 0 0 0 3-3c.7-1.4 1-3 1-4.7 0-1.6-.3-3.2-1-4.5a7.6 7.6 0 0 0-3-3.1 8.8 8.8 0 0 0-4.5-1.1c-1.6 0-3 .3-4.3 1a7.6 7.6 0 0 0-3 3.1c-.8 1.4-1.1 3-1.1 4.6 0 1.7.3 3.2 1 4.6a7.6 7.6 0 0 0 3 3c1.3.8 2.8 1.2 4.5 1.2 1.6 0 3-.4 4.4-1.1zM562.7 768v26.4h-5.3v-14.5l-7.3 10h-2l-7.2-10v14.5h-5.3V768h2.7l10.9 15.1 10.7-15.1h2.8zM593.4 772.7H585V768h22.1v4.6h-8.3v21.7h-5.4v-21.7zM616.2 768h5.2v12.4h12V768h5.3v26.3h-5.2v-9.5h-12v9.5h-5.3V768zM649.4 768h19.2v4.6h-14v6.8h11.7v4.4h-11.8v6h14.9v4.6h-20V768zM713.1 782c1 1.2 1.5 2.7 1.5 4.6 0 2.5-.8 4.5-2.4 5.8-1.7 1.3-4 2-7.2 2h-12.8V768H705c2.3 0 4.1.5 5.3 1.5 1.3 1 1.9 2.6 1.9 4.6 0 1.4-.3 2.6-.9 3.5-.5 1-1.3 1.6-2.3 2 1.7.4 3 1.1 4 2.3zm-15.8-3.2h6.2c2.6 0 3.9-1.1 3.9-3.3 0-2-1.3-3-3.9-3h-6.2v6.3zm10.6 10.2c.8-.7 1.2-1.6 1.2-2.8 0-2.5-1.7-3.7-5-3.7h-6.7v7.4h6.7c1.8 0 3-.3 3.8-1zM740.8 789.4h-12l-2.2 5h-5.7l12.5-26.4h2.8l12.5 26.4H743l-2.2-5zm-10.3-4.3h8.6l-4.3-10-4.3 10zM761 794.3c-1.7-.4-3.4-1-5.3-1.8l2-4.6c3.1 1.5 6.1 2.3 9 2.3 1.4 0 2.6-.3 3.4-.8.8-.5 1.2-1.3 1.2-2.3 0-1-.5-1.7-1.3-2.2-.8-.4-2.3-.9-4.3-1.3a26 26 0 0 1-5.2-1.5 8 8 0 0 1-3.3-2.5c-.8-1-1.2-2.4-1.2-4 0-2.5.9-4.5 2.6-5.9 1.7-1.4 4.1-2.1 7.3-2.1 3.8 0 7 .6 10 2l-2.2 4.4a19.7 19.7 0 0 0-7.8-1.7c-1.4 0-2.5.3-3.3.8-.8.6-1.1 1.3-1.1 2.1 0 1 .5 1.7 1.4 2.2 1 .5 2.7 1 5 1.4 2 .4 3.5.9 4.8 1.5a7 7 0 0 1 3 2.4c.7 1 1 2.4 1 4 0 2.7-.7 4.8-2.4 6.1-1.7 1.4-4.1 2.1-7.4 2.1-2.2 0-4.2-.2-5.9-.6zM785.9 768h19.2v4.6h-14v6.8h11.7v4.4h-11.7v6h14.8v4.6h-20V768z"/></g></g></svg>