<?xml version="1.0" encoding="UTF-8"?><svg xmlns="http://www.w3.org/2000/svg" xmlns:svg="http://www.w3.org/2000/svg" width="1080" height="1080" version="1.2" baseProfile="tiny-ps"><title>Idealo</title><defs id="defs4"></defs><g id="g22"><rect id="svg_2" fill="#0a3761" height="1080" width="1080" x="0" y="0"></rect><g id="main_logo_weiss_auf_transparent_200px"><g id="svg_3"><rect id="svg_4" fill="#ffffff" height="31.889999" width="40.16" y="422.26999" x="152"></rect><rect id="svg_5" fill="#ffffff" height="109.85" width="40.16" y="470.70001" x="152"></rect><g id="svg_6"><path id="svg_7" fill="#ffffff" d="m 215.79,511.13 c 0,-7.42 -0.14,-14.15 1.14,-20.21 a 32.53,32.53 0 0 1 8.4,-16.16 q 6.48,-6.48 18.73,-10 12.25,-3.52 32.94,-3.51 h 9.87 a 85,85 0 0 1 13.28,1 41.24,41.24 0 0 1 11.9,3.75 27.48,27.48 0 0 1 9.08,7.14 c 2.42,3 3.74,6.71 4.5,11.24 l 0.1,-62.13 h 39.94 v 157 H 328 v -21.12 h -0.1 c -1.22,3.63 -3.31,6 -5.35,8.78 a 27.12,27.12 0 0 1 -7.94,7.28 40.14,40.14 0 0 1 -12.26,4.65 67.43,67.43 0 0 1 -15.76,1.58 H 277 q -20.66,0 -32.92,-3.5 -12.26,-3.5 -18.73,-10 c -4.3,-4.3 -7.11,-8.64 -8.4,-14.69 -1.29,-6.05 -1.14,-12.79 -1.14,-20.2 z M 254.46,528 a 52.7,52.7 0 0 0 0.71,8.94 12.89,12.89 0 0 0 3,6.59 14.85,14.85 0 0 0 7,4 46.06,46.06 0 0 0 12.83,1.39 h 21.87 a 63.76,63.76 0 0 0 11.65,-0.95 20.58,20.58 0 0 0 8.51,-3.41 15.37,15.37 0 0 0 5.13,-6.71 29.55,29.55 0 0 0 1.74,-11.07 V 515 a 29.59,29.59 0 0 0 -1.74,-11.07 15.43,15.43 0 0 0 -5.13,-6.71 20.71,20.71 0 0 0 -8.51,-3.41 65.65,65.65 0 0 0 -11.65,-0.94 H 278 a 45.68,45.68 0 0 0 -12.83,1.42 14.93,14.93 0 0 0 -7,4 12.93,12.93 0 0 0 -3,6.59 52.75,52.75 0 0 0 -0.71,8.93 z"></path><path id="svg_8" fill-rule="evenodd" fill="#ffffff" d="m 492.41,548.65 c -0.55,6 -6.37,7.26 -15.66,7.26 h -27.66 c -9.4,0 -19.79,-4.74 -19.79,-14.88 v -8 h 102.79 v -19.44 c 0,-38.51 -17.7,-52.34 -62.23,-52.34 h -29.65 c -30.34,0 -50.8,13.51 -50.8,55.66 v 10.86 c 0,47.56 27.68,52.77 55.39,52.77 h 40 c 34.7,0 47.17,-6.91 47.46,-31.89 z m -62.94,-44.23 c 0,-12.2 4.87,-18.63 20.16,-18.63 h 23.74 c 15.27,0 20.16,6.43 20.16,18.63 v 5.25 h -64.06 z"></path><path id="svg_9" fill-rule="evenodd" fill="#ffffff" d="m 547.68,539.09 c 0,-30.77 43.65,-29.31 47.48,-29.3 3.83,0.01 25.1,0 31.65,0 8.17,0 19.29,2.72 23,6.68 l 0.74,0.76 v -12.57 c 0,-12.2 -4.62,-18.87 -19.78,-18.87 H 607 c -12.71,0 -19.78,1.77 -19.78,7.34 h -36 c 0,-23.81 19.24,-31.88 50,-31.88 h 46.79 c 27.83,0 42.36,14.7 42.36,41.59 v 76.52 h -39.82 v -14.88 l -2.38,4.19 c -6.76,9.65 -11.94,11.87 -32.27,11.87 h -28 c -24.84,0 -40.17,-5.19 -40.17,-31.8 z m 87.83,18.11 c 11,0 15.21,-4.31 15.21,-12.54 0,-14.21 -3.5,-16.2 -25,-16.38 h -19.19 c -16,-0.07 -19.79,3.92 -19.94,12.39 -0.25,13 3.95,16.53 19.94,16.53 h 29 z"></path><rect id="svg_10" fill="#ffffff" height="158.27" width="40.16" y="422.26999" x="714.21997"></rect><path id="svg_11" fill-rule="evenodd" fill="#ffffff" d="m 776.82,506.84 c 0,-37.93 24.88,-45.59 46.9,-45.59 H 881 c 22,0 46.94,7.66 46.94,45.59 V 535 c 0,37.91 -24.92,45.57 -46.94,45.57 h -57.28 c -22,0 -46.9,-7.66 -46.9,-45.57 z m 38.79,20.92 a 52.6,52.6 0 0 0 0.72,9 13,13 0 0 0 3.11,6.66 15.14,15.14 0 0 0 7.14,4 47.52,47.52 0 0 0 13.1,1.43 h 21.8 a 66.53,66.53 0 0 0 11.91,-0.95 21.16,21.16 0 0 0 8.7,-3.45 15.5,15.5 0 0 0 5.24,-6.77 29.39,29.39 0 0 0 1.8,-11.18 v -11.28 a 29.46,29.46 0 0 0 -1.8,-11.18 15.68,15.68 0 0 0 -5.24,-6.77 21.3,21.3 0 0 0 -8.7,-3.45 68.5,68.5 0 0 0 -11.91,-0.94 h -21.8 a 47.13,47.13 0 0 0 -13.1,1.43 15.14,15.14 0 0 0 -7.14,4 13,13 0 0 0 -3.11,6.65 52.77,52.77 0 0 0 -0.72,9 z"></path><rect id="svg_12" fill="#ff6600" height="31.889999" width="776" y="626.60999" x="152"></rect></g></g></g></g></svg>