<?xml version="1.0" encoding="utf-8"?>
<!-- Created by Progist Solutions on 25 July 2023  -->
<svg version="1.2" baseProfile="tiny-ps" id="Layer_1" xmlns="http://www.w3.org/2000/svg" xmlns:xlink="http://www.w3.org/1999/xlink"
	 viewBox="0 0 100 100" xml:space="preserve">
	 <title>BOROSIL</title>
<path fill="#003261" d="M66.1,47.6c-0.7-3.3-3.2-5.7-6.5-6.4c-0.3-0.1-0.7,0-1-0.2h-0.2c-0.2,0-0.3,0-0.5,0h-0.6c-0.2,0-0.3,0-0.5,0
	h-0.3c-0.4,0.2-0.9,0.2-1.3,0.2c-2.7,0.6-4.7,2.1-5.8,4.7c-0.7,1.6-0.9,3.2-0.8,4.9c0.3,4,2.8,6.6,6.2,7.6c2.6,0.8,5,0.2,7.4-1
	c1.8-1,3-2.5,3.6-4.5C66.4,51.3,66.5,49.5,66.1,47.6z M60.9,53.6c-1.8,2.4-5.3,2.2-7-0.3c-1.3-2.1-1.4-4.3-0.2-6.5
	c0.9-1.5,2.2-2.3,4-2.2c1.7,0.1,2.8,1,3.6,2.4c0.5,0.9,0.7,2,0.7,3C62,51.3,61.7,52.5,60.9,53.6z"/>
<path fill="#003261" d="M33.3,47.6c-0.8-3.5-3-5.6-6.6-6.4c-0.3-0.1-0.7,0-1-0.2h-0.1c-0.5,0.1-1,0-1.5,0c-0.1,0-0.2,0-0.3,0
	c-2.9,0.3-5.2,1.6-6.7,4.1c-1.3,2.1-1.5,4.5-1,6.9c0.5,2.6,2,4.5,4.3,5.8c1.7,0.9,3.4,1.1,5.2,0.9c2.6-0.3,4.7-1.4,6.2-3.5
	C33.6,52.9,34,50.3,33.3,47.6z M29.3,49.9c0,1.6-0.4,3-1.5,4.2c-2,1.9-5,1.5-6.6-0.8c-1.3-1.9-1.3-4.8,0-6.8
	c1.5-2.2,4.6-2.6,6.5-0.8c1,0.9,1.4,2.1,1.6,3.5C29.3,49.4,29.3,49.6,29.3,49.9z"/>
<path fill="#003261" d="M12.7,50c-0.3-0.1-0.6-0.2-0.9-0.4c0.4-0.3,0.8-0.5,1.2-0.8c1.3-1,1.8-2.6,1.3-4.2c-0.5-1.3-1.5-2.1-2.6-2.6
	c-1.2-0.6-2.6-0.8-3.9-0.8c-1.7-0.1-3.5,0.1-5.2,0.3c-0.2,0-0.3,0-0.4,0.2v16.5c0.1,0.2,0.3,0.2,0.5,0.3c0.9,0.1,1.8,0.2,2.8,0.2
	c1.6,0.1,3.1,0.1,4.7-0.2c1.4-0.3,2.7-0.8,3.7-1.9C15.7,54.6,15.5,51.2,12.7,50z M6,45c0-0.2,0-0.3,0.3-0.4c1-0.1,2-0.2,2.9,0.2
	c0.8,0.3,1.2,0.9,1.2,1.6c0,0.8-0.4,1.4-1.2,1.7c-0.9,0.4-1.9,0.4-2.9,0.3C6.1,48.4,6,48.2,6,48V45z M9.7,54.8
	c-0.8,0.5-1.8,0.5-2.7,0.5c-1.1,0-0.9,0-0.9-0.9c0-0.4,0-0.8,0-1.2v-1.6c0-0.2,0-0.4,0.3-0.4c1-0.1,1.9-0.2,2.9,0.2
	c0.9,0.3,1.5,1,1.5,2C10.7,54,10.3,54.5,9.7,54.8z"/>
<path fill="#003261" d="M74.1,41.1c1.3,0.1,2.4,0.4,3.5,1c0.4,0.2,0.5,0.4,0.3,0.8c-0.3,0.8-0.5,1.7-0.7,2.5
	c-0.1,0.5-0.2,0.6-0.7,0.3c-0.7-0.4-1.5-0.8-2.3-1c-0.6-0.1-1.3-0.2-1.9,0c-0.5,0.1-1,0.4-1.1,1c-0.1,0.6,0.2,1,0.6,1.4
	c0.4,0.3,0.8,0.5,1.3,0.7c0.9,0.4,1.8,0.8,2.7,1.3c1.8,1,2.7,2.6,2.6,4.6c-0.1,2.1-1.2,3.5-3.1,4.4c-2,0.9-4,0.8-6,0.2
	c-1.1-0.3-2.1-0.8-3.1-1.3c-0.4-0.2-0.4-0.3-0.1-0.7c0.6-0.8,1-1.6,1.3-2.5c0.1-0.4,0.2-0.5,0.6-0.2c1.4,0.9,2.8,1.4,4.5,1.4
	c0.2,0,0.5,0,0.7-0.1c1.1-0.3,1.5-1.5,0.7-2.3c-0.4-0.5-0.9-0.8-1.5-1c-0.9-0.4-1.9-0.8-2.8-1.3c-1.4-0.8-2.2-1.9-2.5-3.5
	c-0.3-2.1,0.8-4.2,2.8-5.1c0.7-0.3,1.4-0.5,2.1-0.6c0.1,0,0.1,0,0.1-0.1c0,0,0,0,0.1,0c0.5,0.1,1,0,1.5,0
	C73.9,41.1,74,41.1,74.1,41.1z"/>
<path fill="#003261" d="M48.5,57.9c-1.1-1.8-2.2-3.6-3.3-5.4c-0.3-0.5-0.3-0.6,0.2-1c1.7-1.3,2.6-3,2.3-5.2c-0.2-2-1.1-3.4-3-4.3
	c-1.4-0.6-3-0.8-4.5-0.9c-1.5,0-3,0.1-4.5,0.2c-0.4,0-0.6,0.2-0.6,0.6V50h0v7.9c0,0.6,0.1,0.7,0.7,0.6c0.9,0,1.8,0,2.7,0
	c0.6,0,0.7-0.1,0.7-0.7c-0.1-1.4,0.1-2.8-0.1-4.2c-0.1-0.6,0.2-0.8,0.8-0.8c0.3,0,0.5,0.1,0.8,0.1c0.4-0.1,0.7,0.1,0.9,0.5
	c0.8,1.5,1.5,3,2.3,4.5c0.2,0.4,0.5,0.6,1,0.6c1.1,0,2.2,0,3.3,0c0.2,0,0.4,0,0.5-0.1C48.8,58.2,48.6,58,48.5,57.9z M42,49.4
	c-0.8,0.3-1.7,0.3-2.6,0.2c-0.2,0-0.3-0.2-0.3-0.4v-1.8c0-0.6,0-1.2,0-1.8c0-0.6,0.1-0.7,0.7-0.8c0.6-0.1,1.3-0.1,1.9,0.1
	c1.1,0.3,1.7,1.1,1.8,2.1C43.6,48,43,49.1,42,49.4z"/>
<path fill="#003261" d="M86.8,50c0-2.2,0-4.3,0-6.5c0-0.5,0-1,0-1.5c0-0.5,0.2-0.6,0.7-0.6c0.9,0.1,1.9,0.1,2.8,0
	c0.4,0,0.6,0.1,0.6,0.5c0,0.6,0,1.2,0,1.9c0,3.1,0,6.3,0,9.4c0,0.4,0,0.8,0,1.1c0,0.5,0.2,0.6,0.6,0.6c1.9,0,3.8,0,5.6,0
	c0.5,0,0.6,0.1,0.6,0.6c0,0.8,0,1.7,0,2.5c0,0.5-0.1,0.5-0.5,0.5c-1.7,0-3.3,0-5,0c-1.6,0-3.2,0-4.8,0c-0.5,0-0.6,0-0.6-0.6
	C86.8,55.3,86.8,52.6,86.8,50z"/>
<path fill="#003261" d="M84.1,49.9c0,2.7,0,5.4,0,8c0,0.5-0.1,0.6-0.6,0.6c-1,0-2,0-3,0c-0.5,0-0.6-0.1-0.6-0.6c0-5.1,0-10.1,0-15.2
	c0-0.3,0-0.6,0-0.9c0-0.4,0.2-0.5,0.5-0.5c1.1,0.1,2.1,0,3.2,0c0.4,0,0.5,0.1,0.5,0.5c0,2,0,4,0,6C84.1,48.5,84.1,49.2,84.1,49.9z"
	/>
<path fill="#003261" d="M95.4,41.3c-1.3,0-2.3,1-2.3,2.3c0,1.3,1,2.3,2.3,2.3c1.3,0,2.3-1,2.3-2.3C97.7,42.3,96.7,41.3,95.4,41.3z
	 M95.4,45.4c-1,0-1.8-0.8-1.8-1.8c0-1,0.8-1.8,1.8-1.8c1,0,1.8,0.8,1.8,1.8C97.2,44.6,96.4,45.4,95.4,45.4z"/>
<path fill="#013361" d="M95.8,43.7c0.4-0.2,0.5-0.4,0.4-0.8c-0.1-0.3-0.3-0.4-0.6-0.5c-0.3,0-0.6,0-0.9,0c-0.2,0-0.2,0.1-0.2,0.2
	c0,0.5,0,1,0,1.6c0,0.2,0,0.3,0.2,0.3c0.2,0,0.3-0.1,0.3-0.3c0-0.1,0-0.2,0-0.3c0-0.1,0-0.2,0-0.2c0.1,0,0.2,0,0.2,0.1
	c0.2,0.1,0.3,0.3,0.3,0.5c0.2,0.3,0.4,0.3,0.8,0.3C96.3,44.2,96.1,43.9,95.8,43.7z M95.3,43.4c-0.2,0-0.3,0-0.3-0.3
	c0-0.2,0-0.3,0.3-0.3c0.2,0,0.4,0,0.4,0.3C95.8,43.4,95.6,43.4,95.3,43.4z"/>
</svg>
