<?xml version="1.0" encoding="utf-8"?>
<!-- Generator: Adobe Illustrator 27.4.1, SVG Export Plug-In . SVG Version: 6.00 Build 0)  -->
<svg version="1.2" baseProfile="tiny-ps" id="Layer_1" xmlns="http://www.w3.org/2000/svg" xmlns:xlink="http://www.w3.org/1999/xlink" viewBox="0 0 750 750" xml:space="preserve">
<title>Help The Persecuted</title>
<g>
	<g>
		<g>
			<path d="M265.42,361.88c-1.32-9.05-1.36-18.39-1.3-27.53c0.08-12.11-0.44-24.61,2.04-36.42c0.09-0.44,0.22-0.82,0.38-1.17
				c-0.37-7.89,1.18-15.7,0.84-23.61c-0.07-1.74,0.97-3.53,1.54-5.45c-0.17-0.52-0.7-1.38-0.7-2.24c-0.01-4.15-0.76-8.38,0.76-12.38
				c-0.73-9.54,0.52-19.01,0.54-28.53c0.01-2.45-0.07-4.9-0.11-7.36l-0.12-7.36c-0.04-2.66-0.55-5.47,0.01-7.92
				c0.53-2.35-0.42-4.28-0.2-6.38c0.12-1.1,0.6-2.13,0.92-3.19c-0.53-1.52-1.84-2.86-0.62-4.78c0.35-0.55,0.48-1.44,0.49-2.17
				c0.02-2.45-0.12-4.91-0.07-7.35c0.05-2.57,0.49-5.16,0.33-7.7c-0.13-2.12,0.68-4,0.48-6.13c-0.25-2.63-0.13-5.3-0.18-8.51
				c0.52-0.45,1.3-1.12,2.08-1.79c-0.49-0.58-0.93-0.85-0.94-1.15c-0.19-6.3-0.35-12.61-0.48-18.92c-0.04-1.76,0.47-3.42,0.74-5.07
				c0.54-3.33-0.06-6.91,0.05-10.37c0.11-3.52,0.6-7.02,0.77-10.55c0.11-2.44-0.05-4.9-0.09-7.35c-0.03-1.84-0.17-3.69-0.06-5.51
				c0.11-1.94-0.59-3.89,0.47-5.86c0.66-1.23,0.84-3.03,0.84-4.58c0.01-1.94-0.99-4.17-0.49-5.77c1.3-4.15,0.72-8.31,0.59-12.43
				c-0.06-1.86,0.86-3.41,0.46-5.34c-0.44-2.1-0.48-4.34-0.51-6.52c-0.01-0.87,0.47-1.75,0.68-2.47c-0.27-0.88-0.8-1.79-0.76-2.64
				c0.15-2.88-0.93-5.93,0.67-8.63c-2.48-3.05-0.52-6.42,0.49-8.59c1.31-2.79-0.72-4.02-0.61-5.99c-2,0.51-1.55-3.28-3.44-2.96
				c-3.36-3.66-7.54-2.9-11.13-1.89c-2.65,0.75-6.24,0.68-7.67,4.49l-7.5,0.14c-0.26-0.89-0.47-1.6-0.66-2.24l-2.42,0.04
				c-0.44,1.05-0.78,2.41-1.48,3.38c-0.69,0.97-1.74,1.54-2.57,2.24c-0.31,3.16-0.73,6.25-0.88,9.37c-0.15,3.03,0.65,6.4-0.17,9.06
				c-1.01,3.27-0.37,6.33-0.54,9.45c-0.16,3.02,0.34,6.17-0.17,9.08c-0.49,2.83,1.85,5.91-0.42,8.24c0.31,0.96,0.74,1.81,0.84,2.71
				c0.44,3.78-0.54,7.44-0.73,11.16c-0.47,9.21,0.97,18.47-0.52,27.73c-0.6,3.72,0.14,7.74,0.04,11.62
				c-0.1,3.73-0.48,7.44-0.8,11.16c-0.11,1.23-0.93,2.93-0.53,3.55c0.99,1.55,0.61,3.12,0.61,4.63c0,1.27-0.95,2.6-0.81,3.79
				c0.72,6.46-1.17,12.73-0.73,19.13c0.2,3-0.52,5.58-1.74,7.78c1.43,2.21,0.75,4.53,0.91,6.65c0.16,2.23,0.21,4.5,0.1,6.74
				c-0.1,2.11,0.61,4.22-0.77,6.36c-0.89,1.38,0.84,3.47,0.12,5.69c-0.62,1.93-0.04,4.43-0.04,6.68c0,2.09,0.44,4.27-0.71,6.15
				c1.62,1.85,0.47,4.12,0.97,6.05c-0.88,0.4-1.46,0.66-1.76,0.8c0.28,1.22,0.74,2.3,0.73,3.37c-0.1,6.58,1.01,13.24-0.65,19.74
				c-0.22,14.75,1.5,29.53-0.3,44.25c0.71,13.34-1.35,26.63-0.3,39.96c0.12,1.51-1,2.52-0.46,4.14c0.47,1.41,0.91,3.41,0.44,4.6
				c-1.38,3.51-0.6,7.07-0.72,10.6c-0.06,2.04,0.05,4.09,0.08,6.13l0.1,6.13c0.03,2.04,0.14,4.09,0.08,6.13
				c-0.07,2.1,0.71,4.4-0.81,6.21c2.49,0.94-0.88,3.54,0.9,4.68c-0.27,1.86-0.68,3.72-0.76,5.59c-0.05,1.06,0.44,2.15,0.7,3.29
				c-0.18,0.65-0.55,1.52-0.64,2.44c-0.21,2.19-0.95,4.78-0.27,6.51c1.05,2.7-0.41,4.49-0.5,6.69c-0.12,2.85,0.18,5.73,0.06,8.58
				c-0.12,2.71-0.63,5.39-0.81,8.1c-0.12,1.82,0.03,3.67,0.06,5.51c0.03,1.63,0.09,3.27,0.07,4.9c-0.03,1.79,0.42,4.44-0.34,5.18
				c-1.72,1.69,1.21,3.22-0.29,4.44c0.87,2.71-0.5,5.32-0.15,8.09c0.38,3.01,0.17,6.12,0.22,9.18l0.2,12.87
				c0.04,2.25,0.17,4.5,0.08,6.74c-0.08,1.94,0.09,3.85-0.29,5.89c-0.31,1.62-0.95,3.61-0.48,5.48c0.43,1.72-1.12,3.2-0.02,5.19
				c0.95,1.73-0.65,3.67-0.79,5.57c-0.12,1.62,0.1,3.27,0.02,4.9c-0.08,1.54-0.19,3.13-0.58,4.58c-0.39,1.44-0.3,2.43,0.3,3.84
				c0.43,1.02-0.39,2.75-0.47,4.17c-0.09,1.62-0.06,3.28,0.07,4.9c0.48,6.02-1.54,11.86-0.76,17.9c0.04,0.29-0.5,0.71-0.44,0.96
				c0.48,2.03-1.27,4.37,0.3,5.67c-0.75,5.68-1.44,10.9-2.11,15.99c0.29,0.69,0.57,1.37,0.82,1.99c-0.46,0.63-0.79,1.08-1.11,1.52
				c0.32,0.41,0.64,0.83,0.88,1.15c-0.57,1.23-1.24,2.34-1.62,3.58c-0.41,1.33-0.47,2.77,0.74,3.72c-0.77,1.08-1,2.33-0.84,3.74
				c0.16,1.37,0.21,2.76,0.4,4.13c0.04,0.31,0.46,0.55,0.38,0.46c-1.68,4.68,0.58,9.77-1.56,14.85c0.56,0.34,1.39,0.85,1.99,1.21
				c-1.12,1.11-1.95,1.92-3.05,3.02c1.14,0.38,1.69,0.57,1.72,0.58c-0.14,1.8-0.24,3.2-0.33,4.29c0.92,0.4,1.39,0.61,2.23,0.98
				c-1.07,0.49-1.64,0.75-2.24,1.02c0.4,0.7,0.75,1.29,1.08,1.87c-0.73,1.91-1.18,3.88-2.78,4.56c0.87,0.71,1.82,1.49,2.97,2.43
				c-0.95,0.45-1.53,0.71-2.31,1.08c0.31,1.44,1.15,3.13,0.78,4.1c-0.69,1.77,1.24,2.69,0.5,4.11c-0.72,1.37-1.16,2.75-0.93,4.43
				c0.38,2.68,0.68,5.38,1.07,8.49c-0.54,0.52-1.31,1.26-2.08,2c0.54,0.7,0.88,1.14,1.39,1.8c-0.33,0.72-0.68,1.51-1.04,2.29
				c1.4,1.38,1.4,3.57,0.72,4.89c-1.75,3.44,0.71,7.65-1.74,10.65c0.49,0.63,0.83,1.06,1.16,1.49c-0.3,0.42-0.61,0.86-0.95,1.33
				c0.68,0.39,1.32,0.75,2.05,1.17c-0.75,0.43-1.35,0.79-2.16,1.25c0.9,0.44,1.49,0.73,2.43,1.2c-1.07,0.49-1.64,0.75-1.95,0.89
				c0.35,1.39,0.66,2.64,1.06,4.25c-0.81,0.73-1.57,1.43-2.34,2.13c0.44,0.52,0.69,0.79,0.91,1.09c0.1,0.13,0.2,0.35,0.18,0.51
				c-0.36,3.28-1.84,6.53-0.13,9.87c-1.47,1.32-0.4,2.33,0.29,3.39c-1.47,0.98-0.14,1.79,0.1,2.7c0.31,1.2,0.53,2.43,0.72,3.34
				c-0.89,1.78-1.7,3.41-2.51,5.02c0.62,0.73,1.22,1.44,1.82,2.15c-1.36,2.64-0.77,5.33,0.02,8.05c0.17-1.56,0.35-3.13,0.64-5.73
				c0.85,4.25,0.85,4.25,3.06,5.79c0.35-0.41,0.7-0.83,0.94-1.11c1.05,2.39,2.14,4.86,3.4,7.73c1.23-1.28,2.17-2.26,3.22-3.35
				c0.93,0.41,1.8,0.8,2.44,1.08c0.96-0.32,2.15-1.22,2.67-0.82c2.16,1.7,4.44,0.83,6.66,0.99c1.31,0.09,3.08-0.59,3.86,0.22
				c2.24,2.3,3.92,0.28,5.78-0.48c0.43,0.45,0.8,0.84,1.18,1.24c0.33-0.37,0.67-0.77,1-1.15c0.35,0.37,0.71,0.75,0.84,0.88
				c1.36-0.57,2.51-1.05,3.83-1.6c0.54-4.14,1.25-8.3,1.58-12.51c0.42-5.4,0.54-10.84,0.78-16.26c0.01-0.2-0.08-0.5,0-0.6
				c1.89-2.22,0.76-5,0.81-7.49c0.06-2.77,1.06-5.22,1.05-8.09c-0.02-7.59-1.42-15.28,0.51-22.8c-0.57-8.45,0.66-16.86,0.47-25.25
				c-0.19-8.07,0.71-16.01,0.84-24.03c0.02-1.33,0.82-2.61-0.16-3.89c1.86-4.18,0.44-8.67,0.81-12.99c0.24-2.88-0.92-5.93,0.61-8.74
				c0.07-0.13-1.08-1.47-0.38-2.93c0.37-0.77-0.39-2.28-0.47-3.47c-0.12-1.83-0.21-3.69-0.07-5.51c0.14-1.9,0.62-3.75,0.87-5.65
				c0.63-4.85-1.26-9.38-1.29-14.73c-0.54-0.44-1.37-1.12-2.89-2.35c3.16-0.67,0.79-2.45,1.38-3.98c0.64-1.66,0.33-3.9,0.36-5.89
				c0.03-1.84-0.05-3.68-0.08-5.52l-0.11-6.68c0.52-0.45,1.3-1.12,1.53-1.31c-0.27-1.99-0.56-3.29-0.6-4.61
				c-0.12-4.08-0.28-8.18-0.18-12.26c0.1-4.13,0.54-8.25,0.76-12.38c0.27-5.15-0.88-10.37,0.69-15.48c0.36-1.15,0.16-2.98-0.38-4.04
				c-1.17-2.32-1.15-5.12-0.5-6.93c0.68-1.9-1.45-4.09,0.69-5.36c-0.04-2.25-0.16-4.5-0.09-6.74c0.32-10.46-1.22-20.91,0.37-31.41
				c0.73-4.8,0.28-9.85,0.68-14.83c0.63-7.67,0.25-15.53-0.26-23.26C264.52,371.63,265.08,366.76,265.42,361.88z"/>
		</g>
		<g>
			<path d="M521.89,28.19c-0.88-2.61-1.76-5.23-2.58-7.69c-5.17-0.84-10.02,0.69-14.87,0.78c-5.07,0.1-9.82,2.15-15.01,2.84
				c-0.49,3.28-4.38,1.09-4.92,4.5c0.33,2.61,1.23,5.16,0.75,7.16c-0.56,2.36-0.34,4.77-0.86,6.94c-1.71,7.18-2.19,14.58-2.75,21.98
				c-0.05,0.61,0.18,1.6-0.04,1.8c-2.06,1.86-0.42,4.88-1.44,7.32c-0.93,2.24-0.38,5.55-0.41,8.39c-0.04,3.9-0.01,7.79-0.01,11.05
				c-0.73,1.86-1.24,3.15-1.75,4.46c0.62,0.29,1.17,0.55,1.79,0.84c-0.37,0.54-0.66,0.97-0.65,0.96c1.02,3.58,1.24,7.41,0.36,10.27
				c-0.83,2.72-0.01,5.34-0.77,7.61c-0.85,2.53-0.85,5.01-0.85,7.57c-0.01,13.8-0.18,27.61,0.04,41.4
				c0.22,13.84-0.62,27.67,0.76,41.53c1.08,10.83-0.52,21.9,0.96,32.86c0.7,5.19,0.15,10.68,0.09,16.04
				c-0.01,0.9-0.46,1.78-0.72,2.73c0.19,0.47,0.73,1.16,0.71,1.81c-0.21,4.9,0.72,9.87-0.62,14.61c0.59,0.16,1.02,0.28,1.61,0.44
				c-0.04,7.4,0.05,14.69-0.06,21.97c-0.37,0-0.71,0-1.06,0.01c0.44,16.52,0.16,33.06-0.27,49.58c0.31,0.4,0.62,0.8,0.93,1.22
				c-0.24,0.28-0.65,0.74-0.99,1.14c-0.01,0.37-0.02,0.75-0.03,1.12c0.25,0.77,0.49,1.44,0.5,2.11c0.05,7.83-0.06,15.66,0.06,23.48
				c0.11,7.7-1.68,15.24-0.97,22.97c0.04,0.41,0.14,0.99-0.02,1.21c-1.37,1.86-1.08,4.2-0.86,6.3c0.26,2.55-0.94,4.57-0.99,6.92
				c-0.09,3.58-0.12,7.07-0.82,10.66c-0.69,3.57-0.41,7.43-0.91,11.22c-0.68,5.2-0.05,10.68-0.21,16.03
				c-0.14,4.85-0.64,9.69-0.89,14.53c-0.12,2.26-0.02,4.53-0.02,6.8v7.42c0,2.27,0.07,4.54-0.02,6.8c-0.09,2.38-0.47,4.75-0.48,7.12
				c-0.01,2.02,0.47,4.04,0.48,6.07c0.05,13.18,0.02,26.37,0.02,39.55c0,1.24-0.17,2.52,0.05,3.69c0.2,1.08-1.81,1.59-0.32,2.9
				c0.21,0.18-0.2,1.39-0.16,2.11c0.07,1.16,0.33,2.3,0.42,3.46c0.07,1.02,0.04,2.06,0.01,3.09c-0.03,1.38,0.32,2.92-0.87,3.85
				c0.94,1,0.9,2.35,0.89,3.78c-0.03,13.18,0,26.37-0.04,39.55c0,1.41-0.77,3.01-0.46,4.19c0.9,3.4,0.27,6.67,0.42,9.67
				c-0.86,0.41-1.31,0.63-1.71,0.82c0.78,1.38,1.39,2.47,2.09,3.71c-0.92,0.57-1.56,0.97-2.18,1.36c-0.31,1.77,2.08,3.38,0.1,5.16
				c0.44,1.82,1.14,3.61,1.26,5.46c0.14,1.98-0.23,4.03-0.44,6.04c-0.2,1.91,0.71,4.16-0.93,5.67c1.07,2.79,1.31,8.24,0.55,11.64
				c-0.96,4.31-0.98,8.59,0.35,12.67c-0.32,0.95-0.84,1.83-0.84,2.7c0,0.87,0.76,1.73,0.77,2.6c0,0.85-0.7,1.67-0.79,2.56
				c-0.09,0.93,0.07,1.98,0.32,2.88c0.67,2.44-0.17,4.88,0.04,7.4c0.18,2.07-0.65,4.35,0.19,6.71c0.28,0.78-0.02,2,0.21,3.16
				c0.26,1.29-0.46,2.92-0.65,3.89c0.33,1.54,0.73,2.62,0.75,3.7c0.07,4.53,0.02,9.06,0.04,13.59c0,0.36,0.19,0.71,0.29,1.07
				c1.03,0.53,2.06,1.06,3.1,1.6c0.31-1.15,0.5-1.87,0.81-2.98c1.45,0.67,2.81,1.29,3.79,1.74c0.63,1.91,1.13,3.4,1.75,5.28
				c1.22-2.23-0.22-4.84,1.6-6.07c0.2-0.14,0.43-0.22,0.71-0.37c0.11,0.64,0.2,1.2,0.26,1.6c1.8,0.93,3.54,1.84,5.36,2.78
				c1.4-1.82,3.03-0.95,4.65,0.14c0.42-1.24,0.74-2.54,1.28-3.64c0.28-0.57,0.96-0.81,1.84-1.48v6.04c0.94,0.6,1.71,1.08,2.51,1.59
				c0.16-0.21,0.34-0.63,0.61-0.77c1.89-0.97,3.81-1.88,5.68-2.8c1.35,1.11,2,2.53,1.42,4.58c-0.54,0.27-1.09,0.54-1.69,0.83
				c0.03,0.61,0.06,1.17,0.11,2.01c0.57-0.42,0.99-0.72,1.38-1c0.32,0.32,0.63,0.63,0.79,0.8c0.92-1.75,1.74-3.32,2.64-5.03
				c-0.94-0.88-1.47-1.77-0.28-2.71c-0.79-0.82-0.99-1.88-0.92-3.17c0.08-1.43-0.1-2.9,0.06-4.32c0.12-1.1,0.59-2.14,0.83-2.96
				c-1.34-4.85-1.37-9.45,0.07-14.05c-1.66-2.45-0.74-5.3-0.89-7.92c0.74-0.34,1.28-0.59,1.89-0.87c-0.31-0.32-0.51-0.61-0.75-0.74
				c-0.38-0.22-0.8-0.33-1.25-0.51c0.38-0.56,0.67-0.99,0.54-0.79c-0.15-1.89-0.37-3.18-0.3-4.45c0.05-0.9,0.75-1.78,0.73-2.65
				c-0.21-7.29,1.69-14.41,0.99-21.74c-0.08-0.81-0.28-1.98,0.03-2.41c1.68-2.31,0.78-5.06,0.84-7.58c0.07-2.8,1.43-5.17,1.07-8.15
				c-0.34-2.81-0.57-5.95,0.06-8.58c0.67-2.79-0.28-5.13-0.24-7.69c0.07-4.56,0.51-9.13-0.72-13.75c-0.97-3.65,0.23-18.82,1.1-24.01
				c0.06-0.34,0.42-0.59,0.42-0.58c-0.26-1.33-0.53-2.39-0.68-3.48c-0.7-5.08,0.95-9.92,0.94-14.94
				c-0.02-5.36,0.16-10.72-0.05-16.06c-0.21-5.16-0.8-10.3-1.24-15.6c-0.41-0.23-1.04-0.59-1.76-1c0.45-1.15,0.74-1.91,1.04-2.69
				c-0.67-0.31-1.22-0.56-1.62-0.74c1.92-3.52-0.36-6.16-0.88-8.81c0.57-1.46,1.06-2.74,1.57-4.05c-0.7-0.32-1.25-0.57-1.78-0.81
				c0-3.84-0.07-7.55,0.04-11.25c0.05-1.53-0.23-3.03,0.48-4.69c0.48-1.12-0.88-3.59-0.4-4.71c1.17-2.73,0.71-5.48,0.81-8.23
				c0.1-2.67,0.02-5.35,0.02-8.03v-7.42c0-2.68-0.13-5.37,0.04-8.03c0.14-2.33-0.8-4.92,0.78-6.97c-2.06-2.38,0.25-4.61,0.15-6.94
				c-0.11-2.46-0.02-4.94-0.02-7.41v-7.42c0-2.68-0.07-5.36,0.02-8.03c0.08-2.24,1.01-4.88,0.39-6.6c-0.99-2.72,0.92-4.24,0.69-6.72
				c-0.51-5.69-0.27-11.52-0.13-17.28c0.12-4.58-0.72-9.24,0.84-13.74c0.39-1.13,0.26-3.01-0.21-4.12
				c-1.44-3.39-0.64-6.48,0.32-9.44c-0.44-0.77-0.8-1.38-0.92-1.59c0.37-1.83,0.83-3.1,0.83-4.38c0.01-2.29,0.54-4.74-0.73-6.81
				c2.04-3.88,0.27-8.44,1.48-12.77c1.12-4,0.24-8.95,0.24-13.48V302.8c0-12.77,0.02-25.54-0.02-38.31c0-1.3-0.33-2.61-0.55-4.31
				c-0.04,0.06,0.27-0.39,0.75-1.06c-0.32-0.73-0.66-1.52-1.01-2.3c1.06-3.39,0.99-3.49,0.37-6.7c-0.33-1.71-0.92-4.04-0.35-5.2
				c1.16-2.36,0.65-4.68,0.81-7.01c0.38-5.59-0.56-11.22,0.83-16.84c0.69-2.79,0-6.14,0.15-9.22c0.16-3.14,0.6-6.25,0.91-9.38
				c0.18-1.81,0.47-3.62,0.46-5.42c-0.01-1.97-0.43-3.94-0.44-5.91c-0.05-9.89,0-19.78-0.04-29.66c-0.01-2.55,0.21-5.04-0.84-7.58
				c-0.99-2.41,0.69-4.92,0.82-7.46c0.02-0.49-0.65-1.21-0.54-1.48c0.9-2.09-1.6-4.47,0.38-6.5c0.33-0.34,0.19-1.53,0.19-2.32
				c0.01-6.39-0.12-12.78,0.04-19.16c0.16-6.43,0.7-12.84,0.86-19.27c0.07-2.88,0.29-5.51,1.76-7.41c-0.28-1.01-0.66-1.88-0.75-2.8
				c-0.29-3.01,0.75-5.92,0.79-8.76c0.13-8.71,1.75-17.3,1.09-26.06c-0.15-2.04-0.1-4.12,0.01-6.17c0.04-0.82,0.48-1.61,0.63-2.08
				c-0.35-0.98-0.59-1.67-0.8-2.27c0.44-0.63,0.75-1.08,1.03-1.47C519.31,36.49,523.48,32.25,521.89,28.19z"/>
		</g>
		<g>
			<path d="M564.02,345.29c-5.4-0.47-8.45-0.92-11.52-0.95c-3.21-0.03-7.06,1.01-9.49,0.36c-2.64-0.71-5.6,0.64-7.66-0.85
				c-0.35-0.25-1.88-0.03-2.87-0.04c-40.56-0.09-81.08-1.79-121.66-1.03c-5.98,0.11-11.98,0.52-17.89,1.07
				c-5.73,0.54-11.65,1.08-16.89,2.34c-2.57,0.62-4.81,0.78-7.27,0.78c-23.97,0.03-47.94,0.04-71.91-0.01
				c-2.72-0.01-5.44-0.4-8.63-0.65c-2.38,0.19-5.58,0.86-8.39,0.53c-1.95-0.22-3.76-1.04-6.14-0.94c-2.28,0.1-4.6-0.02-6.89,0.03
				c-1.89,0.04-5.05-0.11-5.44,0.36c-1.54,1.82-3.71-1.49-5.37,0.38c-0.48,0.54-4.2,0.25-6.44,0.31
				c-13.85,0.36-27.7,1.08-41.54,0.94c-9.81-0.09-19.3-1.81-28.13-3.96c0-3.76-0.98-7.04,0.21-10.08c2.23-5.7,1.38-11.4,1.87-17.1
				c0.15-1.78,1.56-3.53,2.6-5.72c1.63-0.9,3.92-2.17,6.14-3.4c18.55-0.36,36.99-0.85,55.44-1.03c18.38-0.18,36.77-0.04,55.16-0.04
				c18.72,0,37.43,0.06,56.15-0.05c4-0.02,7.98-0.71,11.99-1c3.7-0.26,7.27-0.1,11.14-0.88c4.47-0.9,9.82-0.55,14.87-1.09
				c9.02-0.97,18.43-1.13,27.69-1.19c22.98-0.15,45.97,0.02,68.95-0.09c7.71-0.04,14.98,1.6,22.84,1.19
				c7.48-0.4,15.14-0.37,22.62,0.03c3.96,0.21,7.8,1.28,12.24,0.85c0.51-0.58,1.13-1.3,1.85-2.13c0.38,1.65,2.78,2.01,4.6,2.82
				c1.38,0.61,2.26,2.79,1.35,3.41c-2.22,1.51,2.64,1.82,1.02,3.12c-1.31,1.06-1.72,2.44-2.32,3.35c2.97,1.58,5.44,2.89,8.22,4.36
				c0.7-0.18,1.97-0.51,3.49-0.91c0.15,0.57,0.27,1.05,0.4,1.53c-1.37,0.36-2.61,0.69-4.23,1.11c1.57,0.31,2.7,0.54,4.11,0.82
				c-0.57,0.39-1.09,0.74-1.64,1.11c1.61,2.92,1.61,2.92-1.08,9.27c-0.78-0.88-1.36-1.53-2-2.25c-0.41,0.24-1.14,0.51-1.07,0.67
				c0.59,1.24,1.34,2.45,2.15,3.88c1.45-0.69,2.13-1.01,2.81-1.33c1,0.54,1.93,1.04,2.99,1.61c-2.54,0.62-5.03,1.23-7.54,1.84
				c-0.57,0.72-1.16,1.48-1.89,2.4c1.22,1.23,3.04,2.72-0.49,4.15C561.19,343.61,561.82,343.98,564.02,345.29z"/>
		</g>
		<g>
			<path d="M393.38,162.55c1.3,1.24,2.46,2.71,3.37,4.6c0.27,1.42,0.24,2.84,0.75,3.6c1.12,1.66,0.09,4.14,1.8,5.84
				c1.12,1.11,1.23,4.13,1.67,6.34c0.72,3.61,1.91,7.05,1.58,11c-0.25,2.91-0.05,5.89-0.05,8.84c-0.9,4.68-3.52,7.59-5.9,10.75
				c-1.26,2.44-2.69,4.73-4.24,6.77c-10.51,13.86-29.79,17.82-46.23,17.12c1.65,5.88,2.66,11.81,3.24,18.2
				c0.71,7.78,0.96,15.62,0.92,23.46c0.25-0.04,0.5-0.09,0.75-0.1c3.34-0.08,6.68-0.08,10.02-0.07
				c14.09-1.57,40.98-12.14,51.75-20.33c12.02-9.14,11.81-16.95,18.92-26.2c0.82-2.68,2.67-4.93,4.02-7.4
				c0.09-0.17,0.08-0.46,0.07-0.69c-0.14-6.5,3.43-11.57,3.86-17.84c2.07-2.18-1.43-5.14,0.59-7.33c0.48-5.58,0.34-25.92-1.29-30.34
				c-1.41-3.83-1.93-7.89-2.79-11.77c-0.94-4.25-2.3-8.12-3.7-12.04c-0.66-1.85-1.06-4-2.01-5.52c-2.16-3.43-3.8-7.42-5.96-10.71
				c-2.26-3.45-5.43-5.96-8.41-8.44c-2.15-1.79-4.17-4.29-7.02-4.21c-0.3,0.01-0.62-0.37-0.92-0.58c-0.1-0.68-0.21-1.35-0.38-2.41
				c-0.51,0.51-0.86,0.87-1.27,1.28c-3.14-2.29-6.48-3.13-9.3-5c-4.7-3.12-9.69-3.71-14.56-4.9c-4.12-1.01-8.49-0.01-12.74-0.26
				c-4.3-0.25-8.57-1.1-12.87-1.38c-3.69-0.24-7.4-0.06-11.1-0.03c-0.33,0-0.65,0.27-1.18,0.5c-0.65,1.43-1.36,3.01-2.12,4.69
				c-0.14,2,0,4.26-0.49,6.26c-1.15,4.74-2.18,9.44-1.89,14.5c0.11,1.96,0.02,3.93,0.02,6.45c-0.66,0.66-1.54,1.53-2.11,2.09
				c-0.27,2.3-0.03,4.39-0.22,6.39C356.18,140,383.29,146.64,393.38,162.55z"/>
		</g>
		<g>
			<g>
				<path d="M375.7,572.25c0.07-8.96,0.11-17.92,0.01-26.87c-0.1-9,0.07-17.97-0.68-27.01c-0.74-8.84-0.18-17.89-0.15-26.85
					c0.01-1.98-0.03-4.04,0.36-5.9c0.4-1.96-0.43-3.47-0.45-5.3c-0.06-8.96,0.04-17.87,1.13-26.65c-0.35-4.21-0.75-8.42-1.24-12.62
					c-1.45-12.44-4.13-28.93-0.97-41.76c-0.47-13.18-0.52-26.36,1.29-39.37c0.13-0.94,0.4-1.65,0.76-2.2
					c-0.01-0.91-0.01-1.81-0.01-2.67c0.3-1.29,0.72-1.92,1.19-2.25c-0.05-0.96-0.06-1.93-0.01-2.92c0.24-5.14,1.15-10.1,0.8-15.27
					c-0.27-4.01-0.84-8.07-1.57-11.96c-0.6-3.18-1.28-8.21-3.62-9.66c-0.17-0.11-0.36-0.19-0.55-0.27
					c-4.27,0.5-8.53,1.05-12.79,1.45c-1.62,0.15-3.26,0.24-4.9,0.3c-1.84,0.62-3.59,1.44-5.1,2.55c-4.84,3.56-4.3,15.26-5.58,21.73
					c-1.16,5.85-3.29,10.06-6.04,13.15c0.62,0.32,1.22,0.66,1.77,1.04c0,4.28,0.12,8.56-0.03,12.82c-0.15,4.15,0.36,8.27-0.5,12.5
					c-0.76,3.75-0.48,7.92-1.74,10.97c0.24,1.41,0.56,2.34,0.51,3.21c-0.21,3.3-0.84,6.6-0.78,9.88c0.18,8.59-0.9,17.27,0.81,25.76
					c-0.65,11.69,1.27,23.24,0.88,34.92c-0.04,1.2-0.26,2.69,0.13,3.56c1.22,2.65,0.76,5.17,0.34,7.91c-0.2,1.27,0.7,3.23,0.29,4.01
					c-0.79,1.49-0.69,2.93-0.78,4.48c-0.08,1.27,0.11,2.33,0.84,3.14c-0.88,0.75-0.84,1.94-0.84,3.18
					c0.02,7.74-0.03,15.47,0.05,23.21c0.01,1.26,0.54,2.52,0.51,2.41c-0.25,3.4-0.98,5.93-0.4,7.46c0.68,1.79-0.28,2.68-0.18,3.99
					c0.13,1.61,0.5,4.04-0.07,4.72c-1.13,1.34-0.42,3.07-1.09,4.37c-0.78,1.54,0.64,2.88,0.41,4.68c-0.34,2.56-0.09,5.27-0.09,7.92
					c0,2.44,0.38,5.05-0.1,7.29c-0.53,2.49,0.3,4.67,0.07,6.96c-0.07,0.71-0.47,1.35-0.74,2.07c0.2,0.3,0.49,0.74,0.9,1.36
					c-0.21,0.62-0.44,1.3-0.82,2.4c1.26,1.29,0.59,3.27,0.66,4.98c0.1,2.64,0.03,5.29,0.03,7.94v32.37c0,2.65,0.06,5.3-0.02,7.94
					c-0.08,2.77-0.4,5.52-0.41,8.28c-0.01,2.4,0.47,4.81,0.39,7.19c-0.32,9.81,0.65,19.63-0.71,29.46
					c-0.68,4.9-0.19,10.15-0.09,15.24c0.04,2.08,0.46,4.14,0.71,6.25c-0.2,0.35-0.44,0.76-0.48,0.81c1.12,1.8,2.14,3.46,3.07,4.95
					v10.3c-0.63,0.3-1.12,0.53-1.41,0.67c1.27,1.45,2.54,2.91,3.8,4.35c0.27-0.33,0.59-0.72,1.05-1.29
					c1.81,2.03,3.73,1.94,5.78-0.25c0.6,1.97,0.78,4.3,2.65,4.15c0.28-0.83,0.56-1.67,0.81-2.41h1.88c0.18,0.71,0.36,1.42,0.54,2.13
					c1.28,1.41,2.48-1.34,4.05,0.09c1.01,0.92,2.87,0.52,4.1-0.65c0.42,0.37,0.76,0.68,1.04,0.93c2.11-1.61,4.1-3.12,5.61-4.27
					c1.14-2.88,2.08-5.27,2.64-6.67c-0.55-3.66-0.23-6.47-0.36-9.22c0.6-0.88,1.18-1.75,1.75-2.6c0.05-4.79,0.25-9.48,0.72-14.23
					c0.61-6.19,0.46-12.63,0.06-18.89c-0.39-6.23,1.65-12.36,0.1-18.55c-0.09-0.36-0.12-0.9,0-1.2c1.56-3.73,0.64-7.81,0.81-11.73
					c0.04-0.85-0.42-1.75-0.58-2.35c0.22-1.19,0.84-2.67,0.55-3.29c-1.14-2.41-0.77-4.99-0.77-7.5c-0.01-5.56-0.17-11.1,0.77-16.62
					c0.43-2.5,0.07-5.27,0.07-7.92c0-2.44-0.42-5.09,0.11-7.28C376.45,576.7,375.68,574.57,375.7,572.25z"/>
			</g>
			<g>
				<path d="M334.61,416.4c-0.74,2.03,0.68,2.98,0.32,4.68c-0.39,1.87-0.54,4.35,0.03,5.99c0.61,1.74,0.64,3.33,0.76,5.07
					c0.1,1.42,0.86,3.19,0.48,4.15c-0.77,1.94,0.58,2.99,0.49,4.73c-0.32,6.47-0.13,12.99-0.13,18.45c-0.3,1.29-0.72,1.92-1.19,2.25
					c0.05,0.96,0.06,1.93,0.01,2.92c-0.24,5.14-1.15,10.1-0.8,15.27c0.27,4.01,0.84,8.07,1.57,11.96c0.6,3.18,1.28,8.21,3.62,9.66
					c0.17,0.11,0.36,0.19,0.55,0.27c4.27-0.5,8.53-1.05,12.79-1.45c1.62-0.15,3.26-0.24,4.9-0.3c1.84-0.62,3.59-1.44,5.1-2.55
					c4.84-3.56,4.3-15.26,5.58-21.73c1.16-5.85,3.29-10.06,6.04-13.15c-0.62-0.32-1.22-0.66-1.77-1.04c0-4.28-0.12-8.56,0.03-12.82
					c0.15-4.15-0.36-8.27,0.5-12.5c0.76-3.75,0.48-7.92,1.74-10.97c-0.24-1.41-0.56-2.34-0.51-3.21c0.21-3.3,0.84-6.6,0.78-9.88
					c-0.18-8.59,0.9-17.27-0.81-25.76c0.65-11.69-1.27-23.24-0.88-34.92c0.04-1.2,0.26-2.69-0.13-3.56
					c-1.22-2.65-0.76-5.17-0.34-7.91c0.2-1.27-0.7-3.23-0.29-4.01c0.79-1.49,0.69-2.93,0.78-4.48c0.08-1.27-0.11-2.33-0.84-3.14
					c0.88-0.75,0.84-1.94,0.84-3.18c-0.02-7.74,0.03-15.47-0.05-23.21c-0.01-1.26-0.54-2.52-0.51-2.41c0.25-3.4,0.98-5.93,0.4-7.46
					c-0.68-1.79,0.28-2.68,0.18-3.99c-0.13-1.61-0.5-4.04,0.07-4.72c1.13-1.34,0.42-3.07,1.09-4.37c0.78-1.54-0.64-2.88-0.41-4.68
					c0.34-2.56,0.09-5.27,0.09-7.92c0-2.44-0.38-5.05,0.1-7.29c0.53-2.49-0.3-4.67-0.07-6.96c0.07-0.71,0.47-1.35,0.74-2.07
					c-0.2-0.3-0.49-0.74-0.9-1.36c0.21-0.62,0.44-1.3,0.82-2.4c-1.26-1.29-0.59-3.27-0.66-4.98c-0.1-2.64-0.03-5.29-0.03-7.94
					v-32.37c0-2.65-0.06-5.3,0.02-7.94c0.08-2.77,0.4-5.52,0.41-8.28c0.01-2.4-0.47-4.81-0.39-7.19c0.32-9.81-0.65-19.63,0.71-29.46
					c0.68-4.9,0.19-10.15,0.09-15.24c-0.04-2.08-0.46-4.14-0.71-6.25c0.2-0.35,0.44-0.76,0.48-0.81c-1.12-1.8-2.14-3.46-3.07-4.95
					v-10.3c0.63-0.3,1.12-0.53,1.41-0.67c-1.27-1.45-2.54-2.91-3.8-4.35c-0.27,0.33-0.59,0.72-1.05,1.29
					c-1.81-2.03-3.73-1.94-5.78,0.25c-0.6-1.97-0.78-4.3-2.65-4.15c-0.28,0.83-0.56,1.67-0.81,2.41h-1.88
					c-0.18-0.71-0.36-1.42-0.54-2.13c-1.28-1.41-2.48,1.34-4.05-0.09c-1.01-0.92-2.87-0.52-4.1,0.65c-0.42-0.37-0.76-0.68-1.04-0.93
					c-2.11,1.61-4.1,3.12-5.61,4.27c-1.14,2.88-2.08,5.27-2.64,6.67c0.55,3.66,0.23,6.47,0.36,9.22c-0.6,0.88-1.18,1.75-1.75,2.6
					c-0.05,4.79-0.25,9.48-0.72,14.23c-0.61,6.19-0.46,12.63-0.06,18.89c0.39,6.23-1.65,12.36-0.1,18.55c0.09,0.36,0.12,0.9,0,1.2
					c-1.56,3.73-0.64,7.81-0.81,11.73c-0.04,0.85,0.42,1.75,0.58,2.35c-0.22,1.19-0.84,2.67-0.55,3.29c1.14,2.41,0.77,4.99,0.77,7.5
					c0.01,5.56,0.17,11.1-0.77,16.62c-0.43,2.5-0.07,5.27-0.07,7.92c0,2.44,0.42,5.09-0.11,7.28c-0.61,2.54,0.16,4.67,0.14,6.98
					c-0.07,8.96-0.11,17.92-0.01,26.87c0.1,9-0.07,17.97,0.68,27.01c0.74,8.84,0.18,17.89,0.15,26.85c-0.01,1.98,0.03,4.04-0.36,5.9
					c-0.4,1.96,0.43,3.47,0.45,5.3c0.09,12.07-0.13,24.06-2.65,35.75c-0.51,2.38-0.84,4.94-0.86,7.42
					c-0.09,10.99,0.01,21.99-0.08,32.98C333.91,412.57,335.1,415.05,334.61,416.4z"/>
			</g>
		</g>
	</g>
</g>
</svg>
