<?xml version="1.0" encoding="utf-8"?>

<svg version="1.2" baseProfile="tiny-ps" width="300" height="300" viewBox="0 0 300 300" fill="none" xmlns="http://www.w3.org/2000/svg" xmlns:xlink="http://www.w3.org/1999/xlink">
<title>Booking.com</title>
<g>
<path d="M0 60C0 26.8629 26.8629 0 60 0H240C273.137 0 300 26.8629 300 60V240C300 273.137 273.137 300 240 300H60C26.8629 300 0 273.137 0 240V60Z" fill="#003B95"/>
<path d="M224 223.366C233.26 223.366 240.802 215.824 240.802 206.546C240.802 197.251 233.277 189.726 224 189.726C214.758 189.726 207.233 197.251 207.233 206.546C207.233 215.824 214.758 223.366 224 223.366Z" fill="white"/>
<path d="M173.143 150.431L168.894 148.059L172.594 144.907C176.915 141.189 184.121 132.885 184.121 118.473C184.121 96.4652 167.053 82.2656 140.636 82.2656H110.484H107.049C99.2055 82.5489 92.9557 88.9052 92.8672 96.8016V221.713H141.238C170.611 221.713 189.574 205.725 189.574 180.973C189.574 167.623 183.43 156.239 173.143 150.431ZM119.709 115.056C119.709 108.593 122.453 105.513 128.455 105.123H140.459C150.746 105.123 156.925 111.285 156.925 121.607C156.925 129.468 152.694 138.622 140.831 138.622H119.709V115.056ZM143.168 198.112L119.709 198.094V170.031C119.709 164.029 122.046 160.913 127.18 160.205H143.168C154.588 160.205 161.989 167.393 161.989 179.061C161.989 191.03 154.783 198.112 143.168 198.112Z" fill="white"/>
</g>

</svg>