<svg version="1.2" baseProfile="tiny-ps" id="Layer_1" viewBox="0 0 100 100" xmlns="http://www.w3.org/2000/svg">
  <title>Commonwealth Bank of Australia</title>
  <defs>
    <linearGradient id="linear-gradient" x1="19.51" y1="50" x2="80.49" y2="50" gradientUnits="userSpaceOnUse">
      <stop offset="0.32" stop-color="#fde516"></stop>
      <stop offset="0.51" stop-color="#fde112"></stop>
      <stop offset="0.7" stop-color="#fed508"></stop>
      <stop offset="0.8" stop-color="#fc0"></stop>
    </linearGradient>
    <linearGradient id="linear-gradient-2" x1="34.76" y1="34.76" x2="77.87" y2="77.87" gradientUnits="userSpaceOnUse">
      <stop offset="0" stop-color="#ff0"></stop>
      <stop offset="0.04" stop-color="#fffd00" stop-opacity=".96"></stop>
      <stop offset="0.09" stop-color="#fff800" stop-opacity=".87"></stop>
      <stop offset="0.17" stop-color="#fff000" stop-opacity=".71"></stop>
      <stop offset="0.26" stop-color="#ffe500" stop-opacity=".5"></stop>
      <stop offset="0.35" stop-color="gold" stop-opacity=".22"></stop>
      <stop offset="0.42" stop-color="#fc0" stop-opacity="0"></stop>
    </linearGradient>
    <linearGradient id="linear-gradient-3" x1="43.83" y1="61.28" x2="108.48" y2="61.28" gradientUnits="userSpaceOnUse">
      <stop offset="0" stop-color="#d7851a"></stop>
      <stop offset="0.06" stop-color="#da891a"></stop>
      <stop offset="0.13" stop-color="#e4971a"></stop>
      <stop offset="0.2" stop-color="#f5ad1a"></stop>
      <stop offset="0.28" stop-color="#f5b01a" stop-opacity=".99"></stop>
      <stop offset="0.35" stop-color="#f6b91b" stop-opacity=".94"></stop>
      <stop offset="0.4" stop-color="#f8c91d" stop-opacity=".87"></stop>
      <stop offset="0.46" stop-color="#fae01f" stop-opacity=".76"></stop>
      <stop offset="0.46" stop-color="#fbe320" stop-opacity=".75"></stop>
      <stop offset="0.61" stop-color="#fdf3a6" stop-opacity=".48"></stop>
      <stop offset="0.7" stop-color="#fff" stop-opacity=".3"></stop>
    </linearGradient>
    <linearGradient id="linear-gradient-4" x1="57.09" y1="58.54" x2="66.95" y2="64.99" gradientUnits="userSpaceOnUse">
      <stop offset="0" stop-color="#712b03ff"></stop>
      <stop offset="0.05" stop-color="#dc6725ff"></stop>
      <stop offset="0.31" stop-color="#eb921169"></stop>
	  <stop offset="0.50" stop-color="#ffcc0000"></stop>
    </linearGradient>
    <linearGradient id="linear-gradient-5" x1="56.63" y1="57.96" x2="70.73" y2="68.04" gradientUnits="userSpaceOnUse">
      <stop offset="0.02" stop-color="#333224ff"></stop>
      <stop offset="0.07" stop-color="#6c2f08cf"></stop>
      <stop offset="0.21" stop-color="#be69265c"></stop>
      <stop offset="0.35" stop-color="#ce842117"></stop>
      <stop offset="0.47" stop-color="#ff9b0200"></stop>
    </linearGradient>
  </defs>
  <g>
    <g id="Layer_1">
      <g>
        <rect width="100" height="100" fill="#fff"></rect>
        <g>
          <path d="M 50 19.51 L 80.49 50 L 50 80.49 L 19.51 50 L 50 19.51" fill="url(#linear-gradient)"></path>
          <path d="M 50.354 19.156 L 80.844 49.646 L 81.197 50 L 80.844 50.354 L 50.354 80.844 L 50 81.197 L 49.646 80.844 L 19.156 50.354 L 18.803 50 L 19.156 49.646 L 49.646 19.156 L 50.354 19.864 L 20.217 50 L 50 79.783 L 79.783 50 L 49.646 19.864 Z" fill="none"></path>
          <path d="M 50 19.51 L 80.49 50 L 50 80.49 L 19.51 50 L 50 19.51" fill="url(#linear-gradient-2)"></path>
          <path d="M 50.354 19.156 L 80.844 49.646 L 81.197 50 L 80.844 50.354 L 50.354 80.844 L 50 81.197 L 49.646 80.844 L 19.156 50.354 L 18.803 50 L 19.156 49.646 L 49.646 19.156 L 50.354 19.864 L 20.217 50 L 50 79.783 L 79.783 50 L 49.646 19.864 Z" fill="none"></path>
          <g>
            <path d="M 61.630001068115234 53.029998779296875 L 61.58000183105469 53.08000183105469 L 61.540000915527344 53.15999984741211 L 50 80.48999786376953 L 50 80.48999786376953 L 80.48999786376953 50 L 74.58000183105469 44.099998474121094 L 72.56999969482422 42.08000183105469 L 61.630001068115234 53.029998779296875 Z" fill="url(#linear-gradient-3)"></path>
            <path d="M 61.630001068115234 53.029998779296875 L 61.58000183105469 53.08000183105469 L 61.540000915527344 53.15999984741211 L 50 80.48999786376953 L 50 80.48999786376953 L 80.48999786376953 50 L 74.58000183105469 44.099998474121094 L 72.56999969482422 42.08000183105469 L 61.630001068115234 53.029998779296875 Z" fill="url(#linear-gradient-4)"></path>
            <path d="M 61.630001068115234 53.029998779296875 L 61.58000183105469 53.08000183105469 L 61.540000915527344 53.15999984741211 L 50 80.48999786376953 L 50 80.48999786376953 L 80.48999786376953 50 L 74.58000183105469 44.099998474121094 L 72.56999969482422 42.08000183105469 L 61.630001068115234 53.029998779296875 Z" fill="url(#linear-gradient-5)"></path>
          </g>
        </g>
      </g>
    </g>
  </g>
</svg>