<?xml version="1.0" encoding="utf-8"?>
<!-- BIMI from DMARC Advisor   -->
<svg xmlns:xlink="http://www.w3.org/1999/xlink" viewBox="0 0 481 481" version="1.2" baseProfile="tiny-ps" xmlns="http://www.w3.org/2000/svg" xml:space="preserve">
<title>Feyenoord</title>
<path fill="#AE9962" d="M0.5,240.8C0.3,108.2,107.6,0.7,240.2,0.5c132.6-0.2,240.1,107.2,240.3,239.7
		c0.2,132.5-107.2,240.1-239.7,240.3C108.2,480.7,0.7,373.3,0.5,240.8L0.5,240.8L0.5,240.8z"/>
<path d="M10.8,240.8C10.7,113.9,113.4,11,240.2,10.8C367.1,10.7,470,113.4,470.2,240.2c0.2,126.8-102.5,229.8-229.4,229.9
		C113.9,470.3,11,367.6,10.8,240.8L10.8,240.8L10.8,240.8z"/>
<path fill="#AE9962" d="M75.2,240.7C75.1,149.2,149.1,75,240.6,74.9c91.5-0.1,165.7,74,165.8,165.4
		c0.1,91.5-73.9,165.7-165.4,165.8C149.5,406.3,75.3,332.2,75.2,240.7L75.2,240.7L75.2,240.7z"/>
<path fill="#AE9962" d="M436.7,145.6c0.5,3.2,0,6.3-1.6,9.2c-1.2,2.3-2.9,4.4-4.9,6c-1.9,1.5-3.9,2.9-6.1,4.1
		c-5.2,2.7-10.2,3.9-14.8,3.6c-6.3-0.3-11-3.5-14-9.4l-8.6-16.9l39.2-20l8.6,16.9C435.7,141.5,436.4,143.7,436.7,145.6L436.7,145.6
		L436.7,145.6z M423.1,133.7l-25.6,13.1l3.9,7.6c2,3.9,5.2,5.6,9.9,5.2c2.5-0.2,5.2-1.1,8.1-2.6c4-2,6.7-4.2,8.2-6.6
		c1.5-2.3,1.3-5.3-0.6-9.1L423.1,133.7L423.1,133.7L423.1,133.7z M405.2,98c0.6,1.7,0.8,3.4,0.6,5.2c-0.2,1.4-0.6,2.9-1.2,4.2
		c-0.6,1.3-1.5,2.6-2.8,3.8c-1.5,1.4-3.4,2.5-5.6,3.1c-2.2,0.6-4.4,0.3-6.7-0.9c0.8,2,0.9,3.9,0.4,5.5c-0.5,1.6-1.9,3.5-4.1,5.6
		l-2.2,2c-1.4,1.4-2.4,2.3-2.8,3c-0.7,1-0.9,1.9-0.7,2.9l-0.8,0.8l-6.9-7.4c0.5-0.8,1-1.5,1.3-2c0.8-1,1.6-2,2.5-2.9l2.9-2.8
		c2-1.9,3-3.6,3-5c0-1.3-0.9-3-2.8-5l-6.5-6.9l-12.6,11.8l-6.1-6.6l32.1-30.1l14.8,15.8C403.3,94.4,404.6,96.3,405.2,98L405.2,98
		L405.2,98z M387,88.1l-8.6,8.1l7.1,7.6c1.4,1.5,2.6,2.5,3.7,2.9c1.9,0.8,3.7,0.3,5.5-1.4c1.9-1.8,2.7-3.7,2.1-5.6
		c-0.3-1.1-1.1-2.3-2.5-3.8L387,88.1L387,88.1z M340.8,92c-4.6,1.3-9.6,0.4-15.1-2.7c-5.4-3.1-8.8-7-9.9-11.6
		c-1.8-5.8-0.7-12.2,3.3-19.1c4-7,9-11.1,14.9-12.4c4.6-1.3,9.6-0.4,15.1,2.7c5.4,3.1,8.8,7,9.9,11.6c1.8,5.7,0.7,12-3.3,19.1
		C351.7,86.4,346.7,90.5,340.8,92L340.8,92L340.8,92z M339.1,83.3c3.2-1.3,6-4,8.5-8.3c2.5-4.3,3.4-8.1,2.9-11.5
		c-0.5-3.4-2.3-6-5.5-7.8c-3.1-1.8-6.3-2.1-9.6-0.9c-3.2,1.3-6,4-8.5,8.3c-2.5,4.3-3.4,8.1-2.9,11.6c0.5,3.4,2.4,6,5.5,7.8
		C332.7,84.3,335.9,84.6,339.1,83.3L339.1,83.3L339.1,83.3z M292.4,69c-4,2.6-9.1,3.1-15.2,1.8c-6.1-1.4-10.4-4.1-12.9-8.2
		c-3.4-5.1-4.2-11.4-2.5-19.2c1.8-7.9,5.3-13.2,10.6-16.2c4-2.6,9-3.2,15.2-1.8c6.1,1.4,10.4,4.1,12.9,8.2
		c3.4,4.9,4.2,11.3,2.4,19.2C301.1,60.5,297.6,65.9,292.4,69L292.4,69z M288.2,61.2c2.7-2.1,4.6-5.6,5.7-10.5
		c1.1-4.8,0.9-8.7-0.6-11.9c-1.5-3.1-4-5.1-7.5-5.9c-3.5-0.8-6.7-0.2-9.4,2c-2.7,2.1-4.6,5.6-5.7,10.4c-1.1,4.8-0.9,8.8,0.6,11.9
		c1.5,3.1,4,5.1,7.6,5.9C282.5,64,285.5,63.3,288.2,61.2z M206.5,23.6l9.6-0.7l19.7,29.4l-2.2-30.7l8.5-0.6l3.1,43.9l-9.2,0.6
		L216,35.7l2.2,31.2l-8.5,0.6L206.5,23.6L206.5,23.6z M184.7,36.4l-22,7.6l3.1,8.8l20.2-7l2.5,7.2l-20.2,7l3.7,10.7l23-8l2.6,7.5
		l-31.5,10.9l-14.4-41.6l30.5-10.5L184.7,36.4L184.7,36.4L184.7,36.4z M122.9,55.5l8.4-6.1l4.3,30.9l9.7,13.4l-7.4,5.4l-9.7-13.4
		L99.7,72.4l8.8-6.4l18.7,10.1L122.9,55.5C122.9,55.5,122.9,55.5,122.9,55.5z M92.3,89.3L77,106.9l7.1,6.1l14-16.1l5.8,5l-14,16.1
		l8.6,7.4l16-18.4l6,5.2l-21.8,25.2l-33.2-28.8l21.2-24.4L92.3,89.3L92.3,89.3L92.3,89.3z M39.1,153.8L53.3,126l6.9,3.5l-10,19.7
		l9,4.6l8.8-17.2l6.8,3.5L66,157.2l16.4,8.4l-4.1,8.1L39.1,153.8L39.1,153.8L39.1,153.8z M89.1,330.3c0.1,1.8-0.2,3.5-0.9,5.2
		c-0.6,1.3-1.4,2.6-2.3,3.7c-1,1.1-2.2,2-3.8,2.8c-1.9,0.9-4,1.4-6.3,1.3c-2.2-0.1-4.3-1-6.1-2.8c0.2,2.2-0.2,4-1.2,5.4
		c-1,1.4-2.8,2.8-5.6,4.2l-2.7,1.3c-1.8,0.9-3,1.5-3.6,2c-0.9,0.7-1.4,1.6-1.5,2.6l-1,0.5l-4.4-9.1c0.6-0.5,1.2-1.1,1.9-1.6
		c1-0.8,2.1-1.4,3.2-2l3.6-1.9c2.5-1.3,4-2.5,4.4-3.9c0.4-1.3,0-3.1-1.2-5.6l-4.2-8.5l-15.5,7.6l-4-8.1L77.5,304l9.5,19.4
		C88.3,326.2,89,328.5,89.1,330.3L89.1,330.3L89.1,330.3z M74.6,315.5L64,320.7l4.6,9.4c0.9,1.9,1.8,3.1,2.7,3.9
		c1.6,1.3,3.4,1.4,5.7,0.3c2.4-1.2,3.6-2.7,3.7-4.7c0-1.1-0.4-2.6-1.3-4.4L74.6,315.5L74.6,315.5z M93.4,397
		c-4.7-0.1-9.3-2.5-13.6-7c-4.3-4.6-6.3-9.3-6.1-14c0-6.1,2.9-11.8,8.7-17.3c5.9-5.5,11.8-8,17.8-7.5c4.7,0.1,9.3,2.4,13.6,7
		c4.3,4.6,6.3,9.2,6.1,14c0.1,6-2.8,11.7-8.7,17.3C105.4,394.9,99.5,397.4,93.4,397L93.4,397z M94.3,388.3c3.4-0.3,6.9-2.1,10.6-5.5
		c3.6-3.4,5.6-6.7,6.1-10.2c0.5-3.4-0.5-6.4-2.9-9.1c-2.5-2.7-5.5-3.9-8.9-3.6c-3.4,0.3-7,2.1-10.6,5.5c-3.6,3.4-5.7,6.8-6.2,10.2
		c-0.5,3.4,0.5,6.4,3,9.1C87.9,387.3,90.9,388.5,94.3,388.3C94.3,388.3,94.3,388.3,94.3,388.3z M132.7,378.3l29.9,19.4l-4.2,6.5
		l-11-7.1l-19.7,30.4l-7.8-5l19.7-30.4l-11.1-7.2L132.7,378.3z M171.9,401.5l33.9,11l-2.4,7.4l-12.5-4l-11.2,34.5l-8.8-2.9
		l11.2-34.5l-12.6-4.1L171.9,401.5z M248.9,451.2l-0.3,7.9l-33.3-1.1l1.5-44l32.3,1.1l-0.3,7.8l-23.3-0.8l-0.3,9.4l21.4,0.7
		l-0.3,7.6l-21.4-0.7l-0.4,11.3L248.9,451.2z M291.5,408.7c1.8,0.3,3.4,1,4.8,2c1.2,0.9,2.2,1.9,3.1,3.1c0.8,1.2,1.4,2.6,1.9,4.3
		c0.5,2,0.4,4.2-0.1,6.4c-0.6,2.2-1.9,3.9-4.1,5.3c2.2,0.3,3.8,1.1,5,2.4c1.2,1.3,2.1,3.4,2.8,6.4l0.7,2.9c0.5,1.9,0.8,3.2,1.2,3.9
		c0.5,1,1.2,1.7,2.2,2.1l0.2,1.1l-9.9,2.3c-0.5-0.9-0.8-1.6-1.1-2.2c-0.5-1.2-0.9-2.4-1.2-3.6l-1-4c-0.7-2.7-1.6-4.4-2.8-5.1
		c-1.1-0.7-3-0.7-5.7-0.1l-9.3,2.2l3.9,16.8l-8.8,2l-10-42.9l21-4.9C287.3,408.6,289.7,408.4,291.5,408.7L291.5,408.7L291.5,408.7z
		 M273.8,419.5l2.7,11.5l10.1-2.4c2-0.5,3.5-1,4.4-1.7c1.6-1.2,2.1-3,1.6-5.5c-0.6-2.6-1.9-4.1-3.8-4.6c-1.1-0.3-2.6-0.2-4.5,0.3
		L273.8,419.5L273.8,419.5L273.8,419.5z M333.7,388.9c3.2-0.7,6.2-0.3,9.3,1.1c2.4,1.1,4.5,2.6,6.3,4.6c1.6,1.8,3.1,3.8,4.4,5.9
		c2.9,5.1,4.4,9.9,4.4,14.6c0,6.3-2.9,11.1-8.6,14.5l-16.4,9.5L311,401l16.4-9.5C329.7,390.2,331.8,389.3,333.7,388.9L333.7,388.9
		L333.7,388.9z M322.5,403.2l14.4,24.9l7.3-4.2c3.8-2.2,5.3-5.5,4.6-10.1c-0.4-2.5-1.4-5.1-3-8c-2.2-3.9-4.6-6.5-7-7.8
		c-2.4-1.4-5.4-1-9.1,1.1L322.5,403.2L322.5,403.2L322.5,403.2z M361,366.7l7.1-7.6l42.8,18.6l-6.8,7.3l-8.6-4.1l-11.1,11.9l4.5,8.4
		l-6.5,7L361,366.7L361,366.7L361,366.7z M380.7,385.7l7.6-8.2l-16.4-7.8L380.7,385.7L380.7,385.7L380.7,385.7L380.7,385.7z
		 M398.5,314.9l6.2-11.7l38.9,20.6l-4,7.6l-27.4-14.6c-0.7-0.4,23.1,22.2,23.1,22.2l-4.1,8.2c0,0-32.6-6.9-31.8-6.5l27.7,14.7
		l-4,7.6l-38.9-20.6l6.3-11.8l33.6,7.7L398.5,314.9L398.5,314.9L398.5,314.9z"/>
<path fill="#E2001A" d="M203.5,229l-0.1-83.6l36.8,0v83.3L203.5,229z"/>
<path fill="#AE9962" d="M426,242.1c0-6,4.9-10.9,10.9-10.9c6,0,10.9,4.9,10.9,10.9c0,6-4.8,10.9-10.9,10.9
		C430.9,252.9,426,248.1,426,242.1L426,242.1L426,242.1z"/>
<path fill="#E2001A" d="M240.2,133.1l-92.7,1.2l0,11.2l11,0c0,0,12.2,0,12.2,17.2c0,17.1,0.2,160.8,0.2,160.8
		c0,12.2-10.3,13-14.3,13c-8.3,0-8.3,0-8.3,0l0,11.9l79.5-0.1l0-11.9c0,0-7.4,0-10.1,0c0,0-14.4-1.1-14.4-13.2
		c0-15-0.1-82.1-0.1-82.1l36.8,0.1v158.1c-86.7,0.1-156.8-72-156.9-158.7C83.2,154,153.4,83.6,240.1,83.5L240.2,133.1L240.2,133.1
		L240.2,133.1z"/>
<path fill="#FFFFFF" d="M240.2,399.4c86.7-0.1,157.4-72.4,157.3-159.1c-0.1-86.7-70.6-156.9-157.3-156.8l0.1,49.6l75.7-0.9
		l6.8,53.8l-12.2,0c0,0-2.6-18.5-15-28.1c-8.3-6.4-18.7-12.9-36.7-12.9c-9.7,0-18.6,0.3-18.6,0.3v83.3c3.1,0,15.5-3.5,15.5-18.1
		c0-5.8-0.2-5.8-0.2-5.8l10.2,0l13.2,71.8l-12.2,0.3c-2.2-8.6-7.8-37.6-26.5-35.7L240.2,399.4L240.2,399.4L240.2,399.4z"/>
<path fill="#AE9962" d="M32.9,242.1c0-6,4.9-10.9,10.9-10.9c6,0,10.9,4.9,10.9,10.9c0,6-4.9,10.9-10.9,10.9
		C37.7,252.9,32.9,248.1,32.9,242.1L32.9,242.1L32.9,242.1z"/>
</svg>