<svg baseProfile="tiny-ps" version="1.2" viewBox="0 0 400 400" xmlns="http://www.w3.org/2000/svg"><title>KLINGSPOR</title><path d="M196 60c-34 22-45 30-62 48l-11 11-8 11c-27 35-43 73-50 115l-2 11-1 19-1 22v4l10 6c33 19 66 30 108 34l12 1 37-1 10-1c34-5 67-17 95-34l8-5-1-40-1-10c-4-23-8-38-16-58A249 249 0 0 0 216 66l-14-8h-2l-4 2z" fill="#fff"/><path d="M196 60c-34 22-45 30-62 48l-11 11-8 11c-27 35-43 73-50 115l-2 11-1 19-1 22v4l10 6c33 19 66 30 108 34l12 1 37-1 10-1c34-5 67-17 95-34l8-5-1-40-1-10c-4-23-8-38-16-58A249 249 0 0 0 216 66l-14-8h-2l-4 2zm4 51v10h-2l-2-6-2-6 3-4 3-4v10zm0 40v11l-4 1-8 2-5 3-7 7-7 7-4 5c-9 16-12 29-15 63v9l-3-2-3-2v-6c0-24 7-50 17-67l4-7 7-7 6-7 7-4 7-3 2-3 2-3 1-4v-5h3v12zm15 16 6 3 4 5c6 5 12 15 16 24 6 12 10 34 10 51v7l-1 1-1 1-2-1-3-1v-21l-2-9c-4-28-19-50-35-55l-5-1v-7h4l9 3zM92 266l3 1-3 6-3 7 7-4 8-3 2 1c2 0 3 1 3 2l-8 4-7 4v3l2 10v7l-7-4-1-7-1-8-1-2-3 6-3 6-3-1-3-2 6-12 7-13c1-2 2-2 5-1zm224 5 2 3v4l-1 5 6 4 6 4c0 1-1 2-3 2l-2 2-6-4-5-4h-2c-2 1-1 2 2 8l3 5-3 2-3 1-15-27 6-4 7-4h5l3 3zm-197 10h2v2l-4 11-4 12v1l5 1 5 2-1 3-1 2-8-3-9-3 12-29 3 1zm172 4c5 5 8 15 5 21l-1 3-4 3-4 2-4 1h-4l-3-1-4-2-3-4-2-4-1-6v-5l4-7 4-2 3-2h6l5 1 3 2zm-148 4-4 15-4 15h-3l-4-1 8-28v-2l3 1h4zm11 2h2l4 12 4 11 2-9 2-10h2l3 1h2l-3 15-3 16-4-1h-3l-4-11-4-10-1-1-2 9-2 10-3-1h-3l3-16 4-16 1 1h3zm105 3 2 3v7l-2 3-2 2-3 1-4 1v1l1 5 1 6h-3l-3 1-4-15-3-15 5-1 4-2 9 1 2 2zm-54 4c3 3 3 4-1 5l-2 2-2-3-2-2h-2l-4 1-2 1-2 4-1 7v3l2 3c1 3 3 4 8 4h3v-6h-6v-6h13v5l-1 9v3h-17l-3-2-5-5-1-2v-12l2-4 2-3 3-3 4-2h5l6 1 3 2zm25-1 3 2-2 1c-3 2-4 2-4 1l-1-1h-6l-1 2v1l2 4 5 1c6 1 9 3 10 7v3l-1 3-2 4-4 2-3 1-9-1-3-3 2-2 2-2 2 2c3 2 5 1 7-1l2-2-1-2-1-2-9-1-3-3-3-3v-6l2-2 2-3 3-1 6-1h3l2 2zm76-22-3 2 2 4 2 3 2-1 3-2v-4l-1-1c-2-2-3-2-5-1zm-31 15-2 2v3c0 3 3 10 5 12l4 2h3l5-4v-8l-2-4c-3-4-5-6-8-6h-3l-2 3zm-27 7h-2l1 3 1 4h5c2-3 1-8-2-8l-3 1z" fill="#fff300"/><path d="M196 60c-34 22-45 30-62 48l-11 11-8 11c-27 35-43 73-50 115l-2 11-1 19-1 22v4l10 6c33 19 66 30 108 34l12 1 37-1 10-1c34-5 67-17 95-34l8-5-1-40-1-10c-4-23-8-38-16-58A249 249 0 0 0 216 66l-14-8h-2l-4 2zm9 17a234 234 0 0 1 115 156l2 10-3 3c-4 4-24 15-33 19-20 9-48 16-76 18h-11l-13-1a191 191 0 0 1-100-35l-6-4 3-10c8-36 19-58 41-90l10-14 10-10c14-15 35-32 51-41 6-3 5-3 10-1zM92 266l3 1-3 6-3 7 7-4 8-3 2 1c2 0 3 1 3 2l-8 4-7 4v3l2 10v7l-7-4-1-7-1-8-1-2-3 6-3 6-3-1-3-2 6-12 7-13c1-2 2-2 5-1zm224 5 2 3v4l-1 5 6 4 6 4c0 1-1 2-3 2l-2 2-6-4-5-4h-2c-2 1-1 2 2 8l3 5-3 2-3 1-15-27 6-4 7-4h5l3 3zm-197 10h2v2l-4 11-4 12v1l5 1 5 2-1 3-1 2-8-3-9-3 12-29 3 1zm172 4c5 5 8 15 5 21l-1 3-4 3-4 2-4 1h-4l-3-1-4-2-3-4-2-4-1-6v-5l4-7 4-2 3-2h6l5 1 3 2zm-148 4-4 15-4 15h-3l-4-1 8-28v-2l3 1h4zm11 2h2l4 12 4 11 2-9 2-10h2l3 1h2l-3 15-3 16-4-1h-3l-4-11-4-10-1-1-2 9-2 10-3-1h-3l3-16 4-16 1 1h3zm105 3 2 3v7l-2 3-2 2-3 1-4 1v1l1 5 1 6h-3l-3 1-4-15-3-15 5-1 4-2 9 1 2 2zm-54 4c3 3 3 4-1 5l-2 2-2-3-2-2h-2l-4 1-2 1-2 4-1 7v3l2 3c1 3 3 4 8 4h3v-6h-6v-6h13v5l-1 9v3h-17l-3-2-5-5-1-2v-12l2-4 2-3 3-3 4-2h5l6 1 3 2zm25-1 3 2-2 1c-3 2-4 2-4 1l-1-1h-6l-1 2v1l2 4 5 1c6 1 9 3 10 7v3l-1 3-2 4-4 2-3 1-9-1-3-3 2-2 2-2 2 2c3 2 5 1 7-1l2-2-1-2-1-2-9-1-3-3-3-3v-6l2-2 2-3 3-1 6-1h3l2 2zM197 92l-3 7-4 4-3 3 2 5 2 11v6h19v-2l1-5 2-9 1-6-6-6-3-8-4-8-4 8zm3 19v10h-2l-2-6-2-6 3-4 3-4v10zm-7 23h-2v5l-2 8-1 2-7 4c-12 7-20 16-29 32-5 12-9 25-12 39l-2 11v12l1 12 6 4 6 4 14-6v-15l1-15 2-8c2-11 3-16 7-24l3-6 10-10 6-3 5-2h5c14 2 26 18 32 43l1 7 1 16 1 16 6 4 7 3 6-3 6-5a142 142 0 0 0-18-82l-3-5-7-7-7-8-7-4-8-4-1-2-2-7v-5l-3-1h-15zm7 17v11l-4 1-8 2-5 3-7 7-7 7-4 5c-9 16-12 29-14 63l-1 9-3-2-3-1v-7c0-23 7-50 17-67l4-7 7-7 6-7 7-4 7-3 2-3 2-3 1-4v-5h3v12zm15 16 6 3 4 5c6 5 12 15 16 24 6 12 10 34 10 51v7l-1 1-1 1-2-1-2-1-1-10v-10l-2-10c-4-28-18-50-35-55l-4-1-1-7h4l9 3zm91 108-3 2 2 4 2 3 2-1 3-2v-4l-1-1c-2-2-3-2-5-1zm-31 15-2 2v3c0 3 3 10 5 12l4 2h3l5-4v-8l-2-4c-3-4-5-6-8-6h-3l-2 3zm-27 7h-2l1 3 1 4h5c2-3 1-8-2-8l-3 1z" fill="#d9d9d9"/><path d="M196 60c-34 22-45 30-62 48l-11 11-8 11c-27 35-43 73-50 115l-2 11-1 19-1 22v4l10 6c33 19 66 30 108 34l12 1 37-1 10-1c34-5 67-17 95-34l8-5-1-40-1-10c-4-23-8-38-16-58A249 249 0 0 0 216 66l-14-8h-2l-4 2zm9 17a234 234 0 0 1 115 156l2 10-3 3c-4 4-24 15-33 19-20 9-48 16-76 18h-11l-13-1a191 191 0 0 1-100-35l-6-4 3-10c8-36 19-58 41-90l10-14 10-10c14-15 35-32 51-41 6-3 5-3 10-1zM92 273l-3 7 7-4 8-3 3 1 3 2-8 4-8 4v4l2 16-4-2-3-2-1-6-1-8-1-3-3 6-3 6-3-2c-2 0-3-1-3-2l7-14 7-13 4 2 3 1-3 6zm224-2 2 2v10l6 4 6 4-6 4-12-8-2 2 3 5 3 6-3 2-4 1-7-14-8-13 13-8h6l3 3zm-195 11h1l-5 12-4 12 5 2 5 2-1 2-1 3-9-3-8-3 2-6 6-15 3-9 3 1 3 1zm169 3 5 6 2 4v9l-3 6-9 5h-8l-3-2-3-2-3-5-2-4v-10l2-3 6-5 4-2h9l3 3zm-147 5-5 16-3 14-3-1-4-2 4-15 4-15 4 1 3 1v1zm12 1h1l3 11 5 11s2-4 2-9l2-10 3 1 3 1v2l-3 16-2 13h-3c-4-1-4-1-8-12l-4-10-1-1-2 10-1 9-3-1h-4l3-16 3-16h2l4 1zm104 2c2 3 3 7 2 11l-1 3-5 2-5 3v2l2 5v4h-3l-3 1v-1l-4-14-4-14v-1c2-1 9-3 14-3h5l2 2zm-57 3 5 5c0 1-1 2-3 2l-2 2-5-5h-2l-4 2-2 1-1 4-1 7v3l3 3 2 3h7l1-3v-3h-6v-6h13l-1 8v9h-17l-3-2-3-1-3-7v-12l2-4 2-4 3-1 4-2h9l2 1zm28 1c3 2 3 3 0 4l-2 1-1-1-4-1h-2l-2 3 1 2 1 2 5 1 5 1 2 2 2 1 1 4v3l-2 3-1 3-7 3h-8l-2-2-3-2 2-2 3-2 5 3 2-1 3-1v-5l-4-1-7-2-3-1-1-3c-3-7 2-14 11-14h4l2 2zM197 92l-3 7-4 4-3 3 2 5 2 11v6h19v-2l1-5 2-9 1-6-6-6-3-8-4-8-4 8zm3 19v10h-3l-1-6-2-6 3-4 3-4v10zm-7 23h-2v5l-2 8-2 2-6 4c-13 7-21 16-29 32-5 12-10 25-12 39l-2 11v24l7 4 6 4 13-6 1-15 1-15 1-8c3-11 4-16 8-24l3-6 10-10 6-3 5-2h5c14 2 26 18 32 43l1 7 1 16v16l7 4 6 3 6-3 7-5a142 142 0 0 0-18-82l-4-5-7-7-7-8-7-4-7-4-1-2-2-7-1-5-3-1h-14zm7 17v11l-3 1c-7 1-10 2-15 6l-5 4-11 13-4 8-6 15a196 196 0 0 0-6 47v3l-3-2-3-1v-13c1-23 6-40 15-57l4-9 7-8 7-8 7-3 7-4 2-3 3-3 1-4v-5h3v12zm15 16 6 3 5 5c16 16 25 44 25 75v10l-4-1-3-2v-19l-1-10c-3-18-9-32-18-43l-4-5-5-3-6-4-4-1h-4l-1-4v-4h7l7 3zm90 108-2 2 2 3 1 3h2c4 0 5-5 2-7-1-2-2-2-4-1zm-29 14-2 1-1 4v3l2 5 2 4 4 2 3 1 2-1 3-2 1-5v-3l-1-4-3-3-3-4h-2l-5 2zm-28 8h-2l1 3 1 4v1h2c2 0 4-2 4-5v-2l-2-1-2-1-2 1z" fill="#e8dc00"/><path d="M196 60c-34 22-45 30-62 48l-11 11-8 11c-27 35-43 73-50 115l-2 11-1 19-1 22v4l10 6c33 19 66 30 108 34l12 1 37-1 10-1c34-5 67-17 95-34l8-5-1-40-1-10c-4-23-8-38-16-58A249 249 0 0 0 216 66l-14-8h-2l-4 2zm13 18c9 5 27 19 40 31l10 9 9 11a247 247 0 0 1 54 114v2l-8 5c-5 3-14 9-22 12l-13 7-10 3c-18 6-33 9-53 10l-15 1-15-1a184 184 0 0 1-105-38l-1-1 2-10c8-32 18-54 35-80 12-18 20-28 32-40l10-10 10-7 20-14 10-7h1l9 3zM92 274l-3 7 8-4 7-3 3 1 4 2-9 4-8 4 1 4 1 16-4-2-3-2v-6l-2-8-1-3-3 6-3 6-3-2c-2 0-3-1-3-2l8-14 7-13 3 2 3 1-3 6zm224-2 2 2v10l6 4 6 4-6 4-12-8-2 2 3 5 3 6-3 2-4 1-7-14-8-13 13-8h6l3 3zm-195 11h1l-5 12-4 12 5 2 5 2-1 2-1 3-9-3-8-3 2-6 6-15 3-9 3 1 3 1zm169 3 5 6 2 4v9l-3 6-9 5h-8l-3-2-3-2-3-5-2-4v-10l2-3 6-5 4-2h9l3 3zm-147 5-5 16-3 14-3-1-4-2 4-15 4-15 4 1 3 1v1zm12 1h1l3 11 5 11s2-4 2-9l2-10 3 1 3 1v2l-3 16-2 13h-3c-4-1-4-1-8-12l-4-10-1-1-2 10-1 9-3-1h-4l3-16 3-16h2l4 1zm104 2c2 3 3 7 2 11l-1 3-5 2-5 3v2l2 5v4h-3l-3 1v-1l-4-14-4-14v-1c2-1 9-3 14-3h5l2 2zm-57 3 5 5c0 1-1 2-3 2l-2 2-5-5h-2l-4 2-2 1-1 4-1 7v3l3 3 2 3h7l1-3v-3h-6v-6h13l-1 8v9h-17l-3-2-3-1-3-7v-12l2-4 2-4 3-1 4-2h9l2 1zm28 1c3 2 3 3 0 4l-2 1-1-1-4-1h-2l-2 3 1 2 1 2 5 1 5 1 2 2 2 1 1 4v3l-2 3-1 3-7 3h-8l-2-2-3-2 2-2 3-2 5 3 2-1 3-1v-5l-4-1-7-2-3-1-1-3c-3-7 2-14 11-14h4l2 2zM197 91l-2 7-4 4-4 4 2 6 2 6v10h19v-2l1-5 2-9 1-6-3-3-4-4-3-7-3-7-4 6zm3 20v10h-3l-1-6-2-6 3-4 3-4v10zm-6 23-3 1v4l-2 8-1 3-7 3-7 4-6 6-6 6-5 8c-8 14-14 30-17 49l-2 9v24l14 8 6-3 7-3v-12c0-12 1-23 4-34l2-7 3-7c5-9 9-15 16-19l4-3 8-1 5 1 5 1 6 6 7 7 3 7 4 7 3 10 2 10 1 16v17l7 4 6 3 3-1 7-5 4-3v-15l-2-14-2-14-4-11c-4-13-10-25-16-33l-5-7-5-4-11-7-6-5-2-3-1-5v-5l-4-1h-13zm6 17v11l-3 1c-7 1-10 2-15 6l-5 4-11 13-4 8-6 15a196 196 0 0 0-6 47v3l-3-2-3-1v-13c1-23 6-40 15-57l4-9 7-8 7-8 7-3 7-4 2-3 3-3 1-4v-5h3v12zm15 16 6 3 5 5c16 16 25 44 25 75v10l-4-1-3-2v-19l-1-10c-3-18-9-32-18-43l-4-5-5-3-6-4-4-1h-4l-1-4v-4h7l7 3zm90 108-2 2 2 3 1 3h2c4 0 5-5 2-7-1-2-2-2-4-1zm-29 14-2 1-1 4v3l2 5 2 4 4 2 3 1 2-1 3-2 1-5v-3l-1-4-3-3-3-4h-2l-5 2zm-28 8h-2l1 3 1 4v1h2c2 0 4-2 4-5v-2l-2-1-2-1-2 1z" fill="#b2b2b2"/><path d="M196 60c-34 22-45 30-62 48l-11 11-8 11c-27 35-43 73-50 115l-2 11-1 19-1 22v4l10 6c33 19 66 30 108 34l12 1 37-1 10-1c34-5 67-17 95-34l8-5-1-40-1-10c-4-23-8-38-16-58A249 249 0 0 0 216 66l-14-8h-2l-4 2zm13 18c9 5 27 19 40 31l10 9 9 11a247 247 0 0 1 54 114v2l-8 5c-5 3-14 9-22 12l-13 7-10 3c-18 6-33 9-53 10l-15 1-15-1a184 184 0 0 1-105-38l-1-1 2-10c8-32 18-54 35-80 12-18 20-28 32-40l10-10 10-7 20-14 10-7h1l9 3zM92 267l3 2-3 5-2 6 7-3 7-3 3 1 3 2-8 4-8 4 2 10 1 10-4-2-4-1-1-9-2-7-3 5c-3 5-4 6-7 3l-2-2 7-13 8-14 3 2zm223 4 3 4 1 3-1 3-1 3 7 4 6 4-3 2-3 2-6-4-6-4-2 2 6 11-2 1-4 2-16-27 6-4 7-4h7l1 2zm-193 12-4 12-4 12 4 2c5 2 6 3 4 5l-2 2-7-3-8-3-1-1 11-29 3 1 4 1zm166 1 4 2 6 11v9l-3 3-2 3-4 2-4 2h-9l-3-3c-3-3-6-8-7-13l-1-3 1-3 1-4 3-2c3-3 9-6 12-6l6 2zm-145 6-8 31-7-3 8-28v-2l3 1 4 1zm13 2 4 11 4 11v-1c1 0 2-4 2-9l2-9 3 1 3 1 1 1-3 15-3 16-3-1c-4-1-4-1-8-11l-4-11-1-1-1 10-2 9h-3l-4-1 3-16 3-16h3l4 1zm103 2 3 5v4l-3 6-4 1-5 2 2 6 1 6c1 3-2 0-4 0l-3 1-4-15-4-14v-1l7-2 6-2 3 1h3l2 2zm-56 3c2 2 4 4 4 6l-3 2-3 1-4-5h-3c-3 1-5 3-6 8l-1 4v4l1 3 3 2 2 2h6v-6h-5v-6h13v8l-1 8-7 1-7 1-9-4-2-3-1-4v-12l1-3 2-4 6-4h11l3 1zm27 0c3 2 2 3 0 5l-3 2-1-2c-2-2-4-1-6 1l-1 1 1 2 1 1 4 1 6 2 3 1 2 6v3l-1 4-2 2-3 2-12 1-5-5 3-1 2-2 6 3 2-1 2-1v-2c0-2-2-4-7-4l-4-1-5-5v-7l1-2c1-1 3-3 5-3l2-2h9l1 1zM197 91l-2 7-4 4-4 4 2 6 2 6v9h19v-2l1-4 2-9 1-6-3-3-4-4-3-7-3-8-4 7zm3 20v10h-3v-2l-2-6-1-5 2-3 4-4v10zm-6 23-3 1v4l-2 8-1 2-7 4-7 3-6 7-6 6-5 8c-8 14-14 30-17 49l-2 9v24l14 8 6-3 7-3v-12c0-12 1-23 4-34l2-8 3-7c5-8 9-14 16-18l4-3 8-1 5 1 5 1 6 6 7 6 3 8 4 7 3 10 2 9 1 17v17l7 4 6 3 3-1 7-5 4-3v-16l-2-14-2-14-4-10c-4-14-10-25-16-33l-5-7-5-4-11-7-6-5-2-3-1-5v-5l-4-1h-13zm7 17-1 11-4 1c-16 2-32 20-39 43a176 176 0 0 0-7 53l-3-2-3-1v-19l1-10c4-26 13-44 27-60l5-6 7-3 7-4 2-3 3-3v-4l2-5v-1l2 1h1v12zm11 15c3 0 7 3 10 5l5 4 5 6c9 13 15 28 17 46l2 10v23l-4-2-3-1v-19l-1-9c-3-18-8-29-16-42-7-8-16-15-23-15h-3v-9l4 1 7 2zm93 110-1 1 1 3 1 3h1l4-2 1-2-1-2c-1-2-4-2-6-1zm-28 12-3 4-1 3 1 3 4 7 2 3h7l1-2 2-2v-3l-2-7-2-4-2-1c-3-2-5-2-7-1zm-31 11 1 4c1 2 2 2 5 1l2-1v-2l-1-3-1-1h-6v2z" fill="#bdb400"/><path d="M196 60c-34 22-45 30-62 48l-11 11-8 11c-27 35-43 73-50 115l-2 11-1 19-1 22v4l10 6c33 19 66 30 108 34l12 1 37-1 10-1c34-5 67-17 95-34l8-5-1-40-1-10c-4-23-8-38-16-58A249 249 0 0 0 216 66l-14-8h-2l-4 2zm15 19a245 245 0 0 1 112 163l-1 3-7 4a213 213 0 0 1-180 24l-12-4-11-6-21-12-10-7v-4c1-12 11-42 21-61l6-13 7-11 14-20 7-9 13-12 12-12 12-9c6-5 15-12 20-14l7-5 3 2 7 3zM92 266l3 2-3 5-2 6 7-3 7-3 3 1 3 2-8 4-8 4 2 10 1 10-4-2-4-1-1-9-2-7-3 5c-3 5-4 6-7 3l-2-2 7-13 8-14 3 2zm223 4 3 4 1 3-1 3-1 3 7 4 6 4-3 2-3 2-6-4-6-4-2 2 6 11-2 1-4 2-16-27 6-4 7-4h7l1 2zm-193 12-4 12-4 12 4 2c5 2 6 3 4 5l-2 2-7-3-8-3-1-1 11-29 3 1 4 1zm166 1 4 2 6 11v9l-3 3-2 3-4 2-4 2h-9l-3-3c-3-3-6-8-7-13l-1-3 1-3 1-4 3-2c3-3 9-6 12-6l6 2zm-145 6-8 31-7-3 8-28v-2l3 1 4 1zm13 2 4 11 4 11v-1c1 0 2-4 2-9l2-9 3 1 3 1 1 1-3 15-3 16-3-1c-4-1-4-1-8-11l-4-11-1-1-1 10-2 9h-3l-4-1 3-16 3-16h3l4 1zm103 2 3 5v4l-3 6-4 1-5 2 2 6 1 6c1 3-2 0-4 0l-3 1-4-15-4-14v-1l7-2 6-2 3 1h3l2 2zm-56 3c2 2 4 4 4 6l-3 2-3 1-4-5h-3c-3 1-5 3-6 8l-1 4v4l1 3 3 2 2 2h6v-6h-5v-6h13v8l-1 8-7 1-7 1-9-4-2-3-1-4v-12l1-3 2-4 6-4h11l3 1zm27 0c3 2 2 3 0 5l-3 2-1-2c-2-2-4-1-6 1l-1 1 1 2 1 1 4 1 6 2 3 1 2 6v3l-1 4-2 2-3 2-12 1-5-5 3-1 2-2 6 3 2-1 2-1v-2c0-2-2-4-7-4l-4-1-5-5v-7l1-2c1-1 3-3 5-3l2-2h9l1 1zM197 92l-3 8-7 6 2 5 2 11 1 5h18v-5l2-11 2-4-4-4-3-4-3-7-3-7-4 7zm3 19v10h-3v-2l-2-6-1-5 2-3 4-4v10zm-6 23h-3v3l-1 8-1 4-5 2-11 7-6 5-4 6c-11 14-17 28-22 48l-2 12-1 15v15l6 3 7 4 8-3 6-2v-26l2-9c1-11 4-19 8-27l3-6 5-5 4-5 6-3 5-2h5l6 1 4 2 4 2 8 10 4 8 4 8 2 8 2 8 1 13 1 13v5l-1 4 7 3 7 4 6-4 6-4 1-4v-11l-3-21-2-12-3-9-7-17-4-8-6-7c-6-8-11-12-19-16l-5-4-3-3-2-3v-8l-1-1-2-1h-13zm7 17-1 11-4 1c-16 2-32 20-39 43a176 176 0 0 0-7 53l-3-2-3-1v-19l1-10c4-26 13-44 27-60l5-6 7-3 7-4 2-3 3-3v-4l2-5v-1l2 1h1v12zm11 15c3 0 7 3 10 5l5 4 5 6c9 13 15 28 17 46l2 10v23l-4-2-3-1v-19l-1-9c-3-18-8-29-16-42-7-8-16-15-23-15h-3v-9l4 1 7 2zm93 110-1 1 1 3 1 3h1l4-2 1-2-1-2c-1-2-4-2-6-1zm-28 12-3 4-1 3 1 3 4 7 2 3h7l1-2 2-2v-3l-2-7-2-4-2-1c-3-2-5-2-7-1zm-31 11 1 4c1 2 2 2 5 1l2-1v-2l-1-3-1-1h-6v2z" fill="#797979"/><path d="M196 60c-34 22-45 30-62 48l-11 11-8 11c-27 35-43 73-50 115l-2 11-1 19-1 22v4l10 6c33 19 66 30 108 34l12 1 37-1 10-1c34-5 67-17 95-34l8-5-1-40-1-10c-4-23-8-38-16-58A249 249 0 0 0 216 66l-14-8h-2l-4 2zm15 19a245 245 0 0 1 112 163l-1 3-7 4a213 213 0 0 1-180 24l-12-4-11-6-21-12-10-7v-4c1-12 11-42 21-61l6-13 7-11 14-20 7-9 13-12 12-12 12-9c6-5 15-12 20-14l7-5 3 2 7 3zM92 266c2 0 3 1 3 2l-2 5-3 6 7-3 7-4 7 4-8 4-8 4v6l2 10v5l-4-2-4-2v-3l-2-9-1-5-2 5-4 6-4-2-3-1 2-3a327 327 0 0 0 14-25l3 2zm221 2 3 1 1 3 2 3-1 8 6 4 6 4-3 3-3 1-12-8-1 2v1l3 5 2 5-4 2-2 2-8-14-8-14 16-9 3 1zm-194 12 3 2-4 12-5 12 5 2 5 2-1 2-1 3c0 1-14-4-16-6l-1-1 4-12 6-14c1-3 1-3 5-2zm171 4 2 2 3 5 3 5v8l-2 3-6 6-3 2h-11l-6-4-4-9-1-4v-5l4-6 5-3 6-3h3l4 1 3 2zm-150 4 3 1v1l-8 30-4-1-4-1v-1l4-14 5-16 4 1zm15 3 2 2 3 9 4 10 2-8 2-9 1-1 6 1v2l-3 16-3 15-7-2-4-10-4-10-1-1v4l-2 9-1 5h-2l-4-1-1-1 1-9 4-15 1-7h2l4 1zm104 1 2 3 1 4v5l-2 2-2 3-4 1-4 1 2 5 1 6c0 1-7 3-8 2l-7-29-1-1 7-2 9-2h3l2 2zm-55 5 3 3 1 2-6 3-2-2-1-2h-7l-2 3-2 2v12l2 2 2 2 3 1h4v-6h-5v-6h13v17h-4l-8 1h-4l-4-2-5-4-2-2-1-10 1-5 1-4 3-3 2-3 4-1 3-1 4 1 7 2zm27 0c3 2 3 2-1 4l-3 2-1-1-3-2h-2l-1 2-1 2 2 1 1 2 9 1 5 5v3c0 7-3 10-9 12l-4 1-8-2-2-4 3-2 3-2 2 3h5l2-3v-1l-1-2h-2l-5-1-3-1-5-5v-4c0-4 1-7 5-8l3-2h9l2 2zM197 92l-3 8-7 6 2 5 2 11 1 6h18v-6l2-11 2-4-4-4-3-4-3-7-3-7-4 7zm2 29-1 1h-1l-1-3-1-6-1-5 3-4 2-4 1 10v10l-1 1zm-5 13-3 1v3l-1 7-1 4-5 3-11 6-6 5-4 6c-11 14-17 28-22 49l-2 12-1 14v15l6 3 7 4 8-2 6-3v-26l2-9c1-10 4-19 8-27l3-6 5-5 4-5 6-3 5-2h5l6 1 4 2 4 2 8 11 4 8 4 8 2 8 2 8 1 13 1 13v4l-1 4 7 3 7 4 6-4 6-4 1-4v-11l-3-20-2-12-3-9-7-18-4-8-6-7c-6-8-11-12-19-16l-5-4-3-3-2-3v-8l-1-1-2-1h-13zm7 16v13h4l9 3 5 3 12 10 4 7c7 12 12 23 14 40l2 10v24h-1l-4-1-2-2-1-24-2-10c-3-12-5-20-10-28l-3-6-14-14-4-1-7-2h-2v-9h-8l-5 3-5 2-6 5c-9 9-15 19-19 33l-3 8-2 10-2 23v13l-3-2-4-2v-2l-1-3 1-12c3-39 18-70 41-82l7-4 2-3 2-3v-3l1-4 1-2h3v12zm104 126-1 1 1 3c2 4 3 4 5 1l2-2-1-2-1-2h-2l-3 1zm-28 13-3 2v8l2 3 2 4 2 1 3 1h2l3-1 2-6-2-8-2-2c-1-2-3-3-5-3l-2-1-2 2zm-30 12 1 4c1 1 5-1 5-3l1-1-1-2-1-2h-5v4z" fill="#857e00"/><path d="M196 60c-34 22-45 30-62 48l-11 11-8 11c-27 35-43 73-50 115l-2 11-1 19-1 22v4l10 6c33 19 66 30 108 34l12 1 37-1 10-1c34-5 67-17 95-34l8-5-1-40-1-10c-4-23-8-38-16-58A249 249 0 0 0 216 66l-14-8h-2l-4 2zm12 17a245 245 0 0 1 113 156l2 10-1 2c-2 2-19 13-29 18-40 20-92 25-139 16-24-5-56-20-71-33l-4-3 3-10 7-24 4-13 7-15 8-15 7-10 13-20 7-9 11-12 11-11 14-10c11-8 28-20 30-20l7 3zM92 266c2 0 3 1 3 2l-2 5-3 6 7-3 7-4 7 4-8 4-8 4v6l2 10v5l-4-2-4-2v-3l-2-9-1-5-2 5-4 6-4-2-3-1 2-3a327 327 0 0 0 14-25l3 2zm221 2 3 1 1 3 2 3-1 8 6 4 6 4-3 3-3 1-12-8-1 2v1l3 5 2 5-4 2-2 2-8-14-8-14 16-9 3 1zm-194 12 3 2-4 12-5 12 5 2 5 2-1 2-1 3c0 1-14-4-16-6l-1-1 4-12 6-14c1-3 1-3 5-2zm171 4 2 2 3 5 3 5v8l-2 3-6 6-3 2h-11l-6-4-4-9-1-4v-5l4-6 5-3 6-3h3l4 1 3 2zm-150 4 3 1v1l-8 30-4-1-4-1v-1l4-14 5-16 4 1zm15 3 2 2 3 9 4 10 2-8 2-9 1-1 6 1v2l-3 16-3 15-7-2-4-10-4-10-1-1v4l-2 9-1 5h-2l-4-1-1-1 1-9 4-15 1-7h2l4 1zm104 1 2 3 1 4v5l-2 2-2 3-4 1-4 1 2 5 1 6c0 1-7 3-8 2l-7-29-1-1 7-2 9-2h3l2 2zm-55 5 3 3 1 2-6 3-2-2-1-2h-7l-2 3-2 2v12l2 2 2 2 3 1h4v-6h-5v-6h13v17h-4l-8 1h-4l-4-2-5-4-2-2-1-10 1-5 1-4 3-3 2-3 4-1 3-1 4 1 7 2zm27 0c3 2 3 2-1 4l-3 2-1-1-3-2h-2l-1 2-1 2 2 1 1 2 9 1 5 5v3c0 7-3 10-9 12l-4 1-8-2-2-4 3-2 3-2 2 3h5l2-3v-1l-1-2h-2l-5-1-3-1-5-5v-4c0-4 1-7 5-8l3-2h9l2 2zM198 91l-2 6-4 5-4 4 1 6 3 11v5l5-1 4-1 4 1 5 1v-6l2-11 2-4-6-6-4-8-3-8-3 6zm1 30-1 1h-1l-1-3-1-6-1-5 3-4 2-4 1 10v10l-1 1zm-4 13-3 1-1 4-1 7-2 4-6 3-7 4-15 15-4 7c-8 16-14 31-17 51l-1 10v17l1 2 7 4 6 3 6-2 5-3 1-14 1-14 2-9c1-9 4-19 8-26l2-4 6-6 5-6 4-2 5-2h9l6 2 5 3 4 5 7 11 4 6 2 9 3 9 1 11 1 18v8l12 6 4-2 7-4 3-2-1-10v-10l-2-13-2-13-4-10c-6-18-13-30-23-40l-6-5-7-4-7-4-2-5-1-7v-2l-4-1h-11zm6 16v13h4l9 3 5 3 12 10 4 7c7 12 12 23 14 40l2 10v24h-1l-4-1-2-2-1-24-2-10c-3-12-5-20-10-28l-3-6-14-14-4-1-7-2h-2v-9h-8l-5 3-5 2-6 5c-9 9-15 19-19 33l-3 8-2 10-2 23v13l-3-2-4-2v-2l-1-3 1-12c3-39 18-70 41-82l6-4 3-3 2-3v-3l1-4 1-2h3v12zm104 126-1 1 1 3c2 4 3 4 5 1l2-2-1-2-1-2h-2l-3 1zm-28 13-3 2v8l2 3 1 4 3 1 3 1h2l3-1 2-6-2-8-2-2c-2-2-3-3-5-3l-2-1-2 2zm-30 12 1 4c1 1 5-1 5-3l1-1-1-2-1-2h-5v4z" fill="#424024"/><path d="M196 60c-34 22-45 30-62 48l-11 11-8 11c-27 35-43 73-50 115l-2 11-1 19-1 22v4l10 6c33 19 66 30 108 34l12 1 37-1 10-1c34-5 67-17 95-34l8-5-1-40-1-10c-4-23-8-38-16-58A249 249 0 0 0 216 66l-14-8h-2l-4 2zm12 17a244 244 0 0 1 115 166v2l-9 6c-28 18-51 26-89 31-19 2-27 3-45 1a187 187 0 0 1-100-39c-1-1 5-24 7-32A250 250 0 0 1 198 75c2-1 3-1 10 2zM93 266l2 2-2 5-3 6 7-3 7-4 4 2 3 2-8 4-8 4v5l2 10v6l-8-5-2-16-7 12-1-1-4-2-2-1 3-6 8-14 4-8h1l4 2zm221 2 4 4 1 3v4l-1 4 7 4 7 4-5 2-4 2-5-3c-7-6-9-5-4 2l2 6-6 4-16-28c0-2 14-9 16-9l4 1zm-194 12 2 2-4 13-5 11 5 2 5 1v2l-1 3-2 2-8-3-8-4v-1l11-28h5zm169 3 4 3 2 5 3 5v7l-4 8-4 2-5 2h-9l-3-2-3-2-5-11v-7l2-4 3-4 4-2 4-2h8l3 2zm-148 5 3 2-4 14-5 15-1 1-7-2v-1l5-16 4-14h1l4 1zm15 3 4 12 4 9v-1l2-9 2-7 1-1 6 1v2l-6 31-4-1-3-1-3-7-4-10-1-3-1 3-2 9-1 6h-1l-4-1-3-1 2-9 4-17 1-7 3 1 4 1zm103 2 3 3v8l-3 3-3 3-3 1h-3l2 5 1 6v1l-4 1-4 1-8-32 16-3h4l2 3zm-58 2 4 2 1 2c3 3 3 4-2 5l-3 1-2-2-1-2h-6l-3 4-1 5v7l1 3 4 2 3 1 3-1v-5h-6v-6h14v17h-2l-8 1h-6l-4-2-5-4-2-3-1-5v-6l1-4c3-9 12-13 21-10zm30 2c3 2 3 3-1 5l-2 1-2-2-2-1-2 1h-2v4l2 1 5 1 4 1 5 5v7l-1 3-2 3-4 2-5 1h-3l-4-1-2-2-2-2 3-2 2-3 2 2 4 1h2l2-3v-1l-1-2-5-1-6-1-2-3-2-2v-7l2-3 2-2 4-2 4-1 3 1 4 2zM198 92l-3 7-3 4-4 4 2 4 2 10v6h18v-9l2-6 2-6-3-1-2-2-4-9-4-9-3 7zm3 23v6h-2l-2 1h-1v-3l-1-6-2-4 4-5 3-4v4l1 11zm-6 19-3 1v4l-2 8-1 3-2 1-9 5-8 5-4 5-10 14-5 8-3 9c-4 12-8 26-9 39l-1 11 1 12 6 3 7 4 6-3 6-2v-10c0-12 2-25 4-35l2-7 4-8 4-8 4-5 4-5 5-2 5-3h11l4 1 4 2 5 5 5 6 4 8c5 9 7 15 9 28l1 10v22l13 6 6-4 6-4v-18l-1-10c-3-16-5-23-10-35l-4-11-9-14-12-12-7-4-6-3-2-3-2-4-1-4v-5h-4l-5-1h-6zm6 17v12h3c4 0 11 3 17 7l6 4 5 6c8 12 15 27 18 45l1 10v12l1 12-1 1h-1l-6-2v-12c-1-20-5-35-12-49l-4-8-10-11-5-2c-2-2-6-3-8-3l-4-1v-9h-4l-9 3-5 2-6 6-11 13-3 6-4 8-3 9-1 8a319 319 0 0 0-5 42l-3-2-4-2v-11c2-20 5-35 11-50l3-8 6-8c2-5 7-11 10-14l5-5 5-3 8-4 3-2 1-4 2-6v-3h4v13zm104 125-1 1 1 3 2 3 2-1 2-1v-5l-2-1-4 1zm-29 14-2 2v6l2 4c2 4 5 6 8 6h2l3-4v-3c0-5-1-8-4-11l-2-2h-6l-1 2zm-28 8c-1 1 0 7 1 7l3-2 2-2-2-4h-2l-2 1z" fill="#020201"/></svg>