<?xml version="1.0" encoding="UTF-8" standalone="yes"?>
<svg xmlns="http://www.w3.org/2000/svg" version="1.2" baseProfile="tiny-ps" viewBox="-18.366460000000018 -39.82930000000003 285.10020000000003 285.10020000000003" xml:space="preserve"><title>019016363.svg</title>


<g><path d="M 236.5,166.5 C 230.514,172.986 224.347,179.32 218,185.5C 200.648,167.814 182.981,150.481 165,133.5C 147.207,150.292 129.707,167.459 112.5,185C 111.038,184.937 109.705,184.271 108.5,183C 103.304,177.891 98.3036,172.557 93.5,167C 116.985,142.681 140.652,118.514 164.5,94.5C 141.194,70.3608 117.361,46.6942 93,23.5C 68.5123,46.6544 44.679,70.4877 21.5,95C 44.696,119.198 68.3626,143.198 92.5,167C 86.2981,173.369 79.9648,179.536 73.5,185.5C 50.2016,161.701 26.7016,138.035 3,114.5C 2.33333,113.833 2.33333,113.167 3,112.5C 8.83333,106.667 14.6667,100.833 20.5,95C 14.4596,88.6284 8.45956,82.295 2.5,76C 26.0035,52.199 49.6702,28.3657 73.5,4.5C 80.5027,10.0045 87.0027,16.0045 93,22.5C 98.8333,16.6667 104.667,10.8333 110.5,5C 111.167,4.33333 111.833,4.33333 112.5,5C 135.68,28.3472 159.014,51.5139 182.5,74.5C 183.833,75.5 183.833,76.5 182.5,77.5C 175.96,82.859 170.46,88.859 166,95.5C 189.285,119.523 212.785,143.19 236.5,166.5 Z" fill="#292929"/></g>
</svg>