<?xml version="1.0" encoding="UTF-8"?>
<svg version="1.2" baseProfile="tiny-ps" width="4000px" height="4000px" viewBox="0 0 4000 4000" xmlns="http://www.w3.org/2000/svg" xmlns:xlink="http://www.w3.org/1999/xlink" >
 <!-- Generated by Pixelmator Pro 2.2 -->
 <title>mod.io</title>
 <g id="modio-icon-light">
  <path id="Path" d="M3071.538 1859.992 C2948.732 1859.992 2829.208 1843.586 2715.776 1813.588 2705.465 1882.022 2699.84 1952.33 2699.84 2023.576 2699.84 2143.101 2714.839 2258.406 2743.431 2369.025 2424.23 2415.429 2140.653 2570.576 1930.665 2795.563 1804.578 2664.321 1653.18 2558.39 1484.44 2484.8 1399.601 2735.567 1245.391 2954.461 1044.309 3117.577 1338.667 3185.073 1558.03 3448.495 1558.03 3763.478 L1558.03 3765.353 1558.498 3765.353 C1700.521 3800.975 1848.638 3819.724 2001.442 3819.724 2109.249 3819.724 2214.711 3809.881 2317.83 3791.601 2319.237 3791.132 2320.643 3791.132 2322.049 3791.132 2336.111 3438.652 2626.719 3157.418 2983.418 3157.418 3107.161 3157.418 3222.935 3191.635 3322.305 3250.694 3336.366 3236.164 3349.491 3220.696 3363.084 3205.228 3519.637 3028.051 3642.912 2820.875 3721.657 2592.138 3721.188 2591.669 3720.72 2591.2 3720.251 2591.2 3537.449 2473.082 3416.049 2267.781 3416.049 2033.888 3416.049 1953.268 3430.58 1876.397 3456.828 1805.151 3334.023 1840.774 3205.124 1859.992 3071.538 1859.992 Z" fill="#000000" fill-opacity="1" stroke="none"/>
  <path id="Path-1" d="M3400.582 838.643 C3371.99 853.174 3341.991 865.36 3311.524 875.672 3244.965 898.171 3173.719 910.827 3099.192 910.827 2733.119 910.827 2436.417 614.125 2436.417 248.052 2436.417 243.364 2436.886 238.677 2436.886 233.99 2436.417 233.99 2435.949 233.99 2435.48 233.521 2296.269 199.304 2150.496 181.024 2000.505 181.024 1892.698 181.024 1787.235 190.867 1684.585 209.147 1683.648 209.147 1682.241 209.616 1681.304 209.616 1666.305 562.565 1375.696 843.799 1018.998 843.799 894.786 843.799 778.543 809.582 679.173 750.054 678.704 750.523 678.236 750.992 677.767 751.461 501.996 937.075 365.597 1159.719 280.289 1406.736 279.821 1407.674 279.821 1408.142 279.352 1409.08 462.154 1527.198 583.554 1732.499 583.554 1966.392 583.554 2208.253 454.186 2419.647 260.603 2535.422 L260.603 2535.891 C261.072 2537.297 261.541 2539.172 262.009 2540.578 334.193 2772.596 451.374 2984.928 603.709 3166.792 906.973 3006.958 1143.678 2738.848 1262.265 2413.554 1262.734 2412.617 1263.203 2411.679 1263.203 2410.742 1316.637 2263.563 1345.698 2104.665 1345.698 1938.737 1345.698 1827.181 1332.105 1718.437 1307.263 1614.381 1601.621 1558.603 1862.7 1410.017 2059.564 1200.498 2245.647 1398.768 2489.383 1542.197 2764.055 1604.069 2768.742 1605.006 2773.43 1605.944 2778.117 1606.881 2872.33 1627.036 2970.293 1638.285 3070.6 1638.285 3304.962 1638.285 3525.262 1580.164 3718.845 1477.513 3725.407 1473.295 3731.969 1468.608 3739 1464.389 3668.223 1232.84 3551.979 1020.508 3400.582 838.643 Z" fill="#000000" fill-opacity="1" stroke="none"/>
 </g>
</svg>
