<?xml version="1.0" encoding="UTF-8" standalone="yes"?>
<svg width="570" height="570" viewBox="0 0 570 570" fill="none" version="1.2" baseProfile="tiny-ps" xmlns="http://www.w3.org/2000/svg">
  <title>bimi-svg-tiny-12-ps</title>
  <g>
    <rect width="570" height="570" fill="white"/>
    <rect width="570" height="570" fill="white"/>
    <path d="M141.441 314.062V366.884H129.218V345.23H105.224V366.884H93V314.062H105.224V334.892H129.218V314.062H141.441Z" fill="black"/>
    <path d="M193.381 355.568H168.861L164.182 366.884H151.659L175.201 314.062H187.269L210.892 366.884H198.06L193.381 355.568ZM189.537 346.281L181.157 326.059L172.777 346.281H189.525H189.537Z" fill="black"/>
    <path d="M221.015 314.062H233.239V356.929H259.728V366.884H221.015V314.062Z" fill="black"/>
    <path d="M277.693 366.096C273.79 364.962 270.663 363.494 268.299 361.68L272.453 352.476C274.721 354.135 277.407 355.472 280.523 356.475C283.639 357.478 286.766 357.979 289.882 357.979C293.355 357.979 295.922 357.466 297.581 356.427C299.24 355.401 300.076 354.028 300.076 352.309C300.076 351.055 299.586 350.005 298.608 349.181C297.629 348.358 296.364 347.689 294.835 347.188C293.296 346.686 291.23 346.125 288.604 345.528C284.581 344.573 281.287 343.618 278.72 342.663C276.154 341.708 273.957 340.169 272.119 338.056C270.28 335.943 269.362 333.126 269.362 329.604C269.362 326.536 270.197 323.755 271.856 321.26C273.516 318.765 276.023 316.795 279.365 315.339C282.707 313.883 286.802 313.154 291.624 313.154C294.991 313.154 298.285 313.56 301.508 314.36C304.732 315.16 307.549 316.318 309.96 317.834L306.188 327.121C301.306 324.352 296.423 322.967 291.553 322.967C288.127 322.967 285.608 323.516 283.972 324.626C282.337 325.736 281.526 327.193 281.526 329.007C281.526 330.822 282.469 332.171 284.354 333.042C286.241 333.925 289.117 334.785 292.998 335.644C297.02 336.599 300.315 337.554 302.881 338.509C305.448 339.464 307.644 340.968 309.483 343.034C311.32 345.099 312.24 347.892 312.24 351.413C312.24 354.434 311.393 357.191 309.71 359.674C308.026 362.169 305.496 364.139 302.129 365.595C298.763 367.051 294.656 367.78 289.834 367.78C285.656 367.78 281.621 367.218 277.718 366.084L277.693 366.096Z" fill="black"/>
    <path d="M335.398 324.029H318.496V314.074H364.526V324.029H347.622V366.884H335.398V324.029Z" fill="black"/>
    <path d="M415.068 357.072V366.884H374.171V314.062H414.089V323.874H386.323V335.346H410.842V344.848H386.323V357.072H415.068Z" fill="black"/>
    <path d="M424.809 314.062H448.803C454.533 314.062 459.606 315.16 464.011 317.345C468.416 319.529 471.83 322.621 474.277 326.584C476.712 330.559 477.942 335.191 477.942 340.467C477.942 345.743 476.724 350.375 474.277 354.35C471.842 358.325 468.416 361.405 464.011 363.59C459.606 365.774 454.544 366.872 448.803 366.872H424.809V314.062ZM448.206 356.845C453.482 356.845 457.696 355.377 460.848 352.428C463.987 349.48 465.563 345.493 465.563 340.467C465.563 335.442 463.987 331.454 460.848 328.506C457.708 325.557 453.494 324.089 448.206 324.089H437.033V356.833H448.206V356.845Z" fill="black"/>
    <path d="M98.3475 391.535V397.647H109.043V401.944H98.3475V410.36H93V387.237H110.476V391.535H98.3593H98.3475Z" fill="#B5B5B5"/>
    <path d="M115.095 387.237H120.443V410.36H115.095V387.237Z" fill="#B5B5B5"/>
    <path d="M148.126 387.237V410.36H143.734L132.214 396.321V410.36H126.926V387.237H131.354L142.85 401.276V387.237H148.139H148.126Z" fill="#B5B5B5"/>
    <path d="M169.816 405.406H159.085L157.032 410.36H151.553L161.854 387.237H167.143L177.48 410.36H171.87L169.816 405.406ZM168.133 401.347L164.469 392.502L160.804 401.347H168.133Z" fill="#B5B5B5"/>
    <path d="M202.083 387.237V410.36H197.691L186.171 396.321V410.36H180.883V387.237H185.312L196.807 401.276V387.237H202.095H202.083Z" fill="#B5B5B5"/>
    <path d="M213.232 409.226C211.323 408.199 209.83 406.779 208.744 404.964C207.658 403.15 207.109 401.096 207.109 398.805C207.109 396.513 207.658 394.459 208.744 392.645C209.83 390.83 211.334 389.41 213.232 388.384C215.142 387.356 217.279 386.843 219.655 386.843C221.661 386.843 223.475 387.202 225.087 387.906C226.71 388.61 228.059 389.625 229.169 390.949L225.731 394.125C224.167 392.323 222.234 391.416 219.917 391.416C218.485 391.416 217.208 391.726 216.086 392.359C214.963 392.991 214.093 393.862 213.459 394.984C212.827 396.106 212.516 397.384 212.516 398.817C212.516 400.249 212.827 401.526 213.459 402.648C214.093 403.77 214.963 404.642 216.086 405.275C217.208 405.907 218.485 406.218 219.917 406.218C222.234 406.218 224.167 405.298 225.731 403.472L229.169 406.647C228.071 407.984 226.698 409.011 225.074 409.715C223.439 410.42 221.625 410.777 219.631 410.777C217.279 410.777 215.142 410.264 213.244 409.238L213.232 409.226Z" fill="#B5B5B5"/>
    <path d="M233.752 387.237H239.101V410.36H233.752V387.237Z" fill="#B5B5B5"/>
    <path d="M260.802 405.406H250.071L248.018 410.36H242.538L252.84 387.237H258.128L268.466 410.36H262.856L260.802 405.406ZM259.119 401.347L255.455 392.502L251.79 401.347H259.119Z" fill="#B5B5B5"/>
    <path d="M271.868 387.237H277.217V405.991H288.808V410.348H271.868V387.225V387.237Z" fill="#B5B5B5"/>
    <path d="M305.436 410.014C303.729 409.524 302.357 408.879 301.33 408.08L303.145 404.045C304.135 404.773 305.317 405.358 306.678 405.8C308.039 406.241 309.411 406.456 310.772 406.456C312.288 406.456 313.41 406.23 314.139 405.776C314.867 405.322 315.225 404.725 315.225 403.974C315.225 403.424 315.01 402.971 314.58 402.6C314.15 402.243 313.601 401.944 312.933 401.729C312.264 401.514 311.357 401.263 310.211 401.001C308.444 400.583 307.012 400.166 305.89 399.747C304.768 399.33 303.801 398.661 303.001 397.73C302.201 396.811 301.796 395.57 301.796 394.029C301.796 392.68 302.154 391.475 302.882 390.377C303.61 389.291 304.708 388.419 306.164 387.786C307.633 387.154 309.411 386.832 311.536 386.832C313.004 386.832 314.449 387.01 315.857 387.356C317.266 387.715 318.495 388.217 319.558 388.872L317.911 392.932C315.774 391.726 313.637 391.117 311.501 391.117C310.008 391.117 308.898 391.356 308.181 391.845C307.466 392.334 307.107 392.967 307.107 393.755C307.107 394.543 307.525 395.14 308.349 395.522C309.172 395.904 310.438 396.286 312.133 396.667C313.899 397.086 315.332 397.503 316.454 397.921C317.576 398.339 318.543 398.996 319.343 399.903C320.143 400.81 320.549 402.028 320.549 403.568C320.549 404.892 320.179 406.098 319.438 407.184C318.698 408.27 317.588 409.142 316.12 409.775C314.652 410.408 312.849 410.73 310.736 410.73C308.91 410.73 307.143 410.479 305.436 409.99V410.014Z" fill="#B5B5B5"/>
    <path d="M343.098 406.062V410.36H325.204V387.237H342.68V391.535H330.528V396.56H341.26V400.727H330.528V406.074H343.11L343.098 406.062Z" fill="#B5B5B5"/>
    <path d="M363.082 410.36L358.617 403.926H353.699V410.36H348.351V387.237H358.355C360.407 387.237 362.174 387.583 363.69 388.264C365.195 388.945 366.365 389.911 367.176 391.164C367.988 392.418 368.394 393.91 368.394 395.629C368.394 397.349 367.976 398.828 367.152 400.07C366.329 401.311 365.159 402.266 363.631 402.923L368.811 410.348H363.07L363.082 410.36ZM361.733 392.645C360.897 391.952 359.667 391.606 358.068 391.606H353.711V399.664H358.068C359.679 399.664 360.897 399.305 361.733 398.602C362.568 397.897 362.986 396.907 362.986 395.629C362.986 394.352 362.568 393.337 361.733 392.645Z" fill="#B5B5B5"/>
    <path d="M395.849 387.237L385.845 410.36H380.557L370.578 387.237H376.355L383.386 403.747L390.525 387.237H395.837H395.849Z" fill="#B5B5B5"/>
    <path d="M398.75 387.237H404.098V410.36H398.75V387.237Z" fill="#B5B5B5"/>
    <path d="M415.247 409.226C413.337 408.199 411.845 406.779 410.759 404.964C409.672 403.15 409.124 401.096 409.124 398.805C409.124 396.513 409.672 394.459 410.759 392.645C411.845 390.83 413.349 389.41 415.247 388.384C417.157 387.356 419.294 386.843 421.67 386.843C423.675 386.843 425.49 387.202 427.101 387.906C428.724 388.61 430.074 389.625 431.183 390.949L427.746 394.125C426.182 392.323 424.248 391.416 421.932 391.416C420.5 391.416 419.223 391.726 418.1 392.359C416.978 392.991 416.107 393.862 415.474 394.984C414.842 396.106 414.531 397.384 414.531 398.817C414.531 400.249 414.842 401.526 415.474 402.648C416.107 403.77 416.978 404.642 418.1 405.275C419.223 405.907 420.5 406.218 421.932 406.218C424.248 406.218 426.182 405.298 427.746 403.472L431.183 406.647C430.086 407.984 428.712 409.011 427.089 409.715C425.454 410.42 423.64 410.777 421.646 410.777C419.294 410.777 417.157 410.264 415.259 409.238L415.247 409.226Z" fill="#B5B5B5"/>
    <path d="M453.674 406.062V410.36H435.779V387.237H453.256V391.535H441.103V396.56H451.835V400.727H441.103V406.074H453.686L453.674 406.062Z" fill="#B5B5B5"/>
    <path d="M461.217 410.014C459.511 409.524 458.137 408.879 457.111 408.08L458.925 404.045C459.916 404.773 461.098 405.358 462.459 405.8C463.82 406.241 465.192 406.456 466.553 406.456C468.07 406.456 469.192 406.23 469.92 405.776C470.648 405.322 471.006 404.725 471.006 403.974C471.006 403.424 470.791 402.971 470.361 402.6C469.932 402.243 469.383 401.944 468.714 401.729C468.046 401.514 467.138 401.263 465.992 401.001C464.226 400.583 462.793 400.166 461.671 399.747C460.549 399.33 459.582 398.661 458.782 397.73C457.983 396.811 457.576 395.57 457.576 394.029C457.576 392.68 457.935 391.475 458.663 390.377C459.391 389.291 460.489 388.419 461.945 387.786C463.414 387.154 465.192 386.832 467.317 386.832C468.786 386.832 470.23 387.01 471.639 387.356C473.047 387.715 474.277 388.217 475.339 388.872L473.692 392.932C471.555 391.726 469.419 391.117 467.281 391.117C465.79 391.117 464.679 391.356 463.963 391.845C463.246 392.334 462.889 392.967 462.889 393.755C462.889 394.543 463.307 395.14 464.13 395.522C464.954 395.904 466.219 396.286 467.915 396.667C469.681 397.086 471.114 397.503 472.236 397.921C473.358 398.339 474.325 398.996 475.124 399.903C475.925 400.81 476.33 402.028 476.33 403.568C476.33 404.892 475.96 406.098 475.22 407.184C474.48 408.27 473.37 409.142 471.901 409.775C470.433 410.408 468.631 410.73 466.518 410.73C464.691 410.73 462.925 410.479 461.217 409.99V410.014Z" fill="#B5B5B5"/>
    <path d="M257.525 216.602V240.154L296.62 216.626C300.26 214.429 303.687 212.03 306.933 209.427C305.035 215.599 302.433 221.496 299.21 227.083C291.821 239.844 281.125 250.862 267.815 258.848L252.774 267.861L229.807 281.672V248.773C229.807 239.056 235.023 230.043 243.594 224.898L257.537 216.53L310.658 184.658V184.729L257.537 216.602H257.525Z" fill="#0BE0A3"/>
    <path d="M310.658 184.717C310.658 193.193 309.381 201.489 306.957 209.403C303.711 212.018 300.261 214.429 296.608 216.625L257.525 240.154V216.59L310.658 184.717Z" fill="#0B8670"/>
    <path d="M309.178 200.271C308.628 203.363 307.876 206.419 306.957 209.415L306.933 209.439C306.933 209.439 306.957 209.367 306.957 209.344C307.853 206.371 308.605 203.351 309.178 200.271Z" fill="#0D2F3E"/>
    <path d="M340.68 140C340.68 145.778 340.108 151.46 338.997 156.999C337.123 166.441 333.697 175.466 328.91 183.774C323.347 193.443 315.922 202.134 306.946 209.344C309.369 201.429 310.646 193.133 310.646 184.657L257.513 216.53V206.168C257.513 196.141 262.873 186.806 271.707 181.494L312.437 156.999L340.68 140Z" fill="#0D2F3E"/>
  </g>
  <defs/>
</svg>