<?xml version="1.0" encoding="utf-8" standalone="yes"?>
<svg version="1.2" baseProfile="tiny-ps" xmlns="http://www.w3.org/2000/svg" viewBox="0 0 500 500" xml:space="preserve">
	<title>JobRad Brandicon</title> 
    <defs></defs>
    <g id="a">
	<rect width="500" height="500" fill="#fff"/><rect width="500" height="500" fill="#b0e572"/><path d="M188.936,17.749c-1.081,0-2.375.033-3.98.115-1.556.082-3.046.147-4.471.229a29.04,29.04,0,0,0-3.374.328V32.784h16.033a11.825,11.825,0,0,0,7.026-1.818,6.288,6.288,0,0,0,2.489-5.355,6.485,6.485,0,0,0-3.259-5.863c-2.162-1.327-5.683-2-10.449-2Zm74.189-.115c-1.6,0-3.292.033-5.028.115a35.329,35.329,0,0,0-3.931.328V37.533a34.091,34.091,0,0,0,3.652.393c1.6.115,3.652.164,6.076.164,5.126,0,9.04-.835,11.6-2.489a8.3,8.3,0,0,0,3.865-7.452,8.815,8.815,0,0,0-4.062-7.877c-2.7-1.752-6.8-2.62-12.185-2.62Zm83.54,3.472c-.622,1.621-1.49,3.783-2.768,6.96-1.13,2.817-2.309,5.814-3.587,9.171-1.294,3.39-2.375,6.174-3.259,8.516h19.227c-.655-1.8-1.425-3.865-2.375-6.305-.9-2.293-1.818-4.684-2.768-7.124-.917-2.375-1.785-4.586-2.588-6.567-.884-2.195-1.474-3.619-1.883-4.635h0ZM422.2,18.519c-1.785,0-3.7.033-5.683.115a18.736,18.736,0,0,0-3.587.328V62.508c.95.066,2.211.164,3.931.278,1.572.115,3.079.164,4.471.164a35.87,35.87,0,0,0,10.547-1.425,20.693,20.693,0,0,0,7.746-4.274,18.013,18.013,0,0,0,4.766-6.944,26.621,26.621,0,0,0,1.589-9.466A25.989,25.989,0,0,0,444.4,31.49a18.776,18.776,0,0,0-4.733-7.059,20.468,20.468,0,0,0-7.517-4.438,31,31,0,0,0-9.941-1.474h0ZM108.868,18.29A21.092,21.092,0,0,0,97.7,21.27a21.515,21.515,0,0,0-7.681,8.074A23.735,23.735,0,0,0,87.2,40.956,23.8,23.8,0,0,0,90.018,52.5,21.525,21.525,0,0,0,97.7,60.625,21.433,21.433,0,0,0,127.768,52.5a24.219,24.219,0,0,0,2.768-11.546,24.1,24.1,0,0,0-2.768-11.611,20.947,20.947,0,0,0-18.9-11.055h0ZM177.1,48.8V63.393c.737.082,1.916.164,3.488.278,1.6.115,3.292.213,5.028.278,1.769.082,3.325.115,4.635.115,5.421,0,9.237-.639,11.333-1.883a6.418,6.418,0,0,0,3.144-5.961,6.48,6.48,0,0,0-2.538-5.552,13.018,13.018,0,0,0-7.632-1.851H177.1ZM347.124.93a15.806,15.806,0,0,0-8.041,2.064c-2.6,1.654-3.144,2.719-5.011,6.518-10.056,22.912-19.915,45.922-28.84,69.292h19.129c1.8-5.339,3.816-11.153,6.076-16.361H362.6c2.244,5.535,4.258,10.727,6.191,16.361h20.34c-8.909-23.911-18.441-45.873-28.922-69.292-1.867-3.8-2.407-4.864-5.011-6.518A15.644,15.644,0,0,0,347.156.93ZM254.183,78.869H236.168V12.885a10.4,10.4,0,0,1,1.9-6.518,9.382,9.382,0,0,1,5.716-3.21,58.744,58.744,0,0,1,8.123-.933c3.21-.18,7.124-.278,11.661-.278a58.292,58.292,0,0,1,14.772,1.7,31.172,31.172,0,0,1,10.924,5.093,21.787,21.787,0,0,1,6.747,8.221,25.989,25.989,0,0,1,2.26,11.071,25.221,25.221,0,0,1-2.948,12.512,21.433,21.433,0,0,1-8.876,8.369c1.556,2.44,3.275,5.372,5.142,8.729s3.767,6.911,5.7,10.612c1.916,3.7,3.668,7.255,5.192,10.612h-21.11c-.655-1.687-1.589-3.783-2.768-6.24s-2.44-5-3.75-7.566c-1.376-2.669-2.588-4.962-3.7-7.026-1.13-2.08-2.047-3.619-2.7-4.586-.753.082-1.6.131-2.538.164s-2.244.049-3.98.049c-.753,0-1.7-.016-2.817-.049s-2.195-.1-3.144-.164a10.649,10.649,0,0,1-1.769-.213V78.885Zm-67.343,1.1c-1.949,0-4.258-.033-7.075-.115-3-.082-5.683-.18-8.238-.278-2.768-.115-5.306-.246-7.517-.393-2.538-.164-4.176-.278-4.913-.328V12.885a10.927,10.927,0,0,1,1.769-6.518,9.006,9.006,0,0,1,5.863-3.21,46.037,46.037,0,0,1,7.026-.884c3.112-.213,6.4-.328,9.777-.328a99.5,99.5,0,0,1,17.081,1.277,36.607,36.607,0,0,1,11.661,3.849,17.377,17.377,0,0,1,6.715,6.616,19.479,19.479,0,0,1,2.244,9.581,21.359,21.359,0,0,1-2.326,10.121,17.749,17.749,0,0,1-6.518,6.911,17.148,17.148,0,0,1,8.287,6.682,20.658,20.658,0,0,1,2.981,11.431,20.124,20.124,0,0,1-2.178,9.6,17.507,17.507,0,0,1-6.551,6.7,34.7,34.7,0,0,1-11.382,3.931,93.493,93.493,0,0,1-16.688,1.31Zm231.508,0c-3.03,0-6.207-.049-9.45-.164-3.144-.115-6.076-.262-8.729-.442-2.588-.18-4.5-.36-5.7-.508V12.885a10.049,10.049,0,0,1,1.9-6.4,9.766,9.766,0,0,1,5.716-3.308,43.517,43.517,0,0,1,7.124-.933c2.932-.18,6.584-.278,10.891-.278a57.9,57.9,0,0,1,24.255,4.651,34.989,34.989,0,0,1,15.526,13.364A39.16,39.16,0,0,1,465.3,40.858a43.512,43.512,0,0,1-3.03,16.7A31.88,31.88,0,0,1,453.2,69.878a40.264,40.264,0,0,1-14.772,7.583A72.432,72.432,0,0,1,418.332,80ZM108.9,80.851A42.273,42.273,0,0,1,92.819,77.8,39.919,39.919,0,0,1,71.037,56.58a38.916,38.916,0,0,1-3.144-15.64A39.2,39.2,0,0,1,71.037,25.3,39.973,39.973,0,0,1,92.819,4.074a43.977,43.977,0,0,1,32.165,0A39.837,39.837,0,0,1,146.749,25.3a38.916,38.916,0,0,1,3.144,15.64,38.916,38.916,0,0,1-3.144,15.64A40,40,0,0,1,124.983,77.8,42.588,42.588,0,0,1,108.9,80.851ZM40.985,20.288H23.3a9.988,9.988,0,0,1-6.96-2.211,7.9,7.9,0,0,1-2.424-6.191,17.034,17.034,0,0,1,.655-4.635,18.469,18.469,0,0,1,1.654-4.193H59.442V44.985h0v7.484q0,13.266-7.632,20.832c-5.077,5.044-12.054,7.566-20.881,7.566a41.742,41.742,0,0,1-12.381-1.818A36,36,0,0,1,8.165,73.972,24.962,24.962,0,0,1,1.09,66.406L13.8,55.466A18.547,18.547,0,0,0,20.2,62.1a17.383,17.383,0,0,0,9.057,2.326q5.847,0,8.778-3.144c1.949-2.1,2.932-5.4,2.932-9.892v-31.1Z" transform="translate(17.527 209.506)" fill="#2b373d" fill-rule="evenodd"/>
	</g>  
</svg>
