<?xml version="1.0" encoding="utf-8"?>
<!-- Generator: Adobe Illustrator 27.0.0, SVG Export Plug-In . SVG Version: 6.00 Build 0)  -->
<svg version="1.2" baseProfile="tiny-ps" id="Layer_2_00000122699690035671804560000015030637629199660969_"
	 xmlns="http://www.w3.org/2000/svg" xmlns:xlink="http://www.w3.org/1999/xlink" viewBox="0 0 288 288"
	 xml:space="preserve">
<title>USCCA</title>
<g id="Layer_1-2">
	<g>
		<rect fill="#FFFFFF" width="288" height="288"/>
		<g>
			<path fill="#000104" d="M185.3,227c1.8,0,3.3,1.4,3.3,3.3s-1.5,3.3-3.3,3.3s-3.3-1.5-3.3-3.3S183.5,227,185.3,227 M185.3,234.2
				c2.2,0,3.9-1.8,3.9-3.9s-1.7-3.9-3.9-3.9s-3.9,1.7-3.9,3.9S183.1,234.2,185.3,234.2"/>
			<path fill="#000104" d="M184.4,228.6h1.1c0.4,0,0.8,0.3,0.8,0.8c0,0.5-0.4,0.8-0.8,0.8h-1.1V228.6L184.4,228.6z M184.4,230.7h0.7
				l1.2,1.8h0.8l-1.2-1.8c0.2,0,1.1-0.3,1.1-1.3c0-0.8-0.8-1.4-1.5-1.4h-1.8v4.5h0.7L184.4,230.7L184.4,230.7z"/>
			<path fill="#000104" d="M191.7,180.1h18.8c27.1-52.4,22.3-100.6,22.3-100.6C189,68.8,156.1,43.2,145,32.4v21.9
				c9.2,7.3,34.6,26.8,71.8,38.2C216.9,92.4,217.8,134.7,191.7,180.1"/>
			<path fill="#000104" d="M230.9,188.2c-0.6-1.2-1.4-2.1-2.3-2.9c-0.9-0.8-2.1-1.2-3.4-1.2s-2.6,0.4-3.5,1.3
				c-0.9,0.8-1.7,1.8-2.3,2.9l-20.1,33.4h11.9l13.8-24.6l3.7,6.9h-4.1l-5.6,9.8h15c1.8,3.4,4.2,7.9,4.2,7.9h11.1L230.9,188.2
				L230.9,188.2z"/>
			<path fill="#000104" d="M182.5,180.1c26-44.9,26.9-83.6,26.9-83.6c-10.9,51.8-40.9,83.5-41,83.6H182.5L182.5,180.1z"/>
			<path fill="#000104" d="M179.6,212.1c-1.2,0-2.4-0.2-3.4-0.6c-1.1-0.4-2-1-2.7-1.8c-0.8-0.8-1.4-1.7-1.8-2.8
				c-0.4-1.1-0.6-2.3-0.6-3.6s0.2-2.5,0.6-3.6c0.4-1.1,1-2,1.8-2.8c0.8-0.8,1.7-1.4,2.7-1.8s2.2-0.7,3.4-0.7h14.7l5.8-9.6h-20.5
				c-2.5,0-4.9,0.4-7,1.3s-4,2.1-5.6,3.7c-1.6,1.6-2.8,3.5-3.7,5.7s-1.3,4.6-1.3,7.3s0.4,5.2,1.3,7.4s2.1,4.3,3.7,5.9s3.4,3,5.6,3.9
				c2.1,1,4.5,1.5,7,1.5h14.7l6-9.5L179.6,212.1L179.6,212.1z"/>
			<path fill="#000104" d="M145,234.3v19.6c12.7-8.7,23.3-18,32.6-27.6h-23.2C151.4,229,148.3,231.7,145,234.3"/>
			<path fill="#000104" d="M158.7,212.1H138c-1.2,0-2.4-0.2-3.4-0.6c-1.1-0.4-2-1-2.7-1.8c-0.8-0.8-1.4-1.7-1.8-2.8
				c-0.4-1.1-0.6-2.3-0.6-3.6s0.2-2.5,0.7-3.6s1-2,1.8-2.8c0.8-0.8,1.7-1.4,2.7-1.8s2.2-0.7,3.4-0.7h14.7l5.8-9.6H138
				c-2.5,0-4.9,0.4-7,1.3c-2.2,0.9-4,2.1-5.6,3.7c-1.6,1.6-2.8,3.5-3.7,5.7c-0.9,2.2-1.3,4.6-1.3,7.3s0.4,5.2,1.3,7.4
				c0.9,2.3,2.1,4.3,3.7,5.9s3.4,3,5.6,3.9c2.1,1,4.5,1.5,7,1.5h14.7L158.7,212.1L158.7,212.1z"/>
			<path fill="#000104" d="M110.9,220.8c1.6-0.6,2.9-1.3,3.9-2.4c1-1,1.8-2.3,2.2-3.8c0.5-1.5,0.7-3.2,0.7-5.1
				c0-3.4-0.9-5.9-2.8-7.6c-1.9-1.7-4.6-2.5-8.2-2.5H90.8c-1.1,0-1.8-0.2-2.3-0.6c-0.5-0.4-0.8-1.1-0.8-2s0.3-1.6,0.8-2
				c0.5-0.4,1.3-0.6,2.3-0.6h20.3l5.8-9.6H91.5c-2.2,0-4.1,0.3-5.7,0.8c-1.6,0.6-2.9,1.3-3.9,2.3c-1,1-1.8,2.2-2.2,3.6
				c-0.5,1.4-0.7,3-0.7,4.7c0,1.6,0.2,3,0.7,4.3c0.4,1.3,1.1,2.4,2,3.3c0.9,0.9,2.1,1.6,3.4,2.1c1.4,0.5,3,0.8,4.9,0.8h15.9
				c1.1,0,1.9,0.2,2.4,0.6c0.5,0.4,0.7,1.1,0.7,2s-0.2,1.6-0.7,2.1c-0.5,0.4-1.3,0.6-2.4,0.6H83.8l-5.8,9.4h27.2
				C107.4,221.6,109.3,221.4,110.9,220.8"/>
			<path fill="#000104" d="M66.2,205.4c0,1.3-0.2,2.4-0.5,3.3c-0.3,0.9-0.8,1.7-1.5,2.2c-0.7,0.6-1.6,1-2.8,1.3
				c-1.2,0.3-2.6,0.4-4.4,0.4c-2.3,0-4.2-0.1-5.7-0.4c-1.5-0.2-2.6-0.6-3.4-1.2c-0.8-0.6-1.3-1.3-1.6-2.2s-0.4-2.1-0.4-3.4v-20.6h-9
				v20.6c0,2.8,0.4,5.2,1.2,7.3c0.8,2.1,2,3.8,3.6,5.2c1.7,1.4,3.7,2.4,6.3,3.1c2.5,0.7,5.6,1.1,9.1,1.1c12.2,0,18.2-5.6,18.2-16.7
				v-20.6h-9.1L66.2,205.4L66.2,205.4z"/>
			<path fill="#000104" d="M105.1,226.3c9.3,9.6,19.9,18.9,32.6,27.6v-19.6c-3.3-2.6-6.4-5.3-9.4-8L105.1,226.3L105.1,226.3z"/>
			<path fill="#000104" d="M102.8,109.7l5.3-16.5l5.2,16.5h17.7l-14.2,10.7l5.5,16.9l-14.2-10.4L94,137.3l5.6-16.9l-14.4-10.7
				L102.8,109.7L102.8,109.7z M100.2,180.1c-1.2-11.2,2.7-20.5,9-27c17.4-17.7,50.3-8.6,49.5,16.7c0,0.1,50.3-34.9-10.4-59.7
				c15.1-20.2-29.4-36.2-36.2-38.2l0,0c14.8-8.8,23.8-16.3,25.6-17.7V32.4c-11.1,10.8-44,36.4-87.7,47.1c0,0-4.8,48.2,22.3,100.6
				L100.2,180.1L100.2,180.1z"/>
		</g>
	</g>
</g>
</svg>
