<?xml version="1.0" encoding="UTF-8"?>
<svg id="Layer_1" xmlns="http://www.w3.org/2000/svg" baseProfile="tiny-ps" version="1.2" viewBox="0 0 96 96">
<title>WCM Investment Management</title>
  <!-- Generator: Adobe Illustrator 29.0.1, SVG Export Plug-In . SVG Version: 2.1.0 Build 192)  -->
  <path d="M8.1,63c-4.9,0-5.4-1.5-5.6-2.1-.3-.8-1.1-3.3,9.7-9.2,6.6-3.6,15.7-7.4,25.6-10.8,9.9-3.4,19.5-5.9,26.9-7.2,12.2-2,13,.5,13.3,1.3.5,1.5-.6,3.2-3.6,5.4l-1.1-1.4c3.2-2.4,3-3.3,2.9-3.4,0,0-.8-1.9-11.4-.1-7.3,1.2-16.8,3.7-26.6,7.1-9.8,3.4-18.8,7.2-25.4,10.7-9.4,5.1-8.9,7-8.9,7.1,0,0,.8,1.9,11.4.1,7.3-1.2,16.8-3.7,26.6-7.1,3.7-1.3,7.4-2.6,10.8-4l.7,1.6c-3.5,1.4-7.2,2.8-10.9,4.1-9.9,3.4-19.5,5.9-26.9,7.2-3.4.6-5.8.8-7.7.8Z" fill="#b6a583"/>
  <path d="M38.6,43.2c-2,.2-2.3.5-3.2,2.7-.7,1.7-2.4,6.9-4.8,14.5h-.9c-1.6-4.3-3.6-9.6-5.1-13.5h0c-1.6,4.8-3.3,9.2-4.8,13.5h-.9c-1.5-4.9-3.2-9.7-4.8-14.5-.7-2.2-1.2-2.4-2.9-2.7v-.8h7.1v.8c-2.1.2-2.2.5-1.8,1.8,1.1,3.7,2.3,7.3,3.6,11.2h0c1.5-4.6,3.2-9.1,4.7-13.5h.8c1.6,4.5,3.3,8.9,5.1,13.5h0c1.2-3.6,2.8-8.9,3.3-10.9.4-1.6.3-1.9-2-2.2v-.8h6.5v.8Z" fill="#454647"/>
  <path d="M58,55.7c-.4,1.3-1.1,3.3-1.6,4.2-.8.2-3.1.7-5.1.7-6.9,0-9.9-4.7-9.9-9s4.5-9.5,10.7-9.5,4.1.6,4.9.7c.2,1.5.4,2.6.6,4.1l-.8.2c-.7-2.9-2.4-4.1-5.4-4.1-4.6,0-7.1,3.8-7.1,8s3.1,8.6,7.3,8.6,4.3-1.5,5.7-4.2l.8.3Z" fill="#454647"/>
  <path d="M78.7,60.1v-.8c2.4-.2,2.5-.4,2.5-3.2v-11.1h-.2l-7.1,14.9h-.6l-6.5-14.5h0l-.4,7.7c-.1,2.2-.1,3.4,0,4.5,0,1.3.8,1.5,2.7,1.7v.8h-6.8v-.8c1.7-.2,2.3-.5,2.5-1.6.1-1,.3-2.1.6-5l.4-5.7c.3-3.5.1-3.6-2.5-3.9v-.8h4.8l6.7,13.6,6.7-13.6h5v.8c-2.6.2-2.8.3-2.7,3.1l.3,9.8c0,2.9.2,3,2.7,3.2v.8h-7.7Z" fill="#454647"/>
  <path d="M40.2,42l-.6-1.7c9.6-3.2,18.7-5.6,25.7-6.7,11.6-1.8,12.4.6,12.7,1.4.5,1.5-.6,3.2-3.6,5.4l-1.1-1.4c3.2-2.4,3-3.3,2.9-3.4,0,0-.7-1.8-10.7-.2-6.9,1.1-16,3.4-25.4,6.6Z" fill="#b6a583"/>
  <path d="M8.1,63c-4.9,0-5.4-1.5-5.6-2.1-.8-2.4,2.9-5.7,11.3-10l.8,1.6c-9.2,4.8-10.7,7.3-10.5,7.9,0,0,.8,1.9,11.4.1,7.3-1.2,16.8-3.7,26.6-7.1,3.7-1.3,7.4-2.6,10.8-4l.7,1.6c-3.5,1.4-7.2,2.8-10.9,4.1-9.9,3.4-19.5,5.9-26.9,7.2-3.4.6-5.8.8-7.7.8Z" fill="#b6a583"/>
</svg>