<?xml version="1.0" encoding="utf-8"?>
<!-- Generator: Adobe Illustrator 24.0.2, SVG Export Plug-In . SVG Version: 6.00 Build 0)  -->
<svg version="1.2" baseProfile="tiny-ps" id="Layer_1" xmlns="http://www.w3.org/2000/svg" xmlns:xlink="http://www.w3.org/1999/xlink"
	  viewBox="0 0 96 96" xml:space="preserve">

<title> ORTEC </title>
<rect fill="#FFFFFF" width="96" height="96"/>

<g id="Layer_2_00000163063434099328712270000010204715983815622026_">
	<g id="Layer_8">
		<path fill="#F58025" d="M69.5,51.1l-0.1,0.3c-0.5,1.1-1,1.8-1.6,2.3l0,0c-0.3,0.3-1,0.6-2.5,0.6c-1,0-1.5-0.1-1.7-0.4
			c-0.2-0.2-0.2-0.6,0-1.5c0-0.1,0-0.1,0-0.2c0,0,0.5-2.8,0.7-3.7h1.3c1.2,0,1.7,0.6,1.7,1.7l0,0.3h1.5l0.7-3.9H61L60,52
			c-0.5,2.4-0.6,2.4-2.1,2.5l-0.3,0L57.2,56h12l0.1-0.3c0.4-1,1.4-3.7,1.5-4l0.1-0.3L69.5,51.1L69.5,51.1z"/>
	</g>
	<g id="Layer_7">
		<path fill="#002E67" d="M16.4,39.2c-2.5,0-4.9,1-6.6,2.7c-1.9,1.9-3,4.5-3,7.2c0,4.3,2.7,7.1,7,7.1c2.5,0,4.8-1,6.6-2.7
			c1.9-1.8,2.9-4.4,2.9-7.1C23.3,42.1,20.5,39.1,16.4,39.2L16.4,39.2z M13.3,42.5c0.8-0.8,1.7-1.2,2.7-1.2c2.2,0,3.3,1.6,3.3,4.8
			c0,2.6-0.9,5.1-2.4,6.6c-0.8,0.8-1.7,1.2-2.7,1.2c-2.1,0-3.4-1.7-3.4-4.7C10.8,46.6,11.8,44,13.3,42.5z"/>
	</g>
	<g id="Layer_6">
		<path fill="#002E67" d="M72.3,39.6l0.1-0.3h-1l-0.1,0.1c-0.4,0.4-0.5,0.5-0.9,0.5H46.8c-0.6,0-0.7,0-0.9-0.4l-0.1-0.2h-1l-0.7,2.9
			l-0.6,2.4h0.4H45l0.1-0.3c0.4-0.9,0.7-1.3,0.9-1.6c0,0,0.1-0.1,0.1-0.2c0.3-0.1,1.7-0.2,3-0.1c-0.1,0.6-1.8,9.7-1.8,9.7
			c-0.5,2.4-0.5,2.4-2.3,2.5l-0.3,0L44.5,56h8.3l0.3-1.4l-0.3,0c-1.8-0.1-2-0.1-1.7-1.9c0-0.2,0.1-0.4,0.1-0.7c0,0,1.8-9.2,2-9.9
			h16.5c0.1,0,0.2,0.1,0.2,0.1c0.3,0.1,0.6,0.2,0.5,1.9v0.3l1.5-0.1l0.1-1C72,41.9,72.2,40.4,72.3,39.6L72.3,39.6z"/>
	</g>
	<g id="Layer_5">
		<path fill="#002E67" d="M88.4,51.3l-1.1-0.4l-0.2,0.3c-1.7,2.6-3,3.6-4.8,3.6c-3.1,0-3.8-3.1-3.8-5.6c0-2.4,0.8-4.6,2.3-6.1
			c1.1-1.1,2.5-1.7,4-1.7c2.1,0,3,1,3.2,3.2l0,0.3l1.5-0.1l0-0.4c0.1-1.2,0.2-2.6,0.2-3.9v-0.2l-0.2-0.1c-0.6-0.2-2.2-0.7-4.3-0.7
			c-3.1,0-6.1,1.1-8.1,3.1c-1.8,1.8-2.8,4.2-2.8,6.8c0,4.3,2.9,7,7.5,7c1.9,0,3.4-0.4,4.2-0.6l0.5-0.1l0.1-0.2
			c0.4-0.7,0.9-1.7,1.3-2.7l0.8-1.6C88.7,51.4,88.4,51.3,88.4,51.3z"/>
	</g>
	<g id="Layer_4">
		<path fill="#002E67" d="M41.3,55.2c-0.9-0.1-1.9-0.8-2.2-1.3c-0.3-0.5-0.8-1.5-1.3-2.7c-0.4-0.9-0.9-2.2-1.1-2.9
			c2.1-0.6,3.5-2.1,3.8-3.8c0-0.2,0.1-0.4,0.1-0.7c0-2.7-1.9-4.1-5.6-4.1h-6.5l-0.1,0.6L28,42.1l6,0c1.7,0.1,2.7,0.2,2.7,1.5
			c0,1.5-0.8,2.8-2,3.1c0,0-0.8,0.3-1.5,0.3h-0.7l-0.3,2.1h0.3c0.5,0,0.6,0.1,0.8,0.8l0.2,0.6c0.4,1.1,0.7,2.2,1.2,3.1
			c0.8,1.7,1.9,2.8,4.6,3h2.2l0.1-1.4L41.3,55.2L41.3,55.2z"/>
	</g>
	<g id="Layer_3">
		<path fill="#002E67" d="M29.6,52.7c0-0.2,0.1-0.4,0.1-0.7l1.1-4.9h-3.7L26,52c-0.5,2.4-0.5,2.4-2.3,2.6l-0.3,0l-0.3,1.4h8.3
			l0.3-1.4l-0.3,0C29.5,54.5,29.3,54.5,29.6,52.7z"/>
	</g>
</g>
</svg>
