<?xml version="1.0" encoding="UTF-8"?><svg xmlns="http://www.w3.org/2000/svg" baseProfile="tiny-ps" version="1.2" viewBox="0 0 540 540"><title>Welvie</title><!-- Generator: Adobe Illustrator 28.6.0, SVG Export Plug-In . SVG Version: 1.2.0 Build 709)  --><g><g id="Layer_1"><g id="Logo"><rect width="540" height="540" fill="#fff"/></g><g id="Logo-2"><g id="Group_639"><path id="Path_664" d="M145.5,247h-7.3l-21.9,65h-10.4l-19.7-64h-.3l-20.5,64h-10.4l-21.1-65h-8v-6h29v6h-12.6l18,58h.3l20.7-64h10.3l20.5,64h.3l18.1-58h-12.6v-6h27.8v6h-.2Z" fill="#4d4d4f"/><path id="Path_665" d="M156.8,277.9c0,17.2,8.5,29.6,26.2,29.6s21.3-5.7,23.3-17.3h7.9c-1.1,15.6-16.9,23.3-30.8,23.3-23.2,0-35.5-13.6-35.5-38.6s11.5-35.5,34.2-35.5,34.1,16.7,33.1,38.5h-58.5.1ZM206.4,271.9c-.3-15.1-8.8-26.5-24.9-26.5s-24,12-24.8,26.5h49.7Z" fill="#4d4d4f"/><path id="Path_666" d="M224.3,305.9h11.8v-114h-11.9v-6h19.8v120h11v6h-30.8v-6h0Z" fill="#4d4d4f"/><path id="Path_667" d="M332.5,247h-7.3l-25.2,65h-10.7l-24.9-65h-7.3v-6h27.3v6h-11l21.1,57.1h.3l22.1-57.1h-11v-6h26.7v6h-.1Z" fill="#4d4d4f"/><path id="Path_668" d="M338.8,306h15.8v-59h-15.8v-6h23.7v65h12.6v6h-36.3v-6h0Z" fill="#4d4d4f"/><path id="Path_669" d="M391.5,277.9c0,17.2,8.5,29.6,26.2,29.6s21.3-5.7,23.3-17.3h7.9c-1.1,15.6-16.9,23.3-30.8,23.3-23.2,0-35.5-13.6-35.5-38.6s11.5-35.5,34.2-35.5,34.1,16.7,33.1,38.5h-58.5,0ZM441.1,271.9c-.3-15.1-8.8-26.5-24.9-26.5s-24,12-24.8,26.5h49.7,0Z" fill="#4d4d4f"/><path id="Path_670" d="M365.9,214.8c0,6.7-5.4,12.1-12.1,12.1s-12.1-5.4-12.1-12.1,5.4-12.1,12.1-12.1,12.1,5.4,12.1,12.1h0Z" fill="#4d4d4f"/><path id="Path_671" d="M281.4,214.8c0,6.7-5.4,12.1-12.1,12.1s-12.1-5.4-12.1-12.1,5.4-12.1,12.1-12.1,12.1,5.4,12.1,12.1h0Z" fill="#ec4d44"/><path id="Path_672" d="M323.7,214.8c0,6.7-5.4,12.1-12.1,12.1s-12.1-5.4-12.1-12.1,5.4-12.1,12.1-12.1,12.1,5.4,12.1,12.1h0Z" fill="#d62a58"/><path id="Path_673" d="M133.7,214.8c0,6.7-5.4,12.1-12.1,12.1s-12.1-5.4-12.1-12.1,5.4-12.1,12.1-12.1,12.1,5.4,12.1,12.1h0Z" fill="#f5a400"/><path id="Path_674" d="M218.2,214.8c0,6.7-5.4,12.1-12.1,12.1s-12.1-5.4-12.1-12.1,5.4-12.1,12.1-12.1,12.1,5.4,12.1,12.1h0Z" fill="#f16113"/><path id="Path_675" d="M49.3,214.8c0,6.7-5.4,12.1-12.1,12.1s-12.1-5.4-12.1-12.1,5.4-12.1,12.1-12.1,12.1,5.4,12.1,12.1h0Z" fill="#ffd429"/><path id="Path_676" d="M91.5,214.8c0,6.7-5.4,12.1-12.1,12.1s-12.1-5.4-12.1-12.1,5.4-12.1,12.1-12.1,12.1,5.4,12.1,12.1h0Z" fill="#fbba00"/><path id="Path_677" d="M175.9,214.8c0,6.7-5.4,12.1-12.1,12.1s-12.1-5.4-12.1-12.1,5.4-12.1,12.1-12.1,12.1,5.4,12.1,12.1h0Z" fill="#f77e18"/><path id="Path_678" d="M455.7,243.8c0-1.1-1-2-2.1-1.9h-.2c-1,0-2.1.4-2.1,1.6s1.5,1.3,3,1.6,2.9.9,2.9,2.7-1.9,2.8-3.6,2.8-3.8-1-3.8-3.3h1.2c0,1.6,1.3,2.2,2.7,2.2s2.3-.4,2.3-1.7-1.5-1.5-2.9-1.8-3-.7-3-2.4,1.7-2.7,3.4-2.7c1.6-.2,3.1.9,3.4,2.5v.4h-1.2,0Z" fill="#4d4d4f"/><path id="Path_679" d="M459.4,241.1h1.7l2.9,7.8,2.9-7.8h1.7v9.2h-1.2v-7.7h0l-2.9,7.7h-1l-2.9-7.7h0v7.7h-1.2v-9.2Z" fill="#4d4d4f"/><path id="Path_720" d="M312.6,332.6h5.2l5.8,16.4h0l5.6-16.4h5.1v21h-3.5v-16.2h0l-5.8,16.2h-3l-5.8-16.2h0v16.2h-3.5v-21h-.1ZM345.4,345.3l-7.9-12.8h4.3l5.6,9.4,5.5-9.4h4.1l-7.9,12.8v8.2h-3.7v-8.2ZM371.9,346.6c0,.7.1,1.4.4,2.1.3.6.7,1,1.1,1.4.5.4,1.1.6,1.7.8.7.2,1.4.3,2.1.2.7,0,1.4,0,2.1-.3.5-.2,1-.4,1.4-.7.3-.3.6-.6.8-1,.2-.4.2-.8.2-1.2,0-.6-.1-1.3-.5-1.8-.3-.4-.7-.6-1.2-.8-.8-.3-1.7-.6-2.6-.8-1-.2-2.2-.6-3.7-1-.8-.2-1.6-.5-2.2-.9-.5-.3-1-.8-1.4-1.3-.3-.4-.6-1-.7-1.5s-.2-1.1-.2-1.6c0-1,.2-1.9.7-2.7.4-.8,1-1.4,1.7-1.9s1.6-.9,2.5-1.1,1.9-.4,2.8-.4,2.1.1,3.1.4c.9.3,1.8.7,2.6,1.3.7.6,1.3,1.3,1.7,2.1.4.9.7,1.9.6,2.9h-3.7c0-1.1-.5-2.2-1.4-2.9-.9-.6-2-.9-3.1-.8-.4,0-.9,0-1.3.1-.4,0-.8.2-1.2.4-.4.2-.7.5-.9.8-.3.4-.4.9-.4,1.3,0,.7.2,1.3.7,1.7.5.5,1.1.8,1.8,1l.9.2,1.8.5,2,.5c.6.2,1.1.3,1.4.4.6.2,1.2.5,1.8.9.5.4.9.8,1.3,1.3.3.5.6,1,.8,1.5.2.5.2,1.1.2,1.6,0,1.1-.2,2.1-.7,3-.5.8-1.1,1.5-1.9,2s-1.7.9-2.7,1.2c-1,.2-2,.4-3.1.4s-2.3-.1-3.4-.4c-1-.3-1.9-.7-2.8-1.4-.8-.6-1.4-1.4-1.9-2.3-.5-1.1-.7-2.2-.7-3.4h3.6v.2ZM389.5,332.6h3.7v12.2c0,.7,0,1.4.1,2.1,0,.7.3,1.4.6,2,.3.6.9,1.1,1.5,1.4.9.4,1.8.6,2.8.6s1.9-.1,2.8-.6c.6-.3,1.1-.8,1.5-1.4.3-.6.5-1.3.6-2,0-.7.1-1.5.1-2.1v-12.2h3.7v13.4c0,1.2-.2,2.4-.6,3.5-.4,1-1,1.8-1.7,2.5-.8.7-1.7,1.2-2.7,1.5-1.1.3-2.3.5-3.5.5s-2.4-.2-3.5-.5c-1-.3-1.9-.8-2.7-1.5-.8-.7-1.4-1.6-1.7-2.5-.4-1.1-.6-2.3-.6-3.5v-13.4h-.4ZM412.1,332.6h10c1.9-.1,3.7.4,5.2,1.5,1.2,1.1,1.8,2.6,1.7,4.2,0,.8-.1,1.7-.4,2.5-.2.6-.6,1.1-1,1.6-.3.4-.7.7-1.2.9-.4.2-.7.3-.8.4h0c.4.1.7.2,1,.4.4.2.7.4,1,.7.3.4.6.8.8,1.3.2.7.3,1.4.3,2.1,0,1.1,0,2.3.3,3.4,0,.8.4,1.5.9,2.2h-3.9c-.3-.5-.4-1-.5-1.5v-1.6c0-.8,0-1.7-.2-2.5,0-.6-.3-1.2-.6-1.7-.3-.5-.8-.8-1.3-1-.7-.2-1.4-.3-2.1-.3h-5.4v8.6h-3.7v-21.2ZM415.8,342.1h6c1,0,1.9-.2,2.7-.8.7-.7,1-1.6.9-2.5,0-.6,0-1.1-.3-1.6-.2-.4-.5-.7-.8-1-.4-.2-.8-.4-1.2-.5-.5,0-.9-.1-1.4-.1h-6v6.6h0ZM452.3,353.6h-2.4l-.6-2.5c-.8,1-1.8,1.8-2.9,2.3-1.1.4-2.2.7-3.4.6-1.5,0-2.9-.3-4.2-.9-1.2-.6-2.3-1.4-3.2-2.4-.9-1-1.6-2.2-2-3.5-.5-1.4-.7-2.8-.7-4.3s.2-2.9.7-4.2c.4-1.3,1.1-2.5,2-3.5s2-1.8,3.2-2.4c1.3-.6,2.8-.9,4.2-.9s2.2.1,3.2.5c1,.3,1.9.7,2.7,1.4.8.6,1.5,1.4,2,2.2.5,1,.9,2,1,3.1h-3.6c0-.6-.3-1.3-.6-1.8-.3-.5-.7-1-1.2-1.3-.5-.4-1.1-.6-1.6-.8-.6-.2-1.3-.3-1.9-.3-1,0-2,.2-2.9.7-.8.4-1.5,1.1-2,1.8-.5.8-.9,1.7-1.1,2.6-.2,1-.4,1.9-.4,2.9s.1,2,.4,2.9c.2.9.6,1.8,1.1,2.6.5.8,1.2,1.4,2,1.8.9.5,1.9.7,2.9.7s1.7,0,2.5-.4c.7-.2,1.3-.6,1.8-1.1s.9-1.1,1.1-1.8c.3-.8.4-1.6.4-2.4h-5.6v-2.8h8.9v11.1h.2ZM457.5,332.6h15.1v3.2h-11.4v5.5h10.6v3h-10.6v6.1h11.6v3.2h-15.3v-21h0ZM477.2,332.6h10c1.9-.1,3.7.4,5.2,1.5,1.2,1.1,1.8,2.6,1.7,4.2,0,.8-.1,1.7-.4,2.5-.2.6-.6,1.1-1,1.6-.3.4-.7.7-1.2.9-.4.2-.7.3-.8.4h0c.4.1.7.2,1,.4.4.2.7.4,1,.7.3.4.6.8.8,1.3.2.7.3,1.4.3,2.1,0,1.1,0,2.3.3,3.4,0,.8.4,1.5.9,2.1h-3.9c-.3-.5-.4-1-.5-1.5v-1.6c0-.8,0-1.7-.2-2.5,0-.6-.3-1.2-.6-1.7-.3-.5-.8-.8-1.3-1-.7-.2-1.4-.3-2.1-.3h-5.4v8.6h-3.7v-21h0ZM480.9,342.1h6c1,0,1.9-.2,2.7-.8.7-.7,1-1.6.9-2.5,0-.6,0-1.1-.3-1.6-.2-.4-.5-.7-.8-1-.4-.2-.8-.4-1.2-.5-.5,0-.9-.1-1.4-.1h-6v6.6h0ZM503.5,345.3l-7.9-12.8h4.3l5.6,9.4,5.5-9.4h4.1l-7.9,12.8v8.2h-3.7v-8.2h0Z" fill="#4d4d4f"/></g></g></g></g></svg>
