<?xml version="1.0" encoding="UTF-8" standalone="yes"?>
<svg version="1.2" viewBox="0 0 2834.6 2834.6" baseProfile="tiny-ps" xmlns="http://www.w3.org/2000/svg">
  <title>catenamedia</title>
  <rect x="-477.5" y="-516.9" width="3977.3" height="3977.3" fill="#F53942"/>
  <g>
    <path d="M1551.3,2389.3c-24.1-19.7-53.7-46.2-79.7-76.1c-15.4-17.3-28.7-34.4-40.2-51.6   c-11.6-17.2-21.4-34.6-29.6-52.3c-0.3,0-0.6,0-0.8,0c0.3,0,0.6,0,0.8-0.1c-6.6-13.8-12.3-27.9-17-42.5   c-14.2-43.6-20.3-91.3-20.7-147.3c-0.4-21.7,1.8-42.8,6.1-63.3c2.9-13.7,6.7-27.2,11.4-40.6c18.6-53.4,50.2-104.4,86-156.9   c8.9-13.1,18.1-26.4,27.4-39.8c18.7-26.8,37.8-54.2,56.3-82.8c23.2-35.7,45.3-73.2,64.3-113.5c3.8-8,7.5-16.2,11-24.5   c10.6-24.8,19.9-50.7,27.5-77.9c2.5-9.1,4.8-18.3,7-27.6c4.2-18.7,7.6-38,10-57.9c1.2-10,2.2-20.1,2.8-30.4   c12.3-244.9-267.8-464.4-267.8-464.4s7.5,34.5,10.2,87.9c0.7,13.3,1.1,27.9,1,43.3c-0.1,15.4-0.7,31.8-1.9,48.9   c-2.5,34.2-7.6,71.1-17,108.8c-4,16.3-8.6,31.8-13.8,46.5c-5.2,14.8-10.8,28.8-16.7,42.3c-9.9,22.4-20.7,43.3-31.7,63.5l-0.6-9.1   l0,0c-0.1-0.9-0.1-1.8-0.2-2.7l-0.2-4.1l0,0C1293,627.5,627.7,414.4,627.7,414.4s44.4,58,101.5,153.9c17.2,28.8,35.4,61,54,96.1   c6.2,11.7,12.4,23.7,18.6,36c12.5,24.6,25,50.4,37.2,77.3c6.1,13.4,12.2,27.1,18.1,41c11.9,27.9,23.4,56.7,34.4,86.3   c5.5,14.8,10.8,29.8,15.9,45c20.5,60.7,38,124.3,50.4,189.4c3.1,16.3,5.9,32.7,8.4,49.1c17.2,115.2,17.5,234.4-10,350.4   c-11.3,54.1-19.3,101.8-24.5,144.7c-26.1,164.2,9.4,325.4,95,457.4c12.4,20,25.4,39.5,39.7,57.9c62.8,80.7,142.6,147,235.8,184.4   c33.1,13.2,63.4,24.8,89.7,31.4c42.1,10.5,91.4,15.2,144.9,15.2c20.5,0,42-1.7,62.6-4c-7.6-5.3-16.2-11.9-26.3-19.5   C1566.4,2401.7,1559.3,2395.8,1551.3,2389.3z" fill="#FFFFFF"/>
    <path d="M1958.2,1327.4c73.8,315.8-105.8,673.8-377.2,809.3c-11.8,70.2-21.6,188.4,18.2,289.4   c298.6-38.6,530.2-312.6,530.2-645.1C2129.4,1604.5,2064,1444.5,1958.2,1327.4z" fill="#FFFFFF"/>
  </g>
</svg>