<?xml version="1.0" encoding="utf-8"?>
<!-- Generator: Adobe Illustrator 27.4.0, SVG Export Plug-In . SVG Version: 6.00 Build 0)  -->
<svg version="1.2" baseProfile="tiny-ps" id="Layer_1" xmlns="http://www.w3.org/2000/svg" xmlns:xlink="http://www.w3.org/1999/xlink"
	 viewBox="0 0 1920 629.28" xml:space="preserve">
<title>Corestream</title>
<g>
	<g>
		<path fill="#6A7791" d="M618.57,259.72h-20.04c-24.46,0-48.62,15.91-48.62,45.98c0,30.07,24.16,45.96,48.62,45.96h20.04v24.74
			h-24.74c-32.98,0-71.02-25.34-71.02-70.72s38.01-70.75,71.02-70.75h24.74V259.72z"/>
		<path fill="#6A7791" d="M693.17,232.02c-14.59-0.06-28.86,4.21-41.02,12.27c-12.16,8.06-21.65,19.55-27.27,33.01
			c-5.62,13.46-7.13,28.29-4.32,42.6c2.81,14.31,9.8,27.47,20.1,37.81c10.29,10.34,23.42,17.38,37.72,20.25
			c14.3,2.87,29.14,1.43,42.62-4.14c13.48-5.57,25.01-15.01,33.12-27.14c8.11-12.12,12.44-26.38,12.44-40.97
			c0.16-9.7-1.63-19.32-5.26-28.32c-3.63-8.99-9.02-17.17-15.87-24.04c-6.84-6.87-14.99-12.3-23.97-15.96
			C712.49,233.72,702.87,231.9,693.17,232.02L693.17,232.02z M693.17,354.6c-26.83,0-46.29-20.04-46.29-48.9
			c0-28.86,19.46-48.93,46.29-48.93s46.26,20.04,46.26,48.93C739.43,334.59,719.97,354.6,693.17,354.6z"/>
		<path fill="#6A7791" d="M776.29,234.96h24.74v16.22h0.6c8.82-13.74,20.92-19.24,38.32-19.24h5.8v24.74h-3.82
			c-25.07,0-39.8,15.31-39.8,53.63v65.97h-25.95L776.29,234.96z"/>
		<path fill="#6A7791" d="M990.9,351.66h72.51c12.09,0,16.79-4.7,16.79-13.55c0-25.95-89.3-15.91-89.3-64.84
			c0-25.04,17.4-38.32,48.35-38.32h61.02v24.74h-65.44c-12.67,0-16.22,3.52-16.79,12.37c0,24.46,89.3,14.16,89.3,64.84
			c0,26.83-18.86,39.5-43.98,39.5h-72.51L990.9,351.66z"/>
		<path fill="#6A7791" d="M1195.76,259.72h-50.68v74.21c0,13.25,6.18,17.67,19.46,17.67h31.22v24.74h-34.77
			c-26.52,0-41.86-17.67-41.86-45.68V199.58h25.95v35.37h50.68V259.72z"/>
		<path fill="#6A7791" d="M1206.97,234.96h24.74v16.22h0.6c8.82-13.74,20.92-19.24,38.32-19.24h5.88v24.74h-3.82
			c-25.07,0-39.8,15.31-39.8,53.63v65.97h-25.95L1206.97,234.96z"/>
		<path fill="#6A7791" d="M1548.32,376.43v-79.71c0-26.52-22.4-40.07-45.98-40.07c-28.59,0-46.56,22.68-46.56,49.48
			c0,26.22,19.24,48.32,46.26,48.32c14.76,0,26.85-8.25,35.73-19.43v30.65c-10.31,7.67-20.34,13.55-38.32,13.55
			c-40.68,0-69.54-33.59-69.54-75.15c0-40.38,27.68-72.21,73.09-72.21c43.62,0,71.46,26.52,71.46,67.2v77.21L1548.32,376.43z"/>
		<path fill="#6A7791" d="M1588.73,376.43v-96.2c0-26.52,21.82-48.32,50.71-48.32c15.89,0,31.83,6.49,41.23,20.04
			c9.43-13.55,25.34-20.04,41.23-20.04c28.89,0,50.71,21.8,50.71,48.32v96.2h-25.95v-90.18c0-18-10.03-29.47-25.34-29.47
			c-16.82,0-27.73,9.43-27.73,33.59v86.06h-25.92v-86.06c0-24.16-10.99-33.59-27.71-33.59c-15.31,0-25.34,11.46-25.34,29.47v90.18
			H1588.73z"/>
		<path fill="#6A7791" d="M948.6,241.2c-17.04-9.12-36.98-11.18-55.52-5.73c-18.54,5.44-34.21,17.95-43.62,34.83
			c-9.41,16.88-11.81,36.78-6.68,55.41c5.13,18.63,17.36,34.51,34.08,44.2c11.13,6.31,23.65,9.79,36.45,10.11
			c14.95-0.02,29.55-4.55,41.88-13.01c12.33-8.46,21.82-20.44,27.22-34.38l-30.51,0.14c-17.26,20.06-36.2,30.43-62.97,15.53
			c-6.49-3.42-12.03-8.39-16.13-14.47c-4.1-6.08-6.63-13.08-7.37-20.38l121.1,0.16C988.29,283.22,977.43,257.28,948.6,241.2z
			 M868.89,290.29c0.97-2.49,2.1-4.91,3.38-7.26c14.05-25.23,40.82-33.26,64.24-20.2c13.91,7.75,18.03,15.45,21.44,27.49
			L868.89,290.29z"/>
		<path fill="#6A7791" d="M1382.2,241.2c-17.04-9.12-36.98-11.18-55.52-5.73c-18.54,5.44-34.21,17.95-43.62,34.83
			c-9.41,16.88-11.81,36.78-6.68,55.41c5.12,18.63,17.36,34.51,34.08,44.2c11.13,6.31,23.63,9.78,36.42,10.11
			c14.96-0.01,29.56-4.55,41.89-13c12.34-8.46,21.83-20.44,27.23-34.39l-30.54,0.14c-17.26,20.06-36.2,30.43-62.97,15.53
			c-6.49-3.42-12.03-8.39-16.12-14.47s-6.62-13.08-7.35-20.38l121.1,0.16C1421.86,283.22,1411.03,257.28,1382.2,241.2z
			 M1302.49,290.29c0.98-2.49,2.12-4.91,3.41-7.26c14.05-25.23,40.79-33.26,64.21-20.2c13.91,7.75,18.06,15.45,21.47,27.49
			L1302.49,290.29z"/>
		<path fill-rule="evenodd" fill="#FFC600" d="M403.22,226.13c0-5.35,1.59-10.59,4.56-15.04c2.98-4.45,7.2-7.92,12.15-9.97
			c4.95-2.05,10.39-2.59,15.64-1.54c5.25,1.04,10.08,3.62,13.86,7.41c3.79,3.79,6.37,8.61,7.41,13.86
			c1.04,5.25,0.51,10.7-1.54,15.64c-2.05,4.95-5.52,9.18-9.97,12.15c-4.45,2.97-9.69,4.56-15.04,4.56c-7.18,0-14.07-2.85-19.14-7.93
			C406.07,240.2,403.22,233.31,403.22,226.13L403.22,226.13z"/>
		<path fill-rule="evenodd" fill="#FFC600" d="M184.46,266.73c0-5.35,1.59-10.59,4.56-15.04c2.97-4.45,7.2-7.92,12.15-9.97
			c4.95-2.05,10.39-2.59,15.64-1.54c5.25,1.04,10.08,3.62,13.86,7.41c3.79,3.79,6.36,8.61,7.41,13.86
			c1.04,5.25,0.51,10.7-1.54,15.64c-2.05,4.95-5.52,9.18-9.97,12.15c-4.45,2.97-9.69,4.56-15.04,4.56c-3.56,0-7.08-0.69-10.37-2.05
			c-3.29-1.36-6.27-3.35-8.79-5.87c-2.51-2.51-4.51-5.5-5.87-8.79C185.15,273.81,184.45,270.29,184.46,266.73L184.46,266.73z"/>
		<path fill-rule="evenodd" fill="#FFC600" d="M159.91,207.14c0-5.35,1.59-10.59,4.56-15.04c2.98-4.45,7.2-7.92,12.15-9.97
			c4.95-2.05,10.39-2.59,15.64-1.54s10.08,3.62,13.86,7.41c3.79,3.79,6.36,8.61,7.41,13.86c1.04,5.25,0.51,10.7-1.54,15.64
			c-2.05,4.95-5.52,9.18-9.97,12.15c-4.45,2.97-9.69,4.56-15.04,4.56c-7.18,0-14.07-2.85-19.14-7.93
			C162.77,221.21,159.91,214.32,159.91,207.14L159.91,207.14z"/>
		<path fill="#FFC600" d="M249.38,246.15c14.95,0,27.07-12.12,27.07-27.07S264.33,192,249.38,192c-14.95,0-27.07,12.12-27.07,27.07
			S234.43,246.15,249.38,246.15z"/>
		<path fill-rule="evenodd" fill="#FFC600" d="M284.32,204.86c0-4.01,1.19-7.92,3.41-11.25c2.23-3.33,5.39-5.93,9.09-7.46
			c3.7-1.53,7.77-1.93,11.7-1.15c3.93,0.78,7.54,2.71,10.37,5.54c2.83,2.83,4.76,6.44,5.54,10.37c0.78,3.93,0.38,8-1.15,11.7
			c-1.53,3.7-4.13,6.87-7.46,9.09c-3.33,2.23-7.25,3.41-11.25,3.41c-5.37,0-10.53-2.13-14.32-5.93
			C286.45,215.38,284.32,210.23,284.32,204.86L284.32,204.86z"/>
		<path fill-rule="evenodd" fill="#FFC600" d="M263.98,443.96c0-4.01,1.19-7.92,3.41-11.26c2.23-3.33,5.39-5.93,9.09-7.46
			c3.7-1.53,7.77-1.94,11.7-1.15c3.93,0.78,7.54,2.71,10.37,5.54c2.83,2.83,4.76,6.44,5.54,10.37c0.78,3.93,0.38,8-1.15,11.7
			c-1.53,3.7-4.13,6.87-7.46,9.09c-3.33,2.22-7.25,3.41-11.25,3.41c-5.37,0-10.53-2.14-14.32-5.93
			C266.11,454.49,263.98,449.33,263.98,443.96L263.98,443.96z"/>
		<path fill-rule="evenodd" fill="#FFC600" d="M445.58,278.5c0-4.01,1.19-7.92,3.41-11.25c2.23-3.33,5.39-5.93,9.09-7.46
			c3.7-1.53,7.77-1.93,11.7-1.15c3.93,0.78,7.54,2.71,10.37,5.54c2.83,2.83,4.76,6.44,5.54,10.37c0.78,3.93,0.38,8-1.15,11.7
			c-1.53,3.7-4.13,6.87-7.46,9.09c-3.33,2.23-7.25,3.41-11.26,3.41c-5.37,0-10.52-2.13-14.32-5.93
			C447.71,289.02,445.58,283.87,445.58,278.5L445.58,278.5z"/>
		<path fill-rule="evenodd" fill="#FFC600" d="M397.2,283.42c0-4.01,1.19-7.92,3.41-11.25c2.23-3.33,5.39-5.93,9.09-7.46
			c3.7-1.53,7.77-1.93,11.7-1.15c3.93,0.78,7.54,2.71,10.37,5.54c2.83,2.83,4.76,6.44,5.54,10.37c0.78,3.93,0.38,8-1.15,11.7
			c-1.53,3.7-4.13,6.87-7.46,9.09c-3.33,2.23-7.25,3.41-11.26,3.41c-2.66,0-5.3-0.52-7.76-1.53c-2.46-1.02-4.69-2.51-6.58-4.39
			c-1.88-1.88-3.37-4.12-4.39-6.58C397.72,288.71,397.2,286.08,397.2,283.42L397.2,283.42z"/>
		<path fill-rule="evenodd" fill="#FFC600" d="M324.97,178.94c0-4.01,1.19-7.92,3.41-11.25s5.39-5.93,9.09-7.46
			c3.7-1.53,7.77-1.93,11.7-1.15c3.93,0.78,7.54,2.71,10.37,5.54c2.83,2.83,4.76,6.44,5.54,10.37c0.78,3.93,0.38,8-1.15,11.7
			c-1.53,3.7-4.13,6.87-7.46,9.09c-3.33,2.23-7.25,3.41-11.25,3.41c-5.37,0-10.53-2.13-14.32-5.93
			C327.1,189.47,324.97,184.31,324.97,178.94L324.97,178.94z"/>
		<path fill-rule="evenodd" fill="#FFC600" d="M386.73,353.45c0-8.7,2.58-17.2,7.41-24.43c4.83-7.23,11.7-12.87,19.74-16.2
			c8.04-3.33,16.88-4.2,25.41-2.5c8.53,1.7,16.37,5.89,22.52,12.04c6.15,6.15,10.34,13.99,12.04,22.52
			c1.7,8.53,0.82,17.37-2.5,25.41c-3.33,8.04-8.96,14.9-16.2,19.74c-7.23,4.83-15.73,7.41-24.43,7.41
			c-11.66,0-22.85-4.63-31.1-12.88C391.36,376.3,386.73,365.11,386.73,353.45z"/>
		<path fill="#FFC600" d="M234.23,356.47c5.6-23.65-9.03-47.36-32.67-52.97c-23.65-5.6-47.36,9.03-52.97,32.67
			c-5.6,23.65,9.03,47.36,32.67,52.97C204.91,394.75,228.62,380.12,234.23,356.47z"/>
		<path fill-rule="evenodd" fill="#FFC600" d="M313.53,431.26c0-10.02,2.97-19.81,8.53-28.13c5.56-8.33,13.47-14.82,22.73-18.65
			c9.25-3.83,19.43-4.83,29.26-2.88c9.82,1.96,18.84,6.78,25.92,13.86c7.08,7.08,11.9,16.11,13.85,25.93
			c1.95,9.82,0.94,20-2.89,29.26c-3.84,9.25-10.33,17.15-18.66,22.71c-8.33,5.56-18.12,8.53-28.14,8.52
			c-6.65,0-13.23-1.31-19.37-3.86c-6.14-2.54-11.72-6.27-16.42-10.98c-4.7-4.7-8.43-10.28-10.97-16.43
			C314.84,444.49,313.53,437.91,313.53,431.26L313.53,431.26z"/>
		<path fill-rule="evenodd" fill="#FFC600" d="M335.14,218.99c0.01-2.67,0.8-5.29,2.29-7.51c1.49-2.22,3.6-3.95,6.07-4.97
			c2.47-1.02,5.19-1.28,7.81-0.76c2.62,0.52,5.03,1.81,6.92,3.71c1.89,1.89,3.17,4.3,3.69,6.92c0.52,2.62,0.25,5.34-0.77,7.81
			c-1.02,2.47-2.76,4.58-4.98,6.06c-2.22,1.48-4.84,2.28-7.51,2.28c-1.78,0-3.54-0.35-5.18-1.03s-3.13-1.68-4.39-2.94
			c-1.26-1.26-2.25-2.75-2.93-4.4C335.48,222.53,335.13,220.76,335.14,218.99L335.14,218.99z"/>
		<path fill-rule="evenodd" fill="#FFC600" d="M224.34,448.28c-0.01-2.68,0.79-5.31,2.27-7.54c1.49-2.23,3.6-3.97,6.08-5
			c2.48-1.03,5.2-1.3,7.83-0.78c2.63,0.52,5.05,1.81,6.95,3.71c1.9,1.9,3.19,4.31,3.71,6.94c0.52,2.63,0.25,5.36-0.78,7.84
			c-1.03,2.48-2.77,4.59-5,6.08c-2.23,1.49-4.86,2.28-7.54,2.27c-1.78,0-3.53-0.35-5.18-1.03c-1.64-0.68-3.13-1.68-4.39-2.93
			c-1.26-1.26-2.25-2.75-2.93-4.39C224.69,451.81,224.34,450.05,224.34,448.28z"/>
		<path fill-rule="evenodd" fill="#FFC600" d="M388.71,160.88c0.01-2.67,0.8-5.29,2.29-7.51c1.49-2.22,3.6-3.95,6.07-4.97
			c2.47-1.02,5.19-1.28,7.81-0.76c2.62,0.52,5.03,1.82,6.92,3.71c1.89,1.89,3.17,4.3,3.69,6.92c0.52,2.62,0.25,5.34-0.77,7.81
			c-1.03,2.47-2.76,4.58-4.98,6.06c-2.22,1.48-4.84,2.28-7.51,2.28c-1.78,0-3.54-0.35-5.18-1.03c-1.64-0.68-3.13-1.68-4.39-2.94
			c-1.26-1.26-2.25-2.75-2.93-4.4C389.05,164.42,388.7,162.66,388.71,160.88z"/>
		<path fill-rule="evenodd" fill="#FFC600" d="M367.49,239.33c0-2.68,0.8-5.3,2.29-7.53c1.49-2.23,3.61-3.97,6.09-4.99
			c2.48-1.02,5.2-1.29,7.83-0.77c2.63,0.52,5.04,1.82,6.94,3.72c1.89,1.9,3.18,4.32,3.7,6.95c0.52,2.63,0.25,5.36-0.78,7.83
			c-1.03,2.48-2.77,4.59-5,6.08c-2.23,1.49-4.85,2.28-7.54,2.27c-1.78,0-3.54-0.35-5.18-1.03c-1.64-0.68-3.13-1.68-4.39-2.94
			c-1.26-1.26-2.25-2.75-2.93-4.4C367.83,242.87,367.48,241.1,367.49,239.33z"/>
		<path fill-rule="evenodd" fill="#FFC600" d="M424.88,418.13c0-2.67,0.79-5.29,2.28-7.51c1.49-2.22,3.6-3.96,6.07-4.98
			c2.47-1.02,5.19-1.29,7.81-0.77c2.62,0.52,5.03,1.81,6.92,3.7c1.89,1.89,3.18,4.3,3.7,6.92c0.52,2.62,0.25,5.34-0.77,7.81
			c-1.03,2.47-2.76,4.58-4.98,6.07c-2.22,1.49-4.84,2.28-7.51,2.28c-3.59,0-7.03-1.42-9.56-3.96
			C426.31,425.15,424.88,421.71,424.88,418.13L424.88,418.13z"/>
		<path fill-rule="evenodd" fill="#FFC600" d="M284.73,403.31c0-2.67,0.79-5.29,2.28-7.51c1.49-2.22,3.6-3.96,6.07-4.98
			c2.47-1.02,5.19-1.29,7.81-0.77c2.62,0.52,5.03,1.81,6.92,3.7c1.89,1.89,3.18,4.3,3.7,6.92c0.52,2.62,0.25,5.34-0.77,7.81
			c-1.02,2.47-2.76,4.58-4.98,6.07c-2.22,1.49-4.84,2.28-7.51,2.28c-3.58-0.01-7.02-1.43-9.55-3.97
			C286.16,410.33,284.73,406.9,284.73,403.31z"/>
		<path fill-rule="evenodd" fill="#FFC600" d="M300.37,311.34c-0.01-2.68,0.78-5.3,2.27-7.54c1.49-2.23,3.6-3.97,6.08-5
			c2.48-1.03,5.2-1.3,7.83-0.78c2.63,0.52,5.05,1.81,6.94,3.7c1.9,1.89,3.19,4.31,3.72,6.94c0.52,2.63,0.26,5.36-0.77,7.83
			c-1.02,2.48-2.76,4.6-4.99,6.09c-2.23,1.49-4.85,2.29-7.53,2.29c-3.59,0-7.03-1.42-9.57-3.96
			C301.81,318.37,300.37,314.93,300.37,311.34z"/>
		<path fill-rule="evenodd" fill="#FFC600" d="M371.58,197.25c0-2.68,0.79-5.3,2.28-7.53c1.49-2.23,3.61-3.97,6.08-4.99
			c2.48-1.03,5.2-1.29,7.83-0.77c2.63,0.52,5.04,1.81,6.94,3.71s3.19,4.31,3.71,6.94c0.52,2.63,0.25,5.35-0.77,7.83
			c-1.03,2.48-2.76,4.59-4.99,6.08c-2.23,1.49-4.85,2.28-7.53,2.28c-3.59,0-7.04-1.43-9.58-3.97
			C373.01,204.29,371.58,200.84,371.58,197.25L371.58,197.25z"/>
		<path fill-rule="evenodd" fill="#FFC600" d="M260.29,162.92c-0.01-2.68,0.79-5.31,2.27-7.54c1.49-2.23,3.6-3.97,6.08-5
			c2.48-1.03,5.2-1.3,7.84-0.78s5.05,1.81,6.94,3.71c1.9,1.9,3.19,4.31,3.71,6.94c0.52,2.63,0.25,5.36-0.78,7.84
			c-1.03,2.48-2.77,4.59-5,6.08c-2.23,1.49-4.86,2.28-7.54,2.27c-3.59,0-7.03-1.42-9.56-3.96
			C261.72,169.94,260.29,166.5,260.29,162.92z"/>
		<path fill-rule="evenodd" fill="#FFC600" d="M223.71,398.56c0-5.35,1.59-10.59,4.56-15.04c2.97-4.45,7.2-7.92,12.15-9.97
			c4.95-2.05,10.39-2.59,15.64-1.54c5.25,1.04,10.08,3.62,13.86,7.41c3.79,3.79,6.36,8.61,7.41,13.86
			c1.04,5.25,0.51,10.7-1.54,15.64c-2.05,4.95-5.52,9.18-9.97,12.15c-4.45,2.97-9.69,4.56-15.04,4.56c-7.18,0-14.07-2.85-19.14-7.93
			C226.56,412.62,223.71,405.74,223.71,398.56L223.71,398.56z"/>
	</g>
	<g>
		<path fill="#5F789E" d="M1787.35,232.2c-1.88,0-3.61-0.32-5.2-0.97c-1.59-0.65-2.96-1.55-4.13-2.72
			c-1.17-1.16-2.08-2.54-2.72-4.12c-0.64-1.59-0.96-3.31-0.96-5.18c0-1.88,0.32-3.61,0.97-5.2c0.65-1.58,1.55-2.96,2.72-4.12
			c1.17-1.17,2.55-2.07,4.13-2.72c1.59-0.65,3.31-0.97,5.18-0.97c1.81,0,3.5,0.33,5.08,0.98s2.96,1.56,4.14,2.73
			c1.19,1.17,2.12,2.55,2.79,4.13s1,3.3,1,5.17s-0.32,3.59-0.97,5.18c-0.65,1.59-1.55,2.96-2.72,4.12
			c-1.17,1.17-2.55,2.07-4.13,2.72C1790.94,231.88,1789.22,232.2,1787.35,232.2z M1787.35,230.43c1.53,0,2.97-0.28,4.32-0.83
			c1.34-0.55,2.52-1.33,3.54-2.34c1.01-1.01,1.81-2.2,2.39-3.56c0.58-1.37,0.87-2.86,0.87-4.49c0-1.54-0.27-2.99-0.82-4.34
			c-0.55-1.35-1.32-2.54-2.31-3.58c-0.99-1.04-2.17-1.85-3.52-2.43c-1.35-0.58-2.84-0.87-4.45-0.87s-3.1,0.28-4.45,0.83
			c-1.35,0.55-2.53,1.33-3.53,2.34c-1,1.01-1.77,2.2-2.32,3.56c-0.55,1.37-0.82,2.86-0.82,4.49c0,1.54,0.27,3,0.81,4.35
			c0.54,1.35,1.31,2.55,2.31,3.58c1,1.03,2.17,1.84,3.53,2.42C1784.23,230.14,1785.72,230.43,1787.35,230.43z M1782.56,226.94
			v-15.45h4.51c1.88,0,3.27,0.38,4.17,1.13c0.9,0.76,1.35,1.89,1.35,3.42c0,1.12-0.29,2-0.86,2.66c-0.57,0.65-1.23,1.12-1.96,1.41
			l4.1,6.83h-2.84l-3.58-6.16h-2.39v6.16H1782.56z M1785.06,218.74h1.92c0.96,0,1.71-0.24,2.26-0.71c0.55-0.47,0.82-1.11,0.82-1.92
			c0-0.89-0.25-1.53-0.76-1.92c-0.51-0.39-1.29-0.59-2.35-0.59h-1.89V218.74z"/>
	</g>
</g>
</svg>
