<?xml version="1.0" encoding="UTF-8" standalone="yes"?>
<svg width="140" height="140" viewBox="-15 0 140 36" fill="#307DE1" version="1.2" baseProfile="tiny-ps" xmlns="http://www.w3.org/2000/svg">
  <title>bimi-svg-tiny-12-ps</title>
  <rect id="rect993" width="140" height="140" x="-15" y="-52" fill="#307de1" fill-opacity="1" stroke-width="0"/>
  <defs id="defs844"/>
  <path d="M30.7125 9.18367V26.6614C30.7125 26.6614 31.0248 28.2465 33.3592 29.6519C33.3592 29.6519 35.5401 31.2581 41.0964 32.7744C41.0964 32.7744 45.7341 33.9236 48.1231 34.304C48.1231 34.304 51.5272 34.8641 55.5376 35.2947C55.5376 35.2947 60.878 35.7728 63.6418 35.8653C63.6418 35.8653 67.2176 36 69.8071 36C69.8071 36 73.867 36 75.4857 35.9102C75.4857 35.9102 78.692 35.7675 80.7115 35.646C80.7115 35.646 85.5053 35.3158 87.6394 34.9803C87.6394 34.9803 91.6576 34.481 93.8125 34.024C93.8125 34.024 95.8294 33.6172 98.0572 33.0994C99.6857 32.7249 101.287 32.2385 102.851 31.6438C104.451 31.0835 105.978 30.3296 107.4 29.3983C107.4 29.3983 109.342 28.0774 109.638 26.7037V10.0079C109.638 10.0079 109.787 8.68702 108.857 8.48889C108.606 8.43555 108.35 8.40723 108.092 8.40435H104.798V25.9984C104.798 25.9984 104.86 26.2625 104.467 26.7143C104.467 26.7143 103.783 27.5068 101.438 28.1567C99.7836 28.6217 98.1049 28.9922 96.4098 29.2662C96.4098 29.2662 92.3056 29.8712 90.6296 30.0376C90.6296 30.0376 85.5652 30.4999 83.681 30.6082C83.681 30.6082 81.193 30.8037 77.5573 30.8882C77.5573 30.8882 71.379 30.9992 70.7284 30.9992C70.7284 30.9992 66.6503 30.9754 65.984 30.9648C65.984 30.9648 59.6105 30.7773 57.9814 30.6795C57.9814 30.6795 52.5031 30.4154 50.723 30.1353C50.723 30.1353 46.7438 29.7761 44.1856 29.3005C41.6273 28.825 37.4581 28.051 35.9825 26.783C35.7977 26.6227 35.6592 26.4145 35.5817 26.1806V14.9374C35.5817 14.9374 36.68 13.2599 38.4106 12.4541C38.847 12.284 39.3173 12.2232 39.7817 12.277C40.2461 12.3308 40.6909 12.4976 41.0782 12.7632C41.0782 12.7632 42.3118 13.5875 42.3222 16.039V26.2599C42.3222 26.2599 42.2753 26.9362 42.6319 27.0762C42.6319 27.0762 43.1966 27.3985 44.4901 27.3641C45.1593 27.4009 45.8305 27.3548 46.4888 27.2268C46.4888 27.2268 47.1836 27.0973 47.1836 26.5822V15.6242C47.1836 15.6242 47.332 12.3511 45.9449 10.3777C45.4943 9.69079 44.8934 9.1188 44.1892 8.70638C43.485 8.29396 42.6964 8.05227 41.885 8.00016C41.885 8.00016 39.5297 7.59598 37.5284 8.86401C36.5263 9.4515 35.6282 10.2051 34.8713 11.0936V9.07007C34.8713 9.07007 34.9754 8.60777 34.2388 8.41228C33.2797 8.22273 32.2936 8.22273 31.3345 8.41228C31.1572 8.44438 30.997 8.53978 30.883 8.68124C30.7689 8.8227 30.7084 9.00091 30.7125 9.18367Z" fill="#ffffff" id="path824" fill-opacity="1.0"/>
  <path d="M105.409 12.4145V8.40435H97.037V4.48929C97.037 4.48929 97.1411 3.88169 95.9205 3.72847C94.9789 3.64211 94.0311 3.65273 93.0916 3.76017C93.0916 3.76017 92.1963 3.87376 92.1911 4.41268V8.40435H90.1352C90.1352 8.40435 89.6641 8.35152 89.4819 9.05158C89.3045 9.96114 89.3125 10.898 89.5054 11.8043C89.5054 11.8043 89.6693 12.4066 90.117 12.4066H92.1859V20.7334C92.1859 20.7334 92.022 23.7212 92.9667 25.2904C93.2418 25.8085 93.6217 26.2617 94.0814 26.6205C94.5411 26.9792 95.0703 27.2353 95.6342 27.3721C96.8082 27.6659 98.0276 27.7225 99.2231 27.5385C99.2231 27.5385 101.209 27.3721 101.422 26.3603C101.422 26.3603 101.797 25.1662 101.375 23.2827C101.326 23.1814 101.239 23.1038 101.134 23.0668C101.029 23.0297 100.914 23.0361 100.813 23.0845C100.813 23.0845 99.361 23.774 98.2888 23.3857C98.2888 23.3857 97.1463 23.2985 97.0474 20.8945V12.404L105.409 12.4145Z" fill="#ffffff" id="path826"/>
  <path d="M67.8344 17.0561C67.8344 17.6584 67.7025 18.1031 67.4388 18.3902C67.2977 18.5375 67.1272 18.6524 66.9386 18.7271C66.75 18.8019 66.5479 18.8347 66.3458 18.8234H55.8447C55.8369 19.5105 55.9245 20.1953 56.105 20.8575C56.2615 21.432 56.5455 21.9624 56.9352 22.4083C57.3395 22.849 57.8445 23.182 58.4056 23.3778C59.0999 23.6166 59.8301 23.7302 60.563 23.7133C61.3149 23.7213 62.0659 23.6585 62.8064 23.5257C63.3717 23.422 63.9305 23.2844 64.4798 23.1136C64.9482 22.963 65.3412 22.8256 65.6483 22.7015C65.8868 22.5937 66.1424 22.5301 66.403 22.5139C66.5045 22.5102 66.6051 22.5339 66.6945 22.5826C66.7827 22.6424 66.8508 22.7281 66.8897 22.8283C66.951 22.988 66.987 23.1565 66.9964 23.3276C67.0146 23.5442 67.025 23.8163 67.025 24.1439C67.025 24.4318 67.025 24.6722 67.0068 24.8783C66.9886 25.0843 66.973 25.2534 66.9496 25.4066C66.9285 25.5334 66.889 25.6562 66.8324 25.7712C66.7769 25.8746 66.7087 25.9705 66.6294 26.0565C66.4227 26.219 66.1904 26.3449 65.9424 26.429C65.4766 26.6173 64.9983 26.7718 64.511 26.8913C63.8544 27.056 63.1899 27.1865 62.5201 27.2823C61.7253 27.3969 60.9234 27.4525 60.1206 27.4487C58.7544 27.4736 57.3932 27.2747 56.0894 26.8596C54.9998 26.507 54.0093 25.8946 53.2006 25.0738C52.3938 24.2205 51.8003 23.1832 51.4699 22.049C51.0655 20.6604 50.8733 19.2171 50.9 17.7694C50.8804 16.3425 51.0824 14.9214 51.4986 13.5584C51.8554 12.3908 52.4474 11.3113 53.237 10.3883C53.9991 9.51724 54.9483 8.83572 56.0113 8.39644C57.1826 7.92146 58.4352 7.68711 59.6964 7.70695C60.9608 7.67372 62.2192 7.89365 63.3998 8.35418C64.3678 8.74474 65.2324 9.35995 65.9242 10.1506C66.5942 10.9404 67.0886 11.8676 67.3738 12.8689C67.6931 13.9782 67.85 15.1291 67.8396 16.2847L67.8344 17.0561ZM63.1161 15.6427C63.156 14.255 62.8827 13.1657 62.2963 12.3749C61.7099 11.5841 60.8042 11.1879 59.5793 11.1861C59.0214 11.1729 58.4684 11.2942 57.9658 11.5401C57.5186 11.766 57.128 12.0921 56.8233 12.4938C56.5072 12.9174 56.2707 13.3965 56.1258 13.9071C55.9614 14.4716 55.867 15.0546 55.8447 15.6427H63.1161Z" fill="#ffffff" id="path828"/>
  <path d="M76.7115 26.6562C76.7143 26.782 76.6728 26.9047 76.5944 27.0022C76.4873 27.1188 76.3503 27.203 76.1988 27.2453C75.9569 27.3224 75.7073 27.3721 75.4545 27.3932C74.669 27.4582 73.8796 27.4582 73.0941 27.3932C72.8413 27.3721 72.5917 27.3224 72.3497 27.2453C72.1983 27.203 72.0613 27.1188 71.9542 27.0022C71.8767 26.9043 71.8361 26.7817 71.8397 26.6562V0.843668C71.8381 0.71605 71.8784 0.591533 71.9542 0.489675C72.0591 0.365836 72.1962 0.27432 72.3497 0.2255C72.5909 0.141743 72.8406 0.085912 73.0941 0.0590703C73.879 -0.0196901 74.6696 -0.0196901 75.4545 0.0590703C75.708 0.085912 75.9577 0.141743 76.1988 0.2255C76.3524 0.27432 76.4895 0.365836 76.5944 0.489675C76.6709 0.591289 76.7121 0.715774 76.7115 0.843668V26.6562Z" fill="#ffffff" id="path830"/>
  <path d="M86.8066 3.21597C86.8066 4.21103 86.6071 4.89788 86.208 5.27653C85.809 5.65518 85.0673 5.84539 83.9829 5.84715C82.8881 5.84715 82.1499 5.66399 81.7682 5.29766C81.3865 4.93134 81.1965 4.27091 81.1982 3.31636C81.1982 2.3213 81.3951 1.63092 81.789 1.24523C82.1828 0.859534 82.9272 0.666687 84.0219 0.666687C85.1046 0.666687 85.8437 0.854251 86.2263 1.22674C86.6088 1.59922 86.8066 2.2623 86.8066 3.21861" fill="#ffffff" id="path832"/>
  <path d="M86.4344 26.6562C86.4372 26.782 86.3957 26.9047 86.3173 27.0022C86.2102 27.1189 86.0732 27.203 85.9217 27.2453C85.6798 27.3224 85.4302 27.3721 85.1774 27.3932C84.3919 27.4582 83.6025 27.4582 82.817 27.3932C82.5642 27.3723 82.3145 27.3226 82.0726 27.2453C81.921 27.2034 81.7839 27.1192 81.6771 27.0022C81.5987 26.9047 81.5571 26.782 81.5599 26.6562V9.18368C81.5584 9.05966 81.5998 8.93902 81.6771 8.8429C81.7834 8.72069 81.92 8.6295 82.0726 8.57872C82.3137 8.49461 82.5634 8.43877 82.817 8.41229C83.6019 8.33352 84.3925 8.33352 85.1774 8.41229C85.4309 8.43898 85.6806 8.49481 85.9217 8.57872C86.0742 8.62996 86.2106 8.72108 86.3173 8.8429C86.3945 8.93902 86.436 9.05966 86.4344 9.18368V26.6562Z" fill="#ffffff" id="path834"/>
  <path d="M109.997 3.21597C109.997 4.21103 109.797 4.89788 109.396 5.27653C108.995 5.65518 108.255 5.84539 107.174 5.84715C106.079 5.84715 105.341 5.66399 104.959 5.29766C104.577 4.93134 104.388 4.27091 104.392 3.31636C104.392 2.3213 104.589 1.63092 104.982 1.24523C105.376 0.859534 106.121 0.666687 107.215 0.666687C108.296 0.666687 109.031 0.85337 109.42 1.22674C109.808 1.6001 110.002 2.26406 110 3.21861" fill="#ffffff" id="path836"/>
  <path fill-rule="evenodd" d="M22.7254 11.519C22.357 11.5186 21.9921 11.5919 21.6516 11.7347C21.3111 11.8775 21.0016 12.087 20.7409 12.3512C20.4801 12.6154 20.2732 12.9291 20.1319 13.2745C19.9906 13.6199 19.9177 13.9901 19.9173 14.3641C19.9211 14.6909 19.981 15.0145 20.0943 15.3204L17.4684 17.0772C17.2298 16.6257 16.9054 16.2266 16.514 15.9029C16.1226 15.5793 15.6719 15.3376 15.188 15.1917C14.7041 15.0458 14.1965 14.9987 13.6946 15.053C13.1926 15.1072 12.7062 15.2619 12.2634 15.508L9.4267 11.9522C10.524 10.9676 11.2034 9.59024 11.3228 8.10856C11.4422 6.62688 10.9922 5.15577 10.0671 4.00328C9.14201 2.85078 7.81352 2.10628 6.35983 1.92566C4.90615 1.74504 3.43998 2.14231 2.26835 3.03429C1.09672 3.92626 0.310482 5.24377 0.0742676 6.71094C-0.161947 8.1781 0.170183 9.68114 1.00111 10.9053C1.83204 12.1295 3.09732 12.9799 4.53203 13.2785C5.96673 13.577 7.45959 13.3006 8.69801 12.507L11.5009 16.0363C10.7722 16.6871 10.3134 17.5939 10.2168 18.5742C10.1203 19.5545 10.3931 20.5355 10.9804 21.3198L7.42799 25.1741C7.02816 24.9547 6.58126 24.8386 6.12675 24.836C5.47613 24.8324 4.84426 25.057 4.33797 25.4718C3.83169 25.8866 3.48206 26.4662 3.34819 27.1125C3.21432 27.7588 3.30444 28.4322 3.6033 29.0189C3.90217 29.6055 4.39143 30.0694 4.98838 30.3321C5.58533 30.5947 6.25333 30.6401 6.87943 30.4605C7.50553 30.2809 8.05132 29.8873 8.42451 29.3463C8.7977 28.8053 8.97539 28.1501 8.92754 27.4914C8.87968 26.8328 8.60923 26.2111 8.16189 25.7315L11.6076 22.0014C12.2702 22.5727 13.1048 22.8978 13.9738 22.9232C14.8428 22.9487 15.6944 22.6729 16.3884 22.1414L17.8015 23.7265C17.5125 24.124 17.3639 24.6089 17.3797 25.1027C17.3955 25.5966 17.5747 26.0706 17.8885 26.4484C18.2023 26.8261 18.6323 27.0855 19.1092 27.1847C19.586 27.2838 20.0819 27.217 20.5168 26.995C20.9516 26.773 21.3001 26.4087 21.5059 25.961C21.7118 25.5132 21.763 25.0081 21.6513 24.5272C21.5396 24.0463 21.2716 23.6176 20.8904 23.3103C20.5092 23.003 20.0372 22.8351 19.5504 22.8336C19.1801 22.8356 18.8168 22.9358 18.4964 23.1241L17.0546 21.5074C17.4695 21.0301 17.7586 20.454 17.8952 19.8327C18.0317 19.2115 18.0111 18.5653 17.8354 17.9542L20.5393 16.1314C20.8346 16.508 21.2192 16.8024 21.6571 16.9869C22.095 17.1714 22.5719 17.24 23.0431 17.1862C23.5143 17.1325 23.9643 16.9582 24.351 16.6797C24.7377 16.4011 25.0484 16.0275 25.2539 15.5938C25.4595 15.1601 25.5532 14.6805 25.5263 14.2C25.4993 13.7195 25.3526 13.2538 25.0999 12.8465C24.8472 12.4393 24.4968 12.1038 24.0815 11.8716C23.6662 11.6394 23.1996 11.5181 22.7254 11.519ZM2.14233 7.65937C2.14027 6.94677 2.34656 6.24958 2.73507 5.65606C3.12359 5.06254 3.67686 4.59938 4.32484 4.32524C4.97283 4.05109 5.68637 3.97827 6.37515 4.11601C7.06392 4.25375 7.69694 4.59584 8.19407 5.09899C8.6912 5.60213 9.03007 6.24369 9.16778 6.94245C9.3055 7.6412 9.23586 8.36572 8.96769 9.02428C8.69952 9.68284 8.24488 10.2458 7.66132 10.6419C7.07776 11.0381 6.39154 11.2495 5.68953 11.2495C4.75097 11.2481 3.8511 10.8698 3.18647 10.1971C2.52183 9.5244 2.14646 8.61207 2.14233 7.65937Z" fill="#ffffff" id="path838"/>
</svg>