<?xml version="1.0" encoding="utf-8" standalone="yes"?><!-- Generator: Adobe Illustrator 27.6.1, SVG Export Plug-In . SVG Version: 6.00 Build 0)  --><svg xmlns="http://www.w3.org/2000/svg" xmlns:xlink="http://www.w3.org/1999/xlink" version="1.2" baseProfile="tiny-ps" viewBox="0 0 1024 1024" xml:space="preserve"><title>test3</title><linearGradient id="SVGID_1_" gradientUnits="userSpaceOnUse" x1="512" y1="1024" x2="512" y2="-9.094947e-13"><stop offset="0.3" stop-color="#FFCC00"></stop><stop offset="0.4014" stop-color="#FFCD04"></stop><stop offset="0.5066" stop-color="#FFCF11"></stop><stop offset="0.6135" stop-color="#FFD425"></stop><stop offset="0.7216" stop-color="#FFD942"></stop><stop offset="0.8306" stop-color="#FFE168"></stop><stop offset="0.9389" stop-color="#FFEA95"></stop><stop offset="1" stop-color="#FFF0B2"></stop></linearGradient><rect fill="url(#SVGID_1_)" width="1024" height="1024"></rect><g><g><g><polygon fill="#D40511" points="73.1,528.4 191.8,528.4 185.4,537.2 73.1,537.2 73.1,528.4    "></polygon><polygon fill="#D40511" points="73.1,512 203.9,512 197.4,520.8 73.1,520.8 73.1,512    "></polygon><polygon fill="#D40511" points="73.1,544.8 179.8,544.8 173.3,553.5 73.1,553.5 73.1,544.8    "></polygon></g><g><polygon fill="#D40511" points="950.9,537.2 832.6,537.2 839.1,528.4 950.9,528.4 950.9,537.2    "></polygon><polygon fill="#D40511" points="950.9,553.5 820.6,553.5 827.1,544.8 950.9,544.8 950.9,553.5    "></polygon><polygon fill="#D40511" points="851.2,512 950.9,512 950.9,520.8 844.7,520.8 851.2,512    "></polygon></g></g><g><path fill="#D40511" d="M188.1,553.5l56.3-76.5c0,0,62.4,0,69.9,0c7.7,0,7.6,2.9,3.8,8c-3.8,5.2-10.4,14.1-14.3,19.4    c-2,2.7-5.6,7.6,6.3,7.6c12.6,0,93.6,0,93.6,0c-7.8,10.7-33,41.5-78.4,41.5C288.7,553.5,188.1,553.5,188.1,553.5L188.1,553.5z"></path><path fill="#D40511" d="M510.7,512l-30.5,41.5h-80.6c0,0,30.5-41.5,30.6-41.5L510.7,512L510.7,512z"></path><path fill="#D40511" d="M627.2,512l-30.6,41.5h-80.5c0,0,30.5-41.5,30.6-41.5H627.2L627.2,512z"></path><path fill="#D40511" d="M653.4,512c0,0-5.9,8-8.7,11.9c-10.1,13.7-1.2,29.6,31.8,29.6c38.1,0,129.4,0,129.4,0l30.6-41.5H653.4    L653.4,512z"></path></g><g><path fill="#D40511" d="M227.5,429.4l-28,38.1c0,0,145.4,0,152.8,0c7.7,0,7.6,2.9,3.8,8c-3.8,5.2-10.3,14.2-14.2,19.5    c-2,2.7-5.6,7.6,6.3,7.6c12.6,0,62.5,0,62.5,0s10.1-13.7,18.5-25.2c11.5-15.6,1-48-40.1-48C352.5,429.4,227.5,429.4,227.5,429.4    L227.5,429.4z"></path><polygon fill="#D40511" points="634.1,502.6 437,502.6 490.9,429.4 571.5,429.4 540.6,471.4 576.5,471.4 607.5,429.4 688,429.4     634.1,502.6   "></polygon><path fill="#D40511" d="M799.5,429.4l-53.9,73.2h-85.4c0,0,53.9-73.2,53.9-73.2H799.5L799.5,429.4z"></path></g></g></svg>