<?xml version="1.0" encoding="UTF-8" standalone="yes"?>
<svg version="1.2" baseProfile="tiny-ps" viewBox="0 0 48 48" xml:space="preserve" xmlns="http://www.w3.org/2000/svg">
  <title>PayPal</title>
  <path fill="#001C64" d="M33.9,14.6c0.1-4.6-3.7-8.2-9-8.2H14c-0.5,0-1,0.4-1.1,0.9L8.6,34.6c-0.1,0.5,0.2,0.9,0.7,1c0,0,0.1,0,0.1,0&#xA;&#x9;h6.5l-1,6.3c-0.1,0.5,0.2,0.9,0.7,1c0,0,0.1,0,0.1,0H21c0.3,0,0.5-0.1,0.7-0.3c0.2-0.2,0.2-0.4,0.3-0.6l1.5-9.1&#xA;&#x9;c0-0.3,0.2-0.6,0.4-0.7c0.2-0.2,0.4-0.3,0.6-0.3h3.2c5.2,0,9.5-3.7,10.3-8.8C38.6,19.5,37.1,16.2,33.9,14.6L33.9,14.6z"/>
  <path fill="#0070E0" d="M17.3,25.5l-1.6,10.2l-1,6.4c-0.1,0.5,0.2,0.9,0.7,1c0,0,0.1,0,0.1,0h5.6c0.5,0,1-0.4,1.1-0.9l1.5-9.3&#xA;&#x9;c0.1-0.5,0.5-0.9,1.1-0.9H28c5.2,0,9.5-3.8,10.3-8.9c0.6-3.6-1.3-6.9-4.4-8.5c0,0.4,0,0.8-0.1,1.2c-0.8,5.1-5.2,8.9-10.3,8.9h-5.1&#xA;&#x9;C17.9,24.6,17.4,25,17.3,25.5z"/>
  <path fill="#003087" d="M15.7,35.7H9.2c-0.5,0-0.9-0.4-0.9-0.9c0,0,0-0.1,0-0.1L12.8,7c0.1-0.5,0.5-0.9,1.1-0.9h11.1&#xA;&#x9;c5.3,0,9.1,3.8,9,8.5c-1.3-0.7-2.9-1.1-4.5-1.1h-9.3c-0.5,0-1,0.4-1.1,0.9l-1.7,11.1L15.7,35.7L15.7,35.7z"/>
</svg>