<?xml version="1.0" encoding="UTF-8" standalone="yes"?>
<svg width="120" height="120" viewBox="0 0 120 120" fill="none" version="1.2" baseProfile="tiny-ps" xmlns="http://www.w3.org/2000/svg">
  <title>Honey</title>
  <rect width="120" height="120" fill="white"/>
  <path fill-rule="evenodd" d="M51.2818 38.1465C51.4225 34.6435 52.1771 30.0034 54.4828 27.2589C57.7313 23.4236 64.3215 24.0401 65.405 29.577C65.922 32.2773 65.2149 35.5903 63.9907 37.9103C61.4037 42.9748 56.6003 47.1405 51.1868 48.5617C51.2343 45.3909 51.1887 41.2713 51.2818 38.1465ZM95.438 87.0976C92.7065 90.2704 89.2242 92.7306 85.8806 92.5885C82.1151 92.4483 82.4914 87.7602 82.4914 85.1099V73.9841C82.539 71.8542 82.539 69.7243 82.3033 67.6405C81.6912 61.439 78.0663 56.4686 71.2405 55.9943C59.3793 55.5199 54.671 67.0259 51.1887 76.4923V55.758C61.5444 54.1486 75.9013 48.3255 76.3252 35.0698C77.0323 12.534 39.1375 11.7312 39.2781 40.0882C39.3257 42.2661 39.3257 46.4318 39.3257 48.6097C34.241 47.8511 30.1466 40.3725 28.2629 35.9206C28.0272 35.306 27.3695 34.9757 26.7574 35.1639C19.6483 37.0115 18.6143 44.5381 23.4158 49.6507C27.3695 53.8644 33.6764 55.4738 39.2306 55.758C39.185 72.1845 39.185 82.3174 39.185 98.6959C39.4207 101.016 42.5742 101.632 44.4104 101.678C46.4804 101.727 50.3409 101.112 50.5291 98.4136C51.1887 90.3645 58.0126 66.5996 67.2868 66.5996C69.4518 66.5996 70.4878 68.0189 70.4878 70.1027V89.4657C70.4878 97.5128 75.0079 102.91 83.2442 102.958C90.5414 102.958 96.9434 96.8982 100.144 89.9381C101.133 87.7141 96.8978 85.4402 95.438 87.0976Z" fill="#F26C25"/>
</svg>