<?xml version="1.0" encoding="UTF-8"?>
<svg xmlns="http://www.w3.org/2000/svg" baseProfile="tiny-ps" version="1.2" viewBox="0 0 700 700">
  <!-- Generator: Adobe Illustrator 28.6.0, SVG Export Plug-In . SVG Version: 1.2.0 Build 709)  -->
<title>PayPal</title>
  <g>
    <g id="Avatar">
      <g id="Circle-Avatar">
        <rect width="700" height="700" fill="#fff"/>
        <g>
          <path d="M177.6,487h91.3l17.2-111.8,3.6-23.2h0l20.7-135h123.8c20.7,0,39.8,5.1,55.4,13.5h0c.2-12.5-1.8-24.6-5.9-35.7-14.4-39.4-53.6-67.7-103.3-67.7h-147.8l-54.9,359.9h0Z" fill="#002991"/>
          <path d="M289.6,352.1l-3.6,23.2-17.2,111.8-14.6,90h90.7l21.3-135h51c62.2,0,114.8-45.5,124.9-108,6.7-43.8-15.1-83.8-52.6-103.4,0,0,0,0,0,0,0,0,0,0,0,0,0,0,0,0,0,0h0c0,49.6-40,107.2-102.5,119.2-7.7,1.5-15.7,2.3-24,2.3h-73.4Z" fill="#60cdff"/>
          <path d="M489.6,230.7s0,0,0,0c0-.9,0-1,0,0h0s0,0,0,0Z"/>
          <path d="M310.3,217.1l-20.7,135h73.4c8.3,0,16.4-.8,24-2.3,62.5-12,102.5-69.6,102.5-119.2h0c-15.7-8.4-34.7-13.5-55.4-13.5h-123.8Z" fill="#008cff"/>
        </g>
      </g>
    </g>
  </g>
</svg>