<?xml version="1.0" encoding="utf-8"?>
<!-- Generator: Adobe Illustrator 27.9.1, SVG Export Plug-In . SVG Version: 6.00 Build 0)  -->
<svg version="1.2" baseProfile="tiny-ps" id="yodosha-logo"
	 xmlns="http://www.w3.org/2000/svg" xmlns:xlink="http://www.w3.org/1999/xlink" viewBox="0 0 100 100"
	 xml:space="preserve">
<title>YODOSHA CO., LTD.</title>
<g>
	<g>
		<path d="M45.6,0c2.88,0,5.76,0,8.64,0c0.25,0.09,0.5,0.19,0.75,0.25c3.88,0.89,7.93,1.33,11.61,2.73
			c18.15,6.9,29.04,20,32.55,39.15c0.37,2.02,0.62,4.07,0.93,6.11c0,1.2,0,2.4,0,3.6c-0.08,0.33-0.22,0.66-0.24,1
			c-0.6,7.28-2.28,14.27-5.87,20.69c-7.62,13.62-18.95,22.29-34.35,25.42c-2.02,0.41-4.06,0.76-6.09,1.13c-2.48,0-4.96,0-7.44,0
			c-1.12-0.23-2.23-0.51-3.36-0.67C22.47,96.51,5.97,81.35,1.41,61.38C0.87,59.02,0.47,56.62,0,54.24c0-2.88,0-5.76,0-8.64
			c0.31-1.67,0.65-3.34,0.94-5.02C4.35,21.21,20.28,4.99,39.65,1.17C41.63,0.77,43.62,0.39,45.6,0z M73.23,18.7
			c-0.36,0.8-0.66,1.45-0.94,2.11c-2.73,6.3-5.22,12.71-8.23,18.87c-4,8.2-10.49,12.94-19.94,13.2
			c-9.28,0.25-16.77-5.58-18.57-14.69c-1.43-7.25,2.48-14.13,9.28-16.18c4.22-1.27,8.09-0.64,11.25,2.64
			c2.78,2.88,3.35,7.73,1.4,11.14c-1.48,2.58-4.68,3.39-6.6,1.67c-1.13-1.02-1.16-1.71-0.38-3.01c0.46-0.77,0.87-1.65,0.99-2.52
			c0.24-1.78-0.83-3.47-2.48-4.28c-1.62-0.8-3.55-0.49-5.01,0.81c-2.84,2.53-3.84,6.96-2.44,10.81c3.19,8.79,15.1,10.84,21.63,3.73
			c8.03-8.73,4.55-23.97-6.58-28.82c-10.14-4.42-22.56,0.18-27.69,10.28c-6.36,12.51-0.41,28.85,12.7,34.78
			c7.13,3.22,14.46,3.28,21.88,1.1c0.7-0.21,1.41-0.41,2.34-0.68c-4.45,10.53-8.79,20.8-13.16,31.14c2.79,1.17,5.45,2.3,8.22,3.46
			c10.2-24.07,20.35-48.02,30.53-72.04C78.67,21.03,76.01,19.89,73.23,18.7z"/>
		<path fill="#FFFFFF" d="M53.52,100.08c2.03-0.38,4.07-0.72,6.09-1.13c15.4-3.13,26.73-11.81,34.35-25.42
			c3.59-6.41,5.27-13.41,5.87-20.69c0.03-0.34,0.16-0.67,0.24-1c0,16.06,0,32.12,0,48.24C84.56,100.08,69.04,100.08,53.52,100.08z"
			/>
		<path fill="#FFFFFF" d="M100.08,48.24c-0.31-2.04-0.55-4.08-0.93-6.11C95.64,22.99,84.75,9.89,66.6,2.99
			c-3.68-1.4-7.73-1.84-11.61-2.73c-0.26-0.06-0.5-0.17-0.75-0.25c15.28,0,30.56,0,45.84,0C100.08,16.08,100.08,32.16,100.08,48.24z
			"/>
		<path fill="#FFFFFF" d="M0,54.24c0.47,2.38,0.87,4.78,1.41,7.14c4.57,19.96,21.07,35.13,41.31,38.02
			c1.13,0.16,2.24,0.45,3.36,0.67c-15.34,0-30.68,0-46.08,0C0,84.8,0,69.52,0,54.24z"/>
		<path fill="#FFFFFF" d="M45.6,0c-1.98,0.39-3.97,0.77-5.95,1.17C20.28,4.99,4.35,21.21,0.94,40.58C0.65,42.26,0.31,43.93,0,45.6
			C0,30.42,0,15.24,0,0C15.2,0,30.4,0,45.6,0z"/>
		<path fill="#FFFFFF" d="M73.23,18.7c2.78,1.19,5.45,2.33,8.21,3.5C71.25,46.22,61.11,70.17,50.91,94.24
			c-2.76-1.16-5.43-2.29-8.22-3.46c4.37-10.34,8.71-20.61,13.16-31.14c-0.93,0.27-1.64,0.48-2.34,0.68
			c-7.42,2.18-14.75,2.13-21.88-1.1c-13.12-5.93-19.06-22.27-12.7-34.78c5.13-10.09,17.55-14.7,27.69-10.28
			C57.75,19.03,61.23,34.26,53.2,43c-6.54,7.11-18.45,5.05-21.63-3.73c-1.4-3.86-0.4-8.29,2.44-10.81c1.46-1.3,3.39-1.61,5.01-0.81
			c1.64,0.81,2.72,2.5,2.48,4.28c-0.12,0.87-0.53,1.75-0.99,2.52c-0.78,1.3-0.76,1.99,0.38,3.01c1.92,1.72,5.12,0.91,6.6-1.67
			c1.95-3.41,1.39-8.26-1.4-11.14c-3.17-3.28-7.03-3.91-11.25-2.64c-6.81,2.05-10.72,8.93-9.28,16.18
			c1.8,9.11,9.29,14.94,18.57,14.69c9.45-0.25,15.94-5,19.94-13.2c3.01-6.16,5.5-12.57,8.23-18.87
			C72.57,20.15,72.87,19.5,73.23,18.7z"/>
	</g>
</g>
</svg>
