<?xml version="1.0" encoding="UTF-8" standalone="yes"?>
<svg version="1.2" baseProfile="tiny-ps" viewBox="0 0 216 216" xml:space="preserve" xmlns="http://www.w3.org/2000/svg">
  <title>Drury D</title>
  <g>
    <rect fill="#FFFFFF" width="216" height="216"/>
    <g>
      <path fill="#AB1239" stroke="#000000" stroke-width="0.75" stroke-miterlimit="10" d="M115.2,191.2c-4.3,3.1-10.1,3.1-14.4,0&#xD;&#xA;&#x9;&#x9;&#x9;c-26-18.7-57.3-49.9-75.9-75.9c-3.1-4.3-3.1-10.1,0-14.4c18.6-26,49.9-57.4,75.9-76.1c4.3-3.1,10.1-3.1,14.4,0&#xD;&#xA;&#x9;&#x9;&#x9;c26,18.7,57.2,49.9,75.9,75.9c3.1,4.3,3.1,10.1,0,14.4C172.5,141.2,141.2,172.4,115.2,191.2"/>
      <path fill="#FFFFFF" stroke="#000000" stroke-width="0.75" stroke-miterlimit="10" d="M152.4,97.4C150,79.5,133.8,69.3,120.9,68&#xD;&#xA;&#x9;&#x9;&#x9;c-6.9-0.7-14.2-0.9-19.8-0.7v-2.2h-21c0,0-0.3,1.7,1.2,2.1c2.2,0.6,2.6,2.5,2.7,3.3c-24.6,7.6-24.7,26.1-23.5,32.8&#xD;&#xA;&#x9;&#x9;&#x9;c2.3,13.4,14.6,17,23.5,18.2v15.6c0,4.2-1.1,6.7-3.5,7.1c-1.7,0.3-1.3,2.3-1.3,2.3h29.5C146.2,146.6,155.3,117.8,152.4,97.4&#xD;&#xA;&#x9;&#x9;&#x9; M83.9,117.7c-12.7-1.2-17.3-9.2-18.2-14.5c-0.9-5.5-1-20.2,18.2-26.9V117.7z M108.3,137.9h-7.1v-17.8&#xD;&#xA;&#x9;&#x9;&#x9;c8.2-4.9,14.6-13.3,13.3-20.7c-0.4-2.5-1.6-3.4-2.9-3.4s-2.5,1.1-2.3,2.3c0.2,1.2,0.8,2.4,1,3.6c0.5,2.7-2.8,9-9.1,12.9l-0.1-42&#xD;&#xA;&#x9;&#x9;&#x9;c24.1,0,31.7,13.1,33.7,25.3C137.8,116.6,129.7,137.9,108.3,137.9"/>
    </g>
  </g>
</svg>