<?xml version="1.0"?><svg version="1.2" baseProfile="tiny-ps" viewBox="0 0 300 300" xmlns="http://www.w3.org/2000/svg" xmlns:xlink="http://www.w3.org/1999/xlink"><title>rankingCoach</title><g><g fill="#fff" transform="matrix(.1 0 0 -.1 0 300)"><path d="M0 1500V0h3000v3000H0V1500z"/></g><g fill="#cbf1d3" transform="matrix(.1 0 0 -.1 0 300)"><path d="M1694 2379c-45-4-107-12-140-18l-58-11-12-13c-6-6-121-138-255-292s-256-293-272-310c-45-48-133-185-166-257-16-37-39-101-51-143l-21-76-6-87-5-87 10-57c6-32 23-84 38-115l28-58 57-57 58-56 73-36 73-36 100-26 100-27 195-1 195-1 70 19c39 10 103 34 142 53l73 35 56 57 56 56 33 70c53 113 69 237 45 366l-10 54-37 75-38 75-72 72-73 72 121 267 121 266-4 64-4 64-30 42-30 43-44 12-45 11h-95c-52 0-131-4-176-9zm331-83c9-13 19-40 22-60l6-36-61-132c-33-73-75-164-92-203-18-38-52-114-77-168s-43-100-41-101c1-2 24-17 49-34 91-61 164-159 195-261l14-46v-173l-20-63c-33-110-111-208-195-249l-41-20h-105l-47 24c-81 42-127 106-157 221l-15 59v211l24 85c56 205 219 537 419 855 80 126 93 136 122 91zm-245-36c0-6-10-26-22-45l-23-35h-235v8c0 4 12 21 27 37l26 30 56 6c31 3 82 7 114 8l57 1v-10z"/></g><g fill="#90e2a2" transform="matrix(.1 0 0 -.1 0 300)"><path d="M1790 2384c-19-2-84-9-145-15-60-6-119-15-131-19l-21-8-294-337c-162-185-309-360-327-388-84-130-134-263-152-401l-11-83 10-76 11-76 24-56 25-56 56-58 56-59 82-41 82-41 80-21 80-20 135-10 135-10 65 6c36 3 99 13 140 21l75 16 72 34 71 34 56 51 56 51 40 82 40 81 12 83 12 82-12 83-12 82-37 75-37 75-73 75c-40 41-73 77-73 81 0 3 54 125 120 270l120 264v91l-26 53-27 53-33 14-34 14-87 4c-49 2-104 2-123 0zm232-81c8-10 20-33 26-51l11-32-14-38c-7-20-69-160-138-310l-125-273 41-26c23-15 65-50 94-80l52-53 30-63 30-63 11-72 12-72-11-70c-14-90-43-163-86-222l-35-48-48-34-47-35-43-11-43-11-37 7c-144 26-230 152-248 364l-7 76 13 74c34 203 195 552 429 928l82 132h18c10 0 25-8 33-17zm-239-39c3-3-6-24-20-45l-26-39h-237v9c0 5 11 23 25 40l26 30 27 4c45 7 198 7 205 1z"/></g><g fill="#53d26f" transform="matrix(.1 0 0 -.1 0 300)"><path d="M1623 2365c-56-8-109-17-117-22-19-11-546-611-604-688-53-72-124-213-155-310l-22-70V995l32-68 32-67 55-56 55-55 83-39 83-40 80-21 80-21 181-5 180-6 85 17 84 17 83 39 84 40 51 53 52 53 27 50c15 28 35 77 43 110l16 59v200l-20 66-21 65-49 71-50 70-50 44-50 44 122 265 121 265 1 61v61l-28 42-28 43-34 14-34 14-133-1-133-1-102-13zm417-87c11-24 20-50 20-59s-61-150-135-313-135-299-135-303c0-5 20-21 45-36 24-16 65-52 91-80 132-148 161-350 74-534l-29-62-46-50-47-50-51-26-51-25h-36c-20 0-57 7-81 15l-45 16-37 30c-20 17-48 50-62 73l-25 43-20 78-20 78v156l14 68c44 206 238 607 462 956l44 67h51l19-42zm-250-16c0-4-11-24-25-45l-26-37h-250l10 18c17 28 46 58 61 65 8 3 63 6 123 6l107 1v-8z"/></g><g fill="#21c545" transform="matrix(.1 0 0 -.1 0 300)"><path d="M1640 2364c-63-8-120-16-127-18-11-5-537-602-599-681-76-96-143-240-175-370l-19-80v-157l15-58c40-152 147-258 330-323l70-25 101-16 101-16h241l77 15c241 46 387 169 439 372l16 61v180l-20 63c-26 85-67 149-151 235l-70 70 50 110c27 60 63 141 81 179 18 39 51 111 73 160l40 90v105l-29 47-30 48-39 11-40 12h-110c-60 0-162-7-225-14zm406-89c24-58 21-67-79-285-83-181-151-329-163-357l-14-32 48-33c26-17 66-53 90-78l43-45 36-74 36-74 5-91 4-91-11-56c-6-30-25-83-41-117l-29-62-51-51-50-50-43-19-42-20h-44c-24 0-62 5-83 12l-40 12-48 43-47 43-25 52c-30 64-34 80-48 189l-10 86 15 85 15 86 36 104c82 233 406 830 471 866l17 10 19-10 19-10 14-33zm-260-9 6-14-18-29c-10-15-24-33-32-40l-13-11-117 5c-64 3-119 7-121 9s11 21 28 43l32 40 47 4c26 2 78 4 115 5l68 2 5-14z"/></g></g></svg>