<?xml version="1.0" encoding="utf-8"?>
<!-- Generator: Adobe Illustrator 27.4.1, SVG Export Plug-In . SVG Version: 6.00 Build 0)  -->
<svg version="1.2" baseProfile="tiny-ps" id="Layer_1" xmlns="http://www.w3.org/2000/svg" xmlns:xlink="http://www.w3.org/1999/xlink"
	  viewBox="0 0 113.6 113.6" xml:space="preserve">
<title>Shop LC</title>
<g>
	<path fill="#EB254B" d="M93.7,113.6H19.9c-11,0-19.9-8.9-19.9-19.9V19.9C0,8.9,8.9,0,19.9,0h73.8c11,0,19.9,8.9,19.9,19.9v73.8
		C113.6,104.7,104.7,113.6,93.7,113.6z"/>
	<g>
		<g>
			<g id="Group_1_00000125561380777013626500000001376033212417844894_">
				<path id="Path_1_00000009579887830646558360000016501487354628598206_" fill="#FFFFFF" d="M22.1,32.5c-0.6-0.7-1.4-1.3-2.2-1.7
					c-0.8-0.6-1.8-0.8-3-0.8c-0.6,0-1.1,0.1-1.7,0.3c-0.7,0.1-1.3,0.3-1.7,0.7c-0.4,0.3-0.8,0.7-1.1,1.1c-0.3,0.6-0.4,1.1-0.4,1.8
					c0,0.6,0.1,1.1,0.4,1.7c0.3,0.4,0.6,0.8,1.1,1.1c0.6,0.4,1.1,0.7,1.7,0.8c0.7,0.3,1.4,0.6,2.1,0.7c1,0.3,1.8,0.7,2.8,1
					c1,0.3,1.8,0.8,2.7,1.5c0.8,0.7,1.5,1.4,2,2.4c0.6,1.1,0.8,2.2,0.8,3.5c0,1.4-0.3,2.7-0.8,3.9c-0.6,1.1-1.3,2.1-2.2,2.8
					c-1,0.7-2.1,1.4-3.4,1.7c-1.3,0.4-2.7,0.6-3.9,0.6c-1.8,0-3.8-0.3-5.5-1c-1.7-0.7-3.1-1.8-4.4-3.2l3.7-3.4c0.8,1,1.8,1.7,3,2.2
					c1.1,0.6,2.2,0.8,3.5,0.8c0.6,0,1.3-0.1,1.8-0.3c0.6-0.1,1.1-0.4,1.7-0.7c0.4-0.3,0.8-0.7,1.1-1.3c0.3-0.6,0.6-1.3,0.6-2
					s-0.1-1.4-0.6-1.8c-0.3-0.6-0.8-1-1.4-1.3c-0.7-0.4-1.4-0.7-2.1-1c-1,0-1.8-0.4-2.8-0.7c-0.8-0.3-1.7-0.7-2.5-1
					c-0.8-0.3-1.7-0.8-2.4-1.5c-0.7-0.6-1.1-1.4-1.5-2.2c-0.4-1.1-0.7-2.2-0.7-3.4c0-1.3,0.3-2.7,1-3.8c0.6-1,1.4-1.8,2.4-2.5
					s2.1-1.3,3.4-1.5c1.3-0.4,2.4-0.6,3.7-0.6c1.5,0,3,0.3,4.4,0.8c1.4,0.4,2.8,1.3,3.9,2.2L22.1,32.5z"/>
			</g>
			<g id="Group_2_00000182488963171085123200000010672838800129130142_" transform="translate(16.487 0.666)">
				<path id="Path_2_00000015317539204568926130000010288796889369618064_" fill="#FFFFFF" d="M12.1,25.9h5.1v11.4h13.4V25.9h5.1
					v28.4h-5.1V41.6H17.1v12.6h-4.9L12.1,25.9L12.1,25.9z"/>
			</g>
			<g id="Group_3_00000093872531119769272950000014140929917844144779_" transform="translate(58.832 0.666)">
				<path id="Path_3_00000161595783877539471460000004226669460138169749_" fill="#FFFFFF" d="M29.3,25.9h9.3c1.5,0,3,0.1,4.5,0.6
					c1.3,0.3,2.4,0.7,3.4,1.5c2,1.5,3.1,3.8,3,6.3c0,1.4-0.3,2.7-0.8,3.9c-0.6,1.1-1.4,2-2.4,2.5c-1.1,0.7-2.2,1.1-3.5,1.4
					c-1.4,0.3-2.8,0.6-4.4,0.6h-3.9v11.8h-5.1V25.9z M37.8,38.2c0.8,0,1.5,0,2.4-0.1c0.7,0,1.4-0.3,2-0.7c0.6-0.3,1.1-0.7,1.4-1.3
					c0.4-0.7,0.6-1.4,0.6-2.1s-0.1-1.4-0.6-2c-0.3-0.6-0.8-1-1.4-1.3c-0.6-0.1-1.3-0.4-2-0.4c-0.7-0.1-1.4-0.1-2.2-0.1h-3.7v8.2
					L37.8,38.2L37.8,38.2z"/>
			</g>
			<g id="Group_6_00000083074093250253238380000009153078855312168380_" transform="translate(35.177 0.051)">
				<g id="Group_4_00000056385974594826907620000007865073889298154902_">
					<path id="Path_4_00000177448775778337691730000018364254256958284723_" fill="#FFFFFF" d="M49,34.3L49,34.3
						c-1,0.4-2.1,1-3.2,1.3c-3.2,0.8-4.2-0.3-4.4-0.4l0,0c-0.3-0.4-0.4-0.8-0.6-1.3c-0.1,0.1-0.3,0.1-0.6,0.3
						c-0.6,0.4-0.6,1.3-0.1,1.8c0.6,0.7,1.4,0.7,2,0.3l0.1-0.1c0.4,0.1,0.8,0.1,1.3,0.1c0.6,0,1.3-0.1,1.8-0.3v4.2l0,0
						c0,0.3,0,0.6-0.3,0.7L31.2,52.3c-0.3,0.4-0.7,0.3-1,0l-7.9-9.6c-0.3-0.3-0.1-0.7,0.1-1l14.1-11.5c0.3-0.1,0.6-0.1,0.8-0.1l0,0
						l4.5,1.1v-0.1C42.4,30,43.1,29,44,28c-0.8-0.6-1.8-1.1-2.8-1.4c-3.9-1.4-8.3-1.4-12.4,0c-1.8,0.7-3.4,1.7-4.8,3
						c-1.4,1.3-2.5,2.8-3.2,4.6c-0.8,2-1.1,4.1-1.1,6.2c0,2.1,0.4,4.2,1.1,6.2c0.7,1.8,1.8,3.4,3.2,4.8c1.4,1.4,3,2.4,4.8,3.1
						c2,0.7,4.1,1.1,6.2,1.1c2.1,0,4.2-0.3,6.2-1.1c1.8-0.7,3.5-1.7,4.8-3.1c1.4-1.4,2.4-3,3.2-4.8c0.7-2,1.1-4.1,1.1-6.2
						C50.2,38.4,49.7,36.3,49,34.3z"/>
				</g>
				<g id="Group_5_00000029013870813837633760000002664413874305451195_" transform="translate(15.668 2.407)">
					<path id="Path_5_00000101102085573505580280000005638624418631199620_" fill="#FFFFFF" d="M26.9,29.1l2.1,0.6
						c0.4,0,0.7,0.4,0.7,0.8v2c-0.7,0-1.3,0.1-2,0.1c-0.3,0-0.7,0-1-0.1c0-0.1,0-0.3,0-0.3c-0.3-0.1-0.4-0.3-0.7-0.4
						c0,0.3,0,0.6,0.3,0.8l0,0c0.6,0.4,1.3,0.6,2,0.6l0,0c1.5-0.3,3.1-0.8,4.5-1.7c-0.7-1.4-1.7-2.7-2.8-3.8
						c-0.4-0.4-0.8-0.8-1.3-1.1C27.8,27.3,27.1,28.2,26.9,29.1z"/>
				</g>
			</g>
		</g>
		<g>
			<g id="Group_7_00000046326875521424982040000003278441172286654119_" transform="translate(81.669 0.666)">
				<path id="Path_6_00000049944382781554873880000017931597152193616798_" fill="#FFFFFF" d="M-47.3,62.6h5.1v24h12.1v4.5h-17.1
					V62.6z"/>
			</g>
			<g id="Group_8_00000059282714374158843220000009575025872651073674_" transform="translate(95.033 0.154)">
				<path id="Path_7_00000181067314981501930300000015039990321478389914_" fill="#FFFFFF" d="M-20.1,69.8c-0.7-1-1.7-1.8-3-2.2
					c-2.4-1-5.1-1-7.6,0c-1.1,0.6-2.1,1.3-3.1,2.2c-0.8,0.8-1.5,2.1-2,3.2c-0.6,1.4-0.7,2.8-0.7,4.1c0,1.4,0.3,3,0.7,4.4
					c0.4,1.3,1.1,2.4,2,3.4c0.8,1,1.8,1.7,3.1,2.1c1.3,0.6,2.5,0.8,3.9,0.8s2.8-0.3,4.1-1c1.1-0.6,2.1-1.4,2.8-2.4l4.1,2.8
					c-1.3,1.5-2.8,2.8-4.6,3.7c-2,0.8-4.2,1.4-6.5,1.3c-2.1,0-4.2-0.3-6.2-1.1c-1.7-0.6-3.4-1.7-4.6-3c-1.4-1.3-2.4-3-3.1-4.8
					c-0.8-2-1.3-4.1-1.1-6.2c0-2.1,0.3-4.2,1.1-6.2c0.7-1.8,1.8-3.4,3.4-4.6c3-2.7,6.9-4.1,11-3.9c1,0,2,0.1,2.8,0.3
					c1,0.1,2,0.4,2.8,0.8c1,0.3,1.8,0.7,2.5,1.3c1,0.4,1.7,1.1,2.2,1.8L-20.1,69.8z"/>
			</g>
		</g>
	</g>
</g>
</svg>
