<?xml version="1.0" encoding="utf-8"?>
<!-- Generator: Adobe Illustrator 27.0.0, SVG Export Plug-In . SVG Version: 6.00 Build 0)  -->
<svg version="1.2" baseProfile="tiny-ps" id="Layer_1" xmlns="http://www.w3.org/2000/svg" xmlns:xlink="http://www.w3.org/1999/xlink"
	 viewBox="0 0 1080 1080" xml:space="preserve">
<title>Nubosoft</title>
<g>
	<path fill="none" d="M411.4,521c-9.3,0-17.2,3.3-23.3,9.8s-9.3,14.9-9.3,25.1c0,10.7,3.3,19.1,9.3,25.7c6.1,6.5,14,9.8,23.3,9.8
		s16.8-3.3,23.3-9.8c6.1-6.5,9.3-14.9,9.3-25.7c0-10.2-3.3-18.7-9.3-25.1C428.7,524.2,420.8,521,411.4,521z"/>
	<path fill="none" d="M797.7,521.4c-9.3,0-17.2,3.3-23.3,9.8c-6.1,6.5-9.3,14.9-9.3,24.7c0,10.2,3.3,18.7,9.3,25.1
		c6,6.5,14,9.8,23.3,9.8s17.2-3.3,23.3-9.8s9.3-14.9,9.3-25.1c0-10.2-3.3-18.7-9.3-25.1C815.4,524.7,807.4,521.4,797.7,521.4z"/>
	<path fill="none" d="M555.4,521.4c-9.3,0-17.2,3.3-23.3,9.8c-6.1,6.5-9.3,14.9-9.3,24.7c0,10.2,3.3,18.7,9.3,25.1
		c6,6.5,14,9.8,23.3,9.8s17.2-3.3,23.3-9.8c6.1-6.5,9.3-14.9,9.3-25.1c0-10.2-3.3-18.7-9.3-25.1
		C572.6,524.7,564.7,521.4,555.4,521.4z"/>
	<path fill="#5B809B" d="M145.8,493c-5.6,0-11.1,0.9-16.8,3.3c-5.6,2.4-11.6,6.1-18.7,12.2v-12.2H80.6v119.2h29.8v-48
		c0-12.6,0.5-20.5,1.4-24.2c1.9-7,4.6-12.6,8.9-16.8c4.2-4.2,9.8-6.1,15.9-6.1c4.6,0,8.3,1.4,11.6,3.7c3.3,2.3,5.6,6.1,6.5,10.7
		c0.9,4.6,1.9,14,1.9,28.4v52.3h29.8v-78.7c0-13.5-3.3-24.2-10.2-31.2C167.7,497.2,157.9,493,145.8,493z"/>
	<path fill="#5B809B" d="M290.3,554.5c0,11.1-0.5,18.7-1.9,21.8c-1.9,4.6-4.2,7.9-7.9,10.2c-3.7,2.4-7.9,3.7-12.6,3.7
		s-9.3-1.4-12.6-3.7c-3.3-2.4-6.1-5.6-7.4-10.2c-1.4-4.2-2.4-12.2-2.4-23.3v-56.9h-30.3v49.9c0,19.1,0.9,32.2,3.7,39.6
		c3.3,10.2,8.9,18.7,17.2,24.2c7.9,6.1,18.7,8.9,31.6,8.9c12.2,0,21.8-2.4,29.8-7.4c7.9-5.2,14-12.2,17.7-21.4
		c3.3-7.4,5.2-21.8,5.2-42.9v-50.8h-29.8L290.3,554.5L290.3,554.5z"/>
	<path fill="#5B809B" d="M418,493c-7,0-14,1.4-20,4.2c-6.1,2.8-12.2,6.5-17.7,12.2v-59.2h-29.9v165.3h29.8V603
		c5.6,5.6,11.6,9.8,17.7,12.2s12.2,3.7,19.1,3.7c15.4,0,28.9-6.1,40.1-17.7c11.1-12.2,16.8-27,16.8-44.7c0-18.7-5.6-33.5-16.3-45.2
		C446.8,499.1,433.3,493,418,493z M434.7,581.1c-6.1,6.5-14,9.8-23.3,9.8s-17.2-3.3-23.3-9.8c-6.1-6.5-9.3-14.9-9.3-25.7
		c0-10.2,3.3-18.7,9.3-25.1c6-6.5,14-9.8,23.3-9.8s17.2,3.3,23.3,9.8s9.3,14.9,9.3,25.1C444,566.2,440.8,574.6,434.7,581.1z"/>
	<path fill="#5B809B" d="M586.6,501.5c-9.8-5.6-20.5-8.3-31.6-8.3c-15.4,0-29.4,5.6-41.4,16.3C500,522,493,537.3,493,556
		c0,17.2,6.1,32.2,18.1,44.2c12.2,12.2,26.6,18.1,43.8,18.1c11.6,0,22.4-2.8,31.6-8.3c9.8-5.6,17.2-13.1,22.9-22.9
		c5.6-9.8,8.3-20.5,8.3-31.6c0-11.1-2.8-21.4-8.3-31.2C603.8,514.4,596.4,507,586.6,501.5z M578.6,581.1c-6.1,6.5-14,9.8-23.3,9.8
		s-17.2-3.3-23.3-9.8c-6.1-6.5-9.3-14.9-9.3-25.1c0-10.2,3.3-18.1,9.3-24.7c6-6.6,14-9.8,23.3-9.8s17.2,3.3,23.3,9.8
		c6.1,6.5,9.3,14.9,9.3,25.1C588,566.2,584.7,574.6,578.6,581.1z"/>
	<path fill="#3A83C5" d="M687.3,543.4l-11.1-5.6c-4.6-2.4-7.9-4.2-8.9-5.6c-1.4-1.4-1.9-2.8-1.9-4.6c0-2.4,0.9-3.7,2.8-5.2
		c1.9-1.4,4.6-2.4,7.9-2.4c6.1,0,13.1,3.7,20.5,11.1l18.7-18.7c-4.6-6.5-10.7-11.1-17.2-14.4c-7-3.3-14-5.2-21.8-5.2
		c-11.1,0-20.5,3.3-27.9,10.2c-7.4,6.5-10.7,14.9-10.7,24.2c0,14.4,9.8,27,28.9,36.4l10.2,5.2c8.9,4.2,13.1,8.9,13.1,13.5
		c0,2.4-1.4,4.6-3.7,6.5c-2.4,1.9-5.6,2.8-9.8,2.8c-3.7,0-7.9-1.4-12.6-3.7c-4.6-2.4-8.9-5.6-12.6-9.8l-18.7,20
		c10.2,13.5,24.2,20.5,41.4,20.5c13.1,0,23.8-3.7,31.2-10.7c7.9-7,11.6-15.9,11.6-26.6c0-7.9-2.4-14.9-6.5-20.9
		S698.9,549,687.3,543.4z"/>
	<path fill="#3A83C5" d="M829.3,501.5c-9.8-5.6-20.5-8.3-31.6-8.3c-15.4,0-29.4,5.6-41.4,16.3c-13.5,12.6-20.5,27.9-20.5,46.6
		c0,17.2,6.1,32.2,18.1,44.2c12.2,12.2,26.6,18.1,43.8,18.1c11.6,0,22.4-2.8,32.2-8.3s17.2-13.1,22.9-22.9
		c5.6-9.8,8.3-20.5,8.3-31.6c0-11.1-2.8-21.4-8.3-31.2C846.6,515,839.1,507,829.3,501.5z M820.9,581.1c-6.1,6.5-14,9.8-23.3,9.8
		s-17.2-3.3-23.3-9.8c-6.1-6.5-9.3-14.9-9.3-25.1c0-10.2,3.3-18.1,9.3-24.7c6-6.6,14-9.8,23.3-9.8s17.2,3.3,23.3,9.8
		c6.1,6.5,9.3,14.9,9.3,25.1C830.2,566.2,827.4,574.6,820.9,581.1z"/>
	<path fill="#3A83C5" d="M890.4,453c-4.6,3.7-7.4,8.9-8.3,15.9c-0.5,2.8-0.5,12.2-0.9,27.9h-10.3V522h10.7v94.1h29.8v-94.6h19.1
		v-25.1h-19.1v-14.9c0-3.3,0.5-5.6,1.9-7c1.4-1.4,4.2-2.4,7.4-2.4c2.8,0,6.5,0.5,10.7,1.9V451c-7.9-2.8-14.9-4.2-20.9-4.2
		C902.1,446.9,895.1,448.8,890.4,453z"/>
	<polygon fill="#3A83C5" points="981.7,452.1 951.4,452.1 951.4,496.3 936.1,496.3 936.1,522 951.4,522 951.4,615.5 981.7,615.5 
		981.7,522 999.3,522 999.3,496.3 981.7,496.3 	"/>
</g>
</svg>
