<svg xmlns="http://www.w3.org/2000/svg" width="240" height="240" viewBox="0 0 240 240" version="1.2" baseProfile="tiny-ps">
    <title>Ostrom</title>
    <desc>The Ostrom logo is a green stylized curved lightning mark on a blue background.</desc>
    <path id="Rectangle" fill="#16295a" fill-rule="evenodd" stroke="none" d="M -5 245 L 245 245 L 245 -5 L -5 -5 Z" />
    <path id="path1" fill="#00c1b1" fill-rule="evenodd" stroke="none" d="M 106.237213 53.3647 L 98.104095 93.410934 L 97.946655 94.873291 C 97.863976 101.628998 106.752899 107.30632 118.0215 107.30632 L 176.389511 107.303833 C 182.977585 107.303604 188.894119 112.113319 188.894119 118.607658 C 188.894119 151.966873 163.501556 179.595444 130.374329 184.429779 L 137.938904 145.925873 L 138.096802 144.463745 C 138.176529 137.912476 129.829956 134.051453 119.049263 133.823547 L 67.379349 133.157425 C 58.886852 133.047882 51.105885 126.980667 51.105885 118.607658 C 51.105885 86.395477 74.782646 59.526764 106.237213 53.3647 Z" />
</svg>