<?xml version="1.0" encoding="utf-8" standalone="yes"?><!-- Generator: Adobe Illustrator 26.3.1, SVG Export Plug-In . SVG Version: 6.00 Build 0)  --><svg xmlns="http://www.w3.org/2000/svg" xmlns:xlink="http://www.w3.org/1999/xlink" version="1.2" baseProfile="tiny-ps" viewBox="0 0 465.99 465.99" xml:space="preserve"><title>PSA</title><path fill="#FFFFFF" d="M458.26,326.14c-0.03,0.08-0.08,0.15-0.12,0.23c-0.98-2.22-4.03-3.85-7.67-3.85c-3.22,0-5.99,1.27-7.26,3.1  c-0.35-1.5-0.64-3.18-0.76-4.99c-4.37,0.79-11.51,0-15.49-3.97c-0.79,2.38-0.79,2.38-0.79,2.38l-89.09-36.06  c2.61-0.54,5.2-1.12,7.76-1.71l1.18,0.47l81.64,32.88l3.09-8.52l-70.83-28.62c11.01-2.95,20.16-5.74,25.33-6.96  c8.07-1.91,13.02-1.01,15.88,0.25l-0.11,0.39l-0.29,0.71l4.91,2.01c2.32-6.22-4.85-13.43-50.11-4.93  c-40.65,7.65-94.47,8.54-122.59,8.4c-27.84,0.13-80.85-0.74-121.36-8.18c-1.44-0.23-2.86-0.46-4.26-0.71  c-11.85-2.06-20.88-3.21-27.71-3.69c-16.7-0.79-20.99,4.95-19.23,9.37c-3.33-6.75-6.54-16.58-6.33-29.12  c-0.11-6.67,0.9-14.22,3.72-22.58c0.7-2.07,1.83-3.84,3.45-5.32c5.48-5.37,16.61-6.9,35.99-3.35c6.69,1.23,13.33,2.33,19.99,3.32  c6.43,0.88,12.88,1.67,19.42,2.37l0.58,0.25c16.96,1.94,53.8,4.1,53.8,4.1l-0.08-0.03l5.74-2.22h0l12.72-4.93l24-9.3l3.26-1.26  l131.03-50.76c0.13,0.43,0.27,0.86,0.44,1.28l10.56,25.56l-100.88,41.04l1.78-0.08c1.46-0.07,2.93-0.13,4.37-0.2  c0.75-0.04,1.49-0.08,2.24-0.12c1.36-0.07,2.71-0.14,4.05-0.21c0.77-0.04,1.53-0.09,2.29-0.13c1.3-0.08,2.6-0.15,3.89-0.23  c0.78-0.05,1.54-0.1,2.31-0.15c1.26-0.08,2.53-0.17,3.78-0.25c0.77-0.05,1.53-0.11,2.29-0.17c1.24-0.09,2.49-0.18,3.72-0.28  c0.75-0.06,1.5-0.12,2.24-0.18c1.24-0.1,2.47-0.2,3.7-0.31c0.73-0.06,1.46-0.13,2.19-0.19c1.24-0.11,2.47-0.22,3.7-0.34  c0.7-0.07,1.41-0.13,2.11-0.2c1.24-0.12,2.49-0.24,3.72-0.37c0.17-0.02,0.34-0.03,0.5-0.05l-0.65,0.29  c1.23-0.14,2.47-0.28,3.69-0.42l0.56-0.25c6.25-0.68,12.43-1.44,18.58-2.29c6.61-0.98,13.19-2.08,19.82-3.29  c19.38-3.55,30.51-2.02,35.99,3.35c1.62,1.47,2.76,3.25,3.46,5.32c2.82,8.36,3.83,15.9,3.72,22.57c0.21,12.37-2.92,22.11-6.2,28.86  l25.57,10.49c2.06,0.85,3.57,2.67,4.03,4.86l0.11,0.53l0.47,0.26l0.36,0.15c9.06,3.82,15.01,12.61,15.18,22.46l0.01,0.88l0.86,0.23  c0.35,0.09,0.7,0.21,1.05,0.36c2.28,0.94,4.05,2.7,4.99,4.97C459.19,321.37,459.2,323.87,458.26,326.14z"></path><polygon fill="#D8D8D8" points="78.74,141.38 60.46,181.92 73.33,193.53 139.64,213.64 436.02,331.83 454.64,331.83   463.72,328.01 459.01,314.39 451.54,301.75 437.34,285.95 422.71,277.99 294.06,223.58 404.75,181.86 389.95,145.31 370.44,148.03   363.85,156.36 235.47,204.48 106.13,156.36 100.46,144.82 "></polygon><polygon fill="#D8D8D8" points="15.68,305.86 9.69,317.02 6.92,323.75 11.3,330.18 19.78,331.83 46.82,337.27   142.82,285.39 82.6,268.1 73.43,268.1 51.7,276.53 34.85,284.06 30.2,289.39 21.55,294.77 "></polygon><polygon fill="#0F73E3" points="112.17,311.22 114.59,325.99 108.11,332.07 214.62,324.51 300.9,329.21 346.66,333.91   360.65,333.14 350.31,323.76 353.38,314.12 349.85,306.44 340.45,306.44 324.01,299.18 300.9,297.5 223.68,290.96 154.21,294.32   133.05,300.74 "></polygon><g><path fill="#FFFFFF" d="M137.13,317.93l1.82-1.18c2.06,2.21,4.17,3.21,5.89,3.01c1.33-0.17,2.08-1.02,1.97-1.99   c-0.16-1.3-1.4-1.48-3.44-2.05c-3.99-1.1-6.3-2.04-6.65-4.95c-0.32-2.65,1.84-4.98,4.51-5.31c1.11-0.13,2.09,0.02,3.08,0.51   l0.03-0.54l1.53-0.19l2.53,4.1l-1.82,1.18c-1.63-2.08-3.25-3.01-4.86-2.82c-1.16,0.13-1.78,0.79-1.67,1.69   c0.18,1.46,1.81,1.67,4.76,2.49c3.3,0.92,5.16,1.87,5.48,4.51c0.35,2.9-1.79,5.24-5.03,5.63c-1.25,0.16-2.24,0.04-3.4-0.57   l-0.03,0.67l-1.92,0.23L137.13,317.93z"></path><path fill="#FFFFFF" d="M154.85,318.59c0.1-0.01,0.17,0.01,0.29-0.01c2.04-0.19,2.35-0.33,2.19-2.09l-0.97-10.3   c-1.8,0.25-3.03,1.5-4.06,3.87l-1.98-0.77l1.91-4.76l11.82-1.11l2.77,4.32l-1.8,1.13c-1.44-2.14-2.9-3.15-4.71-3.05l0.97,10.3   c0.15,1.53,0.41,1.84,2.14,1.69c0.19-0.02,0.42-0.07,0.69-0.09l0.19,2.04l-9.26,0.88L154.85,318.59z"></path><path fill="#FFFFFF" d="M166.07,317.52l0.28-0.02c1.68-0.12,1.88-0.76,2.27-2.23l3.31-12.45l3.7-0.27l4.88,12.04   c0.52,1.29,0.88,1.84,2.1,1.75c0.12-0.01,0.24-0.04,0.39-0.05l0.15,2.04l-8.04,0.59l-0.15-2.04c0,0,0.19,0.01,0.6-0.02   c0.83-0.07,1.23-0.4,1.19-0.94c-0.02-0.27-0.14-0.54-0.29-0.96l-0.41-1.16l-4.44,0.32l-0.41,1.82c-0.06,0.22-0.11,0.45-0.09,0.72   c0.03,0.34,0.42,0.49,1.18,0.44c0.07-0.01,0.33-0.06,0.76-0.08l0.15,2.04l-6.97,0.51L166.07,317.52z M175.31,311.86l-1.99-5.46   l-1.23,5.69L175.31,311.86z"></path><path fill="#FFFFFF" d="M185.02,316.18c0.1-0.01,0.17,0.01,0.29,0.01c2.04-0.12,2.37-0.26,2.27-2.01l-0.58-10.33   c-1.8,0.17-3.09,1.39-4.2,3.71l-1.95-0.84l2.09-4.69l11.85-0.67l2.61,4.43l-1.85,1.05c-1.36-2.19-2.78-3.25-4.58-3.22l0.58,10.33   c0.08,1.55,0.34,1.87,2.08,1.77c0.19-0.01,0.42-0.05,0.68-0.07l0.12,2.05l-9.29,0.52L185.02,316.18z"></path><path fill="#FFFFFF" d="M198.87,315.43c0.05,0,0.07,0.02,0.12,0.02c1.69-0.06,1.9-0.27,1.83-1.95l-0.34-8.48   c-0.06-1.52-0.21-1.87-1.71-1.81l-0.38,0.01l-0.08-2.02l11.73-0.46l2.51,4.23l-1.99,0.96c-1.27-2.11-2.85-3.01-5.35-2.9l-0.83,0.03   l0.19,4.75l0.4-0.02c1.55-0.06,1.58-0.54,1.58-2.26l2.07-0.07l0.27,6.72l-2.07,0.08c-0.07-1.8-0.26-2.32-1.78-2.25l-0.38,0.01   l0.2,5.13l0.88-0.04c2.84-0.1,4.4-1.05,5.68-3.67l2.07,0.59l-2.18,4.97l-12.35,0.48L198.87,315.43z"></path><path fill="#FFFFFF" d="M222.26,314.42l0.28,0.01c1.69,0.03,1.95-0.58,2.47-2.03l4.43-12.1l3.71,0.07l3.77,12.44   c0.4,1.34,0.7,1.91,1.94,1.94c0.12,0,0.24-0.02,0.38-0.02l-0.04,2.05l-8.07-0.14l0.04-2.05c0,0,0.19,0.03,0.59,0.04   c0.84,0.02,1.27-0.29,1.28-0.84c0-0.27-0.08-0.55-0.19-0.98l-0.31-1.19l-4.45-0.08l-0.58,1.77c-0.07,0.21-0.15,0.45-0.16,0.72   c0,0.33,0.38,0.53,1.13,0.54c0.07,0,0.34-0.02,0.76-0.02l-0.04,2.05l-6.99-0.13L222.26,314.42z M231.98,309.62l-1.49-5.62   l-1.74,5.56L231.98,309.62z"></path><path fill="#FFFFFF" d="M240.36,314.76c0.05,0.01,0.08,0.02,0.12,0.02c1.69,0.06,1.91-0.12,1.97-1.81l0.31-8.48   c0.06-1.53-0.08-1.89-1.57-1.95l-0.38-0.01l0.07-2.02l6.61,0.24c1.73,0.07,3.21,0.21,4.52,0.83c1.92,0.93,3,2.59,2.93,4.41   c-0.07,1.91-1.39,3.53-3.55,3.97l1.82,3.86c0.62,1.34,1.23,1.43,3,1.51l-0.08,2.05l-5.71-0.21l-3.01-6.91l-0.88-0.04l-0.11,2.9   c-0.05,1.48,0.05,1.89,1.48,1.94c0.17,0.01,0.36-0.01,0.58-0.01l-0.08,2.05l-8.11-0.29L240.36,314.76z M247.13,308.1   c2.38,0.09,3.64-0.44,3.7-2.34c0.06-1.74-1.11-2.74-3.49-2.82l-0.55-0.02l-0.19,5.16L247.13,308.1z"></path><path fill="#FFFFFF" d="M263.3,315.74c0.17,0.01,0.36,0,0.57,0.01l-0.11,2.04l-6.75-0.38l0.11-2.03c0.05,0,0.12,0.03,0.17,0.03   c1.8,0.1,2-0.08,2.09-1.77l0.48-8.48c0.09-1.52-0.01-1.88-1.62-1.97l-0.43-0.02l0.12-2.02l7.29,0.41l2.15,9.32l3.22-9.02l7.1,0.4   l-0.11,2.02l-0.14-0.01c-1.65-0.09-1.87,0.09-1.96,1.78l-0.48,8.47c-0.08,1.5,0.04,1.89,1.49,1.96c0.17,0.02,0.31,0,0.4,0   l-0.11,2.04l-7.79-0.43l0.12-2.05c0.07,0.01,0.14,0.03,0.23,0.04c1.64,0.09,1.82-0.12,1.91-1.78l0.5-9l-4.67,12.67l-1.52-0.08   l-3.21-13.38l-0.52,9.26C261.76,315.24,261.87,315.66,263.3,315.74z"></path><path fill="#FFFFFF" d="M286.7,302.61c4.12,0.33,6.68,3.74,6.27,8.98c-0.4,5.17-3.66,8.23-7.58,7.93c-3.91-0.3-6.64-3.86-6.24-9   C279.55,305.28,282.59,302.3,286.7,302.61z M285.59,317.29c1.49,0.12,2.68-2.01,3-6.04c0.31-4.05-0.52-6.29-2.04-6.41   c-1.47-0.11-2.71,2.04-3.02,6.02C283.22,314.92,284.07,317.19,285.59,317.29z"></path><path fill="#FFFFFF" d="M294.24,317.83c0.05,0.01,0.07,0.03,0.12,0.04c1.68,0.17,1.92,0,2.09-1.69l0.86-8.45   c0.15-1.52,0.05-1.89-1.44-2.03l-0.38-0.04l0.2-2.01l6.58,0.67c1.73,0.18,3.19,0.42,4.46,1.13c1.85,1.05,2.83,2.78,2.64,4.6   c-0.19,1.9-1.61,3.43-3.8,3.72l1.55,3.97c0.53,1.37,1.14,1.51,2.89,1.71l-0.21,2.04l-5.68-0.58l-2.55-7.11l-0.88-0.08l-0.3,2.89   c-0.14,1.46-0.07,1.88,1.35,2.02c0.17,0.02,0.36,0.01,0.57,0.04l-0.21,2.03l-8.08-0.82L294.24,317.83z M301.42,311.63   c2.37,0.24,3.66-0.2,3.85-2.1c0.18-1.73-0.94-2.8-3.3-3.04l-0.54-0.05l-0.53,5.13L301.42,311.63z"></path><path fill="#FFFFFF" d="M313.29,319.87c0.07,0.01,0.19,0.04,0.28,0.06c1.79,0.23,2,0.09,2.23-1.6l0.4-3.09l-2.72-6.09   c-0.56-1.23-0.93-1.68-2.21-1.85l-0.23-0.02l0.27-2.03l8.18,1.07l-0.27,2.03c-0.27-0.04-0.42-0.08-0.54-0.1   c-0.67-0.08-1-0.06-1.04,0.29c-0.03,0.21,0.12,0.52,0.32,1l1.39,3.3l2.2-2.92c0.32-0.44,0.51-0.73,0.53-0.87   c0.03-0.26-0.24-0.39-0.8-0.46c-0.17-0.02-0.34-0.02-0.52-0.04l0.27-2.03l6.2,0.81l-0.27,2.03l-0.28-0.04   c-1.41-0.19-1.73,0.13-2.53,1.17l-3.98,5.12l-0.42,3.22c-0.19,1.46-0.1,1.89,1.38,2.08c0.19,0.02,0.38,0.02,0.61,0.06l-0.26,2.03   l-8.44-1.11L313.29,319.87z"></path></g><g><path fill="#0F73E3" stroke="#333333" stroke-width="2" d="M405.49,274.22c5.1-10.25,9.94-27.63,2.62-50.85   c-3.05-9.68-14.33-13.58-39.45-9.02c-41.38,7.52-81.01,10.36-135.73,11.09c-54.73-0.73-94.36-3.57-135.73-11.09   c-25.11-4.56-36.39-0.67-39.44,9.02c-7.31,23.2-2.48,40.58,2.61,50.83l2.98-1.44c-2.5-6.25,1.21-12.25,46.99-3.71   c40.65,7.58,94.47,8.46,122.59,8.33c28.12,0.13,81.94-0.74,122.59-8.33c45.44-8.47,49.2-2.56,46.83,3.63L405.49,274.22z"></path><path fill="#333333" d="M233.37,206.22l14.36-5.56c0.92-1.2,1.7-2.51,2.3-3.9c0.84,0.72,1.76,1.37,2.72,1.95l59.77-23.15l0.16,0.31   c0.28-1.27,0.43-2.58,0.43-3.92c0-10.59-9.12-19.18-20.39-19.18c-2.25,0-4.41,0.36-6.43,0.99c0.02-0.29,0.05-0.59,0.05-0.88   c0-10.59-9.13-19.17-20.4-19.17c-4.47,0-8.6,1.37-11.96,3.67c0.06-0.57,0.09-1.15,0.09-1.74c0-10.6-9.13-19.18-20.4-19.18   c-11.27,0-20.4,8.58-20.4,19.18c0,1.15,0.13,2.27,0.33,3.36c-3.66-3.27-8.59-5.29-14.04-5.29c-11.27,0-20.4,8.59-20.4,19.17   c0,0.13,0.02,0.26,0.02,0.4c-1.47-0.32-3-0.5-4.57-0.5c-11.26,0-20.39,8.59-20.39,19.18c0,1.29,0.14,2.54,0.4,3.76L233.37,206.22z"></path><path fill="#333333" d="M184.72,223.56c1.52,0.56,56.12,1.05,61.24,0.68c0,0,35.94-0.87,39.54-1.37s0-0.7,0-0.7l-39.54,1.08   l-61.24-0.32C184.72,222.93,183.19,223,184.72,223.56z"></path><g><path fill="#333333" d="M370.63,170.89l-110.09,44.48l-22.19,8.96c9.21-0.14,17.98-0.34,26.42-0.61l8.49-3.42l100.88-40.63    L370.63,170.89z"></path><path fill="#333333" d="M457.01,308.85c-1.23-10.24-7.54-19.22-16.82-23.82c-1.3-2.98-3.7-5.36-6.76-6.62l-21.7-8.91    c4.79-10.76,8.08-26.89,1.12-47.49c-3.01-8.89-11.69-13.4-25.82-13.4c-5.39,0-11.57,0.6-18.88,1.84    c-4.88,0.83-9.74,1.6-14.61,2.31l31.28-13.72c1.54,1.2,3.13,1.81,4.73,1.81c1.5,0,2.74-0.53,3.66-1.25    c2.34-0.95,9.09-3.72,12.33-5.1c0.63-0.28,1.22-0.64,1.75-1.07c0.17-0.13,0.35-0.31,0.5-0.47c0.35-0.34,0.66-0.71,0.91-1.07    c0.18-0.25,0.32-0.5,0.46-0.75c0.01-0.01,0.1-0.19,0.1-0.2c0.05-0.08,0.09-0.16,0.13-0.25c1.38-2.85,1.33-6.67-0.13-10.23    l-0.33-0.8c-0.48-1.55-1.04-3.12-1.58-4.6l-0.37-1.05c-0.23-0.65-0.61-1.22-1.09-1.69l-11.32-27.38    c-1.96-4.76-5.82-7.84-9.83-7.84c-0.99,0-1.95,0.19-2.84,0.56l-13.02,5.37c-2.63,1.09-4.35,3.53-4.83,6.63l-131.02,50.75    l-131.02-50.75c-0.49-3.1-2.21-5.54-4.85-6.63l-13.02-5.37c-0.9-0.37-1.85-0.56-2.84-0.56c-3.99,0-7.85,3.07-9.82,7.83    l-11.79,28.54c-0.08,0.16-0.15,0.32-0.21,0.48l-2.69,6.52c-2.51,6.09-0.86,12.15,3.84,14.1l13.04,5.38    c0.45,0.19,0.93,0.33,1.41,0.42c0.61,0.2,1.24,0.3,1.89,0.3c1.85,0,3.43-0.78,4.74-1.81l32.02,14.04    c-5.16-0.75-10.31-1.56-15.47-2.43c-7.21-1.22-13.56-1.84-18.88-1.84c-14.13,0-22.82,4.51-25.82,13.4    c-6.94,20.57-3.68,36.67,1.09,47.43l-22.22,9.33c-3.06,1.26-5.47,3.64-6.77,6.62c-9.28,4.61-15.59,13.59-16.82,23.83    c-6.66,3.66-9.66,11.84-6.69,19.02c0.4,0.96,0.91,1.87,1.57,2.8c1.66,4.13,6.47,6.93,12.11,6.93c1.66,0,3.3-0.25,4.81-0.73    c5.91,4.62,13.05,7.15,20.22,7.15c2.16,0,4.25-0.22,6.23-0.67c1.28,0.48,2.64,0.73,4.08,0.73c4.36,0,8.13-2.34,9.59-3.38    l22.59-9.58c0.61,1.57,1.58,3.3,3.36,4.74c0.9,0.94,1.94,1.7,3.06,2.26c1.11,1.03,2.63,1.55,4.11,1.25l0.62-0.12    c1.39-0.04,2.64-0.24,3.88-0.75l8.12-3.36c5.39,0.19,11.49-0.22,18.02-1.27c39.53-6.32,89.67-7.28,99.19-7.41    c9.65,0.13,59.78,1.09,99.32,7.41c12.39,1.99,23.96,2.17,34.79,0.56l9.82,4.06c1.56,0.65,3.27,0.89,5,0.7    c0.17,0.03,0.34,0.05,0.5,0.07c1.57,0.16,3.11-0.53,4.06-1.68c0.57-0.35,1.11-0.76,1.61-1.21c1.92-1.23,3.27-2.88,4.22-5.18    l23.44,9.63c2.3,1.52,5.68,3.19,9.36,3.19c1.36,0,2.64-0.23,3.84-0.67c1.75,0.38,3.59,0.57,5.49,0.57    c7.14,0,14.31-2.68,20.49-7.61c1.52,0.48,3.15,0.72,4.8,0.72c6.17,0,11.18-3.25,12.41-7.88c0.32-0.56,0.59-1.11,0.82-1.65    C466.68,320.68,463.66,312.48,457.01,308.85z M323.79,330.12c-40.13-6.42-91.21-7.35-100-7.47c-8.78,0.12-59.87,1.05-100,7.47    c-5.4,0.86-10.23,1.25-14.61,1.25l3.08-1.27c3.63-1.5,5.24-5.95,3.59-9.92l-2.2-5.32l32.92-14.51    c25.51-3.16,50.89-6.51,77.23-5.98c34.76-0.7,67.83,5.35,101.76,8.82c0.41,0.04,0.8,0.07,1.21,0.11l25.43,11.21l-2.2,5.32    c-1.64,3.97-0.03,8.42,3.59,9.92l2.56,1.06C346.67,332.13,336.05,332.09,323.79,330.12z M458.26,326.14    c-0.03,0.08-0.08,0.15-0.12,0.23c-0.98-2.22-4.03-3.85-7.67-3.85c-3.22,0-5.99,1.27-7.26,3.1c-0.35-1.5-0.64-3.18-0.76-4.99    c-4.37,0.79-11.51,0-15.49-3.97c-0.79,2.38-0.79,2.38-0.79,2.38l-89.09-36.06c2.61-0.54,5.2-1.12,7.76-1.71l1.18,0.47l81.64,32.88    l3.09-8.52l-70.83-28.62c11.01-2.95,20.16-5.74,25.33-6.96c8.07-1.91,13.02-1.01,15.88,0.25l-0.11,0.39l-0.29,0.71l4.91,2.01    c2.32-6.22-4.85-13.43-50.11-4.93c-40.65,7.65-94.47,8.54-122.59,8.4c-27.84,0.13-80.85-0.74-121.36-8.18    c-1.44-0.23-2.86-0.46-4.26-0.71c-11.85-2.06-20.88-3.21-27.71-3.69c-16.7-0.79-20.99,4.95-19.23,9.37    c-3.33-6.75-6.54-16.58-6.33-29.12c-0.11-6.67,0.9-14.22,3.72-22.58c0.7-2.07,1.83-3.84,3.45-5.32c5.48-5.37,16.61-6.9,35.99-3.35    c6.69,1.23,13.33,2.33,19.99,3.32c6.43,0.88,12.88,1.67,19.42,2.37l0.58,0.25c16.96,1.94,53.8,4.1,53.8,4.1l-0.08-0.03l5.74-2.22    h0l12.72-4.93l24-9.3l3.26-1.26l131.03-50.76c0.13,0.43,0.27,0.86,0.44,1.28l10.56,25.56l-100.88,41.04l1.78-0.08    c1.46-0.07,2.93-0.13,4.37-0.2c0.75-0.04,1.49-0.08,2.24-0.12c1.36-0.07,2.71-0.14,4.05-0.21c0.77-0.04,1.53-0.09,2.29-0.13    c1.3-0.08,2.6-0.15,3.89-0.23c0.78-0.05,1.54-0.1,2.31-0.15c1.26-0.08,2.53-0.17,3.78-0.25c0.77-0.05,1.53-0.11,2.29-0.17    c1.24-0.09,2.49-0.18,3.72-0.28c0.75-0.06,1.5-0.12,2.24-0.18c1.24-0.1,2.47-0.2,3.7-0.31c0.73-0.06,1.46-0.13,2.19-0.19    c1.24-0.11,2.47-0.22,3.7-0.34c0.7-0.07,1.41-0.13,2.11-0.2c1.24-0.12,2.49-0.24,3.72-0.37c0.17-0.02,0.34-0.03,0.5-0.05    l-0.65,0.29c1.23-0.14,2.47-0.28,3.69-0.42l0.56-0.25c6.25-0.68,12.43-1.44,18.58-2.29c6.61-0.98,13.19-2.08,19.82-3.29    c19.38-3.55,30.51-2.02,35.99,3.35c1.62,1.47,2.76,3.25,3.46,5.32c2.82,8.36,3.83,15.9,3.72,22.57    c0.21,12.37-2.92,22.11-6.2,28.86l25.57,10.49c2.06,0.85,3.57,2.67,4.03,4.86l0.11,0.53l0.47,0.26l0.36,0.15    c9.06,3.82,15.01,12.61,15.18,22.46l0.01,0.88l0.86,0.23c0.35,0.09,0.7,0.21,1.05,0.36c2.28,0.94,4.05,2.7,4.99,4.97    C459.19,321.37,459.2,323.87,458.26,326.14z"></path></g><g><path fill="#FFFFFF" d="M79.62,248.25c0.12,0.01,0.17,0.06,0.28,0.08c4.01,0.51,4.56,0.23,4.95-2.9l1.98-15.73    c0.36-2.82,0.1-3.52-3.46-3.97l-0.9-0.12l0.47-3.75l14.24,1.8c5.42,0.68,9.51,1.51,12.42,3.05c4.25,2.23,6.47,5.6,6.08,8.68    c-0.71,5.68-7.05,7.71-19.03,6.19l-1.69-0.21l-0.66,5.25c-0.35,2.78,0.07,3.54,3.86,4.02c0.51,0.06,1.08,0.09,1.7,0.17l-0.48,3.78    l-20.23-2.55L79.62,248.25z M97.1,237.52c5.14,0.65,7.85-0.35,8.25-3.57c0.39-3.08-2.25-5.34-7.56-6.01l-1.13-0.14l-1.2,9.51    L97.1,237.52z"></path><path fill="#FFFFFF" d="M108.98,252.72l0.68,0.09c4.01,0.52,4.72-0.55,6.26-3.09l12.9-21.25l8.81,1.14l6.55,24.11    c0.7,2.6,1.3,3.75,4.24,4.12c0.28,0.04,0.57,0.03,0.91,0.08l-0.48,3.78l-19.16-2.46l0.48-3.78c0,0,0.44,0.1,1.41,0.23    c1.98,0.25,3.07-0.19,3.2-1.21c0.06-0.48-0.1-1.04-0.27-1.87l-0.51-2.3l-10.56-1.36l-1.73,3.13c-0.22,0.37-0.44,0.79-0.51,1.27    c-0.08,0.62,0.79,1.09,2.59,1.32c0.17,0.02,0.8,0.06,1.82,0.19l-0.48,3.78l-16.61-2.14L108.98,252.72z M133.05,246.47l-2.46-10.83    l-5.22,9.84L133.05,246.47z"></path><path fill="#FFFFFF" d="M151.73,257.89c0.12,0,0.17,0.05,0.28,0.06c4.04,0.25,4.58-0.07,4.76-3.22l0.98-15.82    c0.18-2.83-0.13-3.52-3.71-3.74l-0.91-0.06l0.23-3.76l20.07,1.23l-0.23,3.77l-0.68-0.04c-4.38-0.27-5.08-0.09-5.27,3.19    l-1.19,19.18l1.19,0.08c6.48,0.4,10.19-1.38,13.81-6.49l5.16,1.48l-6.87,9.67l-27.87-1.71L151.73,257.89z"></path><path fill="#FFFFFF" d="M202.67,260.44c0.4,0,0.86-0.03,1.37-0.03l-0.07,3.82l-16.18-0.26l0.06-3.82c0.12,0,0.29,0.05,0.4,0.05    c4.33,0.06,4.79-0.27,4.85-3.43l0.25-15.84c0.04-2.84-0.23-3.51-4.1-3.57l-1.02-0.02l0.06-3.77l17.49,0.29l6.1,17.23l6.77-17.03    l17.04,0.28l-0.07,3.77h-0.34c-3.93-0.07-4.45,0.28-4.5,3.43l-0.25,15.84c-0.05,2.79,0.28,3.51,3.76,3.57    c0.4,0,0.74-0.03,0.97-0.03l-0.06,3.81l-18.69-0.31l0.06-3.82c0.17,0,0.34,0.05,0.57,0.06c3.93,0.06,4.33-0.33,4.38-3.44    l0.27-16.82l-9.85,23.94l-3.65-0.06l-9.06-24.74l-0.28,17.31C198.93,259.62,199.25,260.38,202.67,260.44z"></path><path fill="#FFFFFF" d="M238.88,260.82c0.12,0,0.17,0.04,0.29,0.04c4.05-0.05,4.56-0.41,4.51-3.57l-0.22-15.84    c-0.04-2.84-0.4-3.51-3.98-3.45l-0.91,0.01l-0.05-3.77l28.14-0.4l5.7,8l-4.82,1.71c-2.9-4-6.62-5.73-12.61-5.64l-1.99,0.03    l0.13,8.87l0.97-0.01c3.7-0.05,3.8-0.94,3.93-4.14l4.96-0.07l0.17,12.56l-4.95,0.07c-0.05-3.37-0.46-4.34-4.1-4.29l-0.92,0.01    l0.13,9.59l2.11-0.04c6.83-0.09,10.63-1.78,13.87-6.62l4.91,1.17l-5.57,9.17l-29.63,0.42L238.88,260.82z"></path><path fill="#FFFFFF" d="M284.25,259.89c0.22-0.02,0.4,0.02,0.68,0.01c4.9-0.26,5.68-0.52,5.51-3.8l-1.02-19.29    c-4.32,0.36-7.45,2.66-10.18,7.04l-4.65-1.54l5.19-8.81l28.39-1.5l6.08,8.21l-4.45,2.02c-3.18-4.05-6.53-6.01-10.87-5.91    l1.02,19.29c0.15,2.88,0.75,3.47,4.91,3.26c0.45-0.03,1.02-0.1,1.64-0.14l0.2,3.81l-22.25,1.19L284.25,259.89z"></path><path fill="#FFFFFF" d="M324.37,257.33c0.22-0.02,0.4,0,0.68-0.03c4.87-0.56,5.64-0.87,5.26-4.13l-2.21-19.18    c-4.28,0.63-7.26,3.11-9.72,7.65l-4.73-1.25l4.62-9.11l28.24-3.24l6.57,7.82l-4.32,2.28c-3.43-3.85-6.9-5.6-11.21-5.23l2.2,19.18    c0.34,2.86,0.97,3.42,5.1,2.94c0.46-0.05,1.02-0.16,1.64-0.23l0.44,3.79l-22.13,2.55L324.37,257.33z"></path><path fill="#FFFFFF" d="M370.63,223.39c9.83-1.25,17.25,3.86,18.49,13.59c1.22,9.61-5.18,16.63-14.51,17.81    c-9.32,1.19-17.22-4.07-18.43-13.64C354.94,231.41,360.86,224.62,370.63,223.39z M374.15,250.64c3.55-0.45,5.47-4.85,4.52-12.34    c-0.96-7.54-3.84-11.24-7.46-10.78c-3.5,0.44-5.52,4.91-4.58,12.31C367.59,247.36,370.53,251.1,374.15,250.64z"></path></g></g><path fill="#FFFFFF" d="M64.23,309.45l-24.21,9.8c-0.11-0.32-0.3-0.9-0.67-2.02c-0.1,0.1-0.2,0.18-0.3,0.28  c-0.05-0.16-0.1-0.3-0.16-0.49c-3.97,3.96-11.12,4.76-15.49,3.96c-0.09,1.36-0.28,2.65-0.52,3.85c-1.45-1.38-3.82-2.3-6.54-2.3  c-1.62,0-3.13,0.32-4.39,0.88c-2.03,0.65-3.59,1.85-4.24,3.32c-0.04-0.08-0.08-0.15-0.11-0.23c-0.94-2.28-0.93-4.78,0.01-7.05  c0.94-2.27,2.72-4.04,4.99-4.97c0.35-0.15,0.7-0.27,1.05-0.36l0.86-0.23l0.02-0.89c0.17-9.84,6.12-18.64,15.18-22.46l0.36-0.15  l0.47-0.26l0.11-0.53c0.46-2.19,1.97-4,4.03-4.86l25.85-10.61c0.03,0.02,0.06,0.04,0.1,0.06c0,0,0.03-0.05,0.11-0.14l4.42-1.81  l-0.14-0.33l0.41-0.15l-0.2-0.54c2.97-1,7.65-1.49,14.74,0.19c5.11,1.21,14.12,3.95,24.96,6.86l-20.32,8.21l-17.04,6.88l-14.87,6.01  l-17.56,7.1l3.09,8.52l43.15-17.38h0l38.61-15.55c2.55,0.59,5.13,1.17,7.74,1.72L64.23,309.45z"></path><path fill="#FFFFFF" d="M102.81,326.81c-1.25-2.38-4.59-9.04-5.87-14.17c1.21-0.48,2.35-0.83,3.42-1.06c5.51-1,9.13,0.9,10.58,1.91  l-0.35,0.15l3.09,7.45c0.3,0.72,0.44,1.46,0.46,2.18C109.41,324.3,105.72,325.52,102.81,326.81z"></path><path fill="#FFFFFF" d="M80.46,185.16c-3.9-0.33-9.94-2.02-15.58-8.27l12.05-29.19c1.13-2.72,3.1-4.19,4.38-4.19  c0.21,0,0.41,0.04,0.59,0.11L94.92,149c0.88,0.36,1.18,1.46,1.28,2.09c0.03,0.2,0.04,0.43,0.05,0.64l-1.7-0.66L80.46,185.16z"></path><path fill="#FFFFFF" d="M363.65,326.73c-3-1.38-6.89-2.71-11.94-3.8c0.01-0.72,0.16-1.46,0.46-2.18l3.09-7.45l-0.35-0.15  c1.79-1.23,6.84-3.84,14.68-0.71C368.28,317.65,364.84,324.46,363.65,326.73z"></path><path fill="#FFFFFF" d="M87.18,181.84l10.56-25.55c0.17-0.43,0.32-0.85,0.44-1.28l131.92,51.1l-23.93,9.27L95.21,170.55l-3.52,8.78  l101.75,40.98l-5.73,2.22L87.18,181.84z"></path><path fill="#FFFFFF" d="M369.65,151.43c0.1-0.63,0.4-1.73,1.28-2.09l13.01-5.38c0.18-0.07,0.38-0.11,0.59-0.11  c1.28,0,3.25,1.47,4.38,4.19l12.06,29.19c-4.54,5.04-9.34,7.11-13.07,7.9c-0.93,0.16-1.79,0.25-2.54,0.28l-14.04-34l-1.7,0.66  C369.61,151.85,369.61,151.63,369.65,151.43z"></path><polygon fill="#333333" points="227.42,223.82 225.26,224.37 233.16,225.04 240.56,224.18 "></polygon><polygon fill="#FFFFFF" points="401.42,272.2 406.55,274.34 405.97,275.7 400.81,273.06 "></polygon><path fill="#FFFFFF" d="M275.97,164.41c5.19-9.61,16.47-9.76,16.47-9.76c-12.89,7.2-16.93,14.65-17.84,19.98  C274.15,170.66,274.75,167.16,275.97,164.41z"></path><path fill="#FFFFFF" d="M249.19,145.35c5.19-9.61,16.48-9.77,16.48-9.77c-12.89,7.2-16.93,14.65-17.84,19.98  C247.37,151.59,247.98,148.09,249.19,145.35z"></path><path fill="#FFFFFF" d="M246.99,175.05c5.18-9.61,16.47-9.76,16.47-9.76c-12.89,7.2-16.93,14.65-17.84,19.98  C245.17,181.3,245.78,177.8,246.99,175.05z"></path><path fill="#FFFFFF" d="M216.92,128.1c5.19-9.61,16.47-9.76,16.47-9.76c-12.89,7.2-16.93,14.65-17.84,19.98  C215.09,134.36,215.69,130.85,216.92,128.1z"></path><path fill="#FFFFFF" d="M216.09,156.02c5.19-9.61,16.48-9.76,16.48-9.76c-13.52,7.17-16.94,14.64-17.85,19.98  C214.25,162.27,214.87,158.76,216.09,156.02z"></path><path fill="#FFFFFF" d="M214.42,181.95c5.19-9.61,16.47-9.76,16.47-9.76c-13.32,7.27-16.93,14.64-17.84,19.97  C212.59,188.2,213.2,184.69,214.42,181.95z"></path><path fill="#FFFFFF" d="M204.83,165.29c-12.93,7.57-16.93,14.65-17.85,19.98c-0.45-3.97,0.15-7.47,1.38-10.22  C193.55,165.44,204.83,165.29,204.83,165.29z"></path><path fill="#FFFFFF" d="M182.8,145.35c5.19-9.61,16.47-9.77,16.47-9.77c-12.88,7.2-16.93,14.65-17.84,19.98  C180.98,151.59,181.58,148.09,182.8,145.35z"></path><path fill="#FFFFFF" d="M174.34,154.65c-12.89,7.2-16.93,14.65-17.84,19.98c-0.46-3.97,0.15-7.48,1.37-10.22  C163.05,154.81,174.34,154.65,174.34,154.65z"></path></svg>