<svg width="1080" height="1080" viewBox="0 0 1080 1080" fill="none" xmlns="http://www.w3.org/2000/svg"  version="1.2" baseProfile="tiny-ps" id="Layer_1">
  <title>One Mobikwik Systems Limited</title>
  <g>
<rect width="1080" height="1080" fill="#0A4BFF"/>
<rect width="1080" height="1080" fill="white"/>
<path d="M450.635 567.957V567.675C450.635 555.356 441.676 545.16 429.033 545.16C416.39 545.16 407.862 555.207 407.862 567.543V567.825C407.862 580.011 416.821 590.208 429.315 590.208C442.406 590.191 450.635 579.994 450.635 567.957ZM391.668 567.957V567.675C391.668 547.564 407.729 531 429.331 531C450.934 531 466.845 547.282 466.845 567.394V567.675C466.845 587.638 450.784 604.218 429.049 604.218C407.579 604.201 391.668 587.92 391.668 567.957Z" fill="#0A4BFF"/>
<path d="M532.07 567.675V567.393C532.07 553.797 522.829 545.01 511.895 545.01C500.961 545.01 491.288 554.079 491.288 567.393V567.675C491.288 581.121 500.944 590.058 511.895 590.058C522.978 590.191 532.07 581.552 532.07 567.675ZM475.658 513.011C475.658 510.888 476.504 508.899 477.931 507.34C479.491 505.782 481.482 505.069 483.622 505.069C485.763 505.069 487.886 505.782 489.446 507.34C491.006 508.899 491.868 510.888 491.868 513.011V544.164C497.128 536.803 504.379 531 515.877 531C532.352 531 548.563 544.032 548.563 567.393V567.675C548.563 590.904 532.502 604.068 515.877 604.068C504.08 604.068 496.829 598.265 491.868 591.749V595.297C491.868 599.691 488.318 603.372 483.772 603.372C479.225 603.372 475.675 599.824 475.675 595.297V513.011H475.658Z" fill="#0A4BFF"/>
<path d="M558.628 539.772C558.628 537.649 559.342 535.527 560.901 534.101C562.461 532.543 564.452 531.697 566.592 531.697C568.733 531.697 570.856 532.543 572.416 534.101C573.976 535.66 574.838 537.649 574.838 539.904V595.414C574.838 599.808 571.288 603.489 566.742 603.489C562.195 603.489 558.645 599.94 558.645 595.414V539.772H558.628ZM557.5 513.708C557.5 508.9 561.482 505.915 566.742 505.915C572.001 505.915 575.983 509.032 575.983 513.708V514.553C575.983 519.362 572.001 522.479 566.742 522.479C561.482 522.479 557.5 519.229 557.5 514.553V513.708Z" fill="#0A4BFF"/>
<path d="M590.191 517.107C590.191 512.58 593.891 508.9 598.437 508.9C602.984 508.9 606.684 512.58 606.684 517.107V556.335L651.017 512C652.726 510.01 655.132 508.883 657.836 508.883C659.827 508.883 661.818 509.596 663.228 511.005C664.655 512.415 665.502 514.404 665.352 516.394C665.352 518.798 664.207 521.069 662.366 522.479L633.231 550.383L664.771 589.329C666.198 590.888 667.045 593.01 667.045 595.132C667.045 597.254 666.198 599.377 664.622 600.935C663.063 602.494 660.922 603.207 658.798 603.207C655.53 603.207 653.539 601.648 651.83 599.377L621.849 561.276L606.65 575.866V595.132C606.65 599.659 602.95 603.339 598.404 603.339C593.858 603.339 590.158 599.659 590.158 595.132V517.107H590.191Z" fill="#0A4BFF"/>
<path d="M686.104 596.707L667.206 543.32C666.774 542.043 666.492 540.634 666.359 539.208C666.359 537.218 667.206 535.245 668.782 533.82C670.341 532.41 672.2 531.697 674.323 531.697C678.305 531.697 681.01 534.383 682.138 538.064L695.777 580.558L709.564 538.064C710.709 534.383 713.679 531.697 717.81 531.697H718.806C722.921 531.697 725.907 534.383 727.052 538.064L740.973 580.558L754.611 537.931C755.756 534.532 758.162 531.697 762.426 531.697C764.417 531.697 766.408 532.41 767.818 533.82C769.228 535.229 770.091 537.069 770.091 539.059C770.091 540.335 769.809 541.463 769.378 542.607L750.181 596.426C748.472 601.383 745.071 603.654 741.222 603.654H740.657C736.675 603.654 733.274 601.383 731.847 596.707L718.059 555.075L704.139 596.707C702.712 601.383 699.311 603.654 695.478 603.654H694.914C691.065 603.787 687.796 601.516 686.104 596.707Z" fill="#0A4BFF"/>
<path d="M778.75 539.904C778.75 537.782 779.464 535.66 781.023 534.234C782.583 532.675 784.574 531.83 786.714 531.83C788.855 531.83 790.978 532.675 792.538 534.234C794.098 535.792 794.96 537.782 794.96 540.037V595.547C794.96 599.94 791.41 603.621 786.864 603.621C782.318 603.621 778.767 600.073 778.767 595.547V539.904H778.75ZM777.605 513.708C777.605 508.9 781.588 505.915 786.847 505.915C792.107 505.915 796.089 509.032 796.089 513.708V514.553C796.089 519.362 792.107 522.479 786.847 522.479C781.588 522.479 777.605 519.229 777.605 514.553V513.708Z" fill="#0A4BFF"/>
<path d="M808.465 513.011C808.465 510.888 809.311 508.899 810.738 507.34C812.298 505.782 814.289 505.069 816.429 505.069C818.569 505.069 820.693 505.914 822.12 507.34C823.547 508.766 824.542 510.888 824.542 513.011V564.84L854.806 535.244C856.929 533.122 858.92 531.846 861.774 531.846C863.765 531.846 865.474 532.691 866.885 533.968C868.162 535.377 868.876 537.217 868.876 539.058C868.876 541.744 867.598 543.733 865.325 545.856L846.709 562.999L868.029 590.754C869.456 592.744 870.153 594.153 870.153 596.143C870.153 600.536 866.735 603.504 862.62 603.504C859.352 603.504 857.51 602.377 855.519 599.956L835.344 573.329L824.692 583.376V595.562C824.692 599.956 821.141 603.637 816.595 603.637C812.049 603.637 808.498 600.089 808.498 595.562L808.465 513.011Z" fill="#0A4BFF"/>
<path d="M397.259 524.766C397.109 526.889 395.4 528.746 393.276 528.746C392.281 528.746 391.285 528.182 390.721 527.469C389.875 526.756 389.444 525.761 389.444 524.634C389.726 522.644 391.302 521.086 393.293 520.804C394.289 520.804 395.433 521.235 396.147 522.081C396.827 522.777 397.259 523.772 397.259 524.766ZM391.85 540.368L387.586 541.496C384.168 542.341 380.75 543.054 377.332 543.618L372.072 594.121L370.795 599.658C369.948 603.339 367.526 605.196 363.677 605.196H354.419V605.909L352.992 609.59C351.996 611.994 349.856 613.42 346.587 613.851C344.878 614 337.196 614 323.375 614H278.528C262.583 614 248.065 614 234.974 613.851L215.479 613.702L212.774 612.707C210.916 611.994 209.921 610.435 209.506 607.882V501.787L211.497 498.388C212.774 496.116 215.197 494.84 218.764 494.409C220.042 494.127 225.451 493.281 234.991 491.855C244.531 490.429 255.78 488.738 268.589 486.749L277.267 470.998C278.113 469.008 279.689 467.449 281.68 466.736C283.538 465.891 285.662 465.742 287.653 466.455C288.931 466.736 290.208 467.168 291.353 467.881C292.631 468.593 293.626 469.721 294.207 470.998C293.361 470.003 292.216 469.439 290.938 469.008C289.943 468.577 288.798 468.295 287.67 468.295C285.961 468.295 284.252 468.726 282.825 469.572C281.265 470.417 279.971 471.843 279.125 473.402L216.209 590.307C214.931 592.429 214.649 595.132 215.495 597.536C216.209 599.94 217.918 601.797 220.191 602.792C222.049 604.069 224.322 604.5 226.463 603.787C228.736 603.223 230.594 601.664 231.44 599.526L275.425 514.255V584.338C275.425 586.892 276.57 589.445 278.694 591.004C280.834 592.711 283.389 593.557 285.961 593.557C288.815 593.557 291.519 592.131 293.228 589.876C294.224 588.45 295.368 587.041 296.646 585.764L321.55 537.948V579.232C321.55 581.785 322.695 584.057 324.537 585.764C326.395 587.472 328.801 588.467 331.373 588.467C333.944 588.467 336.499 587.472 338.341 585.764C340.199 584.206 341.328 581.785 341.328 579.232V499.946C341.328 497.393 340.332 494.989 338.341 493.281C336.35 491.573 333.928 490.579 331.373 490.728C329.514 490.728 327.673 491.291 326.113 492.435C324.553 493.58 323.259 494.989 322.413 496.697L297.923 543.087L291.37 555.572L295.352 539.821V482.206C303.614 480.78 311.446 479.503 318.978 478.226C326.511 476.95 333.214 475.955 338.905 474.828C344.746 473.833 349.292 472.987 352.71 472.423L357.836 471.578L361.818 471.727C364.523 471.727 365.95 473.999 366.232 478.11V481.377C369.218 481.095 372.205 480.946 375.341 481.227C380.036 481.377 382.459 484.063 382.89 489.318L380.75 514.852L383.023 515.134C384.582 515.283 387.718 514.57 392.696 512.862L399.382 511.867C403.945 511.154 406.5 514.139 407.064 520.671L406.218 528.199C405.654 533.57 400.958 537.533 391.85 540.368ZM366.232 482.355L355.132 594.999C356.559 594.999 358.118 594.85 359.545 594.568C361.105 594.286 362.101 593.01 362.399 591.02C362.681 589.594 363.395 583.642 364.54 572.998C365.684 562.353 366.813 551.013 368.09 538.81C369.368 526.607 370.363 515.681 371.508 505.749L373.068 490.86L372.636 488.025C372.205 486.036 370.065 484.195 366.232 482.355ZM400.527 524.766C400.527 522.926 399.814 521.086 398.387 519.809C396.96 518.383 395.118 517.687 393.127 517.687C389.145 517.687 386.009 520.953 386.009 524.783C386.009 526.773 386.723 528.613 388.15 530.039C389.427 531.465 391.285 532.161 393.127 532.161C395.118 532.161 396.976 531.448 398.387 530.039C399.83 528.596 400.676 526.607 400.527 524.766Z" fill="#0A4BFF"/>
</g>
</svg>
