<?xml version="1.0" encoding="UTF-8"?>
<svg id="Capa_1" xmlns="http://www.w3.org/2000/svg" baseProfile="tiny-ps" version="1.2" viewBox="0 0 1000 1000">
<title>CloudTask</title>  
  <g>
    <path d="M211.9,438.4l2.8,41.1h-2.8c-3.7-12.3-8.9-21.2-15.8-26.6c-6.8-5.4-15-8.1-24.6-8.1c-8,0-15.3,2-21.7,6.1
      c-6.5,4.1-11.6,10.6-15.3,19.5c-3.7,8.9-5.6,20-5.6,33.2c0,10.9,1.8,20.4,5.3,28.4c3.5,8,8.8,14.2,15.8,18.4
      c7,4.3,15.1,6.4,24.1,6.4c7.8,0,14.8-1.7,20.8-5c6-3.4,12.6-10,19.8-20l2.8,1.8c-6.1,10.8-13.1,18.6-21.2,23.6
      c-8.1,5-17.7,7.5-28.8,7.5c-20,0-35.5-7.4-46.5-22.3c-8.2-11.1-12.3-24.1-12.3-39c0-12.1,2.7-23.1,8.1-33.2
      c5.4-10.1,12.8-17.9,22.3-23.5c9.5-5.6,19.8-8.3,31.1-8.3c8.7,0,17.3,2.1,25.8,6.4c2.5,1.3,4.3,2,5.3,2c1.6,0,3-0.6,4.2-1.7
      c1.5-1.6,2.6-3.8,3.3-6.7H211.9z" fill="#000000" stroke-width="0"/>
    <path d="M257.5,435.3v108.3c0,5.1,0.4,8.5,1.1,10.2c0.7,1.7,1.9,2.9,3.4,3.8c1.5,0.9,4.4,1.3,8.6,1.3v3.2h-40v-3.2
      c3.7,0,6.3-0.4,7.7-1.2c1.4-0.8,2.4-2,3.2-3.8c0.8-1.8,1.2-5.2,1.2-10.2v-74.1c0-9.2-0.2-14.9-0.6-17c-0.4-2.1-1.1-3.5-2-4.3
      c-0.9-0.8-2.1-1.2-3.5-1.2c-1.5,0-3.5,0.5-5.9,1.4l-1.5-3.1l24.3-10H257.5z" fill="#000000" stroke-width="0"/>
    <path d="M320.1,477.9c12.4,0,22.3,4.7,29.8,14.1c6.4,8,9.5,17.2,9.5,27.6c0,7.3-1.8,14.7-5.3,22.2c-3.5,7.5-8.3,13.1-14.5,16.9
      c-6.1,3.8-13,5.7-20.5,5.7c-12.3,0-22.1-4.9-29.3-14.7c-6.1-8.3-9.2-17.5-9.2-27.8c0-7.5,1.9-14.9,5.6-22.3
      c3.7-7.4,8.6-12.9,14.7-16.4C306.9,479.7,313.3,477.9,320.1,477.9z M317.3,483.7c-3.2,0-6.3,0.9-9.5,2.8c-3.2,1.9-5.7,5.2-7.7,9.8
      c-2,4.7-2.9,10.7-2.9,18.1c0,11.9,2.4,22.1,7.1,30.7c4.7,8.6,10.9,12.9,18.7,12.9c5.8,0,10.5-2.4,14.3-7.1
      c3.7-4.8,5.6-12.9,5.6-24.5c0-14.5-3.1-25.9-9.4-34.2C329.3,486.6,323.9,483.7,317.3,483.7z" fill="#000000" stroke-width="0"/>
    <path d="M443,480.3v49.5c0,9.4,0.2,15.2,0.7,17.3c0.4,2.1,1.2,3.6,2.1,4.4c1,0.8,2.1,1.2,3.4,1.2c1.8,0,3.9-0.5,6.2-1.5l1.2,3.1
      l-24.4,10.1h-4v-17.3c-7,7.6-12.4,12.4-16,14.3c-3.7,2-7.6,2.9-11.7,2.9c-4.6,0-8.5-1.3-11.9-4c-3.4-2.6-5.7-6-7-10.2
      c-1.3-4.2-2-10-2-17.6v-36.5c0-3.9-0.4-6.5-1.2-8c-0.8-1.5-2.1-2.6-3.7-3.4c-1.6-0.8-4.6-1.2-8.9-1.1v-3.3h28.6V535
      c0,7.6,1.3,12.6,4,15c2.6,2.4,5.8,3.6,9.6,3.6c2.6,0,5.5-0.8,8.7-2.4c3.2-1.6,7.1-4.7,11.5-9.2v-46.3c0-4.6-0.8-7.8-2.5-9.4
      c-1.7-1.6-5.2-2.5-10.6-2.6v-3.3H443z" fill="#000000" stroke-width="0"/>
    <path d="M520.4,552.8c-4,4.2-7.9,7.1-11.7,9c-3.8,1.8-7.9,2.7-12.3,2.7c-8.9,0-16.7-3.7-23.3-11.2c-6.7-7.5-10-17-10-28.7
      c0-11.7,3.7-22.4,11.1-32.1c7.4-9.7,16.8-14.6,28.4-14.6c7.2,0,13.1,2.3,17.8,6.9v-15.1c0-9.3-0.2-15.1-0.7-17.2
      c-0.4-2.1-1.1-3.6-2.1-4.4c-1-0.8-2.1-1.2-3.6-1.2c-1.5,0-3.6,0.5-6.1,1.4l-1.2-3.1l24.3-10h4v94.4c0,9.6,0.2,15.4,0.7,17.5
      c0.4,2.1,1.2,3.6,2.1,4.4c1,0.8,2.1,1.2,3.4,1.2c1.6,0,3.7-0.5,6.4-1.5l1,3.1l-24.2,10.1h-4.1V552.8z M520.4,546.6v-42.1
      c-0.4-4-1.4-7.7-3.2-11.1c-1.8-3.3-4.1-5.8-7.1-7.5c-2.9-1.7-5.8-2.5-8.6-2.5c-5.2,0-9.9,2.3-14,7c-5.4,6.2-8.1,15.2-8.1,27.1
      c0,12,2.6,21.2,7.8,27.6c5.2,6.4,11.1,9.6,17.5,9.6C510.1,554.7,515.3,552,520.4,546.6z" fill="#000000" stroke-width="0"/>
    <path d="M653.9,441.1l1.3,28.3h-3.4c-0.7-5-1.5-8.6-2.7-10.7c-1.8-3.4-4.3-6-7.4-7.6c-3.1-1.6-7.1-2.5-12.1-2.5h-17V541
      c0,7.4,0.8,12.1,2.4,13.9c2.3,2.5,5.7,3.7,10.4,3.7h4.2v3.3h-51.2v-3.3h4.3c5.1,0,8.7-1.5,10.9-4.6c1.3-1.9,2-6.2,2-13v-92.3h-14.5
      c-5.6,0-9.7,0.4-12,1.2c-3.1,1.1-5.7,3.3-7.9,6.5c-2.2,3.2-3.5,7.5-3.9,13h-3.4l1.4-28.3H653.9z" fill="#000000" stroke-width="0"/>
    <path d="M699,550.2c-8.4,6.5-13.6,10.2-15.8,11.2c-3.2,1.5-6.6,2.2-10.2,2.2c-5.6,0-10.3-1.9-13.9-5.8c-3.7-3.9-5.5-8.9-5.5-15.2
      c0-4,0.9-7.4,2.7-10.3c2.4-4,6.7-7.8,12.7-11.4c6-3.6,16.1-7.9,30.1-13v-3.2c0-8.1-1.3-13.7-3.9-16.8c-2.6-3-6.3-4.5-11.3-4.5
      c-3.7,0-6.7,1-8.9,3c-2.3,2-3.4,4.3-3.4,7l0.2,5.2c0,2.7-0.7,4.8-2.1,6.3c-1.4,1.5-3.2,2.2-5.5,2.2c-2.2,0-4-0.8-5.4-2.3
      c-1.4-1.5-2.1-3.7-2.1-6.3c0-5.1,2.6-9.8,7.8-14.1c5.2-4.3,12.6-6.4,22-6.4c7.2,0,13.2,1.2,17.8,3.7c3.5,1.8,6.1,4.7,7.8,8.6
      c1.1,2.6,1.6,7.8,1.6,15.7v27.7c0,7.8,0.1,12.6,0.4,14.3c0.3,1.8,0.8,2.9,1.5,3.5c0.7,0.6,1.5,0.9,2.4,0.9c1,0,1.8-0.2,2.5-0.6
      c1.2-0.8,3.7-2.9,7.2-6.5v5c-6.7,8.9-13,13.4-19.1,13.4c-2.9,0-5.2-1-7-3C699.9,558.5,699,555.1,699,550.2z M699,544.4v-31.1
      c-9,3.6-14.8,6.1-17.4,7.6c-4.7,2.6-8.1,5.3-10.1,8.2c-2,2.9-3,6-3,9.4c0,4.3,1.3,7.8,3.8,10.7c2.6,2.8,5.5,4.2,8.8,4.2
      C685.7,553.3,691.6,550.4,699,544.4z" fill="#000000" stroke-width="0"/>
    <path d="M786.5,477.9v27.8h-2.9c-2.3-8.7-5.2-14.7-8.7-17.8c-3.5-3.1-8-4.7-13.5-4.7c-4.2,0-7.5,1.1-10.1,3.3
      c-2.6,2.2-3.8,4.6-3.8,7.3c0,3.3,1,6.2,2.9,8.6c1.8,2.4,5.6,5,11.2,7.8l13,6.3c12.1,5.9,18.1,13.6,18.1,23.3c0,7.4-2.8,13.4-8.4,18
      c-5.6,4.5-11.9,6.8-18.8,6.8c-5,0-10.7-0.9-17.1-2.7c-2-0.6-3.6-0.9-4.8-0.9c-1.4,0-2.4,0.8-3.2,2.3h-2.9v-29.1h2.9
      c1.7,8.3,4.8,14.6,9.5,18.8c4.7,4.2,10,6.3,15.8,6.3c4.1,0,7.4-1.2,10-3.6c2.6-2.4,3.9-5.3,3.9-8.7c0-4.1-1.4-7.5-4.3-10.3
      c-2.9-2.8-8.6-6.3-17.2-10.6c-8.6-4.3-14.3-8.1-16.9-11.6c-2.7-3.4-4-7.7-4-12.8c0-6.7,2.3-12.3,6.9-16.8
      c4.6-4.5,10.6-6.8,17.9-6.8c3.2,0,7.1,0.7,11.7,2c3,0.9,5,1.3,6.1,1.3c1,0,1.7-0.2,2.2-0.6c0.5-0.4,1.2-1.3,1.9-2.8H786.5z" fill="#000000" stroke-width="0"/>
    <path d="M828.9,435.3v81.3l20.8-19c4.4-4,7-6.6,7.7-7.7c0.5-0.7,0.7-1.4,0.7-2.1c0-1.2-0.5-2.2-1.5-3.1c-1-0.9-2.6-1.4-4.9-1.5
      v-2.9h35.5v2.9c-4.9,0.1-8.9,0.9-12.2,2.2c-3.2,1.4-6.8,3.8-10.6,7.3l-20.9,19.3l20.9,26.5c5.8,7.3,9.7,11.9,11.8,13.9
      c2.9,2.8,5.3,4.6,7.5,5.4c1.5,0.6,4.1,0.9,7.8,0.9v3.2h-39.7v-3.2c2.3-0.1,3.8-0.4,4.6-1c0.8-0.6,1.2-1.5,1.2-2.6
      c0-1.4-1.2-3.6-3.6-6.6l-25-32v27.1c0,5.3,0.4,8.8,1.1,10.4c0.7,1.7,1.8,2.9,3.2,3.6c1.4,0.7,4.3,1.1,8.9,1.2v3.2h-41.5v-3.2
      c4.2,0,7.3-0.5,9.4-1.5c1.2-0.7,2.2-1.7,2.9-3c0.9-2,1.3-5.3,1.3-10.2v-74.3c0-9.4-0.2-15.2-0.6-17.3c-0.4-2.1-1.1-3.6-2-4.4
      c-1-0.8-2.2-1.2-3.7-1.2c-1.2,0-3.1,0.5-5.6,1.5l-1.5-3.1l24.2-10H828.9z" fill="#000000" stroke-width="0"/>
  </g>
</svg>