<?xml version="1.0" encoding="UTF-8"?>
<svg id="ART_STR_" xmlns="http://www.w3.org/2000/svg" baseProfile="tiny-ps" version="1.2" viewBox="0 0 458.4 488.8">
  <title>Colectivo Coffee Roasters, Inc.</title>
  <rect x="-170.8" y="-155.6" width="800" height="800" fill="#000" stroke-width="0"/>
  <rect x="-70.8" y="-52.5" width="600" height="600" fill="#000" stroke="#000" stroke-miterlimit="10"/>
  <g>
    <path d="M336.6,24.7l-3.3,52.5-3.6,77.7,76.3.7,25.1-1.6.6-43.2-52.5,2.6-11-91.1-31.7,2.3h.1ZM70.8,344.7l2.1,114.5,42.6-1.1.3-116.5-45,3.1ZM356.2,329.3c-7.2.7-23.5,11-29,14.9-5.5,4-9.9,9.5-13.7,15-8.7,13-10.9,29.2-10.8,40.4.1,13.5,4.3,24.6,13.2,38.8.5.8,1.3,1.5,1.8,2.3,6.2,9,16.4,13,24.8,19.4,1.5,1.2,3.5,1.7,5.4,2.3,20.5,5.6,39.5,1.1,57.9-6.8,2-.8,3.5-2.8,5.1-4.3,6.2-6,12.9-11.8,18.6-18.2,3.3-3.7,6-8.3,7.9-13,6.3-16.2,4.6-32.9-1.3-48.7-7.1-19.5-21.5-33-42.1-38.3-9.4-2.4-35-3.9-37.9-3.6v-.2ZM366,427.5c-10.7-4.7-17.1-10.1-19.7-20.4-2.2-8.7-.6-17.7,4.4-26.1,4.9-8.3,17.3-14.4,28.7-11.1,5.2,1.6,10.2,4.4,14.9,7.3,2,1.2,3.6,4,4.2,6.4,1.9,8.3,4.4,20.2.2,28.2-8.2,18.4-27.3,18.1-32.7,15.7ZM121,119.1c-3.2,1.3-6.6,2.4-10,3.3-10,2.5-20.7,1.2-30.7-3.8-9.9-5-17.6-17.9-14.2-30.1,1.7-5.6,4.8-11,8-16,1.3-2.1,4.5-4,7.3-4.6,9.6-2.3,19.5-3.9,28.9.2,3.4,1.5,6.9,3.2,10.4,4.8l30.8-27.9c-4.5-4.1-9-8.1-13.8-11.7-4.5-3.4-10-6.2-15.5-7.9-19.2-6.1-38.7-3.9-56.9,2.8-22.5,8.1-37.7,23.8-43,45.7-2.4,10.1-2.7,20.5-4,30.9h.9c.1,3.2.3,6.2.4,9.4.2,13.2,6.4,23.1,18.6,30.2,6.7,3.9,13.6,7.7,19.3,12.6,13.4,11.3,29.6,14.9,46.4,11.7,15.3-3,29.9-10,44.8-15.2.2,0,.3-.3.5-.4l-28.4-33.9h.2ZM264.3,267.8c-3.6,1.4-7.3,2.6-10.9,3.6-10.9,2.8-26,3.5-36.9-2-10.9-5.4-18.7-21.3-15-34.6,1.9-6.1,5.7-11.8,9.2-17.3,1.5-2.3,7.2-5,10.1-5.7,10.6-2.5,21.3-4.2,31.8.3,3.8,1.7,7.6,3.5,11.4,5.2l33.8-30.4c-4.9-4.4-9.9-8.8-15.2-12.7-5-3.7-10.9-6.7-17-8.7-21-6.7-42.4-4.3-62.5,3.1-24.7,8.8-38.8,26.6-47.1,49.9-5.1,14.1-5.1,32-2.9,44.1,2.6,14.2,18.9,41.7,34,48.3,16.7,7.3,40.2,14.7,58.6,11.2,16.8-3.3,32.8-10.9,49.2-16.6.2,0,.4-.3.6-.5l-31.2-37.1h0Z" fill="#62cbc9" stroke-width="0"/>
    <path d="M432.9,191.8l-108.3-1,1.1,33.1,30.7,3.2-.5,89.5,38.9,1.1,3.3-90.4,33.9.5,1-36h0ZM37.8,200.1l3.1,115.6,3.6,4.1,15.3,5.4,70.4-3.5,3.2-1.1-.4-26.1-9-6-40-1.8-10.6-4.7-.8-9.9,35.7-.7,8.3-.8.7-22.9-9.1-3.9-34-1.2-.9-10.1,24.4-5.5h19.3c0-.1,10.5-6.9,10.5-6.9l-1.3-24.8-13.9-4.5-67.4,2.8-6.9,6.6h-.2Z" fill="#ce0e2d" stroke-width="0"/>
    <path d="M160.8,351.8l30.2,76.9,15.8,35.3,37.2,4.6,5.4-6.2,39.5-107.7-2.5-7.9-29.8-2.3-32.4,68.3-21.3-62.4-5.8-3.7-33,.7-3.3,4.5h0ZM235.7,151h8.3c11.6.2,23.5-5.6,30-14.4,3.5-4.8,22.3-33.8,19.8-46.3-2.3-11.4-8-22.4-12.3-33.5-.3-.8-1.1-1.5-1.7-2-7.7-5.6-15.3-11.2-23.1-16.7-1.4-1-3.3-1.5-5-2-19.1-4.9-36.8-.9-53.9,5.9-1.9.7-3.3,2.4-4.8,3.8-5.8,5.2-12,10.2-17.3,15.7-3.1,3.2-5.6,7.2-7.3,11.2-5.8,14-4.3,28.5,1.2,42.1,6.6,16.9,20,28.5,39.2,33.1,8.8,2.1,27.1,3.4,27.2,3.1h-.3ZM236.2,67.7c10,4.1,16.5,10.8,18.9,19.7,2,7.5.6,15.3-4.1,22.6-4.6,7.2-16.1,12.5-26.8,9.6-4.9-1.4-9.5-3.8-13.9-6.3-1.8-1-3.4-3.5-3.9-5.5-1.8-7.2-2.9-14.5.9-21.3,4.3-16.5,23.9-20.7,28.9-18.6v-.2Z" fill="#ce0e2d" stroke-width="0"/>
  </g>
</svg>