<?xml version="1.0" encoding="utf-8"?>
<!-- Generator: Adobe Illustrator 28.7.1, SVG Export Plug-In . SVG Version: 9.03 Build 54978)  -->
<svg version="1.2" baseProfile="tiny-ps" id="Layer_1" xmlns="http://www.w3.org/2000/svg" xmlns:xlink="http://www.w3.org/1999/xlink" viewBox="0 0 800 800" xml:space="preserve">
<title>ENVISEAM</title>
<g>
	<g id="Background">
		<rect fill="#FFFFFF" width="800" height="800"/>
	</g>
	<g id="Layer_1_00000025415642786391062560000004655585702014403745_">
		<g id="Layer_1-2">
			<g>
				<polygon points="0,341.7 0,458.7 79,458.7 79,435.4 27.2,435.4 27.2,411.1 75.1,411.1 75.1,388.7 27.2,388.7 27.2,364.8
					78.5,364.8 78.5,341.7 				"/>
				<rect x="307.4" y="341.5" width="29.5" height="117"/>
				<path d="M400.4,438.8c12,0,17.5-4.4,17.5-12.9s-8.7-12.8-23.6-17.4C375,402.6,356,395.4,356,371s22.5-32.3,43.9-32.3
					s41.6,10.2,44.7,38.3h-27.2c-2.1-11.1-7.9-16.1-18.5-16.1s-15.9,3.6-15.9,11.6s7.7,12,22.5,16.4c20.2,6.1,39.3,12.3,39.3,37.4
					s-22,34.9-44.4,34.9s-46.2-13.3-49.7-41.8h28.2c1.1,11.8,9.8,19.3,21.5,19.3"/>
				<polygon points="537.2,364.6 485.9,364.6 485.9,388.5 533.8,388.5 533.8,411 485.9,411 485.9,435.2 537.7,435.2 537.7,458.5
					458.7,458.5 458.7,341.5 537.2,341.5 				"/>
				<path d="M264.8,341.5l-28.4,79l-24.8-79h-42.4V391c0,13.3,0,25.1,0.5,35.1c-2.5-5.6-6.7-15.4-12.1-27.4l-27.4-57.2H92.8v117
					h26.4v-45.7c0-12.5,0.2-28.8-0.3-38.5c2.6,7.4,10,20.5,17.4,37.5l22.6,46.7h36.7v-79l27.1,79l30.8-0.2l40.2-116.9h-28.8
					L264.8,341.5z"/>
				<path d="M762.6,341.7l-27.4,57.2c-5.4,12-9.7,21.8-12.1,27.4c0.5-10,0.5-21.8,0.5-35.1v-49.5h-42.4l-24.8,79l-28.4-79h-34.2
					l-42.1,117l30.8-0.2l28.4-82.7l28.4,82.7l30.8,0.2l27.1-79v79h36.7l22.6-46.7c7.4-17,14.8-30.2,17.4-37.5
					c-0.5,9.7-0.3,26.1-0.3,38.5v45.7H800v-117H762.6L762.6,341.7z"/>
			</g>
		</g>
	</g>
</g>
</svg>
