<?xml version="1.0" encoding="UTF-8"?>
<svg id="Layer_1" xmlns="http://www.w3.org/2000/svg" baseProfile="tiny-ps" version="1.2" viewBox="0 0 1919 1919">
  <title>AKT London Ltd</title>
  <!-- Generator: Adobe Illustrator 29.0.1, SVG Export Plug-In . SVG Version: 2.1.0 Build 192)  -->
  <path d="M1076.94,1919.41H-.33V-.41h1919.65v1919.83h-842.38M913.69,1164.75c0-39.39.05-78.79-.06-118.18-.01-4.89.72-9.14,3.82-13.23,15.78-20.74,31.32-41.66,46.99-62.48,1.14-1.52,2.72-2.7,4.68-4.62,2.46,5.02,4.57,9.22,6.6,13.45,37.37,77.92,74.85,155.8,111.92,233.86,3.63,7.65,8.03,10.22,16.27,10.06,24.57-.49,49.17-.18,73.75-.18,2.07,0,4.16.1,6.22-.06,6.89-.55,8.71-3.52,6.12-10.11-.97-2.47-2.24-4.83-3.39-7.23-49.18-102.46-98.29-204.95-147.7-307.3-3.45-7.15-2.91-12.02,1.87-18.35,27.29-36.17,54.1-72.7,81.07-109.1,16.22-21.89,32.49-43.75,48.56-65.75,1.38-1.88,2.26-4.88,1.81-7.03-.23-1.1-3.88-1.69-6.06-2.11-1.71-.34-3.54-.07-5.32-.07-25.47,0-50.95.32-76.42-.19-8.29-.17-13.4,2.4-18.26,9.25-47.78,67.4-95.92,134.55-143.98,201.76-1.95,2.72-4.03,5.35-6.05,8.02-.7-.25-1.4-.49-2.1-.74-.12-3.1-.33-6.21-.34-9.31-.02-66.05,0-132.11-.03-198.16,0-9.85-.73-10.59-10.62-10.61-21.92-.05-43.84-.02-65.76-.02q-14.28,0-14.28,14.31c0,166.17,0,332.34,0,498.51,0,1.48-.02,2.96,0,4.44.18,8.46,1.33,9.8,9.85,9.83,23.7.1,47.39.11,71.09,0,8.72-.04,9.67-1.08,9.71-9.77.07-15.7.02-31.4.02-48.87M637.08,895.14c-8.07-25.38-16.15-50.76-24.22-76.13-12.1-38.07-24.18-76.15-36.32-114.21-2.44-7.66-3.11-8.43-9.37-8.45-28.44-.11-56.88-.02-85.32-.07-4.06,0-6.84,1.45-7.96,5.53-.47,1.71-1.1,3.38-1.64,5.07-49.69,156.22-99.37,312.45-149.05,468.67-3.95,12.41-8.04,24.77-11.81,37.23-2.37,7.82-.44,10.23,7.8,10.63.89.04,1.78.02,2.67.02,25.18,0,50.36.03,75.54-.01,10.28-.02,10.45-.17,13.23-10.31,9.47-34.53,18.9-69.07,28.36-103.6,2.76-10.07,2.84-10.15,13.3-10.16,48.29-.02,96.58,0,144.86,0,1.78,0,3.55.04,5.33.06,3.42.02,5.54,1.8,6.5,4.98.77,2.55,1.42,5.13,2.13,7.7,9.3,33.96,18.57,67.93,27.9,101.88,2.5,9.09,2.91,9.42,12.11,9.44,24.59.06,49.18.03,73.77.02,15.39,0,16.19-1.14,11.6-15.6-32.98-103.78-65.95-207.56-99.39-312.69M1261.54,755.78c0,4.44-.12,8.89.04,13.33.23,6.37,1.5,7.6,7.97,8.03,2.36.16,4.74.05,7.11.05,32.88,0,65.77,0,98.65,0,2.37,0,4.74,0,7.11.09,3.85.13,6.04,2.14,6.36,5.99.17,2.06.14,4.14.15,6.22,0,22.81,0,45.62,0,68.44,0,117.91,0,235.82.01,353.73,0,10.89.82,11.72,11.52,11.74,21.33.05,42.66.02,63.99.02q15.15,0,15.16-15.24c0-137.76,0-275.52,0-413.28,0-2.96-.09-5.93.04-8.89.31-7.33,1.57-8.53,9.07-8.8,2.07-.07,4.15-.02,6.22-.02,32.88,0,65.77.02,98.65-.01,12.3-.01,12.79-.51,12.81-12.27.02-16.89,0-33.77,0-50.66,0-3.56.17-7.12-.06-10.66-.33-5.16-1.96-6.8-7.02-7.24-2.35-.2-4.74-.06-7.11-.06-45.03,0-90.06,0-135.09,0-61.62,0-123.24-.01-184.86.02-9.92,0-10.7.81-10.74,10.61-.06,15.7-.02,31.4-.02,48.86Z" fill="#ff6206"/>
  <path d="M913.69,1165.64c0,16.59.05,32.29-.02,47.98-.04,8.69-.98,9.73-9.71,9.77-23.7.1-47.39.1-71.09,0-8.52-.04-9.68-1.38-9.85-9.83-.03-1.48,0-2.96,0-4.44,0-166.17,0-332.34,0-498.51q0-14.3,14.28-14.31c21.92,0,43.84-.03,65.76.02,9.89.02,10.62.75,10.62,10.61.02,66.05,0,132.11.03,198.16,0,3.1.22,6.21.34,9.31.7.25,1.4.49,2.1.74,2.02-2.67,4.11-5.29,6.05-8.02,48.05-67.21,96.19-134.36,143.98-201.76,4.85-6.85,9.97-9.41,18.26-9.25,25.46.51,50.94.19,76.42.19,1.78,0,3.61-.26,5.32.07,2.18.43,5.83,1.02,6.06,2.11.45,2.16-.43,5.15-1.81,7.03-16.07,22-32.34,43.85-48.56,65.75-26.97,36.41-53.78,72.94-81.07,109.1-4.78,6.34-5.32,11.2-1.87,18.35,49.4,102.35,98.52,204.84,147.7,307.3,1.15,2.4,2.42,4.76,3.39,7.23,2.59,6.59.78,9.56-6.12,10.11-2.06.16-4.14.06-6.22.06-24.58,0-49.18-.31-73.75.18-8.24.17-12.64-2.41-16.27-10.06-37.07-78.07-74.55-155.94-111.92-233.86-2.03-4.23-4.13-8.43-6.6-13.45-1.96,1.91-3.53,3.1-4.68,4.62-15.68,20.82-31.21,41.74-46.99,62.48-3.11,4.08-3.84,8.33-3.82,13.23.1,39.39.06,78.79.06,119.07Z" fill="#010100"/>
  <path d="M637.31,895.81c33.21,104.45,66.17,208.24,99.16,312.02,4.6,14.46,3.79,15.6-11.6,15.6-24.59,0-49.18.04-73.77-.02-9.2-.02-9.61-.35-12.11-9.44-9.33-33.95-18.6-67.92-27.9-101.88-.7-2.57-1.36-5.15-2.13-7.7-.96-3.18-3.07-4.96-6.5-4.98-1.78-.01-3.55-.06-5.33-.06-48.29,0-96.58-.01-144.86,0-10.46,0-10.55.09-13.3,10.16-9.46,34.53-18.89,69.07-28.36,103.6-2.78,10.14-2.95,10.3-13.23,10.31-25.18.04-50.36.01-75.54.01-.89,0-1.78.03-2.67-.02-8.24-.4-10.17-2.81-7.8-10.63,3.78-12.46,7.87-24.82,11.81-37.23,49.69-156.22,99.37-312.45,149.05-468.67.54-1.69,1.17-3.36,1.64-5.07,1.12-4.09,3.9-5.54,7.96-5.53,28.44.05,56.88-.04,85.32.07,6.27.02,6.93.79,9.37,8.45,12.14,38.06,24.22,76.14,36.32,114.21,8.07,25.38,16.15,50.76,24.45,76.81M492.95,1018.37h93.39c-.46-3-.57-4.75-1.02-6.41-2.6-9.71-5.27-19.39-7.92-29.09-16.21-59.3-32.39-118.6-48.73-177.86-.83-3.03-.46-7.05-5.35-9.64-20.36,74.41-40.51,148.04-61.02,223h30.64Z" fill="#020100"/>
  <path d="M1261.54,754.91c0-16.58-.04-32.28.02-47.98.04-9.8.82-10.6,10.74-10.61,61.62-.03,123.24-.02,184.86-.02,45.03,0,90.06,0,135.09,0,2.37,0,4.75-.14,7.11.06,5.06.44,6.69,2.07,7.02,7.24.22,3.54.06,7.11.06,10.66,0,16.89.01,33.77,0,50.66-.01,11.76-.51,12.26-12.81,12.27-32.88.03-65.77.01-98.65.01-2.07,0-4.15-.05-6.22.02-7.5.27-8.76,1.47-9.07,8.8-.13,2.96-.04,5.92-.04,8.89,0,137.76,0,275.52,0,413.28q0,15.23-15.16,15.24c-21.33,0-42.66.03-63.99-.02-10.71-.02-11.52-.85-11.52-11.74-.02-117.91-.01-235.82-.01-353.73,0-22.81,0-45.62,0-68.44,0-2.07.02-4.15-.15-6.22-.32-3.85-2.52-5.85-6.36-5.99-2.37-.08-4.74-.09-7.11-.09-32.88,0-65.77,0-98.65,0-2.37,0-4.75.1-7.11-.05-6.47-.44-7.74-1.66-7.97-8.03-.16-4.44-.04-8.89-.04-14.21Z" fill="#010000"/>
  <path d="M492.06,1018.37h-29.75c20.51-74.96,40.66-148.59,61.02-223,4.89,2.59,4.52,6.61,5.35,9.64,16.34,59.26,32.52,118.57,48.73,177.86,2.65,9.69,5.32,19.38,7.92,29.09.44,1.66.55,3.41,1.02,6.41h-94.28Z" fill="#fd6106"/>
</svg>