<?xml version="1.0" encoding="utf-8"?>
<!-- Generator: Adobe Illustrator 26.3.1, SVG Export Plug-In . SVG Version: 6.00 Build 0)  -->
<svg version="1.2" baseProfile="tiny-ps" id="Layer_1" xmlns="http://www.w3.org/2000/svg" xmlns:xlink="http://www.w3.org/1999/xlink" viewBox="0 0 800 800" xml:space="preserve">
<title>Omnitype Design, LLC</title>
<rect fill="#FF3533" width="800" height="800"/>
<path fill="#F8F8F7" d="M659,330.9l-76.4-76.4L472.3,364.9v70.3l110.3,110.3l76.4-76.4l-69-69L659,330.9z"/>
<path fill="#F8F8F7" d="M327.7,364.9L217.4,254.6L141,331l69.1,69L141,469.1l76.4,76.4l110.3-110.3V364.9z"/>
<path fill="#F8F8F7" d="M364.9,472.3L254.6,582.6L331,659l69.1-69l69,69l76.4-76.4L435.1,472.3H364.9z"/>
<path fill="#F8F8F7" d="M369.2,327.7h66l110.3-110.3L469.1,141l-69,69.1L330.9,141l-76.4,76.4l110.3,110.3H369.2z"/>
</svg>
