<?xml version="1.0" encoding="utf-8"?>
<!-- Generator: Adobe Illustrator 28.2.0, SVG Export Plug-In . SVG Version: 6.00 Build 0)  -->
<svg version="1.2" baseProfile="tiny-ps" id="Layer_1" xmlns="http://www.w3.org/2000/svg" xmlns:xlink="http://www.w3.org/1999/xlink"
	  viewBox="0 0 302 302" xml:space="preserve">
<title>Veremark</title>
<path d="M150.9,21.6c29.4,0,56.5,9.8,78.2,26.3l15.4-15.4C218.7,12.1,186.2,0,150.9,0C67.6,0,0,67.6,0,150.9
	c0,35.3,12.1,67.8,32.5,93.5l15.4-15.4c-16.5-21.7-26.3-48.8-26.3-78.2C21.6,79.5,79.5,21.6,150.9,21.6z M269.5,57.6L254.2,73
	c16.4,21.7,26.1,48.7,26.1,77.9c0,71.4-57.9,129.4-129.4,129.4c-29.3,0-56.3-9.7-77.9-26.1l-15.4,15.4
	c25.7,20.2,58.1,32.3,93.3,32.3c83.3,0,150.9-67.6,150.9-150.9C301.8,115.7,289.8,83.3,269.5,57.6z"/>
<path d="M85,129.1l16.3-14.5l49.6,55.6l51-55.8l16.1,14.8l-67.3,73.6L85,129.1z"/>
</svg>
