<?xml version="1.0" encoding="utf-8"?>
<!-- Generator: Adobe Illustrator 26.2.1, SVG Export Plug-In . SVG Version: 6.00 Build 0)  -->
<svg version="1.2" baseProfile="tiny-ps" id="Livello_1"
	 xmlns="http://www.w3.org/2000/svg" xmlns:xlink="http://www.w3.org/1999/xlink" viewBox="0 0 283.46 283.46"
	 xml:space="preserve">
	 <title>GIGLIO.COM</title>
<g>
	<g>
		<path d="M120.93,184.09h48.48c0.39-26.05,15.51-48.49,37.41-59.43v-56.6C153.34,83.17,120.93,125.38,120.93,184.09z"/>
		<path d="M136.9,106.43c-15.5-19.37-34.58-31.12-60.26-38.37v56.6c20.16,10.08,34.55,29.9,37.01,53.31
			C115.15,150.21,122.28,126.77,136.9,106.43z"/>
		<path d="M141.43,100.9c8.15-9.3,16.64-16.3,27.1-23.16l-27.17-23.97l-26.04,23.97C125.86,84.63,133.59,91.28,141.43,100.9z"/>
	</g>
	<g>
		<path d="M48.03,212.83c0,1.92-0.17,3.77-0.51,5.55c-0.34,1.78-1.13,3.45-2.37,5c-1.27,1.58-2.84,2.86-4.72,3.83
			c-1.87,0.98-3.82,1.53-5.83,1.65c-0.15,0.03-0.32,0.04-0.49,0.04c-0.17,0-0.33,0-0.49,0c-4.59,0-8.43-1.56-11.52-4.69
			c-3.1-3.13-4.64-7.03-4.64-11.71c0-4.24,1.61-7.9,4.83-10.99c3.22-3.08,7.06-4.62,11.52-4.62c2.69,0,5.09,0.62,7.2,1.86
			c2.11,1.24,4,2.86,5.67,4.88l-2.55,2.32c-1.24-1.67-2.73-3.06-4.46-4.16c-1.74-1.1-3.69-1.65-5.85-1.65
			c-3.47,0-6.48,1.22-9.04,3.67c-2.56,2.45-3.83,5.36-3.83,8.74c0,3.72,1.21,6.83,3.63,9.36c2.42,2.52,5.4,3.79,8.97,3.79
			c0.19,0,0.37-0.01,0.56-0.02c0.19-0.01,0.37-0.02,0.56-0.02c1.67-0.22,3.28-0.79,4.83-1.72c1.55-0.93,2.74-2.09,3.58-3.48
			c0.12-0.25,0.24-0.47,0.35-0.67c0.11-0.2,0.21-0.4,0.3-0.58c0.18-0.43,0.32-0.88,0.39-1.35c0.08-0.46,0.15-1.05,0.21-1.76h-9.2
			v-3.25H48.03z"/>
		<path d="M56.67,228.39h-3.48V197.4h3.48V228.39z"/>
		<path d="M92.44,212.83c0,1.92-0.17,3.77-0.51,5.55c-0.34,1.78-1.13,3.45-2.37,5c-1.27,1.58-2.84,2.86-4.71,3.83
			c-1.87,0.98-3.82,1.53-5.83,1.65c-0.15,0.03-0.32,0.04-0.49,0.04c-0.17,0-0.33,0-0.49,0c-4.58,0-8.42-1.56-11.52-4.69
			c-3.1-3.13-4.64-7.03-4.64-11.71c0-4.24,1.61-7.9,4.83-10.99c3.22-3.08,7.06-4.62,11.52-4.62c2.69,0,5.09,0.62,7.2,1.86
			c2.1,1.24,3.99,2.86,5.67,4.88l-2.56,2.32c-1.24-1.67-2.73-3.06-4.46-4.16c-1.74-1.1-3.69-1.65-5.85-1.65
			c-3.47,0-6.48,1.22-9.04,3.67c-2.56,2.45-3.83,5.36-3.83,8.74c0,3.72,1.21,6.83,3.62,9.36c2.42,2.52,5.4,3.79,8.97,3.79
			c0.18,0,0.37-0.01,0.56-0.02c0.19-0.01,0.37-0.02,0.56-0.02c1.68-0.22,3.28-0.79,4.83-1.72c1.55-0.93,2.74-2.09,3.58-3.48
			c0.12-0.25,0.24-0.47,0.34-0.67c0.11-0.2,0.21-0.4,0.3-0.58c0.19-0.43,0.32-0.88,0.4-1.35c0.08-0.46,0.15-1.05,0.21-1.76h-9.2
			v-3.25H92.44z"/>
		<path d="M101.13,225.19h8.5v3.21H97.64V197.4h3.48V225.19z"/>
		<path d="M116.55,228.39h-3.48V197.4h3.48V228.39z"/>
		<path d="M126.52,201.61c3.17-3.14,6.98-4.72,11.41-4.72c4.4,0,8.18,1.57,11.33,4.72c3.16,3.14,4.74,6.91,4.74,11.31
			c0,4.4-1.58,8.16-4.74,11.29c-3.16,3.13-6.94,4.69-11.33,4.69c-4.46,0-8.27-1.55-11.43-4.67c-3.16-3.11-4.74-6.87-4.74-11.27
			C121.75,208.54,123.34,204.75,126.52,201.61z M128.95,221.96c2.48,2.49,5.45,3.74,8.92,3.74c3.5,0,6.48-1.25,8.94-3.74
			c2.46-2.49,3.7-5.49,3.7-8.99c0-3.56-1.24-6.59-3.7-9.08c-2.46-2.49-5.44-3.74-8.94-3.74c-3.5,0-6.48,1.25-8.94,3.74
			c-2.46,2.49-3.69,5.52-3.69,9.08C125.24,216.47,126.48,219.46,128.95,221.96z"/>
		<path d="M192.23,204.23c-1.33-1.24-2.77-2.23-4.32-2.98c-1.55-0.74-3.25-1.11-5.11-1.11c-3.38,0-6.29,1.26-8.76,3.79
			c-2.46,2.52-3.69,5.52-3.69,8.99c0,3.56,1.24,6.58,3.71,9.06c2.48,2.48,5.5,3.72,9.06,3.72c1.76,0,3.4-0.4,4.9-1.18
			c1.5-0.79,2.9-1.74,4.2-2.86v4.28c-0.31,0.21-0.61,0.41-0.91,0.58c-0.3,0.17-0.6,0.35-0.91,0.53c-1.21,0.65-2.42,1.12-3.63,1.42
			c-1.21,0.29-2.48,0.44-3.81,0.44c-4.49,0-8.3-1.56-11.43-4.69c-3.13-3.13-4.7-6.94-4.7-11.43c0-4.3,1.6-8.03,4.79-11.17
			c3.19-3.14,6.98-4.72,11.38-4.72c1.05,0,2.03,0.08,2.95,0.26c0.91,0.17,1.81,0.44,2.72,0.81c0.56,0.22,1.13,0.5,1.72,0.84
			c0.59,0.34,1.19,0.73,1.81,1.16V204.23z"/>
		<path d="M200.48,201.61c3.17-3.14,6.98-4.72,11.41-4.72c4.4,0,8.17,1.57,11.34,4.72c3.16,3.14,4.74,6.91,4.74,11.31
			c0,4.4-1.58,8.16-4.74,11.29c-3.16,3.13-6.94,4.69-11.34,4.69c-4.46,0-8.27-1.55-11.43-4.67c-3.16-3.11-4.74-6.87-4.74-11.27
			C195.71,208.54,197.3,204.75,200.48,201.61z M202.92,221.96c2.48,2.49,5.45,3.74,8.92,3.74c3.5,0,6.48-1.25,8.94-3.74
			c2.46-2.49,3.69-5.49,3.69-8.99c0-3.56-1.23-6.59-3.69-9.08c-2.46-2.49-5.44-3.74-8.94-3.74c-3.5,0-6.48,1.25-8.95,3.74
			c-2.46,2.49-3.69,5.52-3.69,9.08C199.2,216.47,200.44,219.46,202.92,221.96z"/>
		<path d="M237.16,195.69l11.89,26.16l12.17-26.16l4.78,32.71h-3.53l-2.88-21.51l-10.55,22.81l-10.41-22.86l-3.07,21.56h-3.53
			L237.16,195.69z"/>
		<path d="M162.98,226.51c0,1.41-1.14,2.56-2.56,2.56c-1.41,0-2.56-1.14-2.56-2.56c0-1.41,1.14-2.56,2.56-2.56
			C161.84,223.95,162.98,225.09,162.98,226.51z"/>
	</g>
</g>
</svg>
