<?xml version="1.0" encoding="utf-8"?>
<!-- Generator: Adobe Illustrator 28.0.0, SVG Export Plug-In . SVG Version: 6.00 Build 0)  -->
<svg version="1.2" baseProfile="tiny-ps" id="Layer_1" xmlns="http://www.w3.org/2000/svg" xmlns:xlink="http://www.w3.org/1999/xlink"
	  viewBox="0 0 1080 1080"  xml:space="preserve">
<title>Title Here</title>
<g id="Shield_00000121978946775292259580000009626949321047649169_">
	<g>
		<polygon fill="none" points="691.8,852 690.7,816.9 671.5,845.7 638.3,835.9 659.9,863.6 640.8,892.9 673.4,881 694.2,908 
			693,873.9 725.5,862 		"/>
		<polygon fill="none" points="557.6,466.4 532.8,466.4 524.4,486 566,486 		"/>
		<polygon fill="none" points="884.7,676.4 852.4,690.4 829,664.2 832.8,698.7 801.2,712.5 835.5,719.8 839.6,754.6 857,724.4 
			890.2,731.8 867.4,706.5 		"/>
		<polygon fill="none" points="261.5,666.8 238.1,692.9 205.9,679.1 223.2,709.2 200.3,734.3 233.6,727.2 251,757.3 255.1,722.2 
			289.4,715.1 257.7,701.2 		"/>
		<polygon fill="none" points="853.6,513 884.5,496.6 910,520.5 904,486.2 934.2,470.5 900.4,465.8 894.4,431.7 878.6,463.1 
			843.9,458.1 868.9,482 		"/>
		<path fill="none" d="M558,428.2c0-7.2-5.9-13.2-13.2-13.2s-13.2,5.9-13.2,13.2v24.2H558V428.2L558,428.2z"/>
		<polygon fill="none" points="213.7,484 238.8,460 204.1,465 188.2,433.7 182.2,468 148.5,472.5 178.6,488.4 172.6,522.6 
			198.2,498.4 229.1,515 		"/>
		<path fill="none" d="M914.8,856.2c0-13.9-10.2-25-23.9-25h-0.2c-13.5,0-23.9,11.2-23.9,24.9c0,13.9,10.4,24.9,24.3,24.9
			C904.5,881.1,914.8,869.9,914.8,856.2z M885.9,859.8v12.3h-7.2V841c2.8-0.4,6.8-1,12-1c5.9,0,8.5,1,10.6,2.5
			c1.9,1.3,3.2,3.6,3.2,6.6c0,3.8-2.8,6.3-6.5,7.4v0.4c3,1,4.5,3.4,5.5,7.6c1,4.7,1.7,6.5,2.3,7.6h-7.6c-1-1.1-1.5-3.8-2.5-7.6
			c-0.6-3.2-2.5-4.8-6.5-4.8L885.9,859.8L885.9,859.8z"/>
		<polygon fill="none" points="757.1,289.4 765.3,323 778.4,290.5 813.3,292.4 786.7,270.1 799.7,238.6 770.8,256.7 744.3,234.4 
			752.4,268.7 722.5,287.2 		"/>
		<path fill="none" d="M896.8,850.2c0-2.8-2.1-4.7-6.6-4.7c-1.9,0-3.2,0.2-4,0.4v8.9h3.4C893.5,854.7,896.8,853.4,896.8,850.2z"/>
		<polygon fill="none" points="303.2,291.3 316.2,323.9 324.4,290.2 359,288 329.2,269.5 337.1,235.4 310.5,257.7 281.8,239.5 
			294.6,271.1 268.1,293.4 		"/>
		<polygon fill="none" points="512.1,229.8 540,209.2 567.9,229.8 557,196.4 585,175.4 550.2,175.4 540,143 529.5,175.4 
			494.9,175.4 523.1,196.4 		"/>
		<polygon fill="none" points="421.9,846.6 402.7,817.8 401.5,852.8 368,863 400.6,874.8 399.2,908.9 420.1,882 452.7,893.8 
			433.4,864.4 455.1,836.9 		"/>
		<path fill="none" d="M568.3,501.6l-0.3,0.5c10,26.1,16.4,68.4,16.4,116.3v4.3h47.4c0.2-2.6,0.5-3.4,0.5-6.1
			C632.4,561.7,605.2,515.4,568.3,501.6z M608,583.5c5.9,0,10.7,7,10.7,15.6s-4.8,15.6-10.7,15.6c-6,0-10.7-7-10.7-15.6
			C597.2,590.5,602,583.5,608,583.5z"/>
		<path fill="none" d="M457.4,692.4h174.4v-57.5H457.4V692.4z M580.3,653.3h31.2v20.8h-31.2V653.3z M529.4,653.3h31.2v20.8h-31.2
			V653.3z M478.6,653.3h31.2v20.8h-31.2V653.3z"/>
		<path fill="none" d="M545,251.3c-158.2,0-286.6,128.3-286.6,286.6S386.7,824.5,545,824.5s286.6-128.3,286.6-286.6
			C831.5,379.6,703.2,251.3,545,251.3z M636.9,762.5H455.4L280.6,450.3h164.1c31.9,0,48.8-23,47.9-49.5c-0.2-4.7-4.8-7.7-9.5-7.7
			h-12.8c-13.9,0-18.8,8.6-18.8,8.6l1.7-26.5c1.4-21.7,27.4-19.7,27.4-19.7h18.8v-7.7c0-11.8,12.4-17.2,26-15.2
			c12.5,1.9,27.4-2.9,36.4-4.7l-0.2,1.1l-8.2,12.9c10.4-0.2,21.7,0.6,28.1,1.4c7.5,0.9,10.6,4.8,13.6,11.8c0.2,0.9,0.8,1,0.9,2
			c1.9,12.5,5.5,24,8.5,39.4c4.3,21.4,23.8,54,54,53.9l149.1-0.1L636.9,762.5z"/>
		<path fill="none" d="M545.4,497.4c-3.9,0-7.7,0.4-11.5,1.1c-10.1,19.9-17.2,66-17.2,119.9c0,1.4,0,2.9,0,4.3h56.1
			c0-2.2,0.2-2.1,0.2-4.3c0-53.4-6.9-99.3-16.8-119.6l-0.5-0.5C552.3,497.7,548.8,497.4,545.4,497.4z M544.9,614.8
			c-6,0-10.7-7-10.7-15.6s4.8-15.6,10.7-15.6s10.8,7,10.8,15.6S550.8,614.8,544.9,614.8z"/>
		<path fill="none" d="M505.1,622.7c0-1.9,0-2.3,0-4.3c0-47.4,6.4-89.4,16.2-115.6l-0.8-0.4c-35.9,14.7-62.1,60.2-62.1,114.2
			c0,2.9,0.1,3.2,0.2,6.1H505.1z M481.2,583.5c5.9,0,10.7,7,10.7,15.6s-4.8,15.6-10.7,15.6c-6,0-10.7-7-10.7-15.6
			S475.2,583.5,481.2,583.5z"/>
		<path fill="#1C75BC" d="M541.7,134.6c-223,0-403.7,180.8-403.7,403.9s180.7,403.8,403.7,403.8s403.7-180.7,403.7-403.8
			S764.7,134.6,541.7,134.6z M744.3,234.4l26.5,22.3l28.9-18.1l-13,31.5l26.6,22.4l-34.9-1.9L765.3,323l-8.2-33.6l-34.6-2.2
			l29.8-18.5L744.3,234.4z M529.5,175.4L540,143l10.2,32.5H585l-28,21l10.9,33.3L540,209.2l-27.9,20.5l11-33.3l-28.2-21H529.5z
			 M281.8,239.5l28.7,18.2l26.6-22.3l-8,34.1L359,288l-34.6,2.2l-8.1,33.6l-13-32.6l-35.1,2.1l26.5-22.3L281.8,239.5z M172.6,522.6
			l6-34.1l-30.1-16l33.8-4.5l6-34.3l15.8,31.3l34.7-5l-25.1,24l15.3,31l-30.9-16.6L172.6,522.6z M255.1,722.2l-4.1,35l-17.3-30
			l-33.4,7.1l23-25.1l-17.4-30.1l32.2,13.8l23.4-26.1l-3.8,34.4l31.7,13.9L255.1,722.2z M452.7,893.8L420.1,882l-21,26.9l1.5-34.1
			L368,863l33.5-10.2l1.2-35l19.2,28.8l33.2-9.7l-21.7,27.5L452.7,893.8z M694.2,908l-20.8-27l-32.7,11.9l19.1-29.3l-21.6-27.7
			l33.2,9.8l19.2-28.8l1.1,35l33.7,10.1l-32.5,11.9L694.2,908z M857,724.4l-17.4,30.2l-4.2-34.8l-34.3-7.3l31.7-13.9l-3.8-34.4
			l23.3,26.2l32.3-14l-17.3,30l22.8,25.3L857,724.4z M878.6,463.1l15.8-31.5l6,34.1l33.8,4.7L904,486.2l6,34.3l-25.6-23.9L853.5,513
			l15.3-31l-25-23.9L878.6,463.1z M545,824.5c-158.2,0-286.6-128.3-286.6-286.6S386.7,251.3,545,251.3s286.6,128.3,286.6,286.6
			C831.5,696.2,703.2,824.5,545,824.5z"/>
		<path fill="#1C75BC" d="M604.8,396.5c-3.1-15.4-6.6-26.9-8.5-39.4c-0.2-1-0.7-1.1-0.9-2c-3-7-6.2-10.9-13.6-11.8
			c-6.4-0.8-17.7-1.6-28.1-1.4l8.2-12.9l0.2-1.1c-9,1.8-23.9,6.6-36.4,4.7c-13.7-2.1-26,3.4-26,15.2v7.7h-18.8c0,0-26-2-27.4,19.7
			l-1.7,26.5c0,0,5-8.6,18.8-8.6h12.8c4.7,0,9.3,3,9.5,7.7c0.8,26.5-16.1,49.5-47.9,49.5H280.6l174.8,312.2h181.5l170.9-312.2
			l-149.1,0.1C628.5,450.5,609.1,417.9,604.8,396.5z M531.6,428.2c0-7.2,5.9-13.2,13.2-13.2s13.2,5.9,13.2,13.2v24.2h-26.4V428.2
			L531.6,428.2z M532.8,466.4h24.7L566,486h-41.7L532.8,466.4z M573,618.4c0,2.2-0.2,2.1-0.2,4.3h-56.1c0-1.4,0-2.9,0-4.3
			c0-53.9,7.1-100,17.2-119.9c3.8-0.7,7.6-1.1,11.5-1.1c3.5,0,6.9,0.3,10.3,0.9l0.5,0.5C566,519,573,565,573,618.4z M520.5,502.4
			l0.8,0.4c-9.8,26.1-16.2,68.2-16.2,115.6c0,2,0,2.4,0,4.3h-46.5c-0.1-2.9-0.2-3.2-0.2-6.1C458.4,562.6,484.6,517,520.5,502.4z
			 M631.9,692.4H457.4v-57.5h174.4L631.9,692.4L631.9,692.4z M631.9,622.7h-47.4v-4.3c0-47.8-6.5-90.2-16.4-116.3l0.3-0.5
			c36.9,13.8,64.1,60.1,64.1,115C632.4,619.3,632,620.1,631.9,622.7z"/>
		<path fill="#1C75BC" d="M481.2,614.8c5.9,0,10.7-7,10.7-15.6s-4.8-15.6-10.7-15.6c-6,0-10.7,7-10.7,15.6S475.2,614.8,481.2,614.8z
			"/>
		<rect x="580.3" y="653.3" fill="#1C75BC" width="31.2" height="20.8"/>
		<path fill="#1C75BC" d="M544.9,583.5c-6,0-10.7,7-10.7,15.6s4.8,15.6,10.7,15.6s10.8-7,10.8-15.6S550.8,583.5,544.9,583.5z"/>
		<rect x="529.4" y="653.3" fill="#1C75BC" width="31.2" height="20.8"/>
		<path fill="#1C75BC" d="M608,614.8c5.9,0,10.7-7,10.7-15.6s-4.8-15.6-10.7-15.6c-6,0-10.7,7-10.7,15.6
			C597.2,607.8,602,614.8,608,614.8z"/>
		<rect x="478.6" y="653.3" fill="#1C75BC" width="31.2" height="20.8"/>
		<path fill="#1C75BC" d="M895.8,864.6c1,3.8,1.5,6.5,2.5,7.6h7.6c-0.6-1.1-1.3-2.8-2.3-7.6c-1-4.2-2.5-6.6-5.5-7.6v-0.4
			c3.6-1.1,6.5-3.6,6.5-7.4c0-3-1.3-5.3-3.2-6.6c-2.1-1.5-4.8-2.5-10.6-2.5c-5.1,0-9.1,0.6-12,1v31.1h7.2v-12.3h3.4
			C893.3,859.8,895.2,861.3,895.8,864.6z M886.1,854.7v-8.9c0.8-0.2,2.1-0.4,4-0.4c4.6,0,6.6,1.9,6.6,4.7c0,3.2-3.2,4.6-7.2,4.6
			L886.1,854.7L886.1,854.7z"/>
		<path fill="#1C75BC" d="M922.8,856c0-17.5-14-31.1-31.7-31.1h-0.2c-17.8,0-32.1,13.7-32.1,31.1c0,17.5,14.2,31.3,32.1,31.3
			C908.7,887.3,922.8,873.5,922.8,856z M866.8,856c0-13.7,10.4-24.9,23.9-24.9h0.2c13.7,0,23.9,11.2,23.9,25
			c0,13.7-10.2,24.9-23.7,24.7C877.2,880.9,866.8,869.9,866.8,856z"/>
	</g>
</g>
</svg>
