<?xml version="1.0" encoding="utf-8"?>
<!-- Generator: Adobe Illustrator 24.2.1, SVG Export Plug-In . SVG Version: 6.00 Build 0)  -->
<svg version="1.2" baseProfile="tiny-ps" id="Layer_1" xmlns="http://www.w3.org/2000/svg" xmlns:xlink="http://www.w3.org/1999/xlink"
	 viewBox="0 0 403 403" xml:space="preserve">
<title>Netflix</title>
<rect fill="#221F1F" width="403" height="403"/>
<path fill-rule="evenodd" fill="#7C020D" d="M224.8,65v55.9v72.5v13.6c1.7,4.6,8.7,24.3,10.5,29.2l0,0c3.4,9.4,22.4,62.7,24,67l0,0
	c1.4,3.8,5.2,14.5,6.4,17.9l0,0c0.7,2,2.6,7.1,3.5,9.9l0,0c0.8,2.1,0.7,2,1.2,3.3l0,0c0.7,0.3,7.2,2.9,8.2,3.3l0,0
	c0,0,0.1,0,0.1,0.1l0,0c0.1,0,0.1,0,0.1,0l0,0c0.1,0,0.1,0.1,0.2,0.1l0,0c0-2,0-5,0-8.3l0,0V65H224.8z"/>
<path fill-rule="evenodd" fill="#7C020D" d="M124,83.9v19v71.2v163.6c21.5-2.6,32.3-3.5,54.2-4.5v-51.3v-72.5v-13.6
	c-1.7-4.6-43.4-121.3-44.4-124c-0.8-2.1-0.7-2-1.2-3.3c-0.7-0.3-7.2-2.9-8.2-3.3c-0.3-0.1-0.2-0.1-0.3-0.1c-0.1,0-0.2-0.1-0.2-0.1
	c0,2,0,5,0,8.3V83.9z"/>
<path fill-rule="evenodd" fill="#E50914" d="M179.3,65H124l98,268.1c27.5,0.7,57,4.5,57,4.5L179.3,65z"/>
</svg>
