<?xml version="1.0" encoding="UTF-8" standalone="yes"?>
<svg baseProfile="tiny-ps" version="1.2" viewBox="0 0 1500 1500" xmlns="http://www.w3.org/2000/svg">
  <title>bimi-svg-tiny-12-ps</title>
  <g>
    <g id="Layer_1">
      <g>
        <path d="M1084.24,506.04s-84.22-111.76-197.51-150.02c-284.78-125.57-659.89,215.87-462.39,589.43,274.06,341.43,583.35,67.41,603.23,49.02,19.89-18.38,64.31-70.41,64.31-70.41v-90.34h-13.77c12.23,12.22-159.23,298.54-442.47,203.6-266.42-122.49-228.14-575.66,52.05-641.5,280.19-65.85,401.14,200.57,401.14,200.57h9.18v-85.74l-13.76-4.6Z" fill="#1d1160"/>
        <path d="M1303.95,749.5c0,305.68-247.8,553.5-553.48,553.5S196.97,1055.18,196.97,749.5,444.78,196,750.47,196s553.48,247.82,553.48,553.5ZM751,243.38c-280.56,0-508,227.45-508,508.01s227.44,508,508,508,507.99-227.45,507.99-508-227.43-508.01-507.99-508.01Z" fill="#1d1160"/>
        <path d="M440.42,366.72h62.01l128.6,590.24,119.42-693.58,112.54,702.77,128.62-597.14h73.49l-2.31,16.08s-20.67,0-27.57,32.15c-6.88,32.16-172.25,792.34-172.25,792.34l-114.84-631.57-110.23,633.87-174.53-801.54s2.29-20.65-27.57-22.95l4.61-20.67Z" fill="#1d1160"/>
      </g>
    </g>
  </g>
</svg>