<svg xmlns="http://www.w3.org/2000/svg" xmlns:xlink="http://www.w3.org/1999/xlink" version="1.2"
        viewBox="0 0 1200 1200" baseProfile="tiny-ps">
        <title>Pro Web Ventures</title>
		<rect width="100%" height="100%" fill="white"/>
        <path
            d="M159.26,758.81c-10.06,0-20.12,0.1-30.19,0.1v64h12.09v-18.84h18.1C190.61,804.07,190.51,758.81,159.26,758.81z   M159.26,793.02h-18.1v-22.68h18.1C174.62,770.34,174.69,793.02,159.26,793.02z" />
        <path
            d="M282.64,757.64c-22.1,0-32.9,16.9-32.9,33.73c0,16.83,10.42,33,32.9,33s32.64-16.55,32.82-33.1  C315.66,774.54,304.69,757.64,282.64,757.64z M282.64,813.3c-15.08,0-20.73-11.23-21-21.75c-0.28-10.8,5.93-23,21-23  s21.13,12.09,21,22.86C303.39,801.97,297.74,813.3,282.64,813.3L282.64,813.3z" />
        <path
            d="M421.42,758.91l-14.65,46.17l-16-46.17h-7.86l-15.53,46.17l-15.11-46.17h-13.5l23.5,64h10.24l7.75-19.92l6.69-20.4  l6.77,20.22l7.93,20.1h10.24l23-64H421.42z" />
        <path
            d="M543.08,789.8c5.93-2.63,8.31-7.4,8.31-12.34c0-12.88-9.43-18.55-22.05-18.55H499v64h30.34c13.25,0,24-4.56,24-18.83  C553.32,800.04,550.55,792.08,543.08,789.8z M510.89,769.88h18.45c7.68,0,10.06,4.94,10.06,7.86c0,3.65-2.46,6.87-10.06,6.87h-18.45  L510.89,769.88z M529.34,811.65h-18.45V795.2h18.45c4.94,0,12,3,12,8.77C541.33,810.03,534.28,811.65,529.34,811.65z" />
        <path d="M628.08,758.91l-19.39,49.82l-19.28-49.82h-13.54l26.61,64.27H615l26.62-64.27H628.08z" />
        <polygon
            points="660.8,796.57 692.91,796.57 692.91,785.34 660.8,785.34 660.8,785.29 648.81,785.29 648.81,822.9 694.18,822.9   694.18,811.02 660.8,811.02 " />
            <linearGradient id="SVGID_1_" gradientUnits="userSpaceOnUse" x1="648.81" y1="438.035" x2="694.18" y2="438.035">
                <stop offset="0" stop-color="#6706BA"/>
                <stop offset="0.07" stop-color="#740AB5"/>
                <stop offset="0.19" stop-color="#9614A8"/>
                <stop offset="0.35" stop-color="#CC2394"/>
                <stop offset="0.39" stop-color="#DC288E"/>
                <stop offset="0.72" stop-color="#FF793E"/>
                <stop offset="1" stop-color="#FFBB00"/>
        </linearGradient>
        <rect x="648.81" y="758.91" width="45.37" height="11.71" fill="url(#SVGID_1_)" />
        <path d="M750,758.81v39.79l-31.35-39.69h-9.78v64h12.06v-43.14L754.57,823v-0.1h7.5v-64.09H750z" />
        <path d="M769.38,758.91v11h20.3v53h12.06v-53H822v-11H769.38z" />
        <path
            d="M875.42,759.01v36.65c0,11-5.68,17.64-15.64,17.64s-16.55-6.11-16.55-17.64v-36.65h-12v36.65  c0,19.28,13.05,28.61,28.41,28.61c16.09,0,27.7-9.68,27.7-28.61v-36.65H875.42z" />
        <path
            d="M936.57,800.24c12.14-2.48,16.17-11.35,16.17-20.12c0-11.05-8-21.11-23-21.21c-10.14,0-20.3-0.1-30.44-0.1v11.35h30.44  c7.6,0,11,5.12,11,10.24s-3.29,10.24-11,10.24h-18.41l0,0h-12.06v32.26h12.06v-21.39h11.61l18.65,21.39h14.35v-0.81L936.57,800.24z" />
        <path
            d="M1045.15,783.77c-7.68-0.91-14.27-2.46-14.27-8c0-4.77,4.31-8.52,13.26-8.52c7,0,13,3.47,15.18,7.15l9.6-5  c-4.84-9.88-15.18-12.72-25.14-12.72C1032,756.8,1019,762.2,1019,775.4c0,14.37,12.09,17.84,25.15,19.38  c8.51,0.92,14.82,3.4,14.82,9.43c0,7-7.14,9.58-14.72,9.58c-7.78,0-15.18-3.09-18-10.14l-10,5.23c4.74,11.68,14.8,15.71,27.88,15.71  c14.27,0,26.87-6.13,26.87-20.38C1070.93,788.89,1058.51,785.4,1045.15,783.77z" />
        <polygon
            points="976.44,796.57 1008.55,796.57 1008.55,785.34 976.44,785.34 976.44,785.29 964.45,785.29 964.45,822.9   1009.82,822.9 1009.82,811.02 976.44,811.02 " />
        <linearGradient id="SVGID_00000048470300383990668650000011575932261042240655_" gradientUnits="userSpaceOnUse"
            x1="964.45" y1="438.035" x2="1009.82" y2="438.035">
            <stop offset="0" stop-color="#6706BA" />
            <stop offset="0.07" stop-color="#740AB5" />
            <stop offset="0.19" stop-color="#9614A8" />
            <stop offset="0.35" stop-color="#CC2394" />
            <stop offset="0.39" stop-color="#DC288E" />
            <stop offset="0.72" stop-color="#FF793E" />
            <stop offset="1" stop-color="#FFBB00" />
        </linearGradient>
        <rect x="964.45" y="758.91" width="45.37" height="11.71"
            fill="url(#SVGID_00000048470300383990668650000011575932261042240655_)" />
        <polygon
            points="454.14,796.57 486.25,796.57 486.25,785.34 454.14,785.34 454.14,785.29 442.15,785.29 442.15,822.9 487.52,822.9   487.52,811.02 454.14,811.02 " />
        <linearGradient id="SVGID_00000031209451127194776810000005374565726232914817_" gradientUnits="userSpaceOnUse"
            x1="442.15" y1="438.035" x2="487.52" y2="438.035">
            <stop offset="0%" stop-color="#820daf" stop-opacity="1" />
            <stop offset="30%" stop-color="#C82D95" stop-opacity="1" />
            <stop offset="70%" stop-color="#F97732" stop-opacity="1" />
            <stop offset="100%" stop-color="#FFBB00" stop-opacity="1" />
        </linearGradient>
        <rect x="442.15" y="758.91" width="45.37" height="11.71"
            fill="url(#SVGID_00000031209451127194776810000005374565726232914817_)" />
        <path
            d="M228.27,800.24c12.14-2.48,16.17-11.35,16.17-20.12c0-11.05-8-21.11-23-21.21c-10.13,0-20.3-0.1-30.43-0.1v11.35h30.39  c7.61,0,11,5.12,11,10.24s-3.3,10.24-11,10.24H203l0,0h-12v32.26h12v-21.39h11.61l18.65,21.39h14.35v-0.81L228.27,800.24z" />
        <linearGradient id="SVGID_00000072959285735372470920000014196220739743869846_" gradientUnits="userSpaceOnUse"
            x1="300" y1="500" x2="500" y2="240">
            <stop offset="0.1" stop-color="#820daf" stop-opacity="1" />
            <stop offset="0.3" stop-color="#C82D95" stop-opacity="1" />
            <stop offset="0.6" stop-color="#F97732" stop-opacity="1" />
            <stop offset="0.8" stop-color="#FFBB00" stop-opacity="1" />
        </linearGradient>
        <path
            d="M737.37,490.71  c0.013,30.583-12.145,59.914-33.79,81.52c-1,1-2,1.94-3,2.91c-18.809,17.525-42.962,28.221-68.58,30.37l-49.12,86.66h-48.62  l0.47-0.84l13.34-23.49l0,0l24.37-42.95l0,0l9.38-16.52l13.3-23.44l-54.73-96.54l23.9-43.51l67.07,118.34  c16.042-2.036,30.948-9.363,42.36-20.82c2.16-2.214,4.19-4.552,6.08-7c9.971-12.775,15.369-28.525,15.33-44.73  c0-40.317-32.683-73-73-73h-57.8l-0.76,1.39l-6.84,12.38l0,0l-23.86,43.5l-0.09-0.13L511,514.45l54.1,97.1l-24.37,43l-78.05-140  l76.73-139.1h82.7c30.562-0.023,59.877,12.121,81.47,33.75c10.499,10.533,18.886,22.976,24.71,36.66  C734.288,460.052,737.376,475.303,737.37,490.71z"
            fill="url(#SVGID_00000072959285735372470920000014196220739743869846_)" />
        <linearGradient id="SVGID_00000158711012123725313900000006157738837797223085_" gradientUnits="userSpaceOnUse"
            x1="679.0964" y1="636.817" x2="618.8064" y2="623.9969">
            <stop offset="0" stop-opacity="0" stop-color="#F46255" />
            <stop offset="0.66" stop-opacity="0.47" stop-color="#81382D" />
            <stop offset="1" stop-color="#000A01" />
        </linearGradient>
        <path
            d="M632,605.51l11.74-20.61l-12.33-21.76  c16.015-2.025,30.9-9.322,42.31-20.74c2.16-2.214,4.19-4.552,6.08-7l20.78,39.7C681.777,592.64,657.623,603.35,632,605.51z"
            fill="url(#SVGID_00000158711012123725313900000006157738837797223085_)" />
        <linearGradient xmlns="http://www.w3.org/2000/svg" id="SVGID_00000181058642822375296680000015279998847631917223_" gradientUnits="userSpaceOnUse" x1="712" y1="595" x2="550" y2="0">
			<stop offset="0" stop-color="#ba1e9a" stop-opacity="0"/>
            <stop offset="0.15" stop-color="#000" stop-opacity="0.05"/>
            <stop offset="0.2" stop-color="#000" stop-opacity="0.5"/>
            <stop offset="0.5" stop-color="#000" stop-opacity="0"/>
        </linearGradient>
        <polygon points=" 539.73,566.09 518.64,615.02 486.88,558.06 510.95,514.45   " 
            fill="url(#SVGID_00000181058642822375296680000015279998847631917223_)" />
    </svg>
