<svg version="1.2" baseProfile="tiny-ps" viewBox="0 0 128 128" fill="none" xmlns="http://www.w3.org/2000/svg">
  <title>Brex</title>
  <path fill="#000" d="M0 0h128v128H0z"/>
  <path d="M77.001 35.388C73.728 39.671 73.161 41 70 41H23v54h18c4.177 0 8.343-1.918 10.94-5.212C55.326 85.396 55.955 84 59.228 84H106V30H88c-4.177 0-8.515 2.094-10.999 5.388ZM91 70H71.5c-4.29 0-7.82 1.67-10.416 5.075-3.387 4.392-4.423 5.866-7.584 5.866H38V55h18.5c4.29 0 8.648-1.604 11.244-4.898C71.131 45.82 71.952 44 75 44h16v26Z" fill="#F2E8E8"/>
</svg>
