<?xml version="1.0" encoding="UTF-8" standalone="yes"?>
<svg version="1.2" viewBox="0 0 800 800" baseProfile="tiny-ps" xmlns="http://www.w3.org/2000/svg">
  <title>bimi-svg-tiny-12-ps</title>
  <path d="M403.7,422.291c0,23.004-18.421,37.671-48.97,37.671  c-9.504,0-18.443-1.251-26.61-3.512c-3.304-0.915-8.27-2.87-11.533-4.21c-1.874-0.769-2.807-2.864-2.159-4.783l5.616-16.635  c0.752-2.229,3.294-3.29,5.42-2.28c2.763,1.312,6.314,2.957,8.458,3.788c6.403,2.484,12.623,3.856,21.115,3.856  c14.584,0,20.878-4.632,20.878-11.888c0-6.749-9.643-9.284-21.333-12.357c-17.994-4.73-40.84-10.736-40.84-35.35  c0-19.608,13.663-36.591,47.742-36.591c8.335,0,17.31,0.967,25.476,2.735c2.466,0.534,5.998,1.573,8.67,2.398  c2.079,0.641,3.186,2.882,2.471,4.937l-5.638,16.202c-0.686,1.971-2.801,3.052-4.804,2.467c-3.204-0.937-7.769-2.241-10.253-2.808  c-4.831-1.103-9.349-1.691-15-1.691c-16.58,0-20.878,5.094-20.878,10.653c0,6.631,9.48,9.002,21.037,11.892  C380.603,391.295,403.7,397.071,403.7,422.291z M595.009,388.502c2.151,0,3.894-1.744,3.894-3.895v-10.204  c0-2.151-1.743-3.895-3.894-3.895h-18.962v-10.112c0-1.756-1.176-3.296-2.871-3.757l-17.359-4.732  c-2.477-0.675-4.919,1.19-4.919,3.758v21.895l-0.037,18.009v35.549c0,17.57,9.609,28.845,29.699,28.845  c2.813,0,6.557-0.205,10.275-0.543c2.829-0.258,6.163-0.81,8.807-1.301c2.42-0.45,3.734-3.042,2.735-5.292l-4.437-9.993  c-0.784-1.767-2.743-2.671-4.636-2.279c-0.536,0.111-1.065,0.208-1.525,0.267c-1.224,0.159-2.456,0.253-3.503,0.253  c-8.298,0-12.229-3.221-12.229-10.689v-41.884H595.009z M438.01,458.56c2.151,0,3.895-1.743,3.895-3.894V360.43  c0-1.759-1.179-3.3-2.877-3.759l-17.542-4.747c-2.476-0.67-4.912,1.194-4.912,3.759v98.983c0,2.151,1.743,3.894,3.895,3.894H438.01z   M264.145,458.536c2.151,0,3.895-1.744,3.895-3.895v-38.419c0-15.228,4.804-24.452,18.489-24.452c1.897,0,3.574,0.127,5.147,0.381  c0.423,0.068,0.933,0.18,1.466,0.311c2.08,0.513,4.261-0.579,4.927-2.615l5.247-16.028c0.69-2.107-0.514-4.378-2.685-4.828  c-0.701-0.145-1.401-0.271-2.013-0.348c-1.492-0.188-3.106-0.3-4.81-0.3c-11.938,0-21.837,5.857-27.952,16.985h-0.437l-1.926-11.396  c-0.317-1.874-1.94-3.246-3.84-3.246h-12.759c-2.151,0-3.894,1.744-3.894,3.895v80.06c0,2.151,1.743,3.895,3.894,3.895H264.145z   M227.563,454.789c0,2.069-1.678,3.747-3.748,3.747h-17.982c-2.07,0-3.747-1.678-3.747-3.747v-75.538  c0-1.695,1.137-3.179,2.773-3.619l17.983-4.838c2.381-0.641,4.721,1.153,4.721,3.618V454.789z M227.58,343.755  c0-2.466-2.34-4.26-4.721-3.619l-17.967,4.838c-1.636,0.44-2.773,1.924-2.773,3.618v10.199c0,2.466,2.341,4.26,4.722,3.619  l17.966-4.837c1.636-0.441,2.773-1.925,2.773-3.619V343.755z M657.75,459.983c-34.495-0.822-49.935-17.423-49.935-46.999  c0-26.795,14.413-45.097,44.548-45.097c25.332,0,41.637,14.496,41.637,41.729c0,1.814-0.211,4.732-0.406,7.038  c-0.168,1.992-1.843,3.504-3.842,3.504h-56.023c1.31,13.031,10.045,18.741,27.078,18.741c7.465,0,8.593-0.098,16.456-1.992  c0.613-0.148,1.382-0.426,2.164-0.745c2.125-0.868,4.623,0.037,5.482,2.165l4.576,11.326c0.848,2.099-0.261,4.465-2.438,5.089  C680.346,456.665,666.72,460.197,657.75,459.983z M671.693,404.784h-37.997c1.165-11.42,6.406-16.837,19.363-16.837  C664.414,387.947,671.402,393.364,671.693,404.784z M519.172,458.536c-1.817,0-3.393-1.257-3.797-3.029l-1.347-5.903  C507.04,456.047,497.286,460,485.639,460c-19.071,0-30.864-9.663-30.864-29.283c0-15.813,12.375-27.673,35.814-27.673  c7.716,0,14.412,1.171,19.945,2.635v-4.392c0-8.639-5.241-13.031-19.217-13.031c-7.748,0-11.051,0.648-15.223,2.116  c-0.939,0.33-2.564,0.937-4.074,1.507c-1.982,0.748-4.203-0.213-5.004-2.174l-4.744-11.617c-0.834-2.044,0.194-4.372,2.281-5.09  c1.679-0.578,3.572-1.203,4.918-1.575c8.012-2.211,16.723-3.373,26.359-3.373c29.844,0,39.598,12.885,39.598,36.897v49.694  c0,2.151-1.744,3.895-3.895,3.895H519.172z M510.651,421.346v9.517c0,5.564-8.443,10.396-17.761,10.396  c-8.444,0-14.558-2.929-14.558-10.982c0-7.174,5.241-10.981,17.033-10.981C502.644,419.296,508.031,420.614,510.651,421.346z   M170.397,458.536c-1.818,0-3.393-1.257-3.798-3.029l-1.347-5.903C158.264,456.047,148.51,460,136.864,460  C117.792,460,106,450.337,106,430.717c0-15.813,12.375-27.673,35.813-27.673c7.716,0,14.413,1.171,19.945,2.635v-4.392  c0-8.639-5.241-13.031-19.217-13.031c-6.528,0-9.896,0.46-13.288,1.483c-1.374,0.415-3.877,1.333-5.977,2.125  c-1.99,0.75-4.224-0.209-5.03-2.177l-4.728-11.556c-0.843-2.06,0.207-4.403,2.32-5.102c2.701-0.895,6.239-2.01,8.637-2.559  c6.957-1.59,14.438-2.42,22.579-2.42c29.845,0,39.599,12.885,39.599,36.897v49.694c0,2.151-1.744,3.895-3.895,3.895H170.397z   M161.798,421.346v9.517c0,5.564-8.443,10.396-17.761,10.396c-8.444,0-14.558-2.929-14.558-10.982  c0-7.174,5.241-10.981,17.033-10.981C153.791,419.296,159.178,420.614,161.798,421.346z" fill="#2C435C" fill-rule="evenodd"/>
</svg>