<?xml version="1.0" encoding="UTF-8" standalone="yes"?>
<svg width="114" height="114" viewBox="0 0 114 114" fill="none" version="1.2" baseProfile="tiny-ps" xmlns="http://www.w3.org/2000/svg">
  <title>bimi-svg-tiny-12-ps</title>
  <g id="CTCIntegrations">
    <rect width="114" height="114" fill="#150B43"/>
    <path id="Vector" d="M36.1681 21L31.9163 25.3988L38.4338 31.9162L35.1677 35.1675L31.9163 38.4336L25.3989 31.7691L21 36.1679L27.5174 42.6853L24.2661 45.9366L24.3985 67.6219L35.1677 56.8528L45.9369 45.9366L56.8532 35.1675L45.9369 24.3984L42.6855 27.6645L36.1681 21Z" fill="#B089F4"/>
    <path id="Vector_2" d="M67.623 24.2659V45.9365L56.8538 35.1674L45.9375 24.3983L67.623 24.2659Z" fill="#CBB0F8"/>
    <path id="Vector_3" d="M67.489 89.3072H45.9359L35.0343 78.4057L24.3975 67.6219L35.1667 56.8528L45.9359 67.6219L56.7198 78.4057L67.489 89.3072Z" fill="#9067FF"/>
    <path id="Vector_4" d="M78.3915 56.8529L67.6223 67.622L56.7207 78.4058L67.4899 89.3073L70.7413 86.056L77.6854 92.9999L82.0843 88.6011L75.1402 81.6571L78.3915 78.4058L81.6576 75.1397L88.6017 82.0837L93.0006 77.6849L86.0565 70.7409L89.1755 67.622L89.3079 45.9367L78.3915 56.8529Z" fill="#7C3AED"/>
    <path id="Vector_5" d="M35.1667 56.8528L24.3975 67.6219L38.0061 59.6922L35.1667 56.8528Z" fill="#7456CF"/>
    <path id="Vector_6" d="M56.8547 35.1673L53.8682 38.1244L53.8829 38.1538L56.8547 35.1673Z" fill="#D6CFED"/>
    <path id="Vector_7" d="M45.9365 24.3986L53.8663 38.1247L56.8529 35.1676L45.9365 24.3986Z" fill="#9A78DF"/>
    <path id="Vector_8" d="M59.9721 75.287L56.7207 78.3913L67.4899 89.3075L59.9721 75.287Z" fill="#57459E"/>
  </g>
</svg>