<svg id="Layer_1" about="Layer 1" xmlns="http://www.w3.org/2000/svg" viewBox="0 0 100 100" baseProfile="tiny-ps" version="1.2" ><title>IFB Appliances</title><desc>IFB Appliances</desc><path d="M11,35.5A1.54,1.54,0,0,0,12.5,37c1.2,0,1.5,1.8,1.5,9.9,0,7.9-.3,10-1.5,10.5-3.7,1.4-1,2.6,6,2.6,7.5,0,8.8-.7,6-3-2.2-1.8-2.2-18.8,0-19.6a2.53,2.53,0,0,0,1.5-2c0-1.1-1.8-1.4-7.5-1.4C12.5,34,11,34.3,11,35.5Z"/><path d="M29,35.4c0,.7.9,1.6,2,1.9,1.8.5,2,1.4,2,9.6,0,8-.2,9.2-2,10.1-3.8,2.1-2,3,6,3,4.8,0,8-.4,8-1s-.7-1.3-1.5-1.6c-1.2-.5-1.5-2.8-1.5-12V34H35.5C30.6,34,29,34.3,29,35.4Z"/><path d="M44,35.5c0,1,1,1.5,2.9,1.5,3.2,0,4.7,1.4,5.4,5,.2,1.4.5.1.6-2.8L53,34H48.5C45.2,34,44,34.4,44,35.5Z"/><path d="M56,35.5A1.45,1.45,0,0,0,57.4,37c2,0,2.6,2.3,2.6,10.6,0,6.2-.3,7.7-2,9.1-3.1,2.7-2.4,3.3,4,3.3h6V34H62C57.3,34,56,34.3,56,35.5Z"/><path d="M71,35.3c0,.7,1,1.7,2.3,2.2,3.3,1.5,3.3,4.9.1,7.4-1.5,1.2-2.5,2.2-2.3,2.4l2.4,1.3a5.67,5.67,0,0,1,2.3,4.2c.3,2.6-.1,3.2-2.2,3.8-1.4.3-2.6,1.2-2.6,2,0,1,1.5,1.4,5.4,1.4,4.7,0,5.7-.4,7.5-2.6,2.7-3.5,2.6-4.9-.4-8L81,46.9l2-2.6c2.6-3.3,2.5-4.9-.5-7.8-1.8-1.9-3.5-2.5-7-2.5C72.6,34,71,34.4,71,35.3Z"/><path d="M45.2,43.8c-.8,1.7-.9,2.8-.2,3a2.64,2.64,0,0,1,1,2.3c0,1,.5,1.9,1,1.9s1-2.3,1-5C48,40.4,47.1,39.7,45.2,43.8Z"/></svg>