<?xml version="1.0" encoding="UTF-8" standalone="yes"?>
<svg width="320" height="320" viewBox="0 0 320 320" fill="none" version="1.2" baseProfile="tiny-ps" xmlns="http://www.w3.org/2000/svg">
  <title>Buscoresi S.L.</title>
  <rect width="320" height="320" fill="white"/>
  <path fill-rule="evenodd" d="M81.0515 154.555C81.0515 154.555 86.1804 130.518 107.869 130.518C140.936 130.518 130.021 199.258 130.021 199.258H104.905C104.905 199.258 109.544 156.092 100.691 155.759C89.6598 155.336 94.6211 199.258 94.6211 199.258H72.2371L63.0876 155.618L60.0206 199.258H36L41.7474 133.914H76.7217L81.0644 154.555H81.0515ZM283.229 199.322H259.634V148.507C265.575 151.851 277.211 150.89 281.644 148.635L283.229 199.322ZM286 131.838C286 136.745 282.791 141.012 278.088 143.177C276 144.138 273.603 144.676 271.077 144.676C268.552 144.676 266.155 144.125 264.054 143.177C259.351 141.012 256.142 136.758 256.142 131.838C256.142 124.753 262.817 119 271.077 119C279.338 119 286 124.74 286 131.838ZM190.356 142.165C205.652 157.835 203.564 199.258 203.564 199.258H180.497L181.567 185.574C178.101 193.389 169.247 202.794 153.899 200.705C132.559 197.81 130.884 170.57 151 162.985C166.296 157.22 179.144 163.767 179.144 163.767C178.809 153.402 160.523 142.729 144.698 161.333L136.09 141.653C140.407 136.451 168.242 119.487 190.356 142.139V142.165ZM158.101 181.282C157.082 174.145 168.771 172.249 176.979 174.888C168.191 188.059 158.809 186.253 158.101 181.282ZM232.74 155.977H250.407V136.886H234.531L235.665 122.024H220.858C219.067 140.704 203.719 142.139 203.719 142.139V155.99H211.889C211.889 155.99 210.291 170.212 210.227 172.851C209.84 189.994 218.784 199.847 235.137 200.872C242.327 201.32 249.789 200.295 253.216 199.053V177.079C251.219 179.142 246.245 180.705 242.43 180.692C235.059 180.692 230.472 176.708 231.554 167.611L232.74 155.977Z" fill="#0D1949"/>
</svg>