<?xml version="1.0" encoding="UTF-8" standalone="yes"?>
<svg version="1.2" baseProfile="tiny-ps" width="140" height="140" viewBox="0 0 140 140" fill="none" xmlns="http://www.w3.org/2000/svg">
<title>Marimekko Corporation</title>
<rect width="140" height="140" fill="white"/>
<path d="M62.1281 75.7401V73.855H63.516V68.2203H61.7345V66.3559H65.5254V66.8117C65.7119 66.6045 66.2505 66.1695 67.3484 66.1695C68.4463 66.1695 69.3164 66.7081 69.4821 67.0188C69.6686 66.7495 70.6215 66.1902 71.7815 66.1902C73.2524 66.1902 74.6817 67.0188 74.6817 68.6139V73.8757H75.904V75.7608H71.7608V73.8757H72.838V69.1525C72.838 68.3653 72.3201 68.0132 71.5122 68.0132C70.4972 68.0132 70.1036 68.5725 70.1036 69.2354V73.855H71.1808V75.7401H67.1205V73.855H68.1977V69.1733C68.1977 68.3446 67.7006 67.9925 66.8719 67.9925C66.0019 67.9925 65.4633 68.4275 65.4633 69.2147V73.855H66.5405V75.7401H62.1281ZM15.4143 75.7401V73.855H16.7815V68.2203H15V66.3559H18.791V66.8117C18.9774 66.6045 19.516 66.1695 20.6139 66.1695C21.7119 66.1695 22.5612 66.7081 22.7476 67.0188C22.9341 66.7495 23.887 66.1902 25.0471 66.1902C26.5179 66.1902 27.968 67.0188 27.968 68.6139V73.8757H29.1902V75.7608H25.0471V73.8757H26.1243L26.145 69.1525C26.145 68.3653 25.6271 68.0132 24.8192 68.0132C23.8041 68.0132 23.3898 68.5725 23.3898 69.2354V73.855H24.467V75.7401H20.4275V73.855H21.5047V69.1733C21.5047 68.3446 20.9868 67.9925 20.1789 67.9925C19.3089 67.9925 18.7702 68.4275 18.7702 69.2147V73.855H19.8475V75.7401H15.4143ZM54.5047 75.7401V73.855H55.9962V68.2203H54.5461V66.3559H58.0057V73.8757H59.3729V75.7608L54.5047 75.7401ZM77.8927 71.1205C77.8927 68.5932 79.7156 66.1695 82.5537 66.1695C85.0188 66.1695 87.1111 68.1582 87.1111 70.8512V71.2448H79.8192C79.8192 71.2448 79.7985 71.3484 79.7985 71.4105C79.7985 73.0471 81.0829 74.1864 82.5744 74.1864C83.7552 74.1864 84.4595 73.6893 84.9981 73.0056C85.3917 72.4878 85.6403 72.3427 86.0546 72.3427C86.4689 72.3427 86.8004 72.6535 86.8004 73.1507C86.8004 74.29 85.1017 75.9473 82.5537 75.9473C79.4256 75.9266 77.8719 73.4614 77.8927 71.1205ZM80.1299 69.629H85.0188C84.7081 68.5518 83.7966 67.9096 82.533 67.9096C81.435 67.9096 80.4614 68.5932 80.1299 69.629ZM117.087 71.0377C117.087 72.6535 118.392 73.9378 119.987 73.9378C121.582 73.9378 122.887 72.6328 122.887 71.0377C122.887 69.4426 121.582 68.1375 119.987 68.1375C118.392 68.1375 117.087 69.4426 117.087 71.0377ZM115.139 71.0377C115.139 68.3653 117.315 66.1695 119.987 66.1695C122.659 66.1695 124.855 68.3446 124.855 71.0377C124.855 73.71 122.68 75.9058 119.987 75.9058C117.294 75.9058 115.139 73.71 115.139 71.0377ZM55.7684 64.3879C55.7684 63.7458 56.2863 63.2072 56.9284 63.2072C57.5706 63.2072 58.0885 63.725 58.0885 64.3879C58.0885 65.0508 57.5706 65.5895 56.9284 65.5895C56.2863 65.5687 55.7684 65.0508 55.7684 64.3879ZM31.2203 73.4407C31.2203 70.5612 35.6328 70.1469 38.0565 69.6911V69.1525C38.0565 68.1375 37.29 67.7646 36.2542 67.7646C35.032 67.7646 34.5556 68.096 34.2863 68.4482C33.9341 68.9661 33.9755 69.5669 33.0847 69.5669C32.484 69.5669 32.1318 69.1318 32.1318 68.5932C32.1318 66.5631 34.8663 66.1281 35.9021 66.1281C38.678 66.1281 39.9831 67.2674 39.9831 69.3804V73.8343H41.3296V75.7194H38.1186V74.3522C37.2279 75.3051 35.8192 75.9058 34.1205 75.9058C32.4218 75.9058 31.2203 75.1186 31.2203 73.4407ZM33.2298 73.3371C33.2298 73.8964 33.6234 74.1657 34.3277 74.1657C36.3371 74.1657 38.1394 73.0885 38.1394 71.6798V71.162L37.9115 71.2034C36.5235 71.452 33.2298 71.9699 33.2298 73.3371ZM88.9341 75.7401V73.855H90.9228V65.2166H88.4369V63.3107H92.8493V70.4991L95.2524 68.2203H94.3823V66.3559H99.2505V68.2203H97.6554L95.6874 70.1883L97.7589 73.855H99.6026V75.7401H94.6723V73.855H95.646L94.2994 71.452L92.8493 72.8399V73.855H94.0923V75.7401H88.9341ZM102.213 75.7401V73.855H104.202V65.2166H101.716V63.3107H106.149V70.4991L108.552 68.2203H107.682V66.3766H112.55V68.2203H110.934L108.966 70.209L111.017 73.8757H112.861V75.7608H107.951V73.8757H108.925L107.578 71.4727L106.128 72.8606V73.8757H107.371V75.7608L102.213 75.7401ZM44.0019 75.7401V73.855H45.5556V68.2203H43.6704V66.3766H47.5028V67.951C48.2072 67.2053 49.2222 66.2109 50.7345 66.2109C51.7702 66.2109 52.9096 66.9153 52.9096 68.0753C52.9096 68.7175 52.4539 69.1733 51.9153 69.1733C51.3766 69.1733 51.1488 68.904 50.9831 68.6346C50.7759 68.3032 50.5687 68.1789 50.3202 68.1789C49.0358 68.1789 47.7928 69.5669 47.4614 70.4369V73.8343H48.9944V75.7194L44.0019 75.7401Z" fill="black"/>
</svg>
