<?xml version="1.0" encoding="utf-8"?>
<!-- Generator: Adobe Illustrator 28.2.0, SVG Export Plug-In . SVG Version: 6.00 Build 0)  -->
<svg version="1.2" baseProfile="tiny-ps" id="Layer_1"
	 xmlns="http://www.w3.org/2000/svg" xmlns:xlink="http://www.w3.org/1999/xlink" viewBox="0 0 400 400"
	 xml:space="preserve">
<title>株式会社肥後銀行</title>
<g>
	<path fill="#007AAA" d="M400,357.4c0,23.4-18,42.6-40,42.6H40c-22,0-40-19.2-40-42.6V42.6C0,19.2,18,0,40,0h320
		c22,0,40,19.2,40,42.6V357.4z"/>
	<g>
		<path fill="#9DC814" d="M233.4,232.5c0,2.2-1.6,3.9-3.7,3.9h-61.1c-2,0-3.7-1.8-3.7-3.9v-64.9c0-2.2,1.7-3.9,3.7-3.9h61.1
			c2,0,3.7,1.8,3.7,3.9V232.5z"/>
		<path fill="#FFFFFF" d="M161.3,236.4c0,0-21.9,0-22,0c-22,0.2-36.5,10.6-40.9,27.8c-0.5,1.9-1,7.2-1.1,11.5c-0.1,4.2,0,9.3,0,9.3
			c0,4.2,0.4,10.4,1.1,13.3c3.8,15.5,17,26.9,32.7,26.9c15.5,0,28.5-11.1,32.5-26.2c0.7-2.8,1.2-6.6,1.3-11.3c0-0.1,0-0.7,0-1.7
			c0-1,0-45.7,0-45.7C165,238.2,163.4,236.4,161.3,236.4z"/>
		<path fill="#FFFFFF" d="M237.1,163.6c0,0,21.9,0,22,0c22-0.2,36.5-10.6,40.9-27.8c0.5-1.9,1-7.2,1.1-11.5c0.1-4.2,0-9.3,0-9.3
			c0-4.2-0.4-10.4-1.1-13.3c-3.8-15.5-17-26.9-32.7-26.9c-15.5,0-28.5,11.1-32.5,26.2c-0.7,2.8-1.2,6.6-1.3,11.3c0,0.1,0,0.7,0,1.7
			c0,1,0,45.7,0,45.7C233.4,161.8,235.1,163.6,237.1,163.6z"/>
		<path fill="#FFFFFF" d="M233.5,290.8c0.8,19.1,15.6,34.4,33.8,34.4c18.7,0,33.8-16.1,33.8-36v-69.1c0-1.1-0.5-1.9-1.5-2.1
			c-0.7-0.1-1.3,0.2-2.3,1.5c-9.5,11.5-22.6,16.8-39.5,16.8c-2.8,0-20.5,0-20.5,0c-2.1,0-3.8,1.8-3.8,4c0,0,0,47.7,0,48.4
			C233.4,289.5,233.4,290.7,233.5,290.8z"/>
		<path fill="#FFFFFF" d="M165,109.2c-0.8-19.2-15.6-34.4-33.8-34.4c-18.7,0-33.8,16.1-33.8,36v69.1c0,1.1,0.5,1.9,1.5,2.1
			c0.7,0.1,1.3-0.2,2.3-1.5c9.5-11.5,22.6-16.8,39.5-16.8c2.8,0,20.5,0,20.5,0c2.1,0,3.8-1.8,3.8-4c0,0,0-47.7,0-48.4
			C165,110.5,165,109.3,165,109.2z"/>
	</g>
	<rect fill="none" width="400" height="400"/>
</g>
</svg>
