<svg xmlns="http://www.w3.org/2000/svg" baseProfile="tiny-ps" version="1.2" viewBox="0 0 283.5 283.5">
<title>Dr. Martens</title>
<path d="M0 0h283.5v283.5H0z" fill="#101010"/>
<path d="M156.6 172.3Zm23.6-9.8c-.2-.3-.4-.6-.8-.6-.3.2-.6.5-.5 1 .2.4.7.5 1 .5 0-.3.4-.5.2-.9m-47.8 27" fill="#fd0"/><path d="M192.5 159.7c-.5-.1-1.2-.6-.7-1.2 0-.7-.9-1-1.2-.3-.6 1.3 1.3.6.9 1.8-.1.5-.7.8-1.1.8-1.1-.1-.2-1.1-.8-1.5-.4-.4-.9-.3-1.2 0-.8 1.1.9.8.8 1.8 0 .3-.3.7-.7.6s-.8-.6-.6-1.1c-.3-.4-.7-.5-1-.5-.5.2-.9.7-1 1.1-.3.3-.7 0-.9 0-1.2 0-1.1 2.1-2.5 1.2-.4.3-.5.7-.8 1-.5.5-1.1 0-1.7 0-.1.5-.1 1-.6 1.3-1.1.4-1-.8-1.4-1.4-.9-.8-1.1.8-1.7 1.1-1.8-1.2-1.4 1.9-3.1 1.1-1-.1-.7 1.5-1.7 1.3-.4-.2-1.1-.5-.8-1.1 0-.3-.4-.7-.8-.7-1.6.8.8 1.2.5 2.3-.2.4-.7.6-1.1.6-.6-.2-.8-.8-.6-1.3-.3-.3-.6-.5-1-.5-.2.2-.6.4-.6.8-.2.7-.9.4-1.3.3-.3 0-.7.3-.8.6-.1.5-.7.8-1.1.7-1.4 0 0-1.3-.9-1.7-.3-.4-.8-.1-1 .2-.7 1.4 1.6.6.9 2-.2.4-.6.7-1.1.6-.5-.1-.8-.7-.6-1.2-.2-.3-.5-.7-.9-.6-.7.2-.7 1-1.1 1.4-1.4-1.3-1.4 1.2-2.7 1-.6 0-1.2-.5-.8-1.1-.1-.4-.5-.7-.9-.7-1.7 1.1.9 1.2.4 2.2-.1.4-.5.9-1.1.7-.6-.1-.6-.8-.5-1.3-.3-.4-.7-.5-1-.5-.5 0-.7.7-.9 1.1-.5.3-1.1-.1-1.6 0-.3.5-.6 1.3-1.2 1.2-.6-.2-.7-.8-.7-1.4-.3-.3-.6-.6-1-.5-.5.3-.6.8-.9 1.2-.7.2-1.2 0-1.7-.4.2-.5.4-1.1-.2-1.4-.3-.2-.7-.1-.9.3-.8 1.2 1.3.7.9 1.9-.2.4-.6.8-1.1.7-.5-.3-.7-.8-.5-1.3-1.1-1.9-1.6.9-2.9.6-.3-.1-.9-.4-.6-.9 0-.5-.4-1-.9-1-.6 0-.7.7-.8 1.2.3.3.8.3 1 .6.2.4 0 .8-.3 1.1-2 .6 0-2-1.6-1.8-1.4-.8-.9 1.6-2.3 1.2-1.1-.3 0-1.5-.9-1.9-1.4-.7-.9 1.7-2.3 1.1-1.4.2-.2-1.4-1.1-1.8-.4-.2-.8 0-.9.3-.8 1.5 1.5.6 1 2-.1.4-.6.6-1 .6-.9-.1-.5-1.3-.7-1.7-1.4-1.3-1.2 1.3-2.6 1-.5-.1-.9-.8-.6-1.3-1-1.9-1.6.8-2.7.5-.6-.1-1.1-.5-.8-1.2 0-.4-.5-.7-.9-.7-1.9 1.4 1.3 1.1.7 2.4-.2.5-.7.8-1.2.7-1-.3 0-1.4-.7-1.9-1.5-1-1.1 1.5-2.3 1.1-1.1-.7-1.1.9-1.5 1.4-.4 0-.7-.1-1.1-.1-.4.1-.6.5-.7.9 0 .5.6.8.9.9.3 0 .7-.4.7-.7 0-.5.5-.9 1.1-.7.4.2.7.7.6 1.2 0 .8-1.1.6-1.5.5-.3.3-.6.6-.5 1.1.2.4.5.7.9.7.7 0 .6-.9 1-1.3.5 0 .9 0 1.2.5.2.4 0 1-.2 1.3-.4 0-.7-.1-1.1-.1-.3 0-.6.4-.5.7.2.2.4.5.7.7.8.6.8-.6 1.1-1 .5 0 .9 0 1.2.5.3.3 0 .8 0 1.2.3.7 1 .4 1.5.8v-.3c.1-.5.2-1.2 1-1.2s1 .4 1 .9v.3c0 .2 0 .4-.2.6-.1.2-.3.2-.5.2l-.9-.2s-.2-.1-.3-.2c0 .4-.5.9 0 1.2 1.4 1.9 1.1-1.3 2.6-.7.5.1.6.7.6 1.1 0 .9-1 .7-1.4.6.6 1.5 1.2-.3 2.3.5.4.2.6.7.4 1.1.4.5.9.6 1.3.8 0 0 .3-.2.3-.4.1-.4.6-.7 1.1-.7.4.2.7.6.6 1.1-.7 1.4 1.3.8 1.8 1.7 0 1.7 1.2 0 2 .2.7 0 .9.7 1.1 1.1.5 1.5 1.3-.3 2-.2.9 0 .9 1 1.5 1.5.8.3 1.1-.8 1.9-.6.8.1.9.9 1.2 1.4.6 0 .9 0 1.2-.5.7-.1 1.3 0 1.8.4 0 .5-.3.9-.4 1.2-.6.3-1.1-.1-1.7-.1-.3.4-.6 1.2-1.2.9-.7-.2-.2-1.1-.9-1.4-1.1-.8-1.3 1.3-2.4.8-.9-.1-.2-1.1-.9-1.4-1.1-.9-1.2 1.1-2.4.7-.9 0-.3-1.2-1-1.5-1.1-.8-1.1 1.1-2.1.7-.9 0-.7-1-1-1.4-1-1.1-1.2.8-2.3.5-.4-.1-.9-.6-.7-1-.6-1.8-1.8 0-2.7 0-.9-.2-.4-1.2-.9-1.7-.9-1.1-1.4.6-2.2.7-.4 0-.7-.5-.6-1 0-.6.6-.4 1.1-.3 0-.2.4-.1.3-.4-.7-1.2-1.2.5-2.2-.1-1.1-.1-.5-1.4-1.2-1.7-.5-.4-1.1 0-1.2.5-1.3.6-1-1.2-1.7-1.7-1.3 0-.7-1.5-1.6-2-.8-.6-1.1 1-1.8.6-.8-.2 0-1.2-.7-1.6-1.2 0-1.2-1.3-1.8-2.1-1.2 0-.9-1.4-1.9-1.8-.3-.4-.6 0-.8.3-.3.3-.8.2-1-.1-.3-.6 0-1.4.6-1.5-.5-.9-1.5.4-2-.7.2-1.2-.5-1.5-1.3-1.9 0-1.5-1.7-1.7-2.2-3-.5-1-1 .4-1.6 0-.4-.2-.8-.7-.7-1.4 0-.3-.4-.1-.7-.2-.3 0-.4.4-.4.7 1 2.8 2.7 5.3 4.3 7.9 1.4 2.1 3 3.7 4.6 5.6.7.9 1.6 1.2 2.1 2.1 7.1 6.8 15.7 10.7 24.9 12.7 1.4 0 2.6 1 4 .4 1.4 1 3.5.2 5 .8.8-.3 1.5-.2 2.4 0 1.2-.5 2.9.1 4-.5 2.6-.3 5.1-.5 7.5-1.2 2-.4 3.9-.9 5.8-1.5 1.1-.7 2.4-.8 3.3-1.5 4.6-1.9 9-4.7 12.8-8.1 1.2-1.1 2.6-2.2 3.5-3.6 3.6-3.4 6.2-7.7 8.5-11.9.6-2.3 1.9-4.2 2.4-6.6.1-.7.6-1.8-.6-1.2m-60.8 12.1c.3-.1.6 0 .8.3v.6c-.1.1-.3.2-.5.2s-.2 0-.2-.1c0 0-.4-.3-.4-.4 0-.3 0-.6.4-.7m-1.9 1.6c.2 0 .4.1.4.4v.4c-.1.2-.4.2-.5.2h-.2c-.2-.2-.2-.4-.1-.6 0-.1.3-.3.5-.3m-1.9-2.5c.2-.2.6-.3.8-.2.2.1.4.3.4.6v.2c0 .3-.2.5-.4.6h-.3l-.7-.2s-.2-.4-.1-.4c0-.3 0-.6.2-.8m-.7 4c.1-.2.4-.3.6-.2 0 0 .2.2.2.3v.4c-.1.2-.4.2-.5.2h-.2c-.2-.2-.2-.4 0-.6m-.6-2.7c.2.1.4.3.4.6v-.1c.2.4 0 .6-.2.8h-.2c-.3 0-.6-.1-.7-.3-.1-.1-.1-.3 0-.3 0-.2 0-.5.1-.6.2-.2.5-.2.8-.1m-1.9-2.5h.3c.3.1.7.2.9.6s0 .8 0 .8-.6.6-.7.6c-.6 0-1-.4-1-.9s.2-.9.6-1.1m-6.3 1.6v-.4c0-.3.2-.8.7-.9l.9.2.4.7c0 .3-.1.7-.4 1-.2.2-.4.2-.7.2-.5 0-.9-.4-1-.8m2.4 2.9c-.4 0-.8-.4-.8-.8-.1-.6.4-.8.8-.9.3 0 .9 0 .9.8s-.3.7-.3.7l-.6.2Zm1.4 2.1h-.6l-.4-.6c-.1-.5 0-.9.6-1 .5-.1.8.2 1 .4v.2c0 .3 0 .9-.6 1m0-3.7s-.2-.2-.2-.4v-.5s.4-.4.5-.4h.8c.2.1.3.3.3.6v.1c0 .3-.2.6-.5.7-.3 0-.7 0-.9-.2m2 2.3c-.3 0-.6-.2-.8-.6 0-.3.2-.6.6-.6.3 0 .6.1.6.4 0 .2 0 .6-.5.8m.6 1.8c-.1-.3 0-.6.3-.8s.7 0 .9.2v.1c0 .5-.2.8-.4.7-.3.2-.6-.1-.8-.3m1.7 2.8-.5-.2c-.1 0-.3-.2-.3-.3 0-.6.2-.9.6-1.1.2 0 .5 0 .7.1.2.1.3.3.3.6v.2c0 .2 0 .4-.2.5-.2.2-.4.2-.6.2m2.3 1.3-.4.8-.5.2c-.3 0-.6 0-.9-.2-.2-.2-.4-.5-.3-.8 0-.4.3-.8.7-1 .6-.1 1.1.2 1.3.8m.3-2.8s-.1.1-.3.1h-.3c-.2-.2-.2-.6-.1-.8 0-.1.3-.1.4 0s.4.2.4.3v.4m.1 2c0-.3 0-.5.3-.7.2-.2.5-.2.7 0 .2.1.3.3.3.5 0 .6-.3.8-.6.8s-.6-.2-.7-.5m2 2.8-.7-.3-.2-.5c0-.6.3-1 .7-.9h.6l.4.6v.2c0 .4-.4.7-.8.9m1.7 1.9c-.2.2-.4.2-.8.2-.2 0-.8-.2-.7-.8 0-.3.2-.9.7-1 .4-.1.9.2 1.1.6 0 .3 0 .7-.2.9m-.1-9.2c-.1 0-.4 0-.5-.1-.2-.2 0-.4 0-.5 0-.1.4-.1.5 0 .1 0 .4.3.4.4 0 .1-.2.2-.3.3m.8-3.2c-.4.1-.7 0-.9-.6 0-.3 0-.9.6-1.1.2 0 .7 0 .9.3 0 0 .1.2.1.4v.2c0 .2 0 .3-.1.4-.2.2-.4.3-.5.3m.5 1.7c0-.4.1-.6.3-.7.2 0 .5 0 .6.3v.2c0 .1 0 .3-.2.4s-.2 0-.3 0c-.1 0-.4 0-.6-.3m2.2 11v.6s-.5.4-.6.4l-.9-.2-.2-.5c0-.2 0-.5.2-.7.1-.2.4-.3.6-.3.5 0 .9.3.9.7m.7-11.6c-.4 0-.8-.2-.7-.6 0-.3 0-.6.2-.7.2-.2.6-.2.8 0 .2.1.3.3.3.6s-.2.6-.6.8m1.3 1.8-.2.1s-.5-.3-.5-.4c-.1-.3 0-.5.1-.6.2-.2.5-.2.7 0 0 0 .1.2.2.3 0 .1.1.4-.2.6m2.4-1.9-.4.7h-.2c-.4 0-.7-.2-.6-.5-.2-.5.3-.7.4-.8h.4l.4.3v.1m1 2.8c-.1.2-.4.2-.5.2h-.2c-.2-.2-.2-.4 0-.6.1-.2.4-.3.6-.2 0 0 .2.2.2.3v.4m.5-3.2c-.4.1-.7 0-.9-.6 0-.5.2-.7.6-.9l.8.2.2.5c0 .3-.3.6-.6.8m1.3 1.9s-.3.1-.4.1c-.3 0-.4-.2-.4-.2l-.1-.2c0-.2 0-.4.2-.4.2-.1.4-.1.6 0 0 0 .1.1.1.2.2.2.1.5 0 .6m-35.1 1.2c-.1.2-.3.3-.6.3 0 0-.6-.3-.7-.4-.1-.4.1-.9.6-1.1.4 0 .8.2.8.6v.1c0 .2 0 .3-.1.4m10.1 8.2c-.2.3-.4.3-.7.3-.3-.2-.4-.6-.2-1 0-.2.3-.3.5-.3s.5.2.6.4v.2c0 .1 0 .2-.1.3m4.1 3.2c0 .1-.2 0-.3.1-.1 0-.3-.1-.3-.2-.1-.2 0-.6.2-.7.1 0 .3 0 .4.1 0 0 .2.3.2.4v.3h-.1Zm3.6.5c0 .2 0 .4-.5.6-.2 0-.7 0-.6-.4-.1-.3 0-.5.2-.7.2-.2.5-.2.7 0 .1 0 .2.2.2.4m3.2 1.4s-.4.1-.5.1c-.1 0-.4 0-.6-.3-.1-.4.1-.9.6-1.1.2 0 .7.2.6.6l-.2.6Zm3.2.8s-.2 0-.3.1c-.1 0-.3 0-.4-.1-.1-.2 0-.4 0-.6 0 0 0-.2.2-.3.1 0 .4-.1.6.2 0 .1.2.3 0 .6m12.9-16.4c-.1.2-.3.3-.5.3-.4 0-.6-.3-.6-.5s0-.4.2-.5c.2-.2.5-.2.7 0 .2 0 .3.3.3.5v.3m.8 2.2s-.2.1-.3 0c-.2 0-.3-.2-.4-.4 0-.1.1-.5.2-.5h.5c.2.1.2.4.2.5 0 0-.1.2-.2.2m1.2-3.1s-.3.1-.4.2c-.2 0-.6 0-.9-.4v-.4c0-.2 0-.6.5-.7.2 0 .5 0 .8.1.2.1.2.3.3.5 0 .3 0 .5-.1.7Zm1.2 1.6-.3.5s-.1.1-.2.1c-.5 0-.6-.2-.6-.4s0-.5.2-.5h.4l.4.2c.1 0 .1 0 0 .2m2.2-1c-.1.2-.3.3-.5.3s-.2 0-.3-.1l-.4-.4c0-.2 0-.5.1-.6.2-.2.5-.2.7-.1.2 0 .4.3.4.6v-.1.5m2.1-1.2c-.1.2-.3.3-.5.2-.2 0-.4 0-.6-.1-.2-.1-.3-.4-.3-.6 0-.2 0-.5.2-.7.2-.2.6-.3.9-.1.2.1.4.4.4.6v.2c0 .2 0 .3-.1.5m.2 1.6c0 .1.2.5.3.5-.3 0-.3-.5-.3-.5m.5.2c-.1.2-.2-.1-.2-.2.2-.1.3 0 .2.2m2.5-1.1s-.2.2-.3.2h-.5c-.2-.1-.3-.3-.3-.5s0-.4.2-.6c.2-.1.5-.2.7 0 .2 0 .3.3.3.5v-.1.2c0 .1 0 .2-.1.3m2-1c-.1 0-.3.1-.3 0h-.6c-.1-.1-.2-.3-.2-.4-.1-.4 0-.8.4-.9.4-.2.7.1.9.4v.2c0 .3 0 .6-.2.8m.4 1.4c0 .2.1.4.2.4-.1 0-.1-.3-.2-.4m.5.1v.1h-.1v.1-.3c.1 0 .2 0 .2.2v-.1.1m-.2-3.2v-.3c0-.4 0-.9.6-1.1.4 0 .7.1.9.3 0 .1.2.3.2.5v.3c0 .4-.2.6-.6.8-.4.2-.9-.2-1-.5m2 2.4c-.4 0-.5-.2-.6-.5-.1-.3 0-.6.2-.7.3-.1.7 0 .8.2v.2c0 .2 0 .5-.4.7m2.3-1.2h-.2c-.2 0-.6 0-.7-.4-.1-.2 0-.4.1-.6.2-.2.5-.3.8-.2.2 0 .3.3.3.5l-.3.6m2.1-1.1c-.2.1-.5.1-.9-.3-.1-.2-.1-.5 0-.7.2-.2.6-.3.9-.1.2 0 .4.3.4.5v-.1.1c0 .3-.2.5-.4.7m1.8-1.2c-.4 0-.7-.2-.9-.6-.1-.6.1-1.1.6-1.2.4-.1.6.1.8.2l.3.3c0 .3 0 .7-.2 1.1-.1.1-.3.3-.6.3m1.6 1.6v.1h-.4c-.1.2-.3.2-.3 0-.4-.4-.2-.6-.1-.7.1-.2.5-.2.7-.1.2 0 .3.3.2.6m2-1.3s0 .2-.1.2l-.5.2h-.2c-.2-.2-.2-.4-.2-.6 0-.2.1-.3.4-.4.2 0 .5 0 .6.4v.3m1.8-1h-.5c-.2-.1-.3-.3-.2-.5 0-.2 0-.5.3-.6.2-.1.6 0 .7.3v.2c0 .1 0 .4-.3.6m2.1-1.3h-.6c-.2-.1-.2-.2-.2-.3-.1-.4 0-.6.2-.7.2-.1.5-.1.7 0 .2.1.3.4.2.6 0 .5-.2.6-.2.6m2.3-1.6c-.1.1-.3.2-.4.2-.4.1-.7 0-.9-.4v-.3c0-.2 0-.6.5-.9.4 0 .6.1.8.4 0 .1.1.3.1.4v.2c0 .1 0 .3-.1.4m2.4.8c-.1-.2 0-.5 0-.6v.1c0 .1 0 .3.1.4v-.4h.1-.2v.1c.1.1.2.2.3.2-.3 0-.5 0-.5-.2m3.1-1c0 .2-.2.4-.4.4s-.3 0-.5-.2l-.1-.4c0-.2.1-.3.4-.4.2 0 .5 0 .6.4v.3m1.8-.9h-.2c-.1 0-.4 0-.5-.3-.1-.2 0-.5 0-.7.1-.2.4-.3.6-.2 0 0 .3.1.4.4 0 .2 0 .5-.3.7m2-1.1h-.4c-.1 0-.6-.2-.4-.5-.2-.4 0-.6 0-.7.2-.2.5-.2.7-.1.3.1.4.3.4.6s-.2.6-.5.7m-54.2 26.4v.1" fill="#fd0"/><path d="M116.8 170c.3-.1.6-.4.6-.8s-.6-.8-1-.8-.6.6-.6 1c.2.4.6.7 1.1.6m-1.5-2.6s.3-.2.2-.5c0-.4-.6-.1-.7.2 0 .2.3.3.5.3m8.6.6c.1 0 .3-.2.2-.5 0-.1 0-.2-.2-.2-.4.2-.4.6 0 .7m-5.2.5c0-.2.3-.3.3-.6s-.3-.5-.6-.6c-.2.2-.5.5-.5.8.2.2.4.5.8.4m-5.4.2c0-.1.4-.3.4-.5-.2-.6-.9-.6-1 0 .1.2.3.4.6.4m13.9.6c.2-.2.7-.4.6-.8 0-.4-.9-.8-1-.2-.4.3 0 .9.5 1m-16 .7c0-.1.2-.3.3-.5-.2-.3-.8-.5-.8.1 0 .2.2.4.5.4m3.2 1.2c.4-.2.8-.5.7-1-.2-.4-.5-.5-.8-.5-.3.1-.6.4-.6.8.2.3.4.7.8.7m-1.8.8v-.4c0-.2-.3-.5-.6-.4-.2.2 0 .7.5.8m59.6-7.3c.2 0 .3-.3.3-.5-.2-.2-.3-.4-.5-.4-.2.2-.6.3-.5.6 0 .2.4.6.7.3m1.9-1.3s.3-.2.3-.4c-.1-.2-.3-.3-.4-.3-.6.2-.2.6 0 .7m-9.4 3.1c.2-.1.5-.4.4-.7-.3-.5-.9-.3-1 .2 0 .2.4.5.7.5m-5.2-.2c-.1 0-.2-.2-.3-.2-.2 0-.4.3 0 .5.2 0 .2-.2.4-.3m21.9-4.5c.2-.2.4-.3.4-.5-.2-.6-.9-.4-.9 0 0 .2.3.6.6.4m-49.2 6.9c.1-.1.5-.2.4-.5-.1-.2-.3-.3-.5-.3-.2.1-.4.3-.3.5 0 .2.2.3.4.3m51.3-8.5c-.1-.4-.6-.2-.5.2 0 .1.2.2.3.2 0 0 .3-.2.2-.4m8.7-2.6c.1.2.4.4.6.4.3 0 .4-.4.4-.6-.2-.8-1-.4-1 .2M147 168.3c-.2-.1-.3-.4-.5-.4-.2.1-.5.5-.2.7.3.4.6 0 .7-.3m-5.7.8c.3 0 .5-.3.5-.6-.3-.5-.9-.4-1 0 0 .2.3.5.6.5m8.6.9c.3-.2.5-.5.5-1-.2-.2-.5-.6-.9-.5-.2.2-.6.5-.5.9 0 .3.5.7.9.6m-14.2-.3c.4 0 .7-.4.6-.8 0-.3-.4-.4-.7-.5-.3.1-.6.4-.5.8 0 .2.4.5.6.5m21.6-1.6c.2-.1.6-.3.5-.6-.2-.2-.4-.6-.7-.4-.2 0-.5.2-.4.5 0 .3.3.5.6.5m-5.5.2c.2-.1.4-.2.4-.5-.2-.5-.8-.2-.8.2 0 .1.2.4.4.3m4.7 4.1Zm23.6-9.8c-.2-.3-.4-.6-.8-.6-.3.2-.6.5-.5 1 .2.4.7.5 1 .5 0-.3.4-.5.2-.9m-47.8 27" fill="#fd0"/><path d="M192.5 159.7c-.5-.1-1.2-.6-.7-1.2 0-.7-.9-1-1.2-.3-.6 1.3 1.3.6.9 1.8-.1.5-.7.8-1.1.8-1.1-.1-.2-1.1-.8-1.5-.4-.4-.9-.3-1.2 0-.8 1.1.9.8.8 1.8 0 .3-.3.7-.7.6s-.8-.6-.6-1.1c-.3-.4-.7-.5-1-.5-.5.2-.9.7-1 1.1-.3.3-.7 0-.9 0-1.2 0-1.1 2.1-2.5 1.2-.4.3-.5.7-.8 1-.5.5-1.1 0-1.7 0-.1.5-.1 1-.6 1.3-1.1.4-1-.8-1.4-1.4-.9-.8-1.1.8-1.7 1.1-1.8-1.2-1.4 1.9-3.1 1.1-1-.1-.7 1.5-1.7 1.3-.4-.2-1.1-.5-.8-1.1 0-.3-.4-.7-.8-.7-1.6.8.8 1.2.5 2.3-.2.4-.7.6-1.1.6-.6-.2-.8-.8-.6-1.3-.3-.3-.6-.5-1-.5-.2.2-.6.4-.6.8-.2.7-.9.4-1.3.3-.3 0-.7.3-.8.6-.1.5-.7.8-1.1.7-1.4 0 0-1.3-.9-1.7-.3-.4-.8-.1-1 .2-.7 1.4 1.6.6.9 2-.2.4-.6.7-1.1.6-.5-.1-.8-.7-.6-1.2-.2-.3-.5-.7-.9-.6-.7.2-.7 1-1.1 1.4-1.4-1.3-1.4 1.2-2.7 1-.6 0-1.2-.5-.8-1.1-.1-.4-.5-.7-.9-.7-1.7 1.1.9 1.2.4 2.2-.1.4-.5.9-1.1.7-.6-.1-.6-.8-.5-1.3-.3-.4-.7-.5-1-.5-.5 0-.7.7-.9 1.1-.5.3-1.1-.1-1.6 0-.3.5-.6 1.3-1.2 1.2-.6-.2-.7-.8-.7-1.4-.3-.3-.6-.6-1-.5-.5.3-.6.8-.9 1.2-.7.2-1.2 0-1.7-.4.2-.5.4-1.1-.2-1.4-.3-.2-.7-.1-.9.3-.8 1.2 1.3.7.9 1.9-.2.4-.6.8-1.1.7-.5-.3-.7-.8-.5-1.3-1.1-1.9-1.6.9-2.9.6-.3-.1-.9-.4-.6-.9 0-.5-.4-1-.9-1-.6 0-.7.7-.8 1.2.3.3.8.3 1 .6.2.4 0 .8-.3 1.1-2 .6 0-2-1.6-1.8-1.4-.8-.9 1.6-2.3 1.2-1.1-.3 0-1.5-.9-1.9-1.4-.7-.9 1.7-2.3 1.1-1.4.2-.2-1.4-1.1-1.8-.4-.2-.8 0-.9.3-.8 1.5 1.5.6 1 2-.1.4-.6.6-1 .6-.9-.1-.5-1.3-.7-1.7-1.4-1.3-1.2 1.3-2.6 1-.5-.1-.9-.8-.6-1.3-1-1.9-1.6.8-2.7.5-.6-.1-1.1-.5-.8-1.2 0-.4-.5-.7-.9-.7-1.9 1.4 1.3 1.1.7 2.4-.2.5-.7.8-1.2.7-1-.3 0-1.4-.7-1.9-1.5-1-1.1 1.5-2.3 1.1-1.1-.7-1.1.9-1.5 1.4-.4 0-.7-.1-1.1-.1-.4.1-.6.5-.7.9 0 .5.6.8.9.9.3 0 .7-.4.7-.7 0-.5.5-.9 1.1-.7.4.2.7.7.6 1.2 0 .8-1.1.6-1.5.5-.3.3-.6.6-.5 1.1.2.4.5.7.9.7.7 0 .6-.9 1-1.3.5 0 .9 0 1.2.5.2.4 0 1-.2 1.3-.4 0-.7-.1-1.1-.1-.3 0-.6.4-.5.7.2.2.4.5.7.7.8.6.8-.6 1.1-1 .5 0 .9 0 1.2.5.3.3 0 .8 0 1.2.3.7 1 .4 1.5.8v-.3c.1-.5.2-1.2 1-1.2s1 .4 1 .9v.3c0 .2 0 .4-.2.6-.1.2-.3.2-.5.2l-.9-.2s-.2-.1-.3-.2c0 .4-.5.9 0 1.2 1.4 1.9 1.1-1.3 2.6-.7.5.1.6.7.6 1.1 0 .9-1 .7-1.4.6.6 1.5 1.2-.3 2.3.5.4.2.6.7.4 1.1.4.5.9.6 1.3.8 0 0 .3-.2.3-.4.1-.4.6-.7 1.1-.7.4.2.7.6.6 1.1-.7 1.4 1.3.8 1.8 1.7 0 1.7 1.2 0 2 .2.7 0 .9.7 1.1 1.1.5 1.5 1.3-.3 2-.2.9 0 .9 1 1.5 1.5.8.3 1.1-.8 1.9-.6.8.1.9.9 1.2 1.4.6 0 .9 0 1.2-.5.7-.1 1.3 0 1.8.4 0 .5-.3.9-.4 1.2-.6.3-1.1-.1-1.7-.1-.3.4-.6 1.2-1.2.9-.7-.2-.2-1.1-.9-1.4-1.1-.8-1.3 1.3-2.4.8-.9-.1-.2-1.1-.9-1.4-1.1-.9-1.2 1.1-2.4.7-.9 0-.3-1.2-1-1.5-1.1-.8-1.1 1.1-2.1.7-.9 0-.7-1-1-1.4-1-1.1-1.2.8-2.3.5-.4-.1-.9-.6-.7-1-.6-1.8-1.8 0-2.7 0-.9-.2-.4-1.2-.9-1.7-.9-1.1-1.4.6-2.2.7-.4 0-.7-.5-.6-1 0-.6.6-.4 1.1-.3 0-.2.4-.1.3-.4-.7-1.2-1.2.5-2.2-.1-1.1-.1-.5-1.4-1.2-1.7-.5-.4-1.1 0-1.2.5-1.3.6-1-1.2-1.7-1.7-1.3 0-.7-1.5-1.6-2-.8-.6-1.1 1-1.8.6-.8-.2 0-1.2-.7-1.6-1.2 0-1.2-1.3-1.8-2.1-1.2 0-.9-1.4-1.9-1.8-.3-.4-.6 0-.8.3-.3.3-.8.2-1-.1-.3-.6 0-1.4.6-1.5-.5-.9-1.5.4-2-.7.2-1.2-.5-1.5-1.3-1.9 0-1.5-1.7-1.7-2.2-3-.5-1-1 .4-1.6 0-.4-.2-.8-.7-.7-1.4 0-.3-.4-.1-.7-.2-.3 0-.4.4-.4.7 1 2.8 2.7 5.3 4.3 7.9 1.4 2.1 3 3.7 4.6 5.6.7.9 1.6 1.2 2.1 2.1 7.1 6.8 15.7 10.7 24.9 12.7 1.4 0 2.6 1 4 .4 1.4 1 3.5.2 5 .8.8-.3 1.5-.2 2.4 0 1.2-.5 2.9.1 4-.5 2.6-.3 5.1-.5 7.5-1.2 2-.4 3.9-.9 5.8-1.5 1.1-.7 2.4-.8 3.3-1.5 4.6-1.9 9-4.7 12.8-8.1 1.2-1.1 2.6-2.2 3.5-3.6 3.6-3.4 6.2-7.7 8.5-11.9.6-2.3 1.9-4.2 2.4-6.6.1-.7.6-1.8-.6-1.2m-60.8 12.1c.3-.1.6 0 .8.3v.6c-.1.1-.3.2-.5.2s-.2 0-.2-.1c0 0-.4-.3-.4-.4 0-.3 0-.6.4-.7m-1.9 1.6c.2 0 .4.1.4.4v.4c-.1.2-.4.2-.5.2h-.2c-.2-.2-.2-.4-.1-.6 0-.1.3-.3.5-.3m-1.9-2.5c.2-.2.6-.3.8-.2.2.1.4.3.4.6v.2c0 .3-.2.5-.4.6h-.3l-.7-.2s-.2-.4-.1-.4c0-.3 0-.6.2-.8m-.7 4c.1-.2.4-.3.6-.2 0 0 .2.2.2.3v.4c-.1.2-.4.2-.5.2h-.2c-.2-.2-.2-.4 0-.6m-.6-2.7c.2.1.4.3.4.6v-.1c.2.4 0 .6-.2.8h-.2c-.3 0-.6-.1-.7-.3-.1-.1-.1-.3 0-.3 0-.2 0-.5.1-.6.2-.2.5-.2.8-.1m-1.9-2.5h.3c.3.1.7.2.9.6s0 .8 0 .8-.6.6-.7.6c-.6 0-1-.4-1-.9s.2-.9.6-1.1m-6.3 1.6v-.4c0-.3.2-.8.7-.9l.9.2.4.7c0 .3-.1.7-.4 1-.2.2-.4.2-.7.2-.5 0-.9-.4-1-.8m2.4 2.9c-.4 0-.8-.4-.8-.8-.1-.6.4-.8.8-.9.3 0 .9 0 .9.8s-.3.7-.3.7l-.6.2Zm1.4 2.1h-.6l-.4-.6c-.1-.5 0-.9.6-1 .5-.1.8.2 1 .4v.2c0 .3 0 .9-.6 1m0-3.7s-.2-.2-.2-.4v-.5s.4-.4.5-.4h.8c.2.1.3.3.3.6v.1c0 .3-.2.6-.5.7-.3 0-.7 0-.9-.2m2 2.3c-.3 0-.6-.2-.8-.6 0-.3.2-.6.6-.6.3 0 .6.1.6.4 0 .2 0 .6-.5.8m.6 1.8c-.1-.3 0-.6.3-.8s.7 0 .9.2v.1c0 .5-.2.8-.4.7-.3.2-.6-.1-.8-.3m1.7 2.8-.5-.2c-.1 0-.3-.2-.3-.3 0-.6.2-.9.6-1.1.2 0 .5 0 .7.1.2.1.3.3.3.6v.2c0 .2 0 .4-.2.5-.2.2-.4.2-.6.2m2.3 1.3-.4.8-.5.2c-.3 0-.6 0-.9-.2-.2-.2-.4-.5-.3-.8 0-.4.3-.8.7-1 .6-.1 1.1.2 1.3.8m.3-2.8s-.1.1-.3.1h-.3c-.2-.2-.2-.6-.1-.8 0-.1.3-.1.4 0s.4.2.4.3v.4m.1 2c0-.3 0-.5.3-.7.2-.2.5-.2.7 0 .2.1.3.3.3.5 0 .6-.3.8-.6.8s-.6-.2-.7-.5m2 2.8-.7-.3-.2-.5c0-.6.3-1 .7-.9h.6l.4.6v.2c0 .4-.4.7-.8.9m1.7 1.9c-.2.2-.4.2-.8.2-.2 0-.8-.2-.7-.8 0-.3.2-.9.7-1 .4-.1.9.2 1.1.6 0 .3 0 .7-.2.9m-.1-9.2c-.1 0-.4 0-.5-.1-.2-.2 0-.4 0-.5 0-.1.4-.1.5 0 .1 0 .4.3.4.4 0 .1-.2.2-.3.3m.8-3.2c-.4.1-.7 0-.9-.6 0-.3 0-.9.6-1.1.2 0 .7 0 .9.3 0 0 .1.2.1.4v.2c0 .2 0 .3-.1.4-.2.2-.4.3-.5.3m.5 1.7c0-.4.1-.6.3-.7.2 0 .5 0 .6.3v.2c0 .1 0 .3-.2.4s-.2 0-.3 0c-.1 0-.4 0-.6-.3m2.2 11v.6s-.5.4-.6.4l-.9-.2-.2-.5c0-.2 0-.5.2-.7.1-.2.4-.3.6-.3.5 0 .9.3.9.7m.7-11.6c-.4 0-.8-.2-.7-.6 0-.3 0-.6.2-.7.2-.2.6-.2.8 0 .2.1.3.3.3.6s-.2.6-.6.8m1.3 1.8-.2.1s-.5-.3-.5-.4c-.1-.3 0-.5.1-.6.2-.2.5-.2.7 0 0 0 .1.2.2.3 0 .1.1.4-.2.6m2.4-1.9-.4.7h-.2c-.4 0-.7-.2-.6-.5-.2-.5.3-.7.4-.8h.4l.4.3v.1m1 2.8c-.1.2-.4.2-.5.2h-.2c-.2-.2-.2-.4 0-.6.1-.2.4-.3.6-.2 0 0 .2.2.2.3v.4m.5-3.2c-.4.1-.7 0-.9-.6 0-.5.2-.7.6-.9l.8.2.2.5c0 .3-.3.6-.6.8m1.3 1.9s-.3.1-.4.1c-.3 0-.4-.2-.4-.2l-.1-.2c0-.2 0-.4.2-.4.2-.1.4-.1.6 0 0 0 .1.1.1.2.2.2.1.5 0 .6m-35.1 1.2c-.1.2-.3.3-.6.3 0 0-.6-.3-.7-.4-.1-.4.1-.9.6-1.1.4 0 .8.2.8.6v.1c0 .2 0 .3-.1.4m10.1 8.2c-.2.3-.4.3-.7.3-.3-.2-.4-.6-.2-1 0-.2.3-.3.5-.3s.5.2.6.4v.2c0 .1 0 .2-.1.3m4.1 3.2c0 .1-.2 0-.3.1-.1 0-.3-.1-.3-.2-.1-.2 0-.6.2-.7.1 0 .3 0 .4.1 0 0 .2.3.2.4v.3h-.1Zm3.6.5c0 .2 0 .4-.5.6-.2 0-.7 0-.6-.4-.1-.3 0-.5.2-.7.2-.2.5-.2.7 0 .1 0 .2.2.2.4m3.2 1.4s-.4.1-.5.1c-.1 0-.4 0-.6-.3-.1-.4.1-.9.6-1.1.2 0 .7.2.6.6l-.2.6Zm3.2.8s-.2 0-.3.1c-.1 0-.3 0-.4-.1-.1-.2 0-.4 0-.6 0 0 0-.2.2-.3.1 0 .4-.1.6.2 0 .1.2.3 0 .6m12.9-16.4c-.1.2-.3.3-.5.3-.4 0-.6-.3-.6-.5s0-.4.2-.5c.2-.2.5-.2.7 0 .2 0 .3.3.3.5v.3m.8 2.2s-.2.1-.3 0c-.2 0-.3-.2-.4-.4 0-.1.1-.5.2-.5h.5c.2.1.2.4.2.5 0 0-.1.2-.2.2m1.2-3.1s-.3.1-.4.2c-.2 0-.6 0-.9-.4v-.4c0-.2 0-.6.5-.7.2 0 .5 0 .8.1.2.1.2.3.3.5 0 .3 0 .5-.1.7Zm1.2 1.6-.3.5s-.1.1-.2.1c-.5 0-.6-.2-.6-.4s0-.5.2-.5h.4l.4.2c.1 0 .1 0 0 .2m2.2-1c-.1.2-.3.3-.5.3s-.2 0-.3-.1l-.4-.4c0-.2 0-.5.1-.6.2-.2.5-.2.7-.1.2 0 .4.3.4.6v-.1.5m2.1-1.2c-.1.2-.3.3-.5.2-.2 0-.4 0-.6-.1-.2-.1-.3-.4-.3-.6 0-.2 0-.5.2-.7.2-.2.6-.3.9-.1.2.1.4.4.4.6v.2c0 .2 0 .3-.1.5m.2 1.6c0 .1.2.5.3.5-.3 0-.3-.5-.3-.5m.5.2c-.1.2-.2-.1-.2-.2.2-.1.3 0 .2.2m2.5-1.1s-.2.2-.3.2h-.5c-.2-.1-.3-.3-.3-.5s0-.4.2-.6c.2-.1.5-.2.7 0 .2 0 .3.3.3.5v-.1.2c0 .1 0 .2-.1.3m2-1c-.1 0-.3.1-.3 0h-.6c-.1-.1-.2-.3-.2-.4-.1-.4 0-.8.4-.9.4-.2.7.1.9.4v.2c0 .3 0 .6-.2.8m.4 1.4c0 .2.1.4.2.4-.1 0-.1-.3-.2-.4m.5.1v.1h-.1v.1-.3c.1 0 .2 0 .2.2v-.1.1m-.2-3.2v-.3c0-.4 0-.9.6-1.1.4 0 .7.1.9.3 0 .1.2.3.2.5v.3c0 .4-.2.6-.6.8-.4.2-.9-.2-1-.5m2 2.4c-.4 0-.5-.2-.6-.5-.1-.3 0-.6.2-.7.3-.1.7 0 .8.2v.2c0 .2 0 .5-.4.7m2.3-1.2h-.2c-.2 0-.6 0-.7-.4-.1-.2 0-.4.1-.6.2-.2.5-.3.8-.2.2 0 .3.3.3.5l-.3.6m2.1-1.1c-.2.1-.5.1-.9-.3-.1-.2-.1-.5 0-.7.2-.2.6-.3.9-.1.2 0 .4.3.4.5v-.1.1c0 .3-.2.5-.4.7m1.8-1.2c-.4 0-.7-.2-.9-.6-.1-.6.1-1.1.6-1.2.4-.1.6.1.8.2l.3.3c0 .3 0 .7-.2 1.1-.1.1-.3.3-.6.3m1.6 1.6v.1h-.4c-.1.2-.3.2-.3 0-.4-.4-.2-.6-.1-.7.1-.2.5-.2.7-.1.2 0 .3.3.2.6m2-1.3s0 .2-.1.2l-.5.2h-.2c-.2-.2-.2-.4-.2-.6 0-.2.1-.3.4-.4.2 0 .5 0 .6.4v.3m1.8-1h-.5c-.2-.1-.3-.3-.2-.5 0-.2 0-.5.3-.6.2-.1.6 0 .7.3v.2c0 .1 0 .4-.3.6m2.1-1.3h-.6c-.2-.1-.2-.2-.2-.3-.1-.4 0-.6.2-.7.2-.1.5-.1.7 0 .2.1.3.4.2.6 0 .5-.2.6-.2.6m2.3-1.6c-.1.1-.3.2-.4.2-.4.1-.7 0-.9-.4v-.3c0-.2 0-.6.5-.9.4 0 .6.1.8.4 0 .1.1.3.1.4v.2c0 .1 0 .3-.1.4m2.4.8c-.1-.2 0-.5 0-.6v.1c0 .1 0 .3.1.4v-.4h.1-.2v.1c.1.1.2.2.3.2-.3 0-.5 0-.5-.2m3.1-1c0 .2-.2.4-.4.4s-.3 0-.5-.2l-.1-.4c0-.2.1-.3.4-.4.2 0 .5 0 .6.4v.3m1.8-.9h-.2c-.1 0-.4 0-.5-.3-.1-.2 0-.5 0-.7.1-.2.4-.3.6-.2 0 0 .3.1.4.4 0 .2 0 .5-.3.7m2-1.1h-.4c-.1 0-.6-.2-.4-.5-.2-.4 0-.6 0-.7.2-.2.5-.2.7-.1.3.1.4.3.4.6s-.2.6-.5.7m-54.2 26.4v.1" fill="#fd0"/><path d="M116.8 170c.3-.1.6-.4.6-.8s-.6-.8-1-.8-.6.6-.6 1c.2.4.6.7 1.1.6m-1.5-2.6s.3-.2.2-.5c0-.4-.6-.1-.7.2 0 .2.3.3.5.3m8.6.6c.1 0 .3-.2.2-.5 0-.1 0-.2-.2-.2-.4.2-.4.6 0 .7m-5.2.5c0-.2.3-.3.3-.6s-.3-.5-.6-.6c-.2.2-.5.5-.5.8.2.2.4.5.8.4m-5.4.2c0-.1.4-.3.4-.5-.2-.6-.9-.6-1 0 .1.2.3.4.6.4m13.9.6c.2-.2.7-.4.6-.8 0-.4-.9-.8-1-.2-.4.3 0 .9.5 1m-16 .7c0-.1.2-.3.3-.5-.2-.3-.8-.5-.8.1 0 .2.2.4.5.4m3.2 1.2c.4-.2.8-.5.7-1-.2-.4-.5-.5-.8-.5-.3.1-.6.4-.6.8.2.3.4.7.8.7m-1.8.8v-.4c0-.2-.3-.5-.6-.4-.2.2 0 .7.5.8m59.6-7.3c.2 0 .3-.3.3-.5-.2-.2-.3-.4-.5-.4-.2.2-.6.3-.5.6 0 .2.4.6.7.3m1.9-1.3s.3-.2.3-.4c-.1-.2-.3-.3-.4-.3-.6.2-.2.6 0 .7m-9.4 3.1c.2-.1.5-.4.4-.7-.3-.5-.9-.3-1 .2 0 .2.4.5.7.5m-5.2-.2c-.1 0-.2-.2-.3-.2-.2 0-.4.3 0 .5.2 0 .2-.2.4-.3m21.9-4.5c.2-.2.4-.3.4-.5-.2-.6-.9-.4-.9 0 0 .2.3.6.6.4m-49.2 6.9c.1-.1.5-.2.4-.5-.1-.2-.3-.3-.5-.3-.2.1-.4.3-.3.5 0 .2.2.3.4.3m51.3-8.5c-.1-.4-.6-.2-.5.2 0 .1.2.2.3.2 0 0 .3-.2.2-.4m8.7-2.6c.1.2.4.4.6.4.3 0 .4-.4.4-.6-.2-.8-1-.4-1 .2M147 168.3c-.2-.1-.3-.4-.5-.4-.2.1-.5.5-.2.7.3.4.6 0 .7-.3m-5.7.8c.3 0 .5-.3.5-.6-.3-.5-.9-.4-1 0 0 .2.3.5.6.5m8.6.9c.3-.2.5-.5.5-1-.2-.2-.5-.6-.9-.5-.2.2-.6.5-.5.9 0 .3.5.7.9.6m-14.2-.3c.4 0 .7-.4.6-.8 0-.3-.4-.4-.7-.5-.3.1-.6.4-.5.8 0 .2.4.5.6.5m21.6-1.6c.2-.1.6-.3.5-.6-.2-.2-.4-.6-.7-.4-.2 0-.5.2-.4.5 0 .3.3.5.6.5m-5.5.2c.2-.1.4-.2.4-.5-.2-.5-.8-.2-.8.2 0 .1.2.4.4.3M134.5 98c-.5.4-2.1 2-2.6 1.3-.3-.5.4-1.1.4-1.1l-6.6-.9-1.1 3.4 1.4 1-1.6 9.4 4.1 2.7 3.7-4.1-1.6-1.5s-1.1 1-1.5 0c-.1-.3.5-1.9.9-3.1.4-1.2 1.3-3.5 2.1-2.1.7 1.2 1.3 3.3 1.3 3.3l2.4-3-.4-4.4s-.7-.5-1.1-.9m56.5-1.3c-.5.3-2.3 1.8-2.7 1-.3-.5.5-1.1.5-1.1l-5.7-1.5-1.5 3.2 1.3 1.1-2.6 9 3.9 3 4.1-3.7-1.4-1.6s-1.1.9-1.4 0c0-.3.2-1.8.8-2.9.6-1.1 1.4-2.8 2-1.9.7 1.2.9 3.3.9 3.3l2.7-2.7v-4.4l-1-1m-71.1-7c-1.7 0-3 1.3-3 2.8s1.4 2.8 3 2.8 3-1.3 3-2.8c0-1.6-1.4-2.8-3-2.8m-.4 19.6c-.6-.6 2.1-8.9 2.1-8.9l-6.9-1.9-.9 3.3 1.4 1.4-.9 9.9s3.9 2.3 4 2.3 3.4-5 3.4-5l-1.3-1.4s-.5.9-1.1.4M176.9 87c-1.7 0-3 1.3-3 2.8s1.4 2.8 3 2.8 3-1.3 3-2.8-1.4-2.8-3-2.8m-.4 19.3c-.6-.6 2.1-8.7 2.1-8.7l-6.3-1.9-.9 3.2 1.4 1.4-1.2 9.5s3.6 2.4 3.8 2.4 3.4-4.8 3.4-4.8l-1.3-1.4s-.6.9-1.1.3m-18.3-18.1-6.8 12.8-.6-.5s-.2-6.2.4-11l-6.8 4.1-.6 5.1s-.5.6-1.2 1.6c0-1.7-.3-13.6-.3-13.6l-6.3 4.4v2.7c.1 0 1.6.2 1.6.2.7 6 1.2 13.9 1.4 16.2.6.5 4.2 2.3 4.2 2.2s3.4-7.8 3.4-7.8l1.3 8 4.6-2.3s6.9-16.3 8.2-18.3c.6-.2 2.5-.4 2.5-.4l.5-3.9-5.6.6Zm8.6 17.7s.7-3.8 2.8-9.2l-6-1.2-2.8 3.2 1.4.9s.4-.4.8-.6c.7-.4 1 .5.5 1.4-2.7 1.9-5.9 4-8.1 7l2.1 4.9 5.7-1.8 2.7 2.1 3.4-4.2s-.7-1.2-1-1.9c-1.1.9-1.6 0-1.4-.7m-4.2 1.7s-2.2 1-3.3 1.3c-.3 0-.8.2-.8-.1 0-1.4 4.7-4.4 4.7-4.4l-.5 3.2Zm-52.9 6.1c-.5-3.9.4-21 .5-21.3-.7.2-6.4 1.8-6.4 1.8l-7.3 19.3-1.9-.3-1.4 3.2 5.5 3.6 2.9-7.6 3.1.7c.3 3 .9 6.3.9 6.3l6.3-3.2v-3s-1.8.2-2.2.3m-5.4-4.4-1.7-.4 2.2-6-.4 6.4ZM43.4 84v17.4c-.1 4.7-7.6 3.8-7.6 3.8V80.1s7.5-.8 7.6 3.8m121.4 67.6c-7 1.1-13.9 1.9-20.9 2.4l.3 2.1c6.9-.5 13.9-1.3 20.8-2.4l-.2-2.1Zm.7 6 .2 1.9c-3.4.8-15.7 2.1-20.8 2.4l-.2-2c6.9-.5 13.8-1.3 20.8-2.4m-.1-.8c-6.9 1.1-13.9 1.9-20.8 2.4l-.3-2.1c6.9-.5 13.9-1.3 20.8-2.4l.2 2.1Zm-.7-6.1c-7 1.1-13.9 1.9-20.9 2.4l-.3-2.1s3.8-.7 3.6-4.1c0-.5-.8-5.8-.9-6.6-.4-2.5-3.4-1.7-3.4-1.7s-1.2-9.5-1.1-9.5c.8 0 3-.3 2.7-2.8-.3-2.2-.9-7.2-.9-7.2l13.1-1.5s.6 5 .8 7.2c.3 2.5 2.5 2.1 3.3 2l1.2 9.5s-3 0-2.8 2.6c.1.8.7 6.1.8 6.6.6 3.3 4.4 3 4.4 3l.3 2.3ZM50.2 114.4H16.1v-9.5s5.7 0 6-4.8V85.2c-.2-4.8-6-4.8-6-4.8v-9.5h34.1s6.8 0 7 7.1v29.2c-.2 7.1-7 7.1-7 7.1M43.4 84c-.1-4.6-7.6-3.8-7.6-3.8v25.1s7.5.8 7.6-3.8V84Zm15.9 22.8v7.2h11.5v-7s-1.6 0-1.6-1.7V101c0-3.3 3.4-3.4 3.4.2v1.3h6.5v-3.1c0-7.6-6.8-8.2-10.4-4.3v-2.3h-9.5v5.7s1.5 0 1.5 1.7v5c0 1.6-1.5 1.7-1.5 1.7m14.1 7.1h6.2v-7h-6.2v7ZM35.8 80.1v25.1s7.5.8 7.6-3.8V83.9c-.1-4.6-7.6-3.8-7.6-3.8m68.7 74.3H72c.3.9.7 1.6 1.2 2.3 11.1 0 22-.1 31.4-.1v-2.1Zm0 6.1v2.1H89.7v-2h14.8Zm0-.9H89.7v-.7c-.1.2-.3.5-.5.7H75.8c-.8-.6-1.4-1.4-2-2.1h30.7v2Zm-27.4 1.1h11.1c-2.3 1.6-6.4 2.2-9.5.8-.6-.2-1.1-.5-1.6-.8m25-12v-19.3H89.7v3.7c-1.4-2.8-7.1-4.3-11.1-2.6-6 2.7-8.4 9.2-8.3 15.5 0 2.6.4 5.2 1.3 7.5 11.6 0 23.1-.1 32.9-.1v-2.1s-2.4-.1-2.4-2.6M87 151.4c-2 0-3.7-3-3.7-6.8s1.7-6.8 3.7-6.8 3.7 3 3.7 6.8c0 3.7-1.6 6.8-3.7 6.8m-19.1-.2s-6.1.1-6.2-3.8c0-3.9-.1-12.6 0-15.6.1-5.1 6-4.9 6-4.9v-9.1H50l-8.2 15-8.1-15H16.1v9.1s6-.2 6.2 4.9v15.6c0 3.9-6.4 3.8-6.4 3.8v2.6c4.5 0 12.6 0 22.4-.1v-2.3s-3 0-3-2.6v-5.4l6.6 8.4 6.6-8.4v5.4c0 2.6-3 2.6-3 2.6v2.2c7 0 14.7 0 22.4-.1v-2.3Zm-52.2 9.7h22.5v2H15.7v-2Zm0-6.1h22.4v2c-9.9 0-17.9 0-22.4.1v-2.1Zm0 3.1h22.5v2c-9.9 0-18 0-22.5.1v-2.1Zm52.2-1.2c-7.7 0-15.4 0-22.5.1v-2.1h22.4v2Zm0 4v2.2H45.4v-2.1h22.5Zm0-.9c-7.7 0-15.4 0-22.5.1v-2.1h22.5v2Zm58.7-5.5h-17.9v2.2h17.9v-2.1Zm0 5.2h-17.9v-2.1h17.9v2.1Zm0 .9v2.1h-18v-2h18Zm0-7.1h-17.9v-2.1s2.4-.1 2.4-2.6v-7.8c0-2.5-2.4-2.6-2.4-2.6v-8.9h14.8v3.7c5.7-6 16.2-5.2 16.2 6.8v4.8h-10v-2c0-5.7-5.4-5.5-5.4-.3v6.7c0 2.5 2.4 2.6 2.4 2.6v1.7Zm140.8-39.4c0-.1 0-.2-.1-.3-7.8 4.8-16.4 9.5-25.6 13.9l.9 1.8c9-4.3 17.5-8.9 25-13.7 0-.6-.1-1.1-.3-1.6m0 4.8c-7.1 4.5-15 8.8-23.4 12.8l-.9-1.6c8.9-4.2 17.1-8.8 24.6-13.4v.2c0 .7-.2 1.4-.4 2m-16.4 3.1c-3.1 1.6-6.3 3.2-9.6 4.8l-1.1-2.1s7.8-4.1 9.1-4.8c.2.2.6 1.4 1.3 2 .1.1.2.2.3.2m16.1-9.3c-3.7 2.3-7.5 4.6-11.6 6.8 0-.3-.1-.6-.3-.9-.9-1.6-1.9-2-8.4.2-1.9.6-7.9 2.1-11.8-1.9-.8-.9-1.7-2.3-2.1-3.2-2.6-5.9 2.2-10.8 5.3-12.7 1.4-.8 15.4-8.1 15.4-8.1l4.9 9.1s-8.4 4.4-9.8 5.2c-.3-.3-.6-1.2-1.2-1.4-1.4-.5-4.2 1.1-4.2 2.4 0 .5.3 1.1.5 1.3.6.4 1.7.8 5.3-.6 12.9-4.9 16.5.4 18 3.9m-.1 7.5s0 .2-.1.2c-1 2.1-2.8 4.1-5.8 5.7-1.5.8-12.4 6.6-15.5 8.2l-1-1.9c8-3.9 15.6-8 22.4-12.3m-61.6 26.9c5.8-1.8 11.4-3.8 16.9-5.9l-.7-1.8c-5.5 2.1-11.2 4.1-17 5.9l.7 1.9Zm34.1-13.2c-4.6 2.1-9.4 4.2-14.3 6.1l-.7-1.8c4.9-1.9 9.7-4 14.4-6.1l.7 1.7Zm.3.9.7 1.7c-2.5 1.3-11.9 5.2-14.3 6.2l-.7-1.8c4.9-2 9.7-4 14.3-6.2m-36.3 7.7c5.8-1.8 11.5-3.8 17.1-5.9l.7 1.9c-5.6 2.1-11.2 4.1-17 5.9l-.8-2Zm33.9-13.9c-4.7 2.1-9.5 4.1-14.4 6.1l-4.4-11.1c-1.8-4.7-6.9-3-5 1.9.8 2.1 1.7 4.2 2.4 6.2.8 2.2 3.2 1.5 3.2 1.5l.9 2.5c-5.6 2.1-11.3 4.1-17.1 5.9l-.8-1.9s2.1-1.4 1.3-3.5c-.6-1.7-1.9-5.1-2.7-6.9-1.1-2.8-3.3-1.8-3.3-1.8l-3.2-8.3 13.7-5.3s1.3 3.3 1.3 3.4c1.2-2.7 5.1-5.9 8.7-6.8 8.3-2 10.6 4 15 14.5 1 2.4 3.1 1.3 3.1 1.3l.9 2.4Zm1.1 2.8c-4.6 2.1-9.4 4.2-14.4 6.1l-.8-1.9c4.9-1.9 9.7-3.9 14.4-6.1l.7 1.9Zm-32.8 16.6c5.8-1.8 11.4-3.8 16.9-5.9l.7 1.8c-1.6.6-15.3 5.6-16.9 6.1l-.8-1.9Zm-23.5-.7c-4.3 1-8.7 1.9-13.1 2.6 0-.2-.1-.4-.2-.5-.6-1.7-2.2-7.6-2.8-11.3-2.8-16.8 25.4-20.5 28.4-9.2l2.3 8.5-16.7 4.3 1.1 4.4c.2.5.4.8.8 1.1m-2.7-9.5 5.4-1.3s-.7-3-1-3.9c-1-2.8-5.9-1.6-5.3 1.3.2 1.1 1 4 1 4m18.2 3.2-11.1 2.8.6 2.4c3.7-.9 7.4-1.9 11.1-3l-.6-2.1Zm1.5 6c-9.2 2.7-18.5 4.9-28 6.6.6.6 1.2 1.2 2 1.7 8.9-1.7 17.8-3.9 26.4-6.4l-.5-2Zm-.7-3c-9.5 2.8-19.1 5.1-28.9 6.8.3.6.6 1.3 1 1.9 9.6-1.7 19.1-4 28.4-6.7l-.5-2ZM174.3 156c1.2.6 3 1.2 6 .7 4.4-.8 15.1-3.5 19.8-4.9l-.5-2.1c-8.3 2.5-16.8 4.6-25.3 6.2" fill="#fd0"/><path d="M123.2 198.4c-1-.4-1.6-.2-2.1 1 0 .2-.2.4.1.5h1.5c.4-.2.9-.4 1.1-.7.1-.4-.2-.7-.6-.8m53.1-3.3c-.3 0-.6 0-.8.2-.3.2-.4.4-.5.7 0 .3 0 .6.2.9.2.3.4.5.7.6.3 0 .6 0 .8-.2s.4-.4.5-.7v-.2c0-.2 0-.5-.2-.7-.2-.3-.5-.5-.7-.6m-53.9 5.9h-1.3c-.3 0-.5 0-.6.3-.5 1.2-.2 1.6.7 1.9.7.3 1.6.4 1.8-.3.2-.6-.3-1.8-.6-1.9m76.1-45.5c-4.2 24.4-26.9 43.1-54.1 43.1s-43.3-13.7-51.2-33H85c7.6 26.9 31.3 46.6 59.4 46.6s58.9-25.9 61.6-59.1l-7.5 2.4ZM103 190.8l-.6-.6 1.2-1.8s0-.1.2-.2c-.1 0-.2.1-.2.1l-1.9 1.1h-.1l-.6-.6v-.1l1.7-3.4.7.7-1.1 1.9v.1l2-1.2h.1l.7.7-1.1 1.8v.1h.2l1.9-1h.1l.6.7-3.4 1.6m2.4 2.6-.7-.6v-.1l2.4-2.7.7.6v.1l-2.4 2.7m3 2.4h-.1l-.7-.6s1.7-2.1 1.8-2.3c-.1-.1-1-.8-1-.8l.4-.5h.1l2.8 2.2v.1l-.4.5s-.8-.6-1-.7c-.1.1-1.8 2.3-1.8 2.3m7.2.4-1.9 3-.8-.5s.7-1.1.8-1.3c-.1 0-1.1-.7-1.3-.8 0 .1-.8 1.3-.8 1.3h-.1l-.8-.5 1.9-3 .8.5s-.6.9-.7 1.1c.1 0 1.1.7 1.3.8 0-.1.7-1.1.7-1.1l.8.5v.1m9.6 3.3c-.4.9-1.7.9-1.8 1.2-.1.3 1.2 1.6.7 3-.3.8-1.2 1.3-2.9.7l-3-1.3c-.2-.1-.6 0 .6-3.2 1.6-4.1 2-3.7 2.2-3.6l2.6 1.1c1.8.7 1.8 1.5 1.6 2.1m5.8 4.7c-.5 2-2.2 2.5-3.4 2.1s-2.4-1.6-1.9-3.6c.4-1.4 1.5-2.6 3.4-2.1 1.8.5 2.2 2.2 1.9 3.6m6.3.9c-.5 3.2-.7 3-1.5 2.9-1.1-.2-.2-.5-.8-.6 0 0-.4.1-.6.2-.2 0-.5.1-.8 0-.9-.1-1.6-.7-1.3-3.2 0-.1.5-2.8.9-2.7l1 .2c.1 0 .4 0 .4.2 0 .1-.6.9-.9 2.6 0 .5-.3 1.8.6 2 .4 0 1.2 0 1.5-1.8.2-1.1 0-2.4 0-2.6 0-.1.3 0 .4 0l1 .2c.4 0 .2 1.9 0 2.7m6.8 0c-.1 3.5-.5 3.3-.8 3.3h-.9c-.1 0-.4 0-.4-.2 0 0 .6-1.2.7-3 0-.6 0-1.4-.8-1.4-.4 0-1.3.2-1.3 1.9 0 1.1.2 2.4.2 2.5s-.2.1-.3.1h-.9c-.4 0-.6.1-.5-2.2.1-4 .5-3.8 1.4-3.7.4 0 .8 0 .8.2 0 0-.1.2-.1.3 0 0 0 .2.2.2s.7-.3 1.4-.3c.3 0 1.6 0 1.5 2.4m3.9 3.1c-1.8.1-2.6-1.2-2.7-2.5-.1-1.5.7-3.3 2.9-3.5.9 0 1.6.3 1.7.8 0 .3-.2.8-.6.8-.2 0-.2-.6-1.1-.6-1.1 0-1.4 1.3-1.4 2.1 0 .9.6 1.5 1.6 1.5 1.2 0 1.4-1 1.5-1 0 0 .2.1.2.5 0 1-.7 1.8-2 1.9m2.8-7.4c0-.4.3-.7.7-.7.4 0 .9.1.9.5s-.3.6-.8.7c-.4 0-.9 0-.9-.5m2.2 6.7h-.7c-.5.2-.5.4-1-2.7-.4-3-.2-2.7.1-2.8h.6c.4-.2.5-.1.5 0v1.6c.3 2.2.9 3.5.9 3.6 0 .3-.3.3-.5.3m6.6-1.4-.9.2c-.1 0-.4.1-.4 0 0 0 .3-1.4-.1-3.1-.1-.6-.4-1.4-1.1-1.2-.4.1-1.2.5-.8 2.2.2 1 .8 2.3.9 2.4 0 .1-.2.1-.3.2l-.9.2c-.4.1-.5.3-1-2-.9-3.9-.4-3.8.4-3.9.4-.1.8-.2.8 0v.3s0 .1.2.1.6-.5 1.3-.7c.3 0 1.5-.3 2 1.9.8 3.4.4 3.3 0 3.4m7.5-1.5c-.2.6-.8 1.1-1.4 1.4-1.4.6-2.8.5-3.4-.4-.3-.5-.2-.9-.2-1.3-.4 0-.8-.2-1-.6-.3-1 .8-1.5.7-1.7 0-.2-.9-.3-1.2-1.2-.4-1.1.2-2.1 1.6-2.6.4-.1.6-.1.6-.2.5-.2.5-1 .9-1.2.3-.1 1 .3 1.1.4 0 .2-.9.4-.8.8 0 .2.7.2 1 1.1.3.9 0 2-1.6 2.6-.6.2-1.1.7-1.1 1 0 .1.2.2.3.2.2 0 .4-.4.9-.6 1.6-.8 2.9-.1 3.4.7.4.7.2 1.3.2 1.6m6.4-5.4c-.2.4-.5.7-1 1-.5.3-1 .4-1.4.4-.4 0-.7-.2-.9-.6v-.1l.8-.4h.1l.3.2c.2 0 .4 0 .7-.2l.4-.3c.2-.2.2-.4.1-.4 0 0 0-.1-.2-.1h-.6c0 .1-.4.3-.4.3l-1 .2c-.4 0-.7-.2-.8-.5-.2-.3-.2-.6 0-1 .1-.3.5-.7 1-.9.4-.2.8-.3 1.2-.3.4 0 .7.2.9.6l-.8.4h-.1c-.1-.1-.2-.2-.4-.2l-.5.2-.4.4v.3s0 .1.2.1h.6c0-.1.8-.4.8-.4h.8c.3-.1.6 0 .8.4.2.3.2.7 0 1m4-3c-.1.4-.5.8-1 1.2-.5.4-1 .5-1.5.5-.6 0-1.1-.4-1.4-.9-.4-.6-.5-1.1-.3-1.7.1-.4.5-.9 1-1.2.5-.4 1-.5 1.5-.5.6 0 1.1.3 1.4.9.2.4.4.8.4 1.1v.5m4.2-2.7-2.4 1.9h-.1l-2.2-2.8v-.1l.7-.6s1.7 2.1 1.8 2.2c.1-.1 1.6-1.3 1.6-1.3h.1l.4.5m3.4-2.8-2.4 2.2h-.1l-2.4-2.6v-.1l2.3-2.1h.1l.4.5s-1.4 1.3-1.6 1.5l.4.4 1.4-1.4.4.5s-1.3 1.2-1.4 1.3c0 .1.4.4.5.6.1-.1 1.7-1.5 1.7-1.5h.1l.4.5m3.2-3.3c0 .4-.3.8-.7 1.2-.4.4-.8.7-1.2.8-.4.1-.8 0-1.1-.2l.6-.6h.4c.2.1.4 0 .6-.3l.3-.4c.1-.3 0-.4 0-.5h-.2l-.5.3-.4.3-.9.5c-.4.1-.7 0-1-.2-.3-.2-.4-.6-.3-.9 0-.4.3-.8.6-1.2.3-.4.7-.6 1.1-.7.4-.1.8 0 1.1.2l-.6.6h-.1c-.1-.1-.3-.1-.5 0l-.4.3-.3.5v.3h.2l.5-.3.6-.5.7-.4c.3 0 .6 0 .9.2.3.2.4.6.3 1m-59.2 14.4c-1-.3-1.6.6-1.8 1.3-.2.7-.2 1.7.9 2s1.6-.6 1.8-1.3c.2-.7.1-1.7-.9-2m35.1 1.7c-.8.4-1 1-.7 1.6.4.6 1.1.7 1.8.4.7-.4 1-1 .7-1.6-.4-.6-1.1-.7-1.8-.4m-.8-2.5c.6-.2.9-.7.7-1.2-.2-.5-.7-.7-1.3-.5-.6.2-.9.7-.7 1.2.2.5.7.7 1.3.5" fill="#fd0"/></svg>