<svg xmlns="http://www.w3.org/2000/svg" xmlns:xlink="http://www.w3.org/1999/xlink" version="1.2" viewBox="0 0 283.465 283.465" baseProfile="tiny-ps">
  <title>Sortter</title>
  <rect width="283.465" height="283.465" fill="#FFFFFF"/>
  <g id="Layer_1-2-2">
    <path d="M23.713,235.418c0.256-3.557,2.145-6.795,5.115-8.768c3.899,2.956,8.669,4.536,13.562,4.492   c5.303,0,7.37-1.7,7.37-4.281c0-2.58-1.178-3.827-9.506-5.958c-7.993-1.916-14.996-5.019-15.065-14.515   c0-9.066,7.223-14.891,18.122-14.891c8.19,0,13.635,2.654,16.435,4.863c-0.215,3.387-2.044,7.164-5.115,8.924   c-3.546-2.436-7.757-3.719-12.058-3.676c-4.336,0-6.701,1.627-6.701,3.836s1.022,3.387,9.506,5.454   c8.846,2.214,14.882,5.958,15.038,14.442c0.225,10.234-6.93,15.918-18.283,15.918C32.628,241.235,26.784,238.072,23.713,235.418z" fill="#182678"/>
    <path d="M63.065,222.595c0-11.256,8.117-18.718,19.25-18.718s19.085,7.297,19.085,18.718   c0,11.197-8.085,18.64-19.25,18.64S63.065,234.149,63.065,222.595z M90.34,222.595c0-5.752-2.947-9.506-8.108-9.506   s-8.186,3.754-8.186,9.506s3.071,9.51,8.186,9.51C87.347,232.105,90.34,228.264,90.34,222.595z" fill="#182678"/>
    <path d="M129.128,205.627c0.04,3.263-1.044,6.439-3.071,8.997c-1.388-0.398-2.823-0.605-4.267-0.614   c-1.846-0.06-3.681,0.289-5.376,1.022v25.024c-3.643,0.589-7.357,0.589-11,0v-30.708c2.429-2.214,7.792-5.119,15.468-5.119   C123.687,204.256,126.471,204.727,129.128,205.627z" fill="#182678"/>
    <path d="M162.521,237.261c-3.199,2.601-7.217,3.983-11.339,3.9c-8.034,0-14.084-3.387-14.084-11.916v-14.611   h-5.926c-0.489-2.976-0.489-6.012,0-8.988h5.958v-9.208c1.856-0.295,3.731-0.448,5.61-0.458c1.777,0.006,3.551,0.159,5.303,0.458   v9.208h12.278c0.325,1.425,0.5,2.879,0.523,4.34c-0.022,1.562-0.197,3.119-0.523,4.647h-12.269v11.861   c0,3.983,1.833,5.312,5.115,5.312c1.817-0.064,3.548-0.793,4.863-2.049C160.475,231.553,162.095,234.257,162.521,237.261z" fill="#182678"/>
    <path d="M195.076,237.261c-3.203,2.6-7.223,3.982-11.348,3.9c-8.025,0-14.071-3.387-14.071-11.916v-14.611   h-5.958c-0.244-1.516-0.368-3.048-0.371-4.583c0.014-1.481,0.138-2.96,0.371-4.423h5.958v-9.189   c1.851-0.295,3.722-0.448,5.596-0.458c1.78,0.006,3.557,0.159,5.312,0.458v9.208h12.269c0.323,1.425,0.497,2.879,0.518,4.34   c-0.023,1.562-0.197,3.118-0.518,4.647h-12.283v11.861c0,3.983,1.833,5.312,5.115,5.312c1.822-0.06,3.558-0.79,4.877-2.049   C193.005,231.545,194.64,234.251,195.076,237.261z" fill="#182678"/>
    <path d="M230.449,225.317h-23.287c0.669,4.945,3.392,7.164,8.63,7.164c4.423,0,7.585-1.769,10.317-3.538   c2.247,1.863,3.672,4.535,3.969,7.439c-4.439,3.371-9.901,5.117-15.473,4.945c-10.83,0-18.635-6.714-18.635-18.425   c0-11.05,7.792-18.791,18.264-18.791c9.877,0,16.582,6.265,16.582,16.069C230.838,221.899,230.716,223.618,230.449,225.317z    M220.426,219.175c0-3.387-1.613-6.476-6.137-6.701c-4.198,0-6.632,2.722-7.164,6.701H220.426z" fill="#182678"/>
    <path d="M259.75,205.627c0.049,3.256-1.017,6.43-3.02,8.997c-1.391-0.403-2.832-0.609-4.281-0.614   c-1.847-0.06-3.684,0.289-5.381,1.022v25.024c-3.643,0.589-7.357,0.589-11,0v-30.708c2.434-2.214,7.792-5.119,15.464-5.119   C254.328,204.26,257.101,204.732,259.75,205.627z" fill="#182678"/>
  </g>
  <path d="M202.785,132.094l-6.82-5.057l-4.964-3.688  c-0.016-0.016-0.017-0.042-0.001-0.058c0,0,0.001-0.001,0.001-0.001l11.884-8.814c0.775-0.574,1.273-1.447,1.375-2.406  c0.11-1.256-0.453-2.477-1.48-3.208l-11.348-8.419c-0.016-0.016-0.017-0.042-0.001-0.058c0,0,0.001-0.001,0.001-0.001l10.601-7.792  c1.02-0.743,1.685-1.877,1.833-3.13c0.16-1.67-0.587-3.298-1.957-4.267l-57.29-42.202c-1.619-1.166-3.806-1.151-5.408,0.037  L82.053,85.194c-1.02,0.743-1.684,1.877-1.833,3.13c-0.163,1.659,0.573,3.279,1.93,4.249l10.244,7.576  c0.015,0.013,0.017,0.037,0.003,0.052c-0.001,0.001-0.002,0.002-0.003,0.003l-11.811,8.708c-0.775,0.577-1.273,1.451-1.375,2.411  c-0.117,1.27,0.453,2.505,1.494,3.24l11.199,8.241l0.635,0.468c0.015,0.012,0.02,0.034,0.008,0.05  c-0.002,0.003-0.005,0.006-0.008,0.008l-11.916,8.809c-0.776,0.576-1.274,1.45-1.375,2.411c-0.014,0.159-0.017,0.317-0.01,0.473  c0.042,1.095,0.587,2.119,1.495,2.762l59.124,43.619c1.228,0.9,2.897,0.9,4.125,0l20.24-15.015l38.673-28.682  c0.773-0.576,1.271-1.448,1.375-2.406C204.375,134.046,203.812,132.825,202.785,132.094z" fill="#FFFFFF"/>
  <g>
    <path id="Rectangle-2" d="M80.701,114.563l11.834,8.708c0.016,0.012,0.02,0.035,0.008,0.051   c-0.002,0.003-0.005,0.006-0.008,0.008l-11.916,8.809c-0.775,0.576-1.274,1.45-1.375,2.411c-0.11,1.257,0.455,2.479,1.485,3.208   l59.124,43.619c1.228,0.9,2.897,0.9,4.125,0l58.895-43.678c0.774-0.573,1.272-1.444,1.375-2.402   c0.108-1.256-0.455-2.476-1.48-3.208l-11.765-8.74c-0.016-0.016-0.017-0.042-0.001-0.058c0,0,0.001-0.001,0.001-0.001l11.884-8.814   c0.775-0.574,1.273-1.447,1.375-2.406c0.11-1.256-0.453-2.477-1.48-3.208l-11.348-8.419c-0.016-0.016-0.017-0.042-0.001-0.058   c0,0,0.001-0.001,0.001-0.001l10.601-7.792c1.02-0.743,1.685-1.877,1.833-3.13c0.16-1.67-0.587-3.298-1.957-4.267l-57.29-42.202   c-1.619-1.166-3.806-1.151-5.408,0.037L82.053,85.194c-1.02,0.743-1.684,1.877-1.833,3.13c-0.163,1.659,0.573,3.279,1.93,4.249   l10.377,7.355c0.015,0.013,0.172,0.097,0.159,0.112c-0.001,0.001-12.103,8.872-12.103,8.872c-0.775,0.577-1.273,1.451-1.375,2.411   C79.09,112.592,79.66,113.828,80.701,114.563z" fill="#6173EB"/>
    <path id="Rectangle" d="M143.959,88.471c-1.227-0.903-2.898-0.903-4.125,0   l-59.215,43.697c-0.775,0.576-1.274,1.45-1.375,2.411c-0.11,1.257,0.455,2.479,1.485,3.208l59.124,43.619   c1.228,0.9,2.897,0.9,4.125,0l20.24-15.015l38.673-28.682c0.773-0.576,1.271-1.448,1.375-2.406c0.11-1.256-0.453-2.477-1.48-3.208   L143.959,88.471z" fill="#00B3FF"/>
    <path d="M143.959,65.247c-1.228-0.9-2.897-0.9-4.125,0l-59.215,43.697   c-0.775,0.577-1.273,1.451-1.375,2.411c-0.107,1.257,0.457,2.477,1.485,3.208l59.124,43.614c1.228,0.9,2.897,0.9,4.125,0   l58.895-43.701c0.774-0.573,1.272-1.444,1.375-2.402c0.108-1.255-0.452-2.474-1.476-3.208L143.959,65.247z" fill="#00C6FF"/>
    <path d="M144.623,43c-1.618-1.171-3.807-1.16-5.413,0.028L82.053,85.194   c-1.02,0.743-1.684,1.877-1.833,3.13c-0.163,1.659,0.573,3.279,1.93,4.249c0,0,60.838,43.371,62.456,42.166l57.396-42.166   c1.021-0.744,1.686-1.88,1.833-3.135c0.159-1.658-0.576-3.275-1.93-4.244L144.623,43z" fill="#00DEFF"/>
  </g>
</svg>