<?xml version="1.0" encoding="utf-8"?>
<!-- Generator: Adobe Illustrator 24.3.0, SVG Export Plug-In . SVG Version: 6.00 Build 0)  -->
<svg version="1.2" baseProfile="tiny-ps" id="Layer_1" xmlns="http://www.w3.org/2000/svg" xmlns:xlink="http://www.w3.org/1999/xlink"
	 viewBox="0 0 154.17 162.44" xml:space="preserve">
<title>Energy Queensland</title>
<rect x="20.37" y="51.08" fill="#005CAB" width="113.39" height="91.02"/>
<polygon fill="#FFFFFF" points="38.32,115.79 29.28,107.32 28.95,107.32 28.95,122.31 32.15,122.31 32.15,114.4 41.21,122.87 
	41.52,122.87 41.52,107.79 38.32,107.79 "/>
<polygon fill="#FFFFFF" points="47.38,116.39 52.16,116.39 52.16,113.41 47.38,113.41 47.38,110.79 52.96,110.79 52.96,107.79 
	44.02,107.79 44.02,122.31 53.04,122.31 53.04,119.26 47.38,119.26 "/>
<polygon fill="#FFFFFF" points="80.34,107.79 77.55,115.63 74.49,107.32 74.23,107.32 71.19,115.63 68.36,107.79 67.11,107.79 
	64.86,107.79 54.44,107.79 54.44,110.83 59.05,110.83 59.05,122.31 62.52,122.31 62.52,110.83 66.08,110.83 70.92,122.78 
	71.19,122.78 74.23,114.48 77.32,122.78 77.55,122.78 83.58,107.79 "/>
<path fill="#FFFFFF" d="M90.53,107.32c-1.96-0.01-3.84,0.79-5.21,2.2c-2.89,3.1-2.89,7.9,0,11c1.36,1.41,3.24,2.21,5.21,2.21
	c2.33-0.01,4.51-1.12,5.89-3c2.23-3.15,1.97-7.43-0.64-10.28c-1.38-1.41-3.27-2.21-5.25-2.21 M90.53,119.42
	c-2.13,0-3.83-1.88-3.83-4.45s1.7-4.47,3.83-4.47s3.84,1.87,3.84,4.47S92.66,119.42,90.53,119.42"/>
<path fill="#FFFFFF" d="M109.6,112.06c-0.01-1.29-0.64-2.5-1.7-3.24c-1.25-0.9-2.69-1-4.53-1h-3.73v14.52H103v-5.7h0.49l3.88,5.7h4
	l-4.43-6.23c1.65-0.63,2.73-2.23,2.7-4 M103.78,114.51H103v-4h0.57c1.91,0,2.85,0.51,2.85,2s-0.92,2-2.68,2"/>
<polygon fill="#FFFFFF" points="119.26,114.7 124.74,107.79 120.62,107.79 115.82,114.11 115.82,107.79 112.39,107.79 
	112.39,122.31 115.82,122.31 115.82,115.63 120.99,122.31 125.17,122.31 "/>
<path fill="#FFFFFF" d="M125.11,56c-0.52-6-3.94-11.49-9.89-15.92c-5.76-4.29-13.47-7.25-22.29-8.54c0.18-1.35,0.04-2.72-0.4-4
	C90,20,78.31,17.84,66,21.85c-10.2,3.34-17.6,10-18.4,16.37l-0.75,0.36C35,44.38,28.29,53,29,61.53c0.48,5.82,4.21,11,10.78,15
	c5.82,3.56,13.39,5.89,22,6.79l-1.43,5l1.72,0.2c10.54,1.18,21.21,0.28,31.4-2.65C103.4,83,112,78.45,117.64,73
	C123.03,67.77,125.64,61.89,125.11,56"/>
<path fill="#005CAB" d="M106,59.76h0.48c0.34,0,0.66,0.08,0.66,0.43c0.02,0.21-0.12,0.41-0.33,0.46l0.38,0.58h-0.4l-0.33-0.57h-0.09
	v0.57H106V59.76z M106.37,60.37h0.17c0.09,0,0.24,0,0.24-0.16s-0.15-0.16-0.24-0.16h-0.17V60.37z M106.55,59.1
	c0.78,0,1.41,0.63,1.41,1.41s-0.63,1.41-1.41,1.41c-0.78,0-1.41-0.63-1.41-1.41S105.77,59.1,106.55,59.1L106.55,59.1 M106.55,61.6
	c0.6,0.05,1.13-0.4,1.18-1c0.05-0.6-0.4-1.13-1-1.18c-0.6-0.05-1.13,0.4-1.18,1c0,0.03,0,0.06,0,0.09
	C105.53,61.08,105.98,61.57,106.55,61.6"/>
<polygon fill="#005CAB" points="50.43,61.11 50.43,51.14 56.52,51.14 56.52,53.19 52.83,53.19 52.83,54.99 56.22,54.99 56.22,57.05 
	52.83,57.05 52.83,59.06 56.52,59.06 56.52,61.11 "/>
<path fill="#005CAB" d="M65,61.11l-2.48-3.75H62.2v3.75h-2.39v-10h3.28c2.57,0,3.74,1.08,3.75,3c-0.01,1.26-0.81,2.38-2,2.8
	l2.88,4.17L65,61.11z M63.2,53.05h-1v2.73h0.62c2.14,0,2.47-2.73,0.36-2.72"/>
<path fill="#005CAB" d="M77.94,60.75c-1.11,0.5-2.31,0.77-3.53,0.79c-2.84,0.02-5.17-2.27-5.18-5.12c0-0.08,0-0.17,0-0.25
	c-0.09-2.89,2.19-5.3,5.07-5.38c0.13,0,0.25,0,0.38,0c1.17-0.01,2.32,0.31,3.31,0.93l-0.25,2.55l-0.38-0.35
	c-0.71-0.64-1.63-1-2.58-1c-1.66-0.06-3.05,1.23-3.11,2.89c0,0.13,0,0.26,0.01,0.38c-0.14,1.65,1.09,3.1,2.74,3.24
	c0.09,0.01,0.17,0.01,0.26,0.01c0.45,0,0.9-0.08,1.32-0.24v-1.49h-1.87v-2.08h4.31v4.87C78.19,60.61,78.07,60.7,77.94,60.75"/>
<path fill="#005CAB" d="M86.1,61.68c-3.03,0.12-5.58-2.24-5.71-5.27c-0.12-3.03,2.24-5.58,5.27-5.71c3.03-0.12,5.58,2.24,5.71,5.27
	c0,0.08,0,0.16,0,0.24C91.41,59.17,89.06,61.61,86.1,61.68 M86.1,53.16c-1.68-0.15-3.17,1.09-3.32,2.78
	c-0.15,1.68,1.09,3.17,2.78,3.32c1.68,0.15,3.17-1.09,3.32-2.78c0.01-0.09,0.01-0.18,0.01-0.27c0.13-1.55-1.03-2.91-2.58-3.04
	C86.24,53.16,86.17,53.16,86.1,53.16"/>
<polygon fill="#005CAB" points="96.04,55.55 96.04,61.11 93.87,61.11 93.87,50.53 100.53,56.64 100.53,51.18 102.7,51.18 
	102.7,61.66 "/>
<path fill="#005CAB" d="M82.07,71.45l-1.88-2.85h-0.25v2.85h-1.82v-7.54h2.49c2,0,2.83,0.82,2.84,2.26
	c0.01,0.94-0.57,1.79-1.45,2.12l2.18,3.16L82.07,71.45z M80.78,65.34H80v2.07h0.47c1.63,0,1.88-2.06,0.28-2.06"/>
<polygon fill="#005CAB" points="50.41,71.46 50.41,63.91 54.85,63.91 54.85,65.45 52.22,65.45 52.22,66.85 54.57,66.85 54.57,68.39 
	52.22,68.39 52.22,69.91 54.85,69.91 54.85,71.46 "/>
<polygon fill="#005CAB" points="69.54,71.46 69.54,63.91 73.97,63.91 73.97,65.45 71.34,65.45 71.34,66.85 73.69,66.85 73.69,68.39 
	71.34,68.39 71.34,69.91 73.97,69.91 73.97,71.46 "/>
<polygon fill="#005CAB" points="60.56,67.31 60.56,71.47 58.93,71.47 58.93,63.43 63.68,68.1 63.68,63.91 65.31,63.91 65.31,71.77 
	"/>
<path fill="#005CAB" d="M92.91,71.17c-0.83,0.37-1.73,0.57-2.64,0.59c-2.14,0.01-3.88-1.71-3.89-3.85c0-0.05,0-0.1,0-0.15
	c-0.04-2.17,1.69-3.96,3.86-4c0.08,0,0.16,0,0.23,0c0.88-0.01,1.74,0.24,2.48,0.7l-0.19,1.91L92.48,66
	c-0.53-0.48-1.22-0.75-1.94-0.76c-1.26-0.03-2.3,0.97-2.33,2.23c0,0.08,0,0.15,0.01,0.23c-0.11,1.23,0.81,2.32,2.04,2.42
	c0.08,0.01,0.15,0.01,0.23,0.01c0.36,0.02,0.72-0.02,1.06-0.13v-1.18h-1.43v-1.48h3.23V71l-0.44,0.2"/>
<polygon fill="#005CAB" points="100.13,67.85 100.13,71.43 98.21,71.43 98.21,67.85 95.38,63.88 97.69,63.88 99.34,66.17 
	101.1,63.88 103.09,63.88 "/>
<path fill="#009370" d="M123.7,56.1c-1-11.34-13.49-20.63-31.13-23.17l-0.49,1.48c14.54,2.82,25,10.22,25.76,19.7
	C119,67.52,100.34,80,76.27,82c-4.18,0.34-8.38,0.34-12.56,0l-1.44,5c29.81,3.52,63.07-12,61.43-31"/>
<path fill="#005CAB" d="M64.05,80.5l-0.34,1.55c-18.28-1.48-32.27-9.63-33.19-20.64c-0.68-8.26,6.11-16.17,17.06-21.5l0,0
	c0.04,0.75,0.18,1.5,0.42,2.21c0.32,0.9,0.78,1.74,1.37,2.49l0,0C40.33,49.29,34.75,56,35.34,63.08
	C36.14,72.67,48.22,79.08,64.05,80.5"/>
<path fill="#005CAB" d="M91,28c-1.12-3.41-4.77-5.6-9.67-6.34c0,0.15-1.46,5.13-1.46,5.1c-13.92-0.14-18.09,7-14.17,8.89
	c0,0,4.29-2.67,12.51-3.22l-1.72,5.59c-2.35,0-10.37,0.75-10.2,5.28c0.16,4.12,7.61,3,10.19,2.21C86.6,41.38,93,33.87,91,28"/>
<path fill="#009370" d="M61.17,41.91c-0.09-3,3.24-5.49,3.25-5.5c-11.34-5.36,0.42-13.74,11.66-14.85v-0.17
	c-3.28,0.18-6.52,0.8-9.63,1.84C55,27,47.38,35.25,49.48,41.64c1.86,5.65,10.67,8,20.6,5.82C66.2,47.24,61.3,45.85,61.17,41.91"/>
<rect fill="none" width="154.17" height="162.44"/>
</svg>
