<?xml version="1.0" encoding="iso-8859-1"?>
<!-- Generator: Adobe Illustrator 28.0.0, SVG Export Plug-In . SVG Version: 6.00 Build 0)  -->
<svg version="1.2" baseProfile="tiny-ps" id="Layer_1" xmlns="http://www.w3.org/2000/svg" xmlns:xlink="http://www.w3.org/1999/xlink"
	viewBox="0 0 400 400" xml:space="preserve">
	<title>EQL</title>
<rect fill="#FFFFFF" width="400" height="400"/>
<path fill="#023864" d="M341.88,274.533c-1.104-4.518-2.236-9.304-3.396-14.204c-11.119-46.955-17.19-67.535-28.671-67.535
	c-3.685,0-6.462,1.532-8.696,4.335c-0.587-1.929-1.169-3.854-1.745-5.762c-8.681-28.732-12.903-41.416-21.61-40.654
	c-4.38,0.377-7.775,3.562-10.936,15.865c-10.198-71.64-19.203-71.435-23.735-71.327c-5.763,0.134-11.027,3.968-15.683,41.339
	c-0.843-7.336-1.687-14.978-2.533-22.936c-1.971-18.566-3.803-31.742-5.605-40.281c-2.075-9.872-4.331-15.658-9.725-16.009
	c-7.621-0.478-10.25,8.984-18.198,41.952c-1.494,6.205-3.11,12.903-4.855,19.781c-2.068-2.371-4.453-3.335-7.308-3.335
	c-5.978,0-13.15,4.02-22.631,52.041c-4.994,25.297-8.399,51.857-8.914,58.161c-0.225,2.766,1.834,5.191,4.599,5.413
	c0.068,0.006,0.132-0.006,0.199-0.002c0.213,0.014,0.427,0.02,0.643,0.008c0.043-0.002,0.087-0.013,0.13-0.016
	c0.033-0.004,0.066-0.008,0.099-0.013c0.487-0.045,0.98-0.137,1.446-0.319c13.796-5.358,20.01-28.846,30.199-67.331
	c0.544-2.058,1.107-4.185,1.687-6.37c0.704,5.002,1.41,10.588,2.117,16.755l0.177,1.54c8.194,71.49,11.922,94.602,24.76,94.602
	c7.07,0,10.037-9.118,12.767-24.873c1.068-6.17,2.103-13.698,3.115-22.64c7.67,39.453,14.031,44.254,19.977,44.302
	c0.023,0,0.049,0,0.071,0c7.492,0,11.175-10.217,13.782-20.221c0.912-3.493,1.81-7.54,2.694-12.1
	c4.179,22.907,8.814,33.526,16.294,33.526c10.468,0,13.457-13.754,18.803-38.718c13.888,39.535,20.025,47.734,34.677,51.114
	c0.035,0.008,0.068,0.007,0.103,0.013c0.333,0.07,0.673,0.119,1.021,0.119c0.399,0,0.799-0.05,1.203-0.149
	C340.893,279.943,342.543,277.223,341.88,274.533z M175.244,161.131c-5.819,21.985-10.571,39.93-15.762,50.505
	c1.42-10.354,3.573-24.381,6.236-38.339c5.587-29.294,9.947-40.725,12.436-45.062c0.71-1.234,1.747-1.362,2.303-0.123
	c0.659,1.464,1.33,3.525,2.011,6.181C179.805,143.897,177.381,153.046,175.244,161.131z M213.856,256.161
	c-0.287,1.016-1.372,1.139-1.821-0.026c-1.398-3.604-3.312-10.175-5.388-22.19c-2.73-15.807-5.16-37.011-7.733-59.462l-0.177-1.543
	c-1.978-17.252-3.817-29.674-5.91-38.449c3.12-11.415,5.859-22.754,8.287-32.826c1.908-7.911,5.302-20.325,6.894-26.002
	c0.318-1.129,1.323-1.11,1.514,0.062c1.126,7.02,3.227,18.839,5.368,38.989c2.914,27.434,5.655,49.94,8.25,68.428
	C219.519,229.682,215.991,248.525,213.856,256.161z M250.302,254.534c-0.339,0.752-1.128,0.713-1.441,0.104
	c-1.899-3.714-5.199-12.499-9.239-33.163c-2.093-10.711-4.22-23.681-6.37-38.825c0.139-1.821,0.278-3.671,0.417-5.557
	c3.245-43.928,6.776-61.297,9.138-68.129c0.304-0.879,1.141-0.577,1.417,0.09c3.915,9.509,9.963,34.803,15.572,81.18
	c0.446,3.687,0.883,7.221,1.315,10.63C256.704,236.428,252.542,249.614,250.302,254.534z M283.675,256.289
	c-0.415,0.857-1.171,0.838-1.651-0.205c-2.531-5.447-6.178-20.035-10.782-55.307c2.747-22.131,5.214-32.248,6.844-36.87
	c0.112-0.329,0.32-0.531,0.624-0.55c0.318-0.017,0.542,0.25,0.629,0.43c3.135,6.425,7.247,19.984,10.416,30.482
	c1.711,5.662,3.464,11.469,5.294,17.147c-1.227,4.568-2.357,9.844-3.607,15.68C289.333,236.951,286.243,251.003,283.675,256.289z
	 M306.435,213.871c-0.288-0.852-0.57-1.728-0.855-2.591c1.019-3.432,2.086-6.297,3.094-7.629c0.586-0.776,1.275-0.486,1.707-0.006
	c5.874,6.571,13.908,40.328,18.328,58.998c0.322,1.36,0.642,2.709,0.96,4.05C324.15,261.385,318.211,248.618,306.435,213.871z"/>
<path fill="#023864" d="M58.424,237.64c0-2.13,1.511-3.641,3.638-3.641h13.734c1.924,0,3.228,1.373,3.228,3.228
	c0,1.924-1.304,3.228-3.228,3.228H65.703v14.008h7.829c1.854,0,3.228,1.371,3.228,3.225c0,1.925-1.374,3.23-3.228,3.23h-7.829
	v14.696h10.164c1.921,0,3.228,1.37,3.228,3.224c0,1.858-1.307,3.23-3.228,3.23H62.062c-2.127,0-3.638-1.511-3.638-3.641V237.64z"/>
<path fill="#023864" d="M95.989,256.04c0-1.989-0.961-3.155-2.952-3.155c-1.373,0-2.335,0.616-2.818,1.236v24.994
	c0,2.129-1.371,3.503-3.5,3.503c-2.129,0-3.503-1.374-3.503-3.503V250.41c0-2.196,1.237-3.365,3.298-3.365
	c2.059,0,3.228,1.033,3.363,3.092c0.961-2.405,3.023-3.641,5.975-3.641c4.806,0,7.141,3.368,7.141,8.035v24.584
	c0,2.129-1.371,3.503-3.5,3.503c-2.129,0-3.503-1.374-3.503-3.503V256.04z"/>
<path fill="#023864" d="M126.547,263.872c0,1.713-1.169,2.811-2.747,2.811h-9.613v7.49c0,1.921,1.028,2.949,2.745,2.949
	c1.511,0,2.817-0.754,2.817-2.949v-0.414c0-2.334,1.374-3.365,3.295-3.365c2.267,0,3.366,1.444,3.366,3.433v0.547
	c-0.138,5.015-3.708,8.517-9.478,8.517c-6.248,0-9.748-3.573-9.748-9.615v-16.479c0-6.661,3.638-10.302,9.748-10.302
	c6.045,0,9.616,3.779,9.616,9.891V263.872z M119.679,255.424c0-2.129-1.028-3.09-2.747-3.09c-1.646,0-2.745,0.961-2.745,2.952v5.838
	h5.492V255.424z"/>
<path fill="#023864" d="M145.568,250.137c0,2.405-1.166,3.846-3.228,3.846c-0.89,0-1.441-0.346-2.264-0.346
	c-0.688,0-1.236,0.138-1.649,0.413v25.065c0,2.129-1.374,3.503-3.5,3.503c-2.129,0-3.506-1.374-3.506-3.503v-28.773
	c0-2.264,1.306-3.297,3.368-3.297c2.264,0,3.158,1.376,3.225,4.259c0.278-3.295,1.582-4.669,4.121-4.669
	C144.403,246.635,145.568,247.871,145.568,250.137z"/>
<path fill="#023864" d="M167.199,261.534c0,5.427-3.228,10.164-10.026,10.164c-1.166,0-2.126-0.134-3.087-0.342
	c-0.275,0.482-0.48,1.027-0.48,1.649c0,1.169,0.823,1.713,1.991,1.713h4.394c5.629,0,9.27,3.025,9.27,8.861
	c0,6.454-5.357,10.3-12.636,10.3c-7.554,0-11.192-2.814-11.192-7.761c0-3.225,1.992-5.287,4.323-6.456
	c-1.646-0.89-2.744-2.469-2.744-4.736c0-2.815,1.649-4.669,3.295-5.63c-2.127-1.921-3.158-4.808-3.158-7.761v-4.874
	c0-5.837,3.158-10.164,9.821-10.164c3.913,0,5.905-0.547,8.512-1.098c0.688-0.138,1.374-0.208,1.854-0.208
	c1.787,0,2.543,1.306,2.543,3.16c0,2.268-1.237,3.158-4.602,3.225c1.306,0.966,1.922,2.612,1.922,5.289V261.534z M154.086,280.559
	c-0.893,0.823-1.854,2.267-1.854,4.051c0,2.677,1.922,3.705,4.806,3.705c3.433,0,5.424-1.782,5.424-4.256
	c0-2.267-1.44-3.5-3.915-3.5H154.086z M160.401,255.904c0-2.609-1.371-3.704-3.228-3.704c-1.854,0-3.225,1.096-3.225,3.704v6.386
	c0,2.61,1.371,3.708,3.225,3.708c1.857,0,3.228-1.098,3.228-3.708V255.904z"/>
<path fill="#023864" d="M184.984,279.252l-2.537,11.881c-0.343,1.716-1.237,2.747-3.161,2.747c-1.921,0-3.158-1.238-3.158-2.952
	c0-0.413,0.068-0.894,0.138-1.236l1.854-9.066c-0.208-0.41-0.343-0.826-0.48-1.374l-6.798-28.496
	c-0.07-0.346-0.137-0.688-0.137-1.031c0-2.129,1.646-3.09,3.433-3.09c2.059,0,3.09,1.169,3.365,2.885l3.43,19.982
	c0.137,0.686,0.278,1.855,0.343,3.091c0-1.236,0.208-2.405,0.346-3.091l3.433-19.982c0.343-1.992,1.444-2.885,3.365-2.885
	c1.992,0,3.433,1.098,3.433,3.09c0,0.343-0.071,0.685-0.135,1.031L184.984,279.252z"/>
<path fill="#023864" d="M86.306,302.83c0-6.936,4.394-11.468,11.397-11.468c7.007,0,11.4,4.532,11.4,11.468v27.055
	c0,5.152-2.402,8.924-6.456,10.506l1.649,4.122c0.275,0.685,0.413,1.303,0.413,1.921c0,2.059-1.511,3.366-3.709,3.366
	c-1.649,0-2.68-0.894-3.227-2.335l-2.473-6.318c-5.632-0.893-8.995-5.151-8.995-11.262V302.83z M101.823,301.798
	c0-2.472-1.579-4.188-4.121-4.188c-2.539,0-4.118,1.716-4.118,4.188v29.118c0,2.469,1.579,4.189,4.118,4.189
	c2.543,0,4.121-1.72,4.121-4.189V301.798z"/>
<path fill="#023864" d="M121.328,331.672c0,1.992,0.755,3.157,2.744,3.157c1.306,0,2.335-0.618,2.817-1.236v-24.996
	c0-2.129,1.374-3.5,3.503-3.5c2.126,0,3.5,1.371,3.5,3.5v28.98c0,2.196-1.236,3.362-3.295,3.362c-2.062,0-3.228-1.303-3.365-3.362
	c-1.028,2.401-3.023,3.641-5.976,3.641c-4.806,0-6.933-3.366-6.933-8.035v-24.586c0-2.129,1.371-3.5,3.5-3.5
	c2.129,0,3.503,1.371,3.503,3.5V331.672z"/>
<path fill="#023864" d="M158.684,322.196c0,1.713-1.169,2.813-2.747,2.813h-9.616v7.487c0,1.921,1.031,2.952,2.75,2.952
	c1.508,0,2.814-0.756,2.814-2.952v-0.414c0-2.334,1.374-3.362,3.295-3.362c2.267,0,3.366,1.441,3.366,3.431v0.549
	c-0.138,5.015-3.709,8.519-9.475,8.519c-6.251,0-9.751-3.573-9.751-9.617V315.12c0-6.661,3.638-10.298,9.751-10.298
	c6.039,0,9.613,3.775,9.613,9.888V322.196z M151.816,313.75c0-2.13-1.028-3.094-2.744-3.094c-1.649,0-2.75,0.964-2.75,2.956v5.834
	h5.495V313.75z"/>
<path fill="#023864" d="M182.169,322.196c0,1.713-1.166,2.813-2.744,2.813h-9.616v7.487c0,1.921,1.031,2.952,2.748,2.952
	c1.511,0,2.818-0.756,2.818-2.952v-0.414c0-2.334,1.371-3.362,3.292-3.362c2.267,0,3.368,1.441,3.368,3.431v0.549
	c-0.137,5.015-3.711,8.519-9.478,8.519c-6.248,0-9.751-3.573-9.751-9.617V315.12c0-6.661,3.641-10.298,9.751-10.298
	c6.042,0,9.613,3.775,9.613,9.888V322.196z M175.304,313.75c0-2.13-1.031-3.094-2.747-3.094c-1.646,0-2.748,0.964-2.748,2.956v5.834
	h5.495V313.75z"/>
<path fill="#023864" d="M199.821,314.364c0-1.988-0.962-3.155-2.956-3.155c-1.373,0-2.333,0.615-2.814,1.233v24.996
	c0,2.129-1.37,3.5-3.503,3.5c-2.129,0-3.503-1.372-3.503-3.5v-28.704c0-2.197,1.239-3.366,3.298-3.366
	c2.059,0,3.224,1.031,3.366,3.09c0.96-2.405,3.019-3.637,5.972-3.637c4.807,0,7.139,3.365,7.139,8.031v24.586
	c0,2.129-1.37,3.5-3.5,3.5c-2.125,0-3.5-1.372-3.5-3.5V314.364z"/>
<path fill="#023864" d="M211.355,332.699v-0.96c0-2.335,1.378-3.433,3.297-3.433c2.062,0,3.293,1.236,3.293,3.295v0.618
	c0,2.059,1.033,3.433,2.96,3.433c2.191,0,3.019-1.579,3.019-3.503c0-2.882-1.585-4.599-4.394-6.453
	c-4.736-3.157-8.175-6.18-8.175-11.743c0-5.631,3.708-9.132,9.343-9.132c6.04,0,9.199,3.5,9.199,8.79v0.823
	c0,1.649-1.102,3.159-3.293,3.159c-2.269,0-3.297-1.373-3.297-3.159v-1.099c0-1.716-0.76-2.952-2.609-2.952
	c-1.786,0-2.611,1.169-2.611,3.023c0,2.882,1.509,4.188,4.46,6.247c4.123,2.886,8.107,5.63,8.107,11.81
	c0,5.291-3.5,9.754-9.888,9.754C215.478,341.218,211.355,337.714,211.355,332.699z"/>
<path fill="#023864" d="M242.122,337.439c0,2.129-1.37,3.5-3.5,3.5c-2.13,0-3.505-1.372-3.505-3.5v-42.163
	c0-2.13,1.375-3.5,3.505-3.5c2.13,0,3.5,1.37,3.5,3.5V337.439z"/>
<path fill="#023864" d="M254.208,314.435c0,1.921-1.446,3.159-3.293,3.159c-2.13,0-3.366-1.238-3.366-3.159v-0.961
	c0-5.287,3.158-8.652,9.472-8.652c6.314,0,9.546,3.09,9.546,9.337v23.418c0,1.991-1.37,3.362-3.5,3.362
	c-1.854,0-3.09-1.233-3.297-2.744c-0.894,1.783-2.68,3.023-5.288,3.023c-5.146,0-7.55-4.742-7.55-10.853
	c0-6.385,2.606-10.436,8.237-10.436c1.854,0,3.366,0.48,4.399,1.233v-7.413c0-1.717-0.76-2.886-2.679-2.886
	c-1.927,0-2.68,1.099-2.68,3.09V314.435z M259.567,326.247c-0.623-0.346-1.304-0.62-2.406-0.62c-2.201,0-3.297,1.238-3.297,4.739
	c0,3.366,0.962,5.082,3.297,5.082c1.028,0,1.922-0.342,2.406-0.756V326.247z"/>
<path fill="#023864" d="M284.833,314.364c0-1.988-0.96-3.155-2.951-3.155c-1.375,0-2.33,0.615-2.814,1.233v24.996
	c0,2.129-1.378,3.5-3.5,3.5c-2.13,0-3.505-1.372-3.505-3.5v-28.704c0-2.197,1.236-3.366,3.297-3.366c2.062,0,3.224,1.031,3.359,3.09
	c0.967-2.405,3.024-3.637,5.979-3.637c4.802,0,7.14,3.365,7.14,8.031v24.586c0,2.129-1.37,3.5-3.5,3.5s-3.505-1.372-3.505-3.5
	V314.364z"/>
<path fill="#023864" d="M297.2,311.963c0-4.327,2.472-7.141,6.864-7.141c2.951,0,4.873,1.441,5.906,2.952v-12.498
	c0-2.13,1.37-3.5,3.5-3.5s3.5,1.37,3.5,3.5v42.163c0,2.059-1.231,3.5-3.361,3.5c-2.196,0-3.297-1.508-3.5-3.295
	c-0.965,1.992-3.163,3.573-5.977,3.573c-4.326,0-6.932-3.436-6.932-7.35V311.963z M304.2,332.15c0,1.856,0.892,3.025,2.814,3.025
	c1.309,0,2.269-0.484,2.956-1.238V312.1c-0.618-0.618-1.512-1.236-2.882-1.236c-1.788,0-2.887,1.031-2.887,2.815V332.15z"/>
</svg>
