<?xml version="1.0" encoding="utf-8"?>
<!-- Generator: Adobe Illustrator 24.3.0, SVG Export Plug-In . SVG Version: 6.00 Build 0)  -->
<svg version="1.2" baseProfile="tiny-ps" id="Layer_3" xmlns="http://www.w3.org/2000/svg" xmlns:xlink="http://www.w3.org/1999/xlink"
	 viewBox="0 0 154.17 162.44" xml:space="preserve">
<title>Energy Queensland</title>
<rect x="20.65" y="51.22" fill="#3DB550" width="113.11" height="90.8"/>
<path fill="#FFFFFF" d="M41.5,107.82h3.72c1.84,0,3.27,0.12,4.51,1c1.05,0.74,1.69,1.94,1.7,3.23c0.03,1.77-1.05,3.37-2.7,4
	l4.41,6.21H49.2l-3.86-5.68h-0.49v5.68H41.5V107.82z M44.85,110.45v4h0.74c1.75,0,2.67-0.74,2.67-2c0-1.45-0.94-2-2.84-2H44.85z"/>
<polygon fill="#FFFFFF" points="55.73,107.82 64.64,107.82 64.64,110.8 59.08,110.8 59.08,113.42 63.84,113.42 63.84,116.38 
	59.08,116.38 59.08,119.24 64.72,119.24 64.72,122.28 55.73,122.28 "/>
<polygon fill="#FFFFFF" points="71.52,110.84 66.92,110.84 66.92,107.82 79.55,107.82 79.55,110.84 74.97,110.84 74.97,122.28 
	71.52,122.28 "/>
<path fill="#FFFFFF" d="M86,107.37h0.22l7.21,14.91h-3.6l-0.91-2.1h-5.86l-0.94,2.1h-3.48L86,107.37z M87.83,117.68L86,113.15
	l-1.92,4.53H87.83z"/>
<rect x="95.8" y="107.82" fill="#FFFFFF" width="3.45" height="14.46"/>
<polygon fill="#FFFFFF" points="103.82,107.82 107.27,107.82 107.27,119.18 112.91,119.18 112.91,122.28 103.82,122.28 "/>
<path fill="#FFFFFF" d="M125.14,56.09c-0.52-6-3.93-11.46-9.86-15.88C109.53,35.93,101.84,33,93,31.69c0.19-1.35,0.05-2.72-0.39-4
	c-2.57-7.45-14.19-9.64-26.45-5.63C56,25.39,48.62,32.08,47.83,38.4l-0.74,0.35c-11.87,5.79-18.54,14.34-17.82,22.89
	c0.48,5.81,4.2,11,10.75,15c5.81,3.55,13.35,5.87,21.91,6.77l-1.42,5l1.71,0.2c10.52,1.18,21.16,0.28,31.33-2.65
	c9.93-2.83,18.5-7.4,24.14-12.86C123.07,67.85,125.64,62,125.14,56.09z"/>
<path fill="#005CAB" d="M106.1,59.88h0.47c0.34,0,0.67,0.08,0.67,0.43c0.01,0.21-0.13,0.4-0.33,0.45l0.37,0.59h-0.39l-0.34-0.57
	h-0.09v0.57h-0.36L106.1,59.88z M106.46,60.49h0.18c0.09,0,0.24,0,0.24-0.16s-0.15-0.16-0.24-0.16h-0.18V60.49z M106.64,59.22
	c0.78-0.01,1.41,0.62,1.42,1.4c0.01,0.78-0.62,1.41-1.4,1.42c-0.78,0.01-1.41-0.62-1.42-1.4c0,0,0-0.01,0-0.01
	C105.24,59.86,105.87,59.23,106.64,59.22z M106.64,61.71c0.6,0.05,1.13-0.4,1.18-1c0.05-0.6-0.4-1.13-1-1.18
	c-0.6-0.05-1.13,0.4-1.18,1c0,0.03,0,0.06,0,0.1c-0.04,0.55,0.37,1.03,0.92,1.08C106.58,61.71,106.61,61.71,106.64,61.71z"/>
<path fill="#005CAB" d="M50.65,61.23v-9.95h6.07v2H53v1.79h3.38v2.05H53v2h3.68v2L50.65,61.23z"/>
<path fill="#005CAB" d="M65.2,61.23l-2.47-3.75H62.4v3.75H60V51.3h3.27c2.57,0,3.73,1.08,3.74,3c0.01,1.25-0.77,2.36-1.94,2.78
	l2.87,4.17L65.2,61.23z M63.39,53.23h-1v2.72H63c2.16-0.07,2.49-2.77,0.39-2.76L63.39,53.23z"/>
<path fill="#005CAB" d="M78.09,60.87c-1.11,0.5-2.3,0.77-3.52,0.79c-2.84,0.02-5.16-2.26-5.18-5.1c0-0.09,0-0.18,0-0.26
	c-0.08-2.89,2.2-5.29,5.08-5.37c0.12,0,0.24,0,0.37,0c1.16-0.01,2.3,0.31,3.29,0.93l-0.24,2.54l-0.39-0.34c-0.7-0.64-1.61-1-2.56-1
	c-1.66-0.06-3.05,1.23-3.11,2.89c0,0.13,0,0.26,0.01,0.38c-0.13,1.65,1.1,3.1,2.75,3.23c0.08,0.01,0.17,0.01,0.25,0.01
	c0.45,0.01,0.9-0.07,1.32-0.23v-1.51h-1.88v-2.07h4.31v4.86C78.33,60.73,78.22,60.82,78.09,60.87z"/>
<path fill="#005CAB" d="M86.23,61.8c-3.02,0.13-5.58-2.22-5.71-5.25s2.22-5.58,5.25-5.71c3.02-0.13,5.58,2.22,5.71,5.25
	c0,0.08,0.01,0.16,0,0.25C91.52,59.29,89.18,61.72,86.23,61.8z M86.23,53.3c-1.68-0.15-3.16,1.08-3.32,2.76
	c-0.15,1.68,1.08,3.16,2.76,3.32c1.68,0.15,3.16-1.08,3.32-2.76C89,56.51,89,56.41,89,56.3c0.11-1.55-1.06-2.89-2.61-2.99
	C86.33,53.3,86.28,53.3,86.23,53.3z"/>
<path fill="#005CAB" d="M96.14,55.68v5.55H94V50.67l6.64,6.1v-5.45h2.17v10.46L96.14,55.68z"/>
<path fill="#005CAB" d="M82.21,71.54l-1.88-2.84h-0.25v2.84h-1.82V64h2.49c1.94,0,2.82,0.82,2.83,2.25c0.01,0.95-0.59,1.8-1.48,2.12
	l2.18,3.15L82.21,71.54z M80.92,65.45h-0.75v2.06h0.47C82.27,67.49,82.51,65.44,80.92,65.45z"/>
<path fill="#005CAB" d="M50.63,71.55V64h4.43v1.54h-2.63V67h2.35v1.54h-2.35V70h2.63v1.54L50.63,71.55z"/>
<path fill="#005CAB" d="M69.7,71.55V64h4.43v1.54H71.5V67h2.35v1.54H71.5V70h2.63v1.54L69.7,71.55z"/>
<path fill="#005CAB" d="M60.75,67.41v4.16h-1.63v-8l4.74,4.66V64h1.63v7.84L60.75,67.41z"/>
<path fill="#005CAB" d="M93,71.26c-0.83,0.37-1.73,0.57-2.64,0.59c-2.13,0.01-3.87-1.71-3.88-3.84c0-0.05,0-0.11,0-0.16
	c-0.05-2.16,1.66-3.95,3.82-4c0.09,0,0.18,0,0.26,0c0.87-0.01,1.73,0.23,2.47,0.69l-0.18,1.9l-0.29-0.25
	c-0.52-0.49-1.21-0.76-1.92-0.76c-1.25-0.03-2.29,0.96-2.33,2.21c0,0.08,0,0.16,0.01,0.24c-0.11,1.23,0.8,2.31,2.03,2.41
	c0.08,0.01,0.16,0.01,0.24,0.01c0.34,0,0.68-0.06,1-0.17v-1.21h-1.36v-1.48h3.23v3.63L93,71.26z"/>
<path fill="#005CAB" d="M100.22,68v3.57H98.3V68l-2.82-4h2.31l1.64,2.27l1.76-2.27h2L100.22,68z"/>
<path fill="#009370" d="M123.73,56.23c-1-11.31-13.45-20.58-31-23.11l-0.49,1.48c14.51,2.81,24.91,10.19,25.69,19.64
	c1.07,13.38-17.5,25.85-41.51,27.85c-4.17,0.34-8.36,0.34-12.53,0l-1.44,5C92.19,90.65,125.37,75.15,123.73,56.23z"/>
<path fill="#005CAB" d="M64.22,80.57l-0.33,1.54c-18.24-1.47-32.19-9.6-33.11-20.58c-0.68-8.24,6.1-16.14,17-21.45l0,0
	c0.05,0.75,0.19,1.49,0.44,2.2c0.32,0.89,0.78,1.73,1.36,2.48l0,0c-9.06,4.67-14.63,11.41-14,18.43
	C36.39,72.76,48.44,79.15,64.22,80.57z"/>
<path fill="#005CAB" d="M91.15,28.14c-1.12-3.39-4.76-5.58-9.64-6.31c-0.05,0.15-1.46,5.11-1.46,5.08c-13.88-0.14-18,7-14.14,8.87
	c0,0,4.29-2.66,12.48-3.21l-1.71,5.57c-2.35,0-10.35,0.75-10.17,5.27c0.16,4.11,7.59,3,10.16,2.2
	C86.73,41.55,93.1,34.05,91.15,28.14z"/>
<path fill="#009370" d="M61.36,42.07c-0.1-3,3.22-5.47,3.23-5.48c-11.3-5.34,0.43-13.71,11.64-14.82v-0.16
	c-3.27,0.17-6.5,0.79-9.61,1.83c-11.44,3.76-19,12-16.92,18.36c1.85,5.64,10.64,7.94,20.55,5.81C66.38,47.39,61.49,46,61.36,42.07z"
	/>
</svg>
