<?xml version="1.0" encoding="utf-8"?>
<!-- Generator: Adobe Illustrator 24.3.0, SVG Export Plug-In . SVG Version: 6.00 Build 0)  -->
<svg version="1.2" baseProfile="tiny-ps" id="Layer_2_1_"
	 xmlns="http://www.w3.org/2000/svg" xmlns:xlink="http://www.w3.org/1999/xlink" viewBox="0 0 216 113.5"
	 xml:space="preserve">
<title>Energy Queensland</title>
<path fill="#1082C5" d="M135.76,32.58c6.14,4.49-4.76,20.21-39.69,32.18c27.4-6.27,44.65-20,44.65-29.58
	C140.4,33.79,138.61,32.9,135.76,32.58z"/>
<path fill="#1082C5" d="M68.81,45c-0.9-0.74-1.79-1.45-2.68-2.14c-0.48,0.93-0.95,1.88-1.4,2.86c0.81,0.56,1.63,1.13,2.45,1.72
	C67.72,46.58,68.26,45.76,68.81,45z"/>
<path fill="#1082C5" d="M88.44,64.46c-2.78-3.29-5.59-6.36-8.4-9.22c-0.41,0.35-0.82,0.7-1.22,1.06
	C81.93,58.83,85.14,61.55,88.44,64.46z"/>
<path fill="#1082C5" d="M62.64,40.22C61,39.07,59.46,38,57.89,37c-0.39,1.12-0.75,2.29-1.08,3.52c1.41,0.87,2.85,1.79,4.34,2.76
	C61.63,42.22,62.13,41.21,62.64,40.22z"/>
<path fill="#1082C5" d="M73.68,49.16c-0.53-0.48-1.06-0.94-1.58-1.4c-0.5,0.7-1,1.42-1.48,2.16L72,51
	C72.58,50.36,73.13,49.76,73.68,49.16z"/>
<path fill="#1082C5" d="M75.09,53.34l0.44,0.33l1.57-1.33l-0.56-0.53C76.06,52.31,75.57,52.82,75.09,53.34z"/>
<path fill="#1082C5" d="M54.16,34.7c-1.96-1.13-3.88-2.16-5.75-3.08c-0.37,1.22-0.67,2.47-0.88,3.73c1.74,0.86,3.56,1.83,5.45,2.9
	C53.34,37,53.74,35.83,54.16,34.7z"/>
<path fill="#1082C5" d="M44.38,29.8c-2.11-0.88-4.27-1.63-6.47-2.25c-0.79,0.98-1.36,2.11-1.68,3.33c2.43,0.68,4.81,1.53,7.12,2.53
	C43.62,32.19,43.96,30.98,44.38,29.8z"/>
<path fill="#1082C5" d="M58.44,26.31c-1.64-1-3.34-1.9-5.1-2.68c-1.01,0.83-1.88,1.81-2.6,2.9c2,0.84,3.93,1.84,5.76,3
	C57.09,28.42,57.74,27.35,58.44,26.31z"/>
<path fill="#1082C5" d="M78.52,49.8l0.69,0.83c0.61-0.49,1.22-1,1.84-1.43l-0.75-1.11C79.7,48.65,79.11,49.22,78.52,49.8z"/>
<path fill="#1082C5" d="M71.17,41.68c0.69-0.91,1.38-1.8,2.08-2.65c-0.99-1.1-1.99-2.16-3-3.17c-0.66,1-1.31,2-2,3
	C69.27,39.77,70.22,40.7,71.17,41.68z"/>
<path fill="#1082C5" d="M77.94,44.79c-0.6-0.8-1.21-1.58-1.82-2.34c-0.64,0.78-1.28,1.59-1.91,2.42c0.57,0.62,1.15,1.26,1.73,1.92
	C76.6,46.11,77.27,45.44,77.94,44.79z"/>
<path fill="#1082C5" d="M89.34,64.15c-1.81-3.96-3.85-7.81-6.12-11.53c-0.49,0.38-1,0.77-1.46,1.17
	C84.27,56.97,86.8,60.42,89.34,64.15z"/>
<path fill="#1082C5" d="M67.11,32.84c-1.66-1.5-3.4-2.91-5.21-4.22c-0.7,1.06-1.33,2.15-1.9,3.28c1.63,1.19,3.32,2.53,5,4
	C65.71,34.84,66.42,33.82,67.11,32.84z"/>
<path fill="#1082C5" d="M74.56,24.38C73.27,23.13,71.88,22,70.39,21c-1.39,0.57-2.7,1.35-3.86,2.31c1.87,1.06,3.61,2.33,5.18,3.81
	C72.65,26.16,73.6,25.23,74.56,24.38z"/>
<path fill="#1082C5" d="M83.8,44.94c0.25,0.55,0.51,1.12,0.76,1.69c0.72-0.5,1.45-1,2.17-1.48c-0.22-0.71-0.46-1.41-0.7-2.08
	C85.29,43.67,84.54,44.29,83.8,44.94z"/>
<path fill="#1082C5" d="M80.37,31.44c-0.92-1.39-1.92-2.73-3-4c-0.92,0.85-1.84,1.79-2.75,2.8c1.06,1.23,2.07,2.51,3,3.84
	C78.56,33.15,79.46,32.27,80.37,31.44z"/>
<path fill="#1082C5" d="M90.35,63.93c-0.4-4.99-1.22-9.93-2.46-14.78c-0.6,0.42-1.19,0.84-1.79,1.28
	C87.79,54.84,89.21,59.35,90.35,63.93z"/>
<path fill="#1082C5" d="M84.42,39c-0.56-1.27-1.14-2.48-1.75-3.63c-0.85,0.8-1.7,1.66-2.55,2.54c0.61,1,1.21,2.09,1.8,3.21
	C82.75,40.39,83.59,39.68,84.42,39z"/>
<path fill="#1082C5" d="M91.42,63.82c1.39-6,2.09-12.15,2.1-18.31c-0.68,0.41-1.37,0.83-2,1.26C91.99,52.45,91.96,58.15,91.42,63.82
	z"/>
<path fill="#1082C5" d="M85.57,27.12c1-0.72,2-1.41,3-2c-0.75-1.2-1.61-2.33-2.57-3.36c-1.22,0.47-2.38,1.06-3.49,1.75
	C83.68,24.58,84.7,25.79,85.57,27.12z"/>
<path fill="#1082C5" d="M92,33.41c-0.39-1.5-0.89-2.97-1.48-4.41c-0.93,0.63-1.87,1.31-2.82,2.05c0.62,1.38,1.15,2.8,1.59,4.24
	C90.2,34.62,91.11,34,92,33.41z"/>
<path fill="#1082C5" d="M90.43,39.69c0.18,0.89,0.35,1.81,0.51,2.77c0.79-0.49,1.58-1,2.37-1.42c-0.09-1.07-0.21-2.11-0.37-3.11
	C92.11,38.49,91.27,39.08,90.43,39.69z"/>
<path fill="#1082C5" d="M99.62,33.84c0,1.21,0,2.5-0.13,3.88c1.17-0.58,2.32-1.13,3.48-1.66c0.17-1.35,0.25-2.71,0.26-4.07
	C102.05,32.55,100.85,33.17,99.62,33.84z"/>
<path fill="#1082C5" d="M102.86,27.52c-0.24-1.31-0.63-2.6-1.16-3.82c-1.37,0.34-2.7,0.78-4,1.33c0.71,1.33,1.21,2.75,1.49,4.23
	C100.4,28.62,101.62,28.04,102.86,27.52z"/>
<path fill="#1082C5" d="M92.57,63.83c5-8.91,8-16.55,9.52-22.93c-1.07,0.51-2.14,1-3.22,1.61C97.49,49.81,95.38,56.95,92.57,63.83z"
	/>
<path fill="#1082C5" d="M116.91,27.64c-1.35,0.16-2.68,0.41-4,0.75c0.26,1.21,0.32,2.46,0.17,3.69c1.33-0.44,2.64-0.83,3.92-1.18
	C117.1,29.81,117.07,28.72,116.91,27.64z"/>
<path fill="#1082C5" d="M93.68,64c13.13-11.31,20-21,22.37-28.51c-1.32,0.4-2.67,0.84-4,1.33C109.77,43.44,104.09,52.53,93.68,64z"
	/>
<path fill="#1082C5" d="M94.9,64.23c23.92-12.92,33.82-24.23,34.77-31.62c-1.19,0.11-2.45,0.27-3.78,0.49
	C125.13,39,116.38,49.54,94.9,64.23z"/>
<path fill="#BED530" d="M129.27,28.86c-1.51-3.85-6.57-5.72-13.68-4.93c-2.67-4.34-8.75-5.84-16.27-3.8
	c-3.83-3.92-10-4.35-16.67-1.22c-5-3.27-11-3.31-16.49-0.07C59.81,16.33,53.5,17.41,49,22.07c-7-1.93-12.83-0.49-15.77,4.45
	c-22.54-3.47-26.6,18.9,23.17,62.36l0,0c18.6-50.58,82.22-62.75,84.32-53.7C140.72,30.75,136.27,28.66,129.27,28.86z M44.34,72
	c-26.78-27.9-28-43.84-12.56-42C29.61,38.15,32.66,52.07,44.34,72z M46.53,25.21c-5,8.17-6.21,22.8,0.72,43.88
	C30.2,37.64,33.68,22.8,46.53,25.24V25.21z M62.35,21.69C54.56,29,48.88,44,50.78,66.71c-9.21-32.26-0.52-47.77,11.57-44.99V21.69z
	 M54.62,64.59L54.62,64.59C53.1,31.53,67.49,16.24,78.81,21.08C68.8,27.73,58.63,42.19,54.62,64.62V64.59z M59.12,62.46
	c6.55-29.72,26.17-46,35.49-40.67C83,26.9,69.21,39.72,59.12,62.49V62.46z M64.67,60.11c15.4-30.23,38.69-41.45,46.12-35.33
	C97.86,28,80.31,38.77,64.67,60.14V60.11z M71.82,57C93.11,32,119,23.47,124.78,29.26C110.48,31.26,89.15,40.63,71.82,57z"/>
<path fill="#231F20" d="M120.54,82.74c-0.12,1.27-1.24,2.2-2.51,2.09c-0.05,0-0.09-0.01-0.14-0.02c-2,0-2.66-1.3-2.54-3.19h11.45
	v-0.88c0-5.6-3.48-9.26-9.2-9.26c-4.9-0.25-9.07,3.52-9.32,8.42c-0.01,0.22-0.01,0.44-0.01,0.66c-0.01,2.45,1.03,4.79,2.84,6.44
	c1.94,1.58,4.4,2.38,6.9,2.24c4.07,0,7.72-2,8.79-6.08L120.54,82.74z M117.65,75.37c1.89,0,2.42,1.24,2.42,2.95h-4.78
	C115.23,76.73,115.94,75.37,117.65,75.37z"/>
<path fill="#231F20" d="M80.62,82.74c-0.12,1.27-1.25,2.2-2.52,2.08c-0.03,0-0.07-0.01-0.1-0.01c-2,0-2.66-1.3-2.54-3.19h11.41
	v-0.88c0-5.6-3.48-9.26-9.2-9.26c-2.52-0.07-4.97,0.89-6.78,2.65c-1.63,1.75-2.53,4.04-2.54,6.43c-0.01,2.45,1.02,4.79,2.83,6.44
	c1.94,1.58,4.41,2.38,6.91,2.24c4.06,0,7.72-2,8.78-6.08L80.62,82.74z M77.73,75.37c1.89,0,2.42,1.24,2.42,2.95h-4.78
	C75.31,76.73,76,75.37,77.73,75.37z"/>
<path fill="#231F20" d="M100.44,71.48c-2.13,0-4.07,0.82-4.9,2.77h-0.06v-2.42h-6.25v17h6.61V79c0-1.42,0.17-3,2-3
	c1.48,0,1.48,1.42,1.48,2.48v10.4h6.6V78.32c0-1.77,0-3.66-1.06-5.07C103.73,72.03,102.1,71.38,100.44,71.48z"/>
<path fill="#231F20" d="M134.93,75.31h-0.12v-3.48h-5.66v17h6.67v-7.39c-0.09-1,0.07-2.01,0.47-2.94c0.62-0.86,1.66-1.31,2.71-1.18
	c0.42,0,0.84,0.06,1.24,0.17v-5.95l-0.88-0.06C136.7,71.3,135.46,73,134.93,75.31z"/>
<path fill="#231F20" d="M173.89,82.74c-0.12,1.28-1.26,2.21-2.53,2.09c-0.04,0-0.09-0.01-0.13-0.02c-2,0-2.65-1.3-2.53-3.19h11.44
	v-0.88c0-5.6-3.48-9.26-9.2-9.26c-4.9-0.24-9.07,3.53-9.31,8.43c-0.01,0.22-0.01,0.44-0.01,0.65c-0.01,2.45,1.02,4.79,2.83,6.44
	c1.94,1.58,4.4,2.38,6.9,2.24c4.07,0,7.73-2,8.79-6.08L173.89,82.74z M171,75.37c1.88,0,2.42,1.24,2.42,2.95h-4.78
	C168.58,76.73,169.29,75.37,171,75.37z"/>
<polygon fill="#231F20" points="192.97,79.56 197.92,71.83 192.43,71.83 190.54,74.96 190.37,75.37 190.01,75.9 189.66,75.31 
	189.48,74.9 187.77,71.83 180.28,71.83 185.53,79.8 179.51,88.88 185,88.88 188.3,83.45 191.49,88.88 199.04,88.88 "/>
<path fill="#231F20" d="M154,72.77c-1.53-1.59-4.42-1.29-5.24-1.29c-4.47,0.26-7.92,4.04-7.76,8.52c0,5.43,3.3,9.2,8,9.2
	c1.54-0.02,3.03-0.53,4.25-1.47l-0.06,2.41c0,1.42-1.36,2.07-2.77,2.07s-2.48-0.59-2.48-2l-6.31,0.3c0,3.65,3.71,5.78,8.55,5.78
	c8.32,0,9.09-3.72,9.09-11.21V71.83H154V72.77z M150.58,84.57c-2,0-2.71-1.59-2.71-4.48c0-3.07,1.06-4.42,2.71-4.42
	c1.83,0,2.54,1.88,2.54,4.42C153.13,82.45,152.54,84.57,150.58,84.57L150.58,84.57z"/>
<rect fill="none" width="216" height="113.5"/>
</svg>
