<?xml version="1.0" encoding="UTF-8" standalone="yes"?>
<svg version="1.2" baseProfile="tiny-ps" width="150px" height="150px" viewBox="0 0 150 150" xml:space="preserve" xmlns="http://www.w3.org/2000/svg">
  <title>bimi-svg-tiny-12-ps</title>
  <g>
    <rect fill="#FFFFFF" width="150" height="150"/>
    <path fill="#003361" d="M100.644,68.505c0,0-1.203,0.896-0.896,2.273c0.033,0.147,0.82,1.159,2.232-0.12&#xD;&#xA;&#x9;&#x9;c0,0,1.013-1.009,0.859-1.984c0,0-0.022-1.088-1.278-0.779C101.375,67.939,100.644,68.505,100.644,68.505"/>
    <path fill="#003361" d="M106.236,68.659c0,0-1.034,1.066-0.648,2.156c0.045,0.129,0.704,1.051,2.135-0.115&#xD;&#xA;&#x9;&#x9;c0.119-0.094,0.667-0.575,0.899-1.906c0.042-0.255,0.153-0.999-1.011-0.999C107.228,67.795,106.677,68.16,106.236,68.659"/>
    <path fill="#003361" d="M34.25,57.018c-2.273-1.129-4.097-1.325-4.465-1.367c-3.965-0.449-7.483,0.878-7.96,1.056&#xD;&#xA;&#x9;&#x9;c-3.983,1.511-5.982,3.99-6.104,4.125c-0.977,1.106-1.775,2.805-1.896,3.076c-1.156,2.61-0.788,5.136-0.743,5.428&#xD;&#xA;&#x9;&#x9;c0.39,2.45,1.571,3.603,1.698,3.724c1.776,1.719,4.226,1.533,4.391,1.531c1.932-0.038,5.611-1.702,5.611-1.702&#xD;&#xA;&#x9;&#x9;c2.082-0.857,3.858-2.247,3.858-2.247s1.486-2.261,1.708-2.624c0.227-0.367,1.774-2.725,1.85-2.841&#xD;&#xA;&#x9;&#x9;c2.369-3.523,4.095-5.672,4.264-5.878c3.239-3.888,5.38-5.394,5.538-5.524c3.751-3.148,6.318-2.212,6.594-2.072&#xD;&#xA;&#x9;&#x9;c0.318,0.152,0.334,0.581,0.366,0.763c0.153,0.923-0.382,2.002-0.542,2.356c-1.331,2.937-3.381,5.093-3.381,5.093&#xD;&#xA;&#x9;&#x9;c-2.615,2.894-5.662,5.239-5.867,5.405c-3.615,2.941-6.076,4.531-6.076,4.531s-1.258,2.039-1.414,2.287&#xD;&#xA;&#x9;&#x9;c-0.153,0.25-2.46,3.968-2.652,4.292c-1.389,2.315-2.052,3.173-2.132,3.282c-1.576,2.192-3.344,3.495-3.496,3.618&#xD;&#xA;&#x9;&#x9;c-3.875,3.085-7.669,3.033-7.787,3.033c-3.828,0.096-5.365-1.664-5.478-1.763c-1.165-1.011-0.916-3.324-0.905-3.476&#xD;&#xA;&#x9;&#x9;c0.012-0.154,0.256-2.144,2.615-2.144c2.354,0,1.929,2.062,1.908,2.264c-0.144,1.178-1.556,2.592-1.755,2.802&#xD;&#xA;&#x9;&#x9;c-0.2,0.213-0.27,0.442-0.236,0.566c0.365,1.341,2.202,1.294,2.519,1.294c2.18-0.011,3.429-0.521,3.596-0.589&#xD;&#xA;&#x9;&#x9;c2.188-0.911,4.124-3.504,4.238-3.677c2.025-2.999,2.677-4.156,2.941-4.601c1.947-3.276,2.842-4.985,2.772-4.949&#xD;&#xA;&#x9;&#x9;c-3.04,1.626-5.441,2.26-5.527,2.286c-4.463,1.292-7.041,0.472-7.101,0.457c-2.909-0.658-4.036-3.077-4.061-3.133&#xD;&#xA;&#x9;&#x9;c-1.298-2.6-0.434-5.804-0.369-6.078c1.179-5.078,6.216-7.808,6.384-7.902c5.101-2.873,10.073-2.86,10.387-2.865&#xD;&#xA;&#x9;&#x9;c3.926-0.043,6.961,1.77,6.961,1.77S34.305,57.046,34.25,57.018 M38.309,65.353c2.02-1.514,4.563-4.202,4.68-4.328&#xD;&#xA;&#x9;&#x9;c2.544-2.793,3.774-4.755,3.774-4.755c0.806-1.365,0.992-2.39,0.777-2.502c-1.086-0.556-2.417,0.401-2.417,0.401&#xD;&#xA;&#x9;&#x9;c-1.247,0.625-3.979,3.734-4.05,3.811c-1.528,1.546-4.252,5.529-4.252,5.529c-0.142,0.21-2.005,3.015-2.207,3.312&#xD;&#xA;&#x9;&#x9;c-0.462,0.693-1.198,1.998-1.198,1.998C37.12,66.325,37.504,65.958,38.309,65.353"/>
    <path fill="#003361" d="M48.942,57.978h2.595l-3.407,5.196l-2.326,3.583l2.07,0.007l-0.654,0.945h-2.199l-2.42,3.563l-2.51,3.734&#xD;&#xA;&#x9;&#x9;l-2.464,3.702l-2.877,4.295c0,0-0.726,1.012-0.735,1.581c-0.003,0.142,0.202,1.129,1.711,0.438c0.205-0.09,1.317-0.347,3.915-2.978&#xD;&#xA;&#x9;&#x9;c0.046-0.051,0.901-2.138,1.968-3.619c0.064-0.085,1.731-2.456,3.596-3.499c0.112-0.061,1.91-1.121,3.843-1.121&#xD;&#xA;&#x9;&#x9;c1.938,0,1.955,1.328,1.955,1.328s0.147,0.961-0.745,2.036c-0.046,0.054-1.14,1.486-2.624,2.104&#xD;&#xA;&#x9;&#x9;c-0.039,0.019-1.83,0.833-3.921,0.698c0,0-0.671,0.906-1.352,2.481c-0.057,0.13-0.565,1.38-0.161,2.158&#xD;&#xA;&#x9;&#x9;c0.03,0.047,0.558,0.971,1.575,0.451c0.291-0.151,1.741-0.911,2.808-1.83c0,0,1.609-1.342,3.032-2.697&#xD;&#xA;&#x9;&#x9;c0.549-0.52,1.952-2.03,3.25-3.503c0,0,1.67-1.989,2.223-2.67c0.131-0.156,0.542-0.563,1.275-0.563&#xD;&#xA;&#x9;&#x9;c0.733,0,0.874,0.336,0.874,0.336s0.15,0.274,0.108,0.862c-0.012,0.137-0.055,0.929-0.065,0.998&#xD;&#xA;&#x9;&#x9;c-0.007,0.075,1.062-0.628,1.39-0.809c0,0,1.331-0.855,2.596-1.267c0.162-0.049,0.759-0.176,1.279-0.176&#xD;&#xA;&#x9;&#x9;c0,0,1.449,0.019,1.786,0.97c0.021,0.061,0.187,0.672-0.538,1.893c-0.057,0.097-0.514,0.91-1.664,2.661c0,0-1.66,2.479-1.79,2.673&#xD;&#xA;&#x9;&#x9;c-0.135,0.197-1.135,1.786-1.259,2.007c-0.122,0.219-0.217,0.536,0.054,0.688c0,0,0.249,0.203,0.922-0.424&#xD;&#xA;&#x9;&#x9;c0,0,1.915-1.683,2.082-1.846c0,0,2.677-2.394,3.782-3.436c0.941-0.888,1.964-1.819,2.659-2.494&#xD;&#xA;&#x9;&#x9;c0.577-0.553,1.792-1.709,1.792-1.709s0.387-1.587,1.158-2.212c0.276-0.221,0.857-0.483,1.512-0.252c0,0,0.715,0.228,0.449,1.065&#xD;&#xA;&#x9;&#x9;c-0.028,0.096-0.282,0.725-1.422,1.107c-0.121,0.04-0.832,0.333-0.944,0.378c0,0,0.592,1.113,1.043,2.405&#xD;&#xA;&#x9;&#x9;c0.023,0.076,0.555,1.571,0.35,2.922c-0.009,0.088-0.167,0.918-0.314,1.297c0,0,1.048-0.058,1.986-0.877&#xD;&#xA;&#x9;&#x9;c0,0,1.209-1.081,1.836-1.761c0.538-0.583,0.716-0.849,0.987-1.227c0.075-0.103,1.284-1.94,1.646-2.467&#xD;&#xA;&#x9;&#x9;c0.241-0.356,1.634-2.5,3.073-4.604c0.131-0.193,2.041-3.021,2.041-3.021h-2.29l0.742-0.961h2.148c0,0,1.916-2.8,2.826-4.153&#xD;&#xA;&#x9;&#x9;c0.163-0.241,3.109-4.555,3.109-4.555l2.676-0.029l-1.985,3.046l-3.731,5.673h2.228l-0.713,0.987h-2.209l-3.897,5.739l-3.224,4.82&#xD;&#xA;&#x9;&#x9;c0,0-1.156,1.694-2.577,3.886c-0.189,0.291-1.267,2.059-0.806,2.551c0,0,0.545,0.539,2.259-0.688&#xD;&#xA;&#x9;&#x9;c0.252-0.178,1.308-0.958,2.385-1.898c0,0,1.938-1.825,3.024-3.029c0.482-0.535,1.907-2.056,2.747-3.11&#xD;&#xA;&#x9;&#x9;c0.622-0.776,1.035-1.228,1.164-1.395c0.135-0.168,0.763-0.936,1.574-0.936c0.936,0,0.899,0.731,0.899,0.731&#xD;&#xA;&#x9;&#x9;s-0.042,0.61-0.053,0.743c-0.008,0.134-0.059,0.466,0.239,0.599c0.386,0.178,1.201-0.792,1.917-1.138&#xD;&#xA;&#x9;&#x9;c0.601-0.291,1.555-0.893,3.232-0.96c0,0,1.97-0.144,2.209,1.191c0,0,1.3-0.953,3.507-1.159c0.175-0.017,2.253-0.138,2.819,0.485&#xD;&#xA;&#x9;&#x9;c0,0,0.405,0.467,0.298,1.188c-0.014,0.097-0.069,0.61,0.543,0.531c0.65-0.088,1.505-0.39,4.737-1.741&#xD;&#xA;&#x9;&#x9;c0.494-0.211,1.235-0.614,1.8-0.322c0.564,0.294,0.402,1.987,0.402,2.142c0,0.012,2.859-2.225,5.087-2.236&#xD;&#xA;&#x9;&#x9;c0,0,1.754-0.068,1.718,0.975c-0.008,0.196-0.025,0.554,0.119,0.74c0.098,0.117,0.312-0.069,0.498-0.226&#xD;&#xA;&#x9;&#x9;c0,0,1.487-1.299,3.378-1.479c0.144-0.012,2.181-0.247,2.319,1.054c0,0,0.195,0.755-1.126,2.788c0,0-1.459,2.318-2.674,4.098&#xD;&#xA;&#x9;&#x9;c-0.116,0.176-1.227,1.914-1.343,2.108c-0.114,0.19-0.304,0.578-0.079,0.803c0.227,0.229,0.77-0.207,0.77-0.207&#xD;&#xA;&#x9;&#x9;s1.378-0.977,2.729-2.244c0,0,2.377-2.069,3.72-3.417c0.468-0.475,3.473-3.459,3.676-3.679c0.199-0.222,0.625-0.68,0.724-1.121&#xD;&#xA;&#x9;&#x9;c0.053-0.236,0-0.91,0.964-1.66c0.599-0.467,1.501-0.22,1.907,0.178c0.098,0.089,0.354,0.39-0.194,1.052&#xD;&#xA;&#x9;&#x9;c-0.052,0.058-0.661,0.754-2.095,1.208c0,0,0.725,2.526,0.858,3.611c0.023,0.195,0.565,2.94-0.647,4.798&#xD;&#xA;&#x9;&#x9;c0,0,1.794,1.655,3.661,2.162c0.128,0.04,1.122,0.305,1.359-0.528c0.051-0.174-0.202-2.306,1.238-2.306&#xD;&#xA;&#x9;&#x9;c1.437,0,0.925,1.881,0.925,1.881s-0.31,1.31-2.181,1.529c-0.161,0.019-1.423,0.124-3.443-1.156&#xD;&#xA;&#x9;&#x9;c-0.409-0.257-1.839-1.122-1.839-1.122s-0.909,1.296-2.236,1.821c-0.117,0.044-1.767,0.839-3.975,0.292&#xD;&#xA;&#x9;&#x9;c-0.103-0.028-1.918-0.596-1.582-2.327c0,0,0.264-2.013,2.667-2.192c0.175-0.016,1.014-0.067,2.665,0.411&#xD;&#xA;&#x9;&#x9;c0,0,2.017-2.819,1.624-6.213c0,0-2.938,2.984-4.146,4.149c-0.138,0.136-2.571,2.416-4.104,3.651&#xD;&#xA;&#x9;&#x9;c-0.139,0.109-2.301,2.027-3.312,2.404c0,0-1.132,0.479-2.069,0.103c0,0-0.907-0.455-0.515-1.766&#xD;&#xA;&#x9;&#x9;c0.073-0.261,0.622-1.3,2.868-4.604l1.624-2.44c0,0,0.623-0.925,0.08-1.549c0,0-0.535-0.581-1.704,0.135&#xD;&#xA;&#x9;&#x9;c-0.071,0.04-0.937,0.465-2.192,2.041c0,0-1.626,2.56-2.967,4.699c0,0-1.492,2.249-2.284,3.55h-2.871l3.702-5.785l1.688-2.687&#xD;&#xA;&#x9;&#x9;c0,0,0.882-1.258,0.244-1.964c-0.102-0.115-0.895-0.463-2.336,0.753c-0.165,0.143-1.429,1.327-2.769,3.44&#xD;&#xA;&#x9;&#x9;c0,0-1.52,2.306-4.081,6.229h-3.04l6.395-9.354c0,0,0.468-0.678,0.271-0.862c-0.106-0.097-0.259-0.206-1.104,0.13&#xD;&#xA;&#x9;&#x9;c0,0-3.757,1.404-4.156,1.485c0,0-0.612,3.574-3.887,6.574c-0.197,0.18-2.587,2.245-5.274,2.275c-0.325,0-2.729-0.041-2.961-2.874&#xD;&#xA;&#x9;&#x9;c-0.016-0.184-0.209-1.768,1.456-4.198c0.175-0.262,0.766-1.011,1.675-2.027H93.48c0,0,0.47-0.858,0.183-1.389&#xD;&#xA;&#x9;&#x9;c-0.051-0.094-0.441-0.646-1.624-0.183c-0.14,0.055-1.457,0.691-2.394,1.991c-0.06,0.079-2.36,3.504-4.026,6.052l-1.625,2.472&#xD;&#xA;&#x9;&#x9;h-2.936l4.07-6.163c0,0,0.322-0.531,0.154-0.611c-0.19-0.086-0.717,0.417-1.61,1.327c0,0-3.534,3.926-6.707,5.315&#xD;&#xA;&#x9;&#x9;c0,0-2.417,1.091-3.327-0.403c0,0-0.673-0.896,1.003-3.521c0,0-1.068,0.507-2.625,0.661c0,0-1.457,2.741-4.054,3.59&#xD;&#xA;&#x9;&#x9;c-0.2,0.063-2.656,0.742-4.019-0.181c0,0-1.323-0.773-0.545-2.213c0,0,0.808-1.521,2.782-1.807&#xD;&#xA;&#x9;&#x9;c0.108-0.014,1.221-0.152,2.782-0.039c0,0,1.004-1.658,1.313-3.458c0.022-0.11,0.296-1.843,0.182-2.763c0,0-1.418,1.414-2.55,2.44&#xD;&#xA;&#x9;&#x9;c0,0-2.909,2.806-3.35,3.239c-0.443,0.428-2.368,2.207-3.457,3.051c-0.286,0.222-1.95,1.881-3.521,1.881&#xD;&#xA;&#x9;&#x9;c0,0-1.69-0.035-1.314-1.412c0.048-0.179,0.144-1.093,3.028-5.421c0,0,1.468-2.245,1.547-2.468&#xD;&#xA;&#x9;&#x9;c0.077-0.222,0.296-0.836-0.249-1.298c-0.124-0.106-0.699-0.419-2.26,0.728c-0.263,0.192-1.442,1.197-2.691,3.222&#xD;&#xA;&#x9;&#x9;c-0.057,0.1-2.115,3.183-4.287,6.482h-2.974l3.428-4.978l2.823-4.171c0,0,0.225-0.37,0.064-0.533&#xD;&#xA;&#x9;&#x9;c-0.165-0.162-0.755,0.483-0.755,0.483s-2.027,2.198-2.533,2.716c0,0-2.832,3.288-5.823,5.34c-0.122,0.083-2.377,1.792-4.041,1.339&#xD;&#xA;&#x9;&#x9;c0,0-2.309-0.064-1.977-3.127c0,0-2.415,2.548-4.715,3.167c-0.144,0.041-2.049,0.348-2.998-0.403c0,0-0.664-0.587,0.115-2.146&#xD;&#xA;&#x9;&#x9;c0,0,0.532-1.131,0.351-1.285c-0.181-0.152-3.398,2.954-6.692,3.858l-0.492-0.324c0,0,4.224-1.495,8.496-5.992&#xD;&#xA;&#x9;&#x9;c0.05-0.048,1.533-1.592,2.771-3.563c0.143-0.23,5.926-8.516,5.926-8.516h-2.393l0.638-0.876h2.142L48.942,57.978z M49.185,77.28&#xD;&#xA;&#x9;&#x9;c0.471-0.611,0.654-1.23,0.654-1.23s0.277-0.754-0.136-1.141c-0.37-0.345-1.165,0.027-1.264,0.087&#xD;&#xA;&#x9;&#x9;c-0.663,0.391-1.489,1.067-1.62,1.182c-1.276,1.121-2.766,3.318-2.766,3.318C47.17,79.663,49.123,77.356,49.185,77.28&#xD;&#xA;&#x9;&#x9; M64.192,83.344c-0.406,0.952,0.681,1.219,0.967,1.193c1.898-0.19,3.551-2.358,3.551-2.358&#xD;&#xA;&#x9;&#x9;C65.131,81.685,64.278,83.147,64.192,83.344 M102.364,74.564c0.258-0.437,0.007-0.384,0.007-0.384&#xD;&#xA;&#x9;&#x9;c-2.084,0.302-3.845,1.999-3.931,2.069c-3.274,2.817-3.779,5.161-3.779,5.161c-0.565,2.143,0.599,2.514,0.718,2.568&#xD;&#xA;&#x9;&#x9;c1.19,0.54,2.988-0.618,3.697-1.107c3.239-2.242,4.159-5.7,4.159-5.7C101.172,76.58,102.364,74.564,102.364,74.564 M128.983,81.986&#xD;&#xA;&#x9;&#x9;c0,0-1.252-0.825-2.755-0.46c-0.247,0.058-1.784,0.656-1.632,1.847c0.009,0.068,0.366,1.175,2.221,0.381&#xD;&#xA;&#x9;&#x9;C127.041,83.66,128.137,83.177,128.983,81.986"/>
  </g>
</svg>