<?xml version="1.0" encoding="utf-8"?>
<svg version="1.2" baseProfile="tiny-ps" xmlns="http://www.w3.org/2000/svg" xmlns:xlink="http://www.w3.org/1999/xlink" viewBox="0 0 170 170" xml:space="preserve">
<title>TwoFive, Inc</title>
   <g>
     <rect x="103.1" y="42.9" width="2.7" height="13.5" fill="#3e3a39"/>
     <rect x="103.1" y="38.8" width="2.7" height="2.7" fill="#3e3a39"/>
     <polygon points="108.6 42.9 111.5 42.9 116.8 53.9 121.9 42.9 124.8 42.9 118.5 56.5 115 56.5 108.6 42.9" fill="#3e3a39"/>
     <rect x="88.2" y="48.4" width="10.9" height="2.7" fill="#3e3a39"/>
     <path d="M84.1,47c0-2.2,1.9-4.1,4.1-4.1h12.3v2.7h-12.3c-.7,0-1.4.6-1.4,1.4v9.5h-2.7v-9.5h0Z" fill="#3e3a39"/>
     <path d="M33.8,45.6h9.5v-2.7h-9.5v-2.7h-2.7v2.7h-4.1v2.7h4.1v6.8c0,2.2,1.9,4.1,4.1,4.1h8.2v-2.7h-8.2c-.7,0-1.4-.6-1.4-1.4v-6.7Z" fill="#3e3a39"/>
     <path d="M59.6,53.8h-4.1v-10.9h-2.7v10.9h-2.7c-.7,0-1.4-.6-1.4-1.4v-9.5h-2.7v9.5c0,2.2,1.9,4.1,4.1,4.1h12.3v-13.5h-2.7v10.9Z" fill="#3e3a39"/>
     <path d="M69.2,42.9c-2.2,0-4.1,1.9-4.1,4.1v5.5c0,2.2,1.9,4.1,4.1,4.1h8.2c2.2,0,4.1-1.9,4.1-4.1v-9.5h-12.3ZM78.7,52.4c0,.7-.6,1.4-1.4,1.4h-8.2c-.7,0-1.4-.6-1.4-1.4v-5.5c0-.7.6-1.4,1.4-1.4h9.5v7h.1Z" fill="#3e3a39"/>
     <path d="M143,51.1v-8.2h-12.3c-2.2,0-4.1,1.9-4.1,4.1v5.5c0,2.2,1.9,4.1,4.1,4.1h12.3v-2.7h-12.3c-.7,0-1.4-.6-1.4-1.4v-5.4c0-.7.6-1.4,1.4-1.4h9.5v2.7h-8.2v2.7h11Z" fill="#3e3a39"/>
   </g>
   <g>
     <polygon points="85 110.2 53.6 110.2 53.6 99.8 85 99.8 85 68.4 43.2 68.4 43.2 78.8 74.5 78.8 74.5 89.3 43.2 89.3 43.2 120.7 85 120.7 85 110.2" fill="#38b3e3"/>
     <polygon points="85 120.7 116.4 120.7 116.4 110.2 85 110.2 85 78.8 126.8 78.8 126.8 89.3 95.4 89.3 95.4 99.8 126.8 99.8 126.8 131.2 85 131.2 85 120.7" fill="#0065b1"/>
   </g>
</svg>