<?xml version="1.0" encoding="UTF-8"?>
<svg id="CIC-Logo" xmlns="http://www.w3.org/2000/svg" baseProfile="tiny-ps" version="1.2" viewBox="0 0 111 111">
<title>The Cincinnati Insurance Companies</title>
  <path d="M26.9,72.1c0,.5-.2,1-.2,1.5-1.3.3-2.4.4-3.5.4s-1.9,0-2.7-.4c-.9-.3-1.6-.7-2.3-1.3-.7-.6-1.1-1.3-1.4-2.1-.3-.8-.4-1.7-.4-2.6s.2-2,.5-2.9.8-1.7,1.5-2.4c.7-.6,1.5-1.1,2.4-1.4.9-.3,1.9-.5,3-.5s2.2,0,3.3.4c0,.3,0,.8.1,1.5-.7-.2-1.3-.4-1.8-.4s-1,0-1.4,0c-.8,0-1.5,0-2.2.4-.7.2-1.3.6-1.9,1.1-.5.5-1,1.2-1.2,1.9-.3.8-.4,1.5-.4,2.4s.1,1.5.3,2.2c.2.7.6,1.3,1.1,1.7.5.5,1,.8,1.7,1.1.7.2,1.4.4,2.2.4s2.2-.2,3.6-.6" fill="#005a83" stroke-width="0"/>
  <path d="M28.7,73.8v-1.6c.1,0,.2-3.3.2-3.3v-3.2c0-.2.1-.4.1-.6v-.7h1.4c0,1.1-.1,2.3-.2,3.5,0,2-.1,3.9-.2,5.7h-1.3" fill="#005a83" stroke-width="0"/>
  <path d="M32.2,73.8v-1.9c0,0,.4-5.5.4-5.5v-1.9h1.6l.7,1.2,4.5,6.8.3-8h1.2v2.4c0,0-.3,4.2-.3,4.2v2.7h-1.7l-.6-1-4.6-6.9v1.2l-.2,4.8v1.9h-1.2" fill="#005a83" stroke-width="0"/>
  <path d="M49.9,72.6c0,.3,0,.7-.2,1.1-.9.2-1.7.3-2.5.3s-1.3,0-1.9-.3c-.6-.2-1.2-.5-1.6-.9-.5-.4-.8-.9-1-1.5s-.3-1.2-.3-1.8,0-1.4.3-2,.6-1.2,1-1.6c.5-.4,1-.8,1.7-1s1.4-.3,2.1-.3,1.6,0,2.3.2v1.1c-.5-.2-.9-.3-1.3-.3h-1c-.5,0-1.1,0-1.5.2-.5.2-.9.4-1.3.8-.4.4-.7.8-.9,1.3s-.3,1.1-.3,1.6,0,1,.2,1.5.4.9.7,1.2c.3.3.7.6,1.2.8.5.2,1,.3,1.5.3s1.5,0,2.5-.4" fill="#005a83" stroke-width="0"/>
  <path d="M51.4,73.8v-1.6c0,0,.2-3.3.2-3.3v-3.2c0-.2,0-.4,0-.6v-.7h1.4c0,1.1,0,2.3-.2,3.5,0,2,0,3.9-.2,5.7h-1.3" fill="#005a83" stroke-width="0"/>
  <path d="M54.9,73.8v-1.9c0,0,.4-5.5.4-5.5v-1.9h1.6l.7,1.2,4.5,6.8.3-8h1.2v2.4c0,0-.3,4.2-.3,4.2v2.7h-1.7l-.6-1-4.6-6.9v1.2l-.2,4.8v1.9h-1.2" fill="#005a83" stroke-width="0"/>
  <path d="M65.4,73.8v-1.9c0,0,.4-5.5.4-5.5v-1.9h1.6l.7,1.2,4.5,6.8.3-8h1.2v2.4c0,0-.3,4.2-.3,4.2v2.7h-1.7l-.6-1-4.6-6.9v1.2l-.2,4.8v1.9h-1.2" fill="#005a83" stroke-width="0"/>
  <path d="M78.3,69h3.1l-1.3-3.6s-1.8,3.6-1.8,3.6ZM74.7,73.8l1.2-2.3,3.2-6.2.4-.8h1.6l1.2,3.3,2.2,5.9h-1.3c0-.4-.3-1.1-.6-1.9-.3-.8-.5-1.5-.7-2h-3.7l-1,2-.9,1.9h-1.4" fill="#005a83" stroke-width="0"/>
  <path d="M87.5,73.8v-2.1c0,0,.3-4.3.3-4.3v-2h-2.9v-1h7.1v1h-2.9v3c0,0-.3,4.2-.3,4.2v1.1h-1.4" fill="#005a83" stroke-width="0"/>
  <path d="M92.8,73.8v-1.6c0,0,.2-3.3.2-3.3v-3.2c0-.2,0-.4,0-.6v-.7h1.4c0,1.1,0,2.3-.2,3.5,0,2,0,3.9-.2,5.7h-1.3" fill="#005a83" stroke-width="0"/>
  <path d="M16.1,80.7v-2.4c.1,0,.1-1.6.1-1.6v-.7h.6v4.7h-.7" fill="#5e6e66" stroke-width="0"/>
  <path d="M17.8,80.7v-1l.2-2.8v-.9h.8l.4.6,2.3,3.4v-4h.8v4.7h-.9l-.3-.5-2.3-3.5v4h-.7" fill="#5e6e66" stroke-width="0"/>
  <path d="M23,80.6v-.6c.2,0,.5.2.7.2h1.1c.1,0,.3,0,.3-.2s.1-.2.1-.4,0-.2,0-.2c0,0,0,0-.1-.2,0,0-.2-.2-.3-.3-.1,0-.3-.3-.6-.5l-.3-.2s-.2-.2-.3-.2c0,0-.1-.2-.2-.2,0,0,0,0-.1-.2v-.4c0-.2,0-.4.2-.6.1-.2.3-.3.5-.4s.5-.2.9-.2.6,0,.9,0v.5c-.3,0-.7-.2-1-.2h-.5c-.1,0-.2,0-.3.3,0,0-.1.2-.1.3v.4s.1.2.2.2c0,0,.2.2.3.3,0,0,.2,0,.4.3.2.2.4.3.5.4s.2.2.2.3c0,0,.1.2.1.3v.3c0,.2,0,.4-.1.5,0,.2-.2.3-.3.4-.1,0-.3.2-.5.2h-1.1c-.2,0-.4,0-.7-.2" fill="#5e6e66" stroke-width="0"/>
  <path d="M26.7,76.1h.6l-.2,2.6v.3h0c0,.3,0,.6.1.7,0,.2.2.3.4.4.2,0,.5,0,.8,0h.6c.1,0,.3,0,.4-.2.1,0,.2-.2.3-.3,0,0,.1-.2.1-.4v-3.3h.7v1.6c-.1,0-.2,1.3-.2,1.3v.7c0,0,0,.2-.2.3,0,0-.1.2-.2.3-.1,0-.2.2-.4.2s-.3,0-.5.2h-1.5c-.2,0-.4,0-.5-.2-.2,0-.3-.2-.4-.3,0,0-.1-.2-.2-.4v-3.7" fill="#5e6e66" stroke-width="0"/>
  <path d="M31.6,80.7v-2.6c.1,0,.1-1.4.1-1.4v-.6h2.3c.2,0,.3,0,.5.2,0,0,.2.2.3.4v1c0,0,0,.3-.2.4,0,0-.2.2-.4.3,0,0-.2,0-.4,0h-.4l.6,1,.6,1s0,.2.2.3h-.8l-.2-.5s0-.2-.2-.3c0,0,0-.2-.2-.3l-.8-1.3s0,0-.2-.3h.5c.2,0,.4,0,.6,0,.2,0,.3-.2.4-.4s.2-.3.2-.5v-.3s0-.2-.2-.2c0,0,0,0-.2,0h-1.5c0,1.5,0,3,0,4.2h-.6" fill="#5e6e66" stroke-width="0"/>
  <path d="M36.8,78.2h1.5l-.6-1.8-.9,1.8ZM34.9,80.7l.6-1.2,1.6-3.1.2-.4h.8l.6,1.7,1.1,3h-.7c0-.2-.2-.5-.3-1,0-.4-.3-.8-.4-1h-1.9l-.5,1-.4.9h-.8" fill="#5e6e66" stroke-width="0"/>
  <path d="M40.5,80.7v-1l.2-2.8v-.9h.8l.4.6,2.3,3.4v-4h.7v4.7h-.9l-.3-.5-2.3-3.5v4h-.7" fill="#5e6e66" stroke-width="0"/>
  <path d="M49.4,80.1v.5c-.5,0-.9,0-1.2,0s-.7,0-1-.2c-.3,0-.6-.3-.8-.5s-.4-.5-.5-.8-.2-.6-.2-.9,0-.7.2-1c0-.3.3-.6.5-.8.2-.2.5-.4.9-.5.3,0,.7-.2,1.1-.2s.8,0,1.2,0v.5c-.3,0-.5,0-.6-.2h-.5c-.3,0-.5,0-.8,0-.2,0-.5.2-.7.4-.2.2-.3.4-.4.7,0,.3-.2.5-.2.8s0,.5,0,.8c0,.2.2.4.4.6s.4.3.6.4c.2,0,.5,0,.8,0s.8,0,1.3-.2" fill="#5e6e66" stroke-width="0"/>
  <path d="M50.2,80.7v-1.3l.2-2.4v-1h3v.5h-2.3v1.6h2.1v.5h-2.2v1.7h2.3v.5h-3.1Z" fill="#5e6e66" stroke-width="0"/>
  <path d="M59.5,80.1v.5c-.4,0-.9,0-1.2,0s-.7,0-1-.2c-.3,0-.6-.3-.8-.5s-.4-.5-.5-.8-.2-.6-.2-.9,0-.7.2-1c0-.3.3-.6.5-.8.2-.2.5-.4.9-.5.3,0,.7-.2,1.1-.2s.8,0,1.2,0v.5c-.3,0-.5,0-.6-.2h-.5c-.3,0-.5,0-.8,0-.2,0-.5.2-.7.4-.2.2-.3.4-.4.7,0,.3-.2.5-.2.8s0,.5,0,.8c0,.2.2.4.4.6s.4.3.6.4c.2,0,.5,0,.8,0s.8,0,1.3-.2" fill="#5e6e66" stroke-width="0"/>
  <path d="M62.8,76.3c-.3,0-.5,0-.8,0-.2,0-.5.2-.6.4-.2.2-.3.4-.4.7,0,.3,0,.5,0,.8s0,.5,0,.8c0,.2.2.4.4.6s.4.3.6.4c.2,0,.5,0,.7,0s.5,0,.8,0c.2,0,.5-.2.6-.4.2-.2.3-.4.4-.7,0-.3,0-.5,0-.8s0-.5,0-.8c0-.2-.2-.5-.4-.6-.2-.2-.4-.3-.6-.4-.2,0-.5,0-.7,0M62.8,76c.3,0,.7,0,1,0,.3,0,.6.3.8.5s.4.5.5.8c0,.3,0,.6,0,.9s0,.7-.2,1c0,.3-.3.6-.5.8-.2.2-.5.4-.8.5s-.7.2-1.1.2-.7,0-1-.2c-.3,0-.6-.3-.8-.5s-.4-.5-.5-.8c0-.3-.2-.6-.2-.9s0-.7.2-1c0-.3.3-.6.5-.8.2-.2.5-.4.9-.5.3,0,.7-.2,1.1-.2" fill="#5e6e66" stroke-width="0"/>
  <path d="M65.9,80.7v-.6l.3-2.6v-1.5h1v.3c0,0,0,.2.2.3,0,0,0,.3.2.5l.4,1.2.5,1.6.7-1.6.8-1.8v-.2s0-.2,0-.3h.9v4.6h-.6v-4.1l-1.5,3.6-.2.5h-.6l-.4-1.3-.4-1.3-.4-1.2v-.3.4l-.3,3v.7h-.6" fill="#5e6e66" stroke-width="0"/>
  <path d="M72,80.7v-.8l.2-2.7v-1.3h2.3c0,0,.3,0,.4.2s.2.2.3.4v.5c0,.3,0,.5-.2.8,0,.2-.3.4-.6.5-.3,0-.5.2-.8.2h-.5c0-.2,0-.3,0-.4h1c.2,0,.3,0,.4-.2,0,0,.2-.2.3-.3v-.7s0-.2-.2-.2c0,0-.2,0-.3,0h-1.4v4.3h-.6" fill="#5e6e66" stroke-width="0"/>
  <path d="M77,78.2h1.5l-.6-1.8-.9,1.8ZM75.2,80.7l.6-1.2,1.6-3.1.2-.4h.8l.6,1.7,1.1,3h-.7c0-.2-.2-.5-.3-1,0-.4-.3-.8-.4-1h-1.9l-.5,1-.4.9h-.8" fill="#5e6e66" stroke-width="0"/>
  <path d="M80.7,80.7v-1l.2-2.8v-.9h.8l.4.6,2.3,3.4v-4h.7v4.7h-.9l-.3-.5-2.3-3.5v4h-.7" fill="#5e6e66" stroke-width="0"/>
  <path d="M86,80.7v-2.4c0,0,0-1.6,0-1.6v-.7h.6v4.7h-.7" fill="#5e6e66" stroke-width="0"/>
  <path d="M87.7,80.7v-1.3l.2-2.4v-1h3v.5h-2.3v1.6h2.1v.5h-2.2v1.7h2.3v.5h-3.1Z" fill="#5e6e66" stroke-width="0"/>
  <path d="M91.5,80.6v-.6c.2,0,.5.2.7.2h1.1c0,0,.3,0,.3-.2s0-.2,0-.4,0-.2,0-.2c0,0,0,0,0-.2l-.3-.3c0,0-.3-.3-.6-.5l-.3-.2s-.2-.2-.3-.2c0,0,0-.2-.2-.2,0,0,0,0,0-.2v-.4c0-.2,0-.4.2-.6,0-.2.3-.3.5-.4s.5-.2.9-.2.6,0,.9,0v.5c-.4,0-.7-.2-1-.2h-.5c0,0-.2,0-.3.3,0,0,0,.2,0,.3v.4s0,.2.2.2l.3.3s.2,0,.4.3.4.3.5.4.2.2.2.3c0,0,0,.2,0,.3v.3c0,.2,0,.4,0,.5,0,.2-.2.3-.3.4,0,0-.3.2-.5.2h-1.1c-.2,0-.4,0-.7-.2" fill="#5e6e66" stroke-width="0"/>
  <path d="M29.8,63.4v-2.1c.1,0,.1-.6.1-.6h-.9v-.3h2.3v.3h-1v2.8h-.4" fill="#005a83" stroke-width="0"/>
  <path d="M31.6,63.4v-2.3c.1,0,.1-.3.1-.3v-.3h.4v1.3h1.7v-1.3h.4v3h-.4v-1.4h-1.8v1.4h-.4" fill="#005a83" stroke-width="0"/>
  <path d="M34.9,63.4v-2.4c0,0,0-.3,0-.3v-.3h1.9v.3h-1.6v1h1.4v.3h-1.4v1.1h1.5v.3h-2,.1Z" fill="#005a83" stroke-width="0"/>
  <path d="M3.6,58.5c4.7-2,16.9-7.2,24.6-11.8,1.8-1,3.3-2.1,4.8-3.2l-.3,8.8c-15.5,1.2-26.1,4.9-29.1,6.1M33.5,34.4h-.2c0-.1-.9.7-.9.7l.6.3v7.1h0c-1.9,1.4-4.1,2.9-6.6,4.4-9.1,5.4-20.4,10.5-23.8,12,1.4-.7,13.5-7,20.2-12.3,7.2-5.6,9.6-11.4,9.6-11.4,0,0-3.1,5.4-11.1,11.7-7.6,6-17.6,11.5-18.7,12.1-.6.3-.9.4-.9.4,0,0,.4-.2,1.2-.5,1-.3,11.8-3.6,29.8-4.8v2.7l1.3.3v-23l-.4.4h0Z" fill="#005a83" stroke-width="0"/>
  <polygon points="35.2 33.5 35.2 57 36.9 56.9 36.9 33.5 35.2 33.5" fill="#005a83" stroke-width="0"/>
  <path d="M41.9,42.6v9.4h-3.3v-9.3s0-1.8,1.7-1.8,1.7,1.7,1.7,1.7M45.7,42.6l-.5-1v-2.1c4.3,2.5,10.2,5.4,17.6,7.8,7.2,2.3,15.7,4.5,23.2,6.3,12.1,3.1,23.6,5.5,23.6,5.5,0,0-22.4-5.4-39.1-11.2-16.7-5.8-24.8-13.1-24.8-13.1,0,0,4.9,5.5,14.7,10.4-6.3-2.3-11.4-4.6-15.1-6.6v-3.3l.4-.4-1-.2-.5.3v3.1c-.5-.3-1-.6-1.5-.8v-.5l-1.1-.2c-1-.6-1.8-1.1-2.5-1.5l3.6.6v-.9l-4.5-.7v.4c-.9-.6-1.4-1-1.4-1,0,0,.5.4,1.4,1.2v.2h.4c.5.5,1.2,1,2,1.5l-2.3-.4v4.1s.2-1.1,2.4-1.1,2.1,1,2.1,1.1v-2.2c.5.3,1,.6,1.5.9v13.2h-1.4v-9.5s0-1.8-2.3-1.7c-2.4,0-2.3,1.9-2.3,1.9v9.4h0v1.7c2,0,4,0,6.1,0v2.7l.8.3,1.3-.2v-2.8c26.5,0,57.4,4.2,57.4,4.2,0,0-33.8-5.1-57.5-5.7l-.5-9.5h-.2Z" fill="#005a83" stroke-width="0"/>
  <path d="M42.8,40.1h0Z" fill="#005a83" stroke-width="0"/>
  <polygon points="38.2 56.8 42.8 56.7 42.8 54.9 38.2 55 38.2 56.8" fill="#005a83" stroke-width="0"/>
  <path d="M48.1,55.2h.2c.2,0,.3,0,.3-.2s-.2-.2-.3-.2h-.2v.4ZM47.8,54.6h.5c.3,0,.5,0,.5.4s-.2.4-.4.4l.4.6h-.3l-.3-.6h-.2v.6h-.3v-1.4h0ZM48.3,56.2c.5,0,.9-.4.9-1s-.4-1-.9-1-.9.4-.9,1,.4,1,.9,1M48.3,54.1c.7,0,1.3.5,1.3,1.2s-.6,1.2-1.3,1.2-1.3-.5-1.3-1.2.6-1.2,1.3-1.2" fill="#005a83" stroke-width="0"/>
</svg>