<?xml version="1.0" encoding="utf-8"?>
<!-- Generator: Adobe Illustrator 25.2.0, SVG Export Plug-In . SVG Version: 6.00 Build 0)  -->
<svg version="1.2" baseProfile="tiny-ps" id="Layer_1" xmlns="http://www.w3.org/2000/svg" xmlns:xlink="http://www.w3.org/1999/xlink"
	 viewBox="0 0 129 145" xml:space="preserve">
<title>boozt.com</title>
<g id="Mobile">
	<g id="Combined-Shape">
		<path fill-rule="evenodd" d="M98.7,59.1v7.7h3.3v0.7h-3.3v11.3c0,2.2,0.2,3.8,0.6,4.7c0.4,1,1.1,1.4,2.3,1.4c0.5,0,1-0.2,1-0.2
			l0,0l0.2,0.5c-0.8,0.4-1.8,0.5-3,0.5c-1,0-2-0.1-2.9-0.4c-0.9-0.3-1.7-0.7-2.4-1.3c-0.7-0.6-1.2-1.5-1.6-2.5c-0.4-1-0.6-2.4-0.6-4
			l0,0V67.5h-2.4l0-0.7h2c4.2,0,6.5-7.1,6.5-7.7l0,0H98.7z M38.7,66.1c1.7,0,3.1,0.3,4.3,0.9c1.2,0.6,2.3,1.3,3.1,2.2
			c0.8,0.9,1.4,2,1.8,3.1c0.4,1.2,0.6,2.4,0.6,3.6c0,1.2-0.2,2.4-0.6,3.6c-0.4,1.2-1,2.2-1.8,3.1c-0.8,0.9-1.8,1.7-3.1,2.2
			c-1.2,0.6-2.7,0.9-4.3,0.9s-3.1-0.3-4.3-0.9c-1.2-0.6-2.3-1.3-3.1-2.2c-0.8-0.9-1.4-2-1.8-3.1c-0.4-1.2-0.6-2.4-0.6-3.6
			c0-1.2,0.2-2.4,0.6-3.6c0.4-1.2,1-2.2,1.8-3.1c0.8-0.9,1.8-1.7,3.1-2.2C35.6,66.4,37.1,66.1,38.7,66.1z M60.2,66.1
			c1.7,0,3.1,0.3,4.3,0.9c1.2,0.6,2.3,1.3,3.1,2.2c0.8,0.9,1.4,2,1.8,3.1c0.4,1.2,0.6,2.4,0.6,3.6c0,1.2-0.2,2.4-0.6,3.6
			c-0.4,1.2-1,2.2-1.8,3.1c-0.8,0.9-1.8,1.7-3.1,2.2c-1.2,0.6-2.7,0.9-4.3,0.9s-3.1-0.3-4.3-0.9c-1.2-0.6-2.3-1.3-3.1-2.2
			c-0.8-0.9-1.4-2-1.8-3.1c-0.4-1.2-0.6-2.4-0.6-3.6c0-1.2,0.2-2.4,0.6-3.6c0.4-1.2,1-2.2,1.8-3.1c0.8-0.9,1.8-1.7,3.1-2.2
			C57,66.4,58.5,66.1,60.2,66.1z M117.2,79.4c1.9,0,3.2,1.4,3.2,3.2c0,1.8-1.3,3.2-3.2,3.2c-1.9,0-3.2-1.4-3.2-3.2
			C114,80.8,115.2,79.4,117.2,79.4z M110,79.4c1.1,0,1.9,0.5,2.4,1.2l-0.7,0.4c-0.4-0.5-1-0.9-1.8-0.9c-1.4,0-2.5,1-2.5,2.5
			c0,1.5,1.1,2.5,2.5,2.5c0.7,0,1.4-0.4,1.8-0.9l0.7,0.4c-0.5,0.7-1.3,1.2-2.4,1.2c-1.8,0-3.3-1.3-3.3-3.2
			C106.7,80.7,108.2,79.4,110,79.4z M87.7,66.8v1.1l-9.6,17h4.2c1.7,0,3-0.5,3.8-1.4c0.9-0.9,1.4-2.1,1.6-3.6l0,0h0.4v5.7H71.3v-1
			l9.9-17.1h-3.8c-1.2,0-2.3,0.4-3.2,1.1c-1,0.8-1.5,1.9-1.7,3.4l0,0h-0.4v-5.2H87.7z M11.6,59.1c0.1,0,0.3,0,0.4,0
			c0.5,0,0.9,0,1.3,0c0.9,0,1.6,0.1,2.4,0.1c0.7,0.1,1.4,0.1,2,0.2c0.6,0.1,1.2,0.2,1.7,0.3c1.8,0.4,3.2,1.1,4.2,2.1
			c1,1,1.6,2.1,1.6,3.4c0,0,0,0,0,0c0,0.8-0.2,1.5-0.6,2.2c-0.4,0.7-0.9,1.2-1.5,1.7c-0.8,0.6-1.8,1-2.9,1.2
			c-1.1,0.3-1.9,0.4-3.7,0.5c0.7,0.1,1.5,0.2,1.9,0.2c0.4,0.1,0.2,0,0.5,0.1c0.3,0.1,0.9,0.1,1.9,0.4c1.9,0.5,3.4,1.4,4.5,2.5
			c1.1,1.1,1.6,2.4,1.6,4c0,1.2-0.3,2.2-0.8,3.1c-0.6,0.9-1.4,1.7-2.4,2.4c-1,0.6-2.3,1.1-3.8,1.5c-1.5,0.3-2.5,0.5-4.4,0.5l0,0H1
			v-0.4c0.9-0.1,1.5-0.2,1.9-0.3c0.4-0.2,0.8-0.4,1.1-0.8c0.3-0.4,0.4-0.8,0.5-1.2c0-0.2,0.1-0.4,0.1-0.6c0-0.2,0.1-0.5,0.1-0.8
			c0-0.3,0-0.6,0-1.1l0,0V63.7c0-0.8-0.1-1.4-0.2-1.9C4.4,61.4,4.2,61,4,60.6c-0.3-0.4-0.6-0.6-1-0.8c-0.4-0.1-1.1-0.3-2-0.3l0,0
			v-0.4H11.6z M105.1,83.7c0.5,0,0.9,0.4,0.9,0.9c0,0.5-0.4,0.9-0.9,0.9c-0.5,0-0.9-0.4-0.9-0.9C104.2,84.2,104.6,83.7,105.1,83.7z
			 M123.4,79.4l2,4.6l2-4.6h1.1v6.1h-0.8v-5.1l-2.2,5.1h-0.3l-2.2-5.1v5.1h-0.8v-6.1H123.4z M13.1,59.6h-1v21.3c0,0.9,0,1.6,0.1,2.2
			c0.1,0.5,0.2,1,0.4,1.3c0.2,0.3,0.4,0.5,0.8,0.6c0.3,0.1,0.8,0.2,1.3,0.2c1.6,0,2.8-0.5,3.5-1.6c0.7-1.1,1.1-2.9,1.1-5.3
			c0-1.8-0.2-3.3-0.7-4.5c-0.3-0.7-0.7-1.2-1.3-1.6c0,0,0,0,0,0C17.1,72,17,72,17,72c-1-0.6-2.3-0.7-2.8-0.7l-0.1,0c0,0-0.1,0-0.1,0
			l0,0v-0.5c0.3,0,1.2,0,2-0.4c0.1,0,0.1-0.1,0.2-0.1c0.1-0.1,0.2-0.1,0.3-0.2c0,0,0,0,0,0c0,0,0,0,0,0c0.1-0.1,0.2-0.2,0.3-0.3
			c0.4-0.4,0.6-0.9,0.9-1.5c0.3-0.9,0.5-1.9,0.5-3.1c0-0.8-0.1-1.5-0.2-2.1c-0.1-0.6-0.3-1.1-0.6-1.6c-0.4-0.7-0.9-1.2-1.5-1.5
			C15.3,59.8,14.3,59.6,13.1,59.6L13.1,59.6z M117.2,80.1c-1.4,0-2.4,1.1-2.4,2.5c0,1.4,0.9,2.5,2.4,2.5c1.4,0,2.4-1.1,2.4-2.5
			C119.5,81.1,118.6,80.1,117.2,80.1z M38.7,66.9c-0.7,0-1.3,0.2-1.7,0.5c-0.4,0.3-0.7,0.8-0.9,1.4c-0.2,0.6-0.3,1.4-0.4,2.3
			c-0.1,0.9-0.1,2-0.1,3.1l0,0v3.4c0,1.2,0,2.2,0.1,3.1c0.1,0.9,0.2,1.7,0.4,2.3c0.2,0.6,0.5,1.1,0.9,1.4c0.4,0.3,1,0.5,1.7,0.5
			s1.3-0.2,1.7-0.5c0.4-0.3,0.7-0.8,0.9-1.4c0.2-0.6,0.3-1.4,0.4-2.3c0.1-0.9,0.1-2,0.1-3.1l0,0v-3.4c0-1.2,0-2.2-0.1-3.1
			c-0.1-0.9-0.2-1.7-0.4-2.3c-0.2-0.6-0.5-1.1-0.9-1.4C40,67.1,39.4,66.9,38.7,66.9z M60.2,66.9c-0.7,0-1.3,0.2-1.7,0.5
			c-0.4,0.3-0.7,0.8-0.9,1.4c-0.2,0.6-0.3,1.4-0.4,2.3c-0.1,0.9-0.1,2-0.1,3.1l0,0v3.4c0,1.2,0,2.2,0.1,3.1c0.1,0.9,0.2,1.7,0.4,2.3
			c0.2,0.6,0.5,1.1,0.9,1.4c0.4,0.3,1,0.5,1.7,0.5c0.7,0,1.3-0.2,1.7-0.5c0.4-0.3,0.7-0.8,0.9-1.4c0.2-0.6,0.3-1.4,0.4-2.3
			c0.1-0.9,0.1-2,0.1-3.1l0,0v-3.4c0-1.2,0-2.2-0.1-3.1c-0.1-0.9-0.2-1.7-0.4-2.3c-0.2-0.6-0.5-1.1-0.9-1.4
			C61.4,67.1,60.9,66.9,60.2,66.9z"/>
	</g>
</g>
</svg>
