<?xml version="1.0" encoding="utf-8"?>
<!-- Generator: Adobe Illustrator 27.0.1, SVG Export Plug-In . SVG Version: 6.00 Build 0)  -->
<svg version="1.2" baseProfile="tiny-ps" id="Layer_1" xmlns="http://www.w3.org/2000/svg" xmlns:xlink="http://www.w3.org/1999/xlink"
	 viewBox="0 0 350 350" xml:space="preserve">
<title>Booztlet Nordic Designer Outlet</title>
<rect x="0.1" y="0.1" width="349.9" height="349.9"/>
<g>
	<path fill="#FFFFFF" d="M83,185.6c0-2.9-1-5.3-3-7.5c-2-2.1-4.8-3.9-8.4-4.7c-1.9-0.6-3-0.7-3.6-0.8c-0.6-0.1-0.3,0-1-0.2
		c-0.6-0.1-2-0.3-3.2-0.4v-0.1c3.2-0.2,4.5-0.5,6.6-1c2.1-0.5,3.9-1.3,5.5-2.3c1.2-0.8,2.1-1.9,2.9-3.2c0.7-1.3,1.1-2.7,1.1-4.1l0,0
		c0-2.4-1-4.5-3-6.4s-4.6-3.2-8-3.9c-1.1-0.2-2.2-0.5-3.3-0.6c-1.2-0.2-2.4-0.3-3.8-0.4c-1.4-0.1-2.8-0.2-4.5-0.2
		c-0.7,0-1.6,0-2.4-0.1c-0.2,0-0.5,0-0.7,0c-0.3,0-0.8,0-1.1,0h-19l0,0v0.7l0,0c1.7,0.1,2.9,0.4,3.7,0.6c0.8,0.3,1.4,0.8,1.9,1.5
		s0.8,1.4,1,2.3c0.2,0.9,0.3,2,0.3,3.5c0,0,0,30.9,0,31.7s0,1.5-0.1,2c0,0.6-0.1,1-0.1,1.4s-0.1,0.8-0.1,1.2c-0.1,0.8-0.5,1.6-1,2.3
		c-0.6,0.7-1.2,1.2-2,1.5s-2,0.5-3.6,0.6l0,0v0.7l0,0h27.3c3.6,0,5.4-0.3,8.3-1c2.9-0.7,5.3-1.6,7.2-2.8c2-1.2,3.5-2.7,4.5-4.5
		C82.5,189.8,83,187.8,83,185.6z M66.5,195.8c-1.4,2.1-3.6,3.1-6.7,3.1c-1,0-1.8-0.1-2.4-0.3s-1.1-0.6-1.5-1.2
		c-0.4-0.6-0.6-1.4-0.7-2.4s-0.1-2.4-0.1-4.1v-40.3l0,0h1.8c2.4,0,4.2,0.3,5.5,0.8c1.3,0.6,2.2,1.5,2.9,2.8c0.5,0.9,0.8,1.9,1.1,3
		c0.2,1.1,0.3,2.4,0.3,4c0,2.3-0.3,4.2-0.9,5.8c-0.4,1.2-1,2.2-1.7,2.9c-0.1,0.2-0.3,0.3-0.6,0.5l0,0c0,0-0.1,0-0.1,0.1
		c-0.2,0.1-0.4,0.2-0.6,0.3c-0.1,0-0.2,0.1-0.3,0.1c-1.5,0.7-3.2,0.8-3.8,0.8l0,0v0.8l0,0c0.3,0,3.3-0.1,5.6,1.3
		c0.2,0.1,0.3,0.2,0.4,0.3c0,0,0.1,0,0.1,0.1c1.1,0.8,1.9,1.8,2.5,3.1c0.9,2.2,1.4,5,1.4,8.5C68.6,190.4,67.9,193.7,66.5,195.8z"/>
	<path fill="#FFFFFF" d="M119.4,168.8c-1.5-1.7-3.4-3.1-5.8-4.2s-5.1-1.6-8.2-1.6c-3.1,0-5.9,0.5-8.2,1.6s-4.3,2.5-5.8,4.2
		s-2.7,3.7-3.4,5.9c-0.8,2.2-1.2,4.5-1.2,6.8s0.4,4.6,1.2,6.8s1.9,4.2,3.4,5.9s3.4,3.1,5.8,4.2c2.3,1.1,5.1,1.6,8.2,1.6
		c3.1,0,5.9-0.5,8.2-1.6c2.3-1.1,4.3-2.5,5.8-4.2s2.7-3.7,3.4-5.9c0.8-2.2,1.2-4.5,1.2-6.8s-0.4-4.6-1.2-6.8
		C122.1,172.5,120.9,170.5,119.4,168.8z M111.2,185c0,2.3-0.1,4.2-0.2,5.9c-0.1,1.7-0.4,3.1-0.7,4.3c-0.4,1.2-1,2-1.7,2.6
		c-0.8,0.6-1.8,0.9-3.1,0.9c-1.3,0-2.4-0.3-3.1-0.9c-0.8-0.6-1.4-1.4-1.7-2.6c-0.4-1.2-0.6-2.6-0.7-4.3c-0.1-1.7-0.2-3.7-0.2-5.9
		v-6.4c0-2.2,0.1-4.2,0.2-5.9c0.1-1.8,0.4-3.2,0.7-4.4c0.4-1.2,1-2.1,1.7-2.7c0.8-0.6,1.8-0.9,3.1-0.9c1.3,0,2.4,0.3,3.1,0.9
		c0.8,0.6,1.4,1.5,1.7,2.7c0.4,1.2,0.6,2.7,0.7,4.4c0.1,1.7,0.2,3.7,0.2,5.9V185z"/>
	<path fill="#FFFFFF" d="M159.9,168.8c-1.5-1.7-3.4-3.1-5.8-4.2c-2.3-1.1-5.1-1.6-8.2-1.6c-3.1,0-5.9,0.5-8.2,1.6s-4.3,2.5-5.8,4.2
		s-2.7,3.7-3.4,5.9c-0.8,2.2-1.2,4.5-1.2,6.8s0.4,4.6,1.2,6.8s1.9,4.2,3.4,5.9s3.4,3.1,5.8,4.2c2.3,1.1,5.1,1.6,8.2,1.6
		c3.1,0,5.9-0.5,8.2-1.6s4.3-2.5,5.8-4.2s2.7-3.7,3.4-5.9c0.8-2.2,1.2-4.5,1.2-6.8s-0.4-4.6-1.2-6.8
		C162.6,172.5,161.4,170.5,159.9,168.8z M151.7,185c0,2.3-0.1,4.2-0.2,5.9c-0.1,1.7-0.4,3.1-0.7,4.3c-0.4,1.2-1,2-1.7,2.6
		c-0.8,0.6-1.8,0.9-3.1,0.9s-2.4-0.3-3.1-0.9c-0.8-0.6-1.4-1.4-1.7-2.6c-0.4-1.2-0.6-2.6-0.7-4.3s-0.2-3.7-0.2-5.9v-6.4
		c0-2.2,0.1-4.2,0.2-5.9c0.1-1.8,0.4-3.2,0.7-4.4s1-2.1,1.7-2.7c0.8-0.6,1.8-0.9,3.1-0.9s2.4,0.3,3.1,0.9c0.8,0.6,1.4,1.5,1.7,2.7
		c0.4,1.2,0.6,2.7,0.7,4.4s0.2,3.7,0.2,5.9V185z"/>
	<path fill="#FFFFFF" d="M194.9,195.9c-1.6,1.7-4,2.6-7.2,2.6h-7.8l18.2-32.1v-2.1h-29.4v9.9h0.8c0.3-2.9,1.3-5,3.1-6.4
		s3.9-2.1,6.1-2.1h7.1L167.1,198v1.8h31.7V189H198C197.5,191.9,196.5,194.2,194.9,195.9z"/>
	<path fill="#FFFFFF" d="M224.6,198.7c-2.1,0-4-0.9-4.7-2.7s-0.6-4.8-0.6-8.9l0.3-21.4h6.6v-1.3h-6.6v-2.8v-8.2c0,0-0.6,0-0.7,0
		c0,1.2-4.5,11-12.3,11h-3.8v1.3h4.5l-0.3,19c0,3,0.3,5.5,1.1,7.5c0.7,2,1.8,3.6,3.1,4.8s2.8,2,4.5,2.5s3.6,0.7,5.5,0.7
		c2.4,0,4.3-0.3,5.8-1c-0.4-0.9-0.4-0.9-0.4-0.9S225.5,198.7,224.6,198.7z"/>
	<path fill="#FFFFFF" d="M313.5,198.7c-2.1,0-4-0.9-4.7-2.7s-0.6-4.8-0.6-8.9l0.3-21.4h6.6v-1.3h-6.6v-2.8v-8.2c0,0-0.6,0-0.7,0
		c0,1.2-4.5,11-12.3,11h-3.8v1.3h4.5l-0.3,19c0,3,0.3,5.5,1.1,7.5c0.7,2,1.8,3.6,3.1,4.8c1.3,1.2,2.8,2,4.5,2.5s3.6,0.7,5.5,0.7
		c2.4,0,4.3-0.3,5.8-1c-0.4-0.9-0.4-0.9-0.4-0.9S314.3,198.7,313.5,198.7z"/>
	<path fill="#FFFFFF" d="M288.9,174.8c-0.8-2.2-1.9-4.2-3.4-5.9s-3.4-3.1-5.8-4.2c-2.3-1.1-5.1-1.6-8.2-1.6s-5.9,0.5-8.2,1.6
		s-4.3,2.5-5.8,4.2s-2.7,3.7-3.4,5.9c-0.7,2-1.1,4-1.1,6l0,0v1.5l0,0c0.1,2,0.5,4.1,1.1,6c0.8,2.2,1.9,4.2,3.4,5.9s3.4,3.1,5.8,4.2
		c2.3,1.1,5.1,1.6,8.2,1.6h0.1l0,0c0.2,0,0.5,0,0.7,0c0.1,0,0.2,0,0.3,0c0.2,0,0.4,0,0.6,0s0.3,0,0.5,0h0.1c0.6-0.1,1.7-0.2,1.7-0.2
		c1.1-0.2,2.2-0.5,3.2-0.9l0,0l0,0c6.2-2.3,8.8-7.1,8.8-7.1l-0.8-0.5c-0.8,1.1-1.6,2.1-2.5,2.9c-2.2,1.9-4.7,2.7-5.7,2.9
		c-0.2,0-0.4,0.1-0.5,0.1l0,0l0,0c-11.1,2-12.1-6.7-12.1-12.3v-2.6h9.7h1.9h12.8l0,0v-1.5l0,0C290,178.8,289.6,176.7,288.9,174.8z
		 M277.3,181h-11.6v-2.5c0-2.2,0.1-4.2,0.2-5.9c0.1-1.8,0.4-3.2,0.7-4.4s1-2.1,1.7-2.7c0.8-0.6,1.8-0.9,3.1-0.9s2.4,0.3,3.1,0.9
		c0.8,0.6,1.4,1.5,1.7,2.7c0.4,1.2,0.6,2.7,0.7,4.4c0.1,1.8,0.2,3.7,0.2,5.9L277.3,181z"/>
	<path fill="#FFFFFF" d="M246.7,193.7v-40.5l0,0H246c-1.3,4.1-6.2,6.2-11.5,6.2h-2.3v1.3h3c0,11.2,0,32.9,0,32.9l0,0
		c0,3.8-2.1,4.8-4.9,5.1v0.9h7.5h9.7h4.2v-0.9C248.8,198.6,246.7,197.5,246.7,193.7z"/>
</g>
<g id="Layer_3">
</g>
<g id="Layer_4">
</g>
<g id="Layer_5">
</g>
</svg>
