<svg xmlns="http://www.w3.org/2000/svg" xmlns:xlink="http://www.w3.org/1999/xlink" version="1.2" viewBox="0 0 1423.059 1390.588" baseProfile="tiny-ps">
  <title>mx-logo-vertical-non-rasterized option1</title>
  <g id="Bounds">
    <rect x="68.235" y="49.412" width="1279.059" height="1279.059" fill="#FFFFFF"/>
  </g>
  <g id="X">
    <g>
      <circle cx="940.738" cy="631.173" r="211.221" fill="#EA8915"/>
      <circle cx="940.738" cy="631.173" r="179.538" fill="#E9931B"/>
      <circle cx="940.738" cy="631.173" r="152.607" fill="#ECA033"/>
      <circle cx="940.738" cy="631.173" r="129.716" fill="#EFAC4B"/>
      <circle cx="940.738" cy="631.173" r="110.259" fill="#F2B763"/>
      <circle cx="940.738" cy="631.173" r="93.72" fill="#F5C37B"/>
      <circle cx="940.738" cy="631.173" r="79.662" fill="#F7CD91"/>
      <circle cx="940.738" cy="631.173" r="67.713" fill="#F9D7A7"/>
      <circle cx="940.738" cy="631.173" r="57.556" fill="#FBE0BA"/>
      <circle cx="940.738" cy="631.173" r="48.922" fill="#FDE8CA"/>
      <circle cx="940.738" cy="631.173" r="41.584" fill="#FEEFDA"/>
      <circle cx="940.738" cy="631.173" r="35.346" fill="#FCF4EB"/>
    </g>
    <polygon points="1062.882,519.137 986.457,519.137 945.699,575.58 904.941,519.137 828.516,519.137    907.487,628.497 828.516,737.857 904.941,737.857 945.699,681.414 986.457,737.857 1062.882,737.857 983.912,628.497  " fill="#FFFFFF"/>
    <circle cx="940.738" cy="631.173" r="218.022" stroke-miterlimit="10" stroke-width="3" stroke="#000000" fill="none"/>
  </g>
  <g id="M">
    <path d="M772.48,791.3c-39.668-41.669-64.018-98.054-64.018-160.127c0-82.661,43.186-155.227,108.22-196.393v-59.296H588.765   l-42.412,78.608l-42.412-78.608H276.024V791.3h188.446V599.504l81.882,156.706l81.882-156.706V791.3H772.48z"/>
  </g>
  <g id="TOOLBOX">
    <g>
      <path d="M274.22,875.339h109.814l-17,24.796h-31.793v102.263h-29.229V900.135H274.22V875.339z"/>
      <g>
        <path d="M434.341,1002.398c-36.311,0-65.87-26.331-65.87-63.618c0-37.287,29.56-63.441,65.87-63.441     c36.494,0,65.506,26.154,65.506,63.441C499.847,976.067,470.652,1002.398,434.341,1002.398z M434.341,974.83     c20.437,0,33.757-14.314,33.757-36.05c0-22.09-13.32-36.05-33.757-36.05c-20.801,0-33.938,13.961-33.938,36.05     C400.403,960.517,413.54,974.83,434.341,974.83z"/>
      </g>
      <g>
        <path d="M573.4,1002.398c-36.311,0-65.87-26.331-65.87-63.618c0-37.287,29.56-63.441,65.87-63.441     c36.494,0,65.506,26.154,65.506,63.441C638.906,976.067,609.711,1002.398,573.4,1002.398z M573.4,974.83     c20.437,0,33.757-14.314,33.757-36.05c0-22.09-13.32-36.05-33.757-36.05c-20.801,0-33.938,13.961-33.938,36.05     C539.462,960.517,552.599,974.83,573.4,974.83z"/>
      </g>
      <g>
        <path d="M898.811,1002.398c-36.311,0-65.87-26.331-65.87-63.618c0-37.287,29.56-63.441,65.87-63.441     c36.494,0,65.506,26.154,65.506,63.441C964.318,976.067,935.123,1002.398,898.811,1002.398z M898.811,974.83     c20.437,0,33.757-14.314,33.757-36.05c0-22.09-13.32-36.05-33.757-36.05c-20.801,0-33.938,13.961-33.938,36.05     C864.873,960.517,878.011,974.83,898.811,974.83z"/>
      </g>
      <path d="M682.081,875.339v103.167h41.449v23.892h-73.09V875.339H682.081z"/>
      <path d="M787.867,1002.398h-55.894V875.339h54.014c24.442,0,38.972,12.851,38.972,32.941c0,15.384-8.718,25.339-20.341,28.959    c14.017,3.077,23.075,16.109,23.075,30.588C827.693,988.824,813.164,1002.398,787.867,1002.398z M780.346,900.135h-19.145v26.607    h19.145c9.572,0,14.87-4.525,14.87-13.212C795.216,904.842,789.918,900.135,780.346,900.135z M782.397,949.367h-21.195v28.054    h21.537c9.743,0,15.384-4.706,15.384-13.756S792.14,949.367,782.397,949.367z"/>
      <polygon points="1027.529,938.78 1071.529,875.251 1035.529,875.251 1009.529,912.791 983.529,875.251 947.529,875.251     991.529,938.78 947.529,1002.31 983.529,1002.31 1009.529,964.77 1035.529,1002.31 1071.529,1002.31   "/>
    </g>
  </g>
  <g id="Trademark">
    <g>
      <path d="M1074.096,909.244c0-17.422,12.483-29.63,29.904-29.63c17.422,0,29.768,12.208,29.768,29.63    c0,17.284-12.346,29.63-29.768,29.63C1086.579,938.874,1074.096,926.528,1074.096,909.244z M1082.326,909.244    c0,13.032,8.368,21.948,21.674,21.948c13.169,0,21.675-8.916,21.675-21.948c0-13.169-8.506-21.948-21.675-21.948    C1090.695,887.296,1082.326,896.075,1082.326,909.244z M1111.957,912.125l6.996,11.248h-11.249l-5.487-10.15h-0.822v10.15h-9.877    v-29.081h15.227c6.31,0,10.562,3.704,10.562,9.465C1117.307,907.598,1115.249,910.616,1111.957,912.125z M1101.257,902.522v3.979    h3.841c1.234,0,2.195-0.549,2.195-2.058c0-1.372-0.961-1.921-2.195-1.921H1101.257z"/>
    </g>
  </g>
  <g id="Crossbars">
    <polygon points="148.535,549.64 148.535,532.597 264,532.597 264,505.677 148.535,505.677 148.535,488.634 87.529,488.634    87.529,549.64  "/>
    <polygon points="1110.704,1010.986 1110.704,1028.03 305.97,1028.03 288.482,1054.949 1110.704,1054.949 1110.704,1071.993    1171.71,1071.993 1171.71,1010.986  "/>
  </g>
</svg>