<?xml version="1.0" encoding="utf-8"?>
<!-- Generator: Adobe Illustrator 26.5.0, SVG Export Plug-In . SVG Version: 6.00 Build 0)  -->
<svg version="1.2" baseProfile="tiny-ps" id="Layer_1" xmlns="http://www.w3.org/2000/svg" xmlns:xlink="http://www.w3.org/1999/xlink"
	  viewBox="0 0 163 163" xml:space="preserve">
<title>Oakseed Ventures</title>
<path fill-rule="evenodd" fill="#5A8F35" d="M150.2,123.8c-21.9,35.7-67.9,49.2-105.8,29.9C5.3,133.9-10.8,86.7,7.6,47.2
	c0.5,3.2,2.3,6.5,3.9,8.7c1.2,1.8,4.8,5,5.1,6.4c-0.5,0.7-1.3,1-1.9,1.7c-1.8,1.6-2.3,3.1-2.5,5.3c-0.9,10.5,9.2,8,14,12.7
	c0.5,0.5,1,0.9,0.9,1.8c-0.3,0.1-0.3,0.2-0.7,0.4l-0.7,0.3c-0.8,0.3-1.9,1.1-3.2,1.6l-1.7,0.7c-2.1,1.3-4.3,3.4-4.4,6.1
	C16,103.6,37.8,103.7,50.5,104c-1,3.4,1,7.2,4,10.3c0.3,0.4,0.6,0.7,0.9,0.8c5.8,5.2,18,0.1,24.2,0.6H80c0.2,0,2.9,0.2,2.9,0.7
	c0,0,0.5,0.3,0.5,1.1c0,2.8-2.1,10.7,3.8,15.9c2,1.8,5.4,2,7.3,1.6c7-1.4,14.4-5.8,23.1-9.9l0.1,0.1c0.6,0.9,0,5-0.2,6.1
	c-0.1,1,2.6,1,3.8,0.5C126.7,129.4,143.2,126.7,150.2,123.8"/>
<path fill-rule="evenodd" fill="#8FC431" d="M117.8,9.1c37.8,19.2,54.1,64,38.5,102.6c-1.2-0.2-2-0.4-2-0.4c-2.5-2.4,1-7.2-1.2-10.9
	c-0.6-1.1-2-2.7-3.5-3.4c-1.5-0.8-7.1,2.6-14.9-3.9c-3.5-2.9-7.9-13.5-9.6-18c-1.1-2.9-3.9-8.1-6.1-9.8c-4.8-3.7-10.3-0.6-12.3,4.6
	c-0.5,0.2-0.3,0.9-1.7,0.9c-0.9,0-1.4-0.6-2.1-1c-6.4-6.7-10.7-27.1-16.8-35c-1.2-1.5-3.9-3.6-6.6-3.5c-7.8,0.1-7.3,9.1-9.2,11.2
	c-0.6,0.6-1.1,0.5-1.1,0.5c-0.4,0.4-2.5-1.3-2.7-1.4l-0.3-0.2c-3.6-2.7-5.1-7.5-7.6-11c-1.1-1.5-2.8-2.9-4.7-3.9
	c-7.9-4.1-24.6-2.9-21.6,8.8l0.1,0.5c1.4,10.2-11.3-0.6-20.7,3.8C33.4,3.4,79.7-10.3,117.8,9.1"/>
<path fill-rule="evenodd" fill="#5A8F35" d="M104.7,77.7c0,0-5.5-5.8-16.5-0.4c-9.4,3.8-17.5,15.8-5.5,22.7
	c12,5.3,22.6-9.8,22.5-20.4c0,0-0.3-0.6,0.6-0.8c0,0,0.9-0.9-0.6-0.7C105.2,78,104.3,77.3,104.7,77.7"/>
<path fill-rule="evenodd" fill="#5A8F35" d="M72.8,63.3c0,0-9.2,0.9-12.1,14.8c-3.2,11.2,2,27.1,16.8,21.1
	c13.4-7.2,7.1-27.6-2.6-34.9c0,0-0.8-0.2-0.3-1.2c0,0-0.1-1.5-1.1,0.1C73.4,63.2,72.2,63.4,72.8,63.3"/>
<path fill-rule="evenodd" fill="#FFFFFF" d="M79.6,97.7c5.5-4.3,6.4-11.5,4.6-18.3C77.8,83.8,73.5,91.8,79.6,97.7"/>
<path fill-rule="evenodd" fill="#5A8F35" d="M74.2,96.6c0,0,1.6,3.5,4.6,5.4c0,0-0.1,1.5-0.8,2s-2.4-0.7-2.4-0.7s-4.2-3.7-3.9-5.8
	L74.2,96.6L74.2,96.6z"/>
</svg>
