<?xml version="1.0" encoding="UTF-8" standalone="yes"?>
<svg version="1.2" baseProfile="tiny-ps" viewBox="0 0 300 300" xml:space="preserve" xmlns="http://www.w3.org/2000/svg">
  <title>bimi-svg-tiny-12-ps</title>
  <rect fill="#5841D8" width="300" height="300"/>
  <path fill="#FFFFFF" d="M149.98,65.47c-51.64,0-93.51,41.9-93.51,93.59v40.11c0,7.38,5.97,13.35,13.35,13.35&#xA;&#x9;c7.37,0,13.39-5.98,13.39-13.35v-40.11c0-7.4,5.95-13.38,13.35-13.38c7.37,0,13.35,5.98,13.35,13.38v40.11&#xA;&#x9;c0,7.38,5.97,13.35,13.35,13.35c7.4,0,13.37-5.98,13.37-13.35v-40.11c0-7.4,5.97-13.38,13.35-13.38c7.4,0,13.39,5.98,13.39,13.38&#xA;&#x9;v40.11c0,7.38,5.97,13.35,13.35,13.35c7.37,0,13.35-5.98,13.35-13.35v-40.11c0-7.4,5.97-13.38,13.39-13.38&#xA;&#x9;c7.37,0,13.35,5.98,13.35,13.38v40.11c0,7.38,5.97,13.35,13.37,13.35c7.37,0,13.35-5.98,13.35-13.35v-40.11&#xA;&#x9;C243.53,107.37,201.64,65.47,149.98,65.47z"/>
</svg>