<?xml version="1.0" encoding="utf-8"?>
<!-- Generator: Adobe Illustrator 27.3.1, SVG Export Plug-In . SVG Version: 6.00 Build 0)  -->
<svg version="1.2" baseProfile="tiny-ps" id="Layer_1"
	 xmlns="http://www.w3.org/2000/svg" xmlns:xlink="http://www.w3.org/1999/xlink" viewBox="0 0 100 100"
	 xml:space="preserve">
<title>CANDY HOUSE</title>
<rect x="-1" y="-1" fill="#FFFFFF" width="102" height="102"/>
<g>
	<path d="M12.6,48.4c0,0.1-0.1,0.1-0.2,0.1c0,0-0.1,0-0.1,0c-0.2-0.7-0.8-2.3-2.7-2.3c-1.5,0-2.9,1.2-2.9,3.7c0,2.5,1.5,3.8,3.2,3.8
		c1,0,2-0.5,2.7-1.6c0,0,0.1,0,0.1,0c0.2,0,0.2,0.1,0.2,0.3c-0.7,1.3-1.9,1.9-3.1,1.9c-2.5,0-4.1-1.6-4.1-4.4c0-2,1.5-4.2,3.9-4.2
		c0.7,0,1.5,0.3,2.2,0.9c0.1,0,0.3-0.2,0.4-0.5c0-0.1,0.1-0.1,0.2-0.1s0.1,0,0.1,0.1L12.6,48.4z"/>
	<path d="M19.2,54.1c-0.1,0-0.1-0.1-0.1-0.1c0-0.1,0-0.2,0.1-0.2c0.7,0,0.9-0.2,0.9-0.4c0-0.1-0.3-0.9-0.9-2.4
		c0-0.1-0.2-0.1-0.4-0.1h-2.6c-0.1,0-0.3,0-0.4,0.3c-0.7,1.6-0.7,1.8-0.7,2.1c0,0.1,0.1,0.3,1.1,0.4c0.1,0.1,0.1,0.1,0.1,0.2
		c0,0.1,0,0.1-0.1,0.1h-2.7c-0.1,0-0.1-0.1-0.1-0.1c0-0.1,0-0.1,0.1-0.2c0.7-0.1,0.8-0.3,1-0.6c0.3-0.6,1.5-3.5,2.6-6.5
		c0-0.1,0-0.2,0-0.3c0-0.1,0.1-0.2,0.1-0.2c0.2,0,0.4-0.3,0.5-0.5c0-0.1,0.1-0.1,0.2-0.1c0.1,0,0.1,0,0.1,0.1c0,0.1,0,0.2,0.1,0.4
		c0.8,2,2,5.2,2.7,6.9c0.2,0.5,0.5,0.8,1,0.8c0,0,0,0,0,0c0.1,0.1,0.1,0.1,0.1,0.2s0,0.1-0.1,0.1H19.2z M17.7,47.1
		c0-0.1,0-0.2-0.1-0.2s0,0-0.1,0.1l-1.3,3.3c0,0,0,0,0,0c0,0,0,0.1,0.1,0.1h2.7c0,0,0,0,0-0.1c0,0,0,0,0-0.1L17.7,47.1z"/>
	<path d="M29.2,48c0-1.4-0.1-1.6-1.3-1.7c-0.1-0.1-0.1-0.1-0.1-0.2c0-0.1,0-0.1,0.1-0.1h3C31,45.9,31,46,31,46c0,0.1,0,0.1-0.1,0.2
		c-0.9,0.1-1.2,0.3-1.2,1.6v6.1c0,0.3,0,0.4-0.2,0.4c-0.1,0-0.2-0.1-0.3-0.3c-0.8-1.3-3.4-4.8-5-6.8c0,0,0,0,0,0c0,0,0,0,0,0v4.9
		c0,1.4,0,1.6,1.3,1.7c0.1,0.1,0.1,0.1,0.1,0.2c0,0.1,0,0.1-0.1,0.1h-3c-0.1,0-0.1-0.1-0.1-0.1c0-0.1,0-0.1,0.1-0.2
		c0.9-0.1,1.2-0.2,1.2-1.6V47c0-0.3-0.1-0.6-1.1-0.7c0,0-0.1-0.1-0.1-0.2s0-0.1,0.1-0.1l1.9,0c0.1,0,0.1,0,0.2,0.3
		c1.4,1.8,3.3,4.4,4.4,6c0,0,0,0,0.1,0c0,0,0,0,0-0.1V48z"/>
	<path d="M31.8,54.1c-0.1,0-0.1-0.1-0.1-0.1c0-0.1,0-0.1,0.1-0.2c0.7-0.1,0.9-0.1,1-0.5c0.1-0.3,0.1-1.2,0.1-2.3v-2.2
		c0-1.2,0-1.8-0.1-2.1c0-0.3-0.2-0.4-1-0.4c-0.1,0-0.1-0.1-0.1-0.2s0-0.1,0.1-0.1h3.6c2.5,0,4.1,1.3,4.1,4.1c0,1.9-1.2,4.1-4,4.1
		H31.8z M35.5,53.7c1.5,0,2.9-1.3,2.9-3.8c0-2.5-1.5-3.7-3.2-3.7h-0.5c-0.8,0-0.9,0.1-0.9,0.3c0,0.3-0.1,0.7-0.1,1.7V52
		c0,1.5,0.1,1.7,1.3,1.7H35.5z"/>
	<path d="M42.5,54.1c-0.1,0-0.1-0.1-0.1-0.1s0-0.1,0.1-0.2c1.1-0.1,1.3-0.1,1.3-1.1c0-0.2,0-0.6,0-0.9v-1c0-0.3,0-0.5,0-0.5
		c-0.8-1.1-1.8-2.6-2.5-3.6c-0.3-0.3-0.4-0.4-1-0.5c-0.1-0.1-0.1-0.1-0.1-0.2c0-0.1,0-0.1,0.1-0.1h2.9c0.1,0,0.1,0.1,0.1,0.1
		c0,0.1,0,0.1-0.1,0.2c-0.7,0-1,0.1-1,0.3c0,0,0,0.1,0,0.1c0.5,0.8,1.4,2.1,2.2,3.1c0.9-1.1,2.1-2.9,2.1-3.2c0-0.2-0.2-0.3-1-0.3
		c-0.1-0.1-0.1-0.1-0.1-0.2c0-0.1,0-0.1,0.1-0.1h2.5c0.1,0,0.1,0.1,0.1,0.1c0,0.1,0,0.1-0.1,0.2c-0.6,0.1-0.7,0.1-1,0.5
		c-0.5,0.6-1.5,2.2-2.3,3.3c-0.1,0.1-0.2,0.2-0.2,0.5v1.3c0,1.9,0,2.1,1.3,2.1c0.1,0.1,0.1,0.1,0.1,0.2c0,0.1,0,0.1-0.1,0.1H42.5z"
		/>
	<path d="M58.4,54.1c-0.1,0-0.1-0.1-0.1-0.1c0-0.1,0-0.1,0.1-0.2c0.8-0.1,0.9-0.1,1-0.5c0.1-0.3,0.1-1.2,0.1-2.4v-0.7
		c0-0.1,0-0.2-0.2-0.2h-4c-0.2,0-0.2,0-0.2,0.2v1.6c0,1.8,0,2,1.1,2c0.1,0.1,0.1,0.1,0.1,0.2c0,0.1,0,0.1-0.1,0.1h-3
		c-0.1,0-0.1-0.1-0.1-0.1s0-0.1,0.1-0.2c0.8-0.1,0.9-0.1,1-0.5c0.1-0.3,0.1-1.2,0.1-2.3v-2.2c0-1.2,0-1.8-0.1-2.1
		c-0.1-0.3-0.3-0.4-1.1-0.4C53,46.2,53,46.1,53,46c0-0.1,0-0.1,0.1-0.1h3c0.1,0,0.1,0.1,0.1,0.1s0,0.1-0.1,0.2
		c-0.9,0-1.1,0.2-1.1,1.2c0,0.3,0,0.8,0,1.4v0.6c0,0.1,0,0.2,0.2,0.2h4c0.2,0,0.2,0,0.2-0.2v-0.6c0-1.2,0-1.8-0.1-2.1
		c0-0.3-0.3-0.4-1-0.4c-0.1,0-0.1-0.1-0.1-0.2c0-0.1,0-0.1,0.1-0.1h3c0.1,0,0.1,0.1,0.1,0.1c0,0.1,0,0.1-0.1,0.2c-1,0-1,0.2-1.1,1.2
		v4.4c0,1.8,0,2,1.1,2c0.1,0.1,0.1,0.1,0.1,0.2c0,0.1,0,0.1-0.1,0.1H58.4z"/>
	<path d="M62.8,50.1c0-2.3,1.4-4.4,3.8-4.4c2.5,0,3.9,2,3.9,4.2c0,2.3-1.4,4.4-3.8,4.4C64.1,54.4,62.8,52.3,62.8,50.1z M69.4,50
		c0-1.8-0.7-3.9-2.9-3.9c-1.9,0-2.7,2.1-2.7,3.9c0,1.8,0.7,3.9,2.9,3.9C68.6,53.9,69.4,51.8,69.4,50z"/>
	<path d="M78.4,48.5c0-0.9,0-1.5-0.1-1.8c-0.1-0.4-0.4-0.4-1.2-0.5C77,46.2,77,46.1,77,46s0-0.1,0.1-0.1h2.7c0.1,0,0.1,0.1,0.1,0.1
		s0,0.1-0.1,0.2c-0.6,0.1-0.8,0.2-0.9,0.5c0,0.4,0,1.2,0,1.7v2.3c0,2.7-1.3,3.7-3.2,3.7c-1.1,0-2.5-0.3-3-2.1
		c-0.1-0.4-0.1-1-0.1-1.6l0-2c0-0.3,0-0.5,0-0.7c0-1.7,0-1.8-1.1-1.8c-0.1,0-0.1-0.1-0.1-0.2c0-0.1,0-0.1,0.1-0.1h3.1
		c0.1,0,0.1,0.1,0.1,0.1s0,0.1-0.1,0.2c-0.9,0-1,0.1-1.1,0.5c-0.1,0.3-0.1,0.8-0.1,2l0,1.9c0,1.3,0.1,3.2,2.4,3.2
		c1.2,0,2.5-0.5,2.5-3.1V48.5z"/>
	<path d="M81,51.5c0-0.1,0.1-0.1,0.2-0.1c0.1,0,0.1,0,0.1,0c0.1,0.5,0.4,1.4,0.6,1.6c0.4,0.5,1.3,0.8,1.9,0.8c1.1,0,1.8-0.7,1.8-1.6
		c0-0.9-0.8-1.4-2.1-2c-1.8-0.8-2.3-1.3-2.3-2.4c0-1.4,1.2-2.1,2.3-2.1c0.7,0,1.4,0.2,1.8,0.5c0.1,0,0.1-0.1,0.2-0.3
		c0-0.1,0.1-0.1,0.2-0.1c0.1,0,0.1,0,0.2,0.1l0.1,2.3c0,0-0.1,0.1-0.2,0.1c0,0-0.1,0-0.1,0c-0.1-0.5-0.5-1.4-0.8-1.6
		c-0.3-0.2-0.7-0.5-1.3-0.5c-0.7,0-1.6,0.4-1.6,1.4c0,0.8,0.6,1.2,2,1.8c2.3,1,2.4,2,2.4,2.6c0,1.6-1.3,2.4-2.7,2.4
		c-0.8,0-1.7-0.4-2.1-0.6c-0.1,0-0.2,0.2-0.2,0.5c0,0-0.1,0.1-0.2,0.1c-0.1,0-0.1,0-0.2-0.1L81,51.5z"/>
	<path d="M87.8,54.1c-0.1,0-0.1-0.1-0.1-0.1c0-0.1,0-0.1,0.1-0.2c0.8-0.1,0.9-0.1,1-0.5c0.1-0.3,0.1-1.2,0.1-2.4v-2.2
		c0-1.2,0-1.8-0.1-2.1c0-0.3-0.3-0.4-1-0.4c-0.1,0-0.1-0.1-0.1-0.2c0-0.1,0-0.1,0.1-0.1h5.7c0.1,0,0.2,0,0.3,0.1
		c0.1,0.3,0.2,1.2,0.2,2c0,0.1-0.1,0.1-0.2,0.1c0,0-0.1,0-0.1,0c-0.2-0.7-0.6-1.8-1.3-1.8h-2.1c-0.2,0-0.5,0.1-0.6,0.3
		c0,0.3-0.1,0.7-0.1,1.5v1.4c0,0.1,0,0.2,0.2,0.2h1.3c0.5,0,1-0.2,1.1-1.2c0,0,0.1-0.1,0.1-0.1c0.1,0,0.2,0,0.2,0.1v2.9
		c0,0.1-0.1,0.1-0.2,0.1s-0.1,0-0.1-0.1c0-1.1-0.5-1.3-1-1.3h-1.4c-0.2,0-0.2,0-0.2,0.2v1.7c0,1.6,0.2,1.8,1.2,1.8h1.4
		c0.5,0,1-0.1,1.7-1.9c0,0,0,0,0.1,0c0.1,0,0.2,0.1,0.2,0.1c-0.1,0.7-0.3,1.6-0.4,2c0,0.1-0.1,0.1-0.3,0.1H87.8z"/>
</g>
</svg>
