<?xml version="1.0" encoding="utf-8"?>
<!-- Generator: Adobe Illustrator 27.0.0, SVG Export Plug-In . SVG Version: 6.00 Build 0)  -->
<svg version="1.2" baseProfile="tiny-ps" id="Layer_1" xmlns="http://www.w3.org/2000/svg" xmlns:xlink="http://www.w3.org/1999/xlink"
	 viewBox="0 0 100 100" xml:space="preserve">
<title>Shoprite Logo</title>
<g>
	<path fill="#FF0000" d="M19.83,83.93c2.56,0,4.19-1.4,4.19-3.31c0-1.54-0.84-2.28-2.62-2.81c-1.07-0.32-1.73-0.46-1.73-1
		c0-0.32,0.26-0.52,0.74-0.52c0.47,0,0.95,0.19,1.31,0.52c0.51,0.46,0.78,0.85,1.25,0.85c0.52,0,0.9-0.38,0.9-0.97
		c0-0.44-0.22-1.02-0.69-1.58c-0.25-0.31-0.49-0.46-0.81-0.46c-0.22,0-0.47,0.11-0.77,0.11c-0.21,0-0.81-0.26-1.79-0.26
		c-2.17-0.01-3.64,1.32-3.64,3.04c0,1.37,0.87,2.38,2.62,3.06c1.05,0.41,1.65,0.48,1.65,0.92c0,0.32-0.35,0.58-0.91,0.58
		c-0.72,0-1.39-0.39-1.97-1.15c-0.33-0.44-0.47-0.87-0.97-0.87c-0.43,0.01-0.61,0.26-0.61,0.79c0,1.02,0.26,1.77,0.58,2.14
		C16.89,83.39,18.19,83.93,19.83,83.93z"/>
	<path fill="#FF0000" d="M23.52,82.83c0,0.61,0.75,0.95,2.26,0.95c1.65,0,2.46-0.32,2.46-0.96c0-0.41-0.29-0.51-0.58-0.71
		c-0.13-0.09-0.23-0.61-0.23-1.54c0-0.35,0.03-0.56,0.16-0.62c0.21-0.11,0.62-0.16,1.23-0.16c0.9,0,0.93,0.11,0.93,0.71
		c0,0.85-0.07,1.34-0.09,1.42c-0.03,0.13-0.17,0.17-0.33,0.28c-0.3,0.17-0.43,0.39-0.43,0.7c0,0.63,0.78,0.9,2.4,0.9
		c1.57,0,2.31-0.28,2.31-0.92c0-0.57-0.52-0.58-0.64-0.75c-0.13-0.16-0.17-1.18-0.17-3.03c0-1.75,0.01-2.68,0.22-2.84
		c0.3-0.22,0.73-0.29,0.73-0.8c0-0.63-0.72-0.83-2.27-0.83c-1.72,0-2.51,0.17-2.51,0.89c0,0.46,0.31,0.5,0.54,0.67
		c0.15,0.11,0.25,0.51,0.25,1.13v0.16c0,0.35-0.01,0.52-0.15,0.58c-0.2,0.09-0.58,0.13-1.15,0.13c-0.81,0-0.93-0.07-0.93-0.61v-0.48
		c0-0.57,0.03-0.77,0.37-0.98c0.29-0.17,0.45-0.31,0.45-0.66c0-0.62-0.74-0.82-2.31-0.82c-1.62,0-2.43,0.3-2.43,0.91
		c0,0.55,0.58,0.55,0.71,0.7c0.15,0.17,0.19,1.24,0.19,3.21c0,1.72-0.1,2.61-0.3,2.7C23.85,82.28,23.52,82.32,23.52,82.83z"/>
	<path fill="#FF0000" d="M33.18,79.15c0,1.61,0.81,3.1,2.19,4c0.79,0.51,1.72,0.79,2.76,0.79c1.35,0,2.53-0.44,3.41-1.24
		c1-0.91,1.49-2.08,1.49-3.5c0-1.36-0.46-2.52-1.31-3.38c-0.87-0.87-2.09-1.36-3.49-1.36c-1.45,0-2.61,0.4-3.51,1.24
		C33.75,76.57,33.18,77.88,33.18,79.15z M36.55,77.87c0-0.89,0.41-1.41,0.99-1.41c0.71,0,1.21,0.6,1.69,1.82
		c0.32,0.82,0.45,1.58,0.45,2.19c0,0.91-0.36,1.42-0.95,1.42c-0.62,0-1.2-0.57-1.65-1.67C36.71,79.3,36.55,78.46,36.55,77.87z"/>
	<path fill="#FF0000" d="M46.63,80.44c0.27,0.03,0.53,0.04,0.78,0.04c2.33,0,3.62-1.15,3.62-3.08c0-1.91-1.19-2.84-3.61-2.84
		c-1.07,0-2.01,0.14-2.83,0.14c-0.22,0-0.52-0.04-0.9-0.04c-0.88,0-1.3,0.2-1.3,0.69c0,0.46,0.31,0.48,0.68,0.66
		c0.36,0.17,0.43,0.48,0.43,1.13c0,2.96-0.03,4.56-0.2,4.82c-0.16,0.25-0.78,0.29-0.78,0.83c0,0.71,0.84,0.99,2.57,0.99
		c1.63,0,2.41-0.28,2.41-0.96c0-0.48-0.38-0.51-0.64-0.71c-0.19-0.15-0.25-0.54-0.25-1.18C46.62,80.79,46.63,80.63,46.63,80.44z
		 M46.54,77.56v-0.35c0-0.79,0.03-1.08,0.33-1.08c0.61,0,1,0.5,1,1.46c0,0.86-0.42,1.33-1.07,1.33c-0.23,0-0.26-0.15-0.26-0.79
		V77.56z"/>
	<path fill="#FF0000" d="M54.21,78.4c-0.03-0.3-0.03-0.55-0.03-0.77v-0.56c0-0.77,0.03-0.99,0.42-0.99c0.59,0,0.87,0.35,0.87,1.07
		c0,0.91-0.22,1.32-0.9,1.32C54.47,78.46,54.36,78.43,54.21,78.4z M54.26,79.96c0.11-0.04,0.22-0.05,0.32-0.05
		c0.73,0,0.84,0.66,1.14,1.82c0.19,0.71,0.32,1.27,0.81,1.68c0.36,0.3,0.9,0.45,1.65,0.45c1.31,0,2.07-0.44,2.07-1.01
		c0-0.38-0.25-0.44-0.69-0.61c-0.2-0.07-0.22-0.44-0.31-0.96c-0.13-0.82-0.37-1.4-0.9-1.77c-0.39-0.29-0.91-0.24-0.91-0.48
		c0-0.17,0.27-0.22,0.55-0.41c0.55-0.38,0.84-0.93,0.84-1.66c0-1.48-1.14-2.34-3.28-2.34c-0.68,0-1.48,0.05-2.42,0.05
		c-0.55,0-0.95-0.01-1.24-0.01c-1.09,0-1.63,0.25-1.63,0.73c0,0.48,0.41,0.52,0.72,0.74c0.23,0.16,0.25,0.97,0.25,2.51v0.46
		c0,2.01-0.15,3.06-0.33,3.16c-0.36,0.2-0.63,0.29-0.63,0.7c0,0.64,0.81,0.86,2.47,0.86c1.61,0,2.35-0.17,2.35-0.82
		c0-0.48-0.39-0.57-0.65-0.77c-0.15-0.11-0.16-0.45-0.16-1.03V79.96L54.26,79.96z"/>
	<path fill="#FF0000" d="M59.53,82.82c0,0.57,0.85,0.96,2.46,0.96c1.67,0,2.49-0.31,2.49-0.93c0-0.46-0.38-0.56-0.65-0.82
		c-0.19-0.17-0.21-0.58-0.21-1.27c0-2.71,0.05-4.2,0.22-4.45c0.13-0.19,0.67-0.29,0.67-0.81c0-0.63-0.78-0.9-2.36-0.9
		c-1.65,0-2.47,0.3-2.47,0.92c0,0.45,0.35,0.51,0.64,0.73c0.22,0.17,0.26,0.61,0.26,1.33c0,0.38-0.01,0.82-0.01,1.36
		c0,1.85-0.04,2.84-0.31,3.05C59.95,82.24,59.53,82.33,59.53,82.82z"/>
	<path fill="#FF0000" d="M70.59,74.61h-4.33c-0.23,0-0.47-0.13-0.71-0.13c-0.3,0-0.63,0.25-0.97,0.75c-0.47,0.7-0.68,1.34-0.68,1.77
		c0,0.58,0.37,0.96,0.81,0.96c0.45,0,0.72-0.28,1.1-0.8c0.27-0.38,0.41-0.67,0.68-0.67c0.33,0,0.36,0.44,0.36,1.36v0.56
		c0,2.19-0.16,3.4-0.43,3.6c-0.31,0.22-0.85,0.21-0.85,0.79c0,0.6,0.89,0.98,2.56,0.98c1.93,0,2.83-0.28,2.83-0.99
		c0-0.48-0.31-0.5-0.63-0.67c-0.39-0.21-0.46-0.58-0.46-1.33c0-1.27,0.06-2.42,0.06-3.38v-0.42c0-0.35,0.1-0.51,0.31-0.51
		c0.27,0,0.37,0.32,0.65,0.79c0.27,0.46,0.63,0.73,1.03,0.73c0.62,0,0.98-0.44,0.98-1.18c0-0.64-0.29-1.38-0.78-1.95
		c-0.2-0.22-0.47-0.34-0.73-0.34C71.07,74.49,70.81,74.61,70.59,74.61z"/>
	<path fill="#FF0000" d="M77.36,83.7c1.39,0,2.09,0.22,2.2,0.22c0.3,0,0.51-0.21,0.78-0.73c0.33-0.62,0.49-1.26,0.49-1.83
		c0-0.56-0.26-0.85-0.72-0.85c-0.52,0-0.58,0.47-0.94,0.92c-0.39,0.51-1.01,0.73-1.9,0.73c-0.62,0-0.98-0.03-1.13-0.2
		c-0.16-0.19-0.16-0.63-0.16-1.37c0-0.67,0.05-0.83,0.55-0.83c0.46,0,0.51,0.13,0.59,0.67c0.07,0.46,0.1,0.71,0.52,0.71
		c0.62,0,0.94-0.77,0.94-2.28c0-1.24-0.3-1.84-0.89-1.84c-0.46,0-0.48,0.35-0.59,0.92c-0.07,0.35-0.17,0.46-0.58,0.46
		c-0.57,0-0.59-0.09-0.59-0.75c0-0.77,0.06-1.22,0.16-1.33c0.15-0.17,0.53-0.17,1.19-0.17c0.69,0,1.16,0.15,1.53,0.57
		c0.23,0.26,0.36,0.69,0.84,0.69c0.43,0,0.74-0.38,0.74-1.06c0-1.13-0.46-1.85-1.1-1.85c-0.1,0-0.97,0.17-2.92,0.17
		c-1.69,0-2.79-0.06-3.29-0.06c-0.73,0-1.1,0.26-1.1,0.7c0,0.56,0.55,0.55,0.77,0.79c0.22,0.24,0.27,1.07,0.27,2.51
		c0,2.13-0.07,3.34-0.39,3.66c-0.26,0.26-0.71,0.29-0.71,0.8c0,0.52,0.31,0.62,0.97,0.62H77.36z"/>
	<path fill="#FF0000" d="M51.51,11.97H54h0.14c28.62-0.14,26.41,11.59,26.41,11.59l0.14,0.84l0.14,33.37
		c-1.38,12.43-20.6,12.57-20.6,12.57H54h-2.49v-6c1.8-0.28,3.6-0.56,5.53-1.26c0,0,9.54-2.65,10.92-13.13c0,0,1.8-8.66-7.33-12.99
		c0,0-3.46-1.68-8.99-3.21c-5.53-1.54-4.98-4.33-4.98-5.03c0.14-0.56,0.55-1.68,2.21-2.51l1.11-0.14c0,0,4.15-0.42,7.19,2.65
		c2.9,3.07,4.56,4.75,6.64,4.61c2.07-0.14,4.56-1.96,3.73-6.28c-0.83-4.33-4.98-7.68-5.39-7.82c-0.41-0.14-1.52-0.7-2.21-0.14
		c-0.69,0.42-1.94,0.7-3.6,0.28c-0.69-0.14-2.35-0.84-4.7-1.26v-6.14H51.51z M16.11,26.35l0.14-0.14c0,0-2.21-14.38,26.41-14.24
		h0.14h2.21v6c-1.52,0.14-3.18,0.56-4.84,1.4c-6.91,3.35-11.2,8.52-10.37,15.5c0.83,6.98,8.16,11.73,12.17,12.99
		c4.15,1.26,8.71,2.37,8.85,5.31c0.14,2.93-5.25,3.63-7.61,3.07c-2.21-0.7-5.53-1.4-8.02-5.73c-2.49-4.33-4.01-4.47-4.84-4.33
		c-0.83,0.14-2.9,0.56-2.35,5.31c0.55,4.89,2.21,8.94,4.15,9.91c1.24,0.56,6.08,2.79,12.72,3.21v5.73h-2.21h-6.22
		c0,0-19.22-0.14-20.46-12.43L16.11,26.35z"/>
</g>
</svg>
