<?xml version="1.0" encoding="utf-8"?>
<!-- Generator: Adobe Illustrator 27.8.0, SVG Export Plug-In . SVG Version: 6.00 Build 0)  -->
<svg version="1.2" baseProfile="tiny-ps" id="Grid" xmlns="http://www.w3.org/2000/svg" xmlns:xlink="http://www.w3.org/1999/xlink"
	 viewBox="0 0 459.2 459.2" xml:space="preserve">
<title>Logo Allianz</title>
<path fill="#003781" d="M262.8,358.4V105c0-20.2-7.2-27-26.8-27h-59.3v28.3h3.5c13.5,0,16.2,3,16.2,19.3v232.7H262.8z M292,358.4
	h65.9V161.1c0-19.8-7.6-27-27-27H292V358.4z M167.3,358.4V134.1h-39c-19.3,0-26.9,7.1-26.9,27v197.4H167.3z M420.2,229.6
	c0,111.7-80.3,192.8-190.6,192.8C119.3,422.5,39,341.3,39,229.6c0-111.7,80.3-192.9,190.6-192.9C339.9,36.8,420.2,118.4,420.2,229.6
	 M459.2,229.6C459.2,98.3,361,0,229.6,0C98.2,0,0,98.3,0,229.6c0,131.5,98.2,229.6,229.6,229.6C361,459.2,459.2,361.1,459.2,229.6"
	/>
</svg>
