<svg xmlns="http://www.w3.org/2000/svg" xmlns:xlink="http://www.w3.org/1999/xlink" version="1.2" viewBox="0 0 200 200" baseProfile="tiny-ps">
  <title>BrightLendingLogo</title>
  <g>
    <defs>
      <rect id="SVGID_1_" x="0.369" y="75.395" width="199.149" height="49.21"/>
    </defs>
    <path d="M41.763,79.716   c0.247,0.009,0.483-0.103,0.638-0.296c1.019-1.281,1.258-2.317,0.821-3.025c-1.089-1.76-3.36-1.029-6.278,0.873   c-1.555,1.014-2.504,1.628-2.966,1.926c-0.105,0.068-0.06,0.232,0.064,0.237L41.763,79.716z" fill="#76777B"/>
    <path d="M34.076,80.281   l7.04,0.26c0.101,0.004,0.154,0.123,0.088,0.199c-0.407,0.469-1.553,1.638-2.816,1.591c-1.279-0.047-3.48-1.285-4.38-1.823   C33.899,80.443,33.949,80.276,34.076,80.281" fill="#76777B"/>
    <path d="M28.479,93.08   c0.009,0.249-0.101,0.487-0.293,0.642c-1.273,1.026-2.303,1.266-3.006,0.826c-1.75-1.095-1.023-3.38,0.867-6.315   c1.007-1.565,1.618-2.519,1.915-2.984c0.067-0.106,0.23-0.061,0.235,0.065L28.479,93.08z" fill="#76777B"/>
    <path d="M29.04,85.346   l0.259,7.083c0.004,0.102,0.122,0.154,0.198,0.088c0.466-0.41,1.629-1.562,1.582-2.833c-0.047-1.286-1.278-3.501-1.812-4.406   C29.202,85.168,29.036,85.219,29.04,85.346" fill="#76777B"/>
    <path d="M32.854,81.103   c0.053-0.054,0.138-0.062,0.2-0.019c0,0,2.017,1.766,3.338,2.203c0.413,0.137,0.586,0.165,0.892,0.224   c0.838,0.161,1.514,0.428,2.204,1.007c0.144,0.113,0.284,0.232,0.416,0.366c0.692,0.696,1.104,1.566,1.243,2.469   c0.007,0.039,0.013,0.079,0.018,0.117c0.013,0.102,0.022,0.204,0.028,0.305c0.001,0.025,0.003,0.049,0.004,0.074   c0.053,1.209-0.375,2.435-1.293,3.357c-0.917,0.923-2.136,1.353-3.336,1.3c-0.025-0.001-0.049-0.002-0.074-0.004   c-0.102-0.006-0.203-0.015-0.303-0.029c-0.039-0.006-0.078-0.011-0.117-0.017c-0.898-0.141-1.762-0.555-2.454-1.251   c-0.133-0.133-0.251-0.275-0.364-0.42c-0.575-0.694-0.84-1.374-1-2.217c-0.059-0.308-0.087-0.482-0.223-0.898   c-0.435-1.329-2.19-3.358-2.19-3.358c-0.042-0.063-0.034-0.147,0.019-0.201L32.854,81.103z" fill="#FAA21B"/>
    <path d="M31.495,79.339   c-0.187-0.189-0.399-0.336-0.625-0.449c-0.011-0.005-0.022-0.01-0.034-0.015c-0.061-0.029-0.124-0.056-0.186-0.079   c-0.017-0.006-0.032-0.015-0.048-0.021c-0.004-0.001-0.008,0.001-0.012,0c-0.331-0.113-0.681-0.154-1.026-0.119   c-0.004-0.001-0.008-0.003-0.013-0.002c-0.059,0.006-0.117,0.019-0.174,0.03c-0.015,0.003-0.031,0.005-0.046,0.008   c-0.048,0.011-0.098,0.022-0.146,0.037c-0.048,0.013-0.095,0.027-0.143,0.043c-0.017,0.006-0.034,0.009-0.05,0.015   c-0.048,0.018-0.103,0.025-0.15,0.004c-0.218-0.1-0.596,0.04-0.909,0.355c-0.317,0.319-0.456,0.705-0.35,0.923   c0.008,0.018,0.009,0.037,0.011,0.056c-0.356,0.871-0.184,1.91,0.52,2.618l0.791,0.784c0.075,0.073,0.194,0.072,0.267-0.002   l3.117-3.136c0.076-0.077,0.074-0.201-0.004-0.275L31.495,79.339z" fill="#76777B"/>
    <path d="M43.65,95.442   c-0.168,0-0.336-0.064-0.463-0.193l-2.134-2.146c-0.256-0.258-0.256-0.675,0-0.932c0.256-0.257,0.67-0.257,0.927,0l2.134,2.147   c0.256,0.257,0.256,0.674,0,0.932C43.985,95.378,43.817,95.442,43.65,95.442" fill="#FAA21B"/>
    <path d="M38.112,97.313   c-0.336,0-0.622-0.258-0.652-0.602l-0.202-2.326c-0.032-0.362,0.235-0.682,0.596-0.714c0.358-0.032,0.677,0.237,0.709,0.6   l0.203,2.325c0.032,0.363-0.235,0.682-0.596,0.715C38.15,97.312,38.131,97.313,38.112,97.313" fill="#FAA21B"/>
    <path d="M33.094,95.348   c-0.13,0-0.261-0.039-0.375-0.119c-0.297-0.209-0.369-0.62-0.161-0.918l0.972-1.397c0.207-0.298,0.616-0.371,0.912-0.162   c0.297,0.209,0.369,0.62,0.161,0.918l-0.972,1.398C33.504,95.25,33.301,95.348,33.094,95.348" fill="#FAA21B"/>
    <path d="M45.51,89.872   c-0.019,0-0.039-0.001-0.058-0.003l-2.312-0.204c-0.361-0.032-0.628-0.351-0.596-0.714c0.032-0.362,0.348-0.632,0.71-0.599   l2.313,0.204c0.36,0.032,0.627,0.351,0.595,0.714C46.132,89.613,45.846,89.872,45.51,89.872" fill="#FAA21B"/>
    <path d="M42.168,85.802   c-0.206,0-0.409-0.098-0.537-0.281c-0.208-0.298-0.135-0.71,0.161-0.918l1.389-0.978c0.297-0.209,0.705-0.136,0.913,0.161   c0.208,0.298,0.135,0.709-0.161,0.918l-1.389,0.978C42.429,85.764,42.298,85.802,42.168,85.802" fill="#FAA21B"/>
    <path d="M106.386,114.053   c0.241,0,0.344,0.103,0.344,0.345v2.068c0,0.207-0.103,0.345-0.344,0.345H92.287c-0.241,0-0.345-0.138-0.345-0.345V93.267   c0-0.206,0.139-0.345,0.345-0.345h2.414c0.242,0,0.344,0.103,0.344,0.345v20.785H106.386z" fill="#76777B"/>
    <path d="M118.793,116.38   c-1.241,0.331-2.447,0.43-3.619,0.43c-4.998,0-7.893-3.178-7.893-8.307c0-5.13,2.93-8.307,7.789-8.307   c4.033,0,6.446,1.919,6.446,5.096c0,2.417-1.551,3.84-4.826,4.336l-6.1,0.927c0.449,2.251,2.033,3.608,4.549,3.608   c1.069,0,2.137-0.133,2.965-0.365l1.276-0.331c0.242-0.065,0.379,0,0.448,0.232l0.551,1.886c0.069,0.232,0,0.364-0.241,0.43   L118.793,116.38z M116.174,107.279c1.551-0.232,2.344-0.894,2.344-1.953c0-1.588-1.275-2.482-3.481-2.482   c-2.758,0-4.516,1.721-4.688,5.361L116.174,107.279z" fill="#76777B"/>
    <path d="M126.548,102.264   c0.173,0.379,0.379,0.345,0.655,0.034c1.344-1.688,3.112-2.172,5.145-2.172c3.861,0,6.194,2.207,6.194,6.343v9.996   c0,0.207-0.103,0.345-0.345,0.345h-2.344c-0.206,0-0.345-0.138-0.345-0.345v-9.721c0-2.584-1.344-4.136-3.516-4.136   c-2.999,0-4.757,2.206-4.757,6.067v7.79c0,0.207-0.103,0.345-0.344,0.345h-2.344c-0.206,0-0.344-0.138-0.344-0.345v-15.925   c0-0.207,0.138-0.345,0.344-0.345h1.413c0.207,0,0.31,0.103,0.345,0.31L126.548,102.264z" fill="#76777B"/>
    <path d="M156.225,116.465   c0,0.207-0.104,0.345-0.345,0.345h-1.414c-0.206,0-0.31-0.104-0.344-0.31l-0.276-1.759c-0.104-0.31-0.31-0.379-0.62-0.034   c-1.241,1.586-2.925,2.111-5.029,2.111c-4.445,0-7.139-2.973-7.139-8.315c0-5.377,2.717-8.384,7.439-8.384   c1.344,0,2.626,0.014,3.66,0.456l1.033,0.449v-7.756c0-0.242,0.138-0.345,0.345-0.345h2.344c0.207,0,0.345,0.103,0.345,0.345   V116.465z M151.986,103.264c-0.931-0.448-1.931-0.655-3.171-0.655c-2.964,0.034-4.757,2.206-4.723,5.895   c0.035,3.654,1.724,5.895,4.551,5.895c2.999,0,4.549-2.586,4.549-5.963v-4.585L151.986,103.264z" fill="#76777B"/>
    <path d="M163.98,116.465   c0,0.207-0.103,0.345-0.345,0.345h-2.344c-0.206,0-0.344-0.138-0.344-0.345v-13.546h-1.655c-0.207,0-0.345-0.138-0.345-0.345   v-2.096c0-0.242,0.138-0.345,0.345-0.345h4.343c0.207,0,0.345,0.103,0.345,0.345V116.465z M163.945,94.853   c0,1.241-0.689,1.931-1.861,1.931c-1.206,0-1.896-0.689-1.896-1.931c0-1.206,0.69-1.93,1.896-1.93   C163.256,92.923,163.945,93.647,163.945,94.853" fill="#76777B"/>
    <path d="M169.909,102.264   c0.173,0.379,0.379,0.345,0.655,0.034c1.344-1.688,3.06-2.172,5.094-2.172c3.861,0,6.246,2.207,6.246,6.343v9.996   c0,0.207-0.103,0.345-0.345,0.345h-2.343c-0.206,0-0.345-0.138-0.345-0.345v-9.721c0-2.584-1.344-4.136-3.516-4.136   c-2.999,0-4.757,2.206-4.757,6.067v7.79c0,0.207-0.103,0.345-0.344,0.345h-2.344c-0.206,0-0.344-0.138-0.344-0.345v-15.988   c0-0.207,0.138-0.345,0.344-0.345h1.413c0.207,0,0.31,0.103,0.345,0.31L169.909,102.264z" fill="#76777B"/>
    <path d="M188.316,121.326   c0.689,0.206,2.075,0.522,3.178,0.522c2.861,0,4.957-1.349,5.405-4.314c0.069-2.102,0.104-1.724,0.138-2.654   c0-0.276-0.172-0.414-0.447-0.104c-1.137,1.414-2.816,2.039-5.022,2.039c-4.446,0-7.214-3.003-7.214-8.277   c0-5.447,2.916-8.411,7.844-8.411c1.448,0,2.979,0.001,4.288,0.587l2.758,1.172c0.207,0.069,0.276,0.207,0.276,0.379v14.753   c0,4.757-2.786,7.589-7.921,7.589c-1.31,0-2.902-0.315-3.833-0.59l-1.62-0.449c-0.241-0.069-0.31-0.206-0.241-0.448l0.655-1.965   c0.069-0.206,0.206-0.276,0.414-0.206L188.316,121.326z M195.279,103.264c-0.793-0.379-1.965-0.655-3.102-0.655   c-3.033,0.034-4.792,2.172-4.792,5.86c0,3.515,1.586,5.929,4.482,5.929c3.032,0,4.618-2.414,4.618-6.067v-4.481L195.279,103.264z" fill="#76777B"/>
    <path d="M9.914,92.975   c5.009,0,7.988,2.335,7.988,6.262c0,2.877-1.693,4.332-2.911,4.841c-0.508,0.203-0.508,0.473-0.034,0.676   c1.59,0.508,3.723,2.099,3.723,5.483c0,4.13-3.047,6.567-8.158,6.567H0.775c-0.271,0-0.406-0.135-0.406-0.407V93.381   c0-0.271,0.135-0.406,0.406-0.406H9.914z M5.006,102.521h4.231c2.64,0,3.96-0.981,3.96-2.844c0-1.591-1.218-2.606-3.283-2.606   H5.006V102.521z M5.006,112.708h5.483c2.167,0,3.453-1.083,3.453-2.911c0-2.133-1.422-3.182-4.366-3.182h-4.57V112.708z" fill="#FAA21B"/>
    <path d="M30.936,103.603   c0,0.271-0.135,0.407-0.406,0.407c-3.689,0.169-5.077,2.504-5.077,9.003v3.385c0,0.271-0.135,0.406-0.406,0.406h-3.757   c-0.27,0-0.406-0.135-0.406-0.406v-15.858c0-0.271,0.135-0.406,0.406-0.406h2.031c0.237,0,0.372,0.101,0.474,0.304l0.745,1.812   c0.237,0.372,0.372,0.473,0.744,0.068c1.422-1.625,2.81-2.117,5.247-2.184c0.271,0,0.406,0.135,0.406,0.406V103.603z" fill="#FAA21B"/>
    <path d="M47.626,120.087   c0.711,0.204,1.827,0.339,2.674,0.339c1.861,0,4.095-0.609,4.84-3.114c0.136-0.913,0.168-1.083,0.203-1.557   c0-0.236-0.169-0.406-0.508-0.135c-1.116,1.049-2.695,1.184-4.354,1.184c-4.603,0-7.357-2.978-7.357-8.157   c0-5.483,3.046-8.513,8.124-8.513c1.286,0,2.742-0.016,4.129,0.56l3.283,1.32c0.204,0.102,0.305,0.237,0.305,0.474v13.877   c0,5.28-3.114,8.158-8.462,8.158c-1.219,0-2.64-0.136-3.588-0.407l-1.759-0.508c-0.271-0.067-0.373-0.237-0.271-0.507l0.948-3.114   c0.067-0.237,0.237-0.338,0.474-0.271L47.626,120.087z M53.583,104.484c-0.643-0.305-1.591-0.475-2.403-0.475   c-2.268,0-3.554,1.692-3.554,4.536c0,2.742,1.184,4.535,3.385,4.535c2.166,0,3.419-1.387,3.419-4.264v-3.926L53.583,104.484z" fill="#FAA21B"/>
    <path d="M66.144,97.071   c0,1.726-0.203,2.843-0.71,4.062c-0.169,0.406,0.034,0.71,0.541,0.372c1.118-1.015,2.471-1.389,4.096-1.389   c3.926,0,6.295,2.167,6.295,6.161v10.121c0,0.271-0.135,0.406-0.407,0.406h-3.723c-0.27,0-0.406-0.135-0.406-0.406v-9.579   c0-1.794-0.948-2.81-2.437-2.81c-2.167,0-3.215,1.659-3.25,4.265v8.124c0,0.271-0.135,0.406-0.406,0.406H61.98   c-0.27,0-0.405-0.135-0.405-0.406V93.345c0-0.27,0.135-0.406,0.405-0.406h3.757c0.272,0,0.406,0.135,0.406,0.406V97.071z" fill="#FAA21B"/>
    <path d="M88.554,100.143   c0.27,0,0.406,0.135,0.406,0.407v3.072c0,0.271-0.135,0.406-0.406,0.406h-3.825v7.463c0,1.05,0.406,1.591,1.117,1.591   c0.305,0,0.575-0.034,0.846-0.135c0.271-0.102,0.44-0.034,0.541,0.203l1.354,2.41c0.102,0.237,0.068,0.406-0.135,0.542   c-0.745,0.439-1.726,0.71-2.606,0.71c-3.588,0-5.687-1.733-5.687-5.287v-7.497h-1.692c-0.271,0-0.407-0.135-0.407-0.406v-3.072   c0-0.272,0.136-0.407,0.407-0.407h1.692v-3.648c0-0.237,0.102-0.372,0.338-0.44l3.757-1.252c0.305-0.102,0.475,0.034,0.475,0.304   v5.036H88.554z" fill="#FAA21B"/>
    <path d="M34.155,100.133   c-0.224,0-0.406,0.184-0.406,0.41v3.101c0,0.227,0.183,0.41,0.406,0.41h1.692v12.34c0,0.226,0.182,0.41,0.406,0.41h3.757   c0.225,0,0.406-0.184,0.406-0.41v-15.851c0-0.232-0.104-0.359-0.299-0.395L34.155,100.133z" fill="#FAA21B"/>
  </g>
</svg>
