<?xml version="1.0" encoding="utf-8"?>
<!-- Generator: Adobe Illustrator 27.0.0, SVG Export Plug-In . SVG Version: 6.00 Build 0)  -->
<svg version="1.2" baseProfile="tiny-ps" id="Layer_1" xmlns="http://www.w3.org/2000/svg" xmlns:xlink="http://www.w3.org/1999/xlink"
viewBox="0 0 1000 1000" xml:space="preserve"> <title>PT. Bigga Damai Utama</title>
<g>
	<path d="M424.72,439.18v-63.64l-18.99-7.5l36.36-5.01v76.45l17.29,8.83h-50.7L424.72,439.18z M420.58,332.97
		c0-6.31,4.96-11.41,11.71-11.41c6.66,0,11.71,5.11,11.71,11.41c0,6.21-5.05,11.41-11.71,11.41
		C425.55,344.39,420.58,339.18,420.58,332.97z"/>
	<path d="M579.43,461.44c-0.08,17.84-18.95,26.32-40.78,26.32c-16.51,0-28.65-4.35-34.21-8.99l-2.98-16.14
		c6.95,9.3,21.78,14.59,36.44,14.59c13.8,0,28.03-3.59,28.03-12.96c0-10.64-13.45-10.19-25.73-10.19
		c-14.82,0-29.41-1.15-29.41-15.22c0-7.27,3.62-13.88,9.63-18.17c-12.07-4.63-18.44-14.4-18.44-26.1
		c0-17.14,13.16-31.64,35.63-31.64c2.33,0,4.56,0.14,6.68,0.42l29.87-11.88l2.38,11.69l-23.99,2.08c13.44,4.62,20.6,15.6,20.6,28.09
		c0,16.85-13.01,30.22-35.54,30.22c-5.19,0-9.85-0.64-13.96-1.81c-3.03,3.19-4.87,6.87-4.87,10.6c-0.01,8.27,12.16,8.26,25.51,8.26
		C563.16,440.62,579.53,441.31,579.43,461.44z M518.52,393.64c0,13.17,7.17,23.05,19.1,23.33c12.09,0.28,19.15-10.61,19.15-23.33
		c0-13.33-6.72-24.38-19.15-24.38C525.73,369.25,518.52,380.31,518.52,393.64z"/>
	<path d="M700.25,461.44c-0.08,17.84-18.95,26.32-40.78,26.32c-16.51,0-28.65-4.35-34.21-8.99l-2.98-16.14
		c6.95,9.3,21.78,14.59,36.44,14.59c13.8,0,28.03-3.59,28.03-12.96c0-10.64-13.45-10.19-25.73-10.19
		c-14.82,0-29.41-1.15-29.41-15.22c0-7.27,3.62-13.88,9.63-18.17c-12.07-4.63-18.44-14.4-18.44-26.1
		c0-17.14,13.16-31.64,35.63-31.64c2.33,0,4.56,0.14,6.68,0.42l29.87-11.88l2.38,11.69l-23.99,2.08c13.44,4.62,20.6,15.6,20.6,28.09
		c0,16.85-13.01,30.22-35.54,30.22c-5.19,0-9.85-0.64-13.96-1.81c-3.03,3.19-4.87,6.87-4.87,10.6c-0.01,8.27,12.16,8.26,25.51,8.26
		C683.98,440.62,700.34,441.31,700.25,461.44z M639.33,393.64c0,13.17,7.17,23.05,19.1,23.33c12.09,0.28,19.15-10.61,19.15-23.33
		c0-13.33-6.72-24.38-19.15-24.38C646.54,369.25,639.33,380.31,639.33,393.64z"/>
	<path d="M793.62,448.31v-11.51c-5.27,7.94-14.86,14.14-27.14,14.14c-12.3,0-21.61-7.98-21.61-20.27
		c0-20.15,25.04-26.92,48.76-26.82v-11c0-14.86-8.21-18.91-19.31-18.91c-9.84,0-19.3,4.36-24.89,8.46l5.98-13.38
		c5.83-3.28,14.76-6.31,24.74-6.31c18.81,0,30.86,8.88,30.86,25.69v51.06l17,8.83H793.62z M793.62,431.69V408.6
		c-18.1,0.54-31.54,6.75-31.54,19.33c0,9.06,6.67,13.94,13.66,13.94C783.18,441.88,789.61,437.95,793.62,431.69z"/>
	<g>
		<text transform="matrix(1 0 0 1 215.5251 452.0375)" font-family="'Nikola-Medium'" font-size="168.9688px">B</text>
		<g>
			<path d="M364.92,488.09H174.96V298.13h189.96V488.09z M193.7,469.35h152.48V316.87H193.7V469.35z"/>
		</g>
	</g>
	<g>
		<path d="M607.69,540.96v11.59L601.51,542c-1.61-0.66-3.79-1.12-6.29-1.12c-5.51,0-10.56,3.07-10.56,8.95
			c0,12.03,25.61,10.79,25.61,25.19c0,10.28-9.01,14.77-17.73,14.77c-6.26,0-11.59-1.74-14.73-3.61l0.71-12.5l5.98,11.83
			c1.66,0.85,4.26,1.55,7.72,1.55c5.78,0,11.4-3.12,11.4-9.47c0-11.96-25.42-9.82-25.42-25.41c0-8.66,7.37-14.03,16.31-14.03
			C599.67,538.14,604.32,539.32,607.69,540.96z"/>
		<path d="M656.57,583.83c-2.17,3.11-5.74,5.46-10.38,5.46c-5.85,0-9.94-3.19-9.94-10.05v-22.74h-6.2l6.87-4.05l6.67-8.71v9.7h11.88
			l-2.43,3.06h-9.45v20.93c0,5.95,2.41,8.46,6.69,8.46C652.49,585.9,654.49,585.15,656.57,583.83z"/>
		<path d="M674.52,571.02c0-11.04,7.26-18.99,18.59-18.99c11.57,0,18.21,7.71,18.21,18.75c0,11.27-6.89,18.91-18.45,18.91
			C681.54,589.69,674.52,582.29,674.52,571.02z M703.8,570.9c0-8.52-3.23-16.17-10.73-16.17c-7.55,0-11.02,7.65-11.02,16.17
			c0,8.56,3.52,16.31,10.86,16.31C700.61,587.21,703.8,579.46,703.8,570.9z"/>
		<path d="M760.68,584.62v-20.7c0-5.18-1.94-8.08-6.79-8.08c-3.76,0-7.13,2.09-9.56,4.46v24.33l6.02,3.73h-20.14l6.78-3.86V557.8
			l-7.51-3.37l14.85-1.92v6.67c2.59-3.59,7.38-7.12,12.85-7.12c7.56,0,10.85,4.05,10.85,10.96v21.6l7.03,3.73H756.1L760.68,584.62z"
			/>
		<path d="M826.39,580.43c-1.99,4.88-7.53,9.35-15.57,9.35c-9.97,0-17.69-6.58-17.69-18.13c0-11.92,7.87-19.63,18.15-19.63
			c9.9,0,14.8,7.09,14.32,15.77h-24.73c-0.1,0.98-0.16,1.99-0.16,3.02c0,8.96,5.57,15.02,13.19,15.02
			C818.86,585.83,823.55,583.64,826.39,580.43z M801.23,565.43h17.52c-0.03-6.08-2.12-10.92-7.79-10.92
			C806.05,554.51,802.5,559.08,801.23,565.43z"/>
	</g>
	<g>
		<rect x="173.78" y="565.53" width="380.98" height="9.37"/>
	</g>
	<g>
		<g>
			<path d="M513.4,665.21c3.76,0,7.14,0,11,0c-1.21,0.95-2.12,1.68-3.33,2.63c2.68,7.63,5.39,15.36,8.11,23.1
				c0.19-0.02,0.38-0.04,0.57-0.05c2.71-7.58,5.42-15.16,8.25-23.05c-2.03-0.81-3.91-1.56-5.79-2.31c0.04-0.1,0.08-0.2,0.12-0.29
				c3.87,0,7.74,0,12.27,0c-1.94,1.16-3.36,2.01-4.75,2.85c-3.68,9.99-7.33,19.9-10.99,29.81c-0.19,0.01-0.38,0.02-0.57,0.03
				c-3.16-8.48-6.32-16.97-9.71-26.08c-3.46,9.07-6.71,17.6-10.23,26.82c-4.18-10.64-8.09-20.59-12.02-30.58
				c-1.24-0.8-2.47-1.59-3.7-2.39c2.15-0.65,4.28-0.56,6.39-0.57c2.22-0.02,4.43,0,6.77,0.43c-1.71,0.69-3.42,1.38-5.49,2.21
				c2.91,7.92,5.77,15.72,8.85,24.11c2.91-8,5.61-15.45,8.46-23.27C516.35,667.56,515.01,666.5,513.4,665.21z"/>
			<path d="M195.18,684.42c-0.97-1.55-1.57-2.52-2.32-3.73c-3.26,0-6.64,0-10.08,0c-0.6,1.92-0.78,12.09-0.21,16.72
				c2.27,0.76,4.64,1.56,7.01,2.36c-0.02,0.11-0.04,0.21-0.07,0.32c-5.77,0-11.55,0-17.32,0c-0.06-0.11-0.12-0.22-0.18-0.32
				c1.91-0.78,3.82-1.57,5.8-2.38c0-13.29,0-26.46,0-39.86c-1.84-0.8-3.75-1.64-5.66-2.47c9.22-0.92,18.46-0.05,28.02-1.03
				c0.75,3.23,0.72,6.55,0.32,10.02c-1.19-2.33-2.38-4.66-3.64-7.14c-4.71,0-9.45,0-14.37,0c0,7.18,0,14.24,0,21.3
				c3.56,0,7,0,10.38,0c0.77-1.23,1.37-2.19,2.33-3.71C195.18,677.97,195.18,680.78,195.18,684.42z"/>
			<path d="M654.99,695.37c0-3.29,0-6.26,0-9.22c0.21-0.06,0.42-0.12,0.63-0.18c1.19,2.91,2.38,5.83,3.64,8.92
				c5.11,2.14,10.27,2.82,15.54,0.14c5.66-2.88,6.77-11.27,0.65-14.85c-3-1.76-6.31-2.99-9.45-4.51c-1.9-0.93-3.8-1.88-5.61-2.97
				c-7.35-4.41-6.44-15.66,1.32-19.7c4.62-2.4,9.43-2.22,14.29-1.17c1.73,0.37,3.37,1.14,5.1,1.74c0,2.95,0,5.69,0,8.43
				c-0.13,0.06-0.25,0.12-0.38,0.18c-1.21-2.53-2.42-5.06-3.64-7.63c-4.23-1.75-8.45-2.2-12.68-0.27
				c-6.06,2.77-7.67,10.94-1.36,15.23c2.52,1.71,5.46,2.79,8.21,4.17c2.46,1.23,5.02,2.3,7.36,3.74c6.96,4.29,5.28,13.12,1.4,16.85
				c-3.36,3.23-7.48,4.42-11.93,4.47C663.46,698.79,659.03,697.79,654.99,695.37z"/>
			<path d="M747.74,680.79c-0.47,6.58-2.14,11.85-7.28,15.27c-8.39,5.58-21.89,2.63-24.32-9.9c-1.15-5.94-0.61-11.68,3.39-16.58
				c4.28-5.26,10-6.56,16.35-5.18c5.83,1.27,9.34,5.2,10.91,10.84C747.35,677.28,747.51,679.41,747.74,680.79z M743.29,681.39
				c0.08-3.49-0.36-6.71-1.99-9.69c-2.18-3.96-5.38-6.22-10.02-6.04c-4.6,0.18-7.79,2.56-9.63,6.66
				c-2.76,6.16-2.65,12.39,0.24,18.45c1.74,3.65,4.64,5.96,8.92,6.21c4.48,0.25,7.79-1.58,10.11-5.34
				C742.88,688.44,743.39,684.91,743.29,681.39z"/>
			<path d="M233.89,696.09c-0.99,2.19-2.96,3.29-4.99,4.06c-9.74,3.72-20.07-0.96-21.71-12.18c-0.81-5.51,0.08-10.58,3.27-15.15
				c3.61-5.17,10.43-7.46,16.38-5.63c5.13,1.58,8.37,6.96,7.64,13.04c-7.57,0-15.19,0-22.7,0c-1.92,5.3,0.44,13.03,4.44,16.14
				C220.85,699.97,226.63,699.89,233.89,696.09z M230.74,678.4c0.38-6.03-3.51-10.24-8.9-10.03c-4.77,0.18-9.45,4.96-9.71,10.03
				C218.34,678.4,224.54,678.4,230.74,678.4z"/>
			<path d="M823.96,677.66c-7.55,0-15.16,0-23.06,0c-0.58,6.39,0.08,12.15,5.29,16.08c6,4.52,12.07,2.88,18.21-1.22
				c-1.51,2.86-3.7,4.16-6.07,5.03c-10.66,3.87-20.91-2.24-21.6-13.88c-0.31-5.15,0.62-9.94,3.84-14.13
				c4.26-5.53,12.69-7.34,18.35-3.91C822.87,668.02,824.85,672.57,823.96,677.66z M820.5,675.74c-0.04-6.46-3.51-10.21-8.82-10.07
				c-5.36,0.14-9.88,5.56-9.75,10.07C808.05,675.74,814.15,675.74,820.5,675.74z"/>
			<path d="M270.26,695.7c-3.26,4.58-8.01,6.14-13.3,5.64c-8.45-0.8-13.66-6.84-14.01-15.38c-0.21-5.06,0.75-9.7,3.91-13.77
				c3.67-4.74,10.84-6.86,16.37-4.84c4.96,1.81,7.61,6.43,7.15,12.89c-7.55,0.28-15.16-0.04-22.69,0.17
				c-2.07,4.02,0.21,12.79,4.71,16.14C256.37,699.51,263.49,700.49,270.26,695.7z M266.69,678.41c0.27-3.69-0.84-6.67-3.74-8.66
				c-2.85-1.96-6.08-1.85-9.06-0.28c-3.49,1.84-5.25,5.01-6.03,8.94C254.16,678.41,260.35,678.41,266.69,678.41z"/>
			<path d="M318.41,668.77c-0.1,1.75-0.21,3.62-0.32,5.5c-0.2,0.07-0.4,0.14-0.59,0.2c-1.03-1.93-2.07-3.86-3.1-5.77
				c-2.7-0.58-5.22-0.78-7.7,0.1c-4.69,1.65-5.82,6.82-2.09,10.1c1.4,1.23,3.21,2.03,4.87,2.94c2.41,1.33,4.96,2.43,7.28,3.89
				c5.26,3.33,4.27,10.2,0.15,13.23c-2.42,1.78-5.19,2.44-8.08,2.5c-3.56,0.08-6.93-0.75-9.99-2.99c0-2.39,0-4.81,0-7.23
				c0.14-0.07,0.28-0.13,0.42-0.2c1.15,2.43,2.3,4.85,3.5,7.38c3.11,1.77,6.38,1.68,9.77,0.73c4.55-1.28,5.68-8.09,1.78-10.41
				c-1.82-1.08-3.7-2.05-5.55-3.08c-2.22-1.24-4.61-2.24-6.6-3.78c-4.87-3.76-4.21-10.43,1.16-13.47
				C307.71,665.94,313.91,666.03,318.41,668.77z"/>
			<path d="M605.21,670.07c-0.77,1.38-1.22,2.79-1.2,4.45c0.09,6.58,0.04,13.17,0.04,20.13c1.7,0.78,3.48,1.6,5.92,2.73
				c-5.53,0-10.32,0-15.74,0c2.21-1,3.91-1.77,5.76-2.61c0-14.82,0-29.65,0-44.6c-1.81-0.67-3.56-1.32-5.32-1.96
				c0.01-0.16,0.03-0.33,0.04-0.49c2.98-0.34,5.97-0.68,9.3-1.06c0,7.85,0,15.55,0,23.16c0.64,0.15,0.95,0.23,1.26,0.3
				L605.21,670.07z"/>
			<path d="M282.42,652.89c-1.95-0.75-3.61-1.39-5.27-2.03c0.01-0.16,0.02-0.33,0.03-0.49c2.99-0.35,5.97-0.7,9.2-1.08
				c0,16.06,0,31.97,0,48.07c1.92,0.83,3.72,1.61,5.52,2.38c-0.02,0.11-0.05,0.21-0.07,0.32c-4.83,0-9.66,0-15.24,0
				c2.34-1.08,4.04-1.87,5.83-2.7C282.42,682.56,282.42,667.82,282.42,652.89z"/>
			<path d="M699.63,657.99c0,2.69,0,4.68,0,7.07c1.93,0.02,3.69,0.04,5.46,0.05c1.8,0.01,3.61,0,6.05,0
				c-1.04,1.01-1.72,1.66-2.43,2.35c-2.95,0-5.81,0-8.84,0c-0.12,0.83-0.31,1.53-0.31,2.23c-0.02,5.95-0.02,11.9-0.01,17.85
				c0,0.95,0.07,1.91,0.17,2.86c0.46,4.31,3.25,6.37,7.51,5.53c1.01-0.2,1.99-0.55,3.06-0.85c-2.23,2.73-5.36,3.73-8.9,2.86
				c-3.1-0.76-4.99-2.71-5.49-5.88c-0.24-1.56-0.44-3.15-0.46-4.73c-0.05-6.47-0.02-12.94-0.02-19.77c-1.6-0.07-3.03-0.14-5.21-0.24
				c2.21-1.2,3.87-2.09,5.54-3C696.95,662.4,697.73,660.22,699.63,657.99z"/>
			<path d="M589.05,695.27c-2.88,2.93-6.85,3.79-10.37,2.21c-2.3-1.04-3.66-2.89-4.1-5.32c-0.28-1.56-0.39-3.16-0.4-4.75
				c-0.05-5.52-0.01-11.05-0.03-16.57c0-1.03-0.1-2.06-0.16-3.27c-1.63-0.09-3.07-0.17-5.12-0.29c2.14-1.12,3.79-1.99,5.45-2.87
				c1.11-1.88,2.21-3.74,3.31-5.61c0.16,0.06,0.33,0.12,0.49,0.18c0.08,1.94,0.17,3.88,0.26,6.05c3.78,0,7.35,0,10.92,0
				c0.14,0.23,0.29,0.46,0.43,0.69c-0.68,0.6-1.36,1.2-2.01,1.77c-3.24,0-6.18,0-9.32,0c-0.07,0.94-0.16,1.65-0.16,2.36
				c-0.01,5.95-0.04,11.9,0,17.85c0.06,7.6,2.98,9.7,10.21,7.42C588.63,695.07,588.86,695.21,589.05,695.27z"/>
			<path d="M605.25,670.11c3.03-4.99,9.98-7.53,15.21-5.46c3.46,1.38,4.9,4.27,5.11,7.78c0.16,2.65,0.06,5.32,0.07,7.98
				c0.01,4.67,0,9.35,0,14.27c1.95,0.81,3.86,1.6,5.77,2.4c-0.03,0.1-0.05,0.21-0.08,0.31c-4.72,0-9.44,0-14.7,0
				c1.89-1.05,3.39-1.9,5.01-2.8c0-7.06,0.22-14.08-0.07-21.07c-0.25-6-4.89-8.74-10.54-6.5c-2.03,0.81-3.9,2.03-5.84,3.06
				L605.25,670.11z"/>
			<path d="M764.31,670.11c3.8-6.03,10.99-6.96,15.59-5.49c2.49,0.79,4.16,2.61,4.82,5.12c0.4,1.52,0.55,3.14,0.57,4.72
				c0.07,5.64,0.03,11.28,0.03,16.91c0,1.05,0,2.11,0,3.28c1.89,0.86,3.67,1.66,5.44,2.47c-0.04,0.13-0.09,0.26-0.13,0.39
				c-0.63,0-1.27,0-1.9,0c-3.93,0-7.87,0-12.59,0c2.12-1.2,3.6-2.04,5.26-2.98c0-3.61,0-7.22,0-10.82c0-3.19,0.09-6.39-0.04-9.57
				c-0.26-6.33-4.65-9.34-10.67-7.27c-1.67,0.57-3.17,1.66-4.77,2.48c-0.54,0.28-1.11,0.48-1.67,0.71L764.31,670.11z"/>
			<path d="M555.25,667.83c-1.99-0.67-3.85-1.29-6.25-2.1c3.49-1.08,6.65-1.03,10.19-1.61c0.01,3.62,0.02,6.97,0.03,10.33
				c0,3.29,0,6.58,0,9.87c0,3.39,0,6.78,0,10.31c2,0.85,3.91,1.66,6.46,2.75c-5.63,0-10.55,0-16.25,0c2.33-1.07,4.04-1.86,5.82-2.68
				C555.25,685.81,555.25,677.02,555.25,667.83z"/>
			<path d="M764.26,670.06c-0.96,1.58-1.13,3.3-1.11,5.13c0.07,5.42,0.02,10.84,0.02,16.26c0,1.05,0,2.1,0,3.18
				c1.89,0.9,3.56,1.7,5.87,2.8c-5.5,0-10.23,0-15.72,0c2.34-1.09,4.02-1.87,5.77-2.69c0-8.9,0-17.7,0-26.65
				c-1.72-0.74-3.44-1.47-5.81-2.49c3.52-0.45,6.42-0.82,9.7-1.24c0.11,1.96,0.21,3.71,0.31,5.44c0.4,0.12,0.7,0.22,1.01,0.31
				L764.26,670.06z"/>
			<path d="M559.83,650.61c0.04,0.92,0.1,2.04,0.14,2.97c-2.11,1.99-4.05,2.34-5.43,1.14c-1.25-1.08-1.43-2.93-0.43-4.28
				C555.44,648.65,557.05,648.64,559.83,650.61z"/>
		</g>
		<path d="M369.7,674.48c2.49,0.88,5.17,1.49,7.52,2.74c8.07,4.29,8.27,15.44,0.45,20.17c-3.93,2.38-8.37,3.14-12.83,3.25
			c-7.66,0.18-15.33,0.05-23.17-0.29c2.36-1.23,4.73-2.45,7.1-3.68c0.03-0.37,0.07-0.69,0.07-1.01c0-13.5,0-27,0-40.71
			c-2.35-1.28-4.76-2.59-7.33-3.99c0.37-0.2,0.55-0.38,0.73-0.38c8.22,0.09,16.45,0.09,24.67,0.36c2.09,0.07,4.24,0.73,6.21,1.51
			c4.49,1.78,6.98,5.2,7.13,10.09c0.15,4.74-2.25,8.01-6.34,10.12C372.5,673.37,371.01,673.92,369.7,674.48z M356.63,697.82
			c2.3,0,4.43,0.07,6.57-0.03c1.34-0.06,2.7-0.27,4.01-0.58c4.85-1.16,7.85-4.62,8.02-9.13c0.21-5.53-2.14-9.11-7.22-10.7
			c-3.68-1.15-7.48-1.15-11.38-0.86C356.63,683.61,356.63,690.53,356.63,697.82z M356.67,653.57c0,6.98,0,13.47,0,20.18
			c1.7,0,3.28,0.05,4.85-0.02c1.11-0.05,2.23-0.16,3.31-0.4c4.58-1,7.55-4.77,7.65-9.64c0.11-5.28-2.19-8.52-7.35-9.58
			C362.46,653.56,359.64,653.73,356.67,653.57z"/>
		<path d="M419.7,696.95c2.28,1.21,4.29,2.28,6.83,3.62c-5.1,0-9.63,0-14.34,0c0-1.39,0-2.71,0-4.29c-1.41,1.18-2.53,2.27-3.79,3.16
			c-3.24,2.3-6.94,2.9-10.71,2.08c-3.55-0.78-5.85-3.16-6.48-6.85c-0.62-3.65,0.72-6.6,3.61-8.79c3.13-2.37,6.83-3.31,10.65-3.83
			c2.12-0.29,4.25-0.44,6.58-0.67c0-2.19,0.23-4.42-0.05-6.59c-0.52-3.97-3.01-5.97-7.27-6.15c-4.01-0.17-7.62,1.16-11.16,3.23
			c0.81-3.98,2.73-6.46,6.83-7.21c3.32-0.6,6.55-1.06,9.92-0.42c6.03,1.14,9.31,4.88,9.36,11.08c0.05,6.3,0.01,12.61,0.01,18.91
			C419.7,695.09,419.7,695.96,419.7,696.95z M412,683.62c-3.82,0.2-7.39,0.71-10.52,2.84c-2.51,1.7-3.59,5-2.6,7.8
			c0.87,2.46,3.16,3.79,6.33,3.61c3.12-0.17,5.26-1.92,6.8-4.13C412,690.2,412,686.96,412,683.62z"/>
		<path d="M442.35,696.82c2.4,1.25,4.54,2.37,7.23,3.77c-7.27,0-13.9,0-21.07,0c2.38-1.41,4.38-2.59,6.47-3.83
			c0-15.44,0-30.89,0-46.58c-2.22-1.02-4.56-2.1-6.9-3.18c0.02-0.12,0.04-0.24,0.06-0.36c4.67-0.6,9.33-1.2,14.21-1.82
			C442.35,662.21,442.35,679.42,442.35,696.82z"/>
		<path d="M460.43,669.39c-2.43-1-4.74-1.95-7.05-2.91c0.02-0.17,0.03-0.34,0.05-0.51c4.68-0.63,9.36-1.25,14.35-1.92
			c0,11.07,0,21.89,0,32.75c2.35,1.23,4.51,2.36,7.17,3.74c-7.16,0-13.79,0-20.9,0c2.31-1.35,4.3-2.52,6.39-3.74
			C460.43,687.74,460.43,678.67,460.43,669.39z"/>
		<path d="M463.68,646.09c2.86-0.05,5.04,2.06,5.05,4.88c0.01,2.77-1.96,4.75-4.81,4.82c-2.97,0.08-5.21-1.92-5.25-4.68
			C458.63,648.42,460.91,646.13,463.68,646.09z"/>
	</g>
</g>
</svg>
