<?xml version="1.0" encoding="UTF-8"?>
<svg id="Layer_1" xmlns="http://www.w3.org/2000/svg" baseProfile="tiny-ps" version="1.2" viewBox="0 0 157.4 52.2" xml:space="preserve"> 
  <title>The Institutes</title>
  <polygon points="43.8 4.8 60.7 14.2 43.8 23.9 43.8 4.8" fill="#7ea6d7" stroke-width="0"/>
  <polygon points="52.3 9.5 69.1 19 52.3 28.6 52.3 9.5" fill="#ffc425" stroke-width="0"/>
  <polygon points="52.3 0 69.1 9.5 52.3 19.1 52.3 0" fill="#8a2529" stroke-width="0"/>
  <polygon points="52.3 9.5 60.7 14.3 52.3 19.1 52.3 9.5" fill="#002b5c" stroke-width="0"/>
  <g>
    <path d="M0,32.9h14.9v1.5h-6.6v17.3h-1.8v-17.3H0s0-1.5,0-1.5Z" fill="#002b5c" stroke-width="0"/>
    <path d="M16.4,32.9h1.7v7.6h0c.6-1.6,2.4-2.8,4.4-2.8,3.8,0,5,2,5,5.2v8.8h-1.7v-8.5c0-2.3-.8-4.1-3.5-4.1s-4.2,2-4.3,4.7v7.9h-1.7v-18.8Z" fill="#002b5c" stroke-width="0"/>
    <path d="M31.6,45.4c0,2.4,1.3,5.4,4.5,5.4s3.8-1.4,4.3-3.5h1.7c-.7,3.1-2.5,4.9-5.9,4.9s-6.2-3.3-6.2-7.2,1.8-7.2,6.2-7.2,6.1,3.8,6,7.7h-10.5ZM40.4,44c0-2.5-1.6-4.9-4.3-4.9s-4.2,2.4-4.5,4.9h8.8Z" fill="#002b5c" stroke-width="0"/>
    <path d="M52.1,32.9h1.8v18.8h-1.8v-18.8Z" fill="#002b5c" stroke-width="0"/>
    <path d="M57.5,38.1h1.7v2.3h0c.6-1.6,2.4-2.8,4.4-2.8,3.8,0,5,2,5,5.2v8.8h-1.7v-8.5c0-2.3-.8-4.1-3.5-4.1s-4.2,2-4.3,4.7v7.9h-1.7v-13.6Z" fill="#002b5c" stroke-width="0"/>
    <path d="M79.8,42.1c0-2.1-1.7-3-3.6-3s-3.2.6-3.2,2.3,1.7,2,2.8,2.3l2.2.5c1.9.3,3.9,1.4,3.9,3.8s-2.9,4.1-5.5,4.1-5.3-1.5-5.6-4.8h1.7c.1,2.2,1.8,3.4,4,3.4s3.7-.7,3.7-2.6-1.5-2.1-3-2.5l-2.1-.5c-2.2-.6-3.8-1.3-3.8-3.6s2.7-3.8,5.1-3.8,4.9,1.4,5,4.4c0,0-1.7,0-1.7,0Z" fill="#002b5c" stroke-width="0"/>
    <path d="M87,38.1h2.8v1.4h-2.8v9.2c0,1.1.2,1.7,1.3,1.8.5,0,.9,0,1.4,0v1.4c-.5,0-1,0-1.5,0-2.2,0-3-.7-3-3.1v-9.3h-2.4v-1.4h2.4v-4.1h1.7v4.1Z" fill="#002b5c" stroke-width="0"/>
    <path d="M92.2,32.9h1.7v2.7h-1.7v-2.7ZM92.2,38.1h1.7v13.6h-1.7v-13.6Z" fill="#002b5c" stroke-width="0"/>
    <path d="M99.7,38.1h2.8v1.4h-2.8v9.2c0,1.1.2,1.7,1.3,1.8.5,0,.9,0,1.4,0v1.4c-.5,0-1,0-1.5,0-2.2,0-3-.7-3-3.1v-9.3h-2.4v-1.4h2.4v-4.1h1.7v4.1Z" fill="#002b5c" stroke-width="0"/>
    <path d="M115.9,51.8h-1.5v-2.5h0c-.9,1.8-2.7,2.8-4.7,2.8-3.4,0-4.8-2-4.8-5.2v-8.8h1.7v8.9c0,2.5,1,3.8,3.6,3.8s4.1-2.7,4.1-5.5v-7.2h1.7v13.6h0Z" fill="#002b5c" stroke-width="0"/>
    <path d="M121.7,38.1h2.8v1.4h-2.8v9.2c0,1.1.2,1.7,1.4,1.8.5,0,.9,0,1.4,0v1.4c-.5,0-1,0-1.5,0-2.2,0-3-.7-3-3.1v-9.3h-2.4v-1.4h2.4v-4.1h1.7v4.1Z" fill="#002b5c" stroke-width="0"/>
    <path d="M127.9,45.4c0,2.4,1.3,5.4,4.5,5.4s3.8-1.4,4.3-3.5h1.7c-.7,3.1-2.5,4.9-5.9,4.9s-6.1-3.3-6.1-7.2,1.8-7.2,6.1-7.2,6.1,3.8,6,7.7h-10.5ZM136.7,44c0-2.5-1.6-4.9-4.3-4.9s-4.2,2.4-4.5,4.9h8.8Z" fill="#002b5c" stroke-width="0"/>
    <path d="M148.7,42.1c0-2.1-1.7-3-3.6-3s-3.2.6-3.2,2.3,1.7,2,2.8,2.3l2.2.5c1.9.3,3.9,1.4,3.9,3.8s-2.9,4.1-5.5,4.1-5.3-1.5-5.6-4.8h1.7c.1,2.2,1.8,3.4,4,3.4s3.7-.7,3.7-2.6-1.5-2.1-3-2.5l-2.1-.5c-2.2-.6-3.8-1.3-3.8-3.6s2.7-3.8,5.1-3.8,4.9,1.4,5,4.4c0,0-1.7,0-1.7,0Z" fill="#002b5c" stroke-width="0"/>
  </g>
  <path d="M155.4,37.4c1.1,0,2,.9,2,2s-.9,2-2,2-2-.9-2-2,.9-2,2-2ZM157,39.4c0-.9-.7-1.7-1.7-1.7s-1.7.8-1.7,1.7.7,1.7,1.7,1.7c.9,0,1.7-.7,1.7-1.7ZM154.5,38.2h.9c.5,0,.8.2.8.7s-.3.6-.6.7l.7,1h-.4l-.6-1h-.4v1h-.4v-2.4h0ZM155.3,39.3c.3,0,.6,0,.6-.4s-.3-.3-.5-.3h-.5v.7s.4,0,.4,0Z" fill="#002b5c" stroke-width="0"/>
</svg>
