<?xml version="1.0" encoding="utf-8"?>
<!-- Generator: Adobe Illustrator 27.6.0, SVG Export Plug-In . SVG Version: 6.00 Build 0)  -->
<svg version="1.2" baseProfile="tiny-ps" id="Layer_1" xmlns="http://www.w3.org/2000/svg" xmlns:xlink="http://www.w3.org/1999/xlink" viewBox="0 0 180 180" xml:space="preserve">
<title>jobvector</title>
<path fill-rule="evenodd" fill="#E0DCDA" d="M96.3,144.7c-9.6-0.6-19.1-1.1-28.7-1.5c-5.6-0.5-11.7-3.2-15.6-7.4
	c-4-6.9-10-12.9-15-19c-4.7-5.9-9.5-11.7-14.3-17.4c-2.4-3.1-3-8.7-0.3-11.8c4.2-5.1,8.7-10.1,13.1-15c4.1-4.6,8.3-9.2,12.5-13.7
	c3.1-3.1,9.2-4.4,13.5-4.1c8.5,0.6,17,1.1,25.5,1.8c8.5,0.7,16.9,1.5,25.3,2.4c5,0.8,10.2,2.9,14.1,6.2c4.5,5.6,10.3,10.4,15.3,15.7
	c5.2,5.5,10.3,11,15.4,16.7c2.3,2.8,4.5,8.2,2.3,11.6c-3.3,5.2-6.8,10.3-10.1,15.4l-10.9,16.8c-2.7,3.8-9.4,6-13.9,5.4
	C115.1,145.8,105.7,145.3,96.3,144.7z M88.4,126.1c-6.9-0.4-13.9-0.8-20.8-1.1c-4.1-0.4-8.5-2.3-11.3-5.3
	c-2.9-4.9-7.3-9.2-10.9-13.7c-3.5-4.2-6.9-8.4-10.5-12.6c-1.7-2.3-2.2-6.3-0.3-8.6c3.1-3.7,6.3-7.3,9.5-10.9c3-3.4,6-6.7,9.1-10
	c2.3-2.3,6.7-3.2,9.8-3c6.2,0.4,12.5,0.8,18.7,1.3c6.2,0.5,12.4,1.1,18.6,1.7c3.7,0.5,7.5,2.1,10.3,4.5c3.3,4.1,7.5,7.6,11.2,11.4
	c3.8,4,7.5,8,11.2,12.1c1.7,2,3.2,6,1.6,8.5c-2.4,3.8-5,7.4-7.5,11.2l-8,12.1c-2,2.8-6.9,4.3-10.2,3.9
	C102.1,126.9,95.3,126.5,88.4,126.1z"/>
<rect x="26" y="63.2" fill="none" width="141.9" height="92.9"/>
<path fill-rule="evenodd" fill="#F29220" d="M97.3,123.9c-9.6-0.6-19.1-1.1-28.7-1.5c-5.6-0.5-11.7-3.2-15.6-7.4
	c-4-6.9-10-12.9-15-19c-4.7-5.9-9.5-11.7-14.3-17.4c-2.4-3.1-3-8.7-0.3-11.8c4.2-5.1,8.7-10.1,13.1-15c4.1-4.6,8.3-9.2,12.5-13.7
	c3.1-3.1,9.2-4.4,13.5-4.1c8.5,0.6,17,1.1,25.5,1.8c8.5,0.7,16.9,1.5,25.3,2.4c5,0.8,10.2,2.9,14.1,6.2c4.5,5.6,10.3,10.4,15.3,15.7
	c5.2,5.5,10.3,11,15.4,16.7c2.3,2.8,4.5,8.2,2.3,11.6c-3.3,5.2-6.8,10.3-10.1,15.4l-10.9,16.8c-2.7,3.8-9.4,6-13.9,5.4
	C116.1,125,106.7,124.5,97.3,123.9z M89.4,105.3c-6.9-0.4-13.9-0.8-20.8-1.1c-4.1-0.4-8.5-2.3-11.3-5.3c-2.9-4.9-7.3-9.2-10.9-13.7
	c-3.5-4.2-6.9-8.4-10.5-12.6c-1.7-2.3-2.2-6.3-0.3-8.6c3.1-3.7,6.3-7.3,9.5-10.9c3-3.4,6-6.7,9.1-10c2.3-2.3,6.7-3.2,9.8-3
	c6.2,0.4,12.5,0.8,18.7,1.3c6.2,0.5,12.4,1.1,18.6,1.7c3.7,0.5,7.5,2.1,10.3,4.5c3.3,4.1,7.5,7.6,11.2,11.4c3.8,4,7.5,8,11.2,12.1
	c1.7,2,3.2,6,1.6,8.5c-2.4,3.8-5,7.4-7.5,11.2l-8,12.1c-2,2.8-6.9,4.3-10.2,3.9C103,106.1,96.2,105.7,89.4,105.3z"/>
<rect x="20.7" y="33.6" fill="none" width="141.9" height="92.9"/>
</svg>
