<svg xmlns="http://www.w3.org/2000/svg" xmlns:xlink="http://www.w3.org/1999/xlink" version="1.2" viewBox="0 0 80 80" baseProfile="tiny-ps">
  <title>EOS</title>
  <rect y="0" width="80" height="80" fill="#FFFFFF"/>
  <path d="M67.713,37.337H59.04c0.037,0.037,1.004,2.12,5.401,4.129l2.775,1.272  c1.733,0.811,3.318,1.391,3.318,3.161c0,2.313-2.202,2.894-3.667,2.894c-2.432,0-4.553-1.272-6.368-3.742l-3.667,2.7v0.037  c2.083,3.585,5.594,5.706,9.99,5.706c5.668,0,9.179-3.355,9.179-7.751c0-3.161-1.659-5.133-5.17-6.866L67.713,37.337z   M70.532,34.793c2.351,0,4.166-1.815,4.166-4.129c0-2.351-1.815-4.166-4.166-4.166c-2.313,0-4.129,1.815-4.129,4.166  C66.404,32.978,68.219,34.793,70.532,34.793z M14.213,33.074C8.456,33.074,4,37.53,4,43.288s4.493,10.213,10.69,10.213  c2.998,0,5.601-1.064,7.811-2.916l-2.209-3.63c-1.584,1.22-3.318,1.971-5.445,1.971c-2.842,0-4.85-1.384-5.482-3.868h13.687  c0.156-0.669,0.357-1.815,0.357-2.916C23.4,37.091,19.696,33.074,14.213,33.074z M9.363,41.317c0.595-2.447,2.403-3.943,4.657-3.943  c2.247,0,4.181,1.458,4.218,3.943H9.363z M40.889,26.499c-7.655,0-13.814,5.839-13.814,13.501s6.159,13.501,13.814,13.501  S54.785,47.662,54.785,40C54.785,32.345,48.551,26.499,40.889,26.499z M40.934,48.569c-4.858,0-8.369-3.519-8.369-8.569  c0-5.014,3.511-8.569,8.369-8.569c4.776,0,8.369,3.556,8.369,8.569C49.302,45.051,45.709,48.569,40.934,48.569z" fill="#E4102C"/>
</svg>