<?xml version="1.0" encoding="UTF-8" standalone="yes"?>
<svg viewBox="-0 0 113.4 113.4" version="1.2" xmlns="http://www.w3.org/2000/svg" baseProfile="tiny-ps"><title>Skistar.svg</title>
  <rect x="0" width="113.4" height="113.4" fill="#fff" stroke-width="0"/>
  <path d="M59.2,101.3h-5.1c-2.2-.8-3-2.5-2.9-4.7,0-3,0-5.9,0-8.9,0-.9.3-2.1-.8-2.5-1.1-.4-1.7.6-2.4,1.3-2.2,2.2-4.4,4.4-6.7,6.6-1.5,1.4-3.5,1.6-4.9.4-1.1-.9-2.1-1.9-3-3-1.2-1.4-1.2-3.5,0-4.8,5.2-5.2,10.2-10.4,15.6-15.4,1.9-1.7,2.5-3.4,2.1-5.7-.1-.8-.6-1.6-1.2-2.1-1.2-1.1-4.6-.8-5.8.4-5.4,5.5-10.8,11-16.2,16.5-1.8,1.8-3.8,1.8-5.6,0-.7-.6-1.3-1.3-2-2-1.8-1.9-1.8-3.9,0-5.8,2.3-2.3,4.6-4.5,6.8-6.8.6-.6,1.3-1.6,1.1-2.2-.2-1-1.5-.9-2.4-.9-3.4,0-6.8,0-10.2,0-1.5,0-2.6-.6-3.3-1.9-.3-.5-.4-1.2-.6-1.8,0-1,0-2.1,0-3.1,0,0,.1-.2.2-.3.6-2.4,1.7-3.3,4.1-3.3,3.3,0,6.6,0,9.9,0,.4,0,.7,0,1.1,0,1.4-.2,1.8-1,.9-2.2-.2-.3-.5-.5-.7-.8-2.4-2.4-4.7-4.7-7.1-7.1-1.6-1.6-1.6-3.7,0-5.4.6-.6,1.3-1.2,1.9-1.9,2.1-2.1,4.1-2.1,6.2,0,5.1,5.1,10.1,10.2,15.1,15.4,1.4,1.4,2.7,2.1,4.7,1.9,1.9-.2,3.1-1.2,3.2-3.2,0-.8,0-1.5,0-2.3,0-.5-.3-1.2-.7-1.5-3.2-3.2-6.5-6.3-9.7-9.5-2.4-2.3-4.7-4.6-7-7-1.8-1.8-1.7-3.9,0-5.6.5-.5,1-1,1.5-1.5,2.4-2.4,4.2-2.4,6.6,0,2.3,2.3,4.5,4.6,6.8,6.8.4.4,1.3.7,1.7.5.4-.2.7-1,.7-1.6,0-3.3,0-6.6,0-9.9,0-.5,0-1,.1-1.6.4-1.9,1.6-2.9,3.5-3,1,0,2.1,0,3.1,0,2.5,0,3.9,1.4,3.9,4,0,3.3,0,6.5,0,9.8,0,.3,0,.6,0,.8.2.5.3,1.3.7,1.5.4.2,1.1-.1,1.6-.4.6-.4,1-.9,1.5-1.4,2-2,4-4.1,6-6.1,1.5-1.5,3.6-1.6,5.1-.3,1,.8,1.9,1.7,2.8,2.7,1.4,1.5,1.4,3.6,0,5-5.2,5.2-10.4,10.4-15.7,15.5-1.5,1.4-2.2,2.7-2.1,4.7.1,1.5.4,2.9,1.9,3.3,1.6.4,3.5.9,5-.6,5.4-5.5,10.9-11.1,16.3-16.6,1.9-1.9,3.9-1.9,5.9,0,.6.6,1.3,1.2,1.9,1.9,1.7,1.7,1.7,3.8,0,5.5-2.3,2.4-4.7,4.7-7.1,7.1-.3.3-.5.5-.7.8-.7,1-.4,1.8.7,2,.4,0,.8,0,1.2,0,3.5,0,7,0,10.5,0,2.1,0,3.6,1.5,3.7,3.6,0,.8,0,1.7,0,2.5,0,2.8-1.4,4.2-4.2,4.3-3.3,0-6.6,0-9.9,0-.4,0-.8,0-1.1,0-.5.2-1.2.4-1.4.8-.2.3.3,1,.5,1.5.1.3.4.5.7.7,2.2,2.2,4.5,4.5,6.7,6.7,2,2,1.9,4,0,6-.5.5-1,1-1.5,1.5-2.1,2.1-4.1,2.1-6.2,0-5.4-5.5-10.8-10.9-16.2-16.4-.4-.4-.9-.8-1.4-.9-4-.7-5.5.6-5.5,4.7,0,.2,0,.4,0,.6.2.6.4,1.3.8,1.7,5.6,5.6,11.2,11.1,16.8,16.6,1.5,1.5,1.5,3.7,0,5.3-.6.7-1.3,1.3-2,1.9-2,2-4,2-6,0-2.3-2.3-4.6-4.7-7-7-.4-.4-1.3-.8-1.8-.6-.4.2-.7,1.1-.7,1.7,0,3.2,0,6.3,0,9.5,0,2.3-.6,4-2.8,4.9Z" fill="#ba0c2f" stroke-width="0"/>
</svg>