<?xml version="1.0" encoding="utf-8"?>
<!-- Generator: Adobe Illustrator 27.5.0, SVG Export Plug-In . SVG Version: 6.00 Build 0)  -->
<svg version="1.2" baseProfile="tiny-ps" id="Layer_1" xmlns="http://www.w3.org/2000/svg" xmlns:xlink="http://www.w3.org/1999/xlink"
	  viewBox="0 0 400 400" xml:space="preserve">
<title>J.D. Power</title>
<rect fill="#FFFFFF" width="400" height="400"/>
<g>
	<g>
		<path fill="#EE3941" d="M17.3,212.5c0,3.9,2.1,5.9,6.7,5.9c4.6,0,6.2-2,6.2-5.9v-37.1c0-1.4,0.5-2,1.9-2h6.8c1.4,0,1.9,0.6,1.9,2
			v38.9c0,6.6-3.6,12.7-16.8,12.7c-13.1,0-17.1-6.2-17.1-12.7v-4.7c0-1.4,0.5-2,2-2h6.6c1.4,0,1.9,0.5,1.9,2V212.5z"/>
		<path fill="#EE3941" d="M55.4,224.5c0,1.4-0.5,2-1.9,2h-6.6c-1.4,0-1.9-0.5-1.9-2v-6.3c0-1.4,0.5-2,1.9-2h6.6c1.4,0,1.9,0.6,1.9,2
			V224.5z"/>
		<path fill="#EE3941" d="M68.2,226.5c-1.2,0-1.6-0.7-1.6-2v-49c0-1.4,0.5-2,1.9-2h17c14.1,0,19,6.2,19,12.7v27.6
			c0,6.6-4.9,12.7-19,12.7H68.2z M77.1,182.2v35.6h8.3c5.3,0,8.5-1.9,8.5-5.8V188c0-3.9-3.2-5.9-8.5-5.9H77.1z"/>
		<path fill="#EE3941" d="M118.6,224.5c0,1.4-0.5,2-1.9,2h-6.6c-1.4,0-1.9-0.5-1.9-2v-6.3c0-1.4,0.5-2,1.9-2h6.6
			c1.4,0,1.9,0.6,1.9,2V224.5z"/>
		<path fill="#EE3941" d="M151.4,207.7v16.8c0,1.4-0.5,2-1.9,2h-6.8c-1.4,0-1.9-0.6-1.9-2v-49c0-1.4,0.5-2,1.9-2h16.4
			c14.1,0,18.9,6.2,18.9,12.7v8.8c0,6.6-4.8,12.7-18.9,12.7H151.4z M151.4,182.2v16.8h7.7c5.2,0,8.4-2,8.4-5.8V188
			c0-3.9-3.2-5.9-8.4-5.9H151.4z"/>
		<path fill="#EE3941" d="M186,185.5c0-6.6,4.8-12.7,19-12.7c14.1,0,19,6.2,19,12.7v28.9c0,6.6-4.8,12.7-19,12.7
			c-14.1,0-19-6.2-19-12.7V185.5z M213.4,187.4c0-3.9-3.2-5.9-8.4-5.9c-5.2,0-8.4,2-8.4,5.9v25.1c0,3.9,3.1,5.9,8.4,5.9
			c5.2,0,8.4-2,8.4-5.9V187.4z"/>
		<path fill="#EE3941" d="M274.7,201.9c0.6,2.6,1.2,7,1.3,7.7c0.1-0.6,0.5-4.2,1.4-7.6l6.7-26.6c0.3-1.2,0.9-2,2.3-2h5.9
			c1.4,0,1.8,0.7,1.5,2l-12.4,49.2c-0.3,1.3-1.1,2-2.4,2h-6.6c-1.2,0-1.9-0.7-2.2-2l-6.9-27.2c-0.5-1.7-1-6.2-1.1-7.1
			c-0.1,0.8-0.7,5.5-1.1,7.1l-6.9,27.2c-0.3,1.3-1,2-2.4,2h-6.6c-1.2,0-1.9-0.7-2.2-2l-12.4-49.2c-0.3-1.2,0.1-2,1.5-2h6.9
			c1.3,0,2,0.7,2.3,2l6.6,26.6c0.7,2.9,1.2,6.6,1.2,6.6s0.4-2.6,1.4-6.6l6.7-26.6c0.3-1.2,0.9-2,2.3-2h6.3c1.4,0,2,0.7,2.3,2
			L274.7,201.9z"/>
		<path fill="#EE3941" d="M302.9,226.5c-1.4,0-1.9-0.6-1.9-2v-49c0-1.4,0.5-2,1.9-2h26.7c1.3,0,2,0.5,2,1.9v4.9c0,1.4-0.6,2-2,2h-18
			v12.6h16.7c1.4,0,2,0.5,2,1.9v4.7c0,1.3-0.6,1.9-2,1.9h-16.7v14.5h18.8c1.4,0,1.9,0.5,1.9,1.9v4.9c0,1.4-0.5,1.9-1.9,1.9H302.9z"
			/>
		<path fill="#EE3941" d="M351.6,206.3v18.2c0,1.4-0.5,2-1.9,2h-6.8c-1.4,0-1.9-0.6-1.9-2v-49c0-1.4,0.5-2,1.9-2h16.4
			c14.1,0,18.9,6.2,18.9,12.7v7.4c0,4.6-2.3,9-8.6,11.2l8.4,19.7c0.5,1.2-0.4,2-1.8,2h-6.9c-1.1,0-1.4-0.8-2-2l-7.6-18.2h-0.5H351.6
			z M351.6,182.2v15.4h7.7c5.2,0,8.4-1.9,8.4-5.9V188c0-3.9-3.2-5.9-8.4-5.9H351.6z"/>
	</g>
	<g>
		<path fill="#EE3941" d="M383.6,178.5c0-0.9,0.2-1.7,0.6-2.5c0.4-0.8,1-1.4,1.7-1.8c0.7-0.4,1.5-0.7,2.4-0.7c0.9,0,1.6,0.2,2.4,0.7
			c0.7,0.4,1.3,1,1.7,1.8c0.4,0.8,0.6,1.6,0.6,2.5c0,0.9-0.2,1.7-0.6,2.5c-0.4,0.8-1,1.4-1.7,1.8c-0.7,0.4-1.5,0.7-2.4,0.7
			c-0.9,0-1.7-0.2-2.4-0.7c-0.7-0.4-1.3-1.1-1.7-1.8S383.6,179.4,383.6,178.5z M384.4,178.5c0,0.7,0.2,1.4,0.5,2.1
			c0.3,0.6,0.8,1.1,1.4,1.5c0.6,0.4,1.3,0.6,2,0.6c0.7,0,1.4-0.2,2-0.6c0.6-0.4,1.1-0.9,1.4-1.5c0.3-0.6,0.5-1.3,0.5-2.1
			s-0.2-1.4-0.5-2.1c-0.3-0.6-0.8-1.1-1.4-1.5c-0.6-0.4-1.3-0.6-2-0.6c-0.7,0-1.4,0.2-2,0.5s-1.1,0.9-1.4,1.5
			C384.6,177,384.4,177.7,384.4,178.5z M387.4,179v2.2h-1v-5.7h1.9c0.7,0,1.2,0.2,1.6,0.5c0.4,0.3,0.6,0.7,0.6,1.3
			c0,0.5-0.2,0.9-0.7,1.1c0.3,0.1,0.4,0.3,0.5,0.6c0.1,0.2,0.2,0.6,0.2,0.9c0,0.4,0,0.6,0,0.8c0,0.2,0,0.3,0.1,0.4v0.1h-1
			c-0.1-0.2-0.1-0.6-0.1-1.3c0-0.3-0.1-0.6-0.2-0.7c-0.1-0.1-0.4-0.2-0.7-0.2H387.4z M387.4,178.1h0.9c0.3,0,0.6-0.1,0.8-0.2
			c0.2-0.1,0.3-0.3,0.3-0.6c0-0.3-0.1-0.5-0.2-0.7c-0.2-0.1-0.4-0.2-0.9-0.2h-0.9V178.1z"/>
	</g>
</g>
</svg>
