<?xml version="1.0" encoding="utf-8"?>
<!-- Generator: Adobe Illustrator 25.4.1, SVG Export Plug-In . SVG Version: 6.00 Build 0)  -->
<svg version="1.2" baseProfile="tiny-ps" xmlns="http://www.w3.org/2000/svg" xmlns:xlink="http://www.w3.org/1999/xlink"
	  width="96px" height="96px" viewBox="0 0 288 288" xml:space="preserve">
<title>Living Libations</title>
<g id="Layer_1">
	<g>
		<path fill="#8C4400" d="M18.75,134.63h-8.55v-32.08h8.55V134.63z"/>
		<path fill="#8C4400" d="M22.48,108.3c-0.84-0.84-1.26-1.86-1.26-3.06c0-1.2,0.42-2.23,1.26-3.08c0.84-0.85,1.86-1.28,3.06-1.28
			c1.2,0,2.23,0.43,3.08,1.28s1.28,1.88,1.28,3.08c0,1.2-0.43,2.22-1.28,3.06c-0.85,0.84-1.88,1.26-3.08,1.26
			C24.34,109.56,23.32,109.14,22.48,108.3z M29.81,134.63h-8.55v-22.9h8.55V134.63z"/>
		<path fill="#8C4400" d="M30.26,111.72h8.73l2.43,5.9l2.38-5.9h8.73l-11.11,23.9L30.26,111.72z"/>
		<path fill="#8C4400" d="M54.16,108.3c-0.84-0.84-1.26-1.86-1.26-3.06c0-1.2,0.42-2.23,1.26-3.08c0.84-0.85,1.86-1.28,3.06-1.28
			c1.2,0,2.23,0.43,3.08,1.28s1.28,1.88,1.28,3.08c0,1.2-0.43,2.22-1.28,3.06c-0.85,0.84-1.88,1.26-3.08,1.26
			C56.02,109.56,55,109.14,54.16,108.3z M61.49,134.63h-8.55v-22.9h8.55V134.63z"/>
		<path fill="#8C4400" d="M63.83,125.04c0-2.55,0.18-4.51,0.54-5.9c0.66-2.55,1.85-4.53,3.56-5.94c1.71-1.41,3.78-2.12,6.21-2.12
			c3.57,0,6.33,1.47,8.28,4.41c0.9,1.35,1.47,2.74,1.71,4.16c0.24,1.43,0.36,3.22,0.36,5.38v9.58h-8.78v-10.85
			c0-1.08-0.11-1.87-0.34-2.36s-0.67-0.74-1.33-0.74c-0.66,0-1.1,0.25-1.33,0.74s-0.34,1.28-0.34,2.36v10.85h-8.55V125.04z"/>
		<path fill="#8C4400" d="M100.42,125.4v8.1c-1.17,0.36-2.28,0.54-3.33,0.54c-3,0-5.48-1.01-7.45-3.04
			c-1.97-2.02-2.95-4.64-2.95-7.85c0-3.45,1.14-6.33,3.42-8.64c2.28-2.31,5.11-3.46,8.51-3.46c2.4,0,4.54,0.58,6.41,1.73
			c1.87,1.16,3.29,2.75,4.25,4.79c0.93,2.04,1.39,4.53,1.39,7.47v1.62v6.84c0,3.51-1.24,6.41-3.71,8.71s-5.66,3.44-9.56,3.44
			c-1.38,0-2.69-0.26-3.92-0.77v-8.1c1.11,0.54,2.21,0.81,3.29,0.81c1.59,0,2.88-0.47,3.87-1.42c0.99-0.95,1.48-2.15,1.48-3.62
			v-7.52c0-1.83-0.24-3.17-0.72-4.03c-0.48-0.85-1.38-1.28-2.7-1.28c-0.93,0-1.71,0.3-2.34,0.9c-0.63,0.6-0.95,1.31-0.95,2.12
			c0,0.87,0.31,1.59,0.92,2.16c0.61,0.57,1.42,0.85,2.41,0.85C99.26,125.76,99.82,125.64,100.42,125.4z"/>
		<path fill="#33CC00" d="M121.75,134.63h-8.55v-32.08h8.55V134.63z"/>
		<path fill="#ED00A3" d="M125.35,108.3c-0.84-0.84-1.26-1.86-1.26-3.06c0-1.2,0.42-2.23,1.26-3.08c0.84-0.85,1.86-1.28,3.06-1.28
			c1.2,0,2.23,0.43,3.08,1.28s1.28,1.88,1.28,3.08c0,1.2-0.43,2.22-1.28,3.06c-0.85,0.84-1.88,1.26-3.08,1.26
			C127.21,109.56,126.19,109.14,125.35,108.3z M132.68,134.63h-8.55v-22.9h8.55V134.63z"/>
		<path fill="#33CC00" d="M135.25,102.54h8.55v18.04c0,2.07,0.24,3.59,0.72,4.54c0.48,0.96,1.38,1.44,2.7,1.44
			c0.9,0,1.68-0.33,2.34-0.99c0.66-0.66,0.99-1.46,0.99-2.39c0-0.99-0.32-1.81-0.97-2.47c-0.65-0.66-1.43-0.99-2.36-0.99
			c-0.45,0-1.08,0.17-1.89,0.5v-9.09c0.09,0,0.39-0.02,0.9-0.07c0.51-0.04,0.88-0.07,1.12-0.07c3.3,0,6.1,1.18,8.42,3.53
			c2.31,2.36,3.46,5.24,3.46,8.66c0,3.3-1.14,6.12-3.42,8.46c-2.34,2.4-5.18,3.6-8.5,3.6c-2.37,0-4.51-0.61-6.41-1.82
			c-1.91-1.22-3.32-2.87-4.25-4.97c-0.93-2.13-1.4-4.77-1.4-7.92v-1.71V102.54z"/>
		<path fill="#33CC00" d="M185.06,134.63h-8.55v-9.18c0-2.01-0.24-3.49-0.72-4.43c-0.48-0.95-1.38-1.42-2.7-1.42
			c-0.93,0-1.72,0.33-2.36,0.99c-0.65,0.66-0.97,1.44-0.97,2.34c0,0.96,0.32,1.76,0.95,2.39s1.42,0.94,2.38,0.94
			c0.45,0,1.02-0.13,1.71-0.4v8.91c-0.9,0.06-1.52,0.09-1.84,0.09c-3.3,0-6.1-1.15-8.39-3.44c-2.29-2.3-3.44-5.12-3.44-8.48
			c0-3.27,1.14-6.04,3.42-8.32c2.34-2.34,5.16-3.51,8.46-3.51c2.37,0,4.5,0.59,6.39,1.78c1.89,1.19,3.31,2.81,4.28,4.88
			c0.93,2.1,1.39,4.68,1.39,7.74v1.66V134.63z"/>
		<path fill="#33CC00" d="M199.87,121.4h-3.78c-0.03,0.18-0.04,0.45-0.04,0.81c0,2.52,1.09,3.78,3.28,3.78h0.54v9.27
			c-0.27,0.03-0.67,0.04-1.21,0.04c-3.3,0-6.01-1.13-8.14-3.4c-2.13-2.26-3.2-5.27-3.2-9.02v-19.71h8.78v8.55h3.78V121.4z"/>
		<path fill="#33CC00" d="M203.74,108.3c-0.84-0.84-1.26-1.86-1.26-3.06c0-1.2,0.42-2.23,1.26-3.08s1.86-1.28,3.06-1.28
			c1.2,0,2.23,0.43,3.08,1.28c0.86,0.85,1.28,1.88,1.28,3.08c0,1.2-0.43,2.22-1.28,3.06c-0.85,0.84-1.88,1.26-3.08,1.26
			C205.6,109.56,204.58,109.14,203.74,108.3z M211.07,134.63h-8.55v-22.9h8.55V134.63z"/>
		<path fill="#33CCCC" d="M213.19,123.2c0-2.4,0.67-4.62,2.02-6.66c1.14-1.74,2.59-3.08,4.34-4.03c1.75-0.94,3.65-1.42,5.69-1.42
			c3.3,0,6.15,1.2,8.55,3.6c2.37,2.37,3.55,5.21,3.55,8.5c0,3.3-1.18,6.14-3.55,8.51c-2.37,2.37-5.22,3.55-8.55,3.55
			c-3.3,0-6.14-1.18-8.5-3.55C214.37,129.33,213.19,126.5,213.19,123.2z M222.14,123.2c0,0.84,0.3,1.57,0.9,2.18
			c0.6,0.62,1.33,0.92,2.21,0.92s1.61-0.31,2.23-0.92c0.61-0.61,0.92-1.34,0.92-2.18c0-0.84-0.31-1.57-0.92-2.2
			c-0.62-0.63-1.36-0.95-2.23-0.95s-1.61,0.31-2.21,0.92C222.44,121.59,222.14,122.33,222.14,123.2z"/>
		<path fill="#33CC00" d="M239.65,125.04c0-2.55,0.18-4.51,0.54-5.9c0.66-2.55,1.84-4.53,3.55-5.94c1.71-1.41,3.78-2.12,6.21-2.12
			c3.57,0,6.33,1.47,8.28,4.41c0.9,1.35,1.47,2.74,1.71,4.16c0.24,1.43,0.36,3.22,0.36,5.38v9.58h-8.78v-10.85
			c0-1.08-0.11-1.87-0.34-2.36c-0.23-0.5-0.67-0.74-1.33-0.74s-1.1,0.25-1.33,0.74s-0.34,1.28-0.34,2.36v10.85h-8.55V125.04z"/>
		<path fill="#33CC00" d="M262.46,134.54v-9.14c1.83,0,3.01-0.31,3.55-0.94s0.86-1.85,0.95-3.65c0.36-6.06,3.29-9.09,8.77-9.09h3.42
			v9.18c-0.06,0-0.15-0.01-0.27-0.02c-0.12-0.01-0.2-0.02-0.22-0.02c-1.02,0-1.76,0.36-2.21,1.08c-0.33,0.51-0.54,1.38-0.63,2.61
			c-0.09,1.23-0.21,2.13-0.36,2.7c-0.6,2.22-1.87,4-3.8,5.35c-1.93,1.35-4.3,2.02-7.09,2.02
			C264.18,134.63,263.48,134.6,262.46,134.54z"/>
	</g>
</g>
<g id="Layer_2">
	<g>
		<path fill="#33CC00" d="M93.59,164.71c-2.65,1.1-4.76,2.09-6.34,2.97c-1.58,0.88-2.8,1.75-3.68,2.61
			c-0.86,0.86-1.74,2.08-2.61,3.65s-1.88,3.71-3.01,6.44h-0.9c-1.14-2.72-2.15-4.87-3.03-6.44s-1.74-2.78-2.59-3.65
			c-0.88-0.86-2.11-1.74-3.68-2.61c-1.58-0.88-3.7-1.87-6.36-2.97v-0.9c2.68-1.1,4.81-2.09,6.38-2.97s2.79-1.75,3.66-2.62
			c0.85-0.86,1.71-2.08,2.59-3.65s1.89-3.71,3.03-6.44h0.9c1.13,2.72,2.13,4.87,3.01,6.44s1.75,2.78,2.61,3.65
			c0.85,0.87,2.06,1.74,3.64,2.62c1.57,0.88,3.7,1.87,6.38,2.97V164.71z"/>
		<path fill="#ED00A3" d="M132.39,160.42l-10.46,7.6l4.02,12.35l-10.48-7.62l-10.5,7.62l4.02-12.35l-10.44-7.6h12.9l4.02-12.28
			l4,12.28H132.39z"/>
		<path fill="#33CCCC" d="M148.46,147.3c0.7,2.99,1.5,5.37,2.39,7.14c0.89,1.77,2.26,3.69,4.09,5.76l0.79,0.88
			c2.39,2.67,3.58,5.33,3.58,8c0,2.94-1.07,5.47-3.2,7.58c-2.13,2.11-4.68,3.16-7.66,3.16c-2.96,0-5.5-1.05-7.64-3.16
			c-2.13-2.11-3.2-4.64-3.2-7.58c0-2.67,1.19-5.33,3.58-8l0.79-0.88c1.83-2.07,3.19-3.98,4.09-5.76
			C146.98,152.67,147.77,150.29,148.46,147.3z"/>
		<path fill="#FF6600" d="M175.94,166.26l-10.94-2.2l10.94-2.2l-6.17-9.29l9.29,6.17l2.2-10.94l2.2,10.94l9.29-6.17l-6.2,9.29
			l10.96,2.2l-10.96,2.2l6.2,9.29l-9.29-6.17l-2.2,10.94l-2.22-10.94l-9.27,6.17L175.94,166.26z"/>
		<path fill="#8C4400" d="M228.54,164.33c0,3.49-1.24,6.47-3.71,8.94c-2.48,2.48-5.46,3.71-8.94,3.71s-6.47-1.24-8.94-3.71
			c-2.48-2.47-3.71-5.46-3.71-8.94s1.24-6.47,3.71-8.94s5.46-3.71,8.94-3.71s6.47,1.24,8.94,3.71
			C227.3,157.87,228.54,160.85,228.54,164.33z"/>
	</g>
</g>
</svg>
