<?xml version="1.0" encoding="utf-8"?>
<!-- Generator: Adobe Illustrator 28.3.0, SVG Export Plug-In . SVG Version: 6.00 Build 0)  -->
<svg version="1.2" baseProfile="tiny-ps" id="Layer_1" xmlns="http://www.w3.org/2000/svg" xmlns:xlink="http://www.w3.org/1999/xlink" viewBox="0 0 150 150" xml:space="preserve">
    <title>Samaritan's Purse International Relief</title>
<rect fill="#F2F2F2" width="150" height="150"/>
<g>
	<g>
		<path fill="#827A04" d="M117.7,54.5c-7.6-10.3-22.4-18.4-35-18.6c-26-0.3-35.9,16.2-39.5,29.4c-6.9,2.2-13.1,4.5-18.3,6.6
			c2.6-23.2,22.6-45.7,49.7-45.6c19.7,0.1,36.6,11.5,43.9,27.9c0,0,0.6,1.3,0.2,1.4C118.5,55.6,117.7,54.5,117.7,54.5z"/>
		<path fill="#827A04" d="M106.6,80c-0.2,3.6-1.4,8.4-1.4,8.4c-3.4,12.9-14.9,26.5-37.5,26C55.1,114,40.2,105.9,33,95.5
			c0,0-0.5-0.9-0.8-0.7c-0.2,0.1,0.2,1.1,0.2,1.1c6.9,16.4,23.6,28,43.1,28c26,0,45.3-19.2,49.5-40.5
			C119.3,81.9,113.1,80.8,106.6,80z"/>
	</g>
	<path fill="#041C2C" d="M107.6,73.2c-6-4.6-16.3-7.5-27.9-8.2l1.2-16.8c0,0,0-0.3-0.1-0.5c-0.1-0.2-0.4-0.3-0.7-0.3
		c-4.4-0.6-8.4-0.2-10,0c-0.2,0-0.5,0.1-0.6,0.3c-0.1,0.2-0.1,0.5-0.1,0.5l1.2,16.9c-11,0.9-21.3,4-26.7,8.1
		c-0.2,0.1-0.3,0.4-0.2,0.7c0.1,0.2,0.3,0.4,0.5,0.3c9.8-1.9,20.1-2.7,26.8-2.9l2.6,36.5c0,0,0,0.4,0.3,0.5c0.4,0.2,1.3,0.5,2.3,0
		c0.3-0.1,0.3-0.5,0.3-0.5l2.6-36.5c6.3,0.1,17,0.7,28.1,2.8c0.2,0,0.4-0.1,0.5-0.3C107.8,73.6,107.8,73.3,107.6,73.2z"/>
	<path fill="#041C2C" d="M113.9,118.1c0-3.1,2.5-5.7,5.5-5.7c3.1,0,5.5,2.6,5.5,5.7c0,3.1-2.5,5.7-5.5,5.7
		C116.4,123.8,113.9,121.2,113.9,118.1z M124.3,118.1c0-2.8-2.1-5-4.8-5c-2.7,0-4.8,2.2-4.8,5c0,2.8,2.1,5,4.8,5
		C122.2,123,124.3,120.8,124.3,118.1z M118.3,118.3v3h-0.8v-6.7h2.1c1.5,0,2,0.5,2,1.7c0,0.8-0.3,1.4-1.3,1.6v0
		c1,0.2,1.1,0.3,1.1,2.6c0,0.3,0,0.5,0.1,0.8h-0.8c-0.1-0.2-0.1-1.3-0.1-1.6c0-0.3,0.2-1.4-1.2-1.4H118.3z M118.3,117.6h1
		c0.9,0,1.4-0.2,1.4-1.3c0-0.8-0.4-1-1.1-1h-1.3V117.6z"/>
</g>
</svg>
