<?xml version="1.0" encoding="utf-8"?>
<!-- Generator: Adobe Illustrator 24.1.0, SVG Export Plug-In . SVG Version: 6.00 Build 0)  -->
<svg version="1.2" baseProfile="tiny-ps"
	 id="svg22" xmlns:cc="http://creativecommons.org/ns#" xmlns:dc="http://purl.org/dc/elements/1.1/" xmlns:inkscape="http://www.inkscape.org/namespaces/inkscape" xmlns:rdf="http://www.w3.org/1999/02/22-rdf-syntax-ns#" xmlns:sodipodi="http://sodipodi.sourceforge.net/DTD/sodipodi-0.dtd" xmlns:svg="http://www.w3.org/2000/svg"
	 xmlns="http://www.w3.org/2000/svg" xmlns:xlink="http://www.w3.org/1999/xlink" viewBox="0 0 216 216"
	 xml:space="preserve">
   <title>BIMI Group</title>
<rect fill="#FFFFFF" width="216" height="216"/>
<path fill="#FFDB00" d="M216,116.2c-5.2,0-20.7-0.1-25.6,0.4c-8.7-0.1-29.5,2.8-43,2.1c-2.4-0.1-4.4-0.5-5.5-0.6
	c-4.8-0.6-11.6-4.4-9.6-9.8c3.8-1.8,6.9-4.4,10.3-6.6c1.8-1.4,6.1-6.9,6.6-7.5c0.6-0.7,3.5-4.2,4-4.9c5.4-7.4,13.7-25.4,2.8-23.4
	c-1.8,0.4-4,1.9-5.2,3.4c-0.6,0.8-2,2.2-5.3,6.5c-4.7,7.4-12.9,17.3-15.1,30c-5.1,3.9-12.5,8-19.8,9.6c-4.9,0.9-4.2,0.9-8.1,1.3
	c-11.4,1.4-25.6,0.6-36.8,0.5c-3.5,0-14.4-0.1-17.9-0.1c-6.9,0-18.7,0.5-22.9,0.6c-8,0.2-16.8-0.4-24.7-0.8v2.4
	c6.4,0.2,23.4,0.7,34.2,0.2c12.1-0.6,28.3,0.2,36,0.2c2,0,12.7,0,14.9,0c4.8-0.1,12.1,0.2,16.9-0.4c2.9-0.3,6.4-0.9,5.8-0.9
	c0.4-0.1,2-0.5,2.5-0.6c5.1-0.6,19.1-7.9,19.2-8.3c-1.5,8.3,7.4,9.8,11.1,10.9c8.4,1,8.6,0.7,14,0.6c5.1-0.1,21.3-1.8,23.4-1.8
	c7.4-0.1,14.4-0.9,22.1-1c0.3-0.1,7.4-0.1,15.9-0.1V116.2z M146.1,79.7c1.5-2.2,1.4-1.8,2.9-4c0.5-0.7,1.4-2,1.9-2.7
	c1.2-1.6,4.6-6.2,7.1-4.9c3.2,1.6-1.8,11.8-3.7,15.2c-0.6,0.5-1.1,1.8-1.6,2.3c-2.1,3.7-3.1,5.1-6,8.3c-3.4,3.7-7.1,7.3-11.8,9.8
	l-2.3,1.5c2.7-9.7,7.7-16.6,12.3-23.9C143.8,82.7,146.1,79.6,146.1,79.7z"/>
<g>
	<path fill="#363636" d="M28,89.8c-2.4,0-4.6,0.8-6.7,2.4L23.9,80H19l-5.6,26.8l-0.1,0.3c-0.4,1.6-0.8,3.3-1.5,5l-0.3,0.8h4.7
		l0.2-0.4c0.3-0.7,0.6-1.5,0.8-2.3c1.8,2.1,4.6,3.2,7.8,3.2c7.6-0.1,12.4-7,12.4-13.5C37.2,94.1,33.4,89.8,28,89.8z M32,100.3
		c0,4.3-2.8,8.9-7.4,8.9c-2.3,0-4.8-1.1-6.2-2.9l1.8-8.8c2-2.1,4.6-3.4,6.9-3.4C30,94.2,32,96.6,32,100.3z"/>
	<path fill="#363636" d="M56.4,91.1c-0.6-0.8-2-1.3-3.7-1.3c-2.4,0-4.1,1.4-5.6,3c0-0.6,0.1-1.1,0-1.8l0-0.6h-4.5v0.6
		c0,1.7-0.2,3.4-0.6,5.3l-3.5,16.6h4.9l3.2-14.8c1.3-1.4,3.6-3.6,5.7-3.6c0.7,0,1.9,0.3,2.4,0.7l0.8,0.6l1.1-4.6L56.4,91.1z"/>
	<path fill="#363636" d="M88.3,90.4l-0.2,0.3c-0.4,0.7-0.7,1.6-1,2.3c-1.9-2.1-4.7-3.3-7.7-3.3c0,0-0.1,0-0.1,0
		c-7.6,0.1-12.3,7.1-12.3,13.5c0,6,3.9,10.3,9.3,10.3c2.3,0,4.5-0.8,6.6-2.4l-2,7.6c-0.6,3-3,4.8-6.5,4.8c-3,0-6-1.2-7.6-3l-0.5-0.6
		l-2.7,3.5L64,124c2.4,2.5,6,3.9,10.2,3.9c6,0,10.4-3.2,11.5-8.4L91,96.6c0.4-2.1,1-3.8,1.6-5.3l0.4-0.9H88.3z M77.3,109.2
		c-3,0-5-2.4-5-6.1c0-4.3,2.8-8.9,7.4-8.9c2.7,0,5.1,1.4,6.3,2.9l-1.9,8.8C82.2,107.9,79.6,109.2,77.3,109.2z"/>
	<path fill="#363636" d="M108.9,89.8c-2.2,0-4.4,0.8-6.8,2.6l2.7-12.4h-4.9l-7,33h4.9l3.3-15.4c1.7-1.6,3.9-3.4,6.7-3.4
		c1.9,0,3.9,0.8,3.9,3.1c0,0.6-0.1,1.5-0.4,2.5l-2.7,13.1h4.9l2.6-12.5c0.3-1.3,0.5-2.2,0.5-3.3C116.5,92.9,113.3,89.8,108.9,89.8z"
		/>
	<path fill="#363636" d="M128.9,94.5h6.4l0.8-4h-6.4l1.4-6.4h-4.9l-1.4,6.4h-4.1l-0.9,4h4.2l-2.6,12.2c-0.2,0.7-0.2,1.4-0.2,1.9
		c0,3.2,2.1,5.1,5.6,5.1c1.5,0,3.9-0.4,5-1l0.3-0.2l0.2-4.2l-0.9,0.4c-0.6,0.3-2.4,0.5-3.2,0.5c-1.3,0-2-0.5-2-1.4
		c0-0.3,0.1-0.8,0.2-1.2L128.9,94.5z"/>
	<g>
		<polygon fill="#363636" points="144.2,80 137.2,112.9 140.6,112.9 147.6,80 		"/>
		<polygon fill="#363636" points="151.7,91.3 147.2,112.9 150.6,112.9 155.1,91.3 		"/>
	</g>
	<path fill="#363636" d="M171.8,90.7c-3.2,0-6,1.6-7.9,3c0-0.6,0-1.2-0.1-1.9l-0.1-0.5h-3.2l0.1,0.7c0.1,1.4,0,2.7-0.3,4.2
		l-3.5,16.8h3.4l3.3-15.6c1.8-1.6,4.6-3.5,7.6-3.5c2.5,0,5.1,1.2,5.1,4c0,0.8-0.3,2.1-0.4,2.5l-2.6,12.6h3.4l2.6-12.2l0-0.2
		c0.2-1,0.4-1.8,0.4-2.8C179.6,93.6,176.4,90.7,171.8,90.7z"/>
	<path fill="#363636" d="M194.9,90.7c-6.8,0-12.6,5.8-12.6,12.7c0,6,4.3,10.1,10.5,10.1c3.5,0,6.7-1,9.7-3.1l0.5-0.4l-1.9-2.5
		l-0.5,0.3c-2.3,1.6-4.8,2.5-7.4,2.5c-4.4,0-7.5-3-7.5-7.2c0-0.3,0-0.5,0-0.8h19.1l0.1-0.5c0.1-0.6,0.1-1.2,0.1-1.8
		C205,94.4,201.1,90.7,194.9,90.7z M186.4,99.5c1.5-3.5,4.8-5.8,8.6-5.8c2.1,0,3.9,0.7,5.1,1.9c0.9,1,1.4,2.3,1.4,3.8H186.4z"/>
	<g>
		<polygon fill="#363636" points="55.6,112.9 60.5,112.9 65.2,90.4 60.4,90.4 		"/>
		<circle fill="#363636" cx="63.9" cy="85" r="2.9"/>
	</g>
	<circle fill="#363636" cx="154.3" cy="85" r="2.1"/>
</g>
</svg>
