<?xml version="1.0" encoding="iso-8859-1"?>
<!-- Generator: Adobe Illustrator 29.0.0, SVG Export Plug-In . SVG Version: 9.03 Build 54978)  -->
<svg version="1.2" xmlns:xlink="http://www.w3.org/1999/xlink" width="841.89px" height="595.28px" viewBox="0 0 841.89 595.28" baseProfile="tiny-ps" xmlns="http://www.w3.org/2000/svg">
  <title>MAKINO SEIKI</title>
<g>
	<path fill="#0097D2" stroke="#0097D2" stroke-width="0.0058" d="M60.271,220.584c0.096-3.331,2.787-6.005,6.15-6.005   c3.173,0,5.768,2.437,6.088,5.54v39.231h28.83v-38.766c0-3.314,2.722-6.005,6.053-6.005c3.3,0,5.957,2.648,6.023,5.943v38.793   l31.232,0.044l0.031-52.083c0-7.267-5.861-13.176-13.133-13.176h-20.435c-3.844,0-7.272,1.648-9.674,4.278   c-2.402-2.63-5.864-4.278-9.704-4.278c-0.259,0-21.11,0-21.369,0c-4.165,0-7.847,1.938-10.279,4.945l-1.315-4.98H30.867v65.251   h29.404V220.584z" />
	<polygon fill="#0097D2" stroke="#0097D2" stroke-width="0.0058" points="272.389,232.892 285.588,259.359 319.734,259.359    299.553,218.55 319.444,194.117 281.485,194.117 272.389,204.041 272.389,158.735 240.645,158.735 240.645,259.359    272.389,259.359  " />
	<rect x="451.514" y="273.236" fill="#0097D2" stroke="#0097D2" stroke-width="0.0058" width="70.888" height="166.753" />
	<rect x="750.31" y="273.236" fill="#0097D2" stroke="#0097D2" stroke-width="0.0058" width="70.913" height="166.787" />
	<polygon fill="#0097D2" stroke="#0097D2" stroke-width="0.0058" points="646.556,273.298 611.095,312.31 611.095,194.021    540.216,194.021 540.216,440.085 611.095,440.085 611.095,356.644 651.78,440.103 731.057,440.103 680.867,331.712    732.363,273.298  " />
	<path fill="#0097D2" stroke="#0097D2" stroke-width="0.0058" d="M216.62,194.143c-0.32,0-61.406,0-61.406,0v13.01l31.521,0.026   c0-2.525,2.787-5.602,5.895-5.602c3.072,0,5.51,2.463,5.54,5.54v7.592c0,0-29.47,0-29.758,0c-7.273,0-13.164,5.891-13.164,13.167   c0,0.412,0,18.033,0,18.445c0,6.637,4.901,12.203,11.274,13.106l20.339,0.062c4.615,0,8.683-2.385,11.019-5.988   c2.372,3.603,6.408,5.988,11.051,5.988c0.193,0,20.887,0,20.887,0V207.18C229.752,199.973,223.861,194.143,216.62,194.143z    M186.927,226.019c0-3.111,2.529-5.61,5.606-5.61c3.074,0,5.571,2.472,5.607,5.532l-0.065,16.7c0,3.112-2.499,5.61-5.607,5.61   c-2.945,0-5.317-2.279-5.54-5.163V226.019z" />
	<path fill="#0097D2" stroke="#0097D2" stroke-width="0.0058" d="M464.55,259.376c0.516,0,44.368-0.044,44.394-0.044   c7.302,0,13.194-5.944,13.194-13.229c0-0.403,0-38.889,0-38.889l0,0c0-7.268-5.893-13.185-13.194-13.185   c-0.025,0-44.684,0.017-44.684,0.017c-7.171,0.132-12.938,5.979-12.938,13.168c0,0.411,0.035,38.985,0.035,38.985   C451.356,253.486,457.283,259.376,464.55,259.376z M481.144,216.411c0-3.094,2.622-5.611,5.735-5.611   c2.682,0,4.961,1.92,5.47,4.489v21.944c-0.192,2.91-2.682,5.251-5.662,5.251c-3.078,0-5.542-2.481-5.611-5.54L481.144,216.411z" />
	<path fill="#0097D2" stroke="#0097D2" stroke-width="0.0058" d="M763.381,259.412c0.509,0,44.394-0.053,44.428-0.053   c7.267,0,13.169-5.935,13.169-13.229c0-0.395,0.025-38.88,0.025-38.88h-0.025c0-7.276-5.902-13.185-13.169-13.185   c-0.034,0-44.719,0.018-44.719,0.018c-7.18,0.131-12.947,5.97-12.947,13.167c0,0.412,0.035,38.977,0.035,38.977   C750.177,253.52,756.103,259.412,763.381,259.412z" />
	<polygon fill="#0097D2" stroke="#0097D2" stroke-width="0.0058" points="357.5,194.021 328.158,194.021 328.158,259.394    357.531,259.394  " />
	<path fill="#0097D2" stroke="#0097D2" stroke-width="0.0058" d="M427.587,194.143h-0.036v-0.079h-20.562v0.079   c-3.94,0.053-7.465,1.824-9.837,4.629l-1.503-4.751h-27.098v65.373h28.829V220.68l0.031-0.044c0-3.331,2.691-6.023,6.023-6.023   c3.296,0,5.987,2.656,6.023,5.961v38.784l31.195,0.053l0.062-52.1C440.713,200.044,434.857,194.143,427.587,194.143z" />
	<path fill="#0097D2" stroke="#0097D2" stroke-width="0.0058" d="M433.734,300.125c0-15.228-12.333-27.616-27.548-27.616   L271.14,272.5h-0.031c-15.215,0-27.549,12.326-27.549,27.527h-0.096c0,0,0.065,112.434,0.065,112.496   c0,15.235,12.33,27.562,27.58,27.562c0.254,0,133.157-0.025,133.157-0.025l0,0c0,0,0.031,0,0.062,0   c15.184,0,27.548-12.354,27.548-27.58c0-0.036,0-0.062,0-0.098h0.069v-24.406h-77.938l-0.32,3.779l0,0   c0,7.732-5.861,14.088-13.392,14.894h-3.169c-7.531-0.806-13.391-7.162-13.391-14.894l-0.062-24.204c0,0,81.806,0.051,82.512,0.051   c15.216,0,27.548-12.334,27.548-27.562C433.734,339.927,433.734,300.282,433.734,300.125z M323.675,319.069   c0-8.248,6.693-14.956,14.956-14.956c8.044,0,14.61,6.374,14.93,14.317v24.793h-29.885V319.069z" />
	<path fill="#0097D2" stroke="#0097D2" stroke-width="0.0058" d="M197.53,341.459v-0.016l-84.66-0.027l0.031-23.643   c0.67-7.636,7.078-13.623,14.894-13.623c8.232,0,14.991,6.626,15.087,14.807l0.224,1.928l79.855-0.036V300.01h-0.03   c-0.127-15.087-12.365-27.335-27.484-27.388c0,0-136.265-0.096-136.904-0.096c-15.185,0-27.515,12.256-27.58,27.422h-0.066   l-0.031,39.942c0.031,15.237,12.462,27.555,27.677,27.555c0.096,0,84.274-0.018,84.274-0.018l0.035,25.782   c-0.803,7.514-7.176,13.378-14.895,13.378c-8.267,0-14.96-6.697-14.96-14.965l0.062-0.016h-0.093l-0.035-3.568l-81.841-0.062   c0,0-0.991,10.932-0.224,24.504c0.833,15.21,12.331,27.58,27.55,27.58c0.188,0,138.698,0.025,138.952,0.025   c15.249,0,27.58-12.361,27.58-27.58c0-0.043,0.035-43.587,0.035-43.587h-0.035C224.887,353.795,212.649,341.539,197.53,341.459z" />
	<path fill="#0097D2" stroke="#0097D2" stroke-width="0.0058" d="M327.611,182.905c0,2.051,1.666,3.717,3.717,3.725v0.018   c0,0,22.934-0.018,22.969-0.018c2.082,0,3.748-1.674,3.748-3.725c0-0.29,0-20.119,0-20.409c0-2.051-1.666-3.725-3.748-3.725   c-0.035,0-22.71-0.071-22.902-0.071c-2.052,0-3.814,1.683-3.814,3.753C327.58,162.654,327.611,182.581,327.611,182.905z" />
</g>
</svg>