<svg xmlns="http://www.w3.org/2000/svg" xmlns:xlink="http://www.w3.org/1999/xlink" version="1.2" width="1080px" height="1080px" viewBox="0 0 1080 1080" baseProfile="tiny-ps">
  <title>Chaos</title>
  <g>
    <path d="M0,1080h1080V0H0V1080z" fill="#E1161C"/>
    <g>
      <path d="M896.231,618.8c33.535,0,67.492-18.423,67.492-53.643c0-26.807-24.819-41.462-49.41-44.1    c-19.173-2.171-35.379-9.487-35.379-15.956c0-9.99,10.829-11.479,17.296-11.479c6.115,0,20.36,1.392,20.36,14.276    c0,1.109,0.815,2.005,1.808,2.005h41.714c1,0,1.808-0.896,1.808-2.005c0-31.589-27.013-53.65-65.691-53.65    c-38.07,0-65.705,21.861-65.705,51.969c0,26.05,32.521,43.894,63.123,47.456c13.555,1.695,21.665,8.033,21.665,13.166    c0,8.178-9.835,12.587-19.083,12.587c-3.644,0-21.789-0.689-21.789-14.269c0-1.116-0.814-2.012-1.815-2.012h-42.08    c-1,0-1.808,0.896-1.808,2.012C828.739,600.378,862.695,618.8,896.231,618.8z" fill="#FFFFFF"/>
      <path d="M298.733,614.306h40.799c1.118,0,2.016-0.896,2.016-2.005v-76.067    c0-19.816,10.312-39.818,33.359-39.818c23.046,0,33.358,20.14,33.358,40.101V612.3c0,1.109,0.897,2.005,2.016,2.005h40.806    c1.105,0,2.009-0.896,2.009-2.005v-75.784c0-46.915-33.614-82.282-78.189-82.282c-12.231,0-23.682,3.872-33.359,11.238v-83.267    c0-1.109-0.897-2.005-2.016-2.005h-40.799c-1.111,0-2.015,0.896-2.015,2.005V612.3    C296.718,613.41,297.622,614.306,298.733,614.306z" fill="#FFFFFF"/>
      <path d="M551.449,618.8c15.15,0,29.933-7.724,40.534-20.932l0.173,14.462    c0.014,1.102,0.911,1.984,2.008,1.984h38.09c1.105,0,2.002-0.903,2.002-2.005v-75.783c0-45.37-37.138-82.28-82.808-82.28    c-45.648,0-82.8,36.91-82.8,82.28C468.649,581.891,505.801,618.8,551.449,618.8z M552.27,496.428    c21.388,0,38.795,17.99,38.795,40.099c0,22.11-17.406,40.1-38.795,40.1c-21.388,0-38.795-17.99-38.795-40.1    C513.476,514.418,530.882,496.428,552.27,496.428z" fill="#FFFFFF"/>
      <path d="M732.894,618.8c45.807,0,83.084-36.909,83.084-82.273c0-45.37-37.277-82.28-83.084-82.28    c-45.807,0-83.084,36.91-83.084,82.28C649.81,581.891,687.087,618.8,732.894,618.8z M732.894,496.428    c21.092,0,38.257,17.99,38.257,40.099c0,22.11-17.165,40.1-38.257,40.1c-21.092,0-38.25-17.99-38.25-40.1    C694.644,514.418,711.802,496.428,732.894,496.428z" fill="#FFFFFF"/>
      <path d="M231.505,611.957c34.416-14.931,53.432-50.503,48.87-85.886c-0.306-2.406-2.866-3.84-5.106-2.874    l-34.43,14.945c-1.226,0.537-2.029,1.693-2.179,3.025c-1.62,13.756-10.308,26.309-23.951,32.235    c-21.187,9.195-45.956-1.217-53.963-23.23c-7.026-19.343,2.077-41.275,20.724-50.028c13.93-6.538,29.576-4.432,41.061,4.003    c1.083,0.788,2.479,1.006,3.704,0.462l34.43-14.939c2.233-0.965,2.927-3.819,1.388-5.681    c-23.747-28.579-65.046-38.651-100.429-20.96c-37.738,18.873-55.127,64.069-39.781,103.311    C138.939,610.068,188.783,630.498,231.505,611.957z" fill="#FFFFFF"/>
    </g>
  </g>
</svg>