<?xml version="1.0" encoding="UTF-8" standalone="yes"?>
<svg width="540" height="540" viewBox="0 0 540 540" fill="none" version="1.2" baseProfile="tiny-ps" xmlns="http://www.w3.org/2000/svg">
  <title>resend-logo-bimi</title>
  <path d="M0 0H540V540H0V0Z" fill="black"/>
  <path d="M65.2332 312.924V228.66H99.5907C118.156 228.66 130.573 239.614 130.573 256.708C130.573 267.542 124.907 276.209 116.106 280.422L132.743 312.924H112.731L98.5058 284.635H83.3161V312.924H65.2332ZM98.144 243.707H83.3161V269.588H98.144C106.703 269.588 112.128 264.532 112.128 256.708C112.128 248.763 106.703 243.707 98.144 243.707ZM168.695 313.646C148.081 313.646 135.664 301.247 135.664 282.107C135.664 262.847 148.322 250.328 167.49 250.328C186.055 250.328 198.593 261.884 198.834 280.061C198.834 281.867 198.713 283.913 198.351 285.839H153.385V286.682C153.747 295.469 159.413 300.766 167.972 300.766C174.844 300.766 179.666 297.757 181.112 291.978H197.869C195.94 304.016 185.211 313.646 168.695 313.646ZM153.747 274.764H181.715C180.51 267.18 175.326 262.967 167.611 262.967C160.257 262.967 154.712 267.421 153.747 274.764ZM204.759 292.339H220.913C221.515 297.756 226.217 301.488 234.535 301.488C241.648 301.488 245.988 299.201 245.988 294.867C245.988 289.812 241.768 289.45 231.763 288.126C217.296 286.441 206.085 283.191 206.085 270.431C206.085 258.152 216.814 250.087 232.727 250.207C249.363 250.207 260.816 257.55 261.659 270.19H245.385C244.903 265.254 240.201 262.245 233.33 262.245C226.699 262.245 222.359 264.653 222.359 268.625C222.359 273.32 227.664 273.801 236.585 274.885C250.81 276.329 262.624 279.579 262.624 293.543C262.624 305.822 251.051 313.646 234.415 313.646C217.176 313.646 205.482 305.581 204.759 292.339ZM302.198 313.646C281.584 313.646 269.167 301.247 269.167 282.107C269.167 262.847 281.825 250.328 300.993 250.328C319.558 250.328 332.095 261.884 332.336 280.061C332.336 281.867 332.216 283.913 331.854 285.839H286.888V286.682C287.249 295.469 292.915 300.766 301.475 300.766C308.346 300.766 313.168 297.757 314.615 291.978H331.372C329.443 304.016 318.714 313.646 302.198 313.646ZM287.249 274.764H315.218C314.012 267.18 308.829 262.967 301.113 262.967C293.76 262.967 288.214 267.421 287.249 274.764ZM377.188 250.328C390.57 250.328 402.023 257.43 402.023 278.617V312.924H385.025V280.302C385.025 269.829 381.045 264.292 372.486 264.292C363.686 264.292 358.622 270.551 358.622 281.265V312.924H341.625V251.05H356.453L358.022 258.754C361.998 253.939 367.666 250.328 377.188 250.328ZM457.464 258.754V228.66H474.462V312.924H459.633L457.945 304.377C453.846 309.674 447.82 313.646 438.898 313.646C422.262 313.646 410.087 301.488 410.087 281.867C410.087 262.727 422.262 250.328 438.779 250.328C447.336 250.328 453.485 253.698 457.464 258.754ZM442.636 299.803C451.919 299.803 457.703 292.58 457.703 282.107C457.703 271.514 451.919 264.171 442.636 264.171C433.353 264.171 427.446 271.394 427.446 281.987C427.446 292.58 433.353 299.803 442.636 299.803Z" fill="white"/>
</svg>