<?xml version="1.0" encoding="UTF-8" standalone="yes"?>
<svg version="1.2" width="216px" height="216px" viewBox="0 0 216 216" xml:space="preserve" baseProfile="tiny-ps" xmlns="http://www.w3.org/2000/svg">
  <title>SecureME of Walter Russo</title>
  <circle class="st0" cx="108.2" cy="108.4" r="107.7" fill="#262E36"/>
  <rect x="-0.2" y="-0.8" class="st1" width="216.8" height="216.8" fill="#262E36"/>
  <g>
    <path class="st2" d="M53.8,170.5c-1.3-2-3.3-2.3-5.3-2.4c-2,0-5.3,0.7-5.3,3.5c0,2.2,2.4,2.7,5.3,3.3c3.4,0.7,6.9,1.2,6.9,5&#xD;&#xA;&#x9;&#x9;c0,3.9-4,4.9-6.9,4.9c-2.7,0-5.8-1.1-7.2-3.8l1.2-0.6c1.1,2.1,3.8,3.2,6,3.2s5.6-0.6,5.6-3.7c0-2.6-2.9-3.2-5.7-3.7&#xD;&#xA;&#x9;&#x9;c-3.2-0.6-6.5-1.3-6.5-4.5c-0.1-3.7,3.8-4.8,6.6-4.8c2.5,0,4.7,0.4,6.4,3L53.8,170.5z" fill="#FFFFFF"/>
    <path class="st2" d="M59.3,175.2h10.2v1.2H59.3v6.9h11v1.3H58v-17.4h12v1.3H59.3V175.2z" fill="#FFFFFF"/>
    <path class="st2" d="M87.4,182.2c-1.7,1.7-4.1,2.6-6.4,2.6c-5.9,0-8.9-4.1-9-8.8c-0.1-4.7,3-9,9-9c2.3,0,4.6,0.9,6.4,2.6l-0.9,0.8&#xD;&#xA;&#x9;&#x9;c-1.5-1.5-3.5-2.2-5.4-2.2c-5.1,0-7.7,3.6-7.7,7.8c0.1,4.1,2.6,7.6,7.7,7.6c2,0,4-0.7,5.5-2.2L87.4,182.2z" fill="#FFFFFF"/>
    <path class="st2" d="M103.4,167.1V178c0,9.1-13.4,9.1-13.4,0v-10.8h1.3V178c0,7.5,10.7,7.5,10.7,0v-10.8H103.4z" fill="#FFFFFF"/>
    <path class="st2" d="M120.8,184.6H119l-6-6.6h-4.8v6.6h-1.3v-17.4c2.6,0,5.1,0,7.7,0c3.8,0,5.7,2.7,5.7,5.4c0,2.8-1.8,5.3-5.7,5.3&#xD;&#xA;&#x9;&#x9;L120.8,184.6z M108.2,176.7h6.2c3,0,4.4-1.7,4.4-4.2c0-2-1.4-4.2-4.3-4.2h-6.3V176.7z" fill="#FFFFFF"/>
    <path class="st2" d="M124.1,175.2h10.2v1.2h-10.2v6.9h11v1.3h-12.3v-17.4h12v1.3h-10.7L124.1,175.2L124.1,175.2z" fill="#FFFFFF"/>
    <path class="st2" d="M152.7,171.9l-5.7,7.6h-0.7l-5.6-7.6v12.7h-3.3v-17.4h3.8l5.5,7.5l5.5-7.5h3.8v17.4h-3.3V171.9z" fill="#FFFFFF"/>
    <path class="st2" d="M171.8,184.6h-13.1c0-5.8,0-11.6,0-17.4h13.1v3.2H162v4h9.4v3.1H162v3.9h9.8V184.6z" fill="#FFFFFF"/>
  </g>
  <g>
    <g>
      <g>
        <path class="st3" d="M144.7,35.5c-24.2,2.8-47.2,14.8-60.7,36c0-1,0-1.9,0-2.9c13.5-24.6,36.5-38.5,60.7-41.8&#xD;&#xA;&#x9;&#x9;&#x9;&#x9;C144.7,29.7,144.7,32.6,144.7,35.5z" fill="#1D70B7"/>
        <path class="st3" d="M131.7,50C112.5,53.9,95,62.4,84,75.7c0-1,0-1.9,0-2.9c11.1-16.1,28.5-26.4,47.8-31&#xD;&#xA;&#x9;&#x9;&#x9;&#x9;C131.7,44.5,131.7,47.3,131.7,50z" fill="#1D70B7"/>
        <path class="st3" d="M118.7,65c-14,3.1-26.3,8.1-34.8,15c0-1,0-1.9,0-2.9c8.5-9,20.8-15.6,34.8-19.7&#xD;&#xA;&#x9;&#x9;&#x9;&#x9;C118.7,60,118.7,62.5,118.7,65z" fill="#1D70B7"/>
        <path class="st3" d="M144.5,74.2c-24.2,0.8-47,4.2-60.5,10.1c0-1,0-1.9,0-2.9c13.5-9.3,36.4-14.6,60.5-15.8&#xD;&#xA;&#x9;&#x9;&#x9;&#x9;C144.5,68.4,144.5,71.3,144.5,74.2z" fill="#1D70B7"/>
        <path class="st3" d="M165.5,86.9c-31.2-0.1-64.2,0.4-81.5,1.6c0-1,0-1.9,0-2.9c17.4-5.6,50.3-8,81.5-7.4&#xD;&#xA;&#x9;&#x9;&#x9;&#x9;C165.5,81.1,165.5,84,165.5,86.9z" fill="#1D70B7"/>
        <path class="st3" d="M137.6,100c-21.6-0.9-41.5-3.2-53.7-7.1c0-1,0-2,0-3c12.2,0.6,32.1,1,53.7,1.1&#xD;&#xA;&#x9;&#x9;&#x9;&#x9;C137.6,93.9,137.6,97,137.6,100z" fill="#1D70B7"/>
        <path class="st3" d="M117.5,109.6c-13.5-2.7-25.3-6.9-33.5-12.6c0-1,0-1.9,0-2.9c8.3,3.6,20.1,6.3,33.5,8&#xD;&#xA;&#x9;&#x9;&#x9;&#x9;C117.5,104.6,117.5,107.1,117.5,109.6z" fill="#1D70B7"/>
        <path class="st3" d="M135,124.5c-20.6-3.1-39.3-10.9-51-23.3c0-1,0-1.9,0-2.9c11.7,9.5,30.5,15.4,51,17.7&#xD;&#xA;&#x9;&#x9;&#x9;&#x9;C135,118.9,135,121.7,135,124.5z" fill="#1D70B7"/>
        <path class="st3" d="M124.3,134c-16.3-5.3-30.7-14.8-40.3-28.6c0-1,0-1.9,0-2.9c9.6,11.4,24.1,19.2,40.3,23.5&#xD;&#xA;&#x9;&#x9;&#x9;&#x9;C124.3,128.7,124.3,131.4,124.3,134z" fill="#1D70B7"/>
        <path class="st3" d="M143.8,151.5c-23.9-3.5-46.5-17.4-59.8-41.7c0-1,0-1.9,0-2.9c13.4,20.9,35.9,32.9,59.8,35.9&#xD;&#xA;&#x9;&#x9;&#x9;&#x9;C143.8,145.7,143.8,148.6,143.8,151.5z" fill="#1D70B7"/>
      </g>
      <g>
        <path class="st3" d="M153.4,34.9c-2.2,0-4.5,0.2-6.7,0.4c0-2.9,0-5.8,0-8.7c2.2-0.2,4.5-0.4,6.7-0.5&#xD;&#xA;&#x9;&#x9;&#x9;&#x9;C153.4,29,153.4,31.9,153.4,34.9z" fill="#1D70B7"/>
        <path class="st3" d="M140.9,48.6c-2.2,0.3-4.4,0.6-6.6,1c0-2.8,0-5.6,0-8.4c2.2-0.5,4.4-0.9,6.6-1.2&#xD;&#xA;&#x9;&#x9;&#x9;&#x9;C140.9,42.9,140.9,45.7,140.9,48.6z" fill="#1D70B7"/>
        <path class="st3" d="M128.5,63.2c-2.1,0.3-4.2,0.7-6.3,1.1c0-2.6,0-5.2,0-7.8c2.1-0.5,4.2-1,6.3-1.5&#xD;&#xA;&#x9;&#x9;&#x9;&#x9;C128.5,57.8,128.5,60.5,128.5,63.2z" fill="#1D70B7"/>
        <path class="st3" d="M152.7,74c-2.2,0-4.5,0.1-6.7,0.1c0-2.9,0-5.8,0-8.7c2.2-0.1,4.5-0.2,6.7-0.2&#xD;&#xA;&#x9;&#x9;&#x9;&#x9;C152.7,68.2,152.7,71.1,152.7,74z" fill="#1D70B7"/>
        <path class="st3" d="M148.7,100.3c-2.2,0-4.5-0.1-6.7-0.1c0-3.1,0-6.1,0-9.2c2.2,0,4.4,0,6.7,0&#xD;&#xA;&#x9;&#x9;&#x9;&#x9;C148.7,94.1,148.7,97.2,148.7,100.3z" fill="#1D70B7"/>
        <path class="st3" d="M177.2,87c-2.3,0-4.5,0-6.8,0c0-2.9,0-5.7,0-8.6c2.3,0.1,4.6,0.2,6.8,0.3C177.2,81.4,177.2,84.2,177.2,87z" fill="#1D70B7"/>
        <path class="st3" d="M126.2,111.1c-2.1-0.3-4.2-0.7-6.2-1c0-2.6,0-5.1,0-7.6c2.1,0.2,4.1,0.4,6.2,0.7&#xD;&#xA;&#x9;&#x9;&#x9;&#x9;C126.2,105.8,126.2,108.4,126.2,111.1z" fill="#1D70B7"/>
        <path class="st3" d="M145.3,125.7c-2.2-0.2-4.4-0.4-6.6-0.7c0-2.8,0-5.7,0-8.5c2.2,0.2,4.4,0.4,6.6,0.5&#xD;&#xA;&#x9;&#x9;&#x9;&#x9;C145.3,119.9,145.3,122.8,145.3,125.7z" fill="#1D70B7"/>
        <path class="st3" d="M135.4,136.9c-2.3-0.4-4.5-1-6.7-1.6c0-2.7,0-5.4,0-8.1c2.2,0.5,4.4,0.9,6.7,1.3&#xD;&#xA;&#x9;&#x9;&#x9;&#x9;C135.4,131.3,135.4,134.1,135.4,136.9z" fill="#1D70B7"/>
        <path class="st3" d="M153.6,152.3c-2.2-0.1-4.5-0.2-6.7-0.4c0-2.9,0-5.8,0-8.7c2.2,0.2,4.5,0.3,6.7,0.4&#xD;&#xA;&#x9;&#x9;&#x9;&#x9;C153.6,146.5,153.6,149.4,153.6,152.3z" fill="#1D70B7"/>
      </g>
    </g>
    <g>
      <rect x="28.5" y="85.6" class="st3" width="55.4" height="2.9" fill="#1D70B7"/>
      <rect x="53.1" y="81.4" class="st3" width="30.9" height="2.9" fill="#1D70B7"/>
      <rect x="48.8" y="72.8" class="st3" width="35.1" height="2.9" fill="#1D70B7"/>
      <rect x="57.6" y="68.6" class="st3" width="26.4" height="2.9" fill="#1D70B7"/>
      <rect x="68.4" y="77.2" class="st3" width="15.6" height="2.9" fill="#1D70B7"/>
      <rect x="38.9" y="89.8" class="st3" width="45" height="3" fill="#1D70B7"/>
      <rect x="61" y="94.2" class="st3" width="22.9" height="2.9" fill="#1D70B7"/>
      <rect x="48.8" y="98.4" class="st3" width="35.1" height="2.9" fill="#1D70B7"/>
      <rect x="67.5" y="102.6" class="st3" width="16.5" height="2.9" fill="#1D70B7"/>
      <rect x="57.6" y="106.9" class="st3" width="26.4" height="2.9" fill="#1D70B7"/>
    </g>
  </g>
</svg>