<?xml version="1.0" encoding="utf-8"?>
<!-- Generator: Adobe Illustrator 27.8.1, SVG Export Plug-In . SVG Version: 6.00 Build 0)  -->
<svg version="1.2" baseProfile="tiny-ps" id="Layer_1" xmlns="http://www.w3.org/2000/svg" xmlns:xlink="http://www.w3.org/1999/xlink"
	 viewBox="0 0 576.5 573.1" xml:space="preserve">
<title>VirtualHealth</title>
<g>
	<path fill="#6CACE4" d="M510.9,128.3c-9.3,37.1-148.8,74.2-222.8,92.8S74.4,276.9,65.1,314v-60.4c9.3-37.1,148.6-74.3,222.9-92.9
		c74.3-18.6,213.6-55.7,222.9-92.9V128.3z"/>
	<path fill="#6CACE4" d="M538.5,90c-0.5,1.1-1.1,2.1-2,3c-0.8,0.8-1.8,1.5-3,2c-1.1,0.5-2.4,0.7-3.7,0.7c-1.3,0-2.5-0.2-3.6-0.7
		c-1.1-0.5-2.1-1.1-2.9-2c-0.8-0.8-1.5-1.8-2-3c-0.5-1.1-0.7-2.3-0.7-3.6c0-1.3,0.2-2.5,0.7-3.6c0.5-1.1,1.1-2.1,2-3
		c0.8-0.8,1.8-1.5,3-2c1.1-0.5,2.4-0.7,3.7-0.7c1.3,0,2.5,0.2,3.6,0.7c1.1,0.5,2.1,1.2,2.9,2c0.8,0.8,1.5,1.8,2,3
		c0.5,1.1,0.7,2.3,0.7,3.6C539.2,87.7,539,88.9,538.5,90 M537.6,83.2c-0.4-1-1-1.9-1.7-2.7c-0.7-0.8-1.6-1.3-2.6-1.8
		c-1-0.4-2.1-0.7-3.3-0.7c-1.2,0-2.3,0.2-3.3,0.7c-1,0.4-1.9,1-2.6,1.8c-0.7,0.8-1.3,1.6-1.8,2.7c-0.4,1-0.6,2.1-0.6,3.3
		c0,1.2,0.2,2.2,0.6,3.3c0.4,1,1,1.9,1.7,2.6c0.7,0.8,1.6,1.3,2.6,1.8c1,0.4,2.1,0.7,3.3,0.7c1.2,0,2.3-0.2,3.3-0.7
		c1-0.4,1.9-1,2.6-1.8c0.7-0.8,1.3-1.6,1.8-2.7c0.4-1,0.6-2.1,0.6-3.3C538.3,85.3,538.1,84.2,537.6,83.2 M533.7,86.4
		c-0.4,0.5-1,0.8-1.6,1l2.6,3.7h-2.2l-2.4-3.4h-2v3.4h-1.8v-9.7h4.3c1.1,0,2,0.3,2.7,0.8c0.7,0.5,1,1.3,1,2.3
		C534.3,85.3,534.1,85.9,533.7,86.4 M531.9,83.4c-0.3-0.3-0.8-0.4-1.4-0.4h-2.4v3.1h2.4c0.6,0,1.1-0.1,1.4-0.4
		c0.3-0.3,0.5-0.7,0.5-1.1C532.4,84.1,532.2,83.7,531.9,83.4"/>
	<path fill="#6CACE4" d="M65.6,67.9v60.4c4.4,17.7,38.4,35.4,80.8,51c30.7-11.4,65.7-21.7,97.2-30.1
		C168.6,128.9,73.2,98.4,65.6,67.9"/>
	<path fill="#6CACE4" d="M469.3,279.2c20-9.7,28.1-20.9,28.1-30.2c0-13.9-28.2-32.1-66.9-46.5c-30.8,11.4-65.9,21.7-97.4,30.2
		C379.1,245.2,432.9,261.4,469.3,279.2"/>
	<path fill="#6CACE4" d="M107.4,302.4c-20,9.8-27.9,20.9-28.1,30.2c-0.3,13.9,28.2,32.1,66.9,46.5c30.8-11.4,66-21.7,97.4-30.2
		C197.7,336.5,143.9,320.2,107.4,302.4"/>
	<path fill="#6CACE4" d="M511.4,513.7v-60.4c-4.4-17.7-38.4-35.4-80.8-51.1c-30.8,11.4-65.9,21.7-97.4,30.2
		C408,452.7,503.8,483.2,511.4,513.7"/>
	<path fill="#6CACE4" d="M511.4,327.9c-9.3,37.1-148.8,74.2-222.8,92.8c-73.9,18.6-213.7,55.8-223,92.9v-60.4
		c9.3-37.1,148.6-74.3,222.9-92.9c74.3-18.6,213.6-55.7,222.9-92.9V327.9z"/>
</g>
</svg>
