<?xml version="1.0" encoding="utf-8"?>
<svg baseProfile="tiny-ps" version="1.2" viewBox="0 0 256 256" xmlns="http://www.w3.org/2000/svg">
  <title>Adguard Software Limited</title>
  <path fill="#FFF" fill-rule="evenodd" d="M0 0h256v256H0z" />
  <path fill="#43BF68" fill-rule="evenodd" d="M128 29c-25.7 0-56.7 5.9-82.3 18.9 0 28-.4 97.9 82.3 145.6 82.6-47.7 82.3-117.6 82.3-145.6C184.7 34.9 153.7 29 128 29z" />
  <path fill="#49B473" fill-rule="evenodd" d="M128 29c-25.7 0-56.7 5.9-82.3 18.9v.4c0 28.3 0 97.8 82.3 145.3V29z" />
  <path fill="#FFF" fill-rule="evenodd" d="M127.3 134.7 175 71.5c-3.5-2.8-6.6-.8-8.3.7h-.1l-39.8 40.7-15-17.7c-7.2-8.1-16.9-1.9-19.2-.3l34.7 39.8z" />
  <path fill="#131313" fill-rule="evenodd" d="M111.2 225.3c-2.6 0-4.6-.8-6.3-2.4-1.6-1.6-2.4-3.6-2.4-6.1 0-2.4.8-4.3 2.5-6 1.6-1.6 3.7-2.5 6.2-2.5 1.4 0 2.6.2 3.6.5 1 .4 1.9.9 2.8 1.7l-2.3 2.7c-.7-.6-1.4-1-2-1.3s-1.4-.4-2.3-.4c-1.3 0-2.4.5-3.4 1.5-.9 1-1.4 2.2-1.4 3.6 0 1.5.5 2.7 1.4 3.7s2.1 1.5 3.6 1.5c1.4 0 2.5-.3 3.4-1v-2.3H111v-3.1h7.2v7.1c-2 1.9-4.3 2.8-7 2.8zm-38-16.8-7 16.5h3.7l1.5-3.7h7l1.5 3.7h3.8l-7.1-16.5h-3.4zm1.7 4.4 2.2 5.3h-4.4l2.2-5.3zM85.5 225v-16.4H92c2.6 0 4.7.8 6.3 2.3 1.6 1.5 2.4 3.5 2.4 5.9 0 2.3-.8 4.3-2.5 5.8-1.6 1.6-3.7 2.3-6.3 2.3l-6.4.1zm6.5-3.2h-2.8v-9.9H92c1.5 0 2.7.5 3.6 1.4s1.4 2.1 1.4 3.6-.5 2.7-1.4 3.6c-.9.8-2.1 1.3-3.6 1.3zm31.4 1.6c1.3 1.2 3 1.9 5.2 1.9 2.3 0 4-.6 5.3-1.9 1.3-1.2 1.9-3.1 1.9-5.5v-9.2h-3.6v9.4c0 1.3-.3 2.3-.9 2.9-.6.7-1.5 1-2.6 1s-2-.3-2.6-1-.9-1.7-.9-3v-9.3h-3.6v9.3c-.1 2.4.5 4.2 1.8 5.4zm13.4 1.6 7.1-16.5h3.3l7.1 16.5h-3.8l-1.5-3.7h-7l-1.5 3.7h-3.7zm8.7-12.1 2.2 5.3h-4.4l2.2-5.3zm10.7-4.2h7.5c2.1 0 3.7.6 4.8 1.7.9.9 1.4 2.2 1.4 3.8 0 2.5-1.2 4.2-3.5 5.1l4 5.8h-4.2l-3.6-5.2h-2.8v5.2h-3.6v-16.4zm7.3 7.9h-3.7v-4.7h3.6c.9 0 1.6.2 2.1.6.5.4.8 1 .8 1.7s-.2 1.3-.7 1.7c-.5.5-1.2.7-2.1.7zm9.1-7.9h6.4c2.6 0 4.7.8 6.3 2.3s2.4 3.5 2.4 5.9c0 2.3-.8 4.3-2.5 5.8-1.6 1.6-3.7 2.3-6.3 2.3h-6.4v-16.3h.1zm6.4 13.1h-2.8v-9.9h2.8c1.5 0 2.7.5 3.6 1.4.9.9 1.4 2.1 1.4 3.6s-.5 2.7-1.4 3.6c-.9.8-2.1 1.3-3.6 1.3z" />
</svg>