<svg xmlns="http://www.w3.org/2000/svg" xmlns:xlink="http://www.w3.org/1999/xlink" version="1.2" viewBox="0 0 24 24" baseProfile="tiny-ps">
  <title>AdGuardVPN</title>
  <ellipse cx="12.131" cy="9.151" rx="8.131" ry="8.151"/>
  <path d="M11.873,5.895c1.728,0.09,3.442,0.303,4.972,1.257  c0.917,0.571,1.461,1.394,1.477,2.494c0.025,1.725-1.201,2.61-2.807,2.417c-0.675-0.102-1.344-0.248-2-0.437  c-1.162-0.297-2.311-0.211-3.46,0.067c-0.551,0.133-1.089,0.329-1.656,0.385c-1.066,0.105-2.182-0.272-2.571-1.325  C5.316,9.429,5.81,7.928,7.006,7.17C8.481,6.207,10.151,5.98,11.873,5.895z" fill="#FFFFFF" fill-rule="evenodd"/>
  <path d="M16.28,9.227c0.009,0.626-0.42,1.16-0.939,1.168  c-0.461,0.008-0.917-0.525-0.924-1.079c-0.008-0.607,0.406-1.116,0.924-1.137C15.861,8.158,16.272,8.617,16.28,9.227z" fill-rule="evenodd"/>
  <path d="M9.444,9.227c0.009,0.626-0.42,1.16-0.939,1.168  C8.045,10.403,7.588,9.87,7.581,9.316C7.573,8.709,7.986,8.2,8.505,8.179C9.025,8.158,9.436,8.617,9.444,9.227z" fill-rule="evenodd"/>
  <path d="M11.707,22.908c-2.682-1.618-4.442-3.475-5.597-5.328  c-0.373-0.598,0.333-1.271,0.921-0.883c3.046,2.006,6.991,2,10.03-0.015c0.587-0.39,1.295,0.281,0.923,0.881  c-1.155,1.859-2.918,3.723-5.608,5.345C12.17,23.031,11.913,23.031,11.707,22.908L11.707,22.908z" fill="#74A352" fill-rule="evenodd"/>
</svg>