<?xml version="1.0" encoding="UTF-8" standalone="yes"?>
<svg version="1.2" baseProfile="tiny-ps" viewBox="0 0 850 850" xml:space="preserve" xmlns="http://www.w3.org/2000/svg">
  <title>Suitespot Inc</title>
  <g>
    <rect fill="#FFFFFF" width="850" height="850"/>
    <g>
      <path fill="#808080" d="M600.1,370.9c10.9,7.4,18.7,18,21.6,30.9c2.4,15.2-1,28.3-9.7,40.9c-7.4,9.4-18.8,15.3-30.3,17.8&#xD;&#xA;&#x9;&#x9;&#x9;c-1.1,0.1-2.2,0.1-3.3,0.2c-0.7,0.1-1.3,0.1-2,0.2c-10.8,0.5-20.9-3.6-30-9.2c-1.3-1.3-2.6-2.6-4-4c-0.3,24.1-0.7,48.2-1,73&#xD;&#xA;&#x9;&#x9;&#x9;c-5.3,0-10.6,0-16,0c-0.1-14.8-0.1-29.6-0.2-44.4c0-6.9,0-13.7-0.1-20.6c0-6.6-0.1-13.3-0.1-19.9c0-2.5,0-5,0-7.6&#xD;&#xA;&#x9;&#x9;&#x9;c0-3.5,0-7.1,0-10.6c0-1,0-2.1,0-3.1c0.1-14.2,4.4-26.7,14.2-37.2C556.2,361.7,580,359.2,600.1,370.9z M549.3,389.8&#xD;&#xA;&#x9;&#x9;&#x9;c-6.2,8.3-9,16.6-8,27c1.8,9.9,6.8,17.2,15,23c7.6,4.4,15.8,5.9,24.6,4.4c8.3-2.2,15.7-7.2,20.4-14.4c4.8-9,5.7-16.9,4-27&#xD;&#xA;&#x9;&#x9;&#x9;c-2.6-8.1-7.9-15.1-15.4-19.3C576.2,377.1,560.3,378.6,549.3,389.8z"/>
      <path fill="#089A99" d="M401.1,371c10.9,7.4,18.7,18.7,21.2,31.8c0,2.6,0,5.3,0,8c-26.4,0-52.8,0-80,0c2.3,13.8,4.9,21,16,29&#xD;&#xA;&#x9;&#x9;&#x9;c6.9,4.5,16.1,3.7,24,3c6.8-1.6,12.3-5.9,17-11c0.4-0.9,0.8-1.8,1.2-2.7c1.8-2.3,1.8-2.3,3.8-2.8c2.4-0.2,4.8-0.3,7.3-0.3&#xD;&#xA;&#x9;&#x9;&#x9;c0.8,0,1.7-0.1,2.6-0.1c2.1-0.1,4.2-0.1,6.3-0.1c-1.5,10.5-9,19.2-17,25.6c-10.3,7.5-22.9,10.5-35.6,8.9&#xD;&#xA;&#x9;&#x9;&#x9;c-13.2-2.5-24.6-8.1-32.6-19.3c-8.5-13-11-26.5-8.1-41.8c3.8-12.4,11.1-22.7,22.3-29.3C366.6,361.1,384.2,361.1,401.1,371z&#xD;&#xA;&#x9;&#x9;&#x9; M347.4,392.8c0,0.7,0,1.3,0,2c17.8,0,35.6,0,54,0c-4.3-7.2-9.2-11.4-17.1-14.3C369.1,376.9,357.5,381.6,347.4,392.8z"/>
      <path fill="#808080" d="M495.4,334.8c0.8,0.4,1.6,0.9,2.5,1.3c8.1,4.9,14.7,12.6,17.5,21.7c0,1.6,0,3.3,0,5c-5.6,0-11.2,0-17,0&#xD;&#xA;&#x9;&#x9;&#x9;c-0.5-1.2-0.9-2.4-1.4-3.6c-2.6-5.2-6.6-7.7-11.6-10.4c-6.9-2.3-15.4-2.1-22.1,0.8c-4.8,2.6-8.8,5.1-10.9,10.2&#xD;&#xA;&#x9;&#x9;&#x9;c-0.7,4.8-0.9,8.7,1.9,12.8c8,5.6,16.8,8.6,26,11.6c14,4.7,28.4,10,35.6,23.9c3.9,8.5,4.3,20.2,1.1,29.1&#xD;&#xA;&#x9;&#x9;&#x9;c-5.4,11-14.2,17.3-25.6,21.6c-13.4,3.7-26.6,2.2-39-4c-9.9-6.2-17-14.8-20.6-26c-0.7-4-0.4-8-0.4-12c5.3,0,10.6,0,16,0&#xD;&#xA;&#x9;&#x9;&#x9;c0.2,1.6,0.5,3.3,0.7,5c1.3,6.7,3.1,11.6,8.8,15.8c9.5,5.8,19.8,7,30.7,4.5c5.6-2.1,9.8-4.9,12.9-10.1c2-5,1.7-11.2,0.4-16.3&#xD;&#xA;&#x9;&#x9;&#x9;c-4.3-9-16.8-12.6-25.5-15.9c-2.1-0.7-4.2-1.5-6.3-2.2c-12.1-4.1-25.9-9-32.1-21.1c-3.2-7.3-3.5-13.5-1.1-21.2&#xD;&#xA;&#x9;&#x9;&#x9;c4-10.1,11.9-16.9,21.6-21.6c0.8-0.4,1.7-0.8,2.6-1.2C472,327.4,484,328.6,495.4,334.8z"/>
      <path fill="#089A99" d="M136.2,336.6c8.4,6,13.5,12.5,17.2,22.2c0,1.3,0,2.6,0,4c-15.4,1.2-15.4,1.2-19.2-1.7&#xD;&#xA;&#x9;&#x9;&#x9;c-1.7-2.8-2.8-5-2.8-8.3c-1.3-0.7-2.7-1.3-4-2c-0.9-0.5-1.9-1.1-2.8-1.6c-6.8-2.8-15.3-2.5-22.2-0.5c-5.2,2.4-9,5.1-12,10.1&#xD;&#xA;&#x9;&#x9;&#x9;c-1.4,4.7-1.7,7.7,0.6,12.1c6.4,8,18.7,10.8,28,14c13.5,4.6,27.4,9.8,34.3,23.2c3.9,8.5,4.5,18.5,1.9,27.6&#xD;&#xA;&#x9;&#x9;&#x9;c-4,10-12,17.2-21.7,21.4c-12.8,4.7-26,5.1-38.7,0c-4.2-2-7.9-4.4-11.6-7.2c-0.6-0.5-1.2-1-1.9-1.4c-6.5-5.7-11.5-14.5-12.6-23.1&#xD;&#xA;&#x9;&#x9;&#x9;c0-3.3,0-3.3,0.4-8.4c5.3,0,10.6,0,16,0c0.2,1.8,0.4,3.6,0.6,5.5c1.3,7.6,3.7,11.8,9.9,16.3c9.2,5.4,18.6,5.6,28.8,3.5&#xD;&#xA;&#x9;&#x9;&#x9;c6.2-1.9,10.4-4.8,13.7-10.3c1.8-5.4,1.7-10.9-0.1-16.2c-6.8-9.7-17.6-12.9-28.4-16.7c-15.1-5.3-28-10-36.5-24.3&#xD;&#xA;&#x9;&#x9;&#x9;c-2.2-7.8-2-14.5,1.4-21.9c5.4-9.6,12.4-15.7,22.6-19.8c0.7-0.3,1.4-0.6,2.1-1C112.1,326.8,125.1,329.6,136.2,336.6z"/>
      <path fill="#808080" d="M705.1,371c10.7,7.3,18.5,18.1,21.2,30.8c2.5,14.9-0.7,27.5-9.3,39.8c-8.1,10.6-18.6,16.5-31.6,18.6&#xD;&#xA;&#x9;&#x9;&#x9;c-14,1.6-26.1-2-37.4-10.3c-9.4-7.7-16.4-18.9-17.8-31.2c-1.1-14.4,1.8-26.7,11.2-38c2.6-2.8,2.6-2.8,5-5c0.9-0.8,1.8-1.6,2.7-2.5&#xD;&#xA;&#x9;&#x9;&#x9;C665.3,360,687.6,360.7,705.1,371z M652.3,391.8c-5.7,9.1-7.6,18.2-5.4,28.9c2.9,9.3,8.9,16.6,17.5,21.2&#xD;&#xA;&#x9;&#x9;&#x9;c8.2,3.2,18.7,3.6,26.9,0.2c2.1-1.1,2.1-1.1,4-2.4c0.7-0.4,1.4-0.9,2.1-1.3c6.9-4.6,10.7-10.6,12.9-18.6c1-11.4,0.1-20.2-7.2-29.2&#xD;&#xA;&#x9;&#x9;&#x9;c-5.7-6.1-12.4-10.2-20.8-11.1C670,379.3,660.4,382.2,652.3,391.8z"/>
      <path fill="#089A99" d="M163.4,367.8c5.6,0,11.2,0,17,0c0,1.6,0,3.2,0,4.8c0,5.9,0.1,11.8,0.2,17.8c0,2.6,0,5.1,0.1,7.7&#xD;&#xA;&#x9;&#x9;&#x9;c0,3.7,0.1,7.4,0.1,11.1c0,1.1,0,2.3,0,3.4c0.1,7.3,1,14.1,5.9,19.8c5.8,5.3,12.1,7.1,19.8,6.9c6.2-0.9,11.7-3.7,15.8-8.4&#xD;&#xA;&#x9;&#x9;&#x9;c4.5-6.9,4.3-13.5,4.4-21.5c0-1.2,0-2.4,0.1-3.6c0.1-3.8,0.1-7.6,0.2-11.4c0-2.6,0.1-5.1,0.1-7.7c0.1-6.3,0.2-12.6,0.3-18.9&#xD;&#xA;&#x9;&#x9;&#x9;c5.3,0,10.6,0,16,0c0.1,7.8,0.2,15.5,0.2,23.3c0,2.6,0,5.3,0.1,7.9c0,3.8,0.1,7.6,0.1,11.4c0,1.2,0,2.3,0.1,3.5&#xD;&#xA;&#x9;&#x9;&#x9;c0,11.2-3.1,21.1-10.5,29.8c-8.3,8.2-17.7,12.4-29.3,13c-11.6-0.1-21.3-5-29.6-12.8c-10-10.9-11.2-23-11.1-37.1c0-1.1,0-2.2,0-3.4&#xD;&#xA;&#x9;&#x9;&#x9;c0-3.6,0-7.1,0-10.7c0-2.4,0-4.9,0-7.3C163.4,379.7,163.4,373.7,163.4,367.8z"/>
      <path fill="#808080" d="M744.3,333.8c5.3,0,10.6,0,16,0c0,10.9,0,21.8,0,33c6.9,0.3,13.9,0.7,21,1c0,5.3,0,10.6,0,16&#xD;&#xA;&#x9;&#x9;&#x9;c-10.4,0.5-10.4,0.5-21,1c0,23.8,0,47.5,0,72c-5.3,0-10.6,0-16,0c-1-1-1-1-1.1-3.8c0-1.3,0-2.5,0-3.8c0-0.7,0-1.4,0-2.1&#xD;&#xA;&#x9;&#x9;&#x9;c0-2.3,0-4.6,0-6.9c0-1.6,0-3.2,0-4.8c0-4.2,0-8.4,0-12.6c0-4.3,0-8.6,0-12.8c0-8.4,0-16.8,0-25.2c-4-0.5-4-0.5-8-1&#xD;&#xA;&#x9;&#x9;&#x9;c0-5.3,0-10.6,0-16c2.6-0.3,5.3-0.7,8-1c0-1,0-1.9,0-2.9c0-3.6,0-7.1,0-10.7c0-1.5,0-3.1,0-4.6c0-2.2,0-4.4,0-6.6&#xD;&#xA;&#x9;&#x9;&#x9;c0-0.7,0-1.4,0-2.1c0-1.7,0.1-3.3,0.1-5C743.6,334.5,744,334.1,744.3,333.8z"/>
      <path fill="#089A99" d="M289.4,333.8c5.3,0,10.6,0,16,0c0,11.2,0,22.4,0,34c7.3,0,14.5,0,22,0c0,5.3,0,10.6,0,16&#xD;&#xA;&#x9;&#x9;&#x9;c-7.3,0-14.5,0-22,0c0,24.1,0,48.2,0,73c-5.3,0-10.6,0-16,0c0-24.1,0-48.2,0-73c-3,0-5.9,0-9,0c0-5.3,0-10.6,0-16c3,0,5.9,0,9,0&#xD;&#xA;&#x9;&#x9;&#x9;C289.4,356.6,289.4,345.4,289.4,333.8z"/>
      <path fill="#089A99" d="M255.4,367.8c5.3,0,10.6,0,16,0c0,29.4,0,58.7,0,89c-5.3,0-10.6,0-16,0&#xD;&#xA;&#x9;&#x9;&#x9;C255.4,427.4,255.4,398.1,255.4,367.8z"/>
      <path fill="#089A99" d="M268.4,334.8c2.9,2.1,3.8,3.5,4.9,6.9c0.1,3.9-0.8,5.9-2.9,9.1c-2.6,2.2-4.8,2.1-8,1.9&#xD;&#xA;&#x9;&#x9;&#x9;c-3.2-0.5-4-0.9-6.5-3.1c-1.8-3.3-2-5.1-1.5-8.8c1.4-3.2,2.4-4.6,5.3-6.4C263,333.6,265.1,333.8,268.4,334.8z"/>
    </g>
  </g>
</svg>