<?xml version="1.0" encoding="utf-8"?>
<!-- Generator: Adobe Illustrator 28.1.0, SVG Export Plug-In . SVG Version: 6.00 Build 0)  -->
<svg version="1.2" baseProfile="tiny-ps" id="Layer_1" xmlns="http://www.w3.org/2000/svg" xmlns:xlink="http://www.w3.org/1999/xlink"
	 viewBox="0 0 500 500" xml:space="preserve">
<title>Wallet</title>
<rect width="500" height="500"/>
<g>
	<path fill="#E99353" d="M90.26,251.26c-0.89,1.32-12.85,19.12-13.63,20.33c-0.69,1.07-1.37,1.45-2.08,1.33
		c-0.69-0.13-1.14-0.63-1.33-1.96c-0.08-0.59-7.51-63.59-7.51-63.59c-0.57-4.88-5.03-8.4-9.91-7.82c-4.88,0.57-8.4,5.03-7.82,9.91
		l9.79,83.17c0.57,4.88,5.03,8.4,9.91,7.82c2.58-0.3,4.7-1.55,6.27-3.79c1.94-2.78,20.27-30.37,25.22-37.82h14.87
		c4.38,0,7.99-3.33,8.51-7.58H90.26z"/>
	<path fill="#89C6D9" d="M156.81,199.54c-4.88-0.57-9.34,2.95-9.91,7.82c0,0-7.19,61.38-7.51,63.59c-0.19,1.33-0.63,1.83-1.33,1.96
		c-0.71,0.13-1.39-0.25-2.08-1.33c-0.47-0.73-10.76-16.36-11.7-17.77c0,0-2.37,7.22-10.21,7.29c-2.12,0.02-13.69,0.01-13.69,0.01
		c-1.2,1.78-3.1,4.61-5.09,7.58l24.7-0.01c7.29,10.96,17.27,25.96,18.67,27.97c1.57,2.25,3.69,3.49,6.27,3.79
		c4.88,0.57,9.34-2.95,9.91-7.82l9.79-83.17C165.21,204.58,161.69,200.12,156.81,199.54"/>
	<path fill="#80B73E" d="M120.45,209.15c-3.48,0.16-6.1,1.04-8.64,1.89c-2.99,1-6.08,2.04-11.14,2.16
		c-5.94,0.14-9.44-0.86-11.76-1.52c-1.22-0.35-2.2-0.6-3.12-0.51l-6.03,27.2c2.2,0.9,6.73,2.34,13.15,2.18
		c4.93-0.12,8.12-1.13,11.21-2.12c2.84-0.9,5.52-1.76,9.67-1.96c8.55-0.43,12.22,2.13,12.8,2.59c2.08-9.37,4.45-20.06,6.26-28.25
		C130.5,209.82,126.62,208.86,120.45,209.15 M106.31,231.5c-3.68,0-6.67-2.98-6.67-6.67c0-3.68,2.98-6.67,6.67-6.67
		c3.68,0,6.67,2.98,6.67,6.67C112.97,228.52,109.99,231.5,106.31,231.5"/>
	<path fill="#808787" d="M238.1,275.42c0.04-3.62,0.08-6.91,0.1-9.87c0.02-2.96,0.03-6.56,0.03-10.8c0-6.71-0.94-12.1-2.81-16.16
		c-1.88-4.06-5.09-7.03-9.64-8.91c-4.55-1.87-10.79-2.81-18.74-2.81c-7.11,0-13.05,0.97-17.81,2.91s-8.28,4.42-10.53,7.42
		c-2.25,3-3.38,6.09-3.38,9.27c0,2.03,0.74,3.7,2.22,5c1.48,1.3,3.23,1.96,5.26,1.95c2-0.01,3.41-0.33,4.5-1.29
		c0.8-0.7,1.76-2.44,3.41-5c1.66-2.56,3.64-4.48,5.96-5.76c2.32-1.28,5.77-1.92,10.37-1.92c5.34,0,8.86,1.12,10.56,3.34
		c1.7,2.23,2.66,5.73,2.88,10.5c-3.8,1.1-7.32,2.04-10.56,2.82c-3.24,0.77-7.14,1.62-11.69,2.55c-4.55,0.93-7.4,1.52-8.54,1.79
		c-5.48,1.19-9.78,3.53-12.91,7.02c-3.14,3.49-4.7,7.71-4.7,12.65c0,3.66,0.95,7.06,2.85,10.2c1.9,3.13,4.6,5.62,8.11,7.45
		c3.51,1.83,7.58,2.75,12.22,2.75c5.08,0,9.66-0.85,13.74-2.55c4.08-1.7,8.31-4.25,12.68-7.65c2.03,3.31,3.95,5.84,5.76,7.58
		c1.81,1.74,3.64,2.62,5.5,2.62c2.21,0,4.18-0.76,5.93-2.29c1.74-1.52,2.62-3.21,2.62-5.07c0-1.06-0.56-3.43-1.69-7.12
		C238.66,282.36,238.1,278.82,238.1,275.42 M220.48,266.74c0,6.27-0.82,10.77-2.45,13.51c-1.41,2.47-3.63,4.49-6.66,6.06
		c-3.02,1.57-6.32,2.35-9.9,2.35c-3.36,0-6.07-0.96-8.15-2.88c-2.08-1.92-3.11-4.25-3.11-6.99c0-2.65,0.88-4.71,2.65-6.19
		c1.77-1.48,3.62-2.47,5.56-2.98c1.94-0.51,5.44-1.3,10.5-2.38c5.05-1.08,8.91-2.11,11.56-3.08V266.74z"/>
	<path fill="#808787" d="M265.52,200.12c-2.74,0-4.91,0.93-6.52,2.78c-1.61,1.85-2.42,4.59-2.42,8.21v78.41
		c0,3.53,0.83,6.25,2.48,8.14c1.65,1.9,3.81,2.85,6.46,2.85c2.69,0,4.89-0.92,6.59-2.75c1.7-1.83,2.55-4.58,2.55-8.24v-78.41
		c0-3.66-0.84-6.41-2.52-8.24C270.46,201.03,268.26,200.12,265.52,200.12"/>
	<path fill="#808787" d="M302.28,200.12c-2.74,0-4.91,0.93-6.52,2.78c-1.61,1.85-2.42,4.59-2.42,8.21v78.41
		c0,3.53,0.83,6.25,2.49,8.14c1.65,1.9,3.81,2.85,6.46,2.85c2.69,0,4.89-0.92,6.59-2.75c1.7-1.83,2.55-4.58,2.55-8.24v-78.41
		c0-3.66-0.84-6.41-2.51-8.24C307.22,201.03,305.01,200.12,302.28,200.12"/>
	<path fill="#808787" d="M391.55,266.18c2.6-1.35,3.91-4.29,3.91-8.84c0-4.9-1.26-9.71-3.78-14.44c-2.51-4.72-6.3-8.58-11.36-11.56
		c-5.06-2.98-11.12-4.47-18.18-4.47c-5.43,0-10.38,0.87-14.83,2.62c-4.46,1.74-8.21,4.25-11.26,7.52
		c-3.04,3.27-5.36,7.19-6.95,11.76c-1.59,4.57-2.38,9.53-2.38,14.87c0,11.35,3.22,20.33,9.67,26.96c6.44,6.62,15.47,9.93,27.09,9.93
		c5.08,0,9.57-0.66,13.48-1.99c3.91-1.32,7.15-2.99,9.73-5c2.58-2.01,4.51-4.11,5.79-6.29c1.28-2.19,1.92-4.09,1.92-5.73
		c0-1.85-0.58-3.29-1.72-4.3c-1.15-1.02-2.74-1.79-4.6-1.79c-1.72,0-2.95,0.67-3.88,1.46c-2.25,2.12-4.08,3.8-5.5,5.03
		c-1.41,1.24-2.96,2.4-4.63,3.48c-1.68,1.08-3.41,1.88-5.2,2.38c-1.79,0.51-3.76,0.76-5.93,0.76c-3.22,0-6.17-0.79-8.84-2.38
		c-2.67-1.59-4.81-3.95-6.42-7.09c-1.61-3.13-2.44-6.75-2.48-10.86h35.36C385.28,268.2,388.94,267.53,391.55,266.18 M345.19,257.93
		c0.62-6.09,2.37-10.7,5.26-13.81c2.89-3.11,6.59-4.67,11.09-4.67c4.72,0,8.53,1.53,11.42,4.6c2.89,3.07,4.56,7.69,5,13.87H345.19z"
		/>
	<path fill="#808787" d="M450.33,287.17c-1.17-1.17-2.48-1.75-3.94-1.75c-1.02,0-2.43,0.19-4.24,0.56
		c-1.81,0.38-3.25,0.56-4.31,0.56c-1.94,0-3.34-0.47-4.2-1.42c-0.86-0.95-1.39-2.19-1.59-3.71c-0.2-1.52-0.3-3.7-0.3-6.52v-33.25
		h3.38c0.54,0,3.37,0.01,3.37,0.01c2.61,0,4.59-0.62,5.96-1.85c1.37-1.23,2.05-2.8,2.05-4.7c0-1.9-0.72-3.46-2.15-4.67
		c-0.53-0.45-1.17-0.78-1.87-1.06c-1.14-0.49-2.49-0.76-4.12-0.76h-6.62v-12.32c0-3.05-0.16-5.4-0.5-7.05
		c-0.33-1.66-1.12-3.06-2.35-4.21c-1.85-1.72-3.93-2.58-6.23-2.58c-1.63,0-3.11,0.39-4.44,1.16c-1.32,0.77-2.34,1.78-3.04,3.01
		c-0.71,1.19-1.14,2.62-1.29,4.27c-0.16,1.66-0.23,3.94-0.23,6.86v10.86h-1.99c-2.74,0-4.82,0.61-6.26,1.82
		c-1.43,1.21-2.15,2.77-2.15,4.67c0,1.9,0.68,3.47,2.05,4.7c1.37,1.24,3.35,1.85,5.96,1.85h2.38v34.7c0,5.61,0.45,10.09,1.36,13.45
		c0.9,3.36,2.81,5.98,5.73,7.88c2.91,1.9,7.2,2.85,12.85,2.85c5.96,0,10.53-0.77,13.71-2.32c3.18-1.54,4.77-3.77,4.77-6.69
		C452.08,289.79,451.5,288.34,450.33,287.17"/>
	<path fill="#808787" d="M437.35,277.68c0,0.41-0.12,0.75-0.37,1.04c-0.25,0.29-0.6,0.43-1.06,0.43c-0.41,0-0.75-0.15-1.02-0.44
		c-0.27-0.3-0.4-0.64-0.4-1.03c0-0.38,0.12-0.71,0.36-1.01c0.24-0.29,0.6-0.44,1.06-0.44c0.45,0,0.8,0.14,1.05,0.43
		C437.22,276.95,437.35,277.29,437.35,277.68 M440.37,276.24h8.44c0.58,0,1.03,0.14,1.33,0.42c0.3,0.28,0.45,0.63,0.45,1.06
		c0,0.43-0.15,0.78-0.46,1.04c-0.31,0.27-0.74,0.4-1.32,0.4h-8.35c-0.58,0-1.01-0.13-1.3-0.4c-0.29-0.27-0.44-0.61-0.44-1.04
		c0-0.43,0.15-0.78,0.44-1.06C439.44,276.38,439.85,276.24,440.37,276.24"/>
	<path fill="#808787" d="M440.32,270.57h0.35c-0.68-0.51-1.17-1.07-1.49-1.68c-0.32-0.61-0.48-1.31-0.48-2.1
		c0-0.77,0.17-1.46,0.5-2.06c0.34-0.61,0.81-1.06,1.42-1.36c0.36-0.19,0.74-0.32,1.16-0.37c0.41-0.06,0.94-0.09,1.58-0.09h5.43
		c0.59,0,1.03,0.13,1.33,0.4c0.3,0.27,0.45,0.62,0.45,1.04c0,0.44-0.15,0.79-0.46,1.06c-0.31,0.27-0.74,0.41-1.32,0.41h-4.87
		c-0.96,0-1.7,0.13-2.21,0.4c-0.51,0.27-0.76,0.8-0.76,1.6c0,0.52,0.16,0.99,0.47,1.42c0.31,0.43,0.74,0.74,1.28,0.94
		c0.44,0.14,1.25,0.21,2.44,0.21h3.66c0.59,0,1.04,0.14,1.33,0.41c0.3,0.27,0.44,0.63,0.44,1.06c0,0.42-0.15,0.77-0.46,1.04
		c-0.31,0.27-0.74,0.41-1.32,0.41h-8.44c-0.56,0-0.97-0.12-1.25-0.36c-0.27-0.24-0.41-0.57-0.41-0.99c0-0.26,0.06-0.49,0.18-0.7
		c0.12-0.21,0.3-0.37,0.55-0.5C439.68,270.63,439.97,270.57,440.32,270.57"/>
	<path fill="#808787" d="M446.97,249.52c0.36,0,0.75,0.11,1.17,0.33c0.41,0.22,0.81,0.55,1.18,0.99c0.37,0.45,0.68,1.01,0.9,1.68
		c0.23,0.68,0.34,1.44,0.34,2.29c0,1.8-0.53,3.21-1.58,4.22c-1.05,1.01-2.46,1.52-4.23,1.52c-1.2,0-2.26-0.23-3.18-0.7
		c-0.92-0.46-1.63-1.13-2.13-2.01c-0.5-0.88-0.75-1.93-0.75-3.14c0-0.76,0.11-1.45,0.33-2.08c0.22-0.63,0.51-1.17,0.86-1.6
		c0.35-0.44,0.72-0.77,1.12-1.01c0.39-0.23,0.76-0.35,1.11-0.35c0.35,0,0.65,0.13,0.89,0.39c0.24,0.26,0.36,0.58,0.36,0.95
		c0,0.24-0.06,0.44-0.19,0.6c-0.12,0.16-0.33,0.34-0.6,0.54c-0.54,0.36-0.95,0.73-1.22,1.12c-0.27,0.39-0.41,0.88-0.41,1.48
		c0,0.86,0.34,1.56,1.01,2.09c0.67,0.53,1.6,0.79,2.77,0.79c0.55,0,1.05-0.07,1.51-0.2c0.46-0.13,0.85-0.33,1.18-0.59
		c0.32-0.26,0.57-0.57,0.74-0.93c0.17-0.36,0.25-0.76,0.25-1.2c0-0.58-0.14-1.09-0.41-1.5c-0.27-0.42-0.68-0.79-1.24-1.11
		c-0.33-0.18-0.58-0.37-0.77-0.58c-0.19-0.21-0.28-0.46-0.28-0.76c0-0.36,0.14-0.65,0.41-0.89
		C446.37,249.64,446.66,249.52,446.97,249.52"/>
	<path fill="#808787" d="M450.58,246.13c0,0.44-0.14,0.82-0.43,1.14c-0.28,0.32-0.68,0.48-1.2,0.48c-0.43,0-0.81-0.15-1.12-0.46
		c-0.31-0.31-0.47-0.68-0.47-1.13c0-0.45,0.16-0.83,0.47-1.15c0.31-0.32,0.69-0.48,1.13-0.48c0.51,0,0.9,0.16,1.19,0.48
		C450.44,245.33,450.58,245.7,450.58,246.13"/>
</g>
</svg>
