<?xml version="1.0" encoding="UTF-8" standalone="yes"?>
<svg version="1.2" baseProfile="tiny-ps" viewBox="0 0 80 80" xml:space="preserve" xmlns="http://www.w3.org/2000/svg">
  <title>First Harrison Bank</title>
  <path d="M58.9,54.59c-0.71-1.18-1.07-2.61-1.07-4.31V23.13H47.52v-3c0-0.89-0.97-1.45-1.74-1.01l-6.67,3.85l-6.67-3.85&#xA;&#x9;c-0.77-0.45-1.74,0.11-1.74,1.01v3H16.1v2.46l0.82,0.08c1.48,0.22,2.52,0.74,3.12,1.56c0.6,0.82,0.9,2.16,0.9,4.02v16.49&#xA;&#x9;c0,1.48,0.16,3.21,0.49,5.21c0.33,2,1.63,3.84,3.9,5.54c2.27,1.69,5,2.54,8.17,2.54c1.42,0,2.97-0.23,4.64-0.7&#xA;&#x9;c1.67-0.47,3.22-1.12,4.64-1.97c1.42-0.85,2.82-1.98,4.19-3.41c0.17,1.84,0.73,3.49,1.69,4.94l0.84,1.13c2.72-0.85,5-1.47,6.82-1.87&#xA;&#x9;c1.83-0.4,3.75-0.6,5.76-0.6v-2.22C60.68,56.35,59.61,55.76,58.9,54.59z M48.7,43.71c0,5.28-4.32,9.6-9.6,9.6&#xA;&#x9;c-5.28,0-9.6-4.32-9.6-9.6V28.57c0-1.65,0.44-3.19,1.18-4.55v4.2c0,0.89,0.97,1.45,1.74,1.01l6.67-3.85l6.67,3.85&#xA;&#x9;c0.77,0.45,1.74-0.11,1.74-1.01v-4.2c0.74,1.36,1.18,2.9,1.18,4.55V43.71z"/>
  <path d="M63.22,61.03c-0.38,0-0.68-0.31-0.68-0.68s0.31-0.68,0.68-0.68s0.68,0.31,0.68,0.68S63.59,61.03,63.22,61.03z M63.22,59.75&#xA;&#x9;c-0.33,0-0.6,0.27-0.6,0.6s0.27,0.6,0.6,0.6c0.33,0,0.6-0.27,0.6-0.6S63.55,59.75,63.22,59.75z"/>
  <path d="M63.23,60.43H63.1v0.28h-0.13v-0.72h0.25c0.08,0,0.15,0.02,0.19,0.06c0.05,0.04,0.07,0.09,0.07,0.16&#xA;&#x9;c0,0.05-0.01,0.09-0.03,0.12c-0.02,0.03-0.06,0.06-0.1,0.07l0.16,0.3v0.01h-0.13L63.23,60.43z M63.1,60.33h0.13&#xA;&#x9;c0.04,0,0.08-0.01,0.1-0.03c0.02-0.02,0.04-0.05,0.04-0.09c0-0.04-0.01-0.07-0.03-0.09c-0.02-0.02-0.05-0.03-0.1-0.03H63.1V60.33z"/>
  <circle cx="39.1" cy="46.34" r="1.6"/>
  <circle cx="39.1" cy="39.71" r="1.6"/>
  <circle cx="39.1" cy="33.07" r="1.6"/>
</svg>