<?xml version="1.0" encoding="utf-8"?>
<svg version="1.2" baseProfile="tiny-ps" xmlns="http://www.w3.org/2000/svg" xmlns:xlink="http://www.w3.org/1999/xlink" viewBox="0 0 170 170" xml:space="preserve">
<title>KANEKA CORPORATION</title>
<g>
	<rect y="0" fill="#0068B6" width="170" height="170"/>
	<path fill="#FFFFFF" d="M25.312,84.693l3.574,2.058c0.665,0.382,0.9,0.715,0.918,1.553l0.117,13.226h6.508l-0.105-13.198
		c-0.049-2.863-0.937-4.425-3.266-5.765l-1.066-0.613c-0.561-0.323-0.61-0.471-0.351-1.069l5.399-12.412h-6.52l-5.208,11.956V68.473
		h-6.601v33.058h6.601V84.693z"/>
	<path fill="#FFFFFF" d="M51.714,94.949c0,0.795-0.222,1.023-1.017,1.023h-1.658c-0.795,0-1.017-0.228-1.017-1.023v-6.644
		c0.006-0.838,0.259-1.171,0.924-1.553l2.767-1.602v-6.594l-6.946,4.012c-2.323,1.34-3.248,2.903-3.273,5.765v8.748
		c0,2.924,1.529,4.449,4.45,4.449h7.931c2.928,0,4.45-1.525,4.45-4.449V72.919c0-2.924-1.522-4.446-4.45-4.446H42.254v5.559h8.443
		c0.795,0,1.017,0.228,1.017,1.023V94.949z"/>
	<path fill="#FFFFFF" d="M74.8,74.032c0.795,0,1.017,0.228,1.017,1.023v26.476h6.613V72.919c0-2.924-1.522-4.446-4.45-4.446h-8.831
		c-2.921,0-4.45,1.522-4.45,4.446v28.611h6.607V75.055c0-0.795,0.228-1.023,1.029-1.023H74.8z"/>
	<path fill="#FFFFFF" d="M95.403,75.055c0-0.795,0.228-1.023,1.029-1.023h1.652c0.801,0,1.023,0.228,1.023,1.023v5.14
		c-0.006,0.838-0.259,1.171-0.925,1.553l-2.779,1.602v6.594l6.946-4.012c2.329-1.344,3.248-2.903,3.272-5.769v-7.245
		c0-2.924-1.516-4.446-4.443-4.446h-7.932c-2.921,0-4.443,1.522-4.443,4.446v24.162c0,2.924,1.522,4.449,4.443,4.449h11.636v-5.559
		h-8.449c-0.802,0-1.029-0.228-1.029-1.023V75.055z"/>
	<path fill="#FFFFFF" d="M144.675,94.949c0,0.795-0.228,1.023-1.023,1.023h-1.652c-0.795,0-1.023-0.228-1.023-1.023v-6.644
		c0.012-0.838,0.259-1.171,0.925-1.553l2.773-1.602v-6.594l-6.939,4.012c-2.33,1.34-3.254,2.903-3.272,5.765v8.748
		c0,2.924,1.516,4.449,4.443,4.449h7.932c2.927,0,4.449-1.525,4.449-4.449V72.919c0-2.924-1.522-4.446-4.449-4.446h-11.63v5.559
		h8.443c0.795,0,1.023,0.228,1.023,1.023V94.949z"/>
	<path fill="#FFFFFF" d="M118.274,84.693l3.574,2.058c0.666,0.382,0.9,0.715,0.912,1.553l0.117,13.226h6.527l-0.117-13.198
		c-0.056-2.863-0.943-4.425-3.266-5.765l-1.066-0.613c-0.567-0.323-0.616-0.471-0.357-1.069l5.405-12.412h-6.526l-5.202,11.956
		V68.473h-6.607v33.058h6.607V84.693z"/>
	<path fill="#FFFFFF" d="M85,85.001"/>
	<path fill="#FFFFFF" d="M151.288,68.473"/>
</g>
</svg>
