<?xml version="1.0" encoding="utf-8"?>
<svg version="1.2" baseProfile="tiny-ps" xmlns="http://www.w3.org/2000/svg" xmlns:xlink="http://www.w3.org/1999/xlink" viewBox="0 0 170 170" xml:space="preserve">
<title>TAIYO YUSHI CORP.</title>
  <g>
    <path d="M17.7,54h-6.8v27.3h6.8v-6.9c5.6,0,10.2-4.6,10.2-10.2s-4.6-10.2-10.2-10.2ZM17.7,67.6v-6.9c1.9,0,3.4,1.6,3.4,3.4s-1.6,3.4-3.4,3.4Z" fill="#00a95f"/>
    <path d="M39.7,55.2c-2,.7-3.7,1.8-5.2,3.1-4.2,3.4-6.8,8.6-6.8,14.4v8.5h6.8v-3h5.2v3h6.8v-27.3c-2.4,0-4.7.4-6.8,1.2ZM39.7,71.6h-5.2c.3-3.6,2.3-6.8,5.2-8.7v8.7Z" fill="#00a95f"/>
    <polygon points="62.3 67.6 68.9 54 61.4 54 58.4 60 55.5 54 48 54 54.6 67.6 48 81.4 55.5 81.4 58.4 75.3 61.4 81.4 68.9 81.4 62.3 67.6" fill="#00a95f"/>
    <polygon points="71.9 88.6 65.2 88.6 58.4 88.6 51.6 88.6 51.6 95.4 58.4 95.4 58.4 116 65.2 116 65.2 95.4 71.9 95.4 71.9 88.6" fill="#00a95f"/>
    <path d="M43.5,90c-1.9.7-3.7,1.8-5.2,3.1-4.2,3.4-6.8,8.6-6.8,14.4v8.5h6.8v-3h5.2v3h6.8v-27.3c-2.4,0-4.7.4-6.8,1.2ZM43.5,106.2h-5.2c.4-3.6,2.3-6.8,5.2-8.7v8.7Z" fill="#00a95f"/>
    <path d="M23,88.6v4.4c-1.6-1.4-3.3-2.4-5.2-3.1-2.1-.8-4.4-1.2-6.8-1.2v27.3h6.8v-18.5c3.1,2.2,5.2,5.8,5.2,9.9v8.5h6.8v-27.3h-6.8Z" fill="#00a95f"/>
    <path d="M125.3,88.6c-7.5,0-13.6,6.1-13.6,13.6s6.1,13.6,13.6,13.6,13.6-6.1,13.6-13.6-6.1-13.6-13.6-13.6ZM125.3,109.5c-3.9,0-7.1-3.2-7.1-7.1s3.1-7.1,7.1-7.1,7.1,3.1,7.1,7.1-3.1,7.1-7.1,7.1Z" fill="#00a95f"/>
    <path d="M85.9,88.6v17.6c0,1.7-1.4,3-2.9,3s-3-1.4-3-3v-17.6h-6.8v17.6c0,4.4,2.8,8,6.8,9.3.9.3,2,.4,3,.4s2-.2,2.9-.4c4-1.2,6.8-4.9,6.8-9.3v-17.6h-6.8Z" fill="#00a95f"/>
    <path d="M111,98.9c0-4.4-2.8-8.2-6.8-9.6-1.1-.4-2.3-.6-3.4-.6h-6.8v27.3h6.8v-6.9h.3c1.8.2,3.1,1.7,3.1,3.4v3.5h6.8v-3.5c0-2.6-1-5-2.6-6.8,1.6-1.8,2.6-4.2,2.6-6.8h0ZM100.8,95.4c1.9,0,3.4,1.6,3.4,3.4h0c0,1.8-1.4,3.2-3.1,3.4h-.3v-6.9Z" fill="#00a95f"/>
    <path d="M152.3,88.6v4.4c-1.6-1.4-3.3-2.4-5.3-3.1-2.1-.8-4.4-1.2-6.8-1.2v27.3h6.8v-18.5c3.2,2.2,5.3,5.8,5.3,9.9v8.5h6.8v-27.3h-6.8Z" fill="#00a95f"/>
  </g>
</svg>