<?xml version="1.0" encoding="UTF-8" standalone="yes"?>
<svg baseProfile="tiny-ps" version="1.2" viewBox="0 0 80 80" xmlns="http://www.w3.org/2000/svg">
  <title>bimi-svg-tiny-12-ps</title>
  <rect width="80" height="80" fill="#fff"/>
  <path d="M13.8,40.9h0s-.9-.9-.9-.9l1.5-1.5-6.3-6.3-6.3,6.3,1.5,1.5-1.5,1.5,6.3,6.3.6-.6,5.8-5.7-.6-.6ZM12.4,42.3h0s-.6.6-.6.6l-.9.9-.5.5-.8.8-.6.6-.9.9-5.4-5.4.9-.9,4.5,4.5,1.9-1.9-4.5-4.5-.5.5,4,4-.8.8-5.2-5.2,1.3-1.3,3.9-3.9,5.2,5.2-1,1-4.3-4.3-1.9,1.9,4.8,4.8.6-.6-4.5-4.5.8-.8,5.4,5.4-.8.8Z"/>
  <path d="M17.1,42.6h3.8c0,0,.2,0,.3-.1,0,0,.1-.2.1-.3v-.4c0-.2,0-.4-.3-.5h-2.5c-.2,0-.3,0-.5,0-.2,0-.3-.2-.4-.3-.1-.1-.2-.2-.3-.4,0-.1-.1-.3-.1-.4v-1.9c0-.1,0-.3.1-.4,0-.1.2-.3.3-.4.1-.1.3-.2.4-.3.2,0,.3,0,.5,0h4.6v1.4h-3.8c0,0-.2,0-.3.1,0,0-.1.2-.1.3v.4c0,.2,0,.3.1.3,0,0,.1.1.2.1h2.5c.1,0,.3,0,.5,0,.2,0,.3.2.5.3.1.1.2.2.3.4,0,.1.1.3.1.4v1.9c0,.1,0,.3-.1.4,0,.1-.2.3-.3.4-.1.1-.3.2-.5.3-.2,0-.3,0-.5,0h-4.6v-1.4Z"/>
  <path d="M23.8,37.1h1.8v5.1c0,.2,0,.3.1.3,0,0,.2,0,.3,0h2c0,0,.2,0,.3-.1,0,0,.1-.2.1-.3v-5.1h1.8v5.8c0,.1,0,.3-.1.4,0,.1-.2.3-.3.4-.1.1-.3.2-.5.3-.2,0-.3,0-.5,0h-3.6c-.2,0-.3,0-.5,0-.2,0-.3-.2-.4-.3-.1-.1-.2-.2-.3-.4,0-.1-.1-.3-.1-.4v-5.8Z"/>
  <path d="M32.5,38.6v5.5h-1.8v-7h5c.1,0,.3,0,.5,0,.2,0,.3.2.5.3.1.1.2.2.3.4,0,.1.1.3.1.4v5.8h-1.8v-5.1c0-.2,0-.3-.1-.3,0,0-.2-.1-.3-.1h-2.4Z"/>
  <path d="M46.2,44.1h-1.8v-7h5c.1,0,.3,0,.5,0,.2,0,.3.2.5.3.1.1.2.2.3.4,0,.1.1.3.1.4v1.9c0,.1,0,.3-.1.4,0,.1-.2.3-.3.4-.1.1-.3.2-.5.3-.2,0-.3,0-.5,0l1.4,2.8h-1.9l-2.1-4.2h1.9c0,0,.2,0,.3-.1,0,0,.1-.2.1-.3v-.4c0-.2,0-.3-.1-.3,0,0-.2-.1-.3-.1h-2.4v5.5Z" fill="#efb911"/>
  <path d="M51.5,37.1h1.8v2.3c0,.2,0,.3.1.3,0,0,.2,0,.3,0h2v-2.7h1.8v5.8c0,.1,0,.3-.1.4,0,.1-.2.3-.3.4-.1.1-.3.2-.5.3-.2,0-.3,0-.5,0h-4.6v-1.4h3.8c.1,0,.2,0,.3,0,0,0,.1-.2.1-.3v-.9h-2.8c-.2,0-.3,0-.5,0-.2,0-.3-.2-.4-.3-.1-.1-.2-.2-.3-.4,0-.1-.1-.3-.1-.4v-3Z" fill="#efb911"/>
  <path d="M60,44.1h-1.8v-7h5c.1,0,.3,0,.5,0,.2,0,.3.2.5.3.1.1.2.2.3.4,0,.1.1.3.1.4v1.9c0,.1,0,.3-.1.4,0,.1-.2.3-.3.4-.1.1-.3.2-.5.3-.2,0-.3,0-.5,0h-1.9l-.7-1.4h1.9c0,0,.2,0,.3-.1,0,0,.1-.2.1-.3v-.4c0-.2,0-.3-.1-.3,0,0-.2-.1-.3-.1h-2.4v5.5Z" fill="#efb911"/>
  <path d="M78.2,37.9c0-.1-.2-.3-.3-.4s-.3-.2-.5-.3c-.2,0-.3,0-.5,0h-3.6c-.2,0-.3,0-.5,0-.2,0-.3.2-.4.3-.1.1-.2.2-.3.4s-.1.3-.1.4v4.6c0,.1,0,.3.1.4s.2.3.3.4c.1.1.3.2.4.3.2,0,.3,0,.5,0h3.6c.1,0,.3,0,.5,0,.2,0,.3-.2.5-.3s.2-.2.3-.4.1-.3.1-.4v-4.6c0-.1,0-.3-.1-.4ZM76.5,42.2c0,.2,0,.3-.1.3,0,0-.2.1-.3.1h-2c-.1,0-.2,0-.3,0,0,0-.1-.2-.1-.3v-3.2c0-.2,0-.3.1-.3,0,0,.2,0,.3,0h2c0,0,.2,0,.3.1,0,0,.1.2.1.3v3.2Z" fill="#efb911"/>
  <path d="M39.4,42.2c0,.2,0,.3.1.3,0,0,.2,0,.3,0h1.9c0,0,.2,0,.2-.1,0,0,.1-.2.1-.3v-.6h1.7v1.3c0,.1,0,.3-.1.4,0,.1-.2.3-.3.4-.1.1-.3.2-.4.3-.2,0-.3,0-.4,0h-3.4c-.1,0-.3,0-.5,0-.2,0-.3-.2-.4-.3s-.2-.2-.3-.4c0-.1-.1-.3-.1-.4v-4.6c0-.1,0-.3.1-.4,0-.1.2-.3.3-.4.1-.1.3-.2.4-.3.2,0,.3,0,.5,0h3.4c.1,0,.3,0,.4,0,.2,0,.3.2.4.3.1.1.2.2.3.4,0,.1.1.3.1.4v1.3h-1.7v-.6c0-.2,0-.3-.1-.3s-.2-.1-.2-.1h-1.9c-.1,0-.2,0-.3,0,0,0-.1.2-.1.3v3.2Z" fill="#efb911"/>
  <path d="M18.7,45.2c19.1-.2,38.1-.2,57.2,0-19.1.2-38.1.2-57.2,0h0Z"/>
  <polygon points="8 46.7 8.9 45.7 8 46.7 2.6 41.3 8 46.7" fill="#edb81d"/>
  <polygon points="11.8 42.9 10.9 43.8 10.3 44.3 10.9 43.8 11.8 42.9" fill="#edb81d"/>
  <polygon points="8 35.2 6.1 37.1 10.9 41.9 11.8 42.9 10.9 43.8 10.3 44.3 9.5 45.1 8.9 45.7 8 46.7 2.6 41.3 3.6 40.4 8 44.8 10 42.9 5.5 38.4 4.2 37.1 8.1 33.3 13.3 38.5 12.3 39.5 8 35.2" fill="#efb911"/>
  <polygon points="67.4 38.6 65.4 38.6 65.4 37.1 71.1 37.1 71.1 38.6 69.2 38.6 69.2 44.1 67.4 44.1 67.4 38.6" fill="#efb911"/>
</svg>