<?xml version="1.0" encoding="utf-8"?>
<!-- Generator: Adobe Illustrator 28.1.0, SVG Export Plug-In . SVG Version: 6.00 Build 0)  -->
<svg version="1.2" baseProfile="tiny-ps" id="Layer_1" xmlns="http://www.w3.org/2000/svg" xmlns:xlink="http://www.w3.org/1999/xlink"
	viewBox="0 0 1000 1000" xml:space="preserve">
<title>Tractive</title>
<g>
	<path fill="#0A81D7" d="M619.7,518.4c-8-19.6-36.3-24.8-49.9-38.3c-28.2-28.3-21.4-74.9-69.9-77.6c-48.4,2.7-41.7,49.3-69.9,77.6
		c-13.5,13.6-41.7,18.7-49.9,38.3c-9.7,24.2,6.4,46.1,18.5,55.5c24.4,18.9,63.8,0.2,90.2-2.5c3.7-0.4,7.4-0.5,11-0.5
		c3.7-0.1,7.4,0.1,11,0.5c26.3,2.7,65.7,21.4,90.2,2.5C613.5,564.4,629.6,542.7,619.7,518.4"/>
	<path fill="#0A81D7" d="M643,411.9c-6.4,24-26.1,39.5-44,34.7c-17.9-4.8-27.2-28.2-20.8-52.2s26.1-39.5,44-34.7
		C640.1,364.5,649.4,387.9,643,411.9"/>
	<path fill="#0A81D7" d="M421.6,394.5c6.4,24-2.9,47.3-20.8,52.2c-17.9,4.9-37.6-10.7-44-34.7c-6.4-24,2.9-47.3,20.8-52.2
		C395.7,355,415.1,370.5,421.6,394.5"/>
	<path fill="#0A81D7" d="M487.7,325.7c6.4,24-2.9,47.3-20.8,52.2c-17.9,4.9-37.6-10.7-43.8-34.7c-6.4-24,2.9-47.3,20.8-52.2
		C461.7,286.2,481.4,301.7,487.7,325.7"/>
	<path fill="#0A81D7" d="M577,343.2c-6.4,24-26.1,39.5-44,34.7c-17.9-4.8-27.2-28.2-20.8-52.2c6.4-24,26.1-39.5,44-34.7
		C574.2,295.8,583.4,319.2,577,343.2"/>
	<path fill="#0A81D7" d="M500.1,74c-204.7,0-370.5,165.8-370.5,370.5c0,197.5,172.8,321,172.8,321L499.9,926l197.6-160.6
		c0,0,172.8-123.5,172.8-321.1C870.4,239.8,704.6,74,500.1,74 M500.1,691.4c-136.4,0-246.9-110.5-246.9-246.9
		s110.5-247.1,246.9-247.1S747,307.9,747,444.4S636.3,691.4,500.1,691.4"/>
</g>
</svg>
