<?xml version="1.0" encoding="UTF-8" standalone="yes"?>
<svg width="233" height="233" viewBox="0 0 233 113" fill="none" version="1.2" baseProfile="tiny-ps" xmlns="http://www.w3.org/2000/svg">
  <title>bimi-svg-tiny-12-ps</title>
  <g>
    <path fill-rule="evenodd" d="M109.975 111.185H98.1931V0.600098H109.975V111.185ZM0.324219 111.185H11.8251L21.5024 81.7144H62.877L72.6949 111.185H84.7572L50.8153 8.89647H34.8264L0.324219 111.185ZM42.2577 19.1977L59.6491 71.8432H24.8664L42.2577 19.1977ZM130.425 111.185H142.206V0.600098H130.425V111.185ZM223.179 89.5831C220.654 104.605 208.452 112.472 191.902 112.472C171.145 112.472 156.418 97.5947 156.418 74.5613V73.4172C156.418 50.8139 170.584 35.0764 190.78 35.0764C207.75 35.0764 223.739 45.5204 223.739 72.2732V76.1354H168.48C169.041 93.1597 177.035 102.601 192.042 102.601C203.403 102.601 209.995 98.3103 211.538 89.5831H223.179ZM168.897 66.5513C170.861 53.2464 178.855 44.9492 190.776 44.9492C202.838 44.9492 210.692 51.1011 211.814 66.5513H168.897ZM172.407 9.32648V18.4821H209.154V9.32648H172.407Z" fill="#090909"/>
    <path d="M224.7 109.553H225.71V107.723H226.192L227.308 109.553H228.358L227.14 107.55C227.686 107.377 228.085 106.99 228.085 106.279V106.258C228.085 105.289 227.392 104.837 226.32 104.837H224.7V109.553ZM225.71 107.012V105.633H226.298C226.802 105.633 227.098 105.805 227.098 106.301V106.322C227.098 106.774 226.824 107.012 226.298 107.012H225.71ZM226.298 111.233C224.154 111.233 222.473 109.64 222.473 107.271C222.473 104.922 224.07 103.264 226.298 103.264C228.526 103.264 230.123 104.9 230.123 107.249C230.123 109.597 228.463 111.233 226.298 111.233ZM226.298 112.009C228.905 112.009 230.965 109.941 230.965 107.249C230.965 104.599 228.947 102.488 226.298 102.488C223.691 102.488 221.631 104.621 221.631 107.271C221.631 109.962 223.713 112.009 226.298 112.009Z" fill="#090909"/>
  </g>
  <defs/>
</svg>