<svg xmlns="http://www.w3.org/2000/svg" xmlns:xlink="http://www.w3.org/1999/xlink" version="1.2" viewBox="0 0 960 960" baseProfile="tiny-ps">
<title>Excedo Networks AB</title>
   <g id="object">
    <path d="M183.68,430.74c-6.41,1.09-13.58,4.75-21.51,10.73C150.06,452.3,144,465.42,144,480.71   c0,7.08,1.33,13.78,3.99,20.05c5.46,12.54,14.51,22.01,27.14,27.52c5.65,2.85,14.34,4.72,26.07,4.72H245v-20h-46.07   c-6.37,0-11.38-1.24-15.03-2.9c-3.33-1.19-6.89-3.81-10.69-7.47c-5.79-6.79-8.69-14.16-8.69-21.9c0-2.23,0.36-4.94,1.07-8.03   c3.23-9.12,7.88-15.51,13.96-18.69c4.46-3.18,11.02-5.01,19.66-5.01H245v-20h-42.87C193.11,429,186.96,429.74,183.68,430.74z" fill="#E37222"/>
    <rect x="192" y="471" width="53" height="20" fill="#E37222"/>
    <polygon points="341.66,427 311.88,462.69 282.1,427 258.88,427 299.34,479 258.88,531 282.1,531    311.88,495.31 341.66,531 364.89,531 324.42,479 365.03,427  " fill="#D14414"/>
    <path d="M414.72,430.17c-5.65,0.67-11.95,3.14-18.88,7.17c-3.85,2.38-7.96,6.07-12.32,10.96   c-7.69,9.55-11.54,20.43-11.54,32.59c0,7.12,1.38,13.86,4.13,20.18c5.41,12.3,14.32,21.62,26.71,27.08   c5.75,2.95,14.58,4.86,26.5,4.86h43.67l2.01-1.29V513h-47.81c-5.23,0-9.22-0.86-11.97-1.76c-7.46-2.52-12.89-6.47-16.31-11.46   c-4.23-6.31-6.34-12.57-6.34-18.55c0-6.03,1.83-12.02,5.49-17.86c2.23-3.37,4.72-6.17,7.48-7.93c5.03-4.13,12.25-6.44,21.66-6.44   H475v-20h-36.49C424.64,429,416.71,429.55,414.72,430.17z" fill="#E37222"/>
    <path d="M525.64,430.74c-6.41,1.09-13.58,4.75-21.52,10.73c-12.11,10.83-18.17,23.95-18.17,39.24   c0,7.08,1.33,13.78,3.99,20.05c5.46,12.54,14.51,22.01,27.14,27.52c5.65,2.85,14.34,4.72,26.07,4.72H588v-20h-47.11   c-6.37,0-11.38-1.24-15.03-2.9c-3.32-1.19-6.89-3.81-10.69-7.47c-5.8-6.79-8.69-14.16-8.69-21.9c0-2.23,0.36-4.94,1.07-8.03   c3.23-9.12,7.88-15.51,13.96-18.69c4.46-3.18,11.02-5.01,19.66-5.01H588v-20h-43.91C535.07,429,528.92,429.74,525.64,430.74z" fill="#E37222"/>
    <rect x="535" y="471" width="53" height="20" fill="#E37222"/>
    <path d="M679.45,437.46c-7.03-4.04-13.35-6.63-18.95-7.29c-2.04-0.62-9.97-1.17-23.79-1.17H599v20h49.1   c9.36,0,16.55,2.28,21.59,6.41c2.75,1.76,5.27,4.43,7.55,7.8c3.66,5.84,5.49,11.83,5.49,17.86c0,5.98-2.11,12.16-6.34,18.48   c-3.46,4.99-8.93,9.16-16.38,11.67c-2.8,0.9-6.77,1.77-11.9,1.77H599v18.71l3.22,1.29h43.67c11.92,0,20.76-1.9,26.5-4.85   c12.4-5.46,21.3-14.56,26.71-26.86c2.75-6.32,4.13-13.14,4.13-20.27c0-12.16-3.85-23.07-11.54-32.61   C687.38,443.52,683.3,439.83,679.45,437.46z" fill="#E37222"/>
    <path d="M805.79,449.65C794.63,436.73,781.78,431,766.01,431h-0.71c-3.52,0-6.37-0.49-8.55-0.01   c-7.12,0.76-15.97,3.86-24.62,10.04c-12.78,11.01-20.13,23.9-20.13,39.39v0.71c0,5.46,1.89,11.04,3.74,16.74   c1.57,4.56,4.78,10,8.67,15.46c11.16,12.82,25.06,19.67,40.73,19.67h0.71c11.45,0,21.35-3.99,30.95-11.12   c13.2-11.02,19.19-24.84,19.19-40.61v-0.71C816,469.16,813.01,459.34,805.79,449.65z M795.29,490.03   c-2.09,6.7-6.08,12.61-11.97,16.93c-5.7,3.75-11.3,6.03-16.81,6.03h-1.99c-6.84,0-13.37-3.06-19.59-8.38   c-6.98-6.74-10.47-14.78-10.47-23.71c0-3.32,0.67-6.94,1.99-10.64c0.76-2.66,2.59-5.94,5.49-9.74   c6.88-7.41,14.77-11.14,23.65-11.14c7.6,0,14.58,2.82,20.95,8.46c6.79,6.7,10.19,14.41,10.19,23.15   C796.43,485.27,795.95,488.28,795.29,490.03z" fill="#E37222"/>
  </g>
</svg>