<?xml version="1.0" encoding="utf-8"?>
<!-- Generator: Adobe Illustrator 24.2.3, SVG Export Plug-In . SVG Version: 6.00 Build 0)  -->
<svg version="1.2" baseProfile="tiny-ps" id="Layer_1" xmlns="http://www.w3.org/2000/svg" xmlns:xlink="http://www.w3.org/1999/xlink"
	  viewBox="0 0 1020 1020" xml:space="preserve">
<title>Erie Insurance</title>
<g>
	<polygon fill="none" points="1021.8,1023.7 -2.2,1023.7 -2.2,1056.7 1054.8,1056.7 1054.8,-0.3 1021.8,-0.3 	"/>
	<rect x="-2.2" y="-0.3" fill="#4478BC" width="1024" height="1024"/>
</g>
<g>
	<path fill="none" d="M825.4,697.7c0-4.3-4.4-8.7-8.7-11.6L451.3,459.4c-7.3-4.3-13.1-7.3-17.4-7.3c-4.4,0-8.7,1.4-14.6,8.7
		L189.4,732.3c-5.9,6.9-1.7,13.5,2.9,16.4c0,0,25.1,16.1,27.6,17.7c2.3,1.4,5.3,1,7.1-1.2l184.5-217.7c6.2-7.2,7.8-9.7,10.8-9.7
		c4.4,0,5.8,2.9,5.8,8.7v4.4c0,5.8,0,8.7,7.3,13.1l333.3,209.3c4.4,2.9,13.1,1.4,13.1-7.3v-30.5l36.4-26.1
		C823.9,705,825.4,703.5,825.4,697.7z"/>
	<path fill="none" d="M392.4,368.7v79.2c0,5.9,4.5,8.8,9,2.9l15.1-16.1c3-2.9,3-4.4,3-10.3v-55.8c0-8.8-3-17.6-13.6-17.6
		C395.4,351.1,392.4,359.9,392.4,368.7z"/>
	<path fill="none" d="M575.8,691.1c-26.9,0-35.8,17.8-35.8,32.6c0,16.3,9,29.6,16.4,40c6,8.9,15,14.8,20.9,14.8
		c4.5,0,7.5,0,11.9-1.5l55.3-14.8c7.5-1.5,11.9-4.4,11.9-10.4c0-4.4-1.5-8.9-8.9-19.3C634.1,714.8,611.7,691.1,575.8,691.1z"/>
	<path fill="none" d="M474.5,316.1c-11.4,0-19.9,11.8-19.9,23.6v85.5c0,10.3,1.4,13.3,4.3,14.7l29.9,19.2c2.8,1.5,8.5,1.5,8.5-5.9
		l-1.4-113.5C495.8,327.9,487.3,316.1,474.5,316.1z"/>
	<path fill="none" d="M540,365.2v118.5c0,5.9,1.4,7.3,4.3,8.8l20.1,13.2c2.9,1.5,8.6,1.5,8.6-4.4V365.2c0-13.2-4.3-21.9-15.8-21.9
		C545.7,343.3,540,352.1,540,365.2z"/>
	<path fill="none" d="M367.3,331c1.5,0,1.5,1.5,4.4,0l36.7-43.1L523,267.1l85.2,59.5c1.5,1.5,4.4,1.5,5.9,0l10.3-11.9
		c1.5-1.5,1.5-3,0-4.5l-10.3-8.9l-26.4-47.5l-58.7-38.6L429,231.4c-4.4,1.5-4.4,1.5-4.4,5.9c0,3,2.9,3,5.9,3l85.2-13.4
		c2.9,0,5.9,1.5,5.9,8.9c0,7.4,0,8.9-7.3,10.4l-110.1,17.8l-45.5,55c-1.5,1.5-1.5,3,0,4.4L367.3,331z"/>
	<path fill="none" d="M860.2,1065.1c8.8,4.4,8.8,14.6-2.9,14.6h77.5c-7.3,0-11.7-1.5-20.4-7.3l-75.5-48.7h-43.1L860.2,1065.1z"/>
	<path fill="none" d="M55.5,1074c-2.3,2.8-7.1,5.7-10.7,5.7h58.1c-7.3,0-6.2-6.6-3.7-10.2l38.3-45.8h-40L55.5,1074z"/>
	<path fill="none" d="M598.3,1062.1c5.9,4.4,8.8,7.3,8.8,10.1c0,5.8-2.9,7.2-11.7,7.2l-219.1,0.2h284c-10.2,0-13.1-1.5-21.8-7.2
		l-76.1-48.8h-24.7L598.3,1062.1z"/>
	<path fill="none" d="M982.4,1023.7h-57.5l64,41.4c4.4,2.9,5.8,5.8,5.8,7.3c0,5.8-4.4,7.3-14.5,7.3h97.7c-5.5,0-9.5-1-15-4.2
		L982.4,1023.7z"/>
	<path fill="none" d="M354.2,1062.3v-38.6H218l-41.6,48.6c-2.9,2.9-6.6,7.4-15.1,7.4h213.3C361.5,1079.7,354.2,1073.9,354.2,1062.3z
		"/>
	<path fill="#FFFFFF" d="M354.2,923.9c0-8.7,2.9-10.1,5.8-10.1c4.4,0,8.8,2.9,13.1,5.8l164.5,104.2h24.7L361.5,895
		c-7.3-4.4-7.3-4.4-7.3-11.6v-5.8c0-4.4-1.5-5.8-4.4-5.8c-2.9,0-7.3,5.8-11.7,11.6L218,1023.7h136.2V923.9z"/>
	<path fill="#FFFFFF" d="M815.3,916V750.5l51.1-39.4c7.3-4.4,10.2-10.2,10.2-16c0-2.9-2.9-8.7-10.2-13.1L606.5,517.2v-140l46.7-54
		c4.4-5.8,5.9-8.7,5.9-11.7c0-2.9,0-5.8-4.4-8.8l-21.9-16l-26.3-48.2l-77.4-54l-30.7,4.4V41.6c2.9-2.9,4.4-5.8,4.4-8.8
		c0-5.8-4.4-10.2-10.2-10.2c-4.4,0-10.2,4.4-10.2,10.2c0,2.9,1.5,5.8,4.4,8.8v148.8l-67.2,10.2l-94.9,110.8
		c-4.4,5.8-5.8,7.3-5.8,11.7c0,2.9,1.5,8.8,5.8,11.7l33.6,30.6v115.2L148.8,729.1c-7.3,8.5-10.2,13.7-10.2,16.6
		c0,5.8,0.1,8.6,10.2,15.1l46,29.5v117.2l-97.2,116.1h40l216.3-258.6v-11.7c0-8.7,4.4-10.2,11.7-5.8l430.1,276.1h43.1l-403.2-260
		c-4.4-2.9-7.3-4.4-7.3-10.2v-35c0-11.7,5.8-11.7,13.2-7.3l483.3,312.6h57.5L815.3,916z M358.5,319.1l45.5-55l110.1-17.8
		c7.3-1.5,7.3-3,7.3-10.4c0-7.4-2.9-8.9-5.9-8.9l-85.2,13.4c-2.9,0-5.9,0-5.9-3c0-4.4,0-4.4,4.4-5.9l99.9-16.4l58.7,38.6l26.4,47.5
		l10.3,8.9c1.5,1.5,1.5,3,0,4.5L614,326.5c-1.5,1.5-4.4,1.5-5.9,0L523,267.1l-114.5,20.8L371.8,331c-2.9,1.5-2.9,0-4.4,0l-8.8-7.4
		C357.1,322,357.1,320.6,358.5,319.1z M573,365.2v136.1c0,5.8-5.7,5.8-8.6,4.4l-20.1-13.2c-2.9-1.5-4.3-2.9-4.3-8.8V365.2
		c0-13.2,5.7-21.9,17.2-21.9C568.7,343.3,573,352.1,573,365.2z M497.2,453.2c0,7.4-5.7,7.4-8.5,5.9l-29.9-19.2
		c-2.8-1.5-4.3-4.4-4.3-14.7v-85.5c0-11.8,8.6-23.6,19.9-23.6c12.8,0,21.4,11.8,21.4,23.6L497.2,453.2z M419.6,368.7v55.8
		c0,5.9,0,7.3-3,10.3l-15.1,16.1c-4.5,5.9-9,2.9-9-2.9v-79.2c0-8.8,3-17.6,13.6-17.6C416.6,351.1,419.6,359.9,419.6,368.7z
		 M644.5,762.2l-55.3,14.8c-4.5,1.5-7.5,1.5-11.9,1.5c-6,0-15-5.9-20.9-14.8c-7.4-10.4-16.4-23.7-16.4-40c0-14.8,9-32.6,35.8-32.6
		c35.9,0,58.3,23.7,71.7,41.5c7.5,10.4,8.9,14.8,8.9,19.3C656.5,757.8,652,760.7,644.5,762.2z M781.7,766c0,8.7-8.7,10.2-13.1,7.3
		L435.3,564c-7.3-4.4-7.3-7.3-7.3-13.1v-4.4c0-5.8-1.5-8.7-5.8-8.7c-2.9,0-4.6,2.4-10.8,9.7L227,765.2c-1.9,2.1-4.9,2.6-7.1,1.2
		c-2.4-1.5-27.6-17.7-27.6-17.7c-4.5-3-8.7-9.5-2.9-16.4l229.9-271.5c5.8-7.3,10.2-8.7,14.6-8.7c4.4,0,10.2,2.9,17.4,7.3
		l365.3,226.7c4.4,2.9,8.7,7.3,8.7,11.6c0,5.8-1.4,7.3-7.3,11.7l-36.4,26.1V766z"/>
</g>
</svg>
