<?xml version="1.0" encoding="utf-8"?>
<!-- Generator: Adobe Illustrator 27.5.0, SVG Export Plug-In . SVG Version: 6.00 Build 0)  -->
<svg version="1.2" baseProfile="tiny-ps" id="Layer_1" xmlns="http://www.w3.org/2000/svg" xmlns:xlink="http://www.w3.org/1999/xlink" viewBox="0 0 121.9 121.9" xml:space="preserve">
<title>NARDI S.p.A.</title>
<rect fill="#FFFFFF" width="121.9" height="121.9"/>
<path d="M33.2,49v23.9h-5L17.7,59.1v13.7h-5.9V49h5.4l10.2,13.3V49H33.2z M66,60.2h4.7c2.2,0,3.5-1,3.5-2.8v-0.1
	c0-2.3-1.9-2.8-3.6-2.8H66V60.2z M80.3,57.1c0,3.4-1.7,6-4.7,7.3l5.8,8.5h-7.1l-5-7.4H66v7.4h-6V49h11.1c3,0,5.5,0.9,7.1,2.5
	C79.5,52.8,80.3,54.8,80.3,57.1L80.3,57.1 M88.3,67.4h3.5c3.9,0,6.5-2.6,6.5-6.4v-0.1c0-3.9-2.6-6.5-6.5-6.5h-3.5V67.4z M91.8,49
	c7.4,0,12.8,5,12.8,11.9v0.1c0,6.9-5.4,12-12.8,12h-9.5V49H91.8 M105.3,72.9h6V49h-6V72.9z M44.4,63.5h4.3l-2.1-6.7L44.4,63.5z
	 M49.6,49l9.8,23.9h-7.1l-1.7-4.3h-8.2l-1.7,4.3h-6.9L43.6,49H49.6z"/>
</svg>
