<?xml version="1.0" encoding="utf-8"?>
<!-- Generator: Adobe Illustrator 28.0.0, SVG Export Plug-In . SVG Version: 6.00 Build 0)  -->
<svg version="1.2" baseProfile="tiny-ps" id="Layer_1" xmlns="http://www.w3.org/2000/svg" xmlns:xlink="http://www.w3.org/1999/xlink"
	 viewBox="0 0 1080 1080" xml:space="preserve">
<title>Shuttlerock</title>
<rect x="-134.1" y="-86" fill="#FFFFFF" width="1322.7" height="1242.7"/>
<path fill="#E91D2E" d="M638.6,844.6c-14.9,15.5-14.5,40.2,1,55.1c7.6,7.3,17.3,10.9,27.1,10.9c10.2,0,20.4-4,28.1-11.9l134.7-139.8
	c14.9-15.5,14.5-40.2-1-55.1c-15.5-14.9-40.1-14.5-55.1,1L638.6,844.6z M581.7,684.3c-15.1,15.4-14.9,40,0.5,55.1
	c7.6,7.5,17.5,11.2,27.3,11.2c10.1,0,20.2-3.9,27.8-11.7L908,463.7c15.1-15.4,14.9-40-0.5-55.1c-15.4-15.1-40.1-14.9-55.1,0.5
	L581.7,684.3z M389.4,307.8c15.6-14.9,16.1-39.6,1.2-55.1c-14.9-15.6-39.6-16.1-55.1-1.2L172.9,407.4c-15.5,14.9-16.1,39.6-1.2,55.1
	c7.6,8,17.9,12,28.1,12c9.7,0,19.4-3.6,27-10.8L389.4,307.8z M683.6,237.7c15.4-15,15.7-39.7,0.6-55.1s-39.7-15.7-55.1-0.6
	L355.4,449.5c-15.4,15-15.7,39.7-0.7,55.1c7.6,7.8,17.8,11.7,27.9,11.7c9.8,0,19.7-3.7,27.2-11.1L683.6,237.7z M905.7,235.9
	c15.2-15.2,15.1-39.9-0.2-55.1c-15.2-15.2-39.9-15.1-55.1,0.1L375.1,658.6c-15.2,15.3-15.1,39.9,0.2,55.1
	c7.6,7.6,17.6,11.3,27.5,11.3c10,0,20-3.8,27.7-11.5L905.7,235.9z"/>
</svg>
