<?xml version="1.0" encoding="utf-8"?>
<!-- Generator: Adobe Illustrator 28.0.0, SVG Export Plug-In . SVG Version: 6.00 Build 0)  -->
<svg version="1.2" baseProfile="tiny-ps" xmlns:xlink="http://www.w3.org/1999/xlink" viewBox="0 0 432 432" xmlns="http://www.w3.org/2000/svg">
  <title>CEUfast</title>
<g>
	<path fill="none" d="M60.6,208.1c0,10.9-8.9,19.8-19.8,19.8c-10.9,0-19.8-8.9-19.8-19.8c0-10.9,8.9-19.8,19.8-19.8   C51.7,188.4,60.6,197.2,60.6,208.1z" />
	<path fill="none" d="M91,208.1c0,10.9-8.9,19.8-19.8,19.8c-10.9,0-19.8-8.9-19.8-19.8c0-10.9,8.9-19.8,19.8-19.8   C82.2,188.4,91,197.2,91,208.1z" />
	<path fill="none" d="M59.9,161.7l16.1,3.6C70.9,163.2,65.5,162,59.9,161.7z" />
	<path fill="none" d="M25.2,184.7L15,182.5c-6.6,8.7-10.5,19.6-10.5,31.4c0,28.9,23.4,52.3,52.3,52.3c28.9,0,52.3-23.4,52.3-52.3   c0-11.9-4-22.9-10.7-31.7l-10,2.1L25.2,184.7z" />
	<path fill="none" d="M36.4,165.7l18.9-4.1C48.6,161.8,42.2,163.2,36.4,165.7z" />
	<path fill="#003963" d="M55.2,161.6l2.2-0.5l2.4,0.5c5.7,0.3,11.1,1.6,16.1,3.6l12.4,2.7c-9-6.1-19.9-9.6-31.6-9.6   c-11.9,0-22.9,3.6-32,9.8l11.6-2.5C42.2,163.2,48.6,161.8,55.2,161.6z" />
	<path fill="#003963" d="M98.3,182.1c6.7,8.8,10.7,19.8,10.7,31.7c0,28.9-23.4,52.3-52.3,52.3c-28.9,0-52.3-23.4-52.3-52.3   c0-11.8,3.9-22.7,10.5-31.4l-4-0.9c-6.9,9.4-11,21-11,33.5c0,31.4,25.4,56.8,56.8,56.8c31.4,0,56.8-25.4,56.8-56.8   c0-12.7-4.2-24.4-11.2-33.8L98.3,182.1z" />
	<path fill="none" d="M45.4,263.3c-0.2-0.1-0.4-0.2-0.5-0.3C45.1,263.2,45.2,263.3,45.4,263.3z" />
	<path fill="none" d="M48.8,264.7c-0.2-0.1-0.5-0.2-0.7-0.2C48.4,264.6,48.6,264.7,48.8,264.7z" />
	<path fill="none" d="M58.5,266c-0.6,0-1.2,0.1-1.8,0.1C57.3,266,57.9,266,58.5,266z" />
	<path fill="none" d="M50.6,265.2c-0.3-0.1-0.5-0.1-0.8-0.2C50.1,265.1,50.3,265.2,50.6,265.2z" />
	<path fill="none" d="M52.4,265.6c-0.3-0.1-0.6-0.1-0.9-0.2C51.8,265.5,52.1,265.6,52.4,265.6z" />
	<path fill="none" d="M56.7,266c-0.6,0-1.2,0-1.8-0.1C55.5,266,56.1,266,56.7,266z" />
	<path fill="none" d="M54.3,265.9c-0.4,0-0.7-0.1-1.1-0.1C53.6,265.8,53.9,265.9,54.3,265.9z" />
	<path fill="none" d="M47.1,264.1c-0.2-0.1-0.4-0.2-0.6-0.3C46.7,263.9,46.9,264,47.1,264.1z" />
	<path fill="none" d="M36.1,256.4c-0.1-0.1-0.1-0.1-0.2-0.2C36,256.3,36.1,256.4,36.1,256.4z" />
	<path fill="none" d="M37.6,257.8c-0.1-0.1-0.1-0.1-0.2-0.2C37.4,257.7,37.5,257.8,37.6,257.8z" />
	<path fill="none" d="M34.7,254.9c0,0-0.1-0.1-0.1-0.1C34.7,254.8,34.7,254.9,34.7,254.9z" />
	<path fill="none" d="M33.4,253.3C33.4,253.2,33.3,253.2,33.4,253.3C33.3,253.2,33.4,253.2,33.4,253.3z" />
	<path fill="none" d="M42.2,261.5c-0.1-0.1-0.3-0.2-0.4-0.3C41.9,261.3,42,261.4,42.2,261.5z" />
	<path fill="none" d="M40.6,260.4c-0.1-0.1-0.2-0.2-0.3-0.3C40.4,260.2,40.5,260.3,40.6,260.4z" />
	<path fill="none" d="M39.1,259.2c-0.1-0.1-0.2-0.2-0.3-0.2C38.9,259,39,259.1,39.1,259.2z" />
	<path fill="none" d="M43.8,262.5c-0.2-0.1-0.3-0.2-0.5-0.3C43.5,262.3,43.6,262.4,43.8,262.5z" />
	<path fill="none" d="M71.6,261.2c-0.1,0.1-0.3,0.2-0.4,0.3C71.3,261.4,71.5,261.3,71.6,261.2z" />
	<path fill="none" d="M74.6,258.9c-0.1,0.1-0.2,0.2-0.3,0.3C74.4,259.1,74.5,259,74.6,258.9z" />
	<path fill="none" d="M73.1,260.1c-0.1,0.1-0.2,0.2-0.4,0.3C72.9,260.3,73,260.2,73.1,260.1z" />
	<path fill="none" d="M76,257.7c-0.1,0.1-0.2,0.2-0.2,0.2C75.9,257.8,75.9,257.7,76,257.7z" />
	<path fill="none" d="M77.4,256.3c-0.1,0.1-0.1,0.1-0.2,0.2C77.3,256.4,77.4,256.3,77.4,256.3z" />
	<path fill="none" d="M80,253.2C80,253.3,80,253.3,80,253.2C80,253.3,80,253.3,80,253.2z" />
	<path fill="none" d="M78.8,254.8c0,0-0.1,0.1-0.1,0.1C78.7,254.9,78.7,254.8,78.8,254.8z" />
	<path fill="none" d="M66.9,263.8c-0.2,0.1-0.4,0.2-0.7,0.3C66.5,264,66.7,263.9,66.9,263.8z" />
	<path fill="none" d="M63.6,265c-0.3,0.1-0.5,0.1-0.8,0.2C63.1,265.2,63.3,265.1,63.6,265z" />
	<path fill="none" d="M61.9,265.5c-0.3,0.1-0.6,0.1-0.9,0.2C61.3,265.6,61.6,265.5,61.9,265.5z" />
	<path fill="none" d="M65.3,264.5c-0.2,0.1-0.5,0.2-0.7,0.2C64.8,264.7,65,264.6,65.3,264.5z" />
	<path fill="none" d="M68.5,263.1c-0.2,0.1-0.4,0.2-0.6,0.3C68.1,263.3,68.3,263.2,68.5,263.1z" />
	<path fill="none" d="M70.1,262.2c-0.2,0.1-0.3,0.2-0.5,0.3C69.8,262.4,69.9,262.3,70.1,262.2z" />
	<path fill="none" d="M60.2,265.8c-0.4,0.1-0.7,0.1-1.1,0.1C59.5,265.9,59.8,265.8,60.2,265.8z" />
	<path fill="none" d="M77.9,217.2c0.1,0,0.1,0.1,0.2,0.1C78,217.3,77.9,217.3,77.9,217.2z" />
	<polygon fill="none" points="33.1,218.7 33.1,218.7 33.1,218.7  " />
	<path fill="none" d="M43,214.4c0.2-0.1,0.4-0.1,0.6-0.1C43.4,214.3,43.2,214.3,43,214.4z" />
	<polygon fill="none" points="80.2,218.6 80.2,218.6 80.2,218.6  " />
	<path fill="none" d="M63.2,213.1c0.3,0,0.5,0,0.8,0.1C63.7,213.2,63.5,213.1,63.2,213.1z" />
	<path fill="none" d="M46.3,213.7c0,0,0.1,0,0.1,0C46.3,213.6,46.3,213.7,46.3,213.7z" />
	<path fill="none" d="M69.8,214.2c0.2,0,0.3,0.1,0.5,0.1C70.2,214.3,70,214.3,69.8,214.2z" />
	<path fill="none" d="M59.9,212.9c0.3,0,0.6,0,0.9,0.1C60.5,212.9,60.2,212.9,59.9,212.9z" />
	<path fill="none" d="M72.7,215.1c0.1,0,0.2,0.1,0.3,0.1C72.9,215.1,72.8,215.1,72.7,215.1z" />
	<path fill="none" d="M52.5,212.9c0.3,0,0.6,0,0.9-0.1C53.1,212.9,52.8,212.9,52.5,212.9z" />
	<path fill="none" d="M49.4,213.2c0.3,0,0.5-0.1,0.8-0.1C49.9,213.2,49.6,213.2,49.4,213.2z" />
	<path fill="none" d="M40.3,215.2c0.1,0,0.2-0.1,0.3-0.1C40.5,215.1,40.4,215.1,40.3,215.2z" />
	<path fill="none" d="M35.2,217.4c0.1-0.1,0.2-0.1,0.3-0.2C35.4,217.3,35.3,217.4,35.2,217.4z" />
	<path fill="#D8CFB0" d="M66.3,264.1c-0.3,0.1-0.7,0.3-1,0.4C65.6,264.4,65.9,264.2,66.3,264.1z" />
	<path fill="#D8CFB0" d="M70.3,214.4c0.8,0.2,1.6,0.4,2.4,0.7C71.9,214.8,71.1,214.6,70.3,214.4z" />
	<path fill="#D8CFB0" d="M67.9,263.4c-0.3,0.2-0.7,0.3-1,0.5C67.3,263.7,67.6,263.5,67.9,263.4z" />
	<path fill="#D8CFB0" d="M80,253.3c-0.4,0.5-0.8,1-1.2,1.5C79.2,254.3,79.6,253.8,80,253.3z" />
	<path fill="#D8CFB0" d="M64,213.2c2,0.2,4,0.6,5.8,1C68,213.8,66,213.4,64,213.2z" />
	<path fill="#D8CFB0" d="M62.8,265.3c-0.3,0.1-0.6,0.2-0.9,0.2C62.2,265.4,62.5,265.3,62.8,265.3z" />
	<path fill="#D8CFB0" d="M75.8,257.9c-0.4,0.4-0.8,0.7-1.2,1.1C75,258.6,75.4,258.2,75.8,257.9z" />
	<path fill="#D8CFB0" d="M64.5,264.7c-0.3,0.1-0.6,0.2-0.9,0.3C63.9,265,64.2,264.8,64.5,264.7z" />
	<path fill="#D8CFB0" d="M78.1,217.4c0.7,0.4,1.4,0.8,2.1,1.3C79.5,218.2,78.8,217.8,78.1,217.4z" />
	<path fill="#D8CFB0" d="M72.8,260.4c-0.4,0.3-0.8,0.5-1.1,0.8C72,261,72.4,260.7,72.8,260.4z" />
	<path fill="#D8CFB0" d="M74.3,259.2c-0.4,0.3-0.8,0.6-1.2,0.9C73.5,259.8,73.9,259.5,74.3,259.2z" />
	<path fill="#D8CFB0" d="M69.6,262.5c-0.4,0.2-0.7,0.4-1.1,0.6C68.9,262.9,69.2,262.7,69.6,262.5z" />
	<path fill="#D8CFB0" d="M78.6,254.9c-0.4,0.5-0.8,0.9-1.2,1.3C77.8,255.8,78.2,255.4,78.6,254.9z" />
	<path fill="#D8CFB0" d="M77.2,256.5c-0.4,0.4-0.8,0.8-1.2,1.2C76.4,257.3,76.8,256.9,77.2,256.5z" />
	<path fill="#D8CFB0" d="M73,215.2c1.8,0.6,3.4,1.3,4.9,2.1C76.4,216.4,74.7,215.7,73,215.2z" />
	<path fill="#D8CFB0" d="M71.2,261.5c-0.4,0.2-0.7,0.5-1.1,0.7C70.5,262,70.8,261.7,71.2,261.5z" />
	<path fill="#D8CFB0" d="M40.6,215.1c0.8-0.2,1.5-0.5,2.3-0.7C42.2,214.6,41.4,214.8,40.6,215.1z" />
	<path fill="#D8CFB0" d="M41.8,261.2c-0.4-0.3-0.8-0.5-1.2-0.8C41,260.7,41.4,260.9,41.8,261.2z" />
	<path fill="#D8CFB0" d="M44.9,263.1c-0.4-0.2-0.7-0.4-1.1-0.6C44.1,262.7,44.5,262.9,44.9,263.1z" />
	<path fill="#D8CFB0" d="M40.2,260.1c-0.4-0.3-0.8-0.6-1.2-1C39.4,259.5,39.8,259.8,40.2,260.1z" />
	<path fill="#D8CFB0" d="M43.3,262.2c-0.4-0.2-0.8-0.5-1.1-0.7C42.5,261.7,42.9,262,43.3,262.2z" />
	<path fill="#D8CFB0" d="M43.6,214.2c0.9-0.2,1.8-0.4,2.7-0.6C45.3,213.8,44.4,214,43.6,214.2z" />
	<path fill="#D8CFB0" d="M38.8,258.9c-0.4-0.4-0.8-0.7-1.2-1.1C38,258.2,38.4,258.6,38.8,258.9z" />
	<path fill="#D8CFB0" d="M61,265.6c-0.3,0-0.5,0.1-0.8,0.1C60.5,265.7,60.7,265.7,61,265.6z" />
	<path fill="#D8CFB0" d="M35.5,217.3c1.5-0.8,3.1-1.5,4.8-2.1C38.6,215.8,37,216.5,35.5,217.3z" />
	<path fill="#D8CFB0" d="M33.1,218.7c0.6-0.4,1.3-0.9,2-1.3C34.5,217.8,33.8,218.2,33.1,218.7z" />
	<path fill="#D8CFB0" d="M36,256.3c-0.4-0.4-0.8-0.9-1.2-1.4C35.1,255.4,35.5,255.8,36,256.3z" />
	<path fill="#D8CFB0" d="M37.4,257.6c-0.4-0.4-0.8-0.8-1.2-1.2C36.5,256.8,36.9,257.2,37.4,257.6z" />
	<path fill="#D8CFB0" d="M34.6,254.8c-0.4-0.5-0.8-1-1.3-1.5C33.8,253.8,34.2,254.3,34.6,254.8z" />
	<path fill="#D8CFB0" d="M46.5,263.8c-0.4-0.2-0.7-0.3-1.1-0.5C45.8,263.5,46.1,263.7,46.5,263.8z" />
	<path fill="#D8CFB0" d="M56.7,212.8c1.1,0,2.2,0,3.2,0.1C58.9,212.8,57.8,212.8,56.7,212.8z" />
	<path fill="#D8CFB0" d="M53.4,212.9c1.1-0.1,2.1-0.1,3.3-0.1C55.6,212.8,54.5,212.8,53.4,212.9z" />
	<path fill="#D8CFB0" d="M54.9,266c-0.2,0-0.4,0-0.6-0.1C54.5,265.9,54.7,266,54.9,266z" />
	<path fill="#D8CFB0" d="M60.8,212.9c0.8,0.1,1.6,0.1,2.4,0.2C62.4,213,61.6,213,60.8,212.9z" />
	<path fill="#D8CFB0" d="M59.1,265.9c-0.2,0-0.4,0.1-0.6,0.1C58.7,266,58.9,265.9,59.1,265.9z" />
	<path fill="#D8CFB0" d="M53.2,265.8c-0.3,0-0.5-0.1-0.8-0.1C52.7,265.7,52.9,265.7,53.2,265.8z" />
	<path fill="#D8CFB0" d="M48.1,264.5c-0.3-0.1-0.7-0.3-1-0.4C47.4,264.2,47.8,264.4,48.1,264.5z" />
	<path fill="#D8CFB0" d="M46.4,213.6c1-0.2,2-0.3,3-0.4C48.3,213.3,47.3,213.5,46.4,213.6z" />
	<path fill="#D8CFB0" d="M49.8,265c-0.3-0.1-0.6-0.2-1-0.3C49.1,264.8,49.5,265,49.8,265z" />
	<path fill="#D8CFB0" d="M50.1,213.1c0.8-0.1,1.6-0.1,2.4-0.2C51.7,213,50.9,213,50.1,213.1z" />
	<path fill="#D8CFB0" d="M51.5,265.5c-0.3-0.1-0.6-0.1-0.9-0.2C50.9,265.3,51.2,265.4,51.5,265.5z" />
	<path fill="none" d="M85.4,223.8c0.3,0.5,0.6,1,0.9,1.5C86,224.8,85.7,224.3,85.4,223.8z" />
	<polygon fill="none" points="28.2,223.4 28.2,223.4 28.2,223.4  " />
	<path fill="none" d="M31.2,250.2c0.3,0.5,0.6,0.9,0.9,1.3l0,0C31.8,251.1,31.5,250.7,31.2,250.2z" />
	<polygon fill="none" points="84.5,222.6 84.5,222.6 84.5,222.6  " />
	<path fill="#E2DDCB" d="M85.4,223.8c-0.3-0.4-0.6-0.8-0.9-1.2l0,0c-3.5,3.3-8.2,5.3-13.4,5.3c-6.1,0-11.5-2.7-15.1-7   c-3.6,4.3-9.1,7-15.1,7c-4.8,0-9.2-1.7-12.6-4.5l0,0c-0.4,0.6-0.8,1.2-1.2,1.9c-3.6,6.8-2.2,15.7,4.1,25c0.3,0.5,0.6,0.9,0.9,1.3   l0,0c0.4,0.6,0.8,1.1,1.2,1.7c0,0,0,0,0,0.1c0.4,0.5,0.8,1,1.3,1.5c0,0,0.1,0.1,0.1,0.1c0.4,0.5,0.8,0.9,1.2,1.4   c0.1,0.1,0.1,0.1,0.2,0.2c0.4,0.4,0.8,0.8,1.2,1.2c0.1,0.1,0.1,0.1,0.2,0.2c0.4,0.4,0.8,0.7,1.2,1.1c0.1,0.1,0.2,0.2,0.3,0.2   c0.4,0.3,0.8,0.7,1.2,1c0.1,0.1,0.2,0.2,0.3,0.3c0.4,0.3,0.8,0.6,1.2,0.8c0.1,0.1,0.3,0.2,0.4,0.3c0.4,0.2,0.8,0.5,1.1,0.7   c0.2,0.1,0.3,0.2,0.5,0.3c0.4,0.2,0.7,0.4,1.1,0.6c0.2,0.1,0.4,0.2,0.5,0.3c0.4,0.2,0.7,0.3,1.1,0.5c0.2,0.1,0.4,0.2,0.6,0.3   c0.3,0.1,0.7,0.3,1,0.4c0.2,0.1,0.5,0.2,0.7,0.2c0.3,0.1,0.6,0.2,1,0.3c0.3,0.1,0.5,0.1,0.8,0.2c0.3,0.1,0.6,0.2,0.9,0.2   c0.3,0.1,0.6,0.1,0.9,0.2c0.3,0,0.5,0.1,0.8,0.1c0.4,0.1,0.7,0.1,1.1,0.1c0.2,0,0.4,0.1,0.6,0.1c0.6,0,1.2,0.1,1.8,0.1   c0.6,0,1.2,0,1.8-0.1c0.2,0,0.4,0,0.6-0.1c0.4,0,0.7-0.1,1.1-0.1c0.3,0,0.5-0.1,0.8-0.1c0.3-0.1,0.6-0.1,0.9-0.2   c0.3-0.1,0.6-0.1,0.9-0.2c0.3-0.1,0.5-0.1,0.8-0.2c0.3-0.1,0.6-0.2,0.9-0.3c0.2-0.1,0.5-0.2,0.7-0.2c0.3-0.1,0.7-0.3,1-0.4   c0.2-0.1,0.4-0.2,0.7-0.3c0.3-0.2,0.7-0.3,1-0.5c0.2-0.1,0.4-0.2,0.6-0.3c0.4-0.2,0.7-0.4,1.1-0.6c0.2-0.1,0.3-0.2,0.5-0.3   c0.4-0.2,0.7-0.5,1.1-0.7c0.1-0.1,0.3-0.2,0.4-0.3c0.4-0.3,0.8-0.5,1.1-0.8c0.1-0.1,0.2-0.2,0.4-0.3c0.4-0.3,0.8-0.6,1.2-0.9   c0.1-0.1,0.2-0.2,0.3-0.3c0.4-0.3,0.8-0.7,1.2-1.1c0.1-0.1,0.2-0.2,0.2-0.2c0.4-0.4,0.8-0.8,1.2-1.2c0.1-0.1,0.1-0.1,0.2-0.2   c0.4-0.4,0.8-0.9,1.2-1.3c0,0,0.1-0.1,0.1-0.1c0.4-0.5,0.8-1,1.2-1.5c0,0,0-0.1,0.1-0.1c0.8-1,1.5-1.9,2.2-3   c6.3-9.3,7.7-18.2,4.1-25C86,224.8,85.7,224.3,85.4,223.8z" />
	<path fill="#857764" d="M81.3,251.6C81.3,251.6,81.3,251.6,81.3,251.6c0.3-0.5,0.6-0.9,1-1.4c-0.7,1.1-1.4,2-2.2,3   C80.5,252.7,80.9,252.2,81.3,251.6z" />
	<path fill="#857764" d="M32.1,251.5c0.4,0.6,0.8,1.1,1.3,1.7C32.9,252.7,32.5,252.1,32.1,251.5C32.1,251.5,32.1,251.5,32.1,251.5z" />
	<path fill="#857764" d="M27.1,225.3c0.3-0.6,0.7-1.3,1.2-1.9C27.8,224,27.4,224.6,27.1,225.3z" />
	<path fill="none" d="M85.4,223.8c-0.3-0.4-0.6-0.8-0.9-1.2l0,0c-3.5,3.3-8.2,5.3-13.4,5.3c-6.1,0-11.5-2.7-15.1-7   c-3.6,4.3-9.1,7-15.1,7c-4.8,0-9.2-1.7-12.6-4.5l0,0c-0.4,0.6-0.8,1.2-1.2,1.9c-3.6,6.8-2.2,15.7,4.1,25c0.3,0.5,0.6,0.9,0.9,1.3   c0,0,0,0,0,0c0.4,0.6,0.8,1.1,1.3,1.7c0,0,0,0,0,0.1c0.4,0.5,0.8,1,1.3,1.5c0,0,0.1,0.1,0.1,0.1c0.4,0.5,0.8,0.9,1.2,1.4   c0.1,0.1,0.1,0.1,0.2,0.2c0.4,0.4,0.8,0.8,1.2,1.2c0.1,0.1,0.1,0.1,0.2,0.2c0.4,0.4,0.8,0.7,1.2,1.1c0.1,0.1,0.2,0.2,0.3,0.2   c0.4,0.3,0.8,0.7,1.2,1c0.1,0.1,0.2,0.2,0.3,0.3c0.4,0.3,0.8,0.6,1.2,0.8c0.1,0.1,0.3,0.2,0.4,0.3c0.4,0.2,0.8,0.5,1.1,0.7   c0.2,0.1,0.3,0.2,0.5,0.3c0.4,0.2,0.7,0.4,1.1,0.6c0.2,0.1,0.4,0.2,0.5,0.3c0.4,0.2,0.7,0.3,1.1,0.5c0.2,0.1,0.4,0.2,0.6,0.3   c0.3,0.1,0.7,0.3,1,0.4c0.2,0.1,0.5,0.2,0.7,0.2c0.3,0.1,0.6,0.2,1,0.3c0.3,0.1,0.5,0.1,0.8,0.2c0.3,0.1,0.6,0.2,0.9,0.2   c0.3,0.1,0.6,0.1,0.9,0.2c0.3,0,0.5,0.1,0.8,0.1c0.4,0.1,0.7,0.1,1.1,0.1c0.2,0,0.4,0.1,0.6,0.1c0.6,0,1.2,0.1,1.8,0.1   c0.6,0,1.2,0,1.8-0.1c0.2,0,0.4,0,0.6-0.1c0.4,0,0.7-0.1,1.1-0.1c0.3,0,0.5-0.1,0.8-0.1c0.3-0.1,0.6-0.1,0.9-0.2   c0.3-0.1,0.6-0.1,0.9-0.2c0.3-0.1,0.5-0.1,0.8-0.2c0.3-0.1,0.6-0.2,0.9-0.3c0.2-0.1,0.5-0.2,0.7-0.2c0.3-0.1,0.7-0.3,1-0.4   c0.2-0.1,0.4-0.2,0.7-0.3c0.3-0.2,0.7-0.3,1-0.5c0.2-0.1,0.4-0.2,0.6-0.3c0.4-0.2,0.7-0.4,1.1-0.6c0.2-0.1,0.3-0.2,0.5-0.3   c0.4-0.2,0.7-0.5,1.1-0.7c0.1-0.1,0.3-0.2,0.4-0.3c0.4-0.3,0.8-0.5,1.1-0.8c0.1-0.1,0.2-0.2,0.4-0.3c0.4-0.3,0.8-0.6,1.2-0.9   c0.1-0.1,0.2-0.2,0.3-0.3c0.4-0.3,0.8-0.7,1.2-1.1c0.1-0.1,0.2-0.2,0.2-0.2c0.4-0.4,0.8-0.8,1.2-1.2c0.1-0.1,0.1-0.1,0.2-0.2   c0.4-0.4,0.8-0.9,1.2-1.3c0,0,0.1-0.1,0.1-0.1c0.4-0.5,0.8-1,1.2-1.5c0,0,0-0.1,0.1-0.1c0.4-0.5,0.8-1.1,1.2-1.6c0,0,0,0,0,0   c0.3-0.4,0.7-0.9,1-1.3c6.3-9.3,7.7-18.2,4.1-25C86,224.8,85.7,224.3,85.4,223.8z" />
	<path fill="#003963" d="M79.7,187.7c0.6-0.3,1.2-0.5,1.8-0.7l-1.2-5.4l7.9-1.6l3.3,8.7l2-4.3l4.9,2.2l-3-8.1l13.4-2.8l-51.4-11.4   L4.9,175.7l28.4,6.2l-1.1,5.3c1,0.4,2,0.8,3.2,1.3C50.5,183.3,63.2,183.1,79.7,187.7z" />
	<path fill="#786658" d="M88.1,218.2c1.8-3,2.8-6.4,2.8-10.1c0-4.8-1.7-9.1-4.5-12.5c2.1-0.9,3.8-3.8,2.3-11.6c0,0-2.4,1-7.2,2.9   c-0.6,0.2-1.2,0.5-1.8,0.7c-16.5-4.6-29.2-4.4-44.3,0.9c-1.2-0.5-2.2-0.9-3.2-1.3c-4.8-2-7.4-3-7.4-3c-1.2,6.3-0.4,9.4,1.2,10.8   c-3.1,3.5-4.9,8-4.9,13c0,3.8,1.1,7.4,3,10.4c-6,2.2-10.3,8.7-10.3,16.4c0,9.5,6.6,17.1,14.7,17.2c0,0,0,0,0,0   c7.5,11.1,17.5,17.3,28.3,17.3c10.8,0,20.8-6.1,28.3-17.3c0,0,0,0,0,0c8-0.2,14.5-7.8,14.5-17.1C99.5,226.8,94.6,220,88.1,218.2z    M82.2,250.2c-0.3,0.5-0.7,0.9-1,1.3c0,0,0,0,0,0c-0.4,0.6-0.8,1.1-1.2,1.6c0,0,0,0.1-0.1,0.1c-0.4,0.5-0.8,1-1.2,1.5   c0,0-0.1,0.1-0.1,0.1c-0.4,0.5-0.8,0.9-1.2,1.3c-0.1,0.1-0.1,0.1-0.2,0.2c-0.4,0.4-0.8,0.8-1.2,1.2c-0.1,0.1-0.2,0.2-0.2,0.2   c-0.4,0.4-0.8,0.7-1.2,1.1c-0.1,0.1-0.2,0.2-0.3,0.3c-0.4,0.3-0.8,0.6-1.2,0.9c-0.1,0.1-0.2,0.2-0.4,0.3c-0.4,0.3-0.8,0.5-1.1,0.8   c-0.1,0.1-0.3,0.2-0.4,0.3c-0.4,0.2-0.7,0.5-1.1,0.7c-0.2,0.1-0.3,0.2-0.5,0.3c-0.4,0.2-0.7,0.4-1.1,0.6c-0.2,0.1-0.4,0.2-0.6,0.3   c-0.3,0.2-0.7,0.3-1,0.5c-0.2,0.1-0.4,0.2-0.7,0.3c-0.3,0.1-0.7,0.3-1,0.4c-0.2,0.1-0.5,0.2-0.7,0.2c-0.3,0.1-0.6,0.2-0.9,0.3   c-0.3,0.1-0.5,0.1-0.8,0.2c-0.3,0.1-0.6,0.2-0.9,0.2c-0.3,0.1-0.6,0.1-0.9,0.2c-0.3,0-0.5,0.1-0.8,0.1c-0.4,0.1-0.7,0.1-1.1,0.1   c-0.2,0-0.4,0.1-0.6,0.1c-0.6,0-1.2,0.1-1.8,0.1c-0.6,0-1.2,0-1.8-0.1c-0.2,0-0.4,0-0.6-0.1c-0.4,0-0.7-0.1-1.1-0.1   c-0.3,0-0.5-0.1-0.8-0.1c-0.3-0.1-0.6-0.1-0.9-0.2c-0.3-0.1-0.6-0.1-0.9-0.2c-0.3-0.1-0.5-0.1-0.8-0.2c-0.3-0.1-0.6-0.2-1-0.3   c-0.2-0.1-0.5-0.2-0.7-0.2c-0.3-0.1-0.7-0.3-1-0.4c-0.2-0.1-0.4-0.2-0.6-0.3c-0.4-0.2-0.7-0.3-1.1-0.5c-0.2-0.1-0.4-0.2-0.5-0.3   c-0.4-0.2-0.7-0.4-1.1-0.6c-0.2-0.1-0.3-0.2-0.5-0.3c-0.4-0.2-0.8-0.5-1.1-0.7c-0.1-0.1-0.3-0.2-0.4-0.3c-0.4-0.3-0.8-0.5-1.2-0.8   c-0.1-0.1-0.2-0.2-0.3-0.3c-0.4-0.3-0.8-0.6-1.2-1c-0.1-0.1-0.2-0.2-0.3-0.2c-0.4-0.4-0.8-0.7-1.2-1.1c-0.1-0.1-0.1-0.1-0.2-0.2   c-0.4-0.4-0.8-0.8-1.2-1.2c-0.1-0.1-0.1-0.1-0.2-0.2c-0.4-0.4-0.8-0.9-1.2-1.4c0,0-0.1-0.1-0.1-0.1c-0.4-0.5-0.8-1-1.3-1.5   c0,0,0,0,0-0.1c-0.4-0.5-0.8-1.1-1.3-1.7c0,0,0,0,0,0c-0.3-0.4-0.6-0.8-0.9-1.3c-6.3-9.3-7.7-18.2-4.1-25c0.3-0.6,0.7-1.3,1.2-1.9   l0,0c3.4,2.8,7.8,4.5,12.6,4.5c6.1,0,11.5-2.7,15.1-7c3.6,4.3,9.1,7,15.1,7c5.2,0,9.9-2,13.4-5.3l0,0c0.3,0.4,0.6,0.8,0.9,1.2   c0.3,0.5,0.6,1,0.9,1.5C89.9,232.1,88.5,240.9,82.2,250.2z" />
	<path fill="#857764" d="M84.5,222.6c0.3,0.4,0.6,0.8,0.9,1.2C85.1,223.4,84.8,223,84.5,222.6z" />
	<path fill="#857764" d="M29.8,189.3C29.7,189.3,29.7,189.3,29.8,189.3C29.7,189.3,29.7,189.3,29.8,189.3z" />
	<path fill="#857764" d="M29.7,189.3c-0.2,0-0.4,0-0.6,0.1C29.2,189.4,29.4,189.3,29.7,189.3z" />
	<path fill="#857764" d="M29.1,189.4c-0.4,0.1-0.6,0.1-0.6,0.1C28.7,189.4,28.9,189.4,29.1,189.4z" />
	<path fill="#857764" d="M55.5,218.2h1c-0.2-0.2-0.3-0.4-0.5-0.6C55.9,217.8,55.7,218,55.5,218.2z" />
	<path fill="#F7921E" d="M57.1,209.1c-0.4-0.1-0.7-0.3-1.1-0.4c0,0-0.5,0.2-1.4,0.6c-2.3,1.2-6.8,4.1-7.1,9.6c0,0,0.3,1.6,1.9,4.1   c1.2,2,3.3,4.6,6.6,7.4c0,0,4.2-2.8,6.9-7.3c0.8-1.3,1.4-2.7,1.8-4.2C64.7,218.9,65.2,212.1,57.1,209.1z" />
	<g>
		<path fill="#F7921E" d="M64.7,267.8c0,3.3-1.3,5.9-3,5.9c-1.6,0-3-2.6-3-5.9c0-3.2,1.3-5.9,3-5.9    C63.4,261.9,64.7,264.5,64.7,267.8z" />
		<path fill="#F7921E" d="M73.9,267.8c0,3.3-1.3,5.9-3,5.9c-1.7,0-3-2.6-3-5.9c0-3.2,1.3-5.9,3-5.9    C72.6,261.9,73.9,264.5,73.9,267.8z" />
		<path fill="#F7921E" d="M69.1,266.9c0,3.8-1.3,6.8-3,6.8c-1.7,0-3-3-3-6.8c0-3.7,1.3-6.8,3-6.8C67.8,260.1,69.1,263.1,69.1,266.9z    " />
	</g>
	<path fill="#FFFFFF" d="M69.2,192.4c-1.6,0-3.2,0.3-4.7,0.7c-3.3,2.8-6.1,7-7.3,13.4l-0.1,2.6c8.1,3,7.5,9.8,7.5,9.8   c-0.4,1.5-1,2.9-1.8,4.2c1.9,0.9,4.1,1.4,6.4,1.4c8.9,0,16-7.2,16-16C85.3,199.6,78.1,192.4,69.2,192.4z M74.5,201.8   c-4.5,0-8.2,3.3-8.6,7.4c-0.4-0.9-0.6-2-0.6-3.1c0-4.5,3.9-8.1,8.6-8.1c4.8,0,8.6,3.6,8.6,8.1c0,0.2,0,0.5,0,0.7   C81.2,203.9,78.1,201.8,74.5,201.8z" />
	<path fill="#FFFFFF" d="M46.3,192.8c-1.1-0.2-2.2-0.4-3.4-0.4c-8.9,0-16,7.2-16,16c0,8.9,7.2,16,16,16c2.3,0,4.6-0.5,6.6-1.4   c-1.5-2.5-1.9-4.1-1.9-4.1c0.3-5.5,4.8-8.4,7.1-9.6l-0.1-2.7C53.2,199.6,50,195.3,46.3,192.8z M47,209.2c-0.4-4.2-4.1-7.4-8.6-7.4   c-3.6,0-6.7,2.1-8,5c0-0.2,0-0.5,0-0.7c0-4.5,3.8-8.1,8.6-8.1c4.7,0,8.6,3.6,8.6,8.1C47.6,207.2,47.4,208.3,47,209.2z" />
	<g>
		<path fill="#F7921E" d="M44,267.8c0,3.3-1.3,5.9-3,5.9c-1.6,0-3-2.6-3-5.9c0-3.2,1.3-5.9,3-5.9C42.6,261.9,44,264.5,44,267.8z" />
		<path fill="#F7921E" d="M53.1,267.8c0,3.3-1.3,5.9-3,5.9c-1.7,0-3-2.6-3-5.9c0-3.2,1.3-5.9,3-5.9    C51.8,261.9,53.1,264.5,53.1,267.8z" />
		<path fill="#F7921E" d="M48.4,266.9c0,3.8-1.3,6.8-3,6.8c-1.7,0-3-3-3-6.8c0-3.7,1.3-6.8,3-6.8C47,260.1,48.4,263.1,48.4,266.9z" />
	</g>
	<g>
		<path fill="#003963" d="M148.7,219.8c0-3.3,0.4-6.4,1.3-9.3c0.9-2.9,2.1-5.6,3.6-8c1.5-2.4,3.4-4.6,5.5-6.4    c2.1-1.9,4.4-3.5,6.9-4.8c2.5-1.3,5.2-2.3,8-3c2.8-0.7,5.7-1,8.6-1c2,0,3.7,0.1,5.4,0.3c1.6,0.2,3.1,0.4,4.4,0.7    c1.3,0.3,2.5,0.5,3.6,0.8c1.1,0.3,2,0.5,2.9,0.7l-0.8,15h-8.1l-2.8-7.9c-0.3-0.4-0.6-0.7-0.9-1c-0.4-0.3-0.9-0.5-1.5-0.8    c-0.6-0.2-1.4-0.4-2.4-0.5c-1-0.1-2.1-0.2-3.6-0.2c-2.1,0-4.1,0.5-5.9,1.4c-1.8,1-3.4,2.4-4.8,4.2c-1.4,1.9-2.4,4.1-3.2,6.8    c-0.8,2.7-1.2,5.8-1.2,9.3c0,2.2,0.2,4.4,0.5,6.5c0.3,2.1,0.8,4.2,1.4,6.1c0.6,1.9,1.4,3.7,2.2,5.3c0.9,1.6,1.9,3,3.1,4.2    c1.2,1.2,2.5,2.1,4,2.8c1.5,0.7,3.1,1,4.8,1c1.6,0,3-0.1,4.1-0.3c1.1-0.2,2-0.4,2.7-0.7c0.7-0.3,1.3-0.6,1.6-1    c0.4-0.4,0.7-0.8,0.9-1.2l3.2-7.8h6.7v13.8c-1,0.1-2,0.3-3.1,0.7c-1.1,0.4-2.4,0.8-4,1.2c-1.5,0.4-3.4,0.8-5.5,1.2    c-2.1,0.4-4.6,0.6-7.6,0.6c-4.9,0-9.3-0.8-13.1-2.3c-3.8-1.5-6.9-3.6-9.5-6.2c-2.5-2.6-4.4-5.7-5.7-9.2    C149.3,227.6,148.7,223.9,148.7,219.8z" />
		<path fill="#003963" d="M200.1,242.3l5.7-1.5V195l-5.5-0.8v-6.3h43.8l1.2,13.2h-7.9l-3.6-6.2l-14.3-0.8v20l9.9-0.4l2.1-5.7h7v18.8    h-7l-2.1-6.1l-9.9-0.2v21.2l16.9-1.1l4.9-7.6l8,1.4l-2.1,13.5h-47.2V242.3z" />
		<path fill="#003963" d="M252,195.1l-6.1-0.9v-6.3h26.3v6.3l-6.5,0.9v29.2c0,2.6,0.2,4.8,0.5,6.7c0.4,1.9,0.9,3.5,1.5,4.8    c0.6,1.3,1.4,2.4,2.3,3.2c0.9,0.8,1.8,1.4,2.8,1.9c1,0.5,2,0.8,3.1,0.9c1.1,0.2,2.1,0.2,3.2,0.2c1.8,0,3.4-0.3,4.9-0.9    c1.5-0.6,2.8-1.7,3.9-3.2c1.1-1.5,2-3.6,2.6-6.1c0.6-2.6,0.9-5.8,0.9-9.7l-0.1-26.9l-6.5-1v-6.3h20.8v6.3l-5.6,1V222    c0,3.5-0.3,6.6-0.8,9.3c-0.6,2.7-1.4,5-2.4,7c-1,2-2.3,3.7-3.7,5c-1.4,1.3-3,2.4-4.6,3.2c-1.7,0.8-3.5,1.4-5.3,1.7    c-1.9,0.3-3.8,0.5-5.8,0.5c-8.6,0-15.1-2.1-19.2-6.2c-4.2-4.1-6.2-10.5-6.2-19L252,195.1z" />
	</g>
	<g>
		<path fill="#F7921E" d="M309.2,208.7h-5.4l0.6-2.9l5.8-2.4l0.5-2.7c0.7-4.7,2.7-8.8,6-12.3c3.2-3.4,6.6-5.1,10.2-5.1    c2.6,0,4.6,0.3,6.1,1l-2.3,6.5l-0.9-0.6c-1.3-0.8-2.6-1.2-4-1.2c-1.4,0-2.5,0.3-3.2,0.8c-0.8,0.5-1.4,1.3-2,2.2    c-1.1,1.8-1.9,4.4-2.3,7.8l-0.4,3.4h9.1l-0.6,5.5H317l-5.2,41.3c-0.7,5.2-2.4,9.4-5.1,12.6c-2.7,3.3-6.2,4.9-10.4,4.9    c-2.4,0-4.2-0.2-5.5-0.5l2-6.5c2.4,1,4.6,1.5,6.4,1.5c2.2,0,3.7-3.1,4.6-9.4L309.2,208.7z" />
		<path fill="#F7921E" d="M346.3,242.5c-3.3,4-7.3,6-11.8,6c-4.2,0-7.4-1.6-9.6-4.7c-2.1-2.9-3.1-6.9-3.1-12c0-4.1,1-8.4,3-12.8    c3.3-7.4,8.2-12.3,14.7-14.8c2.3-0.9,4.7-1.4,7.2-1.4s5.1,0.5,7.8,1.4l4.6-1.3l-5.1,37.6c-0.1,1.1,0,1.8,0.2,2.3    c0.3,0.5,0.7,0.7,1.3,0.7c0.6,0,1.6-0.6,3-1.8l1.2,2c-0.4,0.8-1.2,1.6-2.4,2.4c-2.3,1.6-4.4,2.4-6.3,2.4c-3.3,0-4.9-1.6-4.9-4.7    c0-0.2,0-0.4,0-0.5L346.3,242.5z M350.7,208.9c-1.2-0.8-2.8-1.3-4.8-1.3c-2,0-3.8,0.4-5.3,1.1c-1.5,0.7-2.8,1.7-4,2.9    c-1.2,1.2-2.2,2.6-3.1,4.2c-0.9,1.6-1.6,3.2-2.1,5c-1.1,3.4-1.7,6.4-1.7,9c0,2.7,0.1,4.7,0.4,6.3c0.3,1.5,0.7,2.8,1.2,3.8    c1.1,2.2,2.6,3.2,4.6,3.2c3.3,0,6.4-1.5,9.2-4.4c0.8-0.8,1.5-1.6,2-2.4L350.7,208.9z" />
		<path fill="#F7921E" d="M362,240.4c1.8,1.2,4.1,2.1,7,2.6c1.1,0.2,2.1,0.3,3.1,0.3s1.9-0.1,2.8-0.2c0.9-0.1,1.7-0.3,2.5-0.7    c1.7-0.8,2.6-2.4,2.6-4.7c0-2.6-1.4-5.1-4.3-7.4c-0.8-0.7-1.6-1.3-2.4-1.8c-0.8-0.6-1.6-1.2-2.5-2.1c-0.9-0.8-1.8-1.8-2.7-2.9    c-2-2.7-3-5.2-3-7.5s0.4-4.3,1.2-5.8c0.8-1.5,1.9-2.9,3.3-3.9c2.9-2.2,6.3-3.4,10.4-3.4c3,0,5.4,0.2,7,0.6    c1.6,0.4,2.6,0.7,2.9,0.8l-1.5,6.4c-0.7-1-2.5-1.8-5.4-2.5c-1-0.3-2.1-0.4-3.1-0.4c-1,0-1.9,0.1-2.7,0.2c-0.8,0.2-1.5,0.4-2.2,0.8    c-1.7,1.1-2.6,2.7-2.6,5c0,2.8,2,5.8,6.1,8.9c2.6,2,4.5,3.7,5.5,5.1c2.1,2.7,3.1,5.3,3.1,7.7c0,2.4-0.4,4.4-1.3,5.9    c-0.8,1.5-2,2.8-3.4,3.8c-2.8,2.1-6.4,3.1-10.7,3.1c-3.8,0-7-0.5-9.6-1.4c-0.8-0.3-1.4-0.6-1.7-0.8L362,240.4z" />
		<path fill="#F7921E" d="M399.3,248.5c-4.7,0-7.1-2.3-7.1-6.9v-0.4c0-0.8,0.2-2.4,0.5-4.7l3.5-27.9h-4.6l0.8-3.4l4.7-1.8    c1.5-1.7,3.2-5.2,5.1-10.3h3.7l-1.3,10.1h10.1l-0.8,5.4h-10l-3.2,24.2c-0.4,3.1-0.7,5.2-0.7,6.3c0,1.1,0,1.9,0.1,2.3    c0.1,0.5,0.3,0.8,0.5,1.1c0.4,0.5,1.1,0.7,2,0.7c0.9,0,1.7-0.1,2.4-0.3c0.7-0.2,1.4-0.5,2.1-0.8c1.4-0.7,2.6-1.4,3.5-2.1l0.7,3    c-1.7,2.1-4.6,3.8-8.7,5.1C401.5,248.3,400.3,248.5,399.3,248.5z" />
	</g>
	<g>
		<path fill="#003963" d="M417.6,188.6c0-0.7,0.1-1.3,0.3-1.9c0.2-0.6,0.4-1.2,0.7-1.7c0.3-0.5,0.7-1,1.1-1.5    c0.4-0.4,0.9-0.8,1.5-1.1c0.5-0.3,1.1-0.6,1.7-0.7c0.6-0.2,1.2-0.3,1.9-0.3s1.3,0.1,1.9,0.3c0.6,0.2,1.2,0.4,1.7,0.7    c0.5,0.3,1,0.7,1.5,1.1c0.4,0.4,0.8,0.9,1.1,1.5c0.3,0.5,0.6,1.1,0.7,1.7c0.2,0.6,0.3,1.2,0.3,1.9c0,0.7-0.1,1.3-0.3,1.9    c-0.2,0.6-0.4,1.2-0.7,1.7c-0.3,0.5-0.7,1-1.1,1.4c-0.4,0.4-0.9,0.8-1.5,1.1c-0.5,0.3-1.1,0.6-1.7,0.7c-0.6,0.2-1.2,0.3-1.9,0.3    s-1.3-0.1-1.9-0.3c-0.6-0.2-1.2-0.4-1.7-0.7c-0.5-0.3-1-0.7-1.5-1.1c-0.4-0.4-0.8-0.9-1.1-1.4c-0.3-0.5-0.6-1.1-0.7-1.7    C417.7,189.9,417.6,189.3,417.6,188.6z M418.9,188.6c0,0.8,0.2,1.6,0.5,2.4c0.3,0.7,0.7,1.4,1.2,1.9c0.5,0.5,1.1,1,1.9,1.3    c0.7,0.3,1.5,0.5,2.3,0.5c0.8,0,1.6-0.2,2.3-0.5c0.7-0.3,1.3-0.7,1.9-1.3c0.5-0.5,0.9-1.2,1.3-1.9c0.3-0.7,0.5-1.5,0.5-2.4    c0-0.6-0.1-1.1-0.2-1.6c-0.1-0.5-0.3-1-0.6-1.5c-0.3-0.5-0.6-0.9-0.9-1.2c-0.4-0.4-0.8-0.7-1.2-0.9c-0.4-0.3-0.9-0.5-1.4-0.6    c-0.5-0.1-1-0.2-1.6-0.2c-0.6,0-1.1,0.1-1.6,0.2c-0.5,0.1-1,0.3-1.4,0.6c-0.4,0.3-0.8,0.6-1.2,0.9c-0.4,0.4-0.7,0.8-0.9,1.2    c-0.3,0.4-0.4,0.9-0.6,1.5C419,187.5,418.9,188.1,418.9,188.6z M423.7,189.8v3.2h-2.1v-8.7h3.1c1.2,0,2.1,0.2,2.7,0.7    c0.6,0.4,0.8,1.1,0.8,1.9c0,0.6-0.1,1.1-0.4,1.5c-0.3,0.4-0.8,0.7-1.4,0.9c0.1,0.1,0.3,0.2,0.4,0.3c0.1,0.1,0.2,0.3,0.3,0.4l1.8,3    h-2c-0.3,0-0.5-0.1-0.6-0.3l-1.4-2.6c-0.1-0.1-0.1-0.2-0.2-0.2c-0.1,0-0.2-0.1-0.4-0.1H423.7z M423.7,188.3h0.9    c0.3,0,0.6,0,0.8-0.1c0.2-0.1,0.4-0.1,0.5-0.2c0.1-0.1,0.2-0.2,0.2-0.4c0-0.2,0.1-0.3,0.1-0.6c0-0.2,0-0.4-0.1-0.5    c0-0.2-0.1-0.3-0.2-0.4c-0.1-0.1-0.3-0.2-0.4-0.2c-0.2,0-0.4-0.1-0.7-0.1h-1V188.3z" />
	</g>
</g>
</svg>