<?xml version="1.0" encoding="UTF-8" standalone="yes"?>
<svg version="1.2" baseProfile="tiny-ps" viewBox="0 0 300 300" xml:space="preserve" xmlns="http://www.w3.org/2000/svg">
  <title>firststars GmbH Online</title>
  <g>
    <rect fill="#FFFFFF" width="300" height="300"/>
    <g>
      <path fill="none" d="M72.2,155.5l-1-0.2l0.9,0.8v0.1L72.2,155.5z"/>
      <path fill="#E5674A" d="M92.7,150c0,3.2-0.6,6.2-1.4,9.1c-0.2,0.7-0.4,1.4-0.5,2.1c-0.1,0.1-0.2,0.2-0.2,0.3&#xD;&#xA;&#x9;&#x9;&#x9;c-0.5,0.8-1.2,1.9-2,2.2c-0.5,0.2-0.7,0.2-1.4,0.2s-1.7-0.3-2.4-0.5c-0.8-0.3-1.4-0.5-2.1-0.8c-3.5-1.6-6.9-4-10.6-6.1l0.1-0.7&#xD;&#xA;&#x9;&#x9;&#x9;l0.5-3.6c-1.9-0.6-4-1-6-1.1h-15v-3.2c0-4.1,0.6-7.2,5.2-7.2c0.9,0,1.8,0.2,2.6,0.4l0.2-4.5c-1.2-0.2-2.4-0.4-3.6-0.4&#xD;&#xA;&#x9;&#x9;&#x9;c-8,0-9.9,4.8-9.9,12.1v2.9h-6.9l-7.7,0.1c0-0.4-0.1-0.6-0.1-0.9c0-17.7,13.7-32.2,30.6-32.2C78.9,117.7,92.7,132.1,92.7,150&#xD;&#xA;&#x9;&#x9;&#x9;L92.7,150z"/>
      <path fill="#E5463B" d="M39.3,155.3h6.9v22.1c-7.4-4.8-12.7-12.7-14.2-22.1H39.3z M88.6,163.5c-0.5,0.2-0.7,0.2-1.4,0.2&#xD;&#xA;&#x9;&#x9;&#x9;c-0.5,0-1.7-0.3-2.4-0.5c-0.8-0.3-1.3-0.5-2.1-0.8c-3.5-1.6-6.9-4-10.6-6.1c-1.6-0.8-3.2-1.3-5-1.4c-2.4,0-4.6,1.1-4.6,3.2&#xD;&#xA;&#x9;&#x9;&#x9;c0,5.5,11.3,4,11.3,12.5c0,5.8-4.4,8.4-9.1,8.4c-2.4,0.1-5-0.4-7.1-1.4l0.3-4.4c1.8,1.2,3.9,1.8,6,1.9c2.2,0,4.9-0.9,4.9-3.9&#xD;&#xA;&#x9;&#x9;&#x9;c0-5-11.3-4.5-11.3-12c0-1.5,0.4-2.7,0.8-3.8h-6.6v24.8c3.2,1.3,6.8,2.1,10.4,2.1c13.2,0,24.2-8.7,28.6-21&#xD;&#xA;&#x9;&#x9;&#x9;c-0.1,0.1-0.1,0.2-0.2,0.3C90.1,162.1,89.4,163.2,88.6,163.5L88.6,163.5z"/>
      <path fill="#CD2E09" d="M180.4,159.9c1.6,1,3.4,1.5,5.3,1.7c2,0,4.3-0.8,4.3-3.4c0-4.3-10-4-10-10.6c0-5,3.6-7.3,8.1-7.3&#xD;&#xA;&#x9;&#x9;&#x9;c1.8,0,3.6,0.4,5.3,0.9l-0.4,3.8c-1.4-0.7-2.9-1.1-4.5-1.2c-2.2,0-4.1,0.9-4.1,2.9c0,4.9,10,3.5,10,11c0,5-4,7.4-8,7.4&#xD;&#xA;&#x9;&#x9;&#x9;c-2.2,0.1-4.3-0.4-6.3-1.3L180.4,159.9L180.4,159.9z M239.2,140.8h4v3.7h0.1c1.1-2.4,3.4-4.1,6-4.2c1,0,1.9,0.1,2.8,0.4v3.9&#xD;&#xA;&#x9;&#x9;&#x9;c-0.7-0.3-1.5-0.5-2.3-0.5c-3.8,0-6.3,3.7-6.3,9.6v10.8h-4.2V140.8z M230,153.2c-0.9,0-1.7-0.1-2.7-0.1c-2.3,0-8,0.4-8,4.6&#xD;&#xA;&#x9;&#x9;&#x9;c0.2,2.3,2.1,4.1,4.3,3.9c3.2,0.4,6-2.1,6.4-5.3L230,153.2L230,153.2z M217.4,142.5c2.3-1.4,5-2.3,7.6-2.3c6.6,0,9.3,3.3,9.3,9.8&#xD;&#xA;&#x9;&#x9;&#x9;v9.8c0,1.5,0,3.2,0.2,4.7h-4v-3.1c-1.7,2.3-4.3,3.6-7.1,3.5c-5,0-8.5-2.3-8.5-7.4c0-5.9,6.3-7.8,10.7-7.8c1.7,0,2.9,0,4.5,0.1&#xD;&#xA;&#x9;&#x9;&#x9;c0-4.1-1.4-6.2-5.7-6.2c-2.4,0-4.8,0.9-6.7,2.4L217.4,142.5L217.4,142.5z M211.4,144.4h-6.1v13c-0.3,2.1,1.2,4,3.2,4.2h0.5&#xD;&#xA;&#x9;&#x9;&#x9;c1,0,2.1-0.3,2.9-0.8v3.7c-1.2,0.4-2.4,0.6-3.6,0.6c-4.4,0-7.1-2.2-7.1-6.8v-13.9h-5.1v-3.5h5.1v-5.6l4.2-1.4v6.8h6.1V144.4&#xD;&#xA;&#x9;&#x9;&#x9;L211.4,144.4z M254.6,159.9c1.6,1,3.4,1.5,5.3,1.7c2,0,4.3-0.8,4.3-3.4c0-4.3-10-4-10-10.6c0-5,3.6-7.3,8.1-7.3&#xD;&#xA;&#x9;&#x9;&#x9;c1.8,0,3.6,0.4,5.3,0.9l-0.4,3.9c-1.4-0.7-2.9-1.1-4.5-1.2c-2.2,0-4.1,0.9-4.1,2.9c0,4.9,9.9,3.5,10,11v0.2c0,5-4,7.3-8,7.3&#xD;&#xA;&#x9;&#x9;&#x9;c-2.2,0.1-4.3-0.4-6.3-1.3C254.3,163.8,254.6,159.9,254.6,159.9L254.6,159.9z"/>
      <path fill="#97969A" d="M177.2,144.4h-6.1v13c-0.3,2.1,1.2,4,3.2,4.2h0.5c1.1,0,2.1-0.3,3-0.8v3.7c-1.2,0.4-2.4,0.6-3.6,0.6&#xD;&#xA;&#x9;&#x9;&#x9;c-4.4,0-7.1-2.2-7.1-6.8v-13.9h-5.1v-3.5h5.1v-5.6l4.1-1.4v6.8h6.1L177.2,144.4L177.2,144.4z M146,159.9c1.6,1,3.4,1.6,5.3,1.7&#xD;&#xA;&#x9;&#x9;&#x9;c2,0,4.3-0.8,4.3-3.4c0-4.3-10-4-10-10.6c0-5,3.6-7.3,8.1-7.3c1.8,0,3.6,0.4,5.3,0.9l-0.4,3.8c-1.4-0.7-2.9-1.1-4.5-1.2&#xD;&#xA;&#x9;&#x9;&#x9;c-2.2,0-4.1,0.9-4.1,2.9c0,4.9,10,3.5,10,11c0,5-4,7.4-8,7.4c-2.2,0.1-4.3-0.4-6.3-1.3L146,159.9L146,159.9z M130.6,140.8h4v3.7&#xD;&#xA;&#x9;&#x9;&#x9;h0.1c1.1-2.4,3.4-4.1,6-4.2c1,0,1.9,0.1,2.8,0.4v3.9c-0.7-0.3-1.5-0.5-2.3-0.5c-3.8,0-6.3,3.7-6.3,9.6v10.8h-4.2V140.8z&#xD;&#xA;&#x9;&#x9;&#x9; M119.1,140.8h4.2v23.8h-4.2V140.8z M123.6,135.5h-4.8v-5h4.8V135.5z M104.1,144.4h-5.5v-3.5h5.4v-2.2c0-5.8,1.4-9.5,7.7-9.5&#xD;&#xA;&#x9;&#x9;&#x9;c1,0,1.9,0.1,2.9,0.3l-0.2,3.5c-0.6-0.2-1.4-0.3-2.1-0.3c-3.7,0-4.1,2.4-4.1,5.7v2.5h6.1v3.5h-6.1v20.2h-4.2L104.1,144.4&#xD;&#xA;&#x9;&#x9;&#x9;L104.1,144.4L104.1,144.4z"/>
    </g>
  </g>
</svg>