<?xml version="1.0" encoding="UTF-8" standalone="yes"?>
<svg version="1.2" baseProfile="tiny-ps" viewBox="0 0 134 134" xmlns="http://www.w3.org/2000/svg">
  <title>INTUILAB SAS</title>
  <path fill="#F0F0F1" d="M109.1,134c13.7,0,24.9-11.1,24.9-24.8v-0.1V24.9C134,11.2,122.9,0,109.2,0h-0.1H24.9C11.2,0,0,11.1,0,24.8  v0.1v84.2C0,122.8,11.1,134,24.8,134h0.1H109.1z"/>
  <path fill="#49A4FC" d="M63.4,28.4c0.7,0.4,0.9,1.3,0.5,1.9c-0.1,0.2-0.3,0.4-0.5,0.5L43.7,42.3c-0.7,0.4-1.5,0.1-1.9-0.5  c-0.1-0.2-0.2-0.5-0.2-0.7v-23c0-0.8,0.6-1.4,1.4-1.4c0.2,0,0.5,0.1,0.7,0.2L63.4,28.4z"/>
  <path fill="#9655FC" d="M63,103.7c-0.7,0.4-0.9,1.2-0.5,1.9c0.1,0.2,0.3,0.4,0.5,0.5l19.9,11.5c0.7,0.4,1.5,0.1,1.9-0.6  c0.1-0.2,0.2-0.4,0.2-0.7v-23c0-0.8-0.6-1.4-1.4-1.4c-0.2,0-0.5,0.1-0.7,0.2L63,103.7z"/>
  <path fill="#0C0C0C" d="M91.2,33.6c2,0,3.9,0.6,5.6,1.7l4.2-8.6c-3.5-1.9-7.4-2.9-11.4-2.9c-8.3,0-16.6,4.8-16.6,15.4v5.1h-6.3v8H73  v36.6c0,0.9,0.6,1.2,1.4,0.8l9.2-5.3c0.8-0.5,1.3-1.4,1.4-2.4V52.3h11.1v-8H85v-4.6C85,36,87.4,33.6,91.2,33.6z"/>
  <path fill="#0C0C0C" d="M52.4,45.2l-9.3,5.4c-0.8,0.5-1.3,1.4-1.4,2.4v36.9h12.1V46C53.8,45.1,53.2,44.8,52.4,45.2z"/>
</svg>