<?xml version="1.0" encoding="utf-8"?>
<!-- Generator: Adobe Illustrator 28.2.0, SVG Export Plug-In . SVG Version: 6.00 Build 0)  -->
<svg version="1.2" baseProfile="tiny-ps" id="Layer_1" xmlns="http://www.w3.org/2000/svg" xmlns:xlink="http://www.w3.org/1999/xlink"
	  width="96px" height="96px" viewBox="0 0 96 96"  xml:space="preserve">
	  <title>Coastal Credit Union</title>
<g>
	<rect x="-0.7" y="-0.7" fill="#00A950" width="97.1" height="97.1"/>
	<g>
		<path fill="#FFFFFF" d="M61.3,73.8c0,0-2.7-0.1-5,1c-2.2,1.1-4.2,3.3-4.2,3.3h9.7L61.3,73.8z"/>
		<path fill="#FFFFFF" d="M60.3,65.4l-1.1-9.3c-1.5-0.2-6.1-0.5-12,1.9c-0.7,0.3-1.3,0.6-1.9,0.9l1.2-8.3c0.4-0.2,0.8-0.5,1.3-0.7
			c5.3-2.4,9-1.9,10.5-1.5l-0.9-7.4c-1.4-0.5-5-1.2-9.5,0.2l0.7-5c1-0.5,2.1-1,3.4-1.1c-1-0.4-2.1-0.7-3.1-0.7l-0.1,0
			c-0.6,0-1.2,0-1.8,0.1l0-1.6c0,0,0.6-1.3,3.5-2.5c2.1-0.9,5.1-0.6,6.5-0.4c-1.4-0.7-3.6-1.5-6-1.5c-0.2,0-0.4,0-0.6,0l0.4-6.6
			c0.5-0.2,1.1-0.3,1.9-0.4c-0.9-0.4-1.8-0.5-2.5-0.5l0-0.1l1.2-3.4l-3.9,3.6l-0.8,8.3c-2,0.9-3.4,2.1-3.4,2.1l0.7,5.1l0,0
			l-4.4,38.5l-12.4,2.9h12h0h0h3.3l1-6.6c1.6-1.8,3.6-3.5,6.1-4.6C55.5,64.2,59.1,65,60.3,65.4"/>
	</g>
</g>
</svg>
