<?xml version="1.0" encoding="UTF-8" standalone="yes"?>
<svg version="1.2" baseProfile="tiny-ps" viewBox="0 0 430 430" xml:space="preserve" xmlns="http://www.w3.org/2000/svg">
  <title>Haulix</title>
  <g id="_x37_22733" transform="matrix(0.5494 0 0 0.5494 499.9984 499.9985)">
    <g vector-effect="non-scaling-stroke">
      <g transform="matrix(1 0 0 1 -22.5972 -16.385)">
        <path fill="#FFFFFF" d="M-268.8-512.6c-15.1,76-61.6,144.4-123.3,191.3c-53.5,40.9-118.3,65.9-183.8,65.9&#xA;&#x9;&#x9;&#x9;&#x9;c-70.2,0-131.4-27.5-171.9-77.7c-42-51.3-56.9-119.4-42.7-191.5c13.6-68.4,52.9-130.8,105.5-177.1c0.3-0.2,0.7-0.5,1.3-0.8&#xA;&#x9;&#x9;&#x9;&#x9;c56.2-49,127.9-79.5,200.3-79.5c70.3,0,131.3,27.7,172.1,77.8C-269.6-652.9-254.5-584.8-268.8-512.6z"/>
      </g>
      <g transform="matrix(1 0 0 1 0.0025 0)">
        <path d="M-284-728.6c-47.5-58.7-118-91-198.6-91c-79.6,0-158.4,33.3-220.7,86.8c-60.8,51.9-105.8,123.2-121.5,201.9&#xA;&#x9;&#x9;&#x9;&#x9;c-16.4,83.2,1.1,162.1,49.7,222.1c47.4,58.7,117.8,90.9,198.4,90.9c73.1,0,145.4-28,204.9-73.9&#xA;&#x9;&#x9;&#x9;&#x9;c68.6-52.8,120.4-129.5,137.2-214.7C-218.1-589.7-235.7-668.6-284-728.6z M-302.2-529.3c-14.5,72.8-59.1,138.4-118.2,183.4&#xA;&#x9;&#x9;&#x9;&#x9;c-54,47-123.3,70.5-192.7,70.5c-67.3,0-120.1-23.6-159-71.7c-40.3-49.2-54-109.7-40.5-178.8c14.4-72.3,52.7-139.6,111.2-184.8&#xA;&#x9;&#x9;&#x9;&#x9;c0.3-0.2,0.7-0.5,1.2-0.8c53.9-47,122.6-76.2,192-76.2c67.4,0,125.9,26.5,165,74.6C-302.9-663.7-288.4-598.5-302.2-529.3z"/>
      </g>
      <g transform="matrix(1 0 0 1 -92.1159 28.585)">
        <path d="M-328.2-374.4c-54,47-122.6,76.1-192,76.1c-67.3,0-126-26.4-164.8-74.5c-40.3-49.2-54.5-114.5-41-183.6&#xA;&#x9;&#x9;&#x9;&#x9;c14.4-72.4,58.5-137.5,117-182.7c-50.5,44.4-88.1,104.2-101.2,169.8c-13.6,69.2,0.7,134.5,41,183.6&#xA;&#x9;&#x9;&#x9;&#x9;c38.9,48.1,97.5,74.5,164.8,74.5C-441.7-311.3-379.5-335.1-328.2-374.4z"/>
      </g>
      <g transform="matrix(1 0 0 1 -35.9724 41.24)">
        <path d="M-475.5-571.4c-1.7,0-3.2-0.3-4.6-0.7c-1.3-0.4-2.6-1-3.6-1.7c-1.1-0.9-2-1.9-2.7-2.9c-0.7-1.3-1.3-2.4-1.6-3.9l-1-4.8&#xA;&#x9;&#x9;&#x9;&#x9;l0,0l-4.7-22.7l-25,82l0,0l-1.5,5.1c-0.6,1.6-1.3,3-2.2,4.3c-1,1.3-2.1,2.4-3.3,3.3c-1.3,1-2.6,1.7-4,2.1s-2.9,0.6-4.5,0.6h-0.1&#xA;&#x9;&#x9;&#x9;&#x9;c-0.1,0-0.1,0-0.3,0c-0.1,0-0.1,0-0.3,0c-1.4-0.3-3-0.7-4.3-1.4c-1.3-0.7-2.3-1.6-3.3-2.7c-1-1-1.6-2.4-2.1-3.9&#xA;&#x9;&#x9;&#x9;&#x9;c-0.6-1.3-0.7-2.9-0.7-4.5l1.8-83.9l0,0l1.4-62.6l-54.2,245.2l0,0l-2.5,11.4c-0.4,1.9-1.1,3.7-2.1,5.3c-0.9,1.6-2,3-3.3,4.2&#xA;&#x9;&#x9;&#x9;&#x9;c-1.3,1.1-2.6,1.9-4.2,2.4c-1.4,0.4-3.2,0.6-4.7,0.4l-0.3-0.1c-1.4-0.3-2.9-0.9-4.2-1.9c-1.2-0.9-2.3-2-3.2-3.4&#xA;&#x9;&#x9;&#x9;&#x9;c-0.7-1.3-1.4-3-1.9-4.7c-0.3-1.6-0.4-3.4-0.3-5.5l13.3-171.7l0-1.6l0.2-0.3l4.2-54.7l-40,118.6l0,0l0,0l-1.1,3.2&#xA;&#x9;&#x9;&#x9;&#x9;c-0.4,1.4-1.2,2.9-2,4c-0.7,1.2-1.7,2.3-2.7,3c-1.2,0.9-2.2,1.7-3.3,2.2c-1.1,0.4-2.4,0.7-3.6,0.6h-0.1c-0.1,0-0.1,0-0.1,0&#xA;&#x9;&#x9;&#x9;&#x9;c-1.1,0-2.1-0.3-3.2-0.9c-1-0.6-1.7-1.2-2.3-2c-0.7-1-1.2-1.9-1.4-3.2c-0.1-1.1-0.3-2.4-0.1-3.7l4.7-62.9l1.3-17.2l-14.2,27.5&#xA;&#x9;&#x9;&#x9;&#x9;c-0.4,0.9-0.9,1.6-1.3,2.1c-0.3,0.3-0.4,0.6-0.7,0.9c-0.7,0.9-1.6,1.6-2.4,2.3c-1,0.6-1.7,1.2-2.7,1.4c-1,0.4-2,0.7-2.9,0.7&#xA;&#x9;&#x9;&#x9;&#x9;l-62.3,0.9c-4.7,50.8,8.6,98.1,38.6,135c33.6,41.5,84.2,64.3,142.2,64.3c109.9,0,217.1-84.4,248.8-192.3&#xA;&#x9;&#x9;&#x9;&#x9;c1.4-4.6,2.7-9.2,3.7-13.9L-475.5-571.4z"/>
      </g>
      <g transform="matrix(1 0 0 1 -31.3049 -115.54)">
        <path fill="#F3961C" d="M-350.9-582.2c-33.7-41.5-84.2-64.4-142.4-64.4c-116.5,0-230.5,95.6-253.9,212.9&#xA;&#x9;&#x9;&#x9;&#x9;c-0.3,1.9-0.7,3.6-0.9,5.5l9.2-0.4l49.8-2.1l29.1-54.8c4.9-9.7,15.9-10.2,15.8,1.9l-0.1,2.2l0,1.9l-2.5,46.1l7.9-22.5l0.1-0.2&#xA;&#x9;&#x9;&#x9;&#x9;l33.9-96.6c3.3-10.7,18.1-13.8,17.1,3l0,0.3l-8.4,158.9l12-49.7l0.1-0.4l34-140.9l1.7-6.9l3.2-13.4c3.4-12.2,19.4-13.7,19.4,2&#xA;&#x9;&#x9;&#x9;&#x9;l0,3.1l0,0.7l-0.1-0.7l0.8,151.3l10.9-33.2v0l6.9-21c5.4-16.6,20.2-19.7,24.6,1.8l14.1,57.9l22.1-0.9l39.5-1.7l53.7-2.1l40.9-1.7&#xA;&#x9;&#x9;&#x9;&#x9;C-307.4-497.7-320.8-545.2-350.9-582.2z"/>
      </g>
    </g>
  </g>
</svg>