<svg  version="1.2" baseProfile="tiny-ps" width="193" height="193" viewBox="0 0 193 193" fill="none" xmlns="http://www.w3.org/2000/svg">
<title>Billie GmbH</title>
<rect width="192.053" height="192.053" fill="#1C1C1E"/>
<path d="M119.424 89.8252C120.17 86.1598 120.561 82.2375 120.561 78.6537C120.561 63.8051 108.144 50.9526 92.9058 49.9954C92.2659 49.9604 91.6142 49.937 90.9744 49.937C83.4503 49.937 76.2698 52.762 70.76 57.8983C64.8473 63.4199 61.4585 71.2177 61.4585 79.2841V142.122H101.034C117.327 142.122 130.597 128.955 130.597 112.775C130.597 103.833 126.45 95.3818 119.436 89.8135L119.424 89.8252ZM101.034 128.394H88.9008C99.1976 120.62 106.817 111.9 112.16 101.791C114.98 104.615 116.722 108.491 116.722 112.787C116.722 121.39 109.672 128.394 101.01 128.394H101.034ZM106.722 78.642C106.722 81.2452 106.425 83.8251 106.046 85.9963H75.2981V79.2958C75.2981 74.9416 77.0636 70.9025 80.2629 67.9141C83.4621 64.9257 87.6448 63.4315 92.0408 63.7117C100.134 64.2137 106.722 70.9259 106.722 78.642ZM75.2981 97.1678H101.01C101.295 97.1678 101.591 97.1678 101.875 97.1912C96.1998 107.686 87.6804 116.347 75.2744 124.204V97.1678H75.2981Z" fill="white"/>
</svg>
