<svg xmlns="http://www.w3.org/2000/svg" xmlns:xlink="http://www.w3.org/1999/xlink" version="1.2" width="512px" height="512px" viewBox="0 0 512 512" baseProfile="tiny-ps">
  <title>TFX.TAX</title>
  <rect y="0" width="512" height="512" fill="#2485EA"/>
  <path d="M392.237,288l23.959-35.017l-21.631-31.525h17.654l13.774,21.049h0.485l13.677-21.049h16.587  l-21.728,31.525L458.973,288h-17.654l-16.005-24.638h-0.485L408.921,288H392.237z" fill="#FFFFFF"/>
  <path d="M324.312,288l25.608-66.542h17.848L393.376,288h-15.617l-4.753-13.095h-29.003L339.25,288H324.312z   M348.174,263.265h20.661l-5.917-16.393c-0.259-0.711-0.582-1.552-0.97-2.522c-0.324-1.035-0.679-2.166-1.067-3.395  s-0.776-2.425-1.164-3.589c-0.324-1.229-0.647-2.328-0.97-3.298h-0.582c-0.324,1.229-0.744,2.684-1.261,4.365  c-0.518,1.617-1.035,3.201-1.552,4.753c-0.518,1.487-0.938,2.716-1.261,3.686L348.174,263.265z" fill="#FFFFFF"/>
  <path d="M293.5,288v-54.417h-21.34v-12.125h57.327v12.125H308.05V288H293.5z" fill="#FFFFFF"/>
  <path d="M247.848,288v-13.871h14.065V288H247.848z" fill="#FFFFFF"/>
  <path d="M172.377,288l23.959-35.017l-21.631-31.525h17.654l13.774,21.049h0.485l13.677-21.049h16.587  l-21.728,31.525L239.113,288h-17.654l-16.005-24.638h-0.485L189.061,288H172.377z" fill="#FFFFFF"/>
  <path d="M121.661,288v-66.542h49.082v11.834h-34.629v16.49h30.943v11.737h-30.943V288H121.661z" fill="#FFFFFF"/>
  <path d="M75.913,288v-54.417h-21.34v-12.125H111.9v12.125H90.463V288H75.913z" fill="#FFFFFF"/>
</svg>