<?xml version="1.0" encoding="UTF-8"?>
<svg xmlns="http://www.w3.org/2000/svg" version="1.2" baseProfile="tiny-ps" id="Layer_1" viewBox="0 0 900 900" xml:space="preserve">
<title>Merox</title>
<desc>Merox logo for use with BIMI and other SVG Portable/Secure (SVG P/S) applications.</desc>
<g id="Layer_2_00000003101253955562135190000003684461362407937443_">
	<g id="Calque_1">
		<g>
			<g>
				<circle fill="#548CFF" cx="625.9" cy="431.7" r="46.3"/>
				<circle fill="#548CFF" cx="685.3" cy="326.6" r="11.8"/>
				<g>
					<path fill="#548CFF" d="M691.4,328.5l-25.6,44.2l-5.3,9.1c-27.3-19.1-64.8-12.5-84,14.8c-19.1,27.3-12.5,64.8,14.8,84l0,0
						l-5.3,9.3c-32.4-22-40.7-66.1-18.7-98.5c19.8-29,57.8-39.2,89.4-23.9l25.6-44.2L691.4,328.5z"/>
					<path fill="#548CFF" d="M557.5,539.7l23-40c3.2,1.5,6.2,3.3,9.1,5.3l-23,39.8L557.5,539.7z"/>
					<polygon fill="#548CFF" points="660.5,381.8 660.5,381.8 665.8,372.7 					"/>
					<path fill="#548CFF" d="M696.8,431.2c0,39.2-31.7,70.9-70.9,70.9c-10.6,0-21.1-2.4-30.7-7c-3.2-1.6-6.2-3.3-9.2-5.3l5.3-9.3
						c2.9,2,5.9,3.8,9.1,5.3c30.2,14,66.1,0.9,80.1-29.4c10.6-22.8,5.9-49.8-11.7-67.7l5.4-9.5C688.6,392.6,696.8,411.5,696.8,431.2
						z"/>
					<path fill="#548CFF" d="M544.5,431.2c0-44.9,36.4-81.4,81.3-81.4c9,0,18,1.5,26.5,4.4l5.4-9.3c-47.7-17.5-100.5,6.9-118,54.6
						c-13.4,36.5-2.4,77.4,27.4,102.3l5.4-9.3C554.7,477.1,544.5,454.7,544.5,431.2z"/>
					<path fill="#548CFF" d="M684.7,360.6l-5.3,9.3c33.9,29.5,37.5,80.9,7.9,114.8c-26.9,30.9-72.5,37-106.5,14.3l-5.3,9.1
						c42.4,27.9,99.4,16.2,127.3-26.2C728.6,442.8,720.8,390.5,684.7,360.6z"/>
					<path fill="#548CFF" d="M667.3,349.1l-5.3,9.1c3.1,1.5,6,3.3,8.9,5.2l5.3-9.1C673.3,352.4,670.4,350.6,667.3,349.1z"/>
					<polygon fill="#548CFF" points="679.4,369.9 673.5,380.5 680.7,389.3 689.3,374.5 					"/>
				</g>
				<circle fill="#548CFF" cx="562.9" cy="540" r="11.8"/>
			</g>
			<g>
				<path fill="#548CFF" d="M90.1,503.7H55V362.9h33.4v15.6c9-12.4,23.4-19.8,38.7-19.8c16.4,0,31.5,8.4,38.5,22.3
					c7.5-15.6,24-22.3,38.7-22.3c24.8,0,52.4,17,52.4,54.9v89.9h-35.1v-83.7c0-17.8-7.8-27.9-22.6-27.9c-16.4,0-25.7,11.8-25.7,29
					v82.8h-35.1v-83.9c0-17.8-7.2-27.9-22.6-27.9C99.2,391.9,90,403,90,424L90.1,503.7z"/>
				<path fill="#548CFF" d="M352.7,507.9c-41.5,0-70.8-30.8-70.8-74.7c0-43.5,29.3-74.4,70.2-74.4s66.1,31,66.1,74.4v11.4H317.6
					c3.6,20.1,17.3,33.4,35.1,33.4c12.3,0,23.7-6.1,33.1-20.1l27.3,16.2C399.5,495.3,379.2,507.9,352.7,507.9z M317.2,420.6h65.5
					c-2.8-21.3-13.1-32.6-31.2-32.6C332.6,388,320.6,400,317.2,420.6z"/>
				<path fill="#548CFF" d="M444.7,503.7V362.9h33.4v19.8c7.5-15.1,23.7-24,45-24l-1.4,34.6c-29,0.6-41.8,12-41.8,34.6v75.7
					L444.7,503.7z"/>
				<g>
					<polygon fill="#548CFF" points="819.8,425.1 860.4,362.9 822.8,362.9 801.3,397.2 					"/>
					<polygon fill="#548CFF" points="816.7,429.8 772.3,362.9 731.7,362.9 775.4,429.8 727.2,503.7 764.6,503.7 793.6,457.4 
						823.9,503.7 864.9,503.7 					"/>
				</g>
			</g>
		</g>
	</g>
</g>
</svg>
