<?xml version="1.0" encoding="UTF-8"?>
<svg xmlns="http://www.w3.org/2000/svg" xmlns:xlink="http://www.w3.org/1999/xlink" height="100%" stroke-miterlimit="10" version="1.2" viewBox="0 0 362 362" width="100%" xml:space="preserve" baseProfile="tiny-ps" fill-rule="nonzero" stroke-linecap="round" stroke-linejoin="round">
<title>Whatnot Inc</title>
<defs></defs>
<rect height="362" width="362" x="0" y="0"></rect><g id="Layer_1-2"><path d="M0-3.55271e-14L362-3.55271e-14L362 362L0 362L0-3.55271e-14Z" fill="#000000" fill-rule="nonzero" stroke="none"></path><g><path d="M124.95 128.675C117.08 120.765 106.19 115.865 94.15 115.865C70.17 115.865 50.73 135.305 50.73 159.285C50.73 171.335 55.64 182.245 63.57 190.115L106.77 233.325C114.63 241.235 125.53 246.135 137.57 246.135C149.61 246.135 160.42 241.275 168.27 233.415L168.33 233.355L168.36 233.325L171.96 229.725C172.44 229.245 172.59 228.535 172.36 227.905L163.3 203.025L193.6 233.325C201.46 241.235 212.36 246.135 224.4 246.135C236.44 246.135 247.33 241.235 255.2 233.325L298.4 190.115C306.33 182.245 311.24 171.335 311.24 159.285C311.24 135.305 291.8 115.865 267.82 115.865C255.78 115.865 244.89 120.765 237.02 128.675L225.62 140.075C224.94 140.755 223.84 140.755 223.16 140.075L211.76 128.675C203.9 120.765 193 115.865 180.96 115.865C168.92 115.865 158.03 120.765 150.16 128.675L138.76 140.075C138.08 140.755 136.98 140.755 136.3 140.075L124.9 128.675L124.95 128.675Z" fill="#fff351" fill-rule="nonzero" stroke="none"></path><path d="M172.43 230.185C173.09 229.525 173.3 228.555 172.99 227.675L171.77 228.125C171.91 228.525 171.82 228.965 171.52 229.265L172.44 230.185L172.43 230.185ZM225.19 139.615C224.77 140.035 224.08 140.035 223.65 139.615L222.73 140.535C223.66 141.465 225.17 141.465 226.11 140.535L225.19 139.615ZM138.35 139.615C137.93 140.035 137.24 140.035 136.81 139.615L135.89 140.535C136.82 141.465 138.33 141.465 139.27 140.535L138.35 139.615ZM194.09 232.865L163.79 202.565L162.87 203.485L193.17 233.785L194.09 232.865ZM124.49 129.135L135.89 140.535L136.81 139.615L125.41 128.215L124.49 129.135ZM139.27 140.535L150.67 129.135L149.75 128.215L138.35 139.615L139.27 140.535ZM150.67 129.135C158.42 121.345 169.15 116.515 181 116.515L181 115.215C168.78 115.215 157.72 120.185 149.74 128.215L150.66 129.135L150.67 129.135ZM181 116.515C192.86 116.515 203.59 121.335 211.33 129.135L212.25 128.215C204.27 120.185 193.21 115.215 180.99 115.215L180.99 116.515L181 116.515ZM211.33 129.135L222.73 140.535L223.65 139.615L212.25 128.215L211.33 129.135ZM226.11 140.535L237.51 129.135L236.59 128.215L225.19 139.615L226.11 140.535ZM237.51 129.135C245.26 121.345 255.99 116.515 267.84 116.515L267.84 115.215C255.62 115.215 244.56 120.185 236.58 128.215L237.5 129.135L237.51 129.135ZM267.84 116.515C291.46 116.515 310.61 135.665 310.61 159.285L311.91 159.285C311.91 134.945 292.18 115.215 267.84 115.215L267.84 116.515ZM310.61 159.285C310.61 171.155 305.77 181.905 297.96 189.655L298.88 190.575C306.93 182.595 311.92 171.515 311.92 159.285L310.62 159.285L310.61 159.285ZM297.96 189.655L254.76 232.865L255.68 233.785L298.88 190.575L297.96 189.655ZM254.75 232.865C247 240.655 236.27 245.485 224.42 245.485L224.42 246.785C236.64 246.785 247.7 241.815 255.68 233.785L254.76 232.865L254.75 232.865ZM224.42 245.485C212.56 245.485 201.83 240.665 194.09 232.865L193.17 233.785C201.15 241.815 212.21 246.785 224.43 246.785L224.43 245.485L224.42 245.485ZM162.71 203.245L171.77 228.125L172.99 227.675L163.93 202.795L162.71 203.245ZM171.51 229.265L167.91 232.865L168.83 233.785L172.43 230.185L171.51 229.265ZM167.91 232.865L167.88 232.895L168.8 233.815L168.83 233.785L167.91 232.865ZM167.88 232.895L167.82 232.955L168.74 233.875L168.8 233.815L167.88 232.895ZM167.82 232.955C160.08 240.695 149.39 245.485 137.58 245.485L137.58 246.785C149.75 246.785 160.77 241.855 168.74 233.875L167.82 232.955ZM137.58 245.485C125.72 245.485 114.99 240.665 107.25 232.865L106.33 233.785C114.31 241.815 125.37 246.785 137.59 246.785L137.59 245.485L137.58 245.485ZM107.25 232.865L64.04 189.655L63.12 190.575L106.32 233.785L107.24 232.865L107.25 232.865ZM64.03 189.655C56.22 181.905 51.38 171.165 51.38 159.285L50.08 159.285C50.08 171.525 55.07 182.595 63.12 190.575L64.04 189.655L64.03 189.655ZM51.38 159.285C51.38 135.665 70.53 116.515 94.15 116.515L94.15 115.215C69.81 115.215 50.08 134.945 50.08 159.285L51.38 159.285ZM94.15 116.515C106.01 116.515 116.74 121.335 124.48 129.135L125.4 128.215C117.43 120.185 106.37 115.215 94.15 115.215L94.15 116.515ZM172.38 227.895L172.99 227.675L172.38 227.895ZM171.98 229.715L172.44 230.175L171.98 229.715ZM223.19 140.075L223.65 139.615L223.19 140.075ZM225.65 140.075L225.19 139.615L225.65 140.075ZM136.35 140.075L136.81 139.615L136.35 140.075ZM138.81 140.075L138.35 139.615L138.81 140.075ZM150.21 128.675L150.67 129.135L150.67 129.135L150.21 128.675ZM211.8 128.675L211.34 129.135L211.34 129.135L211.8 128.675ZM237.05 128.675L237.51 129.135L237.51 129.135L237.05 128.675ZM298.42 190.115L297.96 189.655L297.96 189.655L298.42 190.115ZM255.22 233.325L254.76 232.865L254.76 232.865L255.22 233.325ZM193.63 233.325L194.09 232.865L194.09 232.865L193.63 233.325ZM163.33 203.025L163.79 202.565L162.72 203.245L163.33 203.025ZM168.38 233.325L167.92 232.865L167.92 232.865L168.38 233.325ZM168.35 233.355L168.81 233.815L168.81 233.815L168.35 233.355ZM168.29 233.415L168.75 233.875L168.75 233.875L168.29 233.415ZM106.79 233.325L107.25 232.865L107.25 232.865L106.79 233.325ZM63.58 190.115L64.04 189.655L64.04 189.655L63.58 190.115ZM124.95 128.675L124.49 129.135L124.49 129.135L124.95 128.675Z" fill="#000000" fill-rule="nonzero" stroke="none"></path></g></g></svg>