<?xml version="1.0" encoding="utf-8"?>
<!-- Generator: Adobe Illustrator 24.0.1, SVG Export Plug-In . SVG Version: 6.00 Build 0)  -->
<svg version="1.2" baseProfile="tiny-ps" id="Layer_1" xmlns="http://www.w3.org/2000/svg" xmlns:xlink="http://www.w3.org/1999/xlink"
	  viewBox="0 0 601.8 601.8" xml:space="preserve">
<title>Lighterusa</title>
<g>
	<rect fill-rule="evenodd" width="601.8" height="601.8"/>
	<g>
		<path fill-rule="evenodd" fill="#D80000" d="M48.2,250.9c-3.3,20.9-12.5,26.9-18.5,36.9c-8.5,14.3-11.4,30.5,10.4,56
			c11.7-22.6,17.8-22.7,22.6-35.2C68.8,292.3,57.8,263.3,48.2,250.9L48.2,250.9z M49.7,343.5c0.9-21.1,26.3-22.2,18.7-60.1
			c15.2,15.9,15,38.4,5.7,48.9C66.8,340.6,56.9,338.7,49.7,343.5L49.7,343.5z M31.2,344c-24.8-2.6-30.5-30.6-11.8-46.2
			C14.2,318.6,18.2,334,31.2,344z"/>
		<g>
			<path fill-rule="evenodd" fill="#FFFFFF" d="M93.9,285.9h16.7v52.6H93.9V285.9z M348.7,299.2h17.1v3.5c6.4-3.6,13-5.3,20.7-3.9
				c7.7,2.2,10.2,8,9.4,13.7c-4.6,1.8-9.6,3.9-14.3,5.7c-4.6-7.6-9.5-10.7-14.3-6c-1.9,1.9-1.6,3-1.6,5.7v20.7h-17.1V299.2z
				 M317.6,297.7c20.4,0,28.2,10.8,28.2,22.7c0,0.6,0,1.3-0.1,1.8c0,0.1,0,0.2,0,0.2h-17.1h-4.5h-18.5c0.4,6.5,5.8,8.7,11.4,8.7
				c3.7,0,7-1.2,9.3-3.7h19.1c-3.6,8.7-13.5,13.5-26.1,13.5c0,0-2.8,0-2.9,0c-16.2,0-30.6-6.4-30.8-21.5
				c-0.3-16.5,13.3-21.9,29.5-22C315.1,297.7,317.5,297.7,317.6,297.7L317.6,297.7z M315.9,305.9c5.4,0,10.4,2.3,11.1,8h-22.2
				C305.6,307.9,310.5,305.9,315.9,305.9L315.9,305.9z M261,291.3l18.1-4.4v12.4h3.2v10.8h-3.2v14.8c0.1,3.5,1.9,4.5,4,5.3
				c0,1.7,0.1,3.5,0.1,5.1c-1.1,1.3-2.4,2.1-4.1,2.8c-3.9,1-7.8,1-11.7,0c-3.5-1.2-6.5-5.6-6.5-8.9v-19.1h-3.2v-10.8h3.2L261,291.3
				L261,291.3z M198.8,285.9h16.7v18c2.8-3.1,8.5-5.1,17.7-5.6c12.6-0.8,20.5,5.7,20.8,15.9c0,8.1,0,16.2,0,24.4
				c-5.6,0-11.1,0-16.7,0c0-7,0-14,0-20.9c-1-7.7-14.1-10.9-21.7-2.4v23.3h-16.7v-52.7H198.8z M177.9,333.2
				c-1.3,5.6-5.6,7.6-11.4,7.9c-9,0.1-17.8-1.2-26.3-4.3c-1.3,2.9-2.5,5.8-3.8,8.7c11,4.6,34.9,7.6,45.9,3.3
				c4.6-1.8,8.5-4.6,11.1-8.6c1.6-2.5,1.4-4,1.4-5.6v-34.8h-16.8v2.5c-12.3-5.4-28.8-6.4-38.6,3.3c-3,3.5-4.1,7.8-4,12.2
				c0.3,8.7,6.5,15.6,16.2,17.3c7.9,1.3,16.5,0.6,26.3-2.4V333.2z M166.3,308.4c6.4,0,11.6,4,11.6,9c0,5-5.2,9-11.6,9
				c-6.4,0-11.6-4-11.6-9C154.7,312.4,159.8,308.4,166.3,308.4L166.3,308.4z M115.6,337.6h16.1v-38.4h-16.1V337.6z M115.6,285.9
				h16.1v7.3h-16.1V285.9z M454,338.6h-17.3v-5c-2.8,3.1-8,5.6-17.3,6.2c-12.6,0.8-20.5-6.3-20.8-16.3c0-8.1,0-16.3,0-24.4
				c5.6,0,12.2,0,17.8,0c0,7,0,14,0,20.9c1,7.6,12.6,10.9,20.3,2.3v-23.2H454V338.6z M578.4,338.4h-20.6l-1.2-2.8
				c-4.5,2.3-9.4,3.6-14.6,4c-3.3,0.2-6.5,0.3-10,0c-20.9-1.9-21.9-20-8.6-25.3c7.2-2.9,18.9-3.2,31.7-2.8
				c-2.1-6.7-15.2-5.2-29.5-1.1l-5.3-10.2c7.7-2.7,15.7-4.1,23.9-4.3c6.3-0.2,15.8,0.1,21.7,2.5c5.4,2.3,8.3,6.3,9,11.7v14.4
				c0,3,1.8,4.9,3.8,5.1v8.9H578.4z M545.4,319.3c5.7-0.6,10.5,0.2,10.9,2.8c0.3,2.6-5.1,5.6-11,6.3c-5.8,0.6-11.1-0.8-11.2-3.2
				C533.8,322.2,539.6,319.8,545.4,319.3L545.4,319.3z M510.7,308.9c-7.9,0-15.9,0-23.9,0c-1.4-2.2-6-2.5-8-1.3
				c-2.9,1.8-1.3,4.5,1.8,5H494c7.2,0.5,13.4,2.8,16.4,6.8c2.3,2.9,2.5,8.2,1,11.4c-2.6,5.6-10.2,9-19.2,9.3l-12.4,0.2
				c-2.6,0-5.3,0-7.9-0.5c-14.8-2.9-15.4-9.7-15.2-13.1c0,0,0,0,0-0.1h20.1l0,0c1,1.9,2.5,3.1,4.5,3.1h5.7c1.4,0,3.1-1.3,3.1-2.8
				c0.2-1.5-1.1-2.9-3.5-3l-12.4-0.2c-3.1,0-7.8-1.3-9.4-1.8c-13.2-5.1-11-22.8,6.3-24.8c9.8-1.2,19.7-1.3,29.6,1
				C507.5,300.3,510,304.3,510.7,308.9L510.7,308.9z"/>
			<g>
				<path fill="#FFFFFF" d="M585.3,284.2c1.4,0,2.7,0.3,4,1.1c1.3,0.8,2.3,1.7,3,3c0.8,1.3,1.1,2.7,1.1,4.1c0,1.4-0.3,2.7-1.1,4
					c-0.8,1.3-1.7,2.3-3,3c-1.3,0.8-2.6,1.1-4,1.1s-2.7-0.3-4-1.1c-1.3-0.8-2.3-1.7-3-3c-0.8-1.3-1.1-2.6-1.1-4
					c0-1.4,0.3-2.8,1.1-4.1s1.7-2.3,3-3C582.6,284.5,583.9,284.2,585.3,284.2z M585.3,285.7c-1.1,0-2.2,0.3-3.2,0.9
					c-1.1,0.5-1.8,1.4-2.4,2.4c-0.5,1-0.9,2.2-0.9,3.2s0.3,2.2,0.9,3.2c0.5,1.1,1.4,1.8,2.4,2.4c1,0.5,2.1,0.9,3.2,0.9
					c1.1,0,2.2-0.3,3.2-0.9c1.1-0.5,1.8-1.4,2.4-2.4c0.5-1,0.9-2.2,0.9-3.2c0-1.2-0.3-2.3-0.9-3.2c-0.5-1-1.4-1.8-2.4-2.4
					C587.6,286,586.4,285.7,585.3,285.7z M581.6,296.6v-8.5h1.7c1.6,0,2.6,0,2.7,0c0.5,0,1,0.2,1.3,0.3c0.3,0.1,0.5,0.4,0.8,0.9
					c0.2,0.4,0.3,0.8,0.3,1.2c0,0.6-0.2,1.2-0.6,1.6s-1,0.8-1.7,0.9c0.2,0.1,0.4,0.2,0.6,0.3c0.2,0.1,0.3,0.3,0.5,0.6
					c0.1,0.1,0.3,0.4,0.6,1.1l1,1.7h-2.2l-0.8-1.4c-0.4-1-0.9-1.5-1.2-1.7c-0.3-0.2-0.8-0.3-1.2-0.3h-0.4v3.6h-1.5V296.6z
					 M583.4,291.6h0.8c1,0,1.6,0,1.8-0.1c0.2-0.1,0.4-0.2,0.5-0.4c0.1-0.2,0.2-0.4,0.2-0.6c0-0.2-0.1-0.4-0.2-0.6s-0.3-0.3-0.5-0.4
					c-0.2-0.1-0.9-0.1-1.8-0.1h-0.8V291.6z"/>
			</g>
		</g>
	</g>
</g>
</svg>
