<?xml version="1.0" encoding="UTF-8" standalone="yes"?>
<svg version="1.2" baseProfile="tiny-ps" viewBox="0 0 100 100" xml:space="preserve" xmlns="http://www.w3.org/2000/svg">
  <title>bimi-svg-tiny-12-ps</title>
  <g id="Group_11" transform="translate(37.285 38.285)">
    <path id="Rectangle_34" fill="#F38136" d="M-28.967-3.162h14.37c1.983,0,3.584,1.601,3.584,3.584l0,0&#xA;&#x9;&#x9;c0,1.983-1.601,3.584-3.584,3.584h-14.37c-1.983,0-3.584-1.601-3.584-3.584l0,0C-32.55-1.526-30.95-3.162-28.967-3.162z"/>
    <path id="Rectangle_35" fill="#F38136" d="M-28.967,14.827h14.37c1.983,0,3.584,1.601,3.584,3.584l0,0&#xA;&#x9;&#x9;c0,1.983-1.601,3.584-3.584,3.584h-14.37c-1.983,0-3.584-1.601-3.584-3.584l0,0C-32.55,16.427-30.95,14.827-28.967,14.827z"/>
    <path id="Rectangle_36" fill="#E75D24" d="M-12.37-2.361L-12.37-2.361c1.566,1.253,1.809,3.514,0.557,5.045l-14.37,17.988&#xA;&#x9;&#x9;c-1.253,1.566-3.514,1.809-5.045,0.557l0,0c-1.566-1.253-1.809-3.514-0.557-5.045l14.37-17.954&#xA;&#x9;&#x9;C-16.162-3.336-13.901-3.614-12.37-2.361z"/>
    <path id="Rectangle_37" fill="#F38136" d="M4.401,12.217L4.401,12.217c-1.566,1.253-3.827,0.974-5.045-0.557l-7.168-8.977&#xA;&#x9;&#x9;c-1.253-1.566-0.974-3.827,0.557-5.045l0,0c1.566-1.253,3.827-0.974,5.045,0.557l7.168,8.977C6.21,8.703,5.966,10.965,4.401,12.217&#xA;&#x9;&#x9;z"/>
    <path id="Rectangle_38" fill="#F6B12E" d="M2.174,5.85L2.174,5.85c1.983,0,3.584,1.601,3.584,3.584v8.977&#xA;&#x9;&#x9;c0,1.983-1.601,3.584-3.584,3.584l0,0c-1.983,0-3.584-1.601-3.584-3.584V9.434C-1.41,7.451,0.191,5.85,2.174,5.85z"/>
    <path id="Rectangle_39" fill="#FDC664" d="M11.603-2.361L11.603-2.361c1.566,1.253,1.809,3.514,0.557,5.045l-7.202,9.012&#xA;&#x9;&#x9;c-1.253,1.566-3.514,1.809-5.045,0.557l0,0C-1.653,11-1.897,8.738-0.644,7.207l7.202-9.012C7.811-3.336,10.072-3.614,11.603-2.361z&#xA;&#x9;&#x9;"/>
    <path id="Rectangle_40" fill="#C7DA5D" d="M19.675-3.162L19.675-3.162c1.983,0,3.584,1.601,3.584,3.584v17.954&#xA;&#x9;&#x9;c0,1.983-1.601,3.584-3.584,3.584l0,0c-1.983,0-3.584-1.601-3.584-3.584V0.457C16.091-1.526,17.692-3.162,19.675-3.162z"/>
    <path id="Rectangle_41" fill="#85C453" d="M19.675,14.827h10.786c1.983,0,3.584,1.601,3.584,3.584l0,0&#xA;&#x9;&#x9;c0,1.983-1.601,3.584-3.584,3.584H19.675c-1.983,0-3.584-1.601-3.584-3.584l0,0C16.091,16.427,17.692,14.827,19.675,14.827z"/>
    <g id="Group_8" transform="translate(165.29 -34.094)">
      <path id="Path_11" fill="#75C3B7" d="M-110.859,30.935L-110.859,30.935c-1.983,0-3.584,1.601-3.584,3.584l0,0v14.37h3.584&#xA;&#x9;&#x9;&#x9;c1.983,0,3.584,1.601,3.584,3.584l0,0V34.553C-107.275,32.57-108.876,30.935-110.859,30.935z"/>
      <path id="Path_12" fill="#00AB9F" d="M-114.443,34.553c0-1.983,1.601-3.584,3.584-3.584h-14.37c-1.983,0-3.584,1.601-3.584,3.584&#xA;&#x9;&#x9;&#x9;s1.601,3.584,3.584,3.584h10.786V34.553z"/>
      <path id="Path_13" fill="#75C3B7" d="M-125.229,38.137c-1.983,0-3.584-1.601-3.584-3.584l0,0v17.954&#xA;&#x9;&#x9;&#x9;c0,1.983,1.601,3.584,3.584,3.584l0,0l0,0c1.983,0,3.584-1.601,3.584-3.584l0,0v-14.37H-125.229z"/>
      <path id="Path_14" fill="#00AB9F" d="M-110.859,48.923h-10.786v3.584c0,1.983-1.601,3.584-3.584,3.584h14.37&#xA;&#x9;&#x9;&#x9;c1.983,0,3.584-1.601,3.584-3.584C-107.275,50.523-108.876,48.923-110.859,48.923L-110.859,48.923z"/>
    </g>
  </g>
</svg>