<?xml version="1.0" encoding="utf-8" standalone="no"?>
<svg version="1.2" width="252.000000pt" height="252.000000pt" viewBox="0 0 252.000000 252.000000" preserveAspectRatio="xMidYMid meet" baseProfile="tiny-ps" xmlns="http://www.w3.org/2000/svg" zoomAndPan="disable">
  <title>Physical Research Laboratory</title>
  <metadata>
Physical Research Laboratory
</metadata>
  <g transform="translate(0.000000,252.000000) scale(0.017190,-0.017190)" fill="#0b45bb" stroke="none">
    <path d="M7075 14648 c-862 -24 -1736 -212 -2550 -548 -1045 -432 -1996 -1119 -2741 -1980 -1434 -1660 -2045 -3857 -1678 -6035 222 -1316 815 -2558 1711 -3587 137 -158 523 -544 681 -681 1705 -1484 3934 -2098 6160 -1696 965 174 1942 571 2759 1121 911 613 1688 1440 2249 2393 111 190 331 624 413 820 301 709 479 1416 557 2200 21 215 30 897 15 1133 -85 1301 -500 2529 -1220 3605 -537 803 -1234 1500 -2036 2035 -131 87 -380 242 -389 242 -2 0 -48 25 -102 56 -353 200 -831 412 -1234 547 -849 284 -1661 401 -2595 375z m560 -558 c589 -29 1125 -122 1682 -291 273 -83 658 -232 906 -352 l87 -42 -157 -112 c-500 -355 -978 -798 -1373 -1274 -655 -786 -1142 -1700 -1421 -2669 l-21 -74 -48 159 c-303 1002 -810 1917 -1507 2717 -137 158 -533 554 -688 689 -207 179 -451 370 -648 507 l-89 61 71 36 c120 60 407 180 596 248 836 303 1740 440 2610 397z m-3670 -1088 c1103 -720 1973 -1738 2509 -2934 36 -81 66 -151 66 -154 0 -4 -42 34 -93 82 -194 185 -359 321 -529 435 -508 342 -1027 538 -1643 621 -133 19 -210 22 -460 23 -188 0 -341 -5 -410 -13 -644 -77 -1193 -279 -1707 -628 -208 -141 -334 -244 -531 -434 -70 -67 -95 -86 -88 -67 30 79 163 362 233 496 476 914 1127 1682 1953 2307 170 128 519 364 539 364 6 0 79 -44 161 -98z m7120 -46 c854 -567 1570 -1330 2104 -2241 84 -143 305 -581 361 -714 l30 -74 -123 119 c-187 181 -365 320 -602 469 -125 79 -448 244 -575 294 -313 124 -628 204 -965 247 -174 23 -670 26 -840 6 -858 -100 -1612 -453 -2212 -1036 -73 -71 -133 -126 -133 -123 0 3 32 77 70 164 534 1197 1441 2252 2545 2958 l118 75 36 -22 c20 -12 104 -67 186 -122z m-6984 -2446 c257 -26 550 -91 784 -174 291 -104 667 -315 913 -512 123 -99 319 -290 431 -419 893 -1035 1022 -2541 320 -3711 -445 -741 -1175 -1278 -2004 -1474 -575 -136 -1159 -113 -1716 66 -1049 336 -1859 1201 -2124 2266 -75 305 -101 545 -92 868 14 492 122 917 348 1360 367 722 997 1276 1768 1556 226 82 561 156 806 177 95 8 472 6 566 -3z m6489 -1450 l0 -1450 -1451 0 -1452 0 7 68 c10 100 43 283 71 402 238 978 931 1794 1860 2190 275 117 721 231 938 239 l27 1 0 -1450z m712 1434 c855 -118 1624 -575 2140 -1271 225 -303 414 -695 514 -1063 38 -143 79 -359 90 -472 l7 -78 -1452 0 -1451 0 0 1450 c0 1435 0 1450 20 1450 10 0 70 -7 132 -16z m-712 -4897 l0 -1454 -112 14 c-577 70 -1128 302 -1599 674 -132 104 -400 372 -508 509 -373 470 -622 1073 -677 1638 l-7 72 1452 0 1451 0 0 -1453z m3460 1421 c0 -18 -9 -94 -20 -168 -148 -1005 -784 -1889 -1704 -2365 -331 -172 -741 -296 -1098 -333 l-78 -8 0 1453 0 1453 1450 0 1450 0 0 -32z m-6659 -1817 c297 -985 813 -1910 1512 -2711 146 -167 549 -566 718 -710 179 -154 404 -329 568 -444 l123 -86 -108 -51 c-640 -300 -1335 -501 -2034 -588 -317 -40 -428 -46 -840 -46 -412 0 -522 6 -840 46 -652 81 -1279 254 -1890 521 -69 31 -152 69 -184 85 l-59 30 78 53 c44 29 149 106 234 170 1081 815 1909 1897 2410 3148 78 197 184 501 231 669 13 46 26 81 28 78 3 -3 27 -76 53 -164z m948 -645 c357 -321 721 -549 1154 -720 904 -359 1953 -346 2843 35 419 178 774 412 1122 736 61 57 112 102 112 99 0 -18 -185 -408 -261 -549 -550 -1026 -1330 -1877 -2299 -2509 -74 -48 -140 -88 -146 -88 -17 0 -386 248 -514 344 -977 739 -1708 1665 -2188 2773 l-40 93 48 -53 c27 -29 103 -102 169 -161z m-1821 132 c-149 -352 -372 -764 -581 -1078 -529 -792 -1179 -1437 -1976 -1959 l-154 -100 -36 21 c-106 64 -355 235 -491 337 -939 702 -1672 1621 -2146 2689 -35 79 -64 146 -64 150 0 3 55 -49 123 -114 865 -846 2088 -1216 3297 -998 711 129 1404 487 1925 996 71 70 131 127 132 128 1 0 -12 -33 -29 -72z" />
    <path d="M3720 8084 c-177 -46 -339 -175 -417 -331 -104 -206 -96 -446 19 -641 72 -122 219 -239 358 -283 91 -30 263 -37 350 -15 216 54 394 213 468 418 34 96 43 278 17 378 -30 120 -81 206 -175 300 -95 95 -184 147 -300 174 -81 20 -247 19 -320 0z" />
  </g>
</svg>