<?xml version="1.0" encoding="utf-8"?>
<!-- Generator: Adobe Illustrator 25.4.1, SVG Export Plug-In . SVG Version: 6.00 Build 0)  -->
<svg version="1.2" baseProfile="tiny-ps" id="Layer_1" xmlns="http://www.w3.org/2000/svg" xmlns:xlink="http://www.w3.org/1999/xlink"
	 viewBox="0 0 500 500" xml:space="preserve">
<title>ArborXR</title>
<g>
	<g>
		<path fill="#5A58EB" d="M104.3,266.2l-43.5-75.4c-15.1,8.7-20.2,28-11.5,43l43.5,75.4C107.8,300.5,112.9,281.3,104.3,266.2z"/>
		<path fill="#05DA98" d="M42.3,241.6l-23.1,23.1C7,277,7,296.9,19.3,309.2v0l23.1-23.1C54.6,273.9,54.6,253.9,42.3,241.6z"/>
	</g>
	<g>
		<path fill="#0F233F" d="M191.5,284.7h-11.1l-6.4-18h-25.5l-6.5,18h-11l24.8-69.4h10.7L191.5,284.7z M170.5,256.8l-9.2-26l-9.2,26
			H170.5z"/>
		<path fill="#0F233F" d="M224.5,234.3l-2.1,10.4h-3.6c-1,0-2,0.2-3.1,0.5c-1.1,0.3-2.1,0.8-3,1.3c-1,0.5-1.8,1.1-2.6,1.8
			c-0.8,0.7-1.3,1.4-1.7,2.2v34.1h-10.5v-48.9h9.6v7c5.2-5.7,10.3-8.5,15.4-8.5H224.5z"/>
		<path fill="#0F233F" d="M254.4,285.7c-2.4,0-5-0.5-7.5-1.6c-2.6-1.1-4.7-2.5-6.4-4.4v5h-9.9v-74.4h10.1v29.8
			c3.3-3.5,7.9-5.3,13.9-5.3c3.5,0,6.7,0.7,9.5,2c2.8,1.4,5.2,3.2,7.1,5.6c1.9,2.3,3.5,5.1,4.5,8.1c1.1,3.1,1.6,6.3,1.6,9.8
			c0,3.5-0.6,6.8-1.7,9.9c-1.1,3.1-2.7,5.8-4.7,8.1c-2,2.3-4.4,4.1-7.2,5.4C260.7,285,257.7,285.7,254.4,285.7z M253.5,243.6
			c-4,0-7.2,1.5-9.7,4.4c-2.5,2.9-3.8,7-3.8,12.4c0,5.4,1.3,9.5,3.8,12.3c2.5,2.9,5.8,4.3,9.7,4.3c2,0,3.9-0.4,5.6-1.2
			c1.7-0.8,3.1-2,4.2-3.5c1.2-1.5,2-3.3,2.7-5.3c0.6-2,0.9-4.3,0.9-6.6c0-2.4-0.3-4.7-0.9-6.8c-0.6-2.1-1.5-3.9-2.7-5.3
			c-1.2-1.5-2.6-2.6-4.2-3.4C257.4,244,255.5,243.6,253.5,243.6z"/>
		<path fill="#0F233F" d="M307.7,285.7c-3.7,0-7.1-0.6-10.1-1.9c-3-1.3-5.6-3.1-7.7-5.4c-2.1-2.3-3.8-5-4.9-8
			c-1.2-3.1-1.7-6.4-1.7-10.1c0-3.6,0.6-6.9,1.7-10c1.1-3.1,2.7-5.8,4.9-8.1c2.1-2.3,4.7-4.1,7.7-5.4c3-1.3,6.4-2,10.2-2
			c3.8,0,7.2,0.7,10.2,2c3,1.3,5.6,3.1,7.7,5.5c2.1,2.3,3.8,5,4.9,8.1c1.1,3.1,1.7,6.4,1.7,10c0,3.6-0.6,6.9-1.7,10
			c-1.1,3.1-2.7,5.8-4.9,8c-2.1,2.3-4.7,4.1-7.7,5.4C314.9,285,311.5,285.7,307.7,285.7z M318.2,248c-2.5-3-6-4.5-10.4-4.5
			c-4.5,0-8,1.5-10.4,4.5c-2.4,3-3.7,7.1-3.7,12.3c0,5.2,1.2,9.3,3.6,12.3c2.4,2.9,5.9,4.4,10.5,4.4c4.6,0,8.1-1.5,10.5-4.5
			c2.4-3,3.7-7,3.7-12.2C321.9,255.2,320.7,251.1,318.2,248z"/>
		<path fill="#0F233F" d="M367.9,234.3l-2.1,10.4h-3.6c-1,0-2,0.2-3.1,0.5c-1.1,0.3-2.1,0.8-3,1.3c-1,0.5-1.8,1.1-2.6,1.8
			c-0.8,0.7-1.3,1.4-1.7,2.2v34.1h-10.5v-48.9h9.6v7c5.2-5.7,10.3-8.5,15.4-8.5H367.9z"/>
		<path fill="#0F233F" d="M430.9,284.7h-11.6l-18.9-27.4l-17.5,27.4h-11.6l23.7-34.6l-23.3-34.8h12.2l17.3,26.2l17.7-26.2h11.5
			l-24.1,33.5L430.9,284.7z"/>
		<path fill="#0F233F" d="M489.9,284.7h-11.2L463.7,258h-14.1v26.7h-10.7v-69.4h23.5c7.6,0,13.5,1.6,17.7,4.7
			c4.2,3.1,6.2,8.3,6.2,15.6c0,8.9-4.1,15.4-12.4,19.7L489.9,284.7z M461.3,224h-11.7v24.1h13.1c3.8,0,6.9-1,9.2-3
			c2.3-2,3.4-5.1,3.4-9.2C475.3,228,470.6,224,461.3,224z"/>
	</g>
</g>
</svg>
