<?xml version="1.0" encoding="UTF-8"?><svg xmlns="http://www.w3.org/2000/svg" xmlns:xlink="http://www.w3.org/1999/xlink" version="1.2" viewBox="0 0 200 200" baseProfile="tiny-ps"><title>baby-calendar</title><g id="baby-calendar-mark-sq"><g><rect id="bg" width="200" height="200" fill="#FFFFFF"></rect><path d="M99.51,62.64c-22.84,0-41.41,18.58-41.41,41.41s18.58,41.41,41.41,41.41s41.41-18.58,41.41-41.41    S122.34,62.64,99.51,62.64z M123.4,107.91c-4.83,4.83-11.53,6.59-17.76,5.33c-0.4-0.08-0.75,0.24-0.71,0.65    c0.56,5.05-1.07,10.29-4.94,14.16c-6.96,6.96-18.36,6.75-25.06-0.61c-6-6.6-5.91-16.96,0.19-23.46c3.9-4.16,9.33-5.93,14.55-5.35    c0.41,0.05,0.73-0.3,0.65-0.71c-1.33-6.59,0.73-13.72,6.21-18.59c7.4-6.56,18.86-6.48,26.17,0.17c8.34,7.59,8.57,20.51,0.69,28.4    L123.4,107.91z" fill="#EB748E"></path><path d="M87.79,110.65c-3.17-2.05-5.84-2.06-7.61-0.36c-1.77,1.71-1.8,4.42,0.32,7.6    c0.85,1.31,2,2.7,3.34,4.04c1.34,1.35,2.7,2.48,3.95,3.31c1.25-0.82,2.61-1.96,3.95-3.31s2.5-2.74,3.34-4.04    c2.11-3.19,2.08-5.9,0.32-7.6C93.64,108.58,90.96,108.6,87.79,110.65L87.79,110.65z" fill="#EB748E"></path><path d="M149.31,170c11.38,0,20.69-9.31,20.69-20.69v-14.26L134.39,170H149.31z" fill="#EB748E"></path><path d="M149,30h-7.58c-1.93,0-3.5,1.57-3.5,3.5v1.26c0,1.05,0.53,1.99,1.31,2.68    c1.69,1.48,2.59,3.83,2.01,6.36c-0.54,2.31-2.41,4.17-4.72,4.7c-4.2,0.96-7.93-2.2-7.93-6.24c0-1.94,0.86-3.67,2.22-4.85    c0.77-0.66,1.28-1.57,1.28-2.59v-1.31c0-1.93-1.57-3.5-3.5-3.5h-22.17c-1.93,0-3.5,1.57-3.5,3.5v1.26c0,1.05,0.53,1.99,1.31,2.68    c1.69,1.48,2.6,3.83,2.01,6.36c-0.54,2.31-2.41,4.17-4.72,4.7c-4.2,0.96-7.93-2.2-7.93-6.24c0-1.94,0.86-3.67,2.22-4.85    c0.77-0.66,1.28-1.57,1.28-2.59v-1.31c0-1.93-1.57-3.5-3.5-3.5H71.42c-1.93,0-3.5,1.57-3.5,3.5v1.26c0,1.05,0.53,1.99,1.31,2.68    c1.69,1.48,2.59,3.83,2.01,6.36c-0.54,2.31-2.41,4.17-4.72,4.7c-4.2,0.96-7.93-2.2-7.93-6.24c0-1.94,0.86-3.67,2.22-4.85    c0.77-0.66,1.28-1.57,1.28-2.59v-1.31c0-1.93-1.57-3.5-3.5-3.5h-7.58c-11.6,0-21,9.4-21,21v99.88c0,10.56,8.56,19.12,19.12,19.12    h81.71c0,0,1.78,0,1.78-3.94v-10.32c0-8.45,12.13-22.47,22.47-22.47c4.75,0,7.8,0.08,10.77,0c4.16-0.11,4.16-1.78,4.16-1.78l0,0    V51c0-11.6-9.4-21-21-21H149z M99.62,151.3c-25.99,0-47.14-21.22-47.14-47.3s21.15-47.3,47.14-47.3s47.14,21.22,47.14,47.3    S125.61,151.3,99.62,151.3z" fill="#EB748E"></path></g></g></svg>