<?xml version="1.0" encoding="utf-8"?>
<!-- Generator: Adobe Illustrator 27.9.0, SVG Export Plug-In . SVG Version: 6.00 Build 0)  -->
<svg version="1.2" baseProfile="tiny-ps" id="Layer_1" xmlns="http://www.w3.org/2000/svg" xmlns:xlink="http://www.w3.org/1999/xlink"
	viewBox="0 0 256 256" xml:space="preserve">

	<title>Grover Verified</title>
<path fill="#FE1251" d="M0,0h256v256H0V0z"/>
<path fill="#FFFFFF" d="M202.2,82.1c-2-7.1-4.9-13.6-9.7-18.7c-5-4.8-11.6-7.8-18.7-9.7c-18.5-5.1-39.9-4.9-58.6-0.6
	C96.4,57.3,82.7,69.6,71.6,85C61.3,99.2,51.5,117,50,134.8c-1.5,18.8,7.9,36.8,21.3,49.8c13,13.5,31,22.8,49.7,21.4
	c17.9-1.5,35.6-11.2,49.8-21.6c15.4-11.1,27.6-24.8,31.9-43.7C207.1,122,207.4,100.6,202.2,82.1z M130.9,173.1
	c-9.5,0-18.8-2.8-26.7-8.1c-7.9-5.3-14.1-12.8-17.7-21.6c-3.6-8.8-4.6-18.5-2.7-27.8c1.9-9.3,6.4-17.9,13.1-24.6
	c6.7-6.7,15.3-11.3,24.6-13.2c9.3-1.9,19-0.9,27.8,2.7c8.8,3.6,16.3,9.8,21.6,17.7c5.3,7.9,8.1,17.2,8.1,26.7l0,0
	c0,6.3-1.2,12.6-3.7,18.4c-2.4,5.8-6,11.1-10.4,15.6c-4.5,4.5-9.8,8-15.6,10.4C143.5,171.8,137.3,173.1,130.9,173.1z"/>
</svg>
