<?xml version="1.0" encoding="utf-8"?>
<!-- Generator: Adobe Illustrator 27.3.1, SVG Export Plug-In . SVG Version: 6.00 Build 0)  -->
<svg version="1.2" baseProfile="tiny-ps" id="Layer_1" xmlns="http://www.w3.org/2000/svg" xmlns:xlink="http://www.w3.org/1999/xlink"
	  viewBox="0 0 119.85 119.85" xml:space="preserve">
	  <title>Fisher &amp; Paykel Appliances"</title>
<g>
	<rect x="0.08" y="0.16" width="119.68" height="119.68"/>
	<g>
		<polygon fill="#FFFFFF" points="24.57,73.43 28.57,73.43 28.57,63.69 40.44,63.69 40.44,59.69 28.57,59.69 28.57,49.95 
			41.69,49.95 41.69,45.95 24.57,45.95 		"/>
		<path fill="#FFFFFF" d="M85.66,45.95h-8.99v27.48h4v-9.74h5c6,0,9.62-3.87,9.62-8.87S91.65,45.95,85.66,45.95z M85.66,59.69h-5
			v-9.74h5c3.5,0,5.62,2.12,5.62,4.87C91.28,57.57,89.15,59.69,85.66,59.69z"/>
		<path fill="#FFFFFF" d="M66.67,66.94l4.87-7.24h-4.75l-2.75,4L53.05,49.95h12.12v-4H48.06v4l3.62,4.5c-3.37,2-6.12,5.37-6.12,9.62
			c0,6,4.75,9.99,10.37,9.99c3.37,0,6.12-1.5,8.37-4l2.62,3.37h5L66.67,66.94z M55.93,70.06c-3.62,0-6.37-2.37-6.37-6
			c0-2.87,2-5.5,4.62-6.62l7.49,9.49C60.05,69.19,58.43,70.06,55.93,70.06z"/>
	</g>
</g>
</svg>
