<?xml version="1.0" encoding="utf-8"?>
<svg xmlns="http://www.w3.org/2000/svg" version="1.2" baseProfile="tiny-ps" id="Layer_1" xmlns:xlink="http://www.w3.org/1999/xlink"
    viewBox="0 0 900 900" xml:space="preserve">
    <title>Cinch</title>
    <g id="graphics">
        <rect width="100%" height="100%" fill="white" />
        <path fill="#54C7FF" d="M708.17,447.38c-53.85,108.99-135.32,145.34-211.73,150.36c-77.69,3.75-137.82-41.37-130.3-135.32
            c0.15-1.92,0.33-3.83,0.52-5.73c-4.24-1.65-8.47-3.29-12.71-4.93c-17.97-6.94-36.27-12.85-54.44-19.21
            c-18.53-6.49-37.01-13.14-55.64-19.37c-17.58-5.87-35.26-11.01-53.2-15.7c-6.47-1.69-12.94-3.41-19.37-5.24
            c-8.02,26.12-12.52,53.48-13.16,81.45c-2.53,130.29,93.95,233.06,226.77,238.06c137.82,5,256.82-55.95,358.31-250.18
            C749.5,451.58,715.69,429.84,708.17,447.38z"/>
        <path fill="#9CEFFF" d="M200.51,389.71c37.06,9.72,72.91,23.22,109.07,35.78c18.18,6.32,36.33,12.46,54.28,19.44
            c1.32,0.51,2.65,1.03,3.97,1.54c13.13-99.84,70.56-163.04,111.07-159.47c31.32,2.51,53.39,58.61-13.79,90.22
            c13.79,42.58,134.08,107.28,166.65,63.43c97.71-126.59,48.86-268.91-132.83-271.42c-162.12-2.03-282.43,91.01-324.51,213.47
            C183.08,385.18,191.8,387.43,200.51,389.71z"/>
        <path fill="#47A3DB" d="M465.11,377.23c0,0,69.17-4.36,70.85-74.7c1.67-70.34-81.22-102.16-81.22-102.16s-61.96-29.31-143.19,15.91
            C234.59,259.13,173.64,344.1,160.9,430.92c-6.26,42.64,2.1,71.78,24.31,108.15c30.47,49.9,81.43,89.66,139.04,101.88
            c71.59,15.19,146.02,17.15,214.67-11.39c55.48-23.06,100.69-68.52,134.9-126.49c0,0-59.99,96.3-200.67,94.62
            c0,0-96.3-0.42-106.98-104.49c-5.25-51.14,10.3-107.68,37.36-151.16c17.69-28.43,55.01-71.27,91.39-47.06
            c0,0,28.86,19.21,3.13,57.75C498.06,352.75,479.67,374.89,465.11,377.23z"/>
    </g>
</svg>
