<?xml version="1.0" encoding="utf-8"?>
<!-- Generator: Adobe Illustrator 25.4.1, SVG Export Plug-In . SVG Version: 6.00 Build 0)  -->
<svg version="1.2" baseProfile="tiny-ps" id="Layer_1" xmlns="http://www.w3.org/2000/svg" xmlns:xlink="http://www.w3.org/1999/xlink"
	 viewBox="0 0 500 500" xml:space="preserve">
	 <title>Skroutz</title>
<rect y="0" fill="#F68B24" width="500" height="500"/>
<path fill="#FFFFFF" d="M246.6,230.8c-16.7,0-28.7,11.7-28.7,28.1c0,16.4,12,28.1,28.7,28.1s28.7-11.7,28.7-28.1
	C275.3,242.5,263.3,230.8,246.6,230.8z M253.9,267.1c-2.1,2.2-5.2,2.7-7.4,2.7c-3.9,0-6.2-1.4-7.4-2.7c-1.8-1.9-2.8-4.7-2.8-8.2
	c0-3.5,1-6.3,2.8-8.2c2.1-2.2,5.2-2.7,7.4-2.7c3.9,0,6.2,1.4,7.4,2.7c1.8,1.9,2.8,4.7,2.8,8.2C256.7,262.4,255.8,265.3,253.9,267.1z
	 M429.3,241.2v-6.7c0-1.2-0.9-2.1-2.1-2.1h-38.5c-1.2,0-2.1,0.9-2.1,2.1v10.7c0,1.2,0.9,2.1,2.1,2.1h16.4l-14.7,18.3
	c-2.4,3.2-3.7,7-3.7,11v6.7c0,1.2,0.9,2.1,2.1,2.1h39.3c1.2,0,2.1-0.9,2.1-2.1v-10.7c0-1.2-0.9-2.1-2.1-2.1h-16.8l14.1-18.3
	C428,249.1,429.3,245.2,429.3,241.2z M377.6,232.4h-7.4V224c0-1.2-0.9-2.1-2.1-2.1h-16c-1.2,0-2.1,0.9-2.1,2.1v8.4h-6
	c-1.2,0-2.1,0.9-2.1,2.1v10.7c0,1.2,0.9,2.1,2.1,2.1h6V270c0,11.3,6.6,17,18.6,17c3.4,0,8.2-0.8,9.9-1.4c0.8-0.3,1.4-1.1,1.4-2
	v-11.4l0,0c0-1.4-1.2-2.5-2.6-2c0,0-1.6,0.3-2.7,0.3c-3,0-4.3-1.8-4.3-4.6v-18.6h7.4c1.2,0,2.1-0.9,2.1-2.1v-10.7
	C379.7,233.4,378.8,232.4,377.6,232.4z M333.6,232.4h-16.1c-1.2,0-2.1,0.9-2.1,2.1v31.2c-0.3,0.8-1.9,4.7-7.4,4.7
	c-4.6,0-6.9-2.7-6.9-9v-26.9c0-1.2-0.9-2.1-2.1-2.1h-16.1c-1.2,0-2.1,0.9-2.1,2.1v29c0,15,7.1,23.5,20.3,23.5
	c6.5,0,11.4-3.2,14.4-5.8v2.1c0,1.2,0.9,2.1,2.1,2.1h16.1c1.2,0,2.1-0.9,2.1-2.1v-48.8C335.7,233.4,334.7,232.4,333.6,232.4z
	 M157.1,260.6c8.2-5.7,10.4-14,10.4-20.8c0-2-0.4-4.3-0.8-5.8c-0.2-1-1.1-1.7-2.1-1.7h-16.3c-1.3,0-2.3,1.2-2.1,2.5
	c0.5,2.9,1,7.5-0.3,12.6c-1.8,7.1-8.1,6.5-8.1,6.5l0,0v-38.9c0-1.2-0.9-2.1-2.1-2.1h-16c-1.2,0-2.1,0.9-2.1,2.1v68.2
	c0,1.2,0.9,2.1,2.1,2.1h16c1.2,0,2.1-0.9,2.1-2.1v-16.4l0,0l0,0l0,0c0,0,0.4,0,1.2-0.1l11.8,17.6c0.4,0.6,1.1,0.9,1.8,0.9h17.1
	c1.7,0,2.7-1.9,1.8-3.3L157.1,260.6z M99.1,254c-3.3-1.6-8.1-3.2-7.5-6.4c0.5-2.3,2.7-2.6,4.3-2.6c1.8,0,6.3,1.3,9,2.1
	c1.1,0.3,2.3-0.3,2.6-1.4l2.8-9.1c0.3-1-0.2-2.1-1.2-2.6c-2.7-1.2-8.1-3.3-14.4-3.3c-15.3,0-23.5,8.3-23.5,17.3
	c0,8.7,8.7,12.9,13.6,15.5c5.8,3,7.3,4.1,7.2,6.1c-0.1,2.5-2,3.1-3.9,3.1c-3.4,0-9.6-2-12.8-3.2c-1.1-0.4-2.4,0.2-2.7,1.3l-2.9,8.7
	c-0.3,1,0.1,2,1,2.5c3,1.6,10.2,4.9,18.3,4.9c18.7,0,22.8-9.7,22.8-16.6C112,260.9,104.2,256.5,99.1,254z M212.7,230.9
	c-0.4,0-0.8-0.1-1.3-0.1c-0.7,0-7.9-0.4-15,5.8v-2.1c0-1.2-0.9-2.1-2.1-2.1h-16.1c-1.2,0-2.1,0.9-2.1,2.1v48.8
	c0,1.2,0.9,2.1,2.1,2.1h16.1c1.2,0,2.1-0.9,2.1-2.1v-26.9c0-4,4.4-6.2,8.4-6.2c3,0,6.1,1.3,6.6,1.5c0.1,0,0.2,0.1,0.3,0.1
	c1.4,0.6,2.9-0.5,2.9-2V233C214.6,231.9,213.8,231,212.7,230.9z"/>
</svg>
