<?xml version="1.0" encoding="UTF-8" standalone="yes"?>
<svg baseProfile="tiny-ps" version="1.2" viewBox="0 0 87.9 87.9" xmlns="http://www.w3.org/2000/svg">
  <title>ADESA Inc</title>
  <g>
    <g id="Layer_1">
      <rect y="-.1" width="87.9" height="87.9" fill="#053038"/>
      <g id="Layer_1-2">
        <g>
          <polygon points="44.6 42.1 47.4 44.4 46.9 47.1 51.5 47.1 50.9 51.1 41 51.1 43.3 36.7 53 36.7 52.4 40.6 48 40.6 47.7 42.1 44.6 42.1 44.6 42.1" fill="#fff"/>
          <polygon points="51.4 46.7 51.2 44.3 53.2 42.8 51 42.8 50.7 40.9 49.5 42.8 47.1 42.8 47.1 42.8 48.8 44.3 47.7 46.7 49.9 45.1 51.4 46.7 51.4 46.7" fill="#47c4d7"/>
          <path d="M79,36.6c.8,0,1.4.6,1.4,1.4s-.6,1.4-1.4,1.4-1.4-.6-1.4-1.4.6-1.4,1.4-1.4h0ZM79,36.9c-.6,0-1.1.5-1.1,1.2s.5,1.2,1.1,1.2,1.1-.5,1.1-1.2-.5-1.2-1.1-1.2h0ZM78.7,38.9h-.3v-1.6h.9v.3c0,0,0,.3-.3.4h0s.2.2.3.4v.4h-.3v-.4c0-.2,0-.3-.3-.3h-.2v.7h.2ZM78.7,38h.2c.2,0,.4,0,.4-.3s0-.3-.4-.3,0,0-.2,0v.5h0Z" fill="#fff"/>
          <path d="M13.3,51.1h-6.4l8.4-16.7h6.7l3.3,16.7h-6.4l-.2-2.1h-4.6l-.8,2.1h0ZM18.3,45l-.2-2.9v-2.1h-.2l-1.9,5.1h2.4,0Z" fill="#fff"/>
          <path d="M28.5,36.7h5.3c4.8,0,8.2,2.1,7.4,7.4-.7,4.3-4.1,7-8.3,7h-6.6l2.3-14.4s-.1,0-.1,0ZM32.2,46.8h.3c1.7,0,3.2-.8,3.5-2.7.3-2-.7-2.9-2.6-2.9h-.3l-.9,5.6h0Z" fill="#fff"/>
          <path d="M54.2,45.9l.2.2c.9.7,1.9,1.3,3.2,1.3s1.4-.2,1.5-.9c0-.6-.6-.7-1.1-.8l-1.1-.2c-2.1-.4-3.7-1.6-3.3-3.8.6-3.4,4.2-5.3,7.4-5.3s3.2.4,4.6,1.3l-2.1,3.7c-.8-.6-1.8-1.1-3-1.1s-1.2.2-1.3.8c0,.5.6.6,1,.7l1.2.3c2.2.5,3.7,1.7,3.3,4.1-.6,3.4-4.1,5.1-7.4,5.1s-4-.5-5.6-1.3l2.4-4.1h0Z" fill="#fff"/>
          <path d="M69,51.1h-5.5l7.3-14.4h5.8l2.9,14.4h-5.5l-.2-1.8h-4l-.7,1.8h-.1ZM73.2,45.9l-.2-2.5v-1.9h-.2l-1.7,4.4s2.1,0,2.1,0Z" fill="#fff"/>
        </g>
      </g>
    </g>
  </g>
</svg>