<?xml version="1.0" encoding="utf-8"?>
<svg width="500" height="500" viewBox="0 0 500 500" fill="none" version="1.2" baseProfile="tiny-ps" xmlns="http://www.w3.org/2000/svg">
  <title>Carvana</title>
  <path d="M500 250C500 388.09 388.09 499.999 249.966 499.999C111.842 499.999 0 388.101 0 250C0 111.898 111.91 0 249.932 0C387.953 0 500 111.956 500 250Z" fill="#228BE6" />
  <path d="M250.285 115.733C236.916 115.647 223.56 116.574 210.331 118.506C201.917 119.647 195.262 121.85 192.431 123.299L193.504 123.801C197.574 125.442 201.806 126.647 206.13 127.396C217.249 129.53 232.945 130.923 250.274 130.923C263.62 131.01 276.954 130.082 290.16 128.15C298.573 126.951 305.228 124.726 308.059 123.299L306.986 122.797C302.939 121.175 298.729 119.992 294.429 119.271C283.322 117.125 267.625 115.733 250.285 115.733ZM250.285 140.178C236.482 140.268 222.691 139.322 209.029 137.348C197.614 135.396 189.554 133.445 184.726 129.154C183.882 128.415 183.202 127.509 182.726 126.493C182.251 125.478 181.991 124.375 181.963 123.254C181.984 122.146 182.241 121.056 182.717 120.056C183.194 119.056 183.879 118.17 184.726 117.456C186.188 116.117 187.862 115.029 189.68 114.238C194.419 112.276 199.374 110.882 204.44 110.084C216.312 107.801 232.511 106.432 250.354 106.432C264.138 106.348 277.909 107.294 291.552 109.262C302.968 111.214 310.959 113.177 315.924 117.525C316.804 118.22 317.514 119.106 318.002 120.115C318.491 121.123 318.744 122.23 318.744 123.351C318.744 124.472 318.491 125.578 318.002 126.587C317.514 127.596 316.804 128.481 315.924 129.177C314.456 130.461 312.805 131.523 311.027 132.327C306.281 134.283 301.33 135.699 296.267 136.549C284.246 138.797 268.128 140.178 250.285 140.178Z" fill="#FAB005" />
  <path d="M355.297 245.652C350.73 240.105 342.671 226.627 341.792 224.801L342.865 224.55C342.865 224.55 368.619 223.158 364.029 214.279C364.029 214.279 359.007 203.506 340.057 203.506C339.218 203.488 338.379 203.53 337.545 203.631L337.477 203.563C336.541 203.563 335.411 203.939 334.908 210.41C319.269 181.24 308.402 175.191 308.402 175.191C306.324 173.993 304.886 173.24 299.543 172.167C294.201 171.094 253.196 170.786 249.806 170.786H249.555C246.13 170.786 205.217 171.163 199.817 172.167C194.418 173.171 192.968 173.993 190.959 175.191C190.959 175.191 180.091 181.24 164.452 210.41C163.893 203.916 162.762 203.563 161.815 203.563V203.631C160.936 203.563 160.114 203.506 159.292 203.506C140.388 203.506 135.434 214.279 135.434 214.279C130.788 223.158 156.53 224.55 156.53 224.55L157.671 224.801C153.673 232.049 149.184 239.016 144.235 245.652C143.424 246.656 138.641 252.202 136.883 256.368C135.447 260.278 134.766 264.426 134.874 268.59C135.068 275.438 135.822 305.19 135.822 305.19V342.737C135.822 344.951 137.203 346.651 138.961 346.651H168.539C170.297 346.651 171.746 344.882 171.746 342.737V338.08H327.785V342.737C327.785 344.951 329.235 346.651 330.924 346.651H360.513C362.271 346.651 363.653 344.882 363.653 342.737V305.19C363.653 305.19 364.406 275.392 364.589 268.59C364.792 264.42 364.107 260.254 362.58 256.368C360.822 252.145 356.05 246.656 355.297 245.652ZM175.297 216.927C175.297 216.927 186.609 191.591 195.582 180.761C195.582 180.761 212.294 180.007 234.714 179.813L234.018 181.582V185.417C234.014 185.765 234.079 186.11 234.209 186.433C234.34 186.755 234.534 187.049 234.78 187.295C235.025 187.542 235.318 187.737 235.64 187.869C235.962 188.001 236.307 188.068 236.655 188.065H262.66C263.013 188.074 263.364 188.012 263.692 187.883C264.021 187.754 264.32 187.56 264.573 187.313C264.825 187.066 265.025 186.771 265.161 186.445C265.297 186.12 265.367 185.77 265.365 185.417V181.582L264.669 179.813C287.089 180.007 303.801 180.761 303.801 180.761C312.785 191.591 324.087 216.927 324.087 216.927C325.719 221.012 322.26 221.012 322.26 221.012H177.123C177.123 221.012 173.664 221.012 175.297 216.927ZM147.899 278.736C142.192 277.275 141.621 273.817 141.621 273.817C141.099 268.773 141.699 263.675 143.379 258.89C145.262 253.903 150.16 253.343 153.733 253.469C158.002 253.595 170.571 261.595 170.571 261.595C180.171 266.57 181.552 283.712 181.552 283.712C170.243 282.809 159.008 281.146 147.922 278.736H147.899ZM307.169 284.716C289.829 286.165 264.931 286.291 249.703 286.291C234.475 286.291 209.566 286.165 192.294 284.716C192.294 284.716 187.34 274.194 194.806 273.943C195.879 273.874 218.173 273.121 249.703 273.064C281.233 273.007 303.584 273.874 304.589 273.943C312.157 274.194 307.192 284.716 307.192 284.716H307.169ZM357.785 273.874C357.785 273.874 357.157 277.298 351.507 278.793C340.397 281.148 329.155 282.832 317.842 283.837C317.842 283.837 319.224 266.719 328.835 261.72C328.835 261.72 341.392 253.731 345.605 253.595C349.246 253.469 354.144 254.028 355.97 259.015C357.707 263.772 358.336 268.861 357.808 273.897L357.785 273.874Z" fill="white" />
</svg>