<?xml version="1.0" encoding="utf-8"?>
<!-- Generator: Adobe Illustrator 28.0.0, SVG Export Plug-In . SVG Version: 6.00 Build 0)  -->
<svg version="1.2" baseProfile="tiny-ps" id="Lager_1" xmlns="http://www.w3.org/2000/svg" xmlns:xlink="http://www.w3.org/1999/xlink"
	  viewBox="0 0 833.48 723.14" xml:space="preserve">
<title>Safetrack Baavhammar AB</title>
<g>
	<path d="M162.75,491.09L0,414.53c63.42-11.22,125.31-22.18,188.32-33.33c-39.55-45.37-78.52-90.06-118.48-135.9
		c62.63,10.21,123.75,20.17,186.25,30.35L131.13,74.96c56.95,36.08,113.89,72.16,171.82,108.86c5.5-41.14,10.91-81.59,16.54-123.73
		c25.1,35.4,49.44,69.71,74.18,104.59C430.63,109.45,467.26,54.73,503.89,0l-9.83,158.81l167.16-32.79
		c-26.94,49.48-53.44,98.16-80.26,147.42h232.66L552.6,375.39l79.77,115.64l-146.66-9.44l63.85,227.22L420.99,583.67l-74.68,133.8
		c-11.87-36.31-23.37-71.51-35.2-107.7c-40.77,34-80.96,67.53-122.18,101.91c6.68-49.3,13.17-97.25,19.77-145.95
		c-55.23,15.98-109.71,31.74-164.19,47.51L162.75,491.09z"/>
</g>
<g>
	<path fill="#FFED00" d="M182.59,496.73L19.84,420.2c63.42-11.22,125.31-22.18,188.32-33.33c-39.55-45.37-78.52-90.06-118.48-135.9
		c62.63,10.21,123.75,20.17,186.25,30.35L150.98,80.63c56.95,36.08,113.89,72.16,171.82,108.86c5.5-41.14,10.9-81.59,16.54-123.73
		c25.1,35.4,49.44,69.71,74.18,104.59C450.47,115.12,487.1,60.4,523.73,5.67l-9.79,158.79l167.12-32.77
		c-26.94,49.48-53.44,98.16-80.26,147.42h232.66l-260.8,101.71l79.53,115.89l-146.33-9.56l63.53,227.33L440.83,589.33l-74.68,133.8
		c-11.87-36.31-23.37-71.51-35.2-107.7c-40.77,34-80.96,67.53-122.18,101.91c6.68-49.3,13.17-97.25,19.77-145.95
		c-55.23,15.98-109.71,31.74-164.19,47.51L182.59,496.73z"/>
</g>
<g>
	<path d="M236.13,431.62l104.97-8.32c-3.52,21.58-3.37,38.02,0.46,49.32c6.25,18.29,19.72,27.43,40.38,27.43
		c15.42,0,28.54-4.67,39.38-14.03c10.83-9.35,17.89-20.19,21.17-32.52c3.12-11.71,1.93-22.2-3.55-31.44
		c-5.49-9.25-21.6-17.98-48.34-26.2c-43.7-13.77-72.61-32.06-86.72-54.87c-14.28-22.81-16.71-51.89-7.3-87.24
		c6.18-23.22,17.23-45.16,33.13-65.81c15.91-20.65,35.88-36.88,59.93-48.7c24.04-11.82,54.27-17.73,90.67-17.73
		c44.66,0,75.86,10.74,93.59,32.21c17.73,21.48,22.58,55.64,14.56,102.5l-103.86,7.71c2.71-20.35,0.97-35.14-5.23-44.39
		c-6.2-9.25-16.93-13.87-32.19-13.87c-12.56,0-22.93,3.44-31.12,10.33c-8.19,6.89-13.6,15.26-16.22,25.12
		c-1.92,7.2-1.02,13.67,2.7,19.42c3.5,5.96,14.1,11.51,31.81,16.65c43.71,13.15,73.98,26.46,90.82,39.92
		c16.84,13.46,27.26,30.16,31.25,50.09c3.99,19.94,2.71,42.23-3.86,66.89c-7.71,28.98-21.02,55.69-39.93,80.15
		c-18.91,24.46-41.17,43-66.79,55.64c-25.62,12.64-55.35,18.96-89.21,18.96c-59.45,0-96.67-14.8-111.69-44.39
		C229.95,514.85,227.01,477.24,236.13,431.62z"/>
</g>
</svg>
