<svg xmlns="http://www.w3.org/2000/svg" xmlns:xlink="http://www.w3.org/1999/xlink" version="1.2" viewBox="0 0 650 650" baseProfile="tiny-ps">
  <title>logo4</title>
  <polygon points="412.2,386.2 412.2,223.2 367.5,223.2 367.5,426.8 478.4,426.8 495.8,386.2 "/>
  <path d="M110,223.4h-0.2L84.5,283c0,0,44.4,0.9,58.2,8.7c3.8,2.1,14.7,16.8,14.7,16.8s27.3,13.4,7.3,32.1c0,0,5.5-9.5-10.6-9.5  c-57.8,0-130.6,95.8-130.6,95.8h45.3c52.4-48,103.9-45.4,103.9-45.4l18.5,45.3h46.4l-50.2-117.9l-36.6-85.4  C150.7,223.4,110,223.4,110,223.4z"/>
  <path d="M580.8,223.2v128.4c0,23.5-10.5,33.7-27.3,33.7c-14.2,0-25.5-7.5-37.1-20.3l-17.9,41.8c13.4,11.6,31.5,20,56.2,20  c22.1,0,40.4-6.4,52.9-18.9c12.2-12.2,19.2-30.2,19.2-54.3V223.2H580.8z"/>
  <path d="M306.6,386.9c-33.8,0-57.1-28.1-57.1-61.9v-0.6c0-33.8,23.9-61.3,57.1-61.3c19.7,0,35.1,8.4,50.3,22.2l0,0v-51.8  c-13.3-6.5-29.4-10.4-50.1-10.4c-59.3,0-101,44.1-102.6,98.6l0,0L239,403l0,0c17.4,14.9,40.3,23.8,66.2,23.8  c21.4,0,37.9-4.3,51.8-11.9V365C342.1,378.4,328.4,386.9,306.6,386.9L306.6,386.9z"/>
</svg>