<?xml version="1.0" encoding="utf-8"?>
<!-- Generator: Adobe Illustrator 26.4.1, SVG Export Plug-In . SVG Version: 6.00 Build 0)  -->
<svg version="1.2" baseProfile="tiny-ps" id="Layer_1" xmlns="http://www.w3.org/2000/svg" xmlns:xlink="http://www.w3.org/1999/xlink"
	  viewBox="0 0 100 100" xml:space="preserve">
<title>Wellstar Health System</title>
<rect x="-2.5" y="-2.3" fill="#8347AD" width="104.7" height="104.7"/>
<g>
	<g>
		<g>
			<path fill="#FFFFFF" d="M54.8,22.9c-11.7,0.3-21.1,9.9-21.1,21.7l10.5,0c0.2,0,0.4-0.2,0.4-0.4c0.2-5.8,5-10.4,10.8-10.4l0-10.2
				C55.4,23.1,55.1,22.8,54.8,22.9z"/>
			<path fill="#FFFFFF" d="M22.9,45.2c0.3,11.7,9.9,21.1,21.7,21.1l0-10.5c0-0.2-0.2-0.4-0.4-0.4c-5.8-0.2-10.4-5-10.4-10.8l-10.2,0
				C23.1,44.6,22.8,44.9,22.9,45.2z"/>
			<path fill="#FFFFFF" d="M45.2,77.1c11.7-0.3,21.1-9.9,21.1-21.7l-10.5,0c-0.2,0-0.4,0.2-0.4,0.4c-0.2,5.8-5,10.4-10.8,10.4
				l0,10.2C44.6,76.9,44.9,77.2,45.2,77.1z"/>
			<path fill="#FFFFFF" d="M77.1,54.8c-0.3-11.7-9.9-21.1-21.7-21.1l0,10.5c0,0.2,0.2,0.4,0.4,0.4c5.8,0.2,10.4,5,10.4,10.8l10.2,0
				C76.9,55.4,77.2,55.1,77.1,54.8z"/>
		</g>
	</g>
</g>
</svg>
