<?xml version="1.0" encoding="UTF-8" standalone="yes"?>
<svg version="1.2" viewBox="0 0 800 800" xml:space="preserve" baseProfile="tiny-ps" xmlns="http://www.w3.org/2000/svg">
  <title>bimi-svg-tiny-12-ps</title>
  <rect y="0" class="st0" width="800" height="800" fill="#FFFFFF"/>
  <g>
    <path d="M479.1,229.9c0,0,14.6-37.9,39.6-37.9l71.8,3.2c0,0,50,6.5,4,37.9l-115.4,80.7c0,0-30.7,21.8-15.3,56.5l63.8,138l61.3,50.9&#xA;&#x9;&#x9;l-78.3-188.9c0,0-15.3-29.1,16.2-50.1c0,0,86.1-58.4,155.8-105.7c71-48.2,1.7-73.5-7.3-73.5c-8.9,0-168.4,0-168.4,0&#xA;&#x9;&#x9;s-28.5-2.4-56,45.2l-130,268.6c0,0-14.6,37.9-39.6,37.9l-71.8-3.2c0,0-50-6.4-4-37.9l115.4-80.7c0,0,30.7-21.8,15.3-56.5l-63.8-138&#xA;&#x9;&#x9;l-61.3-50.8l78.3,188.9c0,0,15.3,29.1-16.1,50c0,0-86.1,58.5-155.8,105.7c-71,48.2-1.6,73.5,7.3,73.5c8.9,0,168.4,0,168.4,0&#xA;&#x9;&#x9;s28.6,2.4,56-45.2L479.1,229.9z"/>
    <g>
      <g>
        <g>
          <path d="M692.9,586.9c-11.8,0-21.3,9.6-21.3,21.4c0,11.8,9.6,21.3,21.3,21.3c11.8,0,21.3-9.6,21.3-21.3&#xA;&#x9;&#x9;&#x9;&#x9;&#x9;C714.2,596.5,704.6,586.9,692.9,586.9z M711.1,608.3c0,10.1-8.2,18.3-18.3,18.3c-10.1,0-18.2-8.2-18.2-18.3&#xA;&#x9;&#x9;&#x9;&#x9;&#x9;c0-10.1,8.2-18.3,18.2-18.3C702.9,590,711.1,598.2,711.1,608.3z"/>
        </g>
        <g>
          <path d="M686.5,597.9h8.9c1.8,0,4.7,0.3,4.7,4.4c0,3.9-2.7,4.6-5.4,4.6h-8.3V597.9z M686.5,609.9h8.6c4.2,0,4.7,2.5,4.7,4.7&#xA;&#x9;&#x9;&#x9;&#x9;&#x9;c0,1,0.1,5,0.6,6.6h4.4v-0.6c-1.1-0.6-1.3-1.2-1.3-2.6l-0.2-4.8c-0.1-3.7-1.7-4.3-3.2-4.9c1.7-1,3.7-2.4,3.7-6.3&#xA;&#x9;&#x9;&#x9;&#x9;&#x9;c0-5.6-4.3-7.1-8.7-7.1H683v26.3h3.6V609.9z"/>
        </g>
      </g>
      <g>
        <g>
          <path d="M126.3,659.8v0.1c-0.1,0.2-0.1,0.5-0.1,0.9L116,674.5H85.8l12.8-18.2l45.2-61h81.5c2.9,0.1,5.6,0.3,8.1,0.5&#xA;&#x9;&#x9;&#x9;&#x9;&#x9;c2.5,0.3,4.8,0.5,6.8,0.8c6.7,2.1,10.4,5.9,11.3,11.4v5l-13.3,20.2c-4.1,5.2-10.9,7.8-20.4,7.9h-7.3v33.3h-29v-33.6h-40.8&#xA;&#x9;&#x9;&#x9;&#x9;&#x9;L126.3,659.8z M164.5,609.7l-3.1,4l-10.3,12.6h52.9c4.9,0,8.6-1.7,11.3-5.1l6.2-8.5c-1.5-1.5-4-2.4-7.5-2.9H164.5z"/>
          <path d="M285.2,646.6l68-50.7h33.1l-106,78.6H254l9.7-79.2h28.9L285.2,646.6z"/>
          <path d="M375.5,659.8v0.1c-0.1,0.2-0.1,0.5-0.1,0.9l-10.1,13.6H335l12.8-18.2l45.2-61h81.5c2.9,0.1,5.6,0.3,8.1,0.5&#xA;&#x9;&#x9;&#x9;&#x9;&#x9;c2.5,0.3,4.8,0.5,6.8,0.8c6.7,2.1,10.4,5.9,11.3,11.4v5l-13.3,20.2c-4.1,5.2-10.9,7.8-20.4,7.9h-7.3v33.3h-29v-33.6h-40.8&#xA;&#x9;&#x9;&#x9;&#x9;&#x9;L375.5,659.8z M413.8,609.7l-3.1,4l-10.3,12.6h52.9c4.9,0,8.6-1.7,11.3-5.1l6.2-8.5c-1.5-1.5-4-2.4-7.5-2.9H413.8z"/>
          <path d="M547,610.7c-2.4,0.7-4.7,1.7-6.8,2.9l-35,46v-0.1c0,0.1-0.1,0.1-0.2,0.1v0.2c-0.1,0.1-0.1,0.3-0.1,0.6&#xA;&#x9;&#x9;&#x9;&#x9;&#x9;c0.2-0.3,1.7-0.4,4.5-0.3h90l-13,14.4h-79.9c-18,0-28-3.3-30.1-9.8c-0.4-1.1-0.6-2.2-0.6-3.4c0-1.9,0.4-3.4,1.2-4.5l34.2-46.3&#xA;&#x9;&#x9;&#x9;&#x9;&#x9;c7.2-6.9,16.5-11.6,27.9-14.1c3.1-0.3,6.3-0.5,9.6-0.7c3.3-0.2,6.6-0.3,10-0.3h84.7l-13.9,14.4h-74.8&#xA;&#x9;&#x9;&#x9;&#x9;&#x9;C551.9,609.7,549.4,610,547,610.7z"/>
        </g>
      </g>
    </g>
  </g>
</svg>