<?xml version="1.0" encoding="utf-8"?>
<!-- Generator: Adobe Illustrator 27.6.1, SVG Export Plug-In . SVG Version: 6.00 Build 0)  -->
<svg version="1.2" baseProfile="tiny-ps" id="layer_1"
	 xmlns="http://www.w3.org/2000/svg" xmlns:xlink="http://www.w3.org/1999/xlink"  viewBox="0 0 144 144"
	  xml:space="preserve">
<title>YMIRLINK Inc.</title>
<g>
	<g>
		<path fill="#494C4C" d="M29.07,64.92v-1.85c0,0-14.47-0.99-14.47,9.55c0,10.54,14.47,9.4,14.47,9.4v-1.86
			c0,0-10.46,0.09-10.46-7.54C18.61,64.99,29.07,64.92,29.07,64.92z"/>
		<path fill="#494C4C" d="M66.28,79.3v-7.69c0,0-0.54-4.68,7.2-4.68c7.75,0,7.3,4.61,7.3,4.61v7.73h-3.12v-7.71
			c0,0-0.07-2.64-4.16-2.64c-4.09,0-4.13,2.67-4.13,2.67v7.71L66.28,79.3z"/>
		<path fill="#494C4C" d="M45.99,66.93v7.68c0,0,0.55,4.69-7.2,4.69c-7.75,0-7.3-4.61-7.3-4.61v-7.73h3.12v7.71
			c0,0,0.08,2.64,4.16,2.64c4.09,0,4.13-2.67,4.13-2.67v-7.71L45.99,66.93z"/>
		<path fill="#494C4C" d="M90.73,66.93c-4.29,0-7.76,2.75-7.76,6.15c0,3.39,3.47,6.15,7.76,6.15c4.28,0,7.76-2.75,7.76-6.15
			C98.48,69.68,95.01,66.93,90.73,66.93z M90.73,77.73c-2.26,0-4.09-2.08-4.09-4.66c0-2.57,1.83-4.66,4.09-4.66
			c2.26,0,4.09,2.09,4.09,4.66C94.82,75.65,92.99,77.73,90.73,77.73z"/>
		<path fill="#494C4C" d="M118.93,66.93c-4.28,0-7.76,2.75-7.76,6.15c0,3.39,3.26,5.92,7.54,6.15c4.74,0.25,5.93-1.47,5.93-1.47
			l-1.33-1.05c0,0-0.9,0.72-3.47,0.72c-2.42,0-4.09-1.4-4.56-3.38h11.31c0.06-0.32,0.1-0.65,0.1-0.98
			C126.69,69.68,123.22,66.93,118.93,66.93z M118.93,68.66c1.72,0,3.17,1.35,3.62,3.19h-7.23
			C115.77,70.01,117.21,68.66,118.93,68.66z"/>
		<path fill="#494C4C" d="M56.14,66.93c-4.28,0-7.76,2.75-7.76,6.15c0,3.39,3.26,5.92,7.54,6.15c4.74,0.25,5.92-1.47,5.92-1.47
			l-1.33-1.05c0,0-0.9,0.72-3.47,0.72c-2.42,0-4.09-1.4-4.56-3.38H63.8c0.06-0.32,0.1-0.65,0.1-0.98
			C63.9,69.68,60.42,66.93,56.14,66.93z M56.14,68.66c1.72,0,3.17,1.35,3.62,3.19h-7.24C52.97,70.01,54.42,68.66,56.14,68.66z"/>
		<g>
			<rect x="99.91" y="66.93" fill="#494C4C" width="9.83" height="2.2"/>
			<polygon fill="#494C4C" points="104.81,74.18 101.6,74.18 101.6,64.23 104.81,63.25 			"/>
			<path fill="#494C4C" d="M101.6,74.18c0,0-0.17,2.96,2.34,4.45c1.14,0.68,3.65,0.91,5.8,0.07v-1.57c0,0-1.53,0.45-2.51,0.26
				c-1.23-0.24-2.42-1.1-2.42-3.22c0-4.04-2.3-2.74-2.3-2.74L101.6,74.18z"/>
		</g>
	</g>
	<g>
		<path fill="#494C4C" d="M128.6,66.63c-0.54,0.54-1.19,0.81-1.95,0.81c-0.76,0-1.41-0.27-1.94-0.81c-0.53-0.54-0.8-1.19-0.8-1.95
			c0-0.76,0.27-1.4,0.8-1.94c0.53-0.53,1.18-0.8,1.94-0.8c0.76,0,1.41,0.27,1.95,0.8c0.53,0.53,0.8,1.18,0.8,1.94
			C129.4,65.44,129.13,66.09,128.6,66.63z M124.98,63.01c-0.46,0.46-0.69,1.02-0.69,1.67c0,0.66,0.23,1.22,0.68,1.68
			c0.46,0.46,1.02,0.7,1.67,0.7c0.66,0,1.21-0.23,1.67-0.7c0.46-0.46,0.69-1.02,0.69-1.68c0-0.65-0.23-1.21-0.69-1.67
			c-0.46-0.47-1.02-0.7-1.67-0.7C126,62.32,125.44,62.55,124.98,63.01z M126.6,63.17c0.38,0,0.65,0.04,0.82,0.11
			c0.31,0.13,0.47,0.38,0.47,0.76c0,0.27-0.1,0.47-0.29,0.6c-0.11,0.07-0.25,0.12-0.44,0.15c0.24,0.04,0.41,0.13,0.52,0.3
			c0.11,0.16,0.16,0.32,0.16,0.47v0.22c0,0.07,0.01,0.15,0.01,0.22c0,0.08,0.01,0.13,0.03,0.16l0.02,0.04h-0.5
			c0-0.01-0.01-0.02-0.01-0.03c0-0.01-0.01-0.02-0.01-0.03l-0.01-0.09v-0.24c0-0.35-0.1-0.58-0.28-0.69
			c-0.11-0.07-0.31-0.1-0.59-0.1h-0.42v1.19h-0.53v-3.02H126.6z M127.17,63.64c-0.13-0.07-0.35-0.11-0.65-0.11h-0.45v1.09h0.48
			c0.23,0,0.39-0.02,0.51-0.07c0.21-0.08,0.31-0.24,0.31-0.47C127.37,63.86,127.31,63.72,127.17,63.64z"/>
	</g>
</g>
</svg>
