<?xml version="1.0" encoding="utf-8" standalone="yes"?><!-- Generator: Adobe Illustrator 27.8.0, SVG Export Plug-In . SVG Version: 6.00 Build 0)  --><svg xmlns="http://www.w3.org/2000/svg" xmlns:xlink="http://www.w3.org/1999/xlink" version="1.2" baseProfile="tiny-ps" viewBox="0 0 612 612" xml:space="preserve"><title>Connect Music</title><path fill="#FFFFFF" d="M286,230.4c3.1,0,6.3,0,9.6,0.2c0.2,31.8,0.2,63.4,0.2,95c3.6,0,6.9,0,10.4,0c0-25.1,0-50.1,0-75.7  c3.1,4,5.8,7.6,8.5,11.1c5.2,6.6,10.4,13.3,15.6,19.9c4.8,6.2,9.7,12.4,14.5,18.6c5.7,7.4,11.4,14.7,17.2,22c1.2,1.5,2.6,3.5,4.3,4  c2.2,0.7,4.8,0.2,7.5,0.2c0-32,0-63.6,0-95.3c3.3,0,6.6,0,10.1,0.2c0.2,31.8,0.2,63.4,0.2,94.9c21.3,0,42.2,0,63.1,0  c0-3.5,0-6.7,0-10.3c-17.6,0-35.1,0-52.6,0c0-10.8,0-21.3,0-32.1c12.8,0,25.5,0,38.3,0c0-3.5,0-6.8,0-10.3c-12.8,0-25.5,0-38.2,0  c0-10.8,0-21.4,0-32.2c17.6,0,35,0,52.6,0c0-3.6,0-6.9,0-10.3c13.3,0,26.7,0,40.2,0.2c-0.8,0.3-1.7,0.3-2.5,0.5  c-11.8,2.5-21.3,8.6-28.6,18.2c-8.3,11-11.2,23.5-8.9,37c1.7,10.4,6.6,19.2,14.3,26.5c7.8,7.4,17.1,11.8,27.7,12.8  c8,0.7,15.9,0,23.5-3.3c13.5-5.8,22.4-15.7,27.4-29.5c-1.8-0.4-3.5-0.8-5.1-1.2c-1.7-0.5-3.3-1-5-1.5c-6,17.2-23.9,29-43.5,24.8  c-15.9-3.5-30.4-18.5-29.5-38.8c0.4-8.1,3.3-15.4,8.4-21.6c7.3-8.9,16.9-13.6,28.4-14c6.9-0.2,13.5,1.6,19.4,5.2  c7.4,4.4,12.7,10.7,16.3,19c3.3-0.9,6.6-1.8,10.1-2.8c-0.6-1.5-1-2.5-1.5-3.5c-0.5-1-1-2-1.5-3.1c-5.4-10-13.3-17.3-23.9-21.5  c-3.6-1.4-7.5-2.3-11.2-3.5c13,0,26,0,39.3,0.2c0.2,3.5,0.2,6.7,0.2,10.2c10.4,0,20.4,0,30.7,0c0,28.4,0,56.6,0,84.7  c3.6,0,6.9,0,10.4,0c0-28.3,0-56.4,0-84.8c10.1,0,20.1,0,30,0c0,47.2,0,94.4,0,141.8c-12.7,0-25.4,0-38.2-0.2  c3.1-1.1,5.6-2.8,6.7-6.1c0.5-1.7,0.9-3.6,0.9-5.5c0.1-6.6,0-13.1,0-19.7c-2.1,0-4,0-5.8,0c-0.1,0.8-0.2,1.5-0.3,2.3  c-6.9-4.2-11.9-3.9-16.3,1c-3.5,3.8-3.7,10.7-0.5,14.9c2,2.7,4.9,4,8.1,4.4c3.4,0.4,6.2-1.1,8.8-3.4c0.3,7.6-5.3,9.3-15.7,5  c-0.5,0.8-0.9,1.7-1.4,2.5c-1.1,1.6-0.6,2.6,1.1,3.2c1.4,0.5,2.8,1.1,4.2,1.6c-187.9,0-375.7,0-563.6,0c0-32,0-63.9,0.2-96  c1.4,6.5,3.7,12.9,7.6,18.4c5.3,7.7,12.2,13.7,20.9,17.3c8.6,3.6,17.5,4.9,26.7,3.3c11.3-1.9,21-7.2,28.5-15.9  c3.8-4.4,6.8-9.2,8.6-14.8c0.4-1.3,0.4-1.9-1.1-2.3c-2.1-0.5-4.2-1-6.3-1.7c-1.4-0.4-1.9-0.2-2.7,1.2c-2.1,3.9-4.2,8-7.1,11.2  c-8.9,9.7-20.1,13.9-33.4,11.9c-6.8-1-13-3.8-18.1-8.2c-9.4-8.2-14.2-18.6-13.4-31.4c0.5-8.2,3.3-15.4,8.6-21.5  c9-10.1,20.2-15.1,33.9-13.1c10.6,1.5,19,6.7,25.2,15.4c1.9,2.6,3.3,5.5,5,8.3c3.3-1,6.5-1.9,9.8-2.9c-2-5.3-4.7-9.8-8.1-14  c-6.3-7.8-14.2-13-23.8-15.7c-2.8-0.8-5.7-1.3-8.6-2c30.3,0,60.6,0,91.1,0.2c-5,0.7-9.9,2.2-14.4,4.5c-0.7,0.3-1.5,1.3-1.5,1.9  c0.5,3.2,1.3,6.3,2,9.6c21.7-13.2,43.7-1.9,52,12c8.7,14.6,7.1,35.8-9.1,48.6c-12.6,9.9-31.6,11.4-46.1-0.7  c-14-11.7-18.5-31.3-7.9-48.4c2.4,1.2,4.7,2.4,7.6,3.9c-1.4-7.6-2.6-14.6-3.9-21.8c-6.8,3.1-13.3,6-20.1,9.1c2.6,1.5,4.8,2.7,7,3.9  c-5.7,10-8,20.6-6.2,31.9c2,12.7,8.2,23,18.5,30.7c11,8.2,23.5,11.1,36.8,8.8c10.9-1.9,20.2-7.2,27.5-15.7  c6.7-7.9,10.6-16.9,11.4-27.1c0.8-9.5-1-18.5-5.7-27c-5.8-10.3-13.9-17.6-25.1-21.5c-3.5-1.2-7.1-1.9-10.6-2.9  c17.1,0,34.3,0,51.6,0.2c0.2,31.8,0.2,63.4,0.2,95c3.6,0,6.9,0,10.4,0c0-25,0-49.8,0-75.3c4.9,6.2,9.3,11.9,13.7,17.6  c4.4,5.6,8.8,11.3,13.2,16.9c5.6,7.2,11.3,14.4,17,21.6c4.8,6.2,9.6,12.4,14.5,18.6c0.3,0.3,0.8,0.6,1.2,0.6c2.6,0.1,5.2,0,8,0  C286,293.8,286,262.1,286,230.4 M223.3,350.5c-3.2-0.3-5.9,0.9-8.3,3.2c-0.1-1-0.2-1.8-0.2-2.6c-2,0-3.8,0-5.6,0  c0,8.2,0,16.3,0,24.3c2,0,3.8,0,5.8,0c0-4.7,0-9.2,0-13.7c0-3.1,2.3-5.9,4.7-5.8c2.8,0,4.6,2.3,4.6,5.7c0,4.6,0,9.2,0,13.8  c2.1,0,3.9,0,5.9,0c0-4.4-0.1-8.7,0-13c0-1.3,0.4-2.6,0.8-3.7c0.7-1.8,3.3-3.1,4.9-2.7c2.2,0.6,3.6,1.9,3.6,4.3c0,3.5,0,7.1,0,10.6  c0,1.5,0,3,0,4.5c2.2,0,4,0,5.9,0c0-1.2,0-2.3,0-3.3c0-4.9,0.1-9.9-0.1-14.8c-0.1-3.1-2.6-5.6-5.7-6.5c-4.4-1.3-7.7,0.5-10.3,2.9  C227.4,352.7,225.5,351.6,223.3,350.5 M439.9,365.3c3.2,0,6.3,0,9.5,0c0.8-7.2-2.5-13.6-10.1-14.8c-4.6-0.7-10.7,2.7-12.4,7.3  c-2.6,6.9-0.2,13.9,5.5,16.9c5.8,3,13.9,0.8,16.1-3.5c-1.1-1-2.2-1.9-3.2-2.9c-7,4.3-12.6,3-13-3C434.6,365.3,437,365.3,439.9,365.3   M256.1,373.2c4.4,4.3,8.9,3.5,13.5,0.2c0.1,0.8,0.2,1.5,0.3,2.1c2.1,0,4.1,0,6.1,0c0-8.3,0-16.3,0-24.4c-2.1,0-4.1,0-6.2,0  c0,4.9,0,9.7,0,14.4c0,3.7-3.6,5.9-6.9,4.4c-2.4-1.1-2.8-3.3-2.9-5.5c-0.1-4.4,0-8.8,0-13.3c-2.1,0-3.9,0-5.9,0  c0,5.8-0.1,11.5,0.1,17.1C254,369.8,255.2,371.3,256.1,373.2 M461.4,375.6c0.1-0.8,0.4-1.5,0.4-2.3c0-3.5,0-7.1,0.1-10.6  c0-1.3,0.3-2.6,0.8-3.8c0.6-1.7,3.3-3.2,4.9-2.8c2.8,0.5,4.1,2,4.2,4.6c0,2.5,0,4.9,0,7.4c0,2.5,0,5,0,7.5c2.3,0,4.3,0,5.9,0  c0-6,0.1-11.9,0-17.7c-0.2-6-7.4-8.8-11.8-6.6c-1.3,0.7-2.6,1.6-3.9,2.4c-0.1-0.9-0.1-1.7-0.2-2.5c-1.9,0-3.8,0-5.6,0  c0,8.2,0,16.3,0,24.5C457.9,375.6,459.4,375.6,461.4,375.6 M527.6,374.8c1.9,0.4,3.8,0.8,5.9,1.3c0-5.2,0-9.6,0-14  c0-3.6,2.5-6.3,5.3-6.1c3.1,0.2,4.5,2.1,4.5,6c0,4.5,0,9,0,13.5c2.3,0,4.3,0,5.9,0c0-6.2,0.2-12.3-0.1-18.3  c-0.1-2.5-1.7-4.5-4.1-5.6c-4.3-2.1-8-0.9-11.5,2.4c-0.1-1.1-0.2-2-0.3-2.7c-2,0-3.9,0-5.8,0C527.5,359,527.5,366.6,527.6,374.8   M294.1,376.1c1.1-0.2,2.2-0.3,3.3-0.6c3.2-0.8,5.7-3.6,5.7-7.2c0.1-2.9-1.4-5.1-4.3-6.2c-2.1-0.8-4.3-1.5-6.3-2.5  c-0.9-0.5-1.4-1.7-2.1-2.5c1.3-0.5,2.6-1.5,3.8-1.4c2,0.2,4,1.2,6.1,1.9c0.7-1.3,1.5-2.6,2.4-4.1c-4.3-2.4-8.5-3.7-13.1-2.1  c-3.1,1-4.6,2.9-4.7,5.8c-0.1,4.3,0.8,6,4.3,7.3c1.9,0.7,3.9,1.1,5.7,2c1,0.5,1.6,1.8,2.4,2.7c-1.2,0.7-2.3,2-3.5,2  c-1.8,0-3.8-0.6-5.2-1.6c-2.1-1.6-3.1-0.9-4.1,1c-0.3,0.6-0.7,1.2-1.1,2c1.7,0.9,3.2,2,4.9,2.6C290,375.6,291.9,375.8,294.1,376.1   M500.1,374.7c3.4-1.7,4.2-4.7,3.7-8c-0.4-2.6-2.4-4.1-4.9-5c-2.1-0.7-4.1-1.4-6.1-2.4c-0.7-0.3-1.5-1.2-1.5-1.9  c0-0.6,1-1.3,1.7-1.6c0.7-0.3,1.7-0.4,2.5-0.2c1.9,0.5,3.7,1.3,5.5,2c0.4-0.5,0.8-0.9,1.1-1.4c1.6-2.5,1.3-3.4-1.5-4.3  c-2.7-0.9-5.3-1.6-8.2-1.1c-3.8,0.7-6.4,2.9-6.8,6.5c-0.4,3.6,1.3,6.1,5.3,7.4c1.7,0.6,3.5,1,5,1.8c1,0.5,1.7,1.6,2.5,2.5  c-1.1,0.7-2.1,1.5-3.2,2.1c-0.4,0.2-1.1,0-1.7-0.2c-2.2-0.8-4.3-1.7-6.6-2.6c-0.6,0.9-1.4,1.8-1.9,2.9c-0.2,0.5,0,1.6,0.3,1.8  C489.8,375.6,494.6,377,500.1,374.7 M347,371.7c-0.9-1.4-1.9-2.8-2.8-4.1c-6.1,3.9-9.2,4.1-11.8,0.9c-2.6-3.3-2.5-7.7,0.4-10.6  c2.8-2.8,5.8-2.6,11.2,1.4c0.5-0.7,0.9-1.7,1.6-2.3c1.5-1.3,1.5-2.4-0.1-3.5c-3.2-2.4-6.6-3.2-10.7-2.5c-9.5,1.6-12.7,12.4-8.3,19.7  C330.3,376.8,341.2,378.3,347,371.7 M414.4,356.4c1.2,0.8,2.4,1.6,3.3,2.2c1.4-1.3,2.6-2.6,3.9-3.8c-3.1-4.1-9.4-5.3-14.2-3.5  c-5.5,2.1-8.3,6.6-8.3,12.3c-0.1,5.2,3.8,10.5,8.6,11.9c5.4,1.6,11.6,0,13.9-4.2c-1.2-1.2-2.3-2.3-3.4-3.5c-0.6,0.5-1.3,1-1.9,1.4  c-3.9,2.6-7.8,1.7-10.2-2.2c-1.6-2.7-1.2-6.4,1-9C408.7,356.2,411.5,355.5,414.4,356.4 M376.4,359.1c0-5.6,0-11.3,0-16.8  c-2.2,0-4,0-5.8,0c0,11.2,0,22.2,0,33.2c2,0,3.8,0,5.8,0C376.4,370.1,376.4,364.8,376.4,359.1 M389,375.6c0.9,0,1.7,0,2.5,0  c0-8.4,0-16.5,0-24.6c-2,0-3.7,0-5.6,0c0,8.2,0,16.3,0,24.6C386.9,375.6,387.7,375.6,389,375.6 M517.7,356.1c0-1.7,0-3.4,0-5.1  c-2.1,0-3.9,0-5.8,0c0,8.2,0,16.3,0,24.4c2,0,3.8,0,5.8,0C517.7,369.1,517.7,362.9,517.7,356.1 M310.7,371.4c0,1.4,0,2.7,0,4.1  c2.1,0,3.9,0,5.8,0c0-8.2,0-16.3,0-24.4c-2,0-3.8,0-5.8,0C310.7,357.8,310.7,364.4,310.7,371.4 M310.7,344.8c0,1,0,2,0,3.1  c2.3,0,4.2,0,6.3,0c0-1.9,0-3.8,0-5.6c-2.1,0-4.1,0-6.3,0C310.7,343,310.7,343.7,310.7,344.8 M512.1,342.1c-0.4,1.9-0.8,3.8-1.2,5.7  c2.7,0,4.6,0,6.6,0c0-2,0-3.7,0-5.7C515.8,342.1,514.2,342.1,512.1,342.1 M385.7,342.1c-0.2,1.9-0.4,3.7-0.6,5.7c2.4,0,4.4,0,6.4,0  c0-2,0-3.8,0-5.7C389.6,342.1,387.9,342.1,385.7,342.1z"></path><path fill="#888686" d="M285.8,230.4c0.2,31.7,0.2,63.4,0.2,95.3c-2.8,0-5.4,0-8,0c-0.4,0-1-0.3-1.2-0.6  c-4.8-6.2-9.6-12.4-14.5-18.6c-5.6-7.2-11.3-14.4-17-21.6c-4.4-5.6-8.8-11.3-13.2-16.9c-4.4-5.7-8.9-11.4-13.7-17.6  c0,25.5,0,50.3,0,75.3c-3.6,0-6.8,0-10.4,0c0-31.6,0-63.2,0-95c2.8-0.2,5.6-0.2,8.7-0.1c0.3,0.3,0.3,0.5,0.4,0.6  c5.9,7.6,11.9,15.2,17.8,22.8c5.4,6.9,10.8,13.8,16.2,20.7c5.7,7.2,11.4,14.4,17,21.6c2.4,3.1,4.8,6.3,7.6,9.8c0-25.6,0-50.6,0-75.7  C278.9,230.4,282.2,230.4,285.8,230.4z"></path><path fill="#888686" d="M373.7,230.4c0.2,31.7,0.2,63.3,0.2,95.3c-2.6,0-5.2,0.5-7.5-0.2c-1.7-0.5-3-2.5-4.3-4  c-5.8-7.3-11.5-14.7-17.2-22c-4.8-6.2-9.6-12.4-14.5-18.6c-5.2-6.6-10.4-13.3-15.6-19.9c-2.7-3.5-5.4-7-8.5-11.1  c0,25.6,0,50.6,0,75.7c-3.6,0-6.8,0-10.4,0c0-31.6,0-63.2,0-95c2.8-0.2,5.6-0.2,8.7-0.1c4.9,6,9.4,11.7,14,17.5  c5.5,7.1,11,14.2,16.6,21.3c5.7,7.3,11.4,14.6,17.1,21.8c3.7,4.7,7.3,9.3,11.3,14.4c0-25.5,0-50.4,0-75.3  C366.8,230.4,370.2,230.4,373.7,230.4z"></path><path fill="#888686" d="M155.9,230.4c3.8,1,7.4,1.7,10.8,2.9c11.1,3.9,19.3,11.2,25.1,21.5c4.7,8.4,6.5,17.5,5.7,27  c-0.8,10.2-4.7,19.2-11.4,27.1c-7.3,8.6-16.6,13.8-27.5,15.7c-13.4,2.3-25.9-0.6-36.8-8.8c-10.3-7.7-16.4-18.1-18.5-30.7  c-1.8-11.3,0.5-21.9,6.2-31.9c-2.2-1.2-4.4-2.5-7-3.9c6.7-3,13.2-6,20.1-9.1c1.3,7.2,2.5,14.2,3.9,21.8c-2.8-1.5-5.2-2.7-7.6-3.9  c-10.6,17.2-6.1,36.8,7.9,48.4c14.5,12.1,33.5,10.6,46.1,0.7c16.3-12.8,17.9-34,9.1-48.6c-8.3-13.9-30.3-25.2-52-12  c-0.7-3.3-1.5-6.4-2-9.6c-0.1-0.5,0.8-1.5,1.5-1.9c4.6-2.4,9.4-3.8,14.7-4.5C148,230.4,151.8,230.4,155.9,230.4z"></path><path fill="#888686" d="M52.6,230.4c3.1,0.7,6,1.2,8.8,2c9.5,2.8,17.5,7.9,23.8,15.7c3.4,4.2,6.1,8.7,8.1,14c-3.3,1-6.5,1.9-9.8,2.9  c-1.7-2.8-3.1-5.7-5-8.3c-6.2-8.7-14.6-13.9-25.2-15.4c-13.8-2-25,2.9-33.9,13.1c-5.3,6-8.1,13.3-8.6,21.5  c-0.8,12.8,4,23.1,13.4,31.4c5.1,4.5,11.3,7.2,18.1,8.2c13.3,2,24.4-2.2,33.4-11.9c3-3.2,5-7.3,7.1-11.2c0.8-1.5,1.3-1.7,2.7-1.2  c2.1,0.7,4.2,1.2,6.3,1.7c1.5,0.3,1.5,0.9,1.1,2.3c-1.8,5.6-4.8,10.5-8.6,14.8c-7.6,8.7-17.2,14-28.5,15.9  c-9.2,1.5-18.1,0.3-26.7-3.3c-8.8-3.7-15.6-9.7-20.9-17.3c-3.9-5.6-6.2-11.9-7.6-18.7c-0.2-4.9-0.2-9.7,0-14.8  c1.2-8.1,4.1-15.2,8.8-21.4c5.8-7.8,13.1-13.7,22.5-16.8c3.6-1.2,7.4-1.9,11.1-2.9C46.1,230.4,49.3,230.4,52.6,230.4z"></path><path fill="#888686" d="M501.6,230.4c4,1.1,7.8,2,11.4,3.5c10.6,4.2,18.5,11.5,23.9,21.5c0.5,1,1.1,2,1.5,3.1c0.5,1,0.9,2.1,1.5,3.5  c-3.5,1-6.8,1.9-10.1,2.8c-3.6-8.3-8.9-14.6-16.3-19c-6-3.6-12.6-5.4-19.4-5.2c-11.5,0.4-21.1,5.1-28.4,14  c-5.1,6.2-8.1,13.5-8.4,21.6c-0.9,20.3,13.6,35.3,29.5,38.8c19.6,4.3,37.5-7.6,43.5-24.8c1.7,0.5,3.3,1.1,5,1.5  c1.6,0.4,3.3,0.8,5.1,1.2c-5,13.9-13.8,23.8-27.4,29.5c-7.6,3.2-15.5,4-23.5,3.3c-10.6-1-19.9-5.4-27.7-12.8  c-7.7-7.3-12.6-16.1-14.3-26.5c-2.2-13.5,0.6-26,8.9-37c7.2-9.6,16.8-15.7,28.6-18.2c0.9-0.2,1.8-0.2,2.8-0.5  C492.5,230.4,496.9,230.4,501.6,230.4z"></path><path fill="#888686" d="M447.3,230.4c0.2,3.4,0.2,6.7,0.2,10.3c-17.6,0-35,0-52.6,0c0,10.8,0,21.3,0,32.2c12.7,0,25.4,0,38.2,0  c0,3.5,0,6.8,0,10.3c-12.7,0-25.4,0-38.3,0c0,10.8,0,21.3,0,32.1c17.4,0,34.9,0,52.6,0c0,3.5,0,6.8,0,10.3c-20.9,0-41.8,0-63.1,0  c0-31.5,0-63.1,0-94.9C405.2,230.4,426.1,230.4,447.3,230.4z"></path><path fill="#FFFFFF" d="M275.4,230.4c0.2,25,0.2,50,0.2,75.7c-2.7-3.5-5.1-6.7-7.6-9.8c-5.7-7.2-11.4-14.4-17-21.6  c-5.4-6.9-10.8-13.8-16.2-20.7c-5.9-7.6-11.9-15.2-17.8-22.8c-0.1-0.1-0.1-0.3-0.1-0.6C236.3,230.4,255.7,230.4,275.4,230.4z"></path><path fill="#FFFFFF" d="M363.3,230.4c0.2,24.9,0.2,49.8,0.2,75.3c-4-5.1-7.7-9.8-11.3-14.4c-5.7-7.3-11.4-14.5-17.1-21.8  c-5.5-7.1-11-14.2-16.6-21.3c-4.5-5.8-9.1-11.6-13.8-17.5C324.2,230.4,343.6,230.4,363.3,230.4z"></path><path fill="#888686" d="M612.5,240.6c-9.9,0.2-19.9,0.2-30,0.2c0,28.3,0,56.4,0,84.8c-3.5,0-6.8,0-10.4,0c0-28.1,0-56.3,0-84.7  c-10.3,0-20.3,0-30.7,0c0-3.5,0-6.7,0-10.2c23.7-0.2,47.4-0.2,71.1-0.2C612.5,233.8,612.5,237.1,612.5,240.6z"></path><path fill="#8A8A8C" d="M564.3,382.6c-1.6-0.5-3-1.1-4.4-1.6c-1.7-0.6-2.2-1.6-1.1-3.2c0.5-0.8,0.9-1.7,1.4-2.5  c10.4,4.3,16,2.6,15.7-5c-2.6,2.3-5.4,3.7-8.8,3.4c-3.3-0.4-6.1-1.7-8.1-4.4c-3.2-4.2-3-11.1,0.5-14.9c4.4-4.8,9.5-5.2,16.3-1  c0.1-0.8,0.2-1.5,0.3-2.3c1.8,0,3.7,0,5.8,0c0,6.6,0.1,13.2,0,19.7c0,1.8-0.3,3.7-0.9,5.5c-1,3.3-3.6,5-6.9,6.1  C570.8,382.6,567.7,382.6,564.3,382.6 M575.6,364.4c1.5-4.5-1.2-7.5-4.3-8.4c-3.4-1-7.2,0.9-8.1,4c-1,3.4,0.6,6.7,3.9,8  C570.2,369.2,572.7,368.2,575.6,364.4z"></path><path fill="#FFFFFF" d="M42.7,230.4c-3.5,1-7.2,1.7-10.9,2.9c-9.3,3.1-16.7,9-22.5,16.8c-4.7,6.3-7.6,13.3-8.8,21.2  c-0.2-13.5-0.2-27.2-0.2-40.9C14.5,230.4,28.5,230.4,42.7,230.4z"></path><path fill="#8A8A8C" d="M223.5,350.6c2.1,1.1,3.9,2.1,6,3.2c2.5-2.5,5.9-4.2,10.3-2.9c3.1,0.9,5.6,3.3,5.7,6.5  c0.2,4.9,0.1,9.9,0.1,14.8c0,1.1,0,2.1,0,3.3c-2,0-3.7,0-5.9,0c0-1.4,0-3,0-4.5c0-3.5,0-7.1,0-10.6c0-2.4-1.4-3.7-3.6-4.3  c-1.7-0.4-4.3,0.9-4.9,2.7c-0.5,1.2-0.8,2.5-0.8,3.7c-0.1,4.3,0,8.5,0,13c-2,0-3.8,0-5.9,0c0-4.6,0-9.2,0-13.8  c0-3.4-1.8-5.7-4.6-5.7c-2.4,0-4.7,2.7-4.7,5.8c0,4.5,0,9,0,13.7c-2,0-3.8,0-5.8,0c0-8.1,0-16.1,0-24.3c1.8,0,3.6,0,5.6,0  c0.1,0.8,0.1,1.5,0.2,2.6C217.3,351.4,220,350.2,223.5,350.6z"></path><path fill="#8A8A8C" d="M439.6,365.3c-2.6,0-5,0-7.4,0c0.4,6,5.9,7.3,13,3c1.1,1,2.1,1.9,3.2,2.9c-2.2,4.4-10.3,6.6-16.1,3.5  c-5.8-3-8.1-10-5.5-16.9c1.7-4.6,7.8-8.1,12.4-7.3c7.6,1.2,10.9,7.6,10.1,14.8C446.2,365.3,443,365.3,439.6,365.3 M443.1,360.1  c-1-2.9-3.3-4.8-5.5-4.6c-2.8,0.3-5.1,2.8-5.5,5.9c3.3,0,6.6,0,9.8,0C442.4,361.3,442.9,360.7,443.1,360.1z"></path><path fill="#8A8A8C" d="M256,373c-0.8-1.7-1.9-3.2-2-4.8c-0.2-5.7-0.1-11.3-0.1-17.1c2,0,3.8,0,5.9,0c0,4.5-0.1,8.9,0,13.3  c0.1,2.2,0.5,4.4,2.9,5.5c3.4,1.5,6.9-0.7,6.9-4.4c0.1-4.8,0-9.5,0-14.4c2.1,0,4.1,0,6.2,0c0,8,0,16.1,0,24.4c-2,0-4,0-6.1,0  c-0.1-0.6-0.2-1.3-0.3-2.1C265,376.7,260.5,377.5,256,373z"></path><path fill="#8A8A8C" d="M461.2,375.6c-1.8,0-3.3,0-5.1,0c0-8.2,0-16.3,0-24.5c1.8,0,3.7,0,5.6,0c0.1,0.8,0.1,1.6,0.2,2.5  c1.3-0.8,2.6-1.7,3.9-2.4c4.4-2.2,11.6,0.6,11.8,6.6c0.2,5.9,0,11.7,0,17.7c-1.7,0-3.6,0-5.9,0c0-2.5,0-5,0-7.5c0-2.5,0-4.9,0-7.4  c0-2.6-1.4-4-4.2-4.6c-1.6-0.3-4.3,1.1-4.9,2.8c-0.4,1.2-0.7,2.5-0.8,3.8c-0.1,3.5,0,7.1-0.1,10.6  C461.8,374,461.6,374.8,461.2,375.6z"></path><path fill="#8A8A8C" d="M527.5,374.5c0-7.9,0-15.5,0-23.4c1.9,0,3.8,0,5.8,0c0.1,0.8,0.1,1.6,0.3,2.7c3.5-3.3,7.1-4.5,11.5-2.4  c2.4,1.2,4,3.1,4.1,5.6c0.2,6,0.1,12.1,0.1,18.3c-1.6,0-3.6,0-5.9,0c0-4.5,0-9,0-13.5c0-3.9-1.5-5.8-4.5-6c-2.9-0.2-5.3,2.5-5.3,6.1  c-0.1,4.4,0,8.9,0,14C531.3,375.6,529.4,375.2,527.5,374.5z"></path><path fill="#8A8A8C" d="M293.9,376.1c-2-0.4-3.9-0.5-5.7-1.1c-1.7-0.6-3.2-1.6-4.9-2.6c0.4-0.8,0.8-1.4,1.1-2c1-1.9,1.9-2.6,4.1-1  c1.4,1.1,3.5,1.6,5.2,1.6c1.1,0,2.3-1.3,3.5-2c-0.8-0.9-1.4-2.2-2.4-2.7c-1.8-0.9-3.8-1.3-5.7-2c-3.4-1.3-4.4-3-4.3-7.3  c0.1-2.9,1.6-4.7,4.7-5.8c4.7-1.6,8.8-0.3,13.1,2.1c-0.9,1.5-1.6,2.8-2.4,4.1c-2.1-0.7-4.1-1.7-6.1-1.9c-1.2-0.1-2.5,0.9-3.8,1.4  c0.7,0.9,1.2,2.1,2.1,2.5c2,1,4.2,1.7,6.3,2.5c2.9,1.1,4.3,3.3,4.3,6.2c-0.1,3.6-2.5,6.5-5.7,7.2  C296.4,375.8,295.3,375.9,293.9,376.1z"></path><path fill="#8A8A8C" d="M499.9,374.9c-5.4,2.2-10.1,0.8-14.7-1.9c-0.4-0.2-0.6-1.3-0.3-1.8c0.5-1.1,1.3-2,1.9-2.9  c2.3,0.9,4.4,1.8,6.6,2.6c0.5,0.2,1.2,0.4,1.7,0.2c1.1-0.6,2.2-1.4,3.2-2.1c-0.8-0.8-1.5-2-2.5-2.5c-1.6-0.8-3.3-1.2-5-1.8  c-3.9-1.3-5.7-3.8-5.3-7.4c0.4-3.6,3-5.8,6.8-6.5c2.9-0.5,5.6,0.2,8.2,1.1c2.9,0.9,3.1,1.8,1.5,4.3c-0.3,0.5-0.7,0.9-1.1,1.4  c-1.8-0.7-3.6-1.4-5.5-2c-0.8-0.2-1.8-0.1-2.5,0.2c-0.7,0.3-1.7,1.1-1.7,1.6c0,0.6,0.8,1.5,1.5,1.9c2,0.9,4,1.7,6.1,2.4  c2.5,0.8,4.4,2.4,4.9,5C504.3,370.1,503.5,373.1,499.9,374.9z"></path><path fill="#8A8A8C" d="M346.9,371.8c-5.7,6.5-16.5,5-20.4-1.3c-4.4-7.3-1.2-18.1,8.3-19.7c4.1-0.7,7.5,0.1,10.7,2.5  c1.6,1.2,1.6,2.2,0.1,3.5c-0.7,0.6-1.1,1.6-1.6,2.3c-5.4-4-8.4-4.3-11.2-1.4c-2.9,2.9-3,7.4-0.4,10.6c2.6,3.2,5.8,3.1,11.8-0.9  C345.1,368.9,346.1,370.3,346.9,371.8z"></path><path fill="#8A8A8C" d="M414.3,356.4c-2.7-0.9-5.5-0.2-7.1,1.6c-2.2,2.6-2.6,6.4-1,9c2.3,3.9,6.3,4.8,10.2,2.2  c0.7-0.4,1.3-1,1.9-1.4c1.1,1.2,2.2,2.3,3.4,3.5c-2.3,4.2-8.5,5.8-13.9,4.2c-4.8-1.4-8.6-6.7-8.6-11.9c0.1-5.7,2.8-10.2,8.3-12.3  c4.8-1.8,11.1-0.6,14.2,3.5c-1.3,1.3-2.6,2.5-3.9,3.8C416.8,358,415.6,357.2,414.3,356.4z"></path><path fill="#8A8A8C" d="M376.4,359.3c0,5.5,0,10.7,0,16.1c-2,0-3.8,0-5.8,0c0-11.1,0-22,0-33.2c1.8,0,3.6,0,5.8,0  C376.4,347.8,376.4,353.5,376.4,359.3z"></path><path fill="#8A8A8C" d="M388.7,375.6c-1,0-1.8,0-2.8,0c0-8.3,0-16.3,0-24.6c1.8,0,3.6,0,5.6,0c0,8,0,16.1,0,24.6  C390.7,375.6,389.8,375.6,388.7,375.6z"></path><path fill="#8A8A8C" d="M517.7,356.4c0,6.5,0,12.7,0,19.1c-2,0-3.8,0-5.8,0c0-8.1,0-16.2,0-24.4c1.9,0,3.7,0,5.8,0  C517.7,352.8,517.7,354.5,517.7,356.4z"></path><path fill="#8A8A8C" d="M310.7,371.2c0-6.8,0-13.3,0-20.1c2,0,3.8,0,5.8,0c0,8.1,0,16.2,0,24.4c-1.9,0-3.7,0-5.8,0  C310.7,374.1,310.7,372.8,310.7,371.2z"></path><path fill="#8A8A8C" d="M310.7,344.6c0-0.9,0-1.5,0-2.3c2.1,0,4.1,0,6.3,0c0,1.9,0,3.7,0,5.6c-2,0-4,0-6.3,0  C310.7,346.8,310.7,345.8,310.7,344.6z"></path><path fill="#8A8A8C" d="M512.3,342.1c1.8,0,3.5,0,5.2,0c0,2,0,3.8,0,5.7c-2,0-4,0-6.6,0C511.3,345.8,511.7,344,512.3,342.1z"></path><path fill="#8A8A8C" d="M385.9,342.1c1.9,0,3.7,0,5.6,0c0,1.9,0,3.7,0,5.7c-1.9,0-3.9,0-6.4,0C385.3,345.9,385.5,344,385.9,342.1z"></path><path fill="#FFFFFF" d="M575.5,364.6c-2.8,3.6-5.3,4.5-8.5,3.4c-3.4-1.3-5-4.6-3.9-8c1-3.1,4.7-5,8.1-4  C574.4,357,577.1,359.9,575.5,364.6z"></path><path fill="#FFFFFF" d="M443.2,360.2c-0.4,0.5-0.8,1-1.3,1c-3.3,0.1-6.6,0-9.8,0c0.4-3.1,2.7-5.6,5.5-5.9  C439.8,355.2,442.1,357.2,443.2,360.2z"></path></svg>