<svg xmlns="http://www.w3.org/2000/svg" version="1.2" baseProfile="tiny-ps" viewBox="0 0 26 26" xmlns:v="https://vecta.io/nano">
  <title>Mercedes-Benz</title>
  <path d="M0 0h26v26H0z" fill="#fff"/><path d="M23.392 7A12 12 0 0 0 13 1c-2.107 0-4.175.554-6 1.608A12 12 0 0 0 1 13a12 12 0 0 0 1.607 6A12.01 12.01 0 0 0 7 23.393 12 12 0 0 0 13 25c2.107 0 4.175-.554 5.999-1.607a12 12 0 0 0 4.393-4.392C24.446 17.176 25 15.107 25 13s-.554-4.176-1.608-6zM2.2 13a10.8 10.8 0 0 1 5.4-9.353 10.81 10.81 0 0 1 5.062-1.442l-1.378 9.804-7.801 6.095C2.641 16.537 2.2 14.783 2.2 13zm16.2 9.353a10.8 10.8 0 0 1-10.8 0c-1.544-.891-2.842-2.15-3.779-3.663L13 14.982l9.179 3.709a10.79 10.79 0 0 1-3.779 3.662zm4.117-4.248l-7.801-6.095-1.379-9.804c1.779.056 3.518.55 5.062 1.442 1.641.948 3.005 2.311 3.953 3.953S23.8 11.104 23.8 13c0 1.783-.442 3.537-1.283 5.105z" fill="#8e8e91"/><defs ><path  d="M46.439-71.653c.018.072.007.127-.026.19-.053.101-.112.062-.165.128a.64.64 0 0 0-.079.362c-.169.058-.01.227-.015.35-.002.05-.041.105-.045.161-.01.119.017.266.068.37.097.198.268.413.435.544.19.148.365.572.608.631.177.042.384-.104.543-.143.18-.043.397.01.571-.053.222-.079.127-.337.288-.45.104-.074.287-.01.406-.051.2-.069.339-.263.376-.46.016-.082.01-.145.039-.221.038-.103.111-.16.09-.293-.01-.062-.052-.12-.064-.187-.022-.114.002-.224 0-.337-.003-.2.017-.379-.078-.55-.38-.688-1.236-.929-1.975-.789-.18.034-.287.126-.442.207-.17.088-.139.166-.318.224-.081.026-.216.124-.215.224.002.115.005.051.012.169-.021.011-.022-.005-.03-.025"/><path  d="M54.118-64.001c.018.072.007.127-.026.19-.053.101-.112.062-.165.128a.64.64 0 0 0-.079.362c-.169.058-.009.227-.015.35-.002.05-.041.105-.045.161-.01.119.017.266.068.37.097.198.268.413.435.544.19.148.365.572.608.631.177.042.384-.104.543-.143.18-.043.397.01.571-.053.222-.079.127-.337.288-.45.104-.074.287-.01.406-.051.2-.069.339-.263.376-.46.016-.082.01-.145.039-.221.038-.102.111-.16.09-.293-.01-.062-.052-.12-.064-.187-.022-.114.002-.224 0-.337-.003-.2.017-.379-.078-.55-.38-.688-1.236-.929-1.975-.789-.18.034-.287.126-.442.207-.17.088-.139.166-.318.224-.081.026-.216.124-.215.224.001.115.005.051.012.169-.021.011-.021-.005-.03-.025"/><path  d="M46.458-64.001c.018.072.007.127-.026.19-.053.101-.112.062-.165.128a.64.64 0 0 0-.079.362c-.169.058-.009.227-.015.35-.003.05-.041.105-.045.161-.01.119.017.266.068.37.097.198.268.413.435.544.19.148.365.572.608.631.177.042.384-.104.543-.143.18-.043.397.01.571-.053.222-.079.127-.337.288-.45.104-.074.287-.01.406-.051.2-.069.339-.263.376-.46.016-.082.01-.145.039-.221.039-.102.111-.16.09-.293-.01-.062-.052-.12-.064-.187-.022-.114.002-.224 0-.337-.003-.2.017-.379-.078-.55-.38-.688-1.236-.929-1.975-.789-.18.034-.287.126-.442.207-.17.088-.139.166-.318.224-.081.026-.216.124-.215.224.001.115.005.051.012.169-.021.011-.021-.005-.03-.025"/><path  d="M54.118-56.348c.018.072.007.127-.026.19-.053.101-.112.062-.165.128a.64.64 0 0 0-.079.362c-.169.058-.009.227-.015.35-.002.05-.041.106-.045.161-.01.119.017.266.068.37.097.198.268.413.435.544.19.148.365.572.608.631.177.042.384-.104.543-.143.18-.043.397.01.571-.053.222-.079.127-.337.288-.45.104-.074.287-.01.406-.051.2-.069.339-.263.376-.46.016-.082.01-.145.039-.221.038-.103.111-.16.09-.293-.01-.062-.052-.12-.064-.187-.022-.114.002-.224 0-.337-.003-.2.017-.379-.078-.55-.38-.688-1.236-.929-1.975-.789-.18.034-.287.126-.442.207-.17.088-.139.166-.318.224-.081.026-.216.124-.215.224.001.115.005.051.012.169-.021.011-.021-.005-.03-.025"/><path  d="M46.458-56.348c.018.072.007.127-.026.19-.053.101-.112.062-.165.128a.64.64 0 0 0-.079.362c-.169.058-.009.227-.015.35-.003.05-.041.106-.045.161-.01.119.017.266.068.37.097.198.268.413.435.544.19.148.365.572.608.631.177.042.384-.104.543-.143.18-.043.397.01.571-.053.222-.079.127-.337.288-.45.104-.074.287-.01.406-.051.2-.069.339-.263.376-.46.016-.082.01-.145.039-.221.039-.103.111-.16.09-.293-.01-.062-.052-.12-.064-.187-.022-.114.002-.224 0-.337-.003-.2.017-.379-.078-.55-.38-.688-1.236-.929-1.975-.789-.18.034-.287.126-.442.207-.17.088-.139.166-.318.224-.081.026-.216.124-.215.224.001.115.005.051.012.169-.021.011-.021-.005-.03-.025"/><path  d="M54.118-48.695c.018.072.007.127-.026.19-.053.101-.112.062-.165.128a.64.64 0 0 0-.079.362c-.169.058-.009.226-.015.35-.002.05-.041.105-.045.161-.01.119.017.266.068.37.097.198.268.413.435.544.19.148.365.572.608.631.177.042.384-.104.543-.143.18-.043.397.01.571-.053.222-.079.127-.337.288-.45.104-.074.287-.01.406-.051.2-.069.339-.263.376-.46.016-.082.01-.145.039-.221.038-.103.111-.16.09-.293-.01-.062-.052-.12-.064-.187-.022-.114.002-.224 0-.337-.003-.2.017-.379-.078-.55-.38-.688-1.236-.929-1.975-.789-.18.034-.287.126-.442.207-.17.088-.139.166-.318.224-.081.026-.216.124-.215.224.001.115.005.051.012.169-.021.011-.021-.005-.03-.025"/><path  d="M46.458-48.695c.018.072.007.127-.026.19-.053.101-.112.062-.165.128a.64.64 0 0 0-.079.362c-.169.058-.009.226-.015.35-.003.05-.041.105-.045.161-.01.119.017.266.068.37.097.198.268.413.435.544.19.148.365.572.608.631.177.042.384-.104.543-.143.18-.043.397.01.571-.053.222-.079.127-.337.288-.45.104-.074.287-.01.406-.051.2-.069.339-.263.376-.46.016-.082.01-.145.039-.221.039-.103.111-.16.09-.293-.01-.062-.052-.12-.064-.187-.022-.114.002-.224 0-.337-.003-.2.017-.379-.078-.55-.38-.688-1.236-.929-1.975-.789-.18.034-.287.126-.442.207-.17.088-.139.166-.318.224-.081.026-.216.124-.215.224.001.115.005.051.012.169-.021.011-.021-.005-.03-.025"/><path  d="M46.458-41.042c.018.072.007.127-.026.19-.053.101-.112.062-.165.128a.64.64 0 0 0-.079.362c-.169.058-.009.227-.015.35-.003.05-.041.105-.045.161-.01.119.017.266.068.37.097.198.268.413.435.544.19.148.365.572.608.631.177.042.384-.104.543-.143.18-.043.397.01.571-.053.222-.079.127-.337.288-.45.104-.074.287-.01.406-.051.2-.069.339-.263.376-.46.016-.082.01-.145.039-.221.039-.103.111-.16.09-.293-.01-.062-.052-.12-.064-.187-.022-.114.002-.224 0-.337-.003-.2.017-.379-.078-.55-.38-.688-1.236-.929-1.975-.789-.18.034-.287.126-.442.207-.17.088-.139.166-.318.224-.081.026-.216.124-.215.224.001.115.005.051.012.169-.021.011-.021-.005-.03-.025"/><path  d="M54.118-33.39c.018.072.007.127-.026.19-.053.101-.112.062-.165.128a.64.64 0 0 0-.079.362c-.169.058-.009.227-.015.35-.002.05-.041.106-.045.161-.01.119.017.266.068.37.097.198.268.413.435.544.19.149.365.572.608.631.177.042.384-.104.543-.143.18-.043.397.01.571-.053.222-.079.127-.337.288-.45.104-.074.287-.01.406-.051.2-.069.339-.263.376-.46.016-.082.01-.144.039-.221.038-.103.111-.16.09-.293-.01-.062-.052-.12-.064-.187-.022-.114.002-.224 0-.337-.003-.2.017-.379-.078-.55-.38-.688-1.236-.929-1.975-.789-.18.034-.287.126-.442.207-.17.088-.139.166-.318.224-.081.026-.216.124-.215.224.001.115.005.051.012.169-.021.011-.021-.005-.03-.025"/><path  d="M46.458-33.39c.018.072.007.127-.026.19-.053.101-.112.062-.165.128a.64.64 0 0 0-.079.362c-.169.058-.009.227-.015.35-.003.05-.041.106-.045.161-.01.119.017.266.068.37.097.198.268.413.435.544.19.149.365.572.608.631.177.042.384-.104.543-.143.18-.043.397.01.571-.053.222-.079.127-.337.288-.45.104-.074.287-.01.406-.051.2-.069.339-.263.376-.46.016-.082.01-.144.039-.221.039-.103.111-.16.09-.293-.01-.062-.052-.12-.064-.187-.022-.114.002-.224 0-.337-.003-.2.017-.379-.078-.55-.38-.688-1.236-.929-1.975-.789-.18.034-.287.126-.442.207-.17.088-.139.166-.318.224-.081.026-.216.124-.215.224.001.115.005.051.012.169-.021.011-.021-.005-.03-.025"/><path  d="M54.118-25.736c.018.072.007.127-.026.19-.053.101-.112.062-.165.128a.64.64 0 0 0-.079.362c-.169.058-.009.227-.015.35-.002.05-.041.106-.045.161-.01.119.017.266.068.37.097.198.268.413.435.544.19.148.365.572.608.631.177.042.384-.104.543-.143.18-.043.397.01.571-.053.222-.079.127-.337.288-.45.104-.074.287-.01.406-.051.2-.069.339-.263.376-.46.016-.082.01-.145.039-.221.038-.102.111-.16.09-.293-.01-.061-.052-.12-.064-.186-.022-.114.002-.224 0-.337-.003-.2.017-.379-.078-.55-.38-.688-1.236-.929-1.975-.789-.18.034-.287.126-.442.207-.17.088-.139.166-.318.224-.081.026-.216.124-.215.224.001.115.005.051.012.169-.021.011-.021-.005-.03-.025"/><path  d="M46.458-25.736c.018.072.007.127-.026.19-.053.101-.112.062-.165.128a.64.64 0 0 0-.079.362c-.169.058-.009.227-.015.35-.003.05-.041.106-.045.161-.01.119.017.266.068.37.097.198.268.413.435.544.19.148.365.572.608.631.177.042.384-.104.543-.143.18-.043.397.01.571-.053.222-.079.127-.337.288-.45.104-.074.287-.01.406-.051.2-.069.339-.263.376-.46.016-.082.01-.145.039-.221.039-.102.111-.16.09-.293-.01-.061-.052-.12-.064-.186-.022-.114.002-.224 0-.337-.003-.2.017-.379-.078-.55-.38-.688-1.236-.929-1.975-.789-.18.034-.287.126-.442.207-.17.088-.139.166-.318.224-.081.026-.216.124-.215.224.001.115.005.051.012.169-.021.011-.021-.005-.03-.025"/><path  d="M54.118-18.084c.018.072.007.127-.026.19-.053.101-.112.062-.165.128a.64.64 0 0 0-.079.362c-.169.058-.009.226-.015.35-.002.05-.041.105-.045.161-.01.119.017.266.068.37.097.198.268.413.435.544.19.148.365.572.608.631.177.042.384-.104.543-.142.18-.043.397.01.571-.053.222-.079.127-.337.288-.45.104-.074.287-.01.406-.051.2-.069.339-.263.376-.46.016-.082.01-.144.039-.221.038-.103.111-.16.09-.293-.01-.062-.052-.12-.064-.187-.022-.114.002-.224 0-.337-.003-.2.017-.379-.078-.55-.38-.688-1.236-.929-1.975-.789-.18.034-.287.126-.442.207-.17.088-.139.166-.318.224-.081.026-.216.124-.215.224.001.115.005.051.012.169-.021.011-.021-.005-.03-.025"/><path  d="M46.458-18.084c.018.072.007.127-.026.19-.053.101-.112.062-.165.128a.64.64 0 0 0-.079.362c-.169.058-.009.226-.015.35-.003.05-.041.105-.045.161-.01.119.017.266.068.37.097.198.268.413.435.544.19.148.365.572.608.631.177.042.384-.104.543-.142.18-.043.397.01.571-.053.222-.079.127-.337.288-.45.104-.074.287-.01.406-.051.2-.069.339-.263.376-.46.016-.082.01-.144.039-.221.039-.103.111-.16.09-.293-.01-.062-.052-.12-.064-.187-.022-.114.002-.224 0-.337-.003-.2.017-.379-.078-.55-.38-.688-1.236-.929-1.975-.789-.18.034-.287.126-.442.207-.17.088-.139.166-.318.224-.081.026-.216.124-.215.224.001.115.005.051.012.169-.021.011-.021-.005-.03-.025"/><path  d="M46.458-10.431a.25.25 0 0 1-.026.191c-.053.101-.112.062-.165.128a.64.64 0 0 0-.079.362c-.169.058-.009.227-.015.35-.003.05-.041.105-.045.161-.01.119.017.266.068.37.097.198.268.413.435.544.19.148.365.572.608.631.177.042.384-.104.543-.143.18-.043.397.01.571-.053.222-.079.127-.337.288-.45.104-.074.287-.01.406-.051.2-.069.339-.263.376-.46.016-.082.01-.145.039-.221.039-.103.111-.16.09-.293-.01-.062-.052-.12-.064-.187-.022-.114.002-.224 0-.337-.003-.2.017-.379-.078-.55-.38-.688-1.236-.929-1.975-.789-.18.034-.287.126-.442.207-.17.088-.139.166-.318.224-.081.026-.216.124-.215.224.001.115.005.051.012.169-.021.011-.021-.005-.03-.025"/></defs></svg>
