<?xml version="1.0" encoding="UTF-8"?><svg xmlns="http://www.w3.org/2000/svg" xmlns:xlink="http://www.w3.org/1999/xlink" viewBox="0 0 101.1 102.5" version="1.2" baseProfile="tiny-ps"><title>US3</title><defs><linearGradient id="linear-gradient" y1="51.25" x2="101.1" y2="51.25" gradientUnits="userSpaceOnUse"><stop offset="0" stop-color="#00a80e"></stop><stop offset="1" stop-color="#6bf015"></stop></linearGradient></defs><g id="Layer_2"><g id="Layer_1-2"><path d="M101.1,52.1c0,11-2.9,20.5-8.6,28.6a50.85,50.85,0,0,1-42,21.8c-14.7,0-26.9-5.3-36.5-15.8C4.7,77,0,64.9,0,50.2A48.66,48.66,0,0,1,15,14.7,49.12,49.12,0,0,1,50.9,0C72,0,90.3,13,98.2,34.1H70.8c-6.1-6.4-12.5-9.7-20-9.7A26,26,0,0,0,25,50.2C25,66,37.1,77.7,50.8,77.7c9.3,0,17.2-4.6,22.2-13.2H44.6V44.7h56.3C100.8,47.8,101.1,50.4,101.1,52.1Z" fill="url(#linear-gradient)"></path></g></g></svg>