<?xml version="1.0" encoding="utf-8"?>
<!-- Generator: Adobe Illustrator 26.2.1, SVG Export Plug-In . SVG Version: 6.00 Build 0)  -->
<svg version="1.2" baseProfile="tiny-ps" id="Layer_1" xmlns="http://www.w3.org/2000/svg" xmlns:xlink="http://www.w3.org/1999/xlink"
	 viewBox="0 0 1920 1999.5" xml:space="preserve">
	 <title>UPSIDE Foods</title>
<path fill="#131924" d="M1484.5,49.8c12.5-0.2,24.6-0.2,37.2-0.2c2.3,1.1,4.2,0.3,6.5,0.5c31.3,0.3,60.5,8.6,88.6,20.5
	c37.9,16,71.4,38.8,101.2,67.1c25.2,24,45.9,51.4,62.3,82c35.5,66.4,57.2,137.3,66.9,211.9c2.9,22.2,3.8,44.6,5.4,66.9
	c2.7,37.2,3.7,74.5,2.9,111.8c-0.5,24.7-2.5,49.3-4.9,73.8c-5,51-13.5,101.5-23.9,151.6c-12,58.4-27.3,115.9-45.1,172.8
	c-14.8,47.2-31.3,93.7-49.8,139.6c-16.9,41.9-35.1,83.2-54.6,123.9c-27,56.5-56.6,111.6-88.9,165.2c-45.9,75.9-97.1,148-154.4,215.8
	c-18,21.3-36.9,41.8-56.1,62.1c-33.2,35.1-68.7,67.5-106.4,97.6c-43.4,34.7-89.3,65.7-138.7,91.4c-60.7,31.5-124.3,53.3-192.2,62.6
	c-13.7,1.9-27.6,2.1-41.9,2.4c-4.8,0-9.2,0-14.1,0c-6.7,0-13,0-19.7,0c-5.2,0-10,0-15.1,0c-34.7,0.1-68.4-5.1-101.7-12.8
	c-49.7-11.4-97-29.2-142-53c-45.9-24.3-88.1-54-127.5-87.8c-23.6-20.3-46-41.9-67.4-64.5c-32.5-34.2-61.9-71-89-109.5
	c-40.1-56.8-73.9-117.2-103.8-179.9c-21.4-44.9-40.4-91-57-137.9c-23.4-66-41.6-133.3-54.8-202.1c-8.2-42.8-14.3-85.9-18.9-129.2
	c-2.3-22.1-4.4-44.2-6-66.3c-1.7-23.6-2.9-47.1-2.4-70.8c0.2-12.1,0.1-24.2,0-36.3c-0.1-38.6,2.9-77,7.2-115.3
	c4.6-41.6,12.1-82.6,22.8-123.1c10.9-41.3,25.1-81.5,42.9-120.4c15-32.8,32.6-64,54.1-92.9c46.1-62.1,104.1-108.5,178.4-132.8
	c25.8-8.4,52.3-13.1,79.4-15.1c18.8-1.4,37.7-1.3,56.5-0.7c56.1,2,109.8,14.4,160,40.2c31.3,16.1,59.5,36.7,85.4,60.6
	c33.1,30.6,60.5,65.9,85.6,103.1c14.2,21.1,28.5,42.1,47.1,59.7c8.4,8,17.9,14,29.4,16.3c18,3.6,32.9-2.8,45.8-14.7
	c18.6-17.2,32.2-38.3,45.8-59.4c40.8-63.6,84.1-125.5,133.7-182.7c16.7-19.2,33.9-37.9,52.2-55.5c32.4-31.3,66.6-60.4,105.6-83.4
	c44.8-26.4,93-43.3,144.3-51.3c7-1.1,14.1-1,21.6-1.4C1479.7,50,1481.9,50.1,1484.5,49.8z"/>
<path fill="#FFFFFF" d="M1477.6,50.3c-26.8,2.6-52.8,7.8-78.2,15.7c-23.3,7.2-45.9,15.9-67.5,27.1c-29.9,15.5-57.3,34.6-83.1,56.2
	c-11.6,9.7-22.7,19.8-33.6,30.2c-6.7,6.4-13.3,12.8-19.8,19.4c-28.5,29-55.1,59.6-80,91.7c-27.7,35.6-53.5,72.5-78.3,110.1
	c-10.5,15.8-20.6,31.9-31.3,47.6c-8.3,12.4-17.7,24-28.2,34.6c-10.7,10.7-23.2,17.5-38.4,18.5c-8,0.5-15.8-1.6-23.1-5
	c-10.7-5-19.1-12.8-27-21.3c-14.8-15.9-27-33.7-39-51.8c-16.7-25.2-34.8-49.2-54.9-71.8c-29-32.5-61.7-60.6-99.5-82.5
	c-31.4-18.2-64.8-31.1-100.1-39.1c-16.9-3.8-34-6.5-51.3-7.9c-12.4-1-24.7-1.8-37.1-1.7c-9.4,0.1-18.8-0.3-28.2-0.1
	c-43.5,1.3-85.3,10.2-125.2,27.8c-33.5,14.8-63.8,34.8-91,59.2c-23.5,21-44.1,44.7-62,70.6c-16.6,24-31,49.3-43.4,75.6
	c-19,40.1-34.1,81.7-45.4,124.6c-7.2,27.1-13,54.4-17.5,82c-2.8,17.3-5.1,34.6-6.9,52c-1.6,15.6-3.1,31.3-4,47
	c-0.6,9-0.8,18.1-1.4,27.1c-1.7,28.6-0.8,57.2-0.9,85.7c0,13.1,0.7,26.2,1.4,39.3c0.8,14.1,1.9,28.2,3.2,42.3
	c2.6,27.4,5.3,54.9,9,82.2c2.9,21.7,6.1,43.4,9.9,65c6.6,37.7,14.8,75,24.5,112c8.8,33.2,18.7,66.1,29.9,98.6
	c13.7,39.9,29.2,79.1,46.4,117.6c10.8,24.3,22.3,48.3,34.5,71.9c17.2,33.6,35.9,66.4,56.2,98.3c24.1,37.9,50.4,74.2,79.3,108.6
	c10.1,12.1,20.6,23.9,31.3,35.5c10.1,11,20.5,21.7,31.2,32.1c30.3,29.7,62.5,57.2,97.2,81.8c26.8,19,54.8,36,84.3,50.7
	c36.3,18.1,74,32.4,113.2,42.5c26.6,6.9,53.5,12,80.8,15c11.3,1.2,22.5,2.4,34.3,2.9c0.7,0.3,0.9,0.4,0.8,0.9
	c-282.6,0.3-564.9,0.3-847.2,0.3c0-639.9,0-1279.8,0-1920c491.7,0,983.5,0,1475.7,0C1477.5,49.7,1477.7,49.9,1477.6,50.3z"/>
<path fill="#FFFFFF" d="M898.9,1968.8c9.7-1,19-1.6,28.3-2.5c27.2-2.7,53.9-8,80.2-15c31.8-8.4,62.5-19.7,92.4-33.2
	c32.5-14.7,63.6-32.1,93.6-51.5c28.2-18.2,55.3-37.9,81.4-59c17.4-14,34.3-28.6,50.7-43.8c15.3-14.1,30.3-28.4,44.8-43.3
	c29.1-30.1,56.8-61.4,83.2-93.9c25.4-31.5,49.7-63.8,72.8-97c26.9-38.8,52.2-78.6,76-119.4c25-42.7,48-86.5,69.7-131
	c16.3-33.5,31.5-67.4,45.9-101.7c14.3-34.1,27.7-68.7,40.1-103.5c15.6-43.9,29.5-88.4,41.7-133.3c8.9-32.5,16.8-65.1,23.8-98
	c4.6-21.4,8.6-43,12.4-64.6c3.4-19.7,6.3-39.4,9.1-59.2c1.5-11,2.6-22.1,3.7-33.2c1.4-14.9,2.7-29.9,3.9-44.9c0.3-3,0.3-6,0.4-9
	c0.8-22,1.4-44,0.9-66c-0.3-13.1-1-26.2-1.3-39.3c-0.3-10.6-1.2-21.2-1.9-31.8c-0.8-11.8-1.4-23.7-2.4-35.5
	c-1.6-19.9-4-39.7-7.6-59.4c-6.1-33.3-15.1-65.9-26.2-97.9c-13.6-39-30.3-76.4-53.6-110.7c-10.4-15.3-21.9-29.6-34.8-42.9
	c-27.2-28-58.2-50.8-93-68.3c-27.7-13.9-57-23.2-87.8-27.4c-5.3-0.7-10.5-1.4-16.2-1.9c-0.7-0.3-0.9-0.4-0.8-0.8
	c131.1-0.3,262-0.3,392.8-0.3c0,639.9,0,1279.8,0,1920c-340.3,0-680.6,0-1021.3,0C899,1969.4,898.8,1969.2,898.9,1968.8z"/>
<path fill="#50545B" d="M863.7,1968.9c6.7-0.3,13.2-0.4,20.2-0.4c0.7,0.2,0.8,0.4,0.7,0.8c-6.7,0.2-13.1,0.2-20.1,0.2
	C863.8,1969.4,863.7,1969.3,863.7,1968.9z"/>
<path fill="#C3C4C7" d="M863.3,1968.6c0.5,0.1,0.5,0.5,0.6,0.7c-4.9,0.2-9.9,0.2-15.4,0.2c-0.5,0-0.5-0.5-0.5-0.8
	C852.9,1968.5,857.9,1968.5,863.3,1968.6z"/>
<path fill="#C4C5C8" d="M884.8,1969.5c-0.5,0-0.6-0.5-0.5-0.8c4.7-0.3,9.3-0.3,14.5-0.2c0.5,0.1,0.5,0.5,0.5,0.8
	C894.6,1969.5,889.9,1969.5,884.8,1969.5z"/>
<path fill="#B3B5B9" d="M1477.8,50.6c-0.5,0-0.4-0.5-0.4-0.8c2.2-0.3,4.3-0.3,7-0.3C1482.9,51.8,1480.4,50,1477.8,50.6z"/>
<path fill="#B0B2B6" d="M1528.1,49.5c0.5,0,0.5,0.5,0.5,0.7c-2,0.4-4.1,0.6-6.3-0.3C1524,49.5,1525.8,49.5,1528.1,49.5z"/>
<path fill="#FEFEFE" d="M1202.1,1200.6c-9.9-0.1-19.3,0.5-28.7-1.1c-10.1-1.8-19.6-5-26.9-12.7c-8.4-8.7-11.2-19.5-11.7-31.1
	c-0.7-17,2.4-33.6,6.9-49.8c14.1-51,28.8-101.9,42.9-152.9c13.1-47.6,25.5-95.4,35.7-143.8c1.1-5.2,3.5-8.9,8.6-11.1
	c22.1-9.6,44.6-18.3,68.4-22.7c8.2-1.5,16.4-2.3,24.7-3c15.5-1.4,30.8,0.1,45.8,3.5c28.2,6.5,50.9,21.2,65.4,46.9
	c7.5,13.3,11.5,27.7,13.3,42.8c1.1,8.8,1.2,17.7,0.6,26.6c-1.1,17.4-2.8,34.8-5.8,52.1c-3.7,21.3-8.9,42.2-15.9,62.7
	c-13.2,38.2-32.8,72.6-59.2,103.2c-19.5,22.5-41.5,42.3-66.3,58.8c-25.7,17-53.8,27.4-84.6,30.7
	C1211.1,1200.1,1206.9,1200.4,1202.1,1200.6z"/>
<path fill="#FEFEFE" d="M249.9,911.7c3.8-15.7,6.8-31.2,8.9-46.8c0.5-3.5,0.4-7.1,1.3-10.5c1.2-4.4,4-7.2,8.4-7.9
	c12.1-2.1,24.1-2.9,36.3-0.5c17.9,3.6,31.2,16,34.5,35.7c2.2,12.7,1.5,25.4-0.7,38.1c-4.7,26.6-12.8,52.2-20.2,78.1
	c-11.3,39.7-23.4,79.1-33,119.3c-3.2,13.6-5.9,27.3-7.1,41.3c-0.4,4.4-0.4,8.9,0.3,13.3c2.6,16.7,19.3,18.3,28.8,12.3
	c4.6-2.9,7.9-7.1,10.9-11.5c6.8-9.8,11.9-20.6,15.7-31.9c11.4-34.1,21.8-68.5,32-103c11.3-38.2,21.8-76.6,31.2-115.3
	c6-24.6,11.5-49.3,16.5-74.1c0.4-2.1,1-4.1,1.8-6.1c1.7-4.2,5-6.6,9.4-6.6c6.4,0,12.7-1.3,19.1-0.8c11,0.7,21.4,3.1,30.3,10
	c9.4,7.4,14.3,17.5,16.2,29c2.7,16.1,1.7,32.2-1.4,48.1c-4,20.7-10.4,40.8-15.9,61.1c-8,29.9-16.4,59.8-25.6,89.3
	c-9.4,30.1-18.9,60.2-31.3,89.2c-10.6,24.6-25.1,46.5-45,64.5c-20,18.2-42.8,31.5-69.7,36.7c-21,4.1-41.9,3.6-62.3-3.3
	c-21.8-7.4-36.2-22.4-44-43.8c-7.4-20.6-8.3-41.8-4.9-63.4c6.7-42.4,17.5-83.8,28.6-125.2c9.5-35.4,20-70.5,28.6-106.1
	C248.4,918,249.1,915.1,249.9,911.7z"/>
<path fill="#FEFEFE" d="M647.3,820.5c23.4-2.2,45.8-0.5,67.2,8.6c21.5,9.1,35.7,25.1,44,46.6c5.5,14.3,8.3,29.3,8.6,44.6
	c0.1,2.8,0.8,5.6,0.8,8.4c-0.1,21.3-4.3,41.9-11.7,61.8c-9.9,26.8-25.2,50.3-44.5,71.3c-22.3,24.3-48.2,43.9-77.4,59.1
	c-19.5,10.1-40.3,16.5-62,19.6c-6.7,1-10.5,4.5-11.9,11c-4.3,19.7-9.3,39.3-14.1,58.9c-2.1,8.8-4.2,17.6-6.3,26.3
	c-2.3,9.6-7.7,12.3-15.5,12c-5-0.2-10-0.1-14.9,0c-8.7,0.1-16.8-2-24.6-5.8c-10.3-5.1-16.7-13.4-20-24.3c-2.9-9.7-2.6-19.6-1.5-29.5
	c3.1-30.3,12.1-59.2,20-88.4c8.9-32.8,17.7-65.6,26.3-98.5c7.2-27.4,14.1-54.9,20.7-82.4c5.1-21.3,10-42.7,14.5-64.2
	c1.2-5.9,3.9-9.8,9.9-11.9c19.5-6.6,38.9-13.3,59-17.8C624.7,823.3,635.7,821.5,647.3,820.5z"/>
<path fill="#FEFEFE" d="M1626.2,844.8c-7,0.6-13.5,0.9-20.1,1.4c-6.1,0.4-8.8,2.6-10.5,8.7c-3.2,11.8-6.2,23.6-9.3,35.4
	c-2.4,9.1-5.1,18.1-7.7,27.1c-0.6,2.1-1.2,4.1-1.1,6.2c0.1,3.6,0.7,4.4,4.3,4.6c6,0.4,12-0.6,18-1.2c12.8-1.3,25.7-2.6,38.3-4.9
	c8-1.5,16-3.2,23.9-4.9c7.9-1.7,11.2-0.1,13.9,7.5c3.8,10.5,5.4,21.2,3.3,32.3c-3.4,18.2-14.5,29.9-30.8,37.3
	c-7.8,3.6-16.2,5.2-24.6,6.5c-12.9,2-26,2.8-39.1,3.6c-7.7,0.5-15.5,0.6-23.3,1.4c-6,0.7-9,3.5-10.3,8.9
	c-3.2,13.1-6.6,26.1-9.6,39.2c-2.5,11-4.7,22.1-7,33.2c-1.2,6-0.1,7.6,6,7.3c13.1-0.6,26.1-1.5,39.1-3.1c16.7-2.1,33.2-4.8,49.5-9.2
	c8-2.2,16.1-4.3,23.8-7.5c1.8-0.7,3.7-1.2,5.6-1.8c6.7-2,9.8-0.6,11.5,6c6.2,25.1,0.5,46.7-19.3,63.9
	c-14.4,12.5-31.4,19.7-49.7,24.4c-14.9,3.8-30.2,6-45.4,7.9c-20.1,2.5-40.3,3.1-60.5,2.7c-8.7-0.2-17.3-1.4-25.4-4.8
	c-14-5.8-22.2-16.6-25.6-31.2c-2.3-9.8-2.5-19.7-2-29.6c1.3-27.4,7.8-53.8,14.3-80.3c11.1-45.4,23.3-90.5,35.1-135.7
	c9.8-37.5,19.2-75.1,27.5-113c1.5-6.8,4.5-9.6,11.5-10.6c13.3-1.8,26.6-3.4,39.9-5.2c18.7-2.4,37.5-5,56.2-7.2
	c14-1.7,28.1-3.5,42-5.5c15.2-2.2,30.4-4.9,45.4-8.3c7.2-1.6,10.1-0.3,13.3,6.2c6,12.1,8.9,24.8,6.4,38.1c-3.1,17.1-13.5,29-28.4,37
	c-13.3,7.1-27.7,10.7-42.4,13.1C1651,842.9,1638.8,843.9,1626.2,844.8z"/>
<path fill="#FEFEFE" d="M880.6,953.3c3,8.8,8.1,15.8,14.1,22.1c10.4,10.9,22,20.6,33.4,30.5c9.7,8.4,19,17,27.5,26.7
	c13.7,15.6,21.1,33.6,22.9,54.4c1.6,18.7-0.6,36.7-7.8,54.1c-5.1,12.3-12.2,23.2-21.2,32.9c-20.5,22.1-45.3,37.3-74,46.3
	c-3.7,1.2-7.5,1.8-11.5,1.8c-22.8-0.1-45.5-0.4-68.3,0.1c-10.1,0.2-18.9-2.9-27.2-7.8c-20.1-11.9-31.7-29.8-34.3-52.8
	c-2.4-21.1,4.3-39.9,18.1-56c8.8-10.3,19.9-16.9,33.3-19.4c6-1.1,9.6,1,11,6.9c1.4,5.7,2.1,11.5,4.4,16.9c9,21.6,25,33.8,48.4,36
	c7.5,0.7,14.9,0,22.1-2.1c19-5.5,25.2-22,15.7-39.3c-5.8-10.4-14.2-18.4-23.4-25.8c-9.9-8-20.2-15.6-29.8-24
	c-14.9-12.9-28-27.1-36.7-45c-7.9-16.3-11-33.7-9.8-51.6c1.4-20.5,7.8-39.9,16.3-58.5c9.1-19.9,20.9-37.9,36.6-53.2
	c17.2-16.9,37.3-29.3,60-37.3c13-4.6,26.3-8.5,40.2-9.5c23.8-1.7,45,4.7,62.8,20.8c9.1,8.2,14.4,18.8,17.5,30.5
	c2.1,7.9,2.7,16,3.5,24.1c1.1,11-0.4,21.6-3.6,31.9c-5.9,18.8-15.9,34.7-33.5,45c-13,7.6-27.1,10.1-42,8.8c-1.1-0.1-2.1-0.2-3.1-0.5
	c-5.2-1.4-7.2-4.5-6.1-9.9c1.4-7.1,3-14.2,4.2-21.3c1.6-9.1,2-18.3-0.4-27.3c-0.6-2.2-1.3-4.4-2.3-6.5c-4.6-9.5-13.6-13.4-24-10.5
	c-10,2.8-17.6,9.1-23.9,17C877.3,916.7,874.8,934.1,880.6,953.3z"/>
<path fill="#FEFEFE" d="M1130.5,987.9c-8.1,28.7-16.3,56.9-24.1,85.2c-9.9,35.8-19.6,71.7-28.3,107.8c-1.4,5.7-2.7,11.4-4.1,17
	c-0.5,1.9-1.2,3.7-1.8,5.5c-1.8,4.9-5.8,7.3-10.7,7.3c-11-0.1-22,1-32.9-0.8c-10.3-1.7-19.5-5.4-25.8-14.2
	c-4.8-6.7-6.8-14.4-7.3-22.4c-1-16.4,1.3-32.4,4.8-48.4c4.5-20.4,10.8-40.3,16.4-60.5c12.1-43.5,24.6-86.9,36.6-130.4
	c12-43.5,23.2-87.2,32.8-131.3c0.1-0.3,0.1-0.7,0.2-1c2.6-11.2,5.1-13.1,16.9-13.2c11.9-0.1,23.7,0.6,35.1,4.4
	c15.2,5.1,24.1,15.5,26.7,31.4c1.9,11.3,0.8,22.6-0.7,33.8c-2.9,20.9-9.1,41.1-14.7,61.4C1143.3,942.2,1136.9,964.8,1130.5,987.9z"
	/>
<path fill="#141A25" d="M1284.4,1083.3c-6.4,5.6-12.3,11.2-19,16c-9.2,6.6-19.6,10.7-29.7,15.5c-1.7,0.8-3.5,1.1-5-0.2
	c-1.7-1.5-1.2-3.7-0.7-5.5c2.4-8,4-16.1,5.9-24.2c10.2-44.2,20.8-88.2,31.8-132.2c7.1-28.3,13.9-56.7,20.7-85.1
	c1.6-6.6,5.2-10.5,11.8-12.1c10.3-2.4,20.6-3.4,30.9-0.7c14.1,3.7,23,12.8,26.9,26.7c3.1,11.1,3.3,22.3,2.2,33.7
	c-1.5,15.2-4.1,30.1-7.6,45c-4.1,17.3-9.7,34.1-17,50.2c-9.7,21.5-22.3,41.1-37.9,58.8C1293.6,1073.8,1289.1,1078.4,1284.4,1083.3z"
	/>
<path fill="#151B26" d="M673.3,981c-6.6,18.4-16.2,34.3-29.8,47.7c-8.9,8.8-19.2,15.7-30.2,21.5c-3.9,2-7.9,4-11.9,6
	c-2.7,1.4-5.5,2.5-8.5,3.1c-5.7,1.2-9.1-2.1-8.1-7.7c0.3-1.4,0.6-2.8,1.1-4.1c5.1-12.9,7.7-26.5,11.2-39.8
	c8.3-31.3,16.4-62.7,24.4-94c1.3-5.1,3.8-7.9,8.8-9.3c8.9-2.4,17.8-4.7,27.1-4.4c3.2,0.1,6.4,0.6,9.4,1.3
	c6.2,1.4,10.2,5.5,12.5,11.3c2,5.2,2.8,10.6,3,16.1C683,946.5,678.9,963.6,673.3,981z"/>
</svg>
