<?xml version="1.0" encoding="utf-8"?>
<!-- Generator: Adobe Illustrator 27.5.0, SVG Export Plug-In . SVG Version: 6.00 Build 0)  -->
<svg version="1.2" baseProfile="tiny-ps" id="Layer_1" xmlns="http://www.w3.org/2000/svg" xmlns:xlink="http://www.w3.org/1999/xlink"
	 viewBox="0 0 162 162" xml:space="preserve">
	 <title>Roark</title>
<g>
	<g>
		<path d="M75.32,137.36l-0.08-40.79l-35.09,40.81c0,0-9.93,0.01-11.74-0.05c-0.91,0-1.9-0.45-1.27-1.72
			c0.32-0.37,21.36-24.65,42.48-49.13l16.7,18.84l0.09,32.03H75.32z"/>
		<path d="M30.38,78.94c0,5.34,4.33,9.68,9.67,9.68c5.34,0,9.67-4.33,9.67-9.68c0-5.35-4.33-9.68-9.67-9.68
			C34.71,69.26,30.38,73.59,30.38,78.94"/>
		<path d="M112.92,78.63c0,5.34,4.33,9.68,9.68,9.68c5.34,0,9.67-4.33,9.67-9.68c0-5.34-4.33-9.67-9.67-9.67
			C117.24,68.96,112.92,73.29,112.92,78.63"/>
		<path d="M114.11,34.82c0,0-12.33,14.29-27.71,32.11l-0.02-32.08L114.11,34.82z M134.87,135.62c-0.35-0.4-24.1-27.92-46.69-54.11
			l0.05-0.07L47.89,34.82l27.32,0.03L75.2,57.7l17.38,18.69l42.03-48.89c0,0,1.58-2.28-1.16-2.88c-2.18,0.05-102.85,0.05-104.91,0
			c-2.74,0.6-1.16,2.88-1.16,2.88l94.47,109.88c0,0,9.92,0.01,11.74-0.05C134.52,137.34,135.5,136.88,134.87,135.62"/>
	</g>
</g>
</svg>
