<?xml version="1.0" encoding="UTF-8"?>
<svg xmlns="http://www.w3.org/2000/svg" baseProfile="tiny-ps" version="1.2" viewBox="0 0 864 864">
<title>Benchling</title>
  <rect width="864" height="864" fill="#000db5" stroke-width="0"/>
  <path d="M604.2,307c11.4,29,26,43,26.2,43h0c2.5,1.5,4.4,3.8,5.5,6.4,1.1,2.7,1.4,5.6.7,8.4-.6,2.8-2.2,5.4-4.3,7.3-2.2,1.9-4.9,3.1-7.8,3.4-81.1,7.6-125.3,19.1-154.9,27.7-12.2,3.5-24.1,7.6-35.8,12.5l-1.9.8c-31.4,11.6-72.9,32.9-72.9,83.7s41.4,72.1,72.8,83.8c31.4-11.7,72.8-33,72.8-83.8s-14-52.7-42.9-69.8l-2.3-1.4,2.6-.9c9.7-3.2,21-6.4,33.4-9.5h.6l.5.4c12.1,9.8,21.8,22.2,28.4,36.3,6.6,14.1,9.9,29.5,9.6,45.1,0,43.7-22.6,77.5-67.4,100.8-9.8,5-20,9.4-30.4,13l-4.6,1.6c-31.4,11.6-73.2,33-73.2,84,0,2-.2,4-.9,5.9-.7,1.9-1.8,3.6-3.2,5.1-1.4,1.5-3.1,2.6-4.9,3.4-1.9.8-3.9,1.2-5.9,1.2s-4-.4-5.9-1.2c-1.9-.8-3.5-2-4.9-3.4-1.4-1.5-2.5-3.2-3.2-5.1-.7-1.9-1-3.9-.9-5.9,0-42.9,22-76.5,65.3-99.7-43.3-23.2-65.3-56.8-65.3-99.7s21.1-74.8,62.2-97.9c-29.6-8.5-73.6-19.6-152.1-26.9-2.9-.3-5.6-1.4-7.8-3.4-2.2-1.9-3.7-4.5-4.3-7.3-.6-2.8-.3-5.8.8-8.5,1.2-2.7,3.2-4.9,5.7-6.3,0,0,0-.1.3-.3,2-2.2,15.2-16,25.7-42.7,1.2-3.1,2.6-8.3,4.1-14.4.1-.5.3-1,.4-1.6,10.9-42.6,36.5-142.3,167.6-142.3s156.8,99.7,167.7,142.3h0c1.7,6.7,3.3,12.7,4.6,15.9ZM338,314.3c2.9,1.9,6.3,2.9,9.8,2.9,2.3,0,4.6-.5,6.7-1.3,2.1-.9,4-2.2,5.7-3.8,1.6-1.6,2.9-3.6,3.8-5.7.9-2.1,1.3-4.4,1.3-6.7,0-3.5-1-6.8-3-9.7-1.9-2.9-4.7-5.1-7.9-6.4-3.2-1.3-6.7-1.7-10.1-1-3.4.7-6.5,2.4-9,4.8-2.4,2.5-4.1,5.6-4.8,9-.7,3.4-.3,6.9,1,10.1,1.3,3.2,3.6,5.9,6.5,7.8ZM506.4,314.2c2.9,1.9,6.3,2.9,9.7,2.9h0c4.6,0,9.1-1.9,12.4-5.1,3.3-3.3,5.1-7.7,5.1-12.3,0-3.5-1-6.8-3-9.7-1.9-2.9-4.7-5.1-7.9-6.4-3.2-1.3-6.7-1.7-10.1-1-3.4.7-6.5,2.3-9,4.8-2.5,2.4-4.1,5.6-4.8,9-.7,3.4-.3,6.9,1,10.1,1.3,3.2,3.6,5.9,6.5,7.9ZM401.3,460.3h61.3c7.6,6.3,13.3,14.6,16.4,24h-94.3c3.2-9.4,8.9-17.7,16.6-24ZM490.7,613.5l-.7-.5-.7.5c-8.8,5.3-18,10-27.4,14.1l-2.2,1,2.1,1.2c28.9,17.2,43,40,43,69.9,0,2,.2,4,.9,5.9.7,1.9,1.8,3.6,3.2,5.1,1.4,1.5,3.1,2.6,4.9,3.4,1.9.8,3.9,1.2,5.9,1.2s4-.4,5.9-1.2c1.9-.8,3.5-2,4.9-3.4,1.4-1.5,2.5-3.2,3.2-5.1.7-1.9,1-3.9.9-5.9,0-35.1-14.8-64.1-43.9-86.1ZM462.6,659.6h-61.3c-7.6,6.3-13.4,14.6-16.6,23.9h94.3c-3.1-9.3-8.8-17.6-16.4-23.9ZM401.3,542.6h61.3c7.6-6.3,13.4-14.6,16.6-24h-94.3c3.2,9.3,8.8,17.6,16.4,24Z" fill="#fff" fill-rule="evenodd" stroke-width="0"/>
</svg>