<svg xmlns="http://www.w3.org/2000/svg" version="1.2" baseProfile="tiny-ps" viewBox="0 0 500 500" xml:space="preserve">
  <title>SAMSUNG</title>
  <g id="Layer_2">
    <rect width="500" height="500" fill="#ffffff"/>
  </g>
  <g id="Layer_1">
    <path fill="#000000" d="M49.33,234.72c-0.3-1.25-0.23-2.57-0.06-3.26c0.42-1.98,1.77-4.18,5.68-4.18c3.63,0,5.77,2.26,5.77,5.64&#13;&#10;&#9;&#9;c0,1.15,0,3.84,0,3.84h15.49v-4.36c0-13.51-12.18-15.66-20.96-15.66c-11.03,0-20.04,3.66-21.69,13.8&#13;&#10;&#9;&#9;c-0.45,2.78-0.53,5.23,0.12,8.37c2.69,12.7,24.76,16.37,27.97,24.4c0.6,1.49,0.42,3.41,0.12,4.58c-0.51,2.09-1.91,4.19-6.06,4.19&#13;&#10;&#9;&#9;c-3.88,0-6.2-2.26-6.2-5.65l-0.02-5.97H32.83v4.75c0,13.88,10.9,18.06,22.57,18.06c11.22,0,20.43-3.82,21.94-14.22&#13;&#10;&#9;&#9;c0.75-5.36,0.19-8.84-0.07-10.16C74.65,245.85,51.1,241.99,49.33,234.72z M251.27,234.88c-0.28-1.23-0.2-2.53-0.05-3.21&#13;&#10;&#9;&#9;c0.44-1.99,1.78-4.16,5.63-4.16c3.59,0,5.69,2.24,5.69,5.59c0,1.13,0,3.8,0,3.8h15.31v-4.33c0-13.38-11.99-15.48-20.68-15.48&#13;&#10;&#9;&#9;c-10.94,0-19.87,3.61-21.5,13.67c-0.43,2.74-0.54,5.17,0.15,8.28c2.66,12.55,24.51,16.19,27.68,24.13c0.56,1.5,0.4,3.42,0.11,4.55&#13;&#10;&#9;&#9;c-0.48,2.07-1.86,4.14-5.98,4.14c-3.86,0-6.19-2.22-6.19-5.57l0-5.96h-16.48v4.74c0,13.73,10.75,17.87,22.33,17.87&#13;&#10;&#9;&#9;c11.09,0,20.25-3.79,21.72-14.06c0.7-5.31,0.17-8.76-0.11-10.07C276.32,245.93,253.03,242.06,251.27,234.88z M392.27,268.71&#13;&#10;&#9;&#9;l-14.62-49.99H354.6v61.45h15.24l-0.88-51.59l15.7,51.59h22.1v-61.45h-15.34L392.27,268.71z M99.3,218.72l-11.5,62.09h16.77&#13;&#10;&#9;&#9;l8.67-57.48l8.46,57.48h16.66l-11.45-62.09H99.3z M193.09,218.72l-7.83,48.54l-7.83-48.54H152.1l-1.34,62.09h15.52l0.42-57.48&#13;&#10;&#9;&#9;l10.68,57.48h15.75l10.69-57.48l0.42,57.48h15.56l-1.39-62.09H193.09z M337.38,218.72h-15.7v45.94c0.02,0.8,0,1.7-0.14,2.36&#13;&#10;&#9;&#9;c-0.33,1.54-1.63,4.51-5.97,4.51c-4.28,0-5.62-2.97-5.92-4.51c-0.16-0.66-0.18-1.56-0.16-2.36v-45.94h-15.7v44.51&#13;&#10;&#9;&#9;c-0.02,1.15,0.07,3.49,0.14,4.11c1.08,11.6,10.22,15.36,21.64,15.36c11.44,0,20.57-3.77,21.68-15.36c0.09-0.61,0.2-2.96,0.13-4.11&#13;&#10;&#9;&#9;V218.72z M445.21,245.96v9.06h6.36V264c0.02,0.8-0.02,1.67-0.16,2.36c-0.25,1.68-1.84,4.53-6.36,4.53c-4.49,0-6.05-2.85-6.33-4.53&#13;&#10;&#9;&#9;c-0.11-0.69-0.16-1.56-0.16-2.36v-28.38c0-1,0.07-2.1,0.28-2.93c0.31-1.51,1.65-4.5,6.17-4.5c4.75,0,5.94,3.14,6.21,4.5&#13;&#10;&#9;&#9;c0.18,0.89,0.19,2.4,0.19,2.4v3.45h15.64v-2.04c0,0,0.07-2.13-0.12-4.11c-1.18-11.65-10.77-15.33-21.78-15.33&#13;&#10;&#9;&#9;c-11.02,0-20.43,3.72-21.8,15.33c-0.12,1.06-0.31,2.97-0.31,4.11v26.11c0,1.14,0.04,2.02,0.25,4.1&#13;&#10;&#9;&#9;c1.02,11.33,10.84,15.34,21.82,15.34c11.05,0,20.8-4.02,21.84-15.34c0.18-2.08,0.2-2.96,0.23-4.1v-16.64H445.21z"/>
  </g>
</svg>