<?xml version="1.0" encoding="utf-8"?>
<svg version="1.2" baseProfile="tiny-ps" id="Layer_1" xmlns="http://www.w3.org/2000/svg" xmlns:xlink="http://www.w3.org/1999/xlink"
	  viewBox="0 0 100 100" xml:space="preserve">
	  <title>ICICIPRULIFE</title>
<path fill="#F28020" d="M5.49,49.28c0,0.31-0.21,0.62-0.41,0.92c-0.31,0.41-0.82,0.51-1.33,0.31c-0.47-0.23-0.84-0.64-1.03-1.13
	c-0.1-0.21,0-0.31-0.21-0.41v-1.74l0.21-0.41c0.55-1.81,1.66-3.38,3.18-4.51c0,0.31-0.31,0.41-0.51,0.62
	c-0.82,1.01-1.35,2.21-1.54,3.49v1.03c0,0.92,0.51,1.44,1.33,1.64l0.41,0.1L5.49,49.28z"/>
<path fill="#E92127" d="M63.12,50.1h-1.85c-0.31,0-0.41-0.1-0.41-0.41v-1.23c0-0.41,0.1-0.41,0.41-0.41h1.64
	c0.41,0,0.41-0.21,0.41-0.41s0-0.41-0.41-0.41h-1.74c-0.31,0-0.31-0.1-0.31-0.31v-1.23c0-0.31,0.1-0.31,0.31-0.31h1.95
	c0.31,0,0.31-0.2,0.31-0.41c0-0.31,0-0.41-0.41-0.41h-3.08c-0.41,0-0.41,0.1-0.41,0.31v1.74l-0.1-0.1
	c-0.51-1.33-1.54-1.95-2.77-2.05h-2.05c-0.92,0-0.92,0-0.92,0.92v3.49c-0.1,0.92-0.72,1.33-1.64,1.33c-0.82-0.1-1.33-0.62-1.33-1.54
	v-4.2c0,0-1.12,0-1.12-0.02c-0.21,0-0.21,0.21-0.21,0.21c0,1.54-0.21,3.08,0,4.62c0.1,0.41,0.21,0.93,0.72,1.03
	c0.82,0.72,1.84,0.93,2.87,0.72c1.43-0.3,2.05-1.12,2.05-2.56v-2.15c0-1.13,0-1.13,1.23-1.03c1.23,0.2,2.15,1.13,2.15,2.46
	c0.1,1.33-0.62,2.05-1.95,2.36h-0.72c-0.82,0-1.03,0.1-1.54,0.82h2.66c1.12,0,2.14-0.69,2.56-1.74c0-0.1,0-0.31,0.21-0.31v1.74
	c0,0.31,0,0.31,0.31,0.31h3.18c0.31,0,0.31-0.21,0.31-0.41S63.53,50.1,63.12,50.1z M84.99,50.1h-1.54c-0.31,0-0.41-0.1-0.41-0.41
	v-4.41c0-0.82,0-0.82-0.82-0.82c-0.41,0-0.41,0.1-0.41,0.41v5.73l-0.31-0.31l-2.05-5.33c-0.1-0.31-0.2-0.41-0.51-0.41
	s-0.62,0-0.72,0.41l-2.26,5.44c0,0.1,0,0.21-0.21,0.31v-5.74c0-0.41,0-0.41-0.31-0.41h-6.97c-0.31,0-0.41,0.1-0.41,0.31v4.1
	c-0.31-0.62-0.72-1.03-1.03-1.44l-2.26-2.77c-0.31-0.41-0.62-0.31-1.03-0.31c-0.2,0.11-0.1,0.41-0.1,0.62v5.44
	c0,0.41,0.21,0.41,0.51,0.41s0.51,0,0.51-0.41v-4c0,0,0.52,0.72,0.53,0.72l2.77,3.38c0.21,0.41,0.62,0.31,1.03,0.31
	c0.31-0.1,0.1-0.41,0.1-0.72v-4.51c0-0.41,0.1-0.41,0.41-0.41h1.23c0.41,0,0.41,0.1,0.41,0.41v4.41c0,0.82,0,0.82,0.82,0.82
	c0.41,0,0.51-0.1,0.51-0.51v-4.62c0-0.51,0.1-0.51,0.51-0.51h1.03c0.31,0,0.31,0.1,0.31,0.51v4.1c0,1.03,0,1.03,1.03,1.03
	c0.41-0.1,0.92,0.21,1.33-0.1c0.3-0.2,0.41-0.82,0.51-1.23c0.1-0.31,0.2-0.31,0.51-0.31h1.85c0.31-0.1,0.52,0.1,0.62,0.41l0.41,0.92
	c0,0.31,0.1,0.31,0.31,0.31h4.1c0.41,0,0.31-0.21,0.31-0.41S85.4,50.1,84.99,50.1z M78.1,48.46c-0.21,0-0.31,0-0.21-0.21l0.82-2.05
	l1.03,2.26H78.1z"/>
<path fill="#AE2930" d="M8.67,41.08c-1.03,0.2-1.85,0.61-2.67,1.23c-0.2,0.1-0.41,0.3-0.41,0.51c-1.02,0.97-1.73,2.22-2.05,3.59
	c-0.31,1.64,0.51,2.77,1.95,2.87l-0.11-0.1c0.41-0.82,0.72-1.75,0.72-2.67C6.1,46,5.89,45.79,5.38,46l-0.21,0.1
	c-0.1,0-0.3,0.21-0.51,0c-0.1-0.2,0.1-0.3,0.31-0.51c0.52-0.52,1.1-0.96,1.74-1.33l0.62-0.21c0.62,0,0.82,0.31,0.72,0.82l-0.21,0.62
	c-0.3,1.13-0.82,2.26-0.92,3.49l0.62-0.21c1.64-1.02,3.08-2.15,3.59-4.1c0.21-0.41,0.21-0.82,0.21-1.23
	C11.44,41.9,10.21,40.87,8.67,41.08z M7.85,43.74c-0.41,0-0.62-0.21-0.51-0.62c0-0.62,0.72-1.23,1.23-1.33
	c0.4,0,0.61,0.11,0.61,0.41C9.18,42.92,8.46,43.64,7.85,43.74z"/>
<path fill="#294C98" d="M12.26,59.02H6.61c-0.21,0-0.31,0-0.31-0.31v-5.54l5.74-0.1h0.21c0.21,0.21,0.21,0.41,0.21,0.62v4.82
	C12.46,58.61,12.46,58.82,12.26,59.02z"/>
<path fill="#0B4B7F" d="M19.85,44.36c0.62,0,1.23,0,1.74,0.21c0.82,0.31,1.23,0.92,1.13,1.64c0,0.21,0,0.31-0.21,0.31h-1.64
	c-0.21,0-0.21,0-0.31-0.21c-0.21-0.62-0.72-0.82-1.33-0.72c-1.03,0.21-1.64,1.03-1.85,2.15v0.1c-0.21,1.03,0,1.44,0.62,1.64
	c0.82,0.21,1.74,0,2.05-0.82c0.1-0.21,0.31-0.31,0.62-0.31h1.44c0.31,0,0.31,0,0.21,0.31c-0.41,0.92-1.03,1.44-2.05,1.74
	c-1.03,0.41-2.05,0.51-3.28,0.31c-1.54-0.31-2.26-1.44-1.85-3.08s2.05-3.08,3.9-3.28C19.02,44.36,19.85,44.36,19.85,44.36z
	 M31.13,44.36c0.62,0,1.13,0,1.74,0.21c0.72,0.31,1.03,0.82,1.03,1.54c0.1,0.31,0,0.41-0.31,0.41h-1.03c-0.31,0-0.72,0-1.03-0.51
	c0-0.51-0.82-0.62-1.33-0.31c-1.03,0.31-1.44,1.23-1.64,2.15c-0.21,0.92,0,1.44,0.62,1.64c0.82,0.21,1.74,0,2.05-0.82
	c0.21-0.31,0.31-0.31,0.62-0.31h1.33c0.51,0,0.41,0.1,0.31,0.41c-0.41,0.72-1.03,1.23-1.64,1.54c-1.13,0.51-2.46,0.62-3.69,0.41
	c-1.54-0.41-2.26-1.44-1.85-3.08c0.41-1.74,2.05-3.08,4.1-3.28C30.41,44.36,31.13,44.36,31.13,44.36z"/>
<path fill="#344E9D" d="M24.05,59.02h-4l-0.1-0.62v-1.54l-0.1-0.41c-0.1-0.41,0.31-0.21,0.41-0.41l-0.21-0.1
	c-0.1,0-0.31-0.1-0.31-0.31c0-0.21,0.21-0.21,0.41-0.31l0.21-0.1l-0.21-0.21l-0.21-0.21c0-0.51-0.1-1.13,0.1-1.74h4.1
	c0.21,0.62,0,1.23,0,1.85c-0.41,0.62-0.21,1.33-0.1,2.05C24.36,57.69,24.36,58.31,24.05,59.02z"/>
<path fill="#E92127" d="M50,50.3c-0.31-0.2-0.41-0.61-0.62-0.92l-0.01,0.11l-0.51-1.03c-0.21-0.31-0.21-0.51,0-0.72
	c0.41-0.51,0.62-1.12,0.41-1.74c-0.31-1.03-0.92-1.54-1.95-1.54h-2.05c-0.41,0-0.51,0.1-0.51,0.41V50c0,0.92,0,0.92,1.03,0.92
	c0.41,0,0.41-0.1,0.41-0.41v-1.95c0-0.1-0.11-0.31,0.1-0.31c0.11-0.2,0.93,0,1.03,0.31l1.33,2.05c0.1,0.1,0.1,0.31,0.41,0.31h1.03
	C50.21,50.61,49.79,50.51,50,50.3z M47.33,47.34H46.3c-0.1,0-0.21,0-0.21-0.21v-0.82h0.11V46.1c0-0.21-0.41-0.72,0.21-0.82
	c1.03-0.1,1.54,0.21,1.74,1.03C48.15,46.82,47.94,47.23,47.33,47.34z"/>
<path fill="#2F4E9B" d="M17.08,59.02H13.7l-0.1-0.62v-4.72v-0.62h3.59l0.1,0.72v4.62l-0.1,0.62H17.08z"/>
<path fill="#304E9C" d="M17.08,59.02v-5.95h3.08v1.85l-0.31,0.1c-0.62,0.1-0.62,0.1-0.62,0.72v1.13c0.21,0.31,0.31,0.31,0.41,0
	c0-0.1,0-0.41,0.21-0.51c0.31,0,0.21,0.21,0.21,0.41v2.26h-3.08L17.08,59.02L17.08,59.02z"/>
<path fill="#E92127" d="M42.71,44.46h-2.05c-0.41,0-0.41,0.1-0.41,0.41v2.87c0,0,0,2.57-0.01,2.57c0,0.62,0,0.62,0.72,0.62
	c0.62,0,0.62,0.1,0.62-0.62v-0.62c0-0.41-0.21-0.92,0.1-1.23h1.03c1.23,0,2.05-0.82,2.05-1.95C44.76,45.28,44.04,44.46,42.71,44.46z
	 M43.54,47.02c-0.1,0.31-0.41,0.51-0.72,0.62c-1.23,0.21-1.23,0.1-1.23-1.03v-0.3c0-0.31-0.21-0.82,0-1.03h1.33
	c0.31,0,0.51,0.31,0.62,0.51V47.02z"/>
<path fill="#374FA1" d="M24.05,59.02v-1.23c0-0.31,0-0.51-0.21-0.72c0.31-0.21,0.62,0,1.03-0.1l0.1-0.1l-0.1-0.21
	c-0.21,0-0.41,0-0.41-0.31c0-0.21,0.21-0.21,0.41-0.31c-0.1-0.21-0.62-0.1-0.41-0.51c0-0.21,0.41,0,0.51-0.31
	c-0.21-0.31-0.62,0-0.92-0.31v-1.85h2.67c0.05,1.77,0.08,3.56,0.1,5.33v0.62h-2.77C24.05,59.01,24.05,59.02,24.05,59.02z"/>
<path fill="#0B4B7F" d="M37.69,44.46l-1.64,5.85c0,0.21-0.1,0.41-0.31,0.31H34.2c-0.31,0-0.31,0-0.31-0.31l1.54-5.54
	c0-0.21,0.1-0.31,0.31-0.31C35.74,44.46,37.69,44.46,37.69,44.46z M26.41,44.46l-0.72,2.36l-0.82,3.49
	c-0.1,0.31-0.21,0.41-0.51,0.31h-1.44c-0.21,0-0.31,0-0.31-0.31l1.54-5.54c0-0.21,0-0.31,0.31-0.31h1.85H26.41z M15.13,44.46
	l-1.64,5.95c0,0.21-0.1,0.31-0.31,0.31h-1.54c-0.31,0-0.31-0.1-0.31-0.41l1.54-5.54c0-0.21,0-0.31,0.31-0.31h1.85H15.13z"/>
<path fill="#2C4D9B" d="M13.69,53.07v5.95h-1.44v-5.95H13.69z"/>
<path fill="#F59068" d="M70.92,59.02h-1.03c-0.1-0.31,0-0.51,0-0.82s0-0.62-0.21-1.03l0.1-0.21c0,0,0.21-0.1,0.1-0.31h-0.21
	c-0.31,0-0.51,0-0.72-0.31c-0.15-0.22-0.15-0.5,0-0.72c0.31-0.41,0.62-0.31,1.03-0.21c0-0.31-0.21-0.41-0.51-0.41
	c-0.1,0-0.31,0-0.41-0.21c0.21-0.21,0.31-0.51,0.31-0.82s-0.1-0.62,0.1-0.92h1.44l0.1,0.62v4.82L70.92,59.02z"/>
<path fill="#F8AC8A" d="M79.74,59.02h-1.23l-0.1-0.62v-4.72v-0.51c0.31-0.21,0.62,0,0.82-0.1h0.62v5.95L79.74,59.02z"/>
<path fill="#F16135" d="M57.07,59.02h-1.33l-0.1-0.63v-4.8l0.1-0.52h1.44l0.1,0.52v4.8l-0.1,0.63H57.07z"/>
<path fill="#F26C40" d="M60.05,59.02h-1.03c-0.21-0.31-0.1-0.62-0.1-1.03v-0.82c0.41-0.41,0.41-0.41,0.21-1.03v-0.21
	c-0.1-0.51-0.41-0.82-0.82-1.03c0-0.72-0.21-1.23,0-1.85c0.58-0.06,1.16-0.06,1.74,0c0.21,0.21,0.21,0.41,0.21,0.62v4.72
	C60.25,58.61,60.25,58.82,60.05,59.02z"/>
<path fill="#9E4B56" d="M41.19,59.02h-1.05c-0.21-0.21-0.21-0.42-0.21-0.63V53.6l0.1-0.52h1.25v5.83L41.19,59.02z"/>
<path fill="#F9B696" d="M82.82,59.02h-1.03c-0.21-0.21-0.21-0.42-0.21-0.63v-4.82c0-0.21,0-0.42,0.21-0.52h1.03
	c0.21,0.1,0.1,0.42,0.21,0.63v4.5c0,0.32,0,0.52-0.21,0.73V59.02z"/>
<path fill="#F9B391" d="M81.79,52.97v6.05h-1.13c-0.21-0.21-0.21-0.42-0.21-0.63v-4.8l0.1-0.52h1.23L81.79,52.97L81.79,52.97z"/>
<path fill="#F3774C" d="M63.33,59.02H62.1c-0.21-0.21-0.21-0.41-0.21-0.62v-4.76l0.1-0.51c0.41-0.21,0.82-0.1,1.23,0
	c0.21,0.51,0.1,1.04,0,1.65l-0.1,0.31c-0.31,0.51-0.1,1.14-0.1,1.75l0.1,0.21c0.41,0,0.41,0.41,0.41,0.73c0,0.41,0.1,0.83-0.1,1.24
	L63.33,59.02z"/>
<path fill="#F05D32" d="M55.74,53.07v5.95h-1.03l-0.1-0.62c-0.01-1.74-0.01-3.49,0-5.23c0.41-0.21,0.72,0,1.03-0.1
	C55.64,53.07,55.74,53.07,55.74,53.07z"/>
<path fill="#F8A682" d="M77.69,59.02h-1.03c-0.21-0.21-0.21-0.42-0.21-0.63V53.6l0.1-0.52h1.13c0.21,0.1,0.1,0.42,0.1,0.63v4.48
	l-0.1,0.73v0.1H77.69z"/>
<path fill="#F7A27D" d="M76.66,53.07v5.95h-1.03c-0.21-0.21-0.21-0.41-0.21-0.51c-0.01-1.77-0.01-3.56,0-5.33
	c0.31-0.21,0.62,0,0.82-0.1C76.25,53.07,76.66,53.07,76.66,53.07z"/>
<path fill="#824E6A" d="M36.05,59.02h-1.03c-0.21-0.21-0.1-0.41-0.1-0.62v-4.72v-0.51h1.23v5.74L36.05,59.02z"/>
<path fill="#F27045" d="M60.04,59.12v-6.05h1.05c0.21,0.1,0.21,0.42,0.21,0.63v4.59c0,0.21,0,0.52-0.21,0.73h-1.05V59.12z"/>
<path fill="#F79F7B" d="M75.64,53.07v5.95h-1.03c-0.21-0.31-0.1-0.62-0.1-1.03c0-0.62,0-0.62-0.82-0.62h-0.1
	c-0.21,0-0.31,0-0.41-0.21c0.1-0.21,0.31-0.21,0.51-0.21l0.62-0.1c-0.21-0.21-0.62-0.1-0.51-0.51c0-0.21,0.31-0.21,0.41-0.31v-0.1
	c-0.21,0-0.41-0.1-0.41-0.31c0-0.31,0.1-0.31,0.31-0.41c0.21,0,0.31-0.21,0.31-0.41c0-0.62-0.21-1.13,0-1.74h1.03L75.64,53.07
	L75.64,53.07z"/>
<path fill="#F16639" d="M58.31,53.07v1.88c-0.32,0.32-0.42,0.83-0.52,1.35l-0.32,0.63c0.21,0.32,0.42,0.21,0.52,0h0.21
	c0.21,0.73,0.21,1.46,0,2.09h-1.25v-5.95H58.31z"/>
<path fill="#F37F56" d="M65.89,59.02h-1.03c-0.21-0.21-0.21-0.51-0.21-0.72c0-0.41,0-0.82-0.31-1.23c0.51,0,0.62-0.51,0.51-1.03
	c0-0.31,0.1-0.82-0.21-1.13c0-0.62-0.21-1.23,0-1.85h1.23c0.21,0.21,0.1,0.41,0.1,0.72v4.41l-0.1,0.72v0.11
	C65.87,59.02,65.89,59.02,65.89,59.02z"/>
<path fill="#9A4D5A" d="M40.05,53.07v5.95h-0.72c-0.21-0.31-0.1-0.62-0.1-0.92c0-0.31,0-0.72-0.21-1.03v-0.1
	c-0.21-0.72,0-1.44-0.21-2.05c0-0.62-0.1-1.23,0.1-1.85C38.92,53.07,40.05,53.07,40.05,53.07z"/>
<path fill="#884D66" d="M36.04,59.15v-6.08h1.05c0.21,0.52,0,1.05,0,1.78v2.09c0.42,0.74,0.42,1.36,0.21,2.09h-1.26L36.04,59.15
	L36.04,59.15z"/>
<path fill="#F69872" d="M73.28,57.18h0.41c0.21,0.62,0.21,1.23,0,1.85h-1.13c-0.21-0.21-0.21-0.41-0.21-0.62
	c0.02-1.74,0.06-3.49,0.1-5.23c0.21-0.21,0.51,0,0.72-0.1h0.41c0.21,0.62,0.21,1.23,0,1.85l-0.1,0.82c0,0.41,0,0.92-0.21,1.33
	L73.28,57.18z"/>
<path fill="#FEF4EE" d="M92.56,59.02h-1.03l-0.1-0.62v-4.72l0.1-0.62c1.03-0.1,1.13-0.1,1.13,1.03v4.1
	C92.66,58.2,92.56,59.02,92.56,59.02z"/>
<path fill="#FABA9B" d="M82.81,59.13v-6.06h1.05c0.21,0.21,0.21,0.52,0.21,0.73v4.49c0,0.32,0,0.52-0.21,0.73h-1.05V59.13z"/>
<path fill="#EE4723" d="M50,59.02h-0.92l-0.1-0.62v-1.64v-1.85c0-0.62-0.1-1.23,0.1-1.85h1.03l0.1,0.72v4.41l-0.1,0.72L50,59.02z"/>
<path fill="#F27348" d="M61.06,59.12v-6.02l0.21-0.1h0.83v6.02h-1.05V59.12z"/>
<path fill="#F4825A" d="M65.88,59.12v-6.05h1.05v5.95h-1.05V59.12z"/>
<path fill="#774E70" d="M34.19,59.02h-1.01v-0.81c0-0.4,0-0.81-0.4-1.21c0.5,0,0.5-0.4,0.5-0.9l-0.1-1.21
	c-0.1-0.61-0.21-1.21,0-1.82h1.01l0.1,0.71v4.44l-0.1,0.71V59.02z"/>
<path fill="#EF5229" d="M52.87,59.02h-1.03c-0.21-0.21-0.21-0.42-0.21-0.63v-4.81l0.1-0.52h0.92c0.21,0.52,0,1.05,0,1.77v2.09
	C53.07,57.66,53.07,58.3,52.87,59.02z"/>
<path fill="#A44B53" d="M41.17,59.15v-6.08h0.94l0.1,0.63v4.61l-0.1,0.74h-0.94V59.15z"/>
<path fill="#7C4E6E" d="M34.2,59.02v-5.95h0.82v5.95H34.2z"/>
<path fill="#F8A885" d="M77.69,59.02v-5.95h0.82v5.95H77.69z"/>
<path fill="#FAC2A7" d="M85.18,59.02h-0.82c-0.21-0.21-0.21-0.42-0.21-0.63v-4.82l0.1-0.52h1.03v5.97H85.18z"/>
<path fill="#EF4A25" d="M50,59.12v-6.05h1.03v5.22l-0.1,0.73H50.1L50,59.12z"/>
<path fill="#F4855C" d="M66.83,58.92v-5.85c0.21-0.21,0.4,0,0.61-0.1h0.3v6.05h-0.91L66.83,58.92
	C66.84,58.92,66.83,58.92,66.83,58.92z"/>
<path fill="#F5926B" d="M70.91,59.12v-6.05h0.94v5.95h-0.94V59.12z"/>
<path fill="#EF4E27" d="M50.84,59.12v-6.05c0.13-0.21,0.39,0,0.64-0.1h0.26v6.05h-0.9C50.84,59.02,50.84,59.12,50.84,59.12z"/>
<path fill="#F8AF8D" d="M80.66,53.07v5.95h-0.92v-5.95H80.66z"/>
<path fill="#F48860" d="M67.63,59.12v-6.05c0.32-0.1,0.52-0.1,0.83,0c0.21,0.1,0.1,0.42,0.1,0.63v1.46c0,0.52,0,1.05,0.21,1.67v1.77
	l-0.21,0.42h-0.94V59.12z"/>
<path fill="#F05A2F" d="M54.72,53.07v5.95H54.1c-0.31-0.41-0.1-0.72-0.21-1.03c0-0.31,0-0.62-0.21-0.82l0.21-0.82v-0.21
	c0.31-0.41,0.31-0.72,0-1.03V54.8v-1.23v-0.51h1.03L54.72,53.07L54.72,53.07z"/>
<path fill="#FEEFE6" d="M91.53,53.07v5.95h-0.72l-0.21-0.51v-4.82l0.1-0.51c0.31-0.21,0.62-0.1,0.82,0L91.53,53.07z"/>
<path fill="#FDE5D6" d="M90.1,59.02h-0.72c-0.21-0.21-0.1-0.42-0.1-0.63v-4.8v-0.52h0.92v5.95H90.1z"/>
<path fill="#FCD0B8" d="M87.12,59.02H86.3l-0.1-0.63v-4.81v-0.52h0.92l0.1,0.63v4.49l-0.1,0.73V59.02z"/>
<path fill="#F6956E" d="M71.73,59.12v-6.05c0.32-0.1,0.52-0.1,0.83,0v5.95h-0.83V59.12z"/>
<path fill="#F8AC8A" d="M51.64,53.07h-2.67c-0.21,0.21-0.41,0.21-0.62,0.21h-1.44c-0.17,0.01-0.34,0.01-0.51,0h-3.38
	c-0.31,0-0.62,0-1.03-0.21h-2.97c-0.41,0.31-0.82,0.21-1.23,0.21l-0.72-0.1h-3.9c-0.21,0.1-0.51,0-0.82,0h-0.62
	c-0.24,0.01-0.48,0.01-0.72,0H12.26l-5.85-0.1h45.13h0.1V53.07z"/>
<path fill="#E92228" d="M86.1,46.51c0-0.82,0-0.92,0.62-1.03h1.95c-0.82-0.72-1.64-0.62-2.46-0.21l-0.72,0.21
	c-0.21,0-0.41,0-0.51-0.31c0-0.21,0-0.41,0.31-0.62c0-0.1,0,0,0.1,0c0.41,0.51,1.03,0.41,1.54,0.21c0.92-0.51,1.64-0.21,2.36,0.31
	c0.21,0.31,0.21,0.41,0,0.62c-0.49,0.46-1.18,0.66-1.85,0.51C86.92,46,86.41,46,86.1,46.51z"/>
<path fill="#B64B46" d="M43.84,53.07h0.63c0.21,0.21,0.1,0.42,0.1,0.73v4.48l-0.1,0.73h-0.73c-0.21-0.32,0-0.73,0-1.05v-1.05v-0.32
	c0-0.42,0-0.63-0.42-0.83c-0.1,0-0.32-0.1-0.32-0.32c0-0.21,0.21-0.21,0.32-0.21c0.32,0,0.32-0.21,0.32-0.42v-1.25
	c0-0.21,0-0.42,0.21-0.63L43.84,53.07z"/>
<path fill="#704E75" d="M32.36,53.07h0.92v1.85c-0.31,0.21-0.41,0.51-0.41,0.82v1.33c0.41,0.1,0.41,0.51,0.41,0.92v1.03h-0.92
	l-0.1-0.62v-4.72C32.25,53.69,32.36,53.07,32.36,53.07z"/>
<path fill="#FCD9C5" d="M88.35,59.02h-0.72l-0.1-0.63v-4.8v-0.52c0.31-0.1,0.62-0.1,0.82,0l0.1,0.63v4.48l-0.1,0.73V59.02z"/>
<path fill="#624E7F" d="M30.41,53.07h0.62c0.21,0.21,0.21,0.41,0.21,0.62v4.72c0,0.21,0,0.41-0.21,0.62h-0.51
	c-0.21-0.21-0.21-0.41-0.21-0.62v-4.72c0-0.21,0-0.41,0.21-0.62H30.41z"/>
<path fill="#674E7A" d="M31.02,59.02v-5.95h0.72l0.1,0.72v4.62l-0.1,0.62L31.02,59.02L31.02,59.02z"/>
<path fill="#6C4F78" d="M31.74,59.02v-5.95h0.62v5.95H31.74z"/>
<path fill="#FDEADE" d="M90.1,59.02v-5.95h0.72v5.95H90H90.1z"/>
<path fill="#FBCCB3" d="M86.3,53.07v5.95h-0.62c-0.21-0.21-0.21-0.41-0.21-0.62v-4.72l0.1-0.51c0.31-0.21,0.51-0.1,0.72,0v-0.1
	C86.29,53.07,86.3,53.07,86.3,53.07z"/>
<path fill="#E92328" d="M94.61,45.38c-0.21-0.41-0.51-0.41-0.82-0.41c-1.15-0.24-2.34-0.24-3.49,0H90c-0.72,0-1.03-0.21-0.62-1.03
	c0.41,0.82,1.03,0.72,1.64,0.51c1.13-0.31,2.36-0.51,3.49,0c0.51,0.1,0.51,0.1,0.31,0.72C94.82,45.18,94.82,45.38,94.61,45.38z"/>
<path fill="#AA4A4D" d="M42.1,53.07h1.03c0.21,0.51,0,1.03,0,1.64c0,0.21-0.21,0.31-0.41,0.41c-0.31,0.31-0.31,0.72,0.1,1.03h0.21
	c0.1,0.1,0.31,0.21,0.21,0.31c0,0.21-0.21,0.21-0.31,0.21c-0.21,0-0.31-0.1-0.41,0c-0.1,0.21,0,0.31,0.1,0.41v0.1
	c0,0.62,0.21,1.23,0,1.85H42.1C42.1,59.02,42.1,53.07,42.1,53.07z"/>
<path fill="#F37C51" d="M64.37,57.23c0.52,0,0.52,0.32,0.52,0.74v1.05h-1.58v-1.36c0-0.21,0-0.42-0.42-0.42l-0.21-0.1
	c0-0.74-0.1-1.47,0.1-2.1c0.21,0.32,0,0.84,0.1,1.26c0,0.21,0,0.63,0.21,0.63c0.21,0,0.1-0.32,0.1-0.52c0-0.21,0-0.42,0.21-0.42
	c0.21,0,0.32,0.1,0.32,0.21c0.21,0.32,0.52,0.52,0.52,1.05h0.11V57.23z"/>
<path fill="#F28021" d="M7.03,48.97c1.79-0.83,3.22-2.29,4-4.1l0.1-0.21l-0.21,0.92c-0.63,1.52-1.65,2.83-2.97,3.79
	c-0.31,0.21-0.51,0.41-0.82,0.31c-0.31-0.21-0.21-0.51-0.21-0.72L7.03,48.97L7.03,48.97z"/>
<path fill="#FCD5BF" d="M87.64,53.07v5.95h-0.51v-5.95H87.64z"/>
<path fill="#D24733" d="M46.41,53.07h0.52c0.21,0.21,0.21,0.42,0.21,0.73v4.47c0,0.31,0,0.52-0.21,0.73h-0.52
	c-0.21-0.21-0.21-0.42-0.21-0.63v-4.68c0-0.31,0-0.52,0.21-0.73V53.07z"/>
<path fill="#584F88" d="M29.38,53.07h0.51c0.21,0.21,0.21,0.41,0.21,0.62v4.72c0,0.21,0,0.41-0.21,0.62h-0.41
	c-0.21-0.21-0.21-0.41-0.21-0.62v-4.72c0-0.21,0-0.41,0.21-0.62H29.38z"/>
<path fill="#FDDCCA" d="M88.35,59.02v-5.95h0.62v0.51c0.01,1.82,0.01,3.62,0,5.44C88.97,59.02,88.35,59.02,88.35,59.02z"/>
<path fill="#CC4737" d="M46.42,52.97V59h-0.63c-0.21-0.21-0.1-0.42-0.1-0.63v-4.68l0.1-0.63h0.63V52.97z"/>
<path fill="#FEF9F6" d="M90.82,53.07h-0.31h2.05c0.31,0,0.41,0,0.41,0.51v4.92c0,0.41,0,0.51-0.41,0.51v-5.23
	c0-0.72,0-0.72-0.72-0.72h-1.02C90.82,53.06,90.82,53.07,90.82,53.07z"/>
<path fill="#904D62" d="M37.18,59.02v-1.44c0-0.21,0-0.41-0.21-0.51c0.31-0.1,0.51-0.31,0.41-0.72l0.1-0.41l0.41,0.21
	c0.31,0.51,0.62,0.82,1.13,1.03c-0.62,0.21-0.51,0.62-0.51,1.03l-0.1,0.82C38.41,59.02,37.18,59.02,37.18,59.02z"/>
<path fill="#6F6F60" d="M88.46,51.84l-0.1-1.03c-0.62,0.21,0,0.72-0.41,1.03v-0.1c-0.41-0.72-0.41-0.72,0.21-1.13l0.21-0.31v-0.62
	c0-0.31,0-0.51-0.31-0.51c-0.21,0-0.41-0.1-0.41-0.31c0-0.21,0.31-0.1,0.41-0.1c0.31,0,0.51-0.1,0.51-0.41c0-0.1,0-0.31,0.21-0.41
	l0.1,0.21c0,0.51,0,0.92,0.51,1.13c0.31,0.21,0.31,0.62,0,0.72c-0.72,0.41-0.72,1.03-0.82,1.64L88.46,51.84L88.46,51.84z"/>
<path fill="#FDE0D0" d="M88.97,59.02v-5.95h0.41v5.95h-0.51H88.97z"/>
<path fill="#414E99" d="M27.13,53.07h0.51l0.1,0.62v4.62l-0.1,0.72h-0.51c-0.21-0.21-0.1-0.41-0.1-0.62v-4.72
	C27.02,53.69,27.13,53.07,27.13,53.07z"/>
<path fill="#4B4F93" d="M28.05,53.07h0.41c0.21,0.21,0.21,0.41,0.21,0.62v4.72c0,0.21,0,0.41-0.21,0.62h-0.41
	c-0.21-0.21-0.21-0.41-0.21-0.62v-4.72C27.84,53.48,27.84,53.28,28.05,53.07z"/>
<path fill="#544F8C" d="M29.38,53.07v5.95h-0.51c-0.21-0.21-0.21-0.41-0.21-0.62v-4.72c0-0.21,0-0.41,0.21-0.62
	C28.87,53.07,29.38,53.07,29.38,53.07z"/>
<path fill="#5F4E82" d="M29.9,59.02v-5.95h0.51v5.95H29.9z"/>
<path fill="#FABFA1" d="M84.35,53.07v5.95h-0.51v-5.95H84.35z"/>
<path fill="#C14940" d="M44.87,53.07h0.42c0.21,0.21,0.21,0.42,0.21,0.73v4.48c0,0.32,0,0.52-0.21,0.73h-0.42
	c-0.21-0.21-0.21-0.42-0.21-0.63v-4.7c0-0.32,0-0.52,0.21-0.73V53.07z"/>
<path fill="#C6483C" d="M45.28,59.11v-6.04h0.52V59h-0.52V59.11z"/>
<path fill="#FBC8AE" d="M85.69,53.07v5.95h-0.51v-5.95l0.41-0.1L85.69,53.07z"/>
<path fill="#F58C64" d="M68.46,59.02c0-0.72,0-1.44,0.21-2.15l1.03,0.31c0.31,0,0.31,0.21,0.31,0.51v1.33H68.46z"/>
<path fill="#D74731" d="M46.9,59.21v-6.14h0.42c0.22,0.53,0,1.06,0,1.69v1.59c0,0.32,0.1,0.42,0.32,0.64c0.1,0,0.32,0,0.22,0.22
	c-0.22,0.22-0.22,0.53-0.22,0.74l-0.1,1.06H46.9C46.9,59.02,46.9,59.21,46.9,59.21z"/>
<path fill="#F0582D" d="M53.59,57.18c0.31,0,0.41,0.21,0.41,0.51v1.33h-1.13v-1.33c0-0.31,0-0.51-0.31-0.62
	c0.21-0.1,0.51,0,0.62-0.41c0-0.21,0.21-0.1,0.21,0C53.59,56.77,53.59,56.97,53.59,57.18z"/>
<path fill="#BD4A42" d="M44.87,53.07v5.95h-0.41v-5.95H44.87z"/>
<path fill="#464E96" d="M28.05,53.07v5.95h-0.41v-5.95H28.05z"/>
<path fill="#3A4F9E" d="M27.13,53.07v5.95h-0.41v-5.95H27.13z"/>
<path fill="#504E8F" d="M28.87,53.07v5.95h-0.41v-5.95H28.87z"/>
<path fill="#F16A3E" d="M58.2,59.02l-0.1-2.15c0.1-0.41,0.41-0.31,0.62-0.21c0.21,0,0.41,0.21,0.21,0.41c0.21,0.62,0,1.23,0.1,1.95
	C59.02,59.02,58.2,59.02,58.2,59.02z"/>
<path fill="#F69C77" d="M73.59,59.02v-1.85c1.13,0,1.13,0,1.13,1.03v0.82h-1.03H73.59z"/>
<path fill="#706F61" d="M96.15,49.48l-0.21-0.72c0.1-1.03,0.41-2.05,1.03-2.87c0-0.1,0.21-0.31,0.41-0.31
	c0.21,0.1,0.21,0.31,0.31,0.51c0,0.1,0,0.31-0.21,0.21c-0.21,0-0.31,0.1-0.31,0.31c-0.51,0.72-0.82,1.64-1.03,2.56v0.21L96.15,49.48
	z"/>
<path fill="#954C5D" d="M38.41,59.02v-1.33c0-0.31,0-0.51,0.41-0.51h0.21c0.21-0.1,0.21,0,0.21,0c0.21,0.62,0,1.23,0,1.85
	C39.23,59.02,38.41,59.02,38.41,59.02z"/>
<path fill="#E0462B" d="M47.54,59.02v-1.44c0-0.31,0-0.41,0.31-0.41h0.62c0.21,0.62,0.21,1.23,0,1.85h-1.03H47.54z"/>
<path fill="#FCE8E9" d="M49.38,49.38c-0.41-0.31-0.51-0.82-0.82-1.23v-0.31c0.62-0.51,0.72-1.13,0.72-1.85v-1.23
	c0-0.31,0.1-0.41,0.41-0.41s0.72-0.1,1.03,0.1c-1.33-0.1-1.33-0.1-1.33,1.13C49.38,45.59,49.38,49.38,49.38,49.38z"/>
<path fill="#B04B4A" d="M43.86,56.87v2.15H43c-0.33-0.53-0.1-1.08,0-1.72c0.1-0.33,0.43-0.33,0.76-0.43H43.86z"/>
<path fill="#727163" d="M94.71,48.15c-0.1,1.03-0.62,1.74-1.13,2.46l-0.41,0.21c-0.82,0-1.44-0.21-2.05-0.72
	c0.51,0,0.92,0.31,1.44,0.41c0.41,0,0.72,0,1.03-0.51c0.41-0.62,0.82-1.23,1.03-2.05C94.82,47.95,94.71,48.05,94.71,48.15z"/>
<path fill="#E84526" d="M48.46,59.02v-1.85l0.62-0.51v2.36C49.08,59.02,48.46,59.02,48.46,59.02z"/>
<path fill="#717062" d="M92.46,43.95l-0.82-0.41l-1.03-0.51c-0.41,0-0.62,0-0.72-0.41c0.51,0,1.03,0,1.44,0.41l0.31,0.1
	C92.35,43.13,92.46,43.23,92.46,43.95z"/>
<path fill="#717061" d="M94.61,52.46c-0.1-0.41,0-0.82,0.31-1.03l0.31-0.62V50c0-0.1,0.1-0.21,0.31-0.21c0.1,0,0.31,0,0.31,0.21
	c0.1,0.1-0.1,0.1-0.21,0.21l-0.1,0.31c0,0.72-0.51,1.33-1.03,1.85L94.61,52.46z"/>
<path fill="#AA4A4D" d="M43.02,57.18v1.85h-0.51v-1.95C42.51,57.07,43.02,57.18,43.02,57.18z"/>
<path fill="#787769" d="M92.56,48.46h0.62c0.41,0,0.62-0.21,0.51-0.62v-0.82c0-0.51,0.21-0.72,0.82-0.82l-0.31,0.31l-0.1,0.21
	l-0.21,1.54c0,0,0,0.21-0.21,0.31C93.69,48.56,92.56,48.46,92.56,48.46z"/>
<path fill="#737264" d="M92.25,42.31c0.31,0.31,0.62,0.51,1.03,0.62s0.41,0.41,0.21,0.92c-0.21-0.82-1.13-0.62-1.33-1.54
	C92.16,42.31,92.25,42.31,92.25,42.31z"/>
<path fill="#FCD9C5" d="M85.59,53.07h-6.26H85.59z"/>
<path fill="#808073" d="M92.56,45.9c-0.51,0.1-0.92,0.21-1.33,0.51c0,0-0.31,0.21-0.31,0s0-0.51,0.21-0.51
	C91.12,45.9,92.56,45.9,92.56,45.9z"/>
<path fill="#FEEFE6" d="M85.59,53.07h4.92h-4.82H85.59z"/>
<path fill="#78786A" d="M89.28,48.15c-0.21-0.41-0.31-1.03-0.31-1.44c0.31,0.1,0.51,0.31,0.41,0.72v0.72
	C89.38,48.15,89.28,48.15,89.28,48.15z"/>
<path fill="#777769" d="M92.56,46.41c-0.21,0.41-0.31,0.82-0.72,0.31h-0.1c-0.1,0-0.31,0.31-0.31,0s0.21-0.21,0.41-0.21h0.72
	C92.56,46.51,92.56,46.41,92.56,46.41z"/>
<path fill="#FAC2A7" d="M67.43,53.07h-2.67c-0.41,0.21-0.72,0.21-1.03,0.1v-0.1H67.43z"/>
<path fill="#949388" d="M92.46,49.28l-0.31-0.1c0.62,0,1.03-0.51,1.64,0C93.28,49.48,92.87,49.38,92.46,49.28z"/>
<path fill="#787769" d="M96.35,51.23l-0.41,0.62h-0.31c-0.1,0-0.21-0.21,0-0.31C95.74,51.43,95.94,51.13,96.35,51.23z"/>
<path fill="#FCD0B8" d="M73.59,53.07h-0.41h3.18h-1.74C74.29,53.26,73.9,53.26,73.59,53.07z"/>
<path fill="#FBC8AE" d="M67.43,53.07h3.08h-1.03c-0.32,0.18-0.71,0.18-1.03,0h-0.82H67.43z"/>
<path fill="#FABA9B" d="M61.28,53.07H58.2h2.87H61.28z"/>
<path fill="#FCD5BF" d="M76.36,53.07h2.97H76.36z"/>
<path fill="#FBCCB3" d="M70.51,53.07h2.67H70.51z"/>
<path fill="#FBFBFB" d="M92.46,49.28h1.33l-0.31,0.1c-0.31,0.41-0.62,0.21-1.03,0L92.46,49.28L92.46,49.28z"/>
<path fill="#727263" d="M88.66,47.33c-0.21,0.51-0.31,0.72-0.72,0.92C87.94,47.74,88.25,47.54,88.66,47.33z"/>
<path fill="#F9B696" d="M58.2,53.07h-2.46c0,0-0.1,0,0,0H58.2z"/>
<path fill="#FABFA1" d="M61.28,53.07h2.36c-0.1,0.21-0.31,0.21-0.41,0h-2.05H61.28z"/>
<path fill="#777668" d="M92.56,49.38c0.31,0,0.62,0.21,0.92,0c0,0.31-0.21,0.41-0.41,0.41C92.76,49.79,92.66,49.59,92.56,49.38z"/>
<path fill="#F9B391" d="M55.64,53.07H53.9c-0.21,0.21-0.31,0.21-0.51,0.1v-0.1h2.36H55.64z"/>
<path fill="#7C7B6D" d="M94.1,46.72l0.1-0.21c0.21,0,0.41,0,0.41,0.21l-0.1,0.21C94.2,47.02,94.2,46.82,94.1,46.72z"/>
<path fill="#79786A" d="M94.1,43.33c0.31,0.1,0.62,0.21,0.62,0.51l-0.1,0.1C94.3,43.95,94.3,43.64,94.1,43.33z"/>
<path fill="#F8AF8D" d="M53.38,53.07c-0.21,0.21-0.51,0.21-0.72,0h-0.92h-0.1H53.38z"/>
<path fill="#747364" d="M92.56,48.46h1.03C93.28,48.56,92.87,48.77,92.56,48.46z"/>
<path fill="#7A796B" d="M96.46,50.51c-0.21,0.1-0.21,0.41-0.41,0.41l-0.21-0.1c0.1-0.31,0.31-0.31,0.51-0.31H96.46z"/>
<path fill="#C5BBB6" d="M94.61,45.38l0.21-0.21v0.21l-0.1,0.21l-0.1-0.31v0.1C94.62,45.38,94.61,45.38,94.61,45.38z"/>
<path fill="#CFCECA" d="M94.92,47.43l-0.1,0.1l-0.1-0.1v-0.21C94.92,47.23,94.92,47.33,94.92,47.43z"/>
<path fill="#949388" d="M94.71,48.15v-0.21l0,0c0.21,0,0,0.21,0,0.31V48.15z"/>
<path fill="#919185" d="M89.28,48.15h0.1l0,0H89.28z"/>
<path fill="#FBFCFD" d="M10.41,56.05v-0.72c0-0.31,0-0.41,0.31-0.41c0.41,0,0.31,0.21,0.31,0.41v0.62c0,0.31,0,0.72,0.51,0.62
	c0.21,0,0.21,0.21,0.21,0.31c0,0.21,0,0.31-0.21,0.31C10.41,57.18,10.41,57.18,10.41,56.05z"/>
<path fill="#FCFCFD" d="M24.05,54.92h0.92c0.21,0,0.21,0,0.21,0.31c0,0.21,0,0.21-0.21,0.21s-0.51-0.1-0.51,0.21
	c0,0.21,0.31,0.1,0.41,0.1c0.31,0,0.31,0.1,0.31,0.31c0,0.31-0.21,0.21-0.41,0.21l-0.31,0.1c0,0.31,0.21,0.21,0.31,0.21
	c0.21,0,0.51,0,0.41,0.31c0,0.41-0.21,0.21-0.41,0.21h-1.03v-1.95c0.1-0.21,0-0.31,0.31-0.31L24.05,54.92z"/>
<path fill="#FBFBFC" d="M19.23,57.07v-1.64c0-0.41,0-0.62,0.51-0.51h0.31c0.21,0,0.41-0.1,0.51,0.21c0,0.31-0.21,0.31-0.41,0.31
	c-0.1,0-0.31,0-0.31,0.21s0.1,0.1,0.31,0.1c0.1,0,0.31,0,0.31,0.21c0,0.41-0.21,0.31-0.41,0.31h-0.21v0.82c-0.31,0-0.51,0.21-0.72,0
	h0.11C19.23,57.09,19.23,57.07,19.23,57.07z"/>
<path fill="#FBFBFC" d="M15.74,56.05v0.72c0,0.21,0,0.41-0.31,0.41s-0.41-0.1-0.41-0.41v-1.54c0-0.31,0.1-0.31,0.41-0.31
	c0.21,0,0.31,0,0.31,0.31V56.05z"/>
<path fill="#344E9D" d="M19.23,57.07h0.62c-0.31,0.21-0.51,0.21-0.72,0H19.23z"/>
<path fill="#FEFDFD" d="M69.18,56.36c-0.21-0.21-0.21-0.51,0-0.72c0.2-0.31,0.51-0.21,0.82,0c0.1-0.72,0.1-0.72-0.62-0.72h-0.31
	c-0.3,0-0.51,0.1-0.51,0.41c-0.31,0.51-0.21,1.03,0.1,1.54c0.31,0.31,0.62,0.31,1.03,0.31C70.2,57.07,70,56.77,70,56.36
	C69.69,56.57,69.39,56.77,69.18,56.36z"/>
<path fill="#F58B63" d="M69.07,54.92c-0.21,0-0.31,0.21-0.51,0.41c-0.21-0.51,0-1.03-0.1-1.64v-0.62h1.03v1.23
	C69.48,54.72,69.48,54.82,69.07,54.92z"/>
<path fill="#FEFDFD" d="M58.92,57.18c-0.1-0.51-0.31-0.51-0.82-0.31v0.1c-0.41,0.31-0.62,0.21-0.72,0L58,55.23
	c0-0.21,0.1-0.41,0.41-0.31c0.41,0,0.51,0.1,0.62,0.51l0.41,1.23c0.21,0.31,0.1,0.51-0.31,0.41h-0.21V57.18z M64.36,57.18
	l-0.82-1.33v1.03c0,0.21,0,0.31-0.31,0.21c-0.31,0-0.31,0-0.31-0.31v-1.85h0.31c0.21-0.21,0.41,0,0.51,0.1l0.41,0.62
	c0.1-0.82,0.1-0.82,0.62-0.72c0.21,0,0.21,0,0.21,0.31v1.23c0,0.72,0,0.72-0.62,0.62V57.18z"/>
<path fill="#F37B50" d="M64.77,54.92c-0.31,0-0.41,0-0.41,0.31v0.72l-0.62-0.72c-0.21-0.21-0.31-0.31-0.51-0.31v-1.85h1.44v1.74
	L64.77,54.92z"/>
<path fill="#FEFDFD" d="M73.28,57.18v-2.05c0-0.21,0-0.31,0.31-0.31c0.32-0.18,0.71-0.18,1.03,0c0,0.31,0,0.51-0.31,0.51
	c-0.21,0-0.31,0-0.31,0.21l0.31,0.1c0.1,0,0.31,0,0.31,0.31s-0.21,0.21-0.31,0.21c-0.21,0-0.31,0-0.31,0.21s0.1,0.1,0.31,0.1
	c0.1,0,0.31,0,0.31,0.31s-0.21,0.21-0.31,0.21h-1.03V57.18z"/>
<path fill="#F69B76" d="M74.61,54.92h-1.03v-1.85h1.03v1.74V54.92z"/>
<path fill="#F16A3E" d="M57.38,56.97c0.21,0.31,0.41,0.21,0.72,0c-0.1,0.41-0.41,0.21-0.62,0.21s-0.21-0.1,0-0.31L57.38,56.97z"/>
<path fill="#FEFEFE" d="M39.02,57.18c-0.41,0-0.72-0.1-1.03-0.51c0-0.21-0.21-0.41-0.51-0.62v0.51c0.1,0.51,0,0.62-0.51,0.62v-2.05
	v-0.31c0.31-0.21,0.62-0.1,0.82,0.1l0.62,0.82v-0.62c0-0.41,0-0.41,0.51-0.31c0.21,0.21,0.1,0.41,0.1,0.62
	C39.02,55.43,39.02,57.18,39.02,57.18z"/>
<path fill="#924C5F" d="M38.92,54.92c-0.41,0-0.51,0.1-0.51,0.51v0.72l-0.72-1.03v-1.64l0.1-0.41h1.13V54.92z"/>
<path fill="#8C4D63" d="M37.79,53.07v2.05c-0.21-0.31-0.51-0.21-0.72-0.21v-1.85L37.79,53.07L37.79,53.07z"/>
<path fill="#FEFDFD" d="M49.07,56.66c0,0.31-0.31,0.41-0.62,0.51h-0.62c-0.51-0.1-0.72-0.51-0.62-1.03v-1.23
	c0.62-0.21,0.72,0,0.82,0.41v1.03c0.21,0.21,0.21,0,0.31-0.1v-0.82c0-0.21,0-0.41,0.21-0.62l0.51,0.1
	C49.07,54.92,49.07,56.66,49.07,56.66z"/>
<path fill="#E84525" d="M49.09,54.92h-0.55h-0.22c0-0.66-0.22-1.31,0.11-1.86h0.77v1.86H49.09z"/>
<path fill="#FAF9FA" d="M32.77,57.07v-1.64c0-0.41,0-0.62,0.41-0.51c0.31,0,0.21,0.21,0.21,0.31v1.33
	C33.38,57.18,33.38,57.18,32.77,57.07z"/>
<path fill="#FEFDFC" d="M53.59,57.18l-0.41-0.72c0,0.62-0.21,0.72-0.62,0.62v-1.74v-0.41c0.51-0.21,0.82-0.21,1.23,0
	c0.51,0.41,0.51,0.82,0.1,1.23v0.31l0.41,0.62h-0.72v0.09C53.58,57.18,53.59,57.18,53.59,57.18z"/>
<path fill="#F0582C" d="M53.79,54.92h-1.13v-1.85h1.23v1.33l-0.1,0.41V54.92z"/>
<path fill="#DC472D" d="M47.95,56.56c-0.21-0.31-0.1-0.72,0-1.03c0-0.51-0.21-0.72-0.62-0.62v-1.85h0.72c0.21,0,0.21,0.31,0.21,0.51
	v2.36c0,0.1,0,0.41-0.31,0.51V56.56z"/>
<path fill="#E3482C" d="M47.94,56.56c0.22-0.1,0.1-0.32,0.1-0.53v-2.97h0.42v3.19C48.47,56.66,48.25,56.77,47.94,56.56z"/>
<path fill="#AF4C4C" d="M43.02,54.82v-1.74h0.72v2.05c-0.31,0-0.51,0-0.72-0.21V54.82z"/>
<path fill="#FDFCFC" d="M43.02,54.82l0.72,0.21c0,0.21,0,0.51-0.41,0.41h-0.31c0,0.21,0.1,0.21,0.21,0.31
	c0.72,0.31,0.82,0.41,0.51,1.13c-0.21,0.21-0.41,0.31-0.72,0.31h-0.41c-0.31-0.21-0.41-0.31-0.21-0.62c0-0.21,0.1-0.31,0.31,0h0.51
	c0-0.21-0.1-0.21-0.21-0.21c-0.31-0.1-0.62-0.21-0.62-0.62C42.31,55.23,42.41,55.02,43.02,54.82z"/>
<path fill="#F1F1F0" d="M88.87,50.1v-0.72c0.51,0.31,0.41,0.51,0,0.82V50.1z"/>
<path fill="#F2744A" d="M58.51,55.54c0,0.31,0.31,0.51,0,0.72H58.3C58.3,56.05,58.3,55.84,58.51,55.54z"/>
<path fill="#F2724E" d="M53.28,55.95l-0.1-0.31l0.1-0.21c0.21,0,0.31,0,0.31,0.21C53.59,55.84,53.48,55.95,53.28,55.95z"/>
</svg>
