<?xml version="1.0" encoding="UTF-8"?><svg xmlns:inkscape="http://www.inkscape.org/namespaces/inkscape" xmlns:sodipodi="http://sodipodi.sourceforge.net/DTD/sodipodi-0.dtd" xmlns="http://www.w3.org/2000/svg" xmlns:svg="http://www.w3.org/2000/svg" width="250" height="250" viewBox="0 0 250 250" fill="none" version="1.2" baseProfile="tiny-ps"><title>Binarly Inc.</title><g id="g39" transform="matrix(0.76251666,0,0,0.76255655,29.799588,28.361231)"><g id="g38"><path d="M 37.7329,92.5417 H 87.2648" stroke="#000000" id="path1"></path><path d="m 154.73,92.9702 h 46.543" stroke="#000000" id="path2"></path><path d="M 36.4512,100.228 H 80.8591" stroke="#000000" id="path3"></path><path d="m 157.292,100.228 h 50.386" stroke="#000000" id="path4"></path><path d="M 34.3169,107.914 H 80.8598" stroke="#000000" id="path5"></path><path d="m 157.719,107.488 h 55.51" stroke="#000000" id="path6"></path><path d="M 19.3711,114.748 H 80.859" stroke="#000000" id="path7"></path><path d="m 156.865,114.748 h 63.196" stroke="#000000" id="path8"></path><path d="M 11.6851,122.86 H 80.4319" stroke="#000000" id="path9"></path><path d="m 154.73,122.432 h 80.703" stroke="#000000" id="path10"></path><path d="M 6.13477,130.546 H 80.4326" stroke="#000000" id="path11"></path><path d="m 159,130.546 h 83.265" stroke="#000000" id="path12"></path><path d="M 3.14551,137.804 H 80.8593" stroke="#000000" id="path13"></path><path d="m 161.989,138.232 h 84.119" stroke="#000000" id="path14"></path><path d="M 0.583496,145.49 H 80.4323" stroke="#000000" id="path15"></path><path d="m 163.27,145.49 h 85.827" stroke="#000000" id="path16"></path><path d="M 1.01123,152.75 H 80.8601" stroke="#000000" id="path17"></path><path d="m 163.697,152.75 h 86.254" stroke="#000000" id="path18"></path><path d="M 1.86523,160.862 H 80.4331" stroke="#000000" id="path19"></path><path d="m 162.416,160.436 h 87.962" stroke="#000000" id="path20"></path><path d="M 1.86523,167.694 H 84.2761" stroke="#000000" id="path21"></path><path d="m 159,168.122 h 89.243" stroke="#000000" id="path22"></path><path d="M 4.85449,175.38 H 91.5353" stroke="#000000" id="path23"></path><path d="m 149.179,175.38 h 96.075" stroke="#000000" id="path24"></path><path d="M 40.2944,85.2841 H 86.4103" stroke="#000000" id="path25"></path><path d="m 147.471,85.2841 h 42.7" stroke="#000000" id="path26"></path><path d="M 43.7109,78.4523 H 158.574" stroke="#000000" id="path27"></path><path d="M 47.5537,71.1921 H 153.449" stroke="#000000" id="path28"></path><path d="M 53.5317,63.0801 H 147.899" stroke="#000000" id="path29"></path><path d="M 60.7905,56.2484 H 141.066" stroke="#000000" id="path30"></path><path d="M 71.8926,48.5623 H 130.391" stroke="#000000" id="path31"></path><path d="M 10.8315,183.066 H 239.276" stroke="#000000" id="path32"></path><path d="M 21.5063,190.326 H 229.028" stroke="#000000" id="path33"></path><path d="M 87.4604,168.766 V 150.429" stroke="#000000" stroke-width="2" id="path34"></path><path d="m 160.412,161.115 -3.871,-1.401 -0.01,0.038 -0.01,0.038 z m -2.778,6.147 -3.151,-2.985 -0.033,0.049 z m -4.989,4.761 1.859,4.218 0.047,-0.029 z m -63.1639,-0.361 -2.9456,3.259 0.0795,0.099 0.0842,0.093 z m 0,-81.9022 -2.8649,-3.3567 -0.0409,0.0479 -0.0398,0.0493 z m 60.1289,2.049 -2.548,3.6916 0.037,0.0346 0.037,0.0336 z m 4.063,5.8459 -3.599,2.1792 0.024,0.0548 z m 0.463,20.7923 3.89,1.327 0.004,-0.016 z m -3.806,9.04 -3.291,-2.77 -11.147,3.33 12.319,3.486 z m 4.218,3.917 -2.866,3.357 0.038,0.043 z m 2.686,23.504 c 0,1.37 -0.207,2.962 -0.693,4.806 l 7.741,2.803 c 0.68,-2.576 1.055,-5.121 1.055,-7.609 z m -0.713,4.882 c -0.39,1.571 -1.054,3.061 -2.038,4.487 l 6.301,5.97 c 1.623,-2.351 2.811,-4.958 3.518,-7.806 z m -2.071,4.536 c -0.877,1.306 -2.082,2.49 -3.712,3.509 l 3.813,8.377 c 2.485,-1.553 4.606,-3.542 6.267,-6.013 z m -3.665,3.48 c -1.341,0.812 -3.185,1.339 -5.701,1.339 v 9.494 c 3.449,0 6.646,-0.719 9.42,-2.398 z m -5.701,1.339 H 94.3161 v 9.494 h 50.7679 z m -50.7679,0 c -0.4668,0 -0.8242,-0.095 -1.1164,-0.238 l -3.1166,8.764 c 1.3537,0.661 2.7795,0.968 4.233,0.968 z m -1.1164,-0.238 c -0.3934,-0.192 -0.6936,-0.427 -0.9367,-0.696 l -5.5638,6.902 c 0.9913,1.097 2.1313,1.947 3.3839,2.558 z m -0.7731,-0.505 c -0.2296,-0.285 -0.4305,-0.636 -0.5944,-1.097 l -7.4798,3.652 c 0.5219,1.467 1.2469,2.803 2.1831,3.964 z m -0.5944,-1.097 c -0.1217,-0.343 -0.2027,-0.761 -0.2027,-1.308 h -8.1031 c 0,1.703 0.2619,3.374 0.826,4.96 z M 91.6295,95.3646 c 0,-0.4826 0.0735,-0.8843 0.2027,-1.2478 l -7.4798,-3.6516 c -0.5566,1.5651 -0.826,3.2125 -0.826,4.8994 z m 0.2027,-1.2478 c 0.1639,-0.4609 0.3648,-0.8126 0.5944,-1.0975 l -5.8911,-6.519 c -0.9362,1.1615 -1.6612,2.4972 -2.1831,3.9649 z m 0.5138,-1.0003 c 0.2349,-0.2752 0.5085,-0.4937 0.8537,-0.6622 l -3.1166,-8.7639 c -1.3008,0.635 -2.4674,1.5415 -3.4669,2.7127 z m 0.8537,-0.6622 c 0.2922,-0.1426 0.6496,-0.2375 1.1164,-0.2375 v -9.4943 c -1.4535,0 -2.8793,0.307 -4.233,0.9679 z m 1.1164,-0.2375 H 139.065 V 82.7225 H 94.3161 Z m 44.7489,0 c 1.169,0 2.529,0.2431 4.102,0.8128 l 2.393,-9.0708 c -2.199,-0.7963 -4.372,-1.2363 -6.495,-1.2363 z m 4.102,0.8128 c 1.37,0.4961 2.664,1.3042 3.895,2.4708 l 5.095,-7.3831 c -1.991,-1.8868 -4.195,-3.2885 -6.597,-4.1585 z m 3.969,2.539 c 1.126,1.0163 2.115,2.4007 2.938,4.2653 l 7.199,-4.3582 c -1.304,-2.9567 -3.023,-5.4697 -5.189,-7.4266 z m 2.962,4.3201 c 0.709,1.5573 1.17,3.6973 1.17,6.6253 h 8.103 c 0,-4.063 -0.637,-7.8295 -2.123,-11.0932 z m 1.17,6.6253 v 2.953 h 8.103 v -2.953 z m 0,2.953 c 0,2.248 -0.321,4.795 -1.025,7.668 l 7.787,2.623 c 0.873,-3.556 1.341,-6.995 1.341,-10.291 z m -1.022,7.653 c -0.652,2.625 -1.709,5.155 -3.207,7.597 l 6.582,5.539 c 2,-3.263 3.48,-6.76 4.405,-10.482 z m -2.035,14.413 c 1.227,0.882 2.384,1.954 3.471,3.228 l 5.731,-6.714 c -1.519,-1.779 -3.174,-3.319 -4.964,-4.606 z m 3.509,3.271 c 1.058,1.207 2,2.627 2.82,4.285 l 7.01,-4.763 c -1.168,-2.36 -2.557,-4.476 -4.175,-6.322 z m 2.82,4.285 c 0.796,1.607 1.457,3.484 1.96,5.665 l 7.823,-2.473 c -0.664,-2.881 -1.579,-5.545 -2.773,-7.955 z m 1.96,5.665 c 0.476,2.068 0.734,4.438 0.734,7.141 h 8.103 c 0,-3.405 -0.324,-6.62 -1.014,-9.614 z m 0.734,7.141 v 3.013 h 8.103 v -3.013 z" fill="#000000" id="path35"></path><path d="m 62.9249,115.164 c 0,3.895 3.1576,7.053 7.0527,7.053 3.8951,0 7.0527,-3.158 7.0527,-7.053 0,-3.895 -3.1576,-7.053 -7.0527,-7.053 -3.8951,0 -7.0527,3.158 -7.0527,7.053 z" fill="#ffffff" stroke="#000000" stroke-width="3" id="path36"></path><path d="m 80.7057,149.019 c 0,3.895 3.1576,7.053 7.0527,7.053 3.895,0 7.0526,-3.158 7.0526,-7.053 0,-3.895 -3.1576,-7.053 -7.0526,-7.053 -3.8951,0 -7.0527,3.158 -7.0527,7.053 z" fill="#ffffff" stroke="#000000" stroke-width="3" id="path37"></path><path d="m 75.7295,115 h 16.2609 v 12.859 h 55.0106" stroke="#000000" stroke-width="2" id="path38"></path></g></g><defs id="defs39"><linearGradient id="paint0_linear_1353_2" x1="125.268" y1="46" x2="125.268" y2="193.742" gradientUnits="userSpaceOnUse"></linearGradient></defs></svg>