<svg version="1.2" baseProfile="tiny-ps" xmlns="http://www.w3.org/2000/svg" width="287.348" height="236.183" viewBox="0 0 287.348 236.183">
<title>Walker Morris LLP</title>
  <g>
    <rect width="287.348" height="236.183" rx="13.495" fill="#334343"/>
    <path d="M265.931,179.174H214.036v-3.865c4.138-.146,7.1-.517,8.841-1.145q4.716-1.753,4.724-6.434a14.357,14.357,0,0,0-.581-4.069c-.389-1.3-.953-3.01-1.7-5.079l-27.136-70.31-34.348,90.39h-7.218L121.726,87.976,88.481,178.627H80.455L53.226,104.633Q42.067,73.754,37.69,66.724q-4.419-7.062-13.774-7.582V55.277H75.823v3.865s-7.1.532-8.881,1.148c-3.127,1.175-4.7,3.322-4.7,6.434a14.65,14.65,0,0,0,.57,4.069c.372,1.3.953,3.01,1.709,5.094l26.554,69.938,34.163-90.057h7.311l34.686,90.58L200.7,55.711h7.323l28.6,74.107q11.124,30.9,15.518,37.935c2.965,4.69,7.532,7.224,13.786,7.556Z" fill="#fff"/>
  </g>
</svg>
