<?xml version="1.0" encoding="UTF-8"?>
<svg id="Layer_4" xmlns="http://www.w3.org/2000/svg" width="215" height="215" baseProfile="tiny-ps" version="1.2" viewBox="0 0 215 215">
  <!-- Generator: Adobe Illustrator 29.1.0, SVG Export Plug-In . SVG Version: 2.1.0 Build 142)  -->
  <title>iCruise.com</title>
  <path d="M30.4,92.9c-2,.3-2.2.6-2.3,1.1-.1.4-.2,1.5-.2,4.4v4.6c0,2.2,0,4.2.2,5.1,0,.5.2.7.6.8.2,0,.8.2,1.2.3.1,0,.2,0,.2.2,0,.1,0,.5-.1.5-1.9,0-3-.1-3.9,0-1.6,0-2.8.1-3,.1-.2,0-.4,0-.4-.2,0-.2,0-.4,0-.5,1.3-.2,2-.4,2.1-1.1,0-.4.2-1.4.2-4.9v-5.6c0-3.7,0-4.1-.9-4.4-.3-.1-.7-.2-1.1-.2-.2,0-.2,0-.2-.2s0-.2,0-.3c0-.1.1-.1.2-.2.2,0,.4,0,.8,0s1.2,0,2.9,0c1.3,0,2.8,0,3.1,0s.3,0,.3.1l.2.5Z"/>
  <path d="M34.1,95c1.4-1.6,3.5-2.3,5.2-2.7,1.2-.3,2.8-.4,3.6-.4,1.3,0,2.7.2,3.4.5.3.1.7,0,1.1-.3,0,0,.2,0,.4,0,.2,0,.2.1.1.2-.5,1.4-.5,2.8-.4,4.3,0,0,0,.1-.3.1-.3,0-.4,0-.4-.2-.1-.4-.3-1.1-.6-1.6-.2-.5-.4-.8-.9-1.2-.7-.6-1.9-1-3.4-1s-3.4.8-4.7,2.4c-1.3,1.6-1.8,3.9-1.8,6.2s1.7,8,6.9,8,3.2-1,4-1.8c.7-.7,1-1.4,1.2-1.9,0,0,.1-.1.3,0,.2.2.2.3.2.4-.3,1.5-.9,2.9-1.3,3.5-.2.2-.3.2-.5.2-.8,0-2.3.4-4.2.4-7.3,0-10.2-4.8-10.2-9s.5-4.3,2.2-6.3Z"/>
  <path d="M50,92.6c0-.1,0-.2.2-.2,1.2,0,2.5,0,3.7-.1,1.5-.1,2.2-.1,2.9-.1,1.7,0,3.3.2,4.9,1.3,1.1.8,1.9,2.2,1.9,3.4,0,2.3-1.8,3.3-2.8,4-.1,0-.2.3-.2.5.2.7.9,2.3,2,4,1.2,1.9,2.7,3.5,4.4,4.2.3.1.3.3.3.5,0,.2-.2.2-.5.2-2.2-.1-4-.8-5.7-2.3-1.2-1.2-2-2.6-2.9-4.4-.5-1-.8-1.5-2.1-1.5s-.8,0-1.1,0c-.1,0-.3.2-.3.5,0,2.3,0,3.9.1,5.1,0,.5.1.7.3.8.2.2,1.2.4,1.9.7,0,.1,0,.4-.1.5,0,0-.1,0-.3,0-.3,0-2.3,0-3.7,0s-1.7.1-2.3.1-.5,0-.5,0c0-.1-.2-.4-.1-.5.6-.2,1.3-.4,1.5-.7.3-.4.4-2.2.4-5.4v-3.3c0-2.1,0-4.3,0-5.3,0-.9-.1-1-1.8-1.4v-.5ZM56.8,92.9c-.6,0-1,.1-1.4.3-.2.1-.4.3-.4.5-.1.8-.1,2.2-.2,4.7,0,2.6,0,2.7.2,2.8.2,0,.6,0,1,0,1.6,0,2.7-.3,3.4-1.2.6-.7.9-1.7.9-3.1,0-2.3-1.5-4.1-3.5-4.1Z"/>
  <path d="M85.1,92.9c-.3.1-.6.2-1,.3-.2,0-.4.3-.5.7,0,.5-.2,2.2-.4,7.1,0,2.9-.4,4.7-1.6,6.3-1.4,1.8-3.7,2.9-6.1,2.9s-4.3-.9-5.2-1.8c-1.6-1.5-2-3.4-2-5.2,0-1.3,0-3.1,0-5.5.1-3.6.1-4-.2-4.3-.2-.2-.7-.4-1.5-.6v-.4c0-.2.2-.2.5-.2.6,0,2.3.1,2.8.1,1.2,0,2.3-.2,3.5-.2s.2,0,.2.1c0,.1,0,.4,0,.5-1.4.3-2,.5-2.1,1.3,0,.5-.2,1.3-.2,2.6,0,1.5-.1,4.2-.1,6.4s.6,3.4,1.8,4.4c.9.8,2.3,1.1,3.7,1.1,2.3,0,3.4-1,3.9-1.7,1-1.3,1.3-3.2,1.3-5.9,0-3.2,0-5.6-.1-6.7-.1-1-.6-1.2-2.5-1.3-.1,0-.2-.1-.2-.3,0,0,.2-.2.2-.3,0,0,.2-.1.4-.1.4,0,1.7,0,2.3,0s2.2,0,2.8-.1c.1,0,.2,0,0,.2l-.2.4Z"/>
  <path d="M94.5,92.9c-2,.3-2.2.6-2.3,1.1-.1.4-.2,1.5-.2,4.4v4.6c0,2.2,0,4.2.2,5.1,0,.5.2.7.6.8.2,0,.8.2,1.2.3.1,0,.2,0,.2.2,0,.1,0,.5-.1.5-1.9,0-3-.1-3.9,0-1.6,0-2.8.1-3,.1-.2,0-.4,0-.4-.2,0-.2,0-.4,0-.5,1.3-.2,2-.4,2.1-1.1,0-.4.2-1.4.2-4.9v-5.6c0-3.7,0-4.1-.9-4.4-.3-.1-.7-.2-1.1-.2-.2,0-.2,0-.2-.2s0-.2,0-.3c0-.1.1-.1.2-.2.2,0,.4,0,.8,0s1.2,0,2.9,0c1.3,0,2.8,0,3.1,0s.3,0,.3.1l.2.5Z"/>
  <path d="M96.8,110.3c0,0-.1-.4-.2-1,0-1.4-.2-2.6-.4-4.1,0-.2,0-.2,0-.3.1,0,.3,0,.4,0s.2,0,.3.3c.1.4.4,1.1.8,1.8,1,1.4,2.7,2.6,4.5,2.6s3.5-1.4,3.5-3.6-.5-1.7-1.3-2.3c-.5-.3-1.1-.7-2.6-1.4-1.9-.9-3.2-1.6-4.1-2.7-.5-.6-1-1.6-1-2.9,0-1.9,1.1-3.1,2.3-3.8.7-.4,2.3-.9,3.9-.9s2,.1,2.5.2c.4,0,.7.1.9.1s.5-.2.7-.6c.2,0,.5,0,.6,0,0,1.4,0,2.8.2,4.3,0,.2,0,.3,0,.4-.2.1-.3.2-.4.2,0,0-.1,0-.2-.1-.3-1.1-.8-2-1.6-2.6-.7-.7-1.9-1.1-3.2-1.1s-2.9,1.4-2.9,2.9.2,1.5.7,2c.6.6,1.4,1.1,2.9,1.7,1.9.8,3.2,1.4,4.1,2.3,1,1,1.4,2,1.4,3.4s-1,3.4-2.5,4.2c-1.3.7-3.6,1-4.5,1s-2.2-.2-3.3-.4c-.2,0-.4,0-.5,0-.1,0-.3.2-.4.4-.2.1-.3.2-.4.2s-.2,0-.3-.1Z"/>
  <path d="M116.9,100.5c1.1,0,2,0,2.8,0,1.6,0,1.9-.3,2.4-1.7,0-.1.5-.2.7-.1,0,.7-.2,1.9-.2,2.8,0,1,0,1.5.2,2.3,0,0-.2,0-.4,0-.1,0-.2,0-.3-.2,0-.2-.3-.8-.5-1.1-.2-.5-.6-.9-1.7-.9-.7,0-1.4,0-2.7,0s-1.1,0-1.3,0c-.1,0-.2.1-.3.2,0,.2-.2,1.6-.2,3.8s0,2.3.2,2.7c.3.6,1.3.7,2.9.7,3.4,0,4.6-.4,5.7-3.5.1,0,.4,0,.5,0q0,0,0,.2c0,1.6-.5,3.2-.8,4-.1.2-.2.2-.3.2s-.4,0-1.3,0c-.8,0-2.6,0-4.7,0s-4.9.1-7,.2c0,0,0-.4,0-.5,0-.1,0-.1.1-.2,1.2-.3,1.5-.5,1.5-1,0-.3.2-2.2.2-4.9v-5.7c0-2.8,0-3.7-.2-3.9,0-.2,0-.4-.3-.5-.3-.1-.7-.2-1.4-.4,0,0,0,0,0-.2v-.3c0,0,0-.1.2-.1h.8c.8,0,2,0,3.9,0h2.1c2.1,0,3.8-.2,5.3-.2s.6,0,.7.1c0,.1.2.2.1.6-.3,1.6-.3,2.7-.3,3.4-.5,0-.6,0-.7-.2-.6-2.1-1-2.9-2.5-2.9h-1.8c-1.4,0-2.3,0-2.7.2-.4,0-.4.4-.4,1,0,2,0,3.8,0,5.7,0,.4.1.5.3.5h1.1Z"/>
  <path d="M129.3,109.8h-2.4v-2.7h2.4v2.7Z"/>
  <path d="M134,95c1.4-1.6,3.5-2.3,5.2-2.7,1.2-.3,2.8-.4,3.6-.4,1.3,0,2.7.2,3.4.5.3.1.7,0,1.1-.3,0,0,.2,0,.4,0,.2,0,.2.1.1.2-.5,1.4-.5,2.8-.4,4.3,0,0,0,.1-.3.1-.3,0-.4,0-.4-.2-.1-.4-.3-1.1-.6-1.6-.2-.5-.4-.8-.9-1.2-.7-.6-1.9-1-3.4-1s-3.4.8-4.7,2.4c-1.3,1.6-1.8,3.9-1.8,6.2s1.7,8,6.9,8,3.2-1,4-1.8c.7-.7,1-1.4,1.2-1.9,0,0,.1-.1.3,0,.2.2.2.3.2.4-.3,1.5-.9,2.9-1.3,3.5-.2.2-.3.2-.5.2-.8,0-2.3.4-4.2.4-7.3,0-10.2-4.8-10.2-9s.5-4.3,2.2-6.3Z"/>
  <path d="M168.4,100.7c0,3.4-1.5,5.8-3.1,7.2-1.9,1.7-4.3,2.3-5.7,2.3-3,0-5.9-1.1-7.8-3.3-1.4-1.5-2.2-3.8-2.2-6s.9-4.8,2.9-6.6c1.8-1.7,4.3-2.6,6.7-2.6,4.9,0,9.3,3.9,9.3,8.8ZM154.7,94.5c-1.3,1.5-1.7,3.7-1.7,6s.9,5,2.2,6.5c1.6,1.8,3.1,2.3,4.7,2.3,2.5,0,5.1-2.5,5.1-7.7s-.5-5.1-2.2-7c-1-1-2.4-2-4.4-2s-2.7.6-3.7,1.9Z"/>
  <path d="M175.4,110c-1.7-.1-3.3-.1-5-.1-.2,0-.2,0-.3-.1,0-.1,0-.4,0-.5,1.1-.2,1.6-.5,1.8-1.7.2-1.6.3-4,.4-7l.2-5.9c0-1.2-.4-1.4-2.2-1.7,0-.1,0-.3.2-.5.1,0,0-.1.2-.1.4,0,2,0,2.8.1.6,0,1.2,0,1.7,0,0,.5.2,1,.4,1.3,1.3,2.9,4.2,8.1,5.9,11.3,0,.1.2.1.3,0,1.8-3.5,4.2-8.3,5.6-11.4.1-.2.2-.7.2-1.2,1.6,0,3.3,0,4.7-.1,0,.1,0,.5,0,.7-1.7.2-1.9.5-1.9,1.3,0,1,0,2.7,0,6.3,0,2.7,0,5.5,0,6.4.1,1.6.2,1.8,1.6,2.2.2,0,.2.3.2.5s0,.2-.2.2c-.8,0-1.6,0-2.4,0s-2.6,0-3.8.2v-.4c0-.2,0-.3.2-.3,1.1-.4,1.2-.5,1.3-1.5,0-.7,0-2.2.3-12.3,0-.2-.1-.2-.2,0-.4.7-3.1,6.6-4.4,9.4-1.3,2.8-1.7,3.9-1.9,4.2-.3.7-.5,1-.7,1s-.2-.2-.4-.4c-.1-.2-.8-1.5-1.4-2.9-2.5-5.4-4.3-9-5.5-11.5,0,2.4,0,6,0,9.1s.1,3.5.2,4c.1.5.5.8,1.6,1,.3,0,.4.1.4.2v.5Z"/>
</svg>