<?xml version="1.0" encoding="UTF-8"?>
<svg id="Layer_1" xmlns="http://www.w3.org/2000/svg" baseProfile="tiny-ps" version="1.2" viewBox="0 0 80 80">
  <!-- Generator: Adobe Illustrator 29.0.1, SVG Export Plug-In . SVG Version: 2.1.0 Build 192)  -->
<title>Vacation Rewards</title>
  <path d="M9.1,37v.2c-.2,0-.4.1-.6.2-.2.2-.3.4-.5.8l-2.4,5.9h-.2l-2.6-6c-.1-.3-.2-.5-.3-.6,0-.1-.2-.2-.3-.2-.1,0-.3,0-.5-.1v-.2h2.8v.2c-.3,0-.5,0-.6.2,0,0-.1.2-.1.3s0,.4.2.8l1.8,4.1,1.6-4c.2-.4.2-.7.2-.8s0-.2-.1-.3c0,0-.3-.2-.5-.2,0,0,0,0,0,0v-.2h2.1Z"/>
  <path d="M12.2,43.3c-.5.4-.8.6-.9.6-.2,0-.4.1-.6.1-.3,0-.6-.1-.8-.3s-.3-.5-.3-.9,0-.4.2-.6c.1-.2.4-.4.7-.7.3-.2.9-.5,1.7-.7v-.2c0-.5,0-.8-.2-1s-.4-.3-.6-.3-.4,0-.5.2c-.1.1-.2.2-.2.4v.3c0,.2,0,.3-.1.4,0,0-.2.1-.3.1s-.2,0-.3-.1c0,0-.1-.2-.1-.4,0-.3.1-.6.4-.8.3-.2.7-.4,1.3-.4s.8,0,1,.2c.2.1.3.3.4.5,0,.1,0,.4,0,.9v1.6c0,.4,0,.7,0,.8,0,.1,0,.2,0,.2,0,0,0,0,.1,0s.1,0,.1,0c0,0,.2-.2.4-.4v.3c-.4.5-.7.8-1.1.8s-.3,0-.4-.2c0-.1-.2-.3-.2-.6ZM12.2,43v-1.8c-.5.2-.8.3-1,.4-.3.2-.5.3-.6.5-.1.2-.2.3-.2.5s0,.4.2.6c.1.2.3.2.5.2s.6-.2,1-.5Z"/>
  <path d="M18.2,42.2c-.1.6-.4,1.1-.7,1.4s-.8.5-1.2.5-1-.2-1.4-.7c-.4-.4-.6-1-.6-1.8s.2-1.3.7-1.8c.4-.5,1-.7,1.6-.7s.8.1,1.1.4c.3.2.4.5.4.8s0,.2-.1.3c0,0-.2.1-.4.1s-.4,0-.5-.2c0,0,0-.2-.1-.4,0-.2,0-.4-.2-.5-.1-.1-.3-.2-.5-.2-.3,0-.6.1-.8.4-.3.3-.4.8-.4,1.3s.1,1.1.4,1.5c.3.4.6.6,1.1.6s.6-.1.9-.3c.2-.2.4-.4.5-.9h.1Z"/>
  <path d="M21.5,43.3c-.5.4-.8.6-.9.6-.2,0-.4.1-.6.1-.3,0-.6-.1-.8-.3s-.3-.5-.3-.9,0-.4.2-.6c.1-.2.4-.4.7-.7.3-.2.9-.5,1.7-.7v-.2c0-.5,0-.8-.2-1s-.4-.3-.6-.3-.4,0-.5.2c-.1.1-.2.2-.2.4v.3c0,.2,0,.3-.1.4,0,0-.2.1-.3.1s-.2,0-.3-.1c0,0-.1-.2-.1-.4,0-.3.1-.6.4-.8.3-.2.7-.4,1.3-.4s.8,0,1,.2c.2.1.3.3.4.5,0,.1,0,.4,0,.9v1.6c0,.4,0,.7,0,.8,0,.1,0,.2,0,.2,0,0,0,0,.1,0s.1,0,.1,0c0,0,.2-.2.4-.4v.3c-.4.5-.7.8-1.1.8s-.3,0-.4-.2c0-.1-.2-.3-.2-.6ZM21.5,43v-1.8c-.5.2-.8.3-1,.4-.3.2-.5.3-.6.5-.1.2-.2.3-.2.5s0,.4.2.6c.1.2.3.2.5.2s.6-.2,1-.5Z"/>
  <path d="M24.7,37.7v1.5h1.1v.4h-1.1v3c0,.3,0,.5.1.6s.2.2.3.2.2,0,.3-.1c.1,0,.2-.2.2-.3h.2c-.1.3-.3.6-.5.8-.2.2-.4.3-.7.3s-.3,0-.5-.1c-.2,0-.3-.2-.3-.4s-.1-.4-.1-.7v-3.1h-.7v-.2c.2,0,.4-.2.6-.4.2-.2.4-.4.5-.6,0-.1.2-.4.3-.7h.2Z"/>
  <path d="M28,39.1v3.8c0,.3,0,.5,0,.6,0,0,.1.2.2.2,0,0,.2,0,.5,0v.2h-2.3v-.2c.2,0,.4,0,.5,0,0,0,.1-.1.2-.2s0-.3,0-.6v-1.8c0-.5,0-.8,0-1,0-.1,0-.2-.1-.2,0,0-.1,0-.2,0s-.2,0-.3,0v-.2c0,0,1.3-.6,1.3-.6h.2ZM27.6,36.8c.1,0,.3,0,.4.2.1.1.2.2.2.4s0,.3-.2.4c-.1.1-.2.2-.4.2s-.3,0-.4-.2-.2-.2-.2-.4,0-.3.2-.4.2-.2.4-.2Z"/>
  <path d="M31.4,39.1c.7,0,1.3.3,1.7.8.4.5.5,1,.5,1.6s-.1.8-.3,1.3-.5.8-.8,1c-.4.2-.7.3-1.2.3-.7,0-1.3-.3-1.7-.8-.4-.5-.5-1-.5-1.6s.1-.9.3-1.3.5-.7.8-.9c.3-.2.7-.3,1.1-.3ZM31.3,39.5c-.2,0-.4,0-.5.2s-.3.3-.4.6c-.1.3-.2.6-.2,1,0,.7.1,1.3.4,1.8.3.5.6.7,1.1.7s.6-.1.8-.4.3-.7.3-1.4-.2-1.5-.5-2c-.2-.3-.6-.5-.9-.5Z"/>
  <path d="M35.5,40.1c.5-.7,1.1-1,1.6-1s.5,0,.7.2.3.3.4.6c0,.2.1.5.1.9v2c0,.3,0,.5,0,.6,0,0,0,.2.2.2s.2,0,.5,0v.2h-2.3v-.2h0c.2,0,.4,0,.5,0s.1-.2.2-.3c0,0,0-.2,0-.5v-1.9c0-.4,0-.7-.2-.9-.1-.2-.3-.3-.6-.3-.4,0-.8.2-1.2.7v2.5c0,.3,0,.5,0,.6,0,0,.1.2.2.2s.3,0,.5,0v.2h-2.3v-.2h.1c.2,0,.4,0,.5-.2s.1-.4.1-.7v-1.7c0-.6,0-.9,0-1s0-.2-.1-.3c0,0-.1,0-.2,0s-.2,0-.3,0v-.2c0,0,1.3-.6,1.3-.6h.2v1Z"/>
  <path d="M48.9,44h-1.9l-2.3-3.2c-.2,0-.3,0-.4,0s0,0-.1,0c0,0-.1,0-.2,0v2c0,.4,0,.7.1.8.1.1.3.2.6.2h.3v.2h-3v-.2h.3c.3,0,.5,0,.6-.3,0-.1.1-.4.1-.8v-4.5c0-.4,0-.7-.1-.8-.1-.1-.3-.2-.6-.2h-.3v-.2h2.5c.7,0,1.3,0,1.6.2s.6.3.9.6c.2.3.4.6.4,1s-.1.8-.4,1.1c-.3.3-.7.5-1.3.7l1.4,2c.3.5.6.8.8.9s.5.2.9.3v.2ZM43.9,40.4c0,0,.1,0,.2,0,0,0,0,0,.1,0,.7,0,1.2-.1,1.5-.4s.5-.7.5-1.1-.1-.8-.4-1.1-.6-.4-1.1-.4-.5,0-.8,0v2.9Z"/>
  <path d="M49.7,41.1c0,.7.2,1.2.5,1.6s.7.6,1.2.6.6,0,.8-.3.4-.5.6-.9h.2c0,.6-.3,1-.6,1.4s-.8.6-1.3.6-1-.2-1.4-.7-.6-1-.6-1.8.2-1.4.6-1.9c.4-.4.9-.7,1.5-.7s1,.2,1.3.5c.3.3.5.8.5,1.4h-3.2ZM49.7,40.8h2.2c0-.3,0-.5-.1-.6,0-.2-.2-.3-.4-.4-.2-.1-.3-.2-.5-.2-.3,0-.5.1-.8.3s-.4.5-.4.9Z"/>
  <path d="M53.3,39.3h2v.2c-.2,0-.3,0-.4,0s0,.1,0,.2,0,.2,0,.4l1,2.7,1-2.2-.3-.7c0-.2-.2-.3-.3-.4,0,0-.2,0-.4,0v-.2h2.2v.2c-.2,0-.4,0-.5.1,0,0-.1.1-.1.3s0,.1,0,.2l1.1,2.7,1-2.6c0-.2.1-.3.1-.4s0-.1,0-.2-.2,0-.4,0v-.2h1.5v.2c-.3,0-.5.2-.7.6l-1.6,4h-.2l-1.2-3-1.4,3h-.2l-1.5-3.9c0-.2-.2-.4-.3-.5s-.2-.2-.4-.2v-.2Z"/>
  <path d="M63.7,43.3c-.5.4-.8.6-.9.6-.2,0-.4.1-.6.1-.3,0-.6-.1-.8-.3s-.3-.5-.3-.9,0-.4.2-.6c.1-.2.4-.4.7-.7s.9-.5,1.7-.7v-.2c0-.5,0-.8-.2-1s-.4-.3-.6-.3-.4,0-.5.2c-.1.1-.2.2-.2.4v.3c0,.2,0,.3-.1.4,0,0-.2.1-.3.1s-.2,0-.3-.1c0,0-.1-.2-.1-.4,0-.3.1-.6.4-.8s.7-.4,1.3-.4.8,0,1,.2c.2.1.3.3.4.5,0,.1,0,.4,0,.9v1.6c0,.4,0,.7,0,.8s0,.2,0,.2,0,0,.1,0,.1,0,.1,0c0,0,.2-.2.4-.4v.3c-.4.5-.7.8-1.1.8s-.3,0-.4-.2c0-.1-.1-.3-.2-.6ZM63.7,43v-1.8c-.5.2-.8.3-1,.4-.3.2-.5.3-.6.5s-.2.3-.2.5,0,.4.2.6.3.2.5.2.6-.2,1-.5Z"/>
  <path d="M67,39.1v1.1c.4-.7.8-1.1,1.2-1.1s.3,0,.5.2c.1.1.2.2.2.4s0,.2-.1.3-.2.1-.3.1-.3,0-.4-.2-.3-.2-.3-.2-.1,0-.2.1c-.2.1-.3.4-.5.7v2.2c0,.3,0,.5,0,.6,0,0,.1.2.2.2s.3,0,.5,0v.2h-2.4v-.2c.2,0,.4,0,.5-.1,0,0,.1-.1.2-.3,0,0,0-.2,0-.5v-1.8c0-.5,0-.9,0-1,0-.1,0-.2-.1-.2,0,0-.1,0-.2,0s-.2,0-.4,0v-.2c0,0,1.4-.6,1.4-.6h.2Z"/>
  <path d="M72.5,43.4c-.2.2-.5.4-.7.5s-.5.2-.7.2c-.5,0-1-.2-1.3-.6s-.6-1-.6-1.6.2-1.3.6-1.8,1-.8,1.6-.8.8.1,1,.4v-.9c0-.5,0-.9,0-1s0-.2-.1-.3c0,0-.1,0-.2,0s-.2,0-.4,0v-.2c0,0,1.3-.6,1.3-.6h.2v5.4c0,.5,0,.9,0,1s0,.2.1.3.1,0,.2,0,.2,0,.4,0v.2c0,0-1.3.6-1.3.6h-.2v-.7ZM72.5,43.1v-2.4c0-.2,0-.4-.2-.6-.1-.2-.2-.3-.4-.4s-.3-.1-.5-.1c-.3,0-.6.1-.8.4-.3.4-.5.9-.5,1.6s.1,1.2.4,1.6.6.5,1,.5.6-.2.9-.5Z"/>
  <path d="M77.4,39.1v1.6h-.2c-.1-.5-.3-.8-.5-1-.2-.2-.5-.3-.8-.3s-.4,0-.6.2c-.1.1-.2.3-.2.4s0,.4.2.5c.1.1.3.3.6.4l.7.4c.7.3,1,.8,1,1.3s-.2.8-.5,1-.7.4-1.1.4-.6,0-1-.2c-.1,0-.2,0-.3,0s-.1,0-.2.1h-.2v-1.7h.2c0,.5.3.8.5,1.1s.6.4.9.4.4,0,.6-.2.2-.3.2-.5,0-.4-.2-.6-.5-.4-1-.6-.8-.5-1-.7c-.2-.2-.2-.4-.2-.7s.1-.7.4-1c.3-.3.6-.4,1-.4s.4,0,.7.1c.2,0,.3,0,.3,0s0,0,.1,0c0,0,0,0,.1-.2h.2Z"/>
</svg>