<?xml version="1.0" encoding="UTF-8" standalone="yes"?>
<svg baseProfile="tiny-ps" version="1.2" viewBox="0 0 1000 1000" xmlns="http://www.w3.org/2000/svg">
  <title>ISEC7</title>
  <g>
    <g id="Ebene_1">
      <rect id="BG" width="1000" height="1000" fill="#fff"/>
      <g>
        <rect x="153.1" y="413.5" width="652.4" height="218" fill="#092431"/>
        <rect x="762.6" y="368.5" width="84.3" height="88.6" fill="#c00000"/>
        <g>
          <path d="M229.2,587.6v-130.2h31.6v130.2h-31.6,0Z" fill="#fff"/>
          <path d="M356.4,491.2c-5.3-6.8-15.1-11.2-23.2-11.2s-18.2,2.8-18.2,13.1,7.7,11.4,20,15.3c17.6,5.7,40.5,13.2,40.5,39.2s-24.1,43.4-49.8,43.4-37.3-6.8-48.8-18.7l20.6-21c6.2,7.9,17.9,13.8,28.1,13.8s18-3.7,18-14.2-10-13.1-27-18.6c-16.6-5.3-33.3-13.8-33.3-37.3s26.1-40.8,50.4-40.8,31.2,5.5,42.6,16l-20,21.2h0Z" fill="#fff"/>
          <path d="M396.4,587.6v-130.2h87.6v26.7h-57.2v24.5h54v25.2h-54v27h60.5v26.9h-90.8c0,0,0,0,0,0h0Z" fill="#fff"/>
          <path d="M572,591.1c-40.1,0-70-28-70-68.8s30.9-68.4,70.6-68.4,37.8,6.6,48.8,19.1l-21.4,21.4c-5.9-8.1-16.3-12-26.3-12-21.9,0-37.5,16.9-37.5,39.9s15.3,39.9,37,39.9,22.1-5.5,27.6-13.2l21.9,20.6c-11.5,13.4-28.8,21.7-50.6,21.7h0Z" fill="#fff"/>
          <path d="M678.9,587.6h-35.9l52.8-103.8h-61.6v-26.5h94.5v24.6l-49.8,105.6Z" fill="#fff"/>
        </g>
      </g>
    </g>
  </g>
</svg>