<?xml version="1.0" encoding="utf-8"?>
<svg version="1.2" baseProfile="tiny-ps" xmlns="http://www.w3.org/2000/svg" xmlns:xlink="http://www.w3.org/1999/xlink" viewBox="0 0 1000 1000" fill="none">
<title>Drugs.com</title>
<rect width="1000" height="1000" fill="white"/>
<g>
<path d="M200.96 640.082C200.198 646.646 199.892 653.234 200.036 659.834C200.09 662.306 200.21 664.772 200.39 667.238C201.236 678.776 203.486 690.194 207.104 701.294C213.878 722.054 225.386 741.614 241.886 758.114C258.386 774.614 277.94 786.122 298.706 792.896C309.806 796.52 321.224 798.77 332.762 799.61C335.228 799.79 337.694 799.91 340.166 799.964C346.766 800.108 353.354 799.802 359.918 799.04C390.89 795.44 420.926 781.874 444.686 758.114L499.994 702.806L518.432 684.368L541.478 661.322C550.01 652.79 555.344 642.278 557.516 631.274C559.01 623.726 559.01 615.956 557.516 608.408C555.338 597.398 550.004 586.886 541.478 578.36C532.946 569.828 522.434 564.494 511.43 562.322C503.882 560.828 496.112 560.828 488.564 562.322C477.554 564.5 467.042 569.834 458.516 578.36L435.47 601.406L417.032 619.844L370.94 665.936C351.344 685.532 326.498 696.224 300.944 699.056C303.782 673.502 314.468 648.656 334.064 629.06L380.156 582.968L398.594 564.53L421.64 541.484C430.172 532.952 435.506 522.44 437.678 511.436C439.172 503.888 439.172 496.118 437.678 488.57C435.5 477.56 430.166 467.048 421.64 458.522C413.108 449.99 402.596 444.656 391.592 442.484C384.044 440.99 376.274 440.99 368.726 442.484C357.716 444.662 347.204 449.996 338.678 458.522L315.632 481.568L297.194 500.006L241.886 555.314C218.126 579.074 204.56 609.104 200.96 640.082ZM338.096 717.212C356.786 710.246 374.354 699.392 389.378 684.368L435.47 638.276L442.472 631.274L453.902 619.844L476.948 596.798C489.674 584.072 510.314 584.072 523.04 596.798C535.766 609.524 535.766 630.164 523.04 642.89L499.994 665.936L488.564 677.366L481.562 684.368L426.254 739.676C406.478 759.452 381.35 770.162 355.544 772.868C346.754 773.792 337.97 773.75 329.198 772.694C324.674 772.148 320.222 771.452 315.776 770.384C307.73 756.428 302.852 741.308 301.022 725.75C313.634 724.604 326.09 721.694 338.102 717.218L338.096 717.212ZM322.634 511.43L334.064 500L357.11 476.954C369.836 464.228 390.476 464.228 403.202 476.954C415.928 489.68 415.928 510.32 403.202 523.046L380.156 546.092L368.726 557.522L361.724 564.524L315.632 610.616C300.608 625.64 289.748 643.208 282.788 661.898C278.312 673.91 275.402 686.366 274.256 698.978C273.452 707.87 273.44 716.822 274.286 725.714C275.252 735.848 277.4 745.868 280.52 755.654C273.38 751.118 266.558 745.904 260.324 739.676C254.096 733.448 248.882 726.62 244.346 719.48C237.35 708.47 232.586 696.536 229.616 684.224C228.542 679.778 227.852 675.32 227.306 670.802C226.25 662.03 226.208 653.24 227.132 644.456C229.838 618.65 240.548 593.528 260.324 573.746L315.632 518.438L322.634 511.436V511.43Z" fill="#D54227"/>
<path d="M359.918 200.96C353.36 200.198 346.766 199.892 340.166 200.036C337.694 200.09 335.228 200.21 332.762 200.39C321.224 201.236 309.806 203.486 298.706 207.104C277.946 213.878 258.386 225.386 241.886 241.886C225.386 258.386 213.878 277.94 207.104 298.706C203.48 309.806 201.23 321.224 200.39 332.762C200.21 335.228 200.09 337.694 200.036 340.166C199.892 346.766 200.198 353.354 200.96 359.918C204.56 390.89 218.126 420.926 241.886 444.686L297.194 499.994L315.632 518.432L338.678 541.478C347.21 550.01 357.722 555.344 368.726 557.516C376.274 559.01 384.044 559.01 391.592 557.516C402.602 555.338 413.114 550.004 421.64 541.478C430.172 532.946 435.506 522.434 437.678 511.43C439.172 503.882 439.172 496.112 437.678 488.564C435.5 477.554 430.166 467.042 421.64 458.516L398.594 435.47L380.156 417.032L334.064 370.94C314.468 351.344 303.776 326.498 300.944 300.944C326.498 303.782 351.344 314.468 370.94 334.064L417.032 380.156L435.47 398.594L458.516 421.64C467.048 430.172 477.56 435.506 488.564 437.678C496.112 439.172 503.882 439.172 511.43 437.678C522.44 435.5 532.952 430.166 541.478 421.64C550.01 413.108 555.344 402.596 557.516 391.592C559.01 384.044 559.01 376.274 557.516 368.726C555.338 357.716 550.004 347.204 541.478 338.678L518.432 315.632L499.994 297.194L444.686 241.886C420.926 218.126 390.896 204.56 359.918 200.96ZM282.788 338.096C289.754 356.786 300.608 374.354 315.632 389.378L361.724 435.47L368.726 442.472L380.156 453.902L403.202 476.948C415.928 489.674 415.928 510.314 403.202 523.04C390.476 535.766 369.836 535.766 357.11 523.04L334.064 499.994L322.634 488.564L315.632 481.562L260.324 426.254C240.548 406.478 229.838 381.35 227.132 355.544C226.208 346.754 226.25 337.97 227.306 329.198C227.852 324.674 228.548 320.222 229.616 315.776C243.572 307.73 258.692 302.852 274.25 301.022C275.396 313.634 278.306 326.09 282.782 338.102L282.788 338.096ZM488.57 322.634L500 334.064L523.046 357.11C535.772 369.836 535.772 390.476 523.046 403.202C510.32 415.928 489.68 415.928 476.954 403.202L453.908 380.156L442.478 368.726L435.476 361.724L389.384 315.632C374.36 300.608 356.792 289.748 338.102 282.788C326.09 278.312 313.634 275.402 301.022 274.256C292.13 273.452 283.178 273.44 274.286 274.286C264.152 275.252 254.132 277.4 244.346 280.52C248.882 273.38 254.096 266.558 260.324 260.324C266.552 254.096 273.38 248.882 280.52 244.346C291.53 237.35 303.464 232.586 315.776 229.616C320.222 228.542 324.68 227.852 329.198 227.306C337.97 226.25 346.76 226.208 355.544 227.132C381.35 229.838 406.472 240.548 426.254 260.324L481.562 315.632L488.564 322.634H488.57Z" fill="#259CD8"/>
<path d="M640.082 799.04C646.646 799.802 653.234 800.108 659.834 799.964C662.306 799.91 664.772 799.79 667.238 799.61C678.776 798.764 690.194 796.514 701.294 792.896C722.054 786.122 741.614 774.614 758.114 758.114C774.614 741.614 786.122 722.06 792.896 701.294C796.52 690.194 798.77 678.776 799.61 667.238C799.79 664.772 799.91 662.306 799.964 659.834C800.108 653.234 799.802 646.646 799.04 640.082C795.44 609.11 781.874 579.074 758.114 555.314L702.806 500.006L684.368 481.568L661.322 458.522C652.79 449.99 642.278 444.656 631.274 442.484C623.726 440.99 615.956 440.99 608.408 442.484C597.398 444.662 586.886 449.996 578.36 458.522C569.828 467.054 564.494 477.566 562.322 488.57C560.828 496.118 560.828 503.888 562.322 511.436C564.5 522.446 569.834 532.958 578.36 541.484L601.406 564.53L619.844 582.968L665.936 629.06C685.532 648.656 696.224 673.502 699.056 699.056C673.502 696.218 648.656 685.532 629.06 665.936L582.968 619.844L564.53 601.406L541.484 578.36C532.952 569.828 522.44 564.494 511.436 562.322C503.888 560.828 496.118 560.828 488.57 562.322C477.56 564.5 467.048 569.834 458.522 578.36C449.99 586.892 444.656 597.404 442.484 608.408C440.99 615.956 440.99 623.726 442.484 631.274C444.662 642.284 449.996 652.796 458.522 661.322L481.568 684.368L500.006 702.806L555.314 758.114C579.074 781.874 609.11 795.44 640.082 799.04ZM717.212 661.904C710.246 643.214 699.392 625.646 684.368 610.622L638.276 564.53L631.274 557.528L619.844 546.098L596.798 523.052C584.072 510.326 584.072 489.686 596.798 476.96C609.524 464.234 630.164 464.234 642.89 476.96L665.936 500.006L677.366 511.436L684.368 518.438L739.676 573.746C759.452 593.522 770.162 618.65 772.868 644.456C773.792 653.246 773.75 662.03 772.694 670.802C772.148 675.326 771.452 679.778 770.384 684.224C756.428 692.27 741.308 697.148 725.75 698.978C724.604 686.366 721.694 673.91 717.218 661.898L717.212 661.904ZM511.43 677.366L500 665.936L476.954 642.89C464.228 630.164 464.228 609.524 476.954 596.798C489.68 584.072 510.32 584.072 523.046 596.798L546.092 619.844L557.522 631.274L564.524 638.276L610.616 684.368C625.64 699.392 643.208 710.252 661.898 717.212C673.91 721.688 686.366 724.598 698.978 725.744C707.87 726.548 716.822 726.56 725.714 725.714C735.848 724.748 745.868 722.6 755.654 719.48C751.118 726.62 745.904 733.442 739.676 739.676C733.448 745.904 726.62 751.118 719.48 755.654C708.47 762.65 696.536 767.414 684.224 770.384C679.778 771.458 675.32 772.148 670.802 772.694C662.03 773.75 653.24 773.792 644.456 772.868C618.65 770.162 593.528 759.452 573.746 739.676L518.438 684.368L511.436 677.366H511.43Z" fill="#3455A3"/>
<path d="M799.04 359.918C799.802 353.354 800.108 346.766 799.964 340.166C799.91 337.694 799.79 335.228 799.61 332.762C798.764 321.224 796.514 309.806 792.896 298.706C786.122 277.946 774.614 258.386 758.114 241.886C741.614 225.386 722.06 213.878 701.294 207.104C690.194 203.48 678.776 201.23 667.238 200.39C664.772 200.21 662.306 200.09 659.834 200.036C653.234 199.892 646.646 200.198 640.082 200.96C609.11 204.56 579.074 218.126 555.314 241.886L500.006 297.194L481.568 315.632L458.522 338.678C449.99 347.21 444.656 357.722 442.484 368.726C440.99 376.274 440.99 384.044 442.484 391.592C444.662 402.602 449.996 413.114 458.522 421.64C467.054 430.172 477.566 435.506 488.57 437.678C496.118 439.172 503.888 439.172 511.436 437.678C522.446 435.5 532.958 430.166 541.484 421.64L564.53 398.594L582.968 380.156L629.06 334.064C648.656 314.468 673.502 303.776 699.056 300.944C696.218 326.498 685.532 351.344 665.936 370.94L619.844 417.032L601.406 435.47L578.36 458.516C569.828 467.048 564.494 477.56 562.322 488.564C560.828 496.112 560.828 503.882 562.322 511.43C564.5 522.44 569.834 532.952 578.36 541.478C586.892 550.01 597.404 555.344 608.408 557.516C615.956 559.01 623.726 559.01 631.274 557.516C642.284 555.338 652.796 550.004 661.322 541.478L684.368 518.432L702.806 499.994L758.114 444.686C781.874 420.926 795.44 390.89 799.04 359.918ZM661.904 282.788C643.214 289.754 625.646 300.608 610.622 315.632L564.53 361.724L557.528 368.726L546.098 380.156L523.052 403.202C510.326 415.928 489.686 415.928 476.96 403.202C464.234 390.476 464.234 369.836 476.96 357.11L500.006 334.064L511.436 322.634L518.438 315.632L573.746 260.324C593.522 240.548 618.65 229.838 644.456 227.132C653.246 226.208 662.03 226.25 670.802 227.306C675.326 227.852 679.778 228.548 684.224 229.616C692.27 243.572 697.148 258.692 698.978 274.25C686.366 275.396 673.91 278.306 661.898 282.782L661.904 282.788ZM677.366 488.57L665.936 500L642.89 523.046C630.164 535.772 609.524 535.772 596.798 523.046C584.072 510.32 584.072 489.68 596.798 476.954L619.844 453.908L631.274 442.478L638.276 435.476L684.368 389.384C699.392 374.36 710.252 356.792 717.212 338.102C721.688 326.09 724.598 313.634 725.744 301.022C726.548 292.13 726.56 283.178 725.714 274.286C724.748 264.152 722.6 254.132 719.48 244.346C726.62 248.882 733.442 254.096 739.676 260.324C745.904 266.552 751.118 273.38 755.654 280.52C762.65 291.53 767.414 303.464 770.384 315.776C771.458 320.222 772.148 324.68 772.694 329.198C773.75 337.97 773.792 346.76 772.868 355.544C770.162 381.35 759.452 406.472 739.676 426.254L684.368 481.562L677.366 488.564V488.57Z" fill="#D4186F"/>
<path d="M500 334.07L511.43 322.64L518.438 315.632L500 297.2L481.562 315.632L488.57 322.64L500 334.07Z" fill="#2B0448"/>
<path d="M557.522 391.592C559.016 384.044 559.016 376.274 557.522 368.726L546.092 380.156L523.046 403.202C510.32 415.928 489.68 415.928 476.954 403.202L453.908 380.156L442.478 368.726C440.984 376.274 440.984 384.044 442.478 391.592C444.656 402.602 449.99 413.114 458.516 421.64C467.048 430.172 477.56 435.506 488.564 437.678C496.112 439.172 503.882 439.172 511.43 437.678C522.44 435.5 532.952 430.166 541.478 421.64C550.01 413.108 555.344 402.596 557.516 391.592H557.522Z" fill="#2B0448"/>
<path d="M684.368 481.562L677.36 488.57L665.93 500L677.36 511.43L684.368 518.438L702.8 500L684.368 481.562Z" fill="#2B0448"/>
<path d="M596.792 523.046C584.066 510.32 584.066 489.68 596.792 476.954L619.838 453.908L631.268 442.478C623.72 440.984 615.95 440.984 608.402 442.478C597.392 444.656 586.886 449.984 578.354 458.516C569.822 467.048 564.488 477.56 562.316 488.564C560.822 496.112 560.822 503.882 562.316 511.43C564.494 522.44 569.828 532.952 578.354 541.478C586.886 550.01 597.398 555.344 608.402 557.516C615.95 559.01 623.72 559.01 631.268 557.516L619.838 546.086L596.792 523.04V523.046Z" fill="#2B0448"/>
<path d="M334.07 500L322.64 511.43L315.632 518.438L297.2 500L315.632 481.562L322.64 488.57L334.07 500Z" fill="#2B1619"/>
<path d="M391.592 557.522C384.044 559.016 376.274 559.016 368.726 557.522L380.156 546.092L403.202 523.046C415.928 510.32 415.928 489.68 403.202 476.954L380.156 453.908L368.726 442.478C376.274 440.984 384.044 440.984 391.592 442.478C402.602 444.656 413.114 449.99 421.64 458.516C430.172 467.048 435.506 477.56 437.678 488.564C439.172 496.112 439.172 503.882 437.678 511.43C435.5 522.44 430.166 532.952 421.64 541.478C413.108 550.01 402.596 555.344 391.592 557.516V557.522Z" fill="#2B1619"/>
<path d="M481.562 684.368L488.57 677.36L500 665.93L511.43 677.36L518.438 684.368L500 702.8L481.562 684.368Z" fill="#2B1619"/>
<path d="M523.046 596.792C510.32 584.066 489.68 584.066 476.954 596.792L453.908 619.838L442.478 631.268C440.984 623.72 440.984 615.95 442.478 608.402C444.656 597.392 449.984 586.886 458.516 578.354C467.048 569.822 477.56 564.488 488.564 562.316C496.112 560.822 503.882 560.822 511.43 562.316C522.44 564.494 532.952 569.828 541.478 578.354C550.01 586.886 555.344 597.398 557.516 608.402C559.01 615.95 559.01 623.72 557.516 631.268L546.086 619.838L523.04 596.792H523.046Z" fill="#2B1619"/>
</g>
</svg>