<?xml version="1.0" encoding="utf-8"?>
<!-- Generator: Adobe Illustrator 28.0.0, SVG Export Plug-In . SVG Version: 6.00 Build 0)  -->
<svg version="1.2" baseProfile="tiny-ps" id="Calque_1"
	 xmlns="http://www.w3.org/2000/svg" xmlns:xlink="http://www.w3.org/1999/xlink" viewBox="0 0 1080 1080"
	 xml:space="preserve">
	<title>PLOOM</title>
<g>
	<g>
		<path d="M588.5,571.1c-23.5,0-42.5-19-42.5-42.5s19-42.5,42.5-42.5s42.5,19,42.5,42.5C631,552,612,571.1,588.5,571.1 M588.5,455.8
			c-40.2,0-72.8,32.6-72.8,72.7c0,40.2,32.6,72.8,72.8,72.8s72.8-32.6,72.8-72.8C661.2,488.4,628.7,455.8,588.5,455.8"/>
		<path d="M864.4,455.8c-23.5,0-44.3,11.1-57.6,28.3c-13.3-17.2-34.2-28.3-57.6-28.3c-40.2,0-72.8,32.6-72.8,72.7v66h30.3v-66l0,0
			c0-23.5,19-42.5,42.5-42.5s42.5,19,42.5,42.5v66H822v-66l0,0l0,0c0-23.5,19-42.5,42.5-42.5s42.5,19,42.5,42.5v66h30.3v-66
			C937.2,488.4,904.6,455.8,864.4,455.8"/>
		<path d="M427.8,571.1c-23.5,0-42.5-19-42.5-42.5s19-42.5,42.5-42.5s42.5,19,42.5,42.5C470.3,552,451.3,571.1,427.8,571.1
			 M215.8,486.1c23.5,0,42.5,19,42.5,42.5c0,23.5-19,42.5-42.5,42.5s-42.5-19-42.5-42.5C173.3,505.1,192.3,486.1,215.8,486.1
			 M489.8,490.5V382c0-47.6-38.6-86.2-86.2-86.2c-46,0-83.6,36.1-86.1,81.5c-3.4-1.3-7-2-10.9-2v219.3h10.8V698
			c0,42.8-34.7,77.4-77.4,77.4s-77.4-34.7-77.4-77.4v-4.4c3.3,1.3,7,2,10.8,2v-108c11.9,8.6,26.6,13.7,42.5,13.7
			c40.2,0,72.8-32.6,72.8-72.8s-32.6-72.8-72.8-72.8c-17.4,0-33.4,6.1-45.9,16.4h-27v193.2c0,9.3,4.2,17.6,10.8,23.1v9.5
			c0,47.6,38.6,86.2,86.2,86.2s86.2-38.6,86.2-86.2V594.6H337V405.5c0-9.3-4.2-17.6-10.8-23.1V382c0-42.8,34.7-77.4,77.4-77.4
			S481,339.3,481,382v97l0,0c-13.3-14.2-32.2-23.2-53.2-23.2c-40.2,0-72.8,32.6-72.8,72.8s32.6,72.8,72.8,72.8s72.8-32.6,72.8-72.8
			C500.6,514.6,496.6,501.6,489.8,490.5L489.8,490.5z"/>
	</g>
	<g>
		<path d="M484.2,662.8v32.8H481v-32.8h-12.6v-2.9h28.5v2.9H484.2z"/>
		<path d="M524.6,680.1h-7.5v15.5h-3.2v-35.7h12.4c6.4,0,10.6,4.4,10.6,10.2c0,5.2-3.5,9.2-8.9,9.9l8.9,15.7h-3.7L524.6,680.1z
			 M525.8,677.3c4.7,0,7.9-2.9,7.9-7.2c0-4.4-3.2-7.3-7.9-7.3h-8.7v14.5H525.8L525.8,677.3z"/>
		<path d="M555.3,683.7v-23.8h3.2v23.7c0,6.3,3.2,9.8,9,9.8s9-3.5,9-9.8v-23.7h3.2v23.8c0,8.1-4.9,12.5-12.2,12.5
			C560.3,696.3,555.3,691.9,555.3,683.7z"/>
		<path d="M600.6,695.6v-35.7h3.2v32.8h18v2.9H600.6L600.6,695.6z"/>
		<path d="M630.3,659.9h3.8l10.3,17.5l10.3-17.5h3.7l-12.5,20.4v15.3h-3.1v-15.3L630.3,659.9z"/>
		<path d="M697,683.2v-23.3h6v22.9c0,5,2.8,7.8,7.3,7.8c4.6,0,7.3-2.8,7.3-7.8v-22.9h6v23.3c0,8.6-5.8,13.2-13.3,13.2
			C702.9,696.4,697,691.8,697,683.2z"/>
		<path d="M766.5,695.6l-17.6-27v27h-6v-35.7h7.7l16.2,25.3v-25.3h6v35.7H766.5z"/>
		<path d="M792.3,695.6v-35.7h6.2v35.7H792.3z"/>
		<path d="M834,659.1c9.4,0,18.2,6.9,18.2,18.6c0,5.3-1.8,9.6-4.6,12.7l4.2,4.7l-4.1,3.5l-4.4-4.8c-2.8,1.6-6,2.5-9.3,2.5
			c-9.4,0-18.1-6.9-18.1-18.6C815.8,666,824.6,659.1,834,659.1z M834,690.6c1.8,0,3.7-0.3,5.3-1.2l-5.9-6.5l4.1-3.5l5.9,6.6
			c1.5-2.1,2.5-4.8,2.5-8.3c0-8.6-5.9-12.9-12-12.9c-6,0-11.9,4.3-11.9,12.9C822,686.3,828,690.6,834,690.6z"/>
		<path d="M869.1,683.2v-23.3h6v22.9c0,5,2.8,7.8,7.3,7.8c4.6,0,7.3-2.8,7.3-7.8v-22.9h6v23.3c0,8.6-5.8,13.2-13.3,13.2
			C875,696.4,869.1,691.8,869.1,683.2z"/>
		<path d="M914.9,695.6v-35.7H937v5.6h-16v9.5h14.5v5.5H921v9.5h16v5.6L914.9,695.6L914.9,695.6z"/>
	</g>
</g>
</svg>
