<?xml version="1.0" encoding="UTF-8" standalone="yes"?>
<svg version="1.2" viewBox="0 0 76.8 76.8" xml:space="preserve" baseProfile="tiny-ps" xmlns="http://www.w3.org/2000/svg">
  <title>JTI</title>
  <g id="g10" transform="matrix(1.3333333,0,0,-1.3333333,0,76.773331)">
    <g id="g12" transform="scale(0.1)">
      <path id="path14" class="st0" d="M116,382.2c4.7,0,8.6-4.3,8.6-9.2V145.4c0-14.2-5-22-10.5-21.7c-5.5,0.5-8.9,4.2-13.1,15.5&#xD;&#xA;&#x9;&#x9;&#x9;c-5.2,13.7-13.9,17.7-24.6,18.2c-8.9,0.5-23.1-7-25.2-19.7c-2.1-12.7,1.1-26.9,21-34.9c26.7-10.5,50.3,7,50.3,7l57.9,41.4&#xD;&#xA;&#x9;&#x9;&#x9;c0,0,14.1,8.5,20.2,18.2c7.6,11.7,7.4,26.4,7.4,26.4V373c0,5.2,3.9,9.2,8.6,9.2h7.3c10,0,13.6,7.2,14.4,10.2&#xD;&#xA;&#x9;&#x9;&#x9;c1.3,4.7,4,7.7,11.5,7.7h24.3c7.4,0,13.4-3.2,13.4-14.2V166.8c0,0,0.3-6.9,4.2-9.9c5.3-4,11.3-1.5,13.9,0.5&#xD;&#xA;&#x9;&#x9;&#x9;c3.2,2.2,55.3,38.1,55.3,38.1c7.1,5,7.1,14.2,7.1,14.2v179.2c0,6.5,5.2,11.2,11.3,11.2h49.5c0,0,0.5,0,1.3,0.3l0.5,1v26.9l-0.5,1&#xD;&#xA;&#x9;&#x9;&#x9;l-1,0.2H246.4c-9.4,0-14.1-7.9-14.9-10.9c-1.3-4.8-5-8.2-11.3-8.2H103.9c-7.3,0-13.3-6.3-13.3-14c0-8,6-14.2,13.3-14.2H116" fill="#1EB28B"/>
      <path id="path16" class="st0" d="M512.5,476.4c7.1,0,12.6-6.2,12.6-14.2c0-7.8-5.5-14-12.6-14h-46.9h-14.9&#xD;&#xA;&#x9;&#x9;&#x9;c-7.1,0-12.6,6.2-12.6,14.2c0,7.7,5.5,14,12.6,14H512.5" fill="#1EB28B"/>
      <path id="path18" class="st0" d="M441.5,429.6V216.9c0,0,0.5-6.7,4.2-9.7c5.2-4.3,11.3-1.5,13.9,0.2c3.1,2.3,55.2,38.2,55.2,38.2&#xD;&#xA;&#x9;&#x9;&#x9;c7.1,5,7.1,14.2,7.1,14.2v169.8H441.5" fill="#1EB28B"/>
    </g>
  </g>
</svg>