<?xml version="1.0" encoding="utf-8"?>
<svg version="1.2" baseProfile="tiny-ps" id="Ebene_1" xmlns="http://www.w3.org/2000/svg" xmlns:xlink="http://www.w3.org/1999/xlink"
	 viewBox="0 0 80 80" xml:space="preserve">
<title>WIN</title>
<rect width="80" height="80" fill="white"/>
<path fill-rule="evenodd" d="M71.82 45.3837C71.82 45.4166 71.814 45.4452 71.8065 45.4724L71.793 45.4981C71.7885 45.5067 71.7855 45.5138 71.7825 45.5281C68.2249 50.7014 53.1662 54.1723 41.4323 53.9207C41.4323 53.9207 40.8169 54.1437 38.5698 55.7933C34.0125 59.1355 29.7255 58.3535 28.3835 58.1077C28.0743 58.0519 28.2019 57.899 28.3925 57.7846C29.101 57.3572 30.4775 56.5166 31.4997 55.7819C26.312 58.2649 24.5348 56.4966 24.1039 55.6346C23.9779 55.383 23.8278 55.0428 23.7992 54.8527C23.7692 54.644 24.0034 54.5454 24.0034 54.5454L32.5009 52.4211C28.1643 52.0366 15.9711 50.2354 11.3569 40.1689C11.2173 39.8673 11.4154 39.8787 11.528 39.9874C13.2587 41.587 15.3347 42.9121 17.3536 43.3624C17.2606 43.3253 17.1555 43.2724 17.0354 43.208C14.7958 41.8686 13.0876 40.3691 11.8207 38.788C10.5057 37.0669 10.126 35.0127 10.0269 33.6361C10.0269 33.6091 10.0249 33.5888 10.0225 33.5649C10.022 33.5598 10.0214 33.5545 10.0209 33.5489C9.98638 32.9786 9.98337 32.2324 10.1005 31.6534C10.15 31.399 10.3106 31.469 10.3721 31.6005C11.9423 34.9656 15.3047 39.58 19.0814 41.0652C18.9838 41.0037 18.8802 40.9366 18.7556 40.8379C11.5115 34.754 10.2175 27.7466 12.0594 22.2445C12.1464 21.9869 12.2251 21.9944 12.3167 22.003C12.3278 22.0041 12.3391 22.0051 12.3506 22.0058C12.4572 22.0266 12.5226 22.1544 12.5288 22.1666C12.529 22.1669 12.5291 22.1671 12.5292 22.1673C15.5914 29.3777 25.5645 41.9444 39.3788 45.4581C39.7646 45.4924 40.1534 45.5138 40.5542 45.5138C41.4263 45.5138 42.2309 45.4395 42.9379 45.3723L42.9926 45.3673C43.3143 45.3377 43.6161 45.3099 43.9031 45.2937C44.6611 45.2351 46.0016 45.1093 47.0823 45.0063C48.004 44.9163 48.4543 44.8748 48.5789 44.8691L48.6645 44.8662C49.1673 44.8662 49.6552 45.0292 49.9659 45.2822C50.3682 45.1207 50.853 45.0921 51.2688 45.2179L51.3109 45.2351C52.3841 45.6367 52.9155 46.5187 52.7849 47.6023C59.2035 48.4843 68.8944 46.1642 71.3907 45.1679H71.3937C71.4051 45.1627 71.417 45.1585 71.429 45.1543C71.4502 45.1468 71.4715 45.1392 71.4898 45.1264C71.4995 45.1264 71.5078 45.1257 71.516 45.125C71.5243 45.1243 71.5326 45.1236 71.5423 45.1236C71.6984 45.1236 71.82 45.2379 71.82 45.3837ZM49.8128 46.1142C50.0305 45.9198 50.5063 45.7597 50.9596 45.8941C52.0554 46.2957 52.207 47.2335 51.9413 48.0798C51.5441 47.4351 49.2094 48.4568 46.6985 49.5555C46.1638 49.7895 45.6211 50.027 45.0874 50.2526C45.9047 49.1557 44.9927 48.8132 44.1319 48.4899C43.7722 48.3549 43.4215 48.2232 43.2096 48.0412C42.1841 47.1857 42.7911 46.3748 42.955 46.1559C42.9767 46.1268 42.9907 46.1082 42.9919 46.1013C43.2456 46.087 43.5038 46.067 43.7845 46.0284C44.5743 45.9814 46.098 45.8416 47.2049 45.7401C47.8798 45.6782 48.3998 45.6305 48.5039 45.6267C48.9467 45.6096 49.325 45.7268 49.4796 45.8941C49.4514 45.8962 49.327 45.9185 49.1576 45.9487C49.1012 45.9588 49.0397 45.9698 48.9752 45.9813C48.8566 46.0064 48.7373 46.0313 48.6202 46.0558C47.8993 46.2063 47.2575 46.3404 47.3375 46.4215C47.4231 46.5059 47.6122 46.5888 47.8479 46.656V46.6503C48.3388 46.7932 49.0172 46.849 49.391 46.6374C49.5126 46.5731 49.6132 46.4916 49.6747 46.3658C49.6792 46.3358 49.7843 46.1542 49.8128 46.1142Z" fill="#0F3F93"/>
</svg>
