<?xml version="1.0" encoding="utf-8"?>
<svg version="1.2" baseProfile="tiny-ps" id="Ebene_1" xmlns="http://www.w3.org/2000/svg" xmlns:xlink="http://www.w3.org/1999/xlink"
	 viewBox="0 0 80 80" xml:space="preserve">
<title>NAS</title>
<rect width="80" height="80" fill="#64D0E4"/>
<path fill-rule="evenodd" d="M23.0595 34.4292L23.9266 35.7374L23.3789 36.7262L21.1885 35.7831L19.5 33.5165L23.0595 34.4292ZM45.1924 53.0482L43.6256 52.8657L41.6177 54.2195L35.1223 55.6799L35.0462 56.2883L35.822 57.2619L35.457 58.1898L38.0886 63.5443C38.0581 63.5443 38.0277 63.5443 37.9973 63.529C25.6759 62.1296 16.5793 51.5727 16.7315 39.4339C16.7467 38.6276 16.7923 37.8214 16.8836 36.9848C17.0357 35.631 17.3095 34.3228 17.6746 33.0602L18.2526 33.2123L18.1918 33.4405L20.2453 37.0152V37.8062L20.793 38.3995L25.2195 41.2745L31.365 54.5694L31.4107 55.0105L32.582 55.4973L41.6024 53.5198L44.7513 51.4206L46.4854 51.6336L44.6296 58.6309L45.1924 53.0482ZM54.0456 55.7255L55.1408 50.8274L54.8822 49.1236L60.2823 53.5959C58.0614 56.7142 55.1256 59.2698 51.7334 61.0191L54.0456 55.7255ZM45.5879 36.3611L43.8233 34.8399L42.3935 35.8135L42.1349 36.5741L42.9715 36.9239L42.576 39.6164L43.078 40.6356L44.6904 41.0767L47.2307 40.3922L47.2612 40.9246L45.5727 41.0767L44.3101 44.3624L47.1699 43.9821L48.2043 44.9861L45.7856 44.5297L43.4583 44.8796L41.4655 46.1422L38.7275 46.4008L35.3961 47.8611L34.6203 49.2606L34.4834 48.1045L28.6726 40.4074L27.8816 40.3922V39.5099L26.9841 36.5893L26.2387 36.2394L24.7784 34.8399L36.5978 37.8823L36.6587 37.8975L37.8148 36.6045L18.1614 31.5086C21.5231 22.2143 30.4067 15.7037 40.6898 15.7037C41.6024 15.7037 42.5151 15.7646 43.4278 15.8559C51.0489 16.7381 57.4377 21.1191 61.1646 27.2037L56.8597 27.082L47.1699 31.0827L44.0059 33.4557L44.0819 34.2619L47.0786 36.5436L46.0899 36.6958L45.4358 37.8518L45.5879 36.3611ZM39.199 38.4451L40.3855 38.0496L41.1765 37.9735L41.4047 37.6389L38.4841 36.9544L37.3888 37.9735L39.199 38.4451Z" fill="#D8292F" stroke="#D8292F" stroke-width="2" stroke-miterlimit="10"/>
<path fill-rule="evenodd" d="M16.7315 39.4186C16.7467 38.6124 16.7923 37.8062 16.8836 36.9695C17.0357 35.6157 17.3095 34.3075 17.6746 33.0449L16.0165 32.6342C15.6362 33.9729 15.3472 35.3571 15.1951 36.787C15.1038 37.6236 15.043 38.4451 15.043 39.2513C14.8148 52.3181 24.5655 63.7116 37.83 65.2175C38.2103 65.2631 38.5906 65.2936 38.9861 65.324L38.1038 63.529C38.0734 63.529 38.0429 63.529 38.0125 63.5138C25.6911 62.1143 16.5946 51.5575 16.7315 39.4186ZM18.1614 31.5086C21.5231 22.2143 30.4067 15.7037 40.6898 15.7037C41.6025 15.7037 42.5152 15.7645 43.4279 15.8558C51.0489 16.7381 57.4378 21.119 61.1646 27.2037L63.1725 27.2493C59.2632 20.2368 52.1745 15.1409 43.6256 14.1673C42.6521 14.0456 41.6481 14 40.6898 14C29.6157 14 20.0628 21.043 16.5033 31.0826L18.1614 31.5086ZM64.5568 30.1547C64.6176 30.2916 64.6633 30.4438 64.7089 30.5807L64.4959 30.246L64.5568 30.1547ZM51.7334 61.0039C55.1256 59.2546 58.0614 56.699 60.2823 53.5806L60.4344 53.7175L61.7731 53.611L61.8491 52.029L63.4159 51.4206L63.4616 49.4887L64.4199 48.8954L64.4503 47.1309L65.5151 46.416C65.4239 46.7506 65.3326 47.0701 65.2413 47.3895L65.2109 47.4047V47.4656C64.9219 48.3782 64.572 49.2757 64.1917 50.1276L64.1004 50.1732L64.0852 50.3253C63.7506 51.0555 63.3855 51.7552 63.0052 52.4245L62.2294 52.5919L62.1686 53.7632C62.1534 53.7936 62.1381 53.8088 62.1229 53.824L60.6322 54.0826L60.9212 54.6454L61.6362 54.539C58.8677 58.4331 55.08 61.4907 50.6838 63.3465L51.7334 61.0039ZM65.652 45.8531C65.7585 45.412 65.865 44.9404 65.9563 44.4841L65.8498 44.0429L66.078 43.8452C66.1388 43.4497 66.1996 43.0238 66.2453 42.613C66.2453 42.5674 66.2453 42.5218 66.2605 42.4761L65.074 43.9669L65.652 45.8531ZM65.9867 35.783L64.7241 33.7143L65.3782 32.5277C65.4695 32.8624 65.5608 33.2123 65.652 33.5469L65.3174 33.9576L65.9106 34.703C66.0627 35.494 66.1844 36.3154 66.2757 37.1217L65.9715 37.5476L66.3518 38.1256C66.367 38.3842 66.367 38.6276 66.3822 38.871L65.2717 37.4715L65.9867 35.783ZM66.2605 42.3697C66.2909 42.0198 66.3213 41.6699 66.3518 41.3048L66.1844 41.0767L66.367 40.8181C66.367 40.666 66.3822 40.4986 66.3974 40.3313V39.2209C66.3822 39.1448 66.3822 39.084 66.3822 39.0079L65.5455 41.1832L66.2605 42.3697Z" fill="#CCCCCC"/>
<path fill-rule="evenodd" d="M65.8041 27.3102L67.8425 27.2798L68.9225 28.6336L66.5951 31.2804L65.5303 29.8353L66.6712 28.2838L65.8041 27.3102Z" fill="black"/>
<path fill-rule="evenodd" d="M67.9794 30.6415L69.1659 31.9193L66.3213 35.205L65.3174 33.9424L67.9794 30.6415Z" fill="black"/>
<path fill-rule="evenodd" d="M68.6943 33.7142L69.82 35.3419L66.7929 38.7797L65.9715 37.5323L68.6943 33.7142Z" fill="black"/>
<path fill-rule="evenodd" d="M68.6791 37.6693L69.5614 39.2665L66.8689 41.959L66.1844 41.0767L68.6791 37.6693Z" fill="black"/>
<path fill-rule="evenodd" d="M68.4814 41.7003L69.1507 43.5409L66.1996 45.488L65.8346 44.0429L68.4814 41.7003Z" fill="black"/>
<path fill-rule="evenodd" d="M68.0555 45.5184L68.3445 46.781L65.2261 48.6368L65.1957 47.4047L68.0555 45.5184Z" fill="black"/>
<path fill-rule="evenodd" d="M67.0971 48.4087L67.0515 50.5231L64.0548 51.3141L64.0852 50.1732L67.0971 48.4087Z" fill="black"/>
<path fill-rule="evenodd" d="M64.8458 52.0291L63.9787 54.2195L60.9364 54.6607L60.6474 54.0978L62.1686 53.824L62.2294 52.6071L64.8458 52.0291Z" fill="black"/>
<path fill-rule="evenodd" d="M38.4841 36.9543L37.3888 37.9887L39.199 38.4451L40.3855 38.0496L41.1765 37.9735L41.4047 37.6389L38.4841 36.9543Z" fill="black"/>
<path fill-rule="evenodd" d="M11.2553 37.9888L12.1528 38.5364L12.4266 40.0576L11.8333 40.6052L10.7989 40.4835L10.1753 38.9167L11.2553 37.9888Z" fill="black"/>
<path fill-rule="evenodd" d="M10.0231 31.4781L12.0007 34.1706V34.1858L12.3201 37.8366L11.164 37.4259L9.85582 38.4755L8.85185 34.5509L8.86706 34.5357L10.0231 31.4781Z" fill="white"/>
<path fill-rule="evenodd" d="M10.0231 31.4781L12.0007 34.1706V34.1858L12.3201 37.8366L11.164 37.4259L9.85582 38.4755L8.85185 34.5509L8.86706 34.5357L10.0231 31.4781Z" fill="white"/>
<path fill-rule="evenodd" d="M10.0231 31.4781L12.0007 34.1706V34.1858L12.3201 37.8366L11.164 37.4259L9.85582 38.4755L8.85185 34.5509L8.86706 34.5357L10.0231 31.4781Z" fill="white"/>
<path fill-rule="evenodd" d="M10.0231 31.4781L12.0007 34.1706V34.1858L12.3201 37.8366L11.164 37.4259L9.85582 38.4755L8.85185 34.5509L8.86706 34.5357L10.0231 31.4781Z" fill="black"/>
<path fill-rule="evenodd" d="M15.3168 29.242L13.963 28.5879L12.3201 29.9113L9.65807 29.242L8 30.5654L18.2526 33.197L18.3591 32.7254L18.8915 32.7102L19.5 33.5165L23.0595 34.4292L22.7857 34.0184L23.9418 34.0641L24.7784 34.8703L36.5978 37.8974L36.6587 37.9126L37.8148 36.6196L14.2976 30.5046L15.3168 29.242Z" fill="black"/>
<path fill-rule="evenodd" d="M61.0581 36.6197L64.8914 37.0609L65.2109 35.7831L64.1309 34.4292L59.9629 33.9577L56.9358 34.3075L59.7803 33.3188L64.2526 33.4709L64.7089 31.8433L63.7658 30.8545L58.9589 30.5655L54.9278 31.25L58.7155 29.668L63.9027 29.7289L64.8002 28.6945L64.3438 28.0252L58.031 27.8426L50.8663 30.459L56.738 36.8479L56.3121 38.2017L54.8974 37.5172L54.9126 38.2169L53.8326 39.1601L54.7605 43.4041L53.5132 47.3895L60.7995 53.0635L61.1342 51.6944L57.8941 48.1501L61.8491 51.3293L62.8531 51.086L62.7922 49.3214L57.8333 45.6706L63.0204 48.7282L63.8723 48.211L63.4007 46.918L58.2592 44.1343L64.2526 46.4008L64.9371 45.8684L64.07 44.1951L58.6547 42.248L64.6024 43.3737L65.4999 42.4153L64.7241 41.4418L58.4113 40.453L61.8795 40.1488L65.15 40.7877L65.7737 39.1905L64.7089 37.7606L61.3319 37.289L58.3352 37.3042L61.0581 36.6197ZM35.8221 57.2619L35.0463 56.2883L35.1071 55.6799L41.6177 54.2196L43.6256 52.8657L45.1924 53.0483L44.6448 58.6157L46.5006 51.6184L44.7665 51.4054L41.6177 53.5046L32.5972 55.4821L31.4259 54.9953L31.3803 54.5542L25.2348 41.2593L20.8082 38.3843L20.2606 37.791V37L18.207 33.4253L18.3743 32.7408L18.9067 32.7103L21.1885 35.7831L23.3789 36.7262L23.9266 35.7374L22.8009 34.0185L23.9418 34.0642L26.2387 36.2698L26.9841 36.6197L27.8816 39.5403L27.8664 40.4226L28.6574 40.4378L34.4682 48.1349L34.6051 49.291L35.3809 47.8915L38.7275 46.4008L41.4808 46.1878L43.4735 44.9253L45.8009 44.5754L48.2195 45.0317L47.1851 44.0278L44.3253 44.4081L45.5879 41.1224L47.2764 40.9702L47.246 40.4378L44.7056 41.1224L43.0932 40.6812L42.5912 39.662L42.9867 36.9696L42.1501 36.6197L42.4087 35.8591L43.8386 34.8856L45.6031 36.4068L45.4358 37.8823L46.0899 36.7262L47.0786 36.5741L44.082 34.2923L44.0059 33.4861L47.1699 31.1131L56.8597 27.082L64.8458 27.295L65.6825 28.3598L64.4959 30.246L65.6216 32.041L64.7241 33.6991L65.9867 35.7679L65.2717 37.4411L66.4278 38.8862L65.5455 41.168L66.2909 42.3849L65.0588 43.9213L65.7737 46.203L64.4351 47.1005L64.4047 48.8651L63.4463 49.4583L63.4007 51.3902L61.8339 51.9987L61.7426 53.5807L60.404 53.6871L54.8518 49.0932L55.1104 50.7969L54.0151 55.6951L49.7255 65.5066L46.7136 67.1798L39.2751 65.9781L35.4113 58.1442L35.8221 57.2619ZM52.2354 35.1898L47.3677 31.5542L49.7407 30.7785L56.1752 36.8783L56.0079 37.5628L54.4411 36.6806L54.4563 38.0952L53.4675 39.0384L54.2737 43.541L53.0264 47.5417L51.2618 43.7235L52.3875 39.2665L51.3835 38.0952L51.2618 36.8479L52.2354 35.1898Z" fill="black"/>
<path fill-rule="evenodd" d="M50.8511 30.4438L56.7076 36.8327L56.2969 38.2017L54.8822 37.502L54.8974 38.2169L53.8174 39.1448L54.7453 43.3889L53.4827 47.3895L60.7691 53.0635L61.1037 51.6792L57.8941 48.1501L61.8339 51.3293L62.8379 51.1012L62.777 49.3214L57.8332 45.6858L63.0204 48.7282L63.8723 48.211L63.4007 46.9332L58.2592 44.1495L64.2525 46.4008L64.9371 45.8684L64.07 44.1951L58.6547 42.248L64.6024 43.3737L65.4999 42.4153L64.7241 41.4418L58.4113 40.453L61.8795 40.1488L65.15 40.7877L65.7737 39.1905L64.7089 37.7606L61.3319 37.2738L58.3352 37.289L61.0581 36.6197L64.8762 37.0608L65.1957 35.7831L64.1156 34.4292L59.9477 33.9577L56.9206 34.3075L59.7651 33.3188L64.2373 33.4709L64.6785 31.8433L63.7354 30.8545L58.9285 30.5807L54.8974 31.25L58.6699 29.668L63.8723 29.7288L64.7697 28.6945L64.3134 28.0251L58.0006 27.8274L50.8511 30.4438Z" fill="white"/>
<path fill-rule="evenodd" d="M50.8511 30.4438L56.7076 36.8327L56.2969 38.2017L54.8822 37.502L54.8974 38.2169L53.8174 39.1448L54.7453 43.3889L53.4827 47.3895L60.7691 53.0635L61.1037 51.6792L57.8941 48.1501L61.8339 51.3293L62.8379 51.1012L62.777 49.3214L57.8332 45.6858L63.0204 48.7282L63.8723 48.211L63.4007 46.9332L58.2592 44.1495L64.2525 46.4008L64.9371 45.8684L64.07 44.1951L58.6547 42.248L64.6024 43.3737L65.4999 42.4153L64.7241 41.4418L58.4113 40.453L61.8795 40.1488L65.15 40.7877L65.7737 39.1905L64.7089 37.7606L61.3319 37.2738L58.3352 37.289L61.0581 36.6197L64.8762 37.0608L65.1957 35.7831L64.1156 34.4292L59.9477 33.9577L56.9206 34.3075L59.7651 33.3188L64.2373 33.4709L64.6785 31.8433L63.7354 30.8545L58.9285 30.5807L54.8974 31.25L58.6699 29.668L63.8723 29.7288L64.7697 28.6945L64.3134 28.0251L58.0006 27.8274L50.8511 30.4438Z" fill="white"/>
<path fill-rule="evenodd" d="M50.8511 30.4438L56.7076 36.8327L56.2969 38.2017L54.8822 37.502L54.8974 38.2169L53.8174 39.1448L54.7453 43.3889L53.4827 47.3895L60.7691 53.0635L61.1037 51.6792L57.8941 48.1501L61.8339 51.3293L62.8379 51.1012L62.777 49.3214L57.8332 45.6858L63.0204 48.7282L63.8723 48.211L63.4007 46.9332L58.2592 44.1495L64.2525 46.4008L64.9371 45.8684L64.07 44.1951L58.6547 42.248L64.6024 43.3737L65.4999 42.4153L64.7241 41.4418L58.4113 40.453L61.8795 40.1488L65.15 40.7877L65.7737 39.1905L64.7089 37.7606L61.3319 37.2738L58.3352 37.289L61.0581 36.6197L64.8762 37.0608L65.1957 35.7831L64.1156 34.4292L59.9477 33.9577L56.9206 34.3075L59.7651 33.3188L64.2373 33.4709L64.6785 31.8433L63.7354 30.8545L58.9285 30.5807L54.8974 31.25L58.6699 29.668L63.8723 29.7288L64.7697 28.6945L64.3134 28.0251L58.0006 27.8274L50.8511 30.4438Z" fill="white"/>
<path fill-rule="evenodd" d="M50.8511 30.4438L56.7076 36.8327L56.2969 38.2017L54.8822 37.502L54.8974 38.2169L53.8174 39.1448L54.7453 43.3889L53.4827 47.3895L60.7691 53.0635L61.1037 51.6792L57.8941 48.1501L61.8339 51.3293L62.8379 51.1012L62.777 49.3214L57.8332 45.6858L63.0204 48.7282L63.8723 48.211L63.4007 46.9332L58.2592 44.1495L64.2525 46.4008L64.9371 45.8684L64.07 44.1951L58.6547 42.248L64.6024 43.3737L65.4999 42.4153L64.7241 41.4418L58.4113 40.453L61.8795 40.1488L65.15 40.7877L65.7737 39.1905L64.7089 37.7606L61.3319 37.2738L58.3352 37.289L61.0581 36.6197L64.8762 37.0608L65.1957 35.7831L64.1156 34.4292L59.9477 33.9577L56.9206 34.3075L59.7651 33.3188L64.2373 33.4709L64.6785 31.8433L63.7354 30.8545L58.9285 30.5807L54.8974 31.25L58.6699 29.668L63.8723 29.7288L64.7697 28.6945L64.3134 28.0251L58.0006 27.8274L50.8511 30.4438Z" fill="white"/>
<path fill-rule="evenodd" d="M49.7559 30.7632L47.3677 31.539L52.2354 35.1898L51.2618 36.8326L51.3835 38.08L52.3875 39.2513L51.277 43.7083L53.0416 47.5112L54.2889 43.5105L53.4675 39.0231L54.4715 38.08L54.4563 36.6653L56.0231 37.5476L56.1904 36.863L49.7559 30.7632Z" fill="white"/>
<path fill-rule="evenodd" d="M49.7559 30.7632L47.3677 31.539L52.2354 35.1898L51.2618 36.8326L51.3835 38.08L52.3875 39.2513L51.277 43.7083L53.0416 47.5112L54.2889 43.5105L53.4675 39.0231L54.4715 38.08L54.4563 36.6653L56.0231 37.5476L56.1904 36.863L49.7559 30.7632Z" fill="white"/>
<path fill-rule="evenodd" d="M49.7559 30.7632L47.3677 31.539L52.2354 35.1898L51.2618 36.8326L51.3835 38.08L52.3875 39.2513L51.277 43.7083L53.0416 47.5112L54.2889 43.5105L53.4675 39.0231L54.4715 38.08L54.4563 36.6653L56.0231 37.5476L56.1904 36.863L49.7559 30.7632Z" fill="white"/>
<path fill-rule="evenodd" d="M49.7559 30.7632L47.3677 31.539L52.2354 35.1898L51.2618 36.8326L51.3835 38.08L52.3875 39.2513L51.277 43.7083L53.0416 47.5112L54.2889 43.5105L53.4675 39.0231L54.4715 38.08L54.4563 36.6653L56.0231 37.5476L56.1904 36.863L49.7559 30.7632Z" fill="white"/>
</svg>
