<?xml version="1.0" encoding="utf-8"?>
<!-- Generator: Adobe Illustrator 27.2.0, SVG Export Plug-In . SVG Version: 6.00 Build 0)  -->
<svg version="1.2" baseProfile="tiny-ps" id="Layer_1" xmlns="http://www.w3.org/2000/svg" xmlns:xlink="http://www.w3.org/1999/xlink"
	 viewBox="0 0 389.6 393.5" xml:space="preserve" >
<title>CAMEL</title>
<path d="M270.2,209.7c-6.1,2.4-12.3,4.8-18.4,7.4c-9.5,4.1-19.3,7.4-29.6,8.6c-8.6,1-17.2,1-25.7-0.6c-0.7-0.1-1.4-0.2-2.3-0.3
	c-0.4,9.5,1.1,18.5,4.2,27.2c1.3,3.6,3.4,6.9,4.2,10.5c1.1,4.5,1.9,9.1,1.8,13.7c-0.1,12,2.8,23.4,6.3,34.7
	c1.3,4.3,2.8,8.7,3.6,13.1c0.6,3.3,0.1,6.8,0.1,10.3c0,1.7-0.2,3.5,0.3,5.1c2.4,7.3,0.6,10.9-7.3,11.7c-6.8,0.7-13.7,0.3-20.5,0.1
	c-3.1-0.1-5.2-2.1-5.7-4.4c-0.6-2.8,0.5-5.2,3.5-6.8c2.9-1.5,6-2.8,9-4.1c5.8-2.6,6.9-4.9,6.4-11.1c-1.2-15.4-5.4-29.8-13.4-43.1
	c-3.9-6.5-5.4-13.8-5.9-21.3c-0.5-6.7-4-18.6-6.8-22.6c-0.2,2.4-0.6,4.5-0.6,6.6c0.3,7.8,0.7,15.5,1.3,23.3c0.7,8.8-1,17.1-4.1,25.2
	c-3,7.7-4.1,15.8-4.7,24c-0.5,5.8-0.4,11.7-0.5,17.6c0,0.8,0.1,1.7,0.2,2.5c0.5,2.7,0.4,5.2-1.1,7.7c-1.3,2.1-1.5,4.4-0.8,6.9
	c1.8,6.7-0.2,10.1-7,11.5c-7.5,1.6-15.1,1.9-22.7,0.1c-2.8-0.7-5.8-1.5-6.5-4.9c-0.7-3.3,0.8-6.2,4.3-8.2c2.2-1.3,4.6-2.3,7-3.2
	c4.2-1.6,7.4-3.8,8.5-8.7c0.9-4.3,3.4-8.3,4.2-12.6c2.1-10.6,3.2-21.4,2.3-32.3c-0.3-4-1.3-8-2-12c-0.9-5.9,0-11.7,1.4-17.4
	c1.6-6.4,0.4-12.7-1.1-18.8c-1.9-8.3-4.3-16.4-6.6-24.6c-2.6-9.5-9.3-15.2-17.9-19c-8.3-3.6-16.8-6.9-25.1-10.5
	c-20.4-9-34.3-24.7-43.8-44.5c-3.5-7.3-6.7-14.7-9.3-22.3c-1.6-4.6-2.2-9.7-2.6-14.6c-1-11.6-6.7-19.2-17.7-22.9
	c-4.3-1.5-8.6-2.5-13.2-2c-1.4,0.1-2.8,0-4.2-0.3c-4.3-0.9-5.5-2.9-4.8-7.1c0.1-0.8-0.2-2-0.8-2.6c-1.3-1.7-1.6-3.3-0.9-5.3
	c2.4-6.7,7.8-10.3,14-12.9c2.5-1,5.4-1.4,8.2-1.5c6.4-0.4,12.9-0.3,19.4-0.6c2.3-0.1,4.5-1.4,6.7-1.4c3.9,0,7.9,0.2,11.8,1
	c6.1,1.2,11.9,3.2,17.1,6.8c0.8,0.6,2.3,0.3,3.5,0.3c2.7,0,5.5-0.4,8.1,0.1c4,0.7,5.4,3.6,3.4,7.2c-1.2,2.2-3.1,4-4.8,5.9
	C92,75,91,75.7,90.1,76.4c-1.6,1.1-1.8,2.4-1.6,4.4c0.6,6.5,1,13,0.8,19.5c-0.2,6.5-0.2,12.9,1.9,19.1c1.2,3.6,3.5,6.4,7,8
	c12.6,5.8,24.5,4.7,35.3-4.3c13-10.8,27.4-18.7,43.8-22.8c1.4-0.4,2.9-0.7,4.3-1c5.1-1,9.3-3.4,13-7.2c6.4-6.7,13.6-12.2,22.9-14
	c27.3-5.3,51.9,3.2,67.3,29c1.5,2.5,3.2,5,5.1,7.3c3.2,3.8,7.2,6.2,12.1,7.7c6.4,2,12.3,5.2,17.5,9.6c5.1,4.3,8.1,10,11.8,15.3
	c2.6,3.6,5.1,7.3,8.3,10.4c6.4,6.3,13.2,12.2,19.8,18.4c1.6,1.5,3.3,3,4.2,4.8c3.7,7,7.2,14.2,10.9,21.6c-1.4-0.2-2.8-0.3-4.2-0.7
	c-6.2-1.6-11.9-4.1-16.2-9c-3.2-3.7-4.8-7.8-3.8-12.8c0.4-2.2-0.9-3.6-2.4-4.8c-3.5-2.8-7-5.5-10.9-8.6c0.3,1.8,0.3,3.5,0.8,5.1
	c2.3,7.6,4.7,15.3,7.3,22.8c3,8.7,4,17.7,5.4,26.6c2.2,13.7,5.4,27.2,12.1,39.6c3.5,6.5,4.5,12.7,2.6,19.9
	c-1.5,5.8-2.3,11.9-2.4,17.9c-0.2,12-2.1,23.9,0.4,35.9c0.6,3,0.2,6.3-0.5,9.3c-0.8,3.4-1,6.6,0.1,9.9c1.5,4.4,0.1,7.3-4.4,8.6
	c-7.8,2.2-15.7,2.3-23.6,0.6c-2.4-0.5-4.6-1.6-5-4.5c-0.4-2.7,0.8-4.9,3.1-6.4c2.3-1.5,4.9-2.8,7.3-4.1c3.3-1.8,5.7-4,5.8-8.2
	c0.1-1.8,1.3-3.7,2.2-5.5c1.5-2.9,2.2-5.8,2.2-9c-0.1-16.7-1.4-33.3-8.1-48.8c-3.3-7.6-7.7-14.8-11.8-22c-3.8-6.7-8-13.1-12-19.6
	c-0.2-0.3-0.4-0.5-1.1-1.3c0,4.9-0.2,9.3,0.1,13.6c0.6,8.2,1.4,16.3,2.2,24.4c0.1,1.2,0.3,2.3,0.5,3.4c0.8,5.3-1.4,9.4-4.4,13.5
	c-3.5,4.7-6.8,9.6-10,14.5c-4.1,6.2-5.3,13.3-6.4,20.4c-0.6,4-2,7.5-5.2,10.1c-3.1,2.6-4.1,5.4-2.2,9.4c1.5,3.1,0.1,6-3.1,7.3
	c-2,0.8-4.1,1.4-6.2,1.5c-6.5,0.5-13,1-19.5-0.7c-2.1-0.5-4-1.3-4.6-3.6c-0.6-2.5,0.3-4.7,2.3-6.2c2.3-1.6,4.7-3.1,7.3-4
	c5.4-1.8,9-4.9,10.9-10.5c0.9-2.7,3.4-4.8,5.1-7.2c1.8-2.5,4.1-4.9,5.1-7.7c3-8.4,5.8-16.8,7.9-25.5c2.7-10.9,0.6-21.7-3.2-32.1
	c-4.3-11.7-10.8-22.2-17.2-32.9C274.6,217.5,272.5,213.9,270.2,209.7z" fill="#EAAA00" />
</svg>
