<svg version="1.2" baseProfile="tiny-ps" id="Layer_1" xmlns="http://www.w3.org/2000/svg" xmlns:xlink="http://www.w3.org/1999/xlink" viewBox="0 0 1080 1080" xml:space="preserve"><title>ActiveTrail</title><path id="Path_25" d="M0,1078.98h1078.99V0H0v1078.98Z" fill="#242b3b" stroke-width="0"/><path id="Path_63" d="M141.62,583.07l-4.89,28.4h-32.05l30.55-143.91h40.13l26.29,143.91h-32.03l-4.69-28.4h-23.3,0ZM162.35,557.65l-3.63-27.33c-1.09-8.11-3.01-23.68-4.35-32.59h-.41c-1.5,8.98-3.65,24.99-4.93,32.59l-4.35,27.33h17.67,0Z" fill="#FFFFFF" stroke-width="0"/><path id="Path_64" d="M284.66,609.53c-7.07,2.4-14.52,3.49-21.99,3.22-40.56,0-57.01-33.52-57.01-70.9,0-53.16,30.96-75.59,61.07-75.59,6.97-.36,13.92.96,20.28,3.84l-5.13,27.79c-3.85-1.89-8.09-2.85-12.39-2.78-16.21,0-28.81,13.23-28.81,45.26,0,30.11,11.73,43.13,28.4,43.13,4.31-.11,8.59-.68,12.77-1.7l2.8,27.72h0Z" fill="#FFFFFF" stroke-width="0"/><path id="Path_65" d="M322.89,498.29h-24.99v-30.74h83.37v30.74h-25.27v113.17h-33.09l-.02-113.17Z" fill="#FFFFFF" stroke-width="0"/><path id="Path_66" d="M428.56,467.55v143.91h-33.09v-143.91h33.09Z" fill="#FFFFFF" stroke-width="0"/><path id="Path_67" d="M471.47,611.46l-31.83-143.91h36.75l8.54,59.8c2.17,15.21,4.51,31.37,6.19,47.61h.41c1.72-16.43,3.43-32.44,5.56-48.26l8.11-59.14h36.52l-32.59,143.91h-37.66Z" fill="#FFFFFF" stroke-width="0"/><path id="Path_68" d="M616.65,550.39h-31.4v32.45h35.24v28.61h-68.35v-143.91h65.9v28.61h-32.81v26.9h31.4v27.33s.01,0,.01,0Z" fill="#FFFFFF" stroke-width="0"/><g id="Group_274"><path id="Path_69" d="M660.04,475.73h-26.89v-7.88h63.01v7.88h-26.92v136h-9.2v-136h0Z" fill="#FFFFFF" stroke-width="0"/><path id="Path_70" d="M713,469.99c6.26-2,12.83-2.91,19.4-2.7,10.53-.91,20.96,2.75,28.61,10.03,14.7,18.25,11.83,44.95-6.42,59.65-2.44,1.97-5.09,3.65-7.9,5.03v.47c11.1,2.78,17.1,13.67,20.51,34.59,1.41,11.82,3.99,23.46,7.69,34.76h-9.19c-3.71-11.85-6.36-23.99-7.91-36.31-3.63-20.93-10.86-29.67-27.75-29.67h-7.91v65.98h-9.17l.02-141.84h0ZM722.17,538.52h8.06c16.54.38,30.25-12.72,30.63-29.25.02-1.11-.01-2.22-.11-3.33,0-19.23-7.91-30.79-28.84-30.79-3.3-.09-6.59.2-9.83.87l.07,62.51h0Z" fill="#FFFFFF" stroke-width="0"/><path id="Path_71" d="M810.14,562.22l-11.54,49.57h-8.98l34.02-143.91h8.69l34.37,143.91h-9.41l-11.51-49.57h-35.65,0ZM843.66,554.31l-9.15-40.56c-2.56-11.1-4.51-21.36-6.52-32.88h-.85c-1.72,11.73-3.84,22.42-6.19,33.09l-8.98,40.35h31.68Z" fill="#FFFFFF" stroke-width="0"/><path id="Path_72" d="M895.53,467.84v143.91h-9.17v-143.91h9.17Z" fill="#FFFFFF" stroke-width="0"/><path id="Path_73" d="M922.43,467.84h9.19v136h42.69v7.91h-51.89v-143.91h0Z" fill="#FFFFFF" stroke-width="0"/></g></svg>