<?xml version="1.0" encoding="utf-8"?>
<svg version="1.2" baseProfile="tiny-ps" id="Layer_1" xmlns="http://www.w3.org/2000/svg" xmlns:xlink="http://www.w3.org/1999/xlink" viewBox="0 0 1190.1 1190.1" xml:space="preserve">
	<title>Norlys</title>
<g>
	<polygon fill="#ED0812" points="231.3,619.4 136.6,505 102,505 102,685.6 140.3,685.6 140.3,569.8 236.2,685.6 269.8,685.6 
		269.8,505 231.3,505 	"/>
	<polygon fill="#ED0812" points="900.7,505 857.2,582.5 813.6,505 770.3,505 837.8,621.8 837.8,685.6 876.6,685.6 876.6,621.8 
		944.1,505 	"/>
	<polygon fill="#ED0812" points="719.4,505 680.9,505 680.9,685.6 808.1,685.6 808.1,647.9 719.4,647.9 	"/>
	<path fill="#ED0812" d="M626,611.9c16.4-11,26.2-29.2,26.2-48.8c0-29.9-22.7-54.5-51.9-57.8c-1.9-0.2-5.2-0.4-8.2-0.4h-91.7v180.6
		h38.5v-63.6H577l36.1,63.6h43.3l-39.3-69.1C622.5,614.3,625.4,612.3,626,611.9z M593.3,584.4h-54.8v-41.6h53
		c2.8,0.1,5.8,0.3,8.9,1.3c7.9,2.9,13.5,10.7,13.5,19.7C613.9,575.2,604.7,584.4,593.3,584.4z"/>
	<path fill="#ED0812" d="M454.7,523.2c-12.9-12.9-29.4-20.5-47.1-21.6c-7.1-0.5-12.9-0.5-12.9-0.5v39c0,0,10.6,0.5,16,1.9
		c14.8,3.8,26.4,17.7,27.2,34.2c1,18.8,1,21,0,37.4c-1,16.6-12.6,30.7-27.3,34.4c-6.2,1.6-15.9,2.1-15.9,2.1V689c0,0,8-0.1,12.9-0.4
		c17.8-1.2,34.1-8.8,47-21.7c13.6-13.6,21.7-31.6,22.9-50.8c1.1-18,1-21.6,0-41.8C476.5,555.1,468.4,536.9,454.7,523.2z"/>
	<path fill="#ED0812" d="M362.7,501.6c-17.7,1.2-34.2,8.7-47.1,21.6c-13.8,13.7-21.9,31.8-22.8,51.1c-1,20.1-1.1,23.8,0,41.8
		c1.2,19.1,9.3,37.2,22.9,50.8c12.9,12.9,29.2,20.5,47,21.7c4.9,0.3,12.9,0.4,12.9,0.4v-38.9c0,0-9.7-0.5-15.9-2.1
		c-14.7-3.8-26.3-17.8-27.3-34.4c-1-16.4-0.9-18.6,0-37.4c0.8-16.6,12.5-30.4,27.2-34.2c5.4-1.4,16-1.9,16-1.9v-39
		C375.5,501.2,369.8,501.1,362.7,501.6z"/>
	<path fill="#ED0812" d="M1040.3,578.3c-8.9-2-19.3-3.5-28.6-4.9c-6.5-1-12.7-1.9-16-2.7c-13.5-3-13.4-11.6-13.4-15.4
		c0.1-9.5,11-15.2,21.7-16c1.8-0.2,4-0.3,6.6-0.3c2.8,0,5.1,0.1,7,0.3c14.1,0.9,22.3,8.2,24.6,13.7c0.7,1.8,1.1,2.8,1.1,2.8h37.6
		c0-13.8-6.7-27.6-18.5-37.8c-11.4-9.9-26.7-15.9-43.2-16.7c-4.3-0.2-10.1-0.3-14.8-0.1c-34.1,1-60,24.2-60.2,53.8
		c-0.2,26.2,16.3,46.2,43.1,52.2c4.6,1,11.1,2,18.7,3.1c8.7,1.3,18.5,2.8,26,4.4c18.5,4.1,18.4,14.1,18.4,17.4
		c-0.1,12.5-12.1,16.6-21,18c-3,0.6-7.7,1.2-14.2,1.1c-6.7,0-11.4-0.4-14.6-0.9c-7.7-0.8-14.6-4.1-19.6-9c-3.1-3.1-4.7-6.1-5.9-10.6
		h-37.5c0,13.5,5.7,26.8,16.3,37.4c14.4,14.4,32.3,19.9,51,20.4c6.2,0.2,8.5,0.2,15.6,0.2c17.9-0.1,32.7-3.5,47.4-14.5
		c13.3-10,20.3-25.1,20.5-41.8C1088.8,605.3,1070.3,585,1040.3,578.3z"/>
</g>
</svg>