<?xml version="1.0" encoding="UTF-8" standalone="yes"?>
<svg version="1.2" baseProfile="tiny-ps" viewBox="0 0 113.39 113.39" xml:space="preserve" xmlns="http://www.w3.org/2000/svg">
  <title>bimi-svg-tiny-12-ps</title>
  <rect x="0" y="0" fill="#FFFFFF" width="113.39" height="113.39"/>
  <g transform="translate(0.000000,3061.000000) scale(0.100000,-0.100000)">
    <path d="M564.78,30384.34c-0.7-0.89-21.45-27.52-46.04-59.19c-24.63-31.67-49.12-63.16-54.41-69.97&#xD;&#xA;&#x9;&#x9;c-5.3-6.78-9.96-12.78-10.37-13.34c-0.41-0.52-4.26-5.52-8.59-11.11c-4.33-5.56-7.89-10.34-7.89-10.56&#xD;&#xA;&#x9;&#x9;c0-0.56,1.89-3.04,15.37-20.37c5.52-7.08,32.63-41.97,60.3-77.57c27.67-35.6,50.9-65.42,51.6-66.31&#xD;&#xA;&#x9;&#x9;c2.59-3.11-3.89-10.85,67.56,81.05c37.08,47.67,64.08,82.71,64.08,83.16c0,0.41-28.45,37.34-64.12,83.16&#xD;&#xA;&#x9;&#x9;C561,30394.97,567.3,30387.41,564.78,30384.34z"/>
    <path d="M314.12,30314.78c-0.63-0.63-0.7-1.07-0.52-3.59c0.11-1.59,1.26-28.82,2.56-60.49c3.74-90.31,22.74-544.81,22.89-547.45&#xD;&#xA;&#x9;&#x9;c0.07-1.78,0.3-2.48,0.81-2.85c0.59-0.45,35.12-0.52,226.07-0.52c154.61,0,225.55,0.11,226.07,0.37c0.41,0.26,0.7,0.78,0.7,1.41&#xD;&#xA;&#x9;&#x9;c0,0.78-10.08,13.96-43.08,56.38c-23.67,30.45-64.86,83.46-91.57,117.79c-26.67,34.34-66.27,85.27-87.97,113.16&#xD;&#xA;&#x9;&#x9;c-21.71,27.93-39.78,51.19-40.19,51.71c-0.41,0.56-3,3.89-5.78,7.41c-5.19,6.7-82.86,106.57-85.38,109.83&#xD;&#xA;&#x9;&#x9;c-0.81,1.04-4.59,5.96-8.48,10.93c-3.85,4.96-30.93,39.78-60.12,77.38c-29.23,37.6-53.38,68.57-53.71,68.82&#xD;&#xA;&#x9;&#x9;C315.6,30315.7,314.97,30315.63,314.12,30314.78z"/>
    <path d="M817.37,30314.7c-0.52-0.48-11.3-14.19-23.93-30.49c-12.67-16.3-24.26-31.23-25.78-33.15c-1.48-1.93-21-27-43.34-55.75&#xD;&#xA;&#x9;&#x9;c-22.34-28.71-47.49-61.05-55.86-71.83c-8.37-10.78-15.74-20.26-16.37-21.11c-0.63-0.81-14.52-18.67-30.86-39.67&#xD;&#xA;&#x9;&#x9;c-16.37-20.96-29.93-38.52-30.15-39.01c-0.3-0.67-0.3-1.04,0.07-1.63c0.26-0.45,27.26-35.23,59.97-77.31&#xD;&#xA;&#x9;&#x9;c32.75-42.08,72.01-92.61,87.27-112.28c57.23-73.64,56.12-72.23,57.04-72.23c2.07,0,1.63-6.85,6.3,104.64&#xD;&#xA;&#x9;&#x9;c8.45,202.03,18,430.58,18.41,439.84l0.41,9.45l-0.81,0.67C818.7,30315.7,818.48,30315.7,817.37,30314.7z"/>
  </g>
</svg>