<?xml version="1.0" encoding="UTF-8" standalone="yes"?>
<svg version="1.2" baseProfile="tiny-ps" viewBox="0 0 450 450" xml:space="preserve" xmlns="http://www.w3.org/2000/svg">
  <title>OneIMS, Inc.</title>
  <linearGradient id="SVGID_1_" gradientUnits="userSpaceOnUse" x1="-0.5" y1="227" x2="450.5" y2="227"/>
  <rect fill="#FFFFFF" stroke="url(#SVGID_1_)" stroke-miterlimit="10" width="450" height="450"/>
  <rect x="1" fill="#32AAEB" stroke="#000000" stroke-miterlimit="10" width="450" height="450"/>
  <path id="Path_374" fill="#FFFFFF" d="M78.3,188.2c-13.9,0-24.8,6.8-24.8,25v24.3c0,18.2,10.8,25,24.8,25s24.8-6.8,24.8-25v-24.3&#xA;&#x9;C103.1,195.1,92.2,188.2,78.3,188.2z M93.4,237.5c0,11.1-5.7,16.3-15.1,16.3s-15.1-5.2-15.1-16.3v-24.3c0-11.1,5.7-16.3,15.1-16.3&#xA;&#x9;s15.1,5.2,15.1,16.3V237.5z"/>
  <path id="Path_375" fill="#FFFFFF" d="M144.3,206.8c-7.8,0-13,4.2-15.3,8.7v-4.7c0-1.9-2.1-3.3-4.2-3.3c-2.8,0-4.7,1.4-4.7,3.3v47.6&#xA;&#x9;c0,1.7,1.9,3.5,4.7,3.5c2.6,0,4.7-1.7,4.7-3.5v-29.7c0-8.5,6.4-13.4,12.5-13.4c7.1,0,13.2,6.6,13.2,13.4v29.7c0,2.4,2.4,3.5,4.7,3.5&#xA;&#x9;s4.7-1.2,4.7-3.5v-29.7C164.6,216.7,155.4,206.8,144.3,206.8z"/>
  <path id="Path_376" fill="#FFFFFF" d="M249.5,188.4c-2.4,0-4.7,0.9-4.7,3.3v66.7c0,2.4,2.4,3.5,4.7,3.5s5-1.2,5-3.5v-66.7&#xA;&#x9;C254.2,189.4,251.9,188.4,249.5,188.4z"/>
  <path id="Path_377" fill="#FFFFFF" d="M330.6,188.2c-3.5,0-5.4,2.1-7.8,6.1L304.7,229l-17.9-34.7c-2.1-4-4.2-6.1-7.8-6.1&#xA;&#x9;c-2.6,0-4.7,1.2-4.7,4.7v65.6c0,2.4,2.4,3.5,4.7,3.5s5-1.2,5-3.5V208l17.2,33c0.6,1.5,2,2.5,3.5,2.6c1.7,0,3.2-1,3.8-2.6l17.5-32.5&#xA;&#x9;v50c0,2.4,2.4,3.5,4.7,3.5s5-1.2,5-3.5v-65.6C335.6,189.4,333.2,188.2,330.6,188.2z"/>
  <path id="Path_378" fill="#FFFFFF" d="M362.7,205.4c0-7.8,8-11.1,14.4-10.1c8.7,1.7,10.8,6.1,13.2,6.6c2.1,0.4,4.2-0.8,5-2.8&#xA;&#x9;c1.2-4.5-8.5-12-18.6-12c-11.3,0-22.4,5.2-22.4,18.9c0,24.8,33.5,15.6,33.5,36.1c0,8.5-5.7,12.7-14.1,12.7c-12,0-14.4-8.3-17.5-8.3&#xA;&#x9;c-1.9,0-3.8,2.6-3.8,4.7c0,4.5,8.5,11.6,21.7,11.6c13,0,22.4-6.8,22.4-21.5C396.4,213.7,362.7,222.6,362.7,205.4z"/>
  <path id="Path_379" fill="#FFFFFF" d="M215.3,238.4c5.2,0,10.1-1.2,10.1-10.4c0-12.3-10.4-21.2-22.2-21.2&#xA;&#x9;c-12.7,0-22.9,9.9-22.9,21.7v12c0,13.4,10.6,22.4,25.5,22.4c11.1,0,18.2-5.2,18.2-8.3c0-1.7-1.7-4.5-4-4.5c-2.8,0-5.2,4.5-13.9,4.5&#xA;&#x9;c-9.4,0-16.3-5.4-16.3-13.9v-2.6L215.3,238.4z M203.5,214.4c7.5,0,13.2,5.2,13.2,11.8c0,3.1-0.9,3.8-5,3.8h-21.2v-3.1&#xA;&#x9;C190.3,219.8,196.2,214.4,203.5,214.4z"/>
</svg>