<?xml version="1.0" encoding="UTF-8" standalone="yes"?>
<svg version="1.2" baseProfile="tiny-ps" xmlns="http://www.w3.org/2000/svg" width="300" height="300" viewBox="0 0 300 300" fill="none">
  <title>Vagaro, Inc.</title>
  <rect width="300" height="300" fill="white"/>
  <path d="M268.146 91.4493C265.312 80.842 258.51 71.9959 248.996 66.5101C229.38 55.174 204.198 61.9352 192.862 81.5505L149.988 155.822L107.093 81.5303C95.7569 61.9149 70.595 55.174 50.9593 66.4898C31.3439 77.8258 24.603 102.988 35.9188 122.623L114.34 258.433C119.826 267.947 128.692 274.729 139.279 277.583C142.822 278.534 146.405 279 149.988 279C154.097 279 158.166 278.372 162.093 277.138C171.668 274.202 180.21 267.765 185.615 258.433L264.036 122.623C269.522 113.129 270.98 102.057 268.146 91.4493ZM57.68 78.1497C70.8784 70.5384 87.8217 75.0728 95.433 88.2712L142.214 169.283L114.461 217.36C112.943 219.972 111.749 222.704 110.858 225.518L47.5585 115.903C39.9472 102.704 44.4816 85.7611 57.68 78.1497ZM252.397 115.903L173.976 251.713C171.445 256.105 167.882 259.526 163.773 261.874L163.753 261.834C159.765 264.142 155.413 265.336 151.101 265.498C150.959 265.498 150.818 265.518 150.656 265.518C150.514 265.518 150.393 265.518 150.251 265.518C145.474 265.559 140.635 264.385 136.223 261.834C123.024 254.223 118.49 237.279 126.101 224.081L204.522 88.2712C208.206 81.8744 214.178 77.2995 221.304 75.3967C223.692 74.7489 226.101 74.4453 228.51 74.4453C233.308 74.4453 238.024 75.7003 242.275 78.17C248.672 81.8542 253.247 87.8259 255.15 94.9514C257.053 102.057 256.081 109.506 252.397 115.903Z" fill="#CC4744"/>
  <path d="M151.142 247.588C157.536 247.588 162.721 242.404 162.721 236.009C162.721 229.614 157.536 224.43 151.142 224.43C144.747 224.43 139.563 229.614 139.563 236.009C139.563 242.404 144.747 247.588 151.142 247.588Z" fill="#CC4744"/>
</svg>