<?xml version="1.0" encoding="utf-8"?>
<!-- Generator: Adobe Illustrator 28.3.0, SVG Export Plug-In . SVG Version: 6.00 Build 0)  -->
<svg version="1.2" baseProfile="tiny-ps" id="Layer_1" xmlns="http://www.w3.org/2000/svg" xmlns:xlink="http://www.w3.org/1999/xlink"
	 viewBox="0 0 1000 1000" xml:space="preserve">
<title>Acme Real Estate</title>
<g>
	<g>
		<path d="M295.1,465.6L283,431.3h-56.3l-12.1,34.3h-33l58.9-153.8h29.9l58.5,153.8L295.1,465.6L295.1,465.6z M262.5,374.1
			c-3.1-9-6.2-18.2-7.7-24c-1.5,5.7-4.6,14.9-7.7,24l-9.9,27.9h35.2L262.5,374.1z"/>
		<path d="M445.4,356.5c-5.5-10.6-14.3-16.7-28.1-16.7c-23.1,0-36.3,20.2-36.3,48.8c0,27.7,13.4,48.8,36.5,48.8
			c13.8,0,22-5.9,30.1-19.6l25.9,15.4C463,455,444.5,468,416.6,468c-40.2,0-67.3-30.8-67.3-79.3c0-46.8,28.1-79.3,68.4-79.3
			c29,0,46.6,14.1,56.3,34.1L445.4,356.5z"/>
		<path d="M623.4,465.6v-56.5c0-8.4,0.4-27.9,0.4-33.8c-2.2,5.7-6.8,16.7-10.8,25.5l-31.2,68.4l-31.2-68.4
			c-4-8.8-8.6-19.8-10.8-25.5c0,5.9,0.4,25.5,0.4,33.8v56.5h-30.1V311.7h29.7l32.1,69.7c4,8.6,8.6,20.2,10.6,25.7
			c2-5.7,6.4-16.9,10.3-25.7l31-69.7h30.3v153.8h-30.7V465.6z"/>
		<path d="M699.2,465.6V311.7H806v30.1h-76v26.6h44.2v29.9H730v37.1h79.3v30.1L699.2,465.6L699.2,465.6z"/>
	</g>
	<g>
		<path d="M403,612.9l-13.3-26.7h-15v26.7h-14.8v-74.2h34.6c14,0,25.6,7.7,25.6,23.5c0,11.1-4.8,18.1-14.2,21.8l14.2,28.9H403z
			 M394.2,553.1h-19.4v19.1h19.4c6.9,0,10.6-3.2,10.6-9.7C404.8,555.8,400.8,553.1,394.2,553.1z"/>
		<path d="M438.3,612.9v-74.2h51.5v14.5h-36.7V566h21.3v14.4h-21.3v17.9h38.3v14.5L438.3,612.9L438.3,612.9z"/>
		<path d="M559.4,612.9l-5.8-16.5h-27.2l-5.8,16.5h-15.9l28.4-74.2h14.4l28.2,74.2H559.4z M543.7,568.8c-1.5-4.3-3-8.8-3.7-11.6
			c-0.7,2.8-2.2,7.2-3.7,11.6l-4.8,13.5h17L543.7,568.8z"/>
		<path d="M592.1,612.9v-74.2H607v59.6h37.2v14.6L592.1,612.9L592.1,612.9z"/>
		<path d="M303.7,745v-74.2h51.5v14.5h-36.7v12.8h21.3v14.4h-21.3v17.9h38.3V745H303.7z"/>
		<path d="M399,746.1c-12.4,0-23.2-5.2-28.9-13.5l10.7-9.5c5.2,6,11.9,8.5,19,8.5c8.8,0,12.9-2.4,12.9-8.1c0-4.8-2.5-6.9-16.5-10.1
			c-13.7-3.2-23.2-7.5-23.2-22.2c0-13.5,11.9-21.7,26.5-21.7c11.6,0,20,4.3,27,11.7l-10.7,10.4c-4.8-4.9-10.1-7.6-16.9-7.6
			c-8,0-10.6,3.4-10.6,6.7c0,4.7,3.2,6.2,15,8.9c11.8,2.8,24.8,6.8,24.8,22.9C428.1,736.6,419.2,746.1,399,746.1z"/>
		<path d="M475.1,685.3V745h-14.8v-59.6H439v-14.6h57.5v14.6h-21.4V685.3z"/>
		<path d="M552.8,745l-5.8-16.5h-27.2L514,745h-15.9l28.4-74.2h14.4l28.2,74.2H552.8z M537.1,700.8c-1.5-4.3-3-8.8-3.7-11.6
			c-0.7,2.8-2.2,7.2-3.7,11.6l-4.8,13.5h17L537.1,700.8z"/>
		<path d="M606.9,685.3V745h-14.8v-59.6h-21.3v-14.6h57.5v14.6h-21.4V685.3z"/>
		<path d="M645.2,745v-74.2h51.5v14.5H660v12.8h21.3v14.4H660v17.9h38.3V745H645.2z"/>
	</g>
</g>
</svg>
