<?xml version="1.0" encoding="utf-8"?>
<!-- Generator: Adobe Illustrator 27.8.1, SVG Export Plug-In . SVG Version: 6.00 Build 0)  -->
<svg version="1.2" baseProfile="tiny-ps" id="Layer_1" xmlns="http://www.w3.org/2000/svg" xmlns:xlink="http://www.w3.org/1999/xlink"
	  viewBox="0 0 365.9 425.2" xml:space="preserve">
<title>Josh Phegan</title>
<polygon points="224.6,280.3 207.2,280.3 215.9,254 "/>
<path d="M57.8,261.8c0,3.3-0.9,5.8-2.7,7.6c-2,1.9-4.7,2.8-8.1,2.8H36.5v-21.4H47c3.3,0,5.9,1,7.8,2.9
	C56.8,255.7,57.8,258.4,57.8,261.8z"/>
<path d="M0,0v332.8h240.3v92.4l92.5-92.4V0H0z M142,175.2c0-0.8,0.3-1.4,0.8-1.9s1.2-0.8,1.9-0.8s1.4,0.3,1.9,0.8
	c0.6,0.6,0.8,1.2,0.8,1.9v22h23.4v-22c0-0.8,0.3-1.4,0.8-1.9s1.2-0.8,1.9-0.8s1.4,0.3,1.9,0.8c0.5,0.6,0.8,1.2,0.8,1.9v51.4
	c0,0.7-0.3,1.4-0.8,1.9c-0.6,0.5-1.2,0.8-1.9,0.8s-1.4-0.3-1.9-0.8c-0.6-0.5-0.8-1.2-0.8-1.9v-24.1h-23.4v24.1
	c0,0.7-0.3,1.4-0.8,1.9s-1.2,0.8-1.9,0.8s-1.4-0.3-1.9-0.8c-0.6-0.5-0.8-1.2-0.8-1.9V175.2z M27.7,228c-0.5-0.4-0.7-1-0.7-1.7
	c0-0.9,0.3-1.6,0.8-2.1c0.6-0.4,1.2-0.7,1.9-0.7c0.3,0,0.9,0.1,1.6,0.2c0.8,0.1,1.7,0.2,3,0.2s2.3-0.2,3.4-0.7s2-1.1,2.7-1.9
	c0.8-0.8,1.4-1.7,1.8-2.8s0.7-2.2,0.7-3.4v-40c0-0.8,0.3-1.4,0.8-1.9s1.2-0.8,2-0.8s1.4,0.2,1.9,0.8c0.5,0.5,0.8,1.1,0.8,1.9v40
	c0,1.9-0.4,3.8-1.1,5.5c-0.8,1.7-1.8,3.3-3.1,4.6s-2.8,2.3-4.5,3s-3.5,1.1-5.5,1.1c-0.9,0-1.7,0-2.5-0.1s-1.6-0.1-2.4-0.3
	C28.8,228.8,28.2,228.5,27.7,228L27.7,228L27.7,228z M59,273.2c-3,2.9-6.9,4.4-11.8,4.4H36.5V299c0,0.8-0.3,1.4-0.8,1.9
	c-0.6,0.5-1.2,0.8-2,0.8s-1.4-0.3-1.9-0.8c-0.6-0.5-0.8-1.2-0.8-1.9v-49.7c0-1.1,0.4-1.9,1.1-2.7c0.7-0.7,1.6-1.1,2.6-1.1h12.5
	c4.8,0,8.7,1.5,11.6,4.4c3,3,4.5,7,4.5,11.9S61.9,270.4,59,273.2L59,273.2L59,273.2z M58.3,211.3v-20.9c0-5.3,1.7-9.7,5-13
	s7.7-4.9,13-4.9s9.7,1.6,13.1,4.9c3.3,3.3,5,7.7,5,13v20.9c0,5.4-1.7,9.7-5,13s-7.7,5-13.1,5s-9.7-1.7-13-5S58.3,216.7,58.3,211.3z
	 M106.4,298.9c0,0.7-0.3,1.4-0.8,1.9c-0.5,0.6-1.2,0.8-1.9,0.8s-1.4-0.3-1.9-0.8c-0.6-0.5-0.8-1.2-0.8-1.9v-24.1H77.5v24.1
	c0,0.7-0.3,1.4-0.8,1.9c-0.5,0.6-1.2,0.8-1.9,0.8s-1.4-0.3-1.9-0.8s-0.8-1.2-0.8-1.9v-51.4c0-0.8,0.3-1.4,0.8-1.9
	c0.6-0.5,1.2-0.8,1.9-0.8s1.4,0.3,1.9,0.8c0.6,0.6,0.8,1.2,0.8,1.9v22h23.4v-22c0-0.8,0.3-1.4,0.8-1.9s1.2-0.8,1.9-0.8
	s1.4,0.3,1.9,0.8c0.6,0.6,0.8,1.2,0.8,1.9L106.4,298.9L106.4,298.9z M109.5,228.5c-2.2-0.5-4.4-1.3-6.5-2.2c-0.5-0.2-0.9-0.5-1.1-1
	c-0.3-0.4-0.4-0.9-0.4-1.5c0-0.7,0.3-1.4,0.8-1.9s1.1-0.8,1.9-0.8c0.4,0,0.8,0.1,1.1,0.2c1.8,0.8,3.6,1.5,5.4,2
	c1.9,0.5,3.8,0.7,5.8,0.7c3.8,0,6.7-0.9,8.6-2.6s2.8-4.2,2.8-7.4c0-1.3-0.2-2.4-0.7-3.4s-1.1-2-1.9-2.8s-1.7-1.6-2.6-2.2
	c-1-0.6-2-1.2-3.1-1.7l-8.6-4.2c-1.5-0.7-2.8-1.4-3.9-2.2c-1.2-0.8-2.2-1.7-3-2.8s-1.4-2.3-1.9-3.7c-0.4-1.4-0.7-3.1-0.7-4.9
	c0-2.2,0.4-4.1,1.3-5.8s2.1-3.2,3.6-4.4s3.2-2.1,5.2-2.7c2-0.6,4.1-0.9,6.3-0.9c2.7,0,5,0.2,7.1,0.7c2,0.5,3.9,1.1,5.8,1.9
	c0.6,0.2,1,0.5,1.3,1c0.3,0.4,0.4,1,0.4,1.6c0,0.7-0.2,1.3-0.8,1.8c-0.5,0.5-1.1,0.8-1.9,0.8c-0.4,0-0.8-0.1-1.1-0.2
	c-1.6-0.7-3.2-1.2-4.9-1.7s-3.7-0.7-5.8-0.7c-1.3,0-2.5,0.1-3.8,0.4s-2.5,0.8-3.6,1.5s-1.9,1.6-2.6,2.8s-1,2.5-1,4.1
	c0,2,0.5,3.7,1.6,5c1.1,1.4,2.6,2.6,4.7,3.6l8.6,4.2c1.5,0.7,2.9,1.5,4.3,2.4s2.6,1.9,3.7,3c1.1,1.2,1.9,2.5,2.5,4.1
	s0.9,3.4,0.9,5.5c0,2.5-0.4,4.6-1.4,6.5c-0.9,1.9-2.1,3.4-3.7,4.7c-1.5,1.3-3.3,2.2-5.4,2.9c-2,0.7-4.2,1-6.5,1
	S111.7,229,109.5,228.5L109.5,228.5L109.5,228.5z M147.3,300.1c-0.5,0.5-1.1,0.8-1.9,0.8h-23.5c-1.1,0-1.9-0.4-2.6-1.1
	s-1.1-1.6-1.1-2.6v-47.9c0-1.1,0.4-1.9,1.1-2.7c0.7-0.7,1.6-1.1,2.6-1.1h23c0.8,0,1.4,0.3,1.9,0.8s0.8,1.2,0.8,1.9s-0.3,1.4-0.8,1.9
	s-1.1,0.8-1.9,0.8h-21.2v18.8h20.1c0.8,0,1.4,0.2,1.9,0.8c0.5,0.5,0.8,1.1,0.8,1.8s-0.3,1.4-0.8,1.9s-1.2,0.8-1.9,0.8h-20.1v20.7
	h21.6c0.8,0,1.4,0.3,1.9,0.8s0.8,1.1,0.8,1.9S147.8,299.6,147.3,300.1z M189.8,295.7c0,0.7-0.2,1.4-0.5,2s-0.9,1.1-1.6,1.4
	c-1.8,0.8-3.9,1.5-6.3,2c-2.4,0.5-4.8,0.7-7.2,0.7c-5.7,0-10.3-1.7-13.8-5.2c-3.5-3.6-5.2-8.2-5.2-13.8v-18.9
	c0-5.7,1.7-10.4,5.2-13.8c3.5-3.4,8.1-5.2,13.8-5.2c2,0,4.1,0.3,6.3,0.9c2.2,0.6,4.2,1.4,6,2.5c0.4,0.3,0.8,0.6,1,1s0.3,0.9,0.3,1.4
	c0,0.7-0.2,1.3-0.8,1.8s-1.1,0.8-1.9,0.8c-0.5,0-1-0.1-1.4-0.3c-1.2-0.6-2.6-1.2-4.3-1.8c-1.7-0.7-3.4-1-5.2-1
	c-4.1,0-7.4,1.2-9.8,3.6c-2.4,2.5-3.7,5.8-3.7,10v19.4c0,4.1,1.2,7.5,3.7,10c2.4,2.4,5.7,3.6,9.8,3.6c1.7,0,3.5-0.1,5.2-0.5
	c1.8-0.3,3.4-0.7,4.9-1.3v-18.2h-9.1c-0.8,0-1.4-0.2-1.9-0.8c-0.5-0.5-0.8-1.1-0.8-1.9s0.3-1.4,0.8-1.9s1.1-0.8,1.9-0.8h10.9
	c1,0,1.9,0.4,2.6,1c0.7,0.7,1.1,1.6,1.1,2.6V295.7L189.8,295.7L189.8,295.7z M235.6,300.9c-0.5,0.6-1.2,0.8-1.9,0.8
	c-0.6,0-1.1-0.1-1.6-0.5c-0.4-0.3-0.8-0.8-1-1.4l-4.8-14.3h-21l-4.8,14.3c-0.2,0.6-0.5,1-1,1.4c-0.4,0.3-1,0.5-1.6,0.5
	c-0.7,0-1.3-0.3-1.9-0.8c-0.5-0.5-0.8-1.2-0.8-1.9c0-0.1,0-0.3,0-0.4s0.1-0.3,0.1-0.4l17.4-51.3c0.2-0.6,0.6-1.1,1.1-1.5
	s1.2-0.6,1.9-0.6s1.3,0.2,1.9,0.6c0.5,0.4,0.9,0.9,1.1,1.5l17.4,51.3c0.1,0.1,0.1,0.3,0.1,0.4s0,0.3,0,0.4
	C236.4,299.7,236.1,300.3,235.6,300.9L235.6,300.9L235.6,300.9z M278.5,298.5c0,0.9-0.3,1.6-1,2.3s-1.4,1-2.3,1
	c-0.6,0-1.1-0.1-1.6-0.5c-0.5-0.3-0.9-0.7-1.1-1.2L249,256.9v42c0,0.7-0.3,1.4-0.8,1.9c-0.5,0.6-1.2,0.8-1.9,0.8s-1.4-0.3-1.9-0.8
	c-0.6-0.5-0.8-1.2-0.8-1.9V248c0-0.9,0.3-1.7,0.9-2.3c0.6-0.6,1.4-0.9,2.2-0.9c1.3,0,2.2,0.5,2.9,1.6l23.4,43.2v-42.1
	c0-0.8,0.3-1.4,0.8-1.9c0.6-0.5,1.2-0.8,2-0.8s1.4,0.3,1.9,0.8c0.5,0.6,0.8,1.2,0.8,1.9L278.5,298.5L278.5,298.5L278.5,298.5z"/>
<path d="M88.8,190.3v21.3c0,3.9-1.1,7-3.4,9.2s-5.3,3.4-9.1,3.4s-6.8-1.1-9.1-3.4s-3.4-5.3-3.4-9.2v-21.3c0-3.9,1.1-7.1,3.4-9.3
	c2.2-2.3,5.3-3.4,9.1-3.4s6.8,1.1,9.1,3.4C87.7,183.2,88.8,186.3,88.8,190.3z"/>
<path d="M354.8,22c-1.5,0-3-0.3-4.3-0.9s-2.5-1.4-3.5-2.4s-1.8-2.2-2.4-3.5s-0.9-2.8-0.9-4.3s0.3-2.9,0.9-4.3
	c0.6-1.3,1.4-2.5,2.4-3.5s2.2-1.8,3.5-2.4s2.8-0.8,4.3-0.8s3,0.3,4.3,0.9s2.5,1.4,3.5,2.4s1.8,2.2,2.4,3.5s0.9,2.7,0.9,4.3
	s-0.3,2.9-0.9,4.3s-1.4,2.5-2.4,3.5s-2.2,1.8-3.5,2.4S356.3,22,354.8,22z M354.8,19.4c1.5,0,2.9-0.4,4.2-1.1c1.3-0.8,2.3-1.8,3-3
	c0.8-1.3,1.1-2.7,1.1-4.2s-0.4-2.9-1.1-4.2c-0.8-1.3-1.8-2.3-3-3c-1.3-0.8-2.7-1.1-4.2-1.1s-2.9,0.4-4.2,1.1c-1.3,0.8-2.3,1.8-3,3
	c-0.8,1.3-1.1,2.7-1.1,4.2s0.4,2.9,1.1,4.2s1.8,2.3,3,3S353.3,19.4,354.8,19.4z M350.9,16V5.8h5.1c0.4,0,0.9,0.1,1.4,0.3
	s0.9,0.6,1.2,1.1s0.5,1.1,0.5,1.8s-0.2,1.4-0.5,1.9c-0.4,0.5-0.8,0.9-1.3,1.2s-1,0.4-1.4,0.4h-3.7v-1.6h3c0.3,0,0.6-0.2,1-0.5
	s0.5-0.8,0.5-1.4s-0.2-1.1-0.5-1.3s-0.7-0.3-0.9-0.3h-2.1V16H350.9L350.9,16L350.9,16z M357.1,11.2l2.5,4.8h-2.4l-2.5-4.8H357.1
	L357.1,11.2L357.1,11.2z"/>
</svg>
