<?xml version="1.0" encoding="UTF-8" standalone="yes"?><svg viewBox="0 0 500 500" version="1.2" baseProfile="tiny-ps" xmlns="http://www.w3.org/2000/svg">  <title>Synium</title>    <path d="M 1.000000 136.667475 L 1.000000 107.596347 L 59.144032 107.596347 C 65.604164 107.596347 68.834230 104.366327 68.834230 97.905339 L 68.834230 93.060309 C 68.834230 86.600269 65.604164 83.369302 59.144032 83.369302 L 39.762688 83.369302 C 13.921213 83.369302 1.000001 70.448274 1.000001 44.607166 L 1.000001 39.762136 C 1.000001 13.921028 13.921213 1.000000 39.762688 1.000000 L 97.906720 1.000000 L 97.906720 30.071128 L 39.762688 30.071128 C 33.302557 30.071128 30.071543 33.301148 30.071543 39.761189 L 30.071543 44.606219 C 30.071543 51.066259 33.301609 54.297227 39.762688 54.297227 L 59.144032 54.297227 C 84.985507 54.297227 97.906719 67.218255 97.906719 93.059362 L 97.906719 97.904393 C 97.906719 123.745500 84.985507 136.666528 59.144032 136.666528 L 1.000000 136.666528 Z" transform="scale(1.000000,1.000000) translate(199.540701,182.841539)" fill="#7e7e7e"/>    <path d="M 32.760742 48.200924 L 1.000000 39.910853 L 67.054362 1.000000 L 50.459785 75.845536 L 32.760742 48.200924 Z" transform="scale(1.000000,1.000000) translate(292.741858,98.124089)" fill="#328ac4"/>    <path d="M 21.821144 26.375089 L 1.000000 1.000000 L 77.311032 8.346644 L 19.891618 59.143211 L 21.821144 26.375089 Z" transform="scale(1.000000,1.000000) translate(350.965448,185.030573)" fill="#328ac4"/>    <path d="M 21.822092 33.767174 L 19.891618 1.000000 L 77.311032 51.796567 L 1.000000 59.142263 L 21.822092 33.767174 Z" transform="scale(1.000000,1.000000) translate(350.965448,258.083017)" fill="#328ac4"/>    <path d="M 32.760742 28.643653 L 50.459785 1.000000 L 67.054362 75.845525 L 1.000000 36.934672 L 32.760742 28.643653 Z" transform="scale(1.000000,1.000000) translate(292.741858,328.287187)" fill="#328ac4"/>    <path d="M 31.568167 12.960525 L 62.135408 1.000000 L 31.568167 71.305506 L 1.000000 1.000000 L 31.568167 12.960525 Z" transform="scale(1.000000,1.000000) translate(217.426370,368.829150)" fill="#328ac4"/>    <path d="M 35.293632 28.643653 L 17.594577 1.000000 L 1.000000 75.845525 L 67.054374 36.934672 L 35.293632 28.643653 Z" transform="scale(1.000000,1.000000) translate(137.191916,328.287187)" fill="#328ac4"/>    <path d="M 56.488934 33.767174 L 58.419396 1.000000 L 1.000000 51.796567 L 77.311014 59.142263 L 56.488934 33.767174 Z" transform="scale(1.000000,1.000000) translate(68.711673,258.083017)" fill="#328ac4"/>    <path d="M 56.489882 26.375089 L 77.311014 1.000000 L 1.000000 8.346644 L 58.419396 59.143211 L 56.489882 26.375089 Z" transform="scale(1.000000,1.000000) translate(68.711673,185.030573)" fill="#328ac4"/>    <path d="M 35.293632 48.200924 L 67.054374 39.910853 L 1.000000 1.000000 L 17.594577 75.845536 L 35.293632 48.200924 Z" transform="scale(1.000000,1.000000) translate(137.191916,98.124089)" fill="#328ac4"/>    <path d="M 31.568167 59.344012 L 1.000000 71.305509 L 31.568167 1.000000 L 62.135408 71.305509 L 31.568167 59.344012 Z" transform="scale(1.000000,1.000000) translate(217.426370,62.216876)" fill="#328ac4"/>    <path d="M 48.201592 32.760290 L 39.911403 1.000000 L 1.000000 67.054394 L 75.845656 50.459082 L 48.201592 32.760290 Z" transform="scale(1.000000,1.000000) translate(46.553039,330.975387)" fill="#1f5e89"/>    <path d="M 59.344845 31.567732 L 71.306506 1.000000 L 1.000000 31.567732 L 71.306506 62.135464 L 59.344845 31.567732 Z" transform="scale(1.000000,1.000000) translate(-1.000921,220.108030)" fill="#1f5e89"/>    <path d="M 48.201592 35.294098 L 75.846592 17.595295 L 1.000000 1.000000 L 39.911403 67.054388 L 48.201592 35.294098 Z" transform="scale(1.000000,1.000000) translate(46.553039,104.321749)" fill="#1f5e89"/>    <path d="M 26.375427 21.821819 L 59.144015 19.891350 L 8.346737 77.309946 L 1.000000 1.000000 L 26.375427 21.821819 Z" transform="scale(1.000000,1.000000) translate(163.704034,411.170808)" fill="#1f5e89"/>    <path d="M 33.768611 21.821819 L 59.144038 1.000000 L 51.797290 77.309946 L 1.000000 19.891350 L 33.768611 21.821819 Z" transform="scale(1.000000,1.000000) translate(274.140076,411.170808)" fill="#1f5e89"/>    <path d="M 28.644092 32.760290 L 36.934281 1.000000 L 75.845641 67.054394 L 1.000000 50.459082 L 28.644092 32.760290 Z" transform="scale(1.000000,1.000000) translate(374.589441,330.975387)" fill="#1f5e89"/>    <path d="M 12.961644 31.567732 L 1.000000 1.000000 L 71.306506 31.567732 L 1.000000 62.135464 L 12.961644 31.567732 Z" transform="scale(1.000000,1.000000) translate(426.682563,220.108030)" fill="#1f5e89"/>    <path d="M 28.645017 35.294098 L 1.000000 17.595295 L 75.846566 1.000000 L 36.935206 67.054388 L 28.645017 35.294098 Z" transform="scale(1.000000,1.000000) translate(374.588516,104.321749)" fill="#1f5e89"/>    <path d="M 33.767663 56.488145 L 1.000000 58.418579 L 51.797290 1.000000 L 59.144038 77.309935 L 33.767663 56.488145 Z" transform="scale(1.000000,1.000000) translate(274.140076,13.870769)" fill="#1f5e89"/>    <path d="M 26.374478 56.488145 L 1.000000 77.309935 L 8.344840 1.000000 L 59.143066 58.418579 L 26.374478 56.488145 Z" transform="scale(1.000000,1.000000) translate(163.704982,13.870769)" fill="#1f5e89"/></svg>