<?xml version="1.0" encoding="utf-8"?>
<!-- Generator: Adobe Illustrator 27.9.1, SVG Export Plug-In . SVG Version: 6.00 Build 0)  -->
<svg version="1.2" baseProfile="tiny-ps" id="Calque_1"
	 xmlns="http://www.w3.org/2000/svg" xmlns:xlink="http://www.w3.org/1999/xlink" viewBox="0 0 840.8 840.8"
	 xml:space="preserve">
	 <title>Maisadour</title>
<rect fill="#FFFFFF" width="840.8" height="840.8"/>
<g>
	<path fill="#E6460A" d="M673.6,347.4c1,1.8,0.5,3.8,0.5,5.7c0,61.9,0,123.7,0.1,185.6c0,3.9-1.2,6-4.3,8.2
		c-33.2,23.4-67.3,45.5-101.7,67.2c-1.3,0.8-2.4,2.2-4.6,1.9V425.4l-1.3-0.6c-9,10-18,19.8-26.8,29.9
		c-31.8,36.4-62.5,73.8-93.2,111.2c-9.5,11.5-21.2,11.6-30.7,0c-17.6-21.5-35.1-42.9-52.9-64.6c13.3-7.6,26.6-14.9,39.6-22.8
		c39.8-24.1,79.2-48.9,120.3-70.8c48.8-25.9,99.8-46.5,153.4-60.2C672.5,347.3,673,347.4,673.6,347.4L673.6,347.4L673.6,347.4z"/>
	<path fill="#E6460A" d="M673.8,208c1.1,16.2,0.2,32.5,0.2,49.3c-42.5,2.6-84.6,6.6-126.7,12.3c17.9-19.2,36.6-37.1,56.4-53.9
		c10.5-8.9,21.5-17.2,32.7-25.2C652.5,179.1,672.6,189.8,673.8,208L673.8,208L673.8,208z"/>
	<path fill="#E6460A" d="M674,558.2v72.2H564.2C601.9,606.8,638.1,583.4,674,558.2z"/>
	<path fill="#E6460A" d="M673.9,269.2v65.4c-12.6,3.6-25.3,7-37.9,10.9c-57.5,17.6-110.9,44-162.7,74c-38.3,22.2-75,46.9-114,67.8
		c-2.6,1.4-5.3,2.9-8.5,4.5c-19.5-22.6-38.5-45.6-59.3-67.2c-1.4,2-0.8,3.8-0.8,5.5c0,28.5,0,57,0,85.5c0,2.4,0.5,4.7-2.9,6
		c-35,14.3-70.6,26.5-108.2,35.5v-12.3c0-21.7,0.1-43.4-0.1-65.1c0-3.8,1.2-5.6,4.5-7.3c38.2-19.5,76.2-39.5,113.5-60.9
		c29.4-16.9,55.8-37.6,80.7-60.5c0.6-0.6,1.3-1.2,2.5-2.2c8.2,9.7,16.3,19.1,24.3,28.7c5.4,6.5,10.7,13,16,19.5
		c4.9,6,7.4,5.9,12.6-0.5c29.3-36.3,59.9-71.4,91.7-105.4c4.3-4.7,9-7.4,15.4-8.4c43.5-6.6,87.1-10.9,131-13.5
		C672.3,269.2,673,269.2,673.9,269.2L673.9,269.2L673.9,269.2z"/>
	<path fill="#E6460A" d="M372.8,340c-9.6,9-19.4,17.4-29.4,25.7c-30,24.8-64,43.2-98.2,61.4c-20,10.7-40.2,21.2-60.2,31.8
		c-1.6,0.8-3.1,1.5-5.4,2.7c0-15.1,0.1-29.3-0.1-43.5c0-3,1.8-4,3.7-5.3c20.6-13.7,41-27.7,60.9-42.4c31-22.8,56.2-50.4,72.7-85.5
		c0.5-1.1,1.2-2.1,2.2-3.7C337.5,300.3,355,319.8,372.8,340L372.8,340L372.8,340z"/>
	<path fill="#E6460A" d="M310.1,272.3c-12.6,25.2-26.5,49.4-48.1,68.3c-25.1,22.1-52.6,40.8-80.4,59.3c-0.4,0.3-0.9,0.4-2.1,0.9
		c0-32.1,0-63.7,0-95.2c0-1.5,0.4-2.8,1.2-4c21.5-29.6,45.1-57.5,69.9-85.1C271.6,233.9,290.9,252.8,310.1,272.3L310.1,272.3
		L310.1,272.3z"/>
	<path fill="#E6460A" d="M290.3,533.1v97.3H179.8v-61C217.4,560.5,254,548.1,290.3,533.1L290.3,533.1L290.3,533.1z"/>
	<path fill="#E6460A" d="M218.1,191.1c8,5.7,16,11.4,23.7,17.9c-21.5,23.9-42,48.2-62.2,74.6v-14.2c0-19.2,0.1-38.3,0-57.5
		c-0.1-10.4,3.8-18.6,12.9-23.6C201.4,183.5,209.9,185.3,218.1,191.1L218.1,191.1L218.1,191.1z"/>
</g>
</svg>
