<?xml version="1.0" encoding="UTF-8"?>
<svg id="Layer_2" xmlns="http://www.w3.org/2000/svg" xmlns:xlink="http://www.w3.org/1999/xlink" version="1.2" baseProfile="tiny-ps" viewBox="-10 -10 77 86.94">
    <title>DeOnlineDrogist</title>
    <g id="Layer_1-2" transform="translate(5, 0)">
        <path fill="#40a5b7" class="cls-1" d="m52.84,16.11c2.78,5.07,4.16,10.86,4.16,17.36s-1.38,12.3-4.16,17.36c-2.78,5.07-6.73,9.02-11.86,11.86-5.13,2.84-11.04,4.25-17.74,4.25H0V0h23.24c6.7,0,12.61,1.42,17.74,4.25,5.13,2.84,9.08,6.79,11.86,11.86Zm-6.45,17.36c0-9.88-8.01-17.89-17.89-17.89s-17.89,8.01-17.89,17.89,8.01,17.89,17.89,17.89,17.89-8.01,17.89-17.89Z"/>
    </g>
</svg>
