<?xml version="1.0" encoding="UTF-8" standalone="yes"?>
<svg version="1.2" width="601" height="601" baseProfile="tiny-ps" xmlns="http://www.w3.org/2000/svg">
  <title>bimi-svg-tiny-12-ps</title>
  <path d="M0 0 C198.33 0 396.66 0 601 0 C601 198.33 601 396.66 601 601 C402.67 601 204.34 601 0 601 C0 402.67 0 204.34 0 0 Z " fill="#FEFEFE" transform="translate(0,0)"/>
  <path d="M0 0 C1.29647461 -0.01836914 1.29647461 -0.01836914 2.61914062 -0.03710938 C13.55906529 -0.06187902 23.91921668 2.86240236 32.0625 10.5 C40.53683549 19.73026213 42.73017754 31.85549355 42.5625 44 C42.55307373 45.05590332 42.54364746 46.11180664 42.53393555 47.19970703 C42.28136187 60.27114949 40.07914072 73.07441107 30.9375 83.0625 C27.14357394 86.56775777 23.01692376 88.47132977 18.1875 90.1875 C17.0325 90.6 15.8775 91.0125 14.6875 91.4375 C6.91473074 93.10309341 -0.55944512 92.63326595 -7.8125 89.1875 C-11.10762456 86.79682357 -14.1215647 84.24892639 -16.8125 81.1875 C-16.8125 80.5275 -16.8125 79.8675 -16.8125 79.1875 C-17.4725 79.1875 -18.1325 79.1875 -18.8125 79.1875 C-18.80139694 79.7777446 -18.79029388 80.3679892 -18.77885437 80.97612 C-18.6681634 87.12414403 -18.59279255 93.27188467 -18.5378418 99.4206543 C-18.51271072 101.71471658 -18.47860031 104.0086989 -18.43530273 106.30249023 C-18.37459168 109.60160049 -18.34627563 112.89965146 -18.32421875 116.19921875 C-18.29841232 117.22335373 -18.2726059 118.24748871 -18.24601746 119.30265808 C-18.24320095 126.46682339 -18.24320095 126.46682339 -21.28051758 130.31176758 C-22.11607178 130.93075928 -22.95162598 131.54975098 -23.8125 132.1875 C-24.1425 132.5175 -24.4725 132.8475 -24.8125 133.1875 C-27.50904854 133.26069621 -30.17941458 133.27992537 -32.875 133.25 C-33.63361328 133.24548828 -34.39222656 133.24097656 -35.17382812 133.23632812 C-37.05341871 133.2245068 -38.93296899 133.20657078 -40.8125 133.1875 C-40.9054396 120.09566153 -40.97638648 107.00390237 -41.01974869 93.91180038 C-41.04056703 87.83170617 -41.06877946 81.75183873 -41.11425781 75.671875 C-41.15792077 69.79742472 -41.18168032 63.92319172 -41.19200897 58.04859161 C-41.19936371 55.81444126 -41.21372528 53.58030194 -41.23542023 51.34624481 C-41.38766671 35.00943331 -41.12891154 21.85109847 -29.1875 9.5078125 C-20.68196071 1.59293566 -11.20882903 0.00824785 0 0 Z " fill="#464647" transform="translate(523.8125,244.8125)"/>
  <path d="M0 0 C8.46875385 7.62748691 11.70075171 18.40553173 12.83203125 29.40625 C9.9560067 29.51477923 7.08412293 29.5938015 4.20703125 29.65625 C3.39878906 29.68976563 2.59054687 29.72328125 1.7578125 29.7578125 C-3.72786329 29.84701048 -6.87497369 29.15051637 -11.16796875 25.40625 C-12.8203125 23.1875 -12.8203125 23.1875 -14.10546875 20.90625 C-16.91223646 16.40357251 -19.38073404 14.61574294 -24.16796875 12.40625 C-24.82796875 12.07625 -25.48796875 11.74625 -26.16796875 11.40625 C-29.2024282 11.11501581 -32.24615107 11.12826833 -35.29296875 11.09375 C-36.123125 11.06474609 -36.95328125 11.03574219 -37.80859375 11.00585938 C-45.22110547 10.93034005 -50.31756351 12.94453638 -55.91796875 17.78125 C-65.69496359 29.18774398 -66.26267196 41.97520591 -65.16796875 56.40625 C-63.92587888 65.3030798 -61.07549197 73.10543573 -54.29296875 79.21875 C-46.11433479 84.94379377 -39.10502799 85.35767057 -29.16796875 84.40625 C-23.33441692 82.89083011 -18.90701422 80.18391922 -15.16796875 75.40625 C-13.34820795 72.1246315 -11.75711383 68.81156089 -10.16796875 65.40625 C-2.90796875 65.40625 4.35203125 65.40625 11.83203125 65.40625 C11.83203125 75.74888533 8.49397918 84.53872063 1.77734375 92.4765625 C-9.15993196 103.32598861 -23.21167164 106.52211978 -38.16796875 106.71875 C-52.90533255 106.64725173 -65.18382817 101.98753883 -75.90625 91.87109375 C-88.09537143 78.58726711 -91.03316632 59.97146414 -90.4453125 42.53515625 C-89.56396031 26.91584009 -84.54859593 12.89455977 -73.5546875 1.52734375 C-53.90252762 -15.93766904 -20.52559174 -15.08908366 0 0 Z " fill="#474748" transform="translate(318.16796875,229.59375)"/>
  <path d="M0 0 C8.14278319 5.5935228 12.23290973 11.92868252 14.56794739 21.42578125 C15.49344807 26.9400199 15.23981723 32.55031583 15.1953125 38.125 C15.1915756 39.48119904 15.18873183 40.8374008 15.18673706 42.19360352 C15.1791538 45.73801315 15.15955195 49.28225508 15.1373291 52.82659912 C15.11675534 56.45338677 15.10771085 60.08020189 15.09765625 63.70703125 C15.07630021 70.8047555 15.04222958 77.90236672 15 85 C12.43685501 85.08132187 9.87631582 85.14064175 7.3125 85.1875 C6.59126953 85.21263672 5.87003906 85.23777344 5.12695312 85.26367188 C0.55138097 85.32635095 -2.47607849 85.01396627 -6 82 C-7.73734512 78.45105306 -8.24994898 75.59197567 -8.25537109 71.66235352 C-8.26233002 70.62099747 -8.26928894 69.57964142 -8.27645874 68.50672913 C-8.27546173 67.39204758 -8.27446472 66.27736603 -8.2734375 65.12890625 C-8.29372309 62.75715671 -8.31457381 60.38541195 -8.3359375 58.01367188 C-8.35855161 54.28308063 -8.37501539 50.55267818 -8.38085938 46.82202148 C-8.39038055 43.21563807 -8.42415034 39.61010021 -8.4609375 36.00390625 C-8.45589203 34.89124893 -8.45084656 33.77859161 -8.44564819 32.63221741 C-8.52380687 26.47705812 -8.79168418 22.64026152 -13 18 C-17.98258796 15.2058745 -23.43988156 15.32332869 -29 16 C-32.91075925 17.98968453 -34.57689098 19.36533646 -37 23 C-37.32936731 25.809826 -37.32936731 25.809826 -37.31884766 29.03198242 C-37.33871735 30.27304245 -37.35858704 31.51410248 -37.37905884 32.79277039 C-37.39093518 34.14700136 -37.40259804 35.50123422 -37.4140625 36.85546875 C-37.43277317 38.24124812 -37.45234652 39.62701609 -37.4727478 41.01277161 C-37.52408594 44.65739216 -37.56370244 48.30204965 -37.60089111 51.94683838 C-37.64092036 55.66712597 -37.69201759 59.38725966 -37.7421875 63.10742188 C-37.83896672 70.40485038 -37.92234179 77.70233838 -38 85 C-45.59 85 -53.18 85 -61 85 C-61.09082601 77.10617164 -61.1640155 69.21275814 -61.20724869 61.31854534 C-61.22801169 57.65186134 -61.25611844 53.98555724 -61.30175781 50.3190918 C-61.3456244 46.77233528 -61.36922168 43.22594123 -61.37950897 39.6789341 C-61.39035921 37.68554846 -61.42151824 35.69230607 -61.45318604 33.69914246 C-61.45588269 22.62727445 -59.24866316 12.81516284 -51.578125 4.44921875 C-39.46708745 -7.17161013 -14.31953334 -8.14337678 0 0 Z " fill="#474748" transform="translate(136,249)"/>
  <path d="M0 0 C7.6174295 6.26595007 12.8349821 13.18195358 14.1328125 23.20703125 C14.52303048 33.33969153 11.79029794 40.24561586 5.125 47.8125 C1.14117647 52.05441176 1.14117647 52.05441176 -1.25 53.25 C1.39 54.24 4.03 55.23 6.75 56.25 C6.75 57.24 6.75 58.23 6.75 59.25 C1.08530129 61.04002694 -5.0668622 60.43595062 -10.94897461 60.43530273 C-13.17646392 60.43748917 -15.40345758 60.45566428 -17.63085938 60.47460938 C-19.05468582 60.47754378 -20.4785146 60.47952826 -21.90234375 60.48046875 C-23.83581665 60.48663208 -23.83581665 60.48663208 -25.80834961 60.49291992 C-29.08596931 60.26157768 -31.31354262 59.66816945 -34.25 58.25 C-34.25 57.59 -34.25 56.93 -34.25 56.25 C-33.59 56.25 -32.93 56.25 -32.25 56.25 C-32.25 55.59 -32.25 54.93 -32.25 54.25 C-32.95125 54.04375 -33.6525 53.8375 -34.375 53.625 C-42.43227934 49.77151857 -45.95954326 42.15812159 -49.5625 34.4375 C-51.74294119 24.32818175 -50.26220182 16.50400649 -44.75390625 7.91796875 C-41.92385712 3.88814817 -41.92385712 3.88814817 -40.25 2.25 C-39.26 2.25 -38.27 2.25 -37.25 2.25 C-36.92 1.26 -36.59 0.27 -36.25 -0.75 C-25.31362284 -8.1601621 -10.68323781 -7.61053513 0 0 Z " fill="#F3F1F1" transform="translate(395.25,276.75)"/>
  <path d="M0 0 C0 37.62 0 75.24 0 114 C-7.92 114 -15.84 114 -24 114 C-24.06774919 100.26567596 -24.12280092 86.53146272 -24.15543652 72.79700947 C-24.17109913 66.41970428 -24.1923486 60.04251924 -24.22631836 53.6652832 C-24.25889007 47.51206975 -24.27684853 41.35897194 -24.28463173 35.20567894 C-24.29017913 32.85690681 -24.30101169 30.50814107 -24.31719017 28.15941811 C-24.33893492 24.87217097 -24.3419681 21.58540307 -24.34057617 18.2980957 C-24.351362 17.3248938 -24.36214783 16.35169189 -24.3732605 15.34899902 C-24.35073996 10.44092505 -24.29931735 6.92778484 -21 3 C-13.99631415 -1.51348643 -9.15807234 0 0 0 Z " fill="#49494A" transform="translate(64,220)"/>
  <path d="M0 0 C0 7.59 0 15.18 0 23 C-7.125 23.25 -7.125 23.25 -9.33251953 23.29785156 C-14.29647529 23.55365617 -17.17043112 24.90363282 -21 28 C-24.55307371 32.70542194 -26.1041628 36.16941905 -26.20532227 42.0222168 C-26.22526749 43.04304855 -26.24521271 44.06388031 -26.26576233 45.11564636 C-26.29083107 46.76576469 -26.29083107 46.76576469 -26.31640625 48.44921875 C-26.33718735 49.5769722 -26.35796844 50.70472565 -26.37937927 51.86665344 C-26.44482847 55.4735396 -26.50373844 59.08049929 -26.5625 62.6875 C-26.60568961 65.13086702 -26.64930404 67.57422656 -26.69335938 70.01757812 C-26.8005052 76.01164316 -26.90178591 82.00578224 -27 88 C-34.26 88 -41.52 88 -49 88 C-49.09955332 80.40523006 -49.17179175 72.81084765 -49.21972656 65.21557617 C-49.23972885 62.63673274 -49.26693956 60.057934 -49.30175781 57.47924805 C-49.35077817 53.75297961 -49.37308374 50.02731553 -49.390625 46.30078125 C-49.41127014 45.1648201 -49.43191528 44.02885895 -49.45318604 42.85847473 C-49.45667446 30.15565097 -46.34765995 19.4168144 -37.33984375 10.32421875 C-26.32131569 0.20926019 -14.31115789 -0.2578587 0 0 Z " fill="#464647" transform="translate(473,246)"/>
  <path d="M0 0 C5.70073724 2.58734026 8.38981627 6.20812058 10.72265625 12.0234375 C11.76524903 15.77944481 11.94004335 19.26471177 11.88671875 23.12890625 C11.87656738 24.18730713 11.87656738 24.18730713 11.86621094 25.26708984 C11.70450998 33.4442696 10.92062076 39.8247552 5.63671875 46.31640625 C0.46299905 50.87420694 -2.65771226 51.7416103 -9.46875 51.65234375 C-14.01176063 51.12508476 -17.11260101 49.5134196 -20.36328125 46.31640625 C-25.06446189 39.41496373 -25.56592125 32.68864671 -25.61328125 24.56640625 C-25.63390625 23.69757813 -25.65453125 22.82875 -25.67578125 21.93359375 C-25.71543096 15.33191663 -25.06193345 9.48386663 -20.609375 4.2578125 C-20.01253906 3.80277344 -19.41570312 3.34773438 -18.80078125 2.87890625 C-18.20136719 2.40582031 -17.60195313 1.93273437 -16.984375 1.4453125 C-12.10894073 -1.94986943 -5.57071018 -1.61136245 0 0 Z " fill="#FCFCFC" transform="translate(531.36328125,264.68359375)"/>
  <path d="M0 0 C1.155 0.20625 2.31 0.4125 3.5 0.625 C11.11472994 3.61650105 16.49094217 9.69573798 20 17 C20.95735308 19.97377802 21.10830354 22.63535955 21.0625 25.75 C21.05347656 26.54921875 21.04445313 27.3484375 21.03515625 28.171875 C21.02355469 28.77515625 21.01195312 29.3784375 21 30 C19.0549 27.08235 18.54723683 25.37462715 18 22 C16.35 21.67 14.7 21.34 13 21 C13 21.66 13 22.32 13 23 C13.99 23 14.98 23 16 23 C15.625 25.4375 15.625 25.4375 15 28 C14.01 28.495 14.01 28.495 13 29 C13.20625 29.763125 13.4125 30.52625 13.625 31.3125 C14 34 14 34 12 37 C11.83286431 39.62531524 11.83286431 39.62531524 12 42 C12.66 41.67 13.32 41.34 14 41 C13.34 42.98 12.68 44.96 12 47 C11.34 47 10.68 47 10 47 C10 46.34 10 45.68 10 45 C9.34 45 8.68 45 8 45 C7.9175 45.5775 7.835 46.155 7.75 46.75 C6.7620384 49.71388479 5.46177942 51.10091302 3 53 C0.875 53 0.875 53 -1 52 C-3.38509122 48.78012685 -3 45.87483121 -3 42 C-3.66 41.34 -4.32 40.68 -5 40 C-5 38.68 -5 37.36 -5 36 C-6.66611905 35.957279 -8.33382885 35.95936168 -10 36 C-10.495 36.495 -10.495 36.495 -11 37 C-14.13202763 37.42324698 -15.60569669 37.24510746 -18.3125 35.5625 C-20.82383468 31.74899179 -20.85881053 28.4320758 -20 24 C-18.70360405 20.99585169 -17.68827534 20.19451048 -15 18 C-11.98790607 17.24445804 -9.09951589 17.01350552 -6 17 C-6 17.66 -6 18.32 -6 19 C-2.04 19 1.92 19 6 19 C6 18.01 6 17.02 6 16 C3.23735711 15.40267181 0.83967231 15 -2 15 C-2.433125 14.505 -2.86625 14.01 -3.3125 13.5 C-5.02209709 11.6685437 -5.02209709 11.6685437 -8.1875 11.8125 C-9.115625 11.874375 -10.04375 11.93625 -11 12 C-11.66 13.65 -12.32 15.3 -13 17 C-14.32 17 -15.64 17 -17 17 C-17 15.68 -17 14.36 -17 13 C-15.68 13 -14.36 13 -13 13 C-13.474375 12.401875 -13.94875 11.80375 -14.4375 11.1875 C-16 9 -16 9 -17 6 C-13 6 -13 6 -11 7 C-6.66179823 6.19185561 -6.66179823 6.19185561 -3 4 C-3.66 3.67 -4.32 3.34 -5 3 C-5.33 3.66 -5.66 4.32 -6 5 C-7.65 4.67 -9.3 4.34 -11 4 C-11 2 -11 2 -10 0.3125 C-6.75956736 -1.81403392 -3.58726899 -0.73738307 0 0 Z " fill="#C72328" transform="translate(387,274)"/>
  <path d="M0 0 C2.875 0.6875 2.875 0.6875 6 2 C7.375 4.625 7.375 4.625 8 7 C8.66 5.68 9.32 4.36 10 3 C10.70802597 14.44641986 9.03416657 21.86731089 1.375 30.5625 C-2.60882353 34.80441176 -2.60882353 34.80441176 -5 36 C-2.36 36.99 0.28 37.98 3 39 C3 39.99 3 40.98 3 42 C-2.66469871 43.79002694 -8.8168622 43.18595062 -14.69897461 43.18530273 C-16.92646392 43.18748917 -19.15345758 43.20566428 -21.38085938 43.22460938 C-22.80468582 43.22754378 -24.2285146 43.22952826 -25.65234375 43.23046875 C-27.58581665 43.23663208 -27.58581665 43.23663208 -29.55834961 43.24291992 C-32.83596931 43.01157768 -35.06354262 42.41816945 -38 41 C-38 40.34 -38 39.68 -38 39 C-37.34 39 -36.68 39 -36 39 C-36 38.34 -36 37.68 -36 37 C-36.70125 36.79375 -37.4025 36.5875 -38.125 36.375 C-45.05044779 33.06282932 -48.97844632 26.83504683 -52 20 C-52.8125 16.4375 -52.8125 16.4375 -53 14 C-51.68 14 -50.36 14 -49 14 C-47.65576661 15.65788785 -46.32381517 17.32576317 -45 19 C-43.96875 19.515625 -42.9375 20.03125 -41.875 20.5625 C-39 22 -39 22 -37.625 24 C-37 26 -37 26 -37 29 C-36.34 29 -35.68 29 -35 29 C-35 29.66 -35 30.32 -35 31 C-34.01 31 -33.02 31 -32 31 C-31.443125 31.639375 -30.88625 32.27875 -30.3125 32.9375 C-27.15272553 35.75567723 -24.09558236 36.08373867 -20 36 C-17.43718029 35.59250185 -15.44979421 34.9499202 -13 34 C-12.505 33.01 -12.505 33.01 -12 32 C-11.38125 31.855625 -10.7625 31.71125 -10.125 31.5625 C-7.57816188 30.88833697 -6.64092135 30.03161691 -5 28 C-4.505 26.515 -4.505 26.515 -4 25 C-3.34 25 -2.68 25 -2 25 C-2 25.66 -2 26.32 -2 27 C-1.34 27 -0.68 27 0 27 C0.33 25.35 0.66 23.7 1 22 C0.01 22.495 0.01 22.495 -1 23 C-1.38281159 17.76824163 -0.21854707 14.62197306 2 10 C1.34 9.67 0.68 9.34 0 9 C0.99 8.34 1.98 7.68 3 7 C3.72382467 4.94074861 3.72382467 4.94074861 4 3 C3.01 3 2.02 3 1 3 C0.505 1.515 0.505 1.515 0 0 Z " fill="#DBD9D9" transform="translate(399,294)"/>
  <path d="M0 0 C3.93783432 2.06506386 6.42587129 4.11306534 7.96484375 8.27734375 C8.64119468 13.32461257 8.5410723 17.10354486 6.27734375 21.71484375 C2.2944836 26.12828337 -0.487839 27.47526882 -6.41015625 27.83984375 C-11.5429601 27.71499176 -14.14829841 26.41413185 -17.79296875 22.8828125 C-20.72557332 19.09255943 -20.42305224 14.58973836 -20.38671875 10.01171875 C-19.83042025 5.68495262 -18.27041271 4.14495743 -15.03515625 1.27734375 C-10.33384336 -1.5125524 -5.16546702 -1.83418695 0 0 Z " fill="#BC262A" transform="translate(198.03515625,292.72265625)"/>
  <path d="M0 0 C1.155 0.20625 2.31 0.4125 3.5 0.625 C11.11472994 3.61650105 16.49094217 9.69573798 20 17 C20.95735308 19.97377802 21.10830354 22.63535955 21.0625 25.75 C21.05347656 26.54921875 21.04445313 27.3484375 21.03515625 28.171875 C21.02355469 28.77515625 21.01195312 29.3784375 21 30 C19.0549 27.08235 18.54723683 25.37462715 18 22 C16.35 21.67 14.7 21.34 13 21 C13 21.66 13 22.32 13 23 C13.99 23 14.98 23 16 23 C16 24.32 16 25.64 16 27 C10.38817006 25.53604436 10.38817006 25.53604436 8.6875 23.1875 C7.93949453 20.80748258 7.41004232 18.46025391 7 16 C6.2575 16.020625 5.515 16.04125 4.75 16.0625 C2.22965067 16.00521933 0.35552082 15.86369097 -2 15 C-2.45375 14.484375 -2.9075 13.96875 -3.375 13.4375 C-5.03762133 11.66863275 -5.03762133 11.66863275 -8.1875 11.8125 C-9.115625 11.874375 -10.04375 11.93625 -11 12 C-11.66 13.65 -12.32 15.3 -13 17 C-14.32 17 -15.64 17 -17 17 C-17 15.68 -17 14.36 -17 13 C-15.68 13 -14.36 13 -13 13 C-13.474375 12.401875 -13.94875 11.80375 -14.4375 11.1875 C-16 9 -16 9 -17 6 C-13 6 -13 6 -11 7 C-6.66179823 6.19185561 -6.66179823 6.19185561 -3 4 C-3.66 3.67 -4.32 3.34 -5 3 C-5.33 3.66 -5.66 4.32 -6 5 C-7.65 4.67 -9.3 4.34 -11 4 C-11 2 -11 2 -10 0.3125 C-6.75956736 -1.81403392 -3.58726899 -0.73738307 0 0 Z " fill="#801C1D" transform="translate(387,274)"/>
  <path d="M0 0 C1.32 0 2.64 0 4 0 C5.34423339 1.65788785 6.67618483 3.32576317 8 5 C11.11662908 6.80979141 11.11662908 6.80979141 14 8 C14.14285714 15.42857143 14.14285714 15.42857143 13 19 C13.70125 19.2475 14.4025 19.495 15.125 19.75 C18 21 18 21 20.4375 23.125 C25.32443278 26.59356179 32.32234426 25.4440218 38 25 C38.66 24.67 39.32 24.34 40 24 C41.70702735 23.93003986 43.41668003 23.91559846 45.125 23.9375 C46.03507812 23.94652344 46.94515625 23.95554687 47.8828125 23.96484375 C48.58148438 23.97644531 49.28015625 23.98804688 50 24 C50.495 25.485 50.495 25.485 51 27 C44.61878587 29.29069225 38.60911337 29.29897537 31.875 29.25 C30.80378906 29.25773437 29.73257812 29.26546875 28.62890625 29.2734375 C27.59378906 29.27085937 26.55867188 29.26828125 25.4921875 29.265625 C24.55745605 29.26336914 23.62272461 29.26111328 22.65966797 29.25878906 C19.79019983 28.97958618 17.61225649 28.19109907 15 27 C15 26.34 15 25.68 15 25 C15.66 25 16.32 25 17 25 C17 24.34 17 23.68 17 23 C15.948125 22.690625 15.948125 22.690625 14.875 22.375 C7.94955221 19.06282932 4.02155368 12.83504683 1 6 C0.1875 2.4375 0.1875 2.4375 0 0 Z " fill="#BFBFBF" transform="translate(346,308)"/>
  <path d="M0 0 C0.66 0.37125 1.32 0.7425 2 1.125 C6.24831296 2.36409128 8.80035936 1.2812463 13 0 C14.76462683 3.08809695 15 4.23312136 15 8 C15.66 8 16.32 8 17 8 C17 7.34 17 6.68 17 6 C19.31 6.33 21.62 6.66 24 7 C24 7.66 24 8.32 24 9 C23.34 9.66 22.68 10.32 22 11 C19.5625 10.625 19.5625 10.625 17 10 C16.01 10 15.02 10 14 10 C13.566875 9.505 13.13375 9.01 12.6875 8.5 C10.97790291 6.6685437 10.97790291 6.6685437 7.8125 6.8125 C6.884375 6.874375 5.95625 6.93625 5 7 C4.34 8.65 3.68 10.3 3 12 C1.68 12 0.36 12 -1 12 C-1 10.68 -1 9.36 -1 8 C0.32 8 1.64 8 3 8 C2.525625 7.401875 2.05125 6.80375 1.5625 6.1875 C0 4 0 4 -1 1 C-0.67 0.67 -0.34 0.34 0 0 Z " fill="#AC2224" transform="translate(371,279)"/>
  <path d="M0 0 C1.32 0 2.64 0 4 0 C5.34423339 1.65788785 6.67618483 3.32576317 8 5 C11.11662908 6.80979141 11.11662908 6.80979141 14 8 C14.28571429 15.42857143 14.28571429 15.42857143 12 19 C6.82416566 16.87141012 4.57928738 12.78685392 2 8 C1.06013345 5.30896701 0.51210949 2.81660222 0 0 Z " fill="#5B1D1D" transform="translate(346,308)"/>
  <path d="M0 0 C0.66 0 1.32 0 2 0 C2 1.98 2 3.96 2 6 C1.34 6 0.68 6 0 6 C0 12.6 0 19.2 0 26 C-0.33 25.34 -0.66 24.68 -1 24 C-2.65 24 -4.3 24 -6 24 C-6.58477799 14.39989472 -5.32808354 7.99212531 0 0 Z " fill="#D0CFCF" transform="translate(351,284)"/>
  <path d="M0 0 C3.16803269 -0.55440572 5.25878438 -0.47247078 8.00390625 1.27734375 C13.6013347 5.96133985 18.65617643 11.62296855 20 19 C20.06548492 20.58211573 20.08578381 22.16670081 20.0625 23.75 C20.05347656 24.54921875 20.04445313 25.3484375 20.03515625 26.171875 C20.02355469 26.77515625 20.01195312 27.3784375 20 28 C18.0549 25.08235 17.54723683 23.37462715 17 20 C16.360625 19.855625 15.72125 19.71125 15.0625 19.5625 C13 19 13 19 12 18 C11.70467805 16.42105096 11.43862991 14.83657773 11.1875 13.25 C10.32846163 8.86075285 9.44180138 6.05937901 6 3 C2.87866256 1.65227097 2.87866256 1.65227097 0 1 C0 0.67 0 0.34 0 0 Z " fill="#672020" transform="translate(388,276)"/>
  <path d="M0 0 C0.33 0.99 0.66 1.98 1 3 C1.66 3 2.32 3 3 3 C3 3.66 3 4.32 3 5 C3.99 5 4.98 5 6 5 C6.639375 5.763125 7.27875 6.52625 7.9375 7.3125 C11.76614986 11.49785637 17.66647541 11.95371049 23 13 C23 13.33 23 13.66 23 14 C8.26675076 14.7265712 8.26675076 14.7265712 3 10 C2.071875 9.484375 1.14375 8.96875 0.1875 8.4375 C-2 7 -2 7 -3 4 C-1.5625 1.8125 -1.5625 1.8125 0 0 Z " fill="#BBBBBB" transform="translate(361,320)"/>
  <path d="M0 0 C0.66 0 1.32 0 2 0 C1.855625 0.680625 1.71125 1.36125 1.5625 2.0625 C0.93054091 5.36273082 0.45686059 8.67144426 0 12 C0.66 11.67 1.32 11.34 2 11 C1.34 12.98 0.68 14.96 0 17 C-0.66 17 -1.32 17 -2 17 C-2 16.34 -2 15.68 -2 15 C-2.66 15 -3.32 15 -4 15 C-4.0825 15.5775 -4.165 16.155 -4.25 16.75 C-5.2379616 19.71388479 -6.53822058 21.10091302 -9 23 C-11.25 22.75 -11.25 22.75 -13 22 C-13 21.01 -13 20.02 -13 19 C-11.42578125 17.59765625 -11.42578125 17.59765625 -9.3125 16.0625 C-4.04076095 11.71776302 -2.16272459 6.33220804 0 0 Z " fill="#922022" transform="translate(399,304)"/>
  <path d="M0 0 C-4.52092968 1.45606519 -7.51648796 0.27032841 -12 -1 C-12.33 -0.01 -12.66 0.98 -13 2 C-15.97 1.67 -18.94 1.34 -22 1 C-22 1.66 -22 2.32 -22 3 C-22.99 3.33 -23.98 3.66 -25 4 C-25 3.34 -25 2.68 -25 2 C-27.97 3.65 -30.94 5.3 -34 7 C-33.37577372 4.19098176 -32.67642155 2.46209472 -30.26171875 0.8125 C-19.94565368 -4.47181205 -10.73553799 -3.76528264 0 0 Z " fill="#C1BEBE" transform="translate(391,274)"/>
  <path d="M0 0 C2.875 0.6875 2.875 0.6875 6 2 C7.375 4.625 7.375 4.625 8 7 C8.66 5.68 9.32 4.36 10 3 C10 6.96 10 10.92 10 15 C9.01 14.67 8.02 14.34 7 14 C6.34 14.66 5.68 15.32 5 16 C3.5 14.6875 3.5 14.6875 2 13 C2 12.01 2 11.02 2 10 C1.34 9.67 0.68 9.34 0 9 C0.99 8.34 1.98 7.68 3 7 C3.72382467 4.94074861 3.72382467 4.94074861 4 3 C3.01 3 2.02 3 1 3 C0.67 2.01 0.34 1.02 0 0 Z " fill="#CDC2C2" transform="translate(399,294)"/>
  <path d="M0 0 C0.33 0.66 0.66 1.32 1 2 C1.99 2 2.98 2 4 2 C5.33981486 2.3062434 6.67511887 2.63451555 8 3 C8 3.99 8 4.98 8 6 C6.56359829 6.19573608 5.12580496 6.38127816 3.6875 6.5625 C2.88699219 6.66691406 2.08648437 6.77132813 1.26171875 6.87890625 C-1 7 -1 7 -4 6 C-4 5.34 -4 4.68 -4 4 C-5.65 4 -7.3 4 -9 4 C-9 3.67 -9 3.34 -9 3 C-7.02 2.67 -5.04 2.34 -3 2 C-3.99 2 -4.98 2 -6 2 C-6 1.34 -6 0.68 -6 0 C-6.99 -0.33 -7.98 -0.66 -9 -1 C-5.39416086 -2.33549598 -3.37916196 -1.73524533 0 0 Z " fill="#F7E8E9" transform="translate(385,287)"/>
  <path d="M0 0 C-0.33 0.99 -0.66 1.98 -1 3 C0.65 3.33 2.3 3.66 4 4 C4.33 3.01 4.66 2.02 5 1 C5.99 1.66 6.98 2.32 8 3 C4.80340962 5.82775303 2.30502354 7 -2 7 C-4.46107594 5.58488133 -5.97728119 4.07087878 -8 2 C-8 1.34 -8 0.68 -8 0 C-5.13822943 -1.43088528 -3.06624227 -0.59991697 0 0 Z M-10 2 C-8 3 -8 3 -8 3 Z " fill="#E0DCDC" transform="translate(377,275)"/>
  <path d="M0 0 C7.92 0 15.84 0 24 0 C24 0.66 24 1.32 24 2 C20.90328147 3.54835926 17.64450461 3.14325002 14.25 3.125 C13.19425781 3.13080078 13.19425781 3.13080078 12.1171875 3.13671875 C7.97073913 3.1290116 4.0846791 2.80922888 0 2 C0 1.34 0 0.68 0 0 Z " fill="#808080" transform="translate(365,333)"/>
  <path d="M0 0 C1.32 0.66 2.64 1.32 4 2 C4 2.99 4 3.98 4 5 C0.49128259 7.20354234 -2.05400991 7.13009244 -6.125 6.75 C-7.70667969 6.61851562 -7.70667969 6.61851562 -9.3203125 6.484375 C-12 6 -12 6 -14 4 C-11 3 -11 3 -9.25 3.5625 C-5.87060084 4.21960539 -3.21578813 3.05131535 0 2 C0 1.34 0 0.68 0 0 Z " fill="#D4D2D2" transform="translate(386,326)"/>
  <path d="M0 0 C2.77812032 1.01864412 3.8532559 1.7639334 5.4375 4.3125 C6 7 6 7 4.875 9.8125 C4.25625 10.534375 3.6375 11.25625 3 12 C1.68 12 0.36 12 -1 12 C-1 10.68 -1 9.36 -1 8 C0.32 8 1.64 8 3 8 C2.525625 7.401875 2.05125 6.80375 1.5625 6.1875 C0 4 0 4 -1 1 C-0.67 0.67 -0.34 0.34 0 0 Z " fill="#C8262A" transform="translate(371,279)"/>
  <path d="M0 0 C0 0.66 0 1.32 0 2 C-0.66 2 -1.32 2 -2 2 C-2 2.66 -2 3.32 -2 4 C-0.35 4.33 1.3 4.66 3 5 C3 5.33 3 5.66 3 6 C-5.57142857 6.28571429 -5.57142857 6.28571429 -9 4 C-9 3.34 -9 2.68 -9 2 C-8.34 2 -7.68 2 -7 2 C-7 1.34 -7 0.68 -7 0 C-3.98968256 -0.93423645 -3.13349732 -1.04449911 0 0 Z " fill="#D9D9D9" transform="translate(363,331)"/>
  <path d="M0 0 C0.33 0.66 0.66 1.32 1 2 C1.763125 2.28875 2.52625 2.5775 3.3125 2.875 C6.28908843 4.12101376 7.86007284 5.62230316 10 8 C9.01 8 8.02 8 7 8 C7 8.66 7 9.32 7 10 C8.98 10 10.96 10 13 10 C13 10.33 13 10.66 13 11 C5.25 11.125 5.25 11.125 3 10 C3 9.34 3 8.68 3 8 C3.66 8 4.32 8 5 8 C5 7.34 5 6.68 5 6 C3.7934375 5.566875 3.7934375 5.566875 2.5625 5.125 C0 4 0 4 -1 2 C-0.67 1.34 -0.34 0.68 0 0 Z " fill="#A6A5A5" transform="translate(358,325)"/>
  <path d="M0 0 C0.33 1.65 0.66 3.3 1 5 C0.195625 5.268125 -0.60875 5.53625 -1.4375 5.8125 C-2.283125 6.204375 -3.12875 6.59625 -4 7 C-4.33 7.99 -4.66 8.98 -5 10 C-5.33 10 -5.66 10 -6 10 C-6.22692276 6.67179946 -6.32162419 4.58198664 -4.6875 1.625 C-3 0 -3 0 0 0 Z " fill="#E8E7E7" transform="translate(404,307)"/>
  <path d="M0 0 C7.75 1.875 7.75 1.875 10 3 C10 3.99 10 4.98 10 6 C6.0186217 7.3271261 2.14954773 7.06915913 -2 7 C-2 6.67 -2 6.34 -2 6 C1.465 5.505 1.465 5.505 5 5 C4.67 4.34 4.34 3.68 4 3 C1.97536745 2.34786708 1.97536745 2.34786708 0 2 C0 1.34 0 0.68 0 0 Z " fill="#E8E8E8" transform="translate(392,330)"/>
  <path d="M0 0 C0.33 0.99 0.66 1.98 1 3 C1.66 3 2.32 3 3 3 C3 3.66 3 4.32 3 5 C3.99 5 4.98 5 6 5 C8.1875 7.5 8.1875 7.5 10 10 C8.35 10 6.7 10 5 10 C4.62875 9.0409375 4.62875 9.0409375 4.25 8.0625 C3.18437567 5.81258459 3.18437567 5.81258459 0.875 5.25 C0.25625 5.1675 -0.3625 5.085 -1 5 C-0.67 3.35 -0.34 1.7 0 0 Z " fill="#D2D2D2" transform="translate(361,320)"/>
  <path d="M0 0 C0.66 0 1.32 0 2 0 C2 1.65 2 3.3 2 5 C1.01 5 0.02 5 -1 5 C-1.12375 5.556875 -1.2475 6.11375 -1.375 6.6875 C-2.05976855 9.22114364 -2.99133763 11.57921032 -4 14 C-4.33 14 -4.66 14 -5 14 C-4.59080462 8.06666693 -3.81109992 4.61951506 0 0 Z " fill="#813333" transform="translate(351,284)"/>
  <path d="M0 0 C0.33 0.66 0.66 1.32 1 2 C2.32 2 3.64 2 5 2 C5 2.66 5 3.32 5 4 C5.66 4 6.32 4 7 4 C7.33 4.99 7.66 5.98 8 7 C6.68 7 5.36 7 4 7 C4 7.66 4 8.32 4 9 C3.34 9 2.68 9 2 9 C1.34 6.03 0.68 3.06 0 0 Z " fill="#961F21" transform="translate(384,278)"/>
  <path d="M0 0 C-0.66 1.98 -1.32 3.96 -2 6 C-2.66 6 -3.32 6 -4 6 C-4 5.34 -4 4.68 -4 4 C-5.65 4 -7.3 4 -9 4 C-9 3.67 -9 3.34 -9 3 C-7.02 2.67 -5.04 2.34 -3 2 C-3.99 2 -4.98 2 -6 2 C-6 1.34 -6 0.68 -6 0 C-6.99 -0.33 -7.98 -0.66 -9 -1 C-5.38055101 -2.34053666 -3.42632833 -1.61798838 0 0 Z " fill="#E09193" transform="translate(385,287)"/>
  <path d="M0 0 C-3.3 2.31 -6.6 4.62 -10 7 C-10.33 6.34 -10.66 5.68 -11 5 C-4.83050847 -1.61016949 -4.83050847 -1.61016949 0 0 Z " fill="#903E3E" transform="translate(368,274)"/>
  <path d="M0 0 C2.31 0.33 4.62 0.66 7 1 C7 1.66 7 2.32 7 3 C6.34 3.66 5.68 4.32 5 5 C2.4375 4.75 2.4375 4.75 0 4 C-0.33 3.34 -0.66 2.68 -1 2 C-0.67 1.34 -0.34 0.68 0 0 Z " fill="#BD6B6D" transform="translate(388,285)"/>
  <path d="M0 0 C2.31 0.33 4.62 0.66 7 1 C6.67 1.66 6.34 2.32 6 3 C3.68925595 3.74118205 1.35188447 4.40206327 -1 5 C-2.2065625 5.309375 -2.2065625 5.309375 -3.4375 5.625 C-3.953125 5.74875 -4.46875 5.8725 -5 6 C-5 5.34 -5 4.68 -5 4 C-4.01 3.67 -3.02 3.34 -2 3 C-1.34 2.01 -0.68 1.02 0 0 Z " fill="#F6DBDB" transform="translate(376,287)"/>
  <path d="M0 0 C0 0.99 0 1.98 0 3 C-0.66 3 -1.32 3 -2 3 C-2 3.99 -2 4.98 -2 6 C-3.65 5.67 -5.3 5.34 -7 5 C-7 3 -7 3 -5.75 1.375 C-4 0 -4 0 0 0 Z " fill="#8A2B2C" transform="translate(383,273)"/>
  <path d="M0 0 C2.475 0.99 2.475 0.99 5 2 C5 4.31 5 6.62 5 9 C4.67 8.01 4.34 7.02 4 6 C1.99983534 4.79117904 1.99983534 4.79117904 0 4 C0 2.68 0 1.36 0 0 Z " fill="#7A2D2D" transform="translate(355,314)"/>
  <path d="M0 0 C2 2 2 2 2.0625 4.4375 C2.041875 5.283125 2.02125 6.12875 2 7 C2.33 7.99 2.66 8.98 3 10 C2.67 10.66 2.34 11.32 2 12 C1.34 12 0.68 12 0 12 C0 8.04 0 4.08 0 0 Z " fill="#A08787" transform="translate(345,296)"/>
  <path d="M0 0 C1.32 0.66 2.64 1.32 4 2 C0.93882432 4.62386487 0.26826873 5 -4 5 C-4.33 4.01 -4.66 3.02 -5 2 C-2.525 2.495 -2.525 2.495 0 3 C0 2.01 0 1.02 0 0 Z " fill="#C39293" transform="translate(381,276)"/>
  <path d="M0 0 C-0.75 1.9375 -0.75 1.9375 -2 4 C-4.125 4.75 -4.125 4.75 -6 5 C-5.6875 3.0625 -5.6875 3.0625 -5 1 C-2 0 -2 0 0 0 Z " fill="#811D1E" transform="translate(393,322)"/>
  <path d="M0 0 C0.66 1.32 1.32 2.64 2 4 C2.66 3.67 3.32 3.34 4 3 C3.34 4.98 2.68 6.96 2 9 C1.34 9 0.68 9 0 9 C-1.15941038 5.52176885 -0.70820884 3.54104422 0 0 Z " fill="#AE7171" transform="translate(397,312)"/>
  <path d="M0 0 C2.0625 0.4375 2.0625 0.4375 4 1 C4 1.66 4 2.32 4 3 C1.35261084 4.4606285 0.10551666 5 -3 5 C-1.125 1.125 -1.125 1.125 0 0 Z " fill="#C7B1B2" transform="translate(355,279)"/>
  <path d="M0 0 C0.33 0 0.66 0 1 0 C1.38909985 1.45463481 1.76088029 2.91391207 2.125 4.375 C2.33382813 5.18710937 2.54265625 5.99921875 2.7578125 6.8359375 C2.83773438 7.55007813 2.91765625 8.26421875 3 9 C2.34 9.66 1.68 10.32 1 11 C0 10 0 10 -0.09765625 7.71484375 C-0.08605469 6.79832031 -0.07445312 5.88179688 -0.0625 4.9375 C-0.05347656 4.01839844 -0.04445313 3.09929687 -0.03515625 2.15234375 C-0.02355469 1.44207031 -0.01195312 0.73179687 0 0 Z " fill="#CFD0D0" transform="translate(405,302)"/>
  <path d="M0 0 C0.99 0.33 1.98 0.66 3 1 C2.34 1 1.68 1 1 1 C1 2.65 1 4.3 1 6 C0.01 6.495 0.01 6.495 -1 7 C-1.66 7.99 -2.32 8.98 -3 10 C-2.49287967 6.28111761 -1.88391785 3.26545761 0 0 Z " fill="#C4B2B2" transform="translate(350,289)"/>
  <path d="M0 0 C2.625 -0.1875 2.625 -0.1875 5 0 C5 0.99 5 1.98 5 3 C2.69 3 0.38 3 -2 3 C-1.34 2.01 -0.68 1.02 0 0 Z " fill="#F0DBDC" transform="translate(388,290)"/>
  <path d="M0 0 C1.32 0.66 2.64 1.32 4 2 C4 2.99 4 3.98 4 5 C2.35 4.67 0.7 4.34 -1 4 C-0.67 2.68 -0.34 1.36 0 0 Z " fill="#C05F61" transform="translate(371,279)"/>
  <path d="M0 0 C1.98 0.495 1.98 0.495 4 1 C4 1.66 4 2.32 4 3 C3.34 3 2.68 3 2 3 C2 3.66 2 4.32 2 5 C1.01 5.33 0.02 5.66 -1 6 C-0.67 4.02 -0.34 2.04 0 0 Z " fill="#C5ADAE" transform="translate(367,272)"/>
</svg>