<?xml version="1.0" encoding="utf-8"?>
<!-- Generator: Adobe Illustrator 28.0.0, SVG Export Plug-In . SVG Version: 6.00 Build 0)  -->
<svg version="1.2" baseProfile="tiny-ps" id="Layer_1" xmlns="http://www.w3.org/2000/svg" xmlns:xlink="http://www.w3.org/1999/xlink"
	 viewBox="0 0 1080 1080" xml:space="preserve">
	 <title>Sanguine Biosciences, Inc.</title>
<g>
	<path fill="#05038C" d="M949.44,494.99c0.85,1.16,1.17,4.98,0.33,6.6c-0.7,1.36-3.27,2.39-5.14,2.69c-3.26,0.51-7.12,0.1-10.86,0.1
		c-7.22,0-14.67,0.34-21.93,0c-3.31-0.15-7.06-0.3-10.18,0.45c-2.85,0.7-5.68,1.83-8.05,2.92c-1.23,0.56-2.33,1.38-3.47,2.01
		c-0.62,0.34-1.26,0.56-1.78,0.9c-0.55,0.34-0.93,0.8-1.45,1.23c-0.99,0.81-1.99,1.56-3.02,2.47c-0.94,0.81-1.82,1.71-2.8,2.68
		c-1.35,1.34-4.55,4.32-3.26,7.17c0.89,1.91,4.89,1.34,7.96,1.34c15.7,0,31.89-0.11,47.33-0.11c5.84,0,14.38-0.95,16.45,2.46
		c0.89,1.49,0.81,4.92,0,6.27c-2.16,3.56-11.59,2.46-17.34,2.46c-17.14,0-32.09,0-49.45,0c-3.13,0-6.67-0.73-9.39,0
		c-1.42,0.39-2.72,1.71-3.37,3.36c-0.76,1.98-0.57,5.13-0.45,7.72c0.13,2.87,0.31,5.44,0.78,7.5c0.5,2.18,1.4,4.31,2.01,6.37
		c0.33,1.13,0.58,2.06,1.11,3.01c0.55,1,0.88,2.01,1.35,2.8c0.56,0.95,1.44,1.91,2.12,2.9c0.71,1.02,1.36,1.94,2.14,2.8
		c0.77,0.88,1.44,1.82,2.34,2.57c0.91,0.78,1.62,1.67,2.57,2.35c0.96,0.69,1.83,1.42,2.8,2.12c0.95,0.7,1.95,1.28,3.02,1.9
		c1.02,0.58,2.2,1.03,3.35,1.57c1.12,0.51,2.16,1.3,3.25,1.67c2.18,0.73,4.18,0.87,5.92,1.34c1.99,0.54,3.86,0.99,5.94,1.23
		c4.65,0.56,8.85,0.22,14.21,0.22c4.68,0,9.26,0.22,14.43,0c3.75-0.16,11.26-0.6,12.54,1.9c0.69,1.35,1.14,4.13,0.22,5.82
		c-0.85,1.55-2.79,2.42-5.26,2.79c-2.38,0.35-5.15,0.11-7.72,0.11c-12.57,0-26.78,0.71-37.37-1.45c-2.13-0.43-4.09-0.99-6.04-1.68
		c-1.89-0.65-3.92-1.05-5.83-1.89c-1.57-0.73-2.99-1.79-4.58-2.59c-1.58-0.78-2.98-1.8-4.36-2.79c-0.67-0.47-1.22-1.14-1.91-1.68
		c-0.7-0.55-1.43-0.95-2.01-1.57c-0.58-0.59-1.17-1.21-1.79-1.79c-0.65-0.6-1.07-1.29-1.68-1.89c-0.64-0.65-1.31-1.08-1.78-1.79
		c-0.49-0.73-0.89-1.42-1.46-2.12c-1.08-1.34-1.81-2.84-2.79-4.37c-0.94-1.46-1.45-3.21-2.35-4.82c-0.95-1.7-1.5-3.31-2.01-5.14
		c-1.03-3.68-2.11-7.55-2.24-12.08c-0.14-4.47-0.34-9.43,0.22-14.1c0.49-4.1,1.88-7.74,3.14-11.19c0.63-1.75,1.54-3.26,2.35-4.81
		c0.77-1.5,1.63-3.08,2.57-4.58c0.47-0.75,1.3-1.41,1.89-2.24c0.61-0.83,1.16-1.58,1.79-2.24c1.41-1.45,2.57-3.06,3.91-4.25
		c1.51-1.33,3.08-2.37,4.6-3.59c0.72-0.58,1.42-1.3,2.23-1.78c1.65-0.96,3.33-2.12,5.14-3.02c0.89-0.44,1.65-1.06,2.57-1.46
		c1.84-0.79,3.97-1.19,6.04-2.12c1.89-0.86,3.99-1.49,6.38-1.79c1.19-0.15,2.48-0.18,3.69-0.34c1.34-0.17,2.51-0.35,3.8-0.45
		c7.68-0.56,18.24-0.1,26.74-0.1c2.95,0,6.01-0.32,8.84,0C945.79,493.13,948.73,494.03,949.44,494.99z"/>
	<path fill="#05038C" d="M841.47,522.51c1.79,4.1,2.18,10.45,1.9,17.01c-0.53,12.81-0.11,24.72-0.11,37.59c0,2.88-0.15,6.26,0,9.39
		c0.15,3.12,0.44,6.59-0.33,8.84c-0.55,1.56-1.59,2.93-3.36,3.35c-3.24,0.79-5.95-0.88-6.82-2.9c-0.75-1.72-0.45-4.63-0.45-7.73
		c0-13.99,0-27.71,0-41.61c0-2.7-0.02-5.48,0.11-8.17c0.13-2.87,0.07-6.06-0.45-8.62c-0.31-1.45-1.09-3.12-1.68-4.81
		c-0.55-1.54-1.2-3.12-2.01-4.36c-0.92-1.37-1.55-2.73-2.47-3.91c-1.88-2.41-3.88-4.45-6.38-6.37c-1.22-0.94-2.31-1.99-3.68-2.68
		c-2.82-1.43-5.51-2.86-8.95-3.8c-3.76-1.04-7.97-1.08-11.85-0.78c-7.7,0.57-13.44,3.48-18.25,7.27c-1.07,0.86-2.08,2.06-3.24,3.13
		c-0.5,0.47-1,1.12-1.57,1.68c-1.24,1.27-1.85,2.2-2.79,3.92c-1.14,2.06-3.04,4.33-3.91,6.6c-0.83,2.1-1.36,4.72-1.91,7.38
		c-0.56,2.7-0.56,5.58-0.56,8.62c0,12.2,0.01,24.26,0,36.92c0,2.88-0.14,6.21,0,9.28c0.14,3.01,0.48,6.15-0.55,8.17
		c-1.18,2.27-4.62,3.76-7.62,2.58c-1-0.41-2.5-1.92-2.9-3.03c-0.88-2.41-0.23-6.37-0.22-9.06c0.08-16.49,0.03-31.87-0.11-48.11
		c-0.05-6.5,1-12.12,2.68-16.55c0.44-1.15,1.2-2.4,1.79-3.7c0.57-1.24,1.08-2.57,1.79-3.58c1.08-1.56,2.11-3.16,3.36-4.7
		c0.42-0.52,0.71-1.09,1.11-1.56c0.6-0.72,1.52-1.23,2.24-2.02c0.7-0.79,1.46-1.31,2.24-2.01c1.49-1.37,2.93-2.79,4.48-3.91
		c0.72-0.55,1.75-1.02,2.68-1.57c0.88-0.52,1.71-1.16,2.56-1.56c1-0.46,2-0.82,2.92-1.34c0.94-0.54,1.81-1.12,2.69-1.46
		c2.19-0.83,4.79-1.23,7.26-1.9c2.54-0.68,5.27-1.1,8.17-1.12c2.9-0.01,6.31-0.01,8.95,0.56c6.1,1.32,11.46,4.33,16.12,7.38
		c0.94,0.62,1.71,1.4,2.57,2.12c0.86,0.73,1.74,1.37,2.57,2.24c0.79,0.84,1.75,1.41,2.46,2.24c1.47,1.69,3.18,3.11,4.59,4.81
		c1.37,1.67,2.69,3.61,3.68,5.7C839.22,518.41,840.52,520.33,841.47,522.51z"/>
	<path fill="#05038C" d="M727.45,497.78c1.11,2.23,0.57,8.33,0.57,11.76c0,25.41,0,49.62,0,75.06c0,4.05,0.52,9.47-0.67,11.53
		c-0.44,0.77-1.86,1.99-3.03,2.35c-2.05,0.62-4.99,0.26-6.26-0.79c-2.11-1.72-1.77-6.65-1.57-10.97c0.22-4.67,0-9.12,0-12.87
		c0-16.82,0-35.21,0-51.58c0-3.39,0-8.28,0-12.86c0-6.36-1.69-13.25,4.03-14.43c0.34-0.07,2.63-0.25,3.69,0.11
		C725.52,495.54,726.94,496.72,727.45,497.78z"/>
	<path fill="#05038C" d="M690.2,553.5c0.15,3.31,0.26,6.44-0.22,9.28c-0.23,1.31-0.71,2.57-1.01,3.81
		c-0.39,1.61-0.46,3.06-1.01,4.58c-0.27,0.76-0.97,1.35-1.46,2.13c-0.44,0.72-0.73,1.62-1.11,2.35c-0.4,0.77-0.79,1.61-1.23,2.35
		c-0.46,0.76-0.78,1.62-1.24,2.23c-0.47,0.65-1.23,1.1-1.79,1.79c-1.01,1.27-2.02,2.55-3.13,3.81c-1.59,1.81-3.5,3.27-5.58,4.92
		c-0.66,0.51-1.43,1-2.02,1.56c-0.67,0.63-1.17,1.17-1.9,1.56c-1.51,0.81-3.15,1.61-4.71,2.35c-1.58,0.75-3.11,1.64-4.7,2.24
		c-1.72,0.64-3.64,1.03-5.58,1.45c-1.92,0.41-4.09,0.88-6.16,0.89c-3.9,0.04-8.05-0.85-12.08-1.68c-3.78-0.78-7.18-2.04-10.31-3.8
		c-1.59-0.9-3.33-1.27-4.69-2.35c-3.25-2.58-6.91-4.79-9.63-7.95c-1-1.17-2.14-2.66-3.13-3.91c-1.48-1.85-2.7-4.2-3.8-6.6
		c-2.99-6.56-4.39-14.29-4.03-23.83c0.35-8.96,0-18.7,0-28.07c0-6.99,0.15-13.94-0.11-20.93c-0.07-2.02-0.33-4.96,0.45-6.6
		c0.34-0.74,1.74-2.5,2.68-2.92c0.59-0.25,1.35-0.26,2.23-0.33c2.12-0.15,4.63,1.04,5.49,3.02c0.93,2.16,0.67,5.13,0.56,7.5
		c-0.37,7.92-0.11,16.52-0.11,24.5c0,5.35,0,10.99,0,16.45c0,5.36-0.45,11.34,0.21,16.23c0.34,2.47,0.82,4.66,1.46,6.82
		c0.6,1.95,1.7,3.74,2.57,5.59c1.2,2.57,3.44,5.02,5.03,7.38c0.62,0.93,1.24,1.39,2.01,2.02c0.77,0.62,1.43,1.3,2.24,1.89
		c0.8,0.6,1.41,1.37,2.25,1.91c1.58,1.02,3.45,1.93,5.36,2.8c3.73,1.67,7.61,2.9,13.42,2.79c5.47-0.11,9.81-1.13,13.76-2.69
		c0.9-0.36,1.77-0.85,2.69-1.45c0.85-0.56,1.81-0.97,2.57-1.57c0.78-0.61,1.53-1.23,2.34-1.79c2.51-1.69,4.33-3.7,6.16-6.14
		c0.58-0.78,1.31-1.51,1.78-2.36c0.49-0.83,0.82-1.78,1.34-2.68c2.09-3.53,3.33-7.93,3.36-13.09c0.08-15.95,0-33.02,0-49.34
		c0-2.36,0.01-5.24-0.11-8.05c-0.13-2.77-0.07-5.63,0.9-7.28c1.33-2.26,4.27-2.81,6.7-1.9c4.39,1.63,3.31,6.73,3.25,12.41
		c-0.1,9.75,0,19.74,0,29.2C690.2,540.46,689.93,547.21,690.2,553.5z"/>
	<path fill="#05038C" d="M573.85,505.84c0,34.17,0.11,69.61,0.11,103.83c0,3.97-0.44,7.75-0.89,11.19c-0.15,1.18-0.21,2.4-0.45,3.46
		c-0.27,1.22-0.82,2.51-1.34,3.81c-0.5,1.23-0.83,2.55-1.34,3.69c-0.49,1.06-1.26,2.12-1.8,3.25c-0.56,1.18-1.12,2.36-1.79,3.23
		c-1.42,1.9-2.84,3.95-4.59,5.59c-1.78,1.67-3.14,3.7-4.91,5.15c-0.92,0.75-1.94,1.67-2.92,2.23c-0.59,0.36-1.17,0.55-1.68,0.9
		c-0.47,0.34-0.83,0.73-1.34,1.12c-1.97,1.51-4.4,2.39-6.6,3.47c-1.24,0.6-2.23,1.33-3.36,1.79c-3.57,1.44-8.76,1.12-13.98,1.12
		c-3.32,0-6.85-0.06-9.84-0.33c-1.54-0.13-2.93-0.35-4.14-0.9c-3.39-1.47-6.68-3.31-9.73-5.47c-0.99-0.7-2.2-1.15-3.13-1.91
		c-0.48-0.38-0.78-0.93-1.23-1.33c-0.44-0.39-1.01-0.65-1.46-1.01c-0.48-0.4-0.78-0.92-1.22-1.35c-0.45-0.41-1.01-0.71-1.46-1.11
		c-1.72-1.58-3.2-3.46-4.69-5.37c-0.74-0.94-1.17-2.09-1.9-3.14c-0.74-1.04-1.48-1.82-2.01-3.01c-0.5-1.1-1.04-2.2-1.57-3.47
		c-0.47-1.12-0.94-2.42-1.45-3.57c-0.54-1.25-1.2-2.45-1.46-3.58c-0.28-1.29-0.44-2.84-0.56-4.15c-0.14-1.45-0.08-2.92,0.33-4.13
		c0.54-1.59,1.7-2.48,3.02-2.92c2.84-0.93,5.86,0.82,6.94,2.8c1.27,2.34,1.44,5.18,2.12,7.62c0.7,2.42,1.31,5.01,2.58,7.15
		c1.25,2.12,2.5,4.03,3.79,5.94c1.28,1.87,2.93,3.38,4.71,4.91c1.75,1.52,3.59,2.89,5.69,4.04c2.04,1.09,4.45,1.77,7.17,2.45
		c5.03,1.27,11.39,2,17.45,0.79c2.47-0.5,4.95-1.55,7.39-2.35c1.15-0.38,1.96-1.04,3.01-1.78c1.03-0.74,2.21-1.17,3.02-1.79
		c1.7-1.3,3.11-3.16,4.93-4.81c0.79-0.74,1.39-1.76,2.12-2.68c2.22-2.83,3.42-5.87,4.93-9.63c1.92-4.83,2.34-9.74,2.34-17
		c0-3.02,0.73-7.6-1.34-9.06c-2.23-1.57-6.81-0.83-10.52-0.78c-5.54,0.09-11.32,0.17-16.66-0.11c-7.63-0.39-14.49-2.01-20.58-4.36
		c-1.89-0.72-3.57-1.98-5.48-2.91c-0.93-0.43-1.8-0.95-2.69-1.56c-0.85-0.59-1.79-1.01-2.57-1.58c-0.77-0.54-1.45-1.38-2.24-2.01
		c-1.52-1.2-2.86-2.7-4.27-4.14c-1.37-1.42-2.82-2.69-4.13-4.24c-0.63-0.77-1.06-1.68-1.67-2.46c-0.63-0.8-1.17-1.65-1.68-2.58
		c-0.49-0.88-1.03-1.71-1.57-2.57c-1.04-1.68-1.76-3.8-2.57-5.81c-0.82-2.03-1.25-4.29-2.01-6.39c-1.54-4.2-1.71-9.71-1.46-15.21
		c0.13-2.78,0.22-5.36,0.78-7.6c0.28-1.12,0.69-2.19,1.01-3.25c1.21-4.11,2.53-8.8,4.93-11.86c0.63-0.81,0.97-1.76,1.44-2.68
		c0.45-0.85,1.13-1.56,1.8-2.47c0.62-0.82,1.02-1.8,1.68-2.46c1.42-1.43,2.69-2.95,4.03-4.36c0.69-0.74,1.52-1.3,2.23-2.01
		c0.72-0.73,1.47-1.31,2.24-1.9c0.78-0.59,1.44-1.41,2.24-1.9c0.89-0.55,1.74-0.98,2.57-1.57c1.67-1.17,3.44-2.23,5.38-3.02
		c1.93-0.8,3.96-1.35,6.03-2.35c2-0.96,4.31-1.27,6.82-1.56c2.54-0.3,5.1-0.72,7.61-0.78c10.46-0.33,21.96,0.49,33.68,0
		c2.92-0.13,6.33,0.24,7.5,2.01C574.8,497.46,573.85,501.92,573.85,505.84z M560.54,587.51c3.07-1.66,2.12-6.91,2.12-11.75
		c0-20.43,0-40.54,0-61.09c0-3.57,0.4-7.41-1-9.06c-1.31-1.53-4.54-1.44-6.5-1.34c-7.79,0.36-14.43,0-21.14,0
		c-4.98,0-9.73,0.99-13.53,2.35c-1.38,0.49-2.79,0.8-4.04,1.34c-0.92,0.41-1.8,1.08-2.68,1.57c-0.93,0.51-2.03,0.88-2.91,1.44
		c-0.61,0.41-1.15,1.02-1.79,1.46c-1.34,0.93-2.44,2.02-3.58,3.02c-0.61,0.54-1.01,1.19-1.57,1.79c-0.52,0.55-1.12,1.01-1.56,1.68
		c-0.48,0.71-0.83,1.25-1.45,1.9c-0.54,0.56-0.86,1.22-1.35,1.9c-0.5,0.7-1.12,1.29-1.45,1.9c-0.49,0.93-0.68,2.03-1.12,3.14
		c-0.38,0.97-1.07,1.92-1.45,2.79c-0.91,2.03-1.38,4.6-1.68,6.82c-0.69,5.06-0.7,10.58,0,16c0.31,2.44,0.7,4.8,1.57,6.94
		c0.84,2.06,1.6,4.11,2.68,5.92c2.22,3.72,4.64,6.95,7.5,9.62c2.18,2.05,4.62,3.94,7.17,5.61c1.88,1.23,3.79,1.73,5.8,2.67
		c1,0.47,1.99,0.95,3.03,1.24c2.15,0.59,4.54,0.84,7.16,1.45c6.81,1.61,15.55,0.93,23.94,1.23
		C555.34,588.17,558.66,588.52,560.54,587.51z"/>
	<path fill="#05038C" d="M467.79,526.31c1.24,5.59,0.67,16.15,0.67,22.82c0,11.19,0,23.59,0,35.25c0,3.66,0.64,8.33-0.45,11.07
		c-1.58,3.97-8.32,4.52-10.17,0.56c-0.89-1.86-0.56-4.39-0.56-7.6c0-13.95,0-27.83,0-41.63c0-2.75,0-5.51,0.11-8.16
		c0.11-2.79,0.15-5.58-0.23-8.06c-0.28-1.9-1.26-3.63-1.9-5.48c-0.63-1.87-1.5-3.43-2.35-5.03c-0.46-0.86-0.7-1.72-1.24-2.46
		c-1.41-1.95-3.54-4.11-5.25-5.82c-2.47-2.46-5.59-4.32-8.84-5.92c-3.42-1.69-7.38-2.79-11.74-2.91c-2.48-0.06-4.73-0.1-6.94,0
		c-5.32,0.22-9.95,2.59-13.76,4.7c-0.8,0.44-1.34,0.95-2.02,1.57c-0.65,0.59-1.43,0.98-2.12,1.57c-0.65,0.55-1.14,1.34-1.8,1.9
		c-0.72,0.62-1.12,1.12-1.78,1.9c-0.57,0.68-1.4,1.14-1.9,1.79c-0.48,0.63-0.87,1.54-1.35,2.35c-0.9,1.52-1.69,3.04-2.8,4.58
		c-1.84,2.58-2.46,6.14-3.24,10.19c-0.52,2.65-0.36,5.42-0.34,8.38c0.11,15.1-0.08,30.62,0,45.76c0.02,3.09,0.33,6.01-0.56,8.06
		c-1.3,2.99-4.68,3.86-7.38,2.8c-1.2-0.48-2.82-1.84-3.25-3.03c-0.78-2.15-0.33-5.12-0.33-7.72c0-13.72,0-27.09,0-41.05
		c0-5.72-0.22-11.3,0.33-16.11c0.26-2.21,0.97-4.46,1.67-6.61c0.67-2.02,1.51-3.99,2.35-5.81c0.47-1,0.78-1.95,1.34-2.8
		c1.58-2.37,3.37-4.92,5.15-7.15c0.63-0.78,1.36-1.38,2.01-2.12c0.7-0.81,1.53-1.15,2.35-1.79c0.78-0.61,1.34-1.41,2.12-2.02
		c2.23-1.74,4.5-3.55,7.39-4.92c0.95-0.46,1.9-0.85,2.8-1.35c0.92-0.53,1.71-1.11,2.58-1.45c1.99-0.79,4.37-1.2,6.7-1.79
		c2.59-0.65,4.88-1.19,7.39-1.34c2.82-0.19,7.29-0.23,10.3,0.33c1.36,0.25,2.81,0.75,4.13,1.24c1.38,0.5,2.75,0.86,3.91,1.33
		c1.02,0.43,2.01,1.06,3.02,1.68c1.96,1.2,3.98,2.24,5.82,3.58c0.93,0.69,1.68,1.45,2.57,2.13c0.48,0.37,1.02,0.53,1.45,0.89
		c0.42,0.34,0.73,0.82,1.12,1.24c0.78,0.79,1.6,1.47,2.35,2.35c0.73,0.85,1.75,1.41,2.46,2.24c0.72,0.85,1.48,1.64,2.12,2.46
		c1.7,2.18,3.02,4.65,4.59,7.16c0.76,1.22,1.3,2.67,1.9,4.03C466.88,523.5,467.45,524.8,467.79,526.31z"/>
	<path fill="#05038C" d="M356.69,588.41c0.12,2.5,0.3,4.93-0.23,6.93c-0.33,1.29-0.96,2.72-2.12,3.35
		c-1.64,0.89-4.45,0.88-6.83,0.78c-11.85-0.47-25.29-0.12-37.37-0.12c-2.53,0-4.99,0.23-7.39,0.12c-2.24-0.1-4.5-0.49-6.71-0.78
		c-2.29-0.3-4.31-0.58-6.16-1.34c-1.78-0.74-3.42-1.55-5.02-2.46c-0.88-0.5-1.73-0.78-2.47-1.35c-0.67-0.52-1.16-1.24-1.89-1.79
		c-1.4-1.03-2.83-2.13-4.04-3.47c-1.14-1.26-2.12-2.76-3.24-4.25c-1.11-1.47-1.98-2.97-2.79-4.71c-1.56-3.35-3.46-7.07-3.91-11.08
		c-0.59-5.08-0.63-9.88,0.22-14.09c0.37-1.82,1.3-3.7,2.02-5.48c1.46-3.7,3.27-6.43,5.59-9.41c0.55-0.69,1.31-1.23,1.9-1.9
		c0.67-0.75,1.17-1.25,1.91-1.78c0.71-0.54,1.36-1.2,2.12-1.68c0.82-0.52,1.44-0.97,2.12-1.57c2.75-2.4,6.3-3.52,10.07-4.92
		c5.45-2.02,12.43-2.02,20.48-2.02s17.9-0.26,26.06,0.23c3.11,0.18,5.41-0.54,5.72-3.58c0.32-3.27-1.51-5.41-2.69-7.5
		c-0.74-1.31-1.67-2.29-2.57-3.47c-0.45-0.58-0.91-0.9-1.56-1.46c-0.54-0.46-0.92-1.15-1.45-1.56c-0.53-0.42-1.3-0.69-1.9-1.13
		c-0.94-0.66-1.56-1.16-2.57-1.56c-3.48-1.37-7.87-1.19-12.43-1.01c-11.5,0.46-23.1-0.52-34.57,0c-2.4,0.11-4.51,0.22-6.26-0.34
		c-1.39-0.43-2.89-1.99-3.36-3.23c-1.59-4.19,1.43-7.86,5.7-7.83h0.23c3.77-0.3,8.98,0,13.42,0c8.85,0,17.93,0,26.85,0
		c2.15,0,4.22,0.13,6.27,0.45c2.76,0.41,5.34,0.35,7.62,1.22c1.61,0.63,3.31,1.84,5.03,2.69c3.49,1.7,5.72,4.5,8.28,7.15
		c0.62,0.64,1.14,1.37,1.67,2.13c1.08,1.53,2.07,2.9,2.91,4.81c0.37,0.84,0.87,1.7,1.23,2.57c0.75,1.87,1.1,3.91,1.45,6.15
		c0.68,4.37,0.56,9.32,0.56,14.55c0,14.96,0,30.39,0,46.09C356.58,583.29,356.57,585.9,356.69,588.41z M345.05,550.03
		c0.01-4.13,0.93-9.76-0.89-12.09c-1.04-1.32-3.39-1.51-4.71-1.45c-8.4,0.35-16.57,0.11-24.84,0.11c-4.28,0-8.29-0.31-11.97,0.23
		c-1.67,0.24-3.4,0.57-5.04,1.12c-1.69,0.56-3.5,0.74-4.92,1.34c-0.71,0.31-1.39,0.85-1.9,1.24c-1.16,0.87-2.55,1.8-3.7,2.68
		c-1.73,1.34-2.87,2.28-4.36,3.91c-0.38,0.42-0.74,0.95-1.12,1.46c-0.38,0.49-0.81,0.97-1.11,1.45c-2.78,4.29-3.92,10.9-3.14,17.67
		c0.18,1.53,0.46,3.13,1,4.47c0.56,1.38,1.06,2.77,1.69,3.92c0.54,1.02,1.38,1.84,2.01,2.79c1.29,1.97,2.91,3.63,4.81,4.81
		c2.94,1.84,6.22,3.64,10.07,4.37c2.73,0.52,5.87,0.44,9.29,0.44c6.58,0,12.57,0,19.35,0c3.19,0,6.18-0.15,9.62,0
		c2.93,0.14,6.82,0.67,8.51-0.78c2.04-1.74,1.33-7.43,1.33-11.51C345.06,567.14,345.05,558.81,345.05,550.03z"/>
	<path fill="#05038C" d="M244.36,536.27c1.51,6.43,1.38,13.71,0,19.92c-0.33,1.45-0.78,2.95-1.12,4.47c-0.33,1.51-0.73,3-1.34,4.26
		c-1.29,2.67-2.25,5.31-3.68,7.49c-2.95,4.46-5.95,8.79-9.96,12.42c-1.89,1.7-4.11,3.26-6.26,4.93c-1.01,0.78-2.32,1.26-3.59,2.01
		c-1.22,0.72-2.17,1.79-3.25,2.24c-2.59,1.09-5.33,2.29-8.16,3.02c-2.95,0.75-6.19,1.23-9.62,1.56c-3.28,0.31-6.99,0.23-10.74,0.23
		c-16.77,0-33.25,0.17-50.24,0c-2.29-0.03-4.47-0.17-5.38-1.23c-1.41-1.68-1.2-6.3,0.34-7.5c1.36-1.05,4.1-1.01,7.61-1.01
		c8.22,0,17.2,0.11,25.62,0.11c11.31,0,23.71,0.5,33.57-0.68c2.32-0.27,4.58-0.97,6.83-1.78c2.28-0.82,4.26-1.36,6.04-2.46
		c1.74-1.08,3.58-2.07,5.25-3.35c0.79-0.61,1.47-1.3,2.25-2.02c0.75-0.7,1.76-1.11,2.46-1.78c0.34-0.34,0.65-0.86,1.01-1.24
		c0.95-1.03,1.92-2.34,3.02-3.35c0.81-0.75,1.44-1.37,2.01-2.24c1.64-2.49,3.56-4.96,4.59-8.28c0.33-1.05,0.71-2.09,1.11-3.13
		c2.11-5.44,2.2-13.26,1.23-20.25c-0.23-1.68-0.92-3.16-1.45-4.7c-0.58-1.65-0.9-3.3-1.57-4.71c-0.66-1.39-1.38-2.74-2.12-4.01
		c-1.52-2.61-3.38-4.11-5.48-6.94c-1-0.54-1.49-1.6-2.34-2.35c-0.84-0.73-1.82-1.3-2.69-2.01c-1.67-1.36-3.52-2.86-5.6-3.69
		c-2.23-0.89-4.26-2.1-6.71-2.68c-2.36-0.57-4.95-1.15-7.84-1.45c-2.94-0.33-6.03-0.13-9.18-0.23c-9.09-0.28-18.63,0.11-27.74,0.11
		c-3.27,0-6.02-0.32-8.61-0.78c-3.12-0.57-5.87-1.81-8.5-3.14c-0.54-0.27-0.8-0.53-1.35-1.01c-0.82-0.71-1.82-1.24-2.68-2.01
		c-1.64-1.44-3.12-3.09-4.48-4.81c-0.67-0.85-1.14-1.93-1.79-2.91c-1.86-2.82-3.45-5.76-3.8-10.17c-0.21-2.63-0.37-5.97-0.23-9.06
		c0.13-2.74,0.09-5.89,1.01-8.28c0.41-1.07,1.28-2.13,1.9-3.25c1.22-2.2,2.29-4.21,4.14-5.93c0.88-0.82,1.55-1.77,2.46-2.58
		c0.92-0.81,1.65-1.72,2.68-2.45c0.98-0.7,1.86-1.41,3.02-2.02c1.08-0.56,2.22-1.12,3.25-1.79c2.97-1.95,7.9-1.91,12.97-1.91
		c22.65,0,46.82,0.11,68.92,0c3.7-0.01,5.12,1.06,5.26,4.37c0.05,1.38-0.31,2.62-0.89,3.46c-0.75,1.08-2.21,2.14-4.03,2.47
		c-2.09,0.37-4.25,0.21-6.37,0.11c-4.42-0.21-9.37-0.11-12.86-0.11c-17.36,0-34.73,0-51.69,0c-4.31,0-6.77,1.55-9.73,3.24
		c-1.36,0.78-2.27,1.96-3.36,3.13c-0.49,0.54-0.94,1.24-1.45,1.79c-0.57,0.63-1.11,1.01-1.45,1.67c-0.68,1.31-0.96,2.82-1.46,4.13
		c-0.57,1.49-0.95,2.9-1.11,4.48c-0.37,3.31,0.65,6.38,1.56,9.4c0.33,1.08,1.04,2.63,1.9,3.68c0.42,0.53,0.96,0.93,1.35,1.46
		c0.46,0.65,0.78,0.99,1.33,1.45c1.08,0.89,1.86,1.94,2.92,2.68c1.08,0.77,2.19,1.51,3.58,2.02c5.69,2.1,13.35,1.56,20.58,1.56
		c7.19,0,15.53-0.24,22.16,0.11c3.42,0.19,6.65,0.89,9.73,1.45c1.62,0.29,3.12,0.65,4.59,1.01c2.94,0.7,5.43,1.9,7.94,3.24
		c1.25,0.67,2.54,1.16,3.69,1.9c1.13,0.73,2.1,1.64,3.25,2.35c1.1,0.7,2.2,1.46,3.24,2.24c0.96,0.71,1.79,1.92,2.69,2.91
		c0.87,0.99,1.69,2.05,2.57,3.02c1.83,2.04,3.1,4.5,4.48,6.72c1.47,2.37,2.55,4.99,3.58,7.61
		C243.22,530.21,243.65,533.28,244.36,536.27z"/>
	<path fill="#F21617" d="M710.7,442.19c7.54-11.64,8.35-21.28,8.35-21.28c0.15-0.8,0.87-0.82,1.06-0.03c0,0,1.83,9.55,9.97,20.65
		c6.74,8.76,9.76,12.19,10.01,19.5c0.37,10.48-7.72,19.15-18.3,19.51c-10.48,0.35-19.4-7.72-19.76-18.21
		C701.79,455.02,707.19,447.69,710.7,442.19"/>
</g>
</svg>
