<?xml version="1.0" encoding="UTF-8" standalone="yes"?>
<svg version="1.2" baseProfile="tiny-ps" viewBox="0 0 128 128" xml:space="preserve" xmlns="http://www.w3.org/2000/svg">
  <title>bimi-svg-tiny-12-ps</title>
  <g>
    <rect y="0" fill="#0091D3" width="128" height="128"/>
    <g>
      <path d="M83.57,64c0,25.69-11.6,48.67-29.85,64H68.7c15.63-16.77,25.21-39.26,25.21-64S84.33,16.77,68.7,0H53.73&#xD;&#xA;&#x9;&#x9;&#x9;C71.97,15.33,83.57,38.31,83.57,64z"/>
      <path d="M54.76,64C54.76,33.76,30.24,9.24,0,9.24v109.52C30.24,118.76,54.76,94.24,54.76,64z"/>
      <path d="M64,64c0,35.35-28.65,64-64,64H37.8c21.87-12.94,36.54-36.75,36.54-64S59.66,12.94,37.8,0H0C35.35,0,64,28.65,64,64z"/>
    </g>
  </g>
</svg>