<?xml version="1.0" encoding="UTF-8" standalone="yes"?>
<svg version="1.2" baseProfile="tiny-ps" viewBox="0 0 320 320" xml:space="preserve" xmlns="http://www.w3.org/2000/svg">
  <title>bimi-svg-tiny-12-ps</title>
  <g>
    <rect fill="#002F53" width="320" height="320"/>
  </g>
  <g>
    <path fill="#FFFFFF" d="M153,219.9l20.2-44.8l21.5,44.8H153z M228.7,241.7l-43.4-89.4c-1.2-2.4-1.5-3-2.2-3v-14.7h-3.3&#xA;&#x9;&#x9;c-3.5,10.3-18.9,35.1-49.2,35.1c-25.4,0-33-27.9-33-51c-0.3-27.3,7.7-50.8,38.8-51c19.7,0.2,35.3,15.9,42.7,32.9h4.1V65.3h-3.1&#xA;&#x9;&#x9;c-1.3,2.6-2.2,5.4-7,5.4c-7.6,0-11.3-1.7-16.7-3.5c-5.2-1.6-12.1-3.3-25.9-3.3c-29.3,0-55.5,24.4-55.5,54.9&#xA;&#x9;&#x9;c0,30.5,26.1,54.9,55.5,54.9c12.6,0,22.1-1.9,27.6-3.5c4.2-1.2,8.5-2.8,11.3-3.6c0.4,0.7,0.7,1.6,1,2.3l-27.1,60.3&#xA;&#x9;&#x9;c-7.2,16.1-9.9,20.6-21.3,23v3.9h33.7v-3.9c-8.5,0-12.5-2.4-12.5-6.2c0-1.7,1.5-6.2,3.3-10.5l4.5-10.7h46.4l5.3,10.8&#xA;&#x9;&#x9;c1.3,2.6,4.2,7.5,4.2,10.6c0,3.5-2.9,5.9-12.8,5.9v3.9h50.7v-3.9C235.9,251.4,232.8,250.2,228.7,241.7"/>
  </g>
</svg>