<?xml version="1.0" encoding="utf-8"?>
<!-- Generator: Adobe Illustrator 27.3.1, SVG Export Plug-In . SVG Version: 6.00 Build 0)  -->
<svg version="1.2" baseProfile="tiny-ps" id="Layer_1" xmlns="http://www.w3.org/2000/svg" xmlns:xlink="http://www.w3.org/1999/xlink"
	  viewBox="0 0 106.22 106.22" xml:space="preserve">
<title>Lovehoney</title>
<path fill="#EE3452" d="M53.12,85.21c-7.49-3.15-35.36-17.67-35.36-39.11c0-10.53,8.57-19.1,19.1-19.1c6.86,0,12.88,3.63,16.25,9.07
	c1.8,2.92,2.85,6.35,2.85,10.02c0,6.03-4.89,10.92-10.92,10.92c-3.39,0-6.42-1.55-8.42-3.97c-1.1-1.47-3.19-1.76-4.65-0.66
	c-1.47,1.1-1.76,3.19-0.66,4.65l0,0c0.41,0.51,0.85,1.01,1.33,1.48c3.32,3.32,7.73,5.14,12.42,5.14s9.1-1.83,12.42-5.14
	c3.32-3.32,5.14-7.73,5.14-12.42c0-5.64-1.82-10.86-4.91-15.11l0,0c3.23-2.5,7.28-3.99,11.67-3.99c10.53,0,19.1,8.57,19.1,19.1
	C88.46,67.54,60.61,82.06,53.12,85.21"/>
</svg>
