<?xml version="1.0" encoding="utf-8"?>
<!-- Generator: Adobe Illustrator 27.3.1, SVG Export Plug-In . SVG Version: 6.00 Build 0)  -->
<svg version="1.2" baseProfile="tiny-ps" id="Layer_1" xmlns="http://www.w3.org/2000/svg" xmlns:xlink="http://www.w3.org/1999/xlink"
	  viewBox="0 0 80 80"  xml:space="preserve">
<title>Lovehoney Group</title>
<path fill="#571DAE" d="M63.79,39.66c-1.62,0-2.93-1.31-2.93-2.93c0-3.84-1.57-6.98-4.42-8.84c-2.85-1.86-6.54-2.1-9.88-0.63
	c-1.48,0.65-3.21-0.02-3.86-1.5c-0.65-1.48,0.02-3.21,1.5-3.86c5.16-2.26,10.93-1.85,15.44,1.09c4.49,2.93,7.07,7.94,7.07,13.74
	C66.72,38.34,65.41,39.66,63.79,39.66z"/>
<path fill="#FF5400" d="M40,65.54c-1.14,0-2.23-0.67-2.7-1.79c-0.63-1.49,0.07-3.21,1.56-3.84c0.08-0.04,5.78-2.48,11.36-6.72
	c4.85-3.68,10.64-9.53,10.64-16.47c0-1.62,1.31-2.93,2.93-2.93s2.93,1.31,2.93,2.93c0,17.56-24.53,28.14-25.58,28.58
	C40.77,65.46,40.38,65.54,40,65.54z"/>
<path fill="#FDC244" d="M40,65.54c-0.38,0-0.77-0.07-1.14-0.23c-1.04-0.44-25.58-11.01-25.58-28.58c0-1.62,1.31-2.93,2.93-2.93
	c1.62,0,2.93,1.31,2.93,2.93c0,6.97,5.84,12.84,10.73,16.54c5.59,4.22,11.21,6.62,11.27,6.65c1.49,0.63,2.19,2.35,1.56,3.84
	C42.22,64.86,41.14,65.54,40,65.54z"/>
<path fill="#FF7637" d="M42.7,63.75c0.63-1.49-0.07-3.21-1.56-3.84c-0.01-0.01-0.43-0.19-1.14-0.52c-0.7,0.33-1.12,0.51-1.14,0.52
	c-1.49,0.63-2.18,2.35-1.56,3.84c0.31,0.74,0.9,1.29,1.59,1.57c0.07,0.03,0.14,0.05,0.21,0.08c0.02,0,0.03,0.01,0.05,0.02
	c0.08,0.02,0.16,0.05,0.25,0.06c0.03,0.01,0.05,0.01,0.08,0.01c0.06,0.01,0.12,0.02,0.18,0.03c0.03,0,0.06,0.01,0.08,0.01
	c0.08,0.01,0.16,0.01,0.25,0.01c0,0,0.01,0,0.01,0c0,0,0.01,0,0.01,0c0.08,0,0.16,0,0.25-0.01c0.03,0,0.06-0.01,0.08-0.01
	c0.06-0.01,0.12-0.02,0.18-0.03c0.03,0,0.05-0.01,0.08-0.01c0.08-0.02,0.16-0.04,0.25-0.06c0.02,0,0.03-0.01,0.05-0.02
	c0.07-0.02,0.14-0.05,0.21-0.08C41.8,65.04,42.38,64.49,42.7,63.75z"/>
<path fill="#68D1C5" d="M16.21,39.66c-1.62,0-2.93-1.31-2.93-2.93c0-6.96,3.77-12.77,9.84-15.17c3.06-1.21,6.42-1.44,9.71-0.65
	c3.45,0.82,6.67,2.74,9.3,5.55c1.11,1.18,1.04,3.03-0.14,4.14c-1.18,1.11-3.03,1.04-4.14-0.14c-4.25-4.53-9.29-4.76-12.59-3.45
	c-3.84,1.52-6.14,5.15-6.14,9.73C19.14,38.34,17.83,39.66,16.21,39.66z"/>
<circle fill="#97B677" cx="16.21" cy="36.73" r="2.93"/>
<path fill="#FF274D" d="M34.2,48.88c-3.48,0-6.43-1.46-8.77-4.34c-1.02-1.25-0.83-3.1,0.42-4.12c1.25-1.02,3.1-0.83,4.12,0.42
	c1.25,1.53,2.51,2.18,4.23,2.18c3.55,0,6.03-2.5,6.03-6.07c0-2.48-0.83-4.7-2.46-6.59c-1.05-1.23-0.92-3.07,0.31-4.13
	c1.23-1.05,3.08-0.92,4.13,0.31c2.53,2.95,3.87,6.55,3.87,10.41c0,3.33-1.22,6.38-3.43,8.57C40.47,47.69,37.47,48.88,34.2,48.88z"/>
<path fill="#AD6373" d="M42.18,26.5c-1.06-1.18-2.88-1.31-4.09-0.27c-1.23,1.05-1.36,2.9-0.31,4.13c0.01,0.02,0.03,0.03,0.04,0.05
	c0.01,0.02,0.03,0.03,0.04,0.05c1.11,1.18,2.96,1.24,4.14,0.14C43.17,29.5,43.24,27.68,42.18,26.5z"/>
<circle fill="#A92C43" cx="63.79" cy="36.73" r="2.93"/>
</svg>
