<?xml version="1.0" encoding="UTF-8"?>
<svg id="Layer_1" xmlns="http://www.w3.org/2000/svg" baseProfile="tiny-ps" version="1.2" viewBox="0 0 300 300">
  <title>Luler inc.</title>
  <rect width="300" height="300" fill="#169dda" stroke-width="0"/>
  <path d="M203.4,172c.6-12.1-2.7-22.7-9.6-30.6-7-8-17.3-12.5-28.3-12.5s-19.9,3.8-27.8,10.8l-1.1.9,3.1-38.6h55.1s0-21.5,0-21.5h-84.6c0,0-7.3,72.3-7.3,72.3h30.5c3.9-4.4,9.1-6.8,14.6-6.8s12.1,2.9,16.1,7.8c3.9,4.8,5.7,11.1,4.9,17.7-.4,15.7-10.1,22.8-19.1,22.8s-16.3-8.2-18-16.5h-33.4c2.9,28.2,26.4,41,49.1,41.5l55.7-41.6c.1-1.9.2-3.8.2-5.8Z" fill="#fff" stroke-width="0"/>
</svg>