<?xml version="1.0" encoding="UTF-8" standalone="yes"?>
<svg width="1024" height="1024" viewBox="0 0 1024 1024" fill="none" version="1.2" baseProfile="tiny-ps" xmlns="http://www.w3.org/2000/svg">
  <title>bimi-svg-tiny-12-ps</title>
  <g>
    <rect width="1024" height="1024" fill="white"/>
    <g>
      <rect width="1024" height="1024" fill="#18164C"/>
    </g>
    <path d="M40 425.305L111.21 600.02L143.578 515.059L176.85 600.02L248.06 425.305H209.519L176.85 506.199L143.879 425.305L111.06 506.199L78.2397 425.305H40Z" fill="white"/>
    <path d="M263.418 425.04V596.56H370.308V562.43H298.948V528.01H352.393V493.735H298.948V459.315H370.158V425.04H263.418V425.04Z" fill="white"/>
    <path d="M474.784 424C449.944 424 428.716 432.569 411.403 449.561C393.789 466.699 385.057 487.176 385.057 510.995C385.057 535.103 393.789 555.581 411.403 572.428C428.716 589.275 449.944 597.699 474.784 597.699C499.474 597.699 520.702 589.275 538.316 572.428C555.78 555.581 566.62 532.489 564.211 500.538H473.128V533.36H523.713C515.884 549.336 498.119 563.278 475.085 563.278C460.181 563.278 447.384 558.195 436.996 548.029C426.458 537.863 421.189 525.518 421.189 511.285C421.189 496.907 426.458 484.707 436.996 474.541C447.384 464.23 460.03 459.146 475.085 459.146C489.538 459.146 502.335 464.23 513.174 474.541L538.617 449.997C524.014 435.909 502.034 424 474.784 424Z" fill="white"/>
    <path d="M579.717 425.307V596.246H686.607V562.116H615.397V425.307H579.717Z" fill="white"/>
    <path d="M774.38 424C749.69 424 728.462 432.569 710.848 449.561C693.234 466.699 684.502 487.176 684.502 510.995C684.502 534.958 693.234 555.291 710.848 572.283C728.312 588.985 749.539 597.553 774.38 597.553C799.07 597.553 820.298 589.13 837.912 572.283C855.526 555.436 864.409 534.958 864.409 510.995C864.409 487.176 855.526 466.699 837.912 449.561C820.147 432.569 798.92 424 774.38 424ZM774.23 458.711C789.134 458.711 801.78 463.794 812.319 473.96C823.008 484.272 828.277 496.471 828.277 510.849C828.277 525.227 823.008 537.427 812.319 547.593C801.78 557.614 788.983 562.698 774.23 562.698C759.325 562.698 746.679 557.614 736.141 547.593C725.602 537.427 720.333 525.082 720.333 510.849C720.333 496.617 725.602 484.272 736.141 474.105C746.528 463.794 759.325 458.711 774.23 458.711Z" fill="white"/>
    <path d="M861.844 425.307V459.291H905.503V596.101H941.184V459.291H984.692V425.307H861.844V425.307Z" fill="white"/>
  </g>
  <defs/>
</svg>