<?xml version="1.0" encoding="utf-8"?>
<svg version="1.2" baseProfile="tiny-ps" xmlns="http://www.w3.org/2000/svg" xmlns:xlink="http://www.w3.org/1999/xlink" viewBox="0 0 1080 1080" xml:space="preserve">
	<title>Dick Smith</title>
	<rect fill="#FFFFFF" width="1080" height="1080" />
	<g>
		<g>
			<path d="M998.4,532.7c0-8.9-2.5-16.2-7.6-21.2c-5.1-5-12.6-7.8-21.7-7.8c0,0-38.2,0-38.6,0v-34l0,0.1c0-0.7-0.3-1.4-0.8-1.9
			c-0.5-0.5-1.1-0.8-1.8-0.8h-26.3c-0.7,0-1.4,0.3-1.9,0.8c-0.5,0.5-0.8,1.2-0.8,1.9v140c0,0.7,0.3,1.4,0.8,1.9
			c0.5,0.5,1.1,0.8,1.9,0.8h1.9h1.4l19.6-0.1h1.4h1.9c0.7,0,1.4-0.3,1.9-0.8c0.5-0.5,0.8-1.2,0.8-1.9v-68.6c0.1-2.2,0.9-4.8,1.6-5.7
			c1.6-2.1,4.1-3.8,8.7-4h19.2c4.2,0.2,6.7,1.8,8.4,3.8c1.7,2,2.4,4.7,2.4,6.6v67.9c0,0.7,0.3,1.4,0.8,1.9c0.5,0.5,1.2,0.8,1.9,0.8
			h22.3c0.7,0,1.4-0.3,1.8-0.8c0.5-0.5,0.8-1.1,0.8-1.8C998.4,608.1,998.4,532.7,998.4,532.7" />
			<path d="M812.1,503.7h-24.7c-0.7,0-1.4,0.3-1.9,0.8c-0.5,0.5-0.8,1.2-0.8,1.9v103.5c0,0.7,0.3,1.4,0.8,1.8
			c0.5,0.5,1.2,0.8,1.9,0.8h24.7c0.7,0,1.4-0.3,1.9-0.8c0.5-0.5,0.8-1.2,0.8-1.8V506.3c0-0.7-0.3-1.4-0.8-1.9
			C813.5,503.9,812.8,503.7,812.1,503.7z" />
			<path d="M740.4,503.7h-33.1c-2.8,0.1-12.4,1.6-15.2,10.3c-3-9.3-15.1-10.2-17.2-10.3h0h-0.4h-30.3c-9.6,0-17.2,2.5-22.3,7.5
			c-5.2,5-7.8,11.6-7.8,20.9v76.6c0,0.9,0.4,1.8,1,2.4c0.6,0.6,1.5,1,2.4,1l23.9,0c1.9,0,3.4-1.5,3.4-3.4v-0.1v-66.7l0,0.1
			c0-5.7,2.1-11,10-11.3h11.3c7.9,0.3,10,5.5,10,11.2V609l0,0c0,0.9,0.3,1.8,1,2.4c0.6,0.6,1.5,1,2.4,1l25.6,0
			c1.9,0,3.4-1.5,3.4-3.4l0-67.1l0,0.1c0-5.7,2.1-11,10-11.3h11.3c7.9,0.3,10,5.5,10,11.2v67.1c0,1.9,1.5,3.4,3.4,3.4l23.9,0
			c0.9,0,1.8-0.4,2.4-1c0.6-0.6,1-1.5,1-2.4v-76.6c0-9.3-2.7-15.9-7.8-20.9C757.6,506.4,750,503.7,740.4,503.7" />
			<path d="M885.4,503.7h-23.7v-33.5c0-0.7-0.3-1.4-0.8-1.8c-0.5-0.5-1.2-0.8-1.8-0.8h-26.9c-0.7,0-1.4,0.3-1.9,0.8
			c-0.5,0.5-0.8,1.2-0.8,1.8v139.6c0,0.7,0.3,1.4,0.8,1.8c0.5,0.5,1.2,0.8,1.9,0.8h26.9c0.7,0,1.4-0.3,1.8-0.8
			c0.5-0.5,0.8-1.2,0.8-1.8v-78.3h23.7c0.7,0,1.4-0.3,1.8-0.8c0.5-0.5,0.8-1.2,0.8-1.8v-22.5c0-0.7-0.3-1.4-0.8-1.8
			C886.7,503.9,886.1,503.7,885.4,503.7" />
			<path
				d="M595.6,553.4c-5.8-5.2-13.8-8.2-22.8-8.2h-41l-0.2-0.1c-3.9,0-7.1-4.5-7.1-8.5c0-3.9,3.2-7.3,7.1-7.3h0.2
			c2.5,0,56.3,0,60.5,0c0.7,0,1.4-0.3,1.9-0.8c0.5-0.5,0.8-1.2,0.8-1.8c0-3.5,0-17,0-20.5c0-0.7-0.3-1.4-0.8-1.9
			c-0.5-0.5-1.2-0.8-1.9-0.8h-64.2c-8.9,0-16.9,2.8-22.7,8.1c-5.8,5.3-9.4,12.8-9.4,21.2v7.1c0,17.1,14.5,30.8,32.1,30.9h42.3h0.2
			c3.7,0,6.7,3.1,6.7,7.7c0,4.2-3,7.3-6.7,7.3h-0.2c-3.2,0-60.7,0-64.8,0c-1.4,0-2.6,1.2-2.6,2.6c0,3.5-0.1,17.8-0.1,21.2
			c0,0.7,0.3,1.4,0.8,1.9c0.5,0.5,1.2,0.8,1.9,0.8h67.2c17.4,0,32-14.1,32.1-31v-7.1C604.9,566,601.4,558.6,595.6,553.4" />
		</g>
		<g>
			<path d="M233.6,503.7h-24.7c-0.7,0-1.4,0.3-1.9,0.8c-0.5,0.5-0.8,1.2-0.8,1.8v103.5c0,0.7,0.3,1.4,0.8,1.9
			c0.5,0.5,1.2,0.8,1.9,0.8h24.7c0.7,0,1.4-0.3,1.9-0.8c0.5-0.5,0.8-1.2,0.8-1.9V506.3c0-0.7-0.3-1.4-0.8-1.8
			C235,503.9,234.3,503.7,233.6,503.7" />
			<path d="M163.1,574c-0.2,4.1-1.7,6.6-3.8,8.3c-2,1.7-4.7,2.4-6.6,2.4h-32.2c-1.6,0-4.3-0.6-6.4-2.2c-2.1-1.6-3.8-4.1-4-8.7V542
			c0.2-4.1,1.7-6.6,3.8-8.3c2-1.7,4.7-2.4,6.6-2.5h32.2c1.6,0,4.3,0.6,6.4,2.2c2.1,1.6,3.8,4.1,4,8.6V574z M190,468
			c-1-0.4-2,0-2.7,0.7c-4.3,5.3-24.2,29.8-28.4,34.9h-48.7c-8.9,0-16.2,2.5-21.2,7.6c-5,5.1-7.4,12.6-7.3,21.7V583
			c0,9.2,2.4,16.6,7.3,21.7c4.4,4.6,10.7,7,18.4,7.5c0.2,0.1,0.4,0.1,0.7,0.1h57.1c0.2,0,0.5,0,0.7-0.1c7.6-0.5,13.9-2.9,18.4-7.5
			c5-5.1,7.4-12.6,7.4-21.7v-11l0.1,0.2V470.3C191.6,469.3,190.9,468.3,190,468" />
			<path d="M463.5,505.2c-0.4-0.9-1.4-1.5-2.4-1.5h-30.9c-0.8,0-1.6,0.4-2.1,1c-1.3,1.6-35.7,45.2-37.5,47.5c0,0,0,0.1-0.1,0.1v-82.4
			c0-0.7-0.3-1.4-0.8-1.9c-0.5-0.5-1.2-0.8-1.9-0.8h-26.3c-0.7,0-1.4,0.3-1.8,0.8c-0.5,0.5-0.8,1.2-0.8,1.9v139.6
			c0,0.7,0.3,1.4,0.8,1.8c0.5,0.5,1.1,0.8,1.8,0.8H388c0.7,0,1.4-0.3,1.9-0.8c0.5-0.5,0.8-1.2,0.8-1.8v-54.1
			c2.6,4.3,35.3,53.7,36.6,55.7c0.5,0.8,1.3,1.3,2.3,1.3h31.8c1,0,1.9-0.5,2.3-1.4c0.5-0.8,0.4-1.9-0.1-2.7
			c-2.1-3.1-37.5-51.3-40.1-55.1c6.3-7.1,34.8-39.5,39.8-45.2C463.8,507.3,464,506.2,463.5,505.2z" />
			<path d="M344.5,585.6c-0.5-0.5-1.2-0.8-1.8-0.8h-53.7c-1.6,0-4.3-0.6-6.4-2.2c-2.1-1.6-3.8-4.1-4-8.6V542c0.2-4.1,1.7-6.6,3.8-8.3
			c2-1.7,4.7-2.4,6.6-2.4h53.7c0.7,0,1.4-0.3,1.8-0.8c0.5-0.5,0.8-1.1,0.8-1.8c0-3.7,0-18.7,0-22.3c0-0.7-0.3-1.4-0.8-1.9
			c-0.5-0.5-1.2-0.8-1.8-0.8h-64c-8.9,0-16.2,2.5-21.2,7.6c-5,5.1-7.4,12.6-7.3,21.7V583c0,9.2,2.4,16.6,7.3,21.7
			c5,5.1,12.2,7.6,21.1,7.6h64.1c0.7,0,1.4-0.3,1.8-0.8c0.5-0.5,0.8-1.1,0.8-1.8c0-1.4,0-20.7,0-22.3
			C345.2,586.7,345,586.1,344.5,585.6" />
		</g>
	</g>
</svg>