<?xml version="1.0" encoding="UTF-8"?>
<svg id="Ebene_1" xmlns="http://www.w3.org/2000/svg" baseProfile="tiny-ps" version="1.2" viewBox="0 0 425.2 110.98">
  <!-- Generator: Adobe Illustrator 29.0.0, SVG Export Plug-In . SVG Version: 2.1.0 Build 186)  -->
  <title>CECIL</title>
  <polygon points="113.008 109.195 181.211 109.195 181.211 92.017 131.178 92.017 131.178 62.301 176.312 62.301 176.312 45.094 131.178 45.094 131.178 18.873 181.211 18.873 181.211 1.772 113.008 1.772 113.008 109.195" fill="#53565a"/>
  <g>
    <path d="M20.024,94.472c4.232,4.746,9.408,8.377,15.4,10.907,5.984,2.541,12.658,3.817,20.002,3.817,5.653,0,11.03-.774,15.963-2.279,4.982-1.49,9.441-3.793,13.197-6.797,3.761-3.055,6.885-6.787,9.259-11.143.875-1.615,1.539-3.406,2.129-5.271.488-1.09,1.065-2.755,1.056-4.107h-18.16l-.231-.038v.038h-.145l.127.063c-1.184,3.267-2.999,5.995-5.641,8.198-4.168,3.506-10.142,5.234-17.667,5.234-4.607,0-8.831-.813-12.569-2.453-3.625-1.592-6.812-3.97-9.397-7.062-2.636-3.141-4.646-7.074-6.104-11.733-1.414-4.718-2.154-10.241-2.154-16.4,0-6.035.74-11.494,2.136-16.176,1.476-4.597,3.486-8.552,6.064-11.734,2.556-3.128,5.705-5.544,9.455-7.21,3.711-1.616,8.048-2.454,12.79-2.454,3.561,0,6.879.464,9.778,1.339,2.917.915,5.389,2.142,7.487,3.719,2.009,1.627,3.731,3.506,4.939,5.722.294.538.558,1.163.757,1.766h18.536c.026-2.304-1.646-5.422-1.646-5.422-.494-1.128-1.02-2.23-1.639-3.281-2.404-4.18-5.547-7.738-9.365-10.691-3.787-2.893-8.15-5.186-13.12-6.811-4.914-1.593-10.243-2.431-15.832-2.431-7.343,0-14.018,1.302-20.002,3.792-5.992,2.531-11.168,6.174-15.4,10.845-4.218,4.669-7.493,10.379-9.785,17.002-2.272,6.572-3.4,13.936-3.4,22.024s1.128,15.513,3.4,22.036c2.292,6.561,5.567,12.307,9.785,16.989" fill="#53565a"/>
    <rect x="310.946" y="3.499" width="17.931" height="103.968" fill="#53565a"/>
    <polygon points="369.947 90.842 369.947 3.5 352.345 3.5 352.345 107.468 418.358 107.468 418.358 90.842 369.947 90.842" fill="#53565a"/>
    <path d="M271.96,79.561h-.227l.042.036c-1.149,3.32-2.992,6.024-5.648,8.263-4.185,3.506-10.107,5.234-17.676,5.234-4.576,0-8.814-.813-12.519-2.453-3.675-1.592-6.843-3.97-9.453-7.062-2.59-3.143-4.656-7.073-6.098-11.732-1.439-4.719-2.163-10.242-2.163-16.401,0-6.035.724-11.494,2.163-16.178,1.442-4.595,3.508-8.55,6.098-11.732,2.503-3.128,5.665-5.545,9.391-7.212,3.743-1.613,8.075-2.452,12.831-2.452,3.582,0,6.824.462,9.767,1.339,2.886.916,5.376,2.141,7.45,3.719,2.047,1.628,3.724,3.505,4.958,5.722.295.536.539,1.151.758,1.741l-.038.011h.038s0,.012.008.012l.093-.012h18.396c.038-2.127-1.365-4.92-1.582-5.344-.501-1.141-1.015-2.281-1.633-3.345-2.427-4.18-5.592-7.739-9.378-10.692-3.782-2.893-8.176-5.184-13.126-6.812-4.885-1.59-10.23-2.428-15.827-2.428-7.346,0-14.075,1.301-19.999,3.792-5.99,2.531-11.183,6.173-15.41,10.845-4.198,4.669-7.473,10.38-9.753,17.001-2.296,6.573-3.41,13.935-3.41,22.024s1.114,15.513,3.41,22.035c2.28,6.562,5.554,12.308,9.753,16.99,4.227,4.746,9.42,8.376,15.41,10.907,5.981,2.541,12.654,3.817,19.999,3.817,5.646,0,11.028-.772,15.933-2.279,5.021-1.49,9.482-3.793,13.215-6.797,3.769-3.055,6.894-6.786,9.244-11.143.805-1.453,1.408-3.056,1.968-4.67.495-1.051,1.338-3.093,1.283-4.746h-18.266Z" fill="#53565a"/>
  </g>
</svg>