<?xml version="1.0" encoding="UTF-8"?>
<svg id="Ebene_1" xmlns="http://www.w3.org/2000/svg" baseProfile="tiny-ps" version="1.2" viewBox="0 0 388.474 56.693">
<title>StreetOne</title>
  <!-- Generator: Adobe Illustrator 29.0.0, SVG Export Plug-In . SVG Version: 2.1.0 Build 186)  -->
  <rect width="56.694" height="56.693" fill="#e52d3a"/>
  <path d="M93.973,25.848l-10.354-1.776c-4.534-.772-6.739-2.527-6.739-5.365,0-4.638,4.816-6.713,9.588-6.713,9.918,0,11.764,4.348,12.289,7.618l.021.129h6.511l-.008-.162c-.698-11.994-12.814-13.289-17.991-13.289-10.446,0-16.935,4.938-16.935,12.887,0,8.116,7.173,10.235,12.567,11.124l9.506,1.582c5.381.92,7.677,2.736,7.677,6.071,0,4.285-4.281,6.945-11.173,6.945-4.928,0-13.216-1.208-13.343-9.297l-.002-.15h-6.523v.152c0,13.052,12.154,15.001,19.399,15.001,5.463,0,18.167-1.353,18.167-13.885,0-8.622-9.195-10.257-12.657-10.873" fill="#4a4a49"/>
  <path d="M129.731,23.377v-4.882h-8.802v-9.448h-6.174v9.448h-6.337v4.882h6.337v19.799c0,4.93,2.776,7.43,8.251,7.43,2.551,0,4.65-.07,6.598-.413l.127-.023v-5.239l-.179.031c-1.629.281-2.87.407-4.023.407-3.182,0-4.6-.983-4.6-3.191v-18.801h8.802Z" fill="#4a4a49"/>
  <path d="M155.785,17.795c-1.164-.307-1.951-.356-3.384-.356-3.075,0-7.373,1.133-10.526,6.476v-5.421h-6.173v31.675h6.173v-16.384c0-6.223,3.628-9.938,9.705-9.938,1.587,0,2.713.241,4.13.583l.189.045v-6.65l-.114-.03Z" fill="#4a4a49"/>
  <path d="M191.773,35.02c0-12.962-8.687-17.581-16.818-17.581-10.928,0-17.99,6.509-17.99,16.582s7.062,16.584,17.99,16.584c5.717,0,12.919-2.754,15.985-10.484l.084-.209h-6.543l-.041.09c-2.227,4.845-7.58,5.367-9.778,5.367-5.027,0-10.612-3.305-11.159-9.435h28.27v-.915ZM174.662,22.672c5.633,0,9.663,3.206,10.559,8.38h-21.527c.889-5.021,5.273-8.38,10.968-8.38" fill="#4a4a49"/>
  <path d="M230.242,35.02c0-12.962-8.687-17.581-16.817-17.581-10.93,0-17.991,6.509-17.991,16.582s7.061,16.584,17.991,16.584c5.718,0,12.917-2.754,15.985-10.484l.084-.209h-6.543l-.041.09c-2.227,4.845-7.58,5.367-9.779,5.367-5.025,0-10.611-3.305-11.158-9.435h28.269v-.915ZM213.131,22.672c5.633,0,9.662,3.206,10.559,8.38h-21.527c.891-5.021,5.275-8.38,10.969-8.38" fill="#4a4a49"/>
  <path d="M252.996,23.377v-4.882h-8.801v-9.448h-6.174v9.448h-6.338v4.882h6.338v19.799c0,4.93,2.776,7.43,8.25,7.43,2.552,0,4.65-.07,6.599-.413l.126-.023v-5.239l-.18.031c-1.627.281-2.867.407-4.021.407-3.182,0-4.6-.983-4.6-3.191v-18.801h8.801Z" fill="#4a4a49"/>
  <path d="M306.867,13.317c-4.11-4.597-10.36-7.027-18.076-7.027s-13.967,2.43-18.077,7.027c-3.464,3.873-5.372,9.247-5.372,15.131s1.908,11.258,5.372,15.132c4.11,4.598,10.36,7.026,18.077,7.026s13.966-2.429,18.076-7.026c3.464-3.874,5.371-9.248,5.371-15.132s-1.907-11.258-5.371-15.131M305.713,28.448c0,10.148-6.484,16.452-16.922,16.452s-16.924-6.304-16.924-16.452,6.486-16.454,16.924-16.454,16.922,6.304,16.922,16.454" fill="#4a4a49"/>
  <path d="M335.731,17.44c-3.102,0-8.737.723-11.993,5.513v-4.458h-6.174v31.054h6.174v-17.872c0-6.22,4.992-9.004,9.939-9.004,5.934,0,8.943,2.338,8.943,6.947v19.929h6.174v-21.101c0-7.099-4.64-11.008-13.063-11.008" fill="#4a4a49"/>
  <path d="M388.473,35.02c0-12.962-8.687-17.581-16.817-17.581-10.931,0-17.991,6.509-17.991,16.582s7.06,16.584,17.991,16.584c5.717,0,12.917-2.754,15.985-10.484l.082-.209h-6.543l-.039.09c-2.228,4.845-7.58,5.367-9.779,5.367-5.027,0-10.611-3.305-11.158-9.435h28.27v-.915ZM371.361,22.672c5.633,0,9.662,3.206,10.559,8.38h-21.527c.891-5.021,5.275-8.38,10.969-8.38" fill="#4a4a49"/>
</svg>