<?xml version="1.0" encoding="UTF-8"?><svg version="1.2" baseProfile="tiny-ps" xmlns="http://www.w3.org/2000/svg" viewBox="0 0 905.08 905.08"><title>GreatFlorida Insurance</title><circle cx="452.54" cy="452.54" r="452.54" fill="#f26522" stroke-width="0px"/><path d="M476.3,339.2h135.73s-21.77-57.52-66.16-91.94c-44.39-34.43-125.06-68.85-210-59.19s-117.81,39.46-134.03,49.96-88.36,68.01-92.2,154.91,57.03,186.03,192.08,217.05c74.48,17.11,152.92-2.73,188.66-19.73v188.92h117.81l-.43-150.71h139.58v-87.32h-139.58v-70.39l185.68-.14v-97.4l-460.13.42v82.7l150.25.42c-5.98,13.43-36.38,69.32-107.14,73.05-127.62,6.72-173.41-113.42-131.86-182.01,68.27-112.71,199.3-67.37,231.74-8.59h0Z" fill="#fff" stroke-width="0px"/></svg>