<?xml version="1.0" encoding="UTF-8"?>
<svg width="612" height="83.61" viewBox="0 0 612 83.61" xmlns="http://www.w3.org/2000/svg" version="1.2" baseProfile="tiny-ps">
<title>Happy Dad</title>
  <g>
    <g id="Layer_1">
      <g>
        <path d="M18.55,74.42c4.01-.43,6.51-1.17,7.51-2.22,1-1.05,1.5-3.78,1.5-8.2V19.6c0-3.67-.56-6.06-1.68-7.16-1.12-1.1-3.56-1.79-7.34-2.05v-1.9h28.44v1.9c-3.75.27-6.19.95-7.32,2.05-1.13,1.1-1.69,3.49-1.69,7.16v19.98h31.14v-19.98c0-3.67-.55-6.06-1.65-7.16-1.1-1.1-3.55-1.79-7.36-2.05v-1.9h28.44v1.9c-3.77.27-6.22.95-7.34,2.05-1.12,1.1-1.68,3.49-1.68,7.16v45.61c0,3.72.56,6.1,1.68,7.15,1.12,1.05,3.56,1.74,7.34,2.07v1.9h-28.44v-1.9c4.04-.4,6.55-1.13,7.54-2.19.98-1.06,1.48-3.8,1.48-8.22v-19.93h-31.14v21.13c0,3.72.56,6.11,1.69,7.17,1.13,1.06,3.57,1.74,7.32,2.04v1.9h-28.44v-1.9Z"/>
        <path d="M92.46,76.33v-1.9c2.64-.3,4.61-1.29,5.93-2.98,1.32-1.69,3.58-6.3,6.78-13.84L126.54,7.28h2.04l25.55,58.13c1.7,3.85,3.06,6.23,4.08,7.14,1.02.91,2.73,1.54,5.13,1.87v1.9h-26.08v-1.9c3-.27,4.93-.59,5.8-.97.87-.38,1.3-1.32,1.3-2.82,0-.5-.17-1.38-.5-2.64-.33-1.26-.8-2.59-1.4-3.99l-4.11-9.86h-27.02c-2.66,6.71-4.25,10.8-4.77,12.28-.52,1.48-.78,2.65-.78,3.51,0,1.73.7,2.92,2.1,3.59.87.4,2.5.7,4.9.9v1.9h-20.32ZM136.63,49.99l-11.75-28.24-11.81,28.24h23.56Z"/>
        <path d="M166.66,74.42c3.91-.37,6.34-1.14,7.31-2.32.97-1.18,1.45-3.88,1.45-8.1V19.6c0-3.57-.54-5.92-1.63-7.06-1.08-1.13-3.46-1.85-7.13-2.15v-1.9h27.04c8.68,0,15.32,1.69,19.93,5.06,4.61,3.37,6.91,7.81,6.91,13.32,0,6.98-2.55,12.03-7.66,15.17-5.11,3.14-11.5,4.71-19.18,4.71-1.1,0-2.51-.03-4.23-.07-1.72-.05-3-.08-3.83-.08v18.63c0,3.85.59,6.28,1.78,7.27,1.18,1,3.83,1.64,7.94,1.94v1.9h-28.69v-1.9ZM201.25,14.19c-2.9-1.27-6.58-1.9-11.02-1.9-2.1,0-3.4.21-3.88.63-.48.42-.73,1.34-.73,2.78v26.74c1.84.17,3.04.27,3.61.3.57.03,1.12.05,1.65.05,4.71,0,8.41-.67,11.12-2,4.91-2.44,7.36-6.99,7.36-13.67,0-6.28-2.7-10.58-8.11-12.92Z"/>
        <path d="M223.69,74.42c3.91-.37,6.34-1.14,7.31-2.32.97-1.18,1.45-3.88,1.45-8.1V19.6c0-3.57-.54-5.92-1.63-7.06-1.08-1.13-3.46-1.85-7.13-2.15v-1.9h27.04c8.68,0,15.32,1.69,19.93,5.06,4.61,3.37,6.91,7.81,6.91,13.32,0,6.98-2.55,12.03-7.66,15.17-5.11,3.14-11.5,4.71-19.18,4.71-1.1,0-2.51-.03-4.23-.07-1.72-.05-3-.08-3.83-.08v18.63c0,3.85.59,6.28,1.78,7.27,1.18,1,3.83,1.64,7.94,1.94v1.9h-28.69v-1.9ZM258.28,14.19c-2.9-1.27-6.58-1.9-11.02-1.9-2.1,0-3.4.21-3.88.63-.48.42-.73,1.34-.73,2.78v26.74c1.84.17,3.04.27,3.61.3.57.03,1.12.05,1.65.05,4.71,0,8.41-.67,11.12-2,4.91-2.44,7.36-6.99,7.36-13.67,0-6.28-2.7-10.58-8.11-12.92Z"/>
        <path d="M310.01,8.48v1.9c-2.4-.07-4.21.12-5.41.55-1.2.43-1.8,1.37-1.8,2.8,0,.43.1.98.3,1.63.2.65.65,1.51,1.35,2.58l15.09,22.13,14.72-22.48c.6-.97.99-1.77,1.17-2.4.18-.63.27-1.1.27-1.4,0-1.47-.78-2.44-2.35-2.9-.94-.3-2.54-.47-4.81-.5v-1.9h22.41v1.9c-2.07.1-3.92.72-5.55,1.85-2.53,1.77-5.38,5.06-8.55,9.86l-15.15,23.13v19.94c0,3.97.64,6.44,1.93,7.42,1.29.98,4.16,1.59,8.64,1.83v1.9h-31.29v-1.9c4.64-.27,7.52-.96,8.64-2.07,1.12-1.12,1.68-3.91,1.68-8.37v-17.79l-13.42-19.68c-4.64-6.78-7.89-11.12-9.76-13.04-1.87-1.92-4.14-2.95-6.81-3.08v-1.9h28.69Z"/>
        <path d="M376.65,74.42c3.74-.4,6.17-1.07,7.31-2.02,1.13-.95,1.7-3.35,1.7-7.2V19.6c0-3.74-.55-6.14-1.65-7.21-1.1-1.07-3.55-1.73-7.36-2v-1.9h27.64c9.31,0,17.19,1.54,23.63,4.61,11.62,5.51,17.42,15.36,17.42,29.54,0,5.11-1.04,9.96-3.13,14.57s-5.23,8.49-9.44,11.67c-2.67,2-5.44,3.52-8.31,4.56-5.24,1.94-11.68,2.9-19.33,2.9h-28.49v-1.9ZM397.3,71.72c.82.54,2.51.8,5.08.8,8.01,0,14.6-1.59,19.78-4.76,7.94-4.88,11.92-13.21,11.92-25.01,0-10.52-3.27-18.44-9.81-23.75-5.61-4.54-13.04-6.81-22.28-6.81-2.3,0-3.86.25-4.68.75-.82.5-1.23,1.6-1.23,3.31v52.17c0,1.67.41,2.77,1.23,3.31Z"/>
        <path d="M450.56,76.33v-1.9c2.64-.3,4.61-1.29,5.93-2.98,1.32-1.69,3.58-6.3,6.78-13.84l21.36-50.32h2.04l25.55,58.13c1.7,3.85,3.06,6.23,4.08,7.14,1.02.91,2.73,1.54,5.13,1.87v1.9h-26.08v-1.9c3-.27,4.93-.59,5.8-.97.87-.38,1.3-1.32,1.3-2.82,0-.5-.17-1.38-.5-2.64-.33-1.26-.8-2.59-1.4-3.99l-4.1-9.86h-27.02c-2.66,6.71-4.25,10.8-4.77,12.28-.52,1.48-.78,2.65-.78,3.51,0,1.73.7,2.92,2.1,3.59.87.4,2.5.7,4.9.9v1.9h-20.32ZM494.72,49.99l-11.75-28.24-11.81,28.24h23.56Z"/>
        <path d="M524.75,74.42c3.74-.4,6.17-1.07,7.31-2.02,1.13-.95,1.7-3.35,1.7-7.2V19.6c0-3.74-.55-6.14-1.65-7.21-1.1-1.07-3.56-1.73-7.36-2v-1.9h27.64c9.31,0,17.19,1.54,23.63,4.61,11.62,5.51,17.42,15.36,17.42,29.54,0,5.11-1.04,9.96-3.13,14.57-2.09,4.61-5.23,8.49-9.44,11.67-2.67,2-5.44,3.52-8.31,4.56-5.24,1.94-11.68,2.9-19.33,2.9h-28.49v-1.9ZM545.41,71.72c.82.54,2.51.8,5.08.8,8.01,0,14.6-1.59,19.78-4.76,7.94-4.88,11.92-13.21,11.92-25.01,0-10.52-3.27-18.44-9.81-23.75-5.61-4.54-13.04-6.81-22.28-6.81-2.3,0-3.86.25-4.68.75-.82.5-1.23,1.6-1.23,3.31v52.17c0,1.67.41,2.77,1.23,3.31Z"/>
      </g>
    </g>
  </g>
</svg>