<?xml version="1.0" encoding="UTF-8" standalone="yes"?>
<svg version="1.2" viewBox="0 0 150 150" xml:space="preserve" baseProfile="tiny-ps" xmlns="http://www.w3.org/2000/svg">
  <title>bimi-svg-tiny-12-ps</title>
  <rect class="st0" width="150" height="150" fill="#FFFFFF"/>
  <path class="st1" d="M75,89.2L75,89.2C75,89.2,75,89.2,75,89.2c0.7-15.8,14.2-28.3,30.8-28.4c0-0.4,0.1-0.7,0.1-1.2&#xA;&#x9;c0-16.3-13.8-29.5-30.8-29.5c-17,0-30.8,13.2-30.8,29.5c0,0.4,0.1,0.8,0.1,1.2C60.9,60.9,74.3,73.4,75,89.2z" fill="#84BD00"/>
  <path class="st2" d="M44.3,60.8L44.3,60.8c-17.1,0-30.9,13.2-30.9,29.5s13.8,29.5,30.8,29.5S75,106.7,75,90.3c0-0.4,0-0.7-0.1-1.2&#xA;&#x9;C58.4,89.1,44.9,76.6,44.3,60.8z" fill="#004B87"/>
  <path class="st3" d="M75,89.2C75,89.2,75,89.2,75,89.2c0,0.4,0,0.7,0,1.2C75,89.9,75,89.6,75,89.2L75,89.2z" fill="none"/>
  <path class="st4" d="M105.8,60.8C105.7,60.8,105.7,60.8,105.8,60.8c-0.7,15.8-14.2,28.3-30.7,28.4c0,0.4-0.1,0.7-0.1,1.2&#xA;&#x9;c0,16.3,13.8,29.5,30.8,29.5s30.8-13.2,30.8-29.5C136.6,74,122.7,60.8,105.8,60.8z" fill="#00A3E0"/>
  <path class="st5" d="M75,89.2c16.6,0,30-12.6,30.6-28.4C89.1,60.9,75.7,73.4,75,89.2z" fill="#40BAE8"/>
  <path class="st6" d="M75,89.2c-0.7-15.8-14.1-28.3-30.7-28.4C44.9,76.6,58.4,89.1,75,89.2z" fill="#4078A5"/>
</svg>