<?xml version="1.0" encoding="UTF-8" standalone="yes"?>
<svg width="96" height="96" version="1.2" viewBox="0 0 96 96" xml:space="preserve" baseProfile="tiny-ps" xmlns="http://www.w3.org/2000/svg">
  <title>GRUBHUB</title>
  <rect x=".036743" y=".064838" width="96.003" height="96.13" fill="#ff8000" stroke-width=".10532"/>
  <g transform="translate(0 1.3747)" fill="#fff" stroke-width=".1487">
    <path class="st0" d="m26.129 46.577c0.31059-0.22425 0.5768-0.46346 0.82823-0.74752l-0.0148 0.0149c0.88738-1.0465 1.3606-2.3921 1.3163-3.7675v-0.0299c0.0296-1.3605-0.47327-2.6761-1.3754-3.6928l0.0592 0.0598c-0.90217-1.0166-2.1741-1.6296-3.52-1.6595h-4.9102c-0.16269 0-0.29579 0.13456-0.29579 0.29901v16.64c0 0.16446 0.1331 0.29901 0.29579 0.29901h2.9136c0.16269 0 0.2958-0.13455 0.2958-0.29901v-6.1596h1.0796l1.8487 6.2792c0.0296 0.11961 0.1479 0.20931 0.28101 0.20931h3.1058c0.0887 0 0.17747-0.0448 0.23663-0.1196 0.0444-0.0748 0.0444-0.1794 0-0.25416zm-1.8191-3.0648c-0.29579 0.32891-0.70991 0.49336-1.1536 0.47841h-1.4346v-3.7077h1.4198c0.4437-0.0149 0.85781 0.1495 1.1684 0.47841v-0.0149c0.31058 0.37376 0.45848 0.83723 0.44369 1.3156v0.0149c0.0296 0.53821-0.11832 1.0316-0.44369 1.4352z"/>
    <path class="st0" d="m14.711 37.966c-0.97612-0.97177-2.2924-1.51-3.6678-1.4651h-0.0148c-1.3754-0.0448-2.6917 0.47841-3.6678 1.4651l0.0296-0.0448c-0.93175 1.0764-1.405 2.4818-1.3311 3.917v7.0865c-0.10353 1.4203 0.35496 2.8256 1.2571 3.917 0.96133 0.97177 2.2924 1.495 3.653 1.4502h0.0592c1.3754 0.0448 2.6917-0.47842 3.6678-1.4651 0.90218-1.0914 1.3606-2.4967 1.2571-3.917v-3.8722c-0.0148-0.16445-0.13311-0.299-0.29579-0.299h-4.3038c-0.16269 0-0.29579 0.13455-0.31059 0.299v2.9004c0.0148 0.17941 0.13312 0.29901 0.31059 0.29901h1.1832v0.65782c0.0296 0.49336-0.11832 0.98672-0.41411 1.3904l0.0148-0.0149c-0.25143 0.32891-0.65075 0.50831-1.0649 0.47841h-0.0148c-0.4141 0.0299-0.81343-0.13455-1.0649-0.46346-0.29579-0.38872-0.45847-0.88208-0.4289-1.3904v-7.0416c-0.0148-0.50832 0.13311-1.0166 0.45849-1.4203 0.25142-0.32891 0.65074-0.50832 1.0648-0.47842h0.0148c0.41412-0.0299 0.81344 0.13456 1.0649 0.46347l0.0148 0.0149c0.26621 0.4186 0.39931 0.91197 0.35495 1.4053v0.65781c0.0148 0.14951 0.1331 0.25416 0.29579 0.25416h2.9136c0.1479 0 0.28101-0.10465 0.29579-0.25416v-0.65781c0.0739-1.4053-0.39932-2.7957-1.3311-3.8722z"/>
    <path class="st0" d="m64.731 36.785h-2.9284c-0.16268 0-0.29581 0.13455-0.29581 0.29901v6.4436h-2.9579v-6.4436c0-0.16446-0.1331-0.29901-0.29579-0.29901h-2.9136c-0.16268 0-0.29579 0.13455-0.29579 0.29901v16.61c0 0.16445 0.13311 0.29901 0.29579 0.29901h2.9136c0.16269 0 0.29579-0.13456 0.29579-0.29901v-6.6828h2.9579v6.6828c0 0.16445 0.13313 0.29901 0.29581 0.29901h2.9136c0.16269 0 0.29577-0.13456 0.29577-0.29901v-16.61c0.0148-0.16446-0.11831-0.29901-0.28097-0.29901z"/>
    <path class="st0" d="m40.194 48.895v-11.856c-0.0148-0.14951-0.13311-0.25416-0.281-0.25416h-2.9875c-0.1479 0-0.28101 0.10465-0.2958 0.25416v11.856c0.0148 0.49336-0.11831 0.97177-0.41411 1.3455-0.48806 0.53821-1.3163 0.56812-1.8487 0.0897-0.0444-0.0299-0.0739-0.0598-0.10353-0.10466-0.281-0.37376-0.4141-0.85217-0.38453-1.3156v-11.871c0-0.14951-0.11832-0.26911-0.26621-0.26911h-3.0171c-0.14789-0.0149-0.28101 0.0897-0.29579 0.23921v11.871c-0.10353 1.4203 0.35495 2.8256 1.2571 3.917 0.96133 0.97178 2.2924 1.495 3.653 1.4502h0.0444c1.3606 0.0448 2.6917-0.47841 3.653-1.4502 0.94655-1.0764 1.3902-2.4818 1.2867-3.902z"/>
    <path class="st0" d="m90.139 48.67v0.0149c0-1.3904-0.62116-2.721-1.7008-3.5881l0.0148 0.0149 0.0148-0.0149c0.88737-0.86713 1.3902-2.0482 1.3902-3.304v0.0598c0.0443-1.3007-0.39933-2.5715-1.2571-3.5582l0.0148 0.0299c-0.91694-1.0316-2.2332-1.6146-3.5939-1.5847h-4.6736c-0.16269 0-0.29578 0.13455-0.29578 0.29901v16.655c0 0.16445 0.13309 0.29901 0.29578 0.29901h4.8806c1.479 0.0149 2.884-0.62792 3.8305-1.7642l-0.0148 0.0149c0.76908-1.0316 1.1536-2.3024 1.0944-3.5732zm-6.5962-8.3872h1.4642c0.36973-0.0299 0.72468 0.1196 0.97612 0.37376l0.0148 0.0149c0.25144 0.34386 0.36976 0.77742 0.34019 1.211 0.0444 0.44851-0.10355 0.91198-0.36976 1.3007v-0.0149c-0.23664 0.28405-0.60636 0.43356-0.97612 0.41861h-1.479v-3.304zm3.165 8.4021c0.0148 0.50831-0.1331 0.98672-0.4289 1.3754l0.0148 0.0149 0.0148-0.0149c-0.26624 0.32891-0.68034 0.49336-1.0944 0.46346h-1.6565v-3.5881h1.6712c0.41413-0.0299 0.81343 0.13455 1.0944 0.46346l-0.0148-0.0149c0.28099 0.37377 0.4141 0.83723 0.3993 1.3007z"/>
    <path class="st0" d="m77.464 48.895v-11.856c-0.0148-0.13456-0.13308-0.25416-0.26621-0.25416h-3.0023c-0.1479-0.0149-0.28101 0.0897-0.29579 0.23921v11.871c0.0148 0.47841-0.10355 0.94187-0.38455 1.3306-0.48805 0.53821-1.3163 0.58307-1.8635 0.10466-0.0444-0.0299-0.0739-0.0598-0.10351-0.10466-0.28101-0.37376-0.41414-0.85217-0.38453-1.3156v-11.871c-0.0148-0.14951-0.13312-0.25416-0.29581-0.25416h-3.0023c-0.14789 0-0.28101 0.10465-0.29578 0.25416v11.886c-0.10355 1.3904 0.35495 2.7957 1.2571 3.8871l0.0296 0.0299c2.1001 1.9136 5.3095 1.8838 7.3653-0.0598l-0.0444 0.0299c0.93175-1.0914 1.3903-2.4967 1.2867-3.917z"/>
    <path class="st0" d="m52.869 48.67v0.0448c0-1.4053-0.62117-2.721-1.7008-3.603l0.0148-0.0149c0.88738-0.86713 1.3902-2.0482 1.3902-3.2891 0.0148-1.2558-0.4289-2.4818-1.2571-3.4236v0.0149c-0.91695-1.0316-2.2332-1.6146-3.5939-1.5847h-4.644c-0.16269 0-0.2958 0.13455-0.2958 0.299v16.61c0 0.16445 0.13311 0.299 0.2958 0.299h4.8954c1.479 0.0149 2.884-0.62791 3.8305-1.7642l-0.0148 0.0149c0.76906-1.0615 1.1536-2.3323 1.0796-3.603zm-6.5962-8.3872h1.4642c0.36974-0.0299 0.7247 0.1196 0.97612 0.38871l0.0148 0.0149c0.25143 0.34386 0.36974 0.77742 0.34016 1.211 0.0444 0.4485-0.10352 0.91197-0.36973 1.3007v-0.0149c-0.23664 0.28405-0.60639 0.43356-0.97613 0.41861h-1.479v-3.319zm3.1502 8.4021c0.0148 0.50831-0.1331 0.98672-0.4289 1.3754l0.0148 0.0149 0.0148-0.0149c-0.26621 0.32891-0.68033 0.49336-1.0944 0.46346h-1.6564v-3.5881h1.6712c0.4141-0.0299 0.81343 0.13455 1.0944 0.46346l-0.0148-0.0149c0.28101 0.37377 0.4289 0.83723 0.39932 1.3007z"/>
  </g>
</svg>
