<?xml version="1.0" encoding="utf-8"?><!-- Generator: Adobe Illustrator 25.2.3, SVG Export Plug-In . SVG Version: 6.00 Build 0)  --><svg version="1.2" baseProfile="tiny-ps" xmlns:xlink="http://www.w3.org/1999/xlink" viewBox="0 0 1150 1150" xmlns="http://www.w3.org/2000/svg">  <title>Victorian Chamber of Commerce and Industry</title><g transform="matrix(2.72 0 0 2.72 540 506.3)">	<g vector-effect="non-scaling-stroke">		<g transform="matrix(1 0 0 1 -122.92 0)">			<polygon vector-effect="non-scaling-stroke" fill="#232C65" points="12.9,-46.1 28.2,-2.8 71.5,-17.8 47.3,21.1 86,45.7 40.5,51      45.4,96.6 12.9,64.3 -19.7,96.6 12.9,29 -60.3,45.7 -21.6,21.1 -45.8,-17.8 -2.5,-2.8    " />		</g>		<g transform="matrix(1 0 0 1 -159.5 14.72)">			<polygon vector-effect="non-scaling-stroke" fill="#2060AD" points="49.4,14.3 -23.7,30.9 21.8,36.3    " />		</g>		<g transform="matrix(1 0 0 1 -139.2 37.51)">			<polygon vector-effect="non-scaling-stroke" fill="#14A2DC" points="29.1,-8.5 1.5,13.5 -3.4,59.1    " />		</g>		<g transform="matrix(1 0 0 1 76.98 6.02)">			<path vector-effect="non-scaling-stroke" fill="#232C65" d="M-45,49.9c-1.8,0-2.9,1.3-3.6,2.8v-2.5h-3.5v19.5h3.5V56.1     c0-1.9,0.9-3.1,2.2-3.1s1.9,1.1,1.9,3v13.7h3.5V55.3C-41.1,52-42.5,49.9-45,49.9z M-101.3,50c-1.6,0-2.7,0.3-3.9,0.8v3.3     c1.1-0.5,2.2-0.9,3.4-0.9c1.9,0,3,1.2,3,3.4v1.5c-0.8-0.4-1.8-0.7-2.8-0.7c-2.8,0-4.6,2.1-4.6,6.2v0.5c0,3.5,1.6,5.8,3.9,5.8     c1.5,0,2.6-0.9,3.4-2.6v2.3h3.5V56.5C-95.4,52.3-97.6,50-101.3,50L-101.3,50z M-98.9,64.3c0,1.7-0.9,2.8-2.1,2.8     c-1.1,0-1.9-1-1.9-3.2v-0.4c0-2.1,0.8-3.2,2.1-3.2c0.6,0,1.3,0.3,1.9,0.5L-98.9,64.3L-98.9,64.3z M-30.7,53     c-0.7-1.5-1.7-3.1-3.6-3.1c-2.4,0-4.4,2.6-4.4,9.4v1.4c0,6.8,2,9.4,4.4,9.4c1.9,0,2.9-1.7,3.6-3.2v2.8h3.5V43.9h-3.5V53z      M-30.7,60.6c0,4-1,6.2-2.4,6.2c-1.4,0-2.2-2.2-2.2-6.2v-1.1c0-4,0.8-6.2,2.2-6.2c1.4,0,2.4,2.2,2.4,6.2V60.6z M-34.4,26.8v-1.4     c0-6.8-2-9.4-4.4-9.4c-1.9,0-3,1.7-3.6,3.2V10h-3.5v25.8h3.5V33c0.7,1.5,1.7,3.1,3.6,3.1C-36.4,36.1-34.4,33.5-34.4,26.8z      M-37.8,26.6c0,4-0.9,6.2-2.2,6.2c-1.4,0-2.4-2.2-2.4-6.2v-1.2c0-4,1-6.2,2.4-6.2s2.2,2.2,2.2,6.2V26.6z M-90.1,22.2     c0-1.9,0.9-3.1,2.2-3.1s1.9,1.1,1.9,3v13.7h3.5V21.4c0-3.3-1.4-5.4-3.9-5.4c-1.8,0-2.9,1.3-3.6,2.8V10h-3.5v25.8h3.5V22.2     L-90.1,22.2z M-76.6,36.1c1.5,0,2.6-0.9,3.4-2.6v2.3h3.5V22.5c0-4.2-2.1-6.4-5.8-6.4c-1.6,0-2.7,0.3-4,0.8v3.3     c1.1-0.5,2.2-0.9,3.4-0.9c1.9,0,3,1.2,3,3.4v1.5c-0.8-0.4-1.8-0.7-2.8-0.7c-2.8,0-4.6,2-4.6,6.2v0.5     C-80.6,33.8-78.9,36.1-76.6,36.1L-76.6,36.1z M-77.2,29.6c0-2.1,0.8-3.2,2.1-3.2c0.6,0,1.4,0.3,1.9,0.5v3.5     c0,1.6-0.9,2.8-2.1,2.8c-1.1,0-1.9-1-1.9-3.2L-77.2,29.6L-77.2,29.6z M0.2,36.1c3.3,0,5.9-3.4,5.9-9.6v-0.9C6,19.4,3.5,16,0.2,16     c-3.3,0-5.9,3.4-5.9,9.6v0.9C-5.7,32.8-3.1,36.1,0.2,36.1z M-2.2,25.5c0-4.2,1-6.4,2.4-6.4c1.4,0,2.4,2.2,2.4,6.4v1     c0,4.2-1,6.4-2.4,6.4c-1.4,0-2.4-2.2-2.4-6.4V25.5z M-85.6,49.9c-1.8,0-2.9,1.3-3.6,2.8v-2.5h-3.5v19.5h3.5V56.1     c0-1.9,0.9-3.1,2.2-3.1s1.9,1.1,1.9,3v13.7h3.5V55.3C-81.7,52-83.1,49.9-85.6,49.9z M-99.2,36c1.2,0,2.2-0.2,3.1-0.8v-3.6     c-0.9,0.6-1.8,0.8-2.5,0.8c-2.3,0-4-2.1-4-9v-0.9c0-6.7,1.7-9,3.9-9c0.8,0,1.6,0.3,2.5,0.8v-3.7c-0.9-0.4-1.6-0.6-2.8-0.6     c-4,0-7.3,3.7-7.3,12.6v0.8C-106.2,32.2-103.2,36-99.2,36L-99.2,36z M-58.8,69.7h3.6V44.1h-3.6V69.7z M-71.3,53     c-0.7-1.5-1.7-3.1-3.6-3.1c-2.4,0-4.4,2.6-4.4,9.4v1.4c0,6.8,2,9.4,4.4,9.4c1.9,0,2.9-1.7,3.6-3.2v2.8h3.5V43.9h-3.5V53z      M-71.3,60.6c0,4-1,6.2-2.4,6.2s-2.2-2.2-2.2-6.2v-1.1c0-4,0.8-6.2,2.2-6.2s2.4,2.2,2.4,6.2V60.6z M-48.7,35.8V21.4     c0-3.6-1.9-5.4-4.2-5.4c-1.9,0-3,1.4-3.7,2.6c-0.7-1.4-1.6-2.6-3.4-2.6c-1.8,0-2.8,1.2-3.6,2.8v-2.5h-3.5v19.5h3.5V22.2     c0-1.9,0.9-3.1,2.1-3.1c1.2,0,1.9,1.1,1.9,3v13.7h3.5V22.2c0-1.9,0.9-3.1,2.1-3.1s1.9,1.1,1.9,3v13.7L-48.7,35.8L-48.7,35.8z      M83.3,16c-1.9,0-3,1.4-3.7,2.6c-0.7-1.4-1.6-2.6-3.4-2.6s-2.8,1.2-3.6,2.8v-2.5h-3.5v19.5h3.5V22.2c0-1.9,0.9-3.1,2.1-3.1     s1.9,1.1,1.9,3v13.7H80V22.2c0-1.9,0.9-3.1,2.1-3.1c1.2,0,1.9,1.1,1.9,3v13.7h3.5V21.4C87.4,17.9,85.5,16,83.3,16L83.3,16z      M62.1,16c-1.9,0-3,1.4-3.7,2.6c-0.7-1.4-1.7-2.6-3.4-2.6c-1.8,0-2.8,1.2-3.6,2.8v-2.5h-3.5v19.5h3.5V22.2c0-1.9,0.9-3.1,2.1-3.1     c1.2,0,1.9,1.1,1.9,3v13.7h3.5V22.2c0-1.9,0.9-3.1,2.1-3.1c1.2,0,1.9,1.1,1.9,3v13.7h3.5V21.4C66.2,17.9,64.3,16,62.1,16L62.1,16     z M95.5,16c-3.1,0-5.7,3.3-5.7,9.7v0.8c0,6.4,3,9.6,6.5,9.6c1.6,0,2.7-0.4,4.2-1.4l-0.3-3.2c-1.3,0.8-2.1,1.3-3.4,1.3     c-1.8,0-3.3-1.5-3.5-5.2h7.6v-1.9C100.8,19.4,98.7,16,95.5,16L95.5,16z M93.2,24.9c0.1-3.9,1-5.7,2.3-5.7s2.1,2.1,2.1,5.7H93.2     L93.2,24.9z M39.6,16c-3.3,0-5.9,3.4-5.9,9.6v0.9c0,6.2,2.6,9.6,5.9,9.6c3.3,0,5.8-3.4,5.8-9.6v-0.9C45.5,19.4,42.9,16,39.6,16z      M42,26.6c0,4.2-1,6.4-2.4,6.4c-1.4,0-2.4-2.2-2.4-6.4v-1c0-4.2,1-6.4,2.4-6.4c1.4,0,2.4,2.2,2.4,6.4V26.6z M110.9,25.6v0.9     c0,6.4,2.5,9.6,6,9.6c1.1,0,1.8-0.3,2.7-0.8v-3.5c-0.7,0.5-1.5,0.9-2.1,0.9c-1.7,0-3-1.7-3-6.1v-1.1c0-4.4,1.4-6.1,2.9-6.1     c0.8,0,1.5,0.3,2.2,0.8v-3.6c-0.8-0.4-1.4-0.5-2.6-0.5C113.6,16.1,110.9,19.2,110.9,25.6L110.9,25.6z M132,25.7     c0-6.3-2.2-9.7-5.4-9.7c-3.2,0-5.7,3.3-5.7,9.7v0.8c0,6.4,3,9.6,6.5,9.6c1.6,0,2.7-0.4,4.2-1.4l-0.3-3.2     c-1.3,0.8-2.1,1.3-3.4,1.3c-1.8,0-3.3-1.5-3.5-5.2h7.6V25.7L132,25.7z M124.3,24.9c0.1-3.9,1-5.7,2.3-5.7s2.1,2.1,2.1,5.7H124.3     L124.3,24.9z M25.8,23.4v-0.9c0-6.7,1.7-9,3.9-9c0.8,0,1.6,0.3,2.5,0.8v-3.7c-0.9-0.4-1.6-0.6-2.8-0.6c-4,0-7.3,3.7-7.3,12.6v0.8     c0,8.8,3.1,12.6,7.1,12.6c1.2,0,2.2-0.2,3.1-0.8v-3.6c-0.9,0.6-1.8,0.8-2.5,0.8C27.5,32.4,25.8,30.3,25.8,23.4L25.8,23.4z      M106.5,18.9v-2.6H103v19.5h3.5V24.6c0-3,1.3-4.4,3.5-4.4h0.1v-4.1C108.2,16,107.1,17.2,106.5,18.9L106.5,18.9z M11.7,52.8v-2.6     H8.2v19.5h3.5V58.5c0-3,1.3-4.4,3.5-4.4h0.1V50C13.4,49.9,12.3,51.1,11.7,52.8L11.7,52.8z M3.6,45.1H0.1v5.1h-1.4v2.9h1.4v13.3     c0,2.8,1.8,3.6,3.8,3.6c0.7,0,1.6-0.2,2.2-0.5v-2.9c-0.3,0.1-0.7,0.2-1.1,0.2c-0.9,0-1.4-0.4-1.4-1.5V53.1h2.5v-2.9H3.6V45.1z      M21.9,63.3l-2.4-13H16l4.2,18.9L19,74.5h3.4l5.5-24.2h-3.4L21.9,63.3L21.9,63.3z M9,35.8h3.5V19.2H15v-2.9h-2.5v-1.2     c0-1.5,0.7-2.2,1.9-2.2c0.2,0,0.5,0,0.7,0.1v-3c-0.4-0.1-0.9-0.2-1.5-0.2c-2.9,0-4.6,1.5-4.6,4.8v1.7H7.5v2.9H9V35.8z      M-15.7,18.9v-2.6h-3.5v19.5h3.5V24.6c0-3,1.3-4.4,3.5-4.4h0.1v-4.1C-14,16-15.1,17.2-15.7,18.9L-15.7,18.9z M-8,54.9L-8,54.9     c0-1.1,0.8-1.8,1.9-1.8c1,0,2.1,0.3,3,0.8v-3.4C-4.1,50.1-5,50-6.2,50c-3,0-5.2,1.9-5.2,5V55c0,2.3,1.2,4,3.4,6.2     c2,1.9,2.5,2.7,2.5,3.7V65c0,1.1-0.8,1.9-2,1.9s-2.3-0.4-3.8-1.2v3.5c1.2,0.6,2.6,0.9,3.9,0.9c2.9,0,5.2-2,5.2-5.2v-0.1     c0-2.2-0.8-3.8-3.3-6.2C-7.6,56.5-8,55.9-8,54.9L-8,54.9z M-22.1,31.6c-1.3,0.8-2.1,1.3-3.4,1.3c-1.8,0-3.3-1.5-3.5-5.2h7.6v-1.9     c0-6.3-2.2-9.7-5.4-9.7s-5.7,3.3-5.7,9.7v0.8c0,6.4,3,9.6,6.5,9.6c1.6,0,2.7-0.4,4.2-1.3L-22.1,31.6L-22.1,31.6z M-26.7,19.1     c1.3,0,2.1,2.1,2.1,5.7H-29C-28.9,20.9-28,19.1-26.7,19.1L-26.7,19.1z M-16.9,63.9c0,1.9-0.9,3.1-2.2,3.1s-1.9-1.1-1.9-3V50.3     h-3.5v14.4c0,3.2,1.4,5.4,3.9,5.4c1.8,0,2.9-1.3,3.6-2.8v2.5h3.5V50.3h-3.5V63.9z M-20.8-11.7c0-1.9,0.9-3.1,2.2-3.1     s1.9,1.1,1.9,3V1.9h3.5v-14.4c0-3.3-1.4-5.4-4-5.4c-1.8,0-2.9,1.3-3.6,2.8v-2.5h-3.5V1.9h3.5V-11.7L-20.8-11.7z M-33.8,2.2     c1.5,0,2.6-0.9,3.4-2.6v2.3h3.5v-13.3c0-4.2-2.1-6.4-5.8-6.4c-1.6,0-2.7,0.3-3.9,0.8v3.3c1.1-0.5,2.2-0.9,3.4-0.9     c1.9,0,3,1.2,3,3.4v1.5c-0.8-0.4-1.8-0.7-2.8-0.7c-2.8,0-4.6,2.1-4.6,6.2v0.5C-37.8-0.1-36.1,2.2-33.8,2.2L-33.8,2.2z M-34.4-4.4     c0-2.1,0.8-3.2,2.1-3.2c0.6,0,1.4,0.3,1.9,0.5v3.5c0,1.7-0.9,2.8-2.1,2.8c-1.1,0-1.9-1-1.9-3.2L-34.4-4.4L-34.4-4.4z M-39.9-24     h-3.6v3.8h3.6V-24z M-97.7,2l4.8-25.7h-3.6l-3,18.5l-3-18.5h-3.7l4.8,25.7H-97.7L-97.7,2z M-87.6,1.9v-19.5H-91V1.9H-87.6z      M-87.5-24h-3.6v3.8h3.6V-24z M-39.9,1.9v-19.5h-3.5V1.9H-39.9z M-49-9.3c0-3,1.3-4.4,3.5-4.4h0.1v-4.1c-1.8-0.1-2.9,1.1-3.5,2.8     v-2.6h-3.5V1.9h3.5L-49-9.3L-49-9.3z M-73.9-1.5c0,2.8,1.8,3.6,3.8,3.6c0.7,0,1.6-0.2,2.2-0.5v-2.9c-0.3,0.2-0.7,0.2-1.1,0.2     c-0.9,0-1.4-0.4-1.4-1.5v-12.2h2.5v-2.9h-2.5v-5.1h-3.5v5.1h-1.4v2.9h1.4V-1.5z M-79.1,2.2c1.1,0,1.8-0.3,2.7-0.8v-3.5     c-0.7,0.5-1.5,0.9-2.1,0.9c-1.7,0-3-1.7-3-6.1v-1.1c0-4.4,1.4-6.1,2.9-6.1c0.8,0,1.5,0.3,2.2,0.8v-3.6c-0.8-0.4-1.4-0.6-2.6-0.6     c-3.4,0-6.1,3.2-6.1,9.6v0.9C-85.1-0.9-82.6,2.2-79.1,2.2L-79.1,2.2z M-60.7,2.2c3.3,0,5.8-3.4,5.8-9.6v-0.9     c0-6.2-2.5-9.6-5.8-9.6c-3.3,0-5.9,3.4-5.9,9.6v0.9C-66.6-1.2-64,2.2-60.7,2.2z M-63.1-8.4c0-4.2,1-6.4,2.4-6.4s2.4,2.2,2.4,6.4     v1c0,4.2-1,6.4-2.4,6.4s-2.4-2.2-2.4-6.4V-8.4z" />		</g>	</g></g></svg>