<?xml version="1.0" encoding="utf-8"?>
<svg version="1.2" baseProfile="tiny-ps" id="Layer_1" xmlns="http://www.w3.org/2000/svg" xmlns:xlink="http://www.w3.org/1999/xlink"
	viewBox="0 0 650 650" xml:space="preserve">
	  <title>VectorMarketing</title>
<path d="M75,177.4c45.9,71.1,91.8,142.2,137.8,213.3c46.2-71,92.4-141.9,138.6-212.9C259.3,177.7,167.1,177.6,75,177.4L75,177.4z"/>
<path d="M418.7,179.5c3.3-0.1,6.7-0.2,10-0.3c5.8-23.2,11.6-46.5,17.4-69.8c-21.6,22.8-43.2,45.6-64.8,68.4
	c3.8,0.2,7.5,0.4,11.3,0.6c-52.5,82.4-105,164.8-157.5,247.2c4,5.2,8.1,10.4,12.1,15.6C304.4,354,361.5,266.8,418.7,179.5
	L418.7,179.5z"/>
<path d="M267.3,473c4.8,6.9,9.5,13.7,14.3,20.6C350,388.1,418.5,282.5,486.9,177c2.7,0.1,5.4,0.3,8,0.4c5.7-22.5,11.3-45,17-67.5
	l-62.6,67.5c2.7,0.3,5.4,0.6,8,0.9C394,276.6,330.7,374.8,267.3,473z"/>
<path d="M297.3,519.1c4.8,7.8,9.5,15.5,14.3,23.2c79-121.6,158-243.3,237-364.9c2.6-0.1,5.1-0.2,7.7-0.4
	c6.2-23.1,12.5-46.3,18.7-69.4c-21.3,23-42.6,45.9-64,68.9h7.6C444.9,290.7,371.1,404.9,297.3,519.1L297.3,519.1z"/>
</svg>
