<?xml version="1.0" encoding="utf-8"?>
<!-- Generator: Adobe Illustrator 27.8.1, SVG Export Plug-In . SVG Version: 6.00 Build 0)  -->
<svg version="1.2" baseProfile="tiny-ps" xmlns="http://www.w3.org/2000/svg" xmlns:xlink="http://www.w3.org/1999/xlink" viewBox="0 0 225 225" xml:space="preserve">
<title>Hush Puppies</title>
	<g>
		<path fill="#C58D67" d="M123.1,22.4c0,0-5.4,9.7-4.8,11.4c1.4,5.1,7.8,20.4,9,25.1c0,0,3.7,4.1,3.7,8.1c0,4,17.2-0.9,17.2-0.9
			s-8.5-17.4-10.1-19.1s-3.1-3.7-3.1-6.3c-1-5.5,1.6-6.4-2.9-11.7C128.1,25.4,126.5,22.9,123.1,22.4L123.1,22.4"/>
		<path fill="#75472D" stroke="#75472D" stroke-miterlimit="10" d="M160.5,144c-4.5,3.9-6,7.3-11.1,2c-9-3.4-4-9.1-16-9.4
			c-0.9-4.3,4.1-1.8,5.7-3.2c5.5-4.4,5.2,4.9,10.2,3.8c8.4-6.2,8.6-27.3,1.2-34.5c6.2-29.4,8.4,27.9,12.4,34
			C161.9,139.4,161.2,141.7,160.5,144z"/>
		<path fill="#EEE5DD" stroke="#EEE5DD" stroke-miterlimit="10" d="M88.5,178c4.2-8.4-10.8-13.6-10.6-27.5
			c17.8-9.9,8.7-1.1,22.4,3.9c0.2,4.6,6.6,8.3,7.8,13.2c-18.3-5.6-11-11-21.8-15.6c-1.3,2.4,6.1,8.5,6.4,13.2
			C100.5,173.6,104.8,186.1,88.5,178z"/>
		<path fill="#AB6F49" stroke="#AB6F49" stroke-miterlimit="10" d="M68.5,147.9c-7-2.8,9.3-11.8,10.2-16.8c0.2,6.2,7.7,1.7,6-3.4
			c8.1-4.5-1.7-13.2,5.7-12.4c1.1,5-0.4,15.4,3.1,18c-0.5,1.5-0.3,4.3-2.1,4.6c-4.2,1.7-7.5,6.9-11.8,3.6
			C76.6,145.4,73,146.8,68.5,147.9z"/>
		<path fill="#805232" stroke="#805232" stroke-miterlimit="10" d="M136.4,46c9.1,11.4,17.2,26.4,16.7,42.3c-6.8-1.8-1-13.8-5-15.9
			c-1,3.1-3.7,10.4-5.5,4.2c3.9-4.1-3.6-28.6-5.4-17.7c-2.3-0.7-0.7-5.9-1.2-8c-2.3,0.2-1.6,5.9-3,8c-5.1-1.5-7.6-2.2-5.4-7.9
			C130,53.6,133.7,47.2,136.4,46z"/>
		<path fill="#B09680" stroke="#B09680" stroke-miterlimit="10" d="M116.5,193c-2.6,11.1-14.3,9.2-23.3,8.6c1.7-7.1,8.4-5.6,14-5.6
			c-4-11.9,4.3-0.5,1.7-14.7c3.9-1,5.7,1.1,6.4,4.7C111.7,189.3,116.6,190.6,116.5,193z"/>
		<path fill="#D1946B" stroke="#D1946B" stroke-width="2" stroke-miterlimit="10" d="M71.4,102.9C75.9,74.7,78,58.2,82.2,99
			C76,90,74.1,109.3,71.4,102.9z"/>
		<path fill="#B37751" stroke="#B37751" stroke-miterlimit="10" d="M84.5,128c2.3,5-5.8,9.2-5.7,3.2c-7,12.4-8.2,3.2-8.5-6.2
			c-2-3.3-3.8-9.3,2.4-7.6c2.4,7.1-0.5,11.7,8.9,7.8C83.9,124.4,85,126,84.5,128z"/>
		<path fill="#DCBDA6" stroke="#DCBDA6" stroke-miterlimit="10" d="M105.5,190c4.9,8.7-6.2,7.4-10.2,2.2c1.5,12.2-7.2,9.1-18.6,8.3
			c-0.4-5,10.9-3.4,14.1-6.1c0.6-0.2,0.5-2.2,1.1-3.4C96.9,191.3,100.8,188.2,105.5,190z"/>
		<path fill="#AB9883" stroke="#AB9883" stroke-width="2" stroke-miterlimit="10" d="M145.4,185.9c4.1,5.7,20.6,12.8,5,10.8
			c-8.5-12-8.6-2.6-15.9-3.1c-0.9-8.4-2.1-14.3,7.9-16.4C143.4,180.4,144.4,183.2,145.4,185.9 M142.4,186.5c-2.1-8.3-4.4-2.1-5,2.9
			C139.6,191.2,140.6,188.5,142.4,186.5z"/>
		<path fill="#E6D4CB" stroke="#E6D4CB" stroke-miterlimit="10" d="M101.9,21c10.1-3.9,7.7,8.9,17.5,8.2c-1.9,2.8-2.7,6.5-3.4,9.4
			c-4.5-10.8,0.4,11-8.4,6.2C110.1,35,113.8,26.7,101.9,21z"/>
		<path fill="#C7BCB0" stroke="#C7BCB0" stroke-miterlimit="10" d="M153.6,149c1.5-0.1,3.3-1.4,4.7-1.3c3.6,7.9-3.1,13.3-5.4,20
			c-1.8-0.8-3-1.6-3.6-1.9C151,160.6,147.8,151,153.6,149z"/>
		<path fill="#855539" stroke="#855539" stroke-miterlimit="10" d="M68.8,148.2c4.1-1.6,7.9-2.8,10.8-6.6c5.2,3.5,7.2-2.3,11.8-3.3
			C89,148.4,77.8,151.8,68.8,148.2z"/>
		<path fill="#F8F0EB" d="M119.4,29c-5.7,0.2-8.6-3-9.9-8.5C119.9,18.7,126.8,16.7,119.4,29z"/>
		<path fill="#997A5F" stroke="#997A5F" stroke-miterlimit="10" d="M137.6,193.9c4.6-6.2,9.9-2.5,12.4,2.8c-4.4,0.6-2.6,2.6-1.5,5.4
			C132.6,205.3,146.3,195.7,137.6,193.9z"/>
		<path fill="#EEE2D9" d="M100.6,189c-12.6,5-15.3,1.6-5-8c4.4-3,6.3,2.9,8.5,5.5C103.4,189.4,100.2,185.2,100.6,189z"/>
		<path fill="#C58D67" stroke="#C58D67" stroke-miterlimit="10" d="M119.4,29.2c1.2-2.8,2.4-5.4,3.9-8.1c2.2,1.5,7.7,4.3,5.9,7.9
			c-11.2,0.7-3.7,2.9-6.9,9C123,47.5,116.5,31.9,119.4,29.2z"/>
		<path fill="#66412C" stroke="#66412C" stroke-miterlimit="10" d="M136.5,45.6c-3.9,4.9-8.5,4.9-9.9,8.9C125,52,122.8,49,123,46
			c11.6,0.6,10.1,1.2,10.7-9.9C136.2,36.7,135.3,42.6,136.5,45.6z"/>
		<path fill="#E4D4C8" stroke="#E4D4C8" stroke-miterlimit="10" d="M55.5,155c-2.7-1.5-5.4-3.1-8.5-4.9c9.4-2.7,15.5,3.5,22.5,7.6
			C66.7,161.2,59.8,154.2,55.5,155z"/>
		<path fill="#BDB1A5" stroke="#BDB1A5" stroke-miterlimit="10" d="M150.5,154c0.5,4.8-4.1,11.5,2,14c0.1,0.7-0.2,1.2-1,1.8
			c-3.5-2.7-5.9-1.4-8.3,1C142.5,164.9,145.2,157.4,150.5,154z"/>
		<path fill="#E19E70" d="M89.4,44.3c1.5-7.6,4.2-17,11.1-21.9c-1.4,6.4-4.1,12.8-7.3,18.6C90.9,41.6,89.7,41.8,89.4,44.3z"/>
		<path fill="#DFA37B" stroke="#DFA37B" stroke-miterlimit="10" d="M94.7,38.1c2.5-4.9,3.3-14.4,7.5-17.2
			C113.7,24.5,99.5,33.9,94.7,38.1z"/>
		<path fill="#D69871" stroke="#D69871" stroke-miterlimit="10" d="M68.6,122.3c4.1,3.7,0.5,10.6-0.1,14.8c0.1,4.3-1.4,5.8-5,4.9
			C64.4,135.1,66.6,129.2,68.6,122.3z"/>
		<path fill="#7C6D57" stroke="#7C6D57" stroke-miterlimit="10" d="M145.7,185.8c-1.4-3.3-4.8-9-1.8-12.7
			C150.9,176.9,150.4,179.9,145.7,185.8z"/>
		<path fill="#DF9D6E" stroke="#D1946B" stroke-miterlimit="10" d="M79.5,76.1c-1.1-9-2.3,6.3-3.6,7.2c0.4-5.9,2.6-20.2,9.4-22.8
			C85.4,65.8,81.9,72.6,79.5,76.1z"/>
		<path fill="#603622" stroke="#603622" stroke-miterlimit="10" d="M149.5,83c2.2,4-2.6,8.5,3.8,8c0.5,3.3-2,6.3-3.1,9.5
			c-0.7-1.8-1-3.9-1.4-6.8c-1.4,2.3-2.3,3.8-3.3,4.9C145.7,94,144.4,84.2,149.5,83z"/>
		<path fill="#8F5D3D" stroke="#8F5D3D" stroke-miterlimit="10" d="M68.6,159.1c6.2-4,13.5,0.3,15.2,7.6c-3.8-2.1-7.4-4.5-11.6-7.4
			C70.2,165.4,66.8,166.3,68.6,159.1z"/>
		<path fill="#87725E" stroke="#87725E" stroke-miterlimit="10" d="M116.9,193c-0.3-2.4-5.1-3.7-1.2-6.9c3.4,0.7,5.2-0.6,8.2-1.9
			C123.7,190.9,125.1,195.7,116.9,193z"/>
		<path fill="#6E4029" stroke="#6E4029" stroke-miterlimit="10" d="M69.9,165c1.3-10.4,9.9,0.2,14.7,2.8
			C79.5,168.4,74.4,168.9,69.9,165z"/>
		<path fill="#E3B28A" stroke="#E3B28A" stroke-miterlimit="10" d="M70.5,117c-7.7,2.8-2.5-11.1,0.6-13.9
			C73.8,106.9,70.6,113.1,70.5,117z"/>
		<path fill="#CDB4A1" stroke="#CDB4A1" stroke-miterlimit="10" d="M129.4,199c-2.9,0.5-6.7-1.9-5.6-5.1c2.9-0.7,5.9-3.7,8.7-2.6
			C132.1,195.3,135.3,200.3,129.4,199z"/>
		<path fill="#75573F" stroke="#75573F" stroke-miterlimit="10" d="M148.8,202.2c-2.3-3.4-2.5-6,2.6-4.8c2.8-0.6,11.9-1.3,9.9,3.2
			C157.8,200.7,152.6,202.5,148.8,202.2z"/>
		<path fill="#A29582" stroke="#A29582" stroke-miterlimit="10" d="M150.5,178.5c-2-2.5-6.6-4.1-7-7.5
			C148.3,163.7,156.5,173.4,150.5,178.5z"/>
		<path fill="#C5855D" stroke="#C5855D" stroke-miterlimit="10" d="M63.4,142.4c6.7,1.5,3.9-6.4,6.7-10.3c1.6,2.2,2,4,2.4,6.6
			C69.5,141,65.5,149.6,63.4,142.4z"/>
		<path fill="#867564" stroke="#867564" stroke-miterlimit="10" d="M94.6,182c-5.3,7.1-5.6,4.3-7.1-2.8
			C88.6,177.2,94.8,179.8,94.6,182z"/>
		<path fill="#BF9E83" stroke="#BF9E83" stroke-miterlimit="10" d="M133.5,199c-2.8-6.2,3.5-5.5,7.6-4
			C139.9,201.9,139.5,205.4,133.5,199z"/>
		<path fill="#C68152" d="M83.6,68.1c0.2-5.1,2.2-12.7,5.5-16.9C91.2,57.9,91,64.9,83.6,68.1z"/>
		<path fill="#E09F70" d="M90.5,62c-3.7-18.5,0.3-30.9,1.9-2.7C91.8,60.5,91.2,61.3,90.5,62z"/>
		<path fill="#BBA591" stroke="#BBA591" stroke-miterlimit="10" d="M68.2,159.1c1.1,9.2-8.3-1.7-12.5-3.9
			C60.1,155.2,63.8,157.7,68.2,159.1z"/>
		<path fill="#E7CFBB" d="M88.2,191.1c1.1,0,1.8-0.1,3,0c1.3,5.6-5.8,4.5-9.5,6C83.6,195,85.7,193.1,88.2,191.1z"/>
		<path fill="#8A5939" stroke="#8A5939" stroke-miterlimit="10" d="M134.8,35.6c-4.6,1.7-5.2-6.1-5.2-9.2
			C132.8,28.2,136,30.5,134.8,35.6z"/>
		<path fill="#A49080" stroke="#A49080" stroke-miterlimit="10" d="M87.2,179.2c1,2.3,1.6,4.7,2.2,7.3
			C83.5,184.7,82.9,183,87.2,179.2z"/>
		<path fill="#C7AC96" d="M133.1,199c1.4,0.8,2.4,1.6,3.3,2.8c-2.2-0.6-5.7,2-6.9-2.4C130.5,199,131.6,199,133.1,199z"/>
		<path fill="#7C4B2D" d="M160.9,143.9c0.3-2.2,1-4.5,2-6.9C162.6,139.3,161.9,141.5,160.9,143.9z"/>
		<path fill="#75472D" stroke="#75472D" stroke-miterlimit="10" d="M153.4,90.7c-2.3,0.3-4.9,0.6-3-3.4
			C151.8,87.7,153.8,88.7,153.4,90.7z"/>
		<path fill="#7C4B2D" d="M158.3,147.5c-0.5,0.3-0.8,0.4-1.5,0.5C156.9,147,158.8,144.9,158.3,147.5z"/>
		<path fill="#997A5F" d="M150.2,202.7c0.1-0.2,0.4-0.3,1.1-0.4C151.3,202.4,150.9,202.6,150.2,202.7z"/>
		<path fill="#653823" stroke="#653823" stroke-miterlimit="10" d="M155.5,114c0.9,4.5-0.6,9.1-0.9,13.4c1,4.6-5.3,12.9-9.2,8.4
			c-3.8-8-5.7,0.8-13.8-2.2c-0.5-3.9,0.7-6.3,3.6-8.3c-6.6-6.3-3.8-7.7,3.3-3.8c0,2.9,0,5.5,0,7.7c2.8-3.1,5.8-6.5,9.4-10.6
			C147.1,130.4,152.8,117.9,155.5,114z"/>
		<path fill="#5E3421" stroke="#5E3421" stroke-miterlimit="10" d="M155.5,113.8c-2.6,4.2-8.4,16.6-7.5,4.8
			c-3.6,4.1-6.7,7.4-9.4,10.6c0.4-4.2-0.6-11.9-1.6-16c7.5,3,1.4-4.5,11.1-0.2c1.8-4,1.3-9.2,5.6-6.8c-0.1,3-2.5,6.7,2,7
			C155.5,113,155.5,113.5,155.5,113.8z"/>
		<path fill="#56301F" stroke="#56301F" stroke-miterlimit="10" d="M150.5,105c-1.6,4.6-1.4,10.2-8.6,5.6c0.4-7.3,3.2-10.7,6.9-16.9
			C149.1,98.1,150.8,101.1,150.5,105z"/>
		<path fill="#7C4B2D" stroke="#7C4B2D" stroke-miterlimit="10" d="M133.5,137c4.6,0,8.7,0.4,10.7,5.8c3.7,3.1,14.6,7.5,1.1,6.7
			C142,142.2,137.9,145,133.5,137z"/>
		<path fill="#653823" d="M155.5,112.6c-2.8,0-3.6-1.5-2.1-4.3C154.2,109.4,154.8,110.8,155.5,112.6z"/>
		<path fill="#653823" d="M150.8,105.1c-1.2-3,1.4-1,2.7,0.5C152.7,105.7,151.9,105.5,150.8,105.1z"/>
		<path fill="#7C4B2D" d="M131.7,133.9c2.2-0.9,3,4.7,0,2.7C131.6,135.5,131.7,134.7,131.7,133.9z"/>
		<path fill="#965E36" d="M149.4,149.8c1-0.3,2.6-1.1,3.9-0.8C153,149.4,150.3,150.4,149.4,149.8z"/>
		<path fill="#7C4B2D" d="M156.2,148c-0.2,0.3-0.6,0.5-1.3,0.8C155,148.5,155.4,148.2,156.2,148z"/>
		<path fill="#D8BEAA" d="M100.9,189.2c-0.7-3.9,2.5,0.3,3.2-2.6c-0.5-0.6-1.3-1.8-2-3.2c6.6-2.8-4.6-7.2-5.4-13.3
			c0.6-4.8,13.6,9.7,16.9,10.9C102.2,179.6,117.7,193.1,100.9,189.2z"/>
		<path fill="#E3D3C8" stroke="#E3D3C8" stroke-miterlimit="10" d="M100.3,154.1c-3.2-1.6-0.7-16.3-1.3-20.1
			C107.7,136.8,109.5,151.3,100.3,154.1z"/>
		<path fill="#D7BFAD" stroke="#D7BFAD" stroke-width="2" stroke-miterlimit="10" d="M100.3,154.4c2.1-1.5,5.4-5.4,8.1-3.2
			c-5.9,8.8,5.9,8.4,12,10c-1.4,2.9,1.7,5.5,0.7,7.7C114.5,164.4,104.3,160.2,100.3,154.4z"/>
		<path fill="#D6BBA4" d="M98.6,134c-1.3,6.4,5,25.4-6,15.9c0-0.6-0.3-3.4,0.3-3.9c5.8,0,1.7-4.7,3.6-6.5c-1.2-0.8-2.5-1.7-3.7-2.5
			C93.6,132.2,93.9,131.1,98.6,134z"/>
		<path fill="#DEC6B2" d="M92.6,137.3c1.4,0.6,2.6,1.4,3.9,2.3c-1.9,4.3,3.1,7.5-8.1,6.2C89.4,143.1,90.6,139.7,92.6,137.3z"/>
		<path fill="#DDBBA3" stroke="#DDBBA3" stroke-miterlimit="10" d="M104.6,166.8c8.5,0.4,3.1,6.7-1.7,3
			C91.6,164.6,93.4,158.7,104.6,166.8z"/>
		<path fill="#E7DAD0" stroke="#E7DAD0" stroke-width="2" stroke-miterlimit="10" d="M109.5,168c-1.9-0.8-7.6-8.9-4-9
			C109.6,162.2,120,166.5,109.5,168z"/>
		<path fill="#E3C5AF" d="M95.4,161.6c0.1,9.5-8.9-3.8-3.9-6.6C92.7,157.1,94,159.2,95.4,161.6z"/>
		<path fill="#E7DACF" stroke="#E7DACF" stroke-miterlimit="10" d="M100.4,177.3c2.8,2.1,6.9,3.9,1.5,5.7
			C100.6,181.2,99.1,179.7,100.4,177.3z"/>
		<path fill="#EBD9CB" stroke="#EBD9CB" stroke-miterlimit="10" d="M91.3,154.7c-1.3,4.1-4.1,0.2-6-1.3
			C86.6,150.7,89.2,153.9,91.3,154.7z"/>
		<path fill="#EBD9CB" stroke="#EBD9CB" stroke-miterlimit="10" d="M92.7,165.3c1.7-1.1,4.6,0.6,4.8,2.7
			C96.2,171.5,94.5,167.2,92.7,165.3z"/>
		<path fill="#E7DAD0" d="M92.6,150.3c1.5,0.5,3,1.3,4.7,2.5C95.7,152.3,94.2,151.5,92.6,150.3z"/>
		<path fill="#DABFAA" d="M105.4,158.6c-1.6,1.2-3.5-0.1-4-1.6C102.8,157.4,104.1,157.9,105.4,158.6z"/>
		<path fill="#E7DAD0" d="M101.2,156.9c0.5,0.6,0.8,1.1,1.1,1.9C101.6,158.4,98.9,155.1,101.2,156.9z"/>
		<path fill="#E7DAD0" d="M90.5,146.3c1-0.7,2.3-0.4,2,1.3C91.8,147.6,91.2,147.1,90.5,146.3z"/>
		<path fill="#E0CCBF" d="M104.6,166.5c-0.6-0.1-1.3-0.4-2-1.1C103.1,165.5,103.8,165.8,104.6,166.5z"/>
		<path fill="#E7DACF" d="M94.8,181.9c-0.4-0.1,0.1-1.1,0.6-0.9C95.4,181.3,95.3,181.6,94.8,181.9z"/>
		<path fill="#A46842" stroke="#A46842" stroke-miterlimit="10" d="M84.8,127.8c0.3-3.9-4.1-5.6-7.3-7.3c3.2-3.4,4.9-7.5,7.3-11.6
			c6.3-1.8,7.5,0.6,6.3,6.1C82.5,114.7,93.2,123.1,84.8,127.8z"/>
		<path fill="#935B3A" stroke="#935B3A" stroke-miterlimit="10" d="M90.5,115.4c2.8-1.7,3.1,8.4,4.1,9.9c7.5-2,1.3,5.2-0.9,7.4
			C90.2,132.9,91.5,119.1,90.5,115.4z"/>
		<path fill="#3F2416" stroke="#3F2416" stroke-miterlimit="10" d="M143.5,72c-0.5,5.4-3.7,11.2-5.4,2.8c4.2-6.8-1.7-12.5-0.3-19.1
			C141.3,56.7,144.1,67.5,143.5,72z"/>
		<path fill="#663923" stroke="#663923" stroke-miterlimit="10" d="M140.5,80c0.5-0.9,1-1.8,1.7-2.8c0.9,0.9,3.4,2.9,1,3.3
			c2.8,2-1.4,22.4-7.6,19.1C135.8,92.5,142.2,87,140.5,80z"/>
		<path fill="#2F1B0E" stroke="#2F1B0E" stroke-miterlimit="10" d="M137.2,59c5.8,12.9-2,13.7,3.1,20.8c0.2,0.3,0.2,0.3-0.1,0.4
			c-4.4,2.8-3.4-3-5.8-3.4C134.8,71.1,135.6,63.6,137.2,59z"/>
		<path fill="#AFA5A3" d="M123.4,49c1,2.9,6.8,11.6,3.9,9.9c-2.7-1.6-4.4,10.8-9-2.2c-0.8-2.3,3.6-1.1,4.8-2.7
			C120.6,53,122.7,50.5,123.4,49z"/>
		<path fill="#684129" stroke="#684129" stroke-miterlimit="10" d="M136.3,58.8c0.9,2.1-0.9,3.9-2.8,2.8c-0.3-4,1.1-7.4,1.7-11.3
			C137.2,51.3,135.4,56.2,136.3,58.8z"/>
		<path fill="#8A5A33" stroke="#8A5A33" stroke-miterlimit="10" d="M144.5,82c-0.4-2.4,1.4-4.5,2.7-6.3
			C148.8,82.1,143.4,102,144.5,82z"/>
		<path fill="#683E25" d="M147.9,83c-1.7-11.3,2.4-13.5,1.8-0.4C149.1,83,148.6,83,147.9,83z"/>
		<path fill="#876144" stroke="#876144" stroke-miterlimit="10" d="M133,59c0.8,1.2,0.3,4.6-1.6,4.7C127.5,59.2,125.1,55.6,133,59z"
			/>
		<path fill="#663923" d="M143.7,71.8c-0.2-0.5,0-1.2,0.4-1.9C144.2,70.5,144.1,71.1,143.7,71.8z"/>
		<path fill="#E0CCBF" stroke="#E0CCBF" stroke-miterlimit="10" d="M97.6,168.3c-0.1-0.3-0.1-0.8-0.1-1c4.2,0.7,9,7.4,12,1.1
			c4.2-2.3,7.7-2.4,11.7,1c1.5,4.2-1.1,3.8-4.1,4.3c3.4,8.9,3.3,9.3-2.5,10.4C111.3,176.8,102.9,174,97.6,168.3z"/>
		<path fill="#D0BDAF" stroke="#D0BDAF" stroke-miterlimit="10" d="M114.6,184.2c5.7-1.3,5.9-1.7,2.4-10.6c1.3-0.2,2.5-0.4,4.1-0.2
			C122.2,178,121.3,191.3,114.6,184.2z"/>
		<path fill="#E7CFBB" d="M96.8,196c-2.1-1.3-3.9-2-1.4-3.8C96.1,193.2,100.3,196.1,96.8,196z"/>
		<path fill="#B97C55" stroke="#B97C55" stroke-miterlimit="10" d="M70.8,117c0.4-6.2,1.8-13.5,5.8-18.6c2.2-4,3.6-0.8,5.6,0.6
			c0.8,3.2,1.2,7.7-2.5,8.8c1.5,6.4-5.4,4.7-7.2,9.3C72,117,71.6,117,70.8,117z"/>
		<path fill="#945735" stroke="#945735" stroke-width="0.5" stroke-miterlimit="10" d="M80.6,76c-0.7-3.3,5.8-5.7,4.7-0.9
			c-0.4,3.3,0.5,7.6-0.3,11.1c0.6,2,3.1,4.5,1.8,6.8C77.5,95.2,80,82,80.6,76z"/>
		<path fill="#B8764A" stroke="#B8764A" stroke-miterlimit="10" d="M81.5,93.4c3.6-1.3,7.2,0.5,6.2,4.6C82.9,101,81.8,98,81.5,93.4z
			"/>
		<path fill="#B8764A" d="M79.6,84.3c0.5,1.5,1,3.4,1.3,5.5C80.3,88.2,79.9,86.5,79.6,84.3z"/>
		<path fill="#B8764A" d="M80.3,76c0.2,1.3,0.1,2.6-0.3,4C79.9,79.3,78.7,76.2,80.3,76z"/>
		<path fill="#AB6F49" d="M72.6,117.4c1.1-5.3,8.5-2.8,7-9.6c9.6-4.6,0.9,10.1-2.1,12.8c2.6,1.4,4.8,2.6,7,4.1
			C72.7,127.4,75.4,128.7,72.6,117.4z"/>
		<path fill="#BCA794" d="M118.7,186.4c7.8-6.1-4-14.9,9.7-14.1c0.9,7.8,10-2.3,14.1-3.3c5,11.4-13,7.6-8.3,22.5
			c-1.6-0.2-1.8-0.5-3.5-0.8c0.2-4.3-2.7-6.9-4.5-10.5C124.5,183.2,122.1,185.3,118.7,186.4z"/>
		<path fill="#998873" d="M142.3,186.9c-5.4,7-5.1,0.1-3.3-4.7C141.8,181.6,141.4,184.6,142.3,186.9z"/>
		<path fill="#C7AC96" d="M132.5,191.4c1.2-0.2,2.3,0.8,2,2.3C132.8,194.8,132.3,193.2,132.5,191.4z"/>
		<path fill="#997A5F" d="M153.3,196.7c-0.4,0.4-1,0.7-1.7,0.7C152.1,196.9,152.6,196.7,153.3,196.7z"/>
		<path fill="#F7F2ED" d="M119.6,55.1c-1.5,1.2-2.5,4.5-3.4,5.9c-3.6-0.4-3-10.7-5.7,1c-12.9,9.3,4.3,25.7-10.1,28.6
			c-3.2-14.5-0.4-32.2,7.1-45.3c8.9,4,4-17.4,8.4-6.6c0.6-2.4,1.2-5,2.2-7.6C120.6,38.7,119.9,47.3,119.6,55.1z"/>
		<path fill="#A86F48" stroke="#A86F48" stroke-miterlimit="10" d="M107.5,44.9c-1.2,1.7-5.2,0.9-6.5,0.6c0.5-1.7,2.6-3.1,2.8-4.5
			c0.5-4.4-1.7-6.8-5.1-5.7C112.1,16.7,111.8,31.1,107.5,44.9z"/>
		<path fill="#DB9F76" d="M108,42c-0.1-0.2,0-0.5,0.3-1C108.3,41.3,108.2,41.6,108,42z"/>
		<path fill="#BDA48C" stroke="#BDA48C" stroke-miterlimit="10" d="M149.1,149.9c4.2,1.1-0.6,6.8-3.2,7.7
			C142.4,154.1,143.3,148.5,149.1,149.9z"/>
		<path fill="#785035" stroke="#785035" stroke-miterlimit="10" d="M130.7,33.8c-2.8-0.8-6,0.1-7.7,3.8
			C118.4,29.4,130.5,25.2,130.7,33.8z"/>
		<path fill="#E6D4CB" d="M119.9,55.1c-0.2-6.8-0.6-24.2,3.5-6.4C121.8,50.4,122.4,55.5,119.9,55.1z"/>
		<path fill="#32231B" stroke="#32231B" stroke-miterlimit="10" d="M123,46c-1.6-2.2-0.4-5.5-0.6-8.1c2.1,0.1,2.7,5.3,4.1,7.5
			C125.5,45.9,124.5,45.9,123,46z"/>
		<path fill="#E6D4CB" d="M120.3,37.8c-0.8-0.9-1.5-2.2-2-3.6C119.1,35.1,119.7,36.3,120.3,37.8z"/>
		<path fill="#785035" d="M122.2,38c0.2,0.1,0.3,0.3,0.3,0.7C122.3,38.7,122.2,38.4,122.2,38z"/>
		<path fill="#AD947C" stroke="#AD947C" stroke-miterlimit="10" d="M142.7,168.8c-4.4,2.5-8.4,4.8-12.9,6.8
			C126.6,171.4,147,160.3,142.7,168.8z"/>
		<path fill="#8E6B4C" stroke="#8E6B4C" stroke-miterlimit="10" d="M141.6,165.1c-7.8,5,0.2-7.3,2-11
			C146.8,157.4,144.8,162.5,141.6,165.1z"/>
		<path fill="#BCA794" d="M141.8,165.3c0.5-0.9,1.2-1.6,2.2-2.4C144.5,164.6,143.9,166.8,141.8,165.3z"/>
		<path fill="#B97643" stroke="#B97643" stroke-width="2" stroke-miterlimit="10" d="M93.2,41c1,3.9,5.8,18.8,0.3,18
			C93.3,54.3,87.2,42.8,93.2,41z"/>
		<path fill="#683726" d="M85.5,82c-1-3.1,2.4-11.3-3.5-9.4c-0.4-0.2-0.5-0.6-0.5-0.6C90,58.3,86.5,76.6,85.5,82z"/>
		<path fill="#B8764A" d="M81.2,72.2c0.9,0.1,0.1,1.3-0.3,1.8C80.8,73.5,80.9,72.9,81.2,72.2z"/>
		<path fill="#48291A" stroke="#48291A" stroke-miterlimit="10" d="M144.5,91c1.8,1.3,1.5,8.9-1,11C137.7,99.5,143.3,94.4,144.5,91z
			"/>
		<path fill="#DCC4B3" stroke="#DCC4B3" stroke-miterlimit="10" d="M123.8,184.1c2.1-8.2,7.2,2.4,6.5,6.6
			C122.8,196.3,123.5,191.4,123.8,184.1z"/>
		<path fill="#B27850" stroke="#B27850" stroke-width="2" stroke-miterlimit="10" d="M87.6,67.2c-4-0.1,1.9-3,2.9-4.8
			c3.6-9,10.2,8.4,9.5,13C91.3,61.5,98.7,65,87.6,67.2z"/>
		<path fill="#C68152" d="M93.5,58.7c-1.2,1.3-1.2-1.4-1.1-2.4C92.9,56.8,93.2,57.6,93.5,58.7z"/>
		<path fill="#9E8265" stroke="#9E8265" stroke-miterlimit="10" d="M131.6,133.5c0.4,11.4-4.3-12.3-8.1-12c-0.4-2.7-1.8-6.2-0.5-8.7
			c3.4,2.1,3.3,7.9,8.5,7.2C131.5,124.8,131.7,128.7,131.6,133.5z"/>
		<path fill="#75472D" stroke="#75472D" stroke-miterlimit="10" d="M131.5,119.7c-8,3.8,3.5-22.2,5.6-19.3
			C138.2,117.6,130.3,105.9,131.5,119.7z"/>
		<path fill="#572F1E" stroke="#572F1E" stroke-miterlimit="10" d="M132,119c-0.3-3.3-2-7.6,4.1-7.6
			C137.6,117.3,140.8,122.8,132,119z"/>
		<path fill="#75472D" d="M132,128c-0.1-1.1-1.2-4.4,0.5-5C135.8,125,135,126,132,128z"/>
		<path fill="#7C4B2D" d="M132.5,122.7c-1,1.3-1-1.2-1-2.3C131.8,120.8,132.2,121.5,132.5,122.7z"/>
		<path fill="#603622" stroke="#603622" stroke-miterlimit="10" d="M136.9,113c-0.9-4,0.6-8.4,0.6-12.6c0-0.4,0-0.4,0.3-0.4
			c1.1-0.5,1.7-1.2,2.7-1c3.9,3.1,1.9,7,1,11.6C141.7,115,139.3,113.8,136.9,113z"/>
		<path fill="#603622" d="M143.8,102c0.1-0.6,0.6-1.2,1.4-1.9C145,100.6,144.6,101.3,143.8,102z"/>
		<path fill="#965E36" stroke="#965E36" stroke-miterlimit="10" d="M145.4,149.5c-2,1.3-5.9-1.4-7.8-1.9c-0.5-2.8-9.7-10.4-4.3-10.6
			c2.5,3.1,4.4,6.4,8.6,7.6C143.3,145.1,144.1,147.6,145.4,149.5z"/>
		<path fill="#E1CEBF" d="M106.5,144c-2-3.6-1.7-8.9-7.6-10c-0.8,0.1-0.8-0.9-0.3-1.2c1.2-2.7,0.1-5.8,4.2-4.9c3.3-9,10-4.7,9.6,3.3
			c-0.4,0.7-0.7,1.2-1.3,1.5c-4.7-2-6.9,1.3-4.4,4.9C107.7,139.8,110,142.1,106.5,144z"/>
		<path fill="#DABFAA" stroke="#DABFAA" stroke-miterlimit="10" d="M106.5,144.4c6.3-3.8-5.9-9.8,1.7-11.9
			C114.8,141.9,106.7,161.2,106.5,144.4z"/>
		<path fill="#C9AA90" d="M108.4,151.2c1.1-4.6,5.4-6.3,9-8.7c1.4,1.3,4.8,4.6,3.8,7.3C110.4,142.9,125.3,160.1,108.4,151.2z"/>
		<path fill="#BFA48D" stroke="#BFA48D" stroke-width="2" stroke-miterlimit="10" d="M108.2,152.2c6.1,0.9,10.9,1.2,9.4,8.7
			C113.4,159.6,102.8,158.8,108.2,152.2z"/>
		<path fill="#AD9279" stroke="#AD9279" stroke-miterlimit="10" d="M117.9,160.9c-1.5-3.7,1-7.6,4.6-8.6c0.7,4,7.1,6.9,0.7,9.6
			C121,161.2,120.2,160.9,117.9,160.9z"/>
		<path fill="#D0BDAF" stroke="#D0BDAF" stroke-width="2" stroke-miterlimit="10" d="M128.5,172c-4.5,1-8.6,1.7-6.7-4.7
			c0.4-0.4,0.6-0.4,1-0.4C124.6,159.4,128.2,168.9,128.5,172z"/>
		<path fill="#BDA895" d="M122.5,167c-2.8,0.2-1.6-4.1-2-5.7c1.2-0.1,3.7,1.4,4,2.8C123.1,163.7,122.6,166.1,122.5,167z"/>
		<path fill="#BFA48D" d="M120.2,162.1c0.4,0.7,0.6,1.6,0.5,2.7C120.3,164.1,120.1,163.2,120.2,162.1z"/>
		<path fill="#AB9177" d="M98.4,133c-0.1,1.5-2.4-0.5-3.6-0.9C97.6,127.5,101.1,125.9,98.4,133z"/>
		<path fill="#572E21" stroke="#572E21" stroke-miterlimit="10" d="M92.5,116c-3.1-3.8,0.5-11.4,0.3-16c5.9,1.7,10.7,5.4,2,7.9
			c1,1.1,2.3,2.4,1.9,4.2C99.7,115.3,94.9,115.8,92.5,116z"/>
		<path fill="#935B3A" stroke="#935B3A" stroke-width="2" stroke-miterlimit="10" d="M92.5,104c-0.1,4.5-3.7,4.3-7.6,4.8
			C78.2,100.6,86.4,99.2,92.5,104z"/>
		<path fill="#AB9177" stroke="#AB9177" stroke-miterlimit="10" d="M97.6,114.6c-0.7-3.8,5.6-5.5,7.8-7.3c0,7.3-1.2,13.4-7.2,17.7
			C95.6,123.1,98.9,117.8,97.6,114.6z"/>
		<path fill="#D4BDA9" stroke="#D4BDA9" stroke-miterlimit="10" d="M98.1,125.4c2.4-2.4,7.3-9.7,7.4-2.4c-1.3,1.5-2.1,3.5-3,5
			C100.5,127.9,97,128.8,98.1,125.4z"/>
		<path fill="#49281E" d="M97.5,115c0.1,2.9,1.1,9.9-3,10.4C93.5,120.6,90.2,115.2,97.5,115z"/>
		<path fill="#3F2416" d="M134.5,77c2.4,0.2,1.3,6,5.7,3.1c2.1,5.3-1.9,9.4-4,14.5c-5.8,3.7-3.8-4.5-4.1-7.6
			c1.9-1.1,3.4-2.1,5.8-3.8C131.1,83,133.3,81.5,134.5,77z"/>
		<path fill="#301E14" stroke="#301E14" stroke-miterlimit="10" d="M132.5,96c6.9-3.4,2.2,6.6-0.1,9.8c-2.7-0.3-4.6-0.9-6.6-1.4
			C127.5,101,128.6,97.1,132.5,96z"/>
		<path fill="#805232" d="M144.4,92c-0.5,0.6-0.9,1.2-1.7,2c0.2-3.7,0.7-7.6,1.5-11.7C144.8,84.9,144.2,89.5,144.4,92z"/>
		<path fill="#75472D" d="M140.6,98.7c-1.7,1.2-0.2-1.8,0.6-2.6C141.3,96.8,141,97.6,140.6,98.7z"/>
		<path fill="#75472D" d="M139.2,99c-0.2,0.3-0.6,0.6-1.4,1C138,99.7,138.4,99.4,139.2,99z"/>
		<path fill="#805232" d="M144.3,80c0.8,0.8-0.4,0.9-1.1,0.5C143.5,80.4,143.7,80.2,144.3,80z"/>
		<path fill="#4F3221" stroke="#4F3221" stroke-miterlimit="10" d="M134.4,76.8c-1,4.8-3.4,6.2,3.5,6.5
			C124.7,96.8,130.2,58.2,134.4,76.8z"/>
		<path fill="#402617" d="M134.5,73.7c-1.9-1.6-6.7-4.1-0.5-3.8c-2.6-2.6-3.8-5.1-0.6-7.6C138.8,60.5,134.2,70.1,134.5,73.7z"/>
		<path fill="#978576" d="M129.4,78.9c-3.4,4-2,6.2-3.2,11.1c-3.2-2.7-1.4-10.5-2.3-15c2.8-5.6,1.1-14.1-6.7-9.1
			c-7.4-8.9,0.4,3.6-10,5c-3.2-4.4,4.8-11.9,9.2-9.7C125.4,54.7,128.8,72.4,129.4,78.9z"/>
		<path fill="#C0B5B1" stroke="#C0B5B1" stroke-miterlimit="10" d="M127.6,67c-2-2.4-4.1-4.8-6.2-7.6
			C125.9,53.1,137.2,68.1,127.6,67z"/>
		<path fill="#DDCFC9" d="M119.5,58.7c-0.8,1.1-1.7,2-2.8,2.5C117.1,59.5,117.7,55.5,119.5,58.7z"/>
		<path fill="#C0B5B1" d="M121.8,55c-0.3-0.4-0.3-0.9-0.2-1.7C123,53.5,123.4,54.2,121.8,55z"/>
		<path fill="#D1946B" d="M87.4,101c-1.6-0.2-5.5,1.3-4.9-1.7C83.5,98.9,88,98.8,87.4,101z"/>
		<path fill="#200D0A" stroke="#200D0A" stroke-miterlimit="10" d="M87.6,101.3c1.7-8.6-6.2-22.4,9-14.8c-1.3,6.1-4.5,11.1-4,17.2
			C90.9,103.2,89.3,102.4,87.6,101.3z"/>
		<path fill="#321813" stroke="#000000" stroke-miterlimit="10" d="M88.6,83.9c-6.9,6.7-0.7-12.4-1-16.4
			C92.5,68,88.4,80.2,88.6,83.9z"/>
		<path fill="#683726" stroke="#683726" stroke-miterlimit="10" d="M85.1,86.3c1.9-0.9,1.7,2.2,2.2,3.6
			C86.4,88.9,85.6,87.7,85.1,86.3z"/>
		<path fill="#945735" d="M87.7,98c0.3,0.5,0.4,1.2,0.1,1.9C86.3,99.8,86.3,98.7,87.7,98z"/>
		<path fill="#9D8067" stroke="#9D8067" stroke-miterlimit="10" d="M129.5,172c0,1.1,0,2.1,0,3.6C129.3,175,127.3,171.5,129.5,172z"
			/>
		<path fill="#D7BBA9" stroke="#D7BBA9" stroke-miterlimit="10" d="M100.4,91c11.9-6.7,0.7,0.2,11.2,8.9c-2.2-7.5-2.8-14,4.6-6.6
			c-1.6,5.2-3.7,9.9-6,14.7c-1.6,0-2.8-1.4-3.8-2.4C107.2,99.6,99.9,101.4,100.4,91z"/>
		<path fill="#74442E" stroke="#74442E" stroke-miterlimit="10" d="M89.7,72.9c-0.9-3.9,0.9-6.4,4.4-8.7c1.9,3.8,3.7,7.6,5.8,11.5
			C99.1,85.2,99.3,88.3,89,84C86.9,77.5,101.5,75.7,89.7,72.9 M98.2,77.5L98,77.4C98,77.4,98,77.6,98.2,77.5z"/>
		<path fill="#DBA076" stroke="#DBA076" stroke-miterlimit="10" d="M99.3,67.7c-3.5-3.6-2.8-9.6-3.4-14.4c3.8-1,3.8-3.5,3.6-6.2
			C112.6,40.7,99.6,61.1,99.3,67.7z"/>
		<path fill="#3F221B" d="M96.6,86.5c5.5-0.7,3.3,10.4,6.2,14.1c-4.9,4.7-5.2-0.1-10-0.6C93.9,95.5,95.3,91.1,96.6,86.5z"/>
		<path fill="#E3D5CA" d="M106,70.1c6.5,3.7,4.3,11.3,2.3,16.9C105.4,85.3,104.7,73.8,106,70.1z"/>
		<path fill="#DDCFC9" d="M114.6,60.3c-5.3,3.5-4.5-0.6-1.9-4.1C113.3,57.4,113.9,58.7,114.6,60.3z"/>
		<path fill="#DDCFC9" d="M110.2,62c-0.7,1.3-1.8,2.7-3.2,4.1C107.7,64.8,108.8,63.4,110.2,62z"/>
		<path fill="#E3D5CA" d="M106.5,87.9c1-2,1.2-0.3,0.1,0.4C106.6,88.3,106.6,88,106.5,87.9z"/>
		<path fill="#C6B5A7" d="M137.5,147.9c14.3,2.2,0.2,11.7-5.5,16.1C126.5,159.3,138.3,157.5,137.5,147.9z"/>
		<path fill="#32231B" d="M130.9,41.6c-1.2,0.3-2.2,0.4-3.2,0.5C128.4,39.4,129.3,39.4,130.9,41.6z"/>
		<path fill="#9D8067" stroke="#9D8067" stroke-miterlimit="10" d="M132.4,164c3.1-2.7,6.2-5.3,9.6-8.1c-1,3.8-3.2,7.3-4.7,11
			C128.8,172.9,128.2,174.9,132.4,164z"/>
		<path fill="#C28156" stroke="#C28156" stroke-width="2" stroke-miterlimit="10" d="M99.2,47.1c0.5,2.7-0.7,6.3-4.5,6.9
			C94.5,49.9,92.8,42.6,99.2,47.1z"/>
		<path fill="#C68152" d="M96.1,59c0.4,1.4,0.4,2.8,0.5,4.5C95.5,62.2,91.4,58.4,96.1,59z"/>
		<path fill="#8A5A33" d="M144.5,91.7c-0.4,0-0.7-0.3-0.1-0.6C144.5,91,144.5,91.5,144.5,91.7z"/>
		<path fill="#D4B69C" d="M122.8,112.8c-1.8,3.3,1.4,7.2,0.3,10.2c-4.7-2.1-5.5,0.6-6,4c-6.1-3.8,1-21.2,3.4-26.6
			C119.1,112.2,123,103.8,122.8,112.8z"/>
		<path fill="#463425" stroke="#463425" stroke-miterlimit="10" d="M123.1,112.8c-4.2-10.6,10.5-22.8,2.8-8.4
			C139.4,105.3,126.2,115.8,123.1,112.8z"/>
		<path fill="#CBB5A1" stroke="#CBB5A1" stroke-width="2" stroke-miterlimit="10" d="M131.1,136.8c3.8,6.7-2.5,5.2-5.8,2
			C122.9,130.3,127.4,130.3,131.1,136.8z"/>
		<path fill="#BDA78F" stroke="#BDA78F" stroke-miterlimit="10" d="M130.4,134.7c-5.2-1.8-8-6.9-6.8-12.6
			C127.1,122.1,128.5,131.5,130.4,134.7z"/>
		<path fill="#5E4832" stroke="#5E4832" stroke-miterlimit="10" d="M124.7,114.2c6.4-5.2,5.6-1.3,3.2,4.7
			C126.6,117.5,125.6,116,124.7,114.2z"/>
		<path fill="#AC9279" d="M123,118.7c-0.5-0.9-0.8-2.1-0.8-3.5C122.7,116.1,122.9,117.3,123,118.7z"/>
		<path fill="#BDA895" stroke="#BDA895" stroke-miterlimit="10" d="M132.1,163.9c-5,20.7-7.1-7.8,0.4-12.6c2.9,0.5,3.7-2.3,5-4.3
			C138.9,157.5,126.4,159.2,132.1,163.9z"/>
		<path fill="#AF977D" stroke="#AF977D" stroke-miterlimit="10" d="M137.3,146.7c-1.1,2.2-1.9,5.3-4.9,4.3
			C131.6,143.5,130.8,137.3,137.3,146.7z"/>
		<path fill="#C09D7F" stroke="#C09D7F" stroke-miterlimit="10" d="M120.6,146c-3.1-5.1-5-1.9-8.8,0.1c1-5-3.2-15.1,3.8-15.7
			C116.4,136,118.9,140.7,120.6,146z"/>
		<path fill="#E1CAB8" stroke="#E1CAB8" stroke-miterlimit="10" d="M106.4,105.9c5.4,3.2,2.9,12.1,4.1,17.1
			C102,125.5,104.5,110.5,106.4,105.9z"/>
		<path fill="#DABFAA" stroke="#DABFAA" stroke-miterlimit="10" d="M110.8,123.2c0.1-2.1-2.5-15.5-0.5-14.9c2.1,3,2.3,5.8,5.1,7.9
			c-1.3,3.4-2.1,8.2,1.7,11C113.8,134.7,111.5,128.1,110.8,123.2z"/>
		<path fill="#D0B095" stroke="#D0B095" stroke-miterlimit="10" d="M111.2,132.8c0.5,3.3,0.7,6.5,0.6,9.9
			C111.5,140.5,105.7,130.6,111.2,132.8z"/>
		<path fill="#E1CAB8" d="M102.9,128c0.4-1.5,1.2-3.1,2.3-4.8C104.8,124.7,104,126.3,102.9,128z"/>
		<path fill="#D4BDA9" d="M98.7,132.9c-0.1-0.8,0.1-1.6,0.6-2.7C99.3,130.9,99.1,131.8,98.7,132.9z"/>
		<path fill="#DAC1AC" stroke="#DAC1AC" stroke-miterlimit="10" d="M115.5,130.4c3.2-3.2,0.8-10.5,7.6-7.4c0,8.1,5.8,21.4,0.1,28
			c-0.7,0.1-1.6-0.4-1.8-1C120.7,143.1,116.4,137.2,115.5,130.4z"/>
		<path fill="#C09D7F" stroke="#C09D7F" stroke-miterlimit="10" d="M121.2,149.9c0.4,0.5,1.4,1.5,1.3,2.2c-5.3,4.6-5.3,1.4-5.8-4.4
			C118.2,148.4,119.6,149.1,121.2,149.9z"/>
		<path fill="#B59F89" stroke="#B59F89" stroke-miterlimit="10" d="M129.5,155c-1.1,2.9-2.1,14.4-5.9,7.2
			C131.6,158.3,117.5,154.3,129.5,155z"/>
		<path fill="#CBB39F" stroke="#CBB39F" stroke-miterlimit="10" d="M129.8,154.8c-2,0.2-3.7,0.2-5.8,0.2c-0.8-0.6-2.7-4.6-0.4-3.7
			c3.9,2.1,5.8-0.6,8.1-2.1C133.6,150.9,130.7,152.9,129.8,154.8z"/>
		<path fill="#BFA48D" d="M122.8,166.9c-0.1-0.8,0-1.7,0.5-2.7C123.4,165,123.2,166,122.8,166.9z"/>
		<path fill="#866E55" stroke="#866E55" stroke-miterlimit="10" d="M106.4,105.6c-2.5,2.4-6.1,6.1-9.8,6.2c1.6-3.7,3.6-7.7,5.6-10.9
			C105.6,100.6,106.9,102.4,106.4,105.6z"/>
		<path fill="#5E3928" d="M99.3,106c-0.7,2.6-2.5,5.4-4.5,1.9C96.1,107.3,97.5,106.6,99.3,106z"/>
		<path fill="#5E3928" d="M101.9,101c-0.4,1-1,2-2.1,3C98.6,103,101.2,101.7,101.9,101z"/>
		<path fill="#5E3928" d="M94.6,100.2c0.2,0,0.4,0.2,0.8,0.6C95.2,100.8,95,100.6,94.6,100.2z"/>
		<path fill="#5E3928" d="M96.7,112c0.3-0.4,1.4-0.1,0.9,0.7C97.2,112.8,97,112.5,96.7,112z"/>
		<path fill="#AB917F" stroke="#AB917F" stroke-width="2" stroke-miterlimit="10" d="M126.5,90c0.9-19.4,6.2-3.6,6,5.6
			C127.6,100.9,128,93.6,126.5,90z"/>
		<path fill="#B7A89E" stroke="#B7A89E" stroke-miterlimit="10" d="M127.6,67.4c7-2.6,1.5,7.1,1.9,11.1
			C128.8,75.2,128.2,71.5,127.6,67.4z"/>
		<path fill="#4F3221" d="M131,70c-0.1-3.1,1.2-2.9,3-0.2C132.9,69.9,132.1,70,131,70z"/>
		<path fill="#635243" stroke="#635243" stroke-width="2" stroke-miterlimit="10" d="M108.5,87c1.2-6.3,2.7-11.5,6.6-2.9
			c-3.3,4.7,2.8,3.1,5.9,3.9c1-2.1-2.2-2.7-3.3-4.4c7.3,1.3,3.8-3.2,3.4-8.5c5.2-0.6,3.5,14.7,3.7,19.3c-4.5-3.8-4-6.5-10.2-3.5
			C112.5,90.6,108.6,89.9,108.5,87z"/>
		<path fill="#B39074" stroke="#B39074" stroke-width="2" stroke-miterlimit="10" d="M122.5,93c4.1,3.7,1.1-1.9,3.7-3
			c1,2.3,1.7,4.6,2.4,7.2c-12.5,5.1-10.1,6.4-12.8,19.6C113.4,108.7,109.4,92.4,122.5,93z"/>
		<path fill="#141915" stroke="#141915" stroke-miterlimit="10" d="M117.5,66c5.3-2.7,6.4-2.3,7.6,3.6c-9.5,2.1-8.4,8.1-10.6,3.4
			C111.5,68.2,113.8,68.5,117.5,66z"/>
		<path fill="#252A25" stroke="#252A25" stroke-miterlimit="10" d="M118.5,72c2.1-0.7,4.1-1.3,6.6-2C125.4,75.5,121.3,77.1,118.5,72
			z"/>
		<path fill="#252A25" stroke="#252A25" stroke-miterlimit="10" d="M112.1,69c3.1,2.9,1.4,4.7-2,5.2C106.5,71.5,108.2,70.2,112.1,69
			z"/>
		<path fill="#4D4C46" stroke="#4D4C46" stroke-miterlimit="10" d="M117.2,66c-4.7,4.4-4.9,1.8-3.4-3.8
			C115.1,63.7,116,64.8,117.2,66z"/>
		<path fill="#613827" stroke="#613827" stroke-miterlimit="10" d="M89.7,73.3c1.5,0.2,3,0.7,5.3,1.6C90.5,80,88.8,80.9,89.7,73.3z"
			/>
		<path fill="#A1826B" d="M108.3,87c2,4,2.1,7.9,3.4,12.8C108.2,96.6,103.4,90.4,108.3,87z"/>
		<path fill="#D4B59A" d="M113,102.1c-0.6,4,0.4,7.7,2.1,11.6C110.2,114.2,110.3,105.2,113,102.1z"/>
		<path fill="#D4B7A7" d="M122.5,92.6c-2.4,0.3-6.2,1.2-7.9-1.3C117.4,89.8,120.4,88.2,122.5,92.6z"/>
		<path fill="#B27850" d="M98.1,77.6c-0.1,0-0.1-0.1-0.1-0.1S98.2,77.5,98.1,77.6z"/>
		<path fill="#22231C" stroke="#22231C" stroke-miterlimit="10" d="M110.2,74.5c4.2-3.4,5.9,0.8,8.3,3.9c0-2.9,0-4.7,0-6.5
			c0,0,0,0,0,0c2.8,3,3.2,8.3,4.1,11.8C115.8,84.6,111.3,81.9,110.2,74.5z"/>
		<path fill="#AC9279" stroke="#AC9279" stroke-miterlimit="10" d="M120.5,100.4c4.9-2.3,2.1,4.1,2,7.2
			C117.8,106.7,121.5,103.1,120.5,100.4z"/>
		<path fill="#D3BDAC" stroke="#D3BDAC" stroke-miterlimit="10" d="M131.5,149c-2.2,1.7-4,4.4-7.7,2.3c3.1-3.5,1.6-7.6,1.7-11.8
			C129,140.5,134.2,144.8,131.5,149z"/>
		<path fill="#BDA895" d="M131.8,142.8c-1.8,0.1-1-1.4,0.3-1.8C132.2,141.5,132.1,142.1,131.8,142.8z"/>
		<path fill="#BDA895" d="M131.6,149.2c-0.1-0.2,0.3-0.3,0.6-0.3C132.8,149.4,132.2,150.4,131.6,149.2z"/>
		<path fill="#D4B69C" d="M113.3,114.2c1.3-0.4,2.5-0.3,2.1,1.5C114.6,115.5,113.8,114.9,113.3,114.2z"/>
		<path fill="#232119" stroke="#232119" stroke-miterlimit="10" d="M115.1,84.2c2.4-0.9,4.5,1.5,6.2,2.6
			C120.5,89.1,111,88.2,115.1,84.2z"/>
		<path fill="#252A25" d="M118.2,72.1c0.3,1.7,0.3,3.5,0.3,6.3C116.4,76.2,116.2,74.4,118.2,72.1z"/>
		<path fill="#252A25" d="M115.5,74.7c-0.3-0.2-0.6-0.6-1-1.4C114.8,73.5,115.1,73.9,115.5,74.7z"/>
		<path fill="#392E26" d="M98.5,35.5c7.3-2.9,6.8,10.8,0.6,11.6C92.2,45.3,92.3,38.3,98.5,35.5z"/>
		<path fill="#100B06" d="M130.5,34c0.8,0.7,1.5,1.3,2.6,2c0.6,4.9,1.8,13-6.2,9.5C123.1,40,121.3,30.5,130.5,34 M131.1,41.3
			c-2-1.7-2.7-2.1-3.4,0.7C128.7,42,129.7,41.9,131.1,41.3"/>
		<path fill="#F9F9FA" d="M100,39.7c0,1.2-1.9,1.2-1.9,0C98.1,38.5,100,38.5,100,39.7z"/>
		<path fill="#F9F9F9" stroke="#FFFFFF" stroke-miterlimit="10" d="M113,67.7c0-0.5-1-0.5-1,0C112,68.2,113,68.2,113,67.7"/>
		<path fill="#F9F9F9" stroke="#FFFFFF" stroke-miterlimit="10" d="M128.1,38.6c0-0.5-1-0.5-1,0C127.1,39.1,128.1,39.1,128.1,38.6z"
			/>
	</g>
</svg>
