<?xml version="1.0" encoding="utf-8"?>
<!-- Generator: Adobe Illustrator 27.7.0, SVG Export Plug-In . SVG Version: 6.00 Build 0)  -->
<svg version="1.2" baseProfile="tiny-ps" id="Layer_1" xmlns="http://www.w3.org/2000/svg" xmlns:xlink="http://www.w3.org/1999/xlink"
	 viewBox="0 0 1000 1000" xml:space="preserve">
	 <title>Saucony</title>
<rect x="-0.1" y="0.1" width="1000" height="1000"/>
<g>
	<g>
		<g>
			<path fill="#FFFFFF" d="M141.7,473.1L141.7,473.1L141.7,473.1z"/>
			<path fill="#FFFFFF" d="M833.7,551.2c-4.3,0-8.7-1.2-13.3-3.8l-2.2-1.2l-10.3,22.4l1.9,0.9c8.7,4.8,16.6,6.8,26.4,6.8
				c18.2,0,28.6-8.8,37.4-31.4l43.8-113.2h-3.3h-27.2c0,0-22.6,64.8-26.3,74.9c-3.9-10.1-28.7-74.9-28.7-74.9h-31.1
				c0,0,44.7,107.4,45.5,109.3C842.5,549.5,838.8,551.2,833.7,551.2z"/>
			<path fill="#FFFFFF" d="M550.2,522.8l1.5-1.6l-18.1-17.7l-1.6,1.8c-8.5,8.7-16.6,12.7-26.1,12.7c-16.9,0-29.7-13.8-29.7-32.1
				v-0.3c0-17.7,12.5-31.6,28.4-31.6c12.3,0,19.9,6,26.1,12.7l1.8,1.8l18.4-19.8l-1.5-1.6c-11.9-13.4-25.7-19.2-44.3-19.2
				c-32.4,0-57.9,25.6-57.9,58.2v0.5c0,32.3,25.3,57.6,57.6,57.6C528.3,543.7,541,533.2,550.2,522.8z"/>
			<path fill="#FFFFFF" d="M616.9,543.4c33.5,0,59.6-25.4,59.6-58v-0.5c0-32.4-25.9-57.9-59.1-57.9c-33.4,0-59.5,25.6-59.5,58.2v0.5
				C557.8,518,583.7,543.4,616.9,543.4z M587.1,484.8c0-18.4,12.5-31.8,29.9-31.8s30.5,13.8,30.5,32.1v0.5
				c0,15.7-10.3,31.6-30.1,31.6c-17.1,0-30.4-14.1-30.4-32.1L587.1,484.8L587.1,484.8z"/>
			<path fill="#FFFFFF" d="M399,430.9l0.2,2.2v61.2c0,12.5-8.1,21.1-19.8,21.1c-11.5,0-20.2-9.1-20.2-21.4v-63.1h-30.7v63.4
				c0,27.7,22.1,45.9,50.6,45.9c8.7,0,16.8-3.2,23.9-6.8c0.6-0.3,1.2-0.6,2.1-1.1l0.3,5.7v2.2h24.5V494v-10.2v-53L399,430.9
				L399,430.9z"/>
			<path fill="#FFFFFF" d="M723.8,540.2l-0.2-2.2v-61.2c0-12.5,8.1-21.2,19.8-21.2c11.5,0,20.2,9.1,20.2,21.4v63h30.7v-63.3
				c0-27.7-22.1-45.9-50.6-45.9c-8.7,0-16.8,3.2-23.7,6.8c-0.6,0.3-1.2,0.6-2.1,1.1l-0.3-5.7v-2.2h-24.5V477v10v53.1L723.8,540.2
				L723.8,540.2z"/>
			<path fill="#FFFFFF" d="M278.9,432.6v4.8c-8.8-5.1-19.3-10.1-30.8-10.1c-34,0-60.6,23.7-60.6,57v0.5c0,32.9,26.4,56.3,60.3,56.3
				c11.5,0,22.1-5.4,31.3-10.5v4.8v2.8h27.4V429.9H279v2.7H278.9z M249.1,517c-18.4,0-33.4-14.7-33.4-32.7s14.8-32.7,33.4-32.7
				c18.4,0,33.4,14.7,33.4,32.7C282.3,502.4,267.5,517,249.1,517z"/>
			<path fill="#FFFFFF" d="M134.2,446.2c7.5,0,17.7,3.6,30.5,10.6l0.9,0.6l11.5-20.8l-0.9-0.6c-12.5-7.8-28.1-12.3-42-12.3
				c-21.2,0-42.7,11.4-42.7,36.7v0.5c0,20.8,19.1,29.1,35.7,34c11.1,3.3,21.8,7.1,21.8,15.4v0.5c0,3.5-1.6,12.8-16.3,12.8
				c-10.3,0-23.4-6-36.8-15L95,508l-12.7,19.4l0.9,0.6c14.4,10.6,31.6,17.7,48.9,17.7c28.7,0,44.7-13.9,44.7-37v-2.4
				c0-14.5-11.5-25.4-35.6-33.4l0,0l0,0l0,0l-2.8-0.9c-11.1-3.6-19.1-6.3-19.1-14.8v-0.5C119.1,451.6,123.9,446.2,134.2,446.2z"/>
		</g>
	</g>
</g>
</svg>
