<?xml version="1.0" encoding="UTF-8"?>
<svg xmlns="http://www.w3.org/2000/svg" baseProfile="tiny-ps" version="1.2" viewBox="0 0 122.4 122.4">
  <title>HyTest Safety Footwear</title>
  <!-- Generator: Adobe Illustrator 28.7.1, SVG Export Plug-In . SVG Version: 1.2.0 Build 142)  -->
  <g>
    <g id="HT-WHyTest_Logo_BW-GreyBlack05_xA0_Image">
      <polygon points="45.7 87.1 67.7 87.1 72.6 68.6 86.2 68.6 81.2 87.1 103.2 87.1 117.1 35.4 95.1 35.4 90.1 54.2 76.5 54.2 81.5 35.4 59.5 35.4 45.7 87.1" fill="#00af4c"/>
      <path d="M61.8,14.8l7.4-2.2,1.1-9.6h-16.8v3.3h-12.7l-9.8,4.8,2.8,9.2h-13l-7,9.6,6.5,6.5-2.8,6.1h-9.4l-2.5,11.6,8.6,3.1v8.5l-8.6,2.8,2.3,11.5h9.6l2.8,6.3-6.3,6.4,6.5,9.8h13.3l-2.8,8.5,10,5.4h12.2l.4,3h16.6v-9.1l-8.7-2.6-4.8,8.5-9.4-5,2.8-8.7-5.9-5.2-7.4,5-6.8-9.2,6.3-6.8-3.3-7.4-8.7,1.1-2.2-11.3,8.3-3.1v-8.3l-8.3-3.1,2.2-11.6,8.7,1.1,3.5-7.4-6.3-6.8,6.8-9.2,7.4,5.2,6.3-5.2-3.1-8.9,9.6-5.2,4.6,8.6ZM81.6,12.7l7.8,2,4.1-8.1h-12v6.1h0ZM113.9,20.5h-13.3l6.6,5.4,6.7-5.4ZM100.6,102.5h13.3l-6.6-5.4-6.7,5.4ZM81.6,110.3v6.5h12l-4.1-8.9-7.9,2.4Z" fill="#00af4c"/>
    </g>
  </g>
</svg>