<?xml version="1.0" encoding="utf-8"?>
<!-- Generator: Adobe Illustrator 27.8.1, SVG Export Plug-In . SVG Version: 6.00 Build 0)  -->
<svg version="1.2" baseProfile="tiny-ps" id="Layer_1" xmlns="http://www.w3.org/2000/svg" xmlns:xlink="http://www.w3.org/1999/xlink"
	 viewBox="0 0 457.3 457.3"  xml:space="preserve">
<title>CAT Footwear</title>
<path fill="#FDB913" d="M0,0h457.3v457.3H0V0z"/>
<g>
	<path fill="#231F20" d="M167.3,285.4c6.6-5.5,7.7-12.2,7.7-18.3v-25.5h-35.6v34.6c0,4.9-4,9-8.9,9s-8.6-4-8.6-9v-98
		c0-4.9,3.7-8.9,8.6-8.9c4.9,0,8.9,4,8.9,8.9V213H175v-36.1c0-20-13-36.4-44.8-36.4c-32.6,0-44.9,16.5-44.9,36.5v102.3
		c0,19.8,15.7,34.8,35.8,34.8h11L167.3,285.4z"/>
	<path fill="#231F20" d="M307.7,289.4V177h-24.6v-33.2H372V177h-24.7v136.8h-10.5L307.7,289.4z"/>
	<path fill="#231F20" d="M261.7,144h-49.6l-28.9,129.7l53.8-43.4l56.1,47L261.7,144z M227.4,221.9l9.6-49l9.5,49H227.4z"/>
	<path fill="#231F20" d="M323.6,314.1L237,241.5l-89.7,72.6H323.6z"/>
	<path fill="#231F20" d="M378.3,151.9c0-3.8,2.8-6.6,6.5-6.6s6.4,2.8,6.4,6.6c0,3.8-2.8,6.6-6.4,6.6S378.3,155.7,378.3,151.9z
		 M384.8,159.8c4.3,0,8-3.4,8-8c0-4.6-3.7-7.9-8-7.9s-8.1,3.4-8.1,7.9S380.5,159.8,384.8,159.8z M383.1,152.5h1.6l2.4,4h1.5l-2.6-4
		c1.3-0.2,2.4-0.9,2.4-2.5c0-1.8-1.1-2.6-3.2-2.6h-3.5v9.1h1.4L383.1,152.5z M383.1,151.3v-2.8h1.9c1,0,2,0.2,2,1.3
		c0,1.4-1,1.5-2.2,1.5H383.1z"/>
</g>
</svg>
