<?xml version="1.0" encoding="utf-8"?>
<!-- Generator: Adobe Illustrator 27.7.0, SVG Export Plug-In . SVG Version: 6.00 Build 0)  -->
<svg version="1.2" baseProfile="tiny-ps" id="uuid-5121ef8e-a9c0-40d8-b99e-6f9a130312db"
	 xmlns="http://www.w3.org/2000/svg" xmlns:xlink="http://www.w3.org/1999/xlink" viewBox="0 0 200 200"
	 xml:space="preserve">
<title>Wolverine</title>
<rect fill="#A41E21" width="200" height="200"/>
<path fill="#FFFFFF" d="M127.3,95.5c0,0-5.4,7.7-6.2,22.4c0,0,21.4,14.6,3.1,42.9c0,0,16.6-8.1,20.2-31.2
	C148.1,106.3,127.3,95.5,127.3,95.5"/>
<path fill="#FFFFFF" d="M99.4,98.5c-9.5,7.2-13.2,23.8-13.2,23.8c22,28.6,2.8,55.2,2.8,55.2c4.8-2.6,21.9-14.9,25.5-41.6
	C118.1,109.3,99.4,98.5,99.4,98.5"/>
<path fill="#FFFFFF" d="M69.8,98c-5.7,3.1-19.4,12.8-17.6,34.3c2.9,21.1,18.6,35.6,18.6,35.6c-9.4-31.9,6.6-45.2,6.6-45.2
	c1-17.3-5.1-25.8-5.1-25.8C71.4,97.2,70.6,97.6,69.8,98"/>
<path fill="#FFFFFF" d="M167.2,87c0,0-3.5-5-10.8-9.1c0,0-9.5-6.3-19-13.5c-2.6-2-9.4-8.2-9.4-8.2c-3.5-3.4-7.8-7.7-9.8-9.6
	C110,37,99,30.9,90.6,30.9c-9.3,0-21,4.4-32.3,20.8C46.9,68,32.1,65.9,26,95.4c-6.1,29.4,13.6,45.1,13.6,45.1
	c-7.4-25.7,8.2-37.3,8.2-37.3c-3.5-10.2-3-26.1,15-41.8c10.6-9.3,23.2-11.1,34.7-8.7c0.3,0.1,4.5,1.3,8.9,3.4
	c0.9,0.5,1.8,0.9,2.8,1.5l0,0c2.5,1.3,5.2,2.9,7.7,4.6c0,0,0,0,0,0c0.6,0.4,1.1,0.8,1.7,1.2c3.2,2.3,10.2,7.1,13.2,8.7l0,0
	c26.3,14.9,23,31.4,21.5,35.8c-0.1,0.4-0.3,0.8-0.4,1.1c9,13.8-2.3,33-2.3,33C179.7,121.5,177.1,99.2,167.2,87"/>
</svg>
