<?xml version="1.0" encoding="UTF-8"?>
<svg xmlns="http://www.w3.org/2000/svg" baseProfile="tiny-ps" version="1.2" viewBox="0 0 935.5 935.5">
  <title>Sweaty Betty</title>
  <g>
    <g id="Layer_2">
      <rect width="935.5" height="935.5" fill="#fff"/>
      <g id="Layer_1-2">
        <path d="M482.7,259.2c0,104.7-85,189.7-189.7,189.7s-189.8-85-189.8-189.7,85-189.7,189.8-189.7,189.7,85,189.7,189.7M482.7,691.7c0,104.8-85,189.8-189.7,189.8s-189.8-85-189.8-189.8,85-189.5,189.8-189.5,189.7,84.9,189.7,189.5M622.4,69.5c-31.2,0-60.5,7.6-86.4,21v337.3c25.9,13.3,55.3,21.1,86.4,21.1,104.7,0,189.6-85,189.6-189.7s-84.9-189.7-189.6-189.7M622.4,502.1c-31.2,0-60.5,7.6-86.4,20.9v337.5c25.9,13.2,55.3,21,86.4,21,104.7,0,189.6-85,189.6-189.8s-84.9-189.5-189.6-189.5" fill="#1c1f21"/>
      </g>
    </g>
  </g>
</svg>