<?xml version="1.0" encoding="UTF-8" standalone="yes"?>
<svg version="1.2" baseProfile="tiny-ps" viewBox="-16 -16 96 96" xml:space="preserve"
  xmlns="http://www.w3.org/2000/svg">
  <title>WebSec B.V.</title>
  <g>
    <rect x="0" y="0" fill="#FFFFFF" width="96" height="96" />
    <path fill="#E52949" d="M47.5,33.2l-9.2,12.4l-3.6-4.9L32,37.2l-6.5-8.8c-1.3-1.7-1.9-3.8-1.9-5.9v-5.8H32h8.4v5.8&#xA;&#x9;&#x9;c0,2.1-0.7,4.2-1.9,5.9l-4.7,6.4c-0.2,0.3-0.2,0.7,0,0.9l1.9,2.6c0.2,0.2,0.5,0.2,0.7,0l5.5-7.4c1.8-2.4,2.8-5.4,2.8-8.4V13&#xA;&#x9;&#x9;c0-0.3-0.2-0.5-0.5-0.5H32H19.8c-0.3,0-0.5,0.2-0.5,0.5v9.5c0,3,1,6,2.8,8.4l7.3,9.8l-3.6,4.9l-9.2-12.4c-0.5-0.6-1.2-1-2-1h-3.1&#xA;&#x9;&#x9;c-0.4,0-0.6,0.4-0.3,0.7l14.3,19.4c0.2,0.2,0.5,0.2,0.7,0l4.5-6.1l0.7-0.9l0.7-0.9l5.9,8c0.2,0.2,0.5,0.2,0.7,0L53,32.9&#xA;&#x9;&#x9;c0.2-0.3,0-0.7-0.3-0.7h-3.1C48.7,32.2,47.9,32.6,47.5,33.2z"/>
  </g>
</svg>