<?xml version="1.0" encoding="UTF-8" standalone="yes"?>
<svg version="1.2" baseProfile="tiny-ps" viewBox="0 0 512 512" xml:space="preserve" xmlns="http://www.w3.org/2000/svg">
  <title>Iko Pte Ltd</title>
  <rect y="0" fill="#FFFFFF" width="512" height="512"/>
  <path fill="#2D4C80" d="M86,171.4v162.5l121.9,62.9V233.3l-0.7-1.3l-48-24.5l-0.9,0.3v133.6H135V196l-1.7-1.6c0,0-37.8-19.4-44.8-23 C87.6,171.2,86.8,171.2,86,171.4z M231.1,396.8l50.2-25.9V297l-50.2-25.9L231.1,396.8L231.1,396.8z M231.1,246.3l56.6,29.2 l65.3-33.8v-70.2l-2.4-0.1l-54.7,27.4l-0.7,1.7l12.4,6.3L231.1,246.3L231.1,246.3z"/>
  <path fill="#616161" d="M279.7,277.9v93.6l73.2,37.7l2.2-2.2v-24.8l-48-24.8v-67.7l-24.1-12.4L279.7,277.9z"/>
  <path fill="#9E9E9E" d="M279.7,277.9L307,292l45.8-23.7l45.8,23.7l27.3-14.1l-73.2-37.7L279.7,277.9z"/>
  <path fill="#434343" d="M352.8,381.1v28.2l73.2-37.8v-93.6L398.7,292v65.4L352.8,381.1z"/>
  <path fill="#FFFFFF" d="M307,292.1l45.8-23.6l45.8,23.6v65.3L352.8,381L307,357.4V292.1L307,292.1z"/>
  <path fill="#FFFFFF" d="M321.3,345.2v-39.1l31.5-16.3l31.5,16.3v39.1l-31.5,16.3L321.3,345.2z"/>
  <path fill="#616161" d="M321.3,345.2v-39.1h3l30.6,14v38.1l-2.2,3.2L321.3,345.2z"/>
  <path fill="#9E9E9E" d="M321.3,306.1l31.5-16.3l31.5,16.3l-31.5,16.2L321.3,306.1z"/>
  <path fill="#434343" d="M352.8,361.4l31.5-16.3v-39l-31.5,16.2V361.4z"/>
  <path fill="#E3742D" d="M86,171.4l121.9-62.8v125.7l-49.7-25.6v-49.5c-7.8,4-15.5,8-23.2,12v25.7L86,171.4z M352.8,171.4 l-121.7-62.8v112.7l52.3-26.9l12.5,6.5L352.8,171.4z"/>
  <path fill="#FFFFFF" d="M134.9,341.3h23.2V159.1c-7.8,4-15.5,8-23.2,12V341.3z"/>
  <path fill="#FFFFFF" d="M207.8,396.8l11.7,6l11.7-6V271.1l48.6,25.1V278l6.5-3.3l-55.2-28.4l76.4-39.4l-24.1-12.5l-52.3,26.9V108.6 l-11.5-6l-11.7,6L207.8,396.8L207.8,396.8z"/>
</svg>