<?xml version="1.0" encoding="utf-8"?>
<!-- Generator: Adobe Illustrator 25.4.1, SVG Export Plug-In . SVG Version: 6.00 Build 0)  -->
<svg version="1.2" baseProfile="tiny-ps" id="Layer_1" xmlns="http://www.w3.org/2000/svg" xmlns:xlink="http://www.w3.org/1999/xlink"
	 viewBox="0 0 500 500" xml:space="preserve">
<title>Gartner</title>
<rect fill="#002856" stroke="#000000" stroke-miterlimit="10" width="500" height="500"/>
<g id="Gartner_Logo_-_New_Gartner_Blue_00000054973332673370395770000016441961464309032874_">
	<g>
		<g>
			<path fill="#FFFFFF" d="M430.09,228.62l-1.05,12.58h-5.14c-8.2,0-12.46,6.57-12.46,12.87v28.41H396.9v-53.86h13.77l0.32,6.72
				c2.89-4.61,7.94-6.72,14.17-6.72L430.09,228.62L430.09,228.62z"/>
			<path fill="#FFFFFF" d="M329.31,282.49h-14.55v-28.48c0-5.96-0.52-13.47-8.9-13.47c-8.08,0-11.3,5.83-11.3,12.62v29.32h-14.54
				v-53.86h13.48l0.31,6.88c2.89-4.61,8.27-8.2,16.21-8.2c14.66,0,19.28,10.46,19.28,21.36L329.31,282.49L329.31,282.49z"/>
			<path fill="#FFFFFF" d="M273.67,269.91l-1.02,12.25c-3.49,0.94-6.59,1.28-10.33,1.28c-13.71,0-17.68-6.29-17.68-18.92v-51.08
				h14.55v15.19h14.48l-1.01,12.58h-13.47v22.22c0,5.07,1.39,7.8,6.59,7.8C268.04,271.22,270.56,270.95,273.67,269.91"/>
			<path fill="#FFFFFF" d="M239.86,228.62l-1.13,12.58h-3.95c-8.18,0-12.26,6.57-12.26,12.87v28.41h-14.55v-53.86h13.78l0.29,6.72
				c2.9-4.61,7.96-6.72,14.2-6.72L239.86,228.62L239.86,228.62z"/>
			<path fill="#FFFFFF" d="M142.33,276.52c-9.87,5.28-19.72,8.33-32.74,7.94c-24.14-0.73-41.55-15.72-41.55-41.03
				c0-25.21,17.58-41.31,41.56-41.69c12.15-0.19,23.03,2.9,31.53,10.4l-10.24,10.36c-5.26-4.49-13-7.11-22.25-6.69
				c-15.09,0.7-24.18,11.67-24.38,26.75c-0.2,16.33,9.82,27.6,25.48,28.01c7.37,0.18,12.65-0.81,17.21-2.85v-16.7h-16.27l1.1-13.7
				h30.56v39.2H142.33z"/>
			<path fill="#FFFFFF" d="M375.84,249.41c-0.45-6.81-5.55-11.11-12.57-10.83c-7.07,0.27-11.77,4.87-12.75,10.83H375.84z
				 M390.41,260.68h-39.89c1.14,6.88,6.55,11.02,13.29,11.21c6.55,0.18,10.21-1.8,15-6.65l9.49,7.24
				c-6.75,8.31-14.84,11.34-24.06,11.34c-16.22,0-28.37-11.34-28.37-28.25c0-16.89,12.09-28.24,27.77-28.24
				c17.27,0,26.77,10.46,26.77,29.04V260.68z"/>
			<path fill="#FFFFFF" d="M184.82,258.99h-2.02c-6.89,0.02-18.98,0.35-18.94,7.56c0.07,10.14,20.96,6.92,20.96-5.32V258.99z
				 M198.82,247.22v35.27h-12.83l-0.32-5.31c-3.93,4.88-10.32,6.63-16.9,6.63c-9.91,0-19.26-4.88-19.46-16.26
				c-0.3-17.88,20.12-19.15,32.94-19.15h2.56v-0.71c0-5.92-3.91-9.11-11.28-9.11c-5.29,0-10.51,2.12-14.37,5.74l-8.39-8.53
				c7.62-6.18,15.55-8.48,24-8.48C191.46,227.31,198.82,235.02,198.82,247.22"/>
			<path fill="#FFFFFF" d="M423.11,275.72v-2.58h1.73c0.88,0,1.82,0.19,1.82,1.22c0,1.28-0.96,1.35-2.03,1.35L423.11,275.72
				L423.11,275.72z M423.11,276.8h1.46l2.2,3.62h1.42l-2.38-3.68c1.23-0.15,2.17-0.81,2.17-2.3c0-1.65-0.98-2.38-2.96-2.38h-3.17
				v8.35h1.26L423.11,276.8L423.11,276.8z M424.64,283.49c3.95,0,7.32-3.07,7.32-7.26c0-4.16-3.37-7.22-7.32-7.22
				c-3.98,0-7.35,3.06-7.35,7.22C417.29,280.42,420.66,283.49,424.64,283.49 M418.74,276.22c0-3.43,2.59-6.01,5.9-6.01
				c3.28,0,5.87,2.58,5.87,6.01c0,3.49-2.59,6.06-5.87,6.06C421.33,282.29,418.74,279.71,418.74,276.22"/>
		</g>
	</g>
</g>
</svg>
