<?xml version="1.0" encoding="UTF-8" standalone="yes"?>
<svg version="1.2" baseProfile="tiny-ps" viewBox="0 0 430 430" xml:space="preserve" xmlns="http://www.w3.org/2000/svg">
  <title>bimi-svg-tiny-12-ps</title>
  <path fill-rule="evenodd" fill="#0050FF" d="M126.3,215c0,49.9,36.2,91.3,88.9,91.3s88.5-41.4,88.5-91.3s-35.6-91.3-88.5-91.3&#xA;&#x9;C161.8,123.7,126.3,162,126.3,215L126.3,215L126.3,215z M160.4,215c0-33.2,20.2-65.3,54.7-65.3s54.4,32.1,54.4,65.3&#xA;&#x9;s-16.7,65.3-54.4,65.3S160.4,246.1,160.4,215L160.4,215L160.4,215z"/>
  <path fill="#0050FF" d="M351.5,345.4v-12.2H320c12.6-12.4,29.1-27.4,29.1-43.8s-9.5-22.6-24.2-22.6s-15.9,2-22.9,5.5l1.2,12.8&#xA;&#x9;c5.1-3.3,11.3-6.2,17.8-6.2s12.6,3.3,12.6,10.4c0,14.2-26.2,36.1-33.4,43v12.9h51.3V345.4L351.5,345.4z"/>
</svg>
