<?xml version="1.0" encoding="utf-8"?>
<svg version="1.2" baseProfile="tiny-ps" xmlns="http://www.w3.org/2000/svg" viewBox="0 0 558 558" xml:space="preserve">
    <title>Members Login</title>
    <g transform="translate(0.000000,558.000000) scale(0.100000,-0.100000)" fill="#c2165c" stroke="none">
        <path d="M2520 4885 c-151 -21 -246 -43 -390 -91 -324 -107 -589 -271 -831 -513 -343 -343 -550 -771 -609 -1261 -6 -52 -10 -472 -10 -1110 l0 -1025 24 -50 c29 -60 76 -107 136 -134 44 -20 61 -21 1070 -21 639 0 1057 4 1110 10 236 29 475 98 680 196 227 109 399 231 581 413 242 242 405 506 513 831 74 223 106 422 106 660 0 238 -32 437 -106 660 -108 325 -271 589 -513 831 -343 343 -771 550 -1261 609 -114 14 -384 11 -500 -5z m430 -745 c359 -43 705 -238 914 -517 230 -307 322 -653 271 -1023 -74 -540 -483 -996 -1014 -1130 -271 -67 -570 -48 -824 54 -118 48 -156 68 -272 144 -307 202 -529 558 -580 932 -49 355 34 688 245 988 169 241 459 440 753 518 148 39 349 53 507 34z"/>
        <path d="M2665 3938 c-282 -28 -575 -185 -758 -406 -294 -356 -354 -831 -157 -1237 65 -132 97 -184 103 -165 3 8 17 53 31 100 56 187 172 317 318 356 84 22 115 18 158 -18 59 -51 144 -99 223 -126 63 -23 88 -26 207 -26 119 0 144 3 207 26 79 27 164 75 223 126 43 36 74 40 158 18 146 -39 262 -169 318 -356 14 -47 28 -92 31 -100 6 -19 38 33 103 165 62 128 97 252 109 390 57 634 -409 1193 -1043 1254 -60 6 -117 10 -125 10 -9 -1 -56 -6 -106 -11z m275 -293 c135 -36 278 -141 348 -258 61 -101 82 -178 82 -303 0 -178 -45 -289 -168 -414 -117 -117 -250 -173 -412 -173 -162 0 -295 56 -412 173 -123 125 -168 236 -168 414 0 125 21 202 82 303 69 114 212 221 344 258 67 18 236 18 304 0z"/>
    </g>
</svg>
