<?xml version="1.0" encoding="utf-8"?>
<!-- Generator: Adobe Illustrator 28.1.0, SVG Export Plug-In . SVG Version: 6.00 Build 0)  -->
<svg version="1.2" baseProfile="tiny-ps" id="Layer_1" xmlns="http://www.w3.org/2000/svg" xmlns:xlink="http://www.w3.org/1999/xlink" viewBox="0 0 421.6 421.6" xml:space="preserve">
  <title>Zocdoc</title>
	<g>
		<rect x="-0.6" y="-0.6" fill="#FEED5A" width="422.2" height="422.2"/>
		<path fill="#333333" d="M147.7,222.1c3.1,0,6.2-0.9,8.8-2.7c2.6-1.7,4.6-4.2,5.8-7.1s1.5-6.1,0.9-9.1s-2.1-5.9-4.3-8.1
			s-5-3.7-8.1-4.3s-6.2-0.3-9.1,0.9c-2.9,1.2-5.4,3.2-7.1,5.8s-2.7,5.6-2.7,8.8c0,4.2,1.7,8.2,4.6,11.2
			C139.5,220.5,143.5,222.1,147.7,222.1z"/>
		<path fill="#333333" d="M273.9,222.1c3.1,0,6.2-0.9,8.8-2.7c2.6-1.7,4.6-4.2,5.8-7.1s1.5-6.1,0.9-9.1c-0.6-3.1-2.1-5.9-4.3-8.1
			c-2.2-2.2-5-3.7-8.1-4.3s-6.2-0.3-9.1,0.9c-2.9,1.2-5.4,3.2-7.1,5.8c-1.7,2.6-2.7,5.6-2.7,8.8c0,4.2,1.7,8.2,4.6,11.2
			C265.7,220.5,269.7,222.1,273.9,222.1z"/>
		<path fill="#333333" d="M210.9,316.1c-20.5,0-40.8-3.9-59.7-11.7l-8.8-3.7v-15.2l106.1-157.3H143.1v-22.8H279v18.4L169.1,286.8
			c13.5,4.4,27.6,6.6,41.8,6.6c23.7,0,47-6,67.7-17.5l11,19.9C265.5,309.1,238.4,316.1,210.9,316.1z"/>
	</g>
</svg>
