<?xml version="1.0" encoding="UTF-8"?><svg xmlns="http://www.w3.org/2000/svg" xmlns:xlink="http://www.w3.org/1999/xlink" xmlns:serif="http://www.serif.com/" width="100%" height="100%" viewBox="0 0 1200 1200" version="1.2" xml:space="preserve" baseProfile="tiny-ps" fill-rule="evenodd" stroke-linecap="round" stroke-linejoin="round" stroke-miterlimit="10"><title>CoolWorks - Jobs in Great Places</title><g id="coolworks-badge-logo"><path d="M404.824,418.359c-5.182,-0.516 -20.679,-6.163 -29.439,-4.456m-5.258,-0.366c-0.387,-0.099 -1.725,0.038 -1.791,0.084m-6.048,0.435c0.334,-0.041 -0.668,0.082 -1.002,0.123m-5.926,1.146c0.376,-0.082 -0.753,0.164 -1.129,0.245m-4.797,1.208c-10.636,3.461 -20.318,1.019 -36.107,-11.229m-4.768,-3.556c0.293,0.206 -0.585,-0.412 -0.878,-0.619m-5.047,-3.003c0.293,0.206 -0.585,-0.413 -0.878,-0.619m4.201,40.527c0.084,0.329 -0.167,-0.658 -0.251,-0.986m486.066,-5.48c-0.188,0.495 0.375,-0.989 0.563,-1.483m1.223,-5.106c-0.093,0.65 0.472,-1.575 0.472,-1.575m2.067,-4.922c-0.252,0.494 0.502,-0.989 0.753,-1.484m2.632,-4.455c7.51,-9.398 9.241,-9.237 15.423,-35.355m2.346,-4.92c-0.251,0.493 0.502,-0.986 0.753,-1.479m2.257,-4.922c-0.188,0.494 0.375,-0.989 0.563,-1.484m2.257,-4.829c-0.188,0.433 0.375,-0.867 0.563,-1.3m2.354,-4.452c3.65,-8.635 10.799,-18.027 10.799,-18.027m-533.066,94.77c-0.059,-6.438 -6.773,-12.105 -6.77,-15.777c0.012,-11.021 3.861,-16.498 -0.844,-26.443c-2.351,-4.968 -9.707,-11.064 -10.621,-11.853" fill="none" stroke="#734585" stroke-width="2.6px"></path><path d="M446.121,907.194c24.122,-10.501 48.756,26.328 58.897,17.381m185.098,7.356c2.061,-1.175 8.27,0.367 8.377,2.022m-6.296,-7.865c3.302,-0.796 12.499,2.274 13.56,4.399m-10.638,-16.133c6.851,0.871 18.58,4.493 22.549,10.419m-21.26,-20.861c12.293,6.092 22.693,1.1 30.959,16.181m-30.837,-26.634c8.576,-0.044 34.111,12.332 40.334,22.029m-346.789,-36.152c18.477,-32.994 -31.465,-20.963 -29.625,-36.146c2.446,-20.191 41.337,-44.299 52.84,-101.801m273.029,113.438c16.543,11.691 26.154,10.191 32.946,13.983c6.702,3.741 38.659,28.64 44.507,33.505m-198.393,-163.049c-28.729,-8.832 -57.961,34.825 -48.655,52.981c2.009,3.919 23.636,-1.994 31.309,-3.616c56.576,-11.959 68.775,-2.642 83.504,-6.405c13.481,-3.445 -50.827,-38.247 -66.158,-42.96Zm201.885,0.672c19.889,39.313 -2.185,23.28 4.762,41.448c12.672,33.142 23.72,70.993 40.085,96.83m-29.91,-137.479c7.568,15.044 16.093,24.823 12.948,30.29c-2.255,3.919 -8.051,10.307 -7.044,17.604c2.896,20.968 24.796,71.699 34.228,84.422m-24.089,-131.385c23.662,30.684 10.708,31.14 4.811,50.579c-4.552,15.005 24.972,71.261 28.896,75.928m-92.644,-129.554c2.424,6.007 6.38,9.363 5.068,16.041c-4.436,22.59 -0.24,20.602 12.472,35.868c10.909,13.1 11.258,31.903 15.458,47.369c2.908,10.707 12.998,20.287 13.749,28.681c0.398,4.444 -4.711,6.854 -8.109,4.731c-14.153,-8.844 -28.138,-23.2 -49.649,-38.695c-8.226,-5.926 -18.713,-6.737 -27.365,-11.695c-15.191,-8.706 -28.202,-24.526 -46.544,-26.173c-36.256,-3.255 -71.556,-3.429 -122.713,6.405c-8.083,1.554 -20.81,12.208 -26.931,3.08c-7.804,-11.636 -4.897,-10.331 -15.669,-24.233c-8.007,-10.332 2.703,-41.62 20.337,-41.348c7.667,0.118 11.402,0.979 18.612,-1.884m278.578,5.415c15.534,16.801 18.183,27.695 11.899,36.617c-16.68,23.685 -6.38,44.231 17.984,87.07m-486.934,-7.108c-19.427,-27.838 31.211,-39.077 54.037,-116.838m412.061,0.839c8.036,10.907 18.974,22.293 11.417,35.74c-16.586,29.51 -12.983,33.077 14.34,84.859m-16.594,-119.986c10.713,17.617 17.609,23.128 1.786,52.357c-5.749,10.618 -3.607,29.057 20.784,64.578m-395.083,-120.855c-6.035,59.564 -17.142,48.177 -19.929,68.66c-1.256,9.232 21.596,14.601 23.415,15.593c4.817,2.628 2.859,11.951 8.186,13.638c30.512,9.667 40.06,14.937 53.635,7.021m350.377,-97.772c2.705,24.602 -39.97,77.41 -1.511,103.92m-539.231,-3.218c5.29,-27.059 24.752,-20.175 60.56,-85.673c2.012,-3.68 3.908,-16.51 4.359,-19.044m333.596,1.783c-9.465,9.341 -10.214,24.417 -27.38,40.227c-3.323,3.06 -14.468,9.297 -8.444,15.177c12.157,11.863 21.53,15.073 38.365,23.102c11.633,5.548 13.539,11.505 24.259,20.325c0.957,0.787 14.849,13.123 11.85,-0c-2.191,-9.585 -0.549,-36.476 -12.13,-48.999c-5.611,-6.067 -13.377,-10.784 -16.645,-18.376c-4.094,-9.511 -0.771,-18.474 -1.13,-24.217c-0.286,-4.58 -4.015,-11.906 -8.745,-7.239Zm167.962,4.425c-0.29,23.282 -13.26,26.365 -11.953,36.777c0.856,6.82 3.52,6.155 3.67,13.069c0.317,14.499 -5.825,29.925 12.124,35.372m-428.926,-95.254c-0.494,14.494 -8.681,48.555 -4.229,56.954c3.117,5.88 10.809,7.833 15.641,12.409c3.1,2.937 4.85,7.048 7.62,10.298c7.595,8.908 18.45,13.669 47.109,-1.668c6.228,-3.332 10.904,-2.692 17.737,-3.366m-264.989,13.291c8.08,-11.655 43.419,-37.623 54.015,-56.692c5.774,-10.39 14.7,-13.518 15.755,-25.218m364.52,23.545c-7.152,16.213 -13.899,18.345 -16.475,21.63c-7.314,9.325 8.889,15.868 14.812,19c8.156,4.314 30.56,20.603 31.568,18.114c3.958,-9.768 4.726,-25.711 -22.005,-43.433c-4.195,-2.781 -5.815,-20.037 -7.9,-15.311Zm-446.19,52.136c16.759,-24.036 28.782,-25.743 42.215,-39.05c8.125,-8.049 9.17,-15.805 26.405,-35.747m375.875,47.16c-1.992,2.977 7.371,6.287 15.16,14.963c10.97,12.217 8.99,-3.352 6.912,-5.91c-4.347,-5.347 -13.16,-4.083 -16.384,-5.946c-2.464,-1.425 -4.175,-5.368 -5.688,-3.107Zm-97.762,-57.054c40.71,30.33 51.361,52.914 78.586,1.447m228.999,15.063c13.781,7.282 17.348,22.62 17.826,35.595m-666.366,-37.435c-5.028,12.042 -18.329,13.574 -28.549,25.102m404.692,-39.377c3.517,4.203 16.475,17.075 25.884,0.554m263.082,-296.366c-15.328,-0.533 -26.928,-5.082 -42.759,2.25m-604.447,-1.209c-2.655,-2.384 -12.392,-14.084 -18.16,-13.453c-8.956,0.98 -11.457,10.605 -12.128,15.839m679.422,-25.98c-10.142,-2.461 -17.862,-6.871 -28.593,-4.436c-22.155,5.027 -41.755,16.851 -66.947,25.559m-525.433,0.464c1.494,-14.968 25.516,-17.392 24.992,-29.758c-0.683,-16.115 -8.451,-19.814 -8.099,-41.365c0.124,-7.611 26.036,-38.403 48.397,-41.277c20.331,-2.613 30.083,-5.105 31.368,-21.016m-61.925,131.219c7.372,-11.292 8.673,-10.184 18.27,-21.043c5.41,-6.122 -3.838,-18.947 -4.795,-29.507c-2.36,-26.034 39.964,-36.972 62.058,-42.599c19.783,-5.039 5.725,-28.53 4.107,-46.817m-188.302,130.6c1.009,-20.292 6.09,-24.62 11.88,-28.78c6.777,-4.87 14.8,-7.298 22.523,-1.549c7.453,5.549 15.465,16.877 18.62,-5.289c0.458,-3.218 -2.494,-19.594 -3.836,-24.456m104.914,67.031c13.983,-21.315 8.079,-26.305 6.68,-36.728c-2.116,-15.759 21.974,-18.415 31.594,-21.993c2.401,-0.892 30.731,-10.222 35.391,-21.528c6.034,-14.641 -23.585,-49.544 -4.635,-63.775c16.061,-12.061 109.882,-18.863 123.272,-15.758c9.859,2.286 14.479,-8.318 15.505,-44.125m-182.766,202.804c3.374,-9.249 4.346,-13.742 4.147,-23.643c-0.254,-12.59 24.531,-21.673 39.276,-29.8c6.367,-3.51 20.554,-3.964 23.385,-12.465c4.469,-13.418 -5.488,-38.232 2.882,-50.368c12.043,-17.461 51.432,-25.429 79.143,-17.904c12.64,3.433 29.601,-3.101 37.803,-9.749c15.857,-12.854 13.934,-43.037 14.302,-52.27m131.112,62.432c-3.577,14.382 -7.073,28.467 -8.221,43.296c-1.808,23.361 5.139,45.517 6.352,90.817m-4.161,-137.082c-6.29,22.461 -9.261,23.652 -10.936,49.048c-3.479,52.763 3.732,61.456 -1.683,87.349m5.627,-139.827c-5.341,20.336 -11.401,41.043 -12.974,62.223c-2.343,31.542 2.632,59.135 -3.756,77.19m-282.152,-0.019c-1.345,4.026 3.231,-14.568 5.508,-18.15c11.256,-17.711 45.351,-20.895 57.688,-37.12c9.18,-12.073 -1.844,-32.105 8.504,-44.464c20.119,-24.03 45.031,-10.451 53.23,-11.623c16.909,-2.419 51.397,-10.722 59.024,-18.69c11.444,-11.956 14.918,-40.622 16.781,-56.176m-191.893,185.917c2.054,-6.986 3.855,-13.417 9.355,-18.678c11.804,-11.291 29.665,-10.149 42.799,-19.139c19.433,-13.301 5.295,-44.092 23.21,-58.533c14.014,-11.297 38.491,5.53 107.198,-27.282c11.766,-5.619 6.592,-22.104 21.255,-56.731m71.377,34.031c-6.024,22.576 -12.098,48.47 -14.054,72.438c-2.042,25.031 0.166,49.102 -7.189,73.573m-169.6,-1.6c18.486,-10.948 17.405,-29.552 20.073,-35.409c4.207,-9.235 14.066,-35.381 53.224,-19.492c26.501,10.753 31.61,7.042 47.067,12.869c14.297,5.39 6.582,31.935 5.451,42.52m-93.677,-0.745c13.668,-15.057 23.521,-2.385 42.585,0.063m176.321,-114.51c-2.782,72.558 64.208,73.716 109.369,55.971m-363.241,-123.234c45.06,-1.536 44.251,-13.36 44.393,-17.838m359.875,198.142c-9.811,-1.515 -18.556,-3.598 -28.457,-2.847c-12.836,0.973 -21.286,10.627 -43.11,14.336m-67.088,-118.637c0,0.001 0.001,0.002 0.001,0.002c2.894,26.651 14.53,32.057 17.948,33.308c28.779,10.528 27.151,1.899 49.649,13.644c4.029,2.103 14.305,-2.411 17.768,-3.262m-122.904,-62.422c-9.146,34.49 -7.037,46.52 -0.652,66.799c9.457,30.036 -2.545,36.847 15.936,65.176m0.605,-124.087c-6.134,100.491 52.06,105.125 130.35,66.706m29.278,28.194c-7.364,-2.504 -12.246,-6.146 -21.856,-5.09c-21.811,2.396 -36.945,16.257 -55.574,19.491c-13.789,2.394 -25.528,11.479 -38.292,17.218m-348.98,-5.575c4.341,-9.111 15.578,-10.324 23.958,-12.688c11.427,-3.224 12.102,-1.97 21.456,-9.247c19.915,-15.491 15.785,-36.745 22.497,-45.794c15.382,-20.738 79.571,-26.772 106.815,-30.212c18.637,-2.354 21.079,-4.756 33.128,-21.986c1.824,-2.608 8.544,-3.956 8.762,-0.067c1.848,32.97 -0.525,43.256 -2.557,53.781c-3.436,17.803 3.669,29.508 -7.578,65.777m-125.523,-1.024c11.77,-14.417 9.69,-27.757 24.545,-33.015c11.769,-4.166 52.289,11.82 69.347,16.985c9.24,2.797 5.818,13.517 5.904,16.519m-242.569,3.206c8.667,-14.434 -0.297,-29.312 12.799,-41.999c10.544,-10.215 54.935,-18.301 58.846,-35.086c3.581,-15.367 -16.879,-41.73 -1.425,-54.261c15.447,-12.527 68.768,-18.652 87.153,-18.378c10.15,0.152 25.584,6.239 34.595,-3.143c13.325,-13.873 12.295,-47.109 12.309,-47.955m-153.372,198.911c7.633,-21.123 34.902,-17.22 49.459,-30.492c15.994,-14.583 11.877,-44.804 22.898,-53.863c10.27,-8.443 66.561,-9.557 107.758,-30.341c19.195,-9.684 10.44,-43.216 35.869,-44.07c14.151,-0.476 28.835,12.514 27.04,25.97c-2.82,21.138 -4.47,21.873 -4.795,46.492c-0.129,9.759 -5.542,11.386 -5.36,21.159c0.413,22.116 3.483,29.277 -6.247,64.618m29.111,-150.327c-2.693,21.981 -6.675,21.356 -7.635,43.397c-1.176,27.01 -6.335,29.617 -6.77,40.92c-0.769,20.023 2.532,30.632 -6.082,66.248m-215.374,-158.667c79.602,-10.671 101.57,-4.211 109.231,-15.985c6.037,-9.278 8.507,-25.044 5.06,-27.656m-211.163,205.743c2.14,-5.958 7.453,-11.435 10.278,-17.62c3.37,-7.376 -1.77,-16.128 -2.26,-24.223c-1.307,-21.588 23.826,-19.891 40.339,-26.724c17.032,-7.049 25.084,-8.505 28.215,-23.942c1.793,-8.835 -8.117,-21.566 -8.744,-55.568m-117.956,150.937c5.461,-7.295 20.519,-16.307 23.097,-28.378c1.365,-6.397 -8.802,-18.942 -7.69,-32.638c0.646,-7.945 20.859,-29.315 26.127,-31.419c10.582,-4.226 29.484,-7.03 40.188,-11.232c12.887,-5.057 9.255,-21.721 7.3,-33.086m-118.711,138.749c0.093,-6.056 -0.403,-14.08 5.746,-17.744c3.724,-2.218 13.005,-2.948 13.82,-9.745c3.498,-29.184 -6.693,-42.375 -4.23,-51.5c1.736,-6.433 8.115,-9.845 12.669,-14.046m-51.684,26.771c0.501,1.372 3.895,6.33 2.539,8.354c-2.15,3.208 -11.139,4.482 -18.383,-0.059m572.97,362.713c15.403,16.101 3.002,29.381 -2.675,46.549c-7.292,22.055 -2.867,46.395 13.007,63.235m23.017,-107.114c1.899,14.912 -11.246,26.57 -13.492,33.509c-3.32,10.257 0.379,13.394 -1.41,24.133c-3.669,22.015 -5.542,33.161 12.011,39.103m-118.423,-104.871c15.197,32.897 -2.628,21.324 3.443,38.205c2.619,7.284 8.794,13.103 10.72,20.601c8.235,32.063 18.064,56.652 32.679,82.582m-32.293,-140.643c24.617,35.202 1.595,27.442 6.104,45.256c5.605,22.146 25.527,73.416 36.857,90.011m-129.463,61.562c1.794,-0.233 3.587,-0.465 5.381,-0.697m-0.922,-66.922c32.882,14.652 44.838,17.099 62.816,37.033m-79.043,-67.559c15.845,10.974 32.78,13.637 47.388,21.589c17.074,9.295 34.535,25.027 49.851,37.001m-186.275,-161.795c69.944,37.113 51.327,48.914 75.492,53.399c26.369,4.895 38.141,-21.719 55.56,-51.409m-76.564,-1.865c15.305,18.045 31.526,35.542 51.67,1.053m-33.886,85.513c25.658,7.479 36.097,17.804 59.918,25.447c22.189,7.119 42.848,31.759 61.19,46.132m-218.685,-143.296c-26.981,3.794 -35.463,30.405 -23.719,29.462c52.105,-4.183 58.934,-4.638 59.843,-11.794c0.173,-1.36 -24.909,-19.244 -36.124,-17.668Zm-118.695,-10.882c-6.047,49.679 -23.539,57.207 -25.09,73.801c-1.146,12.265 18.578,11.899 24.825,18.376c4.13,4.282 0.653,12.128 5.925,15.593c6.21,4.081 27.924,6.122 27.93,6.123c10.303,2.647 20.872,10.646 32.08,6.607m-48.642,-121.27c-2.317,51.005 -11.123,49.023 -11.368,61.766c-0.142,7.357 19.662,14.482 20.029,14.754c4.686,3.472 4.507,11.514 10.155,13.644c19.559,7.378 31.75,12.59 54.888,-3.074m-110.561,-85.339c0.377,34.541 -37.329,70.518 -37.7,92.587c-0.194,11.54 22.045,7.014 26.799,16.985c4.542,9.524 -10.795,41.351 5.64,36.923c58.904,-15.87 63.714,5.25 83.256,4.404m-70.938,7.645c16.445,-4.782 26.891,-10.033 42.971,-3.038c0.547,0.238 20.408,14.52 28.313,11.172m-132.545,-163.543c-0.8,4.021 -0.148,8.637 -2.402,12.062c-34.361,52.223 -43.24,46.065 -68.002,76.411m28.722,-85.627c-18.274,12.908 -14.099,12.403 -20.524,23.136c-10.193,17.028 -31.363,18.763 -40.905,45.256m-11.825,-54.577c2.283,-0.382 6.246,-7.042 5.2,-8.337" fill="none" stroke="#734585" stroke-width="1.2px"></path><path d="M695.293,881.797c14.925,2.357 31.627,10.216 50.793,29.197m-226.084,-651.441c21.282,0.239 40.355,-2.919 56.792,-3.094c17.816,-0.19 19.094,-22.505 19.412,-26.802m-163.455,510.723c-2.976,12.128 -3.563,26.658 -9.406,38.229c-10.506,20.805 -27.48,41.456 -16.08,50.108c5.243,3.979 17.1,5.421 21.154,11.695c5.011,7.754 -2.989,18.956 5.36,25.057c5.21,3.807 16.243,-1.205 20.875,-1.673c23.319,-2.358 38.364,16.609 48.805,12.661m286.803,-135.262c4.706,7.347 14.905,17.403 14.308,27.65c-0.538,9.225 -8.325,14.049 -8.85,23.96c-0.514,9.7 10.847,41.575 31.5,77.772m80.94,-120.461c1.465,13.275 -0.93,26.848 2.093,39.906c3.915,16.906 17.225,13.512 17.537,28.602m-629.909,-69.541c-3.556,5.281 -5.486,11.232 -9.944,15.882c-6.971,7.271 -15.766,12.759 -23.415,19.21c-4.602,3.881 -7.022,9.542 -9.882,14.649m197.283,-506.566c1.1,8.438 1.205,17.068 3.302,25.315c7.144,28.097 2.041,34.79 -13.982,38.265c-18.431,3.996 -36.707,6.537 -49.213,22.429c-8.784,11.162 3.954,25.514 2.261,37.861c-1.17,8.531 -11.734,12.856 -15.403,20.097m119.375,-4.699c7.729,-5.511 17.855,0.261 25.511,-4.261c28.192,-16.653 28.126,-18.524 31.309,-39.253c2.053,-13.372 13.413,-22.112 25.395,-28.121c27.299,-13.692 55.829,-4.54 84.064,0.281c4.972,0.85 16.383,-0.59 19.464,5.848c5.983,12.5 3.159,37.361 -3.837,65.302m254.909,-44.143c-20.424,-2.283 -104.946,39.592 -114.534,34.244c-13.225,-7.377 -13.817,-2.691 -20.309,-8.078c-6.264,-5.197 -9.972,-13.004 -13.54,-20.319c-3.809,-7.812 -2.939,-20.577 -4.794,-28.679c-5.075,-22.155 -6.846,-27.732 -4.112,-57.995m-335.051,126.909c4.649,-9.569 2.524,-21.439 11.071,-29.661c10.456,-10.06 38.858,-11.816 53.04,-27.84c13.313,-15.043 -5.479,-44.145 14.384,-57.629c36.908,-25.054 120.975,24.957 122.069,-76.213m-327.709,119.128c16.476,52.58 0.851,46.606 -6.502,53.415c-2.029,1.878 -2.806,12.63 -7.049,13.638c-9.232,2.193 -34.001,-51.35 -44.352,16.614m467.41,-12.148c8.056,-33.68 3.189,-53.642 5.171,-71.277c2.523,-22.458 8.301,-49.467 14.453,-71.208m-363.725,453.17c-2.854,17.296 -10.673,27.058 -20.563,42.04c-6.875,10.415 -8.09,13.219 -16.925,21.711c-12.028,11.562 -22.502,18.199 -32.295,32.007m438.498,-99.924c9.64,18.046 -0.764,19.023 2.561,33.954c2.484,11.152 14.013,17.287 17.496,28.115c4.21,13.089 4.29,22.394 9.024,35.355c7.399,20.253 13.36,27.716 21.599,47.598m34.059,-140.059c3.604,5.962 10.906,14.216 10.916,22.034c0.017,13.531 -15.435,29.055 -14.105,47.883c0.959,13.563 10.367,30.829 20.138,43.577m-141.835,-120.063c-8.894,19.12 -17.717,33.269 -31.171,38.731c-21.537,8.743 -32.146,-12.292 -48.269,-24.33c-8.09,-6.041 -17.428,-10.256 -25.616,-16.164m-126.28,2.655c-1.406,21.264 -11.118,38.165 -3.821,46.638c5.362,6.228 13.952,10.064 21.999,25.891c9.195,18.085 31.733,-2.554 46.264,-4.456c59.639,-7.804 77.915,-5.424 127.228,9.464c9.399,2.837 16.805,10.364 25.955,13.92c24.422,9.49 32.932,7.642 91.604,60.746" fill="none" stroke="#734585" stroke-width="2.8px"></path><path d="M233.498,707.279c-0,-0 -0.707,31.978 -0.707,36.55c0,16.739 -3.795,39.609 -1.906,51.158c5.683,34.74 41.351,49.096 68.883,63.041c33.381,16.908 200.727,100.593 240.031,118.601c44.614,20.441 82.404,17.982 124.622,-1.835c39.015,-18.314 198.701,-97.77 230.526,-113.887c32.374,-16.396 79.556,-35.689 75.109,-80.3c-0.044,-0.478 -1.614,-17.89 -2.12,-24.691c-0.172,-2.282 -0.867,-47.391 -0.867,-47.391l22.21,1.49c0.238,10.386 0.63,31.183 0.547,36.819l2.373,31.865c0.435,4.937 -2.212,26.734 -4.03,32.45c-12.408,39.006 -55.621,55.764 -88.676,72.439c-31.014,15.646 -186.526,92.973 -224.007,110.501c-48.126,22.505 -100.146,29.661 -146.685,1.866l-282.332,-140.688c-24.037,-13.098 -37.953,-41.434 -38.634,-68.221c-0.318,-11.311 1.566,-22.826 2.453,-34.065c-0,0 0.81,-36.512 0.96,-42.973l22.25,-2.729Zm365.497,112.572c-43.491,-0 -78.762,34.82 -78.762,77.73c-0,42.921 35.271,77.736 78.762,77.736c43.508,-0 78.762,-34.815 78.762,-77.736c0,-42.91 -35.254,-77.73 -78.762,-77.73Zm34.689,43.513l0,-18.322c-9.978,-6.433 -21.891,-10.198 -34.689,-10.198c-35.05,-0 -63.57,28.146 -63.57,62.737c-0,12.624 3.809,24.363 10.328,34.228l18.553,0l0,18.328c9.996,6.438 21.891,10.198 34.689,10.198c35.039,0 63.588,-28.152 63.588,-62.754c-0,-12.607 -3.821,-24.363 -10.346,-34.217l-18.553,-0Zm-70.322,-4.421c-2.196,-1.219 -3.687,-1.414 -4.328,-0.765c-0.635,0.604 -0.442,2.093 0.793,4.237l24.302,44.945c2.255,4.081 1.264,2.954 4.952,4.886l45.547,23.99c2.196,1.207 3.687,1.426 4.328,0.788c0.641,-0.633 0.425,-2.105 -0.81,-4.26l-24.279,-44.945c-1.981,-3.65 -0.827,-2.702 -4.969,-4.886l-45.536,-23.99Zm28.107,41.162l-14.942,-24.675l25.025,14.741l-10.083,9.934Zm-379.164,-441.922c-0,0 -5.602,-45.719 0.236,-64.596c14.214,-45.957 62.339,-61.68 101.225,-81.231c39.563,-19.893 220.417,-127.652 285.637,-127.297c61.421,0.335 237.377,99.001 299.743,132.421c37.332,20.005 86.223,37.116 93.388,85.1c2.553,17.096 -1.905,55.894 -1.905,55.894c42.531,4.222 85.01,9.134 127.418,14.738c17.651,2.334 31.946,18.54 31.946,36.027l-0,168.982c-0,17.493 -14.295,29.646 -31.946,27.319c-343.832,-45.44 -692.271,-45.44 -1036.1,-0c-17.649,2.327 -31.944,-9.826 -31.944,-27.319l-0,-168.982c-0,-17.487 14.288,-33.693 31.944,-36.027c43.386,-5.733 86.846,-10.743 130.361,-15.029Zm756.23,-1.839l-0.013,-0.075c3.017,-42.982 4.831,-71.335 -20.086,-86.742c-16.469,-10.183 -299.575,-163.44 -346.884,-162.27c-43.726,1.081 -215.806,92.434 -343.218,159.016c-27.773,14.514 -25.266,62.275 -23.898,89.793c244.162,-22.664 489.95,-22.571 734.099,0.278Z" fill="#734585"></path><path d="M1055.25,551.706c25.84,15.898 50.667,45.659 51.284,72.731c1.067,46.827 -62.875,56.373 -87.284,28.148c-5.524,-6.387 5.017,-22.9 12.553,-22.376c7.848,0.545 31.731,27.887 42.104,-1.978c3.556,-10.239 -0.912,-21.453 -7.816,-29.439c-16.219,-18.764 -44.081,-27.623 -46.354,-54.94c-4.32,-51.919 44.15,-54.605 65.767,-40.965c3.732,2.355 10.03,5.443 10.917,10.736c1.091,6.517 -3.365,14.908 -10.502,15.397c-6.816,0.466 -8.774,-1.948 -14.76,-4.736c-15.551,-7.243 -32.258,13.3 -15.909,27.422Zm-893.13,108.202c-5.637,5.11 -31.852,12.159 -47.099,9.066c-7.947,-1.611 -15.097,-7.124 -18.455,-14.267c-9.132,-19.421 -18.584,-122.311 15.042,-151.423c9.988,-8.647 45.285,-9.343 50.915,-2.307c3.591,4.489 -0.461,12.865 -6.312,11.596c-10.064,-2.184 -38.099,-6.982 -44.737,11.966c-15.761,44.983 -8.323,120.499 4.927,128.641c11.463,7.045 25.399,3.904 44.076,-8.05c8.54,-2.047 5.508,11.274 1.643,14.778Zm745.749,-175.013c2.376,-3.614 27.648,-2.833 29.714,5.688c2.713,11.19 0.343,39.816 1.454,51.832c0.135,3.321 3.121,6.713 6.809,3.04c15.526,-11.611 24.629,-40.919 25.44,-49.397c1.236,-12.916 32.827,-10.231 30.635,3.444c-3.133,19.551 -9.914,34.54 -16.998,45.025c-7.351,10.881 -14.932,17.006 -13.727,23.568c0.917,4.993 30.285,77.304 33.154,82.84c1.048,2.699 4.261,10.102 -3.289,8.929c-4.132,-0.091 -20.646,-2.303 -24.39,-4.13c-3.672,-2.985 -29.101,-68.474 -31.841,-74.483c-1.046,-4.522 -6.807,-3.884 -6.124,0.684c-0.223,14.403 1.683,64.416 -2.04,69c-2.818,3.469 -26.047,0.392 -28.797,-2.814c-2.561,-2.987 -1.314,-136.148 0,-163.226c0,0 0,0 0,0Zm-659.477,166.58c-11.774,8.046 -32.647,9.16 -42.243,6.275c-21.71,-6.526 -25.252,-37.374 -25.534,-56.465c-0.809,-54.752 -3.347,-106.206 36.531,-114.727c56.957,-12.171 52.769,46.727 53.495,74.339c0.684,25.995 2.624,73.581 -22.249,90.578Zm129.781,-120.377c1.583,48.247 4.704,94.367 -26.343,113.317c-17.275,10.544 -40.693,9.606 -51.32,-8.554c-13.04,-22.282 -13.951,-60.233 -9.237,-115.479c0.702,-8.224 3.928,-51.14 54.937,-44.331c25.227,3.368 31.312,35.193 31.963,55.047Zm410.58,112.294c-3.913,-4.473 1.143,-159.739 1.087,-162.243c-0.22,-9.752 65.783,-1.826 79.565,8.533c11.615,8.731 15.33,29.271 13.604,49.194c-2.224,25.685 -3.886,31.914 -18.738,41.903c-3.871,2.603 13.261,40.914 18.14,52.425c0.028,0.066 8.775,13.63 1.761,14.917c-3.203,0.587 -23.598,-0.086 -27.755,-3.495c-3.986,-3.27 -18.944,-60.033 -31.045,-60.288c-11.92,-0.252 -0.393,60.115 -9.203,62.215c-2.247,0.535 -24.358,0.334 -27.416,-3.161Zm-590.831,-31.628c0.637,15.485 11.816,44.01 39.807,30.381c28.137,-13.7 15.883,-97.826 15.914,-104.738c0.197,-45.11 -42.5,-39.59 -51.176,-19.109c-5.889,13.899 -7.238,28.051 -4.545,93.466Zm478.208,-126.506c14.137,-21.059 65.486,-23.012 81.045,7.117c14.499,28.074 12.33,113.448 -4.595,134.921c-20.226,25.66 -65.272,19.539 -78.631,-7.512c-10.748,-21.764 -17.35,-105.431 2.181,-134.526Zm-262.684,157.154c-4.002,-1.078 -6.319,-5.493 -5.785,-9.404c-0.193,-8.801 -0.823,-148.965 -0.281,-154.584c1.103,-7.009 13.145,-7.055 15.32,-0.843c2.784,7.953 1.17,13.668 1.036,21.825c-0.15,9.089 -0.132,120.251 1.525,123.961c2.423,5.424 12.859,3.414 44.088,3.354c3.914,0.565 2.042,13.994 -0,14.632c-1.806,0.564 -54.08,1.038 -55.903,1.059l0,0l-0,0l0,0Zm173.251,-6.819c-2.605,-2.827 -19.532,-120.565 -19.908,-127.083c-2.72,-0.379 -8.887,67.048 -19.593,122.804c-1.314,6.844 -8.898,7.44 -17.731,7.862c-13.682,0.653 -17.894,-3.703 -18.553,-5.177c-2.158,-4.234 -31.803,-154.775 -32.692,-158.372c-1.1,-4.451 25.943,-9.835 30.177,-2.749c4.667,7.809 21.098,124.07 21.785,124.095c0.892,0.033 14.635,-111.145 15.114,-115.353c1.278,-11.242 2.568,-14.011 20.003,-13.312c18.085,0.724 18.156,-0.599 20.408,7.962c1.32,5.022 14.37,119.76 15.755,119.765c1.534,0.007 17.489,-106.661 18.724,-113.541c2.886,-16.077 9.913,-13.251 18.096,-13.133c13.078,0.19 16.209,1.015 14.951,8.284c-0.941,5.437 -31.933,157.083 -33.047,157.948c-6.23,4.835 -30.787,2.458 -33.489,-0Zm-270.573,-137.508c-11.584,11.292 -17.829,93.807 -3.249,126.632c6.126,13.793 32.5,18.605 43.706,-6.575c10.698,-24.036 5.459,-99.815 -0.883,-115.857c-5.546,-14.031 -30.039,-13.496 -39.574,-4.2Zm416.917,101.584c5.094,-13.875 4.713,-65.547 1.439,-80.904c-6.675,-31.314 -30.146,-29.865 -37.84,-5.993c-4.534,14.068 -5.775,72.323 0.813,86.576c9.135,19.762 26.932,23.901 35.588,0.321Zm123.14,-79.392c-0.961,-4.863 -1.592,-19.261 -27.099,-16.898c-13.386,1.24 -9.64,46.73 -7.734,50.57c3.969,7.999 26.729,5.595 31.042,1.086c4.858,-5.079 5.948,-23.833 3.791,-34.758Z" fill="#fff"></path><path d="M262.508,700.849c1.194,-1.345 3.172,-0.766 4.654,-0.333c1.398,29.3 3.117,43.123 -9.661,44.205c-1.082,-0.904 -1.537,-2.955 -0.349,-3.953c8.558,-3.202 6.156,-17.365 5.356,-39.919Zm658.366,3.349c0.879,-2.514 4.995,-7.227 12.637,-4.077c1.469,0.605 3.407,1.306 3.644,3.14c-0.215,1.643 -2.216,2.944 -3.642,1.797c-6.255,-3.361 -7.756,1.242 -7.828,2.821c-0.145,3.207 2.159,6.005 4.885,7.445c7.444,3.932 8.735,8.87 8.643,11.795c0.688,5.862 -3.029,11.526 -9.491,11.125c-2.448,-0.152 -7.918,-2.131 -8.8,-2.729c-1.095,-0.928 -1.068,-2.706 -0.064,-3.691c0.974,-1.428 2.402,-0.077 3.419,0.339c3.249,1.329 7.229,2.529 9.301,-1.706c0.97,-1.983 0.203,-5.198 -0.486,-6.197c-2.259,-4.238 -7.457,-6.592 -10.632,-10.083c-2.092,-2.818 -2.59,-6.654 -1.586,-9.979Zm-632.29,3.846c2.218,-11.646 10.09,-13.458 14.326,-11.083c3.193,1.79 5.124,4.835 5.542,9.203c1.699,17.749 1.877,29.086 -9.657,29.341c-11.358,0.25 -11.133,-22.617 -10.211,-27.461Zm596.546,23.03c-0.27,-3.356 -0.605,-32.911 0.128,-34.407c1.174,-1.026 11.687,-0.158 15.278,0.848c1.304,0.933 1.392,3.179 0.162,4.21c-2.486,0.731 -9.885,-1.555 -10.257,0.611c-0.076,0.439 -0.211,8.301 -0.048,9.457c0.676,2.383 8.571,1.964 9.267,2.101c1.358,0.568 1.458,2.456 0.851,3.592c-1.055,0.967 -7.897,-0.195 -9.681,0.197c-0.866,1.409 -0.602,9.404 -0.34,11.25c0.996,2.117 9.423,1.804 10.007,1.939c1.34,0.812 1.557,4.107 -0.48,4.245c-4.13,0.28 -8.252,-0.725 -12.39,-0.844c-1.853,0.4 -2.955,-1.613 -2.497,-3.199Zm133.794,3.837c-3.11,0.083 -6.174,-1.447 -7.414,-3.576c-3.135,-5.388 -1.816,-13.859 1.361,-17.206c3.068,-3.232 10.989,-2.364 12.776,-0.379c3.322,3.69 3.999,13.621 1.01,18.06c-1.254,1.861 -4.198,3.006 -7.733,3.101Zm2.14,-2.307c7.319,-1.355 6.547,-11.3 3.898,-16.38c-1.757,-3.369 -11.595,-2.762 -12.59,2.841c-1.453,8.183 -0.727,11.128 3.61,13.22c0.708,0.341 3.413,0.628 5.082,0.319Zm-166.17,-33.967c-6.047,2.688 -2.857,23.345 -2.298,24.61c1.102,4.563 5.273,5.492 9.444,4.028c4.869,-1.709 4.641,4.51 0.694,4.703c-3.325,0.162 -5.792,1.044 -8.99,-0.168c-2.134,-1.076 -4.286,-2.563 -5.172,-4.884c-1.768,-3.82 -3.422,-27.997 2.805,-31.9c3.313,-2.077 6.859,-1.867 10.53,-0.31c4.242,1.799 1.321,5.938 -0.765,4.571c-2.018,-1.323 -3.774,-1.749 -6.248,-0.65Zm-523.352,33.799c-1.715,-0.419 -1.352,-3.756 -1.352,-3.756c-0,0 0.003,-30.249 0.01,-32.409c1.023,-3.889 13.694,-2.716 16.197,-0.706c3.154,2.532 3.843,9.817 1.192,12.807c-0.835,0.942 -3.03,2.176 -1.099,3.543c3.9,2.762 6.384,12.15 1.099,17.29c-2.822,2.745 -8.013,3.011 -16.047,3.231Zm-28.845,-2.719c3.59,-4.707 1.452,-23.428 1.052,-24.667c-1.126,-3.482 -5.255,-6.191 -7.768,-2.531c-4.464,6.504 -3.586,24.474 0.385,27.819c1.569,1.322 4.601,1.647 6.331,-0.621Zm69.143,-36.132c2.294,-1.948 6.683,-3.692 12.218,-1.921c1.949,0.623 2.082,2.826 0.697,4.09c-2.146,1.959 -8.244,-2.457 -10.155,2.875c-2.512,7.006 9.398,9.252 11.875,13.818c3.984,7.342 -0.283,16.967 -8.619,17.417c-3.196,0.173 -8.307,-0.945 -8.975,-2.433c-0.237,-1.399 0.516,-3.345 2.062,-3.594c1.945,0.31 3.677,1.818 5.738,1.539c4.993,-0.276 7.588,-5.034 5.66,-9.149c-1.416,-3.021 -10.478,-8.334 -11.691,-10.138c-2.523,-3.755 -1.265,-10.42 1.19,-12.504Zm443.697,-2.027c0,0 3.177,-1.405 5.067,0.868c1.274,1.532 1.373,3.561 1.787,5.38c2.228,9.785 4.949,20.632 7.059,30.443c0.659,1.207 -4.782,1.235 -5.439,0c-1.105,-2.078 -0.901,-5.484 -1.62,-7.945c-0.995,-3.405 -8.44,-2.108 -9.137,-0.527c-0.989,2.242 -0.784,6.315 -2.206,8.472c-1.196,1.141 -3.19,0.875 -4.596,0.392c1.418,-8.768 6.015,-31.787 9.085,-37.083Zm200.915,37.647c-0.56,-1.313 -0.726,-8.991 -0.268,-11.299c0.16,-0.804 5.673,-0.733 5.972,-0.125c1.449,2.953 1.259,4.633 -0.348,6.121c-0.508,1.627 0.733,2.9 0.931,4.374c0.186,1.392 -1.677,1.164 -2.106,0.516c-0.512,-0.772 -0.541,-4.291 -2.259,-3.958c-0.48,1.318 0.354,4.132 -0.406,4.263c-0.624,0.107 -1.131,0.65 -1.516,0.108l0,0Zm-227.932,-2.513c-0.324,0.701 -11.642,0.26 -13.558,0.264c-1.463,0.002 -2.438,-1.218 -2.048,-2.495c-0.05,-4.033 -0.153,-32.272 -0.147,-34.068c0.607,-1.936 3.793,-1.6 4.827,-0.258c0.641,0.832 0.394,21.095 0.562,29.937c-0.309,1.384 0.683,2.719 2.14,2.605c5.026,0.525 10.589,-1.109 8.224,4.015Zm-445.144,-11.417c-2.933,-2.04 -7.849,-2.11 -7.887,1.507c-0.032,2.922 -0.173,5.847 -0.032,8.766c0.11,2.278 4.422,2.263 7.5,1.038c3.91,-1.556 2.916,-9.572 0.419,-11.311Zm91.022,-25.653c0.603,1.863 1.007,34.26 0.808,36.065c-0.977,1.268 -3.193,1.166 -4.501,0.45c-0.368,-6.105 -1.929,-29.921 -0.719,-36.4c0.17,-0.909 4.058,-1.208 4.412,-0.115Zm299.994,-1.999c0.784,-1.284 13.558,-0.749 17.149,4.351c1.662,2.361 3.041,10.686 0.55,15.258c-2.35,4.311 -7.338,5.703 -10.767,5.306c-1.978,-0.228 -2.955,1.161 -2.608,2.818c0.129,2.931 0.166,5.975 -0.007,8.904c-0.129,2.186 -3.987,1.729 -4.594,0.28c-0.328,-0.784 -0.203,-36.129 0.277,-36.917Zm-261.725,0.589c0.473,-1.638 4.596,-1.653 5.048,0.006c0.226,0.831 0.487,33.969 -0,35.444c-1.098,2.382 -6.293,2.184 -7.095,-0.169c-2.764,-8.101 -8.44,-28.144 -9.231,-28.255c0.18,9.783 0.014,18.724 0,27.831c-0.003,2.11 -4.778,2.11 -4.806,-0c-0.146,-10.919 -0.097,-22.488 -0,-33.406c0.027,-3.068 6.539,-3.095 7.389,-0.474c3.121,9.621 6.188,19.26 9.053,28.96c0.562,-1.242 -0.996,-21.414 -0.358,-29.937Zm64.024,34.112c-5.531,2.886 -11.152,0.408 -12.627,-0.788c-4.124,-3.346 -4.874,-22.97 -2.057,-30.365c2.143,-5.624 9.185,-8.146 14.869,-5.334c2.08,1.03 1.833,4.138 -0.534,4.87c-2.82,0.873 -6.194,-2.856 -8.785,0.8c-4.307,6.079 -1.938,22.747 -0.566,25.293c1.428,2.65 5.273,3.12 7.522,0.962c1.678,-1.61 1.965,-6.422 1.89,-8.59c-0.143,-4.162 -2.754,-1.341 -5.123,-2.79c-0.636,-0.389 -1.721,-2.826 -0.761,-3.608c0.665,-0.542 8.587,-1.522 9.49,-0.582c2.295,2.389 1.689,17.519 -3.318,20.132Zm144.017,0.911c-0.633,-5.542 0.15,-31.289 -1.256,-32.65c-1.912,-1.033 -4.471,0.69 -6.115,-0.848c-1.058,-0.989 -1.109,-3.312 0.501,-3.859c1.202,-0.408 12.692,0.15 16.66,0.209c3.219,-0.282 3.429,4.826 0.147,4.671c-1.606,-0.075 -4.966,0.13 -4.966,0.13c0,-0 0.648,31.073 -0.535,32.605c-0.547,0.334 -4.355,0.446 -4.436,-0.258Zm-21.535,-1.699c-0.1,2.422 -4.378,3.331 -5.545,-0.445c-0.947,-3.065 -1.233,-8.208 -3.217,-8.282c-1.595,-0.059 -3.198,0.033 -4.786,-0.124c-2.072,-0.204 -2.955,2.328 -4.205,8.665c-0.583,2.955 -7.474,2.8 -5.317,-1.438c2.274,-10.13 6.742,-33.497 8.836,-34.318c1.312,-0.515 3.719,-0.43 4.151,-0c0.338,0.335 10.112,35.244 10.083,35.942Zm-89.484,-13.292c-1.18,-0.394 -2.995,-0.215 -3.005,1.426c-0.063,10.375 1.848,13.932 -4.007,13.229c-1.611,-0.194 -1.455,-2.114 -1.303,-3.317c0.02,-2.723 -0.458,-32.596 0.35,-33.867c1.329,-1.164 12.869,-0.893 15.624,1.02c5.014,3.481 4.498,16.131 0.169,18.984c-1.545,0.444 -1.513,2.239 -1.152,3.349c0.818,2.52 3.933,9.967 4.514,11.236c0.864,1.32 0.01,3.081 -1.656,2.583c-4.111,-0.415 -3.387,-2.102 -5.44,-6.001c-0.378,-1.014 -1.849,-7.879 -4.094,-8.642l0,0Zm47.25,14.825c-2.579,0.274 -13.192,0.525 -14.103,-0.182c-0.346,-0.269 -1.784,-23.676 -1.284,-37.578c0.084,-2.357 11.748,-1.063 15.593,-0.192c1.034,0.996 1.3,3.187 0.07,4.102c-1.34,0.668 -8.625,0.023 -10.327,0.444c-0.571,0.14 -0.082,9.566 -0.105,11.788c-0.006,0.607 8.428,0.115 9.539,0.153c1.357,0.045 1.088,3.808 0.143,3.862c-3.49,0.199 -9.558,-0.297 -9.682,0.253c-0.272,1.216 0.042,9.754 0.105,11.767c0.036,1.18 8.248,0.297 10.051,0.978c1.463,0.552 1.313,3.95 0,4.605Zm403.363,-0.904c0.976,-0.569 0.926,-2.044 0.27,-2.821c-0.47,-0.558 -2.278,-0.21 -2.357,-0.064c-0.161,0.297 -0.451,2.526 -0.06,2.857c0.483,0.28 1.652,0.245 2.147,0.028l0,-0Zm-202.697,-24.313c-0.645,3.033 -2.719,13.358 -3.065,15.482c0.356,1.85 5.817,1.88 6.064,0c0.36,-2.736 -2.073,-12.613 -2.999,-15.482Zm-474.554,2.161c-1.398,-2.065 -6.937,-2.365 -7.371,-0.139c-0.232,1.194 -1.065,9.577 1.295,9.815c2.286,0.23 4.888,0.384 6.141,-1.221c1.437,-1.841 1.293,-6.449 -0.065,-8.455Zm304.478,-8.349c-0.75,4.614 -1.781,11.027 -2.59,15.635c-0.315,1.794 5.639,1.598 5.472,0.185c-0.115,-0.975 -1.806,-11.366 -2.882,-15.82Zm92.207,16.165c3.047,0.114 8.849,-0.531 8.488,-8.361c-0.22,-4.78 -0.781,-7.066 -7.816,-7.235c-2.172,-0.052 -1.672,1.34 -1.676,2.858c-0.007,3.065 -0.1,7.93 -0.023,10.994c0.023,0.911 0.119,1.709 1.027,1.744Zm-165.708,-17.123c-2.033,-1.322 -7.399,-1.856 -7.448,1.538c-0.046,3.119 -0.104,6.24 0.024,9.356c0.061,1.475 7.01,1.816 8.468,-0.149c1.218,-1.639 2.215,-8.624 -1.044,-10.745Z" fill="#734585"></path></g></svg>