<?xml version="1.0" encoding="utf-8"?>
<!-- Generator: Adobe Illustrator 27.6.1, SVG Export Plug-In . SVG Version: 6.00 Build 0)  -->
<svg version="1.2" baseProfile="tiny-ps" id="Layer_1" xmlns="http://www.w3.org/2000/svg" xmlns:xlink="http://www.w3.org/1999/xlink"
	 viewBox="0 0 18 18" xml:space="preserve">
<title>Sigma Phi Epsilon Fraternity</title>
<rect x="0" y="0" fill="#FFFFFF" width="18" height="18"/>
<g>
	<g>
		<path fill-rule="evenodd" fill="#803E97" d="M13.5,7.8c-0.4,0-0.8,0-1.1,0V8h0.5v3.9h-0.5v0.2H14v-0.2h-0.4v-1.8h0
			c0.1,0.3,0.4,0.5,0.8,0.5c0.7,0,1.2-0.7,1.2-1.4c0-0.7-0.5-1.4-1.2-1.4c-0.3,0-0.6,0.3-0.8,0.6h0V7.8L13.5,7.8z M11.1,6.2
			c0.2,0,0.4,0,0.5,0.1c0.3,0.1,0.6,0.3,0.7,1h0.2l0-1.2H9v0.2h0.6v4.2H9v0.2h3.6l0.1-1.5h-0.2c-0.1,0.8-0.3,1.3-1.1,1.3h-0.9V8.3
			c0.7,0,0.9,0.1,1,0.9h0.2V7.3h-0.2c0,0.7-0.4,0.8-1,0.8V6.2H11.1L11.1,6.2z M14.8,10c0,0.3-0.2,0.5-0.5,0.5
			c-0.4,0-0.7-0.5-0.7-0.9V8.7c0-0.3,0.4-0.8,0.7-0.8c0.4,0,0.5,0.2,0.5,0.6V10L14.8,10z"/>
	</g>
	<g>
		<path fill="#E12726" d="M8.4,10.8c0.3,0,0.6,0,0.5,0.4c-0.2,0.6-0.6,0.8-1.1,0.8c-0.4,0-0.7-0.2-0.7-0.7c0-0.2,0-0.5,0.3-0.5H8.4
			L8.4,10.8z M7.4,8.2c0-0.1,0.1-0.3,0.4-0.3C8,7.9,8.1,8,8.1,8.2v0.9c0,0.3-0.1,0.3-0.4,0.3c-0.2,0-0.3-0.1-0.3-0.3V8.2L7.4,8.2z
			 M7.1,10.1c-0.1,0-0.3-0.1-0.3-0.2c0-0.3,0.4-0.3,0.6-0.3c0.3,0,0.6,0,0.8-0.1C8.6,9.3,8.7,9,8.7,8.7c0-0.2,0-0.4-0.2-0.5
			c0,0,0.1-0.1,0.2-0.1c0.1,0,0.1,0.2,0.3,0.2c0.2,0,0.2-0.1,0.2-0.2c0-0.2-0.1-0.3-0.3-0.3c-0.2,0-0.3,0.2-0.5,0.3
			C8.3,7.9,8,7.8,7.8,7.8c-0.5,0-1,0.4-1,0.9c0,0.3,0.2,0.5,0.4,0.7c-0.3,0.1-0.6,0.3-0.6,0.7c0,0.3,0.2,0.5,0.4,0.6
			c-0.2,0.1-0.4,0.3-0.4,0.6c0,0.6,0.6,0.8,1,0.8c0.7,0,1.4-0.4,1.4-1.3c0-0.2,0-0.3-0.1-0.5c-0.2-0.3-0.4-0.2-0.7-0.2H7.1L7.1,10.1
			z M6.8,10.5v-0.2H6.3V7.8c-0.4,0-0.8,0-1.1,0V8h0.5v2.3H5.2v0.2H6.8L6.8,10.5z M6.3,6.6c0-0.2-0.2-0.4-0.4-0.4
			c-0.2,0-0.3,0.2-0.3,0.4C5.6,6.8,5.7,7,5.9,7C6.2,7,6.3,6.8,6.3,6.6L6.3,6.6z M2.9,10.3c0.2,0.2,0.6,0.3,0.9,0.3
			c0.8,0,1.3-0.6,1.3-1.5c0-0.6-0.2-1.1-0.7-1.3C4.3,7.7,4.1,7.7,4,7.7c-0.1,0-0.2-0.1-0.4-0.1C3.2,7.4,2.9,7.4,2.9,6.8
			c0-0.5,0.4-0.8,0.8-0.8c0.6,0,1,0.5,1.1,1.2h0.2V6H4.8L4.6,6.2C4.3,6,4,5.9,3.7,5.9C3,5.9,2.5,6.4,2.5,7.1c0,0.6,0.3,1.1,0.9,1.3
			c0.1,0,0.3,0.1,0.4,0.1c0.5,0.2,1,0.3,1,0.9c0,0.6-0.4,0.9-0.9,0.9c-0.7,0-1-0.6-1.2-1.2H2.5v1.3h0.1L2.9,10.3L2.9,10.3z"/>
	</g>
</g>
</svg>
