<svg xmlns="http://www.w3.org/2000/svg" xmlns:xlink="http://www.w3.org/1999/xlink" version="1.2" viewBox="0 0 200 200" baseProfile="tiny-ps">
  <title>Heartland Bank 200x200px</title>
  <rect x="0.187" y="-0.013" width="200" height="200" fill="#0A2642"/>
  <g id="XMLID_18_">
    <path id="XMLID_36_" d="M35.8,149.4h4.7
c1.3,0,2.3,1,2.3,2.3l0,0c0,1.3-1,2.3-2.3,2.3h-4.7
c-1.3,0-2.3-1-2.3-2.3l0,0C33.4,150.5,34.5,149.4,35.8,149.4z" 
fill="#FFFFFF"/>
    <path id="XMLID_35_" d="M160.2,149.4h4.7
c1.3,0,2.3,1,2.3,2.3l0,0c0,1.3-1,2.3-2.3,2.3h-4.7
c-1.3,0-2.3-1-2.3-2.3l0,0C157.9,150.5,158.9,149.4,160.2,149.4z" 
fill="#FFFFFF"/>
    <g id="XMLID_21_">
      <path id="XMLID_34_" d="M147.2,36.1c-2.3,0.1-5.1,0.2-8,0.3c-4.3,0.2-8.8,0.4-11.6,0.4
c-4.9,0-12.8-0.4-19.3-0.8c-0.5,0-1,0.4-1,1.2v2.6c0,0.8,0.3,1,1,1.2
c0.3,0.1,0.8,0.2,1.4,0.3c2.3,0.4,6.6,1.2,8.4,3.3
c1.5,1.5,1.5,3.2,1.5,7.8v20.3H81.4V52.5c0-4.6,0-6.3,1.3-7.8
c2-2.2,6.3-2.9,8.5-3.3c0.5-0.1,1-0.2,1.3-0.2
c0.8-0.2,1.2-0.3,1.2-1.2v-2.6c0-0.7-0.6-1.2-1.4-1.2l0,0C85.9,36.6,78.7,37,74.2,37
c-2.7,0-6.9-0.2-11.4-0.4
c-3.2-0.1-6.4-0.3-9-0.4c-0.5,0-1,0.4-1,1.2v2.8
c0,0.5,0.1,1,1.1,1.4c0.2,0,0.4,0,0.8,0.1c2,0.2,7.5,0.6,9.3,3.1
c1.4,1.7,1.6,3.2,1.6,7.9V106c0,4.8-0.2,6.4-1.6,8.1c-1.8,2.3-7.3,2.9-9.4,3.1
c-0.3,0-0.5,0.1-0.8,0.1c-0.8,0.3-1,0.5-1,1.4v2.8
c0,0.8,0.5,1.2,1,1.2l0,0c6.1-0.4,15.4-0.7,20.2-0.7c2.3,0,10.3,0.1,18.3,0.8c0.5,0,1-0.4,1-1.2V119
c0-0.5-0.1-1.1-1.1-1.4H92
c-4.6-0.7-7.8-1.8-9.3-3.3
c-1.3-1.5-1.3-3.3-1.3-8.1V79.5h38.2v26.3c0,4.7,0,6.5-1.5,8
c-1.4,1.5-4.6,2.6-9.4,3.3l-0.4,0.1
c-0.9,0.3-1,0.8-1,1.4v2.6c0,0.8,0.5,1.2,1.1,1.2l0,0
c6.3-0.6,13.7-0.7,18.5-0.7
c4.9,0,14.2,0.4,20.4,0.7l0,0
c0.5,0,1-0.4,1-1.2v-2.8c0-0.8-0.2-1.1-1.1-1.4c-0.2,0-0.4,0-0.7-0.1c-2.1-0.2-7.6-0.8-9.4-3.1c-1.4-1.7-1.5-3.3-1.5-8.1V52.5
c0-4.7,0.2-6.2,1.6-7.9
c1.8-2.4,7.3-2.9,9.3-3.1c0.3,0,0.6-0.1,0.9-0.1
c0.9-0.3,1-0.8,1-1.4v-2.8C148.2,36.5,147.7,36.1,147.2,36.1z" fill="#FFFFFF"/>
      <g id="XMLID_22_">
        <path id="XMLID_30_" d="M53.6,162.4v-21.8h8.3c1.9,0,3.4,0.5,4.6,1.6c1.2,1.1,1.8,2.5,1.8,4.2
c0,1.1-0.3,2.1-0.8,2.9c-0.6,0.9-1.3,1.5-2.3,1.9c1.2,0.4,2.1,1,2.8,2c0.7,0.9,1,2,1,3.2c0,1.8-0.6,3.2-1.9,4.3s-2.9,1.7-4.8,1.7L53.6,162.4L53.6,162.4z M57.5,143.8v6H61
c1,0,1.7-0.3,2.3-0.8c0.6-0.6,0.9-1.3,0.9-2.1s-0.3-1.6-0.9-2.1
c-0.6-0.6-1.4-0.8-2.3-0.8h-3.5V143.8z M57.5,152.9v6.3h4c1,0,1.8-0.3,2.5-0.9c0.7-0.6,1-1.4,1-2.3s-0.3-1.7-0.9-2.3s-1.5-0.9-2.5-0.9h-4.1V152.9z" fill="#FFFFFF"/>
        <path id="XMLID_27_" d="M74.5,162.4l8.6-21.8h3.6l8.6,21.8h-4.1l-2-5.2h-8.6l-2,5.2H74.5z M84.9,145.8 l-3.1,8.3H88L84.9,145.8z" fill="#FFFFFF"/>
        <path id="XMLID_25_" d="M102,162.4v-21.8h3.6l10.9,15.2v-15.2h3.9v21.8h-3.6l-10.9-15.2v15.2H102z" fill="#FFFFFF"/>
        <path id="XMLID_23_" d="M129.9,162.4v-21.8h4.1v9l8.3-9h4.9l-9.6,10.7l9.9,11.1h-5L134,153v9.4H129.9z" fill="#FFFFFF"/>
      </g>
    </g>
  </g>
</svg>
