<?xml version="1.0" encoding="utf-8"?>
<!-- Generator: Adobe Illustrator 26.0.3, SVG Export Plug-In . SVG Version: 6.00 Build 0)  -->
<svg version="1.2" baseProfile="tiny-ps" id="Layer_1" xmlns="http://www.w3.org/2000/svg" xmlns:xlink="http://www.w3.org/1999/xlink"
	 viewBox="0 0 80 80" xml:space="preserve">
	 <title>WD Partners, Inc.</title>
<rect x="0" fill="#F32735" width="80" height="80"/>
<path fill="#FFFFFF" d="M59.9,20.7v12.3C58.1,31.7,56,31,53.8,31c-3.7,0-6.9,1.9-9,4.9l1.3-4.5h-5.9L36,46l-4.2-14.7l0,0h-5.9
	L21.6,46l-4.2-14.7h-5.9l7.3,24.6h2.8h2.8l4.4-14.6l4.3,14.6H36h2.8l3.6-12c0.1,6.8,5.2,12.3,11.4,12.3c2.2,0,4.3-0.7,6.1-1.9v1.6
	h5.9V20.7H59.9z M59.7,44.8c0,1-0.3,2-0.8,2.8c-1.1,1.6-2.9,2.7-4.8,2.7c-3.3,0-6-3-6-6.7s2.7-6.7,6-6.7c2,0,3.7,1.1,4.8,2.7
	c0.6,0.8,0.8,1.8,0.8,2.8V44.8z"/>
</svg>
