<?xml version="1.0" encoding="UTF-8"?>
<svg xmlns="http://www.w3.org/2000/svg" baseProfile="tiny-ps" version="1.2" viewBox="0 0 300 300">
<title>EISYS, Inc.</title>
  <!-- Generator: Adobe Illustrator 29.0.0, SVG Export Plug-In . SVG Version: 2.1.0 Build 186)  -->
  <rect width="300" height="300" fill="#fff"/>
  <g id="_Layer_2">
    <g id="_Layer_1-2">
      <g>
        <path d="M173.47,132.08c4.94,0,7.26-4.02,7.26-7.72s-2.47-7.57-7.26-7.57c-2.16,0-4.17.62-5.56,2.16-1.39,1.39-2.16,3.4-2.16,5.56s.77,4.17,2.32,5.56c1.39,1.39,3.4,2.16,5.56,2.01h-.15Z" fill="#fcc800"/>
        <path d="M42.97,115.87h-12.97v68.26h15.6c8.34,0,16.22-3.4,22.24-9.27,6.49-6.49,10.19-15.6,10.19-25.02-.15-18.69-15.91-33.98-35.06-33.98ZM58.73,163.44c-4.94,5.1-12.05,6.18-14.21,6.18h-.46v-39.38c3.55.46,19.46,3.55,19.77,19.31,0,5.71-1.54,10.35-4.94,13.9h-.15ZM97.34,115.87h-13.75v68.11h35.37v-14.52h-21.62v-53.59ZM140.42,140.12c-2.78,4.17-3.24,7.72-3.71,12.51v.31c0,1.24-.15,2.32-.15,3.55,0,3.86-.31,7.26-2.78,10.04-2.16,2.47-4.02,2.32-7.1,3.09h-.77v14.52h1.08c7.57,0,12.82-2.63,17.61-8.65,4.32-5.56,4.79-9.58,5.1-17.3v-2.32c0-3.24,0-5.41,2.01-7.88,1.85-2.32,3.55-3.4,6.33-4.02h.77v-13.9h-1.08c-7.57.62-12.66,3.71-16.99,10.04h-.31ZM213.01,171.16h-2.93c-2.01,0-3.71-.77-5.25-2.32-1.7-1.7-2.32-3.09-2.32-5.1v-20.85h7.57v-13.59h-7.57v-13.28h-12.97v48.03c0,6.18,3.55,12.36,6.8,14.67,3.55,2.32,8.34,5.1,14.05,5.1s2.63-.15,2.63-.15v-12.66h0v.15ZM166.68,133.32v50.81h13.28v-50.81h-13.28ZM252.86,166.83c-2.32,2.78-6.18,4.32-10.35,4.32-6.33,0-13.28-3.86-14.36-12.82v-1.54c0-7.41,6.49-13.9,14.21-13.9,6.49,0,11.58,3.4,13.75,9.11h-24.56c0-.15,0,10.66,0,10.66h37.99v-.93c.31-1.24.46-2.47.46-3.86,0-7.26-3.09-14.67-8.65-20.08-5.25-5.25-12.2-8.03-19.31-8.03-14.67.15-26.72,12.36-26.72,27.34s12.36,26.87,27.18,26.87,13.59-2.32,19.15-8.19l.62-.77-8.96-9.27-.77.77h0l.31.31Z" fill="#092a83"/>
      </g>
    </g>
  </g>
</svg>