<?xml version="1.0" encoding="UTF-8"?>
<svg version="1.2" baseProfile="tiny-ps" id="Layer_1" xmlns="http://www.w3.org/2000/svg" xmlns:xlink="http://www.w3.org/1999/xlink" viewBox="0 -300 1080 1080">
    <title>Company title</title>
	<g>
		<g id="Layer_1">
			<g>
				<g>
					<g>
						<path id="Logo" d="M170.4,228.4l-16.7,29.8h21.4l16.6-29.8h-20.7c-.2,0-.5,0-.7,0Z" fill="url(#linear-gradient)" />
						<linearGradient id="linear-gradient" x1="140.8" y1="288.2" x2="180.6" y2="124.2" gradientUnits="userSpaceOnUse">
							<stop offset="0" stop-color="#1767b3" />
							<stop offset=".5" stop-color="#25469c" />
							<stop offset="1" stop-color="#1767b3" />
						</linearGradient>
						<path d="M247.5,186.7l-27.1-47.8-41.6,74.2h17.7c1.2,0,2.3.3,3.2.7l20.7-37.1,11.9,20.9c3.4-3,6.7-6,10.1-8.9,1.5-1.3,3-2,4.9-2.2Z" fill="url(#linear-gradient-2)" />
						<linearGradient id="linear-gradient-2" x1="189" y1="299.9" x2="228.8" y2="135.9" gradientUnits="userSpaceOnUse">
							<stop offset="0" stop-color="#1767b3" />
							<stop offset=".5" stop-color="#25469c" />
							<stop offset="1" stop-color="#1767b3" />
						</linearGradient>
						<path d="M254.3,198.6c-.3.4-.6.8-.9,1.1-4.5,3.8-8.8,7.8-13.3,11.6l26.6,46.9h21.4l-33.8-59.6Z" fill="url(#linear-gradient-3)" />
						<linearGradient id="linear-gradient-3" x1="229.1" y1="309.7" x2="268.9" y2="145.6" gradientUnits="userSpaceOnUse">
							<stop offset="0" stop-color="#1767b3" />
							<stop offset=".5" stop-color="#25469c" />
							<stop offset="1" stop-color="#1767b3" />
						</linearGradient>
					</g>
					<path d="M161.5,244.1s102.6,8.8,111.9-76.2c0,0-22.2,61-101.4,57.6l-10.5,18.6Z" fill="url(#linear-gradient-4)" />
					<linearGradient id="linear-gradient-4" x1="161.5" y1="193.9" x2="273.4" y2="193.9" gradientUnits="userSpaceOnUse">
						<stop offset="0" stop-color="#28acdf" />
						<stop offset="1" stop-color="#a4cd39" />
					</linearGradient>
					<path d="M176.2,218.1s73.3,5.2,80-54.5c0,0-17,42.7-72.7,41.3l-7.3,13.2Z" fill="url(#linear-gradient-5)" />
					<linearGradient id="linear-gradient-5" x1="176.2" y1="209" x2="256.2" y2="209" gradientUnits="userSpaceOnUse">
						<stop offset="0" stop-color="#28acdf" />
						<stop offset="1" stop-color="#a4cd39" />
					</linearGradient>
					<polygon points="156.3 242.2 211.3 147.7 236.5 179.2 211.3 139 156.3 242.2" fill="#939597" />
				</g>
			</g>
			<g>
				<g>
					<path d="M349.2,194.4h-16.5l-3.1,7.6h-11.3l17.2-39h10.9l17.3,39h-11.5l-3.1-7.6ZM345.9,186.3l-5-12.5-5,12.5h10Z" fill="#144b9a" />
					<path d="M397.7,202.6l-4.4-3.9c-3.6,2.6-8.1,4-13.1,4-9,0-15.5-4.6-15.5-11s2.5-8.4,8.1-11.5c-2.6-2.6-3.7-5.2-3.7-7.9,0-6,5.2-10,13.1-10s12,3.6,12,9.4-2.3,7-7.2,9.7l5.7,5.1c.8-1.7,1.3-3.5,1.7-5.6l8.5,2.6c-.7,3.3-1.9,6.3-3.6,8.9l4.1,3.7-5.7,6.5ZM386.9,193.1l-8.4-7.5c-2.5,1.5-3.5,3.1-3.5,5s2.3,4.1,6,4.1,4.2-.6,6-1.6ZM378.7,172.3c0,1.2.5,2.2,2.5,4.1,3-1.6,4.1-2.9,4.1-4.3s-1.1-2.6-3.1-2.6-3.5,1.2-3.5,2.9Z" fill="#144b9a" />
					<path d="M435,194.4h-16.5l-3.1,7.6h-11.3l17.2-39h10.9l17.3,39h-11.5l-3.1-7.6ZM431.8,186.3l-5-12.5-5,12.5h10Z" fill="#144b9a" />
					<path d="M495,194.4h-16.5l-3.1,7.6h-11.3l17.2-39h10.9l17.3,39h-11.5l-3.1-7.6ZM491.8,186.3l-5-12.5-5,12.5h10Z" fill="#144b9a" />
					<path d="M509.9,198.5l3.6-8.1c3.5,2.3,8.4,3.8,12.9,3.8s6.4-1.3,6.4-3.2c0-6.2-22.2-1.7-22.2-16.2s5.7-12.6,17.3-12.6,10.3,1.2,14.2,3.4l-3.4,8.2c-3.7-2-7.4-3-10.8-3s-6.3,1.6-6.3,3.5c0,6,22.1,1.5,22.1,15.9s-5.7,12.6-17.3,12.6c-6.4,0-12.8-1.7-16.4-4.3Z" fill="#144b9a" />
					<path d="M546,198.5l3.6-8.1c3.5,2.3,8.4,3.8,12.9,3.8s6.4-1.3,6.4-3.2c0-6.2-22.2-1.7-22.2-16.2s5.7-12.6,17.3-12.6,10.3,1.2,14.2,3.4l-3.4,8.2c-3.7-2-7.4-3-10.8-3s-6.3,1.6-6.3,3.5c0,6,22.1,1.5,22.1,15.9s-5.7,12.6-17.3,12.6c-6.4,0-12.8-1.7-16.4-4.3Z" fill="#144b9a" />
					<path d="M582.8,182.5c0-11.7,9.2-20.3,21.7-20.3s21.7,8.6,21.7,20.3-9.2,20.3-21.7,20.3c-12.5,0-21.7-8.6-21.7-20.3ZM615,182.5c0-6.7-4.6-11.1-10.5-11.1s-10.5,4.4-10.5,11.1,4.6,11.1,10.5,11.1,10.5-4.4,10.5-11.1Z" fill="#144b9a" />
					<path d="M629.9,182.5c0-11.9,9.1-20.3,21.5-20.3s13,2.6,16.8,7.4l-7,6.4c-2.5-3-5.5-4.6-9.2-4.6-6.4,0-10.9,4.5-10.9,11.1s4.5,11.1,10.9,11.1,6.7-1.6,9.2-4.6l7,6.4c-3.8,4.7-9.6,7.4-16.8,7.4-12.4,0-21.5-8.4-21.5-20.3Z" fill="#144b9a" />
					<path d="M673,163h11v39h-11v-39Z" fill="#144b9a" />
					<path d="M718,194.4h-16.5l-3.1,7.6h-11.3l17.2-39h10.9l17.3,39h-11.5l-3.1-7.6ZM714.8,186.3l-5-12.5-5,12.5h10Z" fill="#144b9a" />
					<path d="M742,171.7h-12v-8.7h34.9v8.7h-11.9v30.2h-11v-30.2h0Z" fill="#144b9a" />
					<path d="M800.4,193.4v8.5h-31.3v-39h30.6v8.5h-19.7v6.6h17.3v8.2h-17.3v7.1h20.4Z" fill="#144b9a" />
					<path d="M822.8,163h11v30.2h18.6v8.7h-29.6v-39Z" fill="#144b9a" />
					<path d="M856.7,163h11v30.2h18.6v8.7h-29.6v-39Z" fill="#144b9a" />
					<path d="M888.1,182.5c0-11.9,9.1-20.3,21.5-20.3s13,2.6,16.8,7.4l-7,6.4c-2.5-3-5.5-4.6-9.2-4.6-6.4,0-10.9,4.5-10.9,11.1s4.5,11.1,10.9,11.1,6.7-1.6,9.2-4.6l7,6.4c-3.8,4.7-9.6,7.4-16.8,7.4-12.4,0-21.5-8.4-21.5-20.3Z" fill="#144b9a" />
				</g>
			</g>
		</g>
	</g>
</svg>
