<?xml version="1.0" encoding="UTF-8" standalone="yes"?>
<svg baseProfile="tiny-ps" version="1.2" viewBox="0 0 900 900" xml:space="preserve" xmlns="http://www.w3.org/2000/svg">
  <title>bimi-svg-tiny-12-ps</title>
  <g id="Layer_1">
    <rect fill="#FFFFFF" height="901" width="900" x="0.5" y="-0.5"/>
    <path d="M216.07,266.8c80.21,0,149.44,47.75,181.63,116.78   c85.95-193.68,390.84-126.72,388.17,87.18c2.66,213.86-302.26,280.85-388.17,87.16c-48.46,117.1-218.31,155.8-311.83,68.12   c103.88-69.6,103.86-240.98,0-310.57C120.93,285.13,166.39,266.8,216.07,266.8" fill="#A7A9AC" fill-rule="evenodd"/>
    <path d="M578.84,280.66c104.34,0,188.92,84.58,188.92,188.92   c2.67,209.07-299.98,258.93-366.61,64.28c-36.24,114.74-195.17,163.81-290.34,87.4c99.94-67.17,99.93-236.19,0-303.35   c95.19-76.42,254.09-27.33,290.34,87.4C427.44,332.61,497.07,280.66,578.84,280.66" fill="#FFFFFF" fill-rule="evenodd"/>
    <path d="M414.5,459.5c0-202,304-201,304,0" fill="#EC9820" fill-rule="evenodd"/>
    <path d="M239.94,636.14c-32.61,0-62.82-10.27-87.57-27.75c40.12-26.9,67.71-72.14,71.68-124.27   h167.91C391.96,568.07,323.9,636.14,239.94,636.14" fill="#B4161B" fill-rule="evenodd"/>
    <path d="M239.94,307.64c-32.1,0-61.87,9.96-86.4,26.94c39.9,27.27,67.13,72.79,70.62,125.08   h167.8C391.96,375.71,323.9,307.64,239.94,307.64" fill="#3BA446" fill-rule="evenodd"/>
    <path d="M565.45,636.14c83.96,0,152.02-68.07,152.02-152.02H413.43   C413.43,568.07,481.5,636.14,565.45,636.14" fill="#005D95" fill-rule="evenodd"/>
    <path d="M489.78,383.32c42.16,0,76.34,34.18,76.34,76.34H413.43   C413.43,417.51,447.61,383.32,489.78,383.32" fill="#EEBF35" fill-rule="evenodd"/>
    <path d="M489.78,560.46c42.16,0,76.34-34.18,76.34-76.34H413.43   C413.43,526.28,447.61,560.46,489.78,560.46" fill="#1A73B1" fill-rule="evenodd"/>
    <path d="M315.62,560.46c-42.16,0-76.34-34.18-76.34-76.34h152.68   C391.96,526.28,357.78,560.46,315.62,560.46" fill="#D51B22" fill-rule="evenodd"/>
    <path d="M315.62,383.32c-42.16,0-76.34,34.18-76.34,76.34h152.68   C391.96,417.51,357.78,383.32,315.62,383.32" fill="#47B74F" fill-rule="evenodd"/>
    <g>
      <path d="M836.13,270.22c-1.69,58.52-87.03,58.61-88.68,0C749.05,211.34,834.51,211.46,836.13,270.22z     M754.39,270.22c0.94,49.22,73.77,49.18,74.71,0C828.14,220.78,755.34,220.77,754.39,270.22z M782.34,274.35v21.09h-8.09v-51.15    c8.36,0.39,26.22-1.72,32.39,3.74c8.44,6.15,6.03,21.99-4.53,24.92l13.36,22.5h-8.7l-11.87-21.27    C792.31,274.52,785.09,274.28,782.34,274.35z M803.17,259.05c0.27-10.67-13.16-9.18-20.83-9.14v18.9    C790.3,269.02,803.52,270.01,803.17,259.05z" fill="#A7A9AC"/>
    </g>
    <circle cx="627.5" cy="391.5" fill="#FFFFFF" r="25"/>
  </g>
</svg>