<?xml version="1.0"?><svg version="1.2" baseProfile="tiny-ps" viewBox="0 0 230 230" xmlns="http://www.w3.org/2000/svg" xmlns:xlink="http://www.w3.org/1999/xlink"><title>Slogan Social</title><g><g fill="#f8f7f7" transform="matrix(.1 0 0 -.1 0 230)"><path d="M0 1150V0h2300v2300H0V1150z"/></g><g fill="#FFB600" transform="matrix(.1 0 0 -.1 0 230)"><path d="m846 2122-30-7-8-30-7-30-66-23-65-24v-49l15-5c8-4 15-12 15-20v-14h31l5 15 6 15h61l-27-21-27-21 5-14c3-8 3-21 0-29l-6-15-38 6-37 6-7-11-7-11 13-2c7 0 18-2 23-3 6-2 16-3 23-4l13-1-6-10-6-10h22l-6-10-6-10h26l-25-20c-14-11-31-20-39-20h-13l6-15 5-15H500v-21l-27 3-27 3-14-28-14-28-81 1c-45 1-104 1-132 1l-50-1 15-10 15-10h-37l5-22 6-22-9-11-9-11 13-52 14-52h-14c-8 0-14-4-14-10 0-12 45-24 65-17l14 6 6-10 7-10 56 5c31 3 81 5 111 5l53 1-5 14-6 15 14-5 14-6-5-13c-3-8-15-16-27-18l-22-4 26-2 27-1 6-16c4-9 4-20 0-23-3-3-77-7-165-9l-159-3v-21l14 5 15 6 38-12 38-11-50-7-50-6 185-2c102-2 180-5 173-7l-12-5 6-15 5-14h-61l-6-10-6-10h10c6 0 11-4 11-10 0-5-7-10-15-10s-15 5-15 10v10l-27-4c-16-3-43-2-62 2l-35 8-4 13-5 14 17-6 16-6 22 8 23 9-18 7-17 7-38-6c-20-4-52-9-69-12l-33-6 6-9c3-5 17-9 32-10l27-1-25-8-25-7 30-5 30-5-30 2c-16 2-40 5-53 8l-23 6 6-10 6-9h-41v-20h345l-44-20-43-20h-55c-30 0-62-4-71-9l-17-9-106-5-105-5-22-13-22-14v-71l25-34c31-42 75-85 95-93l15-5-24-1-25-1 10-9 9-9 115-6c63-3 123-6 133-6l17-1v-14c0-8 9-30 19-49l20-34-17-6c-9-3-25-11-35-18l-18-13-8 14-9 14-17-7-18-7 23-24 23-25h-53v-19l50-7 51-7 92-77c51-43 95-76 99-73 5 2 8 13 8 24v20l15 5 15 6v98h10c6 0 10 6 10 14s7 17 16 20l17 6-16 18-15 17 18 23c10 12 22 22 27 22s15 11 22 24l13 24-6 11-7 10 16 30c8 17 15 35 15 42v11l-94-6-94-6-6 15c-3 8-10 15-15 15h-10l6-17 6-16-11 7-12 7-35-10-35-9v14c0 9 5 25 12 37s13 30 15 40 14 40 28 68l26 50 27 10 27 11 100-6c55-3 109-6 120-8l19-3 19 40c11 22 24 43 31 47 6 4 11 18 12 30 0 13 1 36 2 51l2 28 10-6 10-6-6 16-6 15-22 5c-11 3-81 4-154 2l-132-3 6 20c3 12 12 34 20 50s14 35 14 43c0 7 4 13 9 13h10l7 45c3 25 10 48 16 51l9 6 12-10 12-10 80 3c45 1 91 5 102 9l22 7 21-11 22-12 20 19c23 21 52 75 62 116l6 27h32l-2 33c-1 17-2 45-1 60l1 29 18 5 19 5-5 24-4 25 15 17c8 9 18 31 21 48l7 30 100 2c55 0 104 4 110 8l11 6-7-48-7-49-28-46-28-47-7-43c-4-24-13-57-20-74-7-16-16-42-19-57l-6-28h-40v-9c0-16 30-41 56-47 13-4 49-4 79 0l55 6 26 16 25 17-5 12-4 12 23 41 23 41 7 43c3 24 9 51 12 61l5 18 19-6 19-6v10c0 5-5 13-12 17l-11 7 14 11 14 11 2 34c1 18 8 45 14 60l12 26 106 1h106l-1 47c0 26-3 49-6 52-6 6-192 12-608 19l-275 4-29-6zm102-91 14-8-44-19c-24-10-46-20-49-22-4-1-9 4-13 13l-6 16 18-3 17-3-2 12-3 12 14-5 14-5 7 10c7 13 15 14 33 2zm-138-63v-8H710v15h50l50 1v-8zm190-8c0-5-5-10-11-10h-10l6 10c3 6 8 10 11 10 2 0 4-4 4-10zm408-171-4-24-5 33-6 33 10-10 9-9-4-23zm-661-65c-3-3-12-4-19-1l-13 5 19 1c11 1 17-2 13-5zm70-80c-3-3-12-4-19-1l-13 5 19 1c11 1 17-2 13-5zm-510-200c-3-3-12-4-19-1l-13 5 19 1c11 1 17-2 13-5zm486-141c-13-2-35-2-50 0l-28 4h100l-22-4zm-133-92v-8l-52-6-52-6-10 8c-6 5-22 11-36 14l-25 4 88 2 87 1v-9zm-60-399v-9l-32-1-32-1 14 9c19 12 50 13 50 2zm-152-68c5-9 11-15 13-14s18-4 34-10l30-12 27 10 26 10-5-15-6-15-45 6c-25 3-77 7-116 8l-71 1 33 4 33 4 12 20c14 23 23 24 35 3zm72 6 15-10h-54l-6 10-6 10h18c10 0 25-5 33-10zm60 0c0-5-5-10-11-10h-10l6 10c3 6 8 10 11 10 2 0 4-4 4-10zm35-30 6-10h-10c-6 0-11 5-11 10 0 6 2 10 4 10 3 0 8-4 11-10zm-195 10c0-5 5-10 10-10 6 0 10 5 10 10 0 6-4 10-10 10-5 0-10-4-10-10zm196 1252c-3-3-6-13-6-22v-18l32-15c18-9 36-13 41-10l9 6-13 8c-8 5-22 9-31 9h-18v29l18 3 17 4-22 6c-12 3-24 3-27 0zm1153-14c-1-7-2-17-4-23-1-5-3-17-3-26l-2-17-16 2-17 1-4-44c-2-25-11-60-19-79s-14-45-14-57v-22l-21-27c-12-15-19-30-15-33 8-8-14-34-24-28-4 3-13-1-19-9l-11-13 6-17 6-16h124l10 10 10 10 37-15c20-8 41-15 48-15h11l-5 13-4 12 39 3 40 3-6-10-6-9 36-22 35-23-10-10-10-10-16 13-16 13-24-11-24-11-6-28c-4-15-10-36-16-45-5-10-9-26-9-37 0-10-6-23-12-27l-13-9-35 2c-19 2-52 3-72 3h-38v22l-13-10-13-11-49-3-50-3-21-44-22-45-21-8-21-7v-43c0-24 4-50 10-58l9-14 18 17 19 16 39-10 38-11 89-1 88-2v-35l-20-12-20-13v-17c0-9-8-42-17-72l-17-55-28-12-29-12-12 12c-6 6-18 11-26 11h-16l15-10 15-10h-73l-4 12-4 12-53 12-52 11-44-5-44-4 6-65 6-64-22-29-21-29v-23c0-29-26-112-51-160-10-20-19-48-19-61v-25l-42-4-43-5-18 9-17 9-57-11c-31-5-58-8-60-6-3 2 0 12 5 23 6 10 22 52 37 93 14 41 32 86 39 100 8 14 19 50 27 80 13 56 34 91 51 87 6-1 13 4 15 11l5 12h-32v10c0 6-12 22-27 36l-26 24-18-16-19-17-41 6-42 5-8 14-9 13-10-15c-5-8-12-31-15-50-4-19-10-44-14-55s-6-26-4-32l5-13 24 6 24 6 1-18c3-41-4-100-13-111l-9-11-43 1-43 2 4 12 5 13h-19l-7-49-6-48-21-18-20-19 6-26 6-27-16-13-17-14-41 11-41 11-17-8-16-9-38 6-38 6 4-11c2-6 92-83 199-171l195-160 3 14 3 14 22 3 22 3-3 18-3 17h11c5 0 10-4 10-10v-10l23-1 22-1-25-7-25-7 12-7 13-8 76 16 76 16 14-12 15-12 13 18 13 18 9-16 9-15 60-3 59-3 8 32 9 32h49c54 0 55-1 40-30l-10-19 32 11c39 13 48 24 48 58v26l186 219c102 121 191 220 197 221 32 3 37 5 37 14 0 6 10 21 23 33l22 23 28-3 27-2v20l16-3 17-3 4 13 5 12h-92v10c0 5 7 13 16 18l16 9-16 16-16 16 6 16 7 16 21-5c11-2 33-8 49-11l27-7v52h28l27 1-17 12-16 13 16 11 17 10-32 33-32 33-7-17-6-17-14 11-13 11-63 5-63 4-16 21-16 21 2 29 2 29h-22c-12 0-37 5-56 12l-34 12 30 7c17 4 72 7 123 8l92 1v9c0 6-4 13-10 16-5 3-10 10-10 16v9h48l6 32 6 33-10 3c-5 2-10 8-10 13v9h40v20h-17c-10 0-27 7-37 15-11 8-30 15-42 15s-31 3-41 8l-18 7 100 5 100 5-37 18-37 17-15-6-16-6v23l-27-2c-16-1-39-1-53-1l-24 2 12 12c16 16 15 45 0 51l-13 5 25 1 25 1-23 18-23 18 22 1c29 3 34 10 19 28l-12 15-27 1-26 2 23 4 23 5 12-11 13-10 14 10 15 9 98-6 97-7v24l-55-2c-30-1-58 0-62 4l-6 7h43v10c0 6-7 10-15 10h-15v31l-19-11c-24-12-41-13-61 0l-14 9 23 20c27 24 35 25 61 11l19-10 43 6 42 7-20 7c-10 4-43 11-71 15l-53 7v28h66l20 15 19 15-15 10-15 10h-196l3 18c2 11-3 30-10 43l-13 24-35 18-35 17h-139l-1-12zm41-88c0-5-7-10-15-10s-15 5-15 10c0 6 7 10 15 10s15-4 15-10zm245-85 50-14-45 5c-71 8-79 10-86 17l-7 7 19-1c10 0 42-7 69-14zm-35-56c0-5-7-9-15-9h-15v29l15-5c8-4 15-10 15-15zm-60-804c-7-8-17-15-22-15h-10l12 15c7 8 17 15 22 15h10l-12-15zm20-25c0-5-2-10-4-10-3 0-8 5-11 10l-6 10h10c6 0 11-4 11-10zm-205-29c-6-5-28-11-49-13l-39-3-4 13-5 12h106l-9-9zm148-28-3-23h75l-14-9-13-9 18-11 19-10-19-1h-18l6-15 5-15h-10c-6 0-17 7-25 15l-15 15 18 1 18 1-15 5c-8 4-20 13-26 21l-11 15-59-2c-32-1-68-4-79-8l-20-6 20 22 19 23 4-11 4-11h79l-6 21-7 21 29-4 28-3-2-22zm77 1c0-2-9-4-21-4h-20l6 10 6 9 14-6c8-3 15-7 15-9zm-325-14 6-10h-46l15 10c19 12 18 12 25 0zm52-6c-3-3-12-4-19-1l-13 5 19 1c11 1 17-2 13-5zm168 26c3-5 10-10 16-10 5 0 9 5 9 10 0 6-7 10-16 10h-15l6-10zm240 730-6-10h51v20h-19c-11 0-23-4-26-10zm-847-215c-3-3-41-7-84-8l-78-2-48-95c-26-52-47-101-47-107l-1-13 18-1c9-1 53-2 97-3l80-2 27 13 28 13 5 28c3 15 10 47 16 72l10 45 22 23 21 23-14 9c-17 11-44 13-52 5zM913 765c-3-9-3-19 1-22l7-7 22 22 21 22h-45l-6-15z"/></g><g fill="#02F1E5" transform="matrix(.1 0 0 -.1 0 230)"><path d="m846 2122-30-7-8-30-7-30-66-23-65-24v-49l15-5c8-4 15-12 15-20v-14h31l5 15 6 15h61l-27-21-27-21 5-14c3-8 3-21 0-29l-6-15-38 6-37 6-7-11-7-11 13-2c7 0 18-2 23-3 6-2 16-3 23-4l13-1-6-10-6-10h22l-6-10-6-10h26l-25-20c-14-11-31-20-39-20h-13l6-15 5-15H500v-21l-27 3-27 3-12-24-12-24 47-37c51-41 138-90 158-90h13v24c0 14 5 28 10 31l11 7 12-10 12-10 80 3c45 1 91 5 102 9l22 7 21-11 22-12 20 19c23 21 52 75 62 116l6 27h32l-2 33c-1 17-2 45-1 60l1 29 18 5 19 5-5 24-4 25 15 17c8 9 18 31 21 48l7 30 100 2c55 0 104 4 110 8l11 6-7-48-7-49-28-46-28-47-7-43c-4-24-13-57-20-74-7-16-16-42-19-57l-6-28h-40v-9c0-16 30-41 56-47 13-4 49-4 79 0l55 6 26 16 25 17-5 12-4 12 23 41 23 41 7 43c3 24 9 51 12 61l5 18 19-6 19-6v10c0 5-5 13-12 17l-11 7 14 11 14 11 2 34c1 18 8 45 14 60l12 26 106 1h106l-1 47c0 26-3 49-6 52-6 6-192 12-608 19l-275 4-29-6zm102-91 14-8-44-19c-24-10-46-20-49-22-4-1-9 4-13 13l-6 16 18-3 17-3-2 12-3 12 14-5 14-5 7 10c7 13 15 14 33 2zm-138-63v-8H710v15h50l50 1v-8zm190-8c0-5-5-10-11-10h-10l6 10c3 6 8 10 11 10 2 0 4-4 4-10zm408-171-4-24-5 33-6 33 10-10 9-9-4-23zm-661-65c-3-3-12-4-19-1l-13 5 19 1c11 1 17-2 13-5zm70-80c-3-3-12-4-19-1l-13 5 19 1c11 1 17-2 13-5zm-201 338c-3-3-6-13-6-22v-18l32-15c18-9 36-13 41-10l9 6-13 8c-8 5-22 9-31 9h-18v29l18 3 17 4-22 6c-12 3-24 3-27 0zm1153-14c-1-7-2-17-4-23-1-5-3-17-3-26l-2-17-16 2-17 1-4-44c-2-25-11-60-19-79s-14-45-14-57v-22l-21-27c-12-15-19-30-15-33 8-8-14-34-24-28-4 3-13-1-19-9l-11-13 6-17 6-16h124l10 10 10 10 37-15c20-8 41-15 48-15h11l-5 13-4 12 39 3 40 3-6-10-6-9 36-22 35-23-10-10-10-10-16 13-16 13-24-11-24-11-6-28c-4-15-10-36-16-45-5-10-9-26-9-37 0-10-6-23-12-27l-13-9-35 2c-19 2-52 3-72 3h-38v22l-13-10-13-11-49-3-50-3-21-44-22-45-21-8-21-7v-43c0-24 4-50 10-58l9-14 18 17 19 16 39-10 38-11 89-1 88-2v-35l-20-12-20-13v-17c0-9-8-42-17-72l-17-55-28-12-29-12-12 12c-6 6-18 11-26 11h-16l15-10 15-10h-68l-12 17-12 16-89 1-89 1 3-62 4-62-21-34c-12-19-21-44-21-56 0-27-37-139-56-168-8-12-14-33-14-46v-24l-46-7-47-6-13 11-13 11-23-8c-25-8-50-12-85-13l-23-1-1-22v-23l-7 18-7 17-50-41c-27-22-68-52-92-66s-43-28-43-33c0-4 45-45 100-90l100-81v30l23 3 22 3-3 18-3 17h11c5 0 10-4 10-10v-10l23-1 22-1-25-7-25-7 12-7 13-8 76 16 76 16 14-12 15-12 13 18 13 18 9-16 9-15 60-3 59-3 8 32 9 32h49c54 0 55-1 40-30l-10-19 32 11c39 13 48 24 48 58v26l186 219c102 121 191 220 197 221 32 3 37 5 37 14 0 6 10 21 23 33l22 23 28-3 27-2v20l16-3 17-3 4 13 5 12h-92v10c0 5 7 13 16 18l16 9-16 16-16 16 6 16 7 16 21-5c11-2 33-8 49-11l27-7v52h28l27 1-17 12-16 13 16 11 17 10-32 33-32 33-7-17-6-17-14 11-13 11-63 5-63 4-16 21-16 21 2 29 2 29h-22c-12 0-37 5-56 12l-34 12 30 7c17 4 72 7 123 8l92 1v9c0 6-4 13-10 16-5 3-10 10-10 16v9h48l6 32 6 33-10 3c-5 2-10 8-10 13v9h40v20h-17c-10 0-27 7-37 15-11 8-30 15-42 15s-31 3-41 8l-18 7 100 5 100 5-37 18-37 17-15-6-16-6v23l-27-2c-16-1-39-1-53-1l-24 2 12 12c16 16 15 45 0 51l-13 5 25 1 25 1-23 18-23 18 22 1c29 3 34 10 19 28l-12 15-27 1-26 2 23 4 23 5 12-11 13-10 14 10 15 9 98-6 97-7v24l-55-2c-30-1-58 0-62 4l-6 7h43v10c0 6-7 10-15 10h-15v31l-19-11c-24-12-41-13-61 0l-14 9 23 20c27 24 35 25 61 11l19-10 43 6 42 7-20 7c-10 4-43 11-71 15l-53 7v28h66l20 15 19 15-15 10-15 10h-196l3 18c2 11-3 30-10 43l-13 24-35 18-35 17h-139l-1-12zm41-88c0-5-7-10-15-10s-15 5-15 10c0 6 7 10 15 10s15-4 15-10zm245-85 50-14-45 5c-71 8-79 10-86 17l-7 7 19-1c10 0 42-7 69-14zm-35-56c0-5-7-9-15-9h-15v29l15-5c8-4 15-10 15-15zm-60-804c-7-8-17-15-22-15h-10l12 15c7 8 17 15 22 15h10l-12-15zm20-25c0-5-2-10-4-10-3 0-8 5-11 10l-6 10h10c6 0 11-4 11-10zm-205-29c-6-5-28-11-49-13l-39-3-4 13-5 12h106l-9-9zm148-28-3-23h75l-14-9-13-9 18-11 19-10-19-1h-18l6-15 5-15h-10c-6 0-17 7-25 15l-15 15 18 1 18 1-15 5c-8 4-20 13-26 21l-11 15-59-2c-32-1-68-4-79-8l-20-6 20 22 19 23 4-11 4-11h79l-6 21-7 21 29-4 28-3-2-22zm77 1c0-2-9-4-21-4h-20l6 10 6 9 14-6c8-3 15-7 15-9zm-325-14 6-10h-46l15 10c19 12 18 12 25 0zm52-6c-3-3-12-4-19-1l-13 5 19 1c11 1 17-2 13-5zm168 26c3-5 10-10 16-10 5 0 9 5 9 10 0 6-7 10-16 10h-15l6-10zm240 730-6-10h51v20h-19c-11 0-23-4-26-10zm-890-220c-27-5-64-6-81-3l-32 5-7-13-8-12 10 6 10 6 64-45c35-25 63-50 62-55-2-5 2-9 7-9h10l1-27 2-28 4 25c8 51 26 96 46 118l21 23-14 9c-17 11-23 11-95 0z"/></g><g fill="#FF3278" transform="matrix(.1 0 0 -.1 0 230)"><path d="m1460 2111-45-6v-10c-1-14-38-109-45-115-4-3-9-13-13-23l-7-18-12 7-11 7 7-18 7-18-9-6c-4-3-20-27-35-52l-26-46-7-44c-4-24-13-53-19-64-7-11-15-32-19-47l-6-27-20-6-19-6 5-12c2-7 16-17 30-24l26-12 64 4 64 4 25 17 25 16-2 12c-3 15 24 86 33 86 4 0 7 15 8 33 0 17 4 46 9 62l9 30 21-1c23-1 29 10 12 21l-11 7 12 14c7 9 14 30 16 47 2 18 8 43 13 57l10 25 108 1 107 1-1 42c0 23-5 46-10 50l-9 9-120 5c-66 3-140 2-165-2zm-50-318c0-45-5-40-13 10l-6 37 10-5 9-6v-36zm356 142-7-35h-26l-12-52c-20-92-40-160-53-176-7-8-13-20-13-26-1-6-5-19-9-28l-8-17-13 5-13 5-6-9c-3-6-3-17 0-26l6-16h62c35 0 66 3 70 7s21 8 38 9l31 2-13-8-12-7 24-6c12-4 27-7 32-7h8l-5 13-5 13 39 3 39 2-2-11-3-11 30-17c17-9 32-18 34-20 3-1 0-7-7-14l-11-11-16 13-16 13-24-11-24-11-6-28c-4-15-10-36-16-45-5-10-9-26-9-37 0-10-6-23-12-27l-13-9-35 2c-19 2-52 3-72 3h-38v22l-13-10-13-11-49-3-50-3-21-44-22-45-21-8-21-7v-43c0-24 4-50 10-58l9-14 18 17 19 16 39-10 38-11 89-1 88-2v-35l-20-12-20-13v-17c0-9-8-42-17-72l-17-55-28-12-29-12-12 12c-6 6-18 11-26 11h-16l15-10 15-10h-68l-12 17-12 16-89 1-89 1 3-62 4-62-21-34c-12-19-21-44-21-56 0-27-37-139-56-168-8-12-14-33-14-46v-24l-46-7-47-6-13 11-13 11-23-8c-25-8-50-12-85-13l-23-1-1-22v-23l-7 18-7 17-50-41c-27-22-68-52-92-66s-43-28-43-33c0-4 45-45 100-90l100-81v30l23 3 22 3-3 17-3 18h11c5 0 10-4 10-10v-10l23-1 22-1-25-7-25-7 12-7 13-8 76 16 76 16 14-12 15-12 13 18 13 18 9-16 9-15 60-3 59-3 8 32 9 32h49c54 0 55-1 40-30l-10-19 32 11c39 13 48 24 48 58v26l186 219c102 121 191 220 197 221 32 3 37 5 37 14 0 6 10 21 23 33l22 23 28-3 27-2v20l16-3 17-3 4 13 5 12h-92v10c0 5 7 13 16 18l16 9-16 16-16 16 6 16 7 16 21-5c11-2 33-8 49-11l27-7v52h28l27 1-17 12-16 13 16 11 17 10-32 33-32 33-7-17-6-17-14 11-13 11-63 5-63 4-16 21-16 21 2 29 2 29h-22c-12 0-37 5-56 12l-34 12 30 7c17 4 72 7 123 8l92 1v9c0 6-4 13-10 16-5 3-10 10-10 16v9h48l6 32 6 33-10 3c-5 2-10 8-10 13v9h40v20h-17c-10 0-27 7-37 15-11 8-30 15-42 15s-31 3-41 8l-18 7 100 5 100 5-37 18-37 17-15-6-16-6v23l-27-2c-16-1-39-1-53-1l-24 2 12 12c7 7 12 20 12 30v18l-12 1c-7 1-2 5 12 9l25 8-22 7c-29 9-30 20-2 22 12 1 24 4 27 7 8 9-18 35-41 39-12 2-6 3 13 2 41-3 170 25 170 37 0 4-7 8-15 8s-15 5-15 10v11l-32-6-33-5-15 9-14 10 23 20c27 24 35 25 62 11l19-11 37 7 37 7-19 7c-11 4-43 11-72 15l-52 7 6 14 5 14h65l17 19 17 18-53 6c-29 4-79 7-112 7h-58l5 20 5 20-20 25-20 25-8-5-8-5-6 15-5 15h-169l-6-35zm44-55c0-5-7-10-15-10s-15 5-15 10c0 6 7 10 15 10s15-4 15-10zm245-84 50-14-25-1c-14-1-39 3-56 8l-31 9-13-8-12-7 26-21c30-23 33-32 11-32h-15v14c0 7-6 19-14 26l-15 11 6 15 5 14h17c9 0 39-7 66-14zm-5-40c0-3-4-8-10-11l-10-6v10c0 6 5 11 10 11 6 0 10-2 10-4zm-90-821c-7-8-17-15-22-15h-10l12 15c7 8 17 15 22 15h10l-12-15zm20-25c0-5-2-10-4-10-3 0-8 5-11 10l-6 10h10c6 0 11-4 11-10zm-205-29c-6-5-28-11-49-13l-39-3-4 13-5 12h106l-9-9zm148-28-3-23h75l-14-9-13-9 18-11 19-10-19-1h-18l6-15 5-15h-10c-6 0-17 7-25 15l-15 15 18 1 18 1-15 5c-8 4-20 13-26 21l-11 15-59-2c-32-1-68-4-79-8l-20-6 20 22 19 23 4-11 4-11h79l-6 21-7 21 29-4 28-3-2-22zm77 1c0-2-9-4-21-4h-20l6 10 6 9 14-6c8-3 15-7 15-9zm-325-14 6-10h-46l15 10c19 12 18 12 25 0zm52-6c-3-3-12-4-19-1l-13 5 19 1c11 1 17-2 13-5zm168 26c3-5 10-10 16-10 5 0 9 5 9 10 0 6-7 10-16 10h-15l6-10zm281 791-6-9 55 1 55 1v16h-99l-5-9zm-41-61-6-10h51v20h-19c-11 0-23-4-26-10zm-890-220c-27-5-64-6-81-3l-32 5-7-13-8-12 10 6 10 6 64-45c35-25 63-50 62-55-2-5 2-9 7-9h10l1-27 2-28 4 25c8 51 26 96 46 118l21 23-14 9c-17 11-23 11-95 0z"/></g><g fill="#D015FF" transform="matrix(.1 0 0 -.1 0 230)"><path d="m1460 2111-45-6v-10c-1-14-38-109-45-115-4-3-9-13-13-23l-7-18-12 7-11 7 7-18 7-18-9-6c-4-3-20-27-35-52l-26-46-7-44c-4-24-13-53-19-64-7-11-15-32-19-47l-6-27-20-6-19-6 5-12c2-7 16-17 30-24l26-12 64 4 64 4 25 17 25 16-2 12c-3 15 24 86 33 86 4 0 7 15 8 33 0 17 4 46 9 62l9 30 21-1c23-1 29 10 12 21l-11 7 12 14c7 9 14 30 16 47 2 18 8 43 13 57l10 25 108 1 107 1-1 42c0 23-5 46-10 50l-9 9-120 5c-66 3-140 2-165-2zm-50-318c0-45-5-40-13 10l-6 37 10-5 9-6v-36zm356 142-7-35h-26l-12-52c-20-92-40-160-53-176-7-8-13-20-13-26-1-6-5-19-9-28l-8-17-13 5-13 5-6-9c-3-6-3-17 0-26l6-16h62c35 0 66 3 70 7s21 8 38 9l31 2-13-8-12-7 24-6c12-4 27-7 32-7h8l-5 13-5 13 39 3 39 2-2-11-3-11 30-17c17-9 32-18 34-20 3-1 0-7-7-14l-11-11-16 13-16 13-24-11-24-11-6-28c-4-15-10-36-16-45-5-10-9-26-9-37 0-10-6-23-12-27l-13-9-35 2c-19 2-52 3-72 3h-38v22l-13-10-13-11-49-3-50-3-21-44-22-45-21-8-21-7v-91h35l-15-10c-8-5-11-10-6-10s17 7 26 15l16 14 39-10 38-11 89-1 88-2v-35l-20-12-20-13v-43l23-15c31-21 83-72 102-101l17-25-7-11-7-12-27 7c-14 4-34 8-43 10l-16 4-6-15-5-14h-60l-6-10c-3-5-14-10-23-9l-17 1 12 4 12 5-5 13-5 12-34-4-35-4v-19l9 6 10 5 7-11 7-12-18-13-17-13 5-13 5-13 1 13 1 13 12-7 11-7-6 10-7 11 15 12 14 12 11-7c6-4 25-8 42-9l30-2-18 13-18 13h26c15 0 34 3 44 7l17 6-7-11-7-12 15 6c9 3 16 9 16 13s7 8 15 8 15-4 15-9c0-4 7-8 15-8s15 5 15 11v10l27-3 26-3 4-11c2-7-3-19-11-27l-16-15 11-4c7-2 12-13 13-23 1-11 6-33 10-48l8-28-18-23c-11-12-4-6 14 13 18 20 39 36 45 37 32 3 37 5 37 14 0 6 10 21 23 33l22 23 28-3 27-2v20l16-3 17-3 4 13 5 12h-92v10c0 5 7 13 16 18l16 9-16 16-16 16 6 16 7 16 21-5c11-2 33-8 49-11l27-7v52h28l27 1-17 12-16 13 16 11 17 10-32 33-32 33-7-17-6-17-14 11-13 11-63 5-63 4-16 21-16 21 2 29 2 29h-22c-12 0-37 5-56 12l-34 12 30 7c17 4 72 7 123 8l92 1v9c0 6-4 13-10 16-5 3-10 10-10 16v9h48l6 32 6 33-10 3c-5 2-10 8-10 13v9h40v20h-17c-10 0-27 7-37 15-11 8-30 15-42 15s-31 3-41 8l-18 7 100 5 100 5-37 18-37 17-15-6-16-6v23l-27-2c-16-1-39-1-53-1l-24 2 12 12c7 7 12 20 12 30v18l-12 1c-7 1-2 5 12 9l25 8-22 7c-29 9-30 20-2 22 12 1 24 4 27 7 8 9-18 35-41 39-12 2-6 3 13 2 41-3 170 25 170 37 0 4-7 8-15 8s-15 5-15 10v11l-32-6-33-5-15 9-14 10 23 20c27 24 35 25 62 11l19-11 37 7 37 7-19 7c-11 4-43 11-72 15l-52 7 6 14 5 14h65l17 19 17 18-53 6c-29 4-79 7-112 7h-58l5 20 5 20-20 25-20 25-8-5-8-5-6 15-5 15h-169l-6-35zm44-55c0-5-7-10-15-10s-15 5-15 10c0 6 7 10 15 10s15-4 15-10zm245-84 50-14-25-1c-14-1-39 3-56 8l-31 9-13-8-12-7 26-21c30-23 33-32 11-32h-15v14c0 7-6 19-14 26l-15 11 6 15 5 14h17c9 0 39-7 66-14zm-5-40c0-3-4-8-10-11l-10-6v10c0 6 5 11 10 11 6 0 10-2 10-4zm-90-821c-7-8-17-15-22-15h-10l12 15c7 8 17 15 22 15h10l-12-15zm20-25c0-5-2-10-4-10-3 0-8 5-11 10l-6 10h10c6 0 11-4 11-10zm20-56c0-2-9-4-21-4h-20l6 10 6 9 14-6c8-3 15-7 15-9zm-19-33-13-9 18-11 19-10-19-1h-18l6-15 5-15h-10c-6 0-17 7-25 15l-15 15 18 1 18 1-17 5c-9 2-19 11-22 19l-5 14h74l-14-9zm195 830-6-9 55 1 55 1v16h-99l-5-9zm-41-61-6-10h51v20h-19c-11 0-23-4-26-10zm-890-220c-27-5-64-6-81-3l-32 5-5-9-6-10h13c7 0 43-21 79-47l67-48 1-31 2-32 4 25c8 51 26 96 46 118l21 23-14 9c-17 11-23 11-95 0zm481-355c-9-26-7-32 5-12 6 10 9 21 6 23-2 3-7-2-11-11zm-16-52c0-4 4-15 10-23l9-14 7 6 6 7-16 16c-9 9-16 13-16 8zm-220-17c0-2 13-6 29-8l30-4-5 8c-5 8-54 12-54 4zm316-11-5-15h9c6 0 10 6 10 13l1 12 10-17c11-20 29-24 29-7v10l-10-6-10-6v31h-14c-8 0-16-7-20-15zm-196-5c8-5 19-10 23-10h8l-6 10c-3 6-14 10-23 10h-17l15-10zm50-10-15-10h12c6 0 15 5 18 10 8 12 4 12-15 0zm235-60c3-5 10-10 16-10 5 0 9 5 9 10 0 6-7 10-16 10h-15l6-10zm-77-17c12-2 30-2 40 0l17 5-40-1h-40l23-4zm37-13-30-8 27-1 27-1 6 10c3 6 5 9 3 9-2-1-16-5-33-9zm-251-290V355l3 93c2 50 2 134 0 185l-3 92V540zm265 93-24-28 28 24c15 14 27 26 27 28 0 8-8 1-31-24zm-55-65-19-23 23 19c21 18 27 26 19 26-2 0-12-10-23-22zm-50-60-19-23 23 19c21 18 27 26 19 26-2 0-12-10-23-22zm-55-65-14-18 18 14c16 13 21 21 13 21-2 0-10-8-17-17zm-50-60-14-18 18 14c16 13 21 21 13 21-2 0-10-8-17-17zm-64-55c-4-14-5-39-2-54l4-29 2 37 1 36 10 4 9 3-9 14-9 15-6-26zm-38-69 7-23 4 13c2 7-1 18-6 23l-11 11 6-24zm-547-19c0-13 20-13 40 0l15 10h-55v-10z"/></g><g fill="#0D44EB" transform="matrix(.1 0 0 -.1 0 230)"><path d="m1460 2111-45-6v-10c-1-14-38-109-45-115-4-3-9-13-13-23l-7-18-12 7-11 7 7-18 7-18-9-6c-4-3-20-27-35-52l-26-46-7-44c-4-24-13-53-19-64-7-11-15-32-19-47l-6-27-20-6-19-6 5-12c2-7 16-17 30-24l26-12 64 4 64 4 25 17 25 16-2 12c-3 15 24 86 33 86 4 0 7 15 8 33 0 17 4 46 9 62l9 30 21-1c23-1 29 10 12 21l-11 7 12 14c7 9 14 30 16 47 2 18 8 43 13 57l10 25 108 1 107 1-1 42c0 23-5 46-10 50l-9 9-120 5c-66 3-140 2-165-2zm-50-318c0-45-5-40-13 10l-6 37 10-5 9-6v-36zm356 142-7-35h-26l-12-52c-20-92-40-160-53-176-7-8-13-20-13-26-1-6-5-19-9-28l-8-17-13 5-13 5-6-9c-3-6-3-17 0-26l6-16h128v18l35-1 35-1-11-7-11-6 24-6c12-4 26-7 30-7h7l-5 15-6 15h74l20-25c11-14 26-25 34-25h14v-15c0-17-14-19-40-5l-19 10-14-6-15-5-16-49c-9-27-16-55-16-63v-14l13-1c6-1 32-4 57-7 133-16 230-13 230 6 0 5-7 9-15 9s-23 4-33 9c-9 6-34 13-54 16-21 3-40 10-43 15l-6 10h191v9c0 11-57 26-84 22l-18-3 6 11 7 11h-41v-24l-12 12c-7 7-21 12-31 12h-19l11 14c13 16 11 37-4 48l-10 8h35v10c0 6-7 10-15 10-23 0-18 16 6 17 12 1 24 4 27 7 8 9-18 35-41 39-12 2-6 3 13 2 41-3 170 25 170 37 0 4-7 8-15 8s-15 5-15 10v11l-32-6-33-5-15 9-14 10 23 20c27 24 35 25 62 11l19-11 37 7 37 7-19 7c-11 4-43 11-72 15l-52 7 6 14 5 14h65l17 19 17 18-53 6c-29 4-79 7-112 7h-58l5 20 5 20-20 25-20 25-8-5-8-5-6 15-5 15h-169l-6-35zm44-55c0-5-7-10-15-10s-15 5-15 10c0 6 7 10 15 10s15-4 15-10zm245-84 50-14-25-1c-14-1-39 3-56 8l-31 9-13-8-12-7 26-21c30-23 33-32 11-32h-15v14c0 7-6 19-14 26l-15 11 6 15 5 14h17c9 0 39-7 66-14zm-5-40c0-3-4-8-10-11l-10-6v10c0 6 5 11 10 11 6 0 10-2 10-4zm126-105-6-9 55 1 55 1v16h-99l-5-9zm-36-61v-10h40v20h-40v-10z"/></g></g></svg>