<?xml version="1.0" encoding="utf-8"?>
<!-- Generator: Adobe Illustrator 24.1.0, SVG Export Plug-In . SVG Version: 6.00 Build 0)  -->
<svg version="1.2" baseProfile="tiny-ps" id="Layer_1" xmlns="http://www.w3.org/2000/svg" xmlns:xlink="http://www.w3.org/1999/xlink"
 viewBox="0 0 170 170" xml:space="preserve">
<title>LendingTree</title>
<g id="BIMI-Logo">
	<rect fill-rule="evenodd" fill="#101F30" width="170" height="170"/>
	<path id="Leaf" fill="#08C177" d="M134.2,34c-5.2,0.8-38.9,4.4-63.8,10.6C35,53.5,35.6,83.2,35.6,94.9v14c0,0,0,25,0,25.6
		c0,0.6,0.4,0.6,0.8,0.2c14.8-19.7,31.5-37.9,50-54.2c0,0,0.1-0.1-0.1,0c-10.6,3.3-20.8,7.7-30.5,13.1c0-2.8,0-4.7,0-5
		C55.7,68.5,67.6,63,81.6,59.1c11.5-3.2,33-5.1,33-5.1s-1.7,12.6-4,38.2C109,110.9,95.3,115,76.2,115H65.4
		c-8.6,12.4-9.7,19.9-9.7,19.9h21.1c40.2,0,49.1-17.8,51.1-44c2.4-33.4,5.8-52.8,6.8-56.4c0-0.1,0-0.3-0.1-0.4
		C134.4,34,134.3,34,134.2,34L134.2,34z"/>
</g>
</svg>
