<?xml version="1.0" encoding="iso-8859-1"?>
<!-- Generator: Adobe Illustrator 27.8.0, SVG Export Plug-In . SVG Version: 6.00 Build 0)  -->
<svg version="1.2" baseProfile="tiny-ps" id="Layer_1" xmlns="http://www.w3.org/2000/svg" xmlns:xlink="http://www.w3.org/1999/xlink"
	 viewBox="0 0 1080 1080" xml:space="preserve">
<title>Hudson Bond</title>
<rect fill="#FFFFFF" width="1080" height="1080"/>
<g>
	<polygon fill="#0096D6" points="374.104,35 144.203,328.274 407.942,504.461 671.402,235.892 671.402,235.614 671.588,235.738 
		671.681,235.614 	"/>
	<polygon fill="#50C8E8" points="407.957,776.741 407.957,1045 936.209,862.373 671.417,685.35 	"/>
	<polygon fill="#50C8E8" points="144.206,867.992 407.914,776.726 407.914,504.504 144.206,328.286 	"/>
	<polygon fill="#004990" points="144.206,868.132 144.206,868.008 143.773,868.132 407.945,1045 407.914,776.741 	"/>
	<polygon fill="#004990" points="144.206,867.992 144.206,868.147 407.914,776.726 	"/>
	<polygon fill="#0096D6" points="671.405,235.892 671.405,685.354 936.227,862.346 936.227,305.828 671.591,235.676 	"/>
	<polygon fill="#0096D6" points="671.402,235.892 671.588,235.676 671.402,235.614 	"/>
	<polygon fill="#50C8E8" points="374.104,35 671.681,235.614 671.433,115.865 	"/>
	<polygon fill="#004990" points="936.203,305.822 671.411,115.858 671.659,235.607 	"/>
</g>
</svg>
