<?xml version="1.0" encoding="utf-8"?>
<!-- Generator: Adobe Illustrator 25.2.3, SVG Export Plug-In . SVG Version: 6.00 Build 0)  -->
<svg version="1.2" baseProfile="tiny-ps" id="Layer_1" xmlns="http://www.w3.org/2000/svg" xmlns:xlink="http://www.w3.org/1999/xlink"
	  viewBox="0 0 85 85" xml:space="preserve"><title>Sezane</title>
	<rect x="0" y="0" fill="#FFFFFF" width="85" height="85"/>
	<g>
		<path fill="#010202" d="M13.3,47.7c-0.7,0-1.1-0.1-1.6-0.4c-0.2-0.1-0.2-0.1-0.3-0.1c-0.3,0,0,0.4-0.4,0.4c-0.1,0-0.3,0-0.3-0.1
			c0-1.4,0-2.2,0-2.4c0-0.1,0.1-0.1,0.2-0.1c0.1,0,0.3,0,0.3,0.1c0,1.4,1,2.2,2,2.2c0.8,0,1.2-0.4,1.2-1.1s-0.4-1-1.2-1.3l-0.7-0.3
			c-1-0.4-1.6-1-1.6-2c0-1.2,1-2.1,2.3-2.1c0.5,0,1,0.1,1.4,0.3c0.1,0,0.1,0,0.1,0c0.2,0,0-0.3,0.2-0.3c0.2,0,0.4,0,0.4,0.1
			c0,1,0,1.9,0,2c0,0.1-0.1,0.1-0.2,0.1c-0.1,0-0.2,0-0.2-0.1c0-0.9-0.5-1.7-1.5-1.7c-0.8,0-1.1,0.5-1.1,1c0,0.7,0.5,1,1.1,1.2
			l0.6,0.2c1.1,0.4,1.8,1.1,1.8,2.2C15.8,47,14.5,47.7,13.3,47.7"/>
		<path fill="#010202" d="M23.5,39.8c-0.1,0-0.4-0.1-0.4-0.2c0,0,0-0.1,0.1-0.1l1.6-2.1c0.1-0.1,0.3-0.2,0.6-0.2
			c0.4,0,0.9,0.1,0.9,0.3c0,0.1-0.1,0.2-0.2,0.3l-2.5,1.9C23.6,39.8,23.6,39.8,23.5,39.8 M21,47.5c0,0-0.1-0.1-0.1-0.2
			c0-0.1,0-0.3,0.1-0.3c0.7,0,0.9-0.1,0.9-0.8v-4.5c0-0.5-0.2-0.7-0.9-0.7c-0.1,0-0.1-0.1-0.1-0.2c0-0.1,0-0.3,0.1-0.3
			c0.5,0,1.1,0.1,1.7,0.1c1.8,0,3.5-0.1,4-0.1c0.1,0,0.1,0.1,0.1,0.2c0,0.8,0.1,1.5,0.1,1.7c0,0.1-0.1,0.1-0.3,0.1
			c-0.1,0-0.1,0-0.2-0.1c-0.1-0.8-0.6-1.4-1.9-1.4c-0.3,0-0.6,0-1,0c0,0.8-0.1,1.9-0.1,2.5c1.3,0,1.5-0.3,1.5-1
			c0-0.1,0.1-0.2,0.2-0.2c0.2,0,0.2,0,0.2,0.1c0,0.1-0.1,0.4-0.1,1.2c0,0.6,0.1,1.2,0.1,1.3c0,0.1-0.1,0.1-0.2,0.1
			c-0.1,0-0.2,0-0.2-0.1c0-0.8-0.2-1.1-1.5-1.1c0,0.4,0,0.8,0,1.1c0,0.5,0,0.9,0,1.1c0,0.4,0.2,0.7,1,0.7c1.6,0,2.2-0.5,2.3-1.8
			c0-0.1,0.1-0.1,0.2-0.1c0.1,0,0.2,0,0.2,0.1c0,0.2-0.1,1.2-0.1,2c0,0.2,0,0.3-0.2,0.3c-0.5,0-2.5-0.1-4.2-0.1
			C22.1,47.5,21.4,47.5,21,47.5"/>
		<path fill="#010202" d="M35.8,40.6c1.4,0,2.5,0,2.8,0c0.1,0,0.1,0.1,0.1,0.2c0,0.1,0,0.2,0,0.2c-0.5,0.7-3.8,5.2-4.3,5.9
			c0.8,0,1.7,0,2.4-0.1c0.9-0.1,1.5-0.6,1.5-1.8c0-0.1,0.1-0.2,0.3-0.2c0.2,0,0.3,0,0.3,0.1c0,0.3-0.1,1.6-0.1,2.3
			c0,0.2-0.1,0.3-0.3,0.3h-6c-0.1,0-0.2-0.2-0.2-0.3c0-0.1,0-0.1,0-0.2c0.9-1,3.7-5.1,4.3-5.8c-0.3,0-0.7,0-1.2,0
			c-1.5,0-2.1,0.6-2.2,1.6c0,0.1-0.2,0.1-0.2,0.1c-0.1,0-0.3-0.1-0.3-0.1c0-0.2,0.1-1.6,0.1-2c0-0.2,0.1-0.2,0.2-0.2
			C33,40.5,34.4,40.6,35.8,40.6"/>
		<path fill="#010202" d="M46.5,42.1c-0.2,0.5-0.6,1.7-1,2.6c0.2,0,0.7,0,1,0c0.3,0,0.7,0,1,0C47.1,43.9,46.6,42.6,46.5,42.1
			M46.4,45.3c-0.4,0-0.9,0-1.2,0L45,45.9c-0.1,0.2-0.2,0.4-0.2,0.6c0,0.3,0.2,0.5,0.7,0.5c0.1,0,0.1,0.1,0.1,0.2
			c0,0.1,0,0.3-0.1,0.3c-0.5,0-0.8,0-1.3,0c-0.5,0-0.9,0-1.2,0c0,0-0.1-0.1-0.1-0.3c0-0.1,0-0.2,0.1-0.2c0.5,0,0.7-0.2,1-0.8
			c0.2-0.3,2.2-5,2.4-5.7c0-0.1,0.2-0.2,0.5-0.2c0.3,0,0.5,0,0.5,0.2c0.2,0.6,2,5.1,2.3,5.6c0.4,0.7,0.5,0.8,1.1,0.8
			c0.1,0,0.1,0.1,0.1,0.2c0,0.1,0,0.3-0.1,0.3c-0.5,0-1.1,0-1.7,0c-0.5,0-1.2,0-1.8,0c0,0-0.1-0.1-0.1-0.2c0-0.1,0-0.3,0.1-0.3
			c0.5,0,0.8-0.2,0.8-0.4c0-0.1,0-0.2-0.1-0.3l-0.4-1C47.3,45.3,46.8,45.3,46.4,45.3"/>
		<path fill="#010202" d="M61.6,47.6c-0.2,0-0.4-0.1-0.5-0.2c-0.5-0.8-3.5-4.7-4.3-5.8c0,0.5,0,3,0,4.6c0,0.5,0.2,0.7,0.9,0.7
			c0.1,0,0.1,0.1,0.1,0.2c0,0.1,0,0.3-0.1,0.3c-0.5,0-0.7-0.1-1.3-0.1c-0.5,0-0.8,0.1-1.3,0.1c0,0-0.1-0.1-0.1-0.2
			c0-0.1,0-0.3,0.1-0.3c0.7,0,1-0.1,1-0.8l0-4.5c0-0.5-0.2-0.7-0.9-0.7c-0.1,0-0.1-0.1-0.1-0.2c0-0.1,0-0.3,0.1-0.3
			c0.5,0,0.8,0.1,1.4,0.1c0.5,0,0.8-0.1,1.2-0.1c0.1,0,0.2,0,0.2,0.1c0.8,1,2.5,3.3,3.5,4.7c0-0.6,0-2.6,0-3.6c0-0.5-0.2-0.7-0.9-0.7
			c-0.1,0-0.1-0.1-0.1-0.2c0-0.1,0-0.3,0.1-0.3c0.4,0,0.6,0.1,1.3,0.1c0.5,0,0.7-0.1,1.3-0.1c0,0,0.1,0.1,0.1,0.2
			c0,0.1,0,0.3-0.1,0.3c-0.7,0-1,0.1-1,0.8l0,5.6C62.1,47.6,61.8,47.6,61.6,47.6"/>
		<path fill="#010202" d="M68.1,47.5c0,0-0.1-0.1-0.1-0.2c0-0.1,0-0.3,0.1-0.3c0.7,0,0.9-0.1,0.9-0.8v-4.5c0-0.5-0.2-0.7-0.9-0.7
			c-0.1,0-0.1-0.1-0.1-0.2c0-0.1,0-0.3,0.1-0.3c0.5,0,1.1,0.1,1.7,0.1c1.8,0,3.4-0.1,4-0.1c0.1,0,0.2,0.1,0.2,0.2
			c0,0.8,0.1,1.5,0.1,1.7c0,0.1-0.1,0.1-0.3,0.1c-0.1,0-0.2,0-0.2-0.1c-0.1-0.8-0.6-1.4-1.9-1.4c-0.3,0-0.7,0-1,0
			c0,0.8-0.1,1.9-0.1,2.5c1.3,0,1.5-0.3,1.5-1c0-0.1,0.1-0.2,0.2-0.2c0.2,0,0.2,0,0.2,0.1c0,0.1-0.1,0.4-0.1,1.2
			c0,0.6,0.1,1.2,0.1,1.3c0,0.1-0.1,0.1-0.2,0.1c-0.2,0-0.2,0-0.2-0.1c0-0.8-0.2-1.1-1.6-1.1c0,0.4,0,0.8,0,1.1c0,0.5,0,0.9,0,1.1
			c0,0.4,0.2,0.7,1,0.7c1.6,0,2.2-0.5,2.3-1.8c0-0.1,0.1-0.1,0.2-0.1c0.2,0,0.2,0,0.2,0.1c0,0.2-0.1,1.2-0.1,2c0,0.2,0,0.3-0.2,0.3
			c-0.5,0-2.5-0.1-4.2-0.1C69.2,47.5,68.6,47.5,68.1,47.5"/>
	</g>
</svg>
