<?xml version="1.0" encoding="UTF-8"?>
<!-- Generator: Adobe Illustrator 28.2.0, SVG Export Plug-In . SVG Version: 6.00 Build 0) -->
<svg version="1.2" baseProfile="tiny-ps" id="Layer_1" xmlns="http://www.w3.org/2000/svg" xmlns:xlink="http://www.w3.org/1999/xlink" viewBox="0 0 100 100" xml:space="preserve">
    <title>Hound Labs</title>
    <g>
        <ellipse cx="49.8" cy="49.8" rx="44.9" ry="44.9" fill="#070707" />
        <g>
            <path d="M49.9,2.5C23.7,2.5,2.5,23.7,2.5,49.9s21.2,47.4,47.4,47.4S97.3,76,97.3,49.9C97.3,23.7,76,2.5,49.9,2.5z
			 M49.9,92.7c-5.5,0-10.7-1.1-15.5-2.9c1.1-10.3,1.1-17.9,2.1-21.5c0.7-2.4,2.5-4.7,4.2-6.6c-2.4,1.2-5.3,2-8.8,2.2
			c-29.7,2.1-3-32.8-3-32.8s-20.3,31.3,3,30c17-1.1,18.8-19.1,18.8-19.1s0.9,10.4-5.9,16.8c2.5,1.1,10.7,4.3,21.5,6.7
			c5.8,1.3,21.2-6.1,18-9.6c-7.1-7.9-12.4-8.3-15.3-12.5c-2.8-4.2,0.1-5.8-5.3-10.5c-4.3-3.8-7.5-4.5-9.9-8s-12-4.1-19.3-0.1
			c-3.3,1.7-8.3,5.1-13.4,9.3C15.8,38.5,10.6,43.3,7,47.7C8.3,25,27,7,49.9,7c23.7,0,42.9,19.2,42.9,42.9
			C92.7,73.5,73.5,92.7,49.9,92.7z" fill="#FFD100" />
        </g>
    </g>
</svg>
