<?xml version="1.0" encoding="utf-8"?>
<!-- Generator: Adobe Illustrator 28.2.0, SVG Export Plug-In . SVG Version: 6.00 Build 0)  -->
<svg version="1.2" baseProfile="tiny-ps" id="Layer_1" xmlns="http://www.w3.org/2000/svg" xmlns:xlink="http://www.w3.org/1999/xlink"
	 viewBox="0 0 650 650" xml:space="preserve">
<title>Learnosity PTY LTD</title>
<rect y="0" fill="#FFFFFF" width="650" height="650"/>
<g>
	<path fill="#EB3C3F" d="M325,164.6v320.9L207.2,553c-11,6.2-24.7-1.5-24.7-13.9V111c0-12.4,13.7-20.1,24.7-13.9L325,164.6z"/>
	<path fill="#FFCB00" d="M325,164.6v320.9L442.8,553c11,6.2,24.7-1.5,24.7-13.9V111c0-12.4-13.7-20.1-24.7-13.9L325,164.6z"/>
	<path fill="#0071CE" d="M467.4,485.5v-321h71.3c9,0,16.2,7.3,16.2,16.2v288.6c0,9-7.3,16.2-16.2,16.2H467.4z"/>
	<path fill="#CE0E2D" d="M182.6,485.5v-321h-71.3c-9,0-16.2,7.3-16.2,16.2v288.6c0,9,7.3,16.2,16.2,16.2H182.6z"/>
</g>
</svg>
