<?xml version="1.0" encoding="UTF-8" standalone="yes"?>
<svg width="1080" viewBox="0 0 810 809.999993" height="1080" preserveAspectRatio="xMidYMid meet" version="1.2" baseProfile="tiny-ps" xmlns="http://www.w3.org/2000/svg">
  <title>bimi-svg-tiny-12-ps</title>
  <rect x="-81" width="972" fill="#ffffff" y="-80.999999" height="971.999992" fill-opacity="1"/>
  <rect x="-81" width="972" fill="#fff88d" y="-80.999999" height="971.999992" fill-opacity="1"/>
  <path fill="#fff88d" d="M 875.328125 403.414062 C 875.328125 664.050781 664.039062 875.339844 403.398438 875.339844 C 142.757812 875.339844 -68.523438 664.050781 -68.523438 403.414062 C -68.523438 142.777344 142.757812 -68.511719 403.398438 -68.511719 C 664.039062 -68.511719 875.328125 142.777344 875.328125 403.414062 Z M 875.328125 403.414062 " fill-opacity="1" fill-rule="nonzero"/>
  <path fill="#100f0d" d="M 547.105469 454.171875 C 547.105469 451.382812 547.503906 449 548.296875 444.234375 L 559.421875 378.261719 L 562.613281 356.800781 C 571.351562 297.1875 535.980469 254.265625 481.539062 254.265625 C 450.535156 254.265625 419.9375 268.175781 400.464844 292.421875 C 390.527344 270.160156 367.875 254.265625 336.871094 254.265625 C 307.074219 254.265625 278.460938 269.769531 261.765625 292.027344 L 267.726562 259.035156 L 205.726562 259.035156 L 159.628906 522.125 L 223.21875 522.125 L 250.238281 370.316406 C 257.390625 328.984375 281.242188 309.902344 309.851562 309.902344 C 340.050781 309.902344 353.167969 326.597656 345.222656 371.109375 L 318.597656 522.125 L 382.175781 522.125 L 408.808594 370.316406 C 415.957031 328.984375 438.613281 309.902344 464.042969 309.902344 C 495.042969 309.902344 503.789062 332.160156 498.222656 363.957031 L 485.503906 437.082031 L 483.523438 449.796875 C 482.328125 457.347656 481.925781 461.320312 481.925781 466.089844 C 481.925781 508.21875 512.929688 526.097656 545.917969 526.097656 C 554.261719 526.097656 564.199219 524.910156 575.71875 520.535156 L 585.265625 466.886719 C 578.109375 469.664062 571.351562 471.253906 565.390625 471.253906 C 553.863281 471.253906 547.105469 464.894531 547.105469 454.171875 Z M 547.105469 454.171875 " fill-opacity="1" fill-rule="nonzero"/>
  <path fill="#100f0d" d="M 645.773438 449.796875 C 624.699219 449.796875 607.210938 466.878906 606.421875 487.949219 C 605.628906 509.007812 622.320312 526.097656 643.378906 526.097656 C 664.445312 526.097656 681.929688 509.007812 682.730469 487.949219 C 683.515625 466.878906 666.824219 449.796875 645.773438 449.796875 Z M 645.773438 449.796875 " fill-opacity="1" fill-rule="nonzero"/>
</svg>