<?xml version="1.0" encoding="utf-8"?>
<!-- Generator: Adobe Illustrator 27.5.0, SVG Export Plug-In . SVG Version: 6.00 Build 0)  -->
<svg version="1.2" baseProfile="tiny-ps" id="Layer_1" xmlns="http://www.w3.org/2000/svg" xmlns:xlink="http://www.w3.org/1999/xlink"
	 viewBox="0 0 720 720" xml:space="preserve">
<title>Finn Partners</title>
<desc>Finn Partners logo for use with BIMI and other SVG Portable/Secure (SVG P/S) applications, updated 5/25/2023.</desc>
<g id="Layer_1_00000060019724378566408450000018387753250428813208_">
</g>
<path fill="#AC162C" d="M131.5,313.8H55.4v38.1h69.9v29.2H55.4v58.6h-35V284.8h111.3L131.5,313.8z"/>
<path d="M240.2,439.7h-35V284.8h35V439.7z"/>
<path d="M467.9,439.7H436l-75-99.4v99.4h-33.4V284.8h31.9l75.2,99.6v-99.6h33.2L467.9,439.7L467.9,439.7z"/>
<path fill="#AC162C" d="M695.4,439.7h-31.9l-75-99.4v99.4h-33.4V284.8H587l75.2,99.6v-99.6h33.2V439.7z"/>
<path fill="#77777A" d="M208.4,513.1v16.6H205V489h13.8c4.2,0,7.5,1.1,10,3.2c2.4,2.1,3.7,5.1,3.7,9s-1.2,6.8-3.5,8.9
	s-5.8,3.1-10.3,3.1L208.4,513.1L208.4,513.1z M208.4,510.1h10.4c3.3,0,5.9-0.8,7.6-2.3c1.8-1.5,2.7-3.8,2.7-6.6
	c0-2.8-0.9-5.1-2.7-6.8c-1.8-1.7-4.2-2.5-7.4-2.5h-10.6V510.1L208.4,510.1z"/>
<path fill="#77777A" d="M256.9,518.2h-18.5l-4.2,11.4h-3.7l15.4-40.7h3.3l15.4,40.7h-3.5L256.9,518.2z M239.5,515.3h16.3l-8.2-22.1
	L239.5,515.3z"/>
<path fill="#77777A" d="M284.4,512.6h-11.8v16.9h-3.4v-40.7h13.2c4.3,0,7.7,1,10.2,3.1s3.7,5.1,3.7,8.9c0,2.7-0.8,4.9-2.3,6.9
	s-3.5,3.3-6.2,4.1l10.2,17.3v0.3h-3.7L284.4,512.6z M272.6,509.8h10.5c2.9,0,5.2-0.8,7-2.4c1.8-1.7,2.7-3.8,2.7-6.4
	c0-2.9-0.9-5.1-2.8-6.6c-1.8-1.5-4.4-2.3-7.6-2.3h-9.7v17.7H272.6z"/>
<path fill="#77777A" d="M330.7,491.8h-13.9v37.7h-3.4v-37.7h-13.9v-2.9h31.3v2.9H330.7z"/>
<path fill="#77777A" d="M367.2,529.6h-3.4l-23.3-34.9v34.9H337v-40.7h3.4l23.5,34.9v-34.9h3.4L367.2,529.6L367.2,529.6z"/>
<path fill="#77777A" d="M397.4,510.1h-19v16.6h21.9v2.9H375v-40.7h25.1v2.9h-21.7v15.4h19V510.1z"/>
<path fill="#77777A" d="M422.4,512.6h-11.8v16.9h-3.4v-40.7h13.2c4.3,0,7.7,1,10.2,3.1c2.4,2.1,3.7,5.1,3.7,8.9
	c0,2.7-0.8,4.9-2.3,6.9s-3.5,3.3-6.2,4.1l10.2,17.3v0.3h-3.7L422.4,512.6z M410.6,509.8h10.5c2.9,0,5.2-0.8,7-2.4
	c1.8-1.7,2.7-3.8,2.7-6.4c0-2.9-0.9-5.1-2.8-6.6c-1.8-1.5-4.4-2.3-7.6-2.3h-9.7v17.7H410.6z"/>
<path fill="#77777A" d="M463.9,519.6c0-2.2-0.8-4-2.3-5.3s-4.4-2.5-8.6-3.8c-4.2-1.2-7.3-2.4-9.2-3.9c-2.8-2-4.1-4.5-4.1-7.7
	c0-3.1,1.3-5.6,3.9-7.6c2.5-2,5.9-2.9,9.8-2.9c2.7,0,5.1,0.6,7.2,1.5c2.1,1,3.8,2.5,5,4.3c1.2,1.9,1.8,4,1.8,6.2H464
	c0-2.8-1-5-2.9-6.8c-1.9-1.7-4.4-2.5-7.6-2.5c-3.1,0-5.5,0.7-7.4,2.1s-2.8,3.2-2.8,5.4c0,2.1,0.8,3.8,2.4,5.1c1.7,1.3,4.3,2.4,8,3.4
	s6.4,2,8.3,3.1s3.3,2.3,4.2,3.9c1,1.4,1.4,3.2,1.4,5.3c0,3.2-1.3,5.8-3.9,7.7c-2.5,2-6,2.9-10.1,2.9c-2.9,0-5.5-0.6-7.9-1.5
	c-2.4-1-4.2-2.4-5.4-4.3c-1.2-1.9-1.9-4-1.9-6.3h3.4c0,2.9,1.1,5.1,3.2,6.8s5,2.4,8.5,2.4c3.2,0,5.8-0.7,7.6-2.1
	C463,523.7,463.9,521.9,463.9,519.6z"/>
</svg>
