<?xml version="1.0" encoding="utf-8"?>
<!-- Generator: Adobe Illustrator 26.5.0, SVG Export Plug-In . SVG Version: 6.00 Build 0)  -->
<svg version="1.2" baseProfile="tiny-ps" id="Layer_1" xmlns="http://www.w3.org/2000/svg" xmlns:xlink="http://www.w3.org/1999/xlink" viewBox="0 0 500 500" xml:space="preserve">
<title>YAMAWA MFG. Co., Ltd.</title>
<path fill="#D0121B" d="M361.65,100l-57.64,73.15L268.29,100h-37.82L196,174.63L136.83,100H100v300h36.83l23.13-46.27h70.51V400
	h37.55v-46.27h71.94L362.21,400H400V100H361.65z M137.68,305.96V164.12l38.99,53.76L137.68,305.96z M230.81,314.92h-49.49
	l24.05-58.17l25.45,34.3V314.92z M250.63,253.38l-26.99-37.34l26.99-59.69l27.03,59.69L250.63,253.38z M268.67,315.13v-20.9
	l25.49-37.29l26.99,58.19H268.67z M361.88,305.97l-39.02-86.55l39.02-53.72V305.97z"/>
</svg>
