<?xml version="1.0" encoding="utf-8"?>

<svg version="1.2" baseProfile="tiny-ps" xmlns="http://www.w3.org/2000/svg" viewBox="0 0 120 120">
	<title>HBF</title>


	<g>
		<g id="Layer">
			<path id="Layer" fill-rule="evenodd" class="s0" fill="#003959" d="m81.1 54.6q-0.2 0.9-0.5 1.8l-6.3-2.6c1.7-8.6 5.1-12.9 15.9-11.6l-1 4.6c-6.2-0.8-7.1 3.2-8.1 7.8zm-59.4 2.4q0.2-0.7 0.5-1.8c0.9-3.9 2.3-10 2.9-12.6h-3.7c-2 0-3.7 1.2-4 2.9l-7.4 31.6h4.5c1.5 0 2.8-1.1 3.1-2.5l0.8-3.2q0.2-0.9 0.4-1.7c1-3.9 1.9-7.6 4.2-9.8 1.1-1.1 2.4-2 4.1-2.2 4.8-0.6 4.5 3.2 3.7 6.8-0.5 2.5-1.2 5.1-1.8 7.6q-0.6 2.6-1.1 5h6.9c0.4-1.6 0.8-3.1 1.1-4.7q0.5-2 1-4 0.1-0.7 0.3-1.4c1.1-4.3 2.3-9.4-0.5-12.1-3.9-3.9-12.5-1.1-15 2.1zm31.9 1.8q0.1-0.1 0.1-0.1c0.6-0.4 1.2-0.8 2-1 3.5-0.8 5.5 1.8 5.5 4.7 0 5.4-4.6 11.1-9.9 11-4.9 0-3.7-4.6-2.8-8.3q0.1-0.5 0.2-1 1.1-4.5 2.1-8.8c1-4.2 2-8.4 3-12.7h-3.6c-2 0-3.7 1.3-4 2.9l-4.5 18.9q0 0.4-0.1 0.7c-0.5 2.1-1.1 4.6-1 6.9 0.4 4 4.3 5.5 8 5.7 6.2 0.4 11.5-1.7 15-5.2 3.4-3.5 5.6-9.5 4.1-14.8 1.2 0.2 3 0.6 5.3 1.3l-4.2 18.1h4.4c1.6 0 2.9-1.1 3.2-2.5l3.2-13.9c6.7 1.4 9.8 0.1 9.8 0.1-3-0.3-6.4-1.7-10.5-3.3-2.3-0.9-4.8-1.9-7.5-2.8-12.1-4.1-16.6-0.8-16.6-0.8q-0.4 1.4-0.7 2.9-0.2 0.9-0.5 2z"/>
			<path id="Layer" class="s1" fill="#a0d5d3" d="m109.3 49.8c-0.6 2.3-1.3 2.9-2.6 3.5-4.5 1.9-11.3 3.8-18.5 3.2 8.2-0.7 18-6.7 21.8-9.5 0 0-0.1 0.5-0.7 2.8z"/>
			<path id="Layer" class="s2" fill="#009fae" d="m104.8 58.6c-1.5 2-4.3 2-4.3 2-2.5 0.1-8.7 0.3-19.2-4 7.1 2.2 18.4 1.7 25-0.2 0 0-0.1 0.3-1.5 2.2z"/>
		</g>
	</g>
</svg>