<?xml version="1.0" encoding="UTF-8"?>
<svg xmlns="http://www.w3.org/2000/svg" baseProfile="tiny-ps" version="1.2" viewBox="0 0 80 80">
<title>AdQuick</title>
  <!-- Generator: Adobe Illustrator 28.6.0, SVG Export Plug-In . SVG Version: 1.2.0 Build 709)  -->
  <g>
    <g id="AQ_digicert_logo">
      <rect id="bg" width="80" height="80" fill="#fff"/>
      <path id="logo" d="M20.3,43.6c-.9,0-1.9-.2-2.6-1-.6-.6-1-1.5-1-2.3h0c0-1.2-.4-2.3-1-3.2-1-1.3-2.5-2.2-4.3-2.2-2.9,0-5.3,2.4-5.3,5.4s2.4,5.3,5.3,5.3h0c1.4,0,2.6-.5,3.6-1.4,0,0,0-.1-.1-.2-.4-.5-.7-1.1-.9-1.7-.6.7-1.5,1.2-2.6,1.2-1.8,0-3.3-1.5-3.3-3.3s1.5-3.3,3.3-3.3,3.3,1.5,3.3,3.3.3,2.2,1,3.1c.2.2.3.4.5.6,1.6,1.6,3.8,2,5.8,1.2l-1.7-1.7ZM24.4,43.3c1.4-2.1,1.2-4.9-.7-6.8-1-1-2.4-1.6-3.8-1.6-1.3,0-2.6.5-3.6,1.4,0,0,0,0,0,0,0,0,0,0,0,.1.4.5.7,1.1.9,1.7,0,0,.1-.2.2-.3.6-.6,1.5-1,2.3-1s1.7.3,2.3,1c1,1,1.2,2.6.6,3.8-.6-.6-1.5-.6-2.1,0l-.4.4,3.4,3.4c.2.2.5.2.7,0l1.1-1.1-1.2-1.2ZM61.1,44.3h-1.7v-6.1h1.7v6.1ZM61.2,36.6c0,.5-.4.9-.9.9s-.9-.4-.9-.9.4-.9.9-.9.9.4.9.9ZM48.1,36.1c2.1,0,3.8,1.5,3.8,4.2s-.5,2.6-1.3,3.3l1.2,1.5h-1.6l-.7-.8c-.4.2-.9.2-1.4.2-2.2,0-3.8-1.5-3.8-4.2s1.6-4.2,3.8-4.2ZM48.6,42.9l-1-1.4h1.5l.6.8c.4-.4.6-1.1.6-2,0-1.7-.8-2.6-2.1-2.6s-2.1.9-2.1,2.6.8,2.6,2.1,2.6.3,0,.4,0ZM31.4,44.3l.6-1.8h2.9l.6,1.8h1.8l-2.8-8.1h-2.2l-2.8,8.1h1.8ZM32.5,41.1l1-3.1h0l1,3.1h-2.1ZM39.9,44.4c1,0,1.5-.6,1.7-1.1h0v1h1.7v-8.1h-1.7v3h0c-.2-.5-.7-1.1-1.7-1.1s-2.5,1-2.5,3.1,1.1,3.1,2.5,3.1ZM40.5,43.1c-.8,0-1.3-.7-1.3-1.8s.4-1.8,1.3-1.8,1.3.7,1.3,1.8-.5,1.8-1.3,1.8ZM56.7,41.7c0,.8-.6,1.2-1.2,1.2s-1-.4-1.1-1.2v-3.6h-1.7v3.9c0,1.4.8,2.3,2.1,2.3s1.6-.5,1.8-1.2h0v1.1h1.6v-6.1h-1.7v3.5ZM64.8,44.4c1.6,0,2.6-1,2.7-2.3h-1.6c0,.6-.5,1-1.1,1s-1.3-.7-1.3-1.8.5-1.8,1.3-1.8,1,.4,1.1,1h1.6c0-1.4-1.1-2.3-2.7-2.3s-3,1.3-3,3.1,1.1,3.1,3,3.1ZM70,44.3h-1.7v-8.1h1.7v4.3h0l1.9-2.3h1.9l-2.3,2.6,2.4,3.4h-2l-1.7-2.5-.5.5v1.9Z" fill="#333" fill-rule="evenodd"/>
    </g>
  </g>
</svg>