<?xml version="1.0" encoding="UTF-8" standalone="yes"?>
<svg width="128" height="128" viewBox="0 0 128 128" fill="none" version="1.2" baseProfile="tiny-ps" xmlns="http://www.w3.org/2000/svg">
  <title>Deriv</title>
  <rect width="128" height="128" fill="white"/>
  <g>
    <path d="M35.2317 49.0048L33.5883 58.3215H27.8833C22.5609 58.3215 17.4879 62.632 16.5476 67.9523L16.1496 70.2169C15.2138 75.5372 18.7649 79.8478 24.0872 79.8478H28.8454C32.7246 79.8478 36.42 76.7088 37.1023 72.8312L41.4844 48L35.2317 49.0048ZM31.1838 71.9524C30.9738 73.1503 29.895 74.1253 28.6967 74.1253H25.806C23.4138 74.1253 21.8131 72.1841 22.2329 69.7884L22.4822 68.3764C22.9064 65.9851 25.1893 64.0397 27.5815 64.0397H32.5796L31.1838 71.9524ZM79.1677 79.8473L82.9112 58.6183H88.8326L85.0891 79.8473H79.1677ZM79.8081 58.8631C79.5113 60.547 79.2132 62.2308 78.9164 63.9147C76.1111 63.0432 73.2167 63.3207 72.3275 63.498C71.3672 68.9491 70.4056 74.4014 69.4439 79.8525H63.5186C64.3232 75.2915 67.0722 59.7149 67.0722 59.7149C68.9994 58.9172 73.7321 57.2981 79.8081 58.8631ZM55.7992 58.3179H51.1898C46.6984 58.3179 42.4171 61.9551 41.6254 66.4449L40.6939 71.7215C39.9023 76.2111 42.8981 79.8485 47.3895 79.8485H57.1945L58.2004 74.1434H48.9856C47.4901 74.1434 46.4885 72.9324 46.7553 71.4329L46.786 71.2537H61.6422L62.4906 66.4449C63.282 61.9551 60.2864 58.3179 55.7949 58.3179H55.7992ZM56.5471 65.9902L56.5122 66.2962H47.6782L47.7263 66.0252C47.9929 64.5301 49.3575 63.2142 50.8574 63.2142H54.308C55.7906 63.2142 56.7922 64.5082 56.5471 65.9902ZM106.011 58.6183H111.937C109.918 63.9831 105.292 73.109 100.811 79.8473H94.8853C92.8283 73.434 91.5 64.4983 91.2466 58.6183H97.1725C97.2795 60.5363 98.1384 67.6506 99.1187 72.6207C101.807 67.7855 104.771 61.4418 106.007 58.6183H106.011Z" fill="#FF444F"/>
  </g>
  <defs/>
</svg>