<?xml version="1.0" encoding="UTF-8" standalone="no"?>

<svg
   version="1.2"
   id="Layer_1"
   viewBox="0 0 367.2 367.2"
   baseProfile="tiny-ps"
   xml:space="preserve"
   xmlns="http://www.w3.org/2000/svg"
   xmlns:svg="http://www.w3.org/2000/svg"
   xmlns:rdf="http://www.w3.org/1999/02/22-rdf-syntax-ns#">
<title>
Angi's List, Inc.
</title>

<path
   d="m 115.6,76.600006 h -20.49 -21 L 59.92,165.07001 c -0.3,0.04 -0.6,0.06 -0.91,0.1 -31.35,4.17 -55.68,30.56 -55.41,60.07 0.12,12.34 4.33,21.98 11.88,29.88 6.82,7.14 16.11,11.01 25.49,11.01 3.67,0 7.35,-0.59 10.9,-1.81 16.9,-5.82 22.51,-20 25.14,-32.98 0,0.01 -0.01,0.03 -0.01,0.05 0.76,-14.49 -6.98,-28.8 -21.74,-37.27 l -4.67,29.49 c -1.5,8.37 -3.45,13.37 -7.63,14.81 -2.5,0.86 -5.58,-0.03 -7.66,-2.21 -2.68,-2.81 -4.25,-5.94 -4.3,-11.23 -0.14,-14.75 11.46,-26.33 24.26,-30.86 0,0 0,0 0,0 4.02,-1.45 8.2,-2.13 12.87,-2.13 4.74,0 9.73,0.91 14.29,2.44 0,0 0,0 0,0 0,0 0,0 0,0 17.29,4.08 27.77,22.42 30.36,42.28 l 1.52,11.13 h 28.77 z m -29.51,90.370004 8.25,-63.31 h 0.25 0.77 l 9.21,70.65 c -5.85,-3.19 -12.07,-5.68 -18.48,-7.34 z m 276.01,-42.61 v 123.47 h -28.71 v -123.47 z m -83.8,166.24 c 37.7,0 40.61,-21.49 40.61,-51.86 l 0.25,-114.37 H 304.3 c -5.35,0 -11.91,4.01 -12.36,9.18 l -0.35,3.99 -1.39,-3.76 c -2.77,-7.47 -9.74,-11.42 -20.16,-11.42 -10.47,0 -18.2,4.02 -22.98,11.94 -4.65,7.7 -5.62,17.66 -5.62,24.66 v 48.01 c 0,11.91 1.74,20.68 5.32,26.8 4.35,7.44 11.39,11.06 21.54,11.06 9.6,0 16.86,-4.08 20.44,-11.49 l 1.71,-3.53 v 3.92 13.75 c 0,12.09 -0.75,20.65 -10.4,20.65 -2.21,0 -9.4,-0.75 -9.4,-10.4 v -0.35 h -28.96 v 0.6 c 0,9.38 2.54,16.93 7.55,22.43 6.14,6.76 15.92,10.19 29.06,10.19 z m 11.65,-88.62 c 0,11.77 -1.66,18.15 -10.4,18.15 -8.28,0 -9.4,-7.91 -9.4,-15.65 v -43.01 c 0,-9.69 3.48,-14.4 10.65,-14.4 8.06,0 9.15,7.91 9.15,15.65 z M 363.6,97.210006 c 0,8.750004 -6.96,15.600004 -15.85,15.600004 -8.75,0 -15.6,-6.85 -15.6,-15.600004 0,-8.89 6.85,-15.85 15.6,-15.85 8.74,0 15.85,7.11 15.85,15.85 z M 180.94,164.22001 v 83.62 h -28.96 l -0.25,-123.47 h 16.1 c 5.53,0 11.91,3.9 12.61,9.71 l 0.32,2.66 1.35,-2.31 c 4.67,-8 12.23,-12.06 22.48,-12.06 16.49,0 24.86,10.63 24.86,31.61 v 93.87 h -28.71 v -87.38 c 0,-8.89 -3.08,-13.4 -9.15,-13.4 -7.86,0 -10.65,4.49 -10.65,17.15 z"
   fill="#ff6153"
   id="path1" />
<path
   d="m 77,231.39 c 1.45,-6.19 4.81,-29.96 5.41,-36.96 v 0 0 c -4.55,-1.52 -9.55,-2.44 -14.29,-2.44 -4.67,0 -8.85,0.69 -12.87,2.13 14.77,8.47 22.51,22.78 21.75,37.27 z"
   fill="#a03027"
   id="path2" />
</svg>
