<?xml version="1.0" encoding="UTF-8"?>
<svg version="1.2" baseProfile="tiny-ps"
    xmlns="http://www.w3.org/2000/svg"
    viewBox="0 0 228 228">
    <title>Sekel Tech Logo</title>
    <rect y="0" width="228" height="228" fill="#2670fb" stroke-width="0px"/>
    <g>
        <path fill="#fff" d="M150.18,149.06c-1.26,0-2.29,1.03-2.29,2.29,0,1.26,1.03,2.29,2.29,2.29s2.29-1.03,2.29-2.29c0-1.26-1.03-2.28-2.29-2.29Z"/>
        <path fill="#fff" d="M150.18,93.96c-.71,0-1.28.57-1.28,1.28s.57,1.28,1.28,1.28,1.28-.57,1.28-1.28h0c0-.71-.57-1.28-1.28-1.28Z"/>
        <path fill="#fff" d="M150.18,112.71c-.71,0-1.28.57-1.28,1.28s.57,1.28,1.28,1.28,1.28-.57,1.28-1.28h0c0-.71-.57-1.28-1.28-1.28Z"/>
        <path fill="#fff" d="M61.72,148.03c-1.83,0-3.32,1.49-3.32,3.32s1.49,3.32,3.32,3.32c1.83,0,3.31-1.48,3.32-3.31,0-1.84-1.48-3.32-3.32-3.33Z"/>
        <path fill="#fff" d="M111.36,80.59h39.6c2.21,0,4-1.79,4-4s-1.79-4-4-4h-39.6c-2.21,0-4,1.79-4,4s1.79,4,4,4Z"/>
        <path fill="#fff" d="M79.18,129.32c-1.83,0-3.32,1.49-3.32,3.32s1.49,3.32,3.32,3.32,3.32-1.49,3.32-3.32-1.49-3.32-3.32-3.32h0Z"/>
        <path fill="#fff" d="M133.18,110.67c-1.83,0-3.32,1.49-3.32,3.32s1.49,3.32,3.32,3.32,3.32-1.49,3.32-3.32c0,0,0,0,0,0,0-1.83-1.48-3.31-3.31-3.31,0,0,0,0-.01,0Z"/>
        <path fill="#fff" d="M133.18,91.96c-1.83,0-3.32,1.49-3.32,3.32s1.49,3.32,3.32,3.32,3.32-1.49,3.32-3.32-1.49-3.32-3.32-3.32h0Z"/>
        <path fill="#fff" d="M61.72,131.21c-.79,0-1.43.64-1.43,1.43s.64,1.43,1.43,1.43c.79,0,1.43-.64,1.43-1.43,0,0,0,0,0,0,0-.79-.64-1.42-1.43-1.42Z"/>
        <path fill="#fff" d="M63.18,76.57c0-.79-.63-1.43-1.42-1.44s-1.43.63-1.44,1.42.63,1.43,1.42,1.44c0,0,0,0,0,0,.79,0,1.42-.63,1.43-1.42Z"/>
        <path fill="#fff" d="M98.67,75.71c-.47-2.16-2.6-3.53-4.76-3.05-.78.17-1.49.57-2.04,1.14-2.95,2.97-7.76,2.99-10.73.04-.01-.01-.02-.02-.04-.04-1.53-1.6-4.06-1.65-5.66-.13-.58.55-.97,1.26-1.14,2.04-.12.56-.12,1.15,0,1.71.47,2.16,2.6,3.53,4.76,3.05.78-.17,1.49-.57,2.04-1.14,2.95-2.97,7.76-2.99,10.73-.04.01.01.02.02.04.04,1.53,1.6,4.06,1.65,5.66.13.58-.55.97-1.26,1.14-2.04.12-.56.12-1.15,0-1.71Z"/>
        <path fill="#fff" d="M120.4,95.27h0c0-.29-.04-.58-.1-.87h0c-.48-2.16-2.61-3.52-4.77-3.04-.77.17-1.47.56-2.02,1.13-1.53,1.47-3.57,2.28-5.69,2.26-1.91,0-3.74-.77-5.07-2.15-.74-.82-1.8-1.29-2.91-1.29h-38.19c-2.21,0-4,1.79-4,4h0c0,2.21,1.79,4,4,4l38.19-.05c1.11,0,2.17-.46,2.91-1.28,1.32-1.39,3.16-2.16,5.07-2.15,2.12-.02,4.16.79,5.69,2.26,1.53,1.59,4.06,1.64,5.66.11.57-.55.97-1.25,1.13-2.03h0c.06-.29.1-.58.1-.87h0v-.03Z"/>
        <path fill="#fff" d="M57.63,113.96h0c0-.3.03-.59.09-.88h0c.47-2.16,2.6-3.53,4.75-3.06.78.17,1.49.57,2.05,1.14,1.53,1.47,3.56,2.28,5.68,2.27,1.91,0,3.74-.77,5.07-2.15.75-.82,1.81-1.28,2.92-1.29l38.19-.03c2.21,0,4,1.79,4,4h0c0,2.21-1.79,4-4,4h-38.2c-1.11,0-2.17-.47-2.92-1.29-1.33-1.38-3.16-2.16-5.07-2.15-2.12-.03-4.16.79-5.68,2.27-1.53,1.6-4.06,1.65-5.66.13-.58-.55-.98-1.26-1.14-2.05h0c-.06-.29-.09-.58-.09-.88h0v-.03Z"/>
        <path fill="#fff" d="M73.84,151.35h0c0-.3.03-.59.09-.88h0c.47-2.16,2.6-3.53,4.75-3.06.78.17,1.49.57,2.05,1.14,1.52,1.47,3.56,2.28,5.68,2.26,1.91.02,3.75-.76,5.07-2.15.75-.81,1.81-1.28,2.92-1.28h40.68c2.21,0,4,1.79,4,4h0c0,2.21-1.79,4-4,4h-40.68c-1.11,0-2.17-.47-2.92-1.29-1.33-1.38-3.16-2.16-5.07-2.15-2.12-.02-4.16.79-5.68,2.26-1.53,1.6-4.06,1.65-5.66.13-.58-.55-.97-1.26-1.14-2.04h0c-.06-.29-.09-.58-.09-.87h0v-.07Z"/>
        <path fill="#fff" d="M154.18,132.63h0c0-.29-.03-.58-.09-.87h0c-.47-2.16-2.6-3.53-4.76-3.05-.78.17-1.49.57-2.04,1.14-1.52,1.47-3.56,2.28-5.68,2.26-1.91,0-3.74-.77-5.07-2.15-.75-.82-1.81-1.28-2.92-1.29h-22.78c-1.11,0-2.17.47-2.92,1.29-1.33,1.38-3.16,2.16-5.07,2.15-2.12.02-4.16-.79-5.68-2.26-1.53-1.6-4.06-1.65-5.66-.13-.58.55-.97,1.26-1.14,2.04h0c-.06.29-.09.58-.09.87h0c0,.3.03.59.09.88h0c.47,2.16,2.6,3.53,4.75,3.06.78-.17,1.49-.57,2.05-1.14,1.52-1.47,3.56-2.28,5.68-2.26,1.91-.02,3.75.76,5.07,2.15.75.81,1.81,1.28,2.92,1.28h22.79c1.11,0,2.17-.47,2.92-1.28,1.32-1.39,3.16-2.17,5.07-2.15,2.12-.02,4.16.79,5.68,2.26,1.53,1.6,4.06,1.65,5.66.13.58-.55.98-1.26,1.14-2.05h0c.06-.29.09-.58.09-.88h0Z"/>
    </g>
</svg>