<?xml version="1.0" encoding="UTF-8" standalone="yes"?>
<svg version="1.2" baseProfile="tiny-ps" viewBox="0 0 600 600" xml:space="preserve" xmlns="http://www.w3.org/2000/svg">
  <title>BLINK GLOBAL, LLC</title>
  <g>
    <rect fill="#FFFFFF" width="600" height="600"/>
    <g id="Layer_2_00000119115886778782308530000017288074868158787465_">
      <g id="Layer_1-2">
        <path fill="#382F8E" d="M304.4,346.4c-7,0-9.2-1.1-9.2-8.1v-76.4c0-7,2.2-8.3,9.2-8.3s9,1.1,9,8.1v76.4&#xD;&#xA;&#x9;&#x9;&#x9;&#x9;C313.4,345.1,311.4,346.4,304.4,346.4z"/>
        <path fill="#382F8E" d="M432.3,345.6h-1.8c-3.8,0-14.7-11.1-14.7-11.1l-59.1-52.6v55.4c0,7-2.2,8.3-9.2,8.3c-6.8,0-9-0.9-9-8.1&#xD;&#xA;&#x9;&#x9;&#x9;&#x9;v-71.9c0-7,0.1-12.8,7.1-12.8h1.8c4,0,6,2,9,3.8l63,56v-51.5c0-7,2.2-8.3,9.2-8.3c6.8,0,9,0.9,9,8.1v71.9&#xD;&#xA;&#x9;&#x9;&#x9;&#x9;C437.7,339.8,437.8,346,432.3,345.6z"/>
        <path fill="#382F8E" d="M122.5,289.7h-0.2c0.9-2.8,1.3-5.8,1.3-8.7c-0.1-15.6-12.8-28.1-28.3-28c0,0,0,0-0.1,0H50.6&#xD;&#xA;&#x9;&#x9;&#x9;&#x9;c-7,0-10.8,5.6-10.8,12.6v67.6c0,7,3.8,12.4,10.8,12.4h71.2c0.9,0.1,1.7,0.2,2.6,0.1c16,0,27.1-12.9,27.1-28.9&#xD;&#xA;&#x9;&#x9;&#x9;&#x9;S138.4,289.7,122.5,289.7z M62.6,271.3l34.5-0.2c4.4,0,8,3.6,8,8c0.1,4.5-3.5,8.2-8,8.3H62.6c-4.4,0-8-3.6-8-8c0,0,0,0,0-0.1&#xD;&#xA;&#x9;&#x9;&#x9;&#x9;C54.7,275,58.2,271.4,62.6,271.3z M53,317.3c0-4.2,3.5-7.7,8.7-7.7h65.2c3.4,0,6.7,3.5,6.7,7.7c0.1,4.2-3.3,7.7-7.5,7.8&#xD;&#xA;&#x9;&#x9;&#x9;&#x9;c-0.1,0-0.1,0-0.2,0l-65.2,0.2C56.4,325.3,52.9,321.7,53,317.3C53,317.4,53,317.4,53,317.3L53,317.3z"/>
        <path fill="#382F8E" d="M555.3,330.1l-64.4-29.4l64.2-30.9c6.2-3.2,5.6-5.5,2.4-11.8c-3.1-6-3.9-7.4-10.3-4.1l-62.9,31.3&#xD;&#xA;&#x9;&#x9;&#x9;&#x9;c-0.6,0.3-1.3,0.4-2,0.4v-23.3c0-7-2.1-8.1-9.1-8.1s-9,1.1-9,8.1V339c0,7,2,7.9,9,7.9s9.1-1.1,9.1-8.1V316&#xD;&#xA;&#x9;&#x9;&#x9;&#x9;c0.4,0,65.7,30.2,65.7,30.2c6.5,3.1,7.2,1.7,10.2-4.4C561.1,335.4,561.6,333.1,555.3,330.1z"/>
        <path fill="#382F8E" d="M234.8,327.8h-39.2V261c0-7-2-8.1-9-8.1s-9.2,1.1-9.2,8.1v75.7c0,7,2.2,8.8,9.2,8.8h48.3&#xD;&#xA;&#x9;&#x9;&#x9;&#x9;c3.8,0,4.4-1.9,4.4-8.8S238.6,327.8,234.8,327.8z"/>
        <path fill="#382F8E" d="M266.9,344.2c-7,0-9.2-1.1-9.2-8.1v-1.9c0-7,2.2-8.3,9.2-8.3s9,1.1,9,8.1v1.9&#xD;&#xA;&#x9;&#x9;&#x9;&#x9;C275.9,342.9,273.9,344.2,266.9,344.2z"/>
      </g>
    </g>
  </g>
</svg>