<?xml version="1.0" encoding="UTF-8" standalone="yes"?>
<svg width="100%" height="100%" viewBox="0 0 600 600" version="1.2" xml:space="preserve" fill-rule="evenodd" stroke-linejoin="round" stroke-miterlimit="2" baseProfile="tiny-ps" xmlns="http://www.w3.org/2000/svg">
  <title>bimi-svg-tiny-12-ps</title>
  <rect x="0" y="0" width="600" height="600"/>
  <path d="M198.31,300C198.31,260.15 166,227.84 126.15,227.84C86.3,227.84 53.99,260.15 53.99,300C53.99,339.85 86.3,372.16 126.15,372.16C166,372.16 198.31,339.85 198.31,300M48.88,270.67C49.41,269.27 49.28,267.71 48.54,266.42L44.2,258.9C43.73,258.08 43.71,257.07 44.16,256.22C52.83,239.97 66.14,226.67 82.38,218C83.22,217.55 84.23,217.57 85.06,218.05L92.58,222.39C93.87,223.14 95.44,223.26 96.84,222.73C115.73,215.56 136.6,215.56 155.49,222.73C156.89,223.26 158.45,223.13 159.74,222.39L167.27,218.05C168.09,217.57 169.1,217.56 169.94,218C186.19,226.67 199.49,239.98 208.16,256.22C208.61,257.06 208.57,258.11 208.09,258.94L203.77,266.42C203.02,267.72 202.9,269.28 203.43,270.67C210.6,289.56 210.6,310.43 203.43,329.32C202.9,330.72 203.03,332.28 203.77,333.57L208.12,341.1C208.59,341.92 208.61,342.93 208.16,343.77C199.49,360.02 186.18,373.32 169.94,381.99C169.1,382.44 168.09,382.42 167.27,381.95L159.74,377.6C158.45,376.85 156.88,376.73 155.49,377.26C136.6,384.43 115.73,384.43 96.84,377.26C95.44,376.73 93.88,376.86 92.58,377.6L85.06,381.95C84.24,382.42 83.22,382.44 82.38,381.99C66.14,373.32 52.83,360.01 44.16,343.77C43.71,342.93 43.73,341.92 44.2,341.1L48.54,333.57C49.29,332.28 49.41,330.71 48.88,329.32C41.71,310.43 41.71,289.56 48.88,270.67Z" fill="rgb(0,94,184)"/>
  <path d="M190.58,300C190.58,264.41 161.73,235.57 126.15,235.57C90.57,235.57 61.72,264.42 61.72,300C61.72,335.58 90.57,364.43 126.15,364.43C161.73,364.43 190.58,335.58 190.58,300" fill="rgb(0,94,184)"/>
  <path d="M251.87,369.29C248.36,369.29 245.5,366.43 245.5,362.92L245.5,305.91L232.14,305.91L232.14,362.92C232.14,373.8 240.99,382.65 251.86,382.65L308.85,382.65L308.85,369.29L251.87,369.29Z" fill="white" fill-rule="nonzero"/>
  <path d="M403.02,311.7C399.28,315.44 397.23,320.38 397.23,325.63L397.23,362.91C397.23,373.79 406.08,382.64 416.96,382.64L473.85,382.64L473.85,369.28L416.96,369.28C415.26,369.28 413.66,368.61 412.46,367.41C411.26,366.2 410.59,364.61 410.59,362.91L410.59,325.63C410.59,323.94 411.25,322.34 412.46,321.13C413.67,319.92 415.26,319.26 416.96,319.26L473.85,319.26L473.85,305.9L416.96,305.9C411.71,305.9 406.77,307.96 403.03,311.69L403.02,311.7Z" fill="white" fill-rule="nonzero"/>
  <path d="M556.38,305.92L539.79,305.92L504.91,337.63L492.91,337.63L492.91,305.91L479.6,305.91L479.6,382.65L492.91,382.65L492.91,350.93L504.89,350.93L538.39,382.65L556.38,382.65L517.07,344.28L556.38,305.92Z" fill="white" fill-rule="nonzero"/>
  <path d="M371.68,305.91L334.4,305.91C323.52,305.91 314.67,314.76 314.67,325.64L314.67,362.92C314.67,373.8 323.52,382.65 334.39,382.65L371.67,382.65C382.55,382.65 391.4,373.8 391.4,362.93L391.4,325.65C391.4,314.77 382.55,305.92 371.68,305.92L371.68,305.91ZM328.03,325.64C328.03,322.13 330.89,319.27 334.4,319.27L371.68,319.27C375.19,319.27 378.05,322.13 378.05,325.64L378.05,362.92C378.05,366.43 375.19,369.29 371.68,369.29L334.4,369.29C330.89,369.29 328.03,366.43 328.03,362.92L328.03,325.64Z" fill="white" fill-rule="nonzero"/>
  <path d="M251.87,280.85C248.36,280.85 245.5,277.99 245.5,274.48L245.5,237.2C245.5,233.69 248.36,230.83 251.87,230.83L289.14,230.83C292.65,230.83 295.51,233.69 295.51,237.2L295.51,263.33L308.87,276.69L308.87,237.2C308.87,226.32 300.02,217.47 289.15,217.47L251.88,217.47C241,217.47 232.15,226.32 232.15,237.19L232.15,274.47C232.15,285.35 241,294.19 251.87,294.19L292.17,294.19L278.79,280.83L251.87,280.83L251.87,280.85Z" fill="white" fill-rule="nonzero"/>
  <path d="M377.98,274.53C377.98,278.04 375.12,280.9 371.61,280.9L334.33,280.9C330.82,280.9 327.96,278.04 327.96,274.53L327.98,217.48L314.6,217.48L314.6,274.53C314.6,285.41 323.45,294.26 334.33,294.26L371.61,294.26C382.49,294.26 391.33,285.41 391.33,274.54L391.33,217.49L377.99,217.49L377.97,274.54L377.98,274.53Z" fill="white" fill-rule="nonzero"/>
  <path d="M454.1,217.46L416.81,217.46C411.56,217.46 406.62,219.52 402.88,223.25C399.14,226.99 397.09,231.93 397.09,237.18L397.09,294.25L410.45,294.27L410.45,262.49L460.46,262.49L460.46,294.21L473.82,294.21L473.82,237.18C473.82,226.3 464.97,217.46 454.1,217.46ZM460.46,237.18L460.46,249.13L410.45,249.13L410.45,237.18C410.45,235.49 411.12,233.89 412.32,232.68C413.53,231.47 415.12,230.81 416.82,230.81L454.1,230.81C457.61,230.81 460.47,233.67 460.47,237.18L460.46,237.18Z" fill="white" fill-rule="nonzero"/>
  <path d="M536.77,217.46L480.18,217.51L479.82,217.51L479.77,293.85L479.77,294.21L536.78,294.18C542.03,294.18 546.97,292.12 550.71,288.39C554.45,284.65 556.5,279.71 556.5,274.46L556.5,237.18C556.5,226.3 547.65,217.46 536.78,217.45L536.77,217.46ZM543.14,237.19L543.14,274.47C543.14,276.16 542.47,277.76 541.27,278.97C540.06,280.18 538.47,280.84 536.77,280.84L493.13,280.88L493.13,230.79L536.77,230.83C540.28,230.83 543.14,233.69 543.14,237.2L543.14,237.19Z" fill="white" fill-rule="nonzero"/>
  <g transform="matrix(0.707107,-0.707107,0.707107,0.707107,-111.41,290.22)">
    <rect x="287.92" y="259.87" width="13.36" height="39.45" fill="white"/>
  </g>
</svg>