<svg xmlns="http://www.w3.org/2000/svg" xmlns:xlink="http://www.w3.org/1999/xlink" version="1.2" viewBox="0 0 800 800" baseProfile="tiny-ps">
  <title>logo</title>
  <linearGradient id="SVGID_1_" gradientUnits="userSpaceOnUse" x1="-31.6893" y1="762.2347" x2="831.6893" y2="37.7653">
    <stop offset="0" stop-color="#9498FF"/>
    <stop offset="0.99" stop-color="#6699FF"/>
  </linearGradient>
  <rect width="800" height="800" fill="url(#SVGID_1_)"/>
  <g id="Layer_2_00000099628975304486945690000010309945580446485159_">
    <path d="M655,149.74c-0.153-6.491-5.379-11.717-11.87-11.87c-38-0.64-77.81,5.54-117.06,17.51   c-78.26,23.85-154.26,70.68-209,132.15C238.47,289,162,321.46,105.63,377.8c-4.783,4.706-4.846,12.399-0.14,17.182   c1.869,1.9,4.311,3.133,6.95,3.508l93.68,13.42l-11.56,13c-4.296,4.816-4.085,12.148,0.48,16.71l156.28,156.25   c2.292,2.269,5.385,3.544,8.61,3.55c2.982,0.005,5.859-1.1,8.07-3.1l13-11.58l13.44,93.75c0.63,4.57,4.23,7.92,8.61,9.38   c1.123,0.368,2.298,0.551,3.48,0.54c3.523-0.045,6.893-1.445,9.41-3.91c55.58-55.56,88-132.11,89.48-210.71   c60.76-54.2,107.46-128.94,131.56-206.1C649.49,229.5,655.91,188.68,655,149.74z M513.92,330.58   c-14.249,14.22-37.328,14.197-51.548-0.052c-14.22-14.249-14.197-37.328,0.052-51.548c14.229-14.2,37.267-14.2,51.496,0   C528.112,293.252,528.112,316.308,513.92,330.58z" fill="#A65EB7"/>
    <path d="M244,655.18c-26,26-143.57,61.74-156.87,65.72c-1.14,0.319-2.317,0.484-3.5,0.49   c-6.699,0.009-12.137-5.415-12.146-12.114c-0.002-1.191,0.172-2.376,0.516-3.516c4-13.31,39.71-130.85,65.73-156.87   c29.798-28.899,77.381-28.17,106.28,1.628C272.288,579.676,272.284,626.027,244,655.18z" fill="#492891"/>
  </g>
</svg>