<?xml version="1.0" encoding="UTF-8" standalone="yes"?>
<svg viewBox="0 0 135.46666 135.46667" version="1.2" baseProfile="tiny-ps" xmlns="http://www.w3.org/2000/svg">
  <title>Netcraft</title>
  <defs id="defs2"/>
  <g id="layer1">
    <rect id="rect846" width="135.46666" height="135.46666" x="5e-07" y="5e-07" fill="#003e51" fill-opacity="1" stroke="#000000" stroke-width="0" stroke-linecap="round" stroke-linejoin="round"/>
    <g id="g1056" transform="matrix(0.97181119,0,0,0.97181119,23.224369,30.318603)" fill="none">
      <path d="m 66.1,38.5 c -4,0 -7,-3.7 -7,-3.7 L 52.5,27.2 41.9,15.1 C 41.9,15.1 36.1,8 28.3,8 23,8 22.7,8 22.7,8 v 30.5 c 0,0 0.2,0 2.8,0 4,0 7,3.7 7,3.7 l 17.2,19.7 c 0,0 5.8,7.1 13.6,7.1 3.5,0 5.6,0 5.6,0 V 38.5 c 0,0 -0.2,0 -2.8,0 z" fill="#48a9c5" id="path1040"/>
      <path d="M 91.2,38.4 V 22.3 C 91.2,15.3 86.8,11.6 83.6,9.9 82.9,9.5 82.2,9.2 81.4,8.9 80.9,8.7 80.5,8.6 80.5,8.6 79.3,8.3 78,8 76.5,8 69.1,8 68.9,8 68.9,8 v 30.5 h 22.3 z" fill="#eada24" id="path1042"/>
      <path d="m 0.400024,38.5 v 16.2 c 0,7 4.399996,10.7 7.599996,12.4 0.7,0.4 1.4,0.7 2.19998,1 0.5,0.2 0.9,0.3 0.9,0.3 1.2,0.3 2.5,0.6 4,0.6 7.4,0 7.6,0 7.6,0 V 38.5 Z" fill="#007681" id="path1044"/>
    </g>
  </g>
</svg>