<?xml version="1.0" encoding="UTF-8"?><svg xmlns="http://www.w3.org/2000/svg" width="900" height="900" viewBox="0 0 900 900" fill="none" version="1.2" baseProfile="tiny-ps"><title>afi_tps</title><rect width="900" height="900" fill="white"></rect><path d="M304.508 523.378C293.381 515.401 279.223 505.249 265.062 495.095C249.758 484.122 234.452 473.145 222.965 464.906C217.222 460.787 212.434 457.352 209.079 454.944C208.946 454.848 208.814 454.754 208.685 454.661C209.812 451.962 211.297 448.397 213.028 444.23C217.011 434.647 222.309 421.867 227.601 409.084C232.755 396.633 237.904 384.176 241.824 374.664C243.44 378.494 245.287 382.872 247.316 387.683C254.835 405.51 264.851 429.27 274.863 453.028C284.876 476.786 294.885 500.541 302.391 518.356C303.121 520.088 303.827 521.764 304.508 523.378Z" stroke="#259D9E" stroke-width="15.1063" stroke-linejoin="round"></path><path d="M212.968 477.804C219.013 482.151 224.197 485.877 228.152 488.719L167.05 534.173L159.332 516.807C152.4 501.21 143.157 480.413 133.912 459.613C131.685 454.603 129.455 449.584 127.254 444.632C120.378 429.16 113.79 414.339 108.508 402.455C108.734 402.62 108.962 402.785 109.191 402.952C123.358 413.236 142.232 426.865 161.096 440.463C179.961 454.061 198.823 467.632 212.968 477.804Z" stroke="#4A4E52" stroke-width="15.1063" stroke-linejoin="round"></path><path d="M323.148 525.292C320.521 519.127 317.398 511.787 314.203 504.274C310.636 495.886 306.981 487.286 303.828 479.868C302.872 477.618 301.962 475.477 301.115 473.483C299.634 469.998 298.344 466.964 297.334 464.591C300.373 462.366 304.691 459.199 309.862 455.405C320.271 447.766 334.143 437.577 348.009 427.382C359.155 419.188 370.299 410.991 379.64 404.112C372.586 419.269 363.341 439.109 354.092 458.947C344.579 479.351 335.063 499.753 327.925 515.053C326.179 518.796 324.575 522.234 323.148 525.292Z" stroke="#4A4E52" stroke-width="15.1063" stroke-linejoin="round"></path><path d="M494.577 444.707H514.233V528.759H494.577V519.97C486.489 527.449 477.821 531.156 468.573 531.156C456.876 531.156 447.177 526.969 439.541 518.564C431.936 510.031 428.134 499.293 428.134 486.445C428.134 473.853 431.936 463.339 439.541 454.934C447.145 446.496 456.651 442.342 468.058 442.342C477.918 442.342 486.779 446.337 494.609 454.422V444.707H494.577ZM448.112 486.413C448.112 494.499 450.303 501.018 454.653 506.1C459.1 511.213 464.739 513.77 471.506 513.77C478.756 513.77 484.62 511.309 489.099 506.356C493.546 501.242 495.802 494.755 495.802 486.861C495.802 478.967 493.546 472.479 489.099 467.366C484.652 462.348 478.82 459.887 471.699 459.887C464.997 459.887 459.358 462.412 454.846 467.494C450.303 472.575 448.112 478.935 448.112 486.413Z" fill="#4A4E52" stroke="#232425" stroke-width="0.478376" stroke-miterlimit="10"></path><path d="M550.452 528.693V453.877H533.889V438.793H550.452V427.767C550.452 406.962 560.022 394.785 581.708 394.785C586.154 394.785 590.15 395.073 592.631 395.776V411.34C590.44 410.861 587.282 410.701 585.156 410.701C573.684 410.701 570.43 415.399 570.43 428.502V438.857H590.988V453.941H570.43V528.757H550.484V528.693H550.452Z" fill="#4A4E52" stroke="#232425" stroke-width="0.478376" stroke-miterlimit="10"></path><path d="M620.795 406.519C620.795 405.177 621.021 403.867 621.568 402.62C622.116 401.374 622.825 400.319 623.76 399.425C624.694 398.498 625.79 397.763 626.982 397.251C628.174 396.708 629.463 396.484 630.913 396.484C632.331 396.484 633.587 396.708 634.844 397.251C636.101 397.795 637.164 398.498 638.066 399.425C639.001 400.351 639.742 401.438 640.258 402.62C640.805 403.803 641.031 405.081 641.031 406.519C641.031 407.958 640.805 409.172 640.258 410.418C639.71 411.665 639.001 412.72 638.066 413.614C637.132 414.541 636.036 415.276 634.844 415.788C633.652 416.331 632.363 416.555 630.913 416.555C629.495 416.555 628.238 416.331 626.982 415.788C625.725 415.244 624.662 414.541 623.76 413.614C622.825 412.688 622.084 411.601 621.568 410.418C621.021 409.236 620.795 407.894 620.795 406.519ZM622.148 443.688L634.554 438.67H639.678V528.699H622.084V443.688H622.148Z" fill="#4A4E52" stroke="#232425" stroke-width="0.478376" stroke-miterlimit="10"></path><path d="M751.396 441.412H771.052V525.464H751.396V516.675C743.308 524.154 734.641 527.861 725.393 527.861C713.696 527.861 703.997 523.674 696.36 515.269C688.755 506.736 684.953 495.998 684.953 483.15C684.953 470.558 688.755 460.044 696.36 451.639C703.964 443.202 713.47 439.047 724.877 439.047C734.737 439.047 743.598 443.042 751.429 451.127V441.412H751.396ZM704.931 483.118C704.931 491.204 707.122 497.724 711.472 502.805C715.919 507.918 721.558 510.475 728.325 510.475C735.575 510.475 741.44 508.014 745.918 503.061C750.365 497.947 752.621 491.46 752.621 483.566C752.621 475.672 750.365 469.184 745.918 464.071C741.472 459.053 735.639 456.592 728.518 456.592C721.816 456.592 716.177 459.117 711.666 464.199C707.122 469.28 704.931 475.64 704.931 483.118Z" fill="#259D9E"></path><path d="M789.764 403.219C789.764 401.876 789.99 400.566 790.537 399.32C791.085 398.073 791.794 397.019 792.728 396.124C793.663 395.197 794.759 394.462 795.951 393.951C797.143 393.407 798.432 393.184 799.882 393.184C801.3 393.184 802.556 393.407 803.813 393.951C805.07 394.494 806.133 395.197 807.035 396.124C807.97 397.051 808.711 398.137 809.227 399.32C809.774 400.502 810 401.781 810 403.219C810 404.657 809.774 405.871 809.227 407.118C808.679 408.364 807.97 409.419 807.035 410.314C806.101 411.24 805.005 411.975 803.813 412.487C802.621 413.03 801.332 413.254 799.882 413.254C798.464 413.254 797.207 413.03 795.951 412.487C794.694 411.944 793.631 411.24 792.728 410.314C791.794 409.387 791.053 408.3 790.537 407.118C789.99 405.935 789.764 404.593 789.764 403.219ZM791.117 440.387L803.523 435.369H808.647V525.398H791.053V440.387H791.117Z" fill="#259D9E"></path><ellipse cx="665.736" cy="522.214" rx="8.23584" ry="8.23584" fill="#259D9E"></ellipse></svg>