<?xml version="1.0" encoding="utf-8"?>
<svg version="1.2" xmlns:xlink="http://www.w3.org/1999/xlink" viewBox="0 0 745 745" baseProfile="tiny-ps" xmlns="http://www.w3.org/2000/svg">
  <title>Framery</title>
<path fill="#FFFFFF" stroke="none" d=" M394.000000,746.000000   C262.666656,746.000000 131.833328,746.000000 1.000000,746.000000   C1.000000,497.666656 1.000000,249.333328 1.000000,1.000000   C249.333328,1.000000 497.666656,1.000000 746.000000,1.000000   C746.000000,249.333328 746.000000,497.666656 746.000000,746.000000   C628.833313,746.000000 511.666656,746.000000 394.000000,746.000000  M254.489960,707.012878   C287.555847,718.989685 321.668457,725.545105 356.792542,727.232300   C409.616669,729.769836 460.511444,721.249939 509.333771,700.909851   C631.363281,650.070557 713.818909,538.059082 726.290466,406.767853   C729.865601,369.131958 727.510681,331.938995 719.013123,295.170349   C699.889771,212.424622 656.483337,145.001266 589.467041,93.077095   C536.551331,52.078098 476.445435,28.513454 409.754608,21.787748   C366.391876,17.414660 323.646393,20.636576 281.626221,32.090614   C213.177750,50.748573 155.326630,86.720207 108.433449,139.944626   C59.021198,196.028244 30.613205,261.585785 22.121569,335.722626   C19.023249,362.772705 19.421469,389.867432 22.842606,416.963776   C26.124104,442.954071 31.628731,468.374390 40.783878,492.891724   C79.416702,596.349609 150.693100,667.427368 254.489960,707.012878  z" />
<path fill="#1A8D5F" stroke="none" d=" M254.103531,706.935486   C150.693100,667.427368 79.416702,596.349609 40.783878,492.891724   C31.628731,468.374390 26.124104,442.954071 22.842606,416.963776   C19.421469,389.867432 19.023249,362.772705 22.121569,335.722626   C30.613205,261.585785 59.021198,196.028244 108.433449,139.944626   C155.326630,86.720207 213.177750,50.748573 281.626221,32.090614   C323.646393,20.636576 366.391876,17.414660 409.754608,21.787748   C476.445435,28.513454 536.551331,52.078098 589.467041,93.077095   C656.483337,145.001266 699.889771,212.424622 719.013123,295.170349   C727.510681,331.938995 729.865601,369.131958 726.290466,406.767853   C713.818909,538.059082 631.363281,650.070557 509.333771,700.909851   C460.511444,721.249939 409.616669,729.769836 356.792542,727.232300   C321.668457,725.545105 287.555847,718.989685 254.103531,706.935486  M298.695557,343.710938   C298.695557,369.310150 298.695557,394.909363 298.695557,421.090393   C305.324615,421.090393 311.300598,420.840302 317.243774,421.174225   C321.540344,421.415619 323.039825,420.208374 322.936523,415.660614   C322.634094,402.343475 322.763153,389.014160 322.891083,375.691284   C322.921143,372.560486 323.255402,369.338684 324.074951,366.329041   C325.760529,360.138947 330.677734,356.891571 337.243622,357.110107   C343.372070,357.314087 347.128662,360.516144 348.536438,367.044800   C349.022369,369.298218 349.176910,371.659821 349.186279,373.973206   C349.243622,388.129822 349.204041,402.286865 349.229309,416.443665   C349.233002,418.512817 348.595062,421.077545 352.067566,421.075562   C359.361237,421.071381 366.654938,421.074310 374.638794,421.074310   C374.638794,418.780975 374.638550,417.005920 374.638855,415.230865   C374.641418,401.240570 374.588318,387.249817 374.696320,373.260345   C374.716583,370.636383 375.031281,367.906830 375.818420,365.418396   C377.643738,359.647827 382.445648,356.803406 389.075470,357.108917   C394.866089,357.375824 398.684326,360.327118 400.157288,366.137909   C400.802948,368.685059 401.032654,371.395905 401.048279,374.034821   C401.131958,388.191193 401.176727,402.349274 401.025116,416.504517   C400.988739,419.899689 401.884857,421.329681 405.500122,421.154907   C410.817444,420.897888 416.157806,421.008881 421.485199,421.118011   C424.062927,421.170807 425.067169,420.171173 425.008759,417.592194   C424.895691,412.598267 424.989166,407.599854 424.976990,402.603363   C424.943695,388.946747 425.281128,375.274994 424.740417,361.638245   C424.304352,350.640442 420.461609,340.786713 409.680237,335.858246   C398.666840,330.823669 387.572784,331.402496 377.353027,338.321808   C374.097717,340.525787 371.430511,343.598450 368.338165,346.415802   C354.650360,328.346497 338.858551,328.889923 321.574402,341.894897   C321.200775,339.673401 320.910217,337.945923 320.515564,335.599365   C315.641327,335.599365 310.853577,335.598145 306.065826,335.599640   C298.685547,335.601898 298.685547,335.602692 298.695557,343.710938  M654.887634,335.614563   C648.092041,335.614563 641.296387,335.614563 633.868774,335.614563   C633.868774,338.025879 633.869080,339.808289 633.868774,341.590698   C633.866150,357.588593 633.947754,373.587097 633.826050,389.584076   C633.762634,397.919006 629.506042,401.698456 621.174072,401.298096   C613.351135,400.922211 608.383667,396.189514 607.847656,386.674438   C607.080139,373.050812 607.248291,359.374054 607.038818,345.719635   C606.990723,342.586395 607.031677,339.451721 607.031677,336.024231   C598.792786,336.024231 591.094299,336.024231 582.998718,336.024231   C582.998718,346.253265 582.836121,356.068420 583.045166,365.875641   C583.247192,375.353821 583.207886,384.902374 584.387329,394.280060   C586.442139,410.617401 595.629456,419.850555 611.842468,421.965790   C618.828979,422.877319 626.033386,422.118500 633.097717,422.118500   C636.150757,435.452881 631.384766,441.529816 614.457642,445.570740   C614.457642,451.731384 614.345276,458.032532 614.587708,464.319977   C614.621155,465.188904 616.379883,466.675323 617.391602,466.720703   C634.938171,467.507324 648.937439,461.461334 654.990234,442.267090   C656.476562,437.553619 657.516907,432.483276 657.559998,427.566467   C657.816650,398.239288 657.746399,368.908966 657.659485,339.580048   C657.655518,338.272186 656.423950,336.967987 654.887634,335.614563  M285.906891,401.499542   C285.906830,381.346802 285.767303,361.192352 286.013489,341.042633   C286.068909,336.507477 284.620453,335.116547 280.317566,335.543701   C277.184021,335.854797 273.993195,335.542786 270.830566,335.618256   C266.544373,335.720490 261.034790,333.755585 261.422943,341.574402   C241.768616,329.018524 221.485184,330.486603 206.743851,345.140747   C192.127640,359.670502 189.618698,386.460236 201.142960,404.927856   C206.169571,412.982971 212.977768,419.027802 222.078827,421.831329   C236.025787,426.127594 249.516647,425.788300 261.994354,415.098907   C261.289124,420.629517 263.774780,421.363007 267.524353,421.151367   C272.172974,420.888977 276.858215,420.895905 281.507721,421.150024   C285.123566,421.347626 286.141754,419.892395 285.967468,416.486481   C285.729462,411.835205 285.907288,407.162628 285.906891,401.499542  M496.827148,335.674744   C495.399536,335.225830 493.990295,334.703857 492.541504,334.339020   C472.579803,329.311920 453.564789,335.493683 442.483917,350.589600   C431.472229,365.591278 430.714111,388.063080 440.686310,403.876648   C454.939484,426.478851 491.506622,431.625732 511.571259,413.815430   C513.488586,412.113525 515.158752,410.133148 517.316284,407.895660   C512.056824,404.742706 507.429199,402.139862 502.993347,399.243286   C500.443390,397.578186 498.642578,397.578644 495.918945,399.374481   C487.440033,404.964996 478.190521,405.790222 468.749786,401.934845   C461.546631,398.993256 456.743805,392.129608 457.013855,385.125397   C458.765259,385.125397 460.545044,385.125458 462.324799,385.125427   C481.801483,385.125061 501.278137,385.119171 520.754822,385.131256   C523.150818,385.132751 525.438843,385.398956 525.508362,381.788879   C525.891235,361.913483 517.010925,343.352631 496.827148,335.674744  M125.228355,313.020721   C129.717224,312.907776 134.227921,313.005249 138.680573,312.543243   C139.889648,312.417847 141.819595,310.658234 141.886444,309.555756   C142.218369,304.081238 142.218719,298.564636 141.882919,293.090607   C141.817154,292.018585 139.788956,290.260498 138.600418,290.204376   C133.624374,289.969238 128.588791,289.920319 123.638008,290.423218   C107.570694,292.055359 96.537552,301.400787 92.397057,317.014160   C91.215042,321.471405 90.547447,326.198212 90.519913,330.806671   C90.349823,359.277985 90.425713,387.750793 90.439590,416.223083   C90.440292,417.671997 90.623085,419.120850 90.724930,420.626343   C98.829681,420.626343 106.521423,420.626343 114.618889,420.626343   C114.618889,418.699707 114.618980,417.226471 114.618874,415.753235   C114.617592,398.270233 114.693878,380.786621 114.548271,363.304810   C114.519791,359.885406 115.455864,358.505493 119.022049,358.719299   C123.335464,358.977936 127.681984,358.641205 132.003860,358.816498   C135.123672,358.943024 136.591385,358.054077 136.415817,354.617798   C136.169739,349.801697 136.176132,344.955109 136.410202,340.137878   C136.581421,336.614319 135.256393,335.419891 131.795914,335.549500   C126.220833,335.758301 120.632195,335.605591 115.190857,335.605591   C113.427681,323.019562 116.197243,316.596710 125.228355,313.020721  M576.424011,346.481567   C576.424011,343.485138 576.176392,340.463104 576.482910,337.498352   C576.927124,333.201569 574.947937,331.707886 571.288330,333.145477   C565.758118,335.318024 560.451050,338.058716 555.102539,340.533173   C556.733582,334.464630 551.802124,335.536102 547.595093,335.583282   C543.600342,335.628052 539.580994,335.359192 535.623962,335.750244   C534.436584,335.867554 532.474182,337.728302 532.466980,338.801147   C532.289551,365.101959 532.296082,391.404480 532.437866,417.705780   C532.443909,418.833405 534.019470,420.890625 534.926270,420.926178   C541.861206,421.198059 548.811584,421.075409 556.372742,421.075409   C556.372742,418.652588 556.372070,416.864227 556.372864,415.075897   C556.378845,401.259003 556.291016,387.441223 556.427063,373.625580   C556.508118,365.403900 559.959351,361.360016 567.828918,359.574097   C576.426636,357.622955 576.426575,357.622955 576.421509,348.457733   C576.421326,348.124786 576.422729,347.791870 576.424011,346.481567  M161.371704,335.602631   C156.937897,335.602631 152.504089,335.602631 148.033142,335.602631   C148.033142,364.437347 148.033142,392.573547 148.033142,420.655640   C156.081818,420.655640 163.628250,420.655640 171.631073,420.655640   C171.631073,418.428375 171.630920,416.630798 171.631104,414.833191   C171.632446,401.187958 171.588684,387.542511 171.651611,373.897552   C171.691452,365.256470 175.216782,361.048676 183.654877,359.394989   C185.442581,359.044647 187.361908,359.213440 189.070526,358.670654   C190.060074,358.356293 191.445374,357.116272 191.466278,356.263733   C191.652924,348.656677 191.575012,341.043091 191.575012,332.245636   C187.134125,333.244904 183.247910,333.497101 179.959076,335.030518   C176.515625,336.636017 173.645935,339.472107 170.284561,341.947754   C169.991867,339.905060 169.722717,338.026611 169.375473,335.603302   C166.912338,335.603302 164.615204,335.603302 161.371704,335.602631  z" />
<path fill="#F8FBFA" stroke="none" d=" M298.695618,343.245178   C298.685547,335.602692 298.685547,335.601898 306.065826,335.599640   C310.853577,335.598145 315.641327,335.599365 320.515564,335.599365   C320.910217,337.945923 321.200775,339.673401 321.574402,341.894897   C338.858551,328.889923 354.650360,328.346497 368.338165,346.415802   C371.430511,343.598450 374.097717,340.525787 377.353027,338.321808   C387.572784,331.402496 398.666840,330.823669 409.680237,335.858246   C420.461609,340.786713 424.304352,350.640442 424.740417,361.638245   C425.281128,375.274994 424.943695,388.946747 424.976990,402.603363   C424.989166,407.599854 424.895691,412.598267 425.008759,417.592194   C425.067169,420.171173 424.062927,421.170807 421.485199,421.118011   C416.157806,421.008881 410.817444,420.897888 405.500122,421.154907   C401.884857,421.329681 400.988739,419.899689 401.025116,416.504517   C401.176727,402.349274 401.131958,388.191193 401.048279,374.034821   C401.032654,371.395905 400.802948,368.685059 400.157288,366.137909   C398.684326,360.327118 394.866089,357.375824 389.075470,357.108917   C382.445648,356.803406 377.643738,359.647827 375.818420,365.418396   C375.031281,367.906830 374.716583,370.636383 374.696320,373.260345   C374.588318,387.249817 374.641418,401.240570 374.638855,415.230865   C374.638550,417.005920 374.638794,418.780975 374.638794,421.074310   C366.654938,421.074310 359.361237,421.071381 352.067566,421.075562   C348.595062,421.077545 349.233002,418.512817 349.229309,416.443665   C349.204041,402.286865 349.243622,388.129822 349.186279,373.973206   C349.176910,371.659821 349.022369,369.298218 348.536438,367.044800   C347.128662,360.516144 343.372070,357.314087 337.243622,357.110107   C330.677734,356.891571 325.760529,360.138947 324.074951,366.329041   C323.255402,369.338684 322.921143,372.560486 322.891083,375.691284   C322.763153,389.014160 322.634094,402.343475 322.936523,415.660614   C323.039825,420.208374 321.540344,421.415619 317.243774,421.174225   C311.300598,420.840302 305.324615,421.090393 298.695557,421.090393   C298.695557,394.909363 298.695557,369.310150 298.695618,343.245178  z" />
<path fill="#F8FCFA" stroke="none" d=" M655.325928,335.638306   C656.423950,336.967987 657.655518,338.272186 657.659485,339.580048   C657.746399,368.908966 657.816650,398.239288 657.559998,427.566467   C657.516907,432.483276 656.476562,437.553619 654.990234,442.267090   C648.937439,461.461334 634.938171,467.507324 617.391602,466.720703   C616.379883,466.675323 614.621155,465.188904 614.587708,464.319977   C614.345276,458.032532 614.457642,451.731384 614.457642,445.570740   C631.384766,441.529816 636.150757,435.452881 633.097717,422.118500   C626.033386,422.118500 618.828979,422.877319 611.842468,421.965790   C595.629456,419.850555 586.442139,410.617401 584.387329,394.280060   C583.207886,384.902374 583.247192,375.353821 583.045166,365.875641   C582.836121,356.068420 582.998718,346.253265 582.998718,336.024231   C591.094299,336.024231 598.792786,336.024231 607.031677,336.024231   C607.031677,339.451721 606.990723,342.586395 607.038818,345.719635   C607.248291,359.374054 607.080139,373.050812 607.847656,386.674438   C608.383667,396.189514 613.351135,400.922211 621.174072,401.298096   C629.506042,401.698456 633.762634,397.919006 633.826050,389.584076   C633.947754,373.587097 633.866150,357.588593 633.868774,341.590698   C633.869080,339.808289 633.868774,338.025879 633.868774,335.614563   C641.296387,335.614563 648.092041,335.614563 655.325928,335.638306  z" />
<path fill="#F8FCFA" stroke="none" d=" M285.906860,401.999390   C285.907288,407.162628 285.729462,411.835205 285.967468,416.486481   C286.141754,419.892395 285.123566,421.347626 281.507721,421.150024   C276.858215,420.895905 272.172974,420.888977 267.524353,421.151367   C263.774780,421.363007 261.289124,420.629517 261.994354,415.098907   C249.516647,425.788300 236.025787,426.127594 222.078827,421.831329   C212.977768,419.027802 206.169571,412.982971 201.142960,404.927856   C189.618698,386.460236 192.127640,359.670502 206.743851,345.140747   C221.485184,330.486603 241.768616,329.018524 261.422943,341.574402   C261.034790,333.755585 266.544373,335.720490 270.830566,335.618256   C273.993195,335.542786 277.184021,335.854797 280.317566,335.543701   C284.620453,335.116547 286.068909,336.507477 286.013489,341.042633   C285.767303,361.192352 285.906830,381.346802 285.906860,401.999390  M230.122513,400.810303   C245.980850,405.263489 258.532318,398.655548 261.845612,384.109131   C264.424500,372.787018 259.459625,361.209137 249.979431,356.437653   C240.147736,351.489227 228.252136,353.837585 221.430588,362.073639   C211.364090,374.227509 215.064224,392.057770 230.122513,400.810303  z" />
<path fill="#F8FCFA" stroke="none" d=" M497.194672,335.808868   C517.010925,343.352631 525.891235,361.913483 525.508362,381.788879   C525.438843,385.398956 523.150818,385.132751 520.754822,385.131256   C501.278137,385.119171 481.801483,385.125061 462.324799,385.125427   C460.545044,385.125458 458.765259,385.125397 457.013855,385.125397   C456.743805,392.129608 461.546631,398.993256 468.749786,401.934845   C478.190521,405.790222 487.440033,404.964996 495.918945,399.374481   C498.642578,397.578644 500.443390,397.578186 502.993347,399.243286   C507.429199,402.139862 512.056824,404.742706 517.316284,407.895660   C515.158752,410.133148 513.488586,412.113525 511.571259,413.815430   C491.506622,431.625732 454.939484,426.478851 440.686310,403.876648   C430.714111,388.063080 431.472229,365.591278 442.483917,350.589600   C453.564789,335.493683 472.579803,329.311920 492.541504,334.339020   C493.990295,334.703857 495.399536,335.225830 497.194672,335.808868  M474.502319,367.061249   C483.529480,367.061249 492.556641,367.061249 501.783752,367.061249   C499.014313,357.036255 489.854156,351.403687 478.224976,351.910522   C468.181671,352.348267 459.731415,358.508972 458.137299,367.061310   C463.322357,367.061310 468.413269,367.061310 474.502319,367.061249  z" />
<path fill="#F8FBFA" stroke="none" d=" M124.810837,313.101990   C116.197243,316.596710 113.427681,323.019562 115.190857,335.605591   C120.632195,335.605591 126.220833,335.758301 131.795914,335.549500   C135.256393,335.419891 136.581421,336.614319 136.410202,340.137878   C136.176132,344.955109 136.169739,349.801697 136.415817,354.617798   C136.591385,358.054077 135.123672,358.943024 132.003860,358.816498   C127.681984,358.641205 123.335464,358.977936 119.022049,358.719299   C115.455864,358.505493 114.519791,359.885406 114.548271,363.304810   C114.693878,380.786621 114.617592,398.270233 114.618874,415.753235   C114.618980,417.226471 114.618889,418.699707 114.618889,420.626343   C106.521423,420.626343 98.829681,420.626343 90.724930,420.626343   C90.623085,419.120850 90.440292,417.671997 90.439590,416.223083   C90.425713,387.750793 90.349823,359.277985 90.519913,330.806671   C90.547447,326.198212 91.215042,321.471405 92.397057,317.014160   C96.537552,301.400787 107.570694,292.055359 123.638008,290.423218   C128.588791,289.920319 133.624374,289.969238 138.600418,290.204376   C139.788956,290.260498 141.817154,292.018585 141.882919,293.090607   C142.218719,298.564636 142.218369,304.081238 141.886444,309.555756   C141.819595,310.658234 139.889648,312.417847 138.680573,312.543243   C134.227921,313.005249 129.717224,312.907776 124.810837,313.101990  z" />
<path fill="#F6FBF9" stroke="none" d=" M576.423706,346.970245   C576.422729,347.791870 576.421326,348.124786 576.421509,348.457733   C576.426575,357.622955 576.426636,357.622955 567.828918,359.574097   C559.959351,361.360016 556.508118,365.403900 556.427063,373.625580   C556.291016,387.441223 556.378845,401.259003 556.372864,415.075897   C556.372070,416.864227 556.372742,418.652588 556.372742,421.075409   C548.811584,421.075409 541.861206,421.198059 534.926270,420.926178   C534.019470,420.890625 532.443909,418.833405 532.437866,417.705780   C532.296082,391.404480 532.289551,365.101959 532.466980,338.801147   C532.474182,337.728302 534.436584,335.867554 535.623962,335.750244   C539.580994,335.359192 543.600342,335.628052 547.595093,335.583282   C551.802124,335.536102 556.733582,334.464630 555.102539,340.533173   C560.451050,338.058716 565.758118,335.318024 571.288330,333.145477   C574.947937,331.707886 576.927124,333.201569 576.482910,337.498352   C576.176392,340.463104 576.424011,343.485138 576.423706,346.970245  z" />
<path fill="#F8FCFA" stroke="none" d=" M161.844894,335.602966   C164.615204,335.603302 166.912338,335.603302 169.375473,335.603302   C169.722717,338.026611 169.991867,339.905060 170.284561,341.947754   C173.645935,339.472107 176.515625,336.636017 179.959076,335.030518   C183.247910,333.497101 187.134125,333.244904 191.575012,332.245636   C191.575012,341.043091 191.652924,348.656677 191.466278,356.263733   C191.445374,357.116272 190.060074,358.356293 189.070526,358.670654   C187.361908,359.213440 185.442581,359.044647 183.654877,359.394989   C175.216782,361.048676 171.691452,365.256470 171.651611,373.897552   C171.588684,387.542511 171.632446,401.187958 171.631104,414.833191   C171.630920,416.630798 171.631073,418.428375 171.631073,420.655640   C163.628250,420.655640 156.081818,420.655640 148.033142,420.655640   C148.033142,392.573547 148.033142,364.437347 148.033142,335.602631   C152.504089,335.602631 156.937897,335.602631 161.844894,335.602966  z" />
<path fill="#1F9062" stroke="none" d=" M229.762344,400.648743   C215.064224,392.057770 211.364090,374.227509 221.430588,362.073639   C228.252136,353.837585 240.147736,351.489227 249.979431,356.437653   C259.459625,361.209137 264.424500,372.787018 261.845612,384.109131   C258.532318,398.655548 245.980850,405.263489 229.762344,400.648743  z" />
<path fill="#249266" stroke="none" d=" M474.003265,367.061279   C468.413269,367.061310 463.322357,367.061310 458.137299,367.061310   C459.731415,358.508972 468.181671,352.348267 478.224976,351.910522   C489.854156,351.403687 499.014313,357.036255 501.783752,367.061249   C492.556641,367.061249 483.529480,367.061249 474.003265,367.061279  z" />
</svg>