<?xml version="1.0" encoding="utf-8"?>
<!-- Generator: Adobe Illustrator 27.1.1, SVG Export Plug-In . SVG Version: 6.00 Build 0)  -->
<svg version="1.2" baseProfile="tiny-ps" id="Primary" xmlns="http://www.w3.org/2000/svg" xmlns:xlink="http://www.w3.org/1999/xlink"
	viewBox="0 0 288 288" xml:space="preserve">
<title>Gas South Flame-Only Logo</title>
<g>
	
		<ellipse transform="matrix(1.227795e-03 -1 1 1.227795e-03 -0.2796 287.767)" fill="#FFFFFF" cx="143.9" cy="144" rx="127.3" ry="127.4"/>
	<path fill="#FA4600" d="M207.6,162.8c-5,38.8-18.8,74.8-39.2,106.4c58.7-11.4,103.1-63,103.1-125.1c0-56.2-36.3-103.8-86.7-120.8
		C205.2,65.3,214,113.1,207.6,162.8z"/>
	<path fill="#FA4600" d="M16.5,144.1c0,61.6,43.7,113,101.7,124.9c-15.6-24-25.9-51.5-29.3-81.5c-4.3-37.6,2.7-74.1,18.6-106.4
		c9.9,11.8,18.5,24.6,25.4,38.4c9.5-35.8,26.6-68.7,49.5-97c-11.6-3.7-23.9-5.7-36.7-5.8h-3.3C72.7,17.6,16.5,74.3,16.5,144.1z"/>
	<path fill="#FA4600" d="M140.7,271.3c10.4-27.7,14.6-57.9,11-88.8c-2.6-22.5-9.1-43.7-18.8-63c-2.8,10.6-4.9,21.3-6.3,32.3
		C121.1,193.8,126.5,234.4,140.7,271.3z"/>
	<g>
		<path fill="#FA4600" d="M244.9,250c0-4.8,3.9-8.4,8.5-8.4c4.6,0,8.5,3.5,8.5,8.4c0,4.9-3.9,8.4-8.5,8.4
			C248.8,258.4,244.9,254.9,244.9,250z M253.5,257c3.8,0,6.8-3,6.8-7c0-4-3-7-6.8-7c-3.8,0-6.8,3-6.8,7
			C246.6,254,249.6,257,253.5,257z M251.7,254.9h-1.5v-9.7h3.7c2.3,0,3.4,0.8,3.4,2.8c0,1.7-1.1,2.5-2.5,2.7l2.7,4.3h-1.6l-2.6-4.2
			h-1.7V254.9z M253.4,249.4c1.2,0,2.4-0.1,2.4-1.6c0-1.2-1.1-1.4-2.1-1.4h-2v3H253.4z"/>
	</g>
</g>
</svg>
