<?xml version="1.0" encoding="utf-8"?>
<svg version="1.2" baseProfile="tiny-ps" viewBox="0 0 600 600" xmlns="http://www.w3.org/2000/svg">
  <title>Visit Orlando</title>
  <g id="Layer_1">
    <rect fill="#062E8B" width="600" height="600"/>
  </g>
  <g id="VO_logo_-_1_line">
    <g>
      <g>
        <path fill="#FFFFFF" d="M121.38,333.86c5.06-30.17,14.27-49.64,21.3-57.92c0.14,0.02,0.28,0.03,0.42,0.03 c1.7,0,2.84-1.14,2.84-2.84c0-2.1-2.28-4.67-4.94-4.67c-4.53,0-9.62,10.19-12.25,16.26c-3.19,7.37-7.74,20.07-11.71,39.39 c-0.66-4.97-1.19-9.81-1.71-14.57c-0.75-6.92-1.47-13.46-2.52-19.67c-2.96-17.24-7.57-28.73-20.47-28.73 c-3.78,0-8,1.71-11.88,4.79c-5.68,4.09-7.63,7.49-5.8,10.12c0.72,1.03,2.23,1.67,3.96,1.67c1,0,1.95-0.22,2.75-0.64 c1.72-0.9,1.73-2.32,1.73-3.36c0.01-1.03,0.01-1.77,1.25-2.66l0.39-0.32c2.69-2.23,5.36-3.46,7.52-3.46 c12.06,0,14.43,20.99,19.16,62.82l0.57,5.03c-0.07,0.36-0.07,0.68-0.07,0.93c0,2.54,1.82,4.12,4.76,4.12 c4.05,0,5.49-2.12,5.49-3.94c0-0.44-0.16-0.8-0.33-1.2C121.7,334.74,121.54,334.37,121.38,333.86z"/>
        <path fill="#FFFFFF" d="M136.91,290.87c0,2.62,2.37,4.67,5.4,4.67c3.03,0,5.31-1.93,5.31-4.48c0-2.91-2.22-4.94-5.4-4.94 C139.14,286.11,136.91,288.11,136.91,290.87z"/>
        <path fill="#FFFFFF" d="M143.18,332.29c-0.56,0-1.07,0.13-1.44,0.22c-0.04,0.01-0.09,0.02-0.14,0.03 c-0.33-0.44-0.7-2.31-0.7-8.48c0-10.28,1.52-15.57,2.09-17.57c0.19-0.67,0.29-1,0.29-1.36c0-2.06-1.3-3.3-3.48-3.3 c-4.63,0-5.58,6.18-5.58,15.46c0,13.34,1.21,22.23,7.14,22.23c2.56,0,4.76-2.36,4.76-4.3 C146.11,333.63,144.76,332.29,143.18,332.29z"/>
        <path fill="#FFFFFF" d="M166.8,316.29L166.8,316.29c-0.63-0.26-1.25-0.5-1.84-0.74c-6.38-2.53-9.9-3.93-9.9-8.89 c0-4.15,3.33-7.41,7.59-7.41c3.68,0,5.69,1.73,6.73,5.79c0.35,1.3,0.48,2.43,0.59,3.34c0.21,1.78,0.49,4.22,3.39,4.22 c0.5,0,3.02-0.19,3.02-3.85v-7.04c0-0.11,0.01-0.23,0.04-0.42l0.01-0.1c0.48-0.56,1.05-1.4,1.05-2.58c0-1.47-1.43-3.11-3.48-3.11 c-0.99,0-1.65,0.39-2.17,0.86c-2.81-2.18-5.75-3.24-8.99-3.24c-7.78,0-14.36,6.24-14.36,13.63c0,8.35,5.78,10.64,14.53,14.11 l1.73,0.69c6.12,2.41,8.62,3.68,8.62,6.51c0,3.45-4.7,5.76-11.7,5.76c-2.27,0-4.04-0.41-5.41-1.25l-0.68-0.92 c-1.99-2.71-3.3-4.51-5.53-4.51c-1.63,0-3.39,1.47-3.39,3.84c0,4.11,6.21,8.51,15.46,8.51c10.78,0,18.02-4.52,18.02-11.25 C180.12,322.23,174.6,319.5,166.8,316.29z"/>
        <path fill="#FFFFFF" d="M186.84,295.59c3.03,0,5.31-1.93,5.31-4.48c0-2.91-2.22-4.94-5.4-4.94c-3.08,0-5.31,2-5.31,4.76 C181.44,293.54,183.81,295.59,186.84,295.59z"/>
        <path fill="#FFFFFF" d="M190.04,332.26c-0.56,0-1.07,0.13-1.44,0.22c-0.04,0.01-0.1,0.02-0.14,0.03c-0.33-0.44-0.7-2.31-0.7-8.48 c0-10.27,1.52-15.56,2.09-17.57c0.19-0.67,0.29-1,0.29-1.36c0-2.06-1.3-3.3-3.48-3.3c-4.63,0-5.58,6.18-5.58,15.46 c0,13.34,1.21,22.23,7.14,22.23c2.56,0,4.76-2.36,4.76-4.3C192.97,333.6,191.63,332.26,190.04,332.26z"/>
        <path fill="#FFFFFF" d="M212.17,332.39c-1.06,0-1.72,0.6-2.07,0.92c-0.29,0.26-0.3,0.27-0.49,0.27c-1.88,0-3.2-3.84-3.2-9.33 c0-2.86,0.36-8.52,1.35-15.91h4.22c3.4,0,3.57-2.29,3.57-2.75c0-3.06-3.66-3.34-6.87-3.44c0.42-3.71,0.82-6.51,1.09-8.4 l0.02-0.15c0.22-1.55,0.36-2.49,0.36-3c0-0.96,0-3.21-2.84-3.21c-4.4,0-4.67,3.55-5.18,10c-0.12,1.49-0.25,3.14-0.43,5.03 c-1.09,0.01-2.06,0.02-2.89,0.02c-4.74,0.01-7.87,0.01-7.87,3.44c0,3.21,3.65,3.21,4.85,3.21c1.55,0,3.53-0.15,5.22-0.29 c-0.96,9.83-1.1,14.53-1.1,16.48c0,8.99,3.32,14.36,8.87,14.36c3.17,0,5.95-2.27,5.95-4.85 C214.74,333.33,213.73,332.39,212.17,332.39z"/>
      </g>
      <g>
        <path fill="#FFFFFF" d="M282.07,307.48c0,18.41-13.03,33-30.9,33c-17.96,0-30.99-14.59-30.99-33c0-18.32,13.04-32.91,30.99-32.91 C269.04,274.57,282.07,289.15,282.07,307.48z M269.95,307.48c0-11.76-8.39-21.51-18.78-21.51c-10.48,0-18.87,9.75-18.87,21.51 c0,11.85,8.39,21.6,18.87,21.6C261.56,329.08,269.95,319.32,269.95,307.48z"/>
        <path fill="#FFFFFF" d="M309.51,302.83c-7.66-1.37-12.76,2.73-12.76,9.39v27.16h-12.03v-27.16c0-13.31,9.21-22.61,24.79-20.69 V302.83z"/>
        <rect x="312.61" y="272.39" fill="#FFFFFF" width="12.03" height="66.99"/>
        <path fill="#FFFFFF" d="M375.32,339.38h-11.39v-4.92c-3.55,3.92-8.66,5.93-14.31,5.93c-12.4,0-22.51-10.94-22.51-24.43 c0-13.58,9.94-24.7,24.16-24.7c14.13,0,24.07,11.12,24.07,24.7V339.38z M351.26,302.55c-6.65,0-12.03,5.74-12.03,13.49 c0,7.47,5.38,13.22,12.03,13.22c6.66,0,12.03-5.93,12.03-13.22C363.29,308.57,357.91,302.55,351.26,302.55z"/>
        <path fill="#FFFFFF" d="M399.97,291.25c13.13,0,20.87,8.66,20.87,20.96v27.16h-12.03v-27.44c0-2.64-0.91-8.93-8.84-8.93 c-5.29,0-9.12,3.65-9.12,8.93v27.44h-12.03v-27.16C378.82,300.27,387.21,291.25,399.97,291.25z"/>
        <path fill="#FFFFFF" d="M471.44,315.95c0,13.58-9.94,24.52-24.06,24.52c-14.22,0-24.16-10.94-24.16-24.52 c0-13.49,10.12-24.52,22.42-24.52c5.56,0,10.12,1.73,13.77,5.47v-25.34h12.03V315.95z M447.37,302.55 c-6.66,0-12.03,5.74-12.03,13.49c0,7.47,5.38,13.22,12.03,13.22c6.65,0,12.03-5.93,12.03-13.22 C459.41,308.57,454.03,302.55,447.37,302.55z"/>
        <g>
          <path fill="#FFFFFF" d="M520.59,315.97c0,14.05-10.67,24.54-23.72,24.54c-13.05,0-23.63-10.49-23.63-24.54 c0-14.05,10.58-24.72,23.63-24.72C509.92,291.25,520.59,301.92,520.59,315.97z M508.46,316.06c0-8.12-5.2-13.78-11.59-13.78 c-6.38,0-11.59,5.66-11.59,13.78c0,7.94,5.2,13.41,11.59,13.41C503.26,329.47,508.46,324,508.46,316.06z"/>
          <g>
            <path fill="#FFFFFF" d="M521.79,340.44c-1.77,0-3.21-1.44-3.21-3.21c0-1.76,1.43-3.2,3.21-3.2c1.77,0,3.21,1.43,3.21,3.2 C525,339.01,523.57,340.44,521.79,340.44z M521.79,334.63c-1.42,0-2.57,1.17-2.57,2.6c0,1.44,1.15,2.61,2.57,2.61 c1.42,0,2.57-1.17,2.57-2.61C524.36,335.8,523.21,334.63,521.79,334.63z M523.41,338.93h-0.76l-0.64-1.23h-0.86v1.22h-0.66 v-3.52h1.69c0.74,0,1.21,0.45,1.21,1.15c0,0.51-0.29,0.91-0.74,1.07L523.41,338.93z M522.19,337.09c0.27,0,0.55-0.14,0.55-0.54 c0-0.4-0.21-0.54-0.55-0.54h-1.04v1.08C521.53,337.09,522.19,337.09,522.19,337.09z"/>
          </g>
        </g>
      </g>
    </g>
  </g>
  <g id="VO_logo_-_2_lines">
    <g>
      <g/>
      <g>
        <g>
          <g/>
        </g>
      </g>
    </g>
  </g>
</svg>