<?xml version="1.0" encoding="utf-8"?>
<!-- Generator: Adobe Illustrator 24.3.0, SVG Export Plug-In . SVG Version: 6.00 Build 0)  -->
<svg version="1.2" baseProfile="tiny-ps" id="Layer_1" xmlns="http://www.w3.org/2000/svg" xmlns:xlink="http://www.w3.org/1999/xlink" viewBox="0 0 180 180" xml:space="preserve">
<title>Peddinghaus Corporation</title>
<rect y="0" fill="#FFFFFF" width="180" height="180"/>
<g>
	<path fill="#F47821" d="M5.44,93.27V78.3h9.35c5.57,0,8.27,1.97,8.27,5.05c0,3.22-2.48,5.26-8.05,5.26h-3.2v4.66H5.44z
		 M14.44,85.12c1.48,0,2.56-0.46,2.56-1.75c0-1.39-2.05-1.58-3.39-1.58h-1.8v3.32H14.44z"/>
	<path fill="#F47821" d="M28.23,88.8c0,1.29,1.29,2.14,2.77,2.14c0.89,0,1.7-0.31,2.1-0.96h5.36c-0.97,2.7-4.52,3.6-7.81,3.6
		c-4.52,0-8.03-2-8.03-5.65c0-3.57,3.47-5.86,8-5.86c5.22,0,8.38,2.78,8.3,6.73H28.23z M33.32,86.59c0-1-1.16-1.89-2.48-1.89
		c-1.67,0-2.61,0.73-2.61,1.89H33.32z"/>
	<path fill="#F47821" d="M49.82,93.27v-1.45c-1.32,1.33-2.53,1.77-4.34,1.77c-4.26,0-6.41-2.47-6.41-5.55
		c0-3.62,2.61-5.96,5.98-5.96c1.78,0,3.02,0.33,4.2,1.41V78.3h5.6v14.96H49.82z M49.45,87.92c0-1.21-0.54-2.51-2.4-2.51
		c-1.86,0-2.37,1.37-2.37,2.58c0,1.14,0.38,2.47,2.21,2.47C48.83,90.46,49.45,89.19,49.45,87.92z"/>
	<path fill="#F47821" d="M66.23,93.27v-1.45c-1.32,1.33-2.53,1.77-4.34,1.77c-4.26,0-6.41-2.47-6.41-5.55
		c0-3.62,2.61-5.96,5.98-5.96c1.78,0,3.02,0.33,4.2,1.41V78.3h5.6v14.96H66.23z M65.85,87.92c0-1.21-0.54-2.51-2.4-2.51
		c-1.86,0-2.37,1.37-2.37,2.58c0,1.14,0.38,2.47,2.21,2.47C65.23,90.46,65.85,89.19,65.85,87.92z"/>
	<path fill="#F47821" d="M72.66,77.91h5.6v3.08h-5.6V77.91z M72.66,93.27V82.38h5.6v10.89H72.66z"/>
	<path fill="#F47821" d="M79.69,82.38h5.12v1.7c1.27-1.31,2.64-2.02,4.77-2.02c3.72,0,5.47,1.68,5.47,4.68v6.53h-5.6v-5.76
		c0-1.08-0.38-2.04-1.97-2.04c-1.72,0-2.18,0.85-2.18,2.24v5.55h-5.6V82.38z"/>
	<path fill="#F47821" d="M102.07,93.83c0,0.12,0.11,0.31,0.35,0.48c0.24,0.17,0.65,0.27,1.21,0.27c1.62,0,2.26-0.56,2.26-2.12v-0.89
		c-0.81,0.62-2.02,1.18-4.04,1.18c-3.91,0-6.14-2.37-6.14-5.15c0-2.68,1.67-5.53,6.3-5.53c1.7,0,3.29,0.69,4.28,1.75v-1.43h4.93
		v8.77c0,3.26-0.49,5.82-7.43,5.82c-4.98,0-7.08-1.54-7.35-3.14H102.07z M101.32,87.63c0,1.08,0.7,2.1,2.21,2.12
		c1.72,0.06,2.37-1.08,2.37-2.24c0-1.2-0.59-2.35-2.37-2.35C101.83,85.14,101.32,86.22,101.32,87.63z"/>
	<path fill="#F47821" d="M112.49,78.3h5.6v5.45c1.13-1.1,2.4-1.68,4.28-1.68c3.72,0,5.47,1.68,5.47,4.68v6.53h-5.6v-5.76
		c0-1.08-0.38-2.04-1.97-2.04c-1.72,0-2.18,0.85-2.18,2.24v5.55h-5.6V78.3z"/>
	<path fill="#F47821" d="M138.88,93.27l-0.27-1.16c-1.59,1.14-3.2,1.48-5.31,1.48c-2.67,0-5.04-1.02-5.04-3.28
		c0-4.95,10.04-2.7,10.04-4.74c0-0.79-1.24-0.89-1.83-0.89c-0.78,0-1.83,0.12-1.97,1.06h-5.39c0-2.31,2.13-3.66,7.7-3.66
		c6.68,0,7.08,1.91,7.08,4.51v5.09c0,0.62,0.03,0.94,0.75,1.39v0.21H138.88z M138.32,88.44c-1.83,0.69-4.25,0.35-4.25,1.77
		c0,0.54,0.67,0.91,1.78,0.91C137.81,91.12,138.45,89.94,138.32,88.44z"/>
	<path fill="#F47821" d="M160.64,93.27h-5.2v-1.6c-1.4,1.5-2.77,1.91-5.09,1.91c-3.07,0-5.06-1.46-5.06-4.57v-6.63h5.6v5.88
		c0,1.5,0.67,1.97,2.02,1.97c1.62,0,2.13-0.94,2.13-2.62v-5.24h5.6V93.27z"/>
	<path fill="#F47821" d="M166.62,89.88c0,0.44,0.22,0.77,0.59,1c0.35,0.21,0.83,0.33,1.37,0.33c0.86,0,1.78-0.21,1.78-0.98
		c0-1.75-8.65-0.35-8.65-4.57c0-2.78,3.74-3.6,6.68-3.6c3.07,0,6.68,0.54,7,3.43h-5.09c-0.05-0.35-0.24-0.6-0.54-0.79
		c-0.3-0.19-0.7-0.27-1.13-0.27c-0.97,0-1.59,0.23-1.59,0.77c0,1.52,8.91,0.5,8.91,4.57c0,2.27-2.42,3.8-7.6,3.8
		c-3.23,0-6.79-0.77-7.08-3.7H166.62z"/>
</g>
</svg>
