<?xml version="1.0" encoding="utf-8"?>
<!-- Generator: Adobe Illustrator 24.0.3, SVG Export Plug-In . SVG Version: 6.00 Build 0)  -->
<svg version="1.2" baseProfile="tiny-ps"
	 id="svg22" xmlns:cc="http://creativecommons.org/ns#" xmlns:dc="http://purl.org/dc/elements/1.1/" xmlns:inkscape="http://www.inkscape.org/namespaces/inkscape" xmlns:rdf="http://www.w3.org/1999/02/22-rdf-syntax-ns#" xmlns:sodipodi="http://sodipodi.sourceforge.net/DTD/sodipodi-0.dtd" xmlns:svg="http://www.w3.org/2000/svg"
	 xmlns="http://www.w3.org/2000/svg" xmlns:xlink="http://www.w3.org/1999/xlink" viewBox="0 0 216 216"
	 xml:space="preserve">
<title>hınt</title>
<path fill="#FFFFFF" d="M216,216H0V0h216V216z"/>
<path fill="#2A3A82" d="M58.9,138.4v-23.7c0-3.6-1-6.5-3-8.7c-2-2.2-4.7-3.3-8.2-3.3s-6.3,1.1-8.4,3.3c-2.1,2.2-3.2,5.1-3.2,8.7
	v23.7c0,0.6-0.2,1.1-0.7,1.5c-0.4,0.4-1,0.6-1.6,0.6H23.5c-0.6,0-1.1-0.2-1.5-0.6c-0.4-0.4-0.6-0.9-0.6-1.5V76.3
	c0-0.6,0.2-1.1,0.6-1.5c0.4-0.4,0.9-0.6,1.5-0.6h10.4c0.6,0,1.1,0.2,1.6,0.6c0.4,0.4,0.7,0.9,0.7,1.5v17.8c0,0,5.8-4.9,16.2-4.9
	c6.5,0,11.7,2.1,15.6,6.2c3.9,4.1,5.9,9.3,5.9,15.5v27.7c0,0.6-0.2,1.1-0.7,1.5c-0.4,0.4-1,0.6-1.6,0.6H61.2c-0.6,0-1.1-0.2-1.6-0.6
	C59.1,139.6,58.9,139.1,58.9,138.4 M140.3,138.4v-23.7c0-3.6-1-6.5-3-8.7c-2-2.2-4.7-3.3-8.2-3.3c-3.5,0-6.3,1.1-8.4,3.3
	c-2.1,2.2-3.2,5.1-3.2,8.7v23.7c0,0.6-0.2,1.1-0.7,1.5c-0.4,0.4-1,0.6-1.6,0.6h-10.4c-0.6,0-1.1-0.2-1.5-0.6
	c-0.4-0.4-0.6-0.9-0.6-1.5V92.6c0-0.6,0.2-1.1,0.6-1.5c0.4-0.4,0.9-0.6,1.5-0.6h10.4c0.6,0,1.1,0.2,1.6,0.6c0.4,0.4,0.7,0.9,0.7,1.5
	v1.4c0,0,5.8-4.9,16.2-4.9c6.5,0,11.7,2.1,15.6,6.2c3.9,4.1,5.9,9.3,5.9,15.5v27.7c0,0.6-0.2,1.1-0.7,1.5c-0.4,0.4-1,0.6-1.6,0.6
	h-10.4c-0.6,0-1.1-0.2-1.6-0.6C140.5,139.6,140.3,139.1,140.3,138.4 M93.5,140.5H83.1c-0.6,0-1.1-0.2-1.6-0.7
	c-0.4-0.4-0.7-1-0.7-1.6V92.7c0-0.6,0.2-1.1,0.7-1.6c0.4-0.4,1-0.7,1.6-0.7h10.4c0.6,0,1.1,0.2,1.5,0.7c0.4,0.4,0.6,1,0.6,1.6v45.5
	c0,0.6-0.2,1.1-0.6,1.6C94.6,140.3,94.1,140.5,93.5,140.5 M161.5,125.6v-22.7V90.5V76.4c0-0.7,0.2-1.2,0.7-1.6
	c0.4-0.4,1-0.6,1.6-0.6h10.5c0.5,0,1.1,0.2,1.5,0.6c0.4,0.4,0.7,1,0.7,1.6v14.1h9.4c0.6,0,1.2,0.2,1.6,0.7c0.5,0.4,0.7,1,0.7,1.6
	v7.9c0,0.5-0.2,1.1-0.7,1.5c-0.5,0.5-1,0.7-1.6,0.7h-9.4v19.2c0,2.2,0.5,3.7,1.5,4.5c1,0.8,2.2,1.2,3.5,1.2c1.4,0,2.9-0.5,4.5-1.4
	c1.9-1.2,3.3-1,4.2,0.4l3.6,5.7c0.8,1.3,0.7,2.5-0.3,3.7c-3.4,3.6-8.3,5.3-14.8,5.3c-4.8,0-8.9-1.3-12.2-4
	C163.2,134.9,161.5,130.9,161.5,125.6 M192.4,93.6v1.2h-0.4v-2.5h0.9c0.2,0,0.4,0,0.5,0.1c0.1,0.1,0.3,0.3,0.3,0.5
	c0,0.2-0.1,0.4-0.3,0.5c-0.1,0.1-0.2,0.1-0.3,0.1l0.9,1.2h-0.4l-0.9-1.2H192.4L192.4,93.6z M192.9,93.3c0.2,0,0.2,0,0.3-0.1
	c0,0,0.1-0.1,0.1-0.2s0-0.2-0.1-0.2c0,0-0.1-0.1-0.3-0.1h-0.5v0.7H192.9z M190.3,93.5c0-1.5,1.2-2.7,2.7-2.7s2.7,1.2,2.7,2.7
	c0,1.5-1.2,2.7-2.7,2.7C191.5,96.2,190.3,95,190.3,93.5 M195.4,93.5c0-1.3-1.1-2.4-2.4-2.4s-2.4,1.1-2.4,2.4s1.1,2.4,2.4,2.4
	C194.3,96,195.4,94.9,195.4,93.5"/>
</svg>
