<?xml version="1.0" encoding="utf-8"?>
<!-- Generator: Adobe Illustrator 28.2.0, SVG Export Plug-In . SVG Version: 6.00 Build 0)  -->
<svg version="1.2" baseProfile="tiny-ps" xmlns:xlink="http://www.w3.org/1999/xlink" viewBox="0 0 963 963" xmlns="http://www.w3.org/2000/svg">
  <title>op_icon_tiny</title>
<path fill="#EB7625" d="M43.2,0h876.5C943.6,0,963,19.4,963,43.2v876.5c0,23.9-19.4,43.2-43.2,43.2H43.2C19.4,963,0,943.6,0,919.8  V43.2C0,19.4,19.4,0,43.2,0z" />
<path fill="#FFFFFF" d="M527.2,283.3c-12.6-12.6-29.1-18.8-45.6-18.8s-33.1,6.3-45.6,18.8L290.9,428.4  c-16.9,16.9-26.4,39.7-26.4,63.5V634c0,0,0.1,0.3,0.1,0.5c0.2,35.1,28.9,63.7,64.1,64.1h305.9c35.1-0.3,63.8-29,64.1-64.1V491.9  c0-23.8-9.5-46.7-26.3-63.5L527.2,283.3L527.2,283.3L527.2,283.3z" />
</svg>