<?xml version="1.0" encoding="utf-8"?>
<!-- Generator: Adobe Illustrator 27.3.1, SVG Export Plug-In . SVG Version: 6.00 Build 0)  -->
<svg version="1.2" baseProfile="tiny-ps" id="AutodataBlue"
	 xmlns="http://www.w3.org/2000/svg" xmlns:xlink="http://www.w3.org/1999/xlink" viewBox="0 0 80 80"
	 xml:space="preserve">
<title>Autodata Products Limited</title>
<rect x="-0.2" y="0.1" fill="#0A5380" width="80.1" height="80"/>
<path fill="#FFFFFF" d="M21.9,34.1c0,0.1-0.2,0.3-0.5,0.7c-0.2,0.2-0.5,0.5-0.9,0.7S19.6,35.9,19,36s-1.4,0.2-2.5,0.2
	c-1.3,0-2.5,0-3.4-0.2c-1-0.2-1.7-0.4-2.3-0.6c-0.6-0.3-1-0.7-1.3-1.1c-0.2-0.5-0.4-1-0.4-1.6c0-0.7,0-1.2,0.2-1.6S9.7,30.3,10,30
	c0.3-0.3,0.7-0.6,1.1-0.7s0.9-0.3,1.4-0.4s1.1-0.2,1.7-0.2c0.6,0,1.3,0,2,0c1,0,1.8,0,2.5,0.1s1.2,0.2,1.7,0.3
	c0.4,0.2,0.8,0.2,1,0.4c0.2,0.2,0.4,0.3,0.5,0.4c0-0.8,0-1.5-0.1-2.1c0-0.6-0.2-1.1-0.4-1.5c-0.2-0.4-0.4-0.7-0.6-0.9
	c-0.2-0.2-0.6-0.4-0.9-0.5c-0.4-0.1-0.8-0.2-1.3-0.2s-1.1,0-1.7,0c-1,0-1.8,0-2.5,0s-1.2,0.2-1.5,0.3s-0.7,0.4-0.8,0.6
	c-0.2,0.2-0.2,0.6-0.2,1H9.7c0-0.7,0.1-1.2,0.4-1.7c0.2-0.5,0.7-0.9,1.2-1.1c0.6-0.3,1.3-0.5,2.2-0.6c0.9-0.2,2-0.2,3.4-0.2
	c1.3,0,2.4,0.1,3.3,0.3c0.9,0.2,1.6,0.6,2.2,1.1c0.6,0.6,1,1.3,1.2,2.2c0.2,0.9,0.4,2.1,0.4,3.5V36h-2.1V34.1L21.9,34.1z"/>
<path fill="#0A5380" d="M16.9,34.4c0.9,0,1.7,0,2.3-0.2c0.6-0.1,1.1-0.2,1.5-0.4s0.7-0.4,0.8-0.7c0.2-0.2,0.2-0.6,0.2-0.9
	c0-0.4-0.1-0.7-0.3-0.9c-0.2-0.2-0.5-0.5-0.9-0.6c-0.5-0.2-1-0.2-1.7-0.4c-0.7,0-1.6-0.1-2.7-0.1s-1.9,0-2.6,0
	c-0.7,0-1.2,0.1-1.5,0.2c-0.4,0.2-0.6,0.3-0.7,0.6c-0.1,0.2-0.2,0.6-0.2,1c0,0.5,0,0.8,0.2,1.1c0.2,0.2,0.4,0.5,0.8,0.7
	c0.4,0.2,1,0.2,1.7,0.3C14.7,34.3,15.7,34.4,16.9,34.4z"/>
<path fill="#FFFFFF" d="M28.4,23.1v7c0,0.8,0,1.4,0.2,2c0.1,0.6,0.4,1,0.7,1.3c0.4,0.3,0.9,0.6,1.5,0.7c0.7,0.2,1.5,0.2,2.5,0.2
	c1.2,0,2.1-0.1,2.9-0.2c0.7-0.2,1.3-0.4,1.7-0.7s0.7-0.7,0.9-1.1c0.2-0.4,0.2-0.9,0.2-1.4v-7.7h2.1V36H39v-2.3
	c-0.1,0.2-0.2,0.5-0.5,0.8c-0.2,0.3-0.6,0.6-1.1,0.8s-1.1,0.5-1.9,0.6c-0.8,0.2-1.7,0.2-2.9,0.2c-1,0-1.8,0-2.5-0.2
	c-0.7-0.1-1.3-0.3-1.7-0.5c-0.5-0.2-0.9-0.5-1.1-0.8c-0.3-0.4-0.5-0.7-0.7-1.2s-0.2-0.9-0.3-1.5c0-0.6-0.1-1.1-0.1-1.8V23
	C26.3,23.1,28.4,23.1,28.4,23.1z"/>
<path fill="#FFFFFF" d="M56,30.2c0,1.1-0.1,2-0.2,2.7c-0.2,0.7-0.5,1.3-0.9,1.7c-0.4,0.5-1,0.8-1.6,0.9c-0.7,0.2-1.5,0.2-2.5,0.2
	s-1.8,0-2.5-0.2s-1.2-0.4-1.6-0.8c-0.4-0.4-0.7-0.8-0.9-1.4c-0.2-0.6-0.2-1.3-0.2-2.2v-6.4h-2.7v-1.8h2.7v-3.5h2v3.5h8v1.8h-8v6.4
	c0,0.7,0,1.3,0.2,1.6c0.1,0.4,0.2,0.7,0.5,0.8s0.6,0.2,0.9,0.3c0.4,0,0.9,0,1.4,0s0.8,0,1.2,0s0.7,0,0.9-0.2
	c0.2-0.1,0.5-0.2,0.7-0.4s0.4-0.4,0.5-0.7s0.2-0.7,0.2-1.1c0-0.5,0.1-1,0.1-1.6C54.2,30.2,56,30.2,56,30.2z"/>
<path fill="#FFFFFF" d="M57.1,29.4c0-1.3,0.2-2.3,0.4-3.2c0.3-0.9,0.7-1.5,1.4-2c0.6-0.5,1.4-0.9,2.4-1.1s2.2-0.3,3.6-0.3
	c1.4,0,2.6,0.1,3.6,0.3c1,0.2,1.8,0.6,2.4,1.1s1.1,1.2,1.4,2c0.3,0.9,0.4,1.9,0.4,3.2c0,1.3-0.2,2.4-0.4,3.3
	c-0.3,0.9-0.7,1.6-1.4,2.1c-0.6,0.5-1.4,0.9-2.4,1.1c-1,0.2-2.2,0.3-3.6,0.3s-2.6-0.1-3.6-0.3s-1.8-0.6-2.4-1.1
	c-0.6-0.5-1.1-1.2-1.4-2.1C57.3,31.8,57.1,30.6,57.1,29.4z"/>
<path fill="#0A5380" d="M59.3,29.4c0,0.7,0,1.3,0.1,1.8c0,0.5,0.2,1,0.3,1.3s0.4,0.7,0.6,0.9s0.6,0.4,1,0.6c0.4,0.2,0.9,0.2,1.5,0.3
	c0.6,0,1.3,0.1,2.1,0.1c0.7,0,1.3,0,1.9,0s1-0.1,1.5-0.2c0.4-0.1,0.8-0.3,1.1-0.5c0.3-0.2,0.5-0.5,0.7-0.9s0.3-0.8,0.4-1.4
	s0.1-1.2,0.1-2s0-1.4-0.1-1.9s-0.2-1-0.4-1.3c-0.2-0.4-0.4-0.7-0.7-0.9c-0.3-0.2-0.7-0.4-1.1-0.5s-0.9-0.2-1.5-0.2s-1.2,0-1.9,0
	s-1.3,0-1.9,0c-0.6,0-1.1,0.1-1.5,0.2s-0.8,0.2-1.1,0.5s-0.5,0.5-0.7,0.9s-0.3,0.8-0.4,1.3C59.3,27.9,59.3,28.6,59.3,29.4z"/>
<path fill="#FFFFFF" d="M16,56c-1.4,0-2.6-0.1-3.6-0.3s-1.8-0.6-2.4-1.1c-0.6-0.5-1.1-1.2-1.4-2c-0.3-0.9-0.4-1.9-0.4-3.2
	s0.2-2.4,0.4-3.3c0.3-0.9,0.7-1.5,1.4-2c0.6-0.5,1.4-0.9,2.4-1.1s2.2-0.3,3.6-0.3c1,0,1.8,0,2.5,0.2c0.7,0.1,1.2,0.2,1.7,0.4
	c0.4,0.2,0.8,0.3,1,0.5s0.4,0.4,0.5,0.5v-5.5h2.1v17.1h-2.1v-2l-0.5,0.7c-0.3,0.3-0.7,0.6-1,0.8c-0.4,0.2-0.9,0.4-1.6,0.6
	C17.8,55.9,17,56,16,56z"/>
<path fill="#0A5380" d="M16,54.2c0.7,0,1.3,0,1.9,0s1-0.1,1.5-0.2c0.4-0.1,0.8-0.2,1.1-0.5c0.3-0.2,0.5-0.5,0.7-0.9s0.3-0.8,0.4-1.3
	s0.1-1.2,0.1-1.9c0-0.8,0-1.4-0.1-2s-0.2-1-0.4-1.4c-0.2-0.4-0.4-0.7-0.7-0.9c-0.3-0.2-0.7-0.4-1.1-0.5s-0.9-0.2-1.5-0.2
	s-1.2,0-1.9,0c-0.8,0-1.5,0-2.1,0.1c-0.6,0-1.1,0.2-1.5,0.2c-0.4,0.2-0.8,0.3-1,0.6c-0.2,0.2-0.5,0.5-0.6,0.9
	c-0.2,0.4-0.2,0.8-0.3,1.3c0,0.5,0,1.1,0,1.8s0,1.3,0,1.8s0.2,0.9,0.3,1.3c0.2,0.4,0.4,0.7,0.6,0.9s0.6,0.4,1,0.6
	c0.4,0.2,0.9,0.2,1.5,0.2C14.5,54.2,15.2,54.2,16,54.2z"/>
<path fill="#FFFFFF" d="M38.8,54c0,0.1-0.2,0.3-0.5,0.7c-0.2,0.2-0.5,0.5-0.9,0.7s-0.9,0.4-1.5,0.5C35.4,56,34.6,56,33.5,56
	c-1.3,0-2.5,0-3.4-0.2c-1-0.2-1.7-0.4-2.3-0.6c-0.6-0.3-1-0.7-1.3-1.1c-0.2-0.5-0.4-1-0.4-1.6c0-0.7,0-1.2,0.2-1.6
	c0.2-0.5,0.4-0.8,0.7-1.1c0.3-0.3,0.7-0.6,1.1-0.7s0.9-0.3,1.4-0.4c0.5-0.1,1.1-0.2,1.7-0.2s1.3,0,2,0c1,0,1.8,0,2.5,0.1
	s1.2,0.2,1.7,0.3c0.4,0.2,0.8,0.2,1,0.4s0.4,0.3,0.5,0.4c0-0.8,0-1.5-0.1-2.1c0-0.6-0.2-1.1-0.4-1.5s-0.4-0.7-0.6-0.9
	c-0.2-0.2-0.6-0.4-0.9-0.5c-0.4-0.1-0.8-0.2-1.3-0.2s-1.1,0-1.7,0c-1,0-1.8,0-2.5,0s-1.2,0.2-1.5,0.3c-0.4,0.2-0.7,0.4-0.8,0.6
	c-0.2,0.2-0.2,0.6-0.2,1h-2.1c0-0.7,0.1-1.2,0.4-1.7c0.2-0.5,0.7-0.9,1.2-1.1c0.6-0.3,1.3-0.5,2.2-0.6c0.9-0.2,2-0.2,3.4-0.2
	c1.3,0,2.4,0.1,3.3,0.3c1,0.2,1.6,0.6,2.2,1.1c0.6,0.6,1,1.3,1.2,2.2s0.4,2.1,0.4,3.5v5.9H39L38.8,54L38.8,54z"/>
<path fill="#0A5380" d="M33.9,54.2c0.9,0,1.7,0,2.3-0.2c0.6-0.1,1.1-0.2,1.5-0.4s0.7-0.4,0.8-0.7c0.2-0.2,0.2-0.6,0.2-0.9
	c0-0.4-0.1-0.7-0.3-0.9s-0.5-0.5-0.9-0.6c-0.5-0.2-1-0.2-1.7-0.4c-0.7,0-1.6-0.1-2.7-0.1c-1.1,0-1.9,0-2.6,0s-1.2,0.1-1.5,0.2
	c-0.4,0.1-0.6,0.3-0.7,0.6c-0.1,0.2-0.2,0.6-0.2,1c0,0.5,0,0.8,0.2,1.1c0.2,0.2,0.4,0.5,0.8,0.7s1,0.2,1.7,0.3
	C31.7,54.2,32.6,54.2,33.9,54.2z"/>
<path fill="#FFFFFF" d="M55.6,50.1c0,1.1-0.1,2-0.2,2.7c-0.2,0.7-0.5,1.3-0.9,1.7c-0.4,0.5-1,0.8-1.6,0.9c-0.7,0.2-1.5,0.2-2.5,0.2
	s-1.8,0-2.5-0.2s-1.2-0.4-1.6-0.8c-0.4-0.4-0.7-0.8-0.9-1.4c-0.2-0.6-0.2-1.3-0.2-2.2v-6.3h-2.7V43h2.7v-3.5h2.1V43h8v1.8h-8v6.4
	c0,0.7,0,1.3,0.2,1.6c0.1,0.4,0.2,0.7,0.5,0.8c0.2,0.2,0.6,0.2,0.9,0.3c0.4,0,0.9,0,1.4,0s0.8,0,1.2,0s0.7,0,0.9-0.2
	s0.5-0.2,0.7-0.4s0.4-0.4,0.5-0.7s0.2-0.7,0.2-1.1c0-0.5,0.1-1,0.1-1.6C54,50.1,55.6,50.1,55.6,50.1z"/>
<path fill="#FFFFFF" d="M69.9,54c0,0.1-0.2,0.3-0.5,0.7c-0.2,0.2-0.5,0.5-0.9,0.7s-0.9,0.4-1.5,0.5C66.5,56,65.6,56,64.6,56
	c-1.3,0-2.5,0-3.4-0.2c-1-0.2-1.7-0.4-2.3-0.6c-0.6-0.3-1-0.7-1.3-1.1c-0.2-0.5-0.4-1-0.4-1.6c0-0.7,0-1.2,0.2-1.6
	c0.2-0.5,0.4-0.8,0.7-1.1s0.7-0.6,1.1-0.7s0.9-0.3,1.4-0.4c0.5-0.1,1.1-0.2,1.7-0.2c0.6,0,1.3,0,2,0c1,0,1.8,0,2.5,0.1
	s1.2,0.2,1.7,0.3c0.4,0.2,0.8,0.2,1,0.4s0.4,0.3,0.5,0.4c0-0.8,0-1.5-0.1-2.1c0-0.6-0.2-1.1-0.4-1.5c-0.2-0.4-0.4-0.7-0.6-0.9
	s-0.6-0.4-0.9-0.5c-0.4-0.1-0.8-0.2-1.3-0.2s-1.1,0-1.7,0c-1,0-1.8,0-2.5,0s-1.2,0.2-1.5,0.3c-0.4,0.2-0.7,0.4-0.8,0.6
	C60,45.6,60,46,60,46.4h-2.1c0-0.7,0.1-1.2,0.4-1.7c0.2-0.5,0.7-0.9,1.2-1.1c0.6-0.3,1.3-0.5,2.2-0.6c0.9-0.2,2-0.2,3.4-0.2
	c1.3,0,2.4,0.1,3.3,0.3c1,0.2,1.6,0.6,2.2,1.1c0.6,0.6,1,1.3,1.2,2.2s0.4,2.1,0.4,3.5v5.9h-2.1L69.9,54L69.9,54z"/>
<path fill="#0A5380" d="M65,54.2c0.9,0,1.7,0,2.3-0.2c0.6-0.1,1.1-0.2,1.5-0.4s0.7-0.4,0.8-0.7c0.2-0.2,0.2-0.6,0.2-0.9
	c0-0.4-0.1-0.7-0.3-0.9c-0.2-0.2-0.5-0.5-0.9-0.6c-0.5-0.2-1-0.2-1.7-0.4c-0.7,0-1.6-0.1-2.7-0.1s-1.9,0-2.6,0
	c-0.7,0-1.2,0.1-1.5,0.2c-0.4,0.2-0.6,0.3-0.7,0.6c-0.1,0.2-0.2,0.6-0.2,1c0,0.5,0,0.8,0.2,1.1c0.2,0.2,0.4,0.5,0.8,0.7
	c0.4,0.2,1,0.2,1.7,0.3C62.8,54.2,63.7,54.2,65,54.2z"/>
</svg>
