<?xml version="1.0"?><svg version="1.2" baseProfile="tiny-ps" viewBox="0 0 300 300" xmlns="http://www.w3.org/2000/svg" xmlns:xlink="http://www.w3.org/1999/xlink"><title>Whois API Inc.</title><g><g fill="#3499fb" transform="matrix(.1 0 0 -.1 0 300)"><path d="m474 1690-60-20-62-40c-35-22-65-47-69-56l-6-15 17-63c27-99 99-216 121-195 3 3-11 33-30 65l-36 59-21 68-20 68 18 15c44 34 123 74 178 89l60 17 60-6 61-6 52-25 51-26 37-41c21-22 46-61 58-87l20-46 5-72 5-73h30l-5 78-4 77-26 55-25 55-44 43-44 43-54 26-53 26-77 4-76 3-61-20zm71-79-41-18-26-32-27-31-6-45-7-44 10-31c6-16 25-48 43-69l31-40 55-7 54-6 45 17 44 17 27 35 26 34 5 52 4 52-11 28-11 27h-22l8-17c4-10 10-43 12-74l4-56-27-32c-15-17-40-38-56-46l-28-15h-80l-11 20-11 20h-47l-17 26c-9 15-20 44-23 66l-5 39 18 40 19 40 41 25 42 24h63v20h-27c-16 0-46-9-68-19zm102-34c-21-65-21-67-2-67 20 0 94 52 95 67 0 14-47 53-65 53h-11l-17-53zm429 15c-2-4 5-47 17-95l21-87h54l7 38c3 20 10 44 14 51l9 14 7-34c3-19 9-42 12-52l5-18 26 3 26 3 22 88 22 87-11 7-10 6-13-17c-7-10-15-34-19-55-3-20-10-42-14-49l-8-13-13 61c-14 64-20 73-43 65l-14-6-13-56-12-57-8 15c-4 8-11 30-15 49-10 49-34 75-49 52zm261 2c-4-4-7-47-7-96v-88h40v88l13 11 14 11 6-7c4-3 7-28 7-55v-49l23 3 22 3v58l-1 58-14 10-15 10-27-5-27-5-3 26c-3 27-18 39-31 27zm300 0c-4-4-7-13-7-21v-13h41l-3 17c-3 18-20 27-31 17zm180 0c-3-4 5-23 18-43 31-44 31-48 0-93-30-44-30-48-6-48h19l21 28 21 27 10-15c6-8 14-21 19-28l8-14 21 4 21 3-28 45-28 45 29 43 29 42-17 7-17 6-24-29-24-29-20 28c-20 26-39 34-52 21zm180-1c-4-3-7-46-7-95v-88h39l3 58 3 57 22-37c12-21 27-38 32-38s20 17 33 38l23 37 3-57 3-58h40l-3 93-3 92h-39l-29-44-30-43-28 46-29 46h-13c-8 0-17-3-20-7zm220 1c-4-4-7-47-7-96v-88h120v30h-69l-3 77-3 78-15 3c-9 1-19 0-23-4zm207-2c-6-4-23-38-37-77-14-38-28-78-32-87l-7-18h30l5 20 5 20h80l15-22c8-13 18-20 21-17l7 6-31 84c-17 46-34 87-38 91l-7 7-11-7zm25-73c6-18 11-36 11-40v-9h-30c-34 0-34 1-18 47 15 41 23 42 37 2zm91-19v-90h20v80h76l12 12c7 7 12 24 12 38s-5 31-12 38l-12 12h-96v-90zm95 40v-25l-37-3-38-3v62l38-3 37-3v-25zm65-40v-90h20v180h-20v-90zm-2160 55-35-13-3-65-3-65 30-29 30-30 30-6 31-7 26 10c15 6 39 19 54 30l27 19 1 44 2 43-15 20-15 19 6-42 6-41-21-12-22-11 3-17 3-16-28-14-28-13-35 11-35 12-16 24-16 25 1 28 1 29 28 28c15 16 41 34 58 41l30 11h-30c-16 0-46-6-65-13zm951-31c-24-30-25-42-11-79l10-25 25-10 25-10 25 10 25 10 11 24 12 25-7 25c-3 13-13 32-22 40l-15 16h-58l-20-26zm69-24 11-21-6-19-6-20h-37l-5 22-6 21 10 19c13 24 26 23 39-2zm74 37c-3-8-4-41-2-73l3-59h30v138l-12 4-13 5-6-15zm72-2c-9-9-16-23-16-30v-14l31-23 31-23-28-5c-15-3-29-10-31-16l-4-12 28-5 28-6 23 15 22 14v40l-25 16c-14 9-25 21-25 26v9l21-6 21-7-4 19-3 18-26 3-26 3-17-16zm-1140-72c4-16 10-32 15-37l9-10 15 20 14 19 1-17v-18h28l6 23c8 32 7 47-4 47h-10v-34l-15 20-15 19-11-15-11-15-5 13c-2 6-9 12-14 12h-9l6-27z"/></g><g fill="#2d609d" transform="matrix(.1 0 0 -.1 0 300)"><path d="m545 1611-41-18-26-32-27-31-6-44-7-45 11-34c6-19 23-45 36-57 31-29 32-18 4 21l-21 30-5 40-6 40 18 40 19 40 41 25 42 24h63v20h-27c-16 0-46-9-68-19zm531-19c-2-4 5-47 17-95l21-87h54l7 38c3 20 10 44 14 51l9 14 7-34c3-19 9-42 12-52l5-18 26 3 26 3 22 88 22 87-11 7-10 6-13-17c-7-10-15-34-19-55-3-20-10-42-14-49l-8-13-13 61c-14 64-20 73-43 65l-14-6-13-56-12-57-8 15c-4 8-11 30-15 49-10 49-34 75-49 52zm261 2c-4-4-7-47-7-96v-88h40v88l13 11 14 11 6-7c4-3 7-28 7-55v-49l23 3 22 3v58l-1 58-14 10-15 10-27-5-27-5-3 26c-3 27-18 39-31 27zm300 0c-4-4-7-13-7-21v-13h41l-3 17c-3 18-20 27-31 17zm787-2c-6-4-23-38-37-77-14-38-28-78-32-87l-7-18h30l5 20 5 20h80l15-22c8-13 18-20 21-17l7 6-31 84c-17 46-34 87-38 91l-7 7-11-7zm25-73c6-18 11-36 11-40v-9h-30c-34 0-34 1-18 47 15 41 23 42 37 2zm91-19v-90h20v80h76l12 12c7 7 12 24 12 38s-5 31-12 38l-12 12h-96v-90zm95 40v-25l-37-3-38-3v62l38-3 37-3v-25zm65-40v-90h20v180h-20v-90zm-2140 60c-26-16-4-20 36-6l39 15h-30c-16 0-37-3-45-9zm186-27c4-10 10-43 12-74l4-56-31-35c-17-20-45-41-61-48l-30-13-45 6-45 5-5-9-6-8 36-7 35-6 34 6c19 4 48 17 66 29l33 22 18 35 19 35v42c0 49-15 93-31 93h-11l8-17zm745-9c-24-30-25-42-11-79l10-25 25-10 25-10 25 10 25 10 11 24 12 25-7 25c-3 13-13 32-22 40l-15 16h-58l-20-26zm69-24 11-21-6-19-6-20h-37l-5 22-6 21 10 19c13 24 26 23 39-2zm74 37c-3-8-4-41-2-73l3-59h30v138l-12 4-13 5-6-15zm72-2c-9-9-16-23-16-30v-14l31-23 31-23-28-5c-15-3-29-10-31-16l-4-12 28-5 28-6 23 15 22 14v40l-25 16c-14 9-25 21-25 26v9l21-6 21-7-4 19-3 18-26 3-26 3-17-16zm-1002-58 1-47h25v56l-14 19-14 19 2-47zm-197 26c-4-3-7-25-7-49v-42l29-30 30-29 31-7 31-6 35 15c19 8 34 19 34 24 0 14-1 14-39-5l-31-16-35 12-36 12-16 25-16 24 1 40c2 40 0 44-11 32zm59-40c4-16 10-32 15-37l9-10 15 20 14 19 1-17v-18h28l6 23c8 32 7 47-4 47h-10v-34l-15 20-15 19-11-15-11-15-5 13c-2 6-9 12-14 12h-9l6-27z"/></g><g fill="#28283c" transform="matrix(.1 0 0 -.1 0 300)"><path d="m545 1611-41-18-26-32-27-31-6-44-7-45 11-34c7-19 21-43 31-52 25-23 25-15 0 32l-20 38v66l19 37 19 37 40 23 40 22h62v20h-27c-16 0-46-9-68-19zm531-19c-2-4 5-47 17-95l21-87h54l7 38c3 20 10 44 14 51l9 14 7-34c3-19 9-42 12-52l5-18 26 3 26 3 22 88 22 87-11 7-10 6-13-17c-7-10-15-34-19-55-3-20-10-42-14-49l-8-13-13 61c-14 64-20 73-43 65l-14-6-13-56-12-57-8 15c-4 8-11 30-15 49-10 49-34 75-49 52zm261 2c-4-4-7-47-7-96v-88h40v88l13 11 14 11 6-7c4-3 7-28 7-55v-49l23 3 22 3v58l-1 58-14 10-15 10-27-5-27-5-3 26c-3 27-18 39-31 27zm300 0c-4-4-7-13-7-21v-13h41l-3 17c-3 18-20 27-31 17zm787-2c-6-4-23-38-37-77-14-38-28-78-32-87l-7-18h30l5 20 5 20h80l15-22c8-13 18-20 21-17l7 6-31 84c-17 46-34 87-38 91l-7 7-11-7zm25-73c6-18 11-36 11-40v-9h-30c-34 0-34 1-18 47 15 41 23 42 37 2zm91-19v-90h20v80h76l12 12c7 7 12 24 12 38s-5 31-12 38l-12 12h-96v-90zm95 40v-25l-37-3-38-3v62l38-3 37-3v-25zm65-40v-90h20v180h-20v-90zm-2140 60c-26-16-4-20 36-6l39 15h-30c-16 0-37-3-45-9zm186-27c4-10 10-43 12-74l4-56-27-32c-15-17-41-39-57-47l-30-15-41 1c-23 1-46 1-52 1l-10-1 15-10c8-5 31-10 50-10h35l41 19 41 19 23 32 24 33 4 51 4 51-11 28-11 27h-22l8-17zm745-9c-24-30-25-42-11-79l10-25 25-10 25-10 25 10 25 10 11 24 12 25-7 25c-3 13-13 32-22 40l-15 16h-58l-20-26zm69-24 11-21-6-19-6-20h-37l-5 22-6 21 10 19c13 24 26 23 39-2zm74 37c-3-8-4-41-2-73l3-59h30v138l-12 4-13 5-6-15zm72-2c-9-9-16-23-16-30v-14l31-23 31-23-28-5c-15-3-29-10-31-16l-4-12 28-5 28-6 23 15 22 14v40l-25 16c-14 9-25 21-25 26v9l21-6 21-7-4 19-3 18-26 3-26 3-17-16zm-1002-35c3-14 6-35 6-47v-23h20v56l-16 20-15 19 5-25zm-204-44v-44l29-30 30-29 31-7 31-6 35 15 35 15-5 9-6 9-30-15-30-15-35 12-36 12-16 25-16 24 1 35 1 34h-19v-44zm66 7c4-16 10-32 15-37l9-10 15 20 14 19 1-17v-18h28l6 23c8 32 7 47-4 47h-10v-34l-15 20-15 19-11-15-11-15-5 13c-2 6-9 12-14 12h-9l6-27z"/></g></g></svg>