<?xml version="1.0" encoding="utf-8"?>
<!-- Generator: Adobe Illustrator 25.0.1, SVG Export Plug-In . SVG Version: 6.00 Build 0)  -->
<svg version="1.2" baseProfile="tiny-ps" id="Layer_1" xmlns="http://www.w3.org/2000/svg" xmlns:xlink="http://www.w3.org/1999/xlink"
	 viewBox="0 0 200 200" xml:space="preserve">
<title>emfluence</title>
<g>
	<path fill="#2D8498" d="M121.9,178.9H78.7c-13.6,0-24.7-11-24.7-24.7V46.2c0-13.6,11-24.7,24.7-24.7h43.2c13.6,0,24.7,11,24.7,24.7
		v108.1C146.5,167.9,135.5,178.9,121.9,178.9z M121.9,167.7c7.4,0,13.4-6,13.4-13.4V46.2c0-7.4-6-13.4-13.4-13.4H78.7
		c-7.4,0-13.4,6-13.4,13.4v108.1c0,7.4,6,13.4,13.4,13.4H121.9"/>
	<path fill-rule="evenodd" fill="#2D8498" d="M87,97.3h25.4c2.9,0,5.2,2.3,5.2,5.2v0c0,2.9-2.3,5.2-5.2,5.2H87
		c-2.9,0-5.2-2.3-5.2-5.2v0C81.8,99.6,84.1,97.3,87,97.3z"/>

		<ellipse transform="matrix(4.531423e-02 -0.999 0.999 4.531423e-02 27.3411 163.8646)" fill-rule="evenodd" fill="#2D8498" cx="99.4" cy="67.6" rx="10.5" ry="10.5"/>

		<ellipse transform="matrix(7.088876e-02 -0.9975 0.9975 7.088876e-02 -44.3984 226.5349)" fill-rule="evenodd" fill="#2D8498" cx="99.4" cy="137.1" rx="10.5" ry="10.5"/>
</g>
</svg>
