<?xml version="1.0" encoding="UTF-8"?>
<svg id="Layer_1" xmlns="http://www.w3.org/2000/svg" baseProfile="tiny-ps" version="1.2" viewBox="0 0 64 64">
<title>SeaRoad</title>
  <!-- Generator: Adobe Illustrator 29.1.0, SVG Export Plug-In . SVG Version: 2.1.0 Build 142)  -->
  <path d="M63.8.4v63.4H.5V.4h63.3ZM8.7,25.7c-1.6,0-4,.8-4.5,2.5s0,2.3,1.3,2.8,3.2.5,2.4,1.6-2.1.5-2.9.3-1-.4-1.5-.5c0,0-1.1,1.3-1.2,1.5s-.2.2,0,.3c2.3,1.4,7.9,1,9-1.8s0-2.3-1.2-2.8-3.7-.7-2.5-1.7,2.5,0,3.3.3l1.6-1.6c-1-.7-2.6-.9-3.8-.9ZM26.9,36.2h2.5l1-3.4c.2,0,.3,0,.5,0,.6.3.6,2.9,1,3.5h2.8c0,0,.2-.2.1-.3-.5-1.2-.5-2.6-1.5-3.6,2.5-.2,4.3-4.1,1.1-4.9s-4.3-.3-5.3-.1-.2,0-.3,0l-2.1,8.7ZM19.1,27.5h-5.4c-.1,0-.2.3-.3.4-.6,1.5-1.4,4.8-1.6,6.4s0,.3,0,.5h5.7l.5-1.7h-3.1c0-.3.1-1.1.3-1.3.4-.2,2,.1,2.3,0l.3-1.6h-2.2l.3-.9h2.8s.5-1.7.5-1.7ZM23.8,34.9h2.5c0,0,.2-.2.1-.3-.5-2.1-.5-4.6-1-6.7s-.2-.3-.5-.3-2.1,0-2.3,0l-4.7,6.9v.4c-.1,0,2.6,0,2.6,0l.8-1.3h2.1c0,0,.2,1.3.2,1.3ZM40.8,28.9c-5.3.4-7.2,7.7-1.1,7.4s4.4-1.4,4.9-3.8-1.3-3.8-3.9-3.6ZM52.1,36.2l-.9-7.1h-2.7c-1.3,2-2.7,3.9-4.1,5.9s-.6.7-.7,1.1h2.7c.3-.3.5-.9.7-1.2s1.7,0,2.2,0l.2,1.3h2.6ZM52.8,36.2h4.3c.5,0,1.7-.6,2.2-1,1.6-1.3,2.9-5.2.2-6s-3.3-.2-4.8-.2l-1.8,7.1ZM1.9,37.5c0,0,0,.1.1.2,0,0,.1,0,.1,0,0,0,.2,0,.3,0,0,0,0,.1,0,.2,0,0,.2,0,.2,0,0,0,.2,0,.3,0,0,0,0,.1,0,.2,0,0,.2,0,.2,0,.2,0,.5.1.8,0v.2c0,0,.2,0,.2,0,0,0,.3,0,.3,0s0,.1,0,.2c0,0,.2,0,.2,0,.2,0,.3,0,.4,0s.2,0,.3,0c.2,0,.4,0,.6,0s.5.2.7,0c0,0,.1,0,.2,0s.1.1.3,0,.2,0,.2,0c.1,0,.3,0,.4,0s0,.1.2,0v-.2c.8,0,1.5-.4,2.2-.5s.1-.1.2-.2,1.1-.3,1.1-.3,0,.1.2,0c0,0,0-.2,0-.2s.3,0,.3,0,0,.1.2,0c0,0,0-.2,0-.2,0,0,.5,0,.6,0,.2,0,.3,0,.5,0,.3,0,.6,0,.9,0s.1,0,.3,0,.3,0,.3,0,0,.1,0,.2c0,0,.2,0,.2,0,0,0,.2,0,.3,0,0,0,0,.1,0,.2,0,0,.2,0,.2,0,0,0,.7.1.8.2s0,.1,0,.2c0,0,.2,0,.2,0,0,0,.1,0,.2,0,0,.3.3.2.4.2s.2,0,.2,0c0,0,0,.2,0,.2,0,0,.2,0,.2,0,0,0,.2,0,.2,0,0,0,0,.2,0,.2,0,0,.2,0,.2,0,0,0,.2,0,.2,0,0,0,0,.2,0,.2,0,0,.2,0,.2,0,0,0,.2,0,.3,0,0,0,0,.1,0,.2,0,0,.2,0,.2,0,0,0,.2,0,.3,0,0,0,0,.1,0,.2,0,0,.2,0,.2,0,0,0,.3,0,.3,0s0,.1,0,.2c0,0,.2,0,.2,0,.1,0,.3,0,.4,0,0,.4.2,0,.3,0,.1,0,.3,0,.5,0s.5.2.7,0c.1,0,.2,0,.3,0s.1,0,.3,0,.3,0,.3,0c.2,0,.4,0,.5,0s.3.3.3,0c0,0,.2,0,.3,0s0,.1.2,0c0,0,0-.2,0-.2,0,0,1.3-.3,1.6-.3s.8-.1.7-.3c.2,0,.7-.2.9-.2s0,.1.2,0c0,0,0-.2,0-.2s.3,0,.3,0c.1,0,0,0,.3,0s.4,0,.7,0,.3,0,.3,0c.3,0,.5,0,.8,0s.1,0,.3,0,.4,0,.4,0,0,.1,0,.2c0,0,.2,0,.2,0,0,0,.2,0,.3,0,0,0-.2.1.2.2s.6,0,.9,0c0,.3.4.2.4.2s.1,0,.2,0c0,.3.3.2.4.2s.1,0,.2,0c0,.3.1,0,.2,0,0,0,.5,0,.5,0s0,.1,0,.2c0,0,.2,0,.2,0,0,0,.2,0,.2,0,0,0,0,.2,0,.2,0,0,.2,0,.2,0,0,0,.2,0,.3,0,0,0,0,.1,0,.2,0,0,.2,0,.2,0,0,0,.2,0,.3,0,0,0,0,.1,0,.2,0,0,.2,0,.2,0,.1,0,.3,0,.4,0v.2s.3,0,.3,0v-.2c.1,0,.3,0,.4,0s.1,0,.3,0c.2,0,.3,0,.5,0s0,0,.3,0,.4-.1.6,0,0,.1.2,0c0,0,0-.2,0-.2,0,0,.5,0,.6,0s0,0,.2,0c.2,0,.4,0,.6,0s0,0,.3,0,.3,0,.5,0,.1,0,.3,0,.4,0,.5,0,.3.3.3,0c.2,0,.4,0,.5,0s.2.2.3,0v-.2c.1,0,.3,0,.4,0s.1,0,.3,0,.3,0,.4,0,0,0,.3,0,.3,0,.4,0,.3,0,.3,0c.2,0,.4-.1.6,0s0,.1.2,0c0,0,0-.2,0-.2,0,0,.5,0,.6,0s0,0,.2,0c.2,0,.4,0,.6,0s0,0,.2,0c.2,0,.4,0,.6,0s0,0,.3,0,.3,0,.5,0,0,0,.3,0,.3,0,.5,0h.3c0,0,0,0,0,0,.1,0,.2,0,.3,0s.2,0,.4,0,.1,0,.2,0c.2,0,1,0,1-.1,0-.2-.2-.1-.3-.1-.2,0-.5,0-.7,0s-.1,0-.2,0l-.2-1.2c-.4,0-1.3-.2-1.7,0s-.6,1.2-.9,1.2h-3s-.2-.1-.1-.2l.6-1.1c-.2-.2-1.2.7-1.5.8-1.5.8-4.4,1-5.8,0s-.7-1-1.7-.8c0,.3.5,1.2.1,1.3s-1.9,0-2.4,0-.7.2-1,0-.2-1.1-.4-1.3c-.2,0-1-.1-1.2,0-.2.3-.1,1-.4,1.2h-3c-.3,0,.2-1.1.1-1.3H1.3c.2.6.4,1.8.7,2.3ZM62.2,35.1h-2.5s-.5.3-.3.4l1.9-.2.9-.2ZM52.6,35.2h-.3s0,.7,0,.7c.2.2.3-.6.3-.7ZM26.3,39.3l6.7-.8c0-.2,0-.1-.1-.2-.4-.2-1.6-.5-2-.6-3.6-.8-4.1,0-7.3.6s-7.7-1.6-11.8-1-3,1.1-4.4,1.2-3.5-.3-5.3-.5l1.1,3.6c.2.1,1.5,0,1.9,0,6.3-.6,12.6-1.5,18.8-2.2s1.6-.2,2.3-.2l-.4,2.2h.5c0-.2,0-.4.3-.5.1.4.1.6.6.5-.3-.8-.4-.9.3-1.5-.5-.1-.6.2-.9.4l.2-1.1c-.1,0-.2,0-.3,0ZM32.8,39.7c.3-.4-.4-.6-.5-.2s.4.3.5.2ZM47.4,39.7c.3-.4-.4-.6-.5-.2s.4.3.5.2ZM62.7,39.3h-.4s0,.8,0,.8c-.8-.7-1.6,1.1-.9,1.4s.7-.2,1,0l.3-2.2ZM38.2,39.5h-1.5v.4s.4,0,.4,0c0,0-.2,1.2-.3,1.4s.4.1.4,0c.1-.1.2-1.2.3-1.4h.6c0,0,0-.5,0-.5ZM59.4,39.5h-.3c0,.5-.2.3-.3.4s0,.4,0,.5c0,.5-.4,1.3.7.9v-.3s-.3,0-.3,0c.1-.4,0-.9.5-.8.1-.5-.2-.3-.3-.4v-.4ZM28.5,40c-.2-.2-.8,0-1,.2-.6.7.2,1.8,1,1.1,0-.3-.8,0-.7-.5h.9c0-.2,0-.7-.1-.8ZM30,40c-.2-.2-.8,0-1,.2-.6.7.2,1.8,1,1.1,0-.3-.8,0-.7-.5h.9c0-.2,0-.7-.1-.8ZM31.6,40c-.4-.2-.7.1-1.2,0l-.3,2.1c.6.1.5-.2.5-.7.8.6,1.4-.7,1-1.4ZM34.1,41.4c0-.4.3-1.1,0-1.4s-.8.2-1.2,0l-.3,1.5h.5c0-.3,0-1.1.4-1.1.2,0,.1,0,.1.2,0,.3-.1.6-.2.9h.5ZM35.9,40c-.3.1-.5,0-.7,0-.8,0-1,1.4-.4,1.5s.5-.2.5,0c-.2.5-.8-.1-.9.3.2.4.9.3,1.2,0s.5-1.7.4-1.8ZM39.5,40c-.7-.1-1.5-.1-1.6.8s.6.5,1.3.6l.3-1.5ZM40.1,40.5c0-.4.3-.1.5-.2v-.2c-.4-.4-1.2,0-.9.6s.5.2.4.4c-.1.3-.7-.4-.7.3.9.6,1.7-.5.6-.9ZM42.3,40c-.4-.3-.7.1-1.2,0l-.3,1.5h.5c0-.3,0-1.1.4-1.1s.1,0,.1.2-.2.9-.2.9h.5c.1-.4,0-1.1.4-1.1s.1,0,.1.2c0,.3-.2.6-.2.9.5.2.6-.4.6-.8,0-.7-.2-1-.8-.5,0,0,0-.1,0-.1ZM44.9,40c-.7-.1-1.5-.1-1.6.8s.6.5,1.3.6l.3-1.5ZM46.3,41.4c0-.4.3-1.1,0-1.4s-.8.2-1.2,0l-.3,1.5h.5c0-.3,0-1.1.4-1.1.2,0,.1,0,.1.2,0,.3-.1.6-.2.9h.5ZM48.9,40c-.7-.1-1.5-.1-1.6.8s.6.5,1.3.6l.3-1.5ZM50.8,40s-.4,0-.5,0c-.7.1-1,1.6,0,1.6s.5-.2.5-.4c-.3,0-.6,0-.6-.3s.2-.5.2-.5c0,0,.8,0,.6-.4ZM51.6,39.9c-.6.1-1,1.2-.4,1.5,1,.5,1.7-1.8.4-1.5ZM53.9,41.4c0-.4.3-1.1,0-1.4s-.8.2-1.2,0l-.3,1.5h.5c0-.3,0-1.1.4-1.1.2,0,.1,0,.1.2,0,.3-.1.6-.2.9h.5ZM55.5,41.4c0-.4.3-1.1,0-1.4s-.8.2-1.2,0l-.3,1.5h.5c0-.3,0-1.1.4-1.1.2,0,.1,0,.1.2,0,.3-.1.6-.2.9h.5ZM57,40c-.2-.2-.8,0-1,.2-.6.7.2,1.8,1,1.1,0-.3-.8,0-.7-.5h.9c0-.2,0-.7-.1-.8ZM58.5,40s-.4,0-.5,0c-.7.1-1,1.6,0,1.6s.5-.2.5-.4c-.3,0-.6,0-.6-.3s.2-.5.2-.5c0,0,.8,0,.6-.4ZM60.8,40c-.2-.2-.8,0-1,.2-.6.7.2,1.8,1,1.1,0-.3-.8,0-.7-.5h.9c0-.2,0-.7-.1-.8ZM32.7,40h-.5s-.3,1.5-.3,1.5h.5s.3-1.5.3-1.5ZM47.3,40h-.5s-.3,1.5-.3,1.5h.5s.3-1.5.3-1.5Z" fill="#fefefe"/>
  <path d="M1.9,37.5c-.3-.6-.5-1.7-.7-2.3h25.5c0,.2-.5,1.3-.1,1.3h3c.3-.2.2-1,.4-1.2s.9,0,1.2,0c.2.2.2,1.2.4,1.3.3.2.7,0,1,0,.5,0,2,.1,2.4,0s-.2-1-.1-1.3c1-.2,1.1.3,1.7.8,1.4,1.1,4.3.8,5.8,0s1.3-1,1.5-.8l-.6,1.1c0,0,0,.2.1.2h3c.3,0,.6-1,.9-1.2s1.2-.1,1.7,0l.2,1.2c0,0,.1,0,.2,0v.3c0,0-.1,0-.2,0,0-.1-.4-.1-.4,0-.1,0-.2,0-.3,0-.2,0-.3,0-.3,0-.2,0-.3,0-.5,0,0-.1-.2,0-.3,0-.2,0-.4,0-.5,0,0-.1-.2,0-.3,0-.2,0-.4,0-.6,0h0c0,0-.1,0-.1,0-.2,0-.4,0-.6,0h-.1c0,0,0,0,0,0-.1,0-.6,0-.6,0h-.2c-.2,0-.4.1-.6.2h-.3c0,0,0,0,0,0-.1,0-.3,0-.4,0,0-.1-.2,0-.3,0-.2,0-.3,0-.4,0,0-.1-.2-.1-.3,0-.1,0-.3,0-.4,0s-.3,0-.3,0c-.2,0-.4,0-.5,0s-.2,0-.3,0c-.2,0-.3,0-.5,0,0-.1-.2,0-.3,0-.2,0-.4,0-.5,0,0-.1-.2,0-.3,0-.2,0-.4,0-.6,0h-.1c0,0,0,0,0,0-.1,0-.6,0-.6,0h-.2c-.2,0-.4.2-.6.2,0-.1-.2-.1-.3,0-.2,0-.3,0-.5,0,0-.1-.2-.1-.3,0-.1,0-.3,0-.4,0s-.2,0-.3,0c-.1,0-.3,0-.4,0h-.2c0,0-.2,0-.3,0h-.2c0,0-.2,0-.3,0h-.2c0,0-.1,0-.2,0h-.2c0-.1-.4-.2-.5-.2h-.2c0,0-.1,0-.2,0-.1-.1-.3-.2-.4-.2s-.1,0-.2,0c-.1-.1-.3-.1-.4-.2-.3,0-.6,0-.9,0v-.2s-.2,0-.2,0c0,0-.2,0-.3,0h-.2c0-.1-.3,0-.4,0,0-.1-.2-.1-.3,0-.3,0-.5,0-.8,0,0-.1-.3-.1-.3,0-.3,0-.5,0-.7,0,0-.1-.2-.1-.3,0,0,0-.3,0-.3,0h-.2c-.2,0-.7.2-.9.3s-.8.1-.7.3c-.2,0-1.5.3-1.6.3h-.2c0,0-.2,0-.3,0s-.2,0-.3,0c-.2,0-.3,0-.5,0-.1-.1-.5-.1-.6,0-.1,0-.2,0-.3,0-.2,0-.5-.2-.7,0-.2,0-.4,0-.5,0,0-.1-.2,0-.3,0-.1,0-.3,0-.4,0h-.2c0,0-.3,0-.3,0h-.2c0,0-.2,0-.3,0h-.2c0,0-.2,0-.3,0h-.2c0,0-.1,0-.2,0h-.2c0,0-.1,0-.2,0h-.2c0,0-.1,0-.2,0-.1-.1-.3-.2-.4-.2s-.1,0-.2,0h-.2c0-.1-.7-.3-.8-.3h-.2c0,0-.2,0-.3,0h-.2c0,0-.3,0-.3,0,0-.1-.3-.1-.3,0-.3,0-.6,0-.9,0,0-.1-.4-.1-.5,0,0,0-.6,0-.6,0h-.2c0,0-.3,0-.3,0h-.2c0,0-1.1.3-1.1.3h-.2s0,.2,0,.2c-.8.2-1.5.5-2.2.5h-.2c-.2,0-.3.1-.4.2,0-.1-.4-.1-.5,0,0,0-.1,0-.2,0-.2,0-.5-.2-.7,0-.2,0-.4,0-.6,0,0,0-.2-.1-.3,0-.1,0-.3,0-.4,0h-.2c0,0-.3,0-.3,0h-.2c-.3,0-.5-.2-.8-.2h-.2c0,0-.2,0-.3,0h-.2c0,0-.2,0-.3,0h-.3Z" fill="#31b7e5"/>
  <path d="M26.2,39.3c-.7,0-1.6,0-2.3.2-6.3.7-12.5,1.6-18.8,2.2s-1.7.2-1.9,0l-1.1-3.6c1.8.2,3.5.7,5.3.5s2.9-.9,4.4-1.2c4-.6,7.3,2,11.8,1s3.7-1.5,7.3-.6,1.7.4,2,.6.1,0,.1.2l-6.7.8s0,0,0,0Z" fill="#31b7e5"/>
  <path d="M26.9,36.2l2.1-8.7c0,0,.2,0,.3,0,1.1-.1,4.3,0,5.3.1,3.2.8,1.4,4.7-1.1,4.9.9,1,1,2.4,1.5,3.6,0,0,0,.3-.1.3h-2.8c-.4-.6-.5-3.1-1-3.5s-.3-.1-.5,0l-1,3.4h-2.5ZM31.3,29.2c-.1.5-.3,1.1-.4,1.5s0,.1,0,.2c1,.2,2.6-.2,2.1-1.6-.5-.3-1.1-.2-1.7-.2Z" fill="#1b4b87"/>
  <path d="M8.7,25.7c1.2,0,2.8.2,3.8.9l-1.6,1.6c-.8-.3-2.5-.9-3.3-.3-1.2,1,2,1.4,2.5,1.7,1.3.5,1.7,1.4,1.2,2.8-1,2.8-6.7,3.2-9,1.8-.1,0,0-.2,0-.3.1-.2,1.1-1.4,1.2-1.5.5,0,1,.4,1.5.5s2.4.3,2.9-.3c.8-1.1-1.7-1.3-2.4-1.6-1.2-.5-1.8-1.5-1.3-2.8s2.9-2.4,4.5-2.5Z" fill="#1b4b87"/>
  <path d="M40.8,28.9c2.6-.2,4.4.8,3.9,3.6s-2.5,3.7-4.9,3.8c-6.1.3-4.2-7,1.1-7.4ZM40.5,30.5c-1.2.3-1.9,2.5-1.8,3.6s1.3.9,1.9.5,1.3-1.9,1.3-2.8-.4-1.4-1.5-1.2Z" fill="#1b4b87"/>
  <path d="M52.8,36.2l1.8-7.1c1.5,0,3.4-.2,4.8.2,2.7.8,1.4,4.7-.2,6s-1.6,1-2.2,1h-4.3ZM56.7,30.7l-1,3.7c0,.4.8.2,1,.1.8-.2,1.2-1.4,1.4-2.2.3-1.4.2-1.9-1.4-1.7Z" fill="#1b4b87"/>
  <path d="M23.8,34.9l-.2-1.4h-2.1c0,0-.8,1.4-.8,1.4h-2.7v-.4c.1,0,4.8-6.9,4.8-6.9.2-.1,1.9-.1,2.3,0s.4,0,.5.3c.5,2.1.5,4.6,1,6.7,0,0,0,.3-.1.3h-2.5ZM23.5,29.9c-.2,0-.1,0-.2.1-.1.2-.9,1.7-.8,1.8h1s0-1.9,0-1.9Z" fill="#1b4b87"/>
  <path d="M52.1,36.2h-2.6l-.2-1.3c-.4,0-1.9-.2-2.2,0s-.4.9-.7,1.2h-2.7c0-.5.5-.8.7-1.1,1.3-2,2.7-4,4.1-6h2.7c0,0,.9,7.2.9,7.2ZM49.3,31.4c-.1,0-.2,0-.2.1-.3.4-.5,1.3-.8,1.7,0,.2.9.2,1,0v-1.9Z" fill="#1b4b87"/>
  <path d="M19.1,27.5l-.5,1.7h-2.8s-.3,1-.3,1h2.2l-.3,1.6c-.3.2-1.9-.1-2.3,0s-.3,1-.3,1.3h3.1l-.5,1.7h-5.7c0-.2,0-.3,0-.5.3-1.6,1.1-4.9,1.6-6.4s.2-.4.3-.4h5.4Z" fill="#1b4b87"/>
  <path d="M42.3,40s0,.2,0,.1c.6-.5.9-.3.8.5s0,1-.6.8c0-.3.1-.6.2-.9s0-.2-.1-.2c-.4,0-.3.7-.4,1h-.5s.2-.7.2-.8,0-.2-.1-.2c-.4,0-.4.8-.4,1.1h-.5s.3-1.5.3-1.5c.4.2.8-.2,1.2,0Z" fill="#1b4b87"/>
  <path d="M35.9,40c0,0-.2,1.6-.4,1.8-.3.3-.9.4-1.2,0,.1-.5.6.1.9-.3,0-.3-.3,0-.5,0-.6-.2-.4-1.5.4-1.5s.4.2.7,0ZM35.3,41c.4-.4,0-1.1-.3-.5s0,.8.3.5Z" fill="#1b4b87"/>
  <path d="M62.7,39.3l-.3,2.2c-.3-.1-.8.1-1,0-.7-.3,0-2.1.9-1.4v-.8c0,0,.5,0,.5,0ZM62.1,40.3c-.7-.3-.8,1-.3.8s.3-.6.3-.8Z" fill="#1b4b87"/>
  <path d="M31.6,40c.4.7-.3,1.9-1,1.4,0,.5,0,.8-.5.7l.3-2.1c.4.2.8-.2,1.2,0ZM30.9,40.3c-.1.1-.3.8,0,.8.6-.1.4-1.3,0-.8Z" fill="#1b4b87"/>
  <path d="M26.3,39.3c.1,0,.2,0,.3,0l-.2,1.1c.3-.3.5-.5.9-.4-.6.6-.6.7-.3,1.5-.5,0-.5-.1-.6-.5-.2,0-.3.3-.3.5h-.5s.4-2.2.4-2.2c0,0,0,0,0,0Z" fill="#1b4b87"/>
  <path d="M39.5,40l-.3,1.5c-.7-.1-1.4.4-1.3-.6s.8-.9,1.6-.8ZM39,40.3c-.6-.1-.7.3-.6.8.5.2.5-.4.6-.8Z" fill="#1b4b87"/>
  <path d="M44.9,40l-.3,1.5c-.7-.1-1.4.4-1.3-.6s.8-.9,1.6-.8ZM44.4,40.3c-.6-.1-.7.3-.6.8.5.2.5-.4.6-.8Z" fill="#1b4b87"/>
  <path d="M48.9,40l-.3,1.5c-.7-.1-1.4.4-1.3-.6s.8-.9,1.6-.8ZM48.4,40.3c-.6-.1-.7.3-.6.8.5.2.5-.4.6-.8Z" fill="#1b4b87"/>
  <path d="M55.5,41.4h-.5c0-.3.2-.6.2-.9s0-.3-.1-.2c-.4,0-.4.8-.4,1.1h-.5s.3-1.5.3-1.5c.4.2,1-.3,1.2,0s-.2,1,0,1.4Z" fill="#1b4b87"/>
  <path d="M53.9,41.4h-.5c0-.3.2-.6.2-.9s0-.3-.1-.2c-.4,0-.4.8-.4,1.1h-.5s.3-1.5.3-1.5c.4.2,1-.3,1.2,0s-.2,1,0,1.4Z" fill="#1b4b87"/>
  <path d="M46.3,41.4h-.5c0-.3.2-.6.2-.9s0-.3-.1-.2c-.4,0-.4.8-.4,1.1h-.5s.3-1.5.3-1.5c.4.2,1-.3,1.2,0s-.2,1,0,1.4Z" fill="#1b4b87"/>
  <path d="M34.1,41.4h-.5c0-.3.2-.6.2-.9s0-.3-.1-.2c-.4,0-.4.8-.4,1.1h-.5s.3-1.5.3-1.5c.4.2,1-.3,1.2,0s-.2,1,0,1.4Z" fill="#1b4b87"/>
  <path d="M51.6,39.9c1.3-.3.7,2.1-.4,1.5s-.3-1.4.4-1.5ZM51.8,41.1c.2-.2.3-.8,0-.8-.5.2-.3,1.3,0,.8Z" fill="#1b4b87"/>
  <path d="M38.2,39.5v.4s-.6,0-.6,0c-.1.2-.1,1.3-.3,1.4s-.4.1-.4,0,.3-1.4.3-1.4h-.4s0-.4,0-.4h1.5Z" fill="#1b4b87"/>
  <path d="M30,40c.2.2,0,.6.1.8h-.9c0,.4.8.1.7.5-.8.7-1.5-.4-1-1.1s.8-.5,1-.2ZM29.8,40.6c0-.4-.4-.4-.5-.1s.4,0,.5.1Z" fill="#1b4b87"/>
  <path d="M28.5,40c.2.2,0,.6.1.8h-.9c0,.4.8.1.7.5-.8.7-1.5-.4-1-1.1s.8-.5,1-.2ZM28.3,40.6c0-.4-.4-.4-.5-.1s.4,0,.5.1Z" fill="#1b4b87"/>
  <path d="M57,40c.2.2,0,.6.1.8h-.9c0,.4.8.1.7.5-.8.7-1.5-.4-1-1.1s.8-.5,1-.2ZM56.8,40.6c0-.4-.4-.4-.5-.1s.4,0,.5.1Z" fill="#1b4b87"/>
  <path d="M60.8,40c.2.2,0,.6.1.8h-.9c0,.4.8.1.7.5-.8.7-1.5-.4-1-1.1s.8-.5,1-.2ZM60.6,40.6c0-.4-.4-.4-.5-.1s.4,0,.5.1Z" fill="#1b4b87"/>
  <path d="M40.1,40.5c1.1.4.3,1.4-.6.9,0-.7.6,0,.7-.3s-.3-.2-.4-.4c-.4-.6.4-1.1.9-.6v.2c-.2.1-.6-.2-.6.2Z" fill="#1b4b87"/>
  <path d="M59.4,39.5v.4c0,0,.4,0,.3.4-.5-.1-.4.4-.5.8h.3s0,.3,0,.3c-1.1.4-.7-.3-.7-.9s-.3-.4,0-.5.3,0,.3-.4h.3Z" fill="#1b4b87"/>
  <path d="M50.8,40c.3.4-.5.3-.6.4s-.2.4-.2.5c0,.4.3.3.6.3,0,.3-.2.4-.5.4-.9,0-.6-1.5,0-1.6s.5,0,.5,0Z" fill="#1b4b87"/>
  <path d="M58.5,40c.3.4-.5.3-.6.4s-.2.4-.2.5c0,.4.3.3.6.3,0,.3-.2.4-.5.4-.9,0-.6-1.5,0-1.6s.5,0,.5,0Z" fill="#1b4b87"/>
  <path d="M62.2,35.1l-.9.2-1.9.2c-.2-.1.2-.4.3-.4h2.5Z" fill="#31b7e5"/>
  <polygon points="32.7 40 32.4 41.4 31.9 41.4 32.2 40 32.7 40" fill="#1b4b87"/>
  <polygon points="47.3 40 47 41.4 46.5 41.4 46.8 40 47.3 40" fill="#1b4b87"/>
  <path d="M49.4,36.4c.2,0,.5,0,.7,0s.4,0,.3.1-.9.1-1,.1v-.3Z" fill="#99d8f1"/>
  <path d="M32.8,39.7c-.1.1-.5,0-.5-.2,0-.4.8-.2.5.2Z" fill="#1b4b87"/>
  <path d="M47.4,39.7c-.1.1-.5,0-.5-.2,0-.4.8-.2.5.2Z" fill="#1b4b87"/>
  <path d="M52.6,35.2c0,0,0,.9-.3.7v-.7c0,0,.3,0,.3,0Z" fill="#31b7e5"/>
  <path d="M6.5,38.2c-.2.2-.5,0-.7,0,.2-.2.5,0,.7,0Z" fill="#99d8f1"/>
  <path d="M21.2,38.2c-.2.2-.5,0-.7,0,.2-.2.5,0,.7,0Z" fill="#99d8f1"/>
  <path d="M22.2,38.2s-.1,0-.3,0-.3,0-.3,0c.1-.1.5-.1.6,0Z" fill="#99d8f1"/>
  <path d="M25.6,37.2c0,.2-.5.3-.7.3,0-.2.5-.3.7-.3Z" fill="#99d8f1"/>
  <path d="M13.2,36.9c-.2,0-.3,0-.5,0,0-.1.4-.1.5,0Z" fill="#99d8f1"/>
  <path d="M7.2,38.2s0,0-.2,0c-.2,0-.2,0-.3,0,0-.1.4-.1.5,0Z" fill="#99d8f1"/>
  <path d="M49.3,36.7c-.2,0-.3,0-.4,0,0-.1.4-.1.4,0Z" fill="#99d8f1"/>
  <path d="M31.7,37.5c0,0-.5.2-.4-.2.2,0,.3,0,.4.2Z" fill="#99d8f1"/>
  <path d="M32.3,37.6c-.2,0-.5.1-.4-.2.1,0,.3,0,.4.2Z" fill="#99d8f1"/>
  <path d="M16.9,37.5c-.2,0-.5.1-.4-.2.1,0,.3,0,.4.2Z" fill="#99d8f1"/>
  <path d="M48.5,36.7v.2s-.3,0-.3,0c0,0,.1,0,.3,0Z" fill="#99d8f1"/>
  <path d="M14.4,36.9c-.2,0-.2,0-.3,0,0-.1.3-.1.3,0Z" fill="#99d8f1"/>
  <path d="M28.3,36.9s-.3,0-.3,0c0-.1.3-.1.3,0Z" fill="#99d8f1"/>
  <path d="M41.5,37.5v.2c-.1,0-.3,0-.3,0,0-.1.2,0,.3,0Z" fill="#99d8f1"/>
  <path d="M43.7,37.3c0,0-.2,0-.3,0v-.2s.3,0,.3,0Z" fill="#99d8f1"/>
  <path d="M27.3,36.9c-.2,0-.1,0-.3,0,0-.1.2-.1.3,0Z" fill="#99d8f1"/>
  <path d="M29.3,36.9c-.1,0,0,0-.3,0,0-.1.2-.1.3,0Z" fill="#99d8f1"/>
  <path d="M46.9,36.9c-.2,0-.2,0-.3,0,0,0,.2-.1.3,0Z" fill="#99d8f1"/>
  <path d="M5.2,38.1s-.1,0-.3,0c0-.1.2,0,.3,0Z" fill="#99d8f1"/>
  <path d="M20,38.1s-.3.3-.3,0c0,0,.2,0,.3,0Z" fill="#99d8f1"/>
  <path d="M22.9,38c0,.4-.2,0-.3,0,0-.1.2,0,.3,0Z" fill="#99d8f1"/>
  <path d="M36.7,38.1c-.2,0-.2,0-.3,0,0-.1.2-.1.3,0Z" fill="#99d8f1"/>
  <path d="M35.9,38.2c-.1,0-.2,0-.3,0,0-.1.2-.1.3,0Z" fill="#99d8f1"/>
  <path d="M35.2,38.2v.2s-.2,0-.2,0v-.2s.1,0,.2,0Z" fill="#99d8f1"/>
  <path d="M39.1,37.8c-.2,0-.2,0-.3,0,0,0,.2-.1.3,0Z" fill="#99d8f1"/>
  <path d="M39.9,37.7c-.1,0-.2,0-.3,0,0,0,.2-.1.3,0Z" fill="#99d8f1"/>
  <path d="M40.6,37.6c0,.4-.2,0-.3,0,0-.1.2,0,.3,0Z" fill="#99d8f1"/>
  <path d="M42.2,37.5c-.1,0-.2,0-.3,0,0-.1.2-.1.3,0Z" fill="#99d8f1"/>
  <path d="M42.9,37.4c-.2,0-.2,0-.3,0,0,0,.2-.1.3,0Z" fill="#99d8f1"/>
  <path d="M47.6,36.9c-.2,0-.2,0-.3,0,0,0,.2-.1.3,0Z" fill="#99d8f1"/>
  <path d="M2.2,37.6s0,0-.1,0c0,0-.1,0-.1-.2h.3Z" fill="#99d8f1"/>
  <path d="M32.6,37.7s-.2.3-.2,0h.2Z" fill="#99d8f1"/>
  <path d="M17.9,37.7s-.1.1-.2,0,0-.1,0-.2h.2Z" fill="#99d8f1"/>
  <path d="M3.1,37.7s0,.1-.2,0c0,0,0-.2,0-.2h.2Z" fill="#99d8f1"/>
  <path d="M4,37.9s0,.1-.2,0v-.2s.2,0,.2,0Z" fill="#99d8f1"/>
  <path d="M17.6,37.6s-.1.1-.2,0,0-.1,0-.2h.2Z" fill="#99d8f1"/>
  <path d="M2.6,37.6s0,.1-.2,0c0,0,0-.2,0-.2h.2Z" fill="#99d8f1"/>
  <path d="M34.1,38.1s0,.1-.2,0c0,0,0-.2,0-.2h.2Z" fill="#99d8f1"/>
  <path d="M7.8,38v.2c0,0-.2,0-.2,0h.2Z" fill="#99d8f1"/>
  <path d="M17.2,37.6s-.1.1-.2,0,0-.1,0-.2h.2Z" fill="#99d8f1"/>
  <path d="M37.4,37.9s0,.1,0,.2c0,0-.2,0-.2,0h.2Z" fill="#99d8f1"/>
  <path d="M34.5,38.2s0,.1-.2,0c0,0,0-.2,0-.2h.2Z" fill="#99d8f1"/>
  <path d="M18.4,37.8s0,.1-.2,0c0,0,0-.2,0-.2h.2Z" fill="#99d8f1"/>
  <path d="M33.6,38s-.1.1-.2,0,0-.1,0-.2h.2Z" fill="#99d8f1"/>
  <path d="M23.4,37.9s0,.1,0,.2c0,0-.2,0-.2,0h.2Z" fill="#99d8f1"/>
  <path d="M10.2,37.3c0,0,.2.1-.2.2v-.2s.2,0,.2,0Z" fill="#99d8f1"/>
  <path d="M19.3,38s0,.1-.2,0c0,0,0-.2,0-.2h.2Z" fill="#99d8f1"/>
  <path d="M4.5,38s0,.1-.2,0c0,0,0-.2,0-.2h.2Z" fill="#99d8f1"/>
  <path d="M16.3,37.3s0,.1-.2,0c0,0,0-.2,0-.2h.2Z" fill="#99d8f1"/>
  <path d="M33.3,37.9s0,.1-.2,0c0,0,0-.2,0-.2h.2Z" fill="#99d8f1"/>
  <path d="M38.2,37.9c0,0-.1,0-.2,0h0c0,0,.1,0,.1,0Z" fill="#99d8f1"/>
  <path d="M45.2,37.1c0,0-.1,0-.2,0h0c0,0,.1,0,.1,0Z" fill="#99d8f1"/>
  <path d="M14.9,36.9s0,.1-.2,0c0,0,0-.2,0-.2h.2Z" fill="#99d8f1"/>
  <path d="M30.2,37h.2s0,.2,0,.2c-.3,0-.1-.1-.2-.2Z" fill="#99d8f1"/>
  <path d="M46,37c-.1,0-.2,0-.2,0h.1c0,0,0,0,0,0Z" fill="#99d8f1"/>
  <path d="M29.9,37s0,.1-.2,0c0,0,0-.2,0-.2h.2Z" fill="#99d8f1"/>
  <path d="M26.6,36.9s0,.1,0,.2c0,0-.2,0-.2,0h.2Z" fill="#99d8f1"/>
  <path d="M15.3,37s0,.1-.2,0c0,0,0-.2,0-.2h.2Z" fill="#99d8f1"/>
  <path d="M11.5,36.9s0,.1,0,.2c0,0-.2,0-.2,0h.2Z" fill="#99d8f1"/>
  <path d="M12.1,36.9s0,.1,0,.2c0,0-.2,0-.2,0h.2Z" fill="#99d8f1"/>
  <path d="M44.4,37.1s0,.1,0,.2c0,0-.2,0-.2,0h.2Z" fill="#99d8f1"/>
  <path d="M18.8,37.9s0,.1-.2,0c0,0,0-.2,0-.2h.2Z" fill="#99d8f1"/>
  <path d="M31.3,29.2c.6,0,1.2,0,1.7.2.5,1.4-1.1,1.7-2.1,1.6-.1,0,0-.1,0-.2,0-.5.3-1.1.4-1.5Z" fill="#fefefe"/>
  <path d="M40.5,30.5c1.1-.2,1.6,0,1.5,1.2s-.6,2.3-1.3,2.8-1.8.5-1.9-.5.5-3.3,1.8-3.6Z" fill="#fefefe"/>
  <path d="M56.7,30.7c1.6-.2,1.7.3,1.4,1.7s-.6,1.9-1.4,2.2-1,.2-1-.1l1-3.7Z" fill="#fefefe"/>
  <path d="M23.5,29.9v2h-1c0-.2.7-1.7.8-1.9s0-.2.2-.1Z" fill="#fefefe"/>
  <path d="M49.3,31.4v1.9c-.1.2-1,.2-1,0,.3-.5.5-1.3.8-1.7s.1-.2.2-.1Z" fill="#fefefe"/>
  <path d="M35.3,41c-.3.3-.5,0-.3-.5.3-.7.7,0,.3.5Z" fill="#fefefe"/>
  <path d="M62.1,40.3c0,.2-.1.7-.3.8-.5.2-.3-1.1.3-.8Z" fill="#fefefe"/>
  <path d="M30.9,40.3c.5-.5.6.7,0,.8-.3,0-.1-.7,0-.8Z" fill="#fefefe"/>
  <path d="M39,40.3c0,.4,0,1-.6.8,0-.5,0-.9.6-.8Z" fill="#fefefe"/>
  <path d="M44.4,40.3c0,.4,0,1-.6.8,0-.5,0-.9.6-.8Z" fill="#fefefe"/>
  <path d="M48.4,40.3c0,.4,0,1-.6.8,0-.5,0-.9.6-.8Z" fill="#fefefe"/>
  <path d="M51.8,41.1c-.4.5-.6-.6,0-.8.4,0,.3.7,0,.8Z" fill="#fefefe"/>
  <path d="M29.8,40.6c0,0-.6.1-.5-.1s.6-.3.5.1Z" fill="#fefefe"/>
  <path d="M28.3,40.6c0,0-.6.1-.5-.1s.6-.3.5.1Z" fill="#fefefe"/>
  <path d="M56.8,40.6c0,0-.6.1-.5-.1s.6-.3.5.1Z" fill="#fefefe"/>
  <path d="M60.6,40.6c0,0-.6.1-.5-.1s.6-.3.5.1Z" fill="#fefefe"/>
</svg>