<?xml version="1.0" encoding="utf-8"?>
<!-- Generator: Adobe Illustrator 27.5.0, SVG Export Plug-In . SVG Version: 6.00 Build 0)  -->
<svg version="1.2" baseProfile="tiny-ps" id="GreyhoundLogo"
	 xmlns="http://www.w3.org/2000/svg" xmlns:xlink="http://www.w3.org/1999/xlink" viewBox="0 0 1080 1080" xml:space="preserve">
<title>Greyhound Australia</title>
<rect id="Background_00000044897568414669693550000014458979274467160245_" fill="#DA2531" width="1080" height="1080"/>
<g id="GA_Dog_Logo">
	<path fill="#FFFFFF" d="M262.4,557.3c11.3,3.4,19.3,13.5,24,13.5c-2.8,4.2-30.5,9-49.2-3.4C244.8,559.9,253.9,555.5,262.4,557.3"/>
	<path fill="#FFFFFF" d="M236.6,595.8c0,0-10.8-4.6-21.8-6.5c0,0-22.5,21.7-50.6,17.8c-5.9-0.8-8.1,1.8-4.7,5.7
		c9.2,6.4,19.6,6.4,33.7,3.2C216.6,610.4,236.6,595.8,236.6,595.8"/>
	<path fill="#FFFFFF" d="M998.7,610.6c-2.5-1.1-76.4-31.4-77.8-31.5c0,0-37.4-8.3-47.9-9.9c-22.3-3.5-53.5-6.6-80.2-11.6
		c-3.7-17-15.7-33.6-27-45.8c-1.8-2.6,2.6-2.6,7.2-3.3c15.4-1.6,31.2-0.9,46.3-0.9c11.4,8.5,22.7,13.2,35.9,14.2
		c34.9,1.9,88.8,4.7,103.9-2.9c20.7-9.4,11-22.9-43.5-37.8c-19.3-4.5-28.3-12.3-35-21.7c0,0-2.9-3.3-5.9-5.1c-3-1.7-8.3-3.4-8.3-3.4
		c-16.2-6-33.9-8.4-55.8-6.8l-4.5,0.3c-26.9,2-59.1,7.4-98.4,8.3c-113.3,3.7-217.3-9.5-302.3,11.3c-47,13.2-94,24.5-140.1,31.1
		l-0.7,0.1c-27.4,2.9-53.8,4.7-81.3,4.7h-0.6c-20.6,0-40.2-1.9-60.8-4.7c-19.8-4.7-14.1,1-1.9,6.6c20.8,7.6,42.5,12.3,63.3,14.2
		l0.4,0c26.7,2.7,52.6,2.8,79.3,0.1l1.5-0.2c29.7-2.8,60.4-9.2,90.1-15.7l1.6-0.3c-20.8,34-42.5,67.1-74.6,75.6
		c-5.5,1.8-11.1,1.9-16.6,1.9h-0.4c-13.2,0-26.4-5.7-39.7-15.2c-20.2-12.1-18.6-15.2-42.7-6.5c0,0-10.9,4.5-24.5,12.2
		c-28.3,16.1-52.7,30.2-82.9,18.8c-12.4-2.9-13.2,5.6-1.9,13.2c29.3,16.1,55.7,3.8,83.1-5.7c8.8-4.3,17.5-6.3,25.5-8.1l1.9-0.5
		c23.6-2.8,42.5,2.9,61.4,11.4c6.6,4.7,13.2,7.6,19.8,10.4l1.5,0.7c37.2,15.9,70.7,0.8,100.5-25.3c37.9-43.1,100.5-61.4,162.5-46.3
		c14.8,3.6,118.2,52.5,178.7,40.2c16.9-3.5,24.2-9.4,24.2-9.4c-22.3-21.6-37.5-35.1-60.4-39.8c40.6,1.9,77.5,58.4,97.7,62.5
		c9.3,2.2,17.5,2,30.9,0.9c5.3,0.3,87.4,3.4,88.7,3.5c20.7,1.7,34.5,8.6,34.5,8.6c24.8,12.8,43.8,20.5,69.6,30.8
		C1020,644,1022.4,618.9,998.7,610.6"/>
	<path fill="#FFFFFF" d="M485.7,533.5c-44.6,0-93.7,22.4-119.2,53.3c0,0,7.8,1.9,20.8-4.1C400.4,575.6,416.9,549.4,485.7,533.5"/>
	<path fill="#FFFFFF" d="M923.1,577.3c1.4,0.2,34.5,13.5,41.3,16.8c6.2,0.6,12.1,0.6,18.2,0.7c15.3-0.9,9.3-13.9-7.3-17.1
		c-2.6-0.6-10.5-1.9-42.7-7.8c-13.4-2.5-53.5-2.4-56-2.3C877.7,567.8,923.1,577.3,923.1,577.3"/>
</g>
</svg>
