<?xml version="1.0" encoding="utf-8"?>
<svg version="1.2" baseProfile="tiny-ps" id="Lager_1" xmlns="http://www.w3.org/2000/svg" xmlns:xlink="http://www.w3.org/1999/xlink"
	 viewBox="0 0 550 550" xml:space="preserve">
	 <title>nShift</title>
<path fill="#2B358F" d="M50.82,289.84c0-11.99,9.72-21.72,21.72-21.72c11.99,0,21.72,9.72,21.72,21.72v49.02h21.3v-49.02
	c0-23.76-19.26-43.02-43.02-43.02c-23.76,0-43.02,19.26-43.02,43.02v0.85h21.31L50.82,289.84z"/>
<path fill="#2B358F" d="M29.51,335.75c0,0.77,0,2.33,0,3.11h21.31c0-0.77,0-2.33,0-3.11H29.51z"/>
<path fill="#2B358F" d="M29.51,321.77c0,1.95,0,4.27,0,6.21h21.31c0-1.95,0-4.27,0-6.21H29.51z"/>
<path fill="#2B358F" d="M29.51,307.79c0,2.49,0,5.28,0,7.77h21.31c0-2.49,0-5.28,0-7.77H29.51z"/>
<path fill="#2B358F" d="M29.51,293.81c0,3.03,0,6.3,0,9.32h21.31c0-3.03,0-6.3,0-9.32H29.51z"/>
<polygon fill="#2B358F" points="390.69,252.63 399.67,273.94 433.98,273.94 433.98,252.63 "/>
<polyline fill="#2B358F" points="378.37,252.56 378.37,338.86 399.67,338.86 399.67,252.56 "/>
<path fill="#2B358F" d="M399.67,252.56c0-11.99,9.72-21.72,21.72-21.72h12.59v-21.31h-12.59c-23.76,0-43.02,19.26-43.02,43.02"/>
<path fill="#2B358F" d="M257.11,289.84c0-11.99,9.72-21.72,21.72-21.72s21.72,9.72,21.72,21.72v49.02h21.3v-49.02
	c0-23.76-19.26-43.02-43.02-43.02c-23.76,0-43.02,19.26-43.02,43.02v4.56h21.31L257.11,289.84z"/>
<rect x="339.46" y="209.54" fill="#2B358F" width="21.3" height="21.3"/>
<polygon fill="#2B358F" points="360.76,252.6 359.29,252.6 340.92,252.6 339.46,252.6 339.46,254.01 339.46,337.45 339.46,338.86 
	340.92,338.86 359.3,338.86 360.76,338.86 360.76,337.45 360.76,254.01 "/>
<rect x="235.81" y="209.54" fill="#2B358F" width="21.3" height="129.32"/>
<path fill="#2B358F" d="M207.55,277.11c-6.41-5.43-13.85-8.02-20.41-10.31l-1.42-0.5c-2.45-0.86-4.99-1.68-7.03-2.34
	c-7.25-2.35-14.1-4.56-19.53-8.36c-3.35-2.35-4.37-4.32-4.37-8.46c0-4.55,1.6-8.23,4.74-10.92c3.51-3.01,8.73-4.66,14.7-4.66
	c5.65,0,10.54,1.43,14.52,4.24c2.46,1.74,4.65,4.11,6.33,6.84l0.75,1.21l9.19-5.3l9.24-5.34l-0.45-0.75l-0.32-0.53
	c-0.23-0.38-0.46-0.76-0.7-1.13c-3.13-4.88-7.17-9.15-11.74-12.39c-7.65-5.41-16.67-8.15-26.82-8.15c-11.04,0-21.18,3.47-28.55,9.78
	c-7.98,6.83-12.19,16.2-12.19,27.1c0,5.5,1.12,10.46,3.34,14.73c2.22,4.27,5.62,8.03,10.11,11.17c8.04,5.63,16.8,8.46,25.27,11.21
	c2.24,0.72,4.35,1.41,6.45,2.15l1.46,0.51c5.28,1.84,10.27,3.59,13.68,6.47c2.95,2.5,4.58,5.69,4.58,8.99
	c0,4.65-1.61,8.37-4.78,11.07c-3.74,3.18-9.6,4.86-16.95,4.86c-7.56,0-13.81-1.71-18.59-5.07c-2.95-2.08-5.3-4.8-6.99-8.08
	l-0.65-1.27l-19.19,9.2l0.67,1.34c3.26,6.51,8.07,12.12,13.9,16.22c8.44,5.94,18.82,8.96,30.86,8.96c12.47,0,23.11-3.44,30.75-9.94
	c8.03-6.83,12.27-16.27,12.27-27.28C219.67,292.82,215.25,283.62,207.55,277.11z"/>
<polyline fill="#2B358F" points="451.85,295.84 451.85,209.54 473.16,209.54 473.16,295.84 "/>
<rect x="468.23" y="252.63" fill="#2B358F" width="11.2" height="21.31"/>
<path fill="#2B358F" d="M473.16,295.84c0,11.99,9.72,21.72,21.72,21.72h24.63v21.31h-24.63c-23.76,0-43.02-19.26-43.02-43.02"/>
<rect x="516.75" y="252.64" fill="#2B358F" width="2.76" height="21.31"/>
<rect x="504.31" y="252.64" fill="#2B358F" width="5.53" height="21.31"/>
<polyline fill="#2B358F" points="498.78,273.94 498.78,252.64 491.86,252.64 491.86,273.94 "/>
<path fill="#2B358F" d="M479.42,273.94c2.69,0,5.6,0,8.29,0v-21.31c-2.69,0-5.6,0-8.29,0V273.94z"/>
</svg>
