<?xml version="1.0" encoding="UTF-8" standalone="yes"?>
<svg version="1.2" baseProfile="tiny-ps" viewBox="0 0 1250 1250" xml:space="preserve" xmlns="http://www.w3.org/2000/svg">
  <title>AVENUE MEIOS DE PAGAMENTO LTDA</title>
  <rect fill="#FFFFFF" width="1250" height="1250"/>
  <g>
    <path fill="#FFFFFF" d="M125,125c333.3,0,666.7,0,1000,0c0,333.3,0,666.7,0,1000c-333.3,0-666.7,0-1000,0&#xA;&#x9;&#x9;C125,791.7,125,458.3,125,125z M815.4,630.4c87.6-93.2,97.7-252.9-9.2-358.7C714.5,181,560,169,453.7,264&#xA;&#x9;&#x9;C351,355.7,338.3,511.8,425.9,619c86.2,105.4,220.2,111,296.1,75.2c-6.7-16-13.5-32-20-47.5c-13.9,3.5-27,7.6-40.4,10.1&#xA;&#x9;&#x9;c-40.8,7.6-80.5,2.8-118.3-14c-33.5-14.9-61.1-37.4-82.8-67.1c-21.9-30.1-34.7-63.7-38.1-100.7c-3.5-38.1,3.1-74.5,20.2-108.9&#xA;&#x9;&#x9;c19.5-39.4,48.7-69.6,87.4-90.2c41.2-21.9,85-28.7,131.2-20.7c22.4,3.8,43.4,11.3,63.1,22.2c29.2,16.2,53,38.3,71.6,66.1&#xA;&#x9;&#x9;c21.1,31.6,32.4,66.5,33.9,104.2c1.8,44.5-9.9,85.5-35,122.5c-1.5,2.2-1.7,6-1,8.6c1.5,5.4,4.1,10.4,6.3,15.6&#xA;&#x9;&#x9;C805.1,606.2,810.2,618,815.4,630.4z M534.7,608.3c1-1.9,1.8-3.3,2.5-4.8c15.4-36.5,30.7-73.1,46-109.6c12-28.5,23.9-57,36.1-85.4&#xA;&#x9;&#x9;c1-2.3,3.7-3.9,5.6-5.9c1.8,1.8,4.2,3.4,5.2,5.6c10.7,25,21.2,50.1,31.6,75.2c21.5,51.5,42.9,103,64.5,154.5&#xA;&#x9;&#x9;c16,38.1,32.2,76,48,114.2c1.7,4,3.8,6.3,7.8,6.8c11.3,1.3,22.7,3,34,3.1c8,0,16-2.4,24.5-3.8c-17-40.6-33.3-79.6-49.8-118.6&#xA;&#x9;&#x9;c-11.3-26.8-22.7-53.5-33.9-80.3c-15.4-36.8-30.7-73.6-46.1-110.3c-11.6-27.8-23.6-55.4-35.1-83.2c-8.3-20.1-22.7-32.3-44.5-35&#xA;&#x9;&#x9;c-23.4-3-47.4,10.4-56,31.1C562.2,393,549.4,424,536.4,455c-15.8,37.7-31.8,75.4-47.5,113.1c-0.6,1.5-0.5,4.4,0.5,5.4&#xA;&#x9;&#x9;C502.8,586.7,517.4,598.7,534.7,608.3z M717.5,925.3c0,29,0,57,0,86.3c-16.9-24.4-33-47.7-49.1-70.9c-6-8.6-10.3-19.5-24.6-15.4&#xA;&#x9;&#x9;c-4.4,1.3-6.5,2.3-6.5,7.5c0.3,36.8,0.1,73.7,0.2,110.6c0,1.8,0.2,3.6,0.3,5.8c7.1,0,13.8,0,21.1,0c0-28.6,0-56.3,0-85&#xA;&#x9;&#x9;c18.2,26,36.2,50.8,53.1,76.4c5.2,7.8,10.4,10.2,19.3,8.9c5.9-0.8,7.6-2.8,7.3-8.5c-0.5-10-0.1-20-0.1-30c0-26.4,0.1-52.9-0.2-79.3&#xA;&#x9;&#x9;c0-2.1-1.8-5.8-3.1-5.9C729.5,924.9,723.7,925.3,717.5,925.3z M803.7,925.2c-5.9,0-11.5,0-17,0c-4,0-5.2,1.8-5.2,5.8&#xA;&#x9;&#x9;c0.2,23.9,0,47.9,0.2,71.8c0.1,10.3,2.6,20.2,8.4,28.9c11.5,17.3,28.9,21.1,48.1,19.9c19.1-1.2,33.7-9.8,40.7-27.9&#xA;&#x9;&#x9;c3.1-7.9,4.2-17,4.4-25.6c0.6-19.5,0.2-39.1,0.2-58.7c0-15.2,0-15.1-15.4-14.4c-4.5,0.2-6.1,1.6-6,6.3c0.3,16.9,0.2,33.7,0.1,50.6&#xA;&#x9;&#x9;c0,8.3,0.1,16.7-0.7,24.9c-1.2,12-9.7,21.6-20.4,24c-13.6,3.1-26.1-0.8-32.2-11.8c-3.2-5.7-4.8-12.9-5-19.5&#xA;&#x9;&#x9;C803.4,975.2,803.7,950.8,803.7,925.2z M948.9,945.3c15.3,0,30.2,0,45.2,0c12.8,0,12.6,0,12.3-13.1c-0.1-5-1.8-6.8-7-6.7&#xA;&#x9;&#x9;c-22.5,0.3-45,0.1-67.5,0.1c-1.8,0-3.6,0.3-5.2,0.4c0,41.2,0,81.7,0,122.8c2.4,0,4.5,0,6.5,0c22.1,0,44.2-0.3,66.2,0.2&#xA;&#x9;&#x9;c6.8,0.2,8.7-2.6,8.9-8.3c0-1.7-0.1-3.3-0.1-5c-0.1-5.1-2.4-7-7.8-6.8c-15,0.4-30,0.2-45,0.1c-2.2,0-4.4-0.2-6.5-0.3&#xA;&#x9;&#x9;c0-11.5,0-22.2,0-33.6c2.4,0,4.4,0,6.5,0c12.9,0,25.8-0.1,38.7,0.1c3.8,0.1,5.6-1,5.9-5.1c1.1-14,0.9-14.3-13-14.3&#xA;&#x9;&#x9;c-12.6,0-25.3,0-38.2,0C948.9,965.4,948.9,955.7,948.9,945.3z M535.6,995.1c17.3,0,33.9,0,50.9,0c0-6.6,0-12.7,0-19.4&#xA;&#x9;&#x9;c-17.4,0-34,0-50.8,0c0-10.3,0-20,0-30.3c15.1,0,29.8,0,44.6,0c14,0,15.3-1.5,13-15.7c-0.2-1.2-0.6-2.3-1-3.6&#xA;&#x9;&#x9;c-26.2,0-52.1,0-78.3,0c0,41,0,81.7,0,122.9c2.6,0,4.8,0,7.1,0c20.4,0,40.8,0,61.2,0c13.8,0,13.7-0.1,12.9-13.8&#xA;&#x9;&#x9;c-0.3-4.5-1.7-6.1-6.4-6.1c-15.4,0.2-30.8,0.1-46.2,0.1c-2.2,0-4.4-0.2-6.9-0.3C535.6,1017.5,535.6,1006.8,535.6,995.1z&#xA;&#x9;&#x9; M356.1,1048.8c-15.5-41.2-30.2-80.2-45-119.2c-0.6-1.5-1.7-3.8-2.7-3.8c-6.4-0.4-13-1.1-19.2,0c-2.1,0.4-3.8,5.4-5,8.5&#xA;&#x9;&#x9;c-10.3,26.9-20.4,53.9-30.5,80.9c-4,10.6-7.9,21.2-12.4,33.3c5.9,0.5,10.5,0.8,15.2,1.2c4.9,0.5,7.6-1.6,9-6.4&#xA;&#x9;&#x9;c1.9-6.3,4.6-12.5,6.6-18.8c1.2-3.9,3.1-5.6,7.5-5.5c12.5,0.3,25,0.3,37.4,0c4.1-0.1,5.9,1.5,7.1,5.2c2.3,7.1,4.9,14.1,7.6,21&#xA;&#x9;&#x9;c0.6,1.5,2.1,3.7,3.2,3.8C341.6,1049.2,348.3,1048.9,356.1,1048.8z M366.5,925.7c1.4,5.9,2.2,10.4,3.5,14.8&#xA;&#x9;&#x9;c9.8,34.2,22.2,67.3,37,99.6c3.2,7.1,7.5,10.4,15.1,9.5c1.9-0.2,3.8-0.2,5.6-0.1c4.8,0.2,7.3-2.3,9.3-6.6&#xA;&#x9;&#x9;c13.1-28.2,25.1-56.9,34-86.8c2.9-9.8,5.4-19.8,8.4-30.7c-8.6,0-15.7,0-22.9,0c-6.5,31.7-24.5,87.1-33,100.9&#xA;&#x9;&#x9;c-14.4-33-25.2-66.6-33.3-100.7C382.1,925.7,374.6,925.7,366.5,925.7z M443.8,675.6c-11.2,26.7-22.6,54-34.1,81.2&#xA;&#x9;&#x9;c1.1,0.7,1.8,1.3,2.6,1.5c15,4.3,30.2,4.5,45.7,2.6c10.7-1.3,16.7-6.2,20.1-16.6c4.2-12.9,10.3-25.1,15.3-36.9&#xA;&#x9;&#x9;C476.5,696.7,460.4,686.3,443.8,675.6z"/>
    <path d="M815.4,630.4c-5.2-12.3-10.2-24.2-15.2-36c-2.2-5.2-4.8-10.2-6.3-15.6c-0.7-2.6-0.5-6.4,1-8.6c25.1-37,36.8-78.1,35-122.5&#xA;&#x9;&#x9;C828.4,410,817,375.1,796,343.5c-18.6-27.8-42.4-49.9-71.6-66.1c-19.8-11-40.8-18.4-63.1-22.2c-46.1-7.9-90-1.2-131.2,20.7&#xA;&#x9;&#x9;c-38.7,20.6-67.8,50.8-87.4,90.2c-17,34.5-23.7,70.8-20.2,108.9c3.4,37,16.2,70.6,38.1,100.7c21.6,29.8,49.2,52.3,82.8,67.1&#xA;&#x9;&#x9;c37.9,16.8,77.5,21.6,118.3,14c13.4-2.5,26.5-6.6,40.4-10.1c6.5,15.5,13.3,31.5,20,47.5c-76,35.8-210,30.2-296.2-75.2&#xA;&#x9;&#x9;c-87.6-107.2-74.9-263.3,27.8-355c106.2-94.9,260.8-83,352.4,7.7C913,377.5,903,537.2,815.4,630.4z"/>
    <path d="M534.7,608.3c-17.3-9.6-31.9-21.6-45.1-35.1c-1-1-1.1-3.9-0.5-5.4c15.7-37.7,31.7-75.4,47.5-113.1&#xA;&#x9;&#x9;c13-31,25.8-62.1,38.7-93.1c8.6-20.7,32.6-34.1,56-31.1c21.8,2.8,36.2,14.9,44.5,35c11.5,27.8,23.4,55.4,35.1,83.2&#xA;&#x9;&#x9;c15.4,36.8,30.7,73.5,46.1,110.3c11.2,26.8,22.6,53.5,33.9,80.3c16.4,39,32.7,78.1,49.8,118.6c-8.5,1.4-16.5,3.9-24.5,3.8&#xA;&#x9;&#x9;c-11.4,0-22.7-1.8-34-3.1c-3.9-0.4-6.1-2.7-7.8-6.8c-15.8-38.2-32.1-76.1-48-114.2c-21.6-51.5-43-103-64.5-154.5&#xA;&#x9;&#x9;c-10.5-25.1-21-50.2-31.6-75.2c-0.9-2.2-3.4-3.7-5.2-5.6c-1.9,1.9-4.6,3.5-5.6,5.9c-12.2,28.4-24.1,56.9-36.1,85.4&#xA;&#x9;&#x9;c-15.3,36.5-30.7,73.1-46,109.6C536.5,605,535.7,606.4,534.7,608.3z"/>
    <path d="M717.5,925.3c6.2,0,12-0.4,17.7,0.3c1.3,0.2,3.1,3.9,3.1,5.9c0.2,26.4,0.2,52.9,0.2,79.3c0,10-0.3,20,0.1,30&#xA;&#x9;&#x9;c0.3,5.8-1.4,7.7-7.3,8.5c-8.9,1.3-14.1-1.1-19.3-8.9c-16.9-25.5-34.9-50.3-53.1-76.4c0,28.7,0,56.5,0,85c-7.2,0-14,0-21.1,0&#xA;&#x9;&#x9;c-0.1-2.2-0.3-4-0.3-5.8c0-36.9,0.1-73.7-0.2-110.6c0-5.2,2.1-6.2,6.5-7.5c14.3-4.2,18.7,6.8,24.6,15.4&#xA;&#x9;&#x9;c16.1,23.2,32.2,46.5,49.1,70.9C717.5,982.3,717.5,954.3,717.5,925.3z"/>
    <path d="M803.7,925.2c0,25.7-0.3,50,0.2,74.3c0.2,6.6,1.8,13.8,5,19.5c6.1,10.9,18.6,14.8,32.2,11.8c10.7-2.4,19.2-11.9,20.4-24&#xA;&#x9;&#x9;c0.8-8.3,0.7-16.6,0.7-24.9c0.1-16.9,0.2-33.7-0.1-50.6c-0.1-4.7,1.5-6.1,6-6.3c15.4-0.8,15.4-0.9,15.4,14.4&#xA;&#x9;&#x9;c0,19.6,0.4,39.2-0.2,58.7c-0.3,8.6-1.4,17.6-4.4,25.6c-7,18.1-21.6,26.7-40.7,27.9c-19.2,1.2-36.5-2.6-48.1-19.9&#xA;&#x9;&#x9;c-5.8-8.7-8.3-18.6-8.4-28.9c-0.2-23.9,0-47.9-0.2-71.8c0-4,1.2-5.8,5.2-5.8C792.2,925.2,797.8,925.2,803.7,925.2z"/>
    <path d="M948.9,945.3c0,10.4,0,20.1,0,30.5c12.9,0,25.5,0,38.2,0c13.9,0,14,0.3,13,14.3c-0.3,4.1-2,5.2-5.9,5.1&#xA;&#x9;&#x9;c-12.9-0.2-25.8-0.1-38.7-0.1c-2,0-4.1,0-6.5,0c0,11.4,0,22.1,0,33.6c2.1,0.1,4.3,0.3,6.5,0.3c15,0,30,0.3,45-0.1&#xA;&#x9;&#x9;c5.4-0.2,7.7,1.7,7.8,6.8c0.1,1.7,0.2,3.3,0.1,5c-0.2,5.7-2.1,8.5-8.9,8.3c-22.1-0.6-44.2-0.2-66.2-0.2c-2,0-4.1,0-6.5,0&#xA;&#x9;&#x9;c0-41.1,0-81.6,0-122.8c1.6-0.1,3.4-0.4,5.2-0.4c22.5,0,45,0.1,67.5-0.1c5.2-0.1,6.8,1.7,7,6.7c0.4,13.1,0.6,13.1-12.3,13.1&#xA;&#x9;&#x9;C979.1,945.3,964.2,945.3,948.9,945.3z"/>
    <path d="M535.6,995.1c0,11.7,0,22.5,0,33.8c2.5,0.1,4.7,0.3,6.9,0.3c15.4,0,30.8,0.2,46.2-0.1c4.6-0.1,6.1,1.6,6.4,6.1&#xA;&#x9;&#x9;c0.8,13.7,0.9,13.8-12.9,13.8c-20.4,0-40.8,0-61.2,0c-2.2,0-4.5,0-7.1,0c0-41.3,0-81.9,0-122.9c26.2,0,52.1,0,78.3,0&#xA;&#x9;&#x9;c0.3,1.3,0.8,2.4,1,3.6c2.3,14.2,1,15.8-13,15.7c-14.7,0-29.4,0-44.6,0c0,10.4,0,20,0,30.3c16.8,0,33.4,0,50.8,0&#xA;&#x9;&#x9;c0,6.7,0,12.8,0,19.4C569.5,995.1,552.9,995.1,535.6,995.1z"/>
    <path d="M356.1,1048.8c-7.8,0.1-14.5,0.4-21.2,0.2c-1.1,0-2.6-2.3-3.2-3.8c-2.7-7-5.2-14-7.6-21c-1.2-3.6-3-5.2-7.1-5.2&#xA;&#x9;&#x9;c-12.5,0.3-25,0.3-37.5,0c-4.4-0.1-6.3,1.6-7.5,5.5c-2,6.3-4.7,12.4-6.6,18.8c-1.4,4.8-4.1,6.9-9,6.4c-4.6-0.4-9.3-0.7-15.2-1.2&#xA;&#x9;&#x9;c4.5-12.1,8.4-22.7,12.4-33.3c10.1-27,20.3-53.9,30.5-80.9c1.2-3.2,2.9-8.2,5-8.5c6.2-1.1,12.8-0.4,19.2,0c1,0.1,2.2,2.4,2.7,3.8&#xA;&#x9;&#x9;C325.9,968.5,340.5,1007.5,356.1,1048.8z M297.9,952.6c-5.6,15.9-11.2,31.6-16.9,47.8c11.8,0,22.6,0,34.1,0&#xA;&#x9;&#x9;C309.2,984.2,303.6,968.6,297.9,952.6z"/>
    <path d="M366.5,925.7c8.1,0,15.6,0,23.8,0c8.2,34.1,18.9,67.7,33.3,100.7c8.5-13.8,26.5-69.2,33-100.9c7.1,0,14.3,0,22.9,0&#xA;&#x9;&#x9;c-3,10.9-5.5,20.9-8.4,30.7c-8.9,29.9-20.9,58.6-34,86.8c-2,4.2-4.5,6.8-9.3,6.6c-1.9-0.1-3.8-0.1-5.6,0.1&#xA;&#x9;&#x9;c-7.6,0.8-11.9-2.5-15.1-9.5c-14.8-32.3-27.2-65.5-37.1-99.6C368.8,936.1,367.9,931.6,366.5,925.7z"/>
    <path d="M443.8,675.6c16.6,10.7,32.8,21.1,49.6,31.9c-5,11.8-11.1,24-15.3,36.9c-3.4,10.4-9.4,15.3-20.1,16.6&#xA;&#x9;&#x9;c-15.5,1.9-30.7,1.7-45.7-2.6c-0.8-0.2-1.4-0.8-2.6-1.5C421.1,729.5,432.5,702.3,443.8,675.6z"/>
    <path fill="#FFFFFF" d="M297.9,952.6c5.8,16,11.4,31.6,17.2,47.8c-11.5,0-22.3,0-34.1,0C286.7,984.2,292.2,968.5,297.9,952.6z"/>
  </g>
</svg>