<?xml version="1.0" encoding="utf-8"?>
<svg width="64" height="64" viewBox="0 0 64 64" fill="none" version="1.2" baseProfile="tiny-ps" xmlns="http://www.w3.org/2000/svg">
  <title>CoinJar</title>
  <rect width="64" height="64" fill="white" />
  <path fill-rule="evenodd" d="M44.4975 44.25C41.3214 47.4899 36.8954 49.5 32 49.5C27.1046 49.5 22.6786 47.4899 19.5025 44.25H44.4975ZM47.1588 40.75H16.8412C15.3522 38.176 14.5 35.1875 14.5 32C14.5 22.335 22.335 14.5 32 14.5C41.665 14.5 49.5 22.335 49.5 32C49.5 35.1875 48.6478 38.176 47.1588 40.75ZM52.7096 35.5C52.9006 34.3618 53 33.1925 53 32C53 20.402 43.598 11 32 11C20.402 11 11 20.402 11 32C11 33.1925 11.0994 34.3618 11.2904 35.5H7.5L4.875 44.25H14.9412C18.7533 49.5492 24.9737 53 32 53C39.0263 53 45.2467 49.5492 49.0588 44.25H59.125L56.5 35.5H52.7096Z" fill="black" />
</svg>
