<?xml version="1.0" encoding="UTF-8" standalone="yes"?>
<svg viewBox="0 0 512 512" fill="none" version="1.2" baseProfile="tiny-ps" xmlns="http://www.w3.org/2000/svg">
  <title>Scalar</title>
  <rect width="512" height="512" fill="#037DE8"/>
  <path d="M93.625 249.725C81.5261 245.943 70.637 242.314 70.637 229.762C70.637 219.024 78.1976 212.217 93.7762 212.217C101.641 212.217 106.026 213.578 108.143 214.788C108.899 215.243 109.353 215.848 109.807 217.965L112.075 230.82L122.51 231.727V206.016C117.369 204.05 107.085 200.723 94.381 200.723C73.3588 200.723 56.4212 209.949 56.4212 231.576C56.4212 254.413 74.1149 258.344 89.3892 262.883C101.187 266.36 111.621 270.294 111.621 283.602C111.621 296.76 102.395 302.659 86.9698 302.659C78.1976 302.659 72.3004 300.842 70.0322 300.086C67.9152 299.33 67.4597 298.725 67.0061 296.76L64.1331 283.451H54V308.254C58.6876 310.522 71.9979 314 85.7601 314C107.387 314 125.839 305.532 125.839 282.088C125.839 259.405 108.748 254.413 93.625 249.725Z" fill="white"/>
  <path d="M173.331 302.658C158.662 302.658 148.678 294.491 148.678 273.317C148.678 251.69 159.418 243.825 172.876 243.825C177.112 243.825 181.043 244.432 183.162 245.186C184.523 245.642 184.825 246.246 184.975 247.305L186.791 257.287L196.924 257.742V237.626C193.598 235.962 184.975 232.938 173.936 232.938C150.948 232.938 134.311 245.49 134.311 274.224C134.311 298.121 145.352 313.999 171.214 313.999C181.196 313.999 191.327 311.43 197.075 307.648L192.69 297.666C188.454 300.238 180.894 302.658 173.331 302.658Z" fill="white"/>
  <path d="M255.148 291.617C250.46 296.004 240.932 303.262 232.009 303.262C224.902 303.262 221.422 299.935 221.422 291.768C221.422 283.903 225.053 280.123 238.057 278.913L255.148 277.401V291.617ZM304.45 299.935V198H281.009L279.648 206.016L288.722 208.891C290.234 209.345 290.688 210.403 290.688 212.066V299.935C290.688 302.204 290.386 302.807 288.269 302.96L278.892 303.869L271.178 302.96C268.91 302.657 268.759 302.355 268.759 299.935V259.857C268.759 238.986 261.499 232.937 240.023 232.937C228.075 232.937 210.835 235.054 210.835 253.657L223.841 255.018C223.992 243.675 230.648 243.373 239.872 243.373C253.031 243.373 255.148 248.816 255.148 259.857V267.873L234.73 269.536C216.581 271.05 207.206 278.157 207.206 293.28C207.206 300.994 209.625 314 228.529 314C240.176 314 248.644 309.01 255.904 302.204L256.357 302.355L257.718 312.185H315.946V304.02L306.871 302.96C304.601 302.657 304.45 302.355 304.45 299.935" fill="white"/>
  <path d="M369.337 291.617C364.647 296.004 355.119 303.262 346.198 303.262C339.091 303.262 335.611 299.935 335.611 291.768C335.611 283.903 339.242 280.123 352.246 278.913L369.337 277.401V291.617ZM382.948 299.935V259.857C382.948 238.986 375.688 232.937 354.214 232.937C342.266 232.937 325.024 235.054 325.024 253.657L338.03 255.018C338.18 243.675 344.837 243.373 354.062 243.373C367.22 243.373 369.337 248.816 369.337 259.857V267.873L348.921 269.536C330.772 271.05 321.395 278.157 321.395 293.28C321.395 300.994 323.814 314 342.718 314C354.363 314 362.835 309.01 370.093 302.204L370.546 302.355L371.909 312.185H393.081V304.02L385.367 302.96C383.099 302.657 382.948 302.355 382.948 299.935" fill="white"/>
  <path d="M447.824 232.938C437.54 232.938 430.129 239.44 425.137 245.037L424.683 244.885L423.171 234.45H403.36L401.998 242.466L410.618 245.339C412.132 245.793 412.586 246.851 412.586 248.514V299.936C412.586 302.204 412.284 302.658 410.165 302.96L402.604 303.867V312.186H442.681V304.018L428.768 302.807C426.499 302.658 426.348 302.204 426.348 299.785V254.26C429.826 250.934 437.54 244.732 444.344 244.732C445.707 244.732 446.01 245.037 446.161 246.246L447.973 256.68L458.711 257.135V234.297C455.991 233.543 451.302 232.938 447.824 232.938Z" fill="white"/>
</svg>