<?xml version="1.0" encoding="utf-8"?>
<svg baseProfile="tiny-ps" version="1.2" viewBox="0 0 652 652" xmlns="http://www.w3.org/2000/svg">
  <title>Bergbahnen Engelberg-Trübsee-Titlis AG</title>
  <rect width="652" height="652" fill="#0000b9" />
  <g>
     <path d="M511.9,285.9c-6.4,1.1-12.9,3.1-16.7,6.7-3.8,3.6-5.4,8.9-5.4,15.9,0,17.2,10.2,23.7,29.5,25.3l19.9,1.9c3.4.3,5.9.6,7.2,1,1.4.4,4.4,2.4,4.4,5.9s-2.3,5.5-3.5,6.1c-1.3.7-3.4,1.2-6.4,1.5-3,.3-7.3.5-12.9.5-9.6,0-22.1-.7-36.1-1.7v16.5c13,1.3,30.4,2.3,47.2,2.3h.2c9.5,0,16.4-.6,22.4-1.8,6-1.2,10.7-3.7,14.3-7.6,3.6-3.9,5.3-9.7,5.3-17.4s-2.3-19.7-15.6-22.1c-8-1.4-34.4-3.8-34.4-3.8-3.3-.3-5.7-.7-7-1-3.5-.8-3.9-4-3.9-6,0-3.3,1.8-4.5,4.2-5.5,2.8-.9,8.7-1.4,17.9-1.4s21.1.7,34.8,1.7v-16.2c-7.1-.9-14.9-1.7-20.9-2.1-6-.4-12.6-.6-19.8-.6h-.2c-9.8,0-17.9.6-24.3,1.7Z" fill="#fff" />
     <rect x="444" y="285.4" width="29.3" height="81.1" fill="#fff" />
     <polygon points="356.4 285.4 356.4 366.6 431.6 366.6 431.6 347.3 385.5 347.3 385.5 285.4 356.4 285.4" fill="#fff" />
     <polygon points="303.8 366.6 303.8 304.7 343.9 304.7 343.9 285.4 234.5 285.4 234.5 304.7 274.6 304.7 274.6 366.6 303.8 366.6" fill="#fff" />
     <rect x="192.7" y="285.4" width="29.3" height="81.1" fill="#fff" />
     <polygon points="111 366.6 140.2 366.6 140.2 304.7 180.3 304.7 180.3 285.4 70.9 285.4 70.9 304.7 111 304.7 111 366.6" fill="#fff" />
  </g>
</svg>