<?xml version="1.0" encoding="utf-8"?>
<!-- Generator: Adobe Illustrator 27.9.0, SVG Export Plug-In . SVG Version: 6.00 Build 0)  -->
<svg version="1.2" baseProfile="tiny-ps" id="レイヤー_1"
	 xmlns="http://www.w3.org/2000/svg" xmlns:xlink="http://www.w3.org/1999/xlink" viewBox="0 0 178.5 178.5"
	 xml:space="preserve">
<title>AEON INSURANCE SERVICE CO.,LTD.</title>
<rect x="0" y="0" fill="#B50080" width="178.6" height="178.5"/>
<g>
	<path fill="#E6C2DB" d="M153.7,38.8c0-9.3-76.9-16.6-149.2-16.4c-1.3,0-2.6,0-3.9,0v-3.2C107,19.2,169,26.7,169,41.1
		c0,11.2-35.1,27.3-143.5,30.5c-7.9,0.2-16.2,0.4-25,0.5v-18C95.1,53.7,153.7,48.3,153.7,38.8z"/>
</g>
<g>
	<path fill="#FFFFFF" stroke="#FFFFFF" stroke-width="0.3245" d="M31.7,138.8h2.6v21.1h-2.6V138.8z"/>
	<path fill="#FFFFFF" stroke="#FFFFFF" stroke-width="0.3245" d="M38.5,147l0-1.7h2.5l0,2.4c0.3-0.6,1.2-2.7,4.2-2.7
		c1.2,0,4.8,0.5,4.8,5v10h-2.5v-9.3c0-1-0.1-1.8-0.7-2.5c-0.6-0.7-1.5-1-2.3-1c-1.8,0-3.4,1.4-3.4,4.4v8.4h-2.5V147z"/>
	<path fill="#FFFFFF" stroke="#FFFFFF" stroke-width="0.3245" d="M55.7,155.6c0,1.1,0.5,2.7,2.9,2.7c1,0,1.8-0.2,2.3-0.9
		c0.3-0.4,0.4-0.9,0.4-1.4c0-1.4-0.9-1.7-2.9-2.2c-2.8-0.7-5.1-1.3-5.1-4.4c0-2.7,2.1-4.4,5.1-4.4c1.7,0,4,0.5,4.8,2.3
		c0.3,0.8,0.3,1.5,0.3,2.1h-2.5c0.1-2.2-1.7-2.4-2.5-2.4c-0.4,0-2.7,0-2.7,2.1c0,1.3,1.2,1.7,1.9,1.9c3.7,1,4.4,1.2,5.2,2
		c0.7,0.8,1,1.8,1,2.7c0,1.6-0.8,3-1.8,3.7c-1.2,0.8-2.5,1-3.9,1c-2.7,0-5.2-1.2-5.1-4.8H55.7z"/>
	<path fill="#FFFFFF" stroke="#FFFFFF" stroke-width="0.3245" d="M69.5,145.3v9.4c0,1.4,0.3,3.2,2.8,3.2c1.2,0,2.4-0.5,3.1-1.6
		c0.6-0.9,0.6-2,0.6-2.7v-8.3h2.5v11.9c0,0.3,0.1,1.9,0.1,2.7h-2.6l-0.1-2.5c-0.5,1-1.4,2.7-4.2,2.7c-3.3,0-4.8-2.1-4.8-5v-9.8H69.5
		z"/>
	<path fill="#FFFFFF" stroke="#FFFFFF" stroke-width="0.3245" d="M82.8,148.2c0-1-0.1-2-0.1-3h2.5l0.1,2.8c0.5-2,2.1-2.7,3.2-2.9
		c0.7-0.1,1.3-0.1,1.7-0.1v2.7c-0.1-0.1-0.3-0.1-0.5-0.1c-0.2,0-0.4,0-0.7,0c-2.9,0-3.6,1.9-3.6,4.4v7.8h-2.5V148.2z"/>
	<path fill="#FFFFFF" stroke="#FFFFFF" stroke-width="0.3245" d="M100.8,159.9c-0.2-0.7-0.2-1.4-0.2-2.2c-1.2,2.4-3,2.7-4.1,2.7
		c-3,0-4.7-1.9-4.7-4.3c0-1.2,0.4-3,2.3-4.3c1.4-0.9,3.5-1,4.6-1c0.6,0,1,0,1.8,0.1c0-1.8,0-2.6-0.5-3.2c-0.5-0.7-1.6-1-2.3-1
		c-2.5,0-2.6,1.9-2.7,2.5h-2.5c0.1-0.8,0.2-1.8,0.9-2.8c1-1.2,2.9-1.6,4.3-1.6c1.9,0,4,0.7,4.7,2.2c0.4,0.9,0.4,1.6,0.4,2.3l-0.1,7
		c0,0.2,0,2.2,0.2,3.7H100.8z M99.1,152.7c-1,0-4.8,0-4.8,3c0,0.9,0.5,2.5,2.7,2.5c1.3,0,2.2-0.6,2.8-1.6c0.6-1,0.6-1.8,0.6-3.9
		C100.1,152.7,99.7,152.7,99.1,152.7z"/>
	<path fill="#FFFFFF" stroke="#FFFFFF" stroke-width="0.3245" d="M106.9,147l0-1.7h2.5l0,2.4c0.3-0.6,1.2-2.7,4.2-2.7
		c1.2,0,4.8,0.5,4.8,5v10h-2.5v-9.3c0-1-0.1-1.8-0.7-2.5c-0.6-0.7-1.5-1-2.3-1c-1.8,0-3.4,1.4-3.4,4.4v8.4h-2.5V147z"/>
	<path fill="#FFFFFF" stroke="#FFFFFF" stroke-width="0.3245" d="M130.2,150c-0.1-0.7-0.2-3.1-2.6-3.1c-3.4,0-3.4,4.4-3.4,5.5
		c0,3,0.7,5.8,3.3,5.8c2.1,0,2.8-1.8,2.9-3.2h2.5c-0.2,2.9-2.1,5.3-5.3,5.3c-0.9,0-2.9-0.2-4.3-1.9c-0.8-1-1.6-2.6-1.6-5.6
		c0-6.1,3.4-7.9,6-7.9c0.9,0,2.8,0.2,4,1.8c1,1.3,1,2.5,1.1,3.3H130.2z"/>
	<path fill="#FFFFFF" stroke="#FFFFFF" stroke-width="0.3245" d="M137.6,153.1c-0.1,3,1.1,5.3,3.8,5.3c1.6,0,2.9-0.9,3.1-3h2.5
		c-0.1,0.7-0.2,1.9-1.1,3.1c-0.6,0.7-1.9,2-4.5,2c-4.2,0-6.1-2.9-6.1-7.5c0-2.9,0.5-5.3,2.6-6.9c1.3-1,2.8-1.1,3.6-1.1
		c5.9,0,5.8,5.8,5.7,8.2H137.6z M144.5,151.2c0-1.4-0.2-4.3-3.3-4.3c-1.6,0-3.5,1.1-3.6,4.3H144.5z"/>
</g>
<g>
	<polygon fill="#FFFFFF" points="62.2,97 78.6,97 78.6,92.8 52.9,92.8 26.2,128.1 31.4,128.1 57.6,93.5 57.6,128.1 79,128.1 79,124 
		62.2,124 	"/>
	<polygon fill="#FFFFFF" points="145,92.8 145,119.8 125.6,92.8 122.1,92.8 122.1,128.1 126.5,128.1 126.5,101.1 145.9,128.1 
		149.3,128.1 149.3,92.8 	"/>
	<path fill="#FFFFFF" d="M99.6,92c-10.6,0-18.9,8.1-18.9,18.4c0,10.3,8.3,18.4,18.9,18.4c10.7,0,19-8.1,19-18.4
		C118.7,100.1,110.3,92,99.6,92 M99.7,124.9c-8,0-14.4-6.4-14.4-14.4c0-8,6.4-14.4,14.4-14.4c7.9,0,14.4,6.4,14.4,14.4
		C114.1,118.4,107.7,124.9,99.7,124.9z"/>
	<path fill="#FFFFFF" d="M87.5,106.1c6.8,0.6,8.1,2.3,8,3.2c-0.4,2.1-9.1,3.9-20.4,3.9c-11.3,0-20.4-1.7-20.4-3.9
		c0-2.1,10.4-4,22.4-4c0,0,0.9,0,0.9-0.3c0-0.4-0.8-0.4-0.8-0.4c-17,0-26.1,2.5-26.1,5.9c0,3.2,10.7,5.9,24,5.9
		c13.2,0,24-2.7,24-5.9c0-1.8-2.8-4.3-11.7-5.1c0,0-0.7-0.1-0.7,0.3C86.7,106,87.5,106.1,87.5,106.1z"/>
	<rect x="57.6" y="100.8" fill="#FFFFFF" width="4.6" height="8.6"/>
</g>
</svg>
