<?xml version="1.0" encoding="UTF-8" standalone="yes"?>
<svg version="1.2" viewBox="0 0 240 240" xml:space="preserve" baseProfile="tiny-ps" xmlns="http://www.w3.org/2000/svg">
  <title>Zeliatech</title>
  <rect class="st0" width="240" height="240" fill="#1E245D"/>
  <g>
    <path class="st1" d="M171.2,55.8c-22.9,13.3-82.5,13.4-83.7,56.3c17.2-13.3,46.3-10.6,61-27.1c0.3,18.8-18.6,23.2-34,27.6&#xD;&#xA;&#x9;&#x9;&#x9;&#x9;c-12.7,3.6-24.8,7.6-34.1,15.6c0,0,0,0,0,0c0,0,0,0,0,0c-13.2,11.4-20.1,29.2-11.5,55.9c22.9-13.3,82.8-13,83.7-56.3&#xD;&#xA;&#x9;&#x9;&#x9;&#x9;c-17.2,13.3-46.3,10.6-61,27.1c-0.3-18.8,19.7-23.9,34-27.6c13.6-3.6,24.8-8.1,34.1-15.6c0,0,0,0,0,0c0,0,0,0,0,0&#xD;&#xA;&#x9;&#x9;&#x9;&#x9;C172.9,100.3,179.8,82.6,171.2,55.8" fill="#FF6A14"/>
  </g>
</svg>