<?xml version="1.0" encoding="UTF-8" standalone="yes"?>
<svg version="1.2" baseProfile="tiny-ps" viewBox="0 0 240 240" xml:space="preserve" xmlns="http://www.w3.org/2000/svg">
  <title>Esprinet</title>
  <g>
    <circle fill="#004F90" cx="120" cy="120" r="90"/>
    <g>
      <g>
        <g>
          <g>
            <path fill="#FFFFFF" d="M122.63,158.67c11.13,0,23.75-3.86,31.47-11.87l-11.58-11.43c-4.15,4.3-12.91,6.83-19.59,6.83&#xD;&#xA;&#x9;&#x9;&#x9;&#x9;&#x9;&#x9;c-12.76,0-20.63-6.53-21.82-15.58H82.92C85.65,146.11,100.01,158.67,122.63,158.67z"/>
          </g>
        </g>
        <g>
          <path fill="#FFFFFF" d="M158.02,111.59c-2.87-20.13-16.72-30.25-36.73-30.25c-20.78,0-34.97,12.27-38.19,30.25H59.94h-0.75&#xD;&#xA;&#x9;&#x9;&#x9;&#x9;&#x9;h-5.01v15.02h5.76v0h22.97h18.19h56.13h1.02C158.77,121.1,158.67,116.1,158.02,111.59z M101.4,111.62&#xD;&#xA;&#x9;&#x9;&#x9;&#x9;&#x9;c0-0.01,0.01-0.02,0.01-0.03c2.68-9.48,10.69-14.22,20.48-14.22c10.38,0,17.79,4.74,18.99,14.22c0,0.01,0.01,0.02,0.01,0.03&#xD;&#xA;&#x9;&#x9;&#x9;&#x9;&#x9;H101.4z"/>
          <rect x="46.12" y="111.59" fill="#FFFFFF" width="4.59" height="15.02"/>
          <rect x="38.06" y="111.59" fill="#FFFFFF" width="3.42" height="15.02"/>
          <rect x="30" y="111.59" fill="#FFFFFF" width="2.24" height="15.02"/>
        </g>
      </g>
      <g>
        <path fill="#99B9D3" d="M101.1,126.61H82.91c0.2,1.44,0.48,2.82,0.81,4.18h18.49C101.68,129.47,101.29,128.08,101.1,126.61z"/>
      </g>
    </g>
  </g>
</svg>