<?xml version="1.0" encoding="utf-8"?>
<!-- Generator: Adobe Illustrator 27.4.0, SVG Export Plug-In . SVG Version: 6.00 Build 0)  -->
<svg version="1.2" baseProfile="tiny-ps" id="Layer_1" xmlns="http://www.w3.org/2000/svg" xmlns:xlink="http://www.w3.org/1999/xlink" viewBox="0 0 360 360" xml:space="preserve">
<title>Nuvei</title>
<g>
	<g>
		<g>
			<g>
				<g>
					<path fill="#081F2C" d="M92,174.4c0-6.7-3.5-9.1-9-9.1c-5.2,0-8.7,2.8-10.7,5.4v35.6H54.7v-55.1h17.6v4.8l-2.2,4
						c3.3-3.9,12-10.2,21.2-10.2c12.5,0,18.2,7.3,18.2,17.4v39H92V174.4z"/>
					<path fill="#081F2C" d="M152.1,198c-3.4,3.9-11.6,9.5-20.8,9.5c-12.5,0-18.1-7.1-18.1-17.2v-39.2h17.6v32
						c0,6.6,3.4,8.9,9.1,8.9c5,0,8.4-2.7,10.5-5.4v-35.6h17.6v55.1h-17.6v-4.1L152.1,198z"/>
					<path fill="#081F2C" d="M254.7,149.7c16.3,0,28.2,12,28.2,30.7v3.8H245l-1.5-2c0,0.7,0.1,1.6,0.3,2.4c1.3,4.9,5.9,9.4,13.9,9.4
						c4.9,0,10.4-1.9,13.5-4.7l7.4,10.9c-5.5,4.9-14.6,7.3-23,7.3c-17,0-30.1-11.1-30.1-29C225.4,162.6,237.5,149.7,254.7,149.7z
						 M243.5,172.8h22.7c-0.5-3.9-3.3-9.5-11.4-9.5C247.1,163.3,244.1,168.8,243.5,172.8z"/>
					<path fill="#081F2C" d="M286.5,151.1H304v55.1h-17.6V151.1z"/>
				</g>
				<polygon fill="#081F2C" points="211.4,151.1 199.5,183.9 199.9,189 186.4,151.1 171.4,151.1 171.4,160 189.6,206.2 208.3,206.2 
					229.9,151.1 				"/>
			</g>
			<path fill="#E40946" d="M285.2,134.1c0-5.6,4.4-10,10-10c5.6,0,10,4.4,10,10c0,5.6-4.4,10-10,10
				C289.6,144.1,285.2,139.7,285.2,134.1z"/>
		</g>
	</g>
</g>
</svg>
