<?xml version="1.0" encoding="utf-8"?>
<!-- Generator: Adobe Illustrator 25.3.1, SVG Export Plug-In . SVG Version: 6.00 Build 0)  -->
<svg version="1.2" baseProfile="tiny-ps" id="Layer_1" xmlns="http://www.w3.org/2000/svg" xmlns:xlink="http://www.w3.org/1999/xlink"
	  viewBox="0 0 40 40" xml:space="preserve"> <title>SAPPHIRE</title>
<g>
	<g>
		<path fill="#034EA1" d="M14.68,10.1c0.03,0.06,0.01,0.1-0.07,0.16c0,0-2.66,1.57-2.66,3.62c0,2.05,2.03,3.03,2.83,3.51
			c0.8,0.47,4.21,2.47,4.54,2.67c0.33,0.2,0.86,0.35,1.32,0.35c0.46,0,0.7-0.16,0.78-0.33c0.07-0.17-0.14-0.43-0.52-0.66
			c0,0-4.65-2.73-5.52-3.25c0,0-1.25-0.62-1.64-1.55c-0.39-0.93-0.03-1.64,0.47-2.31c0.5-0.68,2.05-1.8,3.62-2.14
			c0,0,1.45-0.4,2.94-0.24c1.49,0.16,2.54,0.46,3.46,0.99c0.92,0.53,1.45,1.01,1.61,1.26c0.16,0.26,0.23,0.49,0.06,0.72
			c-0.17,0.23-0.42,0.23-0.73,0.03c-0.32-0.2-0.63-0.45-1.12-0.78c-0.43-0.29-1.59-1.11-3.73-1.16c-2.14-0.06-3.58,0.76-4.22,1.22
			c-0.65,0.46-1.05,1.01-1.05,1.55c0,0.55,0.39,1.18,1.15,1.67c0.76,0.49,5.17,3.02,5.73,3.33c0.56,0.32,1.39,0.76,1.42,1.44
			c0.03,0.53-0.82,1.05-1.34,1.25c-0.52,0.2-1.25,0.45-2.56,0.36c-1.31-0.09-1.6-0.24-3.33-1.32c-1.55-0.96-2.7-1.11-3.25-0.63
			c0,0-0.69,0.39-0.14,1.64c0.55,1.25,1.84,2.14,1.92,2.21c0.09,0.07,0.07,0.09,0.03,0.14c-0.04,0.05-0.18-0.04-0.19-0.04
			c0,0-1.54-0.53-3.28-1.91c-1.74-1.38-2.56-3.25-2.56-5.03c0-1.78,1.05-3.35,1.85-4.18c0.8-0.83,1.68-1.41,2.34-1.78
			c0.66-0.37,1.41-0.66,1.57-0.73C14.59,10.08,14.68,10.1,14.68,10.1z"/>
		<path fill="#034EA1" d="M25.34,10.11c0.1,0.04,2.18,0.85,3.66,2.2c1.48,1.35,2.28,3.05,2.28,4.78c0,1.74-1.02,3.3-1.78,4.08
			c-0.76,0.78-1.52,1.44-2.64,2c-1.12,0.56-1.58,0.76-1.61,0.66c-0.03-0.1,0.1-0.13,0.2-0.2c0.1-0.07,0.98-0.59,1.68-1.48
			c0.7-0.89,0.96-1.59,0.86-2.43c-0.1-0.83-0.58-1.83-2.01-2.69c0,0-4.75-2.82-5.39-3.16c-0.63-0.34-1.12-0.34-1.51-0.32
			c-0.33,0.02-0.57,0.23-0.56,0.37c0.01,0.14,0.11,0.35,0.39,0.53c0,0,5.47,3.22,6.1,3.59c0.63,0.37,1.34,1.08,1.34,2.03
			c0,0.95-0.79,2.14-2.6,3.1c-1.44,0.76-3.03,0.86-3.96,0.86c-0.93,0-2.37-0.09-3.92-0.93c-1.55-0.85-1.82-1.31-1.88-1.52
			c-0.06-0.22-0.06-0.46,0.1-0.6c0.16-0.14,0.53-0.09,0.79,0.1c0.26,0.19,1.38,1.06,2.14,1.36c0.76,0.3,1.69,0.55,2.69,0.53
			c0.99-0.01,2.48-0.18,3.78-0.98c1.15-0.7,1.43-1.36,1.41-1.85c-0.03-0.59-0.49-1.25-1.29-1.71c0,0-4.87-2.84-5.73-3.33
			c-0.86-0.49-1.26-0.8-1.26-1.38c0-0.57,0.83-1.02,1.26-1.19c0.43-0.17,1.38-0.45,2.14-0.45c0.76,0,1.94,0.23,2.4,0.5
			c0.7,0.41,1.43,0.9,1.74,1.08c0,0,1.09,0.7,2,0.7c0.9,0,1.29-0.4,1.29-1.09c0-0.69-0.47-1.32-0.85-1.8
			c-0.37-0.47-1.18-1.14-1.31-1.22C25.15,10.18,25.24,10.07,25.34,10.11z"/>
	</g>
	<path fill="#034EA1" d="M7.22,25.91h-3.2c-0.59,0-1,0.24-1,0.8v0.79c0,0.45,0.28,0.8,1,0.8h2.16c0.16,0,0.55,0.07,0.55,0.38v0.5
		c0,0.24-0.4,0.33-0.59,0.33H3v0.62h3.27c0.43,0,1.04-0.13,1.04-0.8l-0.01-0.87c0-0.42-0.29-0.8-1.04-0.8H4.14
		c-0.35,0-0.54-0.16-0.54-0.33v-0.47c0-0.27,0.28-0.32,0.51-0.32h3.12V25.91z"/>
	<polygon fill="#D71921" points="7.51,30.13 8.16,30.13 9.11,28.3 10.98,28.3 11.93,30.13 12.59,30.13 10.36,25.92 9.73,25.92 
		10.64,27.68 8.81,27.68 	"/>
	<path fill="#034EA1" d="M12.88,25.92h3.14c0.53,0,0.91,0.24,0.97,0.72c0.06,0.47,0.06,0.72,0.01,0.99c0,0-0.02,0.69-1.12,0.69
		h-2.37v1.81h-0.65v-2.47h3.02c0.36,0,0.57-0.16,0.57-0.39v-0.35c0-0.24-0.28-0.38-0.57-0.38h-3.01V25.92z"/>
	<path fill="#034EA1" d="M17.43,25.92h3.14c0.53,0,0.91,0.21,0.97,0.68c0.06,0.47,0.06,0.75,0.01,1.03c0,0-0.02,0.69-1.12,0.69
		h-2.37v1.81h-0.65v-2.47h3.02c0.36,0,0.57-0.16,0.57-0.39v-0.35c0-0.24-0.28-0.38-0.57-0.38h-3.01V25.92z"/>
	<rect x="27.18" y="25.91" fill="#034EA1" width="0.58" height="4.22"/>
	<polygon fill="#034EA1" points="22.64,27.71 22.64,25.91 22.07,25.91 22.07,30.13 22.64,30.13 22.64,28.36 25.84,28.36 
		25.84,30.13 26.42,30.13 26.42,28.13 26.42,27.71 	"/>
	<g>
		<rect x="33.36" y="25.9" fill="#034EA1" width="3.64" height="0.64"/>
		<polygon fill="#034EA1" points="37,28.34 37,27.7 33.36,27.7 33.36,30.13 37,30.13 37,29.49 33.93,29.49 33.93,28.34 		"/>
	</g>
	<path fill="#034EA1" d="M32.75,30.14l-0.94-1.83c0.86-0.09,0.88-0.68,0.88-0.68c0.05-0.28,0.05-0.55-0.01-1.03
		c-0.06-0.47-0.44-0.68-0.97-0.68h-3.14v0.62h3.01c0.29,0,0.57,0.14,0.57,0.38v0.35c0,0.23-0.21,0.39-0.57,0.39h-3.02v2.47h0.65
		v-1.81h1.93l0.94,1.82H32.75z"/>
</g>
</svg>
