<?xml version="1.0" encoding="utf-8"?>
<!-- Generator: Adobe Illustrator 22.0.0, SVG Export Plug-In . SVG Version: 6.00 Build 0)  -->
<svg version="1.2" baseProfile="tiny-ps" xmlns="http://www.w3.org/2000/svg" xmlns:xlink="http://www.w3.org/1999/xlink" viewBox="0 0 317 313" xml:space="preserve">
<title>The Dinner Ladies</title>
<g id="Layer_2">
	<polygon fill="#E51E26" points="96.5,66.3 124.5,66.3 145.6,74.3 158.7,90 174.2,75.8 193.8,66.3 210.3,66.3 224,68.2 233,71.2 
		246.9,80.1 255.9,92.7 260,104.9 262.5,119.1 262.5,131.8 260,147.2 254.3,162.4 245.2,180.3 224,200.6 163.7,249 122.8,221.8 
		119.8,210.3 127.3,200.6 129.3,195 112.5,182.1 105.8,185.3 99.2,191.3 85,191.3 70.5,171.1 57.1,143.8 55.2,107.9 67.5,82.7 
		79.8,94.4 83.2,97.7 88.8,102.9 93.5,102.9 105.8,91.9 102.8,82.7 90.5,68.2 	"/>
</g>
<g id="b">
	<g id="c">
		<path stroke="#000000" stroke-miterlimit="10" d="M274.5,246.5c3.1,6.1,5.9,12.4,4.9,19.5c-0.4,2.9-1.5,5.5-3.6,7.4
			c-3,2.6-6.7,3.4-10.5,1.7c-1.4-0.6-2.8-1.3-4-2.2c-3.7-2.8-14.2-13.9-17.2-17.5c-0.9-1-2.1-1.8-3.2-2.7c-1.4-1.2-2.7-2.4-4-3.7
			c-0.6-0.6-1.2-1.2-1.8-1.8c-2.3-2.1-4.6-4.1-6.9-6.1c-0.7-0.7-1.5-1.4-2.3-1.7c-2.4-1.1-4.2-2.8-5.9-4.6
			c-3.7-3.8-7.7-7.3-11.1-11.5c-0.4-0.5-1-1-1.6-1.3c-1.2-0.7-2.5-0.6-3.5,0.3c-0.5,0.4-1.1,0.9-1.5,1.5c-2.7,3.7-6.5,6-10.1,8.7
			c-3.9,3-8.2,5.4-11.9,8.6c-3.5,3-7.4,5.5-10.6,8.8c-0.9,1-2.3,1.7-3.5,2.3c-2,1-4.1,1-6-0.2c-1-0.6-1.9-1.1-2.8-1.8
			c-4.9-3.8-10-7.2-15.3-10.2c-0.7-0.4-1.5-0.8-2.1-1.4c-2.7-2.5-6-4.1-8.8-6.4c-1-0.8-2-1.6-3-2.3c-0.9-0.7-1.7-1.4-2.7-2
			c-1.3-0.8-2.9-0.4-3.8,0.8c-0.6,0.8-1.1,1.6-1.6,2.5c-1.3,2.3-2.8,4.5-5.1,6c-1,0.7-1.9,1.7-2.8,2.5c-3.1,2.9-6.1,5.7-9.2,8.5
			c-0.6,0.6-1.3,1-2,1.5c-0.7,0.5-1.3,1-2,1.6c-2.5,2.3-5.1,4.4-7.4,6.9c-4.5,4.8-9.7,8.9-14.3,13.6c-1.8,1.8-3.9,3.2-6.4,3.9
			c-2.2,0.6-2.2,0.6-4.4,0c-1.8-0.5-3.4-1.3-4.5-2.8c-0.2-0.2-0.3-0.5-0.5-0.7c-1-1.6-2.3-2.8-4-3.6c-2-0.9-3.5-2.2-4.5-4.2
			c-0.8-1.5-2.1-2.6-3.6-3.5c-1.5-0.9-2.8-2-3.6-3.4c-0.7-1.3-1.9-2-3.1-2.8c-0.6-0.3-1.3-0.6-1.8-1c-1.3-1-2.5-2.2-3.1-3.9
			c-0.6-1.8-0.8-3.4-0.1-5.3c0.8-2.1,1.6-4.2,2.9-6c3-4,6-8.1,9-12.1c1.4-1.9,2.8-3.8,4.2-5.7c1.9-2.6,3.7-5.2,6-7.5
			c2.4-2.3,4.3-5.1,6.2-7.9c3.1-4.4,6.5-8.4,10.9-11.5c0.4-0.3,0.9-0.7,1.3-1c1.8-1.6,1.9-3.4,0-4.9c-1.5-1.2-2.8-2.7-4.1-4.1
			c-3.1-3.4-5.1-7.4-7.4-11.2c-1.7-2.9-3.2-5.9-4.8-8.8c-0.3-0.5-0.4-1-0.7-1.5c-0.5-1.1-0.9-2.4-1.6-3.4c-3-4.2-4-9.1-5.5-13.9
			c-1.3-4.2-2.3-8.7-2.7-13.1c-0.5-5.3-0.2-10.6-0.2-16c0-4.6,0.8-9.2,2.6-13.5c2.2-5.2,4.4-10.5,8.3-14.9c2-2.2,1.7-3.7-0.4-5.8
			c-0.7-0.7-1.4-1.4-2.3-1.9c-2.8-1.4-5-3.5-7.1-5.8c-2.1-2.4-4.7-4.4-7-6.6c-3.5-3.3-4.1-7.2-3-11.5c1.1-4.1,3.3-7.7,5.6-11.2
			c0.2-0.3,0.5-0.7,0.9-0.9c3.8-2.9,8-5.1,12.7-6.2c3.2-0.8,6.1-0.1,8.6,2.2c1,1,2,2,2.8,3.1c2.1,2.8,4.3,5.5,6.7,8
			c2.1,2.3,4,4.7,5.9,7.1c1.3,1.6,2.5,3.4,3.9,5c1.3,1.6,2.9,2.6,5.1,1.7c3-1.1,6.3-1.1,9.5-1.6c1-0.2,2.2,0.2,3.3,0.3
			c1.2,0.2,2.4-0.6,3.7-0.1c1.2,0.4,2.5,0.3,3.8,0.3c3,0,5.8,0.8,8.7,1.1c1.7,0.2,3.4,0.3,4.9,0.8c6.4,2,12.8,4.1,18.6,7.7
			c3.7,2.3,6.9,5.2,9.2,9c0.4,0.7,0.8,1.5,1.3,2.2c1.6,2.1,2.9,2.1,4.8,0.2c0.6-0.6,1.2-1.2,1.6-2c1.3-2.7,3.5-4.6,5.9-6.4
			c4.6-3.5,9.5-6.5,15.1-8.1c3.1-0.9,6.1-2,9.2-3c4-1.4,8.1-2,12.3-1c0.8,0.2,1.7,0.2,2.5,0.2c1.3,0,2.5,0,3.8,0
			c4-0.1,7.8,0.2,11.6,1.6c2.4,0.8,4.1-0.1,5.5-1.8c0.4-0.4,0.6-0.9,0.9-1.4c2.7-4.1,5.9-7.8,9.2-11.4c1.9-2.1,3.5-4.3,5.3-6.5
			c1.3-1.5,2.5-3,3.9-4.4c3.3-3,7-3.9,11.2-2c2.3,1,4.7,1.9,7,2.8c3,1.1,5.4,2.9,7,5.7c0.6,1.1,1.4,2.1,2.1,3.1
			c2.1,3.1,2.5,6.8,3.1,9.9c-0.3,3.4-1,6.2-3.3,8.3c-2.8,2.5-5.4,5.3-8.4,7.5c-2,1.5-3.8,3.3-5.7,4.9c-1.5,1.3-3.1,2.4-4.6,3.7
			c-1.9,1.7-2.2,3.6-0.7,5.5c1.3,1.7,2.4,3.5,3.3,5.3s1.7,3.8,2,5.9c0.3,2,1,4.1,1.8,6c1.2,3.3,2.1,6.6,2.1,10.2
			c0,0.7,0,1.4,0.1,2.1c0.6,3.5,0,7-0.3,10.4c-0.3,3.6-0.8,7.2-1.7,10.7c-0.7,2.5-0.7,5-1.2,7.4c-0.4,2.2-1.1,4.3-1.9,6.4
			c-0.9,2.2-1.9,4.4-2.6,6.6c-1.7,5.1-4,9.9-7,14.3c-1.1,1.6-2.2,3.3-3.3,4.9c-2.6,3.8-5.4,7.5-9.4,10c-1.9,1.2-1.9,4.1-0.3,5.4
			c0.7,0.5,1.3,1,2,1.5c2.3,1.4,4.1,3.2,5.7,5.5c3.4,5,7.1,9.7,10.5,14.7c3.7,5.3,13.1,19.6,15.5,25.6
			C272.9,243.9,273.8,245.2,274.5,246.5L274.5,246.5z M270.7,64.5c1.6-1.2,2.4-2.7,2.3-5.5c-0.3-3.1-1.6-6.8-4.5-9.6
			c-3-2.8-6.7-4.5-10.7-5.4c-2.4-0.6-4.5,0.1-5.9,2.2c-1.7,2.6-3.7,4.9-5.7,7.2c-1.9,2.2-3.9,4.4-5.7,6.7c-1,1.3-2,2.6-3.5,3.5
			c-1.2,0.7-2.1,1.9-2.6,3.2c-0.4,1.1,0,2.4,1,2.9c0.6,0.3,1.3,0.6,2,0.7c4.6,1,8,3.8,10.8,7.5c0.4,0.6,0.7,1.2,1.2,1.7
			c2.1,1.8,3.3,1.8,5.1,0c0.5-0.5,0.9-1.1,1.4-1.5c3.2-3.1,5.8-6.7,9.5-9.4C267.2,67.4,268.9,65.9,270.7,64.5L270.7,64.5z
			 M272.7,265.6c0.1-0.5,0.1-1.1,0.2-1.7c-0.1-0.7-0.1-1.4-0.2-2.1c-0.6-2.7-1.1-5.4-2.3-8c-1.8-4.1-7.5-15.5-10.8-21.3
			c-2.7-4.7-5.8-9.4-9.1-13.8c-4.5-6.1-9-12.1-13.5-18.2c-0.4-0.6-0.9-1-1.4-1.5c-1.3-1.2-2.7-1.4-4.2-0.6c-1.7,0.8-3,2-3.2,4.1
			c-0.2,1.8-1.1,3.1-2.9,3.7c-1.6,0.5-2.6,1.5-3.1,3.1c-0.5,1.4-1.5,2.3-3.2,2.1c-0.8-0.1-1.8,0-2.4,0.3c-3.2,1.7-3.5,6.3-1.3,8.3
			c0.9,0.8,1.9,1.7,2.6,2.7c0.8,1.2,1.8,2,3.2,2.5c1.3,0.4,2,1.4,2.4,2.7c1,3.1,1.1,3.1,4,4.9c1.5,1,3.1,1.8,4.9,2.3
			c0.8,0.2,1.4,0.8,1.7,1.7c0.3,0.9,0.6,1.9,1.1,2.7c0.9,1.6,2.4,2.1,4.2,1.5c0.5-0.2,1-0.4,1.6-0.6c1-0.3,2.4,0.6,2.4,1.7
			c0,0.8,0,1.7-0.3,2.4c-0.5,1.1,0,1.9,0.6,2.7c0.4,0.5,1,1,1.6,1.4c2,1.1,3.8,2.3,5,4.3c3.1,2.4,12.7,13.4,15.8,15.8
			c0.1,0.1,0.2,0.1,0.4,0.2C269.4,270.2,272.2,268.8,272.7,265.6L272.7,265.6z M259.2,123c0.7-0.1,1-0.8,0.9-1.6
			c-0.1-1-0.7-1.7-1.6-1.6c-0.9,0.1-1.6,0.9-1.5,1.7C257.2,122.5,258.2,123.2,259.2,123L259.2,123z M258.6,113
			c0.2-0.7-0.3-1.5-1-1.5c-0.6,0-1.4,0.6-1.5,1.2c-0.1,0.6,0.5,1.5,1.1,1.6C257.7,114.3,258.4,113.7,258.6,113L258.6,113z
			 M256,144.4c0.7-0.3,1.1-1.4,0.9-2.5c-0.1-0.4-0.2-0.8-0.4-1.2c-0.7-1.4-0.6-2.7,0.2-4c0.3-0.6,0.5-1.3,0.9-2
			c-0.3-0.3-0.6-0.6-0.9-0.7c-0.4-0.1-0.9-0.2-1.2,0c-1.6,0.8-3.2,1.6-4.8,2.4c-0.5,0.3-0.9,0.7-1.2,1.1c-0.6,0.9-0.4,2.4,0.4,3
			c1.3,1,2.5,2.1,3.9,3.1C254.5,144.1,255.1,144.8,256,144.4L256,144.4z M254.2,152.6c0.7-1.7-0.8-4.8-2.5-5
			c-0.9-0.1-2.2,1.2-2.2,2.1c0,1.2,1.4,3.1,2.5,3.6C252.8,153.6,253.9,153.2,254.2,152.6L254.2,152.6z M253.9,98
			c0.3-0.6,0.1-1-0.1-1.6c-0.4-0.9-1-1.2-2-1.3c-2-0.1-3.4,0.9-4.5,2.6c-0.3,0.5-0.4,1-0.1,1.6c0.5,0.9,1.2,1.8,2.2,1.6
			C251.3,100.5,253,99.8,253.9,98L253.9,98z M251.6,125.5c0.7-0.2,1.4-1.1,1.2-2c-0.3-0.9-0.6-1.9-1-2.7c-0.8-1.5-0.8-2.9,0-4.4
			c0.3-0.5,0.6-1,0.8-1.5c0.7-1.4-0.2-2.8-1.8-3c-1.1-0.1-2,0.2-2.6,1.1c-0.8,1.4-1.9,2.4-3.4,3c-1.7,0.6-2.7,1.9-3.7,3.3
			c-0.6,0.9-1.3,1.8-2,2.7c-0.9,1.1-2.2,1.5-3.4,0.8c-1.6-0.9-3.2-0.8-4.9-0.6c-0.9,0.1-1.6,0.4-2,1.3c-0.3,0.6-0.6,1.3-1,1.8
			c-0.7,0.8-2,1.1-3.1,0.6c-0.8-0.4-1.4-0.9-1.5-1.8c-0.1-1.1,0.6-2.2,1.7-2.6c0.7-0.3,1.4-0.4,2-0.6c0.7-0.3,1.2-0.7,1.3-1.5
			c0.1-0.7,0.2-1.4,0.5-2c0.3-0.7,0.9-1.1,1.6-1.1c0.7,0,1.4,0.1,2,0.3c0.8,0.3,1.5,0.7,2.2,1.1c0.8,0.4,1.6,0.3,2.4-0.2
			c0.6-0.4,1.2-0.7,1.7-1.3c1.1-1.4,2.2-2.9,3.2-4.4c0.4-0.7,0.8-1.5,0.8-2.3c0.1-1.2,0.6-2.1,1.5-2.9c0.5-0.4,1.1-0.9,1.6-1.4
			c0.6-0.6,0.3-1.9-0.5-2.6c-0.7-0.6-1.6-0.5-2.2,0.3c-0.2,0.2-0.4,0.4-0.5,0.7c-0.6,1.7-1.7,2.8-3.4,3.4c-0.8,0.3-1.4,0.9-1.7,1.7
			c-0.3,0.7-0.5,1.3-0.8,1.9c-0.7,1.4-2.2,2-3.9,1.8c-1.4-0.2-2.8-0.3-4.1-0.4c-0.5-0.1-1.2,0-1.6-0.3c-0.4-0.2-0.8-0.8-0.9-1.3
			c-0.1-0.3,0.2-0.8,0.4-1.1c0.4-0.3,0.9-0.6,1.4-0.8c1.7-0.6,3.4-1.2,5.2-1.6c1-0.3,1.9-0.9,2.2-1.8c0.6-2,1.7-3.4,3.3-4.7
			c0.4-0.3,0.7-0.9,0.8-1.4c0.1-1.5,1.1-2.2,2.2-2.9c0.6-0.4,1.1-0.8,1.6-1.3c0.2-0.3,0.2-0.8,0.1-1.2c-0.4-1.1-2-1.6-2.8-0.8
			c-0.5,0.5-0.8,1.1-1.2,1.7c-1.6,2.4-4.7,2.3-6.1-0.2c-0.2-0.4-0.2-1.2,0-1.5c0.5-0.8,1.3-1.5,1.9-2.2c0.4-0.4,0.3-1.6,0-2
			c-0.6-0.6-1.2-1.2-1.8-1.7c-1-0.9-1.4-2-1-3.4c0.6-1.9,1-3.8,2-5.5c0.3-0.6-0.3-1.8-1.1-2c-0.4-0.1-0.9-0.2-1.2-0.1
			c-1.6,0.6-2.7-0.1-3.7-1.2c-0.3-0.4-0.6-0.9-0.9-1.4c-0.5-0.7-1.3-1.1-2.2-1.1c-0.8,0-1.7,0-2.5,0.1c-1.4,0.2-2.8,0-4.1-0.7
			c-1.9-1.1-4-1.2-6.1-1c-1.4,0.2-2.8,0.3-4.1-0.3c-1.6-0.8-3-0.3-4.2,0.9c-0.2,0.2-0.4,0.4-0.6,0.6c-1.4,1-2.3,1-3.8,0
			c-0.1-0.1-0.2-0.2-0.3-0.3c-1.6-1.2-3.4-1.3-5.1-0.5c-1.4,0.6-1,2.1-1.1,3.4c-0.1,1.4-1.4,2.2-2.7,1.7c-1.3-0.5-2.6-1.1-3.9-1.6
			c-2.4-0.8-4.6-0.5-6,2.3c-0.3,0.6-0.6,1.3-0.8,1.9c-0.6,1.5-1.7,2.2-3.2,2.1c-0.4,0-0.8-0.1-1.3-0.1c-2-0.1-3.5,0.7-4.6,2.3
			c-1.2,1.7-2.5,3.4-3.7,5.1c-0.7,1-1.5,2-2,3.2c-0.9,2-2.1,3.6-4.3,4.4c-1.3,0.5-2,1.5-2,2.9c0,1.7-1,2.5-2.4,2.9
			c-0.5,0.2-1.1,0.3-1.6,0.4c-1,0.3-1.6,1.1-1.6,2.2c0,1,0,2-0.1,2.9c-0.1,1.2-1.6,1.7-2.6,1c-0.8-0.6-1.4-1.3-1.8-2.2
			c-0.5-1.1-1.2-2.2-1.9-3.2c-1.8-2.5-1.8-2.6,0.9-3.8c1-0.5,2-0.9,3-1.5c1.5-0.8,2.8-1.8,3.9-3.2c0.5-0.7,0.3-1.7-0.5-2.2
			c-0.9-0.5-1.7-0.9-2.8-0.5c-1,0.3-2.2,0.5-3.3,0.6c-1,0.1-1.9-0.6-2.2-1.6c0-0.1-0.1-0.3-0.1-0.4c-0.2-1.5-0.5-3-0.7-4.5
			c0.8-1,1.6-2,2.4-2.9c0.5-0.6,0.7-1.3,0.5-1.9c-0.3-0.8-0.9-1.4-1.8-1.5c-0.8-0.1-1.7-0.1-2.5-0.1c-1.7,0.1-3-0.6-3.8-2.1
			c-0.8-1.4-2-2.3-3.5-2.7c-0.9-0.3-1.9-0.6-2.8-1c-1.9-0.9-3.9-1.5-6-1.8c-1.5-0.2-3.1-0.4-4.5-0.9c-1.8-0.6-3.6-0.4-5.4-0.6
			c-1.9-0.2-3.8-0.8-5.8-1s-3.9,0-5.9,0c-2,0-3.9,0-5.9,0c-0.6,0-1.1,0.1-1.6,0.3c-0.3,0.1-0.7,0.6-0.7,0.9c-0.3,1.5,0,2.8,1.3,3.7
			c0.6,0.4,1.2,0.8,1.7,1.2c3.3,2.7,6.1,5.8,8.4,9.3c1.5,2.3,1.6,4.7,0.8,7.2c-1.3,4.1-4.1,7.4-7.2,10.1c-2.6,2.3-5.8,3.8-9.5,4.2
			c-2,0.3-3.9,0.1-5.6-1.1c-1.4-0.9-2.8-1.9-3.9-3.1c-3.6-3.9-7.9-7.1-11.1-11.4c-0.2-0.2-0.4-0.4-0.6-0.6c-1.3-1.2-3.4-1-4.4,0.5
			c-0.5,0.7-0.8,1.5-1.1,2.2c-1.4,3.5-2.8,7-4.3,10.5c-1.5,3.6-3.5,7-3.3,11.1c0,0.1,0,0.3-0.1,0.4c-1.6,6.3-0.3,12.5,0.4,18.7
			c1.5,3.2,1.8,6.7,2.8,10c1.2,3.6,2.1,7.2,3.7,10.7c2.5,5.5,5.3,10.8,8.4,16c1.6,2.7,3.5,5.3,5.2,8.1c0.3,0.5,0.6,1,1,1.3
			c2,1.8,3.6,4,4.9,6.3c1.4,2.3,3.4,3.2,6,3.2c1.5,0,3.1-0.2,4.6,0.5c0.4,0.2,1.1,0.1,1.6,0c2.5-0.6,4.7-1.8,6.2-4
			c1-1.4,1.8-2.8,2.9-4.1c1.2-1.7,2.8-2.5,5-2.5c1.7,0,3.3,0.5,4.9,1c1,0.3,1.7,1,2.2,1.9c0.3,0.6,0.7,1.3,0.8,1.9
			c0.6,2.7,2.4,4.1,4.9,4.5c1.3,0.2,2.4,0.7,3,1.9c0.4,0.7,1.1,1.3,1.7,1.9c2.2,2.4,4.3,4.7,4.9,8.1c0.3,1.4,1.5,1.9,3,1.4
			c1-0.3,2.2-1.2,3.1-0.3c1.2,1.2-0.1,2.3-0.4,3.4c0,0.1-0.1,0.2-0.2,0.4c-0.5,1.1,0.5,2.6,1.8,2.6c0.5,0,1.1-0.1,1.6-0.3
			c1.6-0.5,3-1.5,4.3-2.6c1.2-1,2.7-0.8,3.8,0.2c0.7,0.7,1.4,1.4,2,2.1c1,1.1,2,1.6,3.7,0.9c1.6-0.7,3,0.3,3.4,2
			c0.2,0.8,0.3,1.6,0.7,2.4c0.5,1.3,2,1.7,3,0.7c0.5-0.4,1-1,1.3-1.6c0.7-1.2,1.2-2.5,1.9-3.7c0.5-0.8,1.1-1.6,1.8-2.3
			c0.3-0.3,1.2-0.4,1.5-0.2c1.9,1.2,2,3.4,0.3,4.9c-0.6,0.6-1.3,1.1-1.8,1.8c-0.7,0.8-0.7,2.2,0,3.1c0.3,0.4,0.7,0.8,1.2,1.2
			c1.1,0.8,2.3,0.8,3.5,0c1-0.7,1.5-1.6,1-2.9c-0.3-0.6-0.2-1.4-0.3-2.1c0-0.9,0.6-1.7,1.4-1.9c1.7-0.3,3.4-0.3,4.8,0.7
			c0.6,0.4,1,1,1.6,1.3c1.7,1,3.5,0.2,3.9-1.7c0.4-2.1,0.5-4.2-0.9-6c-0.6-0.7-0.8-1.4-0.8-2.3c0-0.6,0-1.1,0-1.7
			c-0.1-2.6-0.7-5-3.1-6.5c-0.2-0.1-0.6-0.4-0.6-0.6c0-0.3,0-0.9,0.3-1c0.4-0.3,1.1-0.8,1.5-0.7c1.8,0.6,4,0.3,5,2.6
			c0.2,0.5,0.7,0.8,1.1,1.2c1.1,1.1,2.5,1.8,4,2.3c1.1,0.4,2.3-0.7,2.2-1.9c0-0.3,0-0.6-0.2-0.8c-1-1.5-0.5-2.8,0.6-3.8
			c2.2-1.9,2.6-4.6,3.7-7c0.4-0.8,0-2-0.6-2.3c-0.8-0.4-1.7-0.3-2.4,0.2c-0.7,0.5-1.3,1.1-1.8,1.7c-0.5,0.5-0.8,1.2-1.3,1.7
			c-0.9,1-2.7,0.7-3.2-0.5c-0.3-0.8-0.6-1.6-0.8-2.4c-0.3-1.4,0.1-2.1,1.3-2.7c0.5-0.2,1-0.5,1.6-0.6c1.6-0.4,3.6-0.2,4.7-1.5
			c1.1-1.3,1.7-3.2,2.3-4.9c0.2-0.6,0.1-1.4,0-2c-0.2-0.7-0.6-1.3-1-1.8c-1.1-1.7-1.3-3.6-1.4-5.6c0-2,2.1-4.1,4.7-3.4
			c1.4,0.3,2.2,1.8,1.6,3.2c-0.3,0.8-0.7,1.5-1,2.3c-0.4,1.1-0.2,2.2,0.7,3.1c0.9,0.9,1.8,1.7,2.7,2.6c0.4,0.4,0.5,0.9,0.2,1.5
			c-0.6,1.1-1.3,2.2-1.7,3.3c-0.4,1.2-0.7,2.4-0.8,3.6c-0.3,1.9-2,3.5-0.6,5.6c0,0.1,0,0.2,0,0.3c-0.1,0.3-0.4,0.8-0.6,1.2
			c-0.8,1.3-1,2.6,0,3.9c0.3,0.4,0.5,1,0.7,1.5c0.4,0.9,0.2,1.5-0.7,2.2c-1.3,1-2.7,2-3.4,3.6c-0.8,1.8-2.1,2.9-4,3.4
			c-0.7,0.2-1.3,0.5-1.9,0.9c-0.8,0.6-1.6,1.3-1.5,2.4c0.2,2-0.5,3.9-1.2,5.7c-0.5,1.2-0.4,2.1,0.2,3.2c1.1,2.1,2.4,4.1,2.8,6.5
			c0,0.1,0.1,0.2,0.2,0.4c0.4,0.6,1.5,1,2.2,0.8c0.8-0.2,1.5-1.1,1.4-1.9c-0.1-0.5-0.2-1.1-0.4-1.6c-0.3-1.1-0.9-2.1-1-3.2
			c-0.1-1.7-0.2-3.3-0.8-4.9c-0.2-0.4-0.1-1.2,0.2-1.6c1.5-1.8,2.9-3.8,4.7-5.3c1.6-1.4,3.3-2.5,4.5-4.3c0.6-0.9,1.6-1.5,2.8-1.7
			c1.6-0.2,3,0.2,3.3,1.2c0.4,1.3-0.4,2.1-1.2,2.9c-0.7,0.7-1.5,1.2-2.2,1.9c-0.7,0.7-0.8,2.1-0.3,2.7c0.6,0.8,1.6,1.2,2.6,1.1
			c0.7-0.1,1.4-0.4,1.9-0.8c0.8-0.5,1.6-1.2,2.2-1.9c1.4-2,3-3.3,5.6-2.9c0.1,0,0.3,0,0.4,0c0.9-0.2,1.6-1.3,1.5-2.2
			c-0.4-2.2-2.5-3.4-4.4-2.3c-0.6,0.3-1.2,0.8-1.7,1.2c-0.8,0.6-1.5,0.3-2.3,0c-1-0.5-1.5-1.2-1.6-2.3c0-0.8,0-1.7,0-2.5
			c0-2-0.9-3.2-2.8-3.6c-1.6-0.3-2.7-1.3-3.7-2.6c-0.2-0.3-0.3-0.7-0.3-1c0.1-0.5,0.3-0.9,0.8-1.1c0.5-0.2,1.1-0.3,1.6-0.4
			c0.7-0.1,1.4,0.1,2.1,0c1.4-0.1,2.3-1.1,2.2-2.5c0-2.7-0.1-5.3-0.2-8c0-1.3,0.5-2.2,1.6-2.7c0.6-0.3,1.2-0.7,1.9-0.8
			c0.5-0.1,1.1,0.1,1.5,0.3c0.8,0.4,1.1,1.3,0.9,2.2c-0.2,1-0.6,1.8-0.8,2.8c-0.2,0.7,0.1,1.4,0.7,1.9c0.7,0.5,1.4,0.9,2.3,0.5
			c1.3-0.5,2.2-1.3,2.2-2.8c0-1.3,0.2-2.5,1.1-3.5c0.8-0.9,0.9-2.1,0.3-3.1c-1-1.6-0.5-2.9,0.3-4.3c0.1-0.2,0.3-0.5,0.3-0.8l3.4,0.1
			l-0.1,0.2c-0.1,0.3,0,0.8,0.2,1.2c0.6,1.4,2,1.9,3.3,2.4c1.5,0.7,3.5-0.7,3.7-2.4c-0.1-0.4-0.2-0.8-0.3-1.2l3.1-0.2
			c0.3,0.7,0.5,1.3,0.9,1.9c0.5,0.9,1.4,1.5,2.4,1.4c2.1-0.3,3.8,0.4,5.4,1.7c0.4,0.3,1,0.5,1.5,0.7c1.1,0.3,1.9-0.3,2.6-1
			c0.7-0.7,0.6-1.5,0.2-2.3c-0.9-2.2-2-2.8-4.2-2.4c-0.5,0.1-1,0.4-1.6,0.6c-0.3,0.1-0.7,0.1-0.8,0c-0.7-0.6-1.4-1.3-2-2
			c-0.1-0.2,0.1-0.8,0.3-1.1c0.7-1,1.7-1.4,2.8-1.7c1.2-0.3,2.1-1.1,2.3-2.2c0.3-1.7,1.2-2.7,2.5-3.7c1.2-1,1.2-1.6,0.6-2.9
			c-0.4-1-1.1-1.9-1.2-3.1c-0.1-1.8-0.7-3.6-2.1-4.9c-1.6-1.4-3.5-1.7-5.5-1.6c-1.9,0.1-3.2-0.9-4.2-2.4c-0.3-0.4-0.5-1-0.7-1.5
			c-0.2-0.9-0.8-1.4-1.6-1.8c-0.5-0.3-1-0.5-1.5-0.8c-1.5-1-1.8-2.9-0.7-4.4c0.5-0.7,1.3-1.1,2.2-1.1c1,0.1,1.5,0.6,1.8,1.5
			c0.1,0.4,0.4,0.8,0.5,1.2c0.2,1.9,1.5,2.9,3.1,3.7c2.6,1.3,5.4,1.5,8.2,1.1c1.5-0.2,2.9-1,3.7-2.5c0.8-1.5,0.6-3.5-0.5-4.2
			c-1-0.7-2.7-0.6-3.9,0.3c-0.6,0.4-1,1-1.6,1.4c-0.4,0.3-0.9,0.6-1.4,0.8c-0.8,0.4-2.3-0.2-2.9-1.1c-0.5-0.7-0.2-2.2,0.7-2.6
			c2.6-1.1,4.3-2.9,5.5-5.4c0.5-1.1,2.6-1,3.3,0.1c0.5,0.8,0.9,1.7,1.4,2.6C249.9,125.5,250.6,125.8,251.6,125.5L251.6,125.5z
			 M252.4,107.7c0.9-1.4-0.1-3.2-1.8-3.3c-1.2,0-2.5,0.6-2.8,1.4c-0.4,1,0,2.4,0.8,3c1.1,0.8,2.1,0.7,3-0.1
			C251.8,108.4,252.1,108,252.4,107.7z M240.8,86c1.7,0,2.9-1.2,2.7-2.9c-0.1-1.4-1.4-2.4-2.9-2.3c-1,0.1-2.1,1.5-2.1,2.7
			C238.6,84.8,239.7,86,240.8,86L240.8,86z M241.2,177.7c0.8-0.4,0.8-2.1,0-2.6c-0.4-0.3-1-0.6-1.5-0.7c-1.9-0.5-3.7-1.4-5.1-2.7
			c-1.4-1.3-3.2-1.7-5.1-1.7c-1,0.1-2.1,0-3.1,0.8c-0.5,0.4-0.6,1-0.1,1.3c1.8,1.3,3.6,2.6,5.4,3.9c1.7,1.3,1.9,2.9,0.8,4.7
			c-0.2,0.3-0.5,0.7-0.7,1c-0.3,0.6,0,1.7,0.5,1.8c0.5,0,1.1-0.2,1.5-0.4c0.2-0.1,0.4-0.4,0.5-0.7c0.6-1.7,1.9-2.7,3.5-3.3
			C239,178.8,240.1,178.3,241.2,177.7L241.2,177.7z M226.9,186.8c0.7-0.7,0.5-1.6,0.2-2.4c-0.7-1.5-1.4-3-1.2-4.8
			c0.1-1.4-0.9-2.3-1.7-3.2c-0.1-0.2-0.5-0.2-0.9-0.3c-0.3,0.1-0.7,0.2-1,0.4c-0.8,0.6-1.3,1.4-1.4,2.5c0,1-0.1,2-0.2,2.9
			c-0.2,2.5,1,4.2,3.2,5.3C224.9,187.8,226.1,187.7,226.9,186.8L226.9,186.8z M224.1,193.9c0.1-1.2-0.5-1.9-1.6-2
			c-1.3-0.1-2.1,0.6-2.2,2c-0.1,0.9,0.8,1.7,1.9,1.7C223.4,195.7,224.1,195.1,224.1,193.9L224.1,193.9z M217.4,186.8
			c0.1-2-1-3.5-2.7-4c-1.3-0.4-2.8,0.3-3,1.5c-0.2,1.2-0.4,2.5-0.2,3.7c0.3,1.5,2,2.8,3.8,1.9C216.9,189.1,217.3,188,217.4,186.8
			L217.4,186.8z M204.1,212.5c0.6-0.8,0.6-1.4-0.2-2.2c-0.6-0.6-1.1-1.2-1.8-1.7s-1.5-0.5-1.9-0.7c-1.6,0-2.4,1.3-2,2.3
			c0.7,1.6,1.8,2.8,3.5,3.3C202.6,213.9,203.4,213.6,204.1,212.5L204.1,212.5z M185.2,226.2c0.6-0.2,1-0.5,0.9-1.2
			c0-0.5-0.6-0.9-1.5-0.8c-0.2,0.2-0.7,0.5-0.8,1C183.6,225.7,184.6,226.4,185.2,226.2z M182.7,218c0.2-0.7-0.4-1.8-1.1-2
			c-0.2-0.1-0.4-0.1-0.6-0.1c-4.5-0.6-6.8,4.4-5,6.8c0.7,1,1.3,2.1,1.9,3.2c0.4,0.6,1.2,0.9,1.8,0.7c0.7-0.2,1.2-0.7,1.4-1.4
			c0.1-0.3,0.2-0.6,0.1-0.8c-0.4-2,0.2-3.9,1.2-5.6C182.5,218.5,182.6,218.2,182.7,218L182.7,218z M178.1,232.3
			c0.3-0.3,0.3-0.7,0.4-1c-0.1-1.3-1.4-2.9-2.3-2.7c-1.3,0.2-2.4,0.7-3.1,1.9c-0.1,0.2-0.2,0.6-0.1,0.8c0.4,0.9,0.8,1.8,1.7,2.3
			c0.6,0.4,1.3,0.6,2,0.1C177.1,233.2,177.7,232.8,178.1,232.3L178.1,232.3z M171.1,237.6c0.1-1.5-0.7-2.5-2-2.6
			c-1-0.1-2,0.9-2.1,2.1c-0.1,1.3,0.8,2.3,2.3,2.3C170.4,239.3,171.1,238.7,171.1,237.6z M167,224.7c0.9-1.1,0.6-2.2-0.1-3.1
			c-1.1-1.4-2.4-2.7-3.6-4c-0.7-0.7-1.9-0.3-2.5,0.5c-0.5,0.6-0.6,1.3-0.5,2c0.2,1,0.4,1.9,0.7,2.8c0.6,1.5,1,2.9,0.1,4.4
			c-0.3,0.4-0.2,1.1-0.3,1.9c0.3,0.5,0.4,1.5,1,2c1.4,1.3,4,0.2,4.1-1.7C165.9,227.8,165.9,226.1,167,224.7L167,224.7z M161.7,239.3
			c0-1.6-0.9-2.6-2.4-2.7c-1.6-0.3-3.4,1.7-3.2,3.1c0.1,1,1.7,2.7,2.8,2.7C160.1,242.3,161.6,240.6,161.7,239.3L161.7,239.3z
			 M155.9,221.2c1-1.4,1.7-2.9,0.9-4.6c-0.6-1.5-1.3-3.1-2-4.6c-0.4-0.8-1-1.3-2-1.4c-1.6-0.1-3-0.5-4.3-1.3
			c-0.6-0.4-1.6-0.3-2.4-0.3c-1,0-1.3,0.9-1.7,1.6c-0.3,0.7,0.2,1,0.5,1.5c0.5,0.7,1.3,1,2.1,1.2c0.9,0.3,1.9,0.5,2.8,0.9
			c2.1,1,2.5,3.5,0.9,5.3c-0.7,0.8-1.4,1-2.6,0.7c-1.3-0.4-2.3-0.9-2.4-2.5c0-0.7-0.5-1.3-0.8-1.9c-0.4-0.9-1.2-1.1-2.1-1
			c-1.2,0-1.9,0.6-2.2,1.6c-0.2,0.7,0.1,1.6,0.6,1.8c0.8,0.3,1.5,0.6,2.3,0.9c1.2,0.4,1.5,1,1.2,2.2c-0.2,0.8-0.6,1.6-0.7,2.4
			c-0.2,0.9,0.1,1.6,0.9,2.2s1.6,0.6,2.4,0.1c0.5-0.3,1-0.6,1.3-1c0.4-0.5,0.7-1.2,1-1.8c0.7-1,1.5-1.7,2.8-1.1
			c0.2,0.1,0.5,0.1,0.8,0.2C154.4,222.3,155.3,222,155.9,221.2L155.9,221.2z M156,230.5c0.1-1.7-0.6-2.5-1.5-2.8
			c-1.1-0.3-2.2-0.3-3.2,0.5c-1.8,1.4-2.5,3.2-2.1,5.5c0.3,1.4,1.2,2.1,2.4,2.7c0.7,0.3,1.8-0.3,2.7-1.4
			C155.3,233.5,156.1,232.1,156,230.5L156,230.5z M143.5,233.3c1.3,0.2,2.5-0.8,2.3-2.5c-0.2-0.3-0.5-1-1-1.4
			c-1.1-0.8-2.8-0.4-3.7,0.7c-0.6,0.8,0.1,2.2,1.5,2.9C142.9,233.2,143.2,233.3,143.5,233.3L143.5,233.3z M138.8,220.2
			c0.1-0.2,0-0.6-0.1-0.8c-0.3-0.4-0.7-0.8-1.2-1.1c-2.1-1.6-2.1-1.6-0.7-3.5c0.3-0.4,0.8-0.8,1.1-1.3c0.6-0.9,0.5-2.3-0.3-3.1
			c-0.8-0.9-2.5-1-3.5-0.2c-1.3,1.1-2.5,2.2-3.7,3.4c-0.6,0.6-0.6,1.4-0.2,2.3c0.7,1.4,1.4,2.7,1.9,4.2c0.6,1.7,1.8,2.4,3.4,2.4
			C137.1,222.5,138.4,221.6,138.8,220.2L138.8,220.2z M131.5,206.9c0-0.1,0-0.3-0.1-0.8c0,0-0.3-0.3-0.7-0.4
			c-0.4-0.1-0.9-0.1-1.2,0.1c-1.2,1.2-2,2.6-2.1,4.3c0,0.3,0.4,0.7,0.8,0.9c0.1,0.1,0.5,0.1,0.7,0
			C130.3,209.9,131,208.5,131.5,206.9L131.5,206.9z M125.2,203c1.7-1.3,1.9-3.9-0.3-5.2c-0.6-0.3-1.2-0.7-1.8-1
			c-3.5-1.7-6.2-4.3-8.3-7.5c-0.5-0.8-1.1-1.7-1.7-2.4c-1-1.1-2.8-1.1-3.8-0.1c-0.6,0.6-1,1.3-1.5,2c-1,1.4-2,2.7-2.9,4.1
			c-2.2,3.2-5,4.1-8.8,3c-2-0.6-4.1-0.8-6.2-1.2c-3.1,0.1-6.1,0.8-8.4,3.2c-2.3,2.4-4.7,4.8-6.8,7.4c-6.6,8.3-13.2,16.6-19.8,24.9
			c-1.6,2-3.1,3.9-4.7,5.9c-1.8,2.3-3.6,4.7-5.3,7c-1,1.3-1.4,2.7-1.1,4.4c0.3,1.8,2.4,2.6,4,1.7c0.9-0.5,1.4-1.3,2-2.1
			c2.1-3.1,4.3-6.1,6.8-9c2.4-2.7,4.9-5.3,7.2-8.1c3-3.7,6.3-7.1,8.9-11.1c0.7-1,1.7-1.9,2.7-2.6c1.1-0.8,2.9-0.3,3.7,0.8
			c0.9,1.2,1,2.3,0,3.4c-0.3,0.4-0.8,0.8-1.2,1.2c-3.7,3.7-6.9,7.7-10.3,11.6c-2.7,3.2-5.5,6.3-8.4,9.4c-2.1,2.3-4.3,4.4-6.4,6.6
			c-0.7,0.8-1.4,1.7-1.9,2.7c-0.8,1.4-0.5,2.4,1,3.7c1,0.8,2.4,0.9,3.5,0.1c0.7-0.5,1.2-1.1,1.7-1.8c4.9-6.1,10.2-11.9,15.7-17.4
			c1.5-1.5,2.7-3.2,4.2-4.7c1.9-1.9,3.5-4,5-6.2c1-1.4,2.4-1.8,4.1-1.5c0.5,0.1,1,0.5,1.3,0.9c1.1,1.6,1,2.8-0.3,4.2
			c-3.3,3.4-6.6,6.8-9.8,10.3c-5.8,6.3-11.9,12.2-17.9,18.3c-0.3,0.3-0.7,0.6-0.9,0.9c-1.1,1.3-0.4,3.6,1.3,4.1
			c1.4,0.4,2.8,0.3,3.8-0.9c1.3-1.5,2.5-3,3.8-4.4c3.2-3.4,6.4-6.6,9.7-10c3.7-3.8,7.7-7.3,11-11.5c1-1.3,2.2-2.5,3.4-3.7
			c0.5-0.5,1.1-0.9,1.7-1.1c1-0.4,2.5,0.4,2.7,1.4c0.3,1.6,0.3,3.1-1.1,4.2c-0.3,0.3-0.6,0.6-0.9,0.9c-8.7,8.6-17.3,17.2-26,25.7
			c-0.5,0.5-1,1-1.5,1.5c-1.5,1.8-1,3.9,1.2,4.7c0.8,0.3,1.7,0.2,2.4-0.3c2-1.2,4-2.6,5.5-4.4c1.1-1.4,2.2-2.9,3.7-4
			c3.5-2.7,6.3-5.9,9.4-8.9c0.4-0.4,0.8-0.8,1.2-1.2c2.2-1.7,4.2-3.7,6-5.8c1.5-1.7,3-3.3,5.1-4.4c0.8-0.4,1.7-1.1,2.2-1.8
			c2.5-3.1,5.7-5.3,8.7-7.8c2.1-1.7,3.7-3.8,5.1-6.1c0.5-0.8,0.8-1.8,0.9-2.8c0.2-2.8,0.1-5.5-1.2-8.2c-1.2-2.5-0.7-3.8,1.3-5.6
			c0.6-0.6,1.3-1,2-1.5C121.8,205.5,123.5,204.2,125.2,203L125.2,203z M102.9,90.2c0.3-2-0.3-3.6-1.8-4.9c-2.1-1.7-3.7-3.7-5.4-5.8
			c-2-2.5-4.1-5-5.8-7.7c-0.7-1-1.6-1.9-2.5-2.8c-2.8-3.1-5.7-6.1-8.4-9.4c-3.7-4.5-7.3-9.2-10.9-13.8c-1.1-1.5-2.6-2.2-4.4-2
			c-1,0.1-1.9,0.3-2.8,0.6c-0.9,0.3-1.8,0.8-2.7,1.1c-3.5,1.3-6,3.6-7.5,7c-0.8,1.9-1.9,3.8-1.7,6.3c-0.4,1.8,0.5,3.5,2,4.9
			c0.6,0.6,1.3,1.1,1.9,1.6c5.3,4.2,10.3,8.7,14.8,13.6c3.1,3.3,6.6,6.1,10,9c3.1,2.7,6,5.4,8.6,8.5c1,1.3,2.5,2.2,3.9,3.1
			c0.9,0.6,2,0.7,3.2,0.2c4-1.6,6.5-4.7,9-7.9C102.7,91.3,102.8,90.7,102.9,90.2L102.9,90.2z"/>
		<path d="M242.8,148.8c0.7,0.8,0.4,2-0.7,2.3c-0.9,0.2-1.9,0.4-2.9,0.4c-1.2,0-1.8,0.7-2.1,1.7c-0.2,0.5-0.3,1.1-0.4,1.6
			c-0.2,1.3-0.8,2.4-1.8,3.2c-0.4,0.4-0.9,0.7-1.1,1.2c-0.3,0.5-0.5,1.1-0.3,1.6c0.2,0.7,0.4,1.3,0.7,2l-3.1,0.2
			c-0.2-0.6-0.6-1.2-1.1-1.7c-1.5-1.2-4.8-0.3-5.6,1.5l-3.4-0.1c0-0.4,0.1-0.8-0.1-1.1c-0.4-0.6-0.9-1.1-1.3-1.6
			c-1.4-1.9-2.8-3.8-4.2-5.7c-0.7-1-0.7-2.3,0.1-3.1c1.5-1.6,2.7-3.6,4.9-4.4c1.8-0.6,3.1-1.7,4.6-2.9c1.4-1,2.4-2.3,3.5-3.5
			c0.4-0.5,1.5-0.3,1.8,0.2c1,1.8,0.8,4.1-0.4,5.5c-2.3,2.6-4.8,4.6-8.5,4.9c-2.1,0.2-2.6,1.3-1.7,3.1c0.1,0.1,0.1,0.3,0.1,0.4
			c0.8,1.4,2.7,2.6,4.6,1.4c1.6-1,3.2-1.7,5.1-1.6c0.4,0,0.8-0.3,1.2-0.4c1.9-0.8,2.7-2.4,2.3-4.4c-0.2-1-0.4-1.9-0.6-2.9
			c0-0.4,0.1-0.8,0.3-1.2c0.9-1.5,2.3-2.5,4.2-2.2c0.5,0.1,1.2,0.4,1.3,0.8c0.7,1.8,2,3,3.6,3.9
			C242.2,148.1,242.5,148.5,242.8,148.8L242.8,148.8z"/>
		<path d="M242.3,233.8c0,1.2-1.7,2.8-3.1,2.7c-1.4,0-2.7-1.3-2.6-2.6c0.1-1.4,1.4-2.8,2.5-2.9C240.4,231,242.3,232.6,242.3,233.8
			L242.3,233.8z"/>
		<path d="M235.7,218.5c0.8,1.6-0.6,3.8-2.5,3.9c-0.3,0-0.5,0-1.1,0c-1.5-0.9-3.2-0.2-4.9,0.1c-1.3,0.2-2.4,0-3.2-1.3
			c-0.7-1.1,0-2.7,1.3-2.8c0.4,0,0.8-0.2,1.2-0.1c1.9,0.3,3.5-0.2,5.1-1.2C233.2,216,234.9,216.8,235.7,218.5L235.7,218.5z"/>
		<path d="M230.9,226.5c1.4,0,2.4,1,2.3,2.3c-0.1,0.9-1.2,1.8-2.4,1.8c-1,0-1.8-1.1-1.8-2.3C229.1,227.2,229.8,226.5,230.9,226.5
			L230.9,226.5z"/>
		<path d="M230.4,210.9c0.1,0.3,0.1,0.8,0,1.1c-0.1,0.4-0.4,0.7-0.7,1c-1,1-1.6,1.1-2.5,0.6c-1.1-0.7-1.5-1.5-1.3-2.3
			c0.3-1.1,1.2-1.6,2.7-1.6C229.4,209.6,230.1,210.1,230.4,210.9L230.4,210.9z"/>
		<path d="M228.4,85.2c1.1,0.3,1.9,1.4,1.6,2.5c-0.1,0.7-0.4,1.3-0.7,2c-0.6,1.3-1.4,2.5-1.7,3.8c-0.4,1.7-1.6,2.1-3,2.4
			c-1.2,0.2-2.5,0.4-3.7,0.6c-1.3,0.2-2.7-0.7-2.7-1.9c-0.1-1.3,0.9-2.6,2.2-2.6c1,0,1.9,0.3,2.8,0.5c1.2,0.2,2.2-1,1.7-2.2
			c-0.3-0.6-0.7-1.2-0.9-1.9c-0.2-0.5-0.8-1-0.3-1.5c0.4-0.5,0.9-1.1,1.4-1.5c0.6-0.3,1.3-0.3,1.9-0.5
			C227.6,85.1,228,85.1,228.4,85.2L228.4,85.2z"/>
		<path d="M228.8,98.2c1.3,1.5,1.6,3.2,1,5.1c-0.2,0.4-0.7,0.9-1.2,1.1c-0.5,0.2-1.1,0.2-1.6,0.3c-0.5-0.1-1.1-0.2-1.6-0.4
			c-0.7-0.3-1.2-0.7-1.3-1.5c-0.2-1.1-0.2-2.2,0.3-3.3c0.6-1.5,2.2-2.2,3.7-1.7C228.4,97.9,228.7,98,228.8,98.2L228.8,98.2z"/>
		<path d="M227.5,132.4c0.3,0.5,0.5,1,0.7,1.3c-0.4,1.5-0.7,2.9-2,3.7c-1.4,0.8-2.9,1.6-4.4,2.3c-0.9,0.4-2.4-0.4-2.6-1.4
			c-0.1-0.7-0.3-1.5,0-2c0.9-2.2,2.3-4.1,4.4-5.4c0.3-0.2,0.8-0.3,1.2-0.2C225.7,131,226.8,131.4,227.5,132.4L227.5,132.4z"/>
		<path d="M226.8,78.2c0.6,0.8,0.4,2.1-0.4,2.5c-1.9,1-3.9,1.4-6,0.4c-1.2-0.5-1.6-1.4-1.4-2.7c0.2-1,1-1.7,2.1-1.8
			c0.6-0.1,1.1-0.1,1.8-0.1c0.6,0,1.3,0.1,2,0.2C225.7,76.9,226.3,77.4,226.8,78.2L226.8,78.2z"/>
		<path d="M217.8,105.5c0,0.9-1,2.1-2,2.2c-1.1,0.1-1.8-0.8-1.8-2.2c0-1.1,0.6-1.8,1.7-1.9C216.7,103.5,217.7,104.4,217.8,105.5z"/>
		<path d="M215.8,162.3c0.3,0.9,0.1,2.1-0.7,2.6c-0.8,0.5-1.7,1-2.7,1.1c-1.4,0.2-2.8,0.1-4.1,0.6c-0.7,0.2-1.4-0.3-1.7-0.9
			c-0.2-0.5-0.3-1.2-0.1-1.6c1-1.5,2.1-2.9,3.4-4.2c0.4-0.4,1.3-0.5,1.6-0.6C213.9,159.3,215.1,160.3,215.8,162.3L215.8,162.3z"/>
		<path d="M215.7,86.2c0.4,0.1,0.7,0.7,0.9,0.9c0,2.7-1.4,4.4-3.2,5.8c-0.8,0.6-1.7,0.4-2.2-0.3c-0.2-0.3-0.5-0.8-0.4-1.1
			c0.6-2,1.9-3.7,3.4-5.2C214.5,86.1,215.3,86.1,215.7,86.2L215.7,86.2z"/>
		<path d="M213.2,136.2c0.1,1.9-2.1,2.9-3.5,2.1c-0.9-0.5-1.5-1.2-1.9-2.1c-0.3-0.7-0.3-1.3,0.1-1.9c0.8-1.3,2.1-2,3-1.7
			C212.5,133.3,213.2,134.5,213.2,136.2L213.2,136.2z"/>
		<path d="M211.5,111.2c0.1,1.5-1,2.7-2.4,2.8c-1.5,0.1-2.7-0.9-2.8-2.3c-0.1-1.7,1-3,2.6-3.1C210.5,108.6,211.5,109.5,211.5,111.2
			L211.5,111.2z"/>
		<path d="M210.7,154.1c0,1,0.1,2-1,2.6c-1.4,0.8-2.1,1-3.6,0.9c-1.7-0.1-2.8-1.7-2.2-3.3c0.8-2.2,3.4-3.3,5.5-2.3
			C210.2,152.5,210.7,153.2,210.7,154.1L210.7,154.1z"/>
		<path d="M207.6,146.8c0.2,0.1,0.3,0.5,0.3,0.7c-0.1,1.1-1.5,2.3-2.6,2.2c-1,0-1.8-1.2-1.5-2.1c0.3-1,1.1-1.7,2.1-1.7
			C206.4,145.9,207.1,146.5,207.6,146.8L207.6,146.8z"/>
		<path d="M207.3,80.2c0.1,2.1-0.8,3.3-2.3,4c-1.7,0.8-4.2-0.7-4.3-2.7c-0.1-2.2,2.9-4.4,5-3.7c0.5,0.2,0.9,0.7,1.1,1.1
			C207.2,79.4,207.2,79.9,207.3,80.2L207.3,80.2z"/>
		<path d="M203.9,96c0,1.2-1.1,2.3-2.4,2.4c-1.5,0.1-3.4-1.7-3.3-3.2c0.1-1.1,1.7-2.6,2.9-2.6C202.6,92.6,203.9,94.1,203.9,96z"/>
		<path d="M200.4,137.5c1-0.1,1.9,0.8,1.8,1.8c0,0.8-0.7,1.5-1.6,1.5c-1,0-1.7-0.5-1.9-1.3C198.6,138.5,199.4,137.6,200.4,137.5
			L200.4,137.5z"/>
		<path d="M189.1,168.4c1.5,0.1,2.5,1.7,1.8,3c-0.9,1.8-2.3,3.1-4.5,3.1h-1.3v0c-0.4,0-0.8,0-1.2,0c-1.5-0.1-2.3-1.7-1.6-3.1
			c1-1.9,2.9-2.5,4.7-2.9C187.7,168.3,188.4,168.4,189.1,168.4L189.1,168.4z"/>
		<path d="M181.5,183.8c0.2,0.2,0.3,0.7,0.2,1.1c0,0.3-0.2,0.5-0.4,0.7c-2,2.1-6.4,2.7-8.8,1.4c-0.3-0.2-0.6-0.5-0.9-0.8
			c-0.5-0.5-0.5-1.3,0-1.9c0.6-0.8,1.3-1.4,2.4-1.4c1,0,2,0,2.9,0v-0.1c1,0,1.9-0.1,2.9,0C180.4,183,181,183.4,181.5,183.8
			L181.5,183.8z"/>
		<path d="M179.6,201c1.1,1.2,0.8,2.5-0.4,3.7c-0.6,0.5-1.2,0.6-1.9,0.3c-1.1-0.5-1.9-1.2-2.4-2.2c-0.6-1.4-1.5-2.3-2.8-3
			c-1.2-0.7-1.2-1.8-1.1-2.9c0.1-1.6,1.8-3,3.9-2.9c0.3,0.2,0.8,0.6,1.4,1c0.2,0.2,0.3,0.4,0.4,0.7
			C177.2,197.6,178.1,199.4,179.6,201L179.6,201z"/>
		<path d="M173.7,172c1.3,0.6,2.3,2.3,2.2,3.8c0,1.2-2.1,2.4-3.2,1.8c-1-0.5-1.7-1.4-2.2-2.4c-0.4-1-0.3-1.9,0.5-2.7
			C171.7,171.8,172.9,171.6,173.7,172L173.7,172z"/>
		<path d="M167.7,193.8c0,1.1-0.1,2.2-0.2,3.8c0,0.4,0.1,1.2,0.1,2c0,1.3-0.5,2-1.8,2.5c-1.6,0.6-3.1,1.1-4.7,1.6
			c-3,0.8-5.5-0.4-7.6-2.3c-0.6-0.5-1.1-1.3-0.7-2.2c0.4-0.9,1.5-1.5,2.4-1.4c0.8,0.1,1.6,0.3,2.4,0.7c1.8,0.9,3.5,0.7,5.2-0.1
			c1.5-0.7,2-1.9,1.4-3.4c-0.3-0.7-0.6-1.3-0.9-1.9c-0.3-0.8,0.1-2.1,0.8-2.5c0.7-0.3,1.7-0.2,2.4,0.3
			C167.2,191.7,167.7,192.7,167.7,193.8z"/>
		<path d="M161,183.7c0.1,1.3-1.1,2.6-2.3,2.5c-1.4-0.1-2.8-1.2-2.9-2.5c-0.1-1.4,0.7-2.5,2-2.6C159.6,180.9,160.9,182,161,183.7
			L161,183.7z"/>
		<path d="M151.6,191.9c0,0.8,0,1.8-0.4,2.4c-1,1.4-2.2,2.6-3.3,3.8c-0.7,0.8-1.7,1-2.6,0.9c-1.6,0-2.4-1-2-2.5
			c0.1-0.5,0.3-1.1,0.7-1.5c1.2-1.4,2.3-2.8,3.2-4.4c0.6-1,1.8-1.4,2.9-1C151,190,151.6,190.8,151.6,191.9L151.6,191.9z"/>
		<path d="M146.6,109.9c0.9,1.1,1.1,2.8,0.3,3.9c-0.9,1.2-2.7,1.6-4.1,0.8c-1.8-1-2.4-2.4-1.7-4.2c0.4-1.2,1.2-1.8,2.5-1.8
			C144.8,108.6,145.8,108.9,146.6,109.9L146.6,109.9z"/>
		<path d="M136.1,188c2.2,0,3.7,1.5,3.7,3.5c-0.1,1.2-1.5,2.1-2.6,1.7c-1.4-0.6-2.3-1.5-2.7-2.9C134.1,189.3,135.1,188,136.1,188
			L136.1,188z"/>
	</g>
</g>
</svg>
