<?xml version="1.0" encoding="utf-8"?>
<!-- Generator: Adobe Illustrator 26.0.1, SVG Export Plug-In . SVG Version: 6.00 Build 0)  -->
<svg version="1.2" baseProfile="tiny-ps" id="Layer_1" xmlns="http://www.w3.org/2000/svg" xmlns:xlink="http://www.w3.org/1999/xlink"
	 viewBox="0 0 10779.1 10779.1"  xml:space="preserve">
	 <title>industowers</title>
<g>
	<rect x="2608" y="816.5" fill="#4F7C53" width="5409.8" height="6456.7"/>
	<g>
		<rect x="2671.1" y="7766.1" fill="#4F7C53" width="179.2" height="1137.1"/>
		<ellipse fill="#4F7C53" cx="2757.4" cy="7464.2" rx="146" ry="137.2"/>
		<rect x="2833.7" y="9066.9" fill="#777A83" width="125" height="776.5"/>
		<rect x="2614.7" y="9066.9" fill="#777A83" width="565.2" height="110.6"/>
		<rect x="5914.2" y="9039.3" fill="#777A83" width="107.3" height="771"/>
		<rect x="5914.2" y="9732.8" fill="#777A83" width="551.9" height="78.5"/>
		<rect x="5914.2" y="9389.9" fill="#777A83" width="551.9" height="80.7"/>
		<rect x="5914.2" y="9039.3" fill="#777A83" width="551.9" height="95.1"/>
		<rect x="6692.9" y="9039.3" fill="#777A83" width="92.9" height="771"/>
		<path fill="#777A83" d="M7050.1,9039.3h-358.4v439.1H7090c55.3,0,105.1-22.1,141.6-58.6c36.5-36.5,58.6-85.2,58.6-141.6
			C7291.3,9146.6,7184,9039.3,7050.1,9039.3z M7163,9368.9c-26.5,26.5-61.9,43.1-102.9,43.1h-275.4v-307.5h261
			c89.6,0,161.5,73,161.5,161.5C7206.1,9304.7,7189.5,9341.2,7163,9368.9z"/>
		<path fill="#777A83" d="M6871,9478.4c0,0,258.8,304.2,325.2,326.3c65.3,21,115,6.6,115,6.6l-308.6-331.8L6871,9478.4L6871,9478.4z
			"/>
		<polygon fill="#777A83" points="4508.3,9066.9 4637.7,9066.9 4802.5,9587.9 5093.4,9066.9 5372.2,9587.9 5559.1,9066.9 
			5684.1,9066.9 5420.9,9798.1 5366.7,9798.1 5095.7,9284.8 4839,9798.1 4764.9,9798.1 		"/>
		<path fill="#777A83" d="M3819.2,9030.4c-281,0-509.9,188-509.9,420.3s229,420.3,509.9,420.3s509.9-188,509.9-420.3
			S4100.2,9030.4,3819.2,9030.4z M3820.3,9764.9c-220.1,0-399.3-141.6-399.3-314.1c0-173.7,179.2-314.1,399.3-314.1
			c220.1,0,399.3,141.6,399.3,314.1S4040.4,9764.9,3820.3,9764.9z"/>
		<path fill="#4F7C53" d="M5559.1,7341.4v632.7c-108.4-152.6-287.6-253.3-488.9-253.3c-330.7,0-597.3,268.8-597.3,597.3
			c0,330.7,268.8,597.3,597.3,597.3c202.4,0,379.4-99.5,488.9-253.3v206.8h161.5V7340.3L5559.1,7341.4L5559.1,7341.4z
			 M5097.9,8769.4c-267.7,0-483.4-199.1-483.4-443.5c0-244.4,216.8-443.5,483.4-443.5c216.8,0,398.2,129.4,461.2,308.6v268.8
			C5497.2,8638.9,5313.6,8769.4,5097.9,8769.4z"/>
		<path fill="#4F7C53" d="M7092.2,7744v641.5c0,290.9-237.8,527.6-527.6,527.6c-294.2,0-534.2-237.8-534.2-534.2V7744h157.1v634.9
			c0,196.9,159.3,356.2,356.2,356.2h22.1c200.2,0,362.8-162.6,362.8-362.8V7744L7092.2,7744L7092.2,7744z"/>
		<path fill="#4F7C53" d="M4219.6,8235.1V8901h-161.5v-671.4c0-89.6-35.4-169.2-95.1-227.9c-59.7-58.6-139.4-95.1-229-95.1
			c-204.6,0-378.3,140.5-427,330.7V8901h-149.3V7766.1h149.3v210.2c89.6-134.9,243.3-225.6,417-225.6h8.8
			C4001.7,7750.7,4219.6,7967.5,4219.6,8235.1z"/>
		<path fill="#51785B" d="M7584.9,9169.7c0,0,0-1.1-1.1-2.2C7583.8,9167.5,7584.9,9168.6,7584.9,9169.7z"/>
		<path fill="#4F7C53" d="M7984.8,8604.6c-24.3,185.8-211.3,316.3-420.3,290.9c-111.7-14.4-206.8-70.8-267.7-149.3l113.9-111.7
			c34.3,47.6,96.2,84.1,167,92.9c122.8,15.5,232.3-53.1,244.4-152.6c12.2-96.2-68.6-185.8-183.6-205.7c-4.4-1.1-8.8-2.2-13.3-2.2
			c-83-15.5-156-54.2-211.3-106.2l0,0c-74.1-73-115-171.4-101.8-275.4c24.3-185.8,211.3-316.3,420.3-290.9
			c97.3,12.2,182.5,57.5,242.2,119.5l-110.6,108.4c-34.3-31-83-54.2-136.1-60.8c-122.8-15.5-232.3,53.1-244.4,152.6
			c-12.2,97.3,71.9,188,189.1,206.8c-3.3,0-5.5,0-5.5,0c56.4,7.7,104,27.7,142.7,50.9c3.3,2.2,6.6,3.3,8.8,5.5
			c4.4,3.3,8.8,5.5,12.2,8.8c8.8,6.6,16.6,11.1,24.3,17.7c3.3,3.3,6.6,5.5,8.8,8.8c3.3,3.3,7.7,5.5,8.8,8.8c3.3,3.3,6.6,6.6,8.8,8.8
			c1.1,1.1,1.1,1.1,1.1,1.1C7959.4,8402.1,7999.2,8500.6,7984.8,8604.6z"/>
		<path fill="#777A83" d="M7895.9,9638c-19.8,124.3-146.7,206.3-285.3,186.7c-75.4-11.9-137-50.6-175.6-105.2l78.3-72.2
			c22.7,32.8,61.9,57.5,110.7,64.3c81,12.9,155.4-30.5,165.2-98.2c8.8-63.2-42.1-124.2-118.7-140.5c-3.3-1-6.7-1-8.9-2
			c-55.5-11.1-102.5-39-138.6-76l0,0c-47.4-48.9-72.9-115.9-63.2-185.8c19.8-124.3,146.7-206.3,285.3-186.7
			c64.3,9.9,120.2,40.9,159.8,84.5l-76.2,70c-22.5-21.7-54.9-37.7-90.4-42.6c-81-12.9-155.4,30.5-165.2,98.2
			c-9.9,63.2,44.4,126.4,122.1,141.6c-3.3,0.1-3.3,0.1-3.3,0.1c37.7,5.9,69,20.9,93.6,37c2.2,1.1,4.5,3.2,6.7,4.3
			c2.3,2.2,5.6,4.3,7.8,5.4c6.7,5.4,11.2,8.6,15.7,11.9c2.3,2.2,4.5,4.3,6.7,5.4c2.3,2.2,4.5,4.3,6.7,5.4c2.3,2.2,4.5,4.3,6.8,6.5
			l1.1,1.1C7881.2,9502.2,7906.8,9569.2,7895.9,9638z"/>
	</g>
	<path fill="#ECF0FC" d="M4753.5,7130c0,0,325-1322.4,1577.9-1339.5c0,0-735.5-521.7-501.4-1034.9c0,0-296.1-106.9-250.2-431.9
		c0,0,49.2,558.1,595.5,341c546.3-217,271.5-472.5,1138.6-427.6c0,0,118.7-27.8,86.6-179.6c0,0-111.2-53.5-266.2-33.1
		c0,0,192.4-53.5,272.6-27.8c0,0,155-455.4-244.8-472.5c-399.8-16-813.6,60.9-1101.1,65.2c-287.6,4.3-620.1-144.3-888.4,70.6
		c0,0,414.8,82.3,163.6,570.9c-250.2,488.6,102.6,693.8,102.6,693.8s-411.6-41.7-398.8-460.8c12.8-418,526-768.7-217-867
		c0,0,74.8,53.5,49.2,98.4s-94.1-2.1-234.1,90.9c0,0,195.6,16,228.8,54.5c33.1,38.5,31,101.6,143.3,130.4
		c0,0-178.5,193.5-507.8,268.3c-329.3,74.8-605.1,257.6-753.7,570.9c0,0,462.9-268.3,671.4-143.3c0,0-19.2,163.6-336.8,315.4
		c-317.5,149.7-558.1,333.5-531.3,666c0,0,161.4-329.3,509.9-416.9s326.1-110.1,326.1-110.1s-474.7,809.3-787.9,864.9
		c0,0,512.1,127.2,588-271.5c0,0,21.4,650-607.2,953.6c0,0,677.8,226.6,780.4-374.2c0,0,234.1,184.9,161.4,526
		c0,0,179.6-135.8,173.2-402C4691.5,6418,4794.1,6812.5,4753.5,7130z"/>
	<path fill="#4F7C53" d="M5595.7,3804.1c0,0,160.4-128.3,334.6-52.4C5931.4,3751.7,5809.5,3882.1,5595.7,3804.1z"/>
	<g>
		<path fill="#4F7C53" d="M7126.6,3651.2c7.5,25.7,8.6,57.7,12.8,82.3c3.2,19.2,4.3,34.2,17.1,48.1c4.3,4.3,9.6,8.6,17.1,11.8
			c-15,8.6-36.3,3.2-48.1-8.6C7093.5,3746.3,7101,3688.6,7126.6,3651.2L7126.6,3651.2z"/>
	</g>
	<path fill="#ECF0FC" d="M5369.1,4906.3c0,0-363.5-65.2-264.1-488.6c98.4-423.4,245.9-490.7,100.5-647.9c0,0,296.1,77,94.1,435.1
		C5095.4,4564.2,5235.4,4809,5369.1,4906.3z"/>
	<g>
		<polygon fill="#ECF0FC" points="5332.3,3500 5438.1,1023 5754.6,3500 		"/>
		<g>
			<path fill="#4F7C53" d="M5273.5,3451c77-52.4,161.4-87.7,245.9-121.9c83.4-34.2,166.8-60.9,247-102.6
				C5699,3375.1,5429.6,3462.8,5273.5,3451L5273.5,3451z"/>
		</g>
		<g>
			<path fill="#4F7C53" d="M5248.9,3180.6c77-50.2,157.2-84.5,238.4-119.7c71.6-31,172.1-69.5,239.5-109
				C5658.4,3095,5399.6,3185.9,5248.9,3180.6L5248.9,3180.6z"/>
		</g>
		<g>
			<path fill="#4F7C53" d="M5220,2959.3c77-47,160.4-81.2,242.7-115.5c82.3-35.3,161.4-63.1,239.5-111.2
				C5633.8,2881.2,5374,2967.8,5220,2959.3L5220,2959.3z"/>
		</g>
		<g>
			<path fill="#4F7C53" d="M5310.9,2701.6c106.9-88.7,238.4-137.9,350.7-217C5628.4,2609.7,5433.8,2699.5,5310.9,2701.6
				L5310.9,2701.6z"/>
		</g>
		<g>
			<path fill="#4F7C53" d="M5297,2486.7c73.8-64.1,159.3-106.9,241.6-156.1c26.7-16,52.4-32.1,80.2-52.4
				c-6.4,34.2-26.7,64.1-50.2,89.8C5498,2438.6,5396.4,2484.6,5297,2486.7L5297,2486.7z"/>
		</g>
		<g>
			<path fill="#4F7C53" d="M5315.2,2276.1c69.5-67.4,149.7-113.3,229.9-167.8c25.7-17.1,50.2-34.2,77-57.7
				c-4.3,34.2-22.5,65.2-43.8,91.9C5513,2216.3,5413.5,2269.7,5315.2,2276.1L5315.2,2276.1z"/>
		</g>
		<g>
			<path fill="#4F7C53" d="M5287.4,2086.9c88.7-88.7,195.6-132.6,298.3-204.2C5570.7,2003.5,5400.7,2093.3,5287.4,2086.9
				L5287.4,2086.9z"/>
		</g>
		<g>
			<path fill="#4F7C53" d="M5250,1853.8c86.6-105.8,199.9-165.7,301.5-254.4C5545,1728.8,5369.7,1843.1,5250,1853.8L5250,1853.8z"/>
		</g>
	</g>
</g>
</svg>
