<?xml version="1.0" encoding="UTF-8" standalone="yes"?>
<svg width="600" height="600" version="1.2" viewBox="0 0 600 600" baseProfile="tiny-ps" xmlns="http://www.w3.org/2000/svg">
  <title>bimi-svg-tiny-12-ps</title>
  <rect x="-26.493" y="-16.31" width="658.14" height="649.77" fill="#fff"/>
  <g>
    <g transform="matrix(5.195 0 0 5.195 -1758.6 -1290.1)" fill="#7d3f98">
      <path class="cls-1" d="m377.35 270.06c-2.58 0-5.17 0.99-7.14 2.97l-14.3 14.3c-3.94 3.94-3.94 10.35 0.01 14.3l40.35 40.35 40.35-40.35c3.95-3.95 3.94-10.35 0-14.3l-14.29-14.29c-1.97-1.98-4.56-2.97-7.14-2.97s-5.19 1-7.17 2.99l-11.75 11.75-11.76-11.77c-1.97-1.98-4.57-2.97-7.16-2.97z"/>
      <path class="cls-1" d="m406.58 336.2h4.84v0.98h-1.84v4.95h-1.15v-4.95h-1.84v-0.98zm5.93 0h1.67l0.75 2.59c0.23 0.75 0.58 2.25 0.58 2.25h0.06s0.35-1.5 0.58-2.25l0.75-2.59h1.67v5.93h-1.04v-2.13c0-1.09 0.06-2.71 0.06-2.71h-0.06s-0.34 1.33-0.75 2.59l-0.69 2.25h-1.09l-0.69-2.25c-0.4-1.27-0.75-2.59-0.75-2.59h-0.06s0.06 1.61 0.06 2.71v2.13h-1.04v-5.93z"/>
    </g>
  </g>
</svg>