<?xml version="1.0" encoding="UTF-8" standalone="yes"?>
<svg width="600" height="600" version="1.2" viewBox="0 0 600 600" baseProfile="tiny-ps" xmlns="http://www.w3.org/2000/svg">
  <title>bimi-svg-tiny-12-ps</title>
  <defs>&#xD;
 </defs>
  <rect x="-97.227" y="-51.864" width="1102.6" height="835.27" fill="#fff"/>
  <g transform="matrix(5.195 0 0 5.195 -1758.6 -1290.1)" fill="#c00">
    <path class="cls-1" d="m377.35 270.06c-2.58 0-5.17 0.99-7.14 2.97l-14.3 14.3c-3.94 3.94-3.94 10.35 0.01 14.3l40.35 40.35 40.35-40.35c3.95-3.95 3.94-10.35 0-14.3l-14.29-14.29c-1.97-1.98-4.56-2.97-7.14-2.97s-5.19 1-7.17 2.99l-11.75 11.75-11.76-11.76c-1.97-1.98-4.57-2.97-7.16-2.97z"/>
    <path class="cls-1" d="m410.82 342.11c-2.3 0-3.94-1.72-3.94-4 0-2.41 1.82-4 3.94-4s3.91 1.59 3.91 4-1.82 4-3.91 4zm0-7.3c-1.73 0-3.08 1.36-3.08 3.3 0 1.82 1.18 3.3 3.08 3.3 1.71 0 3.06-1.35 3.06-3.3s-1.35-3.3-3.06-3.3zm-0.79 5.59h-0.73v-4.43h1.68c1.07 0 1.61 0.37 1.61 1.27 0 0.8-0.49 1.13-1.15 1.21l1.24 1.95h-0.82l-1.14-1.89h-0.68v1.89zm0.81-2.51c0.55 0 1.03-0.05 1.03-0.69 0-0.53-0.52-0.6-0.96-0.6h-0.88v1.29z"/>
  </g>
</svg>