<?xml version="1.0" encoding="UTF-8" standalone="yes"?>
<svg width="100" height="100" viewBox="0 0 100 100" fill="none" version="1.2" baseProfile="tiny-ps" xmlns="http://www.w3.org/2000/svg">
  <title>bimi-svg-tiny-12-ps</title>
  <rect width="100" height="100" fill="#5F43D0"/>
  <path d="M71.6576 72.0086H62.9839C61.3794 72.0084 59.7988 71.6194 58.3774 70.875C56.9561 70.1306 55.7362 69.053 54.8222 67.7342L49.3987 59.875L45.1444 53.7256C44.9458 53.4534 44.6669 53.2502 44.3469 53.1446C44.0269 53.039 43.6819 53.0363 43.3603 53.1368C43.0386 53.2374 42.7566 53.4361 42.5537 53.7052C42.3508 53.9742 42.2372 54.3001 42.229 54.6369V69.452C42.229 70.1301 41.9597 70.7803 41.4802 71.2598C41.0008 71.7392 40.3505 72.0086 39.6725 72.0086H32.1399C31.4618 72.0086 30.8116 71.7392 30.3321 71.2598C29.8527 70.7803 29.5833 70.1301 29.5833 69.452V58.4234C29.5833 55.7903 30.6293 53.2652 32.4911 51.4033C34.353 49.5415 36.8781 48.4956 39.5112 48.4956H41.4871C41.6135 48.4957 41.738 48.4649 41.8497 48.4059C41.9615 48.3468 42.0571 48.2613 42.1282 48.1568L49.3866 37.6967L54.6408 30.1117C55.555 28.7919 56.7753 27.7133 58.1974 26.9682C59.6195 26.2231 61.201 25.8337 62.8065 25.8333H71.4681C71.6082 25.8351 71.7452 25.8745 71.8649 25.9473C71.9846 26.0202 72.0825 26.1238 72.1484 26.2474C72.2143 26.3711 72.2458 26.5101 72.2397 26.65C72.2335 26.79 72.1898 26.9257 72.1133 27.0431L59.4233 45.3704C58.7302 46.3708 58.3589 47.5588 58.3589 48.7758C58.3589 49.9928 58.7302 51.1808 59.4233 52.1812L72.3028 70.7747C72.3859 70.8922 72.435 71.0304 72.4446 71.1741C72.4542 71.3177 72.424 71.4612 72.3573 71.5888C72.2906 71.7164 72.19 71.8231 72.0666 71.8972C71.9431 71.9712 71.8016 72.0098 71.6576 72.0086Z" fill="white"/>
</svg>