<?xml version="1.0" encoding="utf-8"?>
<!-- Generator: Adobe Illustrator 26.0.2, SVG Export Plug-In . SVG Version: 6.00 Build 0)  -->
<svg version="1.2" baseProfile="tiny-ps" id="Capa_1" xmlns="http://www.w3.org/2000/svg" xmlns:xlink="http://www.w3.org/1999/xlink"
	 viewBox="0 0 500 500" xml:space="preserve">
<title>MANGO</title>
<rect y="0" width="500" height="500"/>
<g>
	<polygon fill="#FFFFFF" points="105.5,238 105.5,282.3 116.4,282.3 116.4,217.9 105.3,217.9 86.6,248.1 92.9,258 	"/>
	<polygon fill="#FFFFFF" points="56,238 80.8,277.4 87.1,267.3 56.1,217.9 45.1,217.9 45.1,282.3 56,282.3 	"/>
	<polygon fill="#FFFFFF" points="154.6,228.9 126.8,282.3 139.1,282.3 149.5,262.4 181.8,262.4 191.9,282.3 205,282.3 172.1,217.9 
		160.2,217.9 160.2,217.9 176.7,252.1 154.8,252.1 160.5,241 	"/>
	<polygon fill="#FFFFFF" points="277.6,217.9 266.7,217.9 266.7,249.2 277.6,260.1 	"/>
	<polygon fill="#FFFFFF" points="213.9,217.9 213.9,282.3 224.8,282.3 224.8,234.2 269.5,282.3 277.6,282.3 277.6,274.5 225,217.9 	
		"/>
	<path fill="#FFFFFF" d="M291.5,247.1h12c1.9-11.3,13.7-20.1,28.1-20.1c4.1-0.1,8.2,0.7,12,2.2s7.3,3.8,10.2,6.6l8.5-7.5
		c-7.4-7.3-18.3-11.8-30.6-11.8C311.2,216.5,293.1,229.5,291.5,247.1z"/>
	<path fill="#FFFFFF" d="M364.7,264.2v-17.1h-34.3v10.8h23.3v4.9c0,5.4-8.1,8.5-13.1,9.6c-2.9,0.6-5.9,0.9-8.9,0.9l-1.2,0
		c-12,0-22.2-6.4-26-15.5h-12.3c4.1,15.6,20,25.9,38.9,25.9c4.6,0,9.2-0.5,13.7-1.5C354.4,280,364.7,273.9,364.7,264.2z"/>
	<path fill="#FFFFFF" d="M376.6,249.2c0,17.8,14.5,32,33.8,34.3v-10.8c-12.7-2.1-22.3-11.5-22.3-22.8c0-12.9,12.3-23.3,27.6-23.3
		s27.6,10.4,27.6,23.3c0,11.2-9.4,20.6-22,22.7v10.8c17.9-2.2,32.5-14.9,33.6-31.1v-2c0-19.2-17.6-34.1-39.1-34.1
		C394.9,216.1,376.6,230.3,376.6,249.2z"/>
</g>
</svg>
