<?xml version="1.0" encoding="UTF-8"?>
<svg version="1.2" baseProfile="tiny-ps" viewBox="0 0 1024 1024" xmlns="http://www.w3.org/2000/svg" xmlns:xlink="http://www.w3.org/1999/xlink">
<title>dm-drogerie markt</title>
<rect fill="#bae2ef" width="1024" height="1024"/>
<path fill="#ffffff" d="M915.404,560.39l-40.328,6.917c-4.279-9.11-20.926-35.543-20.926-35.543,0,0-33.454,5.342-38.728,6.156l17.446-107.077c11.346-55.538-6.513-105.834-68.264-105.834-24.154,0-43.946,11.343-54.987,18.342-9.028-10.504-25.646-18.328-42.649-18.342-10.945,0-36.272,2.069-59.764,19.128l2.83-15.858c-13.444-1.241-65.519,.042-79.639,1.091l17.432-91.728c-24.94-1.866-89.187-5.385-159.69,4.692l-18.274,89.066c-69.327,19.736-113.259,83.791-113.259,171.627,0,17.336,2.193,32.244,6.612,45.009-38.991,4.721-110.184,17.638-158.09,43.519,10.696,10.281,26.735,25.533,38.412,39.251l-39.737,14.023c36.481,42.496,64.389,81.736,88.831,143.669,51.454-27.094,123.034-66.859,252.179-66.859,60.757,0,240.019,46.004,364.542,46.004,39.144,0,70.5-3.658,100.533-19.089,6.875-39.958,16.095-122.163,5.52-188.166"/>
<path fill="#e30613" d="M858.955,633.279c-31.661,21.491-95.29,49.097-193.381,24.417-9.373-2.442-18.331-4.859-26.93-7.454-61.944-26.803-124.826-55.759-150.306-74.641,71,11.126,177.275,21.986,348.617-5.563,0,0,16.121,25.437,22,63.241m-665.91,17.197l-29.884,10.56s34.107,40.605,40.096,53.978l8.378,23.066s108.154-59.53,265.498-50.558c35.704,2.03,67.049,12.395,67.049,12.395,0,0-64.084-41.849-76.973-45.894-61.681-15.403-120.425-19.931-155.193-21.172-59.555,15.818-110.43,43.062-110.43,43.062,0,0-4.099-12.435-8.542-25.437"/>
<path fill="#fec700" d="M883.053,613.088s-7.949,9.317-24.097,20.191c-31.661,21.491-95.261,49.097-193.381,24.403-9.373-2.428-18.317-4.845-26.958-7.44-89.507-26.28-142.685-60.245-262.694-74.972-81.335,1.987-163.803,11.51-208.908,29.412,0,0,12.353,12.615,15.954,17.862,1.849,3.904,6.1,16.135,10.091,27.933,4.429,13.003,8.542,25.437,8.542,25.437,0,0,50.861-27.243,110.416-43.062,27.95-7.494,57.902-12.449,85.354-10.849,91.59,5.755,165.46,53.11,247.362,91.579,56.85,15.911,195.479,27.947,234.566,10.323,0,0,7.923-37.555,3.754-110.817"/>
<path fill="#1f3685" d="M406.826,404.937c-36.908,0-58.634,52.008-58.634,88.514,0,15.015,3.782,21.751,11.719,21.751,21.019,0,56.533-60.412,63.544-98.063l1.837-9.732c-5.136-1.173-10.945-2.471-18.466-2.471m43.918,155.908l-54.009,.014c2.417-14.201,7.052-30.033,14.616-51.038l-.828-.028c-16.991,28.515-41.156,55.883-71.798,55.883-31.359-.014-47.081-20.233-47.107-62.662,0-74.627,38.771-142.976,125.64-142.976,4.735,0,9.481,.415,17.017,1.602l8.723-45.631v-.359c-8.749-1.6-21.78-3.188-33.318-3.974l7.578-36.99c27.52-2.705,55.691-4.749,88.554-3.547l-55.069,289.706Zm325.427,.014h-53.718l19.487-121.1c3.975-19.86,1.133-27.382-7.895-27.382-18.274,0-51.287,48.294-58.823,95.578l-8.531,52.904h-53.647l20.067-121.1c3.935-19.86,1.215-27.382-7.92-27.382-18.26,0-50.352,47.658-59.143,94.419l-10.311,54.091-53.58-.028,28.985-151.891v-1.159c-8.737-1.589-21.78-3.203-33.346-3.974l7.564-36.99c28.555-3.174,55.553-4.763,85.284-3.562-3.16,15.459-8.35,33.261-15.086,50.75h.814c17.859-30.517,36.922-53.995,71.826-53.995,23.396,0,38.592,12.299,38.592,38.881,0,4.791-1.187,9.896-3.149,17.848l.387,.384c18.218-32.917,40.356-57.113,75.195-57.113,38.48,0,46.318,27.798,39.141,64.663l-22.192,136.158Z"/>
</svg>