<?xml version="1.0" encoding="utf-8" standalone="yes"?><!-- Generator: Adobe Illustrator 27.6.1, SVG Export Plug-In . SVG Version: 6.00 Build 0)  --><svg xmlns="http://www.w3.org/2000/svg" xmlns:xlink="http://www.w3.org/1999/xlink" version="1.2" baseProfile="tiny-ps" viewBox="0 0 325 325" xml:space="preserve"><title>Covera Health</title><g id="Layer_1-2"><g><path fill="#CDD9DA" d="M230.2,102.5c-12.4,5.5-21.1,13-19.5,16.7s13,2.3,25.4-3.2c12.4-5.5,21.1-13,19.5-16.7    C254,95.6,242.6,97,230.2,102.5"></path><path fill="#025157" d="M71.7,86.7c-12.5,0-22.7,10.2-22.6,22.7c0.1,12.2,10,21.9,22.4,22c12.8,0.1,22.8-9.6,22.9-22.2    C94.4,96.7,84.4,86.8,71.7,86.7"></path><path fill="#9EB5B7" d="M174.6,98.3c-12.2,5.4-20,14.7-17.3,20.7s14.7,6.5,27,1.1c12.2-5.4,20-14.7,17.3-20.7    C198.9,93.4,186.8,92.9,174.6,98.3"></path><path fill="#417175" d="M117.9,91.9c-11.8,5.2-17.8,17.2-13.6,26.8s17.2,13.1,29,7.9c11.8-5.2,17.8-17.2,13.6-26.8    C142.7,90.2,129.7,86.7,117.9,91.9"></path><path fill="#025157" d="M71.7,140.2c-12.5,0-22.7,10.2-22.6,22.7c0.1,12.2,10,21.9,22.4,22c12.8,0.1,22.8-9.6,22.9-22.2    C94.4,150.1,84.4,140.2,71.7,140.2"></path><path fill="#417175" d="M117.9,145.3c-11.8,5.2-17.9,17.2-13.6,26.8c4.2,9.6,17.2,13.1,29,7.9c11.8-5.2,17.8-17.2,13.6-26.8    C142.7,143.6,129.7,140.1,117.9,145.3"></path><path fill="#CDD9DA" d="M230.2,209.3c-12.4,5.5-21.1,13-19.5,16.7s13,2.3,25.4-3.2c12.4-5.5,21.1-13,19.5-16.7    S242.6,203.8,230.2,209.3"></path><path fill="#025157" d="M71.7,193.6c-12.5,0-22.7,10.2-22.6,22.7c0.1,12.2,10,21.9,22.4,22c12.8,0.1,22.8-9.6,22.9-22.2    C94.4,203.5,84.4,193.6,71.7,193.6"></path><path fill="#9EB5B7" d="M174.6,205.1c-12.2,5.4-20,14.7-17.3,20.7s14.7,6.5,27,1.1c12.2-5.4,20-14.7,17.3-20.7    S186.8,199.7,174.6,205.1"></path><path fill="#417175" d="M117.9,198.7c-11.8,5.2-17.8,17.2-13.6,26.8s17.2,13.1,29,7.9c11.8-5.2,17.8-17.2,13.6-26.8    C142.7,197,129.7,193.5,117.9,198.7"></path><path fill="#CDD9DA" d="M236.2,62.4c12.4-5.5,21.1-13,19.5-16.7s-13-2.3-25.4,3.2s-21.1,13-19.5,16.7    C212.4,69.3,223.8,67.9,236.2,62.4"></path><path fill="#9EB5B7" d="M174.6,44.8c-12.2,5.4-20,14.7-17.3,20.7s14.7,6.5,27,1.1c12.2-5.4,20-14.7,17.3-20.7    S186.8,39.4,174.6,44.8"></path><path fill="#417175" d="M131.5,69c12.1-5.4,19.2-15.6,16-23c-3.3-7.3-15.7-9-27.8-3.6s-19.2,15.6-16,23    C107,72.7,119.4,74.4,131.5,69"></path><path fill="#CDD9DA" d="M236.2,276c12.4-5.5,21.1-13,19.5-16.7c-1.6-3.7-13-2.3-25.4,3.2s-21.1,13-19.5,16.7    C212.4,282.9,223.8,281.5,236.2,276"></path><path fill="#9EB5B7" d="M174.6,258.4c-12.2,5.4-20,14.7-17.3,20.7s14.7,6.5,27,1.1c12.2-5.4,20-14.7,17.3-20.7    C198.9,253.5,186.8,253,174.6,258.4"></path><path fill="#417175" d="M131.5,282.6c12.1-5.4,19.2-15.6,16-23c-3.3-7.4-15.7-9-27.8-3.6s-19.2,15.6-16,23    C107,286.4,119.4,288,131.5,282.6"></path></g></g></svg>