<?xml version="1.0" encoding="utf-8"?>
<svg version="1.2" baseProfile="tiny-ps" id="LS_Logomark" xmlns="http://www.w3.org/2000/svg"
	xmlns:xlink="http://www.w3.org/1999/xlink" viewBox="0 0 80 80" xml:space="preserve">
	<title>LEATHER SPA</title>
	<rect fill="#301D0E" width="80" height="80" />
	<path fill="#FA8200" d="M58.5,49.4c0,0.1,0.3-0.1,0.4-0.4c1.1-2.7,1.3-5.6-0.3-7.4c-4-4.4-12-5.4-14.8-6.6c-3.2-1.3-6.6-3.1-7.5-6.9
	c-0.9-3.4,0.3-6.3,1-7.7c0.3-0.5,0-0.4-0.2-0.2c-1.6,1.5-2.4,3.5-2.8,5.7c-0.5,2.1-0.5,4.4,0.1,6.2c1,3.3,5,5.2,7.4,6.2
	c2.1,0.9,3.6,0.7,10.2,3.1c6.6,2.4,6.6,6.6,6.6,7.4C58.5,48.9,58.5,49,58.5,49.4z M56.8,34.3L56.8,34.3c-1.4-0.6-2.9-1.1-4.4-1.6
	c-4.8-1.5-11-3-12.7-8.6c-0.4-1.4-0.7-3.1,0-4.5c0.6-1.1,1.9,0.1,2.5,0.5c2.3,1.7,5,2.9,7.9,2.7c2.5-0.2,6.1-1.6,6.7-4.5
	c0.4-1.7-0.1-3-1.1-4.1c-0.5-0.5-0.7-0.4-0.3,0.1c0.6,0.8,1,1.8,0.7,2.9c-0.5,1.9-3.3,2.3-4.8,2.3c-3.6,0-6.4-4.6-10.1-2.3
	c-3.2,2-4.4,6.3-3.7,9.9c0.8,3.8,4.3,5.5,7.5,6.9c2.9,1.2,10.8,2.2,14.8,6.6c4,4.4-3.3,16.4-7.3,12.4c0,0-0.6-0.5-0.6-0.6
	c0,0,0,0,0,0c-0.6-0.7-1.2-1.3-1.9-1.8c-0.4-0.3-0.8-0.6-1.4-1c-0.1,0-0.1-0.1-0.2-0.1c-1.4-0.8-2.9-1.4-4.6-1.6
	c-2.9-0.3-6.8,1.3-8.6,3.6c-0.3,0.3,0.2,0.7,0.8,0.3c1.8-1.2,4-0.9,5.8-0.6c3.6,0.7,6.2,5.6,9.5,5.3c0.9-0.1,1.9-0.7,2-0.8
	C73.1,44.2,60.4,35.5,56.8,34.3z" />
	<path fill="#FA8200" d="M60.9,53.8c-0.1-0.1-0.4,0.1-0.4,0.1s-6.7,5.1-8.1,5.2c-1.4,0.1-8.1-4.5-20.9-4.5c-1.4,0-2.8,0.1-4,0.3
	c1.2-0.8,3.1-2.3,4.1-4c1.2-2.2,1.3-13,0.8-18.1c-1.7-4.6,0.3-9.4,2.2-12.2c1.2-1.9,3.1-3.5,4.4-4.6c0.1-0.1,0.6-0.6,0-0.2
	c-2.5,1.5-7,2.4-9,1.2c-3.6-2.2-6.1-2.8-8.2-2.8c-2.7,0-5.8,2.7-5.8,5.6c0,0.1,0,0.1,0,0.2c0,1.6,0.7,2.7,1.8,3.4
	c0.7,0.5,0.7,0.2,0.1-0.4c-0.6-0.6-1-1.3-1-2.2c0,0,0.1-3.6,4-2.8c3.8,0.7,4.3,2.5,6.7,3c0,0,0,0,0.1,0c1.9,0.5,4,0.2,6.1-0.8
	c-3.7,3.3-5.5,8-5.5,11.4c0,0,0,1.4,0,1.5c0,1-0.7,0.7-1.5,0.8c-2.9,0.3-5,1.6-6.1,2.7c-0.3,0.3-0.2,0.5,0,0.3
	c2.3-1.1,7.6-1.5,7.7,2.5c0.2,6.3,1,12.7-4.3,16.2c-2.3,0.7-3.7,1.4-3.7,1.4c-2.4,1.2-5.3,3.9-4.1,6.4c0,0.1,0,0.1,0.1,0.2
	c0.7,1.5,1.9,2.1,3.2,2.3c0.8,0.1,1-0.1,0.3-0.3C19,65.5,18.2,65,17.7,64c0,0-1.4-2.6,2.1-4c3.5-1.4,14.2-3.5,24.7,1.3
	c4.5,2.2,6,3.6,6,3.6s0.2,0.1,0.5,0.1c0.4,0,0.5-0.1,0.5-0.1s8.6-9.9,9.7-10.7C61.1,54.3,61.2,54,60.9,53.8z" />
	<path fill="#FA8200" d="M33.7,35.4C34,40.9,33.9,49,32.8,51c-0.5,0.9-1.2,1.7-2,2.4c-0.3,0.2-0.2,0.5,0.1,0.4
	c2.5-1.2,6.5-4.8,6.5-8.3l0.1-6.7C36,37.9,35,37,33.7,35.4L33.7,35.4z" />
</svg>