<?xml version="1.0" encoding="utf-8"?>
<!-- Generator: Adobe Adobe Illustrator 29.1.0, SVG Export Plug-In . SVG Version: 6.00 Build 0)  -->
<svg version="1.2" baseProfile="tiny-ps" id="Layer_1" xmlns="http://www.w3.org/2000/svg" xmlns:xlink="http://www.w3.org/1999/xlink" 
	 width="800px" height="800px" viewBox="0 0 800 800" xml:space="preserve">
<title>Compass Education</title>
<rect fill="#FFFFFF" width="800" height="800"/>
<g id="LOGO">
	<path fill="#1287FA" d="M400,237.5c-113.9,0-206.2,92.3-206.2,206.2S286.1,650,400,650s206.2-92.3,206.2-206.2c0,0,0,0,0,0
		C606.2,329.9,513.9,237.5,400,237.5C400,237.5,400,237.5,400,237.5z M400,590.6c-81.1,0-146.9-65.7-146.9-146.9
		S318.8,296.9,400,296.9c81.1,0,146.9,65.7,146.9,146.9c0,0,0,0,0,0C546.9,524.9,481.1,590.6,400,590.6z"/>
	<path fill="#1287FA" d="M337.1,212.5l-12.5-46.5c-0.9-3.3,1.1-6.6,4.3-7.5c0,0,0,0,0.1,0c46.5-11.4,95-11.4,141.5-0.1
		c3.3,0.8,5.2,4.1,4.4,7.4c0,0,0,0.1,0,0.1l-12.5,46.5c-0.9,3.1-4,5-7.2,4.2c-36.5-8.7-74.4-8.7-110.9,0
		C341.2,217.4,338,215.6,337.1,212.5z"/>
	<path fill="#1287FA" d="M412.6,487.2l-77.3,21.2l21.4-77.2c4.1-14.9,15.8-26.5,30.7-30.7l77.2-21.4l-21.3,77.3
		C439.2,471.4,427.6,483.1,412.6,487.2z"/>
</g>
</svg>
