<?xml version="1.0" encoding="utf-8"?>
<!-- Generator: Adobe Illustrator 27.7.0, SVG Export Plug-In . SVG Version: 6.00 Build 0)  -->
<svg version="1.2" baseProfile="tiny-ps" id="Layer_1" xmlns="http://www.w3.org/2000/svg" xmlns:xlink="http://www.w3.org/1999/xlink"
	 viewBox="0 0 439.9 438.3" xml:space="preserve">
<title>McGraw Hill</title>
<rect x="-257.2" y="-180.2" fill="#FFFFFF" width="982" height="869"/>
<g>
	<rect x="124.7" y="125" fill="#E11F26" width="197.1" height="197.1"/>
	<polygon fill="#FFFFFF" points="189.8,188.8 186.8,156.9 176.1,188.8 165.6,188.8 154.3,156.9 152,188.8 140.8,188.8 145.8,141 
		159.5,141 171.4,173.8 182.6,141 196.3,141 201.6,188.8 	"/>
	<path fill="#FFFFFF" d="M225.9,189.8c-11.6,0-18.6-8.3-18.6-18.7c0-10.9,8.5-19,19.2-19c7.9,0,12.4,3.7,12.8,4.4l-4.5,6.9
		c-0.3-0.2-3.2-2.2-6.7-2.2c-5.6,0-9.3,4.1-9.3,9.5c0,5.7,2.8,9.6,8.7,9.6c4.2,0,7.8-2.4,8.1-2.6l4.3,7.3
		C239.6,185.3,234.7,189.8,225.9,189.8L225.9,189.8z"/>
	<polygon fill="#FFFFFF" points="168.5,306.1 168.5,286.1 152.6,286.1 152.6,306.1 140.8,306.1 140.8,258.3 152.6,258.3 
		152.6,276.5 168.5,276.5 168.5,258.3 180.2,258.3 180.2,306.1 	"/>
	<path fill="#FFFFFF" d="M190.2,306.1v-30.6h11.5v30.6H190.2L190.2,306.1z M196,269.9c-3.4,0-6.1-2.8-6.1-6.2c0-3.4,2.7-6.1,6.1-6.1
		c3.4,0,6,2.7,6,6.1S199.4,269.9,196,269.9L196,269.9z"/>
	<polygon fill="#FFFFFF" points="211.5,306.1 211.5,258.3 222.5,258.3 222.5,306.1 	"/>
	<polygon fill="#FFFFFF" points="232.4,306.1 232.4,258.3 243.4,258.3 243.4,306.1 	"/>
	<path fill="#FFFFFF" d="M162.3,248.2c-14.6,0-25-9.4-25-24.7c0-15.9,11-25.5,25.8-25.5c11,0,15.8,4.5,16.8,5.6l-5.1,7.6
		c-1.2-0.8-4.8-3.4-11.2-3.4c-8.4,0-14.5,5.7-14.5,15.1c0,10.7,6.8,15.7,14.3,15.7c3.4,0,5.7-0.7,6.4-0.9v-6.9h-8.7v-8.7h19.1V243
		C179.7,243.3,174.2,248.2,162.3,248.2L162.3,248.2z"/>
	<polygon fill="#FFFFFF" points="296.3,246.1 284.7,246.1 278.8,224.2 273.6,246.1 262.3,246.1 252.2,210.6 263.1,210.6 
		268.6,233.5 274.5,210.6 284.2,210.6 290.1,233.5 295.4,210.6 305.9,210.6 	"/>
	<path fill="#FFFFFF" d="M210.9,218.9c-5,0-7.9,2.9-9.2,4.9v22.5h-11.5v-35.7h9.5v4.8c0.2-0.3,4.6-5.8,11.9-5.8c0,0,0.5,0,0.8,0.1
		c0.3,0,0.7,0.1,0.7,0.1L210.9,218.9L210.9,218.9L210.9,218.9z"/>
	<path fill="#FFFFFF" d="M236.9,229.7c-2.7,0-7.8-0.1-9.8,1.9c-0.7,0.7-1.3,1.6-1.3,3c0,3.4,2.6,4.3,4.5,4.3c3.9,0,6.3-1.8,6.6-2
		V229.7L236.9,229.7z M238,246.4v-3c-0.8,0.7-4.5,3.8-10.1,3.8c-7.2,0-11.6-4.8-11.6-11.7c0-11.2,15.9-12.2,19.7-12.2h0.8
		c0-1.1,0.3-3.3-0.9-4.2c-0.7-0.5-1.7-1.1-4.2-1.1c-2.8,0-5.5,0.7-7.4,1.4c-0.7,0.3-1.3,0.5-1.7,0.7c0,0,0.1-0.1,0,0l-3.6-7
		c0.1-0.1,0,0,0,0c0.5-0.3,1.1-0.6,1.8-1c2.4-1.1,6.2-2.4,11.4-2.4c5.5,0,9.6,1.4,12.4,4.2c3.1,3.1,2.9,7.3,2.9,11.7v20.9L238,246.4
		L238,246.4z"/>
</g>
</svg>
