<?xml version="1.0" encoding="UTF-8" standalone="yes"?>
<!-- BIMI from DMARC Advisor   -->
<svg version="1.2" baseProfile="tiny-ps" viewBox="0 0 90 90" xml:space="preserve" xmlns="http://www.w3.org/2000/svg">
  <title>Achmea</title>
  <rect fill="#FFFFFF" width="90" height="90"/>
  <g id="Layer_1_1_">
    <g id="logo_1_">
      <path fill-rule="evenodd" fill="#CC0000" d="M81.5,44.9c0,18.9-15.3,34.4-34.4,34.4c-8.2,0-16.3-2.7-21.9-7.8&#xD;&#xA;&#x9;&#x9;&#x9;c-0.7-0.6-1.3-0.9-2.5-0.9c-0.9,0-1.9,0.4-2.6,0.9l-3.7,3.9C16.1,75.7,15.6,76,15,76c-1.2,0-2.5-0.9-2.5-2.5V16.2&#xD;&#xA;&#x9;&#x9;&#x9;c0-1.2,0.9-2.5,2.5-2.5c0.7,0.1,1.2,0.4,1.6,0.8l4,4c0.7,0.6,1.5,0.9,2.6,0.9c0.9,0,1.9-0.4,2.5-0.9c5.5-5.2,13.6-7.7,21.9-7.7&#xD;&#xA;&#x9;&#x9;&#x9;C66.3,10.6,81.5,25.9,81.5,44.9z M25.1,44.9c0,11.7,9.6,21.4,21.4,21.4c5,0,10.1-1.6,13.6-4.7c0.4-0.4,0.8-0.6,1.3-0.6&#xD;&#xA;&#x9;&#x9;&#x9;c0.6,0,1.1,0.2,1.5,0.6l2.5,2.5c0.2,0.2,0.6,0.4,0.9,0.4c0.8,0,1.3-0.7,1.3-1.3V27.1c0-0.8-0.7-1.3-1.3-1.3&#xD;&#xA;&#x9;&#x9;&#x9;c-0.4,0-0.7,0.1-0.9,0.4l-2.5,2.5c-0.4,0.6-0.9,0.7-1.5,0.7s-1.2-0.3-1.4-0.6c-3.6-3.3-8.3-4.7-13.6-4.7&#xD;&#xA;&#x9;&#x9;&#x9;C34.5,23.6,25.1,33.2,25.1,44.9z M46.8,54.1c4.7,0,8.7-4.2,8.7-9.2s-3.9-9.2-8.7-9.2s-8.6,4.1-8.6,9.2S42,54.1,46.8,54.1z"/>
    </g>
  </g>
</svg>