<?xml version="1.0" encoding="utf-8"?>
<!-- BIMI from DMARC Advisor   -->
<svg xmlns:xlink="http://www.w3.org/1999/xlink" viewBox="0 0 60 60" version="1.2" baseProfile="tiny-ps" xmlns="http://www.w3.org/2000/svg" xml:space="preserve">
<title>Zilveren Kruis</title>
<rect fill="#FFFFFF" width="60" height="60"/>
	<path fill="#0068BD" d="M57,40.2h-3.4c1.1-0.5,3.2-1.2,4.3-1.7v0.9C57.8,39.8,57.4,40.2,57,40.2z M48.8,40.2h-7.2
		c5.6-1,11-2.4,16.3-4.6v1.1C55.2,37.9,52.1,39.1,48.8,40.2z M2.1,36.1v-2.9c19.3,5.1,38.6,5.7,55.6-0.9v1.1
		C46.4,38.4,27.8,42.5,2.1,36.1z M2.1,31.1v-2.9c19.3,5.7,38.6,6.9,55.6,1v1.1C46.4,34.7,27.8,38.3,2.1,31.1z M2.1,26v-2.9
		c19.3,6.3,38.6,8.1,55.6,2.7V27C46.4,31.2,27.8,34.2,2.1,26z M2.1,21v-0.4c0-0.5,0.4-0.8,0.8-0.8h4.2c17.6,5.7,35.1,7.3,50.7,2.8
		v1.1C46.4,27.7,27.8,30,2.1,21z M13,19.9h6.2v-1.2C32,21.7,44.6,22.5,56,19.9h1c0.4,0,0.8,0.3,0.8,0.8C48.2,23.4,32.7,25.2,13,19.9
		z M19.3,14.2c7.3,2,14.5,3.2,21.4,3.4v1.8c-6.2,0-13.3-0.8-21.4-2.8C19.3,16.6,19.3,14.2,19.3,14.2z M19.3,9.7
		c7.3,2.2,14.5,3.6,21.4,4.1v1.8c-6.2-0.2-13.3-1.2-21.4-3.4C19.3,12.2,19.3,9.7,19.3,9.7z M19.3,5.2c7.3,2.5,14.5,4.1,21.4,4.9v1.8
		c-6.2-0.4-13.3-1.6-21.4-4.1V5.2z M20,2.7h4.5c5.5,1.7,10.8,3,16,3.7v1.8c-6.2-0.6-13.3-2.1-21.4-4.8C19.3,2.9,19.7,2.7,20,2.7z
		 M39.9,2.7c0.5,0,0.8,0.4,0.8,0.8v1.1c-2.9-0.4-7.7-1.1-11-1.9H39.9z M2.9,40.2c-0.5,0-0.8-0.4-0.8-0.8v-1.3
		c3.4,0.8,7.9,1.6,11.4,2.1H2.9z M40.6,40.3v1.8c-6.2,1.1-13.3,1.7-21.4,1.3V41C26.6,41.5,33.7,41.3,40.6,40.3z M40.6,44v1.8
		c-6.2,1.3-13.3,2.2-21.4,2v-2.6C26.6,45.8,33.7,45.4,40.6,44z M40.6,47.9v1.8c-6.2,1.5-13.3,2.6-21.4,2.7v-2.5
		C26.6,50,33.7,49.3,40.6,47.9z M40.6,53.4c-6.1,1.7-13.3,3.1-21.4,3.4c0-0.1,0-0.2,0-0.3v-2.3c7.3-0.1,14.5-1,21.4-2.7V53.4z
		 M40.6,56.6c0,0.5-0.4,0.8-0.8,0.8H32c3-0.5,5.8-1.1,8.7-2L40.6,56.6L40.6,56.6z"/>
</svg>