<?xml version="1.0" encoding="utf-8"?>
<!-- BIMI from DMARC Advisor   -->
<svg xmlns:xlink="http://www.w3.org/1999/xlink" viewBox="0 0 400 400" version="1.2" baseProfile="tiny-ps" xmlns="http://www.w3.org/2000/svg" xml:space="preserve">
<title>INTERPOLIS</title>
<rect fill="#FFFFFF" width="400" height="400"/>
<path fill="#00CAC6" d="M335.2,162.7c0.6-1.5,0.1-1.3-1.8-1.5c-13.2-1.2-39.3,2.7-72.2,18.2c-11.5-1.2-15.2-1-17.8-0.7
			c-1.9,0.3-3.6,1.5-0.7,3c2.5,1.3,6.9,2.8,9.7,4.2c0.4,0.1,0.6,0.3,0.3,0.9c-1.8,3.9-4.2,9.9-4.2,11.2s0.9,2.5,3.3,0.7
			c2.4-1.8,7.6-7.6,10.8-12.3c2.1-3.1,3.9-3.1,7.9-3.3c6.7-0.1,13.7,2.2,16.1,2.8c3.4,0.7,20.2,5.1,38.6-10.5
			C332.1,169.4,334.6,164.5,335.2,162.7z"/>
		<path fill="#00CAC6" d="M216.2,236.2c-2.1,1.9-1.5,4.3,1.5,3.4c3-0.9,9.3-3.7,12.1-8.2c0.7-1.2,2.4-2.7,4-2.8
			c4.6-0.4,15.2,0.6,17.9,0.7c17.2,1.3,32.7,1.3,46.8-13.6c3.7-3.9,4.9-7.5,6.1-10.8c0.4-1,0.1-1.3-1.5-1.3
			c-19.7-0.6-50.1,8.1-72.5,20.2c-7.8-1-19.4-3.3-26.2-0.1c-2.2,1-0.4,2.1,0,2.4c3,1.6,13.7,3,14.9,3.4c1,0.3,1,0.9,0.7,1.5
			C219.7,232.2,219.2,233.2,216.2,236.2z"/>
		<path fill="#00CAC6" d="M387.6,144.3c-0.1-1.2-0.4-1.2-1.9-0.6c-16.9,7.3-38.3,27.2-51.3,46.9c-7,2.1-14,2.4-18.4,7.8
			c-1.3,1.8,0.6,2.1,1.2,2.1c3.3,0.3,9.1-0.3,10.3-0.4c1,0,1.3,0.4,1.3,1c0,1.2,0.3,2.4-0.9,6.1c-0.7,2.5,0.9,4.5,3,2.5
			c2.1-1.9,6-6.9,6.3-12.1c0.1-1.3,0.7-3.3,2.1-4.2c3.6-2.2,13-5.5,15.4-6.4c15.1-5.7,28.2-11.8,32.9-30.8
			C389,151.5,388.2,147.7,387.6,144.3z"/>
		<path fill="#00CAC6" d="M267.8,251.9c-31.7-4.3-64.7,9.3-74.9,11.8c-5.7-1.2-13-4.3-20.9-4.5c-2.2-0.1-4.2,0.3-3.4,2.4
			c1.2,2.8,10,4.8,14,6.9c0.9,0.4,2.1,0.9,1.3,2.1c-1,1.5-4.5,3.9-5.4,5.1c-0.9,1.2-2.1,4.2,3.3,2.7c5.4-1.3,9.7-6,12.1-8.2
			c1.9-1.8,7.2-1.9,11.4-0.7c44.7,13.3,62.3-9.6,66.1-14.6C273,252.9,272.9,252.6,267.8,251.9z"/>
		<path fill="#00CAC6" d="M193.4,244c5.5-2.5,9.3-5.2,11.2-7.9c0.1-0.4,0.3-0.9-0.1-1.2c-1.3-0.6-3.3-1-5.2-1.3
			c-30.6-5.8-66.6-1.2-71-0.7c-2.2-1.8-6.1-4.8-9.6-6.7c-2.4-1.3-4.8-0.3-3.1,1.6c2.5,2.8,4.9,6,4.5,7.9c-0.4,2.1-3.4,3.4-6.6,6.7
			c-3,3.1-0.3,4.3,3.7,3.1c3.9-1.2,8.4-4.2,10.9-6.4c1.3-1.2,2.5-1.2,4.6-0.7c2.5,0.4,5.1,0.9,8.5,2.2c5.2,2.1,10.3,6.1,22.7,7.8
			C176.6,250,187.3,246.8,193.4,244z"/>
		<path fill="#00CAC6" d="M360.6,208.1c-1.3,0.1-3.1,0.6-4.8,1.2c-26.9,9.1-58,32-61.1,34.4c-2.7-0.6-7.2-1.3-10.8-1.5
			c-2.5-0.1-3.9,1.9-1.8,2.8c3.4,1.3,6.7,3,7.3,4.9c0.6,2.1-1,4.6-1.9,9c-0.9,4.2,1.9,4,4.5,1c2.5-2.8,4.6-7.6,5.5-10.8
			c0.4-1.8,6.4-4.2,8.1-4.8c2.2-0.7,4.5-1.6,7.8-1.9c5.2-0.6,11.1,0.6,21.7-3.7c11.1-4.5,17.8-12.3,21.2-17.6
			c3.1-4.9,4.8-8.8,4.9-12.3C361.2,208.6,361,208.1,360.6,208.1z"/>
		<path fill="#00CAC6" d="M137.2,215.4c0,1.5,1.5,1.6,3.4,1c5.4-1.6,9.1-4.2,11.4-6.9c2.8-3.4,4.5-4.2,7-4.3
			c2.2-0.1,8.5,1.2,13.2,2.8c4.8,1.8,19.9,7.6,35.7,3c15.1-4.3,24.1-10.8,27.2-16.7c0.6-1,0.3-1-1-1.5c-11.4-3.6-41.7-4-79.8,7.6
			c-4.8-2.7-13.4-6.9-15.5-5.2c-1.2,1-0.4,2.8,1.5,4.3c1.5,1,5.2,3.9,5.4,4.6c0,0.7-0.6,1.3-1,1.9
			C144.1,206.8,137.2,213,137.2,215.4z"/>
		<path fill="#00CAC6" d="M176.3,169.4c1.3,0.4,1.9,0.7,0.9,2.7c-1.3,2.4-2.1,6.6-1.5,9.1c0.7,3,4.6,2.5,9.4-6
			c2.7-4.9,3.9-6,8.2-6.1c12-0.4,34.7,8.1,56.8-5.4c7.5-4.5,12.7-11.1,14-14.6c0.6-1.8,0.1-1.6-2.4-1.9
			c-15.5-1.8-48.9,5.1-74.7,17.8c-6.6-1.9-22.6-3.1-24.4-0.7C161.3,166.1,175,169,176.3,169.4z"/>
		<path fill="#00CAC6" d="M132.4,200.9c-13.3-8.8-49.5-24.1-91-27.6c-0.4,0-0.6-0.3-1-0.7c-2.2-3.1-5.4-9.7-8.8-13
			c-3.1-2.8-4.2-1.8-4,0.7c0.3,7,4,12.3,3.7,13.4c-0.6,1.9-4.5,3.4-7.6,6.1c-2.7,2.4-7.5,7,1.5,6.9c3.6,0,7.3-2.4,10-4.3
			c1.8-1.5,3.6-3.4,6.7-2.4c10,3.3,16.7,11.5,25.1,16.6c19.9,12.1,50.5,21.4,65.8,5.1C132.9,201.5,132.9,201.4,132.4,200.9z"/>
		<path fill="#00CAC6" d="M108.2,227.7c-10.6-1-39.7,1.6-72.2,19c-0.1,0.1-0.3,0.1-0.4,0c-5.7-1.8-14.9-3.4-21.2-1.5
			c-4.8,1.5-2.2,3.6-0.6,4c0.7,0.1,12.1,4.3,13.6,4.9c0.7,0.3,0.7,0.9,0.4,1.3c-0.7,1.3-3.6,6.9-3.7,9.3c-0.1,2.8,1.6,3.3,4.3,1
			c4.2-3.7,7.5-9.6,8.7-12c0.6-1.3,2.2-1,4.3-1.2c9.4-0.7,26.2,7,41.1,2.1c13.9-4.8,26.2-16.6,26.3-26.3
			C108.8,228.1,109,227.7,108.2,227.7z"/>
		<path fill="#00CAC6" d="M264.8,137.1c3,1.2,10,3.3,13.2,4.8c0.3,0.1,0.3,0.3,0.3,0.6c-0.3,3.7-3.4,8.8-1.6,9.4
			c2.4,0.7,8.2-2.5,13-7.9c1.9-2.1,12.4-2.7,15.7-2.1c10.9,1.8,19.3,6,31.2,6c11.7,0,27-4.9,42.3-22.4c3.4-3.9,3.4-4-0.3-4.2
			c-48.4-1-74.3,13.3-89.1,15.5c-11.7-2.7-18.7-3.3-23.8-3C261.4,134,262.6,136.2,264.8,137.1z"/>
</svg>