<?xml version="1.0" encoding="UTF-8"?>
<!-- BIMI from DMARC Advisor   -->
<svg version="1.2" baseProfile="tiny-ps" id="Layer_1" xmlns="http://www.w3.org/2000/svg" xmlns:xlink="http://www.w3.org/1999/xlink"
	 viewBox="0 0 500 500" xml:space="preserve">
    <title>FBTO</title>
        <path d="M107.2,424.8s0,0,0,0c3.8-3.4,7.6-6.9,11.4-10.3-3.8,3.4-7.6,6.9-11.4,10.3Z" fill="none"/>
        <path d="M267,475c0,0-.1,0-.2,0,7.6-.6,15.2-1.5,22.6-2.8" fill="none"/>
        <path d="M386.1,430.1c16.2-12.3,30.7-26.7,43.1-42.8-6.4,7.3-12.7,14.5-19.1,21.8-8,7-16,14-24,21Z" fill="none"/>
        <path d="M173.3,37.7h0c.2.5.5,1,.7,1.5-.2-.5-.5-1-.7-1.5Z" fill="none"/>
        <path d="M301,469.9c12.8-2.9,25.1-7,36.9-12-1.6.7-3.3,1.3-4.9,1.9" fill="none"/>
        <path d="M360.1,207.4c-.8.2-1.6.3-2.4.5t0,0c.8-.2,1.6-.3,2.4-.5Z" fill="none"/>
        <path d="M205.3,356.7c.6,1.1,1.1,2.1,1.7,3.2-.6-1.1-1.1-2.1-1.7-3.2h0Z" fill="none"/>
        <path d="M275,384.5c-.9-7-2-13.9-3-20.9,0,0,0,0,0,0,1,7,2.1,13.9,3,20.9Z" fill="none"/>
        <path d="M358.6,301.5c-.8-1.9-1.6-3.9-2.3-5.8,0,0,0,0,0,0,.7,1.9,1.6,3.9,2.3,5.8Z" fill="none"/>
        <path d="M374,323c.5-1.2,1-2.3,1.6-3.4-.5,1.1-1,2.3-1.6,3.4.4,1.8,1.2,3.4,2.3,4.8-1.2-1.4-1.9-3-2.3-4.8Z" fill="none"/>
        <path d="M318.3,428.6c-1.1-2.2-2.2-4.4-3.3-6.6h0c1.1,2.2,2.2,4.4,3.3,6.6Z" fill="none"/>
        <path d="M324,359c4.6-.5,8.5.8,11.8,2.9-3.4-2.2-7.2-3.4-11.8-2.9,0,2.6.1,5.2.2,7.8,0-2.6-.1-5.2-.2-7.8Z" fill="none"/>
        <path d="M365.9,141c-11-1.4-21.9-2.7-32.9-4,.3-1.3.7-2.5,1-3.8-.3,1.3-.6,2.5-1,3.8,11,1.3,21.9,2.7,32.9,4Z" fill="none"/>
        <path d="M312.2,353.1c-1.5-.9-3-1.9-4.6-2.8,0,0,0,0,0,0,1.5.9,3,1.9,4.6,2.8Z" fill="none"/>
        <path d="M393.8,167.7c1.1-2.2,2.1-4.5,3.2-6.7,7.5-1.4,15-2.8,22.5-4.2-7.5,1.4-15,2.8-22.5,4.2-1.1,2.2-2.1,4.5-3.2,6.7Z" fill="none"/>
        <path d="M314,132c-.2-3.3-.5-6.6-.7-10,.2,3.5.5,6.8.7,10,6.3,1.7,12.7,3.3,19,5-6.3-1.7-12.7-3.3-19-5Z" fill="none"/>
        <path d="M209,141.8c-.3,0-.6.2-1,.3-1.4-2.1-2.7-4.4-4.1-6.5,1.4,2.2,2.7,4.4,4.1,6.5-.3.2-.6.3-.8.4" fill="none"/>
        <path d="M171,146.1c3.3,3.6,6.7,7.4,10,11-.2.2-.5.3-.7.5.4-.3.8-.6,1.2-.9-.2,0-.3.2-.5.3-3.4-3.6-6.7-7.4-10-11Z" fill="none"/>
        <path d="M367.6,258.3c-.8.2-1.5.4-2.3.5h0c.8-.2,1.5-.3,2.3-.5Z" fill="none"/>
        <path d="M365.4,241.9c1.6-.6,3.2-1.2,4.9-1.9-1.6.6-3.2,1.3-4.9,1.9h0Z" fill="none"/>
        <path d="M46.1,318.2c1.2-.4,2.4-.8,3.7-1.2,3.3-1.1,6.5-2.2,9.7-3.4,1.5-.6,3-1.2,4.6-1.8,5.6-2.4,11.1-5,16.4-8.2,13-7.7,19.1-19.5,19.6-34.6.5-13-2.2-25.3-5.4-37.7-1-3.7-.9-7.7-2.3-11.1-2.5-6.1-6-11.1-11.7-15.5-10.6-8.2-22.8-12.6-34.4-18.5-3.7-1.9-7.5-3.5-11.3-5.2-7,21.8-10.8,44.9-10.8,69s4,48.8,11.5,71.2c2.6-.7,5.1-1.4,7.7-2.2.9-.3,1.8-.5,2.7-.8Z" fill="#1f5ba5"/>
        <path d="M306.5,149.1c.4-1.9.9-3.8,1.2-5.7,0,0,0-.1,0-.2,0-.3,0-.6.1-.9,0,0,0,0,0,0,0-.3,0-.6,0-1,0-.4,0-.8,0-1.2-.3-4.9,1.2-7.6,6.2-8.1-.2-3.3-.5-6.6-.7-10-.1-2.1-.3-4.2-.5-6.5,6-.1,8.2-3.5,9-9,.7-5.4-1.2-9.1-4.6-12.9-5.9-6.7-11.1-14-17.1-20.6-3.2-3.5-7.6-5.9-10.9-9.3-2.2-2.3-4-5.3-5.2-8.3-3.8-9.3-5.8-19.1-5.1-29.2-9.5-1.2-19.1-1.8-29-1.8s-17.4.5-25.9,1.5c2.8,18.7,12.4,34.3,23.3,49.2,1.1,1.6,2.7,3.7,2.4,5.2-1.5,8.6,4,13.9,8.6,19.7,2.3,2.8,4.5,5.8,6.9,8.5,1.1,1.2,2.5,2.1,3.8,3.1,5.1,3.8,10.9,7.1,15.1,11.7,2.3,2.5,2.1,7.3,2.8,11.2.2,1.1.2,2.1.2,3.2,0,1,0,1.9,0,2.9,6.8,2.3,13.3,5.2,19.5,8.7Z" fill="#d32675"/>
        <path d="M435.5,194.4c-6.2,2.4-12,5.5-18.8,2.8-6.6-2.6-12.5.3-18.7,2.2-3.4,1-7.4,1.2-11,.7-3.4-.5-6.3-.9-8.9,1.9-4.1,4.2-9.5,4.9-15,5.1-1,0-1.9.2-2.9.4-.8.2-1.6.3-2.4.5,4.2,10.6,6.8,22,7.6,34,1.6-.6,3.2-1.2,4.9-1.9,1.7-.7,3.5-1.3,5.3-1.9,2-.6,4.2-1.2,6.2-1,9.9.7,19.8,2.2,29.6,2.2,3.7,0,7.7-2.9,10.9-5.3,3.9-3,7.3-3.1,11.1-.3,6.8,5,14.4,7.1,22.9,6.4,6.4-.5,12.8-.1,19.2,0-.4-10.1-1.5-20-3.2-29.7-1.9-8.8-4.3-17.5-6.4-26.3-10.1,3.4-20.4,6.5-30.3,10.4Z" fill="#eb6b1e"/>
        <path d="M475.5,240c-6.4,0-12.8-.4-19.2,0-8.5.7-16.1-1.4-22.9-6.4-3.8-2.8-7.2-2.7-11.1.3-3.2,2.5-7.2,5.3-10.9,5.3-9.9,0-19.8-1.5-29.6-2.2-2-.1-4.2.4-6.2,1-1.8.6-3.5,1.2-5.3,1.9-1.6.6-3.2,1.3-4.9,1.9.2,2.7.3,5.4.3,8.1s-.1,5.9-.3,8.8c.8-.2,1.5-.3,2.3-.5,9-2.3,9-2.4,14.1,5.2,1.6,2.3,2.9,3.1,6,2.7,9.8-1.3,18.6,2.4,26.9,6.9,4.1,2.2,7.7,5.3,11.8,7.4,2.7,1.4,6,2.6,8.9,2.4,11.1-.8,21.7,2.2,32.4,4.3,1.5.3,3,1.3,4.4,2,.5-2.5,1-4.9,1.4-7.4,1.5-10.4,2.2-21,2.2-31.8s0-6.7-.2-10Z" fill="#ee8b10"/>
        <path d="M289.3,472.3c1.2-.2,2.4-.4,3.6-.7-.8-3.3-1.6-6.6-2.4-9.9-2.4-10.1-4.8-20.2-7.4-30.3-2.5-9.9-5.6-19.7-7.9-29.6-.7-3.2.9-6.9.6-10.3-.3-2.4-.6-4.7-.9-7.1-.9-7-2-13.9-3-20.9-7.1,1.4-14.5,2.1-22,2.1s-12-.5-17.8-1.4c4.3,8.8,7.7,18.1,13.2,26.2,5.3,7.8,7.7,16.3,8.4,25.1,1.7,20,2.2,40.1,3.2,60.1,3.3,0,6.5-.3,9.8-.5,0,0,.1,0,.2,0" fill="#139a90"/>
        <path d="M207,359.9c.7,1.2,1.3,2.5,2.1,3.7,5.3,8.8,10.7,17.6,15.9,26.5,2.1,3.6,3,7.1-.6,10.9-1.3,1.3-1.4,4.6-.9,6.6,4,16,4.4,32.1,2.9,48.4-.6,6.2-.2,12.4-.3,18.6,7.9.8,15.9,1.3,24,1.3s4.7,0,7-.1c-1-20-1.5-40.1-3.2-60.1-.8-8.7-3.1-17.2-8.4-25.1-5.4-8-8.9-17.4-13.2-26.2-9.4-1.5-18.4-4-26.9-7.6.6,1.1,1.1,2.1,1.7,3.2Z" fill="#0f9bbb"/>
        <path d="M91.8,357.7c2.9-1.9,5.7-4,8.7-5.7,9.8-5.3,16.6-14,25.1-20.9,2.6-2.1,6.3-3.8,9.6-4,4.4-.2,8.7-.4,13-.8,1.6-.2,3.2-.4,4.8-.7,2.6-.5,5.3-1.1,7.9-2.1-14.2-17.2-23.6-38.7-25.9-62.2-.4-4.1-.8-7.7-.6-11.4s0-1.6,0-2.3c.4-18.5,5.1-35.9,13.2-51.3.2-.4.4-.8.5-1.3-1.3-2-2.6-4-3.9-6-2.6-4-5.2-8-7.8-12.1s-2.5-4.1-3.8-6.1c-2.8-4.6-7-5.5-11.8-5.9-4.3-.3-8.5-.9-12.8-1.5-5.5-.7-9.4-3.8-11.7-8.7-3.8-8.1-12.3-10.1-18.9-14.5-5.9-3.9-12.2-7.2-18.3-10.7-4.1,6.4-7.8,13-11.2,19.9,5.3,3.1,10.5,6.5,16.1,9.1,13.5,6.2,19.7,18.8,27.7,30,4.7,6.6,9.6,13.1,14.3,19.7,10.5,14.8,15.7,31.9,18.6,49.4,2,11.6,1,23.7,1.2,35.5,0,4.6-3.8,5.8-7,7.9-7.6,4.9-16.3,7.9-22.5,15-7.2,8.1-16.8,12.8-26.5,17.2-8.3,3.8-16.6,7.6-24.9,11.4,2.1,4.5,4.3,9,6.7,13.3,2.2,3.7,4.3,7.4,6.5,11,1.6,2.6,3.3,5.3,5.1,7.8,9.5-6.4,19-12.7,28.5-19.1Z" fill="#2269b0"/>
        <path d="M46.3,186.2c11.6,5.9,23.8,10.3,34.4,18.5,5.7,4.4,9.2,9.4,11.7,15.5,1.4,3.5,1.3,7.5,2.3,11.1,3.3,12.4,5.9,24.7,5.4,37.7-.6,15.1-6.7,27-19.6,34.6-5.3,3.1-10.8,5.8-16.4,8.2-1.5.6-3,1.2-4.6,1.8-3.2,1.2-6.4,2.4-9.7,3.4-1.2.4-2.4.8-3.7,1.2-.9.3-1.8.5-2.7.8-2.6.8-5.1,1.5-7.7,2.2,2.7,8,5.8,15.8,9.3,23.4,8.3-3.8,16.6-7.6,24.9-11.4,9.7-4.4,19.4-9.1,26.5-17.2,6.2-7.1,14.9-10.1,22.5-15,3.2-2.1,7.1-3.3,7-7.9-.2-11.9.7-23.9-1.2-35.5-3-17.5-8.1-34.5-18.6-49.4-4.7-6.6-9.6-13.1-14.3-19.7-8-11.1-14.2-23.8-27.7-30-5.6-2.5-10.8-6-16.1-9.1-5,10.1-9.4,20.7-12.9,31.6,3.8,1.7,7.6,3.3,11.3,5.2Z" fill="#2161ab"/>
        <path d="M35.8,321.2h0c2.6-.7,5.1-1.4,7.7-2.2-2.6.8-5.1,1.5-7.7,2.2Z" fill="#2161ab"/>
        <path d="M130.6,404.3c5.7-4.6,12.2-8.3,18.1-12.7,1.2-.9,1.5-3,2.3-4.6-2.4-1.6-4.7-3.6-7.3-4.9-2.7-1.3-3.2-2.4-1.5-4.9,2.2-3.3,4.1-6.8,6.4-10.1.8-1.2,2-2.1,3.2-2.9,5.6-3.9,11.5-7.2,11.6-15.5,0-2.4,3-5,5-7.1.8-.9,1.8-1.7,2.8-2.4.5-.3,1-.7,1.4-1,.5-.3,1-.7,1.4-1-4.7-4.1-9.1-8.7-13.1-13.5-2.6.9-5.2,1.6-7.9,2.1-1.6.3-3.2.5-4.8.7-4.3.5-8.6.6-13,.8-3.3.1-7,1.8-9.6,4-8.4,6.8-15.2,15.6-25.1,20.9-3.1,1.6-5.9,3.7-8.7,5.7-9.5,6.4-19,12.7-28.5,19.1,12.3,18.1,27.1,34.2,44,48,3.8-3.4,7.6-6.9,11.4-10.3,3.9-3.5,7.9-7,11.9-10.3Z" fill="#1a72ce"/>
        <path d="M152.9,325.7c2.6-.5,5.3-1.1,7.9-2.1,0,0,0,0,0,0-2.6.9-5.2,1.6-7.9,2.1Z" fill="#1a72ce"/>
        <path d="M226.3,455.9c1.5-16.3,1.2-32.4-2.9-48.4-.5-2.1-.4-5.3.9-6.6,3.6-3.7,2.7-7.3.6-10.9-5.2-8.9-10.6-17.6-15.9-26.5-.7-1.2-1.4-2.4-2.1-3.7-.6-1.1-1.1-2.1-1.7-3.2-11.5-4.8-22.1-11.5-31.3-19.6-.5.4-.9.7-1.4,1-.5.3-1,.7-1.4,1-1,.7-2,1.5-2.8,2.4-2,2.1-4.9,4.7-5,7.1,0,8.4-6,11.7-11.6,15.5-1.2.8-2.4,1.7-3.2,2.9-2.2,3.3-4.1,6.8-6.4,10.1-1.7,2.5-1.2,3.6,1.5,4.9,2.6,1.2,4.9,3.2,7.3,4.9,5.2-.7,10.5-1.9,15.7-1.9,14.6,0,15.7,5,14,16.7-.9,5.7-.6,9.1,5.4,10.9,3.1.9,6,2.9,8.7,4.7,6.5,4.3,7.2,11.4,7.1,18.1-.2,11.6-1.2,23.1-1.9,34.6,6.6,1.2,13.1,2.4,19.7,3.6,2.1.3,4.2.5,6.3.8,0-6.2-.3-12.4.3-18.6Z" fill="#1c8cd3"/>
        <path d="M172.5,338.1c.5-.3,1-.7,1.4-1,0,0,0,0,0,0-.5.4-.9.7-1.4,1Z" fill="#1c8cd3"/>
        <path d="M201.9,435.5c.1-6.7-.6-13.8-7.1-18.1-2.7-1.8-5.6-3.8-8.7-4.7-6.1-1.8-6.3-5.2-5.4-10.9,1.8-11.7.6-16.7-14-16.7-5.2,0-10.5,1.2-15.7,1.9-.7,1.6-1.1,3.7-2.3,4.6-5.9,4.4-12.4,8.1-18.1,12.7-4.1,3.3-8,6.8-11.9,10.3-3.8,3.4-7.6,6.9-11.4,10.3,22.7,18.6,49.1,32.8,77.9,41.4,4.9,1.3,9.9,2.5,14.8,3.9.7-11.5,1.7-23.1,1.9-34.6Z" fill="#178bea"/>
        <path d="M356.1,386.2c-4.2-6.1-8.2-12.5-13.2-18-2.1-2.4-4.4-4.6-7.1-6.3-3.4-2.2-7.2-3.4-11.8-2.9,0,2.6.1,5.2.2,7.8.6.1,1.2.3,1.8.4-3.5,4.9-7.1,9.7-10.3,14.8-3.6,5.7-5.4,11.5-1.8,18.1,3.9,7,5.2,14.4,1,21.9,1.1,2.2,2.2,4.4,3.3,6.6,1.1,2.2,2.2,4.4,3.2,6.6,3.9,8.2,7.7,16.4,11.5,24.7,1.7-.6,3.3-1.3,4.9-1.9,17.2-7.3,33.4-16.7,48.1-27.8-10-14.6-19.9-29.3-30-43.9Z" fill="#169b3e"/>
        <path d="M430.1,294.4c.4,3.1.6,4.8,1,7.5-5.4-1.2-10.3-2.4-15.2-3.4-1.4-.3-3.9-.4-4.1,0-1.8,4.2-4.9,2.4-7.9,2.5-4.3.1-8.5.9-12.8,1.4-.8,0-1.8.7-2.4.4-6.4-2.7-7.2,1.9-8.7,6.2-.8,2.4-1.8,4.7-2.9,7-.5,1.1-1,2.3-1.6,3.4-.5,1.1-1,2.3-1.6,3.4.4,1.8,1.2,3.4,2.3,4.8.4.5.8.9,1.3,1.3.5.5,1.1.9,1.8,1.3,1,.6,2.1,1.1,3.3,1.5.8.3,1.7.5,2.6.7.9.2,1.9.3,2.9.4,19.6,2,38.3,6.8,55.9,15.6,2.3,1.2,4.9,2.4,7.3,3.6l.4-.8c7.7-15.2,13.6-31.4,17.7-48.4-12.9-2.8-25.9-5.6-39.4-8.5Z" fill="#e6c70c"/>
        <path d="M467.7,287.1c-10.7-2.1-21.2-5.1-32.4-4.3-2.9.2-6.2-1-8.9-2.4-4.1-2.1-7.7-5.2-11.8-7.4-8.4-4.5-17.2-8.2-26.9-6.9-3.1.4-4.4-.4-6-2.7-5-7.6-5.1-7.5-14.1-5.2-.8.2-1.5.4-2.3.5-1,13-4.1,25.5-9.1,36.9.7,1.9,1.6,3.9,2.3,5.8.3.6.5,1.3.7,1.9.6,1.7,1.2,3.4,1.5,5.2.8,3.7,1.8,6.4,5.1,8.4,2.9,1.7,5.4,4,8.1,6,.5-1.2,1-2.3,1.6-3.4.5-1.1,1.1-2.3,1.6-3.4,1-2.3,2-4.6,2.9-7,1.5-4.3,2.3-8.9,8.7-6.2.6.3,1.6-.3,2.4-.4,4.2-.5,8.5-1.3,12.8-1.4,2.9,0,6.1,1.7,7.9-2.5.2-.5,2.8-.4,4.1,0,4.9,1,9.8,2.2,15.2,3.4-.4-2.6-.6-4.4-1-7.5,13.5,2.9,26.5,5.7,39.4,8.5.5-2.1,1-4.2,1.4-6.4.4-2.5.8-5,1.2-7.4-1.5-.7-2.9-1.7-4.4-2Z" fill="#e7b61d"/>
        <path d="M333.1,460c-3.8-8.2-7.7-16.6-11.5-24.8-1-2.2-2.1-4.4-3.2-6.6s-2.2-4.4-3.3-6.6c-.4-.4-.8-.7-1.2-1-.4-.3-.9-.7-1.3-1-.6-.4-1.1-.9-1.6-1.3-.7-.6-1.4-1.1-2-1.8s-1.2-1.3-1.7-2c-3.9-5.5-8.3-11-10.4-17.3-2.6-7.6-3.4-15.9-4.6-24-.7-5.1-.8-10.3-1.1-15.5-6.1,2.3-12.5,4.1-19,5.4,1,7,2.1,13.9,3,20.9.3,2.4.6,4.7.9,7.1.4,3.4-1.3,7.1-.6,10.3,2.3,10,5.4,19.7,7.9,29.6,2.6,10.1,5,20.2,7.4,30.3.8,3.3,1.6,6.6,2.4,9.9,2.7-.5,5.4-1.1,8.1-1.7,0,0,11.9-2.8,32-10Z" fill="#0c9a6b"/>
        <path d="M293,471.6c-.8-3.3-1.6-6.6-2.4-9.9.8,3.3,1.6,6.6,2.4,9.9h0Z" fill="#0c9a6b"/>
        <path d="M444.1,348.6c-17.6-8.8-36.4-13.6-55.9-15.6-1-.1-2-.2-2.9-.4-.9-.2-1.8-.4-2.6-.7-1.2-.4-2.3-.9-3.3-1.5-.6-.4-1.2-.8-1.8-1.3-.5-.4-.9-.8-1.3-1.3-1.2-1.4-1.9-3-2.3-4.8-2.7-2-5.2-4.2-8.1-6-3.3-2-4.4-4.7-5.1-8.4-.4-1.8-.9-3.5-1.5-5.2-.2-.6-.5-1.3-.7-1.9-.8-1.9-1.6-3.9-2.3-5.8-3.2,7.4-7.1,14.4-11.7,20.9,2,2.4,4,4.9,6.1,7.3.8.9,1.6,1.7,2.4,2.5,5.8,5.6,12.8,10.2,17.9,16.4,9.1,11,21,18,32.9,25.2,9.1,5.5,18.1,11.3,27.1,17,1.1-1.5,2.2-3,3.3-4.5,6.3-10.4,11.3-17.5,17.1-28.3-2.3-1.2-4.9-2.4-7.3-3.6Z" fill="#c3cc15"/>
        <path d="M392,391.5c-9.4-9.6-18.9-19.1-27.9-29-8.8-9.7-19.5-16.7-30.8-22.9-.3-.2-.6-.3-.8-.5-.5-.3-1.1-.7-1.6-1.1-1-.8-2-1.6-3-2.4-6.2,5.6-12.9,10.6-20.2,14.8,1.5.9,3,1.9,4.6,2.8.6.3,1.2.7,1.8,1,3.3,1.7,6.7,3.3,10,5,4.6-.5,8.5.8,11.8,2.9,2.6,1.7,4.9,3.9,7.1,6.3,5,5.5,9,11.9,13.2,18,10,14.6,20,29.2,30,43.9,0,0,0,0,0,0,8-7,16-14,24-21-6-5.9-12.2-11.6-18.1-17.6Z" fill="#41ab2e"/>
        <path d="M403.8,367.9c-11.9-7.2-23.8-14.1-32.9-25.2-5.1-6.2-12.1-10.8-17.9-16.4-.8-.8-1.6-1.6-2.4-2.5-2.1-2.3-4-4.9-6.1-7.3-4.9,6.9-10.5,13.2-16.7,18.9,1,.8,2,1.6,3,2.4.5.4,1,.8,1.6,1.1.3.2.5.3.8.5,11.3,6.3,22,13.2,30.8,22.9,9,9.9,18.5,19.4,27.9,29,5.9,6,12.1,11.7,18.1,17.6,6.4-7.3,12.7-14.5,19.1-21.8.6-.8,1.2-1.6,1.8-2.3-9-5.7-18-11.5-27.1-17Z" fill="#80b926"/>
        <path d="M350.6,323.9c-2.1-2.3-4-4.9-6.1-7.3,0,0,0,0,0,0,2,2.4,4,4.9,6.1,7.3Z" fill="#80b926"/>
        <path d="M330.8,338c-1-.8-2-1.6-3-2.4,0,0,0,0,0,0,1,.8,2,1.6,3,2.4Z" fill="#80b926"/>
        <path d="M177.4,45.7c6.7,11.2,13.3,22.5,20.3,33.6,4.2,6.7,8.7,13.2,13.3,19.5,4.2,5.8,9.3,10.6,16.3,13.3,5.3,2,10,5,12.9,10.2,1.2,2.2,2.5,4.2,3.8,6.3,1.2,1.9,2.5,3.9,3.7,5.8.8,0,1.5,0,2.3,0,12.9,0,25.4,2.1,37,6,0-1,0-1.9,0-2.9,0-1.1,0-2.2-.2-3.2-.6-3.8-.5-8.7-2.8-11.2-4.3-4.6-10-7.9-15.1-11.7-1.3-1-2.7-1.9-3.8-3.1-2.4-2.7-4.6-5.6-6.9-8.5-4.6-5.8-10.1-11.1-8.6-19.7.3-1.6-1.3-3.7-2.4-5.2-10.9-14.9-20.5-30.5-23.3-49.2-17.7,2-34.7,6.1-50.9,11.9.2.5.5,1,.7,1.5,1.1,2.2,2.1,4.4,3.4,6.5Z" fill="#b62d82"/>
        <path d="M287.1,137.5c0,1,0,1.9,0,2.9h0c0-1,0-1.9,0-2.9Z" fill="#b62d82"/>
        <path d="M144.2,120.5c5.4,5.2,11.4,9.6,16.7,14.8,3.5,3.5,6.9,7.1,10.2,10.8,3.3,3.6,6.7,7.4,10,11,.2,0,.3-.2.5-.3,7.9-5.8,16.5-10.6,25.7-14.3.3-.2.6-.3.8-.4-1.4-2.1-2.7-4.4-4.1-6.5-.5-.7-.9-1.4-1.4-2.1-1.1-1.7-2.3-3.3-3.6-4.8-7.1-8-14.6-15.7-22.2-23.3-11.9-11.8-20.1-26.3-29.1-40.1-2.6-4.1-4.9-8.4-7.3-12.6-12.8,7.1-24.8,15.4-35.9,24.8,8.4,9.2,16.7,18.5,25.1,27.6,4.8,5.2,9.5,10.5,14.6,15.4Z" fill="#765099"/>
        <path d="M147.7,65.2c9,13.9,17.2,28.3,29.1,40.1,7.6,7.5,15.1,15.2,22.2,23.3,1.3,1.5,2.5,3.1,3.6,4.8.5.7.9,1.4,1.4,2.1,1.4,2.2,2.7,4.4,4.1,6.5.3,0,.6-.2,1-.3,12.1-4.6,25.1-7.2,38.7-7.4-1.2-1.9-2.5-3.9-3.7-5.8-1.3-2.1-2.6-4.2-3.8-6.3-2.9-5.3-7.6-8.2-12.9-10.2-7-2.7-12.1-7.5-16.3-13.3-4.6-6.4-9.2-12.9-13.3-19.5-6.9-11.1-13.6-22.3-20.3-33.6-1.3-2.1-2.3-4.3-3.4-6.5-.2-.5-.5-1-.7-1.5-11.4,4.1-22.4,9.2-32.9,15,2.4,4.2,4.7,8.5,7.3,12.6Z" fill="#983a8c"/>
        <path d="M244,128.6c1.2,1.9,2.5,3.9,3.7,5.8h0c-1.2-1.9-2.5-3.9-3.7-5.8Z" fill="#983a8c"/>
        <path d="M124.5,138.7c9.8,7.3,19.8,14.2,29.4,21.9,2,1.6,3.7,3.5,5.3,5.5.4.5.8,1,1.2,1.5,1.2,1.5,2.6,3.3,3.9,4.7,1-.9,1.8-2,2.9-2.9,4.1-4.2,8.5-8.1,13.2-11.7.2-.2.5-.3.7-.5-3.4-3.6-6.7-7.4-10-11-3.3-3.6-6.7-7.3-10.2-10.8-5.3-5.2-11.3-9.7-16.7-14.8-5.1-4.9-9.8-10.2-14.6-15.4-8.4-9.2-16.8-18.4-25.1-27.6-9.3,7.9-18,16.5-26,25.8,10.5,8.1,21.1,16.2,31.6,24.2,4.8,3.7,9.6,7.6,14.4,11.2Z" fill="#545ba7"/>
        <path d="M171,146.1c-3.3-3.6-6.7-7.3-10.2-10.8,3.5,3.5,6.9,7.1,10.2,10.8Z" fill="#545ba7"/>
        <path d="M148.7,194.1c4.2-7.7,9.3-14.8,15.1-21.3,0-.3.3-.3.4-.6-1.3-1.5-2.7-3.2-3.9-4.7-.4-.5-.8-1-1.2-1.5-1.6-2-3.3-3.9-5.3-5.5-9.5-7.6-19.6-14.6-29.4-21.9-4.9-3.6-9.6-7.5-14.4-11.2-10.5-8.1-21-16.2-31.6-24.2-7.1,8.3-13.6,17-19.4,26.3,6.1,3.5,12.4,6.8,18.3,10.7,6.6,4.4,15.1,6.4,18.9,14.5,2.3,4.9,6.2,8,11.7,8.7,4.2.5,8.5,1.1,12.8,1.5,4.8.4,9,1.3,11.8,5.9,1.2,2,2.5,4.1,3.8,6.1,2.6,4,5.2,8.1,7.8,12.1,1.3,2,2.6,4,3.9,6,.2-.3.4-.7.7-1Z" fill="#3e6bb1"/>
        <path d="M284,55.3c1.2,3,3,6,5.2,8.3,3.3,3.4,7.7,5.8,10.9,9.3,6,6.6,11.2,13.9,17.1,20.6,3.4,3.8,5.4,7.5,4.6,12.9-.8,5.5-3,8.9-9,9,.2,2.2.3,4.4.5,6.5.2,3.5.5,6.8.7,10,6.3,1.7,12.7,3.3,19,5,.3-1.3.7-2.5,1-3.8.2-.9.4-1.8.7-2.7.6-2.2,1.2-4.3,2-6.3.5-1.4,3.1-2.6,4.8-2.7,5.1-.4,6.1-3.7,6.5-7.8.1-1.3,0-2.7,0-4,.7-9.1,1.2-9.5,10.2-9.7,10.1-.3,19.1-3.3,26.3-10.9,2.9-3,6.1-5.8,9.2-8.6.9-.8,1.7-1.5,2.6-2.3-32.5-27.7-72.9-46.3-117.4-52-.7,10.1,1.3,19.9,5.1,29.2Z" fill="#e62264"/>
        <path d="M393.8,80.4c-3.1,2.8-6.3,5.6-9.2,8.6-7.2,7.6-16.2,10.7-26.3,10.9-9,.2-9.6.6-10.2,9.7,0,1.3,0,2.7,0,4-.4,4-1.4,7.4-6.5,7.8-1.7.1-4.2,1.3-4.8,2.7-.8,2.1-1.4,4.2-2,6.3-.2.9-.5,1.8-.7,2.7-.3,1.3-.6,2.5-1,3.8,11,1.3,21.9,2.7,32.9,4,1.8.2,4.1-.1,5.2.9,6.8,6.1,13.8,3.8,20.9,1.1,1-1.3,2-2.4,3.1-3.6,1-1.1,2.1-2.2,3.2-3.2,3.8-3.4,8.1-6.3,12.6-8.8,6.9-3.8,13.4-8.2,20-12.4-2.1-2.9-4.3-5.7-6.6-8.4-7.1-7.6-14.3-15.1-21.4-22.6-2.2-2-4.4-4-6.7-5.9-.8.8-1.7,1.5-2.6,2.3Z" fill="#e62e4f"/>
        <path d="M421.7,170c-.9-5-1.5-8.5-2.3-13.2-7.5,1.4-15,2.8-22.5,4.2-1.1,2.2-2.1,4.5-3.2,6.7s-2.3,4.3-3.8,6.2c-1.5,1.8-5.5,1.5-8.4,2-3.3.5-6.6.8-9.9,1.1-3.7.3-5.7,1.6-4,5.8.9,2.3,1.3,4.8,2.1,7.7-5.4,2.7-10.8,5.5-16.2,8.2,1.5,3,2.8,6,4.1,9.2.8-.2,1.6-.3,2.4-.5,1-.2,1.9-.3,2.9-.4,5.5-.3,11-.9,15-5.1,2.7-2.8,5.5-2.4,8.9-1.9,3.6.5,7.5.4,11-.7,6.2-1.9,12.1-4.8,18.7-2.2,6.9,2.7,12.7-.4,18.8-2.8,10-3.8,20.2-6.9,30.3-10.4-3.1-8.4-6.2-16.8-9.3-25.2-.3-.6-.5-1.2-.8-1.8-11.2,4.3-22.4,8.5-34,13Z" fill="#e75432"/>
        <path d="M395.5,145.5c.5.3,1,.6,1.5.8.3.1.5.2.8.3,3.6,1.3,4,2.7,1.6,5.6-2,2.4-4.8,5-2.3,8.7,7.5-1.4,15-2.8,22.5-4.2.8,4.6,1.4,8.2,2.3,13.2,11.7-4.4,22.8-8.7,34-13-6.8-14.9-15.1-29-24.8-42-6.7,4.2-13.2,8.6-20,12.4-4.6,2.5-8.8,5.4-12.6,8.8-1.1,1-2.2,2.1-3.2,3.2-1.1,1.1-2.1,2.3-3.1,3.6.7.5,1.4,1,2.1,1.5.5.3.9.7,1.4,1Z" fill="#e74039"/>
        <path d="M392,143c1-1.3,2-2.4,3.1-3.6-1.1,1.1-2.1,2.3-3.1,3.6Z" fill="#e74039"/>
        <path d="M314,132c-5,.5-6.5,3.2-6.2,8.1,0,.4,0,.8,0,1.2,0,.3,0,.6,0,1,0,0,0,0,0,0,0,.3,0,.6-.1.9,0,0,0,.1,0,.2-.3,1.9-.8,3.8-1.2,5.7,20.3,11.4,36.8,28.7,47.2,49.7,5.4-2.7,10.8-5.5,16.2-8.2-.8-3-1.2-5.5-2.1-7.7-1.7-4.2.2-5.4,4-5.8,3.3-.3,6.6-.6,9.9-1.1,2.9-.5,6.9-.2,8.4-2,1.5-1.8,2.7-4,3.8-6.2s2.1-4.5,3.2-6.7c-2.5-3.7.3-6.3,2.3-8.7,2.4-2.9,2.1-4.4-1.6-5.6-.3,0-.5-.2-.8-.3-.5-.2-1-.5-1.5-.8-.5-.3-.9-.7-1.4-1-.7-.5-1.4-1.1-2.1-1.5h0c-7.1,2.7-14.1,5-20.9-1.1-1.1-1-3.4-.7-5.2-.9-11-1.4-21.9-2.7-32.9-4-6.3-1.7-12.7-3.3-19-5Z" fill="#dd494b"/>
        <path d="M307.8,142.2c0-.3,0-.6,0-1,0,.3,0,.6,0,1Z" fill="#dd494b"/>
        <path d="M307.7,143.3c-.3,1.9-.8,3.8-1.2,5.7,0,0,0,0,0,0,.4-1.9.9-3.8,1.2-5.7Z" fill="#dd494b"/>
        <path d="M307.7,143.2c0-.3,0-.6.1-.9,0,.3,0,.6-.1.9Z" fill="#dd494b"/>
        <path d="M307.8,142.2s0,0,0,0c0,0,0,0,0,0Z" fill="#dd494b"/>
        <path d="M307.7,143.3c0,0,0-.1,0-.2,0,0,0,.1,0,.2Z" fill="#dd494b"/>
        <path d="M394.1,144.5c-.7-.5-1.4-1.1-2.1-1.5h0c.7.5,1.4,1,2.1,1.5Z" fill="#dd494b"/>
        <path d="M291,358.1c.3,5.2.4,10.4,1.1,15.5,1.2,8.1,1.9,16.4,4.6,24,2.2,6.2,6.5,11.8,10.4,17.3.5.7,1.1,1.3,1.7,2s1.3,1.2,2,1.8c.5.4,1.1.9,1.6,1.3.4.3.9.7,1.3,1,.4.3.8.7,1.2,1h0c4.2-7.5,2.8-14.9-1-21.9-3.7-6.6-1.8-12.5,1.8-18.1,3.2-5.1,6.9-9.8,10.3-14.8-.6-.1-1.2-.3-1.8-.4,0-2.6-.1-5.2-.2-7.8-3.3-1.6-6.7-3.2-10-5-.6-.3-1.2-.6-1.8-1-1.5-.9-3-1.9-4.6-2.8-5.3,3-10.8,5.7-16.6,7.9Z" fill="#1b9b49"/>
        <path d="M160.8,323.6s0,0,0,0c0,0,0,0,0,0,0,0,0,0,0,0,0,0,0,0,0,0Z" fill="#fff"/>
        <path d="M180.4,157.7c-4.7,3.6-9.1,7.5-13.2,11.7" fill="#fff"/>
        <path d="M386,430.1s0,0,0,0c-14.7,11.1-30.9,20.5-48.1,27.8" fill="#169b3e"/>
        <path d="M431.1,385.1c.7-.9,1.4-1.7,2-2.7.4-.6.8-1.3,1.2-1.9-1.1,1.5-2.2,3-3.3,4.5,0,0,.1,0,.2.1Z" fill="#fff"/>
        <path d="M386,430.1s0,0,0,0c0,0,0,0,0,0,0,0,0,0,0,0Z" fill="#fff"/>
        <path d="M429.2,387.3l2-2.2c0,0-.1,0-.2-.1-.6.8-1.2,1.6-1.8,2.3Z" fill="#fff"/>
      <path d="M344.5,464.4" fill="#0c9a6b"/>
</svg>