<?xml version="1.0" encoding="utf-8"?>
<!-- BIMI from DMARC Advisor   -->
<svg xmlns:xlink="http://www.w3.org/1999/xlink" viewBox="0 0 591 591" version="1.2" baseProfile="tiny-ps" xmlns="http://www.w3.org/2000/svg" xml:space="preserve">
<title>De christelijke zorgverzekeraar</title>
 <defs>
   <radialGradient id="id0" gradientUnits="userSpaceOnUse" cx="335.26" cy="199.49" r="174.71">
    <stop offset="0" stop-opacity="1" stop-color="#A4CB39"/>
    <stop offset="1" stop-opacity="1" stop-color="#007078"/>
   </radialGradient>
 </defs>
  <path fill="url(#id0)" fill-rule="nonzero" d="M343.69 463.19c-36.21,33.68 -74.02,60.21 -107.27,75.55 -13.81,-78.22 -18.34,-246.72 43.26,-259.33 55.64,-11.36 63.09,135.04 64.01,183.78zm-227.77 -224.12c76.22,-98.38 225.79,-183.95 300.73,-183.95 57.21,0 84.14,28.57 88.89,74.6 -6.28,5.27 -13.08,11 -20.39,17.32 -179.97,155.24 -361.59,94.67 -369.23,92.03zm198.36 -49.94c0,16.33 13.22,29.56 29.55,29.56 16.33,0 29.56,-13.23 29.56,-29.56 0,-16.33 -13.23,-29.56 -29.56,-29.56 -16.33,0 -29.55,13.23 -29.55,29.56zm-131.93 16.74c0,16.33 13.22,29.55 29.55,29.55 16.33,0 29.56,-13.22 29.56,-29.55 0,-16.34 -13.23,-29.56 -29.56,-29.56 -16.33,0 -29.55,13.22 -29.55,29.56zm210.88 172.63c0.47,11.8 0.66,22.39 0.62,32 31.9,-37.92 59.63,-80.67 77.75,-124.66 15.31,-37.16 26.19,-72.08 31.35,-102.96 -37.75,15.53 -115.2,63.58 -109.72,195.58l0 0.04zm-197.73 173.72c7.89,-62.69 26.52,-281.94 -97.88,-286.91 -22,35.33 -33.18,71.5 -27.04,105.22 13.23,72.63 68.5,189.77 122.58,182.06 0.77,-0.11 1.57,-0.26 2.34,-0.37l0 0z"/>
</svg>
