<?xml version="1.0" encoding="UTF-8"?>
<svg id="Layer_1" xmlns="http://www.w3.org/2000/svg" baseProfile="tiny-ps" version="1.2" viewBox="0 0 425.2 425.2">
  <title>Universal Robots</title>
  <path d="M404.6,422.4l-107.2-106.2c-11.6-11.6-19.8-26.4-19.8-26.4-14.9-31.9.5-62.8.5-62.8,9.9-21.5,28.1-41.3,28.1-41.3,22.8-28.2,19.8-48.4,19.8-48.4-.9-15.6-10.7-23.2-14.5-25.5-6.6-3.3-15.5-5-26.6-5s-25.8,3-32.5,8.9c-6.7,5.9-10,14-10,24.3l-1.2,100.1h0v71c0,9.8-1.7,19.6-5,28.9-3.5,9.6-9,18.3-16.3,25.4-7.5,7.5-17.4,13.5-29.9,18s-27.8,6.8-46.1,6.8c-18.1,0-33.4-2.3-45.9-6.8s-22.5-10.5-30-18c-7.3-7.1-12.9-15.8-16.4-25.4-3.3-9.3-5-19-5-28.9V0h-12.7C15.2,0,0,15.2,0,34v357.2c0,18.8,15.2,34,34,34h357.2c4.6,0,9.2-.9,13.4-2.8h0Z" fill="#56a0d3" stroke-width="0"/>
  <path d="M391.2,0H104.8v305.5c0,10.6,2.8,18.7,8.5,24.4,5.7,5.7,15.9,8.5,30.6,8.5,14.7,0,24.9-2.8,30.6-8.5s8.5-13.8,8.5-24.4v-60.8h0v-109.9c0-10.1,1.9-20.1,5.5-29.5,3.8-9.8,9.8-18.7,17.5-25.9,8-7.6,18.5-13.8,31.6-18.4,13.1-4.6,28.8-6.9,47.2-6.9,18.7,0,34.5,2.3,47.4,6.9,12.9,4.6,23.4,10.7,31.4,18.4,10.2,9.3,17.3,21.6,20.3,35.1.7,2.6,1.3,5.2,1.5,7.9.2,1.3.2,2.6.3,3.9,0,.7.1,1.4.2,2.1,0,1.1,0,2.1.1,3.1,0,1.2.1,2.5.1,3.7h-.1c-.6,32.2-18.3,54.3-18.3,54.3-5.5,8.8-30.8,44.1-30.8,44.1-17.6,23.7.5,40.2.5,40.2l87.6,87.6V34C425.2,15.2,410,0,391.2,0c0,0,0,0,0,0Z" fill="#56a0d3" stroke-width="0"/>
  <path d="M51.7,339.9c3.5,9.6,9,18.3,16.3,25.4,7.5,7.5,17.5,13.5,30,18,12.5,4.5,27.8,6.8,45.9,6.8,18.3,0,33.7-2.3,46.1-6.8,12.4-4.5,22.3-10.5,29.9-18,7.3-7.1,12.8-15.8,16.3-25.4,3.3-9.3,5-19,5-28.9v-71h0l1.1-100.1c0-10.3,3.3-18.4,10-24.3,6.7-5.9,17.5-8.9,32.5-8.9,11.2,0,20.1,1.7,26.6,5,3.7,2.3,13.5,9.9,14.5,25.5,0,0,3,20.2-19.8,48.4,0,0-18.2,19.8-28.1,41.3,0,0-15.4,30.8-.5,62.8,0,0,8.3,14.9,19.8,26.4l107.3,106.2h0c12.5-5.4,20.6-17.7,20.6-31.2v-29.7l-87.6-87.6s-18.2-16.5-.5-40.2c0,0,25.3-35.2,30.8-44.1,0,0,17.7-22.1,18.3-54.3h.1c0-1.2,0-2.5-.1-3.7,0-1,0-2.1-.1-3.1,0-.7-.1-1.4-.2-2.1-.1-1.3-.2-2.6-.3-3.9-.3-2.7-.8-5.3-1.5-7.9-3-13.5-10-25.8-20.2-35.1-8-7.6-18.5-13.8-31.4-18.4-12.9-4.6-28.7-6.9-47.4-6.9-18.4,0-34.2,2.3-47.2,6.9-13,4.6-23.6,10.7-31.6,18.4-7.7,7.2-13.7,16.1-17.6,25.9-3.7,9.4-5.5,19.4-5.6,29.5v110h0v60.8c0,10.6-2.8,18.7-8.5,24.4-5.7,5.7-15.9,8.5-30.6,8.5-14.7,0-24.9-2.8-30.6-8.5-5.7-5.7-8.5-13.8-8.5-24.4V0h-58.2v311c0,9.9,1.7,19.6,5.1,28.9Z" fill="#fff" stroke-width="0"/>
</svg>