<svg xmlns="http://www.w3.org/2000/svg" xmlns:xlink="http://www.w3.org/1999/xlink" version="1.2" viewBox="0 0 672.6 669.7" baseProfile="tiny-ps">
  <title>Merk-Echt_tiny_ps</title>
  <g id="BG">
    <path d="M141.3,140.5L141.3,140.5c-6.6,0-10.7,2.8-13,5.1c-5.4,5.5-5.6,12.9-5.6,14.6   c0,5.6,0.1,323.9,0.1,328.1c0,8.6,5.7,14,11.6,15.3c5.4,1.8,48.9,16.1,93.6,30.4c97.1,30.9,105,31.2,107.9,31.3h0.1l0,0   c0.1,0,0.3,0,0.3,0h0.1h0.1c3.1,0,10.5-0.2,107.8-31.1c44.9-14.2,88.6-28.7,94-30.4c5.9-1.3,11.6-6.7,11.6-15.3   c0-2.6,0-121.8,0.1-217.7V162.6v-2.3l0,0c0,0,0-0.1,0-0.3c0-1.6-0.3-5.6-2.4-9.7c-3.1-6.2-9-9.8-16.3-9.8c-2.5,0-5.3,0.4-8.2,1.3   c-5.1,1.5-161.5,45.2-176.4,49.3h-20.1h-0.9c-14.8-4.1-171.3-47.9-176.4-49.3C146.6,140.9,143.8,140.5,141.3,140.5L141.3,140.5z" fill="#7C7C7B"/>
    <path d="M541.6,160c0-1.4-0.6-14.8-16-10.2c-5.4,1.6-177.6,49.7-177.6,49.7h-22.8l0,0h-0.6   c0,0-172.2-48.1-177.6-49.7c-16.3-4.8-16,10.4-16,10.4s0.1,323.8,0.1,328.1c0,6.4,5.3,7.1,5.3,7.1s184.2,60.9,199.7,61.4   c0.1,0,0.1,0,0.2,0c14.4-0.2,199.8-61.4,199.8-61.4s5.3-0.7,5.3-7.1c0-4,0.1-296.4,0.1-325.9c0-1.5,0-2.3,0-2.3   S541.6,160.1,541.6,160z" fill="#404042"/>
    <rect x="131.1" y="331" width="410.4" height="14.1" fill="#EA572E"/>
    <g>
      <g>
        <path d="M365.1,508.9c0,15.9-12.9,28.7-28.7,28.7c-15.9,0-28.7-12.9-28.7-28.7c0-15.8,12.9-28.7,28.7-28.7     C352.2,480.1,365.1,493,365.1,508.9z" fill="#E8491D"/>
      </g>
      <g>
        <path d="M336.3,473.9c19.3,0,35,15.7,35,35c0,19.3-15.7,35-35,35s-35-15.7-35-35     C301.4,489.6,317,473.9,336.3,473.9z M336.3,537.7c15.9,0,28.7-12.9,28.7-28.7c0-15.8-12.9-28.7-28.7-28.7     c-15.9,0-28.7,12.9-28.7,28.7C307.6,524.8,320.4,537.7,336.3,537.7z M322.9,488.7h15.4c9.6,0,14.1,4.3,14.1,12.1     c0,7-4.1,10.4-9.6,11l10.5,16.9h-7.7l-9.9-16.4h-5.4v16.4H323v-40H322.9z M330.2,506h5.4c4.6,0,9.5-0.3,9.5-5.6     c0-5.4-5-5.6-9.5-5.6h-5.4V506z" fill="#FFFFFF"/>
      </g>
    </g>
  </g>
  <g id="Txt">
    <g>
      <polygon points="169,461 169,461 169,359.4 236.7,359.4 236.7,378.6 194.2,378.6 194.2,400 231.3,400     231.3,418.9 194.2,418.9 194.2,442 236.7,442 236.7,461   " fill="#FFFFFF"/>
      <path d="M294.3,379.5L294.3,379.5c-0.4,0-0.8,0-1.2,0c-0.3-0.1-0.5-0.1-0.8-0.1s-0.4,0-0.8,0h-0.8    c-3.5,0-6.6,0.5-9.4,1.6s-5.2,2.8-7.2,5.1c-2,2.4-3.5,5.5-4.6,9.4c-1.2,3.8-1.7,8.6-1.7,14.3c0,4.2,0.3,7.9,0.8,11.1    c0.7,3.2,1.3,5.9,2.4,8.3c0.9,2.4,2.1,4.3,3.6,5.8c1.3,1.6,2.9,2.9,4.5,3.8c1.6,0.8,3.4,1.6,5.1,1.9c1.8,0.4,3.6,0.7,5.5,0.7    c4.5,0,8.8-0.7,13.2-1.7c4.3-1.2,8.4-2.6,12.6-4.6l5.5,19.3c-2.8,1.2-5.4,2.4-8,3.3s-5.5,1.7-8.3,2.4c-3,0.7-6.1,1.2-9.4,1.5    c-3.4,0.4-7.1,0.5-11.2,0.5c-7.1,0-13.2-0.9-18.6-3c-5.4-2-9.9-5.1-13.4-9.2c-3.7-4-6.5-9.4-8.3-15.6c-1.8-6.3-2.8-13.7-2.8-22.4    c0-8.4,1.1-16,3.3-22.5c2.2-6.6,5.4-12.1,9.6-16.7c4.1-4.6,9.4-8,15.3-10.5c6.2-2.4,13-3.6,20.7-3.6c3.3,0,6.2,0.1,9,0.3    c2.6,0.3,5.1,0.7,7.4,1.1c2.4,0.4,4.5,0.9,6.5,1.7c2,0.7,3.9,1.3,5.9,2.4l-2,33.6L295,399L294.3,379.5z" fill="#FFFFFF"/>
      <polygon points="390.4,461 390.4,461 390.4,420.2 354.2,420.2 354.2,461 328.9,461 328.9,359.4     354.2,359.4 354.2,400.4 390.4,400.4 390.4,359.4 415.7,359.4 415.7,461   " fill="#FFFFFF"/>
      <polygon points="501.9,378.6 501.9,378.6 475.5,378.6 475.5,461 450.2,461 450.2,378.6 422.3,378.6     423.9,359.4 503.6,359.4   " fill="#FFFFFF"/>
    </g>
    <g>
      <path d="M246.4,316.5L246.4,316.5l-0.1-52c-0.2,1.1-0.5,2-0.8,3c-0.3,0.9-0.7,2.1-1.3,3.4l-19,43.3h-14.7    l-19-41.8c-0.3-0.7-0.5-1.3-0.8-1.9c-0.2-0.6-0.4-1.1-0.6-1.5c-0.2-0.6-0.4-1.1-0.6-1.5c-0.1-0.5-0.3-0.9-0.4-1.5v50.7h-20.3V224    h22.8l27.7,59.7L247,224h22.3v92.6h-22.9V316.5z" fill="#FFFFFF"/>
      <polygon points="277.7,316.5 277.7,316.5 277.7,223.9 339.1,223.9 339.1,241.3 300.7,241.3 300.7,260.8     334.4,260.8 334.4,278.1 300.7,278.1 300.7,299.1 339.1,299.1 339.1,316.5   " fill="#FFFFFF"/>
      <path d="M394.2,316.5L394.2,316.5l-15-33.1h-8.8v33.1h-23v-92.6h32.3c5.8,0,10.8,0.5,15.1,1.5    c4.1,1.1,7.7,2.7,10.5,4.9c2.7,2.1,4.7,5.1,6.1,8.4c1.3,3.5,2,7.5,2,12.2c0,4.5-1.2,8.9-3.4,13.2c-2.3,4.4-5.7,8.7-10.4,13.2    l20.3,39.1h-25.7V316.5z M391.1,252L391.1,252c0-1.7-0.1-3.2-0.5-4.6c-0.4-1.3-1.1-2.4-2.1-3.4c-0.9-0.8-2.3-1.5-4-2    c-1.8-0.5-4-0.8-6.7-0.8h-7.3v26h15.3c0.9-1.4,1.9-2.8,2.5-4c0.7-1.3,1.3-2.6,1.6-3.8c0.5-1.3,0.8-2.5,0.9-3.7    C391,254.5,391.1,253.3,391.1,252z" fill="#FFFFFF"/>
      <polygon points="475.1,316.5 475.1,316.5 451.8,278.6 447,284.5 447,316.5 424.9,316.5 424.9,223.9     447,223.9 447,260.5 474.7,223.9 498.4,223.9 468.6,263.1 503.6,316.5   " fill="#FFFFFF"/>
    </g>
  </g>
</svg>