<?xml version="1.0" encoding="utf-8"?>
<!-- Generator: Adobe Illustrator 27.6.1, SVG Export Plug-In . SVG Version: 6.00 Build 0)  -->
<svg version="1.2" baseProfile="tiny-ps" id="Layer_1" xmlns="http://www.w3.org/2000/svg" xmlns:xlink="http://www.w3.org/1999/xlink"
	 viewBox="0 0 429.33 429.33" xml:space="preserve">
    <title>Edpuzzle</title>
<path fill="#FFFFFF" d="M429.33,429.33H0C0,286.22,0,143.11,0,0c143.11,0,286.22,0,429.33,0V429.33z M326.01,92.33
	c-0.1-0.08-0.2-0.16-0.3-0.23c-0.24-0.36-0.49-0.7-0.71-1.07c-3.59-6-8.25-11.04-13.93-15.11c-8.55-6.13-18.15-9.47-28.61-10.23
	c-7.18-0.52-14.17,0.61-20.99,2.93c-4.6,1.57-8.86,3.77-12.81,6.57c-1.18,0.84-1.9,0.8-2.98-0.29
	c-14.49-14.58-29.03-29.1-43.57-43.62c-0.61-0.61-1.31-1.14-2-1.68c-4.45-3.43-9.59-5.37-15.09-5.86
	c-3.93-0.35-7.96-0.47-11.88,0.87c-4.44,1.51-8.63,3.39-11.98,6.73c-27.87,27.83-55.7,55.69-83.57,83.51
	c-0.91,0.9-1.23,1.79-1.23,3.03c0.03,51.77,0.02,103.53,0.02,155.3c0,14.55-0.01,29.11,0.04,43.66c0,0.76,0.43,1.67,0.95,2.23
	c1.47,1.57,3.14,2.94,4.66,4.46c25.89,25.87,51.78,51.75,77.64,77.66c2.8,2.8,5.94,5.08,9.5,6.71c3.77,1.72,7.74,2.74,11.95,2.41
	c2.83-0.22,5.66-0.45,8.48-0.67c4.55,3.62,9.67,5.13,15.51,4.73c6.74-0.46,11.82-3.73,16.43-8.39
	c15.2-15.36,30.53-30.59,45.81-45.87c0.45-0.45,0.88-0.93,1.29-1.37c-0.14-0.23-0.19-0.34-0.26-0.41
	c-10.39-10.96-14.55-23.94-12.61-38.9c0.95-7.33,3.74-13.93,8.07-19.88c4.46-6.12,9.86-11.24,16.77-14.53
	c3.29-1.57,6.63-3.13,10.31-3.65c1.75-0.25,3.5-0.52,5.26-0.78c1.09,0.46,2.23,0.81,3.25,1.39c4.37,2.5,7.67,6.24,11.13,9.79
	c1.05,1.08,1.68,0.97,2.66-0.04c2.37-2.47,4.85-4.85,7.29-7.26c5.01,2.23,9.35,5.44,13.5,9.39c0.47-0.58,0.81-1.1,1.24-1.53
	c15.59-15.6,31.04-31.33,46.83-46.73c8.91-8.7,10.48-23.76,0.02-34.02c-3.17-3.11-6.28-6.29-9.44-9.41
	c-0.36-0.35-0.89-0.54-1.34-0.8c-1.6-1.9-3.09-3.92-4.83-5.68c-8.85-8.93-17.76-17.8-26.65-26.69c-1.87-1.88-3.72-3.78-5.57-5.68
	c0.5-0.65,0.97-1.34,1.52-1.95c7.61-8.49,11.28-18.54,11.47-29.83c0.06-3.55-0.29-7.18-1.05-10.65
	c-2.17-9.96-7.25-18.31-14.98-24.97c-1.6-1.38-3.49-2.42-5.25-3.61L326.01,92.33L326.01,92.33z"/>
<path d="M334.28,163.34c1.86,1.89,3.7,3.8,5.57,5.68c8.88,8.9,17.8,17.76,26.65,26.69c1.74,1.76,3.23,3.78,4.83,5.68
	c0.11,0.41,0.16,0.85,0.34,1.23c1.46,3.08,2.59,6.24,3.04,9.67c0.76,5.69,0.24,11.19-1.92,16.52c-1.62,4.01-4.2,7.37-7.14,10.45
	c-3.68,3.85-7.51,7.55-11.28,11.32c-11.29,11.3-22.57,22.61-33.85,33.92c-2.44,2.41-4.91,4.79-7.29,7.26
	c-0.98,1.02-1.6,1.12-2.66,0.04c-3.46-3.54-6.76-7.29-11.13-9.79c-1.02-0.58-2.16-0.93-3.25-1.39c-0.34-0.31-0.62-0.73-1.02-0.9
	c-6.36-2.7-12.93-3.83-19.87-3.11c-4.34,0.45-8.45,1.5-12.37,3.31c-5.76,2.66-10.61,6.53-14.34,11.69
	c-4.7,6.48-7.35,13.71-7.59,21.76c-0.11,3.57,0.35,7.06,1.2,10.54c1.55,6.37,4.6,11.9,8.95,16.71c2.07,2.29,4.35,4.38,6.55,6.59
	c-0.27,0.28-0.46,0.49-0.65,0.68c-18.36,18.33-36.72,36.65-55.1,54.96c-0.69,0.69-1.46,1.35-2.32,1.79
	c-3.32,1.72-6.68,3.36-10.03,5.02c-2.83,0.22-5.66,0.45-8.48,0.67c-4.21,0.33-8.18-0.69-11.95-2.41c-3.57-1.63-6.7-3.91-9.5-6.71
	c-25.86-25.91-51.75-51.78-77.64-77.66c-1.52-1.52-3.19-2.9-4.66-4.46c-0.53-0.56-0.95-1.48-0.95-2.23
	c-0.06-14.55-0.04-29.1-0.04-43.66c0-51.77,0-103.53-0.02-155.3c0-1.24,0.32-2.13,1.23-3.03c27.87-27.82,55.71-55.68,83.57-83.51
	c3.34-3.34,7.54-5.22,11.98-6.73c3.92-1.34,7.95-1.22,11.88-0.87c5.5,0.49,10.63,2.43,15.09,5.86c0.69,0.53,1.39,1.06,2,1.68
	c14.54,14.52,29.08,29.04,43.57,43.62c1.08,1.09,1.8,1.13,2.98,0.29c3.95-2.8,8.21-5.01,12.81-6.57c6.82-2.32,13.81-3.46,20.99-2.93
	c10.46,0.76,20.05,4.09,28.61,10.23c5.68,4.07,10.34,9.11,13.93,15.11c0.22,0.37,0.47,0.71,0.71,1.07c0.1,0.08,0.2,0.16,0.3,0.23
	l-0.03-0.02c0.13,0.29,0.24,0.6,0.4,0.88c3.88,6.93,6.03,14.41,6.56,22.28c0.32,4.69,0.08,9.4-0.9,14.08
	c-1.15,5.49-2.83,10.75-5.65,15.61c-1.26,2.17-2.63,4.29-3.77,6.13c3.94,4.08,7.8,8.06,11.65,12.05L334.28,163.34z M174.95,200.06
	h-0.03c0.14,0.17,0.28,0.35,0.42,0.53c0.24,0.36,0.48,0.71,0.72,1.07c0.18,0.5,0.32,1.01,0.55,1.48c3.24,6.51,3.86,13.42,2.57,20.43
	c-1.07,5.83-3.97,10.85-8.2,15.07c-21.28,21.26-42.55,42.54-63.81,63.81c-0.43,0.43-0.82,0.89-1.23,1.34
	c-0.09,0.09-0.17,0.19-0.26,0.28c-3.42,3.57-6.84,7.15-10.37,10.83c3.19,3.13,6.59,6.45,9.99,9.78c0.23,0.3,0.46,0.61,0.69,0.91
	c0.11,0.03,0.22,0.06,0.32,0.09c0.41,0.44,0.8,0.91,1.22,1.33c21.36,21.37,42.73,42.74,64.1,64.11c5.57,5.57,15.04,5.02,20.12,0
	c11.42-11.27,22.68-22.71,34.02-34.08c3.41-3.42,6.85-6.82,10.36-10.31c-8.44-11.59-11.77-24.48-10.14-38.65
	c1.65-14.29,8.14-26.03,19.2-35.05c18.12-14.79,44.31-16.91,66.47-1.54c0.33-0.44,0.65-0.97,1.07-1.4
	c14.05-14.07,28.1-28.15,42.19-42.19c6.32-6.3,6.32-15.82,0-22.15c-17.5-17.54-35.03-35.05-52.56-52.56
	c-0.45-0.45-1.01-0.8-1.57-1.23c1.45-1.43,2.62-2.61,3.82-3.77c4.57-4.4,8.18-9.43,10.45-15.4c2.31-6.08,3.16-12.35,2.2-18.76
	c-0.76-5.14-2.44-10.03-5.18-14.53c-3.93-6.43-9.2-11.35-16.06-14.54c-0.12-0.1-0.21-0.25-0.35-0.31
	c-7.44-3.27-15.12-4.52-23.2-3.04c-5.34,0.98-10.3,2.79-14.72,5.99c-3.7,3.27-7.4,6.54-11.14,9.84
	c-16.99-16.99-34.14-34.15-51.3-51.31c-0.43-0.43-0.89-0.82-1.34-1.23c-0.49-0.52-0.96-1.06-1.47-1.56
	c-5.77-5.75-15.96-5.87-21.93,0.14c-24.5,24.68-49.14,49.22-73.73,73.8c-0.61,0.61-1.29,1.16-1.67,1.5
	c3.8,3.94,7.46,7.74,11.12,11.53c0.37,0.41,0.72,0.83,1.11,1.22c7.02,7.03,14.13,13.98,21.06,21.1c15.34,15.73,31.6,30.57,46.22,47
	l0.26,0.4L174.95,200.06z M106.02,152.32c-4.7-4.59-9.41-9.18-14.06-13.72v156.41c4.62-4.48,9.34-9.05,14.06-13.63
	c0.09-0.06,0.2-0.1,0.28-0.17c18.11-18.1,36.23-36.18,54.27-54.35c1.37-1.38,2.51-3.28,3.04-5.14c1.73-6.02,0.55-11.41-4.04-15.99
	c-17.47-17.4-34.89-34.86-52.33-52.29C106.85,153.05,106.43,152.7,106.02,152.32L106.02,152.32z"/>
<path fill="#FECB33" d="M189.61,409.67c3.35-1.67,6.71-3.3,10.03-5.02c0.85-0.44,1.63-1.11,2.32-1.79
	c18.38-18.31,36.73-36.64,55.1-54.96c0.2-0.19,0.38-0.4,0.65-0.68c-2.21-2.21-4.48-4.3-6.55-6.59c-4.36-4.81-7.4-10.35-8.95-16.71
	c-0.85-3.48-1.31-6.97-1.2-10.54c0.24-8.05,2.89-15.28,7.59-21.76c3.74-5.15,8.58-9.03,14.34-11.69c3.92-1.81,8.03-2.86,12.37-3.31
	c6.94-0.72,13.51,0.41,19.87,3.11c0.4,0.17,0.68,0.59,1.02,0.9c-1.75,0.26-3.5,0.53-5.26,0.78c-3.68,0.52-7.01,2.08-10.31,3.65
	c-6.91,3.29-12.3,8.41-16.77,14.53c-4.33,5.94-7.12,12.54-8.07,19.88c-1.95,14.96,2.22,27.94,12.61,38.9
	c0.07,0.08,0.12,0.18,0.26,0.41c-0.41,0.44-0.84,0.91-1.29,1.37c-15.28,15.28-30.61,30.51-45.81,45.87
	c-4.61,4.66-9.69,7.93-16.43,8.39C199.29,414.81,194.17,413.3,189.61,409.67L189.61,409.67z"/>
<path fill="#FECB33" d="M320.52,284.49c11.28-11.31,22.57-22.61,33.85-33.92c3.76-3.77,7.6-7.47,11.28-11.32
	c2.94-3.08,5.53-6.44,7.14-10.45c2.16-5.33,2.67-10.83,1.92-16.52c-0.46-3.42-1.58-6.58-3.04-9.67c-0.18-0.38-0.23-0.82-0.34-1.23
	c0.45,0.26,0.98,0.45,1.34,0.8c3.16,3.12,6.27,6.3,9.44,9.41c10.46,10.26,8.89,25.32-0.02,34.02
	c-15.78,15.4-31.24,31.13-46.83,46.73c-0.43,0.43-0.77,0.95-1.24,1.53C329.87,289.92,325.52,286.71,320.52,284.49L320.52,284.49z"/>
<path fill="#FECB33" d="M334.28,163.34c-3.85-3.98-7.71-7.97-11.65-12.05c1.14-1.84,2.5-3.95,3.77-6.13
	c2.82-4.86,4.5-10.11,5.65-15.61c0.98-4.68,1.22-9.39,0.9-14.08c-0.53-7.87-2.69-15.35-6.56-22.28c-0.16-0.28-0.27-0.58-0.4-0.88
	c1.76,1.19,3.65,2.23,5.25,3.61c7.73,6.66,12.81,15.01,14.98,24.97c0.75,3.47,1.11,7.1,1.05,10.65
	c-0.19,11.29-3.86,21.34-11.47,29.83c-0.55,0.61-1.01,1.3-1.52,1.95V163.34z"/>
<path fill="#FECB33" d="M326.02,92.34c-0.1-0.08-0.2-0.16-0.3-0.23C325.82,92.19,325.92,92.27,326.02,92.34z"/>
<path fill="#FFCC33" d="M296.03,84.99c6.85,3.19,12.12,8.11,16.06,14.54c2.75,4.49,4.42,9.39,5.18,14.53
	c0.95,6.4,0.11,12.68-2.2,18.76c-2.27,5.97-5.88,11-10.45,15.4c-1.2,1.16-2.37,2.34-3.82,3.77c0.56,0.43,1.12,0.78,1.57,1.23
	c17.53,17.51,35.06,35.02,52.56,52.56c6.32,6.33,6.32,15.85,0,22.15c-14.08,14.04-28.13,28.12-42.19,42.19
	c-0.43,0.43-0.74,0.96-1.07,1.4c-22.15-15.38-48.34-13.25-66.47,1.54c-11.06,9.02-17.55,20.77-19.2,35.05
	c-1.63,14.17,1.7,27.06,10.14,38.65c-3.52,3.5-6.95,6.89-10.36,10.31c-11.33,11.36-22.59,22.81-34.02,34.08
	c-5.08,5.01-14.55,5.56-20.12,0c-21.37-21.37-42.74-42.74-64.1-64.11c-0.43-0.43-0.81-0.89-1.22-1.33c0.38-0.32,0.78-0.62,1.13-0.97
	c26.9-26.89,53.8-53.78,80.7-80.68c0.58-0.58,1.12-1.22,1.62-1.89c3.64-4.87,4.74-10.43,4.22-16.36c-0.39-4.42-2.07-8.41-5.09-11.64
	c-3.87-4.13-7.96-8.06-11.97-12.06c-0.22-0.22-0.57-0.3-0.86-0.44c-0.24-0.36-0.48-0.71-0.72-1.07c-0.14-0.18-0.28-0.36-0.42-0.54
	h0.03c-0.09-0.13-0.18-0.26-0.26-0.4c-14.62-16.44-30.88-31.27-46.22-47c-6.94-7.11-14.04-14.07-21.06-21.1
	c-0.39-0.39-0.74-0.81-1.11-1.22c0.42-0.44,0.82-0.9,1.25-1.33c8.01-7.91,16.07-15.79,24.04-23.74
	c18.56-18.51,37.05-37.1,55.66-55.56c1.93-1.91,4.48-3.2,6.74-4.78c0.45,0.41,0.91,0.8,1.34,1.23
	c17.16,17.16,34.32,34.32,51.3,51.31c3.74-3.3,7.44-6.57,11.14-9.84c3.6,3.57,7.21,7.15,10.54,10.45c3.68-2.59,7.07-5.07,10.58-7.38
	c1-0.66,2.38-0.72,3.51-1.23c1.18-0.54,2.21-1.46,3.42-1.89c1.91-0.68,3.99-0.9,5.87-1.65c1.44-0.57,3.19,0.64,4.35-0.93
	L296.03,84.99z"/>
<path fill="#FF9900" d="M106.02,152.32c0.41,0.37,0.83,0.72,1.22,1.11c17.44,17.43,34.85,34.89,52.33,52.29
	c4.59,4.57,5.78,9.96,4.04,15.99c-0.54,1.86-1.67,3.76-3.04,5.14c-18.04,18.17-36.16,36.25-54.27,54.35
	c-0.08,0.08-0.18,0.12-0.28,0.17c-0.02-0.5-0.07-1-0.07-1.49c0-42.02,0-84.04,0-126.06c0-0.5,0.04-1,0.07-1.49L106.02,152.32z"/>
<path fill="#FE9800" d="M176.05,201.66c0.29,0.14,0.64,0.22,0.86,0.44c4.01,4,8.1,7.92,11.97,12.06c3.02,3.23,4.7,7.22,5.09,11.64
	c0.52,5.93-0.58,11.48-4.22,16.36c-0.5,0.66-1.04,1.3-1.62,1.89c-26.89,26.9-53.79,53.79-80.7,80.68c-0.35,0.35-0.75,0.65-1.13,0.97
	c-0.11-0.03-0.22-0.06-0.32-0.09c-0.03-0.32-0.05-0.64-0.08-0.97c0-6.76,0-13.53,0-20.29c0-0.18,0.01-0.37,0.02-0.55
	c0.41-0.45,0.8-0.91,1.23-1.34c21.27-21.27,42.53-42.55,63.81-63.81c4.23-4.23,7.12-9.25,8.2-15.07c1.29-7.01,0.67-13.92-2.57-20.43
	c-0.23-0.47-0.37-0.99-0.55-1.48L176.05,201.66z"/>
<path fill="#FFFFFF" d="M106.02,152.32c-0.02,0.5-0.07,1-0.07,1.49c0,42.02,0,84.04,0,126.06c0,0.5,0.04,1,0.07,1.49
	c-4.72,4.58-9.44,9.16-14.06,13.63V138.58c4.65,4.54,9.35,9.13,14.06,13.72V152.32z"/>
<path fill="#FFFFFF" d="M193.98,44.93c-2.26,1.58-4.81,2.87-6.74,4.78c-18.61,18.46-37.1,37.04-55.66,55.56
	c-7.97,7.95-16.03,15.83-24.04,23.74c-0.43,0.43-0.83,0.89-1.25,1.33c-3.66-3.79-7.31-7.59-11.12-11.53
	c0.38-0.34,1.06-0.89,1.67-1.5c24.59-24.58,49.24-49.12,73.73-73.8c5.97-6.01,16.16-5.89,21.93-0.14c0.51,0.5,0.98,1.04,1.47,1.56
	L193.98,44.93z"/>
<path fill="#FEFEFD" d="M296.03,84.99c-1.16,1.58-2.92,0.36-4.35,0.93c-1.88,0.75-3.95,0.98-5.87,1.65
	c-1.21,0.43-2.23,1.36-3.42,1.89c-1.13,0.51-2.51,0.57-3.51,1.23c-3.51,2.31-6.9,4.79-10.58,7.38c-3.33-3.31-6.94-6.88-10.54-10.45
	c4.42-3.2,9.37-5.01,14.72-5.99c8.08-1.48,15.77-0.23,23.2,3.04C295.82,84.73,295.91,84.87,296.03,84.99L296.03,84.99z"/>
<path fill="#FCFCFC" d="M105.91,304.35c0,6.76,0,13.53,0,20.29c-0.21,0.02-0.41,0.03-0.62,0.05c-3.4-3.33-6.8-6.66-9.99-9.78
	c3.53-3.69,6.95-7.26,10.37-10.83C105.75,304.17,105.83,304.26,105.91,304.35z"/>
<path fill="#FDE3BE" d="M105.3,324.69c0.21-0.02,0.41-0.03,0.62-0.05c0.03,0.32,0.05,0.64,0.08,0.97c-0.23-0.3-0.46-0.61-0.69-0.91
	L105.3,324.69z"/>
<path fill="#FECA32" d="M174.92,200.05c0.14,0.18,0.28,0.36,0.42,0.54C175.2,200.41,175.06,200.23,174.92,200.05z"/>
<path fill="#FDE3BE" d="M105.91,304.35c-0.08-0.09-0.16-0.18-0.24-0.27c0.09-0.09,0.17-0.19,0.26-0.28
	C105.93,303.98,105.92,304.17,105.91,304.35z"/>
<path fill="#FECA32" d="M174.68,199.66c0.09,0.13,0.18,0.26,0.26,0.4C174.85,199.93,174.76,199.8,174.68,199.66z"/>
</svg>
