<?xml version="1.0" encoding="UTF-8" standalone="yes"?>
<svg version="1.2" baseProfile="tiny-ps" viewBox="0 0 500 500" xml:space="preserve" xmlns="http://www.w3.org/2000/svg">
  <title>terrapay-bimi</title>
  <g>
    <path fill="#F15B55" d="M108.5,260.4c9.3,1.3,15.2-3.6,15.2-3.6l6.1,8.6c-2.2,2.5-11.4,6.9-20.6,6.9c-26.5,0.8-22.9-23.9-22.9-23.9&#xA;&#x9;&#x9;c0.4-5.5,6.7-26.7,32.2-25.2c25.3,1.4,15.6,29.1,15.6,29.1H99.6C99.6,252.2,99.2,259.1,108.5,260.4z M101.6,242.2h22.2&#xA;&#x9;&#x9;c0,0,0.7-7.4-9.8-7.4C109.6,234.8,104.4,236.8,101.6,242.2z"/>
    <path fill="#23376E" d="M157.6,224.4h-12.7l-8.3,47h13.7l4.2-24.3c0.4-2.6,1.6-5,3.3-7c1.4-1.5,3.3-2.9,6-3.6&#xA;&#x9;&#x9;c7.1-1.9,10.6,1.8,10.6,1.8l7.7-10.7c0,0-3.6-4.3-10.3-4.3c-6.8,0-10.9,3.1-14,6.2L157.6,224.4z"/>
    <path fill="#23376E" d="M200.1,224.4h-12.7l-8.3,47h13.7l4.2-24.3c0.4-2.6,1.6-5,3.3-7c1.4-1.5,3.3-2.9,6-3.6&#xA;&#x9;&#x9;c7.1-1.9,10.6,1.8,10.6,1.8l7.7-10.7c0,0-3.6-4.3-10.3-4.3c-6.8,0-10.9,3.1-14,6.2L200.1,224.4z"/>
    <path fill="#23376E" d="M264.1,224.4h13l-8.6,46.9h-12.1l0.1-5.8c-5.8,5.8-11.4,6.7-17.5,6.7c-12.6-0.1-19.8-10.4-18.2-24.1&#xA;&#x9;&#x9;c1.6-13.8,13.1-23.8,25.7-24.7c13.4-0.9,16.2,6.2,16.2,6.2L264.1,224.4z M259.5,247.3c0,0,1.8-11.9-10.3-11.9&#xA;&#x9;&#x9;c-13.3-0.1-14.6,13.2-14.6,13.2s-1.9,11.8,11,11.7C258,260.1,259.5,247.3,259.5,247.3z"/>
    <path fill="#23376E" d="M76.8,224.3c1.3-7.1,2.3-12.9,2.3-12.9L65.1,213l-2,11.3H51.7L50,235.6h11.2l-3.4,19.5c0,0-1.4,8,1.4,11.7&#xA;&#x9;&#x9;c2.7,3.7,7.8,8,23.6,3.3l-1.1-11.3c0,0-8.9,3.6-10.2-1.7c0,0-0.5-1.5,0.2-4.7c0.2-0.8,0.6-3.4,1.8-10.2l-2.6-6.7h9.4&#xA;&#x9;&#x9;c6.6,0,12.3-4.8,13.4-11.3l0,0L76.8,224.3L76.8,224.3z"/>
    <path fill="#23376E" d="M323.1,225.9c3.1,1.7,5.6,4.1,7.4,7.3c1.8,3.2,2.8,6.9,2.8,11.2c0,5.2-1.1,9.8-3.4,14&#xA;&#x9;&#x9;c-2.3,4.1-5.4,7.4-9.4,9.8c-4,2.4-8.3,3.5-13.2,3.5c-7.1,0-12.2-2.3-15.2-7l-4.6,23.2h-13.6l12.7-63.8h12.9l-1,4.6&#xA;&#x9;&#x9;c3.9-3.5,8.7-5.3,14.4-5.3C316.6,223.3,320,224.2,323.1,225.9z M312.9,258.4c2.1-1.3,3.7-3.1,4.9-5.4c1.2-2.3,1.7-5,1.7-8&#xA;&#x9;&#x9;c0-3.2-1-5.7-2.8-7.6c-1.9-1.9-4.5-2.8-7.9-2.8c-2.6,0-5,0.6-7.1,2c-2.1,1.3-3.7,3.1-4.9,5.4c-1.2,2.3-1.7,5-1.7,8&#xA;&#x9;&#x9;c0,3.2,0.9,5.7,2.8,7.6c1.9,1.9,4.5,2.8,7.8,2.8C308.4,260.4,310.8,259.7,312.9,258.4z"/>
    <path fill="#23376E" d="M392.6,224l-9.3,46.9h-12.9l0.9-4.6c-3.9,3.5-8.7,5.3-14.4,5.3c-3.7,0-7-0.8-10.1-2.5&#xA;&#x9;&#x9;c-3.1-1.7-5.5-4.1-7.4-7.3s-2.8-6.9-2.8-11.2c0-5.2,1.1-9.8,3.4-14c2.3-4.1,5.4-7.4,9.4-9.8c4-2.4,8.3-3.5,13.1-3.5&#xA;&#x9;&#x9;c7.2,0,12.3,2.4,15.2,7.1l1.2-6.4L392.6,224L392.6,224z M368.2,258.4c2.1-1.3,3.7-3.1,4.9-5.4c1.2-2.3,1.7-5,1.7-8&#xA;&#x9;&#x9;c0-3.2-1-5.7-2.8-7.6c-1.9-1.9-4.5-2.8-7.9-2.8c-2.7,0-5.1,0.6-7.1,2c-2.1,1.3-3.7,3.1-4.9,5.4c-1.2,2.3-1.7,5-1.7,8&#xA;&#x9;&#x9;c0,3.2,0.9,5.7,2.8,7.6c1.9,1.9,4.5,2.8,7.9,2.8C363.8,260.4,366.1,259.7,368.2,258.4z"/>
    <path fill="#23376E" d="M450,224l-31.2,50c-3.4,5.5-6.6,9.2-9.8,11.3c-3.2,2.1-7,3.1-11.6,3.1c-2.4,0-4.8-0.4-7.2-1.1&#xA;&#x9;&#x9;c-2.4-0.8-4.2-1.7-5.5-3l6.3-9.8c2.1,1.9,4.6,2.9,7.5,2.9c1.7,0,3.2-0.4,4.5-1.3s2.6-2.4,3.9-4.5l0.4-0.8l-10.8-47h13.6l7,31.9&#xA;&#x9;&#x9;l19.5-31.9L450,224L450,224z"/>
    <polygon fill="#F15B55" points="73.5,242.3 50,235.6 70.9,235.6 &#x9;"/>
  </g>
</svg>