<?xml version="1.0" encoding="utf-8"?>
<!-- Generator: Adobe Illustrator 27.6.1, SVG Export Plug-In . SVG Version: 6.00 Build 0)  -->
<svg version="1.2" baseProfile="tiny-ps" id="レイヤー_1"
	 xmlns="http://www.w3.org/2000/svg" xmlns:xlink="http://www.w3.org/1999/xlink" viewBox="0 0 528 528"
	 xml:space="preserve">
<title>Gaitame.com</title>
<path fill="#009ABE" d="M409,237.8c0,0.4,0.1,0.8,0.1,1.2h-77.3c-10.2-27.6-36.6-47.3-67.7-47.3c-40,0-72.4,32.4-72.4,72.4
	c0,39.9,32.4,72.3,72.4,72.3c31.1,0,57.5-19.8,67.7-47.3h77.3c-11.9,69.4-72.3,122.2-145.1,122.2c-81.4,0-147.4-65.9-147.4-147.2
	c0-81.4,66-147.3,147.4-147.3c53.3,0,100,28.3,125.9,70.9h122.7C480,81.3,381,4,264.1,4C120.4,4,4,120.4,4,264.1
	c0,143.5,116.4,260,260.1,260c143.6,0,259.9-116.4,259.9-260c0-8.8-0.4-17.7-1.3-26.3H409z"/>
</svg>
