<?xml version="1.0"?>
<svg xmlns="http://www.w3.org/2000/svg" width="600" height="600" viewBox="0 0 600 600" fill="none" version="1.2" baseProfile="tiny-ps">
<title>株式会社アドフレックス・コミュニケーションズ</title>
<rect width="600" height="600" fill="#fff"/>
<path d="M208.653 371.251C212.123 371.251 214.935 368.427 214.935 364.945C214.935 361.462 212.123 358.639 208.653 358.639C205.183 358.639 202.371 361.462 202.371 364.945C202.371 368.427 205.183 371.251 208.653 371.251Z" fill="#3E3A39"/>
<path d="M170.958 371.251C174.428 371.251 177.24 368.427 177.24 364.945C177.24 361.462 174.428 358.639 170.958 358.639C167.489 358.639 164.676 361.462 164.676 364.945C164.676 368.427 167.489 371.251 170.958 371.251Z" fill="#3E3A39"/>
<path d="M133.358 371.251C136.828 371.251 139.641 368.427 139.641 364.945C139.641 361.462 136.828 358.639 133.358 358.639C129.889 358.639 127.076 361.462 127.076 364.945C127.076 368.427 129.889 371.251 133.358 371.251Z" fill="#3E3A39"/>
<path d="M95.6845 371.251C99.154 371.251 101.967 368.427 101.967 364.945C101.967 361.462 99.154 358.639 95.6845 358.639C92.215 358.639 89.4023 361.462 89.4023 364.945C89.4023 368.427 92.215 371.251 95.6845 371.251Z" fill="#3E3A39"/>
<path d="M76.8564 352.333C80.3259 352.333 83.1385 349.509 83.1385 346.027C83.1385 342.544 80.3259 339.721 76.8564 339.721C73.3868 339.721 70.5742 342.544 70.5742 346.027C70.5742 349.509 73.3868 352.333 76.8564 352.333Z" fill="#3E3A39"/>
<path d="M114.55 352.333C118.019 352.333 120.832 349.51 120.832 346.027C120.832 342.545 118.019 339.721 114.55 339.721C111.081 339.721 108.268 342.545 108.268 346.027C108.268 349.51 111.081 352.333 114.55 352.333Z" fill="#3E3A39"/>
<path d="M152.149 352.333C155.619 352.333 158.432 349.51 158.432 346.027C158.432 342.545 155.619 339.721 152.149 339.721C148.68 339.721 145.867 342.545 145.867 346.027C145.867 349.51 148.68 352.333 152.149 352.333Z" fill="#3E3A39"/>
<path d="M189.825 352.333C193.295 352.333 196.107 349.51 196.107 346.027C196.107 342.545 193.295 339.721 189.825 339.721C186.356 339.721 183.543 342.545 183.543 346.027C183.543 349.51 186.356 352.333 189.825 352.333Z" fill="#3E3A39"/>
<path d="M208.653 333.432C212.123 333.432 214.935 330.609 214.935 327.126C214.935 323.644 212.123 320.82 208.653 320.82C205.183 320.82 202.371 323.644 202.371 327.126C202.371 330.609 205.183 333.432 208.653 333.432Z" fill="#3E3A39"/>
<path d="M170.958 333.432C174.428 333.432 177.24 330.609 177.24 327.126C177.24 323.644 174.428 320.82 170.958 320.82C167.489 320.82 164.676 323.644 164.676 327.126C164.676 330.609 167.489 333.432 170.958 333.432Z" fill="#3E3A39"/>
<path d="M133.358 333.432C136.828 333.432 139.641 330.609 139.641 327.126C139.641 323.644 136.828 320.82 133.358 320.82C129.889 320.82 127.076 323.644 127.076 327.126C127.076 330.609 129.889 333.432 133.358 333.432Z" fill="#3E3A39"/>
<path d="M95.6845 333.432C99.154 333.432 101.967 330.609 101.967 327.126C101.967 323.644 99.154 320.82 95.6845 320.82C92.215 320.82 89.4023 323.644 89.4023 327.126C89.4023 330.609 92.215 333.432 95.6845 333.432Z" fill="#3E3A39"/>
<path d="M76.8564 314.533C80.3259 314.533 83.1385 311.709 83.1385 308.226C83.1385 304.743 80.3259 301.92 76.8564 301.92C73.3868 301.92 70.5742 304.743 70.5742 308.226C70.5742 311.709 73.3868 314.533 76.8564 314.533Z" fill="#3E3A39"/>
<path d="M114.55 314.533C118.019 314.533 120.832 311.709 120.832 308.226C120.832 304.743 118.019 301.92 114.55 301.92C111.081 301.92 108.268 304.743 108.268 308.226C108.268 311.709 111.081 314.533 114.55 314.533Z" fill="#3E3A39"/>
<path d="M152.149 314.533C155.619 314.533 158.432 311.709 158.432 308.226C158.432 304.743 155.619 301.92 152.149 301.92C148.68 301.92 145.867 304.743 145.867 308.226C145.867 311.709 148.68 314.533 152.149 314.533Z" fill="#3E3A39"/>
<path d="M189.825 314.533C193.295 314.533 196.107 311.709 196.107 308.226C196.107 304.743 193.295 301.92 189.825 301.92C186.356 301.92 183.543 304.743 183.543 308.226C183.543 311.709 186.356 314.533 189.825 314.533Z" fill="#3E3A39"/>
<path d="M208.653 295.576C212.123 295.576 214.935 292.752 214.935 289.269C214.935 285.786 212.123 282.963 208.653 282.963C205.183 282.963 202.371 285.786 202.371 289.269C202.371 292.752 205.183 295.576 208.653 295.576Z" fill="#3E3A39"/>
<path d="M170.958 295.576C174.428 295.576 177.24 292.752 177.24 289.269C177.24 285.786 174.428 282.963 170.958 282.963C167.489 282.963 164.676 285.786 164.676 289.269C164.676 292.752 167.489 295.576 170.958 295.576Z" fill="#3E3A39"/>
<path d="M133.358 295.576C136.828 295.576 139.641 292.752 139.641 289.269C139.641 285.786 136.828 282.963 133.358 282.963C129.889 282.963 127.076 285.786 127.076 289.269C127.076 292.752 129.889 295.576 133.358 295.576Z" fill="#3E3A39"/>
<path d="M95.6845 295.576C99.154 295.576 101.967 292.752 101.967 289.269C101.967 285.786 99.154 282.963 95.6845 282.963C92.215 282.963 89.4023 285.786 89.4023 289.269C89.4023 292.752 92.215 295.576 95.6845 295.576Z" fill="#3E3A39"/>
<path d="M76.8564 276.658C80.3259 276.658 83.1385 273.834 83.1385 270.351C83.1385 266.868 80.3259 264.045 76.8564 264.045C73.3868 264.045 70.5742 266.868 70.5742 270.351C70.5742 273.834 73.3868 276.658 76.8564 276.658Z" fill="#3E3A39"/>
<path d="M114.55 276.658C118.019 276.658 120.832 273.834 120.832 270.351C120.832 266.868 118.019 264.045 114.55 264.045C111.081 264.045 108.268 266.868 108.268 270.351C108.268 273.834 111.081 276.658 114.55 276.658Z" fill="#3E3A39"/>
<path d="M152.149 276.658C155.619 276.658 158.432 273.834 158.432 270.351C158.432 266.868 155.619 264.045 152.149 264.045C148.68 264.045 145.867 266.868 145.867 270.351C145.867 273.834 148.68 276.658 152.149 276.658Z" fill="#3E3A39"/>
<path d="M189.825 276.658C193.295 276.658 196.107 273.834 196.107 270.351C196.107 266.868 193.295 264.045 189.825 264.045C186.356 264.045 183.543 266.868 183.543 270.351C183.543 273.834 186.356 276.658 189.825 276.658Z" fill="#3E3A39"/>
<path d="M208.653 257.738C212.123 257.738 214.935 254.914 214.935 251.431C214.935 247.948 212.123 245.125 208.653 245.125C205.183 245.125 202.371 247.948 202.371 251.431C202.371 254.914 205.183 257.738 208.653 257.738Z" fill="#3E3A39"/>
<path d="M170.958 257.738C174.428 257.738 177.24 254.914 177.24 251.431C177.24 247.948 174.428 245.125 170.958 245.125C167.489 245.125 164.676 247.948 164.676 251.431C164.676 254.914 167.489 257.738 170.958 257.738Z" fill="#3E3A39"/>
<path d="M133.358 257.738C136.828 257.738 139.641 254.914 139.641 251.431C139.641 247.948 136.828 245.125 133.358 245.125C129.889 245.125 127.076 247.948 127.076 251.431C127.076 254.914 129.889 257.738 133.358 257.738Z" fill="#3E3A39"/>
<path d="M95.6845 257.738C99.154 257.738 101.967 254.914 101.967 251.431C101.967 247.948 99.154 245.125 95.6845 245.125C92.215 245.125 89.4023 247.948 89.4023 251.431C89.4023 254.914 92.215 257.738 95.6845 257.738Z" fill="#3E3A39"/>
<path d="M76.8564 238.839C80.3259 238.839 83.1385 236.016 83.1385 232.533C83.1385 229.05 80.3259 226.227 76.8564 226.227C73.3868 226.227 70.5742 229.05 70.5742 232.533C70.5742 236.016 73.3868 238.839 76.8564 238.839Z" fill="#3E3A39"/>
<path d="M114.55 238.839C118.019 238.839 120.832 236.016 120.832 232.533C120.832 229.05 118.019 226.227 114.55 226.227C111.081 226.227 108.268 229.05 108.268 232.533C108.268 236.016 111.081 238.839 114.55 238.839Z" fill="#3E3A39"/>
<path d="M152.149 238.839C155.619 238.839 158.432 236.016 158.432 232.533C158.432 229.05 155.619 226.227 152.149 226.227C148.68 226.227 145.867 229.05 145.867 232.533C145.867 236.016 148.68 238.839 152.149 238.839Z" fill="#3E3A39"/>
<path d="M189.825 238.839C193.295 238.839 196.107 236.016 196.107 232.533C196.107 229.05 193.295 226.227 189.825 226.227C186.356 226.227 183.543 229.05 183.543 232.533C183.543 236.016 186.356 238.839 189.825 238.839Z" fill="#3E3A39"/>
<path d="M364.469 370.988V315.53C364.469 309.186 366.363 304.273 370.151 300.809C373.938 297.345 378.927 295.613 385.115 295.613H390.722C391.585 295.613 392.26 295.859 392.747 296.366C393.235 296.875 393.479 297.553 393.479 298.399V305.383C393.479 306.249 393.235 306.909 392.747 307.398C392.26 307.887 391.585 308.113 390.722 308.113H385.134C383.24 308.113 381.627 308.772 380.333 310.09C379.02 311.408 378.364 312.989 378.364 314.834V320.82H390.835C392.598 320.82 393.479 321.723 393.479 323.512V330.421C393.479 332.209 392.598 333.113 390.835 333.113H378.364L378.214 371.007C378.214 372.832 377.295 373.755 375.457 373.755H367.281C366.419 373.755 365.725 373.51 365.219 373.021C364.712 372.531 364.469 371.854 364.469 370.988Z" fill="#3E3A39"/>
<path d="M400.172 353.801V298.381C400.172 297.515 400.416 296.818 400.923 296.329C401.429 295.821 402.104 295.576 402.966 295.576H411.293C412.155 295.576 412.83 295.821 413.337 296.329C413.843 296.837 414.087 297.515 414.087 298.381V354.008C414.087 355.815 414.574 357.227 415.531 358.262C416.487 359.279 417.744 359.806 419.319 359.806H420.519C422.019 359.806 422.769 360.728 422.769 362.573V371.007C422.769 371.873 422.525 372.551 422.019 373.04C421.513 373.529 420.837 373.774 419.975 373.774H419.037C412.53 373.774 407.767 372.193 404.748 369.012C401.729 365.83 400.21 360.766 400.21 353.82L400.172 353.801Z" fill="#3E3A39"/>
<path d="M424.609 345.499C424.609 337.875 427.253 331.418 432.523 326.166C437.792 320.914 444.262 318.297 451.913 318.297C459.564 318.297 465.621 320.951 470.628 326.278C475.635 331.606 478.392 338.722 478.898 347.645V347.908C478.898 349.584 477.979 350.431 476.142 350.431H438.824C440.043 353.763 441.955 356.285 444.581 358.017C447.206 359.749 450.038 360.615 453.095 360.615C457.239 360.615 461.308 359.166 465.283 356.267C465.94 355.871 466.522 355.683 467.046 355.683C467.834 355.683 468.528 356.079 469.128 356.888L473.797 362.46C474.341 363.194 474.623 363.853 474.623 364.456C474.623 365.189 474.21 365.848 473.385 366.451C467.197 371.307 460.333 373.755 452.832 373.755C447.581 373.755 442.781 372.475 438.43 369.914C434.079 367.354 430.703 363.928 428.266 359.599C425.828 355.269 424.609 350.581 424.609 345.499ZM438.936 339.663H463.896C463.334 336.934 461.946 334.618 459.714 332.735C457.482 330.853 454.782 329.893 451.594 329.893C448.406 329.893 445.631 330.797 443.268 332.622C440.905 334.449 439.461 336.783 438.936 339.663Z" fill="#3E3A39"/>
<path d="M478.728 372.777C478.615 372.551 478.578 372.344 478.578 372.118C478.578 371.609 478.803 371.045 479.253 370.442L496.225 345.839L479.459 321.461C478.841 320.519 478.672 319.729 478.99 319.107C479.31 318.467 480.003 318.166 481.072 318.166H491.143C492.568 318.166 493.674 318.768 494.462 319.955L503.594 333.527L512.933 319.955C513.721 318.768 514.789 318.166 516.102 318.166H526.229C527.335 318.166 528.066 318.486 528.404 319.107C528.742 319.747 528.591 320.519 527.935 321.461L511.114 345.839L528.141 370.442C528.554 371.064 528.76 371.609 528.76 372.118C528.76 372.344 528.704 372.551 528.61 372.777C528.292 373.436 527.597 373.755 526.529 373.755H516.458C515.033 373.755 513.927 373.153 513.139 371.967L503.594 358.771L494.255 371.967C493.524 373.153 492.417 373.755 490.936 373.755H480.81C479.741 373.755 479.047 373.436 478.728 372.777Z" fill="#3E3A39"/>
<path d="M355.486 296.329C354.998 295.821 354.323 295.576 353.46 295.576H345.153C344.253 295.576 343.559 295.821 343.053 296.329C342.546 296.837 342.303 297.515 342.303 298.381V322.458C341.665 321.987 340.99 321.535 340.296 321.159C336.883 319.258 333.095 318.297 328.913 318.297C322.969 318.297 317.567 320.067 312.73 323.587C310.442 325.263 308.416 327.296 306.766 329.611C303.259 334.506 301.516 339.965 301.516 346.027C301.516 352.088 303.259 357.528 306.747 362.404C308.398 364.719 310.423 366.753 312.711 368.428C317.549 371.967 322.969 373.755 328.913 373.755C334.857 373.755 339.865 372.024 344.647 368.541V371.327C344.647 372.946 345.453 373.755 347.085 373.755H353.46C354.323 373.755 354.998 373.511 355.486 373.021C355.973 372.532 356.217 371.854 356.217 370.988V298.381C356.217 297.515 355.973 296.818 355.486 296.329ZM338.534 355.552C335.889 358.225 332.739 359.561 329.119 359.561C325.5 359.561 322.312 358.225 319.668 355.571C317.043 352.916 315.73 349.735 315.73 346.007C315.73 342.28 317.043 339.118 319.668 336.445C322.294 333.791 325.444 332.454 329.119 332.454C332.795 332.454 335.889 333.791 338.534 336.463C341.178 339.136 342.509 342.318 342.509 345.989C342.509 349.659 341.178 352.841 338.534 355.514V355.552Z" fill="#3E3A39"/>
<path d="M294.033 319.05C293.545 318.541 292.87 318.297 292.007 318.297H283.7C282.799 318.297 282.106 318.541 281.6 319.05C281.093 319.558 280.85 320.236 280.85 321.102V322.457C280.212 321.987 279.537 321.535 278.843 321.158C275.43 319.257 271.642 318.297 267.46 318.297C261.515 318.297 256.114 320.067 251.276 323.587C248.989 325.262 246.963 327.295 245.313 329.611C241.806 334.505 240.062 339.965 240.062 346.026C240.062 352.088 241.806 357.528 245.294 362.403C246.945 364.719 248.97 366.752 251.258 368.428C256.096 371.967 261.515 373.755 267.46 373.755C273.404 373.755 278.412 372.023 283.194 368.541V371.327C283.194 372.945 284 373.755 285.632 373.755H292.007C292.87 373.755 293.545 373.51 294.033 373.021C294.52 372.531 294.764 371.854 294.764 370.988V321.102C294.764 320.236 294.52 319.54 294.033 319.05ZM277.08 355.552C274.436 358.224 271.286 359.561 267.666 359.561C264.047 359.561 260.859 358.224 258.215 355.57C255.59 352.916 254.277 349.735 254.277 346.007C254.277 342.28 255.59 339.117 258.215 336.444C260.84 333.79 263.991 332.454 267.666 332.454C271.341 332.454 274.436 333.79 277.08 336.463C279.724 339.136 281.056 342.317 281.056 345.988C281.056 349.659 279.724 352.841 277.08 355.514V355.552Z" fill="#3E3A39"/>
</svg>
