<svg xmlns="http://www.w3.org/2000/svg" xmlns:xlink="http://www.w3.org/1999/xlink" version="1.2" viewBox="0 0 1300 1300" baseProfile="tiny-ps">
  <title>SWAROVSKI</title>
  <g id="Layer_1">
    <g id="background_x5F_marshmallow">
      <rect width="1300" height="1300" fill="#F0EEE4"/>
    </g>
    <g id="Layer_1_1_">
      <path d="M772.709,754.285c1.922,12.949,4.517,24.708,7.726,35.512c0.436,1.468,0.729,2.624,0.737,3.641    c0.019,2.541-2.603,3.764-5.938,1.16c-2.907-2.271-6.718-7.141-10.954-15.532c-4.193-8.306-8.022-20.05-12.965-36.157    C741,709.28,728.414,664.46,680.159,617.891c-67.21-64.862-125.135-94.565-204.534-171.577    c-10.445-10.131-9.831-10.879-6.452-26.242c5.341-24.281,14.227-49.002,19.437-59.453c3.089-6.196,7.454-6.755,11.698-1.9    c1.375,1.572,2.9,3.581,4.635,5.982c89.531,123.911,149.078,164.123,211.768,237.55    C769.054,663.562,767.826,721.402,772.709,754.285z M763.665,369.123c12.5,10.767,24.853,17.127,35.023,25.276    c10.594,8.488,25.275,26.696,38.486,37.728c2.829,2.362,5.798,3.723,9.543,3.032c5.098-0.943,6.355-6.964,3.498-10.961    c-30.329-42.397-22.071-74.219-35.055-106.136c-14.503-35.652-60.159-75.762-119.766-63.336    c-62.796,13.091-106.866,86.861-41.617,183.813c46.297,68.795,138.231,144.154,185.572,213.965    c58.134,85.722,27.859,174.137-34.461,173.097c-28.472-0.475-48.806-20.218-59.066-44.051    c-17.91-41.603-17.994-90.338-79.266-150.001c-71.281-69.41-152.434-100.777-266.475-222.705    c-1.944-2.079-3.634-3.718-5.128-4.907c-9.272-7.377-12.194,6.881-15.533,18.811c-52.713,188.33,18.9,268.353,84.396,327.878    c24.845,22.58,56.467,44.7,71.542,64.411c5.396,7.056,8.524,14.234,8.309,20.955c-0.466,14.637-15.487,19.431-24.888,22.072    c-13.274,3.729-71.496,12.295-118.845,48.661c-9.825,7.546-8.367,11.322,1.082,17.691c3.687,2.485,8.409,5.473,13.963,9.323    c103.885,72.019,160.868,110.357,258.618,111.988c95.941,1.601,182.291-50.542,227.13-129.536    c30.071-52.978,37.355-111.26,28.603-165.476c-13.472-83.457-58.941-135.373-102.639-180.389    c-57.9-59.646-123.181-112.886-154.119-172.694c-15.063-29.112-16.326-54.687-10.303-70.937    c9.263-24.993,33.171-30.514,48.709-22.668C732.899,315.099,731.738,341.623,763.665,369.123z M1072.34,854.763    c-2.275,33.32-5.504,45.389-21.708,70.385c-37.64,58.062-128.828,167.689-186.903,218.607    c-19.945,17.488-27.889,22.624-60.457,28.604c-76.561,14.057-229.813,14.088-306.54,0c-32.567-5.98-40.511-11.116-60.457-28.604    c-58.074-50.918-149.263-160.546-186.903-218.607c-16.204-24.996-19.433-37.065-21.708-70.385    c-6.59-96.495-6.161-319.322,0-409.525c2.275-33.32,5.504-45.389,21.708-70.385c37.64-58.062,128.828-167.689,186.903-218.607    c19.945-17.488,27.889-22.624,60.457-28.604c76.728-14.088,229.979-14.057,306.54,0c32.567,5.98,40.511,11.116,60.457,28.604    c58.074,50.918,149.263,160.546,186.903,218.607c16.204,24.996,19.433,37.065,21.708,70.385    C1078.565,536.394,1078.856,759.352,1072.34,854.763z M1029.565,443.624c-2.049-28.789-5.278-39.3-18.336-59.144    c-36.999-56.227-128.943-167.084-182.685-212.306c-28.549-24.023-36.395-25.246-61.08-28.642    c-61.766-8.497-173.345-8.471-234.924,0c-24.685,3.396-32.531,4.619-61.08,28.642c-53.742,45.222-145.686,156.08-182.685,212.306    c-13.058,19.844-16.287,30.355-18.336,59.144c-6.365,89.49-6.637,319.453,0,412.752c2.049,28.789,5.278,39.3,18.336,59.144    c36.999,56.227,128.943,167.084,182.685,212.306c28.549,24.023,36.395,25.246,61.08,28.642c61.578,8.471,173.157,8.497,234.924,0    c24.685-3.396,32.531-4.619,61.08-28.642c53.742-45.222,145.686-156.08,182.685-212.306    c13.058-19.844,16.287-30.355,18.336-59.144C1036.177,763.426,1035.935,533.18,1029.565,443.624z" fill="#8C8985"/>
    </g>
  </g>
  <g id="Layer_2"/>
</svg>