<?xml version="1.0" encoding="utf-8"?>
<!-- Generator: Adobe Illustrator 27.7.0, SVG Export Plug-In . SVG Version: 6.00 Build 0)  -->
<svg version="1.2" baseProfile="tiny-ps" id="Layer_1" xmlns="http://www.w3.org/2000/svg" xmlns:xlink="http://www.w3.org/1999/xlink"
	 viewBox="0 0 400 400" xml:space="preserve">
<title>Physicians Mutual</title>
<g>
	<rect x="0" y="-1.38" fill="#FFFFFF" width="400" height="400"/>
	<g>
		<g>
			<path fill="#009C89" d="M163.44,97c-23.05,2.28-40.84,18.64-52.44,29.91c-15.74-3.56-30.09-3.63-42.65-0.16
				c-11.65,3.21-21.22,9.36-27.67,17.79c-5.66,7.39-6.81,16.51-2.91,23.24c3.88,6.7,11.79,9.79,21.7,8.47
				c17.62-2.35,32.6-17.56,48.47-33.67c12.73-12.93,34.57-37.06,61.7-38.61L163.44,97z M58.29,167.44
				c-0.84,0.11-1.64,0.18-2.41,0.21c2.72-5.65,7.28-10.13,13.37-13.06c5.06-2.44,11.08-3.74,17.74-3.89
				C77.42,159.44,68,166.15,58.29,167.44z M101.59,136.34c-1.94,1.97-3.87,3.93-5.78,5.84c-11.48-1.18-21.94,0.3-30.43,4.39
				c-8.48,4.09-14.71,10.56-18.19,18.77c-0.7-0.57-1.3-1.24-1.75-2.02c-2.08-3.6-1.19-8.86,2.27-13.39
				c5.27-6.88,13.22-11.94,22.98-14.63c9.67-2.66,20.67-2.94,32.75-0.85C102.83,135.09,102.22,135.72,101.59,136.34z"/>
			<path fill="#0B6CB6" d="M196.69,135.84c-3.88-6.7-11.79-9.79-21.71-8.47c-17.62,2.34-32.6,17.56-48.46,33.67
				c-12.66,12.86-34.18,36.62-62.32,38.88l6.19,6.95c22.52-2.31,41.54-18.97,53.06-30.16c15.74,3.56,30.08,3.63,42.65,0.16
				c11.64-3.21,21.22-9.36,27.67-17.79C199.45,151.69,200.59,142.57,196.69,135.84z M176.16,136.17c0.84-0.11,1.64-0.17,2.41-0.2
				c-2.72,5.65-7.29,10.13-13.36,13.07c-5.07,2.44-11.09,3.74-17.74,3.89C157.03,144.18,166.45,137.47,176.16,136.17z
				 M186.73,153.68c-5.27,6.88-13.22,11.93-22.98,14.63c-9.67,2.67-20.67,2.94-32.75,0.86c0.62-0.63,1.24-1.26,1.86-1.89
				c1.94-1.97,3.87-3.93,5.78-5.84c11.48,1.18,21.94-0.3,30.43-4.39c8.48-4.09,14.71-10.56,18.19-18.77c0.7,0.57,1.3,1.24,1.75,2.02
				C191.09,143.89,190.2,149.15,186.73,153.68z"/>
			<path fill="#FEBD10" d="M175.96,111.03c-28.2,0.2-50.19,26.18-62.21,37.97c-12.39,12.16-35.77,40.06-63.41,35.11l7.45,8.52
				c28.33,0.13,48.86-23.88,62.31-37.42c12.99-13.08,36.25-39.71,62.81-36.21L175.96,111.03z"/>
		</g>
		<g>
			<path d="M149.37,206.44c2.44,0.11,4.88,0.11,7.31,0.11c1.84,0,3.74-0.11,6.01-0.11c5.58,0,13.6,2.33,13.6,10.78
				c0,6.39-5.96,10.84-11.65,10.84c-1.08,0-1.95-0.05-2.76-0.05v-1.79c0.7,0.11,1.35,0.11,2.06,0.11c4.66,0,6.72-4.61,6.72-8.51
				c0-7.53-5.26-9.64-8.83-9.64c-0.81,0-1.79,0.05-2.38,0.16v30.61c0,3.79,2.06,3.85,4.98,3.9v1.41c-2.65,0-4.99-0.11-7.37-0.11
				c-2.6,0-5.15,0.05-7.86,0.11v-1.41c2.87-0.05,4.93-0.11,4.93-3.9v-25.79c0-4.17-0.7-5.31-4.77-5.31V206.44z"/>
			<path d="M180.41,210.88c0-3.52-0.81-3.63-2.87-4.23v-0.87c2.17-0.71,4.44-1.68,5.58-2.33c0.6-0.33,1.03-0.6,1.19-0.6
				c0.32,0,0.43,0.32,0.43,0.76v20.65c0.49-0.44,3.96-4.77,8.34-4.77c4.71,0,7.26,3.47,7.26,8.18v13.38c0,1.79,1.19,1.79,2.71,1.79
				h0.97v1.41c-1.9,0-3.79-0.11-5.85-0.11c-1.95,0-3.9,0.05-5.85,0.11v-1.41h0.97c2.55,0,2.71-0.6,2.71-5.91v-6.12
				c0-3.95-0.38-8.07-5.31-8.07c-2.55,0-4.71,1.9-5.96,3.03v15.28c0,1.79,1.19,1.79,2.71,1.79h0.98v1.41c-1.9,0-3.79-0.11-5.74-0.11
				s-3.9,0.05-5.85,0.11v-1.41h0.97c1.52,0,2.6,0,2.6-1.79V210.88z"/>
			<path d="M202.36,220.31c2.11,0.05,4.17,0.11,6.28,0.11c1.63,0,3.25-0.11,4.88-0.11v1.41c-1.03,0.11-2.98,0.05-2.98,1.46
				c0,1.52,4.88,12.35,5.47,14.58h0.11c1.14-3.14,5.36-12.25,5.36-13.76c0-2.27-1.73-2.27-3.03-2.27v-1.41
				c1.68,0.05,3.42,0.11,5.09,0.11c1.36,0,2.71-0.05,4.07-0.11v1.41c-2.55-0.05-3.31,1.41-4.28,3.47l-12.25,28.72
				c-0.81,1.9-1.9,2.71-3.47,2.71c-1.63,0-2.66-1.19-2.66-2.6c0-1.3,1.14-2.71,2.6-2.71c0.92,0,1.46,0.11,2.22,0.81
				c2.66-5.63,3.79-8.72,3.79-8.72c0-0.05-7.15-18.42-7.8-19.67c-0.76-1.36-1.68-2.17-3.41-2V220.31z"/>
			<path d="M229.5,236.73c0.71,3.58,2.87,6.61,6.83,6.61c3.2,0,4.39-1.95,4.39-3.85c0-6.39-11.81-4.33-11.81-13.06
				c0-3.03,2.44-6.93,8.4-6.93c1.74,0,4.06,0.49,6.18,1.57l0.38,5.53h-1.24c-0.54-3.41-2.44-5.37-5.91-5.37
				c-2.17,0-4.23,1.25-4.23,3.58c0,6.34,12.57,4.39,12.57,12.9c0,3.58-2.87,7.37-9.32,7.37c-2.17,0-4.71-0.76-6.61-1.84l-0.6-6.23
				L229.5,236.73z"/>
			<path d="M246.57,242.85h1.03c1.52,0,2.6,0,2.6-1.79v-14.68c0-2.39-0.81-2.71-2.82-3.79v-0.87c2.55-0.76,5.58-1.79,5.8-1.95
				c0.38-0.21,0.71-0.27,0.98-0.27c0.27,0,0.38,0.32,0.38,0.76v20.81c0,1.79,1.19,1.79,2.71,1.79h0.92v1.41
				c-1.84,0-3.74-0.11-5.69-0.11c-1.95,0-3.9,0.05-5.91,0.11V242.85z M252.37,211.15c-1.41,0-2.66-1.3-2.66-2.71
				c0-1.35,1.3-2.6,2.66-2.6c1.41,0,2.66,1.14,2.66,2.6C255.03,209.91,253.83,211.15,252.37,211.15z"/>
			<path d="M280.66,239.44c-2.66,3.09-6.29,5.64-10.57,5.64c-5.63,0-10.78-5.47-10.78-11.22c0-7.86,5.63-14.36,13.44-14.36
				c2.76,0,7.32,0.87,7.32,3.74c0,1.24-0.76,2.38-2.06,2.38c-2.28,0-2.17-4.39-7.26-4.39c-4.66,0-7.1,5.2-7.1,9.32
				c0,5.58,3.58,10.51,9.48,10.51c2.76,0,4.55-0.97,6.61-2.55L280.66,239.44z"/>
			<path d="M282.33,242.85h1.03c1.52,0,2.6,0,2.6-1.79v-14.68c0-2.39-0.81-2.71-2.82-3.79v-0.87c2.55-0.76,5.58-1.79,5.79-1.95
				c0.38-0.21,0.71-0.27,0.98-0.27c0.27,0,0.38,0.32,0.38,0.76v20.81c0,1.79,1.19,1.79,2.71,1.79h0.92v1.41
				c-1.84,0-3.74-0.11-5.69-0.11c-1.95,0-3.9,0.05-5.91,0.11V242.85z M288.13,211.15c-1.41,0-2.66-1.3-2.66-2.71
				c0-1.35,1.3-2.6,2.66-2.6c1.41,0,2.66,1.14,2.66,2.6C290.79,209.91,289.59,211.15,288.13,211.15z"/>
			<path d="M318.31,242.15c-1.52,1.41-3.2,2.93-5.37,2.93c-2.22,0-3.25-2.06-3.36-4.01c-2.55,2.33-4.99,4.01-8.34,4.01
				c-3.47,0-5.85-2.39-5.85-5.26c0.22-4.34,2.44-5.15,14.14-9.16v-3.58c0-3.03-1.79-4.66-5.26-4.66c-2.38,0-4.01,1.36-4.12,3.79
				c0,1.52-1.73,2.28-3.03,2.28c-0.81,0-0.97-0.71-0.97-1.08c0-2.87,2.44-4.23,6.23-6.18c1.9-0.97,2.82-1.73,4.87-1.73
				c2.44,0,6.61,1.57,6.61,4.55v15.01c0,2.22,0.76,3.09,1.95,3.09c0.7,0,1.52-0.32,2-0.92L318.31,242.15z M309.53,232.23
				c-2.76,1.08-9.81,2.33-9.81,6.39c0,2.11,1.73,3.9,3.85,3.9c2.55,0,4.17-1.57,5.96-3.14V232.23z"/>
			<path d="M322.97,226.7c0-2-0.6-2.55-3.14-3.58v-1.03c2.33-0.76,4.55-1.46,7.15-2.6c0.16,0,0.33,0.11,0.33,0.54v3.52
				c3.09-2.22,5.74-4.06,9.37-4.06c4.61,0,6.23,3.36,6.23,7.58v13.98c0,1.79,1.19,1.79,2.71,1.79h0.97v1.41
				c-1.9,0-3.79-0.11-5.74-0.11s-3.9,0.05-5.85,0.11v-1.41h0.97c1.52,0,2.6,0,2.6-1.79v-14.03c0-3.09-1.9-4.61-4.98-4.61
				c-1.74,0-4.5,1.41-6.29,2.6v16.04c0,1.79,1.19,1.79,2.71,1.79h0.98v1.41c-1.9,0-3.79-0.11-5.74-0.11c-1.95,0-3.9,0.05-5.85,0.11
				v-1.41h0.97c1.52,0,2.6,0,2.6-1.79V226.7z"/>
			<path d="M348.98,236.73c0.71,3.58,2.87,6.61,6.83,6.61c3.2,0,4.39-1.95,4.39-3.85c0-6.39-11.81-4.33-11.81-13.06
				c0-3.03,2.44-6.93,8.4-6.93c1.74,0,4.06,0.49,6.18,1.57l0.38,5.53h-1.25c-0.54-3.41-2.44-5.37-5.91-5.37
				c-2.16,0-4.23,1.25-4.23,3.58c0,6.34,12.57,4.39,12.57,12.9c0,3.58-2.87,7.37-9.32,7.37c-2.17,0-4.71-0.76-6.61-1.84L348,237
				L348.98,236.73z"/>
			<path d="M120.03,282.76c4.88-10.13,10.13-20.1,14.63-30.4c1.46,0.05,2.98,0.11,4.44,0.11c1.57,0,3.2-0.11,4.77-0.11v1.41
				c-1.84,0-3.09,0.11-3.79,0.65c-0.7,0.54-1.03,1.46-1.03,3.25c0,8.56,0.49,17.66,0.7,25.84c0.11,4.06,0.49,5.26,5.91,5.26l0,1.41
				c-2.98,0-5.96-0.11-8.94-0.11c-2.66,0-5.26,0.05-7.91,0.11v-1.41c1.9,0,3.25,0,4.17-0.49c0.97-0.54,1.41-1.57,1.41-3.68
				l-0.38-25.84h-0.11l-12.79,26.55c-0.6,1.3-1.68,3.95-2.11,5.36h-1.08c-4.61-10.35-9.81-20.48-14.96-30.72h-0.11l-0.43,19.62
				c0,0.7-0.05,2.66-0.05,3.41c0,2.66,0.27,4.12,1.14,4.88c0.87,0.76,2.22,0.92,4.39,0.92l0,1.41c-2.22,0-4.5-0.11-6.72-0.11
				c-2.38,0-4.82,0.05-7.21,0.11v-1.41c3.85,0,6.23-0.92,6.45-8.18c0.22-7.42,0.6-14.79,0.6-22.22c0-1.9-0.27-3.09-1.03-3.74
				c-0.76-0.65-1.95-0.87-3.74-0.87v-1.41c1.9,0.05,3.85,0.11,5.74,0.11c1.14,0,2.33-0.11,3.47-0.11L120.03,282.76z"/>
			<path d="M167.32,287.21c0,0.97,0.6,1.03,1.52,1.03c0.65,0,1.46-0.05,2.17-0.05v1.14c-2.33,0.21-6.77,1.35-7.8,1.68l-0.27-0.16
				v-4.39c-3.25,2.66-5.74,4.55-9.59,4.55c-2.93,0-5.96-1.9-5.96-6.45v-13.87c0-1.41-0.22-2.76-3.25-3.03v-1.03
				c1.95-0.05,6.28-0.38,6.99-0.38c0.6,0,0.6,0.38,0.6,1.57v13.98c0,1.63,0,6.29,4.71,6.29c1.84,0,4.28-1.41,6.56-3.3V270.2
				c0-1.08-2.6-1.68-4.55-2.22V267c4.88-0.33,7.91-0.76,8.45-0.76c0.43,0,0.43,0.38,0.43,0.97V287.21z"/>
			<path d="M178.75,283.52c0,3.58,1.95,4.55,3.41,4.55c1.46,0,2.55-0.49,3.79-1.57l0.81,0.81c-1.9,1.95-4.28,3.68-7.21,3.68
				c-3.47,0-5.15-1.84-5.15-5.04v-16.79h-3.58v-0.87c2.82-2.17,4.5-3.2,7.26-7.58h0.65v5.53h8.07v2.93h-8.07V283.52z"/>
			<path d="M212.14,287.21c0,0.97,0.6,1.03,1.52,1.03c0.65,0,1.46-0.05,2.16-0.05v1.14c-2.33,0.21-6.77,1.35-7.8,1.68l-0.27-0.16
				v-4.39c-3.25,2.66-5.74,4.55-9.59,4.55c-2.93,0-5.96-1.9-5.96-6.45v-13.87c0-1.41-0.22-2.76-3.25-3.03v-1.03
				c1.95-0.05,6.29-0.38,6.99-0.38c0.59,0,0.59,0.38,0.59,1.57v13.98c0,1.63,0,6.29,4.71,6.29c1.84,0,4.28-1.41,6.56-3.3V270.2
				c0-1.08-2.6-1.68-4.55-2.22V267c4.88-0.33,7.91-0.76,8.45-0.76c0.43,0,0.43,0.38,0.43,0.97V287.21z"/>
			<path d="M240.32,288.07c-1.52,1.41-3.2,2.93-5.36,2.93c-2.22,0-3.25-2.06-3.36-4.01c-2.55,2.33-4.98,4.01-8.34,4.01
				c-3.47,0-5.85-2.39-5.85-5.26c0.22-4.34,2.44-5.15,14.14-9.16v-3.58c0-3.03-1.79-4.66-5.26-4.66c-2.38,0-4.01,1.36-4.12,3.79
				c0,1.52-1.73,2.28-3.03,2.28c-0.81,0-0.97-0.71-0.97-1.08c0-2.87,2.44-4.23,6.23-6.18c1.9-0.97,2.82-1.73,4.88-1.73
				c2.44,0,6.61,1.57,6.61,4.55v15.01c0,2.22,0.76,3.09,1.95,3.09c0.71,0,1.52-0.32,2-0.92L240.32,288.07z M231.54,278.16
				c-2.76,1.08-9.81,2.33-9.81,6.39c0,2.11,1.74,3.9,3.85,3.9c2.55,0,4.17-1.57,5.96-3.14V278.16z"/>
			<path d="M241.67,288.78h1.03c1.52,0,2.6,0,2.6-1.79v-30.18c0-3.52-0.81-3.63-2.87-4.23v-0.87c2.17-0.71,4.44-1.68,5.58-2.33
				c0.59-0.33,1.03-0.6,1.19-0.6c0.33,0,0.43,0.32,0.43,0.76v37.44c0,1.79,1.19,1.79,2.71,1.79h0.92v1.41
				c-1.84,0-3.74-0.11-5.69-0.11c-1.95,0-3.9,0.05-5.9,0.11V288.78z"/>
			<path d="M254.57,256.42c0-3.07,2.49-5.33,5.43-5.33c2.91,0,5.4,2.26,5.4,5.33c0,3.09-2.49,5.35-5.4,5.35
				C257.06,261.77,254.57,259.51,254.57,256.42z M260,260.88c2.41,0,4.32-1.9,4.32-4.46c0-2.53-1.91-4.44-4.32-4.44
				c-2.44,0-4.35,1.91-4.35,4.44C255.64,258.99,257.55,260.88,260,260.88z M258.86,259.51h-0.93v-6.16h2.34
				c1.46,0,2.18,0.54,2.18,1.75c0,1.1-0.7,1.58-1.6,1.69l1.75,2.71h-1.05l-1.63-2.67h-1.07V259.51z M259.98,256.05
				c0.79,0,1.5-0.06,1.5-1c0-0.76-0.7-0.9-1.34-0.9h-1.27v1.91H259.98z"/>
		</g>
	</g>
</g>
</svg>
