<?xml version="1.0" encoding="UTF-8" standalone="yes"?>
<svg version="1.2" baseProfile="tiny-ps" viewBox="0 0 127.3 127.3" xml:space="preserve" xmlns="http://www.w3.org/2000/svg">
  <title>Redica Systems Inc</title>
  <rect fill="#FFFFFF" width="127.3" height="127.3"/>
  <path fill="#051938" d="M12.6,63.6c0-28.2,22.9-51,51.1-51s51,22.9,51.1,51c0,10.2-3,20.1-8.7,28.5H65.6V81c3.1-1,5.1-4,4.8-7.3&#xD;&#xA;&#x9;l5.7-2.6c2.6,2.7,7,2.7,9.6,0l0,0l0.3-0.3l5.5,2.5c-0.5,3.7,2.2,7.2,5.9,7.6c3.7,0.5,7.2-2.2,7.6-5.9c0.5-3.7-2.2-7.2-5.9-7.6&#xD;&#xA;&#x9;c-2.3-0.3-4.5,0.6-6,2.3l-5.5-2.5c0.1-0.6,0.1-1.2,0-1.7l5.7-3.1c2.7,2.6,7,2.6,9.7-0.1c2.6-2.7,2.6-7-0.1-9.7&#xD;&#xA;&#x9;c-2.7-2.6-7-2.6-9.7,0.1c-1.6,1.6-2.3,3.9-1.8,6.2L86,61.8c-2.5-2.8-6.8-3.1-9.6-0.7c-1.8,1.6-2.7,4.1-2.2,6.5l-5.5,2.5&#xD;&#xA;&#x9;c-0.8-1-1.9-1.7-3.2-2.1v-9.7c3.2-1,5.2-4.1,4.8-7.4l5.6-2.7c2.6,2.8,6.9,2.9,9.6,0.4c1.4-1.3,2.2-3.1,2.2-5&#xD;&#xA;&#x9;c-0.2-3.8-3.4-6.7-7.2-6.5c-3.5,0.2-6.3,3-6.5,6.5c0,0.4,0,0.7,0.1,1.1l-5.5,2.6c-0.8-0.9-1.9-1.6-3.1-2v-9.5&#xD;&#xA;&#x9;c3.6-1.1,5.6-4.9,4.5-8.5s-4.9-5.6-8.5-4.5l0,0c-3.6,1.1-5.6,4.9-4.6,8.5c0.7,2.2,2.4,3.9,4.6,4.6v9.5c-1.2,0.4-2.2,1.1-3.1,2&#xD;&#xA;&#x9;L53,44.8c0.6-3.7-1.9-7.2-5.6-7.9c-3.7-0.6-7.2,1.9-7.9,5.6c-0.6,3.7,1.9,7.2,5.6,7.9c2.2,0.4,4.5-0.4,6.1-2l5.6,2.7&#xD;&#xA;&#x9;c-0.4,3.3,1.6,6.5,4.8,7.4V68c-1.2,0.4-2.3,1.1-3.2,2.1L53,67.5c0.7-3.7-1.8-7.3-5.5-7.9c-2.3-0.4-4.7,0.4-6.3,2.2l-5.4-2.9&#xD;&#xA;&#x9;c0.7-3.7-1.6-7.3-5.3-8s-7.3,1.6-8,5.3s1.6,7.3,5.3,8c2.2,0.4,4.5-0.2,6.1-1.8l5.7,3.1c-0.1,0.6-0.1,1.2,0,1.7l-5.4,2.5&#xD;&#xA;&#x9;c-2.5-2.8-6.8-3.1-9.6-0.6s-3.1,6.8-0.6,9.6c2.5,2.8,6.8,3.1,9.6,0.6c1.7-1.5,2.5-3.7,2.3-6l5.5-2.5c2.5,2.8,6.8,3.1,9.6,0.6l0,0&#xD;&#xA;&#x9;l0.3-0.3l5.7,2.6C56.6,77,58.6,80,61.8,81v11.1H21.3C15.6,83.7,12.6,73.8,12.6,63.6z M63.6,48.9c1.6,0,2.8,1.3,2.8,2.8&#xD;&#xA;&#x9;s-1.3,2.8-2.8,2.8c-1.6,0-2.8-1.3-2.8-2.8S62.1,48.9,63.6,48.9L63.6,48.9z M60.8,29.2c-0.1-1.6,1.1-2.9,2.7-3c1.6-0.1,2.9,1.1,3,2.7&#xD;&#xA;&#x9;c0,0.1,0,0.2,0,0.3c-0.1,1.6-1.4,2.7-3,2.7C62,31.7,60.9,30.6,60.8,29.2z M63.6,71.7c1.6-0.1,2.9,1.1,3,2.7s-1.1,2.9-2.7,3&#xD;&#xA;&#x9;c-0.1,0-0.2,0-0.3,0c-1.6-0.1-2.7-1.4-2.7-3C61.1,72.9,62.2,71.7,63.6,71.7z M78.1,66.3c0-1.5,1.3-2.8,2.8-2.8s2.8,1.3,2.8,2.8&#xD;&#xA;&#x9;c0,1.6-1.3,2.8-2.8,2.8S78.1,67.8,78.1,66.3L78.1,66.3z M95.5,74.2c-0.1-1.6,1.1-2.9,2.7-3s2.9,1.1,3,2.7c0,0.1,0,0.2,0,0.3&#xD;&#xA;&#x9;c0,1.6-1.2,2.8-2.8,2.8l0,0C96.8,77,95.5,75.7,95.5,74.2z M95.4,57.5c0-1.5,1.3-2.8,2.8-2.8s2.8,1.3,2.8,2.8c0,1.6-1.3,2.8-2.8,2.8&#xD;&#xA;&#x9;C96.6,60.3,95.4,59.1,95.4,57.5L95.4,57.5z M78.2,43.5c-0.1-1.6,1.1-2.9,2.7-3s2.9,1.1,3,2.7c0,0.1,0,0.2,0,0.3&#xD;&#xA;&#x9;c-0.1,1.6-1.4,2.7-3,2.7C79.4,46.1,78.2,44.9,78.2,43.5z M49.2,43.4c0,1.5-1.3,2.8-2.8,2.8s-2.8-1.3-2.8-2.8c0-1.6,1.3-2.8,2.8-2.8&#xD;&#xA;&#x9;C48,40.6,49.2,41.9,49.2,43.4L49.2,43.4z M49.1,66.3c0.1,1.6-1.1,2.9-2.7,3s-2.9-1.1-3-2.7c0-0.1,0-0.2,0-0.3c0.1-1.6,1.4-2.7,3-2.7&#xD;&#xA;&#x9;C47.9,63.7,49,64.9,49.1,66.3z M31.9,57.5c0,1.5-1.3,2.8-2.8,2.8s-2.8-1.3-2.8-2.8s1.3-2.8,2.8-2.8S31.9,56,31.9,57.5z M31.8,74.1&#xD;&#xA;&#x9;c0.1,1.6-1.1,2.9-2.6,3c-1.6,0.1-2.9-1.1-3-2.6c0,0,0,0,0-0.1c-0.1-1.6,1.1-2.9,2.7-3C30.4,71.4,31.7,72.6,31.8,74.1z M74.6,113.5&#xD;&#xA;&#x9;H52.7c-3.3-0.7-6.5-1.8-9.6-3.1h41C81.1,111.7,77.9,112.8,74.6,113.5z M35.8,106.4c-1.5-1-2.9-2-4.3-3.1h64.3&#xD;&#xA;&#x9;c-1.4,1.1-2.8,2.2-4.3,3.1H35.8z M27.1,99.3c-1-1-1.9-2-2.8-3.1H103c-0.9,1.1-1.8,2.1-2.8,3.1H27.1z M8.6,63.6&#xD;&#xA;&#x9;c0,30.4,24.7,55,55.1,55s55.1-24.7,55.1-55S94,8.6,63.6,8.6S8.6,33.3,8.6,63.6z"/>
</svg>