<?xml version="1.0" encoding="utf-8"?>
<!-- Generator: Adobe Illustrator 27.5.0, SVG Export Plug-In . SVG Version: 6.00 Build 0)  -->
<svg version="1.2" baseProfile="tiny-ps" id="Layer_1" xmlns="http://www.w3.org/2000/svg" xmlns:xlink="http://www.w3.org/1999/xlink"
	 viewBox="0 0 550 550" xml:space="preserve">
<title>RMU</title>
<circle fill="#FFFFFF" cx="434.3" cy="343.6" r="8.8"/>
<path fill="#011E41" d="M135.5,220.2c-5.1,0-16.3-0.1-16.3-0.1l0,34.7c13.3-1.7,34.4-1.9,34.4-20.5
	C153.7,222.7,144.1,220.5,135.5,220.2z"/>
<path fill="#011E41" d="M478.4,188.8l-183.3,0c0,0-17.4,33.5-26.5,50.2l-24.3-50.2l-174.4,0l-9.3,40.9l13.3-0.4l0,81.8
	c0,0.7,0.1,0.9,0,1c0,0-0.5,0.5-3,1.3l-9.9,3.3l10.6,37.8c0,0,10.5-5.9,20.7-10.3c6.5-2.8,14.7-5.9,23.8-8.7c1.4,2.1,2.7,4.3,4,7.1
	c6.2,12.3,6.2,25.2,5.7,34.8c10.2,2.7,12,3.6,27,1.1c8.9-1.5,20.6-8.6,22.7-9.2c20.2-6,28.1-5,38.4-0.4l-5.3-14.9
	c14.3,0.2,25.1,1.1,40.9,3.6c26.3,4.2,54.9,15.6,65.7,18.5c21.6,5.8,38.7,7.8,55.8,8.5c40.4,1.7,70.7-18.8,70.7-18.8l-17.4-20.2
	l2.1-10.8c21.7,0.7,36.3-5.9,43.5-20.7c3.3-6.8,4.5-14.3,4.9-21.3c0.5-6.7,0.4-14.1,0.4-21.7v-40.1l0-1.4l13.2,0.7L478.4,188.8z
	 M427.5,362.9l-1.6,0.9c-0.7,0.4-2.3,1.4-4.7,2.6c-2.4,1.3-5.8,2.8-10.1,4.3c-8.6,2.9-21,5.5-37.8,5c-26.1-0.7-48-6.6-68-12.8
	c-10-3.1-19.6-6.2-29.1-8.9c-9.4-2.6-18.8-4.7-28.4-5.7c-28.4-2.8-59.4-3.9-81.8,3.1c-12.6,4-18.4,6.9-29.2,13.4l-2.2,1.3l0-2.6
	c0.1-8,0-11-3.8-20c-2.1-4.9-3.1-7-4.1-8.5c-0.5-0.8-1-1.4-1.7-2.1c-0.7-0.8-1.5-1.6-2.5-2.8l-0.9-1.1l1.1-0.9
	c8.4-7.3,17.3-11.3,34-16.2l0.2-0.1c14.1-4.1,36-8.2,66.8-6c14.7,1,31.5,3.5,50.5,8.2c13.2,3.2,30.7,10.1,50.5,15.7
	c19.8,5.6,41.8,9.8,64.1,7.7c5.3-0.5,17.6-3.9,28.4-8.1l2.4-0.9l-4.1,21.2L427.5,362.9z M465.7,220.4c-2,2-1.7,7.9-1.7,10.5V271
	c0,28.1,2,53.2-35.7,52.8l1.4-7.4c0,0-7,3.3-17.1,6.6c-27.6-3.2-60.7-17.9-60.7-48.4c0-17.2,0.7-34.5,0.7-51.7
	c0-6.6-2.5-8.2-7.8-8.6c-2,0.1-4.2,0.4-5.7,1.7c-1.9,1.6-2.1,4.2-2.1,6.5c-0.6,21.2-1.1,42.7-1.1,63.9c0,7.3,3.4,8.7,10.2,9.4
	l-3.9,12.7c-14.9-1.8-27.9-3.2-45.8-3.9l-3.5-13c2.6,0.1,6.3,0.3,8.4-1.4c3.3-2.6,2.6-31.4,2.7-37.5c-7.6,15.7-23.3,44.7-23.3,44.7
	l-24.7-0.4l-25.3-47.2c-0.2,11.1,0.2,22.3,0.2,33.4c0,6.4,2.7,7.7,8.6,7.7l1.5,0l-2.5,7.8c-30.5-3.5-59.4-2-84.6,4.4l-1.6,0.4
	c-2.4-6.3-4-13.6-4.6-16.1c-1.9-8-4.6-14.8-14-14.8c-4.8,0-9.9,1.3-14.6,2.2l0,24c0,4,0.4,7.7,5.3,7.7c1.7,0,3.4-0.3,5-0.8l-1.8,7.4
	c-7.8,4.2-14.4,8.9-19.2,13.7l0.2,0.2c-9.5,3.2-19,6.9-30.3,11.8l-4.2-15.1c6.6-2.2,10.5-5.3,10.5-12.7l0-82.9c0-6.7-1.6-10-8.8-10
	l-1.6,0l4.2-18.5l59.5,0c21.8,0,49.6,5.8,49.6,31.6c0,15-11,24.4-23.7,30c27.3,4,14.5,32.4,31,32.7c1.7-0.4,3.3-1,4.3-2.1
	c1.8-1.7,2-4.2,2.1-6.6c0.5-21-0.1-42.2-0.1-63.2c0-7.5-3.7-8.2-10.3-8.1l4.3-14.4l38.3,0l34.5,68.5c12.5-22.8,25.1-45.6,37.3-68.5
	l38.3,0l51.4,0l3.7,15.7c-2.5-0.1-6.4-0.1-8.3,1.8c-0.6,0.6-1.4,6.9-1.4,6.9l-0.5,50.4c0,0-1.4,22.3,25.4,26.5
	c3.4,0,8.4-0.1,11.2-2.2c4-3.1,5.2-8.2,5.3-12.9c0.5-19.8,0.8-39.8,0.8-59.6c0-7.9-2.5-9.9-10.3-10.1l4.5-16.4l44.2,0l4.4,18.7
	C471.3,218.3,467.8,218.2,465.7,220.4z"/>
<path fill="#FFFFFF" d="M482.2,237.1l15.2,0.8L484,181.6l-193.3,0c0,0-15,29.3-22,41.9l-20.2-42l-184.6,0l-12.6,55.5l15.2-0.5
	l0.2,70.6l-14.6,5l14.9,53.1c0,0,18.1-10.2,28-14.4c4.9-2.1,10.7-4.4,17.3-6.6c0.3,0.6,0.6,1.2,0.9,1.8c5.2,10.4,5.4,21.6,4.9,30.9
	l-0.3,6.2l6,1.6c2.6,0.7,4.7,1.3,6.6,1.7c2.3,0.5,4.3,0.9,6.5,1c4.6,0.3,9.6-0.3,17.1-1.5c5.6-0.9,11.5-3.5,15.9-5.6
	c2.2-1.1,4.2-2.1,5.8-2.9l1.9-1c19-5.7,28.7-3.3,35.2-1.1l12.2,4.3l-5.5-17.8c9.1,0.5,17.6,1.4,28.6,3.1c26,4.1,54.2,15.4,64.9,18.3
	c22.2,6,39.9,8,57.4,8.8c42.9,1.9,74.9-19.9,75.3-20.1l7.1-4.8l-11.7-13.6l-8.6-9.2l0.5-3.2c0,0,11.8,0.2,22.8-4.3
	c7-2.9,15.7-10.4,20.2-19.8c3.8-8,5.1-16.5,5.6-23.9c0.5-6.9,0.4-14.4,0.4-22.2V237.1z M475,229.5l0,1.4V271
	c0,7.6,0.1,14.9-0.4,21.7c-0.5,7-1.7,14.6-4.9,21.3c-7.2,14.9-21.8,21.4-43.5,20.7l-2.1,10.8l17.4,20.2c0,0-30.3,20.6-70.7,18.8
	c-17-0.7-34.2-2.7-55.8-8.5c-10.9-2.9-39.4-14.3-65.7-18.5c-15.8-2.5-26.6-3.3-40.9-3.6l5.3,14.9c-10.3-4.6-18.1-5.7-38.4,0.4
	c-2.1,0.6-13.8,7.7-22.7,9.2c-15,2.6-16.8,1.7-27-1.1c0.5-9.6,0.5-22.5-5.7-34.8c-1.4-2.8-2.7-5-4-7.1c-9.2,2.8-17.3,5.9-23.8,8.7
	c-10.2,4.4-20.7,10.3-20.7,10.3l-10.6-37.8l9.9-3.3c2.6-0.9,3-1.3,3-1.3c0-0.1,0-0.3,0-1l0-81.8l-13.3,0.4l9.3-40.9l174.4,0
	l24.3,50.2c9.1-16.7,26.5-50.2,26.5-50.2l183.3,0l9.8,41.5L475,229.5z"/>
<path fill="#FFFFFF" d="M425.5,199.7l-4.5,16.4c7.8,0.3,10.3,2.2,10.3,10.1c0,19.8-0.3,39.8-0.8,59.6c-0.1,4.8-1.3,9.9-5.3,12.9
	c-2.8,2.1-7.8,2.2-11.2,2.2c-26.8-4.1-25.4-26.5-25.4-26.5l0.5-50.4c0,0,0.8-6.4,1.4-6.9c2-1.9,5.8-1.8,8.3-1.8l-3.7-15.7l-51.4,0
	l-38.3,0c-12.3,22.9-24.8,45.7-37.3,68.5l-34.5-68.5l-38.3,0l-4.3,14.4c6.6-0.1,10.3,0.6,10.3,8.1c0,21,0.6,42.2,0.1,63.2
	c-0.1,2.3-0.3,4.8-2.1,6.6c-1.1,1-2.6,1.7-4.3,2.1c-16.5-0.3-3.7-28.7-31-32.7c12.7-5.7,23.7-15,23.7-30c0-25.8-27.8-31.6-49.6-31.6
	l-59.5,0l-4.2,18.5l1.6,0c7.2,0,8.8,3.3,8.8,10l0,82.9c0,7.4-3.9,10.5-10.5,12.7l4.2,15.1c11.3-4.9,20.9-8.6,30.3-11.8l-0.2-0.2
	c4.8-4.8,11.4-9.6,19.2-13.7l1.8-7.4c-1.6,0.4-3.3,0.8-5,0.8c-4.9,0-5.3-3.8-5.3-7.7l0-24c4.7-0.8,9.8-2.2,14.6-2.2
	c9.5,0,12.1,6.8,14,14.8c0.6,2.5,2.2,9.7,4.6,16.1l1.6-0.4c25.2-6.4,54.1-7.9,84.6-4.4l2.5-7.8l-1.5,0c-6,0-8.6-1.3-8.6-7.7
	c0-11.1-0.4-22.3-0.2-33.4l25.3,47.2l24.7,0.4c0,0,15.7-29,23.3-44.7c-0.1,6.1,0.7,34.9-2.7,37.5c-2.1,1.7-5.8,1.5-8.4,1.4l3.5,13
	c17.9,0.7,30.9,2.2,45.8,3.9l3.9-12.7c-6.8-0.7-10.2-2.1-10.2-9.4c0-21.3,0.4-42.7,1.1-63.9c0.1-2.3,0.3-4.9,2.1-6.5
	c1.5-1.3,3.6-1.6,5.7-1.7c5.3,0.4,7.8,2,7.8,8.6c0,17.2-0.7,34.5-0.7,51.7c0,30.5,33.1,45.2,60.7,48.4c10.1-3.3,17.1-6.6,17.1-6.6
	l-1.4,7.4c37.7,0.5,35.7-24.6,35.7-52.8v-40.1c0-2.7-0.4-8.5,1.7-10.5c2.1-2.1,5.6-2.1,8.4-1.9l-4.4-18.7L425.5,199.7z M119.3,254.8
	l0-34.7c0,0,11.1,0.1,16.3,0.1c8.6,0.4,18.2,2.6,18.2,14.1C153.7,252.8,132.6,253,119.3,254.8z"/>
<path fill="#FFFFFF" d="M155.2,342.5l-2.6-3.9c3-2.2,4.5-5.1,4.5-8.3c0-4-2.4-5.7-6.9-3.9l-12.1,4.9v0.6c0.7-0.1,0.8,0.1,0.8,0.8
	v17.6c0,0.8-0.1,1-0.8,1.5v0.6l6.6-2.7v-0.6c-0.7,0.1-0.9-0.1-0.9-0.8v-6.1l3.6-1.5l2.9,4.3c0.2,0.3,0.5,0.6,0.5,0.9
	c0,0.3-0.2,0.6-0.6,0.9v0.6l7-2.8v-0.6C156.3,344.2,155.8,343.5,155.2,342.5z M148.1,336.3l-4.3,1.7v-4.8l4.2-1.7
	c2.7-1.1,4-1.2,4,0.8C151.9,334.1,150.7,335.3,148.1,336.3z"/>
<path fill="#FFFFFF" d="M169.5,320c-6.2,1.5-10.3,7.4-10.3,13.4c0,6.1,4.2,9.9,10.3,8.3c6.1-1.5,10.3-7.4,10.3-13.5
	C179.8,322.3,175.7,318.5,169.5,320z M169.6,336.9c-3.2,0.8-5.2-1.1-5.2-4.7c0-3.6,2.1-6.5,5.2-7.3c3.2-0.8,5.2,1.2,5.2,4.7
	C174.7,333.2,172.7,336.1,169.6,336.9z"/>
<path fill="#FFFFFF" d="M199.2,325.3c2-1.3,2.9-2.8,2.9-5c0-3.3-2.2-5.1-6.3-4.6l-12.5,1.5v0.6c0.7,0.1,0.8,0.3,0.8,1.1v17.6
	c0,0.8-0.1,1-0.8,1.3v0.6l12-1.5c4.8-0.6,7.2-3,7.2-7C202.6,327.6,201.4,326,199.2,325.3z M189.1,320.8l5.1-0.6
	c2.2-0.3,3.2,0,3.2,1.5c0,1.2-0.9,2-2.8,2.2l-5.5,0.7V320.8z M193.9,332.7l-4.8,0.6v-4.7l5-0.6c2.6-0.3,3.9,0.2,3.9,1.9
	C197.9,331.8,196.6,332.3,193.9,332.7z"/>
<path fill="#FFFFFF" d="M222.9,315.6l-15.8-0.6v0.6c0.7,0.2,0.8,0.4,0.8,1.2v17.6c0,0.8-0.1,1-0.8,1.1v0.6l15.8,0.6
	c0.6,0,0.8,0.2,1,1l0.5,0v-7l-0.5,0c-0.2,0.8-0.3,1-1,1l-10-0.3v-3.6l6,0.2c0.6,0,0.8,0.2,1,1.1l0.5,0v-6.6l-0.5,0
	c-0.2,0.8-0.3,1-1,1l-6-0.2v-3l10,0.4c0.6,0,0.8,0.2,1,1.1l0.5,0v-7l-0.5,0C223.7,315.5,223.6,315.7,222.9,315.6z"/>
<path fill="#FFFFFF" d="M247.1,336.4l-2.6-5.2c3-0.7,4.5-2.7,4.5-6c0-4-2.4-6.9-6.9-7.5l-12.1-1.5v0.6c0.7,0.3,0.8,0.5,0.8,1.3v17.6
	c0,0.8-0.1,0.9-0.8,1.1v0.6l6.6,0.8v-0.6c-0.7-0.3-0.9-0.5-0.9-1.3v-6.1l3.6,0.4l2.9,5.8c0.2,0.5,0.5,0.8,0.5,1.2
	c0,0.3-0.2,0.5-0.6,0.6v0.6l7,0.9V339C248.3,338.7,247.8,337.8,247.1,336.4z M240,326.5l-4.3-0.5v-4.8l4.2,0.5c2.7,0.3,4,0.9,4,2.9
	C243.9,326.3,242.6,326.8,240,326.5z"/>
<path fill="#FFFFFF" d="M270,322.6l-15.4-3c-0.6-0.1-0.8-0.4-1-1.2l-0.5-0.1v7.3l0.5,0.1c0.2-0.8,0.3-1,1-0.9l5.3,1V340
	c0,0.8-0.2,0.9-0.9,1v0.6l6.6,1.3v-0.6c-0.7-0.3-0.8-0.6-0.8-1.3v-14.1l5.2,1c0.6,0.1,0.8,0.4,1,1.2l0.5,0.1v-7.3l-0.5-0.1
	C270.8,322.6,270.6,322.8,270,322.6z"/>
<path fill="#FFFFFF" d="M299.2,331c0.5,0.3,0.7,0.6,0.7,0.9c0,0.2-0.1,0.5-0.2,0.8l-3.1,6.8l-2.7-8.4c-0.1-0.4-0.2-0.7-0.2-0.9
	c0-0.3,0.2-0.5,0.7-0.5V329l-8.5-2.4v0.6c0.7,0.4,0.9,0.6,0.9,1.4v17.6c0,0.8-0.2,0.9-0.9,0.9v0.6l5.7,1.6v-0.6
	c-0.7-0.4-0.9-0.6-0.9-1.4v-14.1l5.8,17.1l6-13.7v14.1c0,0.8-0.2,0.9-0.9,0.9v0.6l6.3,1.8v-0.6c-0.7-0.4-0.9-0.6-0.9-1.4v-17.6
	c0-0.8,0.2-0.9,0.9-0.9v-0.6l-8.7-2.5V331z"/>
<path fill="#FFFFFF" d="M321.4,336.1c-6.2-1.7-10.3,2.1-10.3,8.1c0,6.1,4.2,12,10.3,13.7c6.1,1.6,10.3-2.1,10.3-8.1
	C331.6,343.6,327.5,337.7,321.4,336.1z M321.4,353c-3.2-0.9-5.2-3.8-5.2-7.4c0-3.6,2.1-5.5,5.2-4.6c3.2,0.8,5.2,3.9,5.2,7.4
	C326.6,351.9,324.6,353.8,321.4,353z"/>
<path fill="#FFFFFF" d="M352.1,361.6l-2.6-5.4c3-0.5,4.5-2.4,4.5-5.7c0-4-2.4-7.1-6.9-8l-12.1-2.4v0.6c0.7,0.3,0.8,0.6,0.8,1.3v17.6
	c0,0.8-0.1,0.9-0.8,1v0.6l6.6,1.3V362c-0.7-0.3-0.9-0.6-0.9-1.3v-6.1l3.6,0.7l2.9,6c0.2,0.5,0.5,0.9,0.5,1.2c0,0.3-0.2,0.5-0.6,0.6
	v0.6l7,1.4v-0.6C353.2,364,352.7,363,352.1,361.6z M345,351.2l-4.3-0.8v-4.8l4.2,0.8c2.7,0.5,4,1.2,4,3.1
	C348.9,351.3,347.6,351.7,345,351.2z"/>
<path fill="#FFFFFF" d="M375.7,363.6l-2.6-5.1c3-0.9,4.5-3,4.5-6.3c0-4-2.4-6.8-6.9-7l-12.1-0.6v0.6c0.7,0.2,0.8,0.4,0.8,1.2v17.6
	c0,0.8-0.1,1-0.8,1.1v0.6l6.6,0.3v-0.6c-0.7-0.2-0.9-0.4-0.9-1.2v-6.1l3.6,0.2l2.9,5.6c0.2,0.5,0.5,0.8,0.5,1.1
	c0,0.3-0.2,0.6-0.6,0.7v0.6l7,0.4V366C376.9,365.8,376.4,364.9,375.7,363.6z M368.6,354.1l-4.3-0.2v-4.8l4.2,0.2
	c2.7,0.1,4,0.6,4,2.6C372.5,353.7,371.2,354.2,368.6,354.1z"/>
<path fill="#FFFFFF" d="M382.6,345.8c0.7,0.2,0.8,0.3,0.8,1.1v17.6c0,0.8-0.1,1-0.8,1.2v0.6l6.6-0.5v-0.6c-0.7-0.2-0.9-0.3-0.9-1.1
	v-17.6c0-0.8,0.2-1,0.9-1.2v-0.6l-6.6,0.5V345.8z"/>
<path fill="#FFFFFF" d="M404,350.4c-3.7,0.5-5.7,0.9-5.7-0.7c0-1.2,1.6-2.6,4.3-3.1c3.3-0.6,6.3,0,6.3,1.1c0,0.1-0.1,0.3-0.1,0.5
	l0.4,0.2l2.1-6l-0.4-0.2c-0.2,0.5-0.4,0.6-0.8,0.7c-1,0.2-3.8-1-7.8-0.2c-5.3,1-8.5,4.5-8.5,8.2c0,3.8,2.7,5.2,8.1,4.4
	c3.3-0.5,5.4-0.9,5.4,1.4c0,1.5-1.5,2.8-4.3,3.4c-4.2,0.8-7.4-0.3-7.4-1.8c0-0.1,0-0.2,0.1-0.4l-0.4-0.2l-2.4,6.9l0.4,0.2
	c0.3-0.5,0.4-0.7,0.7-0.8c0.4-0.1,3.2,1.3,9,0.1c5.6-1.1,9-4.9,9-9C412,350.9,409.4,349.7,404,350.4z"/>
<path fill="#E31937" d="M239.9,321.7l-4.2-0.5v4.8l4.3,0.5c2.6,0.3,3.9-0.2,3.9-1.9C243.9,322.6,242.6,322,239.9,321.7z"/>
<path fill="#E31937" d="M321.4,341c-3.1-0.8-5.2,1.1-5.2,4.6c0,3.6,2,6.5,5.2,7.4c3.2,0.8,5.2-1.1,5.2-4.6
	C326.6,344.8,324.5,341.8,321.4,341z"/>
<path fill="#E31937" d="M194,327.9l-5,0.6v4.7l4.8-0.6c2.7-0.3,4-0.9,4-2.8C197.9,328.1,196.6,327.6,194,327.9z"/>
<path fill="#E31937" d="M344.9,346.4l-4.2-0.8v4.8l4.3,0.8c2.6,0.5,3.9,0.1,3.9-1.7C348.9,347.6,347.6,346.9,344.9,346.4z"/>
<path fill="#E31937" d="M147.9,331.6l-4.2,1.7v4.8l4.3-1.7c2.6-1,3.9-2.2,3.9-4C151.9,330.4,150.7,330.5,147.9,331.6z"/>
<path fill="#E31937" d="M197.3,321.7c0-1.4-1-1.7-3.2-1.5l-5.1,0.6v3.7l5.5-0.7C196.4,323.6,197.3,322.9,197.3,321.7z"/>
<path fill="#E31937" d="M169.5,324.9c-3.1,0.8-5.2,3.7-5.2,7.3c0,3.6,2,5.5,5.2,4.7c3.2-0.8,5.2-3.7,5.2-7.3
	C174.7,326.1,172.7,324.1,169.5,324.9z"/>
<path fill="#E31937" d="M415.6,349.5l4.1-21.2l-2.4,0.9c-10.8,4.2-23.1,7.6-28.4,8.1c-22.3,2.1-44.3-2.1-64.1-7.7
	c-19.9-5.6-37.4-12.5-50.5-15.7c-18.9-4.6-35.7-7.1-50.5-8.2c-30.8-2.2-52.7,1.9-66.8,6l-0.2,0.1c-16.7,4.9-25.7,8.9-34,16.2
	l-1.1,0.9l0.9,1.1c1,1.2,1.8,2.1,2.5,2.8c0.6,0.7,1.1,1.3,1.7,2.1c1,1.5,2.1,3.7,4.1,8.5c3.8,9,3.9,12,3.8,20l0,2.6l2.2-1.3
	c10.8-6.4,16.5-9.4,29.2-13.4c22.4-7,53.4-6,81.8-3.1c9.6,1,18.9,3,28.4,5.7c9.5,2.6,19.1,5.8,29.1,8.9c20.1,6.2,41.9,12.1,68,12.8
	c16.9,0.5,29.3-2.1,37.8-5c4.3-1.5,7.6-3,10.1-4.3c2.4-1.2,3.9-2.2,4.7-2.6l1.6-0.9L415.6,349.5z M157.2,344.6l-7,2.8v-0.6
	c0.4-0.3,0.6-0.6,0.6-0.9c0-0.4-0.3-0.6-0.5-0.9l-2.9-4.3l-3.6,1.5v6.1c0,0.8,0.2,0.9,0.9,0.8v0.6l-6.6,2.7v-0.6
	c0.7-0.5,0.8-0.7,0.8-1.5v-17.6c0-0.8-0.1-0.9-0.8-0.8v-0.6l12.1-4.9c4.5-1.8,6.9-0.2,6.9,3.9c0,3.3-1.5,6.1-4.5,8.3l2.6,3.9
	c0.7,1,1.1,1.7,2,1.5V344.6z M169.5,341.8c-6.1,1.5-10.3-2.3-10.3-8.3c0-6.1,4.1-11.9,10.3-13.4s10.3,2.2,10.3,8.3
	C179.8,334.4,175.7,340.3,169.5,341.8z M195.4,336.8l-12,1.5v-0.6c0.7-0.3,0.8-0.5,0.8-1.3v-17.6c0-0.8-0.1-0.9-0.8-1.1v-0.6
	l12.5-1.5c4.2-0.5,6.3,1.3,6.3,4.6c0,2.1-0.9,3.6-2.9,5c2.3,0.7,3.4,2.3,3.4,4.5C202.6,333.8,200.1,336.2,195.4,336.8z M224.4,321.7
	l-0.5,0c-0.2-0.8-0.3-1.1-1-1.1l-10-0.4v3l6,0.2c0.6,0,0.8-0.1,1-1l0.5,0v6.6l-0.5,0c-0.2-0.8-0.3-1.1-1-1.1l-6-0.2v3.6l10,0.3
	c0.6,0,0.8-0.2,1-1l0.5,0v7l-0.5,0c-0.2-0.8-0.3-1-1-1l-15.8-0.6v-0.6c0.7-0.2,0.8-0.4,0.8-1.1v-17.6c0-0.8-0.1-1-0.8-1.2v-0.6
	l15.8,0.6c0.6,0,0.8-0.2,1-1l0.5,0V321.7z M249.2,339.6l-7-0.9v-0.6c0.4-0.1,0.6-0.3,0.6-0.6c0-0.4-0.3-0.7-0.5-1.2l-2.9-5.8
	l-3.6-0.4v6.1c0,0.8,0.2,1,0.9,1.3v0.6l-6.6-0.8v-0.6c0.7-0.1,0.8-0.3,0.8-1.1V318c0-0.8-0.1-1-0.8-1.3v-0.6l12.1,1.5
	c4.5,0.6,6.9,3.5,6.9,7.5c0,3.3-1.5,5.3-4.5,6l2.6,5.2c0.7,1.4,1.1,2.3,2,2.6V339.6z M271.4,329.1L271,329c-0.2-0.9-0.3-1.1-1-1.2
	l-5.2-1v14.1c0,0.8,0.1,1,0.8,1.3v0.6l-6.6-1.3V341c0.7-0.1,0.9-0.2,0.9-1v-14.1l-5.3-1c-0.6-0.1-0.8,0-1,0.9l-0.5-0.1v-7.3l0.5,0.1
	c0.2,0.9,0.3,1.1,1,1.2l15.4,3c0.6,0.1,0.8,0,1-0.9l0.5,0.1V329.1z M308,333.5c-0.7,0-0.9,0.2-0.9,0.9V352c0,0.8,0.2,1,0.9,1.4v0.6
	l-6.3-1.8v-0.6c0.7,0,0.9-0.2,0.9-0.9v-14.1l-6,13.7l-5.8-17.1v14.1c0,0.8,0.2,1,0.9,1.4v0.6l-5.7-1.6V347c0.7,0,0.9-0.2,0.9-0.9
	v-17.6c0-0.8-0.2-1-0.9-1.4v-0.6l8.5,2.4v0.6c-0.5,0-0.7,0.2-0.7,0.5c0,0.2,0.1,0.5,0.2,0.9l2.7,8.4l3.1-6.8
	c0.1-0.3,0.2-0.7,0.2-0.8c0-0.3-0.2-0.6-0.7-0.9v-0.6l8.7,2.5V333.5z M321.4,357.8c-6.1-1.6-10.3-7.6-10.3-13.7
	c0-6.1,4.1-9.8,10.3-8.1c6.2,1.7,10.3,7.6,10.3,13.6C331.6,355.7,327.5,359.5,321.4,357.8z M354.1,365l-7-1.4V363
	c0.4,0,0.6-0.3,0.6-0.6c0-0.4-0.3-0.7-0.5-1.2l-2.9-6l-3.6-0.7v6.1c0,0.8,0.2,1,0.9,1.3v0.6l-6.6-1.3v-0.6c0.7-0.1,0.8-0.2,0.8-1
	v-17.6c0-0.8-0.1-1-0.8-1.3v-0.6l12.1,2.4c4.5,0.9,6.9,3.9,6.9,8c0,3.3-1.5,5.2-4.5,5.7l2.6,5.4c0.7,1.4,1.1,2.3,2,2.8V365z
	 M377.8,366.6l-7-0.4v-0.6c0.4-0.1,0.6-0.3,0.6-0.7c0-0.4-0.3-0.7-0.5-1.1l-2.9-5.6l-3.6-0.2v6.1c0,0.8,0.2,1,0.9,1.2v0.6l-6.6-0.3
	V365c0.7-0.2,0.8-0.4,0.8-1.1v-17.6c0-0.8-0.1-1-0.8-1.2v-0.6l12.1,0.6c4.5,0.2,6.9,3,6.9,7c0,3.3-1.5,5.4-4.5,6.3l2.6,5.1
	c0.7,1.3,1.1,2.2,2,2.5V366.6z M389.2,345.3c-0.7,0.2-0.9,0.5-0.9,1.2v17.6c0,0.8,0.2,1,0.9,1.1v0.6l-6.6,0.5v-0.6
	c0.7-0.2,0.8-0.5,0.8-1.2v-17.6c0-0.8-0.1-1-0.8-1.1v-0.6l6.6-0.5V345.3z M403,364.1c-5.9,1.1-8.7-0.2-9-0.1c-0.2,0-0.4,0.3-0.7,0.8
	l-0.4-0.2l2.4-6.9l0.4,0.2c-0.1,0.1-0.1,0.3-0.1,0.4c0,1.4,3.2,2.6,7.4,1.8c2.8-0.5,4.3-1.9,4.3-3.4c0-2.3-2.1-1.9-5.4-1.4
	c-5.4,0.8-8.1-0.6-8.1-4.4c0-3.8,3.2-7.2,8.5-8.2c4-0.8,6.8,0.4,7.8,0.2c0.4-0.1,0.6-0.1,0.8-0.7l0.4,0.2l-2.1,6l-0.4-0.2
	c0-0.2,0.1-0.4,0.1-0.5c0-1.1-3-1.8-6.3-1.1c-2.8,0.5-4.3,1.9-4.3,3.1c0,1.6,1.9,1.2,5.7,0.7c5.4-0.7,8,0.5,8,4.8
	C412,359.2,408.6,363.1,403,364.1z"/>
<path fill="#E31937" d="M368.5,349.3l-4.2-0.2v4.8l4.3,0.2c2.6,0.1,3.9-0.4,3.9-2.2C372.5,350,371.2,349.5,368.5,349.3z"/>
<g>
	<path fill="#011E41" d="M440.8,343.5c0,3.6-2.8,6.4-6.5,6.4c-3.6,0-6.6-2.8-6.6-6.4c0-3.5,2.9-6.4,6.6-6.4
		C438,337.2,440.8,340,440.8,343.5z M429.3,343.5c0,2.8,2.1,5.1,5,5.1c2.8,0,4.9-2.3,4.9-5c0-2.8-2.1-5.1-4.9-5.1
		C431.4,338.5,429.3,340.7,429.3,343.5z M433.3,346.9h-1.5v-6.4c0.6-0.1,1.4-0.2,2.4-0.2c1.2,0,1.7,0.2,2.2,0.5
		c0.3,0.3,0.6,0.8,0.6,1.4c0,0.7-0.5,1.2-1.3,1.5v0.1c0.6,0.2,1,0.7,1.2,1.6c0.2,1,0.3,1.4,0.5,1.6h-1.6c-0.2-0.2-0.3-0.8-0.5-1.6
		c-0.1-0.7-0.5-1-1.3-1h-0.7V346.9z M433.3,343.3h0.7c0.8,0,1.5-0.3,1.5-0.9c0-0.6-0.4-1-1.4-1c-0.4,0-0.7,0-0.8,0.1V343.3z"/>
</g>
</svg>
