<?xml version="1.0" encoding="utf-8"?>
<svg viewBox="0 0 501 501" fill="none" xmlns="http://www.w3.org/2000/svg" baseProfile="tiny-ps" version="1.2">
  <title>Chess.com</title>
  <desc>Chess.com logo</desc>
  <g>
    <path d="M323.566 317.731C272.496 278.839 278.179 245.083 277.527 231.201H308.661C312.313 224.446 314.157 218.194 314.157 210.397L278.85 187.174C291.11 178.297 299.121 163.894 299.121 147.612C299.121 127.105 286.47 109.557 268.546 102.319C262.882 100.03 222.898 231.22 222.898 231.22C222.749 234.234 222.731 238.161 222.731 242.887C222.731 255.913 254.796 253.941 253.082 265.46C250.511 282.672 249.989 295.754 235.158 337.102C225.134 365.015 158.357 337.102 153.588 350.798C150.252 360.326 148.482 371.007 148.482 382.526C148.482 383.754 151.165 402.214 250.213 402.214C349.26 402.214 351.943 383.754 351.943 382.526C351.943 354.464 341.453 331.352 323.585 317.731H323.566Z" fill="#5D9948"/>
    <path d="M248.405 335.186C253.92 310.158 258.802 283.492 261.764 267.525C265.472 247.596 235.177 244.023 222.73 242.199C222.171 259.226 217.402 286.86 176.84 317.75C165.903 326.086 157.742 337.977 153.047 352.38C164.003 357.702 178.629 360.884 201.136 360.884C215.594 360.884 242.35 362.615 248.387 335.186H248.405Z" fill="#81B64C"/>
    <path d="M269.682 231.203C274.471 218.754 273.856 210.399 273.856 210.399L253.864 187.176C275.123 178.113 287.923 161.068 287.923 141.231C287.923 125.395 280.359 111.309 268.658 102.395C262.956 100.069 256.733 98.7852 250.193 98.7852C223.177 98.7852 201.285 120.65 201.285 147.633C201.285 163.915 209.278 178.318 221.556 187.194L186.249 210.418C186.249 218.215 188.093 224.467 191.745 231.222H269.682V231.203Z" fill="#81B64C"/>
    <path d="M247.418 108.719C275.626 113.092 234.431 145.787 221.426 144.243C209.073 142.773 220.96 104.625 247.418 108.719Z" fill="#B2E068"/>
  </g>
</svg>
