<svg xmlns="http://www.w3.org/2000/svg" xmlns:xlink="http://www.w3.org/1999/xlink" version="1.2" viewBox="0 0 100 100" baseProfile="tiny-ps">
  <title>Exeter Finance LLC</title>
  <rect width="100" height="100" fill="#6DAC44"/>
  <g id="Filled">
    <path d="M67.2,82.6c0-1.2-0.7-2.9-1.5-3.7L49.2,62.4l0,0l-3.7-3.7c-0.4-0.4-0.9-0.6-1.5-0.6l0,0   c-0.6,0-1.1,0.2-1.5,0.6l-8.2,8.2c-0.8,0.8-1.5,2.5-1.5,3.7v8.8c0,0.7,0.3,1.1,0.7,1.1c0.2,0,0.6-0.2,0.9-0.5l9.7-9.7L65.7,92   c0.3,0.3,0.6,0.5,0.9,0.5c0.4,0,0.7-0.4,0.7-1.1L67.2,82.6z" fill="#FFFFFF"/>
    <path d="M86,71.7L64.4,50L86,28.4c0.8-0.8,0.6-1.5-0.6-1.5l0,0h-8.8c-1.2,0-2.9,0.7-3.7,1.5L56.4,44.9l0,0   l-3.6,3.6c-0.5,0.5-0.7,1.1-0.6,1.7c0,0.5,0.3,1,0.6,1.3l3.6,3.6l0,0l16.5,16.5c0.8,0.8,2.5,1.5,3.7,1.5h8.8l0,0   C86.6,73.2,86.9,72.5,86,71.7z M64.4,50L64.4,50" fill="#FFFFFF"/>
    <path d="M35.3,48.5l-3.6-3.6l0,0l-4.5-4.5c-0.8-0.8-2.5-1.5-3.7-1.5h-8.8l0,0c-1.2,0-1.5,0.7-0.6,1.5   l9.7,9.7l0,0l0,0L14,59.7c-0.8,0.8-0.6,1.5,0.6,1.5l0,0h8.8c1.2,0,2.9-0.7,3.7-1.5l8.2-8.2c0.4-0.4,0.6-0.9,0.6-1.3   C36,49.6,35.8,48.9,35.3,48.5z" fill="#FFFFFF"/>
    <path d="M66.5,7.5c-0.3,0-0.6,0.2-0.9,0.5L44,29.6l0,0l0,0l-9.7-9.7c-0.3-0.3-0.6-0.5-0.9-0.5   c-0.4,0-0.7,0.4-0.7,1.1v8.8c0,1.2,0.7,2.9,1.5,3.7l4.5,4.5c-0.2-0.2-0.2-0.2,0,0l3.7,3.7c0.4,0.4,1,0.6,1.5,0.6s1.1-0.2,1.5-0.6   l3.7-3.7l0,0l16.4-16.4c0.8-0.9,1.5-2.5,1.5-3.7V8.6C67.2,7.9,66.9,7.5,66.5,7.5z" fill="#FFFFFF"/>
  </g>
</svg>