<?xml version="1.0" encoding="utf-8"?>
<!-- Generator: Adobe Illustrator 25.3.1, SVG Export Plug-In . SVG Version: 6.00 Build 0)  -->
<svg version="1.2" baseProfile="tiny-ps" xmlns="http://www.w3.org/2000/svg" xmlns:xlink="http://www.w3.org/1999/xlink" viewBox="0 0 2000 2000" xml:space="preserve">
<title>アジアクエスト株式会社</title>

<g id="レイヤー_1">
	<g id="レイヤー_3_00000169524006300688198210000016142999155490610861_">
		<rect y="0" fill="#FFFFFF" width="2000" height="2000"/>
	</g>
	<g>
		<path fill="#B71F22" d="M1309.3,363.4c-231.3,0-462.6,128.6-616.7,128.6c-128.6,0-231.3-77.1-282.9-128.6v474l57.2-166h133.8
			l135.8,392.1H630.1l-19.9-70H458.4l-20.3,70h-28.4v199.2c51.6,51.6,154.2,128.6,282.9,128.6c154.2,0,385.4-128.6,616.7-128.6
			c205.8,0,282.9,102.7,282.9,102.7V466C1591.7,466,1514.6,363.4,1309.3,363.4z M1097.5,1096.5v0.4h-0.1l-52-55.9
			c-15.6,9-32.7,16.1-51.1,20.3c-18.4,4.3-38.8,6.6-60.5,6.6c-22.2,0-43.1-3.3-63.4-9.9c-19.9-6.6-38.8-16.1-55.3-28.8
			c-27.4-20.3-48.2-44.5-62.4-72.9s-21.3-59.6-21.3-93.2c0-27.4,5.2-53.4,15.6-78.5c10.4-25.1,25.5-47.3,45.4-67.1
			c19.9-19.4,42.6-34,68.1-44.5c25.5-10.5,52-15.6,79.9-15.6s53.9,4.7,78.5,13.7c24.6,9,46.8,22.7,66.2,40.6
			c21.3,18.9,37.3,41.6,48.2,67.7c11.4,26,16.6,53.9,16.6,83.7c0,31.7-6.2,60.1-18,86.1c-11.8,26-29.4,48.2-52,66.2l74.7,80.9
			H1097.5z"/>
		<path fill="#B71F22" d="M1099.8,865.5c0-16.1-1.9-31.2-5.6-45.9s-9.5-27.9-16.6-39.7c-14.7-24.6-34.1-43.5-58.2-56.8
			c-23.6-13.7-50.7-20.3-79.5-20.3c-21.3,0-42.1,4.2-61.5,12.3c-19.9,8.1-36.9,19.4-52,34.6c-15.1,15.1-26.5,32.6-34.6,52
			c-8.1,19.9-11.8,40.2-11.8,61.9c0,27.5,5.2,52.5,16.6,74.7c10.8,22.2,27.9,41.1,50.1,57.2c12.3,9,26.5,16,41.6,20.8
			c15.1,4.7,31.2,7.1,47.8,7.1c14.6,0,28.4-1.4,40.6-4.3c12.8-2.9,24.1-7.1,35-13.2l-79.9-86.6h57.7l58.2,62.4
			c16.6-13.2,29.8-29.8,38.3-49.9C1095,911.4,1099.8,889.6,1099.8,865.5z"/>
		<path fill="#B71F22" d="M542.7,768.7c-2.3-8.5-5.2-19.9-8.5-33.6c-1.9,9.4-4.3,18.4-6.6,27.4c-1.9,8.5-4.3,17-6.6,25.1
			l-39.3,129.6h105.9l-39.7-129.6C546.4,783.9,545,777.7,542.7,768.7z"/>
	</g>
	<g>
		<path fill="#040000" d="M472.7,1434.7l-61,176.9h48.3l9-31.7h68.6l9,31.7h47.8l-61-176.9H472.7z M479.2,1545.9l17.5-58.2
			c1-3.8,1.9-7.6,2.9-11.4c1.4-3.8,2.3-8,3.3-12.3c1.4,6.2,2.8,11.4,3.8,15.1c0.9,3.8,1.9,6.6,2.3,8.5l18,58.2H479.2z"/>
		<path fill="#040000" d="M664.1,1537.6c-0.9,0-3.3-0.4-5.6-1.4c-11.4-2.9-17-6.6-17-10.9c0-2.9,1.4-5.2,3.8-6.6
			c2.4-1.3,6.2-2.3,10.9-2.3c5.7,0,11.9,1,17.5,2.9c6.2,2.3,11.9,5.2,17.5,9l9-29.8c-8.1-3.8-16.6-6.6-24.6-8.5s-16-2.9-23.6-2.9
			c-15.2,0-27,3.3-36,10.4c-9,7.1-13.2,16.6-13.2,28.4c0,9,3.3,16.6,9,22.2c5.7,5.6,15.1,9.9,27.9,13.7c2.3,0.9,5.2,1.3,9,2.3
			c11.4,2.8,17,7.1,17,12.3c0,3.3-1.4,5.7-4.3,7.6c-2.8,1.3-7.1,2.3-12.3,2.3c-7.6,0-15.1-1.4-22.7-4.3c-7.5-3.3-14.6-7.2-20.8-12.8
			l-9,32.7c8.1,5.2,16.6,9,25.9,12.1c9,2.3,18.9,3.8,29.8,3.8c15.7,0,28.4-3.8,37.9-11.4c9.5-7.5,14.2-18,14.2-30.3
			c0-9.5-3.3-17.5-9-23.2C689.2,1547.1,678.8,1541.9,664.1,1537.6z"/>
		<rect x="728.9" y="1489.6" fill="#040000" width="43.1" height="122"/>
		<path fill="#040000" d="M750.2,1428.1c-6.2,0-11.8,2.3-16.6,7.1c-4.7,4.3-7.1,9.9-7.1,16.6c0,6.6,2.3,12.4,6.6,17
			c4.7,4.7,9.9,7.1,16.6,7.1s12.3-2.3,17-7.1c4.7-4.7,7.1-10.4,7.1-17c0-7.1-1.9-12.3-6.6-17
			C762.5,1430.4,756.9,1428.1,750.2,1428.1z"/>
		<path fill="#040000" d="M896.3,1509.8c-4.7-8.1-10.4-14.2-17-18c-6.6-3.8-14.7-5.6-23.6-5.6c-17.1,0-30.8,5.7-41.2,17.5
			c-9.9,11.8-15.1,27.4-15.1,47.3c0,19.9,4.7,36,14.7,47.8c9.4,11.8,22.6,18,38.8,18c9.5,0,17.5-2.4,24.6-6.2
			c7.1-3.8,13.2-9.9,18.9-18.4v19.9h39.3v-122l-39.3-0.1V1509.8z M890.2,1572.4c-5.2,5.2-11.8,8.1-20.8,8.1c-9,0-15.6-2.4-20.8-8.1
			c-5.3-5.2-7.6-12.7-7.6-22.2c0-9.5,2.4-17.1,7.6-22.7c5.2-5.2,11.8-8.1,20.8-8.1c9,0,15.6,2.9,20.8,8.5c5.3,5.7,7.6,13.2,7.6,22.7
			C897.8,1560,895,1567.6,890.2,1572.4z"/>
		<path fill="#040000" d="M1145.2,1562.4c5.2-11.8,8.1-24.5,8.1-38.8c0-13.8-2.4-26-7.6-37.9c-5.2-11.4-12.3-21.8-21.8-30.3
			c-9-8.1-18.9-14.1-29.8-18.4c-11.4-4.3-22.6-6.2-35.4-6.2c-12.4,0-24.6,2.3-36,7.1c-11.3,4.3-21.8,11.4-30.7,19.9
			c-9,9-15.6,18.9-20.3,30.3c-4.7,11.4-7.1,23.2-7.1,35.4c0,15.1,3.3,29.3,9.5,42.1c6.6,12.8,16.1,23.7,28.4,32.7
			c7.5,5.7,16.1,9.9,25.1,12.8c9,2.9,18.4,4.3,28.4,4.3c9.8,0,18.9-1,27.4-2.9c8.5-1.9,16.1-4.7,23.2-9l23.6,25.1h26l-34.6-36.4
			C1131.9,1584.1,1140,1574.2,1145.2,1562.4z M1107.8,1576.6l-26-27.9l0-0.4h-25.5l36,38.8c-4.7,2.9-9.9,4.7-15.6,6.2
			c-5.6,1.4-11.8,1.9-18.4,1.9c-7.1,0-14.7-1.4-21.3-3.3c-7.1-1.9-13.2-5.2-18.9-9.5c-9.9-7.6-17.5-16.1-22.7-26
			c-5.3-9.9-7.6-21.3-7.6-33.6c0-9.9,1.4-19,5.2-27.9c3.8-8.5,9-16.6,15.6-23.2c6.6-6.6,14.2-11.8,23.2-15.6c9-3.3,18-5.2,27.9-5.2
			c13.2,0,25.1,2.8,36,9c10.5,6.1,19.4,14.6,26,25.5c3.3,5.7,5.7,11.4,7.6,18c1.3,6.5,2.3,13.7,2.3,20.8c0,10.9-1.9,20.9-6.2,29.8
			C1121.1,1563.3,1115.4,1570.4,1107.8,1576.6z"/>
		<path fill="#040000" d="M1265.7,1555.8c0,15.6-2.3,26.9-7.1,33.1c-4.7,6.2-12.3,9.5-23.6,9.5c-10.8,0-18.9-3.3-23.6-9.5
			s-7.1-17-7.1-33.1v-54.4h-20v64.4c0,16.6,4.3,29.4,12.8,37.9c8.5,8.5,20.8,12.8,37.3,12.8c16.6,0,29.4-4.3,37.9-12.8
			c8.5-8.5,12.8-21.3,12.8-37.9v-64.4h-19.4V1555.8z"/>
		<path fill="#040000" d="M1420.5,1559.6l-0.4,0v-3.3c0-18.4-4.7-32.7-14.2-43.1c-9.4-10.4-22.2-15.6-38.8-15.6
			c-16.1,0-29.4,5.6-39.7,16.6c-10.4,11.4-15.6,25.1-15.6,42.6c0,18,5.2,32.6,15.6,43.5c10.4,10.9,23.6,16.6,40.6,16.6
			c11.4,0,21.3-2.4,29.8-7.6s15.7-12.8,21.3-22.7l-14.2-9.5c-4.2,8.1-9.4,14.2-15.6,18c-5.6,4.3-12.3,6.2-19.9,6.2
			c-10.9,0-19.9-3.8-26.5-10.9c-6.6-7.5-9.9-17-9.9-28.8v-1.9H1420.5z M1343.8,1521.7c5.7-5.6,13.8-8.5,22.7-8.5
			c10.4,0,18.4,2.9,24.1,8.1c5.7,5.7,9,12.8,9.5,22.7l-66.7-0.1C1334.3,1534.5,1337.6,1527.4,1343.8,1521.7z"/>
		<path fill="#040000" d="M1489.3,1547.2c-1.9-0.4-3.8-0.9-6.6-1.9c-14.7-4.7-21.8-10.4-21.8-17c0-4.7,1.9-8.5,5.2-11.8
			c3.8-3.3,8.1-4.7,13.7-4.7s10.8,1.4,15.1,4.3c4.3,2.9,7.6,6.6,9.9,11.8l15.1-9.5c-2.9-6.6-8.1-12.4-14.7-16.1
			c-6.6-3.8-15.1-5.6-24.6-5.6c-11.8,0-21.2,3.4-28.4,9.5s-10.9,14.1-10.9,24.1c0,14.2,13.2,25.5,40.2,35c1.4,0.5,2.9,0.5,3.3,1
			c6.2,2.3,10.4,4.7,13.2,7.1c2.3,2.4,3.8,5.7,3.8,9.5c0,5.2-1.9,9.4-5.6,12.3c-3.8,3.3-9,4.7-15.1,4.7c-6.2,0-11.8-1.4-16.6-4.3
			c-4.3-2.9-8.5-7.6-11.4-13.2l-16.1,10.9c4.2,8.1,10.4,13.7,17.1,16.6c7.6,3.8,16.1,5.6,26.5,5.6c12.4,0,21.8-3.3,29.4-9.9
			c7.6-6.6,11.4-15.1,11.4-25.5c0-8.1-2.3-14.7-7.1-19.4C1509.6,1555.3,1501.1,1551,1489.3,1547.2z"/>
		<polygon fill="#040000" points="1571.9,1501.4 1571.9,1456.9 1552.4,1456.9 1552.4,1501.4 1532.1,1501.4 1532.1,1517 1552.4,1517 
			1552.4,1612 1571.8,1612 1571.8,1517 1592.2,1517 1592.2,1501.4 		"/>
	</g>
</g>
</svg>
