<?xml version="1.0" encoding="utf-8"?>
<!-- Generator: $$$/GeneralStr/196=Adobe Illustrator 27.6.0, SVG Export Plug-In . SVG Version: 6.00 Build 0)  -->
<svg version="1.2" baseProfile="tiny-ps" id="Calque_1"
	 xmlns="http://www.w3.org/2000/svg" xmlns:xlink="http://www.w3.org/1999/xlink"  viewBox="0 0 296 296"
	 xml:space="preserve">
<title>ASSU 2000</title>
<rect y="0" fill="#FFFFFF" width="296" height="296"/>
<path fill="#005193" d="M74.1,169.8l150.5-9.6c0.6-34.7-1.3-66.3-3.4-88.6h-150c2.1,22.4,3.2,47.6,3.2,74.2
	C74.5,153.9,74.3,161.9,74.1,169.8z"/>
<path fill="#69AE21" d="M73.9,174.2c-0.3,18.3-1.2,33.8-2.5,50.2h149.8c1.7-17,2.5-33.9,2.9-50.2H73.9z"/>
<path fill="#FFFFFF" d="M117.3,201.8l-4.5,5.4h5.9v3.2h-12.5c0.5-0.6,1.1-1.4,1.9-2.4c0.7-0.9,1.5-1.9,2.3-2.9s1.6-2,2.3-2.9
	c0.8-1,1.5-1.8,2.1-2.5c0.4-0.4,0.7-0.9,0.9-1.4c0.2-0.5,0.3-1,0.3-1.5s-0.1-1-0.3-1.4c-0.2-0.4-0.5-0.8-0.8-1.1s-0.7-0.6-1.2-0.8
	c-0.4-0.2-0.9-0.3-1.4-0.3c-0.8,0-1.5,0.2-2.1,0.6c-0.6,0.4-1.1,1-1.4,1.7l-3-1.2c0.2-0.7,0.6-1.3,1-1.8s0.9-1,1.5-1.4
	s1.2-0.7,1.9-0.9c0.7-0.2,1.4-0.3,2.1-0.3c1,0,1.9,0.2,2.7,0.5c0.8,0.4,1.6,0.8,2.2,1.5c0.6,0.6,1.1,1.3,1.5,2.2
	c0.4,0.8,0.5,1.7,0.5,2.7C119.3,198.5,118.6,200.2,117.3,201.8z"/>
<path fill="#FFFFFF" d="M143.4,204.3c-0.6,1.3-1.3,2.4-2.2,3.3c-0.9,0.9-2.1,1.7-3.3,2.2c-1.3,0.5-2.6,0.8-4.1,0.8
	c-1.4,0-2.8-0.3-4.1-0.8s-2.4-1.3-3.3-2.2s-1.7-2.1-2.2-3.3c-0.6-1.3-0.8-2.6-0.8-4.1s0.3-2.8,0.8-4.1c0.6-1.3,1.3-2.4,2.2-3.3
	c0.9-0.9,2.1-1.7,3.3-2.2c1.3-0.6,2.6-0.8,4.1-0.8c1.4,0,2.8,0.3,4.1,0.8c1.3,0.6,2.4,1.3,3.3,2.2c0.9,0.9,1.7,2.1,2.2,3.3
	c0.6,1.3,0.8,2.6,0.8,4.1S143.9,203.1,143.4,204.3z M140.4,197.4c-0.4-0.9-0.9-1.6-1.5-2.3c-0.7-0.6-1.4-1.2-2.3-1.5
	c-0.9-0.4-1.8-0.6-2.8-0.6s-1.9,0.2-2.8,0.6c-0.9,0.4-1.6,0.9-2.3,1.5c-0.6,0.6-1.2,1.4-1.5,2.3c-0.4,0.9-0.6,1.8-0.6,2.8
	s0.2,1.9,0.6,2.8c0.4,0.9,0.9,1.6,1.5,2.3c0.6,0.6,1.4,1.2,2.3,1.5c0.9,0.4,1.8,0.6,2.8,0.6s1.9-0.2,2.8-0.6
	c0.9-0.4,1.6-0.9,2.3-1.5c0.6-0.6,1.2-1.4,1.5-2.3c0.4-0.9,0.6-1.8,0.6-2.8C141,199.3,140.8,198.3,140.4,197.4z"/>
<path fill="#FFFFFF" d="M167.6,204.3c-0.6,1.3-1.3,2.4-2.2,3.3c-0.9,0.9-2.1,1.7-3.3,2.2c-1.3,0.5-2.6,0.8-4.1,0.8
	c-1.4,0-2.8-0.3-4.1-0.8s-2.4-1.3-3.3-2.2c-0.9-0.9-1.7-2.1-2.2-3.3c-0.6-1.3-0.8-2.6-0.8-4.1s0.3-2.8,0.8-4.1
	c0.6-1.3,1.3-2.4,2.2-3.3c0.9-0.9,2.1-1.7,3.3-2.2c1.3-0.6,2.6-0.8,4.1-0.8c1.4,0,2.8,0.3,4.1,0.8c1.3,0.6,2.4,1.3,3.3,2.2
	c0.9,0.9,1.7,2.1,2.2,3.3c0.6,1.3,0.8,2.6,0.8,4.1C168.5,201.7,168.2,203.1,167.6,204.3z M164.6,197.4c-0.4-0.9-0.9-1.6-1.5-2.3
	c-0.7-0.6-1.4-1.2-2.3-1.5c-0.9-0.4-1.8-0.6-2.8-0.6s-1.9,0.2-2.8,0.6c-0.9,0.4-1.6,0.9-2.3,1.5c-0.6,0.6-1.2,1.4-1.5,2.3
	c-0.4,0.9-0.6,1.8-0.6,2.8s0.2,1.9,0.6,2.8c0.4,0.9,0.9,1.6,1.5,2.3c0.6,0.6,1.4,1.2,2.3,1.5c0.9,0.4,1.8,0.6,2.8,0.6
	s1.9-0.2,2.8-0.6c0.9-0.4,1.6-0.9,2.3-1.5c0.6-0.6,1.2-1.4,1.5-2.3c0.4-0.9,0.6-1.8,0.6-2.8C165.2,199.3,165,198.3,164.6,197.4z"/>
<path fill="#FFFFFF" d="M191.9,204.3c-0.6,1.3-1.3,2.4-2.2,3.3c-0.9,0.9-2.1,1.7-3.3,2.2c-1.3,0.5-2.6,0.8-4.1,0.8
	c-1.4,0-2.8-0.3-4.1-0.8s-2.4-1.3-3.3-2.2c-0.9-0.9-1.7-2.1-2.2-3.3c-0.6-1.3-0.8-2.6-0.8-4.1s0.3-2.8,0.8-4.1
	c0.6-1.3,1.3-2.4,2.2-3.3c0.9-0.9,2.1-1.7,3.3-2.2c1.3-0.6,2.6-0.8,4.1-0.8s2.8,0.3,4.1,0.8c1.3,0.6,2.4,1.3,3.3,2.2
	c0.9,0.9,1.7,2.1,2.2,3.3c0.6,1.3,0.8,2.6,0.8,4.1S192.4,203.1,191.9,204.3z M188.9,197.4c-0.4-0.9-0.9-1.6-1.5-2.3
	c-0.7-0.6-1.4-1.2-2.3-1.5c-0.9-0.4-1.8-0.6-2.8-0.6s-1.9,0.2-2.8,0.6c-0.9,0.4-1.6,0.9-2.3,1.5c-0.6,0.6-1.2,1.4-1.5,2.3
	c-0.4,0.9-0.6,1.8-0.6,2.8s0.2,1.9,0.6,2.8c0.4,0.9,0.9,1.6,1.5,2.3c0.6,0.6,1.4,1.2,2.3,1.5c0.9,0.4,1.8,0.6,2.8,0.6
	s1.9-0.2,2.8-0.6c0.9-0.4,1.6-0.9,2.3-1.5c0.6-0.6,1.2-1.4,1.5-2.3c0.4-0.9,0.6-1.8,0.6-2.8C189.5,199.3,189.3,198.3,188.9,197.4z"
	/>
<path fill="#FFFFFF" d="M125,151.1c0.1,0.4,0.2,0.8,0.3,1c0,0.2,0,0.4-0.1,0.6c-0.1,0.1-0.4,0.2-0.7,0.2c-0.3,0-0.8,0-1.4,0
	s-1.1,0-1.4,0s-0.6-0.1-0.8-0.1c-0.2-0.1-0.3-0.1-0.4-0.2c-0.1-0.1-0.1-0.2-0.2-0.4l-1.5-4.6h-8.6l-1.5,4.5c0,0.2-0.1,0.3-0.2,0.4
	c-0.1,0.1-0.2,0.2-0.4,0.3c-0.2,0.1-0.4,0.1-0.7,0.1c-0.3,0-0.7,0-1.2,0s-1,0-1.3-0.1c-0.3,0-0.5-0.1-0.6-0.3
	c-0.1-0.1-0.2-0.3-0.1-0.6c0-0.2,0.1-0.6,0.3-1l7.1-20.4c0.1-0.2,0.2-0.4,0.2-0.5c0.1-0.1,0.2-0.2,0.5-0.3c0.2-0.1,0.5-0.1,0.9-0.1
	s0.9,0,1.5,0c0.7,0,1.3,0,1.7,0c0.4,0,0.7,0.1,1,0.1c0.2,0.1,0.4,0.2,0.5,0.3s0.2,0.3,0.3,0.5L125,151.1z M114.5,134.2L114.5,134.2
	l-3.3,9.8h6.5L114.5,134.2z"/>
<path fill="#FFFFFF" d="M145.5,145.9c0,1.2-0.2,2.3-0.7,3.2s-1.1,1.7-1.8,2.3c-0.8,0.6-1.7,1.1-2.7,1.4c-1,0.3-2.1,0.5-3.3,0.5
	c-0.8,0-1.5-0.1-2.2-0.2c-0.7-0.1-1.3-0.3-1.8-0.5s-1-0.4-1.3-0.6c-0.4-0.2-0.6-0.4-0.8-0.5c-0.2-0.2-0.3-0.4-0.3-0.7
	c-0.1-0.3-0.1-0.7-0.1-1.3c0-0.4,0-0.7,0-0.9s0.1-0.5,0.1-0.6c0.1-0.2,0.1-0.3,0.2-0.3c0.1-0.1,0.2-0.1,0.3-0.1
	c0.2,0,0.4,0.1,0.7,0.3s0.7,0.4,1.2,0.6c0.5,0.2,1,0.5,1.7,0.6c0.7,0.2,1.4,0.3,2.3,0.3c0.6,0,1.1-0.1,1.5-0.2
	c0.5-0.1,0.8-0.3,1.1-0.6c0.3-0.2,0.6-0.6,0.7-0.9c0.2-0.4,0.2-0.8,0.2-1.2c0-0.5-0.1-1-0.4-1.3c-0.3-0.4-0.7-0.7-1.1-1
	c-0.5-0.3-1-0.6-1.6-0.8c-0.6-0.3-1.2-0.5-1.8-0.8s-1.2-0.6-1.8-1s-1.1-0.8-1.6-1.3s-0.8-1.1-1.1-1.8s-0.4-1.5-0.4-2.5
	c0-1.1,0.2-2.1,0.6-2.9c0.4-0.8,1-1.5,1.7-2.1s1.5-1,2.5-1.2c0.9-0.3,1.9-0.4,3-0.4c0.5,0,1.1,0,1.6,0.1s1.1,0.2,1.5,0.3
	c0.5,0.1,0.9,0.3,1.3,0.5c0.4,0.2,0.6,0.3,0.7,0.4c0.1,0.1,0.2,0.2,0.2,0.3s0.1,0.2,0.1,0.3s0.1,0.3,0.1,0.5s0,0.5,0,0.8
	s0,0.6,0,0.9c0,0.2,0,0.4-0.1,0.6c0,0.2-0.1,0.3-0.2,0.3c-0.1,0.1-0.2,0.1-0.3,0.1s-0.3-0.1-0.6-0.2c-0.3-0.2-0.6-0.3-1-0.5
	s-0.9-0.4-1.4-0.5c-0.5-0.2-1.1-0.2-1.8-0.2c-0.5,0-1,0.1-1.3,0.2c-0.4,0.1-0.7,0.3-1,0.5s-0.4,0.5-0.6,0.8c-0.1,0.3-0.2,0.6-0.2,1
	c0,0.5,0.1,1,0.4,1.3c0.3,0.4,0.7,0.7,1.1,1c0.5,0.3,1,0.6,1.6,0.8c0.6,0.3,1.2,0.5,1.8,0.8s1.2,0.6,1.8,1s1.1,0.8,1.6,1.3
	s0.8,1.1,1.1,1.8C145.4,144.2,145.5,145,145.5,145.9z"/>
<path fill="#FFFFFF" d="M166.4,145.9c0,1.2-0.2,2.3-0.7,3.2s-1.1,1.7-1.8,2.3c-0.8,0.6-1.7,1.1-2.7,1.4c-1,0.3-2.1,0.5-3.3,0.5
	c-0.8,0-1.5-0.1-2.2-0.2c-0.7-0.1-1.3-0.3-1.8-0.5s-1-0.4-1.3-0.6c-0.4-0.2-0.6-0.4-0.8-0.5c-0.2-0.2-0.3-0.4-0.3-0.7
	c-0.1-0.3-0.1-0.7-0.1-1.3c0-0.4,0-0.7,0-0.9s0.1-0.5,0.1-0.6c0.1-0.2,0.1-0.3,0.2-0.3c0.1-0.1,0.2-0.1,0.3-0.1
	c0.2,0,0.4,0.1,0.7,0.3s0.7,0.4,1.2,0.6c0.5,0.2,1,0.5,1.7,0.6c0.7,0.2,1.4,0.3,2.3,0.3c0.6,0,1.1-0.1,1.5-0.2
	c0.5-0.1,0.8-0.3,1.1-0.6c0.3-0.2,0.6-0.6,0.7-0.9c0.2-0.4,0.2-0.8,0.2-1.2c0-0.5-0.1-1-0.4-1.3c-0.3-0.4-0.7-0.7-1.1-1
	c-0.5-0.3-1-0.6-1.6-0.8c-0.6-0.3-1.2-0.5-1.8-0.8s-1.2-0.6-1.8-1s-1.1-0.8-1.6-1.3s-0.8-1.1-1.1-1.8s-0.4-1.5-0.4-2.5
	c0-1.1,0.2-2.1,0.6-2.9c0.4-0.8,1-1.5,1.7-2.1s1.5-1,2.5-1.2c0.9-0.3,1.9-0.4,3-0.4c0.5,0,1.1,0,1.6,0.1s1.1,0.2,1.5,0.3
	c0.5,0.1,0.9,0.3,1.3,0.5c0.4,0.2,0.6,0.3,0.7,0.4c0.1,0.1,0.2,0.2,0.2,0.3s0.1,0.2,0.1,0.3s0.1,0.3,0.1,0.5s0,0.5,0,0.8
	s0,0.6,0,0.9c0,0.2,0,0.4-0.1,0.6c0,0.2-0.1,0.3-0.2,0.3c-0.1,0.1-0.2,0.1-0.3,0.1s-0.3-0.1-0.6-0.2c-0.3-0.2-0.6-0.3-1-0.5
	s-0.9-0.4-1.4-0.5c-0.5-0.2-1.1-0.2-1.8-0.2c-0.5,0-1,0.1-1.3,0.2c-0.4,0.1-0.7,0.3-1,0.5s-0.4,0.5-0.6,0.8c-0.1,0.3-0.2,0.6-0.2,1
	c0,0.5,0.1,1,0.4,1.3c0.3,0.4,0.7,0.7,1.1,1c0.5,0.3,1,0.6,1.6,0.8c0.6,0.3,1.2,0.5,1.8,0.8s1.2,0.6,1.8,1s1.1,0.8,1.6,1.3
	s0.8,1.1,1.1,1.8C166.3,144.2,166.4,145,166.4,145.9z"/>
<path fill="#FFFFFF" d="M192.4,144.2c0,1.4-0.2,2.7-0.6,3.8c-0.4,1.1-1,2.1-1.8,2.8c-0.8,0.8-1.8,1.4-3,1.8
	c-1.2,0.4-2.5,0.6-4.1,0.6c-1.4,0-2.7-0.2-3.9-0.5c-1.2-0.4-2.1-0.9-2.9-1.6c-0.8-0.7-1.4-1.7-1.8-2.7c-0.4-1.1-0.6-2.4-0.6-3.9v-14
	c0-0.1,0-0.2,0.1-0.3s0.2-0.2,0.4-0.2c0.2-0.1,0.4-0.1,0.7-0.1s0.7-0.1,1.1-0.1c0.5,0,0.8,0,1.1,0.1c0.3,0,0.5,0.1,0.7,0.1
	c0.2,0.1,0.3,0.1,0.4,0.2c0.1,0.1,0.1,0.2,0.1,0.3V144c0,0.9,0.1,1.7,0.3,2.4s0.5,1.2,1,1.7c0.4,0.4,0.9,0.8,1.5,1s1.2,0.3,2,0.3
	c0.7,0,1.4-0.1,2-0.3s1.1-0.6,1.5-1s0.7-1,0.9-1.6s0.3-1.4,0.3-2.2v-13.9c0-0.1,0-0.2,0.1-0.3s0.2-0.2,0.4-0.2
	c0.2-0.1,0.4-0.1,0.7-0.1s0.7-0.1,1.1-0.1c0.5,0,0.8,0,1.1,0.1c0.3,0,0.5,0.1,0.7,0.1c0.2,0.1,0.3,0.1,0.4,0.2
	c0.1,0.1,0.1,0.2,0.1,0.3V144.2z"/>
</svg>
