<?xml version="1.0" encoding="UTF-8" standalone="yes"?>
<svg version="1.2" viewBox="0 0 175 175" xml:space="preserve" baseProfile="tiny-ps" xmlns="http://www.w3.org/2000/svg">
  <title>bimi-svg-tiny-12-ps</title>
  <path class="st0" d="M87.5,0C39.2,0,0,39.2,0,87.5S39.2,175,87.5,175S175,135.8,175,87.5C175.1,39.2,135.9,0,87.5,0z M104.3,151.2&#xA;&#x9;l-1.1,0.7c-7.7,4.2-17.3,1.2-21.5-6.5L34.1,57c-4.2-7.7-1.2-17.3,6.5-21.5l1.1-0.7c7.7-4.2,17.3-1.3,21.5,6.5l47.6,88.4&#xA;&#x9;C114.9,137.5,112,147,104.3,151.2z M123.6,126.7l-37-68.6c19-10.2,42.6-3.1,52.8,15.9C149.6,92.8,142.5,116.4,123.6,126.7z" fill="#59BEC9"/>
  <path class="st0" d="M163.9,164.6h-7.5v1.3h3.1v9.1h1.4v-9.1h3.1V164.6z" fill="#59BEC9"/>
  <path class="st0" d="M175,164.6h-1.6l-3.3,5.5l-3.3-5.5h-1.6V175h1.4v-8.1l3.4,5.6h0.2l3.4-5.6v8.1h1.4V164.6z" fill="#59BEC9"/>
</svg>