<?xml version="1.0" encoding="UTF-8" standalone="yes"?>
<svg baseProfile="tiny-ps" version="1.2" viewBox="0 0 350 350" xmlns="http://www.w3.org/2000/svg">
  <title>bimi-svg-tiny-12-ps</title>
  <path d="M52.4,183c-1.7,3.7-4.2,6.7-7.5,8.8-3.3,2.1-7,3.2-11.1,3.2s-10.7-1.9-14.8-5.7c-4.1-3.8-6.1-8.6-6.1-14.3s2-10.3,6.1-14.1c4.1-3.8,8.9-5.7,14.6-5.7s8,1,11.4,3.1c3.4,2.1,5.9,5,7.4,8.6h-5.8c-1.3-2.1-3.2-3.7-5.5-4.9-2.3-1.2-4.8-1.8-7.5-1.8-4.3,0-8,1.4-11,4.2-3,2.8-4.5,6.3-4.5,10.6s1.5,7.9,4.4,10.8c2.9,2.9,6.5,4.4,10.8,4.4s5.5-.6,7.6-1.9c2.1-1.2,4.1-3.1,5.8-5.6l5.7.4Z" fill="#6e7885" stroke-width="0"/>
  <path d="M94.9,174.8c0,5.5-1.9,10.2-5.8,14.2-3.9,4-8.5,6-14,6s-10.2-1.9-14.1-5.7c-3.9-3.8-5.9-8.5-5.9-14s1.9-10.3,5.8-14.2c3.9-3.9,8.6-5.9,14.2-5.9s9.9,2,13.9,5.9c4,3.9,5.9,8.5,5.9,13.8ZM60.2,175.2c0,4.1,1.4,7.6,4.3,10.4,2.9,2.9,6.4,4.3,10.5,4.3s7.7-1.5,10.5-4.5c2.8-3,4.2-6.6,4.2-10.8s-.4-4-1.1-5.7c-.7-1.7-2.2-3.6-4.4-5.7-2.2-2.1-5.3-3.2-9.1-3.2s-7.7,1.5-10.6,4.4c-2.9,2.9-4.3,6.5-4.3,10.8Z" fill="#6e7885" stroke-width="0"/>
  <path d="M100.1,155.5h4.9v4.7c.9-1.7,2.3-2.9,4.1-3.8,1.8-.9,3.8-1.3,6.1-1.3s4.9.5,6.9,1.5c2,1,3.9,2.4,5.4,4.3l1,1.5.8-1.5c1.3-1.8,3.1-3.2,5.3-4.3,2.2-1,4.5-1.5,6.8-1.5s4,.5,6,1.4c2,1,3.8,2.3,5.4,3.9,1.7,1.7,2.8,3.4,3.2,5.2.5,1.8.7,4,.7,6.6v21.8h-5.2v-21.3c0-1.8-.1-3.4-.3-4.6-.2-1.3-1.1-3-2.5-5-1.5-2.1-4-3.1-7.6-3.1s-6.1,1-7.4,2.9c-1.4,1.9-2.2,3.6-2.3,5-.2,1.4-.3,3-.3,4.9v21.3h-5.2v-21.8c0-1.7-.1-3.1-.3-4.2-.2-1.1-1.1-2.7-2.5-4.9-1.4-2.1-4-3.2-7.5-3.2s-3.3.3-4.7,1c-1.4.7-2.6,1.7-3.7,3-.7,1.1-1.2,2.3-1.5,3.6-.2,1.3-.3,2.8-.3,4.6v21.8h-5.2v-38.7Z" fill="#6e7885" stroke-width="0"/>
  <path d="M167.2,176.9c0,3.5,1.5,6.6,4.5,9.2,3,2.6,6.3,3.9,9.9,3.9s5.6-.7,8.2-2.2c2.6-1.5,4.4-3.5,5.5-6.1h5.4c-1.3,3.9-3.8,7.1-7.2,9.5-3.5,2.5-7.2,3.7-11.3,3.7s-10.3-1.9-14.2-5.8c-3.9-3.9-5.9-8.6-5.9-14.1s1.9-10.2,5.8-14.1c3.8-3.9,8.5-5.8,14.1-5.8s5.8.6,8.4,1.9c2.7,1.3,4.9,3,6.7,5.2,1.8,2.2,3,4.5,3.7,6.7.7,2.3,1,4.9,1,7.9h-34.5ZM196.6,172.2c-.7-3.4-2.4-6.3-5.1-8.6-2.8-2.3-5.9-3.5-9.5-3.5s-6.8,1.1-9.6,3.4c-2.8,2.3-4.5,5.2-5.2,8.7h29.4Z" fill="#6e7885" stroke-width="0"/>
  <path d="M207.9,155.9h4.9v5.5c3-4.2,7-6.4,11.9-6.4s5.1.5,7.4,1.6c2.3,1.1,4.3,2.6,5.8,4.5,1.5,1.9,2.5,3.8,3,5.8.5,1.9.7,4.3.7,7.1v20.1h-5.2v-20.1c0-2.5-.2-4.4-.6-5.7-.4-1.3-1.3-3-2.9-5.1-1.5-2.1-4.4-3.2-8.7-3.2s-3.6.4-5.3,1.2c-1.7.8-3,1.9-3.9,3.2-1,1.3-1.6,2.7-1.8,4.2-.2,1.5-.3,3.3-.3,5.3v20.1h-5.2v-38.2Z" fill="#6e7885" stroke-width="0"/>
  <path d="M269.8,160.6h-8v-4.7h8v-13.4h5.2v13.4h8.9v4.7h-8.9v33.5h-5.2v-33.5Z" fill="#6e7885" stroke-width="0"/>
  <path d="M324.5,155.9l-22.1,51.5h-5.4l6-14.5-14.7-37h5.6l12.2,30.3,12.9-30.3h5.5Z" fill="#6e7885" stroke-width="0"/>
  <path d="M327.6,160.8c0-.4,0-.9.2-1.3s.3-.8.5-1.1.4-.7.7-1,.6-.5,1-.7.7-.4,1.1-.5.8-.2,1.2-.2.9,0,1.3.2.8.3,1.1.5c.3.2.7.4,1,.7s.5.6.7,1c.2.3.4.7.5,1.1s.2.8.2,1.3,0,.8-.2,1.2-.3.8-.5,1.1c-.2.3-.4.7-.7.9s-.6.5-1,.7c-.3.2-.7.4-1.1.5s-.8.2-1.3.2-.8,0-1.2-.2-.8-.3-1.1-.5-.7-.4-1-.7-.5-.6-.7-.9c-.2-.3-.4-.7-.5-1.1-.1-.4-.2-.8-.2-1.2ZM328.5,160.8c0,.6,0,1.1.3,1.5s.5.9.8,1.3.8.6,1.2.8c.5.2,1,.3,1.5.3s1-.1,1.5-.3.9-.5,1.2-.8.6-.8.8-1.3c.2-.5.3-1,.3-1.5s0-.7-.1-1.1-.2-.7-.4-1c-.2-.3-.4-.6-.6-.8-.2-.2-.5-.4-.8-.6-.3-.2-.6-.3-.9-.4-.3,0-.7-.1-1-.1s-.7,0-1,.1c-.3,0-.6.2-.9.4s-.5.4-.8.6c-.2.2-.4.5-.6.8-.2.3-.3.6-.4,1s-.1.7-.1,1.1ZM331.6,161.6v2.1h-1.4v-5.7h2c.8,0,1.4.1,1.7.4.4.3.6.7.6,1.2s0,.7-.3,1c-.2.3-.5.5-.9.6,0,0,.2.1.2.2,0,0,.1.2.2.3l1.2,2h-1.3c-.2,0-.3,0-.4-.2l-.9-1.7c0,0,0-.1-.1-.1,0,0-.1,0-.2,0h-.4ZM331.6,160.6h.6c.2,0,.4,0,.5,0,.1,0,.2,0,.3-.2,0,0,.1-.2.2-.3,0-.1,0-.2,0-.4s0-.2,0-.3c0,0,0-.2-.1-.2s-.2-.1-.3-.1c-.1,0-.3,0-.5,0h-.7v1.6Z" fill="#6e7885" stroke-width="0"/>
  <rect x="250.6" y="155.5" width="5.2" height="38.7" fill="#6e7885" stroke-width="0"/>
  <circle cx="253.2" cy="147.5" r="3.3" fill="#6e7885" stroke-width="0"/>
</svg>