<?xml version="1.0"?><svg version="1.2" baseProfile="tiny-ps" viewBox="0 0 300 300" xmlns="http://www.w3.org/2000/svg" xmlns:xlink="http://www.w3.org/1999/xlink"><title>apave</title><g><g fill="#fefefe" transform="matrix(.1 0 0 -.1 0 300)"><path d="M30 1505V50h2900v2910H30V1505z"/></g><g fill="#cad1ca" transform="matrix(.1 0 0 -.1 0 300)"><path d="M455 1990c-109-23-194-71-273-154l-50-53-25-49c-13-27-33-74-43-104l-18-55 1-80 1-80 25-72 24-71 43-61 43-61 51-39c28-22 81-53 116-70l65-30 70-11 70-11 55 6c30 3 81 13 114 22l59 16 72 48 73 48 43 53c23 29 48 67 56 84l15 30h46l47-1v390l-42 3-42 3-29 52-30 52-66 63-67 62-47 24c-26 13-77 31-113 40l-65 16-70-1c-38-1-87-5-109-9zm532-370c41-25 63-59 70-109l5-39-23-41-23-41-43-21-44-21-36 5c-45 8-79 30-104 70l-20 32 4 51 3 50 20 27c10 14 33 33 49 41l30 16h80l32-20zm356 50-43-19v29h-67l-6-67c-4-38-7-141-7-231v-163l38 3 37 3 3 57 3 57 32-19c18-10 49-21 69-24l38-7 42 11 42 12 34 26 35 27 18 40 19 40v47c0 84-38 143-115 179l-40 19h-90l-42-20zm153-69 31-19 16-35c9-19 17-46 17-60v-24l-23-34c-12-18-34-39-47-46l-25-13h-82l-34 23-34 23-12 36-12 37 9 32c18 61 66 97 130 98l35 1 31-19zm309 74-40-14-37-39-37-40-11-42-12-43 7-36c10-50 29-83 69-119l35-31 38-10c21-6 52-11 69-11h31l46 23 46 24 5-19 4-19 34 3 33 3v370l-33 3-34 3-5-21-6-21-16 14c-42 36-119 46-186 22zm129-69 33-14 21-27 22-28v-96l-22-26-23-26-39-13-39-13-36 8-36 8-32 35-33 36v79l32 37c48 55 90 66 152 40zm201 65-6-11 88-177 88-178h34l85 173c47 95 86 179 86 187v15h-70l-59-117-58-117-59 114-59 115-32 3-31 3-7-10zm495-2c-36-14-79-58-102-103l-20-40 5-59 5-59 29-36c16-20 41-45 56-56l27-20 64-4 64-4 35 11 34 12 37 36 36 36v37l-26 12-26 12-21-28-20-28-33-14c-43-18-88-18-124 1l-30 15-15 30c-8 16-15 34-15 40v10h332l-7 43c-13 73-58 134-118 156l-28 11-57-1c-31 0-68-5-82-10zm158-78c12-6 26-20 32-31l11-20h-232l11 20c11 21 39 39 79 50l26 7 26-8c14-4 36-12 47-18z"/></g><g fill="#93a694" transform="matrix(.1 0 0 -.1 0 300)"><path d="M505 1993c-55-8-138-34-189-60l-50-26-63-60-63-61-34-67-34-68-12-72-12-72 7-60c11-102 46-182 117-269l39-46 57-38c31-21 86-49 122-63l65-24 105-1 105-1 67 23 67 23 58 38 59 38 38 44c21 24 52 68 68 97l30 53 12-17 12-16 25 4 24 3v390l-23 3-23 4-14-12-14-12-14 34c-37 86-138 188-236 237-82 41-217 66-296 54zm491-372 31-19 23-46 22-47-7-35-6-36-38-41-38-41-59-4-59-4-35 24-35 23-17 35-18 35v70l20 33 20 32 32 20 33 20h100l31-19zm231-163c-3-121-4-225-1-230 3-4 18-8 35-8h29v130l40-21c22-12 57-23 78-26l37-5 43 11 42 12 37 32 36 32 13 32 14 32v85l-21 44-22 44-45 29-46 29h-131l-33-20-34-21-5 21-5 20h-55l-6-222zm289 129 36-33 5-45 5-46-16-32-17-32-32-19-32-20h-70l-35 18-35 19-17 34-18 34v62l23 34c12 18 34 39 47 46l25 13h95l36-33zm284 82c-32-13-87-66-106-101l-14-27v-103l22-39 22-39 39-27 39-27 57-4 58-4 48 21c57 25 55 25 55 6v-15h60l2 130c1 72 2 151 3 178v47l-32 3-33 3v-15c0-21-13-20-52 4l-33 20-55-1c-30 0-66-5-80-10zm150-64 28-15 21-33 21-34v-68l-20-32-19-32-30-16-30-15h-72l-29 15c-15 8-38 27-49 41l-21 27v93l16 23c9 12 30 31 48 42l31 19h76l29-15zm692 64-33-10-38-38-37-37-14-49-13-48 12-45c6-25 21-58 32-74l21-28 41-22 42-22h120l42 22c42 22 83 65 83 87 0 6-11 17-25 23l-25 11-22-29-22-30-42-16-43-16-34 6-33 6-31 33c-17 17-34 42-37 54l-7 23 168 2 168 3-3 35-4 35-24 42-24 41-52 26-52 26-40-1c-23 0-56-5-74-10zm128-65 41-16 9-19c6-10 10-22 10-28v-11h-230v15c0 21 46 63 73 68 42 8 57 7 97-9zm-630 59c0-5 37-86 82-180l83-173h31l82 168c45 92 82 173 82 180v12h-60l-57-115c-32-63-60-115-63-115s-30 52-59 115l-54 115h-33c-19 0-34-3-34-7z"/></g><g fill="#3aa740" transform="matrix(.1 0 0 -.1 0 300)"><path d="M440 1974c-30-8-83-28-117-46l-63-31-49-51c-85-87-116-138-141-228l-12-47 4-98 4-98 36-77 36-77 64-64 64-64 55-26c30-15 81-33 114-42l59-15h155l76 24 75 24 49 31c27 18 69 54 94 80l45 48 33 64 33 64 4-22 3-23h69v380h-59l-9-16-9-15-33 67-32 66-58 58-58 58-63 31c-35 17-91 37-124 46l-59 15-66-1h-65l-55-15zm559-352c14-10 33-30 44-44l19-26 5-43 4-44-18-34c-22-43-58-70-106-81l-37-8-37 8-36 9-35 34-34 34-7 34-7 34 7 33c4 18 15 44 24 58l17 26 41 19 42 20 45-6 45-5 24-18zm337 33-46-24v39h-60v-451l28 3 27 3 3 63 3 63 7-3c4-2 25-12 47-22l40-18h105l44 26 44 26 21 33c11 18 23 51 27 74l6 41-12 36c-6 20-24 51-38 68l-26 31-41 18-40 19h-92l-47-25zm154-47 44-23 19-38 19-37-7-36-6-36-32-34-32-35-42-6c-54-7-84 1-122 33l-30 25-10 35-9 34 9 32c11 39 44 76 84 94 42 19 65 17 115-8zm327 62c-16-5-44-21-64-36l-35-27-19-41-19-41v-70l19-40 18-41 32-27 32-26 41-12 42-11 41 6c22 4 55 15 73 26 40 25 42 25 42 0v-20h60v360h-60v-20c0-11-1-20-2-20-2 0-25 11-52 25l-49 25-36-1c-20 0-49-5-64-9zm169-93 34-37v-100l-32-36-33-35-38-9-38-8-31 9c-47 13-73 34-92 72-20 44-20 70 1 114l16 35 31 20 31 19 59-4 59-3 33-37zm162 87c-8-7 157-347 170-352l11-3 86 170c47 94 85 176 85 182v10l-27-3-28-3-57-110-56-110h-21l-55 113-55 112h-24c-13 0-26-3-29-6zm482-5c-32-13-78-56-96-92l-15-28v-47c-1-83 31-136 105-174l39-20 68 4 68 4 37 30c20 16 43 39 51 51l14 22-21 11-22 12-32-30c-54-53-120-66-177-37l-30 16-19 32c-11 18-20 40-20 50v17h330v24c0 59-39 114-102 147l-37 19-58-1c-32 0-69-5-83-10zm144-53 33-14 17-23c9-13 16-27 16-31v-8h-250v8c0 18 35 55 64 68 40 17 79 17 120 0z"/></g><g fill="#525753" transform="matrix(.1 0 0 -.1 0 300)"><path d="m825 1695-40-14-41-44-42-43-10-50-11-50 9-39 9-39 28-40 28-40 48-25 48-24h116l47 26 46 26v-39h70v380h-61l-6-15-5-16-19 17c-45 41-142 54-214 29zm174-73c14-10 33-30 44-44l19-26 5-43 4-44-18-34c-22-43-58-70-106-81l-37-8-37 8-36 9-35 34-34 34-7 34-7 34 7 33c4 18 15 44 24 58l17 26 41 19 42 20 45-6 45-5 24-18zm337 33-46-24v39h-60v-451l28 3 27 3 3 63 3 63 7-3c4-2 25-12 47-22l40-18h105l44 26 44 26 21 33c11 18 23 51 27 74l6 41-12 36c-6 20-24 51-38 68l-26 31-41 18-40 19h-92l-47-25zm154-47 44-23 19-38 19-37-7-36-6-36-32-34-32-35-42-6c-54-7-84 1-122 33l-30 25-10 35-9 34 9 32c11 39 44 76 84 94 42 19 65 17 115-8zm327 62c-16-5-44-21-64-36l-35-27-19-41-19-41v-70l19-40 18-41 32-27 32-26 41-12 42-11 41 6c22 4 55 15 73 26 40 25 42 25 42 0v-20h60v360h-60v-20c0-11-1-20-2-20-2 0-25 11-52 25l-49 25-36-1c-20 0-49-5-64-9zm169-93 34-37v-100l-32-36-33-35-38-9-38-8-31 9c-47 13-73 34-92 72-20 44-20 70 1 114l16 35 31 20 31 19 59-4 59-3 33-37zm162 87c-8-7 157-347 170-352l11-3 86 170c47 94 85 176 85 182v10l-27-3-28-3-57-110-56-110h-21l-55 113-55 112h-24c-13 0-26-3-29-6zm482-5c-32-13-78-56-96-92l-15-28v-47c-1-83 31-136 105-174l39-20 68 4 68 4 37 30c20 16 43 39 51 51l14 22-21 11-22 12-32-30c-54-53-120-66-177-37l-30 16-19 32c-11 18-20 40-20 50v17h330v24c0 59-39 114-102 147l-37 19-58-1c-32 0-69-5-83-10zm144-53 33-14 17-23c9-13 16-27 16-31v-8h-250v8c0 18 35 55 64 68 40 17 79 17 120 0z"/></g><g fill="#080a08" transform="matrix(.1 0 0 -.1 0 300)"><path d="M851 1700c-18-4-52-21-74-38l-42-30-22-43-23-42v-92l19-40c23-49 64-89 113-109l37-16h96l41 19c23 10 45 24 48 30 4 6 11 11 17 11h9v-50h50v380h-42l-5-20c-6-24-16-25-34-4-20 24-60 42-109 47l-45 6-34-9zm144-69c16-9 40-32 52-51l23-33v-102l-20-33-21-33-46-21-46-20-46 6-46 6-25 18c-14 11-35 34-47 52l-23 33v79l16 34 16 34 34 21c19 11 47 25 62 29l27 8 30-5c17-3 43-13 60-22zm242 32-7-6v-427h50v65c0 36 2 65 4 65 3 0 26-11 52-25l47-25h92l41 19 41 19 28 37 28 36 7 44 7 44-13 37c-14 41-56 89-96 110l-27 14h-126l-36-25c-38-25-49-24-49 7v18h-18c-10 0-22-3-25-7zm263-54 37-21 16-28 17-28v-73l-15-29c-8-16-29-39-47-51l-31-23h-92l-33 18-33 17-20 32-20 32 4 48 4 48 24 26c30 32 74 52 118 53h33l38-21zm300 50c-32-13-78-56-96-91l-14-27v-98l23-43 23-44 44-23 43-23h110l44 25 43 26v-42l16-6 15-6 9 9 8 9 3 165 4 165-21 3-21 3-6-21-6-22-44 26-44 26-54-1c-30 0-65-5-79-10zm146-48 41-19 17-23c9-13 19-38 22-56l6-32-12-35-11-35-30-25-30-25-35-7-36-7-37 11-37 12-29 30-30 31v117l25 27c50 55 108 67 176 36zm699 47c-63-22-124-106-125-171 0-40 26-97 62-134l31-32 50-12 50-12 54 13 54 12 34 34c39 38 43 52 19 61l-15 6-27-26c-34-32-72-47-123-47h-40l-30 15-30 16-19 32c-11 18-20 40-20 50v17h340v20c0 11-6 35-14 53l-13 32-36 32-36 32-38 10c-46 13-88 13-128-1zm140-54 34-16 16-24 16-25-6-9-6-10h-248l-6 10-6 9 17 26c9 14 29 32 43 40l26 14 43 1h44l33-16zm-635 51c0-13 166-335 172-335 7 0 168 323 168 336 0 2-10 4-23 4h-22l-58-115-57-115h-21l-55 115-56 115h-24c-13 0-24-2-24-5z"/></g></g></svg>