<svg xmlns="http://www.w3.org/2000/svg" xmlns:xlink="http://www.w3.org/1999/xlink" version="1.2" viewBox="0 0 670 670" baseProfile="tiny-ps">
  <title>1WorldSync</title>
  <circle id="White_Circle" cx="335" cy="335" r="335" fill="#FFFFFF"/>
  <rect id="Rectangle_466" x="211.5" y="241.5" width="52" height="52" fill="#00875C"/>
  <rect id="Rectangle_467" x="367.5" y="189.5" width="52" height="52" fill="#00875C"/>
  <rect id="Rectangle_468" x="419.5" y="293.5" width="52" height="52" fill="#00875C"/>
  <rect id="Rectangle_475" x="211.5" y="189.5" width="52" height="52" fill="#D1DF2B"/>
  <rect id="Rectangle_476" x="263.5" y="293.5" width="52" height="52" fill="#D1DF2B"/>
  <rect id="Rectangle_478" x="419.5" y="137.5" width="52" height="52" fill="#D1DF2B"/>
  <rect id="Rectangle_479" x="419.5" y="241.5" width="52" height="52" fill="#D1DF2B"/>
  <rect id="Rectangle_480" x="367.5" y="345.5" width="52" height="52" fill="#D1DF2B"/>
  <rect id="Rectangle_487" x="315.5" y="137.5" width="52" height="52" fill="#D1DF2B"/>
  <rect id="Rectangle_481" x="263.5" y="241.5" width="52" height="52" fill="#77CC44"/>
  <rect id="Rectangle_482" x="263.5" y="137.5" width="52" height="52" fill="#77CC44"/>
  <rect id="Rectangle_483" x="367.5" y="241.5" width="52" height="52" fill="#77CC44"/>
  <rect id="Rectangle_484" x="419.5" y="189.5" width="52" height="52" fill="#77CC44"/>
  <rect id="Rectangle_485" x="211.5" y="293.5" width="52" height="52" fill="#77CC44"/>
  <rect id="Rectangle_486" x="263.5" y="345.5" width="52" height="52" fill="#77CC44"/>
  <rect id="Rectangle_469" x="211.5" y="345.5" width="52" height="52" fill="#00BE5A"/>
  <rect id="Rectangle_470" x="419.5" y="345.5" width="52" height="52" fill="#00BE5A"/>
  <rect id="Rectangle_471" x="367.5" y="293.5" width="52" height="52" fill="#00BE5A"/>
  <rect id="Rectangle_472" x="367.5" y="137.5" width="52" height="52" fill="#00BE5A"/>
  <rect id="Rectangle_473" x="211.5" y="137.5" width="52" height="52" fill="#00BE5A"/>
  <path id="Path_7" d="M263.5,189.5h52l-26,26v26h-26V189.5z" fill="#20B25A"/>
  <path id="World" d="M229.04,471.896h7.024l12.725-38.028l12.577,38.028h7.024l15.724-47.772h-7.788  l-11.752,36.437l-11.951-36.437h-7.797l-11.951,36.437l-11.76-36.437h-7.788L229.04,471.896z M312.206,472.731  c13.584-0.184,24.54-11.171,24.686-24.755c0-13.672-11.083-24.755-24.755-24.755c-13.672,0-24.755,11.083-24.755,24.755  c0.209,13.615,11.218,24.588,24.833,24.755H312.206z M312.206,466.264c-10.081-0.381-17.944-8.862-17.563-18.943  c0.361-9.546,8.017-17.202,17.563-17.563c10.081,0.412,17.92,8.918,17.508,18.999C329.327,458.26,321.711,465.875,312.206,466.264z   M381.674,439.701c0-9.109-7.649-15.576-17.732-15.576h-20.096v47.772h7.024v-16.619h10.986l11.682,16.619h8.066l-12.169-17.315  C376.511,453.123,381.609,446.924,381.674,439.701z M350.869,430.661h12.099c6.884,0,11.543,3.408,11.543,9.04  s-4.659,9.04-11.543,9.04h-12.099V430.661z M395.582,465.36v-41.236h-7.093v47.772h32.404v-6.536L395.582,465.36L395.582,465.36z   M428.541,471.896h16.48c15.428,0,26.424-9.944,26.424-23.921s-10.987-23.851-26.424-23.851h-16.48V471.896z M435.565,465.499  v-34.977h9.874c11.056,0,18.775,7.232,18.775,17.454c0,10.291-7.718,17.523-18.775,17.523H435.565z" fill="#919195"/>
  <path id="Sync" d="M239.825,558.007c15.646,0,23.664-8.692,23.664-19.362c0-11.832-9.192-16.428-22.002-19.46  c-11.441-2.738-18.091-5.182-18.091-12.126c0-6.161,6.062-11.636,14.375-11.636c7.299,0.241,14.213,3.33,19.264,8.605l4.694-5.965  c-6.287-6.173-14.755-9.617-23.567-9.583c-12.907,0-22.491,8.41-22.491,19.166c0,11.636,8.507,15.841,22.002,18.971  c11.735,2.738,18.091,5.574,18.091,12.712c0,6.062-5.28,11.735-15.646,11.735c-8.363-0.022-16.336-3.531-22.002-9.681l-4.791,5.965  C220.337,554.365,229.909,558.215,239.825,558.007z M296.053,556.931h8.019v-27.38l26.989-39.799h-9.192l-21.807,32.563  l-21.611-32.563h-9.485l27.087,39.799V556.931z M340.448,556.931h7.627v-54.662l41.657,54.662h7.627v-67.179h-7.627v54.663  l-41.657-54.663h-7.627V556.931z M445.274,558.105c9.093-0.092,17.778-3.784,24.153-10.267l-5.182-5.28  c-4.881,5.329-11.745,8.406-18.971,8.507c-14.472,0-26.696-12.712-26.696-27.772c0-14.961,12.223-27.673,26.696-27.673  c7.225,0.101,14.089,3.178,18.971,8.507l5.182-5.28c-6.349-6.522-15.051-10.221-24.153-10.267  c-18.982,0.338-34.244,15.729-34.421,34.714C411.023,542.297,426.274,557.72,445.274,558.105z" fill="#919195"/>
  <path id="_x28_r_x29_" d="M472.362,428.098c-0.916,0-1.772-0.171-2.573-0.514  c-0.799-0.341-1.503-0.815-2.109-1.423c-0.606-0.606-1.081-1.309-1.423-2.109c-0.341-0.799-0.512-1.657-0.512-2.573  c0-0.916,0.171-1.772,0.512-2.573c0.342-0.799,0.816-1.501,1.423-2.107c0.607-0.606,1.31-1.081,2.109-1.423  c0.8-0.342,1.657-0.514,2.573-0.514c0.916,0,1.772,0.171,2.573,0.514c0.799,0.342,1.503,0.816,2.109,1.423  c0.606,0.606,1.081,1.309,1.423,2.107c0.342,0.801,0.512,1.657,0.512,2.573c0,0.916-0.17,1.774-0.512,2.573  c-0.342,0.8-0.816,1.503-1.423,2.109c-0.606,0.608-1.31,1.083-2.109,1.423C474.134,427.926,473.277,428.098,472.362,428.098z   M472.362,426.401c0.91,0,1.737-0.221,2.481-0.662c0.744-0.44,1.337-1.034,1.779-1.782s0.662-1.573,0.662-2.478  c0-0.91-0.222-1.737-0.667-2.48c-0.444-0.744-1.037-1.339-1.782-1.78c-0.744-0.442-1.57-0.661-2.474-0.661s-1.729,0.219-2.477,0.661  c-0.748,0.442-1.343,1.036-1.788,1.78c-0.442,0.743-0.665,1.57-0.665,2.48c0,0.905,0.222,1.731,0.665,2.478  c0.444,0.748,1.04,1.342,1.788,1.782C470.632,426.181,471.458,426.401,472.362,426.401z M469.986,424.458v-6.103h3.02  c0.514,0,0.98,0.171,1.402,0.512c0.422,0.342,0.632,0.839,0.632,1.489c0,0.409-0.092,0.759-0.276,1.055  c-0.184,0.294-0.418,0.529-0.7,0.7l1.192,2.347h-1.656l-0.983-2.05h-1.124v2.05H469.986z M471.494,421.306h1.074  c0.215,0,0.414-0.078,0.595-0.239c0.183-0.16,0.273-0.398,0.273-0.711c0-0.326-0.09-0.556-0.273-0.691  c-0.18-0.135-0.372-0.203-0.571-0.203h-1.098V421.306z" fill="#AFAFB2"/>
</svg>