<?xml version="1.0" encoding="UTF-8"?><svg xmlns="http://www.w3.org/2000/svg" width="800" height="800" viewBox="0 0 800 800" fill="none" version="1.2" baseProfile="tiny-ps"><title>ModMed</title><rect width="800" height="800" fill="white"></rect><path d="M84.007 335L116.218 432.492L148.429 335H187.316V462.009H161.274L163.383 363.111L130.976 462.009H102.826L69.3656 362.057L72.0206 462.009H44.9243V335H84.007Z" fill="#592D82"></path><path d="M282.036 450.881C277.585 455.371 272.197 458.651 265.911 460.798C259.625 462.907 253.144 464 246.468 464C239.791 464 233.31 462.946 227.102 460.798C220.894 458.69 215.545 455.449 211.094 451.077C206.526 446.587 203.09 441.238 200.787 434.991C198.483 428.744 197.351 422.301 197.351 415.703C197.351 409.105 198.483 402.662 200.787 396.416C203.09 390.169 206.526 384.82 211.094 380.33C215.545 375.957 220.933 372.677 227.219 370.53C233.505 368.343 239.986 367.25 246.663 367.25C253.339 367.25 259.664 368.343 265.95 370.53C272.236 372.716 277.585 375.996 282.075 380.33C286.643 384.82 290.079 390.169 292.383 396.416C294.686 402.662 295.819 409.105 295.819 415.703C295.819 422.301 294.686 428.744 292.383 434.991C290.079 441.238 286.643 446.626 282.075 451.077V450.881H282.036ZM238.19 442.214C239.01 442.565 239.791 442.877 240.572 443.112C241.353 443.346 242.056 443.541 242.758 443.658C248.381 444.478 253.691 443.424 258.61 440.457C263.53 437.528 266.809 433.195 268.449 427.533C269.035 425.542 269.464 423.356 269.777 421.091C270.05 418.787 270.206 416.445 270.206 414.102C269.972 408.909 268.722 403.99 266.497 399.344C264.271 394.698 260.679 391.301 255.76 389.153C254.706 388.685 253.573 388.333 252.402 388.099C251.231 387.865 250.099 387.67 249.044 387.553C243.656 387.084 238.581 388.333 233.895 391.262C229.21 394.229 226.048 398.329 224.408 403.639C223.822 405.63 223.393 407.738 223.08 409.925C222.768 412.111 222.69 414.258 222.807 416.367C222.924 421.911 224.174 427.143 226.594 432.023C229.015 436.904 232.841 440.379 238.112 442.37V442.175L238.19 442.214Z" fill="#592D82"></path><path d="M349.503 462.048C335.643 462.048 324.828 458.143 317.019 450.296C309.21 442.448 304.955 431.711 304.252 418.007C304.018 411.76 304.642 405.669 306.204 399.695C307.727 393.761 310.421 388.294 314.286 383.336C319.089 377.323 324.633 373.419 330.919 371.662C337.205 369.905 343.92 369.007 351.065 369.007L371.993 368.812V335.039H396.473V462.048H349.464H349.503ZM372.032 442.058V388.997C371.095 389.114 370.158 389.192 369.22 389.192H359.538C357.429 389.192 355.36 389.192 353.291 389.271C351.221 389.349 349.152 389.466 347.044 389.7C345.17 389.817 343.374 390.364 341.656 391.301C339.938 392.238 338.415 393.37 337.01 394.659C334.55 397.118 332.832 400.008 331.817 403.248C330.802 406.489 330.216 409.768 329.982 413.048V418.163C330.333 430.657 333.886 437.88 340.641 439.754C347.395 441.628 355.438 442.526 364.848 442.409C366.019 442.292 367.229 442.214 368.44 442.214H372.032V442.018V442.058Z" fill="#592D82"></path><path d="M456.015 335L488.226 432.492L520.437 335H559.324V462.009H533.282L535.39 363.111L502.984 462.009H474.834L441.373 362.057L444.028 462.009H416.932V335H456.015Z" fill="#592D82"></path><path d="M599.266 459.666C593.097 458.065 587.67 454.747 582.984 449.671C579.236 445.532 576.503 440.808 574.785 435.537C573.067 430.227 572.052 424.8 571.701 419.256V413.321C571.701 412.541 571.74 411.76 571.857 410.94C572.208 405.63 573.223 400.398 574.941 395.283C576.659 390.169 579.314 385.601 582.945 381.579C587.631 376.386 593.058 372.989 599.226 371.389C605.395 369.788 611.759 369.007 618.319 369.007L654.044 368.812V388.255H621.638C614.844 388.373 609.378 389.388 605.278 391.34C601.179 393.292 598.992 398.134 598.758 405.942L654.044 405.747V425.191H598.758C598.992 433.312 601.062 438.27 604.927 440.066C608.792 441.823 614.297 442.721 621.481 442.721L654.044 442.526V461.97H618.319C611.759 461.97 605.395 461.189 599.226 459.588L599.266 459.666Z" fill="#592D82"></path><path d="M712.336 462.048C698.475 462.048 687.66 458.143 679.851 450.296C672.043 442.448 667.787 431.711 667.084 418.007C666.85 411.76 667.475 405.669 669.036 399.695C670.559 393.761 673.253 388.294 677.118 383.336C681.921 377.323 687.465 373.419 693.751 371.662C700.037 369.905 706.752 369.007 713.897 369.007L734.825 368.812V335.039H759.305V462.048H712.297H712.336ZM734.864 442.058V388.997C733.927 389.114 732.99 389.192 732.053 389.192H722.37C720.262 389.192 718.192 389.192 716.123 389.271C714.054 389.349 711.984 389.466 709.876 389.7C708.002 389.817 706.206 390.364 704.488 391.301C702.77 392.238 701.247 393.37 699.842 394.659C697.382 397.118 695.664 400.008 694.649 403.248C693.634 406.489 693.048 409.768 692.814 413.048V418.163C693.165 430.657 696.718 437.88 703.473 439.754C710.227 441.628 718.27 442.526 727.68 442.409C728.851 442.292 730.061 442.214 731.272 442.214H734.864V442.018V442.058Z" fill="#592D82"></path></svg>