<svg xmlns="http://www.w3.org/2000/svg" xmlns:xlink="http://www.w3.org/1999/xlink" version="1.2" viewBox="0 0 1119.29 1143.402" baseProfile="tiny-ps">
  <title>Guardian</title>
  <g>
    <path d="M911.549,973.418h-700c-27.5,0-50-22.5-50-50v-700c0-27.5,22.5-50,50-50h700c27.5,0,50,22.5,50,50   v700C961.549,950.918,939.049,973.418,911.549,973.418z" fill="#FFFFFF"/>
    <g>
      <g>
        <path d="M777.954,351.497v-89.321c0,0-224.502,0.053-226.513,0.136     c-22.362,0.771-44.664,5.496-65.439,14.054c-28.751,11.846-54.712,30.996-74.413,55.256     c-19.452,23.958-33.098,52.459-39.282,82.797c-5.874,28.857-5.088,59.036,2.359,87.507c6.895,26.392,19.475,51.143,36.613,72.243     c18.008,22.181,41.096,40.302,66.898,52.277c28.191,13.109,59.784,19.339,90.803,17.207c22.423-1.565,44.234-6.872,64.6-15.906     c0.318-0.136,0.635-0.28,0.945-0.423c0.363-0.174,0.741-0.333,1.111-0.507c2.071-0.953,4.105-1.935,6.139-2.948     c5.156-2.586,10.198-5.436,15.143-8.505c1.429-0.892,2.82-1.814,4.211-2.706c0.159-0.113,0.295-0.189,0.454-0.302     c0-0.015,0.015-0.015,0.015-0.015c0.159-0.106,0.295-0.212,0.446-0.318c0.091-0.053,0.159-0.106,0.249-0.174     c1.882-1.247,3.742-2.548,5.572-3.909c18.386-13.328,34.398-29.991,46.993-49.004c2.888-4.37,5.61-8.868,8.089-13.51     c9.798-18.023,16.64-37.754,20.329-57.894c5.67-31.162,3.493-63.527-6.146-93.653c-1.043-3.266-2.192-6.517-3.41-9.73     c-3.568-9.367-7.847-18.484-12.958-27.095c-0.824-1.391-2.964-4.287-3.75-5.557h4.959H777.954z M557.489,555.005h-0.098     c-55.664,0-100.767-45.556-100.767-101.75c0-56.209,45.103-101.757,100.767-101.757c0.9,0,1.807,0.023,2.691,0.053h0.438     c2.071,0.053,4.105,0.181,6.139,0.378c6.199,0.574,12.217,1.701,18.031,3.372c42.389,12.005,73.46,51.302,73.46,97.955     c0,52.24-38.994,95.301-89.216,101.07c-0.869,0.106-1.739,0.204-2.616,0.28h-0.053c-1.693,0.159-3.379,0.257-5.088,0.333     c-0.68,0.015-1.353,0.03-2.026,0.045C558.6,555.005,558.048,555.005,557.489,555.005" fill="#0CA766"/>
        <path d="M769.739,677.098c0,116.741-94.054,211.725-209.661,211.725     c-115.6,0-209.669-94.984-209.669-211.725c0-41.852,12.096-80.892,32.939-113.77c20.465,34.254,43.515,53.29,65.477,65.961     c-6.229,14.689-9.669,30.852-9.669,47.809c0,67.329,54.251,122.117,120.922,122.117c66.679,0,120.915-54.787,120.915-122.117     c0-22.809-6.207-44.15-17.048-62.43c-0.522-0.915-1.073-1.822-1.656-2.744c-21.342-34.028-58.892-56.715-101.614-56.927     c0,0-0.764,0-1.671,0.023h-0.015c-0.922,0-1.973,0.015-2.578,0.03c-42.646-0.401-78.964-27.534-93.268-65.628     c29.008-15.354,61.984-24.026,96.934-24.026c30.074,0,58.696,6.434,84.574,18.008c2.646,1.172,5.239,2.404,7.802,3.682     c25.795,12.814,48.588,30.837,67.05,52.701c1.346,1.58,2.669,3.175,3.954,4.801C752.404,580.882,769.739,626.99,769.739,677.098" fill="#008EB1"/>
        <path d="M737.131,393.881c-37.641-17.305-100.087-31.419-152.341-38.586     c-5.844-1.663-11.899-2.812-18.129-3.372c-2.034-0.197-4.067-0.317-6.139-0.371l156.499-0.053     c0.779,1.27,2.918,4.166,3.735,5.549c5.118,8.611,9.405,17.736,12.965,27.103C734.939,387.364,736.088,390.615,737.131,393.881" fill="#007A4A"/>
        <path d="M662.293,611.847c-0.091,0.076-0.159,0.129-0.242,0.174c-0.159,0.106-0.295,0.212-0.454,0.317     c0,0-0.023,0-0.023,0.015c-0.151,0.106-0.295,0.197-0.446,0.302c-1.399,0.892-2.782,1.807-4.211,2.706     c-4.937,3.069-9.994,5.919-15.143,8.497c-2.034,1.028-4.067,2.011-6.139,2.956c-10.304-24.525-38.299-56.118-74.33-70.951     c-0.718-0.302-1.368-0.544-2.087-0.847c-0.053-0.023,1.913-0.03,2.094-0.015C603.824,555.374,641.027,577.955,662.293,611.847" fill="#007A4A"/>
      </g>
    </g>
  </g>
</svg>