<?xml version="1.0" encoding="iso-8859-1"?>
<!-- Generator: Adobe Illustrator 22.0.0, SVG Export Plug-In . SVG Version: 6.00 Build 0)  -->
<svg version="1.2" baseProfile="tiny-ps" id="Layer_1" xmlns="http://www.w3.org/2000/svg" xmlns:xlink="http://www.w3.org/1999/xlink"
	  viewBox="0 0 500 500" xml:space="preserve">
	  <title>QuiteLike</title>
<rect y="-2.356" fill="#481514" width="500" height="502.356"/>
<g>
	<path fill="#EF4684" d="M151.663,330.644h-3.184C89.575,330.963,45,282.566,45,223.663C45,163.486,90.212,117,148.479,117
		c58.903,0,103.479,47.76,103.479,106.663c0,52.853-34.387,95.519-82.465,105.07c12.417,16.238,33.113,28.656,60.814,28.656
		c19.104,0,35.024-6.368,44.575-18.785l8.597,6.686c-17.83,28.974-36.934,41.71-62.405,41.71
		C189.234,387,165.672,369.488,151.663,330.644z M151.344,312.495c37.571,0,63.361-34.068,63.361-84.375
		c0-55.72-28.337-93.29-69.092-93.29c-37.571,0-63.361,33.75-63.361,83.738C82.252,274.606,110.59,312.495,151.344,312.495z"/>
	<path fill="#EF4684" d="M300.67,290.526V156.8c0-15.602-7.641-21.651-27.7-21.651v-14.964h95.2v14.964
		c-25.471,0-34.386,6.049-34.386,22.606v150.283h45.53c37.571,0,51.263-13.054,61.77-49.033h15.92l-14.646,68.137H272.97v-14.964
		C293.347,312.177,300.67,306.128,300.67,290.526z"/>
</g>
</svg>
