<svg width="2000" height="2000" xmlns="http://www.w3.org/2000/svg" xml:space="preserve" baseProfile="tiny-ps" version="1.2">
 <title>Galaxus</title>
 <g>
   <path id="svg_2" d="m1320.7,1199.30068c-18.2,43.2 -43.9,81.8 -75.7,113.6c4.5,11.4 8.3,25.7 9.8,43.2c7.6,71.9 166.6,62.1 174.1,47.7c7.7,-13.7 -11.3,-156.1 -108.2,-204.5"/>
   <path id="svg_3" d="m1002.7,1417.30068c-20.4,0 -40.9,-2.3 -60.6,-5.3c0,65.1 45.4,122.7 110.5,133.3c28,4.5 54.5,-2.3 78.7,-13.6c-3,0 -5.3,0.8 -7.6,0c-56.8,-9.8 -76.5,-59.8 -71.2,-118.9c-16.5,3 -33.1,4.5 -49.8,4.5"/>
   <path id="svg_4" d="m573.4,1400.70068c7.6,14.4 163.5,28 171.1,-44.7c1.5,-18.2 5.3,-32.6 10.6,-43.2c-31.8,-32.6 -57.5,-71.2 -75.7,-113.6c-97.7,47.8 -113.6,187.9 -106,201.5"/>
   <path id="svg_5" d="m682.4,893.40068c19.7,-43.9 48.5,-83.3 82.5,-115.8c-74.2,-62.1 -200.6,-66.6 -212.8,-59.1c-14.4,9.1 -12.9,163.5 62.8,162c25.9,0 49.4,4.6 67.5,12.9"/>
   <path id="svg_6" d="m1104.9,625.30068c0,-17.4 17.4,-46.9 17.4,-60.6c0,-14.4 -46.9,-38.6 -67.4,-58.3c-19.7,-19.7 -39.4,-54.5 -54.5,-55.3l-1.5,0c-15.1,0 -34.8,35.6 -55.3,56c-20.4,19.7 -67.4,43.9 -67.4,58.3c0,14.4 17.4,43.2 17.4,60.6c0,17.4 -8.3,31.8 -12.1,48.5c-1.5,8.3 3.8,10.6 9.8,25.7c0.8,0 2.3,-0.8 3,-0.8c32.6,-10.6 67.4,-15.9 103,-15.9s70.4,6.1 103,15.9c1.5,0 2.3,0.8 3.8,0.8c6.1,-15.1 12.1,-18.2 9.8,-25.7c-1.4,-17.4 -9,-31 -9,-49.2"/>
   <path id="svg_7" d="m1270,916.90068c-17.4,-39.4 -41.6,-74.2 -71.9,-103c-49.2,-46.9 -109.8,-74.2 -175.7,-79.5c-8.3,-0.8 -15.9,-0.8 -22.7,-0.8c-6.8,0 -14.4,0 -22.7,0.8c-65.9,5.3 -126.4,33.3 -175.7,79.5c-30.3,28.8 -54.5,63.6 -71.9,103c-18.2,42.4 -28,87.1 -28,133.3c0,44.7 8.3,87.8 25.7,128c15.1,35.6 35.6,67.4 61.3,95.4c43.2,46.2 97.7,76.5 158.2,88.6c18.2,3 35.6,5.3 53,5.3c6.1,0 12.9,0 21.2,-0.8c71.9,-5.3 139.3,-38.6 190,-92.4c25.7,-27.3 46.2,-59.8 61.3,-95.4c16.7,-40.9 25.7,-84 25.7,-128c0.2,-47 -8.9,-92.4 -27.8,-134"/>
   <path id="svg_8" d="m1447.2,718.50068c-11.4,-7.6 -138.6,-3 -212.8,59.1c34.1,32.6 62.1,71.9 82.5,115.8c18.2,-8.3 41.6,-12.9 67.4,-12.1c75,1.5 77.3,-153 62.9,-162.8"/>
 </g>
</svg>