<?xml version="1.0" encoding="utf-8"?>
<!-- Generator: Adobe Illustrator 28.1.0, SVG Export Plug-In . SVG Version: 6.00 Build 0)  -->
<svg version="1.2" baseProfile="tiny-ps" id="Capa_1" xmlns="http://www.w3.org/2000/svg" xmlns:xlink="http://www.w3.org/1999/xlink"
	 viewBox="0 0 40 40" xml:space="preserve" >
	 <title>RUBI</title>
<g>
	<g>
		
			<rect x="6.53" y="6.51" transform="matrix(0.7071 -0.7071 0.7071 0.7071 -8.3377 20.157)" fill="#010202" width="27.27" height="27.27"/>
		<path fill="#FFFFFF" d="M20.16,1.44l18.71,18.71L20.16,38.85L1.46,20.14L20.16,1.44 M20.16,0.28l-0.58,0.58L0.88,19.57L0.3,20.14
			l0.58,0.58l18.71,18.71L20.16,40l0.58-0.58l18.71-18.71l0.58-0.58l-0.58-0.58L20.74,0.86L20.16,0.28L20.16,0.28z"/>
	</g>
	<polyline id="SIMBOLO_RUBI_00000150062719659108839100000004980302278899678600_" fill="#E1251B" points="29.53,10.8 20.16,1.44 
		10.8,10.8 10.81,10.78 13.92,13.89 26.4,13.89 29.51,10.78 	"/>
	<path fill="#FFFFFF" d="M13.62,21.13c0.12-0.06,0.24-0.13,0.35-0.21c0.12-0.09,0.22-0.22,0.31-0.39c0.09-0.17,0.13-0.37,0.13-0.6
		v-1.45c0-0.44-0.15-0.79-0.44-1.06c-0.29-0.27-0.68-0.4-1.17-0.4H7.69v6.19h1.85v-1.82h1.51l1.82,1.82h1.68v-0.84l-1.16-1.15
		C13.47,21.2,13.54,21.17,13.62,21.13z M9.54,19.89v-1.36h2.58c0.29,0,0.44,0.13,0.44,0.4v0.57c0,0.26-0.15,0.4-0.44,0.4H9.54z"/>
	<path fill="#FFFFFF" d="M20.4,21.4c0,0.26-0.15,0.4-0.44,0.4h-2.34c-0.29,0-0.44-0.13-0.44-0.4v-4.38h-1.85v4.82
		c0,0.44,0.15,0.8,0.44,1.06c0.29,0.26,0.68,0.4,1.17,0.4h3.71c0.49,0,0.87-0.13,1.17-0.4c0.29-0.26,0.44-0.62,0.44-1.06v-4.82H20.4
		V21.4z"/>
	<path fill="#FFFFFF" d="M29.6,20.36c-0.1-0.08-0.21-0.16-0.34-0.21c-0.13-0.06-0.22-0.09-0.27-0.1c-0.05-0.01-0.09-0.02-0.12-0.02
		v-0.09l0.1-0.03c0.06-0.02,0.14-0.05,0.23-0.11c0.09-0.05,0.18-0.12,0.27-0.21c0.09-0.08,0.16-0.21,0.23-0.36
		c0.07-0.16,0.1-0.33,0.1-0.54v-0.22c0-0.44-0.15-0.79-0.44-1.06c-0.29-0.27-0.68-0.4-1.17-0.4h-4.92v6.19h5.11
		c0.49,0,0.87-0.13,1.17-0.4c0.29-0.26,0.44-0.62,0.44-1.06v-0.44c0-0.21-0.04-0.4-0.12-0.57C29.79,20.57,29.7,20.45,29.6,20.36z
		 M25.12,18.35h2.38c0.29,0,0.44,0.13,0.44,0.4v0.26c0,0.26-0.15,0.4-0.44,0.4h-2.38V18.35z M28.14,21.49c0,0.26-0.15,0.4-0.44,0.4
		h-2.58v-1.15h2.58c0.29,0,0.44,0.13,0.44,0.4V21.49z"/>
	<rect x="30.82" y="17.02" fill="#FFFFFF" width="1.85" height="6.19"/>
</g>
</svg>
