<?xml version="1.0" encoding="UTF-8"?>
<!-- Generator: Adobe Illustrator 24.2.1, SVG Export Plug-In . SVG Version: 6.00 Build 0)  -->
<svg version="1.2" baseProfile="tiny-ps" id="Layer_1" xmlns="http://www.w3.org/2000/svg" xmlns:xlink="http://www.w3.org/1999/xlink" viewBox="0 0 432 432" xml:space="preserve">
<title>CapitalOne</title>
<g>
	<rect fill="#FFFFFF" width="432" height="432"/>
	<path id="Icon_1_" fill="#CE0E2D" d="M291.1,235.9C291.1,235.9,291,235.9,291.1,235.9c-17.9,12.6-38.9,25.9-61.6,39.8l-0.9,0.5   c-0.3,0.2-0.4,0.6-0.2,0.9c0.2,0.3,0.6,0.4,0.9,0.2l0.8-0.4c19.2-10,41.3-22,63.6-34.2c0.1-0.1,0.2-0.1,0.4-0.2   C292.8,240.5,291.8,238.3,291.1,235.9z M407.9,141.3c-28.1-30.9-208.6-3.1-285.4,13.7l-1.8,0.4c-0.4,0.1-0.6,0.4-0.6,0.8   c0.1,0.4,0.4,0.6,0.8,0.6l1.8-0.4c63.6-11.3,195.9-27,224.3,1.2c8.7,8.6,6.6,19.7-3.5,32.8c5.4,3.5,9.3,9,11,15.8   C394,180,420.4,155.1,407.9,141.3z"/>
	<g id="Wordmark_1_">
		<path fill="#003A5D" d="M302.4,227.7c0.4,10.9,7.2,19.8,16.2,19.8c17.4,0,24.8-21.4,24.3-35.7c-0.4-10.9-7.4-19.8-16.4-19.8    C311.6,192.1,301.9,213.4,302.4,227.7z M293.2,227.1c-0.6-18.6,13.9-37.6,35.1-37.6c14.1,0,23.4,9.4,23.9,23.9    c0.7,19.6-12.9,37.6-35.1,37.6C303,251,293.8,241.6,293.2,227.1z"/>
		<path fill="#003A5D" d="M92.9,222.2c-0.8,0.3-1.7,0.6-2.9,0.8c-1.2,0.3-3.4,0.7-6.6,1.2c-2.2,0.4-3.7,0.8-4.6,1.4    c-0.8,0.6-1.3,1.4-1.5,2.2c-0.2,1,0.1,1.7,1,2.3c0.8,0.6,2.3,0.9,4.3,0.9c1.5,0,3-0.2,4.4-0.7c1.4-0.5,2.7-1.1,3.6-1.9    c0.7-0.6,1.2-1.4,1.5-2.2C92.2,225.7,92.6,224.4,92.9,222.2z M111.3,210.8c-0.1,1.7-0.4,3.2-0.8,5.8l-3.1,17.5    c-0.3,1.6,0.3,2.8,1.8,3.6l-0.1,0.7l-17.8,0l-0.2-4.4c-2.6,1.6-5.7,2.9-8.6,3.7c-2.8,0.7-5.1,1.1-8.5,1.1c-5.8,0-9.1-0.6-11.3-2.6    c-2.3-2.1-3.4-3.4-3.3-6.2c0.1-1.6,0.9-3.7,2.2-5.2c1.2-1.5,2.9-2.4,4.7-3.3c1.8-0.9,4-1.5,7.2-2c3.2-0.5,7.5-1,13.4-1.5    c3.1-0.3,5-1,5.8-1.3c1.2-0.5,1.7-1,1.9-2c0.3-1.8-0.2-2.8-2.6-3.3c-6.4-1.3-18.4,0.8-24.6,2.4l3.4-9.1c8.2-1.2,15.8-2,23.9-2    C107.3,202.4,111.4,206.1,111.3,210.8z"/>
		<path fill="#003A5D" d="M162.9,238.4l6.2-34.9h17.1l-6.2,34.9H162.9z M170,195.4c0.5-2.9,5-5.2,10.1-5.2c5.1,0,8.8,2.3,8.3,5.2    c-0.5,2.9-5.1,5.2-10.1,5.2C173.2,200.6,169.5,198.3,170,195.4z"/>
		<path fill="#003A5D" d="M246.7,222.3c-0.8,0.3-1.8,0.5-3,0.8c-1.2,0.3-3.4,0.6-6.6,1.2c-2.2,0.4-3.8,0.8-4.6,1.4    c-0.8,0.6-1.3,1.3-1.5,2.2c-0.2,1,0.2,1.7,1,2.3c0.9,0.6,2.3,0.9,4.3,0.9c1.5,0,2.9-0.2,4.4-0.7c1.4-0.5,2.7-1.1,3.6-1.9    c0.6-0.6,1.2-1.4,1.5-2.3C246,225.8,246.3,224.4,246.7,222.3z M265.1,210.9c-0.1,1.7-0.4,3.2-0.8,5.8l-3.1,17.5    c-0.3,1.5,0.3,2.8,1.7,3.6l-0.1,0.6l-17.8,0l-0.1-4.4c-2.6,1.6-5.8,2.9-8.6,3.6c-2.8,0.7-5.1,1.1-8.6,1.1c-5.8,0-9-0.6-11.3-2.6    c-2.3-2.1-3.4-3.4-3.3-6.2c0.1-1.6,0.9-3.7,2.1-5.2c1.2-1.5,2.9-2.5,4.8-3.3s4-1.5,7.1-2c3.2-0.5,7.6-1,13.4-1.5    c3.1-0.3,4.9-0.9,5.8-1.3c1.2-0.5,1.7-1,1.9-2c0.3-1.8-0.2-2.8-2.6-3.3c-6.4-1.3-18.4,0.8-24.6,2.4l3.4-9.1c8.2-1.2,15.8-2,23.9-2    C261.1,202.5,265.2,206.2,265.1,210.9z"/>
		<path fill="#003A5D" d="M57,225.8c-5.5,1.1-8.7,1.5-14.2,1.5c-8.2,0-14.6-4-14.3-11.5c0.2-4.9,6.1-15.4,21-15.4    c4.7,0,8.3,0.8,13.2,3.6l2.2-12.1c-6.7-2.5-11.1-2.9-16.9-2.8c-19.5,0.2-38.2,9.1-40.5,27.1c-2.4,18.3,20,22.9,29.9,22.9    c5.7,0,11.7-0.2,17.2-0.8L57,225.8z"/>
		<path fill="#003A5D" d="M195.5,203.3l1.2-7.1l17.8-3.9l-1.9,11h8.7l-1.7,7l-8.5,0l-5.1,28.1c0,0-17.2-0.1-17.2,0l5.1-28h-6.5    l1.3-7.1L195.5,203.3L195.5,203.3z"/>
		<polygon fill="#003A5D" points="282.4,238.3 265,238.4 273.8,189.7 290.7,190.2   "/>
		<path fill="#003A5D" d="M140.4,211.6c-2.2,0-4.3,0.7-6.1,2c-1.8,1.4-2.9,3.3-3.4,6c-0.5,3.1-0.2,5.2,1,6.6c1.2,1.3,3,2,5.3,2    c1.6,0,3.2-0.3,4.3-0.9c1.5-0.8,2.5-1.6,3.3-2.9c0.9-1.4,1.6-2.9,1.9-4.6c0.5-2.8,0.1-4.8-1.2-6.2    C144.3,212.3,142.6,211.6,140.4,211.6z M109.3,250.4l8.3-46.8h15l-1.2,6c1.3-1.8,3.4-3.2,6.2-4.4c2.9-1.2,6.1-2.1,9.7-2.1    c3.9,0,6.3,0.2,9.2,1.7c2.9,1.5,4.9,3.7,6,6.6c1.1,2.8,1.4,6,0.8,9.5c-1,5.8-3.8,10.3-8.4,13.6c-4.6,3.3-8.7,4.2-14.6,4.2    c-2.1,0-3.8-0.2-5.3-0.6c-1.4-0.4-2.5-0.8-3.4-1.4c-0.8-0.6-1.7-1.3-2.8-2.5l-2.8,16H109.3z"/>
		<path fill="#003A5D" d="M418.9,215.9c-0.1-2.8-1.5-4.7-4.4-4.7c-7,0-14.4,13.7-15.7,19.2C410.2,230.5,419.1,223.6,418.9,215.9z     M420.4,237.4l1.4,0.9c-3.4,6.9-10.4,12.5-18.5,12.5c-6.7,0-12.1-4.4-12.4-12.8c-0.5-14.9,13.5-28.8,24.9-28.8    c4.9,0,9.5,2.1,9.7,7.4c0.4,11.9-16.3,15.5-27.3,15.8c-0.4,1.2-0.5,2.5-0.4,4.4c0.2,4.9,3.2,9.1,9.3,9.1    C412.3,245.9,417.7,241.6,420.4,237.4z"/>
		<path fill="#003A5D" d="M352,215.5c1.2-0.2,3.1-0.4,3.9-0.4c1.3,0,2.4,0.2,2.5,1.5c0,0.7-1.3,6-1.6,7.3l-2.7,11.7    c-1.1,4.8-2.2,9.8-3.3,13.8h6.8l3.8-18.6c11.7-12.2,16.2-16.2,19-16.2c1.2,0,2.1,0.6,2.2,2.1c0.1,2.1-1.3,7-1.7,8.4l-3.9,13.6    c-0.9,3-1.5,5.8-1.5,7.8c0.1,3,1.9,4.3,4.6,4.3c5,0,8.6-5.2,11.8-10.3l-0.9-1.7c-1.3,2.1-4.2,6.5-6.6,6.5c-0.7,0-1.4-0.5-1.5-1.7    c-0.1-1.6,0.6-3.9,1.1-5.5l4.4-15.9c1.2-4.4,1.7-7.2,1.7-8.7c-0.1-3-1.8-4.4-4.5-4.4c-4.5,0-10.5,3.3-23.1,17.8h-0.2l1.6-7.1    c0.9-3.9,1.7-7.9,2.5-10.7c-4.4,1.6-10.6,3.3-14.5,4.1L352,215.5z"/>
	</g>
</g>
</svg>