<?xml version="1.0" encoding="utf-8"?>
<!-- Generator: Adobe Illustrator 26.5.0, SVG Export Plug-In . SVG Version: 6.00 Build 0)  -->
<svg version="1.2" baseProfile="tiny-ps" id="Layer_1" xmlns="http://www.w3.org/2000/svg" xmlns:xlink="http://www.w3.org/1999/xlink"
	 viewBox="0 0 40 40" xml:space="preserve">
<title>Onfy</title>
<rect y="0" fill="#6C39FD" width="40" height="40"/>
<path fill="#FFFFFF" d="M33.9,15.3h-4.1c-1.7,0-2.6,0.9-2.6,2.6v4.2c0,1.7,0.9,2.6,2.6,2.6h4.1c1.7,0,2.6-0.9,2.6-2.6v-4.2
	C36.5,16.2,35.6,15.3,33.9,15.3z M32.4,21.5c-0.2,0.4-0.7,0.7-1.2,0.7H30v-0.9h1.1c0.1,0,0.2-0.1,0.1-0.3l-1.5-2.4h1.1l1,1.7l1-1.7
	H34L32.4,21.5z"/>
<path fill="#FFFFFF" d="M24,15.3c-1.4,0-2.5,1-2.5,2.3v4.7c0,1.3,1.1,2.3,2.5,2.3c1.4,0,2.5-1,2.5-2.3v-4.7
	C26.5,16.3,25.4,15.3,24,15.3z M25.2,18.1h-0.5c-0.3,0-0.4,0.2-0.4,0.4v0.2h0.9v0.8h-0.9v1.8h-1v-1.8h-0.8v-0.8h0.8v-0.2
	c0-0.8,0.4-1.1,1.2-1.1h0.7V18.1z"/>
<path fill="#FFFFFF" d="M17.1,15.3c-2,0-3.7,1.6-3.7,3.6v2.2c0,2,1.7,3.6,3.7,3.6c2,0,3.7-1.6,3.7-3.6v-2.2
	C20.8,16.9,19.1,15.3,17.1,15.3z M18.9,21.2h-1V20c0-0.5-0.3-0.7-0.8-0.7c-0.5,0-0.8,0.3-0.8,0.7v1.2h-1v-1.2c0-1,0.7-1.7,1.8-1.7
	c1.1,0,1.8,0.6,1.8,1.7V21.2z"/>
<path fill="#FFFFFF" d="M8.1,15.3c-2.6,0-4.7,2.1-4.7,4.7c0,2.6,2.1,4.7,4.7,4.7c2.6,0,4.7-2.1,4.7-4.7
	C12.8,17.4,10.7,15.3,8.1,15.3z M8.1,21.6C6.9,21.6,6,21,6,20c0-1,0.9-1.6,2.1-1.6s2.1,0.6,2.1,1.6C10.2,21,9.2,21.6,8.1,21.6z"/>
<path fill="#FFFFFF" d="M8.1,19.3c-0.5,0-1,0.2-1,0.7c0,0.5,0.5,0.7,1,0.7s1-0.2,1-0.7C9,19.5,8.6,19.3,8.1,19.3z"/>
</svg>
