<?xml version="1.0" encoding="UTF-8"?><svg version="1.2" baseProfile="tiny-ps" id="Layer_1" xmlns="http://www.w3.org/2000/svg" xmlns:xlink="http://www.w3.org/1999/xlink" viewBox="0 0 1400 1400" xml:space="preserve"><title>Porsche Design</title><g><g id="Ebene_1"><rect y="0" width="1400" height="1400" /></g></g><g><g id="Ebene_2"><g><path fill="#FFFFFF" d="M960.06,733.88c0,13.54-10.16,23.7-23.68,23.7H463.63c-13.54,0-23.7-10.16-23.7-23.7v-67.76&#xD;&#xA;&#x9;&#x9;&#x9;c0-13.55,10.16-23.71,23.7-23.71h472.74c13.53,0,23.68,10.16,23.68,23.71V733.88z M960.11,311.96v222.81H422.12&#xD;&#xA;&#x9;&#x9;&#x9;c-61.02,0-110.17,50-110.17,111.03v442.25h127.93V865.21h537.99c61.04,0,110.17-50.01,110.17-111.03V311.96H960.11z" /></g></g></g><g><g id="Ebene_3" /></g></svg>
