<?xml version="1.0" encoding="UTF-8"?>
<svg id="Crest" xmlns="http://www.w3.org/2000/svg" baseProfile="tiny-ps" version="1.2" viewBox="0 0 216 216"><title>Porsche</title>
  <path d="M48.0167,49.915c.04-3.665.32-4.09,3.685-5.565,6.5401-2.865,15.3252-5.53,25.1003-7.41,9.8651-1.9,20.4003-2.94,31.2004-2.94s21.3353,1.04,31.2004,2.94c9.7801,1.88,18.5602,4.55,25.1003,7.41,3.365,1.475,3.6401,1.9,3.68,5.56.04,3.86.01,9.73-.11,18.6-.115,8.63-.3,17.905-.565,27.51-.275,10.085-.585,21.415-2.615,31.405-2.885,14.18-9.5051,27.785-18.5452,39.05-9.1401,11.39-21.2403,21.005-35.9505,26.88-2.15.86-2.245.86-4.3951,0-14.7102-5.875-26.8104-15.49-35.9505-26.88-9.0401-11.265-15.6602-24.87-18.5452-39.05-2.03-9.99-2.34-21.32-2.615-31.405-.265-9.605-.45-18.88-.565-27.51-.12-8.865-.15-14.74-.11-18.595Z" fill="#e0ab4f"/>
  <path d="M108,59v60h-52.97c-.915-7.61-1.14-15.7-1.34-23.055-.25-9.05-.435-18.09-.555-26.95,7.24-3.23,16.455-5.66,24.27-7.15,10.02-1.905,20.375-2.845,30.595-2.845ZM108,119v69.855c13.4171-5.3557,25.115-14.125,34.25-25.51,8.795-10.96,14.86-23.725,17.54-36.915.485-2.39.87-4.885,1.175-7.43h-52.965Z" fill="#ebc88d"/>
  <path d="M108,74h54.7825c-.08,4.95-.18,9.95-.3,15h-54.4825v-15ZM108,119h52.9725c.59-4.91.885-10.015,1.08-15h-54.0525v15ZM74.3175,164c9.055,11.055,20.5412,19.4993,33.6825,24.85v-24.85h-33.6825ZM108,134h-49.8275c1.57,5.14,3.64,10.165,6.195,15h43.6325v-15Z" fill="#b2001e"/>
  <path d="M108,74v-15c10.23,0,20.5975.94,30.6275,2.85,7.815,1.49,17.015,3.92,24.24,7.14-.025,1.65-.06,3.345-.085,5.01h-54.7825ZM108,89v15h54.0525c.11-2.76.19-5.49.26-8.12.065-2.305.11-4.585.165-6.88h-54.4775ZM108,149h-43.6325c2.645,5.02,5.77,9.84,9.385,14.345.185.225.38.43.565.655h33.6825v-15ZM108,119h-52.97c.305,2.545.69,5.035,1.175,7.43.52,2.545,1.2,5.065,1.965,7.57h49.83v-15Z"/>
  <path d="M133.1574,163.8735c-1.1638.1199-2.2868.8223-3.1006,1.6007-.6625.6336-.9642.8154-1.8847.8897-.2751.0222-.5515.0455-.8282.0764-.1845.0206-.2499-.0452-.2307-.2296.1311-1.2643.9603-2.4917,1.8321-3.2645.2014-.1784.7185-.5641.5433-.8538-.1901-.3144-.7861-.0949-1.0519.0172-1.6107.6795-2.7107,2.076-3.2114,3.5875-.3012.9093-.5254,1.2043-1.4397,1.5293-.2586.0919-.5171.1839-.7743.2809-.1649.0622-.2402.0267-.2914-.1447-.4566-1.5288.0578-3.1828.8201-4.2059.2658-.3568.4621-.6482.2617-.9016-.1881-.2378-.5725-.1851-.9676.0593-.7594.47-1.3678,1.33-1.7107,2.1821-.3536.8786-.4661,1.8044-.5088,2.7866-.0434.9982-.2107,1.3504-1.0684,1.8865-.2538.1586-.5087.3132-.7601.4733-.1462.0932-.2251.0768-.3167-.074-.6943-1.1437-.7137-2.65-.5468-3.4436.0669-.3174.2998-1.0417-.1039-1.1711-.3887-.1247-.7978.4035-1.0036.7779-.6767,1.2311-.5921,2.6335-.3595,4.2498.1317.9147.0184,1.2549-.6794,1.8686-.1953.1718-.3915.3402-.5854.5101-.0624.0548-.094.0601-.171.0291-.486-.1962-1.0002-.2116-1.4046.1397-.3977.3454-.4825.892-.2315,1.465.0325.0742.0301.1052-.0138.1733-.3701.5749-.4357,1.2704.1469,1.7329.5192.4121,1.2059.264,1.6554-.0329.0689-.0455.1006-.0469.1732-.0078.4347.234,1.0103.2902,1.4681-.0323.4686-.3301.6621-.9605.3396-1.5955-.0396-.0779-.0331-.1125.0317-.1709,3.7669-3.3943,7.8994-5.6349,12.8331-5.7373.8986-.0186,1.491.0429,2.3997.1746.3916.0568,1.1045.1584,1.2852-.3376.1887-.5176-.4547-.8956-.8061-1.0618-.2649-.1253-1.1127-.4195-1.4001-.5202-.1377-.0482-.1634-.1174-.091-.2443.4406-.7721,1.2824-1.212,1.956-1.5301.2736-.1292.3258-.1568.4404-.2552.1097-.0941.2036-.2269.1771-.373-.0605-.3333-.5505-.3309-.8219-.3029ZM142.213,149.2308c-1.3086-.0947-2.9068.4074-4.2309,1.2024-.5047.303-.8735.557-1.4128.6863-.5326.1276-.9883.0704-1.5639-.0132-.3429-.0498-.6625-.0935-1.0189-.131-.3029-.0319-.3851-.1617-.2897-.4592.5309-1.6555,1.9767-2.8405,2.8053-3.3297.3337-.1969.4094-.2465.5169-.3361.0971-.0809.2492-.2324.2595-.4066.0231-.3922-.5314-.4726-1.1274-.3651-1.5947.2872-3.1022,1.4343-4.1411,2.9256-.3447.4947-.6148.9511-1.0951,1.3281-.4737.3718-1.0207.5574-1.619.6727-.2849.0549-.8968.1438-1.2078.1955-.2893.0482-.4048-.0371-.4251-.3372-.1114-1.6486.6666-3.3933,1.6663-4.4613.2729-.2914.7295-.7113.6219-1.1225-.0751-.2871-.3903-.3922-.7159-.3485-.2815.0377-.5524.173-.795.3193-1.7787,1.0723-2.5807,2.8997-3.0009,4.5854-.3619,1.4514-.607,1.9025-1.9273,2.476-.5344.2321-1.0711.4184-1.8832.7497-.288.1176-.4255.0374-.4706-.2695-.2029-1.3828.2083-3.004.6518-3.9728.1823-.3983.5177-1.0205.1167-1.2988-.3888-.2698-.9483.1098-1.2946.4732-.5567.5841-.9585,1.3657-1.2163,2.1268-.2435.7189-.3867,1.4707-.4775,2.5069-.0582.663-.0559.9321-.3391,1.424-.2661.4621-.579.6764-1.0775.993-.3271.2078-.661.4103-.9918.6173-.0884.0553-.1288.0552-.2168-.0007-.399-.2532-.5182-.3182-.8475-.3906-.3817-.084-.7813-.0376-1.1213.1572-.7507.4302-.8053,1.261-.5873,1.903.0548.1613.0401.2255-.0793.3467-.5635.5717-.8875,1.4654-.2818,2.1661.5648.6533,1.5168.5946,2.2702.2029.1411-.0733.2223-.0687.3542.0202.5633.3796,1.2771.5409,1.9115.1739.637-.3685.8381-1.0893.5308-1.8393-.0403-.0982-.0257-.1481.0619-.2083,5.6931-3.9163,12.3612-5.652,18.0641-4.278,1.9609.4725,3.0503,1.1121,4.1435,1.6877.7298.3842,1.3807.5954,1.7297.2318.3334-.3474.0934-.9908-.5362-1.6149-.2996-.2969-.7463-.6616-1.1933-.9909-.4484-.3303-.9483-.6412-1.2685-.8809-.1746-.1306-.1897-.2369-.0533-.4095.6499-.8226,1.7838-1.2832,2.7587-1.5054.2545-.058.8079-.1484.9859-.4691.2567-.4624-.4251-.6952-.9423-.7325ZM125.4821,136.1253c.0271.0989.0533.1866.0758.2553.1203.3668.306.4603.6697.3576.594-.1677.6766-.1855,1.4002-.372.5941-.1531,1.1983-.3373,1.6382-.7382.4435-.404.6688-.9856.8745-1.5608.5717-1.5997,1.0974-2.6429,1.7782-3.5283.792-1.03,1.7757-1.7717,2.7795-2.0996.3681-.1203,1.0999-.2752,1.2955.1861.1815.4279-.3866.8482-.6759,1.0967-1.4823,1.2743-2.4413,3.2724-2.633,5.2191-.042.4263.1449.5743.5318.5427.4357-.0356.4499-.0346.9648-.0684.6473-.0424,1.2619-.0941,1.8215-.4399.542-.335.8323-.8221,1.1428-1.293,1.9878-3.0163,4.1641-3.8741,5.63-4.1513.5821-.1102,1.2129-.0706,1.3039.3898.0864.4369-.5124.7292-.8337.906-1.9721,1.0867-3.1806,2.5819-3.7919,4.1082-.1632.4075-.0503.6025.3845.6559.0963.0118.4584.058.5538.0696.6543.0801,1.274.13,1.8914-.0777.602-.2025.9978-.5758,1.4346-.9506,2.0451-1.7552,3.8852-2.4289,4.8783-2.5976.7755-.1303,1.3597.0421,1.3347.456-.0207.3439-.3523.5599-1.0012.8738-.7251.3666-1.3731.7909-1.9273,1.2618-.5925.5035-1.1243,1.1033-1.3659,1.6611-.1145.2645-.0581.4332.1848.5798.2348.1417,1.1073.6099,1.4378.7986.5772.3295,1.065.6368,1.4486.9127.9222.6529,1.4639,1.345,1.3639,1.8631-.1365.7066-1.1799.5736-2.4966.0638-2.165-.8196-3.7687-1.3639-5.8167-1.6915-5.8012-.9271-13.256-.5073-22.0297,4.4943-.0667.038-.0823.0739-.0678.1486.1683.8675-.0089,1.639-.8055,2.1147-.8564.5115-1.8974.333-2.6117-.3321-.1112-.1036-.185-.1227-.3324-.0835-1.2478.3313-2.6104.0759-3.1019-1.2452l12.6723-7.7858ZM85.5861,107.6208c-6.9572-.4433-13.9808,2.0063-19.4061,4.7026-.0964.0479-.118.0968-.0888.2007.2101.7477.0513,1.3311-.4307,1.7114-.6299.497-1.5004.4283-2.2476-.2104-.0507-.0433-.1103-.0544-.1727-.0321-.9109.3244-1.7249.2678-2.1828-.4736-.4451-.7207-.1973-1.5427.589-2.1795.0502-.0406.0689-.0964.0535-.1595-.4197-1.7205,1.5049-2.5163,2.6649-1.3731.0705.0695.1308.0769.2152.0403.3275-.1419.6588-.2833.9847-.4404.8646-.417,1.0448-.7641,1.0687-1.7014.0409-1.602.3198-3.2465,1.311-4.2503.43-.4355,1.0038-.597,1.2596-.2615.2135.28-.0255.6907-.1646,1.0016-.4291.9593-.5812,2.3357-.2153,3.6338.0645.2291.1612.2795.3852.2092.4189-.1316,1.0878-.3515,1.5138-.5241,1.1858-.4805,1.4123-.9924,1.6474-2.1735.2973-1.4933.7378-2.6073,1.3943-3.5263.6279-.879,1.4151-1.5419,2.2392-1.8859.6873-.287,1.216-.2159,1.3306.0842h0c.117.3061-.2203.5781-.6781.966-1.3432,1.138-2.072,2.8136-1.9462,5.0928.0145.2622.1344.312.3469.2683.4288-.088,1.1833-.2522,1.6164-.3608,1.3292-.3332,1.6553-.7651,2.1022-2.0145.3496-.9773.7785-1.8416,1.4933-2.5945.6876-.7242,1.5849-1.264,2.5022-1.4723.4707-.1069.9972-.0941,1.1099.2612.0937.2954-.1414.518-.6567.8445-1.1858.7518-2.4657,2.0241-2.4747,4.0478-.0011.2432.1015.3149.3131.3023.6465-.0385,1.1221-.0718,1.763-.089,1.059-.0286,1.932-.023,2.7481-.629l.0119,2.985ZM85.4359,91.9946c-6.7443-.504-13.9533,1.9568-19.8296,5.1864-.0934.0513-.1132.1018-.0836.203.2809.949.0516,1.6854-.6785,2.0868-.7026.3862-1.5378.2255-2.2756-.4137-.0664-.0574-.1098-.067-.1925-.038-.8703.3047-1.8594.3642-2.4303-.554-.5664-.911-.1307-1.8259.627-2.4422.066-.0537.0777-.0986.0576-.1784-.4923-1.9583,1.664-2.7928,2.9517-1.5042.0733.0733.123.0818.216.0359.2275-.112.5263-.2559.7343-.3676.829-.4451.9638-.8584.9129-1.7191-.1124-1.8992.1315-3.8672,1.4608-5.1058.3851-.3588.9648-.6521,1.2638-.3353.2573.2727-.0192.7988-.1509,1.0975-.4961,1.1267-.7603,2.662-.274,4.2185.0807.2583.237.3365.4913.2425.4343-.1605,1.4568-.5371,1.9232-.7241.4403-.1766.844-.3647,1.122-.7538.278-.3893.3269-.8287.3907-1.3054.3183-2.3759,1.1109-4.5503,3.018-5.5737.7026-.3824,1.3212-.4191,1.4793-.1231.1666.3117-.2063.75-.6984,1.3103-.97,1.1337-1.5755,2.7328-1.2648,4.8462.0161.1099.0386.2277.1319.2938.0956.0677.2134.0434.3172.0205.8126-.1796,1.7575-.3799,2.0211-.4488.5202-.1359,1.0009-.312,1.373-.7157.1604-.1741.2918-.3802.4085-.6404.1047-.234.089-.1995.2689-.7361.6785-2.0243,1.9475-4.3924,4.6597-5.134.7565-.2133,1.3841-.1584,1.4893.1688.1155.3591-.3709.6643-.992,1.0877-1.7641,1.2091-2.6015,2.9-2.7137,5.0168-.0059.1109-.0075.2313.0726.3145.0806.0836.1985.0827.3093.0791.4936-.0163,1.5083-.0435,1.6729-.0504,1.3462-.0559,1.733-.2968,2.6169-1.293,1.6693-1.8815,3.5602-3.0854,5.7557-3.0746.3652.0017,1.1794.0482,1.2257.5315.0419.4376-.741.6351-1.0656.7435-1.2.4015-2.4437,1.1679-3.4307,2.4835l-2.8914,3.2647ZM61.9122,83.585c.0881-.0288.1329-.0212.2073.0343.6956.5205,1.537.8143,2.4374.287.9176-.5373.9539-1.3796.7183-2.3348-.024-.0972-.005-.1442.081-.1956,8.3485-4.9864,16.8859-7.0713,24.8778-6.3242,2.7024.2526,4.6759.7988,6.5594,1.3238,1.039.3017,1.9399.3364,2.2142-.2677.2771-.6103-.3268-1.2584-1.2955-1.7627-.5588-.297-1.2893-.6246-2.0402-.924-.5783-.2306-1.8303-.6573-2.2796-.8473-.2944-.1244-.33-.2933-.1321-.5416.9633-1.2087,2.5159-2.2816,4.9267-2.9297.7727-.2077,1.3711-.4064,1.351-.8368-.0191-.4085-.6387-.5983-1.4598-.5901-2.7206.0274-5.2082,1.2254-7.2707,3.1092-.7003.6396-.7679.6999-1.2563.8918-.4367.1716-.9018.2109-1.5332.2043-.7207-.0076-1.4245-.0282-2.1277-.0311-.4374-.0018-.5704-.1767-.4768-.6021.5612-2.5521,2.6817-4.0222,3.8109-4.6141.6727-.3527,1.1889-.6444,1.0925-1.0428-.0903-.3735-.7011-.4646-1.4732-.3161-1.3926.2678-2.8313,1.0242-3.9529,2.0782-.7675.7213-1.432,1.6493-2.0574,2.8732-.7074,1.3846-1.0785,1.762-2.5363,2.0863-.9916.2206-1.9893.397-2.9808.6135-.3831.0837-.5904-.0411-.6047-.4726-.0579-1.744.6956-3.5011,1.9839-4.682.5262-.4823.9647-.8437.7762-1.227-.1729-.3517-.7867-.3389-1.4986-.0371-.9204.39-1.8868,1.122-2.5862,2.1262-.6685.9599-1.0098,2.0278-1.2795,3.1845-.3378,1.4473-.6471,1.9865-2.0704,2.5859-.5526.2327-1.6823.6436-2.6904,1.0293-.4061.1554-.5953.0446-.6635-.3852-.2209-1.392-.0001-3.101.8702-4.2907.4249-.5809.8219-.9819.591-1.3371-.2057-.3164-.8225-.2513-1.5091.1397-1.181.6724-2.2542,1.9328-2.453,4.8034-.057.8235-.0567,1.3997-.2949,1.9487-.2207.5087-.5885.8008-1.0415,1.0783-.4405.2697-.9098.4981-1.6478.887-.0977.0515-.153.0452-.2376-.0254-.6513-.5606-1.4737-.8697-2.3195-.4024-.9258.5115-1.0088,1.4224-.7961,2.3859.0201.0919.0052.1389-.059.2034-.7861.7896-1.2538,1.7801-.4961,2.7211.7809.9699,1.9146.6564,2.6224.4251Z"/>
  <path d="M130.5,109.1779c-.0405,5.9699-.153,10.8635-.315,13.4937-.3825,6.1195-2.1375,11.2158-6.3945,15.4386-4.0545,4.0201-9.711,6.3897-15.7905,6.3897s-11.736-2.3696-15.7905-6.3897c-4.257-4.2228-6.012-9.3192-6.3945-15.4386-.162-2.6302-.2745-7.5239-.315-13.4937v-20.1779h45v20.1779Z" fill="#e0ab4f"/>
  <path d="M126.5,93v16.171c-.0399,5.904-.1519,10.735-.3071,13.2535-.3533,5.6537-1.963,9.6155-5.2192,12.8459-3.3522,3.3235-8.0809,5.2297-12.9737,5.2297s-9.6216-1.9063-12.9739-5.2299c-3.2561-3.2303-4.8657-7.1927-5.2189-12.8473-.1553-2.5176-.2673-7.3552-.3072-13.2656v-16.1572h37ZM88.5,92v17.1572c.04,5.936.1528,10.7944.3091,13.3271.3696,5.918,2.0703,10.0806,5.5127,13.4956,3.5381,3.5078,8.5239,5.52,13.6782,5.52s10.1401-2.0122,13.6777-5.5195c3.4429-3.4155,5.1436-7.5781,5.5132-13.4937.1562-2.5352.269-7.3936.3091-13.3091v-17.1777h-39Z"/>
  <path d="M92.2453,98.6955c.0484.7005.2698.9783.9782.9783.6662,0,.942-.2294.942-.7609,0-.521-.2148-.6856-.7791-.7971l-.4586-.0907c-.7159-.1415-1.0931-.4029-1.0931-1.226,0-.7186.4087-1.1717,1.3828-1.1717,1.095,0,1.3708.5254,1.4191,1.4253h-.4771c-.0483-.7248-.2758-.9664-.942-.9664-.6117,0-.8876.2296-.8876.7127,0,.5391.236.6792.773.7852l.4586.0905c.7889.1557,1.1052.4694,1.1052,1.2381,0,.7066-.4268,1.1595-1.4432,1.1595-1.0405,0-1.407-.4409-1.4493-1.377h.471ZM95.2136,95.7h2.9411v.459h-1.22v3.841h-.4952v-3.841h-1.226v-.459ZM98.9938,95.7h.5013v2.8807c0,.8033.2597,1.0931.93,1.0931.6582,0,.924-.2898.924-1.0931v-2.8807h.5013v2.8807c0,1.0087-.3926,1.4918-1.4253,1.4918-1.0388,0-1.4313-.4831-1.4313-1.4918v-2.8807ZM102.6894,95.7h2.9411v.459h-1.22v3.841h-.4952v-3.841h-1.226v-.459ZM106.2402,95.7h2.9411v.459h-1.2199v3.841h-.4952v-3.841h-1.226v-.459ZM111.3973,97.7896h1.407v.5918c0,1.1535-.467,1.691-1.407,1.691-1.1515,0-1.5399-.5918-1.5399-2.2527,0-1.5944.3945-2.1923,1.5399-2.1923.9641,0,1.2983.4832,1.3768,1.4253h-.471c-.0665-.6886-.316-.9664-.9058-.9664-.7891,0-1.0266.3865-1.0266,1.7333,0,1.4796.2376,1.854,1.0266,1.854.6682,0,.9299-.3683.9299-1.2924v-.1691h-.9299v-.4228ZM114.948,95.7h.5435l1.3467,4.3h-.5134l-.314-1.0387h-1.6367l-.314,1.0387h-.459l1.3468-4.3ZM114.5071,98.5385h1.3709l-.6885-2.2527-.6824,2.2527ZM117.8645,95.7h1.3528c.8636,0,1.226.3503,1.226,1.3166,0,.8153-.314,1.1294-.8757,1.2079l.9965,1.7755h-.5616l-.9421-1.7091h-.6946v1.7091h-.5012v-4.3ZM118.3658,96.159v1.7151h.8395c.5375,0,.7368-.163.7368-.8575,0-.6764-.1993-.8576-.7247-.8576h-.8516ZM121.2846,95.7h2.9411v.459h-1.22v3.841h-.4952v-3.841h-1.226v-.459Z"/>
  <path d="M122.4022,113.6643c-.034-.0255-.0723-.051-.119-.0808-.1318-.0893-.2976-.1658-.4719-.3911-.4038-.5101-.1403-1.2115-.0468-1.4878.3698-.7482.2721-1.4326.1785-1.7769-.0383-.1488-.1318-.0638-.1573.0128-.2338.6589-.5016.9267-.8885.965-.5781.0595-.6504-.8885.3188-1.6196,1.4028-1.0585,1.118-2.9119-.085-3.7068-.3358-.2423-.7184-.4166-.9395-.5059-.119-.0468-.1105.0425-.0765.0978,2.0362,3.1925-5.9769,3.5878-2.9714,9.0843.1105.2296.2381.4378.3656.6206,1.0117,1.4241,1.0202,2.6356.6419,3.1967-.1828.2721-.5186.4889-.8544.2125-.7354-.6121-1.7642-1.101-3.1202-1.3816-2.5846-.5356-6.2234-.8842-5.5858-2.7801.3401-1.0117,2.0362-.9692,3.1542.2338.085.0893.1573.0298.1233-.0893-.6376-2.2488.4336-1.8917.8885-1.6579.1148.0595.1955-.1445-.0043-.6121-.4208-.982-1.2838-1.3816-1.6961-1.5176-.1403-.0468-.0723-.136.0085-.1658.7354-.2423,1.5771.1318,1.9724.3571.153.0893.2423-.3103.068-.9947-.3613-1.4028-1.2753-1.8832-2.1255-2.0957-.119-.0298-.2253-.1063-.0085-.1148.4549-.0128,1.2965.0765,2.1425.8077.2636.2253.3018.0553.2083-.2338-.4676-1.4708-1.4496-2.0872-2.5846-2.6611-1.2328-.6249.0893-.8757,1.0925-.6632.085.017.119-.1063-.204-.3316-.5356-.3741-1.1223-.5144-1.7344-.5229,0,0-.2381-.2423-.4676-.3826-.3316-.204-1.8237-.965-3.2605-.0043-.0468-.0298-.1615-.102-.1615-.102h0c-.9055-.5314-1.8449.0425-2.4911.3103-.0723.0298-.0765.1063.0085.1403.3231.1233.8247.4549.5654,1.135-1.3858.5186-1.2923,1.2285-1.2923,1.2285-1.6791.9777-2.4953,1.5814-2.6696,1.8832-.2721.4634.4506,1.1435.4719,1.3476.0128.1318-.0468.2721-.0893.3273-.0935.1233.3146.4081.6929.5144.3018.085.5186.0893.6759,0,.1828-.102.5059-.7269,1.7471-1.016.0638-.017.2381-.0595.3783-.068.2848.0935.6844.3316.7737,1.0542,0,0-.102.0638-.3528.2721-2.406,1.9937-3.6176,3.1542-4.1702,4.0937-.5569-.1955-1.3348-.4081-1.9639-.4378-.3443-.017-.6504-.0213-.897,0-.4421.0425-3.4008,2.0447-3.8046,2.423-.2636.2466-.5399,1.1945-.982,2.1042-.068.136-.068.6717,0,.9777.0468.2083.0765.2508.2296.2338.4974-.051,1.3306-.4931,1.5984-.8289.051-.0638.0553-.085.0255-.1955-.0043-.0213-.0128-.0468-.0213-.0765-.0043-.0213-.017-.051-.034-.0893h0c-.0255-.0638-.0553-.1275-.085-.1828-.1828-.4038-.2508-.6674.1955-1.0585l.0043-.0042c.4123-.3401,1.1095-1.0075,2.4741-1.7004,1.4368-.7312,2.6271,1.254,2.6441,2.066-1.2838.5696-2.9162,1.9129-3.0479,2.0702-.1998.2381-.8672,2.389-1.3093,3.9109-.1233.4251-.0893,1.5941-.0638,2.9417.0043.2381.187.7057.2381.8289.1828.4421.2381.4421.4251.3571.5186-.2296,1.3518-.982,1.4496-1.3348.0085-.0383.0128-.0765-.0043-.1445-.0043-.0128-.0298-.1233-.0298-.1233-.3358-.5909-.4336-.7822-.5739-1.1053-.2508-.5654.3953-4.7568,1.3943-4.6591,1.8747.1828,4.7143.5229,6.7718.2678.1573-.0213.4336.051.5314.1488.2848.2848,2.0957,2.4018,3.9747,2.8014.4208,1.1818.8799,1.9172,1.9044,2.9162.0425.0425.0255,1.7471-.4336,2.1255-1.0245.7609-4.1277,3.1542-4.5188,3.6728-.2466.3316-.3486.7439-.4463,1.3433-.017.0978.068.1445.1743.1658.5059.102,1.4071.1275,2.168-.0553.1148-.0298.1275-.0765.1275-.2338,0-.0765,0-.1743-.0043-.2763v-.0042h0c-.0043-.1573-.0128-.5526,0-.6121v-.034c0-.3273.5994-1.101,1.3093-1.6451,2.0277-1.6664,4.1064-2.3933,4.9991-3.0947,2.1.7014,2.0405.999,1.5176,2.202,0,0-1.2625,2.9247-1.7344,3.388-.6546.6461-1.1393.914-1.8237,1.4368-.4038.3061-.5484.6334-.7822,1.5474-.0553.2125-.0043.2338.1828.2848.3953.102,1.7897.1488,2.3168-.0553.0723-.0255.153-.0723.1615-.1488.0128-.17.0043-.2806.0043-.4974.0128-.5314.2168-.9395.6206-.9777.6249-.0595.6164-.1488.6972-.4038,1.118-3.6303,2.5463-5.3052,2.9544-5.8876.4208-.6079.2083-.8842-.7184-1.7259,0,0-.914-.7652-1.1648-.982-.2593-.2253-.2806-.5526-.1105-.8629.102-.1828.7992-1.05,1.3943-2.1935.0765-.1445.1445-.3146.2125-.5059.1233-.3401.2125-.6972.2466-1.0627.0978-.8119-.0468-1.5856-.4336-2.2743-.0298-.051-.0255-.102.0213-.119.5101-.2083,1.1903-.0298,1.1903-.0298,1.2923.2593,2.7419-.3146,2.9502-1.9002.2296-1.7727-1.9299-2.389.0468-3.473.017-.0042.0638-.0893-.017-.1488ZM107.6471,105.3792c-.0638-.0255-.051-.0723.0213-.0723,3.1755-.0425,2.1552,5.3562,1.2073,7.1459-.0595.1105-.1233.1105-.0935-.0128.3358-1.4793,1.0202-6.2277-1.135-7.0608Z"/>
  <path d="M53.0719,64.1248c-.0711-6.2692-.0891-10.9247-.0558-14.158.0034-.293.0083-.5342.0146-.7329.1821-.0832.4053-.1819.6782-.3002,6.4453-2.7823,14.9824-5.2597,24.0376-6.9753,9.8194-1.8634,19.9986-2.8083,30.2559-2.8083h0c10.2573,0,20.4365.9449,30.2554,2.8078,9.0307,1.7109,17.5688,4.1887,24.042,6.9778.269.1159.4893.2141.6694.2959.0063.1987.0112.4399.0146.7334.0333,3.2307.0154,7.8856-.0558,14.1546-8.5977-3.6122-18.262-5.7881-23.4578-6.7941-10.2087-1.9743-20.7965-2.9753-31.4703-2.9753-10.6531,0-21.2295.9992-31.4355,2.9698-5.2093,1.0087-14.8925,3.1888-23.4926,6.805Z" fill="#ebc88d"/>
  <path d="M147.4561,46.5559c4.5179,1.1654,8.9001,2.5273,13.0439,4.1508-.0043.5236-.0086,1.0473-.0129,1.571-3.4998-1.3654-7.1831-2.5464-11.0051-3.593-.0036.8679-.0073,1.7361-.0109,2.6044,3.7778,1.0374,7.4668,2.2205,10.9944,3.6038-.0043.5159-.0085,1.0319-.0127,1.5478-3.4907-1.3616-7.168-2.5403-10.9882-3.5859-.0037.8795-.0073,1.7591-.011,2.6388,3.7853,1.0388,7.4661,2.2199,10.9774,3.5968-.0044.5236-.0086,1.0473-.0129,1.571-4.1483-1.6166-8.5239-2.9656-12.9981-4.1146.012-3.3322.0241-6.6635.0361-9.9909ZM97.405,48.8154c.0004.108.0784.2083.196.2451,1.1756.3849,1.8019,1.3498,1.8613,2.8678-.6858.0354-1.3712.075-2.056.1189-.0074-.9599-.1272-1.7852-.977-2.2637-.5623-.3166-1.1859-.3048-1.9614-.2389-2.247.1843-4.4884.4149-6.7144.6905.001.9054.0019,1.811.0029,2.7167-.6898.0854-1.3784.1751-2.0653.2691-.0043-3.3465-.0085-6.6713-.0128-10.0109,3.922-.5392,7.9012-.9377,11.8868-1.19.7445-.0498,1.3589-.0299,1.6852.5249.2072.3523.2132.8183.2134,1.2739.0003.7532.0005,1.5066.0008,2.2603.0003.5667-.0139.7737-.0655,1.0319-.0566.2831-.1679.5801-.3758.8234-.33.3859-.819.5598-1.3746.6249-.1388.0118-.2443.1226-.2437.2563ZM97.4531,46.9634c-.0004-.8412-.0008-1.6822-.0013-2.5228.006-.3294-.1261-.4613-.4699-.44-3.0918.2063-6.1775.4999-9.234.8786.0012,1.1459.0025,2.2924.0037,3.4393,3.0645-.3805,6.1588-.6753,9.2591-.8821.345-.017.4404-.1567.4424-.4731ZM68.4878,51.8776c.0198,1.548-.5005,2.1233-1.9714,2.4986-2.9548.8076-5.9271,1.7272-8.8485,2.7835.0063.9033.0126,1.8067.0189,2.7102-.7218.2612-1.4226.5245-2.105.7911-.0273-3.3183-.0546-6.636-.0818-9.9544,3.6759-1.4415,7.4342-2.6316,11.12-3.6407,1.4029-.3952,1.8533-.1018,1.8553,1.3572.0042,1.1511.0083,2.3027.0125,3.4545ZM66.4721,52.0761c-.0035-.8398-.007-1.6795-.0105-2.519.01-.3705-.1686-.48-.5123-.3794-2.7757.7718-5.5684,1.6448-8.3187,2.6397.0081,1.1512.0161,2.3027.0241,3.4543,2.7704-1.0065,5.5938-1.8915,8.4179-2.6766.291-.0798.4153-.1843.3996-.519ZM113.7497,45.9903c-3.2286-.1123-6.465-.1301-9.7009-.0528-.3357.0064-.4665-.1259-.4612-.4506-.0005-.5597-.0009-1.1193-.0013-1.6787.0019-.3185.1027-.4615.4511-.4634,3.7705-.0901,7.5387-.0514,11.2921.1148.0002-.5445.0004-1.0795.0005-1.607-3.9709-.1763-7.9569-.2095-11.9447-.0982-.7561.0179-1.3708.0986-1.7014.6844-.2312.4097-.2189.7284-.2189,1.3114.0002.6473.0004,1.2947.0005,1.9423-.0005.7291.0407,1.3834.6596,1.6893.3594.1777.799.169,1.2493.1569,3.2416-.0904,6.4863-.0857,9.7257.0139.332.0119.455.1453.4498.4649-.0005.571-.0009,1.1421-.0015,1.7133.0141.3248-.1253.4755-.4628.4487-3.7612-.1156-7.5241-.1028-11.2784.0378,0,.5355.0003,1.071.0004,1.6066,3.9818-.1487,7.9709-.1539,11.9559-.0154.7399.0284,1.3545.0008,1.6867-.5481.2154-.3559.2218-.8214.2222-1.2829.0002-.659.0005-1.318.0007-1.9768.0018-1.4447-.3772-1.9582-1.9236-2.0105ZM83.7399,51.5444c.0082,1.4819-.4458,2.0186-1.9527,2.2595-3.2186.5219-6.3929,1.1388-9.4858,1.8429-.6913.1588-1.3302.2838-1.6541-.2008-.2056-.3076-.2073-.7571-.2104-1.2156-.0057-2.0575-.0113-4.1145-.017-6.1701-.0048-1.5231.4614-2.1087,1.9633-2.4358,3.0891-.704,6.2556-1.32,9.4675-1.8414.7234-.1185,1.3455-.1728,1.669.3519.2013.3265.2068.7858.208,1.2355.004,2.0564.0081,4.1149.0121,6.1738ZM81.8474,51.4539c-.0029-1.7468-.0057-3.493-.0086-5.238.0179-.3378-.1523-.4881-.4901-.4128-2.9228.4827-5.8072,1.0435-8.628,1.6774-.3152.0546-.4136.2084-.41.5087.005,1.7442.01,3.4896.015,5.2352-.0018.3535.152.4829.502.395,2.8098-.6308,5.6846-1.1893,8.5975-1.67.3156-.0541.4269-.1854.4222-.4954ZM143.5629,49.811c-2.7861-.6336-5.6364-1.196-8.5259-1.6818.0024-1.4002.0049-2.7994.0073-4.198-.6663-.1121-1.3347-.2201-2.0048-.324-.0069,3.3386-.0138,6.6627-.0208,10.008.6713.1035,1.3407.2112,2.0081.323.0024-1.4109.0049-2.8216.0074-4.2319,2.8888.4843,5.7387,1.0447,8.5241,1.6762-.004,1.4096-.008,2.8196-.0121,4.2298.673.1525,1.3419.309,2.0063.4696.0091-3.3333.0182-6.6669.0273-9.9954-.664-.1612-1.3324-.3184-2.0049-.4714-.004,1.3978-.0081,2.7966-.0121,4.1959ZM118.3864,42.2189c-.6084.293-.6505.9467-.6505,1.6637-.0022,2.0571-.0044,4.1162-.0065,6.1762-.0009,1.4601.3689,1.9559,1.9331,2.0603,3.7902.2677,7.5731.6669,11.3,1.1924.0008-.6384.0017-1.2767.0026-1.915-3.4833-.4927-7.0147-.8747-10.555-1.1416-.3443-.0201-.4387-.1592-.4406-.4751.001-1.7476.002-3.4946.003-5.2402-.0063-.3455.1274-.462.4718-.4377,3.5315.2664,7.0535.6472,10.5292,1.138.0009-.6591.0018-1.3047.0026-1.9388-3.7421-.53-7.5377-.9319-11.3423-1.201-.4472-.0311-.8862-.0551-1.2472.1188Z"/>
</svg>