<?xml version="1.0" encoding="UTF-8" standalone="yes"?>
<svg version="1.2" baseProfile="tiny-ps" viewBox="0 0 180 180" xml:space="preserve" xmlns="http://www.w3.org/2000/svg">
  <title>Milwaukee School of Engineering</title>
  <g id="Layer_11">
    <g id="Layer_1-2">
      <rect fill="#FFFFFF" width="180" height="180"/>
      <g id="Layer_1-21">
        <g id="Layer_1-2-2">
          <rect x="24.5" y="27.2" fill="#CD163F" width="131.6" height="124.8"/>
          <path fill="#FFFFFF" d="M143,122.1c0,2.6-0.2,5.1-1,7.4c-0.8,2.7-2.9,5-5.2,6.6c-4.5,2.9-10.8,2-16.2,2.1&#xA;&#x9;&#x9;&#x9;&#x9;&#x9;c-3-0.2-5.8-1.7-7.2-4.2c-0.9-1.5-1.1-3.3-0.9-5.2c-0.2-4.7-0.2-9.3,0-14c0.2-0.3,0.6-0.3,0.9-0.4H127c1.4,0,3,0.2,4.2,0.8&#xA;&#x9;&#x9;&#x9;&#x9;&#x9;c2.7,1.4,4.5,4.2,4.2,7.4h1.8v-18.8h-2c0,0.9,0,1.9-0.3,2.8c-0.5,2.1-2.4,4.3-4.5,4.9l0,0l-1.2,0.4c-5.4,0.3-11,0.2-16.4,0&#xA;&#x9;&#x9;&#x9;&#x9;&#x9;l-0.2-0.2c-0.2-0.3-0.3-0.8-0.3-1.2v-18c0-0.2,0.2-0.5,0.4-0.5l4.7-0.2h12.8c3.3,0,6.7,0.8,9,3c2.6,2.4,3.4,6.1,3.1,9.9h1.8V89&#xA;&#x9;&#x9;&#x9;&#x9;&#x9;h-10.4c3.1-1.2,6.1-3.3,8.2-5.7c3.3-3.7,4-10.4,1.6-14.7c-2.4-5.1-8-6.8-13-8.1c-0.2,0-0.2-0.2-0.4,0c-2.4-0.7-4.9-1.2-7.3-1.8&#xA;&#x9;&#x9;&#x9;&#x9;&#x9;l0,0c-0.2,0-0.5,0-0.7-0.2c-1-0.2-1.8-0.5-2.8-0.7c-3.1-1.2-7-1.4-9.2-4.4c-1.3-2-1.1-5,0.2-7c3.3-4.5,9-5.8,14.7-5.6&#xA;&#x9;&#x9;&#x9;&#x9;&#x9;c4.2,0.2,8,2,10.9,4.8c2.7,3,5.2,6.1,4.9,10.6h2v-18h-1.5c-0.2,0.5-0.2,1.1-0.5,1.5c-0.8,1-2.1,1.6-3.5,1.2&#xA;&#x9;&#x9;&#x9;&#x9;&#x9;c-1.8-0.5-3.6-1.2-5.4-1.7c-3.4-0.9-7-1.4-10.7-1.4c-5.2,0.4-10.2,1.4-14.2,4.1c-2.7,1.6-4.6,4.2-5.8,6.9l0,0&#xA;&#x9;&#x9;&#x9;&#x9;&#x9;c-1.1,2.8-1,6.6,0.2,9.3l0.2,0.2l0,0c1.4,3.9,4.8,6.6,8.4,7.9c4.9,1.6,9.9,3,15,4.1c4,1.1,9.3,1.8,10.6,6.4c0.8,3.2-0.7,6-3,8&#xA;&#x9;&#x9;&#x9;&#x9;&#x9;c-4.8,4-13,4.7-18.8,2.1c-6.1-2.5-10.3-8.7-10.2-15.6h-2.2v16.3c0,0.4,0,0.8-0.2,1.1c-1.6,0.3-3-0.6-4.2-1.4&#xA;&#x9;&#x9;&#x9;&#x9;&#x9;c-2.3-1.4-2.7-3.9-2.9-6.3c-0.4-4.4-0.2-9-0.3-13.4V49.8c0-1.9,0-3.9,0.8-5.6c1.1-2.5,3.7-3.9,6.6-4v-1.7H84.1&#xA;&#x9;&#x9;&#x9;&#x9;&#x9;c-0.2,0.2-0.2,0.6-0.4,0.8c-1.1,2.9-2.1,5.8-3.3,8.7l-4.3,11.2c-1.9,4.7-3.8,9.5-5.8,14.1c-0.3,0.5-0.5,1.1-0.9,1.4&#xA;&#x9;&#x9;&#x9;&#x9;&#x9;c-1.1-1.8-1.9-3.8-2.7-5.8l-4.2-10.2c-2.6-6.8-5.3-13.4-8-20.3H36.2v1.7c2.7,0,5.2,0.6,6.5,2.8c1.1,1.6,0.8,3.9,1,5.9l0.4,11.9&#xA;&#x9;&#x9;&#x9;&#x9;&#x9;c0.2,6.8,0.2,13.6-0.3,20.4c-0.3,2.4-1.9,4.5-4.1,5.5s-2.1,1-3.5,0.9v2H54c-1.7,0.9-3.4,1.8-5,2.8c-7,4.7-11.5,12.2-12.1,20.9&#xA;&#x9;&#x9;&#x9;&#x9;&#x9;c-0.2,3.1,0.5,5.9,1.3,8.6c2,6.5,7.1,11.6,12.8,14.9c5.6,3.5,12.7,4.3,19.8,3.8c4.7-0.6,9.1-2.2,13-4.5l0,0&#xA;&#x9;&#x9;&#x9;&#x9;&#x9;c7.6-4.7,12.3-12.6,12.5-21.8c0-2.5-0.5-4.9-1.1-7.1c-1.7-6.2-6.1-11.4-11.4-14.7l-4.5-2.7h16.4c2.1,0,3.9,1.1,5.2,2.6&#xA;&#x9;&#x9;&#x9;&#x9;&#x9;c2,2.6,1.5,6.5,1.8,9.9l0.2,12.1c0,4.6-0.2,9.4-0.2,14c0,4.6-0.4,4.9-1.9,6.6c-2,2.6-5.3,3.4-8.7,3.2v2.1H145v-18.6h-1.8&#xA;&#x9;&#x9;&#x9;&#x9;&#x9;l-0.2,0.2h-0.2L143,122.1L143,122.1z M49.5,86c-1-0.8-1.8-2.1-2.3-3.5c-0.4-1.4-0.2-2.9-0.4-4.3l-0.3-12.3v-1.1l-0.2-9.9v-2.4&#xA;&#x9;&#x9;&#x9;&#x9;&#x9;l0,0v-5.8l0.2-0.7c0.8,1.3,1.4,2.9,2,4.3c1.5,3.6,3,7.3,4.5,11l4.5,11L63,85.5c0.2,0.7,0.6,1.3,0.6,2c-0.9,0.5-2.2,0.4-3.3,0.8&#xA;&#x9;&#x9;&#x9;&#x9;&#x9;c-1.4,0.2-2.9,0.6-4.2,1.1V88C53.6,88,51.3,87.4,49.5,86L49.5,86L49.5,86z M81,97.6c1.1,1.4,1.9,3,2.7,4.5&#xA;&#x9;&#x9;&#x9;&#x9;&#x9;c0.9,2.3,1.7,4.6,2.2,7.1c0.5,3.3,0.5,7.1,0,10.4c-1,6.1-3.6,11.2-8.3,15.2v0.2h-0.2c-4.1,3.4-10,5.2-15.5,3.3&#xA;&#x9;&#x9;&#x9;&#x9;&#x9;c-3.3-0.9-5.8-3-8.1-5.4c-5.4-5.6-7.4-13.6-6.7-21.9c1-8.8,5.8-17.2,14.4-20.1c7.4-2.6,15.1,1.1,19.4,6.8v-0.2L81,97.6L81,97.6z&#xA;&#x9;&#x9;&#x9;&#x9;&#x9; M84.3,63.4l-0.2,12.8c0,2.7,0,5.5-0.9,8c-1,2.3-3,3.9-5.5,4H77v1.1c-2.9-0.7-5.7-1.4-8.7-1.6c-0.2-0.2-0.5,0-0.5-0.4l0.2-0.9&#xA;&#x9;&#x9;&#x9;&#x9;&#x9;c1.1-2.9,2.1-5.8,3.4-8.6c2.7-6.9,5.5-13.8,8.1-20.7c1.5-3.5,2.7-7,4.6-10.2l0.2,0.3C84.5,52.5,84.3,58.1,84.3,63.4L84.3,63.4&#xA;&#x9;&#x9;&#x9;&#x9;&#x9;L84.3,63.4z M104.2,89.2c-0.3,0-0.2-0.4,0-0.5c0.7-1.1,2.1-1.3,3.4-1.1c1.4,0.4,2.4,0.8,3.5,1.4l0.5,0.3h-7.4V89.2z"/>
          <line fill="none" x1="63.1" y1="143.6" x2="63.2" y2="143.7"/>
        </g>
      </g>
    </g>
  </g>
</svg>