<?xml version="1.0" encoding="utf-8"?>
<svg version="1.2" baseProfile="tiny-ps" id="Layer_1" xmlns="http://www.w3.org/2000/svg" xmlns:xlink="http://www.w3.org/1999/xlink"
	 viewBox="0 0 1757.5 1757.5" xml:space="preserve">
<title>Enjin Pte. Ltd.</title>
<path fill="#7866D5" d="M30.7,878.7c0-141.4,114.6-256,256-256s256,114.6,256,256s-114.6,256-256,256S30.7,1020.1,30.7,878.7z"/>
<path fill="#FFFFFF" d="M262.7,738.7c-96,0-136,41-136,96v88c0,55,40,96,136,96h93c87,0,91-10.5,91-28c0-20-8-28-28-28h-156
	c-48,0-72-23.9-72-48v-8h228c16,0,28-10.5,28-28s-12-28-28-28h-228v-8c0-24.1,24-48,72-48h156c20,0,28-8,28-28c0-17.5-4-28-91-28
	H262.7z"/>
<path fill="#7866D5" d="M1422,773.7c-10.5,0-15.3,5.5-15.3,17.5v175c0,12,4.8,17.5,15.3,17.5h17.3c10.5,0,15.3-5.5,15.3-17.5v-175
	c0-12-4.8-17.5-15.3-17.5H1422z"/>
<path fill="#7866D5" d="M1063.2,965.1c13,16.6,27.9,18.6,44.1,18.6h12.5c18.2,0,23-14.2,23-23V791.2c0-12-4.8-17.5-15.3-17.5h-17.3
	c-10.5,0-15.3,5.5-15.3,17.5V929L990.2,792.3c-13-16.6-27.9-18.6-44.1-18.6h-12.4c-18.2,0-23,14.2-23,23v169.5
	c0,12,4.8,17.5,15.3,17.5h17.3c10.5,0,15.3-5.5,15.3-17.5V828.4L1063.2,965.1z"/>
<path fill="#7866D5" d="M1647.2,965.1c13,16.6,27.9,18.6,44.1,18.6h12.5c18.2,0,23-14.2,23-23V791.2c0-12-4.8-17.5-15.3-17.5h-17.3
	c-10.5,0-15.3,5.5-15.3,17.5V929l-104.5-136.7c-13-16.6-27.9-18.6-44.1-18.6h-12.6c-18.2,0-23,14.2-23,23v169.5
	c0,12,4.8,17.5,15.3,17.5h17.3c10.5,0,15.3-5.5,15.3-17.5V828.4L1647.2,965.1z"/>
<path fill="#7866D5" d="M740.7,773.7c-72,0-102,30.8-102,72v66c0,41.2,30,72,102,72h69.8c65.2,0,68.2-7.9,68.2-21c0-15-6-21-21-21
	h-117c-36,0-54-18-54-36v-6h171c12,0,21-7.9,21-21s-9-21-21-21h-171v-6c0-18,18-36,54-36h117c15,0,21-6,21-21c0-13.1-3-21-68.2-21
	H740.7z"/>
<path fill="#7866D5" d="M1318.7,904V791.2c0-12,4.8-17.5,15.3-17.5h17.3c10.5,0,15.3,5.5,15.3,17.5V909c0,41.2-29.5,74.7-66.1,74.7
	h-57.6c-65.2,0-68.2-7.9-68.2-21c0-15,6-21,21-21h93C1304.7,941.7,1318.7,922,1318.7,904z"/>
</svg>
