<?xml version="1.0" encoding="utf-8"?>
<!-- Generator: Adobe Illustrator 27.3.1, SVG Export Plug-In . SVG Version: 6.00 Build 0)  -->
<svg version="1.2" baseProfile="tiny-ps" id="Layer_1" xmlns="http://www.w3.org/2000/svg" xmlns:xlink="http://www.w3.org/1999/xlink"
	 viewBox="0 0 1000 1000" xml:space="preserve">
	 <title>latentview</title>
<g>
	<g>
		<polygon fill="#658DC4" points="886.7,518.9 500.1,393.1 500.1,530.8 851.6,645.3 		"/>
		<polygon fill="#A9C2E1" points="500.1,709 500.1,841 851.9,667.9 886.7,518.9 		"/>
		<g>
			<polygon fill="#658DC4" points="936,299.8 882,445.2 734.7,398.4 500.1,321.1 500.1,159 			"/>
			<polygon fill="#A9C2E1" points="936,299.8 901.6,447.8 500.1,645.3 500.1,513.3 734.7,398.4 			"/>
		</g>
	</g>
	<g>
		<polygon fill="#3266A3" points="113.3,518.9 500.1,393.1 500.1,530.8 148.4,645.3 		"/>
		<polygon fill="#658DC4" points="500.1,709 499.9,841 148.1,667.9 113.3,518.9 		"/>
		<g>
			<polygon fill="#3266A3" points="64,299.8 118,445.2 265.3,398.4 500.1,321.1 500.1,159 			"/>
			<polygon fill="#658DC4" points="64,299.8 98.5,447.8 500.1,645.3 500.1,513.3 265.3,398.4 			"/>
		</g>
	</g>
</g>
</svg>
