<?xml version="1.0" encoding="utf-8"?>
<!-- Created with Inkscape (http://www.inkscape.org/) -->
<svg width="352" height="352" version="1.2" viewBox="0 0 352 352" baseProfile="tiny-ps" xmlns="http://www.w3.org/2000/svg">
  <title>Tagvenue</title>
  <path d="m0 176v-176h352v352h-352zm237.3 124.51c9.1439-2.3817 17.608-7.2288 24.244-13.884 10.614-10.645 11.105-12.156 23.517-72.5 6.018-29.257 10.942-53.855 10.942-54.661 0-1.2608-5.1447-1.4655-36.837-1.4655h-36.837l-3.2929 16.138c-1.8111 8.8757-3.512 16.976-3.7799 18-0.46021 1.7599 0.40387 1.8624 15.695 1.8624 9.9483 0 17.024 0.43032 18.367 1.117 5.9716 3.0539 7.5559 10.593 3.2732 15.577l-2.411 2.8058-39.542 1-8.2874 40c-4.5581 22-8.3011 40.503-8.3179 41.117-0.0414 1.515 22.826 6.1435 31.009 6.2766 3.597 0.0585 9.1126-0.56374 12.257-1.3827zm-62.909-10.261c0.65453-2.1919 15.612-74.561 15.612-75.536 0-0.39289-9.1947-0.71435-20.433-0.71435-18.594 0-20.48 0.15747-20.955 1.75-0.28727 0.9625-1.896 8.4234-3.5749 16.58s-3.5027 15.671-4.0528 16.699c-3.8388 7.1729-15.25 6.3879-17.906-1.232-0.86524-2.482-0.49576-5.8362 1.9252-17.478 1.6478-7.9234 2.9959-14.837 2.9959-15.363 0-0.59189-14.625-0.95638-38.375-0.95638h-38.375l-0.625 3.125c-2.9467 14.734 3.029 32.73 14.748 44.416 10.321 10.291 13.33 11.335 61.725 21.421 23.321 4.8598 43.383 8.8815 44.584 8.9371 1.2741 0.059 2.4002-0.62738 2.7052-1.6489zm-38.461-113c1.8717-9.2125 3.602-17.312 3.8451-18 0.34256-0.96861-3.4201-1.25-16.715-1.25-21.858 0-25.057-1.342-25.057-10.511 0-2.6928 0.76225-4.4049 2.9231-6.5657l2.9231-2.9231h20.058c19.973 0 20.06-9e-3 20.601-2.25 2.189-9.0723 16.385-79.193 16.092-79.486-1.0903-1.0903-29.523-6.2639-34.424-6.2639-12.682 0-26.177 5.8091-35.714 15.373-10.614 10.645-11.105 12.156-23.517 72.5-6.018 29.257-10.942 53.855-10.942 54.661 0 1.2618 5.318 1.4655 38.262 1.4655h38.262zm61.968 0c1.8548-9.2125 3.5854-17.312 3.8459-18 0.36942-0.97525-4.1237-1.25-20.442-1.25h-20.915l-3.2588 16.25c-1.7923 8.9375-3.4839 17.038-3.7591 18-0.46507 1.6267 0.96756 1.75 20.328 1.75h20.829zm8.4624-41c0.27047-0.9625 1.9615-8.95 3.7579-17.75 2.8036-13.734 3.653-16.389 5.9987-18.75 3.5918-3.6147 8.5871-3.7142 12.701-0.25295 1.6322 1.3734 3.2438 3.5977 3.5814 4.9429 0.33763 1.3452-0.73825 8.7873-2.3908 16.538-1.6526 7.7506-3.0047 14.751-3.0047 15.557 0 1.2602 5.1548 1.465 36.875 1.465h36.875l0.625-3.125c2.9467-14.734-3.029-32.73-14.748-44.416-10.359-10.329-13.245-11.324-62.215-21.435-23.601-4.8734-43.181-8.5599-43.511-8.1921-0.54222 0.60462-15.966 74.642-15.92 76.419 0.0107 0.4125 9.2141 0.75 20.452 0.75 18.606 0 20.477-0.15648 20.924-1.75z" fill="#fefefe" />
  <path d="m131.81 254.32c0.72187-0.28887 1.5844-0.25335 1.9167 0.0789 0.33229 0.33229-0.25834 0.56864-1.3125 0.52522-1.165-0.048-1.4019-0.28494-0.60417-0.60416z" fill="#b6e3db" />
  <path d="m70.816 214.25c10.624-0.1621 27.724-0.16186 38 5.4e-4 10.276 0.16239 1.5842 0.29502-19.316 0.29473-20.9-3e-4 -29.308-0.13317-18.684-0.29527zm88.987 2e-3c5.6668-0.17857 14.667-0.17784 20 2e-3 5.3332 0.17945 0.69681 0.32556-10.303 0.32467-11-8.8e-4 -15.364-0.14771-9.6968-0.32628zm59.947 1e-3c5.0875-0.18149 13.412-0.18149 18.5 0s0.925 0.32999-9.25 0.32999-14.338-0.1485-9.25-0.32999zm35.329-9.8383c0.048-1.165 0.28494-1.4019 0.60416-0.60417 0.28887 0.72187 0.25335 1.5844-0.0789 1.9167-0.3323 0.33229-0.56864-0.25834-0.52522-1.3125zm-139.33-67.161c5.0875-0.18149 13.412-0.18149 18.5 0s0.925 0.32999-9.25 0.32999-14.338-0.1485-9.25-0.32999zm60.053-1e-3c5.6668-0.17857 14.667-0.17784 20 2e-3 5.3332 0.17945 0.69681 0.32556-10.303 0.32467-11-8.8e-4 -15.364-0.14771-9.6968-0.32628zm69.512-2e-3c10.348-0.16266 26.998-0.16241 37 5.6e-4 10.002 0.16297 1.5346 0.29606-18.815 0.29575s-28.533-0.13365-18.185-0.29631z" fill="#9ad9ce" />
  <path d="m260.5 287c0.99549-1.1 2.035-2 2.31-2s-0.31449 0.9-1.31 2-2.035 2-2.31 2 0.31449-0.9 1.31-2zm-196.1-26.25-1.905-2.25 2.25 1.905c2.1144 1.7902 2.7052 2.595 1.905 2.595-0.18976 0-1.2023-1.0125-2.25-2.25zm222-170-1.905-2.25 2.25 1.905c2.1144 1.7902 2.7052 2.595 1.905 2.595-0.18976 0-1.2023-1.0125-2.25-2.25zm-195.9-25.75c0.99549-1.1 2.035-2 2.31-2s-0.31449 0.9-1.31 2-2.035 2-2.31 2 0.31449-0.9 1.31-2z" fill="#7fcfc1" />
  <path d="m224.27 301.31c0.97297-0.25354 2.323-0.23687 3 0.0371 0.67703 0.27393-0.11903 0.48137-1.769 0.46099-1.65-0.0204-2.2039-0.2445-1.231-0.49804zm-174.07-75.807c0.02038-1.65 0.2445-2.2039 0.49804-1.231 0.25354 0.97297 0.23687 2.323-0.03705 3-0.27393 0.67703-0.48137-0.11903-0.46099-1.769zm251-99c0.0204-1.65 0.2445-2.2039 0.49804-1.231s0.23687 2.323-0.0371 3c-0.27393 0.67703-0.48137-0.11903-0.46099-1.769zm-175.93-76.193c0.97297-0.25354 2.323-0.23687 3 0.03705 0.67703 0.27392-0.11903 0.48137-1.769 0.46099s-2.2039-0.2445-1.231-0.49804z" fill="#67c6b6" />
  <path d="m74.75 193.25c10.588-0.16197 27.912-0.16197 38.5 0s1.925 0.2945-19.25 0.2945-29.838-0.13253-19.25-0.2945zm89 3e-3c5.6375-0.17825 14.862-0.17825 20.5 0s1.025 0.32409-10.25 0.32409-15.888-0.14584-10.25-0.32409zm59.5 3e-3c4.2625-0.18745 11.238-0.18745 15.5 0s0.775 0.34082-7.75 0.34082-12.012-0.15337-7.75-0.34082zm-108.95-35.003c4.8395-0.18371 12.49-0.18277 17 2e-3 4.5105 0.18485 0.5509 0.33516-8.7991 0.33401-9.35-1e-3 -13.04-0.1524-8.2009-0.3361zm56.451-6e-4c5.6375-0.17825 14.862-0.17825 20.5 0s1.025 0.32409-10.25 0.32409-15.888-0.14584-10.25-0.32409zm70.565-3e-3c10.348-0.16266 26.998-0.16241 37 5.6e-4 10.002 0.16297 1.5346 0.29606-18.815 0.29575s-28.533-0.13365-18.185-0.29631z" fill="#42b9a5" />
  <path d="m206.72 298.54c-5.9272-1.2424-11.037-2.5196-11.356-2.8381s3.0722-18.269 7.5349-39.89c4.4627-21.621 8.1104-39.648 8.1059-40.061-4e-3 -0.4125 8.0626-0.75 17.927-0.75 9.8642 0 19.089-0.43878 20.5-0.97507 2.94-1.1178 6.5563-6.479 6.5618-9.7279 6e-3 -3.3494-2.0133-7.0711-4.9004-9.033-2.1569-1.4657-5.3436-1.8208-18.846-2.1001-8.9375-0.18482-16.25-0.50659-16.25-0.71505 0-0.39861 5.6271-27.327 6.5195-31.199l0.51857-2.25h72.58l-10.863 53.25c-9.9356 48.705-11.199 53.944-14.8 61.384-2.9152 6.0222-5.446 9.527-9.7486 13.5-14.428 13.323-29.253 16.484-53.484 11.405zm-80.366-16.521c-37.924-7.9158-42.856-9.171-49.264-12.538-11.855-6.2295-21.168-17.991-24.561-31.015-1.528-5.8666-2.0786-18.879-0.92592-21.883 0.53852-1.4034 4.825-1.5818 38-1.5818 20.566 0 37.393 0.38812 37.393 0.86248 0 0.47437-1.125 6.3862-2.5 13.138-2.9337 14.404-3.0792 18.73-0.72776 21.633 4.3806 5.4079 10.93 5.8753 15.654 1.117 2.9832-3.005 3.4759-4.5125 6.5363-20l3.3099-16.75h19.864c10.925 0 19.864 0.33451 19.864 0.74336 0 0.40884-3.4602 17.509-7.6894 38l-7.6894 37.257-2.5606-0.0927c-1.4083-0.051-21.525-4.0511-44.703-8.8891zm-59.113-142.27c9.9356-48.705 11.199-53.944 14.8-61.384 8.1405-16.817 25.067-27.365 43.916-27.367 5.1395-5.76e-4 32.458 4.4779 33.85 5.5493 0.17069 0.13131-3.4185 18.262-7.976 40.29l-8.2863 40.051-40.716 0.6104-2.916 3.2658c-3.381 3.7866-3.9259 9.3473-1.2853 13.117 2.9861 4.2632 7.0496 5.1169 24.356 5.1169h16.051l-0.51439 2.25c-0.84226 3.6841-6.5237 31.037-6.5237 31.408 0 0.18809-17.014 0.34198-37.809 0.34198h-37.809zm87.214 50.561c0.37123-1.4791 1.765-8.1166 3.0974-14.75 1.3323-6.6334 2.661-13.073 2.9525-14.311 0.52787-2.2407 0.61306-2.25 20.53-2.25h20l-0.53185 2.25c-0.92418 3.9097-6.5062 30.716-6.5062 31.245 0 0.27794-9.0488 0.50534-20.108 0.50534h-20.108zm11.542-54.427c0-1.3423 15.077-74.274 15.43-74.639 0.13566-0.14034 19.625 3.7495 43.31 8.6442 38.95 8.0491 43.743 9.2563 50.175 12.636 11.845 6.2242 21.16 17.99 24.551 31.01 1.528 5.8666 2.0786 18.879 0.92592 21.883-0.53789 1.4017-4.6928 1.5818-36.5 1.5818-31.417 0-35.893-0.18918-35.893-1.517 0-0.83435 1.125-6.7204 2.5-13.08 3.2232-14.908 3.2138-18.401-0.0603-22.292-4.7506-5.6458-13.502-4.7578-16.847 1.7093-0.79244 1.5324-2.9376 10.075-4.7669 18.983l-3.3261 16.196-19.75 3.8e-4c-13.871 2.7e-4 -19.75-0.33187-19.75-1.1158z" fill="#00a186" />
</svg>