<?xml version="1.0" encoding="UTF-8" standalone="yes"?>
<svg version="1.2" width="1080" height="1080" viewBox="0 0 1080 1080" xml:space="preserve" baseProfile="tiny-ps" xmlns="http://www.w3.org/2000/svg">
  <title>bimi-svg-tiny-12-ps</title>
  <desc>Created with Fabric.js 5.2.4</desc>
  <defs>
</defs>
  <rect x="0" y="0" width="100%" height="100%" fill="transparent"/>
  <g transform="matrix(1 0 0 1 540 540)">
    <rect vector-effect="non-scaling-stroke" x="-540" y="-540" rx="0" ry="0" width="1080" height="1080" stroke="none" stroke-width="1" stroke-dasharray="none" stroke-linecap="butt" stroke-dashoffset="0" stroke-linejoin="miter" stroke-miterlimit="4" fill="rgb(255,255,255)" fill-rule="nonzero"/>
  </g>
  <g transform="matrix(1 0 0 1 540 540)"/>
  <g transform="matrix(5.69 0 0 5.69 540 540)">
    <path vector-effect="non-scaling-stroke" transform=" translate(-120.5, -204.75)" d="M 47.5 199.8 C 48.9 199.8 50.3 200.4 51.2 201.5 L 52.900000000000006 199.9 C 51.50000000000001 198.3 49.50000000000001 197.5 47.400000000000006 197.6 C 43.400000000000006 197.4 40.10000000000001 200.4 39.900000000000006 204.4 C 39.7 208.4 42.7 211.70000000000002 46.7 211.9 C 47 211.9 47.2 211.9 47.5 211.9 C 49.6 211.9 51.6 211.1 53 209.6 L 51.3 208 C 50.4 209.1 49 209.7 47.599999999999994 209.7 C 44.89999999999999 209.7 42.699999999999996 207.5 42.699999999999996 204.79999999999998 C 42.699999999999996 202.09999999999997 44.9 199.89999999999998 47.599999999999994 199.89999999999998 L 47.599999999999994 199.89999999999998 Z M 72 202.7 C 72 199.6 69.7 197.7 66.1 197.7 L 60.39999999999999 197.7 L 60.39999999999999 211.6 L 62.99999999999999 211.6 L 62.99999999999999 207.5 L 66.1 207.5 C 66.3 207.5 66.5 207.5 66.6 207.5 L 69.39999999999999 211.6 L 72.19999999999999 211.6 L 68.99999999999999 207 C 70.79999999999998 206.3 71.99999999999999 204.6 71.99999999999999 202.6 Z M 66 205.5 L 63 205.5 L 63 199.9 L 66 199.9 C 68.3 199.9 69.4 200.9 69.4 202.70000000000002 C 69.4 204.50000000000003 68.2 205.50000000000003 65.9 205.50000000000003 L 65.9 205.50000000000003 Z M 84.2 197.8 L 77.9 211.70000000000002 L 80.5 211.70000000000002 L 81.9 208.50000000000003 L 88.9 208.50000000000003 L 90.30000000000001 211.70000000000002 L 93.00000000000001 211.70000000000002 L 86.70000000000002 197.70000000000002 L 84.20000000000002 197.70000000000002 Z M 82.8 206.4 L 85.39999999999999 200.3 L 87.99999999999999 206.4 L 82.79999999999998 206.4 Z M 99.7 211.7 L 102.3 211.7 L 102.3 206.39999999999998 L 109 206.39999999999998 L 109 204.2 L 102.3 204.2 L 102.3 200 L 109.89999999999999 200 L 109.89999999999999 197.8 L 99.69999999999999 197.8 L 99.69999999999999 211.70000000000002 Z M 115.7 199.9 L 120.3 199.9 L 120.3 211.70000000000002 L 122.89999999999999 211.70000000000002 L 122.89999999999999 199.9 L 127.49999999999999 199.9 L 127.49999999999999 197.70000000000002 L 115.69999999999999 197.70000000000002 L 115.69999999999999 199.9 Z M 138.1 197.8 L 131.7 211.70000000000002 L 134.39999999999998 211.70000000000002 L 135.79999999999998 208.50000000000003 L 142.79999999999998 208.50000000000003 L 144.2 211.70000000000002 L 146.89999999999998 211.70000000000002 L 140.59999999999997 197.8 L 138.09999999999997 197.8 Z M 136.7 206.4 L 139.29999999999998 200.3 L 141.89999999999998 206.4 L 136.7 206.4 Z M 163.6 204.4 C 164.7 203.8 165.4 202.6 165.4 201.3 C 165.4 199.10000000000002 163.6 197.70000000000002 160.3 197.70000000000002 L 153.70000000000002 197.70000000000002 L 153.70000000000002 211.60000000000002 L 160.60000000000002 211.60000000000002 C 164.20000000000002 211.60000000000002 166.00000000000003 210.20000000000002 166.00000000000003 207.8 C 166.00000000000003 206.20000000000002 165.00000000000003 204.8 163.50000000000003 204.4 L 163.50000000000003 204.4 Z M 156.3 199.8 L 160 199.8 C 161.8 199.8 162.8 200.4 162.8 201.70000000000002 C 162.8 203.00000000000003 161.8 203.60000000000002 160 203.60000000000002 L 156.3 203.60000000000002 L 156.3 199.8 Z M 160.4 209.6 L 156.20000000000002 209.6 L 156.20000000000002 205.6 L 160.4 205.6 C 162.4 205.6 163.4 206.2 163.4 207.6 C 163.4 209 162.3 209.6 160.4 209.6 L 160.4 209.6 Z M 176.4 197.7 L 173.70000000000002 197.7 L 173.70000000000002 211.6 L 183.60000000000002 211.6 L 183.60000000000002 209.4 L 176.3 209.4 L 176.3 197.6 Z M 193.3 209.5 L 193.3 205.6 L 200 205.6 L 200 203.5 L 193.3 203.5 L 193.3 199.9 L 200.9 199.9 L 200.9 197.70000000000002 L 190.70000000000002 197.70000000000002 L 190.70000000000002 211.60000000000002 L 201.10000000000002 211.60000000000002 L 201.10000000000002 209.40000000000003 L 193.20000000000002 209.40000000000003 Z" stroke-linecap="butt" stroke="none" stroke-width="1" stroke-dasharray="none" stroke-dashoffset="0" stroke-linejoin="miter" stroke-miterlimit="4" fill="rgb(0,0,0)" fill-rule="nonzero"/>
  </g>
</svg>