<?xml version="1.0" encoding="utf-8"?>
<!-- Generator: Adobe Illustrator 25.2.3, SVG Export Plug-In . SVG Version: 6.00 Build 0)  -->
<svg version="1.2" baseProfile="tiny-ps" xmlns="http://www.w3.org/2000/svg" viewBox="0 0 595.3 595.3">
  <title>UTI Asset Magement Co Ltd</title>
<rect x="219.2" y="177.2" fill="#06509E" width="353.1" height="189.5" />
<rect x="21.7" y="177.2" fill="#F28021" width="197.5" height="189.5" />
<path fill-rule="evenodd" fill="#06509E" d="M560.3,415.4c-1.1,0.9-2.2,1.6-3.6,2c-1.4,0.4-3,0.7-4.7,0.7c-4.1,0-7.3-1.2-9.6-3.6  c-2.3-2.4-3.5-5.6-3.5-9.8c0-5.3,1.7-9.6,5.2-12.8c3.4-3.3,8-4.9,13.5-4.9c0.5,0,1.2,0,1.8,0.1c0.7,0.1,1.4,0.1,2.2,0.3  c0.1-1.2,0.2-2.5,0.2-3.9c0-1.4,0.1-2.9,0.1-4.7h11.5c-0.5,7.6-1,14.5-1.3,20.8c-0.3,6.3-0.7,12.1-0.9,17.6h-11.1L560.3,415.4  L560.3,415.4z M561.5,394.9c-0.5-0.1-1-0.3-1.5-0.4c-0.5-0.1-0.9-0.1-1.4-0.1c-2.5,0-4.4,0.8-5.8,2.4c-1.4,1.6-2.1,3.8-2.1,6.6  c0,2,0.4,3.6,1.3,4.8c0.9,1.1,2.1,1.7,3.6,1.7c1.7,0,3.1-0.6,4-1.9c0.9-1.2,1.5-3.1,1.6-5.5L561.5,394.9L561.5,394.9z M494.5,417.2  c0.5-4.6,0.9-9.3,1.1-14.2c0.2-4.9,0.4-10,0.4-15.3h11.2v3.6c1.3-1.6,2.8-2.8,4.4-3.5c1.6-0.7,3.5-1.1,5.8-1.1c4,0,6.9,0.8,8.7,2.3  c1.8,1.5,2.7,4,2.7,7.3c0,1.2-0.1,4.1-0.4,8.8c-0.2,4.6-0.4,8.6-0.5,12.1h-11.5c0.3-3,0.5-5.8,0.6-8.4c0.1-2.5,0.2-4.6,0.2-6  c0-2.8-0.3-4.7-0.9-5.8c-0.6-1-1.7-1.6-3.2-1.6c-2.5,0-4.3,1.4-5.2,4c-1,2.7-1.5,8.6-1.6,17.7L494.5,417.2L494.5,417.2z   M485.1,387.7c-0.5,4.6-0.9,9.3-1.1,14.2c-0.2,4.9-0.4,10-0.4,15.3h-11.2v-3.7c-1.4,1.6-2.9,2.8-4.5,3.5c-1.6,0.7-3.6,1.1-5.8,1.1  c-4,0-6.9-0.8-8.7-2.3c-1.8-1.5-2.7-4-2.7-7.3c0-1.2,0.1-4.1,0.4-8.8c0.2-4.6,0.4-8.6,0.5-12.1H463c-0.2,3-0.4,5.8-0.5,8.4  c-0.1,2.5-0.2,4.5-0.2,6c0,2.8,0.3,4.8,0.9,5.8c0.6,1.1,1.7,1.6,3.2,1.6c2.5,0,4.3-1.4,5.2-4.1c1-2.7,1.5-8.6,1.6-17.7L485.1,387.7  L485.1,387.7z M412.2,417.2c0.5-4.7,1-10.3,1.3-16.7c0.3-6.4,0.5-13.6,0.7-21.7h29.4l-0.4,8.9c-1.6-0.1-3-0.1-4.3-0.2  c-1.2,0-2.1-0.1-2.5-0.1l-10.1,0c-0.2,1.5-0.3,2.6-0.3,3.3c0,0.7-0.1,1.4-0.1,2v0.8h7.8c1.9,0,3.3,0,4.2,0c0.9,0,1.7-0.1,2.4-0.2  l-0.5,9c-0.7,0-1.4-0.1-2.1-0.1c-0.8,0-1.9,0-3.4,0h-8.8l-0.4,7.5v0.4c-0.1,3.2-0.2,5.7-0.2,7.2L412.2,417.2L412.2,417.2z   M384.2,378.8c-0.6,7.8-1.1,14.8-1.5,21.1c-0.3,6.3-0.5,11.6-0.5,16.2v1.2h-12c0.6-8.8,1.1-16.3,1.5-22.4c0.4-6.1,0.5-11.5,0.6-16  H384.2L384.2,378.8z M344.2,417.4c-0.9,0.2-1.7,0.3-2.5,0.4c-0.8,0.1-1.5,0.2-2.2,0.2c-3.1,0-5.5-0.8-7.2-2.2  c-1.8-1.5-2.6-3.5-2.6-6c0-2.7,0.8-4.8,2.5-6.3c1.7-1.5,4.5-2.8,8.4-3.6c0.4-0.1,0.9-0.2,1.6-0.3c4.4-0.9,6.7-2,6.7-3.2  c0-0.7-0.2-1.1-0.8-1.4c-0.5-0.3-1.4-0.4-2.7-0.4c-1.7,0-3.5,0.2-5.5,0.6c-1.9,0.4-3.8,1-5.7,1.8l1.3-8.4c1.8-0.5,3.7-0.9,5.6-1.1  c2-0.3,4.1-0.4,6.2-0.4c4.4,0,7.6,0.6,9.7,1.9c2,1.2,3.1,3.1,3.1,5.7c0,0.4,0,0.9,0,1.4c0,0.5,0,1.1-0.1,1.7l-0.7,14.8  c0,0.3,0,0.7,0,1.3v3.6h-11.6c0.2-2,0.3-3.6,0.4-4.8c0.1-1.1,0.1-1.9,0.2-2.4l0.2-5.2c-0.4,0.1-0.8,0.3-1.3,0.4  c-0.5,0.1-1.1,0.3-1.9,0.5l-2.5,0.6c-1,0.2-1.8,0.6-2.4,1.1c-0.6,0.5-0.8,1.1-0.8,1.8s0.2,1.2,0.7,1.6c0.5,0.4,1.2,0.6,2,0.6  c0.4,0,0.9,0,1.6-0.1c0.6-0.1,1.4-0.2,2.2-0.4L344.2,417.4L344.2,417.4z M321.1,387.7c-0.5,4.6-0.9,9.3-1.1,14.2  c-0.2,4.9-0.4,10-0.4,15.3h-11.2v-3.7c-1.4,1.6-2.9,2.8-4.5,3.5c-1.6,0.7-3.5,1.1-5.8,1.1c-4,0-6.9-0.8-8.7-2.3  c-1.8-1.5-2.7-4-2.7-7.3c0-1.2,0.1-4.1,0.4-8.8c0.3-4.6,0.5-8.6,0.5-12.1h11.5c-0.3,3-0.4,5.8-0.5,8.4c-0.1,2.5-0.2,4.5-0.2,6  c0,2.8,0.3,4.8,0.9,5.8c0.6,1.1,1.7,1.6,3.2,1.6c2.5,0,4.3-1.4,5.2-4.1c1-2.7,1.5-8.6,1.5-17.7L321.1,387.7L321.1,387.7z   M271.2,403.2c0,0,0,0.2,0,0.5c0,0.3,0,0.6,0,0.9c0,1.9,0.2,3.2,0.8,3.9c0.5,0.7,1.5,1.1,2.8,1.1c0.3,0,0.9-0.1,1.8-0.2  c0.4,0,0.7-0.1,0.9-0.1l-0.7,8.2c-1,0.2-2,0.4-3,0.4c-1,0.1-2.2,0.2-3.3,0.2c-3.6,0-6.3-0.8-8-2.3c-1.8-1.5-2.6-3.9-2.6-7.1v-1  l0.7-12.4h-4.4l0.3-7.6h4.9l0.3-4.8l10.7-2.3l-0.4,7.1h6.8l-0.4,7.6h-6.6L271.2,403.2L271.2,403.2z M248.4,387.7  c-0.5,4.6-0.9,9.3-1.1,14.2c-0.2,4.9-0.4,10-0.4,15.3h-11.2v-3.7c-1.4,1.6-2.9,2.8-4.5,3.5c-1.6,0.7-3.5,1.1-5.8,1.1  c-4,0-6.8-0.8-8.7-2.3c-1.8-1.5-2.7-4-2.7-7.3c0-1.2,0.1-4.1,0.4-8.8c0.3-4.6,0.4-8.6,0.5-12.1h11.5c-0.2,3-0.4,5.8-0.5,8.4  c-0.1,2.5-0.2,4.5-0.2,6c0,2.8,0.3,4.8,0.9,5.8c0.6,1.1,1.7,1.6,3.2,1.6c2.5,0,4.2-1.4,5.2-4.1c1-2.7,1.5-8.6,1.6-17.7L248.4,387.7  L248.4,387.7z M173.4,378.8c0.1,0.5,0.2,1.1,0.3,1.7c0.1,0.6,0.2,1.3,0.4,2.2l4.2,20.8l6.4-19.5c0.4-1.1,0.7-2,0.9-2.8  c0.2-0.8,0.5-1.6,0.6-2.3h16.9c-0.1,2-0.2,4.3-0.3,6.8c0,0.5,0,0.9,0,1.1l-0.8,21.9c0,0.2,0,0.6,0,1.1c0,0.5,0,1,0,1.3  c0,0.8,0,1.7,0,2.8c0,1,0.1,2.2,0.1,3.4h-11.7c0.2-1,0.3-2.1,0.4-3.2c0.1-1.1,0.2-2.3,0.2-3.4l0.8-13.4c0-0.3,0-1.5,0.1-3.6  c0.1-2.1,0.1-4,0.2-5.6l-8.6,24.6c-0.4,1.1-0.7,2-0.9,2.7c-0.2,0.7-0.4,1.3-0.5,2h-9.7c-0.1-0.6-0.2-1.2-0.3-1.9s-0.2-1.4-0.4-2.2  l-5.4-24.9l-1.6,18.7c-0.1,1.1-0.2,2.5-0.3,4.1c-0.1,1.6-0.2,3.6-0.4,6.1h-10.5c0.8-4.7,1.4-10.3,2-16.8c0.6-6.5,1.1-13.7,1.5-21.6  L173.4,378.8L173.4,378.8z M123.3,417.2h-12.7c0.6-4.8,1-10.5,1.4-17c0.3-6.5,0.6-13.6,0.7-21.4h12.7c-0.1,0.9-0.2,2-0.3,3.1  c-0.1,1.1-0.2,2.8-0.4,4.9l-1,18c-0.1,1.7-0.1,3.5-0.2,5.6C123.4,412.4,123.3,414.7,123.3,417.2L123.3,417.2z M103.6,378.8l-0.5,8.9  c-1.7-0.2-3.3-0.3-4.9-0.4c-1.6-0.1-3.3-0.1-4.9-0.1h-1.4l-1.1,17.5c-0.1,1.2-0.1,2.4-0.1,3.5c0,1.2,0,2.4,0,3.6c0,1.5,0,2.5,0,3.2  s0,1.4,0,2.1H77.9c0.4-3.1,0.8-7.3,1-12.4c0.3-5.1,0.6-11,0.8-17.7c-2.5,0-4.7,0.1-6.6,0.2c-1.9,0.1-3.6,0.2-5,0.4l0.5-8.9  L103.6,378.8L103.6,378.8z M35.7,378.8c-0.1,1.3-0.3,2.6-0.4,3.9c-0.1,1.4-0.2,2.7-0.2,4l-0.8,14.9c0,0.2-0.1,0.4-0.1,0.7  c0,0.3,0,0.6,0,1.2c0,1.9,0.5,3.3,1.5,4.2c1,0.9,2.5,1.4,4.6,1.4c2.3,0,3.9-0.5,5.1-1.6c1.1-1.1,1.7-2.9,1.8-5.4l0.7-13.5  c0.1-1.9,0.2-3.3,0.2-4.3c0-1,0-1.9,0-2.8v-1.7c0-0.4,0-0.7,0-1h12.6c-0.1,1.2-0.3,2.5-0.4,3.8c-0.1,1.3-0.2,2.7-0.3,4.2l-0.7,13.4  c0,0.6-0.1,1.3-0.1,2.4c-0.2,3.8-0.6,6.6-1.3,8.2c-1.1,2.3-3.2,4.1-6.2,5.4c-3.1,1.3-7,1.9-11.7,1.9c-5.6,0-9.9-1-13-3.1  c-3.1-2.1-4.7-4.9-4.7-8.6c0-0.9,0.2-4.4,0.4-10.5c0.3-6.1,0.5-11.8,0.5-17L35.7,378.8L35.7,378.8z" />
<path fill-rule="evenodd" fill="#FFFFFF" d="M375.6,238.7c-1.7,15.4-2.9,31.5-3.7,48.2c-0.8,16.7-1.1,34.4-1.1,53h-47.2v-10.6  c-4.8,4.8-9.8,8.3-15,10.3c-5.2,2-11.7,3.1-19.5,3.1c-12.2,0-21.1-2.8-26.8-8.2c-5.6-5.5-8.5-14.2-8.5-26c0-3.6,0.4-13.1,1.2-28.5  c0.8-15.4,1.3-29.2,1.6-41.3h47.3c-0.8,10.9-1.4,20.2-1.8,27.9c-0.4,7.8-0.5,14.8-0.5,21.1c0,5.5,0.8,9.5,2.3,12  c1.5,2.5,3.8,3.8,7.1,3.8c5.7,0,9.6-3.7,11.9-11c2.2-7.3,3.6-25.2,3.9-53.7L375.6,238.7L375.6,238.7z M385.9,272.3l1.8-33.6H404  l1-19.3l43.3-8.9l-1.6,28.3h19.5l-1.8,33.6h-18.7l-1,19.4v2.2c0,3.9,0.7,6.6,1.9,8.3c1.2,1.6,3.3,2.5,6.1,2.5  c1.4-0.1,3.1-0.2,5.2-0.5c2.1-0.3,4.4-0.7,7.1-1.3l-6.1,36.1c-4.3,1.3-8.5,2.2-12.5,2.9c-4,0.6-8.2,0.9-12.6,0.9  c-12.7,0-22.2-2.5-28.5-7.6c-6.3-5-9.4-12.8-9.4-23.1v-4.8l2-35L385.9,272.3L385.9,272.3z M528,238.1c-1.4,15.8-2.4,32.1-3,48.8  c-0.7,16.8-1,34.5-1,53h-48.3c1.5-15.7,2.7-32,3.5-48.9c0.8-16.9,1.2-34.5,1.2-52.9L528,238.1L528,238.1z M482,229.2l1.4-29.5h45.7  l-1.3,29.5L482,229.2L482,229.2z" />
<path fill-rule="evenodd" fill="#06509E" d="M141.7,311l6.1-7.1l2.6,0l6.4,6.6l-6.3,6.3l-2.7-0.1L141.7,311z M123.3,311l6.1-7.1  l2.5,0l6.4,6.6l-6.3,6.3l-2.7-0.1L123.3,311L123.3,311z M105.2,311l6.1-7.1l2.5,0l6.4,6.6l-6.4,6.3l-2.7-0.1L105.2,311L105.2,311z   M86.4,311l6.1-7.1l2.6,0l6.4,6.6l-6.3,6.3l-2.7-0.1L86.4,311L86.4,311z M79.8,316.9l4.3-4.3l4.1,4.3H79.8z M99.6,316.9l4.3-4.3  l4.1,4.3H99.6z M117.7,316.9l4.3-4.3l4.1,4.3H117.7z M135.1,316.9l4.3-4.3l4.1,4.3H135.1L135.1,316.9z M154.2,316.9l4.3-4.3l4.1,4.3  H154.2z M153.6,303.9l5.3,5.2l5-5.2H153.6L153.6,303.9z M134.1,303.9l5.3,5.2l5-5.2H134.1L134.1,303.9z M116.5,303.9l5.3,5.2l5-5.2  H116.5L116.5,303.9z M98.6,303.9l5.3,5.2l5-5.2H98.6L98.6,303.9z M78.7,303.9l5.3,5.2l5.1-5.2H78.7z M171.6,304.1h-4.4l-6.5,6.5  l5.6,5.5h5.3L171.6,304.1L171.6,304.1z M71.7,304.1h4.4l6.5,6.5l-5.6,5.5h-5.4L71.7,304.1L71.7,304.1z M93.5,341.1l5.7,6.7h46.5  l6.3-6.9c-1.9,0-3.8,0-5.6,0c-3.4-1.9-6.4-1.9-9.2,0c-3.1,1.1-6.4,1.1-10.1,0c-3.9-1.4-7.8-1.4-11.7,0c-2.2,1.4-4.5,0.9-6.7,0  c-2.2-1.5-5.3-2.4-9.2,0L93.5,341.1L93.5,341.1z M74,321.5h97.2L156.6,336h-9.5c-3.9-1.7-7.5-1.7-10.9,0c-2.7,1.4-5.4,1.4-8.2,0  c-2.9-1.4-6-1.4-9.4,0c-2.7,0.6-5.4,1-7.6,0c-3.4-2-6.7-2-10.1,0H87.6L74,321.5L74,321.5z M103.5,277.7h37.7v4.4l30.4,16.7h-100  l31.9-15.4L103.5,277.7L103.5,277.7z M91.8,266.6h60.8l3.5,6.9H87.4L91.8,266.6L91.8,266.6z M157.2,265.1c6.7-1.5,12.7-3.3,17.2-5.9  c6.6,3.8,11.5,9.2,14.7,16.3C178.4,271,167.8,267.5,157.2,265.1L157.2,265.1z M87.6,265.1c-6.7-1.5-12.7-3.3-17.2-5.9  c-6.6,3.8-11.4,9.2-14.7,16.3C66.4,271,77,267.5,87.6,265.1L87.6,265.1z M149.8,262.6c5.1-5.6,9.7-11.2,13.6-16.9  c11.3-1.3,19,1,24.1,5.8C175,254.1,162.4,257.9,149.8,262.6L149.8,262.6z M94.9,262.6c-5.1-5.6-9.7-11.2-13.6-16.9  c-11.3-1.3-18.9,1-24.1,5.8C69.8,254.1,82.4,257.9,94.9,262.6z M145.2,235.9c0.4,8.5-1.7,17-6.3,25.5h4.2l31.4-37.1  C165.6,221.8,155.8,225.6,145.2,235.9L145.2,235.9z M99.5,235.9c-0.4,8.5,1.7,17,6.3,25.5h-4.2l-31.4-37.1  C79.1,221.8,88.9,225.6,99.5,235.9L99.5,235.9z M129.4,261.1c25.3-27.9-2.3-38.5-7.2-54.6c-3.4,15-32.5,26.7-7.2,54.6H129.4z" />
</svg>