<?xml version="1.0" encoding="UTF-8" standalone="yes"?><svg xmlns="http://www.w3.org/2000/svg" xmlns:xlink="http://www.w3.org/1999/xlink" width="1024px" height="1024px" viewBox="0 0 1024 1024" version="1.2" baseProfile="tiny-ps"><title>Popsa</title><g id="App-Icon-Flat" stroke="none" stroke-width="1" fill="none" fill-rule="evenodd"><rect fill="#FFFFFF" x="0" y="0" width="1024" height="1024"></rect><path d="M512.010817,653.465453 C559.366167,653.465453 603.498151,667.376186 640.750738,691.346782 C674.758326,714.214037 705.867048,747.508934 705.867048,780.154808 C705.867048,792.356447 698.749684,809.923345 680.815657,809.923345 C665.391096,809.923345 652.7356,798.825046 632.854574,786.731578 C597.484087,765.703222 556.142801,753.631388 512.03245,753.631388 C467.900466,753.631388 426.580813,765.703222 391.188693,786.731578 C371.307666,798.84668 358.673804,809.923345 343.249243,809.923345 C325.293583,809.923345 318.176218,792.334813 318.176218,780.154808 C318.176218,747.508934 349.284941,714.235671 383.292529,691.346782 C420.523482,667.376186 464.633833,653.465453 512.010817,653.465453 Z M780.155889,318.13673 C792.335451,318.13673 809.923345,325.254352 809.923345,343.210665 C809.923345,358.635786 798.847082,371.270107 786.73242,391.173489 C765.704827,426.545261 753.633431,467.888047 753.633431,512.021634 C753.633431,556.133587 765.704827,597.476373 786.73242,632.848145 C798.825449,652.729893 809.923345,665.385848 809.923345,680.810969 C809.923345,698.745648 792.357084,705.86327 780.155889,705.86327 C747.5112,705.86327 714.217512,674.753418 691.351087,640.744596 C667.359729,603.490656 653.471133,559.378703 653.471133,512 C653.471133,464.621297 667.381362,420.509344 691.351087,383.255404 C714.239145,349.246582 747.5112,318.13673 780.155889,318.13673 Z M243.844111,318.13673 C276.4888,318.13673 309.760855,349.246582 332.648913,383.255404 C356.618638,420.509344 370.528867,464.621297 370.528867,512 C370.528867,559.378703 356.640271,603.490656 332.648913,640.744596 C309.782488,674.753418 276.4888,705.86327 243.844111,705.86327 C231.664549,705.86327 214.076655,698.745648 214.076655,680.810969 C214.076655,665.385848 225.174551,652.729893 237.26758,632.848145 C258.295173,597.476373 270.366569,556.133587 270.366569,512.021634 C270.366569,467.888047 258.295173,426.545261 237.26758,391.173489 C225.152918,371.270107 214.076655,358.635786 214.076655,343.210665 C214.076655,325.254352 231.664549,318.13673 243.844111,318.13673 Z M680.815657,214.076655 C698.749684,214.076655 705.867048,231.643553 705.867048,243.845192 C705.867048,276.491066 674.758326,309.785963 640.750738,332.653218 C603.498151,356.623814 559.366167,370.534547 512.010817,370.534547 C464.633833,370.534547 420.523482,356.623814 383.292529,332.653218 C349.284941,309.764329 318.176218,276.491066 318.176218,243.845192 C318.176218,231.665187 325.293583,214.076655 343.249243,214.076655 C358.673804,214.076655 371.307666,225.15332 391.188693,237.268422 C426.580813,258.296778 467.900466,270.368612 512.03245,270.368612 C556.142801,270.368612 597.484087,258.296778 632.854574,237.268422 C652.7356,225.174954 665.391096,214.076655 680.815657,214.076655 Z" id="Popsa" fill="#EB3281"></path></g></svg>