<?xml version="1.0" encoding="utf-8"?>
<svg version="1.2" baseProfile="tiny-ps" id="logo" xmlns="http://www.w3.org/2000/svg" xmlns:xlink="http://www.w3.org/1999/xlink" viewBox="0 0 130 130" xml:space="preserve">
<title>Nationwide</title>
<rect fill="#D0D3D4" width="130" height="130"/>
<g>
		<g id="Limited_space_2C_00000080205349742165209800000014879301534543243140_">
			<g>
				<path fill="#FFFFFF" d="M80.3,94c3.4,0.3,5.7,0.5,8.1,0.8c0.9,0.1,1.3,1.2,1.4,1.7c-1.1-0.3-3-0.4-3-0.4l-0.1,1.1
					c0,0,1.5-0.4,3.2-0.5c0,0,3.5,0,3.3,2.3c-0.9-0.7-2.9-0.4-3.4-0.3c-1.7,0.3-3.4,1.1-5.3,2.1c-1.8,0.9-3.7,1.9-5.9,2.6
					c1-0.9,3.5-3.8,3.5-3.8l-3.4-1.2l2.8-2.4l-4.3-2.3C78.4,93.8,79.4,93.9,80.3,94 M75.4,84.8c-1.6,1.8-3.6,4.4-3.2,6.3
					c0,0,0,0,0,0c0.3,1.6,2.5,2.5,2.5,2.5l4.8,2.6L76.4,99l3.7,1.2c0,0-3.4,3.5-3.8,3.8c-1,0.2-2,0.3-3.1,0.3
					c-7.9,0-18.8-4.6-21.5-4.7c-3.3,0-7.4,1.8-7.4,1.8l2.1-2.3c0,0-2.8,0.6-5.5,0.3l3.8-2.6c-3.4-0.1-6.3-1.1-7.7-2.1
					c0,0,6.2-0.5,14.6-0.4c3.4,0,9.2,0.4,9.2,0.4c-2.8-1.2-5.5-2.8-6.7-5.6l5.4,0.8c-2.3-1.4-5.6-4.9-6.2-7.6l6.1,2.1
					c-1.1-1.2-4.8-4.7-5.5-8.7l4.8,3c-1.3-1.3-4.7-8-4.1-10l4.5,3c-2.1-2.6-4.6-9.7-2.9-12.4c1.4,5.3,4.4,7.2,4.4,7.2
					c-2-2.9-6.3-13.1-2.2-17.6c1.1,10.2,5.4,13.6,5.4,13.6c-3.6-5.7-7.6-23.2-0.1-26.7c-1.5,11.2,2.1,17.3,2.1,17.3
					c-2.3-10.4-2.2-25,5.5-26.4c-3.8,11.1-1.1,19.6-1.1,19.6C69.7,20.6,78,21,78,21s-1.4,7.3-1.4,20.4v37.8
					C76.7,81.9,76.5,83.4,75.4,84.8"/>
				<g>
					<path fill="#1C57A5" d="M82,70.9l-4.1-4V41.5c-0.1-14.9,1.7-22,1.7-22c-4.8,0-7.3,4.5-7.8,5.9c-2.7,0.3-4.9,1.8-6.4,4.9
						c-0.8,1.7-1.3,3.4-1.4,4.2c-5.7,1.3-6.2,11.4-5.8,13.2l-8.8-8.6H33.9v51.1h14.2V59.3c0,0,6.8,6.5,6.8,6.5
						c0.6,1.9,1.2,2.6,1.2,2.6l-2.7-2.3c-0.5,5,0.9,7.6,2.2,9.5l-3.3-2.8c-0.3,5,2.1,8,3.6,9.3L51.7,80c-0.3,3,2.7,7.3,4.4,8.2
						l-3.6-0.5c0.8,4.1,3.6,5.6,3.6,5.6s-6.2-0.1-9.1-0.1c-8,0-13.2,0.8-13.2,0.8s3.5,3.5,8,3.7l-4,2.5c2.9,1,5.7,0.6,5.7,0.6
						l-2.3,2.8c0,0,7.3-2.8,10.4-2.6c2.5,0.2,13.9,4.6,21.6,4.6c5.2,0,8.9-2,11.9-3.6c1.8-1,3.4-1.8,5-2c2.8-0.4,4,0.6,4,0.6
						c0.3-1.2,1.1-4.1-3.4-4.9c-0.2-0.8-1-1.9-2.1-2c-2.4-0.4-12.6-1.2-12.9-1.2c-0.9-0.1-3.8-0.6-1.1-4.5c0.2-0.3,1.6-2,1.6-2
						l4.5,4.3h15.5V39.1H82V70.9z M80.3,94c3.4,0.3,5.7,0.5,8.1,0.8c0.9,0.1,1.3,1.2,1.4,1.7c-1.1-0.3-3-0.4-3-0.4l-0.1,1.1
						c0,0,1.5-0.4,3.2-0.5c0,0,3.5,0,3.3,2.3c-0.9-0.7-2.9-0.4-3.4-0.3c-1.7,0.3-3.4,1.1-5.3,2.1c-1.8,0.9-3.7,1.9-5.9,2.6
						c1-0.9,3.5-3.8,3.5-3.8l-3.4-1.2l2.8-2.4l-4.3-2.3C78.4,93.8,79.4,93.9,80.3,94z M76.7,79.3c0,2.6-0.2,4.2-1.3,5.5
						c-1.6,1.8-3.6,4.4-3.2,6.3c0,0,0,0,0,0c0.3,1.6,2.5,2.5,2.5,2.5l4.8,2.6L76.4,99l3.7,1.2c0,0-3.4,3.5-3.8,3.8
						c-1,0.2-2,0.3-3.1,0.3c-7.9,0-18.8-4.6-21.5-4.7c-3.3,0-7.4,1.8-7.4,1.8l2.1-2.3c0,0-2.8,0.6-5.5,0.3l3.8-2.6
						c-3.4-0.1-6.3-1.1-7.7-2.1c0,0,6.2-0.5,14.6-0.4c3.4,0,9.2,0.4,9.2,0.4c-2.8-1.2-5.5-2.8-6.7-5.6l5.4,0.8
						c-2.3-1.4-5.6-4.9-6.2-7.6l6.1,2.1c-1.1-1.2-4.8-4.7-5.5-8.7l4.8,3c-1.3-1.3-4.7-8-4.1-10l4.5,3c-2.1-2.6-4.6-9.7-2.9-12.4
						c1.4,5.3,4.4,7.2,4.4,7.2c-2-2.9-6.3-13.1-2.2-17.6c1.1,10.2,5.4,13.6,5.4,13.6c-3.6-5.7-7.6-23.2-0.1-26.7
						c-1.5,11.2,2.1,17.3,2.1,17.3c-2.3-10.4-2.2-25,5.5-26.4c-3.8,11.1-1.1,19.6-1.1,19.6C69.7,20.6,78,21,78,21s-1.4,7.3-1.4,20.4
						V79.3z"/>
				</g>
			</g>
		</g>
	
</g>
</svg>
