<?xml version="1.0" encoding="utf-8"?>
<svg version="1.2" baseProfile="tiny-ps" id="Layer_1" xmlns="http://www.w3.org/2000/svg" xmlns:xlink="http://www.w3.org/1999/xlink"
	 viewBox="0 0 200 200" xml:space="preserve">
	 <title>Petsense by Tractor Supply Co.</title>
<g>
	<path fill="#18488C" d="M97.9,125.9c1.4,10,2.9,20,4.3,30.1c-5.7,0-11.4,0-17.2,0c0-0.3,0-0.6,0-0.9c0-17.7,0-35.4,0-53
		c0-4.2,1.1-8,3.1-11.6c3.8-6.7,9.7-10.6,17.2-12.1c4.6-0.9,9.1-0.9,13.6,0.6c6.4,2.2,11,6.5,13.4,12.8c2.8,7.4,3.4,15.1,1.4,22.8
		c-2.4,9.2-8.5,14.5-17.9,16.1c-5,0.8-9.8,0.2-14.4-2.1c-1.3-0.6-2.5-1.4-3.3-2.6C98,125.9,98,125.9,97.9,125.9z M106.9,96
		c-0.8-0.3-1.6-0.7-2.4-0.9c-4.4-1.4-8.4,0.3-10,4.4c-1.6,4.1-0.6,7.8,2.2,11.1c1.6,2,3.8,3.2,6,4.4c4.5,2.5,9.5,3.8,14.5,5.1
		c0.6,0.2,1-0.1,1.3-0.7c0.2-0.5,0.5-1,0.7-1.5c1.8-3.9,3.7-7.8,4.6-12.1c0.6-2.8,1.2-5.7,0.6-8.7c-0.7-3.6-2.6-6.4-5.9-8
		c-3.3-1.6-7-0.9-9.3,1.8C108,92.4,107.3,94.1,106.9,96z"/>
	<path fill="#18488C" d="M95,58.7c0-4.3,1.3-8.2,4.4-11.4c4.6-4.6,11.1-4.5,15.5,0.3c2.5,2.8,3.7,6.2,3.9,9.9
		c0.2,4.3-0.8,8.2-3.5,11.5c-2.2,2.7-5,4.3-8.6,4.2c-3.1,0-5.6-1.4-7.6-3.6C96.3,66.9,95,63.1,95,58.7z"/>
	<path fill="#18488C" d="M91.7,73c-0.1,4.1-1.7,7.6-5.6,9.6c-3.1,1.6-6.4,1.5-9.7,0.2c-6-2.5-9.6-7-10.6-13.5
		c-0.5-3.1,0.1-6.1,2-8.6c2.5-3.4,6-4.5,10.1-4c6.7,0.8,12.8,7,13.7,14.4C91.7,71.6,91.7,72.2,91.7,73z"/>
	<path fill="#18488C" d="M81.3,97.3c0,3.6-2.2,6.7-5.9,8.1c-5.8,2.2-13.1-0.2-16.3-5.4c-3.2-5.2-1.2-11.2,4.5-13.4
		c6.2-2.4,14,0.7,16.8,6.6C81,94.4,81.3,95.7,81.3,97.3z"/>
	<path fill="#18488C" d="M142.5,65.6c-0.1,5.6-3.5,10.8-8.4,12.8c-5.8,2.3-11.5-1.2-12.3-7.4c-0.8-6,2.9-12.4,8.4-14.5
		c5.6-2.1,11.2,1.1,12,7C142.4,64.2,142.4,64.9,142.5,65.6z"/>
</g>
</svg>
