<?xml version="1.0" encoding="UTF-8"?>
<svg version="1.2" baseProfile="tiny-ps" xmlns="http://www.w3.org/2000/svg" xmlns:xlink="http://www.w3.org/1999/xlink" width="900" height="900" viewBox="0, 0, 900, 900">
<title>QMA</title>
  <g id="Layer_4">
    <path d="M47.5,312.5 L852.5,312.5 L852.5,587.5 L47.5,587.5 L47.5,312.5 z" fill="#FFFFFF"/>
  </g>
  <g id="Layer_3">
    <path d="M590,325 L840,325 L840,575 L590,575 L590,325 z" fill="#698C3C"/>
    <path d="M733.127,470.55 L685.403,470.55 Q675.647,470.55 673.274,472.132 Q670.901,473.714 666.946,482.679 L658.376,502.059 Q652.576,515.374 652.576,521.834 Q652.576,528.03 655.674,530.799 Q658.772,533.567 667.869,535.545 Q671.824,536.336 671.956,538.709 Q672.087,540.95 668.264,540.95 Q666.814,540.95 663.782,540.818 L651.125,540.159 Q644.797,539.896 636.492,539.896 Q632.668,539.896 630.559,540.027 Q623.835,540.555 623.176,540.555 Q619.617,540.555 619.617,538.182 Q619.617,536.072 621.858,535.413 L626.736,533.963 Q629.373,533.172 633.855,527.569 Q638.337,521.966 641.238,515.901 L645.061,507.2 L712.825,356.775 Q714.539,352.82 716.648,352.82 Q718.757,352.82 720.208,356.644 L776.897,501.663 L779.797,508.782 Q785.994,524.734 790.081,528.624 Q794.167,532.513 806.692,534.754 Q810.779,535.545 810.647,538.05 Q810.515,540.291 806.956,540.291 Q805.769,540.291 801.946,540.027 Q795.09,539.368 777.556,539.368 Q759.231,539.368 754.617,540.159 Q751.848,540.687 750.53,540.687 Q747.102,540.687 747.102,537.918 Q747.102,535.809 750.398,535.149 L754.485,534.227 Q761.077,532.908 761.077,525.262 Q761.077,518.274 753.035,497.444 L746.443,480.042 Q743.674,472.791 742.092,471.67 Q740.51,470.55 733.127,470.55 z M734.709,449.456 L714.011,397.249 L712.957,394.48 Q711.375,390.262 709.529,390.13 Q708.606,389.998 707.419,392.635 L681.711,449.72 Q679.998,453.411 679.998,454.598 Q679.998,458.025 686.062,458.025 L689.622,458.157 L729.436,458.157 Q736.028,458.157 736.028,454.861 Q736.028,453.938 735.369,451.829 z" fill="#FFFFFF"/>
  </g>
  <g id="Layer_2">
    <path d="M325,325 L575,325 L575,575 L325,575 L325,325 z" fill="#B84229"/>
    <path d="M508.799,406.609 Q497.593,426.253 493.901,433.899 L482.168,459.08 L468.721,486.766 Q467.666,489.139 457.646,511.551 Q453.56,520.779 450.527,526.712 Q448.813,530.271 448.154,531.722 Q445.518,537.918 442.485,537.918 Q439.321,537.918 436.421,531.458 Q435.894,530.271 432.729,524.207 L430.093,518.67 L380.654,411.619 L377.622,476.878 Q377.227,484.92 377.227,509.046 Q377.227,532.249 393.574,534.754 Q401.616,536.072 401.616,538.709 Q401.616,541.741 397.793,541.741 Q395.288,541.741 392.915,541.478 Q378.149,540.159 370.107,540.159 Q360.483,540.159 351.65,541.346 Q349.014,541.741 347.563,541.741 Q343.608,541.741 343.608,538.841 Q343.608,536.6 346.772,535.94 Q356.396,533.699 360.22,526.976 Q364.043,520.252 364.834,504.036 L366.68,465.804 Q368.657,424.275 368.657,413.333 Q368.657,389.866 362.461,378.594 Q356.265,367.322 341.763,364.686 Q337.808,364.026 337.808,361.39 Q337.808,358.489 341.104,358.489 Q342.29,358.489 345.454,358.753 Q347.3,359.017 354.419,359.017 Q365.229,359.017 368.13,358.753 Q371.162,358.357 373.008,358.357 Q378.677,358.357 382.5,366.663 L383.95,369.695 L438.926,488.216 L445.649,501.795 Q447.1,505.223 447.759,505.223 Q448.55,505.223 449.736,502.718 L451.318,499.158 L452.505,496.521 L514.468,363.895 Q516.445,359.676 517.434,358.687 Q518.423,357.698 520.928,357.698 Q521.982,357.698 526.729,358.226 Q528.442,358.357 531.079,358.357 Q539.385,358.357 544.395,357.83 Q546.768,357.698 548.218,357.566 Q550.854,357.435 550.854,360.203 Q550.854,362.708 548.218,363.367 L542.549,364.817 Q535.825,366.399 533.123,373.057 Q530.42,379.715 530.42,394.876 L531.211,426.648 L533.716,498.235 L534.375,514.847 Q534.375,524.866 538.066,529.217 Q541.758,533.567 551.514,535.018 Q558.501,536.072 558.501,538.577 Q558.501,541.214 553.623,541.214 Q552.173,541.214 550.327,541.082 L540.044,540.027 Q534.902,539.5 528.97,539.5 Q524.883,539.5 516.05,540.027 Q502.339,540.687 500.229,540.687 Q496.406,540.687 496.406,538.313 Q496.406,536.204 499.702,535.281 Q507.48,533.172 510.117,528.426 Q512.754,523.68 512.754,511.814 L512.227,490.325 z" fill="#FFFFFF"/>
  </g>
  <g id="Layer_1">
    <path d="M60,325 L310,325 L310,575 L60,575 L60,325 z" fill="#597CB6"/>
    <path d="M131.079,517.898 Q91.792,487.708 91.792,440.774 Q91.792,403.333 113.281,377.098 Q138.857,345.984 185.264,345.984 Q226.396,345.984 252.302,371.956 Q278.208,397.928 278.208,439.324 Q278.208,465.955 266.211,487.972 Q254.214,509.988 233.384,521.854 Q220.068,529.236 202.139,532.796 Q215.454,539.52 220.728,542.684 L232.988,550.726 L243.008,557.186 Q254.609,564.568 261.86,564.568 Q272.935,564.568 281.108,560.086 Q283.481,558.768 284.8,558.636 Q287.041,558.504 287.173,560.613 Q287.437,565.491 274.714,570.831 Q261.992,576.17 250.259,576.17 Q234.438,576.17 212.949,563.646 Q193.701,552.439 190.273,550.594 L168.125,538.86 Q148.35,528.445 139.121,528.445 Q131.079,528.445 124.355,534.905 Q117.632,541.365 116.182,550.594 Q115.391,555.34 113.018,555.34 Q109.59,555.34 109.854,551.121 Q110.381,540.97 116.643,531.082 Q122.905,521.194 131.079,517.898 z M177.485,353.631 Q148.745,353.631 130.815,374.527 Q112.886,395.423 112.886,428.909 Q112.886,477.425 143.34,505.242 Q166.147,525.94 194.36,525.94 Q223.364,525.94 241.228,505.506 Q259.092,485.071 259.092,451.98 Q259.092,410.979 235.295,382.305 Q211.499,353.631 177.485,353.631 z" fill="#FFFFFF"/>
  </g>
</svg>
