<?xml version="1.0" encoding="utf-8" standalone="yes"?><!-- Generator: Adobe Illustrator 28.1.0, SVG Export Plug-In . SVG Version: 6.00 Build 0)  --><svg xmlns="http://www.w3.org/2000/svg" xmlns:xlink="http://www.w3.org/1999/xlink" version="1.2" baseProfile="tiny-ps" viewBox="0 0 2324.4 2324.4" xml:space="preserve"><title>LOGO_SIMPLIFIED_BIMI-converted</title><g><rect fill="#FFFFFF" width="2324.4" height="2324.4"></rect><g><g><path fill="#020203" d="M164.9,1564.9c-3.4,0-6.5-2.3-7.3-5.8l-1.5-6.3c-0.9-3.7,1.2-7.5,4.7-8.7l0.5-0.2     c31.1-11.2,46.9-43.8,46.9-96.8l0.1-145.6c0-42.7-0.5-68-3.4-79.3c-1.5-5.9-1.5-5.9-9.8-5.9h-6.7c-5.8,0-10.3-4.3-10.3-9.7     c0-5.5,4.5-9.7,10.3-9.7h101.5c5.8,0,10.3,4.3,10.3,9.7c0,5.4-4.5,9.7-10.3,9.7h-6.3c-8.5,0-8.5,0-9.9,5.9     c-2.5,10.7-3,33.1-3,79.3l0.4,85.3c0.1,6.4,0.1,11.5,0.1,14.6c0,0.5-0.1,1.1-0.2,1.6l0.2,44c0,67-36.2,107.7-104.7,117.7     l-0.5,0.1C165.6,1564.9,165.2,1564.9,164.9,1564.9z"></path></g><g><path fill="#020203" d="M397.1,1475.1c-48.5,0-86.8-30.1-99.7-81.3c-15.7-62.3,17.8-117.1,81.6-133.2     c63.1-15.9,116.1,15.1,131.7,77.2c7.7,30.3,3.4,60.4-11.9,84.7c-14.9,23.7-39.7,40.9-69.7,48.5     C418.1,1473.8,407.3,1475.1,397.1,1475.1z M387.7,1279.7c-2,0-4,0.2-5.9,0.7c-33.9,8.6-22.6,68.8-16.2,94.3     c6.8,26.8,16.3,48.1,27.6,61.7c10.5,12.6,21.5,17.6,32.8,14.7c34.2-8.6,23.1-68.4,16.7-93.7     C430.4,1309.2,409.3,1279.7,387.7,1279.7z"></path></g><g><path fill="#020203" d="M625.3,1472.9c-21.3,0-41.3-6.4-57.7-18.8c-21.6-16.2-35.4-40.9-40.1-71.4c-9.8-63.6,28.1-116.6,90-126.1     c19.3-3,47.4,0.3,68.2,18.3c16.2,14,24.6,34.4,24.3,59c0,0.8-0.1,1.6-0.4,2.3c-0.1,0.3-0.3,0.7-0.4,1c-0.9,1.8-2.5,3.1-4.4,3.8     L596,1376.2c0,0.2,0.1,0.3,0.1,0.5c8.8,42.7,28.9,60.5,63.4,55.8c22.4-3,39.4-17.9,55.2-48.2c1.8-3.4,5.8-4.9,9.4-3.5l4.6,1.8     c1.9,0.8,3.4,2.3,4.2,4.2c0.8,1.9,0.7,4-0.1,5.9c-21.4,47.1-51.2,72.9-90.9,79C636.3,1472.5,630.8,1472.9,625.3,1472.9z      M621.3,1275.6c-1.4,0-3,0.1-4.5,0.3c-4.2,0.5-7.9,2.9-11.3,7.3c-10.2,13.3-15,42.7-12.3,73.5l56.8-18.4     c0.7-13.2,0.6-43.7-13-56.8C632.9,1277.5,627.7,1275.6,621.3,1275.6z"></path></g><g><path fill="#020203" d="M864.5,1471.4c-3.6,0-21.7-0.1-39.2-0.2l-9.8-0.1c-11.1-0.1-20.2-0.1-22.1-0.1c-2.3,0-9.3,0.1-17.3,0.1     h-1c-11.1,0.1-23.3,0.2-29.2,0.2c-5.8,0-10.3-4.3-10.3-9.7c0-5.5,4.5-9.7,10.3-9.7h4.1c7.7,0,7.8,0,9.2-5.7     c2.4-9.9,2.9-30.7,2.9-70.9v-80.6c0-41.1-0.4-62.5-2.8-72.6c-1.4-5.9-1.4-5.9-8.9-5.9h-4.5c-5.8,0-10.3-4.3-10.3-9.7     c0-5.5,4.5-9.7,10.3-9.7c6,0,18.9,0.1,30.2,0.2c8.1,0.1,15,0.1,17.4,0.1c0.6,0,1.5,0,2.9,0.1h0.8c4.9,0.2,12.5,0.4,20.8,0.3     c7.3-0.1,19.9-0.4,23-0.4c32.3,0,54.8,3.7,70.8,11.7c19.2,9.6,28.9,25.7,28.9,47.7c0,22.7-12.5,39.5-37.2,50.1     c39.3,9.3,74.7,32.8,74.7,87.3C978.1,1445.3,939.9,1471.4,864.5,1471.4z M844,1300.4c1.6,0,3.1-0.1,4.6-0.1h0.7     c21.7-4.4,30.9-17.4,30.9-43.4c0-33.8-15.5-40.2-44-40.2h-10.7c-0.5,6.5-0.4,19.5-0.3,34.2v2.3c0,6.5,0.1,13.8,0.1,21.8v25.5H844     V1300.4z M825.2,1391.7c0,31.1,0.5,48.4,3,56.1c1.2,3.7,1.3,4.1,10.2,4.1h18.3c19.2,0,32.7-4.7,41.4-14.2     c8.6-9.5,12.8-23.9,12.8-44.1c0-52.5-17.4-73-62.1-73h-23.7L825.2,1391.7L825.2,1391.7z"></path></g><g><path fill="#020203" d="M1080.4,1469.6h-90.5c-5.5,0-9.9-4-9.9-9.2c0-5.1,4.3-9.2,9.9-9.2c10.8,0,11.9,0,11.9-33.6v-92.8     c0-17.2-1.9-21.4-3.1-22.4c-1.7-1.4-9.6,0-13.9,0.7c-2.7,0.3-4.9-0.1-6.8-1.2c-2.4-1.4-3.9-3.8-4.2-6.5     c-0.6-5.2,3.3-9.8,8.9-10.4c15.4-2.6,43.3-17.7,58.2-25.8c2.6-1.4,4.8-2.6,6.7-3.6c5.4-3,12.9,1,12.9,1.1     c4.7,2.6,5.2,6.5,5.2,8.1v16.8c11.9-16.5,28-25.8,47.2-27c4.5-0.2,17.8-0.2,31-0.1c3.9,0,6.8,0.1,7.5,0c2.6,0,5,1.2,6.4,3.4     c1.4,2.1,1.6,4.9,0.6,7.2l-20.7,45.5c-1.3,2.8-4,4.5-7.2,4.4l-1.8-0.1c-2.1-0.1-4-1.1-5.3-2.6c-6.2-7.3-15.2-11.6-24.6-11.6     c-5.6,0-11,1.4-15.6,4.1c-4.6,2.6-8.6,6.4-11.5,10.8c-0.1,0.2-0.2,0.3-0.3,0.5c-2.6,3.9-4.3,8.2-5.1,12.9     c-0.1,0.3-0.1,0.6-0.2,0.9l-0.4,1.2v86.4c0,33.6,0.8,33.6,14.7,33.6c5.4,0,9.6,4,9.6,9.2     C1090,1465.5,1085.7,1469.6,1080.4,1469.6z M985.1,1299.7c-0.1,0-0.2,0-0.3,0.1C984.9,1299.8,985,1299.8,985.1,1299.7z"></path></g><g><path fill="#020203" d="M1246.7,1475.1c-48.5,0-86.8-30.1-99.7-81.3c-15.7-62.3,17.8-117.1,81.6-133.2     c63.1-15.9,116.1,15.1,131.7,77.2c7.7,30.3,3.4,60.4-11.9,84.7c-14.9,23.7-39.7,40.9-69.7,48.5     C1267.7,1473.8,1257,1475.1,1246.7,1475.1z M1237.3,1279.7c-2,0-4,0.2-5.9,0.7c-33.9,8.6-22.6,68.8-16.2,94.3     c6.8,26.8,16.3,48.1,27.6,61.7c10.5,12.6,21.5,17.6,32.8,14.7c34.2-8.6,23.1-68.4,16.7-93.7     C1280.1,1309.2,1259,1279.7,1237.3,1279.7z"></path></g><g><path fill="#020203" d="M1584.3,1469.4h-26.2c-6.2,0-11.6-3.9-13.6-9.7l-27-81l-35.9,81.3c-2.5,5.7-8.2,9.4-14.5,9.4H1441     c-6.2,0-11.6-3.9-13.6-9.7l-49.1-147.3c-0.1-0.3-0.2-0.5-0.3-0.8c-11.7-34.3-11.7-34.3-25.2-34.3c-5.3,0-9.5-4-9.5-9.1     s4.2-9.1,9.5-9.1h96.8c5.5,0,9.8,4,9.8,9.1s-4.3,9.1-9.8,9.1c-6.2,0-8.4,1.1-9.1,2s-2.5,4.8,1.4,19.3l35.5,117l30.2-66.7     l-12.2-36.5c-0.1-0.3-0.2-0.5-0.3-0.8c-11.7-34.3-11.7-34.3-25.2-34.3c-5.3,0-9.5-4-9.5-9.1s4.2-9.1,9.5-9.1h34.4     c0.3,0,0.6,0,0.8,0h61.6c5.5,0,9.8,4,9.8,9.1s-4.3,9.1-9.8,9.1c-6.5,0-8.5,1.2-9.1,1.9c-0.5,0.7-2.1,3.6,0,13.8     c0.3,1.8,0.8,3.6,1.3,5.5l35.4,116.7l36.5-82.6c3.9-9.9,16-41,9.6-50.2c-2.3-3.4-8.3-4.9-18.1-4.9c-5.7,0-10-4.1-10-9.3     c0-5.2,4.4-9.3,9.9-9.3h77.7c5.4,0,9.7,4,9.7,9.1c0,2.7-1.2,5.2-3.3,6.9c-1.8,1.4-4,2.2-6.4,2.2c-5.1,0-23.8,4.7-49.4,65.5     l-51.9,117.2C1596.3,1465.7,1590.6,1469.4,1584.3,1469.4z"></path></g><g><path fill="#020203" d="M1854.7,1469.2c-3.7-0.5-6.7-2.6-8-5.8c-1.2-2.9-0.8-6.3,1.1-8.8c2.1-2.7,5.5-4,9.2-3.6     c5.6,0.7,7.4-1.1,7.9-1.7c1.5-1.6,4.7-7,2-23.1l-18.9-117c-0.1-0.6-4.2-31.4-21.8-34c-7.3-1-29.7-4.2-37.9,32.8     c-0.8,3.4-1.4,7-1.8,10.7v98.3c0,33.6,0.8,33.6,14.6,33.6c5.4,0,9.6,4,9.6,9.2c0,5.1-4.2,9.2-9.6,9.2h-90.5c-5.5,0-9.8-4-9.8-9.2     c0-5.1,4.3-9.2,9.8-9.2c10.5,0,11.9,0,11.9-33.6v-92.8c0-17.2-1.9-21.4-3.1-22.4c-1.7-1.4-9.6-0.1-13.9,0.7     c-4,0.5-7.3-0.8-9.3-3.5c-1.9-2.5-2.3-5.9-1-8.8c1.4-3.2,4.5-5.4,8.3-5.9c15.3-2.6,43-17.6,57.8-25.6c2.7-1.5,5.1-2.7,7-3.8     c5.5-3,12.9,1,13,1c4,2.2,5,5.4,5.2,7.3c22-8.4,43.1-10.8,62.8-7.3c57.2,10.4,62.9,52.6,63.1,54.4l22.1,118     c4.9,22.5,6.4,22.4,20.4,22.5l0,0c3.6,0,6.7,1.8,8.3,4.9c1.6,3,1.3,6.6-0.6,9.5c-1.9,2.7-5.1,4.2-8.5,4h-98.5     C1855.3,1469.3,1855,1469.3,1854.7,1469.2z M1705.8,1299.2c-0.1,0-0.1,0-0.2,0C1705.6,1299.2,1705.7,1299.2,1705.8,1299.2z"></path></g><g><path fill="#020203" d="M2063.2,1470.3c-3.1,0-6.3-0.1-9.4-0.2l0,0c-15.1,0-36.8-3-43.6-4c-0.4,0-1-0.1-1.8-0.1     c-11.2-1-15.5-0.4-17.1,0c-0.9,1.2-2.2,2.2-3.7,2.7c-3.9,1.3-6.5,0.2-8.1-0.9c-1.9-1.4-3.2-3.8-3.2-6.2c0-9.9-4.2-33.7-6.2-45.1     c-0.5-3.1-1-5.4-1.1-6.6c0-0.3-0.1-0.6-0.1-0.9c-0.1-2,0.7-4,2.1-5.5c1.1-1.1,2.9-2.4,5.9-2.4s5.6,1.4,7.1,3.7     c3.1,4.5,25.9,35.7,70,44.2c5.2,0.9,10.6,1.4,15.9,1.4c27.2,0,44.1-9.2,44.1-24c0-15.4-20.1-22.8-48.5-31.6l-18.5-5.7     c-26.7-8.5-76.2-24.3-76.2-67.7c0-33.5,30.9-67.3,100-67.3c11.7,0,24,1,36.5,2.9c0.4,0,1,0.1,1.7,0.1c11.2,1,15.5,0.4,17.2,0     c0.9-1.2,2.1-2.1,3.6-2.7c3.9-1.3,6.6-0.3,8.1,0.8c2,1.4,3.2,3.8,3.2,6.2c0,10,4.2,33.8,6.2,45.3c0.5,3,0.9,5.3,1.1,6.5     c0.1,0.4,0.1,0.7,0.1,1.1c0,3.8-3,7.7-8.1,7.7c-3.4,0-5.7-1.6-6.9-3.5l0,0c-9.4-13.9-40-44.5-69.4-44.5     c-23.2,0-38.8,8.6-38.8,21.5c0,15.6,24.2,23.1,47.6,30.4l21.5,6.5c25.9,8.5,74.1,24.3,74.1,68.4     C2168.5,1448.8,2115.6,1470.3,2063.2,1470.3z M1970.7,1411.6L1970.7,1411.6L1970.7,1411.6z M1970.7,1411.6     c0.2,0.6,0.5,1.1,0.9,1.5c0-0.1-0.1-0.1-0.1-0.2C1971.1,1412.5,1970.9,1412.1,1970.7,1411.6z M2146,1310.3     c0.2,0.4,0.4,0.7,0.6,1.1C2146.4,1311,2146.2,1310.6,2146,1310.3z"></path></g></g><g><g><path fill="#020203" d="M1081.6,1561c-0.2,0-0.4,0-0.6-0.1s-0.3-0.2-0.4-0.3c-0.3-0.1-1.3-0.3-4.5-0.5c-1.5,0-3.4,0-5.9,0     c-4.1,0-12.9-0.2-14.6-0.2l-11.9,0.2c-1.2,0-1.7-0.9-1.5-1.7c0.2-0.8,1-1.7,2.1-1.7c1.9,0,2-0.2,2.4-0.8c0.8-1.3,1.5-4.3,2.6-9.8     c0.4-1.5,2.3-11.3,3-15l0.4-2.1c1.4-7,2-10.9,2-12.7c-0.1-1.1-0.1-1.1-1.4-1.1h-0.8c-1,0-1.7-0.7-1.5-1.7s1.1-1.7,2.1-1.7h28.2     c3.9-0.1,5.2-0.4,5.6-0.5c0.2-0.2,0.4-0.3,0.6-0.3c1-0.4,1.7,0.1,1.8,0.7c0.8,3.6,1.3,10.7,1.2,12.1c0,0.1,0,0.1,0,0.2     c-0.1,0.7-0.8,1.4-1.7,1.4c-0.6,0-1-0.3-1.1-0.7c-0.1-0.3-0.3-0.6-0.4-1c-1.2-3.1-3.1-7.8-15-8h-5.9c-0.3,1.2-0.7,3.2-1.2,5.9     l-1.8,9.3h1.7c7.9,0,9.6-3.3,10.3-6.9l0.2-0.9c0.1-0.5,0.4-1,0.8-1.3s0.9-0.5,1.3-0.5c1,0,1.6,0.8,1.4,1.8     c-0.5,2.1-1.7,7.2-2.2,9.8c-0.4,2.1-1.2,7.1-1.7,10.1c-0.1,0.6-0.4,1.1-0.9,1.4c-0.4,0.3-0.8,0.4-1.3,0.4c-1,0-1.6-0.8-1.4-1.8     l0.2-0.8c1.1-5.5-1.2-7.8-7.4-7.8h-1.7l-2.1,10.8c-0.6,3.1-1.6,8.1-2.4,11h8.6c12.5-0.2,16.7-5.3,19.2-8.4     c0.2-0.2,0.3-0.4,0.5-0.6c0.3-0.4,0.8-0.7,1.4-0.7c0.2,0,0.5,0.1,0.7,0.2c0.4,0.2,0.5,0.7,0.5,1.2c0,0.1,0,0.1-0.1,0.2     c-0.5,1.4-3.7,8.5-5.9,12.1C1082.8,1560.6,1082.2,1561,1081.6,1561z M1088.6,1548.3c0,0.1-0.1,0.2-0.2,0.2l0,0     C1088.5,1548.5,1088.5,1548.4,1088.6,1548.3z M1090.3,1523.2L1090.3,1523.2c0,0.1,0.1,0.2,0.1,0.3     C1090.3,1523.3,1090.3,1523.2,1090.3,1523.2z"></path></g><g><path fill="#020203" d="M1104.7,1559.8c-0.5,0-1.1,0-1.6,0l0,0c-2.7,0-6.4-0.5-7.5-0.7c-0.1,0-0.2,0-0.3,0c-1.9-0.2-2.7-0.1-3,0     c-0.2,0.2-0.5,0.4-0.7,0.5c-0.7,0.2-1.2,0-1.4-0.2c-0.3-0.2-0.4-0.7-0.3-1.1c0.3-1.7,0.4-5.9,0.4-7.9c0-0.5,0-1,0-1.2     c0-0.1,0-0.1,0-0.2c0.1-0.4,0.3-0.7,0.6-1c0.2-0.2,0.6-0.4,1.1-0.4s0.9,0.2,1.1,0.7c0.4,0.8,3.3,6.3,10.8,7.8     c0.9,0.2,1.8,0.2,2.8,0.2c4.8,0,8.1-1.6,8.6-4.2c0.5-2.7-2.8-4-7.4-5.5l-3.1-1c-4.4-1.5-12.6-4.3-11.1-11.9     c1.1-5.9,7.7-11.8,19.9-11.8c2.1,0,4.2,0.2,6.3,0.5c0.1,0,0.2,0,0.3,0c1.9,0.2,2.7,0.1,3,0c0.2-0.2,0.4-0.4,0.7-0.5     c0.7-0.2,1.2-0.1,1.4,0.1c0.3,0.2,0.4,0.7,0.4,1.1c-0.3,1.8-0.4,5.9-0.5,7.9c0,0.5,0,0.9,0,1.1c0,0.1,0,0.1,0,0.2     c-0.1,0.7-0.8,1.3-1.7,1.3c-0.6,0-0.9-0.3-1.1-0.6l0,0c-1.2-2.4-5.5-7.8-10.7-7.8c-4.1,0-7.1,1.5-7.6,3.8     c-0.5,2.7,3.5,4.1,7.3,5.3l3.6,1.1c4.3,1.5,12.2,4.3,10.7,12C1124,1556.1,1113.9,1559.8,1104.7,1559.8z M1090.5,1549.5     L1090.5,1549.5L1090.5,1549.5z M1090.5,1549.5c0,0.1,0.1,0.2,0.1,0.3l0,0C1090.5,1549.7,1090.5,1549.6,1090.5,1549.5z      M1124.7,1531.7c0,0.1,0.1,0.1,0.1,0.2C1124.8,1531.9,1124.8,1531.8,1124.7,1531.7z"></path></g><g><path fill="#020203" d="M1137.9,1560.5c-6.7,0-9.7-3.6-8.4-10.2l4.8-24.8h-2.1c-0.1,0-0.3,0-0.4-0.1c-0.5-0.2-1-0.8-0.8-1.6     c0.1-0.7,0.7-1.3,1.2-1.5l14.1-8.9c0.3-0.2,0.5-0.2,0.8-0.2h0.2c0.7,0,1.2,0.6,1.1,1.3l-1.5,7.7h7.7c0.2,0,0.3,0,0.5,0.1     c0.5,0.2,0.9,0.8,0.8,1.6c-0.2,0.8-0.8,1.4-1.3,1.6c-0.2,0.1-0.4,0.2-0.6,0.2h-7.7l-4.8,25c-0.6,3.2,0,4.5,2.2,4.5     c1.3,0,2.9-0.5,4.7-1.4c0.7-0.3,1.4-0.2,1.7,0.4l0.4,0.8c0.3,0.6,0,1.4-0.7,1.8C1146.3,1558.6,1142.7,1560.5,1137.9,1560.5z"></path></g><g><path fill="#020203" d="M1156,1559.1c-1.4,0-2.7-0.5-3.6-1.6c-0.8-1-1.1-2.4-0.9-3.9c0.3-1.5,1.1-2.8,2.4-3.9     c2.6-2.1,6-2.1,7.8,0c0.8,1,1.1,2.4,0.9,3.9c-0.3,1.5-1.1,2.8-2.4,3.9l0,0C1158.9,1558.5,1157.4,1559.1,1156,1559.1z"></path></g><g><path fill="#020203" d="M1196.8,1559.9h-16.2c-1,0-1.6-0.7-1.4-1.6s1.1-1.6,2-1.6c1.9,0,2.1,0,3.2-5.9l5.7-29.2     c-0.7,0.4-2,1-4.5,2.3c-0.4,0.2-0.9,0.2-1.3,0s-0.5-0.7-0.4-1.1l0.1-0.8c0.1-0.4,0.4-0.8,0.8-1.1c3.6-2.2,5.6-3.4,7.7-4.6     c2.3-1.4,4.6-2.7,8.9-5.3c0.2-0.2,0.5-0.2,0.8-0.2h0.3c0.7,0,1.2,0.6,1.1,1.3l-7.5,38.8c-1.1,5.9-1,5.9,1.4,5.9     c0.9,0,1.5,0.7,1.4,1.6c-0.1,0.4-0.4,0.9-0.8,1.2C1197.7,1559.7,1197.2,1559.9,1196.8,1559.9z"></path></g><g><path fill="#020203" d="M1207.5,1560.6c-0.6,0-1-0.4-1.1-0.9l-0.1-0.9c0-0.3,0.1-0.7,0.3-1c0.2-0.3,0.6-0.6,0.9-0.7     c6.4-1.8,14.2-6.5,18.8-18.6c-3.3,2.5-7.1,3.9-10.7,3.9c-9.3,0-12.8-7.7-11.4-15c1.9-9.8,10.8-16.7,21.6-16.7     c11.5,0,17.5,7.7,15.2,19.6c-2.8,14.6-16.8,27.4-33.3,30.4C1207.7,1560.6,1207.6,1560.6,1207.5,1560.6z M1224.9,1514.2     c-4.2,0-6.8,5.9-7.9,11.4c-1.4,7,0.1,11.1,3.8,11.1c1.6,0,3.1-0.6,4.7-1.8c0.3-0.2,0.7-0.3,1-0.3s0.6,0.2,0.8,0.5l0.1,0.1     c0.5-1.7,0.9-3.4,1.3-5.3C1230.6,1520.2,1229.1,1514.2,1224.9,1514.2z"></path></g><g><path fill="#020203" d="M1247.4,1560.6c-0.6,0-1-0.4-1.1-0.9l-0.1-0.9c0-0.3,0.1-0.7,0.3-1c0.2-0.3,0.6-0.6,0.9-0.7     c6.4-1.8,14.2-6.5,18.8-18.6c-3.3,2.5-7.1,3.9-10.7,3.9c-9.3,0-12.8-7.7-11.4-15c1.9-9.8,10.8-16.7,21.6-16.7     c11.5,0,17.5,7.7,15.2,19.6c-2.8,14.6-16.8,27.4-33.3,30.4C1247.5,1560.6,1247.4,1560.6,1247.4,1560.6z M1264.7,1514.2     c-4.2,0-6.8,5.9-7.9,11.4c-1.4,7,0.1,11.1,3.8,11.1c1.6,0,3.1-0.6,4.7-1.8c0.3-0.2,0.7-0.3,1-0.3s0.6,0.2,0.8,0.5l0.1,0.1     c0.5-1.7,0.9-3.4,1.3-5.3C1270.4,1520.2,1269,1514.2,1264.7,1514.2z"></path></g><g><path fill="#020203" d="M1293.9,1560.6c-11.8,0-16-6.3-14.9-12.2c1-5.1,4.9-9.3,10.9-11.8c-3.9-3.1-5.5-7.1-4.6-11.8     c1.6-8.1,9.9-14.2,19.3-14.2c7.4,0,14.4,4,13,11.4c-0.9,4.5-4.3,8.2-9.6,10.5c5.7,3.6,8,8.1,7,13.5     C1313.3,1554.4,1304.3,1560.6,1293.9,1560.6z M1293.7,1539c-3.1,2.5-5.1,5.8-5.8,9.5c-1.2,6.4,3,8.6,7,8.6c2.4,0,4.6-0.7,6.4-2.1     c1.7-1.3,2.8-3.1,3.2-5.2c0.9-4.8-2.6-7.1-6.6-8.8l-2.8-1.3C1294.6,1539.5,1294.1,1539.2,1293.7,1539z M1301.9,1529.6l1.8,0.8     c2.8-2.4,4.6-5.4,5.2-8.7c0.9-4.6-1.2-7.5-5.2-7.5c-6,0-7.5,5.3-7.8,6.9C1295,1525.5,1297.5,1527.6,1301.9,1529.6z"></path></g></g><g><rect x="360.7" y="1208.1" fill="#010202" width="330.4" height="7.5"></rect></g><g><rect x="326.8" y="1541.6" fill="#010202" width="649.4" height="7.5"></rect></g><g><rect x="1395.9" y="1541.6" fill="#010202" width="649.4" height="7.5"></rect></g><g><rect x="986.6" y="1208.1" fill="#010202" width="1058.7" height="7.5"></rect></g><g><g><path fill="#EC6164" d="M1402.2,915.5l-212.7,68.3l54.3-73.8c1.5,1.1,3.2,1.8,5.2,2.1c1.7,0.3,3.3,0.5,5,0.7     c4.8,0.4,9.6,0.6,14.4,0.8c5.8,0.2,11.6,0.5,17.5,0.6c5.5,0.2,11.1,0.2,16.6,0.4c6.3,0.1,12.5,0.3,18.8,0.4     c3.7,0.1,7.5,0.1,11.2,0.1c9.2,0.1,18.4,0.2,27.6,0.3c7.9,0.1,15.8,0.1,23.7,0.2c5.4,0,10.8,0,16.3-0.1c0.7,0,1.4,0,2.1,0     C1402.1,915.5,1402.2,915.5,1402.2,915.5z"></path><path fill="#EC6164" d="M1189.4,983.8l-213.1-68.4c0.6,0.5,1.3,1,2,1.5c2.5,1.8,5,3.5,7.5,5.3c7.5,5.5,15,11,22.4,16.5     c19.7,14.5,39.3,29.2,58.7,44c8,6.1,15.9,12.3,23.7,18.6c2.4,1.9,4.7,3.9,6.9,6.1c0.9,0.9,1.7,1.9,2.5,3c0.3,0.4,0.5,0.8,0.7,1.3     L1189.4,983.8L1189.4,983.8z"></path><path fill="#D80F16" d="M1135,909.7c-1,0.7-2.1,1.2-3.4,1.6c-0.5,0.1-0.9,0.2-1.4,0.3c-2.6,0.6-5.2,0.8-7.8,0.9     c-5.7,0.3-11.3,0.5-17,0.7c-7.4,0.2-14.9,0.4-22.3,0.5c-6,0.1-12,0.2-18,0.2c-14.3,0.1-28.5,0.2-42.8,0.2     c-14.2,0-28.4,0.2-42.7-0.2c-1.1,0-2.2,0-3.2,0c-0.4,0-0.7,0-1,0.4c0,0.4,0.4,0.6,0.6,0.8c0,0,0.1,0.1,0.2,0.1l213.1,68.4     L1135,909.7z"></path><path fill="#D80F16" d="M1243.7,909.9c-1.4-1-2.5-2.3-3.4-4c-0.4-0.8-0.9-1.5-1.2-2.4c-1-2.3-2-4.6-2.9-6.9     c-3.8-9.8-7.2-19.7-10.6-29.6c-10.2-29.7-19.9-59.5-29.6-89.3c-1.7-5.1-3.2-10.4-4.8-15.5c-0.2-0.7-0.5-1.5-0.8-2.1     c-0.1-0.2-0.3-0.3-0.5-0.6c-0.2,0.3-0.3,0.4-0.4,0.6v223.7L1243.7,909.9z"></path><path fill="#EC6164" d="M1189.4,760.1c0,0-0.1,0.1-0.1,0.1c-0.2,0.6-0.5,1.2-0.7,1.8c-0.8,2.5-1.5,4.9-2.3,7.4     c-3,9.1-6,18.2-9,27.3c-6.2,18.3-12.3,36.5-18.5,54.8c-4.6,13.4-9.2,26.7-14.2,39.8c-1.4,3.6-2.9,7.2-4.4,10.8     c-0.7,1.6-1.5,3.1-2.5,4.6c-0.8,1.2-1.7,2.1-2.8,2.9l54.5,74.1V760.1L1189.4,760.1z"></path><path fill="#D80F16" d="M1403.3,915.7v0.2c-0.4,0.4-0.8,0.8-1.3,1.2c-0.5,0.4-1.1,0.8-1.6,1.2c-8.2,5.7-16.3,11.6-24.4,17.5     c-18,13.1-36,26.2-53.8,39.6c-10.6,7.9-21.2,15.9-31.6,24.2c-2.3,1.8-4.5,3.6-6.7,5.5c-1.6,1.4-3.2,2.8-4.6,4.4     c-0.1,0.1-0.2,0.3-0.3,0.4c-0.4,0.5-0.8,1-1.1,1.5c-0.1,0.3-0.3,0.5-0.4,0.8l-88-28.5l212.7-68.3     C1402.5,915.5,1402.9,915.6,1403.3,915.7z"></path><path fill="#EC6164" d="M1320.8,1166.7l-131.4-183l88,28.5c-0.4,0.9-0.7,1.8-0.9,2.7c-0.2,1.4-0.2,2.9,0,4.3     c0.3,2.1,0.7,4.2,1.2,6.3c2.1,8.2,4.4,16.4,6.8,24.5c6.9,23.7,14.3,47.3,21.7,70.9c3.5,11,7,22.1,10.5,33.1     c1,3.2,2.1,6.4,3.2,9.6c0.3,0.8,0.5,1.6,0.7,2.4C1320.8,1166.3,1320.8,1166.5,1320.8,1166.7z"></path><path fill="#D80F16" d="M1320.8,1166.7c0,0.1,0,0.2-0.1,0.3c-0.4,0.1-0.6,0-0.9-0.2c-0.7-0.5-1.3-0.9-2-1.4c-4-3-7.9-6-11.9-8.9     c-17.5-12.7-35-25.3-52.5-37.9c-12.3-8.8-24.7-17.6-37.2-26.1c-5.2-3.6-10.5-7-15.8-10.5c-1.7-1.1-3.4-2.1-5.2-3     c-1-0.5-2-0.9-3-1.3c-1-0.4-2-0.5-2.9-0.6v-93.3L1320.8,1166.7z"></path><path fill="#EC6164" d="M1189.4,983.8v93.3c-1.4-0.1-2.8,0.1-4.1,0.6c-1.3,0.5-2.6,1-3.8,1.7c-2.2,1.3-4.5,2.6-6.7,4.1     c-8.1,5.2-16,10.6-23.9,16c-20.6,14.2-41,28.6-61.3,43.2c-8.1,5.8-16.1,11.6-24.2,17.4c-1.8,1.3-3.6,2.7-5.4,4.1     c-0.7,0.5-1.5,1.1-2.3,1.6c-0.4,0.2-0.8,0.4-1.1,0.6c-0.2-0.1-0.3-0.2-0.3-0.3L1189.4,983.8z"></path><path fill="#D80F16" d="M1189.4,983.8l-133.2,182.3c-0.1-0.1-0.1-0.2,0-0.4c0.2-0.6,0.3-1.2,0.5-1.9c1.5-4.3,3-8.6,4.4-12.9     c3.7-11.3,7.4-22.7,11-34c6.6-20.4,13-40.8,19.3-61.3c2.9-9.4,5.7-18.8,8.2-28.4c0.6-2.5,1.3-4.9,1.7-7.4     c0.3-1.8,0.5-3.6,0.2-5.4c-0.1-0.6-0.3-1.2-0.5-1.8c-0.1-0.2-0.2-0.5-0.3-0.7c0-0.1-0.1-0.3-0.2-0.4l64-20.1L1189.4,983.8z"></path></g></g></g></svg>