<?xml version="1.0" encoding="iso-8859-1"?>
<!-- Generator: Adobe Illustrator 29.0.1, SVG Export Plug-In . SVG Version: 9.03 Build 54978)  -->
<svg version="1.2" baseProfile="tiny-ps" id="Layer_1" xmlns="http://www.w3.org/2000/svg" xmlns:xlink="http://www.w3.org/1999/xlink"
	  viewBox="0 0 96 96" xml:space="preserve">
<title>POP Fit</title><desc>POP Fit Logo</desc>
<path d="M10.7,54.3c0.6,0,1.1-0.2,1.3-0.4s0.3-0.7,0.3-1.4v-8.6c0-0.7-0.1-1.2-0.3-1.4s-0.6-0.3-1.3-0.4v-0.5H17
	c1.7,0,2.9,0.3,3.8,0.8s1.3,1.5,1.3,2.8s-0.2,1.2-0.5,1.8s-0.9,1-1.7,1.3c-0.6,0.2-1.2,0.4-1.8,0.4s-1.5,0-2.6,0v3.6
	c0,0.7,0.1,1.2,0.4,1.4c0.2,0.2,0.7,0.3,1.4,0.4v0.5h-6.5v-0.5l0,0L10.7,54.3z M17.8,47.8c0.6-0.4,0.9-1.2,0.9-2.5s-0.1-1.6-0.5-2.2
	s-0.9-0.8-1.7-0.8s-0.7,0-0.8,0.1s-0.2,0.3-0.2,0.5v5.2c1.2,0,1.9-0.2,2.3-0.4L17.8,47.8z"/>
<path d="M34.8,43.3c1.3,1.3,2,3,2,5s-0.7,3.7-2,5s-2.9,1.9-4.9,1.9s-3.8-0.7-5.1-2.1c-1.2-1.3-1.8-2.9-1.8-4.7s0.6-3.7,1.9-5
	s3-2,5-2S33.5,42,34.8,43.3C34.8,43.3,34.8,43.3,34.8,43.3z M32.9,52c0.3-0.9,0.4-2.2,0.4-3.7s-0.3-3.6-0.9-4.7
	c-0.6-1-1.5-1.6-2.5-1.6s-2.5,0.9-3,2.6c-0.3,0.9-0.4,2.1-0.4,3.6s0.1,2.7,0.4,3.7c0.5,1.7,1.5,2.6,3,2.6s2.5-0.9,3-2.6l0,0V52z"/>
<path d="M37.8,54.3c0.6,0,1.1-0.2,1.3-0.4s0.3-0.7,0.3-1.4v-8.6c0-0.7-0.1-1.2-0.3-1.4s-0.7-0.3-1.3-0.4v-0.5h6.3
	c1.7,0,2.9,0.3,3.8,0.8c0.9,0.5,1.3,1.5,1.3,2.8S49,46.4,48.7,47s-0.9,1-1.7,1.3c-0.6,0.2-1.2,0.4-1.8,0.4s-1.5,0-2.6,0v3.6
	c0,0.7,0.1,1.2,0.4,1.4c0.2,0.2,0.7,0.3,1.3,0.4v0.5h-6.5v-0.5l0,0V54.3z M44.8,47.8c0.6-0.4,0.9-1.2,0.9-2.5s-0.2-1.6-0.5-2.2
	s-0.9-0.8-1.7-0.8s-0.7,0-0.8,0.1s-0.2,0.3-0.2,0.5v5.2c1.2,0,1.9-0.2,2.3-0.4V47.8z"/>
<path d="M53.5,54.3c0.6,0,1,0,1.2-0.2c0.4-0.2,0.5-0.6,0.5-1.1v-9.4c0-0.6-0.2-0.9-0.5-1.1c-0.2-0.1-0.6-0.2-1.2-0.2v-0.5h11v3.9H64
	c-0.2-1.2-0.7-2.1-1.2-2.5s-1.6-0.7-3.2-0.7s-0.9,0-1.1,0.2s-0.2,0.4-0.2,0.7v4.5c1,0,1.8-0.2,2.1-0.7c0.4-0.5,0.7-1.2,0.8-2.2h0.5
	v6.6h-0.5c-0.1-1-0.4-1.8-0.8-2.3s-1.1-0.7-2.2-0.7v4.5c0,0.6,0.2,1,0.5,1.2s0.9,0.2,1.6,0.2V55h-7v-0.5l0,0L53.5,54.3z"/>
<path d="M65.3,54.3c0.6,0,0.9,0,1.2-0.2c0.4-0.2,0.6-0.6,0.6-1.2v-9.4c0-0.6-0.2-1-0.6-1.2c-0.2-0.1-0.6-0.2-1.2-0.2v-0.5h6.8v0.5
	c-0.6,0-1,0-1.2,0.2c-0.4,0.2-0.6,0.6-0.6,1.2v9.4c0,0.5,0.2,0.9,0.5,1.1c0.3,0.2,0.8,0.3,1.4,0.3v0.5h-6.8v-0.5l0,0H65.3z"/>
<path d="M73.1,41.7h11.7v3.9h-0.5c-0.2-1.4-0.7-2.3-1.6-2.8c-0.5-0.3-1.2-0.4-2.2-0.5v10.2c0,0.7,0.1,1.2,0.4,1.4
	c0.2,0.2,0.8,0.3,1.6,0.3v0.5h-6.9v-0.5c0.8,0,1.3-0.1,1.5-0.4s0.4-0.7,0.4-1.4V42.2c-0.9,0-1.7,0.2-2.2,0.5
	c-0.9,0.5-1.5,1.5-1.6,2.8h-0.6v-3.9l0,0L73.1,41.7z"/>
</svg>
