<?xml version="1.0" encoding="UTF-8" standalone="yes"?>
<svg version="1.2" viewBox="0 0 322.5 322.5" xml:space="preserve" baseProfile="tiny-ps" xmlns="http://www.w3.org/2000/svg">
  <title>bimi-svg-tiny-12-ps</title>
  <g id="Vrstva_2">
    <rect x="-19.7" y="-19.7" class="st0" width="361.4" height="361.8" fill="#FFFFFF"/>
  </g>
  <g id="Vrstva_1">
    <polygon class="st1" points="77.9,89.5 33.1,167.3 77.9,244.5 167.5,244.5 212.4,167.3 199.9,146.2 183.7,146.2 195.6,167.3 &#xA;&#x9;&#x9;159.4,230.2 86,230.2 49.9,167.3 86,103.8 159.4,103.8 166.9,117.5 183.7,117.5 167.5,89.5 &#x9;" fill="#D09B3E"/>
    <polygon class="st2" points="244.1,42.8 154.5,42.8 131.4,82.7 148.2,82.7 162.6,57.1 236,57.1 272.1,120 236,183.5 162.6,183.5 &#xA;&#x9;&#x9;126.5,120 131.4,111.3 115.3,111.3 109.7,120 154.5,197.8 244.1,197.8 288.9,120 &#x9;" fill="#929BB8"/>
    <polygon class="st3" points="229.2,124.4 139.5,124.4 94.7,202.2 107.2,223.3 123.3,223.3 110.9,202.2 147.6,138.7 220.5,138.7 &#xA;&#x9;&#x9;257.2,202.2 220.5,265 147.6,265 140.2,251.4 123.3,251.4 139.5,279.4 229.2,279.4 274,202.2 &#x9;" fill="#091F61"/>
  </g>
</svg>