<?xml version="1.0" encoding="utf-8"?>
<!-- Generator: Adobe Illustrator 25.3.1, SVG Export Plug-In . SVG Version: 6.00 Build 0)  -->
<svg version="1.2" baseProfile="tiny-ps" id="Layer_1" xmlns="http://www.w3.org/2000/svg" xmlns:xlink="http://www.w3.org/1999/xlink"
	  viewBox="0 0 200 200" xml:space="preserve">
<title>Doordash</title>
<g id="Layer_2_1_">
	<g id="Layer_1-2">
		<path fill="#EF3B24" d="M184.9,70.8c-8.1-16.2-24.1-26.2-41.4-26.2H12.5c-2.5,0-4.5,2.2-4.5,4.8c0,1.3,0.5,2.5,1.3,3.3l28.6,30.4
			c2.5,2.7,5.9,4.2,9.5,4.2h92.5c5.6,0,10.6,4,11.8,9.7c1.5,6.8-2.5,13.6-8.9,15.1c-0.9,0.2-1.8,0.3-2.6,0.3H76.3
			c-2.5,0-4.5,2.2-4.5,4.8c0,1.3,0.5,2.5,1.3,3.3l28.6,30.4c2.5,2.7,5.9,4.2,9.5,4.2H140C177.5,155.4,205.9,112.9,184.9,70.8"/>
	</g>
</g>
</svg>
