<?xml version="1.0" encoding="utf-8" standalone="yes"?><!-- Generator: Adobe Illustrator 25.4.1, SVG Export Plug-In . SVG Version: 6.00 Build 0)  --><svg xmlns="http://www.w3.org/2000/svg" xmlns:xlink="http://www.w3.org/1999/xlink" version="1.2" baseProfile="tiny-ps" viewBox="0 0 1200 1200" xml:space="preserve"><title>knowde-logo</title><g><g><path fill="#22AFA4" d="M419.07,713.34L419.07,713.34V524.05l0,0c0-89.31,95.93-73.88,95.93-179.36    c0-63.59-51.82-115.41-115.41-115.41s-115.41,51.82-115.41,115.41c0,107.32,95.93,87.84,95.93,179.36l0,0v189.29l0,0    c0,89.31-95.93,73.88-95.93,179.36c0,63.59,51.82,115.41,115.41,115.41S515,956.29,515,892.7    C515.37,785.01,419.07,804.49,419.07,713.34z"></path><path fill="#22AFA4" d="M728.55,755.61l-24.99-24.99l0,0c-29.04-29.04-27.93-56.97-25.73-86.01c1.84-10.29,1.84-20.58,1.47-30.51    c0-5.51-0.37-11.39-1.47-16.91c-2.94-30.14-5.88-58.44,24.99-89.68l0,0l24.99-24.99c61.75-56.6,118.35,17.64,191.12-55.13    c45.21-45.21,45.21-118.35,0-163.56s-118.35-45.21-163.56,0c-75.71,75.71,5.88,130.11-58.81,194.43l0,0l-24.99,24.99    c-26.46,24.63-52.56,24.63-79.39,22.79c-38.22-10.29-81.23-0.37-111.73,29.77c-23.16,23.16-33.81,53.29-33.81,83.07    c-0.37,30.14,10.66,59.91,33.81,83.07c30.51,30.51,73.88,40.43,112.84,29.4c26.1-2.57,51.82-2.57,78.65,22.79l24.99,24.99l0,0    c63.22,63.22-15.8,120.19,58.81,194.43c45.21,45.21,118.35,45.21,163.56,0c45.21-45.21,45.21-118.35,0-163.56    C845.43,736.49,791.4,813.68,728.55,755.61z"></path></g></g></svg>