<?xml version="1.0" encoding="utf-8"?>
<svg version="1.2" baseProfile="tiny-ps" xmlns="http://www.w3.org/2000/svg" xmlns:xlink="http://www.w3.org/1999/xlink" viewBox="0 0 240 240" xml:space="preserve">
	<title>UW Credit Union</title>
	<rect fill="#FFFFFF" width="240" height="240"/>
	<path fill="#DB0032" d="M123.2,42.5h-81v80.7l0,0v0.3c0,44.8,36.3,81.1,81,81.1c44.8,0,81.1-36.3,81.1-81S168,42.5,123.2,42.5 L123.2,42.5z"/>
	<path fill="#FFFFFF" d="M127.7,104.6h-11.1v-26h47.9v61.3c-0.2,1.9,1.2,3.7,3.1,3.9l0,0h7.4v26.4h-32.4c-8.6,0-13.2-3.9-13.2-11.3
	c0-1.5,0.1-2.9,0.4-4.4h-0.4c0,0-5.9,17.8-29.1,17.8c-15.1,0-30.5-7.6-30.5-33.8v-33.9H58.9v-26h47.9v53.2c0,6.2,2.1,8.3,6.7,8.3
	c9.7,0,14.3-10.6,14.3-22.2v-13.3H127.7z"/>
</svg>