<?xml version="1.0" encoding="UTF-8" standalone="yes"?>
<svg version="1.2" baseProfile="tiny-ps" width="1000px" height="1000px" viewBox="0 0 1000 1000" xml:space="preserve" xmlns="http://www.w3.org/2000/svg">
  <title>bimi-svg-tiny-12-ps</title>
  <g>
    <path fill="none" d="M481.44,466.42h-22.06v27.64h22.06C500.27,494.06,500.16,466.42,481.44,466.42z"/>
    <path fill="none" d="M419.38,492.16c0.22-13.15-7.13-27.86-25.52-27.86s-25.96,14.82-25.63,27.97&#xA;&#x9;&#x9;c0.33,12.82,7.24,26.52,25.63,26.52S419.16,504.98,419.38,492.16z"/>
    <path fill="none" d="M683.83,466.2h-22.4v24.96h22.4c9.36,0,13.37-6.24,13.37-12.48S693.08,466.2,683.83,466.2z"/>
    <path fill="#C1152B" d="M221.12,427.05h0.02c1.1,0,2.13-0.42,2.92-1.19l20.06-19.55l-32.9,8.07c-1.49,0.36-2.02,2.21-0.95,3.31&#xA;&#x9;&#x9;l7.88,8.11C218.93,426.6,220,427.05,221.12,427.05z"/>
    <path fill="#006A9E" d="M197.96,495.07c-1.68,0.97-2.83,2.73-2.93,4.78c0,0.03,0,0.06,0,0.08c0,0.07-0.01,0.15-0.01,0.22&#xA;&#x9;&#x9;c0,0.04,0.01,0.08,0.01,0.12c0,0.1,0.01,0.21,0.02,0.31c0.01,0.09,0.01,0.18,0.02,0.27c0.01,0.04,0.01,0.09,0.02,0.13&#xA;&#x9;&#x9;c0.41,2.85,2.85,5.04,5.81,5.04c1.27,0,2.45-0.41,3.41-1.1l0.01,0.01l5.89-4.22l0.02-0.03c4.73-3.26,7.83-8.7,7.83-14.88&#xA;&#x9;&#x9;c0-4.6-1.73-8.8-4.57-11.99l-8.5,8.31c0.75,1.04,1.19,2.3,1.19,3.68c0,1.81-0.76,3.43-1.98,4.58&#xA;&#x9;&#x9;C202.67,492.16,200.08,493.37,197.96,495.07z"/>
    <path fill="#006A9E" d="M112.31,502.34l11.6-11.03c3.54-4.48,6.63-10.39,7.04-17.29c-2.88-1.65-6.52-1.56-9.7,1.06l-25.52,24.01&#xA;&#x9;&#x9;c-5.01,5.48-5.14,12.82-1.61,20.53c0.3,0.7,0.6,1.4,0.9,2.11c0.37,0.91,0.78,1.9,1.23,2.89c0.42,0.99,0.84,1.97,1.26,2.96&#xA;&#x9;&#x9;c0.08,0.19,0.16,0.37,0.25,0.55c0.09,0.23,0.18,0.45,0.3,0.68c1.52,2.87,5.07,3.96,7.94,2.45c0.45-0.24,0.85-0.53,1.21-0.86&#xA;&#x9;&#x9;c0.03-0.03,0.07-0.06,0.1-0.09c0.01,0,0.01-0.01,0.02-0.01c0.39-0.35,0.7-0.74,0.93-1.17c0.92-1.5,1.14-3.38,0.5-5.1l0,0&#xA;&#x9;&#x9;l-0.06-0.16c0,0,0-0.01,0-0.01l-0.14-0.39c-0.31-1.2-0.76-2.34-1.2-3.3c-0.01-0.01-0.01-0.02-0.01-0.03l-1.2-3.27&#xA;&#x9;&#x9;C104.5,510.56,107.68,506.36,112.31,502.34z"/>
    <path fill="#006A9E" d="M67.65,495.45c-6.9,7.02-10.13,15.86-13.3,24.84c-1.42,4.01-3,8.38,1.38,10.76&#xA;&#x9;&#x9;c5.98,3.25,8.36-2.93,10.06-7.15c4.28-10.58,7.37-15.97,15.8-22.28c2.62-1.96,7.99-4.45,10.85-7.18&#xA;&#x9;&#x9;c8.64-8.26,18.36-17.63,25.48-24.2c7.07-6.52,14.95-3.61,25.97,1.67c9.54,4.57,18.26,11.01,28.83,13.2&#xA;&#x9;&#x9;c4.99,1.04,4.36,4.33,4.07,7.82c-0.89,10.63-1.71,21.27-2.63,31.9c-0.02,0.2-0.03,0.41-0.04,0.6c-0.03,0.24-0.05,0.49-0.05,0.74&#xA;&#x9;&#x9;c0,3.24,2.63,5.87,5.87,5.87c2.98,0,5.44-2.22,5.82-5.1h0l0.02-0.16c0,0,0-0.01,0-0.01l3.96-29.1c0.67-4.94,1.22-9.85,5.49-13.93&#xA;&#x9;&#x9;l39.66-37.62c6.47-5.8,13.43-9.13,22.82-7.56c4.6,0.77,9.19-0.15,13.38-2.15c3.61-1.73,6.17-4.8,6.38-8.87&#xA;&#x9;&#x9;c0.26-5.04-4.69-3.94-7.39-5.48c-2.9-1.66-6.58-4.35-8.96-7.48c-3.13-4.11-6.56-6.54-10.2-7.76l-23.1,22.52&#xA;&#x9;&#x9;c-1.75,1.71-4.06,2.65-6.51,2.65h0c-2.54,0-4.91-1-6.68-2.82l-6.74-6.93c-4,2.18-8.18,3.7-12.88,3.7h-80.39&#xA;&#x9;&#x9;c-12.74-0.08-25.28-3.01-37.54-8.43l-0.01,0.01l-6.14-2.71l-0.01,0.03c-0.79-0.39-1.68-0.62-2.62-0.62c-3.25,0-5.89,2.64-5.89,5.89&#xA;&#x9;&#x9;c0,2.45,1.5,4.55,3.63,5.44l0,0l31.03,13.71c-3.68,5.37-6.15,10.8-7.84,16.65C84.97,470.68,78.57,484.34,67.65,495.45z"/>
    <path fill="#006A9E" d="M319.32,464.97c6.8,0,13.71,2.34,18.83,7.36l9.81-9.47c-8.02-7.91-18.05-11.92-28.64-11.92&#xA;&#x9;&#x9;c-28.19,0-41.46,20.73-41.34,41.12c0.11,20.28,12.37,40.23,41.34,40.23c11.26,0,21.62-3.68,29.64-11.59l-10.03-10.14&#xA;&#x9;&#x9;c-5.13,5.13-12.82,7.91-19.61,7.91c-19.28,0-26.75-13.48-26.86-26.41C292.35,479.01,300.49,464.97,319.32,464.97z"/>
    <path fill="#006A9E" d="M433.87,491.94c0.22-20.39-13.15-41.01-40-41.01c-26.97,0-40.12,20.62-40.12,41.12&#xA;&#x9;&#x9;c0,20.51,12.7,40.23,40.12,40.23S433.64,512.11,433.87,491.94z M368.23,492.27c-0.33-13.15,7.24-27.97,25.63-27.97&#xA;&#x9;&#x9;s25.74,14.71,25.52,27.86c-0.22,12.81-7.13,26.63-25.52,26.63S368.57,505.09,368.23,492.27z"/>
    <path fill="#006A9E" d="M481.44,507.54c38.22,0,38.11-55.16,0-55.16c-12.26,0-24.52,0.11-36.77,0.11v78.01h14.71v-22.96H481.44z&#xA;&#x9;&#x9; M459.38,466.42h22.06c18.72,0,18.83,27.64,0,27.64h-22.06V466.42z"/>
    <path fill="#006A9E" d="M711.91,478.35c0-13.48-9.69-25.74-28.08-25.85c-12.37,0-24.74-0.11-37.11-0.11v78.12h14.71v-26.08h14.15&#xA;&#x9;&#x9;l22.73,26.08h17.5v-1l-23.62-26.63C707.01,499.85,711.91,489.04,711.91,478.35z M683.83,491.16h-22.4V466.2h22.4&#xA;&#x9;&#x9;c9.25,0,13.37,6.24,13.37,12.48S693.19,491.16,683.83,491.16z"/>
    <path fill="#006A9E" d="M758.43,452.49l-34.99,78.01h15.93l6.69-14.71h40.79l6.57,14.71h16.05l-34.99-78.01H758.43z M751.96,502.08&#xA;&#x9;&#x9;l14.49-33.21l14.49,33.21H751.96z"/>
    <path fill="#006A9E" d="M850.58,464.97c6.8,0,13.71,2.34,18.83,7.36l9.81-9.47c-8.02-7.91-18.05-11.92-28.64-11.92&#xA;&#x9;&#x9;c-28.19,0-41.45,20.73-41.34,41.12c0.11,20.28,12.37,40.23,41.34,40.23c11.26,0,21.62-3.68,29.64-11.59l-10.03-10.14&#xA;&#x9;&#x9;c-5.13,5.13-12.81,7.91-19.61,7.91c-19.28,0-26.75-13.48-26.86-26.41C823.61,479.01,831.75,464.97,850.58,464.97z"/>
    <polygon fill="none" points="751.96,502.08 780.94,502.08 766.45,468.87 &#x9;"/>
    <polygon fill="#006A9E" points="559.11,530.5 559.11,492.1 531.92,452.49 514.42,452.49 514.42,453.16 544.4,493.65 544.4,530.5 &#x9;&#xA;&#x9;&#x9;"/>
    <polygon fill="#006A9E" points="612.96,530.5 612.96,465.86 637.7,465.86 637.7,452.49 572.5,452.49 563.88,465.86 598.25,465.86 &#xA;&#x9;&#x9;598.25,530.5 &#x9;"/>
    <polygon fill="#006A9E" points="951.2,452.94 951.2,452.49 932.92,452.49 903.28,485.48 903.28,452.49 888.57,452.49 888.57,530.5 &#xA;&#x9;&#x9;903.28,530.5 903.28,495.95 935.93,530.5 954.1,530.5 954.1,529.6 916.54,490.27 &#x9;"/>
  </g>
</svg>