<?xml version="1.0" encoding="utf-8"?>
<!-- Generator: Adobe Illustrator 25.2.3, SVG Export Plug-In . SVG Version: 6.00 Build 0)  -->
<svg version="1.2" baseProfile="tiny-ps" id="Layer_1" xmlns="http://www.w3.org/2000/svg" xmlns:xlink="http://www.w3.org/1999/xlink"
	 viewBox="0 0 514 380.5" xml:space="preserve">
	 <title>Colorado Mountain College</title>
<rect fill="#FFFFFF" width="514" height="380.5"/>
<path fill="#FFC845" d="M215.5,185l40.7-40l41.6,40.2c0,0,9.6-7.6,9.6-7.8c0,0.2,25,22.1,35.8,32.4c8.5-14.8,14.3-35.1,14.3-53.4
	c0.1-55.9-45.2-101.3-101.1-101.4s-101.3,45.2-101.4,101.1c0,18.9,5.3,37.5,15.3,53.6l35.3-32.7L215.5,185z"/>
<g>
	<path fill="#003DA5" d="M66.1,294.7C53,294.9,42.2,284.4,42,271.3c0-0.3,0-0.5,0-0.8v-0.1c0-13.4,10.1-24.3,24.5-24.3
		c8.9,0,14.2,2.9,18.5,7.2l-6.6,7.6c-3.6-3.3-7.3-5.3-12-5.3c-7.9,0-13.6,6.6-13.6,14.6v0.1c0,8.1,5.6,14.8,13.6,14.8
		c5.4,0,8.7-2.2,12.3-5.5l6.6,6.6C80.5,291.5,75.2,294.7,66.1,294.7L66.1,294.7z"/>
	<path fill="#003DA5" d="M118.4,294.7c-14.5,0-24.9-10.8-24.9-24.2v-0.1c0-13.4,10.5-24.3,25-24.3s24.9,10.8,24.9,24.2v0.1
		C143.4,283.7,132.9,294.7,118.4,294.7z M132.6,270.4c0-8-5.9-14.8-14.2-14.8s-14.1,6.6-14.1,14.6v0.1c0,8.1,5.9,14.8,14.2,14.8
		s14.1-6.6,14.1-14.6V270.4z"/>
	<path fill="#003DA5" d="M156,293.9v-47h10.3v37.6h23.4v9.4L156,293.9z"/>
	<path fill="#003DA5" d="M221,294.7c-14.5,0-24.9-10.8-24.9-24.2v-0.1c0-13.4,10.5-24.3,25-24.3s24.9,10.8,24.9,24.2v0.1
		C246,283.7,235.5,294.7,221,294.7z M235.2,270.4c0-8-5.9-14.8-14.2-14.8s-14.1,6.6-14.1,14.6v0.1c0,8.1,5.9,14.8,14.2,14.8
		s14.1-6.6,14.1-14.6L235.2,270.4z"/>
	<path fill="#003DA5" d="M287.1,293.9l-10.1-15h-8.1v15h-10.3v-47H280c11.1,0,17.7,5.8,17.7,15.5v0.1c0,7.6-4.1,12.4-10.1,14.6
		l11.5,16.8L287.1,293.9z M287.3,262.9c0-4.4-3.1-6.7-8.1-6.7h-10.3v13.5h10.5c5,0,7.9-2.7,7.9-6.6V262.9z"/>
	<path fill="#003DA5" d="M345.4,293.9l-4.3-10.5h-19.9l-4.3,10.5h-10.5l20.1-47.3h9.5l20.1,47.3H345.4z M331.2,259l-6.2,15.2h12.5
		L331.2,259z"/>
	<path fill="#003DA5" d="M385.1,293.9h-18.3v-47h18.3c14.8,0,25,10.1,25,23.4v0.1C410.1,283.6,399.9,293.9,385.1,293.9z
		 M399.3,270.4c0-8.3-5.7-14.2-14.2-14.2h-8v28.3h8c8.5,0,14.2-5.7,14.2-14V270.4z"/>
	<path fill="#003DA5" d="M445.4,294.7c-14.5,0-24.9-10.8-24.9-24.2v-0.1c0-13.4,10.5-24.3,25-24.3s24.9,10.8,24.9,24.2v0.1
		C470.5,283.7,459.9,294.7,445.4,294.7L445.4,294.7z M459.7,270.4c0-8-5.9-14.8-14.2-14.8s-14.1,6.6-14.1,14.6v0.1
		c0,8.1,5.9,14.8,14.2,14.8s14.1-6.6,14.1-14.6V270.4z"/>
	<path fill="#003DA5" d="M66.2,333.5V316l-7.6,11.5h-0.2L51,316.1v17.4h-5.8v-26.8h6.4l7,11.3l7-11.3H72v26.8L66.2,333.5z"/>
	<path fill="#003DA5" d="M91.8,334c-8.3,0-14.2-6.2-14.2-13.8v-0.1c0-7.6,6-13.9,14.3-13.9s14.2,6.2,14.2,13.8v0.1
		c0,7.7-6.2,13.9-13.9,13.9C92,334,91.9,334,91.8,334L91.8,334z M99.9,320.1c0.2-4.5-3.4-8.3-7.9-8.4c-0.1,0-0.2,0-0.3,0
		c-4.4,0-8,3.6-8,8c0,0.1,0,0.2,0,0.4v0.1c-0.2,4.5,3.4,8.3,7.9,8.4c0.1,0,0.2,0,0.3,0c4.4,0,8-3.5,8.1-7.9
		C99.9,320.5,99.9,320.3,99.9,320.1L99.9,320.1z"/>
	<path fill="#003DA5" d="M122.7,334c-7.2,0-11.6-4-11.6-11.9v-15.4h5.9v15.2c0,4.4,2.2,6.6,5.8,6.6s5.8-2.2,5.8-6.4v-15.4h5.9v15.1
		C134.5,330,129.9,334,122.7,334z"/>
	<path fill="#003DA5" d="M159.5,333.5l-13-17.1v17.1h-5.8v-26.8h5.4l12.6,16.5v-16.5h5.8v26.8H159.5z"/>
	<path fill="#003DA5" d="M183.3,312.1v21.4h-5.9v-21.4h-8.2v-5.4h22.2v5.4L183.3,312.1z"/>
	<path fill="#003DA5" d="M212.7,333.5l-2.4-6h-11.4l-2.5,6h-6l11.5-27h5.4l11.5,27H212.7z M204.6,313.6l-3.6,8.7h7.1L204.6,313.6z"
		/>
	<path fill="#003DA5" d="M223.5,333.5v-26.8h5.9v26.8H223.5z"/>
	<path fill="#003DA5" d="M255.1,333.5l-13-17.1v17.1h-5.8v-26.8h5.4l12.6,16.5v-16.5h5.8v26.8H255.1z"/>
	<path fill="#003DA5" d="M296,334c-7.5,0.1-13.6-5.8-13.8-13.3c0-0.2,0-0.3,0-0.5v-0.1c-0.1-7.5,5.9-13.7,13.4-13.9
		c0.2,0,0.4,0,0.6,0c4-0.2,7.8,1.3,10.6,4.1l-3.8,4.3c-1.8-1.9-4.3-2.9-6.9-3c-4.5,0-7.8,3.8-7.8,8.4v0.1c0,4.6,3.2,8.4,7.8,8.4
		c3.1,0,4.9-1.2,7-3.1l3.8,3.8C304.3,332.4,300.3,334.2,296,334L296,334z"/>
	<path fill="#003DA5" d="M324.2,334c-8.3,0-14.2-6.2-14.2-13.8v-0.1c0-7.6,6-13.9,14.3-13.9s14.2,6.2,14.2,13.8v0.1
		c0,7.7-6.2,13.9-13.9,13.9C324.5,334,324.4,334,324.2,334L324.2,334z M332.4,320.1c0.2-4.5-3.4-8.3-7.9-8.4c-0.1,0-0.2,0-0.3,0
		c-4.4,0-8,3.5-8.1,7.9c0,0.1,0,0.3,0,0.4v0.1c-0.2,4.5,3.4,8.3,7.9,8.4c0.1,0,0.2,0,0.3,0c4.4,0,8-3.5,8.1-7.9
		C332.4,320.5,332.4,320.3,332.4,320.1L332.4,320.1z"/>
	<path fill="#003DA5" d="M344,333.5v-26.8h5.9v21.5h13.4v5.4H344z"/>
	<path fill="#003DA5" d="M367.9,333.5v-26.8h5.9v21.5h13.4v5.4H367.9z"/>
	<path fill="#003DA5" d="M391.8,333.5v-26.8h20.2v5.3h-14.4v5.4h12.6v5.2h-12.6v5.6h14.6v5.2L391.8,333.5z"/>
	<path fill="#003DA5" d="M430.6,334c-8.4,0-14.1-5.9-14.1-13.8v-0.1c-0.1-7.6,6.1-13.8,13.7-13.9c0.1,0,0.3,0,0.4,0
		c4.8,0,7.7,1.3,10.5,3.7l-3.7,4.5c-1.9-1.8-4.4-2.8-7-2.7c-4.3,0-7.7,3.8-7.7,8.4v0.1c0,4.9,3.4,8.5,8.1,8.5c2,0.1,3.9-0.5,5.5-1.6
		v-3.8h-5.9v-5.1h11.7v11.7C438.9,332.5,434.8,334,430.6,334L430.6,334z"/>
	<path fill="#003DA5" d="M447.9,333.5v-26.8h20.2v5.3h-14.4v5.4h12.6v5.2h-12.6v5.6h14.6v5.2L447.9,333.5z"/>
	<path fill="#003DA5" d="M308.3,90.7l-16.3,0l-8.6-12c-1.4-2.1-6.1-6.5-8.1-8.1c-4.1-3.1-8.4-7.2-13.3-11.6
		c-7.1-6.3-13.8-18.2-17.6-25c0,0-4.4,2.4-1.6,11.8s5.8,10.5,5.8,10.5l-10.2-11.8c0,0-1.1,2.8,0.4,7.6s9.1,10.6,9.1,10.6l-10.2-8.9
		c0,0-0.3,4.9,2.2,7.3s8.2,6.4,8.2,6.4l-9.3-6.3c0,0-0.6,4.2,2.1,6.3c3.1,2.3,8.2,5.6,8.2,5.6l-8.2-4.2c0,0,0.4,3.6,2,4.8
		c4,3.1,6,3.8,6,3.8l-6.1-2.1c0,0-0.2,9.6,25.8,23l-25-0.2c0,0-1.3,5.4,3.1,5.8l3.8-0.9c0,0-4.3,1.7-5.2,2.1s0.4,4.6,2.9,4.2
		c1.3-0.2,2.5-0.7,3.6-1.2c0,0-4.3,2.4-4.3,2.5c-0.2,1.9,1,3.7,2.9,4.3c1,0.2,4.4-2.7,4.4-2.5s-3.5,2.2-2.9,3.9
		c0.3,0.9,2.6,2.2,3.5,1.7c1.6-1,3.1-2.2,4.4-3.6c-1.8,2.5-2.5,2.4-3.1,4c0.2,2.2,2.4,4.5,3.9,3c1.2-1,2.2-2.2,3.1-3.5
		c-0.8,1.1-1.4,2.3-1.9,3.6c-0.2,1.4,0.8,2.8,2.2,3c0.4,0.1,0.8,0,1.1-0.1c1.4-0.8,2.5-2,3.2-3.5c-1.5,2.8-0.4,6.1,2.9,6.1
		c0.1,0,10.1-10.3,14.1-13.5c0,0,14.1,9,21.6,11c17.2,4.6,24.1,3.8,32.9,3.5c1.1,0,2.2-0.2,3.1-0.8c0,0-5.2-2.8-7.3-4.1
		c1.3,0.6,5.5,2.5,8,3.8c1.8,0.9,5.4,0,5.4-0.3c0-0.1-7.5-4-7.5-4c0.5,0.3,7.4,3.2,9,3.7c2.5,0.8,6.2-0.9,6.2-0.9
		c-2.9-0.3-9.8-3.3-9.6-3.2l9.7,2.9c0,0,5.2,1.1,8.4-2.4c-2,0.1-7-1.1-7-1.1s13.4,0.7,19.4-6.6c0,0-18.3,0.7-27.5-2.4
		s-21.2-7.9-33.8-7.8c-8.4,0-7.8-2.4-6.7-3.9c0.5-0.7,1.2-1.2,2-1.4c2-0.7,6.2-1.9,6.4,1.8c0.6-1.6,0.8-3.3,0.8-5
		c-0.2-1.4-1.1-2-3.2-2.1C315.4,94,316.4,90.7,308.3,90.7L308.3,90.7z"/>
</g>
</svg>
