<?xml version="1.0" encoding="utf-8"?>
<!-- Generator: Adobe Illustrator 27.9.4, SVG Export Plug-In . SVG Version: 9.03 Build 54784)  -->
<svg version="1.2" baseProfile="tiny-ps" id="Calque_1"
	 xmlns="http://www.w3.org/2000/svg" xmlns:xlink="http://www.w3.org/1999/xlink" viewBox="0 0 192 192"
	  xml:space="preserve">
<title>PROMAN</title>
<rect y="0" fill="#FFFFFF" width="192" height="192"/>
<g id="LOGO">
	<path id="Sourire" fill="#F58220" d="M13.6,97.7c0.9,3.6,2.1,6.8,5.8,9c4.9,2.9,11.1,2.1,15.2-0.3c0,0,0.8-0.5,1,0.1
		c0.1,0.2-0.5,0.9-0.5,0.9c-3.9,3.8-13.6,5-19.1,1.7c-4.4-2.6-7.2-6.5-7.2-11c0,0,0-2.2,1.8-2.6C13.5,95,13.6,97.7,13.6,97.7"/>
	<g id="PROMAN">
		<path fill="#003680" d="M48.5,93.1h0.8c0.9,0,1.5,0.1,2,0.3c0.5,0.2,1.1,0.7,1.6,1.4c0.6,0.8,1.1,1.9,1.9,3.5l1.9,4.5h7.7L62,97.4
			c-0.9-2-1.5-3.2-2-3.9s-1.1-1.2-1.9-1.7c0.7-0.4,1.2-0.8,1.7-1.1s1.1-1.1,1.4-1.9c0.5-0.9,0.7-1.9,0.7-3.2c0-1.1-0.3-2.2-0.9-3.4
			c-0.6-1.2-1.4-2.2-2.8-3.1c-1.2-0.9-2.9-1.2-4.9-1.2h-12v25h7.2C48.5,102.9,48.5,93.1,48.5,93.1z M48.5,82.6H50
			c1.6,0,2.8,0.2,3.5,0.7c0.8,0.5,1.1,1.2,1.1,2.4s-0.3,1.9-1,2.3s-1.8,0.6-3.6,0.6h-1.5V82.6L48.5,82.6z"/>
		<polygon fill="#003680" points="99.8,88.4 106.3,96.8 106.9,96.8 113.4,88.4 113.4,102.9 120.7,102.9 120.7,77.8 114.2,77.8 
			106.7,87.2 99.4,77.8 92.9,77.8 92.9,102.9 99.8,102.9 		"/>
		<path fill="#003680" d="M132.2,97.8h10.4l1.9,5.1h7.4l-10.5-25h-7.9l-10.6,25h7.4L132.2,97.8L132.2,97.8z M137.5,84.3l3.5,9.2h-7
			L137.5,84.3z"/>
		<path fill="#003680" d="M37.2,90.5c0.7-0.8,1.1-1.5,1.4-2.4c0.3-0.9,0.5-1.7,0.5-2.7s-0.2-1.8-0.5-2.7c-0.3-0.9-0.8-1.7-1.4-2.4
			s-1.6-1.3-2.8-1.8c-1.1-0.5-2.5-0.8-4-0.8h-12V96c0.1,3.7,3.2,6.8,7.2,6.8l0,0V93h4.7c0.8,0,1.4-0.1,2-0.2c0.8-0.1,1.4-0.3,2-0.6
			C35.5,91.8,36.5,91.2,37.2,90.5 M31.3,87.2c-0.3,0.4-0.8,0.7-1.4,0.9c-0.6,0.2-1.4,0.2-2.6,0.2c-0.1,0-0.1,0-0.2,0h-1.5v-5.8h1.5
			c1.7,0,3,0.2,3.6,0.7c0.7,0.5,1,1.2,1,2.4C31.7,86.3,31.6,86.8,31.3,87.2"/>
		<polygon fill="#003680" points="180.1,77.8 180.1,102.9 173.7,102.9 161.3,89 161.3,102.9 154.2,102.9 154.2,77.8 160.6,77.8 
			173,91.7 173,77.8 		"/>
		<path fill="#003680" d="M70.1,101.1c2,1.1,4.4,1.7,7.3,1.7s5.3-0.6,7.3-1.7s3.4-2.7,4.5-4.6s1.5-4,1.5-6.3c0-1.7-0.3-3.2-0.9-4.8
			c-0.6-1.5-1.3-2.9-2.5-4c-1.1-1.1-2.5-2.1-4.1-2.7s-3.6-1.1-5.7-1.1c-2.9,0-5.4,0.6-7.4,1.7s-3.4,2.7-4.5,4.6
			c-1,1.9-1.4,4-1.4,6.1s0.5,4.2,1.4,6.1C66.7,98.4,68.1,99.9,70.1,101.1 M73,85.8c1.1-1.1,2.6-1.7,4.4-1.7c1,0,1.8,0.2,2.6,0.5
			c0.8,0.3,1.3,0.8,1.9,1.3c0.5,0.6,0.9,1.2,1.1,2c0.3,0.8,0.4,1.6,0.4,2.5c0,1.2-0.2,2.3-0.7,3.2c-0.5,1-1.1,1.7-2.1,2.2
			c-0.9,0.6-2,0.8-3.2,0.8c-1.9,0-3.3-0.6-4.4-1.7s-1.6-2.7-1.6-4.6C71.4,88.4,71.9,86.9,73,85.8"/>
	</g>
</g>
</svg>
