<?xml version="1.0" encoding="utf-8"?>
<!-- Generator: Adobe Illustrator 27.9.4, SVG Export Plug-In . SVG Version: 9.03 Build 54784)  -->
<svg version="1.2" baseProfile="tiny-ps" id="Calque_1"
	 xmlns="http://www.w3.org/2000/svg" xmlns:xlink="http://www.w3.org/1999/xlink" viewBox="0 0 192 192"
	 xml:space="preserve">
<title>WINSEARCH</title>
<rect x="0" y="0" fill="#FFFFFF" width="192" height="192"/>
<g>
	<g>
		<path fill="#BE087F" d="M111.4,79.3c3.4,4.2,9.2,6.9,17.7,8.3l2.5,0.4c8.3,1.4,12.4,2,12.4,5.5c0,3.3-3.6,4.5-8.4,4.5
			c-10,0-19.4-4.2-26.8-9.2l-4.5,16.1c7.6,5.4,19.2,9.2,31.1,9.2c14.1,0,28.3-6.2,28.3-23c0-10.2-7-16.8-20.7-19.4l-2.1-0.4
			c-6.8-1.4-13.6-1.6-13.6-5.4c0-3,3.7-4.3,8.5-4.3c8.2,0,14.8,3.1,19.1,5.6l7.8-14.8c-11.6-6.1-19.3-7-28-7c-5.6,0-10.6,1.1-14.7,3
			L111.4,79.3L111.4,79.3"/>
	</g>
</g>
<g>
	<path fill="#8F0D69" d="M136.9,84"/>
</g>
<g>
	<polygon fill="#8F0D69" points="111.6,79.6 120.2,48.3 120.6,48.1 111.9,79.9 	"/>
	<polygon fill="#900D69" points="120.4,48.3 120.8,48.1 112.1,80 111.8,79.7 	"/>
	<polygon fill="#910D6A" points="120.6,48.2 121,48 112.2,80.1 112,79.8 	"/>
	<polygon fill="#920D6A" points="120.8,48.2 121.2,48 112.4,80.2 112.1,79.9 	"/>
	<polygon fill="#930D6B" points="121,48.1 121.4,47.9 112.5,80.3 112.3,80 	"/>
	<polygon fill="#940C6B" points="121.2,48 121.6,47.9 112.7,80.4 112.4,80.1 	"/>
	<polygon fill="#950C6C" points="121.4,48 121.8,47.8 112.8,80.5 112.6,80.2 	"/>
	<polygon fill="#960C6C" points="121.6,47.9 122,47.8 113,80.6 112.7,80.4 	"/>
	<polygon fill="#970C6D" points="121.8,47.9 122.2,47.7 113.2,80.8 112.9,80.5 	"/>
	<polygon fill="#980C6D" points="122,47.8 122.4,47.7 113.3,80.9 113,80.6 	"/>
	<polygon fill="#990C6E" points="122.2,47.8 122.6,47.6 113.5,81 113.2,80.7 	"/>
	<polygon fill="#9A0C6E" points="122.4,47.7 122.8,47.5 113.6,81.1 113.3,80.8 	"/>
	<polygon fill="#9B0C6F" points="122.6,47.7 123,47.5 113.8,81.2 113.5,80.9 	"/>
	<polygon fill="#9C0C6F" points="122.8,47.6 123.2,47.4 113.9,81.3 113.6,81 	"/>
	<polygon fill="#9D0C6F" points="123,47.6 123.4,47.4 114.1,81.4 113.8,81.1 	"/>
	<polygon fill="#9E0B70" points="123.2,47.5 123.6,47.3 114.2,81.5 113.9,81.2 	"/>
	<polygon fill="#9F0B70" points="123.4,47.5 123.8,47.3 114.4,81.6 114.1,81.3 	"/>
	<polygon fill="#A00B71" points="123.6,47.4 124,47.2 114.5,81.7 114.2,81.4 	"/>
	<polygon fill="#A10B71" points="123.8,47.4 124.2,47.2 114.7,81.8 114.4,81.5 	"/>
	<polygon fill="#A20B72" points="124,47.3 124.4,47.1 114.8,81.9 114.6,81.6 	"/>
	<polygon fill="#A30B72" points="124.2,47.2 124.6,47.1 115,82 114.7,81.8 	"/>
	<polygon fill="#A40B73" points="124.4,47.2 124.8,47 115.1,82.1 114.9,81.9 	"/>
	<polygon fill="#A50B73" points="124.6,47.1 125,47 115.3,82.2 115,82 	"/>
	<polygon fill="#A60B74" points="124.8,47.1 125.2,46.9 115.5,82.3 115.2,82.1 	"/>
	<polygon fill="#A60B74" points="125,47 125.4,46.9 115.6,82.4 115.3,82.2 	"/>
	<polygon fill="#A70A74" points="125.2,47 125.6,46.8 115.8,82.5 115.5,82.3 	"/>
	<polygon fill="#A80A75" points="125.4,46.9 125.8,46.7 115.9,82.6 115.6,82.4 	"/>
	<polygon fill="#A90A75" points="125.6,46.9 126,46.7 116.1,82.7 115.8,82.5 	"/>
	<polygon fill="#AA0A76" points="125.8,46.8 126.2,46.6 116.2,82.8 115.9,82.6 	"/>
	<polygon fill="#AB0A76" points="126,46.8 126.4,46.6 116.4,82.9 116.1,82.7 	"/>
	<polygon fill="#AC0A77" points="126.2,46.7 126.6,46.5 116.5,83 116.2,82.8 	"/>
	<polygon fill="#AD0A77" points="126.4,46.7 126.8,46.5 116.7,83.2 116.4,82.9 	"/>
	<polygon fill="#AE0A78" points="126.6,46.6 127,46.4 116.8,83.3 116.5,83.1 	"/>
	<polygon fill="#AF0A78" points="126.8,46.6 127.2,46.4 117,83.4 116.7,83.2 	"/>
	<polygon fill="#B00979" points="127,46.5 127.4,46.3 117.1,83.5 116.8,83.3 	"/>
	<polygon fill="#B10979" points="127.2,46.4 127.6,46.3 117.3,83.6 117,83.4 	"/>
	<polygon fill="#B20979" points="127.4,46.4 127.8,46.2 117.5,83.7 117.2,83.5 	"/>
	<polygon fill="#B3097A" points="127.6,46.3 128,46.2 117.6,83.8 117.3,83.6 	"/>
	<polygon fill="#B4097A" points="127.8,46.3 128.2,46.1 117.8,83.9 117.5,83.7 	"/>
	<polygon fill="#B5097B" points="128,46.2 128.4,46.1 117.9,84 117.6,83.8 	"/>
	<polygon fill="#B6097B" points="128.2,46.2 128.6,46 118.1,84.1 117.8,83.9 	"/>
	<polygon fill="#B7097C" points="128.4,46.1 128.8,45.9 118.2,84.2 117.9,84 	"/>
	<polygon fill="#B8097C" points="128.6,46.1 129,45.9 118.4,84.3 118.1,84.1 	"/>
	<polygon fill="#B9097D" points="128.8,46 129.2,45.8 118.5,84.4 118.2,84.2 	"/>
	<polygon fill="#BA087D" points="129,46 129.4,45.8 118.7,84.5 118.4,84.3 	"/>
	<polygon fill="#BB087E" points="129.2,45.9 129.6,45.7 118.8,84.6 118.5,84.5 	"/>
	<polygon fill="#BC087E" points="129.4,45.9 129.8,45.7 119,84.7 118.7,84.6 	"/>
	<polygon fill="#BD087F" points="129.6,45.8 130,45.6 119.1,84.8 118.8,84.7 	"/>
	<polygon fill="#BE087F" points="119,84.8 129.8,45.8 130.2,45.6 119.3,84.9 	"/>
</g>
<g>
	<polygon fill="#BE087F" points="112.1,109.3 116.6,93.3 116.9,93.4 112.4,109.4 	"/>
	<polygon fill="#BD087F" points="112.2,109.3 112,109.2 116.5,93.2 116.7,93.3 	"/>
	<polygon fill="#BC087E" points="112.1,109.2 111.8,109.1 116.3,93.1 116.6,93.3 	"/>
	<polygon fill="#BB087E" points="111.9,109.1 111.7,109 116.1,93 116.4,93.2 	"/>
	<polygon fill="#BA087D" points="111.8,109 111.5,108.9 116,92.9 116.2,93.1 	"/>
	<polygon fill="#B9097D" points="111.6,109 111.3,108.8 115.8,92.9 116.1,93 	"/>
	<polygon fill="#B8097C" points="111.4,108.9 111.2,108.7 115.7,92.8 115.9,92.9 	"/>
	<polygon fill="#B7097C" points="111.3,108.8 111,108.7 115.5,92.7 115.8,92.8 	"/>
	<polygon fill="#B6097B" points="111.1,108.7 110.9,108.6 115.3,92.6 115.6,92.7 	"/>
	<polygon fill="#B5097B" points="110.9,108.6 110.7,108.5 115.2,92.5 115.4,92.6 	"/>
	<polygon fill="#B4097A" points="110.8,108.5 110.5,108.4 115,92.4 115.3,92.5 	"/>
	<polygon fill="#B3097A" points="110.6,108.4 110.4,108.3 114.9,92.3 115.1,92.4 	"/>
	<polygon fill="#B20979" points="110.5,108.3 110.2,108.2 114.7,92.2 115,92.3 	"/>
	<polygon fill="#B10979" points="110.3,108.3 110.1,108.1 114.5,92.1 114.8,92.3 	"/>
	<polygon fill="#B00979" points="110.1,108.2 109.9,108 114.4,92 114.6,92.2 	"/>
	<polygon fill="#AF0A78" points="110,108.1 109.7,107.9 114.2,91.9 114.5,92.1 	"/>
	<polygon fill="#AE0A78" points="109.8,108 109.6,107.9 114.1,91.8 114.3,92 	"/>
	<polygon fill="#AD0A77" points="109.7,107.9 109.4,107.8 113.9,91.8 114.2,91.9 	"/>
	<polygon fill="#AC0A77" points="109.5,107.8 109.2,107.7 113.7,91.7 114,91.8 	"/>
	<polygon fill="#AB0A76" points="109.3,107.7 109.1,107.6 113.6,91.6 113.8,91.7 	"/>
	<polygon fill="#AA0A76" points="109.2,107.6 108.9,107.5 113.4,91.5 113.7,91.6 	"/>
	<polygon fill="#A90A75" points="109,107.6 108.8,107.4 113.3,91.4 113.5,91.5 	"/>
	<polygon fill="#A80A75" points="108.9,107.5 108.6,107.3 113.1,91.3 113.4,91.4 	"/>
	<polygon fill="#A70A74" points="108.7,107.4 108.4,107.2 112.9,91.2 113.2,91.3 	"/>
	<polygon fill="#A70A74" points="108.5,107.3 108.3,107.1 112.8,91.1 113,91.3 	"/>
	<polygon fill="#A60B74" points="108.4,107.2 108.1,107 112.6,91 112.9,91.2 	"/>
	<polygon fill="#A50B73" points="108.2,107.1 108,107 112.5,90.9 112.7,91.1 	"/>
	<polygon fill="#A40B73" points="108.1,107 107.8,106.9 112.3,90.8 112.6,91 	"/>
	<polygon fill="#A30B72" points="107.9,106.9 107.6,106.8 112.1,90.7 112.4,90.9 	"/>
	<polygon fill="#A20B72" points="107.7,106.9 107.5,106.7 112,90.7 112.2,90.8 	"/>
	<polygon fill="#A10B71" points="107.6,106.8 107.3,106.6 111.8,90.6 112.1,90.7 	"/>
	<polygon fill="#A00B71" points="107.4,106.7 107.2,106.5 111.7,90.5 111.9,90.6 	"/>
	<polygon fill="#9F0B70" points="107.2,106.6 107,106.4 111.5,90.4 111.8,90.5 	"/>
	<polygon fill="#9E0B70" points="107.1,106.5 106.8,106.3 111.3,90.3 111.6,90.4 	"/>
	<polygon fill="#9D0C6F" points="106.9,106.4 106.7,106.2 111.2,90.2 111.4,90.3 	"/>
	<polygon fill="#9C0C6F" points="106.8,106.3 106.5,106.2 111,90.1 111.3,90.3 	"/>
	<polygon fill="#9B0C6F" points="106.6,106.2 106.4,106.1 110.9,90 111.1,90.2 	"/>
	<polygon fill="#9A0C6E" points="106.4,106.2 106.2,106 110.7,89.9 111,90.1 	"/>
	<polygon fill="#990C6E" points="106.3,106.1 106,105.9 110.5,89.8 110.8,90 	"/>
	<polygon fill="#980C6D" points="106.1,106 105.9,105.8 110.4,89.7 110.6,89.9 	"/>
	<polygon fill="#970C6D" points="106,105.9 105.7,105.7 110.2,89.6 110.5,89.8 	"/>
	<polygon fill="#960C6C" points="105.8,105.8 105.6,105.6 110.1,89.6 110.3,89.7 	"/>
	<polygon fill="#950C6C" points="105.6,105.7 105.4,105.5 109.9,89.5 110.2,89.6 	"/>
	<polygon fill="#940C6B" points="105.5,105.6 105.2,105.4 109.7,89.4 110,89.5 	"/>
	<polygon fill="#930D6B" points="105.3,105.5 105.1,105.4 109.6,89.3 109.9,89.4 	"/>
	<polygon fill="#920D6A" points="105.2,105.5 104.9,105.3 109.4,89.2 109.7,89.3 	"/>
	<polygon fill="#910D6A" points="105,105.4 104.8,105.2 109.3,89.1 109.5,89.2 	"/>
	<polygon fill="#900D69" points="104.8,105.3 104.6,105.1 109.1,89 109.4,89.2 	"/>
	<polygon fill="#8F0D69" points="104.4,105 109,88.9 109.2,89.1 104.7,105.2 	"/>
</g>
<g>
	<g>
		<path fill="#1D1D1B" d="M44,134.5l4-11h2.1l-4.9,13.1h-2.5l-3.9-10.9l-3.8,11h-2.4l-4.9-13.1h2.2l4,11l3.9-11H40L44,134.5z"/>
		<path fill="#1D1D1B" d="M72.4,128.4v8.2h-2.1v-7.5c0-2.5-1.4-4-3.9-4c-2.2,0-4.1,1.5-4.1,4.1v7.4h-2.1v-13.1h2.1v1.8
			c1.1-1.5,2.8-2.1,4.4-2.1C70.2,123.2,72.4,125.4,72.4,128.4z"/>
		<path fill="#1D1D1B" d="M86.2,126.9c-1.1-0.6-2.8-1.1-4.3-1.1c-1.4,0-2.1,0.5-2.1,1.3s1,1,2.2,1.2l1.3,0.2c3,0.5,4.5,1.7,4.5,4.1
			c0,2.8-2.3,4.5-6.2,4.5c-1.8,0-4.2-0.3-6-1.6l1.4-2.8c1.2,0.8,2.5,1.4,4.5,1.4c1.6,0,2.5-0.5,2.5-1.3c0-0.7-0.7-1-2.2-1.3
			l-1.1-0.1c-3.1-0.4-4.6-1.8-4.6-4.1c0-2.8,2.1-4.4,5.7-4.4c2.1,0,3.9,0.4,5.6,1.3L86.2,126.9z"/>
		<path fill="#1D1D1B" d="M103.3,129.9c0,0.4,0,1-0.1,1.3h-9.6c0.4,1.9,1.7,2.8,3.5,2.8c1.2,0,2.4-0.5,3.4-1.3l2.1,2.3
			c-1.5,1.4-3.5,2-5.8,2c-4.2,0-7-2.8-7-7s2.8-7.1,6.9-7.1C100.6,122.8,103.3,125.7,103.3,129.9z M93.6,128.6h6
			c-0.3-1.7-1.4-2.7-3-2.7C94.9,125.9,94,127,93.6,128.6z"/>
		<path fill="#1D1D1B" d="M119.5,136.7H116v-1.4c-0.9,1.1-2.2,1.8-4.1,1.8c-3.7,0-6.6-3-6.6-7.1c0-4.1,2.8-7.1,6.6-7.1
			c1.8,0,3.2,0.8,4.1,1.8v-1.4h3.6L119.5,136.7L119.5,136.7z M109.1,129.9c0,2.1,1.4,3.7,3.5,3.7s3.5-1.6,3.5-3.7
			c0-2.1-1.4-3.7-3.5-3.7S109.1,127.9,109.1,129.9z"/>
		<path fill="#1D1D1B" d="M132.6,123.1l-0.6,3.7c-0.6-0.3-1.4-0.4-2.2-0.4c-1.6,0-2.8,1-2.8,3v7.3h-3.7v-13.5h3.5v1.4
			c0.9-1.3,2.1-1.8,3.9-1.8C131.4,122.8,132,122.9,132.6,123.1z"/>
		<path fill="#1D1D1B" d="M146.4,125.4l-2.6,2.2c-0.8-0.9-1.6-1.4-2.9-1.4c-1.8,0-3.4,1.4-3.4,3.7c0,2.3,1.4,3.7,3.4,3.7
			c1.2,0,2.1-0.6,3-1.4l2.6,2.2c-1.3,1.6-3.2,2.5-5.4,2.5c-4.3,0-7.1-3-7.1-7.1c0-4.2,2.9-7.1,7.1-7.1
			C143.2,122.8,145,123.7,146.4,125.4z"/>
		<path fill="#1D1D1B" d="M152.6,124.7c1-1.4,2.4-1.8,3.9-1.8c3.1,0,5.2,2.1,5.2,5.2v8.6H158v-7.4c0-1.9-1-3-2.6-3
			c-1.5,0-2.9,1-2.9,3v7.4h-3.7v-20.1h3.7L152.6,124.7L152.6,124.7z"/>
	</g>
	<g>
		<g>
			<path fill="#BE087F" d="M36.1,142h-2.3v6.1h-1.4V142H30v-1.4h6.1V142z"/>
			<path fill="#BE087F" d="M38.4,143.3c0.3-0.6,1-0.7,1.4-0.7c1.2,0,2,0.8,2,2v3.3h-1.4v-2.8c0-0.8-0.4-1.2-1-1.2s-1.1,0.4-1.1,1.2
				v2.8H37v-7.6h1.4V143.3z"/>
			<path fill="#BE087F" d="M48,145.4c0,0.1,0,0.3,0,0.5h-3.6c0.1,0.8,0.7,1.1,1.4,1.1c0.5,0,1-0.2,1.3-0.5l0.8,0.9
				c-0.6,0.6-1.4,0.8-2.2,0.8c-1.5,0-2.7-1.1-2.7-2.7s1.1-2.8,2.6-2.8C47,142.6,48,143.8,48,145.4z M44.4,144.9h2.3
				c-0.1-0.7-0.6-1-1.2-1C44.9,143.9,44.5,144.3,44.4,144.9z"/>
			<path fill="#BE087F" d="M53.2,143.3c0.3-0.6,1-0.7,1.4-0.7c1.2,0,2,0.8,2,2v3.3h-1.4v-2.8c0-0.8-0.4-1.2-1-1.2s-1.1,0.4-1.1,1.2
				v2.8h-1.4v-7.6h1.4L53.2,143.3L53.2,143.3z"/>
			<path fill="#BE087F" d="M62.9,145.7c0,1.6-1.2,2.3-2.4,2.3c-1.3,0-2.4-0.7-2.4-2.3v-3h1.4v2.8c0,0.8,0.5,1.2,1.1,1.2
				s1.1-0.3,1.1-1.2v-2.8H63L62.9,145.7L62.9,145.7z"/>
			<path fill="#BE087F" d="M72.5,144.7v3.3h-1.4v-2.8c0-0.8-0.4-1.2-1-1.2s-1.1,0.4-1.1,1.2v2.8h-1.4v-2.8c0-0.8-0.4-1.2-1-1.2
				s-1.1,0.4-1.1,1.2v2.8h-1.4v-5.2h1.4v0.6c0.3-0.6,1-0.8,1.4-0.8c0.8,0,1.4,0.3,1.6,0.9c0.4-0.7,1.1-0.9,1.7-0.9
				C71.7,142.6,72.5,143.5,72.5,144.7z"/>
			<path fill="#BE087F" d="M79,148h-1.4v-0.6c-0.3,0.4-0.8,0.7-1.5,0.7c-1.4,0-2.5-1.2-2.5-2.7s1.1-2.7,2.5-2.7
				c0.7,0,1.3,0.3,1.5,0.8V143H79V148z M75,145.4c0,0.8,0.6,1.4,1.4,1.4s1.4-0.6,1.4-1.4c0-0.8-0.6-1.4-1.4-1.4
				C75.6,143.9,75,144.6,75,145.4z"/>
			<path fill="#BE087F" d="M85.4,144.7v3.3H84v-2.8c0-0.8-0.4-1.2-1-1.2s-1.1,0.4-1.1,1.2v2.8h-1.4v-5.2h1.4v0.6
				c0.3-0.6,1-0.8,1.4-0.8C84.5,142.6,85.4,143.5,85.4,144.7z"/>
			<path fill="#BE087F" d="M90.7,148h-1.4v-7.6h1.4V148L90.7,148z"/>
			<path fill="#BE087F" d="M93.8,141.1c0,0.5-0.4,0.9-0.9,0.9s-0.9-0.4-0.9-0.9s0.4-0.9,0.9-0.9C93.4,140.2,93.8,140.6,93.8,141.1z
				 M93.6,148h-1.4v-5.2h1.4V148z"/>
			<path fill="#BE087F" d="M99.8,144.7v3.3h-1.4v-2.8c0-0.8-0.4-1.2-1-1.2s-1.1,0.4-1.1,1.2v2.8h-1.4v-5.2h1.4v0.6
				c0.3-0.6,1-0.8,1.4-0.8C99.1,142.6,99.8,143.5,99.8,144.7z"/>
			<path fill="#BE087F" d="M102.6,144.7h0.5l1.4-1.8h1.6l-2,2.4l2,2.8h-1.6l-1.4-2.1h-0.5v2.1h-1.4v-7.6h1.4V144.7z"/>
			<path fill="#BE087F" d="M108.9,147.1c0,0.6-0.5,1-1,1c-0.6,0-1-0.5-1-1s0.5-1,1-1C108.4,146,108.9,146.5,108.9,147.1z"/>
		</g>
	</g>
	<g>
		<path fill="#BE087F" d="M54.5,122.5c-0.3-0.1-0.6-0.2-0.7-0.2c-0.1,0-0.2,0.1-0.2,0.1c-0.1,0-0.8,0.3-0.9,0.3c0,0-0.1-0.1-0.1,0.3
			c-0.1,0.3-0.3,2.1-0.3,2.5s0,0.3,0.1,0.4s0.3,0.3,0.4,0.3c0.1,0,0.3,0.1,0.3,0.1s-0.1,0.2-0.1,0.4c0,0,0,0.1,0.1,0.1
			c0,0-0.1,0.6-0.1,1c0,0.2,0,0.3-0.1,0.3c0,0.1-0.1,0.1-0.1,0.1l0,0l0,0l0,0c0,0.1,0.1,0.1,0.1,0.1l0,0c0,0,0.1,0.1,0.2,0.1
			c-0.1,0.5-0.1,1-0.1,1.4c0,0.6,0.1,2,0.1,2.3s0.1,2.2,0,2.7c0,0.1-0.1,0.5,0,0.6l0,0c0,0,0,0,0,0.1c0,0-0.1,0-0.1,0.1
			s0.1,0.1,0.1,0.1v0.1c0,0.1-0.1,0.2-0.1,0.3h0.1h0.1c0,0-0.1,0-0.1,0.1c-0.1,0.1-0.3,0.3-0.5,0.5c-0.1,0.1-0.4,0.2-0.6,0.3
			c-0.2,0.1-0.1,0.2-0.1,0.2c0.3,0.1,0.8,0.1,1,0.1c0.3,0,0.5-0.2,0.6-0.2c0.1-0.1,0.7,0,0.7,0s0-0.1,0-0.2l0,0c0-0.1,0-0.1,0-0.3
			c0-0.1,0-0.2-0.1-0.3l0,0c0-0.1-0.1-0.3-0.1-0.3c0-0.1,0.1-0.1,0.1-0.2c0-0.1,0-0.7,0.1-1c0-0.2,0-0.6,0-0.8c0-0.3,0-0.8-0.1-1.1
			c0-0.2,0.1-1.3,0.1-1.8l0,0c0.1-0.3,0.1-0.6,0.1-1c0-0.1,0-0.1,0-0.2l0,0l0,0l0,0c0.1,0,0.7,1.8,0.8,2.2c0.1,0.3,0.3,2.4,0.3,2.8
			c0,0.2,0,0.1,0,0.2s0,0.2,0,0.3s0,0.1,0,0.1v0.1c0,0-0.1,0-0.1,0.1s0.1,0.1,0.1,0.1v0.1c0,0-0.1,0.3,0,0.3s0.1,0.1,0.2,0.1
			c0,0.1,0,0.1-0.1,0.3c-0.1,0.1-0.1,0.3-0.1,0.3v0.1v0.1v0.1c0,0.1,0.1,0.1,0.2,0.1s0.2,0,0.3,0c0.2,0,0.4,0,0.6-0.1l0,0V137v-0.1
			c0-0.1,0-0.1,0-0.1c0-0.1-0.2-0.3-0.2-0.4c0-0.1-0.1-0.1-0.1-0.2c0.1,0,0.2,0,0.3,0c0,0,0.1-0.4,0-0.5c0-0.1,0-0.1,0-0.1
			c0-0.1,0-0.1,0-0.1c0-0.1,0-0.1,0-0.1c0-0.1,0-0.3,0-0.4c0-0.3,0.1-0.3,0.1-0.6c0.1-1-0.2-2.6-0.3-2.8c0-0.3,0-1.3,0.1-2.1
			c0-0.3,0-0.6,0-0.8l0.1-0.1c0-0.1,0.1-0.3,0.1-0.3l0.1-0.1c0,0,0,0.1,0.1,0.1l0,0l0,0l0,0l0,0l0,0v-0.1c0.1-0.2,0.1-0.6,0.2-0.7
			c0.1-0.2,0.2-0.7,0.2-0.8s0-0.3,0-0.3c0-0.1,0.1-0.1,0.1-0.2c0,0,0.1-0.4,0-0.6c0-0.1-0.1-1.4-0.1-1.5c-0.1-0.3-0.2-1.4-0.3-1.4
			c-0.1-0.1-0.1-0.1-0.1-0.1s-1-0.4-1.4-0.3C55,122.4,54.7,122.6,54.5,122.5z M56.2,125.7c0-0.1,0-0.3,0.1-0.4v-0.1c0,0,0,0,0,0.1
			s0,0.1,0,0.1c0,0.1,0,0.1,0,0.1s0,0.1,0.1,0.1c0,0,0,0,0,0.1l0,0v0.1v0.1c0,0,0,0,0,0.1v0.1c0,0.1,0,0.2,0,0.3v0.1v0.1l-0.1-0.1
			c-0.1-0.1-0.1-0.2-0.1-0.3C56.2,126,56.2,125.8,56.2,125.7z"/>
		<path fill="#BE087F" d="M55.4,120.9c0.1-0.1,0-0.3-0.1-0.3h-0.1l0,0c0.1-0.2,0-0.4,0-0.4c-0.1-0.5-0.5-0.6-0.8-0.7
			c-0.3,0-0.9-0.1-0.9,0.3c0,0.2-0.1,0.6,0,0.8l0,0l0,0c-0.1,0-0.1,0.2-0.1,0.3c0,0.1,0,0.1,0.1,0.1c0.1,0.1,0.1,0.1,0.1,0.1
			c0.1,0.2,0.1,0.3,0.1,0.4c0,0,0.1,0.3,0.5,0.4c0,0,0.1,0,0.3,0c0.2-0.1,0.3-0.3,0.4-0.5c0.1-0.1,0.1-0.3,0.1-0.3
			C55.3,121.2,55.4,120.9,55.4,120.9z"/>
	</g>
</g>
<g>
	<path fill="#BE087F" d="M102.8,112.7H82.2l-7.6-36.2h-0.2l-7,36.3h-21L27.6,43.7h20.9l7.2,36.5l9.8-36.5h18.7l7,37.7h0.2l9.8-37.7
		h21.1L102.8,112.7z"/>
</g>
<g>
	<polygon fill="#8F0D69" points="55.7,80.1 46.3,112.7 46,111.6 55.5,79.1 	"/>
	<polygon fill="#900D69" points="46.5,111.7 46,111.3 55.2,79.5 55.6,79.8 	"/>
	<polygon fill="#910D6A" points="46.6,110.7 45.9,111 54.9,79.8 55.5,79.4 	"/>
	<polygon fill="#920D6A" points="46.7,109.7 45.8,110.7 54.6,80.2 55.4,79 	"/>
	<polygon fill="#930D6B" points="46.8,108.6 45.7,110.4 54.3,80.6 55.4,78.7 	"/>
	<polygon fill="#940C6B" points="47,107.6 45.7,110.1 54.1,80.9 55.3,78.3 	"/>
	<polygon fill="#950C6C" points="47.1,106.6 45.6,109.8 53.8,81.3 55.2,77.9 	"/>
	<polygon fill="#960C6C" points="47.2,105.6 45.5,109.5 53.5,81.6 55.1,77.6 	"/>
	<polygon fill="#970C6D" points="47.3,104.5 45.4,109.3 53.2,82 55.1,77.2 	"/>
	<polygon fill="#980C6D" points="47.4,103.5 45.4,109 52.9,82.4 55,76.8 	"/>
	<polygon fill="#990C6E" points="47.6,102.5 45.3,108.7 52.7,82.7 54.9,76.5 	"/>
	<polygon fill="#9A0C6E" points="47.7,101.5 45.2,108.4 52.4,83.1 54.8,76.1 	"/>
	<polygon fill="#9B0C6F" points="47.8,100.4 45.1,108.1 52.1,83.5 54.8,75.7 	"/>
	<polygon fill="#9C0C6F" points="47.9,99.4 45.1,107.8 51.8,83.8 54.7,75.4 	"/>
	<polygon fill="#9D0C6F" points="48.1,98.4 45,107.5 51.6,84.2 54.6,75 	"/>
	<polygon fill="#9E0B70" points="48.2,97.4 44.9,107.2 51.3,84.5 54.5,74.6 	"/>
	<polygon fill="#9F0B70" points="48.3,96.3 44.8,106.9 51,84.9 54.5,74.2 	"/>
	<polygon fill="#A00B71" points="48.4,95.3 44.7,106.7 50.7,85.3 54.4,73.9 	"/>
	<polygon fill="#A10B71" points="48.6,94.3 44.7,106.4 50.4,85.6 54.3,73.5 	"/>
	<polygon fill="#A20B72" points="48.7,93.3 44.6,106.1 50.2,86 54.2,73.1 	"/>
	<polygon fill="#A30B72" points="48.8,92.2 44.5,105.8 49.9,86.3 54.2,72.8 	"/>
	<polygon fill="#A40B73" points="48.9,91.2 44.4,105.5 49.6,86.7 54.1,72.4 	"/>
	<polygon fill="#A50B73" points="49.1,90.2 44.4,105.2 49.3,87.1 54,72 	"/>
	<polygon fill="#A60B74" points="49.2,89.2 44.3,104.9 49,87.4 53.9,71.7 	"/>
	<polygon fill="#A60B74" points="49.3,88.1 44.2,104.6 48.8,87.8 53.9,71.3 	"/>
	<polygon fill="#A70A74" points="49.4,87.1 44.1,104.3 48.5,88.2 53.8,70.9 	"/>
	<polygon fill="#A80A75" points="49.5,86.1 44.1,104.1 48.2,88.5 53.7,70.6 	"/>
	<polygon fill="#A90A75" points="49.7,85.1 44,103.8 47.9,88.9 53.6,70.2 	"/>
	<polygon fill="#AA0A76" points="49.8,84 43.9,103.5 47.7,89.2 53.6,69.8 	"/>
	<polygon fill="#AB0A76" points="49.9,83 43.8,103.2 47.4,89.6 53.5,69.5 	"/>
	<polygon fill="#AC0A77" points="50,82 43.8,102.9 47.1,90 53.4,69.1 	"/>
	<polygon fill="#AD0A77" points="50.2,81 43.7,102.6 46.8,90.3 53.3,68.7 	"/>
	<polygon fill="#AE0A78" points="50.3,79.9 43.6,102.3 46.5,90.7 53.3,68.4 	"/>
	<polygon fill="#AF0A78" points="50.4,78.9 43.5,102 46.3,91.1 53.2,68 	"/>
	<polygon fill="#B00979" points="50.5,77.9 43.5,101.8 46,91.4 53.1,67.6 	"/>
	<polygon fill="#B10979" points="50.7,76.9 43.4,101.5 45.7,91.8 53,67.2 	"/>
	<polygon fill="#B20979" points="50.8,75.8 43.3,101.2 45.4,92.1 53,66.9 	"/>
	<polygon fill="#B3097A" points="50.9,74.8 43.2,100.9 45.1,92.5 52.9,66.5 	"/>
	<polygon fill="#B4097A" points="51,73.8 43.1,100.6 44.9,92.9 52.8,66.1 	"/>
	<polygon fill="#B5097B" points="51.2,72.8 43.1,100.3 44.6,93.2 52.7,65.8 	"/>
	<polygon fill="#B6097B" points="51.3,71.7 43,100 44.3,93.6 52.7,65.4 	"/>
	<polygon fill="#B7097C" points="51.4,70.7 42.9,99.7 44,93.9 52.6,65 	"/>
	<polygon fill="#B8097C" points="51.5,69.7 42.8,99.4 43.8,94.3 52.5,64.7 	"/>
	<polygon fill="#B9097D" points="51.6,68.7 42.8,99.2 43.5,94.7 52.4,64.3 	"/>
	<polygon fill="#BA087D" points="51.8,67.6 42.7,98.9 43.2,95 52.4,63.9 	"/>
	<polygon fill="#BB087E" points="51.9,66.6 42.6,98.6 42.9,95.4 52.3,63.6 	"/>
	<polygon fill="#BC087E" points="52,65.6 42.5,98.3 42.6,95.8 52.2,63.2 	"/>
	<polygon fill="#BD087F" points="52.1,64.6 42.5,98 42.4,96.1 52.1,62.8 	"/>
	<polygon fill="#BE087F" points="52.3,63.5 42.4,97.7 42.1,96.5 52,62.5 	"/>
</g>
<g>
	<polygon fill="#8F0D69" points="91.2,81.4 82.2,112.7 81.9,111.5 91,80.4 	"/>
	<polygon fill="#900D69" points="82.3,111.7 81.8,111.2 90.7,80.7 91.1,81 	"/>
	<polygon fill="#910D6A" points="82.4,110.7 81.7,110.9 90.4,81 91,80.6 	"/>
	<polygon fill="#920D6A" points="82.5,109.7 81.7,110.6 90.2,81.3 91,80.2 	"/>
	<polygon fill="#930D6B" points="82.6,108.6 81.6,110.2 89.9,81.6 90.9,79.8 	"/>
	<polygon fill="#940C6B" points="82.8,107.6 81.5,109.9 89.7,81.9 90.8,79.5 	"/>
	<polygon fill="#950C6C" points="82.9,106.6 81.5,109.6 89.4,82.2 90.7,79.1 	"/>
	<polygon fill="#960C6C" points="83,105.6 81.4,109.3 89.1,82.5 90.7,78.7 	"/>
	<polygon fill="#970C6D" points="83.1,104.6 81.3,109 88.9,82.8 90.6,78.3 	"/>
	<polygon fill="#980C6D" points="83.3,103.6 81.3,108.6 88.6,83.1 90.5,77.9 	"/>
	<polygon fill="#990C6E" points="83.4,102.6 81.2,108.3 88.4,83.4 90.5,77.5 	"/>
	<polygon fill="#9A0C6E" points="83.5,101.5 81.1,108 88.1,83.7 90.4,77.2 	"/>
	<polygon fill="#9B0C6F" points="83.6,100.5 81.1,107.7 87.8,84 90.3,76.8 	"/>
	<polygon fill="#9C0C6F" points="83.7,99.5 81,107.4 87.6,84.3 90.2,76.4 	"/>
	<polygon fill="#9D0C6F" points="83.9,98.5 81,107 87.3,84.6 90.2,76 	"/>
	<polygon fill="#9E0B70" points="84,97.5 80.9,106.7 87,84.9 90.1,75.6 	"/>
	<polygon fill="#9F0B70" points="84.1,96.5 80.8,106.4 86.8,85.2 90,75.2 	"/>
	<polygon fill="#A00B71" points="84.2,95.5 80.8,106.1 86.5,85.5 90,74.9 	"/>
	<polygon fill="#A10B71" points="84.3,94.5 80.7,105.8 86.3,85.8 89.9,74.5 	"/>
	<polygon fill="#A20B72" points="84.5,93.4 80.6,105.4 86,86.1 89.8,74.1 	"/>
	<polygon fill="#A30B72" points="84.6,92.4 80.6,105.1 85.7,86.4 89.7,73.7 	"/>
	<polygon fill="#A40B73" points="84.7,91.4 80.5,104.8 85.5,86.7 89.7,73.3 	"/>
	<polygon fill="#A50B73" points="84.8,90.4 80.4,104.5 85.2,87 89.6,72.9 	"/>
	<polygon fill="#A60B74" points="84.9,89.4 80.4,104.2 85,87.3 89.5,72.6 	"/>
	<polygon fill="#A60B74" points="85.1,88.4 80.3,103.8 84.7,87.6 89.5,72.2 	"/>
	<polygon fill="#A70A74" points="85.2,87.4 80.2,103.5 84.4,87.9 89.4,71.8 	"/>
	<polygon fill="#A80A75" points="85.3,86.3 80.2,103.2 84.2,88.2 89.3,71.4 	"/>
	<polygon fill="#A90A75" points="85.4,85.3 80.1,102.9 83.9,88.5 89.2,71 	"/>
	<polygon fill="#AA0A76" points="85.5,84.3 80,102.6 83.7,88.8 89.2,70.6 	"/>
	<polygon fill="#AB0A76" points="85.7,83.3 80,102.2 83.4,89.1 89.1,70.3 	"/>
	<polygon fill="#AC0A77" points="85.8,82.3 79.9,101.9 83.1,89.4 89,69.9 	"/>
	<polygon fill="#AD0A77" points="85.9,81.3 79.8,101.6 82.9,89.7 89,69.5 	"/>
	<polygon fill="#AE0A78" points="86,80.3 79.8,101.3 82.6,90 88.9,69.1 	"/>
	<polygon fill="#AF0A78" points="86.2,79.2 79.7,100.9 82.3,90.3 88.8,68.7 	"/>
	<polygon fill="#B00979" points="86.3,78.2 79.6,100.6 82.1,90.6 88.7,68.3 	"/>
	<polygon fill="#B10979" points="86.4,77.2 79.6,100.3 81.8,90.9 88.7,68 	"/>
	<polygon fill="#B20979" points="86.5,76.2 79.5,100 81.6,91.2 88.6,67.6 	"/>
	<polygon fill="#B3097A" points="86.6,75.2 79.4,99.7 81.3,91.5 88.5,67.2 	"/>
	<polygon fill="#B4097A" points="86.8,74.2 79.4,99.3 81,91.8 88.5,66.8 	"/>
	<polygon fill="#B5097B" points="86.9,73.2 79.3,99 80.8,92.1 88.4,66.4 	"/>
	<polygon fill="#B6097B" points="87,72.2 79.2,98.7 80.5,92.4 88.3,66 	"/>
	<polygon fill="#B7097C" points="87.1,71.1 79.2,98.4 80.3,92.7 88.2,65.6 	"/>
	<polygon fill="#B8097C" points="87.2,70.1 79.1,98.1 80,93 88.2,65.3 	"/>
	<polygon fill="#B9097D" points="87.4,69.1 79,97.7 79.7,93.3 88.1,64.9 	"/>
	<polygon fill="#BA087D" points="87.5,68.1 79,97.4 79.5,93.6 88,64.5 	"/>
	<polygon fill="#BB087E" points="87.6,67.1 78.9,97.1 79.2,94 88,64.1 	"/>
	<polygon fill="#BC087E" points="87.7,66.1 78.8,96.8 78.9,94.3 87.9,63.7 	"/>
	<polygon fill="#BD087F" points="87.8,65.1 78.8,96.5 78.7,94.6 87.8,63.3 	"/>
	<polygon fill="#BE087F" points="88,64 78.7,96.1 78.4,94.9 87.8,63 	"/>
</g>
</svg>
