<?xml version="1.0" encoding="utf-8"?>
<!-- Generator: Adobe Illustrator 25.4.1, SVG Export Plug-In . SVG Version: 6.00 Build 0)  -->
<svg version="1.2" baseProfile="tiny-ps" id="Layer_1" xmlns="http://www.w3.org/2000/svg" xmlns:xlink="http://www.w3.org/1999/xlink" viewBox="0 0 400 400" xml:space="preserve">
<title>Greenfield Global Inc.</title>
<g>
<path id="Icon_2_" fill="#6CBE45" d="M340,150h-90l92.9-92.9c3.9-3.9,2.5-7.1-2.9-7.1H190h-30c-5.5,0-13.2,3.2-17.1,7.1l-85.8,85.9
	c-3.9,3.9-7.1,11.6-7.1,17.1l0,180c0,5.5,4.5,10,10,10h180c5.5,0,13.2-3.2,17.1-7.1l64.6-64.6l21.2-21.2c3.9-3.9,7.1-11.6,7.1-17.1
	v-80C350,154.5,345.5,150,340,150z M250,250H150V150h100V250z"/>
</g>
</svg>
