<?xml version="1.0" encoding="UTF-8" standalone="yes"?>
<svg version="1.2" baseProfile="tiny-ps" viewBox="0 0 400 400" xml:space="preserve" xmlns="http://www.w3.org/2000/svg">
  <title>bimi-svg-tiny-12-ps</title>
  <g>
    <g>
      <polygon points="202.3,138 176.7,138 176.7,138 176.7,173 188.3,173 188.3,149.6 202.3,149.6 &#x9;&#x9;"/>
      <polygon points="211.7,173 188.3,173 188.3,184.9 223.3,184.9 223.3,184.9 223.3,159 211.7,159 &#x9;&#x9;"/>
      <rect x="208.1" y="141.6" width="11.6" height="11.6"/>
      <g>
        <path d="M268.9,123.1l-63.1-27.3l-5.8-2.5l-5.8,2.5l-63.1,27.3l-11.7,5.1l3.4,12.3l14.6,52.3l1.6,5.8l5.2,3l48.5,27.6l7.3,4.1&#xA;&#x9;&#x9;&#x9;&#x9;l7.3-4.1l48.5-27.6l5.2-3l1.6-5.8l14.6-52.3l3.4-12.3L268.9,123.1z M248.5,188.9L200,216.5l-48.5-27.6l-14.6-52.3l63.1-27.3&#xA;&#x9;&#x9;&#x9;&#x9;l63.1,27.3L248.5,188.9z"/>
      </g>
    </g>
    <g>
      <path d="M275.7,288.8c-0.5-0.8-1.1-1.5-1.7-2.1s-1.3-1.1-2-1.5c1.5-0.6,2.9-1.4,4-2.4c1.2-1,2.1-2,2.9-3.3c0.8-1.2,1.4-2.5,1.8-4&#xA;&#x9;&#x9;&#x9;c0.4-1.4,0.6-3,0.6-4.6c0-2.1-0.3-4.1-1-5.9s-1.8-3.4-3.3-4.7c-1.5-1.3-3.5-2.4-5.9-3.1s-5.3-1.1-8.7-1.1h-15.2V306h10.9v-18.5&#xA;&#x9;&#x9;&#x9;h2.8c0.8,0,1.5,0.1,1.9,0.4s0.9,0.7,1.2,1.4l7.8,14.5c0.8,1.5,2.1,2.2,3.9,2.2h9.8L275.7,288.8z M270.4,275&#xA;&#x9;&#x9;&#x9;c-0.3,0.9-0.8,1.8-1.4,2.5c-0.7,0.7-1.5,1.3-2.6,1.7c-1,0.4-2.3,0.6-3.8,0.6h-4.4V265h4.4c2.8,0,4.9,0.6,6.2,1.8&#xA;&#x9;&#x9;&#x9;c1.3,1.2,2,2.9,2,5.1C270.8,273,270.7,274,270.4,275"/>
      <path d="M227.8,256.3v29.6c0,1.8-0.2,3.3-0.6,4.7c-0.4,1.4-1,2.6-1.8,3.5c-0.8,1-1.8,1.7-2.9,2.2c-1.1,0.5-2.4,0.8-3.9,0.8&#xA;&#x9;&#x9;&#x9;s-2.8-0.3-3.9-0.8c-1.1-0.5-2.1-1.3-2.9-2.2c-0.8-1-1.4-2.1-1.8-3.5c-0.4-1.4-0.6-3-0.6-4.7v-29.5h-10.9V286&#xA;&#x9;&#x9;&#x9;c0,3.1,0.5,5.9,1.4,8.4c0.9,2.6,2.3,4.8,4,6.6c1.7,1.9,3.8,3.3,6.3,4.3s5.3,1.5,8.4,1.5c3.1,0,5.9-0.5,8.4-1.5s4.6-2.5,6.3-4.3&#xA;&#x9;&#x9;&#x9;c1.7-1.9,3.1-4.1,4-6.6c0.9-2.6,1.4-5.4,1.4-8.4v-29.6h-10.9V256.3z"/>
      <path d="M155.1,256.3v8.9h21.2l-22.1,33.6c-0.3,0.4-0.5,0.9-0.7,1.4s-0.3,1-0.3,1.6v4.5h36.1v-8.9H167l22-33.5&#xA;&#x9;&#x9;&#x9;c0.3-0.5,0.6-1,0.8-1.6s0.3-1.2,0.3-1.7v-4.2L155.1,256.3L155.1,256.3z"/>
      <path d="M65.9,306.2h7.2c0.9,0,1.7-0.2,2.3-0.7c0.6-0.5,1-1.1,1.3-1.8l2.8-8.7h17l2.8,8.7c0.2,0.6,0.7,1.2,1.3,1.7&#xA;&#x9;&#x9;&#x9;c0.6,0.5,1.4,0.8,2.3,0.8h7.3l-13.8-49.9H79.7L65.9,306.2z M82,287.1l6.1-21.4l5.9,21.4H82z"/>
      <path d="M290,306.2h7.2c0.9,0,1.7-0.2,2.3-0.7c0.6-0.5,1-1.1,1.3-1.8l2.8-8.7h17l2.8,8.7c0.2,0.6,0.7,1.2,1.3,1.7&#xA;&#x9;&#x9;&#x9;c0.6,0.5,1.4,0.8,2.3,0.8h7.3l-13.8-49.9H304L290,306.2z M306,287.1l6.1-21.4l5.9,21.4H306z"/>
      <polygon points="128.7,296.9 128.7,256.3 117.9,256.3 117.9,306.2 146.1,306.2 146.1,296.9 &#x9;&#x9;"/>
    </g>
  </g>
</svg>