<?xml version="1.0" encoding="UTF-8" standalone="yes"?>
<svg width="100" height="56" viewBox="0 -22 100 100" fill="none" xmlns="http://www.w3.org/2000/svg" baseProfile="tiny-ps" version="1.2" xml:space="preserve"><title>systembolaget.svg</title>
<path d="M12.1204 55.6172L0.144531 42.3164L0.144531 13.3381L12.1204 0.0372276L87.2557 0.0372276L99.2316 13.3381V42.3164L87.2557 55.6172L12.1204 55.6172Z" fill="#007A33"/>
<path fill-rule="evenodd" fill="#FFD400" d="M13.2722 2.62431L86.1037 2.62431L96.6441 14.3311V41.3236L86.1037 53.03L13.2722 53.03L2.73181 41.3236L2.73181 14.3311L13.2722 2.62431ZM84.915 50.3598L93.9745 40.2983V15.3558L84.915 5.29452L14.4605 5.29452L5.4017 15.3558L5.4017 40.2983L14.4612 50.3598L84.915 50.3598Z"/>
<path d="M42.1773 24.0363C40.3218 24.0363 39.0689 23.0882 38.8853 21.7597H37.8663L38.0176 24.8195H38.8065C38.8507 24.4824 38.9631 24.2711 39.1983 24.2711C39.434 24.2711 40.2957 25.0546 42.3339 25.0546C44.1371 25.0546 46.1756 24.2711 46.1756 22.1544C46.1756 19.724 43.9807 19.3323 42.1773 19.2541C41.3935 19.1759 39.6688 19.1759 39.6688 18.0782C39.6688 17.3725 40.4527 16.9029 41.7862 16.9029C43.4317 16.9029 44.7643 17.7646 44.9994 19.019H45.9399L45.7877 16.1286H44.9209C44.9209 16.3643 44.8643 16.589 44.6858 16.589C44.2152 16.589 43.5102 15.883 41.5504 15.883C39.9039 15.883 37.8663 16.7459 37.8663 18.7057C37.8663 20.9787 39.9824 21.2142 41.6286 21.3708C42.4912 21.449 44.451 21.2927 44.451 22.5471C44.451 23.2524 43.7453 24.0363 42.1773 24.0363" fill="#FFD400"/>
<path d="M72.8141 23.8008H72.1859C71.7153 23.8008 71.4809 23.7226 71.4809 23.1736V17.6079C71.4809 17.4503 71.5778 17.4544 71.6375 17.6079L74.2238 24.8194H75.7137L78.3801 17.6079C78.4338 17.4465 78.5361 17.4528 78.5361 17.6079V23.1736C78.5361 23.7226 78.3003 23.8008 77.9085 23.8008H77.2029V24.8194H82.5433V23.8008C81.8004 23.715 80.8094 23.6441 80.8094 22.7033V18.2351C80.8094 17.294 81.5586 17.3124 82.5388 17.1392V16.1187H77.6741L75.4795 22.1543L73.4409 16.1187H68.5809V17.1379C69.285 17.294 70.3053 17.2158 70.3053 18.1569V22.7033C70.3053 23.6441 69.3648 23.7226 68.5809 23.8008V24.8194H72.8141V23.8008Z" fill="#FFD400"/>
<path fill-rule="evenodd" fill="#FFD400" d="M21.7855 32.4239C21.7855 33.5214 20.7662 34.1489 19.8261 34.3055C21.1586 34.3837 22.2564 35.0109 22.2564 36.4223C22.2564 38.6171 20.1394 38.8523 18.415 38.8523H12.15V37.8327C13.8686 37.7103 13.8684 37.1022 13.8683 36.794C13.8683 36.7916 13.8683 36.7893 13.8683 36.787V32.1917C13.8683 31.444 13.2274 31.3423 12.341 31.2015C12.277 31.1914 12.2117 31.181 12.1453 31.1702V30.1573H19.0416C20.5314 30.1573 21.7855 30.8563 21.7855 32.4239ZM18.0223 37.7688H16.5071C16.257 37.7688 16.1414 37.697 16.1414 37.4978V34.9292H18.1011C18.8846 34.9292 19.9039 35.0856 19.9039 36.2615C19.9039 37.4543 19.027 37.7688 18.0223 37.7688ZM16.1414 31.5807C16.1414 31.3446 16.1414 31.1877 16.455 31.1877H18.1011C18.9638 31.1877 19.5118 31.6458 19.5118 32.43C19.5118 33.4486 18.7283 33.8407 17.9445 33.8407H16.1414V31.5807Z"/>
<path d="M66.9386 21.7625H65.9193C65.6848 22.7821 65.4487 23.7226 63.9608 23.7226H62.3133C61.9216 23.7226 61.9216 23.6441 61.9216 23.4875V20.9787H63.0187C63.9608 20.9787 63.9608 21.9201 63.9608 22.3897H64.9788V18.4705H63.9608C63.9608 18.7838 63.9608 19.8809 63.0972 19.8809H61.9216V17.4512C61.9216 17.2158 62.0004 17.1379 62.3133 17.1379H63.9608C65.4487 17.1379 65.6848 17.9212 65.8421 19.0189H66.8601L66.7041 16.1187H57.9236V17.1379C58.641 17.2317 59.645 17.3111 59.6489 18.1569V22.7033C59.6489 23.566 59.021 23.6441 57.9236 23.8008V24.8194H66.781L66.9386 21.7625Z" fill="#FFD400"/>
<path d="M21.3417 24.0363C19.4858 24.0363 18.233 23.0882 18.0503 21.7597H17.0304L17.1816 24.8195H17.9712C18.0157 24.4824 18.1282 24.2711 18.363 24.2711C18.5981 24.2711 19.4604 25.0546 21.4983 25.0546C23.3014 25.0546 25.3397 24.2711 25.3397 22.1544C25.3397 19.724 23.1451 19.3323 21.3417 19.2541C20.5582 19.1759 18.8332 19.1759 18.8332 18.0782C18.8332 17.3725 19.6174 16.9029 20.9496 16.9029C22.5958 16.9029 23.9286 17.7646 24.1641 19.019H25.1049L24.9517 16.1286H24.085C24.085 16.3643 24.0294 16.589 23.8505 16.589C23.3799 16.589 22.6742 15.883 20.7145 15.883C19.068 15.883 17.0304 16.7459 17.0304 18.7057C17.0304 20.9787 19.1471 21.2142 20.793 21.3708C21.655 21.449 23.615 21.2927 23.615 22.5471C23.615 23.2524 22.9094 24.0363 21.3417 24.0363" fill="#FFD400"/>
<path d="M87.6351 30.1573H78.5426L78.385 33.0512H79.3172C79.5161 32.0322 79.7786 31.1702 81.2853 31.1702H81.9493V36.7356C81.9493 37.5982 81.4428 37.676 80.2657 37.8327V38.8605H85.9108V37.8327C84.8127 37.676 84.2236 37.5982 84.2236 36.7356V31.1702H84.8731C85.8663 31.1702 86.5983 31.425 86.8605 33.0512H87.7914L87.6351 30.1573Z" fill="#FFD400"/>
<path fill-rule="evenodd" fill="#FFD400" d="M23.5623 34.5414C23.5623 31.5614 25.8359 29.9149 28.8143 29.9149C31.7937 29.9149 34.1449 31.5614 34.1449 34.5414C34.1449 37.6761 31.7937 39.1056 28.8143 39.1056C25.9141 39.1056 23.5623 37.6761 23.5623 34.5414ZM25.9926 34.5414C25.9926 36.8926 27.247 37.9904 28.8143 37.9904C30.4615 37.9904 31.7152 36.9898 31.7152 34.5414C31.7152 32.2674 30.4615 30.9339 28.8143 30.9339C27.247 30.9339 25.9926 32.1892 25.9926 34.5414Z"/>
<path d="M62.1431 35.6378H62.6912C63.2399 35.6378 63.7105 35.7947 63.7105 36.5004C63.7105 37.2061 62.8914 37.9903 61.6732 37.9903C60.0264 37.9903 58.5365 36.8925 58.5365 34.5413C58.5365 32.2676 59.9476 30.9338 61.5934 30.9338C63.0833 30.9338 64.2586 31.5613 64.4943 33.0511H65.5133V30.1509H64.4943C64.4943 30.4883 64.3822 30.6211 64.2586 30.6211C63.8668 30.6211 62.9269 29.9148 61.1241 29.9148C58.6157 29.9148 56.1072 31.6404 56.1072 34.5413C56.1072 37.5982 58.771 39.1055 61.1241 39.1055C63.3187 39.1055 64.0047 38.2638 64.3796 38.2638C64.6344 38.2638 64.7297 38.5641 64.7297 38.8523H65.6693V36.6568C65.6693 35.7947 66.2968 35.6378 67.0819 35.6378V34.5413H62.1431V35.6378Z" fill="#FFD400"/>
<path d="M73.9066 37.7626H72.2592C71.9354 37.7626 71.8681 37.672 71.8681 37.4728V35.0193H72.9649C73.9066 35.0193 73.9066 35.9598 73.9066 36.4304H74.9256V32.5108H73.9066C73.9066 32.8241 73.9066 33.9219 73.044 33.9219H71.8681V31.4919C71.8681 31.2564 71.9462 31.1783 72.2592 31.1783H73.9066C75.3958 31.1783 75.631 31.9615 75.7876 33.0599H76.8062L76.6499 30.159H67.8698V31.1783C68.5875 31.272 69.5922 31.3517 69.5947 32.1972V36.744C69.5947 37.606 68.9669 37.6844 67.8698 37.842V38.861H76.7284L76.8847 35.8032H75.8661C75.631 36.8218 75.3958 37.7626 73.9066 37.7626" fill="#FFD400"/>
<path d="M56.7191 16.1188H47.626L47.469 19.019H48.4012C48.5992 18.0001 48.8616 17.1381 50.3696 17.1381H51.033V22.7034C51.033 23.5661 50.5259 23.6442 49.3506 23.8009V24.8195H54.9944V23.8009C53.8967 23.6442 53.3063 23.5661 53.3063 22.7034V17.1381H53.9571C54.9506 17.1381 55.6811 17.3932 55.9432 19.019H56.8751L56.7191 16.1188Z" fill="#FFD400"/>
<path d="M32.7316 22.7033V21.1356L35.2404 17.8436C35.6328 17.3727 35.956 17.2161 36.8084 17.2161V16.1186H32.8108V17.2161C33.8831 17.2126 34.0788 17.3924 33.5971 18.0616C33.5971 18.0616 32.4873 19.4732 32.3405 19.6458C32.2728 19.7487 32.1972 19.7697 32.1048 19.6458C31.564 18.9229 30.85 17.9999 30.85 17.9999C30.2384 17.2777 30.9266 17.2161 31.6345 17.2161V16.1186H26.304V17.2161C27.2559 17.2151 27.5847 17.3762 27.8716 17.7645L30.4592 21.1356V22.7033C30.4592 23.6136 29.8114 23.6441 28.7924 23.8007V24.8194H34.4178V23.8007C33.4739 23.6218 32.7316 23.6234 32.7316 22.7033" fill="#FFD400"/>
<path d="M40.6882 37.7545H39.4163C39.1033 37.7545 39.0249 37.6761 39.0249 37.5194V32.2673C39.0249 31.6404 39.4163 31.3268 40.7498 31.1699V30.1506H35.0052V31.1855C35.9635 31.2735 36.7299 31.4578 36.7299 32.1892V36.7356C36.7299 37.5982 36.103 37.6761 35.0052 37.8327V38.8523H43.4321L43.5881 35.7948H42.6476C42.334 36.9707 42.1774 37.7545 40.6882 37.7545" fill="#FFD400"/>
<path fill-rule="evenodd" fill="#FFD400" d="M51.3524 30.1572L54.2914 36.9706C54.4484 37.2845 54.7617 37.7544 55.9373 37.7544V38.8522H51.1405L51.1399 37.8482H51.89C52.3225 37.8482 52.2828 37.5772 52.2373 37.4412L51.8764 36.5004H47.9187L47.5495 37.4412C47.471 37.676 47.5495 37.8326 47.9416 37.8326H48.6466V38.8522H44.5708V37.8326C45.9164 37.7049 46.0603 37.4672 46.2958 36.9706L49.2742 30.1572H51.3524ZM49.74 31.9768L48.3594 35.4814H51.4211L50.0539 31.9768C49.9757 31.7423 49.8188 31.7423 49.74 31.9768Z"/>
</svg>
