<?xml version="1.0" encoding="utf-8"?>
<!-- Generator: Adobe Illustrator 24.1.2, SVG Export Plug-In . SVG Version: 6.00 Build 0)  -->
<svg version="1.2" baseProfile="tiny-ps" id="Layer_1" xmlns="http://www.w3.org/2000/svg" xmlns:xlink="http://www.w3.org/1999/xlink"
	 viewBox="0 0 80 80" xml:space="preserve">
<title>One IBC America, Inc.</title>
<g>
	<g>
		<g>
			<g>
				<path fill="#3B3A3C" d="M30,40c0-1.5,0.5-2.8,1.5-3.8c1-1,2.2-1.5,3.6-1.5c1.5,0,2.8,0.5,3.8,1.5s1.5,2.3,1.5,3.8
					c0,1.5-0.5,2.8-1.5,3.8c-1,1-2.2,1.5-3.7,1.5s-2.7-0.5-3.7-1.5C30.5,42.8,30,41.5,30,40z M35.2,36.8c-0.9,0-1.6,0.3-2.1,0.9
					c-0.5,0.6-0.8,1.4-0.8,2.4c0,0.9,0.3,1.7,0.8,2.3c0.5,0.6,1.2,0.9,2,0.9c0.9,0,1.6-0.3,2.1-0.9C37.8,41.7,38,41,38,40
					c0-1-0.3-1.7-0.8-2.3C36.7,37.1,36,36.8,35.2,36.8z"/>
			</g>
			<g>
				<path fill="#3B3A3C" d="M47.8,34.8H50v10.3h-2.2l-4.7-6.7v6.7h-2.2V34.8h2.2l4.7,6.6L47.8,34.8L47.8,34.8z"/>
			</g>
			<g>
				<path fill="#3B3A3C" d="M51.1,34.8h5.8v2h-3.6V39h3.6v2h-3.6v2.1h3.6v2h-5.8L51.1,34.8L51.1,34.8z"/>
			</g>
		</g>
		<g>
			<g>
				<path fill="#C11F26" d="M59.8,34.9H62v10.3h-2.2V34.9z"/>
			</g>
			<g>
				<path fill="#C11F26" d="M63.2,34.9h3c1.3,0,2.1,0.3,2.6,0.8s0.7,1.1,0.7,1.8c0,0.4-0.1,0.8-0.3,1.1c-0.2,0.3-0.4,0.6-0.8,0.9
					c0.7,0.2,1.2,0.6,1.5,1.1c0.3,0.5,0.4,1,0.4,1.5c0,1-0.3,1.7-1,2.2s-1.6,0.8-2.7,0.8h-3.4C63.2,45.1,63.2,34.9,63.2,34.9z
					 M65.4,36.6v2.3h0.5c0.4,0,0.7-0.1,0.9-0.4s0.4-0.5,0.4-0.9c0-0.3-0.1-0.5-0.4-0.7s-0.6-0.3-0.9-0.3
					C65.9,36.6,65.4,36.6,65.4,36.6z M65.4,40.6v2.8h0.8c1.2,0,1.8-0.5,1.8-1.3c0-0.5-0.2-0.8-0.4-1.1c-0.3-0.3-0.7-0.4-1.3-0.4
					L65.4,40.6L65.4,40.6z"/>
			</g>
			<g>
				<path fill="#C11F26" d="M78.5,35.4v2.5c-1.1-0.7-2.1-1-2.9-1c-0.8,0-1.5,0.3-2,0.9s-0.8,1.3-0.8,2.3c0,0.9,0.3,1.7,0.8,2.2
					s1.2,0.8,2.1,0.8c0.8,0,1.7-0.3,2.8-0.9v2.5c-1.2,0.4-2.2,0.6-3,0.6c-1.4,0-2.6-0.5-3.5-1.5c-1-1-1.4-2.3-1.4-3.7
					c0-1.5,0.5-2.8,1.5-3.8c1-1,2.2-1.5,3.6-1.5C76.5,34.7,77.5,35,78.5,35.4z"/>
			</g>
		</g>
		<g>
			<path fill="#C11F26" d="M27,37.7c0-0.1,0-0.2-0.1-0.3c0,3.4-3.6,6.8-8.7,7.9c-5.5,1.2-10.7-0.9-11.5-4.7c-0.8-3.8,3-7.8,8.6-9
				c0.7-0.1,1.3-0.2,2-0.3c-1.5-0.1-3.1,0-4.8,0.4c-7,1.5-11.8,6.6-10.8,11.3c1,4.8,7.5,7.4,14.5,5.9C23.1,47.5,28,42.4,27,37.7z"/>
			<path fill="#C11F26" d="M11.5,40.1L11.5,40.1L11.5,40.1z"/>
			<g>
				<path fill="#C11F26" d="M24.6,38.7l-4.8,0.4l4.7-1.1c-0.1-0.8-0.2-1.6-0.5-2.4l-4.8,1.6l4.5-2.2c-0.1-0.2-0.1-0.4-0.2-0.6
					c-0.2-0.6-0.5-1.1-0.8-1.6l-4.3,2.6l4-3.1c-0.5-0.6-1-1.2-1.5-1.7L16,34.5c0.3,0.4,0.6,0.8,0.8,1.3c0.1,0.2,0.1,0.3,0.2,0.5
					c0,0.1,0,0.2,0.1,0.2c0.1,0.4,0.2,0.9,0.2,1.3c0,0.1,0,0.2,0,0.3c0,0.4-0.1,0.8-0.2,1.1c0,0.1-0.1,0.3-0.1,0.4
					c-0.1,0.3-0.2,0.5-0.4,0.7h8C24.6,39.9,24.6,39.3,24.6,38.7z"/>
				<g>
					<polygon fill="#C11F26" points="21.8,41.3 21.8,41.3 13.1,41.3 14.1,43 20.9,43 					"/>
				</g>
			</g>
		</g>
	</g>
</g>
</svg>
