<?xml version="1.0" encoding="utf-8"?>
<svg baseProfile="tiny-ps" version="1.2" viewBox="0 0 96 96" xmlns="http://www.w3.org/2000/svg">
  <title>Ur&amp;Penn</title>
  
  <rect width="97.49" height="101.58" fill="#1e296c" stroke-width="0" />
  <g>
    <path d="M69.09,42.22c0,2.97-3.32,4.07-5.83,4.07-.31,0-.97-.06-1.43-.14-.24-.04-.46-.07-.44-.2.01-.09.24-.09.46-.08,1.89.08,4.76-1.31,4.76-4.03,0-2.52-2.03-3.4-4.99-3.4-3.84,0-9.93,2.19-9.93,6.42,0,1.16.69,1.99,1.78,1.99.85,0,2.1-.43,2.83-.99.11-.08.26-.2.33-.13.06.06-.04.22-.12.3-.86.81-2.47,1.83-4.34,1.83-1.52,0-3.07-.88-3.07-2.56,0-5.14,7.87-7.5,12.77-7.5,2.89,0,7.22.85,7.22,4.41Z" fill="#fff" stroke-width="0" />
    <path d="M32.59,49.46c.1.07-.06.33-.13.42-.99,1.39-3.19,4.3-5.21,4.3-1.09,0-1.78-.46-1.78-1.43,0-1.26,1.76-3.13,3.67-4.87-.65.02-1.13-.06-1.76-.23-1.62,2.29-4.96,6.53-8,6.53-2.2,0-1.82-2.31-1.41-3.8-1.47,1.83-3.84,3.8-5.82,3.8-1.48,0-2.65-.73-2.65-2.29,0-4.77,6.74-8.87,6.74-12.09,0-.92-.54-1.11-1.43-1.11-3.3,0-7.79,3.77-7.79,7.14,0,1.22.5,1.99,1.7,1.99.78,0,1.39-.42,1.91-.99.17-.19.35-.35.42-.29.08.06-.02.27-.15.48-.65,1.08-1.72,2.08-3.44,2.08-1.43,0-2.67-1.22-2.67-2.81,0-4.57,6.31-8.27,10.5-8.27,1.99,0,3.25.67,3.25,2.81,0,3.78-5.98,8.48-5.98,11.21,0,.61.4.97.8.97,3.02,0,9.32-9.87,11.36-13.69,1.66.08,2.52.1,4.07.02-3.34,4.14-6.89,9.64-6.89,9.64-.97,1.36-1.3,2.31-1.3,2.92,0,.4.29.69.61.69,1.74,0,5.14-3.95,6.45-6.61,1.32.25,2.56.38,4.39.21-1.72,1.97-3.95,5.44-3.95,6.36,0,.23.23.38.4.38.81,0,2.6-1.96,3.72-3.23.11-.12.27-.29.36-.23Z" fill="#fff" stroke-width="0" />
    <path d="M91.16,49.82c.08.06-.04.33-.1.42-.99,1.41-3.09,3.95-5.1,3.95-.97,0-1.76-.38-1.76-1.15,0-2.48,3.72-4.66,3.72-5.98,0-.15-.09-.27-.28-.27-2.12,0-5.67,5.27-6.97,7.24h-2.88c.29-.46.59-.92,1.03-1.49-1.2,1.18-2.37,1.66-3.84,1.66-.86,0-1.76-.4-1.76-1.15,0-2.39,3.72-4.66,3.72-5.98,0-.15-.09-.27-.28-.27-2.12,0-5.67,5.27-6.97,7.24h-2.88c.44-.76.9-1.45,1.47-2.25-1.03,1.18-3.19,2.41-5.04,2.41-1.64,0-2.33-.82-2.33-2.18,0-3.54,4.5-6.03,7.64-6.03.97,0,1.47.31,1.47.76,0,2.16-4.06,3.17-5.67,3.32-.57.8-.97,1.62-.97,2.41,0,.59.29.9.92.9,2.39,0,5.86-3.67,7.58-7.2h2.86c-.15.55-.31.88-.59,1.39.82-.73,2.48-1.49,3.57-1.49,1.15,0,1.81.38,1.81,1.41,0,1.52-3.7,4.12-3.7,5.4,0,.27.19.4.44.4,2.02,0,5.08-4.09,6.59-7.1h2.86c-.15.55-.31.88-.59,1.39.82-.73,2.48-1.49,3.57-1.49,1.15,0,1.81.38,1.81,1.41,0,1.52-3.7,4.12-3.7,5.4,0,.25.23.4.44.4.73,0,2.44-1.94,3.55-3.21.11-.12.27-.29.36-.23ZM68.25,46.76c0-.19-.11-.27-.29-.27-.95,0-2.73,2.16-3.36,3.17,1.36-.23,3.65-1.97,3.65-2.9Z" fill="#fff" stroke-width="0" />
    <path d="M65.12,40.04c-5.31,2.6-3.99,14.15-17.34,14.15-2.94,0-4.39-.31-5.73-1.24-1.28.76-2.73,1.24-4.51,1.24-2.23,0-4.6-.95-4.6-3.09,0-2.95,3.79-4.58,6.13-5.44-.13-3,1.4-6.13,4.66-6.13,1.26,0,2.31.69,2.31,1.66,0,1.62-2.31,3.02-4.33,3.84.08.82.27,1.6.55,2.37.84-.71,1.83-.99,2.86-.99.93,0,1.78.38,2.5.38.44,0,.88-.15.92-.36.05-.27.13-.44.21-.44.11,0,.17.19.17.76,0,1.13-1.76,1.68-3.23,1.68,0,1.07-.59,2.14-1.64,3.13.93,1.32,2.46,2.14,4.07,2.14,7.79,0,9.24-14.21,17.01-13.67ZM43.91,41.28c0-.47-.14-1.18-.71-1.18-1.21,0-1.62,2.03-1.62,2.96,0,.41,0,.92.06,1.32,1.45-.63,2.27-1.56,2.27-3.11ZM43.75,48.83c-.2-.38-.57-.55-1.2-.55.23.8.63,1.76,1.01,2.5.42-.67.48-1.41.19-1.95ZM41.44,52.47c-1.51-1.74-2.18-3.88-2.31-6.09-1.44.95-2.98,2.41-2.98,4.26,0,1.56,1.26,2.58,2.77,2.58.85,0,1.83-.26,2.52-.76Z" fill="#fff" stroke-width="0" />
  </g>
</svg>