<?xml version="1.0" encoding="utf-8"?>
<!-- Generator: Adobe Illustrator 28.3.0, SVG Export Plug-In . SVG Version: 6.00 Build 0)  -->
<svg version="1.2" baseProfile="tiny-ps" id="レイヤー_1"
	 xmlns="http://www.w3.org/2000/svg" xmlns:xlink="http://www.w3.org/1999/xlink" viewBox="0 0 4025.2 4025.2"
	 xml:space="preserve">
<title>KINJO RUBBER CO.,LTD</title>
<rect fill="#FFFFFF" width="4025.2" height="4025.2"/>
<g>
	<path fill="#141254" d="M3414.1,3418.35c-934.5,0-1869,0-2803.5,0c0-937.25,0-1874.5,0-2811.75c934.5,0,1869,0,2803.5,0
		C3414.1,1543.85,3414.1,2481.1,3414.1,3418.35z M3077.68,2645.15c16.71-31.77,33.16-62.44,48.99-93.42
		c7.79-15.24,14.68-30.96,21.58-46.64c5.5-12.51,10.53-25.24,15.54-37.95c6.21-15.73,12.56-31.42,18.17-47.36
		c6.02-17.11,11.49-34.43,16.75-51.8c5.19-17.14,10.14-34.37,14.61-51.72c8.87-34.43,15.77-69.29,21.72-104.33
		c3.24-19.1,5.87-38.32,8.18-57.55c1.99-16.53,3.41-33.14,4.58-49.75c1.59-22.58,3.53-45.18,3.84-67.79
		c0.44-31.93-0.32-63.89-0.89-95.83c-0.2-11.19-1.16-22.37-2.13-33.53c-1.05-12.12-2.45-24.21-3.8-36.3
		c-1.35-12.09-2.5-24.22-4.32-36.24c-2.79-18.42-5.65-36.86-9.28-55.13c-5.81-29.26-11.34-58.63-18.71-87.51
		c-7.25-28.41-15.97-56.5-25.28-84.31c-8.43-25.2-18.1-50.01-28.02-74.67c-8.73-21.69-18.17-43.11-28.04-64.31
		c-8.17-17.57-17.11-34.8-26.26-51.88c-9.88-18.43-19.75-36.93-30.82-54.64c-16.5-26.39-33.54-52.48-51.32-78.02
		c-15.19-21.81-31.18-43.13-47.9-63.8c-16.42-20.29-33.77-39.88-51.5-59.04c-18.62-20.13-37.63-39.97-57.5-58.86
		c-18.76-17.83-38.61-34.54-58.42-51.23c-22.46-18.93-45.73-36.83-69.52-54.12c-26.98-19.61-54.86-37.75-83.38-55
		c-32.6-19.72-65.92-38.08-100.34-54.39c-21.79-10.32-43.76-20.3-65.89-29.86c-15.96-6.9-32.32-12.89-48.53-19.23
		c-31.04-12.14-62.65-22.58-94.79-31.32c-23.06-6.27-46.26-12.03-69.53-17.47c-33.21-7.77-66.77-13.8-100.56-18.39
		c-20.21-2.75-40.51-5.02-60.84-6.57c-26.56-2.03-53.17-3.82-79.79-4.46c-34.91-0.83-69.86-0.36-104.69,2.82
		c-24.52,2.24-49.11,3.89-73.54,6.9c-45.97,5.66-91.49,14.03-136.41,25.4c-24.14,6.11-48.28,12.35-72.02,19.81
		c-27.01,8.49-53.76,17.91-80.28,27.85c-22.12,8.28-43.91,17.5-65.54,27c-30.77,13.52-60.95,28.3-90.3,44.72
		c-16.73,9.36-33.62,18.51-49.86,28.67c-23.64,14.79-47.08,29.94-70,45.81c-17.39,12.03-33.8,25.48-50.72,38.2
		c-34.13,25.67-65.54,54.49-96.33,83.94c-30.45,29.12-58.9,60.18-85.88,92.55c-11.33,13.59-22.62,27.24-33.42,41.26
		c-11.83,15.37-23.5,30.91-34.44,46.91c-13.03,19.07-25.06,38.81-37.79,58.08c-15.4,23.32-28.56,47.92-41.57,72.58
		c-9.87,18.72-19.23,37.72-28.39,56.79c-6.35,13.24-12.45,26.63-17.84,40.28c-11.16,28.25-22.14,56.58-32.46,85.14
		c-6.42,17.76-11.72,35.95-17.1,54.07c-4.24,14.3-8.15,28.72-11.63,43.22c-5.33,22.23-10.61,44.48-15.04,66.9
		c-3.46,17.5-5.77,35.25-8.26,52.93c-2.36,16.73-4.73,33.49-6.29,50.3c-1.97,21.3-3.17,42.67-4.62,64.01
		c-0.34,4.98-0.29,9.98-0.54,14.96c-0.79,15.15-2.13,30.3-2.33,45.46c-0.23,17.44,0.73,34.9,0.82,52.35
		c0.14,26.92,1.78,53.73,4.94,80.47c1.37,11.59,1.61,23.32,3.31,34.85c3.7,25.03,7.61,50.03,12.2,74.91
		c3.37,18.28,7.84,36.38,12.05,54.5c3.21,13.8,6.52,27.59,10.28,41.24c4.02,14.6,8.43,29.1,13.04,43.52
		c5.6,17.53,11.27,35.06,17.51,52.38c4.97,13.8,10.81,27.29,16.3,40.9c2.22,5.51,4.58,10.97,6.83,16.47
		c3.4,8.29,6.59,16.66,10.17,24.87c4.06,9.33,8.4,18.55,12.7,27.78c3.45,7.41,6.89,14.84,10.59,22.13
		c3.72,7.32,7.73,14.49,11.65,21.7c9.15,16.8,18.25,33.63,27.53,50.35c2.81,5.06,6.15,9.81,9.18,14.6
		c11.77-12.11,22.9-23.49,33.93-34.96c5.84-6.07,11.59-12.23,17.26-18.47c11.06-12.17,22.41-24.1,32.94-36.72
		c15.45-18.53,30.37-37.5,45.35-56.42c8.49-10.73,17.21-21.35,24.82-32.69c15.07-22.47,29.72-45.25,44.04-68.21
		c15.42-24.72,28.06-50.96,39.02-77.88c9.27-22.78,16.89-46.24,25.2-69.41c0.99-2.75,1.78-5.56,2.62-8.17
		c3.35-0.62,6.01-1.29,8.72-1.6c16.07-1.82,32.15-3.54,48.22-5.32c26.2-2.9,52.4-5.82,78.6-8.74c22.49-2.51,44.97-5.06,67.46-7.58
		c24.96-2.8,49.92-5.57,74.88-8.38c21.5-2.42,43-4.88,64.49-7.31c13.84-1.57,27.68-3.16,41.53-4.7c15.58-1.74,31.17-3.38,46.74-5.19
		c23.22-2.7,46.42-5.61,69.65-8.25c24.47-2.77,48.97-5.27,73.44-8c25.21-2.81,50.41-5.75,75.62-8.66c21-2.42,41.97-5.1,63-7.22
		c10.58-1.07,21.04-3.05,31.94-1.02c12.93,2.41,26.15,3.27,39.25,4.77c19.77,2.28,39.56,4.34,59.3,6.85
		c24.92,3.17,49.78,6.85,74.71,10.05c25.41,3.26,50.88,6.16,76.31,9.31c23.45,2.9,46.88,5.97,70.33,8.87
		c17.53,2.17,35.08,4.08,52.6,6.29c26.16,3.3,52.28,6.85,78.43,10.16c24.92,3.15,49.87,6.05,74.8,9.19
		c29.86,3.76,59.69,7.68,89.55,11.46c29.36,3.72,58.74,7.35,88.1,11.04c25.91,3.26,51.82,6.58,77.73,9.8
		c20.49,2.55,40.98,5.07,61.49,7.48c23.48,2.76,46.96,5.42,70.45,8.04c4.58,0.51,5.95,1.68,6.73,6.26
		c1.45,8.55,2.57,17.18,4.61,25.59c5.3,21.75,11.25,43.38,19.88,64.07c10.05,24.08,17.39,49.26,30.55,72.1
		c10.66,18.51,19.31,38.18,30.07,56.63c13.42,23,28.14,45.26,44.88,66.05c20.21,25.11,42.75,48.1,65.83,70.57
		C3072.74,2641.5,3074.61,2642.72,3077.68,2645.15z M1748.33,2788.6c0,153.9,0,306.94,0,459.89c48.34,0,96.2,0,144.53,0
		c0-21.69,0-42.89,0-64.09c0-21.24,0-42.48,0-63.73c0-20.99,0-41.99,0-62.98c0-21.24-0.07-42.48,0.02-63.73
		c0.09-21.05-0.38-42.12,0.33-64.39c5.77,2.23,10.55,3.6,14.88,5.85c14.13,7.34,28.04,15.08,42.12,22.52
		c24.07,12.72,46.61,27.86,68.46,43.96c18.44,13.59,36.1,28.22,54.45,41.95c4.32,3.23,5.87,6.39,5.86,11.66
		c-0.18,60.98-0.11,121.96-0.11,182.93c0,2.65,0,5.3,0,7.78c15.56,1.65,133.98,1.01,139.05-0.59c0-152.4,0-304.75,0-457.1
		c-46.81,0-93.16,0-140.05,0c0,8.22,0,15.92,0,23.63c0,7.75,0,15.49,0,23.24c0,8,0.07,16-0.02,23.99
		c-0.09,7.51,0.41,15.08-0.42,23.99c-4.86-4.12-8.18-7.55-12.06-10.11c-13.51-8.92-27.14-17.66-40.85-26.26
		c-38.01-23.84-78.93-41.24-121.65-54.61c-8.14-2.55-16.29-3.99-24.93-3.93c-40.24,0.25-80.49,0.11-120.74,0.11
		C1754.43,2788.6,1751.69,2788.6,1748.33,2788.6z M1191.2,2987.56c4.03,4.96,8.12,9.64,11.81,14.61
		c7.13,9.59,14.23,19.21,20.98,29.07c8.68,12.7,17.56,25.33,25.32,38.59c7.78,13.29,15.26,26.93,21.14,41.13
		c7.6,18.33,13.38,37.41,20.13,56.09c9.77,27.06,17.4,54.68,22.3,82.99c55.33,0,110.41,0,165.75,0c-0.65-3.13-1-5.87-1.81-8.46
		c-7.4-23.71-14.37-47.58-22.5-71.04c-6.99-20.16-15.01-39.94-25.01-58.92c-9.61-18.25-17.65-37.32-29.03-54.65
		c-9.28-14.13-18.38-28.38-27.69-42.49c-2.04-3.09-4.66-5.8-6.94-8.74c-5.8-7.45-11.17-15.27-17.41-22.32
		c-10.25-11.56-21.06-22.63-31.61-33.88c5.44-3.59,10.87-7.47,16.58-10.9c19.69-11.86,37.98-25.6,55.32-40.63
		c26.4-22.9,48.93-48.96,64.69-80.37c4.31-8.58,7.39-17.77,11.4-27.55c-4.09,0-6.81,0-9.53,0c-45.49,0-90.98,0-136.47,0
		c-16.5,0-32.99,0.05-49.49-0.04c-3.19-0.02-5.82,0.36-7.64,3.43c-2.41,4.06-5.25,7.86-7.69,11.91
		c-12.52,20.82-30.85,34.73-52.72,44.4c-18.84,8.33-38.96,11.83-59.1,15.13c-4.01,0.66-8.12,0.64-12.82,0.98
		c0-25.37,0-49.77,0-74.44c-48.16,0-95.73,0-143.31,0c0,153.7,0,306.94,0,460.16c24.28,1.52,140.51,0.81,146.75-1.01
		c0-85.97,0-172.1,0-258.37C1152.43,2990.66,1171.73,2989.12,1191.2,2987.56z M3084.38,3008.74
		c-1.02-56.99-21.9-113.16-66.09-159.73c-47.44-49.99-106.51-75.17-175-75.02c-65.52,0.15-122.59,23.89-169.08,70.69
		c-45.17,45.48-68.72,100.76-70.22,164.71c-3.17,134.88,108.37,242.81,237.16,244.34
		C2974.72,3255.32,3083.75,3147.03,3084.38,3008.74z M2276.08,3218.33c2.29,1.14,4.4,2.5,6.71,3.31
		c25.1,8.78,49.83,18.58,76.39,22.8c16.76,2.67,33.53,4.55,50.42,5.35c15.8,0.74,31.24-2.4,46.45-6.31
		c15.2-3.9,28.58-11.98,40.57-21.6c16.33-13.1,27.78-30.41,36.34-49.44c4.57-10.17,9.14-20.49,12.15-31.17
		c3.42-12.13,5.47-24.69,7.43-37.17c1.62-10.3,3.15-20.75,3.17-31.13c0.24-93.72,0.14-187.43,0.11-281.15
		c0-1.64-0.39-3.28-0.59-4.82c-15.88-1.49-138.63-0.81-144.39,0.87c0,2.84,0,5.81,0,8.78c-0.17,98.45-0.41,196.91-0.42,295.36
		c0,13.88-8.75,24.65-21.67,28.73c-13.45,4.25-27.53,4.26-41.43,2.57c-19.84-2.41-38.98-7.93-57.89-14.3
		c-4.35-1.46-8.78-2.67-13.36-4.06C2276.08,3143.15,2276.08,3180.61,2276.08,3218.33z M1537.77,2789.93c0,153.11,0,305.84,0,458.55
		c47.5,0,94.57,0,141.72,0c0-153.05,0-305.59,0-458.55C1632.24,2789.93,1585.35,2789.93,1537.77,2789.93z"/>
	<path fill="#FFFFFF" d="M3077.68,2645.15c-3.08-2.43-4.94-3.65-6.51-5.18c-23.07-22.47-45.61-45.45-65.83-70.57
		c-16.73-20.79-31.45-43.05-44.88-66.05c-10.76-18.44-19.41-38.12-30.07-56.63c-13.16-22.85-20.5-48.02-30.55-72.1
		c-8.63-20.68-14.58-42.31-19.88-64.07c-2.05-8.41-3.16-17.04-4.61-25.59c-0.78-4.58-2.16-5.75-6.73-6.26
		c-23.49-2.62-46.98-5.28-70.45-8.04c-20.51-2.41-41-4.93-61.49-7.48c-25.92-3.23-51.82-6.55-77.73-9.8
		c-29.37-3.69-58.74-7.32-88.1-11.04c-29.85-3.78-59.69-7.71-89.55-11.46c-24.92-3.14-49.88-6.04-74.8-9.19
		c-26.16-3.3-52.28-6.85-78.43-10.16c-17.52-2.21-35.08-4.12-52.6-6.29c-23.45-2.9-46.88-5.97-70.33-8.87
		c-25.43-3.15-50.89-6.04-76.31-9.31c-24.92-3.2-49.78-6.88-74.71-10.05c-19.74-2.51-39.53-4.57-59.3-6.85
		c-13.1-1.51-26.32-2.36-39.25-4.77c-10.9-2.03-21.36-0.05-31.94,1.02c-21.03,2.13-42,4.8-63,7.22c-25.2,2.91-50.4,5.85-75.62,8.66
		c-24.47,2.73-48.97,5.22-73.44,8c-23.23,2.63-46.43,5.55-69.65,8.25c-15.57,1.81-31.16,3.44-46.74,5.19
		c-13.84,1.55-27.68,3.13-41.53,4.7c-21.5,2.44-42.99,4.9-64.49,7.31c-24.96,2.81-49.92,5.58-74.88,8.38
		c-22.49,2.52-44.97,5.07-67.46,7.58c-26.2,2.93-52.4,5.84-78.6,8.74c-16.07,1.78-32.15,3.5-48.22,5.32
		c-2.7,0.31-5.37,0.97-8.72,1.6c-0.83,2.61-1.63,5.43-2.62,8.17c-8.32,23.17-15.93,46.63-25.2,69.41
		c-10.96,26.92-23.6,53.16-39.02,77.88c-14.32,22.96-28.97,45.74-44.04,68.21c-7.61,11.34-16.33,21.96-24.82,32.69
		c-14.97,18.92-29.9,37.9-45.35,56.42c-10.52,12.62-21.88,24.55-32.94,36.72c-5.66,6.24-11.41,12.4-17.26,18.47
		c-11.04,11.47-22.16,22.85-33.93,34.96c-3.03-4.78-6.37-9.54-9.18-14.6c-9.28-16.73-18.38-33.55-27.53-50.35
		c-3.93-7.21-7.94-14.38-11.65-21.7c-3.7-7.29-7.14-14.72-10.59-22.13c-4.3-9.23-8.64-18.44-12.7-27.78
		c-3.57-8.21-6.77-16.58-10.17-24.87c-2.25-5.5-4.61-10.96-6.83-16.47c-5.49-13.61-11.33-27.1-16.3-40.9
		c-6.24-17.32-11.91-34.84-17.51-52.38c-4.61-14.42-9.02-28.92-13.04-43.52c-3.76-13.65-7.07-27.44-10.28-41.24
		c-4.21-18.12-8.68-36.21-12.05-54.5c-4.59-24.87-8.5-49.88-12.2-74.91c-1.7-11.53-1.95-23.26-3.31-34.85
		c-3.16-26.74-4.8-53.54-4.94-80.47c-0.09-17.45-1.05-34.91-0.82-52.35c0.2-15.16,1.55-30.31,2.33-45.46
		c0.26-4.98,0.21-9.98,0.54-14.96c1.45-21.34,2.65-42.72,4.62-64.01c1.56-16.82,3.93-33.57,6.29-50.3
		c2.49-17.68,4.8-35.42,8.26-52.93c4.43-22.42,9.72-44.67,15.04-66.9c3.48-14.5,7.39-28.92,11.63-43.22
		c5.37-18.12,10.68-36.3,17.1-54.07c10.32-28.56,21.3-56.89,32.46-85.14c5.39-13.65,11.49-27.05,17.84-40.28
		c9.16-19.08,18.52-38.08,28.39-56.79c13.01-24.67,26.17-49.26,41.57-72.58c12.73-19.28,24.76-39.02,37.79-58.08
		c10.94-16.01,22.61-31.54,34.44-46.91c10.79-14.02,22.08-27.66,33.42-41.26c26.98-32.37,55.43-63.43,85.88-92.55
		c30.8-29.45,62.2-58.27,96.33-83.94c16.92-12.72,33.33-26.16,50.72-38.2c22.92-15.87,46.36-31.02,70-45.81
		c16.24-10.16,33.13-19.31,49.86-28.67c29.35-16.41,59.53-31.2,90.3-44.72c21.63-9.5,43.42-18.72,65.54-27
		c26.52-9.93,53.27-19.36,80.28-27.85c23.74-7.46,47.89-13.7,72.02-19.81c44.91-11.37,90.44-19.74,136.41-25.4
		c24.43-3.01,49.02-4.66,73.54-6.9c34.84-3.19,69.78-3.66,104.69-2.82c26.62,0.64,53.23,2.43,79.79,4.46
		c20.33,1.55,40.63,3.82,60.84,6.57c33.79,4.59,67.35,10.62,100.56,18.39c23.27,5.44,46.47,11.21,69.53,17.47
		c32.14,8.73,63.76,19.18,94.79,31.32c16.2,6.34,32.56,12.33,48.53,19.23c22.13,9.56,44.1,19.53,65.89,29.86
		c34.42,16.31,67.75,34.67,100.34,54.39c28.52,17.25,56.4,35.39,83.38,55c23.78,17.28,47.05,35.19,69.52,54.12
		c19.81,16.69,39.66,33.39,58.42,51.23c19.87,18.89,38.87,38.73,57.5,58.86c17.73,19.16,35.09,38.75,51.5,59.04
		c16.72,20.66,32.71,41.99,47.9,63.8c17.79,25.54,34.82,51.63,51.32,78.02c11.08,17.72,20.94,36.21,30.82,54.64
		c9.16,17.08,18.09,34.31,26.26,51.88c9.86,21.2,19.31,42.62,28.04,64.31c9.92,24.66,19.59,49.48,28.02,74.67
		c9.31,27.82,18.03,55.9,25.28,84.31c7.37,28.88,12.91,58.25,18.71,87.51c3.63,18.27,6.48,36.71,9.28,55.13
		c1.82,12.02,2.97,24.15,4.32,36.24c1.35,12.09,2.75,24.18,3.8,36.3c0.97,11.16,1.93,22.34,2.13,33.53
		c0.57,31.94,1.33,63.9,0.89,95.83c-0.31,22.61-2.24,45.21-3.84,67.79c-1.17,16.61-2.6,33.22-4.58,49.75
		c-2.31,19.23-4.94,38.45-8.18,57.55c-5.94,35.04-12.85,69.9-21.72,104.33c-4.47,17.34-9.42,34.57-14.61,51.72
		c-5.26,17.37-10.73,34.69-16.75,51.8c-5.61,15.95-11.96,31.63-18.17,47.36c-5.02,12.72-10.04,25.44-15.54,37.95
		c-6.9,15.68-13.78,31.4-21.58,46.64C3110.84,2582.71,3094.39,2613.38,3077.68,2645.15z M2411.2,1512.94
		c21.37-15.88,32.24-37.57,40.13-62.89c-2.36,1.04-3.27,1.35-4.09,1.82c-6.44,3.72-12.81,7.56-19.3,11.17
		c-8.73,4.85-18.08,5.93-27.48,2.76c-8.31-2.8-16.18-6.83-20.65-14.96c-6.23-11.32-12.26-22.76-18.16-34.25
		c-10.32-20.1-20.51-40.27-30.65-60.47c-1.55-3.09-3.46-5.1-7.01-5.93c-16.92-3.95-33.78-8.15-50.67-12.21
		c-28.77-6.92-57.56-13.79-86.33-20.72c-39.2-9.45-78.39-18.96-117.59-28.39c-18.61-4.48-37.25-8.85-55.89-13.24
		c-18.4-4.33-36.8-8.65-55.21-12.91c-1.51-0.35-3.12-0.21-4.58-0.29c4.02,15.47,7.78,30.36,11.78,45.18
		c4,14.83,8.33,29.57,12.35,44.4c5.71,21.08,11.25,42.19,16.88,63.29c2.56,9.59,5.18,19.15,7.69,28.75
		c3.89,14.88,7.64,29.8,11.59,44.67c5.16,19.42,10.48,38.8,15.65,58.21c0.29,1.11-0.07,2.39-0.16,4.15
		c-28.08,11.56-56.07,23.08-84.7,34.87c2.43,13.64,4.39,26.89,7.21,39.96c3.5,16.26,7.92,32.32,11.56,48.55
		c3.31,14.77,5.95,29.69,9.15,44.48c2.67,12.37,5.88,24.62,8.58,36.98c6.3,28.86,12.3,57.78,18.69,86.62
		c4.34,19.6,9.08,39.12,13.81,58.63c0.55,2.28,1.72,4.84,3.44,6.3c3.39,2.88,7.17,5.43,11.12,7.5
		c33.04,17.33,67.75,30.14,104.51,36.78c32.32,5.84,64.75,11.13,97.18,16.36c24.79,4,49.67,7.51,74.5,11.27
		c25.09,3.79,50.18,7.62,75.26,11.43c20.17,3.06,40.35,6.08,60.51,9.19c28.51,4.4,57.01,8.9,85.53,13.28
		c20.65,3.17,41.33,6.2,61.99,9.33c19.16,2.9,38.29,6.05,57.49,8.72c27.84,3.87,51.88-4.88,73.45-22.26
		c10.41-8.39,17.31-19.34,23.49-30.64c4.85-8.88,6.6-19.04,5.74-30.69c-3.82,2.56-6.84,4.57-9.84,6.59
		c-5.56,3.75-10.68,8.54-16.74,11.06c-16.6,6.88-33.49,11.94-52.17,8.8c-14.42-2.42-24.06-9.93-30.7-22.22
		c-3.07-5.69-5.65-11.64-8.63-17.39c-15.57-30.04-31.15-60.09-46.84-90.07c-8.77-16.76-17.85-33.35-26.59-50.12
		c-11.51-22.07-22.81-44.25-34.25-66.36c-6.73-13-13.56-25.95-20.49-39.2c22.26-15.7,35.39-37.61,43.23-64.63
		c-2.73,0.94-4.17,1.22-5.4,1.89c-9.71,5.29-20.39,7.72-30.81,11.06c-15.13,4.85-37.71-6.2-44.07-19.16
		c-13.48-27.48-27.64-54.62-41.54-81.9C2419.29,1528.58,2415.38,1521.07,2411.2,1512.94z M1247.08,2206.54
		c3.15,0,5.15,0.22,7.09-0.04c10.36-1.35,20.69-2.92,31.05-4.22c38-4.79,76.01-9.49,114.02-14.27c31.34-3.94,62.67-7.91,94-11.93
		c30.84-3.95,61.68-7.9,92.5-11.99c40.69-5.4,81.35-10.97,122.03-16.4c19.48-2.6,38.98-4.99,58.46-7.53
		c26.63-3.47,53.26-6.95,79.89-10.49c27.61-3.67,55.2-7.49,82.82-11.04c6.1-0.79,12.38-1.54,18.44-0.94
		c18.32,1.82,36.57,4.29,54.85,6.54c20.74,2.55,41.5,5.01,62.22,7.72c20.96,2.75,41.87,5.84,62.83,8.63
		c25.14,3.35,50.3,6.57,75.46,9.82c20.23,2.62,40.46,5.19,60.68,7.8c29.85,3.85,59.69,7.69,89.53,11.59
		c17.27,2.26,34.51,4.7,51.78,6.92c16.77,2.16,33.58,4.05,50.36,6.22c28.86,3.74,57.69,7.66,86.55,11.41
		c32.81,4.27,65.63,8.46,98.45,12.67c29.11,3.73,58.22,7.44,87.32,11.17c11.35,1.46,22.68,3.09,34.05,4.43
		c13.82,1.64,27.69,2.9,41.5,4.62c11.36,1.41,22.66,3.27,34,4.84c1.31,0.18,2.71-0.27,4.77-0.5c-1.13-2.68-1.88-4.73-2.83-6.68
		c-8.3-17-16.66-33.98-24.95-50.98c-11.02-22.61-22.01-45.24-32.97-67.88c-1.41-2.91-3.3-4.56-6.78-4.96
		c-7.65-0.88-15.24-2.29-22.86-3.47c-30.99-4.8-61.98-9.59-92.97-14.41c-24.08-3.75-48.17-7.5-72.23-11.33
		c-15.24-2.43-30.43-5.13-45.68-7.51c-24.58-3.84-49.21-7.43-73.79-11.29c-26.54-4.17-53.05-8.59-79.59-12.79
		c-37.61-5.95-75.23-11.77-112.84-17.68c-36.63-5.76-73.26-11.56-109.89-17.37c-29.98-4.76-59.95-9.6-89.93-14.34
		c-25.81-4.08-51.63-8.14-77.47-12.05c-3.4-0.51-7-0.59-10.39-0.09c-20.92,3.12-41.83,6.32-62.69,9.78
		c-24.31,4.04-48.56,8.49-72.87,12.56c-26.51,4.44-53.07,8.56-79.58,12.97c-34.14,5.67-68.25,11.57-102.39,17.22
		c-37.32,6.18-74.67,12.16-112,18.3c-48.64,8-97.26,16.07-145.9,24.09c-26.76,4.41-53.56,8.65-80.29,13.27
		c-8.04,1.39-15.93,3.7-23.83,5.81c-1.74,0.47-3.84,1.54-4.72,2.97c-4.28,6.99-8.59,14.01-12.19,21.36
		c-11.39,23.2-22.47,46.56-33.66,69.86C1253.47,2193.16,1250.5,2199.4,1247.08,2206.54z M1895.99,1608.04
		c-9.88,2.48-18.79,4.65-27.67,6.96c-38.32,9.96-76.6,20.06-114.95,29.93c-34.73,8.94-69.52,17.63-104.25,26.56
		c-1.65,0.42-3.63,1.9-4.3,3.41c-4.84,10.89-9.26,21.97-14.04,32.9c-10.41,23.82-23.85,45.98-38.99,66.98
		c-11.92,16.53-25.17,32.13-38.24,47.79c-12.12,14.53-23.79,29.5-37.78,42.38c-4.95,4.56-9.96,9.05-15,13.5
		c-25.21,22.29-52.62,41.07-84.52,52.59c-15.22,5.49-30.6,9.62-47.17,8.97c-20.78-0.81-40.38-5.78-58.96-14.65
		c-9.15-4.37-17.68-10.06-26.39-15.32c-2.14-1.29-3.85-3.38-6.84-1.13c7.82,18.55,20.63,33.44,36.24,45.54
		c11.32,8.78,24.21,15.52,36.44,23.12c22.99,14.28,48.63,21.7,74.64,27.6c23.05,5.23,46.57,7.78,70.21,9.17
		c22.23,1.31,44.37,0.17,66.48-1.63c16.84-1.37,33.66-3.31,50.38-5.72c16.48-2.37,32.92-5.27,49.23-8.64
		c26.81-5.53,53.78-10.6,80.17-17.74c37-10.01,73.76-21.03,110.18-32.96c27.82-9.12,54.99-20.27,82.39-30.66
		c9.23-3.5,18.28-7.46,28.25-11.56C1939.87,1806.31,1918.89,1707.18,1895.99,1608.04z M2364.62,1246.11
		c-0.57-0.42-1.15-0.84-1.72-1.27c-1.48,1.13-3.18,2.05-4.4,3.41c-5.44,6.04-12.26,10.07-19.23,14.02
		c-16.56,9.38-32.74,6.58-48.32-1.96c-10.53-5.77-17.72-15.1-23.08-25.81c-8.8-17.57-17.56-35.16-26.49-52.66
		c-11.99-23.48-24.4-46.75-36.11-70.37c-9.53-19.22-20.02-37.84-32.08-55.54c-8.72-12.81-20.15-22.69-34.48-28.99
		c-4.59-2.02-9.19-2.64-15.51-0.76c4.36,2.98,7.92,4.8,10.71,7.44c14.87,14.03,24.71,31.02,28.8,51.13
		c1.33,6.55-1.34,10.87-7.57,13.75c-4.61,2.13-9.25,1.72-13.9,0.49c-13.2-3.5-26.35-7.23-39.58-10.63
		c-26.24-6.74-52.56-13.19-78.79-20c-15.9-4.13-31.73-8.53-47.49-13.18c-7.98-2.35-11.59-7.88-11.53-15.89
		c0.07-9.41,8.4-24.07,16.99-28.21c7.03-3.39,14.59-5.69,22.14-8.56c-3.07-3.03-7-4.59-11.24-4.34c-6.92,0.41-13.95,0.84-20.68,2.38
		c-21.82,5-37.7,18.98-50.69,36.19c-9.74,12.9-18.2,26.77-27.09,40.29c-14.21,21.61-28.15,43.4-42.5,64.92
		c-15.89,23.82-32.09,47.42-48.19,71.1c-3.64,5.36-7.02,10.96-11.19,15.89c-9.39,11.11-21.79,16.01-35.96,13.23
		c-16.14-3.17-32.05-7.73-42.7-21.98c-0.11-0.15-0.46-0.11-1.54-0.35c-0.19,2.45-0.93,4.91-0.46,7.11
		c2.14,9.96,5.12,19.61,10.28,28.58c7.32,12.71,18.05,21.08,31.61,25.79c13.67,4.75,27.47,3.19,41.11-0.7
		c22.04-6.29,44.08-12.58,66.1-18.91c18.17-5.22,36.3-10.6,54.51-15.71c16.04-4.5,32.15-8.76,48.25-13.02
		c1.84-0.49,3.95-0.73,5.78-0.32c17.23,3.8,34.47,7.56,51.61,11.74c31.39,7.65,62.69,15.69,94.08,23.34
		c30.21,7.36,60.5,14.41,90.74,21.64c23.47,5.61,46.88,11.42,70.39,16.84c10.74,2.48,21.77,2.83,32.76,2.11
		c9.4-0.62,17.56-4.4,25.61-9.39c8.13-5.04,14.44-11.15,18.48-19.7c2.02-4.27,4.25-8.47,5.89-12.89
		C2360.4,1259.7,2362.42,1252.87,2364.62,1246.11z M1912.38,1277.86c-2.78,0.45-4.5,0.54-6.11,1.03
		c-15.5,4.68-30.96,9.48-46.46,14.15c-28.81,8.69-57.63,17.34-86.46,25.98c-2.81,0.84-4.3,2.25-5.25,5.4
		c-5.65,18.77-11.68,37.44-17.67,56.11c-7.4,23.08-17.75,44.85-29.5,65.99c-9.56,17.2-20.15,33.76-32.19,49.31
		c-7.44,9.61-15.35,18.97-23.96,27.52c-7.2,7.15-15.52,13.23-23.7,19.31c-14.5,10.78-30.03,19.63-48.43,21.69
		c-10.95,1.23-22,1.7-32.47-2.66c-9.41-3.91-18.65-8.23-27.9-12.52c-2.34-1.09-4.42-2.01-6.77-0.23c0.16,1,0.1,1.82,0.42,2.43
		c9.24,17.22,23.13,30.43,37.51,43.19c3.32,2.95,6.99,5.69,10.9,7.77c9.43,5.01,18.92,9.96,28.73,14.16
		c6.56,2.81,13.57,5.31,20.59,6.14c16.64,1.96,33.33,0.57,49.98-1.05c28.08-2.74,55.59-8.15,82.62-16.2
		c29.81-8.88,59.3-18.69,88.26-30.03c18.53-7.26,37.09-14.5,55.23-22.64c22.26-9.98,44.11-20.88,66.14-31.4
		c3.32-1.59,6.62-3.23,10.28-5.02C1954.91,1436.82,1933.76,1357.75,1912.38,1277.86z"/>
	<path fill="#FEFEFE" d="M1748.33,2788.6c3.36,0,6.1,0,8.84,0c40.25,0,80.49,0.14,120.74-0.11c8.64-0.05,16.79,1.39,24.93,3.93
		c42.73,13.37,83.64,30.77,121.65,54.61c13.71,8.6,27.35,17.34,40.85,26.26c3.88,2.56,7.2,5.99,12.06,10.11
		c0.83-8.92,0.33-16.48,0.42-23.99c0.1-8,0.02-15.99,0.02-23.99c0-7.75,0-15.49,0-23.24c0-7.71,0-15.41,0-23.63
		c46.89,0,93.24,0,140.05,0c0,152.36,0,304.71,0,457.1c-5.07,1.61-123.49,2.25-139.05,0.59c0-2.49,0-5.14,0-7.78
		c0-60.98-0.06-121.96,0.11-182.93c0.02-5.27-1.54-8.43-5.86-11.66c-18.34-13.73-36.01-28.36-54.45-41.95
		c-21.86-16.1-44.39-31.25-68.46-43.96c-14.08-7.44-27.99-15.18-42.12-22.52c-4.32-2.25-9.11-3.61-14.88-5.85
		c-0.71,22.27-0.24,43.34-0.33,64.39c-0.09,21.24-0.02,42.48-0.02,63.73c0,20.99,0,41.98,0,62.98c0,21.24,0,42.48,0,63.73
		c0,21.2,0,42.4,0,64.09c-48.33,0-96.19,0-144.53,0C1748.33,3095.53,1748.33,2942.5,1748.33,2788.6z"/>
	<path fill="#FEFEFF" d="M1191.2,2987.56c-19.46,1.55-38.77,3.09-58.59,4.68c0,86.27,0,172.4,0,258.37
		c-6.24,1.82-122.47,2.52-146.75,1.01c0-153.22,0-306.47,0-460.16c47.58,0,95.15,0,143.31,0c0,24.68,0,49.08,0,74.44
		c4.7-0.34,8.82-0.33,12.82-0.98c20.14-3.3,40.26-6.8,59.1-15.13c21.87-9.67,40.2-23.58,52.72-44.4c2.43-4.05,5.27-7.85,7.69-11.91
		c1.82-3.06,4.45-3.45,7.64-3.43c16.5,0.09,32.99,0.04,49.49,0.04c45.49,0,90.98,0,136.47,0c2.72,0,5.44,0,9.53,0
		c-4,9.78-7.09,18.97-11.4,27.55c-15.76,31.4-38.29,57.47-64.69,80.37c-17.34,15.04-35.63,28.78-55.32,40.63
		c-5.7,3.43-11.14,7.31-16.58,10.9c10.55,11.25,21.36,22.32,31.61,33.88c6.25,7.05,11.62,14.87,17.41,22.32
		c2.29,2.94,4.9,5.65,6.94,8.74c9.31,14.11,18.41,28.36,27.69,42.49c11.37,17.32,19.42,36.39,29.03,54.65
		c9.99,18.98,18.02,38.77,25.01,58.92c8.13,23.46,15.1,47.32,22.5,71.04c0.81,2.59,1.15,5.33,1.81,8.46c-55.35,0-110.43,0-165.75,0
		c-4.9-28.31-12.53-55.93-22.3-82.99c-6.75-18.69-12.53-37.76-20.13-56.09c-5.89-14.2-13.36-27.84-21.14-41.13
		c-7.77-13.26-16.64-25.89-25.32-38.59c-6.74-9.86-13.85-19.48-20.98-29.07C1199.32,2997.2,1195.23,2992.52,1191.2,2987.56z"/>
	<path fill="#FEFEFF" d="M3084.38,3008.74c-0.63,138.29-109.66,246.57-243.23,244.99c-128.79-1.53-240.34-109.46-237.16-244.34
		c1.5-63.95,25.05-119.23,70.22-164.71c46.49-46.8,103.56-70.55,169.08-70.69c68.49-0.15,127.56,25.03,175,75.02
		C3062.48,2895.58,3083.36,2951.76,3084.38,3008.74z M2843.81,3112.09c22.23,0.7,41.8-6.53,58.59-20.48
		c7.17-5.96,12.71-13.89,18.91-21c8.77-10.06,13.56-22.24,15.63-35c3.48-21.4,2.03-42.38-8.25-62.33
		c-7.81-15.16-18.05-28.1-31.64-38.12c-11.13-8.21-23.92-12.77-37.67-15.3c-24.37-4.48-47.41,0.43-67.17,13.61
		c-32.4,21.62-46.75,53.52-44.37,92.59c1.11,18.22,8.04,34.21,19.16,48.51C2786.5,3099.62,2812.27,3111.78,2843.81,3112.09z"/>
	<path fill="#FEFEFE" d="M2276.08,3218.33c0-37.73,0-75.19,0-113.38c4.58,1.38,9.02,2.59,13.36,4.06
		c18.9,6.37,38.04,11.9,57.89,14.3c13.9,1.69,27.98,1.68,41.43-2.57c12.92-4.09,21.67-14.86,21.67-28.73
		c0.01-98.45,0.25-196.91,0.42-295.36c0-2.97,0-5.94,0-8.78c5.77-1.68,128.51-2.35,144.39-0.87c0.2,1.54,0.59,3.18,0.59,4.82
		c0.03,93.72,0.13,187.43-0.11,281.15c-0.03,10.39-1.55,20.84-3.17,31.13c-1.96,12.48-4.01,25.04-7.43,37.17
		c-3.01,10.69-7.58,21.01-12.15,31.17c-8.56,19.03-20.01,36.34-36.34,49.44c-11.99,9.62-25.36,17.69-40.57,21.6
		c-15.21,3.91-30.66,7.05-46.45,6.31c-16.89-0.8-33.66-2.68-50.42-5.35c-26.56-4.23-51.29-14.02-76.39-22.8
		C2280.48,3220.84,2278.37,3219.48,2276.08,3218.33z"/>
	<path fill="#FEFEFF" d="M1537.77,2789.93c47.57,0,94.47,0,141.72,0c0,152.95,0,305.5,0,458.55c-47.16,0-94.22,0-141.72,0
		C1537.77,3095.77,1537.77,2943.03,1537.77,2789.93z"/>
	<path fill="#141254" d="M2411.2,1512.94c4.19,8.12,8.1,15.64,11.94,23.19c13.9,27.27,28.06,54.42,41.54,81.9
		c6.36,12.95,28.94,24.01,44.07,19.16c10.42-3.34,21.1-5.77,30.81-11.06c1.23-0.67,2.67-0.95,5.4-1.89
		c-7.84,27.02-20.97,48.93-43.23,64.63c6.93,13.25,13.76,26.2,20.49,39.2c11.44,22.11,22.74,44.29,34.25,66.36
		c8.75,16.77,17.83,33.36,26.59,50.12c15.68,29.99,31.26,60.03,46.84,90.07c2.98,5.74,5.55,11.7,8.63,17.39
		c6.64,12.29,16.28,19.8,30.7,22.22c18.68,3.14,35.57-1.92,52.17-8.8c6.07-2.51,11.18-7.31,16.74-11.06c3-2.03,6.02-4.03,9.84-6.59
		c0.86,11.65-0.89,21.81-5.74,30.69c-6.18,11.3-13.08,22.25-23.49,30.64c-21.57,17.38-45.61,26.13-73.45,22.26
		c-19.2-2.67-38.32-5.82-57.49-8.72c-20.66-3.13-41.34-6.15-61.99-9.33c-28.52-4.38-57.01-8.88-85.53-13.28
		c-20.16-3.11-40.34-6.12-60.51-9.19c-25.09-3.81-50.17-7.64-75.26-11.43c-24.83-3.76-49.71-7.27-74.5-11.27
		c-32.43-5.23-64.86-10.52-97.18-16.36c-36.76-6.65-71.47-19.45-104.51-36.78c-3.94-2.07-7.73-4.62-11.12-7.5
		c-1.71-1.46-2.89-4.03-3.44-6.3c-4.73-19.51-9.47-39.03-13.81-58.63c-6.39-28.84-12.39-57.76-18.69-86.62
		c-2.7-12.36-5.9-24.61-8.58-36.98c-3.2-14.8-5.85-29.71-9.15-44.48c-3.63-16.23-8.05-32.29-11.56-48.55
		c-2.82-13.06-4.78-26.31-7.21-39.96c28.63-11.79,56.62-23.31,84.7-34.87c0.09-1.76,0.45-3.05,0.16-4.15
		c-5.18-19.42-10.49-38.79-15.65-58.21c-3.95-14.87-7.7-29.79-11.59-44.67c-2.51-9.6-5.14-19.16-7.69-28.75
		c-5.63-21.1-11.17-42.22-16.88-63.29c-4.02-14.83-8.35-29.57-12.35-44.4c-4-14.82-7.76-29.71-11.78-45.18
		c1.46,0.08,3.07-0.06,4.58,0.29c18.41,4.26,36.82,8.57,55.21,12.91c18.64,4.39,37.28,8.76,55.89,13.24
		c39.2,9.43,78.39,18.94,117.59,28.39c28.77,6.93,57.56,13.8,86.33,20.72c16.89,4.06,33.75,8.26,50.67,12.21
		c3.55,0.83,5.46,2.84,7.01,5.93c10.14,20.2,20.33,40.36,30.65,60.47c5.9,11.5,11.94,22.93,18.16,34.25
		c4.47,8.13,12.34,12.16,20.65,14.96c9.41,3.17,18.75,2.09,27.48-2.76c6.5-3.61,12.86-7.46,19.3-11.17
		c0.82-0.47,1.73-0.78,4.09-1.82C2443.44,1475.37,2432.57,1497.06,2411.2,1512.94z"/>
	<path fill="#151355" d="M1247.08,2206.54c3.42-7.15,6.39-13.38,9.38-19.6c11.19-23.3,22.28-46.65,33.66-69.86
		c3.61-7.35,7.91-14.37,12.19-21.36c0.88-1.44,2.97-2.51,4.72-2.97c7.9-2.12,15.79-4.42,23.83-5.81
		c26.73-4.62,53.52-8.85,80.29-13.27c48.63-8.02,97.26-16.1,145.9-24.09c37.33-6.14,74.68-12.11,112-18.3
		c34.14-5.66,68.25-11.55,102.39-17.22c26.51-4.41,53.07-8.53,79.58-12.97c24.31-4.07,48.55-8.52,72.87-12.56
		c20.86-3.47,41.77-6.66,62.69-9.78c3.39-0.51,6.99-0.43,10.39,0.09c25.84,3.92,51.66,7.97,77.47,12.05
		c29.98,4.74,59.95,9.58,89.93,14.34c36.63,5.81,73.26,11.61,109.89,17.37c37.61,5.92,75.24,11.73,112.84,17.68
		c26.54,4.2,53.04,8.62,79.59,12.79c24.58,3.86,49.21,7.45,73.79,11.29c15.25,2.38,30.44,5.08,45.68,7.51
		c24.07,3.84,48.15,7.58,72.23,11.33c30.99,4.82,61.98,9.6,92.97,14.41c7.62,1.18,15.21,2.59,22.86,3.47
		c3.48,0.4,5.37,2.05,6.78,4.96c10.96,22.64,21.95,45.27,32.97,67.88c8.29,17.01,16.65,33.98,24.95,50.98c0.95,1.95,1.7,4,2.83,6.68
		c-2.06,0.24-3.46,0.68-4.77,0.5c-11.34-1.56-22.64-3.43-34-4.84c-13.81-1.71-27.68-2.98-41.5-4.62
		c-11.36-1.35-22.7-2.97-34.05-4.43c-29.11-3.74-58.22-7.44-87.32-11.17c-32.82-4.21-65.64-8.39-98.45-12.67
		c-28.86-3.76-57.69-7.67-86.55-11.41c-16.77-2.17-33.58-4.06-50.36-6.22c-17.27-2.22-34.51-4.66-51.78-6.92
		c-29.84-3.9-59.69-7.74-89.53-11.59c-20.23-2.61-40.46-5.19-60.68-7.8c-25.16-3.25-50.32-6.47-75.46-9.82
		c-20.95-2.8-41.87-5.89-62.83-8.63c-20.72-2.72-41.48-5.18-62.22-7.72c-18.28-2.25-36.53-4.72-54.85-6.54
		c-6.06-0.6-12.35,0.16-18.44,0.94c-27.62,3.56-55.21,7.38-82.82,11.04c-26.62,3.54-53.25,7.02-79.89,10.49
		c-19.48,2.54-38.99,4.93-58.46,7.53c-40.68,5.42-81.35,11-122.03,16.4c-30.82,4.09-61.66,8.03-92.5,11.99
		c-31.33,4.02-62.66,7.99-94,11.93c-38,4.78-76.02,9.47-114.02,14.27c-10.36,1.31-20.69,2.87-31.05,4.22
		C1252.23,2206.76,1250.22,2206.54,1247.08,2206.54z"/>
	<path fill="#151354" d="M1895.99,1608.04c22.9,99.14,43.87,198.28,65.52,297.37c-9.97,4.09-19.02,8.06-28.25,11.56
		c-27.4,10.4-54.56,21.54-82.39,30.66c-36.42,11.94-73.18,22.95-110.18,32.96c-26.39,7.14-53.37,12.2-80.17,17.74
		c-16.31,3.37-32.74,6.26-49.23,8.64c-16.72,2.41-33.54,4.35-50.38,5.72c-22.11,1.8-44.25,2.94-66.48,1.63
		c-23.64-1.39-47.16-3.94-70.21-9.17c-26.01-5.9-51.65-13.31-74.64-27.6c-12.23-7.6-25.12-14.35-36.44-23.12
		c-15.61-12.1-28.42-26.99-36.24-45.54c3-2.25,4.7-0.17,6.84,1.13c8.71,5.26,17.24,10.95,26.39,15.32
		c18.58,8.87,38.18,13.84,58.96,14.65c16.57,0.65,31.95-3.47,47.17-8.97c31.9-11.51,59.31-30.29,84.52-52.59
		c5.04-4.46,10.05-8.95,15-13.5c13.99-12.88,25.65-27.85,37.78-42.38c13.07-15.67,26.32-31.26,38.24-47.79
		c15.14-20.99,28.57-43.16,38.99-66.98c4.78-10.92,9.2-22,14.04-32.9c0.67-1.5,2.65-2.98,4.3-3.41
		c34.73-8.94,69.52-17.62,104.25-26.56c38.34-9.87,76.63-19.97,114.95-29.93C1877.2,1612.69,1886.12,1610.52,1895.99,1608.04z"/>
	<path fill="#151355" d="M2364.62,1246.11c-2.21,6.76-4.22,13.59-6.68,20.25c-1.63,4.42-3.87,8.62-5.89,12.89
		c-4.04,8.55-10.35,14.66-18.48,19.7c-8.05,4.99-16.21,8.77-25.61,9.39c-10.99,0.72-22.01,0.37-32.76-2.11
		c-23.51-5.42-46.93-11.23-70.39-16.84c-30.24-7.23-60.53-14.28-90.74-21.64c-31.39-7.65-62.69-15.69-94.08-23.34
		c-17.14-4.17-34.38-7.94-51.61-11.74c-1.82-0.4-3.94-0.16-5.78,0.32c-16.11,4.26-32.21,8.52-48.25,13.02
		c-18.21,5.11-36.33,10.49-54.51,15.71c-22.03,6.33-44.06,12.63-66.1,18.91c-13.64,3.89-27.44,5.45-41.11,0.7
		c-13.56-4.71-24.29-13.09-31.61-25.79c-5.17-8.97-8.14-18.62-10.28-28.58c-0.47-2.2,0.27-4.66,0.46-7.11
		c1.08,0.23,1.43,0.2,1.54,0.35c10.66,14.26,26.56,18.82,42.7,21.98c14.18,2.78,26.57-2.12,35.96-13.23
		c4.17-4.93,7.55-10.53,11.19-15.89c16.1-23.68,32.3-47.28,48.19-71.1c14.35-21.52,28.29-43.31,42.5-64.92
		c8.89-13.53,17.36-27.39,27.09-40.29c12.99-17.21,28.87-31.19,50.69-36.19c6.73-1.54,13.76-1.97,20.68-2.38
		c4.23-0.25,8.17,1.31,11.24,4.34c-7.55,2.87-15.11,5.17-22.14,8.56c-8.59,4.14-16.92,18.8-16.99,28.21
		c-0.06,8,3.55,13.53,11.53,15.89c15.76,4.65,31.59,9.05,47.49,13.18c26.22,6.81,52.54,13.27,78.79,20
		c13.23,3.4,26.37,7.12,39.58,10.63c4.65,1.23,9.29,1.65,13.9-0.49c6.23-2.88,8.91-7.2,7.57-13.75
		c-4.09-20.11-13.93-37.1-28.8-51.13c-2.79-2.64-6.36-4.46-10.71-7.44c6.32-1.88,10.92-1.26,15.51,0.76
		c14.34,6.3,25.76,16.19,34.48,28.99c12.06,17.7,22.55,36.32,32.08,55.54c11.71,23.62,24.12,46.89,36.11,70.37
		c8.93,17.5,17.7,35.09,26.49,52.66c5.36,10.71,12.55,20.03,23.08,25.81c15.58,8.54,31.76,11.34,48.32,1.96
		c6.97-3.95,13.8-7.98,19.23-14.02c1.22-1.36,2.92-2.28,4.4-3.41C2363.48,1245.26,2364.05,1245.68,2364.62,1246.11z"/>
	<path fill="#151355" d="M1912.38,1277.86c21.38,79.89,42.53,158.97,63.79,238.42c-3.66,1.79-6.96,3.44-10.28,5.02
		c-22.02,10.51-43.87,21.42-66.14,31.4c-18.15,8.14-36.71,15.38-55.23,22.64c-28.96,11.34-58.45,21.16-88.26,30.03
		c-27.04,8.05-54.55,13.47-82.62,16.2c-16.65,1.62-33.35,3.01-49.98,1.05c-7.02-0.83-14.03-3.33-20.59-6.14
		c-9.8-4.2-19.3-9.15-28.73-14.16c-3.91-2.08-7.57-4.82-10.9-7.77c-14.37-12.75-28.26-25.97-37.51-43.19
		c-0.33-0.61-0.26-1.43-0.42-2.43c2.35-1.78,4.43-0.85,6.77,0.23c9.25,4.29,18.49,8.6,27.9,12.52c10.47,4.35,21.52,3.88,32.47,2.66
		c18.41-2.06,33.93-10.91,48.43-21.69c8.18-6.08,16.5-12.16,23.7-19.31c8.61-8.55,16.52-17.91,23.96-27.52
		c12.04-15.55,22.63-32.11,32.19-49.31c11.75-21.14,22.1-42.91,29.5-65.99c5.99-18.67,12.01-37.34,17.67-56.11
		c0.95-3.15,2.44-4.56,5.25-5.4c28.83-8.64,57.65-17.29,86.46-25.98c15.5-4.68,30.97-9.47,46.46-14.15
		C1907.87,1278.4,1909.6,1278.31,1912.38,1277.86z"/>
	<path fill="#151355" d="M2843.81,3112.09c-31.54-0.31-57.31-12.47-76.8-37.53c-11.12-14.3-18.05-30.29-19.16-48.51
		c-2.38-39.07,11.97-70.97,44.37-92.59c19.76-13.18,42.8-18.09,67.17-13.61c13.74,2.53,26.54,7.09,37.67,15.3
		c13.59,10.02,23.83,22.96,31.64,38.12c10.28,19.95,11.73,40.94,8.25,62.33c-2.07,12.75-6.86,24.94-15.63,35
		c-6.2,7.11-11.74,15.04-18.91,21C2885.61,3105.56,2866.04,3112.79,2843.81,3112.09z"/>
</g>
</svg>
