<?xml version="1.0" encoding="UTF-8"?>
<!-- Generator: Adobe Illustrator 16.0.0, SVG Export Plug-In . SVG Version: 6.00 Build 0) -->
<svg version="1.2" baseProfile="tiny-ps" id="Layer_1" xmlns="http://www.w3.org/2000/svg" xmlns:xlink="http://www.w3.org/1999/xlink" width="199px" height="250px" viewBox="0 0 199 250" xml:space="preserve">
    <title>Your Brand</title>
    <g>
        <path fill="#ED1C24" d="M23.995,219.727c0.042-1.111-0.413-1.771-1.023-2.171c-0.655-0.396-1.473-0.572-2.418-0.572
			c-2.125,0-3.189,0.659-3.351,1.812c-0.781,4.785,16.657,1.826,14.732,13.429c-1.187,7.398-7.451,10.994-15.553,10.994
			c-7.779,0-12.075-4.924-11.34-10.681h9.249c0.04,1.152,0.452,1.991,1.189,2.525c0.694,0.526,1.676,0.789,2.618,0.789
			c2.416,0,4.137-0.83,4.379-2.342c0.779-4.831-16.703-1.508-14.696-13.695c1.104-6.776,7.042-10.184,14.41-10.184
			c8.187,0,11.176,4.518,10.971,10.096H23.995z" />
        <path fill="#ED1C24" d="M59.441,245.96l-3.316-4.384c-1.6,0.705-4.135,1.642-7.571,1.642c-9.374,0-14.41-6.343-12.649-17.061
			c1.595-10.021,8.924-16.526,18.093-16.526c9.657,0,14.286,7.353,12.769,16.609c-0.616,3.899-2.374,8.2-5.278,11.391l2.741,3.678
			L59.441,245.96z M53.46,226.857l2.582,3.462c0.452-1.102,0.779-2.3,1.065-4.079c0.899-5.449-0.821-8.814-4.464-8.814
			c-4.379,0-6.465,4.785-7.12,8.814c-0.657,4.079-0.328,9.178,4.296,9.178c0.53,0,1.023-0.139,1.517-0.318l-2.743-3.582
			L53.46,226.857z" />
        <path fill="#ED1C24" d="M73.798,210.466h9.66l-3.109,19.103c-0.535,3.144-0.371,5.85,3.6,5.85c3.48,0,4.873-2.393,5.447-5.85
			l3.109-19.103h9.661l-2.949,18.033c-1.678,10.237-6.753,14.719-16.533,14.719c-9.132,0-13.594-3.771-11.833-14.761L73.798,210.466
			z" />
        <path fill="#ED1C24" d="M100.271,242.369l15.759-31.903h9.823l5.366,31.903h-9.62l-0.452-4.204h-9.62l-1.798,4.204H100.271z
			 M119.309,220.086l-4.873,11.432h6.099L119.309,220.086z" />
        <path fill="#ED1C24" d="M145.615,231.246l-1.798,11.123h-9.661l5.199-31.903h13.917c9.823,0,12.57,2.881,11.584,9.086
			c-0.613,3.678-2.618,6.78-6.224,7.799c2.909,1.235,4.665,2.038,3.605,8.464c-0.655,4.162-1.023,5.577,0.119,5.577l-0.165,0.978
			h-9.777c-0.12-0.705-0.042-2.747,0.41-5.582c0.691-4.163,0.244-5.541-4.264-5.541H145.615z M146.764,224.249h3.808
			c2.986,0,4.711-0.798,5.075-3.015c0.373-2.259-1.102-3.324-3.352-3.324h-4.504L146.764,224.249z" />
        <path fill="#ED1C24" d="M166.608,242.369l5.194-31.903h24.03l-1.222,7.444h-14.372l-0.729,4.563h12.15l-1.188,7.449h-12.156
			l-0.815,5.007h14.939l-1.23,7.439H166.608z" />
        <g>
            <rect x="5.252" y="138.85" fill="#4CB860" width="57.218" height="57.211" />
            <rect x="71.726" y="138.85" fill="#4CB860" width="57.221" height="57.211" />
            <rect x="138.203" y="138.85" fill="#4CB860" width="57.216" height="57.211" />
            <rect x="5.252" y="72.101" fill="#4CB860" width="57.218" height="57.217" />
            <rect x="71.726" y="72.101" fill="#4CB860" width="57.221" height="57.217" />
            <rect x="138.203" y="72.101" fill="#4CB860" width="57.216" height="57.217" />
            <rect x="5.252" y="5.35" fill="#4CB860" width="57.218" height="57.218" />
            <rect x="71.726" y="5.35" fill="#4CB860" width="57.221" height="57.218" />
            <rect x="138.203" y="5.35" fill="#4CB860" width="57.216" height="57.218" />
        </g>
    </g>
</svg>
