<?xml version="1.0" encoding="UTF-8"?><!-- Generator: Adobe Illustrator 29.1.0, SVG Export Plug-In . SVG Version: 2.1.0 Build 142)  --><svg xmlns="http://www.w3.org/2000/svg" version="1.2" baseProfile="tiny-ps" viewBox="0 0 150 150" xml:space="preserve"><title>Ocean Casino Resort Atlantic City</title><path d="M86.4,87.7h0c0-.8-.3-1.5-.7-1.9-.6-.6-1.5-1-2.7-1h-4.1v9.6h1.1v-3.7h2.7l2.8,3.7h1.3l-2.9-3.9c1.5-.3,2.6-1.2,2.6-2.8ZM80,89.7v-3.9h2.9c1.5,0,2.4.7,2.4,1.9h0c0,1.3-1,2-2.5,2h-2.9Z" fill="#424143"/><polygon points="89.8 90 95.1 90 95.1 89.1 89.8 89.1 89.8 85.8 95.7 85.8 95.7 84.8 88.8 84.8 88.8 94.4 95.7 94.4 95.7 93.4 89.8 93.4 89.8 90" fill="#424143"/><path d="M101.3,89.1c-2.1-.5-2.6-1-2.6-1.9h0c0-.9.8-1.6,2-1.6s1.9.3,2.8,1l.6-.8c-1-.8-2-1.2-3.4-1.2s-3.1,1.1-3.1,2.6h0c0,1.6,1,2.3,3.2,2.8,2,.4,2.5.9,2.5,1.8h0c0,1-.8,1.7-2.1,1.7s-2.3-.5-3.3-1.4l-.7.8c1.1,1,2.4,1.5,3.9,1.5s3.3-1.1,3.3-2.7h0c0-1.5-1-2.3-3.1-2.7Z" fill="#424143"/><path d="M110.7,84.6c-2.9,0-4.9,2.3-4.9,5h0c0,2.7,2,5,4.9,5s4.9-2.3,4.9-5t0,0c0-2.6-2-4.9-4.9-4.9ZM114.4,89.6c0,2.2-1.6,3.9-3.7,3.9s-3.8-1.8-3.8-4h0c0-2.2,1.6-4,3.7-4s3.8,1.8,3.8,4h0Z" fill="#424143"/><path d="M125.1,87.7h0c0-.8-.3-1.5-.7-1.9-.6-.6-1.5-1-2.7-1h-4.1v9.6h1.1v-3.7h2.7l2.8,3.7h1.3l-2.9-3.9c1.5-.3,2.6-1.2,2.6-2.8ZM118.6,89.7v-3.9h2.9c1.5,0,2.4.7,2.4,1.9h0c0,1.3-1,2-2.5,2h-2.9Z" fill="#424143"/><polygon points="126.5 84.8 126.5 85.8 129.7 85.8 129.7 94.4 130.8 94.4 130.8 85.8 134 85.8 134 84.8 126.5 84.8" fill="#424143"/><path d="M20.8,93.6c-2.1,0-3.7-1.7-3.7-4h0c0-2.2,1.6-4,3.7-4s2.2.5,3,1.3l.7-.8c-1-.9-2-1.5-3.7-1.5-2.8,0-4.8,2.3-4.8,5h0c0,2.8,2,5,4.8,5s2.8-.7,3.8-1.7l-.7-.7c-.9.9-1.8,1.4-3.1,1.4Z" fill="#424143"/><path d="M29.8,84.7l-4.4,9.7h1.1l1.1-2.5h5.2l1.1,2.5h1.2l-4.4-9.7h-1ZM28.1,90.9l2.2-4.9,2.2,4.9h-4.4Z" fill="#424143"/><path d="M40.2,89.1c-2.1-.5-2.6-1-2.6-1.9h0c0-.9.8-1.6,2-1.6s1.9.3,2.8,1l.6-.8c-1-.8-2-1.2-3.4-1.2s-3.1,1.1-3.1,2.6h0c0,1.6,1,2.3,3.2,2.8,2,.4,2.5.9,2.5,1.8h0c0,1-.8,1.7-2.1,1.7s-2.3-.5-3.3-1.4l-.7.8c1.1,1,2.4,1.5,3.9,1.5s3.3-1.1,3.3-2.7h0c0-1.5-1-2.3-3.1-2.7Z" fill="#424143"/><rect x="45.5" y="84.8" width="1.1" height="9.6" fill="#424143"/><polygon points="56.5 92.5 50.4 84.8 49.4 84.8 49.4 94.4 50.5 94.4 50.5 86.5 56.7 94.4 57.5 94.4 57.5 84.8 56.5 84.8 56.5 92.5" fill="#424143"/><path d="M64.4,84.6c-2.9,0-4.9,2.3-4.9,5h0c0,2.7,2,5,4.9,5s4.9-2.3,4.9-5t0,0c0-2.6-2-4.9-4.9-4.9ZM68.2,89.6c0,2.2-1.6,3.9-3.7,3.9s-3.8-1.8-3.8-4h0c0-2.2,1.6-4,3.7-4s3.8,1.8,3.8,4h0Z" fill="#424143"/><path d="M73.6,88.9c-.5,0-.9.4-.9.9s.4.9.9.9.9-.4.9-.9-.4-.9-.9-.9Z" fill="#424143"/><path d="M35.9,103l-2.4,5.4h1l.6-1.3h2.5l.5,1.3h1l-2.4-5.4h-.9ZM35.4,106.3l.9-2.1.9,2.1h-1.8Z" fill="#424143"/><polygon points="40.9 103.9 42.6 103.9 42.6 108.4 43.5 108.4 43.5 103.9 45.2 103.9 45.2 103.1 40.9 103.1 40.9 103.9" fill="#424143"/><polygon points="49 103.1 48 103.1 48 108.4 51.8 108.4 51.8 107.6 49 107.6 49 103.1" fill="#424143"/><path d="M56.7,103l-2.4,5.4h1l.6-1.3h2.5l.5,1.3h1l-2.4-5.4h-.9ZM56.2,106.3l.9-2.1.9,2.1h-1.8Z" fill="#424143"/><polygon points="66.4 106.8 63.5 103.1 62.7 103.1 62.7 108.4 63.6 108.4 63.6 104.6 66.6 108.4 67.3 108.4 67.3 103.1 66.4 103.1 66.4 106.8" fill="#424143"/><polygon points="70.1 103.9 71.8 103.9 71.8 108.4 72.8 108.4 72.8 103.9 74.5 103.9 74.5 103.1 70.1 103.1 70.1 103.9" fill="#424143"/><rect x="77.3" y="103.1" width=".9" height="5.4" fill="#424143"/><path d="M84.1,107.6c-1,0-1.8-.8-1.8-1.9h0c0-1.1.7-1.9,1.8-1.9s1.1.3,1.5.7l.6-.7c-.5-.5-1.1-.8-2.1-.8-1.6,0-2.8,1.2-2.8,2.8h0c0,1.6,1.2,2.8,2.7,2.8s1.6-.4,2.2-.9l-.6-.6c-.5.4-.9.7-1.5.7Z" fill="#424143"/><path d="M95.6,107.6c-1,0-1.8-.8-1.8-1.9h0c0-1.1.7-1.9,1.8-1.9s1.1.3,1.5.7l.6-.7c-.5-.5-1.1-.8-2.1-.8-1.6,0-2.8,1.2-2.8,2.8h0c0,1.6,1.2,2.8,2.7,2.8s1.6-.4,2.2-.9l-.6-.6c-.5.4-.9.7-1.5.7Z" fill="#424143"/><rect x="100.6" y="103.1" width=".9" height="5.4" fill="#424143"/><polygon points="104.4 103.9 106.1 103.9 106.1 108.4 107 108.4 107 103.9 108.7 103.9 108.7 103.1 104.4 103.1 104.4 103.9" fill="#424143"/><polygon points="115.3 103.1 113.8 105.4 112.3 103.1 111.2 103.1 113.3 106.3 113.3 108.4 114.3 108.4 114.3 106.3 116.4 103.1 115.3 103.1" fill="#424143"/><path d="M42.5,48.1c-.6-.4-2.2-1.4-3.5-1.2-1.3.2-2.8.2-2.8,1,0,.9,1.6,1.1,3,1.6,4.4,1.6,5.9,4.1,5.9,9.9,0,8.5-7.3,14.2-15,14.2s-14.2-3.6-14.2-13.5,3.3-13.9,11.4-13.9,4.5.9,5.7.9,2.7-1.7,2.7-2.6c0-2-5.4-3-7-3-2.4,0-5.6,1.3-7.4,2.8-5,4.4-9.9,9.5-9.9,18.1,0,10.6,7.1,16,16.2,16s20.6-9.6,20.7-20.8c0-3.6-3-7.8-5.8-9.6Z" fill="#41bfbf"/><path d="M138,72c-1.2.6-2.3.8-3.3.8-1.5,0-2.8-.9-3.3-2.5-1.1-2.9-1.7-5.8-2.6-8.8-.2-1-1.1-2.1-2.5-2-3,.3-6.3,6.6-8.5,7.5-1.1.5-1-.7-1-1.5,0-1.2.5-5.7.3-6.6-.1-.5-.9-1.3-1.4-1.2-2,.4-3.2,2.3-3.3,3.6,0,3.7.2,6.9,0,10.3-1.6.4-3.5.6-5,0-1.6-.7-1.9-4.3-3.2-4.3s-1.9,2.8-2.8,3.3c-1.4,1-3,1.7-5.5,1.8-1.8.1-2.9-.9-3.2-2.5,0,0,0,0,0,0,0,0,0,0,0,0,0-.5,0-1.1,0-1.7.2-3.3,3.1-5.8,7.5-6,1.4-.2,2.9,2.2,3.4,3,0,.3.6,0,.9-.3,1.1-.9.3-3-.3-4.1-.9-1.7-3.2-2.4-4.8-2.1-6.4,1.6-12.4,7-12.1,12.9-1.9.7-4,1.4-6.2,1.5-4.7.3-7.2-.8-8.1-3.2,3.5-1.4,9.8-3.9,10.3-7.8.3-2.6-1.7-3.9-4.4-3.8-4.7.2-11.8,6.5-11.9,11,0,1.1.2,2,.6,2.8-1.7.6-3.5,1-6,1-4.4,0-8.2-1-8.3-4.6,0-2.5,1.5-5.5,3.4-5.5s1.4,1.9,2.4,1.9,3.1-1,3.2-2.1c0-2.3-3.4-4.4-5.6-3.7-3.9,1.3-8.9,5.8-9,11.2,0,4.9,5.1,6.3,9.8,6.3s8-1,11.3-2.8c2.3,2.3,6.3,2.6,9.3,2.5,3.5-.2,7-1.2,9.9-2.7,1.2,1.6,3.5,2.5,5.6,2.4,3.1-.2,6.7-3.3,7.8-2.3,1.1,1.1,2.4,2.3,4.4,2.3s4-.7,6.4-2.3c0,.9,0,2.2,1.4,2.1,2.7-.1,4.8-5.7,6.8-8.1.7-.9,1.8-2,2.7-2.2.7,0,1.4.4,1.7,1.3.3.8,1.2,4.8,1.4,5.7.7,2.1,2.4,5,5.2,5s5.3-2,6.7-4.2c.3-.6.6-1.9-.3-1.4ZM73,65.8c.3-1.5,3-4.1,4.6-4.2.8,0,1.1.5,1.1,1.2,0,2.7-3.3,4-5.9,4.3,0-.4,0-.9.1-1.3Z" fill="#41bfbf"/></svg>
