<?xml version="1.0"?><svg version="1.2" baseProfile="tiny-ps" viewBox="0 0 300 300" xmlns="http://www.w3.org/2000/svg" xmlns:xlink="http://www.w3.org/1999/xlink"><title>privat</title><g><g fill="#fefffe" transform="matrix(.1 0 0 -.1 0 300)"><path d="M490 2979c-96-25-162-57-242-119l-63-49-41-53c-60-79-80-115-111-203l-28-80V525l31-85 30-86 39-58c49-75 116-142 191-191l58-39 86-30 85-31h1950l85 31 86 30 58 39c75 49 142 116 191 191l39 58 30 86 31 85v1950l-31 85-30 86-39 58c-51 77-118 143-197 195l-63 41-80 28-80 27-955 2-955 2-75-20z"/></g><g fill="#c9e9c2" transform="matrix(.1 0 0 -.1 0 300)"><path d="M490 2979c-96-25-162-57-242-119l-63-49-41-53c-60-79-80-115-111-203l-28-80V525l31-85 30-86 39-58c49-75 116-142 191-191l58-39 86-30 85-31h1950l85 31 86 30 58 39c75 49 142 116 191 191l39 58 30 86 31 85v1950l-31 85-30 86-39 58c-51 77-118 143-197 195l-63 41-80 28-80 27-955 2-955 2-75-20zm1931-655 54-16 51-34 52-35 35-52 36-52 16-57 16-58-3-308-3-307-33-67-33-67-50-45-50-45-57-23-57-23-825-5-825-5-5-220c-4-121-7-221-8-223s-18-10-37-18l-34-14H433l-32 11-32 11-14 29-15 28v1553l29 29 29 29h1968l55-16zM750 1931l-10-20v-356l10-15 9-15h1516v420l-757 3-757 2-11-19z"/></g><g fill="#82c571" transform="matrix(.1 0 0 -.1 0 300)"><path d="M490 2979c-96-25-162-57-242-119l-63-49-41-53c-60-79-80-115-111-203l-28-80V525l31-85 30-86 39-58c49-75 116-142 191-191l58-39 86-30 85-31h1950l85 31 86 30 58 39c75 49 142 116 191 191l39 58 30 86 31 85v1950l-31 85-30 86-39 58c-51 77-118 143-197 195l-63 41-80 28-80 27-955 2-955 2-75-20zm1902-644 67-14 45-26c50-29 116-97 141-145 9-17 23-62 31-98l14-67v-480l-11-65-10-64-31-58-31-58-40-36c-22-20-65-48-96-63l-56-26-832-3-833-2V708l-29-29-29-29H398l-29 29-29 29v1573l11 20 11 21 31 13 32 14h950l950 1 67-15zM752 1738l3-203h1520v400l-763 3-762 2 2-202z"/></g><g fill="#61bd4c" transform="matrix(.1 0 0 -.1 0 300)"><path d="m250 2861-65-50-41-53c-60-79-80-115-111-203l-28-80V525l31-85 30-86 39-58c49-75 116-142 191-191l58-39 86-30 85-31h1950l85 31 86 30 58 39c75 49 142 116 191 191l39 58 30 86 31 85v1950l-31 85-30 86-39 58c-44 67-113 138-171 178l-39 27-49-14-49-15H1541l-1046 1-65 8c-36 5-76 12-90 16l-26 6-64-50zm2212-543c79-37 120-70 162-131l35-52 16-57 16-58-3-308-3-307-33-67-32-66-55-51-55-50-58-23-57-23-822-3-823-3V699l-25-24-24-25H389l-24 25-25 24v1599l31 26 31 26 1002-2 1001-3 57-27zM754 1927c-2-7-3-98-2-202l3-190 758-3 757-2v410H759l-5-13z"/></g><g fill="#44b12a" transform="matrix(.1 0 0 -.1 0 300)"><path d="M149 2763c-65-83-84-118-116-208l-28-80V525l31-85 30-86 39-58c49-75 116-142 191-191l58-39 86-30 85-31h1950l85 31 86 30 58 39c75 49 142 116 191 191l39 58 30 86 31 85v1950l-28 80c-32 89-51 125-111 202l-40 52-21-18c-11-10-31-22-44-26l-25-8-235 2c-130 0-687 1-1239 1H249l-28 30-28 31-44-58zm2323-445 57-26 45-42 46-43 33-66 32-66v-680l-23-49c-31-67-82-127-139-164l-48-31-60-16-59-15H761l-3-209-3-209-24-26-24-26H386l-23 22-23 21v1608l25 25 24 24 1013-2 1013-3 57-27zM764 1931c-2-2-4-91-4-198v-193h1510v390l-751 2c-413 2-753 1-755-1z"/></g><g fill="#3ea326" transform="matrix(.1 0 0 -.1 0 300)"><path d="M133 2743c-48-62-70-103-100-188l-28-80V525l31-85 30-86 39-58c49-75 116-142 191-191l58-39 86-30 85-31h1950l85 31 86 30 58 39c75 49 142 116 191 191l39 58 30 86 31 85v1950l-28 79c-31 88-62 144-107 196l-30 35 5-35c8-53 14-69 45-140 16-36 36-93 45-126l16-62-3-963-3-964-24-60c-14-33-44-90-68-127l-44-67-56-50-55-49-62-31c-34-17-91-38-127-48l-64-18H565l-63 18c-35 9-93 31-128 49l-65 32-54 48-54 49-44 67c-24 37-54 94-68 127l-24 60-3 964-3 963 16 62c9 33 27 86 42 116 14 30 33 83 43 118l17 62h-7c-5 0-21-17-37-37z"/></g></g></svg>