<?xml version="1.0" encoding="UTF-8"?>
<svg xmlns="http://www.w3.org/2000/svg" baseProfile="tiny-ps" version="1.2" viewBox="0 0 50 50">
<title>Amisgest Technologie Inc.</title>
  <g>
    <g id="Calque_1">
      <rect width="50" height="50" fill="#fff"/>
      <g>
        <path d="M11,35.5h.2c0-1-.3-1.3-1.1-1.3s-.8,0-.8.4v.3h-.6v-.4c0-.6,1-.7,1.4-.7,1.4,0,1.7.7,1.7,1.7v2.1c0,.1,0,.2.2.2h.4v.5h-.6c-.4,0-.5-.2-.5-.5s0-.3,0-.3h0s-.4.9-1.4.9-1.5-.4-1.5-1.3c0-1.4,1.9-1.5,2.6-1.5M9.9,37.8c.8,0,1.3-.9,1.3-1.6v-.2h-.2c-.7,0-2,0-2,1s.3.8,1,.8" fill="#6ebbd5"/>
        <path d="M13,34.6c0-.1,0-.2-.2-.2h-.4v-.5h.6c.4,0,.5.2.5.5v.2c0,.2,0,.3,0,.3h0c.2-.6.9-1.1,1.6-1.1s1.2.4,1.3,1.1h0c.2-.6.9-1.1,1.6-1.1,1,0,1.4.6,1.4,1.7v2c0,.1,0,.2.2.2h.4v.5h-.6c-.4,0-.5-.2-.5-.5v-2.1c0-.7-.1-1.3-.9-1.3s-1.2.6-1.4,1.2c0,.2,0,.4,0,.6v2h-.6v-2.6c0-.7,0-1.3-.9-1.3s-1.2.6-1.4,1.3c0,.2,0,.4,0,.6v2h-.6v-3.6Z" fill="#6ebbd5"/>
        <path d="M20.8,34.6c0-.1,0-.2-.2-.2h-.4v-.5h.6c.4,0,.5.2.5.5v3.1c0,.1,0,.2.2.2h.4v.5h-.6c-.4,0-.5-.2-.5-.5v-3.1ZM20.8,32.2h.6v.7h-.6v-.7Z" fill="#6ebbd5"/>
        <path d="M22.6,37.1s.5.7,1.3.7.9-.2.9-.7c0-.9-2.4-.8-2.4-2.2s.7-1.2,1.5-1.2,1.3.2,1.3.8v.4h-.5v-.2c0-.3-.5-.4-.7-.4-.6,0-1,.2-1,.6,0,1,2.4.7,2.4,2.2s-.7,1.2-1.5,1.2-1.7-.8-1.7-.8l.3-.4Z" fill="#6ebbd5"/>
        <path d="M27.8,33.7c1,0,1.3.6,1.3.6h0c0-.3.1-.5.5-.5h1v.9h-.3c-.1,0-.2,0-.2.2v3c0,1.5-1.2,2.1-2.3,2.1s-1.1-.2-1.6-.4l.3-.9s.5.3,1.2.3,1.2-.3,1.2-1.1v-.2c0-.1,0-.2,0-.2h0c-.3.4-.6.6-1.2.6-1.3,0-2-1-2-2.2s.7-2.2,1.9-2.2M29,35.9c0-1-.5-1.3-1.1-1.3s-1,.5-1,1.2.4,1.3,1.1,1.3,1-.3,1-1.3" fill="#6ebbd5"/>
        <path d="M33.1,33.7c1.3,0,1.9.9,1.9,2.1s0,.4,0,.4h-3c0,.8.7,1.2,1.3,1.2s1.2-.5,1.2-.5l.5.8s-.7.7-1.8.7-2.3-1-2.3-2.3.9-2.3,2.2-2.3M33.9,35.4c0-.5-.4-.9-.8-.9s-1,.3-1.1.9h1.9Z" fill="#6ebbd5"/>
        <path d="M35.9,36.8s.6.6,1.3.6.6-.1.6-.4c0-.6-2.3-.6-2.3-2s.8-1.3,1.7-1.3,1.5.2,1.5.9v.5h-1v-.2c0-.2-.3-.3-.5-.3-.4,0-.7.1-.7.4,0,.7,2.3.5,2.3,2s-.7,1.3-1.7,1.3-1.8-.8-1.8-.8l.5-.7Z" fill="#6ebbd5"/>
        <path d="M39.7,34.7h-.6v-.9h.6v-1.2h1.1v1.2h1v.9h-1v1.8c0,.7.6.8.9.8s.2,0,.2,0v1s-.1,0-.3,0c-.6,0-1.8-.2-1.8-1.6v-1.9Z" fill="#6ebbd5"/>
        <path d="M37.3,18.5c-3.3-1.9-6.8,1.1-7.5-1-.8-2.4-.7-9.5-7.8-9.4-3.7,0-5.4,3.5-6,5.5-.6,2.6-.4,5.1.7,7.5,1.2,2.8,3.9,5.8,9.7,6.8,9.6,1.6,12.1-2.7,12.7-4.4.6-1.8.1-3.8-1.9-5" fill="#6ebbd5"/>
        <path d="M15.6,20.9c-1.2-2.4-1.4-4.9-.7-7.5.3-1.1,1-2.7,2.1-3.8-.6-.6-2.1-1.8-4.3-.6-2.3,1.3-5.5,8.2,5.1,15.2-1.1-1-1.8-2.2-2.3-3.3" fill="#90c9dd"/>
        <path d="M14.2,25.4c.3,0,1.5-.1.9-1.2-.1-.2-.4-.6-.2-.7.1-.1.6.2.8.4.1.1,5.9,5.8,13.9,5.2,0,0,0,0,.1,0,0,0,0,0,0,0-.2.2-7.8,2.3-15.6-3.3-.1,0-.5-.3-.5-.5,0-.2.3-.1.6-.1" fill="#9fc54d"/>
        <path d="M37.5,17.2c.1,0,.2.2.4.2-.3-.5-.6-1.1-1.1-1.6-2.4-2.7-5.1-2-6.6-1.3.1.7.3,1.4.4,1.8.6,1.9,3.9-.9,6.9.9" fill="#90c9dd"/>
      </g>
    </g>
  </g>
</svg>