<?xml version="1.0" encoding="utf-8"?>
<!-- Generator: Adobe Illustrator 28.1.0, SVG Export Plug-In . SVG Version: 6.00 Build 0)  -->
<svg version="1.2" baseProfile="tiny-ps" id="Layer_1" xmlns="http://www.w3.org/2000/svg" xmlns:xlink="http://www.w3.org/1999/xlink"
	 viewBox="0 0 200 200" xml:space="preserve">
	 <title>ZOHO</title>
<g>
	<g>
		<g>
			<path fill="#089949" d="M89.387,122.937c-1.305,0-2.626-0.271-3.897-0.83l0,0l-27.11-12.081
				c-4.846-2.152-7.032-7.862-4.88-12.708l12.081-27.11c2.152-4.846,7.862-7.032,12.708-4.88l27.11,12.081
				c4.846,2.152,7.032,7.862,4.88,12.708l-12.081,27.11C96.588,120.819,93.064,122.937,89.387,122.937z M87.744,117.024
				c2.05,0.915,4.456-0.017,5.371-2.05l12.081-27.11c0.915-2.05-0.017-4.456-2.05-5.371L76.019,70.412
				c-2.05-0.915-4.456,0.017-5.371,2.05l-12.081,27.11c-0.915,2.05,0.017,4.456,2.05,5.371L87.744,117.024z"/>
		</g>
		<g>
			<path fill="#F9B21D" d="M174.427,122.954h-29.685c-5.303,0-9.624-4.321-9.624-9.624V83.645c0-5.303,4.321-9.624,9.624-9.624
				h29.685c5.303,0,9.624,4.321,9.624,9.624v29.685C184.051,118.634,179.73,122.954,174.427,122.954z M144.742,79.579
				c-2.237,0-4.066,1.83-4.066,4.066v29.685c0,2.237,1.83,4.066,4.066,4.066h29.685c2.237,0,4.066-1.83,4.066-4.066V83.645
				c0-2.237-1.83-4.066-4.066-4.066H144.742z"/>
		</g>
		<path fill="#E42527" d="M63.261,89.084l-3.999,8.946c-0.051,0.102-0.102,0.186-0.152,0.271l1.559,9.624
			c0.356,2.22-1.152,4.304-3.355,4.659l-29.312,4.744c-1.067,0.169-2.152-0.085-3.033-0.712c-0.881-0.627-1.457-1.576-1.627-2.643
			l-4.744-29.312c-0.169-1.067,0.085-2.152,0.712-3.033c0.627-0.881,1.576-1.457,2.643-1.627l29.312-4.744
			c0.22-0.034,0.441-0.051,0.644-0.051c1.948,0,3.694,1.423,4.016,3.423l1.576,9.692l4.134-9.268l-0.22-1.305
			c-0.847-5.236-5.795-8.811-11.03-7.963L21.071,74.53c-2.525,0.39-4.761,1.762-6.252,3.846c-1.508,2.084-2.101,4.626-1.694,7.167
			l4.744,29.312c0.407,2.542,1.779,4.761,3.863,6.269c1.644,1.203,3.592,1.813,5.608,1.813c0.508,0,1.034-0.034,1.559-0.119
			l29.312-4.744c5.236-0.847,8.811-5.795,7.963-11.03L63.261,89.084z"/>
		<g>
			<path fill="#226DB4" d="M98.418,103.079l4.304-9.641l-1.22-8.963c-0.152-1.067,0.136-2.135,0.796-2.999
				c0.661-0.864,1.61-1.423,2.694-1.559l29.414-3.999c0.186-0.017,0.373-0.034,0.559-0.034c0.881,0,1.728,0.288,2.457,0.83
				c0.136,0.102,0.254,0.22,0.373,0.322c1.305-1.372,3.016-2.355,4.931-2.779c-0.542-0.746-1.186-1.406-1.949-1.982
				c-2.05-1.559-4.575-2.22-7.116-1.881l-29.448,3.999c-2.542,0.339-4.812,1.66-6.354,3.711c-1.559,2.05-2.22,4.575-1.881,7.116
				L98.418,103.079z"/>
			<path fill="#226DB4" d="M148.469,108.044l-3.863-28.465c-2.169,0.068-3.914,1.864-3.914,4.049v8.353l2.287,16.808
				c0.152,1.067-0.136,2.135-0.796,2.999c-0.661,0.864-1.61,1.423-2.694,1.559l-29.414,3.999c-1.067,0.152-2.135-0.136-2.999-0.796
				c-0.864-0.661-1.423-1.61-1.559-2.694l-1.355-9.98l-4.304,9.641l0.152,1.084c0.339,2.542,1.66,4.812,3.711,6.354
				c1.694,1.288,3.711,1.965,5.812,1.965c0.441,0,0.881-0.034,1.322-0.085l29.38-3.965c2.542-0.339,4.812-1.66,6.354-3.711
				C148.147,113.11,148.808,110.585,148.469,108.044z"/>
		</g>
	</g>
	<g>
		<path d="M65.48,137.034l4.202-6.201h-3.456c-0.186,0-0.339-0.152-0.339-0.339v-0.83c0-0.186,0.152-0.339,0.339-0.339h5.676
			c0.186,0,0.339,0.152,0.339,0.339v0.322c0,0.068-0.017,0.136-0.051,0.186l-4.117,6.201h3.694c0.186,0,0.339,0.152,0.339,0.339
			v0.83c0,0.186-0.152,0.339-0.339,0.339h-5.998c-0.186,0-0.339-0.152-0.339-0.339v-0.305
			C65.412,137.153,65.446,137.085,65.48,137.034z"/>
		<path d="M83.169,133.544c0-2.542,1.864-4.371,4.405-4.371c2.626,0,4.405,1.796,4.405,4.388c0,2.626-1.813,4.439-4.439,4.439
			C84.897,138,83.169,136.187,83.169,133.544z M89.963,133.578c0-1.542-0.746-2.863-2.423-2.863c-1.694,0-2.338,1.372-2.338,2.931
			c0,1.474,0.796,2.83,2.423,2.83C89.303,136.458,89.963,135.018,89.963,133.578z"/>
		<path d="M104.027,129.308h1.254c0.186,0,0.339,0.152,0.339,0.339v3.151h3.558v-3.151c0-0.186,0.152-0.339,0.339-0.339h1.254
			c0.186,0,0.339,0.152,0.339,0.339v7.879c0,0.186-0.152,0.339-0.339,0.339h-1.237c-0.186,0-0.339-0.152-0.339-0.339v-3.185h-3.558
			v3.185c0,0.186-0.152,0.339-0.339,0.339h-1.254c-0.186,0-0.339-0.152-0.339-0.339v-7.879
			C103.688,129.46,103.84,129.308,104.027,129.308z"/>
		<path d="M122.817,133.544c0-2.542,1.864-4.371,4.405-4.371c2.626,0,4.405,1.796,4.405,4.388c0,2.626-1.813,4.439-4.439,4.439
			C124.545,138,122.817,136.187,122.817,133.544z M129.594,133.578c0-1.542-0.746-2.863-2.423-2.863
			c-1.694,0-2.338,1.372-2.338,2.931c0,1.474,0.796,2.83,2.423,2.83C128.933,136.458,129.594,135.018,129.594,133.578z"/>
	</g>
</g>
</svg>
