<?xml version="1.0" encoding="utf-8"?>
<!-- Generator: Adobe Illustrator 25.4.1, SVG Export Plug-In . SVG Version: 6.00 Build 0)  -->
<svg version="1.2" baseProfile="tiny-ps" id="Layer_1" xmlns="http://www.w3.org/2000/svg" xmlns:xlink="http://www.w3.org/1999/xlink"
	 viewBox="0 0 1000 1000" xml:space="preserve">
<title>Motorola</title>
<path fill="#081728" d="M499.9,35.7C243.5,35.7,35.8,243.5,35.8,500c0,256.4,207.7,464.3,464.2,464.3
	c256.4,0,464.3-207.9,464.3-464.3C964.2,245,759.7,35.7,499.9,35.7"/>
<path fill="#FFFFFF" d="M783.4,734.6c0,0-22.5-101.7-59.1-162.4c-19.9-33.2-50.6-60.1-91.6-59.3c-29,0.6-54,16.4-85.1,60.1
	c-18.8,26.2-47.8,93-47.8,93s-11.3-26.1-24.4-52c-7.8-15.7-16.2-31.2-23.3-41c-31.2-43.7-56.3-59.5-85.1-60.1
	c-41-0.8-71.7,26.2-91.6,59.2c-36.6,60.9-59,162.5-59,162.5H183l178.2-584.7l137.7,456.7l1,0.8l0.9-0.8l137.7-456.7l178.3,584.7
	H783.4z"/>
</svg>
