<?xml version="1.0" encoding="utf-8"?>
<!-- Generator: Adobe Illustrator 27.7.0, SVG Export Plug-In . SVG Version: 6.00 Build 0)  -->
<svg version="1.2" baseProfile="tiny-ps" id="Layer_1" xmlns="http://www.w3.org/2000/svg" xmlns:xlink="http://www.w3.org/1999/xlink"
	 viewBox="0 0 454 454" xml:space="preserve"> 
<title>Heart &amp; Soil</title>
<g>
	<path fill="#212121" d="M312.3,87c2.7,4.8,4.4,10.3,4.9,16.2c0.2,3,0,6-0.6,9.1c-0.6,3-1.8,6-3.3,8.7c-3,5.5-7.4,9.9-12.1,13.3
		c-2.4,1.7-4.7,3.2-7.3,4.5c-1.5,0.8-2.2,1.1-3.6,1.8l-3.3,1.5l-13.2,6.2c-4.3,2.1-8.6,4.1-12.5,6.3c-3.9,2.2-7,4.3-9.8,7
		c-0.6,0.5-0.9,0.9-1.4,1.4c-0.2,0.2-0.4,0.4-0.6,0.6l-1.2,1.4l-0.9,1.1c-1.4,1.6-2.5,3.2-3.6,4.8c-2.1,3.3-3.7,6.6-4.4,9.9
		c-0.8,3.2-0.8,6.3,0,9.1c0.7,2.6,2,5,3.9,7c0.2-2.9,0.6-6.1,1.3-9.5c0.5-2.6,1.3-5.4,2.4-8.1c1.2-2.7,2.7-5.5,4.7-8
		c1.9-2.5,4.4-4.8,7-6.5c1.3-0.9,2.7-1.7,4.1-2.3l1-0.5l1.2-0.5l0.6-0.2c0,0,0.1,0,0.1,0c0.1,0,0.2-0.1,0.3-0.1
		c0.3,0.1,1,0.7,2.4,2.9l5,10.2c0.9,2.4,1,3.3,0.9,3.6c-0.1,0.1-0.2,0.1-0.2,0.2c0,0-0.1,0-0.1,0.1l-0.2,0.1l-0.7,0.7
		c-0.5,0.5-1,1-1.4,1.5c-0.8,1-1.4,2.1-2,3.2c-1.1,2.2-2,4.9-2.7,8.3c-0.3,1.7-0.6,3.5-0.8,5.5l-0.6,6.4c-0.1,1.2-0.2,2.5-0.5,3.9
		c-0.2,1.4-0.5,3-1.2,5.1c-0.4,1.1-0.8,2.3-1.7,3.7c-0.9,1.4-2.2,3.2-4.3,4.6c-2,1.5-4.7,2.3-6.8,2.6c-2.1,0.2-3.8,0-5.2-0.2
		l-0.4-0.1l-0.4-0.1c-6.8-1.9-12.7-5.6-17.5-10.4c-0.4-0.4-0.8-0.9-1.3-1.4c-0.4,0.5-0.8,0.9-1.3,1.4c-4.7,4.9-10.7,8.5-17.5,10.4
		l-0.4,0.1l-0.4,0.1c-1.4,0.3-3,0.5-5.2,0.2c-2.1-0.2-4.7-1.1-6.8-2.6c-2.1-1.5-3.4-3.2-4.3-4.6c-0.9-1.4-1.3-2.6-1.7-3.7
		c-0.7-2.1-0.9-3.7-1.2-5.1c-0.2-1.4-0.3-2.7-0.5-3.9l-0.6-6.4c-0.2-2-0.5-3.8-0.8-5.5c-0.7-3.4-1.6-6.1-2.7-8.3
		c-0.6-1.1-1.2-2.2-2-3.2c-0.4-0.5-0.9-1-1.4-1.5l-0.7-0.7l-0.2-0.1c0,0-0.1-0.1-0.1-0.1c-0.1-0.1-0.2-0.1-0.2-0.2
		c-0.2-0.3,0-1.2,0.9-3.6l5-10.2c1.4-2.2,2-2.8,2.4-2.9c0.1,0,0.2,0,0.3,0.1c0,0,0.1,0,0.1,0l0.6,0.2l1.2,0.5l1,0.5
		c1.4,0.7,2.8,1.4,4.1,2.3c2.6,1.8,5,4,7,6.5c2,2.5,3.5,5.3,4.6,8c1.2,2.7,1.9,5.5,2.5,8.1c0.7,3.3,1,6.5,1.2,9.5
		c1.8-2,3.2-4.4,3.9-7c0.8-2.8,0.7-5.9,0-9.1c-0.8-3.2-2.4-6.6-4.4-9.9c-1.1-1.6-2.2-3.3-3.6-4.8l-0.9-1.1l-1.2-1.4
		c-0.2-0.2-0.3-0.4-0.5-0.5c-0.5-0.6-0.9-1-1.5-1.5c-2.7-2.7-5.8-4.8-9.8-7c-3.8-2.2-8.1-4.2-12.4-6.3l-13.2-6.2l-3.3-1.5
		c-1.4-0.7-2.1-1-3.6-1.8c-2.6-1.3-4.9-2.8-7.3-4.5c-4.7-3.4-9-7.8-12.1-13.3c-1.5-2.7-2.6-5.7-3.3-8.7c-0.6-3-0.8-6.1-0.6-9.1
		c0.5-6,2.2-11.4,4.9-16.2c0.8-1.5,1.6-2.6,2.5-3.8c0.9-1.1,1.8-2.2,2.8-3.2c1.9-2,4-3.8,6.3-5.3c4.5-3.1,9.4-5.3,14.6-6.6
		c5.2-1.2,10.7-1.4,15.8-0.1c2.5,0.7,4.9,1.7,7.1,3c2.2,1.3,4.1,3,5.8,4.8c-4.1-2.7-8.8-4.2-13.4-4.3c-4.6-0.2-9.1,0.9-13.2,2.7
		c-4.1,1.8-7.8,4.4-10.9,7.5c-1.6,1.5-3,3.1-4.2,4.8c-0.6,0.9-1.1,1.7-1.6,2.6c-0.5,0.9-0.9,1.8-1.2,2.5c-1.4,3.9-2.1,8.1-1.9,11.9
		c0.3,3.8,1.5,7.1,3.5,10c2,2.9,4.9,5.3,8.4,7.3c1.7,1,3.7,1.9,5.4,2.6c0.7,0.3,2.3,0.9,3.1,1.2l3.5,1.3c1.2,0.5,2.4,0.9,3.7,1.4
		c3.4,1.2,6.8,2.5,10.2,3.9c4.6,1.8,9.3,3.7,14.2,6c4.8,2.3,10,5.4,14.5,9.3c1,0.9,2.2,2,3.1,2.9l0.1,0.1l1.3,1.3l1.5,1.7
		c1.8,1.9,3.5,4.1,5.1,6.3c1.6-2.2,3.3-4.4,5.1-6.3l1.5-1.7l1.3-1.3c0.9-0.9,2.2-2.1,3.2-3c4.4-3.9,9.7-7.1,14.5-9.3
		c4.8-2.3,9.5-4.2,14.2-6c3.5-1.4,7.1-2.7,10.6-4c1.1-0.4,2.2-0.8,3.3-1.2l3.4-1.3c0.8-0.3,2.4-0.9,3.1-1.2c1.8-0.7,3.7-1.7,5.4-2.6
		c3.5-2,6.4-4.4,8.4-7.3c2-2.9,3.3-6.2,3.5-10c0.3-3.7-0.5-7.9-1.9-11.9c-0.3-0.7-0.7-1.6-1.2-2.5c-0.5-0.9-1-1.8-1.6-2.6
		c-1.2-1.7-2.6-3.3-4.2-4.8c-3.1-3.1-6.8-5.7-10.9-7.5c-4.1-1.9-8.6-2.9-13.2-2.7c-4.6,0.1-9.3,1.7-13.4,4.3
		c1.7-1.8,3.6-3.4,5.7-4.8c2.2-1.3,4.6-2.3,7.1-3c5.1-1.3,10.6-1.1,15.8,0.1c5.2,1.3,10.1,3.5,14.6,6.6c2.2,1.6,4.3,3.3,6.3,5.3
		c1,1,1.9,2.1,2.8,3.2C310.7,84.3,311.5,85.5,312.3,87z"/>
	<path fill="#212121" d="M312.4,271.5c-2.9-3.2-6.9-4.8-12.2-4.8c-5.6,0-9.8,1.6-12.6,4.9c-2.8,3.3-4.2,7.4-4.2,12.4
		c0,3.2,0.7,6.2,2,9.2c1.4,3,2.8,5.3,4.2,7c1.4,1.7,3.4,3.8,5.9,6.3c2.1,2,3.5,3.5,4.3,4.3c0.8,0.8,1.9,2,3.2,3.6
		c1.3,1.6,2.2,3.1,2.6,4.4c0.5,1.4,0.7,2.9,0.7,4.5c0,4.5-2.1,6.8-6.2,6.8c-4.3,0-6.4-2.9-6.4-8.7v-4.1c0-0.7-0.2-1.2-0.7-1.7
		c-0.5-0.5-1.1-0.7-1.7-0.7h-5.9c-0.7,0-1.3,0.2-1.8,0.7c-0.5,0.5-0.7,1.1-0.7,1.7v4.9c0,5.3,1.6,9.7,4.7,13.1
		c3.1,3.4,7.4,5.1,12.6,5.1c5.1,0,9.3-1.6,12.5-4.9c3.2-3.3,4.8-7.7,4.8-13.2c0-4.4-1-8.3-3.1-11.6c-2.1-3.3-5.3-7.2-9.6-11.5
		c-2.6-2.6-4.5-4.5-5.6-5.7c-1.1-1.2-2.2-2.8-3.2-4.6c-1-1.8-1.5-3.6-1.5-5.4c0-2,0.5-3.6,1.4-4.8c0.9-1.2,2.4-1.8,4.2-1.8
		c1.9,0,3.3,0.8,4.2,2.3c0.9,1.5,1.4,4,1.4,7.5v2.1c0,0.5,0.2,0.9,0.6,1.3c0.4,0.4,0.8,0.6,1.3,0.6h6.8c0.6,0,1.1-0.2,1.5-0.6
		c0.4-0.4,0.6-0.9,0.6-1.5v-2.4C316.7,279.6,315.3,274.7,312.4,271.5z"/>
	<path fill-rule="evenodd" fill="#212121" d="M356,271.5c-3.3-3.2-7.7-4.8-13.3-4.8c-5.6,0-10,1.6-13.3,4.8
		c-3.3,3.2-4.9,7.5-4.9,12.8v38.6c0,5.3,1.6,9.6,4.9,12.8c3.3,3.2,7.7,4.8,13.3,4.8c5.6,0,10-1.6,13.3-4.8c3.3-3.2,4.9-7.5,4.9-12.8
		v-38.6C360.9,279,359.3,274.7,356,271.5z M336.6,284c0-4.6,2-6.9,6.1-6.9c4.1,0,6.1,2.3,6.1,6.9v39.2c0,4.6-2,6.9-6.1,6.9
		c-4.1,0-6.1-2.3-6.1-6.9V284z"/>
	<path fill="#212121" d="M46.1,269.1c-0.5-0.5-1.1-0.7-1.7-0.7h-6.9c-0.7,0-1.3,0.2-1.8,0.7c-0.5,0.5-0.7,1-0.7,1.8v65.5
		c0,0.7,0.2,1.3,0.7,1.8c0.5,0.5,1.1,0.7,1.8,0.7h6.9c0.7,0,1.2-0.2,1.7-0.7c0.5-0.5,0.7-1,0.7-1.8v-27c0-0.7,0.3-1,1-1h10.7
		c0.7,0,1,0.3,1,1v27c0,0.7,0.2,1.3,0.7,1.8c0.5,0.5,1.1,0.7,1.8,0.7h6.9c0.7,0,1.2-0.2,1.7-0.7c0.5-0.5,0.7-1,0.7-1.8v-65.5
		c0-0.7-0.3-1.3-0.7-1.8c-0.5-0.5-1.1-0.7-1.7-0.7H62c-0.7,0-1.3,0.2-1.8,0.7c-0.5,0.5-0.7,1-0.7,1.8v26.2c0,0.7-0.3,1-1,1H47.9
		c-0.7,0-1-0.3-1-1v-26.2C46.9,270.2,46.6,269.6,46.1,269.1z"/>
	<path fill="#212121" d="M111.5,269.1c-0.5-0.5-1.1-0.7-1.7-0.7H84.3c-0.7,0-1.3,0.2-1.8,0.7c-0.5,0.5-0.7,1-0.7,1.8v65.5
		c0,0.7,0.2,1.3,0.7,1.8c0.5,0.5,1,0.7,1.8,0.7h26.3c0.7,0,1.2-0.2,1.7-0.7c0.5-0.5,0.7-1,0.7-1.8v-5.6c0-0.7-0.2-1.2-0.7-1.7
		c-0.5-0.5-1.1-0.7-1.7-0.7h-16c-0.7,0-1-0.3-1-1v-19.1c0-0.7,0.3-1,1-1h10.3c0.7,0,1.2-0.2,1.7-0.7c0.5-0.5,0.7-1.1,0.7-1.7v-5
		c0-0.7-0.2-1.3-0.7-1.8c-0.5-0.5-1.1-0.7-1.7-0.7H94.5c-0.7,0-1-0.3-1-1v-16.9c0-0.6,0.3-1,1-1h15.3c0.7,0,1.2-0.2,1.7-0.7
		c0.5-0.5,0.7-1.1,0.7-1.7v-5.4C112.2,270.2,112,269.6,111.5,269.1z"/>
	<path fill-rule="evenodd" fill="#212121" d="M143.7,269.2c-0.6-0.5-1.2-0.7-1.9-0.7h-9c-0.7,0-1.4,0.2-1.9,0.7
		c-0.6,0.5-0.9,1.1-0.9,1.7l-11.7,65.5c-0.1,0.6,0,1.2,0.4,1.7c0.4,0.5,1,0.7,1.6,0.7h6.4c0.7,0,1.2-0.2,1.8-0.7
		c0.5-0.5,0.9-1,1-1.7l1.7-11.2c0-0.6,0.4-1,1.1-1h10c0.7,0,1.1,0.3,1.1,1l1.6,11.2c0.1,0.6,0.4,1.2,0.9,1.7
		c0.6,0.5,1.2,0.7,1.9,0.7h6.4c0.7,0,1.2-0.2,1.6-0.7c0.4-0.5,0.6-1.1,0.4-1.7l-11.7-65.5C144.6,270.2,144.3,269.7,143.7,269.2z
		 M133.1,313.1l4.2-27.1c0.1-0.1,0.2-0.1,0.3,0l4.1,27.1c0.1,0.3,0,0.5-0.2,0.7c-0.2,0.2-0.4,0.3-0.7,0.3h-6.8
		C133.2,314.1,132.9,313.8,133.1,313.1z"/>
	<path fill-rule="evenodd" fill="#212121" d="M194.4,273.9c-2.3-3.6-6.6-5.5-12.9-5.5h-15.8c-0.7,0-1.3,0.2-1.7,0.7
		c-0.5,0.5-0.7,1-0.7,1.8v65.5c0,0.7,0.2,1.3,0.7,1.8c0.5,0.5,1,0.7,1.7,0.7h6.8c0.7,0,1.3-0.2,1.8-0.7c0.5-0.5,0.7-1,0.7-1.8v-25.8
		c0-0.6,0.3-1,1-1h2.2c0.7,0,1.1,0.3,1.3,1l7,25.9c0.5,1.6,1.5,2.3,3.1,2.3h6.5c0.7,0,1.1-0.2,1.5-0.7c0.3-0.5,0.4-1,0.3-1.6
		l-8.2-27.6c-0.2-0.6,0-1.1,0.6-1.4c2.8-1.4,4.8-3.4,5.9-6c1.1-2.6,1.7-6.6,1.7-12C197.9,282.7,196.7,277.5,194.4,273.9z M176,278.2
		h3.6c2.7,0,4.5,0.8,5.4,2.3c0.9,1.5,1.4,4.4,1.4,8.7c0,4.3-0.5,7.2-1.4,8.7c-0.9,1.5-2.7,2.3-5.4,2.3H176c-0.6,0-1-0.3-1-1v-20.1
		C175,278.5,175.3,278.2,176,278.2z"/>
	<path fill="#212121" d="M237.1,269.1c-0.5-0.5-1.1-0.7-1.7-0.7h-31.5c-0.7,0-1.3,0.2-1.8,0.7c-0.5,0.5-0.7,1-0.7,1.8v5.5
		c0,0.7,0.2,1.2,0.7,1.7c0.5,0.5,1,0.7,1.8,0.7h9c0.7,0,1,0.3,1,1v56.5c0,0.7,0.3,1.3,0.7,1.8c0.5,0.5,1.1,0.7,1.7,0.7h6.8
		c0.7,0,1.3-0.2,1.8-0.7c0.5-0.5,0.7-1,0.7-1.8v-56.5c0-0.7,0.3-1,1-1h8.8c0.7,0,1.2-0.2,1.7-0.7c0.5-0.5,0.7-1.1,0.7-1.7v-5.5
		C237.8,270.2,237.6,269.6,237.1,269.1z"/>
	<path fill="#212121" d="M379.2,269.1c-0.5-0.5-1.1-0.7-1.8-0.7h-7c-0.7,0-1.4,0.2-1.8,0.7c-0.5,0.5-0.7,1-0.7,1.8v65.5
		c0,0.7,0.2,1.3,0.7,1.8c0.5,0.5,1.1,0.7,1.8,0.7h7c0.7,0,1.3-0.2,1.8-0.7c0.5-0.5,0.8-1,0.8-1.8v-65.5
		C380,270.2,379.7,269.6,379.2,269.1z"/>
	<path fill="#212121" d="M278.7,329.1c-0.5-0.4-1.1-0.7-1.7-0.7h-31.5c-0.7,0-1.3,0.2-1.8,0.7c-0.5,0.5-0.7,1-0.7,1.7v5.5
		c0,0.6,0.2,1.2,0.7,1.7c0.5,0.5,1,0.7,1.8,0.7H277c0.7,0,1.2-0.2,1.7-0.7c0.5-0.5,0.7-1,0.7-1.7v-5.5
		C279.4,330.2,279.2,329.6,278.7,329.1z"/>
	<path fill="#212121" d="M400.2,269c-0.5-0.5-1.1-0.7-1.8-0.7h-6.9c-0.7,0-1.3,0.2-1.8,0.7c-0.5,0.5-0.7,1-0.7,1.8v65.3
		c0,0.7,0.2,1.3,0.7,1.8c0.5,0.5,1.1,0.7,1.8,0.7h25.1c0.7,0,1.3-0.2,1.8-0.7c0.5-0.5,0.7-1,0.7-1.8v-5.4c0-0.7-0.2-1.3-0.7-1.7
		c-0.5-0.5-1.1-0.7-1.8-0.7h-14.7c-0.7,0-1-0.3-1-1v-56.5C400.9,270.1,400.7,269.5,400.2,269z"/>
	<path fill-rule="evenodd" fill="#212121" d="M265.6,269.7c-1.7-2-4.2-3-7.3-3c-3.4,0-6.1,1.1-8,3.4c-1.9,2.3-2.9,5.2-2.9,8.8
		c0,3.3,1,7.5,3,12.5c0.2,0.4,0.1,0.8-0.2,1.1c-4.7,4.5-7.1,9.5-7.1,14.9c0,3.7,1.1,6.7,3.3,9c2.2,2.3,5.1,3.5,8.8,3.5
		c3.1,0,6-1.1,8.5-3.1c0.4-0.2,0.8-0.2,1.1,0.1c2.3,2,4.7,3.1,7.1,3.1c2.1,0,3.8-0.7,5.4-2.2c1.5-1.5,2.3-3.5,2.3-6.1V309
		c0-0.5-0.2-0.9-0.5-1.2c-0.3-0.4-0.8-0.5-1.3-0.5h-2c-0.4,0-0.8,0.2-1.1,0.5c-0.3,0.3-0.5,0.7-0.5,1v1.7c0,1.8-0.6,2.6-1.9,2.6
		c-1,0-1.9-0.5-2.9-1.6c-0.3-0.4-0.3-0.8-0.1-1.1c2.6-4.7,4.1-9.9,4.4-15.6c0.1-0.5-0.1-0.9-0.4-1.3c-0.3-0.4-0.7-0.5-1.2-0.5h-2.9
		c-1.2,0-1.8,0.6-1.9,1.8c-0.2,3.4-0.9,6.5-2.1,9.4c-0.1,0.1-0.1,0.2-0.3,0.2c-0.2,0-0.3-0.1-0.4-0.2c-1.4-2.6-3-6.1-4.7-10.4
		c-0.2-0.4-0.1-0.8,0.2-1.1c2.8-2.6,4.9-5,6.3-7.4c1.4-2.3,2.2-4.9,2.2-7.8C268.2,274.2,267.3,271.7,265.6,269.7z M250.9,306.3
		c0-2.2,0.8-4.4,2.3-6.6c0.3-0.4,0.5-0.4,0.7,0.1c1.6,4.1,3.4,7.6,5.4,10.6c0.3,0.4,0.2,0.8-0.1,1.1c-0.8,0.7-1.8,1-2.9,1
		c-1.7,0-3-0.6-3.9-1.6C251.4,309.8,250.9,308.3,250.9,306.3z M255.5,274.2c0.6-0.9,1.5-1.4,2.6-1.4c2,0,3,1.5,3,4.6
		c0,3.1-1.3,6.1-4,9.1c-0.1,0.1-0.2,0.1-0.4,0.1c-0.2,0-0.3-0.1-0.3-0.2c-1.1-3.4-1.7-6.2-1.7-8.4
		C254.6,276.4,254.9,275.1,255.5,274.2z"/>
</g>
</svg>
