<?xml version="1.0" encoding="UTF-8" standalone="yes"?>
<svg xmlns="http://www.w3.org/2000/svg" xml:space="preserve" width="600px" height="600px"
    version="1.2" baseProfile="tiny-ps" viewBox="-0 0 167.75 167.75"
    xmlns:xodm="http://www.corel.com/coreldraw/odm/2003"><title>IAAM Logo.svg</title>
 <defs>
  
  <linearGradient id="id0" gradientUnits="userSpaceOnUse" x1="91.33" y1="93.6" x2="92.21" y2="118.22">
   <stop offset="0" stop-opacity="1" stop-color="#EC9848"/>
   <stop offset="1" stop-opacity="1" stop-color="#814B3E"/>
  </linearGradient>
 </defs>
 <g id="Layer_x0020_1">
  <g id="_2724474461456">
   <path class="fil0" d="M62.26 28.21l-0.92 1.64 -1.84 -1.29c-0.52,0.66 -2.3,9.6 -2.99,11.49 -1.03,2.82 -4.15,9.52 -4.4,10.35 0.42,-0.04 0.73,-0.62 1.2,-1.22l8.65 -9.84c1.5,-1.53 3.61,-3.66 5.48,-5.14l5.9 -4.71c7.31,-5.54 18.45,-11.13 29.56,-12.56 -3.39,0.54 -11.42,4.17 -14.51,5.86 -5.97,3.28 -12.63,8.05 -17.67,12.82 -3.22,3.05 -13.37,13.53 -14.28,16.3 15.39,1.72 37.09,-0.54 49.83,-9.01 16.65,-11.08 12.73,-19.66 27.44,-24.77 2.05,-0.71 3.97,-0.99 6.21,-1.38 -2.12,-1.07 -11.53,-3.22 -14.42,-3.58 -0.22,-1.19 0.53,-1.54 0.74,-2.49 -2.28,-1.85 -8.98,-2.15 -12.47,-1.75 -1.55,0.17 -2.73,0.61 -4.09,0.85l0.01 -1.16 0.01 -0.49c-0.63,0.5 -6.59,2.94 -8.44,3.84l-4.89 1.97c-1.02,0.41 -0.48,0.47 -1.31,0.72l-0.91 0.35c-0.91,0.53 -1.15,0.44 -2.21,0.84 -1.03,0.38 -2.04,0.81 -3,1.29 -2.5,1.27 -1.25,0.49 -2.89,1.22l-4.57 1.96c-3.04,1.41 -9.41,3.86 -11.74,5.03 -0.49,0.25 -0.84,0.43 -1.36,0.64l-5.13 2.25c-0.15,0.07 -0.63,0.2 -0.9,0.28l-0.09 -0.31zm0 0l0.09 0.31c0.27,-0.08 0.75,-0.21 0.9,-0.28l5.13 -2.25c0.52,-0.21 0.87,-0.39 1.36,-0.64 2.33,-1.17 8.7,-3.62 11.74,-5.03l4.57 -1.96c1.64,-0.73 0.39,0.05 2.89,-1.22 0.96,-0.48 1.97,-0.91 3,-1.29 1.06,-0.4 1.3,-0.31 2.21,-0.84l0.91 -0.35c0.83,-0.25 0.29,-0.31 1.31,-0.72l4.89 -1.97c1.85,-0.9 7.81,-3.34 8.44,-3.84l-0.01 0.49 0.24 -1.47 -3.27 -0.58 -5.5 0c-0.04,0.03 -0.11,0.01 -0.14,0.07 -0.03,0.05 -0.1,0.04 -0.14,0.05l-2.39 0.38c-7.72,1.73 -5.54,2.4 -6.22,0.15 -0.67,-0.36 -2.53,0.4 -3.35,0.7 -2.4,0.87 -5.19,2.11 -7.04,3.91 -0.46,0.45 -0.64,0.83 -1.15,1.05 -0.64,-0.74 -0.65,-1.82 -1.2,-2.67 -1.74,0.62 -5.73,4.93 -6.96,6.86 -0.53,0.82 -0.39,0.84 -0.91,1.21 -0.7,-0.35 -0.8,-0.77 -1.54,-1.16 -2.42,0.78 -7.23,8.84 -7.86,11.09z" fill="#1C3E9C"/>
   <path class="fil0" d="M7.97 34.39l0 0.01c9.67,1.03 8.27,7.17 16.5,12.7 6.3,4.24 15.56,5.2 24.52,4.6 -0.05,-0.91 -3.68,-4.84 -4.21,-5.41 -3.73,-4 -8.85,-8.02 -14.04,-10.26 -0.78,-0.33 -3.1,-1.08 -3.54,-1.37 1.71,0.02 5.84,1.55 7.28,2.24 4.2,2.04 8.04,4.76 11.24,7.94 0.95,0.95 3.94,3.9 4.47,5.12 0.47,-0.1 0.04,0.23 0.41,-0.15 0.01,-0.01 0.01,-0.06 0.02,-0.09 -0.25,-0.84 -0.64,-1.56 -0.96,-2.32 -0.97,-2.28 -1.44,-4.68 -1.97,-7.15 -0.82,0.15 -0.3,0.18 -1.06,0.42l-0.31 -0.52c-0.43,-0.31 -0.99,-0.39 -1.47,-0.6l-4.3 -1.87c-2.78,-1.31 -6.46,-2.6 -8.68,-3.66 -2.16,-1.03 -6.65,-2.99 -8.66,-3.65 -0.15,0.23 -0.29,-0.22 -0.27,0.55 -2.45,-0.41 -6.03,-0.96 -8.1,0.48l0.34 1.2c-2.25,0.36 -5.2,1.11 -7.21,1.79zm14.97 -3.47c-0.02,-0.77 0.12,-0.32 0.27,-0.55 2.01,0.66 6.5,2.62 8.66,3.65 2.22,1.06 5.9,2.35 8.68,3.66l4.3 1.87c0.48,0.21 1.04,0.29 1.47,0.6 -0.25,-1.25 -2.76,-5 -3.94,-5.57 -0.61,0.31 -0.25,0.25 -0.94,0.5 -0.55,-1.2 -2.48,-3.46 -3.73,-3.84l-0.39 1.1c-0.81,-0.23 -1.97,-1.61 -4.7,-2.5 -1.38,-0.45 -0.91,-0.23 -1.37,0.5 -0.96,-0.15 -1.8,-0.66 -3.93,-0.86 -1.48,-0.13 -3.2,-0.12 -4.58,0.11l0.2 1.33z" fill="#1C3E9C"/>
   <path class="fil0 str0" d="M125.1 32.4c20.72,11.89 34.68,34.23 34.68,59.83 0,38.08 -30.87,68.94 -68.94,68.94 -38.08,0 -68.95,-30.86 -68.95,-68.94 0,-13.31 3.78,-25.75 10.32,-36.29l19.56 -0.48c-9.04,9.6 -14.59,22.54 -14.59,36.77 0,29.63 24.03,53.65 53.66,53.65 29.63,0 53.65,-24.02 53.65,-53.65 0,-22.36 -13.68,-41.52 -33.13,-49.58l13.74 -10.25z" fill="#1C3E9C" stroke="#1C3E9C" stroke-width="2.33" stroke-miterlimit="2.61313"/>
   <path class="fil1" d="M113.24 157.45c-7.03,2.41 -14.56,3.72 -22.4,3.72 -38.08,0 -68.95,-30.86 -68.95,-68.94 0,-13.31 3.78,-25.75 10.32,-36.29l19.56 -0.48c-9.04,9.6 -14.59,22.54 -14.59,36.77 0,29.63 24.03,53.65 53.66,53.65 6.24,0 12.24,-1.07 17.81,-3.03l4.59 14.6z" fill="#FEFEFE"/>
   <path class="fil2" d="M44.13 132.75c-0.43,0.33 -0.85,0.57 -1.26,0.71 -0.41,0.14 -0.8,0.2 -1.16,0.17 -0.37,-0.03 -0.71,-0.14 -1.03,-0.33 -0.31,-0.19 -0.6,-0.45 -0.85,-0.77 -0.25,-0.34 -0.42,-0.68 -0.52,-1.04 -0.1,-0.36 -0.12,-0.72 -0.05,-1.08 0.07,-0.36 0.23,-0.72 0.47,-1.08 0.25,-0.36 0.59,-0.7 1.02,-1.03l1.02 -0.77c0.45,-0.34 0.88,-0.59 1.3,-0.73 0.42,-0.15 0.81,-0.22 1.19,-0.19 0.37,0.02 0.72,0.12 1.04,0.31 0.33,0.19 0.61,0.45 0.86,0.78 0.25,0.33 0.43,0.67 0.52,1.03 0.09,0.36 0.1,0.73 0.02,1.09 -0.07,0.37 -0.24,0.74 -0.5,1.1 -0.25,0.37 -0.6,0.72 -1.04,1.05l-1.03 0.78zm0.08 -2.03c0.3,-0.23 0.53,-0.44 0.71,-0.64 0.17,-0.2 0.3,-0.39 0.37,-0.57 0.07,-0.18 0.09,-0.36 0.06,-0.53 -0.03,-0.17 -0.11,-0.33 -0.23,-0.49 -0.12,-0.16 -0.26,-0.28 -0.41,-0.35 -0.16,-0.08 -0.33,-0.11 -0.53,-0.08 -0.19,0.01 -0.41,0.08 -0.65,0.2 -0.24,0.11 -0.51,0.28 -0.8,0.5l-1.03 0.79c-0.28,0.21 -0.51,0.42 -0.68,0.61 -0.16,0.19 -0.28,0.38 -0.34,0.56 -0.07,0.18 -0.08,0.35 -0.05,0.52 0.04,0.17 0.12,0.33 0.24,0.5 0.12,0.15 0.26,0.27 0.41,0.34 0.15,0.08 0.32,0.11 0.51,0.1 0.18,-0.02 0.4,-0.08 0.62,-0.19 0.23,-0.11 0.49,-0.28 0.77,-0.49l1.03 -0.78zm3.15 5.55l-1.65 -1.78 -2.32 2.14 -1.06 -1.14 5.69 -5.27 2.91 3.15 -0.96 0.89 -1.85 -2 -1.46 1.34 1.66 1.79 -0.96 0.88zm54.78 13.15l-1.89 0.31 1.05 6.36 -1.54 0.26 -1.06 -6.36 -1.86 0.31 -0.22 -1.29 5.3 -0.88 0.22 1.29zm6.29 1.84c0.13,0.52 0.18,1 0.15,1.43 -0.03,0.44 -0.13,0.81 -0.3,1.14 -0.17,0.32 -0.4,0.59 -0.7,0.81 -0.3,0.22 -0.65,0.38 -1.05,0.48 -0.4,0.1 -0.79,0.12 -1.16,0.07 -0.37,-0.05 -0.7,-0.17 -1.01,-0.38 -0.3,-0.2 -0.57,-0.49 -0.81,-0.85 -0.23,-0.37 -0.41,-0.82 -0.54,-1.34l-0.32 -1.25c-0.13,-0.54 -0.19,-1.03 -0.16,-1.48 0.03,-0.44 0.13,-0.83 0.29,-1.17 0.17,-0.33 0.41,-0.61 0.71,-0.84 0.29,-0.22 0.64,-0.38 1.05,-0.48 0.4,-0.1 0.79,-0.13 1.15,-0.07 0.37,0.06 0.71,0.19 1.01,0.41 0.31,0.21 0.58,0.51 0.82,0.89 0.23,0.38 0.42,0.84 0.55,1.38l0.32 1.25zm-1.84 -0.88c-0.09,-0.36 -0.19,-0.66 -0.31,-0.9 -0.12,-0.24 -0.24,-0.43 -0.38,-0.56 -0.14,-0.14 -0.3,-0.23 -0.46,-0.27 -0.17,-0.03 -0.35,-0.03 -0.54,0.02 -0.2,0.05 -0.36,0.13 -0.49,0.24 -0.13,0.12 -0.23,0.26 -0.28,0.45 -0.06,0.19 -0.09,0.42 -0.07,0.68 0.01,0.27 0.06,0.58 0.15,0.94l0.31 1.26c0.09,0.34 0.19,0.62 0.3,0.85 0.11,0.23 0.24,0.41 0.38,0.54 0.14,0.13 0.3,0.21 0.46,0.25 0.17,0.03 0.35,0.02 0.55,-0.03 0.19,-0.04 0.35,-0.12 0.48,-0.23 0.13,-0.11 0.22,-0.25 0.29,-0.44 0.06,-0.18 0.08,-0.39 0.07,-0.65 -0.01,-0.25 -0.06,-0.55 -0.15,-0.89l-0.31 -1.26zm-52.3 -14.13l-2.41 5.27 4.68 -3.42 1.58 1.29 -4.9 6.01 -1.21 -0.99 1.32 -1.63 2.16 -2.41 -4.57 3.15 -0.83 -0.68 2.17 -5.1 -1.93 2.59 -1.33 1.63 -1.21 -0.99 4.9 -6.01 1.58 1.29zm4.09 10.44l-1.83 -1.11 -1.18 1.15 -1.41 -0.86 6.08 -5.38 1.23 0.74 -1.93 7.9 -1.43 -0.87 0.47 -1.57zm-0.86 -2.04l1.24 0.74 0.8 -2.73 -2.04 1.99zm9.38 1.09l-1.7 -0.88 -2.99 5.71 -1.39 -0.73 2.99 -5.71 -1.67 -0.88 0.6 -1.15 4.76 2.49 -0.6 1.15zm2.8 4.42l-2.24 -0.95 -0.81 1.89 2.66 1.13 -0.51 1.19 -4.09 -1.74 3.03 -7.13 4.09 1.74 -0.51 1.2 -2.65 -1.13 -0.72 1.69 2.25 0.95 -0.5 1.16zm3.08 1.46l-0.75 -0.22 -0.81 2.71 -1.5 -0.44 2.22 -7.43 2.4 0.72c0.37,0.11 0.68,0.25 0.94,0.44 0.26,0.18 0.47,0.4 0.61,0.65 0.15,0.25 0.23,0.53 0.26,0.84 0.02,0.31 -0.02,0.65 -0.13,1.01 -0.08,0.27 -0.18,0.51 -0.29,0.71 -0.12,0.2 -0.25,0.37 -0.39,0.51 -0.14,0.14 -0.3,0.26 -0.47,0.34 -0.17,0.09 -0.35,0.15 -0.55,0.19l0.4 3.43 -0.03 0.07 -1.61 -0.48 -0.3 -3.05zm-0.37 -1.47l0.85 0.26c0.3,0.09 0.55,0.05 0.76,-0.1 0.21,-0.15 0.36,-0.4 0.46,-0.73 0.05,-0.17 0.08,-0.33 0.09,-0.48 0.01,-0.14 0,-0.28 -0.04,-0.4 -0.05,-0.11 -0.11,-0.21 -0.21,-0.3 -0.09,-0.08 -0.21,-0.15 -0.36,-0.19l-0.89 -0.27 -0.66 2.21zm4.69 5.51l-1.52 -0.38 1.88 -7.52 1.51 0.38 -1.87 7.52zm5.23 -0.71l-2.11 -0.29 -0.63 1.51 -1.64 -0.23 3.47 -7.34 1.42 0.2 1.34 8.01 -1.66 -0.23 -0.19 -1.63zm-1.59 -1.54l1.43 0.2 -0.34 -2.83 -1.09 2.63zm5.84 2.2l2.74 0.13 -0.06 1.3 -4.31 -0.21 0.37 -7.74 1.57 0.07 -0.31 6.45zm6.83 -0.7c0,-0.13 -0.02,-0.25 -0.04,-0.36 -0.03,-0.1 -0.08,-0.2 -0.16,-0.3 -0.08,-0.09 -0.2,-0.18 -0.35,-0.27 -0.15,-0.08 -0.34,-0.17 -0.59,-0.27 -0.29,-0.11 -0.57,-0.23 -0.84,-0.37 -0.26,-0.13 -0.5,-0.3 -0.7,-0.49 -0.2,-0.19 -0.37,-0.41 -0.49,-0.66 -0.12,-0.26 -0.19,-0.55 -0.19,-0.89 0,-0.32 0.05,-0.62 0.17,-0.89 0.12,-0.27 0.28,-0.5 0.5,-0.69 0.21,-0.19 0.47,-0.34 0.77,-0.45 0.3,-0.1 0.63,-0.16 0.99,-0.17 0.37,0 0.71,0.05 1.01,0.17 0.3,0.11 0.56,0.27 0.77,0.48 0.22,0.21 0.38,0.46 0.5,0.75 0.12,0.29 0.18,0.61 0.19,0.97l-1.57 0.02c0,-0.17 -0.02,-0.32 -0.05,-0.45 -0.04,-0.14 -0.09,-0.26 -0.16,-0.35 -0.08,-0.1 -0.17,-0.17 -0.29,-0.23 -0.11,-0.05 -0.25,-0.08 -0.41,-0.07 -0.15,0 -0.28,0.02 -0.38,0.07 -0.11,0.05 -0.2,0.11 -0.27,0.19 -0.07,0.08 -0.12,0.18 -0.16,0.29 -0.03,0.11 -0.05,0.23 -0.04,0.35 0,0.13 0.03,0.24 0.08,0.35 0.06,0.1 0.14,0.19 0.24,0.28 0.1,0.09 0.23,0.17 0.37,0.25 0.15,0.07 0.31,0.15 0.48,0.22 0.37,0.13 0.68,0.27 0.95,0.42 0.28,0.16 0.5,0.34 0.69,0.54 0.18,0.2 0.32,0.42 0.41,0.67 0.09,0.26 0.14,0.54 0.15,0.86 0,0.34 -0.05,0.65 -0.16,0.91 -0.11,0.27 -0.27,0.5 -0.47,0.68 -0.2,0.19 -0.46,0.33 -0.75,0.43 -0.29,0.11 -0.62,0.16 -0.99,0.16 -0.33,0.01 -0.66,-0.04 -0.98,-0.13 -0.33,-0.1 -0.62,-0.25 -0.87,-0.46 -0.26,-0.21 -0.46,-0.47 -0.62,-0.78 -0.16,-0.32 -0.24,-0.7 -0.25,-1.14l1.57 -0.02c0.01,0.23 0.03,0.43 0.08,0.59 0.05,0.17 0.12,0.3 0.22,0.4 0.09,0.1 0.21,0.17 0.35,0.21 0.14,0.04 0.3,0.06 0.48,0.06 0.15,0 0.28,-0.02 0.38,-0.07 0.1,-0.05 0.19,-0.11 0.25,-0.18 0.07,-0.08 0.11,-0.17 0.14,-0.28 0.03,-0.11 0.04,-0.22 0.04,-0.35zm-59.78 -89.14l0.96 -1.91 -1.24 -1.08 0.74 -1.48 5.85 5.63 -0.64 1.28 -8.02 -1.28 0.75 -1.5 1.6 0.34zm1.97 -1.02l-0.65 1.3 2.8 0.58 -2.15 -1.88zm-4.54 2.87l7.25 2.75 -0.73 1.92c-0.16,0.42 -0.37,0.77 -0.64,1.06 -0.27,0.29 -0.58,0.51 -0.93,0.65 -0.36,0.15 -0.75,0.22 -1.18,0.21 -0.43,-0.01 -0.89,-0.11 -1.38,-0.3l-1.12 -0.43c-0.49,-0.18 -0.9,-0.41 -1.22,-0.69 -0.33,-0.27 -0.58,-0.58 -0.75,-0.93 -0.16,-0.34 -0.25,-0.71 -0.25,-1.11 -0.01,-0.4 0.07,-0.81 0.23,-1.23l0.72 -1.9zm5.47 3.75l-4.81 -1.83 -0.16 0.44c-0.1,0.26 -0.15,0.49 -0.15,0.68 0,0.2 0.06,0.38 0.17,0.54 0.11,0.16 0.27,0.31 0.49,0.44 0.21,0.13 0.49,0.26 0.82,0.38l1.13 0.43c0.33,0.13 0.62,0.22 0.87,0.26 0.25,0.05 0.47,0.05 0.65,0 0.19,-0.05 0.35,-0.15 0.48,-0.29 0.13,-0.14 0.25,-0.34 0.34,-0.6l0.17 -0.45zm-6.12 4.89l5.09 2.71 -0.46 1.69 -6.9 -4.17 0.42 -1.57 8.06 -0.14 -0.45 1.68 -5.76 -0.2zm-2.06 6.58l0.38 -2.1 -1.49 -0.69 0.3 -1.63 7.19 3.76 -0.25 1.41 -8.06 1.02 0.3 -1.64 1.63 -0.13zm1.6 -1.53l-0.26 1.43 2.85 -0.23 -2.59 -1.2zm-3.94 9.44l0.11 -1.56 5.23 -1.93 -5.07 -0.36 0.11 -1.56 7.73 0.55 -0.11 1.56 -5.24 1.93 5.08 0.36 -0.11 1.56 -7.73 -0.55zm2.67 6.45c-0.88,-0.02 -1.56,-0.26 -2.02,-0.71 -0.46,-0.45 -0.69,-1.1 -0.7,-1.93 -0.01,-0.43 0.05,-0.81 0.19,-1.15 0.14,-0.34 0.35,-0.63 0.62,-0.86 0.28,-0.24 0.62,-0.42 1.04,-0.55 0.41,-0.13 0.88,-0.19 1.42,-0.2l1.32 -0.02c0.54,-0.01 1.02,0.05 1.44,0.17 0.41,0.12 0.76,0.3 1.05,0.53 0.28,0.24 0.5,0.52 0.65,0.86 0.15,0.33 0.22,0.71 0.23,1.13 0.01,0.85 -0.22,1.49 -0.68,1.94 -0.47,0.44 -1.14,0.7 -2.03,0.77l-0.02 -1.57c0.28,-0.01 0.51,-0.04 0.7,-0.08 0.18,-0.04 0.33,-0.11 0.44,-0.2 0.11,-0.08 0.18,-0.19 0.23,-0.33 0.04,-0.14 0.06,-0.31 0.06,-0.51 0,-0.21 -0.04,-0.39 -0.11,-0.53 -0.08,-0.15 -0.19,-0.27 -0.35,-0.36 -0.16,-0.09 -0.37,-0.15 -0.63,-0.19 -0.26,-0.05 -0.57,-0.06 -0.94,-0.06l-1.33 0.02c-0.37,0.01 -0.68,0.03 -0.93,0.07 -0.26,0.04 -0.46,0.1 -0.62,0.19 -0.16,0.09 -0.28,0.21 -0.35,0.36 -0.07,0.14 -0.11,0.33 -0.11,0.55 0.01,0.19 0.03,0.36 0.07,0.49 0.04,0.14 0.12,0.25 0.22,0.34 0.11,0.09 0.25,0.15 0.43,0.19 0.18,0.05 0.41,0.07 0.69,0.08l0.02 1.56zm1.38 4.64l-0.26 -2.43 -2.04 0.21 0.3 2.87 -1.29 0.14 -0.46 -4.43 7.7 -0.8 0.47 4.41 -1.3 0.14 -0.3 -2.86 -1.82 0.19 0.25 2.42 -1.25 0.14zm4.99 2.62l-5.17 2.61 5.78 0.25 0.43 2 -7.58 1.62 -0.33 -1.53 2.05 -0.44 3.19 -0.54 -5.53 -0.39 -0.23 -1.04 4.89 -2.64 -3.13 0.82 -2.05 0.44 -0.33 -1.53 7.58 -1.63 0.43 2zm-1.56 10.25l-0.86 -2.28 -1.92 0.73 1.02 2.7 -1.21 0.46 -1.58 -4.16 7.24 -2.75 1.58 4.15 -1.22 0.46 -1.02 -2.69 -1.71 0.65 0.86 2.28 -1.18 0.45zm-0.51 7.36l-0.62 -1.44 3.77 -4.1 -4.67 2 -0.62 -1.44 7.13 -3.05 0.62 1.44 -3.78 4.11 4.68 -2 0.61 1.43 -7.12 3.05zm8.99 2.35l-1.01 -1.63 -5.48 3.38 -0.83 -1.33 5.49 -3.39 -0.99 -1.6 1.11 -0.69 2.82 4.58 -1.11 0.68z" fill="#1C3E9C" fill-rule="nonzero"/>
   <path class="fil3" d="M118.05 149.33c-0.05,-0.12 -0.12,-0.23 -0.19,-0.31 -0.06,-0.09 -0.15,-0.15 -0.27,-0.2 -0.11,-0.05 -0.25,-0.09 -0.42,-0.1 -0.17,-0.02 -0.39,-0.02 -0.66,-0.01 -0.31,0.03 -0.61,0.04 -0.91,0.02 -0.3,-0.01 -0.58,-0.06 -0.84,-0.15 -0.27,-0.09 -0.51,-0.22 -0.73,-0.4 -0.21,-0.18 -0.39,-0.42 -0.54,-0.72 -0.14,-0.3 -0.21,-0.59 -0.22,-0.88 0,-0.3 0.05,-0.58 0.17,-0.84 0.11,-0.26 0.28,-0.5 0.51,-0.73 0.23,-0.22 0.5,-0.41 0.83,-0.57 0.34,-0.16 0.66,-0.25 0.99,-0.27 0.32,-0.02 0.62,0.01 0.9,0.11 0.28,0.11 0.54,0.26 0.77,0.48 0.22,0.21 0.41,0.48 0.57,0.8l-1.41 0.67c-0.07,-0.15 -0.15,-0.28 -0.24,-0.39 -0.09,-0.11 -0.19,-0.19 -0.3,-0.25 -0.11,-0.05 -0.22,-0.08 -0.35,-0.08 -0.12,0 -0.26,0.03 -0.4,0.1 -0.14,0.07 -0.24,0.14 -0.32,0.23 -0.08,0.09 -0.13,0.18 -0.16,0.29 -0.03,0.1 -0.04,0.21 -0.02,0.32 0.01,0.12 0.05,0.23 0.1,0.34 0.05,0.12 0.13,0.21 0.22,0.28 0.1,0.07 0.21,0.12 0.34,0.16 0.13,0.03 0.27,0.06 0.44,0.06 0.16,0.01 0.34,0.01 0.52,0.01 0.39,-0.04 0.74,-0.05 1.05,-0.02 0.31,0.03 0.59,0.1 0.84,0.2 0.25,0.11 0.47,0.25 0.66,0.44 0.19,0.19 0.35,0.43 0.49,0.72 0.15,0.31 0.23,0.61 0.24,0.9 0.02,0.28 -0.03,0.56 -0.14,0.81 -0.11,0.25 -0.28,0.49 -0.5,0.7 -0.22,0.22 -0.5,0.41 -0.84,0.57 -0.3,0.14 -0.61,0.23 -0.95,0.28 -0.33,0.05 -0.66,0.03 -0.97,-0.05 -0.32,-0.08 -0.62,-0.23 -0.89,-0.45 -0.28,-0.23 -0.51,-0.54 -0.7,-0.93l1.41 -0.68c0.1,0.21 0.21,0.38 0.32,0.51 0.12,0.13 0.23,0.22 0.36,0.27 0.13,0.05 0.27,0.06 0.41,0.05 0.15,-0.02 0.3,-0.07 0.47,-0.15 0.13,-0.07 0.24,-0.14 0.31,-0.23 0.08,-0.08 0.13,-0.17 0.15,-0.27 0.03,-0.1 0.03,-0.2 0.01,-0.31 -0.02,-0.11 -0.05,-0.22 -0.11,-0.33zm3.56 -8.47l2.77 4.55c0.23,0.38 0.38,0.74 0.44,1.08 0.06,0.34 0.04,0.65 -0.04,0.95 -0.09,0.29 -0.24,0.56 -0.46,0.8 -0.21,0.24 -0.48,0.46 -0.79,0.65 -0.32,0.2 -0.64,0.34 -0.96,0.42 -0.32,0.08 -0.63,0.09 -0.93,0.04 -0.3,-0.06 -0.58,-0.19 -0.86,-0.4 -0.27,-0.21 -0.52,-0.5 -0.76,-0.89l-2.77 -4.54 1.35 -0.82 2.77 4.54c0.13,0.22 0.26,0.39 0.38,0.5 0.11,0.12 0.23,0.19 0.35,0.22 0.12,0.04 0.24,0.04 0.36,0 0.12,-0.03 0.25,-0.09 0.39,-0.18 0.14,-0.08 0.25,-0.17 0.34,-0.26 0.08,-0.09 0.14,-0.2 0.16,-0.32 0.02,-0.12 0.01,-0.26 -0.04,-0.41 -0.04,-0.16 -0.13,-0.35 -0.27,-0.57l-2.77 -4.55 1.34 -0.81zm6.57 2.41c-0.07,-0.11 -0.15,-0.2 -0.23,-0.27 -0.08,-0.08 -0.18,-0.13 -0.3,-0.17 -0.12,-0.03 -0.27,-0.04 -0.44,-0.03 -0.17,0.01 -0.38,0.04 -0.64,0.09 -0.31,0.07 -0.61,0.13 -0.9,0.15 -0.3,0.04 -0.59,0.03 -0.86,-0.02 -0.28,-0.05 -0.53,-0.15 -0.78,-0.29 -0.24,-0.14 -0.45,-0.36 -0.64,-0.64 -0.18,-0.26 -0.29,-0.54 -0.34,-0.83 -0.05,-0.29 -0.04,-0.58 0.03,-0.85 0.08,-0.28 0.21,-0.55 0.4,-0.8 0.19,-0.25 0.44,-0.48 0.74,-0.69 0.31,-0.2 0.62,-0.34 0.93,-0.41 0.32,-0.07 0.62,-0.08 0.92,-0.02 0.29,0.06 0.56,0.17 0.82,0.35 0.26,0.18 0.49,0.42 0.68,0.71l-1.29 0.87c-0.09,-0.13 -0.19,-0.25 -0.29,-0.34 -0.11,-0.1 -0.22,-0.17 -0.33,-0.21 -0.12,-0.03 -0.24,-0.05 -0.36,-0.03 -0.13,0.02 -0.25,0.07 -0.39,0.16 -0.12,0.09 -0.21,0.18 -0.28,0.27 -0.06,0.1 -0.1,0.21 -0.11,0.31 -0.02,0.11 -0.01,0.22 0.02,0.33 0.03,0.11 0.09,0.22 0.15,0.32 0.08,0.1 0.16,0.18 0.27,0.24 0.1,0.05 0.22,0.09 0.35,0.11 0.13,0.01 0.28,0.01 0.44,0 0.17,-0.02 0.34,-0.04 0.53,-0.08 0.37,-0.09 0.71,-0.15 1.03,-0.17 0.31,-0.01 0.6,0.01 0.86,0.08 0.26,0.06 0.5,0.18 0.72,0.34 0.21,0.16 0.41,0.37 0.59,0.63 0.19,0.29 0.31,0.57 0.37,0.85 0.06,0.29 0.05,0.56 -0.02,0.83 -0.07,0.27 -0.2,0.52 -0.39,0.77 -0.19,0.25 -0.44,0.47 -0.74,0.68 -0.28,0.18 -0.58,0.32 -0.9,0.42 -0.33,0.1 -0.65,0.13 -0.97,0.1 -0.33,-0.04 -0.65,-0.14 -0.95,-0.32 -0.31,-0.18 -0.59,-0.45 -0.83,-0.82l1.3 -0.87c0.13,0.19 0.26,0.34 0.39,0.45 0.13,0.11 0.26,0.18 0.4,0.21 0.13,0.03 0.27,0.03 0.41,-0.01 0.14,-0.04 0.28,-0.11 0.43,-0.22 0.13,-0.08 0.22,-0.17 0.28,-0.27 0.06,-0.09 0.1,-0.19 0.11,-0.29 0.02,-0.1 0,-0.2 -0.03,-0.3 -0.04,-0.11 -0.09,-0.21 -0.16,-0.32zm3.03 -8.08l-1.48 1.21 4.07 5 -1.21 0.99 -4.08 -4.99 -1.46 1.19 -0.82 -1.01 4.16 -3.4 0.82 1.01zm5.63 1.02l-1.51 1.51 0.84 1.41 -1.17 1.17 -3.79 -7.18 1.02 -1.01 7.21 3.74 -1.18 1.18 -1.42 -0.82zm-2.19 0.35l1.02 -1.03 -2.46 -1.43 1.44 2.46zm6.24 -2.6l-0.99 1.21 -6 -4.91 0.99 -1.21 6 4.91zm4.14 -5.3l-0.95 1.25 -5.43 -1.25 4.05 3.07 -0.95 1.25 -6.17 -4.68 0.94 -1.25 5.44 1.25 -4.05 -3.08 0.94 -1.24 6.18 4.68zm1.25 -5.14l-1.1 1.83 1.14 1.17 -0.85 1.42 -5.39 -6.08 0.75 -1.23 7.89 1.92 -0.87 1.43 -1.57 -0.46zm-2.04 0.86l0.75 -1.24 -2.74 -0.81 1.99 2.05zm4.65 -2.54l-7.01 -3.31 1.02 -2.17c0.17,-0.35 0.35,-0.64 0.56,-0.88 0.21,-0.24 0.44,-0.42 0.69,-0.54 0.25,-0.12 0.52,-0.17 0.81,-0.16 0.28,0.01 0.59,0.1 0.92,0.25 0.16,0.08 0.31,0.17 0.44,0.27 0.13,0.1 0.24,0.22 0.34,0.35 0.09,0.14 0.16,0.28 0.22,0.44 0.05,0.16 0.07,0.34 0.07,0.52 0.13,-0.15 0.28,-0.27 0.45,-0.34 0.16,-0.08 0.33,-0.12 0.5,-0.14 0.18,-0.01 0.35,0.01 0.53,0.05 0.18,0.04 0.36,0.1 0.52,0.18 0.68,0.32 1.11,0.75 1.28,1.29 0.17,0.54 0.09,1.16 -0.25,1.87l-1.09 2.32zm-2.38 -2.85l1.87 0.88 0.43 -0.91c0.06,-0.13 0.1,-0.26 0.1,-0.38 0,-0.12 -0.03,-0.23 -0.08,-0.33 -0.05,-0.1 -0.13,-0.2 -0.22,-0.27 -0.09,-0.09 -0.21,-0.16 -0.34,-0.22 -0.3,-0.14 -0.56,-0.2 -0.79,-0.17 -0.22,0.03 -0.4,0.18 -0.52,0.44l-0.45 0.96zm-1.03 -0.49l0.35 -0.74c0.13,-0.28 0.16,-0.53 0.07,-0.73 -0.08,-0.21 -0.26,-0.37 -0.54,-0.51 -0.32,-0.15 -0.58,-0.19 -0.78,-0.13 -0.19,0.06 -0.36,0.24 -0.5,0.53l-0.35 0.75 1.75 0.83zm5.2 -4.23l0.98 -2.56 1.22 0.46 -1.54 4.03 -7.24 -2.77 0.56 -1.46 6.02 2.3zm0.16 -7.64l-0.6 2.36 1.99 0.51 0.71 -2.8 1.26 0.33 -1.1 4.31 -7.51 -1.92 1.1 -4.3 1.26 0.32 -0.71 2.79 1.78 0.45 0.6 -2.36 1.22 0.31zm2.08 -2.95c-0.22,-0.03 -0.42,-0.07 -0.59,-0.15 -0.18,-0.07 -0.34,-0.17 -0.49,-0.29 -0.14,-0.11 -0.28,-0.25 -0.41,-0.41 -0.12,-0.15 -0.25,-0.33 -0.38,-0.52 -0.32,0.16 -0.63,0.29 -0.91,0.38 -0.29,0.08 -0.58,0.11 -0.87,0.08 -0.31,-0.03 -0.58,-0.1 -0.82,-0.21 -0.24,-0.11 -0.45,-0.26 -0.61,-0.44 -0.16,-0.18 -0.28,-0.38 -0.35,-0.62 -0.08,-0.24 -0.1,-0.5 -0.07,-0.77 0.02,-0.27 0.09,-0.5 0.21,-0.71 0.12,-0.2 0.27,-0.37 0.45,-0.51 0.18,-0.13 0.38,-0.23 0.6,-0.29 0.23,-0.06 0.46,-0.08 0.71,-0.06 0.36,0.04 0.67,0.15 0.93,0.33 0.27,0.17 0.49,0.41 0.68,0.71l0.29 0.43 1.48 -0.86c-0.18,-0.07 -0.36,-0.14 -0.55,-0.19 -0.19,-0.05 -0.39,-0.09 -0.61,-0.11l0.12 -1.26c0.46,0.04 0.89,0.13 1.29,0.26 0.39,0.12 0.74,0.31 1.05,0.55l1.49 -0.86 -0.17 1.7 -0.43 0.25c0.16,0.25 0.26,0.51 0.32,0.78 0.05,0.27 0.07,0.55 0.04,0.85 -0.04,0.33 -0.12,0.63 -0.25,0.88 -0.14,0.26 -0.31,0.47 -0.52,0.63 -0.21,0.17 -0.46,0.29 -0.73,0.36 -0.28,0.08 -0.58,0.1 -0.9,0.07zm1.16 -2.14c0.03,-0.28 -0.03,-0.55 -0.19,-0.82l-1.84 1.05 0.02 0.03c0.16,0.13 0.31,0.22 0.47,0.27 0.15,0.05 0.3,0.08 0.44,0.09 0.15,0.02 0.29,0.01 0.42,-0.01 0.13,-0.03 0.24,-0.07 0.34,-0.12 0.1,-0.06 0.18,-0.13 0.24,-0.21 0.06,-0.09 0.09,-0.18 0.1,-0.28zm-4.71 -0.1c0.15,0.01 0.3,-0.01 0.46,-0.06 0.16,-0.05 0.32,-0.12 0.5,-0.21l-0.17 -0.27c-0.06,-0.1 -0.12,-0.18 -0.18,-0.24 -0.06,-0.06 -0.13,-0.11 -0.19,-0.15 -0.07,-0.03 -0.14,-0.06 -0.21,-0.07 -0.07,-0.02 -0.14,-0.03 -0.22,-0.04 -0.08,-0.01 -0.16,0 -0.24,0.01 -0.08,0.02 -0.15,0.05 -0.22,0.08 -0.06,0.04 -0.12,0.09 -0.16,0.15 -0.05,0.06 -0.07,0.13 -0.08,0.21 -0.01,0.09 0,0.16 0.04,0.23 0.03,0.07 0.08,0.13 0.15,0.18 0.06,0.04 0.14,0.08 0.23,0.11 0.09,0.03 0.19,0.05 0.29,0.07zm5.53 -11.82c0.09,0.08 0.19,0.19 0.3,0.33 0.11,0.14 0.22,0.32 0.32,0.52 0.1,0.21 0.18,0.46 0.25,0.74 0.07,0.28 0.1,0.6 0.1,0.97 -0.01,0.43 -0.08,0.82 -0.22,1.17 -0.13,0.34 -0.34,0.64 -0.61,0.89 -0.28,0.24 -0.63,0.43 -1.04,0.56 -0.42,0.13 -0.91,0.2 -1.48,0.19l-1.31 -0.01c-0.56,0 -1.05,-0.07 -1.47,-0.2 -0.41,-0.13 -0.76,-0.32 -1.03,-0.55 -0.28,-0.24 -0.48,-0.53 -0.61,-0.87 -0.14,-0.34 -0.2,-0.72 -0.2,-1.14 0.01,-0.44 0.06,-0.82 0.18,-1.14 0.11,-0.32 0.27,-0.58 0.49,-0.8 0.22,-0.21 0.49,-0.37 0.82,-0.48 0.32,-0.11 0.69,-0.18 1.11,-0.21l-0.01 1.52c-0.25,0.02 -0.45,0.05 -0.62,0.1 -0.16,0.05 -0.29,0.11 -0.39,0.2 -0.1,0.09 -0.17,0.19 -0.21,0.32 -0.05,0.12 -0.07,0.27 -0.07,0.45 0,0.2 0.04,0.38 0.11,0.53 0.07,0.16 0.18,0.29 0.34,0.39 0.17,0.1 0.37,0.18 0.63,0.23 0.26,0.05 0.57,0.08 0.93,0.08l1.32 0.01c0.37,0 0.69,-0.02 0.94,-0.08 0.26,-0.05 0.47,-0.13 0.63,-0.24 0.16,-0.11 0.28,-0.25 0.35,-0.42 0.08,-0.17 0.12,-0.37 0.12,-0.6 0,-0.14 -0.01,-0.26 -0.03,-0.36 -0.02,-0.09 -0.05,-0.18 -0.08,-0.25 -0.03,-0.07 -0.06,-0.12 -0.09,-0.17 -0.03,-0.04 -0.06,-0.08 -0.08,-0.11l-1.42 -0.01 -0.01 1.09 -1.18 0 0.02 -2.67 3.2 0.02zm-2.32 -3.15l0.09 0.78 2.81 -0.34 0.19 1.55 -7.69 0.93 -0.3 -2.48c-0.05,-0.39 -0.04,-0.73 0.03,-1.05 0.06,-0.31 0.18,-0.58 0.35,-0.82 0.17,-0.23 0.39,-0.42 0.67,-0.56 0.27,-0.15 0.6,-0.25 0.98,-0.29 0.28,-0.04 0.53,-0.04 0.76,-0.02 0.23,0.03 0.44,0.08 0.63,0.15 0.18,0.08 0.35,0.18 0.5,0.3 0.14,0.12 0.27,0.26 0.39,0.43l2.99 -1.73 0.07 -0.01 0.2 1.67 -2.67 1.49zm-1.2 0.93l-0.11 -0.88c-0.03,-0.31 -0.17,-0.53 -0.39,-0.66 -0.23,-0.13 -0.51,-0.18 -0.86,-0.13 -0.17,0.02 -0.33,0.05 -0.47,0.1 -0.14,0.05 -0.25,0.12 -0.34,0.21 -0.09,0.08 -0.16,0.18 -0.2,0.3 -0.04,0.12 -0.06,0.26 -0.04,0.41l0.11 0.93 2.3 -0.28zm-0.55 -8.2l0.46 2.39 2.01 -0.39 -0.54 -2.83 1.28 -0.24 0.83 4.37 -7.61 1.45 -0.83 -4.36 1.28 -0.24 0.54 2.82 1.8 -0.34 -0.46 -2.4 1.24 -0.23zm-1.29 -4.88l0.65 2.36 1.98 -0.55 -0.76 -2.78 1.25 -0.34 1.18 4.29 -7.48 2.05 -1.17 -4.28 1.26 -0.35 0.76 2.77 1.76 -0.48 -0.64 -2.35 1.21 -0.34zm0.75 -7.21l0.59 1.45 -3.84 4.04 4.71 -1.93 0.59 1.45 -7.17 2.94 -0.59 -1.45 3.83 -4.05 -4.7 1.93 -0.59 -1.44 7.17 -2.94zm-6.52 -6.34l-4.56 1.85 -0.79 -1.33 7.37 -2.77 0.8 1.35 -3.47 3.11 4.39 -1.56 0.8 1.35 -5.96 5.15 -0.79 -1.34 3.81 -3.11 -4.65 1.7 -0.67 -1.13 3.72 -3.27zm-5.05 -6.62c0.43,-0.33 0.85,-0.57 1.26,-0.71 0.41,-0.14 0.8,-0.2 1.16,-0.17 0.37,0.03 0.71,0.14 1.03,0.33 0.31,0.19 0.6,0.45 0.85,0.78 0.25,0.33 0.42,0.67 0.52,1.03 0.1,0.36 0.11,0.72 0.04,1.08 -0.06,0.36 -0.22,0.72 -0.47,1.08 -0.24,0.36 -0.58,0.7 -1.01,1.03l-1.03 0.78c-0.44,0.33 -0.87,0.58 -1.29,0.73 -0.42,0.14 -0.82,0.21 -1.19,0.18 -0.38,-0.02 -0.72,-0.13 -1.05,-0.31 -0.32,-0.19 -0.61,-0.45 -0.86,-0.78 -0.25,-0.33 -0.42,-0.68 -0.51,-1.03 -0.1,-0.37 -0.1,-0.73 -0.03,-1.1 0.08,-0.37 0.25,-0.73 0.5,-1.09 0.26,-0.37 0.61,-0.72 1.05,-1.06l1.03 -0.77zm-0.09 2.03c-0.29,0.23 -0.52,0.44 -0.7,0.64 -0.17,0.2 -0.3,0.39 -0.37,0.57 -0.07,0.18 -0.09,0.36 -0.06,0.53 0.03,0.17 0.1,0.33 0.22,0.49 0.13,0.16 0.27,0.28 0.42,0.35 0.15,0.08 0.33,0.1 0.52,0.08 0.2,-0.01 0.42,-0.08 0.66,-0.2 0.24,-0.11 0.5,-0.28 0.8,-0.5l1.03 -0.79c0.28,-0.21 0.5,-0.41 0.67,-0.61 0.17,-0.19 0.28,-0.38 0.35,-0.56 0.06,-0.18 0.08,-0.35 0.04,-0.52 -0.03,-0.17 -0.11,-0.33 -0.23,-0.49 -0.12,-0.16 -0.26,-0.28 -0.41,-0.35 -0.15,-0.08 -0.32,-0.11 -0.51,-0.09 -0.19,0.01 -0.4,0.07 -0.63,0.18 -0.23,0.11 -0.48,0.28 -0.76,0.49l-1.04 0.78zm-1.7 -4.59l0.53 0.57 2.06 -1.94 1.07 1.14 -5.65 5.3 -1.71 -1.82c-0.26,-0.28 -0.46,-0.57 -0.59,-0.86 -0.14,-0.29 -0.2,-0.58 -0.21,-0.86 0,-0.29 0.07,-0.58 0.21,-0.86 0.13,-0.28 0.34,-0.55 0.62,-0.81 0.2,-0.2 0.41,-0.35 0.6,-0.47 0.2,-0.11 0.4,-0.2 0.6,-0.25 0.19,-0.04 0.38,-0.06 0.57,-0.05 0.19,0.01 0.38,0.05 0.57,0.11l1.39 -3.16 0.05 -0.05 1.15 1.22 -1.26 2.79zm-0.42 1.46l-0.61 -0.65c-0.21,-0.23 -0.45,-0.33 -0.71,-0.3 -0.26,0.03 -0.51,0.16 -0.77,0.4 -0.13,0.12 -0.23,0.24 -0.31,0.37 -0.09,0.12 -0.14,0.24 -0.16,0.36 -0.03,0.13 -0.02,0.25 0.02,0.37 0.04,0.12 0.11,0.24 0.21,0.35l0.64 0.68 1.69 -1.58zm-2.07 -6.13l-2.02 -1.86 0.88 -0.96 3.17 2.92 -5.25 5.7 -1.15 -1.06 4.37 -4.74zm-1.82 -3.47l-4.67 6.18 -1.64 -1.23c-0.36,-0.27 -0.64,-0.58 -0.84,-0.92 -0.2,-0.34 -0.33,-0.69 -0.37,-1.08 -0.04,-0.37 0.01,-0.77 0.14,-1.18 0.13,-0.41 0.35,-0.82 0.67,-1.24l0.72 -0.96c0.32,-0.41 0.65,-0.74 1.01,-0.98 0.36,-0.24 0.72,-0.39 1.1,-0.45 0.38,-0.06 0.76,-0.04 1.14,0.06 0.38,0.11 0.76,0.3 1.12,0.57l1.62 1.23zm-5.14 4.2l3.11 -4.11 -0.38 -0.28c-0.22,-0.17 -0.42,-0.28 -0.61,-0.33 -0.19,-0.05 -0.38,-0.05 -0.57,0.01 -0.18,0.06 -0.36,0.18 -0.55,0.35 -0.19,0.17 -0.39,0.39 -0.6,0.67l-0.73 0.97c-0.22,0.29 -0.38,0.54 -0.49,0.77 -0.11,0.22 -0.18,0.43 -0.18,0.62 -0.01,0.19 0.04,0.37 0.14,0.54 0.1,0.17 0.26,0.33 0.48,0.5l0.38 0.29z" fill="#FEFEFE" fill-rule="nonzero"/>
   <g>
    <path class="fil2 str1" d="M59.66 129.52l13.57 -35.32 5.03 0 14.46 35.32 -5.33 0 -4.12 -10.7 -14.77 0 -3.87 10.7 -4.97 0zm10.19 -14.5l11.98 0 -3.69 -9.78c-1.12,-2.97 -1.96,-5.41 -2.5,-7.33 -0.45,2.27 -1.08,4.52 -1.91,6.75l-3.88 10.36z" fill="#1C3E9C" fill-rule="nonzero" stroke="#1C3E9C" stroke-width="1.16" stroke-miterlimit="2.61313"/>
    <path class="fil2 str1" d="M89.95 129.52l13.56 -35.32 5.04 0 14.45 35.32 -5.33 0 -4.12 -10.7 -14.76 0 -3.88 10.7 -4.96 0zm10.18 -14.5l11.98 0 -3.69 -9.78c-1.12,-2.97 -1.95,-5.41 -2.5,-7.33 -0.45,2.27 -1.08,4.52 -1.91,6.75l-3.88 10.36z" fill="#1C3E9C" fill-rule="nonzero" stroke="#1C3E9C" stroke-width="1.16" stroke-miterlimit="2.61313"/>
    <path class="fil4" d="M87.74 59.36l-0.93 4.25c3.88,-4.63 11.66,-4.76 13.69,-11.45 0.14,2.66 0.1,5.46 -1.22,9.22 1.04,-0.94 2.3,-1.71 4.06,-2.1 -2.1,2.37 -2.99,5.18 -2.71,7.92 1.07,-0.91 2.27,-1.74 3.68,-1.89 -4.01,5.07 -1.58,9.74 -6.06,13.69 -13.25,10.52 -22.16,-10.31 -10.51,-19.64z" fill="#F16136"/>
    <path class="fil5" d="M89.15 70.29l-0.56 2.81c2.37,-2.61 7.13,-3.09 8.37,-6.86 0.09,1.5 0.07,3.07 -0.74,5.19 0.63,-0.53 1.4,-0.96 2.48,-1.18 -1.28,1.33 -1.83,2.91 -1.65,4.45 0.65,-0.51 1.38,-0.98 2.25,-1.06 -2.46,2.85 -1.09,5.11 -3.83,7.33 -3.36,1.61 -6.7,0.97 -8.38,-0.32 -2.78,-2.14 -1.89,-7.45 2.06,-10.36z" fill="#F5D776"/>
    <path class="fil6 str2" d="M88.07 87.03l0 41.7c-2.17,0.51 -3.47,1.81 -4.2,3.64l15.68 -0.14c-0.71,-1.62 -2.16,-2.77 -4.24,-3.53 0.06,-14.11 -0.06,-27.76 -0.01,-41.87 2.14,-0.96 4.77,-2.88 5.68,-7.38 -5.22,1.34 -12.14,1.84 -18.42,0.01 0.22,4.02 3.77,6.92 5.51,7.57z" fill="url(#id0)" stroke="#A45E4D" stroke-width="0.23" stroke-miterlimit="2.61313"/>
    <path class="fil7" d="M115.53 89.52c0.66,0 1.3,0.16 1.9,0.49 0.61,0.33 1.08,0.8 1.43,1.42 0.35,0.61 0.52,1.26 0.52,1.93 0,0.67 -0.17,1.31 -0.51,1.92 -0.34,0.6 -0.81,1.08 -1.42,1.42 -0.61,0.34 -1.25,0.51 -1.92,0.51 -0.67,0 -1.3,-0.17 -1.91,-0.51 -0.61,-0.34 -1.08,-0.82 -1.42,-1.42 -0.34,-0.61 -0.51,-1.25 -0.51,-1.92 0,-0.67 0.17,-1.32 0.52,-1.93 0.34,-0.62 0.82,-1.09 1.43,-1.42 0.6,-0.33 1.23,-0.49 1.89,-0.49zm0.01 0.76c-0.53,0 -1.04,0.13 -1.53,0.39 -0.48,0.27 -0.86,0.65 -1.14,1.14 -0.28,0.49 -0.42,1.01 -0.42,1.55 0,0.54 0.13,1.06 0.41,1.54 0.27,0.49 0.65,0.87 1.14,1.15 0.49,0.27 1,0.41 1.54,0.41 0.53,0 1.05,-0.14 1.53,-0.41 0.49,-0.28 0.87,-0.66 1.15,-1.15 0.27,-0.48 0.41,-1 0.41,-1.54 0,-0.54 -0.14,-1.06 -0.42,-1.55 -0.28,-0.49 -0.66,-0.87 -1.15,-1.14 -0.49,-0.26 -1,-0.39 -1.52,-0.39zm-1.75 5.14l0 -4.07 0.83 0c0.78,0 1.21,0 1.3,0.01 0.28,0.02 0.49,0.07 0.64,0.16 0.15,0.08 0.28,0.21 0.38,0.39 0.1,0.17 0.16,0.37 0.16,0.58 0,0.3 -0.1,0.55 -0.29,0.76 -0.19,0.21 -0.46,0.33 -0.81,0.39 0.12,0.04 0.22,0.09 0.29,0.15 0.06,0.05 0.16,0.16 0.27,0.31 0.03,0.04 0.13,0.21 0.3,0.5l0.48 0.82 -1.03 0 -0.33 -0.66c-0.23,-0.45 -0.42,-0.73 -0.57,-0.84 -0.15,-0.12 -0.34,-0.18 -0.57,-0.18l-0.21 0 0 1.68 -0.84 0zm0.84 -2.33l0.33 0c0.48,0 0.77,-0.01 0.89,-0.05 0.11,-0.04 0.21,-0.1 0.27,-0.19 0.07,-0.09 0.1,-0.19 0.1,-0.31 0,-0.11 -0.03,-0.21 -0.1,-0.3 -0.06,-0.09 -0.15,-0.15 -0.27,-0.19 -0.12,-0.04 -0.42,-0.06 -0.89,-0.06l-0.33 0 0 1.1z" fill="black" fill-rule="nonzero"/>
   </g>
  </g>
  <polygon class="fil8" points="0,0 167.75,0 167.75,167.75 0,167.75 " fill="none"/>
 </g>
</svg>