<?xml version="1.0"?><svg version="1.2" baseProfile="tiny-ps" viewBox="0 0 300 300" xmlns="http://www.w3.org/2000/svg" xmlns:xlink="http://www.w3.org/1999/xlink"><title>Chronopost</title><g><g fill="#009fdf" transform="matrix(.1 0 0 -.1 0 300)"><path d="M882 2646c-315-173-575-316-577-318-3-2 273-165 613-363 339-197 632-369 650-382l32-24V459l-9-18-9-17-51-24-51-24-43 24c-23 12-46 27-52 32l-10 9-5 502-5 502-555 323c-305 178-561 326-568 329l-12 5V815l18-34 17-34 595-350 594-351h61l595 351 595 350 17 34 18 34v643c0 353-2 642-5 642s-166-94-363-209c-196-114-372-216-390-225l-33-17-43 25c-23 14-48 31-55 40l-12 14 3 58 3 58 400 233c220 129 406 238 413 242l13 8-573 312-573 313-35 4-35 4-573-314z"/></g><g fill="#0093d3" transform="matrix(.1 0 0 -.1 0 300)"><path d="m346 2354-48-26 18-12c11-7 69-41 129-76 61-35 121-70 135-79l25-16-15 20c-52 70-175 210-184 212-6 1-33-9-60-23zm-116-895V815l18-34 17-34 595-350 594-351h61l286 169 286 169-241 288-241 288-5-258c-3-141-8-262-12-267-4-6-30-22-57-35l-51-24-43 24c-23 12-48 30-54 38l-13 16v787l-165 196-165 197-393 229c-215 126-398 231-404 234l-13 5v-643z"/></g><g fill="#0086c5" transform="matrix(.1 0 0 -.1 0 300)"><path d="M230 1418V815l18-34 17-34 595-350 594-351h61l126 74 126 74-95 113c-52 62-97 113-98 113-2 0-24-10-49-22l-45-22-42 23c-24 13-49 31-55 39l-13 16v214l-467 557c-258 306-512 611-566 676s-100 119-102 119c-3 0-5-271-5-602z"/></g><g fill="#0077b7" transform="matrix(.1 0 0 -.1 0 300)"><path d="M230 1168V815l18-34 17-34 593-349c326-192 596-348 602-346l9 3-487 581c-663 790-742 884-747 884-3 0-5-159-5-352z"/></g></g></svg>