<?xml version="1.0" encoding="UTF-8" standalone="yes"?>
<svg version="1.2" baseProfile="tiny-ps" viewBox="0 0 1000 1000" xml:space="preserve" xmlns="http://www.w3.org/2000/svg">
  <title>EasyDMARC Inc</title>
  <rect fill="#01A7DF" width="1000" height="1000"/>
  <g>
    <path fill="#FFFFFF" d="M45.4,507.6l27.9,17l27.9,17l27.9,17l27.9,17l27.9-17l-27.9-17l-27.9-17l-27.9-17v-34l-27.9,17L45.4,507.6z&#xA;&#x9;&#x9;"/>
    <path fill="#FFFFFF" d="M156.8,473.6v-34l-27.9,17l-27.9,17l27.9,17l27.9,17l27.9,17l27.9-17l-27.9-17L156.8,473.6z"/>
    <path fill="#FFFFFF" d="M237.1,450.6c-1.6-4.2-7.6-9.4-17.9-15.6c-10.7-6.5-19.5-10-26.3-10.4c-6.9-0.5-12.9,0.9-18.1,4l-18,11&#xA;&#x9;&#x9;l55.8,33.8l16.7-10.2C236.1,459,238.7,454.8,237.1,450.6z"/>
    <path fill="#FFFFFF" d="M343.2,541.6h-48.3v-81.9h46.5v15H313v18.2h26.4v15H313v18.8h30.2V541.6z"/>
    <path fill="#FFFFFF" d="M428.6,541.6h-19.8l-5.7-18.2h-28.7l-5.7,18.2H349l29.3-81.9h21.5L428.6,541.6z M398.9,509.2l-8.6-27.5&#xA;&#x9;&#x9;c-0.6-2.1-1.1-4.5-1.3-7.4h-0.5c-0.2,2.4-0.6,4.8-1.4,7.1l-8.8,27.8H398.9z"/>
    <path fill="#FFFFFF" d="M435,538.5v-18.3c3.2,2.8,6.8,4.9,10.6,6.3c3.8,1.4,7.7,2.1,11.6,2.1c2.3,0,4.3-0.2,6-0.6&#xA;&#x9;&#x9;c1.7-0.4,3.1-1,4.3-1.8c1.2-0.7,2-1.6,2.6-2.6s0.8-2.1,0.8-3.3c0-1.6-0.4-3-1.3-4.3c-0.9-1.2-2.1-2.4-3.7-3.5&#xA;&#x9;&#x9;c-1.5-1.1-3.4-2.1-5.5-3.1s-4.4-2-6.9-3c-6.3-2.7-11-5.9-14.1-9.8c-3.1-3.8-4.6-8.5-4.6-14c0-4.2,0.8-7.9,2.5-11s4-5.6,6.9-7.6&#xA;&#x9;&#x9;s6.3-3.4,10.1-4.4c3.8-0.9,7.9-1.4,12.1-1.4s7.9,0.3,11.2,0.8c3.2,0.5,6.2,1.3,9,2.4v17.1c-1.3-1-2.8-1.8-4.4-2.5s-3.2-1.3-4.9-1.8&#xA;&#x9;&#x9;c-1.7-0.5-3.3-0.8-5-1.1c-1.7-0.2-3.2-0.3-4.8-0.3c-2.1,0-3.9,0.2-5.6,0.6s-3.1,1-4.3,1.7c-1.2,0.7-2.1,1.6-2.7,2.6&#xA;&#x9;&#x9;s-0.9,2.2-0.9,3.4c0,1.4,0.4,2.6,1.1,3.7s1.7,2.1,3,3.1s2.9,1.9,4.8,2.9c1.9,0.9,4,1.9,6.3,2.9c3.2,1.4,6.1,2.8,8.7,4.4&#xA;&#x9;&#x9;c2.6,1.5,4.8,3.3,6.6,5.2s3.2,4.2,4.2,6.7s1.5,5.4,1.5,8.7c0,4.6-0.9,8.4-2.6,11.5s-4,5.6-6.9,7.5s-6.3,3.3-10.2,4.1&#xA;&#x9;&#x9;c-3.9,0.8-8,1.2-12.3,1.2c-4.4,0-8.6-0.4-12.6-1.1C441.3,541.1,437.9,540,435,538.5z"/>
    <path fill="#FFFFFF" d="M563.9,459.6l-26.3,52.8v29.2h-18.1v-28.8l-25.6-53.2h20.7l13,30.6c0.2,0.6,0.8,2.8,1.8,6.7h0.2&#xA;&#x9;&#x9;c0.5-2.7,1.1-4.9,1.7-6.4l13.2-30.8L563.9,459.6L563.9,459.6z"/>
    <path fill="#FFFFFF" d="M574.3,541.6v-81.9h22.3c28.4,0,42.6,13.3,42.6,40c0,12.6-3.9,22.8-11.8,30.5c-7.9,7.7-18.4,11.5-31.7,11.5&#xA;&#x9;&#x9;L574.3,541.6L574.3,541.6z M583.8,468.3v64.6h12c10.6,0,18.8-2.9,24.7-8.6c5.9-5.8,8.8-13.9,8.8-24.5c0-21-11-31.5-32.9-31.5H583.8&#xA;&#x9;&#x9;L583.8,468.3z"/>
    <path fill="#FFFFFF" d="M737.1,541.6h-9.4v-55c0-4.4,0.3-9.7,0.8-15.9h-0.2c-0.9,3.7-1.7,6.3-2.4,7.9l-27.5,63h-4.6l-27.5-62.5&#xA;&#x9;&#x9;c-0.8-1.8-1.6-4.6-2.4-8.4h-0.2c0.3,3.3,0.5,8.6,0.5,16v54.9H655v-81.9h12.5l24.7,57.1c1.9,4.4,3.1,7.7,3.7,9.8h0.3&#xA;&#x9;&#x9;c1.6-4.5,2.9-7.8,3.9-10.1l25.2-56.9h11.8L737.1,541.6L737.1,541.6z"/>
    <path fill="#FFFFFF" d="M820.7,541.6h-10.4l-8.5-23h-34.2l-8,23H749l30.9-81.9h9.8L820.7,541.6z M798.6,510L786,475.1&#xA;&#x9;&#x9;c-0.4-1.1-0.8-3-1.2-5.5h-0.2c-0.4,2.3-0.8,4.1-1.3,5.5L770.7,510H798.6z"/>
    <path fill="#FFFFFF" d="M890.3,541.6h-11.2l-13.5-23c-1.2-2.1-2.4-4-3.6-5.5c-1.2-1.5-2.3-2.7-3.6-3.7c-1.2-1-2.5-1.6-3.9-2.1&#xA;&#x9;&#x9;c-1.4-0.4-3-0.7-4.8-0.7H842v34.9h-9.4v-81.9h24.1c3.5,0,6.8,0.4,9.8,1.4c3,0.9,5.5,2.3,7.7,4.1c2.2,1.8,3.9,4.1,5.1,6.8&#xA;&#x9;&#x9;c1.2,2.7,1.8,5.9,1.8,9.6c0,2.9-0.4,5.5-1.3,7.9c-0.8,2.4-2.1,4.5-3.6,6.4s-3.4,3.4-5.6,4.8c-2.2,1.3-4.6,2.3-7.4,3v0.2&#xA;&#x9;&#x9;c1.3,0.6,2.5,1.3,3.5,2.1c1,0.8,1.9,1.7,2.8,2.8c0.9,1.1,1.8,2.3,2.7,3.6c0.9,1.3,1.9,2.9,3,4.7L890.3,541.6z M842,468.3V498h12.8&#xA;&#x9;&#x9;c2.4,0,4.5-0.4,6.6-1.1c2-0.7,3.7-1.8,5.2-3.1c1.5-1.4,2.6-3,3.4-5c0.8-2,1.2-4.2,1.2-6.6c0-4.4-1.4-7.8-4.2-10.3&#xA;&#x9;&#x9;s-6.8-3.7-12.1-3.7L842,468.3L842,468.3z"/>
    <path fill="#FFFFFF" d="M954.6,538.2c-5.9,3.2-13.4,4.8-22.3,4.8c-11.5,0-20.6-3.7-27.5-11.2s-10.3-17.4-10.3-29.6&#xA;&#x9;&#x9;c0-13.1,3.9-23.7,11.6-31.8c7.7-8.1,17.6-12.1,29.5-12.1c7.6,0,14,1.1,19,3.4v10.2c-5.8-3.3-12.1-4.9-19.1-4.9&#xA;&#x9;&#x9;c-9.3,0-16.7,3.2-22.5,9.4c-5.8,6.3-8.6,14.7-8.6,25.2c0,10,2.7,17.9,8.1,23.8c5.4,5.9,12.4,8.9,21.1,8.9c8.1,0,15.1-1.8,21-5.5&#xA;&#x9;&#x9;V538.2L954.6,538.2z"/>
  </g>
</svg>