<?xml version="1.0" encoding="UTF-8" standalone="yes"?>
<svg version="1.2" baseProfile="tiny-ps" viewBox="0 0 56.7 56.7" xml:space="preserve" xmlns="http://www.w3.org/2000/svg">
  <title>bimi-svg-tiny-12-ps</title>
  <rect x="0" fill="#195C8C" width="56.7" height="56.7"/>
  <path fill-rule="evenodd" fill="#195C8C" d="M4.3,36.8c-0.1,1.1,0.2,2.1,0.9,2.7c0.6,0.6,1.6,0.9,3,0.8c2.1-0.2,11.1-0.7,20.2-0.7&#xA;&#x9;c9,0,18.1,0.5,20.1,0.7c1.3,0.1,2.3-0.2,3-0.8s1-1.5,0.9-2.7c-0.1-1.3-0.6-5.1-0.6-8.5s0.5-7.2,0.6-8.5c0.1-1.1-0.2-2.1-0.9-2.7&#xA;&#x9;c-0.6-0.6-1.6-0.9-3-0.8C46.4,16.5,37.4,17,28.4,17s-18.1-0.5-20.2-0.7c-1.3-0.1-2.3,0.2-3,0.8s-1,1.5-0.9,2.7&#xA;&#x9;c0.1,1.3,0.6,5.1,0.6,8.5S4.4,35.5,4.3,36.8z"/>
  <path fill-rule="evenodd" fill="#FFFFFF" d="M33.7,33.8c2.3,0,3.8-1.2,3.8-3.1c0-1.4-0.8-2-1.7-2.4l-2.1-1C33.1,27,33,26.8,33,26.4&#xA;&#x9;s0.4-0.8,1.1-0.8c0.9,0,1.9,0.4,2.3,1.7h0.8v-2c-0.7-0.4-1.9-0.7-2.9-0.7c-2.1,0-3.7,1.1-3.7,3c0,1.5,1.1,2.1,2.1,2.5l1.9,0.8&#xA;&#x9;c0.6,0.2,0.7,0.5,0.7,0.8c0,0.7-0.7,0.8-1.3,0.8c-1.2,0-2.2-0.8-2.5-2h-0.9v2.3C31.6,33.5,32.7,33.8,33.7,33.8z M29.9,31.7&#xA;&#x9;c-0.2,0.2-0.3,0.3-0.6,0.3c-0.3,0-0.5-0.2-0.5-0.7v-2.8c0-2.4-1-3.8-3.6-3.8c-2.1,0-3.4,1.1-3.8,2.6l0.7,0.4&#xA;&#x9;c0.4-0.7,1.1-1.3,2.1-1.3c1.1,0,1.6,0.5,1.6,1.6v0.3l-1.3,0.3c-2.2,0.4-3.4,1.4-3.4,2.8c0,1.6,1.1,2.3,2.4,2.3c1.1,0,2-0.4,2.4-1.5&#xA;&#x9;H26c0.3,1,1,1.5,2,1.5c0.9,0,2-0.5,2.4-1.6L29.9,31.7z M46.6,31.7C46.4,31.9,46.3,32,46,32s-0.5-0.2-0.5-0.7v-2.8&#xA;&#x9;c0-2.4-1-3.8-3.6-3.8c-2.1,0-3.4,1.1-3.8,2.6l0.7,0.4c0.4-0.7,1.1-1.3,2.1-1.3c1.1,0,1.6,0.5,1.6,1.6v0.3l-1.2,0.3&#xA;&#x9;c-2.2,0.4-3.4,1.4-3.4,2.8c0,1.6,1.1,2.3,2.4,2.3c1.1,0,2-0.4,2.4-1.5h0.1c0.3,1,1,1.5,2,1.5c0.9,0,2-0.5,2.4-1.6L46.6,31.7z&#xA;&#x9; M13.7,28.8c0.4,0,0.9-0.4,1.3-0.6l1.5-1.2c0.6-0.4,0.6-0.6,0.6-0.9c0-0.4-0.4-0.4-1-0.5v-0.8h4.2v0.8c-0.7,0.1-1.3,0.4-2.2,1&#xA;&#x9;l-1.5,1.2l0.1,0.1l2.4,3.3c0.5,0.7,0.9,1.2,1.7,1.4v0.8h-3.7l-2.6-3.7c-0.5-0.6-0.8-0.5-0.8-0.5v2.3c0,0.9,0.2,1,0.8,1.1v0.8H9.6&#xA;&#x9;v-0.8c0.9-0.1,1.2-0.3,1.2-1.1v-6.2c0-0.8-0.2-1.1-0.8-1.1c-0.1,0-0.3,0-0.5,0v-0.8l3.4-0.9h0.9L13.7,28.8L13.7,28.8z M25.2,32.1&#xA;&#x9;c-0.6,0-1.1-0.4-1.1-1.3c0-0.8,0.5-1.4,1.3-1.6l0.5-0.1v2.6C25.7,32,25.5,32.1,25.2,32.1z M41.9,32.1c-0.6,0-1.1-0.4-1.1-1.3&#xA;&#x9;c0-0.8,0.5-1.4,1.3-1.6l0.5-0.1v2.6C42.5,32,42.2,32.1,41.9,32.1z"/>
</svg>