<?xml version="1.0" encoding="utf-8"?>
<!-- Generator: Adobe Illustrator 28.2.0, SVG Export Plug-In . SVG Version: 6.00 Build 0)  -->
<svg version="1.2" baseProfile="tiny-ps" id="Layer_1" xmlns="http://www.w3.org/2000/svg" xmlns:xlink="http://www.w3.org/1999/xlink" viewBox="0 0 500 500" xml:space="preserve">
<title>Royal Ontario Museum</title>
<g>
	<path d="M282.8,406.4V93.5H330l9.2,121.2l5.2,71.7h0.6l5.2-71.7l9.2-121.2h47.2v312.9h-28.1l0.4-121.7l1.6-160.7h-0.6l-23.1,282.4
		H332L309,124h-0.6l1.6,160.7l0.4,121.7H282.8z"/>
	<path d="M228.6,409c-8.6,0-16.1-1.6-22.2-4.7c-6.2-3.2-10.7-7.8-13.9-14c-3.1-6.2-4.7-13.6-4.7-22.2V131.9c0-8.6,1.6-16.1,4.7-22.2
		c3.1-6.2,7.8-10.8,13.9-14c6.2-3.2,13.5-4.7,22.2-4.7c8.6,0,15.9,1.6,22,4.7c6.1,3.2,10.7,7.8,14,14c3.2,6.2,4.8,13.6,4.8,22.2
		v236.2c0,8.6-1.6,16.1-4.8,22.2c-3.2,6.2-7.8,10.9-14,14C244.6,407.4,237.2,409,228.6,409z M228.6,381.3c3.2,0,5.7-1.2,7.6-3.5
		c1.8-2.3,2.8-5.6,2.8-9.8V131.8c0-4.2-0.9-7.4-2.8-9.8c-1.8-2.3-4.4-3.5-7.6-3.5c-3.3,0-5.9,1.2-7.8,3.5c-1.8,2.3-2.8,5.6-2.8,9.8
		V368c0,4.2,0.9,7.4,2.8,9.8C222.7,380.1,225.3,381.3,228.6,381.3z"/>
	<path d="M175.4,392.6c-0.6-4.5-0.9-10.7-0.9-18.6v-96.5c0-6.7-1-12.3-3-16.5c-2-4.2-5-7.4-9.2-9.5c-1.5-0.8-3.3-1.3-5.1-1.8
		c1.8-0.6,3.5-1.2,5-2c4-2.2,7.1-5.3,8.9-9.5c1.9-4.2,2.8-9.5,2.8-16v-89.4c0-9.2-1.4-16.6-4.3-22.3c-2.9-5.7-7.3-10-13.4-12.9
		c-6-2.8-13.8-4.2-23.3-4.2H93.5v312.9h30.3V264.2h8.7c4,0,6.9,0.9,8.8,2.8c1.9,1.9,2.8,5.1,2.8,9.3v98.4c0,8.1,0.2,14.5,0.6,19
		c0.4,4.6,1.2,8.7,2.5,12.4h32C177.3,401.8,176,397.2,175.4,392.6z M143.8,224c0,4.2-0.9,7.2-2.8,9.2c-1.8,1.9-4.7,2.9-8.7,2.9h-8.5
		V121.2h8.5c4,0,6.9,1,8.7,2.9c1.8,1.9,2.8,5,2.8,9.2V224z"/>
</g>
</svg>
