<?xml version="1.0" encoding="utf-8"?>
<!-- Generator: Adobe Illustrator 26.0.2, SVG Export Plug-In . SVG Version: 6.00 Build 0)  -->
<svg version="1.2" baseProfile="tiny-ps" id="Layer_2" xmlns="http://www.w3.org/2000/svg" xmlns:xlink="http://www.w3.org/1999/xlink"
	  viewBox="0 0 1024 1024" xml:space="preserve">
	  <title>Unikie</title>
<path d="M1023.35,1024H0.65c-0.36,0-0.65-0.29-0.65-0.65V0.65C0,0.29,0.29,0,0.65,0h1022.7c0.36,0,0.65,0.29,0.65,0.65v1022.7
	C1024,1023.71,1023.71,1024,1023.35,1024z"/>
<g>
	<path fill="#68A8DE" d="M447.5,520.63c0.55-0.12,1.03-0.48,1.03-0.84c0.04-21.63,0.03-43.26,0.03-65.32c-12.37,0-24.45,0-37.97,0
		c1.73-3.17,2.68-5.59,4.19-7.6c16.54-22.04,33.15-44.01,49.77-65.99c0.48-0.63,1.18-1.09,2.4-2.19
		c16.98,24.64,33.79,49.02,50.59,73.39c-0.35,0.56-0.71,1.13-1.06,1.69c-11.13,0-22.26,0-33.9,0c0,2.68,0,4.46,0,6.24
		c0,28.99-0.12,57.97,0.07,86.96c0.06,9.54-5,14.38-13.07,16.18c-15.53,3.47-29.43,0.79-40.64-11.84
		c-10.26-11.56-21.13-22.57-31.7-33.86c-1.23-1.31-2.26-2.82-3.38-4.24c-0.39,0.2-0.78,0.41-1.17,0.61c0,16.67,0,33.34,0,50.25
		c-11.48,0-22.42,0-34.12,0c0-1.64,0-3.38,0-5.13c0-23.99,0.46-47.99-0.22-71.96c-0.29-10.14,7.82-17.62,18-18.73
		c18.53-2.01,31.3,7.28,42.18,20.69c3.41,4.2,6.89,8.35,10.55,12.33C435.04,507.74,441.16,514.03,447.5,520.63z"/>
	<path fill="#FFFFFF" d="M239.58,485.32c0-4.66,0.13-8.83-0.03-12.99c-0.12-3.07,1.18-4.08,4.14-4.04
		c8.66,0.11,17.33,0.24,25.99-0.05c4.18-0.14,4.99,1.59,4.97,5.29c-0.13,19.66,0.07,39.32-0.16,58.98c-0.05,4.57,1.27,6.1,5.89,5.91
		c8.32-0.34,16.66-0.3,24.98-0.01c4.27,0.15,5.33-1.45,5.29-5.48c-0.17-19.58,0.05-39.17-0.17-58.75c-0.05-4.51,1.17-6.16,5.85-5.95
		c8.15,0.36,16.33,0.2,24.49,0.05c3.24-0.06,4.83,0.7,4.81,4.4c-0.12,29.16-0.1,58.31-0.01,87.47c0.01,3.38-1.39,4.22-4.48,4.21
		c-29.32-0.07-58.65,0.02-87.97-0.09c-8.52-0.03-13.55-5.54-13.57-14.47C239.55,528.47,239.58,507.15,239.58,485.32z"/>
	<path fill="#FFFFFF" d="M365.59,454.32c-5.79,0-11.08,0-18.06,0c2.55-3.97,4.16-6.87,6.15-9.49
		c15.61-20.57,31.31-41.08,46.96-61.62c10.94-14.35,21.81-28.76,32.78-43.09c2.81-3.67,4.56-3.54,7.21,0.31
		c6.96,10.1,14.04,20.12,20.68,30.43c0.97,1.5,0.65,5-0.48,6.52c-17.4,23.37-35.22,46.44-52.48,69.91
		c-3.99,5.42-8.08,7.65-14.79,7.19C384.44,453.85,375.24,454.32,365.59,454.32z"/>
	<path fill="#FFFFFF" d="M817.35,499.58c2.45,2.27,4.65,4.29,6.85,6.31c-0.22,0.47-0.43,0.95-0.65,1.42c-1.74,0-3.48,0-5.22,0
		c-19.82,0-39.65,0.11-59.47-0.08c-4.19-0.04-5.49,1.31-5.35,5.42c0.27,7.82,0.3,15.67-0.01,23.48c-0.17,4.33,1.54,5.28,5.52,5.25
		c20.32-0.16,40.65-0.08,60.97-0.06c1.62,0,3.23,0.15,6.46,0.3c-3.1,3.23-5.13,5.71-7.53,7.76c-5.02,4.31-10.12,8.56-15.45,12.49
		c-1.83,1.35-4.43,2.32-6.69,2.34c-24.32,0.16-48.65,0.01-72.97,0.19c-4.22,0.03-5.35-1.38-5.32-5.45
		c0.16-22.66,0.22-45.32-0.03-67.97c-0.05-4.82,1.69-5.78,6.05-5.75c22.49,0.18,44.99,0.52,67.46-0.15
		c8.03-0.24,13.58,2.69,18.74,7.88C812.85,495.1,814.98,497.21,817.35,499.58z"/>
	<path fill="#FFFFFF" d="M503.67,564.32c-8.08-0.02-8.09-0.02-8.09-7.49c0-27.62,0.08-55.24-0.08-82.86
		c-0.03-4.24,0.98-5.94,5.54-5.75c8.31,0.35,16.64,0.22,24.95,0.04c3.42-0.07,4.66,1.04,4.65,4.56
		c-0.11,28.95-0.12,57.91,0.01,86.86c0.02,3.9-1.52,4.79-5.03,4.69C518.47,564.18,511.31,564.32,503.67,564.32z"/>
	<path fill="#FFFFFF" d="M579.58,522.32c0,12.65-0.13,24.79,0.07,36.93c0.07,3.9-1.15,5.26-5.11,5.14
		c-8.48-0.25-16.97-0.21-25.45-0.02c-3.52,0.08-4.58-1.22-4.56-4.64c0.1-28.95,0.1-57.9,0-86.85c-0.01-3.45,1.09-4.7,4.59-4.62
		c8.65,0.18,17.3,0.19,25.95,0c3.52-0.08,4.59,1.22,4.57,4.64C579.51,489.21,579.58,505.51,579.58,522.32z"/>
	<path fill="#FFFFFF" d="M595.35,497.06c3.35-3,6.22-6.09,9.62-8.39c2.45-1.66,5.59-3.11,8.47-3.2c11.77-0.35,23.56-0.15,35.34-0.15
		c0.34,0.53,0.68,1.06,1.02,1.59c-11.28,10.17-22.56,20.33-34.2,30.83c16.91,15.13,33.5,29.98,50.09,44.82
		c-0.18,0.46-0.35,0.93-0.53,1.39c-1.7,0.12-3.39,0.34-5.09,0.35c-9.82,0.03-19.68-0.52-29.45,0.2c-6.8,0.5-10.41-3.9-14.52-7.39
		c-10.36-8.79-20.34-18.04-30.41-27.16c-0.89-0.81-1.93-2.05-1.96-3.12c-0.19-5.82-0.36-11.67,0.09-17.46
		c0.14-1.8,2.05-3.64,3.5-5.11C589.75,501.79,592.48,499.61,595.35,497.06z"/>
	<path fill="#FFFFFF" d="M704.58,507.32c0,17.63-0.09,34.76,0.07,51.9c0.04,3.83-1.03,5.31-5.06,5.18
		c-8.47-0.27-16.97-0.2-25.44-0.02c-3.46,0.07-4.63-1.11-4.62-4.59c0.11-23.29,0.11-46.57,0-69.86c-0.02-3.4,1-4.74,4.54-4.66
		c8.81,0.19,17.63,0.14,26.44,0.02c2.99-0.04,4.17,1.04,4.1,4.07C704.47,495.17,704.58,501,704.58,507.32z"/>
	<path fill="#FFFFFF" d="M792.27,529.15c-2.43,1.23-4.56,2.94-6.76,3.04c-7.81,0.34-15.64,0.04-23.46,0.18
		c-3.07,0.05-4.56-0.77-4.5-4.18c0.24-13.16-1.33-10.66,10.27-10.82c10.15-0.15,20.31-0.09,30.46,0.05
		c1.38,0.02,2.74,1.08,4.11,1.65c-0.74,1.16-1.27,2.53-2.25,3.44C797.71,524.74,795.08,526.77,792.27,529.15z"/>
</g>
</svg>
