<?xml version="1.0"?><svg version="1.2" baseProfile="tiny-ps" viewBox="0 0 300 300" xmlns="http://www.w3.org/2000/svg" xmlns:xlink="http://www.w3.org/1999/xlink"><title>HonorSociety.org</title><g><g fill="#fefefe" transform="matrix(.1 0 0 -.1 0 300)"><path d="M0 1500V0h3000v3000H0V1500z"/></g><g fill="#d8dce4" transform="matrix(.1 0 0 -.1 0 300)"><path d="M1470 2714c-8-1-62-10-119-19-393-63-744-198-1019-394l-93-66 7-45c72-534 162-1000 236-1233l31-98 37-57 37-57 96-92 97-92 128-85 128-86 145-73c79-40 187-91 241-112l96-38 94 38c329 133 662 346 809 517 90 105 129 196 188 448 58 247 168 893 174 1021l2 51-95 69-95 69-146 74-146 73-169 55c-262 86-582 150-664 132zm240-45c148-26 285-60 435-111l120-40 134-64 135-65 95-64c53-36 106-73 118-84l23-19-25-174c-91-626-181-1043-260-1197-55-110-179-228-375-360l-115-77-140-71c-77-39-184-89-238-112l-99-41-108 45c-213 87-422 203-585 325l-90 68-81 84-82 85-31 65-31 66-35 128c-59 215-119 526-180 943l-33 226 12 7c6 4 52 37 101 73l90 65 140 69 140 70 105 36c148 51 293 89 450 119 209 39 208 39 410 5zm-250-85c-170-29-221-40-320-64-257-65-489-162-668-281l-93-62 6-16c4-9 22-110 40-226 74-471 135-773 190-942l35-105 34-47c78-105 223-223 408-332 116-69 277-150 374-187l50-20 78 34c380 165 697 390 781 555 72 140 173 629 260 1252l5 37-100 66c-121 79-266 149-425 204-241 83-566 149-655 134zm103-358 58-59 44-89 43-89 7 10c3 6 9 30 14 53l7 43 22-58 22-58v-83l-21-42-20-42-36-28c-42-32-111-59-174-69l-47-7-54 11-55 12-41 30-41 30-20 42-21 43v60l1 59 18 40 18 40 8-27c4-16 10-28 14-28 11 0 61 69 86 117 13 27 26 69 30 94l7 46-10 36-10 37 46-32c26-17 73-59 105-92zm-722-487 11-22-6-39c-6-37-41-118-51-118-3 0-2 20 1 44l6 43-11 7-11 7-1-33c-1-18-4-44-8-58l-7-25-8 14c-5 7-8 30-8 51l1 38 22 44c37 74 50 83 70 47zm1412-39 28-54-3-45-3-44-12-5-13-4v40c0 22-3 49-7 59l-8 18-6-50-5-50-18 40c-10 22-21 59-24 82l-5 43 13 15c19 23 32 14 63-45zm-533-65-12-15h-192l-191 1-19 14-20 15h446l-12-15zm-728-21c-2-10-15-38-29-62l-25-44-46-29c-25-16-52-29-60-29h-13l23 31c13 17 30 40 38 52l15 20-22-11c-12-7-33-27-48-44l-27-33 7 30c9 42 35 84 67 108 25 19 91 37 113 32l10-2-3-19zm1150 0c34-18 74-70 84-109l7-30-42 39c-52 51-63 42-16-14 19-23 35-44 35-46 0-12-32-1-69 24l-41 28-25 37c-14 20-28 50-31 66l-6 30 38-6c22-3 51-12 66-19zm-480-79-15-55h-264l-12 41c-7 23-15 47-18 55l-5 14h329l-15-55zm-892-34c5-11 10-24 10-30v-11h-61l6-10c3-5 15-10 26-10h19v-29l-19-11c-11-5-28-10-39-10h-20l-6 16c-3 9-6 28-6 43v27l16 22 15 22h48l11-19zm1564-3 16-22v-27c0-15-3-34-6-43l-6-16h-46l-23 19-24 20 15 4c8 3 24 9 35 13l20 8-37 4-37 3 6 17c3 9 10 23 16 30l9 12h47l15-22zm-1324-39c0-6-9-32-21-59l-21-49-32-24c-17-13-41-27-53-31l-23-7v8c0 5 14 28 31 51 36 50 28 55-18 10-38-37-49-33-34 15l11 34 28 25c33 31 46 36 95 37l37 1v-11zm1110-4c15-8 38-27 49-41l21-27v-61l-33 32c-47 45-53 40-17-14 18-25 30-48 27-51-3-2-22 3-42 13l-36 17-23 31c-21 28-46 86-46 107v9h71l29-15zm-490-23c0-11-16-158-35-328-20-170-37-330-37-355l-1-47 13-32 14-33-28-24-28-24-21 7c-12 3-29 12-37 20l-14 14 12 56 11 56-39 345c-22 190-40 349-40 354v9h230v-18zm-846-83c14-11 26-27 26-35v-14h-75l15-10c8-5 25-10 38-10h23l-3-17-3-18-29-10-28-10-24 28-24 28v49l20 20c25 25 31 25 64-1zm1526 1 20-20v-47l-21-27-20-26h-18c-20 0-61 27-61 41v9h19c11 0 28 3 38 7l18 8-40 5-40 5 32 33c37 37 46 39 73 12zm-1270-57c0-10-5-35-10-55l-11-37-30-31-31-30h-19c-24 0-24 7 2 49 28 46 18 49-20 6l-31-36-1 23c-2 35 1 51 13 75l11 22 31 15c17 9 46 16 64 16h32v-17zm1072-22 28-31v-83l-35 39c-37 43-46 36-15-11 11-16 20-33 20-37 0-14-35-9-59 8l-23 17-19 41c-10 22-19 54-19 70v29l47-6 47-5 28-31zm-1268-82c14-11 26-25 26-30v-9h-64l10-9c5-5 20-11 34-13l25-3v-28l-21-7-21-8-23 11c-13 7-32 24-42 38l-19 25 12 27 12 27h44l27-21zm1414 9c7-7 12-22 12-34v-22l-35-31c-42-36-45-37-76-12l-24 19 45 13 45 14-39 3-38 3 28 30 28 29h21c11 0 26-5 33-12zm-1178-88v-41l-15-29c-15-29-52-57-62-46-3 2 0 21 7 41 15 47 7 55-16 16l-18-31-8 13c-4 6-8 24-8 38v26l21 27 20 26h79v-40zm971 19 21-21-4-44c-2-24-2-44-1-44s19 11 39 25c41 28 55 30 72 13 26-26 3-67-56-97l-23-12-19 6-20 6v25l38 11 37 10-37 2-36 1-21 36c-25 42-39 39-21-5 6-17 10-34 9-39l-4-10-23 9-23 9-14 35c-8 19-15 50-15 70v35h80l21-21zm-1142-73c15-8 33-22 40-30l13-16-33-1-34-2 38-10c40-11 45-18 22-37l-14-12-21 7c-11 3-34 18-50 32l-30 25v46l13 5c20 9 27 8 56-7zm229-109 3-49-12-14c-6-8-18-14-26-14h-15l6 38 7 37-20-25-20-25-11 30-11 29 10 24 11 23 38-3 37-3 3-48zm837 4v-44l-12-4-13-5v16c0 8-5 18-11 22l-12 7 7-37 7-36h-14c-29 0-42 35-39 103l2 28 43-3 42-3v-44zm-949-42c41-25 42-28 8-21l-27 5 7-11c3-6 20-13 37-17l30-7-4-11-4-12-24 3c-13 1-41 14-61 27l-38 25v40h21c12 0 37-9 55-21zm1054 3v-19l-17-15c-10-9-33-23-51-33l-34-16-14 5c-23 9-16 24 16 31 16 4 33 11 36 17l7 11-27-5c-14-3-26-4-26-3 0 10 69 45 88 45h22v-18zm-862-81c7-21 12-46 12-55v-16h-27l-8 33-7 32-7-20-8-19-17 27-18 27 6 15 5 15h58l11-39zm668 24 6-15-17-27-17-26-11 19-11 19-6-29-5-29-12-5-13-4v25c0 13 5 38 11 56l11 31h59l5-15zm-751-62 36-17-18-7-18-6 33-7c17-4 32-12 32-17v-9l-25 10c-49 19-105 51-105 60 0 15 25 12 65-7zm815 4v-14l-27-13c-16-7-43-19-60-26l-33-14v9c0 5 15 13 33 17l32 7-19 7-19 6 34 17c19 9 40 17 47 17h12v-13zm171-484-23-19v-57l18-14 18-13h56l20 20c23 23 26 49 8 73l-13 17-30 6-31 6-23-19zm77-15c15-15 16-45 1-53l-10-7 3 29 3 28-32 3-33 3v-61h10c6 0 10 5 10 10 0 6 7 10 15 10h15v-40h-14c-8 0-24 8-37 19l-23 19 12 26 12 26h56l12-12z"/></g><g fill="#aeb4c7" transform="matrix(.1 0 0 -.1 0 300)"><path d="M1359 2695c-184-32-325-68-482-121l-132-45-125-60-125-60-95-64c-52-35-109-76-127-92l-32-28 35-230c93-623 172-982 251-1145l36-75 102-101 101-101 138-91 138-92 147-74c80-40 187-90 237-110l91-36 89 36c49 19 154 67 232 106l144 71 133 88 133 88 91 87c109 104 154 163 187 246 53 136 119 421 178 773 41 246 88 566 84 570-47 38-184 133-246 169-249 146-664 275-997 310l-50 5-136-24zm301-15c168-28 341-71 502-126l133-45 120-59c110-54 259-145 328-202l29-24-31-214c-89-608-189-1055-265-1185-61-102-205-233-392-355l-109-71-150-74c-82-41-186-88-229-105l-79-31-81 32c-45 18-151 67-237 110l-155 78-120 80C726 621 600 740 545 850c-80 159-169 574-265 1235l-20 139 8 7c4 3 49 36 99 72l93 65 127 65 128 65 125 45c185 67 553 153 665 156 17 1 86-8 155-19zm-250-106c-273-42-541-125-755-232-88-44-249-144-260-162-6-10 61-445 111-710 42-225 98-454 130-534l24-59 42-54c55-72 168-168 298-255l105-70 184-91 184-92h82l175 87 175 86 120 80c137 91 227 167 297 249l48 57 21 55c67 181 162 643 224 1091 9 63 18 124 20 136l4 20-57 41c-235 165-575 291-952 353-69 11-127 19-130 19-3-1-43-7-90-15zm140-334 76-75 41-85 42-85 10 28c6 16 11 38 11 50l1 22 21-40 21-40 4-65 4-65-23-40-23-40-49-33-49-32-55-16-56-16-61 4-61 5-39 21c-46 23-76 53-100 101l-17 33v53l-1 52 19 54 18 54 10-27c5-16 13-28 17-28 14 0 63 66 86 117l24 53 2 47c1 27-2 61-6 76l-8 29 33-19c18-10 67-52 108-93zm-710-489c20-38 2-137-33-179l-12-15-6 49-6 49-1-52-2-53h-10c-5 0-14 9-20 21l-12 21 12 48 12 49 26 40c30 46 37 49 52 22zm1405-29 30-47v-118l-12-4-13-5v39c0 21-5 45-10 53l-10 15-1-50-1-50-24 50-24 50v38c0 38 14 77 28 77 4 0 21-21 37-48zm-521-87-19-14-191-1h-190l-20 15-19 14 229 1h230l-20-15zm-724-5c0-6-10-31-21-55l-21-46-41-35c-41-35-82-52-94-40l-7 6 25 28c50 54 52 66 5 22l-49-45 7 33c14 78 85 137 169 141l27 1v-10zm1109 0 34-10 30-27c35-34 57-74 57-105l-1-23-27 31c-15 17-36 37-47 45l-20 14 14-20c8-11 28-35 45-52l30-33h-20c-11 0-41 13-66 29l-46 29-25 44c-14 24-28 53-32 66l-6 22h23c13 0 39-4 57-10zm-435-62c-4-13-12-39-19-58l-12-35-127-3-127-3-14 34c-7 18-17 45-20 60l-7 27h333l-7-22zm666-78c13-24 13-66-1-91l-10-20-22 7c-24 7-57 33-57 44 0 4 15 11 33 16l32 8-37 3-38 4v10c0 5 11 21 25 35l25 25 20-11c11-6 24-19 30-30zm-1563 0 12-25-34-3-35-3 5-10c4-5 17-9 31-9h24v-8c0-12-30-37-54-46l-19-6-13 11-14 11v81l17 19 17 19 25-3 26-3 12-25zm230-46-6-37-26-39-26-39-32-19c-60-37-75-20-31 37 35 46 24 52-14 8-17-19-34-35-37-35-11 0-4 43 11 77l17 34 25 17c20 13 52 22 116 31l9 1-6-36zm1126 7 27-16 21-42 21-43-7-17-6-17-25 32c-14 18-30 32-35 32h-9l26-40c31-46 27-58-15-41-54 23-111 105-111 160v19l43-5c23-3 54-13 70-22zm-499-23c-14-85-74-649-74-693v-54l10-6c6-3 10-15 10-26v-19l-20-20-20-20h-41l-25 25-26 26 7 17c4 9 11 31 15 49l8 32-39 333c-21 183-39 343-39 356v22h237l-3-22zm-861-69 25-11 11-24 11-24h-37c-42 0-38-9 7-19l30-6-15-22-16-23h-58l-15 22-16 22v59l17 19c19 21 24 22 56 7zm1541-11c20-28 20-51 1-88l-16-30h-52l-19 17c-25 23-23 29 15 39l32 8-32 3c-18 3-33 7-33 11 1 21 51 61 77 62 6 0 19-10 27-22zm-1274-65c0-16-9-47-19-69l-19-41-23-17c-13-9-31-16-41-16h-18v13c0 6 7 21 15 31 27 36 15 42-15 7l-29-34-7 27-6 26 13 31 12 31 31 19 31 19h75v-27zm1051 11 31-15 14-35 14-34-6-25-6-26-35 38-34 38 21-42c24-51 24-53 2-53-28 0-61 28-82 70l-20 39v61h71l30-16zM855 1180l29-30h-79l15-10c8-5 25-10 38-10h22v-29l-19-11c-29-15-37-13-76 21l-35 31v15c0 8 5 23 10 34l11 19h55l29-30zm1415 4 10-26-21-29c-35-49-75-62-103-33l-16 16 5 9c4 5 17 9 30 9s26 4 30 9l5 10-32 3-33 3 27 28 27 27h61l10-26zm-1192-90-5-55-26-26-25-26-16 6-15 6 15 38 16 37-16-13c-8-7-18-22-22-33l-6-21-9 14c-5 8-9 31-9 52v37l20 20 20 20h82l-4-56zm970 40 22-15v-91l35 22 35 21 22-3 23-3 3-26 3-26-36-32-37-32-26 3-27 3-3 16-3 16 33 10 33 11-32 1-32 1-18 30c-9 17-21 30-25 30h-8l15-37c17-41 15-48-15-38l-21 7-20 31-19 32v85h76l22-16zm-1113-90c14-9 25-20 25-25v-9l-27-1-28-1 33-11 33-10-3-16-3-16-27-3-26-3-36 31-36 32v22c0 13 3 26 7 30l8 8 27-6c16-3 39-13 53-22zm203-83c2-25 1-55-3-68l-5-23h-42l4 30c5 35-3 39-17 8l-10-22-25-6-25-6 33-7 32-6v-33l-32 6c-17 3-46 18-65 32l-33 25v39h23c12 0 37-9 56-21l34-20-8 18c-4 10-10 30-12 44l-5 27 24 16 23 17 25-3 25-3 3-44zm833 28 21-21-6-23c-3-13-9-30-12-39l-6-17 35 21 36 21 23-3 23-3v-28l-36-29-36-29-28-2-28-2-4 13-5 12 34 7 33 7-25 6-25 6-10 22c-5 12-13 22-17 22h-7l6-30 6-30h-43l-11 27-10 28 6 35c9 46 12 50 41 50h24l21-21zm-752-151c6-17 11-42 11-54v-24h-28l-7 28-7 27-7-19c-4-11-16-23-27-26l-19-7 33-7 32-8v-19l-22 6c-38 12-101 49-106 63l-4 12h22c11 0 35-7 52-16l32-17-17 26c-9 15-17 33-17 42v16l23 8c31 12 44 4 56-31zm668 17 4-13-16-32-16-31 30 15c16 9 39 16 51 16h20v-10c0-10-73-54-107-65l-23-6v8c0 5 10 13 23 19l23 9-23 24-23 24v-53h-30v31c0 31 15 69 33 80 13 9 48-1 54-16zm243-538-25-12-3-31-3-31 16-17 16-16h56l16 18 17 19v51l-12 10c-7 5-22 12-33 16l-20 6-25-13zm68-19c15-15 16-54 2-63l-10-6v71h-60v-60h10c6 0 10 5 10 10 0 6 7 10 15 10h15v-40h-19c-24 0-51 26-51 49 0 25 20 41 50 41 14 0 31-5 38-12zm-23-18 6-10h-15c-9 0-16 5-16 10 0 6 4 10 9 10 6 0 13-4 16-10z"/></g><g fill="#818aaa" transform="matrix(.1 0 0 -.1 0 300)"><path d="M1420 2703c-316-47-644-149-870-270-91-49-137-78-241-154l-66-49 33-227c71-479 142-835 208-1038l35-110 31-49c17-26 66-83 108-125 167-168 426-328 738-460l120-50 105 43c225 93 440 213 598 331l98 74 77 82 77 82 28 56c84 168 178 606 275 1286l14 100-17 19c-9 10-65 51-126 92l-110 73-125 60c-239 115-567 207-860 244l-35 4-95-14zm275-28c169-29 300-62 460-116l120-40 140-69c135-66 252-138 325-198l34-29-23-159c-86-598-179-1033-255-1200l-34-72-78-82-79-82-97-74c-155-116-378-239-596-329l-92-38-73 28c-304 118-611 306-783 479l-81 82-26 45c-57 97-124 348-191 714-43 236-108 675-102 690 2 7 59 49 126 94l122 82 111 54c194 93 475 179 732 224 146 26 176 25 340-4zm-356-115c-341-63-642-176-858-320l-93-63 6-31c4-17 16-89 27-161 79-516 154-878 216-1047l27-73 105-106 106-106 125-82 125-83 160-78c88-43 177-84 197-91l37-13 108 48c282 126 512 274 654 422l66 69 27 53 27 53 34 126c53 193 143 673 185 990l13 92-6 15c-10 25-166 122-290 181-191 91-420 162-659 205l-111 20-66-1c-36 0-109-9-162-19zm131-245c27-20 73-62 104-96l56-60 39-81 40-82 5 14c3 8 9 33 14 55l8 40 23-60 23-60-4-60-4-61-23-33c-13-18-42-46-64-62l-40-29-50-15-51-15h-54c-30 0-72 5-94 12l-39 12-45 39-44 39-16 55-16 56 6 40c4 23 17 62 28 87l22 45 4-32 3-33h10c16 0 78 93 95 143l16 49-4 64c-2 35-2 64 0 64s26-16 52-35zm-630-564c21-41 5-134-33-179l-12-15-6 44-6 44-1-52-2-53h-10c-5 0-14 10-21 21l-11 21 6 42 6 41 30 53c33 56 44 62 60 33zm1413-39 29-52 1-50 2-51-15-9-15-9-3 22c-1 12-5 38-9 57l-7 35-6-50-5-50-22 46-23 45v100l12 12c18 18 28 11 61-46zm-528-77-30-25h-364l-28 25-28 24h480l-30-24zm-725-5c0-19-30-84-48-104-9-10-35-32-56-47l-39-29h-51l25 28c47 51 53 67 11 27l-42-39v22c0 31 22 71 57 104 34 32 67 47 111 47l32 1v-10zm1141-13 44-24 22-39 23-39v-49l-42 39-42 40 38-47 37-48h-49l-44 33-43 33-27 49c-15 28-28 56-28 63v12h67l44-23zm-461-29c0-6-8-35-17-65l-17-53h-262l-17 53c-9 30-17 59-17 65v12h330v-12zm-911-84c29-37 27-42-16-47l-38-3 33-8c39-10 40-18 5-46l-27-21-15 3-16 3-13 28-13 28 11 34 12 35 16 10c27 15 39 12 61-16zm1562 5 20-20-3-46-3-46-17-11-17-10-28 20c-14 11-28 25-30 31l-4 10 33 9 33 8-37 3c-44 5-46 10-17 47 25 31 42 33 70 5zm-1321-51c0-13-9-41-19-63l-18-41-32-27c-33-27-77-44-87-34-4 3 6 21 20 40 38 50 31 59-9 12l-35-40v66l15 29c25 48 72 74 143 79l22 1v-22zm1084 11 40-11 28-30 27-29 7-35 6-35-6-6-6-7-37 35-36 34 25-35c14-19 29-41 33-49l8-14-34 7-33 6-29 28c-31 29-60 81-71 125l-6 27h22c13 0 41-5 62-11zm-459-51c-12-70-75-651-75-691v-43l11-11 11-11-4-23-3-23-26-15-25-14-28 7-27 7-11 25-12 25 12 20 12 19v57c-1 32-18 203-38 381l-38 322h247l-6-32zm-840-73c14-13 25-29 25-35v-10l-37-1-38-1 35-11c46-14 46-14 25-37l-18-20h-57l-20 32-20 33 6 20c4 11 13 28 22 38l15 17h38l24-25zm1517 8 18-16v-63l-16-22-15-22h-58l-15 16c-23 22-20 30 17 42l32 10-32 1-33 1v10c0 6 11 22 25 35l24 25h17c10 0 26-7 36-17zm-1272-72c0-41-17-81-48-113l-26-28h-58l21 36c29 49 26 55-9 14l-29-35-6 18-7 17 6 34 7 35 30 25 31 26h88v-29zm1062 9c14-10 31-33 38-49l12-31-7-27-7-28-29 35c-33 41-38 32-8-16l21-34h-58l-26 28c-31 32-48 72-48 113v29h87l25-20zm-1272-85c26-13 50-42 50-59 0-3-15-3-32-1l-33 5 20-9c11-5 28-12 39-15l19-6-18-20-18-20h-45l-31 31-31 31v38l20 20c24 24 23 24 60 5zm1430-5c11-11 20-27 20-36v-16l-34-34-34-34h-17c-9 0-25 5-36 10l-19 11v29h23c12 0 29 5 37 11l15 11-38-6-37-5 11 20c10 19 65 59 82 59 4 0 16-9 27-20zm-1182-92 3-47-16-30-15-31-26-6c-34-9-37-3-18 42l16 38-16-13c-8-7-18-21-21-32l-6-19-37-1-37-1 37-10 38-10-11-19-10-19h-44l-37 25-37 25-6 20-7 21 12 14 12 15h45l35-23 34-24-4 29c-2 15-1 39 2 54l7 25 32 14c18 8 41 14 52 12l20-2 3-47zm977 21 20-19v-77l30 18c16 11 40 19 52 19h22l12-22 12-22-41-38-41-38h-49l-12 15c-15 18-15 19 30 32l35 11-36 1-36 1-12 26c-6 15-14 24-17 21s-1-14 5-25c6-12 11-25 11-31v-11h-37l-22 24-23 25-5 45c-3 25-3 53 1 62l6 16 38-7 37-6 20-20zm-917-136c3-10 7-37 7-61v-44l-19-13c-25-19-36-11-37 28l-1 32-10-27-10-28-21-1-22-1 25-7 25-7 3-17 3-17h-47l-42 27c-48 32-55 44-38 69l13 17 41-20 40-20-5 34-6 33 18 20 18 20h58l7-17zm837-3 17-19-4-23c-3-13-9-32-13-43l-8-20 19 17c10 9 32 22 48 28l28 10 14-11c8-6 14-18 14-25v-14l-47-30-47-30h-46v30l27 7 28 6-27 9-27 9-4 17-5 17-1-27c0-15-5-29-11-33l-9-6-21 21-20 20v24c0 13 3 38 6 55l7 31h64l18-20zm-758-140c7-14 13-39 13-57v-32l-10-6-10-6-16 33-15 33 5-22 4-23h-21l-22-1 35-16 35-16-17-4-16-4-50 25c-28 14-54 31-57 37l-7 11 10 10 10 10 42-22 42-22-16 23c-9 13-16 31-16 41v17l18 10c25 15 45 9 59-19zm654 20 19-11v-15c0-8-8-26-17-41l-17-25 43 22 43 22 10-10 10-10-7-11c-3-6-29-23-57-37l-50-25-16 4-17 4 35 16 35 16-22 1h-22l-4 23-4 22-2-27c0-15-5-29-10-32l-9-6-11 13-10 13 10 40c17 62 32 74 70 54zm246-568-17-19v-42l22-15c12-9 32-16 43-15h20l-35 12-35 12-3 27-3 26 23 16c12 9 18 16 12 16s-18-8-27-18zm71 8 22-9v-57l-12-14-13-14 18 13 17 13v54l-12 12c-7 7-19 12-27 11h-16l23-9zm-47-42 1-33 5 13c2 6 11 12 18 12s16-6 18-12c3-7 4 1 3 17l-1 30-23 3-22 3 1-33zm39 12c0-5-7-10-15-10s-15 5-15 10c0 6 7 10 15 10s15-4 15-10z"/></g><g fill="#525e8c" transform="matrix(.1 0 0 -.1 0 300)"><path d="M1345 2689c-162-28-302-64-459-116l-140-47-145-72-146-72-102-73-103-73 1-25c0-15 4-46 9-71l8-45-1 69-2 68 95 69 95 70 150 74 150 74 150 50c167 55 323 92 493 118l113 17 96-12c115-15 136-9 28 7-102 15-160 13-290-10zm450-29c44-11 87-19 95-18 24 1-122 36-150 36h-25l80-18zm160-37c229-66 411-137 545-211 82-45 231-146 255-172l19-20-13-93c-24-186-83-547-122-741-21-110-38-201-35-203 10-11 98 468 150 820l33 228-58 45c-127 97-273 178-454 251-106 43-335 114-358 112-7-1 11-8 38-16zm-630-67c-253-50-436-108-625-198l-125-59-93-61-93-62 5-20c3-12 22-124 42-251 81-524 163-892 225-1017 47-93 222-246 415-364 109-66 308-166 395-199l47-17 83 37c143 62 329 163 444 240l111 74 81 76c45 41 95 96 112 121l30 46 25 76c56 167 127 516 190 929 20 127 36 241 36 252v21l-92 61c-204 134-478 239-793 305l-120 25-90 4-90 5-120-24zm179-266c85-70 149-157 185-248l19-47 11 45c7 25 13 49 15 54 1 5 13-15 26-45l23-54v-110l-16-31c-9-17-33-46-55-66l-39-36-57-21-57-21h-144l-40 19-40 18-37 41-37 41-10 38c-6 21-11 52-11 70 0 40 27 123 46 143l14 14v-64h9c12 0 54 56 81 109l22 45 5 57 6 57-11 31-11 32 30-18c17-10 49-34 73-53zm-666-532 12-12v-95l-12-28c-7-15-19-39-28-53l-15-24-6 39-6 40-2-42-1-43h-10c-6 0-15 11-21 24l-12 24 7 45 7 44 29 47c31 49 39 53 58 34zm1420-57 32-64v-29c0-33-16-68-30-68h-10l-1 28c-1 15-5 38-9 52l-9 25 5-50 5-50-20 24-21 23-16 54-15 54 7 22c9 31 25 49 38 45 6-1 26-31 44-66zm-531-66-28-25h-187l-187 1-22 18c-13 11-23 22-23 25s107 6 238 6l237-1-28-24zm-727-11c0-9-12-38-26-65l-27-48-36-25c-42-29-86-47-95-39-3 3 9 24 26 47l32 41-37-34-37-35v47l25 44 26 43 37 20 37 19 38 1h37v-16zm1137-1 35-16 29-40c16-22 29-48 29-59 0-23 5-23 30 2 11 11 27 20 35 20 21 0 53-34 61-64l6-25-14-28-13-28-21-3-20-3-30 27-29 28 33 8c40 11 42 22 2 16-16-2-31-2-32 1-2 3-23 24-47 46l-44 40 36-46c20-25 34-49 31-52-11-11-77 23-113 56-32 31-70 98-71 125v12h72l35-17zm-457-34c0-6-7-35-16-65l-15-54h-267l-18 53c-9 28-19 58-22 65l-4 12h342v-11zm-913-81c13-12 23-29 23-38v-17l-32 4-33 4 15-10c8-6 24-11 35-11l20-1-33-29-32-30h-38l-12 29-12 30 7 30 7 31 21 15c28 20 36 19 64-7zm247-55c-12-49-42-99-79-131l-36-32h-24c-31 0-31 5 2 49l26 36-36-34-37-35v33c0 81 64 138 158 140l32 1-6-27zm1123 2c13-9 33-30 43-48l20-32v-63l29 29 29 29h21c23 0 47-21 56-50l6-19-16-30c-8-17-24-35-34-41l-20-10-25 9c-13 6-29 18-35 28l-10 18 32 12 32 11-32 1-32 1-37 38-37 37 26-37c33-45 33-48 4-48h-22l-37 25-36 24-20 43c-12 24-24 56-28 72l-7 29 53-6 53-6 24-16zm-497 0c0-3-18-163-40-355l-40-351 5-32c3-18 8-45 11-60l6-28-17-19-18-20h-53l-22 16-22 15v24c0 13 5 27 10 30l10 6v52c-1 29-18 201-39 382-21 182-36 333-34 338l4 7h120c65 0 119-2 119-5zm-845-110c14-13 25-30 25-38v-14l-32 4-33 3 30-11c38-15 37-13 30-32-4-8-20-21-36-27l-30-13-24 23c-13 12-26 33-29 46l-6 24 15 30 16 30h50l24-25zm242-81-5-46-19-26c-11-14-31-35-45-45l-26-20-17 6-16 7 21 42 22 43-26-30c-14-16-26-34-26-40v-10l-10 15c-5 8-10 30-10 49v33l34 34 34 34h95l-6-46zm1075 17 33-29v-97l31 33 32 32h41l15-22c23-32 20-48-16-85l-32-33h-26c-28 0-50 16-50 37v13l23 1 22 1-20 5c-11 2-33 19-48 36l-28 32 16-33 16-32-15-6-14-5-31 15-31 16-19 38c-10 20-21 54-25 75l-7 37h101l32-29zm-1261-90c33-34 36-48 12-54l-18-5 23-1 22-1v-9c0-5-7-17-16-25l-15-16h-51l-29 29-29 29v45l17 19 16 18h39l29-29zm235-55 5-23-11-42-11-42-20-20-19-19h-42l5 18c2 9 8 26 12 37l6 20-16-27-16-28-32-1-32-1 33-9c17-5 32-13 32-17 0-16-25-32-50-32h-25l-38 31-37 30v18c0 24 20 41 48 41h24l28-20 27-19v79l14 16c17 21 46 33 81 33l28 1 6-24zm972-12 24-27-4-33-4-32 24 19 25 19h55l12-15 12-14-7-21-6-20-37-25-37-25h-43l-12 15c-15 18-14 19 25 33l30 10-31 1-31 1-12 26c-6 15-14 24-17 22-2-3 1-17 7-32 15-32 8-40-25-32l-26 6-15 30-15 29v104l42-6 43-6 23-27zm-914-136c3-13 6-37 6-54v-32l-18-23-19-22-15 6-16 5 3 24 2 23-4-17-4-18-22-1-22-1 20-5c40-10 41-43 1-43h-22l-47 30-47 30v14c0 7 7 20 16 27l16 13 38-20 38-21-6 40-5 40 18 14 19 13h64l6-22zm831 5 17-17-5-36-5-37 37 20 37 21 17-7 17-6v-38l-17-15c-27-23-79-48-103-48h-20v31l23 9 22 9h-22l-22 1-4 23-4 22-2-32-1-33h-14c-8 0-22 10-30 22l-16 22v31c0 16 3 40 6 53l6 22h67l16-17zm-751-163 15-51-6-14c-7-20-20-19-32 3l-10 17-1-16c0-8 5-20 12-27l12-12h-20c-11 0-43 12-72 26l-52 26v38h10c6 0 26-7 45-15l35-14-10 19c-5 10-10 28-10 39v19l13 5c6 3 22 6 34 6l22 1 15-50zm650 44 16-6v-20c0-11-5-28-10-38l-10-19 35 14c44 19 55 19 55 0v-15l-38-25c-20-13-52-27-70-31l-32-6v11c0 6 5 11 10 11h10l-1 23v22l-10-23-9-24-12 5-13 4 2 32c0 18 7 45 13 62l12 29h18c10 0 25-3 34-6zM272 2060v-35l5 18c2 9 2 25 0 35l-5 17v-35zm10-60c0-14 5-59 12-100 8-41 14-64 14-50s-5 59-12 100c-8 41-14 64-14 50zm29-196c-2-47 107-619 116-610 2 2-8 60-22 129-15 69-41 210-60 314-18 103-34 178-34 167zm120-635c-2-30 61-234 94-304l32-70 49-58c144-171 472-382 810-522l102-42 134 56c337 143 633 338 779 513l52 63 23 50c27 58 94 278 93 303 0 9-15-35-34-98-41-141-68-210-100-258-66-98-248-254-415-359-148-91-446-235-519-249l-26-5-99 41c-317 132-568 290-744 467l-93 93-34 73c-18 39-47 124-65 187-38 139-38 139-39 119zm1724-876c11-3 24-10 28-17l9-11-5 15-4 15-24 2-24 2 20-6zm-54-24-1-27 18-13 17-14-12 15c-6 8-13 26-16 40l-4 25-2-26zm40-15 1-19 5 13c3 7 2 16-1 19-3 4-6-2-5-13zm60-17-13-22 18 17c10 10 16 20 13 22-3 3-11-5-18-17zm-53-24c6-2 18-2 25 0l12 5h-50l13-5z"/></g><g fill="#202f6d" transform="matrix(.1 0 0 -.1 0 300)"><path d="M1478 2703c6-2 18-2 25 0l12 5h-50l13-5zm60 0c6-2 18-2 25 0l12 5h-50l13-5zm-140-10c6-2 18-2 25 0l12 5h-50l13-5zm220 0c7-3 16-2 19 1 4 3-2 6-13 5l-19-1 13-5zm-280-10c7-3 16-2 19 1 4 3-2 6-13 5l-19-1 13-5zm340 0c7-3 16-2 19 1 4 3-2 6-13 5l-19-1 13-5zm-390-10c7-3 16-2 19 1 4 3-2 6-13 5l-19-1 13-5zm450 0c7-3 16-2 19 1 4 3-2 6-13 5l-19-1 13-5zm-500-10c7-3 16-2 19 1 4 3-2 6-13 5l-19-1 13-5zm-50-10c7-3 16-2 19 1 4 3-2 6-13 5l-19-1 13-5zm690-10c7-3 16-2 19 1 4 3-2 6-13 5l-19-1 13-5zm40-10c7-3 16-2 19 1 4 3-2 6-13 5l-19-1 13-5zm-563-74c-334-59-656-178-878-326l-87-58 5-13c3-7 21-115 40-240 82-520 156-869 213-1003 73-170 404-413 781-574l83-35 107 45c139 60 352 179 471 263l94 67 79 77 78 77 33 73 34 73 30 120c39 154 73 316 111 535 28 162 81 508 81 528 0 17-170 123-284 178-202 97-436 169-691 214-141 24-158 24-300-1zm121-245 64-45 52-62 51-62 33-69 33-68 6 28c4 16 10 38 15 49l8 20 23-50 23-50v-65l1-65-23-38-24-37-44-31c-24-16-62-36-85-44l-42-15h-162l-52 30-53 30-27 42-28 42v151l24 50 25 50 4-33 3-33 12 4c7 2 27 23 44 46l33 42 16 56 16 56-5 41c-3 23-8 49-12 59l-7 17h7c4 0 36-21 71-46zm-628-578 14-27-12-48c-6-26-21-63-33-82l-21-34-7 35-6 35-2-37-1-38h-8c-4 0-13 5-20 12l-12 12v81l21 45c23 52 48 82 63 77 6-2 17-16 24-31zm1406-19 29-47 5-50 5-50-13-15c-18-21-30-19-31 8v22l-8-19-7-19-22 27-21 27-12 54-12 54 13 31 13 31 16-3 15-3 30-48zm-504-63c0-3-10-14-22-25l-23-18-190-1h-190l-30 25-30 24 243 1c133 0 242-3 242-6zm-745-36c-4-13-19-43-34-68l-27-45-48-32-48-33h-40l6 16 6 15-9-6-9-5-5 12-5 13-1-17-1-17-32 4-33 5 35-13 34-14-26-26-27-27h-50l-11 19c-5 11-10 33-10 49v29l21 27 20 26h39l20-20c26-26 26-25 33 8 7 35 41 79 81 103l31 19h96l-6-22zm1133 8c38-20 68-55 87-100l16-39 15 22 15 21h46l16-18c9-10 19-32 23-48l5-29-10-27-11-28h-47l-27 21c-33 26-33 33 2 46l27 10-37-1h-38v-18l-27 6c-14 4-45 20-67 36l-42 28-27 50c-15 27-27 57-27 66v16h81l27-14zm-450-38c-3-7-13-37-22-66l-18-53-136 3-136 3-13 44c-7 24-15 52-18 62l-6 19h353l-4-12zm-673-140c-4-18-18-52-32-76l-25-43-31-20c-18-10-42-19-54-19h-23v9c0 4 9 21 21 37l21 29-26-27c-14-16-28-28-31-28s-5 17-5 39v38l22 28c12 15 35 36 52 46l31 19h87l-7-32zm1104 17c16-8 40-28 55-45l26-32v-80l-14 5-15 6 6-15 5-14h-55l-35 26-34 27-24 51c-13 28-24 59-24 69v17h81l28-15zm-479-19c0-8-18-172-40-364l-40-349 14-47 14-46-20-25-19-25h-62l-19 17-18 16v27c0 15 3 30 7 33 15 16 11 88-27 418-22 193-40 353-40 355s56 4 125 4h125v-14zm-843-98 23-21v-37l-12-1-13-1 13-5c19-7 14-30-10-47l-22-16h42l31-26 31-26v67l20 32 19 32 38 10c48 14 80 14 88 1l7-11-12-49-12-50-27-29-28-30-27-7c-35-8-42 0-27 33l11 28-16-20c-8-11-20-19-25-17l-10 2 6-10 6-10-18-1-18-1 18-5 17-4v-13c0-6-5-17-12-24l-11-11 29-11c16-6 36-18 44-25l15-14v81l29 25 28 24 37-3 36-3v-52l-1-53-20-27-21-28-28-3-28-4 7 29 7 28-15-22-16-21 5-14c6-17-6-35-25-38-33-5-51 1-85 31l-35 31v47l18 10 17 10-31 1h-32l-31 35c-36 41-35 38-16 74l14 29-24 6-25 6-15 30c-19 37-19 60 1 88l15 22h53l23-22zm1522 9c6-8 14-27 17-44l6-29-27-32-27-32h-37l-28 25-28 25 15 10 15 10h-12c-20 0-16 15 13 49l26 31h56l11-13zm-220-59c11-7 28-26 37-43l17-32-5-33-5-32 16 20c33 41 79 53 105 26l16-15v-47l-29-31-29-31h-53l15-16c9-8 16-23 16-33v-17l-27-26c-16-15-39-31-53-36l-25-9-22 8-23 8v15c0 8 4 16 9 18l9 3-16 15-16 14 7-17 6-17h-58l-19 25-20 25-6 43-7 44 7 17 7 18 44-5 44-5-16 19c-22 23-44 86-45 123v29l49-6c27-3 59-12 70-19zm-955-304c3-9 6-34 6-57v-40l-17-19c-9-10-22-18-28-18-7 0-15-7-19-15l-5-15h-58l-42 31-42 30 3 22 3 22 17 3c10 2 31-3 48-12l30-14v74l12 12 12 12h74l6-16zm836 1 12-15-4-35c-2-19-3-35-2-35s15 7 30 15c16 8 37 15 47 15h18l6-16 6-17-10-16c-5-9-25-26-43-38l-33-23h-27c-15 0-30 3-33 6l-6 7 11 21 10 21-13-12c-18-17-34-16-53 3l-16 15v44c0 24 3 50 6 59l6 16h76l12-15zm-759-142c6-16 13-41 16-56l6-28-21-19c-28-26-43-25-102 5l-50 25v40h15c9 0 29-7 45-15l29-15-17 29-16 29 13 16 13 16h58l11-27zm653 21 16-6v-54l-12-13-13-13 32 16c18 9 39 16 48 16h15v-40l-50-25c-59-30-74-31-102-6l-20 20 7 38c4 21 11 46 16 55l10 18h19c10 0 25-3 34-6zm311 626c10-11 20-20 23-20s-3 9-13 20-20 20-23 20 3-9 13-20zm-45-144c0-2 8-10 18-17l17-14-14 18c-13 16-21 21-21 13zM928 1003c7-3 16-2 19 1 4 3-2 6-13 5l-19-1 13-5zm1176 175c9-15 16-32 16-39v-11l-29 4-30 4 10-17c5-10 9-31 9-47v-29l40 19 39 20-15 24-16 24 23 1h24l-21 9c-12 4-31 21-44 37l-22 28 16-27zm-16-175c7-3 16-2 19 1 4 3-2 6-13 5l-19-1 13-5zM650 2480l-15-10h10c6 0 17 5 25 10l15 10h-10c-5 0-17-5-25-10zm-126-66-19-15 23 11c12 6 22 13 22 15 0 8-5 6-26-11zm-70-40-19-15 23 11c12 6 22 13 22 15 0 8-5 6-26-11zm-105-71-14-18 18 14c9 7 17 15 17 17 0 8-8 3-21-13zm2331 3c0-2 8-10 18-17l17-14-14 18c-13 16-21 21-21 13zm-2371-33-14-18 18 14c9 7 17 15 17 17 0 8-8 3-21-13zm2411 3c0-2 8-10 18-17l17-14-14 18c-13 16-21 21-21 13zm-2468-66v-35l5 18c2 9 2 25 0 35l-5 17v-35zm2519-26 1-19 5 13c3 7 2 16-1 19-3 4-6-2-5-13zm-2509-54v-25l5 13c2 6 2 18 0 25l-5 12v-25zm2499-16 1-19 5 13c3 7 2 16-1 19-3 4-6-2-5-13zm-2489-54v-25l5 13c2 6 2 18 0 25l-5 12v-25zm2479-16 1-19 5 13c3 7 2 16-1 19-3 4-6-2-5-13zm-2469-54v-25l5 13c2 6 2 18 0 25l-5 12v-25zm2460-10v-25l5 13c2 6 2 18 0 25l-5 12v-25zm-2451-56 1-19 5 13c3 7 2 16-1 19-3 4-6-2-5-13zm2441-14v-25l5 13c2 6 2 18 0 25l-5 12v-25zm-2431-56 1-19 5 13c3 7 2 16-1 19-3 4-6-2-5-13zm2420-10 1-19 5 13c3 7 2 16-1 19-3 4-6-2-5-13zm-2410-50 1-19 5 13c3 7 2 16-1 19-3 4-6-2-5-13zm2401-14v-25l5 13c2 6 2 18 0 25l-5 12v-25zm-2391-46 1-19 5 13c3 7 2 16-1 19-3 4-6-2-5-13zm2381-14v-25l5 13c2 6 2 18 0 25l-5 12v-25zm-2371-46 1-19 5 13c3 7 2 16-1 19-3 4-6-2-5-13zm2360-20 1-19 5 13c3 7 2 16-1 19-3 4-6-2-5-13zm-2350-40 1-19 5 13c3 7 2 16-1 19-3 4-6-2-5-13zm2341-14v-25l5 13c2 6 2 18 0 25l-5 12v-25zm-2331-46 1-19 5 13c3 7 2 16-1 19-3 4-6-2-5-13zm2320-10 1-19 5 13c3 7 2 16-1 19-3 4-6-2-5-13zm-2310-40 1-19 5 13c3 7 2 16-1 19-3 4-6-2-5-13zm10-60 1-19 5 13c3 7 2 16-1 19-3 4-6-2-5-13zm2280-10 1-19 5 13c3 7 2 16-1 19-3 4-6-2-5-13zm-2270-40 1-19 5 13c3 7 2 16-1 19-3 4-6-2-5-13zm2260-10 1-19 5 13c3 7 2 16-1 19-3 4-6-2-5-13zm-2250-40 1-19 5 13c3 7 2 16-1 19-3 4-6-2-5-13zm2240-10 1-19 5 13c3 7 2 16-1 19-3 4-6-2-5-13zm-2230-40 1-19 5 13c3 7 2 16-1 19-3 4-6-2-5-13zm2220-10 1-19 5 13c3 7 2 16-1 19-3 4-6-2-5-13zm-2200-80 1-19 5 13c3 7 2 16-1 19-3 4-6-2-5-13zm2180-10 1-19 5 13c3 7 2 16-1 19-3 4-6-2-5-13zm-2170-30 1-19 5 13c3 7 2 16-1 19-3 4-6-2-5-13zm2160-10 1-19 5 13c3 7 2 16-1 19-3 4-6-2-5-13zm-10-40 1-19 5 13c3 7 2 16-1 19-3 4-6-2-5-13zm-10-40 1-19 5 13c3 7 2 16-1 19-3 4-6-2-5-13zm-137-316-19-23 23 19c21 18 27 26 19 26-2 0-12-10-23-22zM665 680c44-44 82-80 85-80 2 0-31 36-75 80s-82 80-85 80c-2 0 31-36 75-80zm1699-2-29-33 33 29c17 17 32 31 32 33 0 8-8 1-36-29zm-85-75-24-28 28 24c15 14 27 26 27 28 0 8-8 1-31-24zM775 580c10-11 20-20 23-20s-3 9-13 20-20 20-23 20 3-9 13-20zm1454-17-14-18 18 14c9 7 17 15 17 17 0 8-8 3-21-13zm-1419-7c0-2 8-10 18-17l17-14-14 18c-13 16-21 21-21 13zm1214-132-19-15 23 11c12 6 22 13 22 15 0 8-5 6-26-11zm-934-48c0-3 9-10 20-16s20-8 20-6c0 3-9 10-20 16s-20 8-20 6zm740-56-15-10h12c6 0 15 5 18 10 8 12 4 12-15 0zm318-27c7-3 16-2 19 1 4 3-2 6-13 5l-19-1 13-5zm-858-23c8-5 20-10 25-10h10l-15 10c-8 5-19 10-25 10h-10l15-10zm851-16 1-19 5 13c3 7 2 16-1 19-3 4-6-2-5-13z"/></g></g></svg>