<?xml version="1.0" encoding="utf-8"?>
<!-- Generator: Adobe Illustrator 27.2.0, SVG Export Plug-In . SVG Version: 6.00 Build 0)  -->
<svg version="1.2" baseProfile="tiny-ps" id="Layer_1" xmlns="http://www.w3.org/2000/svg" xmlns:xlink="http://www.w3.org/1999/xlink"
	 viewBox="0 0 400 400" xml:space="preserve">
<title>IONOS</title>
<rect fill="#FFFFFF" width="400" height="400"/>
<g>
	<path fill="#003D8F" d="M60.3,240.6c-4,0-7.2-3.2-7.2-7.3v-72.9l0-0.2c0-4,3.2-7.1,7.3-7.1c3.3,0,6.1,2.1,6.9,5.3
		c0,0.1,0.1,0.3,0.1,0.5l0.1,0.3c0.1,0.4,0.1,0.8,0.1,1.1c0,0,0,72,0,72.8C67.5,237.4,64.3,240.6,60.3,240.6"/>
	<path fill="#003D8F" d="M330.4,240.6c-1.5,0-3-0.2-4.4-0.4c-6.3-1.3-11.8-5.2-15.1-10.8l-0.1-0.2c-1.6-3.3-0.6-7.1,2.5-9
		c1-0.6,2.2-0.9,3.4-0.9c2.4,0,4.6,1.3,5.8,3.4c0.1,0.1,0.1,0.2,0.2,0.4l0.7,1l0.9,1c1.2,1,2.7,1.8,4.3,2.1c2.6,0.5,5.4-0.1,7.4-1.7
		c2.2-1.6,3.5-4,3.7-6.7c0.2-2.7-0.8-5.4-2.6-7.2c0,0-20-20.8-20.9-21.7c-0.5-0.5-1.4-1.5-2.4-2.9c-2.8-4-3.7-8.7-3.3-13.4
		c0.2-3.2,1.2-6.4,2.8-9.3c0,0,0.9-1.6,1.2-1.9c1.1-1.6,3.1-3.5,4.6-4.7c1.4-1.1,3.2-2,3.8-2.3c3.9-1.9,9-2.8,13.9-1.8
		c6.2,1.3,11.5,5.2,14.6,10.6c0.9,1.5,1.1,3.3,0.7,5c-0.5,1.7-1.6,3.2-3.2,4.1c-1,0.6-2.1,0.9-3.2,0.9c-2.4,0-4.7-1.3-5.8-3.4
		c-1.3-2.1-3.3-3.6-5.8-4.1c-2.4-0.5-5.1,0.1-7.1,1.6c-1.9,1.5-3.1,3.7-3.3,6.2c-0.2,2.5,0.7,4.9,2.4,6.8l20.4,21.1
		c4.5,4.6,6.8,10.9,6.4,17.4c-0.6,6.6-3.8,12.5-9,16.3C340.2,239,335.3,240.6,330.4,240.6"/>
	<path fill="#003D8F" d="M265.7,240.6c-12.1,0-22-9.9-22-22v-43.5c0-12.1,9.9-22,22-22c12.1,0,22,9.9,22,22v43.5
		C287.7,230.8,277.9,240.6,265.7,240.6 M265.7,166.4c-4.8,0-8.7,3.9-8.7,8.7v43.5c0,4.9,3.8,8.7,8.7,8.7c4.8,0,8.7-3.9,8.7-8.7
		v-43.5C274.5,170.4,270.5,166.4,265.7,166.4"/>
	<path fill="#003D8F" d="M180.2,198v36c0,3.7-2.9,6.6-6.6,6.6s-6.6-2.9-6.6-6.6v-63.5L180.2,198z M216.3,223.3v-63.6
		c0-3.7-2.9-6.6-6.6-6.6c-3.7,0-6.6,2.9-6.6,6.6v36L216.3,223.3z M179.7,156.9c0,0,0-0.1-0.1-0.1c-1.1-2.2-3.5-3.6-6-3.6
		c-0.5,0-0.9,0-1.3,0.1c-3.1,0.6-5.2,3.3-5.2,6.5v1.5l36.5,75.7c1.2,2.2,3.5,3.6,5.9,3.6c0.5,0,1.1-0.1,1.5-0.2
		c3-0.7,5.2-3.3,5.2-6.4v-1.4C216.2,232.5,180.7,158.9,179.7,156.9"/>
	<path fill="#003D8F" d="M117.3,240.6c-5.9,0-11.4-2.3-15.5-6.4c-4.2-4.2-6.4-9.7-6.4-15.5v-43.5c0-5.9,2.3-11.4,6.4-15.5
		c4.2-4.2,9.7-6.4,15.5-6.4c5.9,0,11.4,2.3,15.5,6.4c4.2,4.2,6.4,9.7,6.4,15.5v43.5c0,5.9-2.3,11.4-6.4,15.5
		C128.7,238.3,123.1,240.6,117.3,240.6 M117.3,166.4c-2.3,0-4.5,0.9-6.2,2.6c-1.6,1.6-2.6,3.8-2.6,6.1v43.5c0,2.4,0.9,4.6,2.5,6.2
		c1.6,1.6,3.8,2.5,6.2,2.5c2.3,0,4.5-0.9,6.2-2.6c1.6-1.6,2.6-3.8,2.6-6.2v-43.5c0-2.3-0.9-4.4-2.6-6.1
		C121.7,167.3,119.6,166.4,117.3,166.4"/>
</g>
</svg>
