<?xml version="1.0" encoding="utf-8"?>
<!-- Generator: Adobe Illustrator 25.1.0, SVG Export Plug-In . SVG Version: 6.00 Build 0)  -->
<svg version="1.2" baseProfile="tiny-ps" id="Layer_1" xmlns="http://www.w3.org/2000/svg" xmlns:xlink="http://www.w3.org/1999/xlink"
	  viewBox="0 0 288 288"  xml:space="preserve">
	  <title>Title Here</title>
<g>
	<rect fill="#FFFFFF" width="288" height="288"/>
	<path fill="#00205B" d="M72.6,184.2c13.2-10.9,62.2-36.6,82.6-20.3c3.1,2.5,2.6,5.7,4.1,8.1c4.2,6.8,69.3-6,80.4-52.3
		c0.5-2.2-2.6-9.1-2.6-9.1c-2.2,27-44.7,52.6-74.4,42.6c-4.5-1.5-2.5-8.6-7.8-12.2c-19.7-13-58.2-2.9-89.1,15.1
		C65.6,156.2,68.5,170.9,72.6,184.2z"/>
	<path fill="#00205B" d="M94.4,240.2c0,0,8.8-11.2,16.4-17.1c16.6-12.8,40.3-26.5,43.8-14.6c0.2,1.2,0.2,2.4,0,3.6
		c-0.3,1,0.2,2,1.2,2.3c0.4,0.1,0.7,0.1,1.1,0c63.6-17.4,84.6-54,84-82.5c-9.5,35.7-44.5,54-79.9,58.2c-3.8-0.1,0.3-6.5-4.8-9.8
		c-15.6-10.1-66.3,20.9-73.7,32C82.4,212.2,91.6,235.3,94.4,240.2z"/>
	<path fill="#00205B" d="M62.1,130.3c48.2-23.7,79.5-19,92.2-3.4c5.1,6.3,4.4,11.2,7.4,12.6c25.7,12,72.6-12.2,70.2-37.2
		c-0.2-0.8-0.5-1.6-1.1-2.2c-1.4-1.6-2.9-3.1-4.5-4.6c9,33.4-57.2,42.1-67.3,26.7c-2-3-4.8-11.3-6.2-13.6c-6.9-11-37.4-32-90.4-5.5
		C62.4,103.1,61.1,111.8,62.1,130.3z"/>
	<path fill="#00205B" d="M201.9,85.2c0,0,22,4.3,8.4,16.3c-8.1,7.2-47.4,14-49.9-6.5c-7.4-60-67.1-64.8-92.2-16.1l4.7-2.1
		c53.2-23.7,77.1,10.6,81.2,18c1.5,2.8,2.8,5.7,3.9,8.7c2,4.8,2.1,23.8,40.8,13.3c27.9-7.6,28.7-32,3.1-31.9"/>
</g>
</svg>
