<?xml version="1.0" encoding="UTF-8"?><svg xmlns="http://www.w3.org/2000/svg" width="1024" height="1024" viewBox="0 0 1024 1024" fill="none" version="1.2" baseProfile="tiny-ps"><title>AriesBigger</title><rect width="1024" height="1024" fill="#0BAA5E"></rect><rect width="1024" height="1024" fill="#0BAA5E"></rect><path d="M212.345 586L267.345 444.2H301.945L356.345 586H318.945L277.945 466.8H290.945L248.945 586H212.345ZM245.745 561.2V532.8H323.945V561.2H245.745ZM404.02 528.6V503H431.02C436.886 503 441.353 501.6 444.42 498.8C447.62 495.867 449.22 491.933 449.22 487C449.22 482.2 447.62 478.333 444.42 475.4C441.353 472.333 436.886 470.8 431.02 470.8H404.02V444.2H436.02C445.62 444.2 454.02 446 461.22 449.6C468.553 453.2 474.286 458.133 478.42 464.4C482.553 470.667 484.62 478 484.62 486.4C484.62 494.8 482.486 502.2 478.22 508.6C474.086 514.867 468.286 519.8 460.82 523.4C453.353 526.867 444.62 528.6 434.62 528.6H404.02ZM375.62 586V444.2H411.42V586H375.62ZM452.42 586L411.22 525.2L443.42 517.4L493.82 586H452.42ZM511.502 586V444.2H547.302V586H511.502ZM578.44 586V444.2H614.24V586H578.44ZM606.84 586V555.8H683.64V586H606.84ZM606.84 528.4V499H676.44V528.4H606.84ZM606.84 474.4V444.2H682.44V474.4H606.84ZM750.715 588.2C738.848 588.2 728.515 586.4 719.715 582.8C711.048 579.2 703.115 573.533 695.915 565.8L718.515 543C723.448 548.2 728.715 552.2 734.315 555C739.915 557.667 746.248 559 753.315 559C759.315 559 763.915 558 767.115 556C770.448 553.867 772.115 551 772.115 547.4C772.115 544.067 770.915 541.333 768.515 539.2C766.115 536.933 762.915 535 758.915 533.4C755.048 531.667 750.715 530.067 745.915 528.6C741.248 527 736.515 525.133 731.715 523C727.048 520.733 722.715 518 718.715 514.8C714.848 511.6 711.715 507.6 709.315 502.8C706.915 498 705.715 492.067 705.715 485C705.715 475.933 707.848 468.2 712.115 461.8C716.515 455.4 722.582 450.467 730.315 447C738.048 443.533 747.048 441.8 757.315 441.8C767.582 441.8 777.048 443.533 785.715 447C794.382 450.467 801.515 455.267 807.115 461.4L784.315 484C780.048 479.733 775.715 476.533 771.315 474.4C766.915 472.267 762.115 471.2 756.915 471.2C751.982 471.2 748.115 472.067 745.315 473.8C742.515 475.533 741.115 478 741.115 481.2C741.115 484.4 742.315 487 744.715 489C747.115 491 750.248 492.8 754.115 494.4C758.115 495.867 762.448 497.4 767.115 499C771.915 500.6 776.648 502.467 781.315 504.6C785.982 506.733 790.248 509.467 794.115 512.8C798.115 516.133 801.315 520.333 803.715 525.4C806.115 530.467 807.315 536.6 807.315 543.8C807.315 557.933 802.315 568.867 792.315 576.6C782.448 584.333 768.582 588.2 750.715 588.2Z" fill="white"></path></svg>