<svg xmlns="http://www.w3.org/2000/svg" xmlns:xlink="http://www.w3.org/1999/xlink" version="1.2" viewBox="0 0 864 864" baseProfile="tiny-ps">
  <title>logo_only_tiny_ps_tiny_ps_tiny_ps_tiny_ps_tiny_ps_tiny_ps_tiny_ps_tiny_ps</title>
  <g>
    <path d="M78.813,530.502l-2.818,20.552h23.351h10.645h6.795   c21.639,0,31.736,11.52,28.66,33.936c-3.073,22.42-16.33,33.94-37.968,33.94H90.037l6.126-44.679H72.813l-8.943,65.231h40.789   c38.765,0,60.276-22.887,64.608-54.492c4.334-31.605-10.9-54.489-49.665-54.489H78.813L78.813,530.502z M194.329,530.502   l-2.817,20.552h23.351h28.091h25.31l2.817-20.552H194.329L194.329,530.502z M188.33,574.252l-8.944,65.231h77.686l2.821-20.552   h-54.335l3.328-24.288h48.73l2.796-20.391h-20.64h-28.087H188.33L188.33,574.252z M290.541,530.502l-14.943,108.981h76.753   l2.882-21.019h-53.401l12.064-87.962H290.541L290.541,530.502z M453.229,530.502l-6.017,43.903h-48.887l6.021-43.903h-23.35   l-14.943,108.981h23.351l6.017-43.906h48.887l-6.022,43.906h23.355l14.943-108.981H453.229L453.229,530.502z M571.238,530.502   l-9.155,66.786c-2.372,17.282-13.167,23.355-27.802,23.355c-14.476,0-23.611-6.072-21.242-23.355l9.159-66.786h-23.351   l-9.331,68.034c-4.419,32.226,17.754,43.122,41.881,43.122c24.136,0,49.293-10.896,53.708-43.122l9.331-68.034H571.238   L571.238,530.502z M625.106,639.483l7.707-56.203c0.682-4.982,1.273-10.43,1.583-14.947l40.994,71.15h21.954l14.942-108.981   h-23.353l-7.707,56.203c-0.682,4.982-1.273,10.43-1.58,14.943l-40.999-71.147h-21.949l-14.943,108.981H625.106L625.106,639.483z    M725.99,530.502l-2.884,21.016h33.47l-12.061,87.965h23.198l12.06-87.965h33.474l2.882-21.016H725.99z" fill="#2E2E38" fill-rule="evenodd"/>
    <path d="M303.641,166.045L428.869,98l-26.509,38.165h71.621   c24.115,0,46.031,4.554,65.197,12.821c20.071,8.658,37.148,21.408,50.598,37.277c13.49,15.955,23.302,35.084,28.782,56.4   c5.327,20.672,6.577,43.397,3.183,67.241c-3.366,23.63-11.076,46.055-22.196,66.425c-11.498,21.052-26.667,39.916-44.483,55.659   c-17.889,15.811-38.464,28.499-60.674,37.138c-21.479,8.354-44.496,12.942-68.131,12.942H256.37l22.254-156.149   c2.023-14.249,9.859-27.162,20.853-36.464c10.952-9.273,25.124-15.038,39.839-15.038h96.287l-14.902-36.329l111.127,71.433   l-133.391,72.481l26.533-38.191l-78.419,0.053l-9.826,68.799h95.902c14.996,0,28.836-2.654,41.32-7.313   c13.523-5.047,25.556-12.484,35.844-21.488c11.341-9.909,20.672-21.759,27.686-34.47c7.259-13.152,12.048-27.244,14.008-41.045   c2.01-14.11,1.226-27.844-2.11-40.416c-3.336-12.562-9.231-23.994-17.404-33.517c-7.759-9.029-17.662-16.398-29.479-21.416   c-11.215-4.769-24.21-7.438-38.786-7.438h-72.01l14.904,36.354l-111.118-71.433L303.641,166.045L303.641,166.045z M346.541,343.835   l0.01-0.086L346.541,343.835z" fill="#FFCD29" fill-rule="evenodd"/>
  </g>
</svg>