<?xml version="1.0" encoding="UTF-8" standalone="yes"?>
<svg width="100" height="100" viewBox="0 0 100 100" fill="none" version="1.2" baseProfile="tiny-ps" xmlns="http://www.w3.org/2000/svg">
  <title>iqos</title>
  <rect width="100" height="100" fill="#FFFDFB"/>
  <path d="M59.1648 20.2782L67.2432 34.2854C69.2723 37.8042 69.0183 41.7606 67.2432 44.8388C65.468 47.917 62.1717 50.117 58.1133 50.117H41.9567C37.8983 50.117 34.602 47.92 32.8268 44.8388C31.0517 41.7576 30.7977 37.8042 32.8268 34.2854L40.9052 20.2782C42.9343 16.7594 46.4847 15 50.035 15C53.5853 15 57.1357 16.7594 59.1648 20.2782ZM50.035 21.1002C46.2277 21.1002 42.7837 22.6467 40.2878 25.1424C37.7949 27.6381 36.2502 31.0889 36.2502 34.9004C36.2502 38.712 37.7949 42.1598 40.2878 44.6584C42.7807 47.1541 46.2277 48.7006 50.035 48.7006C53.8423 48.7006 57.2892 47.1541 59.7822 44.6584C62.2751 42.1627 63.8198 38.712 63.8198 34.9004C63.8198 31.0889 62.278 27.6381 59.7822 25.1424C57.2892 22.6467 53.8423 21.1002 50.035 21.1002Z" fill="#00D1D2"/>
  <path d="M56.9584 63.156C57.7028 63.156 58.3732 63.2417 58.9551 63.4073C59.537 63.5729 60.0273 63.8213 60.4142 64.1466C60.7155 64.3979 60.94 64.6907 61.0936 65.0189C61.2442 65.3471 61.321 65.7138 61.321 66.113V70.2971C61.321 70.6963 61.2442 71.0629 61.0936 71.3912C60.943 71.7194 60.7155 72.0121 60.4142 72.2635C60.0303 72.5887 59.537 72.8342 58.9551 73.0027C58.3732 73.1683 57.7028 73.2541 56.9584 73.2541H51.2696C50.5253 73.2541 49.8548 73.1683 49.2729 73.0027C48.6911 72.8371 48.2008 72.5887 47.8138 72.2635C47.5125 72.0121 47.2881 71.7194 47.1345 71.3912C46.9838 71.0629 46.907 70.6963 46.907 70.2971V66.113C46.907 65.7138 46.9838 65.3471 47.1345 65.0189C47.2851 64.6907 47.5125 64.3979 47.8138 64.1466C48.2008 63.8213 48.6911 63.5759 49.2729 63.4073C49.8548 63.2417 50.5253 63.156 51.2696 63.156H56.9584ZM56.9584 61.0506H51.2696C49.1696 61.0506 47.5539 61.6184 46.464 62.5321C45.3741 63.4487 44.807 64.7143 44.807 66.113V70.2971C44.807 71.6957 45.3741 72.9613 46.464 73.878C47.5539 74.7946 49.1696 75.3594 51.2696 75.3594H56.9584C59.0585 75.3594 60.6742 74.7917 61.7641 73.878C62.854 72.9613 63.4211 71.6957 63.4211 70.2971V66.113C63.4211 64.7143 62.854 63.4487 61.7641 62.5321C60.6742 61.6154 59.0585 61.0506 56.9584 61.0506ZM40.5212 73.6592C40.3942 73.529 40.2406 73.4285 40.0781 73.3605C39.9127 73.2925 39.7355 73.257 39.5553 73.257H29.1022C28.3579 73.257 27.6874 73.1713 27.1055 73.0057C26.5237 72.8401 26.0334 72.5917 25.6464 72.2664C25.3452 72.0151 25.1207 71.7223 24.9671 71.3941C24.8164 71.0659 24.7396 70.6992 24.7396 70.3V63.4546C24.7396 63.3719 24.7721 63.2979 24.8253 63.2447C24.8785 63.1915 24.9523 63.156 25.035 63.156H34.7851C35.5295 63.156 36.1999 63.2417 36.7818 63.4073C37.3637 63.5729 37.854 63.8213 38.2409 64.1466C38.5422 64.3979 38.7667 64.6907 38.9203 65.0189C39.0739 65.3471 39.1477 65.7138 39.1477 66.113V70.0457C39.1477 70.2941 39.2481 70.5159 39.4076 70.6785C39.5701 70.8412 39.7916 70.9387 40.0397 70.9387H40.3558C40.6039 70.9387 40.8254 70.8382 40.9879 70.6785C41.1503 70.5159 41.2478 70.2941 41.2478 70.0457V66.113C41.2478 64.7143 40.6807 63.4487 39.5908 62.5321C38.5009 61.6154 36.8852 61.0506 34.7851 61.0506H23.5286C23.2805 61.0506 23.059 61.1512 22.8965 61.3108C22.7341 61.4735 22.6366 61.6952 22.6366 61.9436V70.2971C22.6366 71.6957 23.2037 72.9613 24.2936 73.878C25.3836 74.7946 26.9992 75.3594 29.0993 75.3594H38.9351C39.0355 75.3594 39.1329 75.3801 39.2245 75.4156C39.3161 75.454 39.3988 75.5102 39.4697 75.5812L41.6229 77.7368C41.7972 77.9113 42.0246 78 42.255 78C42.4854 78 42.7128 77.9142 42.8871 77.7398L43.1057 77.521C43.2829 77.3435 43.3685 77.1129 43.3685 76.8823C43.3685 76.6516 43.2799 76.421 43.1057 76.2435L40.5241 73.6592H40.5212ZM71.9513 61.0654C70.0314 61.0654 68.655 61.5001 67.7571 62.2009C66.8592 62.9017 66.4398 63.8716 66.4398 64.942V65.3885C66.4398 66.4589 66.8592 67.4288 67.7571 68.1296C68.655 68.8304 70.0344 69.2651 71.9513 69.2651H77.9148C78.5646 69.2651 79.1495 69.3272 79.6398 69.4425C80.1301 69.5608 80.5318 69.7323 80.8153 69.9541C80.9896 70.0901 81.1166 70.2439 81.1993 70.4479C81.282 70.6519 81.3204 70.9121 81.3204 71.2581C81.3204 71.6041 81.282 71.8643 81.1993 72.0683C81.1166 72.2723 80.9896 72.4261 80.8153 72.5621C80.5318 72.7839 80.1301 72.9584 79.6398 73.0737C79.1495 73.192 78.5646 73.2511 77.9148 73.2511H70.8585C70.4568 73.2511 70.061 73.1742 69.6947 73.0264C69.3285 72.8785 68.9888 72.6627 68.6964 72.3847L68.2208 71.9323C68.0407 71.7608 67.8073 71.678 67.574 71.6839C67.3436 71.6898 67.1132 71.7844 66.9419 71.9678L66.7351 72.1866C66.5638 72.367 66.4841 72.6006 66.49 72.8312C66.4959 73.0619 66.5904 73.2895 66.7706 73.461L67.0098 73.6887L67.2491 73.9135C67.7364 74.3777 68.3035 74.7385 68.9149 74.9839C69.5293 75.2293 70.185 75.3565 70.8585 75.3565H77.9148C79.8347 75.3565 81.2111 74.9218 82.109 74.221C83.007 73.5202 83.4264 72.5503 83.4264 71.4799V71.0334C83.4264 69.9629 83.007 68.9931 82.109 68.2923C81.2111 67.5914 79.8318 67.1568 77.9148 67.1568H71.9513C71.3015 67.1568 70.7167 67.0947 70.2264 66.9794C69.7361 66.864 69.3344 66.6896 69.0508 66.4678C68.8765 66.3318 68.7495 66.178 68.6639 65.974C68.5812 65.77 68.5428 65.5097 68.5428 65.1638C68.5428 64.8178 68.5812 64.5576 68.6639 64.3536C68.7466 64.1495 68.8736 63.9958 69.0508 63.8598C69.3344 63.638 69.7361 63.4635 70.2264 63.3482C70.7167 63.2329 71.3015 63.1708 71.9513 63.1708L78.4317 63.159C78.8186 63.159 79.1997 63.2299 79.5571 63.3689C79.9145 63.5049 80.2453 63.706 80.5318 63.9662L81.1343 64.5044C81.3204 64.67 81.5538 64.7468 81.7841 64.735C82.0145 64.7232 82.239 64.6227 82.4074 64.4393L82.6082 64.2146C82.7736 64.0283 82.8504 63.7947 82.8386 63.5641C82.8268 63.3334 82.7264 63.1057 82.5403 62.9401L81.9377 62.402C81.4563 61.9702 80.9039 61.6332 80.3073 61.4055C79.7136 61.1778 79.0786 61.0565 78.4288 61.0565L71.9484 61.0684L71.9513 61.0654ZM16.6436 61.9555V74.4605C16.6436 74.7089 16.744 74.9366 16.9065 75.0992C17.0689 75.2618 17.2964 75.3624 17.5445 75.3624H17.8428C18.0909 75.3624 18.3183 75.2618 18.4808 75.0992C18.6432 74.9366 18.7437 74.7118 18.7437 74.4605V61.9555C18.7437 61.7071 18.6432 61.4794 18.4808 61.3168C18.3183 61.1541 18.0909 61.0536 17.8428 61.0536H17.5445C17.2964 61.0536 17.0689 61.1541 16.9065 61.3168C16.744 61.4794 16.6436 61.7071 16.6436 61.9555Z" fill="#34303D"/>
</svg>