<?xml version="1.0" encoding="UTF-8"?>
<svg xmlns="http://www.w3.org/2000/svg" baseProfile="tiny-ps" version="1.2" viewBox="0 0 200 200">
  <!-- Generator: Adobe Illustrator 28.6.0, SVG Export Plug-In . SVG Version: 1.2.0 Build 709)  -->
  <title>RSPL</title>
  <g>
    <g id="Layer_1">
      <path d="M61.8,89h22.1c1.4.5,1,2.5,0,2.6h-22.1v-2.6ZM84,85.1h-25.1v23.5h3.1v-13.2h6.3c5.5,4.4,11,8.8,16.6,13.1,1.6,0,3.4,0,5-.1-5.4-4.3-10.8-8.5-16.3-12.8h9.9c4.9-.8,6.1-8.2.5-10.2v-.3Z" fill="#e01218" fill-rule="evenodd"/>
      <path d="M97.8,108.5c-2.3,0-4.4.1-6.8.1v-4.4c2.4,0,7.5.4,9.4-1,2.5-2,4.5-6.8,5.9-9.3,4.3-8,7.3-9.2,16.3-8.8v4.5c-7.2-.9-10-.3-13.8,7.8-2.5,5.1-5.8,10.8-10.9,11" fill="#14a2d9" fill-rule="evenodd"/>
      <path d="M129.3,88.9h22c1.4.5,1,2.5,0,2.6h-22v-2.6ZM129,95.2v13.2h-3.1v-23.1h25.1c5.8,2.1,4,9.2.3,9.9h-22.2Z" fill="#e01218" fill-rule="evenodd"/>
      <polygon points="156.5 85.3 159.4 85.3 159.4 104.7 186 104.7 186 108.2 159.4 108.2 156.5 108.2 156.5 104.7 156.5 85.3" fill="#e01218" fill-rule="evenodd"/>
      <path d="M62.4,113.4v1c-.6,0-1.3,0-1.9-.1v2.1h1.9v.9c-.6-.1-1.3-.1-1.9-.1v2.3h2v1c-1,0-2.1-.3-3.1,0v-6.8h3.1" fill="#e01218" fill-rule="evenodd"/>
      <path d="M69,113.4c-.8,2.3-1.5,4.5-2.1,6.7h-.9c-.8-2.3-1.4-4.5-2.1-6.8h1.4c.5,1.6,1,3.3,1.4,4.9.5-1.6,1-3.3,1.4-4.9h1Z" fill="#e01218" fill-rule="evenodd"/>
      <path d="M75.3,116.8c0-1.6-.8-2.9-1.8-2.9s-1.8,1.3-1.8,2.9.8,2.9,1.8,2.9,1.8-1.3,1.8-2.9M76.6,116.8c0-2-1.4-3.5-3-3.5s-3,1.6-3,3.5,1.4,3.5,3,3.5,3-1.6,3-3.5Z" fill="#e01218" fill-rule="evenodd"/>
      <path d="M81.7,119.3v1c-1.1,0-2-.1-3.1,0v-6.9h1.4c-.1,2-.1,4.1,0,6.1.6,0,1.3,0,1.9-.1" fill="#e01218" fill-rule="evenodd"/>
      <path d="M85,113.4h-1.3c0,2.4-.3,5.1.9,6.3.8.8,2.5.8,3.3-.1,1-1.3.6-4,.9-6.1h-.9c.3,4.5-.1,6.1-1.4,6.1s-1-.4-1.4-.9c-.4-.9-.1-4-.1-5.1" fill="#e01218" fill-rule="evenodd"/>
      <path d="M92,114v6.1h1.3v-6.1l1.4.3v-1c-1.4.1-2.8.1-4.1,0v.9l1.5-.3h0Z" fill="#e01218" fill-rule="evenodd"/>
      <path d="M96.5,113.4h1.4c-.3,2-.1,4.4,0,6.8h-1.4v-6.8" fill="#e01218" fill-rule="evenodd"/>
      <path d="M104.6,116.8c0-1.6-.8-2.9-1.8-2.9s-1.8,1.3-1.8,2.9.8,2.9,1.8,2.9,1.8-1.3,1.8-2.9M105.9,116.8c0-2-1.4-3.5-3-3.5s-3,1.6-3,3.5,1.4,3.5,3,3.5,3-1.6,3-3.5Z" fill="#e01218" fill-rule="evenodd"/>
      <path d="M108.7,115.4c0,1.6,0,3.1.1,4.8h-.8v-6.8h.9c1.1,1.5,2.3,3,3.4,4.6v-4.6h.8v6.8h-.8c-1.1-1.6-2.3-3.1-3.4-4.8" fill="#e01218" fill-rule="evenodd"/>
      <path d="M121.5,113.4h1.4c-.3,2-.1,4.4,0,6.8h-1.4c.1-2.1,0-4.4,0-6.8" fill="#e01218" fill-rule="evenodd"/>
      <path d="M127.9,114.8l.4-1.1c-1-.8-2.3-.6-2.9.5-.6,1.3-.1,2.8,1,3.3.6.3,1,.6,1,1.1s-.4,1-.9,1-1-.4-1.3-1.1l-.3,1.3c3.8,1.9,4-2.8,2.1-3.8-1-.5-1.5-1-1-1.8.6-.9,1.3,0,1.6.5" fill="#e01218" fill-rule="evenodd"/>
      <path d="M140.9,119.9v-1.1c-.8.8-1.5.9-2.4.5-1.3-.9-1.4-3-.5-4.4.8-1.3,2-1.3,2.8,0l.3-1.3c-6.5-2.6-6.3,8.9-.3,6.3" fill="#e01218" fill-rule="evenodd"/>
      <path d="M147.5,116.9c0-1.6-.8-2.9-1.8-2.9s-1.8,1.3-1.8,2.9.8,2.9,1.8,2.9,1.8-1.3,1.8-2.9M148.7,116.9c0-2-1.4-3.5-3-3.5s-3,1.6-3,3.5,1.4,3.5,3,3.5,3-1.6,3-3.5Z" fill="#e01218" fill-rule="evenodd"/>
      <path d="M151.2,115.4v4.8h-.8v-6.8h.9c1.1,1.5,2.3,3,3.4,4.6v-4.6h.8v6.8h-.8c-1.1-1.6-2.3-3.1-3.4-4.8" fill="#e01218" fill-rule="evenodd"/>
      <path d="M160.5,114.8l.4-1.1c-1-.8-2.3-.6-2.9.5-.6,1.3-.1,2.8,1,3.3.6.3,1,.6,1,1.1s-.4,1-.9,1-1-.4-1.3-1.1l-.3,1.3c3.8,1.9,4-2.8,2.1-3.8-1-.5-1.5-1-1-1.8.6-.9,1.3,0,1.6.5" fill="#e01218" fill-rule="evenodd"/>
      <path d="M164.2,114.1v6.1h1.3v-6.1l1.4.3v-1c-1.4.1-2.8.1-4.1,0v.9l1.5-.3h0Z" fill="#e01218" fill-rule="evenodd"/>
      <path d="M171.1,117.5h-1.4l.6-2,.8,2ZM173.3,120h-1.4c-.3-.6-.4-1.1-.6-1.8h-1.9c-.1.6-.4,1.3-.5,2h-.9c.9-2.4,1.6-4.6,2.4-6.8h.5c.8,2.3,1.5,4.4,2.4,6.7h0Z" fill="#e01218" fill-rule="evenodd"/>
      <path d="M175.7,115.4c0,1.6,0,3.1.1,4.8h-.8v-6.8h.9c1.1,1.5,2.3,3,3.4,4.6v-4.6h.8v6.8h-.8c-1.1-1.6-2.3-3.1-3.4-4.8" fill="#e01218" fill-rule="evenodd"/>
      <path d="M183.4,114.1v6.1h1.3v-6.1l1.4.3v-1c-1.4.1-2.8.1-4.1,0v.9l1.5-.3h0Z" fill="#e01218" fill-rule="evenodd"/>
      <path d="M25.9,93.3c-3.4,6.5-3.5,13.2-.5,16.4,3,3.1,8.7.8,12-5.3,3.4-6.1,3.9-13.3.4-16.6s-8.4-1.1-11.9,5.4M27,91c-4.6,5.6-6.3,13.6-3.1,17.7,3.1,4.1,9.4,3,14.1-3,4-4.8,7.7-15.3.8-19.2-3.3-1.9-7.5-.5-11.7,4.5Z" fill="#e01218" fill-rule="evenodd"/>
      <path d="M22.6,90.4c-4.6,8.9-5.5,19.6-.8,24.2,4.8,4.8,13.8,1.1,19.1-7.9,5.3-9,5.8-19.3.8-24.5s-14.4-.8-19.1,8.2M24.5,87c-7.5,8.2-10.3,19.7-5.1,26.1,5,6,15.1,4.4,22.3-4.4,7-7.4,9.7-19.7,4-26.6-5-4.6-14.1-3.9-21.3,4.8h.1Z" fill="#e01218" fill-rule="evenodd"/>
      <polygon points="46.8 78.6 48.2 86.9 42.1 82.8 45.7 82.5 46.8 78.6" fill="#14a2d9" fill-rule="evenodd"/>
      <polygon points="50.3 101.8 41.2 109.5 45.1 99.3 45.6 103.7 50.3 101.8" fill="#14a2d9" fill-rule="evenodd"/>
      <polygon points="30.3 119.9 23.5 116.5 31 113.9 28.3 116.8 30.3 119.9" fill="#14a2d9" fill-rule="evenodd"/>
      <polygon points="15 109.9 16.8 102.7 18.3 108.6 16.6 107.1 15 109.9" fill="#14a2d9" fill-rule="evenodd"/>
      <polygon points="17.7 94 22.6 89.2 19.6 95.4 20 92.9 17.7 94" fill="#14a2d9" fill-rule="evenodd"/>
      <polygon points="28.9 80.6 34.7 80 28.3 84.3 30.6 81.6 28.9 80.6" fill="#14a2d9" fill-rule="evenodd"/>
    </g>
  </g>
</svg>