<?xml version="1.0" encoding="iso-8859-1" standalone="yes"?><!-- Generator: Adobe Illustrator 27.2.0, SVG Export Plug-In . SVG Version: 6.00 Build 0)  --><svg xmlns="http://www.w3.org/2000/svg" xmlns:xlink="http://www.w3.org/1999/xlink" version="1.2" baseProfile="tiny-ps" viewBox="0 0 85.039 85.039" xml:space="preserve"><title>Logo Thiriet</title><g><g><g><g><rect x="7.651" y="26.051" transform="matrix(0.9976 -0.0698 0.0698 0.9976 -2.8696 3.1082)" fill="#DA291C" width="70.834" height="33.18"></rect></g></g><g><g><g><polygon fill="#FFFFFF" points="30.272,32.582 30.197,33.992 29.215,32.973 28.739,33.149 29.535,35.302 29.904,35.166        29.35,33.667 30.196,34.533 30.539,34.406 30.616,33.2 31.17,34.698 31.554,34.556 30.758,32.402      "></polygon><path fill="#FFFFFF" d="M34.963,31.212l-0.38,2.447l0.402-0.091l0.116-0.79l0.77-0.175l0.446,0.662l0.402-0.091l-1.401-2.043       L34.963,31.212z M35.664,32.294l-0.51,0.116l0.104-0.719L35.664,32.294z"></path><rect x="39.701" y="30.367" transform="matrix(0.9927 -0.1206 0.1206 0.9927 -3.5084 5.0409)" fill="#FFFFFF" width="0.409" height="2.296"></rect><path fill="#FFFFFF" d="M44.063,30.452c0.068-0.048,0.165-0.074,0.291-0.077c0.098-0.003,0.193,0.009,0.283,0.033       c0.09,0.024,0.17,0.056,0.238,0.093l0.055,0.031l0.147-0.365l-0.05-0.022c-0.103-0.046-0.209-0.082-0.315-0.107       c-0.107-0.024-0.228-0.035-0.361-0.032c-0.124,0.003-0.235,0.021-0.332,0.054c-0.098,0.034-0.182,0.079-0.249,0.136       c-0.068,0.058-0.12,0.126-0.154,0.203c-0.034,0.077-0.05,0.159-0.048,0.244c0.002,0.084,0.015,0.161,0.04,0.228       c0.025,0.069,0.066,0.131,0.119,0.186c0.053,0.054,0.123,0.103,0.207,0.146c0.081,0.042,0.18,0.084,0.296,0.125       c0.103,0.036,0.187,0.07,0.251,0.102c0.062,0.031,0.11,0.061,0.143,0.091c0.03,0.027,0.05,0.055,0.06,0.083       c0.011,0.031,0.018,0.066,0.019,0.103c0.002,0.088-0.032,0.156-0.103,0.209c-0.076,0.057-0.185,0.088-0.321,0.091       c-0.116,0.003-0.22-0.013-0.307-0.047c-0.089-0.035-0.17-0.081-0.242-0.138l-0.052-0.041l-0.201,0.354l0.04,0.03       c0.091,0.068,0.205,0.122,0.336,0.161c0.131,0.039,0.277,0.057,0.434,0.053c0.021-0.001,0.041-0.001,0.062-0.003       c0.096-0.007,0.187-0.023,0.271-0.05c0.103-0.033,0.193-0.08,0.267-0.141c0.074-0.062,0.133-0.138,0.174-0.225       c0.041-0.088,0.061-0.188,0.058-0.298c-0.002-0.081-0.016-0.156-0.042-0.223c-0.025-0.068-0.067-0.133-0.124-0.192       c-0.055-0.056-0.128-0.109-0.217-0.158c-0.087-0.047-0.194-0.093-0.318-0.136c-0.099-0.034-0.18-0.066-0.241-0.094       c-0.057-0.028-0.103-0.055-0.134-0.081c-0.028-0.023-0.046-0.046-0.054-0.069c-0.01-0.026-0.015-0.057-0.016-0.092       C43.972,30.55,44.001,30.496,44.063,30.452z"></path><path fill="#FFFFFF" d="M50.389,30.607c-0.083-0.116-0.19-0.212-0.318-0.286c-0.128-0.075-0.278-0.12-0.445-0.136       c-0.169-0.016-0.324,0-0.463,0.048c-0.139,0.048-0.261,0.121-0.363,0.219s-0.186,0.217-0.247,0.355       c-0.062,0.137-0.1,0.291-0.116,0.456c-0.015,0.161-0.004,0.316,0.031,0.463c0.036,0.148,0.095,0.281,0.177,0.397       c0.083,0.117,0.189,0.214,0.317,0.288c0.127,0.075,0.278,0.12,0.447,0.136c0.068,0.006,0.134,0.007,0.198,0.003       c0.094-0.007,0.184-0.025,0.267-0.054c0.139-0.05,0.261-0.126,0.365-0.225c0.103-0.099,0.187-0.219,0.249-0.358       c0.062-0.137,0.1-0.288,0.115-0.449c0.015-0.16,0.004-0.316-0.033-0.462C50.532,30.855,50.471,30.722,50.389,30.607z        M49.591,30.552c0.104,0.01,0.196,0.04,0.273,0.092c0.079,0.052,0.144,0.119,0.194,0.199c0.051,0.08,0.088,0.171,0.11,0.271       c0.022,0.101,0.029,0.205,0.019,0.31c-0.011,0.119-0.036,0.229-0.075,0.327c-0.038,0.096-0.089,0.179-0.152,0.245       c-0.062,0.066-0.137,0.116-0.223,0.148c-0.086,0.033-0.185,0.044-0.296,0.034c-0.104-0.01-0.196-0.041-0.273-0.092       c-0.078-0.052-0.144-0.118-0.194-0.198c-0.051-0.081-0.087-0.173-0.108-0.274c-0.021-0.103-0.027-0.209-0.017-0.314       c0.01-0.115,0.036-0.224,0.076-0.321c0.039-0.096,0.091-0.178,0.155-0.244c0.063-0.066,0.139-0.116,0.225-0.149       c0.053-0.02,0.11-0.033,0.17-0.037C49.512,30.548,49.551,30.548,49.591,30.552z"></path><polygon fill="#FFFFFF" points="55.58,31.19 55.219,32.795 54.737,31.031 54.728,30.998 54.257,30.892 53.753,33.132        54.137,33.218 54.495,31.623 54.986,33.379 54.995,33.412 55.46,33.516 55.964,31.276      "></polygon></g></g></g><g><path fill="#FFFFFF" d="M36.683,53.695l-0.412,0.146l-0.11-0.328l0.616-0.244l0.284-0.02l0.164,2.352l-0.407,0.028L36.683,53.695     z"></path><path fill="#FFFFFF" d="M41.58,54.22c-0.119,0.166-0.293,0.272-0.533,0.289c-0.497,0.035-0.847-0.232-0.879-0.683l0-0.007     c-0.032-0.457,0.297-0.832,0.814-0.868c0.294-0.021,0.49,0.05,0.668,0.201c0.182,0.162,0.31,0.411,0.342,0.871l0,0.007     c0.052,0.75-0.281,1.297-0.912,1.341c-0.324,0.023-0.559-0.078-0.767-0.228l0.202-0.329c0.187,0.134,0.349,0.197,0.549,0.183     C41.479,54.968,41.599,54.531,41.58,54.22z M41.528,53.708l0-0.007c-0.017-0.243-0.22-0.417-0.517-0.396     c-0.29,0.02-0.45,0.226-0.433,0.466l0,0.007c0.017,0.243,0.216,0.404,0.506,0.384C41.38,54.14,41.544,53.935,41.528,53.708z"></path><path fill="#FFFFFF" d="M44.913,53.897l0-0.007c-0.047-0.667,0.322-1.236,0.936-1.279c0.61-0.043,1.051,0.463,1.098,1.13l0,0.007     c0.047,0.667-0.323,1.236-0.936,1.279S44.96,54.564,44.913,53.897z M46.524,53.784l0-0.007c-0.032-0.46-0.295-0.821-0.656-0.795     c-0.36,0.025-0.565,0.408-0.532,0.872l0,0.007c0.032,0.46,0.292,0.821,0.656,0.795C46.355,54.631,46.556,54.241,46.524,53.784z"></path><path fill="#FFFFFF" d="M49.861,54.392l0.756-0.74c0.301-0.296,0.408-0.451,0.393-0.661c-0.016-0.23-0.189-0.352-0.402-0.337     c-0.213,0.015-0.352,0.142-0.513,0.388l-0.31-0.21c0.202-0.326,0.41-0.518,0.827-0.547c0.457-0.032,0.79,0.226,0.819,0.643     l0,0.007c0.026,0.367-0.154,0.581-0.544,0.946l-0.452,0.434l1.111-0.078l0.025,0.36l-1.688,0.118L49.861,54.392z"></path></g><g><polygon fill="#FFFFFF" points="36.017,49.246 35.238,38.113 33.045,38.266 33.356,42.701 29.369,42.98 29.059,38.545      18.922,39.254 19.064,41.288 22.117,41.074 22.753,50.173 24.948,50.02 24.312,40.921 27.008,40.732 27.645,49.831      29.838,49.678 29.511,45.014 33.498,44.735 33.824,49.399    "></polygon><g><path fill="#FFFFFF" d="M36.58,38.019l0.779,11.133l2.192-0.153l-0.778-11.133L36.58,38.019z"></path></g><g><path fill="#FFFFFF" d="M48.631,37.176L49.41,48.31l2.192-0.153l-0.778-11.133L48.631,37.176z"></path></g><g><path fill="#FFFFFF" d="M46.224,48.532l2.649-0.185l-3.536-3.991l0.036-0.009c1.927-0.389,2.782-1.852,2.664-3.543l-0.002-0.032      c-0.119-1.703-1.409-3.456-3.958-3.278l-3.964,0.277l0.778,11.133l2.193-0.153l-0.285-4.082L46.224,48.532z M44.237,42.723      l-1.566,0.11l-0.226-3.227l1.524-0.106c0.524-0.037,0.973,0.074,1.299,0.321c0.338,0.255,0.535,0.654,0.57,1.154l0.002,0.032      c0.031,0.444-0.107,0.859-0.389,1.17C45.158,42.498,44.738,42.688,44.237,42.723z"></path></g><polygon fill="#FFFFFF" points="66.509,35.926 52.168,36.929 52.947,48.062 59.505,47.604 59.363,45.565 54.983,45.871      54.813,43.448 59.193,43.141 59.051,41.103 54.671,41.41 54.489,38.811 61.319,38.333 61.956,47.432 64.149,47.279      63.512,38.179 66.651,37.96    "></polygon></g></g></g></svg>