<?xml version="1.0" encoding="utf-8"?>
<!-- Generator: Adobe Illustrator 28.1.0, SVG Export Plug-In . SVG Version: 6.00 Build 0)  -->
<svg version="1.2" baseProfile="tiny-ps" xmlns="http://www.w3.org/2000/svg" xmlns:xlink="http://www.w3.org/1999/xlink" viewBox="0 0 1024 1024" xml:space="preserve">
<title>	Not Just Snacks Inc</title>
<g id="Layer_2">
	<rect fill="#0099FF" stroke="#000000" stroke-miterlimit="10" width="1024" height="1024"/>
</g>
<g id="Layer_1">
	<rect fill="none" width="1024" height="1024"/>
	<path fill="#FFFFFF" d="M183.1,450.9c0-21.8,17.6-39.4,39.4-39.4h3.9c8.4-115.6,104.8-206.9,222.4-206.9
		c52.6,0,101,18.3,139.2,48.8c14.4-4,29.3-6.1,44.5-6.1c90.6,0,164,73.5,164,164.2h3.3c21.7,0,39.4,17.6,39.4,39.4
		c0,118.8-63.6,226.4-164,284.4v24.2c0,32.6-26.4,59.1-59,59.1H406.1c-32.6,0-59-26.5-59-59.1v-24.2
		C246.7,677.3,183.1,569.8,183.1,450.9z M365.5,700.5h291.2c87.6-51.3,143-145.5,143-249.5H222.4C222.4,555,277.9,649.2,365.5,700.5
		z M448.8,362.3c30.6,0,56.3,20.9,63.5,49.3h40.2c-7.9-50.2-51.3-88.7-103.7-88.7s-95.8,38.4-103.7,88.7h40.2
		C392.5,383.2,418.2,362.3,448.8,362.3z M305.4,411.5c8.1-72.1,69.2-128.1,143.4-128.1s135.3,56,143.4,128.1h39.6
		c-8.3-93.9-87-167.5-183-167.5s-174.7,73.6-183,167.5H305.4z M717.7,411.5h39.4c0-68.9-55.8-124.8-124.6-124.8
		c-3.5,0-7,0.1-10.5,0.4c10.1,12.4,18.9,26,26.1,40.4C687.7,334.9,717.7,369.7,717.7,411.5z M678.4,411.5c0-11.7-4.3-22.3-11.5-30.4
		c2.1,9.9,3.6,20.1,4.3,30.4H678.4z M386.4,739.9v19.7c0,10.9,8.8,19.7,19.7,19.7H616c10.9,0,19.7-8.8,19.7-19.7v-19.7H386.4z"/>
	<path fill="#FFFFFF" d="M183.1,450.9c0-21.8,17.6-39.4,39.4-39.4h3.9c8.4-115.6,104.8-206.9,222.4-206.9
		c52.6,0,101,18.3,139.2,48.8c14.4-4,29.3-6.1,44.5-6.1c90.6,0,164,73.5,164,164.2h3.3c21.7,0,39.4,17.6,39.4,39.4
		c0,118.8-63.6,226.4-164,284.4v24.2c0,32.6-26.4,59.1-59,59.1H406.1c-32.6,0-59-26.5-59-59.1v-24.2
		C246.7,677.3,183.1,569.8,183.1,450.9z M365.5,700.5h291.2c87.6-51.3,143-145.5,143-249.5H222.4C222.4,555,277.9,649.2,365.5,700.5
		z M448.8,362.3c30.6,0,56.3,20.9,63.5,49.3h40.2c-7.9-50.2-51.3-88.7-103.7-88.7s-95.8,38.4-103.7,88.7h40.2
		C392.5,383.2,418.2,362.3,448.8,362.3z M305.4,411.5c8.1-72.1,69.2-128.1,143.4-128.1s135.3,56,143.4,128.1h39.6
		c-8.3-93.9-87-167.5-183-167.5s-174.7,73.6-183,167.5H305.4z M717.7,411.5h39.4c0-68.9-55.8-124.8-124.6-124.8
		c-3.5,0-7,0.1-10.5,0.4c10.1,12.4,18.9,26,26.1,40.4C687.7,334.9,717.7,369.7,717.7,411.5z M678.4,411.5c0-11.7-4.3-22.3-11.5-30.4
		c2.1,9.9,3.6,20.1,4.3,30.4H678.4z M386.4,739.9v19.7c0,10.9,8.8,19.7,19.7,19.7H616c10.9,0,19.7-8.8,19.7-19.7v-19.7H386.4z"/>
</g>
</svg>
