<svg xmlns="http://www.w3.org/2000/svg" xmlns:xlink="http://www.w3.org/1999/xlink" version="1.2" viewBox="0 0 1366 1366" baseProfile="tiny-ps">
  <title>Moning</title>
  <path d="M231.472,482.675c7.543,1.224,14.779,5.378,21.841,8.242c23.065,9.794,45.977,19.895,69.108,29.471  c-7.499,6.515-12.79,13.489-17.403,22.256c-24.661,45.737-49.104,91.583-73.787,137.298  c-24.355-45.868-48.557-91.867-72.934-137.714c-4.679-8.833-10.013-15.61-17.774-21.928c23.153-9.445,46.021-19.633,69.064-29.384  C216.649,488.053,223.907,483.899,231.472,482.675z" fill="#2197F3"/>
  <path d="M90.041,542.097c-0.044,90.883-0.044,181.767,0,272.65c-21.382-32.204-35.571-68.955-45.343-106.209  C34.226,668.202,28.41,626.597,26.618,584.97c0.022-4.088-0.612-9.401,1.487-13.052c2.536-4.526,7.105-6.231,11.565-8.264  C56.504,556.571,73.295,549.356,90.041,542.097z" fill="#2197F3"/>
  <path d="M372.858,542.097c2.033,0.896,4.066,1.771,6.1,2.645c15.26,6.581,30.542,13.14,45.846,19.611  c5.05,2.252,9.685,4.701,11.128,10.516c0.765,4.744,0.306,9.751,0.153,14.539c-2.164,42.261-8.417,84.74-19.611,125.58  c-9.751,35.133-23.393,69.261-43.616,99.738C372.902,723.843,372.902,632.981,372.858,542.097z" fill="#2197F3"/>
  <path d="M576.947,557.38c19.261,2.274,39.112,11.019,50.722,27.088  c10.625,14.779,13.139,32.991,13.293,50.765c0.044,27.678-0.022,55.378,0.022,83.078c-0.066,18.146,0.896,34.915-5.16,52.383  c-4.351,12.768-12.593,23.459-23.962,30.717c-18.605,12.178-41.78,14.648-63.468,12.352c-19.458-2.121-39.287-10.603-51.137-26.738  c-10.778-14.735-13.38-33.406-13.533-51.224c-0.087-32.794-0.022-65.588-0.022-98.382c0.022-15.894,1.662-32.444,9.314-46.699  c6.253-11.784,16.572-20.529,28.575-26.126C538.425,556.658,558.691,555.259,576.947,557.38z" fill="#2197F3"/>
  <path d="M722.706,563.72c5.925,6.537,9.904,15.435,13.97,23.218c24.18,47.18,48.295,94.403,72.584,141.539  c0.087-47.836,0.044-95.693,0.022-143.529c0.131-6.712-0.59-13.817,0.743-20.398c2.077-5.815,10.582-7.783,16.025-8.024  c6.362-0.328,15.785,0.984,19.392,7.018c1.99,6.69,1.006,14.473,1.202,21.404c-0.022,69.961-0.066,139.943,0.022,209.904  c-0.306,4.569,0.372,9.445-3.52,12.68c-6.799,5.662-17.84,6.122-25.754,2.689c-8.658-3.804-12.309-13.008-16.506-20.791  c-26.082-49.847-52.23-99.672-78.444-149.454c-0.066,52.296-0.044,104.854-0.022,157.171c-0.197,4.088-0.088,7.761-3.607,10.56  c-7.586,6.296-22.475,6.187-30.061-0.087c-4.22-3.214-3.367-8.067-3.717-12.768c0.131-74.29,0.044-148.776,0.044-223.066  c0.022-6.1,0.853-11.15,7.149-13.511C701.652,555.018,715.732,555.609,722.706,563.72z" fill="#2197F3"/>
  <path d="M923.297,559.959c4.547,2.777,4.482,6.996,4.657,11.762c-0.066,69.021-0.022,138.675-0.044,207.805  c-0.24,8.002,0.874,16.659-0.853,24.486c-2.711,6.165-11.718,8.505-17.862,8.352c-6.143,0.066-15.457-2.449-17.862-8.833  c-1.137-7.127-0.525-14.604-0.612-21.819c0.022-69.939,0.066-140.009-0.022-209.926c0.219-4.788-0.109-8.964,4.482-11.784  C902.483,555.281,915.951,555.281,923.297,559.959z" fill="#2197F3"/>
  <path d="M1013.48,563.72c5.947,6.537,9.904,15.435,13.97,23.218c24.18,47.18,48.295,94.403,72.584,141.539  c0.088-47.836,0.044-95.693,0.022-143.529c0.131-6.712-0.59-13.817,0.743-20.398c2.077-5.815,10.582-7.783,16.025-8.024  c6.362-0.328,15.785,0.984,19.392,7.018c1.99,6.69,1.006,14.473,1.202,21.404c-0.022,69.961-0.066,139.943,0.022,209.904  c-0.306,4.569,0.372,9.445-3.52,12.68c-6.799,5.662-17.84,6.122-25.754,2.689c-8.658-3.804-12.309-13.008-16.506-20.77  c-26.082-49.869-52.23-99.694-78.444-149.476c-0.066,52.318-0.044,104.832-0.022,157.171c-0.197,4.088-0.087,7.761-3.607,10.56  c-7.586,6.296-22.475,6.187-30.061-0.087c-4.22-3.214-3.367-8.067-3.717-12.768c0.131-74.29,0.044-148.776,0.044-223.066  c0.022-6.1,0.853-11.15,7.149-13.511C992.427,555.018,1006.506,555.609,1013.48,563.72z" fill="#2197F3"/>
  <path d="M1239.803,557.686c15.807-2.164,32.379-1.509,47.77,2.908c17.818,5.116,34.958,16.375,43.113,33.516  c4.7,10.385,6.909,23.043,4.373,34.237c-2.121,7.739-10.101,8.92-16.987,9.139c-5.684,0.044-14.539-0.765-17.621-6.384  c-2.82-8.68-2.492-17.162-7.674-25.252c-5.859-9.773-16.135-14.67-27.153-15.938c-13.008-1.465-28.137-0.022-37.954,9.62  c-9.401,9.335-11.39,22.956-11.456,35.636c0.022,32.816,0.066,65.654,0,98.47c-0.044,11.937,1.049,24.399,8.374,34.325  c7.171,9.598,18.452,13.161,30.017,13.599c15.391,0.721,30.761-3.979,38.544-18.212c8.592-15.654,4.985-38.325,5.728-55.816  c-12.484-0.35-25.142,0.656-37.56-0.459c-13.424-2.296-12.331-28.072,1.968-27.984c19.72-0.35,39.506-0.066,59.226-0.131  c6.231-0.262,11.544,2.449,13.096,8.789c1.246,8.592,0.437,17.534,0.59,26.192c-0.175,19.174,1.334,38.413-5.05,56.799  c-4.351,12.768-12.615,23.481-23.983,30.739c-18.627,12.112-41.867,14.561-63.533,12.287c-19.414-2.099-39.331-10.603-51.159-26.716  c-10.822-14.823-13.38-33.253-13.533-51.181c-0.022-33.537-0.022-67.097,0-100.634c0.131-17.403,2.558-35.308,12.615-49.978  C1202.462,569.47,1221.155,560.418,1239.803,557.686z" fill="#2197F3"/>
  <path d="M557.139,589.605c12.724-0.853,25.776,1.224,35.199,10.516c9.313,9.423,11.237,22.387,11.325,35.09  c0,27.7-0.022,55.4,0,83.1c-0.24,14.823,1.683,31.657-5.728,45.081c-5.531,10.363-16.113,16.266-27.547,17.687  c-12.921,1.574-28.225,0.022-37.932-9.598c-9.401-9.357-11.347-22.89-11.456-35.593c0-33.581,0-67.162,0-100.744  c0.109-11.675,1.705-23.962,9.357-33.297C537.069,593.737,546.907,590.349,557.139,589.605z" fill="#FFFFFF"/>
  <path d="M144.283,622.356c22.672,42.676,45.3,85.658,67.906,128.378c3.585,6.843,8.898,11.959,17.009,12.374  c10.079,0.765,17.731-5.269,22.322-13.73c22.409-41.211,44.819-82.838,67.228-124.071c0.022,81.111,0.044,162.243-0.022,243.354  c-16.157,9.882-33.734,17.031-52.339,20.66c-41.758,7.98-85.724,2.121-122.082-20.595  C144.261,786.589,144.261,704.472,144.283,622.356z" fill="#2197F3"/>
</svg>
