<?xml version="1.0" encoding="utf-8"?>
<!-- Generator: Adobe Illustrator 26.2.1, SVG Export Plug-In . SVG Version: 6.00 Build 0)  -->
<svg version="1.2" baseProfile="tiny-ps" id="Layer_1" xmlns="http://www.w3.org/2000/svg" xmlns:xlink="http://www.w3.org/1999/xlink"
	 viewBox="0 0 131.4 139.1" xml:space="preserve">
<title>Blindsgalore</title>
<path fill="#FFFFFF" d="M122.8,125c0.2-0.2,0.3-0.3,0.5-0.5c0.3-2.5,0.6-5.1,0.6-7.7c0-1.6,0.7-2.8,1.6-3.7V21.3h-111v111h99.4
	C117.1,130.1,120.4,128.1,122.8,125z"/>
<g>
	<g>
		<path fill="#49895F" d="M38.3,132.4c0,0-26.4,0-27.9,0s-4.7-0.9-4.7-4.6s0-113.5,0-114.9c0-1.4-0.2-6,4.7-6s107.8-0.1,110.4-0.1
			c2.6,0,4.6,2.1,4.6,5.1s0.1,37.2,0.1,37.2S94.4,28.1,92,26.4c-5.1-3.5-5.5-3-9.5,0.3c-5.2,4.2-29.7,21.6-31.5,22.8
			c-1.6,1.1-1.5,0.7-1.5-0.5c0-1.1,0.1-10.6,0.1-12c0-1.2,0.2-2.1-1.5-2.1s-8.6-0.1-10.2-0.1s-1.6,0.7-1.6,2.4c0,2-0.1,17.3-0.1,19
			c-0.1,3.2,0.3,3.6-0.9,4.8c-3,3-16.1,13.8-17.2,14.7c-1.6,1.2-1.9,1.1-0.8,2.6c1.1,1.4,7.8,10.2,8.5,10.9c0.8,0.8,1.3,0.1,3-1.1
			c1.7-1.2,3.9-2.7,5.1-3.6c1.1-0.9,1.5-1,1.6,0.7C35.7,87.1,38.3,132.4,38.3,132.4z"/>
	</g>
	<g>
		<path fill="#49895F" d="M125.6,68.9c0,0-34.5-22.2-36.9-23.6c-2.4-1.4-2.6-0.8-4.4,0.4c-1.6,1-32,22.4-33.2,23.4
			c-1.2,1-1.3,0.5-1.3,3.1s2.6,60,2.6,60s63.7,0.1,68.1,0.1c4.3,0,5.3-2.9,5.3-6.2C125.7,123.3,125.6,68.9,125.6,68.9z M61.1,81.6
			c0.1-0.7,1.1-3.2,1.1-3.2c0.3-1.4,0.5-1.4,2-1.7c2-0.3,49.5-4.6,51.2-4.7c1.7-0.1,2.3-0.2,1.1,1.8c-1.2,2-2.3,4.6-2.7,5.5
			c-0.4,0.9-0.4,1.1-2.5,1.1s-47.4,1.7-48.7,1.7C61.2,82.2,61,82.2,61.1,81.6z M60.9,96c0.1-0.7,1-3.2,1-3.2c0.3-1.4,0.5-1.4,2-1.7
			c2-0.3,49.5-4.6,51.2-4.7c1.7-0.1,2.3-0.2,1.1,1.8c-1.2,2-2.3,4.6-2.7,5.5c-0.4,0.9-0.4,1.1-2.5,1.1s-47.4,1.7-48.7,1.7
			C61,96.6,60.8,96.6,60.9,96z M116.7,115.5c-1.2,2-2.3,4.6-2.7,5.5c-0.4,0.9-0.4,1.1-2.5,1.1s-47.4,1.7-48.7,1.7
			c-1.3,0.1-1.6,0.1-1.5-0.6c0.1-0.7,1-3.2,1-3.2c0.3-1.4,0.5-1.4,2-1.7c2-0.3,49.5-4.6,51.2-4.7
			C117.2,113.6,117.8,113.5,116.7,115.5z M116.7,102c-1.2,2-2.3,4.6-2.7,5.5c-0.4,0.9-0.4,1.1-2.5,1.1s-47.4,1.7-48.7,1.7
			c-1.3,0.1-1.6,0.1-1.5-0.6c0.1-0.7,1-3.2,1-3.2c0.3-1.4,0.5-1.4,2-1.7c2-0.3,49.5-4.6,51.2-4.7C117.2,100.1,117.8,100,116.7,102z"
			/>
	</g>
</g>
</svg>
