<?xml version="1.0" encoding="UTF-8" standalone="yes"?>
<svg version="1.2" viewBox="0 0 105.67 105.67" xml:space="preserve" baseProfile="tiny-ps" xmlns="http://www.w3.org/2000/svg">
  <title>bimi-svg-tiny-12-ps</title>
  <g>
    <path d="M31.062,24.265c1.282-0.97,0.805-2.437-0.586-4.287c-1.313-1.737-2.696-2.808-3.925-1.885&#xA;&#x9;&#x9;l-0.507,0.388l4.598,6.102L31.062,24.265z" fill="#FFFFFF"/>
    <path d="M39.108,19.288c0.938-0.448,1.042-1.496-0.174-3.985c-0.867-1.79-1.84-3.157-3.024-2.577&#xA;&#x9;&#x9;c-1.083,0.53-0.822,1.938,0.159,3.971C37.079,18.759,38.013,19.827,39.108,19.288z" fill="#FFFFFF"/>
    <path d="M68.168,19.68c0.948,0.421,1.82-0.169,2.945-2.693c0.808-1.819,1.232-3.447,0.028-3.98&#xA;&#x9;&#x9;c-1.093-0.49-2.013,0.622-2.93,2.678C67.276,17.779,67.057,19.182,68.168,19.68z" fill="#FFFFFF"/>
    <path d="M52.835,3.616c-27.183,0-49.219,22.036-49.219,49.219s22.036,49.219,49.219,49.219&#xA;&#x9;&#x9;s49.219-22.036,49.219-49.219S80.018,3.616,52.835,3.616z M98.869,50.755l-1.974,0.244l-0.426-3.463l-2.663,0.334l0.397,3.211&#xA;&#x9;&#x9;l-1.977,0.248l-0.4-3.22l-2.832,0.347l0.432,3.586l-1.976,0.243l-0.711-5.794l11.43-1.4L98.869,50.755z M96.78,38.687&#xA;&#x9;&#x9;c0.287,0.823,0.293,1.717-0.015,2.75l-2.26,0.778c0.503-1.08,0.604-1.705,0.311-2.533c-0.501-1.462-2.091-1.856-4.453-1.042&#xA;&#x9;&#x9;c-2.041,0.699-3.187,1.781-2.781,2.972c0.1,0.284,0.307,0.574,0.601,0.796l1.828-0.631l-0.352-1.045l1.832-0.636l1.074,3.148&#xA;&#x9;&#x9;l-4.73,1.628c-1.058-0.586-1.928-1.429-2.31-2.565c-0.784-2.276,0.926-4.714,4.065-5.797C92.939,35.356,95.948,36.273,96.78,38.687&#xA;&#x9;&#x9;z M91.075,27.059L93.926,32l-1.723,1l-1.749-3.023l-2.32,1.343l1.62,2.802l-1.717,1.003l-1.628-2.81l-2.48,1.434l1.805,3.128&#xA;&#x9;&#x9;l-1.724,0.994l-2.918-5.051L91.075,27.059z M86.567,21.567l-6.792,6.557l2.491,2.581l-1.498,1.443l-4.03-4.178l8.292-8.007&#xA;&#x9;&#x9;L86.567,21.567z M79.942,15.791l-5.684,7.541l2.868,2.159l-1.254,1.657l-4.638-3.504l6.933-9.194L79.942,15.791z M66.181,14.678&#xA;&#x9;&#x9;c1.585-3.581,4.142-4.51,5.883-3.734c1.663,0.739,2.875,3.035,1.112,6.977c-1.836,4.113-4.403,4.498-5.918,3.823&#xA;&#x9;&#x9;C65.523,20.976,64.423,18.62,66.181,14.678z M58.05,13.25c0.57-3.596,2.491-5.706,4.87-5.327c0.748,0.119,1.462,0.455,2.074,0.979&#xA;&#x9;&#x9;l-0.346,2.184c-0.634-0.595-1.062-0.852-1.559-0.929c-1.253-0.201-2.381,0.799-2.774,3.296c-0.384,2.414,0.141,3.85,1.503,4.066&#xA;&#x9;&#x9;c0.572,0.089,1.271-0.178,1.977-0.628l-0.344,2.214c-0.751,0.503-1.47,0.645-2.39,0.497C58.756,19.235,57.499,16.747,58.05,13.25z&#xA;&#x9;&#x9; M53.119,21.493c17.193,0,31.124,13.934,31.124,31.124c0,17.192-13.931,31.125-31.124,31.125&#xA;&#x9;&#x9;c-17.191,0-31.128-13.934-31.128-31.125C21.991,35.427,35.927,21.493,53.119,21.493z M44.322,7.932l3.747,5.947l0.019-0.005&#xA;&#x9;&#x9;l-1.13-6.416l2.066-0.361l1.995,11.345l-1.903,0.334l-3.914-6.207l-0.036,0.002l1.184,6.694l-2.066,0.363L42.287,8.287&#xA;&#x9;&#x9;L44.322,7.932z M34.921,10.696c1.634-0.805,4.163-0.257,6.057,3.628c1.974,4.048,0.612,6.267-0.878,6.995&#xA;&#x9;&#x9;c-1.699,0.831-4.214,0.159-6.105-3.719C32.281,14.081,33.205,11.529,34.921,10.696z M25.416,16.525&#xA;&#x9;&#x9;c2.447-1.847,5.097-0.258,6.785,1.982c1.595,2.113,2.645,5.327,0.234,7.149l-2.408,1.817l-6.924-9.202L25.416,16.525z&#xA;&#x9;&#x9; M18.546,23.029l7.018,6.317l2.397-2.659l1.545,1.384l-3.888,4.317l-8.558-7.709L18.546,23.029z M14.986,27.668l1.728,1&#xA;&#x9;&#x9;l-1.743,3.016l2.32,1.337l1.616-2.806l1.727,0.998l-1.614,2.805l2.473,1.432l1.811-3.125l1.722,0.991l-2.917,5.058l-9.981-5.758&#xA;&#x9;&#x9;L14.986,27.668z M9.146,40.996l4.559,1.137l0.597-2.379L9.74,38.617l0.533-2.154l11.176,2.785l-0.542,2.157l-4.676-1.172&#xA;&#x9;&#x9;l-0.592,2.383l4.676,1.165l-0.533,2.157L8.608,43.153L9.146,40.996z M7.647,49.047c0.038-0.696,0.293-1.357,0.817-2.098&#xA;&#x9;&#x9;l2.156,0.118c-0.692,0.942-0.893,1.361-0.923,1.847c-0.026,0.526,0.27,0.92,0.746,0.947c1.358,0.071,3.196-3.012,5.921-2.864&#xA;&#x9;&#x9;c1.838,0.095,3.16,1.387,3.074,3c-0.041,0.757-0.349,1.462-1.036,2.343l-2.475-0.13c0.938-0.882,1.285-1.408,1.319-2.001&#xA;&#x9;&#x9;c0.026-0.523-0.357-0.926-0.913-0.944c-1.684-0.091-3.111,2.89-5.904,2.749C8.78,51.927,7.563,50.636,7.647,49.047z M7.727,58.934&#xA;&#x9;&#x9;h0.79c3.028,0,4.963,0.474,5.484,0.876c0.748,0.5,2.444,0.879,5.48,0.879c0.213,0,0.429,0,0.634-0.009&#xA;&#x9;&#x9;c0.431,1.785,1.007,3.516,1.698,5.167c-0.675,0.07-1.457,0.118-2.333,0.118c-3.036,0-4.731-0.385-5.48-0.888&#xA;&#x9;&#x9;c-0.5-0.384-2.345-0.853-5.235-0.882C8.327,62.479,7.97,60.721,7.727,58.934z M13.293,75.327c-1.05-1.841-1.971-3.758-2.761-5.75&#xA;&#x9;&#x9;c1.87,0.152,3.077,0.504,3.469,0.808c0.748,0.502,2.444,0.876,5.48,0.876c2.312,0,3.945-0.29,4.853-0.597&#xA;&#x9;&#x9;c0.96,1.521,2.02,2.953,3.196,4.291c-1.346,0.195-2.22,0.484-2.566,0.694c-0.587,0.382-2.456,0.888-5.483,0.888&#xA;&#x9;&#x9;c-3.036,0-4.731-0.381-5.48-0.888C13.864,75.546,13.621,75.439,13.293,75.327z M22.651,86.892&#xA;&#x9;&#x9;c-1.758-1.575-3.394-3.282-4.891-5.105c0.514,0.038,1.087,0.05,1.721,0.05c3.027,0,4.895-0.497,5.483-0.878&#xA;&#x9;&#x9;c0.56-0.347,2.454-0.886,5.478-0.886c1.174,0,2.165,0.088,2.967,0.216c4.05,2.891,8.755,4.915,13.856,5.799&#xA;&#x9;&#x9;c-0.148,0.051-0.272,0.095-0.371,0.137c-0.483,0.322-2.457,0.876-5.481,0.876c-3.029,0-4.575-0.37-5.486-0.876&#xA;&#x9;&#x9;c-0.657-0.275-2.453-0.881-5.486-0.881c-3.024,0-4.918,0.544-5.478,0.881C24.63,86.453,23.846,86.713,22.651,86.892z&#xA;&#x9;&#x9; M61.754,97.739c-1.557-0.16-2.539-0.465-3.108-0.769c-0.804-0.279-3.248-0.882-6.277-0.882c-3.026,0-4.761,0.604-5.475,0.882&#xA;&#x9;&#x9;c-0.31,0.2-1.211,0.503-2.611,0.693c-5.948-1.167-11.47-3.483-16.352-6.711c0.723-0.08,1.56-0.131,2.511-0.131&#xA;&#x9;&#x9;c3.032,0,4.828,0.597,5.486,0.878c0.911,0.498,2.456,0.885,5.486,0.885c3.024,0,4.998-0.562,5.481-0.885&#xA;&#x9;&#x9;c0.714-0.281,2.449-0.878,5.475-0.878c3.028,0,5.472,0.597,6.276,0.878c0.816,0.446,2.497,0.885,5.531,0.885&#xA;&#x9;&#x9;c3.024,0,4.859-0.506,5.48-0.885c0.582-0.34,2.453-0.878,5.483-0.878c1.26,0,2.316,0.101,3.177,0.248&#xA;&#x9;&#x9;C73.367,94.301,67.766,96.603,61.754,97.739z M83.645,86.995c-1.525-0.157-2.465-0.441-3.047-0.683&#xA;&#x9;&#x9;c-0.536-0.362-2.433-0.968-5.457-0.968c-3.03,0-4.9,0.544-5.483,0.881c-0.621,0.385-2.456,0.876-5.48,0.876&#xA;&#x9;&#x9;c-3.034,0-4.715-0.429-5.531-0.876c-0.047-0.02-0.107-0.042-0.172-0.056c5.357-0.853,10.299-2.948,14.513-5.996&#xA;&#x9;&#x9;c0.639-0.062,1.349-0.101,2.153-0.101c3.024,0,4.922,0.604,5.457,0.965c0.839,0.36,2.473,0.799,5.504,0.799&#xA;&#x9;&#x9;c1.011,0,1.897-0.05,2.634-0.133C87.177,83.595,85.48,85.37,83.645,86.995z M93.249,75.103c-0.875,0.176-1.453,0.39-1.669,0.546&#xA;&#x9;&#x9;c-0.633,0.447-2.45,0.888-5.479,0.888c-3.031,0-4.664-0.441-5.504-0.805c-0.296-0.186-0.965-0.454-1.992-0.66&#xA;&#x9;&#x9;c1.163-1.319,2.234-2.728,3.188-4.223c0.951,0.228,2.331,0.411,4.308,0.411c3.029,0,4.847-0.431,5.479-0.876&#xA;&#x9;&#x9;c0.385-0.299,1.948-0.745,4.332-0.858C95.143,71.457,94.249,73.315,93.249,75.103z M97.656,64.195h-0.589&#xA;&#x9;&#x9;c-3.026,0-5.036,0.541-5.486,0.882c-0.633,0.445-2.45,0.888-5.479,0.888c-0.634,0-1.193-0.026-1.711-0.053&#xA;&#x9;&#x9;c0.713-1.678,1.297-3.421,1.734-5.223c3.019,0,4.829-0.441,5.456-0.879c0.45-0.34,2.461-0.876,5.486-0.876&#xA;&#x9;&#x9;c0.532,0,1.083,0,1.624,0.02C98.446,60.736,98.094,62.49,97.656,64.195z" fill="#FFFFFF"/>
    <path d="M21.991,52.617c0,17.192,13.937,31.125,31.128,31.125c17.193,0,31.124-13.934,31.124-31.125&#xA;&#x9;&#x9;c0-17.189-13.931-31.124-31.124-31.124C35.927,21.493,21.991,35.427,21.991,52.617z M53.119,23.615&#xA;&#x9;&#x9;c6.176,0,11.898,1.939,16.602,5.234L59.232,39.337c1.23-0.572,2.597-0.901,4.044-0.901h1.709l4.754-9.573&#xA;&#x9;&#x9;c3.129,2.195,5.802,4.991,7.856,8.222l-2.63,1.351h1.385l1.286-1.286c2.83,4.478,4.474,9.78,4.474,15.467&#xA;&#x9;&#x9;c0,0.057-0.004,0.114-0.004,0.171l-17.862-2.246l2.527-2.527h-1.128c-1.322,0-2.403,1.079-2.403,2.412&#xA;&#x9;&#x9;c0,0.325-0.009,1.905-0.009,2.394h18.884c-0.103,15.925-13.043,28.797-28.991,28.797c-0.001,0-0.002,0-0.003,0&#xA;&#x9;&#x9;c-0.001,0-0.002,0-0.003,0c-15.946,0-28.885-12.875-28.995-28.797h0.003c0,0,0,0,0,0h6.556c-0.146-0.257-0.281-0.527-0.408-0.803&#xA;&#x9;&#x9;l-6.152,0.769c0-0.057-0.004-0.113-0.004-0.17C24.119,36.605,37.105,23.615,53.119,23.615z" fill="#FFE800"/>
    <path d="M63.269,67.349l13.457,0.005l-3.989-9.593h-7.101c-1.322,0-2.403-1.077-2.403-2.404v-2.524&#xA;&#x9;&#x9;l-3.531-0.005l-6.031-0.001c0,1.522-0.005,3.138-0.005,4.913C53.667,63.048,57.96,67.349,63.269,67.349z" fill="#FFFFFF"/>
    <path d="M72.74,48.015h-5.969l-2.527,2.527l17.862,2.246c0-0.057,0.004-0.113,0.004-0.171&#xA;&#x9;&#x9;c0-5.687-1.644-10.989-4.474-15.467l-1.286,1.286h0.382L72.74,48.015z" fill="#FFFFFF"/>
    <path d="M40.863,52.825c1.332,0,2.415,1.107,2.415,2.428c0,1.331-1.071,2.408-2.402,2.408h-7.102&#xA;&#x9;&#x9;l-3.986,9.587h13.451c5.302,0,9.602-4.308,9.602-9.61c0-1.777-0.443-3.378-1.293-4.81l-10.681-0.003L40.863,52.825z" fill="#FFFFFF"/>
    <path d="M77.596,37.085c-2.054-3.231-4.727-6.027-7.856-8.222l-4.754,9.573h9.98L77.596,37.085z" fill="#FFFFFF"/>
    <path d="M24.127,52.821h-0.003c0.11,15.922,13.049,28.797,28.995,28.797c0.001,0,0.002,0,0.003,0&#xA;&#x9;&#x9;C37.18,81.616,24.24,68.745,24.127,52.821z" fill="#FFFFFF"/>
    <path d="M24.123,52.787l6.152-0.769c-0.564-1.219-0.93-2.599-0.93-3.99c0-2.811,1.214-5.33,3.137-7.086&#xA;&#x9;&#x9;l-3.811-3.81l5.298,2.695c1.455-0.885,3.157-1.405,4.983-1.405h2.423l-4.661-9.472l9.474,9.472h4.594l2.382-14.428l2.928,17.687&#xA;&#x9;&#x9;c0.87-0.983,1.936-1.783,3.14-2.344L69.72,28.849c-4.704-3.294-10.425-5.234-16.602-5.234c-16.014,0-29,12.99-29,29.002&#xA;&#x9;&#x9;C24.119,52.674,24.122,52.73,24.123,52.787z" fill="#FFFFFF"/>
    <path d="M39.964,48.421c-0.633,0.434-1.047,1.164-1.047,1.991c0,0.176,0.03,0.347,0.073,0.516l3.095-0.387&#xA;&#x9;&#x9;L39.964,48.421z" fill="#FFFFFF"/>
    <path d="M19.48,65.964c0.876,0,1.658-0.048,2.333-0.118c-0.692-1.651-1.267-3.382-1.698-5.167&#xA;&#x9;&#x9;c-0.205,0.009-0.421,0.009-0.634,0.009c-3.036,0-4.731-0.379-5.48-0.879c-0.521-0.402-2.456-0.876-5.484-0.876h-0.79&#xA;&#x9;&#x9;c0.243,1.787,0.6,3.545,1.039,5.261c2.89,0.029,4.734,0.497,5.235,0.882C14.749,65.58,16.445,65.964,19.48,65.964z" fill="#B4D9F3"/>
    <path d="M91.58,59.81c-0.627,0.437-2.437,0.879-5.456,0.879c-0.437,1.802-1.021,3.546-1.734,5.223&#xA;&#x9;&#x9;c0.518,0.027,1.077,0.053,1.711,0.053c3.029,0,4.847-0.443,5.479-0.888c0.45-0.341,2.461-0.882,5.486-0.882h0.589&#xA;&#x9;&#x9;c0.439-1.705,0.791-3.459,1.035-5.241c-0.541-0.02-1.092-0.02-1.624-0.02C94.041,58.934,92.031,59.47,91.58,59.81z" fill="#B4D9F3"/>
    <path d="M86.101,71.261c-1.976,0-3.356-0.183-4.308-0.411c-0.955,1.495-2.025,2.903-3.188,4.223&#xA;&#x9;&#x9;c1.027,0.206,1.696,0.474,1.992,0.66c0.84,0.364,2.473,0.805,5.504,0.805c3.029,0,4.847-0.441,5.479-0.888&#xA;&#x9;&#x9;c0.216-0.156,0.794-0.37,1.669-0.546c1-1.788,1.894-3.647,2.663-5.576c-2.384,0.114-3.947,0.559-4.332,0.858&#xA;&#x9;&#x9;C90.948,70.83,89.13,71.261,86.101,71.261z" fill="#B4D9F3"/>
    <path d="M24.963,75.649c0.347-0.21,1.22-0.499,2.566-0.694c-1.175-1.338-2.236-2.77-3.196-4.291&#xA;&#x9;&#x9;c-0.909,0.308-2.541,0.597-4.853,0.597c-3.036,0-4.731-0.374-5.48-0.876c-0.391-0.305-1.598-0.656-3.469-0.808&#xA;&#x9;&#x9;c0.79,1.992,1.711,3.909,2.761,5.75c0.328,0.112,0.571,0.219,0.708,0.322c0.748,0.506,2.444,0.888,5.48,0.888&#xA;&#x9;&#x9;C22.507,76.537,24.376,76.032,24.963,75.649z" fill="#B4D9F3"/>
    <path d="M80.597,81.038c-0.535-0.362-2.433-0.965-5.457-0.965c-0.805,0-1.514,0.039-2.153,0.101&#xA;&#x9;&#x9;c-4.214,3.048-9.156,5.142-14.513,5.996c0.065,0.014,0.124,0.035,0.172,0.056c0.816,0.447,2.497,0.876,5.531,0.876&#xA;&#x9;&#x9;c3.024,0,4.859-0.491,5.48-0.876c0.582-0.337,2.453-0.881,5.483-0.881c3.024,0,4.921,0.606,5.457,0.968&#xA;&#x9;&#x9;c0.582,0.242,1.523,0.526,3.047,0.683c1.836-1.625,3.533-3.4,5.091-5.291c-0.737,0.083-1.623,0.133-2.634,0.133&#xA;&#x9;&#x9;C83.07,81.837,81.437,81.398,80.597,81.038z" fill="#B4D9F3"/>
    <path d="M35.927,86.225c0.911,0.506,2.456,0.876,5.486,0.876c3.024,0,4.999-0.553,5.481-0.876&#xA;&#x9;&#x9;c0.099-0.042,0.224-0.086,0.371-0.137c-5.102-0.884-9.806-2.908-13.856-5.799c-0.803-0.128-1.793-0.216-2.967-0.216&#xA;&#x9;&#x9;c-3.024,0-4.918,0.539-5.478,0.886c-0.587,0.381-2.456,0.878-5.483,0.878c-0.634,0-1.208-0.012-1.721-0.05&#xA;&#x9;&#x9;c1.497,1.823,3.133,3.53,4.891,5.105c1.195-0.178,1.979-0.439,2.313-0.666c0.56-0.337,2.454-0.881,5.478-0.881&#xA;&#x9;&#x9;C33.474,85.344,35.27,85.95,35.927,86.225z" fill="#B4D9F3"/>
    <path d="M69.658,91.699c-0.621,0.38-2.456,0.885-5.48,0.885c-3.034,0-4.715-0.439-5.531-0.885&#xA;&#x9;&#x9;c-0.804-0.281-3.248-0.878-6.276-0.878c-3.026,0-4.761,0.597-5.475,0.878c-0.483,0.323-2.457,0.885-5.481,0.885&#xA;&#x9;&#x9;c-3.029,0-4.575-0.387-5.486-0.885c-0.657-0.281-2.454-0.878-5.486-0.878c-0.951,0-1.787,0.05-2.511,0.131&#xA;&#x9;&#x9;c4.882,3.228,10.405,5.545,16.352,6.711c1.4-0.19,2.301-0.492,2.611-0.693c0.714-0.279,2.449-0.882,5.475-0.882&#xA;&#x9;&#x9;c3.029,0,5.473,0.604,6.277,0.882c0.569,0.305,1.55,0.609,3.108,0.769c6.013-1.136,11.614-3.439,16.564-6.67&#xA;&#x9;&#x9;c-0.861-0.147-1.917-0.248-3.177-0.248C72.111,90.821,70.24,91.359,69.658,91.699z" fill="#B4D9F3"/>
    <path d="M28.671,37.132l3.811,3.81c0.458-0.418,0.955-0.791,1.487-1.115L28.671,37.132z" fill="#FFE800"/>
    <path d="M48.643,48.001h-7.324c-0.504,0-0.97,0.156-1.355,0.42l2.121,2.12l-3.095,0.387&#xA;&#x9;&#x9;c0.224,0.879,0.986,1.627,1.905,1.892l-0.026,0.004l10.681,0.003c0,0,0-0.001-0.001-0.001l2.122-0.005&#xA;&#x9;&#x9;c0-1.523,0.005-3.012,0.005-4.779c0-2.444,0.917-4.666,2.417-6.361l-2.928-17.687l-2.382,14.428h1.625L48.643,48.001z" fill="#FFE800"/>
    <path d="M10.431,52.015c2.793,0.141,4.219-2.841,5.904-2.749c0.556,0.018,0.939,0.421,0.913,0.944&#xA;&#x9;&#x9;c-0.034,0.592-0.381,1.119-1.319,2.001l2.475,0.13c0.687-0.881,0.994-1.586,1.036-2.343c0.086-1.613-1.237-2.906-3.074-3&#xA;&#x9;&#x9;c-2.726-0.148-4.564,2.935-5.921,2.864c-0.476-0.027-0.772-0.421-0.746-0.947c0.03-0.486,0.231-0.905,0.923-1.847l-2.156-0.118&#xA;&#x9;&#x9;c-0.524,0.741-0.779,1.402-0.817,2.098C7.563,50.636,8.78,51.927,10.431,52.015z" fill="#002B5C"/>
    <path d="M32.435,25.657c2.411-1.822,1.362-5.036-0.234-7.149c-1.688-2.24-4.338-3.829-6.785-1.982&#xA;&#x9;&#x9;l-2.313,1.746l6.924,9.202L32.435,25.657z M26.552,18.093c1.229-0.923,2.612,0.148,3.925,1.885c1.39,1.85,1.867,3.317,0.586,4.287&#xA;&#x9;&#x9;l-0.421,0.318l-4.598-6.102L26.552,18.093z" fill="#002B5C"/>
    <path d="M40.1,21.319c1.491-0.728,2.852-2.948,0.878-6.995c-1.894-3.885-4.423-4.432-6.057-3.628&#xA;&#x9;&#x9;c-1.716,0.834-2.64,3.385-0.926,6.904C35.886,21.477,38.401,22.15,40.1,21.319z M35.909,12.725c1.184-0.58,2.157,0.787,3.024,2.577&#xA;&#x9;&#x9;c1.216,2.489,1.112,3.537,0.174,3.985c-1.095,0.539-2.029-0.529-3.039-2.591C35.087,14.663,34.827,13.255,35.909,12.725z" fill="#002B5C"/>
    <path d="M61.062,19.603c0.92,0.148,1.639,0.005,2.39-0.497l0.344-2.214c-0.706,0.45-1.406,0.716-1.977,0.628&#xA;&#x9;&#x9;c-1.362-0.216-1.888-1.651-1.503-4.066c0.393-2.498,1.521-3.497,2.774-3.296c0.497,0.077,0.925,0.334,1.559,0.929l0.346-2.184&#xA;&#x9;&#x9;c-0.612-0.524-1.326-0.86-2.074-0.979c-2.379-0.379-4.299,1.731-4.87,5.327C57.499,16.747,58.756,19.235,61.062,19.603z" fill="#002B5C"/>
    <path d="M67.258,21.745c1.515,0.675,4.083,0.29,5.918-3.823c1.763-3.942,0.551-6.238-1.112-6.977&#xA;&#x9;&#x9;c-1.74-0.777-4.297,0.153-5.883,3.734C64.423,18.62,65.523,20.976,67.258,21.745z M68.21,15.684&#xA;&#x9;&#x9;c0.917-2.056,1.837-3.168,2.93-2.678c1.204,0.533,0.78,2.161-0.028,3.98c-1.125,2.524-1.997,3.114-2.945,2.693&#xA;&#x9;&#x9;C67.057,19.182,67.276,17.779,68.21,15.684z" fill="#002B5C"/>
    <path d="M89.589,36.51c-3.139,1.083-4.849,3.521-4.065,5.797c0.382,1.136,1.252,1.98,2.31,2.565l4.73-1.628&#xA;&#x9;&#x9;l-1.074-3.148l-1.832,0.636l0.352,1.045l-1.828,0.631c-0.294-0.222-0.501-0.512-0.601-0.796c-0.405-1.191,0.741-2.272,2.781-2.972&#xA;&#x9;&#x9;c2.362-0.814,3.952-0.42,4.453,1.042c0.293,0.829,0.192,1.453-0.311,2.533l2.26-0.778c0.308-1.033,0.302-1.927,0.015-2.75&#xA;&#x9;&#x9;C95.948,36.273,92.939,35.356,89.589,36.51z" fill="#002B5C"/>
    <path d="M56.092,41.68c-1.5,1.694-2.417,3.917-2.417,6.361c0,1.767-0.005,3.256-0.005,4.779l-2.122,0.005&#xA;&#x9;&#x9;c0,0,0,0.001,0.001,0.001c0.85,1.432,1.293,3.033,1.293,4.81c0,5.302-4.3,9.61-9.602,9.61H29.788l3.986-9.587h7.102&#xA;&#x9;&#x9;c1.331,0,2.402-1.077,2.402-2.408c0-1.32-1.083-2.428-2.415-2.428l0.005-0.001l0.026-0.004c-0.919-0.266-1.681-1.013-1.905-1.892&#xA;&#x9;&#x9;c-0.043-0.168-0.073-0.34-0.073-0.516c0-0.828,0.415-1.557,1.047-1.991c0.385-0.265,0.851-0.42,1.355-0.42h7.324l3.764-9.579&#xA;&#x9;&#x9;h-1.625h-4.594h-4.813h-2.423c-1.827,0-3.529,0.519-4.983,1.405c-0.532,0.324-1.029,0.697-1.487,1.115&#xA;&#x9;&#x9;c-1.923,1.756-3.137,4.275-3.137,7.086c0,1.391,0.365,2.771,0.93,3.99c0.128,0.276,0.262,0.546,0.408,0.803h-6.556c0,0,0,0,0,0&#xA;&#x9;&#x9;C24.24,68.745,37.18,81.616,53.122,81.618c0.001,0,0.002,0,0.003,0c15.948,0,28.889-12.872,28.991-28.797H63.232&#xA;&#x9;&#x9;c0-0.489,0.009-2.069,0.009-2.394c0-1.332,1.08-2.412,2.403-2.412h1.128h5.969l3.994-9.579h-0.382h-1.385h-9.98h-1.709&#xA;&#x9;&#x9;c-1.447,0-2.814,0.329-4.044,0.901C58.028,39.897,56.962,40.698,56.092,41.68z M53.671,52.821l6.031,0.009l3.531,0.005v2.524&#xA;&#x9;&#x9;c0,1.326,1.08,2.404,2.403,2.404h7.101l3.989,9.593l-13.457-0.005c-5.308,0-9.602-4.302-9.602-9.608&#xA;&#x9;&#x9;c0-1.775,0.005-3.391,0.005-4.913C53.671,52.825,53.671,52.823,53.671,52.821z" fill="#002B5C"/>
    <polygon points="53.671,52.821 53.671,52.828 59.702,52.829 &#x9;" fill="#FFE800"/>
    <polygon points="36.714,28.95 41.375,38.422 46.188,38.422 &#x9;" fill="#FFE800"/>
    <polygon points="20.316,43.78 15.639,42.615 16.231,40.232 20.907,41.405 21.449,39.247 10.273,36.463 &#xA;&#x9;&#x9;9.74,38.617 14.302,39.753 13.705,42.133 9.146,40.996 8.608,43.153 19.783,45.938 &#x9;" fill="#002B5C"/>
    <polygon points="25.026,33.317 23.303,32.326 21.493,35.451 19.019,34.019 20.634,31.213 18.907,30.216 &#xA;&#x9;&#x9;17.291,33.021 14.971,31.685 16.714,28.668 14.986,27.668 12.128,32.616 22.108,38.374 &#x9;" fill="#002B5C"/>
    <polygon points="29.506,28.07 27.962,26.687 25.564,29.346 18.546,23.029 17.06,24.679 25.618,32.388 &#x9;" fill="#002B5C"/>
    <polygon points="46.349,19.265 45.165,12.571 45.201,12.569 49.116,18.776 51.019,18.442 49.024,7.097 &#xA;&#x9;&#x9;46.958,7.458 48.088,13.873 48.069,13.879 44.322,7.932 42.287,8.287 44.283,19.628 &#x9;" fill="#002B5C"/>
    <polygon points="75.872,27.148 77.126,25.491 74.258,23.332 79.942,15.791 78.166,14.45 71.234,23.644 &#x9;" fill="#002B5C"/>
    <polygon points="80.768,32.149 82.266,30.705 79.775,28.124 86.567,21.567 85.03,19.963 76.738,27.97 &#x9;" fill="#002B5C"/>
    <polygon points="84.009,37.871 85.733,36.878 83.928,33.749 86.408,32.315 88.036,35.125 89.753,34.122 &#xA;&#x9;&#x9;88.133,31.32 90.453,29.977 92.202,33 93.926,32 91.075,27.059 81.091,32.82 &#x9;" fill="#002B5C"/>
    <polygon points="87.451,52.285 89.427,52.043 88.994,48.456 91.826,48.11 92.226,51.329 94.203,51.081 &#xA;&#x9;&#x9;93.806,47.87 96.469,47.536 96.895,50.998 98.869,50.755 98.17,45.091 86.74,46.491 &#x9;" fill="#002B5C"/>
  </g>
</svg>