<?xml version="1.0" encoding="utf-8"?>
<svg version="1.2" baseProfile="tiny-ps" id="bab" xmlns:cc="http://creativecommons.org/ns#" xmlns:dc="http://purl.org/dc/elements/1.1/" xmlns:inkscape="http://www.inkscape.org/namespaces/inkscape" xmlns:rdf="http://www.w3.org/1999/02/22-rdf-syntax-ns#" xmlns:sodipodi="http://sodipodi.sourceforge.net/DTD/sodipodi-0.dtd" xmlns:svg="http://www.w3.org/2000/svg" xmlns="http://www.w3.org/2000/svg" xmlns:xlink="http://www.w3.org/1999/xlink" viewBox="0 0 200 200" xml:space="preserve">
  <title>Build-A-Bear</title>
  <g id="bab-logo" transform="matrix(0.70028,0,0,0.70028,-235.714,-96.2885)">
    <path d="M479.4,417.2C403.9,417.2 342.5,355.8 342.5,280.3C342.5,204.8 403.9,143.4 479.4,143.4C554.9,143.4 616.3,204.8 616.3,280.3C616.3,355.8 554.9,417.2 479.4,417.2Z" fill="white"/>
    <path d="M479.4,137.5C400.7,137.5 336.6,201.6 336.6,280.3C336.6,359 400.7,423.1 479.4,423.1C558.1,423.1 622.2,359 622.2,280.3C622.2,201.6 558.1,137.5 479.4,137.5ZM479.4,417.2C403.9,417.2 342.5,355.8 342.5,280.3C342.5,204.8 403.9,143.4 479.4,143.4C554.9,143.4 616.3,204.8 616.3,280.3C616.3,355.8 554.9,417.2 479.4,417.2Z" fill="rgb(0,86,162)"/>
    <path d="M555.8,280.3C555.8,322.7 521.4,357.1 479,357.1C436.6,357.1 402.2,322.7 402.2,280.3C402.2,237.9 436.6,203.5 479,203.5C521.5,203.5 555.8,237.9 555.8,280.3" fill="rgb(0,86,162)"/>
    <path d="M491.1,372.8L486.9,373.1L486.9,373.2C486.9,373.2 485.5,375.4 484.2,376.3C482.8,377.4 480,378.3 480,378.3L479.9,378.3L480.2,382.7L480.4,382.7C480.5,382.7 483.2,382 484.7,381.3C485,381.1 485.3,381 485.6,380.8L486.9,399.9L486.9,400.1L493,399.7L491.2,373.1L491.1,372.8Z" fill="rgb(0,86,162)"/>
    <path d="M509.5,368.7C508.4,368.7 507.2,368.9 506,369.2C503.2,370 501.1,371.6 499.8,373.8C498.5,376 498.3,378.7 499.1,381.5C500.2,385.3 503.8,388 507.8,388C508.7,388 509.7,387.9 510.7,387.6C511.4,387.4 512.4,387 513,386.4C512.1,389.2 510.3,392.6 509.3,394.2L509.2,394.4L514,396.4L514.1,396.3C514.7,395.5 517.1,390.1 517.9,387.9C519.2,384 519.5,379.7 518.5,376.3C517.1,371.5 513.8,368.7 509.5,368.7ZM512.4,380.2C511.9,381.1 511,381.8 509.8,382.2C509.4,382.3 509.1,382.4 508.6,382.4C507.1,382.4 505.3,381.6 504.6,379.4C504.2,378 504.6,376.9 505.1,376.2C505.6,375.4 506.5,374.8 507.4,374.5C507.9,374.4 508.3,374.3 508.8,374.3C510.7,374.3 512.1,375.3 512.6,377C513,378.1 512.9,379.3 512.4,380.2Z" fill="rgb(0,86,162)"/>
    <path d="M532,358.8C530.2,358.8 528.4,359.3 526.6,360.4C521.4,363.4 519.9,368.9 522.9,374C524.5,376.8 527.5,378.5 530.8,378.5C532.5,378.5 534.1,378 535.7,377.1C536.4,376.7 537.2,376.2 537.7,375.4C537.5,378.3 536.6,382.1 536,383.8L535.9,384L541.1,384.8L541.1,384.7C541.5,383.8 542.5,378 542.8,375.7C543.2,371.6 542.4,367.4 540.6,364.3C538.4,360.8 535.4,358.8 532,358.8ZM529.1,365.1C529.8,364.7 530.7,364.4 531.5,364.4C532.9,364.4 534.1,365.1 534.8,366.3C536.1,368.5 535.5,370.8 533.3,372C532.7,372.4 531.9,372.6 531.2,372.6C530.3,372.6 528.7,372.3 527.7,370.5C526.3,368.2 527.7,365.9 529.1,365.1Z" fill="rgb(0,86,162)"/>
    <path d="M552.6,340L552.5,339.7L537.1,354.4L537,354.5L540.5,358.1L549.3,349.6L555.6,373.9L560.6,369L552.6,340Z" fill="rgb(0,86,162)"/>
    <path d="M409,363.9L412.5,360.2L406.4,354.4L410.2,350.4L417.1,357L420.6,353.3L409.2,342.4L390.8,361.7L390.7,361.8L402.7,373.2L406.4,369.4L398.9,362.2L402.9,358.1L409,363.9Z" fill="rgb(0,86,162)"/>
    <path d="M431.8,360.1C430,359 428.1,358.5 426.3,358.5C423.6,358.5 421.4,359.7 420.1,361.9C418.5,364.5 418.8,367.5 421,371.1L423.8,375.6C424.1,376.1 424.8,377.5 424.1,378.7C423.2,380.1 421.9,380.3 420.3,379.3C418.1,378 417,375.6 416.3,373.8L416.2,373.7L410.8,376L410.9,376.1C412.6,380.3 415.4,382.4 417.4,383.6C419.4,384.8 421.4,385.4 423.2,385.4C425.9,385.4 428.2,384 429.6,381.6C431.7,378.1 429.9,374.6 428.2,371.9L426,368.5C425.2,367.2 424.7,366.3 425.5,365C425.9,364.3 426.5,364 427.3,364C427.9,364 428.5,364.2 429.2,364.6C430.4,365.3 431.9,366.8 432.6,368.8L432.7,369L437.8,366.7L437.7,366.6C436.6,363.9 434.6,361.7 431.8,360.1Z" fill="rgb(0,86,162)"/>
    <path d="M455.9,376.2L457.6,371.4L441.2,365.9L439.6,370.7L444.8,372.5L437.8,393L443.7,395L450.7,374.5L455.9,376.2Z" fill="rgb(0,86,162)"/>
    <path d="M453.9,391C451.9,391 450.3,392.6 450.3,394.6C450.3,396.6 451.9,398.2 453.9,398.2C455.9,398.2 457.5,396.6 457.5,394.6C457.5,392.6 455.9,391 453.9,391Z" fill="rgb(0,86,162)"/>
    <path d="M377.7,330.2C371.5,329.2 363.8,323.3 364.8,316.4C365.2,313.8 366.9,312 369.3,311.2C370.5,310.8 371.7,310.7 373,310.7C373.4,310.7 377.1,311.5 377.1,311.5C379.3,309.3 382.3,307.2 385.5,307.2C388.3,307.2 391.4,309.5 392.1,312.2C393.7,318.2 388.4,326.6 383.4,329.5C383.2,329.6 382.9,329.8 382.6,329.9C381.1,330.3 379.1,330.4 377.7,330.2" fill="rgb(0,86,162)"/>
    <path d="M390.9,304C390.6,304.4 390.2,304.7 389.8,305C389.4,305.3 389,305.5 388.5,305.7C388,305.9 387.4,306 386.7,306C386.1,306 385.5,306 384.9,305.9C384.3,305.7 383.9,305.4 383.5,305.1C383.1,304.8 382.8,304.4 382.6,304C382.5,303.6 382.3,303.2 382.2,302.7C382.1,302.2 382.3,301.7 382.3,301.2C382.4,300.7 382.5,300.2 382.7,299.8C383,299.4 383.4,299.1 384,298.9C384.5,298.7 385.2,298.5 385.9,298.5C386.6,298.5 387.3,298.6 388,298.8C388.7,299 389.2,299.4 389.7,299.8C390.2,300.2 390.6,300.6 390.8,301.2C391,301.7 391.1,302.2 391.1,302.6C391.2,303.1 391.2,303.6 390.9,304" fill="rgb(0,86,162)"/>
    <path d="M376.5,307.8C377,307.6 377.5,307.4 378,307.1C378.4,306.8 378.7,306.3 379,305.8C379.3,305.3 379.4,304.7 379.3,304C379.2,303.5 379,303 378.8,302.5C378.5,302 378.3,301.5 377.8,301.2C377.4,300.9 376.9,300.6 376.3,300.6C375.7,300.5 375.1,300.7 374.4,301.2C373.9,301.5 373.5,301.8 373.1,302.1C372.7,302.5 372.3,302.9 372,303.3C371.7,303.7 371.5,304.1 371.3,304.4C371.1,304.8 371.1,305.3 371.1,305.7C371.1,306.5 371.4,307 372,307.6C372.3,307.9 372.8,308.1 373.4,308.2C373.9,308.3 374.4,308.4 375,308.3C375.5,308.2 376,308 376.5,307.8" fill="rgb(0,86,162)"/>
    <path d="M366.4,310.5C365.9,310.9 365.5,311.3 365,311.6C364.5,311.9 363.9,312 363.5,312.1C363,312.2 362.6,312.2 362.3,311.9C361.9,311.7 361.7,311.4 361.5,311.1C361.3,310.8 361.3,310.4 361.3,309.9C361.3,309.5 361.3,309 361.5,308.5C361.7,308 362,307.6 362.3,307.1C362.6,306.7 362.9,306.3 363.4,306C363.9,305.8 364.3,305.6 364.8,305.5C365.3,305.4 365.8,305.5 366.3,305.5C366.8,305.6 367.2,305.7 367.5,305.9C367.8,306.1 368.1,306.4 368.2,306.6C368.4,306.8 368.5,307.1 368.5,307.3C368.5,307.5 368.4,307.8 368.2,308.2C368,308.5 367.9,308.9 367.6,309.4C367.3,309.8 366.8,310.1 366.4,310.5" fill="rgb(0,86,162)"/>
    <path d="M580.8,330.2C587,329.2 594.7,323.3 593.7,316.4C593.3,313.8 591.6,312 589.2,311.2C588,310.8 586.8,310.7 585.5,310.7C585.1,310.7 581.4,311.5 581.4,311.5C579.2,309.3 576.2,307.2 573,307.2C570.2,307.2 567.1,309.5 566.4,312.2C564.8,318.2 570.1,326.6 575.1,329.5C575.3,329.6 575.6,329.8 575.9,329.9C577.4,330.3 579.4,330.4 580.8,330.2" fill="rgb(0,86,162)"/>
    <path d="M567.6,304C567.9,304.4 568.3,304.7 568.7,305C569.1,305.3 569.5,305.5 570,305.7C570.5,305.9 571.1,306 571.8,306C572.4,306 573,306 573.6,305.9C574.2,305.7 574.6,305.4 575,305.1C575.4,304.8 575.7,304.4 575.9,304C576,303.6 576.2,303.2 576.3,302.7C576.4,302.2 576.2,301.7 576.2,301.2C576.1,300.7 576,300.2 575.8,299.8C575.5,299.4 575.1,299.1 574.5,298.9C574,298.7 573.3,298.5 572.6,298.5C571.9,298.5 571.2,298.6 570.5,298.8C569.8,299 569.3,299.4 568.8,299.8C568.3,300.2 567.9,300.6 567.7,301.2C567.5,301.7 567.4,302.2 567.4,302.6C567.3,303.1 567.3,303.6 567.6,304" fill="rgb(0,86,162)"/>
    <path d="M582,307.8C581.5,307.6 581,307.4 580.5,307.1C580.1,306.8 579.8,306.3 579.5,305.8C579.2,305.3 579.1,304.7 579.2,304C579.3,303.5 579.5,303 579.7,302.5C580,302 580.2,301.5 580.7,301.2C581.1,300.9 581.6,300.6 582.2,300.6C582.8,300.5 583.4,300.7 584.1,301.2C584.6,301.5 585,301.8 585.4,302.1C585.8,302.5 586.2,302.9 586.5,303.3C586.8,303.7 587,304.1 587.2,304.4C587.4,304.8 587.4,305.3 587.4,305.7C587.4,306.5 587.1,307 586.5,307.6C586.2,307.9 585.7,308.1 585.1,308.2C584.6,308.3 584.1,308.4 583.5,308.3C583,308.2 582.5,308 582,307.8" fill="rgb(0,86,162)"/>
    <path d="M592.1,310.5C592.6,310.9 593,311.3 593.5,311.6C594,311.9 594.6,312 595,312.1C595.5,312.2 595.9,312.2 596.2,311.9C596.6,311.7 596.8,311.4 597,311.1C597.2,310.8 597.2,310.4 597.2,309.9C597.2,309.5 597.2,309 597,308.5C596.8,308 596.5,307.6 596.2,307.1C595.9,306.7 595.6,306.3 595.1,306C594.6,305.8 594.2,305.6 593.7,305.5C593.2,305.4 592.7,305.5 592.2,305.5C591.7,305.6 591.3,305.7 591,305.9C590.7,306.1 590.4,306.4 590.3,306.6C590.1,306.8 590,307.1 590,307.3C590,307.5 590.1,307.8 590.3,308.2C590.5,308.5 590.6,308.9 590.9,309.4C591.2,309.8 591.7,310.1 592.1,310.5" fill="rgb(0,86,162)"/>
    <path d="M382.3,249.7C381.9,249.6 381.4,249.6 381,249.6C378.5,249.6 376.2,250.9 375.2,252.9C374.7,250.9 372.8,249.2 370.4,248.8C365.6,248 362.6,251 361.6,257.6L360.2,266.2L386.7,270.5L388.4,259.7C388.9,256.7 388.5,254.3 387.1,252.5C385.7,250.6 383.7,250 382.3,249.7ZM366.6,258.4C366.9,256.3 368,255 369.4,255L369.8,255C370.7,255.1 371.3,255.5 371.7,256.1C372.2,256.8 372.3,257.9 372.1,259.3L371.7,261.8L366.2,260.9L366.6,258.4ZM376.7,262.6L377.2,259.4C377.7,256.5 378.8,255.4 380.9,255.7C381.8,255.8 382.5,256.3 382.8,257.1C383.1,257.8 383.1,258.8 383,260L382.4,263.6L376.7,262.6Z" fill="rgb(0,86,162)"/>
    <path d="M390.2,225.2L375.9,218.4L375.8,218.3L373.1,223.9L387.1,230.5C390.9,232.3 391.7,234.1 390.3,237C389.4,239 388.2,239.9 386.5,239.9C385.5,239.9 384.4,239.6 383.1,238.9L369.3,232.3L369.2,232.2L366.5,237.8L380.9,244.6C382.7,245.5 384.5,245.9 386.2,245.9C390.1,245.9 393.3,243.6 395.4,239.2C397,235.9 397.2,232.9 396,230.2C395,228.4 393,226.5 390.2,225.2Z" fill="rgb(0,86,162)"/>
    <g transform="matrix(0.6014,-0.7989,0.7989,0.6014,-15.5838,400.737)">
        <rect x="390.7" y="202.6" width="6.2" height="26.8" fill="rgb(0,86,162)"/>
    </g>
    <path d="M411,208.8L396.1,193.3L391.6,197.6L410.1,216.8L410.2,216.9L421.5,206.1L417.8,202.3L411,208.8Z" fill="rgb(0,86,162)"/>
    <path d="M437,181.4C434.1,176.7 430.5,174.3 426.2,174.3C423.4,174.3 420.2,175.3 416.9,177.4L410.6,181.2L424.4,204.2L432.2,199.5C440.1,194.6 440.3,186.9 437,181.4ZM428.6,195.3L427,196.3L418.6,182.3L419.6,181.7C421.5,180.5 423.4,179.9 425,179.9C427.6,179.9 429.8,181.3 431.5,184.2C434,188.5 432.9,192.7 428.6,195.3Z" fill="rgb(0,86,162)"/>
    <g transform="matrix(0.9678,-0.2516,0.2516,0.9678,-29.7013,119.541)">
        <rect x="447.9" y="173.4" width="9.6" height="5.1" fill="rgb(0,86,162)"/>
    </g>
    <path d="M479.9,158.6L466.2,186.6L472.8,186.7L475.6,180.7L483.4,180.8L486,186.9L492.6,187L480,158.9L479.9,158.6ZM481.6,176.2L477.5,176.1L479.5,171.7L481.6,176.2Z" fill="rgb(0,86,162)"/>
    <g transform="matrix(0.2582,-0.9661,0.9661,0.2582,205.462,619.861)">
        <rect x="503.8" y="171.3" width="5.1" height="9.6" fill="rgb(0,86,162)"/>
    </g>
    <path d="M538.3,190.1C540.3,190.4 542.7,189.1 543.8,187.1C546.2,182.9 544.5,179.1 538.6,175.7L531,171.4L517.7,194.7L527.2,200.1C529.1,201.2 530.9,201.7 532.5,201.7C536,201.7 537.9,199.3 538.7,197.9C540.5,194.8 539.8,191.8 538.3,190.1ZM533.7,194.5C532.8,196.1 531.2,196.2 529,194.9L525.8,193.1L528.6,188.1L531.5,189.7C534.1,191.2 534.7,192.6 533.7,194.5ZM531.2,183.7L533.9,178.9L536.1,180.2C537.2,180.8 538,181.6 538.3,182.4C538.5,183.1 538.5,183.8 538.2,184.3C537.6,185.3 536.9,185.8 536,185.8C535.3,185.8 534.4,185.5 533.5,185L531.2,183.7Z" fill="rgb(0,86,162)"/>
    <path d="M546,207.6L549.9,203.3L556.1,209L559.6,205.3L553.4,199.6L557.1,195.6L564.1,202L567.6,198.2L556,187.6L537.8,207.3L550,218.5L553.6,214.6L546,207.6Z" fill="rgb(0,86,162)"/>
    <path d="M551.9,219.7L551.7,219.7L555.1,225.4L561.7,224.7L565.7,231.4L561.9,236.8L565.3,242.5L582.8,216.7L551.9,219.7ZM571.3,223.4L568.6,227.5L566.5,223.9L571.3,223.4Z" fill="rgb(0,86,162)"/>
    <path d="M595.5,249.8L593.2,241.1L567.4,248L567.3,248L568.9,254L580.6,250.9L571,261.6L570.9,261.7L572.9,269.3L581.8,258.1C583,260.3 585.1,261.6 587.6,261.7C588.4,261.7 589.3,261.6 590.2,261.4C595.2,260.1 597.1,255.8 595.5,249.8ZM588.7,255.4C588.3,255.5 587.9,255.6 587.5,255.5C586,255.4 584.9,254.4 584.4,252.5L583.7,250L589.9,248.4L590.6,250.9C591.2,253.3 590.5,254.9 588.7,255.4Z" fill="rgb(0,86,162)"/>
    <path d="M540,295.6C545.3,293.8 549.1,288.9 549.1,283.2C549.1,276.1 543.3,270.4 536,270.1L535.3,270.1C534.8,270.1 534.3,270.1 533.7,270.2L533.5,270.2C532.6,270.3 531.8,270.5 531,270.7C527.6,271.4 525.9,272.3 522.2,273.2C516.9,274.5 512,273.8 508.2,272.4C505.6,271.5 502.6,270.2 500.2,268.8C505.2,264.9 509,259.8 510.9,253.4C511.5,251.7 511.9,250 512,248.4C518.6,246.7 523.1,240.5 522.4,233.6C521.6,226 514.8,220.4 507.2,221.1C504,221.4 501.1,222.8 498.9,224.9C497.1,224.3 494,223.5 490,223C488.4,221.4 485,218.5 481.8,219C481.8,219 481.2,219.1 481.7,219.6C481.7,219.6 481.8,219.6 481.8,219.7C482.1,220 482.4,220.2 482.7,220.5C483.2,221 483.6,221.3 483.8,221.6C484,221.8 484,221.9 484,221.9C484.1,222.1 484.1,222.2 484,222.3C483.9,222.4 483.8,222.5 483.7,222.5L483.5,222.5C479.9,220.5 475.9,219.5 472.2,219.9C471.5,220 470.7,220.1 470,220.3C469.4,220.5 469.2,220.8 469.4,221.2C469.6,221.5 472.4,222.4 473.7,223.3C465.1,224.6 458.5,227.7 455.6,229.2C453.1,227.6 450,226.8 446.8,227.1C439.2,227.9 433.6,234.7 434.3,242.3C435,249.2 440.7,254.5 447.4,254.8C447.8,256.3 448.5,257.9 449.5,259.5C451.5,263.4 454.3,266.5 457.5,269.1C455.2,270.4 452.3,271.7 449.8,272.5C446,273.8 441.1,274.6 435.8,273.3C432.2,272.4 430.5,271.5 427,270.8C426.2,270.5 425.4,270.4 424.5,270.3L424.3,270.3C423.8,270.2 423.3,270.2 422.7,270.2L422,270.2C414.7,270.5 408.9,276.3 408.9,283.3C408.9,289 412.7,293.9 418,295.7L418.1,295.7C426.5,299.7 443,300.1 443,300.1C443,300.1 440.8,308.7 438.3,310.6C436.8,311.7 434,311.1 432.1,310.4C431.4,310 430.6,309.7 429.9,309.5L429.8,309.5C428.8,309.2 427.8,309 426.8,308.9L426.6,308.9C425.3,308.8 424,309 422.7,309.4C415,312 411.7,322.7 415.2,333.4C418.3,342.8 425.8,349 432.8,348.6C436.2,348.5 439.2,347.6 441.9,346.3C445,344.8 446.6,344.2 457.8,340.6C464.7,338.4 478.7,338.4 478.8,338.4C479,338.4 493,338.4 499.8,340.6C511,344.2 512.6,344.8 515.7,346.3C518.4,347.6 521.4,348.6 524.8,348.6C531.8,349 539.2,342.8 542.4,333.4C546,322.7 542.6,312 534.9,309.4C533.6,309 532.3,308.8 531,308.9L530.8,308.9C529.8,309 528.8,309.1 527.8,309.5L527.7,309.5C527,309.7 526.2,310.1 525.5,310.4C523.5,311.1 520.8,311.8 519.3,310.6C516.8,308.7 514.6,300.1 514.6,300.1C514.6,300.1 531.6,299.7 540,295.6C540,295.7 540,295.7 540,295.6Z" fill="rgb(237,178,20)"/>
    <path d="M438.2,326C440.3,332.2 438.7,339.7 434,341.3C429.3,342.9 423.3,337.9 421.2,331.7C419.1,325.5 421.1,318.2 425.8,316.6C430.4,315.1 436.1,319.8 438.2,326" fill="rgb(255,230,128)"/>
    <path d="M520.7,326C518.6,332.2 520.2,339.7 524.9,341.3C529.6,342.9 535.6,337.9 537.7,331.7C539.8,325.5 537.8,318.2 533.1,316.6C528.4,315.1 522.8,319.8 520.7,326" fill="rgb(255,230,128)"/>
    <path d="M492.1,252.7C489.1,248.9 484.4,244.1 479.1,244.7C473.8,245.2 470.2,250.8 468,255.1C465.9,259.2 463.5,265.9 467.3,269.8C470.9,273.4 477,273.8 481.9,273.5C486.8,273 492.7,271.3 495.5,267C498.7,262.5 495,256.4 492.1,252.7" fill="rgb(255,230,128)"/>
    <path d="M491.7,287.3C489.9,285.3 488.2,284.5 486,284.8C483.1,285.2 481.4,287.7 481.8,290.4C482.3,293.8 483.4,296.6 493.3,302.5C493.7,302.7 493.9,302.9 494.1,302.9C494.3,302.9 494.4,302.7 494.8,302.3C502.5,293.8 502.8,290.9 502.2,287.3C501.8,284.6 499.4,282.7 496.5,283.2C494.2,283.6 492.8,284.9 491.7,287.3" fill="rgb(238,54,93)"/>
    <path d="M479.5,247.3C474.7,247.8 472.8,248.9 475.1,251.8C476.5,253.5 478.5,254.5 480.1,254.4C481.7,254.2 483.5,252.9 484.6,250.9C486.3,247.6 484.3,246.9 479.5,247.3" fill="rgb(0,86,162)"/>
    <path d="M488.1,263L487.8,263C487.4,263.3 485.8,264.2 484.3,264.5C482.7,264.8 481.5,264.3 481,262.9C480.9,262.8 480.8,262.7 480.7,262.8C480.7,262.8 480.6,262.8 480.5,262.9C479.8,264 479,264.6 478.1,264.7C477.4,264.8 476.7,264.7 476.2,264.5C474.6,264.1 473.4,262.9 472.7,261.2C472.6,261 472.5,261 472.4,261C472.3,261 472.2,261.1 472.2,261.2L472.2,261.3C472.3,263.7 474.8,265.5 477.1,266.2C477.6,266.4 478.1,266.5 478.6,266.5C479.1,266.6 479.6,266.6 480.2,266.6C480.9,266.6 481.6,266.5 482.3,266.4C484.8,265.9 486.7,264.9 488.1,263.2L488.1,263.1C488.2,263.1 488.2,263 488.1,263" fill="rgb(0,86,162)"/>
    <path d="M445.4,234.2C445.3,233.8 444.9,233.5 444.4,233.5C444.3,233.5 444.1,233.6 444,233.6C442,234.6 440.8,236.4 440.5,238.8C440.3,240.6 440.7,242.1 440.7,242.1C440.8,242.3 440.9,242.3 441,242.3C441.1,242.3 441.3,242.2 441.3,242C441.6,239 443.1,236.5 445.3,234.9C445.4,234.9 445.5,234.6 445.4,234.2" fill="rgb(0,86,162)"/>
    <path d="M516.3,231.5C515.6,229.2 514,227.7 511.9,227.1C511.8,227.1 511.6,227 511.5,227.1C511,227.1 510.7,227.6 510.6,228C510.5,228.4 510.7,228.7 510.9,228.8C513.3,229.9 515.2,232.1 516.1,235C516.1,235.1 516.3,235.2 516.4,235.2C516.5,235.2 516.6,235.1 516.7,234.9C516.8,234.7 516.9,233.2 516.3,231.5" fill="rgb(0,86,162)"/>
    <path d="M468,233.1C467.9,233.1 467.7,233.2 467.6,233.2C463.9,234.9 464.6,238.2 464.6,238.3C464.6,238.3 464.6,238.4 464.7,238.4L464.9,238.4C465,238.4 465,238.4 465.1,238.3C466.1,236.2 468.6,234.9 468.7,234.8C469,234.6 469.2,234.3 469.2,233.9C469,233.4 468.6,233.1 468,233.1" fill="rgb(0,86,162)"/>
    <path d="M488,231.2C488.1,231.2 488.3,231.2 488.4,231.3C492.4,232.3 492.3,235.7 492.3,235.7L492.3,235.8C492.3,235.8 492.2,235.9 492.1,235.9C492,235.9 492,235.9 491.9,235.8C490.5,233.9 487.8,233.1 487.7,233.1C487.3,233 487.1,232.7 487.1,232.3C487.1,231.7 487.5,231.2 488,231.2" fill="rgb(0,86,162)"/>
    <path d="M486.9,237.7C488.2,237.7 489.4,239.1 489.6,240.9C489.8,242.8 488.7,244.6 487.2,244.6C485.9,244.6 484.7,243.2 484.5,241.4C484.3,239.2 485.5,237.6 486.9,237.7Z" fill="rgb(255,230,128)"/>
    <path d="M470.5,239.3C471.8,239.3 473,240.7 473.2,242.5C473.4,244.4 472.3,246.2 470.8,246.2C469.5,246.2 468.3,244.8 468.1,243C468,240.8 469.2,239.3 470.5,239.3Z" fill="rgb(255,230,128)"/>
    <path d="M470.8,245.3C469.7,245.3 469,243.8 468.9,242.8L469,242.8C469.2,243 469.4,243.1 469.6,243.2C470.2,243.3 470.8,242.6 470.9,241.8C471,240.8 470.5,240.4 470.4,240.3L470.4,240.2C471.4,240.1 472.3,241.4 472.4,242.7C472.6,244.4 471.6,245.4 470.8,245.3Z" fill="rgb(0,86,162)"/>
    <path d="M487.2,243.7C486.1,243.7 485.4,242.2 485.3,241.2L485.4,241.2C485.6,241.4 485.8,241.5 486,241.6C486.6,241.7 487.2,241 487.3,240.2C487.4,239.2 486.9,238.8 486.8,238.7L486.8,238.6C487.8,238.5 488.7,239.8 488.8,241.1C488.9,242.7 487.9,243.7 487.2,243.7Z" fill="rgb(0,86,162)"/>
    <path d="M597.8,265.9C598.1,267.3 597.2,268.7 595.8,269C594.4,269.3 593,268.4 592.7,267C592.4,265.6 593.3,264.2 594.7,263.9C596.1,263.6 597.5,264.5 597.8,265.9ZM593.3,266.9C593.5,268 594.6,268.7 595.7,268.4C596.8,268.2 597.5,267.1 597.3,266C597.1,264.9 596,264.2 594.9,264.5C593.7,264.7 593,265.8 593.3,266.9ZM594.9,267C595.1,267.3 595.5,267.5 595.8,267.4C596.2,267.3 596.6,267 596.4,266.4L596.2,265.4L593.7,265.9L593.8,266.5L594.6,266.3L594.6,266.4L593.9,267.1L594.1,267.8L594.9,267ZM596,266.4C596,266.5 595.9,266.7 595.8,266.7C595.7,266.7 595.5,266.7 595.4,266.5L595.3,266.1L595.9,266L596,266.4Z" fill="rgb(0,86,162)"/>
  </g>
</svg>