<?xml version="1.0" encoding="UTF-8"?>
<!-- Generator: Adobe Illustrator 25.0.0, SVG Export Plug-In . SVG Version: 6.00 Build 0) -->
<svg version="1.2" baseProfile="tiny-ps" id="Layer_1" xmlns="http://www.w3.org/2000/svg" xmlns:xlink="http://www.w3.org/1999/xlink" viewBox="0 0 841.9 465" xml:space="preserve">
    <title>Your Brand</title>
    <g>
        <rect x="-1.3" width="844.5" height="465" />
    </g>
    <g>
        <g id="XMLID_57_">
            <g>
                <path d="M442.9,262.5c0.1,0.1,0.3,0.2,0.4,0.3L442.9,262.5C442.9,262.5,442.9,262.5,442.9,262.5z" />
            </g>
        </g>
    </g>
    <g>
        <g id="XMLID_53_">
            <g id="XMLID_56_">
                <g>
                    <path fill="#FFFFFF" d="M177.1,255.1h-34.6c-10.2,0-17.5-1.3-20.9-4.9c-3.5-3.6-5.6-10.3-5.6-21.1V89.9H47.8v150.2
					c0,26.1,7,46.4,21.1,61.1c14,14.7,33.7,22,58.8,22c0,0,48.4,0,81.3,0c-2.1-1.6-4.2-3.6-6.1-5.4
					C186.2,302.9,177.8,283.8,177.1,255.1z" />
                </g>
            </g>
            <g id="XMLID_54_">
                <g id="XMLID_55_">
                    <g>
                        <path fill="#FFFFFF" d="M208.9,323.3c-2.1-1.6-4.2-3.6-6.1-5.4c-16.6-15-25-34.1-25.7-62.8h-34.6c-10.2,0-17.5-1.3-20.9-4.9
						c-3.5-3.6-5.6-10.3-5.6-21.1V89.9H47.8v150.2c0,26.1,7,46.4,21.1,61.1c14,14.7,33.7,22,58.8,22
						C127.7,323.3,176.1,323.3,208.9,323.3z" />
                    </g>
                </g>
            </g>
        </g>
    </g>
    <g>
        <g id="XMLID_51_">
            <g id="XMLID_52_">
                <g>
                    <path fill="#FFFFFF" d="M377.8,327H265.6c-24.8,0-43.5-6.2-56.9-17.7c0-0.1,0-0.2,0-0.2c-0.4-0.3-0.8-0.4-1.2-0.8
					c-12.7-11.5-19.1-28-19.7-49.5c0,0-0.1-1.6-0.1-2.9v-91c0-22.2,6-40.1,18.8-52.3c12.8-12.2,30.3-19,53.5-19h114.3
					c-1.8,0-3.6,3.6-5.4,5c-20.9,17.3-35.5,38-43.8,63.2h-49.1c-11.9,0-17.9,3.7-17.9,11.4c0,4.5,1.4,8.5,4.3,10.2
					c2.8,1.8,7.9,3.5,15.1,3.5h41.7c-0.6,3.6-1.1,6.6-1.4,10.3c-1.3,14.1-0.7,25.6,1.7,39.9h-49c-6.1,0-10.5,0.7-13,2.5
					c-2.6,1.8-3.8,4.8-3.8,9.1c0,4.9,1.3,8.9,3.9,10.4c2.6,1.5,7.9,3.1,16,3.1h52.7c5.5,10.8,13.5,26.9,24,39.5
					C358.5,312,367.8,319.8,377.8,327z" />
                </g>
            </g>
        </g>
    </g>
    <g>
        <g id="XMLID_48_">
            <g id="XMLID_50_">
                <g>
                    <path fill="#FFFFFF" d="M567.2,177.2c-3.1-11.3-7.8-21.7-13.9-31.3L567.2,177.2z" />
                </g>
            </g>
            <g id="XMLID_49_">
                <g>
                    <path fill="#FFFFFF" d="M567.2,177.2c-3.1-11.3-7.8-21.7-13.9-31.3l-4.9-7.1c-5.8-7.8-12.7-15-20.6-21.6
					c-9-7.4-18.4-13.4-28.2-17.9c-15.1-6.9-31.3-10.4-48.5-10.4c-4.1,0-8.2,0.2-12.3,0.6c-33.3,3.1-60.8,17.6-82.4,43.7
					c-21.5,25.9-30.7,55.5-27.6,89c3.1,33.5,17.6,61,43.5,82.5c22.6,18.8,48,28.2,76,28.2c1.5,0,2.9-0.1,4.4-0.1
					c-33.7-64.1-52-117-5.2-161.3l-41-9.8l95.2-36l-15.3,93.2l-18.8-33.2c-57,66.8,39.5,133,43.2,130.9c12.5-7.3,23.9-17.1,34-29.3
					c21-25.3,29.8-54.6,26.4-87.9C570.6,191.5,569.2,184.2,567.2,177.2z" />
                </g>
            </g>
        </g>
    </g>
    <g>
        <g id="XMLID_47_">
            <g>
                <path d="M442.9,262.6l0.4,0.3C443.1,262.7,443,262.6,442.9,262.6C442.9,262.5,442.9,262.5,442.9,262.6z" />
            </g>
        </g>
    </g>
    <g>
        <g>
            <g>
                <path fill="#FFFFFF" d="M102.6,365.5c-0.5-0.4-1.1-0.8-1.8-1c-0.7-0.2-1.4-0.4-2.2-0.4c-1.4,0-2.6,0.4-3.6,1.1
				c-1,0.8-1.7,1.8-2.1,3.1l-6.7,23.8l-6.7-23.8c-0.4-1.3-1.1-2.4-2.1-3.1c-1-0.8-2.2-1.1-3.6-1.1c-0.7,0-1.4,0.1-2.1,0.4
				c-0.7,0.2-1.3,0.6-1.8,1c-0.5,0.4-1,1-1.3,1.6c-0.3,0.6-0.5,1.3-0.5,2V398c0,0.9,0.3,1.7,1,2.4c0.7,0.7,1.5,1,2.4,1
				c0.9,0,1.8-0.3,2.4-1c0.7-0.7,1-1.5,1-2.4v-24.6l6.8,24.6c0.3,1,0.8,1.9,1.6,2.5c0.8,0.6,1.7,0.9,2.8,0.9c1.1,0,2.1-0.3,2.9-0.9
				c0.8-0.6,1.3-1.4,1.6-2.5l6.8-24.6V398c0,0.9,0.3,1.7,1,2.4c0.7,0.7,1.5,1,2.4,1c0.9,0,1.7-0.3,2.4-1c0.7-0.7,1-1.5,1-2.4v-28.9
				c0-0.8-0.2-1.4-0.5-2C103.5,366.5,103.1,365.9,102.6,365.5z" />
            </g>
        </g>
    </g>
    <g>
        <g>
            <g>
                <path fill="#FFFFFF" d="M132.4,370.3c0.8,0,1.6-0.3,2.2-0.9c0.6-0.6,0.9-1.3,0.9-2.2c0-0.9-0.3-1.6-0.9-2.2
				c-0.6-0.6-1.3-0.9-2.2-0.9h-20c-0.8,0-1.4,0.1-1.9,0.4c-0.5,0.3-0.9,0.6-1.2,1c-0.3,0.4-0.5,0.8-0.6,1.2
				c-0.1,0.4-0.1,0.8-0.1,1.1v29.8c0,0.7,0.1,1.2,0.3,1.7c0.2,0.5,0.5,0.9,0.9,1.2c0.4,0.3,0.8,0.5,1.2,0.7c0.4,0.1,0.9,0.2,1.3,0.2
				h20c0.8,0,1.6-0.3,2.2-0.9c0.6-0.6,0.9-1.3,0.9-2.2c0-0.8-0.3-1.6-0.9-2.2c-0.6-0.6-1.3-0.9-2.2-0.9h-16.5v-10.6h13.9
				c0.9,0,1.6-0.3,2.2-0.9c0.6-0.6,0.9-1.3,0.9-2.2c0-0.8-0.3-1.6-0.9-2.2c-0.6-0.6-1.3-0.9-2.2-0.9h-13.9v-8.1H132.4z" />
            </g>
        </g>
    </g>
    <g>
        <g>
            <g>
                <path fill="#FFFFFF" d="M165.7,370c-1.2-1.7-2.7-3.2-4.5-4.2c-1.8-1.1-3.8-1.6-6.1-1.6h-12.8c-0.8,0-1.4,0.1-1.9,0.4
				c-0.5,0.3-0.9,0.6-1.2,1c-0.3,0.4-0.5,0.8-0.6,1.2c-0.1,0.4-0.1,0.8-0.1,1.1v29.8c0,0.7,0.1,1.2,0.3,1.7c0.2,0.5,0.5,0.9,0.9,1.2
				c0.4,0.3,0.8,0.5,1.2,0.7c0.4,0.1,0.9,0.2,1.3,0.2h12.8c2.3,0,4.3-0.5,6.1-1.6c1.8-1.1,3.2-2.5,4.5-4.3c1.2-1.8,2.1-3.8,2.8-6
				c0.6-2.2,0.9-4.5,0.9-6.8c0-2.3-0.3-4.5-0.9-6.8C167.9,373.7,167,371.8,165.7,370z M161.8,387.3c-0.3,1.5-0.8,2.8-1.6,4
				c-0.8,1.2-1.8,2.1-3,2.8c-1.2,0.7-2.8,1.1-4.7,1.1h-6.7v-24.8h6.7c1.9,0,3.4,0.4,4.7,1.1c1.2,0.7,2.2,1.7,3,2.8
				c0.8,1.2,1.3,2.5,1.6,4c0.3,1.5,0.5,3,0.5,4.5C162.2,384.3,162.1,385.8,161.8,387.3z" />
            </g>
        </g>
    </g>
    <g>
        <g>
            <g>
                <path fill="#FFFFFF" d="M176.2,364.1c-1,0-1.9,0.3-2.6,1c-0.7,0.7-1,1.5-1,2.5v30.1c0,1,0.3,1.9,1,2.5c0.7,0.7,1.5,1,2.6,1
				c1,0,1.9-0.3,2.6-1c0.7-0.7,1.1-1.5,1.1-2.5v-30.1c0-1-0.4-1.9-1.1-2.5C178,364.5,177.2,364.1,176.2,364.1z" />
            </g>
        </g>
    </g>
    <g>
        <g>
            <g>
                <path fill="#FFFFFF" d="M202.9,368.2c-0.2-0.6-0.5-1.2-0.8-1.8c-0.3-0.6-0.7-1.1-1.1-1.5c-0.4-0.4-0.9-0.8-1.4-1
				c-0.5-0.3-1.1-0.4-1.8-0.4c-0.7,0-1.3,0.1-1.8,0.4c-0.5,0.3-1,0.6-1.4,1c-0.4,0.4-0.8,0.9-1.1,1.5c-0.3,0.6-0.6,1.2-0.8,1.8
				l-9.8,28.2c-0.2,0.5-0.2,0.9-0.2,1.3c0,0.9,0.3,1.8,1,2.5c0.6,0.7,1.5,1.1,2.6,1.1c0.8,0,1.5-0.2,2.1-0.7c0.6-0.4,1.1-1,1.3-1.8
				l2.7-9h11l2.7,9c0.3,0.8,0.7,1.4,1.3,1.8c0.6,0.4,1.3,0.7,2.1,0.7c0.6,0,1.2-0.1,1.6-0.4c0.4-0.2,0.8-0.5,1.1-0.9
				c0.3-0.3,0.5-0.7,0.6-1.2c0.1-0.4,0.2-0.8,0.2-1.2c0-0.4-0.1-0.9-0.2-1.3L202.9,368.2z M193.9,384.4l3.9-13l3.8,13H193.9z" />
            </g>
        </g>
    </g>
    <g>
        <g>
            <g>
                <path fill="#FFFFFF" d="M259.5,395.9c-0.8,0-1.6-0.2-2.5-0.7c-0.9-0.5-1.7-1.1-2.5-2c1.1-1.1,2-2.3,2.9-3.5
				c0.9-1.3,1.6-2.6,2.3-4c0.6-1.4,1.1-2.9,1.4-4.4c0.3-1.5,0.5-3.1,0.5-4.8c0-0.7,0-1.3-0.1-1.8c-0.1-0.5-0.2-1-0.4-1.6h-6.8
				c0.2,0.5,0.3,1,0.4,1.6c0.1,0.6,0.1,1.2,0.1,1.8c0,2.1-0.3,4.1-0.9,6.1c-0.6,2-1.6,3.8-3,5.5c-0.7-1-1.3-1.9-2-2.6
				c-0.7-0.8-1.4-1.4-2.1-2.1c-0.7-0.6-1.4-1.1-2.2-1.6c-0.7-0.5-1.5-0.9-2.3-1.3c2-0.9,3.6-2,4.7-3.3c1.1-1.4,1.7-3,1.7-4.8
				c0-1.2-0.3-2.2-0.8-3.2c-0.5-1-1.2-1.8-2.1-2.5c-0.9-0.7-2-1.2-3.3-1.6c-1.3-0.4-2.7-0.6-4.2-0.6c-1.6,0-3.1,0.2-4.4,0.6
				c-1.3,0.4-2.5,0.9-3.5,1.6c-1,0.7-1.7,1.6-2.3,2.6c-0.5,1-0.8,2.2-0.8,3.5c0,0.8,0.1,1.6,0.4,2.3c0.3,0.7,0.6,1.4,1,2.1
				c0.4,0.6,0.9,1.2,1.4,1.7c0.5,0.5,1.1,1,1.6,1.4c-1.1,0.4-2.1,0.9-3.2,1.5c-1,0.6-2,1.3-2.8,2.2c-0.8,0.8-1.5,1.8-2,2.9
				s-0.8,2.4-0.8,3.8c0,1.8,0.3,3.4,1,4.8c0.7,1.4,1.6,2.5,2.8,3.5c1.2,0.9,2.6,1.6,4.3,2.1c1.7,0.5,3.5,0.7,5.5,0.7
				c1.5,0,2.9-0.1,4.3-0.4c1.3-0.3,2.5-0.6,3.6-1.1c1.1-0.4,2.1-0.9,3-1.4c0.9-0.5,1.6-1.1,2.2-1.6c0.6,0.6,1.2,1.2,1.8,1.7
				c0.6,0.5,1.3,1,2,1.4c0.7,0.4,1.5,0.7,2.3,1c0.8,0.2,1.6,0.4,2.5,0.4c1.1,0,2.1-0.1,3-0.3c0.9-0.2,1.8-0.4,2.7-0.8v-6
				c-0.6,0.3-1.4,0.6-2.2,0.7C261.1,395.8,260.3,395.9,259.5,395.9z M234.8,371.9c0.2-0.4,0.4-0.7,0.8-1c0.3-0.3,0.7-0.5,1.2-0.7
				c0.5-0.2,1-0.3,1.5-0.3c0.5,0,0.9,0.1,1.3,0.2c0.4,0.1,0.8,0.3,1.1,0.6c0.3,0.3,0.6,0.6,0.8,1c0.2,0.4,0.3,0.8,0.3,1.3
				c0,0.6-0.1,1.2-0.3,1.7c-0.2,0.5-0.5,0.9-0.9,1.3c-0.4,0.4-0.8,0.7-1.3,1c-0.5,0.3-1,0.5-1.6,0.7c-0.9-0.5-1.6-1.1-2.2-1.9
				c-0.6-0.8-0.9-1.7-0.9-2.6C234.5,372.8,234.6,372.3,234.8,371.9z M244.5,393.8c-0.7,0.4-1.4,0.8-2.2,1.1
				c-0.8,0.3-1.6,0.6-2.5,0.8c-0.9,0.2-1.8,0.3-2.8,0.3c-0.9,0-1.7-0.1-2.4-0.4c-0.7-0.3-1.4-0.6-1.9-1.1c-0.5-0.5-0.9-1-1.2-1.7
				c-0.3-0.7-0.4-1.4-0.4-2.2c0-0.9,0.1-1.7,0.4-2.4c0.3-0.7,0.7-1.3,1.2-1.9c0.5-0.5,1-1,1.7-1.4c0.6-0.4,1.3-0.8,2-1.1
				c0.8,0.4,1.6,0.8,2.5,1.2c0.8,0.5,1.6,1,2.5,1.7c0.8,0.7,1.7,1.5,2.5,2.4c0.8,0.9,1.7,2.1,2.5,3.4
				C245.7,392.9,245.1,393.4,244.5,393.8z" />
            </g>
        </g>
    </g>
    <g>
        <g>
            <g>
                <path fill="#FFFFFF" d="M278.4,364.1c-1,0-1.9,0.3-2.6,1c-0.7,0.7-1,1.5-1,2.5v30.1c0,1,0.3,1.9,1,2.5c0.7,0.7,1.5,1,2.6,1
				c1,0,1.9-0.3,2.6-1c0.7-0.7,1.1-1.5,1.1-2.5v-30.1c0-1-0.4-1.9-1.1-2.5C280.3,364.5,279.4,364.1,278.4,364.1z" />
            </g>
        </g>
    </g>
    <g>
        <g>
            <g>
                <path fill="#FFFFFF" d="M312.8,364.1c-0.9,0-1.7,0.3-2.4,1c-0.7,0.7-1,1.5-1,2.4v23.2l-14-23.4c-0.6-1-1.3-1.8-2.1-2.3
				c-0.8-0.6-1.8-0.8-2.9-0.8c-1.1,0-2.1,0.4-2.9,1.2c-0.8,0.8-1.2,1.7-1.2,2.8V398c0,0.9,0.3,1.7,1,2.4c0.7,0.7,1.5,1,2.4,1
				c0.9,0,1.8-0.3,2.4-1c0.7-0.7,1-1.5,1-2.4v-23.2l14,23.4c0.6,1,1.3,1.7,2.1,2.3c0.8,0.6,1.8,0.8,2.9,0.8c0.6,0,1.1-0.1,1.6-0.3
				c0.5-0.2,0.9-0.5,1.3-0.9c0.4-0.4,0.7-0.8,0.9-1.3c0.2-0.5,0.3-1,0.3-1.6v-29.8c0-0.9-0.3-1.7-1-2.4
				C314.5,364.5,313.7,364.1,312.8,364.1z" />
            </g>
        </g>
    </g>
    <g>
        <g>
            <g>
                <path fill="#FFFFFF" d="M345.7,364.1h-23.6c-0.9,0-1.6,0.3-2.2,0.9c-0.6,0.6-0.9,1.3-0.9,2.2c0,0.9,0.3,1.6,0.9,2.2
				c0.6,0.6,1.3,0.9,2.2,0.9h8.2v27.5c0,1,0.3,1.9,1,2.5c0.7,0.7,1.5,1,2.5,1c1,0,1.9-0.3,2.5-1c0.7-0.7,1-1.5,1-2.5v-27.5h8.2
				c0.8,0,1.6-0.3,2.2-0.9c0.6-0.6,0.9-1.3,0.9-2.2c0-0.9-0.3-1.6-0.9-2.2C347.3,364.4,346.6,364.1,345.7,364.1z" />
            </g>
        </g>
    </g>
    <g>
        <g>
            <g>
                <path fill="#FFFFFF" d="M375.4,370.3c0.8,0,1.6-0.3,2.2-0.9c0.6-0.6,0.9-1.3,0.9-2.2c0-0.9-0.3-1.6-0.9-2.2
				c-0.6-0.6-1.3-0.9-2.2-0.9h-20c-0.8,0-1.4,0.1-1.9,0.4c-0.5,0.3-0.9,0.6-1.2,1c-0.3,0.4-0.5,0.8-0.6,1.2
				c-0.1,0.4-0.1,0.8-0.1,1.1v29.8c0,0.7,0.1,1.2,0.3,1.7c0.2,0.5,0.5,0.9,0.9,1.2c0.4,0.3,0.8,0.5,1.2,0.7c0.4,0.1,0.9,0.2,1.3,0.2
				h20c0.8,0,1.6-0.3,2.2-0.9c0.6-0.6,0.9-1.3,0.9-2.2c0-0.8-0.3-1.6-0.9-2.2c-0.6-0.6-1.3-0.9-2.2-0.9h-16.5v-10.6h13.9
				c0.9,0,1.6-0.3,2.2-0.9c0.6-0.6,0.9-1.3,0.9-2.2c0-0.8-0.3-1.6-0.9-2.2c-0.6-0.6-1.3-0.9-2.2-0.9h-13.9v-8.1H375.4z" />
            </g>
        </g>
    </g>
    <g>
        <g>
            <g>
                <path fill="#FFFFFF" d="M404.2,382.8c2.1-0.7,3.6-1.8,4.7-3.4c1.1-1.6,1.6-3.4,1.6-5.6c0-1.4-0.3-2.6-0.8-3.8
				c-0.5-1.2-1.2-2.2-2.1-3.1c-0.9-0.9-1.9-1.6-3.1-2.1c-1.2-0.5-2.5-0.8-3.8-0.8h-15.3c-0.8,0-1.4,0.1-1.9,0.4
				c-0.5,0.3-0.9,0.6-1.2,1c-0.3,0.4-0.5,0.8-0.6,1.2c-0.1,0.4-0.1,0.8-0.1,1.1v30c0,1,0.3,1.9,1,2.5c0.7,0.7,1.5,1,2.5,1
				c1,0,1.9-0.3,2.6-1c0.7-0.7,1.1-1.5,1.1-2.5v-11.6h6.8c1.1,0,2.1,0.1,2.9,0.3c0.8,0.2,1.4,0.5,1.9,0.9c0.5,0.4,0.9,0.7,1.1,1.2
				c0.2,0.4,0.4,0.8,0.4,1.2l1,8.7c0.1,0.9,0.5,1.6,1.1,2.1c0.7,0.5,1.4,0.8,2.4,0.8c0.4,0,0.9-0.1,1.3-0.2c0.5-0.1,0.9-0.4,1.2-0.6
				c0.4-0.3,0.6-0.6,0.8-1c0.2-0.4,0.3-0.9,0.2-1.4l-1.1-9.9c-0.1-0.6-0.3-1.2-0.6-1.7c-0.3-0.5-0.7-1-1.1-1.4
				c-0.4-0.4-0.9-0.7-1.5-1c-0.6-0.3-1.1-0.4-1.7-0.5c-0.4-0.1-0.6-0.2-0.6-0.4C403.6,383.1,403.8,383,404.2,382.8z M402.8,377.5
				c-0.3,0.6-0.6,1.2-1.1,1.7c-0.5,0.5-1,0.8-1.7,1.1c-0.6,0.3-1.3,0.4-2,0.4h-9.3v-10.3h9.3c0.7,0,1.4,0.1,2,0.4
				c0.6,0.3,1.2,0.6,1.7,1.1c0.5,0.5,0.8,1,1.1,1.7c0.3,0.6,0.4,1.3,0.4,2C403.2,376.2,403.1,376.9,402.8,377.5z" />
            </g>
        </g>
    </g>
    <g>
        <g>
            <g>
                <path fill="#FFFFFF" d="M432.1,368.2c-0.2-0.6-0.5-1.2-0.8-1.8c-0.3-0.6-0.7-1.1-1.1-1.5c-0.4-0.4-0.9-0.8-1.4-1
				c-0.5-0.3-1.1-0.4-1.8-0.4c-0.7,0-1.3,0.1-1.8,0.4c-0.5,0.3-1,0.6-1.4,1c-0.4,0.4-0.8,0.9-1.1,1.5c-0.3,0.6-0.6,1.2-0.8,1.8
				l-9.8,28.2c-0.2,0.5-0.2,0.9-0.2,1.3c0,0.9,0.3,1.8,1,2.5c0.6,0.7,1.5,1.1,2.6,1.1c0.8,0,1.5-0.2,2.1-0.7c0.6-0.4,1.1-1,1.3-1.8
				l2.7-9h11l2.7,9c0.3,0.8,0.7,1.4,1.3,1.8c0.6,0.4,1.3,0.7,2.1,0.7c0.6,0,1.2-0.1,1.6-0.4c0.4-0.2,0.8-0.5,1.1-0.9
				c0.3-0.3,0.5-0.7,0.6-1.2c0.1-0.4,0.2-0.8,0.2-1.2c0-0.4-0.1-0.9-0.2-1.3L432.1,368.2z M423,384.4l3.9-13l3.8,13H423z" />
            </g>
        </g>
    </g>
    <g>
        <g>
            <g>
                <path fill="#FFFFFF" d="M451.8,373.9c0.8-1.2,1.9-2.2,3.1-3c1.2-0.8,2.6-1.2,4.2-1.2c1.4,0,2.5,0.2,3.5,0.6
				c0.9,0.4,1.7,0.9,2.3,1.5c0.6,0.6,1.1,1.2,1.5,1.9c0.4,0.7,0.7,1.3,0.9,1.8c0.2,0.4,0.5,0.8,0.9,1c0.4,0.2,0.8,0.3,1.3,0.3
				c0.4,0,0.9-0.1,1.3-0.3c0.5-0.2,0.9-0.4,1.3-0.8c0.4-0.3,0.7-0.7,0.9-1.1c0.2-0.4,0.4-0.9,0.4-1.4c0-0.7-0.3-1.5-0.9-2.6
				c-0.6-1.1-1.5-2.2-2.7-3.2c-1.2-1-2.7-1.9-4.4-2.7c-1.8-0.8-3.8-1.2-6.2-1.2c-2.8,0-5.3,0.5-7.4,1.6c-2.1,1.1-3.9,2.5-5.3,4.3
				c-1.4,1.8-2.5,3.8-3.2,6.2c-0.7,2.3-1.1,4.7-1.1,7.2c0,2.5,0.4,4.9,1.1,7.2c0.7,2.3,1.8,4.4,3.2,6.1c1.4,1.8,3.2,3.2,5.3,4.3
				c2.1,1.1,4.6,1.6,7.4,1.6c2.4,0,4.4-0.4,6.2-1.1c1.8-0.8,3.2-1.7,4.4-2.7c1.2-1,2.1-2.1,2.7-3.2c0.6-1.1,0.9-2,0.9-2.7
				c0-0.5-0.1-1-0.4-1.4c-0.2-0.4-0.5-0.8-0.9-1.1c-0.4-0.3-0.8-0.6-1.3-0.8c-0.5-0.2-0.9-0.3-1.3-0.3c-0.4,0-0.8,0.1-1.2,0.3
				c-0.4,0.2-0.7,0.6-0.9,1c-0.3,0.5-0.6,1.1-0.9,1.8c-0.4,0.7-0.8,1.3-1.5,1.9c-0.6,0.6-1.4,1.1-2.3,1.5c-0.9,0.4-2.1,0.6-3.5,0.6
				c-1.6,0-3-0.4-4.2-1.2c-1.2-0.8-2.2-1.8-3.1-3c-0.8-1.2-1.5-2.6-1.9-4.2c-0.4-1.6-0.6-3.1-0.6-4.7c0-1.6,0.2-3.1,0.6-4.7
				C450.4,376.5,451,375.1,451.8,373.9z" />
            </g>
        </g>
    </g>
    <g>
        <g>
            <g>
                <path fill="#FFFFFF" d="M499.5,364.1h-23.6c-0.8,0-1.6,0.3-2.2,0.9c-0.6,0.6-0.9,1.3-0.9,2.2c0,0.9,0.3,1.6,0.9,2.2
				c0.6,0.6,1.3,0.9,2.2,0.9h8.2v27.5c0,1,0.3,1.9,1,2.5c0.7,0.7,1.5,1,2.5,1c1,0,1.9-0.3,2.5-1c0.7-0.7,1-1.5,1-2.5v-27.5h8.2
				c0.8,0,1.6-0.3,2.2-0.9c0.6-0.6,0.9-1.3,0.9-2.2c0-0.9-0.3-1.6-0.9-2.2C501.1,364.4,500.4,364.1,499.5,364.1z" />
            </g>
        </g>
    </g>
    <g>
        <g>
            <g>
                <path fill="#FFFFFF" d="M509,364.1c-1,0-1.9,0.3-2.5,1c-0.7,0.7-1,1.5-1,2.5v30.1c0,1,0.3,1.9,1,2.5c0.7,0.7,1.5,1,2.5,1
				c1,0,1.9-0.3,2.6-1c0.7-0.7,1.1-1.5,1.1-2.5v-30.1c0-1-0.4-1.9-1.1-2.5C510.9,364.5,510,364.1,509,364.1z" />
            </g>
        </g>
    </g>
    <g>
        <g>
            <g>
                <path fill="#FFFFFF" d="M543.5,365.3c-0.3-0.3-0.7-0.6-1.2-0.8c-0.5-0.2-1-0.3-1.6-0.3c-0.7,0-1.4,0.2-2,0.5
				c-0.6,0.3-1,0.9-1.2,1.6l-7.6,24.6l-7.6-24.6c-0.2-0.7-0.6-1.2-1.2-1.6c-0.6-0.3-1.2-0.5-2-0.5c-0.7,0-1.2,0.1-1.7,0.3
				c-0.5,0.2-0.9,0.5-1.2,0.8c-0.3,0.3-0.6,0.7-0.7,1.2c-0.2,0.4-0.2,0.8-0.2,1.2c0,0.4,0.1,0.7,0.2,1l10.8,30.1
				c0.3,0.8,0.7,1.5,1.4,1.9c0.6,0.5,1.4,0.7,2.2,0.7c0.9,0,1.6-0.2,2.2-0.7c0.6-0.5,1.1-1.1,1.3-1.9l10.8-30.1
				c0.1-0.3,0.2-0.6,0.2-1c0-0.4-0.1-0.8-0.3-1.3C544.1,366,543.8,365.6,543.5,365.3z" />
            </g>
        </g>
    </g>
    <g>
        <g>
            <g>
                <path fill="#FFFFFF" d="M571,395.2h-16.5v-10.6h13.9c0.9,0,1.6-0.3,2.2-0.9c0.6-0.6,0.9-1.3,0.9-2.2c0-0.8-0.3-1.6-0.9-2.2
				c-0.6-0.6-1.3-0.9-2.2-0.9h-13.9v-8.1H571c0.8,0,1.6-0.3,2.2-0.9c0.6-0.6,0.9-1.3,0.9-2.2c0-0.9-0.3-1.6-0.9-2.2
				c-0.6-0.6-1.3-0.9-2.2-0.9h-20c-0.8,0-1.4,0.1-1.9,0.4c-0.5,0.3-0.9,0.6-1.2,1c-0.3,0.4-0.5,0.8-0.6,1.2
				c-0.1,0.4-0.1,0.8-0.1,1.1v29.8c0,0.7,0.1,1.2,0.3,1.7c0.2,0.5,0.5,0.9,0.9,1.2c0.4,0.3,0.8,0.5,1.2,0.7c0.4,0.1,0.9,0.2,1.3,0.2
				h20c0.8,0,1.6-0.3,2.2-0.9c0.6-0.6,0.9-1.3,0.9-2.2c0-0.8-0.3-1.6-0.9-2.2C572.6,395.5,571.9,395.2,571,395.2z" />
            </g>
        </g>
    </g>
    <g>
        <g>
            <g>
                <path fill="#FFFFFF" d="M599.2,306l0-0.3l4.4-0.6l31.5-4.4l48.4-6.8c9.1-12,13.6-25,13.6-42c0-15.4-4.8-27.8-14.2-44.3l-5.2-9.1
				c-4.1-7.1-5.8-13-5.8-17.6c0-13,7.3-24.2,18.9-24.2c2.7,0,57.8,0.1,57.8,0.1l-0.1-67.1c0,0-65.1,0.1-74.5,0.1
				c-21.6,0-46,7.9-55.6,19.6c-14,17.1-23.2,31.3-23.2,53.1c0,18.1,5.2,36.3,15.4,54.3c6.4,11.4,9.7,18.8,9.7,22.2c0,5.2-2,9.5-6,13
				c-4,3.5-9,5.2-15,5.2c-2.4,0-14.9,0-27.2,0.1c-2,5.2-4.4,10.4-7.1,15.5c-11.3,21.2-26.4,38.1-45,50.5c18,0,45.2,0,66.2-0.1l0.7-1
				L599.2,306z" />
            </g>
        </g>
    </g>
    <g>
        <g id="XMLID_14_">
            <g>
                <polygon fill="#FFFFFF" points="609.6,330.8 607.8,316.9 607.8,316.9 			" />
            </g>
        </g>
    </g>
    <g>
        <g>
            <g>
                <path fill="#FFFFFF" d="M607.3,312.5L607.3,312.5l0.5,4.4l1.7,12.9c0,0,0.1,0,0.1,0l-1.7-12.9L607.3,312.5z" />
            </g>
        </g>
    </g>
    <g>
        <path fill="#FFFFFF" d="M625.1,353.3c-4.3,0.6-8.3,7.7-6.9,17.9c0.5,3.5,2.1,5.1,4.5,4.7c4.5-0.6,6.5-10.6,6.8-17.1l0.2-3.1
		C629,354.6,627.5,353,625.1,353.3z" />
    </g>
    <g>
        <path fill="#FFFFFF" d="M690.1,352.3c-0.3-2.2,0.6-4,2.6-4.8c-0.8-3.1-2.5-4.6-4.8-4.3c-3.2,0.4-6,4.1-6.5,13.8
		c-0.1,1.7,0.1,5,0.3,6.6c0.6,4,2.4,6,5.1,5.6c3.4-0.5,5.8-4.5,6.3-12.3C691.4,356,690.4,354.4,690.1,352.3z" />
    </g>
    <g>
        <path fill="#FFFFFF" d="M620.7,390.4c-2.1,2.8-3.1,5.1-2.8,7.3c0.2,1.6,1.3,2.7,3.3,2.4c4.4-0.6,7.1-6.4,7.6-16.8
		C625,386,622.3,388.3,620.7,390.4z" />
    </g>
    <g>
        <path fill="#FFFFFF" d="M761,342.4c-0.3-2.1,0.6-4,2.6-4.8c-0.7-2.1-1.9-2.9-3.5-2.7c-1.9,0.3-3.5,2.1-5.2,5.8
		c-1.4,3.1-2.6,7.1-3,13l-0.1,2.5c1,1.2,2.7,2.4,5.2,2c3.5-0.5,6.3-5,7.1-11.3C762.3,346.1,761.3,344.5,761,342.4z" />
    </g>
    <g>
        <path fill="#FFFFFF" d="M783,287.4l-11.7,1.5l-79.7,10.5l-48.5,6.4l-31.5,4.2l-4.3,0.6l-0.1-0.5l-12.5,17.2l-0.8,1l-2.3,3.1
		l-0.4,0.6l-0.1,0l3.3,25.2l9,68.2l183.2-24.1l11.1-1.5L783,287.4z M666.2,354.4c-1.7,0.2-2.9,0-2.9,0s0.6-1.6,0.4-3.3
		c-0.1-0.9-0.6-1.3-1.5-1.2c-1,0.1-2.3,1.2-4,4.4c-1.9,3.7-3.5,7.9-3.8,17.1c-0.1,3.8,0.7,5.1,0.7,5.1s-0.9,0.7-3.2,1
		c-4.9,0.7-5.7-1.1-5.6-5.6l0-1.1c-0.1,0-0.1,0.1-0.1,0.1c-2.1,2.1-5.8,4.9-9.3,7.2l0,0.8c-0.4,15-5.2,24-14.5,25.4
		c-4.3,0.6-7.5-1.7-8-5.7c-0.5-3.7,1.2-7.5,4-10.6c2.7-3.2,5.8-5.5,10.6-8.8l0.1-4.6c-2,4.3-4.9,6.8-8.2,7.2
		c-5.2,0.7-9.8-2.2-10.8-9.6c-2-14.1,5.3-21.9,12.7-23c3.2-0.5,5.6,0.5,7.3,2.1c0.7-2.4,2.2-3.5,5.3-3.9c2.1-0.3,3.2,0.2,3.2,0.2
		s-0.7,1.3-0.8,4.8l-0.7,21.7c0,0,6-3.4,9.4-7L647,352c0.1-4.1-0.7-5.5-0.7-5.5s0.9-0.7,3.2-1c4.9-0.7,5.7,1.3,5.6,5.6L655,354
		c3.1-7.4,7-10.2,9.9-10.6c3.1-0.4,5.3,1,5.8,4.2C671.1,351.1,669.3,354,666.2,354.4z M772.1,347.7c-1.4,8.3-6.5,13.8-12.7,14.7
		c-3,0.4-5.8-0.4-7.8-2.1L751,380c-0.1,4.1,0.7,5.5,0.7,5.5s-0.9,0.7-3.2,1c-4.9,0.7-5.7-1.1-5.6-5.6l0.7-21.2
		c-1.7,2.8-4.5,5.5-8.3,6.1c-4.4,0.6-7.8-1.8-8.5-6.9c-0.1-0.6-0.2-1.3-0.2-2.2c-0.6,1.9-1.4,3.6-2.2,5.1c-2.2,4-4.7,6.1-8.2,6.6
		c-4.2,0.6-7.3-2-7.9-6.4c-0.3-2.3-0.4-4.5-0.3-7.9l0-0.4c-1.5,1.6-3.8,3.1-6.4,3.8c-1.1,7.8-6.2,13.8-14.8,15
		c-6.7,0.9-12.2-2.6-13.4-10.5c-1.6-11.5,4-20.5,14.8-22c7.4-1,12.3,3.2,13.4,10.5c0.2,1.4,0.2,2.8,0.2,4c3.3-1,5.4-3.5,6.4-5
		l0.2-6.2c0.1-4.1-0.7-5.5-0.7-5.5s0.9-0.7,3.2-1c4.9-0.7,5.7,1.1,5.6,5.6l-0.5,15c-0.1,3.7,1,5.2,2.8,5c1.4-0.2,2.8-2.1,4.1-4.9
		c2.1-4.5,3.9-11.7,4.1-17.4c0.1-3.6-0.7-4.8-0.7-4.8s0.9-0.7,3.2-1c4.9-0.7,5.7,1.1,5.6,5.6l-0.5,14.7c-0.1,3.9,1.2,5.5,3.5,5.2
		c2.1-0.3,4.6-2.7,5.8-6.2l0.5-15.2c0.1-4.1-0.7-5.4-0.7-5.4s0.9-0.7,3.2-1c4.9-0.7,5.7,1,5.6,5.6l0,1.2c2-5.2,5.2-8.3,9.2-8.9
		c5.9-0.8,9.7,2.9,10.6,9.5c0.3,1.9,0.3,3.7,0.2,5.4c4.8-1.3,7.2-6,7.2-6c0.8-0.1,1.3,0.4,1.4,1.4
		C780.8,342.3,777.2,346.5,772.1,347.7z" />
    </g>
</svg>
