<?xml version="1.0" encoding="UTF-8"?>
<svg width="170.01mm" height="33mm" version="1.2" baseProfile="tiny-ps" viewBox="0 0 170.01 33" xmlns="http://www.w3.org/2000/svg"><title>FLEXBOX CLOUD SL</title><g transform="translate(-13.157 -79.514)"><g><g><g transform="matrix(.90904 0 0 .90904 -9.5295 179.09)" fill="#008cea" font-family="sans-serif" font-size="23.617px" stroke-width=".59042"><path d="m110.69-84.737h-3.2159l-2.7858-4.6369-2.7485 4.6369h-3.2159l4.4686-6.8244-4.1881-6.4879h3.1972l2.4867 4.3003 2.5241-4.3003h3.1785l-4.1881 6.4879zm36.987 0h-3.2159l-2.7858-4.6369-2.7485 4.6369h-3.2159l4.4686-6.8244-4.1881-6.4879h3.1972l2.4867 4.3003 2.5241-4.3003h3.1785l-4.1881 6.4879zm-12.928-7.2731v1.0096q0 3.3468-1.2714 4.8612-1.2527 1.5145-4.0386 1.5145-2.7859 0-4.0386-1.5145-1.234-1.5145-1.234-4.9173v-0.97224q0-3.1037 1.2527-4.6182 1.2714-1.5145 4.0012-1.5145 2.7485 0 4.0386 1.5332t1.2901 4.6182zm-2.5989 0.95355v-0.69179q0-1.7949-0.44873-2.8606-0.52351-1.234-2.2436-1.234-1.7388 0-2.2623 1.234-0.43004 1.0096-0.43004 2.8606v0.69179q0 2.4119 0.6731 3.2533 0.26175 0.35524 0.76657 0.617 0.52352 0.24306 1.234 0.24306 0.72918 0 1.234-0.24306t0.78527-0.5983q0.28046-0.35524 0.43003-0.93485 0.26176-0.91615 0.26176-2.3371zm-9.8977 2.4867q0 1.851-1.0096 2.8419-0.99094 0.99094-2.7858 0.99094h-1.7949q-2.2062 0-3.1411-0.76658-0.91616-0.76658-0.91616-2.655v-9.8907h5.6278q1.9071 0 2.8606 0.95355 0.97225 0.95355 0.97225 2.6924 0 1.0096-0.52352 1.7201-0.50482 0.71049-1.1218 1.0096 1.8323 0.86006 1.8323 3.1037zm-4.2255-4.2816q1.4397 0 1.4397-1.4397t-1.4397-1.4397h-2.8232v2.8793zm1.6266 4.1507q0-0.89746-0.31785-1.3462-0.31784-0.46742-1.1405-0.46742h-2.9915v2.0941q0 0.76658 0.37394 1.0657 0.39263 0.29915 1.2714 0.29915h1.3462q1.4584 0 1.4584-1.6453zm-22.843 3.9638h-4.7116q-2.2436 0-3.1598-0.76658-0.89746-0.78527-0.89746-2.7485v-9.7972h8.7689v2.3184h-6.17v3.1224h4.319l-0.18697 2.3184h-4.132v1.851q0 0.78527 0.35524 1.0844t1.2901 0.29915h4.5247zm-10.683 0h-3.9638q-2.2436 0-3.2533-0.86006-0.99094-0.87876-0.99094-2.8419v-9.6103h2.5989v9.6103q0 0.78527 0.35524 1.0844t1.2901 0.29915h3.9638zm-10.122-10.994h-4.6929q-0.82267 0-1.1592 0.31785-0.31785 0.31785-0.31785 1.1031v1.851h4.8799l-0.18697 2.3184h-4.6929v5.4034h-2.5989v-10.601q0-1.4771 0.6357-2.0941 0.6544-0.617 2.2249-0.617h5.9083zm135.96 4.287 0.0187 1.4397q-0.0748 1.3649-0.33654 2.2997-0.26176 0.93485-1.0283 1.7014-1.2714 1.2714-3.702 1.2714-2.8606 0-3.9264-0.74788-1.0657-0.76658-1.0657-2.7485v-9.8159h5.1791q2.2436 0 3.515 1.2714 1.0283 1.0283 1.2153 2.5054 0.13088 1.047 0.13088 2.8232zm-3.1598 3.5711q0.35525-0.43003 0.44873-1.1779 0.11218-0.76657 0.11218-2.3745 0-1.6079-0.11218-2.3184-0.0935-0.72919-0.44873-1.1592-0.67309-0.82267-1.9445-0.82267h-2.3371v7.3666q0 0.74788 0.50482 1.0283 0.50482 0.28045 1.7949 0.28045 1.3088 0 1.9819-0.82267zm-9.4065-10.227v8.7502q0 2.1689-1.4771 3.4216-1.4584 1.2527-3.6085 1.2527-2.1502 0-3.6272-1.2527-1.4584-1.2527-1.4584-3.4216v-8.7502h2.5989v8.6567q0 1.234 0.67309 1.851 0.69179 0.59831 1.8136 0.59831t1.8136-0.59831q0.69179-0.617 0.69179-1.851v-8.6567zm-12.175 6.0952v1.0096q0 3.3468-1.2714 4.8612-1.2527 1.5144-4.0386 1.5144t-4.0386-1.5144q-1.234-1.5145-1.234-4.9173v-0.97224q0-3.1037 1.2527-4.6182 1.2714-1.5145 4.0012-1.5145 2.7485 0 4.0386 1.5332 1.2901 1.5332 1.2901 4.6182zm-2.5989 0.95354v-0.69179q0-1.7949-0.44872-2.8606-0.52352-1.234-2.2436-1.234-1.7388 0-2.2623 1.234-0.43003 1.0096-0.43003 2.8606v0.69179q0 2.4119 0.67309 3.2533 0.26176 0.35525 0.76658 0.617 0.52351 0.24306 1.234 0.24306 0.72918 0 1.234-0.24306t0.78528-0.5983q0.28045-0.35524 0.43003-0.93485 0.26175-0.91615 0.26175-2.3371zm-9.9878 6.3196h-3.9638q-2.2436 0-3.2533-0.86006-0.99094-0.87876-0.99094-2.842v-9.6102h2.5989v9.6102q0 0.78528 0.35524 1.0844t1.2901 0.29915h3.9638zm-12.624-5.1604h2.4119q0 2.5428-1.2714 3.9077t-3.5898 1.3649q-5.1043 0-5.1043-6.0017v-1.1218q0-4.7303 2.6176-5.9269 1.0283-0.48613 2.4867-0.48613 2.1314 0 3.4589 1.1779 1.3462 1.1592 1.3462 3.3655h-2.4306q-0.20566-1.1031-0.72918-1.664-0.52351-0.56091-1.6453-0.56091-1.3088 0-1.9445 0.82267-0.44873 0.57961-0.52352 1.9819-0.0374 0.44873-0.0374 1.2153v1.1592q0 2.1502 0.5983 2.9354 0.617 0.78527 1.9071 0.78527 1.3088 0 1.7949-0.71048 0.50482-0.72918 0.65439-2.2436z"/></g></g></g><g transform="matrix(.076237 0 0 .076237 -191.73 90.32)"><g transform="matrix(.8011 0 0 .8011 764.67 1020)" fill="#008cea"><g transform="matrix(4.9466 0 0 4.9466 3340.7 -7007.4)" fill="#008cea"><g fill="#008cea" stroke-width="3.1548"><path d="m-91.755 1153.5-10.506 5.9943a13.156 13.156 0 0 1 0.61835 3.5523v30.271a12.651 12.651 0 0 1-6.1772 10.808l-26.406 15.134a16.437 16.437 0 0 1-3.8615 1.3913v12.045a15.206 15.206 0 0 0 5.2497-1.8519l34.284-19.614a15.49 15.49 0 0 0 7.7199-13.436v-39.196a14.828 14.828 0 0 0-0.92752-5.0951z"/><path d="m-172.99 1152.4 26.255-15.134a12.872 12.872 0 0 1 12.509 0l26.406 15.134c1.3408 0.7761 2.4986 1.8298 3.3978 3.0917l10.499-5.9942a12.872 12.872 0 0 0-4.6313-4.0161l-34.287-19.954a15.364 15.364 0 0 0-15.443 0l-33.975 19.737a14.954 14.954 0 0 0-4.6313 4.1707l10.506 5.9942a9.4014 9.4014 0 0 1 3.3978-3.0886z"/><path d="m-146.73 1219.3-26.255-15.134c-3.8615-2.221-6.2245-6.3538-6.1772-10.808v-30.271a12.02 12.02 0 0 1 0.46376-3.3978l-10.499-6.0195c-0.60573 1.5775-0.94646 3.2495-0.92753 4.9405v39.382a14.986 14.986 0 0 0 7.7199 13.25l34.129 19.614a15.206 15.206 0 0 0 5.2497 1.8519v-12.014a9.1175 9.1175 0 0 1-3.707-1.3913z"/></g></g><g stroke-width="8.8338"><path transform="translate(9.8367e-7 -7.8763)" d="m2657.2-1137.3v89.08a32.685 32.685 0 0 0 10.813-3.8867l73.939-42.376c10.812-6.2189 17.429-17.791 17.296-30.264v-84.23a25.353 25.353 0 0 0-1.7314-9.9467l-79.99 46.165c-16.784 11.678-20.318 22.482-20.318 35.458z" fill="#ffc100"/><path transform="translate(9.8367e-7 -7.8763)" d="m2645.8-1175.3c5.1236-7.8973 12.102-14.425 20.318-19.028l80.864-46.695a36.042 36.042 0 0 0-9.5139-8.6483l-73.939-42.376a36.042 36.042 0 0 0-35.026 0l-73.515 42.376a37.72 37.72 0 0 0-9.9468 8.6483l80.432 46.704a62.19 62.19 0 0 1 20.326 19.028z" fill="#38a169"/><path transform="translate(9.8367e-7 -7.8763)" d="m2611.4-1175.9-79.566-45.936a36.042 36.042 0 0 0-1.2986 9.514v84.751c-0.1325 12.474 6.484 24.046 17.296 30.264l73.515 42.376a46.024 46.024 0 0 0 10.812 3.8957v-89.044c-0.4417-12.968-3.8868-23.789-20.759-35.892z" fill="#e53e3e"/></g><g stroke-width="2.2326"><circle cx="2646.2" cy="-1346.4" r="18.827" fill="#38a169"/><circle cx="2502.7" cy="-1093.4" r="18.827" fill="#e53e3e"/><circle cx="2791.9" cy="-1093.4" r="18.827" fill="#ffc100"/></g></g></g></g></svg>
