<?xml version="1.0" encoding="utf-8"?>
<!-- Generator: Adobe Illustrator 27.6.1, SVG Export Plug-In . SVG Version: 6.00 Build 0)  -->
<svg version="1.2" baseProfile="tiny-ps" id="Layer_1" xmlns="http://www.w3.org/2000/svg" xmlns:xlink="http://www.w3.org/1999/xlink"
	viewBox="0 0 80 80" xml:space="preserve">

<title> Car and Classic </title>
<path fill="#2D5B2D" d="M40,9.51c-6.2,0-27.9,7.78-27.9,14.99c0,24.67,13.42,41.71,25.96,47.26c0.62,0.27,1.28,0.42,1.94,0.45
	c0.66-0.03,1.32-0.18,1.94-0.45C54.48,66.21,67.9,49.16,67.9,24.49C67.9,17.29,46.2,9.51,40,9.51z M14.32,24.49
	c0-0.66,0.58-1.9,2.65-3.59c1.93-1.58,4.65-3.13,7.66-4.52c3-1.38,6.19-2.54,9-3.35c2.87-0.83,5.14-1.24,6.38-1.24
	c1.04,0,2.81,0.29,5.04,0.88c-6.54,1.79-20.28,6.21-24.47,16.9c-4.89,12.44,4.41,27.08,8.6,33.18l0.05,0.12
	C21.07,54.91,14.32,41.7,14.32,24.49z M50.03,64.22c-12.84-13.36-18.8-23.6-17.27-33.29c1.52-9.62,11.74-14.37,17.16-16.48
	c0.26,0.09,0.52,0.18,0.78,0.28c-0.12,0.05-0.24,0.1-0.36,0.15c-5.56,2.36-15.39,6.54-16.5,17.01c-1.12,10.56,9.6,23.61,17.46,31.1
	C50.88,63.42,50.46,63.82,50.03,64.22z M60.23,49.06c-0.27-0.23-0.55-0.47-0.85-0.72c-5.77-4.88-15.24-12.89-14.61-21.5
	c0.22-4.67,5.81-8.92,9.76-10.79c0.22,0.1,0.43,0.19,0.64,0.29c3.02,1.38,5.74,2.94,7.66,4.52c2.06,1.69,2.65,2.93,2.65,3.59
	C65.5,33.94,63.44,42.21,60.23,49.06z"/>
</svg>
