<?xml version="1.0"?><svg version="1.2" baseProfile="tiny-ps" viewBox="0 0 300 300" xmlns="http://www.w3.org/2000/svg" xmlns:xlink="http://www.w3.org/1999/xlink"><title>icc-logo</title><g><g fill="#fcfcfc" transform="matrix(.1 0 0 -.1 0 300)"><path d="M0 1500V0h3000v3000H0V1500z"/></g><g fill="#d7d6d8" transform="matrix(.1 0 0 -.1 0 300)"><path d="M732 2535c-72-20-101-36-164-94l-55-50-31-59c-18-33-38-86-46-118l-15-59-6-620-7-620 16-73 15-72 31-59c40-75 116-160 178-199l48-31 61-16 61-16 699 3 698 3 60 30 60 30 52 51 51 51 29 59c17 32 36 82 44 109l14 50v1340l-27 63c-34 80-85 148-156 212l-56 50-56 23-55 22-695 2-695 2-53-14zm1517-186 62-31 29-51 29-51 10-65 11-66-8-615-7-615-29-60-30-59-43-42-43-42-43-17-42-16-710 3-710 3-48 30-48 30-32 65-32 65-3 595-3 595 10 79 11 78 28 56 29 56 45 39 46 39 39 13 38 14 691 1h691l62-31zM784 2121c-17-4-36-11-42-15l-12-7v-337l15-12 15-13 59 27 59 26h88l55-27 54-28 32-53 31-54 12-66 12-67-16-65c-20-78-53-137-101-178l-35-31-57-17-57-17-49 12-49 11-30 21c-16 12-31 20-33 18s-5-79-6-170l-3-167 12-15 13-15 64-16c79-20 132-20 214-1l64 16 57 30c31 16 78 50 105 74 27 25 50 45 52 45s3-33 3-73v-74l19-17 18-17 149 3 149 3 3 100 3 101 54-53c70-68 146-116 226-144l64-21 100 5c55 2 108 8 118 12l17 7v346l-15 12-14 12-56-27-56-28-66 6-65 5-42 29-41 29-30 59-30 59v201l23 46c12 26 39 63 59 84l36 37 41 19 41 19h112l49-25c27-14 50-25 52-25 1 0 2 79 2 175v174l-29 15c-16 9-58 20-95 26l-66 10-67-10-68-10-75-37-75-37-52-49-53-50v161l-15 12-16 13-149 5-150 5v-86c0-47-3-92-6-101l-6-16-62 56c-75 68-141 108-225 134l-63 20-72-1c-39-1-85-4-102-8zm93-42c5-5 24-11 42-11l31-1v-9c0-4 7-8 15-8s15-4 15-10c0-5 6-10 13-10 8 0 24-11 36-24 21-22 65-42 84-38 4 1 7-5 7-13s4-15 9-15c6 0 22-11 37-25s30-25 35-25c4 0 21-12 37-27 77-73 129-123 154-151 14-16 30-31 35-33s17-16 28-30c11-15 37-48 59-73l38-46-33-40c-19-22-55-62-81-90s-55-64-63-80l-16-30h-29l-6-25c-3-14-10-25-15-25s-9-7-9-15v-15h-47l-13-25-13-25h-27v-21c0-11-7-27-16-36l-15-16 5-12 5-13-15-6c-8-3-21-3-30 1l-16 6 7-21 6-22h-41l-7-31-6-31-19 6-20 5 6-25 7-26-22 7-21 7 6-19 6-20-17-3c-36-6-159-4-185 3l-28 7v269l41-14c54-19 88-19 129 1l33 17 39 2 39 2 37 30 37 30 35 68 35 68v192l-27 57-26 57-42 44-41 45-46 22-47 22H852l-20-11c-12-6-23-11-26-11s-6 60-6 134v135l-12 8-13 8 30 6c46 10 60 10 72-2zm1118-15c-5-2-31-10-57-18l-48-14 6 9c6 10 61 27 89 27 11 0 16-1 10-4zm-239-491 33-43-6-34-5-34 11-68c7-37 21-85 31-107l20-40-25 23c-14 13-25 29-25 37 0 16-12 17-29 1l-12-13 7 20 7 20-8-7-8-8-70 73c-38 39-81 87-95 105l-25 32 19 21c11 12 39 32 64 45l45 23 20-2 19-2 32-42zm410-428-20-15-25 1-26 1 30 13c17 8 37 14 45 14h15l-19-14z"/></g><g fill="#a7acb5" transform="matrix(.1 0 0 -.1 0 300)"><path d="M703 2521c-65-24-96-45-155-109l-46-49-27-53-27-52-14-67-14-66V862l20-64 20-64 38-60c48-74 123-144 193-181l54-28h1480l57 28 57 28 53 58 54 58 26 54c14 30 31 79 37 109l10 55 3 645 3 645-23 65c-27 80-64 137-138 212l-57 58-56 28-56 27-720 2-720 3-52-19zm1532-154c22-10 54-32 72-49l32-31 23-51 23-51-1-655-2-655-16-45c-21-56-69-128-109-160-17-13-53-32-81-42l-51-17-671-1H783l-47 14-47 14-36 28-35 27-31 66-32 66 3 630 3 630 10 43c10 47 48 125 76 157 10 11 35 34 56 49l38 29 47 13 47 13 680-2 680-2 40-18zM810 2119c-30-5-58-13-62-17l-7-7-2-163-2-164 14-14 14-14 49 25 49 25h113l50-25 49-24 28-43c15-24 35-68 44-97l16-55-6-68-6-69-25-54-25-54-44-44-45-43-40-12c-21-7-62-12-89-12h-50l-47 25c-26 14-49 25-52 25-2 0-4-74-4-163V913l18-16c9-8 38-21 65-27l47-12 93 4 93 4 74 35 75 36 58 52 57 53V881l18-9 17-10 148-7 147-7v224l79-74 78-74 64-31c105-51 205-64 309-42l50 11 6 23c3 12 4 88 2 168l-3 146-12 12-13 13-47-24-48-25h-120l-47 23-47 23-31 47c-16 25-36 64-42 86l-12 41v70l-1 70 20 55 20 55 51 52 51 52 58 16 58 17 39-6c22-4 57-15 79-26 21-11 41-20 44-20s4 75 3 168l-3 167-40 20-40 19-100 1h-100l-52-18c-61-21-152-79-205-129l-38-35v154l-18 16-19 17h-293v-213l-58 56c-33 30-87 74-121 96l-63 40-51 15c-29 8-77 17-107 19l-55 5-55-9zm206-34 49-15 84-58 84-57 65-80c36-44 69-81 74-83l8-4v152h28l23-37c13-21 31-44 41-51l17-13-5-13-5-13 16-13c8-7 15-21 15-31s9-33 19-50l19-32-5-13-5-14h12c15 0 41 26 33 34-3 3 6 10 21 15l26 11v30h16c8 0 22 7 31 15l15 16 18-6 17-5 13 15 12 15h23c12 0 25 3 29 8l8 7h168v-7c0-5 3-7 8-7 27 5 21-4-15-20l-41-19-42-42-42-42-26-57-27-56-3-82-4-82 17-53c21-69 60-124 115-166l44-34 91 4 90 4 33 17 32 18V882l-16-6c-10-4-49-9-88-13l-72-6-59 18c-33 9-82 28-110 42l-50 26-72 72c-39 40-80 88-89 107l-18 33-7-50c-4-27-8-89-8-137l-1-88h-250v138l-1 137-31-40c-17-22-60-68-94-102l-63-61-63-31-63-30-62-11-62-11-63 11c-35 5-66 10-70 10h-8v291l11-7c6-3 37-8 70-10l58-4 68 22c37 12 76 23 86 24 46 4 109 105 127 206l11 58-10 56c-6 31-22 80-35 108l-23 51-38 39-38 38-51 24-51 24H873l-42-15-41-14v144c0 80 0 148-1 153-1 12 42 20 112 21l65 1 50-15zm1161-19 32-11h-234l-78-34-78-33-7 7-7 7 20 15c33 25 105 53 159 62l51 9 55-5c30-3 69-11 87-17zm-627-450c0-31 6-34 13-6l5 20-9 6-9 5v-25z"/></g><g fill="#d79264" transform="matrix(.1 0 0 -.1 0 300)"><path d="M723 2526c-23-8-62-25-86-40l-45-25-45-51-46-51-25-53c-14-29-31-73-37-97l-12-44-4-630-5-630 12-60 12-60 29-61 30-60 60-67 60-66 67-33 67-33h1460l67 33 67 33 45 50 46 51 29 62c16 33 34 84 40 112l10 52 1 633 1 634-11 50c-6 27-25 75-42 107l-31 58-59 65-59 64-67 33-67 33-710 2-710 2-42-13zm1488-151c24-9 60-27 80-41l36-25 29-57 29-57 3-625 3-625-11-60c-15-75-50-144-97-191l-36-37-53-24-52-24-703 3-704 3-40 22c-53 28-89 68-117 128l-23 50-1 375c0 206 2 506 5 665l6 290 26 55c14 31 41 73 59 94l33 37 41 21c23 12 52 24 66 29l25 7 676 1 676 1 44-15zm-884-272c-4-3-7-55-7-114v-107l25-43 25-44v282l-18 16-19 17-6-7zm-587-177v-164l16-6 15-6 32 17c18 9 43 20 57 25l25 8-30-4c-16-3-38-8-47-11l-18-7v279l-18 16c-10 10-22 17-25 17h-7v-164zm893 64v-75l4 38c2 20 2 54 0 75l-4 37v-75zm591-70v-125l3 63c2 34 2 90 0 125l-3 62v-125zm-554 5c-7-8-19-15-26-15h-14l1-37c0-21 4-46 7-56l7-17 38 50c40 54 46 75 21 84-21 8-20 8-34-9zm-752-122c7-3 16-2 19 1 4 3-2 6-13 5l-19-1 13-5zm50-10c7-3 16-2 19 1 4 3-2 6-13 5l-19-1 13-5zm996-28c-28-14-61-37-75-52l-24-27 35 29c19 15 53 36 75 46l40 19h105l49-19c28-10 52-16 55-13s-17 14-46 24l-52 18h-112l-50-25zm-111-97c-15-20-25-38-20-38 3 0 12 11 21 25 17 26 16 35-1 13zm-698-158v-107l-37-72-37-72 22-8 22-9 12 10c7 6 25 35 39 64l27 55 5 69 5 70-13 45-13 46-16 8-16 9v-108zm638-45v-60l4 33c2 18 2 45 0 60l-4 27v-60zM738 1088c0-79 0-152 1-162 2-22 29-46 51-45l15 1-12 5-13 5v299l-10 20c-6 10-15 19-20 19h-10l-2-142zm574-11c-78-97-157-154-262-189l-55-19 35 6c19 3 67 21 105 40l71 34 53 51c28 27 54 50 57 50 2 0 4-37 4-83v-83l12-12 12-12h296l-2 138-2 137-3-132-4-133h-258l-3 136-3 136-53-65zm900-124-2-82-17-4-18-5 18-1 18-1 5 13c3 8 3 47 1 88l-3 74-2-82zm-393-27c6-7 38-25 70-40l59-26 48-5 49-5-63 14-63 15-55 30-56 30 11-13zM818 873c6-2 18-2 25 0l12 5h-50l13-5zm69-10c18-2 50-2 70 0l38 4H855l32-4zm1193-13-25-9 55 6c30 3 57 7 59 9 8 7-64 2-89-6z"/></g><g fill="#a76a45" transform="matrix(.1 0 0 -.1 0 300)"><path d="m764 2529-52-7-50-27-50-27-50-50-50-50-30-61c-17-34-36-83-41-109l-11-47-7-618-6-618 17-75 16-75 32-55 31-55 66-66 66-65 60-30 60-29h1450l58 27 57 27 54 53 53 54 31 64 30 65 11 59 11 60v1271l-24 67c-25 72-45 104-115 186l-46 53-45 28c-25 16-61 33-80 39l-35 10-680 4-680 4-51-7zm26-88c0-5 12-12 28-16l27-7-53-19c-106-37-185-116-224-227l-20-57-5-135-4-135-11-27c-6-16-14-28-18-28-16 0-20 36-20 178v147l11 44c15 66 59 148 106 201l43 48 42 20c24 12 55 21 71 22h27v-9zm1473-80 48-23 23-37c12-20 30-58 39-85l17-50V905l-14-50c-7-27-22-68-34-90l-20-41-44-40-44-41-45-17-44-17-705 3-705 3-49 25-49 25-24 32-25 32-19 62-19 61 1 461c0 254 4 545 7 647l7 185 33 67 33 67 45 40 45 40 42 15 42 15 705-2 705-2 48-24zm217-528v-15l16 13 16 13-4-509-5-510-20-57c-11-31-28-68-37-83l-17-26-10 6-9 6 5 10 6 9-18-7-18-7 12 15c6 8 19 34 29 59l17 45 7 505c4 278 8 518 9 533l1 28 10-6c6-3 10-13 10-22zm-1153 270c-4-3-7-55-7-114v-107l25-43 25-44v282l-18 16-19 17-6-7zm-587-177v-164l16-6 15-6 32 17c18 9 43 20 57 25l25 8-30-4c-16-3-38-8-47-11l-18-7v279l-18 16c-10 10-22 17-25 17h-7v-164zm893 64v-75l4 38c2 20 2 54 0 75l-4 37v-75zm591-70v-125l3 63c2 34 2 90 0 125l-3 62v-125zm-554 5c-7-8-19-15-26-15h-14l1-37c0-21 4-46 7-56l7-17 38 50c40 54 46 75 21 84-21 8-20 8-34-9zm-752-122c7-3 16-2 19 1 4 3-2 6-13 5l-19-1 13-5zm50-10c7-3 16-2 19 1 4 3-2 6-13 5l-19-1 13-5zm996-28c-28-14-61-37-75-52l-24-27 35 29c19 15 53 36 75 46l40 19h105l49-19c28-10 52-16 55-13s-17 14-46 24l-52 18h-112l-50-25zm-111-97c-15-20-25-38-20-38 3 0 12 11 21 25 17 26 16 35-1 13zm-698-158v-107l-37-72-37-72 22-8 22-9 12 10c7 6 25 35 39 64l27 55 5 69 5 70-13 45-13 46-16 8-16 9v-108zm638-45v-60l4 33c2 18 2 45 0 60l-4 27v-60zM738 1088c0-79 0-152 1-162 2-22 29-46 51-45l15 1-12 5-13 5v299l-10 20c-6 10-15 19-20 19h-10l-2-142zm574-11c-78-97-157-154-262-189l-55-19 35 6c19 3 67 21 105 40l71 34 53 51c28 27 54 50 57 50 2 0 4-37 4-83v-83l12-12 12-12h296l-2 138-2 137-3-132-4-133h-258l-3 136-3 136-53-65zm900-124-2-82-17-4-18-5 18-1 18-1 5 13c3 8 3 47 1 88l-3 74-2-82zm-393-27c6-7 38-25 70-40l59-26 48-5 49-5-63 14-63 15-55 30-56 30 11-13zM818 873c6-2 18-2 25 0l12 5h-50l13-5zm69-10c18-2 50-2 70 0l38 4H855l32-4zm1193-13-25-9 55 6c30 3 57 7 59 9 8 7-64 2-89-6z"/></g><g fill="#76533e" transform="matrix(.1 0 0 -.1 0 300)"><path d="m1250 2461-45-7 28-12 28-12-5-9-6-9 23-6c30-8 670-8 774 1l82 6-5 8-5 9h53l-4 13-5 12-29 3c-16 2-211 5-434 7l-405 3-45-7zm943-22c14-22 27-25 27-5v14l-19 5-20 5 12-19zM490 2223c-11-26-26-68-31-93-6-24-14-47-19-50l-10-6v-573l-1-574 11-11 10-10v-83l23-35c13-19 39-63 58-98l34-64 45-46 46-47 59-29 60-29 430-1 430-1 30 7 30 7-32 8-33 8v24l-37 7c-21 3-207 6-414 6H804l-50 17-49 17-57 56-56 57-18 54-18 54-6 405-5 405-8-233-8-233-17-19-18-19v17c-1 9-5 231-9 492l-8 475 23 88c12 49 19 91 17 94-3 2-15-17-27-44zm2011-69 1-19 5 13c3 7 2 16-1 19-3 4-6-2-5-13zm-81-43v-42l-10 6-10 6-2-263c-2-336 0-878 3-943 2-27 0-72-4-100l-8-50 16 20c8 11 21 38 28 60l12 40v1284l-12 12-13 13v-43zm93-51v-75l4 38c2 20 2 54 0 75l-4 37v-75zm-1186 43c-4-3-7-55-7-114v-107l25-43 25-44v282l-18 16-19 17-6-7zm-587-177v-164l16-6 15-6 32 17c18 9 43 20 57 25l25 8-30-4c-16-3-38-8-47-11l-18-7v279l-18 16c-10 10-22 17-25 17h-7v-164zm893 64v-75l4 38c2 20 2 54 0 75l-4 37v-75zm591-70v-125l3 63c2 34 2 90 0 125l-3 62v-125zm-554 5c-7-8-19-15-26-15h-14l1-37c0-21 4-46 7-56l7-17 38 50c40 54 46 75 21 84-21 8-20 8-34-9zm-752-122c7-3 16-2 19 1 4 3-2 6-13 5l-19-1 13-5zm50-10c7-3 16-2 19 1 4 3-2 6-13 5l-19-1 13-5zm996-28c-28-14-61-37-75-52l-24-27 35 29c19 15 53 36 75 46l40 19h105l49-19c28-10 52-16 55-13s-17 14-46 24l-52 18h-112l-50-25zm-111-97c-15-20-25-38-20-38 3 0 12 11 21 25 17 26 16 35-1 13zm-698-158v-107l-37-72-37-72 22-8 22-9 12 10c7 6 25 35 39 64l27 55 5 69 5 70-13 45-13 46-16 8-16 9v-108zm638-45v-60l4 33c2 18 2 45 0 60l-4 27v-60zM738 1083c-2-82-1-155 0-164l4-17 25-11c14-7 28-9 31-6s0 5-6 5h-12v301l-10 20c-6 10-15 19-20 19h-9l-3-147zm574-6c-78-97-157-154-262-189l-55-19 35 6c19 3 67 20 105 39l70 35 52 50c28 28 54 51 57 51s6-37 6-83v-83l12-12 12-12h296l-1 18-1 17-5-12-5-13h-257l-3 136-3 136-53-65zm322-57V905l3 58c2 31 2 83 0 115l-3 57v-115zm578-67-2-82-17-4-18-5 18-1 18-1 5 13c3 8 3 47 1 88l-3 74-2-82zm-393-27c6-7 38-25 70-40l59-26 48-5 49-5-63 14-63 15-55 30-56 30 11-13zM818 873c6-2 18-2 25 0l12 5h-50l13-5zm70-10c17-2 47-2 65 0l32 4H855l33-4zm1192-13-25-9 55 6c30 3 57 7 59 9 8 7-64 2-89-6zm421-26 1-19 5 13c3 7 2 16-1 19-3 4-6-2-5-13zm-10-50 1-19 5 13c3 7 2 16-1 19-3 4-6-2-5-13zm-15-39c-9-26-7-32 5-12 6 10 9 21 6 23-2 3-7-2-11-11zm-36-75c-6-11-8-20-6-20 3 0 10 9 16 20s8 20 6 20c-3 0-10-9-16-20zm-31-47c-29-35-41-53-36-53 2 0 17 16 31 35 28 36 31 49 5 18zm-84-79-30-26 21 11c18 9 53 42 43 41-2-1-17-12-34-26zm-667-21c7-3 16-2 19 1 4 3-2 6-13 5l-19-1 13-5zm50-20c7-3 16-2 19 1 4 3-2 6-13 5l-19-1 13-5z"/></g></g></svg>