<?xml version="1.0" encoding="UTF-8" standalone="yes"?>
<svg viewBox="0 0 300 300" version="1.2" baseProfile="tiny-ps" xmlns="http://www.w3.org/2000/svg">
  <title>bimi-svg-tiny-12-ps</title>
  <circle stroke-width="0" fill="#fff" r="147.47" cy="150.24" cx="149.85"/>
  <path stroke-width="0" fill="#a3cd3a" d="M200.27,223.24c-29.35,33.04-87.22,37.03-120.66,7.73-16.54-14.49-23.53-45.53-14.75-65.5,9.63-21.91,30.88-29.02,50.5-14.56,17.77,13.09,30.49,21.24,45.94,37.05,10.06,10.3,16.93,7.4,27.95-1.19,6.58-5.13,70.04-70.28,94.73-97.9C256.92,33.84,212.47,3.16,148.4,3.16,67.01,3.16,2.38,69.59,2.38,151.06s66.47,146.73,147.86,146.73,146.96-65.91,146.96-147.38c0-10.54-1.04-21.25-3.14-31.16-31.68,34.35-62.75,69.06-93.79,103.99Z"/>
</svg>