<?xml version="1.0" encoding="utf-8"?>
<!-- Generator: Adobe Illustrator 27.6.1, SVG Export Plug-In . SVG Version: 6.00 Build 0)  -->
<svg version="1.2" baseProfile="tiny-ps" id="Ebene_1" xmlns="http://www.w3.org/2000/svg" xmlns:xlink="http://www.w3.org/1999/xlink"
	 viewBox="0 0 179.2 134.9" xml:space="preserve">
	 <title>Miltenyi Biotec</title>
<g>
	<g>
		<path fill="#FF7D00" d="M58.2,101.8c-0.3-1.1-0.8-2.2-1.2-3.2c-0.3-0.7-0.7-1.3-1-1.9c-0.4-0.6-0.8-1.2-1.2-1.8
			c-1.5-2-3.4-3.8-5.5-5.2c-0.9-0.6-1.9-1.2-2.8-1.6c-2-1-4.1-1.6-6.4-2c-0.4-0.1-0.8-0.1-1.1-0.1c-0.8-0.1-1.5-0.1-2.3-0.1
			s-1.6,0-2.3,0.1c-0.4,0-0.8,0.1-1.1,0.1c-0.8,0.1-1.5,0.3-2.2,0.4c-0.4,0.1-0.7,0.2-1.1,0.3c-0.7,0.2-1.4,0.5-2.1,0.8
			c-1.7,0.7-3.3,1.6-4.7,2.7c-0.9,0.7-1.7,1.4-2.5,2.1c-2.6,2.6-4.6,5.8-5.6,9.4H58.2z"/>
		<path fill="#3C1192" d="M18.9,64c0.5,0.6,1.1,1.2,1.7,1.8c1.4,1.2,3.1,2,4.9,2.4c0.7,0.2,1.5,0.2,2.3,0.2c1.2,0,2.3-0.2,3.4-0.5
			c1.4-0.4,2.7-1.2,3.8-2.1c2.5-2.1,4.1-5.2,4.1-8.8s-1.6-6.7-4.1-8.8c-1.1-0.9-2.4-1.6-3.8-2.1c-1-0.3-2-0.5-3.1-0.5L18.9,64z"/>
		<path fill="#FF7D00" d="M86.9,71.9l-4.7-9.3L69.4,37c-7.2,5.1-12,13.6-12,23.1c0,15.7,12.7,28.3,28.4,28.3c2.9,0,5.8-0.4,8.4-1.3
			c0.1,0,0.2-0.1,0.3-0.1L86.9,71.9z"/>
		<g>
			<path fill="#3C1192" d="M36.5,82.4c12.1,0,22.3,8.3,25.2,19.4h40L96,90.2c-3.2,1.1-6.7,1.7-10.2,1.7C68.2,91.9,54,77.6,54,60.1
				c0-10.9,5.5-20.5,13.8-26.2l-5.1-10.2c-2.1,0.7-4.4,1.2-6.8,1.2c-5.7,0-10.8-2.3-14.5-6.1L29.7,42.4c7.2,0.9,12.9,7.1,12.9,14.6
				c0,8.1-6.6,14.7-14.7,14.7c-4.1,0-7.9-1.7-10.6-4.5L0,101.8h11.3C14.3,90.6,24.5,82.4,36.5,82.4z"/>
			<path fill="#3C1192" d="M45.2,17.6c0.4,0.3,0.8,0.6,1.1,0.9c2.8,1.9,6.1,3,9.7,3c1.8,0,3.5-0.3,5.1-0.8c0.1,0,0.1,0,0.2-0.1l0,0
				L50.9,0l-7.8,15.6C43.8,16.3,44.4,17,45.2,17.6z"/>
		</g>
	</g>
	<g>
		<g>
			<path fill="#3C1192" d="M73.3,118c-3.9,0-5.7,3.2-5.7,6.1c0,3.6,2.2,5.8,6,5.8c1.5,0,2.9-0.2,4.1-0.7l-0.5-2.4
				c-0.9,0.3-1.9,0.5-3.1,0.5c-1.6,0-3.1-0.7-3.2-2.2h7.2c0.1-0.3,0.1-0.8,0.1-1.4C78.3,120.9,76.9,118,73.3,118z M70.9,122.7
				c0.1-0.9,0.7-2.3,2.2-2.3c1.6,0,2,1.4,2,2.3H70.9z M39.2,113.9l-1.6,5.2c-0.5,1.8-1.1,3.8-1.5,5.7H36c-0.3-1.8-0.8-3.8-1.3-5.7
				l-1.5-5.3h-4.7l-1,15.8h3.2l0.3-6c0.1-2,0.2-4.4,0.2-6.5h0c0.4,2.1,0.9,4.3,1.4,6.2l1.7,6.1h2.7l1.9-6.2c0.6-1.8,1.2-4.1,1.8-6.1
				h0c0,2.3,0.1,4.6,0.1,6.5l0.2,6.1h3.4l-0.8-15.8H39.2z M63.8,115.2l-3.4,1v2.1h-1.5v2.6h1.5v4.7c0,1.6,0.3,2.7,1,3.4
				c0.6,0.6,1.5,1,2.6,1c1,0,1.8-0.1,2.2-0.3l0-2.7c-0.3,0.1-0.6,0.1-1,0.1c-1,0-1.4-0.6-1.4-2v-4.2h2.5v-2.6h-2.5
				C63.8,118.2,63.8,115.2,63.8,115.2z M87,118c-1.9,0-3,1.1-3.5,1.8h-0.1l-0.2-1.6h-3c0.1,1,0.1,2.2,0.1,3.7v7.8h3.5v-6.6
				c0-0.3,0-0.7,0.1-0.9c0.2-0.7,0.8-1.3,1.8-1.3c1.3,0,1.8,1,1.8,2.5v6.3h3.5v-6.8C91.1,119.6,89.3,118,87,118z M47.3,129.7h3.5
				v-11.5h-3.5V129.7z M53.6,129.7h3.5v-16.6h-3.5V129.7z M98.9,123.9c-0.2,0.7-0.3,1.5-0.5,2.2h-0.1c-0.1-0.6-0.4-1.5-0.6-2.1
				l-1.7-5.7h-3.9l4.1,10.5c0.1,0.3,0.1,0.4,0.1,0.6s-0.1,0.3-0.2,0.5c-0.3,0.6-0.9,1.1-1.4,1.4c-0.5,0.3-1.1,0.5-1.5,0.6l0.8,3
				c0.9-0.1,2.2-0.5,3.3-1.6c1.3-1.1,2.3-2.9,3.9-7.5l2.6-7.6h-3.7L98.9,123.9z M49.1,113.3c-1.1,0-1.9,0.8-1.9,1.8
				c0,1,0.7,1.8,1.8,1.8c1.2,0,1.9-0.8,1.9-1.8C50.9,114.1,50.2,113.3,49.1,113.3z M125.3,121.2L125.3,121.2c1.8-0.7,2.6-2,2.6-3.4
				c0-1.4-0.8-2.5-1.8-3.1c-1.2-0.7-2.5-0.9-4.6-0.9c-1.8,0-3.6,0.2-4.5,0.3v15.5c0.8,0.1,2.1,0.2,3.8,0.2c3.1,0,5-0.5,6.1-1.4
				c1-0.8,1.6-1.9,1.6-3.4C128.4,123.1,127.1,121.7,125.3,121.2z M120.3,116.5c0.3-0.1,0.7-0.1,1.5-0.1c1.6,0,2.5,0.6,2.5,1.8
				c0,1.2-1,1.9-2.8,1.9h-1.2L120.3,116.5L120.3,116.5z M121.7,127.2c-0.6,0-1,0-1.3-0.1v-4.4h1.2c1.8,0,3.2,0.6,3.2,2.2
				C124.7,126.6,123.3,127.2,121.7,127.2z M154.1,115.2l-3.4,1v2.1h-1.5v2.6h1.5v4.7c0,1.6,0.3,2.7,1,3.4c0.6,0.6,1.5,1,2.6,1
				c1,0,1.8-0.1,2.2-0.3l0-2.7c-0.3,0.1-0.6,0.1-1,0.1c-1,0-1.4-0.6-1.4-2v-4.2h2.5v-2.6h-2.5V115.2z M105.5,129.7h3.5v-11.5h-3.5
				V129.7z M132.4,113.3c-1.1,0-1.9,0.8-1.9,1.8c0,1,0.7,1.8,1.8,1.8c1.2,0,1.9-0.8,1.9-1.8C134.2,114.1,133.5,113.3,132.4,113.3z
				 M142.3,118c-3.6,0-6,2.4-6,6.1c0,3.7,2.5,5.9,5.8,5.9c3,0,5.9-1.9,5.9-6.1C148,120.4,145.7,118,142.3,118z M142.2,127.4
				c-1.5,0-2.3-1.5-2.3-3.4c0-1.7,0.6-3.4,2.3-3.4c1.6,0,2.2,1.7,2.2,3.4C144.4,126,143.6,127.4,142.2,127.4z M130.6,129.7h3.5
				v-11.5h-3.5V129.7z M107.2,113.3c-1.1,0-1.9,0.8-1.9,1.8c0,1,0.7,1.8,1.8,1.8c1.2,0,1.9-0.8,1.9-1.8
				C109,114.1,108.4,113.3,107.2,113.3z M176.8,127.2c-1.7,0-3.1-1.1-3.1-3.2c0-1.9,1.2-3.2,3-3.2c0.9,0,1.5,0.2,1.9,0.3l0.6-2.7
				c-0.7-0.3-1.8-0.4-2.7-0.4c-4.2,0-6.4,2.7-6.4,6.1c0,3.6,2.3,5.9,5.9,5.9c1.3,0,2.5-0.2,3.1-0.5l-0.4-2.6
				C178.2,127,177.6,127.2,176.8,127.2z M163.6,118c-3.9,0-5.7,3.2-5.7,6.1c0,3.6,2.2,5.8,6,5.8c1.5,0,2.9-0.2,4.1-0.7l-0.5-2.4
				c-0.9,0.3-1.9,0.5-3.1,0.5c-1.6,0-3.1-0.7-3.2-2.2h7.2c0.1-0.3,0.1-0.8,0.1-1.4C168.6,120.9,167.3,118,163.6,118z M161.3,122.7
				c0.1-0.9,0.7-2.3,2.2-2.3c1.6,0,2,1.4,2,2.3H161.3z"/>
		</g>
	</g>
</g>
</svg>
