<?xml version="1.0" encoding="utf-8"?>
<!-- Generator: Adobe Illustrator 24.1.2, SVG Export Plug-In . SVG Version: 6.00 Build 0)  -->
<svg version="1.2" baseProfile="tiny-ps" id="Layer_1" xmlns="http://www.w3.org/2000/svg" xmlns:xlink="http://www.w3.org/1999/xlink"
	 viewBox="0 0 80 80" xml:space="preserve">
<title>Jones Lang LaSalle IP, Inc.</title>
<rect fill="#FFFFFF" width="80" height="80"/>
<path d="M47,30.8h-5.2H40v0.5c0.4,0,0.6,0.1,0.8,0.1c0.3,0.1,0.5,0.2,0.6,0.3c0.5,0.4,0.4,1.1,0.4,2.3v8.5c0,1.7,0.2,4.1-2.2,4.1
	c-1,0-2-0.7-2.3-2.2h-0.8c0.4,2.3,1.4,3.9,4.2,3.9H41l0,0c2.3,0,4.4-1.2,4.4-5v-6.6v-2.6c0-1.3,0-1.9,0.4-2.3
	c0.3-0.3,0.4-0.4,1.2-0.4L47,30.8L47,30.8z"/>
<path d="M55.3,30.8h-7.2l0,0v0.6l0,0c0.8,0.1,1,0.2,1.3,0.4c0.4,0.3,0.5,0.8,0.5,1.6c0,0.3,0,0.5-0.1,0.8v10
	c0.1,0.3,0.1,0.6,0.1,0.8c0,0.8-0.1,1.3-0.5,1.6c-0.3,0.3-0.5,0.4-1.3,0.5l0,0v0.7l0,0h7.2l0,0l0,0H59l1.2-3.4h-1.1
	c-0.8,1.8-2,2.1-3.2,2.1c-0.9,0-1.5-0.1-2-0.4c-0.4-0.3-0.5-0.9-0.5-1.9v-10V34c0-1.3,0-2,0.4-2.3c0.3-0.3,0.7-0.4,1.4-0.4
	L55.3,30.8L55.3,30.8z"/>
<path d="M67.2,30.8h-6.9l0,0v0.6l0,0c0.6,0.1,0.9,0.2,1.2,0.4c0.4,0.3,0.5,0.8,0.5,1.6c0,0.3,0,0.5,0,0.8v10c0,0.3,0,0.6,0,0.8
	c0,0.8-0.1,1.3-0.5,1.6C61.1,46.8,61,47,60.3,47l0,0v0.7h-0.1h7.2l0,0l0,0H71l1.2-3.4H71c-0.8,1.8-2,2.1-3.2,2.1
	c-0.9,0-1.5-0.1-2-0.4c-0.4-0.3-0.5-0.9-0.5-1.9v-9.9V34c0-1.3,0-2,0.4-2.3c0.3-0.3,0.7-0.4,1.4-0.4L67.2,30.8L67.2,30.8z"/>
<g>
	<g>
		<path fill="#E30613" d="M19.1,53c0.4-0.2,0.6-0.4,1-0.5c0.1,0,0.1-0.1,0.2-0.1c0.4-0.3,0.7-0.6,1.1-1c0.5-0.5,0.8-1,1.2-1.4
			c0.3-0.5,0.5-0.8,0.7-1.3c0.9-1.7,1.4-3.7,1.7-5.6c0.2-1.3,0.3-2.4,0.3-3.7l0,0c0-1.2-0.1-2.4-0.3-3.7c-0.3-1.9-0.9-3.8-1.7-5.6
			c-0.1-0.2-0.2-0.4-0.4-0.6c-0.5,0.9-0.9,1.8-1.2,2.7c0.5,1.7,0.9,3.5,1,5.3c0,0.6,0.1,1.3,0.1,1.8l0,0c0,0.6,0,1.3-0.1,1.8
			c-0.2,2.2-0.6,4.4-1.4,6.4c-0.4,0.8-0.7,1.5-1.2,2.3c-0.1,0.2-0.2,0.4-0.4,0.5c-0.3,0.4-0.5,0.6-0.7,1c-0.3,0.4-0.6,0.7-1,1.1
			c-0.4,0.4-0.7,0.7-1.2,1l-0.1,0.1l0,0l0,0C17.6,53.4,18.3,53.3,19.1,53z M19,51.4L19,51.4L19,51.4z"/>
	</g>
	<g>
		<path fill="#E30613" d="M23.3,53c0.4-0.2,0.6-0.4,1-0.5c0.1,0,0.1-0.1,0.2-0.2c1.3-1,2.3-2.3,3-3.7c0.9-1.7,1.4-3.7,1.7-5.6
			c0.2-1.3,0.3-2.4,0.3-3.7l0,0c0-1.2-0.1-2.4-0.3-3.7c-0.3-1.9-0.9-3.8-1.7-5.6c-0.6-1.3-1.5-2.5-2.7-3.5c-0.4,0.4-0.7,0.8-1,1.3
			c0.1,0.2,0.2,0.3,0.4,0.5c1.8,2.7,2.7,5.9,3,9.2c0,0.6,0.1,1.3,0.1,1.8c0,0.6,0,1.3-0.1,1.8c-0.2,3.2-1.1,6.5-3,9.2
			c-0.3,0.4-0.5,0.6-0.7,1c-0.3,0.4-0.6,0.7-1,1.1c-0.4,0.4-0.7,0.7-1.2,1l-0.1,0.1l0,0l0,0C21.9,53.4,22.6,53.3,23.3,53z"/>
	</g>
	<g>
		<path fill="#E30613" d="M29,52.3c1.3-1,2.3-2.3,3-3.7c0.9-1.7,1.4-3.7,1.7-5.6c0.2-1.3,0.3-2.4,0.3-3.7l0,0c0-1.2-0.1-2.4-0.3-3.7
			c-0.3-1.9-0.9-3.8-1.7-5.6c-0.7-1.4-1.7-2.8-3-3.7c-1-0.7-2.2-1.2-3.3-1.3l0,0l0,0c1.2,0.8,2.2,2,3,3.1c1.8,2.7,2.7,5.9,3,9.2
			c0,0.6,0.1,1.3,0.1,1.8c0,0.6,0,1.3-0.1,1.8c-0.2,3.2-1.1,6.5-3,9.2c-0.8,1.2-1.8,2.3-3,3.1l0,0l0,0C26.8,53.4,28,53,29,52.3z"/>
	</g>
	<g>
		<path fill="#E30613" d="M23.4,25.7c-0.4,0.2-0.6,0.4-1,0.5c-0.1,0-0.1,0.1-0.2,0.1c-0.4,0.3-0.7,0.6-1.1,1c-0.5,0.5-0.8,1-1.2,1.4
			c-0.3,0.4-0.5,0.8-0.7,1.3c-0.9,1.7-1.4,3.7-1.7,5.6c-0.2,1.3-0.3,2.4-0.3,3.7l0,0c0,1.2,0.1,2.4,0.3,3.7c0.3,1.9,0.9,3.8,1.7,5.6
			c0.1,0.2,0.2,0.4,0.4,0.6c0.4-0.9,0.9-1.8,1.2-2.7c-0.5-1.7-0.9-3.5-1-5.3c0-0.6-0.1-1.3-0.1-1.8l0,0c0-0.6,0-1.3,0.1-1.8
			c0.2-2.2,0.6-4.4,1.4-6.4c0.4-0.8,0.7-1.5,1.2-2.3c0.1-0.2,0.2-0.4,0.4-0.5c0.3-0.4,0.5-0.6,0.7-1c0.3-0.4,0.6-0.7,1-1.1
			s0.7-0.7,1.2-1l0.1-0.1l0,0l0,0C24.8,25.2,24.1,25.4,23.4,25.7z M23.4,27.2L23.4,27.2L23.4,27.2z"/>
	</g>
	<g>
		<path fill="#E30613" d="M18.9,25.6c-0.4,0.2-0.6,0.4-1,0.5c-0.1,0-0.1,0.1-0.2,0.1c-1.3,1-2.3,2.3-3,3.7c-0.9,1.7-1.4,3.7-1.7,5.6
			c-0.2,1.3-0.3,2.4-0.3,3.7l0,0c0,1.2,0.1,2.4,0.3,3.7c0.3,1.9,0.9,3.8,1.7,5.6c0.6,1.4,1.5,2.5,2.7,3.5c0.4-0.4,0.7-0.8,1-1.3
			c-0.1-0.2-0.2-0.3-0.4-0.5c-1.8-2.7-2.7-5.9-3-9.2c0-0.6-0.1-1.3-0.1-1.8c0-0.6,0-1.3,0.1-1.8c0.2-3.2,1.1-6.5,3-9.2
			c0.3-0.4,0.4-0.6,0.7-1c0.3-0.4,0.6-0.7,1-1.1s0.7-0.7,1.2-1L21,25l0,0l0,0C20.3,25.2,19.6,25.3,18.9,25.6z"/>
	</g>
	<g>
		<path fill="#E30613" d="M13.5,26.3c-1.3,1-2.3,2.3-3,3.7c-0.9,1.7-1.4,3.7-1.7,5.6c-0.2,1.3-0.3,2.4-0.3,3.7l0,0
			c0,1.2,0.1,2.4,0.3,3.7c0.3,1.9,0.9,3.8,1.7,5.6c0.7,1.4,1.7,2.8,3,3.7c1,0.7,2.2,1.2,3.3,1.3l0,0l0,0c-1.2-0.8-2.2-2-3-3.1
			c-1.8-2.7-2.7-5.9-3-9.2c0-0.6-0.1-1.3-0.1-1.8c0-0.6,0-1.3,0.1-1.8c0.2-3.2,1.1-6.5,3-9.2c0.8-1.2,1.8-2.3,3-3.2l0,0l0,0
			C15.6,25.2,14.4,25.6,13.5,26.3z"/>
	</g>
	<g>
		<path fill="#E30613" d="M21.9,52.1c0.4-0.4,0.7-0.8,1-1.3c-0.1-0.2-0.2-0.3-0.4-0.5c-0.1-0.2-0.2-0.4-0.4-0.5
			c-0.4,0.5-0.7,1-1.2,1.4C21.4,51.5,21.7,51.8,21.9,52.1"/>
		<path fill="#E30613" d="M24.4,52.4c-0.3,0.2-0.6,0.4-1,0.5c0.7,0.4,1.4,0.5,2.3,0.5l0,0l0,0C25.2,53.3,24.7,52.9,24.4,52.4"/>
		<path fill="#E30613" d="M20.8,53.4c0.1,0,0.3,0,0.4-0.1c-0.1-0.1-0.3-0.2-0.4-0.3c-0.3-0.3-0.5-0.5-0.8-0.7
			c-0.3,0.2-0.6,0.4-1,0.5c0.4,0.2,0.9,0.4,1.4,0.5C20.5,53.4,20.7,53.4,20.8,53.4 M21.1,53.4L21.1,53.4C21,53.4,21,53.4,21.1,53.4
			c-0.2-0.1-0.3,0-0.5,0C20.8,53.4,21,53.4,21.1,53.4L21.1,53.4z"/>
	</g>
	<path fill="#E30613" d="M20.4,26.6c-0.4,0.4-0.7,0.8-1,1.3c0.1,0.2,0.2,0.3,0.4,0.4c0.1,0.2,0.2,0.4,0.4,0.5c0.4-0.5,0.7-1,1.2-1.4
		C21,27.1,20.7,26.8,20.4,26.6"/>
	<path fill="#E30613" d="M18.1,26.3c0.3-0.2,0.6-0.4,1-0.5c-0.7-0.4-1.4-0.5-2.3-0.5l0,0l0,0C17.3,25.5,17.7,25.9,18.1,26.3"/>
	<path fill="#E30613" d="M23.3,25.6c-0.5-0.2-0.9-0.4-1.4-0.5c-0.1,0-0.3,0-0.4-0.1l0,0c-0.2,0-0.3,0-0.4,0l0,0l0,0c0,0,0,0,0.1,0
		l0,0c0.1,0.1,0.3,0.2,0.4,0.3c0.3,0.3,0.5,0.5,0.8,0.7C22.7,26,22.9,25.8,23.3,25.6"/>
</g>
</svg>
