<?xml version="1.0" encoding="utf-8"?>
<!-- Generator: Adobe Illustrator 25.2.3, SVG Export Plug-In . SVG Version: 6.00 Build 0)  -->
<svg version="1.2" baseProfile="tiny-ps" xmlns:xlink="http://www.w3.org/1999/xlink" viewBox="0 0 150 150" xmlns="http://www.w3.org/2000/svg">
  <title>Axigen Messaging SRL</title>
<rect x="0.4" y="0.2" fill="#172632" width="150" height="150" />
<g>
	<path fill="#E33C43" d="M43.4,58H19.9v34h29v-4.3v-6.3V64.2v-0.9C48.9,60.5,46.1,58,43.4,58z" />
	<path fill="#FFFFFF" d="M46.9,79.8v-7.9c0-2-0.5-3.4-1.5-4.3s-2.6-1.4-4.8-1.4s-4.6,0.3-7.2,0.9l0.1,2.7l1.1-0.1   c2.3-0.2,4.2-0.3,5.8-0.3c0.8,0,1.9,0.2,2.3,0.6c0.4,0.4,1.1,1,1.1,1.9v1.2l-5.1,0.4c-2,0.2-3.8,0.6-4.7,1.4   c-1,0.8-1.6,2.1-1.6,3.8c0,3.7,1.7,5.5,5.3,5.5c1.9,0,3.9-0.4,5.8-1.3c1.1,0.9,3.3,1.3,5.3,1.3v-2.9C46.9,81.3,46.9,80.5,46.9,79.8   z M43.9,80.4l-1.1,0.2c-1.3,0.4-2.9,0.6-4.1,0.6c-1.5,0-2.3-0.8-2.3-2.4s1.3-2.5,2.9-2.6l4.6-0.4C43.9,75.8,43.9,80.4,43.9,80.4z" />
	<g>
		<path fill="#FFFFFF" d="M50.7,66.6h4.2l3.5,6l3.6-6h4.2l-5.4,8.5l5.4,8.8H62L58.4,78l-3.5,5.9h-4.2l5.2-8.7L50.7,66.6z" />
		<path fill="#FFFFFF" d="M69.2,63.6v-4h3.9v4H69.2z M69.2,83.8V66.6h3.9v17.3L69.2,83.8L69.2,83.8z" />
		<path fill="#FFFFFF" d="M93.6,86.2c0,3.8-2.8,5.7-8.5,5.7c-2.7,0-4.8-0.4-6.1-1.1c-1.3-0.7-2-2-2-3.9c0-0.9,0.2-1.6,0.6-2.2    s1.1-1.3,2.1-2c-0.8-0.5-1.2-1.3-1.2-2.5c0-0.5,0.3-1.2,1-2.2l0.3-0.5c-1.7-1-2.6-2.7-2.6-5.2c0-2.1,0.6-3.6,1.9-4.6    s3-1.5,5.3-1.5c1.1,0,2.1,0.1,3.1,0.3l0.5,0.1l5.6-0.1v3l-3-0.2c0.6,0.8,1,1.8,1,2.8c0,2.3-0.6,3.8-1.8,4.7    c-1.2,0.9-3,1.3-5.6,1.3c-0.6,0-1.2,0-1.6-0.1c-0.3,0.8-0.5,1.4-0.5,1.8s0.2,0.7,0.7,0.9c0.4,0.2,1.5,0.3,3.2,0.3    c2.9,0,4.8,0.4,5.9,1.1C93,82.9,93.6,84.2,93.6,86.2z M80.8,86.5c0,0.8,0.3,1.4,1,1.7c0.7,0.3,1.8,0.5,3.5,0.5    c2.9,0,4.4-0.8,4.4-2.4c0-0.9-0.3-1.5-0.8-1.7s-1.5-0.4-3.1-0.4L82.3,84c-0.5,0.4-0.9,0.8-1.1,1.2S80.8,86,80.8,86.5z M81.9,74.6    c0.5,0.5,1.4,0.7,2.6,0.7s2-0.2,2.5-0.7s0.8-1.3,0.8-2.3c0-1.1-0.3-1.8-0.8-2.3s-1.4-0.7-2.6-0.7c-2.2,0-3.3,1-3.3,3.1    C81.1,73.3,81.4,74.1,81.9,74.6z" />
		<path fill="#FFFFFF" d="M109.5,80.7l1-0.1l0.1,2.8c-2.7,0.5-5.2,0.8-7.3,0.8c-2.7,0-4.6-0.7-5.7-2.1s-1.7-3.7-1.7-6.7    c0-6.1,2.6-9.2,7.8-9.2c5,0,7.6,2.6,7.6,7.9l-0.3,2.7H99.8c0,1.4,0.3,2.5,1,3.1c0.6,0.7,1.8,1,3.5,1S107.7,80.9,109.5,80.7z     M107.4,73.9c0-1.7-0.3-2.9-0.8-3.6c-0.6-0.7-1.5-1-2.9-1c-1.3,0-2.3,0.4-2.9,1.1s-0.9,1.9-1,3.5H107.4z" />
		<path fill="#FFFFFF" d="M118.9,83.8H115V66.6h3.9v1.1c1.8-1,3.4-1.5,5-1.5c2.4,0,4,0.7,4.9,2c0.9,1.3,1.3,3.5,1.3,6.4v9.3h-3.9    v-9.2c0-1.9-0.2-3.2-0.6-4s-1.3-1.2-2.6-1.2c-1.2,0-2.4,0.2-3.5,0.7l-0.5,0.2v13.4H118.9z" />
	</g>
</g>
</svg>