<?xml version="1.0" encoding="UTF-8"?>
<!-- Created with Inkscape (http://www.inkscape.org/) -->
<svg width="800" height="800" version="1.2" baseProfile="tiny-ps" viewBox="0 0 800 800" xml:space="preserve" xmlns="http://www.w3.org/2000/svg" xmlns:xlink="http://www.w3.org/1999/xlink">
<title>Euskal Irrati Telebista, H. E.</title>
<g transform="matrix(1.1555 0 0 -1.1556 53.344 741.2)">
	<g transform="matrix(2.2629,0,0,2.0715,-97.395,-321.62)">
		<g transform="translate(160.09,283.41)">
			<path d="m0 0c3.622 1.658 4.975 4.398 3.756 7.717-2.791 7.681-18.375 16.447-25.634 14.416-6.971-1.878-26.346-9.359-43.503-15.974-13.537-5.245-26.312-10.169-30.102-11.234l-0.727-0.203 0.067-0.153c-2.133-0.83-4.129-1.963-5.922-3.52-3.959-3.485-6.328-8.291-6.667-13.554-0.034-0.439-0.034-0.895-0.034-1.336 0-4.771 1.709-9.341 4.925-12.962 3.468-3.976 8.273-6.362 13.553-6.7 3.214-0.185 6.295 0.44 9.171 1.709l0.05-0.136 0.626 0.323c7.192 3.586 18.122 9.374 29.646 15.499 17.935 9.544 38.257 20.337 50.795 26.108" fill="#0082ca"/>
		</g>
		<g transform="translate(209.18,279.21)">
			<path d="m0 0c-1.556 2.824-4.179 3.569-7.393 2.148-21.861-9.797-43.335-22.47-64.113-34.738-16.058-9.493-31.237-18.46-44.975-25.077l-0.643-0.32 0.016-0.068c-5.498-2.996-9.695-8.326-10.812-14.975-0.948-5.55 0.355-11.151 3.638-15.754 3.266-4.603 8.106-7.649 13.656-8.578 5.279-0.881 10.591 0.287 15.041 3.248l0.052-0.068 0.591 0.373c8.663 5.618 32.319 21.574 53.166 35.652l34.923 23.587c6.752 4.484 11.169 26.785 6.853 34.57" fill="#0082ca"/>
		</g>
		<g transform="translate(156.89,363.39)">
			<path d="m0 0c9.577 0 17.327 7.546 17.327 16.852 0 9.324-7.75 16.87-17.327 16.87-9.561 0-17.327-7.546-17.327-16.87 0-9.306 7.766-16.852 17.327-16.852" fill="#0082ca"/>
		</g>
		<g transform="translate(299.74,288.23)">
			<path d="m0 0c-1.608 36.294-19.02 69.493-51.863 98.699-0.22 0.185-16.971 13.671-25.075 21.741-1.423 1.439-1.998 3.199-1.998 5.127 0 4.18 2.741 9.037 4.772 12.641l1.675 3.148c0.253 0.591 0.338 1.098 0.338 1.539 0 0.559-0.152 0.964-0.32 1.27-0.49 0.743-1.321 1.03-1.946 1.065h-0.17l-0.203-0.05c-7.698-1.828-47.005-11.862-49.409-12.877-2.351-0.998-4.924-3.927-5.11-7.411-0.117-2.353 0.796-5.703 5.888-8.511 3.809-2.048 90.696-49.257 94.74-111.98 2.081-31.929-17.48-62.844-58.038-91.778l-0.135-0.118-0.17-0.17h-0.033c-3.554-3.266-5.397-8.037-5.279-13.47 0.185-7.325 3.806-14.6 9.711-19.525 10.458-8.766 27.581-6.903 36.617 3.927 0 0 0.407 0.506 0.677 0.844 6.058 6.786 45.449 53.317 45.449 110.49 0 1.794-0.033 3.587-0.118 5.398" fill="#0082ca"/>
		</g>
		<g transform="translate(160.11,283.49)">
			<path d="m0 0c3.625 1.657 4.967 4.405 3.745 7.714-2.804 7.671-18.365 16.468-25.615 14.437-6.976-1.89-26.401-9.385-43.536-16.01-13.524-5.221-26.311-10.153-30.097-11.22l-0.731-0.191 0.071-0.147c-2.136-0.836-4.138-1.967-5.909-3.52-3.955-3.477-6.33-8.303-6.667-13.58-0.028-0.42-0.049-0.871-0.049-1.313 0-4.771 1.714-9.344 4.903-12.977 3.478-3.968 8.312-6.343 13.567-6.687 3.21-0.211 6.316 0.422 9.189 1.679l0.042-0.106 0.646 0.31c7.194 3.59 18.098 9.364 29.64 15.511 17.929 9.527 38.254 20.325 50.801 26.1" fill="#0082ca"/>
		</g>
		<g transform="translate(209.21,279.31)">
			<path d="m0 0c-1.566 2.817-4.194 3.584-7.418 2.144-21.829-9.788-43.327-22.489-64.086-34.755-15.843-9.351-30.779-18.161-44.324-24.73-0.049-0.02-0.09-0.056-0.126-0.07-0.183-0.085-0.38-0.196-0.548-0.275l-0.661-0.315 0.043-0.077c-5.522-2.98-9.709-8.326-10.841-14.979-0.927-5.556 0.366-11.157 3.64-15.744 3.259-4.587 8.128-7.637 13.678-8.564 5.297-0.892 10.594 0.295 15.062 3.239l0.036-0.049 0.583 0.379c8.662 5.585 32.282 21.547 53.133 35.648l34.965 23.542c6.738 4.502 11.164 26.808 6.864 34.606" fill="#0082ca"/>
		</g>
		<g transform="translate(156.91,363.5)">
			<path d="m0 0c9.548 0 17.325 7.559 17.325 16.847 0 9.301-7.777 16.889-17.325 16.889-9.575 0-17.338-7.588-17.338-16.889 0-9.288 7.763-16.847 17.338-16.847" fill="#0082ca"/>
		</g>
		<g transform="translate(247.9,387.02)">
			<path d="m0 0c-0.225 0.183-16.952 13.65-25.039 21.75-1.461 1.455-2.03 3.226-2.03 5.129 0 4.201 2.726 9.049 4.756 12.653l1.672 3.162c0.246 0.597 0.365 1.088 0.365 1.531 0 0.555-0.168 0.962-0.358 1.257-0.463 0.752-1.299 1.047-1.925 1.061h-0.182l-0.169-0.049c-7.714-1.827-47.049-11.866-49.438-12.878-2.346-0.997-4.939-3.941-5.1-7.405-0.155-2.353 0.794-5.746 5.887-8.521 3.801-2.037 90.712-49.27 94.751-111.99 2.073-31.944-17.472-62.821-58.043-91.815l-0.113-0.084-0.211-0.162-6e-3 -0.021c-3.555-3.266-5.417-8.03-5.276-13.475 0.161-7.306 3.793-14.606 9.673-19.502 10.482-8.746 27.603-6.913 36.638 3.926 0 0 0.415 0.493 0.702 0.836 6.035 6.801 45.448 53.324 45.448 110.49 0 1.805-0.049 3.596-0.12 5.409-1.594 36.279-19.046 69.488-51.882 98.7" fill="#0082ca"/>
		</g>
	</g>
</g>
</svg>