<?xml version="1.0" encoding="utf-8"?>
<svg version="1.2" baseProfile="tiny-ps" id="Layer_1" xmlns="http://www.w3.org/2000/svg" xmlns:xlink="http://www.w3.org/1999/xlink"
	viewBox="0 0 56.7 56.7" xml:space="preserve">
	<title>MediaMarkt Saturn</title>
<g id="Ebene_2">
	<path fill="#DF0000" d="M51.8,29.4c-3.3-4.5-7-7.1-7.1-7.1c-4.1-2.7-9-3.7-13.2-2.4c-3,0.9-5.3,3-6.4,5.6c-0.2,0.2-0.3,0.5-0.6,0.8
		c0.3-2.7,1.9-5.1,4.6-6.7c3.7-2.3,8.6-2.7,13.4-1.1c0,0,4.3,1.6,8.6,5l0.1,0.1l-0.1-0.2c0-0.2-0.1-0.5-0.1-0.7
		c-0.5-1.8-1.1-3.5-2.1-5.3l0,0l0,0c-5-2.2-9.5-2.6-9.6-2.6c-5.1-0.3-9.9,1.4-12.9,4.8c-2.2,2.4-3,5.4-2.3,8.3c0,0.1,0,0.2,0,0.3
		c0,0.1,0,0.2,0,0.3c-1.1-2.6-1-5.5,0.3-8.2c1.9-3.9,6.1-6.9,11.1-7.9c0,0,4.5-0.8,9.8,0h0.1l-0.1-0.1c-1.4-1.5-3-2.7-4.7-3.8l0,0
		l0,0c-5.4,0.7-9.5,2.5-9.5,2.5c-4.7,2.3-8,6.2-8.8,10.6c-0.6,3.2,0.1,6.2,2.2,8.3c0.1,0.2,0.2,0.5,0.3,0.6
		c-2.3-1.6-3.7-4.2-3.9-7.3c-0.3-4.3,1.8-9,5.7-12.4c0,0,3.4-2.9,8.5-4.8l0.1-0.1h-0.1C33,5.3,30.9,5,28.7,5l0,0l0,0
		c-4.2,3.2-6.7,6.7-6.7,6.7c-3,4.3-3.8,9.5-2.3,13.7c1,3.1,3.3,5.3,6.2,6.2l0,0H26c0.1,0.1,0.2,0.2,0.5,0.2
		c-2.9-0.2-5.4-1.8-7.1-4.3c-2.4-3.7-2.9-8.7-1.3-13.6c0,0,1.5-4,4.6-8.1l0.1-0.1h-0.1c-1.7,0.6-3.4,1.3-5,2.2l0,0l0,0
		c-2.1,4.9-2.4,9.1-2.4,9.3C15,22.3,16.7,27.1,20,30c2.4,2.2,5.4,3,8.2,2.4c0.2,0,0.6,0,0.8,0c-2.5,1.1-5.5,1-8.2-0.3
		c-3.9-2-6.9-6.1-7.8-11.1c0,0-0.7-4.2,0-9.5v-0.1l-0.1,0.1c-1.6,1.5-2.9,3.2-4,5l0,0l0,0c0.7,5.1,2.4,9,2.5,9
		c2.3,4.7,6.3,8,10.7,8.8c3.2,0.6,6.2-0.2,8.5-2.3l0,0l0.1-0.1c0.1-0.1,0.3-0.1,0.5-0.2c-1.6,2.4-4.2,3.8-7.3,4
		c-4.5,0.3-9-1.8-12.5-5.7c0,0-3.1-4.1-4.8-8.8c-0.3,0-0.3-0.1-0.3-0.1c0-0.1,0-0.1-0.1-0.2l0,0l0,0c-0.3,0.1-1,4.7-1.2,6.6l0,0l0,0
		c2.8,3.5,7,6.7,7,6.7c4.1,2.9,9.1,3.8,13.3,2.4c3-0.9,5.3-3,6.3-5.7c0.2-0.2,0.3-0.5,0.5-0.7c-0.3,2.7-1.9,5.1-4.6,6.7
		c-3.7,2.3-8.6,2.7-13.4,1.1c0,0-4-1.5-8.1-4.7l-0.1-0.1L6,33.7c0,0.1,0,0.2,0.1,0.3c0.5,1.9,1.1,3.8,2.2,5.4l0,0l0,0
		c4.8,1.9,8.9,2.4,9,2.4c5.1,0.3,9.9-1.4,12.8-4.7c2.2-2.4,3-5.4,2.4-8.2c0-0.2,0-0.5,0-0.7c1.1,2.6,0.9,5.5-0.5,8.2
		c-1.9,3.9-6.1,6.7-11.1,7.7c0,0-4.2,0.7-9.4,0h-0.1l0.1,0.1c1.3,1.4,2.6,2.5,4.2,3.5l0,0l0,0c5.4-0.7,9.4-2.5,9.4-2.5
		c4.6-2.2,7.8-6.1,8.7-10.3c0.7-3.1,0-6.1-1.8-8.3c-0.1-0.2-0.2-0.6-0.5-0.8c2.2,1.7,3.5,4.2,3.7,7.3c0.2,4.3-1.9,8.9-5.7,12.2
		c0,0-3.5,2.9-8.6,4.9h-0.1H21c2.1,0.7,4.1,1,6.3,1.1l0,0l0,0c4.5-3.3,7.1-7,7.1-7c2.9-4.3,3.8-9.4,2.3-13.6c-1-3.1-3.2-5.3-6.2-6.2
		c-0.2-0.1-0.3-0.2-0.6-0.3c2.9,0.2,5.4,1.8,7.1,4.3c2.5,3.7,3,8.8,1.3,13.6c0,0-1.6,4.3-5,8.6l-0.1,0.1h0.1
		c0.2-0.1,0.6-0.1,0.8-0.2c1.7-0.5,3.4-1,5-1.9l0,0l0,0c2.2-5,2.5-9.5,2.5-9.5c0.3-5-1.4-9.7-4.6-12.7c-2.3-2.2-5.3-3.1-8.1-2.6
		c-0.2,0-0.6-0.1-0.8-0.1c2.5-1,5.5-0.8,8.1,0.6c3.8,1.9,6.6,6.1,7.5,11c0,0,1,4.5,0.2,9.5c0,0.1,0,0.1,0,0.1c0.1,0,0.2,0.1,2.3-2.5
		c1-1.3,2.1-2.6,2.1-2.6l0,0l0,0c-0.6-5.3-3-8.9-3-8.9c-2.3-4.6-6.2-7.9-10.4-8.8c-3.1-0.7-6.1,0-8.3,1.9c-0.2,0.1-0.5,0.1-0.7,0.2
		c1.7-2.2,4.3-3.5,7.3-3.7c4.3-0.2,8.8,1.9,12.1,5.7c0,0,2.9,3.4,4.8,8.5l0.1,0.1v-0.1C51.4,33.2,51.7,31.4,51.8,29.4L51.8,29.4
		L51.8,29.4z"/>
</g>
</svg>
