<?xml version="1.0" encoding="utf-8"?>
<svg version="1.2" baseProfile="tiny-ps" id="Logo" xmlns="http://www.w3.org/2000/svg" xmlns:xlink="http://www.w3.org/1999/xlink"
	viewBox="0 0 56.7 56.7" xml:space="preserve">
<title>Saturn</title>
<path fill-rule="evenodd" d="M0,0h56.7v56.7H0V0z"/>
<path fill="#EF7C00" d="M42.1,27.2c0,0,0,0.5,0.1,0.8c0,0.2,0,0.6,0,0.6h0.1c2.8,2.3,5.8,5.3,6.3,7.6c0.2,0.7,0.1,1.3-0.2,1.7
	c-0.2,0.6-0.8,0.9-1.6,1.3c-3.9,1.3-13.4-1.3-21.2-5.1c-5.6-2.8-10.4-6-13.7-9.3c-3-2.9-3.8-5.3-3.1-6.7c0.2-0.6,0.8-0.9,1.5-1.3
	c2.5-0.9,7.4-0.2,12.2,1.2c-2.3,1.7-3.8,3.9-4.5,6.3l0,0l0,0c-0.2,2.1,2.8,4.9,5.9,6.4c0,0,0.2,0.1,0.2,0v-0.2
	c-0.8-5.2,3.2-13,7.4-14.6c0.2-0.1,0.5-0.2,0.6-0.2c0,0-1.3-0.1-1.5-0.1c-2.5,0-4.9,0.7-6.6,1.7c-8.2-2.3-14-2.7-16.6-1.9
	c-0.9,0.2-1.6,0.8-2,1.4c-0.3,0.7-0.3,1.5,0,2.5c1.2,3.4,5.9,7.9,12,11.9c0.9,4.7,5.1,9.5,11.1,10.2h0.2h0.1c0,0-0.2-0.2-0.3-0.2
	c-1.9-1.4-3.6-3.8-4.2-5.9c0.1,0.1,0.6,0.2,0.7,0.2c9.7,4.9,19.9,7.3,24.4,5.8c1-0.3,1.7-0.8,2.1-1.5c0.2-0.7,0.2-1.5-0.1-2.4
	c-0.8-2.5-4.5-6.4-9.2-9.8C42.3,27.5,42.1,27.2,42.1,27.2"/>
</svg>
