<?xml version="1.0" encoding="utf-8" standalone="yes"?><svg xmlns="http://www.w3.org/2000/svg" width="200" height="200" viewBox="16.692 7.722 74.502 75.334" version="1.2" baseProfile="tiny-ps"><title>Phantom Fireworks Company LLC.</title><defs><radialGradient id="B" cx="235.911" cy="207.394" r="36.286" gradientUnits="userSpaceOnUse"><stop offset="0.01" stop-color="#f97306"></stop><stop offset="0.07" stop-color="#f97a05"></stop><stop offset="0.17" stop-color="#fa8f04"></stop><stop offset="0.28" stop-color="#fbb203"></stop><stop offset="0.41" stop-color="#fee100"></stop><stop offset="0.45" stop-color="#fff200"></stop><stop offset="0.62" stop-color="#fcbf02"></stop><stop offset="0.81" stop-color="#fa8804"></stop><stop offset="0.91" stop-color="#f97306"></stop></radialGradient></defs><g stroke="#231f20" transform="matrix(1, 0, 0, 1, -181.996109, -162.032303)"><ellipse cx="236.008" cy="207.394" rx="36.189" ry="36.741" fill="url(#B)" stroke-width=".65"></ellipse></g><g stroke-width=".25" fill="#955ca3" stroke="#955ca3" stroke-miterlimit="10" transform="matrix(1, 0, 0, 1, -181.996109, -162.032303)"><path d="M215.945 230.071c-.37-4.46.19-6.34.19-6.34s-.98.95-1.92 2.4c-.37.56-1.81 3.47-3.46 6.84a36.06 36.06 0 0 0 11.58 7.9c-1.23-.72-2.48-1.57-3.33-2.45-1.84-1.89-2.82-5.37-3.06-8.35zm15.77 7.55c-1.36-1.33-3.36-3.89-4.47-5.32-2.36-3.03-3.12-7.12-3.6-10.59-.47-3.47.88-6.34.88-6.34s-.44.09-1.42-.03-2.99-1.54-2.99-1.54-1.85 2.52-2.71 6.18c-1.04 4.41-.97 8.72-.84 9.76.28 2.4.61 4.89 2.36 7.5 1.76 2.62 7.23 4.88 8.19 5.26.06.02.13.03.19.05l7.11-3.25s-1.16-.19-2.69-1.68zm33.29-32.01l-2.66 4.34-4.35 7.29c-.81 1.51-1.66 3.57-1.66 3.57s.41-.48.77-.74c.37-.26.74-.33.74-.33s-.59.77-1.29 2.43l-1.29 3.53s.92-.55 2.17-.66 3.68.88 3.68.88-1.62-.22-3.72.41-5.15 2.17-5.6 2.8c-.44.63-.73 1.18-.73 1.18s.44-.29 3.46-.48c3.02-.18 6 .22 6 .22s-.41.07-.74.26l-.33.18s.11.04.37.37.48 1.44.48 1.44l-1.36-1.14-.41-.26s-.3.41-.52.44c-.22.04-1.44-.22-3.5.11s-4.49 1.07-4.49 1.07 1.33.07 2.28.7c.96.63 1.73 1.8 1.73 1.8s-1.95-1.1-3.24-1.47-1.7-.55-2.17-.55-.77.29-.77.29 1.29.26 2.25.74 2.03 1.4 2.06 1.66c.04.26-.48.11-.88.18s-1.95-.85-3.31-.96-3.46.18-3.46.18 3.39.44 4.45.99c1.07.55 1.36 1 1.36 1l-2.03-.52c-.7-.11-1.69-.26-2.76-.26s-2.5-.66-4.53.22c-2.02.88-3.48 2.25-4.38 2.5-.53.15-4.8 2.16-8.19 3.77 2.48.55 5.05.85 7.69.85 19.79 0 35.89-16.37 35.89-36.5 0-.61-.02-1.22-.05-1.82-2.77-1.1-6.97.26-6.97.26zm-19.53 26.35s1.47-.93 4.02-3.67l6.27-6.71s.1-.78.93-2.45 2.83-5.54 5.77-10.54l6.72-11.21s-6.76 6.76-14.01 15.43-9.7 19.15-9.7 19.15zm9.54-42.23c-3.43-1.96-5.47-3.62-6.55-4.35s-1.96-1.86-2.69-2.15c-.74-.29-1.77-.34-2.4-1.08-.64-.73-.88-1.66-.88-1.66s.67 1.18 1.7 1.66c.7.32 1.35.37 1.99.66.34.16 1.13.8 2.06 1.55l1.59 1.17 2.35-1.58c1.25-.92 2.28-2.39 1.62-4.01-.47-1.14-3.47-.58-5.44-.63-2.32-.06-3.05-.7-5.47-1.57-2.49-.89-6.29-1.55-9.03-1.23-5.39.64-8.82 3.76-10.78 6.26s-2.98 5.48-3.79 6.37c-1.05 1.15-3.05 1.91-3.89 3.29-.69 1.13-1.01 2.39-.67 2.93s1.75 1.97 2.68 2.95 2.79 3.43 3.09 3.92c.29.49 1.13 1.37 1.47 2.11 0-.1.02-.63.02-1.31l-1.85-2.5c-1-1.32-1.89-2.4-2.64-3.27-.72-.83-1.46-1.26-1.95-1.64-.94-.72-.58-1.05-.58-1.05s1.38-.76 2.05-.49 2.05 1.51 9.93 1.51 18.25-1.56 21.59 7.12c.64 1.66.29 3.3.22 4.9-.09 2.05-.07 4.02-.88 5.81-1.85 4.13-5.06 7.28-6.33 8.78-1.24 1.47-2.01 1.4-2.98 1.91-1.45.77-2.79 1.39-3.83 1.47-1.74.13-6.99-1.25-7.7-3.12s-1.25-3.96-1.16-4.81 1.16-4.09.8-5.34c-.12-.41-.14-.7-.38-1.22-.41-.34-.81-.77-1.06-1.32a2.67 2.67 0 0 1-.2-.71c.02.15.04.31.11.5.2.49.78 2.05.52 3.47-.71 3.87-1.89 4.73-1.46 8.39.9 7.73 3.1 9.79 3.1 9.79s3.85 2.5 7.69 3.09c1.81.28 5.56-.19 7.94-.93 1.42-.44 2.2-1.27 2.2-1.27s2.55-10.77 9.36-19.25c6.81-8.47 9.11-10.61 9.11-10.61s-.2-2.79-1.07-4.49c-1.61-3.16-4.08-6.07-7.51-8.03zm-3.99.33c-.34 1.29-1.72 2.38-4.64 3.2s-7.68 1.77-8.25 1.81c-.95.07-1.56-.02-1.56-.14s7.18-3.46 8.79-4.96c.72-.67 1.33-1.1 1.58-1.52.3-.53.15-.99.41-1.16.46-.31 4.01 1.49 3.67 2.77z"></path><path d="M225.945 210.471l.34.63c.6.5 1.22.81 1.41 1l1.64 1.76 3.73 7.17c.28.63 1.66 1.93 2.29 2.01s2.53.08 2.96.04.87-.59 1.42-1.02l1.34-.99s.75-.59.83-.91.2-2.37.24-3.36-.04-3.32-.24-3.71l-2.33-5.13c.24-.95.55-3.08.51-3.67.16-.47 1.54-3.24 1.54-3.24s-.47-.39-.99-.71c-.51-.32-1.18-.59-1.18-.59s-.16.13-.2.36c-.04.24-.08.87-.12 1.14-.04.28-.43.83-.47.91-.19.38-.24.79-.36.99s-1.38.67-1.38.67l.35-1.07.28-.99s-.55.55-1.14.99c-.59.43-1.14.59-1.14.59l1.14 1.11-1.1.04s1.58 2.29 1.74 4.78c.09 1.46-.79 1.66-.79 1.66s.08 1.5-.79 2.17c-1.1.85-3.28 0-3.79-.24-.52-.24-.44-.91-.44-.91s1.46 0 1.66-.12c.49-.29.63-1.07.79-1.58s-1.46-4.03-1.74-4.5-.28-1.03-.43-1.26c-.16-.24-.75-.75-.75-.75s.89-.06 1-.19c.22-.25 1.1-1.83 1.65-2.89l1.3-2.25s-1.97-.08-5.96-.55-7.58-1.3-7.58-1.3v1.3c0 .79.4 1.66.63 3.12a15.1 15.1 0 0 1 .16 2.06l.19.26c.06.09-.12.66-.2 1.05.24-.21.86-.8 1.31-.79 2.1.04 3.18.51 3.18.51l1.77.04.35-.31s.57.28.88 1.16c.06.16.26 1.33.26 1.33l-.68.11s-.31-.28-.46-.18c-.03.02-.05.08-.09.14-.03.06-.22.13-.26.21-.03.08-.09.51-.6 1.47-.07.14-.44.6-.68.7-.26.11-.96.07-.96.07s-.04-.5.04-.52c.66-.16 1.22-.85 1.22-.85s.04-.16.04-.22c0-.22-.2-.43-.22-.41-.35.36-1.4.5-1.8.48-.76-.03-1.14-1.11-1.25-1.03-.2.15-.25.39-.29.69.03.02.04.04.07.07l.33.33.02.02c.27.27.5.54.64.76 0 0 .02.02.02.03s0 .02.01.03c.01.03.04.06.05.08.02.04.02.07.03.1.03.07.05.15.07.22.04.17.06.31.07.45v.05l.92 1.4zm19.86 4.5s1.41-2.42 1.46-4.16c.02-.67-.49-1.91-1.14-3.4-.61-1.39-2.07-3.97-2.07-3.97s-.04.54-.25 1.34l-.96 3.38c-.08.54.81 1.55 1.42 2.83.6 1.26 1.55 3.97 1.55 3.97z"></path></g><g fill="#231f20" transform="matrix(1, 0, 0, 1, -181.996109, -162.032303)"><path d="M214.205 226.231c.94-1.45 1.92-2.4 1.92-2.4s-.56 1.88-.19 6.34c.25 2.98 1.23 6.46 3.06 8.35.87.89 2.14 1.75 3.4 2.48a35.94 35.94 0 0 0 4.56 1.54c-1.27-.52-6.37-2.7-8.05-5.21-1.75-2.6-2.07-5.09-2.36-7.5-.12-1.04-.2-5.35.84-9.76.86-3.65 2.71-6.18 2.71-6.18s2.02 1.42 2.99 1.54c.98.13 1.42.03 1.42.03s-1.36 2.87-.88 6.34c.47 3.47 1.23 7.56 3.6 10.59 1.12 1.43 3.11 3.99 4.47 5.32 1.52 1.49 2.69 1.68 2.69 1.68l-7.08 3.24a20.71 20.71 0 0 0 1.13.28l8.18-3.77c.9-.26 2.36-1.62 4.38-2.5 2.03-.88 3.46-.22 4.53-.22s2.06.15 2.76.26 2.03.52 2.03.52-.3-.44-1.36-1c-1.07-.55-4.45-.99-4.45-.99s2.1-.29 3.46-.18 2.91 1.03 3.31.96c.41-.07.92.07.88-.18-.04-.26-1.1-1.18-2.06-1.66s-2.25-.74-2.25-.74.3-.29.77-.29.88.18 2.17.55 3.24 1.47 3.24 1.47-.77-1.18-1.73-1.8c-.96-.63-2.28-.7-2.28-.7s2.43-.74 4.49-1.07 3.28-.07 3.5-.11.52-.44.52-.44l.41.26c.4.26 1.36 1.14 1.36 1.14s-.22-1.1-.48-1.44c-.26-.33-.37-.37-.37-.37l.33-.18c.33-.18.74-.26.74-.26s-2.98-.41-6-.22c-3.02.18-3.46.48-3.46.48s.29-.55.73-1.18c.45-.63 3.5-2.17 5.6-2.8s3.72-.41 3.72-.41-2.43-.99-3.68-.88-2.17.66-2.17.66.59-1.88 1.29-3.53c.7-1.66 1.29-2.43 1.29-2.43s-.37.07-.74.33-.77.74-.77.74.85-2.06 1.66-3.57 2.61-4.31 4.35-7.29c1.73-2.98 2.66-4.34 2.66-4.34s4.8-1.7 7.46.13c-.06-1.82-.24-2.86-.55-4.6-.33-.44-.26-1.09-.28-1.16-.44-1.39-1.09-4.81-1.09-4.81s-3.15 3.05-3.98 3.98-2.36 2.45-2.36 2.45-.29-2.55-.89-3.78c-2.88-5.84-6.72-7.83-9.78-9.75-1.82-1.14-3.15-2.19-3.15-2.19s3.6-2.06 4.02-3.79c.43-1.77.17-3.02-1.58-3.34-1.95-.35-2.69.27-5.44-.08-2.63-.33-9.79-4.43-16.77-2.09-8.51 2.85-10.16 10.38-11.98 12.33-1.6 1.72-3.99 1.74-4.7 5.81-.25 1.44 2.34 2.61 4.86 6.22 1.93 2.76 1.83 2.22 2.34 3.09.51.88.68 1.44 1.11 2.09.72 1.08 1.82 1.81 2.03 2.31.21.48.09.79.28 1.3s.61 1.35.63 2.32c.03 1.61-.49 2.72-.49 2.72s-.46.32-1.71-.05-3.01-1.76-3.01-1.76-1.94 2.82-2.54 4.81-1.15 4.9-1.15 4.9-1.57 1.48-2.68 3.28c-.4.66-1.79 3.43-3.38 6.68l.47.48c1.67-3.43 3.16-6.42 3.53-6.99zm54.96-28.75l-6.72 11.21c-2.94 5-4.93 8.87-5.77 10.54-.83 1.66-.93 2.45-.93 2.45l-6.27 6.71c-2.55 2.74-4.02 3.67-4.02 3.67s2.45-10.48 9.7-19.15 14.01-15.43 14.01-15.43zm-43.52 15.67c.26-1.43-.32-2.98-.52-3.47-.08-.19-.1-.35-.11-.5-.56-.79-1.33-1.76-2.33-2.81-.46-.48-.3-.92-.77-1.59-.03-.04 0-.17.03-.33-.34-.74-1.18-1.62-1.47-2.11s-2.15-2.94-3.09-3.92c-.93-.98-2.34-2.41-2.68-2.95s-.02-1.8.67-2.93c.84-1.38 2.84-2.14 3.89-3.29.82-.9 1.83-3.87 3.79-6.37s5.39-5.62 10.78-6.26c2.75-.32 6.54.33 9.03 1.23 2.42.87 3.15 1.51 5.47 1.57 1.96.05 4.97-.51 5.44.63.66 1.62-.37 3.09-1.62 4.01-1.01.74-2.35 1.58-2.35 1.58s-.81-.54-1.59-1.17c-.93-.74-1.72-1.39-2.06-1.55-.64-.29-1.29-.34-1.99-.66-1.03-.48-1.7-1.66-1.7-1.66s.24.93.88 1.66c.64.74 1.67.78 2.4 1.08.73.29 1.61 1.42 2.69 2.15s3.12 2.39 6.55 4.35 5.9 4.87 7.51 8.03c.87 1.7 1.07 4.49 1.07 4.49s-2.3 2.13-9.11 10.61-9.36 19.25-9.36 19.25-.78.83-2.2 1.27c-2.38.74-6.13 1.21-7.94.93-3.85-.59-7.69-3.09-7.69-3.09s-2.2-2.06-3.1-9.79c-.43-3.66.75-4.53 1.46-8.39zm12.47-17.98c.57-.04 5.34-.98 8.25-1.81 2.92-.82 4.3-1.92 4.64-3.2.34-1.29-3.2-3.08-3.67-2.77-.26.17-.11.63-.41 1.16-.24.43-.86.85-1.58 1.52-1.61 1.5-8.79 4.83-8.79 4.96s.61.22 1.56.14z"></path><path d="M224.935 208.681l-.07-.22c-.02-.06-.04-.12-.08-.19-.01-.02-.02-.04-.04-.06-.11-.17-.3-.41-.64-.76l-.02-.02-.33-.33-.85-.85c-.49-.58-.63-1.08-.98-1.81-.04.16-.06.3-.03.33.47.67.32 1.11.77 1.59 1 1.05 1.76 2.02 2.33 2.81v-.05l-.07-.45z"></path><path d="M223.765 207.101l-.07-.07c.03-.29.09-.54.29-.69.11-.08.49 1 1.25 1.03.41.02 1.45-.12 1.8-.48.03-.03.22.19.22.41 0 .07-.04.22-.04.22s-.56.68-1.22.85c-.07.02-.04.52-.04.52s.7.04.96-.07c.24-.1.61-.56.68-.7.51-.95.57-1.39.6-1.47s.22-.16.26-.21c.03-.06.05-.12.09-.14.15-.09.46.18.46.18l.68-.11-.26-1.33c-.31-.89-.88-1.16-.88-1.16l-.35.31-1.77-.04s-1.09-.48-3.18-.51c-.44 0-1.07.58-1.31.79.34.73.49 1.23.98 1.81.2.24.52.54.85.85zm3.29-1.58c.11.28-.33.61-.55.87-.22.25-1.09.55-1.36.44-.17-.07-1.1-.68-1.03-.96s.5-.52.75-.55m9.85 20.37c1.04-.08 2.38-.7 3.83-1.47.97-.51 1.74-.45 2.98-1.91 1.27-1.5 4.48-4.66 6.33-8.78.81-1.8.8-3.77.88-5.81.06-1.59.41-3.24-.22-4.9-3.34-8.68-13.71-7.12-21.59-7.12s-9.26-1.25-9.93-1.51c-.67-.27-2.05.49-2.05.49s-.36.33.58 1.05c.49.37 1.23.81 1.95 1.64.75.87 1.64 1.96 2.64 3.27l1.85 2.5a13.66 13.66 0 0 0-.16-2.06c-.23-1.46-.63-2.33-.63-3.12v-1.3a79.11 79.11 0 0 0 7.58 1.3c3.99.47 5.96.55 5.96.55s-.75 1.18-1.3 2.25c-.55 1.06-1.43 2.64-1.65 2.89-.11.13-1 .19-1 .19s.59.51.75.75.16.79.43 1.26c.28.47 1.89 3.99 1.74 4.5-.16.51-.3 1.29-.79 1.58-.2.12-1.66.12-1.66.12s-.08.67.44.91c.51.24 2.69 1.09 3.79.24.87-.67.79-2.17.79-2.17s.88-.2.79-1.66c-.16-2.49-1.74-4.78-1.74-4.78l1.1-.04-1.14-1.11s.55-.16 1.14-.59 1.14-.99 1.14-.99l-.28.99c-.12.43-.35 1.07-.35 1.07s1.26-.48 1.38-.67c.12-.2.17-.61.36-.99.04-.08.43-.63.47-.91s.08-.91.12-1.14c.04-.22.2-.36.2-.36s.67.28 1.18.59c.51.32.99.71.99.71s-1.38 2.76-1.54 3.24c.04.59-.28 2.72-.51 3.67.12.59 2.13 4.74 2.33 5.13.2.4.28 2.72.24 3.71s-.16 3.04-.24 3.36c-.08.31-.83.91-.83.91s-.79.55-1.34.99-.99.99-1.42 1.02c-.43.04-2.33.04-2.96-.04s-2.01-1.38-2.29-2.01c-.18-.66-3.26-6.35-3.73-7.17l-1.64-1.76c-.19-.19-.81-.5-1.41-1 .24.52.27.81.38 1.22.36 1.25-.71 4.49-.8 5.34-.09.84.44 2.94 1.16 4.81.71 1.87 5.97 3.25 7.7 3.12zm.29-23.18c-.43.11-.7-.04-.83-.2s-.09-.61.18-1.01c.28-.4 1.69-1.99 2.43-1.93.49.04.7.39.61.96 0 0-.35 1.69-2.39 2.19zm8.79 2.39c.21-.79.25-1.34.25-1.34s1.46 2.57 2.07 3.97c.65 1.48 1.15 2.73 1.14 3.4-.05 1.74-1.46 4.16-1.46 4.16s-.95-2.71-1.55-3.97c-.61-1.28-1.5-2.29-1.42-2.83s.77-2.65.96-3.38z"></path></g><g fill="#fff" transform="matrix(1, 0, 0, 1, -181.996109, -162.032303)"><path d="M 225.935 205.451 C 226.445 205.451 226.895 205.451 226.965 205.631 C 227.07500000000002 205.911 226.635 206.241 226.415 206.501 C 226.195 206.751 225.325 207.05100000000002 225.05499999999998 206.941 C 224.885 206.871 223.95499999999998 206.261 224.02499999999998 205.981 C 224.09499999999997 205.701 224.52499999999998 205.46099999999998 224.77499999999998 205.43099999999998 C 224.90499999999997 205.41099999999997 225.44499999999996 205.44099999999997 225.93499999999997 205.451 L 225.935 205.451 Z"></path><path d="M 234.075 202.421 C 233.945 202.261 233.98499999999999 201.81099999999998 234.255 201.411 C 234.535 201.011 235.945 199.421 236.685 199.481 C 237.175 199.521 237.385 199.87099999999998 237.29500000000002 200.441 C 237.20500000000004 201.01100000000002 236.90500000000003 201.401 236.745 201.55100000000002 C 236.57500000000002 201.70100000000002 235.345 202.64100000000002 234.905 202.64100000000002 C 234.465 202.64100000000002 234.205 202.60100000000003 234.075 202.44100000000003 L 234.075 202.421 Z"></path></g></svg>