<?xml version="1.0" encoding="UTF-8"?><svg xmlns="http://www.w3.org/2000/svg" fill="none" height="400" viewBox="0 0 400 400" width="400" version="1.2" baseProfile="tiny-ps"><title>new</title><path d="m0 0h400v400h-400z" fill="#091922"></path><g fill="#0fd082"><path d="m176.491 103c-38.665 1.695-69.491 33.51-69.491 72.509 0 16.543 5.66 32.504 15.91 45.305h28.553l-8.564-8.546c-9.771-9.749-15.26-22.972-15.26-36.759 0-28.711 23.325-51.986 52.099-51.986h113.262v-20.523z"></path><path d="m207.977 220.814h-29.189l-22.228-22.178c-6.147-6.134-9.6-14.453-9.6-23.127 0-18.064 14.675-32.707 32.778-32.707h113.262v20.595h-113.262c-6.704 0-12.138 5.423-12.138 12.112 0 3.212 1.278 6.293 3.555 8.565z"></path><path d="m223.509 298c38.665-1.695 69.491-33.51 69.491-72.509 0-16.543-5.66-32.504-15.91-45.305h-28.553l8.564 8.546c9.771 9.749 15.26 22.972 15.26 36.759 0 28.711-23.325 51.986-52.099 51.986h-113.262v20.523z"></path><path d="m192.025 180.186h29.187l22.228 22.178c6.147 6.134 9.6 14.453 9.6 23.127 0 18.064-14.675 32.707-32.778 32.707h-113.262v-20.595h113.262c6.704 0 12.138-5.423 12.138-12.112 0-3.212-1.278-6.293-3.555-8.564z"></path></g></svg>