<?xml version="1.0"?><svg version="1.2" baseProfile="tiny-ps" viewBox="0 0 300 300" xmlns="http://www.w3.org/2000/svg" xmlns:xlink="http://www.w3.org/1999/xlink"><title>Norion Bank</title><g><g fill="#f7f5f1" transform="matrix(.1 0 0 -.1 0 300)"><path d="M0 1515V30h2970v2970H0V1515z"/></g><g fill="#bac7bc" transform="matrix(.1 0 0 -.1 0 300)"><path d="M0 1515V30h2970v2970H0V1515zm840 798c283-58 520-278 609-567 11-37 21-84 21-103v-34l-15-29-15-30-30-15-29-15H810v-30h35c54 0 135-20 200-50l60-27 51-46 51-46 27-53c14-29 41-95 60-145l33-93 48-79c27-44 79-116 117-160 37-44 68-85 68-91v-10h-395l-68 15-68 14-67 33-67 33-65 65-65 65-32 60c-17 33-39 85-49 115l-18 55-4 597-3 597 53-5c29-3 87-12 128-21zm1081-3c198-62 341-223 378-424l11-60V687l-67 6c-187 18-350 91-489 220l-74 69-48 72c-57 86-105 196-123 283l-13 63 17 35 17 35 32 20 33 20h564l5 9 6 9-75 11c-143 21-234 67-313 157l-41 46-17 46c-59 160-79 207-125 284-28 47-82 122-120 166-38 45-69 84-69 87s101 5 224 5h224l63-20z"/></g><g fill="#688977" transform="matrix(.1 0 0 -.1 0 300)"><path d="M0 1515V30h2970v2970H0V1515zm859 799 64-14 86-41 86-40 73-56 72-55 60-74 59-74 41-82 40-83 19-74 18-74-8-34c-9-42-34-72-76-89l-32-14h-277c-153 0-275-3-272-6s36-9 72-15c89-12 170-42 231-84l50-34 39-51 39-50 37-103c20-56 47-122 60-147 39-78 127-203 174-250l46-44v-36h-426l-57 15c-31 8-84 28-116 45l-59 29-60 56c-71 65-115 131-151 223l-26 67-3 609-3 609 68-7c37-4 97-14 132-22zm1016 11 70-15 65-32 65-31 71-71 71-71 32-62c17-35 38-89 46-120l15-57V690h-45c-120 0-281 53-403 132l-75 50-57 56c-128 129-230 336-230 467v37l39 39 39 39h582v16l-82 12-82 12-73 34-72 35-45 44-45 45-24 49c-14 26-36 80-50 120-51 141-128 269-221 370l-58 63 6 15 5 15h386l70-15z"/></g><g fill="#2e5c46" transform="matrix(.1 0 0 -.1 0 300)"><path d="M0 1515V30h2970v2970H0V1515zm828 809c101-21 208-66 297-125l72-49 66-69 65-69 41-69c46-78 96-206 106-275l7-46-17-36-17-36-33-20-32-20-289-1-289-1 85-14 85-14 72-34 72-34 44-41 43-40 27-48c14-27 38-82 53-123 55-153 114-254 222-378l64-73-13-16-14-16-215 6-215 5-55 17c-30 9-82 31-115 48l-60 32-65 65-65 65-32 65c-18 36-39 92-48 125l-15 59v1176h45c25 0 81-7 123-16zm1126-17 69-27 63-45c99-71 173-176 211-300l18-60V685l-70 4-70 3-73 19-74 19-79 39c-181 91-323 240-399 419-37 87-52 145-52 199v44l26 34 26 34 38 11 37 10 270 1c149 1 257 4 240 6-84 10-156 28-211 53l-62 28-47 43c-57 53-86 102-126 210-58 160-129 281-233 395l-46 52v34l238-4 237-4 69-27z"/></g></g></svg>