<?xml version="1.0"?><svg version="1.2" baseProfile="tiny-ps" viewBox="0 0 300 300" xmlns="http://www.w3.org/2000/svg" xmlns:xlink="http://www.w3.org/1999/xlink"><title>Walley</title><g><g fill="#fff" transform="matrix(.1 0 0 -.1 0 300)"><path d="M0 1500V0h3000v3000H0V1500z"/></g><g fill="#cbd4d7" transform="matrix(.1 0 0 -.1 0 300)"><path d="M0 1500V0h3000v3000H0V1500zm990 95c0-129 2-235 5-235s113 54 245 120l240 120h50l240-120c132-66 244-120 250-120h10v470h140v-629l-16-15-15-16h-49l-292 146-293 146-292-146-293-146h-43l-19 17-18 16v497l-105 61c-58 34-105 63-105 65s81 4 180 4h180v-235z"/></g><g fill="#a4b4b8" transform="matrix(.1 0 0 -.1 0 300)"><path d="M0 1500V0h3000v3000H0V1500zm990 95c0-129 2-235 5-235s113 54 245 120l240 120h50l240-120c132-66 242-120 245-120s5 106 5 235v235h161l-3-316-3-316-19-14c-11-8-30-14-43-14h-22l-291 145-290 145-291-145-290-145h-25c-14 0-34 5-45 10l-19 11v507l-112 66-113 66h375v-235z"/></g><g fill="#59767e" transform="matrix(.1 0 0 -.1 0 300)"><path d="M0 1500V0h3000v3000H0V1500zm990 96v-234l256 124 256 125 21-7c12-4 129-60 260-125l237-119v470h160v-616l-16-22-15-22h-69l-288 144-287 144-285-144-285-143h-36l-37-1-13 17-14 16-5 251-5 250-98 57c-54 31-101 59-104 63-4 3 78 6 180 6h187v-234z"/></g><g fill="#0c3842" transform="matrix(.1 0 0 -.1 0 300)"><path d="M0 1500V0h3000v3000H0V1500zm990 100v-240l250 125c137 69 257 125 265 125s128-56 265-125l250-125v480h160v-639l-26-20c-15-12-32-21-39-21s-147 66-311 146l-299 146-295-146c-162-81-302-147-311-146-9 0-28 9-43 21l-26 20v497l-110 64c-60 34-110 66-110 71v7h380v-240z"/></g></g></svg>