<?xml version="1.0" encoding="UTF-8" standalone="yes"?>
<svg version="1.2" baseProfile="tiny-ps" viewBox="0 0 96 96" xmlns="http://www.w3.org/2000/svg">
  <title>Northmill Bank</title>
  <g>
    <rect fill="#8C5AC8" width="96" height="96"/>
    <path fill="#FFFFFF" d="M75.646 41.5011H46.7199C51.4134 35.6988 54.2921 28.368 54.486 20.3701C54.4985 19.8932 54.1124 19.5 53.6356 19.5H42.3324C41.8769 19.5 41.4997 19.8594 41.4837 20.3149C41.2827 25.8859 39.0177 31.0939 35.0555 35.0565C31.0932 39.019 25.8855 41.284 20.3166 41.4851C19.8612 41.5011 19.5 41.8783 19.5 42.3338V53.6377C19.5 54.1146 19.8932 54.5007 20.37 54.4882C28.3675 54.2925 35.6978 51.4154 41.4997 46.7216V75.6495C41.4997 76.1192 41.8805 76.5 42.3502 76.5H53.6498C54.1195 76.5 54.5003 76.1192 54.5003 75.6495V54.5007H75.6495C76.1193 54.5007 76.5 54.1199 76.5 53.6502V42.3516C76.4964 41.8819 76.1157 41.5011 75.646 41.5011Z"/>
  </g>
</svg>