<?xml version="1.0" encoding="UTF-8"?>
<svg id="Graphics" xmlns="http://www.w3.org/2000/svg" baseProfile="tiny-ps" version="1.2" viewBox="0 0 200 200">
  <title>Lumaris</title>
  <!-- Generator: Adobe Illustrator 29.1.0, SVG Export Plug-In . SVG Version: 2.1.0 Build 142)  -->
  <g id="Layer_3">
    <g id="Layer_12">
      <circle cx="100" cy="100" r="122.5" fill="none"/>
    </g>
    <g id="Layer_11">
      <path d="M114.4,29c0-4.6,3.6-8.2,8.2-8.2s8.2,3.6,8.2,8.2v14.4c0,8.3,2.3,14.8,6.8,19,7.7,7.5,20.1,7.2,20.2,7.2h14.9c4.5,0,8.2,3.6,8.2,8.2s-3.6,8.2-8.2,8.2h-15.2c-3.9,0-19.7-.7-31.1-11.6-7.9-7.5-11.8-18-11.8-30.9v-14.4h-.2Z" fill="#ff9a00"/>
    </g>
    <g id="Layer_10">
      <path d="M7.8,100.4c0-4.6,3.6-8.2,8.2-8.2h45.3c4.5,0,8.2,3.6,8.2,8.2s-3.6,8.2-8.2,8.2H15.9c-4.5,0-8.2-3.6-8.2-8.2h.1Z" fill="#e86100"/>
    </g>
    <g id="Layer_9">
      <path d="M85.4,172c0,4.6-3.6,8.2-8.2,8.2s-8.2-3.6-8.2-8.2v-14.4c0-8.3-2.3-14.8-6.8-19-7.7-7.5-20.1-7.2-20.2-7.2h-14.9c-4.5,0-8.2-3.6-8.2-8.2s3.6-8.2,8.2-8.2h14.6c2.3,0,19.4,0,31.7,11.6,7.9,7.5,11.8,18,11.8,30.9v14.4h.2,0Z" fill="#ff9a00"/>
    </g>
    <g id="Layer_8">
      <path d="M85.4,43.6c0,13-3.9,23.4-11.8,30.9-11.4,10.8-27.2,11.6-31.1,11.6h-15.2c-4.5,0-8.2-3.6-8.2-8.2s3.6-8.2,8.2-8.2h15.1s12.3.3,20.1-7.2c4.5-4.4,6.8-10.7,6.8-19v-14.4c0-4.6,3.6-8.2,8.2-8.2s8.2,3.6,8.2,8.2v14.4h-.3,0Z" fill="#ff9a00"/>
    </g>
    <g id="Layer_7">
      <path d="M108,184.4c0,4.6-3.6,8.2-8.2,8.2s-8.2-3.6-8.2-8.2v-41c0-4.6,3.6-8.2,8.2-8.2s8.2,3.6,8.2,8.2v41Z" fill="#e86100"/>
    </g>
    <g id="Layer_6">
      <path d="M108,57.7c0,4.6-3.6,8.2-8.2,8.2s-8.2-3.6-8.2-8.2V16.7c0-4.6,3.6-8.2,8.2-8.2s8.2,3.6,8.2,8.2v41Z" fill="#e86100"/>
    </g>
    <g id="Layer_5">
      <path d="M172.7,131.2h-15.1s-12.3-.3-20.1,7.2c-4.5,4.4-6.8,10.7-6.8,19v14.4c0,4.6-3.6,8.2-8.2,8.2s-8.2-3.6-8.2-8.2v-14.4c0-13,3.9-23.4,11.8-30.9,12.3-11.8,29.4-11.6,31.7-11.6h14.6c4.5,0,8.2,3.6,8.2,8.2s-3.6,8.2-8.2,8.2h.3Z" fill="#ff9a00"/>
    </g>
    <g id="Layer_4">
      <path d="M184.1,108.6h-45.3c-4.5,0-8.2-3.6-8.2-8.2s3.6-8.2,8.2-8.2h45.3c4.5,0,8.2,3.6,8.2,8.2s-3.6,8.2-8.2,8.2Z" fill="#e86100"/>
    </g>
  </g>
</svg>