<svg version="1.2" xmlns="http://www.w3.org/2000/svg" width="676" height="676" viewBox="0 0 676 676" baseProfile="tiny-ps"><title>LinkedIn</title><path fill="#0778B6" d="M571.799 63.572H104.904c-22.046-.211-40.112 17.447-40.404 39.491V571.86c.251 22.075 18.329 39.778 40.404 39.567h466.895c22.118.254 40.264-17.45 40.557-39.567V103.063c-.335-22.087-18.468-39.745-40.557-39.491z"/><path fill="#FFF" d="M145.765 269.018h81.265v261.373h-81.265V269.018zm40.481-130.039c26.013-.042 47.134 21.012 47.176 47.024s-21.011 47.134-47.024 47.176-47.134-21.011-47.176-47.024v-.076c-.001-25.983 21.041-47.058 47.024-47.1m91.689 130.039h77.994v35.687h1.065a85.372 85.372 0 0176.852-42.23c82.255 0 97.473 54.177 97.473 124.561v143.355H450.13V403.242c0-30.436-.532-69.318-42.23-69.318-41.697 0-48.773 33.023-48.773 67.112V530.39h-81.19V269.018z"/><path fill="#010101" d="M619.982 507.193h7.396v23.197h4.034v-23.197h7.48v-4.034h-18.911v4.034zm45.219-4.034l-7.901 20.003-7.984-20.003h-5.715v27.231h3.95v-20.76l8.404 20.76h2.689l8.321-20.76v20.76H671v-27.231h-5.799z"/></svg>
