<?xml version="1.0" encoding="utf-8"?>
<!-- Generator: Adobe Illustrator 24.0.3, SVG Export Plug-In . SVG Version: 6.00 Build 0)  -->
<svg version="1.2" baseProfile="tiny-ps" id="Layer_1" xmlns="http://www.w3.org/2000/svg" xmlns:xlink="http://www.w3.org/1999/xlink"
	 viewBox="0 0 93.08 93.08" xml:space="preserve">
<title>Baxter</title>
<g>
	<rect x="0" fill="#FFFFFF" width="93.08" height="93.08"/>
	<path fill="#004E98" d="M55.45,42.43l4.91-0.31l-0.56,2.11h3.98l-0.47,1.69h-4.03c0,0-1.38,5.2-1.42,5.35
		c-0.18,0.69,0.15,1.19,0.91,1.19c1.44,0,2.38,0,2.57,0c0.46,0,0.96-0.26,0.96-0.26l-0.55,1.92c0,0-5.91,0-6.17,0
		c-0.6,0-3.12-0.52-2.34-3.47C54.01,47.71,55.45,42.43,55.45,42.43L55.45,42.43z"/>
	<path fill="#004E98" d="M72.48,46.86c-0.12,0.56-0.33,1.38-0.33,1.38h-3.36c0,0,0.36-1.35,0.41-1.52c0.13-0.41,0.26-0.82,0.89-0.82
		h1.62C72.21,45.91,72.57,46.36,72.48,46.86L72.48,46.86z M74.38,44.24c0,0-4.66,0-7.25,0c-2.29,0-2.74,2.27-2.74,2.27
		s-0.4,1.51-1.14,4.45c-0.61,2.46,1.39,3.16,2.64,3.16c0.9,0,9.05,0,9.05,0l0.88-1.89c0,0-0.51,0.25-1.04,0.25h-5.93
		c-0.96,0-1.06-0.69-0.9-1.26c0.04-0.14,0.37-1.24,0.37-1.24h8.12l0.72-2.9C77.53,44.13,74.38,44.24,74.38,44.24L74.38,44.24z"/>
	<path fill="#004E98" d="M78.72,45.37c0,0-1.55,5.95-1.96,7.4c-0.21,0.72-0.74,1.35-0.74,1.35h5.65c-0.14-0.32-0.18-0.83-0.05-1.35
		c0.09-0.37,1.19-4.7,1.37-5.54c0.18-0.8,1.04-0.74,1.04-0.74s2.02,0,2.59,0c0.57,0,0.98,0.38,0.98,0.38l0.8-2.64c0,0-2.02,0-3.42,0
		c-1.4,0-1.81,1.3-1.81,1.3v-1.3h-4.55C78.81,44.69,78.72,45.37,78.72,45.37L78.72,45.37z"/>
	<path fill="#004E98" d="M40.27,44.82c0.04,0.06,3.06,5.18,3.06,5.18l-5.73,4.13h3.12l3.55-2.52c0,0,0.86,1.43,1.01,1.74
		c0.15,0.32,0.26,0.78,0.26,0.78h6.12c0,0-0.28-0.2-0.54-0.63c-0.08-0.13-2.84-4.85-2.84-4.85l6.15-4.4H50.9
		c-0.04,0.38-0.91,0.95-0.91,0.95l-2.65,1.9c0,0-1.18-1.99-1.4-2.39c-0.11-0.2-0.1-0.47-0.1-0.47h-6.12
		C39.99,44.43,40.12,44.58,40.27,44.82L40.27,44.82z"/>
	<path fill="#004E98" d="M31.93,51.8c-0.17,0.57-0.75,0.59-0.75,0.59s-1.14,0-1.96,0c-0.83,0-0.67-0.71-0.67-0.71
		s0.29-1.27,0.48-1.92c0.19-0.63,0.72-0.57,0.72-0.57h2.88C32.63,49.18,32.18,50.93,31.93,51.8L31.93,51.8z M38.03,47.03
		c0.4-1.7-1.23-2.77-2.16-2.77c-0.29,0-9.72,0-9.72,0l-0.67,1.81c0.39-0.19,0.91-0.19,0.91-0.19h6.32c0.2,0,0.58,0.06,0.6,0.47
		c0.01,0.1-0.09,0.43-0.13,0.57c-0.1,0.36-0.26,0.54-0.62,0.54h-5.48c-0.87,0-2.33,0.39-2.73,1.92c-0.1,0.4-0.29,1.06-0.43,1.63
		c-0.42,1.62,1.05,3.1,2.61,3.1h3.85c0.92,0,1.36-1.03,1.36-1.03c0.08,0.44,0.21,1.03,0.21,1.03h4.76
		c-0.41-0.62-0.21-1.24-0.21-1.24S37.59,48.93,38.03,47.03L38.03,47.03z"/>
	<path fill="#004E98" d="M19.75,43.72c-0.23,0.83-0.44,1.63-0.44,1.63s-0.15,0.76-0.8,0.76c-0.57,0-3.23,0-3.23,0l0.88-3.29
		c0,0,2.93,0,3.05,0C19.33,42.81,19.96,42.94,19.75,43.72L19.75,43.72z M18.26,48.92c-0.13,0.61-0.45,1.84-0.54,2.1
		c-0.08,0.26-0.24,0.91-1.19,0.91c-1.09,0-2.84,0-2.84,0l0.98-3.7c0,0,2.74,0,2.92,0C17.77,48.21,18.39,48.3,18.26,48.92
		L18.26,48.92z M22.3,40.62c-0.42,0-11.14,0-11.14,0c0.09,0.3,0.17,0.69,0.05,1.15c-0.02,0.08-2.95,10.8-3.1,11.27
		c-0.15,0.46-0.72,1.08-0.72,1.08s11.48,0,12.87,0c1.4,0,2.04-1.17,2.15-1.51c0.11-0.36,0.51-1.76,0.82-3.06
		c0.42-1.75-1.26-2.4-1.26-2.4c1.4-0.1,1.85-1.05,1.96-1.42c0.14-0.48,0.71-2.61,0.71-2.61C24.87,41.8,23.84,40.62,22.3,40.62
		L22.3,40.62z"/>
</g>
</svg>
