<?xml version="1.0" encoding="utf-8"?>
<!-- Generator: Adobe Illustrator 25.4.1, SVG Export Plug-In . SVG Version: 6.00 Build 0)  -->
<svg version="1.2" baseProfile="tiny-ps" id="Layer_1" xmlns="http://www.w3.org/2000/svg" xmlns:xlink="http://www.w3.org/1999/xlink"
	 viewBox="0 0 220 220" xml:space="preserve">
	 <title>Sierra Nevada Brewing Co.</title>
<g id="Layer_2_1_">
	<g id="Layer_1-2">
		<g id="Logo">
			<path fill="#231F20" d="M216.3,97.9c0-1.9-2.2-3.4-3.2-3.9c-2.1-1.1-4.5-1.7-6.9-1.6c-1.1,0-2.2,0.1-3.3,0.3
				c-3.8,0.9-5.9,2.4-6.3,4.6c-0.1,0.5,0.1,1.1,0.5,1.5c0.1,0.1,0.2,0.2,0.4,0.3c0,0.1,0,0.1,0,0.2c0.1,0.4,0.2,0.9,0.3,1.3
				c-2.5-0.4-4.9-1.2-7.1-2.2c-0.2-5.5-2.1-10.1-5.2-13.2l0,0c-0.3-0.4-0.8-0.7-1.3-0.7c-0.2,0-0.3,0-0.5,0.1
				c-2.7,0.5-5.4,0.8-8.2,0.8c-4.1,0.1-8.1-0.9-11.7-2.8c-3.6-2-6.6-4.9-9.6-7.7c-3.3-3.1-6.4-6.1-10.2-7.8c-1.4-0.6-3-1.1-4.5-1.2
				c-0.3,0-0.7,0-1,0c-1.8,0.2-3.5,0.5-5.2,1H133c-6.9,1.2-14,1.8-21,1.8l0,0c-8.8,0-17.6-0.9-26.2-2.6h-0.3c-0.5,0-3.7-0.1-4.9-0.1
				c-5.8,0-10.2,4.6-12.7,7c-8,8.1-16,12.1-24.5,12.1c-2.4,0-4.8-0.3-7.1-0.9c-0.1,0-0.3,0-0.4,0c-0.5,0-0.9,0.2-1.2,0.6
				c-2.9,3.8-5,8.3-6,13c-2.3,1-4.7,1.8-7.2,2.3c0.1-0.3,0.1-0.7,0.1-1c0-0.2,0-0.4-0.1-0.6c0.2-0.3,0.3-0.7,0.4-1.1
				c0.1-0.4-0.1-0.9-0.3-1.2c-1.7-2.1-5.4-3.5-9-3.5c-1.1,0-2.2,0.1-3.3,0.4c-2.4,0.6-5.6,2.7-5.3,5.1c0.1,0.5,0.2,1,0.5,1.4
				c-0.1,0.3,0,0.6,0.1,0.9c0,0,0,0.1,0.1,0.2c0.3,0.7,0.5,1.4,0.7,2.2c0.2,1,0.4,2,0.5,3c0,0.2,0.1,0.4,0.2,0.6c0,0.1,0,0.3,0,0.4
				c0.2,2.6,0.1,5.2-0.3,7.8l-0.1,0.8c-0.2,0.2-0.3,0.5-0.3,0.8c0,0.5-0.2,1-0.4,1.4c-0.2,0.3-0.4,0.6-0.6,0.8l0,0
				c-0.5,0.5-0.7,1.3-0.3,1.9c0.7,1,1.5,1.9,2.5,2.6c1.9,1.3,4.2,2,6.6,1.9h0.6c-0.9,1.6-1.5,3.4-1.5,5.2c-0.1,2.2,0.7,4.3,2.2,5.8
				c1.1,1.1,2.5,1.9,4.1,2.2c0.2,0.3,0.4,0.6,0.8,0.7l0.8,0.3c3.6,1.6,7,3,9.9,5.8c0.7,0.7,1.3,1.4,1.9,2.2c0.3,0.4,0.7,0.9,1,1.4
				c0.2,0.2,0.4,0.5,0.6,0.9c1.3,1.9,2.2,3.1,3.4,3.4c0.8,0.2,1.6,0.3,2.4,0.3c0.4,0,0.7,0,1-0.1c4.6-1.2,5.8-5,5.5-7.2
				c-0.3-1.5-1.1-2.9-2.2-3.9c-0.3-0.2-0.5-0.5-0.7-0.8l-0.5-0.7c2.2-3.4,5.6-5.8,9.5-6.9l0.3-0.1c0.3,0.3,0.7,0.4,1.1,0.5h0.2
				c1.8,0.2,3.6,0.7,5.3,1.5c1.8,0.7,3.6,1.3,5.4,1.8c1.8,0.3,3.6,0.5,5.4,0.5c0.3,0,0.6,0,0.9,0c4.1-0.6,7.7-2.9,10-6.4l0,0
				c0.3,0,0.5-0.1,0.7-0.2c0.8-0.4,1.5-0.8,2.3-1.3c2.6-1.6,5.4-3.2,8.7-3.4h1.6c0.5,0,0.9,0,1.4-0.1c0.2,0,0.3-0.1,0.5-0.1
				c1-0.7,1.7-1.8,1.7-3.1c1-0.5,2.2-0.8,3.4-0.8c2.9,0.1,5.6,1.3,7.5,3.5c0.3,0.3,0.7,0.5,1.1,0.5h0.1c0.4,0,0.8-0.2,1.1-0.4
				c2.2-2.2,5.1-3.5,8.2-3.6c1,0,2.1,0.1,3.1,0.5c0.3,1.8,1.1,3.1,2.3,3.5c0.2,0.1,0.3,0.1,0.5,0.1h0.1h0.9c5.4,0,8.5,2.5,12.1,5.4
				c0.2,0.2,0.4,0.3,0.7,0.3c1.7,3,4.6,5.1,8,5.8c0.7,0.1,1.5,0.2,2.2,0.2l0,0c2.7-0.1,5.3-0.8,7.6-2.1l1.3-0.6
				c2.3-1.1,4.8-1.6,7.4-1.6c1.3,0,2.6,0.2,3.8,0.6c0.2,0.1,0.3,0.1,0.5,0.1c0.2,0,0.4,0,0.5-0.1c2.9,2.2,5.4,5,7.1,8.3
				c-0.5,0.4-1.1,0.8-1.7,1.2c-0.4,0.2-0.8,0.5-1.3,0.8c-0.2,0.1-0.4,0.4-0.5,0.6c-0.8,1.7-0.5,3.7,0.6,5.2c1.4,2.3,3.9,3.8,6,3.8
				l0,0c0.4,0,0.8-0.1,1.2-0.2c0.3-0.1,0.6-0.3,0.8-0.6c1.9-3.1,4.4-5.8,7.4-7.9c1.9-1.3,4-2.5,6.2-3.4c1.2-0.5,2.4-1.1,3.8-1.8
				c0.4-0.2,0.7-0.6,0.8-1.1c0.7-0.1,1.3-0.3,1.9-0.5c2.2-0.9,3.9-2.7,4.7-4.9c1-2.7,0.9-5.8-0.4-8.4h0.2c2.3,0.1,4.7-0.6,6.6-1.9
				c1-0.7,1.8-1.5,2.5-2.5c0.4-0.6,0.2-1.4-0.3-1.9c-0.2-0.3-0.4-0.5-0.6-0.8c-0.2-0.6-0.3-1.1-0.4-1.7c0-0.3-0.1-0.6-0.3-0.8
				c0.1-0.2,0.1-0.3,0.1-0.5c0-1-0.1-1.9-0.3-2.9c-0.3-1.3-0.4-2.7-0.2-4.1c0.1-0.4,0-0.8-0.2-1.1c0.1-0.5,0.5-1.6,0.8-2.8
				c0.4-1.3,0.9-2.6,1.6-3.8c0.2-0.3,0.2-0.7,0.1-1.1C216.2,99,216.3,98.4,216.3,97.9z"/>
			<path fill="#FFD534" d="M133.2,68.3c0.2,0.2-1,0.8-1.5,1.2c-1.6,1.6-2.6,3.7-2.8,5.9c-0.1,4.3,2.8,7.2,5.4,9.2
				c-7.5-1.7-16-3.7-24.1-3.6c-7.8,0-15.7,1-23.2,3c3.1-2.2,4.6-6.1,3.7-9.8c-0.7-3.2-2.9-5.1-5.2-6.8
				C100.2,70.5,117.6,71.2,133.2,68.3z"/>
			<path fill="#FFD534" d="M10.2,102.6c2.8,1.5,7.7,1.3,11.5,0.6c3.4-0.7,6.8-1.7,10-3.1c1-4.7,1.8-10.1,5.3-12.7
				C49.3,90,58.1,85,65.7,79.1c4.1-3.2,8.4-8.8,13.5-9.9c3.6-0.7,7.2,1.3,8.5,4.6c1.3,3.7-1.4,8.1-3.9,8.6c-4,0.9-6.1-3.8-3.3-5.6
				c0.4,1.1,1.2,1.3,2.1,0.2c0.3-0.8,0-1.8-0.9-2.1c-0.1,0-0.1,0-0.2-0.1c-3.5-0.8-4.9,3.9-4.1,6.5c0.9,2.4,3.5,3.8,6,3.2
				c3.8-0.8,6.9-5.6,6.7-9.4c-0.4-2.7-2-5.1-4.5-6.4C78.3,65.1,72.8,70.1,69,74c-7.5,7.6-18.6,15.3-33.1,11.6
				c-2.9,3.7-4.9,8-5.8,12.6c0,0.2,1.2,1.5,1.2,1.6c-0.5-0.4-1.1-0.7-1.7-0.9c-5.3,2.5-15.2,4.7-19.9,1c-5-3.9,6.2-5.9,7.6-2.8
				c-0.3,0.1-1.8-0.8-2,0.3c0.7,1.9,4.9,1.5,5.1-0.5c-1.7-2-6.4-3.7-10.7-2.6c-1.9,0.5-4.2,2.3-4.1,3.6
				C5.6,99.4,9.3,102.1,10.2,102.6z"/>
			<path fill="#FFD534" d="M87.3,77.4c0.4-0.7,0.5-1.6,0.2-2.3c-1.5-0.2-2.8-0.1-4.9-0.2c1,0.4,0.8,1.7,0.4,2.6
				C84.2,77.7,85.8,77.3,87.3,77.4z"/>
			<path fill="#FFD534" d="M23.2,115.4c1,1.7,1.9,3.5,2.9,5.1c-0.5,0.6-0.9,1.3-1.2,2c9.1-3.6,8,8.7,12.1,12
				c2.5-2.6,5.4-5.4,9.2-7.2c4.4-1.9,9.4-2.4,14.1-1.4c2.9,0.8,5.6,2.8,8.3,3.5c0.4,0.1,1.7-0.1,1.8-0.5c-4.9-3.7-0.8-9.8,3.5-10.2
				c1.7-0.2,3.4,0.7,5.1,0.8c2.1,0.1,4.2-0.1,6.2-0.6c2.9-1,5.6-3.3,8.8-2.2c4-3.2,11.9-1.9,15.1,1.1c3.3-3.5,12-3.7,16.2-0.9
				c2.4-1.3,3.8,0.1,6.8,1.2c2.9,1.2,6,1.8,9.1,1.9c1.7-1,3.6-1.2,5.5-0.7c4.6,1,5.2,7.5,1.8,9.7c1.9,1.3,4.5-0.3,6.8-1.4
				c3.9-1.8,8.2-2.5,12.4-1.9c1.9,0.4,3.7,1,5.5,1.8c1.7,0.9,3.2,2,4.7,3.1c1.7,1.7,3.3,3.6,4.7,5.6c3.2-4.5,2.9-15.9,11.2-13.8
				c0.2-0.7-0.5-1-0.7-1.8c1-1.5,1.7-3.5,2.9-4.9c3.5,1.1,7.9,3.7,12.4,2.4c1.6-0.6,3.3-1.3,4.2-2.8c0.1-1.7-0.9-5.2-0.4-7.2
				c-8.7,5.9-22.7,1.2-29.3-3.6c-0.1-4.5-1.1-8.1-3-10.8c-12.9,2.4-24.5-3.8-31.3-11c-1.2-1.1-2.5-2.2-3.6-3.2
				c-0.4-0.4-0.8-0.8-1.2-1.1c0.8,11.3-11.1,6.9-17.5,5.6c-7-1.4-14.1-2-21.2-1.7c-6.3,0.4-12.5,1.4-18.6,3.1
				c-4.9,1.6-10.2-0.3-9.6-6.1c0.1-0.7,0.3-1.3,0.5-2c-8.9,8.3-19.3,18.8-37.4,15.6c-1.9,2.8-2.9,6.5-3.2,11
				c-7.1,4.4-21.3,9-29.2,2.9c0.2,3,0,6.1-0.4,9.1C11,118.5,19.1,117.3,23.2,115.4z"/>
			<path fill="#FFD534" d="M136.9,74.9c-0.7,0-3.6-0.2-4.4,0.3c-0.3,0.6-0.3,1.3,0,1.9c1.5,0.4,3,0.4,4.5,0.1
				C136.1,76.7,136.4,75.5,136.9,74.9z"/>
			<path fill="#FFD534" d="M191.5,133.1c1.6,2.6,3.7,1.3,5.3-0.3c-1.5,0.1-2.5-1.3-3.2-2.5C192.8,131.2,192.1,132.1,191.5,133.1z"/>
			<path fill="#FFD534" d="M141.9,123.7c-0.6,0.6-0.9,1.6-0.7,2.5c0.6,0.1,1.1,0.4,1.8,0.4c-0.1-0.8,0.2-1.7,0.9-2.1
				C143,124.3,142.8,123.7,141.9,123.7z"/>
			<path fill="#FFD534" d="M75,124c0.5,0.7,0.8,1.6,0.8,2.5c0.7-0.1,1.4-0.4,2-0.8c0.1-0.7,0-2-0.7-2.3
				C76.5,123.7,75.8,123.9,75,124z"/>
			<path fill="#FFD534" d="M22.3,136.6c5-0.6,10-5.3,9.4-10.6c-0.5-4.6-6.1-4.3-8.8-2c-2,1.8-3.1,4.3-3.2,6.9
				c1.5,1.5,5.5,0.6,5.1-1.5c-0.7-1.2-2.1,0.8-2.9,0c-0.6-4.7,9.1-6.3,7.1,0.3c-1.3,4.3-10,7.7-12.7,3.1c-2.5-4.3,2.4-9.3,3.9-11.9
				c-3.2,0.9-6.6,4.9-6.7,9.1C13.6,134.6,17.3,137.3,22.3,136.6z"/>
			<path fill="#FFD534" d="M25.1,130c-0.4,2-2.7,2.3-4.4,2c0.6,0.8,1.4,1.5,2.3,1.9c1.4-0.1,2.6-0.8,3.4-1.9
				C26.2,131.3,25.7,130.6,25.1,130z"/>
			<path fill="#FFD534" d="M32.5,127.1c-0.2,0-0.1,0-0.3,0c0.2,2.6-2,6.1-3.9,7.7c-2.4,1.9-5.5,2.8-8.6,2.5c4,1.7,7.9,3.3,11.1,6.4
				c1.1,1.2,2.1,2.5,3,3.8c0.8,1,2.3,3.5,3.2,3.7c0.9,0.2,1.8,0.2,2.7,0.2c3.9-1,4.6-4.1,4.4-5.4c-0.3-2.1-1.9-2.8-2.7-4
				C38,137.2,34.2,133.4,32.5,127.1z"/>
			<path fill="#FFD534" d="M64.3,135.8c1.9,0.4,3.9,0.5,5.8,0.5c6.8-0.9,13.1-8.5,9.3-14.9c-3.3-4.5-12.3-1.5-10.3,5.2
				c0.6,1.6,2.2,2.5,3.8,2.3c0.9-0.2,1.6-0.8,2-1.7c0.5-1.1,0.5-2.4-0.4-2.9c-0.2-0.1-0.4-0.1-0.6,0c-0.8,0.7,0,2-1.4,2.2
				c-0.6,0.1-1.2-0.2-1.5-0.8c-1.1-2.2,1.8-4.5,3.3-4.6c2.1-0.1,3.9,1.4,4.1,3.5c0.6,6.6-5.4,10.6-11.6,10.1
				c-5.4-0.5-9.9-3.6-13.7-2.2C55.9,132.4,59.9,134.7,64.3,135.8z"/>
			<path fill="#FFD534" d="M95.6,119.1c-0.6-1.2-1.8-2.1-3.2-2.2c-2.8-0.5-5.2,1.9-8.2,2.6c-1.7,0.3-3.4,0.5-5.1,0.5
				c2.1,2.8,2.6,6.6,1.2,9.8c3.3-1.8,6.8-4.5,11.6-4.9c0.7-0.1,1.7,0.1,2.9-0.1C95.9,124.4,96.2,120.9,95.6,119.1z"/>
			<path fill="#FFD534" d="M118.9,119.5c-1.9-0.1-3.9,0.2-5.8,0.8c-1.1,0.3-3.2,2.5-3.8,2.5c-0.1,0-1-1-1.4-1.2
				c-3.4-2.2-7.7-2.6-11.5-1.1v1.4c4.7-2.5,10.4,0,12.8,2.9c2.8-2.8,8-5.3,13.3-3.2C123,119.6,120.3,119.6,118.9,119.5z"/>
			<path fill="#FFD534" d="M138.6,130.6c-0.5-1.5-0.7-3.2-0.6-4.8c0-2.5,1.2-4,2.6-5.5c-3.3,0-6.5-0.7-9.5-2
				c-1.3-0.5-2.9-1.6-3.9-1.5c-1.9,0-3.3,1.3-3.9,3.4c-0.3,2.3,0.2,4.3,1.3,4.7C131,124.6,134.6,127.4,138.6,130.6z"/>
			<path fill="#FFD534" d="M156.7,133.9c4.7-2.1,9.4-2.1,12.4-1.1c-3.1-2.5-7.8-2.3-12.2-0.7c-2.3,0.8-4.3,2.3-7,2.4
				c-2.5,0-4.9-0.8-6.8-2.3c-2.9-2.8-3.5-7.8-0.8-10.2c2.4-2.2,7.6,0.7,5.9,3.9c-0.7,0.7-2.3,1.1-3,0.2c-0.1-0.6,0.9-0.6,0.3-1.2
				c-1.5-0.6-2.3,0.4-2.1,1.7c0.2,1.5,2.2,2.3,3.6,2c3.5-0.8,4.3-6.6,0.9-8.3c-1.9-1.1-4.1-1.1-6-0.2c-2.5,1.4-4,5.6-2.9,9.4
				c0.8,3.7,4.5,6.3,7.6,6.8C150.7,137.1,153.5,135.4,156.7,133.9z"/>
			<path fill="#FFD534" d="M198.4,138.9c-5.3,0.3-10.1-3-11.7-8c-0.2-0.7-0.3-1.5-0.2-2.3c-1.8,6.6-3.6,10.1-8.7,15
				c-1,0.8-2.1,1.5-3.2,2.2c-1.5,3.1,3.2,7.6,6,6.7c2-3.3,4.6-6.1,7.8-8.3C191.5,141.8,194.6,140.9,198.4,138.9z"/>
			<path fill="#FFD534" d="M204.8,126c-0.9-1.8-2.1-2.3-4.4-3.5c1.9,2.5,4.3,5.4,3.3,9.9c-1.7,4.3-8.6,5-12.2,1.5
				c-1.8-1.7-3.7-6.8-0.8-8.2c2.9-1.4,7.1,1.4,5.6,4.3c-1.1,0.4-1.3-0.8-2.1-0.3c0,1.4,1.1,2.6,2.5,2.6c1.2,0,2.3-0.8,2.5-2
				c0.6-3.4-2.6-7.2-6-7.7c-4-0.5-6.5,2.7-6,6.3c0.7,6,7.8,10.8,14.2,8.3C205.7,135.5,206.7,129.6,204.8,126z"/>
			<path fill="#FFD534" d="M214.8,97.9c0-1-1.6-2.2-2.4-2.6c-2.8-1.4-6-1.7-9.1-1.1c-2.1,0.5-4.8,1.5-5.1,3.4c1.4,1.2,5.5,2.2,6.5,0
				c-0.5-0.4-1.7-0.1-2.1-0.6c1.1-2.1,8.7-1.8,9.1,0.9c0.2,1.5-2.7,3.2-4.1,3.7c-5.8,2-13.5,0.1-18-2.2c-0.8-0.2-0.7,0.5-1.4,0.5
				c0.1-0.6,1-0.5,1.1-1.2c-0.2-5.2-1.9-9.7-4.8-12.5c-0.2-0.2-0.1-0.2-0.3-0.1c-8.6,1.5-15.1,1.1-21-2.2
				c-7.8-4.3-12.7-12.3-19.6-15.4c-1.3-0.6-2.7-0.9-4.1-1.1c-4.3-0.3-8.2,2.4-9.4,6.5c-1.3,5.2,3.5,11.8,9.1,11
				c6-1.3,4.3-13-1.7-9.9c-0.5,0.7-0.6,1.6-0.1,2.3c0.5,0.4,1.2,1.3,2.6-0.6c2.2,0.5,1.4,4.6-0.1,5.7c-3.1,2.2-7.4-2.1-7.9-5.2
				c-0.4-3.8,2.3-7.3,6-7.9c4.6-0.7,8.8,2.9,11.6,5.7c1.5,1.5,3,2.9,4.5,4.3c1.5,1.4,7.1,5.7,10.9,7.2c5.4,2.2,12.2,2.6,18.8,1.2
				c2.6,3,3.6,8,4.2,12.6c4.9,2.9,13.5,4.7,20.1,2.6c1.5-0.5,3-1.2,4.4-2C213.1,100.5,214.8,98.8,214.8,97.9z"/>
			<path fill="#FFD534" d="M204.3,99c-1.7,0.7-3.6,0.7-5.3,0c0.2,1,0.6,1.7,0.8,2.7c1.5,0.2,3,0.2,4.5,0
				C204.2,100.8,204.2,99.9,204.3,99z"/>
			<path fill="#231F20" d="M187.8,116c-1.2-0.5-1.8-1.8-1.3-3s1.8-1.8,3-1.3c1.2,0.5,1.8,1.8,1.3,3c0,0,0,0,0,0
				C190.4,115.9,189,116.5,187.8,116z M189.4,112c-1-0.4-2.2,0-2.6,1.1s0,2.2,1.1,2.6c1,0.4,2.2,0,2.6-1.1c0,0,0-0.1,0-0.1
				C190.9,113.5,190.4,112.4,189.4,112L189.4,112z M188.7,115.3l-0.4-1.3l-0.3-0.1l-0.4,1l-0.4-0.2l1-2.5l0.9,0.3
				c0.6,0.3,0.8,0.6,0.6,1.1c-0.1,0.4-0.5,0.6-0.9,0.5c0,0-0.1,0-0.1,0l0.4,1.4L188.7,115.3z M189.3,113.2c-0.1-0.1-0.2-0.2-0.4-0.2
				l-0.4-0.2l-0.3,0.8l0.4,0.2c0.4,0.2,0.6,0.1,0.7-0.2C189.4,113.4,189.4,113.3,189.3,113.2L189.3,113.2z"/>
			<path fill="#231F20" d="M184.9,110.1c-0.3-0.2-7.7-3.3-8.4-3.5c0,0-0.4,0-0.3,0.3l0,0.2c0.2,0.3,0.3,0.6,0.3,0.9
				c0,0.1,0,0.2-0.1,0.3c-1.5,2.3-3.2,4.6-5.1,6.7c-0.5,0.3-1,0.5-1.5,0.7c-0.1,0-0.2,0.1-0.2,0.3c0,0.1,0,0.1,0.1,0.2
				c1.5,0.6,3.6,1.5,4,1.6h0.1c0.1,0,0.2-0.1,0.2-0.3c0-0.1-0.1-0.3-0.1-0.4c-0.1-0.1-0.1-0.3-0.1-0.5c0-0.7,0.8-1.4,1.1-1.6h0.1
				h0.1c1.5,0.3,2.8,0.9,4,1.8l0,0l0,0c0,0.5-0.2,1.8-1.1,1.9c-0.3,0.1-0.5,0.1-0.5,0.3c0,0.2,0.1,0.2,0.2,0.2
				c0.1,0.1,2.7,1.1,3.7,1.5h0.1c0.1,0,0.2-0.1,0.2-0.2c0,0,0,0,0,0c0-0.1,0-0.2-0.1-0.2c-0.2-0.5-0.3-1-0.2-1.5l0,0
				c0.5-2.6,1.2-5.2,2.2-7.6c0.3-0.4,0.7-0.7,1.2-0.8c0.1,0,0.2-0.1,0.2-0.2C185,110.1,184.9,110.1,184.9,110.1z M179.9,114.2
				C179.9,114.2,179.9,114.2,179.9,114.2L179.9,114.2c-1.1-0.3-2.2-0.7-3.2-1.3h-0.1l0,0c0,0,0-0.1,0-0.1c0.3-0.6,0.6-1.2,1-1.7
				c0.3-0.5,0.7-0.9,1.2-1.3c0,0,0,0,0.1,0h0.1c0.7,0.1,1.4,0.4,1.9,0.8c0,0,0,0,0.1,0.1c0,0,0,0.1,0,0.1
				C180.8,112,180.4,113.1,179.9,114.2L179.9,114.2z"/>
			<path fill="#231F20" d="M135.8,94.7c-1-0.2-10.5-1.4-11.5-1.4h-0.1c-0.1,0-0.2,0.1-0.2,0.3c0,0.1,0,0.1,0.1,0.2
				c0,0,0.9,0.8,0.8,1.3l0,0c-0.1,1-0.3,5.8-1,8.2c-0.4,0.6-1,1-1.7,1.1H122c-0.4-0.3-0.7-0.6-0.9-1.1c0,0,0-0.1,0-0.2
				c0,0,0,0,0-0.1c0,0,0-0.1,0-0.1c0.1-1.8,0.9-12.1,0.9-12.1v-0.2l0,0c0,0,0,0-0.1-0.1c-0.1,0-0.1,0-0.2,0l-0.1,0.1l0,0
				c-0.5,0.5-1,0.9-1.6,1.3c-0.5,0.3-1.1,0.6-1.6,1l0,0c-0.1,0.1,0,0.2,0,0.2c0,0.2,0.1,0.2,0.6,0.5c0.2,0.4,0.3,0.9,0.3,1.4
				c0,1.2-0.2,2.8-0.2,3.4c-0.1,0.1-0.2,0.3-0.3,0.4v0.1l-0.1-0.1c-1.2-1.5-2.2-3-3.2-4.7c0,0,0-0.1,0-0.1c0-0.2,0.2-0.4,0.4-0.5
				c0,0,0.4-0.2,0.4-0.4c0-0.3-0.1-0.2-0.2-0.2c-0.9-0.2-4.5-0.4-5.5-0.5l0,0c-0.1,0-0.1,0.1-0.2,0.1c0,0.1-0.1,0.1-0.1,0.2
				c0,0.1,0.1,0.2,0.1,0.2c0.6,0.4,1.2,1.1,1.1,1.4l0,0c-0.1,0.9-0.2,2.9-0.3,4.7s-0.4,3.6-0.7,3.8c-0.1,0.1-0.7,0.2-1,0.4
				c-0.1,0-0.1,0.1-0.1,0.2v0.1l0,0v0.1l0,0l0,0c1.2,1,2.1,2.2,2.7,3.5c0,0,0,0.1,0,0.1c0,0,0.1,0,0.2,0h0.1c0.1,0,0.2-0.1,0.3-0.2
				l0,0l0,0c0.6-5.9,0.9-10.1,0.9-10.2c0,0,0,0,0-0.1v-0.1l0,0c0,0,0,0,0.1,0.1l0,0l0,0c0.3,0.2,3.8,5.1,4.2,5.8c0,0.1,0,0.1,0,0.2
				c0,0.4-0.9,1-1.4,1.2c-0.1,0-0.1,0.1-0.1,0.2c0,0.1,0.1,0.3,0.3,0.2h0.3c4.1,0,10.6,1,16.3,1.6c0.3,0,0.8,0.1,1,0.1l0,0
				c0.2,0,0.3-0.2,0.3-0.4c0,0,0-0.1,0-0.1c-0.6-1.1-1.3-2.2-2-3.2c-0.1-0.1-0.2-0.1-0.3-0.1c-0.1,0-0.2,0-0.2,0.1v0.1l0,0
				c-0.3,0.4-0.5,1-0.7,1.1h-0.2c-0.4,0-1.6-0.1-2.6-0.3c-0.8-0.1-1.6-0.2-1.9-0.3c0,0-0.1,0-0.1-0.1l0,0c0,0,0,0,0-0.1v-0.1
				c0-0.4,0.1-0.8,0.1-1.2c0-0.3,0.1-0.5,0.2-0.8c0.1,0,0.2-0.1,0.3-0.1h0.4c0.8,0,1.7,0.1,2.4,0.5c0.3,0.2,0.5,0.5,0.6,0.9
				c0.1,0.1,0.2,0.1,0.3,0.1c0.1,0,0.2-0.1,0.2-0.2c0.3-1.3,0.5-2.7,0.5-4l0,0l0,0c0-0.3-0.1-0.4-0.3-0.4c0,0-0.1,0-0.1,0
				c-0.3,0.3-0.6,0.6-1,0.8c-0.5,0.1-1,0.2-1.4,0.2c-0.7,0-1.4-0.1-1.5-0.3c0-0.1,0-0.3,0-0.4c0-0.4,0.1-0.8,0.1-1.2
				c0-0.2,0.1-0.5,0.2-0.7c0,0,0.1,0,0.1,0c1.4,0.1,2.8,0.3,4.2,0.5c0.2,0.1,0.3,0.3,0.4,0.6c0,0.3,0,0.6,0.4,0.7l0,0
				c0.6-0.3,1.2-0.7,1.7-1.1c0.7-0.6,1.4-1.2,1.6-1.3c0.1,0,0.1-0.1,0.1-0.2C136.3,94.8,136.1,94.6,135.8,94.7
				C135.9,94.6,135.8,94.6,135.8,94.7z"/>
			<path fill="#231F20" d="M143.6,106.3l0.1-0.2c0.2-0.3,3.8-5.4,4.2-5.6c0.3-0.1,0.6-0.2,0.9-0.2c0.2,0,0.4,0,0.5,0
				c0.1,0,0.4,0,0.4-0.4c0-0.4-0.7-1.1-0.9-2c-0.1-0.8-0.2-1.6-0.3-2.5c-0.1-0.2-0.3-0.1-0.4,0l0,0l-0.1,0.1
				c-0.1,0.1-5.8,8.2-6.2,8.7c0,0-0.1,0.2-0.2,0l0,0v-0.1c-0.1-0.6-0.9-5.9-0.9-7c0,0,0-0.1,0-0.1c0.1-0.5,0.6-0.5,1.1-0.9
				c0.5-0.3,0-0.4,0-0.4h-0.1c-0.6-0.2-3.2-0.7-4.9-0.9l0,0c-0.1,0-0.2,0.2-0.2,0.3c0,0,0,0.1,0,0.1c0.1,0.3,0.7,0.6,1.2,1.9
				c0.1,0.7,1,7.2,1,7.9l0,0c0,0.9-0.1,0.9-0.5,1c-0.2,0.1-0.3,0.1-0.5,0.1c-0.1,0.1-0.2,0.2-0.2,0.4c0,0,0,0,0,0.1
				c0,0,0.1,0.1,0.1,0.1h0.1c1.4,0.3,5,1.1,6.2,1.3h0.1c0,0,0,0,0.1,0c0-0.1,0.1-0.2,0.1-0.3c0-0.4-0.6-0.6-0.6-1.2
				C143.5,106.5,143.5,106.4,143.6,106.3z"/>
			<path fill="#231F20" d="M54.4,114.2h-0.2c-0.5,0-1-0.3-1.4-0.7c-0.5-0.5-3-6.5-3.4-7.6v-0.1l0,0c0,0,0-0.1,0-0.1
				c0.1-0.5,0.3-0.9,0.5-1.3c0.1-0.1,0.1-0.2,0.1-0.3c0,0,0-0.1,0-0.1c0,0-0.1,0-0.1,0h-0.1c-1.5,0.5-4.5,1.8-4.6,1.8
				S45,105.9,45,106c0,0.1,0,0.1,0,0.2c0.2,0.2,0.5,0.2,1,0.3c0.4,0,0.7,0.2,1,0.5c0.3,0.5,3.2,6.9,3.4,7.6c0,0.1,0,0.2,0,0.2
				c0,0.5-0.4,0.8-0.7,1.4c-0.1,0.1-0.1,0.2-0.1,0.3c0,0,0,0.1,0,0.1c0,0,0.1,0,0.1,0.1l0,0c0.2-0.1,4.5-1.6,4.8-1.8
				c0.1,0,0.1-0.1,0.1-0.2C54.6,114.4,54.5,114.2,54.4,114.2z"/>
			<path fill="#231F20" d="M44.5,111c-1.2-0.2-2.8,0.6-5.5,0.6c-0.2,0-0.4,0-0.6-0.1c-0.1-0.1-0.3-0.2-0.3-0.3
				c-0.4-0.6-0.2-1.3,0.3-1.7l0.3-0.2c0.6-0.4,1.3-0.7,2-0.7c0.7,0.1,1.2,1.2,1.4,1.5c0.2,0.3,0.2,0.1,0.2,0
				c0.5-1.6,0.8-3.2,1.1-4.9c0-0.2-0.2-0.1-0.2-0.1c-0.2,0.2-0.4,0.3-0.7,0.5c-0.7,0.3-1.5,0.4-2.3,0.5c-2.2,0.5-4.2,1.4-4.8,3.7
				c-0.3,1-0.2,2.1,0.3,3c0.4,0.8,1.1,1.4,2,1.6c1.5,0.2,3.1,0,4.6-0.4c1.2-0.2,2.5-0.3,2.7,0.7c0.4,1.8-2.7,3.6-4.2,2.6
				c-0.5-0.4-0.9-1-1.1-1.6c-0.1,0-0.1-0.1-0.2,0c-0.6,1.7-1,3.5-1.2,5.3c0,0,0,0,0.1,0c0,0,0.1,0,0.1-0.1c0.6-0.3,1.1-0.6,1.8-0.8
				c3.2-0.6,5.8-0.8,7-3.6c0.4-1,0.4-2.2,0.1-3.2C47,112,45.8,111.1,44.5,111z"/>
			<path fill="#231F20" d="M102,94.4c0-0.2,0.4-0.5,0.6-0.8c0-0.1,0-0.2,0-0.2c0-0.3-0.3-0.4-0.6-0.4h-0.3c-3.6,0.4-4.7,0.6-8.4,1
				l0,0c-0.1,0-0.2,0.1-0.2,0.2c0,0.3,0.5,0.5,0.6,0.5c0.3,0.2,0.5,0.6,0.6,1l0,0c0,2.6-0.2,5.2-0.6,7.7c-0.1,0.5-0.4,1-0.8,1.3
				c-0.2,0.1-0.3,0.1-0.5,0.1c-1,0-2-1.2-2.3-1.7c-0.1-0.1-0.3-0.4-0.5-0.6l-0.3-0.4l-0.1-0.1l0,0l0,0l0,0c0-0.4,0.9-1.2,1.2-1.6
				c0.4-0.7,0.6-1.4,0.7-2.2c0-1.5-0.8-2.8-2.2-3.5c-1-0.5-2-0.7-3.1-0.7c-0.5,0-1,0.1-1.5,0.2c-0.7,0.2-1.3,0.4-2,0.6
				c-0.2-0.3-0.3-0.7-0.4-1.1c-0.1-0.3-0.3-0.2-0.3-0.2v0.1c-0.6,1-1.5,2-2.4,2.7l-0.2,0.1l-0.1,0.1c-0.2,0.2,0,0.3,0,0.3
				c0.3,0.1,0.5,0.2,0.7,0.4c0.2,0.1,0.4,0.3,0.5,0.6c0.6,2.5,1,4.9,1.3,7.4c0,0.2,0,0.3-0.1,0.5c-0.3,0.6-1,1-1.7,1
				c-0.1,0-0.3,0-0.4,0c-0.8-0.3-1.5-0.7-2.1-1.4c-0.3-0.3-0.6-0.6-0.8-0.9s-0.3-0.3-0.4-0.4c0.5-0.5,0.9-1.1,1.2-1.7
				c0.2-0.5,0.4-1.1,0.4-1.7c0-1.2-0.6-2.4-1.6-3.1c-0.9-0.6-2.1-0.9-3.2-0.8c-0.9,0-1.8,0.2-2.7,0.5c-0.3,0.1-1.1,0.7-1.4,0.7l0,0
				c-0.2,0-0.2-0.7-0.4-1c-0.1-0.1-0.2-0.1-0.3-0.1c-0.1,0-0.2,0.1-0.2,0.2l-0.1,0.3c-0.6,1-1.4,1.9-2.3,2.6l-0.1,0.1
				c-0.2,0.1,0.1,0.3,0.1,0.3s1,0.4,1.2,0.7c0.9,2.4,1.6,4.9,2.1,7.4l0,0c-0.1,0.5-0.4,0.9-0.8,1.2c-0.1,0.1-0.2,0.2-0.4,0.1
				c-0.4-0.1-1.9-0.9-2.4-1.2c-0.4-0.2-0.7-0.4-1.1-0.6c-0.1,0-0.2-0.1-0.3-0.1c-0.2,0-0.3,0.1-0.3,0.3c-0.1,0.4,0,1.1-0.2,1.2
				c-1.5,0.6-3,1.1-4.5,1.5l0,0c0,0,0.1,0,0,0c-0.1,0-0.2-0.1-0.2-0.2c-0.3-0.6-0.5-1.2-0.6-1.8c0-0.1,0-0.3,0.2-0.4
				c0.3-0.1,0.6-0.2,0.9-0.3L59,108c0.4-0.1,0.7-0.2,1.1-0.2h0.2c0.4,0,0.9,0.5,1.3,0.5c0.1,0,0.2-0.1,0.2-0.2v-0.1
				c-0.3-1.3-0.7-2.6-1.3-3.8c0-0.1-0.1-0.2-0.1-0.2c0,0-0.1-0.2-0.2-0.2c0,0-0.1,0-0.1,0v0.1c-0.5,0.9-0.4,1.2-1.5,1.7
				c-0.6,0.2-1.1,0.4-1.7,0.5l0,0c-0.2-0.2-0.4-0.5-0.5-0.8c-0.1-0.3-0.3-0.7-0.3-1c0,0,0-0.1,0-0.2c0-0.3,0.2-0.3,0.6-0.5
				c1-0.4,2-0.7,3-0.9c0.2-0.1,0.4-0.1,0.6-0.1h0.2c0.2,0,0.5,0.7,0.9,0.8c0,0,0,0,0.1,0c0,0,0,0,0.1,0l0,0c0.4-0.6,0.8-1.2,1.1-1.8
				c0.3-0.6,0.5-1.2,0.7-1.9c0-0.1,0-0.1-0.1-0.2c-0.1-0.1-0.3-0.1-0.3-0.1c-0.4,0.1-0.8,0.2-1.2,0.3c-1.9,0.5-3.7,1.1-5.5,1.6
				c-1.6,0.5-3.2,1-4.8,1.6c0,0-0.1,0.1-0.1,0.2c0,0.1,0,0.2,0.2,0.2c0.2,0.1,0.3,0.1,0.5,0.1c0.5,0.1,0.9,0.4,1.2,0.8
				c1.1,2.5,2,5.1,2.8,7.8c0,0.1,0,0.1,0,0.2c0,0.1,0,0.1,0,0.2c-0.1,0.3-0.3,0.6-0.5,0.8c-0.2,0.2-0.4,0.3-0.4,0.6l0,0l0,0l0,0
				c0,0.1,0.1,0.1,0.2,0.1c0.8,0,4.7-1.7,13.7-4.2c1-0.3,1.9-0.5,2.9-0.7l1.3-0.3c0.1,0,0.1-0.2-0.1-0.4l-0.2-0.1
				c-1.4-0.7-1.8-0.8-2.2-2.5c0-0.1,0-0.2,0-0.3c0-0.2,0-0.3,0.1-0.3s1.9-0.2,2.3-0.2l0,0l0,0c1.7,1.6,3.3,3.4,4.8,5.2
				c0.1,0.1,0.3,0.2,0.4,0.3c0.2,0,0.3-0.2,0.4-0.7c0.1-1,0.5-1.9,1.1-2.7c0.3-0.2,3.3-0.5,5.9-1c0,0,0.2,0,0-0.3
				c-0.2-0.3-0.3-0.2-0.5-0.3l-0.5-0.2c-0.5-0.3-0.9-0.7-1.1-1.3c-0.1-0.4-0.2-0.8-0.2-1.2c0-0.1,0.1-0.1,0.1-0.2l0,0
				c0,0,0.1-0.1,0.1-0.1h0.1c0.3,0,1.2,0,1.8,0h0.5c1.6,1.8,3,3.6,4.4,5.5c0.1,0.1,0.2,0.1,0.3,0.1c0.2,0,0.3-0.3,0.3-0.3
				c0.4-0.8,1-2.5,1.3-2.6c0.9-0.1,4.2-0.3,4.8-0.6c0.1,0,0.2-0.2,0.2-0.3c0,0,0,0,0,0c0,0-0.1-0.2-0.2-0.2c-0.1,0-0.2-0.1-0.3-0.2
				c-0.4-0.2-0.6-1-0.6-1.3l0,0c0-0.3,0.1-1,0.3-1.1c0.5-0.1,1-0.2,1.6-0.3c0.8-0.1,1.8-0.2,2.3-0.2c0.1,0,0.3,0,0.4,0
				c0.4,0.4,0.6,1,0.6,1.5c0,0.1,0,0.1,0,0.2c-0.2,0.5-0.5,0.8-0.6,1c0,0.1,0.1,0.2,0.2,0.2h0.2c0.8,0,2.7-0.3,3.7-0.4
				c0.1,0,0.3,0,0.3-0.2c0-0.2-0.3-0.4-0.7-0.9C103.6,101.6,102.1,96,102,94.4z M74.3,101.6c-0.6,0.8-1.5,1.4-2.5,1.5
				c-0.4,0.1-0.8,0.1-1.2,0.2c-0.2,0-0.4,0-0.5-0.1c-0.5-0.7-0.8-1.5-0.8-2.4c0-0.2,0-0.5,0.2-0.7c0.8-0.5,1.7-0.7,2.6-0.8h0.3
				c1.2,0,1.9,0.5,2,1.5c0,0.1,0,0.2,0,0.3C74.4,101.2,74.4,101.4,74.3,101.6z M87.7,99.1c-0.7,0.8-1.6,1.3-2.7,1.3
				c-0.3,0-0.7,0.1-1,0.1c-0.3,0-0.5,0-0.8-0.1c-0.4-0.6-0.6-1.4-0.6-2.2c-0.1-0.4,0-0.7,0.2-1c0.8-0.4,1.7-0.6,2.6-0.6l0,0
				c1.4,0,2.2,0.6,2.2,1.6v0.1C87.8,98.5,87.8,98.8,87.7,99.1z M100.3,99C100.3,99,100.3,99,100.3,99c-1,0.3-1.9,0.4-2.8,0.4
				c-0.3,0-0.6,0-0.9-0.1c-0.1-0.2-0.1-0.4-0.1-0.6c0-0.6,0.1-1.2,0.2-1.9c0-0.3,0.1-0.5,0.2-0.8c0-0.1,0.1-0.2,0.1-0.2l0,0
				c0,0,0,0,0-0.1h0.1c0.6-0.1,1.2-0.2,1.8-0.2h0.2c0,0,0,0,0.1,0l0,0c0.3,0.5,0.5,1,0.6,1.5C100,97.6,100.2,98.3,100.3,99L100.3,99
				z"/>
			<path fill="#231F20" d="M172.4,110.9c0.3-0.8,0.5-1.7,0.5-2.6c0-1-0.3-2-0.9-2.8c-1-1.5-2.7-2.4-4.5-2.4h-0.6l0,0
				c-0.2,0-0.2,0-0.2-0.2c0-0.2,0.2-0.7,0.2-1c0-0.2-0.1-0.4-0.3-0.4l0,0l0,0c-1.2,0.6-2.5,1.1-3.9,1.3l0,0l0,0
				c-0.1,0-0.1,0.1-0.1,0.2c0,0.3,0.5,0.7,0.5,1c0,0.1,0,0.1,0,0.2l0,0c-0.5,2.2-1.8,6-2.4,6.7c-0.6,0.7-1,1-1.6,0.8
				c-0.3-0.1-0.5-0.2-0.6-0.4c-0.2-0.3-0.4-0.6-0.4-1c0-0.2,0-0.4,0-0.6c0.2-2.4,0.5-4.9,1.1-7.2c0.2-0.5,0.7-0.9,1.2-1.1
				c0.1,0,0.2-0.1,0.2-0.2c0-0.1-0.1-0.2-0.1-0.2c-0.9-0.4-8.6-2.6-8.8-2.7l0,0c-0.4,0-0.2,0.3-0.2,0.3c0.3,0.4,0.5,0.8,0.5,1.3
				c0,0.1,0,0.1,0,0.2c-1.2,2.4-2.6,4.7-4,7c-0.4,0.4-1,0.8-1.5,1c-0.1,0-0.2,0.1-0.3,0.3c0,0.1,0.1,0.2,0.2,0.2
				c0.7,0.2,3.3,1,4.2,1.3h0.1c0.1,0,0.2-0.1,0.2-0.2c0,0,0,0,0,0c0,0,0-0.1,0-0.1c0,0-0.3-0.6-0.4-0.9v-0.1c0-0.4,0.2-0.7,0.4-1
				c0.2-0.4,0.5-0.7,0.8-0.7c0.2,0,1.2,0.3,2.1,0.6c0.5,0.2,1,0.3,1.3,0.4c0.2,0,0.3,0.1,0.4,0.2l0.1,0.1l0,0
				c0.1,0.2,0.1,0.3,0.1,0.5c0,0.5-0.1,0.9-0.3,1.4c-0.2,0.2-0.5,0.4-0.8,0.5c-0.4,0.2-0.2,0.4-0.2,0.5h0.1l3.9,1.2l0.8,0.2l0.6,0.2
				c2.2,0.8,5.6,2.3,7.4,2.3h0.3C170.5,115,172.2,111.4,172.4,110.9z M156.3,104.3c-0.1,0.5-0.2,1-0.4,1.5c-0.1,0-0.1,0-0.2,0
				c-0.7-0.1-1.4-0.2-2-0.4c-0.5-0.1-1-0.3-1.4-0.6l0,0c0.5-1.2,1-2.2,1.8-3.2c0.1,0,0.2,0,0.4,0c0.8,0,1.5,0.3,2.1,0.8
				c0,0,0,0.1,0,0.1C156.5,103.1,156.4,103.7,156.3,104.3z M170.1,109c-0.5,1.6-1.5,3.3-2.8,3.5c-0.2,0-0.5,0.1-0.7,0.1
				c-1.1,0-2.1-0.4-3-1l-0.1,0l0,0c0,0,0-0.1,0-0.1c0.5-1.7,1.2-3.3,1.9-4.9l0,0c0.5-1,0.7-1.4,1.3-1.4c0.4,0,0.8,0.1,1.1,0.2
				c0.6,0.2,1.1,0.6,1.5,1c0.5,0.5,0.8,1.2,0.8,2C170.2,108.6,170.1,108.8,170.1,109z"/>
			<g id="SN_logo">
				<path fill="#FFD534" d="M14.8,101.1c1.2,0.6,3,0.4,4.7,0.1c0-1.1,0.5-1.3,0.5-2.3c-1.5,0.5-4,0.6-4.8-0.2
					C15.1,99.5,15,100.3,14.8,101.1z"/>
				<path fill="#E26426" d="M84.6,78.1c-0.7,0.1-1.3,0.1-2-0.1c-0.3,0.3-0.7,0.5-1.1,0.5c-0.5,0-1-0.2-1.3-0.5
					c-0.2,0.3-0.3,0.7-0.3,1.1c-0.1,1.5,1,2.8,2.5,2.9c0,0,0.1,0,0.1,0c2.9,0.4,4.5-3.9,4.5-3.9C86.3,78,85.5,78,84.6,78.1z"/>
				<path fill="#E26426" d="M80.8,69.7c-3.6,0-6.1,2-12.5,7.8S54.6,87.8,46.9,88.6c-3.3,0.4-6.6,0.3-9.8-0.4
					c-1.3,1.1-2.3,2.5-2.9,4.1c-0.9,2.7-1.5,5.4-2,8.1c0,0-0.7,0.6-5.7,2.4c-5,1.7-11,2-14.5,1.1c-5-1.2-6.1-4.1-6.1-4.1
					c0.4,0.8,0.6,1.7,0.8,2.6c0.2,1.1,0.4,2.1,0.5,3.2c0,0,3,3.1,10.3,3.1c9.7,0,18.5-5.3,18.5-5.3s-0.3-1.3,1-5.9
					c0.5-2,1.4-4,2.7-5.6c0,0,2.6,1.4,11.1,0.4c9.8-1.1,18.1-8.1,22.1-12s5.9-5.6,7.1-5.8c0.8-0.2,1.6-0.2,2.4-0.1
					c0.7,0,1.4,0,2.1,0l2.7,0.1C86.3,71.5,83.7,69.6,80.8,69.7z"/>
				<path fill="#E26426" d="M15.3,96.6c0,0-0.7-0.5-3.5,0C9,97.1,9,97.7,9,98.1c0,0.4,0.2,1,1.7,1.8c1,0.5,2.1,0.9,3.3,1
					c0,0,0.3,0,0.4-1.5c0.2-1.5-0.3-1.7,0-2.2C14.7,96.9,14.9,96.7,15.3,96.6z"/>
				<path fill="#E26426" d="M6.1,118.3c-0.2,0.5-0.5,0.9-0.9,1.2c0.6,0.8,1.3,1.5,2.1,2.1c2.3,1.7,5.1,1.7,7.5,1.5
					c1.5-0.1,2.3-1.8,4.5-2.5s2.5-0.6,2.5-0.6s-0.6,0.7-1.8,2.4s-4.5,5.8-3.2,9.7c1,2.8,5.4,2.2,5.4,2.2c-0.9-0.9-1.9-1.8-3-2.6
					c-0.6-0.4-0.7-2.9,1.1-5.6c0.9-1.5,2.2-2.7,3.7-3.4c0.1-0.4,0.3-0.8,0.5-1.2c0.2-0.3,0.5-0.6,0.8-0.9l-2.5-4.1
					c-3,1.1-6.2,1.7-9.4,1.9c-2.4,0.1-4.8-0.6-6.7-2C6.6,116.9,6.4,117.6,6.1,118.3z"/>
				<path fill="#E26426" d="M24.3,126.3c-0.9,0.4-1.5,1.2-1.7,2.1c-0.3,1,1,0.1,1.6,0c1.2,0,1.2,0.7,1.8,1.6c0.6,1,0.9,1.8,0.9,1.8
					c1-0.9,1.7-2.2,1.9-3.5c0.1-1.2-0.8-2.3-2.1-2.5C25.9,125.7,25,125.9,24.3,126.3z"/>
				<path fill="#E26426" d="M37.2,135.1c0.5,0.9,1,1.8,1.6,2.6c1.1,1.4,1.9,2.4,1.9,2.4c2.4-4,6.2-6.8,10.6-7.9
					c6-1.5,8.9,0.8,12.8,1.7c5.8,1.3,9.1-0.3,11.6-2.6c1.2-1.4,2-3.1,2.2-4.9c0,0-1.7,0.7-2.3,0.8c-0.4,0.1-0.5,2-3.1,2.2
					c-1.7,0.1-1.7-0.2-1.7-0.2c-0.6,0.7-1.5,1-2.3,0.8c-3.3-0.6-6.9-4-12.6-4.1c-5.2-0.1-10.3,1.6-14.4,5
					C39.9,132,38.5,133.5,37.2,135.1z"/>
				<path fill="#E26426" d="M74.8,121.7c-1.1,0-2.2,0.6-2.9,1.5c-0.8,0.9-0.7,2.5,0.3,2.6s0.8-0.8,1.1-1.4c0.2-0.6,0.5-0.6,2-0.8
					c1.5-0.2,1.8-0.7,1.8-0.7C76.4,122.1,75.6,121.7,74.8,121.7z"/>
				<path fill="#E26426" d="M132.9,78c0,0,1.6,4.3,4.5,4c1.5,0,2.7-1.2,2.6-2.7c0,0,0-0.1,0-0.1c0-0.4-0.1-0.7-0.3-1.1
					c-0.3,0.4-0.8,0.6-1.3,0.5c-0.4-0.1-0.8-0.3-1.1-0.5c-0.7,0.2-1.3,0.2-2,0.1C134.6,78,133.8,78,132.9,78z"/>
				<path fill="#E26426" d="M132.6,74.4c0,0,1.1-0.1,2.4-0.1c0.7,0,1.4,0,2.1,0c0.9-0.4,2-0.6,3-0.5c1.3,0.3,2.8,2.6,6.8,6.5
					c4,3.9,12,11.5,21.8,12.6c8.5,1,11.1-0.4,11.1-0.4s1.7,1.4,2.7,5c1.3,4.6,0.9,6.5,0.9,6.5s8.4,5.9,18.2,5.9
					c7.3,0,10.3-3.1,10.3-3.1c0.3-0.9,0.6-1.9,0.8-2.9c0.4-1.4,1-2.8,1.8-4.2c0,0-1.7,2.9-6.7,4.1c-3.5,0.9-9.2,1.6-14.2-0.2
					c-5-1.7-6.3-2.7-6.3-2.7s-0.7-6.2-1.7-8.5c-0.5-1.5-1.3-2.8-2.3-4.1c-3.9,0.6-7.8,0.7-11.7,0.4c-7.6-0.8-14.1-5.6-20.5-11.4
					s-8.6-7.8-12.2-7.8C136,69.6,133.4,71.5,132.6,74.4z"/>
				<path fill="#E26426" d="M205.3,97.2c0.3,0.5-0.1,0.7,0,2.2s0.5,1.5,0.5,1.5c1.1-0.1,2.3-0.5,3.3-1c1.4-0.8,1.6-1.4,1.6-1.8
					s0.1-1.1-2.7-1.6c-2.8-0.5-3.5,0-3.5,0C204.8,96.7,205,96.9,205.3,97.2z"/>
				<path fill="#E26426" d="M212.7,116.6c0,0-3.4,3.2-7.6,2.6c-3-0.4-6-1.2-8.8-2.5l-2.5,3.8c0,0,0.5,0.8,0.8,1.2
					c0.3,0.5,0.5,0.9,0.5,0.9c1.7,0.7,3.1,1.9,4,3.4c1.8,2.7,0.7,5.9,0.1,6.2c-0.9,0.6-3.5,2.6-3.5,2.6s5,1.2,6.9-2.2
					c2-3.5-1.3-7.9-2.6-9.7c-0.7-0.9-1.5-1.8-2.4-2.4c0,0,0.4,0.2,2.5,0.9s3,2.1,4.5,2.2c2.4,0.2,5.2,0.2,7.5-1.5
					c0.8-0.6,1.5-1.3,2.1-2.1c-0.4-0.4-0.7-0.8-0.9-1.2C213,118.2,212.8,117.4,212.7,116.6z"/>
				<path fill="#E26426" d="M191.7,126.1c-1.2,0.2-2,1.3-1.8,2.4c0,0,0,0.1,0,0.1c0.2,1.3,0.6,2.5,1.3,3.5c0.5-0.6,0.9-1.2,1.2-1.8
					c0.6-1,0.6-1.7,1.8-1.7c0.6,0,1.9,1,1.6-0.1c-0.2-0.9-0.9-1.7-1.7-2.1C193.4,126.1,192.6,126,191.7,126.1z"/>
				<path fill="#E26426" d="M177.3,131.1c-4-3.4-9.1-5.1-14.4-5c-5.7,0.1-9,3.2-12.3,3.8c-1,0.1-2.1-0.2-2.9-0.8
					c-0.8,0.3-1.6,0.4-2.4,0.2c-1-0.1-1.8-0.9-2.1-1.9c-0.1-0.6-2-0.8-2-0.8s-0.5,2.2,1.9,4.8c2.4,2.7,6.6,3,8.8,2.3
					c2.8-0.9,7.9-4.5,14-2.9c7.5,1.9,12.2,11,12.2,11c0.9-0.5,1.6-1.3,2.2-2.1c0.7-1,1.4-2.1,1.9-3.2
					C180.8,134.6,179.2,132.7,177.3,131.1z"/>
				<path fill="#E26426" d="M142.3,123.1c0.6,0.4,1.3,0.7,2,0.9c0.9-0.1,1.5,0,1.7,0.6s-0.5,1.8,1.1,1.5c0.8-0.2,1.2-1,1-1.8
					c-0.1-0.2-0.2-0.4-0.3-0.6c-0.8-1-2-1.6-3.2-1.7C143.6,122,142.8,122.4,142.3,123.1z"/>
				<path fill="#E26426" d="M94.5,116.8c0.6,0.3,1.1,0.8,1.4,1.4c0.2,0.5,0.4,1.1,0.5,1.6c1.6-0.8,3.3-1.1,5-0.9
					c2,0.1,3.9,0.6,5.7,1.5c0.9,0.5,1.7,1.1,2.5,1.8c0.8-0.7,1.7-1.4,2.6-2c1.7-0.8,3.5-1.3,5.4-1.3c1.3,0,2.6,0.1,3.9,0.4
					c0.4,0.1,0.8,0.3,1.2,0.5c0.2-0.6,0.5-1.2,0.9-1.8l0.9-0.9c-1.9-1.1-4-1.7-6.2-1.7c-2.2,0-4.4,0.4-6.4,1.1c-1.1,0.5-2,1.2-2.9,2
					c-1.4-1.3-3.1-2.2-4.9-2.6c-3.2-0.8-4.9-0.7-6.4-0.3C96.5,115.9,95.5,116.3,94.5,116.8z"/>
			</g>
		</g>
	</g>
</g>
</svg>
