<?xml version="1.0" encoding="UTF-8"?>
<svg xmlns="http://www.w3.org/2000/svg" baseProfile="tiny-ps" version="1.2" viewBox="0 0 96 96">
  <!-- Generator: Adobe Illustrator 28.6.0, SVG Export Plug-In . SVG Version: 1.2.0 Build 709)  -->
  <title>Revolut</title>
  <g>
    <g id="Layer_1">
      <rect x="0" width="96" height="96" fill="#fff"/>
      <g>
        <path d="M37,77.4h-11v-44.3h11v44.3ZM59.9,77.4l-17.8-24.7c0-.1-.1-.3-.1-.4v-8.4c0-.4.3-.7.7-.7h10.5c2.1,0,4-.8,5.4-2.3,1.4-1.5,2.2-3.4,2.2-5.5,0-4.1-3.6-7.5-7.9-7.5h-26.9v-9.5h28.2c9.4,0,17.1,7.6,17.1,17s-7.2,16.6-16.2,17l17.8,24.7h-13Z" fill="#fff"/>
        <rect x="26" y="33.1" width="11" height="44.3"/>
        <path d="M71.3,35.6c0-9.4-7.7-17-17.1-17h-28.2v9.5h26.9c4.3,0,7.8,3.3,7.9,7.5,0,2.1-.7,4-2.2,5.5-1.4,1.5-3.4,2.3-5.4,2.3h-10.5c-.4,0-.7.3-.7.7v8.4c0,.1,0,.3.1.4l17.8,24.7h13l-17.8-24.7c9-.5,16.2-8,16.2-17Z"/>
      </g>
    </g>
  </g>
</svg>