<?xml version="1.0" encoding="utf-8"?>
<!-- Generator: Adobe Illustrator 16.0.0, SVG Export Plug-In . SVG Version: 6.00 Build 0)  -->
<svg version="1.2" baseProfile="tiny-ps" id="Layer_1" xmlns="http://www.w3.org/2000/svg" xmlns:xlink="http://www.w3.org/1999/xlink"
	   viewBox="0 0 200 200" xml:space="preserve">
<title>PP</title>
<rect fill="#C52031" width="200" height="200"/>

<g>
	<g>
		<path fill="#FFFFFF" d="M56.607,147.396c0-12.715,10.334-45.384,11.895-87.411c-4.292,3.231-7.408,6.037-8.968,6.037
			c-1.95,0-2.927-1.077-2.927-3.878c0-6.037,20.932-25.923,45.894-25.923c30.227,0,40.893,14.501,40.893,31.745
			c0,22.629-23.207,37.545-52.263,37.545c-2.143,0-4.093,0-6.047-0.216c-1.56,10.991-2.538,25.818-2.538,35.087
			c0,13.576-6.242,23.396-15.016,23.396C61.872,163.779,56.607,160.111,56.607,147.396z M94.047,51.925
			c-0.389,8.623-3.899,22.125-7.02,41.092c15.793-0.431,31.703-6.184,31.703-23.207C118.725,62.05,114.134,52.787,94.047,51.925z"/>
	</g>
</g>
</svg>
