<?xml version="1.0" encoding="UTF-8" standalone="yes"?>
<svg version="1.2" width="560" height="560" baseProfile="tiny-ps" xmlns="http://www.w3.org/2000/svg">
  <title>bimi-svg-tiny-12-ps</title>
  <path d="M0 0 C184.8 0 369.6 0 560 0 C560 184.8 560 369.6 560 560 C375.2 560 190.4 560 0 560 C0 375.2 0 190.4 0 0 Z " fill="#FEFEFE" transform="translate(0,0)"/>
  <path d="M0 0 C2.866875 -0.061875 5.73375 -0.12375 8.6875 -0.1875 C10.02880981 -0.22846802 10.02880981 -0.22846802 11.3972168 -0.27026367 C16.11847334 -0.3195041 19.15164086 -0.03895282 23 3 C23.66 3.66 24.32 4.32 25 5 C24.66302652 11.17784711 24.66302652 11.17784711 22.4375 13.9375 C21.963125 14.288125 21.48875 14.63875 21 15 C21.48082031 15.54140625 21.96164063 16.0828125 22.45703125 16.640625 C24.31323558 19.47897288 24.48737656 21.38792626 24.6875 24.75 C24.75324219 25.73484375 24.81898438 26.7196875 24.88671875 27.734375 C24.92410156 28.48203125 24.96148437 29.2296875 25 30 C22.03 30 19.06 30 16 30 C14.37183837 26.74367674 14.71159951 23.13157338 14.57421875 19.53125 C14.38472656 18.6959375 14.19523438 17.860625 14 17 C12.68 16.34 11.36 15.68 10 15 C10 19.95 10 24.9 10 30 C6.7 30 3.4 30 0 30 C0 20.1 0 10.2 0 0 Z " fill="#010101" transform="translate(136,265)"/>
  <path d="M0 0 C2.97 0 5.94 0 9 0 C9 9.9 9 19.8 9 30 C4.91625 30.12375 4.91625 30.12375 0.75 30.25 C-0.10110352 30.28641602 -0.95220703 30.32283203 -1.82910156 30.36035156 C-5.49702737 30.41421499 -7.41944253 30.40675422 -10.4921875 28.25390625 C-13.2256893 24.16781678 -13.38131604 19.73104733 -12.7109375 14.9296875 C-11.80440253 11.25745262 -11.22397855 10.14931903 -8 8 C-2.65454545 7.67272727 -2.65454545 7.67272727 0 9 C0 6.03 0 3.06 0 0 Z " fill="#010101" transform="translate(494,265)"/>
  <path d="M0 0 C2.97 0 5.94 0 9 0 C9 9.9 9 19.8 9 30 C4.91625 30.12375 4.91625 30.12375 0.75 30.25 C-0.10110352 30.28641602 -0.95220703 30.32283203 -1.82910156 30.36035156 C-5.49702737 30.41421499 -7.41944253 30.40675422 -10.4921875 28.25390625 C-13.2256893 24.16781678 -13.38131604 19.73104733 -12.7109375 14.9296875 C-11.80440253 11.25745262 -11.22397855 10.14931903 -8 8 C-2.65454545 7.67272727 -2.65454545 7.67272727 0 9 C0 6.03 0 3.06 0 0 Z " fill="#010101" transform="translate(369,265)"/>
  <path d="M0 0 C2.97 0 5.94 0 9 0 C9 3.3 9 6.6 9 10 C9.99 9.34 10.98 8.68 12 8 C18.23721389 7.4431059 18.23721389 7.4431059 20.70043945 9.24145508 C22.34884965 11.47205786 22.3483881 12.69672413 22.29296875 15.44921875 C22.28330078 16.29677734 22.27363281 17.14433594 22.26367188 18.01757812 C22.23853516 18.89865234 22.21339844 19.77972656 22.1875 20.6875 C22.16719727 22.02651367 22.16719727 22.02651367 22.14648438 23.39257812 C22.11114643 25.59530983 22.05733969 27.7977312 22 30 C19.03 30 16.06 30 13 30 C13 24.06 13 18.12 13 12 C9.40158363 15.59841637 9.46892726 17.90082597 9.3125 22.6875 C9.27833984 23.38939453 9.24417969 24.09128906 9.20898438 24.81445312 C9.12670053 26.54241387 9.0616676 28.27118072 9 30 C6.03 30 3.06 30 0 30 C0 20.1 0 10.2 0 0 Z " fill="#000000" transform="translate(66,265)"/>
  <path d="M0 0 C0 5.94 0 11.88 0 18 C0.99 17.34 1.98 16.68 3 16 C3.38394667 13.22737745 3.60342248 10.65676472 3.6875 7.875 C3.72166016 7.12089844 3.75582031 6.36679687 3.79101562 5.58984375 C3.87354278 3.72708799 3.93844711 1.86356674 4 0 C10.15234375 -0.87890625 10.15234375 -0.87890625 12 -1 C13 0 13 0 13.11352539 2.13305664 C13.10828857 3.04949951 13.10305176 3.96594238 13.09765625 4.91015625 C13.09443359 5.89951172 13.09121094 6.88886719 13.08789062 7.90820312 C13.07951172 8.94912109 13.07113281 9.99003906 13.0625 11.0625 C13.05798828 12.10728516 13.05347656 13.15207031 13.04882812 14.22851562 C13.03699913 16.8190666 13.02051689 19.40950559 13 22 C9 22 5 22 1 22 C-0.155 22.0825 -1.31 22.165 -2.5 22.25 C-6 22 -6 22 -7.70703125 20.5625 C-9.66509417 16.68186775 -9.31783421 13.02763576 -9.1875 8.75 C-9.17396484 7.90953125 -9.16042969 7.0690625 -9.14648438 6.203125 C-9.11123464 4.13514062 -9.0574302 2.06748729 -9 0 C-2.25 -1.125 -2.25 -1.125 0 0 Z " fill="#000000" transform="translate(434,273)"/>
  <path d="M0 0 C0 0.66 0 1.32 0 2 C0.804375 1.505 0.804375 1.505 1.625 1 C4.62934544 -0.26498755 6.76767442 -0.34386442 10 0 C12.12294898 1.58264119 12.90954279 2.44629815 13.34057617 5.0847168 C13.32486572 5.86500244 13.30915527 6.64528809 13.29296875 7.44921875 C13.28330078 8.29677734 13.27363281 9.14433594 13.26367188 10.01757812 C13.23853516 10.89865234 13.21339844 11.77972656 13.1875 12.6875 C13.16719727 14.02651367 13.16719727 14.02651367 13.14648438 15.39257812 C13.11114643 17.59530983 13.05733969 19.7977312 13 22 C10.03 22 7.06 22 4 22 C4 16.06 4 10.12 4 4 C3.01 4.66 2.02 5.32 1 6 C0.61605333 8.77262255 0.39657752 11.34323528 0.3125 14.125 C0.27833984 14.87910156 0.24417969 15.63320313 0.20898438 16.41015625 C0.12645722 18.27291201 0.06155289 20.13643326 0 22 C-2.97 22 -5.94 22 -9 22 C-9 14.74 -9 7.48 -9 0 C-2 -1 -2 -1 0 0 Z " fill="#000000" transform="translate(463,273)"/>
  <path d="M0 0 C0 0.66 0 1.32 0 2 C0.804375 1.505 0.804375 1.505 1.625 1 C4.62934544 -0.26498755 6.76767442 -0.34386442 10 0 C12.12294898 1.58264119 12.90954279 2.44629815 13.34057617 5.0847168 C13.32486572 5.86500244 13.30915527 6.64528809 13.29296875 7.44921875 C13.28330078 8.29677734 13.27363281 9.14433594 13.26367188 10.01757812 C13.23853516 10.89865234 13.21339844 11.77972656 13.1875 12.6875 C13.16719727 14.02651367 13.16719727 14.02651367 13.14648438 15.39257812 C13.11114643 17.59530983 13.05733969 19.7977312 13 22 C10.03 22 7.06 22 4 22 C4 16.06 4 10.12 4 4 C3.01 4.66 2.02 5.32 1 6 C0.61605333 8.77262255 0.39657752 11.34323528 0.3125 14.125 C0.27833984 14.87910156 0.24417969 15.63320313 0.20898438 16.41015625 C0.12645722 18.27291201 0.06155289 20.13643326 0 22 C-2.97 22 -5.94 22 -9 22 C-9 14.74 -9 7.48 -9 0 C-2 -1 -2 -1 0 0 Z " fill="#000000" transform="translate(295,273)"/>
  <path d="M0 0 C0 0.66 0 1.32 0 2 C0.804375 1.505 0.804375 1.505 1.625 1 C4.62934544 -0.26498755 6.76767442 -0.34386442 10 0 C12.12294898 1.58264119 12.90954279 2.44629815 13.34057617 5.0847168 C13.32486572 5.86500244 13.30915527 6.64528809 13.29296875 7.44921875 C13.28330078 8.29677734 13.27363281 9.14433594 13.26367188 10.01757812 C13.23853516 10.89865234 13.21339844 11.77972656 13.1875 12.6875 C13.16719727 14.02651367 13.16719727 14.02651367 13.14648438 15.39257812 C13.11114643 17.59530983 13.05733969 19.7977312 13 22 C10.03 22 7.06 22 4 22 C4 16.06 4 10.12 4 4 C3.01 4.66 2.02 5.32 1 6 C0.61605333 8.77262255 0.39657752 11.34323528 0.3125 14.125 C0.27833984 14.87910156 0.24417969 15.63320313 0.20898438 16.41015625 C0.12645722 18.27291201 0.06155289 20.13643326 0 22 C-2.97 22 -5.94 22 -9 22 C-9 14.74 -9 7.48 -9 0 C-2 -1 -2 -1 0 0 Z " fill="#000000" transform="translate(219,273)"/>
  <path d="M0 0 C6.6 0 13.2 0 20 0 C20 0.99 20 1.98 20 3 C16.7 3 13.4 3 10 3 C10 5.97 10 8.94 10 12 C12.64 12 15.28 12 18 12 C18 12.99 18 13.98 18 15 C15.36 15 12.72 15 10 15 C10 18.96 10 22.92 10 27 C13.96 27 17.92 27 22 27 C22 27.99 22 28.98 22 30 C14.74 30 7.48 30 0 30 C0 20.1 0 10.2 0 0 Z " fill="#000000" transform="translate(167,265)"/>
  <path d="M0 0 C6.6 0 13.2 0 20 0 C20 0.99 20 1.98 20 3 C16.7 3 13.4 3 10 3 C10 6.3 10 9.6 10 13 C12.97 13 15.94 13 19 13 C19 13.99 19 14.98 19 16 C16.03 16 13.06 16 10 16 C10 20.62 10 25.24 10 30 C6.7 30 3.4 30 0 30 C0 20.1 0 10.2 0 0 Z " fill="#000000" transform="translate(401,265)"/>
  <path d="M0 0 C8.25 0 16.5 0 25 0 C25 0.99 25 1.98 25 3 C22.36 3 19.72 3 17 3 C17 11.91 17 20.82 17 30 C13.7 30 10.4 30 7 30 C7 21.09 7 12.18 7 3 C4.69 3 2.38 3 0 3 C0 2.01 0 1.02 0 0 Z " fill="#000000" transform="translate(38,265)"/>
  <path d="M0 0 C2.9375 1.5625 2.9375 1.5625 5 4 C5.8125 7.75 5.8125 7.75 6 11 C2.04 11 -1.92 11 -6 11 C-5.01 13.64 -4.02 16.28 -3 19 C-1.68 18.67 -0.36 18.34 1 18 C1.33 16.68 1.66 15.36 2 14 C3.32 14 4.64 14 6 14 C5.69209738 16.84809926 5.34521809 18.58286148 3.5 20.8125 C-1.21966523 23.05434098 -6.04237271 22.62477467 -10.9375 21.0625 C-14.12756881 17.87243119 -14.83742494 14.44864475 -15 10 C-14.27651114 6.43715866 -12.7087302 3.81372727 -10.3125 1.0625 C-6.87513495 -0.51682989 -3.66673333 -0.64022328 0 0 Z " fill="#010101" transform="translate(346,273)"/>
  <path d="M0 0 C2.9375 1.5625 2.9375 1.5625 5 4 C5.8125 7.75 5.8125 7.75 6 11 C2.04 11 -1.92 11 -6 11 C-5.01 13.64 -4.02 16.28 -3 19 C-1.68 18.67 -0.36 18.34 1 18 C1.33 16.68 1.66 15.36 2 14 C3.32 14 4.64 14 6 14 C5.69209738 16.84809926 5.34521809 18.58286148 3.5 20.8125 C-1.21966523 23.05434098 -6.04237271 22.62477467 -10.9375 21.0625 C-14.12756881 17.87243119 -14.83742494 14.44864475 -15 10 C-14.27651114 6.43715866 -12.7087302 3.81372727 -10.3125 1.0625 C-6.87513495 -0.51682989 -3.66673333 -0.64022328 0 0 Z " fill="#010101" transform="translate(275,273)"/>
  <path d="M0 0 C2.9375 1.5625 2.9375 1.5625 5 4 C5.8125 7.75 5.8125 7.75 6 11 C2.04 11 -1.92 11 -6 11 C-5.01 13.64 -4.02 16.28 -3 19 C-1.68 18.67 -0.36 18.34 1 18 C1.33 16.68 1.66 15.36 2 14 C3.32 14 4.64 14 6 14 C5.69209738 16.84809926 5.34521809 18.58286148 3.5 20.8125 C-1.21966523 23.05434098 -6.04237271 22.62477467 -10.9375 21.0625 C-14.12756881 17.87243119 -14.83742494 14.44864475 -15 10 C-14.27651114 6.43715866 -12.7087302 3.81372727 -10.3125 1.0625 C-6.87513495 -0.51682989 -3.66673333 -0.64022328 0 0 Z " fill="#010101" transform="translate(108,273)"/>
  <path d="M0 0 C3.3 0 6.6 0 10 0 C10 9.9 10 19.8 10 30 C6.7 30 3.4 30 0 30 C0 20.1 0 10.2 0 0 Z " fill="#000000" transform="translate(194,265)"/>
  <path d="M0 0 C2.5 1.3125 2.5 1.3125 4 3 C4 3.99 4 4.98 4 6 C2.68 6 1.36 6 0 6 C-0.66 5.01 -1.32 4.02 -2 3 C-4.05925139 2.27617533 -4.05925139 2.27617533 -6 2 C-4.60285043 5.42010572 -3.19037182 6.80695724 0 8.625 C2.3576762 9.98586457 4.06091111 11.06091111 6 13 C5.85728436 16.35381749 5.73059594 18.30209291 3.25390625 20.66796875 C-0.63631134 22.96704015 -4.61859122 22.52463471 -9 22 C-12.0625 20.75 -12.0625 20.75 -14 19 C-14.8125 16.8125 -14.8125 16.8125 -15 15 C-13.68 14.67 -12.36 14.34 -11 14 C-10.79375 14.639375 -10.5875 15.27875 -10.375 15.9375 C-9.10461791 18.34925077 -9.10461791 18.34925077 -5.875 18.75 C-4.92625 18.8325 -3.9775 18.915 -3 19 C-2.67 18.01 -2.34 17.02 -2 16 C-2.886875 15.7525 -3.77375 15.505 -4.6875 15.25 C-8.19609556 13.92600168 -10.35306704 12.64693296 -13 10 C-14.0625 7.5 -14.0625 7.5 -14 5 C-10.0077526 0.04410668 -6.20216614 -0.69866298 0 0 Z " fill="#020202" transform="translate(523,273)"/>
  <path d="M0 0 C0 2.31 0 4.62 0 7 C0.99 7 1.98 7 3 7 C3 7.66 3 8.32 3 9 C2.01 9 1.02 9 0 9 C0 14.61 0 20.22 0 26 C0.99 26.33 1.98 26.66 3 27 C1 29 1 29 -2.5 29.1875 C-6 29 -6 29 -8 28 C-9.25433458 24.23699626 -9.10695422 20.72789091 -9.0625 16.8125 C-9.05798828 16.06291016 -9.05347656 15.31332031 -9.04882812 14.54101562 C-9.03706354 12.69397617 -9.01912865 10.84697787 -9 9 C-9.99 9 -10.98 9 -12 9 C-12 8.34 -12 7.68 -12 7 C-11.01 7 -10.02 7 -9 7 C-9 5.68 -9 4.36 -9 3 C-2.25 0 -2.25 0 0 0 Z " fill="#010101" transform="translate(324,266)"/>
  <path d="M0 0 C2.97 0 5.94 0 9 0 C10.32 3.96 11.64 7.92 13 12 C14.65 8.04 16.3 4.08 18 0 C18.99 0.33 19.98 0.66 21 1 C18.69 7.93 16.38 14.86 14 22 C11.69 22 9.38 22 7 22 C5.82828244 18.71010914 4.66348912 15.41780898 3.5 12.125 C3.16613281 11.18785156 2.83226562 10.25070312 2.48828125 9.28515625 C2.17246094 8.38925781 1.85664063 7.49335938 1.53125 6.5703125 C1.23798828 5.74289551 0.94472656 4.91547852 0.64257812 4.06298828 C0 2 0 2 0 0 Z " fill="#030303" transform="translate(236,273)"/>
  <path d="M0 0 C0.99 0.33 1.98 0.66 3 1 C3 5.62 3 10.24 3 15 C1.68 15 0.36 15 -1 15 C-1.02685412 12.68756208 -1.04632841 10.3750373 -1.0625 8.0625 C-1.07410156 6.77472656 -1.08570313 5.48695313 -1.09765625 4.16015625 C-1 1 -1 1 0 0 Z " fill="#ECECEC" transform="translate(491,276)"/>
  <path d="M0 0 C0.99 0.33 1.98 0.66 3 1 C3 5.62 3 10.24 3 15 C1.68 15 0.36 15 -1 15 C-1.02685412 12.68756208 -1.04632841 10.3750373 -1.0625 8.0625 C-1.07410156 6.77472656 -1.08570313 5.48695313 -1.09765625 4.16015625 C-1 1 -1 1 0 0 Z " fill="#ECECEC" transform="translate(366,276)"/>
  <path d="M0 0 C4 1 4 1 5 2 C5.1875 4.9375 5.1875 4.9375 5 8 C4.34 8.66 3.68 9.32 3 10 C2.01 10 1.02 10 0 10 C0 6.7 0 3.4 0 0 Z " fill="#FAFAFA" transform="translate(146,268)"/>
  <path d="M0 0 C5.75 1.875 5.75 1.875 8 3 C7.67 4.32 7.34 5.64 7 7 C4.125 6.8125 4.125 6.8125 1 6 C-0.375 3.4375 -0.375 3.4375 -1 1 C-0.67 0.67 -0.34 0.34 0 0 Z " fill="#EFEFEF" transform="translate(513,286)"/>
  <path d="M0 0 C1.5 1.25 1.5 1.25 3 3 C3 4.32 3 5.64 3 7 C1.35 7 -0.3 7 -2 7 C-1.125 1.125 -1.125 1.125 0 0 Z " fill="#DADADA" transform="translate(342,275)"/>
  <path d="M0 0 C1.5 1.25 1.5 1.25 3 3 C3 4.32 3 5.64 3 7 C1.35 7 -0.3 7 -2 7 C-1.125 1.125 -1.125 1.125 0 0 Z " fill="#DADADA" transform="translate(271,275)"/>
  <path d="M0 0 C1.5 1.25 1.5 1.25 3 3 C3 4.32 3 5.64 3 7 C1.35 7 -0.3 7 -2 7 C-1.125 1.125 -1.125 1.125 0 0 Z " fill="#DADADA" transform="translate(104,275)"/>
  <path d="M0 0 C2.475 0.495 2.475 0.495 5 1 C5.33 1.99 5.66 2.98 6 4 C6.66 4.33 7.32 4.66 8 5 C6.25 5.6875 6.25 5.6875 4 6 C1.75 4.75 1.75 4.75 0 3 C0 2.01 0 1.02 0 0 Z " fill="#EAEAEA" transform="translate(517,275)"/>
</svg>