<svg version="1.2" baseProfile="tiny-ps" id="body_1" xmlns="http://www.w3.org/2000/svg" xmlns:xlink="http://www.w3.org/1999/xlink"
	viewBox="0 0 216.3 216.3" xml:space="preserve">
	<title>Papaya Gaming</title><path d="M212.3 37.3l3.8.7-.4-4c-.3-3.5-1.2-6.8-2.5-10-1.2-2.9-2.7-5.5-4.5-8-2.9-3.9-6.4-7.2-10.5-9.7-3.9-2.4-8-4-12.4-5-1.2-.3-2.5-.3-3.8-.5-.5-.1-.9-.3-1.4-.4h-.6c-.4 0-.7.1-1.1.1H37.6c-.4 0-.7-.1-1.1-.1h-.2c-1.3.2-2.6.5-3.9.6-6.3.8-11.9 3.3-17 7.1-5.3 3.9-9.2 9-12 15-1.5 3.3-2.3 6.8-3 10.3-.3.6-.3 1.3-.4 1.9v84.2c.6-.5 1.1-1 1.7-1.4s1.3-.5 1.8-.9c.8-.5 1.4-1.2 2.2-1.7.6-.4 1.3-.5 1.8-.9.8-.5 1.4-1.2 2.2-1.7.3-.2.8-.2 1.1-.4 1.3-.8 2.7-1.6 4-2.5.8-.6 1.5-1.3 2.4-1.9 1.1-.7 2.4-1.2 3.5-1.9L32 99.3l.3-.3c2-1.1 2-1.1 1.3-3.2l-4.5-14.3-7.4-21-1.5-4.1c-.7-2.2-.5-4.3.9-6.1.7-.9 1.7-1.5 2.9-1.6l6.7-1c.3-.1.6-.2.9-.4.2-.1.4-.3.5-.2 2.6.5 5-.4 7.5-.8 1.1-.2 2.3 0 3.2-.9.1-.1.4.1.6.1l1.8-.3c.3 0 .5-.3.7-.2 1.3.3 2.5.2 3.6-.5.2-.1.4-.1.7-.1.4 0 1 .2 1.3.1 1.5-.9 3.2-.2 4.8-.7s3.2-.5 4.9-.7l11.1-1.7 10.6-1.6 3.8-.6v-8.8c0-2.8-.1-5.6-.2-8.4 0-1.5-.2-3 .1-4.5.1-1 .8-1.9 1.2-2.9 1-2.2 2.7-3.6 5.1-4.2.3-.2.6-.5 1-.5l4.6.3h0c.4.1.7.2 1.1.2h0l2.6.6h.2c.3.1.6.1.8.2h0l3.6.9h0c.3.1.6.1.9.2h0c1.5.3 3 .5 4.5.9 2.4.5 4.8 1.1 7.2 1.7 3 .7 6 1.5 9 2.3h0c.3.1.6.1.9.2h0l2.8.6h0l3.6.9h0l2.6.6h0c.4.1.7.2 1.1.2h0l6.9 1.5 3.8.9c.3.1.6.3.9.4h0c1.5.4 3 .7 4.4 1.1 2.1.5 4.3.9 6.4 1.4.6.1 1.1.4 1.6.5h0l7.8 1.7c.4.1.7.3 1 .4 1.5.4 3 .7 4.4 1.1h0c1.5.4 3 .7 4.4 1.1h0c1.8.4 3.5.8 5.3 1.3h0c.6.1 1.1.3 1.7.4h0l3.6.9h0c.6.1 1.1.3 1.7.4h0c1.4.3 2.8.6 4.2 1 .7.2 1.3.5 1.9.7h0l2.8.6h0c.3.1.6.1.9.2h0l2.5.6h0l3.6.9h0c.3.1.6.1.9.2h0c.6-.1 1.4.1 2.2.3h0zm-169 164.2c-1.5-3.5-3.1-6.9-4.7-10.3-4-8.6-8.9-16.8-14.2-24.7-4.5-6.7-9.5-13.1-14.4-19.5-3-3.9-6.3-7.5-9.5-11.2-.1-.2-.3-.3-.5-.4v47.7l.6 3.4c.8 4.5 2.5 8.6 4.8 12.5 1.8 3.1 4.2 5.9 6.8 8.3s5.5 4.5 8.7 5.9c2.5 1.1 5.1 2 7.7 3 .1 0 .3.1.4.1l13.8-.1c.6-1.1 1.2-2.2 1.7-3.3l1.7-3.8c.8-1.6 1.5-3.3 2.3-4.9-2.6.6-4.1-.3-5.2-2.7z" fill="#129b60"/><path d="M40.3 122.4l-1.5-6.9-4.2-16c0-.1-.2-.2-.2-.3-.2-.9-.5-.1-.6 0l-10 6.1L7 115.8l-7 4.3v-.6l1.7-1.4s1.3-.5 1.8-.9c.8-.5 1.4-1.2 2.2-1.7.6-.4 1.3-.5 1.8-.9.8-.5 1.4-1.2 2.2-1.7.3-.2.8-.2 1.1-.4l4-2.5 2.4-1.9c1.1-.7 2.4-1.2 3.5-1.9L32 99.3l.3-.3c2-1.1 2-1.1 1.3-3.2l-4.5-14.3-7.4-21-1.5-4.1c-.7-2.2-.5-4.3.9-6.1.7-.9 1.7-1.5 2.9-1.6l6.7-1c.3-.1.6-.2.9-.4.2-.1.4-.3.5-.2 2.6.5 5-.4 7.5-.8 1.1-.2 2.3 0 3.2-.9.1-.1.4.1.6.1l1.8-.3c.3 0 .5-.3.7-.2 1.3.3 2.5.2 3.6-.5.2-.1.4-.1.7-.1.4 0 1 .2 1.3.1 1.5-.9 3.2-.2 4.8-.7s3.2-.5 4.9-.7l11.1-1.7 10.6-1.6 3.8-.6c0 .1-.1.3-.1.4l-5.4 1-6.1 1-5.9.9-6.4 1-5.8.9-6.6.9-9.1 1.5-7.5 1.1-8.6 1.4c-2.5.2-5 2.3-4.8 4.9v.9c0 .2.1.5.1.7.1.6.2 1.3.4 1.9l2.7 7 7.1 20.8c1.5 4.5 2.9 9 4.2 13.6l4.6 17.6c.7 2.6 1.2 5.2 1.8 7.8l2 9.9 1.5 8.9 1.4 8.9 1.1 9.1 1.3 10.7a93.51 93.51 0 0 1 .6 7.6l.7 12v.4c0 2.1.1 4.3.1 6.4v.3c0 .5.1 1.1.1 1.6-.2.3-.3.6-.5.9l-.3-2.1c0-.5-.1-.9-.1-1.4v-6.1-.5c-.1-1-.4-2-.4-3.1l-.2-7.6c0-.4-.1-.7-.2-1.1 0-.5-.1-1.1-.1-1.6h0 0v-1l-.1-.1-1.6-17c-.1-.8-.1-1.6-.2-2.4l-2.6-17.7c-.2-1-.4-1.9-.7-2.9l-1.3-7.5c-.4-2.1-.9-4.4-1.5-6.7zm8.3 81.7c-2.6.7-4.2-.2-5.3-2.7-1.5-3.5-3.1-6.9-4.7-10.3-4-8.6-8.9-16.8-14.2-24.7-4.5-6.7-9.5-13.1-14.4-19.5-3-3.9-6.3-7.5-9.5-11.2-.1-.2-.3-.3-.5-.4v-.8c.3.2.6.4.9.7l5.2 6.3 4.9 5.7c1.9 2.3 3.7 4.7 5.5 7.2 2.9 3.9 5.7 7.8 8.5 11.8 1.5 2.1 2.8 4.4 4.2 6.6 2.3 3.9 4.6 7.7 6.7 11.7 3 5.6 6 11.1 8.2 17.1.6 1.7 2.1 2.5 3.9 2.1.3-.1.7-.1 1-.2-.2.2-.3.4-.4.6z" fill="#1c1f14"/><g fill="#ffe867"><path d="M88 14.5l-.8 3.5c-.1 1 0 2.1 0 3.1v1.6l.2 18.2c0 .4-.2.7-.4 1.1l-.2-2.5c0-.1.1-.3.1-.4v-8.8l-.2-8.4c0-1.5-.2-3 .1-4.5.1-1 .8-1.9 1.2-2.9zm40.3 2.6l-6-1.3-13.5-3.2c-.4-.1-.8-.3-1.1-.4l4.5.9 7.2 1.7 8.9 2.3zm22.4 5.3l-6.5-1.4-5.1-1.4 6.9 1.5 3.8.9c.3.1.6.2.9.4zm21.3 5l-6.5-1.4-2.4-.7 7.8 1.7c.4.1.8.3 1.1.4z"/><path d="M163.2 25.3l-8-1.9 6.4 1.4c.5.1 1 .3 1.6.5zm36.1 8.9l-6.1-1.7 4.2 1 1.9.7zM98.6 10.1l-5.5.2c.3-.2.6-.5 1-.5l4.5.3zm87.6 20.7l-5.3-1.3 5.3 1.3zm-31.1-7.4l-4.4-1.1 4.4 1.1zm25.8 6.2l-4.4-1.1 4.4 1.1z"/><path d="M176.5 28.5l-4.4-1.1 4.4 1.1zm39.6 9.9l-3.8-1.1 3.8.7v.4zM106.8 12l-3.6-.9c1.2.4 2.4.6 3.6.9zM209 36.5l-3.6-.9 3.6.9zm-73.5-17.7l-3.6-.9 3.6.9zm56 13.3l-3.6-.9 3.6.9zM102.2 11l-2.6-.6c.9.1 1.7.4 2.6.6zM202 34.8l-2.8-.6 2.8.6z"/><path d="M138.1 19.4l-2.6-.6 2.6.6zm-6.2-1.5l-2.8-.6 2.8.6zm73.5 17.8l-2.5-.6c.8.1 1.6.4 2.5.6zm7 1.7l-2.5-.6c.8.1 1.6.3 2.5.6zm-24.5-6.2c-.6-.1-1.1-.3-1.7-.4.5.2 1.1.3 1.7.4zm5.2 1.3c-.6-.1-1.1-.3-1.7-.4.6.1 1.2.3 1.7.4z"/><path d="M139.1 19.6c-.4-.1-.7-.2-1.1-.2.4.1.8.2 1.1.2zm-39.5-9.3c-.4-.1-.7-.2-1.1-.2.4.1.8.2 1.1.2zm3.6.9c-.3-.1-.6-.1-.8-.2.3.1.5.1.8.2zM202.8 35c-.3-.1-.6-.1-.9-.2.4.1.7.2.9.2zm7 1.7c-.3-.1-.6-.1-.9-.2.3.1.6.2.9.2zM107.7 12.2c-.3-.1-.6-.1-.9-.2.3.1.6.2.9.2zm21.5 5.1c-.3-.1-.6-.1-.9-.2.3.1.6.1.9.2z"/></g><path fill="#ffd52d" d="M212.3 37.3s.1.1 0 0l-2.5-.6c-.3-.1-.6-.1-.9-.2l-3.6-.9-2.5-.6c-.3-.1-.6-.1-.9-.2l-2.8-.6-6.1-1.7c-.6-.1-1.1-.3-1.7-.4l-3.6-.9c-.6-.1-1.1-.3-1.7-.4l-5.3-1.3-4.4-1.1-4.4-1.1-6.5-1.4-2.4-.7-8-1.9-4.4-1.1-6.5-1.4-5.1-1.4c-.4-.1-.7-.2-1.1-.2l-2.6-.6-3.6-.9-2.8-.6c-.3-.1-.6-.1-.9-.2l-6-1.3-13.5-3.2c-.4-.1-.8-.3-1.1-.4s-.6-.1-.9-.2h0l-3.6-.9c-.3-.1-.6-.1-.8-.2h-.2l-2.6-.6h0c-.4-.1-.7-.2-1.1-.2l-5.5.2c-2.4.6-4.1 2-5.1 4.2l-.8 3.5c-.1 1 0 2.1 0 3.1v1.6l.2 18.2c0 .4-.2.7-.4 1.1l-.1 7.4c.4.5.5.9-.1 1.3l-.1 3.6c.4.3.5.6-.1.9 0 .3-.1.7-.1 1l.2 2.6-.4 4.6-.9 11.2-2.3 17.9c-1.4 10.7-3.6 21.2-6 31.7-1.3 5.6-2.8 11.1-4.3 16.6L66.9 159l-.6 2h0c-.6 1.7-1.2 3.4-1.9 5.1-.1.3-.4.6-.6.9-.1.3-.2.7-.3 1-.1 1.3-.4 2.5-1.4 3.4l-4.4 11.5c-.1.3-.2.5-.3.8-.3 1.1-.6 2.2-1 3.3l-3.4 7.8c-.2.4-.5.8-.8 1.2h0c-.3.8-.7 1.5-1 2.3-.1.1-.1.2-.2.3l-.2.2c0 .1 0 .2-.1.2-.2.5-.5 1-.7 1.5-.2.3-.3.6-.5.9-.2.4-.3.8-.5 1.2-.1.4-.3.7-.4 1.1-.1.2-.3.4-.4.6-.8 1.6-1.5 3.3-2.3 4.9-.6 1.2-1.1 2.5-1.7 3.8-.6 1.1-1.2 2.2-1.7 3.3H56c-.3-1.9.6-3.6 1.3-5.3l4.4-9.6c1.5-3.3 3-6.7 4.4-10.1l4.9-11.6c.9-2.2 1.6-4.4 2.4-6.6l4.1-11.7 3.2-10.4c1.1-3.6 2.2-7.3 3.1-10.9l3.2-12.7 2.3-11c.5-2.3.9-4.6 1.3-6.9l2.3-13c.5-2.9.8-5.8 1.1-8.7.5-4.3.9-8.6 1.3-13 .2-2.6.5-5.3.6-7.9.2-2.7.3-5.4.4-8.2l.5-18.3c0-1.6-.1-3.2-.1-4.7.3-.7.3-1.3.2-1.9 0-2.2.1-4.3.1-6.5.1-.2.1-.4.2-.5l1.4-2.9.2-.2.9-.6c.9-.8 1.9-1.2 3.2-1.1l6.9 1.4c2.2.5 4.4 1.1 6.5 1.6 3.6.9 7.3 1.7 10.9 2.5l10 2.3c3.1.7 6.2 1.5 9.3 2.3 1.9.5 3.8.9 5.8 1.3l11.2 2.8 8.8 2.2 10.8 2.4 9.7 2.4c3.3.8 6.5 1.4 9.8 2.2 2.3.5 4.6 1.2 6.9 1.7 2.2.5 4.4.9 6.7 1.4v-1.3-8.8c-1.3-.3-2.6-.7-3.9-1.1zm-117.5 31l.5-7.2-.5 7.2zm.9-41.5c.1-.7.2-1.3.4-1.9-.2.6-.4 1.2-.4 1.9zm5.4-6c-.6.2-1.2.4-1.7.6.5-.2 1.1-.4 1.7-.6.1-.1.3-.1.4-.2a.76.76 0 0 1-.4.2z"/><path fill="#1c1f14" d="M102.8 21.9l6.9 1.4 6.5 1.6c3.6.9 7.3 1.7 10.9 2.5l10 2.3c3.1.7 6.2 1.5 9.3 2.3 1.9.5 3.8.9 5.8 1.3l11.2 2.8 8.8 2.2 10.8 2.4 9.7 2.4c3.3.8 6.5 1.4 9.8 2.2 2.3.5 4.6 1.2 6.9 1.7 2.2.5 4.4.9 6.7 1.4v18.3 2 30.2 56.8V179c0 4-.6 7.9-1.9 11.8-2.2 6.7-6 12.3-11.2 17-3.9 3.4-8.4 5.9-13.4 7.6-1.6.5-3.2.8-4.8.8h-76-19.5H74 62.6h-6.2c-.3-1.9.6-3.6 1.3-5.3l4.4-9.6c1.5-3.3 3-6.7 4.4-10.1l4.9-11.6c.9-2.2 1.6-4.4 2.4-6.6l4.1-11.7 3.2-10.4c1.1-3.6 2.2-7.3 3.1-10.9l3.2-12.7 2.3-11c.5-2.3.9-4.6 1.3-6.9l2.3-13c.5-2.9.8-5.8 1.1-8.7.5-4.3.9-8.6 1.3-13 .2-2.6.5-5.3.6-7.9.2-2.7.3-5.4.4-8.2l.5-18.3c0-1.6-.1-3.2-.1-4.7.3-.7.5-1.3-.2-1.9 0-2.2.1-4.3.1-6.5.1-.2.1-.4.2-.5l1.4-2.9.2-.2.9-.6c1-.4 2-.7 3.1-1.1zm5.1 15h0c-.1.2-.2.3-.3.5l-.3.6c-.1.1-.1.3-.2.4 0 .1 0 .2-.1.3-.1.4-.2.8-.3 1.1v2.1l.3.9c.3.8.5 1.7 1 2.4 1.6 2.5 4 4 6.6 5.3l3.9 2c-.8.4-1.2.8-1.7.8-2 .2-3.9-.1-5.5-1.3l-5.2-3.6c-1.3 1.5-1.3 3.4-.9 5.2.5 2.1 2.2 3.4 4 4.3 1 .5 2.2.9 3.3 1.3.5.2.6.4.4.9-.4 1.1-.9 2.1-1 3.2-.1.9.1 2 .6 2.7.3.4 1.5.2 2.3.1.4 0 .7-.3 1-.5s.5-.6.6-.9c.1-1 .2-2.1.2-3.1.1-1 .8-1.6 1.6-1.3 1.9.6 3.7.2 5.6-.3 1.3 0 2.5-.4 3.3-1.5.2-.2.5-.4.7-.7 1-1.9.9-3.8.1-5.7-.9-2.3-2.8-3.9-4.9-5s-4.3-2.1-6.5-3.1c-.5-.2-1-.4-.6-1.1.1-.1.2-.3.4-.4l.1-.1c.5-.2 1-.3 1.6-.5.3 0 .5.1.8.1l3.6.9c1.5.7 3 1.5 4.5 2.2.2.1.7 0 .8-.2 1.2-2.2.4-5.3-1.7-6.6-1.5-.9-3.1-1.6-4.7-2.3-.9-.4-1.3-.7-1-1.7l.3-.9v-.6c.1-.4.1-.7.2-1.1 0-.6 0-1.2-.1-1.8l-.3-.6c-.6-.8-1.8-.9-3-.3-.7.4-1.1.8-1 1.7.1 1.1-.2 2.1-.2 3.2 0 .7-.3.9-.9.9-.9 0-1.8-.1-2.7 0-1.6.2-3.2.3-4.4 1.6-.1.2-.2.4-.3.5zM157.6 96c-1.2.1-2.4.3-3.5.4-3.5.3-6.8.9-10.1 2.2-3.8 1.4-7 3.7-9.6 6.8-.6.7-1.1 1.5-1.7 2.3-2 2.4-3.1 5.2-3.8 8.2-.7 2.8-.8 5.6-.5 8.5.3 2.8.9 5.5 2.2 8 2.8 5.3 6.6 9.8 11.5 13.3l13.8 9.5c1.8 1.3 3.5 2.7 5.1 4.2 1.5 1.3 1.2 3.9-.9 4.5-1.4.4-2.7.7-4.3.3-3-.7-5.9-1.7-8.6-3.2-2.3-1.3-4.5-2.9-6.6-4.5-1.8-1.3-3.4-2.8-5.1-4.3-1.3-1.2-2.5-2.7-3.9-3.9-.5-.5-1.3-.8-2-.8-.5-.1-1.1.3-1.7.5-1.3.5-2.8.8-3.5 2.2-1.1 2.3-2 4.7-3 7-.8 2-1.6 4-2.5 5.9-1 2.2-2.1 4.2-3.1 6.4-.8 1.8-.5 2.6 1.2 3.5l4 2.1c2.6 1.2 5.2 2.5 7.8 3.6 2.4 1 4.8 1.8 7.2 2.7.6.2.7.5.4 1-.5 1-.9 2.1-1.4 3.2l-4.4 11.2c-.5 1.2-.3 2.1.3 3.1.8 1.4 1.8 2.2 3.5 2.6 4.4.8 8.8 1.9 13.1 2.8 2.6.6 3.6.1 4.7-2.3 1.6-3.5 3-7.1 4.5-10.6.8-2 1.5-4 2.3-6 .1-.3.5-.6.8-.6 2.8-.3 5.6-.5 8.4-.9 2-.3 4-.8 5.9-1.4 1.2-.4 2.3-1.1 3.5-1.7.6-.3 1.2-.6 1.7-1 1-.8 1.7-1.9 2.8-2.5 1.9-1 3.1-2.6 4.2-4.3 1.4-2.1 2.6-4.4 3.7-6.6a19.57 19.57 0 0 0 1.2-3.4c.2-.9 0-1.8.2-2.7.5-3 .1-5.9-.7-8.7-1.1-4-3.3-7.4-6.2-10.2-2.6-2.5-5.4-4.8-8.3-6.9-3.8-2.8-7.8-5.3-11.7-8-1.5-1.1-2.9-2.5-4.1-4-.9-1.1 0-3.4 1.3-3.5 1.1-.1 2.3-.1 3.4.1 2.9.4 5.5 1.8 8 3.3 4 2.3 7.6 5.3 10.9 8.6.4.4 1 .8 1.5.9 1.3.1 2.6 0 3.9.1 1.2 0 1.8-.6 2.1-1.7l3.5-11.7c.8-2.7 1.4-5.5 2.1-8.2.2-.9 0-1.8-.8-2.4-1.5-1-3-2.1-4.6-2.8-3.5-1.7-7.1-3.2-10.6-4.8-.7-.3-1.1-.7-1-1.5.3-3 .5-5.9.7-8.9l.6-7.5c0-.7-.2-1.5-.6-2.1-.6-.9-1.3-1.8-2.1-2.5-.7-.6-1.5-1.2-2.4-1.4-3.5-.9-6.9-1.7-10.4-2.5-1.6-.4-3.2-.7-4.8-1-1.1-.2-1.7.4-2 1.5-.1.4-.2.9-.2 1.3-.1 2.9-.1 5.8-.3 8.6 0 3.2-.6 6.8-1 10.6z"/><path d="M20.1 134.9l-1.7 4.8c-1.9 0-4.1-.1-6.2-.1-2.1.1-3.5-1-4.4-2.8-.8-1.6.4-3.6 2.3-3.6 1 0 1.9.2 2.9.2-.2-1.7.5-2.9 1.9-3.4 2.9-.9 5.8 1.8 5.2 4.9zm-18.5-9.8c.4-.8.9-1.9 2.3-2.1.2 0 .4-.3.6-.4 1.1-1 1.7-1 2.7 0l4 3.9c.8.7 1.9 1.2 2.9 1.7-.5 1.4-1.8 1.8-3.4 1.1-1.7-.8-2.1-.8-3.6.6.2.3.3.6.6.8.6.5.8 1 .2 1.7-.6.6-1.4 1-2.1.3-.6-.5-1.1-1.2-1.5-2-.4-.9-.5-2-.9-2.9-.5-.9-1.1-1.7-1.8-2.7zm4-.5c-.1 0-.3.1-.4.1l1.3 3.7 1.6-1.1c-.8-1-1.7-1.9-2.5-2.7zm41.2 35.1c-4.1.4-8 0-11.2-2.8-3.7-3.3-5-7.6-4.1-12.5.8-3.7 4.5-6.9 8.5-7.4 1.1-.1 2.2-.2 3.2-.2.2 1 .5 1.9.7 2.9l2.6 17.7c.2.7.2 1.5.3 2.3z" fill="#c51e38"/><path d="M49.6 199.1c0-.5-.1-.9-.1-1.4 0 .5 0 1 .1 1.4zM20.6 54v.9-.9zm28.8 137.7v-.5.5zm.7-.1v.4-.4zm.1 6.8v.3-.3z" fill="#4f4e4c"/><path d="M48.5 177.9s0-.1 0 0c0-.1 0-.1 0 0 0-.1 0-.1 0 0h0zm0-1.1h0c-.1 0-.1-.1-.1-.1 0 .1 0 .1.1.1zm15.7-9.8l1-3.5 2.9-8.8 3.8-12 1.3-5.5c.1-.2.2-.3.2-.5.1-.5.2-1 .4-1.5l2.3-9.1.3-1 2.9-13.2 1.3-7.2 1.1-5.8 2.4-17 1.4-12.5c.2-1.8 0-3.6.1-5.4l.9-8.1.2 2.6-.4 4.6-.9 11.2-2.3 17.9c-1.4 10.7-3.6 21.2-6 31.7-1.3 5.6-2.8 11.1-4.3 16.6-1.7 6.2-3.7 12.3-5.5 18.4l-.6 2c-.6 1.7-1.2 3.4-1.9 5.1-.1.4-.4.7-.6 1zM86.8 50.7c0-.4.1-.9.1-1.3.4.4.5.9-.1 1.3zm-.2 4.4c0-.3 0-.6.1-.9.4.4.4.7-.1.9z" fill="#ffe867"/><path fill="#f2b22d" d="M101.5 20.7c-.1.1-.3.1-.4.2a.76.76 0 0 1 .4-.2z"/><g fill="#ffe867"><path d="M52.5 195.8l1.3-3.4 3.4-7.9c.1-.3.4-.6.6-.9l-1 3.3-3.4 7.8c-.2.4-.6.8-.9 1.1zm10-24.4l1.4-3.4c-.2 1.2-.4 2.5-1.4 3.4z"/><path d="M51.5 198.2c.3-.8.7-1.5 1-2.3l-1 2.3zm-.4.4l.2-.2c-.1.1-.2.1-.2.2z"/></g><path d="M102.8 21.9L99.6 23c.9-.8 2-1.2 3.2-1.1zm-5.9 11.9c.7.6.4 1.2.2 1.9l-.2-1.9zm.3-7.1c-.1.2-.1.4-.2.5 0-.1.1-.3.2-.5zm1.6-3.1l-.2.2.2-.2z" fill="#6c3006"/><path fill="#f2b22d" d="M108.3 36.5c1.2-1.3 2.9-1.4 4.4-1.6.9-.1 1.8 0 2.7 0 .6 0 .9-.2.9-.9 0-1.1.2-2.2.2-3.2-.1-.9.4-1.4 1-1.7 1.2-.6 2.4-.5 3 .3l.3.6c0 .6 0 1.2.1 1.8-.1.4-.1.7-.2 1.1v.6l-.3.9c-.3 1 .1 1.3 1 1.7 1.6.6 3.3 1.3 4.7 2.3 2.2 1.3 2.9 4.4 1.7 6.6-.1.2-.6.3-.8.2l-4.5-2.2c-1.1-.8-2.3-1.1-3.6-.9-.3 0-.5-.1-.8-.1-.6 0-1.3-.3-1.6.5l-.1.1c-.1.1-.2.3-.4.4-.4.7.1.9.6 1.1l6.5 3.1c2.1 1.1 4 2.7 4.9 5 .7 1.9.9 3.8-.1 5.7-.2.3-.5.5-.7.7l-3.3 1.5c-1.8.4-3.7.8-5.6.3-.8-.2-1.5.4-1.6 1.3l-.2 3.1c0 .3-.3.6-.6.9-.3.2-.7.5-1 .5-.8.1-2 .3-2.3-.1-.5-.7-.7-1.8-.6-2.7.1-1.1.6-2.2 1-3.2.2-.5.1-.7-.4-.9-1.1-.4-2.3-.7-3.3-1.3-1.8-.9-3.5-2.3-4-4.3-.4-1.8-.4-3.7.9-5.2l5.2 3.6c1.7 1.2 3.6 1.5 5.5 1.3.5 0 1-.4 1.7-.8l-3.9-2c-2.6-1.3-5-2.9-6.6-5.3-.5-.7-.7-1.6-1-2.4l-.3-.9v-2.1l.3-1.1c0-.1 0-.2.1-.3s.1-.3.2-.4l.3-.6c.1-.2.2-.3.3-.5a.55.55 0 0 1 .3-.5z"/><path fill="#6c3006" d="M157.6 96c.5-3.8 1-7.5 1.3-11.1.2-2.9.2-5.8.3-8.6 0-.5.1-.9.2-1.3.2-1 .9-1.6 2-1.5 1.6.3 3.2.6 4.8 1l10.4 2.5c.9.2 1.7.8 2.4 1.4.8.7 1.5 1.6 2.1 2.5.4.6.7 1.4.6 2.1-.1 2.5-.4 5-.6 7.5l-.7 8.9c-.1.8.3 1.2 1 1.5l10.6 4.8c1.6.8 3.1 1.8 4.6 2.8.8.5 1 1.4.8 2.4-.7 2.8-1.3 5.5-2.1 8.2l-3.5 11.7c-.3 1.1-.9 1.7-2.1 1.7-1.3 0-2.6.1-3.9-.1-.5-.1-1.1-.5-1.5-.9-3.3-3.3-6.9-6.2-10.9-8.6-2.5-1.5-5.1-2.9-8-3.3-1.1-.2-2.3-.2-3.4-.1-1.4.1-2.3 2.4-1.3 3.5 1.2 1.4 2.6 2.9 4.1 4 3.8 2.8 7.9 5.2 11.7 8 2.9 2.1 5.7 4.4 8.3 6.9 2.9 2.8 5.1 6.3 6.2 10.2.8 2.8 1.2 5.7.7 8.7-.2.9 0 1.8-.2 2.7-.3 1.2-.6 2.3-1.2 3.4-1.2 2.2-2.4 4.5-3.7 6.6-1.1 1.7-2.4 3.3-4.2 4.3-1.1.6-1.8 1.7-2.8 2.5-.5.4-1.1.7-1.7 1-1.1.6-2.3 1.3-3.5 1.7-1.9.6-3.9 1.1-5.9 1.4-2.8.4-5.6.6-8.4.9-.3 0-.7.3-.8.6l-2.3 6-4.5 10.6c-1.1 2.4-2 2.9-4.7 2.3-4.4-.9-8.7-2-13.1-2.8-1.7-.3-2.7-1.1-3.5-2.6-.6-1.1-.8-1.9-.3-3.1l4.4-11.2c.4-1.1.9-2.1 1.4-3.2.2-.5.2-.8-.4-1-2.4-.9-4.8-1.7-7.2-2.7-2.6-1.1-5.2-2.4-7.8-3.6-1.4-.6-2.7-1.4-4-2.1-1.8-.9-2.1-1.7-1.2-3.5l3.1-6.4c.9-2 1.7-4 2.5-5.9 1-2.3 1.9-4.7 3-7 .7-1.4 2.2-1.6 3.5-2.2.5-.2 1.1-.6 1.7-.5.7.1 1.5.4 2 .8 1.4 1.2 2.5 2.7 3.9 3.9 1.6 1.5 3.3 3 5.1 4.3 2.1 1.6 4.3 3.2 6.6 4.5 2.7 1.5 5.6 2.5 8.6 3.2 1.5.4 2.8.1 4.3-.3 2.1-.6 2.3-3.2.9-4.5-1.7-1.4-3.3-2.9-5.1-4.2l-13.8-9.5c-4.9-3.5-8.7-8-11.5-13.3-1.4-2.5-2-5.2-2.2-8-.3-2.9-.1-5.8.5-8.5.7-2.9 1.8-5.8 3.8-8.2.6-.7 1.1-1.6 1.7-2.3 2.6-3.1 5.8-5.3 9.6-6.8 3.3-1.3 6.6-1.9 10.1-2.2.8.5 2 .3 3.2.1zm-2.9 68.9h-.4l-5.9-2.4c-.2-.2-.3-.4-.5-.5-2.7-1.7-5.6-3.3-8.1-5.3-3-2.4-5.7-5.3-8.5-7.9-.3-.3-.7-.5-1.2-.6-1.4-.3-2.6.5-3.8 1.2a2.41 2.41 0 0 0-1 1l-4.1 9.6-4.6 9.9c-.4.8-.1 1.4.5 1.8.6.5 1.3.8 2 1.2a242.29 242.29 0 0 0 7.3 3.5c2.5 1.1 5.1 2.1 7.7 3.1 1.3.5 2.6 1 3.9 1.4-.5 1.4-.8 2.8-1.3 4.1-.9 2.3-1.9 4.6-2.9 6.9-.7 1.6-1.3 3.3-1.9 4.9-.7 1.6.5 4.1 2.2 4.5l14.7 3.2c1 .2 1.8-.1 2.3-1.1.4-1 .9-1.9 1.3-2.8l6-14.9c.3-.7.6-1 1.4-1 2.9.2 5.8-.3 8.6-.8 3.8-.7 7.2-2.1 10.5-4.2 5-3.2 8.4-7.6 10.5-13 .8-2.1 1.4-4.3 1.3-6.7-.1-1.8.1-3.6-.2-5.4-.6-3.3-1.9-6.3-4-8.9-1.3-1.6-2.7-3-4.1-4.5l-1.6-1.3c-.7-1.4-2-2.2-3.4-2.7a.76.76 0 0 0-.4-.2c-.5-.4-1-.9-1.6-1.3l-9.4-6.4c-1.5-1-2.9-2.1-4.4-3.1-.2-.3-.3-.7-.5-1-.5-.7-1.1-1.3-1.5-2-.6-1-.6-2.2.1-3.1 1.1-1.4 2.5-2 4.3-1.7a28.07 28.07 0 0 1 8.3 2.8c4 2.2 7.6 4.9 10.9 8 1.7 1.6 3.3 2.7 5.7 2.3h.3c1 .1 1.5-.3 1.7-1.3l3.1-10.4 2.3-9c.3-1.2 0-1.8-1-2.1-.3-.2-.7-.4-1-.7l-3.8-2.1c-.3-.1-.6-.2-.8-.3l-10.3-4.5c.1-1 .1-2.1.2-3.1l1.1-14.7c.1-1.7-1.6-4.2-3.2-4.8h0c-.1-.1-.2-.1-.2-.2h0l-2.3-.6-6.8-1.5c-1.9-.4-3.8-.9-5.6-1.3-.2-.1-.4-.2-.7-.2h-.4c-.7-.4-1.1 0-1.2.6-.2.5-.2 1.1-.2 1.6-.2 3.5-.2 6.9-.5 10.4-.2 2.6-.5 5.2-.8 7.8-.2 1.8-.2 1.8-2.1 2.1-.1 0-.2.1-.3.2h-.4c-.8.1-1.7.1-2.5.2h-.2-1.2c-.3 0-.7-.1-.9 0-2.5.7-5 1.3-7.4 2.2-1.6.6-3.1 1.5-4.4 2.6-2 1.8-4.1 3.7-5.7 5.8-1.3 1.8-2.2 3.9-3 6-.6 1.5-.6 3.1-.9 4.7-.3 2-.6 4-.3 6.1.5 3.5 1.6 6.7 3.6 9.5 2.5 3.6 5.2 7.2 8.9 9.7 2 1.4 4 2.9 6 4.4l12.7 8.9c2.7 2 2.8 4.6.7 7-.3.1-.7.2-1 .4l-1.9.3c-.7 0-1.4-.1-2.1-.1-.1 0-.3 0-.4-.1h-.6v-.1c-.4.1-.5 0-.7 0z"/><g fill="#c2791f"><path d="M118.9 42.1c1.3-.2 2.5.1 3.6.9l-3.6-.9zm5 18.1l3.3-1.5c-.8 1-2 1.4-3.3 1.5zm-7.4-17.6c.3-.9 1-.5 1.6-.5-.6.1-1.1.3-1.6.5zm4.2-9.7c.1-.4.1-.7.2-1.1-.1.4-.2.8-.2 1.1zM107 38.8l-.3 1.1.3-1.1zm13.4-4.3l.3-.9c-.2.2-.3.6-.3.9zM106.8 42l.3.9c-.2-.3-.3-.6-.3-.9zm14-12l-.3-.6.3.6zm-13 6.9c-.1.2-.2.3-.3.5.1-.2.2-.3.3-.5z"/><path d="M108.3 36.5l-.4.4c.1-.1.2-.3.4-.4zm7.8 6.5c.1-.1.2-.3.4-.4-.2.1-.3.3-.4.4zm-8.9-5c-.1.1-.1.3-.2.4a.76.76 0 0 0 .2-.4z"/></g><path fill="#fcf6ed" d="M5.6 124.6l2.5 2.7c-.5.4-1 .7-1.6 1.1l-1.3-3.7c.2 0 .3-.1.4-.1z"/><path d="M73.8 135.3c-.1.5-.2 1-.4 1.5-.4-.8-.9-1.5-1.3-2.3l-2.4-5.4a1.38 1.38 0 0 1-.4.3c-.9-3-1.2-6-.4-9.1 1.2-4.7 4.1-8.2 7.4-11.5 1.4-1.4 2.8-2.6 4.2-3.9l-1.3 7.2-2.9 13.2c-.1.3-.2.7-.3 1-1.7.7-3.5 1.4-5.2 2.2-.2.1-.6.6-.5.8.6 1.5 1.1 2.9 1.9 4.3.5.6 1.1 1.1 1.6 1.7zM43.9 69.1c1.8 1.3 4 1.6 6.1 2.3 1.4.5 2.8.9 3.6 2.4.8 1.3.9 2.7.2 3.8-.9 1.3-2.7 2-4.1 1.6-.8-.2-1.5-.5-2.3-.7-.1.1-.1.2-.2.3l3.1 2.8c-.6.6-3.5 1.3-4.3.8 1.3-1 .7-2.3.5-3.8-.3.3-.5.5-.6.7-.8 1.7-2.3 2.2-3.9 2.2-2.6-.1-4.5-2.4-4.6-4.8 0-.6.5-1.3.8-1.9.2-.4.5-.7.8-1.1 1.6-1.3 2.9-2.9 3.5-4.9.6 0 1 .1 1.4.3zm-11.4-2.2c-1.1-2.9-.3-5.7 0-8.6.1-1.2-.1-2.2-.9-3.1-.4-.4-.3-.6.1-1 1.3-1.3 2.8-1.7 4.6-1.5.2 0 .5 0 .7-.1 2.3-1.3 3.6-.2 4.5 1.5 1.2 2.1 2.1 4.3 3.2 6.4.8 1.5 2.2 2.7 3.7 3.6-.8 1.2-3.2 2-4.2 1.2-1-.7-1.9-1.5-2.8-2.3-.2-.2-.4-.4-.6-.4l-4.3.8.5 1.7c.6 1.5.6 1.6-.9 2.4s-2.3.7-3.6-.6zm4.8-11.3c-.1 0-.3.1-.4.1l-.5 5.6 3.4-.8c-1-1.6-1.2-3.5-2.5-4.9z" fill="#4f4e4c"/><path fill="#fff" d="M32.5 66.9c1.3 1.3 2.1 1.4 3.6.7s1.5-.8.9-2.4c-.2-.5-.3-1-.5-1.7l4.3-.8c.2 0 .4.3.6.4l2.8 2.3c1 .8 3.4-.1 4.2-1.2h.9c-.4.6-.7 1.2-1.2 1.6L44.8 68c-.3.3-.5.7-.8 1.1-.4-.2-.8-.3-1.3-.6-.6 2-1.9 3.6-3.5 4.9l-3.5-3c-.7-.5-1.4-.9-2-1.5-.5-.5-.9-1.1-1.3-1.7-.2 0 0-.2.1-.3z"/><path d="M69.4 129.4c.1-.1.3-.3.4-.3l2.4 5.4c.4.8.8 1.6 1.3 2.3-.1.2-.2.3-.2.5-2-2.3-3.2-5-3.9-7.9zm4.4 5.9c-.5-.6-1.2-1.1-1.5-1.8l-1.9-4.3c-.1-.2.3-.7.5-.8l5.2-2.2-2.3 9.1z" fill="#1c1f14"/><path d="M148.4 162.5c-1.2-.6-2.6-.9-3.6-1.7l-9.2-6.7c-.2-.3-.4-.6-.7-.9l-3.3-3.3c-1.4-1.5-1.9-1.6-3.7-.6-.4.2-.8.4-1 .7a18.77 18.77 0 0 0-1.2 3c-.3.8-.5 1.6-.7 2.4l-2 4.1-2.9 6.2-1.7 3.6c-.1.3.2.9.4 1l13.8 6.5c2 .9 4.2 1.4 6.3 2.1 1.2.4 1.3.4.9 1.6l-1.9 5.1c-.1.2-.2.3-.3.5 0 .2-.1.4-.1.6l-.6 1.1-.5 1.7c-.1.2-.2.3-.3.5l-2.4 6.1c-.7 1.6.2 3.3 2 3.7l13 2.8c1 .2 1.6.2 2.1-1 1.5-3.9 3.2-7.8 4.8-11.7.8-1.9 1.6-3.8 2.2-5.7.4-1 .9-1.4 2-1.3 1.6.1 3.3-.1 4.9-.2h.4c.4-.1.8-.1 1.3-.2h.4.6c.2-.1.3-.2.5-.4 1.7-.4 3.5-.5 5.2-1.2 2.1-.8 4-1.9 5.9-3 3.4-2 5.9-5 7.8-8.4 1.5-2.6 2.7-5.4 3.1-8.3.2-1.7.1-3.4.2-5.1v-.6c-.8-5.1-3.3-9.3-6.8-12.9-.3-.3-.4-.7-.5-1 1.4 1.5 2.8 2.9 4.1 4.5 2.1 2.6 3.4 5.6 4 8.9.3 1.8.1 3.6.2 5.4.1 2.3-.5 4.5-1.3 6.7-2.1 5.4-5.6 9.8-10.5 13a28.28 28.28 0 0 1-10.5 4.2c-2.9.5-5.7 1-8.6.8-.8 0-1.2.3-1.4 1l-6 14.9c-.4 1-.9 1.9-1.3 2.8-.5 1-1.3 1.3-2.3 1.1l-14.7-3.2c-1.7-.4-2.9-2.9-2.2-4.5s1.3-3.3 1.9-4.9c.9-2.3 2-4.6 2.9-6.9.5-1.3.9-2.7 1.3-4.1-1.3-.5-2.6-.9-3.9-1.4-2.6-1-5.1-2-7.7-3.1-2.5-1.1-4.9-2.3-7.3-3.5-.7-.3-1.4-.7-2-1.2-.6-.4-.9-1-.5-1.8 1.6-3.3 3.1-6.6 4.6-9.9l4.1-9.6a2.41 2.41 0 0 1 1-1c1.2-.6 2.3-1.4 3.8-1.2.4.1.9.3 1.2.6 2.8 2.6 5.5 5.5 8.5 7.9 2.5 2 5.4 3.5 8.1 5.3-.2-.3-.1 0 .1.1zm5.2-12.8l5.1 3.8c1.6 1.2 3.3 2.3 4.5 4 1.6 2.1 1.1 3.7 0 5.8-.3.6-1.4.9-2.1 1.3 2.2-2.3 2-5-.7-7-4.2-3.1-8.5-6-12.7-8.9-2-1.4-4-2.9-6-4.4-3.7-2.6-6.4-6.1-8.9-9.7-2-2.8-3.1-6.1-3.6-9.5-.3-2.1 0-4.1.3-6.1.3-1.6.3-3.3.9-4.7.8-2.1 1.7-4.3 3-6 1.6-2.2 3.6-4 5.7-5.8 1.3-1.1 2.8-2 4.4-2.6 2.4-.9 4.9-1.5 7.4-2.2.3-.1.6 0 .9 0-.1.1-.1.3-.2.4-1.4.3-2.8.7-4.2 1-.8.2-1.6.4-2.3.7-6.2 2.7-10.9 6.9-13.1 13.5l-.3 1.2c-.2.8-.5 1.6-.7 2.4v.6c-.1 1.1-.2 2.1-.2 3.2 0 .8-.1 1.7-.1 2.5l.3 1.5c.3 3.1 1.4 5.8 3 8.4 1.9 3 4.3 5.5 6.8 7.9 3.6 3.4 7.8 5.8 11.8 8.5.3.1.7.1 1 .2zm8.1-23.5c-1.6-1.3-3.1-2.6-3.4-4.8v-1c0-.2 0-.4.1-.6s.2-.3.3-.5c.6-1.6 2-2.6 3.7-2.7 5.2-.4 9.5 2 13.7 4.6 3.1 1.9 5.9 4.3 8.5 6.8 1.3 1.3 2.6 1.8 4.3 1.6.4-.1 1 .4 1.1-.4.1-.2.2-.3.3-.5l1.5-5.5 2.8-10.4c.3-1.3.6-2.6.8-3.8 1 .3 1.3.9 1 2.1l-2.3 9-3.1 10.4c-.3.9-.8 1.4-1.7 1.3h-.3c-2.4.4-4-.6-5.7-2.3-3.2-3.1-6.8-5.8-10.9-8-2.6-1.4-5.4-2.3-8.3-2.8-1.8-.3-3.3.3-4.3 1.7-.7.9-.7 2.1-.1 3.1.4.7 1 1.3 1.5 2 .2 0 .3.4.5.7zm-1.2-36.7l-.7 7c0 .3-.4.8-.6.8-.9.1-1.8 0-2.7-.1.1-.1.2-.1.3-.2 1.8-.3 1.9-.3 2.1-2.1l.8-7.8.5-10.4c0-.6.1-1.1.2-1.6.2-.6.5-1 1.2-.6l-.3 7.4c-.1.4-.1.7-.2 1.1l-.2 2.1-.2 2.3v.8l-.2 1.3zm19.1-5.9c.3-1.7-.1-3-1.4-4.1-.3-.2-.4-.6-.6-.9 1.6.6 3.3 3.2 3.2 4.8l-1.1 14.7-.2 3.1c-.9.1-1.3-.2-1.3-1.1l.5-5.3c0-.3.1-.6.1-.8v-.4c0-.4 0-.8.1-1.2s.1-.9.2-1.3v-.6c.1-.2.3-.4.3-.7v-2.3-.6l.2-3.3zm1.3 56.3l-3.4-2.7c1.4.6 2.7 1.3 3.4 2.7zm13.5-31.8l-3.8-2.1 3.8 2.1z" fill="#c2791f"/><path d="M159 165.4c-.8.6-3.1.5-3.8-.3h.6c.1 0 .3 0 .4.1l2.1.1c.2 0 .4 0 .7.1zm-3-68.1c-.5.5-2.1.6-2.5.2.8 0 1.6-.1 2.5-.2z" fill="#f2b22d"/><path fill="#c2791f" d="M159 165.4c-.2 0-.5-.1-.7-.1l1.9-.3c-.4.1-.8.2-1.2.4z"/><path fill="#f2b22d" d="M151.8 98c.1-.1.1-.3.2-.4h1.2c-.5.1-.9.2-1.4.4z"/><path d="M177.3 78.3l-2.3-.6 2.3.6zm-14.7-3.4c-.2-.1-.4-.2-.7-.2.2 0 .4.1.7.2zm-7.4 90.1c-.2 0-.3 0-.5.1v-.2c.2 0 .3.1.5.1z" fill="#c2791f"/><path fill="#f2b22d" d="M154.7 164.9v.2c-.1-.1-.3-.1-.4-.2h.4z"/><path d="M156.2 165.2c-.1 0-.3 0-.4-.1.1 0 .2 0 .4.1zm21.3-86.7c-.1-.1-.2-.1-.2-.2.1.1.2.1.2.2z" fill="#c2791f"/><path fill="#fcf6ed" d="M37.3 55.6c1.3 1.3 1.5 3.3 2.6 5l-3.4.8.5-5.6c0-.1.2-.1.3-.2z"/><path d="M179.6 83.6l-.2 3.2c-.2-1.1-.5-2.2.2-3.2zm-48.8 36.9l.2-3.2c0 1.1-.1 2.2-.2 3.2zm48.6-33.1v2.3c0 .2-.2.5-.3.7V88c-.1-.2.2-.4.3-.6zm-18.7.2l.2-2.3-.2 2.3zm-29.6 29.2l.7-2.4-.7 2.4zm-.1 7.8l-.3-1.5.3 1.5zM179 91c-.1.4-.1.9-.2 1.3.1-.5.2-.9.2-1.3zm-18.5-1.5c0-.4.1-.7.1-1.1 0 .4-.1.8-.1 1.1zm.6-6.3c.1-.4.1-.7.2-1.1-.1.3-.2.7-.2 1.1zm-2.8 37.1v1-1zm32 8.2c-.1.2-.2.3-.3.5.1-.2.2-.3.3-.5zm-31.6-9.3c-.1.2-.2.3-.3.5.1-.1.2-.3.3-.5zm20.1-25.7v.4-.4z" fill="#f2b22d"/><path fill="#ffd52d" d="M194.4 108.1l-3.8-2.1-.8-.3-10.3-4.5c-.9.1-1.3-.2-1.3-1.1l.5-5.3c0-.3.1-.6.1-.8v-.4c0-.4 0-.8.1-1.2s.1-.9.2-1.3v-.6-2.4c0-.2.2-.4.4-.6v-.6c-.2-1.1-.5-2.2.2-3.2.3-1.7-.1-3-1.4-4.1-.3-.2-.4-.6-.6-.9-.1-.1-.2-.1-.2-.2h0l-2.3-.6-6.8-1.5-5.6-1.3c-.2-.1-.4-.2-.7-.2h-.4l-.3 7.4c-.1.4-.1.7-.2 1.1l-.2 2.1-.2 2.3v.8c0 .4-.1.7-.1 1.1l-.7 7c0 .3-.4.8-.6.8-.9.1-1.8 0-2.7-.1h-.4c-.5.5-2.1.6-2.5.2h-.2c-.5.1-1 .3-1.5.4l-4.2 1c-.8.2-1.6.4-2.3.7-6.2 2.7-10.9 6.9-13.1 13.5l-.3 1.2c-.2.8-.5 1.6-.7 2.4v.6c-.1 1.1-.2 2.1-.2 3.2 0 .8-.1 1.7-.1 2.5l.3 1.5c.3 3.1 1.4 5.8 3 8.4 1.9 3 4.3 5.5 6.8 7.9 3.6 3.4 7.8 5.8 11.8 8.5.3.2.7.2 1 .3l5.1 3.8c1.6 1.2 3.3 2.3 4.5 4 1.6 2.1 1.1 3.7 0 5.8-.3.6-1.4.9-2.1 1.3-.3.1-.7.2-1 .4-.4.1-.8.3-1.3.4-.8.6-3.1.5-3.8-.3v-.1c-.2 0-.3 0-.5.1-.1-.1-.3-.1-.4-.2l-5.9-2.4c-1.2-.6-2.6-.9-3.6-1.7l-9.2-6.7c-.2-.3-.4-.6-.7-.9l-3.3-3.3c-1.4-1.5-1.9-1.6-3.7-.6-.4.2-.8.4-1 .7a18.77 18.77 0 0 0-1.2 3c-.3.8-.5 1.6-.7 2.4.4-.1.9-.1 1.3-.2h0c-.4.1-.9.1-1.3.2-.7 1.4-1.4 2.7-2 4.1l-2.9 6.2c-.6 1.2-1.2 2.4-1.7 3.6-.1.3.2.9.4 1l13.8 6.5c2 .9 4.2 1.4 6.3 2.1 1.2.4 1.3.4.9 1.6-.6 1.7-1.3 3.4-1.9 5.1-.1.2-.2.3-.3.5 0 .2-.1.4-.1.6-.2.4-.4.7-.6 1.1-.2.6-.3 1.1-.5 1.7-.1.2-.2.3-.3.5l-2.4 6.1c-.7 1.6.2 3.3 2 3.7l13 2.8c1 .2 1.6.2 2.1-1 1.5-3.9 3.2-7.8 4.8-11.7.8-1.9 1.6-3.8 2.2-5.7.4-1 .9-1.4 2-1.3 1.6.1 3.3-.1 4.9-.2h.4c.4-.1.8-.1 1.3-.2h.4.6c.2-.1.3-.2.5-.4 1.7-.4 3.5-.5 5.2-1.2 2.1-.8 4-1.9 5.9-3 3.4-2 5.9-5 7.8-8.4 1.5-2.6 2.7-5.4 3.1-8.3.2-1.7.1-3.4.2-5.1v-.6c-.8-5.1-3.3-9.3-6.8-12.9-.3-.3-.4-.7-.5-1l-1.6-1.3-3.4-2.7a.76.76 0 0 0-.4-.2c-.5-.4-1-.9-1.6-1.3l-9.4-6.4c-1.5-1-2.9-2.1-4.4-3.1-1.6-1.3-3.1-2.6-3.4-4.8v-1c0-.2 0-.4.1-.6s.2-.3.3-.5c.6-1.6 2-2.6 3.7-2.7 5.2-.4 9.5 2 13.7 4.6 3.1 1.9 5.9 4.3 8.5 6.8 1.3 1.3 2.6 1.8 4.3 1.6.4-.1 1 .4 1.1-.4.1-.2.2-.3.3-.5l1.5-5.5 2.8-10.4c.3-1.3.6-2.6.8-3.8-.9-.9-1.3-1.1-1.6-1.3zM134 154.3c.2.2.4.4.6.7-.2-.2-.4-.5-.6-.7h0zm18.2 39.9c-.8 2.2-1.6 4.3-2.5 6.5.9-2.1 1.7-4.3 2.5-6.5.4-.9.8-1.9 1.3-2.8-.4.9-.9 1.9-1.3 2.8z"/><path d="M136.8 187.7l.6-1.1-.6 1.1zm53.1-32.5v.6c.1-.2 0-.4 0-.6zm-22.1 26.6c-.2.1-.3.2-.5.4.2-.2.4-.3.5-.4zm-1.1.4h-.4.4zm-1.6.2h-.4.4zm-27.6 3.6c.1-.2.2-.3.3-.5-.1.2-.2.3-.3.5zm-1.5 3.8c.1-.2.2-.3.3-.5-.1.2-.2.3-.3.5z" fill="#f2b22d"/></svg>