<?xml version="1.0" encoding="UTF-8"?>
<svg xmlns="http://www.w3.org/2000/svg" baseProfile="tiny-ps" version="1.2" viewBox="0 0 190.9 190.9">
<title>Avanza</title>
  <!-- Generator: Adobe Illustrator 28.6.0, SVG Export Plug-In . SVG Version: 1.2.0 Build 709)  -->
  <g>
    <g id="Layer_1">
      <rect width="191" height="191" fill="#f2fcf8"/>
      <g>
        <g>
          <path d="M51.5,99.2l4.5,12.3h-3.3l-.6-2h-4.5l-.6,2h-3.3l4.6-12.3h3.2ZM49.8,102.2c-.2.6-.3,1.3-.5,1.9-.3.9-.7,2.4-1,3.3h3.1l-1.6-5.2Z" fill="#222"/>
          <path d="M63.6,99.2h3.3l-4.3,12.3h-3.1l-4.2-12.3h3.3l2.6,8.8,2.5-8.8Z" fill="#222"/>
          <path d="M73.9,99.2l4.5,12.3h-3.3l-.6-2h-4.5l-.6,2h-3.3l4.6-12.3h3.2ZM72.3,102.2c-.2.6-.3,1.3-.5,1.9-.3.9-.7,2.4-1,3.3h3.1l-1.6-5.2Z" fill="#222"/>
          <path d="M80.2,99.2h3l2.7,4.5c1,1.7,1.3,2.3,1.9,3.4v-7.9c-.1,0,2.8,0,2.8,0v12.3h-3l-2.3-3.9c-1.1-1.8-1.3-2.2-2.2-3.9v7.8c0,0-2.9,0-2.9,0v-12.3Z" fill="#222"/>
          <path d="M93.6,99.2h10v2.4l-6.7,7.5h6.7v2.4h-10.5v-2.3l6.8-7.6h-6.3v-2.4Z" fill="#222"/>
          <path d="M112.7,99.2l4.5,12.3h-3.3l-.6-2h-4.5l-.6,2h-3.3l4.6-12.3h3.2ZM111.1,102.2c-.2.6-.3,1.3-.5,1.9-.3.9-.7,2.4-1,3.3h3.1l-1.6-5.2Z" fill="#222"/>
        </g>
        <g>
          <rect x="121.5" y="99.2" width="4.3" height="12.4" fill="#00c281"/>
          <rect x="128.8" y="95.6" width="4.3" height="15.9" fill="#00c281"/>
          <rect x="136.1" y="91.2" width="4.3" height="20.4" fill="#00c281"/>
          <rect x="143.4" y="79.7" width="4.3" height="31.9" fill="#00c281"/>
        </g>
      </g>
    </g>
  </g>
</svg>