<?xml version="1.0" encoding="UTF-8" standalone="yes"?>
<svg version="1.2" xml:space="preserve" width="439.55701" height="439.55701" viewBox="0 0 439.55701 439.55701" baseProfile="tiny-ps" xmlns="http://www.w3.org/2000/svg">
  <title>Mayfran International</title>
  <defs id="defs6"/>
  <g id="mayfran-logo" transform="matrix(1.3333333,0,0,-1.3333333,62.559235,373.10263)">
    <path d="m 168.389,0 h 44.142 v 154.344 h -44.142 z" id="path10" fill="#f58426" fill-opacity="1" fill-rule="nonzero" stroke="none"/>
    <g id="g12">
      <g id="g14">
        <g id="g20" transform="translate(14.6353)">
          <path d="m 0,0 v 129.469 c -0.221,10.437 11.439,24.874 23.987,24.861 H 42.979 V 0 Z" id="path22" fill="#00aeef" fill-opacity="1" fill-rule="nonzero" stroke="none"/>
        </g>
        <g id="g28" transform="translate(210.5757,202.7032)">
          <path d="M 0,0 H 16.588 C 16.381,6.499 14.235,12.294 11.145,17.56 H -4.214 C -1.735,12.168 -0.206,6.281 0,0 M -5.059,19.742 H 9.672 c -6.531,9.535 -16.875,16.038 -29.174,16.541 0.007,-0.004 0.069,-0.052 0.072,-0.048 6.008,-4.268 10.938,-9.929 14.371,-16.493 m -17.58,16.476 c -12.184,-0.582 -22.45,-7.006 -28.935,-16.476 h 14.582 c 3.427,6.555 8.352,12.211 14.353,16.476 M -37.838,17.56 H -53.045 C -56.136,12.294 -58.281,6.499 -58.491,0 h 16.438 c 0.206,6.281 1.736,12.168 4.215,17.56 M -42.15,-2.182 h -16.372 c 0.172,-6.125 2.045,-11.648 4.8,-16.71 h 15.242 c -2.15,5.197 -3.579,10.754 -3.67,16.71 m 4.511,-18.892 h -14.612 c 6.197,-9.696 16.419,-16.159 28.491,-17.143 -5.923,4.502 -10.66,10.367 -13.879,17.143 m 19.279,-17.204 c 12.172,0.911 22.472,7.444 28.708,17.204 h -14.76 c -3.234,-6.806 -7.992,-12.697 -13.948,-17.204 m 12.441,19.386 c 2.262,5.163 3.736,10.732 3.834,16.71 h -17.796 v -16.71 z M -2.185,0 C -2.401,6.303 -3.957,12.216 -6.568,17.56 H -19.881 V 0 Z M -19.881,33.646 V 19.742 h 12.298 c -3.061,5.475 -7.299,10.16 -12.298,13.904 M -35.484,17.56 C -38.094,12.216 -39.648,6.303 -39.868,0 h 17.806 v 17.56 z m 13.422,-38.634 h -13.216 c 3.132,-6.212 7.672,-11.534 13.216,-15.66 z m -17.904,18.892 c 0.096,-5.978 1.57,-11.547 3.834,-16.71 h 14.07 v 16.71 z m 20.085,-18.892 v -15.56 c 5.491,4.108 9.996,9.395 13.107,15.56 z m -2.181,40.816 V 33.741 C -27.115,29.984 -31.386,25.26 -34.47,19.742 Z m 18.489,-38.634 h 15.391 c 2.755,5.062 4.63,10.585 4.803,16.71 H 0.098 c -0.092,-5.956 -1.521,-11.513 -3.671,-16.71" id="path30" fill="#f58426" fill-opacity="1" fill-rule="nonzero" stroke="none"/>
        </g>
        <path d="m 161.628,0 h -44.144 v 154.343 h 44.144 z" id="path24" fill="#00aeef" fill-opacity="1" fill-rule="nonzero" stroke="none"/>
        <path d="M 109.614,0 H 65.469 v 154.343 h 44.145 z" id="path26" fill="#00aeef" fill-opacity="1" fill-rule="nonzero" stroke="none"/>
      </g>
    </g>
  </g>
</svg>