<?xml version="1.0" encoding="UTF-8"?><svg xmlns="http://www.w3.org/2000/svg" xmlns:xlink="http://www.w3.org/1999/xlink" version="1.2" viewBox="0 0 1000 1000" baseProfile="tiny-ps"><title>RTR-logo</title><rect x="-0.41" y="0.23" width="1000" height="1000" fill="#FFFFFF"></rect><g><g><path d="M127.46,361.46c2.73-0.47,5.67-0.92,8.81-1.34c3.14-0.41,6.29-0.74,9.44-0.98    c3.14-0.24,6.2-0.42,9.17-0.53c2.97-0.12,5.7-0.18,8.19-0.18c5.81,0,11.54,0.53,17.18,1.6s10.68,2.91,15.13,5.52    c4.45,2.61,8.01,6.2,10.68,10.77c2.67,4.57,4.01,10.3,4.01,17.18c0,10.21-2.38,18.52-7.12,24.93    c-4.75,6.41-11.1,10.86-19.05,13.35l8.72,5.52l28.49,47.54h-28.13l-28.31-48.78l-12.82-2.31v51.1h-24.39    C127.46,484.85,127.46,361.46,127.46,361.46z M164.85,380.15c-2.49,0-4.96,0.06-7.39,0.18s-4.3,0.36-5.61,0.71v36.14h10.33    c6.77,0,12.16-1.54,16.2-4.63c4.03-3.08,6.05-8.19,6.05-15.31c0-5.34-1.66-9.52-4.98-12.55    C176.13,381.66,171.26,380.15,164.85,380.15z" fill="#3F3F3F"></path><path d="M234.64,360.21h73.88v21.72h-49.49v29.02h45.04v21.72h-45.04v30.44h50.38v21.72h-74.78V360.21    H234.64z" fill="#3F3F3F"></path><path d="M389,457.24h-38.28l-9.44,27.6h-24.39l44.86-125.51h17.98l44.86,125.51h-25.64L389,457.24z     M356.95,437.66h26.71l-9.26-27.77l-3.74-19.58h-0.89l-3.74,19.76L356.95,437.66z" fill="#3F3F3F"></path><path d="M514.15,484.84h-78.87V360.21h24.39v102.91h54.48V484.84z" fill="#3F3F3F"></path><path d="M591.96,381.93h-36.32v102.9h-24.39v-102.9h-36.5v-21.72h97.21V381.93z" fill="#3F3F3F"></path><path d="M607.09,360.21h24.39v124.63h-24.39V360.21z" fill="#3F3F3F"></path><path d="M752.01,420.21l2.67-24.75h-1.07l-7.65,19.94l-26.53,46.47h-7.83l-27.95-46.65l-7.83-19.76h-0.89    l3.56,24.57v64.8h-23.14V360.21h22.25l33.29,56.97l5.87,14.24h0.71l5.34-14.6l31.51-56.62h22.08v124.63h-24.39L752.01,420.21    L752.01,420.21z" fill="#3F3F3F"></path><path d="M797.76,360.21h73.88v21.72h-49.49v29.02h45.04v21.72h-45.04v30.44h50.38v21.72h-74.78V360.21    H797.76z" fill="#3F3F3F"></path></g><g><path d="M129.33,529.03c2.73-0.47,5.67-0.92,8.81-1.34c3.14-0.42,6.29-0.74,9.44-0.98    c3.14-0.24,6.2-0.41,9.17-0.53c2.97-0.12,5.7-0.18,8.19-0.18c5.81,0,11.54,0.53,17.18,1.6c5.64,1.07,10.68,2.91,15.13,5.52    c4.45,2.61,8.01,6.2,10.68,10.77s4.01,10.3,4.01,17.18c0,10.21-2.38,18.52-7.12,24.92c-4.75,6.41-11.1,10.86-19.05,13.35    l8.72,5.52l28.49,47.54h-28.13l-28.31-48.78l-12.82-2.31v51.1h-24.39V529.03z M166.72,547.73c-2.49,0-4.96,0.06-7.39,0.18    s-4.3,0.36-5.61,0.71v36.14h10.33c6.77,0,12.16-1.54,16.2-4.63c4.03-3.09,6.05-8.19,6.05-15.31c0-5.34-1.66-9.52-4.98-12.55    C178,549.24,173.13,547.73,166.72,547.73z" fill="#3F3F3F"></path><path d="M236.51,527.79h73.88v21.72H260.9v29.02h45.04v21.72H260.9v30.44h50.38v21.72H236.5V527.79H236.51z    " fill="#3F3F3F"></path><path d="M373.42,587.43h46.47v55.55c-4.99,4.16-10.95,7.18-17.89,9.08s-13.8,2.85-20.56,2.85    c-7.95,0-15.34-1.25-22.17-3.74c-6.83-2.49-12.73-6.38-17.71-11.66c-4.99-5.28-8.9-12.02-11.75-20.21s-4.27-17.92-4.27-29.2    c0-11.75,1.69-21.75,5.07-30s7.83-14.95,13.35-20.12s11.72-8.9,18.6-11.22c6.88-2.31,13.89-3.47,21.01-3.47s13.38,0.53,18.78,1.6    c5.4,1.07,9.7,2.2,12.91,3.38l-4.99,20.47c-2.97-1.18-6.29-2.11-9.97-2.76s-8.37-0.98-14.07-0.98c-5.1,0-9.79,0.77-14.06,2.31    s-7.98,4.07-11.13,7.57s-5.58,7.98-7.3,13.44s-2.58,12.11-2.58,19.94c0,7.48,0.83,13.92,2.49,19.32s3.98,9.85,6.94,13.35    s6.44,6.08,10.42,7.74s8.22,2.49,12.73,2.49c3.09,0,6.11-0.38,9.08-1.16c2.96-0.77,5.46-1.93,7.48-3.47v-23.5l-26.88-2.85    L373.42,587.43L373.42,587.43z" fill="#3F3F3F"></path><path d="M440.36,527.79h24.39v124.62h-24.39V527.79z" fill="#3F3F3F"></path><path d="M542.37,618.94c0-3.8-1.4-6.88-4.18-9.26c-2.79-2.37-6.29-4.54-10.5-6.5s-8.78-3.98-13.71-6.05    c-4.93-2.08-9.5-4.63-13.71-7.66c-4.21-3.03-7.72-6.79-10.5-11.31c-2.79-4.51-4.18-10.26-4.18-17.27c0-6.05,1.01-11.31,3.03-15.76    s4.9-8.16,8.63-11.13c3.74-2.96,8.16-5.16,13.26-6.59c5.1-1.43,10.8-2.14,17.09-2.14c7.24,0,14.06,0.62,20.47,1.87    s11.69,3.06,15.85,5.43l-7.66,20.47c-2.61-1.66-6.53-3.17-11.75-4.54c-5.22-1.36-10.86-2.05-16.91-2.05    c-5.7,0-10.06,1.13-13.09,3.38c-3.03,2.26-4.54,5.28-4.54,9.08c0,3.56,1.39,6.53,4.18,8.9c2.79,2.37,6.29,4.57,10.5,6.59    s8.78,4.1,13.71,6.23c4.92,2.14,9.49,4.72,13.71,7.75c4.21,3.03,7.71,6.76,10.5,11.22c2.79,4.45,4.18,10,4.18,16.65    s-1.1,12.37-3.29,17.18c-2.2,4.81-5.28,8.81-9.26,12.02s-8.79,5.58-14.42,7.12c-5.64,1.54-11.84,2.31-18.6,2.31    c-8.9,0-16.73-0.83-23.5-2.49s-11.75-3.32-14.95-4.99l7.83-20.83c1.3,0.71,3,1.49,5.07,2.31c2.08,0.83,4.42,1.6,7.03,2.31    s5.37,1.31,8.28,1.78c2.91,0.47,5.9,0.71,8.99,0.71c7.24,0,12.79-1.21,16.65-3.65C540.44,627.64,542.37,623.93,542.37,618.94z" fill="#3F3F3F"></path><path d="M671.45,549.51h-36.32v102.9h-24.39v-102.9h-36.5v-21.72h97.21V549.51z" fill="#3F3F3F"></path><path d="M684.09,527.79h73.88v21.72h-49.49v29.02h45.04v21.72h-45.04v30.44h50.38v21.72h-74.78V527.79    H684.09z" fill="#3F3F3F"></path><path d="M777.02,529.03c2.73-0.47,5.67-0.92,8.81-1.34c3.14-0.42,6.29-0.74,9.43-0.98s6.2-0.41,9.17-0.53    c2.97-0.12,5.7-0.18,8.19-0.18c5.81,0,11.54,0.53,17.18,1.6c5.64,1.07,10.68,2.91,15.13,5.52c4.45,2.61,8.01,6.2,10.68,10.77    s4.01,10.3,4.01,17.18c0,10.21-2.38,18.52-7.12,24.92c-4.75,6.41-11.1,10.86-19.05,13.35l8.72,5.52l28.49,47.54h-28.13    l-28.31-48.78l-12.82-2.31v51.1h-24.39V529.03H777.02z M814.41,547.73c-2.49,0-4.96,0.06-7.39,0.18c-2.44,0.12-4.3,0.36-5.61,0.71    v36.14h10.33c6.76,0,12.16-1.54,16.2-4.63c4.03-3.09,6.05-8.19,6.05-15.31c0-5.34-1.66-9.52-4.99-12.55    C825.68,549.24,820.81,547.73,814.41,547.73z" fill="#3F3F3F"></path></g><g><path d="M331.44,745.61c-14.89-10.27-28.97-21.95-42.04-35.02c-5.01-5.01-9.81-10.18-14.42-15.47h-40.17    c22.27,30.21,49.58,56.48,80.69,77.57l-0.19-21.3L331.44,745.61z" fill="#F35B00"></path><path d="M725.02,695.12c-4.61,5.3-9.41,10.46-14.42,15.47c-56.25,56.25-131.04,87.23-210.59,87.23    c-24.8,0-49.14-3.01-72.6-8.86l-17.83,10.51l3.64,18.17c27.65,7.54,56.74,11.58,86.78,11.58c108.79,0,205.24-52.78,265.19-134.11    h-40.17V695.12z" fill="#F35B00"></path><path d="M392.77,778.02c-10.79-4.16-21.32-8.96-31.56-14.37l-18.84,6.75l0.16,18.76    c13.27,7.24,27.08,13.62,41.38,19.01l-4.46-22.29L392.77,778.02z" fill="#F35B00"></path><path d="M684.5,227.31l0.18,20.72L668,254c15.1,10.36,29.37,22.17,42.6,35.4    c9.13,9.13,17.59,18.76,25.36,28.81h38.56C750.73,282.37,720.1,251.45,684.5,227.31z" fill="#F35B00"></path><path d="M606.63,221.75c10.77,4.12,21.28,8.88,31.5,14.25l19.51-6.99l-0.16-18.19    c-13.22-7.22-27.01-13.53-41.25-18.91l4.33,21.62L606.63,221.75z" fill="#F35B00"></path><path d="M500,202.17c24.55,0,48.65,2.96,71.89,8.7l18.53-10.93l-3.51-17.54    c-27.69-7.56-56.82-11.64-86.91-11.64c-114.63,0-215.56,58.59-274.52,147.45h38.56c7.78-10.05,16.23-19.68,25.36-28.81    C345.66,233.15,420.45,202.17,500,202.17z" fill="#F35B00"></path></g></g></svg>