<?xml version="1.0" encoding="utf-8"?>
<!-- Generator: Adobe Illustrator 28.3.0, SVG Export Plug-In . SVG Version: 6.00 Build 0)  -->
<svg version="1.2" baseProfile="tiny-ps"  xmlns="http://www.w3.org/2000/svg" xmlns:xlink="http://www.w3.org/1999/xlink"
	 viewBox="0 0 96 96" xml:space="preserve">
<title>Moises</title>
<rect width="96" height="96"/>
<g id="moises">
	<path fill-rule="evenodd" fill="#00DAE8" d="M63.2,39.4C62.7,40,62,41,61,42.4c-1.5,2.2-3.4,4.2-5,5.6v0c-2.2,1.7-5,2.7-8,2.7c-3,0-5.8-1-8-2.7v0
		c-1.5-1.3-3.4-3.4-5-5.6c-1-1.5-1.7-2.4-2.2-3.1c-4.4-6.1-11.5-10.1-19.6-10.1v5.4c6.4,0,12,3.2,15.4,8c0.3,0.4,0.6,0.9,1,1.5v0l0,0
		l0,0c0.7,1,1.5,2.2,2.4,3.4c1.4,1.7,2.6,2.9,2.6,2.9s0,0,0,0C38,53.9,42.8,56,48,56c5.2,0,10-2.2,13.4-5.6l0,0c0,0,1.2-1.2,2.6-2.9
		c0.9-1.1,1.7-2.4,2.4-3.4c0.4-0.6,0.7-1.1,1-1.5c3.4-4.9,9-8,15.4-8v-5.4C74.8,29.2,67.6,33.2,63.2,39.4z M68.3,50.3
		c1.2-1.8,2.9-4.2,4.6-6c2.5-2.7,6-4.4,9.9-4.4v5.4c-2.4,0-4.5,1-6,2.7c0,0-1,1.1-1.8,2.4c-0.8,1.3-3.9,5.6-5.9,7.5l0,0
		c-5.4,5.5-12.8,8.9-21.1,8.9c-8.3,0-15.7-3.4-21.1-8.9h0c-2-1.9-5.1-6.2-5.9-7.5c-0.8-1.3-1.8-2.4-1.8-2.4c-1.5-1.6-3.6-2.7-6-2.7
		V40c3.9,0,7.4,1.7,9.9,4.4c1.8,1.8,3.4,4.2,4.6,6l0,0l0,0c0.2,0.3,0.4,0.6,0.6,0.9c0.9,1.3,1.7,2.2,1.7,2.2c4.4,4.9,10.8,8,18,8
		c7.1,0,13.6-3.1,18-8c0,0,0.8-0.9,1.7-2.2C67.9,50.9,68.1,50.6,68.3,50.3z M81.7,50.9C81.7,50.9,81.7,50.9,81.7,50.9L81.7,50.9
		c0.4-0.2,0.7-0.3,1.1-0.3V56h-5.5c0.2-0.3,0.7-1.1,1.3-1.9c0.1-0.2,0.3-0.4,0.4-0.6c0.6-0.9,1.3-1.8,2.2-2.4
		C81.4,51.1,81.6,51,81.7,50.9C81.7,50.9,81.7,50.9,81.7,50.9L81.7,50.9z M14.3,50.9c0.1,0.1,0.3,0.2,0.4,0.2
		c0.9,0.6,1.6,1.5,2.2,2.4c0.1,0.2,0.3,0.4,0.4,0.6c0.6,0.8,1.1,1.6,1.3,1.9h-5.5v-5.4C13.5,50.7,13.9,50.8,14.3,50.9L14.3,50.9
		C14.3,50.9,14.3,50.9,14.3,50.9C14.3,50.9,14.3,50.9,14.3,50.9z M22.9,61.4h-9.7v5.4h16.3C27,65.3,24.8,63.4,22.9,61.4z M82.9,66.8
		H66.6c2.4-1.5,4.6-3.3,6.6-5.4h9.7V66.8z"/>
</g>
</svg>
