<?xml version="1.0" encoding="UTF-8"?>
<!-- Generator: Adobe Illustrator 28.6.0, SVG Export Plug-In . SVG Version: 9.03 Build 54939) -->
<svg version="1.2" baseProfile="tiny-ps" id="Layer_1" xmlns="http://www.w3.org/2000/svg" xmlns:xlink="http://www.w3.org/1999/xlink" viewBox="0 0 350 350" xml:space="preserve">
    <title>PureHealth Research</title>
    <g>
        <g>
            <path fill="#B6CCC8" d="M36.4,156.5c0,6.9-5,11-13.2,11h-7.8v9.6h-4.5v-31.6h12.3C31.4,145.5,36.4,149.6,36.4,156.5z M31.9,156.5
			c0-4.5-3-7.1-8.8-7.1h-7.7v14.2h7.7C28.9,163.6,31.9,161,31.9,156.5L31.9,156.5z" />
            <path fill="#B6CCC8" d="M42.9,163.5v-18h4.5v17.8c0,7,3.2,10.2,8.9,10.2s8.9-3.2,8.9-10.2v-17.8h4.4v18c0,9.2-5,14-13.4,14
			S42.9,172.6,42.9,163.5z" />
            <path fill="#B6CCC8" d="M100,177.1l-6.8-9.7c-0.6,0.1-1.3,0.1-2,0.1h-7.8v9.6h-4.5v-31.6h12.3c8.2,0,13.2,4.2,13.2,11
			s-2.5,8.4-7,10l7.5,10.6L100,177.1L100,177.1z M99.9,156.5c0-4.5-3-7.1-8.8-7.1h-7.7v14.2h7.7C96.8,163.6,99.9,161,99.9,156.5z" />
            <path fill="#B6CCC8" d="M134.7,173.2v3.9h-23v-31.6H134v3.9h-17.8v9.7h15.9v3.8h-15.9v10.2L134.7,173.2L134.7,173.2z" />
            <path fill="#007C8C" d="M169.2,145.5v31.6h-4.5V163h-18.2v14.1H142v-31.6h4.5v13.6h18.2v-13.6H169.2z" />
            <path fill="#007C8C" d="M201.6,173.2v3.9h-23v-31.6H201v3.9h-17.8v9.7H199v3.8h-15.9v10.2L201.6,173.2L201.6,173.2z" />
            <path fill="#007C8C" d="M229.1,169.2h-16.8l-3.5,7.9h-4.7l14.3-31.6h4.5l14.4,31.6h-4.7L229.1,169.2L229.1,169.2z M227.5,165.6
			l-6.8-15.5l-6.8,15.5H227.5L227.5,165.6z" />
            <path fill="#007C8C" d="M242,145.5h4.5v27.7h17.1v3.9H242L242,145.5L242,145.5z" />
            <path fill="#007C8C" d="M272.2,149.4h-10.8v-3.9h26.2v3.9h-10.8v27.7h-4.5L272.2,149.4L272.2,149.4z" />
            <path fill="#007C8C" d="M319.6,145.5v31.6h-4.5V163h-18.2v14.1h-4.5v-31.6h4.5v13.6h18.2v-13.6H319.6z" />
            <path fill="#B6CCC8" d="M84.7,204.5l-3.2-4.6c-0.3,0-0.6,0-0.9,0h-3.7v4.6h-2.1v-15h5.8c3.9,0,6.3,2,6.3,5.2c0,3.3-1.2,4-3.3,4.7
			l3.6,5H84.7L84.7,204.5z M84.7,194.8c0-2.1-1.4-3.4-4.2-3.4h-3.6v6.7h3.6C83.2,198.2,84.7,196.9,84.7,194.8z" />
            <path fill="#B6CCC8" d="M110.3,202.7v1.9H99.4v-15H110v1.9h-8.4v4.6h7.5v1.8h-7.5v4.8L110.3,202.7L110.3,202.7z" />
            <path fill="#B6CCC8" d="M121.5,202.8l0.8-1.7c1.1,1,3,1.7,4.9,1.7c1.9,0,3.7-1,3.7-2.3c0-3.7-9.1-1.4-9.1-6.9
			c0-1.8,1.8-4.4,5.7-4.3c2,0.1,3.6,0.5,4.8,1.3l-0.7,1.7c-1.3-0.8-2.8-1.2-4.1-1.2c-2.5,0-3.6,1.1-3.6,2.4c0,3.7,8.6,1.4,9.1,6.9
			c0.2,2.7-1.8,4.3-5.8,4.3C123.3,204.7,122.7,203.9,121.5,202.8L121.5,202.8z" />
            <path fill="#B6CCC8" d="M156.2,202.7v1.9h-10.9v-15h10.6v1.9h-8.4v4.6h7.5v1.8h-7.5v4.8L156.2,202.7L156.2,202.7z" />
            <path fill="#B6CCC8" d="M178.3,200.8h-8l-1.6,3.8h-2.2l6.8-15h2.1l6.8,15H180L178.3,200.8L178.3,200.8z M177.6,199.1l-3.2-7.3
			l-3.2,7.3H177.6L177.6,199.1z" />
            <path fill="#B6CCC8" d="M203.6,204.5l-3.2-4.6c-0.3,0-0.6,0-0.9,0h-3.7v4.6h-2.1v-15h5.8c3.9,0,6.3,2,6.3,5.2c0,3.3-1.2,4-3.3,4.7
			l3.6,5H203.6L203.6,204.5z M203.5,194.8c0-2.1-1.4-3.4-4.2-3.4h-3.6v6.7h3.6C202.1,198.2,203.5,196.9,203.5,194.8z" />
            <path fill="#B6CCC8" d="M217.1,197c0-4.4,3.4-7.7,7.9-7.7c3.1,0,4.3,1,5.7,2.3l-1.4,1.4c-1.2-1.2-2.6-1.8-4.2-1.8
			c-3.4,0-5.9,2.4-5.9,5.8s2.5,5.8,5.9,5.8c2.2,0,3.1-0.6,4.2-1.8l1.4,1.4c-1.4,1.5-3.4,2.4-5.7,2.4
			C220.4,204.7,217.1,201.5,217.1,197L217.1,197z" />
            <path fill="#B6CCC8" d="M255.8,189.6v15h-2.1v-6.7H245v6.7h-2.1v-15h2.1v6.4h8.6v-6.4H255.8L255.8,189.6z" />
        </g>
        <path fill="#007C8C" d="M336.4,146c0.8,0.5,1.5,1.2,2,2c0.5,0.8,0.7,1.8,0.7,2.8c0,1-0.3,2-0.8,2.9c-0.5,0.9-1.2,1.6-2,2.1
		c-0.9,0.5-1.8,0.8-2.8,0.8s-2-0.3-2.8-0.8c-0.8-0.5-1.5-1.2-2-2s-0.7-1.8-0.7-2.8c0-1,0.3-2,0.7-2.8s1.2-1.5,2-2s1.8-0.8,2.9-0.8
		S335.5,145.6,336.4,146L336.4,146z M335.9,155c0.7-0.4,1.3-1,1.7-1.7c0.4-0.7,0.6-1.5,0.6-2.4c0-0.9-0.2-1.7-0.6-2.4
		c-0.4-0.7-1-1.3-1.7-1.7c-0.7-0.4-1.5-0.6-2.4-0.6s-1.7,0.2-2.4,0.6s-1.3,1-1.7,1.7c-0.4,0.7-0.6,1.5-0.6,2.4s0.2,1.7,0.6,2.4
		c0.4,0.7,1,1.3,1.7,1.7s1.5,0.6,2.4,0.6S335.2,155.4,335.9,155z M336.1,151.1c-0.2,0.3-0.5,0.6-0.9,0.8l1.4,2.1h-1.4l-1.2-1.9h-1.4
		v1.9h-1.4v-6.3h2.6c0.8,0,1.5,0.2,1.9,0.6c0.5,0.4,0.7,0.9,0.7,1.6C336.4,150.6,336.3,150.8,336.1,151.1L336.1,151.1z M333.7,151.1
		c0.5,0,0.8-0.1,1-0.3c0.3-0.2,0.4-0.5,0.4-0.8s-0.1-0.6-0.4-0.8c-0.3-0.2-0.6-0.3-1-0.3h-1.2v2.2L333.7,151.1L333.7,151.1z" />
    </g>
</svg>
