<svg version="1.2" baseProfile="tiny-ps" width="110" height="110" viewBox="-10 -10 140 140" fill="none" xmlns="http://www.w3.org/2000/svg">
<title>Amazing Workplace</title>
<path d="M27.031 47.7057L17.1872 77H10.2846L23.1884 42.4635H27.6003L27.031 47.7057ZM35.2619 77L25.3706 47.7057L24.7776 42.4635H29.2133L42.1882 77H35.2619ZM34.8112 64.1674V69.3147H16.2858V64.1674H34.8112Z" fill="#008FCF"/>
<path d="M49.0671 70.3821L55.9459 42.4635H59.67L59.9072 48.3461L52.5539 77H48.6164L49.0671 70.3821ZM44.7263 42.4635L50.3717 70.2872V77H46.0784L38.2507 42.4635H44.7263ZM67.0469 70.1686L72.5974 42.4635H79.0967L71.2691 77H66.9758L67.0469 70.1686ZM61.449 42.4635L68.3278 70.477L68.731 77H64.7935L57.464 48.3224L57.7486 42.4635H61.449Z" fill="#008FCF"/>
<path d="M95.5011 64.4046H86.606V59.2811H95.5011C96.9559 59.2811 98.134 59.0439 99.0354 58.5695C99.9525 58.0793 100.625 57.4151 101.052 56.577C101.479 55.7231 101.692 54.7506 101.692 53.6594C101.692 52.5999 101.479 51.6116 101.052 50.6944C100.625 49.7772 99.9525 49.034 99.0354 48.4647C98.134 47.8954 96.9559 47.6108 95.5011 47.6108H88.7408V77H82.2178V42.4635H95.5011C98.1893 42.4635 100.482 42.9459 102.38 43.9105C104.293 44.8593 105.748 46.1797 106.744 47.8717C107.756 49.5479 108.262 51.4614 108.262 53.612C108.262 55.8417 107.756 57.763 106.744 59.376C105.748 60.9889 104.293 62.2303 102.38 63.1C100.482 63.9698 98.1893 64.4046 95.5011 64.4046Z" fill="#008FCF"/>
</svg>
