<?xml version="1.0" encoding="utf-8" standalone="yes"?><!-- Generator: $$$/GeneralStr/196=Adobe Illustrator 27.6.0, SVG Export Plug-In . SVG Version: 6.00 Build 0)  --><svg xmlns="http://www.w3.org/2000/svg" xmlns:xlink="http://www.w3.org/1999/xlink" version="1.2" baseProfile="tiny-ps" viewBox="0 0 120 120" xml:space="preserve"><title>Degura</title><path fill-rule="evenodd" fill="#2830CE" d="M56.6,65.8c0.3,0,0.5,0.1,0.7,0.3c0.1,0.1,0.2,0.2,0.2,0.3c0.1,0.1,0.1,0.2,0.1,0.3  c0,0.1,0.1,0.3,0.1,0.4s0,0.3-0.1,0.4s-0.2,0.3-0.3,0.3c-0.2,0.1-0.3,0.3-0.5,0.4c-0.7,0.5-1.6,1-2.4,1.3c-1.1,0.4-2.2,0.5-3.3,0.5  c-1.3,0-2.6-0.2-3.9-0.8C46,68.7,45,68,44.1,67.1s-1.6-2-2.1-3.2s-0.8-2.6-0.8-3.9s0.2-2.6,0.8-3.9c0.5-1.2,1.2-2.3,2.1-3.2  c0.9-0.9,2-1.6,3.1-2.1c1.2-0.5,2.5-0.8,3.9-0.8c1.3,0,2.4,0.2,3.4,0.5s1.9,0.9,2.9,1.7c0.1,0.1,0.2,0.2,0.3,0.3s0.1,0.2,0.1,0.4  c0,0.1,0,0.3-0.1,0.4c0,0.1,0,0.2-0.1,0.3s-0.1,0.2-0.2,0.3c-0.2,0.2-0.5,0.3-0.7,0.3c-0.3,0-0.6-0.1-0.8-0.3  c-0.6-0.5-1.3-0.9-2-1.2s-1.6-0.4-2.7-0.4c-1,0-2,0.2-2.9,0.6c-0.9,0.4-1.7,1-2.4,1.7s-1.2,1.6-1.6,2.5c-0.4,1-0.6,2-0.6,3  s0.2,2.1,0.6,3c0.4,0.9,0.9,1.8,1.6,2.5c0.7,0.7,1.5,1.3,2.4,1.7c0.9,0.4,1.9,0.6,2.9,0.6c0.9,0,1.7-0.1,2.5-0.4  c0.6-0.2,1.2-0.5,1.7-0.9c0.2-0.1,0.3-0.2,0.4-0.4C56,65.9,56.3,65.8,56.6,65.8z M69,70c-1.6,0-3-0.3-4.3-0.9  c-1.2-0.6-2.2-1.4-2.9-2.5c-0.7-1-1-2.2-1-3.6V51.2c0-0.2,0-0.3,0.1-0.5c0.1-0.1,0.1-0.3,0.3-0.4c0.1-0.1,0.3-0.2,0.4-0.3  c0.1,0.1,0.2,0,0.4,0c0.4,0,0.6,0.1,0.9,0.3c0.1,0.1,0.2,0.2,0.3,0.4c0.1,0.1,0.1,0.3,0.1,0.5V63c0,0.9,0.2,1.8,0.7,2.5  c0.5,0.7,1.2,1.3,2.1,1.7c0.9,0.4,1.9,0.6,3,0.6s2.1-0.2,2.9-0.6s1.5-1,2-1.7s0.7-1.5,0.7-2.5V51.2c0-0.2,0-0.3,0.1-0.5  c0.1-0.1,0.1-0.3,0.3-0.4c0.1-0.1,0.2-0.2,0.4-0.3c0,0.1,0.1,0,0.3,0c0.4,0,0.7,0.1,0.9,0.3c0.2,0.2,0.3,0.5,0.3,0.9V63  c0,1.4-0.3,2.6-1,3.6s-1.6,1.9-2.8,2.5C71.9,69.7,70.5,70,69,70z M111.9,68.3l-7.3-17.4c-0.2-0.5-0.6-0.8-1.1-0.8s-0.9,0.3-1.1,0.8  l-7.3,17.3C95,68.4,95,68.6,95,68.8c0,0.2,0.1,0.4,0.2,0.6s0.2,0.3,0.4,0.4c0.2,0.1,0.4,0.2,0.6,0.1c0.2,0,0.5-0.1,0.7-0.2  s0.4-0.3,0.5-0.5l6.1-15.2l6.2,15.2c0.1,0.2,0.3,0.4,0.5,0.5s0.4,0.2,0.7,0.2c0.4,0,0.8-0.2,1-0.5C112.1,69.1,112.1,68.7,111.9,68.3  z M88.9,61.7l4,6.4c0.3,0.5,0.3,0.9,0.1,1.3c-0.2,0.4-0.5,0.6-1,0.6c-0.2,0-0.4,0-0.6-0.1s-0.3-0.3-0.5-0.4l-4.1-6.6  c-0.1-0.1-0.2-0.3-0.3-0.4c-0.1-0.1-0.2-0.1-0.3-0.2c-0.1,0-0.2-0.1-0.3-0.2c-0.2-0.2-0.3-0.5-0.3-0.9s0.1-0.6,0.3-0.9  c0.1-0.1,0.2-0.2,0.3-0.2c0.2-0.1,0.3-0.1,0.4-0.1l0,0c0.5-0.1,1-0.2,1.5-0.4c0.6-0.3,1.1-0.8,1.5-1.3c0.4-0.6,0.5-1.2,0.5-1.9  c0-0.8-0.2-1.5-0.5-2.1s-0.9-1.1-1.5-1.4c-0.6-0.3-1.3-0.5-2.2-0.5h-3.4v16.4c0,0.2,0,0.3-0.1,0.5s-0.1,0.3-0.3,0.4  c-0.2,0.2-0.5,0.3-0.9,0.3c-0.2,0-0.3,0-0.5-0.1s-0.3-0.1-0.4-0.3c-0.1-0.1-0.2-0.3-0.3-0.4c-0.1-0.2-0.1-0.3-0.1-0.5V51.3  c0-0.2,0-0.3,0.1-0.5s0.1-0.3,0.3-0.4c0.1-0.1,0.3-0.2,0.4-0.3C80.9,50,81,50,81.2,50h4.6c1.3,0,2.4,0.3,3.4,0.8s1.8,1.3,2.3,2.2  c0.7,1,1,2.1,1,3.3s-0.3,2.2-0.8,3.1c-0.6,0.9-1.4,1.6-2.3,2.1C89.2,61.6,89.1,61.6,88.9,61.7z M40.2,50.4c-0.2-0.2-0.5-0.3-0.9-0.3  H27.7h-0.1c-0.3,0-0.6,0.1-0.8,0.3c-0.2,0.2-0.3,0.5-0.3,0.8c0,0.1,0,0.3,0.1,0.4c0.1,0.1,0.1,0.3,0.2,0.4c0.2,0.2,0.5,0.3,0.8,0.3  h2h9.7c0.4,0,0.6-0.1,0.9-0.3c0.1-0.1,0.2-0.2,0.3-0.4c0.1-0.1,0.1-0.3,0.1-0.4c0-0.2,0-0.3-0.1-0.4C40.4,50.6,40.4,50.5,40.2,50.4z   M39.4,67.7c0.4,0,0.6,0.1,0.9,0.3c0.1,0.1,0.2,0.2,0.3,0.4c0.1,0.1,0.1,0.3,0.1,0.4s0,0.3-0.1,0.4s-0.1,0.3-0.3,0.4  c-0.2,0.2-0.5,0.3-0.9,0.3h-9.7h-2c-0.3,0-0.6-0.1-0.8-0.3c-0.1-0.1-0.2-0.2-0.2-0.4c-0.2-0.1-0.2-0.2-0.2-0.4  c0-0.3,0.1-0.6,0.3-0.8c0.2-0.2,0.5-0.3,0.8-0.3h0.1H39.4z M37.3,59.1c-0.2-0.2-0.5-0.3-0.9-0.3H31h-3.5c-0.1,0-0.3,0-0.4,0.1  C27,59,26.8,59,26.7,59.1c-0.1,0.2-0.2,0.5-0.2,0.8s0.1,0.6,0.3,0.8c0.1,0.1,0.2,0.2,0.4,0.3c0.1,0.1,0.3,0.1,0.4,0.1h3.7h5.2  c0.4,0,0.6-0.1,0.9-0.3c0.1-0.1,0.2-0.2,0.3-0.4c0.1-0.1,0.1-0.3,0.1-0.4c0-0.2,0-0.3-0.1-0.4C37.5,59.4,37.4,59.2,37.3,59.1z   M57.4,60.1c-0.2-0.2-0.5-0.3-0.8-0.3h-4.8c-0.4,0-0.6,0.1-0.9,0.3c-0.1,0.1-0.2,0.2-0.3,0.3s-0.1,0.3-0.1,0.4c0,0.1,0,0.3,0.1,0.4  c0.1,0.1,0.1,0.2,0.3,0.3c0.2,0.2,0.5,0.3,0.9,0.3h4.7c0.4,0,0.6-0.1,0.9-0.3c0.1-0.1,0.2-0.2,0.3-0.3s0.1-0.3,0.1-0.4  c0-0.1,0-0.3-0.1-0.4C57.6,60.3,57.5,60.1,57.4,60.1z M21.2,52.8c0.9,0.9,1.7,2,2.2,3.2s0.8,2.5,0.8,4s-0.3,2.8-0.8,4  c-0.5,1.2-1.2,2.3-2.2,3.2c-0.9,0.9-2.1,1.6-3.3,2.1c-1.3,0.4-2.7,0.7-4.3,0.7H8.8H8.6c-0.2,0-0.3,0-0.4-0.1  c-0.1-0.1-0.3-0.1-0.4-0.2s-0.2-0.2-0.2-0.4c-0.1-0.1-0.1-0.3-0.1-0.4s0-0.3,0.1-0.4s0.1-0.3,0.2-0.4c0.2-0.2,0.5-0.3,0.8-0.3h3.5  h1.5c1.6,0,2.9-0.3,4.1-1s2.2-1.6,2.8-2.8c0.7-1.2,1-2.5,1-4s-0.3-2.9-1-4s-1.6-2.1-2.8-2.7c-1.2-0.7-2.6-1-4.1-1h-3.5H8.7  c-0.2,0-0.3,0-0.4-0.1c-0.2-0.1-0.4-0.2-0.5-0.3s-0.2-0.2-0.2-0.3c-0.1-0.2-0.1-0.3-0.1-0.5c0-0.1,0-0.2,0.1-0.4  c0.1-0.1,0.1-0.3,0.2-0.4C8,50.2,8.3,50,8.6,50H10h3.6c1.5,0,3,0.2,4.2,0.7C19.1,51.2,20.3,51.9,21.2,52.8z"></path></svg>