<?xml version="1.0" encoding="utf-8"?>
<!-- Generator: Adobe Illustrator 28.2.0, SVG Export Plug-In . SVG Version: 6.00 Build 0)  -->
<svg version="1.2" baseProfile="tiny-ps" id="Layer_1" xmlns="http://www.w3.org/2000/svg" xmlns:xlink="http://www.w3.org/1999/xlink"
	 viewBox="0 0 1024 1024" xml:space="preserve">
<title>Sonos</title>
<rect width="1024" height="1024"/>
<path fill-rule="evenodd" fill="#FFFFFF" d="M322.4,431.7c-15.8,0-31.3,4.6-44.5,13.4s-23.4,21.2-29.5,35.9
	c-6.1,14.6-7.7,30.7-4.6,46.2c3.1,15.5,10.7,29.8,21.8,41c11.2,11.2,25.4,18.8,40.9,21.9c15.5,3.1,31.6,1.5,46.2-4.5
	s27.1-16.3,35.9-29.5s13.5-28.6,13.5-44.4c0-21.2-8.4-41.5-23.4-56.5C363.8,440.3,343.5,431.8,322.4,431.7z M322.4,562.9
	c-10.2,0.1-20.1-2.8-28.6-8.4c-8.5-5.6-15.1-13.5-19.1-22.9s-5-19.7-3.1-29.6c1.9-10,6.8-19.1,13.9-26.4
	c7.1-7.2,16.3-12.1,26.2-14.2c10-2,20.3-1,29.7,2.8c9.4,3.9,17.4,10.4,23.1,18.9s8.7,18.4,8.7,28.5c0,13.5-5.3,26.5-14.8,36.1
	C348.8,557.4,335.9,562.8,322.4,562.9z"/>
<path fill-rule="evenodd" fill="#FFFFFF" d="M543.8,523.1l-96.4-89.9v152.4H476v-85.1l96.4,89.7V437.5h-28.6L543.8,523.1
	L543.8,523.1z"/>
<path fill-rule="evenodd" fill="#FFFFFF" d="M161.2,497.8c14.9,4.7,24.9,9.4,32.4,15.2c11.3,8.7,17,19.6,17,32.8
	c-0.1,6.3-1.5,12.4-4.2,18.1c-2.7,5.6-6.5,10.7-11.3,14.7c-9.9,8.5-23.5,13.3-38.3,13.3c-9.2,0-18.4-2-26.9-5.7s-16.1-9.1-22.4-15.9
	l-2.5-3l23-15.6l2,1.5c7.7,5.8,17.1,9,26.7,9.2c15.4,0,24.6-8.5,24.6-16.8c0-3.5,0-10.8-29-20c-14.9-4.7-24.9-9.4-32.4-15.2
	c-11.3-8.6-17-19.6-17-32.8c0.1-6.2,1.5-12.4,4.2-18.1c2.7-5.6,6.5-10.7,11.3-14.7c9.9-8.5,23.5-13.3,38.3-13.3
	c9.2,0,18.4,1.9,26.9,5.6s16.1,9.1,22.4,15.9l2.5,3l-23,15.6l-2-1.5c-7.7-5.8-17.1-9-26.7-9.2c-15.4,0-24.6,8.5-24.6,16.8
	C132.3,481.3,132.3,488.6,161.2,497.8z"/>
<path fill-rule="evenodd" fill="#FFFFFF" d="M697.6,432.3c-15.8,0-31.3,4.7-44.4,13.5c-13.2,8.8-23.4,21.3-29.5,35.9
	s-7.6,30.7-4.5,46.2s10.7,29.8,21.9,40.9c11.2,11.2,25.4,18.8,40.9,21.9c15.5,3.1,31.6,1.5,46.2-4.6s27.1-16.3,35.9-29.5
	c8.8-13.2,13.5-28.6,13.5-44.4c0-21.2-8.5-41.5-23.5-56.5C739.1,440.8,718.8,432.3,697.6,432.3z M697.6,563.5
	c-10.2,0.1-20.1-2.8-28.6-8.4c-8.5-5.6-15.1-13.5-19.1-22.9c-4-9.3-5-19.7-3.1-29.6c1.9-10,6.8-19.1,13.9-26.4s16.3-12.1,26.2-14.2
	c9.9-2,20.3-1,29.7,2.8c9.4,3.9,17.4,10.4,23.1,18.9c5.7,8.4,8.7,18.4,8.7,28.5c0,13.5-5.3,26.5-14.8,36.1
	C724,558,711.1,563.4,697.6,563.5L697.6,563.5z"/>
<path fill-rule="evenodd" fill="#FFFFFF" d="M858.6,526.2c-14.9-4.7-24.9-9.4-32.5-15.2c-11.3-8.6-17-19.6-17-32.8
	c0.1-6.3,1.5-12.4,4.2-18.1s6.5-10.7,11.3-14.7c9.9-8.5,23.5-13.3,38.3-13.3c9.2,0,18.4,1.9,26.9,5.6s16.1,9.1,22.4,15.9l2.5,3
	l-23,15.6l-2-1.5c-7.7-5.8-17.1-9-26.7-9.2c-15.4,0-24.5,8.5-24.5,16.8c0,3.5,0,10.8,28.9,20c14.9,4.7,24.9,9.4,32.4,15.2
	c11.3,8.6,17,19.6,17,32.8c-0.1,6.3-1.5,12.4-4.2,18.1c-2.7,5.6-6.5,10.7-11.3,14.7c-9.9,8.5-23.5,13.3-38.3,13.3
	c-9.2,0-18.4-1.9-26.9-5.6c-8.5-3.7-16.1-9.1-22.4-15.9l-2.5-3l23-15.5l2,1.5c7.7,5.8,17.1,9,26.7,9.3c15.4,0,24.5-8.5,24.5-16.8
	C887.6,542.7,887.6,535.3,858.6,526.2z"/>
</svg>
