<?xml version="1.0" encoding="utf-8"?>
<svg width="8in" height="8in" viewBox="0 0 576 576" version="1.2" baseProfile="tiny-ps" xmlns="http://www.w3.org/2000/svg">
  <title>Leon County</title>
  <defs>
    <linearGradient id="a" x1="88.84" y1="88.86" x2="487.12" y2="487.14" gradientUnits="userSpaceOnUse">
      <stop offset="0" stop-color="#2c4995" />
      <stop offset=".05" stop-color="#293f86" />
      <stop offset=".14" stop-color="#25306f" />
      <stop offset=".25" stop-color="#23255e" />
      <stop offset=".36" stop-color="#211f54" />
      <stop offset=".5" stop-color="#211d51" />
      <stop offset=".64" stop-color="#211f54" />
      <stop offset=".75" stop-color="#23255e" />
      <stop offset=".86" stop-color="#25306f" />
      <stop offset=".95" stop-color="#293f86" />
      <stop offset="1" stop-color="#2c4995" />
    </linearGradient>
    <linearGradient id="b" x1="88.93" y1="88.97" x2="487.03" y2="487.07" gradientUnits="userSpaceOnUse">
      <stop offset="0" stop-color="#8e6427" />
      <stop offset="0" stop-color="#92682b" />
      <stop offset=".06" stop-color="#b5914d" />
      <stop offset=".11" stop-color="#d1b268" />
      <stop offset=".16" stop-color="#e5c97c" />
      <stop offset=".21" stop-color="#f1d787" />
      <stop offset=".25" stop-color="#f6dc8c" />
      <stop offset=".3" stop-color="#f3d882" />
      <stop offset=".37" stop-color="#ecce67" />
      <stop offset=".46" stop-color="#e2be3d" />
      <stop offset=".48" stop-color="#dfba31" />
      <stop offset=".58" stop-color="#c0992c" />
      <stop offset=".74" stop-color="#8e6326" />
      <stop offset=".78" stop-color="#936a2c" />
      <stop offset=".84" stop-color="#a27e3e" />
      <stop offset=".92" stop-color="#bba05b" />
      <stop offset="1" stop-color="#ddcd82" />
    </linearGradient>
  </defs>
  <ellipse cx="287.98" cy="288" rx="281.98" ry="281.28" fill="url(#a)" />
  <path d="M288.36 16.94c-149.64 0-271.38 121.46-271.38 270.74s121.74 270.61 271.38 270.61 271.38-121.4 271.38-270.61S438 16.94 288.36 16.94zm.26 535.6c-146.82 0-266.27-119.04-266.27-265.36 0-84.71 39.96-160.29 102.05-208.96l6.75 4.25 6.38 12.52-1.79 16.86c.26.76.9 1.4 1.79 1.53 4.73-.64 9.71-2.04 14.56-2.3 5.75-.64 11.11.77 16.48 0 2.17-1.53 2.17-5.62 5.61-6.9 2.94-.63 5.75-1.02 8.3-1.28.14.08.27.16.4.24C118.9 139.17 75.59 207.57 75.59 285.91c0 115.7 94.41 209.82 210.46 209.82 74.3 0 139.72-38.68 177.11-96.93.4.79.79 1.57 1.04 2.43.13 1.28 1.54 1.92 2.94 2.17 5.88-1.27 12.01-1.79 17.11.51 4.34-.89 8.56-1.91 12.39-3.32 9.45-2.55 13.28-10.47 14.94-19.66.63-3.7.51-8.05 2.81-11.11.39-.38.64-.51.64-.51l3.19-.38c1.79-.38 2.17-2.43 2.67-4.22.13-2.18.13-3.71.65-5.62.38-21.58 1.66-42.78-1.15-64.24 0-5.61-1.14-9.83-5.36-13.79.38-3.19-1.53-5.23-2.81-8.43-6.12-10.09-11.11-20.3-17.11-30.27-1.78-8.3-8.16-16.86-3.95-26.43.26-3.58-.9-6.51-1.92-9.45-4.72-8.43-10.72-15.32-15.71-23.62-.5-1.28-.12-2.3-.9-3.07-.63-.63-2.04-1.02-3.32-.25-.51 0-1.15-.26-1.41-.64-3.57-7.66-8.16-15.08-11.87-23.12-1.4-4.72-1.54-9.45-6.13-11.62l-5.11-19.8c-1.66-.89-2.05-2.8-2.69-4.72.64-2.3 1.41-4.86-.38-6.26l-3.19 2.56c0-4.98 3.06-9.71-.38-14.43-.77-1.02-1.41-1.02-1.15-1.66 2.17-5.11.38-12.26 0-17.5-.9-1.15-1.15-1.15-1.79-1.41-5.37 1.53-11.88-.38-17.12-2.55-2.68-.38-4.98-1.53-6.89-2.68l-2.69.9c-1.91 4.08-8.17 5.36-8.68 10.34 1.53 2.94 2.81 5.1 3.7 8.04 0 1.53-.13 2.3-.38 3.45-.25.64-1.15.39-1.92.13-2.42-2.81-2.93-10.98-7.02-12.77-4.85-1.02-5.75 0-11.49 0l-4.85-.51.5 22.99c.78 1.02-.12 2.81.13 3.96v7.8H221.55l-2.56-5.62 2.04-4.85.12-27.84c1.92-2.55 4.86-7.02 7.92-8.56h15.46l2.93-5.74h-16.09l-90.64-1.02c42.32-28.3 93.19-44.83 147.86-44.83 146.74 0 266.13 119.16 266.13 265.63S435.33 552.57 288.59 552.57zm81.86-306.88c.63 2.17.13 3.44 1.02 5.37l4.85 5.74h.9c1.27-.38 2.04-1.66 2.17-3.07-.39-2.68-2.43-4.47-1.41-7.28.51-1.02 1.79-2.17 3.58-2.56 1.92 2.04 4.21 3.07 7.41 2.04l2.94 4.72c.26 5.36-5.62 7.92-6.25 13.8-.9 3.96-4.35 8.17-1.54 11.62 2.81 3.83 3.95 8.17 6.51 11.49.77 5.49 1.79 11.49 4.85 15.59 4.34 4.34 6.13 10.08 9.33 14.55l4.34-2.94c2.05 3.06 2.05 8.05 5.36 10.86.38 1.79 0 3.58 1.15 4.98l4.6 1.91 1.78 9.71 3.83 5.11 2.05 4.47c3.07 1.91 3.07 6.64 7.03 8.3 2.42 0 4.98 1.15 7.15 1.41 4.48 1.92 7.54 5.62 10.86 8.18.14.21 1.63 1.81 2.99 3.31-31.81 61.02-95.79 102.81-169.38 102.81-105.27 0-190.92-85.35-190.92-190.28 0-75.17 43.92-140.26 107.5-171.2l16.5 8.5 6.9 4.21c3.7 2.93 11.88 1.91 13.53 7.53 1.28 3.96.76 8.3 3.71 11.11.38.25.77.63.77.63l16.47-2.17 1.53-3.44 1.79-.77c.13 0 .51.13.9.26.64 1.28 1.4 3.19 3.32 3.96 7.28-.26 9.32-7.79 17.37-7.92 2.81-1.66 3.19-5.23 4.98-6.76l10.21-1.66c8.69 1.54 13.41 6.26 20.69 9.07 3.19 2.56 2.42 8.81 6.38 9.58 2.3.64 4.08 1.4 5.24 2.81 1.27 3.06 1.78 7.28 5.1 8.42 4.99 2.69 8.18 6.64 11.88 10.1 1.8 2.55 4.22 4.47 5.37 7.28 2.42 4.33 7.15 3.44 11.11 4.33 2.05 3.2 4.98 7.15 7.15 10.22 3.2 4.34 2.56 9.71 3.71 14.69-.13 5.88-2.3 10.85-3.71 16.85-2.04 5.75-.64 11.5-3.31 16.99-.51 2.81 0 4.85-.26 7.53zm114.67 49.94c0 2.8-1.02 5.11-1.4 8.04-.77 1.27-1.15 3.06-1.54 3.96-.51.13-.77.51-1.4.64l-12.78-5.49c-1.4-2.56-.51-5.75 0-8.56l6.13-4.34c.39-.26.51-.65.63-1.28.9-.9 1.54-1.79 2.94-2.42l.26.12 4.98 1.15c.64 2.68.77 5.62 2.17 8.18zM92.08 285.51c0 106.89 87.25 193.86 194.5 193.86 74.41 0 139.17-41.94 171.82-103.34.39.74.91 1.71 1.36 2.58.38 1.02 1.52 4.59 1.65 5.49.04.3.48.84 1.03 1.44C427.5 446.52 361.63 487.8 286.46 487.8c-111.62 0-202.54-90.79-202.54-202.03 0-76.74 43.21-143.66 106.58-177.88 1.82 1.14 4.17 2.62 5.8 3.44.93.47 1.81.81 2.62 1.11-63.32 32.03-106.83 97.57-106.83 173.09zm412.49 115.83c-3.33 10.72-12.51 17.37-19.41 26.18-6.77 5.11-13.92 8.3-21.84 12.01-1.79-.14-3.57.51-5.24.51-.63 0-.89-1.02-.63-1.66 1.02-3.45 4.09-3.71 6.77-4.99 3.83-1.27 6.64-2.81 10.22-3.7 2.42-.51 3.32-3.06 4.09-4.22.9-3.06 3.83-4.34 6.26-5.49 1.79 0 3.19-1.14 4.34-1.78l3.96-6.9c2.81-3.57 3.31-8.8 8.04-11.23l2.55.38c.26.26.77.51.9.9zM287.98 6.72C132.5 6.72 6 132.93 6 288.06s126.5 281.22 281.98 281.22 281.98-126.16 281.98-281.22S443.46 6.72 287.98 6.72zm0 558.97c-153.51 0-278.4-124.54-278.4-277.63S134.47 10.3 287.98 10.3s278.4 124.6 278.4 277.76-124.89 277.63-278.4 277.63zM138.43 313.22l24.78-.51v20.69h-45.59V230.73h20.81v82.49zm29.12-82.49h49.3v19.03l-29.12-.51v21.58h23.12v17.63l-23.12.38v24.78h29.12v19.79h-49.3V230.74zm54.53 53.25c.77 67.94 62.96 69.34 62.96-3.2s-64.49-71.13-62.96 3.2zm21.59 0c0-43.68 19.79-40.11 19.79-4.6 0 42.4-19.79 41.5-19.79 4.6zm86.71-53.25h16.47V333.4h-16.47l-24.01-63.47.9 11.75v51.72H290.8V230.73h20.18l20.82 56.83-1.41-22.6v-34.22zm23.88-127.71c.13.38.13.64 0 1.15-.26.9-.38-1.15-.77 0-.37-.51 0-.89.51-1.28l.26.13zm-2.81 3.32c-.38.89-1.02 1.28-2.17 1.79l-.9-4.34h.64c.64.89 2.05 1.15 2.42 2.56zm-5.49-1.66c.63.51 1.02 2.17.51 3.19-.26.13-.39.38-.51.51h-.9l-1.79-2.68c0-.9 1.41-.9 2.17-1.28l.51.26zm-55.39-19.92.09-.06v.06h-.09zm84.63 4.34v-3.32l-5.62-.13v-.89h5.62l-.38-1.53-5.11-4.34-10.09.13c-2.81 0-5.62-2.04-7.15-4.73-1.28-.77-2.68-.64-3.96-.38-.64.38-3.83 1.79-3.83 2.3-3.07.64-2.69-.51-6 .38-3.2.9-1.79-1.53-6.65 1.79-6.2-.12-13.66-.14-21.19-.11V62.04l.63-2.55-.63-2.55c-3.2-.9-2.69-4.73-6.14-6.01-.63 0-1.15-.12-1.27-.89v-8.56c-.38-2.56-.51-5.11-2.82-6.39-.26 0-.77-.64-1.15-.76-.26.13-.77.76-1.02.76-2.3 1.28-2.42 3.83-2.81 6.39v8.56c-.13.76-.64.89-1.41.89-3.31 1.28-2.8 5.11-5.87 6.01l-.64 2.55.64 2.55v16.37c-6.81.04-12.32.06-15.07-.03-7.91-.26-4.21-4.09-8.81-3.44-2.56.38-4.85-.39-6.51 1.66-.51-.26-1.02 0-1.15-.26-1.41-1.91-3.2-4.08-6.13-4.47-2.81.77-3.83 3.07-6.64 4.47-4.6.51-8.68 0-12.9 0l-2.17 1.15-2.68 2.94c.89.9-3.32 4.6-1.79 4.72h7.66v.64h-7.66v23.11c-.26 1.15-.76 3.83-1.53 4.85-.39 1.41 2.17 3.83 3.19 4.09l149.03-.13c1.66-2.42 0-6.89 0-10.47V89.11zm-84.28-14.18v-7.28c0-.38.12-.64.38-.64h1.4c.26 0 .51.26.51.64v7.28c0 .26-.25.51-.51.51h-1.4c-.26 0-.38-.26-.38-.51zm3.83 0v-7.28c0-.38.13-.64.38-.64h1.4c.26 0 .51.26.51.64v7.28c0 .26-.25.51-.51.51h-1.4c-.26 0-.38-.26-.38-.51zm3.96 0v-7.28c0-.38.12-.64.37-.64h1.41c.26 0 .5.26.5.64v7.28c0 .26-.25.51-.5.51h-1.41c-.26 0-.37-.26-.37-.51zm3.83 0v-7.28c0-.38.13-.64.38-.64h1.4c.26 0 .51.26.51.64v7.28c0 .26-.25.51-.51.51h-1.4c-.26 0-.38-.26-.38-.51zm6.26-7.28v7.28c0 .26-.26.51-.51.51h-1.41c-.26 0-.38-.26-.38-.51v-7.28c0-.38.12-.64.38-.64h1.41c.26 0 .51.26.51.64zm-8.43-25.66h1.27v7.28h-1.27v-7.28zm-2.94 0h1.27v7.28h-1.27v-7.28zm-6.51 18.25h17.24v.51h-17.24v-.51zm0 4.22h17.62v1.4h-17.62v-1.4zm20.81 19.16h20.42l.14.17v.72h-20.56v-.89zm2.81 2.8v-.89h18.64v.89h-18.64zm10.61 8.18v4.47h-2.05v-4.47h2.05zm-34.49-10.73v.83l1.61-1.05 8.08-5.27 12.51 7.41h-23.87l1.57-1.02h-22.64v-.89h22.73zm-2.94 1.4v.89h-20.43v-.89h20.43zm-56.95 28.99h-2.81v-2.68h2.81v2.68zm5.49 0h-2.81v-2.68h2.81v2.68zm5.48 0h-2.68v-2.68h2.68v2.68zm5.88 0h-2.68v-2.68h2.68v2.68zm13.42 0h-2.81v-2.68h2.81v2.68zm5.49 0h-2.81v-2.68h2.81v2.68zm5.49 0h-2.81v-2.68h2.81v2.68zm2.67-15.7c-.39-.08-.77-.18-1.22-.04-.75.37-1.03 1.27-.87 2.74l.02.06c.28.63.63 1.07.95 1.47.23.3.46.58.63.91l-4.34 1.68c-.29-.12-.44-.39-.62-.7-.19-.33-.41-.71-.83-.92l-.05-.03-5.04.78-.1.02-.76 1.51-5.24-.37h-.12l-1.85 3.55-.03.06v.06c.12.56.31 1.05.5 1.53.28.68.52 1.28.43 1.95h-5.52c0-.33.04-.69.07-1.07.14-1.63.31-3.67-1.14-5.12-.87-.96-2.19-2.11-3.52-2.11-.27 0-.53.05-.74.14-.15.03-.28.05-.4.07-.43.07-.74.12-.96.35-.69.55-.71 1.57-.71 2.49-.34.34-.68.66-1.21.78l-2.05-.61-.85-1.33c-.19-.33-.5-.5-.92-.5-.35 0-.74.11-1.11.21-.33.09-.64.18-.9.19-.3-.17-.36-.47-.45-1.06-.01-.1-.03-.21-.05-.28 0-.41.07-.49.07-.5l.04-.06c.16-.32.4-.35.86-.38.35-.03.75-.06 1.1-.3.04-.02.34-.19.48-.81 0-.31-.15-.61-.44-.9l-.05-.05h-2.77c-1.03 0-1.58 1.05-1.94 1.98-.3.18-.58.17-.98-.02l-1.24-2.73c-.09-.29-.34-.45-.6-.62-.15-.1-.3-.19-.43-.32-.26-.76-.03-1.52.69-2.27l2.88-.5.16-.03v-.16c0-.06.03-.12.1-.23.09-.13.2-.32.28-.67 0-.47-.16-1.01-.41-1.38l-.03-.05-3.25-1.25c0-.19.02-.39.1-.66.22-.21.51-.29.98-.29.15 0 .31 0 .46.02.17 0 .34.02.51.02.48 0 1.08-.06 1.56-.57.24-.07.48-.41.48-.81 0-.54-.37-.91-.74-1.27-.41-.4-.79-.78-.68-1.36.12-.34.6-.93 1.27-1.16l1.99-.36c.6.27.72.94.72 1.46v.06c.26.76 1.02 1.47 2.03 1.9l.1.04 1.85-1.43-.78-2.23c.09-.19.2-.33.32-.48.21-.26.43-.53.43-1.1l-.25-1.47c.17-.34.27-.38.76-.62l.18-.09 2.85 1.73.04.03h.05c1.09 0 1.88-.64 2.35-1.91v-1.02l-1.01-1.53c.02-.17.13-.21.5-.26.31-.04.7-.1.87-.47.5-.53.42-1.34.34-2.05-.02-.18-.04-.35-.04-.51l1.55.33h.11c.68-.27.87-.45 1-1.26.14-.36.03-.72-.08-1.08-.1-.34-.2-.66-.1-.98h.46l3.37 1.99c.12.12.13.12.44.44l-.12 1.7v.05c.13.7.95 1.54 1.95 1.69h.04l3.74-.9.07-.04c.25-.2.41-.44.56-.67.25-.39.47-.74 1.11-.82l6.07.89c.05.07.14.19.41.33.29.96.17 2.15-.4 3.86-.02.02-.04.05-.06.08-.09.11-.29.34-.41.34h-.12l-.05.12c-.1.22-.24.48-.39.74-.45.77-1 1.74-.9 2.94.15.88 1 1.68 1.96 1.81l5.43.5.04.11c.05.14.11.33.23.53-.02.29-.18.38-.64.57-.16.06-.34.14-.53.23l-2.48 2.59-.09.1 1.23 2.59.05.03c.76.44 1.99.5 3.51.17l1.37.68v1.36c-.12.19-.27.27-.51.27-.18 0-.38-.04-.59-.09zm3.45 15.7h-2.68v-2.68h2.68v2.68zm1.02-9.06h-2.17v-4.34h2.17v4.34zm0-6.14h-2.17v-4.47h2.17v4.47zm3.58 10.09h-2.42v-.89h2.42v.89zm-1.79-2.42V93.95c0-.13.13-.26.26-.26h.89c.13 0 .26.12.26.26v12.77c0 .13-.12.26-.26.26h-.89c-.12 0-.26-.12-.26-.26zm1.79-13.79h-2.42v-.89h2.42v.89zm4.22 12.26h-2.17v-4.34h2.17v4.34zm-2.43-6.14v-4.47h2.04v4.47h-2.04zm3.19-6.12v-.89h2.56v.89h-2.56zm2.18 1.02v12.77c0 .13-.13.26-.25.26h-1.02c-.13 0-.26-.12-.26-.26V93.95c0-.13.13-.26.26-.26h1.02c.12 0 .25.12.25.26zm.62 15.19h-2.42v-.89h2.42v.89zm3.72-3.95h-2.04v-4.34h2.04v4.34zm0-6.14h-2.04v-4.47h2.04v4.47zm1.15-6.12v-.89h2.55v.89h-2.55zm2.17 1.02v12.77c0 .13-.12.26-.26.26h-.89c-.26 0-.38-.12-.38-.26V93.95c0-.13.13-.26.38-.26h.89c.13 0 .26.12.26.26zm.64 15.19h-2.42v-.89h2.42v.89zm3.83-3.95h-2.05v-4.34h2.05v4.34zm0-6.14h-2.05v-4.47h2.05v4.47zm1.15-6.12v-.89h2.56v.89h-2.56zm2.16 1.02v12.77c0 .13-.12.26-.26.26h-.88c-.26 0-.26-.12-.26-.26V93.95c0-.13 0-.26.26-.26h.88c.13 0 .26.12.26.26zm.64 15.19h-2.42v-.89h2.42v.89zm3.84-3.95h-2.05v-4.34h2.05v4.34zm0-6.14h-2.05v-4.47h2.05v4.47zm3.7 10.09h-2.42v-.89h2.42v.89zm-1.79-2.42V93.95c0-.13.13-.26.26-.26h.89c.13 0 .26.12.26.26v12.77c0 .13-.13.26-.26.26h-.89c-.12 0-.26-.12-.26-.26zm1.79-13.79h-2.42v-.89h2.42v.89zm4.09 12.26h-2.05v-4.34h2.05v4.34zm-2.3-6.14v-4.47h2.05v4.47h-2.05zm6 10.09h-2.42v-.89h2.42v.89zm-1.79-2.42V93.95c0-.13.12-.26.26-.26h.89c.13 0 .26.12.26.26v12.77c0 .13-.13.26-.26.26h-.89c-.13 0-.26-.12-.26-.26zm1.79-13.79h-2.42v-.89h2.42v.89zm0-1.92h-40.86v-1.53h40.86v1.53zm3.2 23.24h-2.81v-2.68h2.81v2.68zm.89-9.06h-2.05v-4.34h2.05v4.34zm4.6 9.06h-2.69v-2.68H330v2.68zm5.23 0h-2.81v-2.68h2.81v2.68zm6.13 0h-2.68v-2.68h2.68v2.68zm14.3 0h-2.69v-2.68h2.69v2.68zm5.88 0h-2.82v-2.68h2.82v2.68zm5.24 0h-2.81v-2.68h2.81v2.68zm1.54-12.21-1.93.75 1.08 2.3-.23 1.27c-.34.19-.86.17-1.42.1-.36-.05-.76-.09-1.11-.05h-.06l-.05.05c-.24.24-.72.6-1.18.84-.19-.02-.84-.13-1.18-.24h-.08c-1.06.12-1.74.83-2.07 2.14-.19.39-1.17.65-1.8.66l-1.68-1.16-.08.02c-.65.11-.87-.16-1.2-.58-.28-.37-.64-.83-1.39-1.07l-.06-.02-.06.02c-1.93.64-3.54 2.45-4.34 4.84l-.03.08 1.56 2.99-6.85.25c-.29 0-.34-.12-.36-.16-.15-.3.13-.97.39-1.32.99-1.26 1.44-3.14.5-4.08-.49-.48-.97-.9-1.39-1.26-.56-.49-1.06-.91-1.25-1.23l-.77-1.66-.04-.06c-.14-.13-.37-.15-.46-.15s-.31.02-.43.13c-.51.39-.75.92-.99 1.44-.33.71-.62 1.34-1.51 1.56l-3.38-3.37-.06-.05h-.08c-.83 0-1.69.79-1.96 1.79v.11c.09.29.01.67-.24.77l-5-.12c-.33-.38-.15-.79.19-1.45.17-.32.33-.65.42-1v-.07l-.08-.18c-.25-.5-.63-1.25-.34-1.85.11-.15.3-.21.58-.21s.6.06.95.13c.38.07.77.15 1.14.15h.09l.06-.07c.1-.13.22-.26.34-.41.51-.6 1.15-1.36 1.36-2.22l.03-.1-.08-.08c-.36-.36-.79-.53-1.33-.53-.39 0-.8.09-1.19.18-.4.09-.8.18-1.19.18-.36 0-.66-.08-.97-.25-.21-.07-.72-.33-.99-1.21l.72-1.56c.26-.24.58-.36 1-.36.61 0 1.33.25 2.02.49.35.12.67.24.99.32h.08c.76-.11.97-.62 1.17-1.11.07-.17.14-.35.24-.51l.03-.06v-.07c-.13-.76-.83-1.46-1.91-1.93l-.08-.02c-.24 0-.57-.13-.86-.24-.1-.04-.2-.08-.29-.11l-.84-1.68v-.81c.22-.41.65-.75 1.18-1.18l.07-.06 2.92 1.01.07-.04c1.02-.57 1.95-1.76 2.76-3.53l.05-.11-2.93-3.56 2.84-4.46.06-.06c.1-.1.2-.23.55-.26.1.27.39.54.6.68 0 .36-.02.79-.24 1.21l-.02.09c0 .13.1.29.26.58.05.1.11.19.15.28l.04.05c.08.08.22.15.4.24.16.08.35.17.53.29l.05.03h.06c.57 0 1.12-.29 1.4-.57l.93-2.57c.39-.27 1.16-.31 1.74-.1l1.25 2.62.05.06c.25.21.54.31.84.31.64 0 1.24-.45 1.56-.7.41-.32.43-.88.45-1.42.01-.4.03-.82.21-1.13.15-.06.26-.17.38-.28.17-.17.33-.32.64-.32h.06l.05-.04c.58-.44.95-.99 1.19-1.8l.52-.21h1.45c.67.35.95.98 1.24 1.64.22.48.45.98.83 1.37l3.63 2.13-.36 1.69c0 .6.44 1.3 1 1.58l1.06.02 1.27-1.41h1.65c.36.24.29.59.13 1.17-.1.36-.2.73-.15 1.08 0 .25.2.4.42.57.12.09.26.2.4.34l.05.05 3.86.12c.25.14.37.37.37.71 0 .82.67 1.55 1.65 1.83l1.94.85.12 1.61c-.36.51-1.27.63-2.02.63-.69.14-1.54.96-1.69 1.97 0 .98.91 1.52 1.57 1.92l.12.07 2.73-.52c.13 0 .33.04.58.38v1.01c-.1.09-.2.17-.31.25-.12.09-.25.19-.38.31-.45.25-.63.73-.82 1.25-.04.12-.09.25-.14.37l-.03.09 1.68 2.59v1.14c-.19.19-.3.28-.56.38l-1.97-1.11-.08-.04zm4.58 12.21h-2.67v-2.68h2.67v2.68zm-24.52-34.22c0-.12 0-.51.64-.38.13 0 .51.26.64.38 0 .38 0 .51-.38.77-.26.13-.64-.26-.9-.77zm3.07 5.24c-.26-.26-.38-.39-.38-.9l.9-1.28.38.13.25.26c.26 0 .38.12.51.51.25.12.25.89 0 1.28 0 0-.13.38-.51.38-.25 0-.89 0-1.14-.38zm10.85 3.83h1.15l-.38 2.94c-.13.13-.51.39-.77.39-.38-.39-.38-1.28-.89-2.05 0-.38 0-.64.25-1.28h.64zm.13 8.55-.13 1.66c-.38.26-.9.64-1.54.64-.89-.64-.38-2.3.13-3.07h.77c.26 0 .51.38.77.77zm-8.05-4.34c.26.26.26.64 0 .76-.51.51-.51.77-1.27.9-.77 0-1.54-.51-2.04-1.28 0-.51.38-.9.9-1.28h.38l2.04.89zm-16.34-7.79c.13.64-.12 1.53-.63 2.3-.77 0-1.15-.51-1.28-1.28l.89-1.28h.39s.26 0 .63.26zm4.85 2.56c0-.39 0-.64.26-1.28h.64c.12 0 .63-.12 1.02 0l.12 2.17c-.12.26-.38.77-.89.77-.9 0-.9-.77-1.15-1.66zm-5.74 2.93c.26.26.26.39.38.76 0 .51-.12 1.02-.38 1.4-.13 0-.51.26-.77.38-.38 0-.64-.13-.77-.38l.13-2.17h1.41zm-86.59-12.64h.51c.26.26.38.38.64.76 0 .51-.38.77-.89.89-.76-.12-.38-.89-.26-1.66zm91.18 22.6c0 .26 0 .51-.13.9-.77.77-2.17 0-3.06-.51l.89-2.3c.13 0 .38 0 .76-.26.64.38 1.15 1.15 1.54 2.17zm-5.87 2.68c-.13.64-.26.9-.77 1.28-.38 0-.63 0-.77-.38l.13-1.53s.25 0 .63-.26c.26 0 .64.38.77.89zm-72.41-20.81c-.39-.64 0-1.02.12-1.53.25 0 .38 0 .51-.26.64 0 .77.38.89.89-.13.64-.13.9-.89 1.15-.13 0-.51 0-.63-.26zm-27.07 9.19c.26.38.26.77 0 1.28-.12.25-.26.25-.64 0l.51-1.4.12.12zm20.81-7.28c.12.26.38.39.38.76l-1.66 3.71c-.39 0-.51 0-.64-.13l-.64-2.17c0-.9-1.4-.64-1.66-1.79.12-.64.89-1.02 1.66-1.28l2.56.89zm-12.64 2.94c-.26 0-.64-.26-.64-.77 0-.13 0-.76.51-.89l.13.13c.26 0 .38.26.63.76 0 .12-.25.51-.63.77zm17.63-.13c-.13.38-.9.77-1.4.38-.38-.38 0-.51.12-1.15h1.28c1.02.26-1.02.64 0 .77zm7.02 5.37c0 .38-.13.51-.38.77h-1.53l.12-1.79q.26 0 .51-.26c.39-.12.89.26 1.14.38 0 .39 0 .77.13.9zm-15.33 2.55c-.25.38-1.28.63-2.04.76-.26-.13-.51-.51-.89-1.28l1.15-1.28h.26c.26 0 .77 0 1.28.26.38.12.51.89.25 1.54zm11.37 0c.26.64-.26 1.28-.9 1.54l-1.53-.77.13-1.4q.25 0 .51-.26c.38 0 .89 0 1.28.26.26 0 .51.38.51.63zm-25.16 4.47-2.17-.13c-.13-.13-.39-.38-.39-.77 0-.26 0-.51.39-.63.76 0 1.79-.51 2.42-.26v.38c0 .51 0 1.15-.26 1.41zm29.76-2.42c.26.26.38.38.38.77 0 .51-.12.76-.64.89-.76-.12-.38-.89-.26-1.66h.51zm-37.68 2.04s.26.64 0 .76h-.51c-.12-.13 0-.51.26-.89l.26.12zm12.9 2.42c-.39 0-.39-1.01.12-.89.63 0 .26.89-.12.89zm16.73-.12c0 .51-.89.12-1.02 0 0-.13 0-.77.38-.89l.26.12c.26 0 .38.26.38.77zm-19.92.25c.25.26.12.77 0 1.28-.26.51-1.15.38-1.79.25-.38 0-.38-.76-.25-1.53h2.04zm9.06.39.13 3.06c-.64.9-1.79-.38-2.42-.89-.38-.39-.38-.9-.38-.9v-.89c.38-.12.9-.77 1.53-.77.38-.12.89 0 1.15.39zm4.86 2.55c0 .38-.13.76-.26.89 0 0-.25.39-.64.51-.26 0-.89-.12-1.02-.51-.13-.51-.13-1.28-.13-1.91l.26-.26c.64 0 1.15.26 1.28.64.25 0 .38.26.51.64zm-106 370.35c-2.17 2.55-4.34 5.36-6.63 8.3-2.3 2.8-4.6 5.87-7.02 8.94-.26-.25-.51-.51-.9-.77-.26-.38-.64-.64-.89-.89-.39-.26-.64-.51-1.02-.77-.39-.25-.77-.51-1.15-.77 2.81-3.32 5.62-6.64 8.3-9.84 2.69-3.19 5.24-6.38 7.79-9.44l5.61-6.9-1.15-.9a67.56 67.56 0 0 0-4.47-3.46c-1.41-.89-2.56-1.65-3.58-2.29l.64-.64.38-.39c.12-.25.26-.38.38-.64.13-.13.39-.38.51-.77 1.53 1.28 3.19 2.68 4.85 3.95 1.54 1.41 3.32 2.81 4.98 4.22 1.79 1.41 3.58 2.81 5.49 4.34 1.79 1.4 3.71 2.94 5.75 4.47-.13.12-.26.26-.51.38-.13.13-.26.38-.64.76-.26.39-.38.65-.51.77-.12.25-.26.39-.38.51-.76-.89-1.79-1.91-2.94-2.93-1.02-1.02-2.42-2.18-3.96-3.45l-1.28-1.02c-1.02 1.15-2.17 2.42-3.32 3.83-1.28 1.54-2.68 3.32-4.34 5.37zm102.8 33.46c-.38.89-.64 1.66-.77 2.43-.77-2.17-1.91-3.96-3.45-5.24-1.54-1.27-3.45-2.18-5.74-2.81-4.34-1.02-8.18-.25-11.24 2.05-3.06 2.3-5.23 6.13-6.38 11.49-1.28 4.98-.9 9.31.77 12.77 1.78 3.45 4.72 5.75 8.81 6.64 1.91.51 3.96.51 6.13.26 2.04-.26 4.22-1.02 6.26-2.04l-1.15 3.45c-1.53.63-3.32 1.02-5.36 1.02s-4.34-.25-6.89-.77c-5.88-1.41-9.96-4.09-12.39-7.92-2.43-3.96-2.94-8.94-1.53-14.82 1.28-5.62 4.09-9.71 8.3-12.13 4.34-2.56 9.32-3.19 15.2-1.79 2.04.38 4.09 1.15 5.88 1.92 1.66.9 3.32 1.92 4.85 3.06-.51.9-.89 1.66-1.28 2.43zm-91.18-22.73c-5.36 3.83-11.23 8.17-17.88 12.77.39.13.64.13.9.25.26.13.51.26.77.39.25.12.51.37.77.5.26.26.38.38.64.63 2.42-2.04 4.6-3.83 6.51-5.36 1.92-1.53 3.71-2.94 5.36-4.21.77.26 1.4.76 2.3 1.14.76.39 1.91 1.16 3.58 2.05 1.53.89 2.68 1.54 3.44 2.05.77.51 1.53.9 2.18 1.28l-.26 2.29c-.39 2.3-.64 4.47-1.02 6.65-.39 2.17-.77 4.22-1.15 6.13.51.26.9.38 1.28.63.51.12.9.38 1.15.51.38.25.77.51 1.15.77.25.26.63.51 1.02.77.77-6.64 1.66-13.28 2.42-19.92.9-6.64 1.79-13.28 2.81-19.92l-.89-.51c-4.73 3.45-9.71 7.15-15.08 11.11zm24.26 24.77c-.89 2.17-1.91 4.34-2.68 6.51.25.12.63.38 1.15.51.39.26 1.15.63 2.04 1.02 2.18 1.02 4.09 1.78 5.75 2.42 1.66.64 3.19 1.15 4.47 1.41 0 .25-.13.38-.39.77l-.38.77c0 .13-.13.38-.26.64-.13.38-.26.63-.39.88-2.8-1.39-5.1-2.54-7.02-3.44-1.79-.89-3.19-1.54-4.09-2.05-1.15-.51-2.29-1.02-3.31-1.39-1.02-.51-2.04-.9-3.07-1.28 1.4-2.81 2.81-5.62 4.09-8.3 1.4-2.69 2.68-5.36 3.96-8.18 1.4-2.93 2.68-5.87 3.83-8.55 1.28-2.68 2.42-5.37 3.58-8.18.25.26.63.51 1.01.65.39.26.77.51 1.15.63.38.25.89.38 1.28.51.38.13.76.25 1.02.39l-4.47 8.94c-1.41 2.81-2.81 5.5-3.96 8.04-1.15 2.55-2.3 4.98-3.32 7.29zm-74.06-95.4-.64-.9c-5.74 1.28-11.88 2.42-18.39 3.71-6.39 1.27-13.66 2.68-21.58 4.09.26.25.51.38.77.64.13.26.38.51.51.64.13.26.39.51.51.76.13.26.13.51.26.89 3.06-.89 5.88-1.65 8.18-2.16 2.42-.64 4.6-1.15 6.64-1.54.51.64 1.02 1.28 1.54 2.05.51.63 1.4 1.79 2.42 3.31 1.02 1.54 1.79 2.56 2.3 3.33.51.77 1.02 1.4 1.4 2.16l-1.28 1.92c-1.15 1.92-2.42 3.83-3.57 5.62-1.28 1.79-2.56 3.46-3.71 5.11.39.39.64.65.9 1.02.38.38.64.63.89 1.02.26.38.39.64.64 1.02.12.38.38.89.63 1.28 3.45-5.75 7.02-11.37 10.6-17.11 3.58-5.62 7.28-11.24 10.99-16.86zm24.01 42.91-5.11 5.88-5.88 6.65c-1.79 2.16-3.07 3.7-3.83 4.59-.89 1.02-1.53 1.92-2.04 2.68-.26-.26-.51-.5-.77-.89-.26-.26-.63-.51-.89-.9-.39-.26-.77-.51-1.15-.77a4.12 4.12 0 0 0-.89-.64c1.15-1.27 2.55-2.69 3.96-4.21 1.41-1.66 3.19-3.57 5.24-6l2.94-3.32c3.7-4.34 6.38-7.4 7.92-9.19 1.53-1.79 2.8-3.45 3.83-4.86.26.26.51.51.76.9.26.25.64.51.9.89.38.26.77.51 1.15.77.26.25.64.51 1.02.63-.89.9-1.91 1.92-2.94 3.07-1.15 1.15-2.55 2.82-4.21 4.72zm-5.88-6.13c2.17-1.92 3.07-4.35 2.81-6.9-.13-2.68-1.53-5.37-4.22-8.18-.77-.89-1.91-1.91-3.31-3.31-1.41-1.41-2.43-2.3-3.07-2.94-.26-.38-.51-.63-.76-1.02-.26-.39-.51-.64-.77-1.02-2.04 2.04-4.22 4.08-6.39 6.13-2.17 2.17-4.47 4.34-6.9 6.64-2.3 2.05-4.47 4.22-6.77 6.13-2.3 2.05-4.47 4.09-6.76 6.01.38.26.76.63 1.15.89.26.25.64.64.9.89.12.13.38.39.51.64.26.26.51.63.89 1.14 1.28-1.4 2.56-2.68 3.58-3.7s1.92-1.91 2.81-2.67l5.62-5.23c.51.63 1.02 1.27 1.4 1.78.51.51.9 1.02 1.28 1.28 3.19 3.57 6.39 5.49 9.46 6.13 3.19.64 6-.25 8.55-2.68zm253.88 60.28c1.41 3.45 2.94 6.9 4.46 10.47-.38.13-.76.26-1.15.39-.38.13-.77.25-1.15.38-.38.13-.76.38-1.15.51-.38.25-.76.38-1.15.64-1.66-4.09-3.19-8.18-4.72-12-1.41-3.97-2.94-7.66-4.48-11.37l-3.32-8.31-1.27.64c-2.04.77-3.71 1.54-5.24 2.18-1.53.77-2.68 1.41-3.7 2.04-.12-.38-.12-.63-.26-.76a.92.92 0 0 0-.26-.64c0-.13-.13-.38-.26-.64-.11-.25-.25-.51-.38-.9 1.92-.64 3.84-1.41 5.76-2.17 2.04-.77 4.08-1.53 6.12-2.42 2.17-.9 4.22-1.79 6.38-2.68 2.17-.9 4.47-1.79 6.77-2.81 0 .12 0 .38.13.51 0 .25.12.5.38 1.02.14.38.26.63.39.89 0 .13.12.39.25.51-1.27.26-2.55.64-3.95 1.02-1.54.51-3.2 1.15-5.11 1.92l-1.41.64c.51 1.4 1.15 3.06 1.79 4.85.64 1.79 1.53 3.83 2.43 6.26 1.27 3.19 2.67 6.51 4.08 9.83zm-110.08-7.53c-6-.51-10.86.76-14.68 3.95-3.96 3.06-6.13 7.54-6.64 13.28-.51 5.87.89 10.61 4.09 14.3 3.19 3.58 7.91 5.75 13.92 6.26 5.87.51 10.72-.77 14.68-3.96 3.84-3.2 6.01-7.54 6.39-13.16.51-5.88-.63-10.6-3.83-14.3-3.32-3.71-7.91-5.75-13.92-6.38zm91.69 19.92c.51 1.78 1.02 4.08 1.79 6.9l-.63.12c-2.04-1.53-4.47-3.32-7.27-5.11-2.82-1.9-6.01-4.08-9.71-6.38l-15.83-10.09c.12.38.38 1.4.63 2.94.38 1.66.64 2.94.9 3.83.51 2.17 1.28 4.85 2.17 8.05.88 3.31 2.04 7.41 3.44 12.38-.38 0-.63.12-1.02.12-.26 0-.51.13-.76.13-.39.12-.65.12-.9.25-.25.12-.51.26-.9.38-.9-4.59-2.05-9.58-3.2-14.68-1.14-5.11-2.42-10.47-3.7-15.97l-1.41-5.49.9-.26c4.85 3.32 9.83 6.64 14.94 10.09 5.1 3.31 10.85 6.89 17.36 10.85 0-.25-.13-.51-.13-.77-.38-1.78-.64-3.06-.89-3.83-1.02-4.22-2.04-8.18-3.06-11.88-1.02-3.7-1.91-7.15-2.94-10.09.51 0 .9-.13 1.15-.13s.51 0 .64-.13c.26 0 .38-.13.64-.13.26-.13.64-.25 1.02-.38.77 3.96 1.66 7.91 2.55 12 1.02 4.09 1.92 8.18 3.07 12.38.26 1.54.77 3.2 1.15 4.86zm-39.45-9.97c.5 6.77.76 11.36.63 13.92-.13 2.43-.51 4.48-1.14 5.87-1.02 2.3-2.56 3.96-4.73 5.23-2.05 1.28-4.59 2.05-7.66 2.3-5.37.51-9.32-.51-11.88-2.82-2.68-2.29-4.22-6.37-4.72-11.87 0-.26-.13-1.54-.26-3.95-.13-2.56-.26-4.86-.51-7.02-.13-1.66-.51-4.6-.9-8.69-.13-.63-.13-1.02-.25-1.4.38 0 .77.12 1.15.12s.77-.12 1.27-.12.9-.13 1.41-.13c.37-.12.76-.25 1.02-.25.38 4.48.63 8.56 1.03 12.14.25 3.58.38 6.01.5 7.16.26 3.31.77 5.74 1.28 7.41.51 1.65 1.28 3.06 2.42 4.08 1.02 1.02 2.3 1.92 3.96 2.3 1.54.51 3.2.64 5.11.51 1.79-.12 3.45-.63 4.98-1.4 1.41-.77 2.56-1.79 3.45-3.07.9-1.28 1.41-2.81 1.66-4.72.13-1.92.13-5.1-.26-9.71-.38-3.06-.64-6-.9-8.68-.26-2.81-.51-5.37-.77-8.05.26.13.5.13.77.13h.77c.38 0 .76-.13 1.02-.13.24-.12.51-.12.75-.26.13 2.18.27 4.09.39 5.88 0 1.79.13 3.07.25 3.83l.13 1.4zM37.04 341.32c5.75-3.45 11.62-6.77 17.37-10.09 5.88-3.31 11.75-6.51 17.62-9.83l-.12-1.02c-5.62-1.54-11.62-3.32-17.87-5.23-6.39-1.92-13.41-4.21-20.94-6.51.12.26.12.51.26.77.12.38.12.63.12.89s.13.51.13.89c0 .26-.13.51-.13.89 3.06.64 5.88 1.28 8.18 1.92 2.42.64 4.6 1.15 6.63 1.79.13.77.26 1.53.39 2.43.12.89.26 2.3.51 4.08.26 1.92.38 3.19.51 4.09.12.9.12 1.79.26 2.55l-2.04 1.16c-1.91 1.14-3.96 2.16-5.88 3.18-1.91 1.02-3.7 1.91-5.62 2.81.13.51.26.88.39 1.4.12.39.12.77.26 1.28v2.56zm17.49-100.38c0 3.45.64 6.26 1.91 8.43 1.41 2.18 3.32 3.45 5.74 3.96 2.94.51 5.24 0 7.03-1.66 1.78-1.79 3.06-4.6 3.83-8.55.26-1.15.51-2.68.76-4.6.26-1.91.51-3.19.64-3.83 0-.26.26-.89.38-1.91.13-.12.13-.26.13-.51-1.92-.26-4.34-.63-7.02-1.02-2.81-.51-6.39-1.15-10.99-2.04-5.23-1.02-9.2-1.79-11.49-2.3-2.43-.51-4.48-1.02-6.26-1.53 0 .51 0 .9-.12 1.28 0 .51 0 .9-.13 1.28-.12.39-.12.77-.26 1.15-.12.38-.26.76-.51 1.15 1.54.26 2.94.51 4.22.64 1.4.26 2.68.38 3.83.63l9.58 1.91v.13c0 .38 0 .63-.13.89 0 .39-.26.77-.51 1.02-.12.38-.51.64-1.02.76l-8.42 4.34c-1.41.64-2.94 1.41-4.6 2.18-1.66.76-3.58 1.66-5.88 2.55 0 .64 0 1.15-.12 1.66 0 .51-.13 1.02-.13 1.53-.12.51-.26.89-.38 1.4-.13.51-.26 1.15-.51 1.67.25-.13.63-.39 1.14-.64 9.07-4.86 15.45-8.17 19.29-9.96zm3.58-17.37c5.49 1.92 10.47 1.79 14.81-.51 4.47-2.17 7.53-6.13 9.58-11.88 1.91-5.61 1.91-10.73-.26-15.19-2.04-4.6-5.88-7.79-11.24-9.58-5.61-1.92-10.47-1.79-14.81.38-4.34 2.3-7.53 6.26-9.58 12-1.91 5.62-1.79 10.73.39 15.2 2.04 4.6 5.75 7.8 11.11 9.58zm16.73 112.38.64 2.55-14.05 3.2-.64-2.43 14.05-3.32zM56.32 179.77c-.26-.13-.51-.26-.76-.39 1.53-2.81 2.81-4.98 3.83-6.89 1.02-1.79 1.66-3.06 2.18-3.96.63-1.15 1.15-2.17 1.66-3.19s1.02-2.04 1.41-3.07c2.81 1.54 5.49 3.07 8.04 4.6 2.68 1.4 5.23 2.81 7.92 4.21 2.94 1.66 5.74 3.06 8.43 4.47 2.69 1.28 5.23 2.68 7.92 3.83-.26.39-.51.64-.77 1.02-.13.39-.39.77-.64 1.16-.26.38-.38.76-.51 1.14-.26.39-.38.77-.51 1.15-2.93-1.79-5.87-3.45-8.68-4.99-2.68-1.66-5.36-3.06-7.79-4.34-2.55-1.41-4.85-2.56-7.03-3.71-2.17-1.02-4.34-2.04-6.38-3.06-.26.26-.39.64-.64 1.15-.25.38-.63 1.02-1.15 2.04-1.02 2.04-2.04 3.83-2.69 5.49-.76 1.66-1.28 3.19-1.66 4.47-.13-.12-.38-.26-.63-.38-.39-.13-.64-.39-.77-.39-.13-.12-.39-.26-.77-.38zm.51 190.16c-3.45 1.02-6.39.63-9.07-1.02-2.68-1.66-4.59-4.34-5.62-8.05-.51-1.66-.76-3.32-.64-4.85 0-1.66.39-3.07.9-4.47 1.02 0 1.91 0 2.94-.13 1.02 0 1.92-.12 2.81-.38-1.66 1.28-2.81 2.94-3.58 4.73-.63 1.79-.63 3.57-.13 5.49.64 2.3 1.91 3.83 3.57 4.85 1.79.9 3.84 1.02 6.13.39 1.54-.51 2.81-1.16 3.58-2.3.64-1.02 1.15-2.56 1.4-4.74l.51-4.72c.38-2.68 1.02-4.72 2.04-6.13 1.15-1.53 2.68-2.55 4.73-3.19 2.81-.76 5.49-.5 7.91 1.02 2.43 1.54 4.09 3.84 5.11 7.03.39 1.41.51 2.82.64 4.09 0 1.4-.13 2.81-.38 4.22-.64 0-1.28-.13-1.91-.13-.77-.13-1.54-.13-2.43-.13 1.02-1.28 1.79-2.56 2.04-3.96.39-1.4.26-2.81-.12-4.21-.51-1.92-1.53-3.31-2.94-4.08-1.53-.77-3.19-.89-5.23-.25-1.4.38-2.42 1.14-3.19 2.16-.77 1.02-1.28 2.69-1.54 4.73l-.64 4.72c-.38 2.68-1.02 4.86-2.17 6.26-1.02 1.41-2.69 2.42-4.72 3.07zm14.31 49.8c-1.4-.65-2.81-1.79-4.21-3.45-1.41-1.53-2.69-3.45-3.83-5.75-2.69-5.37-3.32-10.21-1.79-14.55 1.4-4.34 4.85-7.92 10.21-10.73 5.11-2.55 10.09-3.06 14.69-1.4 4.73 1.65 8.43 5.1 11.24 10.47.89 1.92 1.66 3.83 2.17 5.75.38 1.91.64 3.83.76 5.61-1.02.26-1.91.39-2.68.65-.9.25-1.67.63-2.3 1.02 1.15-2.04 1.79-4.08 1.79-6 0-2.04-.51-4.08-1.66-6.26-2.04-3.96-4.85-6.38-8.68-7.28-3.83-.9-8.04 0-12.9 2.42-4.72 2.29-7.79 5.37-9.32 8.81-1.53 3.57-1.41 7.28.51 11.11 1.02 1.79 2.17 3.31 3.83 4.72 1.53 1.54 3.44 2.68 5.49 3.58l-3.32 1.28zm6.89-275.59c-.64-.38-1.15-.63-1.66-.89.26-.26.51-.64.77-1.02.26-.25.51-.64.9-1.15.26-.26.38-.64.64-1.02.13-.25.26-.63.39-1.02 1.53 1.16 3.19 2.43 4.98 3.71 1.79 1.27 3.83 2.68 6.13 4.08 3.19 2.17 6.51 4.22 9.7 6.13 3.2 2.04 6.51 4.09 9.83 6-.38.64-.89 1.28-1.4 2.04-.51.77-1.41 2.17-2.68 4.09-1.4 2.17-2.68 3.96-3.57 5.49-.9 1.53-1.79 2.94-2.81 4.48-.13-.13-.39-.39-.64-.51-.38-.26-.64-.51-.77-.51-.12-.13-.38-.26-.76-.51-.26-.13-.51-.26-.64-.39.77-.89 1.79-2.04 3.07-3.7 1.14-1.66 2.68-3.83 4.59-6.64l.77-1.02c-.89-.64-1.66-1.28-2.68-1.91-.89-.64-2.3-1.54-3.96-2.69l-3.2-1.91-1.4-1.02-2.3 3.58c-.89 1.53-1.79 2.81-2.42 4.09-.77 1.28-1.41 2.56-2.04 3.83-.26-.13-.39-.26-.51-.39-.26-.12-.51-.38-.9-.64-.38-.13-.64-.39-.77-.51-.12 0-.38-.13-.51-.25 1.79-2.3 3.2-4.34 4.22-5.88 1.02-1.53 1.91-2.68 2.56-3.71l.89-1.27-10.34-6.77c-1.66-1.02-2.81-1.79-3.45-2.17zm-41.5 118.51c-1.28-.13-2.42-.26-3.32-.26.13-.39.26-.77.26-1.16.13-.38.26-.76.26-1.14.13-.51.13-1.02.13-1.41v-1.15c1.79.38 3.7.64 5.74 1.02s4.72.76 7.91 1.15l4.34.64c5.62.77 9.71 1.4 12.01 1.66 2.42.26 4.47.51 6.12.64-.12.26-.12.64-.25 1.02s-.13.89-.26 1.28c0 .51-.13.89-.13 1.28v1.27c-1.15-.26-2.56-.51-4.09-.76-1.66-.25-3.7-.64-6.26-1.02l-7.79-1.02-8.69-1.28c-2.81-.38-4.85-.64-6-.76zm31.93 17.62c-.13-2.3-.26-3.83-.26-4.47v-4.09c-1.92.12-4.09.25-6.52.25-2.42.12-6.38.12-11.75.26-5.11.12-8.94.12-11.5.26-2.42 0-4.72 0-6.63-.13v2.43c.12.89.12 1.53.12 1.91v3.96c-.12 1.66-.12 2.94-.12 3.83.12 6.89 1.91 12.01 5.23 15.58 3.44 3.45 8.3 5.23 14.69 5.11 3.19-.12 6.13-.77 8.68-1.91 2.43-1.27 4.47-2.94 5.88-5.23.9-1.27 1.53-2.94 1.92-4.73.38-1.79.51-4.22.51-7.15-.13-1.66-.13-3.58-.26-5.88zm348.12 222.34c.77 1.41 1.78 2.94 2.81 4.47-.38.12-.77.26-1.15.38-.38.26-.64.39-1.02.65-.38.12-.64.38-1.02.63-.25.13-.64.51-1.02.77-.64-1.4-1.27-2.56-1.78-3.7-.63-1.02-1.14-2.05-1.79-3.07-.51-.9-1.15-1.92-1.79-2.94-.64-1.03-1.28-2.16-2.05-3.19-4.34-2.56-8.3-4.85-11.87-6.77a302.16 302.16 0 0 0-9.83-5.62c.39-.13.76-.38 1.15-.51.52-.26.89-.51 1.41-.77.51-.26.89-.64 1.41-.9.38-.25.77-.51 1.02-.77 2.8 2.05 5.75 3.96 8.68 5.74 2.94 1.79 6 3.46 9.07 4.98.13-3.58.13-7.02 0-10.47-.13-3.45-.38-6.76-.77-10.08.39-.13.64-.26.89-.39.38-.12.64-.25.9-.38.38-.26.64-.38.89-.64.39-.13.52-.38.77-.51-.12 4.22-.12 8.43-.25 12.39 0 3.97 0 7.79.13 11.5.77 1.4 1.27 2.42 1.65 3.06.39.77.78 1.41 1.04 1.92.76 1.4 1.65 2.67 2.55 4.21zm-130.39 22.61c-.51 5.36-2.04 9.45-4.85 12.13-2.69 2.67-6.39 3.83-10.85 3.44-4.6-.38-8.05-2.16-10.34-5.23-2.17-3.06-3.07-7.28-2.56-12.64.51-5.49 2.04-9.58 4.85-12.26 2.68-2.81 6.39-3.97 10.98-3.58 4.6.38 8.04 2.17 10.21 5.23 2.18 3.07 3.06 7.41 2.56 12.9zM50.7 316.42l13.92 4.08c-3.83 2.18-6.39 3.57-7.79 4.47-1.28.76-2.18 1.14-2.56 1.4l-2.18 1.15c-.12-1.02-.25-2.3-.51-3.96-.26-1.53-.38-2.55-.38-3.19-.13-.64-.26-1.4-.26-2.3-.13-.89-.26-1.53-.26-1.65zm18.78-80.33c.89.26 1.78.51 2.55.77-.12.26-.12.51-.12.89-.25 1.66-.38 2.69-.51 3.2-.64 3.06-1.66 5.23-3.07 6.51-1.53 1.28-3.45 1.66-5.88 1.15-2.56-.51-4.34-1.79-5.23-3.96-.89-2.3-.89-5.36-.12-9.2 0-.51.12-.77.12-1.02.13-.26.13-.51.26-.77l6.9 1.41 2.3.38c1.02.25 2.04.51 2.81.64zm10.34-37.03c2.03 3.31 2.29 7.15.76 11.49s-4.09 7.28-7.54 8.69c-3.57 1.4-7.91 1.15-13.16-.64-5.1-1.79-8.68-4.34-10.6-7.66-1.91-3.31-2.17-7.02-.77-11.37 1.53-4.47 4.09-7.28 7.66-8.68 3.45-1.41 7.79-1.28 12.9.51s8.69 4.34 10.73 7.66zM66.41 280.4c0 1.28.12 2.68.12 4.22 0 5.35-1.15 9.19-3.7 11.62-2.43 2.42-6.51 3.7-12.26 3.7-5.49.13-9.58-1.28-12.39-4.09-2.68-2.81-4.08-7.15-4.21-13.15v-2.42c0-.9.13-1.91.13-3.06 2.55-.25 5.23-.25 8.17-.38 2.81-.13 5.88-.13 9.2-.26h14.69c0 1.28.12 2.55.26 3.83zm53 170.74c-2.3-.51-4.73-2.04-7.41-4.86-.38-.5-.76-.89-1.02-1.15-.26-.25-.38-.51-.51-.63l3.45-3.33c1.02-.89 2.42-2.17 4.21-3.71 1.91-1.66 3.19-2.81 4.09-3.57l.13.12c1.02.9 1.79 1.66 2.17 2.17 2.55 2.69 3.96 4.98 4.08 7.03.26 1.91-.64 3.95-2.68 5.75-2.04 1.91-4.21 2.68-6.51 2.17zm-21.2-22.98-1.41 2.04c-.64-.76-1.4-1.91-2.3-3.19-.89-1.27-1.53-2.18-1.79-2.69-.5-.5-.89-1.14-1.4-1.91-.51-.77-.77-1.28-.89-1.41l14.05-2.94c-2.3 3.7-3.83 6.25-4.6 7.53-.89 1.41-1.4 2.18-1.66 2.56zM171 489.71c-.25 1.53-.38 2.55-.38 2.94l-.38 2.42c-.9-.51-2.04-1.15-3.45-1.91-1.4-.77-2.3-1.28-2.81-1.66-.64-.26-1.28-.63-2.04-1.14-.76-.51-1.28-.77-1.4-.9l11.49-8.56c-.51 4.34-.77 7.28-1.02 8.82z" fill-rule="evenodd" fill="url(#b)" />
</svg>