<?xml version="1.0" encoding="iso-8859-1" standalone="yes"?><!-- Generator: Adobe Illustrator 25.4.1, SVG Export Plug-In . SVG Version: 6.00 Build 0)  --><svg xmlns="http://www.w3.org/2000/svg" xmlns:xlink="http://www.w3.org/1999/xlink" version="1.2" baseProfile="tiny-ps" viewBox="0 0 107.813 107.784" xml:space="preserve"><title>New-litmus-icon</title><g><path fill="#48555C" d="M42.294,72.746l-18.687,25.72c8.22,5.597,18.066,8.979,28.686,9.29l-0.001-31.789   C48.643,75.704,45.24,74.562,42.294,72.746z"></path><path fill="#B2AD4B" d="M52.206,31.795V0.002C41.591,0.331,31.749,3.727,23.537,9.337l18.685,25.718   C45.162,33.227,48.56,32.072,52.206,31.795z"></path><path fill="#E4B33A" d="M84.2,9.289c-8.218-5.596-18.066-8.978-28.682-9.29v31.79c3.647,0.262,7.049,1.404,9.996,3.221L84.2,9.289z   "></path><path fill="#4E5C5A" d="M33.419,62.318L3.176,72.145c3.505,9.729,9.727,18.159,17.753,24.374l18.686-25.719   C36.924,68.528,34.783,65.624,33.419,62.318z"></path><path fill="#9F9540" d="M39.551,37.009L20.862,11.288C12.847,17.515,6.637,25.955,3.147,35.69l30.241,9.825   C34.74,42.204,36.869,39.293,39.551,37.009z"></path><path fill="#6A7B54" d="M31.75,53.878c0-1.795,0.219-3.54,0.622-5.21L2.127,38.839c-1.383,4.775-2.127,9.819-2.127,15.039   c0,5.25,0.753,10.322,2.152,15.12l30.24-9.826C31.976,57.476,31.75,55.703,31.75,53.878z"></path><path fill="#D55641" d="M68.259,70.746l18.688,25.723c8.016-6.229,14.225-14.669,17.712-24.404L74.42,62.24   C73.068,65.552,70.939,68.461,68.259,70.746z"></path><path fill="#993428" d="M55.602,75.961v31.793c10.616-0.33,20.456-3.726,28.669-9.336L65.585,72.7   C62.648,74.528,59.247,75.685,55.602,75.961z"></path><path fill="#E8703E" d="M105.656,38.758l-30.24,9.827c0.418,1.696,0.642,3.469,0.642,5.293c0,1.795-0.218,3.539-0.621,5.21   l30.244,9.828c1.384-4.773,2.129-9.818,2.129-15.038C107.809,48.627,107.056,43.556,105.656,38.758z"></path><path fill="#F2A838" d="M74.388,45.436l30.243-9.826c-3.503-9.73-9.728-18.159-17.752-24.374L68.194,36.955   C70.883,39.228,73.026,42.131,74.388,45.436z"></path></g></svg>