<?xml version="1.0" encoding="UTF-8" standalone="yes"?>
<svg width="192" height="192" viewBox="0 0 192 192" version="1.2" baseProfile="tiny-ps" xmlns="http://www.w3.org/2000/svg">
  <title>bimi-svg-tiny-12-ps</title>
  <path d="M 97.714 63.620 C 96.471 64.863, 96.998 105.173, 98.306 108.906 C 99.823 113.233, 103.404 115.792, 108.500 116.189 L 112.500 116.500 112.500 111.500 C 112.500 107.076, 112.241 106.463, 110.250 106.180 C 109.013 106.005, 107.911 105.780, 107.801 105.680 C 107.692 105.581, 107.355 96.050, 107.051 84.500 L 106.500 63.500 102.464 63.203 C 100.244 63.040, 98.106 63.227, 97.714 63.620 M 12.451 79.267 C 12.184 79.964, 12.085 92.002, 12.232 106.017 L 12.500 131.500 14.852 131.833 C 16.145 132.016, 18.283 131.895, 19.602 131.564 C 21.885 130.991, 22 130.576, 22 122.874 C 22 115.565, 22.168 114.855, 23.750 115.503 C 27.274 116.948, 33.856 117.203, 37.407 116.031 C 50.837 111.598, 55.300 94.455, 45.702 84.166 C 40.326 78.403, 29.917 76.230, 23.561 79.545 C 20.920 80.922, 20.536 80.922, 19.762 79.539 C 18.725 77.687, 13.137 77.479, 12.451 79.267 M 58.044 79.447 C 57.096 80.589, 56.867 84.252, 57.171 93.382 C 57.541 104.500, 57.833 106.133, 60.024 109.331 C 68.752 122.068, 87.124 118.110, 90.071 102.858 C 91.263 96.689, 91.196 82.234, 89.965 79.934 C 88.778 77.717, 83.154 77.246, 81.200 79.200 C 80.404 79.996, 80 84.321, 80 92.045 C 80 104.808, 79.095 107, 73.826 107 C 68.806 107, 67.549 103.990, 67 90.650 L 66.500 78.500 62.914 78.199 C 60.596 78.005, 58.874 78.446, 58.044 79.447 M 126 78.704 C 125.175 79.004, 123.263 80.403, 121.750 81.812 C 119.616 83.800, 119 85.290, 119 88.465 C 119 93.912, 120.988 96.460, 127.999 100 C 134.808 103.437, 135.809 104.620, 133.695 106.734 C 132.401 108.028, 131.426 108.093, 127.634 107.138 C 121.573 105.612, 121.491 105.627, 120.161 108.547 C 118.306 112.617, 118.752 113.683, 123.020 115.391 C 133.880 119.737, 145 114.450, 145 104.942 C 145 99.955, 141.343 95.637, 134.180 92.165 C 131.155 90.699, 128.717 89.050, 128.763 88.500 C 128.943 86.331, 131.926 85.534, 135.217 86.776 C 138.193 87.899, 138.639 87.808, 140.220 85.755 C 142.670 82.572, 142.426 81.272, 139.050 79.526 C 136.187 78.045, 129.046 77.595, 126 78.704 M 150.667 78.667 C 150.300 79.033, 150 81.058, 150 83.167 L 150 87 159 87 C 163.950 87, 168 87.310, 168 87.688 C 168 88.066, 163.923 92.534, 158.939 97.615 C 150.064 106.666, 149.884 106.944, 150.189 111.178 L 150.500 115.500 166 115.500 L 181.500 115.500 181.500 111.500 L 181.500 107.500 172.750 107.211 C 167.938 107.052, 164.009 106.602, 164.019 106.211 C 164.030 105.820, 167.855 101.329, 172.519 96.231 C 179.554 88.543, 181 86.403, 181 83.681 C 181 81.877, 180.460 79.860, 179.800 79.200 C 178.510 77.910, 151.910 77.423, 150.667 78.667 M 25.077 90.589 C 20.647 94.316, 20.647 100.684, 25.077 104.411 C 32.576 110.722, 43.031 103.685, 39.964 94.391 C 37.826 87.914, 30.485 86.039, 25.077 90.589" stroke="none" fill="#fbf5f9" fill-rule="evenodd"/>
  <path d="M -0 96.005 L -0 192.010 96.250 191.755 L 192.500 191.500 192.755 95.750 L 193.010 -0 96.505 -0 L 0 0 -0 96.005 M 0.480 96.500 C 0.480 149.300, 0.602 170.753, 0.750 144.174 C 0.898 117.595, 0.898 74.395, 0.750 48.174 C 0.601 21.953, 0.480 43.700, 0.480 96.500 M 97.714 63.620 C 96.471 64.863, 96.998 105.173, 98.306 108.906 C 99.823 113.233, 103.404 115.792, 108.500 116.189 L 112.500 116.500 112.500 111.500 C 112.500 107.076, 112.241 106.463, 110.250 106.180 C 109.013 106.005, 107.911 105.780, 107.801 105.680 C 107.692 105.581, 107.355 96.050, 107.051 84.500 L 106.500 63.500 102.464 63.203 C 100.244 63.040, 98.106 63.227, 97.714 63.620 M 12.451 79.267 C 12.184 79.964, 12.085 92.002, 12.232 106.017 L 12.500 131.500 14.852 131.833 C 16.145 132.016, 18.283 131.895, 19.602 131.564 C 21.885 130.991, 22 130.576, 22 122.874 C 22 115.565, 22.168 114.855, 23.750 115.503 C 27.274 116.948, 33.856 117.203, 37.407 116.031 C 50.837 111.598, 55.300 94.455, 45.702 84.166 C 40.326 78.403, 29.917 76.230, 23.561 79.545 C 20.920 80.922, 20.536 80.922, 19.762 79.539 C 18.725 77.687, 13.137 77.479, 12.451 79.267 M 58.044 79.447 C 57.096 80.589, 56.867 84.252, 57.171 93.382 C 57.541 104.500, 57.833 106.133, 60.024 109.331 C 68.752 122.068, 87.124 118.110, 90.071 102.858 C 91.263 96.689, 91.196 82.234, 89.965 79.934 C 88.778 77.717, 83.154 77.246, 81.200 79.200 C 80.404 79.996, 80 84.321, 80 92.045 C 80 104.808, 79.095 107, 73.826 107 C 68.806 107, 67.549 103.990, 67 90.650 L 66.500 78.500 62.914 78.199 C 60.596 78.005, 58.874 78.446, 58.044 79.447 M 126 78.704 C 125.175 79.004, 123.263 80.403, 121.750 81.812 C 119.616 83.800, 119 85.290, 119 88.465 C 119 93.912, 120.988 96.460, 127.999 100 C 134.808 103.437, 135.809 104.620, 133.695 106.734 C 132.401 108.028, 131.426 108.093, 127.634 107.138 C 121.573 105.612, 121.491 105.627, 120.161 108.547 C 118.306 112.617, 118.752 113.683, 123.020 115.391 C 133.880 119.737, 145 114.450, 145 104.942 C 145 99.955, 141.343 95.637, 134.180 92.165 C 131.155 90.699, 128.717 89.050, 128.763 88.500 C 128.943 86.331, 131.926 85.534, 135.217 86.776 C 138.193 87.899, 138.639 87.808, 140.220 85.755 C 142.670 82.572, 142.426 81.272, 139.050 79.526 C 136.187 78.045, 129.046 77.595, 126 78.704 M 150.667 78.667 C 150.300 79.033, 150 81.058, 150 83.167 L 150 87 159 87 C 163.950 87, 168 87.310, 168 87.688 C 168 88.066, 163.923 92.534, 158.939 97.615 C 150.064 106.666, 149.884 106.944, 150.189 111.178 L 150.500 115.500 166 115.500 L 181.500 115.500 181.500 111.500 L 181.500 107.500 172.750 107.211 C 167.938 107.052, 164.009 106.602, 164.019 106.211 C 164.030 105.820, 167.855 101.329, 172.519 96.231 C 179.554 88.543, 181 86.403, 181 83.681 C 181 81.877, 180.460 79.860, 179.800 79.200 C 178.510 77.910, 151.910 77.423, 150.667 78.667 M 25.077 90.589 C 20.647 94.316, 20.647 100.684, 25.077 104.411 C 32.576 110.722, 43.031 103.685, 39.964 94.391 C 37.826 87.914, 30.485 86.039, 25.077 90.589" stroke="none" fill="#e317aa" fill-rule="evenodd"/>
</svg>