<?xml version="1.0" encoding="UTF-8"?>
<!-- Generator: Adobe Illustrator 27.0.0, SVG Export Plug-In . SVG Version: 6.00 Build 0) -->
<svg version="1.2" baseProfile="tiny-ps" id="Layer_1" xmlns="http://www.w3.org/2000/svg" xmlns:xlink="http://www.w3.org/1999/xlink" viewBox="0 0 150 150" xml:space="preserve">
    <title>manmadebrand</title>
    <rect fill="#F5F5F5" width="150" height="150" />
    <g>
        <path id="logoMark__x3C_CompoundPathItem_x3E__00000064350208710185309170000008013586413767659920_" fill="#EF4137" d="   M80.44,49.84L96.8,39.49l17.71-6.11l6.11,18.64l-17.71,6.01l-19.47,1.35l-0.1,0.52l14.91,12.43l11.8,16.26l-15.84,11.6l-11.7-16.36   l-7.15-18.12h-0.73l-7.15,18.12l-11.7,16.36l-15.84-11.6l11.81-16.26l14.91-12.43l-0.1-0.52l-19.47-1.35l-17.71-6.01l6.11-18.64   l17.71,6.11l16.36,10.36l0.42-0.41l-4.76-18.85V10.91h19.57v19.68l-4.76,18.85L80.44,49.84z" />
        <rect id="logoMark__x3C_PathItem_x3E__00000129884067667852469200000007179627478169507977_" x="29.38" y="109.73" fill="#EF4137" width="91.23" height="16.12" />
    </g>
</svg>
