<?xml version="1.0" encoding="utf-8" standalone="yes"?><!-- Generator: Adobe Illustrator 27.4.0, SVG Export Plug-In . SVG Version: 6.00 Build 0)  --><svg xmlns="http://www.w3.org/2000/svg" xmlns:xlink="http://www.w3.org/1999/xlink" version="1.2" baseProfile="tiny-ps" viewBox="0 0 60 60" xml:space="preserve"><title>Swiss Life</title><rect fill="#FFFFFF" width="60" height="60"></rect><path fill="#D82034" d="M33,7.4c-1.3-0.2-3.4-0.3-5.1-0.1c-1.4,0.1-3,0.4-4,0.7c-0.1,0-0.2,0-0.2,0.1c0,0.1-0.1,0.1-0.1,0.2  c-0.9,3-5.6,6.3-6.8,7.3c-1.7,1.4-3.2,2.6-4.6,4.2c-1.2,1.3-2.5,2.9-3.3,4.4c-0.9,1.6-1.4,3.1-1.6,4.7C7,30.2,7,31.4,7,32.3l0,0  c0,0,0,0.2,0,0.3c0.1,1.4,0.4,2,0.4,2c0,0.1,0.1,0.2,0.2,0.2c0.1,0,0.1-0.2,0.2-0.3c0-0.1,0.2-0.6,0.3-1.1c0.1-0.5,0.2-0.8,0.4-1.3  c0.5-1.4,1.4-3.3,3.2-5.4c5.6-6.1,11.6-7.3,16.7-12c3.2-2.9,4.2-5.7,4.9-7.2c0-0.1,0.1-0.2,0-0.2C33.3,7.5,33.2,7.5,33,7.4L33,7.4  L33,7.4z"></path><path fill="#D82034" d="M52.5,25.7c-0.4-2-1.3-4.6-2.4-6.5c-0.2-0.4-0.6-1.1-0.9-1.5c-0.1-0.2-0.1-0.1-0.2-0.2  c-0.1-0.1-0.3-0.1-0.3-0.1c-0.6-0.1-2.1-0.1-3.8-0.1l0,0c-3.1,0-6.9,0.3-11.1,1.2c-6.2,1.2-11.6,3.3-16,6.1  c-4.7,3.1-8.2,6.5-9.5,12.1c-0.2,0.9,0.3,2.4,0.9,3.7c0.4,0.8,0.8,1.4,1.1,1.9c0.1,0.1,0.1,0.2,0.2,0.1c0,0,0.1-0.1,0.1-0.2  c0.1-0.4,0.2-1.2,0.6-2.3c0.7-2,2.4-6.1,9.5-9.5c4.7-2.3,9.9-3.4,14.6-3.9c7.4-0.9,13.1-0.9,17-0.5c0.1,0,0.2,0,0.3,0  S52.6,25.7,52.5,25.7L52.5,25.7L52.5,25.7z"></path><path fill="#D82034" d="M52.9,27.6c0-0.1,0-0.2-0.1-0.3c-0.1-0.1-0.1-0.1-0.2-0.1c-1.4-0.1-2.9-0.2-4.7-0.1  c-9.9,0.1-22.5,2.6-28.1,8.1c-2.6,2.6-3.9,5.8-2.9,9.9c1.1,4.6,5,6.7,7.4,7.4c1.2,0.3,2.1,0.3,2.1,0.3s0.2,0,0.2-0.1  c0,0-0.1-0.2-0.1-0.2s-0.4-0.4-0.7-0.7c-0.3-0.3-0.4-0.5-0.6-0.8c-0.4-0.6-0.8-1.3-1-2.4c-0.6-2.3,0.1-4.4,1.7-6.1  c2.8-2.9,9-4.8,19.8-4.8l5.9,0.1c0,0,0.2,0,0.3-0.1c0,0,0,0,0.1-0.2c0.3-1,0.9-2.9,1.1-5.1h0C53,31,53,29.3,52.9,27.6z M50.9,33.5  h-2.4v2.4h-2.1v-2.4h-2.4v-2.1h2.4V29h2.1v2.4h2.4V33.5z"></path></svg>