<?xml version="1.0" encoding="UTF-8" standalone="yes"?>
<svg version="1.2" baseProfile="tiny-ps" viewBox="0 0 144 144" xml:space="preserve" xmlns="http://www.w3.org/2000/svg">
  <title>Mudgil Dermatology</title>
  <g>
    <path fill="#C0BA5E" d="M72,121c-6.6,0-13-1.3-19.1-3.9c-5.8-2.5-11.1-6-15.6-10.5s-8-9.7-10.5-15.6C24.2,85,23,78.6,23,72&#xA;&#x9;&#x9;c0-6.6,1.3-13,3.9-19.1c2.5-5.8,6-11.1,10.5-15.6s9.7-8,15.6-10.5C59,24.2,65.4,23,72,23s13,1.3,19.1,3.9c5.8,2.5,11.1,6,15.6,10.5&#xA;&#x9;&#x9;c4.5,4.5,8,9.7,10.5,15.6c2.6,6,3.9,12.5,3.9,19.1c0,6.6-1.3,13-3.9,19.1c-2.5,5.8-6,11.1-10.5,15.6c-4.5,4.5-9.7,8-15.6,10.5&#xA;&#x9;&#x9;C85,119.8,78.6,121,72,121z M72,26.7c-6.1,0-12.1,1.2-17.6,3.6C49,32.5,44.1,35.8,40,40c-4.2,4.2-7.4,9-9.7,14.4&#xA;&#x9;&#x9;c-2.4,5.6-3.6,11.5-3.6,17.6c0,6.1,1.2,12.1,3.6,17.6C32.5,95,35.8,99.9,40,104c4.2,4.2,9,7.4,14.4,9.7c5.6,2.4,11.5,3.6,17.6,3.6&#xA;&#x9;&#x9;s12.1-1.2,17.6-3.6c5.4-2.3,10.2-5.6,14.4-9.7c4.2-4.2,7.4-9,9.7-14.4c2.4-5.6,3.6-11.5,3.6-17.6c0-6.1-1.2-12.1-3.6-17.6&#xA;&#x9;&#x9;c-2.3-5.4-5.6-10.2-9.7-14.4c-4.2-4.2-9-7.4-14.4-9.7C84.1,27.9,78.1,26.7,72,26.7z"/>
    <path fill="#C0BA5E" d="M95.4,98.9c-1.2,0-2.1-0.9-2.1-2.1V51.3l-20.6,8.9c-0.5,0.2-1.1,0.2-1.7,0l-20.6-8.9v45.5&#xA;&#x9;&#x9;c0,1.2-0.9,2.1-2.1,2.1c-1.2,0-2.1-0.9-2.1-2.1V48.1c0-0.7,0.4-1.4,1-1.8c0.6-0.4,1.3-0.5,2-0.2l22.7,9.8l22.7-9.8&#xA;&#x9;&#x9;c0.7-0.3,1.4-0.2,2,0.2c0.6,0.4,1,1.1,1,1.8v48.8C97.5,98,96.6,98.9,95.4,98.9z"/>
    <path fill="#C0BA5E" d="M81.8,98.9H63c-0.6,0-1.1-0.2-1.5-0.6c-0.4-0.4-0.6-0.9-0.6-1.5l0.1-14.9c0-6.3,5.2-11.5,11.5-11.5&#xA;&#x9;&#x9;s11.5,5.2,11.5,11.5v14.9C83.9,98,83,98.9,81.8,98.9z M65.1,94.7h14.6V81.9c0-4-3.3-7.3-7.3-7.3c-4,0-7.3,3.3-7.3,7.3L65.1,94.7z"/>
  </g>
</svg>