<?xml version="1.0" encoding="utf-8"?>
<!-- Generator: Adobe Illustrator 24.0.2, SVG Export Plug-In . SVG Version: 6.00 Build 0)  -->
<svg version="1.2" baseProfile="tiny-ps" id="Layer_1" xmlns="http://www.w3.org/2000/svg" xmlns:xlink="http://www.w3.org/1999/xlink"
	 viewBox="0 0 96 96" xml:space="preserve">

<title> Market Mastery Group </title>

<rect fill="#FFFFFF" width="96" height="96"/>
<g>
	<g>
		<path fill="#998665" d="M10.1,47c0,0.2,0,0.4,0,0.6c0,4.6,0,9.2,0,13.7c0,0.5,0,0.5-0.5,0.5c-0.9,0-1.8,0-2.7,0
			c-0.5,0-0.5,0-0.5-0.5c0-2.4,0.1-4.7,0.1-7.1c0-4.2,0-8.4,0-12.7c0-0.1,0-0.3,0-0.5c1.4,0.4,2.6,0.9,3.8,1.6
			c1.3,0.8,2.5,1.6,3.7,2.5c1,0.7,1.8,1.6,2.7,2.5c1.7,1.8,3.1,3.8,4.1,6.1c0.6,1.3,1,2.7,1.5,4c0.1,0.2,0.2,0.3,0.4,0.3
			c0.3,0,0.7,0,1,0c0.4,0,0.5-0.2,0.6-0.6c0.2-0.8,0.5-1.6,0.8-2.4c0.2-0.6,0.5-1.3,0.8-1.8c0.9-1.7,1.9-3.2,3-4.7
			c1.9-2.3,4-4.1,6.5-5.6c1.2-0.7,2.4-1.2,3.7-1.8c0.4-0.2,0.5-0.1,0.5,0.3c0,3.8,0,7.7,0,11.5c0,2.8,0,5.5,0,8.3
			c0,0.4-0.1,0.5-0.4,0.4c-0.9,0-1.9,0-2.8,0c-0.4,0-0.4-0.1-0.4-0.5c0-4.5,0-9.1,0-13.6c0-0.2,0-0.3,0-0.6
			c-0.2,0.1-0.3,0.1-0.3,0.2c-0.6,0.5-1.2,1-1.9,1.6c-0.5,0.5-1,0.9-1.5,1.4c-0.5,0.5-0.9,1.1-1.3,1.6c-0.8,1.1-1.5,2.4-2,3.6
			c-0.3,0.6-0.5,1.3-0.8,1.9c-0.2,0.4-0.1,0.6,0.4,0.6c1,0,2,0,3.1,0c0.1,0,0.3,0,0.4,0c0.3,0,0.4,0.1,0.4,0.5c0,0.9,0,1.8,0,2.7
			c0,0.3-0.1,0.4-0.4,0.4c-5.9,0-11.9,0-17.8,0c-0.3,0-0.4-0.1-0.4-0.4c0-0.9,0-1.9,0-2.8c0-0.3,0.1-0.4,0.4-0.4c1.1,0,2.3,0,3.4,0
			c0.1,0,0.2,0,0.3,0c0.6,0,0.7-0.1,0.5-0.7c-0.7-1.9-1.5-3.7-2.7-5.3c-0.7-1-1.6-1.9-2.4-2.8c-0.8-0.8-1.7-1.5-2.5-2.2
			c-0.1-0.1-0.2-0.1-0.3-0.2C10.2,47,10.2,47,10.1,47z"/>
		<path fill="#998665" d="M23.2,42.2c0.4-0.5,0.7-0.9,1.1-1.4c1.1-1.3,2.2-2.4,3.5-3.5c2.2-1.8,4.7-3.2,7.4-4.1
			c1.1-0.4,2.2-0.6,3.3-0.9c0.3-0.1,0.5-0.1,0.8-0.1c0.2,0,0.3,0.1,0.3,0.3c0,1,0,2.1,0,3.1c0,0.2-0.1,0.3-0.3,0.3
			c-2.1,0.3-4,1.2-5.9,2.1c-1.7,0.8-3.2,2-4.5,3.3c-2,2-3.8,4.1-5.4,6.3c-0.3,0.4-0.4,0.4-0.7,0c-0.8-1.1-1.7-2.2-2.5-3.3
			c-0.4-0.5-0.8-0.8-1.2-1.3c-0.5-0.5-0.9-1.1-1.4-1.6c-0.3-0.4-0.7-0.7-1.1-1c-0.9-0.7-1.8-1.4-2.8-2.1c-0.4-0.3-0.9-0.5-1.3-0.7
			c-0.9-0.4-1.8-0.9-2.8-1.2c-0.9-0.3-1.8-0.7-2.8-0.7c-0.3,0-0.5-0.2-0.5-0.5c0-1,0-1.9,0-2.9c0-0.3,0.1-0.4,0.4-0.3
			c1,0.2,2.1,0.4,3.1,0.7c1.2,0.3,2.4,0.7,3.5,1.4c1.1,0.6,2.2,1.1,3.2,1.8c1,0.6,1.8,1.4,2.7,2.1c0.6,0.5,1.1,1,1.6,1.6
			c0.6,0.7,1.2,1.5,1.8,2.2C22.9,42,23,42.1,23.2,42.2z"/>
	</g>
	<g>
		<path fill="#998665" d="M54.2,32.3c0,0.1,0,0.2,0.1,0.4c-0.2,0-0.4,0.1-0.7,0.1c-0.2,0-0.4,0.1-0.4,0.4c0,2.1,0.1,4.2,0.1,6.3
			c0,0.3,0.1,0.5,0.5,0.5c0.2,0,0.3,0,0.5,0.1c0,0.1,0,0.2,0,0.4c-1.3,0-2.7,0-4,0c-0.1-0.3,0-0.4,0.3-0.4c0.6-0.1,0.6-0.1,0.6-0.7
			c0-1.9,0.1-3.8,0.1-5.7c0-0.1,0-0.2-0.1-0.3c-0.3,0.9-0.6,1.8-0.9,2.7c-0.4,1.3-0.9,2.6-1.3,3.9c-0.1,0.3-0.2,0.5-0.6,0.5
			c-0.1,0-0.3,0.1-0.5,0.1c-0.8-2.4-1.7-4.8-2.5-7.2c0,0,0,0-0.1,0c0,0.4,0,0.8,0,1.2c0,1.6,0.1,3.2,0.1,4.8c0,0.5,0.2,0.6,0.7,0.7
			c0.2,0,0.3,0,0.5,0.1c0,0.1,0,0.2,0,0.4c-1,0-2,0-3,0c0-0.1,0-0.2,0-0.3c0.1,0,0.1,0,0.1,0c0.8-0.1,0.9-0.2,1-1
			c0.1-1.9,0.1-3.8,0.2-5.7c0-0.3-0.1-0.5-0.5-0.5c-0.2,0-0.4,0-0.6-0.1c0-0.1,0-0.2,0-0.3c0.8,0,1.6,0,2.4,0c0.8,0,0.8,0,1.1,0.7
			c0.5,1.4,1.1,2.8,1.7,4.1c0,0,0,0.1,0.1,0.2c0.1-0.1,0.1-0.2,0.1-0.3c0.5-1.5,1.1-3,1.6-4.5c0.1-0.3,0.2-0.3,0.5-0.3
			C52.3,32.3,53.2,32.3,54.2,32.3z"/>
		<path fill="#998665" d="M49.3,48.4c0.4-1.2,0.9-2.4,1.3-3.6c0.2-0.4,0.3-0.9,0.5-1.3c0-0.1,0.2-0.2,0.2-0.2c1,0,1.9,0,2.9,0
			c0,0.1,0,0.2,0.1,0.4c-0.2,0-0.5,0.1-0.7,0.1c-0.2,0-0.3,0.1-0.3,0.4c0,2.1,0.1,4.2,0.1,6.3c0,0.3,0.2,0.5,0.5,0.5
			c0.2,0,0.3,0,0.5,0.1c0,0.1,0,0.2,0,0.4c-1.3,0-2.7,0-4,0c0-0.1,0-0.2,0-0.3c0.1,0,0.1,0,0.1,0c0.7-0.1,0.7-0.1,0.8-0.9
			c0-1.8,0.1-3.7,0.1-5.5c0-0.1,0-0.2-0.1-0.3c-0.1,0.3-0.2,0.5-0.3,0.8c-0.6,1.9-1.3,3.8-1.9,5.7c-0.1,0.4-0.3,0.6-0.7,0.6
			c-0.1,0-0.2,0-0.4,0.1c-0.9-2.4-1.7-4.8-2.5-7.2c0,0-0.1,0-0.1,0c0,0.1,0,0.2,0,0.3c0,1.9,0.1,3.8,0.1,5.7c0,0.5,0.2,0.7,0.7,0.7
			c0.2,0,0.3,0,0.5,0.1c0,0.1,0,0.2,0,0.4c-1,0-2,0-3,0c0-0.1,0-0.2,0-0.3c0.1,0,0.3-0.1,0.4-0.1c0.5-0.1,0.7-0.2,0.7-0.7
			c0.1-0.8,0.1-1.6,0.1-2.4c0-1.1,0-2.3,0.1-3.4c0-0.6,0-0.6-0.6-0.7c-0.1,0-0.3,0-0.4-0.1c0-0.1,0-0.2,0-0.3c0.5,0,1.1,0,1.6,0
			c0.4,0,0.9,0,1.3,0c0.2,0,0.3,0.1,0.4,0.3c0.6,1.5,1.2,3.1,1.8,4.6C49.2,48.2,49.2,48.3,49.3,48.4z"/>
		<path fill="#998665" d="M50.5,53.8c0.1-0.2,0.2-0.4,0.3-0.6c0.2,0,0.3,0.1,0.3,0.4c-0.1,0.7-0.1,1.5-0.2,2.2c0,0.1,0,0.2,0,0.3
			c-0.3,0.1-0.4,0-0.4-0.2c-0.1-0.5-0.3-1-0.5-1.4c-0.6-1.1-2.4-1.2-3.1,0.1c-0.4,0.8-0.6,1.6-0.6,2.4c-0.1,0.9,0,1.9,0.4,2.8
			c0.3,0.7,0.7,1.2,1.5,1.4c0.7,0.1,1.1-0.1,1.1-0.9c0-0.6,0-1.2,0-1.8c0-0.3-0.2-0.5-0.5-0.5c-0.2,0-0.4,0-0.7-0.1
			c0-0.1,0-0.2,0-0.4c1.3,0,2.6,0,3.9,0c0,0.1,0,0.2,0,0.3c0,0,0,0.1-0.1,0.1c-0.6,0.1-0.6,0.1-0.7,0.7c0,0.7,0,1.4,0,2
			c0,0.2,0,0.3-0.3,0.4c-1.1,0.3-2.2,0.6-3.3,0.5c-1.8-0.1-3.1-0.9-3.5-2.5c-0.1-0.5-0.2-1-0.2-1.6c0-2,0.9-3.5,2.5-4
			C47.8,53,49.2,53,50.5,53.8z"/>
		<path fill="#998665" d="M72.2,56.4c0-0.2,0-0.4,0.3-0.4c0.7,0,1.5-0.1,2.3-0.2c0,0.2,0,0.5,0.1,0.8c0.1-0.1,0.2-0.2,0.3-0.2
			c0.5-0.4,1-0.6,1.6-0.6c0.8,0,1.5,0.3,1.8,1.1c0.5,1.2,0.5,2.3-0.1,3.4c-0.6,1-1.5,1.3-2.6,1.2c-0.3,0-0.7-0.1-1-0.2
			c0,0.7,0,1.4,0,2c0,0.3,0.1,0.4,0.4,0.4c0.2,0,0.4,0,0.6,0.1c0,0.1,0,0.2-0.1,0.4c-1.3,0-2.5,0-3.8,0c-0.1-0.3,0.1-0.4,0.3-0.4
			c0.5,0,0.6-0.1,0.6-0.6c0-2,0-4,0.1-6C72.9,56.5,72.9,56.5,72.2,56.4z M74.8,58.9C74.8,58.9,74.8,58.9,74.8,58.9
			c0,0.4,0,0.8,0,1.2c0,0,0,0,0,0.1c0,0.5,0.3,0.9,0.8,1c0.4,0.1,0.8-0.1,1-0.6c0.1-0.3,0.2-0.6,0.3-0.9c0.1-0.8,0.1-1.6-0.2-2.4
			c-0.3-0.6-1-0.7-1.5-0.3c-0.2,0.2-0.4,0.5-0.4,0.8C74.8,58.1,74.8,58.5,74.8,58.9z"/>
		<path fill="#998665" d="M66.6,32.4c0-0.1,0-0.2,0-0.4c0.9-0.1,1.7-0.1,2.5-0.2c0,1.8,0,3.6,0,5.4c0.8-0.4,1.3-1.1,1.9-1.9
			c-0.3,0-0.5-0.1-0.7-0.1c0-0.1,0-0.2,0-0.4c0.9,0,1.7,0,2.6,0c0,0.1,0,0.2,0,0.3c-1.1-0.1-1.6,0.7-2.3,1.4c0.2,0.3,0.4,0.7,0.6,1
			c0.3,0.5,0.7,1.1,1,1.6c0.3,0.5,0.6,0.8,1.2,0.7c0,0.1,0,0.2,0,0.4c-0.4,0-0.7,0-1.1,0c-0.4,0-0.8,0-1.2,0.1c-0.2,0-0.3,0-0.4-0.2
			c-0.4-0.8-0.8-1.5-1.2-2.3c-0.1-0.1-0.2-0.2-0.3-0.4c0,0.8,0,1.4,0,2.1c0,0.1,0.2,0.2,0.3,0.3c0.1,0.1,0.2,0,0.4,0.1
			c0,0.1,0,0.2,0,0.3c-1.1,0-2.2,0-3.3,0c0-0.1,0-0.2,0-0.3c0,0,0,0,0.1,0c0.6-0.1,0.6-0.1,0.6-0.7c0-1.7,0-3.4,0-5.1
			c0-0.4,0-0.7,0-1.1C67.2,32.3,67.2,32.4,66.6,32.4z"/>
		<path fill="#998665" d="M64.7,56.3c0.1-0.2,0.2-0.3,0.3-0.3c0.8-0.1,1.6-0.1,2.3-0.1c0,1.2,0,2.4,0,3.6c0,0.3,0,0.5,0.1,0.8
			c0,0.4,0.3,0.6,0.7,0.5c0.5-0.1,1-0.6,1-1.2c0-0.9,0-1.9,0-2.9c0-0.3-0.2-0.3-0.4-0.3c-0.3,0-0.3,0-0.3-0.4c0.9,0,1.7-0.1,2.6-0.1
			c0,0.2,0,0.3,0,0.4c0,1.3,0,2.6,0,3.8c0,0.8,0,0.8,0.8,0.9c0,0.1,0,0.2,0,0.3c-0.9,0.1-1.7,0.1-2.6,0.2c0-0.3-0.1-0.6-0.1-1
			c-0.2,0.1-0.3,0.3-0.5,0.4c-0.6,0.5-1.3,0.7-2.1,0.5c-0.7-0.1-1.1-0.5-1.1-1.3c0-1,0-1.9,0-2.9c0-0.1,0-0.2,0-0.3
			C65.5,56.4,65.5,56.4,64.7,56.3z"/>
		<path fill="#998665" d="M60.7,38.9C60.8,39,60.9,39,61,39c0,0.7-0.5,1.2-1.2,1.4c-0.9,0.2-1.4-0.1-1.7-0.8
			c-0.2,0.1-0.3,0.3-0.5,0.4c-0.4,0.2-0.8,0.4-1.2,0.5c-1.2,0.2-2-0.9-1.7-2c0.1-0.4,0.4-0.6,0.8-0.8c0.7-0.3,1.5-0.5,2.2-0.8
			c0.4-0.2,0.5-0.5,0.3-1.1c-0.1-0.4-0.3-0.6-0.7-0.6c-0.4,0-0.7,0.3-0.7,0.7c0,0.1,0,0.3,0,0.4c0,0.2,0,0.4-0.2,0.5
			c-0.4,0.2-0.7,0.2-1.1,0c-0.2-0.1-0.4-0.4-0.2-0.6c0.1-0.3,0.3-0.6,0.5-0.8c1.1-0.7,2.3-0.8,3.5-0.3c0.5,0.2,0.8,0.7,0.8,1.3
			c0,1,0,1.9,0,2.9c0,0.2,0.1,0.4,0.2,0.6c0.1-0.1,0.3-0.3,0.4-0.5C60.7,39.2,60.7,39,60.7,38.9z M58.1,37.1
			c-0.4,0.2-0.7,0.4-1.1,0.6c-0.5,0.3-0.5,1.3-0.1,1.7c0.2,0.2,0.7,0.2,0.9,0c0.1-0.2,0.3-0.4,0.3-0.6
			C58.1,38.3,58.1,37.7,58.1,37.1z"/>
		<path fill="#998665" d="M60.7,49.9c0.1,0.1,0.2,0.1,0.3,0.2c-0.1,0.8-0.6,1.3-1.3,1.4c-0.8,0.1-1.3-0.1-1.6-0.8
			c-0.1,0.1-0.2,0.2-0.3,0.3c-0.6,0.5-1.3,0.7-2.1,0.5c-0.6-0.2-1-0.7-1-1.5c0-0.6,0.3-1,0.9-1.2c0.7-0.3,1.5-0.6,2.2-0.8
			c0.2-0.1,0.3-0.2,0.3-0.5c0-0.2,0-0.5-0.1-0.7c-0.1-0.4-0.4-0.6-0.8-0.5c-0.4,0-0.6,0.3-0.7,0.7c0,0.2,0,0.3,0,0.5
			c0,0.3-0.1,0.4-0.3,0.5c-0.2,0-0.4,0.1-0.6,0.1c-0.6,0-0.9-0.5-0.6-1c0.1-0.3,0.4-0.5,0.6-0.7c1-0.6,2.1-0.7,3.2-0.3
			c0.7,0.3,1,0.7,1,1.4c0,0.9,0,1.9,0,2.8c0,0.2,0.1,0.5,0.2,0.5c0.3,0.1,0.3-0.2,0.4-0.4C60.7,50.2,60.7,50.1,60.7,49.9z
			 M58.2,48.1c-0.3,0.2-0.6,0.3-0.9,0.4c-0.6,0.3-0.8,1.1-0.5,1.7c0.2,0.4,0.8,0.5,1.1,0.1c0.1-0.2,0.2-0.4,0.2-0.5
			C58.2,49.2,58.2,48.7,58.2,48.1z"/>
		<path fill="#998665" d="M61.1,55.8c1.4,0,2.5,0.7,2.9,1.8c0.8,2.2-0.7,4.1-3,4c-0.3,0-0.7,0-1-0.1c-1.3-0.3-2.1-1.5-2-2.9
			C58.1,56.8,59.3,55.8,61.1,55.8z M62.2,58.9C62.2,58.8,62.2,58.8,62.2,58.9c-0.1-0.3,0-0.6-0.1-0.9c-0.1-0.5-0.2-1-0.4-1.4
			c-0.3-0.5-1-0.5-1.3,0c-0.1,0.2-0.2,0.4-0.2,0.6c-0.1,0.7-0.1,1.4-0.1,2c0,0.4,0.1,0.9,0.3,1.3c0.1,0.4,0.5,0.6,0.8,0.6
			c0.4,0,0.6-0.2,0.7-0.6C62.1,59.9,62.1,59.4,62.2,58.9z"/>
		<path fill="#998665" d="M82.9,46.3c0-0.2,0-0.3,0-0.4c1.1,0,2.2,0,3.3,0c0,0.1,0,0.2,0.1,0.3c0,0-0.1,0.1-0.1,0.1
			c-0.5,0.1-0.5,0.1-0.3,0.6c0.3,0.8,0.6,1.6,0.9,2.4c0,0.1,0.1,0.1,0.1,0.3c0.3-0.9,0.6-1.8,0.8-2.7c0.1-0.3,0-0.5-0.3-0.5
			c-0.1,0-0.3-0.1-0.5-0.1c0-0.1,0-0.2,0-0.4c0.8,0,1.5,0,2.3,0c0,0.1,0,0.2,0,0.4c-0.7,0-0.8,0.5-1,1c-0.6,1.7-1.3,3.4-1.9,5.1
			c-0.2,0.5-0.4,0.9-0.7,1.4c-0.3,0.5-0.7,0.7-1.3,0.6c-0.6-0.1-0.9-0.8-0.6-1.3c0.3-0.4,0.8-0.5,1.1,0c0.2,0.4,0.5,0.4,0.7,0
			c0.2-0.4,0.3-0.8,0.5-1.2c0-0.1,0-0.1,0-0.2c-0.4-0.8-0.7-1.5-1.1-2.3c-0.3-0.8-0.7-1.5-1-2.3C83.7,46.6,83.5,46.2,82.9,46.3z"/>
		<path fill="#998665" d="M75.5,37.7c-0.1,1,0.3,1.8,0.9,2c0.8,0.3,1.3,0,2-1.1c0.4,0.2,0.4,0.2,0.2,0.5c-0.5,1-1.4,1.4-2.5,1.4
			c-0.3,0-0.6,0-0.8-0.1c-1-0.2-1.6-0.8-1.8-1.7c-0.1-0.5-0.1-1.1,0-1.7c0.3-1.6,1.7-2.5,3.3-2.2c1.2,0.2,1.9,0.9,1.9,2.1
			c0,0.5-0.1,0.7-0.6,0.7c-0.7,0.1-1.5,0.1-2.2,0.1C75.9,37.7,75.7,37.7,75.5,37.7z M75.5,37.2c0.4,0,0.9,0,1.3,0
			c0.1,0,0.3-0.2,0.3-0.4c0-0.4-0.1-0.8-0.2-1.3c-0.1-0.2-0.2-0.4-0.5-0.5c-0.3,0-0.5,0.2-0.6,0.4C75.6,36.1,75.5,36.6,75.5,37.2z"
			/>
		<path fill="#998665" d="M73.5,48.7c0,1.1,0.4,1.8,1,2c0.8,0.2,1.4-0.1,1.9-1.1c0.4,0.1,0.4,0.1,0.2,0.5c-0.5,1-1.4,1.4-2.5,1.4
			c-0.3,0-0.6,0-0.9-0.1c-0.9-0.2-1.5-0.8-1.7-1.7c-0.2-0.6-0.2-1.3,0-1.9c0.4-1.5,1.7-2.3,3.3-2c1.2,0.2,1.9,1,1.9,2.1
			c0,0.5-0.1,0.6-0.6,0.7c-0.8,0.1-1.5,0.1-2.3,0.1C73.8,48.7,73.6,48.7,73.5,48.7z M73.4,48.2c0.5,0,0.9,0,1.3,0
			c0.3,0,0.4-0.2,0.4-0.4c0-0.4-0.1-0.8-0.1-1.1c-0.1-0.3-0.2-0.5-0.5-0.5c-0.3,0-0.5,0.2-0.6,0.5C73.6,47.1,73.5,47.7,73.4,48.2z"
			/>
		<path fill="#998665" d="M83.5,38.8c0.2,0.3,0.3,0.5,0.1,0.8c-0.6,0.8-2.1,1.1-2.9,0.6c-0.3-0.2-0.5-0.6-0.5-1c0-1.1,0-2.3,0-3.4
			c0-0.1,0-0.2,0-0.4c-0.3,0-0.5-0.1-0.7-0.1c0-0.1,0-0.3,0.1-0.4c0.2,0,0.4,0,0.7,0c0-0.4,0-0.8,0-1.1c0-0.2,0.1-0.3,0.3-0.4
			c0.5-0.2,1-0.4,1.6-0.5c0,0.7,0,1.3,0,2c0.5,0,0.9,0,1.4,0c0,0.2,0,0.3,0,0.4c-0.4,0-0.8,0.1-1.2,0.1c-0.2,0-0.3,0.1-0.3,0.3
			c0,1.2,0,2.4,0,3.7c0,0.2,0.1,0.4,0.2,0.5c0.2,0,0.5,0,0.6-0.2C83.2,39.4,83.3,39.1,83.5,38.8z"/>
		<path fill="#998665" d="M67.3,46.4c-0.3,0-0.5-0.1-0.7-0.1c0-0.1,0-0.3,0.1-0.4c0.2,0,0.4,0,0.7,0c0-0.4,0-0.8,0-1.1
			c0-0.2,0.1-0.3,0.3-0.4c0.5-0.1,0.9-0.3,1.4-0.5c0,0,0.1,0,0.2,0c0,0.7,0,1.3,0,2c0.5,0,0.9,0,1.4,0c0,0.2,0,0.3,0,0.4
			c-0.4,0-0.8,0.1-1.2,0.1c-0.2,0-0.3,0-0.3,0.2c0,1.2,0,2.5,0,3.7c0,0.2,0.1,0.4,0.2,0.5c0.2,0,0.5,0,0.6-0.2
			c0.2-0.2,0.3-0.5,0.5-0.8c0.3,0.2,0.3,0.5,0.1,0.7c-0.5,0.7-1.2,0.9-2,0.9c-0.1,0-0.3,0-0.4,0c-0.7-0.1-1-0.5-1-1.2
			c0-1.1,0-2.3,0-3.4C67.3,46.7,67.3,46.6,67.3,46.4z"/>
		<path fill="#998665" d="M61.6,49.2c0.2,0,0.3,0,0.4,0c0,0,0,0.1,0,0.1c0.1,0.3,0.2,0.7,0.4,1c0.3,0.6,1.1,0.8,1.7,0.7
			c0.3-0.1,0.5-0.3,0.6-0.6c0-0.3-0.2-0.5-0.4-0.7c-0.5-0.2-0.9-0.4-1.4-0.6c-0.9-0.4-1.2-0.9-1.1-1.7c0-0.8,0.5-1.3,1.3-1.6
			c0.7-0.2,1.5-0.2,2.2,0.2c0.1-0.1,0.1-0.2,0.2-0.4c0.1,0,0.2,0,0.3,0.1c0,0.7-0.1,1.3-0.1,2c-0.1,0-0.2,0.1-0.3,0.1
			c-0.2-0.3-0.3-0.7-0.5-1c-0.3-0.5-0.9-0.7-1.4-0.6c-0.3,0.1-0.5,0.2-0.5,0.6c0,0.3,0.1,0.5,0.4,0.7c0.4,0.2,0.8,0.3,1.2,0.5
			c0.2,0.1,0.4,0.1,0.6,0.2c0.5,0.2,0.9,0.6,1,1.2c0.1,0.7-0.1,1.3-0.7,1.7c-0.8,0.5-1.7,0.5-2.5,0.4c-0.3,0-0.7-0.1-1-0.2
			c-0.1,0-0.2-0.1-0.2-0.2C61.6,50.4,61.6,49.8,61.6,49.2z"/>
		<path fill="#998665" d="M65,40c0,0.2,0.1,0.4-0.2,0.4c-1.2,0-2.3,0-3.5,0c0-0.3,0-0.4,0.3-0.4c0.3,0,0.5-0.2,0.4-0.5
			c0-1.1,0-2.2,0-3.4c0-0.6,0-0.6-0.7-0.7c0,0,0-0.1,0-0.1c0-0.1,0-0.1,0-0.2c0.8-0.1,1.6-0.2,2.4-0.2c0,0.4,0.1,0.8,0.1,1.3
			c0.1-0.3,0.3-0.5,0.4-0.7c0.3-0.5,0.7-0.7,1.3-0.7c0.5,0,0.8,0.4,0.8,0.9c0,0.5-0.3,1-0.8,1c-0.3,0-0.5-0.1-0.6-0.3
			c-0.2-0.4-0.5-0.4-0.7,0c-0.1,0.3-0.3,0.6-0.3,0.9c0,0.7,0,1.4,0,2.1c0,0.4,0.1,0.5,0.5,0.6C64.6,39.9,64.8,39.9,65,40z"/>
		<path fill="#998665" d="M77.5,46.3c0-0.1,0-0.2,0-0.3c0.8-0.1,1.6-0.2,2.4-0.2c0,0.4,0.1,0.8,0.1,1.3c0.1-0.3,0.2-0.5,0.4-0.6
			c0.3-0.5,0.7-0.7,1.2-0.7c0.5,0,0.8,0.3,0.9,0.8c0,0.5-0.3,1-0.7,1.1c-0.3,0-0.5-0.1-0.6-0.3c-0.2-0.4-0.6-0.4-0.8,0
			c-0.1,0.3-0.2,0.6-0.3,0.9c0,0.7,0,1.4,0,2.1c0,0.4,0.1,0.5,0.5,0.6c0.2,0,0.4,0,0.6,0.1c0,0.2,0.1,0.4-0.2,0.4
			c-1.1,0-2.3,0-3.4,0c0,0-0.1,0-0.1,0c0-0.3,0.1-0.4,0.3-0.4c0.3,0,0.4-0.2,0.4-0.5c0-1.1,0-2.3,0-3.4
			C78.2,46.4,78.2,46.4,77.5,46.3z"/>
		<path fill="#998665" d="M56.1,61c0,0.2,0,0.4-0.2,0.4c-1.1,0-2.3,0-3.4,0c0,0-0.1,0-0.1,0c0-0.3,0-0.4,0.3-0.4
			c0.3,0,0.4-0.2,0.4-0.5c0-1.1,0-2.3,0-3.4c0-0.6,0-0.6-0.7-0.7c0-0.1,0-0.2,0-0.3c0.8-0.1,1.6-0.2,2.4-0.2c0,0.4,0.1,0.8,0.1,1.3
			c0.2-0.3,0.3-0.5,0.4-0.7c0.3-0.4,0.7-0.6,1.2-0.6c0.5,0,0.8,0.3,0.9,0.8c0,0.5-0.3,1-0.7,1.1c-0.3,0-0.5-0.1-0.6-0.3
			c-0.2-0.4-0.6-0.4-0.8,0c-0.1,0.3-0.2,0.6-0.2,0.9c0,0.7,0,1.4,0,2.1c0,0.4,0.1,0.5,0.5,0.6C55.7,61,55.9,61,56.1,61z"/>
	</g>
	<text transform="matrix(1 0 0 1 79.4365 56.458)" fill="#998665" font-family="'AvenirNext-Medium'" font-size="2.0919px">TM</text>
</g>
</svg>
