<?xml version="1.0" encoding="utf-8"?>
<!-- Generator: Adobe Illustrator 24.3.0, SVG Export Plug-In . SVG Version: 6.00 Build 0)  -->
<svg version="1.2" baseProfile="tiny-ps" id="Laag_1" xmlns="http://www.w3.org/2000/svg" xmlns:xlink="http://www.w3.org/1999/xlink"
	 viewBox="0 0 300 300" xml:space="preserve">
<title>Douane</title>
<rect y="0" fill="#76D2B6" width="300" height="300"/>
<g>
	<g>
		<g>
			<g>
				<g>
					<g>
						<g>
							<g>
								<g>
									<g>
										<g>
											<g>
												<rect x="100" y="0" fill="#154273" width="100.2" height="200.4"/>
												<path fill="#FFFFFF" d="M151.8,154.9h-1.7v-4.8h1.7V154.9z M159.7,133.6H158v-4.8h1.7V133.6z M127.4,125.3
													c-0.1,0-1,0-1,0.2s0.4,0.1,1,0.2c1.4,0.2,1.9,0.9,2.9,0.9c0.9,0,1.8-0.6,1.4-1.9c-0.1-0.2-0.2-0.2-0.2,0
													c-0.1,0.6-0.8,0.9-1.6,0.9C129.1,125.6,128.9,125.3,127.4,125.3z M117.8,130.1c0.2,0.2,1.8,2.3-0.7,3.2
													c-0.1,0-0.2,0.1,0,0.2c1.9,0.8,2.8-0.7,2.8-0.7c0.9,2.1-0.5,3.3-0.5,3.3c0.2,0.4,1.1,1,2.4,1.3c0.5-0.3,1.2-0.8,1.5-1.6
													c0,0,0.4,0.9,0,1.8c3.8,0.3,5.2-2.7,8.1-2.2c0.1,0,0.1,0,0.1-0.1c0-1.9-1.1-5.3-4.8-6c-3.6-0.7-2.6-2.2-2.6-2.2
													c1.5-0.1,2.4,0.6,2.4,0.6c0.3-0.5-0.1-1-0.1-1c0.1-0.2,0.2-0.8,0.2-0.8c-1.7,0-2.2-0.4-2.2-0.4c-0.3-1,0.4-2.5,3-0.9
													c0.6-0.6,0.6-1.4,0.6-1.4c0.2-0.1,0.3-0.4,0.3-0.5c0-0.4-2-1.6-2.6-1.7c-0.1-0.6-0.9-1.5-3.3-1.2
													c-1.1,0.1-2-0.2-1.6-0.8c0.1-0.1-0.1-0.1-0.2,0c-0.3,0.3-0.6,1,0.4,1.5c1.1,0.6,1.2,1.7,1.2,1.8c0,0.2-0.3,0.3-0.3,0
													c-0.5-1.9-3.1-2.3-4.6-1.3c0.1,1,1.2,1.7,1.7,1.7c0.3,0,0.8-0.3,0.8-0.8c0-0.2,0.1-0.2,0.2,0c0.2,0.7-0.7,2-2.2,1.2
													c-1.5,1.5-0.9,3.3-0.7,4c0.3,1.2-0.3,2.4-1.4,1.8c-0.1,0-0.1,0-0.1,0.1C115.7,129.9,116.7,130.7,117.8,130.1z
													 M126,122.6c-0.7,0.8-1.8,0.6-2.1-0.7C125.3,121.8,125.9,122,126,122.6z M170.2,125.6c-0.7,0-1.4-0.3-1.6-0.9
													c0-0.1-0.2-0.2-0.2,0c-0.4,1.3,0.6,1.9,1.4,1.9c1,0,1.5-0.7,2.9-0.9c0.6-0.1,1,0,1-0.2s-0.9-0.2-1-0.2
													C171.3,125.3,171.1,125.6,170.2,125.6z M184.5,129.1c0-0.1-0.1-0.1-0.1-0.1c-1.1,0.5-1.7-0.6-1.4-1.8
													c0.1-0.7,0.7-2.5-0.7-4c-1.5,0.8-2.4-0.5-2.2-1.2c0.1-0.2,0.2-0.2,0.2,0c0,0.5,0.5,0.8,0.8,0.8c0.6,0,1.7-0.7,1.8-1.7
													c-1.5-1-4.1-0.6-4.6,1.3c-0.1,0.2-0.3,0.2-0.3,0s0.1-1.3,1.2-1.8c1-0.5,0.6-1.2,0.4-1.5c-0.1-0.1-0.3-0.1-0.2,0
													c0.4,0.7-0.4,1-1.6,0.8c-2.4-0.3-3.2,0.6-3.3,1.2c-0.5,0.1-2.6,1.3-2.6,1.7c0,0.1,0.1,0.4,0.3,0.5c0,0,0,0.9,0.6,1.4
													c2.6-1.5,3.3-0.1,3,0.9c0,0-0.5,0.4-2.2,0.4c0,0,0.1,0.6,0.2,0.8c0,0-0.4,0.5-0.1,1c0,0,0.9-0.7,2.4-0.6
													c0,0,1,1.5-2.6,2.2s-4.8,4.1-4.8,6c0,0.1,0,0.1,0.1,0.1c2.9-0.5,4.3,2.5,8.1,2.2c-0.3-0.9,0-1.8,0-1.8
													c0.3,0.8,1,1.3,1.5,1.6c1.4-0.3,2.2-0.9,2.4-1.3c0,0-1.4-1.2-0.5-3.3c0,0,0.9,1.4,2.8,0.7c0.2-0.1,0.1-0.2,0-0.2
													c-2.5-0.8-0.9-2.9-0.7-3.2C183.5,130.7,184.5,129.9,184.5,129.1z M176.3,121.9c-0.3,1.3-1.4,1.5-2.1,0.7
													C174.2,122,174.8,121.8,176.3,121.9z M149.4,100.5c0,0.3,0.1,0.6,0.2,0.8c0.2,0.3,0.2,0.5,0.1,0.6
													c-0.1,0.1-0.3,0.1-0.6-0.1c-0.2-0.1-0.4-0.2-0.8-0.2c-0.5,0-0.8,0.4-0.8,0.7c0,0.3,0.3,0.7,0.8,0.7
													c0.3,0,0.6-0.1,0.8-0.2c0.3-0.2,0.5-0.2,0.6-0.1s0,1.2-0.2,2.1c-0.9,0.2-1.3,0.9-1.3,1.3c0,1.1,1.2,1.7,1.9,2.1
													c0.7-0.4,1.9-1,1.9-2.1c0-0.4-0.4-1.2-1.3-1.3c-0.1-0.9-0.3-2-0.2-2.1s0.3-0.1,0.6,0.1c0.2,0.1,0.4,0.2,0.8,0.2
													c0.5,0,0.8-0.4,0.8-0.7c0-0.3-0.3-0.7-0.8-0.7c-0.3,0-0.6,0.1-0.8,0.2c-0.3,0.2-0.5,0.2-0.6,0.1s-0.1-0.3,0.1-0.6
													c0.1-0.2,0.2-0.4,0.2-0.8c0-0.5-0.4-0.8-0.7-0.8C149.8,99.7,149.4,100,149.4,100.5z M150.1,108.7
													c-0.7,0-1.3,0.6-1.3,1.3c0,0.7,0.6,1.3,1.3,1.3s1.3-0.6,1.3-1.3C151.4,109.3,150.8,108.7,150.1,108.7z M150.1,121.5
													c5.3,0,8.4,1,8.4,1c0-2.7,0-4.2,1.6-4c-0.8-2.3,2.8-3.2,2.8-6.1c0-1.9-1.4-2.2-1.8-2.2c-1.2,0-1,0.8-2,0.8
													c-0.1,0-0.3,0-0.3,0.1c0,0.3,0.3,0.9,0.8,0.9c0.6,0,0.6-0.6,1.1-0.6c0.2,0,0.5,0.2,0.5,0.8c0,1.3-0.8,2.7-1.8,3.7
													c-0.2-0.3-0.5-0.5-0.9-0.5c-0.6,0-1.1,0.6-1.1,1.3c0,0.3,0,0.5,0.1,0.7c-0.3,0.2-0.6,0.3-0.8,0.3
													c-0.4,0-1.1-0.2-1.1-1.1c0-2.1,2.9-4,2.9-6.7c0-1.3-0.9-2.6-2.7-2.6c-1.9,0-1.6,1.8-3.3,1.8c-0.1,0-0.1,0-0.1,0.1
													s0.3,1.1,1.2,1.1s1.2-1.6,2-1.6c0.3,0,0.8,0.2,0.8,1.3c0,0.8-0.4,2.2-1,3.5c-0.2-0.2-0.5-0.4-0.8-0.4
													c-0.7,0-1.2,0.7-1.2,1.5c0,0.5,0.2,1,0.6,1.4c-0.4,0.5-0.9,1-1.4,1c-1.2,0-1.7-0.7-1.7-1.4c0-0.8,1.4-1.1,1.4-2.3
													c0-0.8-0.5-1.3-1.1-1.3s-0.8,0.4-0.9,0.4c-0.1,0-0.3-0.4-0.9-0.4c-0.5,0-1.1,0.5-1.1,1.3c0,1.2,1.4,1.5,1.4,2.3
													c0,0.7-0.5,1.4-1.7,1.4c-0.6,0-1-0.4-1.4-1c0.4-0.3,0.6-0.8,0.6-1.4c0-0.8-0.5-1.5-1.2-1.5c-0.3,0-0.6,0.2-0.8,0.4
													c-0.6-1.3-1-2.7-1-3.5c0-1.1,0.5-1.3,0.8-1.3c0.8,0,1.1,1.6,2,1.6s1.2-1,1.2-1.1s-0.1-0.1-0.1-0.1
													c-1.7,0-1.3-1.8-3.3-1.8c-1.8,0-2.7,1.3-2.7,2.6c0,2.7,2.9,4.6,2.9,6.7c0,1-0.7,1.1-1.1,1.1c-0.2,0-0.5-0.1-0.8-0.3
													c0.1-0.2,0.1-0.4,0.1-0.7c0-0.7-0.5-1.3-1.1-1.3c-0.4,0-0.7,0.2-0.9,0.5c-1-1.1-1.8-2.5-1.8-3.7c0-0.6,0.3-0.8,0.5-0.8
													c0.5,0,0.5,0.6,1.1,0.6c0.5,0,0.8-0.6,0.8-0.9c0-0.1-0.1-0.1-0.3-0.1c-1,0-0.8-0.8-2-0.8c-0.4,0-1.8,0.2-1.8,2.2
													c0,3,3.6,3.8,2.8,6.1c1.5-0.2,1.5,1.3,1.6,4C141.7,122.5,144.7,121.5,150.1,121.5z M140.3,125.5c-1.5,0.3-2.5,0.6-3,0.8
													c0-0.6,0.3-1.2,0.8-1.4c0.1,0,0.1-0.1,0-0.2c-1.3-0.9-2,0.8-2,0.8c-0.5,0-1.2,0.1-1.2,0.7c0,1.9-4.2,2.9-5.2,3
													c1.7,0.7,2.5,2.9,2.5,2.9c1.3-1.3,2.7-2.4,3.1-2.4c0.3,0,0.5,0.4,0.5,0.7c0,0.1,0.1,0.1,0.1,0c0.7-1,0.3-1.2,0.3-1.5
													c0-0.2,0-1.1,1-1v12.4l-0.5,0.1c-0.2,0-2-1.5-4.1-2.9s-3.2-0.6-5.6,0.7c-3.1,1.7-6.2,0.2-6.2,0.2
													c-2.7,1.9-3.6,7.4-3.6,7.4c-0.5,0.2-1.4,0.5-2.2,0.5c-2,0-2.4-1.2-2.4-2c0-3.1,3.9-4.5,3.9-7.6c0-0.8-0.3-3.8-4.1-3.8
													c-0.5,0-3.4,0-3.4,0c-1.4,0-1.8-1-2-1.4c-0.1-0.2-0.2-0.1-0.2,0.1c0.1,0.3-0.2,0.7-0.2,1.4c0,1.3,0.7,2,2.1,2
													c0.6,0,1.2-0.2,1.4-0.3c0.1-0.1,0.2,0,0.1,0.1c-0.6,0.7-0.6,2-0.4,2.3c0.1,0.1,0.1,0.1,0.1,0c0.3-1.3,1.6-2.6,3.3-2.6
													c2.1,0,2,1.7,2,2.2c0,2.5-4.4,4.4-4.4,7.8c0,3.5,3.7,4.3,5.9,3.7c-0.1,3.5-4.2,4.7-4.3,2.2c0-0.1-0.1-0.1-0.2,0
													c-0.5,1.2-0.3,2.3,1.3,2.7c0.1,0,0.1,0.1,0,0.2c-1.6,1-0.7,4.9-0.6,6c0.1,1.6-1.5,1.4-1.7,1.4c-0.1,0-0.1,0,0,0.1
													c1.2,1.4,2.6,0.1,2.6,0.1c1.1,0.3,0.4,1.3-0.3,1.7c-0.1,0.1-0.1,0.2,0,0.2c0.2,0,1.8,0.2,2.1-1.2
													c0.7,0.9,1.8,0.6,2.1,0.4c0.3-0.2,1.9-0.7,2,1c0,0.1,0.1,0,0.1,0c1.2-1.5-0.1-2.4-0.8-2.5c0.1-0.1,1-0.9,1.9,0.2
													c0.1,0.1,0.1,0.1,0.1-0.1c0.1-1.9-1.4-2.1-2.4-1.2c0-0.2-0.4-1.3,1.1-1.2c0,0,0.1-0.1,0-0.1c-1.2-1.2-2.1-0.1-2.4,0.2
													c-0.5,0.6-1.8,0.4-1.9,0.4c0.4-6.6,6.2-4.2,7-7.4c0-0.2,0.1-0.1,0.1,0c0.2,0.8,2.2,0.9,2.5-0.6c0-0.1,0-0.2-0.1-0.1
													c-1.7,1.7-5.5-3.6-0.3-7.8c4.4-3.6,8.3-1.6,9.8-0.4c0.1,0.5-0.2,0.7-0.4,0.8c-0.1,0-0.1,0.1,0,0.1
													c0.4,0.2,1,0.1,1.3-0.3c0.9,0.7,0.1,1.5-0.2,1.7c-0.1,0.1-0.1,0.1,0,0.1c0.9,0.2,1.6-0.7,1.6-1.2l0.1,0.1v3.7
													c0,5.3,6.1,6.1,12.9,10.6c6.7-4.5,12.9-5.3,12.9-10.6v-3.7l0.1-0.1c0,0.5,0.7,1.4,1.6,1.2c0.1,0,0.1-0.1,0-0.1
													c-0.4-0.2-1.2-1.1-0.2-1.7c0.3,0.4,0.9,0.4,1.3,0.3c0.1,0,0.1-0.1,0-0.1c-0.2-0.1-0.5-0.2-0.4-0.8
													c1.5-1.2,5.4-3.2,9.8,0.4c5.2,4.3,1.4,9.5-0.3,7.8c-0.1-0.1-0.1,0-0.1,0.1c0.4,1.5,2.3,1.4,2.5,0.6c0-0.1,0.1-0.1,0.1,0
													c0.8,3.2,6.6,0.9,7,7.4c-0.1,0-1.4,0.3-1.9-0.4c-0.2-0.3-1.2-1.4-2.4-0.2c-0.1,0.1,0,0.1,0,0.1c1.5,0,1.2,1,1.1,1.2
													c-1-0.8-2.5-0.7-2.4,1.2c0,0.1,0.1,0.1,0.1,0.1c0.9-1.1,1.8-0.3,1.9-0.2c-0.7,0.1-2,1-0.8,2.5c0.1,0.1,0.1,0.1,0.1,0
													c0.2-1.8,1.7-1.2,2-1c0.2,0.1,1.3,0.4,2.1-0.4c0.3,1.3,2,1.2,2.1,1.2s0.1-0.1,0-0.2c-0.7-0.5-1.4-1.4-0.3-1.7
													c0,0,1.4,1.3,2.6-0.1c0.1-0.1,0-0.2,0-0.1c-0.1,0-1.8,0.2-1.7-1.4c0.1-1.1,0.9-5-0.6-6c-0.1-0.1-0.2-0.1,0-0.2
													c1.6-0.3,1.8-1.4,1.3-2.7c-0.1-0.2-0.2-0.1-0.2,0c-0.1,2.5-4.2,1.3-4.3-2.2c2.2,0.6,5.9-0.2,5.9-3.7s-4.4-5.3-4.4-7.8
													c0-0.4,0-2.2,2-2.2c1.7,0,2.9,1.3,3.3,2.6c0,0.1,0.1,0.1,0.1,0c0.2-0.3,0.2-1.6-0.4-2.3c-0.1-0.1,0-0.2,0.1-0.1
													c0.2,0.1,0.8,0.3,1.4,0.3c1.4,0,2.1-0.8,2.1-2c0-0.8-0.3-1.2-0.2-1.4c0.1-0.1-0.1-0.2-0.2-0.1c-0.2,0.4-0.6,1.4-2,1.4
													c0,0-2.9,0-3.4,0c-3.8,0-4.1,3.1-4.1,3.8c0,3.1,3.9,4.4,3.9,7.6c0,0.7-0.4,2-2.4,2c-0.8,0-1.7-0.2-2.2-0.5
													c0,0-0.9-5.5-3.6-7.4c0,0-3.1,1.5-6.2-0.2c-2.4-1.3-3.5-2.1-5.6-0.7c-2.1,1.4-3.9,3-4.1,2.9l-0.5-0.1V128
													c1-0.1,1,0.8,1,1c-0.1,0.3-0.4,0.5,0.3,1.5c0.1,0.1,0.1,0,0.1,0c0-0.2,0.2-0.7,0.5-0.7s1.8,1.1,3.1,2.4
													c0,0,0.7-2.2,2.5-2.9c-1-0.2-5.2-1.2-5.2-3c0-0.6-0.7-0.8-1.2-0.7c0-0.1-0.7-1.7-2-0.8c-0.1,0-0.1,0.1,0,0.2
													c0.6,0.1,0.8,0.7,0.8,1.4c-1.2-0.4-6.5-1.9-12.8-1.9c-3,0-5.8,0.4-8.1,0.8v4.3h-1.7v-4.1H140.3 M128.8,169.5
													c-0.5-0.2-0.8-0.5-0.8-1.1v-2.7c-0.8-0.3-2.9-1.1-7-1.1c-3.5,0-4.5,0.8-4.6,1.1l-0.9,5.1c0,0,1.4-1.3,6.4-1
													c6,0.4,12.3,4,12.3,0.1v-2.2C129.5,167.7,128.8,169.2,128.8,169.5z M166,167.7v2.2c0,3.8,6.3,0.2,12.3-0.1
													c5-0.3,6.4,1,6.4,1l-0.9-5.1c0-0.3-1.1-1.1-4.6-1.1c-4.2,0-6.3,0.8-7,1.1v2.7c0,0.6-0.3,0.9-0.8,1.1
													C171.4,169.2,170.7,167.7,166,167.7z M150.1,165.4c9.7,0,19.6,0.5,20.9,2c0.1,0.1,0.1,0,0.1-0.1v-5.2
													c0-1.5-10.2-2.4-21.1-2.4c-10.9,0-21.1,0.9-21.1,2.4v5.2c0,0.1,0,0.2,0.1,0.1C130.5,165.9,140.3,165.4,150.1,165.4z
													 M141.4,141.1l-1-0.3l-0.1,0.1l-1.1-0.5c0,0,0.8,0,1,0c0.1,0,0.1-0.1,0.1-0.1c-0.5-0.5-0.9-0.9-0.9-0.9s0.5,0.2,1.1,0.4
													c0.1,0,0.1,0,0.1-0.1c-0.3-0.5-0.8-1.1-0.8-1.1s0.9,0.6,1.1,0.7c0.1,0,0.1,0,0.1-0.1c-0.2-0.6-0.5-1.3-0.5-1.3l1,1h0.1
													c-0.1-0.5-0.3-1.3-0.3-1.3l0.7,1.1c0,0.1,0.1,0,0.1,0c0-0.2,0-1.2,0-1.2s0.3,0.7,0.5,1.1c0,0.1,0.1,0.1,0.1,0
													s0.4-0.9,0.4-0.9v1.2h-0.2l-0.2,1.5c1.5-0.3,3.3-2.9,4.7-2.9c1.7,0,2.3,2,5.4,1c0.8,1.2,1.1,2.2,1.4,3.5
													c1.2,1.1,2.9,0.7,2.9-0.4c0-1.6-1.7-1.9-1.7-3.6c0-0.7,0.5-1.8,1.9-1.8c0.8,0,1.9,0.3,2.5,0.3c0.8,0,0.9-0.5,1-0.8
													c0.1-0.2,0.3-0.1,0.3,0c0,0.2,0.1,0.4,0.1,0.7c0,1.1-1.5,1.2-1.7,1.1c-0.1-0.1-0.1,0-0.1,0.1c0.2,0.2,0.2,0.8-0.1,1.2
													h-0.1c-0.2-0.8-1.1-1.7-1.8-1.7c-0.3,0-0.9,0.2-0.9,0.8c0,1,1.9,1.8,1.9,3.8s-2,2.5-4.1,2c0.1,1.9,3,3.1,3,1.7
													c0-0.1,0.1,0,0.1,0c0.4,0.6,0.2,1-0.3,1.3c0.5,0.2,0.6,1.2,0.7,1.9c0.2,0.9,1.2,0.4,1.2,0.4c0.1,0,0.1,0,0,0.1
													c-0.4,0.9-1.3,0.6-1.3,0.6c-0.5,0.4,0.1,0.7,0.6,0.8c0.1,0,0.1,0.1,0,0.1c-0.3,0.1-1.1,0.4-1.4-0.3
													c-0.3,0.6-0.8,0.6-1,0.6c-0.4,0-0.6,0.4-0.5,0.9c0,0,0,0.1-0.1,0c-0.9-0.6-0.4-1.3,0-1.5c-0.1,0-0.7-0.3-0.9,0.4
													c0,0.1-0.1,0.1-0.1,0c-0.4-1,0.5-1.3,1.1-1.1c0-0.1-0.4-0.7-1.2-0.5c0,0-0.1,0,0-0.1c0.1-0.3,0.5-0.8,1.3-0.3
													c0.4,0.2,1-0.1,1.1-0.1c-1.3-2.6-3.8-0.4-4.4-2.4c0,0-0.1-0.1-0.1,0c-0.1,0.4-1.2,0.5-1.4-0.4c0-0.1,0-0.1,0.1,0
													c0.2,0.2,0.5,0.3,1-0.3c0.3-0.4,0.3-1,0.3-1.4c0-1.6-1.6-4.2-4-4.2c-1.5,0-3.2,0.6-4.4,1.5l1.1,0.3
													c-0.1,1.2-1.2,1.8-2.2,1.6l0.2-1.3c-0.2,0.1-0.6,0.2-0.9,0.6h-0.1c-0.2-0.8,0.4-1.1,0.6-1.2l0,0c-0.6,0-0.9,0.4-1,0.5
													l0,0C141.2,141.8,141.1,141.4,141.4,141.1z M144.8,150.1c-0.4,0.5-0.8,0-1.4,0c-0.5,0-0.6,0.5-0.6,0.6l0,0
													c-0.6-0.8,0.1-1.3,0.5-1.4c-0.1-0.1-0.7-0.5-1,0.1h-0.1c0-1,0.8-1.1,1.4-0.7c0.1-0.4-0.2-0.7-0.6-0.7
													c-0.1,0-0.1,0,0-0.1c0.2-0.2,0.4-0.3,0.5-0.3c0.6,0,0.7,0.7,1,0.7c0.6,0,1.4-0.8,1.4-0.8s-0.6-1.5-0.5-2.4l0,0
													c-0.3,0.2-1,0.1-1-0.7c0-0.1,0-0.1,0.1,0c0.3,0.4,0.8-0.1,1-0.3c0.3-0.3,1.7-2.4,3.6-2.4c0.4,0,1,0.2,1.4,0.5
													c-0.7,0.8,0,1.6,0.5,1.5c0.1,0,0.1,0,0,0.1c-2.5,0.9-3.6,1.3-3.6,3.4c0,1.1,0.4,1.7,1,1.6c0,0,0.1,0,0,0
													c-0.2,0.3-0.5,0.4-0.7,0.4c-0.5,0-0.6-0.3-0.9-0.3c-0.3,0-1.2,0.6-1.2,1c0,0.2,0.1,0.4,0.4,0.6l0,0
													C145.7,150.7,145,150.8,144.8,150.1z M151.4,129.5c-0.8,0-1.3,0.1-1.3,0.4C150.6,130.3,151.1,130.3,151.4,129.5z
													 M148.5,131.5c0.6-0.1,1.2-0.1,1.2-0.1c0.1,0,0.1,0.2,0,0.2c-1.2,0.1-1.2,0.7-2,0.7c-0.5,0-1-0.5-0.8-1.2
													c0-0.1,0.1-0.1,0.1,0C147.2,131.4,147.6,131.7,148.5,131.5z M133.5,157.2c0.8,1,1.5,0.1,2.5,0.1c0.5,0,1.1,0.2,1.2,1.2
													c0,0.1,0,0.1,0.1,0c1.1-1.5-0.2-2.4-0.9-2.5c0.2-0.1,1.2-0.8,1.9,0.2c0,0.1,0.1,0,0.1,0c0-1.9-1.4-2-2.5-1.2
													c-0.2-0.7,0.4-1.2,1.1-1.2c0.1,0,0.1-0.1,0.1-0.1c-1.3-1.4-2.2,0.4-2.4,0.6c-0.5,0.7-2.3-0.6-3.1-1.4
													c0,0,1.6-1.7,1.6-3.2c0-0.1,0-0.2,0-0.3c0,0,0-0.1,0.1,0c0.2,0.1,0.4,0.2,0.6,0.2c0.4,0,1.1-0.1,1.1-1.4
													c0-0.1,0-0.1-0.1,0c-0.2,0.3-0.4,0.3-0.6,0.3c-1.3,0-4-4.3-7.2-4.3c-0.8,0-2.4,0.6-3.2,1.5c0.4,0.2,0.5,0.7,0.4,1
													c-0.1,0.5-0.5,0.8-0.9,0.9c-0.1,0-0.1,0.1,0,0.1c1.6,0.6,4.5,1.7,5.2,2.3c0.8,0.7,0.6,2,0.2,3.7
													c-0.4,1.7-1.4,1.5-1.7,1.4c-0.1,0-0.1,0,0,0.1c0.4,0.5,0.9,0.7,1.4,0.7c0.8,0,1.2-0.5,1.6-0.5c0.7,0,2.3,1,2.3,1.8
													c0,0.4-0.3,0.9-0.8,1.1v0.1C131.8,158.4,133.2,158.5,133.5,157.2z M168.8,158.3L168.8,158.3c-0.4-0.4-0.8-0.8-0.8-1.2
													c0-0.8,1.5-1.8,2.3-1.8c0.4,0,0.7,0.5,1.6,0.5c0.4,0,0.9-0.2,1.4-0.7V155c-0.3,0.1-1.3,0.3-1.7-1.4
													c-0.5-1.8-0.6-3.1,0.2-3.7c0.7-0.6,3.6-1.7,5.2-2.3c0.1,0,0.1-0.1,0-0.1c-0.4-0.1-0.9-0.4-0.9-0.9c0-0.3,0-0.8,0.4-1
													c-0.8-0.9-2.4-1.5-3.2-1.5c-3.2,0-5.9,4.3-7.2,4.3c-0.2,0-0.4-0.1-0.6-0.3c0-0.1-0.1-0.1-0.1,0c0,1.3,0.7,1.4,1.1,1.4
													c0.2,0,0.4-0.1,0.6-0.2h0.1c0,0.1,0,0.2,0,0.3c0,1.5,1.6,3.2,1.6,3.2c-0.7,0.8-2.5,2-3.1,1.4c-0.2-0.3-1.2-2-2.4-0.6
													c0,0.1,0,0.1,0.1,0.1c0.7,0,1.3,0.5,1.1,1.2c-1-0.8-2.5-0.7-2.5,1.2c0,0.1,0.1,0.1,0.1,0c0.7-1,1.8-0.3,1.9-0.2
													c-0.7,0.1-2,1-0.9,2.5c0,0.1,0.1,0.1,0.1,0c0.1-1,0.7-1.2,1.2-1.2c1,0,1.7,0.9,2.5-0.1
													C167,158.5,168.4,158.4,168.8,158.3z M142.9,133.4c-0.1,0.1-0.4,0-0.6-0.1l0,0c0.1,0.2,0.4,0.7,0.9,0.7
													c0.2,0,0.5-0.1,0.6-0.3c0,0,1.9,0.6,2.8,0.9c-0.4,0.5-0.6,1.1-0.6,1.7c-0.8-0.5-3.8-2.1-3.8-2.1l-0.9,1.3
													c-0.2,0.2-0.9-0.3-0.7-0.5l0.7-1c-0.2-0.2-0.8-0.1-1,0l0,0c0.1-0.2,0.4-0.8,1.3-0.5c0-0.5-0.8-0.4-1-0.3l0,0
													c0.2-0.2,0.9-0.8,1.6-0.3l0.3-0.4l-0.6-0.7l0.4-0.6l0.5,0.6l3.5-4.7c0.1-0.1,0.8-0.3,1-0.4c0,0.3,0.1,1,0,1.1l-3.4,4.8
													l0.7,0.2l-0.4,0.6l-0.8-0.4L142.9,133.4z M155.1,132.6c0,0.4,0.3,1.1,0.8,0.9c0,0,0.1,0,0,0c-0.1,0.5-1,0.9-1.4,0.4
													c-0.4,0.7-0.3,1.4,0.5,1.8v0.1c-0.5,0.3-1.2,0.3-1.5-0.4c-0.6,0.5-0.5,1.5-0.2,1.8c0,0-1.7,1-3.3,0.3
													c-1-0.5-1.9-1.1-3.2-1c0.2-1.9,1.1-2.4,2.8-2.6c1.4-0.2,1.6-0.9,1.4-1.3c-0.5-0.1-1.3,0.3-1.3,0.3
													c-0.2-0.3,0.1-0.5,0.1-0.5c-0.1-0.1-0.1-0.4-0.1-0.4c1,0,1.1-0.2,1.1-0.2c0.2-1-0.8-1.1-1.6-0.6
													c-0.4-0.3-0.3-0.7-0.3-0.7c-0.1-0.1-0.2-0.2-0.2-0.3c0-0.2,1.1-0.9,1.4-1c0.1-0.3,0.5-0.8,1.7-0.7
													c0.1-0.3-0.1-1.5-0.2-1.8c0-0.1,0-0.1,0.1-0.1c0.4,0.3,0.8,1.3,1.1,1.3l1.4-0.7c0.1,0,0.3,1.6,0.3,1.6
													c0.2,0.2,1.2,0,1.7,0.2c0.1,0.1,0.1,0.1,0,0.2c-0.3,0.1-1.4,0.5-1.6,0.8C155.4,130.8,155.1,132.2,155.1,132.6z"/>
											</g>
										</g>
									</g>
								</g>
							</g>
						</g>
					</g>
				</g>
			</g>
		</g>
	</g>
</g>
</svg>
