<?xml version="1.0" encoding="UTF-8" standalone="yes"?>
<svg width="500" height="500" viewBox="0 0 500 500" fill="none" version="1.2" baseProfile="tiny-ps" xmlns="http://www.w3.org/2000/svg">
  <title>UpWork</title>
  <path d="M100 2H400C454.124 2 498 45.8761 498 100V400C498 454.124 454.124 498 400 498H100C45.8761 498 2 454.124 2 400V100C2 45.8761 45.8761 2 100 2Z" fill="#14A800" stroke="white" stroke-width="4"/>
  <path d="M356.055 290.547C325.529 290.547 305.319 266.934 299.682 257.787C306.915 199.925 328.081 181.63 356.055 181.63C383.71 181.63 405.196 203.754 405.196 236.089C405.196 268.424 383.71 290.547 356.055 290.547ZM356.055 146.104C306.277 146.104 278.409 178.545 270.432 211.944C261.391 194.925 254.69 172.163 249.478 150.997H180.66V236.62C180.66 267.679 166.513 290.654 138.858 290.654C111.203 290.654 95.355 267.679 95.355 236.62L95.6741 150.997H56V236.62C56 261.616 64.0837 284.272 78.8685 300.439C94.0786 317.139 114.82 325.861 138.858 325.861C186.722 325.861 220.121 289.165 220.121 236.62V179.077C225.12 198.01 237.033 234.387 259.795 266.296L238.522 387.446H278.834L292.875 301.609C297.448 305.439 302.341 308.842 307.553 311.927C321.061 320.436 336.484 325.222 352.439 325.754C352.439 325.754 354.885 325.861 356.162 325.861C405.515 325.861 444.764 287.676 444.764 236.089C444.764 184.502 405.409 146.104 356.055 146.104Z" fill="white"/>
</svg>