<?xml version="1.0" encoding="utf-8"?>
<!-- Generator: Adobe Illustrator 27.2.0, SVG Export Plug-In . SVG Version: 6.00 Build 0)  -->
<svg version="1.2" baseProfile="tiny-ps" id="Layer_1" xmlns="http://www.w3.org/2000/svg" xmlns:xlink="http://www.w3.org/1999/xlink"
	 viewBox="0 0 512 512" xml:space="preserve"><title>Panic</title>
<g id="Logo">
	<g id="Logo_1_">
		<g id="Bottom_3_">
			<path fill="#146F94" d="M451.5,255.3c18.9-16.9,27.1-43.9,18.7-69.6c-8.1-25.1-31.5-42.4-56.1-45.6L381,314.4H176.6l-10.5,55.3
				c0,0-58.4,0-67.9,0c-4.8,24.5,3.8,52,25.3,67.7c21.8,15.9,50,16.4,72,3.8c10.3,23.1,33.4,39.3,60.4,39.3s50.1-16.1,60.4-39.3
				c21.9,12.7,50.1,12.2,72-3.7c21.8-15.8,31.1-42.5,25.8-67.3c25.2-2.6,47.7-19.6,56.1-45.3C478.5,299.3,470.3,272.2,451.5,255.3z"
				/>
			<polygon fill="#146F94" points="334.4,199.7 199.2,199.7 188.7,255 323.9,255 			"/>
		</g>
		<path id="Top_2_" fill="#43BAD1" d="M414.2,140.1c4.6-24.3-4.4-51.5-25.7-67.1c-21.8-15.9-50-16.4-72-3.8
			c-10.3-23-33.4-39.2-60.4-39.2S206,46.1,195.7,69.3c-21.9-12.7-50.1-12.2-72,3.7c-21.8,15.8-31.1,42.5-25.8,67.3
			c-25.2,2.6-47.7,19.6-56.1,45.3c-8.3,25.6-0.2,52.7,18.7,69.6C41.7,272,33.4,299,41.8,324.7c8.2,25.2,31.7,42,56.4,45l43.6-229.6
			H414.2z"/>
	</g>
</g>
</svg>
