<?xml version="1.0" encoding="utf-8"?>
<!-- Generator: Adobe Illustrator 28.3.0, SVG Export Plug-In . SVG Version: 6.00 Build 0)  -->
<svg version="1.2" baseProfile="tiny-ps" xmlns="http://www.w3.org/2000/svg" xmlns:xlink="http://www.w3.org/1999/xlink"  viewBox="0 0 512 512" xml:space="preserve">
<title>Playdate</title>
<g id="Layer_1">
	<rect id="Twitter" fill="#FFC833" width="512" height="512"/>
</g>
<g id="Art">
	<g>
		<g>
			<path d="M48.4,236.6c2.9-3.8,7-9.2,17.4-9.2c16.2,0,25,14.4,25,30.6c0,19-10.9,31.8-25.7,31.8c-10,0-14.5-5.5-16.6-8.2v20.7H23.9
				v-73.5h24.4V236.6z M48.4,271.5c1.5,1.1,3.3,2.5,6.5,2.5c4.7,0,10.3-3.8,10.3-15.2c0-8-2.7-15.1-10.1-15.1c-2.7,0-4.5,1-6.7,2.3
				V271.5z"/>
			<rect x="95.1" y="213.6" width="24.5" height="73.7"/>
			<path d="M186.2,287.3h-24.5v-7.8c-3,3.9-7.4,9.5-18,9.5c-12.4,0-19.3-8.7-19.3-19.2c0-12.9,10.3-20.2,23.1-20.2
				c6.4,0,11,1.5,14.2,2.6c0-3.4-0.1-8.2-4.3-11.6c-3-2.5-6.2-2.6-7.9-2.6c-7.5,0-11.8,4.4-14.9,7.5l-7.2-6.1
				c5.2-5.9,12.8-13.6,30.1-13.6c11.6,0,17.1,3.4,19,4.7c9.7,6.2,9.8,14.9,9.8,21.3V287.3z M161.7,262.2c-1.9-0.4-3.3-0.7-5.3-0.7
				c-6.5,0-8.4,4.3-8.4,7.1c0,3.2,2.2,6.3,6.2,6.3c3.5,0,5.5-1.9,7.6-4.1V262.2z"/>
			<path d="M184.9,228.8h25.8c3.3,10.7,7,22.4,9,32.2c2.8-10,3.5-12.2,10.6-32.2h19.5L227.1,282c-3.1,6.9-7.1,16.1-15.7,21.5
				c-8.5,5.4-18.9,5.4-26.4,5.3v-9.2c12.7-0.9,16.9-8.2,22.1-17.5L184.9,228.8z"/>
			<path d="M288.4,214.1h24.5v72.9h-24.5v-7.7c-2.3,3.3-6.7,9.4-17.6,9.4c-16.2,0-24.8-14.1-24.8-30.7c0-17,8.6-32.1,25.3-32.1
				c10.3,0,14.5,5.1,17.2,8.4V214.1z M288.4,244.4c-1.9-1.3-3.7-2.5-6.7-2.5c-5.8,0-10.3,5.4-10.3,15.8c0,8.2,3.3,14.6,10.1,14.6
				c3,0,4.8-1.1,6.9-2.2V244.4z"/>
			<path d="M379.7,287.1h-24.5v-7.8c-3,3.9-7.4,9.5-18,9.5c-12.4,0-19.3-8.7-19.3-19.2c0-12.9,10.3-20.2,23.1-20.2
				c6.4,0,11,1.5,14.2,2.6c0-3.4-0.1-8.2-4.3-11.6c-3-2.5-6.2-2.6-7.9-2.6c-7.5,0-11.8,4.4-14.9,7.5l-7.2-6.1
				c5.2-5.9,12.8-13.6,30.1-13.6c11.6,0,17.1,3.4,19,4.7c9.7,6.2,9.8,14.9,9.8,21.3V287.1z M355.2,262c-1.9-0.4-3.3-0.7-5.3-0.7
				c-6.5,0-8.4,4.3-8.4,7.1c0,3.2,2.2,6.3,6.2,6.3c3.5,0,5.5-1.9,7.6-4V262z"/>
			<path d="M390.1,219.5h24.4v14.3h10.1v14h-10.1v19.7c0,2.6,0,9,6.8,9c1.3,0,2.5-0.2,3.7-0.5l2.9,7.9c-3.5,2.2-8.6,5.7-17.5,5.7
				c-5.5,0-11.4-1.6-15.5-5.5c-4.6-4.6-4.9-10.2-4.9-15.2v-20.9h-6.5v-14h6.5V219.5z"/>
			<path d="M489.1,273.6c-2.9,4.1-10.9,15.1-28.8,15.1c-20.7,0-33.2-13.1-33.2-31.4c0-18.4,12.7-31.7,31.9-31.7
				c8,0,14.1,2.2,18.2,4.9c14.1,8.7,14.1,24.4,14.1,32h-39.8c0.5,3.4,1.3,7.1,5.5,10.1c3.1,2.2,6.3,3,9.9,3c8,0,12.8-4.8,15.7-7.7
				L489.1,273.6z M467.8,250.6c-0.2-3.6-0.6-11.7-8.4-11.7c-7.1,0-8.2,7.7-8.7,11.7H467.8z"/>
		</g>
		<g>
			<path d="M486.6,229c-2.6,0-5-2.1-5-5.1c0-2.9,2.3-5.1,5-5.1c2.8,0,5.1,2.2,5.1,5.1C491.6,226.7,489.5,229,486.6,229z
				 M486.6,219.6c-2.4,0-4.3,1.9-4.3,4.4c0,2.5,2,4.4,4.4,4.4c2.5,0,4.4-2,4.4-4.3C490.9,221.5,489.1,219.6,486.6,219.6z"/>
			<g>
				<path d="M488.9,226.7h-1.1l-0.1-1.4c0-0.4-0.4-0.8-0.8-0.8h-1.3v2.2h-1.1v-5.8h2.4c1.2,0,1.9,0.7,1.9,1.8c0,0.6-0.3,1-0.8,1.3
					c0.4,0.3,0.7,0.7,0.7,1.2L488.9,226.7z M485.7,223.6h1.2c0.7,0,0.9-0.4,0.9-0.9c0-0.5-0.3-0.9-0.9-0.9h-1.2V223.6z"/>
			</g>
		</g>
	</g>
</g>
</svg>
