<?xml version="1.0" encoding="utf-8"?>
<!-- Generator: Adobe Illustrator 25.4.1, SVG Export Plug-In . SVG Version: 6.00 Build 0)  -->
<svg version="1.2" baseProfile="tiny-ps" id="Layer_1" xmlns="http://www.w3.org/2000/svg" xmlns:xlink="http://www.w3.org/1999/xlink"
	 viewBox="0 0 162 297" xml:space="preserve">
<title>The National Academy of Television Arts and Sciences, Inc.</title>
<g>
	<path fill="#EFB71D" d="M38.72,7.67c-0.2-0.39-0.39-0.79-0.59-1.17c-1.16-2.25-2.43-4.44-3.77-6.56h-6.37
		c-0.78,3.25-1.63,6.48-2.54,9.64C29.77,8.84,34.28,8.18,38.72,7.67z"/>
	<path fill="#EFB71D" d="M51.71,9.94c0.53,0.81,0.84,1.77,0.84,2.81c0,2.84-2.3,5.14-5.14,5.14c-0.29,0-0.57-0.03-0.85-0.08
		c2.78,8.23,4.46,17.05,4.58,25.68c1.5-1.9,2.93-3.89,4.29-5.95c4.41-6.8,7.8-14.27,9.81-22.1c-0.2-1.62-0.46-3.23-0.79-4.82
		C61.21,9.88,56.76,9.72,51.71,9.94z"/>
	<path fill="#EFB71D" d="M43.94,39.69c1.45,0,2.76,0.61,3.7,1.58c-0.54-10.49-3.3-21.14-7.4-30.36c-5.31,0.62-10.78,1.47-15.88,2.36
		c-1.42,4.67-2.92,9.15-4.39,13.28c-1.56,4.32-3.5,9.37-5.71,14.7c1,0.32,2.01,0.64,3.01,0.94c0.28,0.08,0.56,0.16,0.84,0.25
		l-0.92-1.25c-0.19-0.34-0.07-0.73,0.2-1.01c0.2-0.2,0.76-0.18,1.22,0.2l1.45,1.08l-1-1.44c-0.25-0.42,0.09-0.96,0.55-1.14
		c0.28-0.11,0.59-0.05,0.81,0.15l7.45,6.06c0.1,0.02,0.2,0.05,0.3,0.08c0.06-0.04,0.11-0.11,0.09-0.2l-0.92-4.53
		c-0.05-0.25,0.02-0.51,0.19-0.69l0.15-0.16c0.38-0.41,1.06-0.31,1.3,0.2l2.55,5.49c0.11,0.23,0.19,0.46,0.26,0.7
		c0.03,0.01,0.07,0.02,0.1,0.02c2.41,0.49,4.95,0.95,7.56,1.32c-0.41-0.74-0.64-1.58-0.64-2.49C38.8,41.99,41.1,39.69,43.94,39.69z"
		/>
	<path fill="#EFB71D" d="M5.05,13.77c4.2-1.02,10.09-2.32,16.64-3.52c1.01-3.35,1.97-6.81,2.86-10.31H-0.12V15.1
		C1.65,14.63,3.4,14.18,5.05,13.77z"/>
	<path fill="#EFB71D" d="M65.37,28.59c0.14-1.36,0.22-2.71,0.26-4.06c-1.89,5.2-4.38,10.19-7.35,14.85
		c-1.98,3.05-4.16,5.96-6.51,8.73c2.96-0.09,5.86-0.43,8.58-1.1C62.98,41.26,64.7,35.07,65.37,28.59z"/>
	<path fill="#EFB71D" d="M68.43,28.91C66.74,45.27,58.78,60,46.02,70.37c-1,0.81-2.02,1.57-3.05,2.31c0.75,1.3,1.36,2.36,1.74,3.01
		c2.07,3.6,5.71,10.5,6.52,11.06c0.59,0.41,9.62,7.31,16.25,12.74c0.32-1.86-0.01-3.88-0.2-4.65c-0.21-0.84-2.02-3.98-2.52-4.7
		c-0.5-0.72-0.66-1.35-0.56-1.74c0.44-1.71,2.59-2.22,3.03-2.59c0.35-0.29-0.43-1.22,1.42-1.34c0,0-0.02-0.18-0.03-0.46
		c-0.01-0.28,0.08-0.59,0.29-0.78c0.21-0.19,1.02-0.53,1.18-0.87c0.1-0.22,0.23-0.82,0.32-1.07s0.35-0.79,1.01-0.81
		c0.84-0.02,3.33,0.76,3.93,0.72c0.6-0.04,1.71-0.65,2.57-1.07c0.45-0.22,6.72-2.8,10.01-0.43c1.05,0.05,2.34,0.86,3.63,2.15
		c4.41,4.41,5.84,8.89,5.84,12.83c0,6.53-4.89,10.91-5.92,11.67c3.9,1.83,3.28,6.85,2.33,8l0.58,0.32
		c0.03-0.28,12.41-20.1,15.98-38.23c0.07-0.37,0.49-0.56,0.82-0.36l5.85,3.35c0.09,0.05,0.21,0.01,0.25-0.09
		c9.06-23.14,10.75-56.1,10.01-79.39H64.46C68.07,9.03,69.46,18.91,68.43,28.91z"/>
	<path fill="#EFB71D" d="M47.68,64.78c4.48-4.29,8.21-9.19,11.08-14.55c-2.57,0.55-5.24,0.86-7.95,0.97
		C50.33,55.9,49.31,60.47,47.68,64.78z"/>
	<path fill="#EFB71D" d="M4.05,37.68c2.31,0.87,4.64,1.7,6.97,2.5c2.26-5.5,4.21-10.63,5.68-14.8c1.24-3.48,2.56-7.34,3.84-11.42
		c-5.94,1.11-11.16,2.24-14.71,3.1c-1.89,0.45-3.9,0.95-5.97,1.5v9.77c0.67-0.32,1.4-0.51,2.19-0.51c2.84,0,5.14,2.3,5.14,5.14
		C7.2,35.08,5.9,36.91,4.05,37.68z"/>
	<path fill="#EFB71D" d="M27.55,59.57l0.04-0.04c-0.44-0.65-0.97-1.23-1.6-1.7l-2.89-2.16c-0.96-0.71-1.79-1.59-2.44-2.59
		l-4.36-6.61c-0.17-0.25-0.21-0.57-0.09-0.84c0.03-0.06,0.05-0.1,0.08-0.16c-1.12-0.34-2.25-0.69-3.36-1.05
		C9.07,53.45,4.54,62.96-0.12,70.88v6.19c10.56-3.39,20.51-7.89,29.47-13.77C28.53,61.35,27.84,59.87,27.55,59.57z"/>
	<path fill="#EFB71D" d="M42.43,69.25c2.54-4.95,4.09-10.44,4.81-16.19c-1.96,1.99-4,3.9-6.13,5.7c-1.38,1.16-2.77,2.26-4.17,3.33
		c1.45,2.59,3.06,5.43,4.48,7.89C41.75,69.74,42.09,69.51,42.43,69.25z"/>
	<path fill="#EFB71D" d="M123.96,292.61c-1.45-3.08-3.94-12.27-4.4-14.22c-6.22-26.35-27.31-49.63-47.79-74.05
		c-0.41-0.49-13.79-20.43-19.77-44.65c-0.23-0.94-6.23-27.06-6.4-28.59c-0.19-1.74,0.09-2.85,0.89-3.85
		c1.51-1.88,10.38-8.63,13.62-11.14c5.73-4.44-7.54-10.23-19.41-25.47c-3.38-4.34-5.18-8.93-6.36-12.79
		c-8.39,4.14-17.6,6.31-27.06,6.31c-2.14,0-4.28-0.11-6.44-0.33c-0.33-0.03-0.65-0.09-0.98-0.13v212.63h123.94
		C124.4,295.41,124.7,294.18,123.96,292.61z"/>
	<path fill="#EFB71D" d="M1.73,40.45c-0.6-0.23-1.23-0.48-1.85-0.73v24.81c3.46-6.65,6.86-14.11,9.83-21.17
		C7.03,42.44,4.37,41.47,1.73,40.45z"/>
	<path fill="#EFB71D" d="M44.38,51.11c-4.12-0.25-8.22-0.84-12.11-1.6l0.58,4.68c0.14,0.57,1.1,2.45,2.43,4.9
		C38.47,56.64,41.52,53.99,44.38,51.11z"/>
	<path fill="#EFB71D" d="M131.65-0.06c10.7,54.94-8.34,103.48-11.7,112.19c-0.28,0.72-0.59,1.3-1.31,1l-5.33-2.2
		c-0.05-0.02-0.11,0-0.13,0.05c-14.75,35.17-13.84,33.18-14.23,33.57c-0.39,0.39-0.99,0.46-2.26,0.2c-3.33-0.7-8.32-3.68-13.06-3.68
		c-5.96,0-10.9,10.04-10.9,15.4c0,10.4,11.71,7.37,20.73,25.54c10.37,20.87,45.64,50.48,60.34,55.39c1.59,0.53,6.1,2.99-2.38,11.11
		c-4.23,4.05-1.49,4.79-6.77,9.95c-7.79,7.61-15.91,5.34-16.08,5.26c0.17,3.84,1.86,10.26,3.07,11.12c1.21,0.86,3.79,0.46,4.67,2.86
		c0.56,1.53-0.66,5.43-1.76,7.91c-1.1,2.48,0.37,9.17,0.28,10.68c0,0.02-0.01,0.04-0.01,0.05h27.02V-0.06H131.65z"/>
	<path fill="#EFB71D" d="M33.49,74.83c-0.02-0.07-0.04-0.14-0.06-0.21c-0.54-1.99-1.67-5.17-2.8-8.11
		c-9.44,6.1-19.6,10.43-30.75,13.71v0.38c0.43,0.06,0.86,0.12,1.3,0.17C12.46,81.94,23.59,79.84,33.49,74.83z"/>
	<path fill="#EFB71D" d="M41.11,4.95c0.4,0.77,0.79,1.56,1.17,2.35c8.23-0.77,15.96-0.85,21.48,0.39c-0.69-2.64-1.59-5.23-2.65-7.75
		H38.27C39.26,1.57,40.21,3.24,41.11,4.95z"/>
	<path fill="#FFFFFF" d="M153.83,292.07c-2.02,0-3.62-1.59-3.62-3.57c0-1.98,1.6-3.57,3.62-3.57s3.62,1.59,3.62,3.57
		C157.45,290.48,155.86,292.07,153.83,292.07z M153.83,291.48c1.69,0,2.98-1.29,2.98-2.98c0-1.69-1.29-2.98-2.98-2.98
		c-1.69,0-2.98,1.29-2.98,2.98C150.86,290.19,152.15,291.48,153.83,291.48z M155.42,290.34h-0.63l-0.75-1.39h-0.84v1.39h-0.6v-3.67
		h1.4c0.73,0,1.23,0.5,1.23,1.14c0,0.74-0.69,0.99-0.69,0.99L155.42,290.34z M153.19,288.35h0.84c0.45,0,0.64-0.2,0.64-0.55
		c0-0.35-0.2-0.55-0.64-0.55h-0.84V288.35z"/>
</g>
</svg>
