<?xml version="1.0" encoding="utf-8"?>
<!-- Generator: Adobe Illustrator 27.5.0, SVG Export Plug-In . SVG Version: 6.00 Build 0)  -->
<svg version="1.2" baseProfile="tiny-ps" id="Capa_1" xmlns="http://www.w3.org/2000/svg" xmlns:xlink="http://www.w3.org/1999/xlink"
	 viewBox="0 0 200 200"  xml:space="preserve">
	 <title>Ria Money Transfer</title>
<g>
	<g>
		<path fill="#FF6100" d="M10,125.4v33.3h24.5v-29.2c0-12.9,7.2-21.3,24.7-21.9V83.2C27,83.7,10,100.4,10,125.4z"/>
		<path fill="#FF6100" d="M151.3,82.1c-22.7,0.1-39,16.4-39,38.9c0,22.1,13.6,36.7,36.5,38.9l16-12.1l0.5,0.3v10.7H190v-37.8
			C190,97.4,174.5,81.9,151.3,82.1z M151.3,135.9c-8.4,0-14.5-6.2-14.5-14.9s6.1-14.9,14.5-14.9c8.3,0,14.3,6.2,14.3,14.9
			S159.6,135.9,151.3,135.9z"/>
		<rect x="75.3" y="83.2" fill="#FF6100" width="24.5" height="75.5"/>
		<path fill="#FF6100" d="M87.6,40.2c-9,0-16.3,7.3-16.3,16.3c0,9,7.3,16.3,16.3,16.3c9,0,16.3-7.3,16.3-16.3
			C103.9,47.5,96.6,40.2,87.6,40.2z"/>
	</g>
</g>
</svg>
