<?xml version="1.0" encoding="utf-8"?>
<!-- BIMI from DMARC Advisor   -->
<svg version="1.2" baseProfile="tiny-ps" id="Layer_1" xmlns="http://www.w3.org/2000/svg" xmlns:xlink="http://www.w3.org/1999/xlink"
	 viewBox="0 0 382.7 382.7" xml:space="preserve">
<title>PostNL</title>
<g>
	<path fill="#FFFFFF" d="M239.5,282.7C183,313.9,123,331.8,100.9,319.7c-24.3-13.4-36.5-77.5-36.5-128.5
		c0-50.6,12.9-115.5,36.5-128.5c20.7-11.4,83.4,6.5,138.6,36.9c47.8,26.4,92.7,67.7,92.7,91.6C332.2,216.2,288.1,256,239.5,282.7z"
		/>
	<g>
		<path fill="none" d="M151.4,185.4c-5.1,0-8.9,3.3-8.9,10.8c0,6.9,3.8,10.8,8.9,10.8c5.1,0,8.9-3.9,8.9-10.8
			C160.3,188.7,156.5,185.4,151.4,185.4z"/>
		<path fill="none" d="M103.8,186.6l-4.4,0c-0.2,0-0.4,0.2-0.4,0.4v18.4c0,0.2,0.2,0.4,0.4,0.4h4.7c9.9,0,11.3-6.9,11.3-9.7
			C115.3,191.2,112.1,186.6,103.8,186.6z"/>
		<path fill="none" d="M239.5,99.6C184.4,69.2,121.6,51.2,101,62.6c-23.6,13-36.5,77.9-36.5,128.5c0,51,12.2,115.1,36.5,128.5
			c22,12.1,82.1-5.8,138.6-36.9c48.6-26.8,92.7-66.5,92.7-91.6C332.2,167.3,287.3,125.9,239.5,99.6z M146.1,119.2
			c1.4-1.7,2.9-3.3,4.7-4.6c0.2-0.1,0.4-0.2,0.6-0.2c0.2,0,0.4,0.1,0.7,0.2c1.7,1.3,3.3,2.9,4.6,4.6c0.4,0.5,0.4,1,0,1.5
			c-1.3,1.7-2.8,3.2-4.4,4.4c-0.3,0.2-0.6,0.4-0.9,0.4c-0.3,0-0.6-0.1-0.9-0.4c-1.6-1.3-3.1-2.8-4.4-4.4
			C145.7,120.2,145.7,119.6,146.1,119.2z M168.4,158.1c1.2,0,2.2,1,2.2,2.2v4.3c0,1.3-0.6,2-1.8,2H134c-1.2,0-1.8-0.6-1.8-2v-4.3
			c0-1.2,1-2.2,2.2-2.2H168.4z M147.4,130.3c0-0.3,0.1-0.9,0.5-1.2c0.2-0.2,0.5-0.4,0.9-0.4h0c0.9,0,1.8-0.1,2.7-0.1
			c0.9,0,1.8,0,2.7,0.1c0.3,0,0.6,0.1,0.9,0.4c0.4,0.4,0.5,0.9,0.5,1.2l0,0.3c-0.2,14.2-0.3,22.4-0.3,22.5c0,0,0,0,0,0.1
			c-0.1,0.8-0.6,1.3-1.3,1.3H149c-1,0-1.3-0.9-1.3-1.4c0-0.1,0-2.2-0.1-5.2C147.6,141.8,147.4,132.2,147.4,130.3z M103.8,216.1h-4.4
			c-0.2,0-0.4,0.2-0.4,0.4v18.6c0,0.3-0.1,0.4-0.5,0.4c-0.8,0-6.7-3.8-8.6-5.9c-1.4-1.5-2.3-3.7-2.3-5.9v-46.2
			c0-0.7,0.6-1.3,1.3-1.3H104c14.8,0,22.5,8.9,22.5,20.4C126.5,208.2,117.9,216.1,103.8,216.1z M130.4,132.5
			c1.3-0.5,2.6-0.9,3.7-1.3c1.5-0.4,2.9-0.8,4.1-1.1l0.2,0c0.3-0.1,0.6-0.1,0.8-0.1c1.6,0,2.3,1.2,2.5,1.7c1.4,3.1,2.4,5.9,3.4,9.4
			c0.1,0.4,0.1,0.7-0.1,1c-0.2,0.2-0.5,0.4-0.9,0.4h-3.7c-0.9,0-1.2-0.4-1.3-0.8c-0.6-2-1-3.3-1.8-5c0,0-0.1-0.1-0.3-0.1
			c-0.1,0-0.2,0-0.2,0l-1.9,0.6c-0.2,0.1-0.4,0.3-0.4,0.4c-0.1,0.3-0.2,0.7-0.1,1c0,0.1,3.9,10.8,5,14.3c0.2,0.5,0.1,1-0.1,1.3
			c-0.1,0.2-0.4,0.4-1.1,0.4h-4.6c-0.8,0-1.3-0.3-1.5-0.9c-0.2-0.5-0.4-1.1-0.7-1.9c-1.7-4.6-3.6-10.1-4.1-11.7
			C126.5,137.1,126.3,134,130.4,132.5z M151.4,216.9c-11.4,0-20.7-6.7-20.7-20.7c0-14.3,9.2-20.7,20.7-20.7
			c11.4,0,20.6,6.4,20.6,20.7C172.1,210.2,162.8,216.9,151.4,216.9z M171.6,151.4l-0.1,0.3c-0.3,0.8-0.5,1.5-0.7,1.9
			c-0.2,0.6-0.7,0.9-1.5,0.9h-4.6c-0.5,0-0.9-0.1-1.1-0.4c-0.2-0.3-0.3-0.7-0.1-1.3c1.1-3.6,5-14.2,5-14.3c0.1-0.3,0.1-0.7-0.1-1
			c-0.1-0.1-0.2-0.3-0.4-0.4l-1.9-0.6c-0.1,0-0.2,0-0.3,0c-0.2,0-0.3,0.1-0.3,0.1c-0.8,1.7-1.2,2.9-1.8,5c-0.1,0.4-0.4,0.8-1.3,0.8
			h-3.7c-0.5,0-0.8-0.2-0.9-0.4c-0.2-0.3-0.2-0.6-0.1-1c1-3.5,2-6.3,3.4-9.4c0.5-1.1,1.4-1.7,2.5-1.7c0.3,0,0.5,0,0.9,0.1l0.2,0
			c1.2,0.3,2.6,0.6,4.1,1.1c1.1,0.3,2.4,0.8,3.7,1.3c4.2,1.5,3.9,4.6,3.2,7.5C175.1,141.6,173,147.5,171.6,151.4z M190.9,216.9
			c-6.7,0-13.8-2.4-13.9-2.4c-0.5-0.2-0.9-0.7-0.9-1.2v-7.8c0-0.3,0.2-0.5,0.5-0.5c0,0,0.1,0,0.2,0c2.5,0.8,10.7,2.8,15,2.8
			c2.6,0,3.9-0.4,4.8-1.2c0.6-0.6,0.9-1.2,0.9-2c0-2.6-3.2-3.3-6.3-4c-0.4-0.1-0.2,0-1.3-0.3c-6.8-1.6-14-3.3-14-12
			c0-3.9,1.6-7.1,4.7-9.4c3-2.2,7.4-3.4,12.7-3.4c4.7,0,10.3,1.6,12.2,2.2c0.6,0.2,0.9,0.7,0.9,1.2l0,7.8c0,0.4-0.4,0.5-0.7,0.4
			c-5.4-2-10.3-2.7-13.9-2.7c-2.8,0-4.6,1.2-4.6,3.1c0,2.2,2.7,2.8,6,3.5c0.4,0.1,2.2,0.5,2.7,0.6c2.8,0.6,5.6,1.2,8,2.8
			c3.2,2.1,4.8,5.2,4.8,9.4C208.7,212.3,202.7,216.9,190.9,216.9z M236.5,214.3c0,0.5-0.3,0.9-0.6,1.1c-1.6,0.9-4.2,1.4-8.2,1.4
			c-6.8,0-13.2-3.4-13.2-14.5v-25.4c0-2.2,0.9-4.4,2.3-5.9c1.8-2,7.8-5.9,8.6-5.9c0.3,0,0.5,0.1,0.5,0.4l0,10.3
			c0,0.2,0.2,0.4,0.4,0.4h8.7c0.7,0,1.2,0.6,1.2,1.2l0,7.5h0c0,0.2-0.2,0.4-0.4,0.4l-9.6,0c-0.2,0-0.4,0.2-0.4,0.4v14.6
			c0,5.6,2.1,7.3,5.7,7.3c1.7,0,4.3-1,4.6-1c0.2,0,0.4,0.2,0.4,0.4L236.5,214.3L236.5,214.3z M280.2,216h-10.6
			c-0.1,0-0.2-0.1-0.2-0.2l0-23.7c0-5.3-1.8-7.5-6-7.5c-1.5,0-3.3,0.6-5.1,1.6c-1.8,1-3.2,1.9-3.7,2.2c-0.1,0.1-0.3,0.3-0.3,0.5v27
			c0,0.1-0.1,0.2-0.2,0.2h-10.6c-0.1,0-0.2-0.1-0.2-0.2v-38.2c0-0.6,0.5-1.1,1.1-1.1l9.7,0c0.1,0,0.2,0.1,0.2,0.2v3
			c0,0.2,0.1,0.3,0.3,0.3c0.1,0,0.2,0,0.2-0.1l0.3-0.2c1.2-0.9,3-1.9,4.2-2.4c2.7-1,5.5-1.6,7.8-1.6c8.6,0,13.2,5,13.2,14.4l0,25.7
			C280.5,215.9,280.4,216,280.2,216z M299.7,216h-10.5c-0.1,0-0.2-0.1-0.2-0.2l0-58.5c0-0.2,0-0.3,0.3-0.3c0.7,0,6.6,3.7,8.5,5.8
			c1.4,1.6,2.2,3.7,2.2,5.8l0,47.1C300,215.9,299.9,216,299.7,216z"/>
		<path fill="#F56900" d="M236.1,206.7c-0.4,0-3,1-4.6,1c-3.5,0-5.7-1.7-5.7-7.3v-14.6c0-0.2,0.2-0.4,0.4-0.4l9.6,0
			c0.2,0,0.4-0.2,0.4-0.4h0l0-7.5c0-0.7-0.6-1.2-1.2-1.2h-8.7c-0.2,0-0.4-0.2-0.4-0.4l0-10.3c0-0.3-0.1-0.4-0.5-0.4
			c-0.8,0-6.7,3.8-8.6,5.9c-1.4,1.5-2.3,3.7-2.3,5.9v25.4c0,11,6.4,14.5,13.2,14.5c3.9,0,6.6-0.6,8.2-1.4c0.3-0.2,0.6-0.6,0.6-1.1
			v-7.2C236.5,206.9,236.3,206.7,236.1,206.7z"/>
		<path fill="#F56900" d="M203.9,194.5c-2.3-1.5-5.2-2.2-8-2.8c-0.5-0.1-2.3-0.5-2.7-0.6c-3.4-0.8-6-1.3-6-3.5
			c0-1.9,1.8-3.1,4.6-3.1c3.5,0,8.5,0.7,13.9,2.7c0.3,0.1,0.6-0.1,0.7-0.4l0-7.8c0-0.5-0.3-1.1-0.9-1.2c-1.9-0.6-7.5-2.2-12.2-2.2
			c-5.3,0-9.7,1.2-12.7,3.4c-3,2.2-4.7,5.5-4.7,9.4c0,8.8,7.2,10.4,14,12c1,0.2,0.9,0.2,1.3,0.3c3.1,0.7,6.3,1.4,6.3,4
			c0,0.8-0.3,1.4-0.9,2c-0.9,0.9-2.2,1.2-4.8,1.2c-4.3,0-12.5-2-15-2.8c0,0-0.1,0-0.2,0c-0.3,0-0.5,0.2-0.5,0.5v7.8
			c0,0.5,0.3,1,0.9,1.2c0.1,0,7.2,2.4,13.9,2.4c11.8,0,17.8-4.6,17.8-13C208.7,199.7,207.1,196.6,203.9,194.5z"/>
		<path fill="#F56900" d="M172.4,132.5c-1.3-0.5-2.6-0.9-3.7-1.3c-1.5-0.4-2.9-0.8-4.1-1.1l-0.2,0c-0.3-0.1-0.6-0.1-0.9-0.1
			c-1.1,0-2,0.6-2.5,1.7c-1.4,3.1-2.4,5.9-3.4,9.4c-0.1,0.4-0.1,0.7,0.1,1c0.1,0.2,0.4,0.4,0.9,0.4h3.7c0.9,0,1.2-0.4,1.3-0.8
			c0.6-2.1,1.1-3.3,1.8-5c0,0,0.1-0.1,0.3-0.1c0.1,0,0.2,0,0.3,0l1.9,0.6c0.2,0.1,0.4,0.3,0.4,0.4c0.1,0.3,0.2,0.7,0.1,1
			c0,0.1-3.8,10.7-5,14.3c-0.2,0.5-0.1,1,0.1,1.3c0.2,0.3,0.6,0.4,1.1,0.4h4.6c0.8,0,1.3-0.3,1.5-0.9c0.2-0.5,0.4-1.1,0.7-1.9
			l0.1-0.3c1.4-3.9,3.5-9.8,3.9-11.4C176.3,137.1,176.5,134,172.4,132.5z"/>
		<path fill="#F56900" d="M267.2,175.7c-2.3,0-5.2,0.6-7.8,1.6c-1.2,0.5-3,1.5-4.2,2.4l-0.3,0.2c0,0-0.1,0.1-0.2,0.1
			c-0.2,0-0.3-0.1-0.3-0.3v-3c0-0.1-0.1-0.2-0.2-0.2l-9.7,0c-0.6,0-1.1,0.5-1.1,1.1v38.2c0,0.1,0.1,0.2,0.2,0.2h10.6
			c0.1,0,0.2-0.1,0.2-0.2v-27c0-0.2,0.2-0.4,0.3-0.5c0.5-0.3,1.9-1.2,3.7-2.2c1.8-1,3.6-1.6,5.1-1.6c4.2,0,6,2.2,6,7.5l0,23.7
			c0,0.1,0.1,0.2,0.2,0.2h10.6c0.1,0,0.2-0.1,0.2-0.2l0-25.7C280.5,180.7,275.9,175.7,267.2,175.7z"/>
		<path fill="#F56900" d="M297.8,162.8c-1.9-2.1-7.8-5.8-8.5-5.8c-0.3,0-0.3,0.1-0.3,0.3l0,58.5c0,0.1,0.1,0.2,0.2,0.2h10.5
			c0.1,0,0.2-0.1,0.2-0.2l0-47.1C300,166.5,299.2,164.4,297.8,162.8z"/>
		<path fill="#F56900" d="M309,136.1c-18.6-17.4-42.7-34.4-63.9-46.1c-37.1-20.4-92.8-42.4-127.6-42.4c-9.4,0-17,1.6-22.6,4.7
			c-13.4,7.4-24.5,27-32.1,56.7c-6.3,24.4-9.9,54.4-9.9,82.3c0,28.5,3.3,58.4,9.8,83.3c6,23.2,16.2,46.8,32.2,55.6
			c6.1,3.3,14.1,5,23.9,5c36,0,90.6-23.1,126.4-42.8c21-11.6,44.9-28.2,63.4-45.1c21.7-19.9,35.2-39.4,35.3-56.1
			C343.8,173.5,326.9,152.8,309,136.1z M239.5,282.7C183,313.9,123,331.8,101,319.7c-24.3-13.4-36.5-77.5-36.5-128.5
			c0-50.6,12.9-115.5,36.5-128.5c20.7-11.4,83.4,6.5,138.6,36.9c47.8,26.4,92.7,67.7,92.7,91.6C332.2,216.2,288.1,256,239.5,282.7z"
			/>
		<path fill="#F56900" d="M150.5,125.1c0.3,0.2,0.6,0.4,0.9,0.4c0.3,0,0.6-0.1,0.9-0.4c1.6-1.3,3.1-2.8,4.4-4.4
			c0.4-0.5,0.4-1.1,0-1.5c-1.3-1.7-2.9-3.3-4.6-4.6c-0.3-0.2-0.5-0.2-0.7-0.2c-0.2,0-0.4,0.1-0.6,0.2c-1.8,1.3-3.4,2.9-4.7,4.6
			c-0.4,0.5-0.4,1,0,1.5C147.4,122.4,148.9,123.9,150.5,125.1z"/>
		<path fill="#F56900" d="M151.4,175.6c-11.4,0-20.7,6.4-20.7,20.7c0,14,9.2,20.7,20.7,20.7c11.4,0,20.6-6.7,20.6-20.6
			C172.1,181.9,162.8,175.6,151.4,175.6z M151.4,207c-5.1,0-8.9-3.9-8.9-10.8c0-7.5,3.8-10.8,8.9-10.8c5.1,0,8.9,3.3,8.9,10.8
			C160.3,203.1,156.5,207,151.4,207z"/>
		<path fill="#F56900" d="M132.2,160.3v4.3c0,1.3,0.6,2,1.8,2h34.9c1.2,0,1.8-0.6,1.8-2v-4.3c0-1.2-1-2.2-2.2-2.2h-34
			C133.2,158.1,132.2,159.1,132.2,160.3z"/>
		<path fill="#F56900" d="M149,154.5h4.8c0.7,0,1.2-0.5,1.3-1.3c0,0,0,0,0-0.1c0-0.1,0.1-8.4,0.3-22.5l0-0.3c0-0.3-0.1-0.8-0.5-1.2
			c-0.2-0.2-0.5-0.4-0.9-0.4c-0.9,0-1.8-0.1-2.7-0.1c-0.9,0-1.8,0-2.7,0.1h0c-0.3,0-0.6,0.1-0.9,0.4c-0.3,0.3-0.5,0.9-0.5,1.2
			c0,1.8,0.2,11.5,0.2,17.6c0,3,0.1,5.1,0.1,5.2C147.7,153.6,148,154.5,149,154.5z"/>
		<path fill="#F56900" d="M132,153.6c0.2,0.6,0.7,0.9,1.5,0.9h4.6c0.6,0,0.9-0.2,1.1-0.4c0.2-0.3,0.3-0.7,0.1-1.3
			c-1.1-3.5-4.9-14.2-5-14.3c-0.1-0.3-0.1-0.7,0.1-1c0.1-0.1,0.2-0.3,0.4-0.4l1.9-0.6c0.1,0,0.2,0,0.2,0c0.2,0,0.3,0.1,0.3,0.1
			c0.8,1.8,1.2,3,1.8,5c0.1,0.4,0.4,0.8,1.3,0.8h3.7c0.4,0,0.7-0.1,0.9-0.4c0.2-0.2,0.2-0.6,0.1-1c-1-3.5-2-6.3-3.4-9.4
			c-0.2-0.5-0.9-1.7-2.5-1.7c-0.3,0-0.5,0-0.8,0.1l-0.2,0c-1.2,0.3-2.6,0.6-4.1,1.1c-1.1,0.3-2.4,0.8-3.7,1.3
			c-4.2,1.5-3.9,4.6-3.2,7.5c0.4,1.6,2.4,7.1,4.1,11.7C131.6,152.5,131.8,153.1,132,153.6z"/>
		<path fill="#F56900" d="M104,176.3H88.9c-0.7,0-1.3,0.6-1.3,1.3v46.2c0,2.2,0.9,4.4,2.3,5.9c1.9,2,7.8,5.9,8.6,5.9
			c0.3,0,0.5-0.1,0.5-0.4v-18.6c0-0.2,0.2-0.4,0.4-0.4h4.4c14.1,0,22.7-8,22.7-19.5C126.5,185.2,118.8,176.3,104,176.3z M104,205.8
			h-4.7c-0.2,0-0.4-0.2-0.4-0.4V187c0-0.2,0.2-0.4,0.4-0.4l4.4,0c8.3,0,11.5,4.6,11.5,9.5C115.3,198.9,113.9,205.8,104,205.8z"/>
	</g>
</g>
<path fill="none" d="M543.4,196.4c-5.1,0-8.9,3.3-8.9,10.8c0,6.9,3.8,10.8,8.9,10.8c5.1,0,8.9-3.9,8.9-10.8
	C552.3,199.7,548.5,196.4,543.4,196.4z"/>
<path fill="none" d="M495.8,197.7l-4.4,0c-0.2,0-0.4,0.2-0.4,0.4v18.4c0,0.2,0.2,0.4,0.4,0.4h4.6c9.9,0,11.3-6.9,11.3-9.7
	C507.3,202.3,504.1,197.7,495.8,197.7z"/>
</svg>