<?xml version="1.0" encoding="UTF-8" standalone="yes"?>
<svg version="1.2" baseProfile="tiny-ps" viewBox="0 0 450 450" xml:space="preserve" xmlns="http://www.w3.org/2000/svg">
  <title>NORMA Lebensmittelfilialbetrieb Stiftung</title>
  <rect fill="#FFFFFF" width="450" height="450"/>
  <rect x="29.1" y="161.9" fill="#FFDD00" width="391.9" height="126.1"/>
  <rect x="29.1" y="171.6" fill="#F7A600" width="391.9" height="106.8"/>
  <rect x="29.1" y="161.9" fill="none" stroke="#FFFFFF" stroke-width="2" width="391.9" height="126.1"/>
  <polyline fill="#E3001F" points="28.9,181.4 29.1,268.5 421,268.8 421,181.4 28.9,181.4 "/>
  <polygon fill="#FFFFFF" points="59.6,259.9 40.2,259.9 40.2,191.9 59.6,192.1 79,225.9 79,192.1 98.4,192.1 98.4,259.9 79,259.9 &#xA;&#x9;59.6,225.9 "/>
  <polygon fill="#FFFFFF" points="278,259.9 258.6,259.9 258.6,192.1 279,192.1 295,219.1 311,192.1 331.5,192.1 331.5,259.9 &#xA;&#x9;312,259.9 312,221.1 295,250.2 278,221.1 "/>
  <path fill="#FFFFFF" d="M380.8,238.6l-7.6-22.3l-7.7,22.3H380.8z M337.2,259.9l25.4-67.9h21.9l24.4,67.9h-21l-3.3-9.7h-23.3&#xA;&#x9;l-3.3,9.7H337.2z"/>
  <path fill-rule="evenodd" fill="#FFFFFF" d="M217.4,206.8c4,0,7.2,3.2,7.2,7.2s-3.2,7.2-7.2,7.2H210v-14.4H217.4z M210.1,234.8V260&#xA;&#x9;h-19.4v-67.9h32c11.8,0,21.4,9.6,21.4,21.4c0,7.8-4.2,14.6-10.4,18.3l15.2,28.3h-22.7l-11.6-25.3H210.1z"/>
  <path fill-rule="evenodd" fill="#FFFFFF" d="M129,225.9c0-9.6,7-17.4,15.5-17.4s15.5,7.8,15.5,17.4c0,9.6-7,17.4-15.5,17.4&#xA;&#x9;S129,235.6,129,225.9z M108.1,225.9c0-20.1,16.3-36.4,36.4-36.4s36.4,16.3,36.4,36.4s-16.3,36.4-36.4,36.4S108.1,246.1,108.1,225.9z&#xA;&#x9;"/>
</svg>