<?xml version="1.0" encoding="UTF-8" standalone="yes"?>
<svg version="1.2" baseProfile="tiny-ps" viewBox="0 0 180 180" xml:space="preserve" xmlns="http://www.w3.org/2000/svg">
  <title>NORMA Lebensmittelfilialbetrieb Stiftung</title>
  <rect fill="#FFFFFF" width="180" height="180"/>
  <rect x="19.4" y="71.6" fill="#FFED00" width="141.2" height="37"/>
  <rect x="20.1" y="74.4" fill="#F7A600" width="139.8" height="31"/>
  <rect x="20.1" y="77.3" fill="#E41026" width="139.8" height="25.3"/>
  <rect x="19.2" y="71.2" fill="none" width="141.7" height="37.5"/>
  <rect x="19.2" y="71.2" fill="none" width="141.7" height="37.5"/>
  <rect x="19.2" y="71.2" fill="none" width="141.7" height="37.5"/>
  <rect x="19.2" y="71.2" fill="none" width="141.7" height="37.5"/>
  <rect x="19.2" y="71.2" fill="none" width="141.7" height="37.5"/>
  <rect x="19.2" y="71.2" fill="none" width="141.7" height="37.5"/>
  <rect x="19.2" y="71.2" fill="none" width="141.7" height="37.5"/>
  <rect x="19.2" y="71.2" fill="none" width="141.7" height="37.5"/>
  <g>
    <path fill="#FFFFFF" d="M138.5,102.4c-0.9,0-1.6-0.7-1.6-1.6s0.7-1.6,1.6-1.6c0.9,0,1.6,0.7,1.6,1.6S139.4,102.4,138.5,102.4z&#xA;&#x9;&#x9; M138.5,99.8c-0.5,0-1,0.5-1,1s0.5,1,1,1s1-0.5,1-1S139,99.8,138.5,99.8z"/>
  </g>
  <g>
    <path fill="#FFFFFF" d="M147.5,102.4c-0.9,0-1.6-0.7-1.6-1.6s0.7-1.6,1.6-1.6c0.9,0,1.6,0.7,1.6,1.6S148.4,102.4,147.5,102.4z&#xA;&#x9;&#x9; M147.5,99.8c-0.5,0-1,0.5-1,1s0.3,1,1,1c0.5,0,1-0.5,1-1S148,99.8,147.5,99.8z"/>
  </g>
  <g>
    <path fill="#FFFFFF" d="M149.8,99.6h-11.7c-0.2,0-0.3-0.1-0.3-0.3l0,0l-3.6-13.8l-2.5-1c-0.1-0.1-0.2-0.2-0.1-0.4&#xA;&#x9;&#x9;c0.1-0.1,0.2-0.2,0.4-0.1l2.6,1.1l0,0c0,0,0.1,0,0.1,0.1c0,0,0,0.1,0.1,0.1l0,0l0.7,2.6H151l0,0h0.1c0,0,0.1,0,0.1,0.1&#xA;&#x9;&#x9;c0,0,0,0.1,0.1,0.1v0.1l0,0l-1.8,7.6c0,0.1-0.1,0.1-0.1,0.2s-0.1,0.1-0.2,0.1h-11.4l0.8,3H150c0.2,0,0.3,0.1,0.3,0.3&#xA;&#x9;&#x9;C150.4,99.6,150,99.6,149.8,99.6z M146.5,95.4h2.4l0.8-3.6l0,0h-2.6L146.5,95.4z M143.6,95.4h2.4l0.6-3.6h-3V95.4z M140.5,95.4h2.5&#xA;&#x9;&#x9;v-3.6h-3.1L140.5,95.4z M137.4,95.4h2.6l-0.6-3.6h-2.9L137.4,95.4z M147.1,91.3h2.5h0.1l0.7-3.1h-2.8L147.1,91.3z M135.5,88.3&#xA;&#x9;&#x9;l0.8,3.1h0.1h2.9l-0.5-3.1H135.5z M143.6,91.3h3.1l0.5-3.1h-3.6V91.3z M139.8,91.3h3.2v-3.1h-3.7L139.8,91.3z"/>
  </g>
  <polygon fill="#FFFFFF" points="31.6,100.2 26,100.2 26,80.3 31.6,80.3 37.2,90.2 37.2,80.3 42.9,80.3 42.9,100.2 37.2,100.2 &#xA;&#x9;31.6,90.2 "/>
  <polygon fill="#FFFFFF" points="95.1,100.2 89.5,100.2 89.5,80.3 95.3,80.3 100,88.2 104.7,80.3 110.6,80.3 110.6,100.2 105,100.2 &#xA;&#x9;105,88.8 100,97.3 95.1,88.8 "/>
  <path fill="#FFFFFF" d="M112.2,100.2l7.4-19.8h6.4l7.1,19.8H127l-1-2.8h-6.8l-1,2.8H112.2z M125,93.9l-2.2-6.5l-2.2,6.5H125z"/>
  <path fill="#FFFFFF" d="M79.6,86.8c0,1.2-0.9,2.1-2.1,2.1h-2.1v-4.2h2.1C78.6,84.7,79.6,85.7,79.6,86.8 M85.2,86.6&#xA;&#x9;c0-3.4-2.8-6.2-6.2-6.2h-9.3v19.8h5.6v-7.3h1.3l3.4,7.3h6.6L82.2,92C84,90.8,85.2,88.8,85.2,86.6"/>
  <path fill="#FFFFFF" d="M60.8,90.2c0,2.8-2,5.1-4.5,5.1s-4.5-2.3-4.5-5.1s2-5.1,4.5-5.1C58.8,85.2,60.8,87.4,60.8,90.2 M66.9,90.2&#xA;&#x9;c0-5.8-4.7-10.6-10.6-10.6c-5.8,0-10.6,4.7-10.6,10.6s4.7,10.6,10.6,10.6C62.1,100.8,66.9,96.2,66.9,90.2"/>
  <path fill="#FFFFFF" d="M134.8,83.2c-0.9-3.3,0.6-5.7,3.6-6.3c2.7-0.6,4.8,0.3,5.3,2.9c0.7,3.1-1.9,4.7-3.7,6.6l0,0l5-1.1l0.6,3&#xA;&#x9;l-9.6,2c-0.3-1.2-0.2-2.3,0.1-3.2c0.6-1.6,2-2.9,3.2-4.2c0.5-0.5,1.3-1.2,1.1-2.1c-0.2-1.1-0.9-1.4-1.7-1.2&#xA;&#x9;c-1.3,0.3-1.5,1.4-1.1,2.9L134.8,83.2z"/>
  <path fill="#FFFFFF" d="M147.6,82.2l2.7-0.6l-0.7-3.4L147.6,82.2z M151,84.8l-4.9,1l-0.7-3.3l3.7-7.6l3.2-0.7l1.5,6.9l1.5-0.3l0.6,3&#xA;&#x9;l-1.5,0.3l0.5,2.4l-3.3,0.7L151,84.8z"/>
  <path fill="none" stroke="#FFFFFF" stroke-width="0.517" d="M131.1,84.8c0.5,0,0.9-0.4,0.9-0.9s-0.4-0.9-0.9-0.9s-0.9,0.4-0.9,0.9&#xA;&#x9;S130.6,84.8,131.1,84.8z"/>
  <path fill="#FFFFFF" d="M138.5,101.3c0.3,0,0.6-0.3,0.6-0.6s-0.3-0.6-0.6-0.6s-0.6,0.3-0.6,0.6S138.1,101.3,138.5,101.3"/>
  <path fill="#FFFFFF" d="M147.5,101.3c0.3,0,0.6-0.3,0.6-0.6s-0.3-0.6-0.6-0.6s-0.6,0.3-0.6,0.6S147.1,101.3,147.5,101.3"/>
</svg>