<?xml version="1.0" encoding="UTF-8"?>
<svg version="1.2" baseProfile="tiny-ps" id="Layer_1" xmlns="http://www.w3.org/2000/svg" xmlns:xlink="http://www.w3.org/1999/xlink" viewBox="0 0 251.5 209">
    <title>DTX</title>
    <g>
        <g id="Layer_1">
            <path d="M41.4,38.3c17.9-19.2,67.3-7.7,112.5,25.6h-27.9c-36.2-21.8-72-28-85-13.2-3.7,4.2-5.2,9.7-4.8,16-2.6-11.6-1.1-21.5,5.3-28.4ZM189.6,69.4h18.9l-11.3,14.8h-18.9l11.2-14.8h0Z" fill="#f56600" />
            <path d="M181.3,118.5c7.4,13.4,8.7,25.3,2.3,32.5-11.2,12.7-42.6,6.8-73.7-12.8h-19.4c14.7,10.9,30,19.2,44.1,24.5h0c1.4.5,2.7,1,4.1,1.4.4.1.7.2,1.1.4,1,.3,1.9.6,2.9.9.4.1.9.2,1.3.4.9.3,1.8.5,2.8.8.4.1.8.2,1.1.3,1.2.3,2.4.6,3.6.8,0,0,.1,0,.2,0,1.2.2,2.4.5,3.7.7.3,0,.7.1,1,.1.8.1,1.7.2,2.5.3.4,0,.8,0,1.2.1.8,0,1.6.1,2.4.2.3,0,.7,0,1,0,1.1,0,2.1,0,3.1,0h.1c1.1,0,2.1,0,3.1-.1.3,0,.6,0,.9,0,.7,0,1.4-.1,2.1-.2.3,0,.6-.1,1-.1.6-.1,1.3-.2,1.9-.4.3,0,.6-.1.8-.2.9-.2,1.7-.5,2.5-.7,0,0,0,0,0,0,.8-.3,1.6-.6,2.3-1,.2-.1.4-.2.7-.4.5-.3,1-.5,1.5-.8.2-.1.5-.3.7-.5.5-.3.9-.6,1.3-1,.2-.1.4-.3.6-.5.6-.5,1.1-1.1,1.7-1.6,8.2-9.3,5.2-25.5-6.3-43.2h0s0,0,0,0Z" fill="#f56600" />
            <path d="M153.9,83.9h-24v46.1h-15.3v-46.1h-19.3c3,4.6,4.7,10,4.7,15.8h0c0,16.7-14.4,30.3-32,30.3h-32v-60.6h32c8.5,0,16.2,3.2,22,8.3v-8.3h71.2c45.5,36.4,67.5,81.5,49.1,101.3-18.5,19.9-70.5,6.9-116.7-28.8,40.4,28.7,83.8,38.7,98.4,22,10.1-11.5,4-32.7-13.4-54.9l-15.9,21h-18.5v-.5l24.3-32c-4.4-4.6-9.2-9.1-14.4-13.6h0ZM51.3,83.9v31.6h16.7c9.1,0,16.7-7.1,16.7-15.8s-7.5-15.8-16.7-15.8c0,0-16.7,0-16.7,0Z" />
        </g>
    </g>
    <g>
    </g>
</svg>
