<?xml version="1.0" encoding="utf-8"?>
<!-- Generator: Adobe Illustrator 24.0.2, SVG Export Plug-In . SVG Version: 6.00 Build 0)  -->
<svg version="1.2" baseProfile="tiny-ps" id="Layer_1" xmlns="http://www.w3.org/2000/svg" xmlns:xlink="http://www.w3.org/1999/xlink"
 viewBox="0 0 96 96" xml:space="preserve">


<title> THEBULLREPORT </title>
<rect fill-rule="evenodd" fill="#FFFFFF" width="96" height="96"/>
<g>
	<g id="Layer_1_1_">
		<g id="Layer_1-2">
			<g>
				<path fill-rule="evenodd" fill="#0718BC" d="M20,55.4c1.2-9.7,8-17.8,17.4-20.6l-8.3-2.5c-8.7,3.6-15.1,11.2-17,20.5
					c-0.2-1.6-0.3-3.2-0.3-4.8c0-17.6,13.1-32.2,30.1-34.5l7.7-7.4C48.7,6,47.6,6,46.5,6c-23.2,0-42,18.8-42,42s18.8,42,42,42
					s42-18.8,42-42c0-4.6-0.7-9-2.1-13.1l-5.6,7.7c0.3,1.8,0.4,3.6,0.4,5.5c0,17.6-13,32.1-29.9,34.4c-2.2-2.1-3.3-5.1-3.1-8.2
					c0.2-3.1,1.9-5.8,4.4-7.6c0.2,1,1.2,2.4,2.8,4.4c2,2.3,5.2,3,7.9,1.7c3.6-1.7,6.3-3.2,8.2-4.4c1.6-1.1,2.2-3.1,1.6-4.8
					C69.7,54,69.6,45.4,73,37.7c1.2,0.4,2.9,0.7,5.1,0.8c0.3-0.5,0.8-1.1,1.3-1.9c1.1-1.7,2.8-4,4.9-7.1c2-2.9,4.4-6.4,7.2-10.6
					L82.4,26l-5.7,4.5c-0.9,0.1-3.4,0-7.4-0.4c-0.2-0.3-0.5-0.9-0.8-1.6l-14.7-4.1c3.5,2.5,6.7,4.7,9.6,6.6c1.1,2.2,2.4,4.3,4,6.2
					c-2.3,8.2-2,16.9,0.9,25c-2-0.3-4.5-0.4-7.7-0.3c2.6,1,4.7,2,6.5,2.8c0,1.3-1.1,2.3-2.3,2.3c-1.3,0-2.4-0.9-2.5-2.2
					c-0.9,0.8-1.9,1.6-3,2.3c0.2-4.1-1.1-7.1-4.1-9c-0.1,1.9-0.4,3.6-1,5c-1.8-8.1-14.6-4.2-8.5-17.2c-6.2,4.5-8.3,12.8-4.8,19.7
					c-3.3-1.3-5.7-4.3-6.2-7.8c-3.8,6.6-4.7,14.4-2.6,21.8C23.5,74.6,18.8,65.1,20,55.4L20,55.4L20,55.4z"/>
				<path fill-rule="evenodd" fill="#0718BC" d="M56.2,14.6c7.2,2.1,13.5,6.5,18,12.3l5.6-4.6c-4.9-6.4-11.7-11.3-19.5-14L56.2,14.6
					C56.2,14.6,56.2,14.6,56.2,14.6z"/>
				<path fill-rule="evenodd" fill="#0718BC" d="M51.2,39c-1.4,1.3-1.8,3.4-0.9,5.2s2.8,2.6,4.7,2.3l4.4,8.3l-1.7-10.8
					C55,43.3,52.6,41.5,51.2,39C51.2,39,51.2,39,51.2,39z"/>
				<polygon fill-rule="evenodd" fill="#0718BC" points="45.2,34.3 38.9,34.6 44.8,40.8 43.4,37.6 45.3,37.2 45.8,38.2 48.1,37.2 
					45.2,34.3 				"/>
				<path fill-rule="evenodd" fill="#0718BC" d="M31.6,29.8c4.9,1.3,10.1,2.7,15.6,4.2c1.3,0.3,2.7-0.1,3.6-1.2
					c0.9-1,1.1-2.4,0.6-3.7c-0.5-1.2-1.7-2.1-3-2.2l-5.4-0.6c1.7-2.7,4.5-6.9,8.2-12.8c1.3-2,2.7-4.2,4.2-6.6c-0.1,0-0.2,0-0.3-0.1
					c-1.6,1.6-3.7,3.8-6.4,6.5C44.3,17.5,38.6,23,31.6,29.8L31.6,29.8L31.6,29.8z"/>
			</g>
		</g>
	</g>
</g>
</svg>
