<svg xmlns="http://www.w3.org/2000/svg" xmlns:xlink="http://www.w3.org/1999/xlink" version="1.2" viewBox="0 0 1000 1000" baseProfile="tiny-ps">
  <title>ABCS Safety Training Inc.</title>
  <path d="M0,0h1000v1000H0V0z" fill="#EFEBEC"/>
  <path d="M540.09,323.06c7.64-0.92,15.24-0.74,22.91-0.62c14.67-0.14,29.33,0.12,44-0.12  c8.05-0.02,15.93,1.46,24,1.05c5.09-0.32,9.94,1.1,15,1c4.42-0.28,8.63,0.54,13,0.9c6.72-0.07,13.3,1.14,19.99,1.41  c6.09,0.1,11.9,1.9,18.02,1.9c31.24,3.55,62.47,8.89,93.03,16.37c39.47,9.79,78.85,23.08,113.81,44.2  c15.91,9.84,31.73,21.83,43.56,36.43c6.83,8.23,12.67,17.51,16.46,27.54c5,12.62,6.62,26.33,5.1,39.79  c-2.25,17.77-10.16,35.06-20.41,49.63c-18.85,26.88-44.4,47.43-71.38,65.65c-37.05,24.42-78.23,43.73-119.61,59.56  c-8.97,3.28-17.77,6.95-26.89,9.81c25.47-12.22,49.95-26.55,73.04-42.83c23.81-16.76,46.39-36.77,63.84-60.18  c11.21-15.43,20.22-33.72,22.97-52.73c0.14-3.97,0.67-7.87,0.95-11.82c-0.69-5.65-0.56-11.24-1.96-16.8  c-4.67-20.76-16.68-38.29-32.37-52.35c-11.19-10.74-24.12-18.8-37.49-26.5c-21.05-11.22-43.15-20.4-66.05-27.11  c-26.96-8.31-54.72-14.24-82.59-18.58c-18.31-2.91-36.47-5.17-54.95-6.67c-7-1-14.06-0.32-21-1.59c-4.28-0.55-8.35,0.26-12.65-0.41  c-8.61-1.67-17.82-0.01-26.46-0.98c-4.68-0.97-9.25-0.44-13.97-0.63c-11.69-0.4-23.32,0.02-35,0.07c-10,1.73-19.92,0.14-29.98,1.13  c-4.34,0.35-8.63-0.05-12.96,0.47c-3.01,0.34-6.02,0.67-9.05,0.65c-5.05-0.1-9.94,1.15-15,0.98  c-52.36,4.26-105.57,11.66-157.12,22.12c-78.99,16.25-158.16,40.14-231.11,74.8c-6.44,2.96-12.45,6.88-19.05,9.46  c35.41-26.88,74.69-47.37,115.47-64.76c70.06-29.5,145.21-49.42,220-62.52c28.46-5.1,57.12-8.71,85.83-12.04  c7.04-0.17,13.96-1.36,20.99-1.69c5.07-0.84,10.18-0.54,15.24-1.36c4.38-0.69,8.76-0.04,13.14-0.88c5.19-0.91,10.36-0.03,15.57-0.88  C525.98,322.8,533,323.89,540.09,323.06z" fill="#ED1B24"/>
  <path d="M114.99,453.34c51,0.02,102.05,0.01,153.05,0c5.67-0.06,11.72,4.8,11.46,10.78  c0.02,28.96-0.02,57.94,0.01,86.9c0.35,4.48-2.42,8.3-6.23,10.36c-2.37,1.38-5.61,0.85-8.32,0.99c-4.96-2.48-8.22-6.69-8.35-12.37  c0.11-9.85-0.16-19.72,0.19-29.57c-43.76,0.1-87.54-0.08-131.29,0.1c-0.03,10.49,0.04,20.99-0.02,31.47  c-0.02,4.41-3.43,8.21-7.33,9.89c-4.85,1.52-9.89-0.08-13.1-3.97c-1.8-2.7-2.24-5.74-2.28-8.92c0-25.99,0.02-52.02-0.01-78  c0.05-3.28-0.32-7.11,0.89-10.19C105.38,456.26,110.14,453.18,114.99,453.34z" fill="#231F20"/>
  <path d="M300.97,453.35c49.34-0.02,98.69,0.01,148.03-0.01c3.34,0.07,6.82-0.5,9.86,0.94  c4.98,1.95,7.75,7.55,7.54,12.71c-0.08,10.68-0.02,21.38-0.02,32.06c0.12,3.59-1.96,5.78-3.13,8.95c1.13,3.19,3.32,5.32,3.14,8.95  c-0.05,11.04-0.03,22.06-0.01,33.1c-0.24,6.16-4.7,12.44-11.38,12.29c-49.32-0.04-98.67-0.01-148-0.02  c-3.1-0.02-6.24,0.15-9.32-0.13c-4.89-1.54-7.44-5.29-8.9-10c0.55-3.1,0.05-6.08,0.01-9.19c0.04-23.66,0.01-47.34,0.01-71  c0.07-3.16,0.09-6.43,0.65-9.55C290.36,457.17,295.73,453.25,300.97,453.35z" fill="#231F20"/>
  <path d="M485.96,453.35c51.36,0,102.72-0.01,154.08,0c4.87,0.03,9.67,3.58,11.14,8.22  c0.65,3.72,0.29,7.66,0.36,11.43c-0.09,4.76,0.23,9.56-0.16,14.3c-1.12,6.98-8.88,11.44-15.45,8.65c-3.78-1.76-5.61-4.94-7.26-8.58  c0.13-3.75,0.17-7.49-0.11-11.24c-43.68,0.34-87.4-0.09-131.09,0.22c0.01,21.1-0.11,42.22,0.06,63.32  c43.72,0.17,87.45,0.04,131.16,0.07c0.43-5.55-1.09-10.4,1.91-15.15c2.15-3.75,5.61-4.69,9.47-5.83c1.4,0.44,2.82,0.77,4.26,1.04  c2.34,1.34,4.5,2.56,5.8,5.05c1.8,3.03,1.35,6.76,1.43,10.15c-0.1,5.67,0.12,11.34-0.08,17c-0.07,4.83-3.99,8.6-8.28,10.15  c-2.68,0.37-5.49,0.14-8.2,0.18c-47.33-0.01-94.67,0-142-0.01c-3.28-0.03-6.69,0.22-9.95-0.25c-3.04-0.96-5.77-3.13-7.08-6.09  c-1.53-2.96-1.13-6.73-1.17-9.98c0.04-24.33,0-48.67,0.02-73c0.04-3.33-0.21-6.73,0.17-10.03  C475.65,457.7,480.88,453.71,485.96,453.35z" fill="#231F20"/>
  <path d="M670.98,453.37c50.18-0.08,100.87,0.04,151.02-0.06c4.37-0.31,8.62,0.75,11.71,4  c4.27,4.08,3.98,12.04-0.64,15.77c-3.77,3.48-8.27,3.25-13.07,3.19c-40.66-0.05-81.34,0-122-0.02c-5.13,0.04-10.24-0.14-15.37,0.16  c0.12,6.44-0.01,12.88,0.09,19.31c47.35,0.01,94.97-0.01,142.3,0.01c5.96-0.04,11.86,5.04,11.62,11.24  c-0.02,14.69,0.01,29.38-0.01,44.06c0.11,4.15-2.04,8.04-5.75,9.97c-3.28,1.95-7.18,1.21-10.88,1.33  c-50.01-0.03-100.03,0-150.04-0.01c-1.86,0-3.75-1.23-5.25-2.2c-5.12-3.51-6.13-11.75-1.9-16.3c2.33-2.59,5.65-4.25,9.19-4.09  c47.23,0.07,94.47-0.07,141.7,0.07c0.91-4.32,0.37-8.43,0.52-12.8c0.08-2.9,0.05-5.74-0.63-8.58c-47.52,0.15-95.07,0.03-142.6,0.06  c-5.53,0.2-10.96-4.81-10.67-10.45c-0.03-14.68-0.04-29.37,0-44.04C660.04,458.35,665.65,453.71,670.98,453.37z" fill="#231F20"/>
  <path d="M133,476.29c41.24,0.1,82.52-0.09,123.76,0.09c-0.3,7.1-0.27,14.28,0,21.38  c-38.59-0.01-77.17,0-115.76-0.01c-5.16-0.04-10.29,0.16-15.44-0.17c-0.02-7.04-0.11-14.08,0.03-21.12  C128.04,476.29,130.54,476.28,133,476.29z" fill="#EFEBEC"/>
  <path d="M317,476.33c42.11,0.13,84.24-0.09,126.35,0.11c-0.08,6.32,0.13,12.65-0.06,18.97  c-0.44,0.88-1.14,1.24-2.11,1.09c-32.06-0.01-64.12,0-96.18-0.01c-3.58-0.04-7.14,0.02-10.71,0.23c-1.7,1.05-3.74,1.99-5.1,3.47  c-1.7,2.21-2.58,5.2-3.63,7.77c1.41,5.35,4.59,10.61,10.48,11.51c33.24-0.27,66.69-0.02,99.96-0.13c2.43-0.01,4.86,0.07,7.28,0.17  c0.11,6.68,0.08,13.37,0.04,20.06c-3.44,0.18-6.88,0.22-10.32,0.17c-35.67-0.01-71.33,0-107-0.01c-4.78-0.06-9.49,0.23-14.26-0.25  c0-20.94-0.06-41.91,0.03-62.84C313.51,476.43,315.25,476.34,317,476.33z" fill="#EFEBEC"/>
  <path d="M252.48,596.46c3.09,1.85,6.13,5.66,6.11,9.37c-1.09,2.17-3.08,4.34-5.77,3.63  c-2.54-1.81-3.29-5.5-5.75-7.53c-2.17-2.03-5.33-1.76-8.09-1.69c-3.37,0.25-7.15,2.23-6.82,6.13c0.03,2.87,2.62,4.03,4.92,4.94  c6.16,2.14,14.29,2.71,19.36,7.23c5.9,5.51,5.05,15.71-1.45,20.42c-5.44,4.44-11.36,3.97-17.96,3.69  c-6.75-0.6-12.88-5.12-14.44-11.87c-1.13-3.33,3.3-7.04,6.29-4.75c1.93,2.15,2.55,5.44,4.5,7.59c1.22,1.19,2.89,2.02,4.34,2.91  c3.74-0.12,6.97,0.61,10.29-1.59c3.71-2.07,4.85-7.43,1.19-10.15c-5.59-4.18-14.5-3.33-20.32-7.59c-3.13-2.35-5.8-6.14-5.49-10.22  c-0.08-3.44,1.78-7.03,4.4-9.19C234.98,592.8,244.83,592.03,252.48,596.46z" fill="#231F20"/>
  <path d="M331.65,596.45c0.52,1.8-0.89,2.92-2.17,3.88c-3.16-0.26-5.33-1.52-8.04,1.01  c-0.63,2.02-0.2,4.42-0.23,6.5c1.65-0.02,3.3-0.03,4.95-0.05c0.87,1.08,1.74,2.16,2.61,3.24c-0.99,1.21-2.03,2.35-3.14,3.45  c-1.47-0.04-2.94-0.07-4.41-0.09c0.08,6.87,0.05,13.75,0.07,20.62c0.13,2.77-0.96,5.07-1.93,7.58c-1.42,0.09-2.85,0.2-4.27,0.17  c-2.05-0.82-2.51-2.74-2.54-4.75c-0.21-7.8-0.06-15.62-0.07-23.43c-1.56-0.11-3.17-0.1-4.71-0.38c-1.17-0.61-1.76-2.27-2.54-3.29  c0.94-1,1.85-2.02,2.73-3.08c0.91,0.15,1.82,0.31,2.73,0.46c0.58-0.35,1.16-0.7,1.74-1.05c0.31-4.27-0.67-8.67,3.23-11.56  C320.05,592.97,327.96,592.2,331.65,596.45z" fill="#231F20"/>
  <path d="M379.97,594.48c1.05,0.5,2.09,1.03,3.14,1.55c2.07,3.87,1.22,7.56,1.25,11.78  c1.68-0.05,3.37-0.09,5.05-0.13c1.23,1.5,2.37,2.31,2.04,4.49c-1.93,2.24-4.2,2.27-6.96,2.4c0.08,6.81-0.12,13.66,0.05,20.46  c1.44,2.66,6.34,1.06,8.93,1.3c0.34,1.41,1.59,3.12,0.23,4.36c-2.64,2.59-7.37,2.13-10.77,2.04c-4.04,0.04-6.9-3.84-7.01-7.64  c-0.42-6.77-0.12-13.59-0.2-20.37c-2.9-0.57-5.48-1.36-5.35-4.81c0.83-0.71,1.66-1.42,2.49-2.14c0.97,0.01,1.93,0.01,2.89,0.01  c0.03-3.22-0.18-6.52,0.24-9.72C376.57,595.99,378.25,595.42,379.97,594.48z" fill="#231F20"/>
  <path d="M452.99,594.8c12.09-0.19,24.21,0.19,36.29-0.18c0.76,1.06,1.52,2.07,2.12,3.23  c0.07,1.8-1.7,3.66-3.54,3.54c-4.08,0.15-8.16-0.04-12.25,0.12c-0.17,13-0.06,26.01-0.05,39.01c-0.84,0.89-1.68,1.79-2.51,2.68  c-1.25,0.07-2.5,0.13-3.75,0.2c-1.03-1.32-2.98-2.59-2.78-4.39c0.02-12.51,0.1-25.03-0.01-37.54c-4.87-0.46-10.65,0.95-15.15-1.1  C451.29,598.03,450.72,596.32,452.99,594.8z" fill="#231F20"/>
  <path d="M570.89,594.41c0.86,0.83,1.72,1.64,2.59,2.45c0.02,1.2,0.09,2.43-0.05,3.62  c-0.98,1.94-2.48,2.83-4.67,2.76c-1.98-1.12-3.66-2.82-3.24-5.29C566.83,595.55,568.14,594.66,570.89,594.41z" fill="#231F20"/>
  <path d="M631.33,594.27l0.63,0.65c1.95,1.97,3.93,3.68,1.6,6.41c-1.52,2.3-3.4,1.29-5.7,1.4  c-0.77-1.26-1.55-2.52-2.33-3.78c0.69-1.15,1.36-2.29,2.09-3.41C628.84,595.09,630.08,594.67,631.33,594.27z" fill="#231F20"/>
  <path d="M280.97,607.22c4.58,0.02,10.43-0.72,14.55,1.57c2.68,1.76,4.71,4.9,4.75,8.16  c0.24,5.34-0.28,10.74,0.05,16.08c0.09,2.34,1.16,4.2,2.18,6.24c-0.82,1.08-1.54,2.6-2.7,3.33c-1.25,0.29-2.64,0.03-3.92-0.04  c-1.07-1.46-2.13-2.96-3.41-4.24c-2.91,0.83-5.35,3.38-8.45,4.09c-5.13,0.77-10.39,0.98-13.97-3.42c-2.35-2.66-2.03-5.88-1.51-9.15  c1.64-4.03,5.51-5.69,9.46-6.66c4.73-1.06,9.48-1.9,14.09-3.44c-0.4-2.63-0.39-5.3-3.25-6.48c-5.57-2.49-11.65,0.77-13.79,6.25  c-2.43,0.03-4.76,0.19-5.45-2.68C269.57,611.31,275.9,607.24,280.97,607.22z" fill="#231F20"/>
  <path d="M346.93,606.83c3.98,0.12,8.3,0.13,11.59,2.67c4.84,3.03,7.19,9.06,6.12,14.61  c-0.55,1.75-2.88,2.71-4.62,2.53c-6.55-0.03-13.1,0-19.65-0.07c-0.28,3.19,0.37,6.1,2.61,8.45c3.34,3.64,9.78,3.43,13.32,0.18  c2.37-1.64,3.7-4.44,6.95-3.72c2.44,1.56,1.09,4.64-0.45,6.37c-5.7,5.89-14.4,6.72-21.74,3.52c-5.35-1.91-7.76-6.88-9.15-12.02  c-0.59-4.95-0.48-9.81,1.98-14.27C336.21,610.01,341.58,607.27,346.93,606.83z" fill="#231F20"/>
  <path d="M425.2,606.47c1.24,0.9,2.5,1.63,3.15,3.09c0.35,1.56-0.45,3.42-0.94,4.91  c-3.98,10.35-8.05,20.67-11.96,31.05c-1.45,3.59-2.54,7.03-6.14,9.05c-4.12,2.26-8.4,2.02-12.82,0.9c-1.68-2.83-1.87-3.31,0.19-6.02  c2.33,0.1,4.67,0.15,7,0.21c1.71-2.04,4.21-4.82,4.14-7.63c-0.53-2.54-1.79-4.96-2.73-7.38c-2.56-6.37-4.97-12.8-7.57-19.15  c-0.73-1.98-1.87-4.67-0.86-6.7c1.38-2.32,3.47-1.43,5.73-1.62c1.14,2.04,2.18,4.09,2.87,6.33c1.99,6.43,4.52,12.65,6.37,19.12  c0.5-0.03,1-0.07,1.5-0.11c1.66-5.66,3.87-11.12,5.73-16.71c0.9-2.71,1.8-5.4,3.1-7.95C423.03,607.37,424.11,606.9,425.2,606.47z" fill="#231F20"/>
  <path d="M499.99,607.21c2.76,0.06,3.18,2.41,3.92,4.55c0.4-0.05,0.81-0.1,1.22-0.15  c2.49-5.73,10.04-5.44,13.89-1.51c1.4,1.86,0.12,3.86-0.76,5.61c-2.87-0.04-5.53-1.09-8.34-1.27c-3.99,1.21-5.2,4.75-5.55,8.52  c-0.3,5.27,0.24,10.59-0.09,15.86c-0.08,1.76-1.8,3.37-2.82,4.7c-2.71-0.2-4.71-0.31-5.61-3.3c-0.28-9.4-0.07-18.86-0.11-28.27  C495.63,609.51,497.26,606.87,499.99,607.21z" fill="#231F20"/>
  <path d="M569.14,607.22c2.11-0.49,4.58,1.63,4.45,3.78c0.22,7.99-0.03,16,0.1,24  c-0.13,3.32,0.63,6.08-2.2,8.47c-1.8-0.24-3.29,0.21-4.58-1.36c-1.97-1.66-1.36-4.77-1.54-7.11c0.14-8.39-0.21-16.8,0.22-25.18  C566.71,608.7,567.44,607.41,569.14,607.22z" fill="#231F20"/>
  <path d="M591.35,608.84c0.14,1.35,0.28,2.7,0.42,4.05c2.64-2.18,5.67-5.09,9.21-5.45  c4.1-0.68,8.29,0.26,11.34,3.17c1.94,2.29,3.14,5.35,3,8.38c-0.03,7.28-0.01,14.56-0.03,21.84c-0.93,0.88-1.86,1.77-2.78,2.66  c-2.18-0.14-4.12-0.48-5.14-2.67c-0.52-6.92,0.29-13.96-0.37-20.88c-0.06-3.79-4-7.53-7.84-6.44c-4.06,1.19-7.1,5.17-6.73,9.47  c0.16,5.76,0.18,11.52,0.04,17.28c-0.98,1.11-1.96,2.23-2.94,3.34c-1.62-0.39-3.23-0.84-4.84-1.31c-1.02-5.06-0.43-9.92-0.57-15.28  c0.18-5.84-0.37-11.83,0.26-17.63C586.27,606.31,588.86,606.9,591.35,608.84z" fill="#231F20"/>
  <path d="M632.5,607.56c0.62,0.78,1.23,1.57,1.83,2.37c0,9.37,0,18.72,0.02,28.08c0.03,2.09-0.26,4-2.35,4.95  c-2.99,1.59-6.52-1.76-6.19-4.87c-0.04-8.72-0.05-17.46,0.01-26.18C625.98,608.34,629.17,606.49,632.5,607.56z" fill="#231F20"/>
  <path d="M648.88,607.21c1.47,0.2,2.38,1.4,3.46,2.31c0.12,1.08,0.25,2.16,0.38,3.24  c2.71-2.56,5.5-4.72,9.29-5.35c3.32-0.49,7.55,0.01,10.05,2.51c2.31,2.05,3.69,4.93,3.69,8.04c0.01,7.03-0.02,14.05,0.02,21.07  c0.37,2.82-2.4,4.72-4.99,4.32c-1.27-0.6-2.27-1.87-3.25-2.85c0.06-6.84,0.21-13.71-0.03-20.53c-0.01-3.44-3.7-7.62-7.35-6.49  c-3.07,0.75-6.09,3.43-6.78,6.57c-0.49,6.22,0.43,12.67-0.46,18.85c-0.19,2.16-1.53,3.22-2.91,4.67c-1.43-0.32-3.22-0.12-4.22-1.34  c-1.54-1.83-1.1-3.98-1.22-6.23c0.1-8.29-0.05-16.59,0.05-24.87C644.56,608.98,646.68,606.82,648.88,607.21z" fill="#231F20"/>
  <path d="M703.72,607.91c2.97,0.89,5.14,2.92,7.42,4.91c0.2-1.28,0.4-2.57,0.58-3.85  c1.74-1.43,3.29-2.32,5.56-1.36c2.59,2.38,2.19,6.2,2.29,9.39c-0.14,7.67,0.16,15.36-0.14,23.02c-0.45,4.21-1.2,9.94-4.57,12.9  c-4.95,3.64-10.28,3.61-16.17,3.39c-5.82-0.45-10.83-3.02-13.33-8.47c1.31-2.01,1.68-3.77,4.5-3.6c2.92,0.56,4.75,4.49,7.48,5.73  c3.64,1.59,7.08,0.67,10.57-0.76c0.82-1.19,1.84-2.35,2.43-3.67c0.54-2.87,0.37-5.96,0.18-8.86c-2.54,2.39-4.86,4.95-8.48,5.54  c-3.49,0.3-7.19,0.03-10.15-2.02c-4.88-3.13-7.1-9.63-7.19-15.19c-0.34-5.03,1.44-10.62,5.13-14.15  C693.32,607.33,699.11,606.44,703.72,607.91z" fill="#231F20"/>
  <path d="M535.9,607.39c4.29-0.29,9.15-0.24,13.19,1.42c2.62,1.08,4.57,3.64,5.23,6.36  c0.75,5.46-0.05,11.34,0.15,16.85c0.04,2.94,1.61,5.24,2.07,8.1c-0.82,2.54-3.06,3.31-5.53,3.31c-1.44-1.73-2.98-3.38-4.53-5.01  c-2.8,1.9-5.41,3.84-8.78,4.59c-4.15,0.72-8.24,0.61-11.71-2.05c-5.11-3.83-4.65-12.87,1.39-15.59c5.67-2.59,12.26-3,18.22-4.87  c0.36-0.88,0.72-1.76,1.08-2.64c-0.98-1.37-1.87-3.69-3.48-4.37c-2.48-0.41-5.05-0.36-7.53,0.02c-3.32,1.03-4.38,3.78-6.53,6.19  c-1.5,0.13-3.03,0.06-4.58-0.21c-0.25-2.04-0.78-3.78,0.25-5.72C526.93,609.82,531.56,607.66,535.9,607.39z" fill="#231F20"/>
  <path d="M347.97,612.42c5.42,0.05,9.57,4.18,8.82,9.76c-5.5-0.07-11-0.04-16.5-0.03  C340.18,617.39,343.08,613.07,347.97,612.42z" fill="#EFEBEC"/>
  <path d="M708.44,616.58c2.97,3.25,2.42,8.42,2.12,12.49c-1.07,4.43-4.36,6.42-8.57,7.32  c-4.03-0.89-7.46-3.09-8.38-7.34c-0.57-4.8-0.77-9.87,2.92-13.54C699.95,612.17,705.65,612.78,708.44,616.58z" fill="#EFEBEC"/>
  <path d="M291.84,624.97c-0.06,3.96,0.73,7.38-2.71,10.22c-2.76,2.84-5.83,2.34-9.46,2.46  c-1.16-1.32-3.36-2.76-3.33-4.68c-0.33-2.45,2-4.61,4.16-5.26C284.22,626.59,288.08,625.94,291.84,624.97z" fill="#EFEBEC"/>
  <path d="M546.3,625.31c0.04,1.9,0.18,3.83,0.01,5.72c-0.77,3.36-3.76,6.47-7.29,6.74  c-2.62,0.24-6.08,0.46-7.46-2.3c-1.56-2.51-0.72-5.49,1.97-6.69C537.54,627.06,542.09,626.47,546.3,625.31z" fill="#EFEBEC"/>
</svg>