<?xml version="1.0" encoding="utf-8"?>
<!-- BIMI from DMARC Advisor   -->
<svg version="1.2" baseProfile="tiny-ps" id="Layer_1" xmlns="http://www.w3.org/2000/svg" xmlns:xlink="http://www.w3.org/1999/xlink" viewBox="0 0 500 500" xml:space="preserve">
<title>Funda</title>
<rect fill="#FFFFFF" width="500" height="500"/>
   <path fill="#FF9B21" d="M117.4,205.2c0-0.4,0.4-1.1,0.7-1.9c6.7-20.7,17.4-38.5,32.2-54c29.6-30.7,65.5-45.9,108.4-46.2
		c45.5-0.4,103.6-0.4,173.5,0c1.1,0,1.8,0.7,1.8,1.9v0.4c-12.2,44.8-26.3,96.2-41.4,154.6c-4.1,15.9-7.4,27.4-10,34.8
		c0,0.4-0.4,1.1-0.7,1.9c-6.7,20.7-17.4,38.5-32.2,54c-29.6,30.7-65.5,45.9-108.4,46.2c-45.5,0.4-103.6,0.4-173.5,0
		c-1.1,0-1.9-0.7-1.9-1.8v-0.4c12.2-44.8,25.9-96.2,41.4-154.6C111.8,224.1,115.2,212.6,117.4,205.2L117.4,205.2z M146.6,212.6
		c-0.7,2.2-1.5,3.7-1.5,4.8L146.6,212.6z M146.6,212.6L146.6,212.6L146.6,212.6z"/>
	<path fill="#6A281C" d="M146.6,212.6c12.9-35.9,38.8-61.8,72.9-72.9c13-4.1,35.9-6.3,68.8-6.7c10.7,0,45.9,0,104.7,0
		c0.7,0,1.1,0.7,1.1,1.1v0.4c-12.9,49.2-26.3,98.4-40,148.4c-0.4,1.1-0.7,2.6-1.5,4.8c-12.6,35.5-38.5,61.8-72.5,72.9
		c-13,4.1-35.9,6.3-69.2,6.7c-10.7,0-45.9,0-104.7,0.4c-0.7,0-1.1-0.7-1.1-1.1v-0.4c13-49.2,26.3-98.4,40-148.4
		C145.5,216.3,145.9,214.9,146.6,212.6L146.6,212.6z"/>
	<path fill="#FFFFFF" d="M225,218.9h-13.3c-2.2,0-3.7,1.1-3.7,3.3v20c0,2.2,1.1,3.3,3.3,3.3h14.1c1.1,0,1.9,0.7,1.9,1.9l0,0v84.3
		c0,2.2,1.9,3.7,3.7,3.7h22.2c2.6,0,3.7-1.1,3.7-3.7V247c0-1.1,0.7-1.9,1.9-1.9h25.1c0.4,0,0.7-0.4,0.7-0.7V220
		c0-0.7-0.4-1.1-1.1-1.1h-24.8c-1.1,0-1.9-0.4-1.9-1.5c-0.7-7.4,0-14.1,2.2-19.2c0.4-1.1,1.5-1.9,2.6-2.6c5.5-2.2,13-3.3,21.8-3
		c0.7,0,1.1-0.4,1.5-1.1l5.9-24.8c0-0.7,0-1.1-0.7-1.1c-16.3-1.1-42.6-1.1-53.3,11.8c-9.6,11.8-9.3,23.7-10,39.6
		C227.2,218.2,226.5,218.9,225,218.9L225,218.9z"/>
</svg>