<?xml version="1.0" encoding="UTF-8"?><svg xmlns="http://www.w3.org/2000/svg" width="3324" height="3324" viewBox="0 0 3324 3324" fill="none" version="1.2" baseProfile="tiny-ps"><title>sadasd</title><rect width="3324" height="3324" fill="white"></rect><path fill-rule="evenodd" d="M1972.31 1756.65C1961.16 1846.27 1905.42 1918.07 1819.09 1954.02C1771.04 1974.02 1706.64 1984.79 1655.59 1981.4C1576.19 1978.44 1501.55 1959.58 1432.8 1925.2C1407.77 1912.67 1371.07 1887.93 1343.41 1865.31C1337.11 1860.17 1333.87 1855.55 1339.93 1847.18C1346.4 1837.66 1371.98 1801.41 1376 1795.42C1381.44 1787.29 1390.37 1786.88 1398.56 1793.17C1399.69 1794.02 1408 1800.35 1409.67 1801.57C1475.87 1852.09 1561.24 1890.03 1656.11 1893.58C1775.76 1891.99 1862.56 1839.71 1878.05 1758.76C1895.13 1669.55 1822.58 1593.02 1682.84 1550.34C1638.42 1536.77 1526.74 1493.19 1506.1 1481.39C1408.75 1425.74 1363.41 1352.75 1369.87 1262.88C1379.76 1138.36 1498.23 1045.04 1648.58 1044.42C1719.94 1044.28 1786.86 1059.7 1846.49 1084.18C1868.43 1093.2 1909.3 1114.67 1923.88 1125.28C1934.06 1132.57 1933.29 1140.73 1929.26 1147.05C1923.33 1156.72 1905.66 1183.69 1898.54 1194.92C1893.34 1202.63 1886.91 1203.52 1877.77 1197.87C1800.89 1147.55 1721.8 1130.48 1650.63 1129.1C1547.92 1131.08 1470.48 1190.55 1465.39 1272.1C1464.04 1345.77 1521.47 1399.2 1643.36 1440.01C1895.02 1518.8 1990.37 1611.44 1972.31 1756.65ZM1661.75 476.617C1824.65 476.617 1957.44 627.253 1963.65 815.815H1359.85C1366.07 627.253 1498.85 476.617 1661.75 476.617ZM2468.68 815.815H2077.32C2067.72 566.841 1885.33 368.31 1661.75 368.31C1438.17 368.31 1255.79 566.841 1246.18 815.815H854.264C834.613 816.162 818.791 831.903 818.791 851.265C818.791 852.192 818.83 853.108 818.901 854.019H818.62L874.49 2054.02C874.495 2057.37 874.623 2060.73 874.877 2064.13C874.937 2064.88 874.998 2065.65 875.065 2066.4L875.186 2068.94L875.319 2069.07C883.804 2152.57 945.995 2219.83 1030.57 2222.93L1030.76 2223.12H2273.97C2274.55 2223.12 2275.14 2223.13 2275.73 2223.13C2276.32 2223.13 2276.91 2223.12 2277.5 2223.12H2280.15C2366.19 2220.82 2435.94 2152.58 2443.3 2068.04L2443.39 2066.87C2443.47 2065.98 2443.53 2065.09 2443.59 2064.2C2443.73 2062.08 2443.81 2059.95 2443.85 2057.85L2504.81 853.097C2504.84 852.485 2504.82 851.878 2504.82 851.265C2504.82 831.681 2488.64 815.815 2468.68 815.815Z" fill="#EE4D2D"></path><path d="M1197.36 2584.55C1267.04 2584.55 1325.08 2641.53 1325.34 2711.93L1325.34 2850.29C1325.34 2854.64 1321.86 2858.15 1317.56 2858.15H1284.91C1280.61 2858.15 1277.13 2854.64 1277.13 2850.29V2712.33C1276.94 2668.23 1241.3 2632.53 1197.36 2632.53C1153.51 2632.53 1117.93 2668.07 1117.59 2712.04V2851.16C1117.59 2855.5 1114.11 2859.03 1109.81 2859.03H1077.09C1072.79 2859.03 1069.31 2855.5 1069.31 2851.16V2425.19C1069.31 2420.85 1072.79 2417.32 1077.09 2417.32H1109.81C1114.11 2417.32 1117.59 2420.85 1117.59 2425.19V2612.67C1139.59 2595.08 1167.41 2584.55 1197.36 2584.55Z" fill="#EE4D2D"></path><path d="M790.357 2528.25C790.345 2560.84 815.535 2584.42 870.026 2602.16C985.492 2637.19 1030.73 2680.62 1023.52 2750.45C1019.08 2793.42 993.757 2828.3 954.013 2846.19C932.018 2856.09 902.497 2861.73 878.968 2860.53C842.612 2859.78 808.266 2851.48 776.476 2835.79C764.982 2830.12 748.023 2818.82 734.987 2808.22L734.924 2808.16C730.981 2804.75 729.534 2800.49 732.616 2795.71C733.759 2793.9 735.988 2790.49 740.355 2783.81C744.137 2778.03 746.027 2775.11 747.101 2773.45C747.834 2772.32 748.189 2771.77 748.503 2771.31C751.832 2766.37 758.336 2765.69 763.086 2769.25L764.159 2770.06C765.586 2771.13 767.952 2772.91 768.198 2773.09C800.838 2797.85 839.245 2812.58 878.468 2813.4C931.391 2811.74 968.789 2787.46 974.852 2751.35C981.519 2711.61 949.477 2677.67 887.031 2659.21C866.65 2653.18 819.377 2635.38 805.908 2628.2C760.509 2602.52 738.703 2567.8 740.973 2524.53C744.551 2464.6 798.849 2419.07 868.261 2417.54C899.37 2416.93 930.092 2422.96 959.284 2434.72C969.782 2438.95 988.544 2448.76 995.27 2453.63C1000.29 2457.26 1001.17 2463.07 998.747 2467.79C998.13 2468.87 994.236 2474.51 990.472 2479.97C987.007 2484.99 983.65 2489.86 983.066 2490.84C980.073 2495.59 975.083 2496.34 969.471 2493.32C937.924 2472.83 905.999 2463.27 870.043 2463.18C825.019 2464.88 791.925 2492.14 790.357 2528.25Z" fill="#EE4D2D"></path><path fill-rule="evenodd" d="M2269.25 2740C2269.04 2740.01 2268.84 2740.02 2268.63 2740.02L2268.25 2740.01L2268 2740H2068.4C2068.44 2740.17 2068.46 2740.33 2068.49 2740.5C2073.29 2768.76 2092.28 2791.41 2116.41 2803.68C2122.76 2806.76 2129.66 2809.31 2137.12 2811.33C2155.97 2815.33 2206.31 2820.31 2245.52 2784.98C2245.52 2784.98 2251.61 2778.17 2257.82 2785.09C2258.54 2785.64 2263.74 2793.71 2273.4 2809.31C2276.65 2814.99 2275.1 2819.92 2270.39 2825.03C2270.39 2825.03 2226.18 2870.02 2138.45 2859.32C2136.92 2859.08 2134.9 2858.77 2132.5 2858.32V2858.37C2101.75 2852.56 2074.47 2837.01 2054.46 2814.69L2054.39 2814.61C2036.4 2794.5 2024.31 2768.91 2020.87 2740C2020.22 2734.44 2019.87 2728.79 2019.87 2723.05C2019.87 2646.95 2078.7 2585.25 2151.27 2585.25C2223.85 2585.25 2282.68 2646.95 2282.68 2723.05L2282.67 2724.23C2282.69 2724.57 2282.7 2724.91 2282.7 2725.25C2282.7 2733.18 2276.73 2739.66 2269.25 2740ZM2071.4 2692.69L2071.35 2692.86H2232.77C2222.51 2659.39 2188.96 2632.37 2151.31 2632.37C2113.71 2632.37 2081.12 2656.36 2071.4 2692.69Z" fill="#EE4D2D"></path><path fill-rule="evenodd" d="M2578.77 2740.01L2579.03 2740C2586.52 2739.66 2592.48 2733.18 2592.48 2725.25C2592.48 2724.91 2592.48 2724.57 2592.46 2724.23L2592.46 2723.05C2592.46 2646.95 2533.63 2585.25 2461.05 2585.25C2388.48 2585.25 2329.65 2646.95 2329.65 2723.05C2329.65 2728.79 2329.99 2734.44 2330.63 2740C2334.07 2768.91 2346.18 2794.5 2364.17 2814.61L2364.24 2814.69C2384.25 2837.01 2411.53 2852.56 2442.28 2858.37V2858.32C2444.68 2858.77 2446.7 2859.08 2448.23 2859.32C2535.96 2870.02 2580.17 2825.03 2580.17 2825.03C2584.88 2819.92 2586.44 2814.99 2583.18 2809.31C2573.53 2793.71 2568.32 2785.64 2567.6 2785.09C2561.39 2778.17 2555.3 2784.98 2555.3 2784.98C2516.09 2820.31 2465.75 2815.33 2446.9 2811.33C2439.44 2809.31 2432.54 2806.76 2426.19 2803.68C2402.06 2791.41 2383.07 2768.76 2378.27 2740.5C2378.24 2740.33 2378.21 2740.17 2378.18 2740H2577.78C2577.99 2740.01 2578.2 2740.02 2578.41 2740.02L2578.77 2740.01ZM2381.13 2692.86L2381.18 2692.69C2390.91 2656.36 2423.49 2632.37 2461.09 2632.37C2498.75 2632.37 2532.29 2659.39 2542.55 2692.86H2381.13Z" fill="#EE4D2D"></path><path fill-rule="evenodd" d="M1510.99 2586.19C1434.43 2586.19 1372.37 2647.84 1372.37 2723.9C1372.37 2799.95 1434.43 2861.61 1510.99 2861.61C1587.55 2861.61 1649.61 2799.95 1649.61 2723.9C1649.61 2647.84 1587.55 2586.19 1510.99 2586.19ZM1510.96 2814.33C1460.65 2814.33 1419.87 2773.81 1419.87 2723.83C1419.87 2673.85 1460.65 2633.33 1510.96 2633.33C1561.27 2633.33 1602.05 2673.85 1602.05 2723.83C1602.05 2773.81 1561.27 2814.33 1510.96 2814.33Z" fill="#EE4D2D"></path><path fill-rule="evenodd" d="M1744.39 2619.37C1768.32 2598.26 1799.63 2585.47 1833.89 2585.47C1909.1 2585.47 1970.07 2647.12 1970.07 2723.17C1970.07 2799.23 1909.1 2860.89 1833.89 2860.89C1799.63 2860.89 1768.32 2848.09 1744.39 2826.98V2995.5C1744.39 2999.85 1740.91 3003.37 1736.61 3003.37H1705.48C1701.18 3003.37 1697.7 2999.85 1697.7 2995.5V2593.33C1697.7 2588.99 1701.18 2585.47 1705.48 2585.47H1736.61C1740.91 2585.47 1744.39 2588.99 1744.39 2593.33V2619.37ZM1744.39 2725.4C1745.59 2774.32 1785.19 2813.6 1833.86 2813.6C1883.28 2813.6 1923.35 2773.09 1923.35 2723.11C1923.35 2673.13 1883.28 2632.61 1833.86 2632.61C1785.19 2632.61 1745.59 2671.9 1744.39 2720.81V2725.4Z" fill="#EE4D2D"></path></svg>