<?xml version="1.0" encoding="utf-8"?>
<!-- Generator: Adobe Illustrator 24.3.2, SVG Export Plug-In . SVG Version: 6.00 Build 0)  -->
<svg version="1.2" baseProfile="tiny-ps" id="Layer_1" xmlns="http://www.w3.org/2000/svg" xmlns:xlink="http://www.w3.org/1999/xlink"
	 viewBox="0 0 173.6 143.7" xml:space="preserve">
<title>Iris hjälpmedel</title>
<g>
	<g>
		<path fill="#009640" d="M14.12,105.98v6.94c0.7-0.34,2.52-0.74,4.7-0.74c4.7,0,6.81,2.45,6.81,6.64v10.36
			c0,0.6-0.2,0.81-0.81,0.81h-1.38c-0.6,0-0.8-0.2-0.8-0.81v-10.26c0-2.58-1.41-3.99-4.23-3.99c-1.88,0-3.56,0.4-4.29,0.77v13.48
			c0,0.6-0.2,0.81-0.77,0.81h-1.41c-0.6,0-0.81-0.2-0.81-0.81v-23.21c0-0.6,0.2-0.81,0.81-0.81h1.41
			C13.91,105.17,14.12,105.37,14.12,105.98z"/>
		<path fill="#009640" d="M32.66,113.49v16.77c0,4.73-2.08,7.45-7.28,7.45c-0.6,0-0.8-0.2-0.8-0.81v-1.17c0-0.6,0.2-0.81,0.8-0.81
			c3.29,0,4.29-1.78,4.29-4.73v-16.7c0-0.6,0.2-0.81,0.81-0.81h1.38C32.46,112.68,32.66,112.89,32.66,113.49z M32.89,107.96v0.27
			c0,1.21-0.4,1.61-1.61,1.61h-0.23c-1.21,0-1.58-0.37-1.58-1.61v-0.27c0-1.21,0.37-1.61,1.58-1.61h0.23
			C32.49,106.34,32.89,106.75,32.89,107.96z"/>
		<path fill="#009640" d="M43.32,112.18c5.43,0,6.94,2.98,6.94,6.77v8.75c0,1.17-0.27,1.51-1.21,1.91
			c-1.24,0.54-3.15,0.87-5.77,0.87c-5.9,0-7.34-1.91-7.34-5.33c0-3.92,2.15-5.27,7.48-5.27c1.64,0,3.25,0.17,3.82,0.23v-1.27
			c0-2.38-0.84-3.99-3.99-3.99c-2.01,0-3.35,0.7-4.16,2.05c-0.37,0.54-0.5,0.64-1.11,0.4l-1.04-0.47c-0.57-0.23-0.74-0.54-0.44-1.14
			C37.65,113.49,39.9,112.18,43.32,112.18z M41.51,107.99v0.3c0,1.04-0.34,1.38-1.41,1.38h-0.23c-1.04,0-1.38-0.34-1.38-1.38v-0.3
			c0-1.04,0.34-1.38,1.38-1.38h0.23C41.18,106.61,41.51,106.95,41.51,107.99z M43.09,122.34c-3.15,0-4.13,0.91-4.13,2.82
			c0,1.74,0.7,2.82,4.06,2.82c1.81,0,2.95-0.13,3.72-0.4c0.4-0.17,0.5-0.27,0.5-0.74v-4.23C46.58,122.54,44.73,122.34,43.09,122.34z
			 M48.08,107.99v0.3c0,1.04-0.34,1.38-1.38,1.38h-0.23c-1.07,0-1.41-0.34-1.41-1.38v-0.3c0-1.04,0.34-1.38,1.41-1.38h0.23
			C47.75,106.61,48.08,106.95,48.08,107.99z"/>
		<path fill="#009640" d="M56.47,129.99h-1.38c-0.6,0-0.81-0.2-0.81-0.81v-23.21c0-0.6,0.2-0.81,0.81-0.81h1.38
			c0.6,0,0.8,0.2,0.8,0.81v23.21C57.27,129.79,57.07,129.99,56.47,129.99z"/>
		<path fill="#009640" d="M69.01,112.18c4.8,0,7.01,2.45,7.01,6.74v4.73c0,4.36-2.28,6.84-7.14,6.84c-1.91,0-3.49-0.6-4.36-0.91
			v6.98c0,0.6-0.2,0.81-0.81,0.81H62.3c-0.57,0-0.77-0.2-0.77-0.81v-21.5c0-1.11,0.23-1.48,1.31-1.91
			C64.14,112.65,66.09,112.18,69.01,112.18z M68.57,114.93c-1.48,0-2.65,0.23-3.55,0.5c-0.44,0.2-0.5,0.3-0.5,0.7v10.73
			c0.77,0.27,2.35,0.87,4.13,0.87c3.02,0,4.36-1.41,4.36-4.19v-4.53C73,116.34,71.52,114.93,68.57,114.93z"/>
		<path fill="#009640" d="M96.81,112.18c4.39,0,6.34,2.35,6.34,6.51v10.5c0,0.6-0.2,0.81-0.77,0.81h-1.41c-0.6,0-0.81-0.2-0.81-0.81
			v-10.4c0-2.58-1.21-3.86-3.76-3.86c-1.84,0-3.25,0.6-3.96,0.91c0.37,0.77,0.5,1.74,0.5,2.85v10.5c0,0.6-0.2,0.81-0.77,0.81h-1.41
			c-0.6,0-0.8-0.2-0.8-0.81v-10.4c0-2.58-1.27-3.86-3.82-3.86c-1.27,0-2.21,0.2-3.15,0.54c-0.37,0.2-0.4,0.4-0.4,0.7v13.01
			c0,0.6-0.2,0.81-0.81,0.81h-1.41c-0.57,0-0.77-0.2-0.77-0.81V115.2c0-1.04,0.23-1.48,1.27-1.91c1.24-0.54,2.98-1.11,5.67-1.11
			c1.88,0,3.29,0.44,4.29,1.27C91.74,113.09,93.75,112.18,96.81,112.18z"/>
		<path fill="#009640" d="M114.17,112.18c5.17,0,7.58,2.98,7.58,6.94v1.95c0,0.7-0.3,1.17-1.24,1.17h-10.93v1.61
			c0,2.55,1.54,4.02,4.49,4.02c2.38,0,3.82-0.91,4.66-2.31c0.4-0.57,0.7-0.64,1.31-0.3l0.91,0.47c0.6,0.3,0.67,0.74,0.3,1.31
			c-1.17,2.05-3.35,3.45-7.21,3.45c-5.23,0-7.45-2.88-7.45-6.98v-4.16C106.59,114.83,109.21,112.18,114.17,112.18z M114.17,114.73
			c-3.02,0-4.59,1.61-4.59,4.23v0.97h9.19v-0.97C118.77,116.34,117.23,114.73,114.17,114.73z"/>
		<path fill="#009640" d="M131.37,112.18c2.08,0,3.82,0.5,4.7,0.74v-6.94c0-0.6,0.2-0.81,0.81-0.81h1.41c0.57,0,0.77,0.2,0.77,0.81
			v21.63c0,1.11-0.23,1.41-1.31,1.84c-1.31,0.5-3.15,1.04-6,1.04c-4.93,0-7.18-2.45-7.18-6.74v-4.73
			C124.57,114.66,126.81,112.18,131.37,112.18z M131.94,114.93c-3.02,0-4.36,1.44-4.36,4.19v4.53c0,2.68,1.48,4.09,4.43,4.09
			c1.48,0,2.72-0.23,3.59-0.54c0.44-0.17,0.47-0.27,0.47-0.64v-10.9C135.3,115.43,133.82,114.93,131.94,114.93z"/>
		<path fill="#009640" d="M150.15,112.18c5.17,0,7.58,2.98,7.58,6.94v1.95c0,0.7-0.3,1.17-1.24,1.17h-10.93v1.61
			c0,2.55,1.54,4.02,4.49,4.02c2.38,0,3.82-0.91,4.66-2.31c0.4-0.57,0.7-0.64,1.31-0.3l0.91,0.47c0.6,0.3,0.67,0.74,0.3,1.31
			c-1.17,2.05-3.35,3.45-7.21,3.45c-5.23,0-7.45-2.88-7.45-6.98v-4.16C142.57,114.83,145.19,112.18,150.15,112.18z M150.15,114.73
			c-3.02,0-4.6,1.61-4.6,4.23v0.97h9.19v-0.97C154.75,116.34,153.2,114.73,150.15,114.73z"/>
		<path fill="#009640" d="M163.4,129.99h-1.38c-0.6,0-0.8-0.2-0.8-0.81v-23.21c0-0.6,0.2-0.81,0.8-0.81h1.38c0.6,0,0.8,0.2,0.8,0.81
			v23.21C164.2,129.79,164,129.99,163.4,129.99z"/>
	</g>
	<g>
		<path fill="#009640" d="M29.45,13.88v1.2c0,6.46-2.03,8.49-8.49,8.49h-2.51c-6.46,0-8.49-2.03-8.49-8.49v-1.2
			c0-6.46,2.03-8.49,8.49-8.49h2.51C27.42,5.4,29.45,7.43,29.45,13.88z M28.73,33.61v53.32c0,3.35-1.08,4.42-4.3,4.42H15.1
			c-3.35,0-4.42-1.08-4.42-4.42V33.61c0-3.35,1.08-4.42,4.42-4.42h9.33C27.66,29.19,28.73,30.26,28.73,33.61z"/>
		<path fill="#009640" d="M72.37,27.39c3.23,0,4.42,1.08,4.42,4.42v7.41c0,3.23-1.2,4.3-4.42,4.3h-4.42c-3.35,0-5.86,0.24-8.49,0.84
			c-0.6,0.12-0.72,0.48-0.72,0.84v41.73c0,3.35-1.08,4.42-4.3,4.42h-9.33c-3.35,0-4.42-1.08-4.42-4.42v-48.9
			c0-3.95,0.84-5.38,4.78-6.93c4.54-1.79,11.96-3.35,22.95-3.71H72.37z"/>
		<path fill="#009640" d="M102.38,13.88v1.2c0,6.46-2.03,8.49-8.49,8.49h-2.51c-6.46,0-8.49-2.03-8.49-8.49v-1.2
			c0-6.46,2.03-8.49,8.49-8.49h2.51C100.35,5.4,102.38,7.43,102.38,13.88z M101.67,33.61v53.32c0,3.35-1.08,4.42-4.3,4.42h-9.33
			c-3.35,0-4.42-1.08-4.42-4.42V33.61c0-3.35,1.08-4.42,4.42-4.42h9.33C100.59,29.19,101.67,30.26,101.67,33.61z"/>
		<path fill="#009640" d="M137.17,27.39c14.35,0,22.36,4.9,26.54,12.79c1.67,3.23,0.84,4.9-2.39,6.34l-7.05,2.99
			c-3.35,1.43-4.19,0.84-6.1-1.91c-1.79-2.51-4.3-4.54-10.4-4.54c-6.45,0-8.85,1.44-8.85,4.3c0,3.71,3.23,4.66,11.6,5.38
			c16.02,1.55,25.35,5.38,25.35,19.61c0,12.31-9.44,20.8-26.9,20.8c-14.71,0-23.91-5.26-27.5-14.23c-1.2-3.11-0.36-4.9,2.87-5.98
			l7.29-2.39c3.11-1.08,4.42-0.6,5.86,2.51c1.43,2.99,4.66,4.54,10.88,4.54c6.81,0,10.28-1.55,10.28-4.9c0-4.07-3.35-4.9-12.67-5.74
			c-12.55-1.2-24.51-4.42-24.51-19.61C111.47,35.64,120.08,27.39,137.17,27.39z"/>
	</g>
</g>
</svg>
