<?xml version="1.0" encoding="UTF-8"?>
<svg version="1.2" baseProfile="tiny-ps" width="1024" height="1024" fill="none" xmlns="http://www.w3.org/2000/svg">
    <title>TuLotero Logo</title>
    <path d="M1024 0H0v1024h1024V0Z" fill="#20B873"/>
    <path d="M494.88 940c217.468 0 393.76-176.292 393.76-393.76S712.348 152.48 494.88 152.48 101.12 328.772 101.12 546.24 277.412 940 494.88 940Z" fill="#084F2F" fill-opacity=".35"/>
    <path d="M512 905.76c217.468 0 393.76-176.292 393.76-393.76S729.468 118.24 512 118.24c-217.467 0-393.76 176.292-393.76 393.76S294.533 905.76 512 905.76Z" fill="url(#a)"/>
    <path fill-rule="evenodd" d="M633.126 379.32h76.564c4.354 0 7.4 4.308 5.942 8.413l-61.05 171.89c-1.458 4.105 1.588 8.417 5.945 8.417h76.28c4.439 0 7.489 4.463 5.876 8.6l-31.637 80.979a6.302 6.302 0 0 1-5.872 4.011H532.711c-4.398 0-7.444-4.385-5.913-8.506l100.415-269.699a6.31 6.31 0 0 1 5.913-4.105Zm-318.256 0h262.532c4.288 0 7.326 4.182 5.998 8.258l-26.363 80.979a6.3 6.3 0 0 1-5.994 4.353h-80.881a6.306 6.306 0 0 0-5.925 4.154L398.7 657.477a6.3 6.3 0 0 1-5.925 4.153h-81.028c-4.377 0-7.423-4.345-5.929-8.458l62.406-171.8c1.494-4.113-1.552-8.462-5.929-8.462h-75.104c-4.324 0-7.366-4.251-5.967-8.343l27.681-80.983a6.304 6.304 0 0 1 5.965-4.264Z" fill="url(#b)"/>
    <path d="M817.555 395.261C821.646 512.352 698.22 604.78 541.87 601.708c-156.35-3.073-286.416-100.482-290.51-217.57-4.093-117.09 119.335-209.519 275.685-206.447 156.35 3.072 286.415 100.482 290.51 217.57Z" fill="#fff" fill-opacity=".6"/>
    <path fill-rule="evenodd" d="m345.179 544.815 23.045-63.443c1.494-4.113-1.552-8.462-5.929-8.462h-75.104c-4.324 0-7.366-4.251-5.967-8.343l27.681-80.983a6.304 6.304 0 0 1 5.965-4.264h262.532c4.288 0 7.326 4.182 5.998 8.258l-26.363 80.979a6.3 6.3 0 0 1-5.994 4.353h-80.881a6.306 6.306 0 0 0-5.925 4.154l-39.456 108.614c-29.349-10.372-56.222-24.247-79.602-40.863Zm198.915 61.853 83.119-223.243a6.31 6.31 0 0 1 5.913-4.105h76.564c4.354 0 7.4 4.308 5.942 8.413l-61.05 171.89c-1.458 4.105 1.588 8.417 5.945 8.417h48.769c-45.677 25.087-102.765 39.476-165.202 38.628Z" fill="url(#c)"/>
    <defs>
        <linearGradient id="b" x1="512" y1="379.32" x2="512" y2="661.63" gradientUnits="userSpaceOnUse">
            <stop stop-color="#20B873"/>
            <stop offset=".906" stop-color="#139359"/>
            <stop offset="1" stop-color="#178F59"/>
        </linearGradient>
        <linearGradient id="c" x1="514.429" y1="354.633" x2="514.429" y2="615.139" gradientUnits="userSpaceOnUse">
            <stop stop-color="#2ED087"/>
            <stop offset="1" stop-color="#1BB56F"/>
        </linearGradient>
        <radialGradient id="a" cx="50%" cy="45%" r="43%" gradientUnits="userSpaceOnUse" >
            <stop stop-color="#fff"/>
            <stop offset=".766" stop-color="#E7EDEA"/>
            <stop offset="1" stop-color="#C9D2CE"/>
        </radialGradient>
    </defs>
</svg>
