<svg version="1.2" baseProfile="tiny-ps" id="Layer_1" xmlns="http://www.w3.org/2000/svg" xmlns:xlink="http://www.w3.org/1999/xlink"
	viewBox="0 0 1488 1488" xml:space="preserve" >
	<title>vetrosemont</title>
<g transform="translate(0.000000,1488.000000) scale(0.100000,-0.100000)">
<path d="M9628,11705c-44-15-108-63-108-81c0-8-4-14-8-14c-10,0-34-82-48-165c-3-16-7-41-10-55c-24-129-24-650,1-915   c2-22,6-74,10-115c8-102,15-170,20-200c2-14,7-56,10-95c3-38,7-77,10-85c2-8,6-37,9-65c3-27,8-67,11-87c3-21,7-55,10-75   c22-154,42-278,45-278c1,0,3-16,5-35s6-46,8-60c3-14,8-43,11-65c4-22,12-69,19-104l12-65l-47-90c-25-50-60-129-78-176   s-36-94-41-105c-13-30-45-136-54-174c-9-42-19-27-30,44c-10,61-11,66-24,124c-15,64-21,99-27,146c-8,69-27,145-36,145   c-4,0-8,6-8,14c0,36-123,107-205,120c-16,2-55,10-85,16s-68,13-85,16c-67,10-134,23-165,31c-14,3-32,7-40,8c-26,3-94,16-112,21   c-14,4-15,10-6,37c5,18,10,38,11,45c0,6,3,12,7,12c3,0,6,8,6,18c1,17,77,315,94,362c4,14,18,63,30,110s26,96,30,110   c11,32,73,233,76,243c1,4,3,9,4,12s3,8,5,13c1,4,4,14,7,22c15,39,53,146,55,155c19,74,9,111-36,138c-63,37-121,15-155-57   c-19-42-47-116-51-136c-1-3-22-70-47-150c-59-183-142-471-154-530c-2-14-7-32-10-40s-8-26-10-40c-3-14-14-56-26-95   c-20-69-26-91-27-109c-1-12-14,1-17,17c-1,7-9,32-17,57c-9,25-27,88-42,140c-68,248-115,408-153,515c-53,150-115,278-147,303   c-40,31-95,27-136-10c-29-27-31-33-27-79c3-27,12-57,20-67c13-15,98-210,102-237c1-5,11-39,23-75c25-77,57-187,74-250   c6-25,14-52,17-60s6-22,8-30s10-37,18-65c38-131,56-194,56-200c0-7-67,0-131,14c-24,5-66,12-94,16c-27,3-59,8-70,10   c-26,6-67,13-124,21c-25,3-57,8-71,10s-43,6-65,9s-51,7-65,10s-45,8-70,11s-58,8-75,10c-16,3-48,7-70,9c-21,3-46,7-55,10   c-8,2-42,7-74,11c-33,3-67,7-75,9c-16,2-19,28-8,75c4,14,16,63,27,110c22,94,21,91,44,175c21,76,20,72,36,125c7,25,14,50,16,55   c8,37,88,262,96,273c6,6,7,12,3,12s-2,7,5,15s10,15,7,15s7,26,23,58c43,89,43,130,1,173c-23,22-39,29-69,29c-54,0-83-26-116-102   c-15-35-31-71-37-80c-5-10-9-26-9-36s-4-22-9-27c-10-10-87-236-116-340c-24-87-85-317-90-340c-2-11-7-31-10-45s-8-38-10-54   c-7-38-24-68-34-62c-8,5-44,11-141,22c-25,3-56,7-70,9s-52,7-85,10s-76,8-95,11s-55,7-80,10c-25,2-65,6-90,9c-99,11-156,17-185,20   c-56,5-180,17-205,20c-14,2-40,4-58,4l-33,1l39,58c21,31,59,90,83,130c24,41,54,90,67,110c12,20,28,48,35,62c6,14,20,34,29,44   c10,11,18,23,18,28c0,7,112,187,133,213c4,6,24,33,45,60c20,28,81,95,134,149c54,55,98,102,99,105c0,3,2,15,4,25c6,30-20,82-49,101   c-20,13-37,16-70,11c-39-6-56-18-128-89c-86-86-103-105-153-172c-16-22-32-42-35-45c-9-9-117-175-130-200c-7-14-16-27-19-30   c-10-8-42-63-48-82c-3-10-9-18-14-18s-9-4-9-9c0-6-25-50-55-98s-67-109-81-135c-15-27-31-48-36-48c-4,0-8-4-8-10   c0-10-64-105-85-125c-5-6-19-10-30-9s-63,4-115,8c-52,3-120,9-150,11c-59,6-223,15-333,20c-37,1-70,5-73,7c-6,7,45,149,61,168   c7,8,18,32,25,53c6,20,16,37,21,37s8,3,8,8c-1,4,0,10,1,15c1,4,3,10,5,15c2,9,10,28,47,117c57,138,207,403,255,453c7,7,13,17,13,21   s8,16,18,27c9,10,40,50,67,87c56,76,64,114,34,163c-24,39-54,52-102,44c-47-9-61-23-186-200c-33-47-68-96-78-110s-29-45-42-70   s-29-52-36-60c-15-18-139-273-170-350c-1-3-6-20-10-37c-4-18-11-33-16-33s-9-9-9-20s-4-20-10-20c-5,0-9-3-8-7c1-5-13-39-30-77   c-18-37-35-79-38-92c-8-33-16-26-59,58c-20,40-50,96-66,124c-86,156-127,234-121,234c4,0,2,4-3,8c-16,11-102,197-135,292   c-31,88-56,113-115,114c-41,1-50-3-76-32c-30-34-39-84-20-120c5-9,30-69,56-132s66-153,90-200s53-105,66-130c12-25,27-48,33-52   s7-8,2-8s-3-8,5-17c17-22,25-35,90-159c27-53,49-98,47-99c-2-2-74-6-160-9c-101-3-167-9-185-18c-15-7-47-42-70-77s-47-67-53-71   c-26-16-126,30-211,97c-65,50-232,226-314,328c-22,28-50,61-62,75c-13,14-23,29-23,33c0,5-6,14-12,21c-7,7-22,25-33,41   c-11,15-30,40-42,55c-13,15-23,32-23,38s-4,12-9,14c-4,2-43,55-85,118s-79,120-84,125c-19,26-62,95-62,100c0,3-5,11-10,18   c-15,17-51,73-88,137c-41,69-53,89-73,120c-9,14-30,48-45,76c-100,176-119,204-153,217c-38,15-116,13-158-5c-16-6-31-12-34-12   c-4-1-20-11-36-24c-32-24-51-69-67-162c-25-143-26-576-1-720c2-14,7-49,10-79c4-30,8-61,10-70c1-9,6-43,11-76c4-33,8-62,9-65   c0-3,5-27,10-55c5-27,9-52,10-55s5-25,9-50c11-65,82-349,107-428c83-264,201-559,265-663c13-20,20-40,17-43c-4-3-1-6,5-6   c7,0,12-4,12-9c0-13,102-185,112-189c4-2,8-8,8-12c0-5,15-30,32-56c18-25,38-53,43-62c6-8,17-23,25-32s22-27,30-39   c8-13,24-33,35-45c27-31,139-156,144-161c1-2-7-34-19-71c-43-129-57-201-55-292c1-54,8-101,18-123c18-40,89-109,112-109   c8,0,15-5,15-10c0-6,6-9,13-8c8,2,11-8,10-32c-4-60-25-160-34-166c-5-3-7-10-4-15c4-5-1-44-9-87c-19-93-24-123-32-182   c-3-25-12-79-19-120s-11-78-8-82c2-5-1-8-7-8s-8-4-5-10c3-5,1-36-4-67c-5-32-13-76-16-98s-9-65-15-95c-5-30-12-75-15-100   s-8-58-10-73c-4-26-8-57-20-145c-3-21-7-48-10-61c-2-13-7-49-11-80c-3-31-8-58-9-61c-2-3-6-34-10-69c-4-34-8-70-10-80s-6-42-10-71   s-9-62-11-74s-7-39-9-61c-3-22-10-75-16-117c-5-43-12-90-14-105c-1-16-6-48-9-73c-4-25-9-63-12-85s-7-47-9-55s-7-42-10-75   c-4-33-9-76-12-95c-2-19-6-46-8-60c-10-81-17-139-20-165c-21-158-21-196-11-530c12-357,19-523,40-905c10-164,26-203,106-256   c92-61,185-72,325-40c16,4,89,20,95,21c32,5,210,70,210,76c0,5,6,9,13,9c15,0,145,66,181,93c177,128,260,206,326,304   c44,66,86,157,96,209c17,91,4,246-28,322c-6,15-12,29-13,32c-43,125-194,263-345,314c-42,14-56,17-120,30c-74,15-293,32-520,41   c-183,8-172,2-165,88c3,39,8,88,11,108c2,20,7,55,9,79s7,59,10,79c6,41,11,81,20,166c4,33,9,67,10,75c2,9,6,43,10,75   c4,33,9,69,11,80c4,19,9,55,18,135c3,19,7,52,10,73c6,35,11,69,22,147c3,19,7,51,10,70s7,55,10,80s7,52,9,60s7,42,10,75   c4,33,8,67,10,75c4,14,7,35,20,132c12,81,15,104,19,123c2,11,7,45,11,75c3,30,9,69,11,85c3,17,7,45,10,64c2,19,6,46,8,60   c10,59,17,108,21,136c5,42,15,105,20,135c3,14,7,43,10,65s8,51,10,65c3,14,7,43,11,65c3,22,7,47,9,55s7,33,10,55c5,38,12,77,19,100   c3,11,15,69,21,100c2,11,4,27,4,35c3,38,16,44,67,26c125-42,231-76,249-79c11-2,27-7,35-10c27-10,112-33,382-103c10-2,26-6,35-8   c10-2,38-9,63-15c47-12,54-14,135-32c28-6,57-13,65-16c20-8,28-10,70-18c19-3,53-10,75-16c22-5,49-12,60-14c114-26,164-37,185-41   c14-3,53-12,88-20c34-8,75-17,92-19c16-2,34-6,40-10s25-8,43-10s43-7,57-10s41-9,60-13c34-8,35-10,34-53c-1-38-8-125-19-249   c-2-19-6-64-9-100c-4-36-8-85-11-110c-2-25-7-81-10-125c-4-44-9-93-11-110c-3-16-7-55-9-85c-7-90-15-183-20-215c-2-16-5-51-6-77   c-1-27-5-48-8-48s-6-26-7-58c-1-31-4-86-7-122c-9-103-17-181-23-229c-3-25-7-70-9-100c-3-31-7-74-10-96s-8-65-10-95   c-14-156-22-227-41-400c-3-30-7-71-9-90c-8-78-15-137-20-180c-3-25-8-65-10-90s-7-61-10-80s-8-55-10-79s-7-62-10-85s-8-59-11-81   c-7-51-12-85-25-159c-21-120,13-187,123-239c40-19,102-46,138-60c36-13,74-28,85-32s26-9,32-11c7-1,32-9,55-17   c161-57,404-84,568-63c78,10,240,70,240,88c0,4,6,8,13,8c6,0,26,12,42,26c17,14,39,34,50,43c80,67,171,236,198,369   c11,56,8,165-6,232c-41,183-160,358-337,493c-30,23-56,45-58,50c-2,4-8,7-14,7c-5,0-28,13-51,29c-65,44-303,159-362,175   c-5,2-19,6-30,10c-11,5-31,12-45,16s-34,12-45,16c-37,14-128,30-189,33c-22,1-24,5-21,43c2,24,6,79,10,123c3,44,8,105,10,135   c8,98,14,183,20,255c3,39,8,99,11,135c2,36,7,90,9,120c3,30,7,91,10,135s7,100,9,125c6,65,17,208,21,260c2,38,10,141,20,265   c1,17,6,82,10,145c9,132,9,138,16,144c2,3,22,1,44-4s53-11,69-14c72-13,142-28,156-33c8-3,31-6,51-8c20-1,41-5,47-9c5-3,26-8,45-10   c20-3,53-9,74-15c21-5,54-12,73-15s94-17,165-31c72-14,139-28,150-30c11-1,56-10,100-19c44-8,91-18,105-20c14-3,25-5,25-6s9-3,20-4   s38-6,60-10c22-5,51-10,65-12c14-3,50-10,80-16s62-12,70-13s29-5,45-8c17-4,44-9,60-12c37-7,229-43,270-50c37-7,72-14,105-21   c14-3,39-7,55-10c17-3,53-9,80-14c28-5,61-11,75-14c14-2,88-16,165-31c77-14,151-28,165-31c14-2,39-7,55-11c17-3,39-7,50-9   c46-8,74-13,150-28c44-9,81-16,82-16c3,0-44-127-57-155c-5-11-26-65-46-120s-50-134-66-175s-33-86-38-100c-4-14-40-108-80-210   c-39-102-73-189-74-195c-2-5-8-23-14-38c-7-16-12-31-12-34s-6-19-14-36c-8-18-22-54-32-82c-9-27-21-54-26-59c-4-6-8-16-8-23   s-21-65-46-129s-47-122-48-128s-6-18-11-26s-10-17-10-20c0-4-23-68-42-120c-3-8-7-19-9-25c-3-14-64-176-75-200c-5-11-21-54-35-95   c-15-41-31-86-37-100c-5-14-11-29-12-35c-2-5-31-82-66-170s-64-162-65-165s-5-15-9-27s-27-66-52-120c-74-161-85-241-44-321   c35-68,104-115,211-142c62-16,305-14,435,4c22,3,54,8,70,10c17,2,44,10,60,16c17,6,37,13,45,15c56,12,305,120,335,145   c8,7,15,9,15,4s4-4,8,1c4,6,27,26,52,45c133,100,193,209,191,345c-1,38-3,77-4,85c-9,39-30,108-44,140c-44,99-127,273-155,322   c-38,67-158,205-224,258c-42,34-152,110-159,110c-4,0-21,10-38,22c-18,13-34,22-37,22c-7-2-50,15-50,19c0,2,9,30,21,63   c11,32,22,64,23,69c2,6,8,24,15,40c13,34,36,96,77,205c16,41,27,78,26,83c-1,4,3,7,8,7s9,3,8,8c-2,9,23,93,32,107c4,6,24,60,45,120   c21,61,41,115,45,120c4,6,13,31,21,58c7,26,16,47,19,47s6,8,7,18c1,9,25,78,53,152s64,173,80,220c43,122,48,131,79,125   c14-2,43-7,65-10c21-4,48-9,60-11c11-2,41-7,66-10s52-7,60-9s38-7,65-11c28-3,58-8,69-10c10-2,44-6,75-9c31-4,63-8,71-10   s51-7,95-10c44-4,83-10,87-14c4-3,10-159,13-346c7-440,10-554,30-1119c3-87,8-163,11-168c3-4,0-8-6-8s-8-5-4-12c5-7,9-33,10-58   c10-194,20-343,29-427c13-117,17-143,31-203c9-36,17-70,18-75c3-19,49-79,85-113c56-50,120-79,221-99c39-8,180-7,235,2   c28,4,61,8,75,10c14,1,43,7,65,13s54,13,70,16c53,9,209,68,255,96c8,5,45,27,83,50c37,22,67,45,67,50c0,6,5,10,11,10   c12,0,12,0,101,86c107,105,156,190,183,319c72,345-81,597-429,704c-68,21-85,25-141,36c-16,3-41,8-55,11c-40,9-119,21-211,30   c-30,3-155,7-279,8l-225,1l-1,60c-7,270-15,655-19,880l-5,270l32,20c18,11,44,41,57,65c22,41,24,55,23,175c-1,125-4,182-17,290   c-3,28-8,72-10,98c-3,26-6,51-6,55c-4,21,7,15,63-40c103-100,168-145,333-227c127-63,253-105,373-126c17-3,46-7,63-10   c92-16,338-23,377-11c10,3,35,8,57,10c22,3,55,10,73,15c17,5,32,8,32,6s30,8,68,22c37,13,77,27,90,30c12,3,22,9,22,14s7,9,16,9   c29,0,187,111,253,179c91,92,171,194,171,217c0,4,6,15,14,23c21,24,100,216,121,294c10,37,21,67,24,67s6,12,7,28c0,15,4,43,8,62   c21,97,24,140,21,320c-2,107-6,209-8,225c-3,17-8,57-12,90s-9,69-12,80c-2,11-8,40-13,65c-4,25-11,56-14,70s-8,34-10,45   s-9,39-14,63c-8,33-7,49,5,72c8,17,19,30,24,30c6,0,7,5,4,10c-3,6-1,10,4,10c6,0,11,4,11,9s30,60,66,122c36,63,80,139,96,169   c17,30,41,73,54,95c40,69,103,187,147,275c23,47,44,87,47,90c10,9,178,356,255,525c65,144,234,553,241,585c0,3,3,12,7,20   c16,42,49,137,52,150c2,8,13,42,23,75c23,69,45,143,48,165c2,8,10,40,19,70c8,30,18,73,21,95s9,54,13,70c13,54,5,161-15,194   c-45,76-133,87-244,33c-64-31-120-62-130-72c-3-3-32-23-65-45s-62-42-65-45s-21-17-40-30s-48-37-65-52c-16-15-33-28-37-28   c-5,0-16-8-26-17c-11-10-28-25-38-33c-56-44-120-96-130-105c-6-5-37-32-69-60c-33-27-69-59-81-70s-44-39-71-61c-26-23-67-59-89-80   c-23-22-82-75-130-119c-94-84-544-532-604-600c-19-22-64-75-99-117c-59-72-81-87-81-54c0,13-26,84-56,153c-8,17-14,34-14,38   c0,3-8,25-19,48c-10,23-33,76-51,117c-55,127-70,159-160,345c-47,99-90,187-93,195c-4,8-20,38-35,65c-15,28-43,79-62,115   s-42,77-53,93c-10,15-15,27-12,27s-2,12-13,28c-11,15-32,51-47,81s-33,61-41,69c-8,7-14,17-14,22s-20,43-45,83c-25,41-45,79-45,85   s-3,12-7,14c-5,2-26,32-47,68c-43,70-144,227-161,248c-5,7-18,22-27,33c-10,10-18,23-18,27c0,13-91,52-131,56   C9679,11716,9647,11712,9628,11705z M9759,11398c28-42,51-82,51-88c0-5,3-10,8-10c4,0,12-9,17-19c9-17,37-64,136-230   c15-25,25-43,104-186c74-133,107-195,162-305c32-63,61-116,66-118c4-2,7-7,7-12c0-4,35-81,79-171c43-90,97-209,120-264   c24-55,47-108,52-118c9-16,69-168,69-173c0-1-44-2-97-1c-139,1-233-14-343-54c-88-32-220-110-271-159c-9-8-39-36-66-62l-51-47   l-11,75c-6,42-9,79-6,84s1,10-4,12c-5,1-12,32-15,67c-4,36-9,67-11,71s-7,36-11,71c-7,72-12,104-14,104c-1,0-3,14-5,30   c-9,87-16,147-25,215c-5,41-12,98-15,125c-2,28-7,77-10,110s-8,80-10,105c-19,180-27,720-13,840c16,140,34,209,48,193   C9704,11479,9730,11440,9759,11398z M12715,11053c-4-16-9-39-11-53c-15-85-130-458-168-545c-8-16-28-68-46-115   c-47-123-106-264-175-415c-15-33-34-77-42-97c-8-21-18-38-22-38s-8-6-8-12c0-7-37-88-82-180s-81-171-81-174c1-4-2-10-7-13   c-6-3-31-47-56-98c-26-51-58-112-72-135c-13-24-35-63-47-88c-13-25-26-46-30-48c-5-2-8-8-8-12c0-9-41-84-101-185   c-16-27-33-57-36-65c-4-8-13-21-20-28c-11-11-15-8-23,15c-24,65-37,93-87,192c-56,111-162,275-212,329c-16,17-28,32-26,32   c5,0-55,59-124,123c-29,26-55,47-60,47c-4,0-16,8-27,18c-10,10-36,28-57,41c-39,24-39,31-2,66c5,6,30,34,54,64   c91,110,455,481,472,481c5,0,9,7,9,15s3,15,8,15c4,0,35,26,68,58c110,103,273,250,370,333c101,88,127,109,136,109c5,0,6,5,3,10   c-3,6-2,10,3,10c8,0,27,14,72,52c8,7,62,50,120,95c58,46,110,86,115,91c6,4,26,18,45,32c19,13,37,27,40,30c3,4,12,10,20,14   c8,3,33,18,55,31c22,14,42,25,44,25S12719,11068,12715,11053z M2655,10940c-3-5-2-10,3-10c4,0,16-15,25-32c9-18,28-51,42-73   s28-47,32-55c3-8,22-40,42-70c47-73,59-92,67-110c4-8,29-47,56-87c26-40,48-77,48-83c0-5,4-10,8-10c5,0,21-22,35-49   c15-27,34-54,42-61s15-19,15-26c0-8,4-14,8-14c5,0,15-12,23-27c8-16,16-30,19-33s39-52,80-110s77-107,80-110s19-23,36-45   c16-22,37-49,46-60s25-30,35-42c73-88,97-115,163-182c64-65,148-141,185-169c64-47,166-102,203-108c26-5,25-13-7-79   c-17-36-31-68-31-70s-30-65-66-142c-36-76-80-167-96-203c-52-111-228-474-238-490c-5-8-22-41-37-74l-27-58l-34,38   c-68,78-78,90-102,124c-13,19-29,40-36,47c-6,6-26,35-45,65c-18,29-36,55-39,58s-14,21-24,40c-11,19-22,37-25,40   c-18,15-150,283-195,395c-20,50-41,99-46,110s-21,56-35,100s-29,87-32,95s-7,20-9,27c-1,7-12,43-23,80c-12,38-23,79-26,92   c-2,12-7,31-10,41s-8,27-10,37s-11,50-20,88c-10,39-19,79-21,90c-1,11-10,58-19,105s-18,101-21,120s-7,49-9,65   c-28,190-39,342-39,540c0,88,3,187,7,220c3,33,6,63,6,68c1,4,6,7,12,7C2656,10950,2658,10946,2655,10940z M4995,9516   c39-2,124-7,190-10c66-4,138-9,160-11c22-3,78-7,125-10s108-8,135-10c28-3,82-7,120-10c109-9,255-23,315-30c14-1,59-6,100-9   c41-4,86-9,100-11s56-6,93-10c37-3,76-8,87-10c10-2,47-6,82-9c34-4,79-8,98-11c77-10,136-17,165-20c39-4,124-15,155-21   c14-2,97-13,185-25c88-11,171-22,185-25c14-2,59-9,100-14s86-12,100-15c14-2,43-7,65-10s51-7,65-10c14-2,59-9,100-15s86-14,100-16   s43-7,65-10s60-9,85-14s65-12,90-15c25-4,59-9,75-11c17-3,41-7,55-11c14-3,39-7,55-9c17-2,41-6,55-9c25-5,39-8,140-25   c88-15,122-21,175-31c28-5,65-11,84-14s40-10,46-15c7-6,14-7,17-4s46-3,94-12c49-9,99-18,111-19c11-2,29-6,40-9c10-3,34-8,53-11   c43-8,60-21,59-49c0-11,2-34,5-51c8-37,15-74,20-100c2-11,11-54,20-95c8-41,17-88,20-105c3-16,8-41,11-55c5-23,17-84,30-150   c3-14,7-36,10-50c7-31,11-54,31-160c9-47,18-94,21-105c2-11,5-29,7-40s15-83,29-160c15-77,29-153,32-170c3-16,8-43,10-60   c3-16,7-41,10-55s8-41,11-60s7-46,10-60c2-14,11-68,19-120c21-141,23-153,29-177c2-12,7-48,11-80c3-32,8-67,10-78s7-41,10-67   c3-27,7-67,10-90c12-96,14-117,21-208c4-52,8-129,8-170l1-75l-63-2c-41-1-60,2-56,9s0,6-13-1c-11-6-22-8-25-6c-2,3-31,7-64,10   c-32,3-70,7-84,10c-14,2-47,7-75,10c-27,3-61,7-75,10c-13,3-42,7-65,10c-22,3-51,8-65,10c-14,3-41,7-60,10s-46,7-60,10s-41,7-60,10   c-97,15-175,29-245,44c-27,6-63,14-80,17c-16,3-39,7-50,9s-60,11-110,20c-49,10-97,18-105,19c-8,2-28,6-45,9c-16,4-41,9-55,11   c-14,3-72,14-130,24c-58,11-121,23-140,26s-46,8-60,11s-37,7-52,10c-15,2-35,6-45,9s-34,8-53,10c-19,3-46,8-60,11s-38,8-55,10   c-66,12-201,37-220,42c-11,2-31,6-45,8s-50,8-80,15c-30,6-70,13-89,16c-18,2-37,6-41,9c-4,2-32,7-61,11c-30,3-57,8-62,11   c-4,2-20,6-35,9c-15,2-49,9-77,14c-27,5-61,12-75,14c-14,3-47,10-75,15c-27,6-70,13-94,16s-48,8-52,11c-5,3-19,7-32,9   c-12,2-38,7-57,10s-44,8-55,10c-21,3-51,10-95,20c-14,3-40,7-59,10c-18,2-42,7-53,11c-11,3-30,7-41,9c-12,1-42,7-67,13   s-61,13-80,16s-64,12-100,20c-36,9-83,18-105,21s-47,9-55,12s-24,7-35,8c-29,4-216,44-425,90c-63,14-125,28-137,30   c-99,21-143,31-288,65c-71,17-139,33-150,35c-18,4-164,40-205,51c-46,11-107,26-120,29c-30,6-233,64-342,97c-40,12-75,23-78,23   c-11,2-86,27-105,35c-11,5-45,17-75,28s-84,33-120,50c-36,16-75,32-87,36c-20,6-23,14-23,54c0,26,5,63,10,82c6,19,12,46,15,60   c7,36,46,154,54,160c3,3,22,36,41,75c19,38,52,101,73,140c21,38,38,71,37,73s33,74,76,160s79,159,79,162c2,9,50,105,55,110   c3,3,10,19,16,35c22,57,139,300,151,313c7,7,10,18,7,25c-2,7,3,22,13,33s19,26,21,34s14,40,29,70c14,30,41,91,61,135   c40,91,59,124,81,143c13,10,79,12,326,7C4786,9522,4957,9518,4995,9516z M10662,9484c5-3,24-8,41-11c100-15,276-93,356-158   c77-63,241-246,241-270c0-3,9-15,20-27c44-47,212-417,235-518c2-8,15-58,29-110s30-120,36-150s12-66,15-80s8-45,11-70s8-56,11-70   s7-115,9-225c3-186,2-207-21-305c-28-116-50-190-70-235c-8-17-23-52-34-79c-28-64-107-181-143-212c-16-13-26-24-22-24s-2-8-14-17   c-11-10-31-27-44-38c-37-32-118-84-152-99c-87-38-106-45-166-60c-207-50-450-36-673,40c-97,32-242,105-304,150c-17,13-34,24-37,24   s-14,8-24,18c-10,9-32,29-48,43c-31,27-75,78-124,143c-63,83-167,322-185,428c-3,17-8,34-10,38s-7,22-10,41s-10,60-16,91   c-5,31-12,78-14,105c-3,26-7,68-10,93c-13,124-16,222-6,276c10,56,14,73,26,127c3,12,7,31,9,42c39,187,128,436,213,600   c150,287,382,477,613,502c30,3,57,7,59,9C10465,9501,10652,9490,10662,9484z M10150,4776c30-4,66-9,80-11c81-10,227-44,270-62   c8-3,21-7,28-9c34-7,129-62,163-95c42-41,76-102,86-156c18-104-5-243-54-317c-35-55-128-144-198-191c-33-22-62-42-65-45   c-21-24-213-94-290-106c-8-1-26-5-39-8c-75-17-241-28-241-16c0,4-9,6-20,3c-23-6-110,24-110,38c0,5-6,9-14,9c-25,0-47,82-61,235   c-16,165-24,277-31,415c-11,246-12,315-3,321C9665,4789,10082,4785,10150,4776z M5585,4756c97-13,372-116,448-168   c15-11,27-17,27-14c0,4,42-23,94-58c142-97,227-187,284-301c60-123,72-228,34-325c-3-8-6-17-7-20c-21-56-29-70-38-70c-6,0-7-3-4-6   c7-7-44-77-74-104c-48-42-66-54-116-76c-114-51-294-52-493-4c-51,12-230,70-245,79c-5,3-14,6-20,7c-27,5-125,55-122,62   c3,4,8,31,12,61s9,63,11,75s7,45,10,75s7,62,9,72c7,34,16,105,20,149c2,25,6,65,9,90c9,68,17,140,21,185c8,90,30,276,34,296   C5480,4768,5499,4767,5585,4756z M8109,4616c37-19,82-47,99-61c18-15,32-24,32-20c0,13,156-151,186-196c17-25,43-72,59-105   c15-32,47-100,70-149c64-135,84-223,61-275c-16-36-69-110-80-110c-6,0-19-9-30-19c-26-24-190-107-231-117c-17-4-34-10-40-14   c-11-9-134-47-180-55c-106-20-344-23-408-6c-49,14-63,32-47,60c5,10,6,21,3,25c-3,3-1,6,5,6c7,0,12,4,12,9s9,30,20,55   c11,26,19,48,19,51c1,3,8,19,16,35c9,17,12,30,8,30c-5,0-3,4,3,8c5,4,18,30,28,57c10,28,24,64,32,80c23,54,264,702,264,712   c0,8,20,33,27,33C8039,4650,8071,4635,8109,4616z M3435,4295c240-12,391-24,445-36c77-16,130-33,130-41c0-4,3-7,8-6   c32,9,135-91,171-166c40-85,48-194,21-268c-10-26-15-49-12-52c3-4,0-6-6-6c-7,0-12-5-12-11c0-20-90-124-156-179   c-79-66-112-89-224-153c-61-35-233-99-252-94c-10,3-18,2-18-3c0-8-45-18-148-34c-40-5-92,13-93,34c-8,100-19,292-24,399   c-18,393-25,614-20,621c2,4,19,5,37,4C3300,4302,3369,4299,3435,4295z"/>
<path d="M10140,8712c-24-8-51-21-58-28c-47-47-64-196-29-249c35-52,56-66,105-72c176-20,270,243,122,340   C10245,8726,10192,8729,10140,8712z"/>
<path d="M10788,8652c-85-31-137-98-123-160c15-71,133-162,210-162c54,0,75,14,138,90c20,25,15,149-8,188   C10968,8670,10884,8687,10788,8652z"/>
<path d="M9769,8149c-37-39-35-85,6-149c46-71,65-104,71-122c4-10,10-18,14-18s10-8,14-17c8-26,31-63,135-223   c80-122,108-153,213-240c95-78,87-72,133-99c96-57,207-78,303-57c46,9,112,37,112,46c0,4,11,11,24,14c27,7,176,149,176,169   c0,2,43,68,95,146s95,147,95,152s3,9,8,9c4,0,23,27,42,60s38,60,43,60c4,0,7,5,7,11s11,25,24,42c14,18,38,58,55,90   c27,50,29,61,19,90c-13,36-41,60-77,65c-48,6-79-18-132-102c-29-44-56-82-61-84c-4-2-8-8-8-14s-11-26-25-44s-25-37-25-43   s-4-11-10-11c-5,0-10-6-10-13s-13-28-30-47c-16-19-29-39-30-43c0-4-29-50-65-102s-65-99-65-105c0-5-4-10-10-10c-5,0-10-5-10-10   c0-16-61-80-77-80c-7,0-13-5-13-11c0-17-89-51-136-51c-39,0-118,29-149,54c-41,34-59,48-103,83c-27,22-76,76-109,120   c-64,86-189,286-186,296c1,4-7,15-17,24c-11,10-20,22-20,26c0,23-93,151-116,159C9829,8188,9799,8182,9769,8149z"/>
</g>
</svg>