<?xml version="1.0" encoding="utf-8"?>
<!-- Generator: Adobe Illustrator 27.5.0, SVG Export Plug-In . SVG Version: 6.00 Build 0)  -->
<svg version="1.2" baseProfile="tiny-ps" xmlns="http://www.w3.org/2000/svg" viewBox="0 0 216 216">
  <title>Letuska.cz</title>
<rect fill="#FFFFFF" width="216" height="216" />
<g>
	<polyline fill-rule="evenodd" fill="#EE7D00" points="138,142.7 161.4,157.2 109.1,157.2 138,142.7  " />
	<polyline fill-rule="evenodd" fill="#C6531D" points="126.4,157.2 116.7,169.4 99.5,169.4 85.7,142.7 109.1,157.2 126.4,157.2  " />
	<path fill-rule="evenodd" fill="#EE7D00" d="M98.5,137.5l8.5,5.2c1.9,1.2,4.1,1.3,6.1,0.3l11-5.5l-12.3,2.1c-0.8,0.2-1.5,0.2-2.3,0   L98.5,137.5" />
	<path fill="#009EE2" d="M165.2,192.8c1.3-1.9,1.8-4.1,1.3-6.4c-0.4-2.3-1.7-4.1-3.8-5.4L131,161.5l-1.3,16.2h-10l-14.5,18.8   l-9.6-18.8h-9.7l1.3-16.3l-32.7,16.4c-2.1,1-3.4,2.6-4.1,4.8c-0.7,2.1-0.5,4.3,0.4,6.3l7.1,13.8h100.3L165.2,192.8z" />
	<path fill-rule="evenodd" fill="#C6531D" d="M124.1,137.5l-12.3,2.1c-0.8,0.2-1.5,0.2-2.3,0l-11-2.1H124.1" />
	<path fill="#1D1D1B" d="M117.5,35.5C96.6,35.5,78,46.3,69.1,64c-1.9,3.8-3.3,7.8-4.2,12.2c-1,4.8-1.3,10.1-1.1,15.6   c0.7,11,6,19.8,10.9,29.3c0.1,0.1,0.2,0.2,0.4,0.1c0.1-0.1,0.2-0.2,0.2-0.3c-2.5-9.4,1.3-19.2,9.8-24.7   c13.2-8.7,41.1-23.8,54.6-23.8c8.4,0,13.4,8.6,15.4,19.2c1.7,9.4-0.1,20.8-4.7,29.2c-0.1,0.1,0,0.3,0.1,0.4s0.3,0.1,0.4-0.1l2.3-3   c3-3.9,6.9-11.1,8.7-16c4.6-12.7,4.2-28.7-1.5-41.1C152.3,44,135.4,35.5,117.5,35.5" />
	<path fill-rule="evenodd" fill="#4FBEEE" d="M61,38.3L61,38.3L61,38.3L61,38.3 M110.2,14L61,38.3L98.9,49L110.2,14L110.2,14   L110.2,14z" />
	<polyline fill-rule="evenodd" fill="#0087C7" points="67.7,67.1 61,38.3 90.8,38.3 67.7,67.1 67.7,67.1  " />
	<polyline fill-rule="evenodd" fill="#009EE2" points="104.8,67.1 129.2,36.8 110.2,14 67.7,67.1 104.8,67.1  " />
	<path fill-rule="evenodd" fill="#1D1D1B" d="M96.7,103.8c-0.6,0-1.2,0.5-1.2,1.2c0,0.6,0.5,1.2,1.2,1.2c0.6,0,1.2-0.5,1.2-1.2   C97.8,104.3,97.3,103.8,96.7,103.8 M135.9,103.8c-0.6,0-1.2,0.5-1.2,1.2c0,0.6,0.5,1.2,1.2,1.2s1.2-0.5,1.2-1.2   C137.1,104.3,136.6,103.8,135.9,103.8z M128.4,103.5c-0.5,0.9-0.9,2-0.9,3.1c0,1.9,0.9,3.6,2.3,4.7h6.5c1.4-1.1,2.3-2.7,2.3-4.7   c0-1.7-0.7-3.2-1.9-4.3c0.1,0,0.2,0,0.4,0.1c3,0.5,5.5,1.8,7.3,3.5c-1.3-2.2-4.5-4.3-8.4-4.9c-5.6-1-10.5,0.9-11,4.1   c-0.1,0.4-0.1,1,0,1.4C125.8,105.2,126.9,104.2,128.4,103.5z M82.5,105.8c1.3-2.2,4.5-4.3,8.4-4.9c5.6-1,10.5,0.9,11,4.1   c0.1,0.4,0.1,1,0,1.4c-0.8-1.3-2.1-2.3-3.6-3c0.6,0.9,1,2,1,3.2c0,1.9-0.9,3.6-2.3,4.7h-6.5c-1.4-1.1-2.3-2.7-2.3-4.7   c0-1.7,0.7-3.2,1.9-4.2c-0.1,0-0.1,0-0.2,0C86.9,102.9,84.4,104.2,82.5,105.8z" />
	<polyline fill-rule="evenodd" fill="#EE7D00" points="155.4,191.8 164.3,178.8 157.2,174.5 148.3,187.4 155.4,191.8  " />
	<polyline fill-rule="evenodd" fill="#EE7D00" points="60.1,189.3 53.1,175.3 60.4,171.5 67.6,185.5 60.1,189.3  " />
</g>
</svg>
