<?xml version="1.0" encoding="UTF-8" standalone="yes"?>
<svg version="1.2" baseProfile="tiny-ps" viewBox="0 0 113.4 113.4" xml:space="preserve" xmlns="http://www.w3.org/2000/svg">
  <title>bimi-svg-tiny-12-ps</title>
  <rect fill="#FFFFFF" width="113.4" height="113.4"/>
  <g>
    <g>
      <path fill="#00FF00" d="M39.3,52.7c-1.2-1.3-2.8-2-4.8-2H16.9c-2,0-3.6,0.7-4.8,2s-1.9,3.1-1.9,5.3s0.6,4,1.8,5.3&#xD;&#xA;&#x9;&#x9;&#x9;c1.2,1.3,2.9,2,4.9,2h17.4c2,0,3.6-0.7,4.9-2c1.2-1.3,1.8-3.1,1.8-5.3S40.5,54.1,39.3,52.7z"/>
    </g>
    <g>
      <path fill="#191919" d="M49.1,62.4c-0.7,0.8-1.7,1.3-3.1,1.3c-1.2,0-2.1-0.3-2.7-1c-0.6-0.7-0.9-1.7-0.9-3v-7.1h2.4v7&#xD;&#xA;&#x9;&#x9;&#x9;c0,1.4,0.6,2.1,1.7,2.1c1.2,0,2-0.4,2.4-1.3v-7.8h2.5v10.9h-2.3L49.1,62.4z"/>
      <path fill="#191919" d="M59.6,54.8c-0.3-0.1-0.7-0.1-1-0.1c-1.1,0-1.9,0.4-2.3,1.3v7.5h-2.4V52.5h2.3l0.1,1.2&#xD;&#xA;&#x9;&#x9;&#x9;c0.6-0.9,1.4-1.4,2.5-1.4c0.4,0,0.6,0,0.9,0.1L59.6,54.8z"/>
      <path fill="#191919" d="M75.6,58.8l-1.1,1.1v3.6h-2.4V48h2.4v8.9l0.8-1l3-3.4h2.9l-4,4.5l4.5,6.4h-2.8L75.6,58.8z"/>
      <path fill="#191919" d="M82.4,57.9c0-1.1,0.2-2,0.6-2.9c0.4-0.9,1-1.5,1.8-2c0.8-0.5,1.6-0.7,2.6-0.7c1.5,0,2.7,0.5,3.6,1.4&#xD;&#xA;&#x9;&#x9;&#x9;c0.9,0.9,1.4,2.2,1.5,3.8l0,0.6c0,1.1-0.2,2-0.6,2.9c-0.4,0.8-1,1.5-1.8,2s-1.7,0.7-2.7,0.7c-1.5,0-2.8-0.5-3.7-1.5&#xD;&#xA;&#x9;&#x9;&#x9;c-0.9-1-1.4-2.4-1.4-4.1L82.4,57.9L82.4,57.9z M84.8,58.1c0,1.1,0.2,2,0.7,2.6s1.1,1,1.9,1s1.5-0.3,1.9-1c0.5-0.6,0.7-1.6,0.7-2.8&#xD;&#xA;&#x9;&#x9;&#x9;c0-1.1-0.2-2-0.7-2.6c-0.5-0.6-1.1-1-1.9-1c-0.8,0-1.4,0.3-1.9,1C85.1,55.9,84.8,56.8,84.8,58.1z"/>
      <path fill="#191919" d="M100.7,60.5c0-0.4-0.2-0.8-0.5-1c-0.4-0.2-1-0.4-1.8-0.6c-0.8-0.2-1.5-0.4-2.1-0.7&#xD;&#xA;&#x9;&#x9;&#x9;c-1.2-0.6-1.8-1.4-1.8-2.6c0-0.9,0.4-1.7,1.2-2.4c0.8-0.6,1.8-0.9,3-0.9c1.3,0,2.4,0.3,3.2,1c0.8,0.6,1.2,1.5,1.2,2.5h-2.4&#xD;&#xA;&#x9;&#x9;&#x9;c0-0.5-0.2-0.9-0.5-1.2c-0.4-0.3-0.8-0.5-1.4-0.5c-0.5,0-1,0.1-1.3,0.4c-0.3,0.2-0.5,0.6-0.5,1c0,0.4,0.2,0.7,0.5,0.9&#xD;&#xA;&#x9;&#x9;&#x9;s1,0.4,1.9,0.6c1,0.2,1.7,0.5,2.3,0.8c0.5,0.3,1,0.6,1.2,1.1c0.3,0.4,0.4,0.9,0.4,1.5c0,1-0.4,1.8-1.2,2.4&#xD;&#xA;&#x9;&#x9;&#x9;c-0.8,0.6-1.9,0.9-3.2,0.9c-0.9,0-1.7-0.2-2.4-0.5c-0.7-0.3-1.2-0.8-1.6-1.3s-0.6-1.2-0.6-1.8h2.4c0,0.6,0.3,1,0.7,1.3&#xD;&#xA;&#x9;&#x9;&#x9;c0.4,0.3,0.9,0.5,1.6,0.5c0.6,0,1.1-0.1,1.5-0.4C100.5,61.2,100.7,60.9,100.7,60.5z"/>
      <path fill="#191919" d="M70.1,60.3c-0.1,0.7-0.7,1.8-1.7,2.4c-0.7,0.4-1.6,0.8-2.8,0.9c-1.2,0-2.6-0.5-3.6-1.5&#xD;&#xA;&#x9;&#x9;&#x9;c-1-1-1.4-2.3-1.4-3.9V58c0-1.1,0.2-2.1,0.6-2.9c0.4-0.9,1-1.5,1.8-2c0.8-0.5,1.6-0.7,2.5-0.7c1.5,0,2.6,0.5,3.4,1.4&#xD;&#xA;&#x9;&#x9;&#x9;c0.8,0.9,1.2,2.3,1.2,4v1H63c-0.1,1,0.4,1.8,0.8,2.2c0.4,0.4,0.8,0.7,1.8,0.7c1,0,2.1-0.5,2.4-1.3H70.1z M65.5,54.3&#xD;&#xA;&#x9;&#x9;&#x9;c-0.7,0-1.2,0.2-1.6,0.7c-0.4,0.5-0.7,1.1-0.8,2h4.7v-0.2c-0.1-0.8-0.3-1.4-0.7-1.9C66.7,54.5,66.2,54.3,65.5,54.3z"/>
    </g>
    <path fill="#191919" d="M33.2,60.9c0.4,0.4,0.8,0.7,1.8,0.7c1,0,2.1-0.5,2.4-1.3h2c-0.1,0.7-0.7,1.8-1.7,2.4&#xD;&#xA;&#x9;&#x9;c-0.7,0.4-1.6,0.8-2.8,0.9c-1.2,0-2.6-0.5-3.6-1.5c-1-1-1.4-2.3-1.4-3.9V58c0-1.1,0.2-2.1,0.6-2.9c0.4-0.9,1-1.5,1.8-2&#xD;&#xA;&#x9;&#x9;c0.8-0.5,1.6-0.7,2.5-0.7c1.5,0,2.6,0.5,3.4,1.4c0.8,0.9,1.2,2.3,1.2,4v1h-7.1C32.3,59.7,32.8,60.5,33.2,60.9z M37.1,56.8&#xD;&#xA;&#x9;&#x9;c-0.1-0.8-0.3-1.4-0.7-1.9c-0.4-0.4-0.9-0.6-1.6-0.6c-0.7,0-1.2,0.2-1.6,0.7c-0.4,0.5-0.7,1.1-0.8,2h4.7L37.1,56.8L37.1,56.8z"/>
  </g>
</svg>