<?xml version="1.0" encoding="UTF-8"?>
<svg xmlns="http://www.w3.org/2000/svg" baseProfile="tiny-ps" version="1.2" xmlns:xlink="http://www.w3.org/1999/xlink" viewBox="0 0 198.4 198.4" xml:space="preserve ">
<title>GoodCycleSystem</title>
  <!-- Generator: Adobe Illustrator 28.7.3, SVG Export Plug-In . SVG Version: 1.2.0 Build 164)  -->
  <g>
    <g id="Layer_1">
      <rect width="198.4" height="198.4" rx="56.7" ry="56.7" fill="#fff"/>
      <g>
        <g>
          <g>
            <path d="M124.4,146.9c1.1.7,2.7,1.2,4.4,1.2,2.5,0,4-1.3,4-3.1s-1-2.7-3.6-3.7c-3.1-1-5-2.7-5-5.2s2.4-5,6.1-5,3.4.4,4.2.9c-1-.2-3.2-.3-5,.4-1.9.7-2.9,2.2-2.9,3.5s1.2,2.6,3.8,3.6c3.2,1.2,4.8,2.7,4.8,5.4s-2.2,5.3-6.6,5.3-3.8-.6-4.9-1.2l.6-2h.1Z" fill="#00428e"/>
            <path d="M138.4,139.5l2.2,6.1c.2.7.5,1.5.6,2.1h0c.2-.6.4-1.4.6-2.2l2-6.1h2l-2.8,7.4c-1.3,3.6-2.2,5.4-3.5,6.5-.9.8-1.8,1.1-2.3,1.2l-.5-1.6c.5-.1,1.1-.5,1.6-.9s1.1-1.1,1.5-2.1c0-.2.1-.3.1-.5s0-.3-.1-.5l-3.8-9.6h2l.4.2Z" fill="#00428e"/>
            <path d="M147,148c.6.4,1.5.8,2.4.8,1.3,0,2-.7,2-1.5s-.5-1.4-1.9-1.9c-1.8-.7-2.7-1.7-2.7-3s1.3-3,3.5-3,1.9.3,2.5.6l-.5,1.4c-.4-.2-1.1-.6-2.1-.6s-1.7.7-1.7,1.4.6,1.3,1.9,1.8c1.8.7,2.7,1.5,2.7,3.1s-1.4,3.1-3.8,3.1-2.1-.3-2.9-.7l.5-1.4h.1Z" fill="#00428e"/>
            <path d="M157.9,136.5v3h2.7v1.4h-2.7v5.6c0,1.3.4,2,1.4,2s.8,0,1.1-.1v1.4c-.3.2-.8.3-1.6.3s-1.6-.3-2-.8c-.5-.6-.7-1.5-.7-2.7v-5.7h-1.6v-1.4h1.6v-2.5l1.8-.5h0Z" fill="#00428e"/>
            <path d="M163.3,145c0,2.6,1.6,3.6,3.5,3.6s2.1-.2,2.8-.5l.3,1.4c-.6.3-1.8.7-3.4.7-3.1,0-5-2.1-5-5.2s1.8-5.6,4.8-5.6,4.2,3,4.2,4.9,0,.7,0,.9h-7.1v-.2ZM168.8,143.7c0-1.2-.5-3.1-2.6-3.1s-2.7,1.7-2.8,3.1h5.4Z" fill="#00428e"/>
            <path d="M172.6,142.5v-2.8h1.6v1.7h.1c.6-1,1.5-1.9,3.2-1.9s2.4.9,2.9,2.1h0c.3-.6.7-1,1.1-1.4.6-.5,1.3-.7,2.3-.7s3.3.9,3.3,4.5v6.1h-1.8v-5.9c0-2-.7-3.2-2.2-3.2s-1.9.8-2.2,1.7c0,.3-.2.6-.2,1v6.4h-1.8v-6.2c0-1.7-.7-2.9-2.1-2.9s-2,.9-2.3,1.9c0,.3-.1.6-.1.9v6.3h-1.8v-7.6h0Z" fill="#00428e"/>
          </g>
          <g>
            <path d="M86.1,139.5l2.2,6.1c.2.7.5,1.5.6,2.1h0c.2-.6.4-1.4.6-2.2l2-6.1h2l-2.8,7.4c-1.3,3.6-2.2,5.4-3.5,6.5-.9.8-1.8,1.1-2.3,1.2l-.5-1.6c.5-.1,1.1-.5,1.6-.9s1.1-1.1,1.5-2.1c0-.2,0-.3,0-.5s0-.3,0-.5l-3.8-9.6h2l.4.2Z" fill="#00428e"/>
            <path d="M102,149.5c-.5.3-1.6.6-2.9.6-3.1,0-5.1-2.1-5.1-5.3s2.1-5.6,5.5-5.6,2.1.3,2.6.5l-.4,1.5c-.4-.3-1.1-.5-2.1-.5-2.3,0-3.6,1.8-3.6,3.9s1.5,3.9,3.6,3.9,1.7-.3,2.3-.5l.3,1.4h-.2Z" fill="#00428e"/>
            <path d="M104.1,134.9h1.8v15.3h-1.8v-15.3Z" fill="#00428e"/>
            <path d="M109.8,145c0,2.6,1.6,3.6,3.5,3.6s2.1-.2,2.8-.5l.3,1.4c-.6.3-1.8.7-3.4.7-3.1,0-5-2.1-5-5.2s1.8-5.6,4.8-5.6,4.2,3,4.2,4.9,0,.7,0,.9h-7.1v-.2ZM115.2,143.7c0-1.2-.5-3.1-2.6-3.1s-2.7,1.7-2.8,3.1h5.4Z" fill="#00428e"/>
            <path d="M71.4,140.7c0-4.5,2.4-8,7.7-8.8,2.1-.3,3.5-.2,4.1,0h0c-.6-.3-2.2-.8-4.5-.8-5.9,0-9.9,3.9-9.9,9.7s4,9.4,9.3,9.4,4.1-.5,5-.9l-.5-1.9c-1,.5-2.5.8-4,.8-4.6,0-7.3-2.9-7.3-7.4h0c0,.1.1-.1.1-.1Z" fill="#00428e"/>
          </g>
          <g>
            <path d="M39.2,144.7c0,3.8-2.8,5.4-5.1,5.4s-4.8-2-4.8-5.4,2.3-5.5,5.1-5.5,4.9,2.1,4.9,5.4h-.1ZM31.1,144.7c0,2.1,1,4,3.1,4s3.1-1.9,3.1-4-.8-4-3.1-4-3.1,2.2-3.1,4.1h0Z" fill="#00428e"/>
            <path d="M50.8,144.7c0,3.8-2.8,5.4-5.1,5.4s-4.8-2-4.8-5.4,2.3-5.5,5.1-5.5,4.9,2.1,4.9,5.4h-.1ZM42.7,144.7c0,2.1,1,4,3.1,4s3.1-1.9,3.1-4-.8-4-3.1-4-3.1,2.2-3.1,4.1h0Z" fill="#00428e"/>
            <path d="M62.3,134.6v15.3h-1.6v-1.8h0c-.6,1.2-1.8,2-3.4,2-2.5,0-4.4-2.1-4.4-5.3s2.1-5.6,4.6-5.6,2.6.7,3.1,1.6h0v-6.2h1.8,0ZM60.4,143.7v-.8c-.3-1.2-1.3-2.2-2.7-2.2s-3.1,1.7-3.1,4,1,3.9,3,3.9,2.4-.9,2.7-2.3v-2.6h0Z" fill="#00428e"/>
            <path d="M11.3,140.7c0-5.8,4-9.7,9.9-9.7s3.8.5,4.5.8h0c-.6-.2-2-.3-4.1,0-5.3.9-7.5,4.4-7.7,8.8h0c0-.1,0,0,0,0,0,4.7,2.9,7.5,7.3,7.5s2.7-.2,3.3-.5v-5.5h-3.8v-1.9h6.2v8.9c-1.1.4-3.3,1-5.8,1s-5.2-.7-7.1-2.4c-1.6-1.5-2.6-4-2.6-6.9h0c0-.1-.1-.1-.1-.1Z" fill="#00428e"/>
          </g>
        </g>
        <g>
          <path d="M115,59.6c0,8.8-7.1,15.8-15.8,15.8s-15.8-7.1-15.8-15.8,7.1-15.8,15.8-15.8,15.8,7.1,15.8,15.8Z" fill="#00428e"/>
          <g>
            <path d="M143.4,82.2c1.2,2.5,1.7,5.1,1.5,7.8-1.1,13.7-21.4,24.3-45.7,24.2-24.3,0-44.5-10.6-45.7-24.2-.2-2.7.3-5.3,1.5-7.8-2.8,3.6-4.2,7.7-3.8,11.9,1.2,14.4,22.5,25.6,48,25.6s46.8-11.2,48-25.6c.4-4.2-1-8.2-3.8-11.9Z" fill="#00428e"/>
            <path d="M134.2,73.9c.9,2,1.4,4,1.2,6.2-.9,10.9-17,19.3-36.2,19.3s-35.3-8.4-36.2-19.3c-.2-2.1.2-4.2,1.2-6.2-2.2,2.9-3.3,6.1-3,9.4,1,11.4,17.8,20.3,38.1,20.4,20.3,0,37.1-8.9,38.1-20.4.3-3.3-.8-6.5-3-9.4h-.2Z" fill="#00428e"/>
            <path d="M123.2,68.1c.6,1.3.9,2.8.8,4.3-.6,7.5-11.6,13.2-24.8,13.2s-24.2-5.8-24.8-13.2c0-1.5.2-2.9.8-4.3-1.5,2-2.3,4.2-2.1,6.5.7,7.9,12.2,14,26.1,14s25.5-6.2,26.1-14c.2-2.3-.6-4.5-2.1-6.5h0Z" fill="#00428e"/>
          </g>
        </g>
      </g>
    </g>
  </g>
</svg>