<?xml version="1.0" encoding="UTF-8" standalone="yes"?>
<svg role="img" viewBox="85 -20 495 495" version="1.2" width="495" height="495" baseProfile="tiny-ps" xmlns="http://www.w3.org/2000/svg">
  <title>Curi</title>
  <defs/>
  <g transform="translate(1.1814361,-1.1654726)">
    <g fill="#ffc828" transform="translate(-9.8514361,-9.5190549)">
      <path d="m 496.31,180.08 c 3.22,3 6.16,6.18 8.81,9.5 29.27,30.75 38.32,74.13 26.83,112.69 29.49,-43.76 23.79,-102.71 -16.78,-140.44 L 422.26,75.44 c -5.31,-4.94 -13.82,-4.85 -19.03,0.19 -5.2,5.04 -5.11,13.12 0.2,18.06 l 92.9,86.4 z"/>
      <path d="m 459.44,215.78 c 3.24,3 6.16,6.18 8.81,9.5 29.27,30.77 38.34,74.13 26.83,112.69 29.49,-43.76 23.79,-102.7 -16.78,-140.44 l -92.91,-86.39 c -5.3,-4.94 -13.82,-4.85 -19.03,0.19 -5.2,5.05 -5.11,13.13 0.2,18.06 l 92.9,86.4 z"/>
      <path d="M 465.36,257.07 298.42,418.71 c -5.2,5.05 -5.13,13.13 0.19,18.06 2.66,2.47 6.1,3.68 9.55,3.64 3.46,-0.02 6.88,-1.31 9.49,-3.83 L 475.34,283.89 c -2.12,-9.23 -5.45,-18.24 -9.97,-26.83 m 12.31,61.27 -140.7,136.24 c -5.2,5.04 -5.13,13.12 0.17,18.06 2.66,2.47 6.11,3.68 9.56,3.64 3.45,-0.04 6.88,-1.31 9.47,-3.83 l 97.09,-94.01 c 14.4,-17.98 22.5,-38.85 24.4,-60.1 M 186.03,296.18 c -3.24,-3 -6.16,-6.18 -8.81,-9.5 -29.27,-30.75 -38.34,-74.13 -26.83,-112.69 -29.49,43.76 -23.79,102.71 16.78,140.44 l 92.9,86.39 c 5.32,4.94 13.82,4.85 19.03,-0.19 5.21,-5.04 5.13,-13.12 -0.19,-18.06 l -92.9,-86.4 z"/>
      <path d="m 222.9,260.49 c -3.24,-3 -6.16,-6.18 -8.81,-9.5 -29.28,-30.75 -38.34,-74.13 -26.83,-112.69 -29.49,43.76 -23.8,102.7 16.78,140.44 l 92.9,86.39 c 5.31,4.94 13.82,4.85 19.03,-0.19 5.21,-5.05 5.13,-13.13 -0.19,-18.06 l -92.9,-86.4 z"/>
      <path d="M 216.97,219.2 383.91,57.55 c 5.21,-5.04 5.14,-13.12 -0.19,-18.04 -2.64,-2.47 -6.1,-3.69 -9.55,-3.66 -3.45,0.04 -6.87,1.32 -9.47,3.84 L 207.01,192.38 c 2.12,9.23 5.45,18.23 9.95,26.83 m -12.3,-61.27 140.7,-136.23 c 5.2,-5.05 5.13,-13.13 -0.19,-18.07 -2.65,-2.45 -6.09,-3.68 -9.54,-3.64 -3.45,0.04 -6.88,1.32 -9.49,3.83 l -97.06,94.01 c -14.41,17.98 -22.52,38.85 -24.42,60.1"/>
    </g>
    <g fill="#ffc828" transform="translate(-9.8514361,-9.5190549)">
      <path d="m 469.86,443.67 c 0,-0.8 -0.06,-1.85 -0.13,-2.25 h 0.28 c 2.56,-0.03 5.47,-0.38 7.39,-0.38 5.38,0 8.96,3.25 8.96,8.13 0,3.91 -2.81,6.6 -7.13,6.96 v 0.12 c 0.73,0 2.91,1.09 3.77,2.56 l 3.16,5.42 c 0.42,0.72 1.41,1.51 1.53,1.63 -0.31,0.5 -1.2,0.51 -1.99,0.51 -1.12,0 -2.4,-0.27 -2.8,-0.96 l -2.58,-4.48 c -1.9,-3.3 -3.71,-3.69 -6.21,-3.73 h -0.83 v 6.54 c 0,0.83 0.08,2.17 0.13,2.29 -0.13,0.04 -1,0.21 -1.83,0.21 -0.83,0 -1.71,-0.17 -1.83,-0.21 0.04,-0.12 0.13,-1.46 0.13,-2.29 v -20.09 z m 2,10.67 v 0.04 h 4.71 c 4.06,0 6.25,-1.82 6.25,-5.21 0,-3.13 -2.5,-5.21 -6.25,-5.21 -1.11,0 -2.26,0.15 -3.29,0.41 v 9.39 z"/>
      <path d="m 477.35,476.37 c -12.13,0 -21.99,-9.86 -21.99,-21.99 0,-12.13 9.86,-21.99 21.99,-21.99 12.13,0 21.99,9.86 21.99,21.99 0,12.13 -9.86,21.99 -21.99,21.99 z m 0,-41.66 c -10.85,0 -19.68,8.82 -19.68,19.68 0,10.86 8.82,19.68 19.68,19.68 10.86,0 19.68,-8.82 19.68,-19.68 0,-10.86 -8.82,-19.68 -19.68,-19.68 z"/>
    </g>
  </g>
</svg>