<?xml version="1.0" encoding="utf-8"?>
<!-- Generator: Adobe Illustrator 26.3.1, SVG Export Plug-In . SVG Version: 6.00 Build 0)  -->
<svg version="1.2" baseProfile="tiny-ps" id="Layer_1" xmlns="http://www.w3.org/2000/svg" xmlns:xlink="http://www.w3.org/1999/xlink"
	viewBox="0 0 100 100" xml:space="preserve">
<title>Lulus</title>
<rect width="100" height="100"/>
<g>
	<path fill="#FFFFFF" d="M68.3,60.7c0-0.1-0.3-1.3-0.4-2.3c0-1,0.1-1.7,0.4-2.2c0.9-1.5-0.3-1.8-1-2.1c-0.8-0.3-1.3,0.2-1.5,0.8
		c-0.5,1.2-0.8,1.9-1.5,2.9c-0.7,0.9-1.2,1.6-1.8,1.9c-1.2,0.6-1.4-0.7-1-2.1c0.3-1.2,0.8-2.2,1.4-3.3c0.6-1.1-0.1-1.5-1.1-2
		c-1.5-0.7-2,2.5-2.3,3.2c-0.5,0.9-0.9,1.7-1.9,3c-0.6,0.7-2.3,2.7-3.4,2.3c-0.2-0.1-0.3-0.2-0.5-0.3c-0.6-0.5-1.2-1.2-1.8-2.1
		c-0.2-0.3-0.5-0.9-0.6-1.3c-0.1-0.4-0.2-0.5,0-0.9c1.3-2.2,1.6-4.9,2-7.4c0.5-3,0.3-8-0.4-11c-0.3-1.3-1.4-2.1-2.7-2.1
		c-1.1,0-2.1,1-2.4,1.9c-1,2.6-1,5.4-1,8.2c0,3,0.3,6,1,8.9c0,0.2,0.6,1.6,0.5,1.8c0,0.1-0.1,0.1-0.1,0.2c0,0.1-0.1,0.2-0.2,0.3
		c-2.3,2.6-4.2,3.9-5.9,4c-0.6,0-0.9-1.1-0.9-1.3c-0.2-1.7-0.2-2.5,0.3-4c0.2-0.6-1.1-2-1.8-1.9c-0.4,0.1-0.8,0.4-0.9,0.7v0.1
		c0,0.1-0.1,0.2-0.1,0.4c0,0.4-0.1,1.1-0.2,1.5c-0.1,0.2-0.1,0.3-0.2,0.5c-0.3,0.9-0.8,1.8-1.2,2.3c-0.3,0.4-0.7,0.9-1.3,0.8
		C35,60,34.7,59,34.6,58.3c-0.1-0.4-0.1-0.9-0.1-1.3c0-0.4,0.1-0.9,0.1-1.3c0-0.4-0.2-0.8-0.5-1s-0.5-0.2-0.9-0.4
		c-0.8-0.4-1.1-0.3-1.3,0.1c0,0-0.2,0.5-0.2,0.6c-1.5,1.3-3.5,3.1-5.1,4.2c-1.5,1-3.1,2.1-4.9,2.4c-0.6,0.1-0.6-0.2-0.8-0.7
		c0-0.1-0.1-0.2-0.1-0.3v-0.1c-0.2-1-0.3-2-0.3-2.9v-0.2c-0.1-2.7,0-5.3-0.1-8s-0.2-5.4-0.2-8.2c0-0.4,0-0.8,0-1.2s0-0.9-0.1-1.3
		c-0.1-1,0.1-2.1-0.8-2.8c-0.5-0.4-1.2-0.4-2-0.1c-0.3,0.1-0.5,0.4-0.5,0.7c0,0.4,0.3,0.8,0.4,1.1c0,0.1,0.1,0.5,0.2,0.7
		c0.3,1.6,0.2,2.2,0.2,3.8c0.1,2.3,0.2,3.3,0.2,5.6c0,2.1,0,4.3,0.1,6.5c0,2.1-0.1,4.2,0.2,6.2c0.1,0.7,0.4,1.9,0.9,2.7
		c0.8,1.3,2.5,1.2,3.9,0.8c0.6-0.2,1.3-0.4,2-0.7c1-0.5,1.9-1.1,2.8-1.7l0.1-0.1c1.3-0.9,2.3-1.8,3.3-2.6c0.1-0.1,1-0.8,1-0.8
		c0.2,0.6,0.2,1.2,0.4,1.8c0.5,1.5,1.5,2.8,3.1,2.9c1.4,0,2.4-1,3.2-2.1c0.1-0.2,0.2,0,0.2,0c0.1,0.1,0.5,1.1,0.8,1.6
		c0.4,0.6,0.9,0.9,1.4,1.1c0.7,0.3,2.5-0.2,3.1-0.5c2.4-1.1,5.1-3.9,5.1-3.9c0.1,0,0.8,1.6,1.5,2.4c0.7,0.8,1.5,1.6,2.5,2
		c0.4,0.2,1.1,0.2,1.5,0.1c2.5-1,3.9-2.9,3.9-2.9c0,0.1,0.3,1.7,2.1,2.1c1.4,0.3,2.5-0.5,3.4-1.2c0.6-0.5,0.9-1,1.3-1.5
		c-0.1,0.2,0.2,1,0.3,1.2c0.3,1.1,1.2,2.8,2.6,2.4c0.7-0.2,1.2-1,1.5-1.6c0.3-0.5,0.4-1,0.1-1.7C69.6,59.1,68.6,60.4,68.3,60.7z
		 M50.5,52.1c-0.1,0.5-0.4,1.4-0.7,1.8c-0.7-2.1-1.1-5.6-1.1-7.9c0-4.7,0.4-7.3,1.3-7.3c1.2,0,1.1,4.3,1.2,4.8
		C51.4,46.5,51.2,49.2,50.5,52.1z"/>
	<path fill="#FFFFFF" d="M91.6,56.8c-0.3-0.6-2.7-0.3-3.3-0.3c-1.3,0.1-2.4,0.2-3.9,0.4c-1.9,0.3-2.7,0.4-4.5,0.8
		c-0.2,0-1.1,0.3-1.5,0.3c-0.2,0-1.4-1.2-1.7-1.5c-0.4-0.5-0.9-0.9-1.2-1.5c-0.1-0.2-0.3-0.5-0.2-0.8c0.1-0.4,0.8-0.3,1.2-0.3
		c0.7,0.1,1.3,0.5,2,0.4c0.5-0.1,1.1-0.6,1.2-1.1c0.1-0.4-0.2-0.8-0.6-1c-0.2-0.1-0.5-0.1-0.8-0.2c-0.4-0.1-0.8-0.3-1.2-0.4
		c-0.8-0.2-1.6-0.1-2.3,0.1c-0.7,0.3-1.5,0.8-1.8,1.4c-0.3,0.6-0.3,1.4,0,2c0.2,0.6,0.6,1.2,1.1,1.7c0.3,0.3,0.5,0.6,0.8,0.9
		c0.3,0.3,0.7,0.6,1,1c-0.6,0.2-0.7,0.2-1,0.3c-1,0.3-1.9,0.7-2.7,1.3c-0.4,0.3-1,0.8-1.1,1.4c-0.1,0.6,0.4,1.1,1,1.3
		c1.4,0.5,3,0.6,4.6,0.6c1.4-0.1,2.9-0.2,4.1-1c0.5-0.4,0.8-0.9,0.6-1.5c-0.2-0.6-0.7-1.1-1.1-1.6c0.6-0.2,2.2-0.6,4.3-0.9
		c3.5-0.4,4.8-0.6,5.4-0.4c0.5,0.2,0.8,0.5,1.3,0C91.9,57.8,91.7,57.1,91.6,56.8z M77.9,61.7c-0.5,0.2-1.3,0.3-1.8,0.2
		c-0.3,0-0.6,0-0.9,0c-0.2,0-0.7-0.1-0.9-0.2l-0.1-0.1c0-0.1,0.1-0.1,0.1-0.1c0.3-0.2,0.8-0.4,1.2-0.5c0.3-0.1,1.4-0.5,1.6-0.5
		C77.3,60.6,78.6,61.5,77.9,61.7z"/>
</g>
</svg>
