<?xml version="1.0" encoding="UTF-8"?>
<svg xmlns="http://www.w3.org/2000/svg" baseProfile="tiny-ps" version="1.2" width="140" height="140" viewBox="0 0 140 140">
  <title>pganalyze</title>
  <g>
    <rect x="0" width="140" height="140" fill="#fff"/>
    <g>
      <path d="M119.9,28.3c0-.1.2-.2.3-.2.1,0,.2.1.2.2.2,1.3.9,4.6.9,4.6.2,1.6,1.1,3.1,2.4,4l3.6,1.8c.1,0,.2.2.1.4,0,0,0,0-.1.1l-3.6,1.7c-1.4.9-2.3,2.4-2.5,4,0,0-.8,3.3-1,4.6,0,.1-.1.3-.3.3-.1,0-.3-.1-.3-.3-.2-1.3-.9-4.6-.9-4.6-.2-1.6-1.1-3.1-2.4-4l-3.5-1.8c-.1,0-.2-.2-.1-.3,0,0,0,0,.1-.1l3.6-1.8c1.4-.9,2.3-2.4,2.5-4,0,0,.8-3.3,1-4.6" fill="#302654"/>
      <path d="M42.7,71.1c-1.5.2-3-1.9-3.2-4.5-.2-1.3,0-2.5.6-3.7-.2,0-.5,0-.7,0-2.2.2-3.4,3.2-3,7s2.1,7,4.3,6.8c2-.2,3.5-3,3.4-6.4-.3.4-.8.7-1.4.8" fill="#302654"/>
      <path d="M48.9,100.4c-3.9-.9-8-1-12-.1,7.4,8.2,17.6,13.4,28.7,14.6-2.7-4.6-8.2-12.1-16.7-14.4" fill="#302654"/>
      <path d="M94.9,89.8c-5.7,1.9-16.1,4.7-33.2,4.4-3.4-.1-6.9-.5-10.3-1.2-1.7-.4-3.5-1.4-4-2.7-.4-1.1-1.2-4.3-2.2-5-12.1-7.7-10.5-18-10.5-18,.2-4.8,2.6-9,5.1-9.2,3-.3,5.9,2.7,6.4,8.7.3,2.8-.2,9.5,0,9.5s.1,4.3,8.7,5.5c1.4.2,3.4,3.7,5.3,5.8,1.2,1.4,3,2.2,4.9,2.1,6.9-.1,20.9-.8,27.5-2.9.5-.1,1-.4,1.5-.7.3-.3.5-.8.9-1,.9-.4,1.2.3,1.1,1l.2,2.5c0,.8-.9,1.1-1.4,1.3M62,61.3c0-1,0-2,0-3,0-.1,0-.3.2-.3s.3,0,.3.2c.3.7.6,1.4,1,2.5.6,1.6.9,1.5,1.7,1.8.6.2,1.1.4,1.7.6.4.1.6.5.5.9,0,0,0,0,0,0-.3.6-.6,1.2-.9,1.9-.5,1.3-.5,2.7,0,3.9.3,1.1.7,2.2,1.2,3.3,0,.2,0,.4-.2.4-.1,0-.3,0-.4,0-.8-.9-1.5-1.8-2.1-2.8-.6-1.3-1.6-2.4-2.7-3.2-.7-.3-1.4-.7-2-1.2-.3-.2-.4-.6-.2-.9,0,0,0,0,0,0,.4-.5.8-1,1.3-1.6s.8-.9.7-2.6M45.6,58.9l13.5-12.7c.2-.1.2-.4,0-.5-2.1-3.1-10.2-5.2-10.2-5.2,0,0,.2-2.1,1.4-2.5,3.1-.7,6.3-1,9.4-1,4.6.2,9.2.8,13.7,2,.2,0,.3.2.3.4,0,.2-.2.3-.4.3-4.3,0-8.4.5-12.4,2.9-.1.1-.2.3,0,.5,0,0,0,0,0,0l1.1,1.1c0,0,.2.1.4,0,1.6-.6,11.1-4,17.2-1.3,0,0,.2,0,.2.2l5.8,5.1s.1.1,0,.2l-.4.3c0,0-.1,0-.2,0-.9-.4-7.3-2.9-20.2,2.6-.8.4-1.6.9-2.3,1.5l-14.8,13.3s0,0-.2,0c0,0-.2,0-.2-.2v-.6c-.2-2.2-.9-4.4-2-6.3,0,0,0-.1,0-.2M87.5,52c1.9,3.1,3.4,6.5,4.5,10,1,3.3,1.7,6.8,2.1,10.2.2,2.6.3,5.3.3,7.9,0,2.7-2.2,4-4.2,4.7-4.1,1.1-8.3,1.7-12.6,1.6-.3,0-.5-.2-.5-.4,0-.1,0-.2.1-.3,3.8-4.2,12-17.2,1.7-34-.2-.3,0-.7.3-.9,0,0,.1,0,.2,0,7-1.5,7.8.5,8.2,1.3M70.3,25.2c-24.8,0-44.9,20.1-44.9,44.9,0,10.1,3.4,19.9,9.6,27.8,2.1-.5,4.2-.9,6.4-1.1.2,0,.3-.1.3-.3,0,0,0,0,0,0-.2-.8-.5-1.6-.7-2.5-.6-2.5-.6-5.2-.2-7.8,0,0,.1-.1.2-.1,0,0,0,0,0,0,.5.4,1.5,1.2,1.7,1.6.5,2,1.1,4,2,5.8.6,1.1,2.8,2.2,5.5,2.8,7.7,1.7,26.1,2.2,45.3-3.3.2,0,.4,0,.4.2,0,0,0,0,0,.1,0,.4,0,1.9,0,2.7,0,.2-.1.5-.3.6l-.5.2-1.2.5c-.8.3-1.7.6-2.5.9-1.7.5-3.4,1-5.2,1.4-3.9.8-7.8,1.4-11.7,1.8v.2c.1.3.3.8.6.8.6,0,1.1.2,1.7.2,1.3,0,2.6,0,3.9-.2s2.7-.3,4-.4c3.4-.4,6.8-1.3,10-2.6.3-.1.6,0,.8.3,0,0,0,0,0,0,.4,2.1,1,4.1,1.9,6,19.7-15,23.6-43.2,8.5-63-8.5-11.1-21.7-17.7-35.7-17.7" fill="#302654"/>
    </g>
  </g>
</svg>