<?xml version="1.0" encoding="utf-8"?>
<!-- Generator: Adobe Illustrator 27.9.0, SVG Export Plug-In . SVG Version: 6.00 Build 0)  -->
<svg version="1.2" baseProfile="tiny-ps" id="Layer_1" xmlns="http://www.w3.org/2000/svg" xmlns:xlink="http://www.w3.org/1999/xlink"
	viewBox="0 0 146 146" xml:space="preserve">
<title>Scripbox</title>
<path fill-rule="evenodd" fill="#F58024" d="M125.7,58h-4.1v9.7h10.5V58h-4v1.3h2.5v7.1H123v-7.1h2.6L125.7,58L125.7,58z"/>
<path fill-rule="evenodd" fill="#F58024" d="M127.1,65.3c-0.4,0-0.7-0.1-1.1-0.2c-0.4-0.2-0.7-0.3-1.1-0.6l0.5-0.8
	c0.2,0.2,0.6,0.4,0.8,0.5c0.3,0.1,0.6,0.2,0.8,0.2s0.4-0.1,0.6-0.2s0.2-0.2,0.2-0.4l0,0c0-0.1,0-0.2-0.1-0.2s-0.2-0.2-0.2-0.2
	c-0.1-0.1-0.2-0.1-0.4-0.2c-0.2-0.1-0.2-0.1-0.4-0.2c-0.2-0.1-0.4-0.1-0.6-0.2c-0.2-0.1-0.3-0.2-0.5-0.3s-0.2-0.2-0.4-0.5
	c-0.1-0.2-0.2-0.4-0.2-0.6l0,0c0-0.2,0.1-0.5,0.2-0.7s0.2-0.4,0.4-0.5c0.2-0.2,0.3-0.2,0.6-0.3s0.5-0.1,0.7-0.1
	c0.3,0,0.6,0.1,1,0.2c0.3,0.1,0.6,0.2,0.9,0.5l-0.5,0.9c-0.2-0.2-0.5-0.3-0.7-0.4c-0.2-0.1-0.5-0.2-0.7-0.2s-0.4,0.1-0.5,0.2
	c-0.2,0.1-0.2,0.2-0.2,0.4l0,0c0,0.1,0,0.2,0.1,0.2c0.1,0.1,0.2,0.2,0.2,0.2c0.1,0.1,0.2,0.1,0.4,0.2c0.2,0.1,0.2,0.1,0.4,0.2
	c0.2,0.1,0.4,0.2,0.6,0.2c0.2,0.1,0.3,0.2,0.5,0.3s0.2,0.2,0.4,0.4c0.1,0.2,0.2,0.4,0.2,0.6l0,0c0,0.3-0.1,0.6-0.2,0.7
	c-0.1,0.2-0.2,0.4-0.4,0.6s-0.4,0.2-0.6,0.3C127.6,65.3,127.3,65.3,127.1,65.3z"/>
<path fill-rule="evenodd" fill="#F58024" d="M127.1,65.3L127.1,65.3c-0.3,0-0.7-0.1-1.1-0.2c-0.4-0.2-0.7-0.3-1.1-0.6l0,0l0,0
	l0.5-0.8l0,0l0,0c0.2,0.2,0.6,0.4,0.8,0.5c0.3,0.1,0.6,0.2,0.8,0.2s0.5-0.1,0.6-0.2c0.2-0.1,0.2-0.2,0.2-0.4l0,0
	c0-0.1,0-0.2-0.1-0.2c-0.1-0.1-0.2-0.2-0.2-0.2s-0.2-0.1-0.4-0.2c-0.2-0.1-0.2-0.1-0.4-0.2l0,0c-0.2-0.1-0.4-0.1-0.6-0.2
	c-0.2-0.1-0.3-0.2-0.5-0.3s-0.2-0.2-0.3-0.4c-0.1-0.2-0.2-0.4-0.2-0.6l0,0c0-0.2,0.1-0.5,0.2-0.6c0.1-0.2,0.2-0.4,0.4-0.5
	c0.2-0.2,0.3-0.2,0.6-0.3s0.5-0.1,0.7-0.1c0.3,0,0.6,0.1,1,0.2c0.3,0.1,0.6,0.2,0.9,0.5l0,0l0,0l-0.5,0.9l0,0l0,0
	c-0.2-0.2-0.5-0.3-0.7-0.4c-0.2-0.1-0.5-0.2-0.7-0.2s-0.4,0.1-0.6,0.2c-0.2,0.1-0.2,0.2-0.2,0.4l0,0c0,0.1,0,0.2,0.1,0.2
	c0.1,0.1,0.2,0.2,0.2,0.2c0.1,0.1,0.2,0.1,0.4,0.2c0.2,0.1,0.2,0.1,0.4,0.2l0,0c0.2,0.1,0.4,0.2,0.6,0.2c0.2,0.1,0.3,0.2,0.5,0.3
	s0.2,0.2,0.3,0.4s0.2,0.4,0.2,0.6l0,0c0,0.3-0.1,0.6-0.2,0.7c-0.1,0.2-0.2,0.4-0.4,0.5c-0.2,0.2-0.3,0.2-0.6,0.3
	C127.6,65.2,127.3,65.3,127.1,65.3L127.1,65.3c0.2,0,0.5,0,0.7-0.1s0.4-0.2,0.6-0.3c0.2-0.2,0.3-0.3,0.4-0.6s0.2-0.5,0.2-0.7l0,0
	c0-0.2-0.1-0.5-0.2-0.6c-0.1-0.2-0.2-0.3-0.4-0.4c-0.2-0.1-0.3-0.2-0.5-0.3s-0.4-0.2-0.6-0.2l0,0l0,0c-0.2-0.1-0.3-0.1-0.4-0.2
	c-0.2-0.1-0.2-0.1-0.3-0.2c-0.1-0.1-0.2-0.2-0.2-0.2c-0.1-0.1-0.1-0.2-0.1-0.2l0,0c0-0.2,0.1-0.2,0.2-0.4c0.1-0.1,0.3-0.2,0.5-0.2
	s0.4,0.1,0.6,0.2c0.2,0.1,0.5,0.2,0.7,0.4l0,0l0.5-0.9l0,0c-0.2-0.2-0.6-0.3-0.9-0.5c-0.3-0.1-0.6-0.2-1-0.2c-0.2,0-0.5,0-0.7,0.1
	s-0.4,0.2-0.6,0.3s-0.3,0.3-0.4,0.6c-0.1,0.2-0.2,0.4-0.2,0.7l0,0c0,0.2,0.1,0.5,0.2,0.6c0.1,0.2,0.2,0.3,0.4,0.5
	c0.2,0.2,0.3,0.2,0.5,0.3s0.4,0.2,0.6,0.2l0,0l0,0c0.2,0.1,0.3,0.1,0.4,0.2c0.2,0.1,0.2,0.1,0.3,0.2c0.1,0.1,0.2,0.2,0.2,0.2
	c0.1,0.1,0.1,0.2,0.1,0.2l0,0c0,0.2-0.1,0.3-0.2,0.4c-0.2,0.1-0.3,0.2-0.6,0.2s-0.6-0.1-0.8-0.2c-0.2-0.1-0.6-0.2-0.8-0.5l0,0
	l-0.5,0.8l0,0c0.3,0.2,0.6,0.5,1.1,0.6C126.4,65.2,126.7,65.3,127.1,65.3L127.1,65.3z"/>
<path fill-rule="evenodd" fill="#F58024" d="M36.4,77c-0.6,0.6-1.4,1.1-2.3,1.1c-1.6,0-3-1.4-3-3s1.4-3,3-3c0.9,0,1.8,0.4,2.3,1.1
	l3.3-2.8c-1.4-1.6-3.4-2.7-5.7-2.7c-4.1,0-7.3,3.2-7.3,7.3s3.2,7.3,7.3,7.3c2.3,0,4.3-1.1,5.6-2.6L36.4,77z"/>
<path fill-rule="evenodd" fill="#F58024" d="M48.2,67.7c-4.1,0-7.5,3.2-7.5,7.3l-0.2,7.3H45V75c0-1.6,1.4-3,3.1-3h2.1v-4.2
	L48.2,67.7z"/>
<path fill-rule="evenodd" fill="#F58024" d="M26,77.4c0,0.8-0.2,1.5-0.5,2.1s-0.7,1.1-1.3,1.5c-0.6,0.4-1.2,0.7-1.9,1
	c-0.7,0.2-1.5,0.3-2.4,0.3c-1.1,0-2.2-0.2-3.2-0.4s-2-0.6-2.8-1.1l1.8-3.3c0.2,0.2,0.6,0.3,0.9,0.5s0.7,0.3,1.1,0.4
	s0.7,0.2,1.1,0.2c0.4,0.1,0.7,0.1,1.1,0.1c1.1,0,1.5-0.3,1.5-1c0-0.3-0.2-0.6-0.5-0.7c-0.3-0.2-0.7-0.3-1.2-0.5s-1-0.3-1.5-0.5
	s-1.1-0.4-1.5-0.7c-0.5-0.3-0.9-0.7-1.2-1.2S15,73,15,72.2c0-0.7,0.2-1.3,0.5-1.9s0.7-1.1,1.2-1.5s1.1-0.7,1.9-1
	c0.7,0,1.5-0.1,2.4-0.1c1,0,1.9,0.1,2.6,0.2c0.7,0.2,1.5,0.4,2.2,0.7l-1.6,3.2c-0.4-0.2-0.9-0.4-1.3-0.6C22.4,71,22,71,21.6,71
	c-0.5,0-0.9,0.1-1.2,0.2c-0.3,0.2-0.4,0.4-0.4,0.7c0,0.2,0.2,0.5,0.5,0.6c0.3,0.2,0.7,0.3,1.2,0.4c0.5,0.2,1,0.2,1.5,0.4
	c0.6,0.2,1.1,0.4,1.5,0.6c0.5,0.3,0.9,0.6,1.2,1.1C25.8,76,26,76.6,26,77.4z"/>
<path fill-rule="evenodd" fill="#F58024" d="M97.3,68c-4.2,0-7.6,3.2-7.6,7.2s3.4,7.2,7.6,7.2s7.6-3.2,7.6-7.2S101.5,68,97.3,68z
		M97.3,72.7c1.5,0,2.8,1.1,2.8,2.6s-1.2,2.6-2.8,2.6c-1.5,0-2.8-1.1-2.8-2.6C94.6,73.8,95.9,72.7,97.3,72.7z"/>
<path fill-rule="evenodd" fill="#F58024" d="M53.9,61.2c1.5,0,2.8,1.1,2.8,2.4c0,1.4-1.3,2.4-2.8,2.4s-2.8-1.1-2.8-2.4
	C51.1,62.3,52.4,61.2,53.9,61.2z"/>
<path fill-rule="evenodd" fill="#F58024" d="M65.1,78.4c-1.7,0-3.1-1.3-3.1-2.9s1.4-2.9,3.1-2.9s3.1,1.3,3.1,2.9
	S66.8,78.4,65.1,78.4z M65.1,68.3c-4.1,0-7.5,3.1-7.5,7l0,0V88h4.2v-6.1c1,0.5,2.2,0.7,3.3,0.7c4.2,0,7.5-3.2,7.5-7.2
	C72.7,71.5,69.3,68.3,65.1,68.3z"/>
<path fill-rule="evenodd" fill="#F58024" d="M81,78.4c-1.7,0-3.1-1.3-3.1-2.9s1.4-2.9,3.1-2.9s3.1,1.3,3.1,2.9S82.7,78.4,81,78.4z
		M81,68.3c-1.2,0-2.4,0.2-3.3,0.7v-6.1h-4.2v12.7l0,0c0.1,3.9,3.5,7,7.5,7c4.2,0,7.5-3.2,7.5-7.2C88.6,71.5,85.2,68.3,81,68.3z"/>
<path fill-rule="evenodd" fill="#F58024" d="M51.9,82.3V67.7H56v14.6C56,82.3,51.9,82.3,51.9,82.3z"/>
<path fill-rule="evenodd" fill="#F58024" d="M114.8,67.7l-2.9,3.9l-2.9-3.9h-5.2l5.5,7.3l-5.4,7.3h5.1l2.9-3.8l2.9,3.8h5.1
	l-5.4-7.3l5.5-7.3H114.8z"/>
</svg>
