<?xml version="1.0" encoding="UTF-8" standalone="yes"?>
<svg version="1.2" baseProfile="tiny-ps" viewBox="0 0 150 150" xml:space="preserve" xmlns="http://www.w3.org/2000/svg">
  <title>bimi-svg-tiny-12-ps</title>
  <g>
    <rect fill="#FFFFFF" width="150" height="150"/>
  </g>
  <polygon fill="#F1D302" points="42.89,110.82 59.3,75.2 75.71,39.58 92.13,75.2 108.54,110.82 75.86,87.3 "/>
  <polygon fill="none" stroke="#000000" stroke-width="0.5" points="42.89,110.82 59.3,75.2 75.71,39.58 92.13,75.2 108.54,110.82 &#xA;&#x9;75.86,87.3 "/>
  <line fill="none" stroke="#000000" stroke-width="0.5" x1="1.06" y1="62.7" x2="150.37" y2="62.7"/>
  <line fill="none" stroke="#000000" stroke-width="0.5" x1="1.06" y1="85.32" x2="150.37" y2="85.32"/>
  <rect x="0.56" y="63.09" fill="#FFFFFF" width="149.3" height="21.73"/>
  <rect x="60.96" y="65.76" width="2.84" height="14.15"/>
  <path d="M6.46,71.69H8.5c0.76,0,1.34-0.16,1.75-0.47c0.41-0.31,0.61-0.76,0.61-1.36c0-0.65-0.21-1.14-0.62-1.45&#xA;&#x9;c-0.41-0.31-1.03-0.47-1.84-0.47H6.46V71.69z M6.46,73.65v4.08h2.61c0.75,0,1.33-0.16,1.72-0.49c0.4-0.33,0.59-0.81,0.59-1.45&#xA;&#x9;c0-0.69-0.17-1.22-0.51-1.59c-0.34-0.37-0.87-0.55-1.59-0.55H6.46z M3.62,79.91V65.76H8.4c1.67,0,2.96,0.32,3.9,0.97&#xA;&#x9;c0.93,0.65,1.4,1.62,1.4,2.91c0,0.65-0.17,1.24-0.52,1.75c-0.35,0.52-0.85,0.9-1.51,1.16c0.85,0.18,1.49,0.57,1.91,1.17&#xA;&#x9;c0.42,0.6,0.64,1.29,0.64,2.07c0,1.35-0.45,2.38-1.34,3.08c-0.89,0.7-2.16,1.04-3.8,1.04H3.62z"/>
  <path d="M20.56,71.39c-0.52,0-0.94,0.2-1.24,0.6c-0.3,0.4-0.49,0.93-0.56,1.58l0.03,0.05h3.48v-0.25c0-0.6-0.14-1.08-0.42-1.44&#xA;&#x9;C21.56,71.57,21.13,71.39,20.56,71.39z M20.82,80.12c-1.52,0-2.73-0.49-3.64-1.46c-0.91-0.97-1.36-2.21-1.36-3.7v-0.39&#xA;&#x9;c0-1.56,0.43-2.85,1.29-3.86c0.86-1.01,2.01-1.51,3.46-1.51c1.42,0,2.52,0.43,3.3,1.28c0.78,0.86,1.18,2.01,1.18,3.47v1.55h-6.28&#xA;&#x9;l-0.02,0.06c0.05,0.69,0.28,1.26,0.69,1.71c0.41,0.45,0.97,0.67,1.68,0.67c0.63,0,1.15-0.06,1.56-0.19c0.41-0.13,0.87-0.33,1.36-0.6&#xA;&#x9;l0.77,1.75c-0.43,0.35-0.99,0.64-1.68,0.87C22.44,80,21.66,80.12,20.82,80.12z"/>
  <path d="M29.47,70.73c0.33-0.48,0.74-0.85,1.22-1.12c0.48-0.27,1.01-0.4,1.59-0.4c1.1,0,1.96,0.36,2.58,1.09&#xA;&#x9;c0.63,0.73,0.94,1.85,0.94,3.38v6.24h-2.84v-6.26c0-0.82-0.14-1.39-0.43-1.74c-0.29-0.34-0.72-0.51-1.29-0.51&#xA;&#x9;c-0.39,0-0.73,0.07-1.03,0.21c-0.3,0.14-0.54,0.34-0.74,0.59v7.71h-2.84V64.75h2.84V70.73z"/>
  <path d="M41.51,78.02c0.5,0,0.94-0.12,1.33-0.37c0.39-0.25,0.65-0.53,0.79-0.86v-1.49h-1.58c-0.6,0-1.06,0.15-1.37,0.45&#xA;&#x9;c-0.31,0.3-0.47,0.67-0.47,1.09c0,0.35,0.12,0.63,0.35,0.85S41.11,78.02,41.51,78.02z M44.1,79.91c-0.1-0.24-0.19-0.49-0.27-0.76&#xA;&#x9;s-0.13-0.54-0.16-0.82c-0.29,0.51-0.68,0.94-1.15,1.27c-0.48,0.34-1.04,0.51-1.71,0.51c-1.1,0-1.95-0.28-2.55-0.85&#xA;&#x9;c-0.6-0.57-0.89-1.34-0.89-2.32c0-1.03,0.4-1.83,1.19-2.4c0.79-0.57,1.95-0.85,3.47-0.85h1.58v-0.84c0-0.51-0.13-0.9-0.4-1.18&#xA;&#x9;c-0.27-0.28-0.66-0.42-1.18-0.42c-0.46,0-0.81,0.11-1.06,0.34c-0.25,0.22-0.37,0.53-0.37,0.93l-2.74-0.01l-0.01-0.06&#xA;&#x9;c-0.05-0.89,0.34-1.65,1.16-2.3c0.82-0.64,1.89-0.97,3.22-0.97c1.26,0,2.28,0.32,3.06,0.96c0.78,0.64,1.18,1.55,1.18,2.73v4.34&#xA;&#x9;c0,0.49,0.04,0.96,0.11,1.39c0.07,0.43,0.19,0.87,0.35,1.29H44.1z"/>
  <path d="M54.16,71.84l-1.04-0.03c-0.42,0-0.77,0.09-1.04,0.26c-0.27,0.17-0.48,0.42-0.62,0.74v7.11h-2.83V69.4h2.63l0.13,1.56&#xA;&#x9;c0.25-0.55,0.57-0.98,0.96-1.29c0.39-0.31,0.84-0.46,1.36-0.46c0.14,0,0.27,0.01,0.39,0.03c0.12,0.02,0.24,0.05,0.36,0.08&#xA;&#x9;L54.16,71.84z"/>
  <path d="M68.99,69.4l0.13,1.51c0.35-0.54,0.78-0.96,1.29-1.25c0.51-0.3,1.09-0.45,1.72-0.45c1.06,0,1.89,0.33,2.49,1&#xA;&#x9;s0.89,1.71,0.89,3.14v6.57h-2.85v-6.56c0-0.71-0.14-1.21-0.43-1.5c-0.29-0.29-0.72-0.44-1.29-0.44c-0.38,0-0.71,0.08-1.01,0.23&#xA;&#x9;c-0.3,0.15-0.55,0.37-0.75,0.65v7.63h-2.84V69.4H68.99z"/>
  <path d="M83.32,77.02c0-0.31-0.15-0.58-0.45-0.81c-0.3-0.23-0.86-0.43-1.68-0.6c-1.24-0.25-2.18-0.63-2.81-1.12&#xA;&#x9;c-0.63-0.5-0.95-1.17-0.95-2.03c0-0.91,0.38-1.68,1.14-2.31c0.76-0.63,1.78-0.95,3.06-0.95c1.34,0,2.41,0.31,3.2,0.94&#xA;&#x9;s1.17,1.42,1.14,2.38l-0.02,0.06h-2.74c0-0.42-0.13-0.76-0.4-1.03c-0.27-0.27-0.66-0.4-1.18-0.4c-0.46,0-0.82,0.11-1.08,0.34&#xA;&#x9;c-0.26,0.22-0.39,0.5-0.39,0.84c0,0.32,0.14,0.59,0.41,0.8c0.28,0.21,0.83,0.39,1.68,0.55c1.3,0.26,2.26,0.64,2.89,1.14&#xA;&#x9;c0.63,0.5,0.94,1.19,0.94,2.08c0,0.95-0.4,1.72-1.22,2.32c-0.81,0.6-1.88,0.9-3.21,0.9c-1.4,0-2.51-0.35-3.32-1.06&#xA;&#x9;c-0.81-0.71-1.2-1.52-1.16-2.43l0.02-0.06h2.6c0.02,0.56,0.2,0.97,0.55,1.22c0.35,0.25,0.81,0.38,1.37,0.38&#xA;&#x9;c0.52,0,0.93-0.1,1.2-0.31C83.18,77.65,83.32,77.37,83.32,77.02z"/>
  <path d="M94.32,78.4c-0.32,0.55-0.74,0.98-1.23,1.27c-0.5,0.3-1.07,0.45-1.72,0.45c-1.11,0-1.97-0.35-2.6-1.06&#xA;&#x9;c-0.63-0.71-0.94-1.81-0.94-3.31V69.4h2.83v6.37c0,0.76,0.13,1.31,0.39,1.65c0.26,0.33,0.64,0.5,1.15,0.5&#xA;&#x9;c0.45,0,0.84-0.07,1.17-0.22s0.59-0.36,0.8-0.65V69.4h2.84v10.52h-2.42L94.32,78.4z"/>
  <path d="M104.66,71.84l-1.04-0.03c-0.42,0-0.77,0.09-1.04,0.26c-0.27,0.17-0.48,0.42-0.62,0.74v7.11h-2.83V69.4h2.63l0.13,1.56&#xA;&#x9;c0.25-0.55,0.57-0.98,0.96-1.29c0.39-0.31,0.84-0.46,1.36-0.46c0.14,0,0.27,0.01,0.39,0.03c0.12,0.02,0.24,0.05,0.36,0.08&#xA;&#x9;L104.66,71.84z"/>
  <path d="M109.68,78.02c0.5,0,0.94-0.12,1.33-0.37s0.65-0.53,0.79-0.86v-1.49h-1.58c-0.6,0-1.06,0.15-1.37,0.45&#xA;&#x9;c-0.31,0.3-0.47,0.67-0.47,1.09c0,0.35,0.12,0.63,0.35,0.85C108.96,77.91,109.28,78.02,109.68,78.02z M112.27,79.91&#xA;&#x9;c-0.1-0.24-0.19-0.49-0.27-0.76c-0.07-0.27-0.13-0.54-0.16-0.82c-0.29,0.51-0.68,0.94-1.15,1.27c-0.48,0.34-1.04,0.51-1.71,0.51&#xA;&#x9;c-1.1,0-1.95-0.28-2.55-0.85c-0.6-0.57-0.89-1.34-0.89-2.32c0-1.03,0.4-1.83,1.19-2.4s1.95-0.85,3.47-0.85h1.58v-0.84&#xA;&#x9;c0-0.51-0.13-0.9-0.4-1.18c-0.27-0.28-0.66-0.42-1.18-0.42c-0.46,0-0.81,0.11-1.06,0.34c-0.25,0.22-0.37,0.53-0.37,0.93l-2.74-0.01&#xA;&#x9;l-0.01-0.06c-0.05-0.89,0.34-1.65,1.16-2.3s1.89-0.97,3.22-0.97c1.26,0,2.28,0.32,3.06,0.96c0.78,0.64,1.18,1.55,1.18,2.73v4.34&#xA;&#x9;c0,0.49,0.04,0.96,0.11,1.39c0.07,0.43,0.19,0.87,0.35,1.29H112.27z"/>
  <path d="M119.39,69.4l0.13,1.51c0.35-0.54,0.78-0.96,1.29-1.25c0.51-0.3,1.09-0.45,1.72-0.45c1.06,0,1.89,0.33,2.49,1&#xA;&#x9;c0.6,0.67,0.89,1.71,0.89,3.14v6.57h-2.85v-6.56c0-0.71-0.14-1.21-0.43-1.5c-0.29-0.29-0.72-0.44-1.29-0.44&#xA;&#x9;c-0.38,0-0.71,0.08-1.01,0.23c-0.3,0.15-0.55,0.37-0.75,0.65v7.63h-2.84V69.4H119.39z"/>
  <path d="M132.44,77.94c0.51,0,0.91-0.15,1.22-0.44c0.3-0.29,0.46-0.69,0.46-1.18h2.58l0.03,0.06c0.03,1.06-0.37,1.95-1.2,2.67&#xA;&#x9;c-0.83,0.72-1.85,1.07-3.08,1.07c-1.57,0-2.78-0.5-3.63-1.49c-0.85-0.99-1.27-2.26-1.27-3.82v-0.29c0-1.55,0.42-2.82,1.27-3.82&#xA;&#x9;c0.85-1,2.05-1.5,3.62-1.5c1.3,0,2.34,0.37,3.13,1.11c0.79,0.74,1.18,1.71,1.15,2.92l-0.02,0.06h-2.59c0-0.54-0.15-1-0.45-1.36&#xA;&#x9;c-0.3-0.36-0.71-0.54-1.23-0.54c-0.75,0-1.28,0.29-1.59,0.87c-0.31,0.58-0.46,1.33-0.46,2.26v0.29c0,0.94,0.15,1.7,0.46,2.27&#xA;&#x9;C131.15,77.65,131.68,77.94,132.44,77.94z"/>
  <path d="M142.74,71.39c-0.52,0-0.94,0.2-1.24,0.6c-0.3,0.4-0.49,0.93-0.56,1.58l0.03,0.05h3.48v-0.25c0-0.6-0.14-1.08-0.42-1.44&#xA;&#x9;C143.73,71.57,143.31,71.39,142.74,71.39z M142.99,80.12c-1.52,0-2.73-0.49-3.64-1.46c-0.91-0.97-1.36-2.21-1.36-3.7v-0.39&#xA;&#x9;c0-1.56,0.43-2.85,1.29-3.86c0.86-1.01,2.01-1.51,3.46-1.51c1.42,0,2.52,0.43,3.3,1.28c0.78,0.86,1.18,2.01,1.18,3.47v1.55h-6.28&#xA;&#x9;l-0.02,0.06c0.05,0.69,0.28,1.26,0.7,1.71s0.97,0.67,1.68,0.67c0.63,0,1.15-0.06,1.57-0.19c0.41-0.13,0.87-0.33,1.36-0.6l0.77,1.75&#xA;&#x9;c-0.43,0.35-0.99,0.64-1.68,0.87C144.61,80,143.84,80.12,142.99,80.12z"/>
  <path d="M114.94,106.79c0.45,0,0.78,0.04,0.99,0.13c0.37,0.16,0.56,0.46,0.56,0.92c0,0.32-0.12,0.56-0.35,0.71&#xA;&#x9;c-0.13,0.08-0.3,0.14-0.52,0.17c0.28,0.04,0.49,0.16,0.62,0.35c0.13,0.19,0.2,0.38,0.2,0.56v0.26c0,0.08,0,0.17,0.01,0.27&#xA;&#x9;c0.01,0.1,0.02,0.16,0.03,0.19l0.02,0.04h-0.6c0-0.01-0.01-0.02-0.01-0.04c0-0.01-0.01-0.03-0.01-0.04l-0.01-0.12v-0.29&#xA;&#x9;c0-0.42-0.11-0.7-0.34-0.83c-0.13-0.08-0.37-0.12-0.71-0.12h-0.5v1.43h-0.64v-3.62H114.94z M115.86,107.89&#xA;&#x9;c0-0.26-0.08-0.44-0.24-0.53c-0.16-0.09-0.42-0.13-0.77-0.13h-0.54v1.31h0.57c0.27,0,0.47-0.03,0.61-0.08&#xA;&#x9;C115.74,108.35,115.86,108.17,115.86,107.89z M118.3,108.61c0,0.91-0.32,1.69-0.96,2.34c-0.64,0.65-1.42,0.97-2.33,0.97&#xA;&#x9;s-1.69-0.32-2.33-0.97c-0.64-0.64-0.96-1.42-0.96-2.34c0-0.91,0.32-1.68,0.96-2.32c0.64-0.64,1.41-0.96,2.32-0.96&#xA;&#x9;c0.91,0,1.69,0.32,2.33,0.96C117.98,106.92,118.3,107.7,118.3,108.61z M115,105.77c-0.78,0-1.45,0.28-2,0.83&#xA;&#x9;c-0.55,0.55-0.83,1.22-0.83,2.01c0,0.79,0.27,1.46,0.82,2.02c0.55,0.56,1.22,0.83,2.01,0.83s1.46-0.28,2.01-0.83&#xA;&#x9;c0.55-0.56,0.83-1.23,0.83-2.02c0-0.78-0.28-1.45-0.83-2.01C116.46,106.04,115.79,105.77,115,105.77z"/>
</svg>