<svg xmlns="http://www.w3.org/2000/svg" xmlns:xlink="http://www.w3.org/1999/xlink" version="1.2" viewBox="0 0 500 500" baseProfile="tiny-ps">
  <title>AmTrav</title>
  <path d="M97.811,272.801H69.659l-5.603,21.866H42.873l28.836-91.974h24.873l28.972,91.974h-22.003  L97.811,272.801z M93.575,256.811l-2.187-8.473c-2.597-9.156-4.92-20.089-7.516-29.656h-0.547  c-2.05,9.703-4.647,20.499-7.243,29.656l-2.187,8.473H93.575z" fill="#152034"/>
  <path d="M126.647,224.832h16.946l1.367,9.02h0.547c5.74-5.74,12.026-10.66,21.183-10.66  c9.84,0,15.853,4.237,19.269,11.753c6.15-6.286,12.71-11.753,22.003-11.753c15.033,0,21.866,10.66,21.866,28.153v43.459h-20.636  v-40.725c0-10.113-2.597-13.256-8.61-13.256c-3.553,0-7.516,2.323-12.026,6.833v47.149H167.92V254.08  c0-10.113-2.597-13.256-8.61-13.256c-3.417,0-7.516,2.323-11.89,6.833v47.149h-20.773  C126.647,294.806,126.647,224.832,126.647,224.832z" fill="#152034"/>
  <path d="M244.86,220.322h-25.419V202.83h71.475v17.493h-25.283v74.481h-20.636L244.86,220.322z" fill="#152034"/>
  <path d="M282.169,224.832h16.946l1.367,12.3h0.547c5.193-9.43,12.71-13.94,19.953-13.94  c2.87-0.137,5.74,0.41,8.336,1.367l-3.417,18.039c-2.46-0.82-5.057-1.093-7.653-1.093c-5.193,0-11.753,3.417-15.443,12.846v40.452  h-20.636V224.832z" fill="#152034"/>
  <path d="M366.9,249.705c-0.41-6.15-3.553-10.113-11.07-10.113c-5.876,0-11.89,2.46-18.586,6.286l-7.38-13.666  c8.883-5.74,19.269-8.883,29.929-9.156c17.903,0,27.743,10.113,27.743,31.569v40.042h-16.809l-1.503-7.243h-0.41  c-5.467,5.466-12.71,8.61-20.499,8.883c-12.71,0-20.636-9.293-20.636-21.183C327.678,260.638,339.294,252.575,366.9,249.705z   M355.421,280.317c4.783,0,7.926-2.187,11.616-5.876v-12.3c-14.76,1.913-19.543,6.15-19.543,11.48  C347.357,278.267,350.501,280.317,355.421,280.317z" fill="#152034"/>
  <path d="M385.35,224.832h20.909l9.02,32.936c1.777,6.97,3.69,14.213,5.467,21.593h0.547  c1.64-7.38,3.553-14.623,5.33-21.593l9.156-32.936h19.953l-22.823,69.971h-23.916L385.35,224.832z" fill="#152034"/>
</svg>