<?xml version="1.0" encoding="utf-8"?>
<!-- Generator: Adobe Illustrator 26.0.1, SVG Export Plug-In . SVG Version: 6.00 Build 0)  -->
<svg version="1.2" baseProfile="tiny-ps" xmlns:xlink="http://www.w3.org/1999/xlink" viewBox="0 0 116 116" xmlns="http://www.w3.org/2000/svg">
<title>Equity Trust Company</title>
	<g>
		<g>
			<g>
				<g>
					<path fill="#00305E" d="M18,56.5L18,56.5C18,56.6,18,56.6,18,56.5L18,56.5c0,0.2,0,0.3,0.1,0.3l0,0c0,0,0,0,0.1,0l0,0
						c0,0,0.1,0,0.2-0.1l0,0l4.4-2.5c0.2-0.1,0.4-0.3,0.6-0.6l0,0c0.2-0.3,0.2-0.6,0.2-0.8l0,0l0,0l0,0l-5.2-14.4
						c-0.1-0.1-0.2-0.2-0.3-0.2l0,0l0,0l0,0c0,0,0,0,0,0.1l0,0L18,56.5L18,56.5z"/>
				</g>
				<g>
					<path fill="#00305E" d="M16.9,77.8L16.9,77.8L16.9,77.8c0,0,0,0,0.1-0.1l0,0V59.5l0,0l0,0l0,0c0-0.2,0-0.3-0.1-0.3l0,0
						c0,0,0,0-0.1,0l0,0c0,0-0.1,0-0.2,0.1l0,0l0,0l-4.4,2.5c-0.2,0.1-0.4,0.3-0.6,0.6l0,0c-0.2,0.3-0.2,0.6-0.2,0.8l0,0l0,0l0,0
						l5.3,14.5C16.7,77.7,16.8,77.8,16.9,77.8L16.9,77.8z"/>
				</g>
				<g>
					<path fill="#00305E" d="M0.1,67.4L0.1,67.4L0.1,67.4L16,58.3l0,0c0.1-0.1,0.2-0.1,0.2-0.2l0,0V58l0,0c0,0,0-0.1-0.2-0.2l0,0
						l0,0l-4.4-2.6c-0.2-0.1-0.5-0.2-0.8-0.2l0,0c-0.3,0-0.7,0.1-0.9,0.2l0,0L0.1,67C0,67.1,0,67.2,0,67.2l0,0
						C0,67.3,0,67.3,0.1,67.4L0.1,67.4C0,67.4,0,67.4,0.1,67.4L0.1,67.4L0.1,67.4L0.1,67.4L0.1,67.4L0.1,67.4z"/>
				</g>
				<g>
					<path fill="#696B73" d="M25,60.8L34.9,49c0-0.1,0.1-0.2,0.1-0.2l0,0c0-0.1,0-0.1,0-0.1l0,0l0,0l0,0l0,0l0,0c0,0,0,0-0.1,0l0,0
						l-15.9,9l0,0c-0.1,0.1-0.2,0.1-0.2,0.2l0,0V58l0,0c0,0,0,0.1,0.2,0.2l0,0l0,0l4.4,2.6c0.2,0.1,0.5,0.2,0.8,0.2l0,0
						C24.4,61,24.8,60.9,25,60.8L25,60.8z"/>
				</g>
				<g>
					<path fill="#00305E" d="M16.5,56.8L16.5,56.8c0.1,0.1,0.3,0.1,0.3,0.1l0,0c0.1,0,0.1,0,0.1,0l0,0c0,0,0.1-0.1,0.1-0.3l0,0l0,0
						l0.1-5.1l0,0l0,0c0-0.2-0.1-0.5-0.3-0.8l0,0c-0.2-0.3-0.4-0.5-0.6-0.6l0,0L1,47.4l0,0l0,0c-0.1,0-0.2,0-0.3,0.1l0,0
						c-0.1,0-0.1,0.1-0.1,0.1l0,0l0,0l0,0c0,0,0,0,0.1,0.1l0,0L16.5,56.8L16.5,56.8z"/>
				</g>
				<g>
					<path fill="#00305E" d="M34,68.6c0.1,0,0.2,0,0.3-0.1l0,0c0.1,0,0.1-0.1,0.1-0.1l0,0l0,0l0,0c0,0,0,0-0.1-0.1l0,0l-15.8-9.1
						l0,0c-0.1-0.1-0.3-0.1-0.3-0.1l0,0c-0.1,0-0.1,0-0.1,0l0,0c0,0-0.1,0.1-0.1,0.3l0,0l0,0v5.1l0,0l0,0c0,0.2,0.1,0.5,0.3,0.8l0,0
						c0.2,0.3,0.4,0.5,0.6,0.6l0,0L34,68.6L34,68.6L34,68.6z"/>
				</g>
			</g>
			<rect x="41.3" y="44.4" fill="#00305E" width="0.9" height="27.2"/>
			<g>
				<path fill="#00305E" d="M51.8,50c0.1,0,2-0.1,2.2-0.1c0.5-0.1,0.6-0.2,0.8-0.8c0.1-0.2,0.1-0.5,0.1-0.8c0.1-0.1,0.1-0.1,0.2-0.1
					h0.4c0.1,0,0.1,0.1,0.1,0.1c-0.1,0.3-0.1,1.7-0.1,2c0,0.6,0.1,1.4,0.1,1.8c0,0.1,0,0.1-0.1,0.1l-0.4,0.1c-0.1,0-0.1,0-0.1-0.2
					s-0.1-0.6-0.2-0.8c-0.1-0.4-0.3-0.6-0.7-0.7c-0.8-0.1-2-0.1-2.3-0.1v1.1c0,0.9,0,2.6,0,2.9c0,0.9,0.4,1.2,1,1.3
					c0.3,0.1,0.8,0.1,1.3,0.1c0.3,0,1.2,0,1.5-0.1c0.3,0,1-0.2,1.5-0.6c0.2-0.2,1.2-1.4,1.4-1.8c0.1-0.1,0.1-0.2,0.2-0.1l0.3,0.2
					c0.1,0.1,0.1,0.1,0,0.2l-0.9,2.5c-0.1,0.2-0.2,0.3-0.4,0.3c-0.1,0-0.5,0-1.5,0s-2.7,0-5.4,0c-0.6,0-1.1,0-1.5,0s-0.6,0-0.7,0
					c-0.1,0-0.2,0-0.2-0.1v-0.5c0-0.1,0.1-0.1,0.2-0.1h0.7c0.8,0,0.9-0.1,0.9-0.8v-4.1v-1.7c0-1.4,0-3.6-0.1-3.7
					c0-0.3-0.1-0.5-0.8-0.5h-0.6c-0.1,0-0.1,0-0.1-0.1v-0.4c0-0.1,0-0.1,0.1-0.1c0.4,0,1,0.1,2.1,0.1h0.8c1.7,0,3.4,0,5.1,0
					c0.3,0,0.6,0,0.7,0s0.1,0,0.1,0.1c0.1,0.2,0.8,2.6,0.9,2.8c0,0.1,0,0.1-0.1,0.2L58,47.7c-0.1,0-0.1,0-0.1-0.1
					c0-0.1-1.3-1.7-1.7-2c-0.4-0.2-0.8-0.4-1.3-0.5L51.8,45C51.8,45,51.8,50,51.8,50z"/>
				<path fill="#00305E" d="M70.3,46c1.2,1.2,1.7,2.8,1.7,4.3c0,1.8-0.7,3.5-1.8,4.5c-1,1-1.9,1.5-3,1.9v0.1c1.8,0.7,3.2,1,4.4,1.3
					c4.3,1,5,0.8,5.3,0.8c0.5,0,0.9-0.2,1.1-0.4c0.1-0.1,0.1-0.1,0.2,0l0.1,0.2c0,0.1,0,0.1-0.1,0.2c-0.2,0.1-1.3,1.3-2.3,1.3
					c-0.5,0-1.6,0-4.6-0.8c-1.7-0.4-4.2-1.3-6.6-2.5c-0.3-0.1-1.9-0.4-3.5-2.1c-0.9-0.9-1.7-2.5-1.7-4.5c0-1.7,0.7-3.3,2-4.5
					c1.3-1.2,3.2-1.7,4.1-1.7C67.7,44.1,69.2,44.9,70.3,46z M70.2,50.9c0-2.1-0.6-3.8-1.5-4.6c-1-1-1.9-1.5-3.2-1.5
					c-0.8,0-1.8,0.2-2.8,1.1c-1.1,1.1-1.5,2.8-1.5,4.3c0,2.3,1,4,1.8,4.8c1.3,1.2,2.2,1.4,2.7,1.4C69.3,56.3,70.2,52.3,70.2,50.9z"
					/>
				<path fill="#00305E" d="M76.1,56.5c-1.2-0.5-1.8-1.2-2-2.3c-0.2-0.8-0.3-1.9-0.3-4.2v-4.1c0-0.6-0.1-0.9-0.7-0.9h-0.8
					c-0.1,0-0.1,0-0.1-0.2v-0.3c0-0.1,0-0.1,0.2-0.1s1,0.1,2.4,0.1c1.3,0,2.2-0.1,2.4-0.1c0.1,0,0.2,0,0.2,0.1v0.4
					c0,0.1,0,0.1-0.1,0.1h-0.9c-0.5,0-0.8,0.3-0.8,0.7c0,0.2,0,1.4,0,2.2V49c0,0.9,0.1,3.1,0.1,3.6c0,0.8,0.2,1.6,0.6,2.2
					C76.9,55.7,78,56,79,56s2-0.3,2.6-0.9c0.7-0.7,0.9-1.8,0.9-3v-3.7c0-1.3,0-2.3-0.1-2.7c-0.1-0.4-0.3-0.8-0.8-0.8h-0.8
					c-0.1,0-0.1-0.1-0.1-0.1v-0.3c0-0.1,0-0.1,0.1-0.1c0.2,0,1,0.1,2.1,0.1c1.2,0,1.7-0.1,1.9-0.1c0.2,0,0.2,0.1,0.2,0.1v0.4
					c0,0.1,0,0.2-0.1,0.2H84c-0.6,0-0.7,0.5-0.7,0.7c0,0.2,0,2.6,0,2.9c0,0.2,0,3.2-0.1,3.9c-0.1,1.4-0.5,2.5-1.4,3.3
					c-0.7,0.6-1.7,1-3.2,1C77.5,56.8,76.7,56.7,76.1,56.5z"/>
				<path fill="#00305E" d="M87.7,49.4c0-0.4-0.1-3.5-0.1-3.8c0-0.4-0.2-0.6-0.9-0.6h-1c-0.1,0-0.1,0-0.1-0.1v-0.4
					c0-0.1,0.1-0.1,0.1-0.1c0.2,0,1.1,0.1,2.7,0.1c1.5,0,2.1-0.1,2.3-0.1c0.1,0,0.1,0.1,0.1,0.1v0.4c0,0.1-0.1,0.1-0.1,0.1H90
					c-0.3,0-0.6,0.1-0.6,0.5c0,0.2-0.1,4-0.1,4.2V51c0,0.2,0.1,4.1,0.1,4.3c0,0.5,0.3,0.6,0.8,0.6h0.7c0.1,0,0.1,0,0.1,0.1v0.4
					c0,0.1-0.1,0.1-0.2,0.1c-0.2,0-0.9-0.1-2.4-0.1c-1.6,0-2.4,0.1-2.6,0.1c-0.1,0-0.1,0-0.1-0.1v-0.5c0-0.1,0.1-0.1,0.1-0.1h1
					c0.3,0,0.7-0.1,0.8-0.5c0-0.3,0.1-4,0.1-4.9C87.7,50.4,87.7,49.4,87.7,49.4z"/>
				<path fill="#00305E" d="M96.8,45h-0.4c-0.5,0-2,0-2.7,0.2c-0.8,0.2-1.3,1.4-1.5,2c0,0.1-0.1,0.1-0.2,0.1l-0.3-0.1
					c-0.1,0-0.1,0-0.1-0.1c0.2-0.6,0.8-2.8,0.8-3c0-0.2,0.1-0.3,0.2-0.3s0.1,0,0.2,0.1L93,44c0.3,0.2,0.5,0.3,1,0.3
					c0.9,0,1.6,0.1,3.2,0.1H98c1.9,0,2.6-0.1,3.5-0.1c0.4,0,0.6-0.1,0.9-0.2l0.3-0.2c0.1-0.1,0.1-0.1,0.2-0.1s0.1,0.1,0.2,0.3
					c0,0.2,0.4,2.3,0.5,3.1c0,0.1,0,0.1-0.1,0.1l-0.3,0.1c-0.1,0-0.1,0-0.1-0.1c-0.1-0.3-0.7-1.7-1.2-1.9c-0.5-0.3-2.1-0.3-3-0.3
					h-0.5V50c0,0.2,0,5.1,0,5.3c0,0.4,0.2,0.7,0.6,0.7h1.1c0.2,0,0.2,0.1,0.2,0.2v0.4c0,0.1,0,0.1-0.2,0.1s-0.7-0.1-2.4-0.1
					c-1.7,0-2.4,0.1-2.6,0.1c-0.1,0-0.2-0.1-0.2-0.2v-0.3c0-0.1,0-0.2,0.1-0.2h1.2c0.3,0,0.5-0.2,0.6-0.4c0.1-0.5,0.1-5.8,0.1-6.1
					L96.8,45L96.8,45z"/>
				<path fill="#00305E" d="M110.5,53.4c0,0.7,0.1,1.8,0.1,2c0.1,0.5,0.3,0.6,0.8,0.6h0.7c0.1,0,0.1,0.1,0.1,0.1v0.4
					c0,0.1,0,0.2-0.1,0.2c-0.2,0-0.9-0.1-2.3-0.1c-1.5,0-2.1,0.1-2.3,0.1c-0.1,0-0.1-0.1-0.1-0.1v-0.4c0-0.1,0-0.1,0.1-0.1h0.8
					c0.4,0,0.6-0.2,0.6-0.4c0-0.2,0.1-1.6,0.1-3.2v-1c-0.2-0.4-3.1-5.3-3.6-5.9c-0.2-0.3-0.6-0.4-0.9-0.4H104
					c-0.1,0-0.1-0.1-0.1-0.1v-0.6c0-0.1,0-0.1,0.1-0.1c0.2,0,1,0.1,2,0.1c1.8,0,2.4-0.1,2.6-0.1c0.1,0,0.1,0,0.1,0.1v0.4
					c0,0.1,0,0.2-0.1,0.2H108c-0.5,0-0.6,0.2-0.5,0.6c0.1,0.3,2.2,4,2.7,5c0.6-1,3-4.6,3.1-4.9c0.1-0.3,0.2-0.7-0.6-0.7h-0.5
					c-0.1,0-0.1-0.1-0.1-0.2v-0.4c0-0.1,0-0.1,0.1-0.1c0.2,0,0.9,0.1,2,0.1c1,0,1.4-0.1,1.5-0.1s0.1,0,0.1,0.1v0.4
					c0,0.1,0,0.2-0.1,0.2h-0.4c-0.3,0-0.5,0.1-0.8,0.4c-0.3,0.3-3.4,4.8-4.1,5.7v2.2H110.5z"/>
				<path fill="#696B73" d="M50.8,64.8h-0.3c-0.3,0-1.2,0-1.6,0.1c-0.5,0.1-0.8,0.9-0.9,1.2c0,0.1-0.1,0.1-0.1,0.1l-0.2-0.1
					c0,0-0.1,0,0-0.1c0.1-0.4,0.5-1.7,0.5-1.8s0.1-0.2,0.1-0.2c0.1,0,0.1,0,0.1,0l0.1,0.1c0.2,0.1,0.3,0.2,0.6,0.2
					c0.5,0,1,0.1,1.9,0.1h0.5c1.1,0,1.5,0,2-0.1c0.2,0,0.4,0,0.5-0.1l0.2-0.1c0.1,0,0.1,0,0.1,0c0.1,0,0.1,0,0.1,0.2
					c0,0.1,0.2,1.4,0.3,1.8c0,0.1,0,0.1-0.1,0.1h-0.2c0,0-0.1,0-0.1-0.1c-0.1-0.2-0.4-1-0.7-1.1c-0.3-0.2-1.3-0.2-1.8-0.2h-0.3v2.9
					c0,0.1,0,3,0,3.2c0,0.3,0.1,0.4,0.3,0.4h0.6c0.1,0,0.1,0,0.1,0.1v0.2c0,0.1,0,0.1-0.1,0.1s-0.4,0-1.4,0s-1.4,0-1.5,0
					s-0.1,0-0.1-0.1v-0.2c0-0.1,0-0.1,0.1-0.1h0.7c0.2,0,0.3-0.1,0.3-0.2c0-0.3,0-3.4,0-3.6v-2.7H50.8z"/>
				<path fill="#696B73" d="M56.1,67c0-0.8,0-1.4,0-1.7c0-0.3-0.1-0.5-0.4-0.5h-0.4c-0.1,0-0.1,0-0.1-0.1v-0.3c0-0.1,0-0.1,0.1-0.1
					s0.4,0,1.3,0c0.6,0,1.5,0,1.7,0c0.8,0,1.5,0.3,1.9,0.6c0.3,0.3,0.5,0.8,0.5,1.2c0,1.3-0.6,1.7-1.9,2l0,0
					c0.2,0.1,0.4,0.3,0.5,0.4s0.8,1.2,0.9,1.3c0.1,0.1,0.7,1,0.9,1.2s0.4,0.2,0.7,0.2c0.1,0,0.1,0,0.1,0.1v0.2c0,0.1,0,0.1-0.1,0.1
					s-0.3,0-0.8,0c-0.3,0-0.7,0-0.8,0c-0.1-0.1-0.3-0.4-0.4-0.6c-0.1-0.1-0.6-1.1-0.7-1.2c0-0.1-0.5-0.8-0.7-0.9
					c-0.3-0.3-0.5-0.6-1.1-0.6c-0.1,0-0.2,0-0.3,0v0.6c0,0.6,0,1.7,0,1.9c0,0.2,0.1,0.4,0.3,0.4H58c0.1,0,0.1,0,0.1,0.1v0.2
					c0,0.1,0,0.1-0.1,0.1s-0.4,0-1.3,0c-0.9,0-1.2,0-1.3,0s-0.1,0-0.1-0.1v-0.2c0-0.1,0-0.1,0.1-0.1h0.4c0.2,0,0.4-0.1,0.4-0.3
					c0-1,0-2,0-2.9v-1H56.1z M57.1,68c0.2,0,0.3,0,0.5,0c1.8,0,2.2-1.3,2.2-1.7c0-0.5-0.2-0.9-0.5-1.2c-0.4-0.3-0.8-0.5-1.7-0.5
					c-0.1,0-0.3,0-0.3,0.1c-0.1,0.1-0.1,0.2-0.1,0.3v3H57.1z"/>
				<path fill="#696B73" d="M63.8,71.5c-0.7-0.3-1-0.7-1.2-1.4c-0.1-0.5-0.2-1.1-0.2-2.5v-2.4c0-0.4-0.1-0.5-0.4-0.5h-0.5
					c-0.1,0-0.1,0-0.1-0.1v-0.2c0-0.1,0-0.1,0.1-0.1s0.6,0,1.4,0c0.8,0,1.3,0,1.4,0s0.1,0,0.1,0.1v0.3c0,0.1,0,0.1-0.1,0.1h-0.5
					c-0.3,0-0.5,0.2-0.5,0.4c0,0.1,0,0.8,0,1.3v0.7c0,0.5,0,1.8,0.1,2.2c0,0.5,0.1,0.9,0.3,1.3c0.4,0.5,1,0.7,1.6,0.7
					s1.2-0.2,1.5-0.6c0.4-0.4,0.5-1,0.5-1.8v-2.2c0-0.8,0-1.4-0.1-1.6c0-0.3-0.2-0.4-0.5-0.4h-0.4c-0.1,0-0.1,0-0.1-0.1v-0.2
					c0-0.1,0-0.1,0.1-0.1s0.6,0,1.2,0c0.7,0,1,0,1.1,0s0.1,0,0.1,0.1v0.2c0,0.1,0,0.1-0.1,0.1h-0.4c-0.4,0-0.4,0.3-0.4,0.4
					s0,1.5,0,1.7c0,0.1,0,1.9-0.1,2.3c-0.1,0.8-0.3,1.5-0.9,2c-0.4,0.4-1,0.6-1.9,0.6C64.6,71.8,64.1,71.7,63.8,71.5z"/>
				<path fill="#696B73" d="M70.1,71.2c-0.1-0.1-0.2-0.1-0.2-0.1c-0.1,0-0.1,0.1-0.2,0.2c-0.1,0.1-0.1,0.1-0.2,0.1s-0.1-0.1-0.1-0.2
					c0-0.3,0.1-1.5,0.2-1.8c0-0.1,0-0.1,0.1-0.1h0.2c0,0,0.1,0,0.1,0.1c0,0.3,0,0.7,0.4,1.2c0.3,0.5,0.9,0.8,1.4,0.8
					c0.6,0,1.4-0.4,1.4-1.3c0-1-0.8-1.4-1.6-1.7c-0.3-0.1-1-0.4-1.5-0.8c-0.3-0.3-0.5-0.8-0.5-1.5c0-0.5,0.3-1,0.6-1.3
					c0.4-0.3,0.9-0.5,1.4-0.5c0.6,0,1,0.2,1.2,0.3c0.1,0.1,0.1,0,0.2,0l0.1-0.1c0.1,0,0.1-0.1,0.1-0.1c0.1,0,0.1,0.1,0.1,0.2
					c0,0.4,0.1,1.4,0.1,1.6c0,0.1,0,0.1-0.1,0.1h-0.1h-0.1c-0.1-0.3-0.2-0.7-0.6-1.1c-0.3-0.3-0.6-0.4-1.1-0.4
					c-0.9,0-1.2,0.7-1.2,1.2c0,0.3,0.1,0.6,0.3,0.9c0.3,0.3,0.9,0.5,1.2,0.6c0.7,0.2,1.3,0.4,1.6,0.8c0.3,0.3,0.4,0.7,0.4,1.4
					c0,1.2-0.7,2.2-2.1,2.2C71,71.8,70.5,71.5,70.1,71.2z"/>
				<path fill="#696B73" d="M77.3,64.8H77c-0.3,0-1.2,0-1.6,0.1c-0.5,0.1-0.8,0.9-0.9,1.2c0,0.1-0.1,0.1-0.1,0.1l-0.2-0.1
					c0,0-0.1,0,0-0.1c0.1-0.4,0.5-1.7,0.5-1.8s0.1-0.2,0.1-0.2c0.1,0,0.1,0,0.1,0l0.1,0.1c0.2,0.1,0.3,0.2,0.6,0.2
					c0.5,0,1,0.1,1.9,0.1H78c1.1,0,1.5,0,2-0.1c0.2,0,0.4,0,0.5-0.1l0.2-0.1c0.1,0,0.1,0,0.1,0c0.1,0,0.1,0,0.1,0.2
					c0,0.1,0.2,1.4,0.3,1.8c0,0.1,0,0.1-0.1,0.1h-0.2c0,0-0.1,0-0.1-0.1c-0.1-0.2-0.4-1-0.7-1.1c-0.3-0.2-1.3-0.2-1.8-0.2H78v2.9
					c0,0.1,0,3,0,3.2c0,0.3,0.1,0.4,0.3,0.4h0.6c0.1,0,0.1,0,0.1,0.1v0.2c0,0.1,0,0.1-0.1,0.1s-0.4,0-1.4,0s-1.4,0-1.5,0
					s-0.1,0-0.1-0.1v-0.2c0-0.1,0-0.1,0.1-0.1h1c0.2,0,0.3-0.1,0.3-0.2c0-0.3,0-3.4,0-3.6V64.8z"/>
			</g>
		</g>
		<g>
			<path fill="#696B73" d="M83.6,63.5c0.2,0,0.4,0.1,0.6,0.2s0.4,0.3,0.5,0.5c0.1,0.2,0.2,0.4,0.2,0.7c0,0.2-0.1,0.4-0.2,0.7
				c-0.1,0.2-0.3,0.4-0.5,0.5c-0.2,0.1-0.4,0.2-0.7,0.2c-0.2,0-0.4-0.1-0.7-0.2c-0.2-0.1-0.4-0.3-0.5-0.5c-0.1-0.2-0.2-0.4-0.2-0.7
				c0-0.2,0.1-0.4,0.2-0.7c0.1-0.2,0.3-0.4,0.5-0.5C83.2,63.5,83.4,63.5,83.6,63.5z M83.6,63.7c-0.2,0-0.4,0-0.5,0.1
				c-0.2,0.1-0.3,0.2-0.4,0.4c-0.1,0.2-0.1,0.4-0.1,0.5c0,0.2,0,0.4,0.1,0.5c0.1,0.2,0.2,0.3,0.4,0.4c0.2,0.1,0.4,0.1,0.5,0.1
				c0.2,0,0.4,0,0.5-0.1c0.2-0.1,0.3-0.2,0.4-0.4c0.1-0.2,0.1-0.4,0.1-0.5c0-0.2,0-0.4-0.1-0.5c-0.1-0.2-0.2-0.3-0.4-0.4
				C84,63.7,83.8,63.7,83.6,63.7z M83.1,65.5v-1.4h0.5c0.2,0,0.3,0,0.4,0s0.1,0.1,0.2,0.1c0,0.1,0.1,0.1,0.1,0.2s0,0.2-0.1,0.3
				c-0.1,0.1-0.2,0.1-0.3,0.1c0,0,0.1,0,0.1,0.1c0.1,0.1,0.1,0.1,0.2,0.3l0.2,0.3H84l-0.1-0.2c-0.1-0.2-0.2-0.3-0.2-0.3
				s-0.1,0-0.2,0h-0.1v0.6L83.1,65.5L83.1,65.5z M83.3,64.7h0.3c0.1,0,0.2,0,0.3-0.1c0,0,0.1-0.1,0.1-0.2v-0.1l-0.1-0.1
				c0,0-0.1,0-0.2,0h-0.3v0.5H83.3z"/>
		</g>
		<rect x="0.6" fill="none" width="116" height="116"/>
	</g>
</svg>
