<?xml version="1.0" encoding="UTF-8"?>
<svg xmlns:dc="http://purl.org/dc/elements/1.1/" xmlns:cc="http://creativecommons.org/ns#" xmlns:rdf="http://www.w3.org/1999/02/22-rdf-syntax-ns#" xmlns:svg="http://www.w3.org/2000/svg" xmlns="http://www.w3.org/2000/svg" xmlns:sodipodi="http://sodipodi.sourceforge.net/DTD/sodipodi-0.dtd" xmlns:inkscape="http://www.inkscape.org/namespaces/inkscape" version="1.2" viewBox="0 0 36 36" xml:space="preserve" baseProfile="tiny-ps"><title>Colissimo</title><defs id="defs57"/><metadata/><linearGradient id="SVGID_1_" x1="13.604" x2="22.264" y1="21.507" y2="26.882" gradientUnits="userSpaceOnUse"><stop stop-color="#EC6608" offset="0" id="stop16"/><stop stop-color="#ED6C07" offset=".168" id="stop18"/><stop stop-color="#EF7A07" offset=".3875" id="stop20"/><stop stop-color="#F39107" offset=".6356" id="stop22"/><stop stop-color="#F9AF06" offset=".9028" id="stop24"/><stop stop-color="#FBBA07" offset="1" id="stop26"/></linearGradient><g id="layer2"><circle cx="18.102612" cy="17.860943" r="17.5" id="circle14" fill="#fafafa" fill-opacity="1"/></g><g id="layer1"><g id="g763"/><g id="g847" transform="matrix(1.15,0,0,1.15,-2.7,-2.5575)"><path d="m 19.8,13.5 h -0.1 l -0.2,-0.1 -0.1,-0.1 v -0.1 -0.3 c 0,0 0,-0.1 0.1,-0.1 l 2.9,-1.7 -4.1,-2.2 h -0.2 c 0,0 -0.1,0 -0.2,0 l -4.1,2.2 4.6,2.7 0.1,0.1 v 3.9 c 0,0 0,0.1 -0.1,0.1 L 18.2,18 H 18.1 18 17.7 l -0.1,-0.1 v -3.5 -0.1 l -4.1,-2.4 v 4.6 c 0,0.1 0.1,0.2 0.2,0.3 l 4.2,2.5 h 0.2 0.2 l 4.2,-2.5 c 0.1,-0.1 0.2,-0.2 0.2,-0.3 v -4.6 z" id="path29" fill="url(#SVGID_1_)"/><path d="M 8.1,22 C 7.8,21.8 7.5,21.8 7.2,21.8 c -1,0 -1.7,0.7 -1.7,1.7 0,1 0.7,1.7 1.7,1.7 0.3,0 0.7,-0.1 0.9,-0.2 v -0.8 c -0.2,0.2 -0.5,0.3 -0.8,0.3 -0.6,0 -1,-0.4 -1,-0.9 0,-0.6 0.4,-0.9 0.9,-0.9 0.3,0 0.6,0.1 0.8,0.3 z" id="path31"/><path d="m 13.4,24.3 c -0.3,0 -0.5,-0.2 -0.5,-0.5 V 20.4 H 12 v 3.5 c 0,0.9 0.5,1.3 1.4,1.3 z" id="path33"/><path d="m 10,21.8 c -1,0 -1.7,0.7 -1.7,1.7 0,1 0.7,1.7 1.7,1.7 1,0 1.7,-0.7 1.7,-1.7 0,-1.1 -0.7,-1.7 -1.7,-1.7 z m 0,2.6 C 9.5,24.4 9.2,24 9.2,23.5 9.2,23 9.5,22.6 10,22.6 c 0.5,0 0.8,0.4 0.8,0.9 0,0.5 -0.3,0.9 -0.8,0.9 z" id="path35"/><path d="m 15.2,24.8 c 0.3,0.2 0.7,0.3 1.1,0.3 0.8,0 1.3,-0.3 1.3,-1 0,-0.6 -0.3,-0.9 -1.1,-1.1 -0.3,-0.1 -0.4,-0.2 -0.4,-0.3 0,-0.2 0.1,-0.3 0.4,-0.3 0.3,0 0.6,0.1 0.9,0.3 V 22 c -0.3,-0.2 -0.6,-0.2 -1,-0.2 -0.7,0 -1.2,0.3 -1.2,1 0,0.6 0.3,0.9 1,1 0.4,0.1 0.5,0.2 0.5,0.3 0,0.2 -0.2,0.3 -0.4,0.3 -0.3,0 -0.7,-0.1 -1,-0.4 z" id="path37"/><polygon points="13.8,21.8 13.8,25.1 14.7,25.1 14.7,24.8 14.7,21.8 " id="polygon39"/><path d="m 14.3,20.5 c -0.2,0 -0.4,0.2 -0.4,0.4 0,0.2 0.2,0.4 0.4,0.4 0.2,0 0.4,-0.2 0.4,-0.4 0,-0.2 -0.2,-0.4 -0.4,-0.4" id="path41"/><path d="m 28.8,21.8 c -1,0 -1.7,0.7 -1.7,1.7 0,1 0.7,1.7 1.7,1.7 1,0 1.7,-0.7 1.7,-1.7 0,-1.1 -0.7,-1.7 -1.7,-1.7 z m 0,2.6 C 28.3,24.4 28,24 28,23.5 c 0,-0.5 0.3,-0.9 0.8,-0.9 0.5,0 0.8,0.4 0.8,0.9 0,0.5 -0.3,0.9 -0.8,0.9 z" id="path43"/><path d="m 17.9,24.8 c 0.3,0.2 0.7,0.3 1.1,0.3 0.8,0 1.3,-0.3 1.3,-1 0,-0.6 -0.3,-0.9 -1.1,-1.1 -0.3,-0.1 -0.4,-0.2 -0.4,-0.3 0,-0.2 0.1,-0.3 0.4,-0.3 0.3,0 0.6,0.1 0.9,0.3 V 22 c -0.3,-0.2 -0.6,-0.2 -1,-0.2 -0.7,0 -1.2,0.3 -1.2,1 0,0.6 0.3,0.9 1,1 0.4,0.1 0.5,0.2 0.5,0.3 0,0.2 -0.2,0.3 -0.4,0.3 -0.3,0 -0.7,-0.1 -1,-0.4 z" id="path45"/><polygon points="20.6,21.8 20.6,25.1 21.5,25.1 21.5,24.8 21.5,21.8 " id="polygon47"/><path d="m 21,20.5 c -0.2,0 -0.4,0.2 -0.4,0.4 0,0.2 0.2,0.4 0.4,0.4 0.2,0 0.4,-0.2 0.4,-0.4 0.1,-0.2 -0.1,-0.4 -0.4,-0.4" id="path49"/><path d="m 25.9,23 c 0,-0.3 -0.2,-0.5 -0.5,-0.5 -0.2,0 -0.5,0.1 -0.6,0.1 0,0.1 0.1,0.2 0.1,0.3 V 25 H 24 v -2 c 0,-0.3 -0.2,-0.5 -0.5,-0.5 -0.2,0 -0.4,0 -0.5,0.1 v 2.5 h -0.9 v -3 c 0.4,-0.2 1,-0.3 1.5,-0.3 0.4,0 0.7,0.1 0.9,0.3 0.3,-0.1 0.6,-0.3 1.1,-0.3 0.8,0 1.3,0.3 1.3,1.2 v 2.1 H 26 Z" id="path51"/></g></g></svg>