<?xml version="1.0" encoding="utf-8"?>
<svg version="1.2" width="563.25pt" height="392.25pt" viewBox="0 0 563.25 392.25" preserveAspectRatio="xMidYMid meet" baseProfile="tiny-ps" xmlns="http://www.w3.org/2000/svg">
  <title>CMS</title>
  <g transform="translate(0,392.25)scale(.075,.075)">
    <path id="path1" d="M 2111 -3755 c -172 60 -277 185 -332 392 -29 108 -29 268 0 378 64 247 238 435 466 505 110 33 213 43 324 30 146 -18 326 -84 326 -120 0 -12 -280 -220 -297 -220 -4 0 -31 24 -61 54 -83 83 -141 109 -260 114 -94 4 -101 3 -161 -27 -120 -59 -194 -177 -203 -324 -9 -141 32 -253 123 -337 72 -66 123 -85 229 -85 78 0 97 4 147 28 32 16 83 53 115 83 50 47 61 54 76 44 31 -19 286 -220 292 -230 4 -6 -33 -50 -82 -98 -146 -146 -280 -201 -498 -209 -120 -3 -136 -2 -204 22 z M 5193 -3761 c -215 58 -343 192 -374 389 -20 131 16 260 94 340 88 90 168 126 438 197 235 62 269 82 269 158 0 75 -53 107 -178 107 -142 0 -296 -51 -413 -135 -27 -19 -53 -35 -58 -35 -6 0 -58 59 -117 132 l -108 131 40 35 c 88 76 234 145 391 184 119 30 374 32 473 4 261 -72 392 -244 378 -496 -14 -235 -150 -343 -553 -440 -194 -46 -255 -83 -255 -152 0 -45 53 -93 110 -102 112 -17 293 36 427 124 l 32 21 20 -28 c 11 -15 57 -80 101 -143 l 80 -115 -32 -28 c -48 -41 -201 -113 -293 -138 -118 -32 -371 -37 -472 -10 z M 3062 -3008 l 3 743 180 0 180 0 5 -451 5 -452 194 304 c 106 167 196 304 200 304 3 0 94 -138 201 -307 l 195 -306 5 454 5 454 183 3 182 2 0 -745 0 -745 -202 0 -203 1 -179 300 c -143 239 -182 297 -191 287 -7 -7 -90 -142 -184 -300 l -172 -288 -205 0 -204 0 2 742 z M 1708 -3566 c -154 153 -228 332 -228 557 0 127 12 199 51 300 148 384 580 571 1000 433 79 -26 180 -80 186 -101 3 -9 -4 -9 -29 -2 -18 6 -96 13 -173 16 -121 5 -152 2 -230 -16 -258 -62 -468 -239 -569 -479 -86 -204 -72 -464 37 -684 24 -50 38 -88 31 -88 -6 0 -41 29 -76 64 z M 4174 -1976 c -30 13 -64 66 -64 99 0 10 -11 17 -28 19 -21 2 -28 9 -30 30 -3 25 0 28 27 28 l 30 0 3 158 3 157 25 0 25 0 3 -157 3 -157 52 -3 c 48 -3 52 -5 52 -28 0 -23 -4 -25 -53 -28 -43 -3 -52 -6 -52 -22 0 -27 48 -62 74 -54 38 13 51 9 54 -13 6 -39 -64 -55 -124 -29 z M 1610 -1730 l 0 251 28 -3 27 -3 0 -245 0 -245 -27 -3 -28 -3 0 251 z M 2902 -1963 c -7 3 -12 24 -12 53 0 46 -2 49 -28 52 -21 2 -27 8 -27 28 0 20 6 26 27 28 l 28 3 1 107 c 1 142 13 181 63 206 32 16 44 17 77 7 43 -13 52 -22 43 -46 -5 -13 -15 -15 -46 -10 -30 5 -44 3 -59 -11 -17 -15 -19 -31 -19 -135 l 0 -118 58 -3 c 53 -3 57 -5 57 -28 0 -23 -4 -25 -57 -28 l -57 -3 -3 -52 c -3 -52 -14 -64 -46 -50 z M 4752 -1963 c -7 3 -12 24 -12 53 0 46 -2 49 -28 52 -21 2 -27 8 -27 28 0 20 6 26 27 28 l 28 3 1 112 c 0 140 11 176 62 201 33 16 45 17 78 7 43 -13 52 -22 43 -46 -5 -13 -15 -15 -49 -10 -68 11 -75 -4 -75 -145 l 0 -119 58 -3 c 53 -3 57 -5 57 -28 0 -23 -4 -25 -57 -28 l -57 -3 -3 -52 c -3 -52 -14 -64 -46 -50 z M 1813 -1847 c -18 7 -42 21 -53 32 -17 17 -18 24 -8 38 12 16 16 15 63 -9 63 -32 119 -28 152 11 28 32 32 81 5 70 -9 -5 -44 -10 -77 -12 -85 -6 -145 25 -163 84 -12 38 -12 47 5 80 27 55 64 77 126 77 29 0 67 -7 86 -17 41 -21 41 -21 41 -2 0 9 9 15 25 15 l 25 0 0 -142 c 0 -159 -6 -179 -59 -215 -38 -26 -112 -30 -168 -10 z m 123 188 c 52 13 61 27 45 67 -26 62 -130 84 -176 37 -29 -28 -31 -42 -9 -73 28 -41 67 -49 140 -31 z M 2093 -1845 c -3 9 23 94 57 190 47 129 68 175 80 175 11 0 27 -31 54 -108 22 -59 43 -118 48 -132 9 -22 15 -10 57 105 37 100 52 130 65 130 14 0 32 -38 82 -175 35 -96 62 -181 59 -188 -3 -7 -15 -12 -27 -10 -18 2 -29 24 -68 135 l -46 133 -43 -123 c -44 -123 -61 -154 -79 -143 -5 3 -29 60 -52 126 -23 66 -46 120 -50 120 -5 0 -25 -51 -46 -112 -20 -62 -41 -119 -47 -126 -13 -17 -36 -15 -44 3 z M 3192 -1841 c -46 22 -61 44 -42 65 10 13 18 11 57 -10 63 -33 107 -32 144 5 33 34 42 89 11 76 -33 -14 -120 -17 -156 -5 -52 17 -86 62 -86 115 0 62 34 100 103 115 46 11 58 9 105 -8 43 -17 52 -18 52 -5 0 10 9 13 28 11 l 27 -3 3 -95 c 5 -147 -4 -196 -43 -238 -30 -33 -38 -36 -96 -39 -48 -3 -75 1 -107 16 z m 168 191 c 37 20 17 82 -37 109 -33 17 -98 13 -123 -7 -39 -31 -26 -91 25 -113 24 -11 107 -4 135 11 z M 3494 -1845 c -4 8 19 47 56 94 l 62 80 -66 84 c -36 47 -66 90 -66 97 0 6 11 10 27 8 20 -2 42 -21 79 -68 29 -35 56 -66 61 -67 4 -1 32 29 62 67 39 51 60 70 77 70 12 0 25 -4 28 -9 3 -5 -23 -46 -59 -92 -36 -46 -65 -87 -65 -90 0 -4 27 -41 61 -83 61 -78 69 -106 29 -106 -13 0 -38 24 -72 70 -29 38 -55 70 -58 70 -3 0 -29 -32 -59 -70 -52 -69 -85 -88 -97 -55 z M 4324 -1846 c -3 9 -4 75 -2 148 4 147 13 174 72 205 40 21 112 21 154 0 29 -16 32 -16 32 -2 0 12 8 15 28 13 l 27 -3 0 -185 0 -185 -27 -3 -28 -3 0 121 c 0 135 -12 179 -56 199 -59 27 -126 2 -139 -52 -3 -12 -6 -76 -8 -142 -2 -116 -3 -120 -25 -123 -13 -2 -24 3 -28 12 z M 4967 -1854 c -4 4 -7 66 -7 138 0 158 11 189 80 224 49 25 97 24 151 -4 26 -13 29 -13 29 1 0 9 9 15 25 15 l 25 0 0 -190 0 -190 -24 0 c -24 0 -24 0 -28 136 l -3 136 -33 29 c -43 39 -98 40 -135 3 -26 -25 -27 -31 -29 -163 -3 -128 -4 -136 -23 -139 -12 -2 -24 0 -28 4 z M 5357 -1853 c -4 3 -7 89 -7 190 l 0 184 28 -3 27 -3 5 -138 c 5 -138 5 -139 34 -164 23 -19 36 -23 62 -19 27 6 34 3 39 -14 3 -11 3 -24 0 -30 -9 -15 -88 -12 -112 5 -19 13 -22 13 -27 0 -5 -15 -37 -20 -49 -8 z M 5645 -1846 c -41 19 -72 54 -90 105 -18 51 -19 82 -4 134 26 94 129 151 231 127 55 -14 120 -63 112 -85 -9 -23 -36 -26 -58 -7 -70 64 -171 54 -216 -21 -35 -57 -34 -57 135 -57 173 0 166 4 144 -75 -15 -54 -54 -104 -95 -121 -42 -18 -120 -17 -159 0 z m 141 55 c 16 10 38 34 47 52 l 16 34 -121 3 c -66 1 -123 1 -125 -2 -10 -10 30 -68 60 -86 40 -25 83 -25 123 -1 z M 2678 -1719 c -22 12 -23 52 -3 69 8 7 25 10 39 6 32 -8 40 -42 15 -67 -22 -22 -27 -22 -51 -8 z M 3896 -1714 c -19 18 -20 28 -6 55 19 35 80 18 80 -22 0 -21 -26 -49 -45 -49 -7 0 -21 7 -29 16 z " />
  </g>
</svg>