<?xml version="1.0" encoding="UTF-8"?>
<svg version="1.2" xmlns="http://www.w3.org/2000/svg" xmlns:xlink="http://www.w3.org/1999/xlink" viewBox="0 0 150 150" baseProfile="tiny-ps">
<title>Rapid7</title>
  <g>
    <g>
      <g>
        <path d="M27.6,69.8c0-4-3.1-6.9-8.5-6.9h-10.9l-5.4,24.2h6.1l1.8-8.3h3.6l3.5,8.3h6.1l-3.8-8.7c4.5-.7,7.4-4.3,7.4-8.6h0ZM17.9,73.7h-5.9l1.3-5.8h5.5c1.8,0,2.9,1,2.9,2.4s-1.4,3.4-3.7,3.4h0Z"/>
        <path d="M41.1,62.9l-14.2,24.2h6.1l2.4-4h11.3l.9,4h6.1l-5.3-24.2h-7.3ZM38.4,78l5.2-8.9,2,8.9h-7.2Z"/>
        <path d="M72.2,62.9h-10.3l-5.4,24.2h6.1l1.9-8.3h6.8c5.8,0,9.3-4.4,9.3-8.9s-3.2-7-8.4-7ZM71.1,73.7h-5.4l1.3-5.8h4.7c1.8,0,3,.9,3,2.4s-1.4,3.4-3.6,3.4h0Z"/>
        <polygon points="92.1 62.9 86 62.9 80.7 87.1 86.8 87.1 92.1 62.9"/>
        <path d="M136.1,62.9h-19.2c.3.3.6.6.8.9,2.2,2.6,3.3,5.8,3.3,9.4,0,5.5-2.3,10.5-6.1,13.9h11.8l5.6-13.8h-7l1.2-5.4h13.9l-7.3,19.2h2.9c6.7,0,11.2-5.5,11.2-12.1s-4.3-12.1-11-12.1h0Z" fill="#e85e26"/>
        <path d="M114.4,66.8c-2.1-2.5-5.6-4-9.6-4h-7.8l-5.4,24.2h9.8c3.8,0,6.8-.8,9-2.2,4.6-2.7,6.2-7.6,6.2-11.7s-.8-4.7-2.2-6.4h0ZM102.1,82.1h-3.4l3.1-14.1h3.2c3.5,0,5.5,2.6,5.5,5.8s-3.1,8.3-8.4,8.3Z"/>
      </g>
    </g>
  </g>
</svg>