<?xml version="1.0" encoding="utf-8"?>
<svg version="1.2" baseProfile="tiny-ps" id="Layer_1" xmlns="http://www.w3.org/2000/svg" xmlns:xlink="http://www.w3.org/1999/xlink"
	 viewBox="0 0 400 400" xml:space="preserve">
<title>DNB</title>
<g>
	<path fill="#007272" d="M324.5,232.7c1.8-3.8,2.7-8.3,2.7-13.3c0-7.6-3.3-14.5-9.2-19.4c-1.5-1.2-3.2-2.4-5.1-3.3l-0.5-0.3l0.4-0.4
		c3.5-3.1,7.6-8.8,7.6-18.7c0-9.1-3.1-15.9-9.3-20.3c-5.2-3.7-12.5-5.5-22.1-5.5h-27.7c-1.6,0-2.9,1.3-2.9,2.9v90.9
		c0,1.6,1.3,2.9,2.9,2.9h31.7c10,0,18-2.1,23.8-6.4C320.2,239.6,322.8,236.4,324.5,232.7 M267.5,160.7h21.6c7.6,0,13.3,1.3,16.9,3.8
		c2.4,1.7,5.5,4.8,5.5,12.9c0,14.5-11.4,15.6-14.9,15.6h-29.1V160.7z M293.1,239.3h-25.6V202h29.1c12.7,0,21.6,7.1,21.6,17.4
		C318.2,224.3,318.2,239.3,293.1,239.3"/>
	<path fill="#007272" d="M234,248.8l0.9-0.1c1.1-0.4,1.9-1.4,1.9-2.6V112.5h-9v115.4L168.2,152c-0.5-0.7-1.4-1.1-2.2-1.1l-0.9,0.1
		c-1.1,0.4-1.9,1.4-1.9,2.6v133.8h9V171.8l59.5,75.8C232.3,248.4,233.1,248.8,234,248.8"/>
	<path fill="#007272" d="M134.3,234c9.3-11.4,10.7-25.8,10.7-33.4c0-6.4-1-22.7-10.7-34.5c-4.1-5-9.2-8.8-15.3-11.2
		c-5.2-2.1-10.9-3.2-17-3.2H75.7c-1.6,0-2.9,1.3-2.9,2.9v90.9c0,1.6,1.3,2.9,2.9,2.9H102c6.1,0,11.8-1.1,17-3.2
		C125.1,242.8,130.2,239,134.3,234 M102,239.3H81.8v-78.7H102c7.4,0,17.8,1.9,25.3,11.1c8,9.8,8.6,24.6,8.6,28.8
		c0,6.4-1.1,18.5-8.6,27.7C119.9,237.4,109.4,239.3,102,239.3"/>
</g>
</svg>
