<?xml version="1.0" encoding="utf-8"?>
<!-- Generator: Adobe Illustrator 26.0.3, SVG Export Plug-In . SVG Version: 6.00 Build 0)  -->
<svg version="1.2" baseProfile="tiny-ps" id="Layer_1" xmlns="http://www.w3.org/2000/svg" xmlns:xlink="http://www.w3.org/1999/xlink"
	 viewBox="0 0 108.8 108.8" xml:space="preserve">
	<title>Lexicon</title> 
<g>
	<rect fill="#FFFFFF" width="108.8" height="108.8"/>
	<path fill="#D60303" d="M0,35.64c36.27,0,72.54,0,108.8,0c0,12.51,0,25.01,0,37.52c-36.27,0-72.54,0-108.8,0
		C0,60.66,0,48.15,0,35.64z M97.98,62.45c0-5.28,0-10.22,0-15.26c-1.25,0-2.29,0-3.67,0c0,2.75,0,5.27,0,8.64
		c-2.62-3.45-4.69-6.19-6.79-8.96c-1.24,0.13-2.29,0.24-3.25,0.34c0,5.25,0,10.19,0,15.38c1.3-0.12,2.34-0.22,3.74-0.34
		c0-2.77,0-5.25,0-8.43c1.45,1.96,2.4,3.27,3.37,4.56c1.04,1.39,2.1,2.76,3.11,4.08C95.69,62.45,96.67,62.45,97.98,62.45z
		 M82.58,54.59c0.05-4.41-2.92-7.56-7.2-7.62c-4.25-0.07-7.89,3.51-7.9,7.75c0,4.27,3.54,7.8,7.84,7.81
		C79.73,62.55,82.53,59.48,82.58,54.59z M63.09,56.54c-3.08,2.58-4.8,2.91-6.71,1.29c-1.48-1.25-1.77-3.28-1.12-4.66
		c2.03-4.27,5.27-2.64,7.91-0.12c1.07-0.09,2.03-0.17,3.03-0.25c-1.33-4.19-4.64-6.38-8.43-5.71c-3.78,0.67-6.58,3.79-6.68,7.46
		c-0.1,3.81,2.75,7.19,6.63,7.88c3.84,0.68,7.13-1.48,8.48-5.71C65.08,56.66,64,56.6,63.09,56.54z M38.01,58.06
		c1.25,1.57,2.4,3.01,3.62,4.54c1.18-0.09,2.31-0.18,3.82-0.29c-1.89-2.78-3.49-5.13-5.14-7.56c1.69-2.5,3.32-4.93,5.12-7.59
		c-1.74,0-2.95,0-4.11,0c-1.15,1.52-2.18,2.89-3.26,4.32c-1.22-1.58-2.28-2.96-3.38-4.39c-1.25,0-2.45,0-4.09,0
		c1.86,2.73,3.52,5.17,5.2,7.64c-1.7,2.52-3.35,4.97-5.17,7.68c1.65,0,2.86,0,4.09,0C35.81,60.96,36.84,59.59,38.01,58.06z
		 M20.92,62.39c3.04,0,5.62,0,8.36,0c0-1.18,0-2.21,0-3.23c-1.74-0.13-3.2-0.24-4.9-0.37c0.11-0.88,0.2-1.53,0.29-2.24
		c1.68-0.12,2.89-0.2,4.61-0.32c-0.09-1.16,0.07-2.09,0-2.96c-1.74-0.12-3.19-0.22-4.89-0.34c0.1-0.93,0.16-1.58,0.24-2.32
		c1.69-0.1,2.88-0.16,4.66-0.26c-0.09-1.29,0.09-2.31,0.02-3.22c-2.99,0-5.58,0-8.38,0C20.92,52.24,20.92,57.17,20.92,62.39z
		 M11.27,47.14c0,5.23,0,10.25,0,15.23c2.91,0,5.49,0,8.41,0c-0.09-1.2,0.09-2.12,0.02-3.08c-1.82-0.17-3.51,0.02-5.27-0.15
		c0-4.02-0.02-8.22-0.02-12.19C13.11,47.03,12.16,47.09,11.27,47.14z M50.15,47.2c-1.31,0-2.35,0-3.43,0c0,5.17,0,10.11,0,15.1
		c1.25,0,2.28,0,3.43,0C50.15,57.22,50.15,52.38,50.15,47.2z"/>
	<path fill="#FCEFEF" d="M97.98,62.45c-1.31,0-2.3,0-3.48,0c-1.01-1.32-2.07-2.69-3.11-4.08c-0.97-1.29-1.92-2.6-3.37-4.56
		c0,3.18,0,5.67,0,8.43c-1.4,0.13-2.44,0.22-3.74,0.34c0-5.2,0-10.14,0-15.38c0.96-0.1,2.01-0.21,3.25-0.34
		c2.1,2.77,4.17,5.51,6.79,8.96c0-3.36,0-5.89,0-8.64c1.38,0,2.41,0,3.67,0C97.98,52.23,97.98,57.17,97.98,62.45z"/>
	<path fill="#FCEFEF" d="M82.58,54.59c-0.06,4.89-2.86,7.95-7.25,7.94c-4.3-0.01-7.85-3.54-7.84-7.81c0-4.25,3.64-7.82,7.9-7.75
		C79.66,47.04,82.64,50.19,82.58,54.59z M71.26,54.57c-0.1,2.16,1.61,4.09,3.77,4.24c2.09,0.15,4.17-1.61,4.37-3.7
		c0.22-2.22-1.72-4.36-4.01-4.42C73.2,50.65,71.36,52.37,71.26,54.57z"/>
	<path fill="#FCEFEF" d="M62.88,56.55c0.91,0.05,2.2,0.09,3.33,0.15c-1.35,4.23-4.64,6.38-8.48,5.71c-3.89-0.68-6.74-4.07-6.63-7.88
		c0.1-3.66,2.9-6.79,6.68-7.46c3.78-0.67,7.1,1.52,8.43,5.71c-1,0.08-2.16,0.14-3.23,0.23c-2.65-2.52-5.58-3.84-7.71,0.14
		c-0.95,1.78-0.42,3.48,1.12,4.66C58.27,59.28,60.15,59.26,62.88,56.55z"/>
	<path fill="#FCEFEF" d="M38.01,58.06c-1.16,1.53-2.2,2.9-3.3,4.35c-1.23,0-2.44,0-4.09,0c1.82-2.71,3.47-5.16,5.17-7.68
		c-1.68-2.46-3.34-4.91-5.2-7.64c1.63,0,2.83,0,4.09,0c1.1,1.43,2.16,2.81,3.38,4.39c1.08-1.44,2.12-2.81,3.26-4.32
		c1.16,0,2.37,0,4.11,0c-1.8,2.67-3.43,5.09-5.12,7.59c1.65,2.43,3.25,4.78,5.14,7.56c-1.51,0.12-2.64,0.2-3.82,0.29
		C40.41,61.07,39.26,59.63,38.01,58.06z"/>
	<path fill="#FCEFEF" d="M20.92,62.39c0-5.22,0-10.15,0-15.26c2.8,0,5.39,0,8.38,0c0.07,0.91-0.11,1.93-0.02,3.22
		c-1.77,0.1-2.96,0.17-4.66,0.26c-0.08,0.74,0.13,1.41,0.03,2.34c1.7,0.12,2.88,0.2,4.62,0.32c0.07,0.87-0.09,1.8,0,2.96
		c-1.72,0.12-2.94,0.2-4.61,0.32c-0.09,0.71,0.1,1.39-0.01,2.26c1.7,0.13,2.88,0.22,4.62,0.35c0,1.02,0,2.05,0,3.23
		C26.54,62.39,23.96,62.39,20.92,62.39z"/>
	<path fill="#FCEFEF" d="M11.27,47.14c0.89-0.05,1.84-0.11,3.14-0.19c0,3.97,0.02,8.17,0.02,12.19l5.27,0.15
		c0.07,0.96-0.11,1.88-0.02,3.08c-2.92,0-5.5,0-8.41,0C11.27,57.38,11.27,52.36,11.27,47.14z"/>
	<path fill="#FCEFEF" d="M50.15,47.2c0,5.19,0,10.03,0,15.1c-1.15,0-2.19,0-3.43,0c0-5,0-9.93,0-15.1
		C47.81,47.2,48.84,47.2,50.15,47.2z"/>
	<path fill="#D60303" d="M71.26,54.57c0.1-2.2,1.95-3.93,4.13-3.88c2.29,0.05,4.24,2.19,4.01,4.42c-0.21,2.09-2.28,3.84-4.37,3.7
		C72.87,58.66,71.16,56.74,71.26,54.57z"/>
</g>
</svg>
