<?xml version="1.0"?><svg version="1.2" baseProfile="tiny-ps" viewBox="0 0 300 300" xmlns="http://www.w3.org/2000/svg" xmlns:xlink="http://www.w3.org/1999/xlink"><title>Tigunia, LLC</title><g><g fill="#fffefe" transform="matrix(.1 0 0 -.1 0 300)"><path d="M0 1500V0h3000v3000H0V1500z"/></g><g fill="#dbd5d2" transform="matrix(.1 0 0 -.1 0 300)"><path d="m1202 2068-12-12v-382l12-12 12-12h39c21 0 47 5 58 10l19 11v385l-12 12-12 12h-92l-12-12zm-386-104c-3-9-6-77-6-153v-137l12-12 12-12h85l15 16 16 15v275l-12 12-12 12H822l-6-16zm1114-3-10-20v-258l18-16 19-17h82l15 22 16 22v247l-10 20-11 19h-108l-11-19zm-374-87-16-15v-178l16-15 15-16h88l15 22 16 22v152l-16 22-15 22h-88l-15-16zM0 1521v-278l23-34c12-18 37-43 55-56l33-22 52-6c29-3 86-5 127-3l75 3v123l-8 9-9 8-101 5-102 5-3 87-3 87 113 3 113 3 3 41 3 40-10 27-11 27H140v121l-16 30-15 31-34 14c-19 8-44 14-55 14H0v-279zm442 257-12-12v-92l12-12 12-12h85l15 16 16 15v85l-12 12-12 12h-92l-12-12zm1868-7c-5-11-10-32-10-48v-29l16-22 15-22h88l15 22 16 22v29c0 16-5 37-10 48l-11 19h-108l-11-19zM437 1583l-7-6v-457h101l20 10 19 11v449h-63c-35 0-67-3-70-7zm298-7c-17-7-45-29-62-49l-32-37-6-34c-4-19-5-77-3-129l3-94 28-36c15-21 42-45 60-55l32-17h370l3 148 3 148-11 38c-13 51-43 87-91 111l-38 20H878l-113-1-30-13zm233-138 12-12v-156H782l-6 16c-3 9-6 44-6 79v64l18 10 17 10 76 1h75l12-12zm229 145c-4-3-7-80-7-170v-164l15-28c20-39 69-78 113-91l37-10h301l12 12 12 12v446h-116l-12-12-12-12v-297l-102 3-103 3-3 158-3 157h-63c-34 0-66-3-69-7zm553-13-10-19 2-213 3-213 56-3 57-3 16 16 16 16v299h171l20-10 19-11v-309h101l20 10 19 11v310l-14 32c-16 39-61 82-99 96l-28 11h-338l-11-20zm562 8-12-12v-446h120l15 24 15 23-2 209-3 209-60 3-60 3-13-13zm290-9-42-21-23-32-22-31-3-113-4-114 12-29c7-16 28-42 46-59l33-29 38-10 38-11h325v345l-23 39-22 39-44 24-44 23h-222l-43-21zm239-129 19-11v-160l-102 3-103 3-3 75-3 75 17 12 18 13h137l20-10zM788 1059l-18-10V930l24-6c14-3 74-4 135-2l110 3 28 21 28 20 18 37 19 38-6 14-5 15H963l-158-1-17-10z"/></g><g fill="#faaf8b" transform="matrix(.1 0 0 -.1 0 300)"><path d="m1206 2064-16-15v-368l16-15 15-16h78l15 16 16 15v368l-16 15-15 16h-78l-15-16zm-384-96-12-12v-275l16-15 15-16h76l16 18 17 19v269l-12 12-12 12h-92l-12-12zm1108-14-10-25v-239l20-20 20-20h31c17 0 39 5 50 10l19 11v297l-16 6c-9 3-36 6-60 6h-44l-10-26zm-374-86-16-22v-152l16-22 15-22h35c20 0 44 5 55 10l19 11v198l-19 11c-11 5-35 10-55 10h-35l-15-22zM0 1523v-268l23-40 22-40 40-22 40-23h235v118l-13 10-13 11-95 3-94 3-3 88-3 87h221v116l-12 12-12 12H142l-4 71-4 71-32 29-32 29H0v-267zm442 255-12-12v-95l19-11c11-5 35-10 54-10h34l16 18 17 19v32c0 18-5 41-10 52l-11 19h-95l-12-12zm1881 6-13-6v-107l19-11c27-14 74-13 95 3l17 13-3 54-3 55-50 2c-27 1-56 0-62-3zM442 1578l-12-12v-436h118l11 14 11 14-2 213-3 214-55 3-55 3-13-13zm305-2c-50-18-76-42-98-91l-19-40v-179l21-43 21-43 42-25 43-25h363v331l-14 27c-8 15-27 39-43 55l-30 27-34 10-34 10h-90l-90-1-38-13zm231-219 3-88-103 3-103 3-3 73-3 74 12 14 12 15 91-3 91-3 3-88zm224 221-12-12v-307l20-39 20-38 32-24 33-23h380l3 228 2 227h-119l-11-19-10-20v-282l-102 3-103 3-5 155-5 155-55 3-55 3-13-13zm561 5-13-5v-449l63 3 62 3 5 155 5 155 94 3 93 3 14-12 14-11v-298h128l6 16c3 9 6 79 6 157v142l-19 40c-22 49-48 73-98 91l-38 13h-155c-85 0-161-3-167-6zm553-9-16-15v-430l68 3 67 3 3 228 2 227h-109l-15-16zm299-3c-46-21-79-54-94-94l-11-28v-190l20-39 20-38 32-24 33-23 193-3 192-3v320l-11 28c-15 40-48 73-94 94l-40 19h-200l-40-19zm229-127 16-6v-169l-102 3-103 3-3 79-3 79 13 8 13 9h77c42 0 83-3 92-6zM777 1053c-4-3-7-29-7-58v-51l12-12 12-12h210l41 20 40 20 18 29c9 16 17 39 17 50v21H952c-93 0-172-3-175-7z"/></g><g fill="#f36727" transform="matrix(.1 0 0 -.1 0 300)"><path d="m1200 2051-10-20v-332l10-20 11-19h98l11 19 10 20v332l-10 20-11 19h-98l-11-19zm-374-87-16-15v-255l13-18 13-17 49 3 50 3 3 144 3 143-12 14-11 14h-77l-15-16zm1116 4-12-12v-132c0-73 3-139 6-148l6-16h94l12 12 12 12v272l-12 12-12 12h-82l-12-12zm-388-101c-3-8-3-56-2-108l3-94 48-3 49-3 14 12 14 11v174l-12 12-12 12h-97l-5-13zM0 1523v-268l23-40 22-40 40-22 40-23h235v118l-13 10-13 11-95 3-94 3-3 88-3 87h221v116l-12 12-12 12H142l-4 71-4 71-32 29-32 29H0v-267zm446 251-16-15v-65l13-18 13-17 49 3 50 3 3 48 3 49-12 14-11 14h-77l-15-16zm1882 5-18-10v-85l12-12 12-12h82l12 12 12 12v85l-19 11c-25 13-71 12-93-1zM442 1578l-12-12v-436h118l11 14 11 14-2 213-3 214-55 3-55 3-13-13zm305-2c-50-18-76-42-98-91l-19-40v-179l21-43 21-43 42-25 43-25h363v331l-14 27c-8 15-27 39-43 55l-30 27-34 10-34 10h-90l-90-1-38-13zm231-219 3-88-103 3-103 3-3 73-3 74 12 14 12 15 91-3 91-3 3-88zm224 221-12-12v-307l20-39 20-38 32-24 33-23h380l3 228 2 227h-119l-11-19-10-20v-282l-102 3-103 3-5 155-5 155-55 3-55 3-13-13zm561 5-13-5v-449l63 3 62 3 5 155 5 155 94 3 93 3 14-12 14-11v-298h128l6 16c3 9 6 79 6 157v142l-19 40c-22 49-48 73-98 91l-38 13h-155c-85 0-161-3-167-6zm553-9-16-15v-430l68 3 67 3 3 228 2 227h-109l-15-16zm299-3c-46-21-79-54-94-94l-11-28v-190l20-39 20-38 32-24 33-23 193-3 192-3v320l-11 28c-15 40-48 73-94 94l-40 19h-200l-40-19zm229-127 16-6v-169l-102 3-103 3-3 79-3 79 13 8 13 9h77c42 0 83-3 92-6zM777 1053c-4-3-7-29-7-58v-51l12-12 12-12h210l41 20 40 20 18 29c9 16 17 39 17 50v21H952c-93 0-172-3-175-7z"/></g><g fill="#898686" transform="matrix(.1 0 0 -.1 0 300)"><path d="M0 1523v-268l23-40 22-40 40-22 40-23h235v118l-13 10-13 11-95 3-94 3-3 88-3 87h221v116l-12 12-12 12H142l-4 71-4 71-32 29-32 29H0v-267zm442 55-12-12v-436h118l11 14 11 14-2 213-3 214-55 3-55 3-13-13zm305-2c-50-18-76-42-98-91l-19-40v-179l21-43 21-43 42-25 43-25h363v331l-14 27c-8 15-27 39-43 55l-30 27-34 10-34 10h-90l-90-1-38-13zm231-219 3-88-103 3-103 3-3 73-3 74 12 14 12 15 91-3 91-3 3-88zm224 221-12-12v-307l20-39 20-38 32-24 33-23h380l3 228 2 227h-119l-11-19-10-20v-282l-102 3-103 3-5 155-5 155-55 3-55 3-13-13zm561 5-13-5v-449l63 3 62 3 5 155 5 155 94 3 93 3 14-12 14-11v-298h128l6 16c3 9 6 79 6 157v142l-19 40c-22 49-48 73-98 91l-38 13h-155c-85 0-161-3-167-6zm553-9-16-15v-430l68 3 67 3 3 228 2 227h-109l-15-16zm299-3c-46-21-79-54-94-94l-11-28v-190l20-39 20-38 32-24 33-23 193-3 192-3v320l-11 28c-15 40-48 73-94 94l-40 19h-200l-40-19zm229-127 16-6v-169l-102 3-103 3-3 79-3 79 13 8 13 9h77c42 0 83-3 92-6zM777 1053c-4-3-7-29-7-58v-51l12-12 12-12h210l41 20 40 20 18 29c9 16 17 39 17 50v21H952c-93 0-172-3-175-7z"/></g><g fill="#352f31" transform="matrix(.1 0 0 -.1 0 300)"><path d="M0 1533v-258l19-41 19-41 38-29 37-29 124-4 124-3-3 63-3 64-103 5-103 5-9 15-10 15v155h231l-3 63-3 62-110 5-110 5-3 60c-1 33-4 70-7 83l-6 23-32 19-32 20H0v-257zm436 31c-3-9-6-110-6-225v-210l63 3 62 3 3 223 2 222H442l-6-16zm284-6c-19-13-45-39-57-57l-23-34v-224l23-34 22-34 45-22 44-23h346v316l-22 44-23 44-28 20-28 21-132 3-132 3-35-23zm258-120 12-12v-166H794l-12 12-12 12v76c0 42 3 80 7 83 3 4 47 7 98 7h91l12-12zm218 126c-3-9-6-77-6-152v-137l19-40c21-46 54-79 94-94l28-11h325l12 12 12 12v427l-62-3-63-3-5-155-5-155-96-3-97-3-16 16-16 16v289h-118l-6-16zm561 9-7-6v-438l63 3 62 3 3 158 3 158 107-3 107-3 3-158 3-158 62 3 62 3 3 166 2 165-23 34c-12 19-38 45-56 57l-34 23h-177c-97 0-180-3-183-7zm560 0-7-6v-437h106l12 12 12 12v426h-58c-32 0-62-3-65-7zm284-10-33-16-26-40-26-39-4-88-4-88 12-36c6-20 23-51 38-68l26-31 33-13 32-14h353l-4 168-3 169-27 40-26 40-35 16-35 17h-237l-34-17zm259-133 11-20-3-73-3-72-96-3-97-3-16 16-16 16v135l12 12 12 12h185l11-20zM782 1048l-12-12v-37c0-21 3-44 6-53l6-16h243l32 20 32 19 16 30c8 17 15 37 15 46v15H794l-12-12z"/></g></g></svg>