<?xml version="1.0" encoding="UTF-8" standalone="yes"?>
<svg width="512" height="512" viewBox="0 0 512 512" fill="none" version="1.2" baseProfile="tiny-ps" xmlns="http://www.w3.org/2000/svg">
  <title>bimi-svg-tiny-12-ps</title>
  <rect width="512" height="512" fill="white"/>
  <path d="M187.327 407.264C188.351 404.679 265.269 217.994 275.067 192.204C280.033 203.26 285.979 214.45 292.081 225.863C307.491 254.729 323.436 284.554 323.436 313.666C323.436 378.22 279.721 389.566 266.338 391.505C255.381 393.087 247.787 403.274 249.369 414.241C250.816 424.228 259.39 431.427 269.188 431.427C270.146 431.427 271.103 431.361 272.083 431.227C314.261 425.119 363.52 390.658 363.52 313.666C363.52 274.501 344.346 238.613 327.422 206.938C313.036 180.033 299.942 155.313 303.349 137.079C305.821 123.883 315.196 116.394 329.693 115.457C331.876 115.324 333.746 113.808 334.548 111.78L341.674 93.2783C342.966 89.957 342.342 88.0177 339.558 85.7886C336.485 83.3144 327.177 80.5726 319.271 80.5726C298.294 80.5726 272.707 87.4382 250.415 142.986C249.502 145.238 151.362 388.607 149.937 392.24C145.795 402.583 150.783 414.286 161.116 418.454C171.449 422.6 183.162 417.607 187.305 407.264H187.327Z" fill="#040000"/>
</svg>