<?xml version="1.0" encoding="utf-8"?>
<!-- BIMI from DMARC Advisor   -->
<svg version="1.2" baseProfile="tiny-ps" id="DMARC_Advisor_BIMI"
	 xmlns="http://www.w3.org/2000/svg" xmlns:xlink="http://www.w3.org/1999/xlink" viewBox="0 0 1024 1024"
	 xml:space="preserve">
	 <title>DMARC Advisor</title>
<path id="Body_Color" fill="#FFFFFF" d="M107.05,516.83c-6.84,18.16-10.81,34.65-12.4,49.61c-1.95,18.37-0.16,34.28,4.34,48.01
	c6.39,19.49,17.97,34.51,30.39,46c18.11,16.76,38.29,25.99,48.59,30.11c6.18,2.56,10.28,8.57,10.46,15.31
	c0.72,18.58,3.57,34.55,7.93,48.29c5.33,16.78,13.07,30.04,22.05,40.57l5.54,6.12l-0.02-0.02c0,0,0.28,0.29,0.25,0.27
	c12.85,13.39,27.91,21.86,42.32,27.15c21.71,7.97,41.96,9.18,51.71,9.19c6.51-0.1,12.46,3.71,15.16,9.69
	c4.31,9.94,8.93,18.81,13.87,26.68c5.64,8.98,11.6,16.7,17.83,23.23c0,0,0.29,0.3,0.27,0.28c4.23,4.4,8.54,8.31,12.94,11.72
	c4.76,3.68,9.58,6.84,14.45,9.5c18.57,10.11,37.74,13.21,54.98,12.85c26.45-0.56,48.48-8.86,57.6-12.8c3.18-1.42,6.79-1.5,10.03-0.2
	c18.07,7.48,34.49,12.36,49.44,14.76c18.57,2.98,34.73,2.23,48.77-2.05c20.28-6.24,36.14-18.13,48.27-31.18
	c17.59-18.93,27.53-40.22,31.97-50.91c1.57-3.87,5.26-6.43,9.39-6.54c19.11-0.52,35.59-3.18,49.74-7.68
	c17.67-5.61,31.58-14.02,42.63-23.64c15.96-14.06,25.67-31.13,31.63-47.59c8.69-23.97,9.23-46.77,8.91-57.88
	c-0.05-5.46,3.11-10.44,8.04-12.69c16.81-8.09,30.84-17.17,42.3-26.78c13.81-11.58,23.63-24,29.75-36.51l3.42-7.86
	c0,0,0-0.01,0.01-0.01c6.95-17.72,7.64-35.46,5.91-51.17c-2.64-24.06-11.43-43.56-15.28-51.94c-1.98-4.52-2.09-9.64-0.29-14.24
	c6.68-17.68,10.26-33.75,11.64-48.3c1.69-17.82-0.11-33.29-4.27-46.49l-0.61-1.92l-0.78-2.29l-0.71-1.94l-0.46-1.2l-0.77-1.9
	l-0.79-1.84l-0.8-1.78l-1.14-2.39l-1.36-2.65l-1.14-2.08c0,0-0.4-0.71-0.36-0.64c-7.68-13.51-17.74-24.22-27.83-32.59
	c-14.66-12.17-29.4-19.57-37.81-23.17c-6.58-2.73-10.95-9.13-11.14-16.31c-0.24-18.56-2.57-34.58-6.57-48.4
	c-4.94-17.06-12.25-30.73-21.02-41.58c0,0-5.77-6.57-5.75-6.55c0,0-0.28-0.29-0.26-0.27c-13.06-13.51-28.35-22.02-42.97-27.35
	c-21.9-7.99-42.31-9.18-52.15-9.18c-5.82,0.08-11.15-3.32-13.56-8.67c-4.39-10.09-9.1-19.09-14.14-27.06
	c-5.77-9.14-11.87-16.96-18.24-23.58c0,0-0.29-0.3-0.27-0.28c-4.26-4.4-8.6-8.29-13.03-11.7c-4.79-3.68-9.64-6.84-14.54-9.5
	c-18.8-10.2-38.21-12.6-55.63-11.46c-26.79,1.76-49.08,11.58-58.33,15.56c-2.8,1.25-5.97,1.32-8.82,0.18
	c-22.49-9.24-42.44-15.27-60.19-17.55c-14.53-1.87-27.47-1.27-38.96,2.28c-20.38,6.41-36.3,18.26-48.45,31.23
	c-17.56,18.75-27.4,39.8-31.78,50.57c-1.51,3.72-5.06,6.19-9.05,6.29c-19.14,0.55-35.63,3.32-49.82,7.78
	c-17.75,5.58-31.82,13.82-42.99,23.4c-16.26,13.99-26.29,31.08-32.5,47.6c-9.07,24.13-9.98,47.18-9.79,58.41
	c0.04,4.58-2.61,8.76-6.75,10.65c-17.1,8-31.42,17.01-43.12,26.62c-14.3,11.74-24.54,24.38-30.96,37.15l-3.63,8.07
	c0,0,0,0.01,0,0.01c-7.37,18.26-8.4,36.6-6.75,52.87c2.5,24.68,11.33,44.76,15.22,53.38c1.52,3.47,1.57,7.36,0.21,10.81"/>
<path id="Body_Outline" d="M946.65,511.13c6.89-18.45,10.88-35.44,12.57-51.05c2.56-23.69-0.15-44.29-5.7-62.11
	c-0.02-0.05-0.03-0.11-0.05-0.16l-0.66-2.01c-0.04-0.13-0.08-0.25-0.13-0.37l-0.94-2.67c-0.05-0.13-0.09-0.27-0.14-0.4l-0.86-2.28
	c-0.04-0.1-0.08-0.2-0.12-0.3l-0.59-1.5c-0.04-0.1-0.08-0.2-0.12-0.3l-0.92-2.22c-0.05-0.12-0.1-0.24-0.15-0.35l-0.96-2.18
	c-0.05-0.12-0.1-0.23-0.16-0.35l-0.99-2.15c-0.06-0.13-0.12-0.26-0.19-0.4l-1.38-2.81c-0.08-0.16-0.16-0.31-0.23-0.47l-1.62-3.08
	c-0.08-0.15-0.15-0.29-0.23-0.43l-1.35-2.42c-0.05-0.09-0.1-0.17-0.15-0.26l-0.53-0.92c-0.01-0.02-0.03-0.05-0.04-0.07
	c-10.37-17.65-23.68-31.69-37.16-42.48c-13.29-10.64-26.63-18.13-36.97-23.06c-1.42-17.29-4.45-32.54-8.74-45.99
	c-6.97-21.84-17.06-39.12-28.79-52.79l-7.88-8.47l-0.32-0.32c-17.22-16.8-37.02-27.27-55.93-33.55
	c-20.75-6.89-40.26-8.83-53.39-9.19c-4.09-7.96-8.37-15.23-12.83-21.86c-7.17-10.69-14.72-19.78-22.54-27.47l-0.32-0.32
	c-5.37-5.25-10.84-9.87-16.39-13.9c-6.08-4.41-12.22-8.16-18.4-11.29c-23.8-12.06-48.06-14.6-69.75-12.56
	c-26.75,2.52-49.37,11.87-61.42,17.32C487.34,75.4,466.92,70,448.73,68.01c-17.87-1.95-33.7-0.7-47.73,3.92
	c-23.96,7.77-42.62,21.86-56.88,37.22c-16.73,18.04-27.32,37.8-33.12,50.74c-18.51,0.91-34.69,3.82-48.84,8.14
	c-20.81,6.35-37.33,15.83-50.5,26.89c-19.51,16.32-31.73,36.36-39.39,55.84c-8.96,22.79-11.54,44.81-12.16,58.98
	c-16.38,7.79-30.35,16.5-42.07,25.74c-17.62,13.89-30.17,29.1-38.26,44.43l-4.69,9.9c-9.56,22.39-11.44,45.02-9.8,65.18
	c1.97,24.3,9.21,44.88,13.99,56.73c-7.1,18.56-11.37,35.61-13.42,51.23c-3.05,23.14-1.1,43.28,4.12,60.76
	c7.57,25.3,21.82,45.11,37.41,60.32c16.5,16.09,34.59,26.84,47.66,33.34c0.96,17.73,3.71,33.37,7.72,47.2
	c6.44,22.17,16.32,39.73,27.76,53.81l7.56,8.35l0.33,0.32c17.46,17.12,37.55,27.8,56.76,34.19c20.52,6.82,39.85,8.86,53.13,9.28
	c3.95,7.57,8.06,14.52,12.33,20.89c7.19,10.71,14.75,19.84,22.59,27.57l0.33,0.32c5.48,5.37,11.06,10.11,16.73,14.22
	c6.22,4.51,12.5,8.34,18.81,11.54c23.74,11.99,47.93,15.29,69.6,14.21c26.96-1.34,49.85-9.32,62.29-14.59
	c23.05,8.42,43.62,12.99,61.96,14.16c17.82,1.14,33.61-0.8,47.6-5.47c24.21-8.01,43.03-22.6,57.32-38.54
	c16.49-18.39,26.91-38.47,32.64-51.54c18.41-0.97,34.49-3.95,48.6-8.22c20.9-6.32,37.55-15.64,50.86-26.64
	c19.84-16.22,32.31-36.31,40.27-55.85c9-22.12,11.96-43.58,12.85-57.91c20.6-9.65,37.42-20.8,50.82-32.63
	c13.5-11.92,23.47-24.72,30.42-37.59l4.9-10.11c10.05-22.9,12.16-46.15,10.65-66.88C958.17,543.76,951.44,523.48,946.65,511.13z
	 M107.08,516.72c1.36-3.45,1.31-7.35-0.21-10.81c-3.89-8.62-12.72-28.7-15.22-53.38c-1.65-16.27-0.62-34.61,6.75-52.87
	c0,0,0-0.01,0-0.01l3.63-8.07c6.41-12.78,16.66-25.41,30.96-37.15c11.7-9.61,26.02-18.61,43.12-26.62
	c4.14-1.89,6.79-6.06,6.75-10.65c-0.19-11.23,0.72-34.28,9.79-58.41c6.21-16.53,16.24-33.61,32.5-47.6
	c11.17-9.58,25.23-17.82,42.99-23.4c14.19-4.46,30.68-7.23,49.82-7.78c3.98-0.1,7.53-2.57,9.05-6.29
	c4.38-10.77,14.22-31.82,31.78-50.57c12.15-12.97,28.07-24.82,48.45-31.23c11.5-3.55,24.44-4.15,38.96-2.28
	c17.75,2.29,37.71,8.32,60.19,17.55c2.84,1.14,6.02,1.07,8.82-0.18c9.25-3.98,31.53-13.8,58.33-15.56
	c17.42-1.15,36.83,1.26,55.63,11.46c4.9,2.66,9.75,5.82,14.54,9.5c4.43,3.41,8.78,7.3,13.03,11.7c-0.01-0.01,0.27,0.28,0.27,0.28
	c6.37,6.62,12.47,14.44,18.24,23.58c5.03,7.97,9.75,16.97,14.14,27.06c2.42,5.35,7.74,8.75,13.56,8.67c9.84,0,30.25,1.19,52.15,9.18
	c14.62,5.33,29.91,13.85,42.97,27.35c-0.02-0.02,0.26,0.27,0.26,0.27c-0.02-0.02,5.75,6.55,5.75,6.55
	c8.78,10.86,16.08,24.52,21.02,41.58c4,13.83,6.33,29.84,6.57,48.4c0.18,7.18,4.55,13.58,11.14,16.31
	c8.41,3.59,23.15,11,37.81,23.17c10.09,8.37,20.14,19.08,27.83,32.59c-0.04-0.07,0.36,0.64,0.36,0.64l1.14,2.08l1.36,2.65l1.14,2.39
	l0.8,1.78l0.79,1.84l0.77,1.9l0.46,1.2l0.71,1.94l0.78,2.29l0.61,1.92c4.16,13.21,5.96,28.67,4.27,46.49
	c-1.38,14.55-4.96,30.62-11.64,48.3c-1.8,4.59-1.69,9.72,0.29,14.24c3.85,8.38,12.64,27.88,15.28,51.94
	c1.73,15.71,1.04,33.45-5.91,51.17c0,0,0,0.01-0.01,0.01l-3.42,7.86c-6.12,12.5-15.94,24.92-29.75,36.51
	c-11.46,9.61-25.49,18.69-42.3,26.78c-4.93,2.25-8.08,7.22-8.04,12.69c0.32,11.1-0.22,33.9-8.91,57.88
	c-5.96,16.46-15.67,33.53-31.63,47.59c-11.06,9.63-24.97,18.04-42.63,23.64c-14.15,4.49-30.64,7.16-49.74,7.68
	c-4.14,0.11-7.82,2.67-9.39,6.54c-4.44,10.7-14.39,31.98-31.97,50.91c-12.12,13.05-27.99,24.94-48.27,31.18
	c-14.04,4.28-30.2,5.03-48.77,2.05c-14.96-2.4-31.38-7.28-49.44-14.76c-3.23-1.29-6.85-1.22-10.03,0.2
	c-9.12,3.93-31.15,12.24-57.6,12.8c-17.24,0.36-36.41-2.74-54.98-12.85c-4.87-2.65-9.69-5.81-14.45-9.5
	c-4.41-3.41-8.72-7.31-12.94-11.72c0.02,0.02-0.27-0.28-0.27-0.28c-6.23-6.53-12.19-14.25-17.83-23.23
	c-4.94-7.87-9.57-16.74-13.87-26.68c-2.7-5.98-8.65-9.79-15.16-9.69c-9.75-0.01-30.01-1.22-51.71-9.19
	c-14.42-5.3-29.48-13.76-42.32-27.15c0.02,0.02-0.25-0.27-0.25-0.27l0.02,0.02l-5.54-6.12c-8.98-10.52-16.72-23.79-22.05-40.57
	c-4.37-13.74-7.22-29.71-7.93-48.29c-0.17-6.75-4.27-12.75-10.46-15.31c-10.31-4.12-30.48-13.35-48.59-30.11
	c-12.42-11.49-24-26.51-30.39-46c-4.5-13.72-6.29-29.64-4.34-48.01c1.59-14.96,5.56-31.45,12.4-49.61"/>
<path id="Face_Color" fill-rule="evenodd" fill="#EBEBEB" d="M515.93,238.14c42.16-1.19,75.42-18.99,92.72-34.55
	c23.53,33.44,30.67,36.44,77.88,36.44c0.89,0,13.22-1.58,13.85-0.96c26.01,25.95,51.17,86.07,61.32,118.3
	c15.64,49.68,18.79,55.56,18.79,107.68c0,119.07-36.46,161.77-64.97,191.94c-32.93,34.84-86.14,76.79-199.65,77.51
	c0,0.01,0,0.01-0.01,0.01l-1.5,0l-1.5,0c0,0,0,0-0.01-0.01C399.3,733.79,342.05,691.84,309.12,657
	c-28.51-30.17-64.97-72.87-64.97-191.94c0-52.13,3.15-58.01,18.79-107.68c10.15-32.23,35.31-92.35,61.31-118.3
	c0.62-0.62,12.95,0.96,13.85,0.96c47.22,0,54.35-3,77.88-36.44c17.71,15.93,56.27,34.12,99.89,34.5
	C515.89,238.07,515.91,238.09,515.93,238.14L515.93,238.14z"/>
<path id="Mask_Color" fill-rule="evenodd" fill="#CC3333" d="M509.91,314.28c67.57-0.07,232.47-5.36,247.21,17.57
	c14.84,23.09,28.87,122.97,27.46,124.37c-20.33,20.37-42.65,25.89-69.98,34.84c-37.29,12.21-92.32,7.64-138.88-9.92
	c-26.41-9.96-50.43-28.42-65.82-29.42c-15.39,1-34.08,19.46-60.49,29.42c-46.55,17.55-101.59,22.12-138.88,9.92
	c-27.33-8.95-49.65-14.47-69.98-34.84c-1.4-1.41,12.62-101.28,27.46-124.37C282.77,308.92,442.34,314.21,509.91,314.28
	L509.91,314.28z"/>
<path id="Eye_Color_Left" fill-rule="evenodd" fill="#EBEBEB" d="M448.53,402.5c0.15-0.18,0.22-0.34,0.2-0.46
	c-1.09-7.37-31.38-22.3-37.17-24.4c-33.3-12.1-71.82-0.35-96.33,24.4l0.21,0.18c-0.15,0.18-0.22,0.34-0.2,0.46
	c1.09,7.37,37.17,30.87,42.96,32.98c33.3,12.1,66.02-8.23,90.54-32.98L448.53,402.5L448.53,402.5z"/>
<path id="Eye_Outline_Left" fill-rule="evenodd" d="M303.09,404.27l-0.07,0.25c0.52,3.42,3.99,9.77,10.93,15.89
	c12.21,10.76,35.4,25.1,40.13,26.8c16.21,5.84,32.28,5.34,47.62,0.59c20.47-6.33,39.66-20.47,55.57-36.52
	c2.39-2.41,3.67-5.73,3.52-9.14c-0.03-0.56-0.09-1.11-0.2-1.64l0.07-0.26c-0.55-3.79-3.75-9.52-10.19-14.63
	c-10.3-8.17-30.03-17.77-34.79-19.51c-19-6.95-39.5-7.16-58.75-2.03c-18.94,5.04-36.64,15.28-50.43,29.15
	c-2.45,2.48-3.76,5.88-3.61,9.37C302.91,403.16,302.98,403.72,303.09,404.27L303.09,404.27z M448.53,402.5
	c0.15-0.18,0.22-0.34,0.2-0.46c-1.09-7.37-31.38-22.3-37.17-24.4c-33.3-12.1-71.82-0.35-96.33,24.4l0.21,0.18
	c-0.15,0.18-0.22,0.34-0.2,0.46c1.09,7.37,37.17,30.87,42.96,32.98c33.3,12.1,66.02-8.23,90.54-32.98L448.53,402.5L448.53,402.5z"/>
<path id="Eye_Color_Right" fill-rule="evenodd" fill="#EBEBEB" d="M570.84,402.5c-0.15-0.18-0.22-0.34-0.2-0.46
	c1.09-7.37,31.38-22.3,37.17-24.4c33.3-12.1,71.82-0.35,96.33,24.4l-0.21,0.18c0.15,0.18,0.22,0.34,0.2,0.46
	c-1.09,7.37-37.17,30.87-42.96,32.98c-33.3,12.1-66.02-8.23-90.53-32.98L570.84,402.5L570.84,402.5z"/>
<path id="Eye_Outline_Right" fill-rule="evenodd" d="M558.78,400.49c-0.11,0.54-0.17,1.09-0.2,1.64c-0.15,3.41,1.13,6.73,3.52,9.14
	c15.9,16.06,35.1,30.19,55.56,36.52c15.34,4.75,31.41,5.25,47.62-0.59c4.73-1.7,27.92-16.04,40.13-26.8
	c6.94-6.12,10.41-12.47,10.93-15.89l-0.07-0.25c0.11-0.55,0.18-1.11,0.2-1.68c0.15-3.5-1.16-6.9-3.61-9.37
	c-13.79-13.87-31.49-24.1-50.43-29.15c-19.26-5.13-39.76-4.92-58.75,2.03c-4.76,1.74-24.48,11.34-34.79,19.51
	c-6.44,5.11-9.64,10.84-10.19,14.63L558.78,400.49L558.78,400.49z M570.84,402.5c-0.15-0.18-0.22-0.34-0.2-0.46
	c1.09-7.37,31.38-22.3,37.17-24.4c33.3-12.1,71.82-0.35,96.33,24.4l-0.21,0.18c0.15,0.18,0.22,0.34,0.2,0.46
	c-1.09,7.37-37.17,30.87-42.96,32.98c-33.3,12.1-66.02-8.23-90.53-32.98L570.84,402.5L570.84,402.5z"/>
<path id="Ear_Color_Right" fill-rule="evenodd" fill="#EBEBEB" d="M716.85,244.3c0,0,69.26-6.77,153.03,59.87
	c28.17,22.41,57.99,53.13,87.36,95.19c72.64,104.04-89.77,147.22-160.6,75.73C787.4,465.76,818.59,404.41,716.85,244.3L716.85,244.3
	z"/>
<path id="Ear_Color_Left" fill-rule="evenodd" fill="#EBEBEB" d="M307.78,244.3c0,0-69.26-6.77-153.03,59.87
	c-28.17,22.41-57.99,53.13-87.36,95.19c-72.64,104.04,89.77,147.22,160.59,75.73C237.22,465.76,206.03,404.41,307.78,244.3
	L307.78,244.3z"/>
<path id="Face_x2F_Mask_Outline" d="M975.25,386.56c-13.21-14.22-26-26.39-38.53-38.03c-10.38-9.64-20.31-18.41-29.82-26.89
	c-10.56-9.43-20.18-18.64-30.02-26.43c-32.87-28.07-64.16-43.83-89.63-54.16c-16.22-6.58-47.85-12.87-59.8-13.86
	c-4.45-0.37-9.43-0.36-14.95,0.47c-2.72,0.41-10.2,1.51-14,2.1c-3.29,0.52-14.57,1.18-15.29,1.16c-20.05-0.38-28.91-1.72-38.27-5.58
	c-10.2-4.21-16.31-12.81-26.91-28.49c-1.9-2.69-4.84-4.45-8.09-4.82c-3.25-0.37-6.51,0.67-8.96,2.87
	c-9.07,7.82-22.86,16.07-40.03,21.92c-12.8,4.36-27.49,7.23-43.58,7.52c-1.23-0.19-2.49-0.21-3.75-0.01
	c-16.7-0.11-32.59-2.99-46.6-7.36c-18.71-5.83-34.13-14.08-43.39-22.06c-2.44-2.2-5.7-3.24-8.95-2.87
	c-3.25,0.37-6.19,2.12-8.09,4.81c-10.58,15.74-16.66,24.38-26.87,28.6c-9.37,3.88-19.91,6.84-39.94,5.48
	c-5.44-0.37-10.75-1.1-14.05-1.57c-5.33-0.76-12.79-1.28-15.75-1.26c-6.89,0.03-23.16,0.16-29.88,1.37
	c-7.07,1.27-10.05,0.5-42.76,11.57c-26.02,8.81-56.76,26.08-89.63,54.16c-9.84,7.79-19.46,17.01-30.02,26.43
	c-9.5,8.48-19.44,17.25-29.82,26.89c-12.53,11.64-25.32,23.81-38.53,38.03c-40.34,44.3-34.41,85.48-14.97,114.92
	c5.9,8.93,14.17,16.61,23.92,22.71c16.74,10.47,38.38,16.85,61.3,16.92c42.05,0.13,88.17-16.07,116.74-51.15
	c0.67,44.2,7.23,76.97,16.21,102.47c12.54,35.6,30.23,57.2,45.73,74.98c20.51,23.45,50.42,50.15,98.02,68.32
	c30.25,11.54,66,19.16,112.62,20.58c0.72,0.07,3.37,0.06,3.37,0.06c-0.12,0,2.73-0.06,2.73-0.06c46.97-1.61,85.83-9.43,115.44-21.09
	c46.4-18.27,74.82-44.82,95.31-68.33c15.42-17.74,32.94-39.32,45.47-74.78c9.02-25.54,15.74-58.37,16.53-102.73
	c28.53,35.49,74.93,51.87,117.22,51.74c22.92-0.07,44.56-6.45,61.3-16.92c9.75-6.1,18.03-13.78,23.92-22.71
	C1009.66,472.04,1015.59,430.86,975.25,386.56z M321.68,256.19c2.11-2.67,4.23-5.16,6.37-7.43c3.53,0.38,9.53,1.02,10.05,1.03
	c23.68,0.45,38.01-0.39,49.23-4.51c11.23-4.13,19.7-11.51,30.58-25.17c10.56,7.66,24.68,15.28,41.17,21.15
	c16.44,5.86,35.26,9.85,55.14,10.55c1.43,0.23,2.89,0.24,4.36-0.04c18.91-1.18,36.05-5.32,50.9-11.09
	c14.89-5.78,27.5-13.08,37.31-20.43c10.82,13.64,19.28,21.03,30.49,25.16c11.23,4.14,25.57,4.96,49.27,4.5
	c0.52-0.01,6.5-0.67,10.03-1.06c2.35,2.51,4.69,5.29,7.01,8.29c4.62,6.68,9,13.17,13.13,19.48c2.09,3.48,4.14,7.07,6.15,10.73
	c3.08,5.61,6.04,11.38,8.87,17.17c-6.07-1.49-12.72-2.82-19.89-3.92c-58.19-8.97-154.08-11.46-201.93-13.82
	c-47.87,2.38-141.14,4.7-197.77,13.69c-6.95,1.1-13.41,2.42-19.3,3.9c2.8-5.76,5.76-11.5,8.82-17.08c1.61-2.94,3.26-5.83,4.93-8.66
	C311.3,271.38,316.33,263.91,321.68,256.19z M228.65,468.35c0.39,0.46,0.78,0.92,1.18,1.37c-0.26,2.53-0.79,4.3-1.85,5.38
	c-70.82,71.49-233.24,28.31-160.59-75.73c29.37-42.07,59.19-72.78,87.36-95.19c72.91-58,134.82-60.4,149.66-60.04
	c1.65,0.04,2.72,0.11,3.15,0.15c-7.37,9.92-14.51,21.98-21.06,34.8c-0.93,1.82-1.85,3.65-2.75,5.49
	c-5.45,9.79-10.35,19.14-14.75,28.07c-6.96,3.39-11.73,7.07-13.89,10.74c-12.45,19.18-24.29,88.62-29.27,118.06
	C223.12,457.51,228.06,467.66,228.65,468.35z M511.13,491.08c4.96,1.53,36.6,22.88,50.81,27.31c26.01,6.78,53.27,11.1,79.71,10.65
	c30.21-0.51,58.34-4.73,80.42-14.76c16.95-7.67,31.86-13.61,45.56-22.39c1.54-0.99,3.06-1.99,4.58-3.01
	c-2.21,31.21-7.03,56.25-13.7,76.68c-13.89,42.52-35.42,64.19-53.26,81.55c-19.37,18.9-45.9,39.46-87.16,52.59
	c-25.67,8.17-58.8,14.15-98.02,14.02c-0.58-2.86-1.19-5.76-1.65-8.76c-0.93-6.07-1.76-11.99-2.21-17.55
	c-0.79-9.6-0.9-17.58-0.9-21.24c2.65,0.33,4.63,0.94,7.74,0.46c4.04-0.62,18.72-8.58,20.96-10.57c2.24-1.99,2.42-6.53,1.61-8.51
	c-0.7-1.72-3.74,0.47-6.46,0.05c-2.96-0.45-17.01,4.33-20.42,4.39c-2.95,0.05-3.01,0.32-5.74,0.16c-0.1-0.02-0.21-0.03-0.32-0.02
	c-0.1-0.01-0.21,0-0.31,0.02c-2.81,0.16-2.87-0.11-5.89-0.16c-3.48-0.06-17.85-4.84-20.87-4.39c-2.78,0.42-5.89-1.77-6.6-0.05
	c-0.83,1.99-0.64,6.53,1.65,8.51c2.29,1.99,17.3,9.94,21.42,10.57c3.16,0.48,4.74-0.13,7.23-0.46c0,3.66-0.12,11.64-0.9,21.24
	c-0.45,5.56-1.29,11.48-2.21,17.55c-0.45,2.97-1.06,5.85-1.64,8.68c-39.1-0.12-69.27-6.43-95.66-14.74
	c-41.99-13.22-69.74-33.49-88.97-52.31c-17.73-17.31-39.03-38.96-52.93-81.28c-6.64-20.21-11.58-44.9-13.98-75.66
	c1.41,0.94,2.82,1.87,4.24,2.77c13.74,8.77,28.67,14.72,45.66,22.38c22.15,9.96,50.35,14.11,80.61,14.51
	c26.44,0.34,53.7-4.04,79.68-10.92c14.47-4.51,44.79-27.4,47.4-27.39h0c0.11-0.02,0.28,0.01,0.51,0.08l0.06,0.01 M773.33,465.94
	c-17.32,12.76-36.34,17.8-58.72,25.12c-37.29,12.21-92.32,7.64-138.88-9.92c-26.41-9.96-50.43-28.42-65.82-29.42
	c-15.39,1-34.08,19.46-60.49,29.42c-46.55,17.55-101.59,22.12-138.88,9.92c-22.42-7.34-41.47-12.38-58.82-25.2l-0.03-0.8
	c-0.19-25.45,0.33-39.61,3.01-53.47c2.7-13.95,7.54-27.56,15.39-51.92c3.32-10.06,8.17-22.89,14.09-36.5
	c45.4-12.75,168.52-8.94,225.72-8.89c57.07-0.06,183.55-3.84,230.38,8.79c5.96,13.66,10.85,26.53,14.18,36.62
	c7.88,24.35,12.7,37.96,15.46,51.9c2.74,13.85,3.42,28.01,3.42,53.47L773.33,465.94z M796.65,475.1c-1.11-1.12-1.64-3.01-1.88-5.72
	c0.43-0.49,0.86-0.99,1.28-1.5c0.59-0.66,5.35-10.61,2.87-26.38c-4.65-29.47-16.5-98.88-28.88-118.09
	c-2.19-3.7-7.15-7.41-14.43-10.84c-4.03-8.17-8.48-16.69-13.38-25.59c-1.29-2.67-2.61-5.33-3.95-7.95
	c-6.55-12.81-13.7-24.84-21.08-34.75c5.31-0.4,72.33-4.03,152.7,59.9c28.17,22.41,57.99,53.13,87.36,95.19
	C1029.88,503.41,867.47,546.59,796.65,475.1z"/>
</svg>
