<?xml version="1.0" encoding="UTF-8"?><svg xmlns="http://www.w3.org/2000/svg" width="1024" height="1024" viewBox="0 0 1024 1024" fill="none" version="1.2" baseProfile="tiny-ps"><title>Anyfin</title><rect width="1024" height="1024" fill="#FFD46F"></rect><path d="M456.059 573.504H482.227L426.425 419.474H396.365L340.563 573.504H366.518L380.078 534.884H442.5L456.059 573.504ZM388.181 511.804L411.285 445.965L434.397 511.804H388.181Z" fill="#2B261A"></path><path d="M491.388 457.404H515.614V474.546C519.645 468.451 524.881 463.69 531.296 460.261C537.711 456.833 544.74 455.119 552.384 455.119C563.633 455.119 572.826 458.547 579.962 465.404C587.098 472.26 590.67 482.848 590.67 497.167V573.498H566.665V504.249C566.665 494.501 564.682 487.419 560.717 482.995C556.751 478.58 551.45 476.372 544.822 476.372C539.915 476.372 535.228 477.706 530.763 480.372C526.29 483.039 522.652 486.926 519.842 492.025C517.032 497.133 515.623 503.106 515.623 509.963V573.498H491.396V457.404H491.388Z" fill="#2B261A"></path><path d="M674.548 457.401L646.159 543.324L618.746 457.401H593.012L633.452 573.953C631.576 579.13 629.561 583.13 627.398 585.952C625.235 588.766 622.744 590.783 619.934 592.012C617.124 593.233 613.773 593.839 609.881 593.839C606.997 593.839 603.613 593.536 599.714 592.921V613.257C603.319 614.019 607.071 614.4 610.963 614.4C619.614 614.4 626.783 613.292 632.485 611.084C638.179 608.877 643.005 605.215 646.979 600.116C650.944 595.008 654.508 587.891 657.687 578.749L700.077 457.401H674.548Z" fill="#2B261A"></path><path d="M723.519 477.742H706.724V457.397H723.519V451.683C723.519 440.256 726.182 431.763 731.524 426.205C736.858 420.647 745.075 417.859 756.176 417.859C760.789 417.859 765.041 418.24 768.941 419.002V438.654C766.483 438.195 764.107 437.97 761.805 437.97C757.192 437.97 753.653 439.303 751.203 441.97C748.754 444.636 747.525 448.714 747.525 454.194V457.397H768.073V477.733H747.525V573.491H723.519V477.742Z" fill="#2B261A"></path><path d="M243.785 468.372L222.524 414.134C221.058 410.385 216.994 408.611 213.447 410.16L162.118 432.626C158.57 434.175 156.891 438.469 158.357 442.218L179.618 496.456C181.085 500.204 185.148 501.979 188.696 500.43L240.025 477.964C243.572 476.406 245.252 472.112 243.785 468.372Z" fill="#2B261A"></path><path d="M201.669 507.461V566.166C201.669 570.217 204.782 573.507 208.616 573.507H264.173C268.007 573.507 271.12 570.217 271.12 566.166V507.461C271.12 503.409 268.007 500.119 264.173 500.119H208.616C204.774 500.119 201.669 503.4 201.669 507.461Z" fill="#2B261A"></path><path d="M153.542 573.286L192.828 531.775C195.539 528.909 195.539 524.26 192.828 521.395L153.542 479.883C150.831 477.018 146.431 477.018 143.719 479.883L104.434 521.395C101.722 524.26 101.722 528.909 104.434 531.775L143.719 573.286C146.439 576.152 150.831 576.152 153.542 573.286Z" fill="#2B261A"></path><path d="M456.059 573.482H482.227L426.425 419.452H396.365L340.563 573.482H366.518L380.078 534.862H442.5L456.059 573.482ZM388.181 511.773L411.293 445.934L434.405 511.773H388.181Z" fill="#2B261A"></path><path d="M491.388 457.391H515.614V474.524C519.645 468.429 524.881 463.667 531.296 460.239C537.711 456.811 544.74 455.097 552.384 455.097C563.633 455.097 572.826 458.525 579.962 465.382C587.098 472.238 590.67 482.826 590.67 497.145V573.476H566.665V504.227C566.665 494.479 564.682 487.397 560.717 482.973C556.751 478.558 551.45 476.35 544.822 476.35C539.915 476.35 535.228 477.683 530.763 480.35C526.29 483.016 522.652 486.903 519.842 492.003C517.032 497.11 515.623 503.084 515.623 509.94V573.476H491.396V457.391H491.388Z" fill="#2B261A"></path><path d="M674.548 457.386L646.159 543.309L618.746 457.386H593.012L633.452 573.938C631.576 579.115 629.561 583.115 627.398 585.937C625.235 588.751 622.744 590.768 619.934 591.997C617.124 593.218 613.773 593.824 609.881 593.824C606.997 593.824 603.613 593.521 599.714 592.906V613.242C603.319 614.004 607.071 614.385 610.963 614.385C619.614 614.385 626.783 613.277 632.485 611.069C638.179 608.862 643.005 605.2 646.979 600.101C650.944 594.993 654.508 587.877 657.687 578.735L700.077 457.386H674.548V457.386Z" fill="#2B261A"></path><path d="M723.519 477.733H706.724V457.397H723.519V451.683C723.519 440.256 726.182 431.763 731.524 426.205C736.858 420.647 745.075 417.859 756.176 417.859C760.789 417.859 765.041 418.24 768.941 419.002V438.654C766.483 438.195 764.107 437.97 761.805 437.97C757.192 437.97 753.653 439.303 751.203 441.97C748.754 444.636 747.525 448.714 747.525 454.194V457.397H768.073V477.733H747.525V573.491H723.519V477.733Z" fill="#2B261A"></path><path d="M781.188 416.941H805.414V443.224H781.188V416.941ZM781.401 457.396H805.406V573.49H781.401V457.396Z" fill="#2B261A"></path><path d="M822.318 457.391H846.544V474.524C850.575 468.429 855.81 463.667 862.226 460.239C868.641 456.811 875.67 455.097 883.314 455.097C894.563 455.097 903.756 458.525 910.892 465.382C918.028 472.238 921.6 482.826 921.6 497.145V573.476H897.595V504.227C897.595 494.479 895.612 487.397 891.646 482.973C887.681 478.558 882.38 476.35 875.752 476.35C870.845 476.35 866.158 477.683 861.693 480.35C857.22 483.016 853.582 486.903 850.772 492.003C847.962 497.11 846.552 503.084 846.552 509.94V573.476H822.318V457.391Z" fill="#2B261A"></path></svg>