<?xml version="1.0" encoding="UTF-8"?>
<svg xmlns="http://www.w3.org/2000/svg" baseProfile="tiny-ps" version="1.2" viewBox="0 0 80 80">
<title>Luum</title>
  <!-- Generator: Adobe Illustrator 28.7.0, SVG Export Plug-In . SVG Version: 1.2.0 Build 136)  -->
  <g>
    <g id="Layer_1">
      <g>
        <path d="M3.9,46c-.5,0-1-.4-1-1v-14.1H0v13.8c0,2.2,1.8,4,4,4h8.3v-2.7H3.9Z"/>
        <path d="M24.7,49c-4,0-7.2-3-7.2-7v-11h2.9v11c0,2.4,1.9,4.3,4.3,4.3s4.3-1.9,4.3-4.3v-11h2.9v11c0,4-3.2,7-7.2,7Z"/>
        <path d="M47.1,49c-4,0-7.2-3-7.2-7v-11h2.9v11c0,2.4,1.9,4.3,4.3,4.3s4.3-1.9,4.3-4.3v-11h2.9v11c0,4-3.2,7-7.2,7Z"/>
        <path d="M71,40.4c1.2,0,2.3-.5,3.2-1.5l3-3.3v13.1s2.9,0,2.9,0v-17.7s-2.7,0-2.7,0l-5.4,6.3c-.3.3-.6.5-.9.5-.4,0-.7-.2-.9-.5l-5.4-6.3h-2.7v17.7h2.9v-13.1l3,3.3c.8,1,2,1.6,3.2,1.5Z"/>
      </g>
    </g>
  </g>
</svg>