<svg id="svg" version="1.2" baseProfile="tiny-ps"
  xmlns="http://www.w3.org/2000/svg" xmlns:xlink="http://www.w3.org/1999/xlink" viewBox="0 0 400 400">
<title>Coolblue</title>
<g id="svgg">
  <path id="path0" d="M0.025 95.341 C 0.050 190.123,0.052 190.652,0.463 185.580 C 4.457 136.277,24.354 92.788,58.571 58.571 C 92.788 24.354,136.277 4.457,185.580 0.463 C 190.652 0.052,190.123 0.050,95.341 0.025 L 0.000 0.000 0.025 95.341 M213.089 0.353 C 234.895 2.075,253.057 6.049,271.436 13.119 C 343.886 40.991,393.486 107.476,399.437 184.692 C 399.625 187.133,399.812 189.529,399.852 190.017 C 399.892 190.505,399.942 147.951,399.963 95.452 L 400.000 0.000 304.659 0.028 C 223.010 0.052,209.859 0.098,213.089 0.353 M303.171 111.532 C 302.443 111.717,301.714 112.290,301.375 112.945 C 300.782 114.092,300.904 191.497,301.501 192.463 C 302.387 193.896,302.414 193.899,312.982 193.899 C 325.428 193.899,324.348 194.691,324.348 185.565 C 324.348 178.089,324.134 177.555,321.021 177.263 L 319.800 177.149 319.689 145.162 L 319.578 113.174 318.926 112.492 C 318.566 112.118,317.917 111.712,317.483 111.592 C 316.694 111.372,304.007 111.319,303.171 111.532 M105.713 131.154 C 85.056 133.234,72.344 148.530,75.506 167.501 C 77.986 182.382,89.182 192.034,106.037 193.822 C 120.777 195.386,133.672 192.845,141.679 186.800 C 144.557 184.627,144.438 184.020,140.016 178.308 C 135.682 172.709,135.544 172.651,132.136 174.980 C 123.445 180.920,109.239 181.509,100.844 176.277 C 90.504 169.832,90.703 154.864,101.210 148.679 C 110.048 143.476,123.022 144.100,132.329 150.176 C 135.539 152.272,135.768 152.171,139.887 146.860 C 144.717 140.631,144.756 140.239,140.808 137.579 C 132.336 131.871,120.363 129.679,105.713 131.154 M176.595 131.029 C 156.039 132.817,146.640 142.661,146.645 162.396 C 146.651 183.223,156.983 193.143,179.590 194.027 C 205.275 195.031,217.637 184.790,217.637 162.507 C 217.637 143.444,209.442 133.887,190.904 131.334 C 189.136 131.091,178.493 130.863,176.595 131.029 M253.688 131.028 C 232.631 133.135,223.942 142.375,223.981 162.618 C 224.023 184.298,234.882 193.958,259.235 193.980 C 284.018 194.003,294.711 184.519,294.724 162.507 C 294.734 143.232,286.776 133.910,268.109 131.334 C 266.346 131.091,255.386 130.858,253.688 131.028 M185.408 145.774 C 194.935 146.836,199.298 152.984,198.698 164.504 C 198.130 175.418,193.237 180.161,182.474 180.230 C 170.843 180.304,165.724 174.989,165.724 162.840 C 165.724 150.001,172.287 144.311,185.408 145.774 M262.613 145.774 C 272.096 146.831,276.517 153.028,275.908 164.407 C 275.298 175.806,269.496 180.951,257.994 180.293 C 247.407 179.687,243.056 174.599,243.068 162.840 C 243.082 149.725,249.306 144.290,262.613 145.774 M162.500 202.101 C 160.681 203.014,160.843 198.834,160.843 244.704 C 160.843 290.212,160.713 286.546,162.364 287.573 L 163.172 288.075 173.166 288.075 C 186.349 288.075,185.109 288.943,185.198 279.655 C 185.276 271.526,185.049 270.919,181.848 270.660 L 180.477 270.549 180.366 237.150 C 180.243 200.169,180.370 203.146,178.876 202.166 C 177.885 201.517,163.777 201.461,162.500 202.101 M81.068 202.423 C 80.692 202.587,80.168 202.996,79.904 203.332 L 79.423 203.942 79.423 245.317 L 79.423 286.692 80.187 287.412 C 81.264 288.428,81.684 288.464,90.393 288.287 C 99.214 288.109,98.859 288.181,99.067 286.520 C 99.256 285.011,99.279 284.997,100.691 285.533 C 110.754 289.357,126.746 289.487,136.930 285.827 C 150.103 281.093,156.141 269.755,154.892 252.098 C 153.775 236.311,146.595 227.403,132.335 224.112 C 123.134 221.989,109.190 222.313,101.249 224.835 C 100.305 225.135,99.451 225.329,99.351 225.267 C 99.250 225.205,99.168 220.483,99.168 214.773 L 99.168 204.392 98.664 203.638 C 97.661 202.137,97.480 202.107,89.185 202.117 C 83.467 202.123,81.595 202.194,81.068 202.423 M0.028 304.659 L 0.000 400.000 95.452 399.973 C 177.148 399.950,190.345 399.903,187.022 399.649 C 136.859 395.810,93.141 375.993,58.574 341.426 C 24.021 306.874,4.331 263.471,0.353 213.089 C 0.098 209.859,0.052 223.010,0.028 304.659 M399.491 214.622 C 393.636 292.376,343.944 359.140,271.215 386.968 C 252.841 393.998,234.805 397.932,213.089 399.647 C 209.859 399.902,223.010 399.948,304.659 399.972 L 400.000 400.000 400.000 304.714 C 400.000 252.307,399.974 209.429,399.941 209.429 C 399.909 209.429,399.706 211.766,399.491 214.622 M191.501 223.189 C 190.087 224.051,190.127 223.528,190.133 241.202 C 190.142 267.517,190.730 272.419,194.591 278.333 C 199.171 285.349,206.236 287.856,221.409 287.850 C 239.060 287.843,246.716 283.912,250.125 273.105 C 251.828 267.707,252.065 263.744,251.982 242.101 L 251.913 224.301 251.188 223.576 L 250.463 222.851 243.535 222.781 C 237.337 222.719,236.530 222.751,235.889 223.091 C 234.284 223.941,234.401 222.409,234.260 244.370 C 234.168 258.834,234.062 264.376,233.864 265.089 C 232.420 270.304,228.908 272.296,221.187 272.278 C 215.697 272.265,212.999 271.404,210.756 268.949 C 208.362 266.330,208.319 265.887,208.319 243.311 C 208.319 223.030,208.392 224.071,206.922 223.175 C 205.810 222.497,192.616 222.509,191.501 223.189 M286.358 222.981 C 266.856 225.044,257.793 235.380,257.793 255.559 C 257.793 277.893,268.168 287.784,292.180 288.340 C 305.156 288.640,311.788 287.183,319.690 282.295 C 324.492 279.325,324.501 278.854,319.867 272.879 C 315.387 267.102,315.544 267.163,311.625 269.631 C 306.047 273.143,302.049 274.210,294.457 274.210 C 280.769 274.210,276.331 269.649,276.321 255.574 C 276.311 241.146,280.086 236.895,292.956 236.846 C 302.835 236.807,306.763 239.852,307.103 247.809 L 307.155 249.029 297.130 249.087 L 287.106 249.145 286.648 249.727 C 285.951 250.613,285.939 260.425,286.633 261.120 C 287.070 261.557,287.373 261.564,305.908 261.564 L 324.739 261.564 324.887 259.068 C 325.605 246.977,323.378 236.403,319.018 231.202 C 313.412 224.514,301.118 221.419,286.358 222.981 M121.487 238.272 C 130.926 239.455,135.156 244.981,135.156 256.129 C 135.156 268.523,130.051 273.667,117.804 273.615 C 106.282 273.566,101.361 268.954,100.802 257.682 C 100.092 243.343,107.381 236.503,121.487 238.272 " stroke="none" fill="#fbfbfb" fill-rule="evenodd"></path><path id="path1" d="M185.580 0.463 C 79.885 9.026,0.000 94.920,0.000 200.003 C -0.000 310.587,89.471 399.994,200.139 400.000 C 323.796 400.005,417.856 288.525,397.213 166.427 C 380.108 65.260,287.003 -7.754,185.580 0.463 M317.483 111.592 C 317.917 111.712,318.566 112.118,318.926 112.492 L 319.578 113.174 319.689 145.162 L 319.800 177.149 321.021 177.263 C 324.134 177.555,324.348 178.089,324.348 185.565 C 324.348 194.691,325.428 193.899,312.982 193.899 C 302.414 193.899,302.387 193.896,301.501 192.463 C 300.904 191.497,300.782 114.092,301.375 112.945 C 301.714 112.290,302.443 111.717,303.171 111.532 C 304.007 111.319,316.694 111.372,317.483 111.592 M122.590 131.132 C 131.821 132.043,142.975 137.154,143.656 140.784 C 143.823 141.674,143.484 142.221,139.887 146.860 C 135.768 152.171,135.539 152.272,132.329 150.176 C 123.022 144.100,110.048 143.476,101.210 148.679 C 90.703 154.864,90.504 169.832,100.844 176.277 C 109.239 181.509,123.445 180.920,132.136 174.980 C 135.544 172.651,135.682 172.709,140.016 178.308 C 143.828 183.232,144.027 183.632,143.340 184.979 C 142.125 187.360,134.959 191.233,128.888 192.790 C 120.214 195.014,103.917 194.501,95.965 191.752 C 72.248 183.556,67.463 151.018,87.955 137.285 C 96.000 131.894,108.253 129.717,122.590 131.132 M190.904 131.334 C 209.442 133.887,217.637 143.444,217.637 162.507 C 217.637 184.790,205.275 195.031,179.590 194.027 C 156.983 193.143,146.651 183.223,146.645 162.396 C 146.640 142.661,156.039 132.817,176.595 131.029 C 178.493 130.863,189.136 131.091,190.904 131.334 M268.109 131.334 C 286.776 133.910,294.734 143.232,294.724 162.507 C 294.711 184.519,284.018 194.003,259.235 193.980 C 234.882 193.958,224.023 184.298,223.981 162.618 C 223.942 142.375,232.631 133.135,253.688 131.028 C 255.386 130.858,266.346 131.091,268.109 131.334 M178.868 145.780 C 169.829 146.831,165.724 152.160,165.724 162.840 C 165.724 174.989,170.843 180.304,182.474 180.230 C 193.237 180.161,198.130 175.418,198.698 164.504 C 199.417 150.701,192.522 144.192,178.868 145.780 M256.073 145.780 C 246.834 146.855,243.080 151.780,243.068 162.840 C 243.056 174.599,247.407 179.687,257.994 180.293 C 269.496 180.951,275.298 175.806,275.908 164.407 C 276.640 150.737,269.676 144.198,256.073 145.780 M178.876 202.166 C 180.370 203.146,180.243 200.169,180.366 237.150 L 180.477 270.549 181.848 270.660 C 185.049 270.919,185.276 271.526,185.198 279.655 C 185.109 288.943,186.349 288.075,173.166 288.075 L 163.172 288.075 162.364 287.573 C 160.713 286.546,160.843 290.212,160.843 244.704 C 160.843 198.834,160.681 203.014,162.500 202.101 C 163.777 201.461,177.885 201.517,178.876 202.166 M97.389 202.496 C 97.813 202.710,98.387 203.223,98.664 203.638 L 99.168 204.392 99.168 214.773 C 99.168 220.483,99.250 225.205,99.351 225.267 C 99.451 225.329,100.305 225.135,101.249 224.835 C 109.190 222.313,123.134 221.989,132.335 224.112 C 146.595 227.403,153.775 236.311,154.892 252.098 C 156.141 269.755,150.103 281.093,136.930 285.827 C 126.746 289.487,110.754 289.357,100.691 285.533 C 99.279 284.997,99.256 285.011,99.067 286.520 C 98.859 288.181,99.214 288.109,90.393 288.287 C 81.684 288.464,81.264 288.428,80.187 287.412 L 79.423 286.692 79.423 245.317 L 79.423 203.942 79.904 203.332 C 80.819 202.168,81.140 202.126,89.185 202.117 C 95.829 202.109,96.699 202.149,97.389 202.496 M206.922 223.175 C 208.392 224.071,208.319 223.030,208.319 243.311 C 208.319 265.887,208.362 266.330,210.756 268.949 C 212.999 271.404,215.697 272.265,221.187 272.278 C 228.908 272.296,232.420 270.304,233.864 265.089 C 234.062 264.376,234.168 258.834,234.260 244.370 C 234.401 222.409,234.284 223.941,235.889 223.091 C 236.530 222.751,237.337 222.719,243.535 222.781 L 250.463 222.851 251.188 223.576 L 251.913 224.301 251.982 242.101 C 252.065 263.744,251.828 267.707,250.125 273.105 C 246.716 283.912,239.060 287.843,221.409 287.850 C 206.236 287.856,199.171 285.349,194.591 278.333 C 190.730 272.419,190.142 267.517,190.133 241.202 C 190.127 223.528,190.087 224.051,191.501 223.189 C 192.616 222.509,205.810 222.497,206.922 223.175 M300.610 222.966 C 318.938 224.868,326.270 235.771,324.887 259.068 L 324.739 261.564 305.908 261.564 C 287.373 261.564,287.070 261.557,286.633 261.120 C 285.939 260.425,285.951 250.613,286.648 249.727 L 287.106 249.145 297.130 249.087 L 307.155 249.029 307.103 247.809 C 306.763 239.852,302.835 236.807,292.956 236.846 C 280.086 236.895,276.311 241.146,276.321 255.574 C 276.331 269.649,280.769 274.210,294.457 274.210 C 302.049 274.210,306.047 273.143,311.625 269.631 C 315.544 267.163,315.387 267.102,319.867 272.879 C 324.501 278.854,324.492 279.325,319.690 282.295 C 311.788 287.183,305.156 288.640,292.180 288.340 C 268.168 287.784,257.793 277.893,257.793 255.559 C 257.793 238.221,264.203 228.556,278.431 224.441 C 283.592 222.949,293.860 222.266,300.610 222.966 M114.165 238.300 C 104.607 239.527,100.218 245.893,100.802 257.682 C 101.361 268.954,106.282 273.566,117.804 273.615 C 130.051 273.667,135.156 268.523,135.156 256.129 C 135.156 242.609,127.993 236.526,114.165 238.300 " stroke="none" fill="#f36424" fill-rule="evenodd"></path></g></svg>
