<?xml version="1.0" encoding="utf-8"?>
<svg version="1.2" baseProfile="tiny-ps" xmlns="http://www.w3.org/2000/svg" xmlns:xlink="http://www.w3.org/1999/xlink" viewBox="0 0 170 170" xml:space="preserve">
<title>KDDI CORPORATION</title>
<rect y="0" fill="#FFFFFF" width="170" height="170"/>
<g>
	<path fill="#EB5505" d="M147.7,76.6c-5.8,8.9-12.5,18.2-17.9,23.3c-3.6,3.4-11.1,8.1-8.1-3.1c0.9-3.2,9.9-37,9.9-37 c-2.4,0-14.5-0.7-18.6,14.4c0,0-2.6,9.6-3.7,13.6c-0.7,2.5-1.8,4.7-3.1,6.7c-4.3,6.6-10.1,9.2-14.1,9.4c-2.4-0.1-3.5-1-3.9-2.6 s0.4-5,0.8-6.6c0.4-1.4,9.3-34.8,9.3-34.8c-1.3,0-14.4-1.2-18.6,14.4l-4.4,16.4c-0.3,1-1.1,3-2.3,4.9c-2.8,4.1-7.9,8.4-10.5,8.4 c-1.9,0-2.7-2.2-1.3-7.1l9.9-37h-4.4c-15.5,0-26.6,2.5-34.8,7.9c-13.8,9-17.3,26.8-17.3,30.5c0,3.9,1.2,12.1,14.8,12.1 c8.5,0,14.5-4.5,18.1-8.6c0.1-0.2,0.3-0.3,0.4-0.5c0.3,1.9,1,4,2.4,5.7c1.8,2.1,5.2,3.3,8.4,3.3c7.2,0,13.3-4.8,16.5-9l0,0 c0.8,4.1,3.9,9,14.5,9c8.5,0,14.5-4.5,18.1-8.6c0.1-0.2,0.3-0.3,0.4-0.5c0.3,1.9,1,4,2.4,5.7c0.1,0.1,0.1,0.1,0.2,0.2 c0,0,0,0,0.1,0.1c1.8,1.9,5.3,3.1,8.1,3.1c6.1,0,12.2-3.5,17.3-8.9c6.6-7,15.3-19.6,18.8-24.8C155.1,76.6,147.7,76.6,147.7,76.6z M49.4,86.9c-0.8,2.8-1.9,5.3-3.3,7.5c-4.3,6.6-10.1,9.2-14.1,9.4c-4.3-0.2-4.8-2.8-3-9.3c6-22.5,19.6-27.7,26.1-29L49.4,86.9z"/>
</g>
</svg>