<?xml version="1.0" encoding="UTF-8"?><svg xmlns="http://www.w3.org/2000/svg" baseProfile="tiny-ps" version="1.2" viewBox="0 0 652 652" xml:space="preserve">
  <title>Discovery</title>
  <g>
    <circle class="st0" cx="325.3" cy="323.6" fill="#FFFFFF" r="297.9"/>
    <path class="st1" d="M224.8,189c-15.5,15.1-31,30.1-45.9,46.2c48.5,51.2,98.5,101.5,149.6,150.2c51.1-48.7,101.6-99,149.6-150.2&#10;&#9;&#9;c-15-16.1-30.4-30.6-45.9-45.7c-35.1,32.1-69.7,64.3-103.7,97.5C294.9,254.3,260.4,221.1,224.8,189L224.8,189z M273.3,147.8&#10;&#9;&#9;c19.1,15.1,37.7,31.1,56.2,47.2c18.1-16.1,36.6-32.1,55.7-47.2c-18.1-14.6-36.6-29.1-56.2-42.2&#10;&#9;&#9;C309.4,118.6,290.8,132.7,273.3,147.8L273.3,147.8z M137.6,281.4c-11.9,14.6-23.2,29.1-34.1,44.7C165.4,410,242.3,484.3,329,543.6&#10;&#9;&#9;c86.2-59.8,163-133.6,224.4-218c-10.3-15.1-21.7-29.6-33.5-44.2c-57.3,69.3-121.8,133.1-190.4,191.9&#10;&#9;&#9;C259.9,414.5,195.4,351.2,137.6,281.4z M50.4,325.1C49.9,178.9,176.3,53.8,326.9,53.3c150.7,0,277.6,125.6,277.1,271.8&#10;&#9;&#9;c0,146.2-126.4,271.3-277.1,271.3C176.8,596.3,50.4,471.3,50.4,325.1L50.4,325.1z M12.2,325.1c0-170.3,141.4-308.4,315.2-308.4&#10;&#9;&#9;c173.9,0,315.2,138.1,315.2,308.4S501.3,633.5,327.4,633.5C153.1,633.5,12.2,495.4,12.2,325.1L12.2,325.1z M33.3,325.1&#10;&#9;&#9;c0,158.7,131.6,287.3,293.6,287.3c162,0,293.6-128.6,293.6-287.3c0-158.7-131.6-287.3-293.6-287.3&#10;&#9;&#9;C164.9,37.2,33.3,166.3,33.3,325.1z" fill="#BA8C60"/>
  </g>
</svg>
