<?xml version="1.0" encoding="UTF-8"?>
<svg version="1.2" baseProfile="tiny-ps" id="Layer_1" xmlns="http://www.w3.org/2000/svg" viewBox="0 0 180 180" xml:space="preserve">
  <title>29CM</title>
  <rect y="0" width="180" height="180" fill="#fff" stroke-width="0"/>
  <path d="M66.7,75.1c-5.5,0-9.9,4.3-9.9,9.6s4.3,9.3,9.6,9.3.4,0,.7,0c.1,0,.2,0,.3,0l-7.4,10.5h4.9l10.1-14.6c1-1.5,1.6-3.3,1.6-5.1,0-5.3-4.4-9.6-9.9-9.6ZM66.7,90.6c-3.3,0-5.9-2.7-5.9-5.9s2.7-5.9,5.9-5.9,5.9,2.7,5.9,5.9-2.7,5.9-5.9,5.9Z" fill="#000" fill-rule="evenodd" stroke-width="0"/>
  <path d="M108.9,82.1c-2-2-4.9-3.3-8-3.3-6.2,0-11.3,5.1-11.3,11.3s5.1,11.3,11.3,11.3,5.9-1.3,8-3.3l2.7,2.7c-2.8,2.7-6.5,4.3-10.7,4.3-8.4,0-15.3-6.7-15.3-15s6.9-15,15.3-15,7.9,1.6,10.7,4.3l-2.7,2.7Z" fill="#000" stroke-width="0"/>
  <path d="M135.5,89.8l10-14.1h4.4v28.7h-4v-22.6l-10.4,15-10.4-15v22.6h-4v-28.7h4.4l10,14.1Z" fill="#000" stroke-width="0"/>
  <path d="M39.1,75.1c5,0,9.1,3.9,9.1,8.8s-.8,4.2-2.3,5.7l-10.6,11.1h12.9v3.7h-18.2v-3.7l12.9-13.5c.8-.9,1.3-2.1,1.3-3.3,0-2.8-2.3-5.1-5.1-5.1s-5.1,2.3-5.1,5.1h-4c0-4.9,4.1-8.8,9.1-8.8Z" fill="#000" stroke-width="0"/>
</svg>
