<?xml version="1.0" encoding="UTF-8" standalone="yes"?><svg xmlns="http://www.w3.org/2000/svg" xmlns:v="https://vecta.io/nano" baseProfile="tiny-ps" version="1.2" viewBox="0 0 1080 1080"><title>updatedlogo</title><!-- Generator: Adobe Illustrator 29.0.0, SVG Export Plug-In . SVG Version: 2.1.0 Build 186)  --><path d="M811.7,525.4c-6.1-10.5-9.7-21.7-10.4-33.8-1.6-25,6.8-46.3,25-63.5,11.8-11.2,26-17.9,42.1-20.1,23.1-3.1,43.8,2.7,61.7,17.5,14.5,12,23.5,27.5,26.8,46,3.9,22.3-.7,42.8-14.3,61.1-12.3,16.5-28.7,26.8-49,30.3-25.1,4.3-47.4-2.1-66.6-19-6.1-5.3-11-11.6-15.2-18.6M828.5,477.5c2.6-6.6,11.9-8.4,16.7-4.7,3.4,2.7,5.5,6.1,5.4,10.6v6c0,0,0,15.8,0,15.8,0,.7,0,1.4.2,2,.4,1.8,1.8,3,3.7,3.1,2.7,0,4.4-1.5,4.4-4.4v-21.9c0-2.2.2-4.4,1.3-6.4,2.3-4.6,6.1-6.8,11.1-6.5,4.5.2,8,2.5,9.5,6.8.7,2,1.1,4.2,1.1,6.3.2,5.1,0,10.3,0,15.4v6.7c0,2.4,1.7,3.9,3.9,4,2.6,0,4.3-1.5,4.3-4.3v-23.9c0-2-.4-4.2-1-6.1-4-13.1-20.9-17.9-31.5-8.9-1,.9-2,1.8-2.9,2.8h0l-.8-.8c-3.7-3.8-8.2-6.2-13.6-6.5-11.2-.6-20.6,7.7-21,19-.3,8.3,0,16.5,0,24.8s1.8,4.1,4.4,4.1,3.9-1.8,3.9-4.7v-21.9c0-2,.6-4,1.1-6.1M911.2,463.9c-10.9,4.9-16.7,14.9-15,26.6,1.4,9.3,6.7,15.8,15.3,19.2,8.7,3.4,17,2.1,24.4-3.7,1.9-1.5,2.2-3.8.9-5.5s-3.6-1.8-5.5-.3c-4.7,3.8-10.1,4.7-15.8,3-6.3-1.9-10.1-6.3-12-12.8h37.8c2.4,0,4-1.5,3.8-3.9,0-2.4-.3-4.8-1-7-3.7-12.4-17.9-21.4-32.9-15.7h0ZM384.8,571.2v-10.4c0-.6-.1-1.2-.4-1.7l-18-26.3c-4.7-6.6-10.4-12.3-17.3-16.7-4.9-3.1-10.4-4.7-16.2-5.1-15.7-.9-31.3,9-35.1,26.6-3.7,17.1,6.5,35.5,22.8,40.3,7.9,2.3,16,2.8,23.8-.6,5.5-2.4,9.7-6.3,13.1-11.1,1-1.4,2-2.6,3.7-3.1,2.4-.7,5,0,6.5,2.1s1.6,4.8.2,6.9c-5.8,8.7-13.8,14.7-24,17.3-16.4,4.3-31.2,1-43.7-10.5-10.4-9.5-15.4-21.6-14.6-35.7.9-15.9,8.1-28.6,21.9-36.8,14-8.3,28.7-9,43.7-2.1,7.8,3.6,13.8,9.3,19.3,15.6,7.2,8.3,12.9,17.6,19.2,26.6,3.7,5.3,7.3,10.7,11.4,15.7,5.6,6.9,12.5,12.3,21,15.3,11.6,4.1,22.2,2,31.7-5.7,6.8-5.5,11.1-12.5,12.5-21.2,3.1-18.9-9.5-35.3-25.9-38.9-14.3-3.1-26.1,1.5-35.2,12.7-2.9,3.6-7.4,3.2-9.5.5-1.6-2-1.7-4.8-.1-6.9,8.1-10.6,18.6-17.2,32-18.6,26-2.9,46.6,15.5,50.3,38.1,3.8,23.8-11.8,46.9-35.4,51.9-14.8,3.2-28-.7-39.8-9.9-.9-.7-1.8-1.5-2.7-2.3-.8-.8-1.6-1.6-2.7-2.5v56.6c0,3.6-1.9,6.1-5.1,6.6-3.8.7-7.1-2-7.3-5.9v-61.1h0v.3ZM716.5,507.1v46.4c0,13.7,10.7,25.3,24.3,26.6,14.4,1.4,26.6-8.5,29.2-21.2.4-2.1.6-4.3.6-6.4v-45.3c0-3.5,2.2-5.8,5.5-5.8s5.6,2.3,5.6,5.8v93.1c0,9.8-3.5,18.1-10,25.2-8.2,9-18.6,12.9-30.6,12.4-10.2-.4-19-4.6-26.6-11.3-1.4-1.3-2.5-2.7-2.8-4.7-.4-2.4.8-4.7,3-5.8,2.3-1.1,4.7-.8,6.5,1.1,4.1,4.2,8.8,7.5,14.6,9,15.8,4.1,31.4-5.9,34.1-22,1-5.6.8-11.3.7-17v-6.7c-.9.8-1.6,1.3-2.2,1.8-12.7,11.7-35.6,13.7-51.2-1.2-6.2-5.9-10.3-13.1-11.4-21.7-.2-1.7-.4-3.5-.4-5.2v-47.2c0-2.7,1.6-4.8,4.1-5.5,2.4-.7,5,.3,6.2,2.5.5.8.6,1.9.8,3h0ZM134.8,626.7v5.1c0,3.6-2.7,6.3-6.1,6.3s-6.2-2.6-6.3-6.2v-72.1c0-3.1,1.5-5.5,4.1-6.4,2.8-1,5.7,0,7.4,2.6,4.7,6.8,10.2,12.7,17.2,17.1,5.2,3.4,10.9,5.8,17.2,6.2,9.9.6,18.3-2.8,25.5-9.6,13.2-12.5,14.1-33.6,2.3-47.2-13.1-15-37.1-16.1-51.3-.4-.9.9-1.7,1.9-2.5,2.9-2,2.4-5.4,2.8-7.9,1-2.4-1.8-3.1-5-1.4-7.5,4.3-6.1,9.7-10.9,16.4-14.3,25.3-12.8,55.5-.5,64.2,26.5,5.5,17,1.8,32.4-10.2,45.5-9.6,10.5-22,15.1-36.1,14.2-12.2-.7-22.3-6-31.1-14.4-.4-.4-.7-.9-1-1.3l-.4.2v51.7h0ZM578.9,537.8c.2,2.8.6,5.4.5,8.1,0,3.1-2.3,5-5.4,5.1h-74.2v.8c2.8,10.2,8.2,18.5,17.8,23.7,11.8,6.3,27.3,5.5,37.9-3.6,1.9-1.6,4-2.1,6.3-1.2,3.9,1.5,4.6,7,1.4,9.8-5.9,5-12.7,8.4-20.4,9.8-9.2,1.7-18.3,1.1-26.9-2.8-15.2-7-24.7-18.7-27.1-35.4-3.9-27.1,14.7-45.6,32.4-50.6,23.2-6.6,47.7,5.8,55.9,28.5.9,2.5,1.3,5.2,2,8M540.8,539.6h27.1c-3.2-17.1-18.4-29.7-36.2-28.4-17.9,1.3-28.9,13.4-31.8,28.4h41,0ZM679.4,537.1v48.2c0,2.3-.9,4-2.9,5.1s-4,1-5.9,0c-1.7-1-2.5-2.6-2.7-4.5v-88h-17c-2.5,0-4.4-1.1-5.5-3.3s-.8-4.1.6-6c1.2-1.7,3-2.3,5-2.3h16.9v-17.6c0-3,2.1-5.4,5-5.8,2.8-.4,5.5,1.4,6.3,4.2.2.6.2,1.3.2,2v17.1h17.1c2.5,0,4.4,1.1,5.5,3.4,1,2.2.6,4.3-.9,6.2-1.3,1.5-3,2-4.9,2h-16.8v39.3h0ZM235.3,591.1c-3.8.5-6.5-1.7-6.8-5.4v-51.2c0-4.8,1-9.1,3-13.4,5-10.6,13.1-17.7,24.6-20.4,9.5-2.2,18.7-1.1,27.3,3.8,2.9,1.7,4,5.1,2.4,8-1.6,2.9-5.2,3.8-8.1,2.1s-6-3-9.3-3.5c-7-.9-13.2.9-18.6,5.3-6.2,5-9.2,11.6-9.2,19.5v47.3c0,.8,0,1.6-.1,2.4-.2,2.9-1.8,4.6-4.8,5.2h0l-.4.3ZM590.8,545.7c0-3.9,0-7.7,0-11.4-.2-5.8,1.4-11.1,4.2-16,5.8-10.2,14.6-16.5,26.3-18.2,8.5-1.3,16.6,0,24.2,4.4,3,1.7,3.9,5,2.4,8-1.5,2.8-5,3.9-8,2.2-3.1-1.7-6.2-3.1-9.7-3.6-7-.9-13.3,1.1-18.7,5.6-6,4.9-8.9,11.4-8.9,19.1v48.2c0,1,0,2-.3,2.9-.6,2.5-3.2,4.2-5.9,4.1-3-.2-5.3-2.1-5.5-4.8-.2-1.8,0-3.5,0-5.3v-35.1h0Z" fill="#15cdeb"></path><path d="M828.5,477.6c-.4,2.1-1,4.1-1,6.1v21.9c0,2.9-1.5,4.6-3.9,4.7-2.6,0-4.4-1.5-4.4-4.1,0-8.3-.3-16.5,0-24.8.4-11.2,9.8-19.6,21-19,5.4.3,9.8,2.7,13.6,6.5l.8.8h0c1-.9,1.9-1.9,2.9-2.8,10.6-8.9,27.6-4.2,31.5,8.9.6,2,.9,4.1,1,6.1v23.9c0,2.7-1.6,4.3-4.2,4.3s-3.9-1.6-3.9-4v-22.1c0-2.1-.5-4.3-1.2-6.3-1.6-4.3-5-6.6-9.5-6.8-5-.3-8.8,1.9-11.1,6.5-1,2-1.3,4.2-1.3,6.4v21.9c0,2.9-1.7,4.5-4.4,4.4-1.9,0-3.3-1.3-3.7-3.1,0-.7-.2-1.3-.2-2v-15.8c0-2,0-4,0-6,0-4.5-2-7.9-5.4-10.6-4.8-3.7-14-1.9-16.7,4.8h0v.2ZM911.3,463.8c14.9-5.7,29.2,3.2,32.8,15.7.7,2.2.8,4.7,1,7,.2,2.4-1.4,3.9-3.8,3.9h-37.7c1.9,6.5,5.7,10.9,12,12.8,5.7,1.7,11.1.8,15.8-3,1.9-1.5,4.2-1.4,5.5.3,1.3,1.7,1,4-.9,5.5-7.4,5.8-15.7,7.1-24.4,3.7-8.6-3.4-14-9.9-15.3-19.2-1.7-11.7,4.1-21.7,15.1-26.6M903.8,482.4c-.4,1.2.7.6,1,.6h32.6v-.3c-2.1-8.7-11-14.7-19.8-13-7.1,1.4-11.7,5.5-13.8,12.7h0Z" fill="#fdffff"></path><path d="M903.8,482.3c2.1-7.1,6.7-11.2,13.8-12.6,8.8-1.7,17.7,4.2,19.8,13v.3h-32.6c-.3,0-1.3.6-.9-.7h0Z" fill="#16ceeb"></path></svg>