<?xml version="1.0" encoding="utf-8"?>
<!-- Generator: Adobe Illustrator 24.3.0, SVG Export Plug-In . SVG Version: 6.00 Build 0)  -->
<svg version="1.2" baseProfile="tiny-ps" id="Layer_1" xmlns="http://www.w3.org/2000/svg" xmlns:xlink="http://www.w3.org/1999/xlink"
	 viewBox="0 0 53.8582687 53.8582687" xml:space="preserve">
		 <title>Balderton Capital</title>
<g>
	<rect fill="#FFFFFF" width="53.8582687" height="53.8582687"/>
	<g>
		<path fill="#F54A14" d="M44.1862373,46.1068878c-2.2473412,0-4.0369453-1.8068314-4.0369453-4.0361557
			c0-2.2300491,1.7896042-4.0368805,4.0369453-4.0368805c2.2522774,0,4.0415573,1.8068314,4.0415573,4.0368805
			C48.2277946,44.3000565,46.4385147,46.1068878,44.1862373,46.1068878z"/>
		<path fill="#212029" d="M24.7619057,45.9639397H5.9448915c-0.2087841-0.6291466-0.3144197-1.2082901-0.3144197-1.8346252
			c0-0.6291847,0.1056356-1.2058754,0.3144197-1.8322105h3.930985V11.42103h-3.930985
			c-0.2087841-0.629508-0.3144197-1.2058392-0.3144197-1.8349867c0-0.6266956,0.1056356-1.2055149,0.3144197-1.834662h18.1350346
			c7.6535454,0,10.9578171,4.6656642,10.9578171,9.6464615c0,2.3574562-0.7876167,6.0799217-4.6661434,7.9673996
			c2.9874363,1.1526623,6.8152752,3.5129662,6.8152752,9.4348335C37.1868744,40.6159515,33.097435,45.9639397,24.7619057,45.9639397
			z M22.5624485,11.7350817h-8.0232391v12.3190489h7.9704189c4.8217506,0,7.6000443-1.9402962,7.6000443-6.3946934
			C30.1096725,14.1996117,28.2728348,11.7350817,22.5624485,11.7350817z M23.7151375,28.0381546h-9.1759281v13.9442101h9.7523098
			c5.398098,0,7.8647842-2.9363098,7.8647842-7.0770149C32.1563034,29.5027771,27.9605427,28.0381546,23.7151375,28.0381546z"/>
	</g>
</g>
</svg>
