<?xml version="1.0" encoding="iso-8859-1" standalone="yes"?><!-- Generator: Adobe Illustrator 26.5.0, SVG Export Plug-In . SVG Version: 6.00 Build 0)  --><svg xmlns="http://www.w3.org/2000/svg" xmlns:xlink="http://www.w3.org/1999/xlink" version="1.2" viewBox="0 0 80 80" xml:space="preserve" baseProfile="tiny-ps"><title>QXWORLD_logo_VMC_tiny</title><g><path d="M35.2,57c-11.8,0-21.4-9.6-21.4-21.5S23.4,14,35.2,14s21.4,9.6,21.4,21.5c0,1.8-0.2,3.6-0.7,5.4   c-0.3,1.1-1.4,1.8-2.5,1.5s-1.8-1.4-1.5-2.5c0.4-1.4,0.5-2.9,0.5-4.4c0-9.6-7.8-17.4-17.3-17.4S17.9,26,17.9,35.6S25.7,53,35.2,53   c1.7,0,3.5-0.3,5.2-0.8c1.1-0.3,2.2,0.3,2.6,1.4c0.3,1.1-0.3,2.2-1.4,2.6l0,0C39.5,56.7,37.3,57,35.2,57z" fill="#26C0EA"></path><path d="M55.8,52.5l9.9-9.9c0.8-0.8,0.8-2.1-0.1-2.9c-0.8-0.8-2-0.8-2.8,0l-9.9,9.9L43,39.7   c-0.8-0.8-2.1-0.8-2.9,0c-0.8,0.8-0.8,2.1,0,2.9l9.9,9.9l-9.9,9.9c-0.8,0.8-0.8,2.1,0,2.9c0.4,0.4,0.9,0.6,1.5,0.6   c0.5,0,1.1-0.2,1.4-0.6l9.9-9.9l9.9,9.9c0.8,0.8,2.1,0.8,2.9,0l0,0c0.8-0.8,0.8-2.1,0-2.9L55.8,52.5z M52.9,55.1   c-1.4,0-2.6-1.2-2.6-2.6c0-1.4,1.2-2.6,2.6-2.6c1.4,0,2.6,1.2,2.6,2.6l0,0C55.5,53.9,54.3,55,52.9,55.1L52.9,55.1z" fill="#26C0EA"></path></g></svg>