<?xml version="1.0" encoding="utf-8"?>
<!-- Generator: Adobe Illustrator 27.9.0, SVG Export Plug-In . SVG Version: 6.00 Build 0)  -->
<svg version="1.2" baseProfile="tiny-ps" id="Layer_1" xmlns="http://www.w3.org/2000/svg" xmlns:xlink="http://www.w3.org/1999/xlink"
	 viewBox="0 0 193 213" xml:space="preserve">
<title>Vidyard</title>
<path fill="#475066" d="M96.4,27.6c7.1,0,14.3,0.9,21.2,2.6c0.9,0.2,1.8,0.1,2.6-0.3c0.8-0.4,1.4-1.1,1.7-1.9l0,0
	c0.2-0.5,0.3-1,0.2-1.5c0-0.5-0.2-1-0.4-1.5c-0.2-0.5-0.6-0.9-1-1.2c-0.4-0.3-0.9-0.6-1.4-0.7c-14.9-3.7-30.5-3.7-45.4-0.1
	c-0.5,0.1-1,0.4-1.4,0.7c-0.4,0.3-0.8,0.7-1,1.2c-0.2,0.5-0.4,1-0.4,1.5c0,0.5,0.1,1.1,0.2,1.6l0,0c0.3,0.8,0.9,1.5,1.7,1.9
	c0.8,0.4,1.7,0.5,2.6,0.3C82.4,28.4,89.4,27.6,96.4,27.6z"/>
<path fill="#475066" d="M142.1,37.6c-0.1,0.7,0,1.4,0.3,2.1c0.3,0.7,0.8,1.2,1.4,1.6C160.1,51.6,172.6,67,179.5,85
	c6.8,18,7.6,37.8,2.2,56.4c-5.4,18.5-16.6,34.8-32.1,46.4c-15.4,11.6-34.2,17.8-53.5,17.8c-19.3,0-38-6.4-53.4-18
	c-15.4-11.6-26.6-28-31.9-46.5c-5.3-18.6-4.4-38.3,2.5-56.4c6.9-18,19.5-33.3,35.9-43.5c0.6-0.4,1.1-0.9,1.4-1.6
	c0.3-0.7,0.4-1.4,0.3-2.1l0,0c-0.1-0.6-0.3-1.2-0.7-1.7c-0.4-0.5-0.8-0.9-1.4-1.1c-0.6-0.3-1.2-0.4-1.8-0.3c-0.6,0-1.2,0.2-1.7,0.5
	C27.6,45.9,13.9,62.4,6.4,81.9c-7.5,19.5-8.5,41-2.7,61.1c5.7,20.1,17.9,37.8,34.5,50.5c16.7,12.6,37,19.5,57.9,19.5
	c20.9,0,41.3-6.7,58-19.3c16.7-12.6,28.9-30.2,34.7-50.3c5.8-20.1,4.9-41.5-2.5-61.1c-7.4-19.6-21-36.2-38.7-47.3
	c-0.5-0.3-1.1-0.5-1.7-0.5c-0.6,0-1.2,0.1-1.8,0.4c-0.5,0.3-1,0.6-1.4,1.1C142.5,36.4,142.2,37,142.1,37.6L142.1,37.6z"/>
<path fill="#3BCB85" d="M116.3,62.9c-4.7-1-9.4-1.6-14.2-1.9c-1.9,0-3.9-0.2-5.8-0.2c-5.8,0-11.6,0.5-17.3,1.5
	c-12,2.2-23.5,6.4-33.9,12.6c-6.9,4-13.2,8.8-19,14.3c-0.7,0.7-1.3,1.5-1.6,2.5c-0.3,0.9-0.5,1.9-0.3,2.9l9.2,73.6
	c7.6,9.3,17.2,16.9,28.1,22c10.9,5.2,22.8,7.9,34.9,7.9c12.1,0,24-2.7,34.9-7.9c10.9-5.2,20.5-12.7,28.1-22l1.4-11.1
	c4.3-2.4,7.9-6,10.4-10.3c2.5-4.3,3.7-9.2,3.6-14.2c0.1-3.8-0.7-7.6-2.1-11.1c-1.4-3.5-3.6-6.7-6.3-9.4l2.2-17.6
	c0.1-1,0-1.9-0.3-2.8c-0.3-0.9-0.8-1.7-1.5-2.4C152.8,75.8,135.3,66.7,116.3,62.9L116.3,62.9z"/>
<path fill="#3BCB85" d="M87.5,152.3c-2.9,1.5-6,2.2-9.3,2.2c-11.7,0-20.5-9.4-20.5-22c0-12.5,8.8-22,20.5-22c4.9,0,9.6,1.7,13.3,5
	c2.3,2.2,4.2,4.8,5.4,7.7c1.2,2.9,1.8,6.1,1.8,9.3c0.1,4-0.8,8-2.8,11.4C93.9,147.5,91,150.4,87.5,152.3L87.5,152.3z"/>
<path fill="#3BCB85" d="M158.2,152.3c-2.9,1.5-6,2.2-9.3,2.2c-11.7,0-20.4-9.4-20.4-22c0-12.5,8.8-22,20.4-22c4.9,0,9.6,1.7,13.3,5
	c2.3,2.2,4.2,4.8,5.4,7.7c1.2,2.9,1.8,6.1,1.8,9.3c0.1,4-0.8,8-2.8,11.4C164.6,147.5,161.7,150.4,158.2,152.3z"/>
<path fill="#475066" d="M63.1,66.5l-6.5-41.7C53.5,25,50.4,24,48,22c-2.4-2-4-4.8-4.4-7.8c-0.4-3.1,0.3-6.2,2-8.8
	c1.7-2.6,4.4-4.4,7.4-5.1c3.2-0.7,6.5-0.2,9.3,1.5c2.8,1.7,4.8,4.4,5.7,7.5c0.7,2.7,0.5,5.6-0.7,8.2c-1.2,2.6-3.1,4.7-5.7,6
	l15.2,39.3C72.2,63.7,67.6,64.9,63.1,66.5L63.1,66.5z"/>
<path fill="#475066" d="M116.3,62.9l15.2-39.4c-2.7-1.4-4.9-3.8-5.9-6.7c-1.1-2.9-1-6.1,0.1-9c1.2-2.9,3.3-5.2,6.1-6.6
	c2.8-1.3,6-1.6,8.9-0.7c2.9,0.9,5.4,2.8,7,5.4c1.6,2.6,2.2,5.7,1.7,8.6c-0.5,3-2.1,5.7-4.5,7.6c-2.4,1.9-5.3,2.9-8.4,2.7
	c-1.9,12.1-4.3,27.2-6.5,41.8C125.6,65.1,121,63.8,116.3,62.9L116.3,62.9z"/>
<path fill="#FFFFFF" d="M87.5,152.3c-2.9,1.5-6,2.2-9.3,2.2c-11.7,0-20.5-9.4-20.5-22c0-12.5,8.8-22,20.5-22c4.9,0,9.6,1.7,13.3,5
	c2.3,2.2,4.2,4.8,5.4,7.7c1.2,2.9,1.8,6.1,1.8,9.3c0.1,4-0.8,8-2.8,11.4C93.9,147.5,91,150.4,87.5,152.3L87.5,152.3z"/>
<path fill="#FFFFFF" d="M158.2,152.3c-2.9,1.5-6,2.2-9.3,2.2c-11.7,0-20.4-9.4-20.4-22c0-12.5,8.8-22,20.4-22c4.9,0,9.6,1.7,13.3,5
	c2.3,2.2,4.2,4.8,5.4,7.7c1.2,2.9,1.8,6.1,1.8,9.3c0.1,4-0.8,8-2.8,11.4C164.6,147.5,161.7,150.4,158.2,152.3z"/>
<path fill="#475066" d="M150.6,124.5c-0.6-0.9-1.3-1.7-2.3-2.2c-0.9-0.5-2-0.8-3.1-0.8c-1.1,0-2.1,0.2-3,0.7
	c-0.9,0.5-1.7,1.2-2.3,2.1l0,0c-1.5,2.2-2.2,4.8-2.3,7.5c-0.1,2.7,0.6,5.5,2.1,7.8c0.5,1,1.3,1.7,2.2,2.3c0.9,0.6,2,0.8,3.1,0.8
	c1.1,0,2.2-0.3,3.1-0.8c0.9-0.6,1.7-1.3,2.2-2.3c1.6-2.1,2.4-4.7,2.3-7.3C152.8,129.5,152.1,126.8,150.6,124.5L150.6,124.5z"/>
<path fill="#FFFFFF" d="M146.6,131.1c1.4,0,2.6-1.1,2.6-2.6c0-1.4-1.1-2.6-2.6-2.6s-2.6,1.1-2.6,2.6
	C144,130,145.2,131.1,146.6,131.1z"/>
<path fill="#475066" d="M79.8,124.5c-0.6-0.9-1.3-1.7-2.3-2.2c-0.9-0.5-2-0.8-3.1-0.8c-1,0-2.1,0.2-3,0.7s-1.7,1.2-2.3,2.1
	c-1.5,2.2-2.2,4.8-2.3,7.5c-0.1,2.7,0.6,5.5,2.1,7.8c0.5,1,1.3,1.7,2.2,2.3c0.9,0.6,2,0.8,3.1,0.8c1.1,0,2.2-0.3,3.1-0.8
	c0.9-0.6,1.7-1.3,2.2-2.3c1.5-2.1,2.3-4.7,2.3-7.3C82,129.5,81.3,126.8,79.8,124.5L79.8,124.5z"/>
<path fill="#FFFFFF" d="M75.8,131.1c1.4,0,2.6-1.1,2.6-2.6c0-1.4-1.1-2.6-2.6-2.6c-1.4,0-2.6,1.1-2.6,2.6
	C73.3,130,74.4,131.1,75.8,131.1z"/>
</svg>
