<?xml version="1.0" encoding="utf-8"?>
<!-- Generator: Adobe Illustrator 28.1.0, SVG Export Plug-In . SVG Version: 6.00 Build 0)  -->
<svg version="1.2" baseProfile="tiny-ps" id="Calque_1"
	 xmlns="http://www.w3.org/2000/svg" xmlns:xlink="http://www.w3.org/1999/xlink" viewBox="0 0 100 100"
	 xml:space="preserve">
	<title>Winamax</title>
<g>
	<polygon fill="#E50914" points="68.8,10 64.2,33.9 60.2,33.9 55.6,10 44.4,10 39.8,33.9 35.8,33.9 31.2,10 18.6,10 23.7,33.9 
		18.6,33.9 18.6,47 26.5,47 31.5,70.8 42.8,70.8 47.8,47 52.2,47 57.2,70.8 68.5,70.8 73.5,47 81.4,47 81.4,33.9 76.3,33.9 81.4,10 
			"/>
	<g>
		<polygon fill="#E50914" points="29,77.3 28,82.2 27.2,82.2 26.2,77.3 23.9,77.3 23,82.2 22.2,82.2 21.2,77.3 18.6,77.3 19.7,82.2 
			18.6,82.2 18.6,84.9 20.2,84.9 21.3,89.8 23.6,89.8 24.6,84.9 25.5,84.9 26.6,89.8 28.9,89.8 29.9,84.9 31.5,84.9 31.5,82.2 
			30.5,82.2 31.5,77.3 		"/>
		<rect x="32.5" y="77.3" fill="#E50914" width="2.5" height="12.5"/>
		<polygon fill="#E50914" points="41.1,82.2 40.5,82.2 38.5,77.3 36,77.3 36,89.8 38.5,89.8 38.5,84.9 39.1,84.9 41.1,89.8 
			43.6,89.8 43.6,77.3 41.1,77.3 		"/>
		<path fill="#E50914" d="M46.8,77.3l-2.5,12.5h2.5l0.4-2.2h2.3l0.4,2.2h2.5l-2.5-12.5H46.8z M47.7,84.9l0.5-2.7h0.3l0.5,2.7H47.7z"
			/>
		<polygon fill="#E50914" points="58.8,82.2 57.8,82.2 56.7,77.3 53.1,77.3 53.1,89.8 55.5,89.8 55.5,84.9 56.4,84.9 57.6,89.8 
			59,89.8 60.1,84.9 61.1,84.9 61.1,89.8 63.4,89.8 63.4,77.3 59.9,77.3 		"/>
		<path fill="#E50914" d="M66.6,77.3l-2.5,12.5h2.5l0.4-2.2h2.3l0.4,2.2h2.5l-2.5-12.5H66.6z M67.5,84.9l0.5-2.7h0.3l0.5,2.7H67.5z"
			/>
		<polygon fill="#E50914" points="81.4,77.3 78.5,77.3 77,81.4 75.5,77.3 72.7,77.3 75.2,83.6 72.7,89.8 75.5,89.8 77,85.8 
			78.5,89.8 81.4,89.8 78.8,83.6 		"/>
	</g>
</g>
</svg>
