<?xml version="1.0" encoding="iso-8859-1"?>
  <!-- Generator: Adobe Illustrator 29.1.0, SVG Export Plug-In . SVG Version: 2.1.0 Build 142)  -->
<svg version="1.2" baseProfile="tiny-ps" xmlns:xlink="http://www.w3.org/1999/xlink" width="538.6px" height="538.6px" viewBox="0 0 538.6 538.6" xmlns="http://www.w3.org/2000/svg">
  <title>JACCS CO., LTD.</title>
  <!-- Generator: Adobe Illustrator 29.1.0, SVG Export Plug-In . SVG Version: 2.1.0 Build 142)  -->
  <rect x="179.3" y="212.2" width="186.2" height="87.2" fill="none" />
  <g>
    <path d="M227.6,256.2c0-37.8,30.7-68.5,68.5-68.5h38.7l-12.8,32.2h-25.9c-20,0-36.2,16.2-36.2,36.3s16.2,36.3,36.2,36.3h29.8s0,32.2,0,32.2h-29.8c-37.8,0-68.5-30.7-68.5-68.5Z" fill="#094" />
    <path d="M197.3,292.5l-23.5-58.8-35.1,91.1h-34.9l50.8-127.3c3.1-7.9,10.5-13.5,19.2-13.5s16,5.6,19.2,13.5l39.2,97.5c5.9,14.8-5.8,29.8-18.9,29.8h-59.4l12.5-32.3h31Z" fill="#094" />
    <circle cx="296.1" cy="256.2" r="20.6" fill="#e60012" />
    <path d="M322.1,256.2c0-37.8,30.7-68.5,68.5-68.5h38.7l-12.8,32.2h-25.9c-20,0-36.2,16.2-36.2,36.3s16.2,36.3,36.2,36.3h29.8s0,32.2,0,32.2h-29.8c-37.8,0-68.5-30.7-68.5-68.5Z" fill="#094" />
    <path d="M370,256.2c0-11.4,9.2-20.6,20.6-20.6s20.6,9.2,20.6,20.6-9.2,20.6-20.6,20.6-20.6-9.2-20.6-20.6Z" fill="#e60012" />
    <path d="M17.9,279.3v-4.3h32.2v4.3c0,8.7,7,15.7,15.7,15.7s15.7-7,15.7-15.7v-95.5h32.2v95.5c0,26.4-21.4,47.9-47.9,47.9s-47.9-21.4-47.9-47.9Z" fill="#094" />
    <path d="M427.9,324.7v-32.2h57.8c5.6,0,10.2-4.6,10.2-10.3s-4.6-10.2-10.2-10.2h-19.6c-23.3,0-42.1-18.9-42.1-42.1s18.9-42.1,42.1-42.1h56.4l-12.9,32.2h-43.5c-5.5,0-9.9,4.4-9.9,9.9s4.4,9.9,9.9,9.9h19.6c23.5,0,42.5,19,42.5,42.5s-19,42.5-42.5,42.5h-57.8Z" fill="#094" />
  </g>
</svg>