<?xml version="1.0" encoding="utf-8"?>
<!-- Generator: Adobe Illustrator 25.4.1, SVG Export Plug-In . SVG Version: 6.00 Build 0)  -->
<svg version="1.2" baseProfile="tiny-ps" id="UH_Logo" xmlns="http://www.w3.org/2000/svg" xmlns:xlink="http://www.w3.org/1999/xlink"
	 viewBox="0 0 216 216" xml:space="preserve">
<title>University Hospitals Shield</title>
	<path fill="#EF3A42" d="M157.25,61.38h-98.5c0,9.65,1.37,31.19,8.47,54.85H108v10.97H70.9c1.36,3.65,2.87,7.32,4.54,10.97H108
		v10.98H81.03c2.1,3.72,4.4,7.39,6.91,10.97H108v10.97H96.64c3.47,3.86,7.25,7.54,11.36,10.97
		C151.97,145.44,157.25,80.37,157.25,61.38"/>
	<path fill="#FFFFFF" d="M108,160.11H87.94c2.66,3.78,5.55,7.45,8.7,10.97H108V160.11L108,160.11z"/>
	<path fill="#FFFFFF" d="M108,138.17H75.44c1.69,3.69,3.55,7.36,5.58,10.98H108V138.17L108,138.17z"/>
	<path fill="#FFFFFF" d="M108,116.23H67.22c1.09,3.62,2.31,7.29,3.68,10.97H108V116.23L108,116.23z"/>
	<path fill="#FFFFFF" d="M102.54,75.14v11.07H91.58V75.14h-5.48v15.82c0,4.67-1.48,7.73-5.67,7.73s-5.68-3.06-5.68-7.73V75.14h-5.48
		v17.5c0,7.34,4.15,10.36,11.16,10.36c6.82,0,10.92-2.86,11.15-9.76h0.01v-2.72h10.96v12.01h5.48V75.14H102.54L102.54,75.14z"/>
	<path fill="#EF3A42" d="M146.28,47.65c0,4.54-2.45,8.23-5.47,8.23c-3.02,0-5.48-3.69-5.48-8.23c0-4.54,2.45-8.22,5.48-8.22
		C143.83,39.42,146.28,43.11,146.28,47.65"/>
	<path d="M120.04,138.16c11.86-13.68,19.18-32.49,19.18-53.26c0-8.11-1.12-15.91-3.18-23.24c-2.93-10.4-6.98-19.82-13.28-27.71
		h-6.56c6.29,7.89,10.34,17.31,13.27,27.71c2.07,7.33,3.18,15.13,3.18,23.24c0,20.77-7.32,39.58-19.18,53.26H120.04L120.04,138.16z"
		/>
</svg>
