<?xml version="1.0" encoding="UTF-8"?>
<svg id="Layer_2" xmlns="http://www.w3.org/2000/svg" baseProfile="tiny-ps" version="1.2" viewBox="0 0 80 80">
  <title>PetSafe</title>
  <g id="Layer_1-2" >
    <rect width="80" height="80" fill="#ffeb00" stroke-width="0"/>
    <path id="Path_3967" d="M61.1,26.2l-19.7-10.6c-.5-.2-1.2-.2-1.7,0l-19.8,10.6c-.8.3-1.2,1.1-1.2,1.9v27.6c0,.6.5,1.2,1.1,1.2h10.6c1.7-.1,3.3-.5,4.8-1,2.5-1,5.1-3.1,4.9-5.8-.2-2.2-2.2-3.8-4.3-4.4s-4.3-.5-6.5-.7c-1.1,0-2.3-.3-2.8-1.4-.4-.8-.2-1.8.4-2.5,3.7-4.7,12.6-6.2,18.1-4.8,5.3,1.4,9.8,5.3,9.8,11.1-.1,4.2-3.1,7.8-7.2,8.7-.2,0-.5.2-.4.5h0c0,.2.1.3.3.3h13.6c.7,0,1.2-.6,1.2-1.2h0v-27.5c0-.8-.5-1.6-1.2-1.9h0Z" fill="#083874" stroke-width="0"/>
  </g>
</svg>