<?xml version="1.0" encoding="utf-8" standalone="yes"?><!-- Generator: Adobe Illustrator 27.9.0, SVG Export Plug-In . SVG Version: 6.00 Build 0)  --><svg xmlns="http://www.w3.org/2000/svg" xmlns:xlink="http://www.w3.org/1999/xlink" version="1.2" viewBox="0 0 2834.6 2834.6" xml:space="preserve" baseProfile="tiny-ps"><title>Checkout Technology Ltd</title><rect y="-3.4" width="2834.6" height="2838" fill="#186AFF"></rect><g><path d="M364.9,1559l64.3-110.1l64.3,110.1H364.9z M349,1311.7l69.6,119.2L349,1550.2L277.4,1431L349,1311.7z    M429.2,1413.1l-64.4-110.2h128.7L429.2,1413.1L429.2,1413.1z M439.6,1431l77.4-132.6c2.5-4.3,1-9.7-3.4-12.2   c-1.4-0.8-2.9-1.2-4.5-1.2h-160c-3.2,0-6.2,1.7-7.8,4.4l-82.1,137c-1.7,2.8-1.7,6.2,0,9l82.1,137c1.6,2.7,4.6,4.4,7.8,4.4h160   c5,0,9.1-4,9.1-8.9c0-1.6-0.4-3.1-1.2-4.4L439.6,1431L439.6,1431z" fill="#FFFFFF" stroke="#231F20" stroke-miterlimit="10"></path><path d="M651.9,1508.9c-9.9-4.1-18.9-10.2-26.3-17.9c-7.3-7.8-13-16.9-16.8-26.9c-4-10.7-6-22-5.9-33.4   c-0.1-11.3,1.9-22.6,5.8-33.3c3.6-10,9.2-19.1,16.4-26.9c7.2-7.7,15.9-13.9,25.6-18.1c10.7-4.5,22.2-6.8,33.8-6.6   c9.8-0.1,19.5,1.3,28.7,4.4c8.1,2.7,15.6,6.8,22.2,12.1c6.3,5.1,11.5,11.4,15.3,18.5c4,7.5,6.8,15.6,8.1,23.9h-42.4   c-1.3-6.8-4.8-13-10-17.7c-5.5-4.8-12.6-7.3-20-7.1c-13.2,0-23.1,4.6-29.7,13.6c-6.6,9.1-9.9,21.4-9.9,37.1   c0,15.2,3.1,27.5,9.4,36.8c6.3,9.3,16.1,13.9,29.5,13.9c7.9,0.3,15.7-2.1,22-6.7c5.8-4.5,9.4-11.3,10.8-20.5h41.8   c-1.1,16.7-8.9,32.2-21.6,43.4c-6.6,5.7-14.3,10.2-22.7,13.1c-9.5,3.3-19.5,5-29.5,4.8C674.8,1515.6,662.9,1513.4,651.9,1508.9   L651.9,1508.9L651.9,1508.9z" fill="#FFFFFF" stroke="#231F20" stroke-miterlimit="10"></path><path d="M828.1,1371.1c5.1-7.8,11.8-14.3,19.8-19.1c7.2-4.3,16.5-6.4,27.8-6.4c8-0.1,15.8,1.4,23.1,4.6   c6.7,2.9,12.8,7.2,17.7,12.5c5,5.5,8.9,12,11.5,18.9c2.8,7.8,4.2,16,4.2,24.3v104.9h-43.3v-98.6c0.4-7.8-2.2-15.3-7.3-21.3   c-4.9-5.4-11.9-8.1-21.1-8.1c-9.1-0.2-17.8,3.5-23.8,10.2c-6.3,6.8-9.4,15.7-9.4,26.8v91.1h-43.3v-223.8h43.3v84.2L828.1,1371.1   L828.1,1371.1L828.1,1371.1z" fill="#FFFFFF" stroke="#231F20" stroke-miterlimit="10"></path><path d="M1010.4,1387.9c-6,6.2-9.9,14.6-11.8,25.2h72.8c-0.2-9.3-3.9-18.1-10.3-24.9c-6.4-6.4-15.2-9.8-24.3-9.5   C1025.1,1378.6,1016.4,1381.7,1010.4,1387.9L1010.4,1387.9L1010.4,1387.9L1010.4,1387.9L1010.4,1387.9z M1003.9,1508.9   c-20.4-8.1-36.1-24.6-43.1-45.1c-3.8-10.8-5.7-22.1-5.6-33.5c-0.1-11.4,1.9-22.7,5.9-33.4c3.7-9.9,9.3-19,16.6-26.8   c15-15.8,36.2-24.7,58.2-24.4c12-0.2,23.8,2.2,34.7,7.1c9.9,4.6,18.5,11.4,25.2,19.9c7.1,9.1,12.3,19.5,15.5,30.5   c3.6,12.8,5.4,26,5.3,39.3H998c1.7,12.5,6,22.3,13,29.4c7,7.1,16.6,10.6,28.9,10.6c8.5,0,15.3-1.8,20.4-5.3   c5.1-3.6,9-8.6,11.2-14.4h42.8c-1.5,7.1-4.3,14-8.2,20.2c-4,6.4-9.2,12.1-15.3,16.7c-6.7,5-14.2,8.9-22.2,11.4   c-9.2,2.9-18.8,4.4-28.4,4.3C1027.8,1515.7,1015.4,1513.5,1003.9,1508.9z" fill="#FFFFFF" stroke="#231F20" stroke-miterlimit="10"></path><path d="M1181.5,1508.9c-10-4.1-18.9-10.2-26.3-17.9c-7.3-7.8-13-16.9-16.8-26.9c-4-10.7-6-22-5.9-33.4   c-0.1-11.3,1.9-22.6,5.8-33.3c3.6-10,9.2-19.1,16.4-26.9c7.2-7.7,15.9-13.8,25.7-18c10.7-4.5,22.2-6.8,33.8-6.6   c9.8-0.1,19.5,1.3,28.7,4.4c8.1,2.7,15.6,6.8,22.2,12c6.3,5.1,11.5,11.4,15.3,18.5c4,7.5,6.8,15.6,8.1,23.9h-42.5   c-1.3-6.8-4.8-13-10-17.7c-5.4-4.8-12.6-7.3-19.9-7.1c-13.2,0-23.1,4.6-29.7,13.6c-6.6,9.1-9.9,21.4-9.9,37.1   c0,15.2,3.1,27.5,9.4,36.8c6.3,9.3,16.1,13.9,29.5,13.9c7.9,0.3,15.7-2.1,22-6.7c5.8-4.5,9.4-11.3,10.8-20.5h41.8   c-0.6,8.3-2.8,16.4-6.5,23.9c-3.7,7.4-8.8,13.9-15,19.4c-6.6,5.7-14.3,10.2-22.7,13.1c-9.5,3.3-19.5,5-29.5,4.8   C1204.4,1515.7,1192.5,1513.4,1181.5,1508.9L1181.5,1508.9L1181.5,1508.9z" fill="#FFFFFF" stroke="#231F20" stroke-miterlimit="10"></path><path d="M1356.3,1456.6v54.2h-43v-223.8h43v123.9l58.1-60.7h52l-60.3,61l67.7,99.6h-52.7l-45.9-73.3L1356.3,1456.6z" fill="#FFFFFF" stroke="#231F20" stroke-miterlimit="10"></path><path d="M1587.1,1468.5c7.1-9.6,10.7-22.2,10.7-37.9s-3.6-28.3-10.7-38c-7.1-9.7-17.4-14.5-30.8-14.6   c-13.4,0-23.7,4.8-30.8,14.6c-7.2,9.7-10.7,22.4-10.7,38c0,15.6,3.6,28.3,10.7,37.9c7.1,9.6,17.4,14.4,30.8,14.4   C1569.6,1482.9,1579.9,1478.1,1587.1,1468.5L1587.1,1468.5z M1521.5,1508.8c-20.5-8.4-36.6-24.6-44.5-44.9   c-8.3-21.5-8.3-45.2,0-66.7c8-20.3,24.1-36.6,44.5-44.9c22.3-8.8,47.2-8.8,69.6,0c20.5,8.4,36.6,24.7,44.5,45.1   c8.3,21.5,8.3,45.2,0,66.7c-7.9,20.3-24.1,36.6-44.5,44.9c-22.3,8.8-47.2,8.8-69.6,0V1508.8L1521.5,1508.8z" fill="#FFFFFF" stroke="#231F20" stroke-miterlimit="10"></path><path d="M1768.9,1491.9h-0.9c-5.1,6.9-11.5,12.7-19,17c-7.1,4.1-16.4,6.1-27.9,6.1c-18.3,0-32.3-5.2-42.1-15.6   c-9.8-10.4-14.7-24.5-14.7-42.3v-107h43.1v99.9c0,9.4,2.2,16.6,6.5,21.6c4.3,5,11.2,7.5,20.6,7.5c10.2,0,18.3-3.4,24.1-10.2   c5.8-6.8,8.7-15.5,8.7-26.1v-92.7h43.3v160.6h-41.6L1768.9,1491.9L1768.9,1491.9L1768.9,1491.9z" fill="#FFFFFF" stroke="#231F20" stroke-miterlimit="10"></path><path d="M1852.9,1350.2v-50.1h42.4v50.1h28.1v28.1h-28.1v85.1c0,6.1,1.5,10.2,4.5,12.5c3.4,2.4,7.6,3.7,11.8,3.5h8.3   c1.5,0,3-0.1,4.5-0.3v31.3c-2.3,0.2-4.7,0.3-7,0.3c-2.3,0.2-5.2,0.3-8.7,0.3h-11.4c-5.3,0-10.6-0.6-15.8-1.7   c-5.1-1.1-9.9-3.2-14.2-6.1c-4.4-3.1-7.9-7.1-10.3-11.9c-2.8-5.9-4.2-12.3-4-18.8v-94.2h-22.7v-28.1L1852.9,1350.2L1852.9,1350.2   L1852.9,1350.2z" fill="#FFFFFF" stroke="#231F20" stroke-miterlimit="10"></path><path d="M1975.2,1469.6c12.8,0,23.2,10.2,23.2,22.8c0,12.6-10.4,22.8-23.2,22.8c-12.8,0-23.2-10.2-23.2-22.8   C1952,1479.8,1962.4,1469.6,1975.2,1469.6z" fill="#FFFFFF" stroke="#231F20" stroke-miterlimit="10"></path><path d="M2061,1508.4c-9.1-4.1-17.1-10.2-23.4-17.8c-6.6-8-11.5-17.1-14.5-26.9c-3.4-10.9-5.1-22.2-4.9-33.6   c-0.1-11.4,1.6-22.8,5.1-33.6c3.1-9.8,8.1-18.9,14.7-26.9c6.4-7.6,14.5-13.8,23.6-17.8c10-4.4,20.9-6.6,31.9-6.4   c18.3,0,33.3,4.6,44.9,13.8c11.6,9.2,18.8,22.1,21.6,38.8h-19.7c-2.4-12.1-7.5-21.2-15.5-27.2c-8-6.1-18.4-9.1-31.1-9.1   c-8.6-0.2-17.1,1.7-24.7,5.5c-6.8,3.5-12.6,8.6-17.1,14.7c-4.7,6.6-8,14-9.9,21.8c-2.2,8.7-3.3,17.7-3.2,26.6   c-0.1,8.9,1.1,17.8,3.4,26.5c2,7.8,5.4,15.1,10,21.7c4.4,6.2,10.2,11.2,16.9,14.7c7.5,3.7,15.9,5.5,24.2,5.3   c14,0,25.3-3.9,33.7-11.7c8.4-7.8,13.5-18.3,15.2-31.5h18.8c-1.9,18.4-8.7,33-20.4,43.7c-11.7,10.7-27.4,16.1-47.2,16.1   C2082.2,1515.1,2071.2,1512.9,2061,1508.4L2061,1508.4z" fill="#FFFFFF" stroke="#231F20" stroke-miterlimit="10"></path><path d="M2279.1,1493.2c6.9-3.5,13-8.5,17.5-14.7c4.9-6.6,8.4-14,10.5-21.9c4.7-17.4,4.7-35.7,0-53.2   c-2.1-7.9-5.7-15.3-10.5-21.9c-4.6-6.2-10.6-11.2-17.5-14.7c-15.4-7.1-33.3-7.1-48.7,0c-6.9,3.5-12.9,8.6-17.6,14.7   c-4.9,6.6-8.6,14-10.7,21.9c-4.7,17.4-4.7,35.7,0,53.2c2.1,7.9,5.7,15.3,10.7,21.9c9.7,13.1,25.5,20.6,42,20   C2263.2,1498.7,2271.5,1496.9,2279.1,1493.2L2279.1,1493.2L2279.1,1493.2z M2222.7,1508.4c-9.3-4.1-17.5-10.2-24.1-17.8   c-6.8-7.9-11.9-17.1-15.2-26.9c-7-21.9-7-45.4,0-67.3c3.2-9.8,8.4-19,15.2-26.9c6.6-7.6,14.8-13.7,24.1-17.8   c10.1-4.4,21-6.6,32.1-6.4c11-0.2,21.9,1.9,31.9,6.4c9.2,4.2,17.3,10.2,23.9,17.8c6.8,7.9,11.9,17.1,15,26.9   c6.8,22,6.8,45.3,0,67.3c-3.1,9.9-8.2,19-15,26.9c-6.5,7.6-14.7,13.7-23.9,17.8c-10,4.4-20.9,6.6-31.9,6.4   C2243.8,1515,2232.8,1512.8,2222.7,1508.4z" fill="#FFFFFF" stroke="#231F20" stroke-miterlimit="10"></path><path d="M2378.6,1348.9v24.4h0.6c5.2-8,12-14.8,20.1-20c8.1-5.2,18.1-7.8,30-7.8c9.6-0.2,19,2.4,27.1,7.3   c8.1,5.2,14.1,13,16.9,22.1h0.6c5.2-9,12.8-16.5,21.9-21.8c9.5-5.2,20.2-7.8,31.1-7.7c6.7-0.1,13.3,1.1,19.5,3.3   c5.9,2.1,11.3,5.4,15.8,9.7c4.6,4.5,8.2,9.9,10.6,15.8c2.6,6.9,4,14.2,3.8,21.6v114.8h-19.5v-113.4c0-12.1-3.3-21-9.7-26.8   c-6.9-5.9-15.9-8.9-25.1-8.5c-5.9-0.1-11.7,1-17.2,3.1c-5.2,2.1-10.1,5.1-14.2,8.9c-4.3,4.1-7.6,9-9.7,14.4   c-2.4,6.1-3.6,12.6-3.5,19.1v103h-19.8v-113.3c0-12.1-3.1-21-9.4-26.8c-6.5-5.8-15.1-8.8-23.9-8.5c-6,0-11.9,1.2-17.3,3.5   c-5.5,2.3-10.5,5.5-14.9,9.6c-4.4,4.1-7.9,9.1-10.4,14.6c-2.6,5.7-3.9,11.9-3.8,18.2v103h-19.8v-161.9L2378.6,1348.9L2378.6,1348.9   L2378.6,1348.9z" fill="#FFFFFF" stroke="#231F20" stroke-miterlimit="10"></path></g></svg>