<?xml version="1.0" encoding="UTF-8" standalone="yes"?>
<svg baseProfile="tiny-ps" version="1.2" viewBox="0 0 324 324" xmlns="http://www.w3.org/2000/svg">
  <title>Lexington County School District One</title>
  <g>
    <g id="Layer_1">
      <g id="Layer_1-2">
        <path d="M220.4,96.9l-26.9,23.7-16.1-18.6,43.8-36.9h26.5v134.1h-27.3v-102.3Z" fill="#226093"/>
        <path d="M107.3,28.3h49.6v179.2h91.8v45.7H107.3V28.3Z" fill="#226093"/>
        <g>
          <path d="M71.2,253.3v-20.7h6.2v14h5.7v-13.2h6.2v13.2h6.2v-14.7h6.2v21.5h-30.5Z" fill="#58595b"/>
          <path d="M71.2,226.5v-10.1l19.9-7h0l-19.9-7.1v-10.1h30.4v6.7h-23.3l23.3,8.1v5.1l-23.3,7.7h23.3v6.7h-30.4Z" fill="#58595b"/>
          <path d="M71.2,186.7v-11.3c0-1.6,0-3.1.4-4.5s.8-2.6,1.5-3.7c.7-1,1.6-1.9,2.8-2.5,1.2-.6,2.7-.9,4.5-.9s3.3.3,4.5.9c1.2.6,2.2,1.4,2.9,2.4.7,1,1.2,2.2,1.5,3.6.3,1.4.5,2.9.5,4.5v4.9h11.9v6.7h-30.5ZM84.1,180v-4.5c0-.6,0-1.2-.2-1.7,0-.6-.3-1.1-.6-1.5-.3-.4-.6-.8-1.1-1.1s-1.1-.4-1.8-.4-1.4.2-1.9.5c-.5.4-.8.8-1.1,1.4s-.4,1.2-.5,1.9c0,.7,0,1.3,0,2v3.4h7.3Z" fill="#58595b"/>
          <path d="M86.4,162.1c-2.4,0-4.6-.4-6.6-1.2s-3.7-2-5.1-3.4c-1.4-1.5-2.5-3.2-3.2-5.2s-1.1-4.2-1.1-6.6.4-4.6,1.1-6.6,1.8-3.7,3.2-5.2c1.4-1.5,3.1-2.6,5.1-3.4s4.2-1.2,6.6-1.2,4.6.4,6.6,1.2,3.7,2,5.1,3.4c1.4,1.5,2.5,3.2,3.2,5.2s1.1,4.2,1.1,6.6-.4,4.6-1.1,6.6-1.8,3.7-3.2,5.2c-1.4,1.5-3.1,2.6-5.1,3.4s-4.2,1.2-6.6,1.2ZM86.4,155.2c1.4,0,2.7-.2,3.9-.7,1.2-.4,2.2-1.1,3.1-1.9.9-.8,1.6-1.8,2-3,.5-1.2.7-2.5.7-3.9s-.2-2.7-.7-3.9-1.2-2.2-2-3c-.9-.8-1.9-1.5-3.1-1.9s-2.5-.7-3.9-.7-2.7.2-3.9.7c-1.2.4-2.2,1.1-3.1,1.9-.9.8-1.6,1.8-2,3-.5,1.2-.7,2.5-.7,3.9s.2,2.7.7,3.9,1.2,2.2,2,3c.9.8,1.9,1.5,3.1,1.9s2.5.7,3.9.7Z" fill="#58595b"/>
          <path d="M71.2,128.8v-7.3l19.5-4.9h0l-19.5-6.4v-6.2l20-6.3h0l-20-5.2v-6.8l30.4,8.9v6l-21.1,6.7h0l21.1,6.8v5.8l-30.4,9h0Z" fill="#58595b"/>
          <path d="M71.2,83.2v-20.7h6.2v14h5.7v-13.2h6.2v13.2h6.2v-14.7h6.2v21.5h-30.5Z" fill="#58595b"/>
          <path d="M71.2,56.4v-11.8c0-1.5.2-3,.5-4.4s.8-2.6,1.5-3.7c.7-1,1.6-1.9,2.8-2.5,1.2-.6,2.7-.9,4.5-.9s4,.6,5.5,1.7c1.5,1.1,2.5,2.8,2.9,4.9l12.9-7.7v8l-12.2,6.4v3.3h12.2v6.7h-30.6ZM83.8,49.7v-5.9c0-.7-.2-1.3-.4-1.8-.2-.5-.6-1-1-1.4-.5-.4-1.1-.5-1.9-.5s-1.4.2-1.8.5c-.5.3-.8.7-1.1,1.2-.2.5-.4,1-.5,1.7,0,.6,0,1.2,0,1.8v4.4h6.9,0Z" fill="#58595b"/>
        </g>
        <g>
          <path d="M71.7,261.7h2v9.5h4.8v1.8h-6.8v-11.3Z" fill="#231f20"/>
          <path d="M80,261.7h7.5v1.8h-5.5v2.8h5.2v1.8h-5.2v3.1h5.7v1.8h-7.7v-11.3h0Z" fill="#231f20"/>
          <path d="M92.5,267.1l-3.8-5.4h2.5l2.7,4.2,2.6-4.2h2.4l-3.7,5.4,4.1,5.9h-2.5l-3-4.8-3,4.8h-2.4l4-5.9h.1Z" fill="#231f20"/>
          <path d="M100.5,261.7h2v11.3h-2v-11.3Z" fill="#231f20"/>
          <path d="M105,261.7h2.7l5.5,8.4h0v-8.4h2v11.3h-2.5l-5.6-8.6h0v8.6h-2v-11.3h0Z" fill="#231f20"/>
          <path d="M127.7,272.2c-1.4.7-2.9,1.1-4.7,1.1s-1.7-.1-2.4-.4c-.7-.3-1.4-.7-1.9-1.2s-.9-1.1-1.2-1.9c-.3-.7-.4-1.5-.4-2.4s0-1.7.4-2.5.7-1.4,1.2-1.9,1.2-.9,1.9-1.2c.7-.3,1.5-.4,2.4-.4s1.7.1,2.4.3,1.4.6,2,1.1l-1.5,1.5c-.4-.4-.8-.6-1.3-.8-.5-.2-1.1-.3-1.6-.3s-1.1.1-1.6.3c-.5.2-.9.5-1.2.9-.3.4-.6.8-.8,1.3-.2.5-.3,1-.3,1.6s0,1.2.3,1.7.4.9.8,1.3c.3.4.7.7,1.2.9.5.2,1,.3,1.6.3s1,0,1.4-.1c.5,0,.9-.2,1.2-.4v-2.7h-2.3v-1.8h4.3v5.8h0Z" fill="#231f20"/>
          <path d="M132.4,263.6h-3.5v-1.8h8.9v1.8h-3.5v9.5h-2v-9.5h.1Z" fill="#231f20"/>
          <path d="M138.6,267.4c0-.9.1-1.7.4-2.5s.7-1.4,1.2-1.9,1.2-.9,1.9-1.2c.7-.3,1.5-.4,2.4-.4s1.7.1,2.4.4,1.4.7,1.9,1.2.9,1.1,1.2,1.9c.3.7.4,1.5.4,2.5s-.1,1.7-.4,2.4c-.3.7-.7,1.3-1.2,1.9s-1.2.9-1.9,1.2c-.7.3-1.5.4-2.4.5-.9,0-1.7-.1-2.4-.4s-1.4-.7-1.9-1.2-.9-1.1-1.2-1.9c-.3-.7-.4-1.5-.4-2.4h0ZM140.7,267.3c0,.6,0,1.2.3,1.7s.4.9.8,1.3c.3.4.7.7,1.2.9.5.2,1,.3,1.6.3s1.1-.1,1.6-.3c.5-.2.9-.5,1.2-.9s.6-.8.8-1.3.3-1.1.3-1.7,0-1.1-.3-1.6c-.2-.5-.4-.9-.8-1.3-.3-.4-.7-.7-1.2-.9-.5-.2-1-.3-1.6-.3s-1.1.1-1.6.3c-.5.2-.9.5-1.2.9s-.6.8-.8,1.3-.3,1-.3,1.6Z" fill="#231f20"/>
          <path d="M152.4,261.7h2.7l5.5,8.4h0v-8.4h2v11.3h-2.5l-5.6-8.6h0v8.6h-2v-11.3h0Z" fill="#231f20"/>
          <path d="M177.6,264.4c-.4-.4-.8-.7-1.2-.9-.4-.1-.8-.2-1.2-.2-.6,0-1.1.1-1.6.3-.5.2-.9.5-1.2.9s-.6.8-.8,1.3-.3,1-.3,1.6,0,1.2.3,1.7.4.9.8,1.3c.3.4.7.7,1.2.9.5.2,1,.3,1.6.3s.9-.1,1.3-.3c.4-.2.8-.6,1.2-1l1.7,1.2c-.5.7-1.1,1.2-1.9,1.5-.7.3-1.5.5-2.3.5s-1.7-.1-2.4-.4-1.4-.7-1.9-1.2-.9-1.1-1.2-1.9c-.3-.7-.4-1.5-.4-2.4s.1-1.7.4-2.5.7-1.4,1.2-1.9,1.2-.9,1.9-1.2c.7-.3,1.5-.4,2.4-.4s1.5.1,2.1.4,1.3.7,1.8,1.4l-1.6,1.1h0Z" fill="#231f20"/>
          <path d="M180.1,267.4c0-.9.1-1.7.4-2.5s.7-1.4,1.2-1.9,1.2-.9,1.9-1.2c.7-.3,1.5-.4,2.4-.4s1.7.1,2.4.4,1.4.7,1.9,1.2.9,1.1,1.2,1.9c.3.7.4,1.5.4,2.5s-.1,1.7-.4,2.4c-.3.7-.7,1.3-1.2,1.9s-1.2.9-1.9,1.2c-.7.3-1.5.4-2.4.5-.9,0-1.7-.1-2.4-.4s-1.4-.7-1.9-1.2-.9-1.1-1.2-1.9c-.3-.7-.4-1.5-.4-2.4h0ZM182.2,267.3c0,.6,0,1.2.3,1.7s.4.9.8,1.3c.3.4.7.7,1.2.9.5.2,1,.3,1.6.3s1.1-.1,1.6-.3c.5-.2.9-.5,1.2-.9s.6-.8.8-1.3.3-1.1.3-1.7,0-1.1-.3-1.6c-.2-.5-.4-.9-.8-1.3-.3-.4-.7-.7-1.2-.9-.5-.2-1-.3-1.6-.3s-1.1.1-1.6.3c-.5.2-.9.5-1.2.9s-.6.8-.8,1.3-.3,1-.3,1.6Z" fill="#231f20"/>
          <path d="M203,268.9c0,.7-.1,1.3-.3,1.8s-.6,1-1,1.4-.9.7-1.4.9c-.6.2-1.2.3-1.8.3s-1.2-.1-1.8-.3c-.6-.2-1-.5-1.4-.9s-.7-.8-1-1.4c-.2-.5-.3-1.2-.3-1.8v-7.1h2v7.1c0,.3,0,.6.1.9s.2.6.4.8c.2.3.5.5.8.6s.7.2,1.2.2.9,0,1.2-.2.6-.4.8-.6c.2-.3.3-.5.4-.8s.1-.6.1-.9v-7.1h2v7.1Z" fill="#231f20"/>
          <path d="M205.5,261.7h2.7l5.5,8.4h0v-8.4h2v11.3h-2.5l-5.6-8.6h0v8.6h-2v-11.3h0Z" fill="#231f20"/>
          <path d="M220.4,263.6h-3.5v-1.8h8.9v1.8h-3.5v9.5h-2v-9.5h.1Z" fill="#231f20"/>
          <path d="M230,268.2l-4.2-6.4h2.5l2.8,4.5,2.8-4.5h2.4l-4.2,6.4v4.8h-2v-4.8h-.1Z" fill="#231f20"/>
          <path d="M77.2,281.3c-.2-.3-.5-.5-.9-.7-.4-.1-.7-.2-1.1-.2h-.7c-.2,0-.4.1-.6.3-.2.1-.3.3-.4.5s-.2.4-.2.7,0,.7.4.9c.3.2.6.4,1,.5s.8.3,1.3.4.9.3,1.3.6c.4.2.7.6,1,1s.4.9.4,1.6,0,1.1-.3,1.6c-.2.5-.5.8-.9,1.1-.4.3-.8.5-1.3.7-.5.1-1,.2-1.6.2s-1.4-.1-2-.3c-.6-.2-1.2-.6-1.7-1.2l1.5-1.5c.2.4.6.7,1,.9.4.2.8.3,1.3.3h.7c.2,0,.4-.2.6-.3.2-.1.3-.3.5-.5,0-.2.2-.4.2-.7s0-.7-.4-1c-.3-.2-.6-.4-1-.6s-.8-.3-1.3-.4-.9-.3-1.3-.6c-.4-.2-.7-.6-1-1s-.4-.9-.4-1.6,0-1.1.4-1.5c.2-.4.6-.8.9-1.1.4-.3.8-.5,1.3-.6s1-.2,1.5-.2,1.2,0,1.7.3c.6.2,1.1.5,1.5.9l-1.5,1.5h0Z" fill="#231f20"/>
          <path d="M88.6,281.5c-.4-.4-.8-.7-1.2-.9-.4-.1-.8-.2-1.2-.2-.6,0-1.1.1-1.6.3-.5.2-.9.5-1.2.9-.3.4-.6.8-.8,1.3-.2.5-.3,1-.3,1.6s0,1.2.3,1.7.4.9.8,1.3c.3.4.7.7,1.2.9.5.2,1,.3,1.6.3s.9-.1,1.3-.3c.4-.2.8-.6,1.2-1l1.7,1.2c-.5.7-1.1,1.2-1.9,1.5-.7.3-1.5.5-2.3.5s-1.7-.1-2.4-.4c-.7-.3-1.4-.7-1.9-1.2s-.9-1.1-1.2-1.9c-.3-.7-.4-1.5-.4-2.4s0-1.7.4-2.5.7-1.4,1.2-1.9,1.2-.9,1.9-1.2c.7-.3,1.5-.4,2.4-.4s1.5.1,2.1.4,1.3.7,1.8,1.4l-1.6,1.1h0Z" fill="#231f20"/>
          <path d="M91.8,278.8h2v4.5h5.3v-4.5h2v11.3h-2v-5h-5.3v5h-2v-11.3Z" fill="#231f20"/>
          <path d="M102.9,284.5c0-.9,0-1.7.4-2.5s.7-1.4,1.2-1.9,1.2-.9,1.9-1.2c.7-.3,1.5-.4,2.4-.4s1.7.1,2.4.4c.7.3,1.4.7,1.9,1.2s.9,1.1,1.2,1.9c.3.7.4,1.5.4,2.5s0,1.7-.4,2.4c-.3.7-.7,1.3-1.2,1.9s-1.2.9-1.9,1.2c-.7.3-1.5.4-2.4.5-.9,0-1.7-.1-2.4-.4-.7-.3-1.4-.7-1.9-1.2s-.9-1.1-1.2-1.9c-.3-.7-.4-1.5-.4-2.4h0ZM105,284.4c0,.6,0,1.2.3,1.7s.4.9.8,1.3c.3.4.7.7,1.2.9.5.2,1,.3,1.6.3s1.1-.1,1.6-.3c.5-.2.9-.5,1.2-.9.3-.4.6-.8.8-1.3s.3-1.1.3-1.7,0-1.1-.3-1.6c-.2-.5-.4-.9-.8-1.3-.3-.4-.7-.7-1.2-.9-.5-.2-1-.3-1.6-.3s-1.1.1-1.6.3c-.5.2-.9.5-1.2.9-.3.4-.6.8-.8,1.3-.2.5-.3,1-.3,1.6Z" fill="#231f20"/>
          <path d="M116.2,284.5c0-.9,0-1.7.4-2.5s.7-1.4,1.2-1.9,1.2-.9,1.9-1.2c.7-.3,1.5-.4,2.4-.4s1.7.1,2.4.4c.7.3,1.4.7,1.9,1.2s.9,1.1,1.2,1.9c.3.7.4,1.5.4,2.5s0,1.7-.4,2.4c-.3.7-.7,1.3-1.2,1.9s-1.2.9-1.9,1.2c-.7.3-1.5.4-2.4.5-.9,0-1.7-.1-2.4-.4-.7-.3-1.4-.7-1.9-1.2s-.9-1.1-1.2-1.9c-.3-.7-.4-1.5-.4-2.4h0ZM118.3,284.4c0,.6,0,1.2.3,1.7s.4.9.8,1.3c.3.4.7.7,1.2.9.5.2,1,.3,1.6.3s1.1-.1,1.6-.3c.5-.2.9-.5,1.2-.9.3-.4.6-.8.8-1.3s.3-1.1.3-1.7,0-1.1-.3-1.6c-.2-.5-.4-.9-.8-1.3-.3-.4-.7-.7-1.2-.9-.5-.2-1-.3-1.6-.3s-1.1.1-1.6.3c-.5.2-.9.5-1.2.9-.3.4-.6.8-.8,1.3-.2.5-.3,1-.3,1.6Z" fill="#231f20"/>
          <path d="M130,278.8h2v9.5h4.8v1.8h-6.8v-11.3Z" fill="#231f20"/>
          <path d="M143,278.8h4.4c.7,0,1.5.1,2.1.3.7.2,1.3.6,1.8,1s1,1.1,1.3,1.8c.3.7.5,1.5.5,2.5s-.2,1.8-.5,2.5-.8,1.3-1.4,1.8c-.6.5-1.2.8-1.9,1s-1.4.3-2.1.3h-4.2v-11.3h0ZM146.5,288.3c.6,0,1.2,0,1.8-.2.6-.1,1-.4,1.5-.7.4-.3.7-.7,1-1.2.2-.5.4-1.1.4-1.8s-.1-1.3-.3-1.8-.5-.9-.9-1.2c-.4-.3-.8-.5-1.3-.7s-1.1-.2-1.7-.2h-1.8v7.6h1.5l-.2.2Z" fill="#231f20"/>
          <path d="M155,278.8h2v11.3h-2v-11.3Z" fill="#231f20"/>
          <path d="M165,281.3c-.2-.3-.5-.5-.9-.7-.4-.1-.7-.2-1.1-.2h-.7c-.2,0-.4.1-.6.3-.2.1-.3.3-.4.5s-.2.4-.2.7.1.7.4.9c.3.2.6.4,1,.5s.8.3,1.3.4.9.3,1.3.6c.4.2.7.6,1,1s.4.9.4,1.6-.1,1.1-.3,1.6-.5.8-.9,1.1c-.4.3-.8.5-1.3.7-.5.1-1,.2-1.6.2s-1.4-.1-2-.3c-.6-.2-1.2-.6-1.7-1.2l1.5-1.5c.2.4.6.7,1,.9.4.2.8.3,1.3.3h.7c.2,0,.4-.2.6-.3.2-.1.3-.3.5-.5.1-.2.2-.4.2-.7s-.1-.7-.4-1c-.3-.2-.6-.4-1-.6s-.8-.3-1.3-.4-.9-.3-1.3-.6c-.4-.2-.7-.6-1-1s-.4-.9-.4-1.6.1-1.1.4-1.5c.2-.4.6-.8.9-1.1.4-.3.8-.5,1.3-.6s1-.2,1.5-.2,1.2,0,1.7.3c.6.2,1.1.5,1.5.9l-1.5,1.5h.1Z" fill="#231f20"/>
          <path d="M170.9,280.7h-3.5v-1.8h8.9v1.8h-3.5v9.5h-2v-9.5h.1Z" fill="#231f20"/>
          <path d="M177.8,278.8h3.9c.5,0,1.1,0,1.6.2.5.1,1,.3,1.3.5s.7.6.9,1,.4.9.4,1.6-.2,1.5-.7,2.1-1.1.9-1.9,1l3,5h-2.4l-2.6-4.8h-1.5v4.8h-2v-11.3h0ZM181.3,283.6h.9c.3,0,.5,0,.8-.2.2-.1.4-.3.6-.5.1-.2.2-.5.2-.9s0-.6-.2-.8-.3-.4-.5-.5-.5-.2-.7-.2h-2.5v3.1h1.6-.2Z" fill="#231f20"/>
          <path d="M187.7,278.8h2v11.3h-2v-11.3Z" fill="#231f20"/>
          <path d="M200,281.5c-.4-.4-.8-.7-1.2-.9-.4-.1-.8-.2-1.2-.2-.6,0-1.1.1-1.6.3-.5.2-.9.5-1.2.9s-.6.8-.8,1.3-.3,1-.3,1.6,0,1.2.3,1.7.4.9.8,1.3c.3.4.7.7,1.2.9.5.2,1,.3,1.6.3s.9-.1,1.3-.3c.4-.2.8-.6,1.2-1l1.7,1.2c-.5.7-1.1,1.2-1.9,1.5-.7.3-1.5.5-2.3.5s-1.7-.1-2.4-.4-1.4-.7-1.9-1.2-.9-1.1-1.2-1.9c-.3-.7-.4-1.5-.4-2.4s.1-1.7.4-2.5.7-1.4,1.2-1.9,1.2-.9,1.9-1.2c.7-.3,1.5-.4,2.4-.4s1.5.1,2.1.4,1.3.7,1.8,1.4l-1.6,1.1h0Z" fill="#231f20"/>
          <path d="M205.4,280.7h-3.5v-1.8h8.9v1.8h-3.5v9.5h-2v-9.5h.1Z" fill="#231f20"/>
          <path d="M216.4,284.5c0-.9.1-1.7.4-2.5s.7-1.4,1.2-1.9,1.2-.9,1.9-1.2c.7-.3,1.5-.4,2.4-.4s1.7.1,2.4.4,1.4.7,1.9,1.2.9,1.1,1.2,1.9c.3.7.4,1.5.4,2.5s-.1,1.7-.4,2.4c-.3.7-.7,1.3-1.2,1.9s-1.2.9-1.9,1.2c-.7.3-1.5.4-2.4.5-.9,0-1.7-.1-2.4-.4s-1.4-.7-1.9-1.2-.9-1.1-1.2-1.9c-.3-.7-.4-1.5-.4-2.4h0ZM218.5,284.4c0,.6,0,1.2.3,1.7s.4.9.8,1.3c.3.4.7.7,1.2.9.5.2,1,.3,1.6.3s1.1-.1,1.6-.3c.5-.2.9-.5,1.2-.9s.6-.8.8-1.3.3-1.1.3-1.7,0-1.1-.3-1.6c-.2-.5-.4-.9-.8-1.3-.3-.4-.7-.7-1.2-.9-.5-.2-1-.3-1.6-.3s-1.1.1-1.6.3c-.5.2-.9.5-1.2.9s-.6.8-.8,1.3-.3,1-.3,1.6Z" fill="#231f20"/>
          <path d="M230.2,278.8h2.7l5.5,8.4h0v-8.4h2v11.3h-2.5l-5.6-8.6h0v8.6h-2v-11.3h0Z" fill="#231f20"/>
          <path d="M242.9,278.8h7.5v1.8h-5.5v2.8h5.2v1.8h-5.2v3.1h5.7v1.8h-7.7v-11.3h0Z" fill="#231f20"/>
        </g>
        <g>
          <path d="M252.5,247.9h-2v-1h5v1h-2v5.3h-1.1v-5.3h.1Z" fill="gray"/>
          <path d="M256.4,246.9h1.7l1.7,4.5,1.7-4.5h1.7v6.4h-1.1v-5.3h0l-1.9,5.3h-.8l-1.9-5.3h0v5.3h-1.1v-6.4h0Z" fill="gray"/>
        </g>
        <rect width="324" height="324" fill="none"/>
      </g>
    </g>
  </g>
</svg>