<?xml version="1.0" encoding="utf-8"?>
<svg xmlns="http://www.w3.org/2000/svg" xmlns:xlink="http://www.w3.org/1999/xlink" version="1.2" viewBox="0 0 350 350" baseProfile="tiny-ps" xml:space="preserve">
  <title>PowerSolutions</title>
  <rect width="350" height="350" fill="#FFFFFF"/>
  <path d="M299.02,152.456c0,0-18.335,33.868-123.684,33.868c-109.864,0-96.334-22.447-96.334-22.447  s-11.074,4.617-20.476,14.014c-8.974,8.97-8.41,18.024-8.41,18.024l0,0v-12.643v-0.003c0-23.98,53.285-50.084,136.409-50.084  C264.215,133.184,299.02,152.456,299.02,152.456L299.02,152.456z" fill="#FFFFFF"/>
  <path d="M225.996,150.897c0.511,6.329-28.336,13.815-64.437,16.718c-36.095,2.906-65.768,0.13-66.28-6.197  c-0.506-6.33,28.344-13.818,64.439-16.724C195.814,141.792,225.49,144.567,225.996,150.897z" fill="#1480C5"/>
  <path d="M50.115,183.271c0-23.98,53.285-50.084,136.409-50.084c77.691,0,112.496,19.269,112.496,19.269v0.008  v-28.871H50.115v59.681V183.271z" fill="#1E2B6A"/>
  <path d="M299.02,152.456c0,0-18.335,33.871-123.684,33.871c-109.864,0-96.334-22.447-96.334-22.447  s-11.074,4.617-20.476,14.013c-8.974,8.97-8.41,18.024-8.41,18.024l0,0H299.02v-43.469V152.456z" fill="#1480C5"/>
  <path d="M59.011,205.097c0,0-8.45,0-8.72,0v20.827h3.953c0-0.27,0-7.696,0-7.696h5.033c5.335,0,8.522-2.459,8.522-6.579  C67.8,207.302,64.841,205.097,59.011,205.097z M59.044,215.046h-4.8v-6.767h4.67c2.209,0,4.439,1.034,4.439,3.342  C63.353,214.146,61.129,215.046,59.044,215.046z"/>
  <path d="M78.412,210.501c-5.272,0-8.958,3.242-8.958,7.884c0,4.494,3.852,7.882,8.958,7.882c5.088,0,8.924-3.389,8.924-7.882  C87.336,213.744,83.668,210.501,78.412,210.501z M78.412,223.561c-3.393,0-4.937-2.684-4.937-5.176c0-2.51,1.731-5.177,4.937-5.177  c3.185,0,4.903,2.667,4.903,5.177C83.315,220.877,81.781,223.561,78.412,223.561z"/>
  <path d="M185.197,210.501c-5.275,0-8.958,3.242-8.958,7.884c0,4.494,3.852,7.882,8.958,7.882c5.088,0,8.925-3.389,8.925-7.882  C194.122,213.744,190.451,210.501,185.197,210.501z M185.195,223.561c-3.39,0-4.935-2.684-4.935-5.176  c0-2.51,1.732-5.177,4.935-5.177c3.188,0,4.906,2.667,4.906,5.177C190.101,220.877,188.567,223.561,185.195,223.561z"/>
  <path d="M255.903,210.501c-5.275,0-8.956,3.242-8.956,7.884c0,4.494,3.85,7.882,8.956,7.882c5.091,0,8.927-3.389,8.927-7.882  C264.83,213.744,261.157,210.501,255.903,210.501z M255.903,223.561c-3.39,0-4.935-2.684-4.935-5.176  c0-2.51,1.732-5.177,4.935-5.177c3.185,0,4.906,2.667,4.906,5.177C260.809,220.877,259.275,223.561,255.903,223.561z"/>
  <path d="M115.182,210.847c-0.135,0.363-5.454,14.899-5.516,15.077c-0.184,0-4.211,0-4.405,0c-0.057-0.196-3.458-11.427-3.458-11.427  s-3.52,11.235-3.58,11.427c-0.192,0-4.242,0-4.428,0c-0.065-0.183-5.166-14.716-5.293-15.077c0.35,0,3.829,0,4.013,0  c0.062,0.187,3.733,11.209,3.733,11.209s3.582-11.019,3.645-11.209c0.187,0,3.681,0,3.873,0c0.06,0.192,3.476,11.209,3.476,11.209  s3.834-11.025,3.902-11.209C111.325,210.847,114.824,210.847,115.182,210.847z"/>
  <path d="M132.374,218.989c0-5.632-2.622-8.487-7.783-8.487c-4.864,0-8.255,3.134-8.255,7.625c0,5.25,3.226,8.141,9.091,8.141  c2.523,0,3.912-0.452,5.031-0.818c0,0,0.457-0.145,0.602-0.192c0-0.178,0.003-2.824,0.003-3.273  c-0.171,0.122-0.379,0.269-0.379,0.269c-0.698,0.494-3.076,1.421-5.119,1.421c-2.406,0-5.088-1.519-5.314-4.331l-0.013-0.149  c0,0,11.863,0,12.136,0C132.374,219.095,132.374,218.989,132.374,218.989z M120.241,216.772l0.034-0.167  c0.267-1.311,1.171-3.508,4.247-3.508c2.741,0,3.87,1.899,4,3.525l0.013,0.15H120.241z"/>
  <path d="M138.809,212.424c1.672-1.78,4.211-1.922,4.953-1.922c0.974-0.001,1.802,0.106,2.313,0.214c0,0.21,0,3.049,0,3.394  c-0.506-0.187-1.407-0.357-1.978-0.357c-2.565,0-5.327,1.656-5.327,5.293c0,0,0,6.61,0,6.878c-0.252,0-3.343,0-3.592,0  c0-0.273,0-14.806,0-15.077c0.246,0,3.144,0,3.39,0c0,0.232,0,1.835,0,1.835L138.809,212.424z"/>
  <path d="M201.11,205.097c0,0.274,0,20.554,0,20.827c-0.254,0-3.424,0-3.673,0c0-0.273,0-20.553,0-20.827  C197.686,205.097,200.855,205.097,201.11,205.097z"/>
  <path d="M220.89,210.847c0,0.271,0,14.804,0,15.077c-0.249,0-3.323,0-3.572,0c0-0.236,0-1.963,0-1.963l-0.241,0.266  c-1.171,1.277-3.112,2.04-5.197,2.04c-4.348,0-6.645-2.248-6.645-6.503c0,0,0-8.647,0-8.918c0.252,0,3.372,0,3.621,0  c0,0.269,0,7.797,0,7.797c0,3.465,0.919,4.802,3.385,4.931l0,0c4.33,0,4.976-3.594,4.976-5.736c0,0,0-6.723,0-6.992  C217.469,210.847,220.638,210.847,220.89,210.847z"/>
  <path d="M231.569,205.097c0,0.266,0,5.75,0,5.75s4.267,0,4.53,0c0,0.239,0,2.354,0,2.595c-0.262,0-4.53,0-4.53,0v7.82  c0,1.438,0.843,2.262,2.315,2.262c0.789,0,1.568-0.176,2.129-0.485c0,0,0.19-0.106,0.356-0.197c0,0.394,0,2.785,0,2.975  c-0.081,0.021-0.169,0.043-0.169,0.043c-1.127,0.276-2.061,0.409-2.855,0.409c-3.564,0-5.529-1.583-5.529-4.461v-8.365  c0,0-3.572,0-3.829,0c0-0.24,0-2.356,0-2.595c0.257,0,3.829,0,3.829,0s0-5.484,0-5.75  C228.07,205.097,231.32,205.097,231.569,205.097z"/>
  <path d="M244.04,205.097c0,0.253,0,3.56,0,3.813c-0.254,0-3.821,0-4.075,0c0-0.253,0-3.56,0-3.813  C240.219,205.097,243.786,205.097,244.04,205.097z"/>
  <path d="M243.606,210.847c0,0,0.124,0,0.234,0c0,0.271,0,14.804,0,15.077c-0.252,0-3.424,0-3.673,0c0-0.273,0-14.806,0-15.077  C240.424,210.847,243.606,210.847,243.606,210.847z"/>
  <path d="M271.361,212.54c1.171-1.276,3.112-2.039,5.197-2.039c4.348,0,6.643,2.249,6.643,6.503c0,0,0,8.649,0,8.919  c-0.247,0-3.369,0-3.621,0c0-0.27,0-7.797,0-7.797c0-3.494-0.948-4.904-3.382-5.031l0,0c-4.333,0-4.976,3.655-4.976,5.834  c0,0,0,6.725,0,6.993c-0.252,0-3.424,0-3.673,0c0-0.273,0-14.806,0-15.077c0.249,0,3.323,0,3.569,0c0,0.236,0,1.96,0,1.96  L271.361,212.54z"/>
  <path d="M168.059,222.169c0.833-0.544,1.222-1.238,1.189-2.13c-0.026-0.765-0.236-1.325-0.62-1.664  c-0.426-0.375-1.087-0.674-1.968-0.889c-0.008-0.001-2.131-0.433-2.131-0.433c-0.005-0.001-2.541-0.448-2.541-0.448  c-1.892-0.376-3.263-1.024-4.317-2.036c-1.015-0.982-1.56-2.274-1.615-3.839c-0.062-1.813,0.709-3.316,2.29-4.468l0,0  c1.578-1.15,3.411-1.685,5.768-1.685c1.521,0,2.941,0.139,4.224,0.41c1.238,0.267,2.98,0.8,3.65,1.108  c-0.044,0.203-0.688,3.392-0.76,3.756c-0.537-0.392-1.957-1.182-3.089-1.547c-1.342-0.433-2.51-0.628-3.787-0.628  c-1.314,0-2.173,0.231-3.074,0.826c-0.774,0.516-1.137,1.15-1.111,1.944c0.026,0.729,0.231,1.281,0.633,1.682  c0.376,0.375,0.805,0.732,1.929,0.973c0.003,0.001,2.438,0.454,2.438,0.454l2.926,0.56c1.654,0.41,2.944,1.047,3.816,1.888  c0.909,0.872,1.394,2.092,1.449,3.632c0.028,0.842-0.153,1.683-0.54,2.502c-0.384,0.817-0.95,1.519-1.679,2.087  c-0.779,0.6-1.705,1.075-2.749,1.408c-1.044,0.335-2.316,0.505-3.78,0.505c-1.557,0-2.985-0.139-4.247-0.41  c-1.21-0.261-3.315-0.969-4.078-1.3c0.039-0.203,0.683-3.555,0.753-3.918c0.584,0.411,2.399,1.47,3.637,1.865  c1.454,0.463,2.565,0.661,3.712,0.661C165.988,223.034,167.151,222.762,168.059,222.169z M158.18,206.035L158.18,206.035  L158.18,206.035z"/>
  <path d="M287.385,211.267L287.385,211.267L287.385,211.267z"/>
  <path d="M294.604,223.008c0.639-0.325,0.737-0.926,0.737-1.258c-0.021-0.566-0.12-0.838-0.376-1.097  c-0.239-0.24-0.735-0.468-1.321-0.612c-0.005-0.001-1.781-0.356-1.781-0.356l-1.633-0.314c-1.002-0.208-2.388-0.638-3.286-1.507  c-0.797-0.766-1.22-1.773-1.262-2.989l-0.003-0.166c0-1.346,0.6-2.466,1.786-3.329l0,0c1.202-0.877,2.593-1.286,4.377-1.286  c1.126,0,2.183,0.104,3.146,0.308c0.978,0.209,2.341,0.628,2.806,0.86c0,0,0.057,0.027,0.109,0.056  c-0.036,0.184-0.597,2.981-0.678,3.393c-0.106-0.096-0.213-0.194-0.213-0.194c-0.221-0.2-1.399-0.882-2.305-1.176  c-0.955-0.308-1.789-0.445-2.689-0.445c-1.049,0-1.583,0.213-2.103,0.558c-0.485,0.323-0.711,0.713-0.698,1.192  c0.018,0.463,0.145,0.809,0.389,1.055c0.278,0.28,0.828,0.579,1.283,0.694c0.008,0.003,2.357,0.48,2.357,0.48  c0.003,0,1.389,0.267,1.389,0.267c1.033,0.205,2.432,0.75,3.1,1.393c0.714,0.688,1.098,1.642,1.14,2.838  c0.023,0.656-0.117,1.315-0.418,1.958c-0.299,0.632-0.742,1.18-1.311,1.622c-0.592,0.46-1.295,0.82-2.092,1.072  c-0.784,0.254-1.742,0.382-2.848,0.382c-1.16,0-2.227-0.103-3.165-0.303c-0.95-0.205-2.588-0.76-3.115-0.999  c0,0-0.057-0.026-0.117-0.053c0.039-0.192,0.597-3.104,0.673-3.502c0.104,0.087,0.213,0.177,0.213,0.177  c0.216,0.182,1.69,0.997,2.666,1.311c1.036,0.33,1.825,0.47,2.64,0.47C293.117,223.508,293.922,223.355,294.604,223.008z   M287.3,211.154L287.3,211.154L287.3,211.154z"/>
</svg>