<?xml version="1.0" encoding="utf-8"?>
<!-- Generator: Adobe Illustrator 21.0.0, SVG Export Plug-In . SVG Version: 6.00 Build 0)  -->
<svg version="1.2" baseProfile="tiny-ps" id="Vrstva_1"
	 xmlns="http://www.w3.org/2000/svg" xmlns:xlink="http://www.w3.org/1999/xlink"
	 viewBox="0 0 1000 1000" xml:space="preserve">
	 <title>MyAirBridge.com</title>
<g>
	<rect fill="#FFFFFF" width="1000" height="1000"/>
	<g>
		<path fill="#359BCE" d="M361.983,702.01c-39.311,0-67.429-28.917-74.751-37.298c-7.192,2.611-27.873,8.587-55.661,3.561
			c-31.455-5.704-47.769-23.638-51.494-28.227c-8.984-2.969-61.699-23.335-61.699-91.837c0-77.64,85.366-96.371,100.972-99.142
			c5.259-15.393,39.416-99.593,156.353-99.593c94.466,0,135.519,78.094,142.321,92.589c2,0.425,6.263,0.968,9.794,1.293
			c2.098,0.194,3.644,2.049,3.453,4.147c-0.194,2.101-2.027,3.662-4.147,3.453c-14.044-1.285-14.592-2.514-15.423-4.377
			c-6.664-14.939-44.556-89.475-136-89.475c-122.059,0-148.677,92.419-149.751,96.352c-0.404,1.482-1.662,2.582-3.183,2.782
			c-3.951,0.522-96.76,13.668-96.76,91.971c0,68.718,56.759,84.714,57.333,84.868c0.846,0.227,1.589,0.738,2.103,1.449
			c0.144,0.194,15.241,20.393,47.487,26.238c31.569,5.718,53.664-3.99,53.881-4.087c1.595-0.716,3.484-0.26,4.568,1.114
			c0.288,0.365,29.371,36.59,70.603,36.59c41.565,0,72.117-30.961,72.419-31.274c0.946-0.976,2.332-1.378,3.658-1.047
			c0.254,0.06,25.906,6.285,45.87-0.529c20.404-6.966,36.143-19.226,36.3-19.35c0.451-0.354,0.976-0.6,1.531-0.727
			c0.503-0.111,50.393-11.336,68.308-29.088c1.501-1.482,3.915-1.476,5.394,0.022c1.482,1.498,1.471,3.912-0.022,5.394
			c-18.358,18.194-64.191,29.315-71.195,30.932c-3.398,2.563-18.421,13.404-37.849,20.035c-18.839,6.437-41.161,2.63-48.071,1.189
			C431.306,676.562,401.76,702.01,361.983,702.01z M518.669,443.467c0,0,0.003,0.003,0.003,0.008
			C518.672,443.471,518.672,443.467,518.669,443.467z"/>
		<path fill="#359BCE" d="M606.549,494.392c-1.095,0-2.184-0.47-2.939-1.378c-12.562-15.125-29.915-23.633-30.086-23.716
			c-1.896-0.92-2.69-3.2-1.773-5.096c0.917-1.896,3.204-2.686,5.096-1.773c0.771,0.376,19.026,9.329,32.634,25.712
			c1.344,1.62,1.122,4.023-0.5,5.372C608.271,494.106,607.406,494.392,606.549,494.392z"/>
		<path fill="#359BCE" d="M536.152,599.101c-15.028,0-19.264-10.17-19.405-15.546V559.11c0-0.138,0.008-0.272,0.022-0.406
			c0.008-0.075,0.816-9.101-5.19-15.728c-4.568-5.037-11.984-7.593-22.051-7.593c-29.832,0-30.175,18.869-30.175,19.674v24.431
			c0.146,1.494,0.417,7.466-3.681,12.126c-3.003,3.416-7.454,5.148-13.233,5.148c-14.7,0-18.712-11.545-18.783-17.647v-41.366
			c0.026-0.484,1.289-19.182-10.878-32.307c-8.188-8.829-20.661-13.307-37.077-13.307c-18.316,0-32.083,4.706-40.917,13.985
			c-11.26,11.821-10.634,27.377-10.626,27.534l0.006,44.633c0,6.769-3.958,19.566-18.94,19.566c-5.22,0-9.418-1.698-12.482-5.052
			c-5.726-6.263-4.921-16.001-4.884-16.414l-0.014-14.003c0.011-0.313,0.467-11.478-6.901-19.215
			c-4.919-5.167-12.333-7.786-22.03-7.786c-9.092,0-15.971,2.298-20.447,6.832c-7.704,7.808-7.531,20.996-7.416,29.721l0.024,2.768
			c0,11.359-2.417,24.397-21.279,24.397c-14.066,0-18.029-14.592-18.159-22.308V541.49c0-20.721,15.162-27.017,27.344-32.078
			c2.472-1.025,4.925-2.041,7.244-3.163c4.432-2.142,13.981-6.623,25.373-11.973c24.004-11.265,56.88-26.699,65.969-31.554
			c2.066-1.103,4.181-2.306,6.374-3.55c12.424-7.052,27.886-15.829,49.973-15.829c20.987,0,38.984,9.943,50.894,16.522
			c2.79,1.543,5.26,2.909,7.372,3.919c15.401,7.372,77.356,36.803,99.18,46.086c24.584,10.453,23.619,27.593,23.563,28.317
			l0.011,44.004c0.014,0.608,0.026,6.88-4.72,11.743C546.867,597.361,542.131,599.101,536.152,599.101z M524.376,559.277v24.178
			c0.067,1.219,0.973,8.017,11.776,8.017c3.849,0,6.743-0.965,8.605-2.872c2.522-2.585,2.552-6.285,2.549-6.322v-44.373
			c0.03-0.738,0.362-12.811-18.932-21.018c-21.949-9.335-84.055-38.833-99.485-46.221c-2.269-1.087-4.817-2.496-7.767-4.123
			c-11.224-6.202-28.186-15.572-47.206-15.572c-20.074,0-33.958,7.883-46.207,14.834c-2.25,1.278-4.424,2.511-6.545,3.644
			c-9.261,4.951-42.242,20.43-66.323,31.732c-11.356,5.331-20.877,9.802-25.295,11.936c-2.444,1.181-5.029,2.257-7.637,3.342
			c-12.149,5.044-22.641,9.403-22.641,25.03v35.241c0.013,0.533,0.44,14.741,10.53,14.741c10.333,0,13.649-4.076,13.649-16.768
			l-0.024-2.668c-0.122-9.388-0.329-25.101,9.615-35.178c5.962-6.042,14.669-9.105,25.876-9.105
			c11.912,0,21.205,3.439,27.621,10.226c9.62,10.17,8.965,24.032,8.934,24.617l0.006,14.134c-0.171,2.224,0.05,7.831,2.92,10.945
			c1.578,1.714,3.813,2.549,6.83,2.549c10.651,0,11.29-9.958,11.31-11.954v-44.418c-0.036-0.555-0.865-18.642,12.636-32.902
			c10.33-10.911,25.986-16.444,46.531-16.444c18.666,0,33.042,5.32,42.731,15.814c14.425,15.625,12.912,36.836,12.841,37.734
			l0.011,41.016c0.045,1.62,0.786,10.062,11.154,10.062c3.461,0,5.975-0.849,7.469-2.522c2.257-2.522,1.848-6.418,1.841-6.46
			c-0.014-0.141-0.026-0.317-0.026-0.458v-24.636c0-0.272,0.432-27.303,37.804-27.303c12.365,0,21.711,3.427,27.78,10.185
			C525.039,546.544,524.521,557.477,524.376,559.277z"/>
		<path fill="#359BCE" d="M531.638,391.154c-0.326-2.82-0.262-5.214,0.191-7.187c0.438-1.963,1.147-3.599,2.111-4.906
			c0.97-1.308,2.097-2.342,3.379-3.106c1.268-0.755,2.515-1.322,3.776-1.715c2.501-0.768,4.704-1.024,6.631-0.743
			c1.92,0.28,3.768,1.084,5.554,2.405c1.764,1.322,3.606,3.231,5.532,5.699c1.899,2.472,4.109,5.522,6.589,9.138l19.383,27.64
			l0.255-0.078l0.411-33.75c0-4.399,0.12-8.15,0.284-11.271c0.177-3.117,0.623-5.725,1.353-7.832
			c0.73-2.097,1.793-3.801,3.223-5.112c1.431-1.307,3.393-2.359,5.902-3.127c1.247-0.383,2.621-0.617,4.109-0.716
			c1.467-0.095,2.983,0.139,4.521,0.663c1.53,0.528,3.038,1.484,4.512,2.861c1.48,1.363,2.869,3.312,4.208,5.834l22.189,43.364
			c1.126,2.204,2.274,4.424,3.414,6.624c1.147,2.214,2.16,4.297,3.089,6.251c0.928,1.955,1.735,3.671,2.423,5.154
			c0.68,1.48,1.147,2.589,1.381,3.34c0.347,1.176,0.503,2.387,0.433,3.642c-0.071,1.253-0.383,2.48-0.928,3.656
			c-0.56,1.169-1.324,2.231-2.309,3.174c-0.999,0.943-2.239,1.657-3.734,2.125c-2.259,0.694-4.223,0.878-5.873,0.568
			c-1.652-0.312-3.083-0.964-4.3-1.962c-1.226-0.993-2.288-2.218-3.202-3.671c-0.899-1.459-1.757-3.025-2.551-4.703l-18.236-37.721
			l-0.255,0.07l-0.107,48.057c0.014,3.578-0.602,6.319-1.842,8.26c-1.225,1.934-3.393,3.379-6.468,4.336
			c-3.103,0.949-5.703,0.985-7.821,0.07c-2.104-0.899-4.151-2.827-6.17-5.774l-27.197-39.62l-0.248,0.078l6.214,41.433
			c0.305,1.834,0.482,3.613,0.545,5.328c0.085,1.714-0.107,3.329-0.56,4.831c-0.446,1.509-1.268,2.861-2.452,4.059
			c-1.183,1.183-2.911,2.132-5.172,2.827c-1.488,0.461-2.926,0.588-4.265,0.362c-1.367-0.22-2.6-0.666-3.705-1.324
			c-1.134-0.666-2.069-1.495-2.834-2.486c-0.758-0.999-1.332-2.09-1.687-3.245c-0.226-0.758-0.474-1.948-0.757-3.549
			c-0.263-1.608-0.56-3.478-0.922-5.618c-0.326-2.132-0.651-4.442-0.949-6.908c-0.312-2.458-0.615-4.93-0.914-7.396L531.638,391.154
			z"/>
		<path fill="#359BCE" d="M661.539,389.712l-24.803-18.125c-2.28-1.774-4.194-3.231-5.745-4.399
			c-1.551-1.159-2.819-2.225-3.783-3.153c-0.971-0.935-1.764-1.814-2.331-2.639c-0.589-0.832-1.021-1.743-1.332-2.749
			c-0.822-2.67-0.453-5.161,1.133-7.477c1.559-2.317,3.847-3.943,6.858-4.878c1.339-0.407,2.579-0.56,3.762-0.474
			c1.169,0.102,2.288,0.375,3.351,0.832c1.027,0.446,2.012,0.974,2.869,1.573c0.871,0.599,1.679,1.191,2.408,1.788l21.657,16.78
			l8.423-26.067c0.255-0.899,0.581-1.853,0.964-2.834c0.383-0.995,0.878-1.965,1.495-2.94c0.617-0.959,1.36-1.806,2.231-2.54
			c0.871-0.73,2.019-1.308,3.436-1.743c3.012-0.935,5.816-0.883,8.416,0.141c2.6,1.019,4.314,2.872,5.151,5.544
			c0.297,1.003,0.453,2.016,0.453,3.018c-0.022,1.013-0.156,2.171-0.44,3.489c-0.262,1.326-0.73,2.905-1.353,4.74
			c-0.61,1.839-1.36,4.133-2.259,6.879l-10.258,28.969l9.826,31.816c1.12,3.591,0.992,6.574-0.389,8.966
			c-1.353,2.391-3.492,4.041-6.418,4.941c-2.926,0.899-5.631,0.751-8.111-0.45c-2.458-1.201-4.258-3.599-5.37-7.194L661.539,389.712
			z"/>
		<path fill="#359BCE" d="M622.39,475.706c0.417-1.948,0.843-3.79,1.289-5.518c0.453-1.743,1.049-3.287,1.8-4.662
			c0.758-1.36,1.728-2.515,2.911-3.436c1.198-0.922,2.72-1.524,4.576-1.779c1.927-0.276,3.578-0.128,5.023,0.417
			c1.438,0.553,2.699,1.381,3.804,2.486s2.111,2.43,3.018,3.967c0.922,1.545,1.842,3.195,2.785,4.953l19.993,36.973
			c0.68,1.219,1.225,2.282,1.636,3.167c0.403,0.885,0.737,1.678,0.992,2.359c0.255,0.695,0.446,1.297,0.588,1.81
			c0.135,0.518,0.24,1.048,0.326,1.607c0.263,1.849-0.19,3.429-1.367,4.74c-1.17,1.285-2.827,2.093-5.002,2.397
			c-1.232,0.17-2.28,0.135-3.181-0.114c-0.885-0.255-1.665-0.666-2.345-1.232c-0.673-0.557-1.297-1.258-1.806-2.101
			c-0.532-0.836-1.063-1.756-1.58-2.756l-2.699-5.672l-24.654,3.504l-0.999,6.185c-0.234,1.101-0.482,2.136-0.758,3.085
			c-0.284,0.956-0.659,1.806-1.155,2.529c-0.503,0.73-1.126,1.346-1.905,1.834c-0.792,0.489-1.785,0.815-3.018,0.999
			c-2.175,0.305-3.995,0-5.482-0.928c-1.495-0.928-2.366-2.316-2.629-4.172c-0.078-0.553-0.135-1.098-0.149-1.636
			c-0.007-0.524,0.014-1.162,0.071-1.895c0.049-0.722,0.141-1.58,0.297-2.551s0.368-2.132,0.695-3.492L622.39,475.706z
			 M635.801,476.925l-0.19,0.028l-4.633,25.337l15.756-2.235L635.801,476.925z"/>
		<path fill="#359BCE" d="M689.409,513.573c0.362,2.653-0.057,4.75-1.282,6.273c-1.24,1.537-2.94,2.444-5.101,2.756
			c-2.161,0.312-4.052-0.099-5.654-1.225c-1.616-1.134-2.614-3.018-2.989-5.672l-7.254-51.163c-0.376-2.657,0.063-4.747,1.289-6.277
			c1.232-1.538,2.933-2.452,5.08-2.756c2.168-0.312,4.06,0.106,5.682,1.218c1.594,1.141,2.586,3.025,2.968,5.682L689.409,513.573z"
			/>
		<path fill="#359BCE" d="M601.342,550.432c0.191-2.259,1.055-3.945,2.579-5.052c1.524-1.105,3.223-1.579,5.079-1.43l16.663,1.381
			c2.692,0.227,5.057,0.823,7.155,1.785c2.082,0.956,3.825,2.21,5.221,3.768c1.403,1.551,2.416,3.366,3.068,5.441
			c0.644,2.077,0.871,4.308,0.672,6.688c-0.127,1.573-0.489,2.976-1.091,4.216c-0.595,1.232-1.339,2.324-2.154,3.251
			c-0.843,0.928-1.714,1.701-2.614,2.331c-0.914,0.623-1.757,1.12-2.55,1.452c3.797,1.076,6.681,3.088,8.692,6.029
			c2.019,2.962,2.848,6.376,2.536,10.272c-0.205,2.451-0.8,4.775-1.8,6.97c-1.021,2.21-2.452,4.101-4.357,5.703
			c-1.884,1.602-4.237,2.806-7.056,3.591c-2.819,0.794-6.141,1.035-9.981,0.723l-17.541-1.467c-1.87-0.156-3.458-0.899-4.782-2.239
			c-1.339-1.339-1.899-3.138-1.701-5.42L601.342,550.432z M611.961,594.108l8.905,0.73c1.162,0.107,2.289,0.085,3.344-0.063
			c1.076-0.149,2.027-0.432,2.848-0.871c0.828-0.417,1.48-1.027,1.983-1.814c0.51-0.772,0.807-1.743,0.899-2.911
			c0.113-1.154-0.063-2.168-0.482-3.024c-0.432-0.857-1.027-1.566-1.806-2.118c-0.779-0.56-1.665-1.006-2.65-1.326
			c-1.013-0.312-2.032-0.516-3.067-0.602l-8.905-0.737L611.961,594.108z M614.065,568.809l6.454,0.532
			c2.04,0.162,3.663-0.191,4.888-1.091c1.219-0.899,1.892-2.303,2.061-4.222c0.156-1.92-0.29-3.422-1.353-4.505
			c-1.049-1.077-2.586-1.707-4.627-1.884l-6.462-0.531L614.065,568.809z"/>
		<path fill="#359BCE" d="M689.393,461.488c-0.341-2.423,0.142-4.378,1.48-5.894c1.324-1.501,2.968-2.408,4.959-2.692l18.072-2.558
			c3.344-0.482,6.44-0.412,9.302,0.19c2.841,0.602,5.362,1.665,7.53,3.189c2.161,1.523,3.968,3.457,5.37,5.81
			c1.402,2.359,2.324,5.079,2.756,8.175c0.701,4.875-0.107,9.167-2.381,12.851c-2.274,3.691-5.745,6.327-10.372,7.864l15.055,12.227
			c1.219,0.967,2.154,1.91,2.82,2.824c0.673,0.914,1.091,1.983,1.275,3.216c0.078,0.568,0.021,1.248-0.141,2.055
			c-0.164,0.811-0.489,1.633-0.978,2.447c-0.482,0.829-1.183,1.58-2.097,2.246c-0.914,0.659-2.089,1.098-3.507,1.29
			c-1.969,0.29-3.471,0.163-4.484-0.347c-1.027-0.524-2.09-1.297-3.166-2.345l-21.749-20.644l-0.191,0.028l2.699,18.992
			c0.383,2.657-0.049,4.753-1.282,6.28c-1.239,1.538-2.926,2.452-5.086,2.756c-2.168,0.312-4.067-0.106-5.654-1.232
			c-1.623-1.12-2.614-3.014-2.989-5.664L689.393,461.488z M707.367,480.297l9.932-1.41c2.458-0.347,4.278-1.318,5.391-2.939
			c1.133-1.608,1.537-3.458,1.24-5.562c-0.312-2.217-1.311-3.861-2.955-4.924c-1.672-1.048-3.585-1.43-5.752-1.126l-9.911,1.409
			L707.367,480.297z"/>
		<path fill="#359BCE" d="M653.094,554.725c0.191-2.267,1.048-3.953,2.572-5.065c1.53-1.105,3.223-1.573,5.08-1.425l17.031,1.41
			c3.131,0.263,5.951,0.964,8.431,2.111c2.486,1.141,4.562,2.629,6.22,4.464c1.665,1.842,2.89,3.974,3.691,6.412
			c0.794,2.444,1.063,5.107,0.828,8.027c-0.389,4.584-1.998,8.338-4.846,11.235c-2.848,2.898-6.54,4.576-11.087,5.009l11.214,14.289
			c0.9,1.126,1.545,2.175,1.977,3.153c0.417,0.97,0.566,2.032,0.467,3.21c-0.036,0.51-0.227,1.126-0.545,1.834
			c-0.326,0.708-0.78,1.389-1.382,2.04c-0.615,0.644-1.417,1.183-2.387,1.595c-0.964,0.425-2.118,0.58-3.457,0.467
			c-1.864-0.156-3.216-0.574-4.031-1.253c-0.823-0.68-1.622-1.608-2.395-2.791l-15.571-23.351l-0.162-0.007l-1.488,17.888
			c-0.205,2.501-1.035,4.322-2.465,5.469c-1.459,1.133-3.189,1.622-5.229,1.452c-2.027-0.17-3.663-0.935-4.903-2.303
			c-1.232-1.353-1.743-3.294-1.53-5.795L653.094,554.725z M665.612,575.61l9.33,0.78c2.324,0.19,4.18-0.326,5.547-1.566
			c1.339-1.232,2.103-2.841,2.274-4.81c0.17-2.097-0.39-3.797-1.679-5.107c-1.31-1.303-2.968-2.055-5.016-2.217l-9.33-0.772
			L665.612,575.61z"/>
		<path fill="#359BCE" d="M713.346,608.121c-0.206,2.507-1.021,4.328-2.466,5.462c-1.445,1.141-3.187,1.629-5.214,1.459
			c-2.041-0.164-3.676-0.928-4.916-2.289c-1.24-1.361-1.743-3.301-1.545-5.802l3.995-48.174c0.206-2.493,1.021-4.314,2.48-5.455
			c1.431-1.147,3.174-1.623,5.214-1.459c2.027,0.17,3.676,0.935,4.903,2.295c1.232,1.36,1.75,3.294,1.545,5.795L713.346,608.121z"/>
		<path fill="#359BCE" d="M724.136,560.606c0.185-2.274,1.035-3.953,2.572-5.058c1.522-1.112,3.231-1.58,5.087-1.431l16.938,1.403
			c4.583,0.383,8.614,1.573,12.086,3.556c3.471,1.977,6.327,4.505,8.559,7.559c2.231,3.061,3.84,6.468,4.818,10.23
			c0.97,3.783,1.297,7.665,0.97,11.681c-0.44,5.066-1.58,9.5-3.486,13.297c-1.891,3.791-4.293,6.915-7.191,9.367
			c-2.891,2.465-6.142,4.229-9.742,5.305c-3.606,1.084-7.325,1.452-11.18,1.141l-16.911-1.402c-1.884-0.149-3.464-0.9-4.781-2.239
			c-1.326-1.339-1.913-3.145-1.701-5.42L724.136,560.606z M734.798,603.749l7.502,0.624c2.741,0.219,5.164-0.028,7.275-0.766
			c2.105-0.73,3.896-1.856,5.377-3.372c1.475-1.524,2.614-3.38,3.437-5.561c0.828-2.189,1.36-4.641,1.573-7.374
			c0.438-5.243-0.51-9.586-2.869-13.036c-2.345-3.436-6.086-5.37-11.194-5.802l-8.119-0.666L734.798,603.749z"/>
		<path fill="#359BCE" d="M830.855,586.889c5.031,0.417,7.304,3.514,6.822,9.288c-0.355,4.194-1.353,8.033-2.983,11.512
			c-1.643,3.486-3.804,6.454-6.468,8.934c-2.663,2.479-5.81,4.335-9.437,5.561c-3.64,1.225-7.601,1.664-11.915,1.31
			c-4.903-0.403-9.182-1.629-12.83-3.663c-3.656-2.04-6.66-4.627-9.047-7.793c-2.381-3.166-4.073-6.772-5.093-10.826
			c-1.019-4.046-1.347-8.31-0.964-12.809c0.375-4.726,1.522-9.004,3.4-12.851c1.863-3.825,4.279-7.077,7.233-9.742
			c2.962-2.657,6.376-4.654,10.265-5.979c3.911-1.324,8.041-1.8,12.413-1.438c2.911,0.234,5.802,0.794,8.635,1.637
			c2.826,0.857,5.349,1.941,7.531,3.272c2.175,1.332,3.903,2.911,5.2,4.74c1.268,1.842,1.834,3.84,1.665,5.993
			c-0.156,1.75-0.842,3.138-2.077,4.151c-1.225,1.013-2.834,1.445-4.825,1.282c-1.275-0.114-2.402-0.545-3.393-1.311
			c-0.999-0.751-2.076-1.594-3.244-2.507c-1.147-0.922-2.507-1.778-4.046-2.586c-1.551-0.792-3.528-1.297-5.929-1.495
			c-2.431-0.205-4.69,0.12-6.767,0.978c-2.068,0.857-3.867,2.104-5.419,3.726c-1.537,1.644-2.777,3.614-3.706,5.916
			c-0.928,2.302-1.495,4.789-1.714,7.473c-0.206,2.402-0.099,4.782,0.341,7.162c0.411,2.387,1.183,4.549,2.331,6.49
			c1.12,1.948,2.629,3.556,4.52,4.825c1.892,1.275,4.194,2.019,6.943,2.254c3.734,0.312,6.894-0.532,9.464-2.515
			c2.579-1.998,4.187-4.81,4.839-8.458l-8.126-0.673c-2.224-0.185-3.911-0.922-5.072-2.231c-1.155-1.297-1.65-2.933-1.467-4.917
			c0.156-2.04,0.907-3.591,2.274-4.654c1.339-1.063,3.132-1.501,5.335-1.324L830.855,586.889z"/>
		<path fill="#359BCE" d="M845.669,569.702c0.199-2.274,1.055-3.96,2.579-5.058c1.545-1.105,3.245-1.587,5.107-1.431l21.692,1.793
			c2.225,0.177,3.896,0.922,5.066,2.225c1.147,1.297,1.651,2.939,1.474,4.924c-0.164,2.04-0.928,3.599-2.274,4.654
			c-1.353,1.063-3.145,1.495-5.356,1.318l-14.607-1.204l-0.928,11.279l13.39,1.112c2.21,0.177,3.896,0.914,5.052,2.182
			c1.162,1.268,1.657,2.926,1.488,4.973c-0.17,2.033-0.928,3.591-2.274,4.648c-1.353,1.07-3.138,1.501-5.37,1.324l-13.375-1.112
			l-0.964,11.639l15.133,1.246c2.231,0.185,3.903,0.907,5.057,2.189c1.162,1.268,1.652,2.918,1.488,4.959
			c-0.164,1.991-0.928,3.52-2.274,4.612c-1.36,1.098-3.145,1.559-5.349,1.368l-22.23-1.842c-1.87-0.149-3.458-0.899-4.797-2.246
			c-1.332-1.339-1.884-3.145-1.714-5.42L845.669,569.702z"/>
	</g>
</g>
</svg>
