<?xml version="1.0" encoding="utf-8"?>
<!-- Generator: Adobe Illustrator 27.4.1, SVG Export Plug-In . SVG Version: 6.00 Build 0)  -->
<svg version="1.2" baseProfile="tiny-ps" id="Layer_1" xmlns="http://www.w3.org/2000/svg" xmlns:xlink="http://www.w3.org/1999/xlink"
	  viewBox="0 0 72 72"  xml:space="preserve"> <title>MDA Logo</title>
<rect fill="#FFFFFF" width="72" height="72"/>
<rect x="3" y="35.9" width="14.6" height="0.7"/>
<path fill="#ED1C2E" d="M24.3,40.5l-0.5,0c-0.8,1.7-2,3.2-3.8,3.2c-2.6,0-4.7-5.1-5.3-7.1c-0.1-0.3-2.2-7.6-6.1-7.5
	c-3.5,0.1-5,4.6-5.6,6.7h0.8c0.5-2,1.9-6.1,4.8-6.1c2.8-0.1,4.8,5.1,5.4,7c0.1,0.3,2.3,7.6,6,7.5c2.3,0,3.7-1.9,4.6-3.8L24.3,40.5z"
	/>
<polygon points="27.1,31.6 24.1,35.4 21.2,31.6 17.2,31.6 17.2,40.6 20.6,40.6 20.6,38.4 23.1,40.6 24.1,40.6 25.2,40.6 27.7,38.4 
	27.7,40.6 31.1,40.6 31.1,31.6 "/>
<path fill="#27202A" d="M42.6,31.6H32.5v4.5v4.5h10.2c0,0,3.8-0.1,3.8-4.5C46.4,31.7,42.6,31.6,42.6,31.6 M40.5,37.7h-4.2v-1.6v-1.6
	h4.2c0,0,1.4,0,1.4,1.6C41.9,37.7,40.5,37.7,40.5,37.7"/>
<path d="M64.6,31.6h-5.2l-4.3,9h3.8l0.9-1.6h4.4l0.9,1.6H69L64.6,31.6z M60.4,36.9l1.6-3.3l1.6,3.3H60.4z"/>
<path d="M53.8,38.3h1.6l-0.8,1.6H52l-0.4-0.5C51,39.8,50.2,40,49.3,40c-0.8,0-1.5-0.2-1.9-0.6c-0.4-0.4-0.6-0.9-0.6-1.5
	c0-0.5,0.2-1,0.6-1.4c0.4-0.4,0.9-0.7,1.5-0.9c-0.2-0.4-0.3-0.7-0.3-1.1c0-0.5,0.2-0.9,0.6-1.2c0.4-0.3,1-0.5,1.8-0.5
	c0.3,0,0.7,0,1.1,0v1.4c0,0-0.1,0-0.1,0c-0.4,0-0.6,0.2-0.6,0.5c0,0.1,0.1,0.4,0.4,0.7l0.7,0.9c0.3-0.4,0.6-0.9,0.8-1.5h2.2
	l-0.8,1.8h-0.4c-0.2,0.3-0.4,0.7-0.7,1L53.8,38.3z M50.8,38.4l-1.2-1.5c-0.4,0.2-0.6,0.5-0.6,0.9c0,0.3,0.1,0.5,0.3,0.7
	c0.2,0.2,0.4,0.3,0.7,0.3C50.2,38.7,50.5,38.6,50.8,38.4"/>
</svg>
