<?xml version="1.0" encoding="utf-8"?>
<svg version="1.2" baseProfile="tiny-ps" id="Layer_1" xmlns="http://www.w3.org/2000/svg" xmlns:xlink="http://www.w3.org/1999/xlink"
	viewBox="0 0 80 80" xml:space="preserve">
<title>Workday</title>
<circle fill="#005CB9" cx="40" cy="40" r="40"/>
<path fill="#F38B00" d="M21.2,28.4c0.1-0.2,0.1-0.4,0.2-0.6c2.6-8.3,10.1-13.9,18.7-13.9s16.1,5.6,18.7,13.8
	c0.1,0.2,0.1,0.4,0.2,0.6c0.4,1.3-0.4,2.7-1.7,3.1s-2.7-0.4-3.1-1.7c-0.1-0.1-0.1-0.3-0.1-0.4C52,23.1,46.4,19,40,19
	s-12,4.2-13.9,10.3C26,29.5,26,29.6,26,29.7c-0.3,1.1-1.3,1.8-2.4,1.8c-0.2,0-0.4,0-0.7-0.1C21.6,31.1,20.8,29.7,21.2,28.4"/>
<path fill="#FFFFFF" d="M58.9,39.7l-6.3,23.8c-0.1,0.4-0.5,0.8-1,0.8h-5.2c0,0-0.9-0.1-1-0.6c-0.9-3.3-5.5-20-5.5-20
	s-4.4,16.7-5.2,20c-0.1,0.4-1,0.8-1,0.8h-5.2c-0.5,0-0.9-0.3-1-0.8l-6.3-23.8c-0.2-0.6,0.3-1.3,1-1.3h3.4c0.5,0,0.9,0.3,1,0.8
	c0,0,4.5,18.9,4.7,19l5.1-19c0.1-0.4,0.6-0.8,1-0.8h5.3c0.5,0,0.9,0.3,1.1,0.8c0,0,5,18.9,5.1,18.9l4.6-18.9c0.1-0.5,0.5-0.8,1-0.8
	h3.4c0.7,0,1.2,0.6,1,1.3"/>
</svg>
