<?xml version="1.0" encoding="UTF-8"?>
<svg id="Layer_1" xmlns="http://www.w3.org/2000/svg" baseProfile="tiny-ps" version="1.2" viewBox="0 0 1000 1000">
<title>Madison Reed</title>
  <rect width="1000" height="1000" fill="#3a2d4a" stroke-width="0"/>
  <g>
    <path d="M707.6,376.5c-26.6.1-46.7,20.9-46.7,48.3s20.1,48,46.7,47.8c26.5-.2,46.5-21,46.5-48.3s-20-47.9-46.5-47.8Z" fill="none" stroke-width="0"/>
    <path d="M418,383.2h-17.5v91h17.5c34.3-.4,54-16.6,54-45.8s-19.7-45.3-54-45.2Z" fill="none" stroke-width="0"/>
    <polygon points="312.2 386.6 288.1 443.7 335.9 443.4 312.2 386.6" fill="none" stroke-width="0"/>
    <path d="M587.2,475c-14,.1-25.3-6-31.9-17.3l-.4-.6-11.5,5.6.4.7c8.7,15,24.2,23.2,43.5,23,24.4-.2,39.5-12,39.5-30.9s-11.3-26.3-30.8-34.7l-10.1-4.3c-14.9-6.4-21.5-10.2-21.5-20.6s8.1-16.5,19.7-16.5c1.7,0,3.3,0,4.9.2,8.3,1,14.4,4.8,19.1,11.9l.4.6,10.5-6.2-.5-.7c-7.9-11.6-18.9-17-34.6-17-19.3,0-32.8,11.6-32.8,28.1s10.7,23.7,29.2,31.6l10.1,4.3c15.2,6.4,22.9,11.8,22.9,23.7s-10,18.9-26.2,19Z" fill="#fff" stroke-width="0"/>
    <path d="M486.2,428.3c0-34.9-26.3-57.4-67-57.2h-32.3v115.5l32.3-.3c40.8-.3,67-23.1,67-58ZM418,474.1h-17.5c0,.1,0-90.8,0-90.8h17.5c34.3-.2,54,15.8,54,45.1s-19.7,45.4-54,45.7Z" fill="#fff" stroke-width="0"/>
    <polygon points="509.6 370.6 509.6 485.6 523.3 485.5 523.3 370.5 509.6 370.6" fill="#fff" stroke-width="0"/>
    <path d="M707.6,363.7c-34.2.1-61.1,27-61.1,61.3s26.9,60.8,61.1,60.6c34.1-.3,60.8-27.2,60.8-61.3s-26.7-60.7-60.8-60.6ZM707.6,472.6c-26.6.2-46.7-20.3-46.7-47.8s20.1-48.2,46.7-48.3c26.5-.1,46.5,20.4,46.5,47.8s-20,48.1-46.5,48.3Z" fill="#fff" stroke-width="0"/>
    <polygon points="127.3 391.1 174.6 450.1 176.2 450.1 224 390.7 224 487.8 237.2 487.7 237.2 371.6 223.9 371.7 175.8 431 127.5 372.4 127.2 372.1 114 372.1 114 488.7 127.3 488.6 127.3 391.1" fill="#fff" stroke-width="0"/>
    <polygon points="873.6 456.7 801.2 369.7 800.9 369.4 790.1 369.4 790.1 483.4 802.7 483.3 802.7 390.9 878.9 482.4 879.2 482.7 886 482.6 886 369.1 873.6 369.1 873.6 456.7" fill="#fff" stroke-width="0"/>
    <path d="M341,455.7l11.9,31.1h14.2c0-.1-48-115-48-115l-.2-.5h-13.7c0,0-47.7,115.1-47.7,115.1l-.5,1.1h13.9c0-.1,12.2-31.5,12.2-31.5l57.8-.4ZM312.2,386.6l23.7,56.9-47.8.3,24.1-57.2Z" fill="#fff" stroke-width="0"/>
  </g>
  <polygon points="322.6 580.9 364.7 580.7 364.7 573.9 322.6 574.2 322.6 528.7 386.3 528.4 386.3 521.5 314.6 521.8 314.6 634.7 388.8 634.1 388.8 627.2 322.6 627.7 322.6 580.9 322.6 580.9" fill="#fff" stroke-width="0"/>
  <path d="M442,626.7l-20.5.2v-98.7h20.5c33.4-.2,54.9,19.6,54.9,48.5s-22.1,49.7-54.9,50h0ZM443,521.2h-29.6v112.6l29.6-.2c37.9-.3,62.4-23.2,62.4-56.9s-23.9-55.7-62.4-55.5h0Z" fill="#fff" stroke-width="0"/>
  <path d="M535.1,554.3c-8.8,0-16-7.3-16-16.3s7.2-16.4,16-16.4c8.8,0,16,7.3,16,16.3s-7.2,16.4-16,16.4h0ZM535.1,519.8c-9.7,0-17.7,8.2-17.7,18.2s7.9,18,17.7,18c9.7,0,17.6-8.2,17.6-18.2s-7.9-18-17.6-18h0Z" fill="#fff" stroke-width="0"/>
  <path d="M536.5,536.9h-5.1s0-6.5,0-6.5h5.1c3.2,0,3.7,2,3.7,3.2s-.3,3.3-3.7,3.3h0ZM544,533.6c0-3.2-1.9-6.6-7.4-6.6h-8.8v21.4h3.7v-8.1h5.1s3.7,8,3.7,8h4.1s-4.3-8.7-4.3-8.7c2.4-1.1,3.8-3.3,3.8-6h0Z" fill="#fff" stroke-width="0"/>
  <polygon points="223.5 581.5 265.9 581.3 265.9 574.5 223.5 574.7 223.5 529.1 287.7 528.8 287.7 521.9 215.4 522.2 215.4 635.4 290.1 634.9 290.1 627.9 223.5 628.4 223.5 581.5 223.5 581.5" fill="#fff" stroke-width="0"/>
  <path d="M139.5,592.4h-17.4c0,.1,0-63.2,0-63.2h17.4c27-.2,42.5,12.1,42.5,31.8s-15.5,31.3-42.5,31.4h0ZM162.3,596.2c18.4-6,27.8-17.9,27.8-35.3,0-24.8-17.2-38.6-49.9-38.5h-26.3v113.9h8.2v-37h18.1c3.9-.1,14.2-1.2,14.2-1.2l30.5,37.6h8.7c0,0-32-39.2-32-39.2l.7-.2h0Z" fill="#fff" stroke-width="0"/>
</svg>