<?xml version="1.0" encoding="UTF-8"?>
<svg width="30px" height="30px" viewBox="0 0 30 30" version="1.2" baseProfile="tiny-ps" xmlns="http://www.w3.org/2000/svg" xmlns:xlink="http://www.w3.org/1999/xlink">
    <title>Bet365 Icon</title>
    <desc>bet365 website icon</desc>
    <g id="Bet365-Icon" stroke="none" stroke-width="1" fill="none" fill-rule="evenodd">
        <rect fill="#126E51" x="0" y="0" width="30" height="30"></rect>
        <g id="Logo-bet365-Stacked" transform="translate(6.6667, 7.5)">
            <path d="M15.3453115,2.18268187 L16.4319628,2.18268187 L16.4319628,3.65405566 L15.3453115,3.65405566 L15.3453115,4.85584473 C15.3453115,5.47136655 15.441154,5.75990105 15.9076885,5.75990105 C16.0317808,5.75990105 16.2027263,5.74060548 16.4029551,5.69219365 L16.4029551,7.1345895 C15.8983179,7.28867744 15.3934739,7.34621835 14.8597601,7.34621835 C14.2021608,7.34621835 13.6969034,7.1345895 13.4017279,6.76887272 C13.0204939,6.2880741 13.0109165,5.68271876 13.0109165,4.87520946 L13.0109165,3.6539865 L12.1816826,3.6539865 L12.1816826,2.18268187 L13.0108476,2.18268187 L13.0108476,1.06741166 L15.3453115,0.326710683 L15.3453115,2.18268187 Z" id="Path" fill="#FFFFFF"></path>
            <path d="M0.0136140594,0 L2.35772425,0 L2.35772425,2.7787698 C2.69134706,2.32674164 3.14878651,2.11525111 3.76807644,2.11525111 C5.13081743,2.11525111 5.90251827,3.0573453 5.90251827,4.73066557 C5.90251827,6.32714936 5.12117117,7.27927171 3.82526498,7.27927171 C3.03434052,7.27927171 2.50048891,6.99059889 2.19580488,6.37549203 L2.19580488,7.21177179 L0.0136140594,7.21177179 L0.0136140594,0 Z M2.29095835,4.68246122 C2.29095835,5.41368731 2.45301553,5.76937593 2.87228335,5.76937593 C3.28211161,5.76937593 3.4630479,5.41368731 3.4630479,4.68246122 C3.4630479,3.95199589 3.29155117,3.59630727 2.87228335,3.59630727 C2.45301553,3.59630727 2.29095835,3.95192673 2.29095835,4.68246122 Z" id="Shape" fill="#FFFFFF" fill-rule="nonzero"></path>
            <path d="M11.8958777,5.23082892 L8.64667267,5.23082892 C8.70379231,5.77878166 9.12326683,6.03847654 9.91412239,6.03847654 C10.4665086,6.03847654 11.0384629,5.93273128 11.5906425,5.72103327 L11.5906425,7.00007378 C11.0479025,7.22090088 10.304727,7.34628751 9.43752822,7.34628751 C7.43668709,7.34628751 6.35981992,6.38469028 6.35981992,4.69248939 C6.35981992,3.03846468 7.41746347,2.04830447 9.18045538,2.04830447 C11.1339609,2.04830447 11.8959466,2.96162819 11.8959466,4.90404908 L11.8959466,5.23082892 L11.8958777,5.23082892 Z M9.85679604,4.25913436 L9.85679604,4.10587634 C9.85679604,3.53814391 9.64698988,3.21136407 9.24694567,3.21136407 C8.83704851,3.21136407 8.62786246,3.53814391 8.62786246,4.11528207 L8.62786246,4.2590652 L9.85679604,4.2590652 L9.85679604,4.25913436 Z" id="Shape" fill="#FFFFFF" fill-rule="nonzero"></path>
            <path d="M16.3999599,8.38447494 L16.3999599,9.9268795 L14.0150953,9.9268795 L14.0150953,10.9026988 C14.2085295,10.8932456 14.3375747,10.8838595 14.3829944,10.8838595 C15.8658785,10.8838595 16.6666667,11.6366919 16.6666667,12.9094472 C16.6666667,14.2198139 15.6908125,15 13.7845239,15 C13.1217981,15 12.4674882,14.8986301 11.8049628,14.7312223 L11.8049628,13.2627668 C12.3111913,13.4024856 12.7533647,13.4674509 13.1308152,13.4674509 C13.9043516,13.4674509 14.3094546,13.2068525 14.3094546,12.7236694 C14.3094546,12.1849072 13.8859834,11.915325 13.0202718,11.915325 C12.6515045,11.915325 12.2930902,11.9802232 11.9155061,12.0733467 L11.9155061,8.38447494 L16.3999599,8.38447494 Z" id="Path" fill="#FFDF1B"></path>
            <path d="M8.94987142,10.6330495 C10.3222122,10.6330495 11.2338777,11.4785361 11.2338777,12.7236024 C11.2338777,14.0617251 10.193501,14.9908821 8.55411949,14.9908821 C6.62044551,14.9908821 5.37708312,13.7737059 5.37708312,11.7763436 C5.37708312,9.49920851 6.694386,8.21746939 9.06969909,8.21746939 C9.57639515,8.21746939 10.1200281,8.27298147 10.6812277,8.39352583 L10.6812277,9.87130037 C10.1656481,9.71361388 9.66850349,9.63886029 9.1434392,9.63886029 C8.09371138,9.63886029 7.60558394,10.066129 7.57806499,11.0329644 C7.96513375,10.7350898 8.38887219,10.6330495 8.94987142,10.6330495 Z M9.14337241,12.6778116 C9.14337241,12.1386471 8.8399292,11.7942443 8.39788932,11.7942443 C7.95578265,11.7942443 7.66095582,12.1287917 7.66095582,12.6778116 C7.66095582,13.2161715 7.95578265,13.550719 8.39788932,13.550719 C8.84901312,13.5506519 9.14337241,13.2161715 9.14337241,12.6778116 Z" id="Shape" fill="#FFDF1B"></path>
            <path d="M1.68486792,13.5417351 C2.30197375,13.5417351 2.62445313,13.3370511 2.62445313,12.9093801 C2.62445313,12.4911623 2.29228868,12.2591244 1.64779748,12.2591244 C1.40887687,12.2591244 1.12306716,12.2778966 0.810005677,12.3244919 L0.810005677,10.9120849 C1.06769529,10.939908 1.30721705,10.9488918 1.54687239,10.9488918 C2.20979862,10.9488918 2.54096116,10.7540632 2.54096116,10.3083575 C2.54096116,9.87130037 2.23791871,9.66668337 1.6112614,9.66668337 C1.20575761,9.66668337 0.690111211,9.77817684 0.0548375246,9.97340774 L0.0548375246,8.50542156 C0.616437899,8.3097884 1.29819991,8.21746939 2.09918846,8.21746939 C3.83969542,8.21746939 4.84326888,8.96983242 4.84326888,10.1503357 C4.84326888,10.8749427 4.37377684,11.4042518 3.5540193,11.5811798 C4.46555121,11.7666223 4.93544401,12.2780307 4.93544401,13.0581498 C4.93544401,14.2851814 3.91330194,15 1.96132652,15 C1.30721705,15 0.662926226,14.907681 0,14.7496593 L0,13.2350108 C0.653575126,13.4301076 1.20575761,13.5417351 1.68486792,13.5417351 Z" id="Path" fill="#FFDF1B"></path>
        </g>
    </g>
</svg>