<?xml version="1.0"?><svg version="1.2" baseProfile="tiny-ps" viewBox="0 0 300 300" xmlns="http://www.w3.org/2000/svg" xmlns:xlink="http://www.w3.org/1999/xlink"><title>Logo-Final2</title><g><g fill="#fff" transform="matrix(.1 0 0 -.1 0 300)"><path d="M0 1500V0h3000v3000H0V1500z"/></g><g fill="#e0e0e0" transform="matrix(.1 0 0 -.1 0 300)"><path d="M60 1630v-390h170l-2 388-3 387-82 3-83 3v-391zm412 363c-16-24-136-246-182-337l-14-29 73-141c41-78 87-165 103-193l29-53h234l30 58 30 57 113 3 112 3v8c0 5-15 35-33 67l-33 59-42 3-42 3 35 69c19 38 38 71 43 74l8 5 106-202 107-202 96-3 97-3-78 148c-42 81-96 184-119 228s-79 151-124 238c-45 86-85 157-89 157s-67-116-141-257c-74-142-147-282-164-311l-30-54-63 119-63 118 100 191 99 191-7 6c-3 4-44 7-89 7h-83l-19-27zm613 18-6-10 89-168c49-92 134-256 190-363 55-107 107-204 115-214l14-19 50 94c61 113 127 241 257 492l98 187-15 5c-7 3-49 5-93 3l-79-3-55-105c-31-58-80-151-109-208-30-56-56-100-59-97s-54 96-112 208l-107 202-86 3-85 3-7-10zm1282 3-7-7v-602l-158 302-157 303-9-3c-9-3-93-159-287-534l-120-233h190l107 206 106 206 8-9c4-4 24-38 44-75l37-68h-79l-10-12c-17-21-62-106-62-117v-10l113-3 112-3 30-57 30-58h285l-2 388-3 387-80 3-81 3-7-7zm427-2c-6-4-57-92-112-197l-101-190 65-120c36-66 81-153 102-192l36-73h197l-54 103c-30 56-75 143-101 194l-48 92 45 83c111 206 155 296 150 302-9 9-166 7-179-2z"/></g><g fill="#b0b0b0" transform="matrix(.1 0 0 -.1 0 300)"><path d="M60 1625v-385h170v770H60v-385zm321 195c-56-104-101-192-101-195s46-90 101-195l102-191 114 3 115 3 30 58 30 57h114c63 0 114 3 114 6s-15 32-32 65l-33 59h-85v10c0 6 19 45 41 86l42 76 49-94c27-51 77-146 110-210l60-118h89c49 0 89 3 89 6 0 7-306 598-366 707l-31 58-20-33c-11-18-62-114-113-213s-105-202-120-230c-15-27-40-74-55-104l-27-54-65 124-65 124 21 40c11 22 54 105 96 184 41 79 75 148 75 152v9H482l-101-190zm770 53c39-76 93-178 119-228 26-49 84-161 130-248l82-158 12 18c7 10 59 108 116 218s141 271 186 358c46 87 84 162 84 167v10h-175l-77-147c-43-82-92-176-111-211l-34-63-109 210-109 211h-186l72-137zm784-50c-54-104-127-244-163-313-35-69-80-153-98-187-19-34-34-66-34-72v-11h175l82 158c45 86 95 181 112 211l29 54 41-81c23-45 41-84 41-87s-20-5-45-5h-45l-30-60c-16-33-30-62-30-65s51-5 113-5h112l33-60 33-61 137 3 137 3v760l-82 3-83 3v-626l-23 40c-13 22-67 126-121 230-114 219-186 355-190 355-2 0-47-84-101-187zm848 175c-23-38-193-364-193-372 0-9 100-202 167-323l35-63h89c49 0 89 3 89 6s-43 88-96 190c-52 101-94 189-92 196s45 92 96 190c50 97 92 179 92 182s-40 6-89 6h-90l-8-12z"/></g><g fill="#696969" transform="matrix(.1 0 0 -.1 0 300)"><path d="M60 1625v-385h170v770H60v-385zm326 198c-55-102-99-191-99-197s44-95 99-198l99-188h225l30 60 30 60h230l-32 65-32 65h-96l42 85c23 47 45 85 49 85 6 0 21-26 134-245 43-82 82-156 88-162l9-13h84c46 0 84 2 84 5s-40 81-88 173c-49 92-137 260-196 375-59 114-110 207-114 207-7 0-314-583-320-607-7-27-20-9-82 110l-64 123 97 187c53 102 97 189 97 192s-39 5-87 5h-88l-99-187zm704 181c0-9 166-330 337-652l55-104 8 9c9 10 390 740 390 747 0 3-39 6-87 6h-88l-105-206c-58-113-108-207-112-210-6-4-31 39-171 306l-55 105-86 3-86 3v-7zm1278-309-3-314-100 192c-55 106-127 245-160 309-33 65-63 118-67 118-3 0-64-109-133-242-70-134-158-302-196-374s-69-134-69-138v-7l87 3 88 3 109 209 109 209 14-19c8-10 30-49 49-86l34-68h-96l-32-65-32-65h230l30-60 30-60h270v770h-160l-2-315zm345 168c-43-82-88-168-101-193l-23-45 101-192 102-193h89c49 0 89 1 89 3 0 1-44 88-99 192l-99 190 100 193 100 192h-181l-78-147z"/></g><g fill="#353535" transform="matrix(.1 0 0 -.1 0 300)"><path d="M65 1997c-3-6-4-179-3-382l3-370 78-3 77-3v771H69l-4-13zm407-19c-10-18-45-82-77-143-32-60-70-132-84-158l-26-49 63-121c35-67 81-155 103-195l40-73 107 3 107 3 30 57 30 58h225v8c0 5-14 34-31 65l-31 57h-44c-24 0-44 2-44 5 0 9 67 139 82 158l13 18 79-153c43-84 94-181 113-215l35-63h147l6 10 6 10-98 188c-54 103-141 269-193 369l-95 182-7-7c-6-7-24-40-208-392-62-118-115-218-119-222l-6-7-63 122c-34 67-63 128-62 135 0 8 40 89 88 180 48 92 91 175 95 185l6 17H492l-20-32zm618 26c0-3 20-42 43-87 24-45 113-214 197-375s154-291 155-290c5 6 298 565 346 659l50 100-87-3-86-3-109-209c-60-115-111-211-113-213-2-3-54 93-116 211l-111 216h-85c-46 0-84-3-84-6zm1278-311-3-318-59 115c-32 63-69 133-81 155s-57 108-100 190c-43 83-80 154-82 158l-5 9-22-39c-52-91-358-684-363-703l-6-21 83 3 82 3 108 208c60 115 111 211 113 213 4 4 97-159 97-170 0-3-21-6-46-8l-46-3-29-50c-15-27-28-56-29-62v-13h218l34-57 34-58h259l3 383 2 382h-160l-2-317zm399 264c-15-28-61-115-102-193l-74-140 38-70c20-38 64-118 96-179 32-60 62-116 68-122l9-13h158v11c0 6-43 93-96 193l-95 181 25 50c14 28 59 114 101 193l75 142h-175l-28-53z"/></g><g fill="#020202" transform="matrix(.1 0 0 -.1 0 300)"><path d="M70 1625v-375h150v750H70v-375zm316 188-98-186 56-106c31-58 76-143 99-188l41-83h221l33 60 33 60h220l-28 53-28 52-40 3c-22 1-46 5-53 7l-13 5 48 90c26 49 51 90 55 90s55-94 115-210l108-210h83c45 0 82 2 82 4s-81 159-180 348c-99 188-185 353-192 365-6 12-14 20-19 18-4-3-79-142-166-310-87-167-160-305-163-305-6 0-32 46-96 171l-45 87 96 180c52 99 95 183 95 186s-37 6-82 6h-83l-99-187zm714 181c0-6 94-188 200-389 20-38 70-132 109-207 40-76 74-138 76-138 3 0 385 727 385 735 0 3-36 5-80 5h-79l-15-27c-9-16-58-109-109-208-52-99-98-180-103-180-4 0-56 92-115 205l-107 205-81 3-81 3v-7zm1280-303v-310l-8-5-7-4-137 261c-183 349-185 352-193 350-8-1-33-49-205-378-45-88-105-201-131-252-27-50-49-94-49-97s37-6 83-6h83l11 28c24 58 201 386 209 389l9 3 43-86 42-85-5-10-6-9h-85l-27-55-27-55h220l30-60 30-60h270v750h-150v-309zm318 132c-51-98-94-185-96-193l-3-16 49-89c27-50 70-132 97-182l48-93h169l-4 8c-1 4-45 88-97 187l-95 180 98 187 97 188h-169l-94-177z"/></g></g></svg>