<?xml version="1.0" encoding="utf-8"?>
<!-- Generator: Adobe Illustrator 27.3.1, SVG Export Plug-In . SVG Version: 6.00 Build 0)  -->
<svg version="1.2" baseProfile="tiny-ps" id="Calque_1"
	 xmlns="http://www.w3.org/2000/svg" xmlns:xlink="http://www.w3.org/1999/xlink"  viewBox="0 0 186 186"
	  xml:space="preserve"> <title>Meilleurtaux</title>
<g>
	<g>
		<rect y="0" fill="#FFFFFF" width="186" height="186"/>
		<path fill="#FF9500" d="M112.6,56.6c0,10.5-8.5,19-19,19c-10.5,0-19-8.5-19-19c0-10.5,8.5-19,19-19
			C104.1,37.7,112.6,46.2,112.6,56.6z"/>
		<path d="M46.2,85.8h20V95c2.9-3.8,5.8-6.5,8.7-8.1c2.9-1.6,6.5-2.4,10.6-2.4c4.5,0,8,0.9,10.6,2.6c2.6,1.8,4.7,4.4,6.4,7.9
			c3.4-4.1,6.5-6.9,9.2-8.4c2.8-1.4,6.2-2.2,10.3-2.2c6,0,10.7,2,14.1,6c3.4,4,5.1,10.2,5.1,18.7v39.3h-21.4v-35.6
			c0-2.8-0.5-4.9-1.5-6.3c-1.4-2.2-3.3-3.2-5.4-3.2c-2.6,0-4.6,1-6.2,3c-1.6,2-2.3,5.3-2.3,9.8v32.2H82.8V114c0-2.8-0.1-4.6-0.4-5.6
			c-0.4-1.6-1.2-2.8-2.4-3.8c-1.1-1-2.4-1.4-4-1.4c-2.4,0-4.5,1-6.1,3.1c-1.6,2.1-2.4,5.5-2.4,10.2v31.9H46.2V85.8z"/>
	</g>
</g>
</svg>
