<?xml version="1.0" encoding="UTF-8" standalone="yes"?>
<svg version="1.2" baseProfile="tiny-ps" viewBox="0 0 192 192" xmlns="http://www.w3.org/2000/svg">
  <title>yaencontre</title>
  <rect class="cls-1" fill="#e5005a" width="192" height="192"/>
  <path class="cls-2" fill="#fff" d="M151.959 61.0489H168.441V130.489H152.238L151.391 120.347C147.46 128.523 136.601 132.47 128.876 132.607C108.291 132.746 93.0596 120.073 93.0596 95.6972C93.0596 71.7477 109.003 59.2214 129.284 59.3605C138.563 59.3605 147.458 63.7254 151.389 70.6373L151.959 61.0489ZM110.272 95.6972C110.272 108.957 119.405 116.833 130.833 116.833C157.869 116.833 157.869 74.7072 130.833 74.7072C119.405 74.7072 110.272 82.4633 110.272 95.6972Z"/>
  <path fill="#fff" class="cls-2" d="M25.8384 142.456C27.5124 142.736 29.2848 142.876 31.1458 142.876C34.8656 142.876 37.7292 141.875 39.7318 139.88C41.7295 137.875 43.0342 136.052 44.43 132.529L18.2598 61.2422H37.6236L54.9322 110.954L72.2359 61.2422H91.6622L76.7615 100.826C72.1904 113.201 68.154 125.39 62.7482 137.012C60.7864 141.204 58.8318 144.753 56.8748 147.694C54.9178 150.62 52.7713 153.04 50.4498 154.941C48.121 156.848 45.4853 158.241 42.5498 159.126C39.6166 160.019 36.1919 160.453 32.2826 160.453C29.0185 160.453 26.0111 160.158 23.2626 159.549L25.8384 142.456Z"/>
</svg>
