<?xml version="1.0"?><svg version="1.2" baseProfile="tiny-ps" viewBox="0 0 300 300" xmlns="http://www.w3.org/2000/svg" xmlns:xlink="http://www.w3.org/1999/xlink"><title>weee-bimi-logo-blue</title><g><g fill="#fff" transform="matrix(.1 0 0 -.1 0 300)"><path d="M0 1500V0h3000v3000H0V1500z"/></g><g fill="#d0f1fc" transform="matrix(.1 0 0 -.1 0 300)"><path d="M0 1500V0h3000v3000H0V1500zm473 430 25-20 12-53 11-52 9-222c8-215 11-243 30-243 5 0 36 53 69 119l61 119 31 93 32 94 1 61 1 61 15 18c19 23 71 45 108 45h29l26-20 26-20 11-57 12-57-7-242-7-241 10-7 10-6 21 29c28 38 68 135 146 345 35 94 68 182 75 196l11 25 35 24 35 24 53 5 52 4 17-17 17-16v-78l-30-75c-44-112-186-392-238-469l-45-68-54-49-53-49-58-21-57-22-53 4-53 5-22 22-22 22v57c0 31 6 89 13 129 8 39 12 89 10 110l-3 38-52-105-52-105-48-59-48-60-54-28-53-28h-40c-22 0-48 5-60 11l-20 11-14 33-14 34v550l-10 27c-6 15-22 40-35 56-14 16-25 37-25 47v18l23 20c12 11 36 28 52 36l30 16 41 1h41l26-20zm1164-349 42-19 15-31 16-30v-92l-14-32-13-32-38-34c-21-18-53-40-72-47-18-8-33-16-33-19 0-2 13-11 30-20l29-15h72l38 19c20 11 42 25 48 33l11 13 4 82 5 82 29 48 30 47 48 30 48 30h67l67 1 27-18c35-23 57-57 64-101l6-36-18-45-17-45-30-30c-17-17-48-40-69-51-46-23-48-32-14-47 50-23 126-10 178 30l18 13 2 80 3 80 28 52 29 52 36 25c20 13 56 30 80 36l45 12 44-7 44-7 36-33 37-33v-128l-28-42-27-42-57-32-56-32 23-18 22-18h83l40 19c46 20 60 36 95 100l25 46h50l3-29 4-29-17-44-17-44-49-49-48-48-58-22-58-22-66 5-66 4-51 28c-28 15-59 36-68 46l-17 18-41-35-40-35-55-16-55-15-56 5-56 5-50 25c-27 14-58 34-68 46l-19 21-26-24c-14-13-46-34-70-46l-45-22-56-5-56-5-56 16-55 16-46 40-45 40-19 48-18 47 2 60 1 60 16 36c39 91 119 145 221 148l30 1 42-19zm-93-81c-12-5-31-21-43-36l-21-27v-78l16-6 15-6 25 11 24 12 20 32 20 33v54l-17 9-18 10-21-8zm439-1-23-8-20-33-20-33v-53l15-12 14-12 20 7c11 3 32 20 46 36l25 31v67l-17 9-18 10-22-9zm428-10-30-18-12-40-12-39 6-16c4-9 14-19 22-23l16-6 23 13 23 12 23 40 22 39-6 23-6 24-19 5-19 5-31-19z"/></g><g fill="#92def6" transform="matrix(.1 0 0 -.1 0 300)"><path d="M0 1500V0h3000v3000H0V1500zm469 440c39-21 49-77 61-344l10-229 9-14 8-15 22 31c34 48 116 229 146 322l27 84v50c0 28 2 58 5 68l4 17 39 20 39 20h81l19-19 20-20 12-43 12-43-7-242c-6-237-4-273 16-273 15 0 81 149 162 369 42 112 81 210 88 219 7 8 31 23 53 33l40 19h38c21 0 47-5 58-10l19-11v-88l-21-58c-36-96-173-375-223-454-27-41-71-98-99-128l-52-53-60-29-60-29H818l-30 30-30 31 5 62c3 34 10 92 17 129 6 37 10 80 8 95l-3 28-58-112-58-112-47-52-47-52-50-23-50-24h-92l-20 23c-11 12-24 33-29 47l-8 25-1 285v286l-32 39-33 40v45l21 21c11 11 35 27 52 34l32 14 43 1c24 0 51-4 61-10zm1170-358c19-9 44-29 55-45l20-28v-105l-27-47-28-47-56-32-56-32 23-18 22-18h34c39 0 99 22 126 46l17 16-2 57-1 56 14 50 14 50 46 46 46 46 46 11c88 22 150 10 197-41l23-26 5-45 6-46-17-45-17-44-36-32c-20-17-52-38-71-46l-34-14 12-14c7-8 28-17 47-21l35-7 38 12c20 6 49 20 64 32l26 20v67l1 67 13 38c8 20 26 53 40 72l27 35 40 21 40 20 50 6 49 6 46-18 46-17 19-32 19-31v-96l-19-37c-23-45-52-73-110-105l-44-25 31-16 31-16 28 1c71 2 144 54 178 128l18 40 15 6 15 5 13-11 14-11v-73l-21-40c-12-22-35-55-53-74l-31-33-60-29-60-29h-122l-44 15c-24 9-61 29-81 45l-36 30-52-35c-60-41-106-55-177-55h-53l-51 20-52 19-29 28-28 27-28-22c-15-13-47-33-72-45l-45-22h-170l-42 23c-23 12-58 38-78 59l-35 36-15 50c-19 64-19 100 1 166l15 53 40 43 40 44 42 15c23 8 62 15 87 15l45 1 34-18zm-112-93c-22-13-47-61-47-92v-25l14-11 15-12 29 15 29 15 18 36 17 37-6 24-6 24h-23c-12 0-30-5-40-11zm428-15-25-26-6-35-7-35 16-16 16-16 26 12 25 12 20 32 20 33-2 30-3 30-27 3-28 3-25-27zm447 3c-13-13-27-39-32-57l-9-33 10-18c13-26 32-24 68 7l31 26 8 31 9 32-9 18-9 17h-46l-21-23z"/></g><g fill="#52cbf1" transform="matrix(.1 0 0 -.1 0 300)"><path d="M0 1500V0h3000v3000H0V1500zm477 434 22-14 11-37 11-38 10-220c6-121 13-235 15-253l5-33 10 7c16 10 115 214 149 309l32 90 7 79 6 79 26 20 27 19 41 8 41 7 32-16 32-16 13-40 14-40-1-214c0-117-2-217-5-221-7-12 7-100 16-100 14 0 74 137 155 355l78 210 33 32 33 31 44 10 45 9 26-5 26-5 17-25 16-25-17-66-17-66-99-202c-108-220-160-304-232-374l-48-47-52-26-53-26H813l-28 27-27 28 5 70c3 38 10 103 17 143 6 40 10 81 8 90l-4 17-52-106-52-105-57-64-57-63-41-18-40-19H380l-19 19-20 20-12 43-11 43 6 211 7 212-7 61-7 62-28 36-29 36v56l33 25 33 26 40 9c44 10 79 5 111-15zm1171-354c18-11 41-34 53-52l20-33-4-53-4-53-29-42-30-42-52-31-52-32 17-13 16-14 47 1h46l44 25 44 24 1 75 2 75 17 40c22 52 71 103 121 126l40 19h107l35-17 35-16 19-31 19-31v-96l-19-37c-24-45-63-83-116-110l-40-20 40-18 40-17 44 12c24 6 57 21 72 32l28 20v137l22 51 22 52 40 34 41 35 35 10c20 5 55 10 79 10h43l34-14 35-15 20-33 20-33v-106l-14-27c-20-37-73-86-121-110l-40-20 39-17 39-16 38 6 39 7 32 22c32 21 55 51 90 115l17 31h41l10-26 10-25-6-27c-12-51-42-98-89-141l-46-43-46-20-45-20h-67l-67-1-49 22c-28 12-62 34-77 48l-26 25-39-30c-21-17-58-39-83-47l-45-17h-61l-60-1-48 21c-26 12-61 32-78 46l-32 24-31-24c-17-13-53-33-80-45l-49-22-60 1h-61l-44 16c-25 9-59 28-78 42l-33 25-25 44-26 44-6 54-6 55 13 50 12 50 29 40 30 41 51 25 52 26h111l33-20zm-125-95-22-16-12-39-12-38 6-16 6-16h49l26 31c14 17 29 42 32 55l6 24-12 15c-16 19-40 19-67 0zm439-7c-11-13-26-36-32-52l-11-29 6-18 6-19h50l24 26 24 26 6 29 7 30-12 14c-7 8-20 15-29 15h-18l-21-22zm438-7-30-29v-83l32 3 32 3 24 35 23 34-3 31-3 30-23 3-22 3-30-30z"/></g><g fill="#02b4eb" transform="matrix(.1 0 0 -.1 0 300)"><path d="M0 1500V0h3000v3000H0V1500zm477 438c9-7 22-28 30-45l13-33 10-117c5-65 10-163 10-218 0-109 8-175 21-175 12 0 124 235 155 325l27 80 2 69 3 69 24 23 23 23 48 13 48 12 27-14 27-15 20-40 20-40-3-273-3-274 11 7c20 12 68 120 150 339 45 121 87 227 93 237 16 25 77 57 124 65l40 6 24-12c31-17 39-29 39-63 0-46-37-142-126-325l-83-174-55-82-55-82-45-42c-24-22-66-52-94-66l-49-25-50-6-49-7-37 16-38 15-16 38-16 38 16 90c9 50 19 113 22 140l6 50-59-111c-67-128-110-185-170-226l-42-29-53-11-52-10-27 10-27 11-18 28-18 27-5 307-5 308-26 28c-15 15-30 38-33 50l-7 22 28 31 28 31 40 14 40 15 38-4c21-2 45-10 54-18zm1180-359 33-21 15-28 15-29v-92l-19-38c-23-45-74-91-120-111l-33-13 18-14 18-13h87l32 13c18 8 38 22 46 31l15 18-3 49-2 49 15 52 15 53 30 36 30 37 46 21 45 21h125l32-20 32-19 16-30 15-30v-108l-28-42-29-42-44-30c-24-16-50-29-58-29h-15l20-15 19-14 50-1h50l39 24 39 24 2 73 1 74 21 45c25 55 65 97 118 121l40 19h116l29-15c38-20 68-60 76-102l7-35-13-41c-6-23-23-57-37-75l-24-32-51-29-50-29 20-11 21-11h86l40 23 40 23 36 59 36 60 21 3 22 3 11-25 12-26-12-42c-7-24-26-62-42-85l-30-42-42-29c-23-16-58-35-77-43l-35-14-70 1-70 1-38 16c-21 9-56 30-76 47l-38 29-23-24c-29-31-109-65-169-72l-48-5-56 16-56 16-44 34-45 35-18-20c-9-10-42-31-73-46l-55-27h-141l-53 23-53 24-39 45-40 45-11 41-11 41 4 65 5 65 21 41 21 41 33 28c18 16 47 34 63 41l30 13 64 1h64l34-21zm-126-95-23-17-14-34-15-34 6-20 6-19h48l24 33c13 17 27 41 29 53l5 21-9 17c-11 20-27 20-57 0zm428-13-29-29v-82h48l26 31c14 17 29 42 32 55l6 24-12 15c-19 22-38 18-71-14zm455 14c-26-18-47-65-42-97l3-23 22-3 23-3 24 26 25 27 6 29 7 30-12 14c-16 19-30 19-56 0z"/></g></g></svg>