<?xml version="1.0" encoding="UTF-8"?><svg xmlns="http://www.w3.org/2000/svg" baseProfile="tiny-ps" version="1.2" viewBox="0 0 500 500"><title>Envato</title><rect width="500" height="500" fill="#87e64b"/><path d="M267,434.3c9.1,0,16.5-7.4,16.5-16.5s-7.4-16.5-16.5-16.5-16.5,7.4-16.5,16.5,7.4,16.5,16.5,16.5Z" fill="#191919"/>  <path d="M361.6,305.5l-92.9,9.9c-1.7.2-2.6-2-1.2-3l90.9-70.8c5.9-4.8,9.7-12.3,8-20.4-1.6-12.3-11.8-20.4-24.7-18.8l-98.8,14.5c-1.7.3-2.7-2-1.3-3l97.9-74.7c19.3-15,20.9-44.5,3.2-61.7-16.1-16.1-41.8-15.5-57.9.5L127.2,238.4c-5.9,6.4-8.6,15-7,24.1,2.7,14.5,17.2,24.1,31.6,21.5l85-17.3c1.8-.4,2.8,2.1,1.2,3.1l-94.3,60.4c-11.8,7.5-17.2,20.9-13.4,34.3,3.8,17.7,21.5,27.9,38.6,23.6l141-34.7c1.6-.4,2.8,1.5,1.7,2.7l-22,27.2c-5.9,7.5,3.7,17.7,11.8,11.8l72.4-59.6c12.9-10.7,4.3-31.6-12.3-30.1h0Z" fill="#191919"/></svg>
