<?xml version="1.0" encoding="UTF-8" standalone="yes"?>
<svg version="1.2" baseProfile="tiny-ps" viewBox="0 0 112 112" xml:space="preserve" xmlns="http://www.w3.org/2000/svg">
  <title>B &#38; H Foto &#38; Electronics Corp.</title>
  <rect id="bg" x="15" y="26" fill="#FFFFFF" width="82" height="60"/>
  <path id="frame" d="M15,26v60h82V26H15z M95,84H17V28h78V84z" fill="#BD2C26"/>
  <g id="BandH">
    <path id="bh" d="M79,32v15H68V32H55v14.8h-2c0,0,0-2,0-3.6C53,36,48.2,32,41,32H21v15.2v6.5V72h42.3l0.4-0.2&#xA;&#x9;&#x9;h4.1L68,72V59h11v13h12V32H79z M33,41h5.2l0,0c1.5,0,2.7,1.4,2.7,3c0,1.7-1.2,3-2.7,3l0,0H33V41z M39.8,62L39.8,62H33v-6h6.8l0,0&#xA;&#x9;&#x9;c1.6,0,2.9,1.4,2.9,3C42.6,60.6,41.4,62,39.8,62" fill="#BD2C26"/>
    <path id="and-symbol" d="M63.91,62.24l0.04-0.14c0.35-1.42,0.49-2.59,0.5-3.1h-3.59&#xA;&#x9;&#x9;c-0.11,0.89-0.2,1.53-0.32,2.13c-0.14,0.58-0.3,1.15-0.49,1.7l-4.99-5.57c1.98-1.38,4.59-3.29,4.52-6.98l-0.01-0.16l0,0&#xA;&#x9;&#x9;c-0.18-3.32-3.01-5.9-6.52-5.9c-3.56,0-6.43,2.66-6.52,6.06v0.08c0,0.05,0,0.09,0,0.14c0.12,2.41,1.09,3.67,3.09,5.98&#xA;&#x9;&#x9;c-0.62,0.41-1.85,1.27-2.78,2.09c-1.67,1.48-2.64,3.49-2.73,5.66c-0.09,2.17,0.72,4.24,2.27,5.84c1.57,1.62,3.94,2.55,6.51,2.58&#xA;&#x9;&#x9;c0.03,0,0.06,0,0.09,0h0.06c2.55-0.06,4.78-0.94,6.61-2.62c0.31-0.29,0.62-0.6,0.91-0.94L63.18,72H68l-5.4-6.08&#xA;&#x9;&#x9;C63.13,64.79,63.58,63.56,63.91,62.24z M53.05,47.6c1.64,0,2.97,1.2,2.97,2.68c0,1.98-2,3.45-3.28,4.36&#xA;&#x9;&#x9;c-1.08-1.02-2.66-2.55-2.66-4.36C50.08,48.83,51.44,47.6,53.05,47.6z M57.15,67.64c-1.19,1.07-2.58,1.61-4.25,1.63&#xA;&#x9;&#x9;c-1.58-0.02-3-0.57-3.9-1.49c-0.78-0.8-1.23-1.8-1.31-2.88c-0.02-0.46,0.01-0.89,0.09-1.29c0,0,0.02-0.11,0.03-0.16&#xA;&#x9;&#x9;c0.11-0.44,0.29-0.87,0.53-1.28c0.06-0.1,0.13-0.2,0.2-0.3c0.05-0.07,0.11-0.14,0.16-0.21l0.07-0.08c0.08-0.09,0.15-0.18,0.25-0.28&#xA;&#x9;&#x9;c0.08-0.08,0.16-0.17,0.25-0.24c0.9-0.79,2.23-1.69,2.64-1.96l6.37,7.29C57.92,66.86,57.54,67.28,57.15,67.64z" fill="#FFC745"/>
  </g>
  <g id="photo-video-audio">
    <g>
      <path d="M23.67,76.32c0.27,0.24,0.41,0.6,0.41,1.1c0,0.49-0.14,0.86-0.42,1.08&#xA;&#x9;&#x9;&#x9;c-0.28,0.23-0.71,0.34-1.28,0.34h-0.52v1.12H21v-4h1.37C22.96,75.96,23.4,76.08,23.67,76.32z M23.03,77.89&#xA;&#x9;&#x9;&#x9;c0.1-0.12,0.15-0.3,0.15-0.53s-0.07-0.39-0.2-0.49c-0.13-0.1-0.34-0.15-0.63-0.15h-0.49v1.34h0.58&#xA;&#x9;&#x9;&#x9;C22.73,78.07,22.93,78.01,23.03,77.89z" fill="#BD2C26"/>
      <path d="M27.44,75.96h0.86v4h-0.86v-1.57H25.9v1.57h-0.86v-4h0.86v1.67h1.54V75.96z" fill="#BD2C26"/>
      <path d="M32.81,79.41C32.42,79.8,31.94,80,31.36,80c-0.57,0-1.06-0.2-1.45-0.59&#xA;&#x9;&#x9;&#x9;c-0.39-0.4-0.59-0.89-0.59-1.47c0-0.59,0.2-1.08,0.59-1.47c0.39-0.4,0.87-0.59,1.45-0.59c0.57,0,1.05,0.2,1.45,0.59&#xA;&#x9;&#x9;&#x9;c0.39,0.39,0.59,0.89,0.59,1.47S33.2,79.01,32.81,79.41z M32.52,77.94c0-0.36-0.11-0.66-0.33-0.91c-0.22-0.25-0.49-0.38-0.82-0.38&#xA;&#x9;&#x9;&#x9;c-0.32,0-0.59,0.13-0.82,0.38c-0.22,0.25-0.33,0.56-0.33,0.91c0,0.36,0.11,0.66,0.33,0.91s0.49,0.37,0.82,0.37&#xA;&#x9;&#x9;&#x9;c0.32,0,0.6-0.12,0.82-0.37C32.41,78.6,32.52,78.29,32.52,77.94z" fill="#BD2C26"/>
      <path d="M35.96,76.73v3.23H35.1v-3.23H34v-0.77h3.06v0.77H35.96z" fill="#BD2C26"/>
      <path d="M41.15,79.41C40.75,79.8,40.27,80,39.7,80s-1.05-0.2-1.45-0.59c-0.39-0.4-0.59-0.89-0.59-1.47&#xA;&#x9;&#x9;&#x9;c0-0.59,0.2-1.08,0.59-1.47c0.39-0.4,0.87-0.59,1.45-0.59c0.57,0,1.06,0.2,1.45,0.59s0.59,0.89,0.59,1.47&#xA;&#x9;&#x9;&#x9;C41.73,78.52,41.54,79.01,41.15,79.41z M40.85,77.94c0-0.36-0.11-0.66-0.33-0.91s-0.49-0.38-0.82-0.38c-0.32,0-0.6,0.13-0.82,0.38&#xA;&#x9;&#x9;&#x9;s-0.33,0.56-0.33,0.91c0,0.36,0.11,0.66,0.33,0.91s0.49,0.37,0.82,0.37c0.32,0,0.6-0.12,0.82-0.37S40.85,78.29,40.85,77.94z" fill="#BD2C26"/>
    </g>
    <g>
      <path d="M49.16,78.51l0.99-2.55h0.94l-1.56,4H48.8l-1.56-4h0.94L49.16,78.51z" fill="#BD2C26"/>
      <path d="M51.85,75.96h0.86v4h-0.86V75.96z" fill="#BD2C26"/>
      <path d="M56.93,76.48c0.37,0.35,0.55,0.83,0.55,1.46c0,0.63-0.18,1.11-0.54,1.48&#xA;&#x9;&#x9;&#x9;c-0.36,0.36-0.91,0.54-1.65,0.54h-1.32v-4h1.37C56.03,75.96,56.56,76.13,56.93,76.48z M56.29,78.86c0.21-0.21,0.32-0.51,0.32-0.9&#xA;&#x9;&#x9;&#x9;c0-0.39-0.11-0.7-0.32-0.91c-0.21-0.21-0.54-0.32-0.98-0.32h-0.48v2.43h0.55C55.77,79.17,56.08,79.07,56.29,78.86z" fill="#BD2C26"/>
      <path d="M61.32,75.96v0.8h-1.93v0.82h1.73v0.76h-1.73v0.83h1.99v0.79h-2.85v-4H61.32z" fill="#BD2C26"/>
      <path d="M65.66,79.41C65.27,79.8,64.79,80,64.22,80s-1.06-0.2-1.45-0.59c-0.39-0.4-0.59-0.89-0.59-1.47&#xA;&#x9;&#x9;&#x9;c0-0.59,0.2-1.08,0.59-1.47c0.39-0.4,0.87-0.59,1.45-0.59c0.57,0,1.05,0.2,1.45,0.59c0.39,0.39,0.59,0.89,0.59,1.47&#xA;&#x9;&#x9;&#x9;C66.25,78.52,66.05,79.01,65.66,79.41z M65.37,77.94c0-0.36-0.11-0.66-0.33-0.91s-0.49-0.38-0.82-0.38&#xA;&#x9;&#x9;&#x9;c-0.32,0-0.59,0.13-0.82,0.38c-0.22,0.25-0.33,0.56-0.33,0.91c0,0.36,0.11,0.66,0.33,0.91s0.49,0.37,0.82,0.37&#xA;&#x9;&#x9;&#x9;c0.32,0,0.6-0.12,0.82-0.37S65.37,78.29,65.37,77.94z" fill="#BD2C26"/>
    </g>
    <g>
      <path d="M74.49,79.96l-0.36-0.86h-1.62l-0.36,0.86h-0.92l1.67-4h0.84l1.67,4H74.49z M73.32,77.15&#xA;&#x9;&#x9;&#x9;l-0.49,1.16h0.97L73.32,77.15z" fill="#BD2C26"/>
      <path d="M77.04,78.93c0.14,0.18,0.34,0.28,0.58,0.28s0.44-0.09,0.58-0.28c0.14-0.19,0.21-0.44,0.21-0.76&#xA;&#x9;&#x9;&#x9;v-2.21h0.86v2.24c0,0.58-0.16,1.03-0.47,1.34c-0.3,0.3-0.69,0.46-1.18,0.46c-0.48,0-0.88-0.16-1.19-0.47&#xA;&#x9;&#x9;&#x9;c-0.31-0.31-0.47-0.76-0.47-1.33v-2.24h0.86v2.21C76.82,78.49,76.9,78.74,77.04,78.93z" fill="#BD2C26"/>
      <path d="M83.44,76.48c0.37,0.35,0.55,0.83,0.55,1.46c0,0.63-0.18,1.11-0.54,1.48&#xA;&#x9;&#x9;&#x9;c-0.36,0.36-0.91,0.54-1.65,0.54h-1.32v-4h1.37C82.54,75.96,83.07,76.13,83.44,76.48z M82.81,78.86c0.21-0.21,0.32-0.51,0.32-0.9&#xA;&#x9;&#x9;&#x9;c0-0.39-0.11-0.7-0.32-0.91c-0.21-0.21-0.54-0.32-0.98-0.32h-0.48v2.43h0.55C82.29,79.17,82.59,79.07,82.81,78.86z" fill="#BD2C26"/>
      <path d="M85.04,75.96h0.86v4h-0.86V75.96z" fill="#BD2C26"/>
      <path d="M90.41,79.41C90.02,79.8,89.54,80,88.97,80s-1.05-0.2-1.45-0.59c-0.39-0.4-0.59-0.89-0.59-1.47&#xA;&#x9;&#x9;&#x9;c0-0.59,0.2-1.08,0.59-1.47c0.39-0.4,0.87-0.59,1.45-0.59c0.57,0,1.06,0.2,1.45,0.59C90.8,76.86,91,77.35,91,77.93&#xA;&#x9;&#x9;&#x9;C91,78.52,90.8,79.01,90.41,79.41z M90.12,77.94c0-0.36-0.11-0.66-0.33-0.91s-0.49-0.38-0.82-0.38c-0.32,0-0.6,0.13-0.82,0.38&#xA;&#x9;&#x9;&#x9;s-0.33,0.56-0.33,0.91c0,0.36,0.11,0.66,0.33,0.91s0.49,0.37,0.82,0.37c0.32,0,0.6-0.12,0.82-0.37S90.12,78.29,90.12,77.94z" fill="#BD2C26"/>
    </g>
    <path d="M44.81,77.3c-0.4,0-0.7,0.3-0.7,0.7s0.3,0.7,0.7,0.7s0.7-0.3,0.7-0.7S45.21,77.3,44.81,77.3z" fill="#BD2C26"/>
    <path d="M69.2,77.3c-0.4,0-0.7,0.3-0.7,0.7s0.3,0.7,0.7,0.7c0.4,0,0.7-0.3,0.7-0.7S69.5,77.3,69.2,77.3z" fill="#BD2C26"/>
  </g>
</svg>