<?xml version="1.0" encoding="UTF-8" standalone="yes"?>
<svg xmlns="http://www.w3.org/2000/svg"
    xmlns:xlink="http://www.w3.org/1999/xlink" baseProfile="tiny-ps" version="1.2" viewBox="0 0 512 512">
    <title>Pixum App Icon</title>    <!-- Generator: Adobe Illustrator 29.1.0, SVG Export Plug-In . SVG Version: 2.1.0 Build 142)  -->
    <defs>
        <linearGradient id="linear-gradient" x1="256" y1="0" x2="256" y2="512" gradientUnits="userSpaceOnUse">
            <stop offset="0" stop-color="#009ee2"></stop>
            <stop offset="1" stop-color="#007be9"></stop>
        </linearGradient>
    </defs>
    <rect x="0" y="0" width="512" height="512" fill="url(#linear-gradient)"></rect>
    <path d="M344,156.6h-26.3c-5.1,0-9.4-3.6-11.3-8.2-2-4.7-1.5-10.3,2.1-13.9l18.6-18.6c4.9-4.9,4.9-12.9,0-17.8-4.9-4.9-12.9-4.9-17.8,0l-19.4,19.4c-3.4,3.4-8.6,4-13,2.3-4.7-1.8-8.3-6.1-8.3-11.1v-27.5c0-7-5.6-12.6-12.6-12.6s-12.6,5.6-12.6,12.6v29.1c0,4.5-3.1,8.5-7.3,10.3-4.3,1.9-9.5,1.4-12.8-1.9l-20.6-20.6c-4.9-4.9-12.9-4.9-17.8,0-4.9,4.9-4.9,12.9,0,17.8l21.4,21.4c3.1,3.1,3.7,7.9,2,12-1.7,4.2-5.5,7.3-10,7.3h-30.3c-7,0-12.6,5.6-12.6,12.6s5.6,12.6,12.6,12.6h30.3c4.5,0,8.3,3.2,10,7.3,1.7,4.1,1.1,8.9-2,12l-21.4,21.4c-4.9,4.9-4.9,12.9,0,17.8,4.9,4.9,12.9,4.9,17.8,0l20.6-20.6c3.4-3.4,8.5-3.8,12.8-1.9,4.2,1.8,7.3,5.7,7.3,10.3v29.1c0,7,5.6,12.6,12.6,12.6s12.6-5.6,12.6-12.6v-27.5c0-5,3.6-9.2,8.3-11.1,4.5-1.8,9.6-1.1,13,2.3l19.4,19.4c4.9,4.9,12.9,4.9,17.8,0,4.9-4.9,4.9-12.9,0-17.8l-18.6-18.6c-3.6-3.6-4.2-9.2-2.1-13.9,2-4.6,6.3-8.2,11.3-8.2h26.3c7,0,12.6-5.6,12.6-12.6s-5.6-12.6-12.6-12.6ZM286.7,169.2c0,16.9-13.7,30.7-30.7,30.7s-30.7-13.7-30.7-30.7,13.7-30.7,30.7-30.7,30.7,13.7,30.7,30.7Z" fill="#fff" fill-rule="evenodd"></path>
    <g>
        <path d="M248.8,320.9c-3-3-8-3-11,0l-18.1,18.1-18.1-18.1c-3-3-8-3-11,0-3,3-3,8,0,11l18.1,18.1-18.1,18.1c-3,3-3,8,0,11,3,3,8,3,11,0l18.1-18.1,18.1,18.1c3,3,8,3,11,0,3-3,3-8,0-11l-18.1-18.1,18.1-18.1c3-3,3-8,0-11Z" fill="#fff"></path>
        <path d="M116.8,318c-17.4,0-31.7,14.3-31.7,31.7v57.4c0,4.3,3.5,7.8,7.8,7.8s7.8-3.5,7.8-7.8v-30.1c4.7,2.8,10.3,4.4,16.2,4.4,17.5,0,31.7-14.2,31.7-31.7s-14.3-31.7-31.7-31.7ZM116.8,365.6c-8.8,0-15.9-7.1-15.9-15.9s7.1-15.9,15.9-15.9,15.9,7.1,15.9,15.9-7.1,15.9-15.9,15.9Z" fill="#fff"></path>
        <path d="M309.7,318.3c-4.3,0-7.8,3.5-7.8,7.8h0v28.3c0,7.1-5.8,12.9-12.9,12.9s-12.9-5.8-12.9-12.9v-28.1h0c0-4.4-3.5-7.9-7.8-7.9s-7.8,3.5-7.8,7.8v27.2c0,15.7,12.8,28.5,28.5,28.5s28.5-12.8,28.5-28.5v-27.2c0-4.3-3.5-7.8-7.8-7.8Z" fill="#fff"></path>
        <path d="M426.9,347.2c0-14.4-10.5-26.9-24.8-28.7-9.6-1.2-18.4,2.4-24.4,8.8,0,0,0,0,0,0-5.2-5.5-12.6-9-20.7-9h0c-15.7,0-28.5,12.8-28.5,28.5v26.9c0,3.9,2.7,7.4,6.6,8s9-3,9-7.7v-28.3c0-7.1,5.8-12.9,12.9-12.9h0c7.1,0,12.9,5.8,12.9,12.9v28.3c0,3.1,1.8,6,4.7,7.1,5.6,2.2,10.9-1.9,10.9-7.2v-28c0-6.1,4.9-12.2,11-13.1s14.9,5,14.9,12.8v28.3c0,4.3,3.5,7.8,7.8,7.8h0c4.3,0,7.8-3.5,7.8-7.8v-26.7Z" fill="#fff"></path>
        <path d="M165.5,344.1c-1.8,0-3.4-.3-5-.9v30.4c0,4.3,3.5,7.8,7.8,7.8s7.8-3.5,7.8-7.8v-33.9c-2.7,2.7-6.4,4.3-10.6,4.3Z" fill="#fff"></path>
        <circle cx="168.4" cy="325.9" r="9.6" fill="#fff"></circle>
    </g>
</svg>