<?xml version="1.0" encoding="utf-8"?>
<!-- Generator: Adobe Illustrator 28.3.0, SVG Export Plug-In . SVG Version: 6.00 Build 0)  -->
<svg version="1.2" baseProfile="tiny-ps" id="Capa_1" xmlns="http://www.w3.org/2000/svg" xmlns:xlink="http://www.w3.org/1999/xlink"
	  width="1000px" height="1000px" viewBox="0 0 1000 1000" xml:space="preserve"> <title>Tendencys Innovations</title>
<g>
	<path fill-rule="evenodd" fill="#004C74" d="M173.5,552.7l-3.1-0.5l0,0l0,0c-0.5-0.1-1.1-0.3-1.7-0.7c-0.9-0.4-1.5-1.1-2.1-1.7
		L144,514.3l7.4-4.8l8,1.4l5.7,1.1l20.9,32.6L173.5,552.7z"/>
	<path fill-rule="evenodd" fill="#004C74" d="M154.8,549.6l-23.1-3.4c-0.7-0.2-1.3-0.5-1.7-1.1c-0.4-0.4-0.7-0.9-0.9-1.3
		c0,0,0,0,0-0.1l-0.1-0.2l0,0l-34.9-68.7l0.1-0.1l-0.1-0.1c-0.1-0.2-0.3-0.4-0.4-0.8l-2.5-5c-1.5-4.9,2.2-6.2,9.6-5.1l0.9,0.1
		c-0.1,0,0.1,0,0.3,0l0,0c0.3,0,0.7,0.1,1,0.2l0,0l8.1,1.3l37.1,5.8l-7.2,19.9l-17-2.6L154.8,549.6z"/>
	<path fill-rule="evenodd" fill="#004C74" d="M225.8,559.4l-19.8-2.6l0,0l0,0l0,0h0.1c-0.5-0.1-1.1-0.4-1.6-1
		c-0.7-0.7-1.1-1.4-1.2-2.2v0.1l-17.4-70.5l20.1,3.3h-0.3c0.5,0.2,1.2,0.4,1.7,1c0.7,0.7,1.1,1.4,1.2,2.2v-0.1L225.8,559.4z"/>
	<path fill-rule="evenodd" fill="#004C74" d="M264.3,565.4l-18.7-2.9c-0.7-0.1-1.3-0.4-1.9-1.1c-0.7-0.7-1-1.4-1-2.2v0.1l-10.5-111
		l13.5-1.3l6.2,1.4c0.5,0.2,1.1,0.4,1.4,1c0.5,0.5,0.9,1.2,1,1.9l10.8,114.1H264.3z"/>
	<path fill-rule="evenodd" fill="#004C74" d="M298.9,433.1L288,397l20.9,2.2c0.3,0,0.7,0.2,1,0.4c0.5,0.3,1,0.9,1.2,1.4l8.7,28.9
		v-0.1c0,0,0,0,0,0.1l0.3,1c0.1,0.4,0,0.8-0.1,1.1c-0.2,0.3-0.7,0.4-1.2,0.4l-18.7-4.7L298.9,433.1z"/>
	<path fill-rule="evenodd" fill="#8F348A" d="M154.7,549.6l-20.4-2.9v-0.2v0.2l-2.3-0.3c0.4-0.1,1-0.2,1.4-0.5c0.5-0.4,1-1,1.1-1.6
		l3.6-33.9l0,0c0-0.8,0.3-1.5,1-2.1c0.4-0.4,1-0.7,1.5-0.7c0,0,0.1,0,0.2,0l21.9,4.1v0.1v-0.1h0.1l2.2,0.4c-0.5,0-1,0.2-1.4,0.4
		c-0.7,0.4-1,1-1.1,1.7l-3.4,32.2c-0.2,1-0.8,1.9-1.6,2.5C156.7,549.5,155.7,549.7,154.7,549.6z"/>
	<path fill-rule="evenodd" fill="#00B6BC" d="M195.2,556.2l-22.5-3.7l-1.9-0.3l-0.7-0.1l0,0c0.7,0,1.2-0.2,1.7-0.8
		c0.4-0.5,0.8-1.3,1-2.2l4.7-63.9c0.1-0.8,0.4-1.5,1.1-2.1c0.7-0.5,1.4-0.9,2.2-0.9l0,0c0,0,0,0,0.1,0l21.8,3.7l1.7,0.3l1,0.2l0,0
		c-0.7-0.1-1.3,0.1-1.9,0.5s-0.9,1.2-1.1,1.9l-4.8,64.2c-0.1,0.8-0.5,1.5-1.2,2.1C196.2,555.7,195.8,556.1,195.2,556.2z"/>
	<path fill-rule="evenodd" fill="#5B9E14" d="M229.2,559.9l-20.6-2.6l-2.6-0.3c0.7,0,1.2-0.1,1.7-0.5c0.7-0.4,1.1-1.1,1.2-1.9
		L223.5,447v0.1c0.1-1.1,0.7-2.3,1.6-3.1c0.9-0.8,1.9-1.1,2.9-1.1l0,0l0,0h-0.4c0.1,0,0.1,0,0.2,0h0.1l19.8,4.7l-0.1,1.2l0.2-1.2
		l4.3,1l0,0c-1-0.2-2.1,0-3.1,0.4c-1,0.5-1.5,1.4-1.9,2.4L233,557.8c-0.2,0.7-0.5,1.3-1.2,1.7c-0.5,0.4-1.3,0.5-2,0.5l0,0l0,0h-0.5
		V559.9z"/>
	<path fill-rule="evenodd" fill="#FE4200" d="M272.3,566.6L272.3,566.6l0.3-1.6L272.3,566.6z M271.9,566.5l-23.5-3.7l0,0l0,0
		l-2.5-0.4l-0.7-0.1l0,0c0.8,0.1,1.5-0.1,2.3-0.5c0.8-0.4,1.3-1.2,1.5-2l32-160.5c0.2-0.8,0.7-1.4,1.3-1.9s1.4-0.7,2.2-0.7l-2.2-0.2
		l2.2,0.2l21.4,2.2l2.8,0.3l0,0h0.3l0,0c-0.8,0-1.5,0.2-2.3,0.7c-0.8,0.5-1.3,1.4-1.5,2.2l0.7-3.2l-33.1,165.5
		c-0.2,0.7-0.5,1.2-1.2,1.5c-0.4,0.2-0.9,0.4-1.3,0.4L271.9,566.5z"/>
	<path fill-rule="evenodd" fill="#004C74" d="M142.1,574.3c2.8-11.6,14.5-18.7,26.2-15.9c11.6,2.8,18.7,14.5,15.9,26.2
		c-2.8,11.6-14.5,18.7-26.2,15.9C146.3,597.6,139.2,585.9,142.1,574.3z"/>
	<path fill-rule="evenodd" fill="#004C74" d="M218.1,579.9c2.2-8.9,11.1-14.4,20.1-12.2c8.9,2.2,14.4,11.1,12.2,20.1
		c-2.2,8.9-11.1,14.4-20.1,12.2C221.4,597.8,215.9,588.8,218.1,579.9z"/>
	<g>
		<path fill="#004C74" d="M333.1,519.8c-0.4-0.4-0.7-1-0.7-1.6v-56.2c0-0.7,0.2-1.2,0.7-1.6c0.4-0.4,1-0.7,1.6-0.7h37.5
			c0.7,0,1.2,0.2,1.6,0.7s0.7,1,0.7,1.6s-0.2,1.2-0.7,1.6s-1,0.7-1.6,0.7h-35.1v23.3h25.7c0.7,0,1.2,0.2,1.6,0.7
			c0.4,0.4,0.7,1,0.7,1.6s-0.2,1.2-0.7,1.7c-0.4,0.4-1,0.7-1.6,0.7h-25.7v23.3h35.1c0.7,0,1.2,0.2,1.6,0.7s0.7,1,0.7,1.6
			c0,0.7-0.2,1.2-0.7,1.6s-1,0.7-1.6,0.7h-37.5C334.1,520.4,333.6,520.2,333.1,519.8z"/>
		<path fill="#004C74" d="M414.8,479.7c2.9,1.5,5.3,3.8,7,6.9c1.6,2.9,2.5,6.5,2.5,10.7v20.9c0,0.7-0.2,1.2-0.7,1.6
			c-0.4,0.4-1,0.7-1.6,0.7s-1.2-0.2-1.6-0.7c-0.4-0.4-0.7-1-0.7-1.6v-21c0-4.9-1.4-8.7-4.1-11.3c-2.7-2.6-6.4-3.9-10.9-3.9
			c-2.7,0-5.2,0.5-7.5,1.6s-4,2.5-5.3,4.5c-1.3,1.9-2,4-2,6.3v23.9c0,0.7-0.2,1.2-0.7,1.6c-0.4,0.4-1,0.7-1.7,0.7
			c-0.7,0-1.2-0.2-1.6-0.7s-0.7-1-0.7-1.6v-37.9c0-0.8,0.2-1.3,0.7-1.7s1-0.7,1.6-0.7c0.8,0,1.3,0.2,1.7,0.7c0.4,0.4,0.7,1,0.7,1.7
			v4c1.7-2.2,3.9-3.9,6.4-5.1c2.5-1.2,5.3-1.9,8.3-1.9C408.3,477.3,411.7,478,414.8,479.7z"/>
		<path fill="#004C74" d="M470.8,479.9c0,0.3,0,0.7-0.1,0.9l-17.5,38c-0.5,1.1-1.3,1.6-2.5,1.6c-0.4,0-0.9-0.1-1.3-0.4
			c-0.4-0.3-0.7-0.7-0.9-1.2l-17.8-38c-0.1-0.2-0.1-0.5-0.1-0.9c0-1,0.4-1.6,1.3-2.1c0.3-0.1,0.7-0.2,1-0.2c0.9,0,1.5,0.4,2,1.3
			l15.9,34.6l15.7-34.7c0.4-0.9,1.1-1.3,2.1-1.3c0.3,0,0.7,0.1,1,0.2C470.3,478.3,470.8,479,470.8,479.9z"/>
		<path fill="#004C74" d="M480.6,467.8c-0.7-0.7-1-1.5-1-2.6s0.3-2.1,1.1-2.6c0.8-0.7,1.6-1,2.6-1c1,0,1.9,0.3,2.5,1
			c0.7,0.7,1.1,1.5,1.1,2.6s-0.3,2-1.1,2.6c-0.7,0.7-1.5,1.1-2.6,1.1S481.2,468.5,480.6,467.8z M481.6,519.8c-0.4-0.4-0.7-1-0.7-1.6
			v-37.9c0-0.8,0.2-1.3,0.7-1.7s1-0.7,1.6-0.7c0.8,0,1.3,0.2,1.7,0.7s0.7,1,0.7,1.7v37.9c0,0.7-0.2,1.2-0.7,1.6s-1,0.7-1.7,0.7
			C482.5,520.4,482,520.2,481.6,519.8z"/>
		<path fill="#004C74" d="M531.6,480.2c3.3,1.9,5.9,4.5,7.8,7.8c1.9,3.3,2.8,7.1,2.8,11.1v19c0,0.7-0.2,1.2-0.7,1.6s-1,0.7-1.7,0.7
			c-0.7,0-1.2-0.2-1.6-0.7s-0.7-1-0.7-1.6V512c-1.7,2.7-4,4.9-7.1,6.5c-2.9,1.6-6.3,2.4-10,2.4c-4.1,0-7.8-1-11.1-2.8
			c-3.3-1.9-5.9-4.5-7.8-7.8c-1.9-3.3-2.8-7-2.8-11c0-4.1,1-7.8,2.8-11.1c1.9-3.3,4.5-5.9,7.8-7.8c3.3-1.9,7.1-2.8,11.1-2.8
			C524.6,477.4,528.3,478.3,531.6,480.2z M529.3,514.2c2.6-1.5,4.7-3.6,6.1-6.2c1.5-2.6,2.2-5.6,2.2-8.8s-0.8-6.2-2.2-8.8
			c-1.5-2.6-3.5-4.7-6.1-6.3c-2.6-1.5-5.4-2.3-8.7-2.3c-3.3,0-6.1,0.8-8.7,2.3c-2.6,1.5-4.7,3.6-6.1,6.3c-1.5,2.6-2.3,5.6-2.3,8.8
			s0.8,6.2,2.3,8.8s3.6,4.7,6.1,6.2c2.6,1.5,5.4,2.3,8.7,2.3C523.7,516.5,526.7,515.7,529.3,514.2z"/>
		<path fill="#004C74" d="M560.4,517.8c-4.1-2.3-7-5.2-8.5-8.9c-0.2-0.7-0.4-1.1-0.4-1.5c0-0.8,0.3-1.4,0.9-2.1
			c0.5-0.5,1.3-1,2.3-1.2c0.1,0,0.4-0.1,0.8-0.1c0.9,0,1.6,0.2,2.4,0.8c0.8,0.5,1.3,1.2,1.6,2c1,2.1,2.7,3.7,5.6,5.1
			c2.7,1.4,5.8,2.1,9.2,2.1c3.9,0,7.2-0.9,9.9-2.7c2.7-1.7,4-4.3,4-7.4c0-2.9-1.1-5.4-3.4-7.6c-2.3-2.1-5.8-3.4-10.5-3.8
			c-6.4-0.7-11.4-2.5-15.2-5.7c-3.7-3.2-5.6-7.1-5.6-11.8c0-3.3,1-6.2,2.8-8.6s4.5-4.3,7.7-5.6c3.3-1.3,7-2,11.1-2
			c4.5,0,8.2,0.9,11.3,2.7c3.1,1.9,5.7,4.4,7.7,7.7c0.7,1,1,2,1,2.8c0,1.1-0.5,2.1-1.5,2.8c-0.5,0.3-1.2,0.5-2.1,0.5
			s-1.5-0.2-2.2-0.5c-0.7-0.4-1.2-0.9-1.5-1.6c-1.4-2.3-3.2-4.1-5.2-5.3c-2.1-1.2-4.8-1.9-8-1.9c-3.9,0-7.1,0.8-9.6,2.3
			c-2.4,1.5-3.7,3.7-3.7,6.6c0,2.7,1.1,4.9,3.3,6.8c2.2,1.9,6.1,3.1,11.7,3.6c6.2,0.7,11,2.5,14.5,5.7c3.4,3.2,5.1,7.3,5.1,12.4
			c0,3.7-1,7-3.1,9.6c-2.1,2.7-4.7,4.7-8.1,6c-3.4,1.3-7,2-10.8,2C569.1,521.2,564.4,520.1,560.4,517.8z"/>
		<path fill="#004C74" d="M638.4,479.8c2.8,1.5,5.1,3.8,6.6,6.9c1.6,2.9,2.4,6.5,2.4,10.8v19.2c0,1.1-0.3,2.1-1.1,2.8
			c-0.8,0.8-1.7,1.1-2.8,1.1c-1.1,0-2.1-0.3-2.8-1.1c-0.8-0.8-1.1-1.7-1.1-2.8v-19.3c0-4.3-1.1-7.4-3.4-9.6s-5.2-3.3-9-3.3
			c-2.2,0-4.1,0.4-6,1.3c-1.7,0.9-3.2,2.1-4.3,3.6c-1,1.5-1.5,3.2-1.5,5v21.9c0,1.1-0.3,2.1-1.1,2.8c-0.8,0.8-1.6,1.1-2.8,1.1
			c-1.1,0-2.1-0.3-2.8-1.1s-1.1-1.7-1.1-2.8v-52.8c0-1.2,0.3-2.2,1.1-2.8c0.8-0.8,1.7-1.1,2.8-1.1c1.2,0,2.2,0.3,2.8,1.1
			c0.8,0.8,1.1,1.6,1.1,2.8v19.1c1.6-1.6,3.6-2.9,5.9-3.8s4.7-1.4,7.3-1.4C632.3,477.5,635.6,478.2,638.4,479.8z"/>
		<path fill="#004C74" d="M661.8,469.4c-1-1-1.5-2.2-1.5-3.6c0-1.4,0.5-2.6,1.5-3.6c1-1,2.2-1.5,3.6-1.5c1.4,0,2.6,0.5,3.6,1.5
			c1,1,1.5,2.2,1.5,3.6c0,1.4-0.5,2.6-1.5,3.6c-1,1-2.2,1.5-3.6,1.5C664.1,470.9,662.8,470.4,661.8,469.4z M662.6,519.3
			c-0.8-0.8-1.1-1.7-1.1-2.8v-34.7c0-1.2,0.3-2.2,1.1-2.8c0.8-0.8,1.7-1.1,2.8-1.1c1.2,0,2.2,0.3,2.8,1.1c0.8,0.8,1.1,1.6,1.1,2.8
			v34.6c0,1.1-0.3,2.1-1.1,2.8s-1.6,1.1-2.8,1.1C664.3,520.4,663.4,520,662.6,519.3z"/>
		<path fill="#004C74" d="M716.6,480.3c3.3,1.9,5.9,4.5,7.7,7.7c1.9,3.3,2.8,7,2.8,11s-0.9,7.7-2.6,11c-1.7,3.3-4.1,5.9-7.2,7.7
			s-6.4,2.8-10.1,2.8c-3.1,0-5.8-0.7-8.4-1.9c-2.6-1.2-4.8-2.9-6.6-5.2v21c0,1.2-0.3,2.2-1.1,2.8c-0.8,0.8-1.6,1.1-2.8,1.1
			c-1.1,0-2.1-0.3-2.8-1.1c-0.8-0.8-1.1-1.6-1.1-2.8v-35.4c0-4,1-7.7,2.8-11c1.9-3.3,4.5-5.9,7.7-7.7c3.3-1.9,6.9-2.8,10.9-2.8
			C709.7,477.5,713.3,478.5,716.6,480.3z M712.7,511.8c2.1-1.3,3.8-3.1,5-5.2c1.2-2.2,1.9-4.7,1.9-7.4c0-2.7-0.7-5.2-1.9-7.5
			c-1.2-2.2-2.8-4-5-5.2c-2.1-1.3-4.5-2-7.1-2c-2.6,0-4.9,0.7-7.1,2c-2.1,1.3-3.7,3.1-4.9,5.2s-1.7,4.7-1.7,7.5
			c0,2.7,0.5,5.2,1.7,7.4s2.8,3.9,4.9,5.2c2.1,1.3,4.5,2,7.1,2C708.3,513.7,710.6,513.1,712.7,511.8z"/>
		<path fill="#004C74" d="M771.4,480.3c3.3,1.9,5.9,4.5,7.7,7.7c1.9,3.3,2.8,7,2.8,11s-0.9,7.7-2.6,11c-1.7,3.3-4.1,5.9-7.2,7.7
			c-3.1,1.9-6.4,2.8-10.1,2.8c-3.1,0-5.8-0.7-8.4-1.9c-2.6-1.2-4.8-2.9-6.6-5.2v21c0,1.2-0.3,2.2-1.1,2.8c-0.8,0.8-1.6,1.1-2.8,1.1
			c-1.1,0-2.1-0.3-2.8-1.1c-0.8-0.8-1.1-1.6-1.1-2.8v-35.4c0-4,1-7.7,2.8-11c1.9-3.3,4.5-5.9,7.7-7.7c3.3-1.9,6.9-2.8,10.9-2.8
			C764.4,477.5,768,478.5,771.4,480.3z M767.5,511.8c2.1-1.3,3.8-3.1,5-5.2s1.9-4.7,1.9-7.4c0-2.7-0.7-5.2-1.9-7.5
			c-1.2-2.2-2.8-4-5-5.2c-2.1-1.3-4.5-2-7.1-2c-2.6,0-4.9,0.7-7.1,2c-2.1,1.3-3.7,3.1-4.9,5.2s-1.7,4.7-1.7,7.5
			c0,2.7,0.5,5.2,1.7,7.4s2.8,3.9,4.9,5.2s4.5,2,7.1,2C763,513.7,765.4,513.1,767.5,511.8z"/>
		<path fill="#004C74" d="M794.8,469.4c-1-1-1.5-2.2-1.5-3.6c0-1.4,0.5-2.6,1.5-3.6c1-1,2.2-1.5,3.6-1.5c1.4,0,2.6,0.5,3.6,1.5
			c1,1,1.5,2.2,1.5,3.6c0,1.4-0.5,2.6-1.5,3.6c-1,1-2.2,1.5-3.6,1.5C797.1,470.9,795.9,470.4,794.8,469.4z M795.6,519.3
			c-0.8-0.8-1.1-1.7-1.1-2.8v-34.7c0-1.2,0.3-2.2,1.1-2.8c0.8-0.8,1.7-1.1,2.8-1.1c1.2,0,2.2,0.3,2.8,1.1c0.8,0.8,1.1,1.6,1.1,2.8
			v34.6c0,1.1-0.3,2.1-1.1,2.8c-0.8,0.8-1.6,1.1-2.8,1.1C797.3,520.4,796.3,520,795.6,519.3z"/>
		<path fill="#004C74" d="M848.1,479.8c2.8,1.5,5.1,3.8,6.6,6.9c1.6,2.9,2.4,6.5,2.4,10.8v19.2c0,1.1-0.3,2.1-1.1,2.8
			c-0.8,0.8-1.7,1.1-2.8,1.1c-1.1,0-2.1-0.3-2.8-1.1c-0.8-0.8-1.1-1.7-1.1-2.8v-19.3c0-4.3-1.1-7.4-3.4-9.6c-2.3-2.2-5.2-3.3-9-3.3
			c-2.2,0-4.1,0.4-6,1.3c-1.7,0.9-3.2,2.1-4.3,3.6c-1,1.5-1.5,3.2-1.5,5v21.9c0,1.1-0.3,2.1-1.1,2.8c-0.8,0.8-1.6,1.1-2.8,1.1
			c-1.1,0-2.1-0.3-2.8-1.1c-0.8-0.8-1.1-1.7-1.1-2.8v-34.4c0-1.2,0.3-2.2,1.1-2.8c0.8-0.8,1.7-1.1,2.8-1.1c1.2,0,2.2,0.3,2.8,1.1
			c0.8,0.8,1.1,1.6,1.1,2.8v0.8c1.6-1.6,3.6-2.9,5.9-3.8s4.7-1.4,7.3-1.4C842,477.5,845.2,478.2,848.1,479.8z"/>
		<path fill="#004C74" d="M900.6,480.3c3.3,1.9,5.8,4.4,7.6,7.6s2.7,7,2.7,11.2v16.8c0,4.1-0.9,7.8-2.7,11.2s-4.4,6-7.6,8
			c-3.3,2-7,2.9-11.2,2.9c-3.7,0-7.2-0.8-10.5-2.2c-3.3-1.5-5.9-3.6-8.1-6.3c-0.5-0.8-0.9-1.4-0.9-2.2c0-1.1,0.5-2.1,1.6-2.8
			c0.8-0.4,1.4-0.7,2.2-0.7c1.3,0,2.4,0.5,3.2,1.6c1.4,1.9,3.2,3.2,5.3,4.1c2.2,1,4.6,1.4,7.2,1.4c2.5,0,4.9-0.7,7-1.9
			c2.1-1.2,3.7-3.1,5-5.3c1.2-2.4,1.9-5.2,1.9-8.5v-3.8c-1.6,2.8-3.7,5.1-6.4,6.6c-2.6,1.6-5.7,2.4-8.9,2.4c-3.8,0-7.3-0.9-10.4-2.7
			c-3.1-1.9-5.4-4.4-7.1-7.6c-1.6-3.3-2.5-7-2.5-11.1c0-4.3,0.9-8,2.7-11.2s4.4-5.8,7.6-7.6c3.3-1.9,7-2.7,11.1-2.7
			C893.8,477.5,897.4,478.5,900.6,480.3z M896.7,511.8c2.1-1.2,3.7-2.9,4.9-5.2c1.2-2.2,1.7-4.7,1.7-7.5s-0.5-5.3-1.7-7.5
			s-2.8-3.9-4.9-5.2c-2.1-1.2-4.5-1.9-7.1-1.9c-2.6,0-5,0.7-7.1,1.9c-2.1,1.2-3.7,2.9-4.9,5.2c-1.2,2.2-1.7,4.8-1.7,7.5
			c0,2.8,0.5,5.3,1.7,7.5c1.2,2.2,2.8,3.9,4.9,5.2c2.1,1.2,4.5,1.9,7.1,1.9C892.3,513.7,894.7,513.1,896.7,511.8z"/>
	</g>
</g>
</svg>
