<?xml version="1.0" encoding="utf-8"?>
<svg version="1.2" baseProfile="tiny-ps" xmlns="http://www.w3.org/2000/svg" xmlns:xlink="http://www.w3.org/1999/xlink" viewBox="0 0 170 170" xml:space="preserve">
<title>BANDAI SPIRITS CO., LTD.</title>
<path fill="#7D7D7D" d="M0,112v32.5C0,158.6,11.4,170,25.5,170h119c14.1,0,25.5-11.4,25.5-25.5V112H0z"/>
<path fill="#7D7D7D" d="M144.5,0h-119C11.4,0,0,11.4,0,25.5V54h170V25.5C170,11.4,158.6,0,144.5,0z"/>
<linearGradient id="SVGID_1_" gradientUnits="userSpaceOnUse" x1="85" y1="103.0574" x2="85" y2="100.9536">
	<stop  offset="0" stop-color="#D1D1D1"/>
	<stop  offset="1" stop-color="#9F9F9F"/>
</linearGradient>
<rect y="101" fill="url(#SVGID_1_)" width="170" height="2.1"/>
<rect y="83.1" fill="#787878" width="170" height="3.5"/>
<rect y="86.2" fill="#323232" width="170" height="12.7"/>
<rect y="94.6" fill="#323232" width="170" height="4.5"/>
<rect y="35.3" fill="#7D7D7D" width="170" height="23"/>
<rect y="74" fill="#FFFFFF" width="170" height="4"/>
<linearGradient id="SVGID_00000177460848230774289380000010775889943814186635_" gradientUnits="userSpaceOnUse" x1="85" y1="112" x2="85" y2="109">
	<stop  offset="0" stop-color="#949494"/>
	<stop  offset="1" stop-color="#FBFBFB"/>
</linearGradient>
<rect y="109" fill="url(#SVGID_00000177460848230774289380000010775889943814186635_)" width="170" height="3"/>
<linearGradient id="SVGID_00000038396894388633033040000008284804499599872142_" gradientUnits="userSpaceOnUse" x1="85" y1="85" x2="85" y2="78">
	<stop  offset="0" stop-color="#787878"/>
	<stop  offset="1" stop-color="#FFFFFF"/>
</linearGradient>
<rect y="78" fill="url(#SVGID_00000038396894388633033040000008284804499599872142_)" width="170" height="7"/>
<linearGradient id="SVGID_00000181785259915387858780000003154298846040913042_" gradientUnits="userSpaceOnUse" x1="85" y1="74" x2="85" y2="54">
	<stop  offset="0" stop-color="#FFFFFF"/>
	<stop  offset="1" stop-color="#7D7D7D"/>
</linearGradient>
<rect y="54" fill="url(#SVGID_00000181785259915387858780000003154298846040913042_)" width="170" height="20"/>
<rect y="87" fill="#323232" width="170" height="11"/>
<rect y="108" fill="#FBFBFB" width="170" height="1"/>
<linearGradient id="SVGID_00000081607713768761521260000007021486112354007200_" gradientUnits="userSpaceOnUse" x1="85" y1="108" x2="85" y2="103">
	<stop  offset="0" stop-color="#F5F5F5"/>
	<stop  offset="1" stop-color="#D1D1D1"/>
</linearGradient>
<rect y="103" fill="url(#SVGID_00000081607713768761521260000007021486112354007200_)" width="170" height="5"/>
<linearGradient id="SVGID_00000054964980464514315110000010125252696954670014_" gradientUnits="userSpaceOnUse" x1="85" y1="87" x2="85" y2="85">
	<stop  offset="0" stop-color="#323232"/>
	<stop  offset="1" stop-color="#787878"/>
</linearGradient>
<rect y="85" fill="url(#SVGID_00000054964980464514315110000010125252696954670014_)" width="170" height="2"/>
<linearGradient id="SVGID_00000070093488421380719220000013064737480006901152_" gradientUnits="userSpaceOnUse" x1="85" y1="101" x2="85" y2="98">
	<stop  offset="0" stop-color="#9F9F9F"/>
	<stop  offset="1" stop-color="#323232"/>
</linearGradient>
<rect y="98" fill="url(#SVGID_00000070093488421380719220000013064737480006901152_)" width="170" height="3"/>
<linearGradient id="SVGID_00000096773444661439937470000001748780313140752538_" gradientUnits="userSpaceOnUse" x1="85" y1="103" x2="85" y2="101">
	<stop  offset="0" stop-color="#D1D1D1"/>
	<stop  offset="1" stop-color="#9F9F9F"/>
</linearGradient>
<rect y="101" fill="url(#SVGID_00000096773444661439937470000001748780313140752538_)" width="170" height="2"/>
<path d="M27.9,5.9h114.2c11.7,0,21.2,9.5,21.2,21.2v115.7c0,11.7-9.5,21.2-21.2,21.2H27.9c-11.7,0-21.2-9.5-21.2-21.2V27.1
	C6.6,15.4,16.2,5.9,27.9,5.9z"/>
<path fill="#FFFFFF" d="M144.7,5.5h-119C17.2,5.5,6.3,12.4,6.3,21v123.8c0,8.5,11,19.7,19.4,19.7h123.2c8.4,0,15.2-11.2,15.2-19.7
	V21C164,12.5,153.1,5.5,144.7,5.5L144.7,5.5z"/>
<path d="M162,145.8c0,8.6-7,15.6-15.6,15.6H24.2c-8.6,0-15.6-7-15.6-15.6V24c0-8.6,7-15.6,15.6-15.6h122.2c8.6,0,15.6,7,15.6,15.6
	L162,145.8L162,145.8z"/>
<path fill="#FFFFFF" d="M33.4,32.5h37.8c6.4,0,11.5,1.7,15.4,5.1c3.9,3.4,5.8,7.6,5.8,12.6c0,3.8-1.1,7.1-3.4,9.9
	C86.8,63,83.8,65,80,66.3c-3.8,1.3-7.5,1.9-11.3,1.9H56.8v21c0,1.2,0.3,2.1,1,2.7c0.7,0.6,10,2.5,10,2.5V97H33.4v-2.5
	c0,0,8-1.9,8.7-2.5c0.7-0.6,1-1.5,1-2.7V40.1c0-1.1-0.3-2-1-2.6c-0.7-0.6-8.6-2.2-8.6-2.2V32.5L33.4,32.5z"/>
<path d="M56.8,64.3h8c2.8,0,5.3-0.6,7.4-1.8c2.2-1.2,3.7-2.6,4.6-4.3s1.4-4.5,1.4-8.3c0-5.2-1.4-8.9-4.2-11.1
	c-2.1-1.5-5.6-2.3-10.5-2.3c-2.9,0-4.7,0.2-5.5,0.7c-0.8,0.5-1.2,1.3-1.2,2.5L56.8,64.3L56.8,64.3z"/>
<path fill="#FFFFFF" d="M77.2,76h36.5c5.7,0,10.1,1.3,13.4,4c3.3,2.7,4.9,6.1,4.9,10.1c0,3.5-1.3,6.5-3.9,8.9
	c-2.6,2.4-6.5,4.3-11.7,5.7c6.9,1.1,11.7,3,14.6,5.7c2.9,2.6,4.3,5.9,4.3,9.9c0,3.5-1,6.5-3.1,9c-1.5,1.8-4,3.4-7.7,4.8
	c-3.6,1.4-8,2.1-12.9,2.1H77.2v-2.6c0,0,7.2-1.4,7.7-2c0.7-0.8,1-1.7,1-2.8V82.1c0-0.7-0.3-1.3-0.9-1.7c-0.6-0.4-7.8-1.8-7.8-1.8
	L77.2,76L77.2,76z"/>
<path d="M98.8,103.2h6.8c4.7,0,8-1,10-2.9c2-1.9,3-5.2,3-9.7c0-3.9-1-6.7-2.9-8.3c-1.9-1.7-5.6-2.5-11-2.5c-2.6,0-4.2,0.2-4.9,0.7
	c-0.7,0.5-1,1.3-1,2.5L98.8,103.2L98.8,103.2z"/>
<path d="M98.8,107v21.9c0,1.1,0.2,2,0.7,2.6c0.5,0.6,1.2,0.9,2,0.9h7.8c3.8,0,6.8-1,9-3.1s3.3-5.2,3.3-9.2c0-4-1.2-7.5-3.5-9.7
	c-2.3-2.2-5.7-3.4-10.2-3.4L98.8,107L98.8,107z"/>
<path fill="#7D7C81" d="M144.5,170H25.5C11.5,170,0,158.5,0,144.5V25.5C0,11.5,11.5,0,25.5,0h118.9C158.5,0,170,11.5,170,25.5v118.9
	C170,158.5,158.5,170,144.5,170z M25.5,0.1c-14,0-25.4,11.4-25.4,25.4v118.9c0,14,11.4,25.4,25.4,25.4h118.9
	c14,0,25.4-11.4,25.4-25.4V25.5c0-14-11.4-25.4-25.4-25.4H25.5z"/>
</svg>
