<?xml version="1.0" encoding="UTF-8"?>
<svg xmlns="http://www.w3.org/2000/svg" baseProfile="tiny-ps" version="1.2" viewBox="0 0 200 200">
  <!-- Generator: Adobe Illustrator 28.6.0, SVG Export Plug-In . SVG Version: 1.2.0 Build 709)  -->
  <title>TTL</title>
  <g>
    <g id="Layer_1">
      <g>
        <path d="M56,122.8h6.9c.3,0,.6,0,.9-.1,1.4-.5,2.2-1.7,2.1-3,0-.5,0-.9,0-1.4,0-8.2,9.5-26,28.3-53,0,0,0,0,0,0,3.8,5.5,7,10.4,10.6,16.2.2.4.5.7.9,1,1.2.8,2.7.6,3.7-.2l5.3-4.6c1.1-1,1.4-2.6.6-3.9-8.1-13-15.3-22.8-17.6-26-.2-.3-.5-.6-.8-.8-2.1-1.6-4.8-1-6.2.8-.3.4-.6.8-.9,1.3-3.9,5.3-13.1,17.7-21.3,31.1-10.4,17-15.7,29.8-15.7,38.2s0,1,0,1.6c0,1.6,1.4,2.9,3.1,2.9" fill="#f15f56"/>
        <path d="M140.9,86.1l-10.6-12.4c-1.1-1.3-3.1-1.5-4.5-.4l-1.5,1.3c-1.3,1.1-1.5,3.1-.4,4.5l1.7,2h-.1c0,0,0,.1,0,0-3.1-.9-6.6-.1-9.1,2l-26.9,23.1s0,0,0,0c-.8-.4-1.7-.6-2.6-.6-1.1,0-2,.5-2.8,1.2l-2.1,1.8c-.9.7-1.5,1.7-1.7,2.9-.2,1.4.2,2.8,1.1,3.8l10.9,12.6c1.7,2,4.6,2.2,6.6.5l2.3-2c1.5-1.3,2-3.4,1.3-5.2,0,0,0,0,0,0l13.6-11.7s0,0,0,0c5.7,11.2,6.9,16.9,6.9,19.8,0,15.6-12.7,28.4-28.4,28.4s-19.1-3.8-23.8-10.7c0,0,0,0,0,0h28.2c2.7,0,4.9-2.2,4.9-4.9v-4.4c0-2.7-2.2-4.9-4.9-4.9h-44.6c-2.7,0-4.9,2.2-4.9,4.9v4.4c0,2.7,2.2,4.9,4.9,4.9h1.6s0,0,0,0c5.9,14.7,20.4,23.7,38.5,23.7s41.4-18.6,41.4-41.4-3.2-16-9.8-28.5c0,0,0,0,0,0l3.1-2.7c1.6-1.4,2.7-3.2,3.2-5.2.3-1.1.3-2.3.2-3.5,0,0,0,0,0,0h0c0,0,1.7,2,1.7,2,1.1,1.3,3.1,1.5,4.5.4l1.5-1.3c1.3-1.1,1.5-3.1.4-4.5" fill="#2e3649"/>
      </g>
    </g>
  </g>
</svg>