<?xml version="1.0" encoding="UTF-8"?>
<svg version="1.2" baseProfile="tiny-ps" id="Layer_1" xmlns="http://www.w3.org/2000/svg" xmlns:xlink="http://www.w3.org/1999/xlink" viewBox="0 0 56.693 56.693">
    <title>Liverpool FC</title>
    <path fill="#D11619" d="M0 0h56.693v56.693H0z" />
    <path fill="#FFF" d="M19.039 39.948c.021.117.242.317.094.367-1.993 1.115-4.485 2.377-6.768 1.337a5.977 5.977 0 0 1-.181-.407c.01-.016-.016-.032.003-.045 2.229 1.263 4.837-.18 6.852-1.252M37.968 40.182c1.345.752 2.756 1.409 4.3 1.588.786.076 1.587-.035 2.254-.463.022.133-.117.313-.17.451-1.912.909-4.04.045-5.802-.837-.342-.277-1.275-.372-.846-.884.186.1.161.089.264.145" />
    <path fill="#FFF" d="M19.377 40.604c.429.813.922 1.607 1.438 2.377-.71.484-1.736.891-2.132 1.784-1.163.609-2.412 1.006-3.729 1.108 0-.006-.011-.01-.017-.01l-.005.011c-3.308-.167-2.262-.142-.526-1.871-.814-.464-1.368-1.128-1.765-1.82 2.246.782 4.753-.435 6.736-1.579M37.553 40.791c1.308.782 2.718 1.446 4.216 1.681a4.263 4.263 0 0 0 2.289-.212c-.245.674-1.024 1.439-1.708 1.803l.003.005c-.012.01-.031.019-.037.032.003.021.035.035.035.054a9.09 9.09 0 0 0 1.724 1.445c-1.893.934-4.257.129-6.041-.757-1.963-2.737-2.908-.447-.666-4.151.07.033.112.06.185.1" />
    <path fill="#FFF" d="M21.058 43.353c.46.719 1.069 1.425 1.554 2.078-3.037 1.04-5.572-.22-1.554-2.078M35.898 43.502c3.876 2.059.805 2.935-1.792 1.983.225-.292 1.258-1.553 1.573-2.063.084-.017.136.045.219.08" />
    <path fill="#FFF" d="M29.622 44.988c2.139-.255 7.553 2.745 8.492.304 1.948.843 4.311 1.561 6.323.534.089.015.295.124.414.198-1.96 1.22-4.684.581-6.683-.326-1.106 1.847-3.723.472-5.378.239-1.901-.477-3.749-.739-5.706-.564-2.265-.217-7.258 2.49-8.556.25-2.068.958-4.627 1.522-6.686.304.362-.31.599-.1.993.062 1.867.614 4.106-.009 5.77-.775.968 2.085 4.304.206 6.04.101 1.713-.331 3.237-.488 4.977-.327M30.956 49.885c1.268.187 2.611.818 3.85.572-.435.362-1.104.398-1.654.307a6.74 6.74 0 0 0-.434-.099c-3.034-.883-6.017-.856-9.021-.037-.516.117-1.44.14-1.728-.268 2.952.003 5.959-1.356 8.987-.475" />
    <path fill="#FFF" d="M30.131 47.735c-.445.005-.427.814.049.677.299-.106.302-.66-.049-.677m3.951.13c-.081.535-.624.82-1.016 1.06.275.145.681.055.916.055-.055.149-.172.276-.269.411-.473-.178-1.162-.17-1.52-.444.068-.033.146-.044.206-.078l.002.006c.471-.209 1.553-.673 1.214-1.301-.208-.204-.523.038-.49.291a.102.102 0 0 1-.073.015 3.769 3.769 0 0 1-.291-.341c.056-.08.166-.151.237-.217.435-.267 1.128-.036 1.084.543m-2.429.89c-.226.19-.5.046-.76 0a.155.155 0 0 1-.021-.076c.41.01.804-.327 1.043-.647-.957.19-.9-1.283.015-1.164 1.072.25.416 1.562-.277 1.887m-.829-1.576c-.027.185-.19.357-.366.424.682.408.009 1.385-.651 1.024-.499-.257-.345-.945.139-1.107-.845-.757.922-1.434.878-.341m-1.557 1.383c-.237-.008-.469-.027-.706-.04a.124.124 0 0 1-.023-.056c.192-.081.23-.304.26-.485l-.011-.008.011-.01c-.013-.36.171-.847-.196-1.047.005-.024-.022-.088.029-.076.153-.109.288-.225.424-.358.065-.003.126.013.187.015-.026.542-.046 1.084-.082 1.624.007.133.03.282.144.386-.013.02-.013.047-.037.055m-1.141-.943c-.135.306-.58.04-.38-.217.157-.213.485-.024.38.217m-.723-.654c-.102-.151-.497-.321-.592-.173.098.556-.031 1.259.327 1.714l-.761.073c-.015-.017-.023-.036-.035-.054.375-.46.062-1.178.063-1.73-.242.004-.473.117-.564.353-.026-.009-.055-.018-.07-.038.003-.16.016-.318.03-.475a11.844 11.844 0 0 1 1.544-.159l.144.468c-.03.019-.059.057-.086.021m-1.793 1.597c-.22.346-.642.243-.973.309-.077-.142-.113-.3-.169-.452a.168.168 0 0 1 .06-.054c.261.411 1.077.239.777-.294-1.244-.344-1.579-1.374-.008-1.338.014.14.165.317.05.423-.194-.284-.821-.246-.706.186.432.303 1.492.424.969 1.22m-1.674.463a49.4 49.4 0 0 0-1.26.319c-.018-.009-.046-.027-.047-.055.232-.537-.054-1.332-.346-1.8-.267-.246.928-.306 1.213-.425.063.116.128.238.174.366-.206.05-.696-.164-.887.089.088.586.29.702.64.162.174.104.145.465.228.657-.116.05-.818-.377-.571.247.006.125.054.257.092.38a1.23 1.23 0 0 0 .789-.479c.019-.004.032.01.053.016-.033.148.104.487-.078.523m14.129-2.568c-.007-.042-.042.005-.062-.013-2.391 1.752-7.306-1.389-10.523-.711-2.889-.245-6.251 2.287-8.818.563 2.933 5.833 4.061 3.097 9.228 2.928 5.16-.164 6.983 3.275 10.182-2.735l-.007-.032zm-5.973.801c-.277-.355-.713.161-.487.417.283.306.676-.104.487-.417m-1.754-.401c-.326-.086-.455.463-.135.534.322.07.442-.438.135-.534M15.326 29.292c-.003.398-.157.664-.151 1.068-.22-.129-.309-.619-.294-.873-.009-.462.024-1.011-.24-1.427.486.137.695.707.685 1.232zM13.225 28.985c.657.498.753 1.563.418 2.303-.058-.206.004-.754-.178-1.028-.308.449-.131 1.328-.155 1.656-.616-.66-.34-1.575-.144-2.332.08-.191-.154-.72.059-.599" />
    <path fill="#FFF" d="M15.86 37.114c-.058.128-.114.256-.197.368.642-1.626-.916-2.936-1.162-4.368-.589 1.367-1.417 2.884-1.342 4.424a.179.179 0 0 0-.008-.015h-.017c-.559-.668-.552-1.619-.371-2.43.164.12.262.295.363.458.165-1.466 1.18-2.729 1.473-4.178.021 2.02 1.872 3.749 1.261 5.741m.361-2.212c-.284-.765-.755-1.658-.284-2.438-.238-.016-.445.09-.61.249-.135-1.078-.099-2.168-.993-2.874.033 1.703-1.445 3.033-1.388 4.745-.202-.263-.572-.641-.901-.621.518 1.33-.325 3.59 1.534 4.094l.007-.01.011.007c-.658-1.222.682-2.305.917-3.484.686 1.052 1.446 2.285.643 3.513 1.244-.405 1.449-2.092 1.064-3.181" />
    <path fill="#FFF" d="M14.57 35.626c.667.577.773 1.846.099 2.448.09-.395.221-1.007-.145-1.359-.128.447-.483.855-.334 1.351-.974-.653.163-1.719.347-2.459.02-.017.022.011.033.019M15.709 38.481c.003.011.01.018.009.026-.242.159-.589.348-.69.691-.288-.033-.785-.021-1.092 0-.102-.384-.587-.521-.757-.731.776-.259 1.756-.274 2.53.014M14.982 39.449v.478c.994-.193 1.024.91 0 .735.151.89-.375.648-1.025.704v-.704c-1.005.18-1.026-.923 0-.729v-.484h1.025zM41.46 29.292c.004.398.156.664.152 1.068.221-.133.301-.611.295-.873h-.003c.008-.462-.024-1.01.239-1.427-.484.139-.692.707-.683 1.232zM43.562 28.985c-.659.498-.754 1.562-.418 2.303.056-.205-.003-.754.175-1.028.313.445.131 1.332.158 1.656.616-.661.339-1.576.143-2.332-.08-.191.152-.719-.058-.599" />
    <path fill="#FFF" d="M44.109 36.385c-.057.419-.175.817-.46 1.138h-.016c-.001.003-.006.009-.006.015.072-1.538-.753-3.059-1.344-4.425-.242 1.433-1.804 2.741-1.161 4.368-1.14-2.022 1.072-3.998 1.064-6.108.293 1.448 1.307 2.713 1.472 4.178.103-.161.199-.338.363-.458.097.427.147.86.088 1.292m.426-1.463c.27-1.169.117-1.202-.695-.338.055-1.712-1.418-3.043-1.39-4.745-.891.708-.859 1.795-.991 2.874-.166-.159-.371-.266-.61-.249.71 1.743-1.861 4.511.78 5.619-.806-1.227-.043-2.461.642-3.513.238 1.179 1.572 2.264.918 3.484l.011-.007.008.01c1.37-.34 1.368-1.993 1.327-3.135" />
    <path fill="#FFF" d="M42.216 35.626c-.668.577-.771 1.844-.101 2.448-.084-.393-.223-1.01.148-1.359.124.448.481.854.333 1.351.974-.653-.164-1.72-.347-2.459-.017-.017-.021.011-.033.019M41.077 38.481c.154.197.605.352.68.717.289-.033.783-.021 1.093 0 .103-.383.589-.522.756-.731-.775-.259-1.757-.274-2.529.014M41.805 39.449v.478c-.996-.193-1.025.91 0 .735-.146.917.347.661 1.024.704v-.704c1.01.179 1.023-.924 0-.729v-.484h-1.024zM16.425 19.281c2.737 2.607 7.324 2.63 10.353.566.679-.699 1.527-.566 2.435-.55 3.151 2.565 8.182 3.039 11.247.023l.01.015.016-.015c.152.011.318-.012.465.015.673 9.118-1.122 18.991-7.257 26.046-.279.011-.622-.131-.926-.175 5.857-6.632 7.968-15.873 7.434-24.555-3.432 2.398-8.626 1.833-11.787-.945-3.25 2.735-8.182 3.334-11.771.841-.547 8.68 1.455 17.948 7.318 24.598-.303.066-.608.129-.905.189-4.989-5.72-7.136-13.525-7.292-21.002a47.582 47.582 0 0 1 .139-5.038c-.008-.042.508 0 .521-.013zM29.949 13.427c-.542-.067-.085-.469-.357-.772.228.036.486.036.712 0-.272.304.186.703-.355.772M28.837 10.113c.301.106.48.473.246.723.089-.308-.119-.554-.401-.712.145.101.336.331.219.492.016-.087-.038-.291-.135-.265a.31.31 0 0 0 .12.318c-.035.026-.086-.002-.12-.024.03.139-.002.41.174.423.072-.022.157.054.061.089-.081-.067-.343-.079-.405.019-.045.007-.052-.058-.008-.071-.02-.016-.066.006-.075.03-.057-.029.019-.086.059-.07-.002-.089.128-.01.177-.008.014-.111-.113-.279-.106-.427-.023.019-.042.043-.071.054a.328.328 0 0 0-.008-.229.8.8 0 0 1-.096-.016.57.57 0 0 0 .058.241c-.034.002-.064-.027-.09-.048.026.157-.265.325-.206.427.072-.023.208.041.098.095-.046-.15-.56.092-.384-.062-.011-.024-.079.005-.089.032-.062-.042.027-.082.071-.068.003-.091.126.004.175-.018.106-.114.183-.293.235-.448-.03.022-.066.053-.11.053a.836.836 0 0 0 .056-.258c-1.111-.419.687-1.25-.09-1.181a.348.348 0 0 1-.045.066.082.082 0 0 1 .083.036.102.102 0 0 0 .049-.026c-.002.092-.131.097-.15.01l-.034.028c.028.052-.07.069-.046.117-.137-.026.013-.127.06-.161-.046-.009-.085.05-.135.028-.013-.002-.033-.016-.029-.032.057.013.121-.07.178-.008.013-.015.024-.034.035-.053-.012-.006-.043-.01-.031-.032.015 0 .03.001.045-.003a.181.181 0 0 0 .012-.056.269.269 0 0 0-.108.027c.002-.051.059-.072.103-.084a.115.115 0 0 0-.025-.052c.015.003.028-.003.044-.005l.017.052c.025-.004.049-.002.073-.004.049-.19.35.099.472-.006.068.039-.124.109-.187.074.241.23-.385.453-.182.715.093-.435.708-.748.716-1.134.09.025.167.226.147.337.092-.141.153-.297.17-.462.229.252-.008.528-.064.777-.127.257-.203.724-.523.76" />
    <path fill="#FFF" d="M19.03 29.338v-.362c.19.008.336.032.451.09l.167-.266h-.618v-.629c.208-.006.423.024.551.11l.145-.294h-1.061c.133.497.133 1.331 0 1.827h.446a1.228 1.228 0 0 1-.081-.476" />
    <path fill-rule="evenodd" fill="#FFF" d="M20.828 29.611c-.752.005-.791-1.443-.051-1.424.738-.011.809 1.445.051 1.424m.822-.721c.058-1.204-1.749-1.179-1.701.003-.056 1.225 1.76 1.21 1.701-.003M22.789 29.611c-.751.005-.79-1.443-.052-1.424.74-.012.81 1.445.052 1.424m.822-.721c.057-1.205-1.747-1.179-1.702.003-.054 1.225 1.759 1.21 1.702-.003" />
    <path fill="#FFF" d="M24.279 28.187c-.022.343.064 1.319-.08 1.627h.446c-.147-.303-.062-1.289-.083-1.627.208 0 .372.028.503.106l.12-.306h-1.407l-.083.311c.158-.074.35-.104.584-.111" />
    <path fill-rule="evenodd" fill="#FFF" d="M25.796 28.877c.56.048.579.833 0 .771v-.771zm0-.716c.496-.004.456.627 0 .668v-.668zm-.365 1.653c.735.159 1.637-.444.771-.97.736-.502-.173-1.008-.771-.857.131.497.131 1.331 0 1.827M27.371 29.038l.243-.519.224.519h-.467zm-.101.212h.668c.058.163.214.38.169.564h.478c-.244-.263-.781-1.544-.951-1.867-.184.334-.764 1.6-.997 1.867h.444c-.037-.17.118-.403.189-.564z" />
    <path fill="#FFF" d="M29.249 27.987h-.445c.131.497.132 1.331 0 1.827h.934c.038-.104.089-.214.148-.338-.2.088-.435.14-.717.164.021-.345-.064-1.343.08-1.653M30.583 27.987h-.445c.131.497.131 1.331 0 1.827h.933c.038-.104.088-.214.146-.338-.198.088-.434.14-.715.164.022-.345-.064-1.343.081-1.653M33.595 29.699l.008-.31c-1.541 1.093-1.626-1.972-.047-1.043l.002-.321c-2-.635-1.922 2.543.037 1.674M34.409 27.987h-.444c.13.498.13 1.33 0 1.827h.934a4.25 4.25 0 0 1 .144-.338c-.198.088-.434.14-.714.164.021-.345-.065-1.343.08-1.653M36.426 29.611v.203h.332c-.128-.497-.128-1.33 0-1.827h-.442c.067.457.343 1.596-.36 1.637-.69-.031-.396-1.192-.336-1.637h-.444c.179.801-.181 2.484 1.25 1.624" />
    <path fill-rule="evenodd" fill="#FFF" d="M37.472 28.877c.563.048.581.834 0 .771v-.771zm0-.716c.498-.004.458.627 0 .668v-.668zm-.362 1.653c.736.159 1.632-.446.769-.97.736-.501-.171-1.008-.769-.857.129.498.129 1.33 0 1.827" />
    <path fill="#FFF" d="M39.259 26.146c-.079.199-.135.406-.222.61a69.4 69.4 0 0 1-1.768-.005c-.013-.02-.019-.04-.027-.062.445-.517.17-1.32.247-1.95-.058-.401.149-.992-.238-1.258.245-.167.74-.022 1.062-.06-.455.826-.2 1.984-.239 2.946.437.026.87-.068 1.155-.386-.005-.01.012-.013.016-.019.024.006.037.028.052.045-.008.044-.028.092-.038.139m-2.186-.461c-.75 2.459-3.581.362-2.538-1.508.893-1.873 3.137-.117 2.538 1.508m-3.329.659c-1.533 1.622-3.139-1.122-2.02-2.459 1.502-1.633 3.173 1.115 2.02 2.459m-2.631-1.536c-.233.456-.71.559-1.17.595.007.43-.111.92.177 1.283a.117.117 0 0 1-.032.056c-.287.006-.574 0-.859-.002.106-.953.381-2.331-.06-3.251.013-.025.027-.055.047-.074.901-.124 2.489.147 1.897 1.393m-2.15 1.945a.805.805 0 0 1-.541-.049c-.003.008-.013.003-.013-.005-.549-.258-.763-.991-1.091-1.384.056.653-.108 1.018.224 1.367-.069.109-.93.078-1.033.013.4-.856.391-2.341.054-3.191a.157.157 0 0 1 .04-.084c1.276-.305 2.9.757 1.263 1.72.324.54.614 1.164 1.114 1.561.001.016-.01.036-.017.052m-2.84-.03c-.602.004-1.206-.005-1.808-.012-.018-.015-.007-.036-.027-.056.431-.804.467-2.382.045-3.174l.028-.079c.593.015 1.169-.002 1.757.014.022.211.041.421.058.632-.02.002-.036.019-.06.017-.247-.259-.61-.283-.953-.283-.033.332-.015.689-.01 1.03l.01.009c.259.007.566-.021.74-.244.154.175.009.566.052.819-.019.01-.038.021-.06.024-.182-.206-.463-.243-.733-.243-.032.175 0 .873-.021 1.148.459.137.915-.214 1.243-.354-.07.25-.177.499-.261.752m-1.971-3.246c-.787.831-.882 2.152-1.354 3.176-.071.124-.317.038-.456.058-.418-1.081-.714-2.369-1.245-3.312.338 0 .677-.004 1.02.002a.173.173 0 0 1 .034.074c-.379.745.44 1.827.497 2.392.124-.77.933-1.696.533-2.389.004-.027.025-.051.037-.076.305-.013.61-.002.918-.002.01.022.026.056.016.077m-3.28 3.246-.997-.001a.164.164 0 0 1-.033-.069c.473-.427.194-1.548.267-2.118-.03-.374.083-.793-.193-1.073l.032-.062c.307-.004.619-.004.919 0l.031.054c-.292.912-.404 2.32.025 3.194-.005.028-.022.063-.051.075m-1.343-.002c-.579.01-1.162-.01-1.741-.01-.014-.021-.019-.042-.024-.061.409-.849.399-2.331.043-3.194.251-.175.67-.015 1.009-.066.02.025.03.047.035.073-.571.776-.166 1.949-.269 2.872.431.026.877-.069 1.164-.401.019.002.032.019.046.041-.069.248-.174.499-.263.746M39.857 22.3c.565-2.555-4.503 3.405-11.444-2.098-3.197 2.571-7.762 3.202-11.397 1.081-.4 8.367 1.677 17.448 7.395 23.764.144-.022.289-.052.43-.076-4.394-4.703-6.58-11.092-7.266-17.419.097-.003 14.535 0 21.653 0l.015.011c-.689 6.396-2.947 12.786-7.335 17.447.018.008.201.039.408.082 5.6-6.091 7.68-14.677 7.541-22.792m-11.919 2.278c.257-.405-.261-.901-.613-.749.003.15-.002.271-.002.458.007-.004.002.471 0 .657a.844.844 0 0 0 .615-.366m2.01-.762c-.003.395-.039.851 0 1.221.918.085.965-1.361 0-1.221m2.694-.027c-1.046.241-.927 2.43.087 2.652 1.105-.128 1.018-2.577-.087-2.652m3.62.358c-.109-.19-.309-.36-.529-.375-.011.003-.03-.014-.032.009l-.007-.009c-.221-.023-.419.128-.535.299.002.005.011.002.014.01-1.206 2.806 2.283 3.231 1.089.066" />
    <path fill="#FFF" d="M32.466 36.432a4.54 4.54 0 0 1-1.319.667h.001a3.915 3.915 0 0 1-.484.114c.029.262-.182.465-.398.573v.016c.798-.074 1.988-.613 2.2-1.37m.433-1.093a5.85 5.85 0 0 1-1.976 1.144.622.622 0 0 1-.218.528c-.002.02-.036.014-.019.044.829-.205 2.111-.845 2.213-1.716m.435-1.223a7.835 7.835 0 0 1-2.321 1.686c.063.185-.01.386-.123.533.866-.343 2.47-1.241 2.444-2.219m.628-1.538c-.789 1.039-1.861 1.87-2.949 2.515.103.18.039.382-.024.54.311-.174.619-.363.916-.566h.001c.751-.564 2.183-1.612 2.056-2.489m.255-1.104c-.022-.069-.002-.268-.1-.236-.251 1.036-1.304 1.973-1.732 2.698.703-.684 1.854-1.369 1.832-2.462m-2.373 8.203c-.564-.665-1.461-.793-2.206-1.135 1.194.936 2.706 2.359 2.122 4.096.366-.332.556-.977.597-1.493h-.002c.016-.528-.148-1.078-.511-1.468m-3.73-.312c-1.652-.347-2.17-2.872-.72-3.598-.477.678-.603 1.607-.252 2.362l.002.001c.194.553.699.925 1.12 1.263-.046.031-.102-.018-.15-.028m-.298-6.32c-.11.015-.18-.093-.14-.19.138-.015.442.028.539.112-.138.017-.261.068-.399.078m-.866.39c.029-.084.057-.194.063-.308.665-.038.405.275-.063.308m4.542 10.574c-.667-.215-1.091.085-1.23-.863l.006.026c-.124-.51-.264-1.078-.257-1.589.176.118.471.274.659.133-.201-.153-.383-.329-.495-.558h.001a1.883 1.883 0 0 1-.167-1.197 6.637 6.637 0 0 1-.89-.851h-.002c-.292-.356-.645-.83-.549-1.293.239.465.429.938.851 1.3h-.001c.678.615 1.489 1.289 1.339 2.304.108.072.119-.186.146-.264h.001c.145-.794-.261-1.558-.868-2.04h-.003c-.346-.361-1.228-.873-1.134-1.324.613.739 1.886 1.282 2.597.39-.237-.056-.527-.009-.769-.073h.008c-.377-.069-.762-.169-1.087-.371-.003-.015-.003-.033.004-.045.316-.011.661-.119.836-.41-.06-.163-.775.079-.775-.143.38-.029.995-.164 1.038-.599-.348.056-.689.159-1.041.124.296-.219 1.117-.208 1.131-.758-.295-.021-.917.406-1.116.218.962-.203 1.874-1.312.247-.611 1.523-1.16 4.607-3.052 3.748-5.311-.389 2.53-2.52 4.093-4.52 5.713-.284.515-.42 1.539-1.158 1.489.749-.533.622-1.692 1.302-2.338h.002c.857-1.023 4.167-2.957 2.371-4.284.462 1.86-1.858 3.019-2.895 4.278h-.001c-.446.555-.459 1.284-.717 1.912-.041.064-.11.156-.192.114-.561-.857.355-1.817.909-2.44.437-.41.669-1.128.118-1.491.268.013.571.07.828-.054.194-.001.412-.545.205-.368-.674.58-2.302-1.003-2.609.032-.13.013-.264.007-.399.022-.034-.098-.063-.193-.107-.284-.074.017-.148.044-.233.033a.623.623 0 0 1 .133.279c-.236.066-.551.19-.566.467.183-.079.373-.141.585-.153l.009.009a.98.98 0 0 1-.06.309c-.087.025-.173.012-.258.018-.047.117.111.137.176.177a1.203 1.203 0 0 1-.198.297c-.312-.356-.657.117-.976.042-.026.087.09.178.165.177.27.133.493-.212.745-.151-.271.184-1.084.735-.336.887-.126-.274.395-.362.255-.649.063-.052.122-.1.189-.15.105.484.809.445.825-.057a.466.466 0 0 1-.265.143c-.115-.134-.27-.236-.457-.195.098-.113.172-.235.243-.362 1.651-.494 1.379.823.286 1.447l.013-.008c-1.322.841-2.473 2.635-1.325 4.084l-.02-.034c.761.919 1.964 1.243 3.096 1.412.177.385.194.864.057 1.266.169-.031.279-.241.394-.288.079.81.399 1.584.673 2.297-.246.214-1.049-.478-1.069.092-.233-.078-.647.229-.322.391.039-.144.303-.257.41-.17-.225.08-.215.416.04.392.301-.525 1.831-.485 2.242-.104.166-.014.34-.262.184-.394m-2.798-2.233a1.892 1.892 0 0 1-.251-.579h.001a3.225 3.225 0 0 1-.078-.567 3.485 3.485 0 0 1-1.028-.341 3.683 3.683 0 0 1-.301 1.286c.239 0 .437-.162.605-.301-.28.874-.711 1.825-1.299 2.484-.274.103-.954-.401-.968.092-.244-.08-.72.144-.391.377a.485.485 0 0 1 .502-.213c-.179.104-.39.466.003.462.066-.477 1.968-.484 2.115-.087.266-.016.312-.454.026-.491-.862-.04-.84-.038-.325-.711h.003c.344-.523.873-1.018.893-1.675.139.12.303.274.493.264m-4.175-.623c.001-.002.001-.006.003-.007h.006-.006l-.003.007zm7.003-3.196c.099-.141.38-.358.319-.504-.392.222-.805.396-1.267.452-.003.008-.007.019 0 .028.308.062.641.07.948.024m.359-5.031c-.631.955-1.741 1.48-2.416 2.355 1.123-.767 3.717-2.174 3.04-3.881-.098.464-.25 1.103-.624 1.526" />
    <path fill-rule="evenodd" fill="#FFF" d="M31.359 17.062c-.091.236-.194.472-.268.713.162-.001.405.041.537-.006l-.269-.707zm4.654.713c.174.007.368.007.535.007-.083-.241-.183-.485-.266-.724-.081.256-.201.476-.269.717m3.485-.43c-.127-.91-.978-.574-.771.229.102 1.001 1.011.615.771-.229m-23.09-.42c-.791-.833-.935 1.464-.09 1.209.386-.27.261-.854.09-1.209m26.213 1.379c-.017.026-.017.059-.046.08-.313-.011-.624.003-.934-.002-.011-.019-.035-.04-.027-.066.262-.387.228-1.179.042-1.612-.035-.092.882-.034.91-.049l.016.022c.002.102.028.181.028.283-.15.036-.346-.156-.555-.093 0 .171-.012.344 0 .518.155.034.282-.112.389-.175.032.143.007.316.014.47-.021.016-.035.03-.059.027-.064-.084-.28-.184-.353-.106-.082.761.155.578.664.401-.023.103-.067.198-.089.302m-1.258-1.232c.03.404-.128.89.094 1.244-.056.127-.28.029-.403.057-.179-.447-.524-.795-.784-1.212 0 .37-.067.914.126 1.196-.017.041-.476-.004-.503.008l-.013-.045c.274-.449.216-1.253.011-1.671.163-.016.329-.001.493-.001.087.457.509.814.738 1.208-.054-.357.173-.906-.129-1.152.085-.087.446-.092.523 0-.12.075-.17.232-.153.368m-1.959 1.267c-.97.381-1.362-1.366-.515-1.709.957-.304 1.286 1.315.515 1.709m-1.11.019-.015.014c-.288-.006-.594.002-.892-.014-.006-.019-.019-.036-.019-.054.251-.381.273-1.24.021-1.609.118-.12.398-.023.576-.043-.253.393-.124 1.012-.14 1.513.234.033.433-.135.592-.187-.03.13-.081.254-.123.38m-1.062-.025c.022.053-.636.016-.654.025l-.029-.054c.141-.06.121-.216.068-.329-.402.036-.937-.175-.632.379-.188.004-.374 0-.564-.007-.011-.016-.023-.035-.02-.057.5-.394.543-1.118.843-1.656.057-.014.113-.003.175-.003.281.557.401 1.267.813 1.702m-2.137.019h-.448c-.216-.276-.423-.531-.639-.824-.025.202-.107.647.133.76-.091.147-.404.016-.575.056-.012-.019-.034-.04-.036-.067.269-.254.281-1.318.037-1.582-.004-.019.02-.034.025-.051.165-.017.393.002.56 0 .011.014.02.036.013.051-.214.109-.182.467-.161.626.194-.211.449-.397.424-.674.038.02.614-.051.585.051-.312.116-.529.419-.757.656.251.344.499.735.865.95a.091.091 0 0 1-.026.048m-1.735 0c-.299 0-.603 0-.9-.01-.006-.014-.014-.03-.011-.049.245-.361.268-1.247.011-1.605.104-.116.403-.022.571-.047.006.014.019.028.011.045-.317.378-.089.998-.146 1.471.209-.003.421-.052.562-.208.016 0 .024.018.035.026a3.457 3.457 0 0 1-.133.377m-1.073-.005h-.63c-.007-.022-.034-.031-.028-.057.14-.047.126-.211.067-.317-.229-.014-.458-.003-.682-.003-.059.108-.064.283.073.332a.09.09 0 0 1-.024.045c-.197.002-.368.001-.564.001-.006-.015-.017-.032-.019-.051.499-.377.545-1.123.845-1.649a.65.65 0 0 1 .165 0c.299.517.357 1.262.828 1.645-.004.019-.011.046-.031.054m-2.178-.011c-.105-.326-.203-.642-.308-.967-.116.324-.208.639-.312.961a.377.377 0 0 1-.131.005c-.254-.515-.233-1.249-.661-1.638.088-.137.478-.024.628-.058.01.021.028.036.035.058-.339.226.044.732.083 1.049.146-.335.245-.743.377-1.103.011-.005.027-.004.036-.004.157.351.216.814.389 1.118.033-.319.455-.837.133-1.069a.24.24 0 0 1 .027-.046c.136.026.47-.069.568.049-.438.393-.452 1.118-.698 1.643a1.158 1.158 0 0 1-.166.002m-1.542.037c-.502.096-.697-.485-.919-.786.005.214-.087.552.1.721-.132.077-.346.002-.506.027-.014-.016-.028-.031-.028-.051.234-.413.243-1.206.03-1.608.565-.299 1.582.412.703.827.159.286.312.695.654.819-.01.017-.015.041-.034.051m-1.532-.04-.942-.002c-.01-.015-.026-.029-.024-.051.304-.385.126-.995.138-1.469-.02-.025-.033-.104-.092-.126.208-.154.623-.009.909-.055.014.1.025.19.042.293-.159.018-.349-.147-.559-.1.001.174-.025.372.005.54.142-.019.286-.063.357-.195.014.002.024.01.038.018-.003.152.003.312.006.459a.121.121 0 0 1-.052.03c-.416-.389-.38.124-.361.452l.011.011c.222-.006.439-.043.602-.189a.06.06 0 0 1 .049.026c-.04.12-.082.241-.127.358m-1.023-1.632c-.402.429-.471 1.109-.726 1.639h-.198c-.257-.55-.333-1.229-.753-1.671.122-.064.553-.081.66.008-.273.374.173.909.231 1.318.077-.417.504-.922.263-1.32.02-.097.44-.019.515-.041.011.017.045.053.008.067m-1.671 1.287c-.044.114-.08.236-.129.351h-.919c-.013-.017-.035-.035-.035-.063.266-.367.238-1.181.047-1.591 0-.02.014-.047.031-.06.287.008.583 0 .873.008.014.097.024.197.041.292-.169.001-.362-.136-.559-.1.007.174-.028.368.006.538.142-.014.289-.058.362-.186.007-.004.019.004.029.012l.009.459a.118.118 0 0 1-.052.024c-.077-.108-.221-.135-.35-.138-.021-.012-.008.573-.009.588.207.043.457-.049.622-.173.009.013.048.013.033.039m-1.31.155c.008.055.051.097.086.141-.008.018-.015.036-.027.051l-.361-.003c-.184-.431-.527-.821-.789-1.211.043.35-.138.883.138 1.161.003.019-.008.034-.019.053h-.474c.151-.463.269-1.233-.015-1.71.161-.015.32.005.48.002.093.452.496.8.735 1.209.008-.008.003-.022.017-.028-.052-.227.136-1.028-.136-1.135a.117.117 0 0 1 .03-.044h.45a.119.119 0 0 1 .027.055c-.316.347-.122 1.008-.142 1.459m-1.932-.149c-.045.557-.628.294-1.026.334-.011-.013-.013-.032-.017-.048.252-.363.271-1.26.012-1.606-.035-.09.612-.073.588-.011-.343.416-.075.996-.148 1.478.229.031.428-.119.585-.195.022.007.009.031.006.048m-1.205.334c-.288-.004-.605.007-.898-.008-.006-.016-.016-.036-.016-.055.245-.329.253-1.275.014-1.599-.003-.017.009-.035.021-.049h.542c-.254.401-.103 1.019-.133 1.513.2-.006.424-.046.562-.203.016.002.03.017.036.026-.041.13-.087.252-.128.375m-1.371-1.218a.17.17 0 0 1-.044-.041c.115-.122.117-.307.142-.455l.255.003c-.053.188-.156.406-.353.493m-.072 1.206c-.135.006-.274-.001-.408 0a1.296 1.296 0 0 1-.004-.175c-1.385.882-.681-.97-1.125-1.478l.03-.05c.199-.007.382 0 .59 0 .011.017.014.034.02.05-.387.354-.271 2.081.488 1.203-.061-.405.143-.887-.129-1.19 0-.022.011-.046.028-.068.173.039.425-.065.555.046-.271.349-.279 1.264-.022 1.617a.078.078 0 0 1-.023.045m-1.623-.553c-.536 1.583-2.121-.433-.965-1.133.685-.332 1.135.546.965 1.133m-1.615-.701c-.225.317-.449.911-.103 1.203.006.023-.011.042-.025.06-.152-.022-.469.076-.557-.053.417-.475.001-1.348-.498-1.597.011-.023.015-.047.032-.066.226.011.453-.004.688.006a.062.062 0 0 1 .014.041c-.292.126.031.458.11.635.078-.189.332-.419.161-.624.109-.127.374-.028.538-.052.008.017.024.027.021.048-.179.063-.294.234-.381.399m12.87-5.654c-.893-.71-1.518-1.878-1.488-2.997.007-.015.02-.027.016-.046.577.219 1.468.312 1.878-.244.422.533 1.307.446 1.852.23.106 1.301-.812 2.699-1.893 3.328-.12-.085-.228-.159-.365-.271m-.261 3.102c-.021-.024-.416-.423-.539-.613.188-.216.193-.224.568-.64.093.409.087.842-.029 1.253m-.401.636c-.287.274-.968.215-1.038-.223.189-.221.599-.683.612-.683.199.234.409.457.612.685a.702.702 0 0 1-.186.221m-1.252-.631a2.372 2.372 0 0 1-.033-1.238c.204.202.376.418.573.63a9.657 9.657 0 0 1-.54.608m.887-2.159c.258.028.466.226.603.436-.06.102-.518.62-.664.785-.231-.266-.461-.517-.682-.783.147-.268.422-.479.743-.438m2.005 1.282c.084.048.172.096.264.13-.059.265.132.273.217.058.088.014.178.035.267.04 0 .282.004.351.004.672-.189-.255-.611-.108-.593.205-.006.004-.011-.006-.017-.006-.147-.341-.181-.737-.142-1.099m.219-.824c.323-.707 1.25-.494 1.426.204-.095-.008-.194-.005-.269.043.646.559-.896.727-1.206.318-.092-.196.183-.234.251-.33-.072-.068-.176-.082-.272-.064.011-.063.048-.118.07-.171m1.58.794c.022.074.014.165.019.247l.008-.004-.01.017c-.003.28-.037.574-.151.829-.015-.02.01-.038-.003-.056l-.008.007c-.068-.329-.492-.322-.635-.046 0-.271.003-.448.003-.742.085-.009.161-.014.241-.024.036.177.264.213.226-.014.033-.11.232-.112.31-.214m-.404 1.444a.596.596 0 0 1-.378.283c-.201-.464.557-1.03.378-.283m-.65.282c-.259-.028-.467-.343-.374-.588.004-.027.029-.049.05-.069.036.015.038-.029.07-.008.02-.006.03.034.046.008.196.149.231.424.208.657m-1.082.549v-1.487c.543 2.136 2.766 1.144 2.52-.775-.075-1.763-2.118-2.167-2.499-.312-.008.004-.022 0-.03-.004-.004-.401-.001-.699-.001-1.186a5.883 5.883 0 0 0 1.543-1.68c.45-.869.717-1.963.538-2.925-.478.507-1.44.775-2.016.285-.61-.608.597-1.063.375-.259.743-.155.068-1.163-.454-.705-.002-.005-.007-.005-.01-.008.062-.305.053-.705-.174-.944-.181.267-.224.611-.166.919-.555-.439-1.309.553-.545.764.012-.009.019-.015.021-.026-.304-.49.66-.577.503-.017-.27.909-1.678.555-2.154.006h-.01c-.29 1.761.603 3.593 2.058 4.589v1.163l-.016-.001c-.414-1.851-2.316-1.511-2.491.255-.102.82.244 1.966 1.182 2.086.707.058 1.162-.635 1.325-1.238.012-.01 0 .963 0 1.499H13.546v3.192h29.796v-3.192H28.724zm-.731 1.121c-.061-.132-.209-.184-.351-.171l-.002.583c.213.008.44-.191.353-.412" />
    <path fill="#FFF" d="M30.235 10.439c-.039.768 1.132.993.966 1.73.215.096.46-.187.352-.402.174.077.409.122.592.11-1.251 1.143-.567 3.426 1.117 3.678 1.411.298 2.858-1.136 4.2-.28.035-.374-.346-.605-.665-.671 3.437-2.124 4.13 1.221 2.266.579.623-.517-.608-.948-.51-.164.178.711 1.252.795 1.675.262.448-.58.019-1.398-.626-1.599-1.074-.323-2.176.187-3.102.704.083-.214-.099-.431-.306-.42.091.666-.881.835-1.349 1.016.924-1.051-.94-2.464-1.534-1.231-.04.82 1.27.398.573-.114.413-.2.95.356.829.806-.045.861-1.664.899-1.554-.008-.194.024-.327.21-.359.391-.871-.297-.597-2.231.425-1.656.15-.297-.043-.731-.376-.804.577-.966 2.637-.594 2.177.706.364.088.657-.292.743-.606.31.321.321.833.259 1.244.332.052.516-.421.579-.682.141.153.316.327.507.416a.914.914 0 0 0 .107-.507l.01-.01c1.104.62 2.572.133 3.793.279-.419.83-.094 2.633 1.114 2.368.675-.143.309-1.349-.289-.938l.005.02c.614.135.241.921-.257.527-.565-.59-.554-1.802.14-2.299-.598-.02-1.215 0-1.818-.008-.281-.307-.249-1.046.224-1.147.339-.068.336.519.005.334-.002-.008-.045-.028-.053-.014.024.333.518.349.631.059.211-.57-.561-.92-.938-.506.033-.347.08-.84-.211-1.097-.252.296-.232.757-.162 1.109-.42-.453-1.266.082-.805.608.166.213.645.097.514-.182-.209.266-.478-.267-.134-.288.527.006.587.793.329 1.126l-1.279-.001c.116-.068.287-.228.259-.39-1.088.446-1.669-1.143-2.714-1.245.204-.121.278-.436.081-.598h-.013c-.412.675-1.437.169-2.07.47.442-.783-1.012-1.549-1.101-.532.082.461.795.229.581-.189.877.613-.629 1.436-1.221.947v-.011c.192-.084.249-.388.073-.52-.244.542-1.278.283-1.216-.307.978.258.324-1.052-.273-.377-.007-.008-.04-.019-.046-.026 0 .003-.197.43-.145.34M26.698 10.447c.049.757-1.133.995-.964 1.731-.218.092-.459-.185-.353-.402-.173.077-.408.12-.59.108 1.249 1.147.567 3.424-1.118 3.68-1.413.295-2.859-1.137-4.201-.28-.032-.373.348-.607.668-.672-3.438-2.124-4.131 1.219-2.266.58-.622-.519.605-.948.51-.164-.183.711-1.25.795-1.676.262-.491-.644.072-1.527.798-1.648 1.033-.21 2.049.258 2.93.753a.314.314 0 0 1 .306-.42c-.086.669.882.834 1.349 1.017-.443-.523-.228-1.397.434-1.619.419-.201 1.32.03 1.051.624-.313.578-1.053-.015-.542-.371-.513-.14-.98.48-.778.96.172.75 1.645.695 1.522-.141.195.022.326.21.36.39.872-.296.596-2.232-.426-1.655-.147-.3.041-.731.377-.805-.577-.964-2.638-.594-2.177.705-.364.091-.659-.289-.743-.605-.309.322-.32.833-.259 1.244-.331.055-.515-.422-.579-.683-.14.153-.316.329-.507.417a.894.894 0 0 1-.106-.507l-.011-.011c-1.105.62-2.567.133-3.794.279.418.833.096 2.632-1.114 2.368-.674-.146-.308-1.349.29-.937l-.005.017c-.613.138-.241.92.257.529.564-.588.555-1.805-.141-2.299.596-.022 1.214 0 1.819-.008.281-.307.25-1.047-.224-1.148-.337-.07-.335.517-.005.334.003-.009.047-.027.054-.015-.028.335-.514.348-.632.062-.208-.572.558-.921.939-.508-.032-.345-.082-.844.211-1.096.252.295.231.756.163 1.109.417-.455 1.271.085.802.608-.165.215-.643.094-.513-.182.209.264.48-.265.134-.287-.529.004-.585.794-.329 1.126l1.279-.001c-.117-.07-.285-.226-.26-.39 1.09.448 1.667-1.144 2.715-1.244-.206-.12-.275-.436-.083-.6h.016c.406.679 1.437.168 2.067.472-.179-.411.062-.979.54-1.018.375-.093.785.408.434.688-.251.195-.609-.12-.453-.395-.875.618.627 1.436 1.222.95v-.009c-.192-.084-.252-.384-.076-.521.244.541 1.281.284 1.216-.306-.976.255-.318-1.054.274-.377.008-.008.015-.01.021-.019 0-.001.222.421.167.33" />
    <path fill-rule="evenodd" fill="#FFF" d="M39.342 47.534c.341.016.138.302-.107.229v-.229h.107zm.023-.084h-.259v.692h.129v-.296h.129l.141.296h.145l-.154-.316c.263-.071.189-.413-.131-.376m.515.362c.005.683-1.067.673-1.06-.005-.011-.685 1.078-.695 1.06.005m-.531-.615c-.794-.011-.783 1.229 0 1.221.789.011.796-1.235 0-1.221" />
    <path fill="none" d="M11.842 5.885h33.009v44.923H11.842z" />
    <path fill="none" d="M11.842 5.885h33.009v44.923H11.842z" />
</svg>
