<?xml version="1.0" encoding="utf-8" standalone="yes"?>
<!-- Generator: Adobe Illustrator 27.1.1, SVG Export Plug-In . SVG Version: 6.00 Build 0)  -->
<svg xmlns="http://www.w3.org/2000/svg" xmlns:xlink="http://www.w3.org/1999/xlink" version="1.2" baseProfile="tiny-ps" 
     viewBox="0 0 100 100" xml:space="preserve">
<title>Monzo</title>
<rect width="100" height="100" fill="#112231"></rect>
<g>
    <path d="M76.4,60.8c0,0.6-0.3,1.3-0.7,1.7L64.8,73.4c-0.1,0.1-0.3,0.2-0.5,0.3c-0.2,0-0.4,0-0.6-0.1   c-0.2-0.1-0.3-0.2-0.4-0.4c-0.1-0.2-0.2-0.4-0.2-0.5V48.3l13.2-13h0.2L76.4,60.8L76.4,60.8z" fill="#FF4F40"></path>
    <path d="M23.8,60.8c0,0.6,0.3,1.3,0.7,1.7l10.9,10.9c0.1,0.1,0.3,0.2,0.5,0.3c0.2,0,0.4,0,0.6-0.1   c0.2-0.1,0.3-0.2,0.4-0.4c0.1-0.2,0.2-0.4,0.2-0.5V48.3L24,35.3h-0.2V60.8z" fill="#0088A6"></path>
    
    <g>
        <linearGradient id="SVGID_1_" gradientUnits="userSpaceOnUse" x1="67.2333" y1="43.7892" x2="69.2322" y2="45.6634">
            <stop offset="0" stop-color="#DE3F32"></stop>
            <stop offset="1" stop-color="#DE3F32" stop-opacity="0"></stop>
        </linearGradient>
        <path d="M63.1,57.1l13.4-13v-8.9L63.1,48.4V57.1z" fill="url(#SVGID_1_)"></path>
    </g>
    
    <path d="M76.2,34.9l-8.4-8.4c-0.1-0.1-0.2-0.2-0.3-0.2c-0.1,0-0.2-0.1-0.4-0.1s-0.3,0-0.4,0.1c-0.1,0-0.2,0.1-0.3,0.2   L50.3,42.7c-0.1,0.1-0.1,0.1-0.2,0.1v18.6c0.2,0,0.4-0.1,0.6-0.2l12.6-12.5l13-12.9C76.5,35.4,76.5,35.1,76.2,34.9L76.2,34.9z" fill="#BBF42E"></path>
    
    <g>
        <linearGradient id="SVGID_00000067196419249490540380000011076603745798477484_" gradientUnits="userSpaceOnUse" x1="33.086" y1="43.9853" x2="31.0893" y2="45.8596">
            <stop offset="0" stop-color="#007385"></stop>
            <stop offset="1" stop-color="#007385" stop-opacity="0"></stop>
        </linearGradient>
        <path d="M37.1,57.7l-13.4-13v-9.3l13.4,13.1V57.7    z" fill="url(#SVGID_00000067196419249490540380000011076603745798477484_)"></path>
    </g>
    
    <path d="M49.9,42.7L33.7,26.4c-0.1-0.1-0.2-0.2-0.3-0.2l0,0c-0.1,0-0.2-0.1-0.4-0.1c-0.1,0-0.3,0-0.4,0.1   c-0.1,0-0.2,0.1-0.3,0.2L24,34.9c-0.2,0.2-0.2,0.6,0,0.8l13,12.9l12.6,12.5c0.2,0.2,0.4,0.2,0.6,0.2V42.8   C50,42.8,50,42.7,49.9,42.7L49.9,42.7z" fill="#48D3B2"></path>
</g>
</svg>