<?xml version="1.0" encoding="utf-8"?>
<!-- Generator: Adobe Illustrator 28.1.0, SVG Export Plug-In . SVG Version: 6.00 Build 0)  -->
<svg version="1.2" baseProfile="tiny-ps" xmlns="http://www.w3.org/2000/svg" xmlns:xlink="http://www.w3.org/1999/xlink" viewBox="0 0 317.9 317.9" xml:space="preserve">
<title>Bonprix</title>
<g id="Ebene_1">
	<rect x="18.2" y="18.2" fill="none" width="281.5" height="281.5"/>
</g>
<g id="Signet">
	<path d="M158.9,32C89,32,32.4,88.7,32.4,158.6S89,285.2,158.9,285.2s126.6-56.7,126.6-126.6S228.8,32,158.9,32z M38.9,158.6
		c0-44.2,24-83,59.8-103.8v83.8h0l0,15.1c0,6.5,0.2,14,3.1,21.4c8.6,22.5,31.1,30.6,47.9,30.6h6v72.9
		C91,276.9,38.9,223.7,38.9,158.6z M105.1,153.7l0-18.2c0-3.6,1.6-5.2,5.4-5.3c0.2,0,0.5,0,0.7,0h0c14.6,0,34.4,6.9,41.9,26.4
		c2.3,6.1,2.6,12.4,2.7,18.1c0,0.3,0,24.4,0,24.4l-6,0c0,0,0,0-0.1,0c-14.6,0-34.3-6.9-41.8-26.4
		C105.3,166.4,105.1,159.6,105.1,153.7z M162.2,278.6l0-72.9h6c16.8,0,39.3-8.1,47.9-30.6c2.9-7.5,3.1-15,3.1-21.4v-18.2
		c0-7.2-4.5-11.7-11.8-11.8c-0.3,0-0.5,0-0.8,0c-16.7,0-39,8-47.8,30.2c-8.7-22.2-31.1-30.2-47.8-30.2c0,0,0,0,0,0v0h-6V51.3
		c16.2-8.2,34.5-12.8,53.8-12.8c66.2,0,120.1,53.9,120.1,120.1C279,223.7,226.9,276.9,162.2,278.6z M162.2,174.8
		c0-5.6,0.3-12,2.6-18.1c7.5-19.5,27.2-26.4,41.9-26.4c0.2,0,0.5,0,0.7,0c3.7,0,5.3,1.7,5.3,5.3v18.2c0,5.9-0.2,12.7-2.7,19.1
		c-7.5,19.5-27.2,26.4-41.9,26.4c0,0-6,0-6,0S162.2,175.1,162.2,174.8z"/>
</g>
</svg>
