<svg xmlns="http://www.w3.org/2000/svg" xmlns:xlink="http://www.w3.org/1999/xlink" version="1.2" viewBox="0 0 720 720" baseProfile="tiny-ps">
  <title>Meditative Mind Pty Ltd</title>
  <g>
    <g id="Layer_1_00000044160138653820520550000012218211180933301387_">
      <rect width="720" height="720" fill="#EC412D"/>
      <g>
        <path d="M420.51,471.41c85.38-19.29,149.1-93.68,152.82-182.94c-75.16,7.83-120.78,33.83-170.98,104.02     c24.35-71.52,6.77-156.66-44.35-212.6c-51.12,55.92-68.69,141.06-44.35,212.57c-49.72-69.82-96.42-96.44-170.98-103.99     c3.72,89.26,67.44,163.65,152.83,182.94c-43.3-7-120,3.36-157.77,38.27c73.59,55.19,177.56,20.24,220.27-40.24     c13.87,23.9,81.99,73.3,132.2,68.14c32.76,0,63.14-10.33,88.08-27.9C540.44,474.75,463.88,464.42,420.51,471.41z" fill="none"/>
        <path d="M531.737,412.295c34.539-44.742,47.734-104.16,36.771-159.49     c-42.686-8.063-87.888-2.371-126.654,17.116c-12.85-48.402-43.246-91.134-83.83-120.279     c-40.576,29.076-71.018,71.931-83.853,120.279c-38.804-19.502-83.984-25.179-126.654-17.116     c-10.963,55.368,2.271,114.755,36.779,159.49c-25.148,13.671-46.422,34.4-61.697,58.498     c52.821,73.987,163.809,89.3,235.402,33.649c71.54,55.644,182.613,40.315,235.41-33.626l-4.012-5.984     C574.746,443.159,554.599,424.877,531.737,412.295L531.737,412.295z M459.43,489.435c-38.513,3.966-90.781-33.94-101.422-52.276     c-32.774,46.399-112.538,73.212-168.987,30.871c28.977-26.79,87.819-34.73,121.038-29.36     c-65.51-14.799-114.395-71.87-117.249-140.348c57.201,5.792,93.029,26.215,131.173,79.779     c-18.681-54.861-5.194-120.179,34.025-163.08c39.218,42.916,52.705,108.226,34.025,163.103     c38.513-53.841,73.511-73.795,131.173-79.802c-2.854,68.479-51.739,125.549-117.241,140.348     c33.273-5.355,92.016,2.562,121.038,29.36C507.87,481.51,484.571,489.435,459.43,489.435z" fill="#FFFFFF"/>
      </g>
    </g>
  </g>
</svg>
