<?xml version="1.0" encoding="UTF-8" standalone="yes"?>
<svg version="1.2" baseProfile="tiny-ps" viewBox="0 0 800 800" xml:space="preserve" xmlns="http://www.w3.org/2000/svg">
  <title>Skandinaviska Enskilda Banken AB</title>
  <g>
    <path d="M227.53,318.61l-40.77,30.44c-19.25-16.56-44.06-19.81-57.75-19.81c-13.85,0-28.29,3.96-30.53,13.9   c-2.17,9.64,6.78,17.14,22.19,21.32c17.56,4.74,33.55,8.92,58.17,15.95c36.62,10.46,61.67,26.29,61.67,63.04   c0,50.65-44.95,76.89-105.18,76.89c-60.22,0-101.25-31.38-113.52-46.01l43.1-32.23c30.28,26.39,51.33,30.11,68.92,30.11   c20.19,0,39.07-4.34,41.49-15.68c1.97-9.17-5.63-16.47-22.83-20.46c-19.45-4.49-35.88-8.11-54.2-12.93   c-49.67-13.04-63.68-41.91-63.68-67.85c0-35.72,33.25-72.4,94.06-72.4C191.02,282.89,227.53,318.61,227.53,318.61 M487.39,286.46   H305.65v227.14h185.07v-52.37H369.47v-36.59H453v-50.12h-83.53v-36.17h117.91V286.46z M258.61,566.04h14.12V233.96h-14.12V566.04z    M514.59,566.04h14.12V233.96h-14.12V566.04z M561.54,513.61h145.98c39.03,0,70.66-23.52,70.66-61.2   c0-29.39-19.24-48.89-46.2-57.47c0,0-1.11-0.27-2.61-0.33c1.5-0.14,2.61-0.45,2.61-0.45c15.45-6.12,32.55-22.4,32.55-50.11   c0-35.15-31.1-57.58-69.49-57.58h-133.5V513.61z M625.68,333.7h50.99c11.74,0,21.24,9.27,21.24,19.92   c0,10.67-9.5,19.95-21.24,19.95h-50.99V333.7z M688.05,463.12l-62.37,0.02V421.7h62.37c11.03,0,19.97,8.94,19.97,20.71   C708.02,454.2,699.08,463.12,688.05,463.12z"/>
  </g>
</svg>
