<?xml version="1.0" encoding="utf-8"?>
<!-- Generator: Adobe Illustrator 28.0.0, SVG Export Plug-In . SVG Version: 6.00 Build 0)  -->
<svg version="1.2" baseProfile="tiny-ps" id="Layer_1" xmlns="http://www.w3.org/2000/svg" xmlns:xlink="http://www.w3.org/1999/xlink"
	 viewBox="0 0 100 100" xml:space="preserve">
<title>Ducks Unlimited</title>
<rect fill="#506F34" width="99.9" height="99.9"/>
<g>
	<g>
		<g>
			<path fill="#FFFFFF" d="M88.1,55.3c-4.5-3.5-9.8-4.3-14.7-6.8c-4.3-2.2-7.7-5.3-11.1-8.5c-1.6-6.5-6.7-10.5-12.6-12.6
				c0,0-4.8-1.8-11.2-1.8c-6.4,0-9.9,1.8-9.9,1.8c-8.8,3.7-14.8,12.8-16.7,22.6C10.6,56.5,10,62.6,10.4,69c0.2,3.1,0.4,4.6,1,7.7
				l7.6,0c-2.2-6.8-3-7.7-3.5-14.9c-0.5-7,0.6-13.9,4-20.2c2.8-5.3,7.4-9.3,13-11.5c6.7-2.6,14-1.5,20.4,1.2
				c2.9,1.2,5.3,3.3,6.8,6.1c0.1,0.2,0,0.5-0.1,0.4c-1-0.7-1.8-0.9-2.6-1.2C54,35.8,51,35.5,48,35.1c-0.6-0.1-1-1.2-1.8-1.3
				c-0.6-0.1-1.3-0.2-1.9,0.2c-0.8,0.5-1.1,1.3-1.1,2.1c0,1.4,1.3,2.4,2.8,2.2c1.2-0.2,1.3-1.7,2-1.8c4.4-0.5,11.4,2.3,10.4,7.8
				c-0.4,2.3-3,2.9-4.4,4.3c-0.6,0.6,0.2,1.7,0.6,2.6c0.6,1.5-1.6,2.3-2.9,2.7c-3.7,1.2-7.6,0.8-11.4,1.2c-3.3,0.3-6.6,2.2-7.9,5.5
				c-1.3,3.4-1.4,7.1,0.2,10.3c1.6,3.3,4.2,5.9,4.1,5.8l10.7,0c-4.3-2.9-9-4.1-11-9.2c-0.8-2-1-4.2,0.2-6.2c0.8-1.2,1.9-2,3.3-2.3
				c3.1-0.7,6-0.9,9.1-1.3c3.3-0.4,6-2.1,9.2-2.6c3.2-0.5,6,1.7,9.3,2.4c6,1.3,11.8,1.2,17.6,1.1v0l2.6,0c0.6,0,1.2,1,1.7,0.6
				C90.7,58.1,89.2,56.1,88.1,55.3z M86.6,57.4l-1.2,0v0c-3.7,0.1-7.6,0.1-11.4-0.8c-5.3-1.2-9.9-3.2-14.6-5.8
				c-0.3-0.2-0.5-0.5-0.5-0.8c-0.2-2.4,2.3-4.2,1.6-6.8c0,0,0.2-0.5,0.5-0.3c6.6,5.5,14,8.7,22,11.4c1.6,0.5,3.4,1.2,4.1,2.8
				C86.9,57.1,86.7,57.3,86.6,57.4z"/>
			<path fill="#FFFFFF" d="M66.4,48.2c0.3,1.3-1.1,1.1-1.2,0.7c-0.4-1.3-1.3-1.2-0.9-1.6C65.1,47.2,65.9,47.5,66.4,48.2L66.4,48.2z"
				/>
		</g>
	</g>
</g>
</svg>
