<?xml version="1.0" encoding="utf-8"?>
<!-- Generator: Adobe Illustrator 26.5.2, SVG Export Plug-In . SVG Version: 6.00 Build 0)  -->
<svg version="1.2" baseProfile="tiny-ps" id="Layer_1" xmlns="http://www.w3.org/2000/svg" xmlns:xlink="http://www.w3.org/1999/xlink"
	  viewBox="0 0 35.6 35.6" xml:space="preserve">
	  <title>Golden Hippo</title>
<g>
	<g>
		<g>
			<g>
				<path fill="#E1AF24" d="M17.8,0.3c9.6,0,17.4,7.8,17.4,17.4s-7.8,17.5-17.4,17.5S0.3,27.4,0.3,17.8S8.1,0.3,17.8,0.3 M17.8,0
					C13,0,8.6,1.9,5.2,5.2S0,13,0,17.8S1.9,27,5.2,30.4s7.8,5.2,12.6,5.2s9.2-1.9,12.6-5.2s5.2-7.8,5.2-12.6s-1.9-9.2-5.2-12.6
					C27,1.9,22.5,0,17.8,0L17.8,0z"/>
			</g>
			<g>
				<path fill="#E1AF24" d="M17.7,11.8c0,0-0.1-0.1-0.2-0.1c-0.1-0.1-0.3-0.2-0.5-0.2c-0.2-0.1-0.5-0.2-0.8-0.2
					c-0.2,0-0.3,0-0.5,0.1s-0.3,0.1-0.5,0.2c-0.2,0.1-0.3,0.2-0.4,0.3c-0.1,0.1-0.1,0.1-0.2,0.2c-0.1,0.1-0.1,0.1-0.2,0.2
					c-0.1,0.1-0.2,0.3-0.3,0.4C14,12.8,14,13,13.9,13.1s-0.1,0.2-0.1,0.3s-0.1,0.2-0.1,0.3c0,0.2,0,0.2,0,0.2h0.1
					c0,0,0.1-0.1,0.1-0.2c0.1-0.1,0.1-0.2,0.1-0.2c0-0.1,0.1-0.1,0.1-0.2c0.1-0.1,0.1-0.1,0.1-0.2c0.1-0.1,0.1-0.2,0.2-0.3
					c0.1-0.1,0.1-0.1,0.1-0.2s0.1-0.1,0.1-0.2c0.1-0.1,0.2-0.2,0.3-0.3s0.2-0.2,0.4-0.3c0.1-0.1,0.3-0.1,0.4-0.2
					c0.2-0.1,0.3-0.1,0.4-0.1c0.3,0,0.5,0,0.8,0.1c0.2,0.1,0.4,0.1,0.5,0.2C17.7,11.8,17.7,11.8,17.7,11.8L17.7,11.8z"/>
			</g>
			<g>
				<path fill="#E1AF24" d="M13.9,13.5c-0.1-0.1-0.3-0.1-0.4-0.1c-0.1-0.1-0.3-0.1-0.4-0.1c-0.1,0-0.1,0-0.2-0.1
					c-0.1,0-0.1,0-0.2-0.1C12.6,13,12.4,13,12.3,13s-0.3-0.1-0.4-0.1c0.2,0.1,0,0.1-0.1,0.1c-0.2,0-0.3,0.1-0.4,0.2
					c-0.1,0.1-0.2,0.2-0.2,0.3l0,0l0,0c0,0.1,0,0.1,0.1,0.2c0.1,0.1,0.1,0.1,0.1,0.1c0.1,0.1,0.2,0.1,0.2,0.1
					c0.1,0.1,0.1,0.1,0.2,0.2c0.1,0.1,0.1,0.1,0.1,0.2c0,0.1,0.1,0.2,0.1,0.2c0,0.1,0,0.2,0,0.2l0,0l0,0l0,0l0,0h-0.1l-0.1,0.1
					l-0.3,0.1c-0.3,0.1-0.6,0.2-0.9,0.4c-0.2,0.1-0.3,0.1-0.5,0.2c-0.1,0.1-0.2,0.1-0.2,0.1c-0.1,0.1-0.2,0.1-0.2,0.1h0.2
					c-0.3-0.3-0.6-0.5-1-0.6c-0.4-0.2-0.7-0.2-1.1-0.3s-0.8-0.1-1.1,0c-0.4,0.1-0.8,0.1-1.1,0.2c-0.3-0.1-0.6,0-1,0.1
					s-0.7,0.2-1.1,0.3c-0.1,0-0.2,0.1-0.3,0.1l-0.2,0c-0.2,0.1-0.4,0.1-0.6,0.1c-0.2,0.1-0.4,0.1-0.5,0.2S1.6,15.9,1.4,16l0,0
					c0.4-0.1,0.7-0.2,1.1-0.3c0.2-0.1,0.4-0.1,0.5-0.1h0.3c0.1,0,0.2,0,0.3-0.1c0.2-0.1,0.4-0.1,0.6-0.1l0.5-0.2L5.2,15
					c0.2-0.1,0.4-0.1,0.5-0.2c0.4-0.1,0.7-0.2,1.1-0.2c0.4-0.1,0.7-0.1,1.1-0.1c0.4,0,0.7,0.1,1,0.2c0.3,0.1,0.7,0.3,0.9,0.6
					l0.1,0.1l0.1-0.1c0.3-0.2,0.6-0.3,0.9-0.4c0.3-0.2,0.6-0.3,0.9-0.4l0.2-0.1l0.1-0.1h0.1l0,0l0,0l0,0c0,0,0.1,0,0.1-0.1
					c0.1-0.1,0.1-0.1,0.1-0.2c0-0.1,0-0.1,0-0.2c0-0.1-0.1-0.2-0.1-0.3s-0.1-0.2-0.1-0.3C12.1,13.1,12,13,12,13
					c-0.1-0.1-0.2-0.1-0.2-0.1c-0.1-0.1-0.1-0.1-0.1-0.2l0,0c0.1-0.1,0.1-0.2,0.2-0.3c0.1-0.1,0.2-0.1,0.3-0.1s0.3,0,0.4,0.1
					c0.1,0,0.3,0.1,0.4,0.1c0.1,0.1,0.3,0.1,0.4,0.1c0.1,0,0.1,0,0.2,0.1c0.1,0,0.1,0,0.2,0c0.1,0,0.3,0.1,0.4,0.1
					C13.7,13.5,13.8,13.5,13.9,13.5L13.9,13.5z"/>
			</g>
			<g>
				<path fill="#E1AF24" d="M10.2,16.5c0,0,0-0.1,0-0.2s0-0.2-0.1-0.2c0-0.1-0.1-0.2-0.1-0.3c0,0,0-0.1,0-0.2c0-0.1-0.1-0.1-0.1-0.1
					c-0.1-0.1-0.1-0.1-0.1-0.1c-0.1,0-0.1-0.1-0.1-0.1c-0.1,0-0.1,0-0.1,0c-0.1,0-0.1,0-0.1,0v0.1c0,0,0,0.1,0.1,0.1
					c0,0.1,0.1,0.1,0.1,0.2c0,0.1,0.1,0.1,0.1,0.2C9.9,16,9.9,16,10,16.1C10,16.2,10.2,16.5,10.2,16.5L10.2,16.5z"/>
			</g>
			<g>
				<path fill="#E1AF24" d="M16.9,13c0,0-0.1,0.1-0.2,0.2c-0.1,0.1-0.2,0.1-0.3,0.1c-0.1,0.1-0.2,0.1-0.3,0.1
					c-0.1,0-0.2,0.1-0.3,0.1s-0.1,0-0.2,0c-0.1,0-0.1,0-0.1,0c-0.1,0-0.1,0-0.1,0c-0.1,0-0.1,0-0.1,0h-0.1l0,0c0,0,0,0,0.1,0.1
					c0,0,0.1,0,0.1,0.1c0.1,0,0.1,0,0.1,0.1c0.1,0,0.1,0,0.2,0c0.1,0,0.1,0,0.2,0c0.1,0,0.1,0,0.2-0.1c0.1,0,0.1-0.1,0.2-0.1
					c0.1-0.1,0.2-0.1,0.3-0.2c0.1-0.1,0.2-0.1,0.3-0.2C16.8,13.1,16.9,13,16.9,13L16.9,13z"/>
			</g>
			<g>
				<path fill="#E1AF24" d="M17,12.5C17,12.5,17,12.6,17,12.5c-0.1,0.1-0.1,0.1-0.1,0.1c-0.1,0-0.1,0.1-0.1,0.1
					c-0.1,0-0.1,0.1-0.1,0.1c-0.1,0-0.1,0.1-0.1,0.1c-0.1,0-0.1,0.1-0.2,0.1s-0.1,0-0.2,0.1c-0.1,0-0.1,0-0.2,0c-0.1,0-0.1,0-0.2,0
					s-0.1,0-0.2,0s-0.1,0-0.1,0c-0.2,0-0.3,0.1-0.3,0.1l0,0c0,0,0.1,0.1,0.3,0.1c0.1,0,0.1,0,0.1,0c0.1,0,0.1,0,0.2,0
					c0.1,0,0.1,0,0.2-0.1c0.1,0,0.1,0,0.2-0.1c0.1,0,0.1-0.1,0.2-0.1s0.1-0.1,0.2-0.1s0.1-0.1,0.1-0.1c0.1-0.1,0.1-0.1,0.1-0.1
					c0.1,0,0.1-0.1,0.1-0.1L17,12.5C17,12.6,17,12.6,17,12.5L17,12.5z"/>
			</g>
			<g>
				<path fill="#E1AF24" d="M17.1,12.4c0,0,0-0.1-0.1-0.1c-0.1-0.1-0.1-0.2-0.2-0.2c0-0.1,0-0.1-0.1-0.1c-0.1,0-0.1-0.1-0.1-0.1
					c-0.1,0-0.1,0-0.1-0.1c-0.1,0-0.1,0-0.1,0c-0.1,0-0.1,0-0.1,0c-0.1,0-0.2,0-0.3,0.1l0,0.1h-0.1c-0.1,0-0.1,0.1-0.1,0.1
					c-0.1,0-0.1,0.1-0.1,0.1c-0.1,0.1-0.2,0.1-0.2,0.2c-0.1,0.1-0.1,0.1-0.2,0.2c-0.1,0.1-0.1,0.1-0.1,0.2c-0.1,0.1-0.1,0.1-0.1,0.1
					C15,13,15,13,15,13l0,0c0,0,0.1,0,0.1-0.1c0.1,0,0.1-0.1,0.1-0.1c0.1-0.1,0.1-0.1,0.2-0.1c0.1-0.1,0.1-0.1,0.2-0.1
					c0.1-0.1,0.1-0.1,0.2-0.1c0.1,0,0.1-0.1,0.1-0.1c0.1,0,0.1-0.1,0.1-0.1l0.1-0.1V12c0.1-0.1,0.2-0.1,0.2-0.1c0.1,0,0.1,0,0.1,0
					c0.1,0,0.1,0,0.1,0c0.1,0,0.1,0,0.1,0c0.1,0,0.1,0,0.1,0.1c0.1,0.1,0.1,0.1,0.2,0.1c0.1,0.1,0.2,0.2,0.2,0.2
					C17.1,12.3,17.1,12.4,17.1,12.4L17.1,12.4z"/>
			</g>
			<g>
				<path fill="#E1AF24" d="M16.8,12.3c0,0-0.1-0.1-0.3-0.1c-0.2-0.1-0.4-0.1-0.6-0.1c-0.1,0-0.1,0-0.2,0.1c-0.1,0-0.1,0.1-0.2,0.1
					c-0.1,0-0.1,0.1-0.1,0.1c-0.1,0-0.1,0.1-0.1,0.1c-0.1,0.1-0.1,0.1-0.1,0.1c0,0.1-0.1,0.1-0.1,0.1c0,0.1-0.1,0.1-0.1,0.1l0,0
					c0,0,0,0,0.1-0.1c0,0,0.1,0,0.1-0.1l0.1-0.1c0.1,0,0.1-0.1,0.1-0.1l0.1-0.1c0.1-0.1,0.2-0.1,0.3-0.1c0.2-0.1,0.4-0.1,0.5-0.1
					C16.7,12.3,16.8,12.3,16.8,12.3L16.8,12.3z"/>
			</g>
			<g>
				<path fill="#E1AF24" d="M16.1,12.7c0.1,0.2,0.2,0.2,0.4,0.2c0.2-0.1,0.3-0.2,0.2-0.4c-0.1-0.2-0.2-0.2-0.4-0.2
					C16.1,12.4,16,12.5,16.1,12.7z M16.2,12.5c0.1,0,0.1,0,0.1,0.1s0,0.1-0.1,0.1s-0.1,0-0.1-0.1S16.1,12.5,16.2,12.5z"/>
			</g>
			<g>
				<path fill="#E1AF24" d="M19.6,22.8c0,0-0.1-0.7-0.2-1.3c0-0.2-0.1-0.3-0.1-0.5s-0.1-0.3-0.1-0.4s-0.1-0.2-0.1-0.3
					c0-0.1,0-0.1,0-0.1v-0.1l0,0c0,0,0,0,0,0.1v0.1c0,0.1,0,0.1,0,0.2s0,0.1,0,0.2s0,0.3,0.1,0.4c0,0.2,0.1,0.3,0.1,0.5
					C19.4,22.2,19.6,22.8,19.6,22.8L19.6,22.8z"/>
			</g>
			<g>
				<path fill="#E1AF24" d="M19.3,22c0,0-0.1-0.3-0.1-0.6c0-0.2-0.1-0.4-0.1-0.6s0-0.5-0.1-0.7c0-0.1,0-0.3,0-0.4s0-0.2,0-0.4
					c0-0.2,0-0.4,0-0.6s0-0.3,0-0.4s0-0.2,0-0.2l0,0c0,0,0,0.1-0.1,0.2c0,0.1-0.1,0.3-0.1,0.4c0,0.2-0.1,0.4-0.1,0.6
					c0,0.1,0,0.2,0,0.4c0,0.1,0,0.3,0,0.4c0,0.3,0.1,0.5,0.1,0.7c0.1,0.2,0.1,0.4,0.1,0.6C19.2,21.8,19.2,22,19.3,22L19.3,22z"/>
			</g>
			<g>
				<path fill="#E1AF24" d="M18.9,20.3c0,0,0-0.2,0-0.5c0-0.2,0-0.3,0-0.5s0-0.4,0-0.5c0-0.2,0.1-0.4,0.1-0.5c0-0.2,0-0.3,0.1-0.5
					c0-0.2,0-0.3,0-0.3c0-0.1,0-0.1,0-0.1l0,0c0,0,0,0.1-0.1,0.1c0,0.1-0.1,0.2-0.1,0.3c-0.1,0.2-0.1,0.3-0.1,0.5c0,0.1,0,0.2,0,0.3
					c0,0.1,0,0.2,0,0.3c0,0.2,0,0.4,0,0.5c0,0.2,0,0.3,0.1,0.5C18.8,20.1,18.9,20.3,18.9,20.3L18.9,20.3z"/>
			</g>
			<g>
				<path fill="#E1AF24" d="M18.7,18c0,0,0.1-0.1,0.1-0.3c0-0.1,0.1-0.2,0.1-0.3c0.1-0.1,0.1-0.2,0.1-0.3s0.1-0.2,0.1-0.3
					c0-0.1,0.1-0.2,0.1-0.3c0-0.2,0-0.3,0-0.3l0,0c0,0-0.1,0.1-0.1,0.3C19,16.6,19,16.7,19,16.8c0,0.1-0.1,0.2-0.1,0.4
					c0,0.1-0.1,0.2-0.1,0.4C18.8,17.7,18.8,17.8,18.7,18C18.6,17.9,18.6,18,18.7,18L18.7,18z"/>
			</g>
			<g>
				<path fill="#E1AF24" d="M22.1,20C22,20.2,22,20.4,22,20.6c0,0.1,0,0.2,0.1,0.3c0,0.1,0.1,0.2,0.1,0.3v0.2c0,0.1,0,0.1,0,0.2
					s0,0.2,0,0.3v0.2c0,0.1,0,0.1,0,0.2c0.1,0.1,0.1,0.2,0.1,0.3v-0.1c0,0.2,0,0.3,0.1,0.4c0,0.1,0,0.2,0,0.2c0,0.1,0,0.2,0,0.2l0,0
					c0-0.1,0.1-0.2,0.1-0.2c0-0.1,0-0.2,0.1-0.2c0-0.2,0-0.3,0-0.4l0,0l0,0c-0.1-0.1-0.1-0.2-0.1-0.3c-0.1-0.1-0.1-0.2-0.1-0.3
					c-0.1-0.1-0.1-0.2-0.1-0.3c0-0.1-0.1-0.2-0.1-0.3s0-0.2,0-0.3s0-0.2,0-0.3C22.2,20.4,22.2,20.2,22.1,20L22.1,20z"/>
			</g>
			<g>
				<path fill="#E1AF24" d="M21.7,21.6c0,0,0.1-0.3,0.1-0.7c0-0.1,0.1-0.2,0.1-0.3c0-0.1,0-0.2,0-0.2c0-0.1-0.1-0.2-0.1-0.2l0,0
					c0,0-0.1,0.1-0.1,0.2s-0.1,0.2-0.1,0.2c0,0.1,0,0.2,0,0.3C21.6,21.2,21.6,21.6,21.7,21.6L21.7,21.6z"/>
			</g>
			<g>
				<path fill="#E1AF24" d="M21.5,20.2c0,0,0.1-0.2,0.2-0.4c0-0.1,0.1-0.1,0.1-0.2s0-0.1,0-0.2s0-0.2,0-0.2l0,0l-0.1,0.1
					c0,0.1-0.1,0.1-0.1,0.2s0,0.1,0,0.2s-0.1,0.2,0,0.3C21.5,20.1,21.5,20.2,21.5,20.2L21.5,20.2z"/>
			</g>
			<g>
				<path fill="#E1AF24" d="M21.6,17.7c0,0-0.1,0.1-0.1,0.2c-0.1,0.2-0.1,0.3-0.2,0.5c0,0.1-0.1,0.2-0.1,0.3c0,0.1,0,0.2,0,0.3
					c0,0.1,0,0.2,0.1,0.2c0,0.1,0,0.1,0,0.1l0,0c0,0,0,0,0-0.1s0-0.1,0.1-0.2c0-0.1,0.1-0.2,0.1-0.3c0-0.1,0-0.2,0-0.3
					c0-0.2,0.1-0.4,0.1-0.5C21.6,17.8,21.6,17.7,21.6,17.7L21.6,17.7z"/>
			</g>
			<g>
				<path fill="#E1AF24" d="M22,14.5c0,0,0.1-0.1,0.3-0.3c0.1-0.1,0.2-0.2,0.3-0.3c0.1-0.1,0.3-0.3,0.4-0.4c0.2-0.2,0.3-0.3,0.5-0.5
					c0.1-0.1,0.2-0.2,0.3-0.3c0.1-0.1,0.2-0.2,0.3-0.3c0.2-0.2,0.4-0.4,0.6-0.5c0.1-0.1,0.2-0.2,0.3-0.2c0.1-0.1,0.2-0.1,0.4-0.2
					c0.1-0.1,0.1-0.1,0.2-0.1l0.2-0.1l0.2-0.1l0.2-0.1c0.1,0,0.1-0.1,0.2-0.1s0.1,0,0.2-0.1c0.1,0,0.3-0.1,0.4-0.1s0.3-0.1,0.4-0.1
					s0.1,0,0.2,0s0.1,0,0.2,0s0.1,0,0.2,0s0.1-0.1,0.2-0.1c0.1-0.1,0.2-0.1,0.3-0.1c0.1-0.1,0.2-0.1,0.3-0.2
					c0.1-0.1,0.2-0.1,0.2-0.2c0.2-0.1,0.3-0.2,0.4-0.3c0.2-0.2,0.3-0.2,0.3-0.2l0,0c0,0-0.1,0.1-0.3,0.2C29.3,9.9,29.2,9.9,29,10
					c-0.9,0.9-1,0.9-1,1c-0.1,0.1-0.2,0.1-0.3,0.1c-0.1,0.1-0.2,0.1-0.3,0.1c-0.1,0-0.1,0-0.2,0.1c-0.1,0-0.1,0-0.2,0l0,0l0,0l0,0
					l0,0l0,0h-0.1H27c-0.1,0-0.1,0-0.2,0.1c-0.1,0-0.3,0.1-0.4,0.1c-0.1,0.1-0.3,0.1-0.4,0.1s-0.1,0.1-0.2,0.1s-0.1,0.1-0.2,0.1
					l-0.2,0.1h-0.3L24.9,12c-0.1,0.1-0.1,0.1-0.2,0.1c-0.1,0.1-0.2,0.2-0.3,0.2c-0.1,0.1-0.2,0.2-0.3,0.2c-0.2,0.2-0.4,0.3-0.6,0.5
					s-0.4,0.3-0.6,0.5s-0.3,0.3-0.5,0.5C22.2,14.1,21.9,14.5,22,14.5L22,14.5z"/>
			</g>
			<g>
				<path fill="#E1AF24" d="M24.2,9.2c0-0.1,0.1-0.1,0.1-0.1C24.3,9,24.4,9,24.4,9c0-0.1,0.1-0.1,0.1-0.1c0-0.1,0.1-0.1,0.1-0.1
					c0-0.1,0.1-0.1,0.1-0.1c0.1-0.1,0.1-0.1,0.1-0.1c0.1,0,0.1-0.1,0.1-0.1C25,8.5,25,8.4,25,8.4c0.1,0,0.1-0.1,0.1-0.1
					C25,8.5,25,8.5,25,8.5c0.1,0,0.1,0,0.1-0.1c0.1,0,0.1,0,0.1,0h0.1c0.1,0,0.1,0,0.1,0c0.1,0,0.1,0,0.1,0.1c0.1,0,0.1,0.1,0.1,0.1
					l0,0l0.1,0.1c0,0,0,0,0.1,0.1c0,0,0,0,0.1,0.1c0,0,0,0,0,0.1v0.1v0.1v0.1c0,0,0,0.1-0.1,0.1l0,0l0.1-0.1c0,0,0-0.1,0.1-0.1V8.8
					V8.7l0,0c0,0,0-0.1-0.1-0.1c0,0,0-0.1-0.1-0.1l-0.1-0.1l0,0c-0.1-0.1-0.1-0.1-0.1-0.1c-0.1,0-0.1-0.1-0.1-0.1
					c-0.1,0-0.1,0-0.2-0.1c-0.1,0-0.1,0-0.2,0s-0.1,0-0.2,0s-0.1,0-0.2,0.1c-0.1,0-0.1,0.1-0.1,0.1c-0.1,0-0.1,0.1-0.1,0.1
					c-0.1,0-0.1,0.1-0.1,0.1c-0.1,0-0.1,0.1-0.1,0.1l-0.1,0.1c-0.1,0.1-0.1,0.1-0.1,0.1c0,0.1-0.1,0.1-0.1,0.1C24.2,9,24.2,9,24.2,9
					c0,0.1-0.1,0.1-0.1,0.2H24.2L24.2,9.2z"/>
			</g>
			<g>
				<path fill="#E1AF24" d="M24.9,9L24.9,9c0.1,0,0.2,0,0.3,0.1c0.1,0,0.2,0,0.3-0.1c0,0,0,0,0-0.1s-0.1-0.1,0-0.1
					c0.1-0.1,0.1,0,0.1-0.1s-0.1-0.1-0.2-0.1c-0.1-0.1-0.2,0-0.2,0c-0.1,0-0.1,0-0.2,0s0,0.1-0.1,0.1c-0.1,0.1-0.2,0.1-0.3,0.2
					c-0.1,0-0.1,0.1-0.1,0.1c0,0.1,0.1,0.1,0.2,0.1C24.8,9.1,24.8,9.1,24.9,9z"/>
			</g>
			<g>
				<path fill="#E1AF24" d="M24.5,9.7L24.5,9.7C24.6,9.6,24.6,9.6,24.5,9.7c0.1-0.1,0.1-0.1,0.1-0.1s0,0,0.1,0c0,0,0,0,0.1,0h0.1
					c0,0,0,0,0.1,0c0,0,0,0,0.1,0h0.1H25l0,0l0,0c0,0,0,0,0-0.1c0,0,0-0.1-0.1-0.1c-0.1-0.1-0.2-0.1-0.2-0.1c-0.1,0-0.2,0.1-0.2,0.2
					C24.5,9.6,24.5,9.7,24.5,9.7L24.5,9.7z"/>
			</g>
			<g>
				<path fill="#E1AF24" d="M26.2,9.4L26.2,9.4c0.1-0.1,0.1-0.1,0.1-0.1s0,0,0.1,0l0,0l0,0l0,0l0,0l0,0l0,0c0,0,0,0,0.1,0h0.1h0.1
					l0,0c0,0,0-0.1-0.1-0.1c-0.1-0.1-0.1-0.1-0.2-0.1s-0.1,0.1-0.2,0.2C26.1,9.4,26.1,9.4,26.2,9.4L26.2,9.4z"/>
			</g>
			<g>
				<path fill="#E1AF24" d="M27.2,9.2C27.2,9.2,27.3,9.2,27.2,9.2C27.3,9.2,27.3,9.2,27.2,9.2c0.1,0,0.1,0,0.1,0s0.1,0,0.1,0.1
					c0,0,0,0,0.1,0c0,0,0,0,0.1,0h0.1c0,0,0,0,0.1,0c0,0,0,0,0.1,0l0,0l0,0v0.1l0,0c0,0,0.1-0.1,0-0.1c0-0.1-0.1-0.1-0.2-0.2
					c-0.1,0-0.2,0-0.2,0s0,0-0.1,0C27.3,9.1,27.2,9.1,27.2,9.2L27.2,9.2L27.2,9.2z"/>
			</g>
			<g>
				<path fill="#E1AF24" d="M27.8,8.6L27.8,8.6C27.8,8.6,27.8,8.7,27.8,8.6L27.8,8.6L27.8,8.6L27.8,8.6L27.8,8.6L27.8,8.6
					c0.1,0.1,0.1,0.1,0.1,0.1s0,0.1,0.1,0.1c0,0,0,0.1,0.1,0.1V9l0,0l0,0L28,8.8c0-0.1,0-0.2,0-0.2s0,0-0.1,0S27.9,8.6,27.8,8.6
					L27.8,8.6L27.8,8.6z"/>
			</g>
			<g>
				<path fill="#E1AF24" d="M26.7,8.5L26.7,8.5L26.7,8.5c0.1-0.1,0.1-0.1,0.1-0.1s0,0,0.1,0c0,0,0,0,0.1,0h0.1H27c0,0,0,0,0.1,0l0,0
					l0,0l0,0l0,0l0,0c0,0.1,0-0.1,0-0.1l0,0l0,0l0,0l0,0l0,0l0,0l0,0l0,0c0,0,0,0.1-0.1,0.1l0,0l0,0l0,0l0,0c0,0,0,0,0.1,0
					c0,0,0.1,0,0.1-0.1l0.1-0.1c0,0,0,0,0-0.1l0,0l0,0C27.3,8,27.2,8,27.2,8c-0.1,0-0.1,0-0.2,0h-0.1l-0.1,0.1v0.1
					C26.7,8.5,26.7,8.5,26.7,8.5L26.7,8.5L26.7,8.5z"/>
			</g>
			<g>
				<path fill="#E1AF24" d="M26.4,10.3C26.4,10.3,26.5,10.3,26.4,10.3C26.5,10.3,26.5,10.4,26.4,10.3c0.1,0.1,0.1,0.1,0.1,0.1
					l0.1,0.1l0,0l0,0l0,0c0,0,0,0,0-0.1h0.1v0.1v0.1l0,0c0,0,0.1,0,0.1-0.1l0.1-0.1c0-0.1,0-0.1-0.1-0.1c-0.1-0.1-0.1-0.1-0.2,0
					C26.5,10.3,26.4,10.3,26.4,10.3L26.4,10.3z"/>
			</g>
			<g>
				<path fill="#E1AF24" d="M21.6,22.2c0,0,0.1,0.3,0.1,0.7c0.1,0.4,0.2,0.9,0.4,1.4c0.1,0.1,0.1,0.3,0.2,0.4s0.2,0.3,0.2,0.4
					l0.1,0.1l0.1,0.1l0.1,0.1c0.1,0,0.1,0.1,0.1,0.1c0.1,0.1,0.2,0.1,0.3,0.2c0.4,0.2,0.6,0.3,0.6,0.3l0,0c0,0-0.1-0.1-0.2-0.1
					c-0.1-0.1-0.1-0.1-0.2-0.1c-0.1-0.1-0.2-0.1-0.3-0.2c-0.1-0.1-0.2-0.1-0.3-0.2L22.7,25l0,0h-0.1l-0.1-0.1
					c-0.1-0.1-0.2-0.2-0.2-0.3c-0.1-0.1-0.1-0.2-0.2-0.4c-0.2-0.5-0.4-1-0.5-1.4C21.7,22.5,21.6,22.2,21.6,22.2L21.6,22.2z"/>
			</g>
			<g>
				<path fill="#E1AF24" d="M18.3,27.6c0,0-0.1-0.1-0.2-0.1S18,27.4,18,27.4c-0.1,0-0.1-0.1-0.1-0.1c-0.1,0-0.1-0.1-0.1-0.1
					l-0.1-0.1c-0.1-0.1-0.1-0.2-0.2-0.2c-0.1-0.1-0.1-0.1-0.2-0.2s-0.2-0.1-0.2-0.1l0,0c0,0,0.1,0.1,0.1,0.2
					c0.1,0.1,0.1,0.1,0.2,0.2s0.1,0.1,0.2,0.2s0.1,0.1,0.1,0.1c0.1,0.1,0.1,0.1,0.1,0.1c0.1,0.1,0.2,0.1,0.2,0.1
					C18.2,27.6,18.3,27.7,18.3,27.6L18.3,27.6z"/>
			</g>
			<g>
				<path fill="#E1AF24" d="M17.8,27.9l0.1,0.1c0.1,0,0.1,0.1,0.1,0.1c0.1,0,0.1,0.1,0.2,0.1s0.1,0.1,0.2,0.1s0.1,0,0.2,0
					s0.2-0.1,0.2-0.1l0,0l-0.1-0.1c-0.1,0-0.1,0-0.1-0.1h-0.1c-0.1,0-0.1,0-0.1,0c-0.1,0-0.1,0-0.2-0.1c-0.1,0-0.1-0.1-0.2-0.1
					C17.8,27.9,17.8,27.8,17.8,27.9L17.8,27.9z"/>
			</g>
			<g>
				<path fill="#E1AF24" d="M15.9,24.3c0,0,0.3,0.8,0.6,1.5c0.1,0.2,0.2,0.4,0.3,0.6c0.1,0.2,0.2,0.4,0.3,0.5
					c0.1,0.1,0.1,0.1,0.1,0.2c0.1,0.1,0.1,0.1,0.1,0.2c0.1,0.1,0.1,0.1,0.1,0.1l0,0c0,0,0-0.1-0.1-0.2s-0.1-0.2-0.2-0.4
					c-0.1-0.2-0.2-0.3-0.2-0.5c-0.1-0.2-0.2-0.4-0.3-0.6C16.2,25,15.9,24.3,15.9,24.3L15.9,24.3z"/>
			</g>
			<g>
				<path fill="#E1AF24" d="M12.8,22.4c0,0,0.1,0.3,0.2,0.6c0,0.1,0.1,0.2,0.1,0.2c0,0.1,0.1,0.2,0.1,0.2c0.1,0.1,0.1,0.2,0.1,0.2
					l0,0c0,0,0-0.1,0-0.2s0-0.1-0.1-0.2c0-0.1-0.1-0.2-0.1-0.2c-0.1-0.2-0.1-0.3-0.2-0.4C12.9,22.5,12.8,22.4,12.8,22.4L12.8,22.4z"
					/>
			</g>
			<g>
				<path fill="#E1AF24" d="M12.4,22.2c0,0-0.2-0.6-0.4-1.1c0-0.1,0-0.3-0.1-0.4c-0.1-0.2-0.1-0.3-0.1-0.4s-0.1-0.1-0.1-0.2
					s0-0.1,0-0.1c0-0.1,0-0.1,0-0.1l0,0V20c0,0.1,0,0.1,0,0.1c0,0.1,0,0.1,0,0.2s0.1,0.3,0.1,0.4c0.1,0.2,0.1,0.3,0.2,0.4
					c0.1,0.3,0.2,0.6,0.3,0.8C12.3,22.1,12.4,22.2,12.4,22.2L12.4,22.2z"/>
			</g>
			<g>
				<path fill="#E1AF24" d="M11.8,21.4c0,0-0.2-0.7-0.3-1.4c-0.1-0.2-0.1-0.4-0.1-0.5s-0.1-0.2-0.1-0.3c0-0.1,0-0.2-0.1-0.2
					c0-0.2-0.1-0.3-0.1-0.3c0-0.1,0-0.1,0-0.1l0,0c0,0,0,0.1-0.1,0.1c0,0.1,0,0.1,0,0.2s0,0.1,0,0.2c0,0.2,0,0.3,0.1,0.5
					s0.1,0.4,0.1,0.5c0.1,0.4,0.2,0.7,0.3,1C11.7,21.2,11.7,21.4,11.8,21.4L11.8,21.4z"/>
			</g>
			<g>
				<path fill="#E1AF24" d="M11.1,19.4c0,0-0.1-0.5-0.1-0.9c0-0.1,0-0.2,0-0.3c0-0.1,0-0.2,0-0.3s0-0.2,0-0.2c0-0.1,0-0.1,0-0.1l0,0
					l0,0v0.1c-0.1,0.1-0.1,0.1-0.1,0.2s-0.1,0.2,0,0.3c0,0.1,0,0.2,0.1,0.4C10.9,19,11,19.4,11.1,19.4L11.1,19.4z"/>
			</g>
			<g>
				<path fill="#E1AF24" d="M13.9,27.6c0,0,0.1,0.1,0.1,0.3c0.1,0.2,0.2,0.4,0.3,0.6c0.1,0.1,0.2,0.2,0.2,0.3
					c0.1,0.1,0.1,0.1,0.1,0.2c0.1,0.1,0.1,0.1,0.1,0.1c0.1,0.1,0.1,0.1,0.1,0.1c0.1,0,0.1,0.1,0.1,0.1c0.1,0,0.1,0,0.1,0l0,0
					c0,0,0,0-0.1-0.1l0-0.2c-0.1-0.1-0.1-0.1-0.1-0.1c-0.1-0.1-0.1-0.1-0.1-0.1c-0.1-0.1-0.1-0.1-0.1-0.1c-0.1-0.1-0.2-0.2-0.3-0.3
					c-0.2-0.2-0.3-0.4-0.4-0.6C14,27.7,13.9,27.6,13.9,27.6L13.9,27.6z"/>
			</g>
			<g>
				<path fill="#E1AF24" d="M14.8,28.3c0,0,0,0.1,0.1,0.2c0,0.1,0.1,0.1,0.1,0.2c0.1,0.1,0.1,0.1,0.1,0.2s0.1,0.1,0.1,0.1
					c0,0.1,0.1,0.1,0.1,0.1c0.1,0.1,0.1,0.1,0.2,0.1c0.1,0.1,0.2,0.1,0.2,0.1l0,0l-0.1-0.1c-0.1-0.1-0.1-0.1-0.1-0.1
					C15.4,29,15.4,29,15.3,29c-0.1-0.1-0.1-0.1-0.2-0.1C15,28.8,15,28.8,15,28.8C14.8,28.4,14.8,28.3,14.8,28.3L14.8,28.3z"/>
			</g>
			<g>
				<path fill="#E1AF24" d="M15.6,28.8v0.1c0,0.1,0.1,0.1,0.1,0.2s0,0.1,0.1,0.1l0.1,0.1c0.1,0,0.1,0,0.1,0l0,0v-0.1
					c0,0,0-0.1-0.1-0.1L15.8,29c-0.1-0.1-0.1-0.1-0.1-0.1C15.6,28.8,15.6,28.8,15.6,28.8L15.6,28.8z"/>
			</g>
			<g>
				<path fill="#E1AF24" d="M11.9,26.1c0,0,0,0.1,0.1,0.3c0,0.1,0.1,0.1,0.1,0.1c0,0.1,0.1,0.1,0.1,0.2s0.1,0.1,0.1,0.2
					s0.1,0.1,0.1,0.2c0.1,0.1,0.1,0.1,0.1,0.2s0.1,0.1,0.1,0.2c0.1,0.1,0.1,0.1,0.1,0.1c0.1,0.1,0.1,0.1,0.1,0.1
					c0.2,0.1,0.3,0.2,0.3,0.2l0,0c0,0-0.1-0.1-0.2-0.2c-0.1-0.1-0.1-0.2-0.2-0.2c-0.1-0.1-0.1-0.1-0.1-0.1C12.4,27,12.4,27,12.4,27
					c-0.1-0.1-0.1-0.1-0.1-0.2c-0.1-0.1-0.1-0.1-0.1-0.2c-0.1-0.1-0.1-0.1-0.1-0.1c0-0.1-0.1-0.1-0.1-0.1C12,26.2,12,26.1,11.9,26.1
					L11.9,26.1z"/>
			</g>
			<g>
				<path fill="#E1AF24" d="M12.8,28c0,0,0,0.1,0.1,0.2s0.1,0.1,0.2,0.2s0.2,0.1,0.2,0.2c0.1,0.1,0.2,0.1,0.2,0.2
					c0.1,0.1,0.1,0.1,0.2,0.1c0.1,0.1,0.2,0.1,0.2,0.1l0,0c0,0-0.1-0.1-0.1-0.2c-0.1-0.1-0.1-0.1-0.2-0.2c-0.1,0-0.1-0.1-0.1-0.1
					c-0.1,0-0.1-0.1-0.1-0.1c-0.1-0.1-0.2-0.1-0.2-0.1c-0.1-0.1-0.1-0.1-0.2-0.1C12.9,28.1,12.9,28,12.8,28L12.8,28L12.8,28z"/>
			</g>
			<g>
				<path fill="#E1AF24" d="M13.4,28.8L13.4,28.8c0,0.1,0,0.1,0,0.1s0,0.1,0.1,0.1l0.1,0.1l0.1,0.1l0.1,0.1c0.1,0,0.1,0.1,0.1,0.1
					c0.1,0.1,0.1,0.1,0.2,0.1s0.1,0,0.1,0c0.1,0,0.1,0,0.1,0c0.1,0,0.2-0.1,0.2-0.1l0,0c0,0-0.1-0.1-0.2-0.1c-0.1,0-0.1,0-0.2-0.1
					H14c-0.1,0-0.1,0-0.1,0s-0.1,0-0.1-0.1c-0.1,0-0.1,0-0.1-0.1c0,0-0.1,0-0.1-0.1L13.4,28.8L13.4,28.8
					C13.4,28.9,13.4,28.8,13.4,28.8L13.4,28.8L13.4,28.8z"/>
			</g>
			<g>
				<path fill="#E1AF24" d="M14.5,29.6c0,0-0.1-0.1-0.3-0.1c-0.1,0-0.1-0.1-0.1-0.1c-0.1,0-0.1,0-0.1,0c-0.1,0-0.1,0.1-0.1,0.1l0,0
					l0.1,0.1l0.1,0.1c0.1,0,0.1,0,0.1,0C14.4,29.6,14.5,29.6,14.5,29.6L14.5,29.6z"/>
			</g>
			<g>
				<path fill="#E1AF24" d="M11.7,13.6h0.1c0,0,0.1,0.1,0.2,0.1c0.1,0,0.1,0.1,0.1,0.1c0.1,0.1,0.1,0.1,0.2,0.1
					c0.1,0.1,0.1,0.1,0.2,0.1c0.1,0.1,0.1,0.1,0.2,0.1c0.1,0.1,0.1,0.1,0.2,0.1c0.1,0.1,0.1,0.1,0.2,0.1c0.1,0,0.1,0.1,0.2,0.1
					c0.1,0,0.1,0,0.2,0c0.1,0,0.2,0,0.3,0s0.1,0,0.1,0v-0.1c0,0-0.1-0.1-0.3-0.2c-0.1-0.1-0.2-0.1-0.3-0.2c-0.1,0-0.1-0.1-0.2-0.1
					s-0.1-0.1-0.2-0.1c-0.1-0.1-0.2-0.1-0.4-0.1c-0.2-0.1-0.3-0.1-0.4-0.1c-0.1,0-0.1,0-0.2,0C11.8,13.5,11.8,13.5,11.7,13.6
					C11.8,13.5,11.7,13.5,11.7,13.6L11.7,13.6z"/>
			</g>
			<g>
				<path fill="#E1AF24" d="M12.1,31.8c0,0,0.1,0,0.2,0.1c0.1,0.1,0.3,0.1,0.4,0.1c0.1,0,0.2,0.1,0.2,0.1c0.1,0,0.2,0,0.2,0
					c0.1,0,0.1,0,0.1,0h0.1c0.1,0,0.1,0,0.1,0l0,0c0,0,0,0-0.1,0s-0.1,0-0.2-0.1c-0.1,0-0.1,0-0.2-0.1c-0.1,0-0.2,0-0.2,0
					c-0.2,0-0.3,0-0.4-0.1C12.2,31.8,12.1,31.8,12.1,31.8L12.1,31.8z"/>
			</g>
			<g>
				<path fill="#E1AF24" d="M12.8,31.5L12.8,31.5c0.1,0,0.1,0.1,0.1,0.1c0.1,0.1,0.2,0.1,0.3,0.1s0.1,0,0.2,0s0.1,0,0.1-0.1
					c0.1-0.1,0.1-0.1,0.1-0.1l0,0l-0.1-0.1h-0.1c-0.1,0-0.1,0-0.1,0.1c-0.1,0-0.2,0.1-0.2,0.1C12.9,31.5,12.9,31.5,12.8,31.5
					L12.8,31.5L12.8,31.5z"/>
			</g>
			<g>
				<path fill="#E1AF24" d="M13.3,31.2C13.3,31.2,13.4,31.2,13.3,31.2c0.1,0.1,0.2,0.1,0.2,0.1c0.1,0,0.1,0,0.1,0c0.1,0,0.1,0,0.1,0
					c0.1,0,0.1-0.1,0.1-0.1l0,0l-0.1-0.1h-0.1c-0.1,0-0.1,0-0.1,0c-0.1,0-0.1,0-0.1,0S13.4,31.2,13.3,31.2L13.3,31.2L13.3,31.2z"/>
			</g>
			<g>
				<path fill="#E1AF24" d="M5.7,16.2c0,0,0.2,0,0.5,0c0.1,0,0.2,0,0.2,0c0.1,0,0.2,0.1,0.2,0.1c0.1,0.1,0.2,0.1,0.3,0.1
					c0.1,0.1,0.2,0.1,0.3,0.1c0.1,0.1,0.2,0.1,0.2,0.2c0.1,0.1,0.2,0.1,0.2,0.2C7.8,17,7.9,17.1,8,17.1c-0.1-0.1,0-0.1,0,0
					c0.1,0.1,0.1,0.1,0.1,0.1c0.1,0.1,0.1,0.1,0.1,0.1l0,0l-0.1-0.1c0,0,0-0.2-0.1-0.2c0,0,0,0,0-0.1c-0.1-0.1-0.1-0.1-0.2-0.2
					s-0.2-0.1-0.2-0.2c-0.1-0.1-0.2-0.1-0.2-0.1c-0.1-0.1-0.2-0.1-0.3-0.1c-0.1-0.1-0.2-0.1-0.3-0.1c-0.1-0.1-0.2-0.1-0.3-0.1
					c-0.1,0-0.2-0.1-0.3-0.1C6.1,16,6,16,6,16C5.9,16.2,5.7,16.2,5.7,16.2L5.7,16.2z"/>
			</g>
			<g>
				<path fill="#E1AF24" d="M7.6,17c0,0,0.1,0.1,0.3,0.2C8,17.3,8,17.4,8.1,17.5s0.2,0.2,0.3,0.3c0.1,0.1,0.2,0.2,0.3,0.3
					s0.2,0.2,0.3,0.3c0.2,0.2,0.3,0.2,0.3,0.2l0,0c0,0-0.1-0.2-0.2-0.3C9,18.1,8.9,18,8.8,17.9c-0.1-0.1-0.2-0.2-0.3-0.3
					c-0.1-0.1-0.2-0.2-0.4-0.3c-0.1-0.1-0.2-0.2-0.3-0.2S7.6,17,7.6,17L7.6,17z"/>
			</g>
			<g>
				<path fill="#E1AF24" d="M9.6,19.5c0,0-0.1-0.1-0.1-0.2c-0.1-0.1-0.1-0.2-0.1-0.2c-0.1-0.1-0.1-0.2-0.2-0.2
					c0-0.1-0.1-0.1-0.1-0.1c0-0.1-0.1-0.1-0.1-0.1c-0.1-0.1-0.1-0.2-0.2-0.2c-0.1-0.1-0.2-0.2-0.2-0.2l0,0c0,0,0.1,0.1,0.1,0.2
					C9,18.6,9,18.7,9,18.8c0,0.1,0.1,0.1,0.1,0.1L9.2,19c0.1,0.2,0.2,0.3,0.3,0.4C9.5,19.5,9.6,19.6,9.6,19.5L9.6,19.5z"/>
			</g>
			<g>
				<path fill="#E1AF24" d="M9.6,20c0,0,0.1,0.2,0.2,0.4c0,0.1,0.1,0.1,0.1,0.1c0,0.1,0.1,0.1,0.1,0.1c0.1,0.1,0.1,0.1,0.1,0.1l0,0
					v-0.1c0-0.1,0-0.1-0.1-0.1c0-0.1-0.1-0.1-0.1-0.1C9.7,20.1,9.6,20,9.6,20L9.6,20z"/>
			</g>
			<g>
				<path fill="#E1AF24" d="M11.9,33.1L11.9,33.1c0.1-0.1,0.2-0.2,0.2-0.2c0.1-0.1,0.2-0.2,0.2-0.2l0.2-0.2c0.1-0.1,0.2-0.2,0.3-0.2
					l0.3-0.2c0.1-0.1,0.2-0.1,0.3-0.2c0.2-0.2,0.3-0.3,0.5-0.4c0.1-0.1,0.2-0.2,0.2-0.3c0.1-0.1,0.1-0.1,0.1-0.2s0.1-0.1,0.1-0.2
					c0.1-0.1,0.1-0.2,0.2-0.3c0.1-0.1,0.1-0.2,0.2-0.2l0.1-0.1l0.1-0.1C15,30,15,30,15,30c0.1-0.1,0.1-0.2,0.2-0.3
					c0-0.1,0.1-0.2,0.1-0.3c0.1-0.1,0.1-0.1,0.2-0.1H15h0.1l0.1-0.1l0.1-0.1l0.1-0.1c0.1,0,0.1-0.1,0.2-0.1s0.1-0.1,0.2-0.1
					c0.1,0,0.1,0,0.2,0s0.1,0,0.2,0s0.2,0.1,0.3,0.1l0,0c0.1,0,0.2,0.1,0.3,0c0.1,0,0.2,0,0.3-0.1c0.1,0,0.2-0.1,0.3-0.1l0.3-0.1
					l0.3-0.1l0.3-0.1l0.3-0.2c0.1-0.1,0.2-0.1,0.3-0.2c0.1-0.1,0.2-0.1,0.3-0.2c0.1-0.1,0.2-0.1,0.2-0.2c0.1-0.1,0.2-0.1,0.2-0.2
					c0.1-0.1,0.2-0.1,0.2-0.2C19.9,27.1,20,27,20,27c0.1-0.1,0.1-0.2,0.2-0.2l0.2-0.3l0.1-0.2c0.1-0.1,0.2-0.1,0.3,0
					c0.1,0.1,0.2,0.1,0.3,0.2c0.2,0.1,0.4,0.3,0.7,0.4c0.1,0.1,0.3,0.1,0.4,0.2c0.2,0.1,0.3,0.1,0.4,0.1c0.2,0,0.3,0,0.4,0
					c0.2,0,0.3,0,0.4-0.1c0.2,0,0.3-0.1,0.4-0.1l0.2-0.1l0.2-0.1c0.1-0.1,0.3-0.1,0.4-0.2s0.3-0.1,0.4-0.2l0.2-0.1
					c0.1,0,0.1-0.1,0.2-0.1c0.1-0.1,0.3-0.1,0.4-0.1s0.2,0,0.3,0.1c0.1,0.1,0.1,0.1,0.1,0.1c0.1,0.1,0.1,0.1,0.1,0.2l0,0
					c0.1,0.1,0.2,0.1,0.2,0.2l0.1,0.1c0.1,0,0.1,0.1,0.1,0.1c0.1,0,0.1,0,0.1,0.1c0.1,0,0.1,0,0.1,0H26c0.1,0,0.1,0,0.1,0
					c0.1,0,0.1-0.1,0.1-0.1c0.1,0,0.1-0.1,0.1-0.1s0.1,0,0.1-0.1l0.1-0.1c0.1,0,0.1-0.1,0.1-0.1l0.1-0.1c0.1-0.1,0.2-0.1,0.2-0.1
					c0.1,0,0.1-0.1,0.2-0.2C26.9,27,27,27,27,27c0.1-0.1,0.3-0.2,0.2-0.3c-0.1-0.1-0.1-0.2-0.1-0.2c-0.1-0.1-0.1-0.1-0.2-0.2
					c0.4-0.3,1-0.9,1.1-1.5v-0.2l-0.1,0.1c-0.5,0.3-0.8,0.4-1.2,0.6c1.1-0.9,1.5-2,1.3-2.6l-0.1-0.2l-0.1,0.1
					c-0.1,0.1-0.8,0.5-0.9,0.6c-0.2,0.1-0.9,0.6-1,0.8c-0.1,0.2-0.9,0.8-1.5,1l0,0c-0.4-0.1-0.7-0.2-1-0.3l-0.1-0.1
					c0,0,0-0.1-0.1-0.1l-0.1-0.1c0-0.1-0.1-0.1-0.1-0.1c0-0.1-0.1-0.1-0.1-0.1c-0.1-0.1-0.2-0.2-0.3-0.4l-0.2-1
					c-0.1-0.2-0.1-0.4-0.1-0.5l-0.1-0.5l-0.2-1c0-0.2-0.1-0.4-0.1-0.5s0-0.4,0-0.5s0-0.4,0-0.5v-0.5c0-0.4,0-0.7,0-1v-1
					c0-0.2,0-0.4,0-0.5s0-0.2,0-0.3c0-0.1,0.1-0.2,0.1-0.2v-0.1l0,0c0-0.2,0.1-0.3,0.2-0.4c0.1-0.2,0.2-0.3,0.3-0.4
					c0.3-0.3,0.5-0.5,0.8-0.8s0.5-0.5,0.8-0.7l0.8-0.7c0.1-0.1,0.3-0.1,0.4-0.2c0.2,0,0.3,0.1,0.4,0.2l0.1,0.1
					c0.1-0.1,0.2-0.2,0.2-0.3s0-0.2-0.1-0.2c0.3,0.2,0.7,0.8,0.6,1.3L26.4,14l0.3-0.2c0.9-0.7,1.1-1.8,1.1-2.2
					c0.2-0.1,0.3-0.2,0.5-0.4c0.3-0.2,0.5-0.5,0.5-0.8v-0.1v-0.1l0.1-0.1L29,9.9l0.1-0.5c0.1-0.3,0.2-0.6,0.2-0.9
					c0-0.2,0-0.4-0.1-0.5c0-0.1-0.1-0.1-0.1-0.1c0-0.1-0.1-0.1-0.1-0.1l-0.1-0.1l-0.1-0.1l-0.1-0.1c0.3,0.6,0.2,0.5,0,0.4
					c-0.2-0.1-0.3-0.1-0.4-0.2c-0.3-0.1-0.6-0.2-0.9-0.3c-0.6-0.1-1.2-0.2-1.8-0.1c-0.3,0.1-0.6,0.1-0.9,0.3
					c-0.3,0.1-0.6,0.3-0.8,0.5c-0.3,0.2-0.5,0.5-0.6,0.7c-0.2,0.3-0.3,0.5-0.4,0.8c-0.4,0.2-0.8,0.3-1.1,0.5
					c-0.2,0.1-0.4,0.2-0.6,0.2c-0.1,0.1-0.2,0.1-0.3,0.1l-0.2,0.2c-0.2,0.1-0.4,0.1-0.6,0.2c-0.1,0.1-0.2,0.1-0.3,0.1
					C19.7,11,19.6,11,19.5,11l-0.2,0c-0.1,0.1-0.2,0.1-0.3,0.2c-0.1,0.1-0.2,0.1-0.3,0.2l-0.3,0.2c-0.1,0.1-0.2,0.2-0.3,0.2
					c-0.1,0.1-0.2,0.1-0.3,0.2v0.1c0.1-0.1,0.2-0.1,0.4-0.2c0.1-0.1,0.2-0.1,0.3-0.2l0.3-0.2c0.1-0.1,0.2-0.1,0.3-0.1
					c0.1-0.1,0.2-0.1,0.3-0.1l0.3-0.1c0.1-0.1,0.2-0.1,0.3-0.1c0.1-0.1,0.2-0.1,0.3-0.1c0.2-0.1,0.4-0.1,0.6-0.2l0.3-0.1
					c0.1,0,0.2-0.1,0.3-0.1c0.2-0.1,0.4-0.1,0.6-0.2c0.2-0.1,0.4-0.2,0.6-0.2c0.2-0.1,0.4-0.2,0.6-0.3h0.1V10
					c0.1-0.3,0.2-0.6,0.4-0.8s0.4-0.5,0.6-0.7s0.5-0.3,0.8-0.5c0.3-0.1,0.6-0.2,0.9-0.2c0.3,0,0.9,0,1.4,0.2
					c0.3,0.1,0.6,0.2,0.9,0.3c0.2,0.1,0.3,0.1,0.4,0.2c0.2,0.1,0.3,0.2,0.4,0.2l0.1,0.1l0.1,0.1L29.5,9l0.1,0.1l0.1,0.1
					c0.1,0.1,0.1,0.2,0.1,0.4c-0.1,0.3-0.1,0.6-0.2,0.9l-0.2,0.4L29,10.6v0.1v0.1v0.1c-0.1,0.3-0.3,0.5-0.5,0.7s-0.4,0.3-0.6,0.4
					c-0.4,0.1-1.1,0.4-1.6,0.6l-0.2,0.1c-0.3,0.1-0.6,0.2-0.8,0.4l0,0l0,0l-0.8,0.7c-0.3,0.3-0.6,0.5-0.8,0.7s-0.5,0.5-0.8,0.8
					c-0.1,0.2-0.3,0.3-0.4,0.5c-0.1,0.1-0.1,0.2-0.2,0.3s-0.1,0.2-0.1,0.3c-0.1,0.1-0.1,0.2-0.1,0.3c0,0.1,0,0.2,0,0.3
					c0,0.2,0,0.4,0,0.5c0,0.4,0,0.7,0,1c0,0.4,0,0.7,0,1V20c0,0.2,0,0.4,0,0.5c0,0.2,0,0.4,0.1,0.5c0,0.2,0.1,0.4,0.1,0.5l0.2,1
					l0.1,0.5c0,0.2,0.1,0.4,0.1,0.5l0.2,1l0,0l0,0c0.1,0.1,0.2,0.2,0.3,0.3c0.1,0.1,0.1,0.1,0.1,0.1c0,0.1,0.1,0.1,0.1,0.1l0.1,0.1
					v0.1c0,0,0.1,0.1,0.1,0.2c0,0.2,0.2,0.4,0.3,0.4c0.2,0.2,0.5,0.4,0.8,0.5s0.5,0.2,0.8,0.3l0.2,0.1c0.2,0.1,0.3,0.1,0.4,0.2
					c0.2,0.1,0.4,0.1,0.6,0.2c0.1,0,0.1,0.1,0.2,0.1s0.2-0.1,0.2-0.1c0.1,0.1,0.1,0.1,0.2,0.2s0.1,0.1,0.1,0.2s-0.1,0.1-0.2,0.1
					c-0.1,0.1-0.1,0.2-0.2,0.2h-0.1c0,0-0.1,0-0.1,0.1c-0.1,0-0.1,0.1-0.1,0.1l-0.1,0.1c0,0,0,0.1-0.1,0.1l-0.1,0.1c0,0,0,0-0.1,0
					s-0.1,0.1-0.1,0.1c-0.1,0-0.1,0.1-0.1,0.1c-0.1,0-0.1,0-0.1,0h-0.1c-0.1,0-0.1,0-0.1,0h-0.1c-0.1,0-0.1,0-0.1-0.1l-0.1-0.1
					c-0.1-0.1-0.1-0.1-0.2-0.1c0-0.1-0.1-0.1-0.1-0.2c-0.1-1-0.2-1.1-0.2-1.1c-0.2-0.1-0.3-0.1-0.5-0.1s-0.3,0.1-0.4,0.1
					S23.9,27,23.9,27l-0.2,0.1c-0.1,0.1-0.2,0.1-0.4,0.2c-0.1,0.1-0.3,0.1-0.4,0.2l-0.2,0.1l-0.2,0.1c-0.1,0-0.3,0.1-0.4,0.1
					s-0.3,0.1-0.4,0.1s-0.3,0-0.4,0s-0.3,0-0.4-0.1s-0.2-0.1-0.3-0.1c-0.2-0.2-0.4-0.3-0.7-0.5c-0.1-0.1-0.3-0.2-0.4-0.2
					s-0.2-0.1-0.3-0.1S19,27,18.9,27l0,0v0.1l-0.1,0.2l-0.2,0.2c-0.1,0.1-0.1,0.2-0.2,0.2c-0.1,0.1-0.1,0.2-0.2,0.2
					C18.1,28,18.1,28,18,28.1s-0.2,0.1-0.2,0.2c-0.1,0.1-0.2,0.1-0.2,0.2c-0.1,0.1-0.2,0.1-0.2,0.2c-0.1,0.1-0.2,0.1-0.2,0.2
					l-0.3,0.2l-0.3,0.1l-0.3,0.1l0.5-0.3c-0.1,0-0.2,0.1-0.3,0.1c-0.1,0-0.2,0.1-0.3,0.1c-0.1,0-0.2,0-0.3,0l0,0
					c-0.1,0-0.2-0.1-0.4-0.1c-0.1,0-0.1,0-0.2,0c-0.1,0-0.1,0-0.2,0.1c-0.1,0-0.1,0.1-0.2,0.1c-0.1,0-0.1,0.1-0.2,0.1l0.3-0.1
					l0.1,0.1L15,29.5c-0.1,0-0.1,0.1-0.2,0.1c-0.1,0.1-0.1,0.1-0.1,0.2c-0.1,0.1-0.1,0.2-0.1,0.3s-0.1,0.2-0.1,0.3l-0.1,0.1
					l-0.1,0.1l-0.1,0.1C14.1,30.8,14,30.9,14,31c-0.1,0.1-0.1,0.2-0.2,0.3c-0.1,0.1-0.1,0.2-0.1,0.3c-0.1,0.1-0.1,0.2-0.2,0.3
					c-0.2,0.2-0.3,0.3-0.4,0.4c-0.1,0.1-0.2,0.2-0.3,0.2l-0.3,0.2c-0.1,0.1-0.2,0.2-0.3,0.2L11.9,33.1c0,0.1-0.1,0.2-0.1,0.2
					C12.1,32.9,12,33,11.9,33.1z M26,12.9c-0.1,0-0.1,0-0.1,0c0.2-0.1,0.3-0.2,0.4-0.2c0,0,0,0.1,0.1,0.1c0,0.1,0,0.2,0,0.3
					C26.2,13,26.1,12.9,26,12.9z M26.6,12.6c0.5-0.3,1.2-0.5,1.5-0.5c0,0.1,0,0.1,0,0.1c-0.1,0.4-0.2,1.1-0.8,1.7
					c0-0.2-0.1-0.4-0.2-0.6c-0.1-0.2-0.3-0.4-0.4-0.5C26.7,12.6,26.6,12.6,26.6,12.6z M26,25.7L26,25.7c-0.1,0.1-0.1,0.1-0.2,0.1
					c-0.1,0.1-0.3,0.1-0.4,0.2c-0.1,0-0.1,0.1-0.1,0.1h-0.1l0-0.1c0,0,0,0-0.1,0c-0.6-0.2-1-0.3-1.6-0.9c0.1,0,0.2,0.1,0.2,0.1
					c0.1,0.1,0.3,0.1,0.4,0.1c0.2,0.1,0.2,0.1,0.3,0c0.1,0,0.1-0.1,0.2-0.1c0.6-0.3,1.2-0.8,1.4-1c0.2-0.2,0.8-0.7,1-0.7
					c0.2-0.1,0.7-0.4,0.9-0.5C28,23.6,27.4,24.8,26,25.7z M26.2,25.8c0.4-0.2,1-0.5,1.7-0.8c-0.2,0.5-0.7,1-1,1.2
					c-0.1,0.1-0.1,0.1-0.1,0.1c-0.1,0-0.1,0.1-0.1,0.1c-0.1-0.1-0.6-0.2-1-0.3c0.2-0.1,0.3-0.2,0.4-0.2
					C26.1,25.9,26.2,25.9,26.2,25.8C26.1,25.8,26.1,25.8,26.2,25.8z"/>
				<path fill="#E1AF24" d="M25.9,24.8c-0.1,0.1-0.2,0.2-0.3,0.2c-0.1,0.1-0.2,0.1-0.3,0.2c-0.1,0.1-0.2,0.1-0.3,0.2l0,0
					c-0.1,0-0.1,0.1-0.1,0.1c-0.1,0-0.1,0.1-0.1,0.1c-0.1,0.1-0.1,0.1-0.2,0.1c-0.2,0.1-0.3,0.1-0.3,0.1l0,0c0,0,0.1-0.1,0.2-0.1
					s0.1-0.1,0.2-0.1c0,0,0.1,0,0.1-0.1c0.1,0,0.1-0.1,0.1-0.1s0.1,0,0.1-0.1c0.1-0.1,0.2-0.1,0.3-0.2c0.1-0.1,0.2-0.1,0.3-0.2
					c0.2-0.1,0.4-0.3,0.6-0.4c0.4-0.3,0.8-0.6,1-0.8c0.3-0.3,0.5-0.4,0.5-0.4l0,0c0,0-0.2,0.2-0.4,0.4s-0.6,0.6-1,0.9
					C26.1,24.7,26,24.7,25.9,24.8z"/>
				<path fill="#E1AF24" d="M26.7,26.1C26.7,26.1,26.6,26.1,26.7,26.1c-0.1,0.1-0.1,0.1-0.1,0.1l0,0h-0.1c-0.1,0-0.1,0.1-0.1,0.1
					c-0.1,0-0.1,0-0.1,0l0,0c0,0,0,0,0.1-0.1l0.1-0.1l0,0c0.1,0,0.1-0.1,0.1-0.1l0,0c0.1-0.1,0.1-0.1,0.2-0.1
					c0.1-0.1,0.2-0.2,0.3-0.2c0.1-0.1,0.2-0.1,0.2-0.1l0,0c0,0-0.2,0.2-0.4,0.3C26.7,26.1,26.7,26.1,26.7,26.1z"/>
			</g>
		</g>
	</g>
</g>
</svg>
