<?xml version="1.0" encoding="UTF-8" standalone="yes"?>
<svg version="1.2" baseProfile="tiny-ps" viewBox="0 0 1000 1000" xmlns="http://www.w3.org/2000/svg">
  <title>G2.com Inc</title>
  <rect fill="#FF492C" width="1008" height="1008"/>
  <path fill="#FFFFFF" d="M716.4,383H631c2.3-13.4,10.6-20.9,27.4-29.4l15.7-8c28.1-14.4,43.1-30.7,43.1-57.3  c0-16.7-6.5-29.9-19.4-39.4s-28.1-14.2-45.9-14.2c-13.8-0.2-27.3,3.7-38.9,11.1c-11.7,7.2-20.4,16.5-25.8,28.1l24.7,24.8  c9.6-19.4,23.5-28.9,41.8-28.9c15.5,0,25,8,25,19.1c0,9.3-4.6,17-22.4,26l-10.1,4.9c-21.9,11.1-37.1,23.8-45.9,38.2  s-13.1,32.5-13.1,54.4v6h129.2L716.4,383L716.4,383z"/>
  <path fill="#FFFFFF" d="M505.1,663.3c-90,0-163.3-73.3-163.3-163.3s73.3-163.3,163.3-163.3L561,219.8c-18.4-3.7-37.1-5.5-55.9-5.5  c-157.8,0-285.7,127.9-285.7,285.7s127.9,285.7,285.7,285.7c60.5,0.1,119.4-19.1,168.2-54.8l-61.8-107.2  C581.9,649.2,544.2,663.3,505.1,663.3z"/>
  <polygon fill="#FFFFFF" points="705,459.2 563.6,459.2 492.9,581.6 634.3,581.6 705,704.1 775.7,581.6 "/>
</svg>