<svg xmlns="http://www.w3.org/2000/svg" xmlns:xlink="http://www.w3.org/1999/xlink" version="1.2" viewBox="0 0 1080 1080" baseProfile="tiny-ps">
  <title>SolarQuotes</title>
  <circle cx="540" cy="540" r="540" fill="#FFFFFF"/>
  <path d="M69.492,538.435C69.492,279,280.556,67.923,540.004,67.923  c259.435,0,470.498,211.076,470.498,470.512c0,12.465-0.496,24.81-1.449,37.034h68.082c0.832-12.237,1.288-24.582,1.288-37.034  c0-296.898-241.536-538.433-538.42-538.433C243.106,0.002,1.571,241.537,1.571,538.435c0,12.451,0.456,24.797,1.288,37.034h68.082  C69.988,563.245,69.492,550.9,69.492,538.435" fill="#FFFFFF"/>
  <path d="M539.999,67.926c259.435,0,470.512,211.063,470.512,470.512c0,12.465-0.496,24.81-1.462,37.034  h-68.485c1.328-13.311,2.013-26.809,2.013-40.468c0-222.335-180.243-402.577-402.577-402.577S137.422,312.668,137.422,535.003  c0,13.659,0.684,27.158,2.013,40.468H70.949c-0.966-12.224-1.463-24.568-1.463-37.034C69.487,278.989,280.564,67.926,539.999,67.926  " fill="#FFFFFF"/>
  <linearGradient id="SVGID_1_" gradientUnits="userSpaceOnUse" x1="106.3756" y1="683.0909" x2="949.613" y2="149.0414">
    <stop offset="0" stop-color="#ABD7EE"/>
    <stop offset="0.6318" stop-color="#AABBDA"/>
    <stop offset="1" stop-color="#ACB3D4"/>
  </linearGradient>
  <path d="M1.567,538.433c0,12.452,0.456,24.797,1.302,37.047h68.082  c-0.966-12.224-1.449-24.582-1.449-37.047c0-259.435,211.064-470.512,470.485-470.512c259.448,0,470.512,211.077,470.512,470.512  c0,12.465-0.496,24.824-1.449,37.047h68.083c0.845-12.251,1.302-24.595,1.302-37.047C1078.433,241.536,836.898,0,539.987,0  C243.102,0,1.567,241.536,1.567,538.433" fill="url(#SVGID_1_)"/>
  <linearGradient id="SVGID_00000129886846358282354920000017197949007280408233_" gradientUnits="userSpaceOnUse" x1="160.5458" y1="224.685" x2="1068.6019" y2="667.0715">
    <stop offset="6.146891e-04" stop-color="#5ABCE7"/>
    <stop offset="0.5026" stop-color="#55A4D7"/>
    <stop offset="1" stop-color="#5C6EAF"/>
  </linearGradient>
  <path d="M69.501,538.433  c0,12.465,0.483,24.824,1.449,37.047h68.471c-1.328-13.311-2.013-26.823-2.013-40.469c0-222.348,180.256-402.59,402.577-402.59  c222.348,0,402.591,180.242,402.591,402.59c0,13.646-0.698,27.158-2.026,40.469h68.498c0.953-12.224,1.449-24.582,1.449-37.047  c0-259.435-211.063-470.512-470.512-470.512C280.565,67.922,69.501,278.999,69.501,538.433" fill="url(#SVGID_00000129886846358282354920000017197949007280408233_)"/>
  <g>
    <linearGradient id="SVGID_00000116924713833642899540000017290902684540806791_" gradientUnits="userSpaceOnUse" x1="983.8207" y1="148.3357" x2="200.3341" y2="676.3843">
      <stop offset="0" stop-color="#2353A2"/>
      <stop offset="0.4974" stop-color="#1B7ABF"/>
      <stop offset="1" stop-color="#25A9E1"/>
    </linearGradient>
    <path d="M137.423,535.012   c0,13.646,0.671,27.145,2.013,40.469h258.791V440.47h-32.042l175.144-175.157l76.75,76.737v-37.986h42.038v80.038l36.993,36.993   c5.126,5.005,10.225,9.996,15.323,15.015c0.819,0.778,1.677,1.543,2.362,2.657l1.704,1.704H684.94   c-0.04,0.053-0.107,0.12-0.161,0.161v134.851h255.772c1.342-13.325,2.039-26.823,2.039-40.469   c0-222.348-180.256-402.59-402.591-402.59C317.665,132.421,137.423,312.664,137.423,535.012" fill="url(#SVGID_00000116924713833642899540000017290902684540806791_)"/>
    <linearGradient id="SVGID_00000046300144311204379890000009926837503797277584_" gradientUnits="userSpaceOnUse" x1="1027.2521" y1="212.7764" x2="243.7653" y2="740.825">
      <stop offset="0" stop-color="#2353A2"/>
      <stop offset="0.4974" stop-color="#1B7ABF"/>
      <stop offset="1" stop-color="#25A9E1"/>
    </linearGradient>
    <polygon points="504.188,504.835 504.188,575.481    578.818,575.481 578.831,575.467 578.831,504.835 578.818,504.835  " fill="url(#SVGID_00000046300144311204379890000009926837503797277584_)"/>
  </g>
  <g>
    <g>
      <linearGradient id="SVGID_00000019652536747112972940000005138941512906129069_" gradientUnits="userSpaceOnUse" x1="638.0297" y1="505.9391" x2="58.7706" y2="1095.976">
        <stop offset="0.1033" stop-color="#24A5DE"/>
        <stop offset="0.5026" stop-color="#1B7BBE"/>
        <stop offset="0.8262" stop-color="#244FA1"/>
      </linearGradient>
      <path d="M444.241,733.69v-87.636    c0-11.594,5.101-15.997,13.219-15.997c8.112,0,13.213,4.403,13.213,15.997v87.636c0,11.595-5.101,16.002-13.213,16.002    C449.342,749.692,444.241,745.284,444.241,733.69 M418.735,647.678v84.387c0,25.972,13.685,40.81,38.725,40.81    c25.035,0,38.714-14.838,38.714-40.81v-84.387c0-25.966-13.679-40.81-38.714-40.81    C432.419,606.868,418.735,621.712,418.735,647.678" fill="url(#SVGID_00000019652536747112972940000005138941512906129069_)"/>
      <linearGradient id="SVGID_00000094603005910356674800000015185195077714453405_" gradientUnits="userSpaceOnUse" x1="681.2047" y1="548.2955" x2="100.2953" y2="1140.0134">
        <stop offset="0.1033" stop-color="#24A5DE"/>
        <stop offset="0.5026" stop-color="#1B7BBE"/>
        <stop offset="0.8262" stop-color="#244FA1"/>
      </linearGradient>
      <path d="M520.072,608.726    c-6.401,0-11.589,5.194-11.589,11.594v150.698h55.87c6.401,0,11.594-5.188,11.594-11.594c0-6.401-5.193-11.589-11.594-11.589    h-30.369V620.32c0-6.401-5.188-11.594-11.594-11.594H520.072z" fill="url(#SVGID_00000094603005910356674800000015185195077714453405_)"/>
      <linearGradient id="SVGID_00000046299269888776491460000010714150110901663633_" gradientUnits="userSpaceOnUse" x1="728.453" y1="596.7031" x2="149.0505" y2="1186.8861">
        <stop offset="0.1033" stop-color="#24A5DE"/>
        <stop offset="0.5026" stop-color="#1B7BBE"/>
        <stop offset="0.8262" stop-color="#244FA1"/>
      </linearGradient>
      <path d="M622.091,637.476h0.46l12.06,82.075    h-24.58L622.091,637.476z M601.984,627.154L581.102,757.69c-1.121,6.991,4.284,13.327,11.367,13.327    c5.697,0,10.538-4.17,11.383-9.807l2.941-19.636h31.295l2.935,19.636c0.845,5.637,5.691,9.807,11.388,9.807h2.312    c7.089,0,12.488-6.336,11.372-13.327l-20.887-130.536c-1.7-10.614-10.858-18.428-21.613-18.428    C612.847,608.726,603.684,616.54,601.984,627.154" fill="url(#SVGID_00000046299269888776491460000010714150110901663633_)"/>
      <linearGradient id="SVGID_00000155109371485406557370000004456880052622732955_" gradientUnits="userSpaceOnUse" x1="763.4875" y1="632.4722" x2="184.4497" y2="1222.2837">
        <stop offset="0.1033" stop-color="#24A5DE"/>
        <stop offset="0.5026" stop-color="#1B7BBE"/>
        <stop offset="0.8262" stop-color="#244FA1"/>
      </linearGradient>
      <path d="M698.171,631.909h12.287    c9.038,0,12.98,5.107,12.98,16.695v16.002c0,12.975-5.8,17.15-15.298,17.15h-9.97V631.909z M672.67,608.726l-0.005,0.006v149.36    c0,7.045,5.713,12.753,12.759,12.753c7.04,0,12.748-5.708,12.748-12.753v-53.146h8.811c11.589,0,16.69,5.562,16.69,20.632v32.514    c0,7.045,5.708,12.753,12.753,12.753c7.04,0,12.748-5.708,12.748-12.753v-31.821c0-16.923-4.17-28.977-16.917-34.312v-0.46    c11.361-5.34,16.69-16.002,16.69-32.692v-12.753c0-25.035-11.361-37.328-37.788-37.328H672.67z" fill="url(#SVGID_00000155109371485406557370000004456880052622732955_)"/>
      <linearGradient id="SVGID_00000165918368993044030990000004956708009833582493_" gradientUnits="userSpaceOnUse" x1="595.1026" y1="462.6105" x2="15.7799" y2="1052.7122">
        <stop offset="0.1033" stop-color="#24A5DE"/>
        <stop offset="0.5026" stop-color="#1B7BBE"/>
        <stop offset="0.8262" stop-color="#244FA1"/>
      </linearGradient>
      <path d="M334.055,647.987    c0,18.553,6.726,32.01,28.068,50.791c16.695,14.616,21.802,23.432,21.802,35.259c0,11.6-5.107,15.769-13.224,15.769    s-13.219-4.17-13.219-15.769v-10.094c0-6.655-5.399-12.054-12.055-12.054h-0.005c-6.661,0-12.065,5.399-12.065,12.054v8.47    c0,25.977,12.991,40.826,38.048,40.826c25.046,0,38.032-14.849,38.032-40.826c0-18.553-6.726-32.005-28.062-50.796    c-16.701-14.611-21.808-23.427-21.808-35.254c0-11.599,4.641-16.008,12.764-16.008c8.118,0,12.753,4.408,12.753,16.008v4.11    c0,6.661,5.399,12.06,12.06,12.06s12.06-5.399,12.06-12.06v-2.486c0-25.977-12.753-40.821-37.572-40.821    S334.055,622.009,334.055,647.987" fill="url(#SVGID_00000165918368993044030990000004956708009833582493_)"/>
    </g>
    <g>
      <linearGradient id="SVGID_00000025432966572761420690000010892962470135327131_" gradientUnits="userSpaceOnUse" x1="684.9603" y1="551.6789" x2="105.7014" y2="1141.7156">
        <stop offset="0.1033" stop-color="#24A5DE"/>
        <stop offset="0.5026" stop-color="#1B7BBE"/>
        <stop offset="0.8262" stop-color="#244FA1"/>
      </linearGradient>
      <path d="M356.03,896.317v-72.95    c0-9.65,4.246-13.317,10.999-13.317c6.758,0,11.004,3.666,11.004,13.317v72.95c0,9.65-4.246,13.322-11.004,13.322    C360.276,909.639,356.03,905.968,356.03,896.317 M334.797,824.716v70.258c0,21.613,11.388,33.965,32.232,33.965    c5.594,0,10.614-0.964,14.86-2.507c2.897,5.789,8.876,9.26,18.336,9.26h2.22c5.22,0,9.455-4.235,9.455-9.455    c0-5.226-4.235-9.455-9.455-9.455h-1.256c-3.471,0-5.02-0.39-5.984-2.897c2.702-5.02,4.056-11.388,4.056-18.91v-70.258    c0-21.612-11.383-33.965-32.232-33.965C346.185,790.751,334.797,803.104,334.797,824.716" fill="url(#SVGID_00000025432966572761420690000010892962470135327131_)"/>
      <linearGradient id="SVGID_00000007388002354412282920000000468418497276265131_" gradientUnits="userSpaceOnUse" x1="712.519" y1="579.8888" x2="133.4005" y2="1169.7825">
        <stop offset="0.1033" stop-color="#24A5DE"/>
        <stop offset="0.5026" stop-color="#1B7BBE"/>
        <stop offset="0.8262" stop-color="#244FA1"/>
      </linearGradient>
      <path d="M453.842,802.335v94.178    c0,9.65-4.246,13.127-10.999,13.127c-6.758,0-11.004-3.476-11.004-13.127v-94.178c0-5.545-4.489-10.034-10.035-10.034h-1.159    c-5.54,0-10.035,4.489-10.035,10.034v92.83c0,21.618,10.809,33.965,31.653,33.965s31.647-12.347,31.647-33.965v-92.83    c0-5.545-4.489-10.034-10.035-10.034C458.337,792.3,453.842,796.789,453.842,802.335" fill="url(#SVGID_00000007388002354412282920000000468418497276265131_)"/>
      <linearGradient id="SVGID_00000033329868883324204530000003698623754848400258_" gradientUnits="userSpaceOnUse" x1="752.0526" y1="619.5139" x2="172.7934" y2="1209.5509">
        <stop offset="0.1033" stop-color="#24A5DE"/>
        <stop offset="0.5026" stop-color="#1B7BBE"/>
        <stop offset="0.8262" stop-color="#244FA1"/>
      </linearGradient>
      <path d="M505.109,896.317v-72.95    c0-9.65,4.251-13.317,10.999-13.317c6.758,0,11.004,3.666,11.004,13.317v72.95c0,9.65-4.246,13.322-11.004,13.322    C509.36,909.639,505.109,905.968,505.109,896.317 M483.881,824.716v70.258c0,21.613,11.388,33.965,32.227,33.965    c20.849,0,32.232-12.352,32.232-33.965v-70.258c0-21.612-11.383-33.965-32.232-33.965    C495.269,790.751,483.881,803.104,483.881,824.716" fill="url(#SVGID_00000033329868883324204530000003698623754848400258_)"/>
      <linearGradient id="SVGID_00000061468504554868654190000004186985313403967657_" gradientUnits="userSpaceOnUse" x1="780.8973" y1="648.5098" x2="201.0897" y2="1239.1053">
        <stop offset="0.1033" stop-color="#24A5DE"/>
        <stop offset="0.5026" stop-color="#1B7BBE"/>
        <stop offset="0.8262" stop-color="#244FA1"/>
      </linearGradient>
      <path d="M561.358,792.3    c-5.329,0-9.65,4.316-9.65,9.644c0,5.329,4.321,9.656,9.65,9.656h12.547v106.146c0,5.323,4.321,9.65,9.65,9.65h1.928    c5.334,0,9.65-4.327,9.65-9.65V811.6h12.547c5.329,0,9.65-4.327,9.65-9.656c0-5.328-4.321-9.644-9.65-9.644H561.358z" fill="url(#SVGID_00000061468504554868654190000004186985313403967657_)"/>
      <linearGradient id="SVGID_00000103237910509429189600000005998128080296460190_" gradientUnits="userSpaceOnUse" x1="818.5709" y1="686.6962" x2="239.4896" y2="1276.552">
        <stop offset="0.1033" stop-color="#24A5DE"/>
        <stop offset="0.5026" stop-color="#1B7BBE"/>
        <stop offset="0.8262" stop-color="#244FA1"/>
      </linearGradient>
      <path d="M622.432,792.3v135.096h48.251    c5.334,0,9.65-4.327,9.65-9.65c0-5.334-4.316-9.65-9.65-9.65H643.66v-39.565h19.49c5.334,0,9.65-4.321,9.65-9.65    s-4.316-9.65-9.65-9.65h-19.49V811.6h27.023c5.334,0,9.65-4.327,9.65-9.656c0-5.328-4.316-9.644-9.65-9.644H622.432z" fill="url(#SVGID_00000103237910509429189600000005998128080296460190_)"/>
      <linearGradient id="SVGID_00000163047011988707541470000003006235161667999639_" gradientUnits="userSpaceOnUse" x1="852.7917" y1="721.0247" x2="273.4686" y2="1311.1267">
        <stop offset="0.1033" stop-color="#24A5DE"/>
        <stop offset="0.5026" stop-color="#1B7BBE"/>
        <stop offset="0.8262" stop-color="#244FA1"/>
      </linearGradient>
      <path d="M685.212,824.716    c0,15.444,5.594,26.638,23.351,42.267c13.896,12.163,18.141,19.495,18.141,29.335c0,9.65-4.246,13.127-11.004,13.127    c-6.753,0-10.998-3.476-10.998-13.127v-8.388c0-5.551-4.495-10.04-10.035-10.04h-0.005c-5.54,0-10.029,4.489-10.029,10.04v7.045    c0,21.613,10.804,33.965,31.642,33.965c20.854,0,31.658-12.352,31.658-33.965c0-15.444-5.594-26.638-23.351-42.272    c-13.901-12.157-18.147-19.49-18.147-29.335c0-9.65,3.861-13.317,10.614-13.317c6.758,0,10.619,3.666,10.619,13.317v3.417    c0,5.545,4.489,10.034,10.035,10.034c5.54,0,10.035-4.489,10.035-10.034v-2.069c0-21.612-10.609-33.965-31.263-33.965    S685.212,803.104,685.212,824.716" fill="url(#SVGID_00000163047011988707541470000003006235161667999639_)"/>
      <g>
        <linearGradient id="SVGID_00000145778578014568790550000013244165511518517929_" gradientUnits="userSpaceOnUse" x1="849.3572" y1="718.5952" x2="271.9732" y2="1306.722">
          <stop offset="0.1033" stop-color="#24A5DE"/>
          <stop offset="0.5026" stop-color="#1B7BBE"/>
          <stop offset="0.8262" stop-color="#244FA1"/>
        </linearGradient>
        <path d="M762.895,797.9h3.704     c1.814,0,2.93,0.823,2.93,2.42v0.049c0,1.43-1.045,2.393-2.859,2.393h-3.774V797.9z M759.164,794.531v16.95h3.731v-5.426h2.93     l3.628,5.426h4.359l-4.137-6.055c2.155-0.796,3.628-2.518,3.628-5.253v-0.049c0-3.482-2.394-5.594-6.396-5.594H759.164z" fill="url(#SVGID_00000145778578014568790550000013244165511518517929_)"/>
        <linearGradient id="SVGID_00000134218032780386445650000002633222611889609100_" gradientUnits="userSpaceOnUse" x1="849.1843" y1="718.5079" x2="272.0863" y2="1306.3435">
          <stop offset="0.1033" stop-color="#24A5DE"/>
          <stop offset="0.5026" stop-color="#1B7BBE"/>
          <stop offset="0.8262" stop-color="#244FA1"/>
        </linearGradient>
        <path d="M753.851,803.201v-0.136     c0-7.224,5.21-12.672,12.12-12.672c6.986,0,12.26,5.508,12.26,12.808v0.13c0,7.224-5.215,12.672-12.125,12.672     C759.115,816.003,753.851,810.496,753.851,803.201 M749.487,803.066v0.136c0,9.623,7.3,17.167,16.62,17.167     c9.396,0,16.484-7.321,16.484-17.037v-0.13c0-9.629-7.3-17.167-16.62-17.167C756.575,786.034,749.487,793.356,749.487,803.066" fill="url(#SVGID_00000134218032780386445650000002633222611889609100_)"/>
      </g>
    </g>
    <g>
      <linearGradient id="SVGID_00000091718771171595523750000014681926116627478914_" gradientUnits="userSpaceOnUse" x1="879.6352" y1="749.0054" x2="297.3304" y2="1331.3103">
        <stop offset="0.1033" stop-color="#24A5DE"/>
        <stop offset="0.5026" stop-color="#1B7BBE"/>
        <stop offset="0.8262" stop-color="#244FA1"/>
      </linearGradient>
      <path d="M640.286,1000.438    c-1.213-1.478-2.096-3.255-2.648-5.34c-0.552-2.08-0.883-4.235-0.991-6.477s-0.157-4.148-0.157-5.735    c0-0.948,0.016-2.096,0.038-3.433c0.027-1.349,0.119-2.729,0.276-4.154c0.163-1.424,0.422-2.832,0.796-4.229    c0.363-1.397,0.877-2.648,1.538-3.753c0.661-1.11,1.5-2.004,2.529-2.691c1.029-0.682,2.307-1.029,3.834-1.029    s2.821,0.347,3.872,1.029c1.051,0.688,1.928,1.581,2.61,2.691c0.682,1.105,1.202,2.356,1.543,3.753    c0.341,1.397,0.607,2.805,0.796,4.229c0.179,1.424,0.282,2.805,0.314,4.154c0.022,1.337,0.033,2.486,0.033,3.433    c0,1.587-0.054,3.493-0.152,5.735c-0.108,2.242-0.439,4.397-0.991,6.477c-0.558,2.085-1.451,3.861-2.686,5.34    c-1.246,1.478-3.016,2.215-5.34,2.215C643.232,1002.653,641.5,1001.916,640.286,1000.438 M637.714,955.767    c-2.448,0.953-4.598,2.54-6.444,4.749c-1.841,2.215-3.309,5.15-4.386,8.81c-1.078,3.666-1.614,8.183-1.614,13.56    c0,5.54,0.536,10.159,1.614,13.874c1.078,3.715,2.545,6.677,4.386,8.892c1.847,2.215,3.996,3.791,6.444,4.744    c2.453,0.948,5.047,1.424,7.787,1.424c2.794,0,5.415-0.477,7.868-1.424c2.448-0.953,4.614-2.529,6.482-4.744    c1.868-2.215,3.341-5.177,4.424-8.892c1.078-3.715,1.619-8.334,1.619-13.874c0-5.377-0.542-9.894-1.619-13.56    c-1.083-3.661-2.556-6.596-4.424-8.81c-1.868-2.21-4.034-3.796-6.482-4.749c-2.453-0.942-5.074-1.413-7.868-1.413    C642.761,954.354,640.167,954.825,637.714,955.767" fill="url(#SVGID_00000091718771171595523750000014681926116627478914_)"/>
      <g>
        <linearGradient id="SVGID_00000026144152846477437900000015733354272946456192_" gradientUnits="userSpaceOnUse" x1="736.0027" y1="605.3729" x2="153.6978" y2="1187.6777">
          <stop offset="0.1033" stop-color="#24A5DE"/>
          <stop offset="0.5026" stop-color="#1B7BBE"/>
          <stop offset="0.8262" stop-color="#244FA1"/>
        </linearGradient>
        <path d="M349.743,954.034     c-2.529,0.682-4.803,1.733-6.802,3.157c-1.998,1.43-3.623,3.206-4.863,5.34c-1.235,2.134-1.857,4.651-1.857,7.554     c0,2.578,0.487,4.782,1.462,6.596c0.975,1.82,2.253,3.336,3.839,4.543c1.581,1.213,3.368,2.204,5.372,2.962     c2.004,0.769,4.056,1.413,6.168,1.944c2.058,0.579,4.083,1.105,6.087,1.576c1.998,0.477,3.791,1.034,5.377,1.663     c1.576,0.634,2.854,1.424,3.829,2.372c0.98,0.953,1.462,2.188,1.462,3.715c0,1.424-0.363,2.594-1.105,3.52     c-0.736,0.921-1.657,1.646-2.767,2.172c-1.105,0.531-2.291,0.883-3.558,1.072c-1.267,0.184-2.448,0.276-3.563,0.276     c-1.625,0-3.211-0.2-4.733-0.596c-1.533-0.395-2.865-1.002-3.996-1.82c-1.132-0.812-2.042-1.884-2.724-3.2     c-0.688-1.316-1.029-2.924-1.029-4.825h-12.017c-0.054,3.482,0.579,6.488,1.895,9.011c1.316,2.534,3.098,4.614,5.34,6.249     c2.237,1.63,4.82,2.832,7.749,3.596c2.924,0.763,5.941,1.148,9.044,1.148c3.85,0,7.235-0.45,10.165-1.349     c2.924-0.888,5.372-2.144,7.349-3.753c1.977-1.608,3.466-3.52,4.468-5.729c1.002-2.215,1.5-4.614,1.5-7.197     c0-3.162-0.672-5.751-2.009-7.787c-1.354-2.025-2.946-3.644-4.787-4.857c-1.841-1.213-3.704-2.096-5.572-2.648     c-1.868-0.552-3.336-0.937-4.392-1.143c-3.525-0.899-6.39-1.641-8.578-2.22c-2.188-0.579-3.899-1.159-5.134-1.738     c-1.24-0.579-2.069-1.213-2.491-1.895c-0.422-0.688-0.634-1.587-0.634-2.691c0-1.208,0.265-2.21,0.796-3     c0.525-0.791,1.197-1.451,2.009-1.977c0.818-0.525,1.733-0.893,2.729-1.11c1.002-0.211,2.004-0.319,3.006-0.319     c1.522,0,2.935,0.141,4.229,0.401c1.283,0.265,2.437,0.715,3.439,1.343c0.996,0.634,1.803,1.506,2.41,2.61     c0.607,1.105,0.958,2.507,1.067,4.192h12.017c0-3.271-0.623-6.049-1.857-8.345c-1.24-2.291-2.913-4.175-5.02-5.654     c-2.107-1.468-4.522-2.54-7.235-3.195c-2.708-0.66-5.545-0.991-8.497-0.991C354.801,953.005,352.267,953.346,349.743,954.034" fill="url(#SVGID_00000026144152846477437900000015733354272946456192_)"/>
        <linearGradient id="SVGID_00000045607238166335008170000008387239165421606073_" gradientUnits="userSpaceOnUse" x1="753.1005" y1="622.4707" x2="170.7956" y2="1204.7755">
          <stop offset="0.1033" stop-color="#24A5DE"/>
          <stop offset="0.5026" stop-color="#1B7BBE"/>
          <stop offset="0.8262" stop-color="#244FA1"/>
        </linearGradient>
        <polygon points="386.79,954.354 386.79,954.354      386.79,1010.792 386.79,1010.798 399.201,1010.798 399.201,1010.792 399.201,954.354    " fill="url(#SVGID_00000045607238166335008170000008387239165421606073_)"/>
        <linearGradient id="SVGID_00000003076003825068742080000012526581336485104522_" gradientUnits="userSpaceOnUse" x1="772.1543" y1="641.5245" x2="189.8495" y2="1223.8293">
          <stop offset="0.1033" stop-color="#24A5DE"/>
          <stop offset="0.5026" stop-color="#1B7BBE"/>
          <stop offset="0.8262" stop-color="#244FA1"/>
        </linearGradient>
        <polygon points="443.32,954.354 443.32,992.218      443.158,992.218 419.606,954.354 407.276,954.354 407.27,954.354 407.27,1010.792 407.276,1010.798 418.897,1010.798      418.897,973.004 419.054,973.004 442.529,1010.798 454.936,1010.798 454.936,954.354    " fill="url(#SVGID_00000003076003825068742080000012526581336485104522_)"/>
        <linearGradient id="SVGID_00000176007524649994777090000009782670531810786443_" gradientUnits="userSpaceOnUse" x1="800.4239" y1="669.7941" x2="218.119" y2="1252.099">
          <stop offset="0.1033" stop-color="#24A5DE"/>
          <stop offset="0.5026" stop-color="#1B7BBE"/>
          <stop offset="0.8262" stop-color="#244FA1"/>
        </linearGradient>
        <path d="M476.446,955.296     c-3.455,1.532-6.363,3.639-8.74,6.325c-2.372,2.691-4.186,5.843-5.453,9.45c-1.267,3.607-1.895,7.522-1.895,11.741     c0,4.105,0.628,7.944,1.895,11.497c1.267,3.558,3.081,6.655,5.453,9.293c2.377,2.637,5.285,4.706,8.74,6.206     c3.45,1.5,7.338,2.253,11.659,2.253c3.477,0,6.666-0.531,9.569-1.581c2.892-1.051,5.421-2.583,7.587-4.587     c2.161-2.004,3.899-4.43,5.215-7.273c1.321-2.843,2.134-6.033,2.453-9.564h-12.022c-0.471,3.796-1.771,6.85-3.91,9.168     c-2.139,2.323-5.101,3.476-8.892,3.476c-2.794,0-5.166-0.541-7.116-1.619c-1.955-1.077-3.531-2.518-4.744-4.305     c-1.213-1.792-2.096-3.812-2.643-6.049c-0.558-2.237-0.834-4.543-0.834-6.915c0-2.475,0.276-4.874,0.834-7.197     c0.547-2.318,1.43-4.386,2.643-6.206c1.213-1.82,2.789-3.26,4.744-4.348c1.95-1.078,4.321-1.619,7.116-1.619     c1.527,0,2.989,0.255,4.386,0.753c1.392,0.498,2.653,1.197,3.758,2.096c1.105,0.893,2.02,1.933,2.762,3.119     c0.736,1.186,1.213,2.491,1.424,3.91h12.017c-0.374-3.265-1.267-6.162-2.686-8.691c-1.424-2.529-3.233-4.652-5.415-6.363     c-2.188-1.711-4.668-3.022-7.435-3.91c-2.762-0.899-5.702-1.349-8.811-1.349C483.784,953.005,479.895,953.774,476.446,955.296" fill="url(#SVGID_00000176007524649994777090000009782670531810786443_)"/>
        <linearGradient id="SVGID_00000011010133268148270990000015780816759162223502_" gradientUnits="userSpaceOnUse" x1="824.0937" y1="692.7467" x2="246.4381" y2="1281.1503">
          <stop offset="0.1033" stop-color="#24A5DE"/>
          <stop offset="0.5026" stop-color="#1B7BBE"/>
          <stop offset="0.8262" stop-color="#244FA1"/>
        </linearGradient>
        <polygon points="518.138,954.354      518.138,1010.798 560.979,1010.798 560.984,1010.792 560.984,1000.362 530.545,1000.362 530.545,986.526 557.898,986.526      557.898,976.881 530.545,976.881 530.545,964.789 560.351,964.789 560.351,954.354    " fill="url(#SVGID_00000011010133268148270990000015780816759162223502_)"/>
        <linearGradient id="SVGID_00000021089799510020382010000012730140699487755155_" gradientUnits="userSpaceOnUse" x1="861.2862" y1="730.6564" x2="278.9814" y2="1312.9613">
          <stop offset="0.1033" stop-color="#24A5DE"/>
          <stop offset="0.5026" stop-color="#1B7BBE"/>
          <stop offset="0.8262" stop-color="#244FA1"/>
        </linearGradient>
        <path d="M595.328,956.054     c-2.556,1.132-4.679,2.713-6.363,4.738c-1.69,2.031-2.951,4.403-3.796,7.116c-0.839,2.719-1.213,5.654-1.105,8.816h10.749     c0-1.478,0.146-2.967,0.439-4.473c0.287-1.5,0.774-2.87,1.462-4.105c0.682-1.24,1.592-2.242,2.724-3.005     c1.132-0.763,2.518-1.143,4.148-1.143c2.431,0,4.419,0.747,5.973,2.247c1.554,1.506,2.329,3.596,2.329,6.287     c0,1.684-0.384,3.19-1.143,4.5c-0.769,1.321-1.711,2.507-2.849,3.563c-1.137,1.056-2.383,2.014-3.753,2.881     c-1.375,0.872-2.664,1.733-3.872,2.572c-2.377,1.641-4.63,3.244-6.764,4.82c-2.134,1.587-3.991,3.309-5.572,5.183     c-1.581,1.873-2.832,3.991-3.753,6.363c-0.921,2.372-1.381,5.161-1.381,8.378v0.005h40.626v-9.65h-26.161     c1.365-1.896,2.951-3.558,4.738-4.977c1.793-1.424,3.639-2.756,5.534-3.991c1.901-1.24,3.785-2.491,5.648-3.753     c1.874-1.267,3.552-2.681,5.025-4.24c1.473-1.549,2.664-3.325,3.558-5.329c0.899-2.004,1.343-4.403,1.343-7.197     c0-2.686-0.514-5.112-1.543-7.273c-1.024-2.161-2.41-3.98-4.143-5.453c-1.744-1.473-3.758-2.605-6.049-3.401     c-2.296-0.785-4.706-1.18-7.235-1.18C600.82,954.354,597.884,954.917,595.328,956.054" fill="url(#SVGID_00000021089799510020382010000012730140699487755155_)"/>
        <linearGradient id="SVGID_00000065056352094892673250000011318862301912770433_" gradientUnits="userSpaceOnUse" x1="901.2479" y1="770.6181" x2="318.943" y2="1352.923">
          <stop offset="0.1033" stop-color="#24A5DE"/>
          <stop offset="0.5026" stop-color="#1B7BBE"/>
          <stop offset="0.8262" stop-color="#244FA1"/>
        </linearGradient>
        <path d="M683.512,1000.438     c-1.213-1.478-2.096-3.255-2.648-5.34c-0.558-2.08-0.883-4.235-0.991-6.477c-0.108-2.242-0.157-4.148-0.157-5.735     c0-0.948,0.011-2.096,0.043-3.433c0.022-1.349,0.114-2.729,0.276-4.154c0.157-1.424,0.417-2.832,0.791-4.229     c0.363-1.397,0.883-2.648,1.538-3.753c0.661-1.11,1.5-2.004,2.529-2.691c1.029-0.682,2.307-1.029,3.839-1.029     c1.522,0,2.816,0.347,3.867,1.029c1.056,0.688,1.928,1.581,2.616,2.691c0.682,1.105,1.197,2.356,1.538,3.753     c0.341,1.397,0.607,2.805,0.791,4.229c0.184,1.424,0.292,2.805,0.314,4.154c0.033,1.337,0.043,2.486,0.043,3.433     c0,1.587-0.054,3.493-0.162,5.735c-0.103,2.242-0.428,4.397-0.986,6.477c-0.558,2.085-1.451,3.861-2.691,5.34     c-1.235,1.478-3.016,2.215-5.329,2.215C686.463,1002.653,684.725,1001.916,683.512,1000.438 M680.939,955.767     c-2.448,0.953-4.592,2.54-6.439,4.749c-1.847,2.215-3.314,5.15-4.386,8.81c-1.083,3.666-1.625,8.183-1.625,13.56     c0,5.54,0.541,10.159,1.625,13.874c1.072,3.715,2.54,6.677,4.386,8.892c1.847,2.215,3.991,3.791,6.439,4.744     c2.453,0.948,5.047,1.424,7.793,1.424c2.789,0,5.41-0.477,7.863-1.424c2.453-0.953,4.609-2.529,6.477-4.744     c1.874-2.215,3.352-5.177,4.43-8.892c1.078-3.715,1.619-8.334,1.619-13.874c0-5.377-0.542-9.894-1.619-13.56     c-1.078-3.661-2.556-6.596-4.43-8.81c-1.868-2.21-4.024-3.796-6.477-4.749c-2.453-0.942-5.074-1.413-7.863-1.413     C685.986,954.354,683.393,954.825,680.939,955.767" fill="url(#SVGID_00000065056352094892673250000011318862301912770433_)"/>
        <linearGradient id="SVGID_00000142167663550332816570000006480983297221463458_" gradientUnits="userSpaceOnUse" x1="922.0247" y1="791.3949" x2="339.7198" y2="1373.6997">
          <stop offset="0.1033" stop-color="#24A5DE"/>
          <stop offset="0.5026" stop-color="#1B7BBE"/>
          <stop offset="0.8262" stop-color="#244FA1"/>
        </linearGradient>
        <path d="M727.089,983.244     c-1.078-0.607-1.96-1.397-2.643-2.372c-0.688-0.975-1.202-2.085-1.543-3.319c-0.341-1.24-0.514-2.518-0.514-3.834     c0-1.267,0.184-2.502,0.558-3.715c0.363-1.213,0.921-2.291,1.657-3.244c0.736-0.953,1.635-1.711,2.686-2.291     c1.056-0.579,2.237-0.872,3.558-0.872c1.424,0,2.686,0.292,3.796,0.872c1.105,0.579,2.042,1.359,2.805,2.329     c0.758,0.98,1.343,2.085,1.733,3.325c0.401,1.24,0.596,2.486,0.596,3.753c0,1.37-0.184,2.675-0.552,3.915     c-0.368,1.235-0.921,2.329-1.657,3.276c-0.737,0.953-1.663,1.701-2.773,2.253c-1.099,0.558-2.421,0.834-3.948,0.834     C729.423,984.154,728.172,983.851,727.089,983.244 M722.627,955.929c-2.372,1.056-4.414,2.491-6.13,4.311     c-1.706,1.82-3.027,3.953-3.948,6.401c-0.926,2.453-1.386,5.101-1.386,7.944c0,2.215,0.341,4.403,1.024,6.564     c0.688,2.161,1.771,4.083,3.249,5.767c1.576,1.744,3.504,3.124,5.767,4.153c2.269,1.024,4.587,1.544,6.959,1.544     c2.686,0,5.058-0.477,7.11-1.424c2.058-0.953,3.85-2.529,5.377-4.744l0.157,0.157c-0.108,1.533-0.33,3.271-0.671,5.221     c-0.341,1.949-0.91,3.78-1.7,5.491c-0.791,1.717-1.841,3.162-3.163,4.348c-1.311,1.192-3,1.776-5.058,1.776     c-1.955,0-3.585-0.682-4.901-2.052c-1.316-1.37-2.161-2.978-2.529-4.82h-10.668c0.309,2.421,0.969,4.581,1.971,6.482     c1.002,1.895,2.291,3.509,3.872,4.819c1.581,1.321,3.401,2.307,5.459,2.968c2.058,0.655,4.267,0.986,6.639,0.986     c3.953,0,7.3-0.856,10.04-2.572c2.735-1.711,4.977-3.953,6.72-6.715c1.738-2.767,3-5.865,3.796-9.287     c0.791-3.428,1.181-6.856,1.181-10.278c0-3.482-0.32-6.926-0.948-10.36c-0.634-3.422-1.765-6.493-3.395-9.206     c-1.641-2.713-3.812-4.901-6.526-6.563c-2.718-1.657-6.179-2.486-10.392-2.486C727.63,954.354,724.999,954.879,722.627,955.929" fill="url(#SVGID_00000142167663550332816570000006480983297221463458_)"/>
      </g>
    </g>
  </g>
</svg>