<?xml version="1.0" encoding="UTF-8" standalone="yes"?>
<svg version="1.2" baseProfile="tiny-ps" viewBox="0 0 300 300" xml:space="preserve" xmlns="http://www.w3.org/2000/svg">
  <title>bimi-svg-tiny-12-ps</title>
  <rect x="-2.38" y="-2.16" fill="#00355A" width="304.5" height="304.5"/>
  <polyline fill="#FFFFFF" points="122.66,302.34 122.66,203.06 144.87,179.88 163.22,172.15 165.73,171.26 169.01,170.22 &#xA;&#x9;172.87,168.29 204.74,153.81 174.8,160.57 184.46,125.8 163.22,162.49 141.01,172.15 135.21,162.49 164.18,125.8 197.98,92.97 &#xA;&#x9;234.68,81.38 192.18,86.21 165.14,110.35 162.25,99.72 186.39,37.92 156.46,92 155.49,59.17 185.43,12.82 185.43,12.82 &#xA;&#x9;184.52,13.77 145.84,54.34 145.84,87.18 153.55,119.04 117.83,154.77 115.9,153.81 114.93,152.84 136.17,87.18 113,120.98 &#xA;&#x9;108.17,89.1 120.72,44.68 98.51,25.37 109.13,46.62 99.48,85.24 83.06,78.48 73.41,50.48 73.41,80.41 60.85,48.55 57.95,17.64 &#xA;&#x9;51.2,44.68 65.68,82.35 48.3,62.06 37.68,71.72 38.31,71.72 45.41,71.72 64.71,88.14 96.58,94.9 102.38,125.8 102.38,125.8 &#xA;&#x9;55.06,106.48 38.64,120.98 39.69,120.65 54.09,116.15 98.51,133.52 100.45,151.87 90.79,164.43 67.62,160.57 38.19,122.88 &#xA;&#x9;62.79,171.19 88.86,179.88 88.86,179.88 102.38,202.09 102.38,302.34 122.66,302.34 "/>
  <path fill="#133458" d="M38.64,120.98"/>
  <polygon fill="#133458" points="123.63,169.26 113.96,166.36 106.24,170.22 106.24,182.78 115.9,191.47 125.55,181.81 "/>
</svg>