<?xml version="1.0" encoding="utf-8"?>
<!-- Generator: Adobe Illustrator 25.2.3, SVG Export Plug-In . SVG Version: 6.00 Build 0)  -->
<svg version="1.2" baseProfile="tiny-ps" xmlns="http://www.w3.org/2000/svg" viewBox="0 0 200 200">
  <title>Southern Cross Medical Care Society</title>
<rect fill="#FFFFFF" width="200" height="200" />
<path fill="#007DB9" d="M123.6,76.7c0.7,5.5,5.3,9.9,11.1,9.9c-6.1,0-11.1,5-11.1,11.1c0-6.1-5-11.1-11.1-11.1  c6,0,10.7-4.6,11.1-10.4V40.8h-47v35.9H40.4v46.7h36.1v35.8h47v-15.4c0-11.3-9.3-20.4-20.5-20.4c11.4,0,20.5-9.1,20.5-20.4  c0,11.2,9,20.1,20.1,20.4h15.9V76.7H123.6z M118,104.3c-6.1,0-11.1,5-11.1,11.1c0-6.1-5-11.1-11.1-11.1c6.2,0,11.1-5,11.1-11.1  C106.9,99.2,111.9,104.2,118,104.3C118.1,104.2,118.1,104.2,118,104.3C118.1,104.3,118.1,104.2,118,104.3z M151.4,104.3  c-6.1,0-11.1,5-11.1,11.1c0-6.1-5-11.1-11.1-11.1c6.2,0,11.1-5,11.1-11.1C140.2,99.2,145.1,104.2,151.4,104.3  C151.4,104.2,151.4,104.2,151.4,104.3z" />
</svg>