<?xml version="1.0" encoding="utf-8" standalone="yes"?><!-- Generator: Adobe Illustrator 27.9.0, SVG Export Plug-In . SVG Version: 6.00 Build 0)  --><svg xmlns="http://www.w3.org/2000/svg" xmlns:xlink="http://www.w3.org/1999/xlink" version="1.2" baseProfile="tiny-ps" viewBox="0 0 64 64" xml:space="preserve"><title>Zappos</title><g><path d="M43.6,39.7c-0.3,0-0.5,0.1-0.7,0.3c-0.2,0.2-0.2,0.5-0.2,0.9c0,0.9,0.3,1.3,0.9,1.3c0.3,0,0.5-0.1,0.7-0.3   c0.2-0.2,0.2-0.5,0.2-1C44.5,40.2,44.2,39.7,43.6,39.7z"></path><path d="M52.9,38.4H34c-0.4,0-0.8,0.4-0.8,0.9v3.7c0,0.5,0.4,0.8,0.8,0.8h18.8c0.4,0,0.8-0.4,0.8-0.8v-3.7   C53.7,38.8,53.3,38.4,52.9,38.4z M35.4,42.6c-0.5,0-1-0.5-1-1.1s0.4-1.1,1-1.1c0.5,0,1,0.5,1,1.1S35.9,42.6,35.4,42.6z M40.6,43   L40.6,43L40.6,43c-0.2,0-0.4,0.1-0.7,0.1c-0.6,0-1.1-0.2-1.4-0.5c-0.4-0.4-0.5-0.8-0.5-1.5s0.2-1.1,0.6-1.5   c0.4-0.4,0.9-0.6,1.6-0.6c0.5,0,0.8,0.1,1.2,0.4l-0.4,0.7c-0.2-0.2-0.5-0.3-0.9-0.3c-0.4,0-0.6,0.1-0.8,0.3c-0.2,0.2-0.3,0.5-0.3,1   c0,0.8,0.4,1.2,1.2,1.2c0.4,0,0.6-0.1,0.9-0.3l0.3,0.7C41,42.8,40.7,42.9,40.6,43z M45,42.5L45,42.5c-0.3,0.4-0.8,0.6-1.4,0.6   c-0.6,0-1.1-0.2-1.4-0.6c-0.3-0.4-0.5-0.9-0.5-1.5s0.2-1.1,0.5-1.4c0.4-0.4,0.8-0.6,1.4-0.6c0.6,0,1,0.2,1.4,0.5   c0.3,0.3,0.5,0.8,0.5,1.4S45.3,42.1,45,42.5z M51.6,42.9L51.6,42.9l-0.9,0v-2.4c0-0.5-0.2-0.8-0.7-0.8c-0.1,0-0.3,0-0.4,0.1   c-0.1,0.1-0.2,0.2-0.3,0.3v2.8h-0.9v-2.6c0-0.2-0.1-0.4-0.2-0.5c-0.1-0.1-0.3-0.2-0.5-0.2c-0.1,0-0.2,0-0.4,0.1   c-0.1,0.1-0.2,0.2-0.3,0.3v2.8h-0.9V39h0.6l0.2,0.4c0.2-0.3,0.6-0.4,1-0.4c0.5,0,0.9,0.1,1.2,0.4c0.1-0.1,0.3-0.2,0.5-0.3   C49.8,39,50,39,50.3,39c0.4,0,0.8,0.1,1,0.4c0.2,0.3,0.4,0.6,0.4,1V42.9z"></path><path d="M63.5,23.7L63.5,23.7L63.5,23.7c-0.2-1.1-0.8-2.2-2-2.5c-1-0.2-1.8,0.4-2.3,1.1c-0.6,0.8-1.1,1.8-1.4,2.8   c-0.5,1.3-0.8,2.6-1,4c-0.3,1.4-0.4,2.8-0.5,4.2c0,0.7,0,1.4,0,2.1c0,0.3,0.1,0.7,0.1,1c0,0.2,0.1,0.3,0.1,0.5c0,0.1,0,0.2,0.1,0.2   c0,0,0.1,0,0.1,0c0.6-0.1,1.3-0.2,1.9-0.1c0.7,0,1.3,0.2,1.9,0.6c0.1,0.1,0.3,0.2,0.4,0.3c0.1,0,0.1,0.1,0.2,0.1   c0.1,0,0.1,0.1,0.2,0.1c0.2-0.3,0.3-0.6,0.5-0.9c0.3-0.6,0.5-1.2,0.7-1.8c0.4-1.3,0.8-2.6,1-4c0.2-1.4,0.4-2.8,0.4-4.2   C63.8,26.1,63.8,24.9,63.5,23.7z M59.1,25.1L59.1,25.1c0.3-0.5,0.6-1.1,1.1-1.5c0.3-0.3,0.9-0.7,1.3-0.3c0.4,0.3,0.6,0.8,0.8,1.3   c0.2,0.6,0.3,1.2,0.4,1.9c-1.2-0.3-2.5-0.6-3.8-0.9C59,25.4,59,25.2,59.1,25.1z M57.4,30.6L57.4,30.6c0.1-0.7,0.3-1.4,0.4-2   c0.1-0.3,0.2-0.7,0.3-1c0-0.1,0.3-0.8,0.3-0.8c0.5,0.1,0.9,0.2,1.4,0.3c0.6,0.1,1.2,0.3,1.7,0.4L57.3,31   C57.3,30.9,57.3,30.8,57.4,30.6z M61.8,34.4L61.8,34.4L61.8,34.4c-0.1,0.3-0.2,0.6-0.3,0.9c0,0-0.1,0.4-0.2,0.4c0,0,0,0,0,0   c-0.2,0-0.3-0.1-0.5-0.1c-0.6-0.1-1.3-0.3-1.9-0.4c-0.6-0.1-1.1-0.2-1.7-0.4c0-0.3,0-0.6,0-0.9c0-0.3,0-0.6,0-0.9   c1,0.2,2,0.5,3,0.7c0.6,0.1,1.1,0.3,1.7,0.4C61.8,34.2,61.8,34.3,61.8,34.4z M62.6,30.2L62.6,30.2c-0.1,0.8-0.2,1.6-0.4,2.4   c-1-0.2-2.1-0.5-3.1-0.7c-0.2,0-0.4-0.1-0.7-0.1l4.3-3.9C62.7,28.6,62.7,29.4,62.6,30.2z"></path><path d="M10,23.6c0.2-0.3,0.3-0.7,0.3-0.9c0-0.9-0.6-1.4-1.7-1.4H1v3.7h1c0-0.8,0.2-1.4,0.5-1.7c0.3-0.3,0.9-0.4,1.7-0.4h3.2   L1.2,34.5c-0.3,0.6-0.5,1.1-0.5,1.4c0,0.3,0.1,0.6,0.4,0.9c0.3,0.2,0.6,0.4,0.9,0.4h8.5v-1.6H3.8L10,23.6z"></path><path d="M15.1,26.1c-1.1,0-2,0.2-2.7,0.8c-0.7,0.5-1,1.2-1,2l1.3,1.4c0.8,0,1.3-0.4,1.4-1.2c0.1-0.8,0.2-1.2,0.2-1.2   c0.1-0.4,0.4-0.6,0.8-0.6c0.4,0,0.7,0.2,0.8,0.6c0.2,0.4,0.2,1.1,0.2,2.1v1c-3.5,0.2-5.2,1.4-5.2,3.6c0,0.8,0.3,1.4,0.8,1.9   c0.6,0.5,1.3,0.8,2.1,0.8c0.5,0,1-0.1,1.4-0.4c0,0,0.4-0.3,1-0.8c0.3-0.3,0.7-0.4,1.2-0.4h1.2v-5.7l0,0c0-1.5-0.3-2.5-0.8-3.2   C17.3,26.4,16.4,26.1,15.1,26.1z M16.2,34.5c-0.4,0.8-0.9,1.3-1.6,1.3c-0.7,0-1-0.5-1-1.5c0-1.2,0.9-1.9,2.6-2V34.5z"></path><path d="M24.9,26.1L24.9,26.1c-0.6,0-1.2,0.2-1.6,0.6c-0.4,0.4-0.9,0.8-1.3,1.2c-0.2,0.2-0.7,0.3-1.4,0.3c0,0-0.1,0-0.3,0H20v12.6   c0,0.4,0.1,0.7,0.4,0.9c0.2,0.3,0.5,0.4,0.9,0.4s0.6-0.1,0.8-0.4c0.2-0.2,0.3-0.6,0.3-0.9v-4.3c0.6,0.7,1.3,1.1,2.3,1.1   c1.2,0,2.2-0.5,2.9-1.5c0.7-1,1-2.4,1-4.3s-0.3-3.2-1-4.2C26.9,26.6,26.1,26.1,24.9,26.1z M24.2,35.9L24.2,35.9   c-1.2,0-1.8-1.1-1.8-3.3V30c0.5-1.5,1.1-2.2,1.8-2.2c1.1,0,1.7,1.3,1.7,4C25.9,34.4,25.3,35.9,24.2,35.9z"></path><path d="M37.1,36.1L37.1,36.1L37.1,36.1c0.7-1,1-2.4,1-4.3s-0.3-3.2-1-4.2c-0.6-1-1.5-1.5-2.6-1.5c-0.6,0-1.2,0.2-1.7,0.6   c-0.4,0.4-0.9,0.8-1.3,1.2c-0.2,0.2-0.7,0.3-1.4,0.3c-0.1,0-0.2,0-0.3,0h-0.3v12.6c0,0.4,0.1,0.7,0.4,0.9c0.2,0.3,0.5,0.4,0.8,0.4   c0.4,0,0.6-0.1,0.8-0.4c0.2-0.2,0.4-0.6,0.4-0.9v-4.3c0.6,0.7,1.3,1.1,2.3,1.1C35.4,37.5,36.4,37,37.1,36.1z M31.9,32.6V30   c0.5-1.5,1.1-2.2,1.8-2.2c1.1,0,1.7,1.3,1.7,4c0,2.6-0.6,4.1-1.7,4.1C32.6,35.9,31.9,34.8,31.9,32.6z"></path><path d="M42.9,37.4c2.7,0,4.1-1.9,4.1-5.6c0-1.8-0.4-3.2-1.1-4.2c-0.7-1-1.7-1.5-3-1.5c-2.7,0-4.1,1.9-4.1,5.8S40.2,37.4,42.9,37.4   z M41.6,28.4c0.3-0.7,0.7-1.1,1.3-1.1c0.8,0,1.3,0.7,1.6,2.1c0.1,0.5,0.1,1.6,0.1,3.3c0,2.3-0.6,3.4-1.7,3.4   c-0.6,0-1.1-0.4-1.4-1.1c-0.2-0.7-0.4-1.7-0.4-3.3C41.2,30.3,41.3,29.1,41.6,28.4L41.6,28.4z"></path><path d="M51.4,30.2L51.4,30.2c-0.9-0.6-1.4-1.1-1.4-1.6c0-0.8,0.4-1.1,1.3-1.1c1,0,1.5,0.5,1.5,1.4h0.9v-2.4   c-1-0.3-1.7-0.4-2.3-0.4c-1.2,0-2.1,0.3-2.7,0.8c-0.6,0.6-1,1.3-1,2.3c0,0.7,0.2,1.3,0.6,1.8c0.3,0.5,0.9,1,1.7,1.5   c0.8,0.6,1.3,0.9,1.4,1.1c0.4,0.3,0.5,0.7,0.5,1.1c0,0.8-0.5,1.1-1.4,1.1c-0.6,0-1.2-0.2-1.8-0.7c-0.1,0-0.2,0-0.3,0   c-0.4,0-0.6,0.1-0.6,0.5c0,0.5,0.3,0.9,0.9,1.3c0.6,0.3,1.3,0.5,2.2,0.5c1,0,1.8-0.3,2.5-0.9c0.6-0.6,0.9-1.4,0.9-2.3   c0-1.1-0.4-2.1-1.3-2.9C52.4,30.8,51.8,30.5,51.4,30.2z"></path><path d="M58.5,38.6c-1.4-0.2-2.6,0.8-2.8,2.2c-0.2,1.4,0.8,2.7,2.1,2.9c1.4,0.2,2.6-0.8,2.8-2.2h0C60.8,40,59.9,38.7,58.5,38.6z"></path></g></svg>