<?xml version="1.0" encoding="UTF-8"?>
<svg id="Layer_1" xmlns="http://www.w3.org/2000/svg" baseProfile="tiny-ps" version="1.2" viewBox="0 0 566.9 566.9" xml:space="preserve">
  <title>Eugrid K.K.</title>
  <path d="M253.6,256.2h50.2v-12.5h-60.4c-10,0-18.2,8.6-18.2,19.1v42.2c0,10.5,8.1,19.1,18.2,19.1h60.4v-41.5h-22.3v29h-27.9c-3.5,0-6.2-3.1-6.1-6.6v-42.3c-.1-3.5,2.6-6.4,6.1-6.6h0Z" fill="#f18c1d" stroke-width="0"/>
  <path d="M71.7,256.2h50.1v-12.5h-60.3c-10,0-18.2,8.6-18.2,19.1v42.2c0,10.5,8.1,19.1,18.2,19.1h60.3v-12.5h-50.1c-3.5,0-6.2-3.1-6.1-6.6v-14.8h40.6v-12.5h-40.6v-14.9c0-3.5,2.6-6.4,6.1-6.6Z" fill="#f18c1d" stroke-width="0"/>
  <path d="M189.6,311.5h-27.3c-3.5,0-6.2-3.1-6.1-6.6v-62.1h-22.6v62.2c0,10.5,8.1,19.1,18.2,19.1h60.4v-81.3h-22.6v68.7h0Z" fill="#f18c1d" stroke-width="0"/>
  <rect x="408.9" y="242.8" width="22.4" height="81.3" fill="#f18c1d" stroke-width="0"/>
  <path d="M370.2,295.1h6.6c9.5,0,17.5-7.8,18.1-17.8h0v-14.5c0-10.5-8.1-19.1-18.1-19.1h-60.4v80.4h20.6v-40.1l34.8,40.1h23.6l-25.2-29ZM337.1,282.5v-26.4h29.6c3.5.1,6.2,3.1,6.1,6.6v13.2c.1,3.5-2.6,6.4-6.1,6.6h-29.6Z" fill="#f18c1d" stroke-width="0"/>
  <path d="M505.5,242.8h-60.4v81.3h60.4c10,0,18.2-8.6,18.2-19.1v-43.1c0-10.5-8.1-19.1-18.2-19.1ZM501.4,305c.1,3.5-2.6,6.4-6.1,6.6h-27.9v-56.3h27.9c3.5.1,6.2,3.1,6.1,6.6v43.1Z" fill="#f18c1d" stroke-width="0"/>
</svg>