<?xml version="1.0" encoding="utf-8"?>
<!-- Generator: Adobe Illustrator 27.5.0, SVG Export Plug-In . SVG Version: 6.00 Build 0)  -->
<svg version="1.2" baseProfile="tiny-ps" id="Laag_1" xmlns="http://www.w3.org/2000/svg" xmlns:xlink="http://www.w3.org/1999/xlink"
	  viewBox="0 0 180 180" xml:space="preserve">
<title>Essent</title>
<path fill="#FFFFFF" d="M0,0h180v180H0V0z"/>
<g>
	<path id="reuse-0" fill-rule="evenodd" fill="#E60167" d="M98,52c-12,0-19,8-23,25h33C112,58,110,52,98,52z M134,63c1,7,0,16-3,29
		H73c-4,20,3,28,25,28c9,0,18-1,27-4l-3,14c-13,5-22,8-37,8c-30,0-44-17-38-49c5-32,26-52,54-52C121,37,132,46,134,63z"/>
</g>
<g>
	<path id="reuse-0_00000162317990012123862980000000399059073311209349_" fill-rule="evenodd" fill="#E60167" d="M98,52
		c-12,0-19,8-23,25h33C112,58,110,52,98,52z M134,63c1,7,0,16-3,29H73c-4,20,3,28,25,28c9,0,18-1,27-4l-3,14c-13,5-22,8-37,8
		c-30,0-44-17-38-49c5-32,26-52,54-52C121,37,132,46,134,63z"/>
</g>
</svg>
