<svg xmlns="http://www.w3.org/2000/svg" xmlns:xlink="http://www.w3.org/1999/xlink" version="1.2" viewBox="0 0 160 160" baseProfile="tiny-ps">
  <title>Navigators_Sail_Color_BIMI</title>
  <path d="M80,7.8c-39.3,0-71.2,32-71.2,71.1s32,71.2,71.2,71.2s71.2-31.9,71.2-71.2S119.3,7.8,80,7.8z   M80,140.6c-22.3,0-42-11.9-52.8-29.8h63.3c5.7-9,9-19.7,9-31.2c0-22.8-13-42.5-32-52.1C63,59,47.6,86.9,25.2,107.4  c-4.5-8.5-7-18.2-7-28.4c0-34,27.7-61.7,61.7-61.7S141.6,45,141.6,79s-27.7,61.7-61.7,61.7l0,0L80,140.6z" fill="#D19F2A"/>
</svg>