<?xml version="1.0" encoding="utf-8"?>
<!-- Generator: Adobe Illustrator 27.7.0, SVG Export Plug-In . SVG Version: 6.00 Build 0)  -->
<svg version="1.2" baseProfile="tiny-ps" id="Layer_1" xmlns="http://www.w3.org/2000/svg" xmlns:xlink="http://www.w3.org/1999/xlink"
	viewBox="0 0 675 675" xml:space="preserve">
	<title>Square Peg</title>
<g>
	<path fill="#272626" d="M6.6,357.1h10.7c0.1,15.1,9.6,21.8,22.5,21.8c9.7,0,20.9-3.5,20.9-13.2c0-21-50.9-0.4-50.9-33
		c0-15.2,13.6-22.9,29.1-22.9c18.7,0,30.9,11.1,31.2,29.5H59.5c0-12.5-7.8-20.1-20.5-20.1c-9.2,0-18.6,3.9-18.6,13.1
		c0,21,50.8,0.6,50.8,33c0,16.4-15.3,23-31.8,23C21.9,388.3,6.5,378.3,6.6,357.1z"/>
	<path fill="#272626" d="M124.7,379.3h-0.2c-3.4,5.2-10.3,8.9-18.6,8.9c-15.8,0-26.6-12.5-26.6-28.3s10.8-28.3,26.6-28.3
		c7.9,0,15.1,3.5,18.6,8.9h0.2l1.2-7.8h8.6v76.2h-9.8C124.7,408.9,124.7,379.3,124.7,379.3z M125.2,359.9c0-10.9-7-19.3-17.9-19.3
		s-18,8.4-18,19.3s7.1,19.3,18,19.3C118.2,379.2,125.2,370.8,125.2,359.9z"/>
	<path fill="#272626" d="M144.8,365.9v-33.2h9.8V365c0,9.3,4.6,14.5,13.8,14.5c11.1,0,16.8-9.4,16.8-20.5v-26.4h9.8v45.1l1.3,9.4
		h-9.8l-1.3-8.7H185c-3.6,5.7-10,9.8-18.6,9.8C152.4,388.3,144.8,379.9,144.8,365.9z"/>
	<path fill="#272626" d="M204.8,359.9c0-15.8,10.8-28.3,26.6-28.3c8.3,0,15.2,3.7,18.6,8.9h0.2l1.1-7.8h8.7v45.7l1.2,8.7h-9.8
		l-1.2-7.8H250c-3.5,5.5-10.7,8.9-18.6,8.9C215.6,388.3,204.8,375.7,204.8,359.9z M250.7,359.9c0-10.9-7-19.3-17.9-19.3
		s-18,8.3-18,19.3s7.1,19.3,18,19.3C243.8,379.2,250.7,370.8,250.7,359.9z"/>
	<path fill="#272626" d="M270.9,332.7h31.6v9h-21.8v45.4h-9.8L270.9,332.7L270.9,332.7z"/>
	<path fill="#272626" d="M306.3,359.9c0-16.2,11.5-28.3,27.8-28.3c17.4,0,27.2,11.8,27.2,30.8h-44.8c1.1,9.8,8.2,17,18.3,17
		c8.3,0,14.3-3.9,15.9-10.3h10.1c-2.1,10-10.9,19.2-26.2,19.2C318.4,388.3,306.3,376.2,306.3,359.9z M350.5,354.1
		c-1-8.7-7.1-13.8-16.3-13.8c-8.9,0-15.1,5.8-17.1,13.8H350.5z"/>
	<path fill="#272626" d="M385.8,310.9H419c16.2,0,27.8,8,27.8,24.2s-11.9,24.8-28.1,24.8h-22.2v27.2h-10.7V310.9L385.8,310.9z
		 M418.3,350.1c9.8,0,17.5-5.2,17.5-15s-7.4-14.4-17.2-14.4h-22.2v29.4C396.5,350.1,418.3,350.1,418.3,350.1z"/>
	<path fill="#272626" d="M451.1,359.9c0-16.2,11.5-28.3,27.8-28.3c17.4,0,27.2,11.8,27.2,30.8h-44.8c1.1,9.8,8.2,17,18.3,17
		c8.3,0,14.3-3.9,15.9-10.3h10.1c-2.1,10-10.9,19.2-26.2,19.2C463.2,388.3,451.1,376.2,451.1,359.9z M495.3,354.1
		c-1-8.7-7.1-13.8-16.3-13.8c-8.9,0-15.1,5.8-17.1,13.8H495.3z"/>
	<path fill="#272626" d="M515.6,387.1h9.8c0.4,10.7,7.2,13.9,17.8,13.9c10.9,0,17.6-5.9,17.6-16.8v-7.3h-0.2c-3.5,5.7-10.5,9-18.3,9
		c-15.5,0-26.9-11.8-26.9-27.2c0-15,11.7-27.2,26.7-27.2c8.1,0,14.9,3.6,18.5,8.8h0.2l1.1-7.7h8.7v51.6c0,16.8-10.9,25.7-27.7,25.7
		C528.1,410,515.9,404.1,515.6,387.1z M561.5,358.8c0-10.2-7.7-18-18-18s-18.1,7.7-18.1,18c0,10.7,7.4,18,18.1,18
		C553.8,376.8,561.5,369.1,561.5,358.8z"/>
	<g>
		<path fill="#39B775" d="M656.3,275.8c-7-6.7-16.5-10.8-27-10.8s-20,4.1-27,10.8H656.3z"/>
		<path fill="#39B775" d="M657.8,277.2v53.9c6.7-7,10.8-16.5,10.8-27C668.5,293.7,664.4,284.3,657.8,277.2z"/>
		<path fill="#39B775" d="M602.4,332.6c7,6.7,16.5,10.8,27,10.8s20-4.1,27-10.8H602.4z"/>
		<path fill="#39B775" d="M600.9,277.2c-6.7,7-10.8,16.5-10.8,27c0,10.4,4.1,20,10.8,27V277.2z"/>
	</g>
</g>
<rect fill="none" stroke="#000000" stroke-miterlimit="10" width="675" height="675"/>
</svg>
