<?xml version="1.0" encoding="utf-8"?>
<!-- Generator: Adobe Illustrator 27.9.6, SVG Export Plug-In . SVG Version: 9.03 Build 54986)  -->
<svg version="1.2" baseProfile="tiny-ps" id="Ebene_1" xmlns="http://www.w3.org/2000/svg" xmlns:xlink="http://www.w3.org/1999/xlink"
	 viewBox="0 0 2048 2048" xml:space="preserve">
	 <title>CATELLA</title>
<rect fill="#AA0032" width="2048" height="2048"/>
<g>
	<path fill="#FFFFFF" d="M1682,1674H365.1V357.1H1682L1682,1674L1682,1674z M331.6,1707.5h1384.8V323.6H331.6v1384.8V1707.5z"/>
	<path fill="#FFFFFF" d="M987.2,1078.9c3.7-4.7,5.6-8.4,5.6-16.8v-136c0-8.4-2.8-12.1-5.6-16.8l-5.6-7.5h105.2
		c9.3,0,14.9-2.8,14.9-2.8V942c0,0-6.5-8.4-11.2-12.1c-3.7-1.9-9.3-5.6-15.8-5.6h-42.8v51.2h37.3c7.5,0,12.1-1.9,16.8-5.6l7.5-5.6
		v45.6l-7.5-5.6c-4.7-2.8-8.4-5.6-16.8-5.6h-37.3v44.7c0,4.7,1.9,9.3,4.7,12.1c3.7,3.7,8.4,3.7,8.4,3.7h1.9h26.1
		c14.9,0,26.1-2.8,37.3-18.6l-5.6,44.7h-94.1h7.5h-35.4l5.6-8.4L987.2,1078.9z"/>
	<path fill="#FFFFFF" d="M1187.4,948.5v-22.4c0-8.4,2.8-12.1,6.5-16.8l5.6-7.5h-61.5l5.6,7.5c3.7,4.7,5.6,8.4,5.6,16.8v136
		c0,7.5-2.8,12.1-5.6,16.8l-5.6,7.5h122l5.6-43.8c-11.2,15.8-22.4,18.6-37.3,18.6h-27.9c0,0-4.7,0-8.4-3.7
		c-2.8-2.8-4.7-6.5-4.7-12.1v-45.6L1187.4,948.5L1187.4,948.5z"/>
	<path fill="#FFFFFF" d="M907.1,1078.9c-3.7-4.7-5.6-8.4-5.6-16.8v-136h36.3c6.5,0,13,3.7,15.8,5.6c4.7,2.8,11.2,11.2,11.2,11.2
		v-43.8c0,0-5.6,2.8-14.9,2.8H814c-9.3,0-14.9-2.8-14.9-2.8v43.8c0,0,6.5-8.4,11.2-11.2c3.7-1.9,9.3-5.6,15.8-5.6h36.3v136
		c0,8.4-2.8,12.1-5.6,16.8l-5.6,7.5h61.5L907.1,1078.9L907.1,1078.9z"/>
	<path fill="#FFFFFF" d="M1327.1,948.5v-22.4c0-8.4,2.8-12.1,5.6-16.8l5.6-7.5h-61.5l5.6,7.5c3.7,4.7,6.5,8.4,6.5,16.8v136
		c0,7.5-2.8,12.1-6.5,16.8l-5.6,7.5h122l5.6-43.8c-11.2,15.8-22.4,18.6-37.3,18.6h-27.9c0,0-4.7,0-8.4-3.7
		c-2.8-2.8-4.7-6.5-4.7-12.1v-45.6v-51.2L1327.1,948.5z"/>
	<path fill="#FFFFFF" d="M745.1,1012.8c-8.4-20.5-20.5-48.4-20.5-48.4l-22.4,48.4H745.1L745.1,1012.8z M821.4,1079.8l7.5,6.5h-57.7
		l2.8-7.5c0.9-3.7-1.9-13-3.7-15.8c0,0,0-1.9-1.9-3.7l-12.1-26.1h-63.3L678,1063c-3.7,8.4-7.5,12.1-6.5,16.8l4.7,7.5h-47.5l8.4-7.5
		c4.7-4.7,9.3-8.4,13-16.8l84.7-172.3l77.3,172.3c3.7,8.4,5.6,14,10.2,16.8l0,0H821.4z"/>
	<path fill="#FFFFFF" d="M1522.7,1012.8c-8.4-20.5-20.5-48.4-20.5-48.4l-22.4,48.4H1522.7L1522.7,1012.8z M1599.1,1079.8l7.5,6.5
		h-57.7l2.8-7.5c0.9-3.7-2.8-13-3.7-15.8c0,0,0-1.9-1.9-3.7l-12.1-26.1h-63.3l-14.9,29.8c-3.7,8.4-7.5,12.1-6.5,16.8l4.7,7.5h-47.5
		l8.4-7.5c4.7-4.7,9.3-8.4,13-16.8l84.7-172.3l77.3,172.3c3.7,8.4,6.5,14,10.2,16.8l0,0H1599.1z"/>
	<path fill="#FFFFFF" d="M622.1,1035.1c-14,15.8-39.1,27.9-61.5,27.9c-41.9,0-64.3-34.5-64.3-71.7c0-37.3,22.4-71.7,64.3-71.7
		c41.9,0,41.9,5.6,55.9,19.6v-43.8c-14.9,7.5-13,0-66.1,0s-99.6,43.8-99.6,97.8c0,54,41,98.7,109.9,99.6c35.4,0,45.6-8.4,58.7-14
		l1.9-41.9L622.1,1035.1z"/>
</g>
</svg>
