<svg version="1.2" id="snacks" fill="none" xmlns="http://www.w3.org/2000/svg" viewBox="0 0 1100 1100" xml:space="preserve" baseProfile="tiny-ps">
  <title>Snacks</title>
  <path fill="#5869FF" d="M151.744 480.068c0 17.215 8.731 29.142 17.771 38.579h.205l20.853 21.779c12.224 12.548 23.318 31.215 23.318 49.053 0 44.905-41.397 74.668-83.513 74.668-49.102 0-78.378-31.215-78.378-66.579 0-19.601 13.251-32.253 27.53-32.253 18.387 0 23.626 14.312 23.626 25.927 0 15.763-5.239 26.341-15.717 37.541 8.32 7.364 21.572 13.275 37.905 13.275 30.92 0 54.957-11.926 54.957-36.816 0-14-8.013-26.964-21.983-41.379l-19.517-20.015c-15.922-16.49-25.373-35.468-25.373-52.268 0-37.853 36.467-66.58 79.713-66.58 43.246 0 74.885 24.267 74.885 55.068 0 17.838-12.121 28.727-27.119 28.727-12.943 0-22.291-9.437-22.291-24.164 0-10.785 4.109-19.911 13.56-28-9.348-7.053-21.264-12.653-35.851-12.653-23.318 0-44.581 15.453-44.581 36.09Z"/>
  <path fill="#5869FF" d="M930.177 524.559c0-29.868 25.064-54.031 62.353-54.031l-.206.207c27.836 0 55.676 14.726 55.676 36.505 0 8.815-6.57 19.289-19.11 19.289-8.32 0-18.79-6.015-18.79-17.215 0-7.363 1.74-11.926 6.26-16.801-6.57-4.148-14.58-5.6-19.824-5.6-22.599 0-31.639 13.69-31.639 26.964 0 17.769 5.785 32.427 11.42 46.704 5.349 13.553 10.563 26.763 10.563 41.965 0 35.053-27.53 61.706-70.365 61.706-9.04 0-17.566-1.764-25.167-4.875C880.562 668.192 867.002 674 851.799 674c-45.917 0-78.582-33.186-89.677-82.654-12.326 20.845-23.215 43.764-31.535 67.202h-34.104l87.006-171.116c12.121-24.164-3.801-42.727-24.037-42.727-19.209 0-34.207 14.104-43.657 27.275 15.819 3.007 25.475 11.615 25.475 25.719 0 12.963-10.067 23.126-25.784 23.126-15.716 0-25.783-11.511-25.783-30.801-40.986 9.127-81.767 62.743-81.767 101.322 0 25.2 12.532 39.616 36.158 39.616 26.092 0 46.02-15.764 60.607-39.616l10.477 7.363c-28.248 47.29-63.38 65.543-94.71 65.543-28.865 0-44.377-15.245-48.691-35.468-17.36 24.371-34.823 35.468-51.567 35.468-21.88 0-25.372-20.016-14.586-45.942l2.054-4.875h-3.39c-14.278 24.89-38.315 50.817-67.591 50.817-16.95 0-27.735-12.342-30.714-28.001-13.457 18.874-27.53 28.001-43.76 28.001-18.49 0-31.023-11.201-31.023-28.001 0-25.636 24.165-48.987 46.121-70.204 18.281-17.664 35.03-33.85 35.03-48.644 0-8.711-4.93-15.763-16.024-15.763-38.316 0-114.536 99.869-147.613 157.011h-33.077l59.888-117.395h-50.129v-13.275c43.554 0 59.579-15.763 65.126-50.09h41.808l-44.581 87.321 6.266 3.111c24.037-32.253 73.857-97.484 123.986-97.484 19.209 0 30.303 12.237 30.303 29.452 0 25.725-25.42 50.039-47.985 71.621-18.006 17.222-34.193 32.704-34.193 45.775 0 6.949 4.212 12.238 11.505 12.238 13.868 0 24.654-13.69 39.651-44.179 25.681-50.298 87.931-108.581 146.894-109.307l2.773-6.741c3.904-9.126 9.759-17.215 21.264-17.215 13.251 0 18.798 8.815 13.251 19.289l-69.235 131.085c-8.732 16.49-5.239 26.964 3.801 26.964 12.943 0 23.523-12.756 39.548-45.009 16.436-55.794 71.598-112.936 124.911-114.077 12.84-24.786 35.953-45.32 65.742-45.32 47.047 0 60.607 37.542 47.047 62.743l-22.907 41.897 1.952.83c27.53-30.49 53.93-53.305 84.952-53.305 20.955 0 35.542 12.237 35.542 33.29 0 42.208-54.34 72.594-141.141 75.083 21.982 32.357 64.715 62.639 97.895 62.639 1.265 0 2.434-.097 3.573-.192.525-.043 1.044-.086 1.563-.119-6.575-6.845-10.684-15.66-10.684-26.342 0-11.822 9.759-23.437 22.291-23.437 12.533 0 22.702 8.815 23.01 24.578.308 7.363-1.027 14-5.239 22.09 3.082 2.074 8.321 2.8 12.533 2.8 17.052 0 36.158-7.675 36.158-29.764 0-11.505-5.079-26.435-10.421-42.14-5.927-17.423-12.178-35.799-12.178-51.507ZM434.129 606.28c0 12.548 8.32 20.637 20.544 20.637v.104c30.612 0 63.38-45.942 87.417-96.759l9.04-21.881c-47.047 2.385-117.001 52.682-117.001 97.899Zm446.33-89.81c0-8.712-6.985-15.038-19.517-15.038-26.503 0-59.682 29.971-87.931 72.387 55.368-1.348 107.448-22.815 107.448-57.349Z"/>
</svg>
