<?xml version="1.0" encoding="utf-8"?>

<svg version="1.2" baseProfile="tiny-ps" id="Layer_1" xmlns="http://www.w3.org/2000/svg" xmlns:xlink="http://www.w3.org/1999/xlink"
	 viewBox="0 0 600 600" xml:space="preserve">
<title>Rolfs Flyg &amp; Buss</title>
	<path fill="#2B5E9C" d="M419.3,370l-23.6-54.1c56.1-7,81.1-59.3,81.1-124.6c0-54.6-36.6-62.5-82.9-62.5H176l-3.2,14
		c11.6,0,14.8,6.5,14.8,14c0,8.4-2.3,17.3-4.2,25.2l-55.6,243.6c-1.8,8.4-4.6,22.4-4.6,25.7c0,19.6,18.1,20.1,26.9,20.1h118.6
		l3.2-14c-11.6,0-14.8-6.5-14.8-14c0-8.4,2.3-17.3,4.2-25.2l17.1-77h0.9l37.1,108.7c7,20.1,18.5,21.5,36.1,21.5h58.9
		c23.6,0,29.2-7.9,33.8-28.5l12-52.8h-9.8C430,390.1,425.8,384.9,419.3,370z M341,216.5l-4.6,21c-3.2,15.4-7.4,21-23.2,21h-15.3
		l13-59.7h15.3c9.7,0,15.3,3.7,15.3,11.7C341.5,212.3,341.5,214.6,341,216.5z"/>
</svg>
