<?xml version="1.0" encoding="UTF-8"?>
<svg xmlns="http://www.w3.org/2000/svg" xmlns:serif="http://www.affinity.serif.com/"
baseProfile="tiny-ps" version="1.2" viewBox="0 0 80 80" xml:space="preserve" >
<title>Serif (Europe) Ltd</title>
  <!-- Generator: Adobe Illustrator 28.7.1, SVG Export Plug-In . SVG Version: 1.2.0 Build 142)  -->
  <g>
    <g id="Layer_1">
      <g>
        <polygon points="23.8 54.5 38.4 54.5 36.7 51.6 52.6 51.7 39 28.2 23.8 54.5" fill="#fff"/>
        <path d="M40,0C17.9,0,0,17.9,0,40s17.9,40,40,40,40-17.9,40-40S62.1,0,40,0ZM68,54.5l-4.7,8.1h-19.3s2,3.4,2,3.4h-.9l-2-3.4h-23.9s0,0,0,0l-1.2-2.2h-1.5l-4.4-7.6h0s5.6-9.7,5.6-9.7l5.2-3,8.6-14.9-1.7-3,4.1-7.2h8.8l.7,1.3h2.5l22.1,38.2h0Z" fill="#fff"/>
        <path d="M43.4,16.3l-.7-1.3h-8.8l-4.1,7.2,1.7,3-8.6,14.9-5.2,3-5.6,9.7h0s0,0,0,0l4.4,7.6h1.5l1.2,2.2h24s2,3.4,2,3.4h.9l-2-3.4h19.3s4.7-8.1,4.7-8.1h0s-22.1-38.2-22.1-38.2h-2.5ZM36.7,51.6l1.7,2.9h-14.6l15.2-26.3,13.6,23.4h-15.9Z"/>
      </g>
    </g>
  </g>
</svg>