<?xml version="1.0" encoding="UTF-8" standalone="yes"?>
<svg version="1.2" viewBox="0 0 1500 1500" xml:space="preserve" baseProfile="tiny-ps" xmlns="http://www.w3.org/2000/svg">
  <title>SWATI Cosmetics</title>
  <g id="Layer_1">
    <rect width="1500" height="1500"/>
  </g>
  <g id="Layer_2">
    <path class="st0" d="M1341.38,847.27c2.25-0.85,3.7-3.04,3.59-5.44c0.03-3.3-2.63-6.01-5.94-6.03c-0.27,0-0.54,0.01-0.81,0.05&#xD;&#xA;&#x9;&#x9;h-7.51v18.93h3.92v-6.85h2.94l3.48,6.85h4.24L1341.38,847.27z M1338.01,844.33h-3.37v-4.79h3.26c1.52,0,3.16,0.54,3.16,2.39&#xD;&#xA;&#x9;&#x9;S1339.43,844.33,1338.01,844.33z M1337.47,827.14c-10.21,0-18.5,8.28-18.5,18.5c0,10.22,8.28,18.5,18.5,18.5s18.5-8.28,18.5-18.5v0&#xD;&#xA;&#x9;&#x9;C1355.96,835.42,1347.68,827.14,1337.47,827.14z M1337.47,860.76c-8.35,0-15.12-6.77-15.12-15.12s6.77-15.12,15.12-15.12l0,0&#xD;&#xA;&#x9;&#x9;c8.35,0,15.12,6.77,15.12,15.12S1345.82,860.76,1337.47,860.76z M251.75,730.09l-30.9-5.66c-16.21-3.05-22.41-12.51-22.41-23.39&#xD;&#xA;&#x9;&#x9;c0-13.06,13.27-24.59,32.64-24.59c18.8-1.4,35.59,11.68,38.84,30.25l41.67-12.4c-4.35-27.96-29.81-58.53-81.16-58.53&#xD;&#xA;&#x9;&#x9;c-42.87,0-78.44,29.48-78.44,69.2c0,33.73,23.28,56.58,59.19,63.76l31.44,6.2c15.34,3.16,25.24,12.19,25.24,23.17&#xD;&#xA;&#x9;&#x9;c0,13.71-12.19,25.02-33.4,25.02c-23.33,1.86-44.13-14.62-47.65-37.75l-42.76,10.23c7.07,42,35.69,68.65,89,68.65&#xD;&#xA;&#x9;&#x9;s81.27-34.82,81.27-69.2C314.31,763.82,292.77,737.49,251.75,730.09z M983.32,683.63h58.86v177.45h45.59V683.63h59.08v-44.5H983.32&#xD;&#xA;&#x9;&#x9;V683.63z M1227.14,639.13h45.91v221.84h-45.91V639.13z M865.6,639.13h-55.27l-81.38,213.14l42.43,11.97l18.82-51.03h95.2&#xD;&#xA;&#x9;&#x9;l19.15,51.03l0,0l42.65-12.29L865.6,639.13z M805.22,770.89l32.64-87.04l32.64,87.04H805.22z M480.56,861.09h-49.4l-65.17-221.95&#xD;&#xA;&#x9;&#x9;h49.07l42.21,157.65l47.87-157.65h49.07l47.87,158.74l43.52-158.74h47.33l-65.28,221.95h-49.94l-48.2-161.02l0,0L480.56,861.09z" fill="#FFFFFF"/>
  </g>
</svg>