<?xml version="1.0" encoding="UTF-8" standalone="yes"?>
<svg version="1.2" width="401.000000pt" height="401.000000pt" viewBox="0 0 401.000000 401.000000" preserveAspectRatio="xMidYMid meet" baseProfile="tiny-ps" xmlns="http://www.w3.org/2000/svg">
  <title>bimi-svg-tiny-12-ps</title>
  <g transform="translate(0.000000,401.000000) scale(0.100000,-0.100000)" fill="#000000" stroke="none">
    <path d="M1545 2729 c-123 -16 -185 -92 -165 -201 6 -31 18 -51 44 -74 33 -29&#xA;59 -38 210 -79 103 -28 134 -88 77 -146 -26 -26 -36 -29 -94 -29 -77 0 -127&#xA;27 -142 78 -9 31 -10 32 -67 32 l-58 0 6 -27 c29 -119 125 -179 277 -172 137&#xA;7 217 77 217 189 0 96 -58 145 -217 184 -84 20 -113 32 -130 51 -29 33 -29 47&#xA;0 81 19 22 34 28 79 32 67 5 110 -14 130 -58 12 -28 17 -30 65 -30 60 0 62 4&#xA;34 66 -38 84 -134 121 -266 103z"/>
    <path d="M2831 2730 c-97 -21 -173 -91 -207 -192 -25 -76 -16 -207 19 -274 51&#xA;-99 144 -154 262 -154 121 0 211 54 262 158 25 50 28 68 28 152 0 78 -4 104&#xA;-24 147 -25 57 -93 127 -145 148 -43 18 -142 26 -195 15z m164 -109 c108 -63&#xA;125 -281 28 -373 -81 -77 -213 -58 -269 38 -32 55 -43 152 -24 219 33 120 162&#xA;176 265 116z"/>
    <path d="M280 2426 l0 -306 156 0 c85 0 175 5 200 11 148 38 178 243 44 299&#xA;l-31 13 29 18 c44 26 62 58 62 110 0 55 -29 103 -80 133 -31 18 -56 21 -207&#xA;25 l-173 3 0 -306z m329 190 c28 -26 29 -88 1 -116 -17 -17 -33 -20 -120 -20&#xA;l-100 0 0 81 0 81 99 -4 c80 -2 103 -7 120 -22z m14 -246 c31 -25 42 -65 26&#xA;-102 -18 -45 -55 -58 -164 -58 l-95 0 0 90 0 90 104 0 c88 0 107 -3 129 -20z"/>
    <path d="M850 2425 l0 -305 225 0 225 0 0 50 0 50 -170 0 -170 0 0 85 0 85&#xA;145 0 145 0 0 45 0 45 -145 0 -145 0 0 75 0 75 165 0 165 0 0 50 0 50 -220 0&#xA;-220 0 0 -305z"/>
    <path d="M1890 2680 l0 -50 95 0 95 0 0 -255 0 -255 55 0 55 0 0 255 0 255 96&#xA;0 95 0 -3 48 -3 47 -242 3 -243 2 0 -50z"/>
    <path d="M3290 2425 l0 -305 55 0 55 0 0 130 0 130 135 0 135 0 0 45 0 45&#xA;-135 0 -135 0 0 80 0 80 160 0 160 0 0 50 0 50 -215 0 -215 0 0 -305z"/>
    <path d="M3370 1891 c-91 -28 -130 -76 -130 -161 0 -98 47 -140 195 -175 103&#xA;-24 153 -49 161 -81 23 -89 -94 -144 -202 -95 -31 14 -45 28 -57 60 l-17 41&#xA;-56 0 -56 0 7 -32 c11 -49 31 -83 67 -113 43 -36 80 -51 148 -59 157 -19 280&#xA;61 280 182 0 101 -51 149 -201 186 -52 13 -109 31 -127 40 -64 33 -48 106 29&#xA;126 70 19 136 -5 164 -60 14 -27 20 -30 65 -30 56 0 60 7 36 63 -19 44 -63 83&#xA;-115 102 -45 16 -148 19 -191 6z"/>
    <path d="M280 1590 l0 -300 176 0 c196 0 221 6 273 66 64 72 44 192 -38 230&#xA;-22 11 -41 21 -41 24 0 3 14 11 30 18 59 27 80 125 40 190 -37 60 -81 72 -272&#xA;72 l-168 0 0 -300z m330 190 c28 -28 27 -90 -1 -116 -17 -15 -40 -20 -120 -22&#xA;l-99 -4 0 81 0 81 100 0 c87 0 103 -3 120 -20z m0 -235 c35 -18 55 -71 41&#xA;-108 -18 -47 -46 -57 -158 -57 l-103 0 0 90 0 90 95 0 c65 0 105 -5 125 -15z"/>
    <path d="M850 1590 l0 -300 55 0 55 0 0 121 0 121 95 -4 c86 -3 97 -5 120 -29&#xA;24 -23 36 -78 45 -206 0 -2 27 -3 59 -3 l59 0 -8 33 c-4 17 -11 61 -15 96 -8&#xA;76 -27 118 -60 133 -30 13 -32 24 -7 32 10 4 32 20 48 37 26 27 29 37 29 97 0&#xA;55 -4 73 -24 101 -43 60 -83 71 -278 71 l-173 0 0 -300z m323 199 c42 -19 60&#xA;-86 36 -131 -17 -32 -71 -48 -164 -48 l-85 0 0 95 0 95 95 0 c52 0 105 -5 118&#xA;-11z"/>
    <path d="M1609 1863 c-6 -16 -49 -134 -96 -263 -47 -129 -91 -252 -99 -273&#xA;l-13 -38 56 3 56 3 22 65 22 65 118 0 118 0 22 -65 22 -65 60 -3 61 -3 -94&#xA;258 c-52 142 -101 277 -110 301 l-16 42 -59 0 c-56 0 -60 -2 -70 -27z m107&#xA;-198 c20 -66 39 -128 41 -137 5 -16 -4 -18 -81 -18 -47 0 -86 1 -86 3 0 2 13&#xA;41 28 88 16 46 35 108 42 137 7 29 14 52 16 50 2 -2 20 -58 40 -123z"/>
    <path d="M2020 1590 l0 -300 56 0 57 0 -5 225 -5 225 47 -83 c26 -45 88 -145&#xA;137 -222 l89 -140 59 -3 60 -3 0 301 0 300 -53 0 -53 0 3 -225 c2 -124 2 -225&#xA;1 -225 0 0 -16 26 -33 58 -18 31 -80 132 -138 225 l-106 167 -58 0 -58 0 0&#xA;-300z"/>
    <path d="M2640 1591 l0 -301 149 0 c107 0 160 4 192 15 108 38 160 118 167&#xA;256 5 108 -13 178 -64 237 -65 77 -95 86 -281 90 l-163 4 0 -301z m319 182&#xA;c66 -49 95 -147 73 -251 -22 -105 -76 -142 -207 -142 l-75 0 0 211 0 212 91&#xA;-5 c69 -4 97 -10 118 -25z"/>
  </g>
</svg>