<?xml version="1.0" encoding="UTF-8" standalone="yes"?>
<svg version="1.2" viewBox="0 0 70.87 70.87" width="70.87px" height="70.87px" baseProfile="tiny-ps" xmlns="http://www.w3.org/2000/svg">
  <title>bimi-svg-tiny-12-ps</title>
  <desc>Logo for Östratrafiken</desc>
  <g>
    <g fill="none" fill-rule="evenodd">
      <path fill="#e10e1c" d="m60.93,9.94h-25.52c-8.58,0-16.57,4.32-21.29,11.48-.26.4-.51.8-.75,1.22-.07.12-.15.24-.22.37-.26.47-.51.94-.74,1.42l-.08.17c-.21.44-.4.89-.59,1.35l-.15.4c-.2.51-.38,1-.55,1.55v.12c-.15.49-.28,1-.4,1.5,0,.14-.07.27-.1.41-.12.55-.23,1.1-.31,1.66h0c-.08.55-.14,1.1-.19,1.66v.42c0,.58-.07,1.16-.07,1.74-.02,14.09,11.39,25.54,25.48,25.56,14.09.02,25.54-11.39,25.56-25.48,0-4.51-1.18-8.93-3.44-12.83h-16.01c7.04,3.4,9.99,11.87,6.59,18.91-3.4,7.04-11.87,9.99-18.91,6.59s-9.99-11.87-6.59-18.91c2.36-4.9,7.32-8,12.76-8h25.56c3.13,0,5.67-2.54,5.67-5.67s-2.54-5.67-5.67-5.67l-.04.04Z"/>
      <path fill="#e10e1c" d="m9.9,21.28h2.63c3.3-5.32,8.35-9.33,14.28-11.34H9.9c-3.13,0-5.67,2.54-5.67,5.67s2.54,5.67,5.67,5.67Z"/>
    </g>
  </g>
</svg>