<svg viewBox="0 0 1230 1230" xmlns="http://www.w3.org/2000/svg" baseProfile="tiny-ps" version="1.2">
  <title>Padlet Logo</title>
  <path d="m0 0h1230v1230h-1230z" fill="#1b1b1b"/>
  <path d="m1150.04 602.48-61.54-112.49c-.05-.09-.09-.19-.14-.28-.23-.51-.51-1.02-.79-1.53-.69-1.25-1.48-2.45-2.36-3.61-1.67-2.31-3.71-4.4-5.93-6.16-1.11-.88-2.27-1.67-3.48-2.36-1.85-1.11-3.75-1.99-5.75-2.69-.51-.19-.97-.33-1.44-.46-2.96-.88-6.02-1.34-9.17-1.34h-111.25c-4.36 0-8.71.93-12.7 2.64l-136.74 58.98-127.75-296.82c-9.45-21.99-32.2-36.99-56.53-37.36h-.97c-24.33.37-47.03 15.37-56.53 37.31l-128.03 297.47-223.3-123.09c-7.46-4.12-15.8-6.3-24.14-6.3-17.65 0-34.15 9.58-43.14 25.04-8.94 15.42-8.94 33.89 0 49.49.05.14.14.28.23.37l11.04 18.68 283.07 493.98c.29.52.58 1.04.89 1.55l.2.35c13.61 22.65 38.24 37.14 66 37.14 5.74 0 11.49-.65 17.1-1.9l97.12-22.08 97.07 22.08c5.61 1.25 11.4 1.9 17.15 1.9 30.16 0 56.63-17.11 69.25-43.22l78.76-137.44 140.62-220.41c.69.37 1.39.74 2.09 1.06l71.78 34.12c6.21 2.96 12.79 4.44 19.56 4.44 15.89 0 30.81-8.52 39.02-22.31 8.2-13.84 8.48-30.55.74-44.76zm-512.21-359.69c1.53 1.85 2.78 3.94 3.75 6.2-1.25-2.17-2.5-4.26-3.75-6.2z"/>
  <path d="m1121.91 617.84c6.19 11.32-5.75 23.93-17.41 18.39l-71.79-34.11 26.76-98.52 62.44 114.25z" fill="#ced0d4"/>
  <path d="m641.6 248.99 199.11 462.58-210.83 30.14-15.87-510.71c11.15.17 22.9 7.09 27.6 17.99z" fill="#ffd54f"/>
  <path d="m840.71 711.57-68.59 252.4c-5.51 24.24-29.66 39.43-53.92 33.91l-104.19-23.66 16.02-200.5z" fill="#ff833e"/>
  <path d="m614 231-16.02 510.71-210.68-30.14 199.11-462.58c4.7-10.9 16.45-17.83 27.6-17.99z" fill="#53e047"/>
  <path d="m597.98 773.72 16.02 200.5-104.19 23.66c-24.26 5.51-48.41-9.67-53.93-33.91l-68.59-252.4 210.68 62.15z" fill="#9466e8"/>
  <path d="m870.14 698.92c2.86 6.64 3.38 14.05 1.48 21.03l-36.96 136.02 224.82-352.37h-111.28l-136.74 59 58.68 136.33z" fill="#ff4081"/>
  <path d="m356.38 719.95c-1.89-6.98-1.37-14.39 1.49-21.03l58.37-135.6-226.08-124.63c-15.72-8.67-32.91 8.78-23.99 24.35l228.93 399.38-38.71-142.47z" fill="#3992de"/>
</svg>
