<?xml version="1.0" encoding="UTF-8" standalone="yes"?><svg xmlns="http://www.w3.org/2000/svg" baseProfile="tiny-ps" version="1.2" viewBox="0 0 502 502"><title>Adorama</title><!-- Generator: Adobe Illustrator 29.1.0, SVG Export Plug-In . SVG Version: 2.1.0 Build 142)  --><path d="M251,1C112.9,1,1,112.9,1,251s111.9,250,250,250,250-111.9,250-250S389.1,1,251,1ZM61.8,345c-6.4,0-11.5-5.1-11.5-11.5s5.1-11.5,11.5-11.5,11.5,5.1,11.5,11.5-5.1,11.5-11.5,11.5ZM439.2,123.6c6.4,0,11.5,5.1,11.5,11.5s-2.4,8.1-6,10.1c3.5,2,6,5.7,6,10.1s-2.2,7.8-5.6,9.9c1.6,1,3,2.3,4,4,2-3.4,5.7-5.6,9.9-5.6,6.4,0,11.5,5.1,11.5,11.5s-2,7.4-4.9,9.4c1.3.9,2.4,2.1,3.2,3.5,2-3.3,5.7-5.5,9.8-5.5,6.4,0,11.5,5.1,11.5,11.5s-5.1,11.5-11.5,11.5-7.8-2.2-9.8-5.5c-1.1,1.7-2.5,3.2-4.3,4.1,3.6,1.9,6,5.7,6,10.1,0,6.4-5.1,11.5-11.5,11.5s-11.5-5.1-11.5-11.5,2.4-8.2,6-10.1c-3.6-1.9-6-5.7-6-10.1s2-7.4,4.9-9.4c-1.3-.9-2.4-2.1-3.3-3.5-2,3.4-5.7,5.6-9.9,5.6-6.4,0-11.5-5.1-11.5-11.5s2.2-7.8,5.6-9.9c-2.2-1.3-3.8-3.3-4.8-5.6-1.7,4.3-5.8,7.3-10.7,7.3s-11.5-5.1-11.5-11.5,5.1-11.5,11.5-11.5,9,3,10.7,7.3c1-2.5,2.8-4.6,5.1-5.8-3.5-2-6-5.7-6-10.1,0-6.4,5.1-11.5,11.5-11.5ZM429.3,293.2c0,6.4-5.1,11.5-11.5,11.5s-11.5-5.1-11.5-11.5,2.2-7.7,5.4-9.7c-3.2-2-5.4-5.6-5.4-9.7,0-6.4,5.1-11.5,11.5-11.5s11.5,5.1,11.5,11.5-2.2,7.7-5.4,9.7c3.2,2,5.4,5.6,5.4,9.7ZM379,381.1c6.4,0,11.5,5.1,11.5,11.5s-5.1,11.5-11.5,11.5-11.5-5.1-11.5-11.5,5.1-11.5,11.5-11.5ZM359.4,384.9c-6.4,0-11.5-5.1-11.5-11.5s5.1-11.5,11.5-11.5,11.5,5.1,11.5,11.5-5.1,11.5-11.5,11.5ZM367.5,155.2c0-6.4,5.1-11.5,11.5-11.5s11.5,5.1,11.5,11.5-2.2,7.8-5.6,9.9c3.4,2,5.6,5.7,5.6,9.9,0,6.4-5.1,11.5-11.5,11.5s-11.5-5.1-11.5-11.5,2.2-7.8,5.6-9.9c-3.4-2-5.6-5.7-5.6-9.9ZM406.3,193.8c0-6.4,5.1-11.5,11.5-11.5s11.5,5.1,11.5,11.5-2.4,8.2-6,10.1c3.6,1.9,6,5.7,6,10.1,0,6.4-5.1,11.5-11.5,11.5s-7.5-2-9.6-5.2c-2.1,3.1-5.6,5.2-9.6,5.2-6.4,0-11.5-5.1-11.5-11.5s5.1-11.5,11.5-11.5,7.5,2,9.6,5.2c1-1.6,2.4-2.9,4.1-3.8-3.6-1.9-6-5.7-6-10.1ZM387.2,254.2c0-6.4,5.1-11.5,11.5-11.5s11.5,5.1,11.5,11.5-5.1,11.5-11.5,11.5-11.5-5.1-11.5-11.5ZM410.2,313.8c0,6.4-5.1,11.5-11.5,11.5s-11.5-5.1-11.5-11.5,5.1-11.5,11.5-11.5,11.5,5.1,11.5,11.5ZM387.2,353.2c0-6.4,5.1-11.5,11.5-11.5s11.5,5.1,11.5,11.5-5.1,11.5-11.5,11.5-11.5-5.1-11.5-11.5ZM406.3,333.5c0-6.4,5.1-11.5,11.5-11.5s11.5,5.1,11.5,11.5-5.1,11.5-11.5,11.5-11.5-5.1-11.5-11.5ZM427.7,254.2c0-4.4,2.5-8.3,6.2-10.2-3.7-1.9-6.2-5.8-6.2-10.2,0-6.4,5.1-11.5,11.5-11.5s11.5,5.1,11.5,11.5-2.5,8.3-6.2,10.2c1.6.8,2.9,2,4,3.4,2.1-2.8,5.5-4.7,9.3-4.7s8.2,2.4,10.1,6c1.9-3.6,5.7-6,10.1-6,6.4,0,11.5,5.1,11.5,11.5s-5.1,11.5-11.5,11.5-8.2-2.4-10.1-6c-1.9,3.6-5.7,6-10.1,6s-7.2-1.9-9.3-4.7c-2.1,2.8-5.5,4.7-9.3,4.7-6.4,0-11.5-5.1-11.5-11.5ZM398.7,103.3c4.4,0,8.3,2.5,10.2,6.2,1-2,2.6-3.6,4.5-4.7-3.5-2-5.8-5.7-5.8-10,0-6.4,5.1-11.5,11.5-11.5s11.5,5.1,11.5,11.5-2.3,8-5.8,10c3.5,2,5.8,5.7,5.8,10,0,6.4-5.1,11.5-11.5,11.5s-8.3-2.5-10.2-6.2c-1.1,2.1-2.8,3.8-4.8,4.9,3.6,1.9,6.1,5.8,6.1,10.2,0,6.4-5.1,11.5-11.5,11.5s-11.5-5.1-11.5-11.5,2.5-8.2,6.1-10.2c-3.6-1.9-6.1-5.8-6.1-10.2,0-6.4,5.1-11.5,11.5-11.5ZM359.4,44.3c4.1,0,7.7,2.2,9.8,5.5,2-3.3,5.6-5.5,9.8-5.5,6.4,0,11.5,5.1,11.5,11.5s-1.9,7.2-4.7,9.3c2.8,2.1,4.7,5.5,4.7,9.3s-2.6,8.3-6.3,10.2c3.7,1.9,6.3,5.8,6.3,10.2,0,6.4-5.1,11.5-11.5,11.5s-7.7-2.2-9.8-5.5c-.9,1.5-2.2,2.8-3.7,3.7,3.3,2,5.5,5.6,5.5,9.8s-2.7,8.5-6.6,10.4c3.9,1.9,6.6,5.8,6.6,10.4s-5.1,11.5-11.5,11.5-11.5-5.1-11.5-11.5,2.7-8.5,6.6-10.4c-2.4-1.1-4.3-3.1-5.4-5.5-1.8,3.9-5.8,6.6-10.4,6.6s-11.5-5.1-11.5-11.5,5.1-11.5,11.5-11.5,8.6,2.7,10.4,6.6c1-2,2.5-3.7,4.4-4.9-3.3-2-5.5-5.6-5.5-9.8,0-6.4,5.1-11.5,11.5-11.5s7.7,2.2,9.8,5.5c1.1-1.8,2.7-3.2,4.6-4.2-3.7-1.9-6.3-5.8-6.3-10.2s1.9-7.2,4.7-9.3c-1.2-.9-2.2-2-3-3.2-2,3.3-5.6,5.5-9.8,5.5-6.4,0-11.5-5.1-11.5-11.5s5.1-11.5,11.5-11.5ZM247.5,35.4c0-6.4,5.1-11.5,11.5-11.5s8.3,2.5,10.2,6.2c1.9-3.7,5.8-6.2,10.2-6.2,6.4,0,11.5,5.1,11.5,11.5s-5.1,11.5-11.5,11.5-8.3-2.5-10.2-6.2c-1.1,2.1-2.8,3.8-4.9,4.9,3.7,1.9,6.2,5.8,6.2,10.2,0,6.4-5.1,11.5-11.5,11.5s-11.5-5.1-11.5-11.5,2.5-8.3,6.2-10.2c-3.7-1.9-6.2-5.8-6.2-10.2ZM259,83.3c4.4,0,8.3,2.5,10.2,6.2,1.1-2.1,2.9-3.9,5-4.9-3.7-1.9-6.3-5.8-6.3-10.2,0-6.4,5.1-11.5,11.5-11.5s11.5,5.1,11.5,11.5-2.6,8.3-6.3,10.2c1.7.9,3.2,2.2,4.3,3.7,2.1-3,5.5-5,9.5-5s8.8,2.8,10.5,6.9c1.1-2.4,3-4.4,5.3-5.6-3.7-1.9-6.3-5.8-6.3-10.2s1.9-7.2,4.7-9.3c-1.6-1.2-2.9-2.8-3.7-4.7-1.8,4.1-5.8,6.9-10.5,6.9s-11.5-5.1-11.5-11.5,5.1-11.5,11.5-11.5,8.8,2.8,10.5,6.9c1.1-2.6,3.2-4.7,5.9-5.9-4-1.8-6.8-5.8-6.8-10.5s5.1-11.5,11.5-11.5,11.5,5.1,11.5,11.5-2.8,8.7-6.8,10.5c4,1.8,6.8,5.8,6.8,10.5s-1.9,7.2-4.7,9.3c1.3.9,2.3,2.1,3.1,3.5,2-3.4,5.7-5.7,9.9-5.7,6.4,0,11.5,5.1,11.5,11.5s-5.1,11.5-11.5,11.5-8-2.3-9.9-5.7c-1.1,1.9-2.8,3.5-4.7,4.5,3.7,1.9,6.3,5.8,6.3,10.2,0,6.4-5.1,11.5-11.5,11.5s-8.8-2.8-10.5-6.9c-1.8,4.1-5.8,6.9-10.5,6.9s-7.4-2-9.5-5c-2.1,3-5.5,5-9.5,5s-8.3-2.5-10.2-6.2c-1.9,3.7-5.8,6.2-10.2,6.2-6.4,0-11.5-5.1-11.5-11.5s5.1-11.5,11.5-11.5ZM220.3,23.9c6.4,0,11.5,5.1,11.5,11.5s-5.1,11.5-11.5,11.5-11.5-5.1-11.5-11.5,5.1-11.5,11.5-11.5ZM220.3,83.3c6.4,0,11.5,5.1,11.5,11.5s-5.1,11.5-11.5,11.5-11.5-5.1-11.5-11.5,5.1-11.5,11.5-11.5ZM120.3,423.1c-6.4,0-11.5-5.1-11.5-11.5s5.1-11.5,11.5-11.5,11.5,5.1,11.5,11.5-5.1,11.5-11.5,11.5ZM120.3,364.7c-6.4,0-11.5-5.1-11.5-11.5s5.1-11.5,11.5-11.5,11.5,5.1,11.5,11.5-5.1,11.5-11.5,11.5ZM161.4,464.2c-6.4,0-11.5-5.1-11.5-11.5s5.1-11.5,11.5-11.5,11.5,5.1,11.5,11.5-5.1,11.5-11.5,11.5ZM149.9,392.6c0-6.4,5.1-11.5,11.5-11.5s11.5,5.1,11.5,11.5-5.1,11.5-11.5,11.5-11.5-5.1-11.5-11.5ZM180.6,423.1c-6.4,0-11.5-5.1-11.5-11.5s5.1-11.5,11.5-11.5,11.5,5.1,11.5,11.5-5.1,11.5-11.5,11.5ZM220.3,483c-6.4,0-11.5-5.1-11.5-11.5s5.1-11.5,11.5-11.5,11.5,5.1,11.5,11.5-5.1,11.5-11.5,11.5ZM208.8,432.1c0-6.4,5.1-11.5,11.5-11.5s11.5,5.1,11.5,11.5-5.1,11.5-11.5,11.5-11.5-5.1-11.5-11.5ZM238.3,464.2c-6.4,0-11.5-5.1-11.5-11.5s5.1-11.5,11.5-11.5,11.5,5.1,11.5,11.5-5.1,11.5-11.5,11.5ZM259,423.1c-6.4,0-11.5-5.1-11.5-11.5s5.1-11.5,11.5-11.5,11.5,5.1,11.5,11.5-5.1,11.5-11.5,11.5ZM267.9,452.7c0-6.4,5.1-11.5,11.5-11.5s11.5,5.1,11.5,11.5-5.1,11.5-11.5,11.5-11.5-5.1-11.5-11.5ZM298.3,483c-6.4,0-11.5-5.1-11.5-11.5s5.1-11.5,11.5-11.5,11.5,5.1,11.5,11.5-5.1,11.5-11.5,11.5ZM330.9,452.7c0,6.4-5.1,11.5-11.5,11.5s-11.5-5.1-11.5-11.5,2.7-8.5,6.5-10.3c-3.8-1.9-6.5-5.8-6.5-10.3s5.1-11.5,11.5-11.5,11.5,5.1,11.5,11.5-2.7,8.5-6.5,10.3c3.8,1.9,6.5,5.8,6.5,10.3ZM319.4,404.1c-6.4,0-11.5-5.1-11.5-11.5s5.1-11.5,11.5-11.5,11.5,5.1,11.5,11.5-5.1,11.5-11.5,11.5ZM251,380.6c-71.6,0-129.6-58-129.6-129.6s58-129.6,129.6-129.6,129.6,58,129.6,129.6-58,129.6-129.6,129.6ZM347.9,411.6c0-6.4,5.1-11.5,11.5-11.5s11.5,5.1,11.5,11.5-5.1,11.5-11.5,11.5-11.5-5.1-11.5-11.5ZM398.7,443.6c-4.2,0-7.8-2.2-9.8-5.6-2,3.3-5.7,5.6-9.8,5.6-6.4,0-11.5-5.1-11.5-11.5s5.1-11.5,11.5-11.5,7.8,2.2,9.8,5.6c2-3.3,5.7-5.6,9.8-5.6,6.4,0,11.5,5.1,11.5,11.5s-5.1,11.5-11.5,11.5ZM438.8,404.1c-4.7,0-8.7-2.8-10.5-6.8-1.8,4-5.8,6.8-10.5,6.8s-11.5-5.1-11.5-11.5,5.1-11.5,11.5-11.5,8.7,2.8,10.5,6.8c1.8-4,5.8-6.8,10.5-6.8s11.5,5.1,11.5,11.5-5.1,11.5-11.5,11.5ZM438.8,364.7c-6.4,0-11.5-5.1-11.5-11.5s5.1-11.5,11.5-11.5,11.5,5.1,11.5,11.5-5.1,11.5-11.5,11.5ZM438.8,325.3c-6.4,0-11.5-5.1-11.5-11.5s5.1-11.5,11.5-11.5,11.5,5.1,11.5,11.5-5.1,11.5-11.5,11.5ZM478.9,325.3c-6.4,0-11.5-5.1-11.5-11.5s2.6-8.4,6.4-10.3c-2.4-1.2-4.4-3.3-5.5-5.8-1.8,4.1-5.8,7-10.6,7s-11.5-5.1-11.5-11.5,5.1-11.5,11.5-11.5,8.8,2.9,10.6,7c1.8-4.1,5.8-7,10.6-7s11.5,5.1,11.5,11.5-2.6,8.4-6.4,10.3c3.8,1.9,6.4,5.8,6.4,10.3s-5.1,11.5-11.5,11.5Z" fill="#004387"></path></svg>