<?xml version="1.0" encoding="UTF-8"?><svg xmlns="http://www.w3.org/2000/svg" width="1024" height="1024" viewBox="0 0 1024 1024" fill="none" version="1.2" baseProfile="tiny-ps"><title>Xeal</title><rect width="1024" height="1024" fill="white"></rect><rect width="1024" height="1024" fill="url(#paint0_linear_15837_10416)"></rect><path d="M518.446 175.058C513.689 169.202 504.673 169.202 499.915 175.058L249.413 483.368C235.433 500.576 235.441 525.083 249.432 542.281L498.924 848.949C503.671 854.781 512.651 854.798 517.418 848.978L768.769 542.344C782.866 525.146 782.919 500.554 768.897 483.297L518.446 175.058ZM604.221 542.345C619.196 524.906 619.302 499.339 604.471 481.78L545.203 411.609C542.761 408.718 542.745 404.519 545.163 401.611L587.702 350.441C590.892 346.603 596.842 346.632 599.993 350.5L725.807 504.923C729.323 509.239 729.312 515.398 725.78 519.702L599.65 673.408C596.502 677.244 590.593 677.277 587.401 673.477L544.294 622.142C541.836 619.215 541.86 614.965 544.35 612.065L604.221 542.345ZM515.654 572.887C512.451 576.619 506.61 576.565 503.477 572.775L457.428 517.06C455.039 514.169 455.044 510.012 457.441 507.127L504.177 450.878C507.331 447.082 513.198 447.06 516.382 450.83L563.699 506.869C566.17 509.794 566.153 514.054 563.658 516.96L515.654 572.887ZM559.447 300.132C561.807 303.015 561.799 307.14 559.428 310.014L516.081 362.561C512.934 366.376 507.051 366.41 503.859 362.631L459.42 310.007C457.001 307.142 456.961 302.987 459.325 300.078L503.026 246.291C506.191 242.396 512.184 242.385 515.362 246.269L559.447 300.132ZM418.81 349.896C421.947 346.046 427.861 345.996 431.065 349.791L475.025 401.879C477.464 404.77 477.481 408.965 475.064 411.873L416.591 482.255C402.215 499.559 402.178 524.489 416.504 541.835L474.026 611.48C476.444 614.407 476.404 618.624 473.93 621.506L429.304 673.502C426.082 677.256 420.197 677.176 417.081 673.334L290.471 517.236C288.144 514.367 288.148 510.283 290.482 507.419L418.81 349.896ZM457.538 723.082C455.158 720.154 455.214 715.968 457.673 713.104L502.678 660.668C505.865 656.956 511.668 656.986 514.815 660.732L558.705 712.977C561.104 715.834 561.147 719.963 558.807 722.867L514.479 777.881C511.315 781.808 505.287 781.82 502.106 777.909L457.538 723.082Z" fill="white"></path><defs><linearGradient id="paint0_linear_15837_10416" x1="0" y1="0" x2="1024" y2="1024" gradientUnits="userSpaceOnUse"><stop stop-color="#3D58FE"></stop><stop offset="1" stop-color="#8A55FC"></stop></linearGradient></defs></svg>