<svg xmlns="http://www.w3.org/2000/svg" xmlns:xlink="http://www.w3.org/1999/xlink" version="1.2" viewBox="0 0 64 64" baseProfile="tiny-ps">
  <title>asa bimi</title>
  <g>
    <path d="M13.9,17.2c-3.1,3.5-5.1,7.9-5.7,12.7l20.7-7.4L13.9,17.2z" fill="#B6B8DD"/>
    <path d="M8,32.2c0,0.3,0,0.5,0,0.8c0,9.1,5.1,17.1,12.6,21.1l5-28.2L8,32.2z" fill="#8A84D6"/>
    <path d="M55.8,29.9c-0.6-4.8-2.7-9.2-5.7-12.7l-14.9,5.3L55.8,29.9z" fill="#B6B8DD"/>
    <path d="M48.4,15.5C44.2,11.5,38.4,9,32,9s-12.2,2.5-16.4,6.5L32,21.4L48.4,15.5z" fill="#8A84D6"/>
    <path d="M43.4,54.1c7.5-4,12.6-12,12.6-21.1c0-0.3,0-0.5,0-0.8l-17.6-6.3L43.4,54.1z" fill="#8A84D6"/>
    <path d="M32,23.7l-4.1,1.5l-5.3,30c2.9,1.2,6,1.9,9.4,1.9s6.5-0.7,9.4-1.9l-5.3-30L32,23.7z" fill="#1226AA"/>
  </g>
</svg>