<?xml version="1.0" encoding="utf-8"?>
<!-- Generator: Adobe Illustrator 27.6.1, SVG Export Plug-In . SVG Version: 6.00 Build 0)  -->
<svg version="1.2" baseProfile="tiny-ps" id="Logomark" xmlns="http://www.w3.org/2000/svg" xmlns:xlink="http://www.w3.org/1999/xlink"
	 viewBox="0 0 100 100" xml:space="preserve">
	 <title>Tyrolit</title>
<g>
	<rect y="0" width="100" height="100"/>
	<path fill="#008ACF" d="M27.8,56.2c-1.85-0.4-3.56-0.83-5.32-1.32l0.08-5.73l-3.18-12.43c1.52-0.48,2.96-0.86,4.55-1.27l1.19,4.09
		l1.76-4.81c1.58-0.35,3.44-0.69,5.07-0.97L27.8,48.5V56.2L27.8,56.2z"/>
	<path fill="#008ACF" d="M70.86,50.52v5.66c-2.63,0.57-5.55,1.04-8.33,1.4l0-24.38c1.75,0.23,3.65,0.5,5.33,0.81v17.11
		C67.87,51.13,69.13,50.93,70.86,50.52L70.86,50.52z"/>
	<path fill="#008ACF" d="M72.15,34.79c1.74,0.39,3.74,0.83,5.4,1.3v18.63c-1.66,0.47-3.65,0.91-5.4,1.3L72.15,34.79L72.15,34.79z"/>
	<path fill="#008ACF" d="M19.4,42.39c-0.75,0.24-1.41,0.42-2.15,0.69v11.84c9.52,3.24,20.54,5.06,32.41,5.06
		c11.71,0,22.69-1.81,32.12-4.98V42.59l-2.96-0.94v-5.32c4.09,1.21,7.9,2.69,11.41,4.36l0,5.28l-3.16-1.44v14.04
		c-10.49,4.35-23.5,6.93-37.42,6.93c-14.13,0-27.18-2.64-37.76-7.1v-13.1c-0.95,0.4-1.9,0.79-2.81,1.22v-5.9
		c2.78-1.31,5.75-2.5,8.94-3.53L19.4,42.39L19.4,42.39z"/>
	<path fill-rule="evenodd" fill="#008ACF" d="M38.42,38.4v3.97h0.95c0.93,0,1.2-0.73,1.2-1.27l-0.01-1.97
		c0-0.95-1.15-0.87-1.15-0.87L38.42,38.4L38.42,38.4z M38.42,57.82c-1.76-0.2-3.61-0.46-5.32-0.74l0.01-23.42
		c2.13-0.35,4.31-0.63,6.52-0.85c4.9-0.41,6.11,2.96,6.23,3.75v7.06c-0.21,1.16-1.5,1.66-1.5,1.66s1.5,0.63,1.5,2.16l0,10.99
		c-1.84-0.08-3.51-0.2-5.3-0.36v-8.79c0-1.13-0.62-1.46-1.25-1.46h-0.88L38.42,57.82L38.42,57.82z"/>
	<path fill-rule="evenodd" fill="#008ACF" d="M61.1,52.93c-0.01,3.8-3.09,5.74-6.9,5.74c-3.81,0-6.9-1.94-6.9-5.75V39.06
		c0-3.81,3.09-6.89,6.9-6.89c3.81,0,6.89,3.09,6.9,6.89V52.93L61.1,52.93z M52.97,38.78c0.01-0.67,0.55-1.21,1.23-1.21
		c0.67,0,1.22,0.54,1.23,1.21v13.07c-0.01,0.67-0.56,0.97-1.23,0.97c-0.67,0-1.21-0.31-1.23-0.97V38.78L52.97,38.78z"/>
</g>
</svg>
