<?xml version="1.0" encoding="UTF-8" standalone="yes"?>
<svg version="1.2" width="1000" height="1000" viewBox="0 0 1000 1000" xml:space="preserve" baseProfile="tiny-ps" xmlns="http://www.w3.org/2000/svg">
  <title>Aly Pte. Ltd.</title>
  <rect x="0" y="0" width="100%" height="100%" fill="#0084fd"/>
  <g transform="matrix(1.0379 0 0 1.0025 500.0036 499.9987)" id="dee101155">
    <g vector-effect="non-scaling-stroke">
      <g transform="matrix(0.9852 0 0 0.9852 3.9477 0.003)" id="dee_c_e">
        <rect x="-468.5" y="-202.5" rx="0" ry="0" width="937" height="405" stroke="none" stroke-width="0" stroke-dasharray="none" stroke-linecap="butt" stroke-dashoffset="0" stroke-linejoin="miter" stroke-miterlimit="4" fill="rgb(0,132,253)" fill-rule="nonzero"/>
      </g>
      <g transform="matrix(0.9852 0 0 0.9852 59.3942 13.0618)">
        <path transform=" translate(-521.7812, -212.7554)" d="M 930.499 154.1 C 930.257 151.693 929.541 149.357 928.391 147.229 C 927.24 145.1 925.68 143.221 923.799 141.7 C 918.899 137.5 913.099 135.3 906.999 134 C 903.099 133.1 899.199 132.8 895.399 132.2 C 894.899 136.9 894.499 141.2 894.099 145.5 H 893.599 C 881.499 138.7 868.599 134.8 854.599 134.7 C 851.467 134.589 848.353 135.205 845.499 136.5 C 839.299 139.5 834.799 144.3 830.699 149.7 C 822.999 159.7 817.499 170.9 812.499 182.3 C 808.499 191.5 805.399 201 800.199 209.6 C 790.899 224.9 782.199 240.6 771.699 255.1 C 768.884 258.878 765.845 262.484 762.599 265.9 C 762.135 266.382 761.557 266.74 760.918 266.941 C 760.28 267.142 759.601 267.179 758.944 267.05 C 758.287 266.921 757.674 266.629 757.159 266.2 C 756.644 265.772 756.246 265.222 755.999 264.6 C 755.311 263.168 755.001 261.585 755.099 260 C 755.439 255.634 756.04 251.293 756.899 247 C 759.199 237 761.799 227.2 764.199 217.2 C 766.599 207.2 768.999 197.3 771.199 187.3 C 772.399 181.7 772.999 176 773.699 170.3 C 774.399 164.6 774.799 161.4 773.999 156.9 C 772.599 148.5 768.199 142.2 760.599 138.3 C 757.599 136.781 754.344 135.832 750.999 135.5 C 748.073 135.115 745.105 135.183 742.199 135.7 C 736.299 137.1 731.499 140.4 727.199 144.3 C 720.958 150.098 715.42 156.609 710.699 163.7 C 701.999 176.3 694.799 189.8 688.199 203.6 L 687.499 205 C 688.599 199.1 689.999 193.3 691.399 187.6 C 693.799 177.8 695.699 167.9 695.499 157.8 C 695.395 154.396 694.468 151.068 692.799 148.1 C 689.399 142.3 684.299 138.8 677.999 136.8 C 673.169 135.329 668.147 134.587 663.099 134.6 C 660.599 134.6 658.099 135 655.699 135.2 C 655.599 135.7 655.499 135.8 655.499 135.9 C 656.049 141.025 655.948 146.2 655.199 151.3 C 653.999 158.5 653.099 165.8 651.499 172.9 C 649.299 183.4 646.599 193.8 643.999 204.2 C 643.199 207.5 642.599 211 641.099 213.9 C 638.099 220 634.699 225.9 631.199 231.7 C 624.299 243.1 616.699 254.2 607.399 263.8 C 605.278 266.006 602.932 267.983 600.399 269.7 C 597.199 271.7 593.699 270.3 593.199 266.6 C 592.78 263.2 592.915 259.756 593.599 256.4 C 595.199 248.3 597.099 240.3 599.199 232.3 C 604.199 213.5 609.499 194.7 614.499 175.9 C 616.099 169.7 617.199 163.4 615.999 156.9 C 615.246 152.509 613.27 148.419 610.299 145.1 C 606.088 140.386 600.42 137.218 594.199 136.1 C 589.999 135.2 585.799 134.8 581.499 134.3 C 578.899 134.1 576.299 134.2 573.899 134.2 C 573.399 139.8 572.999 145.2 572.299 150.5 C 571.599 155.8 570.799 162.7 569.499 168.8 C 567.299 179 564.899 189.1 562.499 199.2 C 560.099 209.3 558.399 216.3 553.999 224.3 C 546.199 238.3 538.899 252.5 528.399 264.9 C 525.899 267.9 523.099 270.6 519.399 272.1 C 517.399 272.9 515.399 272.8 513.999 271 C 512.431 269.181 511.056 267.204 509.899 265.1 C 502.899 252.1 497.999 238.1 492.899 224.3 C 492.599 223.4 492.899 223.3 493.599 223 C 497.299 221.4 500.999 220.1 504.499 218.2 C 513.342 213.434 521.321 207.214 528.099 199.8 C 533.808 193.711 538.622 186.843 542.399 179.4 C 546.399 171.1 548.999 162.3 547.099 152.9 C 546.199 148.1 544.299 143.8 540.399 140.9 C 533.999 136 526.499 135.2 518.799 136.3 C 511.099 137.4 505.999 140.2 500.399 143.8 C 487.199 152.4 476.599 163.7 466.599 175.7 L 462.099 181.2 C 462.032 181.007 461.998 180.804 461.999 180.6 C 466.099 165.3 470.399 150.2 474.399 135 C 480.599 111.8 487.499 88.7997 492.299 65.1997 C 493.399 59.9997 493.899 54.7997 492.599 49.4997 C 489.999 38.5997 482.799 32.3997 472.399 29.0997 C 467.699 27.5997 462.799 27.1997 457.899 26.6997 C 455.599 26.4997 453.199 26.6997 450.699 26.6997 C 450.799 27.3997 450.799 27.7997 450.899 28.3997 C 450.999 28.9997 451.599 32.6997 451.599 34.8997 C 451.499 39.8997 451.399 44.8997 450.999 49.8997 C 450.599 54.8997 449.699 62.5997 448.499 68.8997 C 446.499 79.7997 444.299 90.5997 441.899 101.4 C 438.099 117.8 434.099 134.3 429.899 150.7 C 425.299 169.3 420.499 187.8 415.899 206.4 C 415.034 210.627 413.334 214.639 410.899 218.2 C 409.599 220 408.499 222 407.299 223.8 C 397.899 238.3 388.599 252.8 377.599 266 C 375.051 268.98 372.24 271.725 369.199 274.2 C 368.724 274.552 368.177 274.795 367.597 274.911 C 367.016 275.027 366.418 275.012 365.844 274.869 C 365.27 274.725 364.735 274.456 364.278 274.081 C 363.82 273.706 363.452 273.234 363.199 272.7 C 362.472 270.995 362.131 269.151 362.199 267.3 C 362.381 263.689 362.917 260.106 363.799 256.6 C 366.699 245.2 369.699 233.8 372.899 222.4 C 376.899 207.9 381.199 193.5 385.199 178.9 C 386.999 172.1 388.599 165.1 387.499 157.9 C 386.849 152.736 384.532 147.926 380.899 144.2 C 376.399 139.6 370.599 137.1 364.399 136 C 360.201 135.215 355.96 134.68 351.699 134.4 C 349.599 134.2 347.399 134.4 345.299 134.4 C 345.264 134.837 345.197 135.272 345.099 135.7 C 344.599 141.1 344.299 146.6 343.499 151.9 C 342.499 159.3 341.199 166.6 339.999 173.9 C 339.834 175.713 339.325 177.478 338.499 179.1 C 321.599 204 304.799 228.9 285.599 252.1 L 281.299 257.1 C 281.199 256.8 281.199 256.8 281.199 256.7 C 281.199 256.6 281.499 255.9 281.599 255.4 C 291.199 230.9 298.199 205.6 301.199 179.3 C 301.848 173.054 301.949 166.763 301.499 160.5 C 301.035 155.079 299.397 149.824 296.699 145.1 C 292.599 137.9 286.299 134.1 278.199 133.2 C 273.677 132.759 269.144 133.927 265.399 136.5 C 258.499 141 253.199 147.1 248.299 153.5 C 240.095 164.38 232.803 175.919 226.499 188 L 225.799 189.1 C 226.499 184.2 227.199 179.5 227.799 174.8 C 228.599 168.2 228.799 161.5 226.999 155 C 225.199 148.5 222.699 144.5 217.699 141.1 C 212.699 137.7 205.399 136 198.699 135.4 C 195.308 135.1 191.902 135 188.499 135.1 L 183.499 135.3 C 183.599 139.9 183.899 144.3 183.799 148.6 C 183.499 154.9 182.999 161.2 182.399 167.4 C 181.799 173.6 180.699 182.9 179.599 190.6 C 178.299 199.8 176.699 209 174.999 218.2 C 173.299 227.4 171.599 237 169.699 246.4 C 165.799 265.8 161.199 285 155.599 304 C 151.399 318.3 146.799 332.4 140.199 345.8 C 137.199 351.8 133.999 357.8 128.999 362.4 C 126.399 364.8 123.399 366.6 119.599 366.1 L 112.999 365.1 C 112.992 365.272 113.027 365.443 113.099 365.6 C 116.024 373.364 120.364 380.518 125.899 386.7 C 130.599 391.7 135.799 395.9 142.699 397.5 C 147.599 398.7 151.899 398.1 155.299 394.2 C 157.263 391.987 159.036 389.612 160.599 387.1 C 165.899 378.8 169.599 369.6 173.199 360.5 C 180.299 342.2 186.099 323.3 191.999 304.5 C 192.665 302.5 193.265 300.5 193.799 298.5 C 198.399 300.4 202.699 302.2 207.199 303.9 C 216.334 307.321 225.953 309.278 235.699 309.7 C 241.899 310 247.099 307.7 251.599 303.8 C 257.899 298.4 264.099 292.7 270.299 287 C 281.822 276.464 292.489 265.028 302.199 252.8 C 310.599 242 318.499 230.7 326.499 219.7 L 329.499 215.4 C 329.099 218.2 328.199 220.8 327.599 223.5 C 325.199 234.6 322.699 245.8 320.499 257 C 319.399 262.3 318.999 267.6 318.299 272.9 C 318.099 274.9 317.899 277 317.799 279 C 317.599 283.5 317.299 288 319.699 292.2 C 323.499 299.1 329.299 303.7 336.399 306.7 C 340.18 308.344 344.278 309.129 348.399 309 C 353.199 308.8 357.599 306.9 361.699 304.3 C 369.099 299.2 375.099 292.7 380.499 285.6 C 387.499 276.4 394.099 266.9 400.799 257.4 C 402.299 255.3 403.799 253 405.199 250.7 C 405.347 251.291 405.347 251.909 405.199 252.5 C 403.799 261.2 402.299 270 402.199 278.9 C 401.999 285.5 404.699 290.9 409.099 295.6 C 414.481 301.072 421.317 304.889 428.799 306.6 C 432.159 307.468 435.645 307.739 439.099 307.4 C 438.899 305.2 438.499 303.1 438.499 301 C 438.499 298.9 438.599 294.7 438.799 291.5 C 439.199 286.5 439.599 281.5 440.399 276.6 C 441.499 269.2 442.599 261.7 444.099 254.3 C 446.799 241.3 449.899 228.3 452.799 215.4 C 453.299 213.2 453.499 210.7 454.699 208.7 C 459.625 200.87 465.212 193.477 471.399 186.6 C 476.999 180.4 482.699 174.4 489.399 169.3 C 492.503 166.964 495.817 164.922 499.299 163.2 C 502.099 161.8 504.599 163.6 504.599 166.7 C 504.546 169.322 504.245 171.934 503.699 174.5 C 502.099 181.5 498.599 187.7 494.299 193.5 C 488.859 200.958 482.548 207.739 475.499 213.7 C 470.498 218.231 464.956 222.128 458.999 225.3 C 456.599 226.6 456.599 226.5 456.999 229.1 C 459.104 240.486 461.875 251.738 465.299 262.8 C 468.999 274.3 473.299 285.4 480.199 295.3 C 483.799 300.5 487.999 305 493.799 307.7 C 499.599 310.4 505.299 310.3 510.799 306.3 C 515.403 302.71 519.625 298.655 523.399 294.2 C 530.504 285.804 537.051 276.952 542.999 267.7 C 544.799 264.9 546.699 262.1 548.399 259.3 C 548.399 261.5 548.099 263.6 547.899 265.7 C 547.699 267.8 547.099 271.8 547.099 274.9 C 547.099 278 546.799 282.3 547.799 285.6 C 550.799 295.4 557.499 302.5 566.999 306.8 C 569.766 307.967 572.704 308.676 575.699 308.9 C 578.399 309.1 580.999 308 583.399 306.8 C 590.399 303.2 596.099 298.1 601.499 292.5 C 611.199 282.7 619.299 271.5 626.699 259.9 C 628.599 256.9 630.499 253.9 632.199 251 C 631.999 253.5 631.499 255.9 631.099 258.4 C 630.299 263.4 629.599 268.5 628.799 273.6 C 628.399 276.6 628.199 279.8 627.899 282.9 C 627.499 287.6 628.399 291.9 631.799 295.3 C 639.999 303.7 649.999 307.7 661.899 306.6 C 664.899 306.3 664.999 306.3 665.599 303.3 C 668.099 291.2 670.499 279 672.999 266.9 C 673.699 263.5 674.099 260 675.399 256.8 C 681.422 242.404 688.164 228.32 695.599 214.6 C 702.699 201.3 709.999 188.1 718.699 175.8 C 721.101 172.726 723.671 169.788 726.399 167 C 726.829 166.641 727.347 166.401 727.899 166.305 C 728.452 166.209 729.019 166.26 729.546 166.452 C 730.073 166.644 730.539 166.972 730.9 167.401 C 731.26 167.831 731.501 168.348 731.599 168.9 C 731.899 171.056 731.899 173.243 731.599 175.4 C 730.599 181.4 729.499 187.5 728.199 193.5 C 725.699 205.7 722.799 217.9 720.399 230.1 C 717.999 242.3 715.099 257.4 712.499 271 C 711.5 275.934 711.097 280.97 711.299 286 C 711.419 289.67 712.485 293.247 714.395 296.383 C 716.305 299.519 718.993 302.109 722.199 303.9 C 726.227 306.259 730.743 307.661 735.399 308 C 739.231 308.553 743.129 307.623 746.299 305.4 C 751.774 301.49 756.687 296.846 760.899 291.6 C 769.714 280.795 777.831 269.439 785.199 257.6 L 791.599 247.7 C 790.999 251.9 790.299 255.9 789.699 260 C 789.099 264.1 788.299 269.8 787.999 274.7 C 787.799 278.802 787.899 282.913 788.299 287 C 788.65 291.34 790.132 295.512 792.599 299.1 C 798.199 307.5 810.199 309.8 818.999 307.4 C 825.799 305.4 831.199 301.3 836.199 296.7 C 841.488 291.748 846.278 286.288 850.499 280.4 C 859.186 268.53 866.974 256.029 873.799 243 L 874.599 241.6 C 874.656 241.863 874.689 242.131 874.699 242.4 C 873.299 248.2 871.899 253.9 870.399 259.6 C 865.399 279.5 860.099 299.5 853.399 319 C 848.299 333.9 843.099 348.6 835.799 362.6 C 831.799 370.1 827.499 377.6 820.999 383.4 C 816.699 387.1 811.999 388.5 806.499 386.9 C 800.999 385.3 795.999 380.3 793.599 374.4 C 790.494 367.05 789.29 359.037 790.099 351.1 C 790.458 346.049 791.818 341.12 794.099 336.6 C 794.224 336.216 794.392 335.847 794.599 335.5 C 790.936 334.535 787.094 334.467 783.399 335.3 C 776.968 336.447 771.174 339.895 767.099 345 C 762.499 350.9 761.399 357.5 762.499 364.7 C 763.617 372.13 766.925 379.058 771.999 384.6 C 779.799 393 789.699 396.9 800.899 398.3 L 805.899 398.9 H 812.099 C 813.886 398.601 815.689 398.401 817.499 398.3 C 825.019 397.504 832.299 395.191 838.899 391.5 C 850.099 385.3 858.299 376.1 865.399 365.5 C 871.299 356.6 875.899 346.8 879.999 337 C 893.199 305.5 903.699 273.2 912.699 240.3 C 917.299 223.1 921.299 205.8 925.399 188.5 C 927.099 181.3 928.099 173.9 929.399 166.5 C 929.799 164.3 929.799 162.1 930.099 159.8 C 930.168 159.49 930.269 159.189 930.399 158.9 V 154.6 C 930.699 154.6 930.499 154.4 930.499 154.1 Z M 262.399 186.6 C 257.847 212.737 249.421 238.049 237.399 261.7 C 233.699 269 229.499 276.1 224.099 282.2 C 220.899 285.8 217.499 289.1 212.999 291.1 C 208.499 293.1 206.199 292.4 202.699 291.9 C 200.699 291.6 198.799 291 196.599 290.6 C 197.699 287 198.799 283.4 199.799 279.9 C 204.499 264.9 209.099 249.9 213.999 235 C 214.999 232 216.799 229.3 218.399 226.5 C 226.499 212.1 234.899 197.8 244.099 184.1 C 247.599 179 251.199 173.9 255.699 169.7 C 256.54 168.913 257.482 168.24 258.499 167.7 C 258.868 167.503 259.275 167.389 259.692 167.364 C 260.109 167.34 260.527 167.406 260.916 167.558 C 261.306 167.71 261.658 167.944 261.948 168.245 C 262.239 168.545 262.46 168.905 262.599 169.3 C 263 170.284 263.204 171.337 263.199 172.4 C 263.331 177.147 263.064 181.897 262.399 186.6 Z M 892.299 157.3 C 890.099 168.9 888.099 180.5 885.999 192.1 C 885.789 192.963 885.487 193.801 885.099 194.6 C 873.999 217 861.799 238.8 847.399 259.4 C 843.721 264.876 839.463 269.938 834.699 274.5 C 833.476 275.525 832.133 276.398 830.699 277.1 C 830.472 277.238 830.219 277.327 829.956 277.361 C 829.693 277.395 829.426 277.374 829.171 277.298 C 828.917 277.223 828.681 277.095 828.479 276.923 C 828.277 276.751 828.114 276.539 827.999 276.3 C 827.251 274.69 826.649 273.017 826.199 271.3 C 826.078 270.505 826.012 269.703 825.999 268.9 C 826.299 259.1 828.299 249.7 830.699 240.4 C 835.999 221.1 842.799 202.4 852.299 184.6 C 856.199 177.4 860.399 170.5 865.799 164.4 C 868.999 160.8 872.399 157.5 876.899 155.5 C 881.399 153.5 883.099 154.5 886.299 154.7 C 887.882 154.861 889.452 155.128 890.999 155.5 C 892.099 155.6 892.399 156.1 892.299 157.3 Z" stroke-linecap="butt" stroke="none" stroke-width="1" stroke-dasharray="none" stroke-dashoffset="0" stroke-linejoin="miter" stroke-miterlimit="4" fill="rgb(255,255,255)" fill-rule="nonzero"/>
      </g>
      <g transform="matrix(0.9852 0 0 0.9852 -356.4537 -44.2658)">
        <path transform=" translate(-99.6846, -154.5662)" d="M 150.3 257.6 C 154.452 247.235 156.851 236.252 157.4 225.1 C 157.685 218.889 157.417 212.664 156.6 206.5 C 155.767 200.137 154.43 193.851 152.6 187.7 C 149.1 176.5 144 165.8 138.7 155.3 C 130.2 138.3 121.3 121.4 113 104.3 C 106.2 90.1 101.8 75.2 101.6 59.4 C 101.414 54.7517 101.682 50.0963 102.4 45.5 C 103.7 38.7 106 32.3 110.7 27 C 118.4 18.2 128.4 15.6 139.4 17.6 C 150.4 19.6 156.6 28.6 157.7 38.8 C 158.28 44.8689 157.806 50.9924 156.3 56.9 C 154.5 63.5 151.8 69.7 146.9 74.7 C 145.3 76.4 143.3 77.9 141.5 79.5 C 146 93.9 158.3 100.3 172 97.9 C 180.2 96.5 186.2 91.3 190.7 84.7 C 195.2 78.1 198 69.7 199 61.2 C 199.666 55.7319 199.43 50.1914 198.3 44.8 C 195.961 35.0474 190.938 26.1445 183.8 19.1 C 172.5 7.89998 158.9 2.39998 143.4 0.599976 L 137.9 0 H 129.9 L 124.3 0.599976 C 108.8 1.99998 94.5 6.7 82.3 16.5 C 70.1 26.3 62.1 40 58.8 55.8 C 57.3014 62.3551 56.6959 69.0827 57 75.8 C 57.4689 88.8071 60.3158 101.618 65.4 113.6 C 71.2 126.8 77.2 139.8 83.4 152.7 C 90.9 168.7 99 184.4 105.1 201 C 107.612 207.584 109.39 214.426 110.4 221.4 C 111.4 227.916 111.701 234.52 111.3 241.1 C 110.4 252.7 107.8 263.9 101.5 274 C 97.7 279.9 92.9 284.8 86.3 287.4 C 81.6412 289.324 76.4809 289.672 71.6061 288.39 C 66.7312 287.108 62.4095 284.267 59.3 280.3 C 54 273.8 51.2 266.2 49.1 258.2 C 46.9542 250.222 46.1433 241.943 46.7 233.7 C 47.9 216.3 52.1 199.8 62.2 185.1 C 65.1 181.1 68.4 177.3 73 174.8 C 70.6057 171.821 67.6498 169.34 64.3 167.5 C 59.1446 164.566 53.4114 162.791 47.5 162.3 C 37.7 161.3 29.5 164.6 22.1 170.5 C 11.8 178.7 6.1 189.7 2.8 202.2 C 1.27092 207.64 0.431012 213.251 0.299999 218.9 C 0.299999 219.4 0 219.8 0 220.3 V 228.3 C 0.0514621 228.841 0.151872 229.377 0.299999 229.9 C 0.599999 233.3 0.699997 236.6 1.2 240 C 2.36775 247.038 4.34764 253.918 7.1 260.5 C 12.4766 274.229 21.6724 286.132 33.6 294.8 C 46.2022 304.013 61.3892 309.017 77 309.1 C 82.029 309.255 87.0597 308.853 92 307.9 C 106.397 305 119.657 298.023 130.2 287.8 C 138.885 279.206 145.724 268.929 150.3 257.6 V 257.6 Z" stroke-linecap="butt" stroke="none" stroke-width="1" stroke-dasharray="none" stroke-dashoffset="0" stroke-linejoin="miter" stroke-miterlimit="4" fill="rgb(255,255,255)" fill-rule="nonzero"/>
      </g>
      <g transform="matrix(0.9852 0 0 0.9852 137.9211 -126.0964)">
        <path transform=" translate(-601.4947, -71.5068)" d="M 583.999 100 C 586.23 100.081 588.444 100.416 590.599 101 L 614.099 107.7 C 617.499 108.6 620.799 109.9 624.299 109.7 C 623.852 108.39 623.485 107.054 623.199 105.7 C 622.199 101 622.699 96.2999 623.299 91.6999 C 623.899 87.0999 624.499 83.2999 625.299 79.0999 C 626.799 70.8999 628.399 62.7999 629.899 54.5999 C 630.65 51.4105 631.151 48.1673 631.399 44.9 C 631.413 43.3471 631.113 41.8074 630.516 40.3737 C 629.92 38.94 629.039 37.6421 627.927 36.5581 C 626.815 35.4741 625.495 34.6266 624.046 34.0666 C 622.598 33.5067 621.051 33.2459 619.499 33.2999 C 614.099 33.4999 609.899 37.1999 608.599 42.6999 C 608.346 43.5204 607.816 44.2275 607.099 44.6999 C 602.907 47.2369 599.485 50.8665 597.199 55.1999 C 595.544 58.3385 594.172 61.6181 593.099 65 C 592.681 66.6491 591.872 68.1733 590.74 69.4439 C 589.609 70.7145 588.189 71.6941 586.599 72.2999 L 585.199 72.9 C 581.499 74.8 577.799 76.6999 574.199 78.6999 C 573.378 79.0656 572.689 79.6736 572.225 80.4423 C 571.76 81.211 571.541 82.1035 571.599 83 C 572.034 85.8327 572.635 88.6375 573.399 91.4 C 575.099 96.7 578.399 99.9 583.999 100 Z" stroke-linecap="butt" stroke="none" stroke-width="1" stroke-dasharray="none" stroke-dashoffset="0" stroke-linejoin="miter" stroke-miterlimit="4" fill="rgb(255,255,255)" fill-rule="nonzero"/>
      </g>
      <g transform="matrix(0.9852 0 0 0.9852 -107.47 -126.1196)">
        <path transform=" translate(-352.4135, -71.4832)" d="M 328.2 67.1998 C 331.2 70.7998 334.3 74.0998 337 77.7998 C 342 84.2998 345.2 91.8998 347.5 99.6998 C 347.7 100.4 347.9 101.2 348.8 101.5 L 373.2 109.4 C 374.725 109.909 376.39 109.796 377.832 109.084 C 379.274 108.372 380.377 107.12 380.9 105.6 C 381.525 103.931 381.896 102.178 382 100.4 C 382.3 97.5998 382.2 94.7998 380.5 92.1998 C 377.5 87.7998 374.9 83.0998 372.3 78.3998 C 372.062 77.7941 372.027 77.1272 372.2 76.4998 C 372.3 74.9998 372.8 73.3998 372.4 71.9998 C 371.1 68.2998 369.5 64.7998 368 60.8998 C 369.652 59.9481 371.09 58.6669 372.225 57.1359 C 373.361 55.6048 374.169 53.8566 374.6 51.9998 C 375.077 50.433 375.412 48.8265 375.6 47.1998 C 376.119 42.9422 375.779 38.6238 374.6 34.4998 C 374.4 33.9998 373.7 33.5998 373.2 33.2998 C 372.7 32.9998 372.2 34.1998 372 34.7998 C 371.5 37.8998 370.4 40.5998 367.9 42.5998 C 365.602 44.2959 362.966 45.4774 360.171 46.0641 C 357.375 46.6508 354.486 46.6289 351.7 45.9998 C 348 45.1998 344.5 44.2998 340.6 44.2998 C 336.7 44.2998 331.6 45.0998 327.6 47.6998 C 323.6 50.2998 320.7 56.3998 324.4 62.1998 C 325.554 63.9493 326.824 65.6197 328.2 67.1998 V 67.1998 Z" stroke-linecap="butt" stroke="none" stroke-width="1" stroke-dasharray="none" stroke-dashoffset="0" stroke-linejoin="miter" stroke-miterlimit="4" fill="rgb(255,255,255)" fill-rule="nonzero"/>
      </g>
    </g>
  </g>
</svg>