<svg xmlns="http://www.w3.org/2000/svg" xmlns:xlink="http://www.w3.org/1999/xlink" version="1.2" viewBox="0 0 96 96" baseProfile="tiny-ps">
  <title>SUCCESS_logo</title>
  <rect y="0.05" width="96" height="96" fill="#FFFFFF"/>
  <g>
    <path d="M85.28,55.82c2.39,0,5.08-1.42,5.08-4.93c0-6.24-8.82-3.59-8.82-7.75c0-1.85,1.44-2.97,3.4-2.97   c2.32,0,3.91,2.09,4.35,4.26h0.19l0.03-4.42L89.28,40c-0.22,0.15-0.56,0.3-1.08,0.3c-0.67,0-2.3-0.35-3.23-0.35   c-2.09,0-4.67,1.21-4.67,4.41c0,6.24,8.65,3.57,8.65,7.88c0,2.35-1.72,3.34-3.64,3.34c-2.6,0-4.3-1.85-5.01-5.04h-0.19l-0.01,5.12   h0.26c0.26-0.15,0.67-0.32,1.1-0.32C82.14,55.34,83.6,55.82,85.28,55.82"/>
    <path d="M73.67,55.82c2.39,0,5.08-1.42,5.08-4.93c0-6.24-8.82-3.59-8.82-7.75c0-1.85,1.44-2.97,3.4-2.97   c2.32,0,3.91,2.09,4.34,4.26h0.19l0.03-4.42L77.67,40c-0.22,0.15-0.56,0.3-1.08,0.3c-0.67,0-2.3-0.35-3.23-0.35   c-2.09,0-4.67,1.21-4.67,4.41c0,6.24,8.65,3.57,8.65,7.88c0,2.35-1.72,3.34-3.64,3.34c-2.61,0-4.31-1.85-5.02-5.04H68.5l-0.01,5.12   h0.26c0.26-0.15,0.67-0.32,1.1-0.32C70.52,55.34,71.99,55.82,73.67,55.82"/>
    <path d="M67.08,55.54l-0.03-4.65h-0.19c-1.74,3.94-1.4,4.43-4.35,4.43c-2.47,0-2.69-0.02-2.69-1.25v-6.35h1.55   c1.31,0.04,2.27,0.04,2.67,2.19h0.19v-4.84h-0.19c-0.13,1.46-0.72,2.31-2.65,2.43h-1.57v-5.96c0-1.01,0.32-1.12,2.43-1.12   c2.99,0,3.64,1.16,4.65,3.92l0.19-0.03V40.2H55.34v0.22h1.61c0.13,0,0.21,0.04,0.21,0.8v13.3c0,0.75-0.09,0.8-0.21,0.8h-1.61v0.22   C55.34,55.54,67.08,55.54,67.08,55.54z"/>
    <path d="M53.84,50.76l-0.17-0.02c-0.52,2.69-1.98,4.86-4.82,4.86c-3.53,0-4.07-3.4-4.07-8.05c0-4.45,0.49-7.36,3.96-7.36   c2.22,0,3.81,1.21,4.89,4.41h0.19l-0.01-4.46h-0.37c-0.32,0.24-0.67,0.34-0.97,0.34c-0.65,0-2.04-0.54-3.68-0.54   c-3.58,0-7.04,2.61-7.04,7.99c0,5.49,3.62,7.9,7.19,7.9c1.85,0,2.69-0.64,3.55-0.64c0.34,0,0.71,0.11,0.99,0.3h0.33L53.84,50.76z"/>
    <path d="M40.56,50.76l-0.17-0.02c-0.52,2.69-1.98,4.86-4.82,4.86c-3.53,0-4.07-3.4-4.07-8.05c0-4.45,0.5-7.36,3.96-7.36   c2.22,0,3.81,1.21,4.89,4.41h0.19l-0.01-4.46h-0.37c-0.32,0.24-0.67,0.34-0.97,0.34c-0.64,0-2.04-0.54-3.68-0.54   c-3.57,0-7.04,2.61-7.04,7.99c0,5.49,3.61,7.9,7.19,7.9c1.85,0,2.69-0.64,3.55-0.64c0.35,0,0.71,0.11,0.99,0.3h0.33L40.56,50.76z"/>
    <path d="M29.5,40.21h-5.04v0.22h0.17c1.61,0,2.2,0.73,2.2,4.11v5.55c0,3.96-1.92,5.4-4.84,5.4c-3.1,0-3.53-2.02-3.53-5.19v-9.08   c0-0.75,0.09-0.8,0.22-0.8h1.61V40.2h-6.31v0.22h1.62c0.13,0,0.22,0.04,0.22,0.8v8.72c0,4.22,1.29,5.94,5.81,5.94   c3.27,0,5.51-1.42,5.51-5.79v-5.55c0-3.38,0.58-4.11,2.19-4.11h0.17V40.21z"/>
    <path d="M8.98,55.82c-1.68,0-3.14-0.47-3.81-0.47c-0.43,0-0.84,0.17-1.1,0.32H3.81l0.01-5.12h0.19c0.71,3.19,2.41,5.04,5.01,5.04   c1.92,0,3.64-0.99,3.64-3.34c0-4.3-8.65-1.64-8.65-7.88c0-3.21,2.58-4.41,4.67-4.41c0.93,0,2.56,0.35,3.23,0.35   c0.52,0,0.86-0.15,1.08-0.3l0.22,0.01l-0.03,4.42h-0.19c-0.43-2.17-2.02-4.26-4.34-4.26c-1.96,0-3.4,1.12-3.4,2.97   c0,4.16,8.83,1.51,8.83,7.75C14.06,54.4,11.37,55.82,8.98,55.82"/>
    <path d="M92.76,41.55c0.21,0,0.33-0.11,0.33-0.26c0-0.17-0.12-0.26-0.33-0.26h-0.39v0.53h0.39V41.55z M92.06,40.75h0.73   c0.35,0,0.62,0.17,0.62,0.51c0,0.26-0.15,0.43-0.37,0.49l0.43,0.61H93.1l-0.38-0.55h-0.34v0.55h-0.31v-1.61H92.06z M94.08,41.58   L94.08,41.58c0-0.78-0.6-1.42-1.4-1.42c-0.79,0-1.4,0.64-1.4,1.42v0.01c0,0.77,0.6,1.41,1.4,1.41C93.47,43,94.08,42.36,94.08,41.58    M91.1,41.59L91.1,41.59c0-0.87,0.7-1.6,1.58-1.6c0.89,0,1.58,0.72,1.58,1.58v0.01c0,0.86-0.7,1.59-1.58,1.59   C91.79,43.17,91.1,42.45,91.1,41.59"/>
  </g>
</svg>