<?xml version="1.0" encoding="utf-8"?>
<svg version="1.2" baseProfile="tiny-ps" viewBox="0 0 300 300" xmlns="http://www.w3.org/2000/svg">
  <title>Air Canada</title>
  
  <g id="Layer_1_1_">
    <path fill="#D7282F" d="M154.3,200.6c0-7.7,4-9.2,11.4-5.1c13.6,7.6,27.9,15.5,27.9,15.5c0.5-4.3,4.2-8,12.4-6.1   c7.6,1.8,16.1,3.7,16.1,3.7s-4.6-10.3-6.6-14.9c-3.8-8.4-0.2-12.4,3.5-13.5c0,0-5.2-3.5-8.6-5.9c-7.3-5.1-5.6-10.1,1.5-13.2   c9.8-4.1,21.9-9.6,21.9-9.6c-3.9-2.2-8.4-8.6-3.3-15.9c5-7.3,12.5-17.4,12.5-17.4s-13.2,0.1-22,0c-8-0.2-9.9-6.5-9.9-11   c0,0-13,9.2-22.3,15.5c-7.8,5.3-15,0.1-13.8-8.9c1.9-14.2,3.5-29.8,3.5-29.8c-4.8,3.2-13.1,3.2-16.8-4.8   C156.3,67.5,150,53.8,150,53.8s-6.2,13.7-11.6,25.4c-3.6,7.9-11.9,8-16.8,4.8c0,0,1.6,15.7,3.5,29.8c1.2,9-5.9,14.2-13.7,8.9   c-9.3-6.3-22.3-15.5-22.3-15.5c0.1,4.6-1.8,10.9-9.8,11c-8.8,0.1-22,0-22,0s7.5,10.1,12.5,17.4s0.5,13.7-3.3,15.9   c0,0,12.1,5.5,21.8,9.6c7.2,3.1,8.9,8,1.5,13.2c-3.4,2.4-8.7,5.9-8.7,5.9c3.7,1.2,7.3,5.2,3.5,13.5c-2,4.6-6.6,14.9-6.6,14.9   s8.5-1.9,16.2-3.7c8.2-1.8,12,1.8,12.4,6.1c0,0,14.2-7.9,27.8-15.5c7.4-4.2,11.4-2.7,11.4,5.1v19.1c0,11-2,23.1-6.2,29.5   c-52.3-5.7-95.6-47.6-95.7-102.8c-0.1-56.9,47.5-103,106.1-103S256,89.6,256,146.4c0,53.1-41.3,96.6-94.2,102.3v13.9   c62.2-5.6,110.9-55.6,110.9-116.3c0-64.5-55-116.7-122.7-116.7c-67.8,0-122.6,52.3-122.6,116.7c0,56.8,42.5,104,99,114.6   c9.5,1.8,15.6,3.2,20.6,9.4c6.1-11,7.4-34.4,7.4-47.6v-22.1L154.3,200.6L154.3,200.6z" />
  </g>
  <g id="Layer_2_1_" />
</svg>