<?xml version="1.0" encoding="UTF-8" standalone="yes"?>
<svg version="1.2" viewBox="0 0 1500 1500" xml:space="preserve" baseProfile="tiny-ps" xmlns="http://www.w3.org/2000/svg">
  <title>bimi-svg-tiny-12-ps</title>
  <defs id="defs1"/>
  <rect width="100%" height="100%" fill="white" id="rect1"/>
  <path class="st0" d="M 608.10457,509.40888 506.13459,1183.6416 H 343.253 L 446.65496,499.93945 c 3.28548,-28.33735 -2.41537,-49.15215 -16.73592,-67.87073 L 343.253,316.3584 h 162.88159 l 81.04988,108.21196 c 17.49348,24.48238 24.82315,49.63359 20.9201,84.83852 z M 923.43315,546.78914 750.45698,316.3584 H 587.57539 l 187.79978,250.178 c 18.24543,25.61807 22.31747,53.37113 11.97913,86.42659 L 587.57539,1183.6416 H 750.45698 L 941.40184,676.42898 C 957.3166,632.0495 949.98692,584.34892 923.43315,546.78914 Z M 1249.3165,655.18723 994.77936,316.3584 H 831.89777 l 285.06263,379.46287 c 26.0411,35.9658 28.4844,64.58615 0,108.35749 L 831.89777,1183.6416 H 994.77936 L 1249.3165,844.81281 c 41.9074,-60.12146 41.9074,-131.23869 0,-189.62558 z" id="path1" stroke-width="0.84043" fill-rule="evenodd"/>
</svg>