<?xml version="1.0" encoding="UTF-8" standalone="yes"?>
<svg version="1.2" viewBox="0 0 222.8 222.8" xml:space="preserve" baseProfile="tiny-ps" xmlns="http://www.w3.org/2000/svg">
  <title>bimi-svg-tiny-12-ps</title>
  <g>
    <path class="st0" d="M27.1,80.3C12.5,78.8,0,90.3,0,104.6v36.8h11.5V131l25.8-8.5v18.9h11.5V105C49,92.5,39.6,81.6,27.1,80.3&#xA;&#x9;&#x9; M37.4,110.5l-25.8,8.6v-14.2c0-5.9,3.9-11.1,9.5-12.6c8.6-2.2,16.3,4.3,16.3,12.5V110.5z" fill="#034750"/>
    <path class="st0" d="M85.6,80.3c-14.6-1.5-27.1,10-27.1,24.3v36.8H70V131l25.8-8.5v18.9h11.5V105C107.4,92.5,98.1,81.6,85.6,80.3&#xA;&#x9;&#x9; M95.9,110.5l-25.8,8.6v-14.2c0-5.9,3.9-11.1,9.5-12.6c8.6-2.2,16.3,4.3,16.3,12.5C95.9,104.8,95.9,110.5,95.9,110.5z" fill="#034750"/>
    <path class="st0" d="M138.9,81.7h-22.7v59.8h11.5v-10.9h10.7c12.6,0,23.4-9.3,24.7-21.9C164.8,94.1,153.3,81.7,138.9,81.7&#xA;&#x9;&#x9; M138.9,119.1h-11.1V93.2H139c8.2,0,14.7,7.7,12.5,16.3C150.1,115.2,144.8,119.1,138.9,119.1" fill="#034750"/>
    <path class="st0" d="M214.2,125.1c-3.7,3.9-8.7,6.1-14.1,6.1c-10.7,0-19.5-8.7-19.5-19.5c0-10.7,8.7-19.5,19.5-19.5&#xA;&#x9;&#x9;c5.2,0,10.1,2,13.8,5.7l8.3-8.3c-5.9-5.9-13.7-9.1-22-9.1c-17.2,0-31.1,14-31.1,31.1c0,17.2,14,31.1,31.1,31.1&#xA;&#x9;&#x9;c8.5,0,16.8-3.6,22.6-9.8L214.2,125.1z" fill="#034750"/>
  </g>
</svg>