<svg xmlns="http://www.w3.org/2000/svg" xmlns:xlink="http://www.w3.org/1999/xlink" version="1.2" baseProfile="tiny-ps" id="Layer_1" xml:space="preserve" viewBox="801 1 319.9 319.8">
	<title>Maine Lobster Now</title>
<path fill="#FEFEFE" d="M801,120c0-40,0-79.5,0-119c106.6,0,213.2,0,319.9,0c0,106.5,0,213.1,0,319.8c-106.6,0-213.2,0-319.9,0  C801,254.1,801,187.3,801,120 M854.6,219.1c0-12.4,0-24.8,0-38.1c1.8,1.5,2.8,2.3,3.8,3.2c11.6,10.7,23.6,21.1,34.6,32.4  c5.2,5.3,10.6,5.8,17.1,4.8c0-26.4,0-52.6,0-78.7c-6.9,0-13.5,0-20.9,0c0,13.6,0,26.9,0,41.1c-3.7-3.5-6.5-6.1-9.3-8.7  c-11.2-10.4-22.4-20.8-34-31.9c-4-0.3-8-0.7-12-1c0,26.9,0,52.9,0,78.7c5.7,0.4,11.1,0.9,16.5,1C851.7,221.9,853,220.7,854.6,219.1   M1089.1,151.6c0.7-2.9,1.5-5.8,2.3-9.3c-6.3,0-11.7,0.2-17-0.1c-3.6-0.2-4.9,1.3-5.7,4.5c-1.9,7.7-4.3,15.4-6.4,23.1  c-0.8,2.8-1.5,5.6-2.3,8.3c-0.3-0.1-0.5-0.1-0.8-0.2c-2.9-11.9-5.7-23.7-8.5-35.4c-11.8-0.7-11.7-0.7-14.8,8.9  c-2.9,9.1-5.9,18.2-9.2,28.6c-3.5-12.4-6.5-23.3-9.7-34.3c-0.4-1.3-1.7-3.3-2.7-3.3c-6.2-0.3-12.5-0.2-19.6-0.2  c0.8,3.2,1.2,5.6,1.9,7.9c6.6,20.4,13.3,40.8,20,61.1c3.4,10.3,3.4,10.3,14.3,9.5c0.2,0,0.3-0.1,0.8-0.3  c3.6-11.5,7.3-23.2,11.4-36.3c3.9,13.2,7.4,24.9,10.9,36.6c4,0,7.8,0,12,0C1073.7,198.1,1081.3,175.3,1089.1,151.6 M992.7,202.1  c4-8,5.1-16.4,4.4-25.2c-1.6-21.2-18.3-36.2-40.2-36.1c-22.1,0.1-38.7,15.2-40,36.4c-1.3,21.6,8.5,37.5,26.9,43.3  C962.8,226.4,982.3,219.3,992.7,202.1 M938.9,240.8c0.5,5.8,1,11.6,1.5,17.3c-1.2,3.2-3,6.5,1.9,9.7c-9.2,4.3-15.9,10.2-20.5,18.6  c-2.3,4.2-3.1,7.5,0.6,11.1c3.4,3.4,6.9,4.2,11.2,1.8c1-0.6,2.6-0.4,3.9-0.3c3.4,0.4,6.7,1,10,1.4c3.3,0.6,6.8,2.9,10,2.5  c5.5-0.6,10.6-3.3,16.5-3.4c2.9,0,5.5-0.5,8.5,0.2c2.6,0.5,6.2-0.7,8.3-2.4c1.8-1.4,3.5-5.2,2.8-7c-2.9-8.1-8-14.9-15.9-19.1  c-2.3-1.2-4.7-2.4-7.1-3.5c0.5-0.2,1-0.4,1.5-0.6c-0.3-2.7-0.7-5.3-1-8c-0.1-0.7-0.1-1.5,0-2.2c0.6-5.6,2.3-11.3,1.7-16.8  c-0.8-7.5-7.3-11.9-15.3-12.3C948,227.5,942.1,231.2,938.9,240.8 M898,41.3c0-1.4,0-2.8,0-4.3c-7.4,1.2-12.4,3.9-17,9.5  c-20.4,24.9-10.8,55.9,10.5,73.4c1.3,1,2.9,1.8,4.4,2.2c10.8,3,20.1,8.6,28.9,15.4c1.9,1.5,5,1.4,8.2,2.2  c-3.5-8.9-2.5-18.7-12.8-21.4c0.8-6.9,1.3-13.3,2.4-19.7c0.8-4.9-0.9-7.9-4.8-10.9c-5.7-4.3-12.7-8-13.1-16.8c0-1.2-1.1-2.5-2-3.4  C895.1,60.2,894.7,51.5,898,41.3 M1032.1,45.4c-4.3-4.6-9.4-7.6-16.6-8.5c0.8,3.7,1.4,6.7,2,9.7c1.3,6.6,0.9,12.7-3.8,18.3  c-2.4,2.9-3.4,7-5,10.5c-0.6,1.3-1.1,2.8-2.1,3.7c-4.1,3.6-8.6,6.8-12.5,10.6c-1.5,1.5-2.5,4.3-2.4,6.4c0.3,5.8,1.2,11.6,2,17.3  c0.4,3.1-0.2,4.8-3.2,6.7c-2.8,1.8-4.8,5.4-6.2,8.6c-1.4,3-1.6,6.6-2.7,11.6c3.7-1.5,6.9-2.2,9.2-3.9c7.8-5.7,15.9-10.9,25.3-13.6  c2.8-0.8,5.7-2.2,7.9-4.1C1045.2,100,1052.8,70,1032.1,45.4 M1016,27.1c4.2,1,8.3,2,12.5,3c-17.4-12.6-38.7-9.2-50,8.5  c-5.1,8.1-8.5,17.7-11,27c-3.2,12-3.5,24.5-1.3,36.8c2.2,0,3.9,0,5.8,0c0-1.7,0-3.1,0-4.4c0.6-17,1.9-33.9,8.7-49.9  C987.6,31.8,997.4,25.8,1016,27.1 M920.9,31.4c11.7,9,15.6,22.1,17.9,35.7c2,11.6,2.7,23.4,4,35.4c1.4,0,3.1,0,4.9,0  c0.3-1.4,0.5-2.5,0.6-3.7c0.2-2.5,0.5-5,0.5-7.5c0.1-19.3-2.6-37.9-14.1-54.2c-8.3-11.8-19.8-16.4-33.9-14c-5.1,0.9-10,3.1-14.9,4.7  c0.1,0.4,0.2,0.8,0.3,1.2c5.6-0.8,11.2-1.8,16.8-2.4C909.3,26.2,915.1,27.6,920.9,31.4 M996.9,83.6c1.8-3.5,4.6-6.7,5.3-10.4  c1.7-8.6,2.5-17.4,8.6-24.8c-2.4,0-4.4,0.3-6.3,1.1c-11.5,4.8-17,15.6-15.6,29.9C989.4,84.9,990.8,85.8,996.9,83.6 M912.1,74.2  c1.9,3.2,3.3,7,5.8,9.5c2.9,2.9,6.8,1.3,7.4-2.7c1.2-8.1,0.2-15.9-4.4-22.9c-4-6.2-11.8-10.3-17.6-9.3  C909.9,55.9,910.8,64.7,912.1,74.2 M940.2,122.8c-1.7,4.9-0.5,8.7,3.4,9c2.2,0.2,5.6-1.1,6.5-2.8c0.9-1.7,0.2-5.3-1.1-7  C946.6,119,943.4,119.8,940.2,122.8 M967.2,120.7c-3.2,1.4-4.7,3.7-3.8,7.1c0.9,3.4,3.6,5.4,6.8,4.1c2.1-0.9,4.5-3.7,4.7-5.8  C975.2,121.9,972.1,120.1,967.2,120.7z"/>
<path fill="#2A3947" d="M1089,152c-7.7,23.2-15.4,46.1-23,68.8c-4.2,0-8,0-12,0c-3.5-11.7-6.9-23.3-10.9-36.6  c-4.1,13.1-7.8,24.8-11.4,36.3c-0.5,0.2-0.6,0.3-0.8,0.3c-10.8,0.8-10.9,0.8-14.3-9.5c-6.7-20.4-13.4-40.8-20-61.1  c-0.7-2.3-1.2-4.7-1.9-7.9c7.1,0,13.3-0.1,19.6,0.2c1,0,2.3,2,2.7,3.3c3.2,10.9,6.2,21.9,9.7,34.3c3.4-10.4,6.3-19.5,9.2-28.6  c3.1-9.6,3.1-9.6,14.8-8.9c2.8,11.7,5.7,23.6,8.5,35.4c0.3,0.1,0.5,0.1,0.8,0.2c0.8-2.8,1.5-5.6,2.3-8.3c2.1-7.7,4.5-15.3,6.4-23.1  c0.8-3.2,2.2-4.7,5.7-4.5c5.3,0.3,10.6,0.1,17,0.1C1090.6,145.8,1089.9,148.7,1089,152z"/>
<path fill="#293846" d="M846.4,143.9c11.2,10.4,22.4,20.8,33.6,31.2c2.8,2.6,5.6,5.2,9.3,8.7c0-14.2,0-27.5,0-41.1  c7.4,0,14,0,20.9,0c0,26.1,0,52.3,0,78.7c-6.5,1-11.9,0.5-17.1-4.8c-11.1-11.3-23-21.6-34.6-32.4c-1-0.9-2-1.7-3.8-3.2  c0,13.3,0,25.7-0.6,38.6c-5.1,0.5-9.6,0.2-14.1,0.6c-4.2,0.3-5-1.4-4.9-5.2c0.2-19.6,0.1-39.3,0.1-58.9  C835,144.3,835,144.3,846.4,143.9z"/>
<path fill="#BB4532" d="M992.5,202.4c-10.3,16.9-29.7,24-48.7,18c-18.4-5.8-28.2-21.6-26.9-43.3c1.3-21.2,17.9-36.3,40-36.4  c22-0.1,38.7,15,40.2,36.1C997.8,185.7,996.7,194.1,992.5,202.4 M947.8,163c-8.9,5.1-11,13.3-9.8,22.7c1.1,8.1,5.6,13.8,13.6,16.2  c8.2,2.5,16.8-0.7,21.5-7.7c5.2-7.8,4.6-20.1-1.4-27.1C966.1,160.6,957.3,158.9,947.8,163z"/>
<path fill="#BB4532" d="M939,240.4c3.1-9.2,9-13,18.8-12.5c8.1,0.4,14.5,4.8,15.3,12.3c0.6,5.5-1,11.2-1.7,16.8  c-0.1,0.7-0.1,1.5,0,2.2c0.3,2.7,0.7,5.3,1,8c-0.5,0.2-1,0.4-1.5,0.6c2.4,1.2,4.7,2.3,7.1,3.5c8,4.1,13,10.9,15.9,19.1  c0.7,1.9-1.1,5.6-2.8,7c-2.1,1.7-5.8,2.9-8.3,2.4c-3.1-0.6-5.7-0.2-8.5-0.2c-6,0-11,2.7-16.5,3.4c-3.2,0.4-6.7-1.9-10-2.5  c-3.3-0.5-6.7-1.1-10-1.4c-1.3-0.1-2.9-0.3-3.9,0.3c-4.3,2.4-7.8,1.6-11.2-1.8c-3.7-3.6-2.9-6.9-0.6-11.1  c4.6-8.4,11.3-14.2,20.5-18.6c-4.9-3.3-3.2-6.6-1.9-9.7C940,252.4,939.4,246.6,939,240.4z"/>
<path fill="#BB4432" d="M898,41.7c-3.3,9.8-2.8,18.4,4.7,25.8c0.9,0.9,2,2.2,2,3.4c0.3,8.8,7.3,12.5,13.1,16.8  c3.9,3,5.7,5.9,4.8,10.9c-1.1,6.4-1.6,12.8-2.4,19.7c10.3,2.7,9.3,12.5,12.8,21.4c-3.2-0.8-6.3-0.7-8.2-2.2  c-8.8-6.8-18.1-12.4-28.9-15.4c-1.6-0.4-3.2-1.2-4.4-2.2c-21.3-17.4-30.9-48.5-10.5-73.4c4.6-5.6,9.5-8.3,17-9.5  C898,38.5,898,39.9,898,41.7z"/>
<path fill="#BB4432" d="M1032.4,45.6c20.4,24.4,12.8,54.3-8.4,73.1c-2.2,1.9-5.1,3.3-7.9,4.1c-9.5,2.7-17.5,7.9-25.3,13.6  c-2.4,1.7-5.5,2.4-9.2,3.9c1.1-5.1,1.3-8.6,2.7-11.6c1.5-3.2,3.4-6.8,6.2-8.6c3-1.9,3.7-3.6,3.2-6.7c-0.8-5.8-1.7-11.5-2-17.3  c-0.1-2.1,0.9-5,2.4-6.4c3.9-3.8,8.4-7,12.5-10.6c1-0.9,1.5-2.4,2.1-3.7c1.7-3.5,2.6-7.6,5-10.5c4.7-5.6,5.1-11.7,3.8-18.3  c-0.6-3-1.2-6.1-2-9.7C1022.8,37.7,1027.9,40.8,1032.4,45.6z"/>
<path fill="#BD4A38" d="M1015.5,27c-18.1-1.2-27.9,4.8-34.8,21.1c-6.7,16-8,32.9-8.7,49.9c0,1.3,0,2.7,0,4.4c-1.9,0-3.6,0-5.8,0  c-2.2-12.3-1.9-24.8,1.3-36.8c2.5-9.3,5.8-18.9,11-27c11.2-17.8,32.5-21.1,50-8.5C1024.3,29,1020.1,28,1015.5,27z"/>
<path fill="#BC4936" d="M920.6,31.2c-5.5-3.6-11.3-5-17.4-4.4c-5.6,0.6-11.2,1.6-16.8,2.4c-0.1-0.4-0.2-0.8-0.3-1.2  c5-1.6,9.8-3.8,14.9-4.7c14.1-2.5,25.6,2.1,33.9,14c11.4,16.3,14.2,34.9,14.1,54.2c0,2.5-0.3,5-0.5,7.5c-0.1,1.1-0.4,2.3-0.6,3.7  c-1.8,0-3.6,0-4.9,0c-1.3-12-2-23.8-4-35.4C936.5,53.6,932.6,40.4,920.6,31.2z"/>
<path fill="#BB4633" d="M996.5,83.8c-5.7,2-7.1,1.2-7.7-4.5c-1.5-14.3,4.1-25.1,15.6-29.9c1.9-0.8,3.9-1,6.3-1.1  c-6.1,7.4-6.9,16.2-8.6,24.8C1001.4,76.8,998.7,80.1,996.5,83.8z"/>
<path fill="#BB4734" d="M912,73.8c-1.2-9.1-2.2-17.9-8.8-24.9c5.8-1.1,13.6,3.1,17.6,9.3c4.6,7,5.6,14.8,4.4,22.9  c-0.6,3.9-4.5,5.5-7.4,2.7C915.4,81.2,914,77.4,912,73.8z"/>
<path fill="#1E2E3C" d="M846.2,143.5C835,144.3,835,144.3,835,156c0,19.6,0.1,39.3-0.1,58.9c0,3.8,0.8,5.5,4.9,5.2  c4.5-0.4,9-0.1,14-0.1c-0.8,0.7-2.1,2-3.4,1.9c-5.4-0.1-10.8-0.6-16.5-1c0-25.9,0-51.9,0-78.7C838,142.5,842,142.9,846.2,143.5z"/>
<path fill="#BC4936" d="M940.4,122.5c3-2.7,6.2-3.5,8.5-0.5c1.3,1.7,2,5.3,1.1,7c-0.9,1.7-4.3,3-6.5,2.8  C939.6,131.5,938.5,127.8,940.4,122.5z"/>
<path fill="#BC4936" d="M967.6,120.6c4.5-0.5,7.6,1.3,7.3,5.5c-0.2,2.1-2.6,5-4.7,5.8c-3.1,1.3-5.8-0.7-6.8-4.1  C962.5,124.4,964.1,122,967.6,120.6z"/>
<path fill="#FEFDFC" d="M948.1,162.8c9.2-3.9,18-2.2,23.6,4.3c6,7,6.6,19.3,1.4,27.1c-4.7,7-13.3,10.2-21.5,7.7  c-8-2.4-12.5-8.1-13.6-16.2C936.8,176.3,938.8,168.1,948.1,162.8z"/>
</svg>