<?xml version="1.0" encoding="utf-8"?>
<!-- Generator: Adobe Illustrator 24.0.1, SVG Export Plug-In . SVG Version: 6.00 Build 0)  -->
<svg version="1.2" baseProfile="tiny-ps" id="Layer_1" xmlns="http://www.w3.org/2000/svg" xmlns:xlink="http://www.w3.org/1999/xlink" viewBox="0 0 1447.35 841.89" xml:space="preserve">
<title>Verified Market Research</title>
<g>
	<path fill="#0DAFBF" d="M766.7,334.81h12.82c1.38,0,2.51,0.31,3.39,0.94c0.88,0.63,1.51,1.46,1.89,2.5l13.3,36.77
		c0.59,1.6,1.2,3.35,1.81,5.23c0.61,1.89,1.18,3.87,1.72,5.94c0.44-2.07,0.95-4.05,1.53-5.94c0.58-1.89,1.15-3.63,1.72-5.23
		l13.2-36.77c0.32-0.88,0.93-1.67,1.84-2.38c0.91-0.71,2.03-1.06,3.35-1.06h12.92l-27.53,68.68h-14.43L766.7,334.81z"/>
	<path fill="#0DAFBF" d="M900.48,334.81v12.26h-28.19v16.03h21.59v11.78h-21.59v16.36h28.19v12.26h-44.22v-68.68H900.48z"/>
	<path fill="#0DAFBF" d="M939.88,378.08v25.41h-15.93v-68.68h22.34c4.97,0,9.2,0.51,12.71,1.53c3.5,1.02,6.37,2.44,8.58,4.26
		c2.22,1.82,3.82,3.98,4.83,6.46c1,2.48,1.51,5.19,1.51,8.11c0,2.23-0.3,4.34-0.9,6.32c-0.6,1.98-1.48,3.81-2.66,5.49
		s-2.62,3.18-4.34,4.5c-1.71,1.32-3.68,2.4-5.91,3.25c1.07,0.53,2.06,1.19,2.99,1.98c0.93,0.79,1.74,1.75,2.42,2.88l14.62,23.9
		h-14.42c-2.67,0-4.59-1-5.75-3.02l-11.41-19.94c-0.5-0.88-1.09-1.51-1.76-1.89c-0.68-0.38-1.63-0.56-2.85-0.56H939.88z
		 M939.88,367.1h6.41c2.17,0,4.02-0.28,5.54-0.83c1.52-0.55,2.77-1.31,3.75-2.29c0.97-0.97,1.68-2.11,2.12-3.42
		c0.44-1.3,0.66-2.71,0.66-4.22c0-3.02-0.98-5.38-2.95-7.07c-1.96-1.7-5-2.55-9.12-2.55h-6.41V367.1z"/>
	<path fill="#0DAFBF" d="M1018.51,403.49h-16.03v-68.68h16.03V403.49z"/>
	<path fill="#0DAFBF" d="M1089.88,334.81v12.26h-28.19v17.39h23.48v12.3h-23.48v26.73h-16.03v-68.68H1089.88z"/>
	<path fill="#0DAFBF" d="M1130.04,403.49h-16.03v-68.68h16.03V403.49z"/>
	<path fill="#0DAFBF" d="M1201.41,334.81v12.26h-28.19v16.03h21.59v11.78h-21.59v16.36h28.19v12.26h-44.22v-68.68H1201.41z"/>
	<path fill="#0DAFBF" d="M1287.2,369.12c0,4.97-0.86,9.55-2.57,13.74c-1.71,4.19-4.13,7.82-7.24,10.89
		c-3.11,3.06-6.86,5.45-11.24,7.17c-4.38,1.71-9.25,2.57-14.59,2.57h-26.68v-68.68h26.68c5.34,0,10.21,0.86,14.59,2.59
		c4.38,1.73,8.13,4.12,11.24,7.17c3.11,3.05,5.52,6.67,7.24,10.86C1286.34,359.63,1287.2,364.19,1287.2,369.12z M1270.89,369.12
		c0-3.39-0.44-6.46-1.32-9.19c-0.88-2.73-2.15-5.05-3.8-6.95c-1.65-1.9-3.67-3.36-6.06-4.38s-5.11-1.53-8.16-1.53h-10.65v44.17
		h10.65c3.05,0,5.77-0.51,8.16-1.53s4.41-2.48,6.06-4.38c1.65-1.9,2.91-4.22,3.8-6.95C1270.45,375.63,1270.89,372.55,1270.89,369.12
		z"/>
	<path fill="#0DAFBF" d="M809.29,475.56c0.46,1.08,0.91,2.18,1.35,3.28c0.44-1.13,0.89-2.25,1.37-3.35c0.47-1.1,0.97-2.15,1.51-3.16
		l20.18-37.76c0.25-0.47,0.51-0.85,0.78-1.13c0.27-0.28,0.57-0.49,0.9-0.61c0.33-0.13,0.7-0.21,1.11-0.24
		c0.41-0.03,0.89-0.05,1.46-0.05h9.57v68.16h-11.17v-44.03c0-0.82,0.02-1.71,0.07-2.69c0.05-0.97,0.12-1.96,0.21-2.97L816,489.68
		c-0.47,0.88-1.08,1.56-1.84,2.05c-0.76,0.49-1.64,0.73-2.64,0.73h-1.74c-1,0-1.89-0.24-2.64-0.73c-0.76-0.49-1.37-1.17-1.84-2.05
		l-20.88-38.79c0.12,1.04,0.21,2.05,0.26,3.04c0.05,0.99,0.07,1.91,0.07,2.76v44.03h-11.17v-68.16h9.57c0.56,0,1.05,0.02,1.46,0.05
		c0.41,0.03,0.78,0.11,1.11,0.24c0.33,0.12,0.64,0.33,0.92,0.61s0.55,0.66,0.8,1.13l20.36,37.85
		C808.33,473.44,808.83,474.48,809.29,475.56z"/>
	<path fill="#0DAFBF" d="M933.71,500.71h-9.81c-1.1,0-2-0.27-2.71-0.82c-0.71-0.55-1.22-1.23-1.53-2.05l-5.09-13.91h-28.24
		l-5.09,13.91c-0.25,0.72-0.75,1.38-1.48,1.98c-0.74,0.6-1.64,0.89-2.71,0.89h-9.85l26.77-68.16h12.96L933.71,500.71z
		 M889.59,474.97h21.73l-8.3-22.67c-0.38-1-0.79-2.19-1.25-3.56c-0.46-1.37-0.9-2.85-1.34-4.46c-0.44,1.6-0.87,3.1-1.3,4.48
		c-0.42,1.38-0.84,2.59-1.25,3.63L889.59,474.97z"/>
	<path fill="#0DAFBF" d="M966.37,474.08v26.63H953.7v-68.16h20.79c4.65,0,8.63,0.48,11.95,1.44c3.31,0.96,6.03,2.3,8.16,4.03
		c2.12,1.73,3.67,3.8,4.67,6.2c0.99,2.4,1.49,5.05,1.49,7.94c0,2.29-0.34,4.46-1.02,6.5c-0.67,2.04-1.65,3.9-2.92,5.56
		c-1.27,1.67-2.84,3.13-4.72,4.38c-1.87,1.26-4,2.26-6.39,3.02c1.6,0.91,2.99,2.22,4.15,3.91l17.07,25.17h-11.41
		c-1.1,0-2.03-0.22-2.8-0.66c-0.77-0.44-1.42-1.07-1.96-1.89l-14.33-21.83c-0.54-0.82-1.13-1.4-1.77-1.74
		c-0.64-0.34-1.59-0.52-2.85-0.52H966.37z M966.37,464.98h7.92c2.39,0,4.47-0.3,6.24-0.9c1.77-0.6,3.23-1.42,4.38-2.47
		c1.15-1.05,2-2.3,2.57-3.75c0.57-1.44,0.85-3.03,0.85-4.76c0-3.46-1.14-6.11-3.42-7.97c-2.28-1.85-5.76-2.78-10.44-2.78h-8.11
		V464.98z"/>
	<path fill="#0DAFBF" d="M1040.66,461.12h2.97c1.19,0,2.18-0.17,2.97-0.5s1.46-0.86,2.03-1.58l18.81-23.81
		c0.78-1.01,1.61-1.7,2.47-2.1c0.86-0.39,1.96-0.59,3.28-0.59h10.94l-22.96,28.33c-0.72,0.88-1.42,1.62-2.08,2.22
		c-0.66,0.6-1.37,1.09-2.12,1.46c1.04,0.38,1.97,0.91,2.81,1.6c0.83,0.69,1.64,1.57,2.43,2.64l23.66,31.91h-11.22
		c-1.51,0-2.63-0.21-3.37-0.64c-0.74-0.42-1.36-1.04-1.86-1.86l-19.28-25.17c-0.63-0.82-1.33-1.41-2.12-1.77
		c-0.78-0.36-1.9-0.54-3.35-0.54h-4.01v29.98h-12.68V432.5h12.68V461.12z"/>
	<path fill="#0DAFBF" d="M1148.9,432.55v10.09h-30.22v18.9h23.81v9.76h-23.81v19.28h30.22v10.14h-42.99v-68.16H1148.9z"/>
	<path fill="#0DAFBF" d="M1220.46,432.55v10.42h-20.51v57.75h-12.68v-57.75h-20.6v-10.42H1220.46z"/>
	<path fill="#0DAFBF" d="M786.68,571.3v26.63H774v-68.16h20.79c4.65,0,8.63,0.48,11.95,1.44c3.31,0.96,6.03,2.3,8.16,4.03
		c2.12,1.73,3.67,3.8,4.67,6.2c0.99,2.4,1.49,5.05,1.49,7.94c0,2.29-0.34,4.46-1.02,6.5c-0.67,2.04-1.65,3.9-2.92,5.56
		c-1.27,1.67-2.84,3.13-4.72,4.38c-1.87,1.26-4,2.26-6.39,3.02c1.6,0.91,2.99,2.22,4.15,3.91l17.07,25.17h-11.41
		c-1.1,0-2.03-0.22-2.8-0.66c-0.77-0.44-1.42-1.07-1.96-1.89l-14.33-21.83c-0.54-0.82-1.13-1.4-1.77-1.74
		c-0.64-0.34-1.59-0.52-2.85-0.52H786.68z M786.68,562.21h7.92c2.39,0,4.47-0.3,6.25-0.9c1.77-0.6,3.23-1.42,4.38-2.47
		c1.15-1.05,2-2.3,2.57-3.75c0.57-1.44,0.85-3.03,0.85-4.76c0-3.46-1.14-6.11-3.42-7.97c-2.28-1.85-5.76-2.78-10.44-2.78h-8.11
		V562.21z"/>
	<path fill="#0DAFBF" d="M890.86,529.77v10.09h-30.22v18.9h23.81v9.76h-23.81v19.28h30.22v10.14h-42.99v-68.16H890.86z"/>
	<path fill="#0DAFBF" d="M950.92,542.17c-0.35,0.69-0.75,1.18-1.2,1.46c-0.46,0.28-1,0.42-1.62,0.42c-0.63,0-1.34-0.24-2.12-0.73
		c-0.79-0.49-1.71-1.03-2.78-1.63c-1.07-0.6-2.32-1.14-3.75-1.63c-1.43-0.49-3.12-0.73-5.07-0.73c-1.76,0-3.29,0.21-4.6,0.64
		c-1.3,0.42-2.4,1.01-3.3,1.77c-0.89,0.76-1.56,1.66-2,2.71s-0.66,2.21-0.66,3.47c0,1.6,0.45,2.94,1.35,4.01
		c0.89,1.07,2.08,1.98,3.56,2.73c1.47,0.75,3.16,1.43,5.04,2.03c1.89,0.6,3.81,1.23,5.78,1.91c1.96,0.67,3.89,1.46,5.78,2.36
		c1.89,0.89,3.57,2.03,5.04,3.39c1.48,1.37,2.67,3.04,3.56,5.02c0.89,1.98,1.34,4.38,1.34,7.21c0,3.08-0.53,5.96-1.58,8.65
		c-1.05,2.69-2.6,5.03-4.62,7.02c-2.03,2-4.5,3.57-7.42,4.71c-2.92,1.15-6.27,1.72-10.04,1.72c-2.17,0-4.31-0.21-6.41-0.64
		c-2.11-0.43-4.12-1.03-6.06-1.81c-1.93-0.79-3.74-1.73-5.42-2.83c-1.68-1.1-3.18-2.33-4.5-3.68l3.67-6.08
		c0.34-0.44,0.76-0.81,1.25-1.11s1.03-0.45,1.63-0.45c0.78,0,1.63,0.32,2.55,0.97c0.91,0.64,1.98,1.36,3.23,2.14
		c1.24,0.78,2.7,1.5,4.38,2.14c1.68,0.64,3.7,0.97,6.06,0.97c3.61,0,6.41-0.86,8.39-2.57c1.98-1.71,2.97-4.17,2.97-7.38
		c0-1.79-0.45-3.25-1.35-4.38c-0.89-1.13-2.08-2.08-3.56-2.85s-3.16-1.42-5.04-1.96c-1.89-0.53-3.8-1.11-5.75-1.74
		c-1.95-0.63-3.87-1.38-5.75-2.26c-1.89-0.88-3.57-2.03-5.05-3.44c-1.48-1.41-2.67-3.18-3.56-5.3c-0.9-2.12-1.35-4.74-1.35-7.85
		c0-2.48,0.49-4.9,1.49-7.26c0.99-2.36,2.43-4.45,4.33-6.27c1.9-1.82,4.24-3.28,7-4.38c2.77-1.1,5.93-1.65,9.48-1.65
		c4.02,0,7.73,0.63,11.12,1.89c3.39,1.26,6.29,3.02,8.67,5.28L950.92,542.17z"/>
	<path fill="#0DAFBF" d="M1020.49,529.77v10.09h-30.22v18.9h23.8v9.76h-23.8v19.28h30.22v10.14H977.5v-68.16H1020.49z"/>
	<path fill="#0DAFBF" d="M1103.93,597.94h-9.81c-1.1,0-2-0.27-2.71-0.82c-0.71-0.55-1.22-1.23-1.53-2.05l-5.09-13.91h-28.24
		l-5.09,13.91c-0.25,0.72-0.75,1.38-1.48,1.98c-0.74,0.6-1.64,0.89-2.71,0.89h-9.85l26.77-68.16h12.96L1103.93,597.94z
		 M1059.8,572.2h21.73l-8.3-22.67c-0.38-1-0.79-2.19-1.25-3.56c-0.46-1.37-0.9-2.85-1.34-4.46c-0.44,1.6-0.87,3.1-1.3,4.48
		c-0.42,1.38-0.84,2.59-1.25,3.63L1059.8,572.2z"/>
	<path fill="#0DAFBF" d="M1136.59,571.3v26.63h-12.68v-68.16h20.79c4.65,0,8.63,0.48,11.95,1.44c3.31,0.96,6.03,2.3,8.16,4.03
		c2.12,1.73,3.67,3.8,4.67,6.2c0.99,2.4,1.49,5.05,1.49,7.94c0,2.29-0.34,4.46-1.02,6.5c-0.67,2.04-1.65,3.9-2.92,5.56
		c-1.27,1.67-2.84,3.13-4.72,4.38c-1.87,1.26-4,2.26-6.39,3.02c1.6,0.91,2.99,2.22,4.15,3.91l17.07,25.17h-11.41
		c-1.1,0-2.03-0.22-2.8-0.66c-0.77-0.44-1.42-1.07-1.96-1.89l-14.33-21.83c-0.54-0.82-1.13-1.4-1.77-1.74
		c-0.64-0.34-1.59-0.52-2.85-0.52H1136.59z M1136.59,562.21h7.92c2.39,0,4.47-0.3,6.24-0.9c1.77-0.6,3.23-1.42,4.38-2.47
		c1.15-1.05,2-2.3,2.57-3.75c0.57-1.44,0.85-3.03,0.85-4.76c0-3.46-1.14-6.11-3.42-7.97c-2.28-1.85-5.76-2.78-10.44-2.78h-8.11
		V562.21z"/>
	<path fill="#0DAFBF" d="M1242.38,581.86c0.69,0,1.29,0.27,1.79,0.8l5,5.42c-2.77,3.43-6.17,6.05-10.21,7.87
		c-4.04,1.82-8.89,2.73-14.54,2.73c-5.06,0-9.61-0.86-13.65-2.59c-4.04-1.73-7.49-4.13-10.35-7.21c-2.86-3.08-5.05-6.76-6.58-11.03
		c-1.52-4.27-2.28-8.94-2.28-14c0-5.12,0.85-9.81,2.55-14.07c1.7-4.26,4.09-7.93,7.16-11.01c3.08-3.08,6.77-5.47,11.06-7.19
		s9.03-2.57,14.21-2.57c5.06,0,9.48,0.81,13.27,2.43c3.79,1.62,7.03,3.76,9.74,6.44l-4.24,5.89c-0.25,0.38-0.57,0.71-0.97,0.99
		c-0.39,0.28-0.93,0.42-1.63,0.42c-0.72,0-1.46-0.28-2.21-0.85c-0.76-0.56-1.71-1.18-2.88-1.84c-1.16-0.66-2.63-1.27-4.41-1.84
		c-1.78-0.56-4.03-0.85-6.76-0.85c-3.21,0-6.15,0.56-8.84,1.67c-2.69,1.11-5,2.71-6.93,4.78c-1.93,2.07-3.44,4.6-4.53,7.57
		c-1.08,2.97-1.62,6.31-1.62,10.02c0,3.83,0.54,7.24,1.62,10.23c1.09,2.99,2.55,5.5,4.41,7.54c1.85,2.04,4.04,3.61,6.55,4.69
		c2.51,1.08,5.22,1.63,8.11,1.63c1.73,0,3.29-0.1,4.69-0.28c1.4-0.19,2.69-0.49,3.87-0.89c1.18-0.41,2.29-0.93,3.35-1.58
		c1.05-0.64,2.1-1.44,3.14-2.38c0.32-0.28,0.64-0.51,0.99-0.69C1241.59,581.95,1241.97,581.86,1242.38,581.86z"/>
	<path fill="#0DAFBF" d="M1328.78,597.94H1316v-29.79h-31.96v29.79h-12.78v-68.16h12.78v29.32H1316v-29.32h12.78V597.94z"/>
</g>
<g>
	<path fill="#3B4ACC" d="M716.33,334.07c-71.98-4.73-100.79,58.5-100.79,58.5c-35.62-64.87-92.76-62.81-121.87-52.51
		c-4.88,1.58-9.67,3.61-14.29,6.1c-2.01,1.08-4,2.25-5.96,3.46c-6.21,3.73-9.76,6.68-9.74,6.68c-7.58,5.75-14.54,12.39-20.5,19.64
		c-0.27,0.33-0.54,0.66-0.8,1c-6.83-10.34-14.71-17.24-16.9-19.29c-6.51-6.1-12.17-9.39-20.21-13.26
		c-34.01-16.38-77.35-14.84-108.36,7.41c-31.31,22.46-40.76,61.87-54.39,95.97c-9.72,24.34-19.45,48.68-29.17,73.02
		c-0.02,0.06-0.04,0.11-0.07,0.17c-0.81,2.19-3.91,2.19-4.71-0.01l-62.75-164.44c-5.15-14.06-18.52-23.41-33.49-23.41H76.6
		l107.16,265.38h28.29c15.44,0,29.34-9.36,35.15-23.66l65.39-161.06c10.45-23.67,27.25-28.61,43.96-28.61
		c16.71,0,33.57,5.43,42.75,16.26c9.18,10.84,13.77,26.44,13.77,46.8v79.05c0,13.25,10.74,23.99,23.99,23.99h29.41V449.68
		c1.18-41.99,23.94-64.54,58.48-64.54c16.71,0,29.65,5.43,38.83,16.26c9.17,10.84,13.77,26.61,13.77,47.3v149.57h1.46h30.73
		c14.46,0,19.13-11.66,19.25-26.12c0-2.15,0-4.32,0-6.51c0.76-40.86-3.92-81.81,11.68-120.68c12.52-31.2,37.42-58.31,74.96-54.75
		L716.33,334.07z"/>
</g>
<g>
	<path fill="#0DAFBF" d="M1330.52,342.35c0.08-22.13,17.92-39.96,39.88-39.87c22.18,0.09,39.93,17.89,39.88,39.97
		c-0.05,22.16-17.96,39.85-40.26,39.78C1348.27,382.16,1330.44,364.16,1330.52,342.35z M1370.41,374.28
		c17.74-0.11,32-14.43,31.92-32.06c-0.08-17.6-14.51-31.9-32.08-31.8c-17.57,0.1-31.86,14.49-31.78,32.01
		C1338.55,360.03,1352.95,374.39,1370.41,374.28z"/>
	<path fill="#0DAFBF" d="M1377.52,345.89c3.66,5.48,7.24,10.86,10.87,16.3c-0.19,0.06-0.29,0.12-0.4,0.12
		c-2.84,0.01-5.67,0.03-8.51-0.02c-0.36-0.01-0.82-0.37-1.05-0.7c-3.24-4.8-6.46-9.62-9.65-14.45c-0.38-0.58-0.77-0.85-1.5-0.83
		c-1.58,0.06-3.16,0.02-4.85,0.02c0,5.34,0,10.59,0,15.91c-2.7,0-5.29,0-7.93,0c0-13.26,0-26.49,0-39.79
		c0.3-0.02,0.57-0.05,0.84-0.05c6.29,0,12.59-0.02,18.88,0c5.92,0.03,10.85,4.06,11.89,9.66c1.1,5.91-2.16,11.55-7.84,13.56
		C1378.08,345.69,1377.87,345.76,1377.52,345.89z M1362.49,330.39c0,2.75,0,5.34,0,7.98c4.1,0,8.11,0.07,12.12-0.03
		c2.23-0.06,3.86-1.97,3.77-4.08c-0.1-2.21-1.82-3.84-4.11-3.86c-2.05-0.02-4.11,0-6.16,0
		C1366.25,330.39,1364.38,330.39,1362.49,330.39z"/>
</g>
</svg>
