<?xml version="1.0" encoding="utf-8"?>
<!-- Generator: Adobe Illustrator 27.5.0, SVG Export Plug-In . SVG Version: 6.00 Build 0)  -->
<svg version="1.2" baseProfile="tiny-ps" id="full_less_angle"
	 xmlns="http://www.w3.org/2000/svg" xmlns:xlink="http://www.w3.org/1999/xlink" viewBox="0 0 84.8 84.8" xml:space="preserve">
	 <title>Buffalo Exchange</title>
<g>
	<polygon fill="#231F20" points="48.5,44.8 49,44.7 48.6,43.9 	"/>
	<path fill="#231F20" d="M78.1,45.5l-1.3-8.1l0-0.1L12.4,47.6l-0.1,0l1.3,8.1l0,0.1L78.1,45.5L78.1,45.5z M15,54.4l-0.9-5.9l2.6-0.4
		l0.1,0.5L14.7,49l-0.1,0l0.3,2l0,0.1l2-0.3l0.1,0.5l-2,0.3l0.4,2.2l0,0.1l2.3-0.4l0.1,0.5L15,54.4z M25.6,52.8L24,50.6l-0.9,2.6
		l-0.6,0.1l1.1-3.2l0,0l-2-2.7l0.6-0.1l1.6,2.2l0.9-2.5l0.6-0.1l-1.1,3.2l0,0l2,2.7L25.6,52.8z M33.5,51.1c-0.2,0.3-0.8,0.6-1.3,0.6
		c-0.1,0-0.1,0-0.2,0c-0.6,0-1-0.6-1.1-1c-0.2-0.6-0.3-1.2-0.4-1.8c0-0.3-0.1-0.7-0.2-1c-0.1-0.7-0.1-1.4,0.4-1.8
		c0.3-0.2,0.8-0.4,1.2-0.4c0.4,0,0.8,0.2,1,0.4c0.1,0.2,0.3,0.6,0.3,1l0,0l-0.5,0.1c-0.1-0.4-0.2-0.8-0.6-0.9c-0.3-0.1-0.7,0-1,0.2
		c-0.3,0.3-0.3,0.8-0.2,1.2c0,0.1,0,0.2,0,0.3c0.1,0.3,0.1,0.6,0.2,0.9c0.1,0.7,0.2,1.3,0.4,1.8c0.1,0.2,0.4,0.5,0.7,0.5
		c0,0,0,0,0.1,0c0.4,0,0.7-0.1,0.8-0.3c0.2-0.3,0.2-0.7,0.2-1.1c0.1,0,0.3-0.1,0.4-0.1c0,0,0.1,0,0.1,0
		C33.8,50.1,33.8,50.7,33.5,51.1z M41.8,50.2l-0.6-3.6l0-0.1l-2.1,0.3l0.6,3.7l-0.5,0.1L38.6,47l0-0.1L38,47l-0.1-0.5l0.6-0.1
		l-0.3-1.7l0.5-0.1l0.3,1.6l0,0.1l2.1-0.3l-0.3-1.7l0.5-0.1l0.9,5.9L41.8,50.2z M50.9,48.8l-1.6-3.5l0,0l-0.9,0.2l-0.5,3.8l-0.6,0.1
		l0.5-3.8l0-0.1L47,45.6L47,45.1l0.9-0.1l0.2-1.8l0.8-0.1l2.6,5.6L50.9,48.8z M59.1,47.5l-2.9-4.7l-0.1,0l0.8,5l-0.5,0.1L55.5,42
		l0.8-0.1l2.9,4.7l0.1,0l-0.8-5l0.5-0.1l0.9,5.9L59.1,47.5z M66.4,46.3c-0.2,0-0.4,0-0.5-0.1c-0.9-0.3-1.1-1.3-1.3-2.3
		c0-0.2-0.1-0.4-0.1-0.5c-0.2-1-0.5-2.3,0.5-2.9c0.3-0.2,0.7-0.3,1.1-0.3c0.4,0,0.8,0.1,1.1,0.4c0.2,0.2,0.3,0.6,0.4,1
		c-0.2,0-0.3,0.1-0.4,0.1c0,0,0-0.1,0-0.2c0-0.3-0.1-0.6-0.6-0.7c-0.1,0-0.2-0.1-0.4-0.1c-0.3,0-0.7,0.2-1,0.4
		c-0.3,0.4-0.2,1-0.2,1.4c0.1,0.3,0.1,0.6,0.2,1c0.1,0.8,0.2,1.5,0.6,2.1c0.2,0.2,0.4,0.3,0.7,0.3c0.2,0,0.4,0,0.6-0.1l0,0
		c0.2-0.1,0.4-0.2,0.5-0.4l0,0l-0.3-1.9l0-0.1l-1.1,0.2L66.1,43l1.6-0.2l0.4,2.8C67.7,46,67.1,46.3,66.4,46.3z M73.6,45.2l-0.9-5.9
		l2.6-0.4l0.1,0.5l-2.1,0.3l-0.1,0l0.3,2l0,0.1l2-0.3l0.1,0.5l-2,0.3l0.3,2.2l0,0.1l2.3-0.4l0.1,0.5L73.6,45.2z"/>
	<path fill="#231F20" d="M80.1,42.9L80.1,42.9c-0.7,0.1-1.2,0.7-1.1,1.3c0.1,0.6,0.7,1,1.4,0.9c0.7-0.1,1.2-0.7,1.1-1.3
		C81.4,43.2,80.8,42.8,80.1,42.9z M80.4,45c-0.6,0.1-1.2-0.3-1.3-0.8c-0.1-0.6,0.3-1.1,0.9-1.2l0,0c0.6-0.1,1.2,0.3,1.3,0.8
		C81.5,44.4,81,44.9,80.4,45z"/>
	<path fill="#231F20" d="M80.8,44.4L80.4,44c0.1,0,0.2-0.1,0.2-0.2c0.1-0.1,0.1-0.2,0.1-0.3c0-0.1-0.1-0.2-0.2-0.2
		c-0.1,0-0.2,0-0.5,0l-0.5,0.1l0,0.1c0.2,0,0.2,0,0.2,0.1l0.1,0.9c0,0.1,0,0.2-0.1,0.2l0,0.1l0.5-0.1l0-0.1c-0.2,0-0.2,0-0.2-0.1
		L80,44.1l0.2,0l0.5,0.5l0.3,0l0-0.1C81,44.5,80.9,44.5,80.8,44.4z M80.2,44L80,44l-0.1-0.5c0-0.1,0-0.1,0.1-0.1l0.1,0
		c0.2,0,0.3,0,0.4,0c0.1,0,0.1,0.1,0.1,0.2s0,0.2-0.1,0.2C80.4,44,80.3,44,80.2,44z"/>
	<path fill="#231F20" d="M18.5,57.5c0-0.1-0.3,0-0.5,0.1c-0.3,0-0.7,0-0.7,0.1c0,0.2,0.6-0.2,0.8,0.7l0.4,2.4l-3-2.7
		c-0.2-0.2-0.4-0.1-0.6,0c-0.2,0-0.6,0-0.6,0.1c0,0.2,0.8-0.3,0.9,0.8l0.4,2.7c0.1,0.6-0.4,0.4-0.4,0.6c0,0.1,0.4,0,0.7-0.1
		s0.6,0,0.6-0.1c0-0.2-0.6,0.2-0.7-0.5l-0.4-2.8l3.2,3c0,0,0.1,0.1,0.1,0.1s0-0.1,0-0.1l-0.6-3.8C18.2,57.6,18.5,57.7,18.5,57.5z"/>
	<path fill="#231F20" d="M21.7,60.6c-0.1,0-0.3,0.5-0.8,0.5c-0.7,0.1-1-0.4-1.1-1c0-0.2,0-0.3,0-0.3l1.7-0.3c0.1,0,0.1-0.1,0.1-0.1
		c-0.2-0.6-0.7-1-1.3-0.9c-0.8,0.1-1.1,0.9-1,1.7c0.1,0.8,0.6,1.5,1.5,1.3C21.3,61.4,21.8,60.8,21.7,60.6
		C21.8,60.6,21.7,60.6,21.7,60.6z M19.7,59.5c0-0.3,0.2-0.8,0.6-0.9c0.3,0,0.6,0.2,0.7,0.5c0,0.1,0,0.2-0.1,0.2l-0.5,0.1
		c-0.1,0-0.1,0-0.2,0C20,59.5,19.9,59.6,19.7,59.5C19.8,59.6,19.7,59.5,19.7,59.5z"/>
	<path fill="#231F20" d="M25.6,57.7c-0.2,0-0.7,0-0.6,0.1c0,0.2,0.3,0,0.5,0.3c0,0.1,0,0.2,0,0.3L25.1,60l-0.8-1.5
		c0-0.1-0.1-0.2-0.1-0.3c0-0.3,0.2-0.1,0.2-0.3c0-0.2-0.4,0-0.6,0.1c-0.2,0-0.6,0-0.6,0.1c0,0.2,0.3-0.1,0.6,0.5l0.1,0.3l-0.4,1.4
		l-0.8-1.5c0-0.1-0.1-0.2-0.1-0.3c0-0.3,0.2-0.2,0.2-0.3c0-0.2-0.4,0-0.6,0.1c-0.2,0-0.6,0-0.6,0.1c0,0.2,0.2-0.1,0.5,0.5l1.2,2.1
		c0,0,0.1,0.1,0.1,0.1c0.1,0,0-0.1,0.2-0.7l0.4-1.3l0.9,1.6c0,0,0.1,0.1,0.1,0.1c0.1,0,0.1-0.1,0.2-0.7l0.5-1.9
		c0.1-0.5,0.3-0.4,0.3-0.5C26,57.5,25.8,57.7,25.6,57.7z"/>
	<path fill="#231F20" d="M31.7,59.1l-0.6-0.3c0.1-0.2,0.1-0.3,0.1-0.5c0-0.2,0-0.4,0-0.6c0-0.2,0.2-0.2,0.2-0.3c0-0.2-0.3,0-0.5,0
		c-0.2,0-0.6-0.1-0.6,0.1c0,0.1,0.6,0,0.7,0.7c0,0.2,0,0.3,0,0.5c0,0-2.4-1.4-2.5-2.2c0-0.2,0.1-0.5,0.3-0.6
		c0.4-0.1,0.7,0.4,0.9,0.6c0,0,0,0.1,0.1,0.1c0.1,0-0.1-0.3-0.1-0.6c0-0.1,0-0.3-0.1-0.3c-0.1,0-0.1,0.1-0.2,0.1
		c-0.1,0-0.4-0.1-0.7-0.1c-0.5,0.1-0.8,0.5-0.7,0.9c0,0.3,0.1,0.4,0.3,0.6l0.1,0.1l-0.1,0c-0.5,0.3-0.8,0.8-0.7,1.4
		c0.1,0.9,1.1,1.4,1.9,1.2c0.5-0.1,0.8-0.2,1.2-0.6l0.1-0.1l0.1,0.1c0.5,0.2,0.8,0.4,1.3,0.3c0.2,0,0.5-0.1,0.5-0.2
		C32.9,59.2,32.6,59.6,31.7,59.1z M30.8,59.2c-0.1,0.2-0.5,0.4-0.9,0.5c-0.8,0.1-1.6-0.3-1.8-1.2c-0.1-0.3,0.1-0.8,0.5-0.9
		c0.1,0,0.1,0,0.1,0c0.1,0,0.2,0.3,0.7,0.6C29.9,58.6,30.2,58.8,30.8,59.2L30.8,59.2z"/>
	<path fill="#231F20" d="M36.4,56.9c0,0-0.1-0.1-0.1-0.1c-0.1-0.2,0.6-0.3,0.5-1.1c-0.1-0.6-0.6-1-1.3-0.8c-0.2,0-0.5,0.2-0.9,0.2
		c-0.2,0-0.5,0-0.6,0c-0.1,0-0.1,0-0.1,0.1c0,0,0,0.1,0.1,0.1c0.4,0,0.5,0.3,0.5,0.6l0.4,2.8c0,0.2,0,0.5-0.2,0.6
		c0,0-0.1,0.1-0.1,0.1c0,0,0,0,0.1,0c0.2,0,0.3-0.1,0.6-0.2c0.4-0.1,0.4,0,0.7,0c0.1,0,0.1,0,0.1-0.1c0-0.1-0.6,0-0.7-0.5l-0.2-1.3
		c0-0.1,0-0.1,0.2-0.1c0.3-0.1,0.5,0,0.7,0.3l0.6,0.7c0.4,0.5,0.8,0.8,1.4,0.7c0.1,0,0.2-0.1,0.2-0.1c0-0.1-0.4-0.1-0.9-0.7
		L36.4,56.9z M35.5,56.8c-0.2,0-0.4,0.1-0.4-0.1l-0.2-1.5c0-0.1,0.1-0.2,0.3-0.2c0.6-0.1,1,0.2,1.1,0.7
		C36.3,56.3,36.1,56.7,35.5,56.8z"/>
	<path fill="#231F20" d="M40.8,57.6c-0.1,0-0.3,0.5-0.8,0.5c-0.7,0.1-1-0.4-1.1-1c0-0.2,0-0.3,0-0.3l1.7-0.3c0.1,0,0.1-0.1,0.1-0.1
		c-0.2-0.6-0.7-1-1.3-0.9c-0.8,0.1-1.1,0.9-1,1.7c0.1,0.8,0.6,1.5,1.5,1.3C40.4,58.4,40.8,57.8,40.8,57.6
		C40.8,57.6,40.8,57.6,40.8,57.6z M38.8,56.5c0-0.3,0.2-0.8,0.6-0.9c0.3,0,0.6,0.2,0.7,0.5c0,0.1,0,0.2-0.1,0.2l-0.5,0.1
		c-0.1,0-0.1,0-0.2,0C39.1,56.5,39,56.6,38.8,56.5C38.8,56.6,38.8,56.5,38.8,56.5z"/>
	<path fill="#231F20" d="M43.4,57.2c-0.1,0-0.3,0.5-0.8,0.5c-0.7,0.1-1.1-0.5-1.2-1.2c-0.1-0.5,0-1.2,0.6-1.3
		c0.4-0.1,0.6,0.3,0.6,0.5c0,0,0.1,0.1,0.1,0.1c0.1,0,0.3-0.3,0.2-0.3c-0.2-0.4-0.5-0.4-0.9-0.4c-0.8,0.1-1.2,1-1.1,1.8
		c0.1,0.8,0.7,1.3,1.5,1.2C43,57.9,43.5,57.4,43.4,57.2C43.5,57.2,43.5,57.2,43.4,57.2z"/>
	<path fill="#231F20" d="M45.7,54.5c-0.2,0-0.6,0-0.6,0.1c0,0.2,0.4-0.1,0.4,0.3c0,0.1,0,0.2,0,0.3l-0.3,1.6l-0.9-1.5
		c0-0.1-0.1-0.1-0.1-0.2c0-0.3,0.2-0.2,0.2-0.3c0-0.2-0.4,0-0.6,0.1c-0.2,0-0.6,0-0.6,0.1c0,0.2,0.2-0.1,0.6,0.5l1.3,2.1L45.1,58
		c-0.1,0.5-0.4,0.6-0.3,0.7c0,0.1,0.4,0,0.4-0.1c0.1-0.1,0-0.4,0.1-0.6c0.1-0.4,0.1-0.6,0.2-1.1l0.4-1.9c0.1-0.5,0.3-0.4,0.3-0.5
		C46.2,54.4,45.9,54.5,45.7,54.5z"/>
	<path fill="#231F20" d="M49.1,56.3c-0.1,0-0.3,0.5-0.8,0.5c-0.7,0.1-1.1-0.5-1.2-1.2c-0.1-0.5,0-1.2,0.6-1.3
		c0.4-0.1,0.6,0.3,0.6,0.5c0,0,0.1,0.1,0.1,0.1c0.1,0,0.3-0.3,0.2-0.3c-0.2-0.4-0.5-0.4-0.9-0.4c-0.8,0.1-1.2,1-1.1,1.8
		c0.1,0.8,0.7,1.3,1.5,1.2C48.8,57,49.2,56.5,49.1,56.3C49.2,56.3,49.2,56.3,49.1,56.3z"/>
	<path fill="#231F20" d="M50.4,56L50,53.2c-0.1-0.4,0-0.8-0.1-0.8c-0.1,0-0.2,0.3-0.7,0.5c-0.1,0-0.2,0-0.1,0.1c0,0.1,0.3-0.1,0.4,0
		c0.1,0,0.1,0.2,0.1,0.3l0.4,2.8c0.1,0.7-0.2,0.5-0.2,0.7c0,0.2,0.3,0,0.6-0.1c0.4-0.1,0.8,0,0.8-0.1C51.1,56.4,50.5,56.7,50.4,56z"
		/>
	<path fill="#231F20" d="M53.6,55.5c-0.1,0-0.3,0.5-0.8,0.5c-0.7,0.1-1-0.4-1.1-1c0-0.2,0-0.3,0-0.3l1.7-0.3c0.1,0,0.1-0.1,0.1-0.1
		c-0.2-0.6-0.7-1-1.3-0.9c-0.8,0.1-1.1,0.9-1,1.7c0.1,0.8,0.6,1.5,1.5,1.3C53.2,56.3,53.7,55.8,53.6,55.5
		C53.7,55.6,53.6,55.5,53.6,55.5z M51.6,54.5c0-0.3,0.2-0.8,0.6-0.9c0.3,0,0.6,0.2,0.7,0.5c0,0.1,0,0.2-0.1,0.2l-0.5,0.1
		c-0.1,0-0.1,0-0.2,0C51.9,54.5,51.8,54.5,51.6,54.5C51.7,54.6,51.6,54.5,51.6,54.5z"/>
	<path fill="#231F20" d="M56.7,55.3l-0.5-3.4c0-0.2,0-0.5-0.1-0.4c-0.2,0,0,0.2-0.7,0.4c-0.2,0-0.1,0.2,0,0.2c0.3-0.1,0.4,0,0.4,0.2
		l0.1,0.8l-0.1,0C55.5,53,55.3,52.9,55,53c-0.9,0.1-1.3,1-1.2,1.8c0.1,0.7,0.7,1.3,1.4,1.2c0.4,0,0.6-0.2,0.8-0.5l0.1-0.1l0.1,0.3
		c0,0,0,0.1,0.1,0.1c0.1,0,0.2-0.2,0.7-0.3c0.2,0,0.1-0.2,0-0.1C56.7,55.5,56.7,55.4,56.7,55.3z M55.6,55.7
		c-0.6,0.2-1.2-0.5-1.3-1.2c-0.1-0.6,0.2-1.2,0.7-1.3c0.8,0,1,0.5,1,1.1C56.1,54.9,56.2,55.5,55.6,55.7z"/>
	<path fill="#231F20" d="M60.7,52.4c-0.1,0-0.1,0.2-0.1,0.3c-0.1,0.2-0.3,0.2-0.5,0.3L59.4,53c0,0-0.1,0-0.1,0c0,0,0,0,0-0.1
		l-0.2-1.3c0,0,0-0.1,0-0.1c0,0,0.1-0.1,0.2-0.1l0.5-0.1c0.3,0,0.7-0.1,0.8,0.1c0.1,0.1,0.1,0.4,0.2,0.3c0.1,0,0-0.3,0-0.4
		c0-0.2,0-0.4-0.2-0.4c-0.2,0-1.1,0.2-1.8,0.3c-0.2,0-0.5,0-0.6,0c-0.1,0-0.1,0-0.1,0.1c0,0.1,0.1,0.1,0.2,0.1
		c0.4,0,0.5,0.5,0.5,0.6l0.4,2.7c0.1,0.4,0,0.5-0.2,0.6c0,0-0.1,0.1-0.1,0.1c0,0,0,0,0.1,0c0.2,0,0.4-0.1,0.6-0.2c0.2,0,0.5,0,0.6,0
		c0.1,0,0.2,0,0.1-0.1c0-0.1-0.6,0.1-0.7-0.5l-0.2-1.2c0,0,0-0.1,0-0.1c0,0,0,0,0.1,0l0.6-0.1c0.3,0,0.6,0,0.7,0.3
		c0,0.1,0,0.1,0.1,0.1c0.2,0,0-0.4,0-0.6C60.8,52.7,60.8,52.3,60.7,52.4z"/>
	<path fill="#231F20" d="M64.1,54.3c-0.1,0-0.1,0-0.2,0c-0.2,0-0.3-0.2-0.3-0.4l-0.3-1.6c-0.1-0.5-0.6-0.5-1.1-0.5
		c-0.5,0.1-0.9,0.5-0.8,1c0,0.1,0.1,0.2,0.2,0.2c0.3-0.2,0.3-0.3,0.3-0.4c-0.1-0.4,0-0.6,0.3-0.6c0.4-0.1,0.7,0.3,0.8,0.8
		c0,0.1,0,0.2-0.1,0.3l-0.4,0.2c-0.5,0.2-0.9,0.4-0.8,1c0,0.4,0.4,0.7,0.7,0.6c0.3-0.1,0.5-0.2,0.7-0.4l0.2-0.2
		c0.1,0.2,0.3,0.4,0.5,0.3C64,54.6,64.2,54.5,64.1,54.3C64.2,54.3,64.2,54.3,64.1,54.3z M63,54.3c-0.1,0.1-0.2,0.2-0.4,0.3
		c-0.2,0.1-0.4-0.2-0.5-0.4c-0.1-0.4,0.3-0.8,0.7-0.8l0.2,0l0.1,0.9L63,54.3z"/>
	<path fill="#231F20" d="M65.5,52.7l-0.6-0.1c-0.2-0.1-0.4-0.2-0.5-0.4c0-0.3,0.2-0.5,0.4-0.5c0.7,0,0.6,0.5,0.8,0.5
		c0.1,0,0.1-0.1,0-0.2l-0.1-0.3c0-0.2-0.3-0.2-0.6-0.2c-0.5,0-0.9,0.4-0.8,0.9c0.1,0.3,0.3,0.6,0.6,0.7l0.6,0.2
		c0.2,0.1,0.4,0.2,0.4,0.5c0,0.3-0.2,0.6-0.5,0.6c-0.8,0.1-0.8-0.7-0.9-0.6c0,0-0.1,0-0.1,0.1l0.1,0.5c0.1,0.2,0.6,0.2,0.8,0.2
		c0.5-0.1,0.9-0.4,0.8-1C66.1,53.1,65.8,52.8,65.5,52.7z"/>
	<path fill="#231F20" d="M69.3,53.1l-0.2-1.1c-0.1-0.6-0.4-1.2-1.2-1.1c-0.3,0-0.5,0.3-0.7,0.6l-0.1,0.2l-0.2-1.3
		c0-0.2-0.1-0.4-0.1-0.6c0,0,0-0.1-0.1-0.1c-0.2,0-0.3,0.3-0.8,0.4c-0.1,0-0.1,0.2,0,0.2c0.3-0.1,0.3,0,0.4,0.2l0.5,3.1
		c0.1,0.4-0.3,0.3-0.2,0.5c0,0.2,0.3-0.1,0.6-0.1c0.3,0,0.7,0,0.7-0.1c-0.1-0.2-0.5,0.2-0.6-0.5l-0.2-1c-0.1-0.5,0.2-1,0.7-1.1
		c0.5-0.1,0.8,0.3,0.9,0.8l0.2,1.1c0.1,0.6-0.3,0.5-0.2,0.6c0,0.2,0.3,0,0.6-0.1c0.3,0,0.7,0,0.7-0.1C69.9,53.4,69.4,53.7,69.3,53.1
		z"/>
	<path fill="#231F20" d="M71,52.8L70.7,51c0-0.2,0-0.5-0.1-0.5c-0.1,0-0.3,0.3-0.6,0.4c-0.1,0-0.2,0-0.1,0.1c0,0.1,0.3,0,0.4,0
		c0.1,0,0.1,0.2,0.1,0.3l0.2,1.5c0.1,0.7-0.2,0.5-0.2,0.7c0,0.2,0.3,0,0.6-0.1c0.3,0,0.7,0,0.7-0.1C71.6,53.1,71.1,53.5,71,52.8z"/>
	<path fill="#231F20" d="M69.9,49.8c0,0.1,0.3,0.4,0.4,0.4c0.1,0,0.3-0.3,0.2-0.4c0-0.1-0.3-0.4-0.4-0.4
		C70.1,49.4,69.9,49.7,69.9,49.8z"/>
	<path fill="#231F20" d="M72.9,50.2c-0.8,0.1-1.3,1-1.1,1.7c0.1,0.7,0.7,1.4,1.7,1.3c0.8-0.1,1.3-0.9,1.2-1.7
		C74.5,50.6,73.8,50,72.9,50.2z M73.5,52.9c-0.6,0.1-1.2-0.5-1.3-1.4c-0.1-0.5,0.1-1.1,0.7-1.2c0.7-0.1,1.2,0.6,1.4,1.3
		C74.3,52.4,74,52.8,73.5,52.9z"/>
	<path fill="#231F20" d="M78,51.8l-0.2-1.1c-0.1-0.6-0.4-1.2-1.2-1.1c-0.4,0-0.5,0.2-0.8,0.5l-0.1,0.2c0,0,0-0.3,0-0.5
		c0,0,0-0.1-0.1-0.1c-0.2,0-0.3,0.3-0.7,0.4c-0.2,0-0.1,0.2,0,0.2c0.3-0.1,0.4,0,0.4,0.2l0.3,1.9c0,0.3-0.2,0.2-0.2,0.3
		c0,0.2,0.4,0,0.6-0.1c0.2,0,0.7,0,0.6-0.1c-0.1-0.2-0.6,0.2-0.7-0.5l-0.2-1.1c-0.1-0.5,0.2-1,0.7-1.1c0.5-0.1,0.8,0.4,0.8,0.8
		l0.2,1.2c0.1,0.5-0.2,0.3-0.2,0.5c0,0.2,0.4,0,0.6-0.1c0.2,0,0.6,0,0.6-0.1C78.5,52,78.1,52.3,78,51.8z"/>
	<path fill="#231F20" d="M14.6,46c0.1-0.1,0.2-0.1,0.2-0.2c2.1-1.5,3.7-3.5,5.3-5.5c0.8-1.1,1.5-2.1,2-3.3c0.4-0.8,0.3-1.8,0.1-2.7
		c-0.2-0.6-0.8-1-1.4-1.3c-1.3-0.5-2.7-0.5-4.1-0.1c-0.5,0.1-1,0.3-1.5,0.4l0,0c0.2-0.4,0.7-0.7,1-1.2c0.6-0.9,1.2-1.8,1.5-2.8
		c0.2-0.6,0.1-1.3-0.3-1.8c-0.7-0.4-1.6-0.5-2.4-0.4c-1.9,0.4-3.5,1.5-5.1,2.4c-2,1.4-3.9,2.8-5.6,4.6c-0.5,0.4-0.8,0.8-0.9,1.4
		c0,0.3,0,0.8,0.3,1c0.2,0.1,0.5,0.3,0.8,0.1c0.2-0.2,0.3-0.5,0.4-0.8c0-0.2,0-0.5,0.2-0.7c1.2-1.5,2.7-2.7,4.3-3.7
		c0.2-0.1,0.3-0.2,0.4-0.2c0.1,0.2-0.2,0.4-0.2,0.6l0.3,6l0.1,3.3l0.1,0.2c0.4,0.4,0.9,0.6,1.4,0.9c0.2,0.1,0.6,0.1,0.8,0
		c0-0.5-0.1-1-0.1-1.4l-0.3-4l0-1c-0.2-1.5-0.2-2.9-0.4-4.4c-0.1-0.2-0.4-0.4-0.7-0.6c-0.2-0.1,0.1-0.2,0.1-0.3
		c0.9-0.8,2-1.3,3.1-1.7c0.6-0.2,1.4-0.6,1.9-0.1c0,0.1,0.1,0.3,0,0.4c-0.2,0.5-0.4,1-0.7,1.4c-0.7,1.3-1.6,2.3-2.6,3.3
		c-0.2,0.3-0.6,0.7-0.7,1.1c-0.2,0.4-0.1,1,0.1,1.4c0.1,0.1,0.2,0.1,0.3,0.1c0.7-0.3,1.5-0.7,2.2-1c0.4-0.2,0.9-0.3,1.3-0.5
		c0.9-0.3,1.8-0.8,2.9-0.9c0.6-0.1,1.1,0,1.7,0.2c0.2,0.1,0.4,0.3,0.4,0.5c0,0.8-0.2,1.5-0.5,2.2c-0.1,0.5-0.4,0.8-0.6,1.2
		c-1.2,1.8-2.4,3.5-4,4.9c-1,0.8-2.1,2.1-3.3,2c-0.1,0-0.1-0.1-0.1-0.2c0.2-0.8,0.9-1.5,1.2-2.2c0.7-1,1.6-2.1,2.5-3
		c0.6-0.6,1.2-1.1,2-1.5l0.1,0c0.1,0.1,0.2,0,0.3-0.1c0.3-0.2,0.5-0.9,0.1-1.2c-0.2-0.1-0.4-0.3-0.7-0.4c-0.4-0.1-0.7,0.2-1,0.4
		c-1.3,1.3-2.4,2.8-3.5,4.2c-0.8,1.1-1.4,2.3-2.1,3.4c-0.4,0.8-0.9,1.5-1,2.4c0,0.3,0.3,0.5,0.5,0.7c0.7,0.4,1.8,0,2.4-0.4
		C13.6,46.6,14.1,46.3,14.6,46z"/>
	<polygon fill="#231F20" points="37.3,38.5 36.4,32.8 38.5,32.4 38,29.3 35.8,29.7 35.8,29.2 40.4,28.5 39.9,25.4 31.8,26.7 
		33.8,39.1 	"/>
	<path fill="#231F20" d="M41.5,30.8c-0.4,1.9-0.7,2.8-1.1,4.6c-0.8,3.8-0.8,4.9-1.9,4.8c-0.4,0-0.7-0.5-0.7-0.8
		c-0.1,0.5-0.8,1.6-1,2c0.4,0.2,0.6,0.4,1.3,0.3c2.9-0.5,3.6-3.1,4.5-6.5c0.5-1.6,0.7-2.9,1-4.8l1.5-0.2l0.3-0.9
		c-0.6,0.1-0.9,0.1-1.5,0.2c0.3-1.7,0.5-3.1,1.3-3.4c0.6-0.2,1.1,0.7,1.1,0.7c0.6-1.6,1.1-1.8,1-2c-0.2-0.2-0.5-0.3-1.4-0.2
		c-1.9,0.3-3.3,2-4.2,5.1l-1.3,0.2L40.2,31L41.5,30.8z"/>
	<path fill="#231F20" d="M58.1,34.3c0.1,0.5,0.3,0.9,0.8,0.8l6.7-1c0.5-0.1,0.8-0.4,0.8-0.9c-0.1-0.5-0.5-0.7-1-0.6l-5.8,0.9
		l-1.5-9.4c-0.1-0.5-0.3-0.9-1-0.8c-0.6,0.1-0.7,0.5-0.7,1.1L58.1,34.3z"/>
	<path fill="#231F20" d="M23.5,34.5l0.4,2.8c0.1,0.8,0.2,1.7,0.7,2.3c0.5,0.7,1.7,0.9,2.6,0.8c0.9-0.1,1.7-0.5,2.3-1.2l0.1,0.5
		l3.1-0.5l-0.2-1.6c-0.5-0.2-0.8-0.6-0.8-1.1l-1-6.2l-3.2,0.5l0.3,1.7c0.6,0.1,0.7,0.6,0.8,1l0.6,4.1c-0.2,0.1-0.5,0.5-1.2,0.6
		c-1,0.1-1.2-0.4-1.4-1.8l-0.5-3.5c-0.1-0.6-0.2-1.1-0.5-1.7l-3.1,0.5l0.3,1.7C23.2,33.4,23.4,34,23.5,34.5z"/>
	<path fill="#231F20" d="M46.1,29.3c0.1,0.8,1,1.1,1.6,0.9c0.7-0.2,1.3-1.2,0.7-2c-0.3-0.3-0.7-0.5-0.2-0.9c0.5-0.5,1.6-0.9,2.6-0.7
		c0.5,0.1,0.7,0.2,0.9,1c0.2,0.9,0.3,1.6,0.4,2.7c-2,0.1-6.2,1.4-5.7,4.3c0.3,2,1.6,2.4,3.1,2.1c1.4-0.2,2.4-1.2,3.2-2.3
		c0.2,0.7,1,1.6,2.2,1.4c1-0.2,1.8-0.8,2.2-1.7l-0.4-0.2c-0.1,0.2-0.5,0.6-0.8,0.7c-0.2,0-0.7,0-0.8-0.6l-1-6.1
		c-0.2-1.8-2.4-2-4.5-1.7C47.8,26.4,45.9,27.8,46.1,29.3z M52.5,33.2c-0.1,0.9-1,2-1.7,2.1c-1,0.2-1.8-0.5-2-1.6
		c-0.2-1.6,0.9-2.7,3.3-2.9L52.5,33.2z"/>
	<path fill="#231F20" d="M73.2,32.2c2.5-2,2.6-5.3,1.1-7.3c-1.9-2.4-5-2.7-7.3-1s-2.9,5-1,7.4C67.8,33.8,70.9,34,73.2,32.2z
		 M67.3,24.6c1.2-1,3-0.8,4.9,1.7c1.3,1.7,2.2,4.2,0.7,5.3c-1.5,1.1-3.1,0.5-4.8-1.8C66.3,27.4,66.2,25.5,67.3,24.6z"/>
</g>
</svg>
