<?xml version="1.0" encoding="utf-8"?>
<!-- Created by Progist Solutions on 17 July 2023  -->
<svg version="1.2" baseProfile="tiny-ps" id="Layer_1" xmlns="http://www.w3.org/2000/svg" xmlns:xlink="http://www.w3.org/1999/xlink"
	 viewBox="0 0 100 100" xml:space="preserve">
	 <title>FEDERAL BANK</title>
<path fill="#004E95" d="M23.6,43.1c-0.4-0.6-0.1-1.2,0-1.7c1.2-6.3,2.3-12.5,3.5-18.8c0.5-2.7,2.9-3.9,4.7-3.9c19,0,38,0,57,0
	c0.9,0,1.2,0.1,0.9,1.1c-0.7,3.2-1.3,6.4-2,9.5c-0.9,3.8-4.3,6.8-7.9,7.2c-2.3,0.2-4.7,0-7,0.1c-12.3,0.4-24.7,0.1-37,0.2
	c-0.4,0-0.8,0-1.2,0.1C34.6,37,34.5,37,34.3,37c-0.4,0.1-0.8,0.1-1.2,0.1c-0.5,0-1-0.1-1.4,0.2c-0.1,0.1-0.2,0.1-0.3,0.1
	c-0.8,0.2-1.5,0.4-2.2,0.7c-0.5,0.4-1.2,0.4-1.8,0.7c-0.2,0.1-0.5,0.3-0.7,0.4c-0.5,0.3-0.9,0.6-1.3,1.1c-0.7,0.7-1.5,1.4-1.7,2.5
	C23.8,43.1,23.7,43.1,23.6,43.1z"/>
<path fill="#003169" d="M39.7,55c0.6-0.1,1.4,0.1,1.8-0.3c0.2,0,0.3,0,0.5,0c0.3,0.3,0.9,0.1,1.4,0.2c0,2.3,0,2.3-4.6,2.4
	C37.7,56.1,37.9,55.7,39.7,55z"/>
<path fill="#F8A51A" d="M23.6,43.1c0.1-0.1,0.2-0.2,0.3-0.3c0.5-0.5,1-1,1.5-1.3c0.5-0.3,0.9-0.6,1.4-0.9c0.5-0.2,1-0.5,1.6-0.6
	c0.2-0.1,0.5-0.1,0.7-0.2c0.5-0.1,1-0.3,1.6-0.4c0.2,0,0.4,0,0.6,0c0.3,0,0.6,0,0.9,0.1c0.5,0.2-0.1-0.2,0.1-0.2
	c0.2-0.3,0.6-0.3,0.9-0.3c0.3,0,0.6,0,0.9,0c6.4,0,12.8,0,19.2,0c5.8,0,11.5,0,17.3,0c0.4,0,0.8,0,1.1,0.3c-0.3,1.8-0.7,3.5-1,5.3
	c-0.8,4.4-3.3,7.4-7.4,9.3c-1.7,0.8-3.5,1-5.3,1c-2.9,0.1-5.7,0.1-8.6,0c-1.9-0.1-3.8-0.2-5.7-0.1c-0.6,0.4-1.4,0.2-2,0.2
	c-0.9,0-1.8,0-2.7,0c-2.1,0-4.1,0-6.2,0c0,0.1-0.1,0.2-0.2,0.2c-0.1,0.1-0.3,0.1-0.4,0.1c-0.4,0-0.7,0-1.1,0c-0.5,0-1-0.1-1.4,0.2
	c-0.3,0.2-0.7,0.1-1,0.3c-0.2,0.1-0.5,0.1-0.7,0.2c-0.9,0.2-1.8,0.6-2.7,1c-0.7,0.3-1.4,0.7-2,1.2c-0.8,0.6-1.6,1.1-2.1,1.9
	c-0.2,0.2-0.3,0.4-0.5,0.7c-0.2,0.2-0.2,0.7-0.7,0.7c-0.4-0.7,0.1-1.3,0.2-1.9c0.3-1.9,0.7-3.9,1.1-5.8c0.6-3.1,1.2-6.2,1.7-9.3
	c0.2-0.3,0.2-0.6,0.4-0.9C23.4,43.4,23.4,43.2,23.6,43.1z"/>
<path fill="#004E95" d="M43,57.9c-0.6,3.6-1.3,7.1-1.9,10.7c-0.5,2.7-1,5.5-1.5,8.2c-0.9,5.2-5.4,8.9-10.8,8.9c-4.1,0-8.3,0-12.4,0
	c-0.8,0-1.2,0-1-1.1c1.4-6.9,2.6-13.7,3.9-20.6c0-0.2,0.1-0.3,0.2-0.5c0-0.4,0.2-0.8,0.3-1.2c-0.1-0.2,0.1-0.3,0.2-0.5
	c0.9-1.2,2.1-2.1,3.4-2.8c0.8-0.4,1.6-0.7,2.5-1c0.7-0.1,1.3-0.4,2-0.5c0.8-0.1,1.6-0.2,2.4-0.4c0.6-0.1,1.2-0.1,1.7,0
	c0.3,0,0.6,0,0.9,0c2.8,0,5.5,0,8.3,0c0.4,0,0.9,0,1.3,0C42.9,57.3,43.2,57.4,43,57.9z"/>
<path fill="#C28313" d="M71.6,39.2c-6.1,0-12.2,0-18.4,0c-0.1-0.1,0-0.2,0.1-0.3c0.7-0.3,1.4-0.1,2.1-0.2c0.5,0,1.1,0,1.6,0
	c1,0,2.1,0,3.1,0c0.4,0,0.8,0,1.3,0c0.5,0,1.1,0,1.6,0c0.8,0,1.6,0,2.4,0c1.1,0,2.3-0.1,3.4,0c0.8,0.4,1.3-0.7,2-0.4
	c0.1,0,0-0.2,0,0c0,0,0,0-0.1,0c-0.7-0.4-0.8-0.9-0.4-1.7c0.6,0,1.1-0.1,1.7,0.1C72,37.6,71.8,38.4,71.6,39.2z"/>
<path fill="#053D79" d="M35.8,57.2c1.9,0.1,3.8-0.1,5.8-0.2c0.5,0,0.7-0.2,0.6-0.6c0-1.1,0.5-0.9,1.2-0.6c-0.1,0.5,0,1-0.2,1.4
	c-0.6,0.3-1.3-0.1-1.9,0.2c-2.8,0-5.6,0-8.4,0c0-0.4,0.4-0.4,0.6-0.4c0.3,0,0.7,0,1,0C34.9,57,35.4,56.9,35.8,57.2z"/>
<path fill="#06103D" d="M23.5,59.3c-1.3,0.7-2.2,1.8-3.4,2.6c0-0.1,0-0.3,0-0.4c0.2-0.3,0.4-0.5,0.6-0.8c0.4,0,0.4-0.3,0.4-0.6
	c0.5-0.9,1.4-1.4,2.2-2C23.5,58.4,23.5,58.8,23.5,59.3z"/>
<path fill="#144E8C" d="M41.2,57.4c0.6-0.4,1.3-0.1,1.9-0.2c0,0.2,0,0.5-0.1,0.7C42.6,57,41.8,57.6,41.2,57.4z"/>
<path fill="#462A03" d="M30.6,39.6c-0.5,0.1-1.1,0.3-1.6,0.4c-0.1-0.2-0.2-0.5-0.4-0.7c0-0.1,0-0.2,0-0.2c0.4-0.2,0.4-0.7,0.6-1
	c0.7-0.5,1.5-0.8,2.4-0.7c0.4,0.2,0.4,0.7,0.6,1.1c0.1,0.1,0,0.3,0,0.5c-0.1,0.2-0.3,0.1-0.4,0.3C31.6,39.7,31,39.3,30.6,39.6z"/>
<path fill="#4E2E03" d="M30.6,39.6c0.2-0.5,0.7-0.3,1.1-0.5C31.4,39.1,31.2,39,31,39c0.3-0.2,0.5-0.1,0.8-0.1c0.5,0,0.4-0.5,0.3-0.6
	c-0.5-0.3-0.2-0.7-0.4-1c0,0,0,0,0,0c0.4-0.3,1,0,1.4-0.3c0.4,0,0.8,0,1.2,0c0.4,0.5-0.3,0.7-0.2,1.1c-0.6,0.1-0.2,0.7-0.5,1
	c-0.1,0.2-0.3,0.1-0.5,0.2c-0.3,0.1-0.6,0.1-0.9,0.2c-0.3,0.3-0.7,0-1,0.2C31,39.6,30.8,39.6,30.6,39.6z"/>
<path fill="#513101" d="M33.4,39c-0.4-1,0.8-1.3,0.8-2.1c0.1,0,0.1,0,0.2-0.1c0.1,0,0.2,0,0.2,0c0.4-0.2,0.7-0.1,1.1-0.1
	c0.5,0.2-0.3,0.6,0.1,1c0.4,0.3-0.1,0.8-0.4,1.1C35.4,39,35.3,39,35.2,39C34.6,39,34,39.1,33.4,39z"/>
<path fill="#392204" d="M28.4,40.2c-0.6,0.1-1,0.6-1.6,0.6c-0.2-0.1-0.6-0.1-0.4-0.4c0.3-0.4,0.1-0.8,0.3-1.2c0-0.4,0.3-0.4,0.6-0.4
	c0.6-0.4,1-0.4,1.2,0.4l0,0C28.6,39.6,28.3,39.8,28.4,40.2z"/>
<path fill="#2F1D09" d="M25.4,41.6c-0.5,0.4-0.8,1.1-1.6,1.2c-0.2-0.9,0.5-1.4,1-2c0.2-0.2,0.4-0.4,0.6-0.6c0.6,0.1,0.8,0.3,0.4,0.9
	C25.7,41.3,25.6,41.5,25.4,41.6z"/>
<path fill="#321F06" d="M25.4,41.6c0-0.3-0.1-0.6,0.1-0.7c0.7-0.4,0.1-0.5-0.1-0.7c0.4-0.4,0.8-0.8,1.4-1c0.1,0.4,0.5,0.9-0.2,1.3
	c-0.1,0.1,0.2,0.2,0.2,0.4C26.4,41.1,26,41.4,25.4,41.6z"/>
<path fill="#3E2507" d="M28.6,39.2c-0.3-0.5-0.7-0.6-1.2-0.4c0.4-0.7,1.2-0.5,1.8-0.8C29.4,38.6,29.3,39,28.6,39.2z"/>
<path fill="#012254" d="M32,57.4c-0.6,0-1.2,0-1.8,0c-0.4-0.3-0.9-0.6-0.9-1.2c0-0.4-0.5-0.3-0.7-0.6c0.3-0.3,0.7-0.1,1.1-0.3
	c0.4-0.2,0.9-0.1,1.3-0.3c0.4,0,0.8,0,1.2,0c0.6,0,1,0.2,0.6,1C32.5,56.5,32.5,57.1,32,57.4z"/>
<path fill="#041343" d="M23.5,59.3c-0.6-0.3-0.3-0.8-0.3-1.3c0.6-0.5,1.3-0.9,2-1.1c0.4-0.1,0.9-0.4,0.8,0.4c0,0.3,0.4,0.4,0.4,0.7
	c-0.1,0.2-0.5,0-0.6,0.3C25.1,58.7,24.3,59,23.5,59.3z"/>
<path fill="#041849" d="M25.9,58.2c-0.3-0.2,1-0.2,0-0.5c-0.3-0.1-0.2-0.3-0.1-0.5c0.3-0.7-0.3-0.4-0.6-0.5c0.9-0.5,1.9-0.8,2.9-1
	c0.2,0.1,0.3,0.3,0.3,0.5c0.1,0.4-0.3,0.5-0.6,0.5c0.4,0.3,0.3,0.7,0.1,1C27.3,58,26.6,58.2,25.9,58.2z"/>
<path fill="#011D4F" d="M27.8,57.8c-0.3-0.7,0.4-1.3,0.2-2c0.2-0.2,0.4-0.1,0.6-0.1c0.6,0,1.2-0.1,1,0.9c-0.1,0.3,0.6,0.5,0.6,0.9
	C29.4,57.7,28.7,57.8,27.8,57.8z"/>
<path fill="#BF8011" d="M69,39c-0.1-0.5-0.7-1-0.1-1.6c0.3-0.3-0.2-0.5-0.4-0.8c0.7,0,1.4,0,2.1,0c0.3,0.6-0.2,1.7,0.9,1.6
	C70.7,38,70.1,39.4,69,39z"/>
<path fill="#E2A745" d="M53.2,39.1c0,0.1,0,0.1,0,0.2c-6.5,0-13,0-19.4,0c0.4-0.6,1-0.1,1.6-0.3c0.5-0.2,1-0.2,1.5-0.2
	c4.1,0,8.1,0,12.2,0c1,0.1,2.1,0,3.1,0C52.5,38.8,52.9,38.7,53.2,39.1z"/>
<path fill="#05285A" d="M31.6,57.4c0.3-0.6,0.6-1.2,1-1.8c0.4-0.6-0.7-0.1-0.6-0.5c0.2,0,0.3,0,0.5,0c0.4-0.2,0.8-0.1,1.2-0.1
	c1.3,1.4,1.3,1.4-0.2,2.3c-0.3,0-0.6-0.1-0.8,0.2C32.3,57.4,32,57.4,31.6,57.4z"/>
<path fill="#3E2507" d="M28.4,40.2c-0.6-0.5-0.2-0.7,0.2-1c0.5,0.1,0.6,0.4,0.4,0.8C28.8,40.1,28.6,40.1,28.4,40.2z"/>
<path fill="#573601" d="M35.2,39c-0.5,0.1-1-0.1-1.4,0.2c-0.2,0-0.5,0-0.7,0c0.1-0.1,0.3-0.1,0.4-0.2c0.6-0.3,1.2-0.1,1.8-0.2
	C35.3,38.9,35.3,38.9,35.2,39C35.3,39,35.2,39,35.2,39z"/>
<path fill="#EAA83A" d="M31.2,39.6c0.3-0.2,0.7-0.2,1-0.2c0.1,0.1,0.4,0.1,0.1,0.2C32,39.7,31.5,39.6,31.2,39.6z"/>
<path fill="#0E1439" d="M21,60c0.1,0.4,0.2,0.7-0.4,0.6C20.8,60.4,20.9,60.2,21,60z"/>
<path fill="#012E64" d="M39.8,55c-1.3,0.7-1,1.5-1,2.3c-1.3,0-2.6,0-4,0c-0.1,0-0.2-0.1-0.3-0.1c-0.6-0.9-0.7-1.6,1.3-2.2
	C37.2,55,38.5,55,39.8,55z"/>
<path fill="#012E64" d="M35.8,57.2c-0.5,0-0.9,0-1.4,0c0.4-0.7,0.9-0.5,1.4-0.2c0,0,0,0,0,0C35.8,57.1,35.8,57.2,35.8,57.2z"/>
<path fill="#B87C0F" d="M66.6,36.7c0.4,0,0.8,0,1.2-0.1c0.3,0,0.5,0,0.8,0.1c0.2,0.1,0.6,0.3,0.5,0.6c-0.1,0.6,0.1,1.2-0.1,1.7
	c-1.2,0-2.4,0-3.6,0c0-0.6,0.7-0.3,0.9-0.7C66.6,37.8,66.6,37.3,66.6,36.7z"/>
<path fill="#9B6804" d="M62.7,38.6c0.3,0,0.6,0,0.9,0c0,0.1,0,0.1,0,0.2c-0.4,0-0.8,0-1.2,0c-0.6,0.3-1.3,0-1.8,0.2
	c-1.6,0-3.3,0-4.9,0c-0.1-0.1-0.1-0.2,0.1-0.3c0.3-0.1,0.6-0.2,0.9-0.2c0.2,0-0.1,0,0.1,0c0.6,0,1.1,0.1,1.6,0.1
	c-0.6-0.4,0.3-1,0.1-1.2c-0.7-0.7,0.1-0.5,0.5-0.5c0.4-0.1,0.9-0.2,1.3-0.2c0.7,0.1,1.6-0.3,2.1,0.3c0,0.3-0.6,0-0.6,0.3
	c0,0.4,0,0.8-0.4,1.1C61.8,38.4,62.3,38.3,62.7,38.6z"/>
<path fill="#8F5F01" d="M53.2,39.1c-1.4,0-2.8,0-4.2,0c0.4-0.7,1.1-0.3,1.6-0.5c0.5,0,1.1,0,1.6,0c0.5,0,1,0,1.6,0
	c0.5,0.1,1-0.1,1.5,0.2c0.1,0.1,0.2,0.2,0.1,0.3C54.7,39,53.9,39,53.2,39.1z"/>
<path fill="#AD740B" d="M63,39c0.6-0.5,1.4,0.1,2-0.4c0,0,0.1-0.1,0.1-0.1c0.5-0.2,1-0.2,1.5,0.1c-0.3,0.4-0.9,0-1.2,0.4
	C64.6,39,63.8,39,63,39z"/>
<path fill="#956302" d="M55.4,39c0-0.1,0-0.1,0-0.2c0,0,0.1-0.1,0.1-0.1c0.5-0.2,1-0.3,1.5,0.1c0,0.1,0,0.1,0,0.2
	C56.5,39,55.9,39,55.4,39z"/>
<path fill="#A16B06" d="M60.2,39c0.4-0.3,0.8-0.1,1.2-0.2c0,0.1,0,0.1,0,0.2C61,39,60.6,39,60.2,39z"/>
<path fill="#012A5F" d="M35.7,57c-0.5,0.1-1-0.2-1.4,0.2c-0.3,0-0.7,0-1,0c0.1-0.1,0.1-0.2,0.2-0.4c0.2-0.5,0.9-1,0-1.5
	c-0.1-0.1,0-0.3,0-0.5c0.9,0,1.8,0,2.7,0C35.6,55.6,35.7,56.3,35.7,57z"/>
<path fill="#7B5002" d="M50.6,38.8c-0.5,0.1-1.1-0.2-1.6,0.2c-4.6,0-9.2,0-13.8,0c0-0.1,0-0.1,0-0.2c0.1,0,0.1,0,0.2,0
	c0.5-0.4,1-0.3,1.6-0.3c0.4,0,0.8,0,1.3,0c0.9,0.1,1.8-0.1,2.7,0c0.7,0,1.3,0,2,0c0.4,0,0.8,0,1.2,0c0.5,0,1,0,1.5,0
	c0.1,0,0.2,0,0.3,0c0.4,0,0.9,0,1.3,0c0.4,0,0.6-0.3,0.6-0.7c0-0.4,0-0.8,0.3-1.1c0.4,0,0.8,0,1.2-0.1c0.4,0,0.8,0,1.2,0.1
	C50.8,37.4,50.4,38.1,50.6,38.8z"/>
<path fill="#573601" d="M37,38.8c-0.5,0-1.1,0-1.6,0c0.5-0.6,0-1.5,0.4-2.1c0.7,0,1.3,0,2,0c0,0.3,0.3,0.5,0.4,0.7
	c0.1,0.2-0.2,0.2-0.4,0.3c-0.2,0.1,0,0.1,0.1,0.2c0.1,0.2,0.1,0.4-0.1,0.6C37.6,38.7,37.3,38.6,37,38.8z"/>
<path fill="#855801" d="M53.8,38.8c-0.5,0-1.1,0-1.6,0c-0.6-0.2-0.7-0.6-0.5-1.1c0.1-0.4,0.2-0.7,0.5-1c0.5,0,1.1,0,1.6,0
	c0.4,0.5,0.5,1.1,0.7,1.7C54.7,39,54,38.5,53.8,38.8z"/>
<path fill="#956302" d="M62.9,36.9c-0.5,0.4-1.4,0.1-2.1,0.3c1.9,0.3-1.4,1.4,0.8,1.7c-1.1,0-2.2,0-3.2,0c-1.4-0.2-1.8-1-1.2-2.1
	c1.5-0.1,3,0,4.5,0.2C62,36.7,62.5,36.7,62.9,36.9z"/>
<path fill="#8A5C01" d="M53.8,38.8c0.6-0.3,0.7-0.6,0.2-1.1c-0.3-0.3-0.1-0.7-0.2-1c0.5,0,1.1,0,1.6,0c0.3,0.2,0.6,0.4,0.5,0.8
	c0,0.5-0.2,1,0.6,0.9c-0.5,0.5-0.9,0.2-1.2,0.4c0,0,0,0,0,0C54.9,38.8,54.3,38.8,53.8,38.8z"/>
<path fill="#815401" d="M52.2,36.7c0,0.3,0,0.6-0.2,0.9c-0.4,0.5-0.2,0.9,0.2,1.2c-0.5,0-1.1,0-1.6,0c-0.9-0.7-0.1-1.4,0-2.1
	C51.1,36.7,51.7,36.7,52.2,36.7z"/>
<path fill="#8F5F01" d="M55.3,38.8c0.2-0.3,0.7-0.1,1-0.3c-1.2-0.2-0.2-1.4-1-1.8c0.6,0,1.3,0,1.9,0c0.4,0.7,0,1.5,0.7,2.1
	c-0.2,0-0.5,0-0.7,0C56.6,38.8,56,38.8,55.3,38.8z"/>
<path fill="#6F4801" d="M45.8,38.8c-0.5,0-1.1,0-1.6,0c-0.1-0.1-0.2-0.3-0.2-0.4c0-0.1,0-0.2,0-0.3c0-0.5-0.1-0.9,0.3-1.3
	c0.3,0,0.7,0,1-0.1c0.3,0,0.5,0,0.8,0.1C46.8,37.2,46.7,38.2,45.8,38.8z"/>
<path fill="#5C3A02" d="M37,38.8c0.2-0.3,1.4-0.5,0-1.2c0.5-0.1,0.7-0.1,1.2-0.1c-0.7-0.1-0.6-0.4-0.4-0.8c0.5,0,1.1,0,1.6,0
	c-0.1,0.4,0.5,0.6,0.4,1.1c-0.2,1.1-1,0.8-1.6,1C37.8,38.8,37.4,38.8,37,38.8z"/>
<path fill="#A57009" d="M60.9,36.7c0.8,0,1.7,0,2.5,0c0.4,0.2,0.9-0.1,1.1,0c0.5,0.5-0.8,0.2-0.1,0.7c-1.1,0.8,0.3,0.9,0.5,1.3
	c-0.8,0.4-1.7,0-2.6,0.3c-0.7,0-1.4,0-2,0c-0.1-0.1-0.1-0.2,0-0.3c0.3-0.1,0.6,0,0.7,0c-0.1,0-0.3,0-0.5-0.2c0.6-0.2,0.5-1,1.2-1.2
	c-0.4,0-1,0.3-1.4-0.1c0-0.1,0-0.2,0.1-0.3c0.5-0.1,1,0.1,1.4,0C61.7,36.8,61.1,37.2,60.9,36.7z"/>
<path fill="#623E01" d="M38.2,38.8c0.6-0.2,1.4-0.2,1.3-1.2c0-0.3-0.6-0.5-0.1-0.9c0.5,0,1.1,0,1.6,0c0.4,0.7,0.4,1.4,0,2.1
	C40.1,38.8,39.2,38.8,38.2,38.8z"/>
<path fill="#674102" d="M41,38.8c0-0.7,0-1.4,0-2.1c0.2,0,0.4,0,0.6,0c0.6,0.1,1.1,0,1.4,0.9c0.1,0.5,0.9,0.2,1.2,0.6
	c0,0.1,0,0.1,0,0.2c-0.3,0.3-0.6,0.2-0.9,0.2c-0.2,0-0.3,0-0.3,0.2C42.3,38.8,41.7,38.8,41,38.8z"/>
<path fill="#6B4401" d="M44.2,38.2c-0.4,0-0.7,0-1.1,0c-0.3,0-0.5-0.1-0.5-0.4c0.2-0.9-0.6-0.8-1-1.1c0.9,0,1.7,0,2.6,0
	C44.2,37.2,44.2,37.7,44.2,38.2z"/>
<path fill="#AD740B" d="M65,38.7c-0.3,0-0.7,0-1.3,0c0.7-0.3,0-1,0.7-1.2c0.1,0-0.4,0-0.5-0.3c0.3,0,0.5-0.1,0.9-0.1
	c-0.3-0.3-0.7,0-0.8-0.4c0.4,0,0.8,0,1.2,0c0.6,0,0.9,0.2,1,1C66.1,38.7,65.4,38.5,65,38.7L65,38.7z"/>
<path fill="#B1770D" d="M65,38.6c0.1-0.4,0.9,0,0.7-0.7c-0.1-0.5,0-1.1-0.7-1.2c0.5,0,1.1,0,1.6,0c0.5,0.4,0.3,0.9,0.1,1.3
	c-0.1,0.2-0.1,0.4-0.1,0.6C66.1,38.6,65.5,38.6,65,38.6z"/>
<path fill="#754C02" d="M45.8,38.8c0.1-0.5,0.7-0.8,0.5-1.4c-0.1-0.3-0.1-0.5-0.3-0.7c0.7,0,1.5,0,2.2,0c0,0.4,0,0.9,0,1.3
	c0.1,0.7-0.2,0.9-0.8,0.8c-0.5-0.2-0.9-0.2-1.4,0C45.9,38.8,45.9,38.8,45.8,38.8z"/>
<path fill="#6B4401" d="M43,38.8c-0.1-0.1-0.1-0.1-0.2-0.2c-0.1-0.1,0-0.2,0.1-0.2c0.4,0,0.8,0,1.3,0c0,0.1,0,0.3,0,0.4
	C43.8,38.8,43.4,38.8,43,38.8z"/>
<path fill="#6F4801" d="M46,38.8c0.5-0.3,0.9-0.3,1.4,0C46.9,38.8,46.5,38.8,46,38.8z"/>
</svg>
