<?xml version="1.0" encoding="utf-8"?>
<!-- Generator: Adobe Illustrator 27.8.0, SVG Export Plug-In . SVG Version: 6.00 Build 0)  -->
<svg version="1.2" baseProfile="tiny-ps" id="Layer_1" xmlns="http://www.w3.org/2000/svg" xmlns:xlink="http://www.w3.org/1999/xlink"
	 viewBox="0 0 80 80" xml:space="preserve">
	 <title>SneakerCon</title>
<g>
	<path fill="#099ACF" stroke="#000000" stroke-width="0.5263" stroke-miterlimit="10" d="M69.6,20.7c13.2,1.4,9.2,15.5,0.8,13
		c0,0.1,1.1,2.8-1.8,4.3c3.2,1.1,1.7,4.6,1.6,4.7c5.9,0.8,4.7,10.4-4.3,8.2c-1.7,4.2-6.6,7.3-13.1,4.8l0,0
		c-5.3,5.9-16.4,8.8-18.5-0.9c-6.7,2.9-11.3-2-11.3-2l0,0c-7.6,7.5-21,1.4-16.7-12.8c-7.3-0.8-5.3-8.8,2.8-9
		c2.4-9.5,12.4-9.9,13.6-3.5l0.1,0c0,0,4.4-1.7,5.3,3.5c4.4-2,6.4,0,7.2,1.2c0,0,0.6-3.2,5.3-3.4c0.5-10.3,12.2-12.7,11-0.7
		c0.5-5.1,5.9-10.2,10-4.8C63.1,18.4,68,17.7,69.6,20.7z"/>
	<g>
		<path fill="#FDDD07" d="M66.9,47c-0.4-0.5-1.3,0.3-1.6,0.1c-0.6-0.4,1.8-6,0.2-7.4c-1.1-0.9-2.6-0.4-3.6,0.1c-0.6,0.3-1,0.6-1,0.6
			l-0.2,0.2c0.6,0.9,1.7,0.7,2,0.6c-0.3,0.1-1.5,0.4-2.1-0.9c-0.2-0.5,0-0.8,0.3,0.2c0,0,0.6-0.4,1.1-0.7l0-0.1c0,0-0.3-1.7-1.6-1.3
			c-1.3,0.4-1.2,1.7-0.5,2.7l-0.1,0.1c-4.1,1.7-4.8-0.4-8.3,0.8c-3.5,1.3-2.1,3.8-2.1,3.8c-0.8,1.8-0.3,3.9,0.9,5.3c0,0-1.5,2-7,3.9
			s-6.7-5.6-1.7-7.6c5.7-2.2,0.5,3.6,3.7,3.9c2.8,0.3,3.2-3.6,2.4-4.1c0,0-0.1-0.1-0.2-0.1c-0.1,0-0.2,0-0.3,0
			c-0.9,0.3-0.2,2.9-1.4,3c-1.3,0.1,2.8-6-2.8-4.5c-5.6,1.5-6.9,4.6-6.1,7.9c0.8,3.3,3.2,4.6,9.2,1.8c4.2-2,5.1-3.4,5.1-3.4
			c1.1,0.8,2.6,1.1,4.3,0.6c5.4-1.7,4.3-7.4,1-9.3c0.1,0,1.9,0,4-1l0,0c0,0-0.6,5.3-0.6,6.8c0,0.2,0.1,0.4,0.3,0.4
			c0.2,0.1,0.4,0.1,0.5,0c0.2-0.1,0.4-0.3,0.4-0.6c0.2-1.6,0.7-6.7,0.7-6.7c0,0,0.1,0,0.1,0c2,0.1,2.2-1.6,2.2-1.6
			c1.3,0.5-1.1,5.9,0.2,7.6c0.7,0.9,2.6,0,2.8-0.9c0-0.1,0-0.2,0-0.3C67,47.1,67,47,66.9,47z M55.2,51.5c-1.4,0.4-2.5,0.1-3.3-0.6
			c1-2.6-0.7-5.4-0.7-5.4c0.4-0.5,0.9-0.9,1.7-1.2C57.1,43,59.9,50,55.2,51.5z M66.5,27.1c-0.1,0.1-0.3,0.1-0.4,0.1
			c0,0,0-0.6-0.2-1.3c-0.4-1.7-3.2-1.6-2.7,0.9c0.2,1.2,0.8,1.6,1.6,1.6v0.1c0,0,0.2,6-3.6,7.1c-3.8,1.2-5.4-1.6-5.5-1.7
			c1.8-0.6,4.6-1.4,5.3-2c1.1-1-0.9-4.2-4.1-3.2c-3.2,1-2.5,4.7-2.5,4.7l0,0c-0.6,0.2-1.1,0.4-1.2,0.5c-0.4,0.3-0.9,4.9-1.4,5
			c-0.5,0.1-3.8-3.8-3.8-3.8l0,0c1.8-0.7,4.4-2.1,2.5-3.9c-2.1-2.1-3.6,3.4-3.6,3.4l0.1,0.1c-0.3,0.2-0.6,0.2-0.6,0.2
			c-0.1-0.6-0.1-1.3-0.2-2c0,0,3.8-10.8,0.1-10c-3.3,0.7-2.1,6.2-1.3,9.8l-0.6,2.7l0,0c-1,0.5-1.4,1.3-1.5,2c0,0.3,0,0.5,0,0.8
			c0.2,1,1,1.4,1,1.4c-0.3,0.9-0.6,1.7-1.1,1.7c-0.7,0.1-0.3-2,0.1-3.9c0.2-1.3,0.4-2.5,0-2.7c-2.8-1.8-6,0.5-6.5,3.2
			c-0.3,2.2,0.4,4.1,1.5,5v0c0,0-1.2,0.9-3.4,0.9c-1.7,0-2.8-0.9-3.4-2c0,0,3.8-0.8,4.5-2.1c0.6-1.3-1.1-4-4.1-3.2
			c-1.5,0.4-2.3,2.5-2,4.5c-1.7,0-1.7,5.7-2.4,5.6c-0.9-0.1,1.4-5.4,0.6-7.8c-0.5-1.7-3.8-0.3-3.8-0.3l0,0c0.2-1.5-0.3-1.8-1.4-1.6
			c-1.3,0.2-1.3,1-1.3,1c0.3,0,0.5,0,0.5,0.2c0.1,0.2,0,0.3-0.4,0.5c0.2,0.8,1.2,0,1.1,0.3c0,0,0,0.1,0,0.2l0,0l-3.8,1.3l0,0
			c-0.8-2.5-1.8-5-2.5-7.1c0,0,3.4-0.8,3.3-3c-0.1-2.2-1.9-3.9-4.2-2.6c-1.4,0.8-1.4,2.5-0.8,4.7c-0.1,0-3.6,1.3-5.1,1.7
			c-1.6,0.5-1.3,1-1.3,1c0.7-0.2,0.8-0.2,0.9,0.1c0.1,0.3-0.3,0.5-0.8,0.7c0,0,0,0.3,1.1,0s5.7-2.1,5.7-2.1c0.7,2.2,1.8,4.7,2.6,7
			l-1.1,0.3c-0.9-1.3-2.6-2-4.9-1.3c-6,1.9-2.9,13.7,5.6,9.6c2.7-1.3,2.7-4.4,1.9-7.8l3.1-1.1c-0.4,2.4-1.1,6.5-1.4,7.3
			c-0.5,1.1-1.7,0.6-1.5,1.5c0,0.1,0,0.1,0.1,0.2c0,0.1,0.1,0.2,0.2,0.2c0.6,0.4,1.9-0.5,2.4-1.1c0.5-0.7,1.3-6.2,1.7-8.9
			c0.7-0.2,2.1-0.9,2.7-0.5c0.6,0.4-1.3,7.2-0.5,8c0.8,0.8,2,0.8,2.5-0.3c0.5-1.2,0.7-4.4,1.5-4.9l0,0c0.6,1.6,2.1,2.9,4.5,3
			c3.9,0.1,5.6-1.8,5.6-1.8l0-0.1c1.1-0.2,2-0.8,2-0.9c0.2,0.1,0.4,0.1,0.6,0.2c1.4,0.1,2.1-1.4,2.4-2.9h0c1.4-0.1,1.7-1.9,1.6-4.1
			c0,0,0.1,0,0.4-0.1l0,0c0,0,3.9,5,5.2,4.7c1-0.2,1.5-5.1,1.9-5.6c0.1-0.1,0.2-0.2,0.5-0.3c0,0,1.6,4.1,6.7,2.5
			c5-1.6,4.8-8.5,4.8-8.5L66,28.3c1.3-0.4,2.8-1.4,3.4-1.4c1.2,0,1.9,1.8,1.9,1.8c0.2,0,0.3,0.1,0.4,0.1c0.2,0,0.4-0.1,0.5-0.2
			c0.2-0.2,0.2-0.4,0.2-0.4C69.9,23.8,68.6,26.3,66.5,27.1z M64.8,27.1c-0.5-0.4-0.6-1.1-0.2-1C64.7,26.1,64.9,26.6,64.8,27.1z
			 M50,32.1c0.6,0.6-0.4,1.4-1.5,2l0,0C48.5,34.1,49.2,31.4,50,32.1z M16,29.2c1.6-1.1,2.8,1.3,1.8,2.1c-0.7,0.6-1.9,0.9-1.9,0.9
			C15.5,30.8,15.4,29.7,16,29.2z M15.2,45.7c-0.8,0.3-1.5-0.1-1.6-0.8c-0.2-0.7,0.4-1.6,2.5-2.2C16.5,44,16.1,45.4,15.2,45.7z
			 M17.2,48.4c-6.1,3.8-10.5-5.6-5.1-7.2c1.6-0.5,2.7-0.2,3.3,0.4l0,0c-5.7,1.1-3.5,6.8,0.2,5.6c1.7-0.6,2.2-2.8,1.5-4.7l0.8-0.3
			C18.8,45,18.9,47.4,17.2,48.4z M30.8,40.6c-0.2-1.2,0.2-2.4,1.3-2.7c1.4-0.4,2.9,0.9,2.6,1.4C34.3,39.8,30.8,40.6,30.8,40.6z
			 M41.2,41.6c-1.2,0.8-3.7,0.9-3.4-3.1c0.2-2.8,3.6-3.3,4-2.8C42,36,40.7,39.7,41.2,41.6z M45.2,38.3L45.2,38.3
			c0.1-1.2,0.1-2.2,0.1-2.2c-0.5,0.2-0.8,0.6-0.8,0.6s-0.2,1.6-0.3,1.9c-1.1-1.3,0.5-2.2,1.1-2.5c0.2-0.1,0.3-0.1,0.3-0.1l0,0
			C45.7,37.8,45.2,38.3,45.2,38.3z M46.4,24.5c1.5-0.2-0.5,6-0.5,6C45.5,27.3,45.2,24.6,46.4,24.5z M55.7,33c0,0-0.7-2.4,1.8-3.1
			c2.5-0.7,2.9,1.4,2.3,1.7C59.3,31.9,57.4,32.5,55.7,33L55.7,33z"/>
		<g>
			<path fill="#EE2449" d="M72.2,28.4c0,0,1.2,1.4,0.6,1.6c-0.6,0.2-1.1-1.3-1.1-1.3v0C72,28.7,72.1,28.6,72.2,28.4z"/>
			<path fill="#EE2449" d="M68.8,46.4c0.2,0.5-1.7,1.1-1.8,1.1c0-0.1,0-0.2,0-0.3c0-0.1-0.1-0.1-0.1-0.2
				C66.9,47,68.6,45.8,68.8,46.4z"/>
			<path fill="#EE2449" d="M60.1,49.6c0.2,0.1,0.4,0.1,0.5,0c0,0,0,2-0.5,1.9C59.5,51.5,60.1,49.6,60.1,49.6z"/>
			<path fill="#EE2449" d="M47.4,45.9c0.5,0,0.1,1.4,0.1,1.4c0,0-0.1-0.1-0.2-0.1c-0.1,0-0.2,0-0.3,0C47.1,47.3,46.9,45.9,47.4,45.9
				z"/>
			<path fill="#EE2449" d="M21.3,38c0.3,0,0.5,0,0.5,0.2c0.1,0.2,0,0.3-0.4,0.5c-0.1,0-0.3,0.1-0.4,0.2c-0.8,0.2-1.1,0.4-1.2,0.1
				c-0.2-0.5,0.6-0.6,1-0.7C21,38.1,21.2,38,21.3,38z"/>
			<path fill="#EE2449" d="M19.5,49.8c0,0.1,0.1,0.2,0.2,0.2c0,0-1.3,0.7-1.8,0.9c-0.5,0.2-0.4-0.5-0.2-0.6c0.2-0.1,1.6-0.7,1.7-0.7
				C19.4,49.7,19.4,49.8,19.5,49.8z"/>
			<path fill="#EE2449" d="M9.1,35.4c0.1,0.3-0.3,0.5-0.8,0.7c-0.1,0-0.2,0.1-0.2,0.1c-0.5,0.2-1.1,0.4-1.2,0c-0.1-0.3,0-0.3,1-0.7
				c0.2-0.1,0.3-0.1,0.4-0.1C8.9,35.1,9,35.1,9.1,35.4z"/>
		</g>
		<path fill="#010101" d="M45.5,36l-0.1,0.2l-0.1,1.8c0,0,0.3-0.4,0.3-1.3v-0.6L45.5,36z"/>
		<path fill="#010101" d="M44.2,38.6c0-0.1-0.1-0.1-0.1-0.2c0,0,0-0.1-0.1-0.1c0,0,0,0,0-0.1c0,0-0.1-0.1-0.1-0.2c0,0,0-0.1,0-0.1
			c0-0.1-0.1-0.3,0-0.4c0,0,0-0.1,0-0.1c0,0,0,0,0,0c0,0,0-0.1,0-0.1c0,0,0,0,0,0c0,0,0-0.1,0.1-0.1c0-0.1,0.1-0.1,0.1-0.2
			c0,0,0,0,0,0c0,0,0,0,0.1-0.1c0,0,0-0.1,0.1-0.1c0,0,0,0,0.1-0.1c0,0,0.1-0.1,0.1-0.1c0,0,0,0,0,0c0.1,0,0.1-0.1,0.2-0.1
			c0,0,0,0,0.1,0c0,0,0,0,0,0c0,0,0,0,0,0c0.2-0.1,0.4-0.2,0.5-0.3c0,0,0,0,0,0c-0.4,0.2-0.8,0.5-0.8,0.5s0,0,0,0
			C44.5,36.8,44.3,38.1,44.2,38.6C44.2,38.5,44.2,38.6,44.2,38.6z"/>
		<g>
			
				<path fill="none" stroke="#010101" stroke-width="0.3491" stroke-linecap="round" stroke-linejoin="round" stroke-miterlimit="10" d="
				M15.9,32.2c0,0,1.1-0.3,1.9-0.9c1-0.8-0.2-3.3-1.8-2.1c-2.6,1.9,8.3,17.1,1.3,20.4c-8.5,4.1-11.6-7.7-5.6-9.6s7.3,6,4,7.2
				c-3.8,1.3-5.9-4.4-0.2-5.6"/>
			
				<path fill="none" stroke="#010101" stroke-width="0.3491" stroke-linecap="round" stroke-linejoin="round" stroke-miterlimit="10" d="
				M16.3,33.4c0,0,3.4-0.8,3.3-3c-0.1-2.2-1.9-3.9-4.2-2.6c-4.7,2.7,7,17.3,1.8,20.6c-6.1,3.8-10.5-5.6-5.1-7.2
				c4.7-1.5,4.8,3.8,3.1,4.5c-0.8,0.3-1.5-0.1-1.6-0.8c-0.2-0.7,0.4-1.6,2.5-2.2"/>
			
				<path fill="none" stroke="#010101" stroke-width="0.3491" stroke-linecap="round" stroke-linejoin="round" stroke-miterlimit="10" d="
				M6.8,36.1c-0.1-0.3,0-0.3,1-0.7c1-0.4,1.1-0.3,1.2,0s-0.5,0.6-1,0.7C7.6,36.3,7,36.6,6.8,36.1z"/>
			
				<path fill="none" stroke="#010101" stroke-width="0.3491" stroke-linecap="round" stroke-linejoin="round" stroke-miterlimit="10" d="
				M8.2,35.3c0,0-0.2-0.5,1.3-1c1.6-0.5,5.1-1.7,5.1-1.7"/>
			
				<path fill="none" stroke="#010101" stroke-width="0.3491" stroke-linecap="round" stroke-linejoin="round" stroke-miterlimit="10" d="
				M8.3,36.1c0,0,0,0.3,1.1,0s5.7-2.1,5.7-2.1"/>
			
				<path fill="none" stroke="#010101" stroke-width="0.3491" stroke-linecap="round" stroke-linejoin="round" stroke-miterlimit="10" d="
				M19.8,38.9c0.1,0.3,0.5,0.2,1.2-0.1c0.8-0.2,0.9-0.4,0.8-0.6c-0.1-0.3-0.6-0.2-1,0C20.4,38.3,19.7,38.4,19.8,38.9z"/>
			
				<path fill="none" stroke="#010101" stroke-width="0.3491" stroke-linecap="round" stroke-linejoin="round" stroke-miterlimit="10" d="
				M21.3,38c0,0,0-0.8,1.3-1c1.3-0.2,1.7,0.1,1.3,2.3s-1.2,8.9-1.8,9.7s-2.2,1.7-2.6,0.9c-0.5-1.1,0.9-0.6,1.4-1.7
				c0.5-1.1,1.7-8.6,1.7-9.1c0-0.4-0.9,0.5-1.1-0.3"/>
			
				<path fill="none" stroke="#010101" stroke-width="0.3491" stroke-linecap="round" stroke-linejoin="round" stroke-miterlimit="10" d="
				M19.4,49.6c0,0-1.4,0.6-1.7,0.7c-0.3,0.1-0.3,0.8,0.2,0.6s1.8-0.9,1.8-0.9"/>
			
				<path fill="none" stroke="#010101" stroke-width="0.3491" stroke-linecap="round" stroke-linejoin="round" stroke-miterlimit="10" d="
				M30.8,40.6c0,0,3.5-0.8,3.9-1.3c0.4-0.5-1.2-1.8-2.6-1.4c-2.4,0.8-1.6,5.9,2.6,6C36.8,43.9,38,43,38,43"/>
			
				<path fill="none" stroke="#010101" stroke-width="0.3491" stroke-linecap="round" stroke-linejoin="round" stroke-miterlimit="10" d="
				M31.2,41.9c0,0,3.8-0.8,4.5-2.1c0.6-1.3-1.1-4-4.1-3.2s-3.2,8.5,2.8,8.7c3.9,0.1,5.6-1.8,5.6-1.8"/>
			
				<path fill="none" stroke="#010101" stroke-width="0.3491" stroke-linecap="round" stroke-linejoin="round" stroke-miterlimit="10" d="
				M23.7,40c0.7-0.2,2.1-0.9,2.7-0.5c0.6,0.4-1.3,7.2-0.5,8c0.8,0.8,2,0.8,2.5-0.3s0.7-4.4,1.5-4.9"/>
			
				<path fill="none" stroke="#010101" stroke-width="0.3491" stroke-linecap="round" stroke-linejoin="round" stroke-miterlimit="10" d="
				M24,38.5c0,0,3.2-1.3,3.8,0.3c0.8,2.5-1.5,7.8-0.6,7.8c0.7,0.1,0.7-5.6,2.4-5.6"/>
			
				<path fill="none" stroke="#010101" stroke-width="0.3491" stroke-linecap="round" stroke-linejoin="round" stroke-miterlimit="10" d="
				M41.2,41.6c-1.2,0.8-3.7,0.9-3.4-3.1c0.2-2.8,3.6-3.3,4-2.8c0.3,0.5-2.2,6.9,0.8,7.1c3,0.2,2.8-6.6,2.8-6.6"/>
			
				<path fill="none" stroke="#010101" stroke-width="0.3491" stroke-linecap="round" stroke-linejoin="round" stroke-miterlimit="10" d="
				M42,42.5c0,0-1.6,1.3-3.2,0.8c-1.6-0.5-2.6-2.7-2.2-5.4c0.4-2.7,3.7-5,6.5-3.2c0.8,0.5-1.2,6.7-0.1,6.6c1.2-0.1,1.6-4.8,1.6-4.8"
				/>
			
				<path fill="none" stroke="#010101" stroke-width="0.3491" stroke-linecap="round" stroke-linejoin="round" stroke-miterlimit="10" d="
				M45.2,38.3c0,0,0.6-0.7,0.2-3.6c-0.5-3.2-3-10.8,1-11.6c3.7-0.8-0.1,10-0.1,10"/>
			
				<path fill="none" stroke="#010101" stroke-width="0.3491" stroke-linecap="round" stroke-linejoin="round" stroke-miterlimit="10" d="
				M46,30.4c0,0,2-6.2,0.5-6c-3,0.4,2.9,14.9-1.4,15.3"/>
			
				<path fill="none" stroke="#010101" stroke-width="0.3491" stroke-linecap="round" stroke-linejoin="round" stroke-miterlimit="10" d="
				M45.6,36c0,0-2.7,1-1.4,2.6"/>
			
				<path fill="none" stroke="#010101" stroke-width="0.3491" stroke-linecap="round" stroke-linejoin="round" stroke-miterlimit="10" d="
				M44,39.7c0,0-0.8-0.4-1-1.4c-0.2-1,0.3-2.5,2.5-3.1"/>
			
				<path fill="none" stroke="#010101" stroke-width="0.3491" stroke-linecap="round" stroke-linejoin="round" stroke-miterlimit="10" d="
				M46.6,35c0,0,4.5-1.8,3.4-2.9c-0.8-0.7-1.5,2-1.5,2"/>
			
				<path fill="none" stroke="#010101" stroke-width="0.3491" stroke-linecap="round" stroke-linejoin="round" stroke-miterlimit="10" d="
				M46.6,35.7c0,0,6.7-1.7,4-4.4c-2.1-2.1-3.6,3.4-3.6,3.4l0,0.1"/>
			
				<line fill="none" stroke="#010101" stroke-width="0.3491" stroke-linecap="round" stroke-linejoin="round" stroke-miterlimit="10" x1="44.5" y1="35.6" x2="45.1" y2="32.9"/>
			
				<path fill="none" stroke="#010101" stroke-width="0.3491" stroke-linecap="round" stroke-linejoin="round" stroke-miterlimit="10" d="
				M55.7,33c0,0-0.7-2.4,1.8-3.1c2.5-0.7,2.9,1.4,2.3,1.7c-0.6,0.3-6,2-6.4,2.3s-0.9,4.9-1.4,5c-0.5,0.1-3.8-3.8-3.8-3.8"/>
			
				<path fill="none" stroke="#010101" stroke-width="0.3491" stroke-linecap="round" stroke-linejoin="round" stroke-miterlimit="10" d="
				M54.4,33.5c0,0-0.7-3.7,2.5-4.7c3.2-1,5.2,2.2,4.1,3.2c-1.1,1-6.6,2.2-6.9,2.7s-0.8,5.3-1.9,5.6c-1.3,0.3-5.2-4.7-5.2-4.7"/>
			
				<path fill="none" stroke="#010101" stroke-width="0.3491" stroke-linecap="round" stroke-linejoin="round" stroke-miterlimit="10" d="
				M55.7,34c0,0,1.6,2.9,5.5,1.7c3.8-1.2,3.6-7.1,3.6-7.1l0-0.1"/>
			
				<path fill="none" stroke="#010101" stroke-width="0.3491" stroke-linecap="round" stroke-linejoin="round" stroke-miterlimit="10" d="
				M54.6,34.4c0,0,1.6,4.1,6.7,2.5c5-1.6,4.8-8.5,4.8-8.5l0-0.2"/>
			
				<path fill="none" stroke="#010101" stroke-width="0.3491" stroke-linecap="round" stroke-linejoin="round" stroke-miterlimit="10" d="
				M64.8,27.1c0.1-0.6-0.1-1-0.2-1c-0.6-0.2-0.2,1.9,1.9,1c2.1-0.9,3.4-3.3,5.9,0.9c0,0-0.1,0.9-1.1,0.6c0,0-0.7-1.9-1.9-1.8
				c-1.2,0-5.4,3.6-6.1,0.1c-0.5-2.4,2.3-2.6,2.7-0.9c0.2,0.7,0.2,1.3,0.2,1.3"/>
			
				<path fill="none" stroke="#010101" stroke-width="0.3491" stroke-linecap="round" stroke-linejoin="round" stroke-miterlimit="10" d="
				M71.7,28.7c0,0,0.5,1.5,1.1,1.3c0.6-0.2-0.6-1.6-0.6-1.6"/>
			
				<line fill="none" stroke="#010101" stroke-width="0.3491" stroke-linecap="round" stroke-linejoin="round" stroke-miterlimit="10" x1="16.6" y1="41.3" x2="17.6" y2="40.9"/>
			
				<line fill="none" stroke="#010101" stroke-width="0.3491" stroke-linecap="round" stroke-linejoin="round" stroke-miterlimit="10" x1="17.2" y1="42.5" x2="18" y2="42.3"/>
			
				<line fill="none" stroke="#010101" stroke-width="0.3491" stroke-linecap="round" stroke-linejoin="round" stroke-miterlimit="10" x1="19.2" y1="41.9" x2="22.3" y2="40.8"/>
			
				<line fill="none" stroke="#010101" stroke-width="0.3491" stroke-linecap="round" stroke-linejoin="round" stroke-miterlimit="10" x1="18.8" y1="40.5" x2="22.6" y2="39.2"/>
			
				<path fill="none" stroke="#010101" stroke-width="0.3491" stroke-linecap="round" stroke-linejoin="round" stroke-miterlimit="10" d="
				M51.2,52.1c0,0-0.9,1.4-5.1,3.4c-6,2.8-8.4,1.5-9.2-1.8c-0.8-3.3,0.5-6.4,6.1-7.9c5.6-1.5,1.5,4.6,2.8,4.5c1.3-0.1,0.4-3.1,1.6-3
				c1,0.1,0.8,4.5-2.2,4.2c-3.1-0.3,2-6.1-3.7-3.9c-5,1.9-3.8,9.6,1.7,7.6c5.5-2,7-3.9,7-3.9"/>
			
				<path fill="none" stroke="#010101" stroke-width="0.3491" stroke-linecap="round" stroke-linejoin="round" stroke-miterlimit="10" d="
				M52.8,44.3c4.3-1.3,7.1,5.7,2.4,7.2C50.4,53,48.6,45.5,52.8,44.3z"/>
			
				<path fill="none" stroke="#010101" stroke-width="0.3491" stroke-linecap="round" stroke-linejoin="round" stroke-miterlimit="10" d="
				M52.7,43c5.6-1.7,9.9,7.4,2.7,9.7C49.3,54.7,45.8,45.1,52.7,43z"/>
			
				<path fill="none" stroke="#010101" stroke-width="0.3491" stroke-linecap="round" stroke-linejoin="round" stroke-miterlimit="10" d="
				M49.3,45.8c0,0-1.4-2.6,2.1-3.8c3.6-1.3,4.2,1,8.4-0.9"/>
			
				<path fill="none" stroke="#010101" stroke-width="0.3491" stroke-linecap="round" stroke-linejoin="round" stroke-miterlimit="10" d="
				M51.1,45.4c0,0,1.7,2.8,0.7,5.4"/>
			
				<path fill="none" stroke="#010101" stroke-width="0.3491" stroke-linecap="round" stroke-linejoin="round" stroke-miterlimit="10" d="
				M56.4,43.4c0,0,2.2,0,4.6-1.3"/>
			
				<path fill="none" stroke="#010101" stroke-width="0.3491" stroke-linecap="round" stroke-linejoin="round" stroke-miterlimit="10" d="
				M60.7,40.6c0,0,3.1-2.3,4.8-0.9c1.7,1.4-0.8,7-0.2,7.4c0.4,0.2,1.3-0.8,1.7,0.1c0.4,0.9-2,2.3-2.7,1.2c-1.5-2.1,2.2-9.5-1.5-7.2"
				/>
			
				<path fill="none" stroke="#010101" stroke-width="0.3491" stroke-linecap="round" stroke-linejoin="round" stroke-miterlimit="10" d="
				M64.1,40.8c0,0-0.2,1.8-2.2,1.6c-2-0.1-3.8-3.2-1.6-3.9c1.3-0.4,1.6,1.4,1.6,1.4"/>
			
				<path fill="none" stroke="#010101" stroke-width="0.3491" stroke-linecap="round" stroke-linejoin="round" stroke-miterlimit="10" d="
				M62.8,41.2c0,0-1.5,0.7-2.2-0.9c-0.3-0.6,0-0.8,0.3,0.2"/>
			
				<path fill="none" stroke="#010101" stroke-width="0.3491" stroke-linecap="round" stroke-linejoin="round" stroke-miterlimit="10" d="
				M60.4,42.4c0,0-0.6,5.3-0.6,6.8c0,0.7,1.2,0.7,1.2-0.1c0.2-1.6,0.7-6.7,0.7-6.7"/>
			
				<path fill="none" stroke="#010101" stroke-width="0.3491" stroke-linecap="round" stroke-linejoin="round" stroke-miterlimit="10" d="
				M47.1,47.3c0,0-0.2-1.4,0.3-1.4c0.5,0,0.2,1.4,0.2,1.4"/>
			
				<path fill="none" stroke="#010101" stroke-width="0.3491" stroke-linecap="round" stroke-linejoin="round" stroke-miterlimit="10" d="
				M60.1,49.6c0,0-0.5,1.9,0,1.9s0.5-1.9,0.5-1.9"/>
			
				<path fill="none" stroke="#010101" stroke-width="0.3491" stroke-linecap="round" stroke-linejoin="round" stroke-miterlimit="10" d="
				M66.9,47c0,0,1.7-1.2,1.9-0.6c0.2,0.6-1.8,1.1-1.8,1.1"/>
		</g>
	</g>
	<path fill="none" d="M69.6,20.7c13.2,1.4,9.2,15.5,0.8,13c0,0.1,1.1,2.8-1.8,4.3c3.2,1.1,1.7,4.6,1.6,4.7c5.9,0.8,4.7,10.4-4.3,8.2
		c-1.7,4.2-6.6,7.3-13.1,4.8l0,0c-5.3,5.9-16.4,8.8-18.5-0.9c-6.7,2.9-11.3-2-11.3-2l0,0c-7.6,7.5-21,1.4-16.7-12.8
		c-7.3-0.8-5.3-8.8,2.8-9c2.4-9.5,12.4-9.9,13.6-3.5l0.1,0c0,0,4.4-1.7,5.3,3.5c4.4-2,6.4,0,7.2,1.2c0,0,0.6-3.2,5.3-3.4
		c0.5-10.3,12.2-12.7,11-0.7c0.5-5.1,5.9-10.2,10-4.8C63.1,18.4,68,17.7,69.6,20.7z"/>
</g>
</svg>
