<?xml version="1.0" encoding="utf-8"?>
<!-- Generator: Adobe Illustrator 27.6.1, SVG Export Plug-In . SVG Version: 6.00 Build 0)  -->
<svg version="1.2" baseProfile="tiny-ps" id="Layer_1" xmlns="http://www.w3.org/2000/svg" xmlns:xlink="http://www.w3.org/1999/xlink"
	  viewBox="0 0 1080 1080"  xml:space="preserve">
	 <title>Nekter Juice Bar</title>
<g>
	<path fill="#41C2CF" d="M1061.73,542.32c0,1.37-0.09,2.65-0.09,4.02c-2.07,285.48-235.19,515.39-521.47,515.39h-4.04
		c-143.4-1.11-272.87-59.6-366.46-153.53c-93.68-93.85-151.4-223.14-151.4-365.63c0-1.37,0-2.65,0.09-3.94
		C20.42,253.16,253.63,23.25,539.91,23.25h3.96c143.4,1.03,272.87,59.51,366.46,153.44
		C1004.01,270.63,1061.73,399.84,1061.73,542.32z"/>
	<g>
		<g>
			<g>
				<path fill="#FFFFFF" d="M171.58,494.33c13.63-15.3,28.94-22.95,45.96-22.95c34.7,0,52.06,18.81,52.06,56.44v100.16h-27.4v-99.01
					c0-12.51-2.24-21.5-6.75-26.99c-4.49-5.48-11.87-8.23-22.12-8.23c-13.92,0-27.83,8.18-41.75,24.54v109.69h-27.41V474.85h27.41
					V494.33z"/>
				<path fill="#FFFFFF" d="M374.72,631.59c-22.63,0-40.8-7.05-54.52-21.15c-13.73-14.09-20.59-33.75-20.59-58.96
					c0-25.02,6.65-44.62,19.93-58.81c13.29-14.19,30.67-21.29,52.13-21.29c21.95,0,39.46,6.98,52.57,20.93
					c13.1,13.95,19.64,33.68,19.64,59.18v6.49H328.03c1.15,17.71,6.06,30.84,14.71,39.41c8.65,8.56,19.31,12.84,31.98,12.84
					c9.57,0,18.19-2.43,25.88-7.29c7.68-4.86,11.72-11.76,12.1-20.72h28.27c-2.12,15.78-9.3,27.96-21.53,36.52
					C407.22,627.31,392.31,631.59,374.72,631.59z M415.03,536.62c-2.22-14.72-7.21-25.74-14.93-33.06
					c-7.74-7.31-17.2-10.97-28.42-10.97c-10.92,0-20.29,3.63-28.12,10.89c-7.83,7.27-12.82,18.31-14.93,33.13H415.03z
					 M408.93,412.78l-32.05,40.56h-21.45l19.28-40.56H408.93z"/>
				<path fill="#FFFFFF" d="M601.65,627.98h-32.63L519,550.19l-17.11,16.88v60.91h-27.41V416.39h27.41v119.94l59.3-61.49h34.51
					l-58.3,57.01L601.65,627.98z"/>
				<path fill="#FFFFFF" d="M682.69,628.27c-5.99,1.16-12.52,1.74-19.57,1.74c-11.21,0-19.42-2-24.65-5.99
					c-5.22-4-8.46-9.12-9.72-15.37c-1.25-6.25-1.88-14.76-1.88-25.55v-86.89h-18.99v-21.36h18.99v-38.11h27.25v38.11h24.94v21.36
					h-24.94v88.33c0,10.48,1.33,17.15,3.99,19.99c2.65,2.84,6.3,4.25,10.94,4.25c4.74,0,9.28-0.39,13.63-1.16V628.27z"/>
				<path fill="#FFFFFF" d="M943.12,499.67c-3.87-1.15-9.43-1.73-16.68-1.73c-13.92,0-25.86,7.27-35.81,21.79v108.25h-27.41V474.85
					h27.41v21.36c11.5-16.55,24.84-24.83,40.02-24.83c3.87,0,8.03,0.39,12.47,1.16V499.67z"/>
				<g>
					<path fill="#FFFFFF" d="M766.85,474.8c21.91,0,39.52,6.83,52.81,20.49c13.3,13.65,19.94,32.69,19.94,57.12
						c0,24.22-6.43,43.22-19.3,56.97C807.43,623.12,790.6,630,769.81,630c-21.26,0-38.24-6.76-50.92-20.27
						c-12.69-13.52-19.04-32.63-19.04-57.32v-6.3h112.23c-1.13-17.15-5.88-29.87-14.25-38.17c-8.38-8.3-18.71-12.44-30.97-12.44
						c-9.28,0-17.63,2.35-25.08,7.06c-7.44,4.71-11.35,11.4-11.72,20.06h-27.39c2.06-15.29,9.01-27.08,20.86-35.37
						C735.37,478.95,749.8,474.8,766.85,474.8z M727.8,566.8c2.16,14.27,6.98,24.94,14.47,32.03c7.5,7.08,16.67,10.62,27.53,10.62
						c10.58,0,19.66-3.51,27.24-10.55c7.59-7.04,12.41-17.73,14.47-32.09H727.8z"/>
				</g>
			</g>
			<g>
				<path fill="#FFFFFF" d="M337.58,714.19c0,10.83-5.46,17.56-14.25,17.56c-7.09,0-11.82-2.96-16.89-10.56l-0.46-0.69l-7.32,6.27
					l0.32,0.53c5.62,9.19,13.77,13.85,24.23,13.85c6.96,0,12.96-2.25,17.36-6.53c4.72-4.69,7.21-11.79,7.21-20.54v-51.66h-10.2
					V714.19z"/>
				<path fill="#FFFFFF" d="M420.64,707.44c0,15.51-8.14,24.41-22.33,24.41c-14.4,0-22.66-9.1-22.66-24.95v-44.47h-10.08v45.01
					c0,21.17,12.16,33.81,32.53,33.81c20.45,0,32.65-12.88,32.65-34.46v-44.36h-10.11V707.44z"/>
				<rect x="450.52" y="662.42" fill="#FFFFFF" width="10.08" height="77.63"/>
				<path fill="#FFFFFF" d="M541.69,721.16c-6.82,6.48-13.54,10.79-24.19,10.79c-16.21,0-28.9-13.49-28.9-30.71v-0.21
					c0-17.4,12.43-30.52,28.9-30.52c8.89,0,15.93,3.06,23.54,10.25l0.54,0.51l6.9-7.38l-0.53-0.5
					c-6.79-6.38-15.17-12.28-30.37-12.28c-22.1,0-39.42,17.62-39.42,40.12v0.22c0,22.74,16.81,39.9,39.09,39.9
					c15.57,0,24.48-6.87,31.14-13.6l0.51-0.52l-6.72-6.56L541.69,721.16z"/>
				<polygon fill="#FFFFFF" points="572.34,705.55 614.11,705.55 614.11,696.27 572.34,696.27 572.34,671.72 619.02,671.72 
					619.02,662.42 562.25,662.42 562.25,740.05 619.56,740.05 619.56,730.77 572.34,730.77 				"/>
				<path fill="#FFFFFF" d="M716.12,699.81c5.31-2.76,10.89-7.93,10.89-17.5v-0.22c0-4.91-1.72-9.18-5.14-12.71
					c-4.71-4.55-11.81-6.95-20.52-6.95h-33.32v77.63h34.75c17.57,0,28.48-8.24,28.48-21.5v-0.23
					C731.26,709.51,726.17,703.29,716.12,699.81z M721.05,718c0,8.06-6.76,12.87-18.08,12.87h-24.94v-25.43h23.42
					c12.64,0,19.6,4.38,19.6,12.33V718z M700.57,671.61c10.15,0,16.22,4.36,16.22,11.67v0.23c0,8.06-6.31,12.87-16.88,12.87h-21.88
					v-24.77H700.57z"/>
				<path fill="#FFFFFF" d="M775.52,661.88l-35.04,77.15l-0.46,1.03h10.46l9.07-20.13h40.68l8.99,20.13h10.89l-35.53-78.18H775.52z
					 M796.2,710.73h-32.62l16.37-36.32L796.2,710.73z"/>
				<path fill="#FFFFFF" d="M875.4,708.71c12.86-2.73,20.2-10.96,20.2-22.71v-0.22c0-6.07-2.17-11.59-6.12-15.53
					c-5.06-5.05-12.97-7.83-22.26-7.83h-33.64v77.63h10.1v-29.59h20.79l21.96,29.3l0.22,0.29h12.43L875.4,708.71z M843.67,671.83
					h22.89c11.78,0,18.82,5.34,18.82,14.28v0.22c0,9.08-7.43,14.94-18.93,14.94h-22.78V671.83z"/>
			</g>
			<g>
				<path fill="#FFFFFF" d="M939.24,712.35c-3.12-3.14-7.31-4.86-11.8-4.86c-9.2,0-16.69,7.45-16.69,16.62c0,4.4,1.7,8.55,4.8,11.65
					c3.12,3.14,7.31,4.87,11.8,4.87c9.2,0,16.69-7.45,16.69-16.62C944.04,719.6,942.34,715.46,939.24,712.35z M942.15,724.01
					c0,8.31-6.5,14.82-14.8,14.82c-8.25,0-14.71-6.47-14.71-14.72c0-8.31,6.5-14.82,14.8-14.82
					C935.69,709.29,942.15,715.75,942.15,724.01z"/>
				<path fill="#FFFFFF" d="M935.21,720.46c0-3.45-2.59-5.59-6.76-5.59h-7.81v17.42h3.45v-5.97h3.49l4.19,5.93l0.02,0.03h4.12
					l-4.69-6.55C933.8,724.97,935.21,723.09,935.21,720.46z M931.66,720.64c0,1.67-1.25,2.66-3.35,2.66h-4.22v-5.32h4.22
					C930.45,717.98,931.66,718.95,931.66,720.64z"/>
			</g>
		</g>
		<path fill="#FFFFFF" d="M540,4.97C242.25,4.97,0,246.1,0,542.49S242.25,1080,540,1080c297.75,0,540-241.13,540-537.51
			S837.76,4.97,540,4.97z M540,1061.72c-287.64,0-521.64-232.93-521.64-519.24S252.37,23.25,540,23.25
			c287.63,0,521.64,232.93,521.64,519.24S827.63,1061.72,540,1061.72z"/>
		<g>
			<path fill="#FFFFFF" d="M540,1038.14c-274.57,0-497.95-222.35-497.95-495.66C42.05,269.18,265.43,46.83,540,46.83
				c274.57,0,497.94,222.35,497.94,495.65C1037.95,815.79,814.58,1038.14,540,1038.14z M540,50.91
				c-272.31,0-493.86,220.52-493.86,491.57c0,271.06,221.54,491.58,493.86,491.58c272.31,0,493.85-220.52,493.85-491.58
				C1033.85,271.43,812.31,50.91,540,50.91z"/>
		</g>
		<g>
			<path fill="#FFFFFF" d="M163.22,300.79l2.64-3.78L196,317.85l13.16-18.86l3.51,2.43l-15.79,22.64L163.22,300.79z"/>
			<path fill="#FFFFFF" d="M191.32,262.78l2.94-3.56l31.67,25.9l-2.94,3.56L191.32,262.78z"/>
			<path fill="#FFFFFF" d="M206.92,244.03l3.61-3.66l35.4,14.31l-14.9-35.05l3.49-3.53l17.06,41.33l-2.87,2.91L206.92,244.03z"/>
			<path fill="#FFFFFF" d="M249.94,202.65l23.11-18.5l2.64,3.27l-19.5,15.61l8.78,10.86l17.44-13.97l2.65,3.27l-17.44,13.97
				l8.99,11.13l19.72-15.8l2.65,3.27l-23.33,18.68L249.94,202.65z"/>
			<path fill="#FFFFFF" d="M325.34,155.6l-12.02,6.66l-2.08-3.72l28.15-15.6l2.08,3.72l-12.03,6.66l17.86,31.95l-4.09,2.27
				L325.34,155.6z"/>
			<path fill="#FFFFFF" d="M358.09,133.93l4.28-1.76l6.96,16.76l21.87-8.99l-6.94-16.76l4.28-1.75l15.65,37.72l-4.28,1.76
				l-7.04-16.98l-21.88,8.99l7.04,16.98l-4.28,1.76L358.09,133.93z"/>
			<path fill="#FFFFFF" d="M412.07,113.62l28.55-7.83l1.12,4.05l-24.1,6.6l3.72,13.42l21.56-5.91l1.12,4.04l-21.55,5.92l3.81,13.76
				l24.37-6.68l1.12,4.04l-28.83,7.91L412.07,113.62z"/>
			<path fill="#FFFFFF" d="M489.39,96.93l4.32-0.36l28.48,30.47l-2.73-32.61l4.5-0.37l3.41,40.69l-3.68,0.31l-29.19-31.18l2.8,33.37
				l-4.5,0.37L489.39,96.93z"/>
			<path fill="#FFFFFF" d="M548.93,93.81l29.61,1.29l-0.18,4.2l-24.99-1.09l-0.62,13.92l22.36,0.98l-0.18,4.19l-22.36-0.97
				l-0.62,14.27l25.28,1.1l-0.18,4.2l-29.9-1.3L548.93,93.81z M568.25,83.51l4.53,2.3l-6.97,5.12l-3.75-0.16L568.25,83.51z"/>
			<path fill="#FFFFFF" d="M600.14,97.39l4.56,0.74l-3.95,24.03l27.16-20.26l5.89,0.96l-20.22,14.77l14.37,25.59l-5.72-0.93
				l-12.34-22.02l-10.04,7.29l-1.77,10.81l-4.55-0.74L600.14,97.39z"/>
			<path fill="#FFFFFF" d="M664.39,115.08l-13.22-3.82l1.18-4.09l30.94,8.94l-1.18,4.09l-13.23-3.82l-10.24,35.11l-4.5-1.3
				L664.39,115.08z"/>
			<path fill="#FFFFFF" d="M702.87,123.07l27.36,11.4l-1.63,3.88l-23.08-9.62l-5.42,12.86l20.66,8.61l-1.63,3.88l-20.66-8.61
				l-5.54,13.19l23.37,9.73l-1.63,3.87l-27.64-11.51L702.87,123.07z"/>
			<path fill="#FFFFFF" d="M749.86,144.07l15.33,8.66c4.38,2.47,7.16,5.78,8.12,9.28c0.75,2.7,0.36,5.77-1.24,8.55l-0.06,0.11
				c-3.35,5.89-9.4,7.03-15.58,4.89l2.69,20.7l-4.94-2.8l-2.49-19.64l-10.19-5.75l-7.86,13.8l-4.03-2.28L749.86,144.07z
				 M754.52,170.64c5.35,3.02,10.74,2.44,13.34-2.13l0.06-0.1c2.49-4.37,0.62-8.9-5.14-12.16l-11.01-6.21l-8.21,14.41L754.52,170.64
				z"/>
			<path fill="#FFFFFF" d="M818.52,188.31l3.56,2.94l-23.46,28.14l17.77,14.68l-2.73,3.27l-21.33-17.62L818.52,188.31z"/>
			<path fill="#FFFFFF" d="M854.17,219.61l3.31,3.23l-28.7,29.1l-3.29-3.23L854.17,219.61z"/>
			<path fill="#FFFFFF" d="M874.06,239.78l19.14,22.27l-3.24,2.77l-16.15-18.77l-11.12,9.47l14.43,16.78l-3.21,2.73l-14.43-16.78
				l-13.57,11.56l-3.01-3.5L874.06,239.78z"/>
			<path fill="#FFFFFF" d="M905.85,278.71l16.65,24.42l-3.49,2.36l-14.05-20.61l-11.58,7.83l12.57,18.44l-3.49,2.36l-12.57-18.44
				L878,303.09l14.21,20.85l-3.49,2.36l-16.82-24.66L905.85,278.71z"/>
		</g>
		<g>
			<path fill="#FFFFFF" d="M387.32,921.83l28.13,9.34l-1.34,3.99l-23.74-7.87l-4.43,13.22l21.23,7.05l-1.33,3.99l-21.23-7.05
				l-4.55,13.55l24.02,7.97l-1.33,3.99l-28.41-9.43L387.32,921.83z"/>
			<path fill="#FFFFFF" d="M421.61,968.99l3.52-2.7c3.36,4.67,6.95,7.41,12.5,8.62c5.38,1.17,9.55-0.91,10.41-4.83l0.03-0.12
				c0.81-3.7-0.73-6.24-8.75-9.84c-8.77-4-12.36-7.87-10.92-14.42l0.02-0.11c1.38-6.26,7.94-9.67,15.55-8.01
				c5.83,1.26,9.65,3.82,13,7.95l-3.39,2.9c-3.05-3.83-6.49-5.94-10.6-6.84c-5.21-1.13-9.15,0.99-9.94,4.58l-0.02,0.11
				c-0.82,3.76,0.77,6.31,9.17,10.11c8.5,3.87,11.91,8.02,10.57,14.11l-0.02,0.11c-1.5,6.83-8.2,10.03-16.15,8.3
				C430.21,977.54,425.47,974.3,421.61,968.99z"/>
			<path fill="#FFFFFF" d="M485.76,949.37l-13.69-1.48l0.46-4.24l32.05,3.48l-0.46,4.24l-13.69-1.49l-3.99,36.36l-4.66-0.5
				L485.76,949.37z"/>
			<path fill="#FFFFFF" d="M543.37,985.34l14.18-13.81c5.98-5.92,8.09-9.18,7.88-13.26c-0.25-4.78-4.21-7.61-8.66-7.38
				c-4.68,0.24-7.6,2.85-10.64,7.55l-3.52-2.27c3.4-5.66,7.09-9.06,14.29-9.44c7.37-0.38,12.96,4.24,13.3,10.89l0.01,0.11
				c0.3,5.94-2.67,9.77-9.54,16.38l-10.44,10.23l21.72-1.12l0.22,4.19l-28.62,1.48L543.37,985.34z"/>
			<path fill="#FFFFFF" d="M587.2,965.66l-0.02-0.12c-1.81-11.28,3.41-21.92,13.83-23.58c10.41-1.66,18.53,6.73,20.34,18.02
				l0.02,0.11c1.81,11.29-3.36,21.91-13.76,23.58C597.14,985.33,589.02,976.94,587.2,965.66z M616.65,960.96l-0.02-0.11
				c-1.42-8.81-7.55-15.92-15.07-14.72c-7.58,1.21-11.08,9.68-9.65,18.55l0.01,0.11c1.42,8.81,7.55,15.92,15.13,14.71
				C614.63,978.29,618.07,969.77,616.65,960.96z"/>
			<path fill="#FFFFFF" d="M639.32,939.36l-6.9,4.21l-2-3.35l8.86-5.78l3.29-0.84l10.18,39.84l-4.43,1.12L639.32,939.36z"/>
			<path fill="#FFFFFF" d="M666.28,948.73l-0.03-0.11c-3.87-10.77-0.69-22.19,9.24-25.72c9.94-3.54,19.47,3.23,23.34,13.99
				l0.04,0.11c3.87,10.77,0.74,22.17-9.19,25.7C679.68,966.26,670.15,959.49,666.28,948.73z M694.37,938.72l-0.03-0.11
				c-3.02-8.4-10.36-14.28-17.54-11.72c-7.23,2.57-9.11,11.55-6.07,20l0.04,0.11c3.03,8.41,10.36,14.28,17.6,11.71
				C695.59,956.13,697.39,947.13,694.37,938.72z"/>
		</g>
	</g>
</g>
</svg>
