<?xml version="1.0" encoding="utf-8"?>
<!-- Generator: Adobe Illustrator 27.5.0, SVG Export Plug-In . SVG Version: 6.00 Build 0)  -->
<svg version="1.2" baseProfile="tiny-ps" id="Lager_1" xmlns="http://www.w3.org/2000/svg" xmlns:xlink="http://www.w3.org/1999/xlink"
	 viewBox="0 0 400 400" xml:space="preserve">
<title>Apoteket AB</title>	 
<circle fill="#42AE29" cx="200" cy="200" r="200"/>
<path fill="#FFFFFF" d="M314.1,230.8l-16.8-33.7h-19.8V132c0-30-24.3-54.3-54.3-54.3S168.9,102,168.9,132v41.6l34.1-17.1v-24.9
	c0-11.1,9-20.1,20.1-20.1s20.1,9,20.1,20.1v65.5H98.7c-2.8,8.8-4.3,18.2-4.3,27.9c0,50.5,40.9,91.5,91.5,91.5
	c48.6,0,88.3-37.9,91.3-85.7H314.1z M186,282.8c-29.7,0-54.2-22.8-57.1-52H243C240.1,260,215.7,282.8,186,282.8z"/>
</svg>
