<svg xmlns="http://www.w3.org/2000/svg" xmlns:xlink="http://www.w3.org/1999/xlink" version="1.2" viewBox="0 0 1080 1080" baseProfile="tiny-ps">
  <title>One Day Agency</title>
  <g>
    <rect y="0" width="1080" height="1080" fill="#1C1D26"/>
    <g>
      <polygon points="782.94,627.64 747.65,627.64 712.38,627.64 677.09,627.64 641.81,627.64 641.81,663.49     641.81,699.35 641.81,735.2 641.81,771.06 641.81,806.92 677.09,806.92 712.38,806.92 747.65,806.92 782.94,806.92 818.22,806.92     818.22,771.06 818.22,735.2 818.22,699.35 818.22,663.49 818.22,627.64   " fill="#38FFD9"/>
      <polygon points="430.13,627.64 394.84,627.64 359.56,627.64 324.28,627.64 289,627.64 289,663.49     289,699.35 289,735.2 289,771.06 289,806.92 324.28,806.92 359.56,806.92 394.84,806.92 430.13,806.92 465.41,806.92     465.41,771.06 465.41,735.2 465.41,699.35 465.41,663.49 465.41,627.64   " fill="#44BEFF"/>
      <polygon points="606.53,627.64 571.25,627.64 535.97,627.64 500.69,627.64 465.41,627.64 465.41,663.49     465.41,699.35 465.41,735.2 465.41,771.06 465.41,806.92 500.69,806.92 535.97,806.92 571.25,806.92 606.53,806.92 641.82,806.92     641.82,771.06 641.82,735.2 641.82,699.35 641.82,663.49 641.82,627.64   " fill="#33D8E8"/>
      <polygon points="641.81,627.64 641.81,591.79 641.81,555.93 641.81,520.07 641.81,484.22 641.81,448.36     606.53,448.36 571.25,448.36 535.97,448.36 500.69,448.36 465.41,448.36 465.41,484.22 465.41,520.07 465.41,555.93     465.41,591.79 465.41,627.64 500.69,627.64 535.97,627.64 571.25,627.64 606.53,627.64   " fill="#3379E8"/>
      <polygon points="465.41,269.08 465.41,304.94 465.41,340.8 465.41,376.65 465.41,412.51 465.41,448.36     500.69,448.36 535.97,448.36 571.25,448.36 606.53,448.36 641.81,448.36 641.81,412.51 641.81,376.65 641.81,340.8 641.81,304.94     641.81,269.08   " fill="#396DE5"/>
      <polygon points="289,269.08 289,304.94 289,340.8 289,376.65 289,412.51 289,448.36 324.28,448.36     359.56,448.36 394.84,448.36 430.13,448.36 465.41,448.36 465.41,412.51 465.41,376.65 465.41,340.8 465.41,304.94 465.41,269.08       " fill="#B692FE"/>
    </g>
  </g>
</svg>