<?xml version="1.0" encoding="UTF-8"?>
<svg version="1.2" baseProfile="tiny-ps" id="Layer_1" xmlns="http://www.w3.org/2000/svg" xmlns:xlink="http://www.w3.org/1999/xlink" viewBox="0 0 300 300">
	<title>Hybytes</title>
	  <rect width="300" height="300" fill="#f2f0dd"/>
	  <g>
		<g>
		  <g>
			<g>
			  <path d="M152.62,140.09c5.11-3.11,9.73-2.44,13.89,1.02,4.1,3.41,5.41,7.99,4.01,13.06-1.47,5.35-5.31,8.29-10.75,9.15-6.83,1.08-13.64-4.54-13.94-12-.24-6.09-.12-12.36-.05-18.54.03-2.53,1.38-3.83,3.54-3.81,2.16.03,3.24,1.3,3.28,3.95.03,2.29,0,4.59,0,7.16ZM158.33,145.16c-3.04.07-5.19,2.76-5.19,5.45,0,3.77,2.69,5.93,5.27,5.87,3.15-.07,5.89-2.68,5.68-5.89-.17-2.67-2.47-5.47-5.76-5.43Z"/>
			  <path d="M94.28,140.33c10.12-5.05,18.45.2,18.45,11.2,0,2.6,0,5.2,0,7.8,0,2.24-1.04,3.58-3.32,3.73-2.15.14-3.56-1.26-3.63-3.73-.09-3.05,0-6.1-.05-9.15-.06-3.23-1.95-5.22-4.87-5.25-3.33-.03-6.4,2.28-6.53,5.1-.12,2.78-.02,5.56-.05,8.34-.03,3.17-1.21,4.71-3.56,4.66-2.29-.05-3.32-1.43-3.32-4.52,0-8.43,0-16.86,0-25.29,0-2.86,1.08-4.21,3.3-4.25,2.24-.04,3.48,1.33,3.56,4.09.06,2.33.01,4.65.01,7.26Z"/>
			  <path d="M234.34,154.05c1.98,2.85,4.31,3.56,7.33,2.2,2.18-.98,3.88-.7,5.02,1.39,1.03,1.88.03,3.9-2.27,4.96-4.75,2.2-11.16.83-14.8-3.17-3.75-4.12-4.42-9.89-1.7-14.68,2.74-4.83,8.31-7.36,13.75-6.24,5.14,1.05,9.41,5.75,10.01,11.01.35,3.09-.89,4.5-4.08,4.52-4.35.03-8.7,0-13.25,0ZM234.02,147.92h10.29c-3.05-4.07-7.2-4.05-10.29,0Z"/>
			  <path d="M141.67,147.64c.1,3.43-.05,7.71-3.14,11.17-1,1.12-2.03,2.03-3.44,2.9-3.08,1.9-2.39.17-2.43,4.91-.03,3.88-1.06,5.6-3.45,5.5-2.25-.1-3.31-1.92-3.36-5.45-.07-4.79.28-2.71-3.17-4.87-3.75-2.34-5.41-6.12-5.61-10.52-.13-3.05-.07-6.1-.02-9.15.05-2.52,1.33-3.94,3.42-3.97,2.25-.04,3.52,1.38,3.55,4.08.04,2.78,0,5.56.01,8.35.02,3.55,2.06,5.83,5.21,5.91,3,.07,5.42-2.35,5.53-5.72.1-2.87,0-5.74.03-8.62.02-2.58,1.17-3.95,3.31-4.01,2.14-.06,3.42,1.29,3.53,3.84.07,1.61.01,3.23.01,5.65Z"/>
			  <path d="M261.42,146.84c1.79,0,3.69,0,5.48.07,3.77.14,6.45,2.18,7.61,5.7,1.11,3.36.13,6.77-2.68,8.86-.91.67-2.04,1.38-3.1,1.43-3.93.19-7.88.22-11.82.07-1.95-.07-2.66-1.65-2.67-3.42-.02-2.16,1.22-3.35,3.3-3.43,2.77-.11,5.56.03,8.33-.09.68-.03,2.02-.02,1.99-1.05.03-.59-.95-1.04-2.1-1.04-1.06,0-2.14-.03-3.22-.05-4.49-.07-7.9-3.53-7.96-8.05-.05-4.3,3.35-7.61,7.93-7.69,2.51-.04,5.02.02,7.53-.01,2.25-.03,3.61.98,3.75,3.26.13,2.08-1.4,3.56-3.75,3.66-2.06.08-4.2-.11-6.18.04-1.35.11-2.15.23-2.39.45-.58.22-.58,1.3-.04,1.3Z"/>
			  <path d="M209.72,144.14c0,2.57-.15,4.81.03,7.02.38,4.59,5.08,6.77,8.9,4.24,2.48-1.64,4.18-1.6,5.38.13,1.19,1.72.58,3.95-1.62,5.55-3.91,2.84-8.15,3.14-12.43,1.1-4.48-2.13-7.06-5.82-7.24-10.8-.2-5.64-.08-11.3-.03-16.95.02-2.52,1.3-3.85,3.49-3.84,2.21.01,3.43,1.33,3.51,3.83.03.8,0,1.6,0,2.82,2.4,0,4.69-.03,6.98,0,2.93.05,4.4,1.27,4.38,3.57-.02,2.2-1.41,3.29-4.27,3.32-2.23.02-4.47,0-7.08,0Z"/>
			</g>
			<circle cx="279.73" cy="159.23" r="2.69" fill="#2ca1d7"/>
			<rect x="183.3" y="174.85" width="6.46" height="2.69" fill="#2ca1d7"/>
			<circle cx="158.52" cy="150.61" r="3.23" fill="#828282"/>
		  </g>
		  <path d="M198.97,148.83c.1,3.43-.05,7.71-3.14,11.17-1,1.12-2.03,2.03-3.44,2.9-3.08,1.9-2.39.17-2.43,4.91-.03,3.88-1.06,5.6-3.45,5.5-2.25-.1-3.31-1.92-3.36-5.45-.07-4.79.28-2.71-3.17-4.87-3.75-2.34-5.41-6.12-5.61-10.52-.13-3.05-.07-6.1-.02-9.15.05-2.52,1.33-3.94,3.42-3.97,2.25-.04,3.52,1.38,3.55,4.08.04,2.78,0,5.56.01,8.35.02,3.55,2.06,5.83,5.21,5.91,3,.07,5.42-2.35,5.53-5.72.1-2.87,0-5.74.03-8.62.02-2.58,1.17-3.95,3.31-4.01,2.14-.06,3.42,1.29,3.53,3.84.07,1.61.01,3.23.01,5.65Z"/>
		</g>
		<g>
		  <g>
			<g>
			  <g>
				<polygon points="42.35 147.23 33.5 146.88 32.26 157.14 39.34 156.08 39.34 156.08 41.47 155.9 44.47 147.23 42.35 147.23"/>
				<polygon points="41.11 155.37 43.41 147.94 37.93 147.94 37.93 147.94 37.93 147.94 34.56 147.94 34.21 150.24 34.03 150.41 34.03 150.41 34.03 150.41 34.03 150.41 34.03 150.59 33.15 156.26 41.11 155.37 37.57 150.59 37.57 150.59 41.11 155.37" fill="#3293d1"/>
				<path d="M33.5,146.88l-2.48-3.89,8.14.71,5.31,3.36h-10.97v-.18Z" fill="#191d2c"/>
				<path d="M32.26,157.14l-1.77-6.19.53-7.79,2.48,3.89-1.24,10.09Z" fill="#0f1116"/>
				<path d="M43.06,147.05h1.24-9.56c-.53-.18-.88-.18-1.24-.18h9.56v.18Z" fill="#c6c6c6"/>
				<path d="M33.32,148.29c0-.53,0-.88.18-1.24h0v1.24l-.88,7.61c0,.53,0,.71-.18,1.06h0v-1.24l.88-7.61v.18Z" fill="#4b5e6b"/>
				<path d="M31.38,143.69c0-.18,0-.35-.18-.53h0s.18.18.35.35l1.77,2.83c0,.18.18.35.18.53h0s-.18-.18-.35-.35l-1.77-2.83Z" fill="#2a363d"/>
				<polygon points="42.17 146.52 38.63 144.04 32.09 143.69 34.21 146.34 38.28 146.34 38.28 146.34 42.17 146.52" fill="#bec2c6"/>
				<polygon points="32.79 147.23 31.2 144.04 30.67 150.41 30.67 150.41 30.67 150.41 31.91 154.66 32.79 147.23" fill="#56595b"/>
			  </g>
			  <g>
				<polygon points="43.77 136.79 34.92 136.61 33.68 146.88 40.76 145.81 40.76 145.81 42.88 145.46 45.89 136.96 43.77 136.79"/>
				<polyline points="35.63 140.15 35.45 140.15 35.45 140.15 34.56 145.99 42.53 145.11" fill="#3293d1"/>
				<polyline points="38.99 140.15 42.53 145.11 45.01 137.67 39.34 137.67 39.34 137.67 39.34 137.67 35.98 137.67 35.63 139.97 35.63 139.97" fill="#3293d1"/>
				<path d="M34.92,136.61l-2.48-3.89,8.14.71,5.31,3.36h-10.97v-.18Z" fill="#191d2c"/>
				<path d="M33.68,146.88l-1.77-6.19.53-7.79,2.48,3.89-1.24,10.09Z" fill="#0f1116"/>
				<path d="M44.47,136.79h1.24-9.56c-.53-.18-.88-.18-1.24-.18h9.56v.18Z" fill="#c6c6c6"/>
				<path d="M34.74,137.85c0-.53,0-.88.18-1.24h0v1.24l-.88,7.61c0,.53,0,.71-.18,1.06h0v-1.24l.88-7.61v.18Z" fill="#4b5e6b"/>
				<path d="M32.79,133.25c0-.18,0-.35-.18-.53h0s.18.18.35.35l1.77,2.83c0,.18.18.35.18.53h0s-.18-.18-.35-.35l-1.77-2.83Z" fill="#2a363d"/>
				<polygon points="43.59 136.26 40.05 133.78 33.68 133.25 35.63 135.9 39.7 136.08 39.7 136.08 43.59 136.26" fill="#bec2c6"/>
				<polygon points="34.21 136.79 32.62 133.78 32.09 140.15 32.09 140.15 32.09 140.15 33.5 144.4 34.21 136.79" fill="#56595b"/>
			  </g>
			  <g>
				<g>
				  <polygon points="67.31 126.52 58.63 126.35 57.39 136.43 64.47 135.55 64.47 135.55 66.6 135.19 69.61 126.52 67.31 126.52"/>
				  <polyline points="59.16 129.89 59.16 129.89 59.16 129.89 58.28 135.73 66.24 134.66" fill="#3293d1"/>
				  <polyline points="66.24 134.66 68.54 127.41 63.06 127.41 63.06 127.41 62.88 127.41 59.52 127.41 59.16 129.71 59.16 129.71" fill="#3293d1"/>
				  <path d="M58.63,126.35l-2.48-3.89,8.14.71,5.31,3.36h-10.97v-.18Z" fill="#191d2c"/>
				  <path d="M57.39,136.43l-1.77-6.19.53-7.79,2.48,3.89s-1.24,10.09-1.24,10.09Z" fill="#0f1116"/>
				  <path d="M68.19,126.52h1.24-9.56c-.53-.18-.88-.18-1.24-.18h9.56v.18Z" fill="#c6c6c6"/>
				  <path d="M58.28,127.58c0-.53,0-.88.18-1.24h0v1.24l-.88,7.61c0,.53,0,.71-.18,1.06h0v-1.24l.88-7.61v.18Z" fill="#4b5e6b"/>
				  <path d="M56.33,122.98c0-.18,0-.35-.18-.53h0s.18.18.35.35l1.77,2.83c0,.18.18.35.18.53h0s-.18-.18-.35-.35l-1.77-2.83Z" fill="#2a363d"/>
				  <polygon points="67.31 125.99 63.77 123.51 57.22 122.98 59.34 125.64 67.31 125.99" fill="#bec2c6"/>
				  <polygon points="57.93 126.52 56.33 123.51 55.8 129.71 55.8 129.71 55.8 129.71 57.04 134.13 57.57 129.71 57.57 129.71 57.57 129.71 57.93 126.52" fill="#56595b"/>
				</g>
				<g>
				  <polygon points="56.16 126.52 47.48 126.35 46.24 136.43 53.32 135.55 53.32 135.55 55.45 135.19 58.46 126.52 56.16 126.52"/>
				  <polygon points="55.09 134.66 57.39 127.41 48.37 127.41 48.01 129.71 48.01 129.71 48.01 129.89 48.01 129.89 48.01 129.89 48.01 129.89 47.13 135.73 55.09 134.66 55.09 134.66" fill="#3293d1"/>
				  <path d="M47.48,126.35l-2.48-3.89,8.14.71,5.31,3.36h-10.97v-.18Z" fill="#191d2c"/>
				  <path d="M46.24,136.43l-1.77-6.19.53-7.79,2.48,3.89s-1.24,10.09-1.24,10.09Z" fill="#0f1116"/>
				  <path d="M57.04,126.52h1.24-9.56c-.53-.18-.88-.18-1.24-.18h9.56v.18Z" fill="#c6c6c6"/>
				  <path d="M47.31,127.58c0-.53,0-.88.18-1.24h0v1.24l-.88,7.61c0,.53,0,.71-.18,1.06h0v-1.24l.88-7.61v.18Z" fill="#4b5e6b"/>
				  <path d="M45.18,122.98c0-.18,0-.35-.18-.53h0s.18.18.35.35l1.77,2.83c0,.18.18.35.18.53h0s-.18-.18-.35-.35l-1.77-2.83Z" fill="#2a363d"/>
				  <polygon points="56.16 125.99 52.62 123.51 46.07 122.98 48.19 125.64 56.16 125.99" fill="#bec2c6"/>
				  <polygon points="46.78 126.52 45.18 123.51 44.65 129.71 44.65 129.71 44.65 129.71 45.89 134.13 46.42 129.71 46.42 129.71 46.42 129.71 46.78 126.52" fill="#56595b"/>
				</g>
				<g>
				  <polygon points="45.18 126.52 36.33 126.35 35.09 136.43 42.17 135.55 42.17 135.55 44.3 135.19 47.31 126.52 45.18 126.52"/>
				  <polygon points="43.94 134.66 46.24 127.41 37.4 127.41 37.04 129.71 35.98 135.73 43.94 134.66 43.94 134.66" fill="#3293d1"/>
				  <path d="M36.33,126.35l-2.48-3.89,8.14.71,5.31,3.36h-10.97v-.18Z" fill="#191d2c"/>
				  <path d="M35.09,136.43l-1.77-6.19.53-7.79,2.48,3.89-1.24,10.09Z" fill="#0f1116"/>
				  <path d="M45.89,126.52h1.24-9.56c-.53-.18-.88-.18-1.24-.18h9.56v.18Z" fill="#c6c6c6"/>
				  <path d="M36.16,127.58c0-.53,0-.88.18-1.24h0v1.24l-.88,7.61c0,.53,0,.71-.18,1.06h0v-1.24l.88-7.61v.18Z" fill="#4b5e6b"/>
				  <path d="M34.21,122.98c0-.18,0-.35-.18-.53h0l.35.35,1.77,2.83c0,.18.18.35.18.53h0l-.35-.35-1.77-2.83Z" fill="#2a363d"/>
				  <polygon points="45.01 125.99 41.47 123.51 34.92 122.98 37.04 125.64 45.01 125.99" fill="#bec2c6"/>
				  <polygon points="35.63 126.52 34.03 123.51 33.5 129.71 33.5 129.71 33.5 129.71 34.74 134.13 35.63 126.52" fill="#56595b"/>
				</g>
			  </g>
			</g>
			<g>
			  <g>
				<polygon points="45.71 152.01 36.86 151.83 35.63 162.1 42.88 161.03 42.88 161.03 45.01 160.68 48.01 152.18 45.71 152.01"/>
				<polyline points="41.47 152.89 41.29 152.89 37.93 152.89 36.69 161.21 44.65 160.33" fill="#3293d1"/>
				<line x1="44.65" y1="160.33" x2="46.95" y2="152.89" fill="#3293d1"/>
				<path d="M36.86,151.83l-2.48-3.89,8.14.71,5.31,3.36h-10.97v-.18Z" fill="#191d2c"/>
				<path d="M35.63,162.1l-1.77-6.19.53-7.79,2.48,3.89-1.24,10.09Z" fill="#0f1116"/>
				<path d="M46.6,152.01h1.24-9.56c-.53-.18-.88-.18-1.24-.18h9.56v.18Z" fill="#c6c6c6"/>
				<path d="M36.69,153.07c0-.53,0-.88.18-1.24h0v1.24l-.88,7.61c0,.53,0,.71-.18,1.06h0v-1.24l.88-7.61v.18Z" fill="#4b5e6b"/>
				<path d="M34.74,148.47c0-.18,0-.35-.18-.53h0s.18.18.35.35l1.77,2.83c0,.18.18.35.18.53h0s-.18-.18-.35-.35l-1.77-2.83Z" fill="#2a363d"/>
				<polygon points="45.71 151.48 42.17 149 35.63 148.47 37.75 151.12 41.64 151.3 41.64 151.3 45.71 151.48" fill="#bec2c6"/>
				<polygon points="36.33 152.01 34.74 149 34.21 155.37 34.21 155.37 34.21 155.37 35.45 159.62 36.33 152.01" fill="#56595b"/>
			  </g>
			  <g>
				<polygon points="47.13 141.74 38.28 141.57 37.04 151.65 44.3 150.77 44.3 150.77 46.42 150.41 49.43 141.74 47.13 141.74"/>
				<polyline points="46.07 149.88 48.37 142.63 42.7 142.63 39.34 142.63 38.1 150.95 46.07 149.88" fill="#3293d1"/>
				<path d="M38.28,141.57l-2.48-3.89,8.14.71,5.31,3.36h-10.97v-.18Z" fill="#191d2c"/>
				<path d="M37.04,151.65l-1.77-6.19.53-7.79,2.48,3.89-1.24,10.09Z" fill="#0f1116"/>
				<path d="M48.01,141.74h1.24-9.56c-.53-.18-.88-.18-1.24-.18h9.56v.18Z" fill="#c6c6c6"/>
				<path d="M38.1,142.8c0-.53,0-.88.18-1.24h0v1.24l-.88,7.61c0,.53,0,.71-.18,1.06h0v-1.24l.88-7.61v.18Z" fill="#4b5e6b"/>
				<path d="M36.16,138.2c0-.18,0-.35-.18-.53h0s.18.18.35.35l1.77,2.83c0,.18.18.35.18.53h0l-.35-.35s-1.77-2.83-1.77-2.83Z" fill="#2a363d"/>
				<polygon points="47.13 141.21 43.59 138.73 37.04 138.2 39.17 140.86 43.06 141.03 43.06 141.03 47.13 141.21" fill="#bec2c6"/>
				<polygon points="37.75 141.74 36.16 138.73 35.63 144.93 35.63 144.93 35.63 144.93 36.86 149.35 37.75 141.74" fill="#56595b"/>
			  </g>
			  <g>
				<g>
				  <polygon points="70.84 131.48 62 131.3 60.76 141.39 67.84 140.33 67.84 140.33 69.96 140.15 72.97 131.48 70.84 131.48"/>
				  <polygon points="69.61 139.62 72.08 132.19 63.06 132.36 62.7 134.66 62.7 134.66 62.7 134.66 62.7 134.66 62.7 134.66 61.64 140.68 69.61 139.62 69.61 139.62" fill="#3293d1"/>
				  <path d="M62,131.3l-2.48-3.89,8.14.71,5.31,3.36h-10.97v-.18Z" fill="#191d2c"/>
				  <path d="M60.76,141.39l-1.77-6.19.53-7.79,2.48,3.89s-1.24,10.09-1.24,10.09Z" fill="#0f1116"/>
				  <path d="M71.73,131.3h1.24-9.56c-.53-.18-.88-.18-1.24-.18h9.56v.18Z" fill="#c6c6c6"/>
				  <path d="M61.82,132.54c0-.53,0-.88.18-1.24h0v1.24l-.88,7.61c0,.53,0,.71-.18,1.06h0v-1.24l.88-7.61v.18Z" fill="#4b5e6b"/>
				  <path d="M59.87,127.94c0-.18,0-.35-.18-.53h0s.18.18.35.35l1.77,2.83c0,.18.18.35.18.53h0s-.18-.18-.35-.35l-1.77-2.83Z" fill="#2a363d"/>
				  <polygon points="70.84 130.77 67.13 128.29 60.76 127.94 62.7 130.59 66.77 130.59 66.77 130.59 70.84 130.77" fill="#bec2c6"/>
				  <polygon points="61.29 131.48 59.7 128.29 59.34 134.66 59.34 134.66 59.34 134.66 60.58 138.91 60.93 134.66 60.93 134.66 60.76 134.66 60.93 134.66 61.29 131.48" fill="#56595b"/>
				</g>
				<g>
				  <polygon points="59.7 131.48 50.85 131.3 49.61 141.39 56.69 140.33 56.69 140.33 58.99 140.15 61.82 131.48 59.7 131.48"/>
				  <polygon points="58.63 139.62 60.93 132.19 51.91 132.36 51.55 134.66 51.55 134.66 51.55 134.66 51.55 134.66 51.55 134.66 50.67 140.68 58.63 139.62 58.63 139.62" fill="#3293d1"/>
				  <path d="M50.85,131.3l-2.48-3.89,8.14.71,5.31,3.36h-10.97v-.18Z" fill="#191d2c"/>
				  <path d="M49.61,141.39l-1.77-6.19.53-7.79,2.48,3.89s-1.24,10.09-1.24,10.09Z" fill="#0f1116"/>
				  <path d="M60.58,131.3h1.24-9.56c-.53-.18-.88-.18-1.24-.18h9.56v.18Z" fill="#c6c6c6"/>
				  <path d="M50.67,132.54c0-.53,0-.88.18-1.24h0v1.24l-.88,7.61c0,.53,0,.71-.18,1.06h0v-1.24l.88-7.61v.18Z" fill="#4b5e6b"/>
				  <path d="M48.72,127.94c0-.18,0-.35-.18-.53h0s.18.18.35.35l1.77,2.83c0,.18.18.35.18.53h0s-.18-.18-.35-.35l-1.77-2.83Z" fill="#2a363d"/>
				  <polygon points="59.7 130.77 56.16 128.29 49.61 127.94 51.73 130.59 55.62 130.59 55.62 130.59 59.7 130.77" fill="#bec2c6"/>
				  <polygon points="50.32 131.48 48.55 128.29 48.19 134.66 48.19 134.66 48.19 134.66 49.43 138.91 50.32 131.48" fill="#56595b"/>
				</g>
				<g>
				  <polygon points="48.55 131.48 39.7 131.3 38.46 141.39 45.71 140.33 45.71 140.33 47.84 140.15 50.85 131.48 48.55 131.48"/>
				  <polygon points="47.48 139.62 49.78 132.19 40.76 132.36 39.52 140.68 47.48 139.62 47.48 139.62" fill="#3293d1"/>
				  <path d="M39.7,131.3l-2.48-3.89,8.14.71,5.31,3.36h-10.97v-.18Z" fill="#191d2c"/>
				  <path d="M38.46,141.39l-1.77-6.19.53-7.79,2.48,3.89s-1.24,10.09-1.24,10.09Z" fill="#0f1116"/>
				  <path d="M49.43,131.3h1.24-9.56c-.53-.18-.88-.18-1.24-.18h9.56v.18Z" fill="#c6c6c6"/>
				  <path d="M39.52,132.54c0-.53,0-.88.18-1.24h0v1.24l-.88,7.61c0,.53,0,.71-.18,1.06h0v-1.24l.88-7.61v.18Z" fill="#4b5e6b"/>
				  <path d="M37.57,127.94c0-.18,0-.35-.18-.53h0s.18.18.35.35l1.77,2.83c0,.18.18.35.18.53h0s-.18-.18-.35-.35l-1.77-2.83Z" fill="#2a363d"/>
				  <polygon points="48.55 130.77 45.01 128.29 38.46 127.94 40.58 130.59 44.47 130.59 44.47 130.59 48.55 130.77" fill="#bec2c6"/>
				  <polygon points="39.17 131.48 37.57 128.29 37.04 134.66 37.04 134.66 37.04 134.66 38.28 138.91 39.17 131.48" fill="#56595b"/>
				</g>
			  </g>
			</g>
			<g>
			  <g>
				<g>
				  <polygon points="71.38 156.79 62.7 156.61 61.46 166.87 68.54 165.81 68.54 165.81 70.67 165.64 73.68 156.96 71.38 156.79"/>
				  <polygon points="70.31 165.1 72.61 157.67 63.59 157.67 62.35 165.99 70.31 165.1 70.31 165.1" fill="#3293d1"/>
				  <path d="M62.7,156.61l-2.48-3.89,8.14.71,5.31,3.36h-10.97v-.18Z" fill="#191d2c"/>
				  <path d="M61.46,166.87l-1.77-6.19.53-7.79,2.48,3.89s-1.24,10.09-1.24,10.09Z" fill="#0f1116"/>
				  <path d="M72.26,156.79h1.24-9.56c-.53-.18-.88-.18-1.24-.18h9.56v.18Z" fill="#c6c6c6"/>
				  <path d="M62.35,157.85c0-.53,0-.88.18-1.24h0v1.24l-.88,7.61c0,.53,0,.71-.18,1.06h0v-1.24l.88-7.61v.18Z" fill="#4b5e6b"/>
				  <path d="M60.4,153.25c0-.18,0-.35-.18-.53h0l.35.35,1.77,2.83c0,.18.18.35.18.53h0l-.35-.35-1.77-2.83Z" fill="#2a363d"/>
				  <polygon points="71.38 156.26 67.84 153.78 61.29 153.25 63.41 155.9 67.48 156.08 67.48 156.08 71.38 156.26" fill="#bec2c6"/>
				  <polygon points="62 156.79 60.4 153.78 59.87 160.15 59.87 160.15 59.87 160.15 61.11 164.4 61.64 160.15 61.64 160.15 61.64 160.15 62 156.79" fill="#56595b"/>
				</g>
				<g>
				  <polygon points="60.23 156.79 51.55 156.61 50.32 166.87 57.39 165.81 57.39 165.81 59.52 165.64 62.53 156.96 60.23 156.79"/>
				  <polygon points="59.16 165.1 61.46 157.67 52.44 157.67 51.2 165.99 59.16 165.1 59.16 165.1" fill="#3293d1"/>
				  <path d="M51.55,156.61l-2.48-3.89,8.14.71,5.31,3.36h-10.97v-.18Z" fill="#191d2c"/>
				  <path d="M50.32,166.87l-1.77-6.19.53-7.79,2.48,3.89s-1.24,10.09-1.24,10.09Z" fill="#0f1116"/>
				  <path d="M61.11,156.79h1.24-9.56c-.53-.18-.88-.18-1.24-.18h9.56v.18Z" fill="#c6c6c6"/>
				  <path d="M51.2,157.85c0-.53,0-.88.18-1.24h0v1.24l-.88,7.61c0,.53,0,.71-.18,1.06h0v-1.24l.88-7.61v.18Z" fill="#4b5e6b"/>
				  <path d="M49.25,153.25c0-.18,0-.35-.18-.53h0l.35.35,1.77,2.83c0,.18.18.35.18.53h0l-.35-.35-1.77-2.83Z" fill="#2a363d"/>
				  <polygon points="60.23 156.26 56.69 153.78 50.14 153.25 52.26 155.9 56.33 156.08 56.33 156.08 60.23 156.26" fill="#bec2c6"/>
				  <polygon points="50.85 156.79 49.25 153.78 48.72 160.15 48.72 160.15 48.72 160.15 49.96 164.4 50.49 160.15 50.49 160.15 50.14 160.15 50.49 160.15 50.85 156.79" fill="#56595b"/>
				</g>
				<g>
				  <polygon points="49.25 156.79 40.4 156.61 39.17 166.87 46.24 165.81 46.24 165.81 48.37 165.64 51.38 156.96 49.25 156.79"/>
				  <polygon points="48.01 165.1 50.32 157.67 41.47 157.67 40.05 165.99 48.01 165.1 48.01 165.1" fill="#3293d1"/>
				  <path d="M40.4,156.61l-2.48-3.89,8.14.71,5.31,3.36h-10.97v-.18Z" fill="#191d2c"/>
				  <path d="M39.17,166.87l-1.77-6.19.53-7.79,2.48,3.89s-1.24,10.09-1.24,10.09Z" fill="#0f1116"/>
				  <path d="M49.96,156.79h1.24-9.56c-.53-.18-.88-.18-1.24-.18h9.56v.18Z" fill="#c6c6c6"/>
				  <path d="M40.23,157.85c0-.53,0-.88.18-1.24h0v1.24l-.88,7.61c0,.53,0,.71-.18,1.06h0v-1.24l.88-7.61v.18Z" fill="#4b5e6b"/>
				  <path d="M38.28,153.25c0-.18,0-.35-.18-.53h0l.35.35,1.77,2.83c0,.18.18.35.18.53h0l-.35-.35-1.77-2.83Z" fill="#2a363d"/>
				  <polygon points="49.08 156.26 45.54 153.78 38.99 153.25 41.11 155.9 45.18 156.08 45.18 156.08 49.08 156.26" fill="#bec2c6"/>
				  <polygon points="39.7 156.79 38.1 153.78 37.57 160.15 37.57 160.15 37.57 160.15 38.81 164.4 39.34 160.15 39.34 160.15 38.99 160.15 39.34 160.15 39.7 156.79" fill="#56595b"/>
				</g>
			  </g>
			  <g>
				<g>
				  <polygon points="72.79 146.52 64.12 146.34 62.88 156.61 69.96 155.55 69.96 155.55 72.08 155.19 75.09 146.52 72.79 146.52"/>
				  <polygon points="71.73 154.84 74.03 147.41 65 147.41 63.77 155.72 71.73 154.84 71.73 154.84" fill="#3293d1"/>
				  <path d="M64.12,146.34l-2.48-3.89,8.14.71,5.31,3.36h-10.97v-.18Z" fill="#191d2c"/>
				  <path d="M62.88,156.61l-1.77-6.19.53-7.79,2.48,3.89s-1.24,10.09-1.24,10.09Z" fill="#0f1116"/>
				  <path d="M73.68,146.52h1.24-9.56c-.53-.18-.88-.18-1.24-.18h9.56v.18Z" fill="#c6c6c6"/>
				  <path d="M63.77,147.58c0-.53,0-.88.18-1.24h0v1.24l-.88,7.61c0,.53,0,.71-.18,1.06h0v-1.24l.88-7.61v.18Z" fill="#4b5e6b"/>
				  <path d="M61.82,142.98c0-.18,0-.35-.18-.53h0l.35.35,1.77,2.83c0,.18.18.35.18.53h0l-.35-.35-1.77-2.83Z" fill="#2a363d"/>
				  <polygon points="72.79 145.99 69.25 143.51 62.7 142.98 64.83 145.64 68.9 145.81 68.9 145.81 72.79 145.99" fill="#bec2c6"/>
				  <polygon points="63.41 146.52 61.82 143.51 61.29 149.88 61.29 149.88 61.29 149.88 62.53 154.13 63.06 149.88 62.7 149.71 63.06 149.71 63.41 146.52" fill="#56595b"/>
				</g>
				<g>
				  <polygon points="61.82 146.52 52.97 146.34 51.73 156.61 58.81 155.55 58.81 155.55 60.93 155.19 63.94 146.52 61.82 146.52"/>
				  <polygon points="60.58 154.84 62.88 147.41 53.85 147.41 52.62 155.72 60.58 154.84 60.58 154.84" fill="#3293d1"/>
				  <path d="M52.97,146.34l-2.48-3.89,8.14.71,5.31,3.36h-10.97v-.18Z" fill="#191d2c"/>
				  <path d="M51.73,156.61l-1.77-6.19.53-7.79,2.48,3.89s-1.24,10.09-1.24,10.09Z" fill="#0f1116"/>
				  <path d="M62.53,146.52h1.24-9.56c-.53-.18-.88-.18-1.24-.18h9.56v.18Z" fill="#c6c6c6"/>
				  <path d="M52.79,147.58c0-.53,0-.88.18-1.24h0v1.24l-.88,7.61c0,.53,0,.71-.18,1.06h0v-1.24l.88-7.61v.18Z" fill="#4b5e6b"/>
				  <path d="M50.67,142.98c0-.18,0-.35-.18-.53h0l.35.35,1.77,2.83c0,.18.18.35.18.53h0l-.35-.35-1.77-2.83Z" fill="#2a363d"/>
				  <polygon points="61.64 145.99 58.1 143.51 51.55 142.98 53.68 145.64 57.75 145.81 57.75 145.81 61.64 145.99" fill="#bec2c6"/>
				  <polygon points="52.26 146.52 50.67 143.51 50.14 149.88 50.14 149.88 50.14 149.88 51.38 154.13 51.91 149.88 51.91 149.71 51.55 149.71 51.91 149.71 52.26 146.52" fill="#56595b"/>
				</g>
				<g>
				  <polygon points="50.67 146.52 41.82 146.34 40.58 156.61 47.66 155.55 47.66 155.55 49.78 155.19 52.79 146.52 50.67 146.52"/>
				  <polygon points="49.43 154.84 51.73 147.41 42.88 147.41 41.47 155.72 49.43 154.84 49.43 154.84" fill="#3293d1"/>
				  <path d="M41.82,146.34l-2.48-3.89,8.14.71,5.31,3.36h-10.97v-.18Z" fill="#191d2c"/>
				  <path d="M40.58,156.61l-1.77-6.19.53-7.79,2.48,3.89s-1.24,10.09-1.24,10.09Z" fill="#0f1116"/>
				  <path d="M51.38,146.52h1.24-9.56c-.53-.18-.88-.18-1.24-.18h9.56v.18Z" fill="#c6c6c6"/>
				  <path d="M41.64,147.58c0-.53,0-.88.18-1.24h0v1.24l-.88,7.61c0,.53,0,.71-.18,1.06h0v-1.24l.88-7.61v.18Z" fill="#4b5e6b"/>
				  <path d="M39.7,142.98c0-.18,0-.35-.18-.53h0l.35.35,1.77,2.83c0,.18.18.35.18.53h0l-.35-.35-1.77-2.83Z" fill="#2a363d"/>
				  <polygon points="50.49 145.99 46.95 143.51 40.4 142.98 42.53 145.64 46.6 145.81 46.6 145.81 50.49 145.99" fill="#bec2c6"/>
				  <polygon points="41.11 146.52 39.52 143.51 38.99 149.88 38.99 149.88 38.99 149.88 40.4 154.13 41.11 146.52" fill="#56595b"/>
				</g>
			  </g>
			  <g>
				<g>
				  <polygon points="74.21 136.26 65.54 136.08 64.3 146.17 71.38 145.28 71.38 145.28 73.5 144.93 76.51 136.26 74.21 136.26"/>
				  <polygon points="73.15 144.4 75.45 136.96 66.42 137.14 65.18 145.46 73.15 144.4 73.15 144.4" fill="#3293d1"/>
				  <path d="M65.54,136.08l-2.48-3.89,8.14.71,5.31,3.36h-10.97v-.18Z" fill="#191d2c"/>
				  <path d="M64.3,146.17l-1.77-6.19.53-7.79,2.48,3.89s-1.24,10.09-1.24,10.09Z" fill="#0f1116"/>
				  <path d="M75.09,136.26h1.24-9.56c-.53-.18-.88-.18-1.24-.18h9.56v.18Z" fill="#c6c6c6"/>
				  <path d="M65.18,137.32c0-.53,0-.88.18-1.24h0v1.24l-.88,7.61c0,.53,0,.71-.18,1.06h0v-1.24l.88-7.61v.18Z" fill="#4b5e6b"/>
				  <path d="M63.23,132.72c0-.18,0-.35-.18-.53h0l.35.35,1.77,2.83c0,.18.18.35.18.53h0l-.35-.35-1.77-2.83Z" fill="#2a363d"/>
				  <polygon points="74.21 135.55 70.67 133.25 64.12 132.72 66.24 135.37 74.21 135.55" fill="#bec2c6"/>
				  <polygon points="64.83 136.26 63.23 133.25 62.7 139.44 62.7 139.44 62.7 139.44 63.94 143.87 64.47 139.44 64.47 139.44 64.12 139.44 64.47 139.44 64.83 136.26" fill="#56595b"/>
				</g>
				<g>
				  <polygon points="63.06 136.26 54.39 136.08 53.15 146.17 60.23 145.28 60.23 145.28 62.35 144.93 65.36 136.26 63.06 136.26"/>
				  <polygon points="62 144.4 64.3 136.96 55.27 137.14 54.03 145.46 62 144.4 62 144.4" fill="#3293d1"/>
				  <path d="M54.39,136.08l-2.48-3.89,8.14.71,5.31,3.36h-10.97v-.18Z" fill="#191d2c"/>
				  <path d="M53.15,146.17l-1.77-6.19.53-7.79,2.48,3.89s-1.24,10.09-1.24,10.09Z" fill="#0f1116"/>
				  <path d="M63.94,136.26h1.24-9.56c-.53-.18-.88-.18-1.24-.18h9.56v.18Z" fill="#c6c6c6"/>
				  <path d="M54.03,137.32c0-.53,0-.88.18-1.24h0v1.24l-.88,7.61c0,.53,0,.71-.18,1.06h0v-1.24l.88-7.61v.18Z" fill="#4b5e6b"/>
				  <path d="M52.08,132.72c0-.18,0-.35-.18-.53h0l.35.35,1.77,2.83c0,.18.18.35.18.53h0l-.35-.35-1.77-2.83Z" fill="#2a363d"/>
				  <polygon points="63.06 135.55 59.52 133.25 52.97 132.72 55.09 135.37 63.06 135.55" fill="#bec2c6"/>
				  <polygon points="53.68 136.26 52.08 133.25 51.55 139.44 51.55 139.44 51.55 139.44 52.79 143.87 53.32 139.44 53.32 139.44 52.97 139.44 53.32 139.44 53.68 136.26" fill="#56595b"/>
				</g>
				<g>
				  <polygon points="52.08 136.26 43.24 136.08 42 146.17 49.08 145.28 49.08 145.28 51.2 144.93 54.21 136.26 52.08 136.26"/>
				  <polygon points="50.85 144.4 53.15 136.96 44.3 137.14 42.88 145.46 50.85 144.4 50.85 144.4" fill="#3293d1"/>
				  <path d="M43.24,136.08l-2.48-3.89,8.14.71,5.31,3.36h-10.97v-.18Z" fill="#191d2c"/>
				  <path d="M42,146.17l-1.77-6.19.53-7.79,2.48,3.89s-1.24,10.09-1.24,10.09Z" fill="#0f1116"/>
				  <path d="M52.79,136.26h1.24-9.56c-.53-.18-.88-.18-1.24-.18h9.56v.18Z" fill="#c6c6c6"/>
				  <path d="M43.06,137.32c0-.53,0-.88.18-1.24h0v1.24l-.88,7.61c0,.53,0,.71-.18,1.06h0v-1.24l.88-7.61v.18Z" fill="#4b5e6b"/>
				  <path d="M41.11,132.72c0-.18,0-.35-.18-.53h0l.35.35,1.77,2.83c0,.18.18.35.18.53h0l-.35-.35-1.77-2.83Z" fill="#2a363d"/>
				  <polygon points="51.91 135.55 48.37 133.25 41.82 132.72 43.94 135.37 48.01 135.55 48.01 135.55 51.91 135.55" fill="#bec2c6"/>
				  <polygon points="42.53 136.26 40.94 133.25 40.4 139.44 40.4 139.44 40.4 139.44 41.64 143.87 42.53 136.26" fill="#56595b"/>
				</g>
			  </g>
			</g>
		  </g>
		  <g>
			<g>
			  <polygon points="29.25 135.73 23.24 135.55 22.35 142.45 27.13 141.74 27.13 141.74 28.72 141.57 30.67 135.73 29.25 135.73"/>
			  <polygon points="28.37 141.21 29.96 136.26 23.94 136.26 23.06 141.92 28.37 141.21 28.37 141.21" fill="#3293d1"/>
			  <path d="M23.24,135.55l-1.59-2.65,5.49.53,3.54,2.3h-7.43v-.18Z" fill="#191d2c"/>
			  <path d="M22.35,142.45l-1.06-4.25.35-5.31,1.59,2.65-.88,6.9Z" fill="#0f1116"/>
			  <path d="M23.06,136.43v-.88h0v.88l-.71,5.13v.71h0v-.71l.71-5.13Z" fill="#4b5e6b"/>
			  <path d="M21.82,133.42v-.35h0l.18.35,1.24,1.95v.35h0l-.18-.35-1.24-1.95Z" fill="#2a363d"/>
			  <polygon points="29.08 135.37 26.78 133.78 22.35 133.42 23.77 135.19 26.42 135.19 26.42 135.19 29.08 135.37" fill="#bec2c6"/>
			  <polygon points="22.88 135.73 21.82 133.78 21.47 138.03 21.47 138.03 21.47 138.03 22.35 140.86 22.88 135.73" fill="#56595b"/>
			</g>
			<g>
			  <polygon points="29.61 126.35 25.54 126.17 25.01 130.59 28.19 130.24 28.19 130.24 29.25 130.06 30.49 126.35 29.61 126.35"/>
			  <polygon points="29.08 129.89 30.14 126.7 27.66 126.7 27.66 126.7 27.48 126.7 26.07 126.7 25.89 127.58 25.89 127.76 25.89 127.76 25.89 127.76 25.89 127.76 25.89 127.76 25.54 130.24 29.08 129.89 27.48 127.76 27.48 127.76 29.08 129.89" fill="#3293d1"/>
			  <path d="M25.54,126.17l-1.06-1.77,3.54.35,2.3,1.59h-4.96l.18-.18Z" fill="#191d2c"/>
			  <path d="M25.01,130.59l-.71-2.83v-3.54c.18,0,1.24,1.77,1.24,1.77l-.53,4.42v.18Z" fill="#0f1116"/>
			  <path d="M25.54,126.7v-.53h0v.53l-.35,3.36v.53h0v-.53l.35-3.36Z" fill="#4b5e6b"/>
			  <path d="M24.65,124.75v-.18h0v.18l.88,1.24v.18h0v-.18l-.88-1.24Z" fill="#2a363d"/>
			  <polygon points="29.43 125.99 27.84 124.93 27.84 124.93 27.84 124.93 25.01 124.75 25.89 125.81 27.66 125.99 27.66 125.99 29.43 125.99" fill="#bec2c6"/>
			  <polygon points="25.36 126.17 24.65 124.93 24.48 127.76 24.48 127.76 24.48 127.76 25.01 129.53 25.36 126.17" fill="#56595b"/>
			</g>
			<g>
			  <polygon points="22.18 124.93 18.81 124.75 18.28 128.82 21.11 128.47 21.11 128.47 22 128.29 23.06 124.93 22.18 124.93"/>
			  <polygon points="21.82 128.12 22.71 125.28 19.17 125.28 18.64 128.47 21.82 128.12 21.82 128.12" fill="#3293d1"/>
			  <path d="M18.81,124.75l-.88-1.59h3.19c0,.18,2.12,1.59,2.12,1.59h-4.42Z" fill="#191d2c"/>
			  <path d="M18.28,128.82l-.71-2.48v-3.01c.18,0,1.24,1.59,1.24,1.59l-.53,4.07v-.18Z" fill="#0f1116"/>
			  <path d="M18.64,125.28v-.53h0v.53l-.35,3.01v.53h0v-.53l.35-3.01Z" fill="#4b5e6b"/>
			  <path d="M17.93,123.51v-.18h0l.71,1.24v.18h0l-.71-1.24Z" fill="#2a363d"/>
			  <polygon points="22.18 124.75 20.76 123.69 18.28 123.51 18.99 124.58 20.58 124.58 20.58 124.58 22.18 124.75" fill="#bec2c6"/>
			  <polygon points="18.46 124.93 17.93 123.69 17.75 126.17 17.75 126.17 17.75 126.17 17.75 126.17 17.75 126.17 17.75 126.17 18.1 127.94 18.46 126.17 18.46 126.17 18.28 126.17 18.46 126.17 18.46 124.93" fill="#56595b"/>
			</g>
		  </g>
		  <g>
			<g>
			  <polygon points="77.04 173.78 74.21 173.78 73.85 176.96 76.15 176.61 76.15 176.61 76.86 176.61 77.75 173.78 77.04 173.78"/>
			  <polygon points="77.39 174.13 74.56 174.13 74.21 176.79 76.69 176.43 76.69 176.43 77.39 174.13" fill="#3293d1"/>
			  <path d="M74.21,173.78l-.71-1.24h2.65c0,.18,1.77,1.24,1.77,1.24h-3.72Z" fill="#191d2c"/>
			  <path d="M73.85,176.96l-.53-1.95v-2.48l.88,1.24-.35,3.36v-.18Z" fill="#0f1116"/>
			  <path d="M74.21,174.13v-.35h0v.35l-.35,2.48v.35h0v-.35l.35-2.48Z" fill="#4b5e6b"/>
			  <path d="M73.5,172.71h0l.53.88h0l-.53-.88Z" fill="#2a363d"/>
			  <polygon points="77.04 173.6 75.98 172.71 75.98 172.71 75.98 172.71 73.85 172.71 74.56 173.42 75.8 173.6 75.8 173.6 77.04 173.6" fill="#bec2c6"/>
			  <polygon points="74.03 173.78 73.5 172.71 73.32 174.84 73.32 174.84 73.32 174.84 73.68 176.25 73.85 174.84 73.85 174.84 73.85 174.84 73.85 174.84 74.03 173.78" fill="#56595b"/>
			</g>
			<g>
			  <polygon points="80.76 165.99 76.15 165.99 75.62 171.12 79.16 170.59 79.16 170.59 80.4 170.59 81.82 165.99 80.76 165.99"/>
			  <polygon points="80.22 170.24 81.46 166.52 76.69 166.52 76.15 170.77 80.22 170.24 80.22 170.24" fill="#3293d1"/>
			  <path d="M76.15,165.99l-1.24-1.95,4.07.35,2.83,1.77h-5.66v-.18Z" fill="#191d2c"/>
			  <path d="M75.62,171.12l-.88-3.19.35-4.07,1.24,1.95-.71,5.31Z" fill="#0f1116"/>
			  <path d="M76.15,166.52v-.53h0v.53l-.53,3.89v.53h0v-.53l.53-3.89Z" fill="#4b5e6b"/>
			  <path d="M75.09,164.22v-.18h0v.18l.88,1.42v.18h0v-.18l-.88-1.42Z" fill="#2a363d"/>
			  <polygon points="80.76 165.81 78.99 164.4 75.62 164.22 76.69 165.64 78.63 165.64 78.63 165.64 80.76 165.81" fill="#bec2c6"/>
			  <polygon points="75.98 165.99 75.09 164.4 74.74 167.76 74.74 167.76 74.74 167.76 75.45 169.88 75.62 167.76 75.62 167.76 75.62 167.76 75.62 167.76 75.98 165.99" fill="#56595b"/>
			</g>
		  </g>
		</g>
	  </g>
</svg>