<svg version="1.2" baseProfile="tiny-ps" id="Layer_1" xmlns="http://www.w3.org/2000/svg" xmlns:xlink="http://www.w3.org/1999/xlink" viewBox="0 0 566.9 566.9" xml:space="preserve">
<title>Huswell</title>
<g id="Group_2" transform="translate(147 438)">
	<g>
		<g id="Group_1" transform="translate(0 0)">
			<path id="Path_1" fill="#241261" d="M-37.5-207.1h19.4c1.3,0,2.4,1.1,2.4,2.4v100.5c0,1.3-1.1,2.4-2.4,2.4h-19.4c-1.3,0-2.4-1.1-2.4-2.4V-143h-5.9v38.7c0,1.3-1.1,2.4-2.4,2.4h-19.2c-1.3,0-2.4-1.1-2.4-2.4v-100.5c0-1.3,1.1-2.4,2.4-2.4h19.2c1.3,0,2.4,1.1,2.4,2.4v41.5h5.9v-41.5C-39.9-206-38.8-207.1-37.5-207.1"/>
			<path id="Path_2" fill="#241261" d="M41.2-207.1c1.3,0,2.4,1.1,2.4,2.4v80c0,8.5-2.4,14.7-7.1,18.3c-4.7,3.7-11.4,5.5-20.1,5.5c-8.8,0-15.5-1.8-20.1-5.5c-4.7-3.7-7-9.7-7-18.3v-80c0-1.3,1.1-2.4,2.4-2.4H11c1.3,0,2.4,1.1,2.4,2.4v79.9c0,2.6,1,3.8,3,3.8c1.9,0,3-1.3,3-3.8v-79.9c0-1.3,1.1-2.4,2.4-2.4H41.2z"/>
			<path id="Path_3" fill="#241261" d="M99.7-169.2H81.3c-1.3,0-2.4-1.1-2.4-2.4V-184c0-2.6-1-3.8-3-3.8s-3,1.3-3,3.8v12.5c0,1.8,0.8,3.6,2.2,4.8c1.6,1.5,3.5,2.7,5.5,3.4c2.4,0.9,4.8,2,7.1,3.1c2.5,1.2,4.9,2.6,7.1,4.2c2.4,1.7,4.3,4,5.4,6.7c1.4,3,2.2,6.5,2.2,10.6v14c0,8.4-2.3,14.6-6.9,18.3c-4.6,3.7-11.1,5.5-19.7,5.5c-8.5,0-15.2-1.8-19.6-5.5c-4.6-3.7-6.9-9.7-6.9-18.3v-12.6c0-1.3,1.1-2.4,2.4-2.4h18.4c1.3,0,2.4,1.1,2.4,2.4v12.4c0,2.6,1.1,3.8,3.1,3.8c1.9,0,3-1.3,3-3.8v-12.5c0-1.8-0.8-3.6-2.2-4.8c-1.5-1.5-3.4-2.6-5.4-3.4c-2.4-0.9-4.8-2-7.1-3.1c-2.5-1.2-4.9-2.6-7.1-4.2c-2.3-1.7-4.2-4.1-5.4-6.7c-1.4-3-2.2-6.5-2.2-10.6v-14c0-8.4,2.3-14.6,6.9-18.3s11.1-5.5,19.6-5.5s15,1.8,19.6,5.5c4.5,3.7,6.7,9.7,6.7,18.3v12.5c0.1,1.3-0.8,2.4-2.1,2.5C99.9-169.2,99.8-169.2,99.7-169.2"/>
			<path id="Path_4" fill="#241261" d="M185.1-207.1h18.5c1.3,0,2.4,1.1,2.4,2.4c0,0.1,0,0.2,0,0.3L198.3-104c-0.1,1.2-1.2,2.2-2.4,2.3h-32.7c-1.3,0.1-2.4-0.9-2.4-2.2c0,0,0,0,0-0.1l-4.5-76.9h-1.1l-4.5,76.9c-0.1,1.3-1.1,2.3-2.4,2.3h-32.7c-1.3,0-2.4-1-2.4-2.3l-7.8-100.5c-0.1-1.3,0.8-2.5,2.1-2.6c0.1,0,0.2,0,0.3,0h18.5c1.3-0.1,2.4,0.9,2.4,2.2c0,0,0,0,0,0.1l3.8,77h1.1l4.9-77.1c0.1-1.3,1.1-2.3,2.4-2.3h29.1c1.3,0,2.4,1,2.4,2.3l4.9,77.1h1.1l3.9-77C182.7-206.1,183.8-207.1,185.1-207.1"/>
			<path id="Path_5" fill="#241261" d="M247.7-187h-12.5v22.3h12.2c1.3,0,2.4,1.1,2.4,2.4v15c0,1.3-1.1,2.4-2.4,2.4h-12.2v23h12.5c1.3,0,2.4,1.1,2.4,2.4v15.3c0,1.3-1.1,2.4-2.4,2.4h-34.3c-1.3,0-2.4-1.1-2.4-2.4v-100.5c0-1.3,1.1-2.4,2.4-2.4h34.3c1.3,0,2.4,1.1,2.4,2.4v15.3C250.1-188.1,249-187,247.7-187"/>
			<path id="Path_6" fill="#241261" d="M279.3-121.9h14.3c1.3,0,2.4,1.1,2.4,2.4v15.3c0,1.3-1.1,2.4-2.4,2.4h-36c-1.3,0-2.4-1.1-2.4-2.4v-100.5c0-1.3,1.1-2.4,2.4-2.4h19.2c1.3,0,2.4,1.1,2.4,2.4V-121.9z"/>
			<path id="Path_7" fill="#241261" d="M325.4-121.9h14.3c1.3,0,2.4,1.1,2.4,2.4v15.3c0,1.3-1.1,2.4-2.4,2.4h-36c-1.3,0-2.4-1.1-2.4-2.4v-100.5c0-1.3,1.1-2.4,2.4-2.4H323c1.3,0,2.4,1.1,2.4,2.4V-121.9z"/>
			<path id="Path_8" fill="#241261" d="M349.3-200.9c0.1,3.9-3.1,7.2-7,7.2c-0.1,0-0.2,0-0.3,0c-4,0.1-7.2-3-7.3-7c-0.1-4,3-7.2,7-7.3c0.1,0,0.2,0,0.3,0C346.2-208,349.3-204.8,349.3-200.9 M336.6-200.9c-0.1,3.1,2.4,5.6,5.4,5.7c0,0,0.1,0,0.1,0c3.1,0,5.4-2.5,5.4-5.7s-2.3-5.8-5.5-5.8C338.9-206.5,336.5-203.9,336.6-200.9 M340.9-197h-1.7v-7.1c0.9-0.2,1.8-0.2,2.8-0.2c0.9,0,1.7,0.1,2.5,0.5c0.4,0.4,0.7,1,0.7,1.6c0,0.8-0.6,1.5-1.4,1.7v0.1c0.7,0.2,1.1,0.8,1.3,1.7c0.1,0.6,0.3,1.2,0.5,1.8h-1.8c-0.2-0.2-0.4-1-0.6-1.7c-0.1-0.8-0.6-1.1-1.4-1.1h-0.8L340.9-197z M341-201.1h0.8c1,0,1.7-0.4,1.7-1.1c0-0.6-0.5-1.1-1.6-1.1c-0.3,0-0.7,0-1,0.1L341-201.1z"/>
		</g>
	</g>
</g>
</svg>