<?xml version="1.0" encoding="utf-8"?>
<!-- Generator: Adobe Illustrator 27.2.0, SVG Export Plug-In . SVG Version: 6.00 Build 0)  -->
<svg version="1.2" baseProfile="tiny-ps" id="Layer_1" xmlns="http://www.w3.org/2000/svg" xmlns:xlink="http://www.w3.org/1999/xlink"
	 viewBox="0 0 1080 1080" xml:space="preserve">
<title>Stockland</title>
<rect fill="#2A6DF6" width="1080" height="1080"/>
<path fill="#FFFFFF" d="M719.7,509.9l-75.3,7.9l58.8-19.1c-8.6-5.3-17.4-10.3-26.6-14.8l-39,12.7L796.1,405c0.9-8.7,1.4-17.6,1.4-26.6
	l-171.3,98.9l166.4-149.8c-1.6-8.3-3.7-16.5-6.1-24.5L611.4,460.7l152.7-210.2c-4-7-8.2-13.7-12.8-20.3l-158,217.4l117.1-263.1
	c-5.8-5.1-11.8-9.9-18-14.5L573,438.5l63.7-299.7c-6.9-2.8-14-5.3-21.2-7.5l-64.3,302.6V120.3c-3.7-0.2-7.4-0.3-11.2-0.3
	c-3.7,0-7.5,0.1-11.2,0.3v313.6l-64.3-302.6c-7.2,2.2-14.3,4.7-21.2,7.5L507,438.5L387.5,170c-6.2,4.6-12.2,9.4-18,14.5l117.1,263.1
	L328.7,230.2c-4.6,6.6-8.9,13.3-12.8,20.3l152.7,210.2L293.4,303c-2.4,8-4.5,16.2-6.1,24.5l166.4,149.8l-171.3-98.9
	c0,9,0.5,17.8,1.4,26.6l158.7,91.6l-150.4-48.9c2.5,9,5.6,17.8,9.1,26.4l134.5,43.7l-119.4-12.5c4.8,8.3,9.9,16.4,15.6,24.1
	L433.3,540l-85.6,9c6.4,7.1,13.2,13.9,20.3,20.3l67.6-7.1L380.7,580c7.3,5.7,14.9,11.1,22.8,16.1l39-12.7l-149.6,86.4L256,691.1
	c-0.3,5.1-0.5,10.2-0.5,15.3c0,3.5,0.1,7.1,0.3,10.6l198-114.3L265.2,772.4c2.3,7.7,5,15.3,8.1,22.7l195.3-175.8L303.1,847
	c4.6,6.1,9.5,12.1,14.6,17.8l168.9-232.4L364.7,906.2c6.1,4.3,12.5,8.3,19,12.2L507,641.5l-64.5,303.3c7,2.3,14.2,4.3,21.5,6.1
	l64.8-304.8v313.7c3.7,0.1,7.4,0.2,11.2,0.2c3.7,0,7.5-0.1,11.2-0.2V646.1L616,950.9c7.3-1.8,14.5-3.8,21.5-6.1L573,641.5
	l123.3,276.9c6.5-3.8,12.9-7.9,19-12.2l-122-273.8l168.9,232.4c5.2-5.7,10-11.7,14.6-17.8L611.4,619.3l195.3,175.8
	c3.1-7.4,5.8-15,8.1-22.7L626.3,602.7l198,114.3c0.2-3.5,0.3-7,0.3-10.6c0-5.2-0.2-10.3-0.5-15.3L637.5,583.4L815,641.1
	c-2.7-9.1-6-18-9.7-26.6l-160.9-52.3l140.3,14.7c-5.7-8.5-11.8-16.6-18.5-24.4L646.7,540l97.4-10.2
	C736.4,522.7,728.2,516.1,719.7,509.9z"/>
</svg>
