<?xml version="1.0" encoding="utf-8"?>
<!-- Generator: Adobe Illustrator 24.0.2, SVG Export Plug-In . SVG Version: 6.00 Build 0)  -->
<svg version="1.2" baseProfile="tiny-ps" id="Layer_1" xmlns="http://www.w3.org/2000/svg" xmlns:xlink="http://www.w3.org/1999/xlink"
	 viewBox="0 0 96 96" xml:space="preserve">

<title> Accrueme </title>

<rect fill="#212E56" width="96" height="96"/>
<g>
	<path fill="#FFFFFF" d="M85.2,44.1c-1.2-0.3-2.3-0.5-3.4-0.8c0,0,0-0.1,0-0.1c0.4-0.2,0.8-0.5,1.2-0.7c0.1,0,0.2,0,0.3,0
		c1.2,0.3,2.3,0.5,3.5,0.8c0.1,0,0.3,0.1,0.3,0.3c0.5,1.1,1.1,2.2,1.6,3.2c0.1,0.1,0.1,0.3,0.1,0.4c-0.1,0.4-0.2,0.8-0.4,1.3
		c-0.5-1-1-2-1.5-3c-0.6,0.7-1.2,1.3-1.8,2c-1.8,2-3.6,4-5.4,6c-0.2,0.2-0.3,0.2-0.6,0.1c-1.2-0.6-2.5-1.2-3.7-1.8
		c-0.3-0.1-0.5-0.1-0.7,0c-3.4,2.3-6.8,4.6-10.3,7c-0.1,0.1-0.2,0.1-0.3,0.2c0,0,0-0.1-0.1-0.1c2.7-2.5,5.5-4.9,8.2-7.4
		c0,0,0-0.1,0-0.1c-1-0.5-1.5-1.4-1.7-2.4c-0.2-1.4-0.3-2.7,0.1-4.1c0.5-1.5,1.5-2.4,3.1-2.5c0.8-0.1,1.5,0,2.2,0.2
		c1.3,0.5,1.9,1.5,2.1,2.8c0.1,0.8,0,1.6,0,2.5c-1.9,0-3.8,0-5.6,0c-0.2,1,0.3,1.9,1.2,2c0.1,0,0.3,0,0.4-0.1
		c0.3-0.2,0.5-0.4,0.7-0.6c0.2-0.2,0.3-0.2,0.6-0.1c1.1,0.5,2.2,1.1,3.3,1.6c0.2,0.1,0.3,0.1,0.5-0.1c2-2.2,3.9-4.4,5.9-6.6
		C85.1,44.3,85.1,44.2,85.2,44.1z M76.2,46.6c0-0.8,0-1.6-0.7-2.1c-0.6-0.4-1.8-0.3-2.4,0.1c-0.5,0.4-0.8,1.3-0.6,2
		C73.8,46.6,75,46.6,76.2,46.6z"/>
	<path fill="#FFFFFF" d="M55.7,42.8c0.7,0,1.3,0,1.9,0c0,0.2,0,0.3,0,0.5c0.4-0.2,0.8-0.3,1.1-0.5c1.2-0.4,2.4-0.4,3.4,0.5
		c0.1,0.1,0.3,0,0.4,0c1-0.5,2-0.7,3.1-0.7c1.6,0,2.5,0.8,2.8,2.4c0.1,0.6,0.1,1.3,0.2,1.9c0,1.5,0,3,0,4.5c0,0.1,0,0.2,0,0.4
		c-0.7,0-1.3,0-2,0c0-0.2,0-0.3,0-0.4c0-1.7,0-3.4,0-5.1c0-0.3-0.1-0.7-0.2-1c-0.1-0.5-0.5-0.8-1-0.8c-0.7-0.1-1.7,0.1-2.2,0.4
		c0,2.2,0,4.5,0,6.7c0,0.3-0.1,0.3-0.3,0.3c-0.5,0-1.1,0-1.7,0c0-0.2,0-0.3,0-0.4c0-1.5,0-3.1,0-4.6c0-0.5-0.1-0.9-0.1-1.4
		c-0.1-0.6-0.5-0.9-1.1-1c-0.7-0.1-1.3,0.1-1.9,0.3c-0.3,0.1-0.3,0.2-0.3,0.5c0,2,0,4.1,0,6.1c0,0.2,0,0.3,0,0.5c-0.7,0-1.3,0-2,0
		C55.7,48.8,55.7,45.8,55.7,42.8z"/>
	<path fill="#FFFFFF" d="M12.8,50.9c0,0.4,0,0.7,0,1.1c-0.7,0-1.3-0.1-1.9-0.5c-0.2-0.2-0.4-0.2-0.7-0.1C9,51.9,7.9,52.2,6.6,52
		c-0.9-0.1-1.5-0.7-1.7-1.5c-0.2-0.7-0.2-1.5,0-2.3c0.3-0.8,0.9-1.3,1.7-1.4c0.9-0.2,1.8-0.3,2.7-0.3c1.1-0.1,1.1-0.1,1-1.2
		c-0.1-0.9-0.5-1.4-1.5-1.4c-0.9,0-1.9,0.1-2.8,0.2c-0.2,0-0.5,0-0.7,0.1c0-0.3-0.1-0.6-0.1-0.8c0-0.1,0.1-0.2,0.2-0.2
		c1.4-0.3,2.7-0.5,4.1-0.3c1.5,0.2,2.2,1,2.2,2.5c0,1.5,0,3,0,4.5C11.7,50.6,11.9,50.7,12.8,50.9z M10.4,47.3
		c-1.1,0.1-2.2,0.2-3.2,0.4c-0.6,0.1-0.9,0.6-1,1.2c0,0.2,0,0.4,0,0.6c0.1,0.9,0.5,1.3,1.4,1.3c0.6,0,1.2-0.1,1.9-0.3
		c0.9-0.2,0.9-0.2,0.9-1.1C10.4,48.8,10.4,48.1,10.4,47.3z"/>
	<path fill="#FFFFFF" d="M53.2,47.9c-2,0-4,0-5.9,0c-0.2,1.5,0.4,2.8,1.8,2.9c1,0,2.1,0,3.1,0c0.2,0,0.4,0,0.7-0.1
		c0,0.4,0,0.7,0,1.1c-0.5,0.1-0.9,0.1-1.4,0.2c-0.9,0-1.8,0.2-2.7,0.1c-1.7-0.2-2.4-0.8-2.8-2.5c-0.3-1.4-0.3-2.8,0-4.2
		c0.6-2.2,2.2-2.8,4.2-2.7c1.2,0.1,2.1,0.6,2.6,1.7c0.4,0.8,0.5,1.7,0.4,2.7C53.2,47.3,53.2,47.6,53.2,47.9z M51.8,46.8
		c0.2-1.1-0.2-2.3-0.9-2.7c-0.7-0.4-2.1-0.4-2.8,0.1c-0.6,0.5-1.1,1.7-0.9,2.6C48.7,46.8,50.3,46.8,51.8,46.8z"/>
	<path fill="#FFFFFF" d="M43.6,42.8c0,3,0,6,0,9c-0.4,0-0.9,0-1.3,0c0-0.2,0-0.3-0.1-0.5c-0.3,0.1-0.7,0.3-1,0.4
		c-0.9,0.3-1.8,0.4-2.8,0.2c-1-0.2-1.6-0.8-1.8-2c-0.1-0.8-0.2-1.6-0.2-2.4c0-1.4,0-2.9,0-4.3c0-0.4,0.1-0.4,0.4-0.4
		c0.3,0,0.6,0,1,0c0,0.2,0,0.3,0,0.4c0,1.6,0,3.1,0,4.7c0,0.5,0.1,1.1,0.1,1.6c0.1,0.8,0.6,1.1,1.3,1.2c0.9,0.1,1.7-0.1,2.5-0.5
		c0.2-0.1,0.3-0.2,0.3-0.5c0-2.2,0-4.3,0-6.5c0-0.5,0-0.5,0.5-0.5C43,42.8,43.3,42.8,43.6,42.8z"/>
	<path fill="#FFFFFF" d="M20.2,50.6c0,0.1,0,0.1,0,0.1c0.1,1,0.1,1-0.9,1.2c-1,0.1-2,0.2-3,0c-1-0.2-1.7-0.8-2-1.9
		c-0.5-1.8-0.5-3.6,0-5.3c0.3-1.2,1.3-1.8,2.5-2c1.1-0.2,2.2,0.1,3.2,0.2c0.1,0,0.2,0.2,0.2,0.3c0,0.3,0,0.6-0.1,0.9
		c-0.3,0-0.6-0.1-0.8-0.1c-0.8,0-1.6,0-2.4,0.1c-0.7,0.1-1.1,0.6-1.3,1.3c-0.3,1.4-0.3,2.7,0,4.1c0.2,0.9,0.8,1.3,1.8,1.4
		c0.8,0,1.6-0.1,2.4-0.1C20,50.6,20.1,50.6,20.2,50.6z"/>
	<path fill="#FFFFFF" d="M28.2,44c-0.9,0-1.8-0.1-2.7-0.1c-1.1,0-1.7,0.5-1.9,1.6c-0.3,1.3-0.3,2.5,0,3.8c0.2,1,0.8,1.5,1.9,1.5
		c0.8,0,1.6-0.1,2.4-0.1c0.1,0,0.2,0,0.4,0c0,0.3,0,0.7,0,1c0,0.1-0.1,0.2-0.2,0.2c-1.1,0.1-2.1,0.3-3.2,0.2
		c-1.5-0.2-2.3-0.8-2.7-2.3c-0.4-1.6-0.4-3.3,0.1-5c0.3-1.2,1.2-1.8,2.4-2c1.1-0.2,2.2,0,3.3,0.2c0.1,0,0.2,0.1,0.2,0.2
		C28.2,43.4,28.2,43.7,28.2,44z"/>
	<path fill="#FFFFFF" d="M89.3,45.7c-0.2-0.4-0.4-0.7-0.5-1.1c-0.3-0.6-0.6-1.1-0.8-1.7c-0.1-0.3-0.3-0.4-0.6-0.4
		c-1-0.2-1.9-0.4-3-0.7c2.5-1.4,4.9-2.7,7.3-4.1c0,0,0.1,0,0.1,0.1C90.9,40.4,90.2,43,89.3,45.7z"/>
	<path fill="#FFFFFF" d="M31.6,51.8c-0.5,0-0.9,0-1.3,0c0-3,0-6,0-9c0.4,0,0.9,0,1.3,0c0,0.4,0,0.7,0,1.2c1.1-0.7,2.1-1.2,3.3-1.4
		c0,0.4,0,0.8,0,1.2c0,0.1-0.1,0.2-0.2,0.2c-0.9,0.3-1.8,0.7-2.7,1c-0.3,0.1-0.4,0.3-0.4,0.6c0,1.9,0,3.8,0,5.7
		C31.6,51.5,31.6,51.6,31.6,51.8z"/>
	<path fill="#FFFFFF" d="M78.9,43.9c-0.4,0-0.8-0.4-0.8-0.8c0-0.4,0.4-0.8,0.8-0.8c0.5,0,0.8,0.4,0.8,0.8
		C79.7,43.5,79.4,43.9,78.9,43.9z M78.6,43.7c0.2,0,0.4,0,0.7,0c-0.2-0.2-0.3-0.3-0.4-0.5C78.7,43.4,78.7,43.5,78.6,43.7
		c0-0.3,0-0.5,0-0.8c0-0.3,0.2-0.3,0.4-0.2c0.2,0,0.4,0.1,0.3,0.3c-0.2,0.3,0,0.4,0.1,0.6c0.3-0.3,0.3-0.6,0.1-0.9
		c-0.2-0.2-0.6-0.3-0.9,0c-0.3,0.2-0.3,0.6,0,0.9C78.5,43.6,78.5,43.6,78.6,43.7z"/>
</g>
</svg>
