<svg xmlns="http://www.w3.org/2000/svg" xmlns:xlink="http://www.w3.org/1999/xlink" version="1.2" viewBox="0 0 283.5 283.5" baseProfile="tiny-ps">
  <title>ifolor-bimi_tiny_ps</title>
  <g id="Guides"/>
  <g id="Combinationmark">
    <path d="M0-0.5v283.9h283.5V57.6c0-32-25.4-58-56.8-58L0-0.5z" fill="#E10032"/>
    <g>
      <g>
        <path d="M114.6,128.7c-0.1,0-0.1,0-0.2,0c-6.7,0-11.2,3-13.7,5.6c-3.8,3.7-6,8.9-6,14     c0,5.6,2,10.7,5.6,14.3c3.7,3.7,8.9,5.7,14.6,5.7c5.3,0,10.4-2.1,14.1-5.8c3.7-3.6,5.7-8.4,5.7-13.5c0-5.6-2.1-10.8-5.8-14.5     C125,130.7,120.2,128.8,114.6,128.7z M114.6,156c-4,0-7.4-3.3-7.4-7.1c0-2.1,0.8-4.1,2.2-5.5c1.3-1.3,3.2-2.1,5.2-2.1     c4.1,0,7.5,3.2,7.5,7.2C122,152.7,118.8,156,114.6,156z" fill="#FFFFFF"/>
        <path d="M60.3,131.7h-8.1v35.8h13.1v-30.9C65.2,133.9,63,131.7,60.3,131.7z" fill="#FFFFFF"/>
        <path d="M93,113.2c-1.5,0-6.9-0.1-9.5,0.6c-4.3,1.2-6.9,3.6-8.2,7.4c-0.7,2.2-0.8,6.1-0.8,7.3     c0,0.8,0,3.2,0,3.2v0.2h-4.2v10.7h4.3v25h12.9v-25h3.7v-10.7h-3.8v-2.5c0-4.3,2.3-4.4,4.2-4.5c0.3,0,1,0,1.3,0L93,113.2z" fill="#FFFFFF"/>
        <path d="M147.7,167.4c2.1,0.6,5.9,0.6,7.9,0.6c0.8,0,1.4,0,1.7,0l-0.1-11.9h-1.4c-2-0.1-4.1-0.2-4.1-4.4     v-38h-13.1c0,2.6,0,29.4,0,38.5c0,0.6,0,1.1,0,1.6c0,2.9,0,4.5,0.6,6.2C140.3,163.7,143.2,166.2,147.7,167.4z" fill="#FFFFFF"/>
        <path d="M227.1,143.3c0.3,0,0.6,0,0.8,0V131c-4.6,0-8.6,0.4-10.4,3.7l-0.5,0.9v-3.9h-12.8v35.8h13.2v-13.9     C217.3,147.1,221,143.3,227.1,143.3z" fill="#FFFFFF"/>
        <path d="M231.8,155.4c-3.6,0-6.4,2.9-6.4,6.4s2.9,6.4,6.4,6.4s6.4-2.9,6.4-6.4     C238.3,158.3,235.4,155.4,231.8,155.4z" fill="#FFFFFF"/>
        <path d="M179.7,128.7c-0.1,0-0.1,0-0.2,0c-5.3,0-10,1.9-13.7,5.6c-3.8,3.7-6,8.9-6,14     c0,5.6,2,10.7,5.6,14.3c3.7,3.7,8.9,5.7,14.6,5.7c5.4,0,10.4-2.1,14.1-5.8c3.7-3.6,5.7-8.4,5.7-13.5c0-5.6-2.1-10.8-5.8-14.5     C190.2,130.7,185.4,128.8,179.7,128.7z M179.8,156c-4,0-7.4-3.3-7.5-7.1c0-2.1,0.8-4.1,2.2-5.5c1.4-1.3,3.2-2.1,5.2-2.1     c4.1,0,7.5,3.2,7.5,7.2C187.2,152.8,184,156,179.8,156z" fill="#FFFFFF"/>
        <path d="M58.8,113.1c-3.9,0-7.1,3.1-7.1,7c0,3.8,3.2,7,7.1,7s7.1-3.1,7.1-7S62.7,113.1,58.8,113.1z" fill="#FFFFFF"/>
      </g>
    </g>
  </g>
</svg>