<?xml version="1.0" encoding="UTF-8"?>
<svg xmlns="http://www.w3.org/2000/svg" baseProfile="tiny-ps" version="1.2" viewBox="0 0 80 80">
  <title>Cumberland Mutual</title>
  <g>
    <g id="Layer_1">
      <rect width="79.9" height="79.9" fill="#fff"/>
      <circle cx="42.2" cy="35.1" r=".6" fill="#f2a900"/>
      <circle cx="56" cy="35.1" r=".6" fill="#f2a900"/>
      <path d="M63.3,31.8c-2.8-.3-3.5-2.1-4.2-3.8-.2-.4-.3-.8-.5-1.2,0,0,.7-1.1.4-2-.2-.6-.6-.9-1.4-1.2,0,0-.3,0-.3.2s0,.3.2.3c.6.2.9.5,1,.8.2.5,0,1-.2,1.3-.4-.5-.9-.9-1.6-1-1.4-.2-2.3.7-3.3,1.6-.4.4-.9.8-1.3,1.1,0,0,0-.2-.2-.2-.9-.7-1.2-1.2-.6-2.9h.4v-.6h-5.2v.6h.4c.5,1.4.5,2.1-.6,2.9l-.2.2c-.4-.3-.9-.7-1.3-1.1-.9-.9-1.9-1.8-3.3-1.6-.7,0-1.2.5-1.6,1,0-.3-.4-.8-.2-1.3,0-.4.5-.7,1-.8,0,0,.2-.2.2-.3s-.2-.2-.3-.2c-.7.3-1.2.6-1.4,1.2-.3.9.3,1.9.4,2-.2.4-.3.7-.5,1.2-.7,1.6-1.4,3.5-4.2,3.8,0,0-.3,0-.3.3s0,.3.3.3,0,0,0,0c3.1-.3,3.9-2.4,4.6-4.1.5-1.2.9-2.2,2-2.4,1.1,0,1.9.7,2.8,1.5.5.4.9.9,1.4,1.2,0,.3-.2.7-.2,1,0,0,0,.2-.2.4l-.2.4h7.7l-.2-.4s0-.3-.2-.4c0-.3,0-.7-.2-1,.5-.3,1-.7,1.4-1.2.9-.8,1.7-1.6,2.8-1.5s1.5,1.1,2,2.4c.7,1.7,1.5,3.8,4.6,4.1h0s.2,0,.3-.3c0,0,0-.3-.2-.3,0,0,.2,0,.2,0ZM46.2,29.2c0-.4.3-.9.4-.9.6-.4.9-.9,1.1-1.4h2.8c0,.5.5.9,1.1,1.4,0,0,.3.5.4.9h-5.8Z" fill="#f2a900"/>
      <path d="M42.5,34.6l2-2.2c-.6-.4-1.2-.7-2-.8v3Z" fill="#f2a900"/>
      <path d="M55.7,34.6v-3c-.7,0-1.4.3-2,.8l2,2.2Z" fill="#f2a900"/>
      <path d="M58.4,31.8l-.3.4h0c-.5-.4-1.2-.6-1.8-.7v3.7h-.3l-.2.2-2.4-2.8c-.5.5-.9,1.2-1,1.9h-.6c.4-2.2,2.1-3.7,4.2-3.7s1.6.2,2.3.7h0l.7-1h-20l.7,1.1c-1.1.8-1.9,2.1-1.9,3.5s1,3.2,2.5,3.9l-9.5.4h25.1c2.4,0,4.3-1.9,4.3-4.3s-.7-2.8-1.9-3.5h0v.2h.1ZM56.2,34.7h0ZM52.3,34.7h2.7l.3.3h-3.1v-.3h0ZM55.2,35.6l-2.2,2c-.4-.6-.7-1.2-.7-1.9h3,0ZM40.1,32.3l1.2,1.9-1.7-1.5s.3-.3.5-.4ZM39.3,33.1l2.3,2h-3c0-.7.3-1.4.8-2h0ZM38.5,35.6h3.1l-2.1,2.4c-.6-.6-1-1.4-1.1-2.4h0ZM41.9,39.1c-.7,0-1.4-.3-2-.7l2-2.3v3h0ZM42.8,35.1l.3-.3h2.7v.3h-3.1,0ZM45.9,35.6c0,.7-.3,1.4-.7,1.9l-2.2-2h3,0ZM44.8,38c-.6.6-1.4,1-2.3,1.1v-3.1l2.3,2.1h0ZM44.3,39c1.3-.7,2.1-2.1,2.1-3.7s0-.4,0-.6h-.6c0-.8-.5-1.5-1-2l-2.4,2.8-.2-.2h-.3v-3.7c-.6,0-1.2.3-1.8.6h0l-.3-.4h0c.7-.5,1.5-.7,2.3-.7,2.1,0,3.9,1.5,4.2,3.5h5.3v.6c0,1.3.6,2.5,1.6,3.3l-8.9.4h0ZM41.9,34.7h0ZM53.4,38l2.3-2.1v3.1c-.9,0-1.7-.4-2.3-1.1h0ZM58.1,32.3c.2,0,.3.3.5.4l-1.7,1.5,1.2-1.9ZM58.9,33.1c.4.6.7,1.2.8,2h-3l2.3-2h0ZM56.2,39.1v-3l2,2.3c-.6.4-1.2.7-2,.7ZM58.6,37.9l-2.1-2.3h3.1c0,.9-.4,1.7-1.1,2.3h0Z" fill="#f2a900"/>
      <path d="M17.7,44.8c-.2-.8-.6-1.1-1.3-1.1s-1.3.6-1.3,1.9v.8c0,1.3.5,1.9,1.3,1.9s1.1-.3,1.3-1.1h1c-.2,1.4-1,2-2.3,2s-2.4-.9-2.4-2.8v-.8c0-2,1-2.8,2.4-2.8s2.1.7,2.3,2c0,0-1,0-1,0Z" fill="#004c97"/>
      <path d="M23.3,49.2h-1v-.4c-.2.3-.5.5-1.1.5-.9,0-1.7-.5-1.7-1.8v-2.9h1v2.8c0,.8.4,1,.9,1s.9-.4.9-1v-2.8h1s0,4.6,0,4.6Z" fill="#004c97"/>
      <path d="M24.4,44.6h1v.4c.2-.3.5-.5,1.1-.5s1,.2,1.3.7c.3-.4.8-.7,1.3-.7,1,0,1.6.6,1.6,1.8v2.9h-1v-2.8c0-.8-.3-1-.8-1s-.8.4-.9,1v2.8h-1v-2.8c0-.8-.3-1-.8-1s-.9.4-.9,1v2.8h-1v-4.6h0Z" fill="#004c97"/>
      <path d="M32.6,45c.2-.3.6-.4,1.1-.4,1.1,0,1.8.7,1.8,2.1v.6c0,1.2-.6,2.1-1.8,2.1s-.9,0-1.1-.4v.3h-.9v-6.3h.9v2.1h0ZM34.6,47.2v-.5c0-.8-.3-1.2-1-1.2s-1,.4-1,1.2v.6c0,.7.3,1.3,1,1.3s1-.6,1-1.3h0Z" fill="#004c97"/>
      <path d="M39.9,48.5c-.3.6-.8.8-1.6.8-1.3,0-2-.9-2-2.1v-.6c0-1.3.7-2.1,1.9-2.1s1.9.8,1.9,2.1v.5h-2.7c0,.7.3,1.3,1,1.3s.8-.2.9-.4l.7.5h-.1ZM37.2,46.4h1.8c0-.7-.3-1-.9-1s-.8.4-.9,1Z" fill="#004c97"/>
      <path d="M43.4,45.7c0-.2-.3-.4-.7-.4s-.8.4-.8,1v2.8h-1v-4.6h1v.4c.2-.3.5-.5,1-.5s1,.2,1.3.7l-.8.6Z" fill="#004c97"/>
      <path d="M44.6,42.9h1v4.7c0,.5,0,.8.7.8v.9c-1.2,0-1.7-.4-1.7-1.4v-4.9h0Z" fill="#004c97"/>
      <path d="M48.6,46.5h1v-.4c0-.6-.2-.7-.9-.7s-.7,0-1,.4l-.7-.5c.3-.5.8-.8,1.7-.8s1.8.4,1.8,1.6v3.1h-1v-.4c-.2.4-.5.5-1.1.5-1,0-1.6-.5-1.6-1.4s.7-1.4,1.7-1.4h0ZM49.6,47.2h-.9c-.6,0-.8.2-.8.6s.3.6.8.6,1-.2,1-1v-.2h0Z" fill="#004c97"/>
      <path d="M51.6,44.6h1v.4c.2-.3.5-.5,1.1-.5.9,0,1.7.5,1.7,1.8v2.9h-1v-2.8c0-.8-.4-1-.9-1s-.9.4-.9,1v2.8h-1s0-4.6,0-4.6Z" fill="#004c97"/>
      <path d="M59.2,42.9h1v6.3h-1v-.3c-.2.3-.6.4-1.1.4-1.2,0-1.8-.9-1.8-2.1v-.6c0-1.3.7-2.1,1.8-2.1s.8,0,1.1.4v-2.1h0ZM59.2,47.2v-.6c0-.8-.3-1.2-1-1.2s-1,.4-1,1.2v.5c0,.7.3,1.3,1,1.3s1-.6,1-1.3h0Z" fill="#004c97"/>
      <path d="M37.5,53.8l1.8-3.7h1v6.3h-1v-4.2l-1.4,3h-.8l-1.4-3v4.2h-1v-6.3h1s1.8,3.7,1.8,3.7Z" fill="#004c97"/>
      <path d="M45.3,56.4h-1v-.4c-.2.3-.5.5-1.1.5-.9,0-1.7-.5-1.7-1.8v-2.9h1v2.8c0,.8.4,1,.9,1s.9-.4.9-1v-2.8h1s0,4.6,0,4.6Z" fill="#004c97"/>
      <path d="M46,51.8h.6v-1h1v1h1v.8h-1v2.1c0,.5,0,.8.6.8h.4v.9h-.4c-1.1,0-1.5-.4-1.5-1.5v-2.3h-.6v-.8h0Z" fill="#004c97"/>
      <path d="M53.1,56.4h-1v-.4c-.2.3-.5.5-1.1.5-.9,0-1.7-.5-1.7-1.8v-2.9h1v2.8c0,.8.4,1,.9,1s.9-.4.9-1v-2.8h1s0,4.6,0,4.6Z" fill="#004c97"/>
      <path d="M55.6,53.7h1v-.4c0-.6-.2-.7-.9-.7s-.7,0-1,.4l-.7-.5c.3-.5.8-.8,1.7-.8s1.8.4,1.8,1.6v3.1h-1v-.4c-.2.4-.5.5-1.1.5-1,0-1.6-.5-1.6-1.4s.7-1.4,1.7-1.4h0ZM56.6,54.5h-.9c-.6,0-.8.2-.8.6s.3.6.8.6,1-.2,1-1v-.2h0Z" fill="#004c97"/>
      <path d="M58.6,50.1h1v4.7c0,.5,0,.8.7.8v.9c-1.2,0-1.7-.4-1.7-1.4v-4.9h0Z" fill="#004c97"/>
    </g>
  </g>
</svg>