<?xml version="1.0" encoding="utf-8"?>
<!-- Generator: Adobe Illustrator 27.6.1, SVG Export Plug-In . SVG Version: 6.00 Build 0)  -->
<svg version="1.2" baseProfile="tiny-ps" id="Layer_1" xmlns="http://www.w3.org/2000/svg" xmlns:xlink="http://www.w3.org/1999/xlink" viewBox="0 0 80 80" xml:space="preserve">
<title>Friday Plans Inc</title>
<rect fill="#1B1464" width="80" height="80"/>
<circle fill="none" cx="40" cy="40" r="40"/>
<linearGradient id="SVGID_1_" gradientUnits="userSpaceOnUse" x1="30.6769" y1="7.0321" x2="40.2559" y2="82.6553">
	<stop  offset="0" stop-color="#FE77BC"/>
	<stop  offset="8.578476e-02" stop-color="#FE59AD"/>
	<stop  offset="0.2643" stop-color="#FD1D8F"/>
	<stop  offset="0.4224" stop-color="#E20AB5"/>
	<stop  offset="0.5233" stop-color="#D400C9"/>
	<stop  offset="0.5583" stop-color="#CB09CC"/>
	<stop  offset="0.6152" stop-color="#B320D5"/>
	<stop  offset="0.6869" stop-color="#8B47E3"/>
	<stop  offset="0.77" stop-color="#557BF7"/>
	<stop  offset="0.8009" stop-color="#3F91FF"/>
	<stop  offset="0.9984" stop-color="#00F1FF"/>
</linearGradient>
<path fill="url(#SVGID_1_)" d="M57.8,50.8c-1.1-4.1-2.7-8.1-4.1-12.1c-0.4-1.2-0.8-2.3-1.3-3.9c0.6,0.4,0.7,0.6,0.9,0.8
	c1.2,1.1,2.6,1.2,3.9,0.4c1.3-0.8,0.9-2.2,0.4-3.3c-0.6-1.4-1.3-2.8-2-4.1c-1.4-2.5-1.3-2.7,1.4-3.4c0.3-0.1,0.6-0.2,1.4-0.6
	c-1.2-0.5-1.9-0.7-2.6-1c-0.8-0.4-1.7-0.8-2.2-1.5c-1.9-2.7-4.8-3.1-7.2-0.8c-1.7,1.6-2.5,3.7-2.8,6c-0.4,4.4-0.7,8.9-1.1,13.3
	c-0.2,2.9-2.1,4.7-5,4.7c-4.1-8.7-11.3-11.8-18.6-8c1.7,0.5,3.5,1,5.1,1.5c-3.1,1.1-6.2,1.8-9,3.2c-3.2,1.6-5,5.1-4.7,7.6
	c2.9-4.4,7.3-6.7,11.5-5.8c-3.7,1.3-6.7,3.1-8.5,6.5c-1.5,3-2,7.9-0.9,10.3c0.5-4.7,4.5-8.5,8.4-7.9c-5.3,6.6-6.5,13.9-3,18.6
	c0.1-0.3,0.1-0.6,0.1-0.9c0.4-5.3,2.6-7,7.7-5.8c3.2,0.7,6.6,4.8,15.7,4.8C63.8,69.4,58.5,53.4,57.8,50.8z M51.6,25.9
	c-0.3,0.3-0.7,0.5-1.1,0.5c-0.4,0-0.8-0.2-1.1-0.5c-0.3-0.3-0.5-0.7-0.5-1.1c0-0.4,0.2-0.8,0.5-1.1c0.3-0.3,0.7-0.5,1.1-0.5
	c0.5,0,0.8,0.2,1.1,0.5c0.3,0.3,0.5,0.7,0.5,1.1C52,25.3,51.9,25.6,51.6,25.9z M38.4,16.1c2.2,1.3,4.4,2.6,7.7,3.1
	c0-3-1.1-5.4-4.1-7.1c-0.8-0.5-1.8-0.8-3-0.1c-1.3,0.6-1.9,1.5-1.8,2.5C37.3,15.1,37.8,15.7,38.4,16.1z M38.8,21.6
	c1.7,0.1,3.4-0.6,5.2-0.6c-1.7-0.8-3.4-1.4-5.4-1.8c-0.6-0.1-1.7-0.3-1.7,0.6C36.8,20.7,37.3,21.5,38.8,21.6z M44.2,10.9
	c2.4,2.1,4.3,4.4,4.8,7.5c2-3.7,3.2-7.3,1.7-10.7c-0.5-1.2-1.4-2.3-3.1-2.8c-1.1-0.4-2.3-0.5-3.6,0.3c-1.4,0.8-1.9,1.7-1.7,2.7
	C42.4,9.1,43.2,10,44.2,10.9z"/>
</svg>
