<?xml version="1.0" encoding="UTF-8" standalone="yes"?>
<svg width="540" height="540" viewBox="0 0 540 540" fill="none" version="1.2" baseProfile="tiny-ps" xmlns="http://www.w3.org/2000/svg">
  <title>Indeed</title>
  <g>
    <path d="M540 0H0V540H540V0Z" fill="white"/>
    <path fill-rule="evenodd" d="M234.5 436V283.9C238.9 284.3 243.2 284.5 247.7 284.5C268.9 284.5 288.9 278.9 305.9 269V435.9C305.9 450.2 302.5 460.7 295.9 467.7C289.3 474.7 280.6 478.2 270 478.2C259.6 478.2 251.3 474.7 244.5 467.5C237.9 460.5 234.5 450 234.5 436ZM234.9 71.6C279.1 56.1 329.4 56.9 367.1 88.7C374.1 95.1 382.2 103.2 385.4 112.7C389.2 124.7 372 111.4 369.7 109.8C357.4 101.9 345.1 95.3 331.3 90.8C257 68.5 186.8 108.8 143.1 171.4C124.8 199.1 113 228.2 103.2 260.2C102.1 263.7 101.3 268.3 99.3999 271.3C97.4999 274.8 98.5999 261.8 98.5999 261.4C100.1 248.2 102.8 235.4 106.3 222.6C126.2 154.4 170.8 97.6 234.9 71.6ZM320.4 194.1C320.4 223.1 296.9 246.6 268 246.6C239.1 246.6 215.6 223.1 215.6 194.1C215.6 165.1 239 141.6 268 141.6C297 141.6 320.4 165.1 320.4 194.1Z" fill="#003A9B"/>
  </g>
  <defs/>
</svg>