<?xml version="1.0" encoding="utf-8"?>
<!-- Created with Inkscape (http://www.inkscape.org/) -->
<svg width="185.21mm" height="185.21mm" version="1.2" viewBox="0 0 185.21 185.21" xmlns:cc="http://creativecommons.org/ns#" xmlns:dc="http://purl.org/dc/elements/1.1/" xmlns:rdf="http://www.w3.org/1999/02/22-rdf-syntax-ns#" baseProfile="tiny-ps" xmlns="http://www.w3.org/2000/svg">
  <title>All IT Logo</title>
 
  <metadata />
  <g transform="translate(925.58 421.61)">
    <g transform="matrix(.26458 0 0 .26458 -1122.3 -471.75)">
      <g fill="none" font-size="none" font-weight="normal" stroke-miterlimit="10" text-anchor="start">
        <g>
          <g>
            <path d="m1522.3 820.2h4.3119v-507.62h-4.3119z" fill="#403f41" />
            <g>
              <g fill="#403f41">
                <path d="m1846.1 593.88c-14.252-45.838-22.272-71.755-24.066-77.769-1.7937-6.0079-3.0758-10.757-3.8462-14.246-3.2023 12.401-12.355 43.073-27.475 92.015zm26.164 88.388-15.414-50.593h-77.476l-15.408 50.593h-48.558l75.009-213.4h55.094l75.302 213.4z" />
                <path d="m1988.4 682.27h-44.338v-226.2h44.338z" />
                <path d="m2079.3 682.27h-44.338v-226.2h44.338z" />
              </g>
              <path d="m2206.6 469.74h45.062v212.53h-45.062z" fill="#47a1de" />
              <g fill="#47a1de">
                <path d="m2387.2 682.27h-45.068v-175.03h-57.71v-37.502h160.49v37.502h-57.71z" />
              </g>
              <g fill="#403f41">
                <path d="m2675.6 627.47c0 17.73-6.5138 31.787-19.547 42.159-13.033 10.371-30.361 15.551-51.978 15.551-25.963 0-45.878-2.8631-59.74-8.5778v-14.827c15.304 6.4966 34.84 9.7391 58.578 9.7391 17.454 0 31.276-3.9957 41.503-11.993 10.222-7.9913 15.339-18.489 15.339-31.471 0-8.0488-1.696-14.706-5.0938-19.99-3.3862-5.2835-8.9112-10.101-16.558-14.465-7.6579-4.3579-18.909-9.0607-33.736-14.103-21.709-7.4624-36.703-15.534-44.993-24.204-8.2845-8.6697-12.424-20.226-12.424-34.667 0-15.891 6.2206-28.855 18.673-38.887 12.458-10.032 28.476-15.04 48.046-15.04 19.967 0 38.726 3.7714 56.267 11.337l-5.3812 12.786c-17.638-7.3589-34.506-11.044-50.593-11.044-15.701 0-28.2 3.6335-37.508 10.9-9.2907 7.2669-13.953 17.156-13.953 29.66 0 7.8419 1.4257 14.292 4.2888 19.334 2.8574 5.0363 7.5372 9.5724 14.034 13.585 6.4908 4.0244 17.633 8.848 33.431 14.459 16.575 5.7262 29.028 11.274 37.358 16.65 8.3305 5.3812 14.413 11.487 18.242 18.317 3.8289 6.8358 5.7434 15.092 5.7434 24.79" />
                <path d="m2722.8 603.04c0 21.715 4.7718 38.652 14.321 50.811 9.5321 12.159 23.031 18.248 40.474 18.248 17.449 0 30.948-6.0884 40.491-18.248 9.5379-12.159 14.321-29.097 14.321-50.811 0-21.801-4.8236-38.709-14.465-50.731-9.6414-12.016-23.192-18.029-40.635-18.029-17.443 0-30.896 5.9906-40.336 17.96-9.4459 11.97-14.172 28.895-14.172 50.8m124.72 0c0 25.785-6.2493 45.913-18.742 60.406-12.504 14.488-29.758 21.732-51.76 21.732-13.856 0-26.067-3.346-36.628-10.032-10.567-6.6863-18.662-16.282-24.279-28.78-5.6227-12.504-8.4283-26.941-8.4283-43.326 0-25.774 6.2494-45.861 18.76-60.251 12.493-14.39 29.643-21.588 51.449-21.588 21.709 0 38.744 7.2899 51.104 21.881 12.344 14.586 18.524 34.575 18.524 59.958" />
                <path d="m2905.7 682.27h-14.384v-226.2h14.384z" />
                <path d="m2971.1 524.25v102.34c0 15.902 3.3403 27.458 10.032 34.673 6.6806 7.2152 17.046 10.831 31.103 10.831 18.8 0 32.638-4.7488 41.509-14.246 8.8652-9.4976 13.298-24.951 13.298-46.378v-87.221h14.241v158.02h-12.211l-2.6101-21.807h-0.8739c-10.274 16.471-28.545 24.716-54.812 24.716-35.95 0-53.927-19.242-53.927-57.71v-103.22z" />
                <path d="m3175.9 672.38c9.1124 0 17.058-0.77614 23.842-2.3227v11.631c-6.9795 2.3169-15.017 3.4897-24.135 3.4897-13.948 0-24.256-3.7312-30.89-11.199-6.6403-7.4624-9.9518-19.191-9.9518-35.179v-102.04h-23.411v-8.434l23.411-6.5483 7.2669-35.754h7.4164v38.226h46.373v12.51h-46.373v100.01c0 12.113 2.1272 21.076 6.3988 26.889 4.2544 5.8124 10.946 8.7215 20.053 8.7215" />
                <path d="m3248.3 682.27h-14.39v-158.02h14.39zm-16.414-201.92c0-9.3022 3.047-13.953 9.1412-13.953 3.0068 0 5.3582 1.2131 7.0542 3.6335 1.696 2.4262 2.5411 5.8642 2.5411 10.32 0 4.3636-0.8451 7.8074-2.5411 10.326-1.696 2.5181-4.0474 3.7772-7.0542 3.7772-6.0942 0-9.1412-4.6971-9.1412-14.103" />
                <path d="m3307.2 603.04c0 21.715 4.7661 38.652 14.316 50.811 9.5493 12.159 23.048 18.248 40.491 18.248 17.437 0 30.93-6.0884 40.48-18.248 9.5493-12.159 14.321-29.097 14.321-50.811 0-21.801-4.812-38.709-14.465-50.731-9.6471-12.016-23.181-18.029-40.635-18.029-17.437 0-30.884 5.9906-40.336 17.96-9.4516 11.97-14.172 28.895-14.172 50.8m124.73 0c0 25.785-6.2493 45.913-18.754 60.406-12.493 14.488-29.746 21.732-51.748 21.732-13.861 0-26.072-3.346-36.64-10.032-10.555-6.6863-18.656-16.282-24.267-28.78-5.6342-12.504-8.4397-26.941-8.4397-43.326 0-25.774 6.2493-45.861 18.754-60.251 12.51-14.39 29.66-21.588 51.461-21.588 21.715 0 38.738 7.2899 51.098 21.881 12.355 14.586 18.535 34.575 18.535 59.958" />
                <path d="m3585.9 682.27v-102.49c0-15.885-3.346-27.446-10.032-34.662-6.6805-7.2267-17.058-10.837-31.109-10.837-18.892 0-32.736 4.7718-41.503 14.315-8.7675 9.5551-13.16 25.038-13.16 46.447v87.226h-14.384v-158.02h12.206l2.7653 21.663h0.8682c10.274-16.471 28.55-24.71 54.812-24.71 35.858 0 53.789 19.237 53.789 57.704v103.36z" />
                <path d="m3749.3 641.13c0 14.149-5.3813 25.026-16.144 32.632-10.751 7.6119-26.021 11.412-45.781 11.412-21.128 0-37.904-3.2425-50.305-9.7391v-15.557c15.896 7.9511 32.655 11.924 50.305 11.924 15.598 0 27.441-2.5929 35.536-7.7844 8.0891-5.18 12.136-12.085 12.136-20.708 0-7.9453-3.2195-14.637-9.6586-20.065-6.4448-5.4272-17.04-10.751-31.77-15.988-15.799-5.7204-26.894-10.636-33.293-14.752-6.393-4.1222-11.211-8.7675-14.453-13.959-3.2597-5.18-4.8752-11.51-4.8752-18.978 0-11.815 4.9672-21.168 14.908-28.044 9.9231-6.8875 23.807-10.326 41.647-10.326 17.046 0 33.23 3.1965 48.546 9.5954l-5.3697 13.079c-15.511-6.3931-29.896-9.5954-43.176-9.5954-12.895 0-23.123 2.1387-30.678 6.3988-7.5544 4.2659-11.337 10.182-11.337 17.736 0 8.2443 2.9206 14.827 8.7962 19.771 5.8527 4.9443 17.316 10.463 34.374 16.575 14.252 5.134 24.612 9.7621 31.114 13.884 6.4908 4.1106 11.36 8.7905 14.603 14.022 3.2483 5.2317 4.8753 11.395 4.8753 18.466" />
              </g>
            </g>
            <g fill="#3277b7">
              <path d="m996.61 635.97-56.744 32.782 81.431 46.994 56.738-32.73z" />
            </g>
            <g>
              <g fill="#2e4891">
                <path d="m1093.6 264.59c-84.794 0-153.78 68.973-153.78 153.77v250.4l56.744-32.782v-217.62c0-53.502 43.527-97.029 97.034-97.029s97.029 43.527 97.029 97.029v22.014c17.638 10.216 35.38 20.427 51.783 29.873l4.9673 2.8746v-54.761c0-84.794-68.984-153.77-153.78-153.77" />
                <path d="m1190.7 541.93v94.039l56.75 32.741v-94.045z" />
              </g>
              <g fill="#47a1de">
                <path d="m1190.7 635.97-188.43 108.8c-14.718 8.48-31.419 12.964-48.35 12.964-34.662 0-66.938-18.587-84.231-48.494-26.711-46.338-10.774-105.8 35.541-132.56l19.053-11.004v-65.517l-47.431 27.378c-35.518 20.496-60.935 53.674-71.583 93.395-10.653 39.727-5.226 81.172 15.276 116.68 27.383 47.425 78.522 76.884 133.47 76.884 26.826 0 53.318-7.129 76.619-20.576l113.83-65.736s3.9209-2.2709 10.44-5.9964c2.7078-1.6155 6.0021-3.5012 9.6356-5.5882l12.05-6.9795c2.9206-1.6558 5.9044-3.3863 8.9802-5.1857l3.5645-2.0524c12.177-7.0255 25.457-14.695 37.979-21.933l20.34-11.746z" />
              </g>
              <g fill="#3277b7">
                <path d="m1310.5 527.54-113.83-65.707c-0.012 0-3.9037-2.2652-10.406-5.9676-2.7883-1.6558-6.0423-3.5357-9.6528-5.5939l-12.062-6.9967c-2.7653-1.5638-5.6514-3.2425-8.618-4.9673l-7.8361-4.5188c-18.144-10.463-38.266-22.054-54.427-31.425v65.512l188.46 108.81c46.321 26.757 62.258 86.214 35.53 132.55-17.282 29.913-49.564 48.494-84.225 48.494-16.931 0-33.627-4.4786-48.333-12.964l-19.064-11.004-56.744 32.787 47.425 27.366c23.307 13.453 49.799 20.576 76.625 20.576 54.945 0 106.09-29.459 133.47-76.884 42.389-73.405 17.115-167.65-56.307-210.07" />
              </g>
              <g fill="#47a1de">
                <path d="m1093.6 402.36-81.414 46.999v65.563l81.414-47.045z" />
              </g>
            </g>
          </g>
        </g>
      </g>
    </g>
  </g>
</svg>