<?xml version="1.0" standalone="no"?>
<svg version="1.2" xmlns="http://www.w3.org/2000/svg"
 width="300.000000pt" height="300.000000pt" viewBox="0 0 300.000000 300.000000"
 preserveAspectRatio="xMidYMid meet" baseProfile="tiny-ps">

<title>Mira Exim</title>

<g transform="translate(0.000000,300.000000) scale(0.100000,-0.100000)"
fill="#000000" stroke="none">
<path d="M1081 2138 c-120 -121 -490 -739 -466 -778 12 -20 45 -11 45 12 0 56
321 591 430 718 26 30 30 31 30 13 0 -11 -25 -121 -55 -244 -60 -238 -67 -311
-32 -317 26 -5 52 21 113 116 30 45 58 82 62 82 5 0 19 -26 31 -57 60 -159
162 -233 321 -233 38 0 140 12 226 26 86 14 200 28 253 32 76 6 96 10 96 22 0
24 -164 18 -360 -15 -252 -41 -339 -29 -426 57 -18 18 -43 58 -56 88 -47 108
-55 120 -80 120 -30 0 -52 -23 -110 -113 -31 -47 -48 -66 -51 -55 -2 9 22 118
53 242 61 245 67 309 29 314 -13 2 -33 -9 -53 -30z"/>
<path d="M2283 1532 c-15 -9 -6 -22 29 -45 35 -22 38 -22 38 6 0 16 -9 28 -25
35 -30 14 -27 14 -42 4z"/>
<path d="M570 1000 c0 -163 1 -170 20 -170 19 0 20 7 20 110 0 61 3 110 8 110
4 -1 27 -30 52 -65 25 -36 50 -65 55 -65 6 0 31 30 58 67 l47 66 0 -111 0
-112 25 0 25 0 0 170 c0 94 -4 170 -9 170 -5 0 -37 -39 -71 -87 -35 -49 -66
-91 -70 -96 -3 -4 -37 36 -75 88 -37 52 -72 95 -77 95 -4 0 -8 -76 -8 -170z"/>
<path d="M2255 1138 c-7 -18 -38 -91 -69 -162 -31 -72 -56 -134 -56 -138 0 -4
9 -8 21 -8 13 0 23 10 30 30 l11 30 83 0 c82 0 83 0 95 -30 9 -21 19 -30 36
-30 18 0 22 4 16 18 -58 145 -138 322 -145 322 -4 0 -14 -15 -22 -32z m53
-127 c32 -78 31 -81 -33 -81 -30 0 -55 4 -55 10 0 21 54 140 60 133 4 -5 16
-32 28 -62z"/>
<path d="M1210 995 l0 -165 25 0 25 0 0 165 0 165 -25 0 -25 0 0 -165z"/>
<path d="M1590 995 l0 -165 25 0 c24 0 25 2 25 70 l0 70 30 0 c25 0 38 -11 82
-70 38 -51 59 -70 75 -70 13 0 23 3 23 6 0 3 -20 32 -45 64 -25 32 -45 61 -45
63 0 3 14 19 30 35 41 42 41 92 1 133 -28 28 -34 29 -115 29 l-86 0 0 -165z
m168 113 c7 -7 12 -26 12 -43 0 -44 -16 -55 -77 -55 l-53 0 0 55 0 55 53 0
c29 0 58 -5 65 -12z"/>
</g>
</svg>
