<?xml version="1.0" encoding="UTF-8" standalone="yes"?>
<svg width="300" height="300" viewBox="0 0 300 300" fill="none" version="1.2" baseProfile="tiny-ps" xmlns="http://www.w3.org/2000/svg">
  <title>bimi-svg-tiny-12-ps</title>
  <rect width="300" height="300" fill="white"/>
  <path d="M18.6484 164.562C12.0859 164.562 7.58594 161.727 6.27344 157.789C6.10938 157.273 5.99219 156.711 5.99219 156.148C5.99219 154.625 6.92969 153.641 8.35938 153.641C9.55469 153.641 10.3281 154.18 10.8438 155.445C11.8984 158.609 14.9688 160.086 18.8828 160.086C23.1719 160.086 26.2422 157.883 26.2422 154.859C26.2422 152.234 24.4609 150.594 19.9375 149.609L16.2344 148.836C9.48438 147.406 6.41406 144.266 6.41406 139.391C6.41406 133.602 11.5 129.617 18.6953 129.617C24.5312 129.617 29.125 132.359 30.4375 136.883C30.5547 137.211 30.625 137.609 30.625 138.102C30.625 139.461 29.6641 140.352 28.3047 140.352C27.0391 140.352 26.2656 139.766 25.7266 138.547C24.5781 135.43 22 134.094 18.625 134.094C14.6641 134.094 11.7344 136.016 11.7344 139.109C11.7344 141.57 13.4922 143.211 17.875 144.148L21.5547 144.922C28.6562 146.422 31.5625 149.258 31.5625 154.18C31.5625 160.555 26.5469 164.562 18.6484 164.562ZM38.3828 164.445C36.9062 164.445 35.8516 163.438 35.8516 161.773V132.359C35.8516 130.766 36.8125 129.734 38.3594 129.734C39.9297 129.734 40.8672 130.766 40.8672 132.359V143.469H40.9844C42.3438 140.586 45.0391 138.922 48.7891 138.922C54.2031 138.922 57.4375 142.531 57.4375 148.109V161.773C57.4375 163.438 56.3828 164.445 54.8828 164.445C53.4062 164.445 52.3516 163.438 52.3516 161.773V149.094C52.3516 145.461 50.5234 143.281 46.9609 143.281C43.2109 143.281 40.9141 145.859 40.9141 149.75V161.773C40.9141 163.438 39.8594 164.445 38.3828 164.445ZM73.0234 164.469C65.5938 164.469 61.2344 159.758 61.2344 151.789C61.2344 143.961 65.6875 138.898 72.6719 138.898C79.2344 138.898 83.7578 143.633 83.7578 150.359C83.7578 152 82.8203 152.938 81.25 152.938H66.3438V153.055C66.3438 157.555 68.875 160.367 72.9062 160.367C75.6719 160.367 77.4062 159.406 79.2812 156.852C79.8203 156.219 80.3359 155.961 81.0625 155.961C82.2812 155.961 83.1719 156.758 83.1719 158.023C83.1719 158.422 83.0312 158.891 82.8203 159.383C81.2031 162.617 77.6172 164.469 73.0234 164.469ZM66.3672 149.398H78.6953C78.5781 145.531 76.1641 142.977 72.6484 142.977C69.1562 142.977 66.625 145.555 66.3672 149.398ZM90.4141 164.445C88.9375 164.445 87.8828 163.438 87.8828 161.773V132.406C87.8828 130.742 88.9375 129.734 90.4141 129.734C91.8906 129.734 92.9453 130.742 92.9453 132.406V161.773C92.9453 163.438 91.8906 164.445 90.4141 164.445ZM99.625 158.094V143.352H97.8438C96.5312 143.352 95.7344 142.602 95.7344 141.359C95.7344 140.094 96.5312 139.344 97.8438 139.344H99.625V135.688C99.625 134.07 100.633 132.992 102.18 132.992C103.703 132.992 104.711 134.07 104.711 135.688V139.344H107.594C108.906 139.344 109.703 140.117 109.703 141.359C109.703 142.602 108.906 143.352 107.594 143.352H104.711V156.969C104.711 158.938 105.391 159.828 107.219 159.969L107.617 159.992C109.07 160.133 109.797 160.719 109.797 161.914C109.797 163.438 108.625 164.211 106.141 164.211H105.883C101.734 164.211 99.625 162.172 99.625 158.094ZM123.648 164.469C116.219 164.469 111.859 159.758 111.859 151.789C111.859 143.961 116.312 138.898 123.297 138.898C129.859 138.898 134.383 143.633 134.383 150.359C134.383 152 133.445 152.938 131.875 152.938H116.969V153.055C116.969 157.555 119.5 160.367 123.531 160.367C126.297 160.367 128.031 159.406 129.906 156.852C130.445 156.219 130.961 155.961 131.688 155.961C132.906 155.961 133.797 156.758 133.797 158.023C133.797 158.422 133.656 158.891 133.445 159.383C131.828 162.617 128.242 164.469 123.648 164.469ZM116.992 149.398H129.32C129.203 145.531 126.789 142.977 123.273 142.977C119.781 142.977 117.25 145.555 116.992 149.398ZM140.852 164.445C139.328 164.445 138.32 163.414 138.32 161.773V141.453C138.32 139.906 139.305 138.898 140.734 138.898C142.141 138.898 143.125 139.906 143.125 141.453V143.562H143.242C143.922 140.797 146.195 138.945 148.656 138.945C149.547 138.945 150.227 139.156 150.648 139.555C151.117 139.93 151.328 140.539 151.328 141.336C151.328 142.133 151.07 142.719 150.578 143.117C150.062 143.562 149.312 143.773 148.258 143.773C144.789 143.797 143.383 146.117 143.383 149.188V161.773C143.383 163.414 142.352 164.445 140.852 164.445ZM156.484 164C154.867 164 153.789 162.992 153.789 161.469C153.789 160.695 154.023 160.086 154.633 159.242L172.305 134.891V134.727H156.414C154.961 134.727 153.977 133.836 153.977 132.453C153.977 131.07 154.961 130.18 156.414 130.18H175.984C177.672 130.18 178.75 131.211 178.75 132.781C178.75 133.578 178.492 134.094 177.883 134.961L160.305 159.289V159.453H177.109C178.586 159.453 179.57 160.344 179.57 161.727C179.57 163.109 178.562 164 177.109 164H156.484ZM199.07 164.562C189.32 164.562 183.227 157.859 183.227 147.102C183.227 136.344 189.32 129.617 199.07 129.617C208.797 129.617 214.914 136.344 214.914 147.102C214.914 157.859 208.797 164.562 199.07 164.562ZM199.07 159.945C205.492 159.945 209.523 154.977 209.523 147.102C209.523 139.203 205.492 134.234 199.07 134.234C192.648 134.234 188.594 139.203 188.594 147.102C188.594 154.977 192.648 159.945 199.07 159.945ZM234.555 164.562C224.805 164.562 218.711 157.859 218.711 147.102C218.711 136.344 224.805 129.617 234.555 129.617C244.281 129.617 250.398 136.344 250.398 147.102C250.398 157.859 244.281 164.562 234.555 164.562ZM234.555 159.945C240.977 159.945 245.008 154.977 245.008 147.102C245.008 139.203 240.977 134.234 234.555 134.234C228.133 134.234 224.078 139.203 224.078 147.102C224.078 154.977 228.133 159.945 234.555 159.945ZM257.805 164.375C256.305 164.375 255.414 163.438 255.414 161.867V133.133C255.414 131.094 256.703 129.805 258.789 129.805C260.57 129.805 261.625 130.602 262.422 132.57L272.43 156.875H272.617L282.602 132.57C283.398 130.625 284.477 129.805 286.305 129.805C288.344 129.805 289.633 131.07 289.633 133.133V161.867C289.633 163.438 288.719 164.375 287.242 164.375C285.742 164.375 284.828 163.438 284.828 161.867V139.109H284.664L275.242 161.82C274.68 163.18 273.836 163.789 272.523 163.789C271.211 163.789 270.344 163.18 269.805 161.867L260.359 139.109H260.195V161.867C260.195 163.438 259.305 164.375 257.805 164.375Z" fill="black"/>
</svg>