<?xml version="1.0" encoding="utf-8"?>
<svg version="1.2" id="heavy_g" baseProfile="tiny-ps" xmlns="http://www.w3.org/2000/svg" xmlns:xlink="http://www.w3.org/1999/xlink" viewBox="0 0 314 314" xml:space="preserve">
<title>Galco Industrial Electronics</title>
<g>
<rect width="100%" height="100%" fill="#FFFFFF"/>
<path class="st0" fill="#005DA6" d="M232.2,150.5H165L152.1,186h7.5l-1.8,5.9l-7.1,21.3c-2,6-4,7.9-4,7.9c-1.8,1.5-4.7,3.1-9.7,3.1 c0,0-5.2,0.4-8-3.1c0,0-2.7-2.3-0.6-7.9l36.8-112.1L167,96c0.6-1.3,3.3-5.8,11.7-5.8c0,0,7.6-0.6,9.3,5.8l-0.5,5.1L182,117h61.4l12.7-39.9c0.6-2.1,2-8.3,0.4-14.8l-1-3.1c-2.3-5.5-7.3-10.7-17.5-13.3c0,0-54.5-13.8-95.2,0.5c0,0-9.7,3.3-18.8,12.8l-2.8,3.1c-3.3,4-6.4,8.9-8.8,14.8c0,0-54.2,162-54.7,163.7c-1.5,4.4-0.8,7.9-0.8,7.9c4.9,23.8,33.3,24.8,33.3,24.8c14,0.8,51.4,0.2,51.4,0.2c54,0.2,59.2-25.1,59.2-25.1L232.2,150.5z"/>
</g>
</svg>

