<svg version="1.2" baseProfile="tiny-ps" xmlns="http://www.w3.org/2000/svg" xmlns:xlink="http://www.w3.org/1999/xlink" id="Layer_1" viewBox="0 0 550 255.1" xml:space="preserve">
	<title>Tricorn Corporation</title>
	<g fill="#18316C" stroke="#18316C" stroke-width="4.803">
		<path d="M90.3 175.8h-.2c-4.8 5.7-9.7 8.6-14.9 8.6-3.3 0-5.3-1.2-6-3.6-.7-2.4 0-5.7 2.2-9.8 2.9-5.4 6.6-9.9 11.3-13.5 4.7-3.6 9.3-5.4 13.8-5.4 1.7 0 3 .4 3.9 1.3.9.9 1.2 2 .8 3.4h.1c.4-.7 1.3-2.1 2.5-4.1h4.5c-8.1 13.2-12.2 20-12.4 20.2-2.6 5-2.5 7.5.4 7.5 2.6 0 5.5-1.4 8.7-4.2 3.2-2.8 6-6.5 8.3-10.9 3.5-6.6 4.2-12 2.3-16.2-2-4.2-6.7-6.3-14.1-6.3-7.1 0-14.4 2.5-21.7 7.5-7.3 5-12.9 11.2-16.9 18.7-3.9 7.4-4.8 13.3-2.8 17.9 2 4.5 6.8 6.8 14.3 6.8 5.9 0 11.5-1 16.8-3l-2.4 4.5c-5.1 1.8-10.8 2.7-17 2.7-8.7 0-14.4-2.6-17-7.9-2.6-5.3-1.6-12.2 2.9-20.7 4.6-8.8 11.3-16.1 20-21.9 8.7-5.8 17.4-8.7 26.1-8.7 8.2 0 13.7 2.4 16.5 7.3s2.1 11.2-2 19c-3 5.7-6.9 10.4-11.7 14.1-4.8 3.7-9.2 5.5-13.2 5.5-5-.2-6.1-3-3.1-8.8zm3.9-19.6c-3 0-6.1 1.4-9.5 4.3-3.3 2.8-6.1 6.4-8.3 10.6-1.5 2.8-2.1 5.1-1.7 6.7.4 1.6 1.6 2.5 3.7 2.5 3 0 6.1-1.5 9.4-4.5 3.3-3 6.3-6.9 8.8-11.8 2.7-5.2 1.9-7.8-2.4-7.8zM152.3 193.7H144l2.9-5.4c-3.9 2.2-7.5 3.9-10.7 5.1-3.2 1.2-6.3 1.8-9.4 1.8-5.2 0-8.3-1.6-9.5-4.7-1.2-3.1-.2-7.8 3-13.9l16.8-31.8h8.3l-14.7 27.9c-1.3 2.5-2.3 4.6-3 6.4-.7 1.8-1 3.3-.9 4.5.1 1.3.6 2.2 1.6 2.8.9.6 2.6.9 5 .9 2.1 0 4.8-.6 7.9-1.7 3.1-1.1 6.2-2.5 9.3-4.3l19.3-36.6h8.3l-25.9 49zM192.5 193.2c-1.8.4-3.6.7-5.6 1-2 .3-3.7.4-5.1.4-5 0-8.1-1.3-9.3-4-1.2-2.7-.2-7 2.9-13l13.8-26.1h-5.6l3.7-6.9h5.6l7.4-14.1h8.3l-7.4 14.1h17l-3.7 6.9h-17l-11.8 22.4c-1.4 2.6-2.4 4.6-3 6-.6 1.4-1 2.8-.9 4.1 0 1.2.5 2 1.3 2.6.8.5 2.4.8 4.7.8 1.3 0 2.9-.2 4.5-.6 1.7-.4 2.9-.7 3.7-1h.4l-3.9 7.4zM318.2 168.7c-2.2 4.1-4.7 7.8-7.6 11.1-2.9 3.3-5.9 6-9 8.3-3.3 2.3-6.5 4-9.6 5.2-3.1 1.2-6.1 1.7-9.1 1.7-2.8 0-5-.3-6.8-1-1.7-.7-3.3-1.5-4.7-2.7l-1.7 2.3H262l36.1-68.4h8.3l-12.9 24.4c3.3-1.9 6.6-3.5 9.8-4.7 3.2-1.2 6.5-1.8 9.7-1.8 5.8 0 9.2 2.2 10.2 6.7.9 4.6-.7 10.8-5 18.9zm-8.6.3c3.1-5.9 4.5-10.3 4.1-13.3-.3-3-2.7-4.5-7-4.5-2.4 0-5.1.5-8.1 1.6-3 1-6 2.4-9 4l-14.8 28.1c1.8 1.1 3.4 1.8 4.9 2.2 1.5.4 3.3.6 5.4.6 4.6 0 8.9-1.5 13.1-4.5 4.2-3.1 8-7.8 11.4-14.2zM418.3 193.7H410l14.7-27.9c1.2-2.3 2.2-4.4 3-6.3.8-2 1.1-3.5 1-4.6-.1-1.2-.7-2.1-1.7-2.7-1.1-.6-2.7-.9-4.9-.9-2.3 0-4.9.6-8 1.7-3 1.1-6.2 2.5-9.3 4.3l-19.3 36.6h-8.3l36.1-68.4h8.3l-13 24.7c3.7-2.1 7.3-3.8 10.6-5 3.4-1.2 6.5-1.8 9.4-1.8 5.3 0 8.5 1.6 9.6 4.8 1.1 3.2.1 7.8-3.1 13.8l-16.8 31.7zM469.9 193.7h-8.3l14.7-27.9c1.2-2.3 2.2-4.4 3-6.3.8-2 1.1-3.5 1-4.6-.1-1.2-.7-2.1-1.7-2.7-1.1-.6-2.7-.9-4.9-.9-2.3 0-4.9.6-8 1.7-3 1.1-6.2 2.5-9.3 4.3l-19.3 36.6h-8.3l25.9-49.1h8.3l-2.9 5.4c3.7-2.1 7.2-3.8 10.6-5 3.4-1.2 6.5-1.8 9.4-1.8 5.3 0 8.5 1.6 9.6 4.8 1.1 3.2.1 7.8-3.1 13.8l-16.7 31.7z"/>
	</g>
	<path fill="#18316C" d="M499.2 142.2c-1.1-.7-2.2-1.3-3.3-1.9-.3-.1-.6-.3-.8-.4-.9-.4-1.8-.8-2.8-1.2-3.1-1.2-6.5-2.1-9.9-2.5-5.9-6.7-12.5-12.8-19.7-18.2-.4-.3-.9-.7-1.3-1 .5-.4.9-.9 1.3-1.3.5.2 1 .5 1.5.7 12.1 6.2 23.2 14.1 32.8 23.5.7.8 1.4 1.6 2.2 2.3z"/>
	<path fill="none" stroke="#18316C" stroke-width="1.479" d="m260.1 140.5-48.3 46M261.9 142l-48.4 46.2M263.4 143.8 211.8 193M266.3 144.3l-52.8 50.4M267.2 146.7l-49.7 47.4"/>
	<path fill="#18316C" stroke="#18316C" stroke-width="4.125" stroke-miterlimit="10" d="M367.8 193.9c-2.5.7-3.2.6-5.6.6-8.8 0-10.9-4.6-6.2-13.8h-.3c-7.7 9.2-15.9 13.8-24.5 13.8-5.5 0-9-2-10.3-5.9-1.4-3.9-.3-9.2 3.1-15.8 4.5-8.7 10.6-16 18.2-21.7 7.6-5.8 15.3-8.6 22.8-8.6 2.9 0 5.1.7 6.7 2.2 1.5 1.4 2.1 3.2 1.6 5.4h.2c.6-1.1 2-3.3 4-6.7h7.6c-12.9 21.3-19.4 32.1-19.6 32.5-4.1 8-3.8 12 1 12 1.6 0 3.3-.3 5-.9l-3.7 6.9zm-6.3-44.8c-5 0-10.2 2.3-15.7 6.8-5.4 4.6-9.9 10.2-13.4 17-2.4 4.6-3.2 8.1-2.5 10.8.7 2.6 2.8 3.9 6.3 4 5 0 10.2-2.4 15.6-7.1 5.4-4.8 10.1-11.1 14.2-19 4.3-8.3 2.8-12.4-4.5-12.5z"/>
	<linearGradient id="a" gradientUnits="userSpaceOnUse" x1="248.818" y1="141.185" x2="249.291" y2="141.185">
		<stop offset=".039" stop-color="#fff"/>
		<stop offset=".235" stop-color="#18316c"/>
		<stop offset=".996" stop-color="#18316c"/>
	</linearGradient>
	<path fill="url(#a)" d="M249.3 141.1c0 .1 0 .1 0 0l-.5.1c.2 0 .3 0 .5-.1z"/>
	<linearGradient id="b" gradientUnits="userSpaceOnUse" x1="254.958" y1="118.903" x2="255.084" y2="118.903">
		<stop offset=".039" stop-color="#fff"/>
		<stop offset=".235" stop-color="#18316c"/>
		<stop offset=".996" stop-color="#18316c"/>
	</linearGradient>
	<path fill="url(#b)" d="M255.1 118.7c0 .2-.1.3-.1.5 0-.2 0-.4.1-.5z"/>
	<linearGradient id="c" gradientUnits="userSpaceOnUse" x1="276.312" y1="-8.861" x2="390.665" y2="189.204">
		<stop offset=".05" stop-color="#fff" stop-opacity="0"/>
		<stop offset=".15" stop-color="#a0aac8"/>
		<stop offset=".3" stop-color="#18316c"/>
		<stop offset=".3" stop-color="#18316c"/>
		<stop offset=".624" stop-color="#18316c"/>
		<stop offset="1" stop-color="#18316c"/>
	</linearGradient>
	<path fill="url(#c)" d="M484.6 104.3c-3.8.1-7.4.8-10.9 1.9l-.9.3c-3.3 1.1-6.4 2.7-9.2 4.6 1-2 1.6-4.4 1.6-6.8 0-6.5-4-12-9.6-14.3-.2-.1-.4-.1-.6-.2-.2-.1-.3-.1-.5-.2-.1-.1-.3-.1-.4-.1-.3-.1-.5-.1-.8-.2-.2-.1-.4-.1-.6-.1-.9-.2-1.9-.3-2.9-.3-7.2 0-13.2 4.9-15 11.5-.2.8-.4 1.6-.5 2.4 0 .3 0 .6-.1.8v2.1c-2.6-1.4-5.2-2.6-7.9-3.8-8.4-3.7-17.3-6.5-26.5-8.4h-.2c.1 0 .1 0 .2.1 4.6 1.2 9.1 2.7 13.4 4.4l2.4.9c.7.3 1.5.6 2.2.9.9.4 1.8.8 2.6 1.2 2.5 1.1 4.9 2.4 7.3 3.6.3.2.6.3.9.5.3.2.6.3.9.5l.1.1c.5.3 1.1.6 1.6.9 1.2.7 2.3 1.4 3.5 2.1.1 0 .1.1.2.1h.1c.5.3.9.6 1.4.9.5.3.9.6 1.3.9.9.6 1.8 1.2 2.6 1.8.4.3.9.6 1.3.9.4.3.9.6 1.3.9.4.3.9.6 1.3.9 2 1.5 3.9 3 5.8 4.6l2.4 2.1c.6.5 1.2 1 1.8 1.6l.1.1c2 1.8 3.9 3.6 5.7 5.5 1.7 1.8 3.4 3.6 5 5.5.4.5.8.9 1.2 1.4.8 1 1.6 1.9 2.4 2.9l.1.1.3.3c.5.7 1.1 1.4 1.6 2.1.3.4.6.8.9 1.1-.1-.1-.2-.1-.3-.2-.4-.2-.7-.4-1.1-.7l-.6-.3c-.2-.1-.3-.2-.5-.3-1.3-.7-2.6-1.3-3.9-1.9-.2-.1-.4-.2-.6-.2-.1 0-.2-.1-.2-.1-.2-.1-.4-.2-.6-.2-.6-.2-1.3-.4-1.9-.6l-.9-.3c-.3-.1-.7-.2-1-.3-.6-.2-1.2-.3-1.8-.4-.6-.1-1.3-.3-1.9-.4-.6-.1-1.2-.2-1.7-.2-.4-.1-.9-.1-1.3-.1-.5-.5-1-1.1-1.5-1.6-1.2-1.3-2.4-2.7-3.7-3.9l-.3-.3-.1-.1c-.4-.4-.7-.8-1.1-1.1l-.4-.4-.1-.1-.1-.1c-.3-.3-.6-.6-1-.9-.4-.4-.8-.7-1.2-1.1-.2-.1-.3-.3-.5-.4l-.1-.1c-.4-.4-.9-.8-1.4-1.2-.5-.4-.9-.8-1.4-1.2-.3-.2-.5-.5-.8-.7-.1-.1-.3-.2-.4-.3-.5-.4-.9-.8-1.4-1.2l-.1-.1c-.6-.5-1.1-.9-1.7-1.4-1.2-1-2.5-2-3.8-2.9-.4-.3-.8-.6-1.3-.9-.1-.1-.2-.2-.3-.2-.4-.3-.9-.6-1.3-.9-.4-.3-.8-.6-1.2-.8-.7-.5-1.3-.9-2-1.4-1-.7-2-1.3-3-2-.5-.3-.9-.6-1.4-.8-.9-.5-1.7-1-2.6-1.5-.1-.1-.2-.1-.3-.2-.9-.5-1.8-1-2.6-1.5-.5-.3-.9-.5-1.4-.8-.5-.3-.9-.5-1.4-.7-.5-.3-.9-.5-1.4-.7-.9-.5-1.8-.9-2.7-1.3-.1 0-.2-.1-.2-.1-1.9-.9-3.9-1.7-5.8-2.5-.9-.4-1.8-.7-2.6-1-.1 0-.2-.1-.4-.1-1.5-.6-3-1.1-4.6-1.6-.5-.2-1-.3-1.5-.5-2.6-.8-5.1-1.6-7.8-2.3-1.1-.3-2.1-.5-3.2-.8-2.1-.5-4.3-.9-6.4-1.3h-.1c-1.6-.3-3.2-.5-4.8-.8-.5-.1-1.1-.2-1.6-.2-.6-.1-1.3-.2-1.9-.2-.9-.1-1.9-.2-2.8-.3-1-.1-2-.2-3-.2-1-.1-2-.1-3-.2-.5 0-1 0-1.5-.1-1.5-.1-3-.1-4.6-.1-3.7 0-7.3.1-10.9.5-3.3.3-6.6.7-9.9 1.2-.5.1-1.1.2-1.6.3-.5.1-1.1.2-1.6.3-1.6.3-3.2.6-4.8 1-2.1.5-4.2 1-6.3 1.6-25.2 6.9-47.5 21.2-64.2 40.4-.4.5-.9 1-1.3 1.5-.5.6-1 1.1-1.4 1.7-.7.8-1.3 1.6-1.9 2.4-.2 0-.3.1-.5.1-1.9.3-3.8.8-5.8 1.4h-5.4c.4-.3.9-.6 1.3-.9.3-.2.5-.4.8-.6.2-.2.4-.3.7-.5.6-.5 1.2-.9 1.8-1.4l.1-.1c.9-.8 1.7-1.6 2.5-2.4 4.7-4.9 8.3-10.9 10.1-17.7.1-.2.1-.3.1-.5l1.5.6c.2.1.4.1.6.2 1.4.4 2.8.6 4.3.6 2.4 0 4.8-.6 6.8-1.6.2-.1.5-.2.7-.3.2-.1.5-.3.7-.4 0 0 .1 0 .1-.1.2-.1.5-.3.7-.5.2-.1.4-.3.7-.5l.3-.3.4-.4c.2-.2.4-.3.5-.5 2.8-2.8 4.5-6.7 4.5-10.9 0-1.2-.1-2.3-.4-3.4v-.1c-3.6.3-7.2.5-10.9.5-3.3 0-6.6-.1-9.9-.4-.3 0-.6 0-.9-.1-2.8-.2-5.5-.5-8.2-.9-1.4-.2-2.7-.4-4.1-.7-.5-.1-.9-.2-1.4-.3-1.1-.2-2.1-.4-3.2-.6-.3-.1-.6-.1-.9-.2-.5-.1-.9-.2-1.4-.3-.6-.1-1.2-.3-1.8-.4-1.3-.3-2.7-.7-4-1-.5-.1-1-.3-1.5-.4-.5-.1-1-.3-1.5-.4-1.5-.4-2.9-.9-4.3-1.4-1.4-.5-2.9-1-4.3-1.5-.9-.4-1.9-.7-2.8-1.1-.5-.2-.9-.4-1.4-.6-1.4-.6-2.8-1.2-4.1-1.8-.4-.2-.8-.4-1.3-.6-.4-.2-.8-.4-1.3-.6-.8-.4-1.7-.8-2.5-1.3-.1-.1-.2-.1-.3-.2l-3.9-2.1c-.4-.2-.9-.5-1.3-.7l-.1-.1c-.4-.2-.8-.5-1.2-.7-.4-.2-.8-.5-1.3-.8l-1.5-.9c-1.7-1.1-3.4-2.2-5.1-3.4-.3-.2-.7-.5-1-.7-1.3-.9-2.6-1.9-3.9-2.9-.9-.7-1.9-1.5-2.8-2.2-.6-.5-1.1-.9-1.6-1.4-.5-.4-.9-.8-1.4-1.2-.4-.3-.7-.6-1.1-.9-4.8-4.2-9.3-8.7-13.4-13.6l.9.6c6.9 4.7 14.2 8.8 22 12.1 1.3.6 2.5 1.1 3.8 1.6 1.9 1.3 3.9 2.5 5.9 3.6.1.1.3.2.4.2 1.4.8 2.7 1.5 4.1 2.2l3 1.5c.5.2 1 .5 1.4.7.8.4 1.7.8 2.5 1.2 12.8 5.8 26.7 9.6 41.2 11.1 1.5.2 3.1.3 4.6.4 2.9.2 5.8.3 8.7.3 1.5 0 3 0 4.4-.1 21.6-.7 41.9-6.6 59.7-16.5.1 0 .1-.1.2-.1 1.3-.7 2.6-1.5 3.9-2.3h.1c9.3-5.2 19.4-9.3 29.9-12.1 10.9-2.9 22.3-4.4 34.1-4.4 24.7 0 47.7 6.8 67.5 18.5 1.6-1.4 3.3-2.7 5-3.8 0 2.3.3 4.6.7 6.8 0 .2.1.5.1.7 2.8 1.9 5.6 3.9 8.2 6 .1 2.1.4 4.2.8 6.2.1.3.1.6.2.8.1.6.3 1.1.4 1.7.1.3.1.5.2.8.1.4.2.7.3 1.1.2.7.5 1.4.7 2.1.1.3.3.7.4 1 .3.6.5 1.2.8 1.8 0 .1 0 .1.1.2.4.8.7 1.5 1.2 2.2.1.3.3.5.5.8l.3.6c.1.2.3.5.4.7.7-.3.9-.1 1 .2z"/>
	<g fill="#18316C" stroke="#18316C" stroke-width="4.803" stroke-miterlimit="10">
		<path d="M225.2 195.3h-.5.5zM271.4 147.8c-.9-2.2-2.6-3.9-5-5.1-.1 0-.2-.1-.3-.1-2.6-1.2-6.8-1.8-10.9-1.8-2 0-4 .2-5.9.5-.2 0-.3.1-.5.1-1.9.3-3.8.8-5.8 1.4-4.1 1.3-8.2 3.4-12.4 6.1-8.1 5.3-14.4 12.1-18.8 20.2-4.2 7.9-5.1 14.3-2.7 19.1 2.4 4.8 7.6 7.3 15.7 7.3 4 0 8-.6 11.8-1.8 3.9-1.2 7.7-3 11.5-5.4 3.6-2.3 7-5.1 10.2-8.5 3.2-3.4 6.1-7.3 8.6-11.6s4.1-8.2 4.8-11.6c.8-3.6.7-6.5-.3-8.8zm-11.5 19.3c-4.4 7.2-9.7 12.7-15.7 16.5-6.1 3.8-12.3 5.7-18.6 5.7-6.3 0-10.2-1.9-11.6-5.7-1.4-3.8.1-9.3 4.5-16.5 4.4-7.1 9.6-12.6 15.6-16.4 6.1-3.9 12.3-5.8 18.8-5.8 6.4 0 10.3 1.9 11.6 5.8 1.2 3.8-.3 9.3-4.6 16.4z"/>
	</g>
	<path fill="none" d="M50.6 55.3h448.6v145.3H50.6z"/>
</svg>