<?xml version="1.0" encoding="UTF-8"?>
<!-- Generator: Adobe Illustrator 26.5.0, SVG Export Plug-In . SVG Version: 6.00 Build 0) -->
<svg version="1.2" baseProfile="tiny-ps" id="Layer_1" xmlns="http://www.w3.org/2000/svg" xmlns:xlink="http://www.w3.org/1999/xlink" viewBox="0 0 612 612" xml:space="preserve">
    <title>Your Brand</title>
    <rect fill-rule="evenodd" fill="#F4EFE8" width="612" height="612" />
    <path fill-rule="evenodd" fill="#2C2929" d="M306,60.57c67.77,0,129.13,27.47,173.55,71.89c44.41,44.42,71.89,105.77,71.89,173.55
c0,67.77-27.47,129.13-71.89,173.55c-44.42,44.41-105.77,71.89-173.55,71.89c-29.81,0-58.39-5.32-84.82-15.06V513.1
c26.16,10.73,54.8,16.64,84.82,16.64c61.78,0,117.72-25.04,158.21-65.53c40.48-40.49,65.53-96.42,65.53-158.21
c0-61.78-25.04-117.72-65.53-158.21C423.72,107.31,367.78,82.26,306,82.26c-6.99,0-13.91,0.32-20.74,0.95v131.94v33v12.57h47.9
v19.86h-47.9v88.21c0,9.35,2.34,15.87,7.01,19.57c4.67,3.7,10.81,5.55,18.4,5.55c3.89,0,7.55-0.39,10.95-1.17
c3.41-0.78,7.06-2.14,10.95-4.09v19.28c-3.89,2.14-8.03,3.75-12.41,4.82c-4.38,1.07-9.3,1.61-14.75,1.61
c-6.04,0-11.68-0.78-16.94-2.34c-5.26-1.56-9.79-4.04-13.58-7.45c-3.8-3.41-6.77-7.84-8.91-13.29c-2.14-5.45-3.21-11.98-3.21-19.57
v-91.14H246.3h-47.61v43.02v88.13v97.31h0v17.73c-24.67-12.02-47.03-28.04-66.23-47.24C88.04,435.13,60.57,373.77,60.57,306
c0-67.77,27.47-129.13,71.89-173.55c29.49-29.5,66.47-51.51,107.82-62.98v22.6c-35.36,10.85-66.99,30.22-92.48,55.72
C107.31,188.28,82.26,244.22,82.26,306c0,61.78,25.04,117.72,65.53,158.21c8.77,8.77,18.27,16.82,28.4,24.05v-76.51v-88.13v-43.02
h-20.74v-19.57v-0.29h20.74v-12.85c0-16.55,3.94-29.11,11.83-37.68c7.89-8.57,19.13-12.85,33.74-12.85c5.26,0,9.78,0.29,13.58,0.88
c3.8,0.59,7.55,1.56,11.25,2.92v19.57c-4.09-1.17-7.79-2.09-11.1-2.77c-3.31-0.68-6.91-1.02-10.81-1.02
c-17.53,0-26.29,10.71-26.29,32.13v11.68h64.38v-12.57v-33V86.44V71.19v-6.82C276.8,61.87,291.25,60.57,306,60.57L306,60.57z
M456.54,369.39v-0.58c0-6.82-1.41-12.56-4.24-17.23c-2.82-4.67-6.57-8.66-11.25-11.98c-4.67-3.31-9.88-6.04-15.63-8.18
c-5.74-2.14-11.54-4.09-17.38-5.84c-5.06-1.56-9.93-3.12-14.6-4.67c-4.67-1.56-8.81-3.31-12.42-5.26c-3.6-1.95-6.47-4.24-8.62-6.87
c-2.14-2.63-3.21-5.69-3.21-9.2v-0.58c0-6.23,2.63-11.44,7.89-15.63c5.26-4.19,12.37-6.28,21.32-6.28c7.4,0,14.94,1.31,22.64,3.94
c7.69,2.63,15.05,6.18,22.05,10.66l10.22-16.94c-7.79-5.06-16.46-9.1-26-12.12c-9.54-3.02-18.99-4.53-28.33-4.53
c-7.4,0-14.27,1.02-20.59,3.07c-6.33,2.05-11.78,4.97-16.36,8.76c-4.58,3.8-8.13,8.37-10.66,13.73c-2.53,5.35-3.8,11.25-3.8,17.67
v0.58c0,7.01,1.51,12.85,4.53,17.53c3.02,4.67,6.91,8.57,11.69,11.68c4.77,3.12,10.13,5.7,16.07,7.74
c5.94,2.05,11.83,3.94,17.67,5.7c4.87,1.36,9.59,2.82,14.17,4.38c4.58,1.56,8.62,3.36,12.12,5.4c3.51,2.05,6.28,4.43,8.32,7.16
c2.05,2.73,3.07,5.94,3.07,9.64v0.58c0,7.4-2.92,13.24-8.76,17.53c-5.84,4.28-13.34,6.43-22.49,6.43c-8.96,0-17.87-1.66-26.73-4.96
c-8.86-3.31-17.38-8.08-25.56-14.31l-11.39,16.06c8.57,6.82,18.4,12.22,29.5,16.21c11.1,3.99,22.1,5.99,33.01,5.99
c7.59,0,14.65-1.02,21.18-3.07c6.52-2.05,12.17-5.02,16.94-8.91c4.77-3.89,8.57-8.62,11.39-14.17
C455.13,382.97,456.54,376.59,456.54,369.39z" />
</svg>