<?xml version="1.0"?><svg version="1.2" baseProfile="tiny-ps" viewBox="0 0 300 300" xmlns="http://www.w3.org/2000/svg" xmlns:xlink="http://www.w3.org/1999/xlink"><title>terStal</title><g><g fill="#fff" transform="matrix(.1 0 0 -.1 0 300)"><path d="M0 1500V0h3000v3000H0V1500z"/></g><g fill="#fce1d2" transform="matrix(.1 0 0 -.1 0 300)"><path d="M2744 1847c-3-8-4-145-2-304l3-288 20-33 20-32 40-20 41-20h38c38 0 75 14 88 34 4 6 8 28 8 49v37h-89l-15 16-16 15v498l-22 25-23 26-42 6-43 7-6-16zm-1329-33-40-15-34-32c-18-17-42-50-52-72l-19-40v-32c0-92 63-154 190-183 30-7 72-19 93-27l37-15 6-24c3-13 3-36 0-50l-7-25-34-15-34-14h-39c-51 0-123 22-161 50l-31 21-6-15c-8-22 4-86 23-114l15-24 46-21 47-20 70-1h70l40 13c22 8 55 25 74 39l33 25 19 41 19 41v106l-15 29c-29 56-80 83-227 120l-47 12-21 20-21 20 3 25 3 26 27 20 27 20 55 5 54 4 50-16c28-10 56-24 62-32 7-7 19-14 28-14h15l-5 45-6 45-17 26-17 26-41 19-42 19-75-1h-75l-40-15zM39 1761l-39-39v-437l19-41 19-41 35-21 34-22 46-6 45-7 36 7 36 7 20 21 20 22v88l-16-6c-9-3-32-9-52-12l-37-6-27 11-27 10-10 38-11 38v195h140l20 20 20 20v80H130v120H78l-39-39zm1865 21c-12-9-30-30-40-47l-19-29-3-171-4-170 11-58 11-58 21-30c11-16 35-37 52-46l32-17 73-1h74l24 28 24 28v79l-32-8c-18-4-50-7-71-7l-37 1-18 17-17 18-3 124-4 125h129l27 21 26 20v79h-180v120h-55l-21-18zM504 1671l-40-18-37-44-37-43-15-50-15-50v-121l24-50 23-50 38-34c21-18 55-41 74-49l36-16 75 1h76l40 21 40 20 12 27c11 25 17 95 8 95-3 0-22-10-42-22l-37-22h-73l-72-1-29 21c-15 11-33 32-40 45l-12 24 113 6 113 6 39 20 39 20 15 41 14 42-12 47-13 48-24 31-24 32-44 21-43 21H545l-41-19zm151-105 34-15 7-26 7-27-17-16-17-17-84-4-85-3v16c0 10 7 30 15 46l15 29 28 15c34 19 54 20 97 2zm386 111-34-11-32-33-32-33-11-39-12-38v-314l25-24 24-25h91v347l22 28 21 27 64-5 63-5v23c0 12-5 36-11 53l-10 30-34 16-33 16-34-1c-18-1-48-6-67-12zm1273-6-41-18-21-28-22-28v-38c0-22 3-39 6-39s20 10 37 22l32 23 67 3c37 3 78 2 91-2l24-6 11-25c7-14 12-32 12-39v-13l-83-5-83-4-48-23-48-24-19-31-19-31v-100l24-36 25-36 38-19 38-19h191l37 25 36 25 23 40 23 40v220l-14 47-13 48-34 32c-18 18-48 38-66 44l-33 12-65 1-65 1-41-19zm196-331v-40l-20-20-20-20h-76l-22 16-23 16 3 31 3 32 25 12 25 13h105v-40z"/></g><g fill="#f7c0a0" transform="matrix(.1 0 0 -.1 0 300)"><path d="M2750 1551v-298l23-34 23-34 29-14 30-15h53l54-1 19 24 19 23v58h-32c-18 0-44 6-58 13l-25 13-5 263-5 263-24 19-23 19h-78v-299zm-1322 265c-52-19-82-40-112-78l-25-33-12-46-12-45 14-44 14-44 41-32 42-31 88-22c49-12 99-29 112-37l22-14v-77l-21-19-20-18-64-4-63-4-36 12c-19 6-51 22-71 35l-35 24v-90l15-28 14-29 46-22 46-22 92 4 92 4 42 23c66 38 103 103 103 183v40l-17 35-17 36-43 27-44 28-72 16-72 16-33 20-32 20v26c0 14 4 34 10 44l10 18 31 11 32 11h114l57-28 56-29v99l-28 28-29 28-39 11c-21 6-66 11-99 11l-60-1-37-13zM56 1779c-14-11-33-34-41-49l-15-29v-396l10-37 10-36 35-31 35-30 42-12 43-11 45 6 45 6 23 25 22 26v76l-50-11-50-10-27 10-28 9-12 25-13 25v225h127l27 21 26 20v79H130v120H83l-27-21zm1833-18-39-39v-433l14-34c8-19 27-46 41-59l27-25 53-12 53-12 37 7 37 7 24 24 24 24v83l-17-7c-10-4-39-10-65-12l-47-5-25 25-26 26v241h127l27 21 26 20v79h-180v120h-52l-39-39zm-1386-95-52-25-31-42-30-42-15-50c-8-28-15-72-15-97v-46l15-45c9-25 29-61 45-81l30-36 52-26 52-26h147l32 14c18 7 40 23 51 34l18 21 6 46 5 46-43-22-43-23-52-4-53-4-36 12-35 11-26 30c-14 17-25 34-25 38v8l108 6 107 5 30 12c17 6 40 21 52 32l22 20 6 37 5 36-9 34c-6 19-21 49-33 68l-23 33-49 25-50 25H555l-52-24zm172-111 25-24v-51l-26-10-25-10H500v52l34 34 34 34h83l24-25zm390 126c-67-17-117-65-135-129l-10-37v-306l25-24 24-25h91v358l18 21 17 22 35 2c19 1 48-2 63-6l28-8-3 47-3 47-25 18c-30 22-84 30-125 20zm1262-5c-46-17-64-32-83-67-14-28-20-89-8-89 3 0 17 9 31 19l24 20 53 12 54 12 36-7 37-7 20-20 19-19v-47l-79-6-78-5-44-20c-24-10-55-31-68-45l-23-26-5-45-6-46 13-30c7-16 28-43 46-60l33-29 38-10c21-6 65-11 98-11h60l40 19c46 21 79 54 94 94l11 28v244l-19 40-18 41-32 27-32 26-37 11c-20 5-59 10-87 10l-50-1-38-13zm183-336v-40l-20-20-20-20h-76l-22 16-22 15v58l22 15 22 16h116v-40z"/></g><g fill="#f39d6a" transform="matrix(.1 0 0 -.1 0 300)"><path d="M2750 1560v-291l14-34 14-33 27-18c14-9 44-20 67-24l40-8 34 10 34 9 10 19c5 10 10 30 10 44v26h-76l-22 16-22 15v478l-10 27c-6 15-18 33-28 40l-17 13-37 1h-38v-290zm-1318 256c-23-8-58-26-77-41l-35-26-21-40-20-40-1-50v-49l19-32 19-33 39-22c22-12 71-30 110-39 38-9 83-23 98-31l28-14 11-24 11-24-12-30-13-29-29-12-28-12-74 4-74 3-41 28c-23 15-44 27-47 27s-5-20-5-45v-44l30-34 29-34 39-11c50-15 140-15 199 0l46 11 42 41 43 41 11 40c15 53 14 89-3 128l-13 32-35 31-35 30-49 13c-98 26-149 44-166 59l-18 15v67l33 20 32 20h136l36-15c21-9 45-23 55-32l18-16v41c0 23-5 53-12 67l-12 27-40 20-41 21-70 4-70 3-43-14zM64 1781l-31-19-16-35-17-35v-377l11-40 11-39 32-32 32-32 56-11 57-12 40 11 40 11 16 22 15 21v76l-26-10c-14-6-45-10-69-10h-44l-20 26-21 27v235l69 4 70 4 20 18 21 19v77H130v120h-17c-10 0-32-9-49-19zm1856 6c-13-7-35-28-47-46l-23-34v-402l10-34c11-40 43-77 84-98l29-15 56-1c31 0 66 3 79 7l22 7 15 29c8 16 15 40 15 54v25l-69-6-68-6-22 22-21 21v247l72 5 72 6 18 22 18 22v68h-179l-3 57-3 58-15 2c-8 2-26-3-40-10zM524 1674l-42-15-37-36-38-37-20-45-21-46v-160l21-41c27-50 75-98 122-121l36-17 68-4 68-4 45 17 44 17 15 21 15 21v75l-42-19-43-20h-57c-31 0-68 4-83 10-29 11-75 57-75 75v12l103 6 102 6 35 12 35 11 23 25 22 24v100l-14 32-13 32-36 32-36 32-38 10c-51 15-109 12-159-5zm150-115 26-20v-58l-17-9c-10-5-55-13-100-16l-83-7v28c1 37 21 72 51 89l24 13 36 1h36l27-21zm1667 119c-18-5-45-17-59-26l-25-16-13-33c-8-18-14-44-14-58v-26l28 20c16 11 50 25 76 32l47 12 46-6 47-5 18-22 18-22v-45l-72-6c-96-9-141-22-178-53l-30-25-11-39-12-38 8-38 7-39 38-36 38-37 52-12 52-13 60 6 59 5 40 27 41 26 19 42 19 42v206l-12 46-11 46-37 37-37 37-46 11c-54 14-109 14-156 0zm169-335v-46l-17-19-16-18h-97l-20 20c-23 23-25 49-6 75l13 18 44 7c24 4 56 8 72 9l27 1v-47zm-1488 320c-42-20-77-66-91-118l-11-40v-274l11-24 11-25 25-11c13-6 37-11 53-11h30v325l18 35 17 35 28 9 27 10 40-11 40-10v78l-25 24-24 25h-116l-33-17z"/></g><g fill="#ef8040" transform="matrix(.1 0 0 -.1 0 300)"><path d="M2750 1563v-288l19-41 18-41 36-16 35-17h49c26 0 53 4 59 8 16 11 34 48 34 71v21h-87l-19 21-19 21-3 254-3 253-26 21-26 20h-67v-287zm-1291 260c-15-2-51-18-80-36l-53-32-23-44-23-44v-99l16-27c9-15 31-37 49-49l32-23 91-24c50-13 101-30 112-37l21-13 5-23c4-12 3-33 0-47l-6-25-27-17-26-17h-135l-63 32-62 32 5-50 5-50 19-21c10-12 32-28 47-36l29-14 67-6 67-6 60 18 59 17 36 38 36 38 12 48 12 47-6 39-7 39-25 30c-33 39-80 62-173 84l-75 18-28 29-28 28 6 22c4 13 16 32 26 43l19 19 65 4c83 5 124-3 169-33l36-24v91l-33 33-32 32-53 12c-52 11-91 12-143 4zM42 1755l-31-34-6-45c-4-24-5-122-4-218l4-173 21-40 21-40 39-22 39-23h114l24 11 25 11 11 25c6 13 11 34 11 47v23l-69-5-68-5-22 22-21 21v260h140l20 20 20 20v70H130v110H72l-30-35zm1847 4-28-30-6-33c-4-18-5-120-3-227l3-194 20-34c11-19 33-43 48-55l28-21 73-3 73-4 27 23 27 24 5 36 6 36-70-5-69-5-22 22-21 21v260h136l18 13 18 13 2 40 1 39-87 3-88 3v109h-62l-29-31zm-1339-78c-76-23-127-70-161-145l-21-49-1-71v-71l15-36c21-50 74-106 122-132l41-22h85l85 1 32 17c39 21 53 44 53 91v35l-45-20-45-20h-59l-59-1-30 16c-35 18-62 52-62 78v18h195l39 11 39 11 23 23 24 24v96l-19 41-19 41-33 26c-55 41-137 57-199 38zm130-121 20-20v-58l-14-11-14-12-85-6-84-6-6 10-6 10 10 36 10 36 26 21 26 20h97l20-20zm1667 116-48-13-24-23-25-24-11-39c-6-21-8-41-6-43 3-3 21 5 42 17l37 22 72 5 72 4 26-23 26-24 6-26 6-27-78-7c-42-3-95-12-116-18l-40-11-32-32-32-33-7-41-7-41 24-47 23-47 50-25 50-25h75l75 1 43 24 43 24 22 36 22 35v270l-27 47-28 46-42 21-43 20-50 5-50 6-48-14zm171-314c2-12-2-38-8-57l-11-35-38-11-37-11-37 15-36 16-6 24-7 25 11 21 11 21 33 9c17 5 52 9 77 8l45-2 3-23zm-1498 296-45-23-22-45-23-44v-343l19-17 19-18 41-5 40-5 3 182 3 182 29 25 30 25 53-5 53-6v29c0 42-9 59-41 75l-28 15h-87l-44-22z"/></g><g fill="#eb6618" transform="matrix(.1 0 0 -.1 0 300)"><path d="m2752 1552 3-301 21-28c11-15 36-36 55-45l34-18h83l20 18 20 17 7 33 7 32h-92l-20 20-20 20v498l-18 22-17 21-43 6-43 6 3-301zm-1347 249c-49-23-89-64-109-113l-16-37v-76l20-33 20-32 32-20c18-11 49-25 68-30s61-16 93-25l58-16 19-19 20-20v-61l-24-24-23-23-48-8-47-7-52 12-52 12-37 25-37 25v-31c0-17 6-45 14-63l13-33 27-18 28-18 59-11 59-11 62 12 61 11 38 26 39 25 20 40 21 41v53l1 53-16 32-17 31-37 24-37 25-70 17c-38 9-87 25-107 35l-37 19-6 21-7 20 12 28 11 28 25 12c14 6 42 14 63 17l38 6 56-12 56-11 24-20c14-10 28-19 31-19 13 0 5 57-12 89l-17 34-35 19-35 18h-170l-40-19zM44 1756l-34-34v-444l22-39 22-39 41-20 41-20h113l26 22 26 23 5 35 6 35-75-3-74-4-17 23-16 23v256h136l17 13 17 12 7 38 6 37H130v120H78l-34-34zm1848-1-31-35-6-33c-4-19-5-117-3-218l3-184 21-40 20-40 45-23 44-23 62 3 62 4 20 18 21 19v72l-68-3-68-3-19 21-20 22-3 129-4 129h149l16 18 17 19v62l-87 3-88 3-3 58-3 57h-47l-30-35zm-1330-76c-83-16-147-73-177-158l-15-44v-133l28-55 27-54 42-32 43-31 55-13 56-12 62 11 62 11 28 31 27 30v68l-35-18c-20-10-57-21-84-25l-48-7-40 11-39 11-26 27c-14 16-29 38-33 51l-6 22h192l45 11 44 11 25 30 25 30v85l-23 44-24 44-44 26-44 27-40 5c-22 2-59 1-83-4zm93-104 35-14 10-27 11-27-6-18-6-18-37-11c-20-5-68-10-106-10h-68l6 32c3 18 13 43 22 56l16 24 31 13c41 18 50 18 92 0zm391 95c-38-12-85-57-102-97l-14-32v-338l18-16 18-16 42-7 42-7v344l15 29 15 30 26 6 25 7 45-7 44-6v59l-23 27-23 27-50 3-49 3-29-9zm1268-4c-17-8-40-26-52-41l-22-28v-64l47 23 46 24h128l19-10 18-10 12-35c6-19 9-39 6-44l-6-8-83-5-83-4-45-22-44-22-17-27c-16-28-21-55-19-105l1-28 36-39 35-40 36-12 36-12h122l37 12 37 12 30 34 30 34 10 38 11 38v77c0 42-5 100-11 128l-11 52-31 35-32 36-32 13-32 14h-73l-73-1-31-13zm204-327-5-50-17-17-17-17h-97l-21 19-21 19v54l18 15c25 22 40 26 106 27l59 1-5-51z"/></g></g></svg>