<?xml version="1.0" encoding="UTF-8" standalone="yes"?>
<svg width="250" height="250" viewBox="0 0 250 250" fill="none" version="1.2" baseProfile="tiny-ps" xmlns="http://www.w3.org/2000/svg">
  <title>reMarkable</title>
  <rect width="250" height="250" fill="#F9F6F1"/>
  <path d="M49.16 120.76C49.16 117.24 48.76 114.2 47.96 111.64C47.24 109 46.2 107.08 44.84 105.88V104.92L68.12 96.64H68.6V109.96C71.24 105.96 74.04 102.92 77 100.84C79.96 98.68 83.24 97.6 86.84 97.6C88.6 97.6 90.12 97.72 91.4 97.96V113.68H90.44C86.84 112 83.24 111.16 79.64 111.16C77.56 111.16 75.52 111.44 73.52 112C71.6 112.48 69.96 113.12 68.6 113.92V145.96C68.6 152.68 69.6 157.04 71.6 159.04V160H46.16V159.04C48.16 157.04 49.16 152.68 49.16 145.96V120.76ZM108.885 88.36V145.96C108.885 152.68 109.885 157.04 111.885 159.04V160H99.1653V159.04C101.165 157.04 102.165 152.68 102.165 145.96V89.68C102.165 87.12 101.845 84.8 101.205 82.72C100.645 80.56 99.8853 79.04 98.9253 78.16V77.2H125.325L149.925 130.24L173.685 77.2H199.485V78.16C198.525 79.04 197.725 80.56 197.085 82.72C196.525 84.8 196.245 87.12 196.245 89.68V145.96C196.245 152.68 197.245 157.04 199.245 159.04V160H173.085V159.04C175.085 157.04 176.085 152.68 176.085 145.96V88.48L143.565 161.2H142.485L108.885 88.36Z" fill="#211E1C"/>
</svg>