<?xml version="1.0" encoding="utf-8" standalone="yes"?><!-- Generator: Adobe Illustrator 27.2.0, SVG Export Plug-In . SVG Version: 6.00 Build 0)  --><svg xmlns="http://www.w3.org/2000/svg" xmlns:xlink="http://www.w3.org/1999/xlink" version="1.2" baseProfile="tiny-ps" viewBox="0 0 558.1 558.1" xml:space="preserve"><title>Convoy of Hope</title><rect fill="#00354F" width="558.1" height="558.1"></rect><g><path fill="#FFFFFF" d="M395.33,278.13l-40.36,40.47l-63.52-63.71l6.81-6.83c19.44,15.87,48.19,14.72,66.29-3.43   c1.99-1.99,1.98-5.23,0-7.22c-1.99-2-5.21-1.99-7.2,0c-15.34,15.39-40.32,15.39-55.67,0c-1.99-1.99-5.21-1.99-7.2,0l-47.45,47.58   c-1.57,1.57-3.66,2.44-5.88,2.44c-2.22,0-4.3-0.86-5.87-2.44c-3.24-3.25-3.24-8.53,0-11.78l77.57-77.8   c22.74-22.8,59.74-22.8,82.48,0C418.06,218.22,418.06,255.32,395.33,278.13 M351.87,341.72c-1.57,1.57-3.66,2.45-5.87,2.45   c-2.22,0-4.31-0.87-5.88-2.45L272.5,273.9l11.75-11.78l67.62,67.82C355.11,333.18,355.11,338.47,351.87,341.72 M332.92,360.73   c-3.24,3.25-8.52,3.25-11.75,0l-67.66-67.86c0.25-0.21,0.49-0.42,0.73-0.65l11.06-11.09l67.62,67.82c1.57,1.58,2.43,3.67,2.43,5.9   C335.36,357.06,334.49,359.16,332.92,360.73 M313.97,379.73c-3.24,3.25-8.51,3.25-11.75,0l-78.83-79.06c-1.99-2-5.21-2-7.2,0   c-1.99,1.99-1.99,5.23,0,7.22l78.83,79.05c1.57,1.58,2.43,3.67,2.43,5.9c0,2.22-0.87,4.31-2.44,5.88   c-1.57,1.58-3.65,2.45-5.87,2.45c-2.22,0-4.31-0.87-5.87-2.45L163.14,278.26c-11.02-11.04-17.08-25.74-17.08-41.35   c0-15.62,6.07-30.31,17.08-41.35c11.02-11.05,25.66-17.14,41.24-17.14c15.58,0,30.22,6.09,41.23,17.14l26.35,26.43l-43.88,44.01   c-7.21,7.23-7.21,18.99,0,26.23c3.49,3.51,8.13,5.43,13.07,5.43c0.85,0,1.69-0.08,2.52-0.19l70.29,70.49   c1.57,1.57,2.44,3.67,2.44,5.89C316.4,376.06,315.54,378.16,313.97,379.73 M260.15,398.99c-1.59-1.59-2.46-3.7-2.46-5.95   c0-1.55,0.42-3.02,1.19-4.31l11.51,11.54C267.15,402.19,262.91,401.77,260.15,398.99 M247.01,382.33c-2.24,0-4.35-0.88-5.94-2.47   c-1.58-1.59-2.46-3.7-2.46-5.95c0-1.54,0.42-3.02,1.19-4.31l11.51,11.54C250.02,381.91,248.55,382.33,247.01,382.33 M222,360.73   c-1.59-1.59-2.46-3.7-2.46-5.95c0-1.55,0.42-3.02,1.2-4.32l11.5,11.54C229.01,363.93,224.77,363.51,222,360.73 M208.87,344.07   L208.87,344.07c-2.25,0-4.36-0.88-5.94-2.47c-2.77-2.78-3.19-7.04-1.26-10.27l11.5,11.54C211.88,343.65,210.4,344.07,208.87,344.07    M305.65,188.19l-26.48,26.56l-26.35-26.43c-12.94-12.98-30.14-20.12-48.44-20.12c-18.3,0-35.5,7.15-48.44,20.12   c-12.94,12.97-20.07,30.22-20.06,48.58c0,18.35,7.13,35.6,20.06,48.58l38.42,38.53c-5.84,7.31-5.39,18.04,1.36,24.81   c3.51,3.52,8.18,5.46,13.14,5.46h0c0.17,0,0.34-0.02,0.51-0.03c0,0.17-0.02,0.35-0.02,0.52c0,4.98,1.93,9.66,5.44,13.18   c3.62,3.63,8.38,5.44,13.13,5.44c0.18,0,0.35-0.02,0.52-0.02c0,0.18-0.03,0.35-0.03,0.53c0,4.98,1.93,9.66,5.44,13.18   c3.51,3.52,8.18,5.46,13.13,5.46h0c0.18,0,0.34-0.02,0.52-0.02c-0.01,0.17-0.03,0.35-0.03,0.52c0,4.97,1.93,9.66,5.44,13.17   c3.62,3.63,8.38,5.45,13.13,5.45c4.17,0,8.33-1.39,11.73-4.18c3.23,2.53,7.17,3.91,11.33,3.91c4.94,0,9.59-1.93,13.08-5.43   c3.5-3.5,5.42-8.16,5.42-13.11c0-0.16-0.02-0.33-0.02-0.49c0.16,0,0.32,0.02,0.49,0.02c4.73,0,9.47-1.8,13.07-5.42   c3.49-3.5,5.41-8.16,5.41-13.11c0-0.17-0.02-0.33-0.02-0.49c0.17,0,0.32,0.02,0.48,0.02c4.74,0,9.48-1.81,13.08-5.42   c3.5-3.5,5.42-8.16,5.42-13.11c0-0.16-0.02-0.33-0.02-0.48c0.16,0,0.32,0.02,0.48,0.02c4.93,0,9.58-1.93,13.08-5.44   c6.14-6.15,7.03-15.59,2.71-22.73l40.74-40.86c26.71-26.78,26.7-70.37,0-97.16C375.82,161.41,332.36,161.41,305.65,188.19"></path><path fill="#FFFFFF" d="M368.08,392.13c-4.54,0-8.18-3.71-8.18-8.21c0-4.6,3.65-8.21,8.18-8.21c4.53,0,8.18,3.61,8.18,8.21   C376.26,388.42,372.61,392.13,368.08,392.13 M368.08,374.09c-5.41,0-9.8,4.36-9.8,9.83c0,5.42,4.39,9.83,9.8,9.83   c5.45,0,9.81-4.4,9.81-9.83C377.88,378.45,373.53,374.09,368.08,374.09"></path><path fill="#FFFFFF" d="M366,383.65v-3.89h2.87c0.97,0,2.04,0.74,2.04,1.99c0,1.16-1.07,1.9-2.04,1.9H366z M372.65,381.74   c0-2.09-1.9-3.43-3.79-3.43h-4.58v11.27H366v-4.46h1.8l2.92,4.46h2.08l-3.01-4.5C370.43,385.09,372.65,384.25,372.65,381.74"></path></g></svg>