<svg version="1.2" baseProfile="tiny-ps" id="Layer_1" xmlns="http://www.w3.org/2000/svg" xmlns:xlink="http://www.w3.org/1999/xlink"	viewBox="0 0 50 50" xml:space="preserve">
<title>Cranleigh School</title>
<path fill="#FFF" d="M24.88 43.37c-.06-.03-5.9-2.92-9.78-9.26-3.3-5.39-3.97-13.26-3.97-15.07 0-.9-.22-11.8-.22-11.88l-.01-.66h28.61l-.04 2.06c-.05 2.93-.19 9.78-.19 10.48 0 1.81-.67 9.69-3.97 15.07a26.34 26.34 0 0 1-9.87 9.26l-.28.13-.28-.13z"/><path fill="#C20E1A" d="M30.25 14.32c.04-.14.09-.29.13-.32l.21-.17.53-.43h.02l.16.2-.01.01-.87.7a.63.63 0 0 1-.16.02h-.01m-.88-.01h-.17a.45.45 0 0 0-.08-.18.47.47 0 0 0-.66-.07l-.06.06.03-.23 1.01.07-.05.35h-.02zm-1.04.3c.02.04.03.08.06.11l.14.1-.01.08-.23-.01.04-.27zm1.18 1.46-.3-.02.04-.2v-.02h.1c.02.06.03.1.07.15l.07.08.02.01zm.57-.94.25.02-.07.45v.09c0-.11-.05-.21-.11-.3-.04-.04-.08-.06-.12-.08l.03-.16v-.02h.02m.15.74-.04.24h-.2l.01-.01a.46.46 0 0 0 .23-.28v.05zm.15-3.41-.64.52-.07.06c-.1.03-.78.01-1.4-.03a.52.52 0 0 0-.1-.26.52.52 0 0 0-.92.32.5.5 0 0 0 .36.48l-.17 1.46a.5.5 0 0 0-.46.5c0 .12.04.23.12.33.17.22.5.25.72.07a.5.5 0 0 0 .15-.22l.47.05-.05.45a.5.5 0 0 0-.25.1.5.5 0 0 0-.07.7c.18.22.5.26.7.08a.48.48 0 0 0 .16-.23c.14 0 1.27.12 1.42.13.01.1.04.19.1.26.09.1.2.17.34.18a.5.5 0 0 0 .44-.81.5.5 0 0 0-.22-.15c.1-.6.22-1.25.28-1.34l.75-.62.05.07.6.73-.02.02-.35.3s-.1.07-.12.2c-.02.12.02.24.12.35.1.12.21.19.33.2.14 0 .23-.07.24-.07l.46-.4.35.46c.2.24.54.44.68.51v.02c0 .15.06.3.16.41a.65.65 0 0 0 1.14-.41c0-.16-.05-.3-.15-.42a.58.58 0 0 0-.41-.22c-.06-.18-.2-.5-.38-.73-.16-.2-.3-.35-.4-.44l.47-.4c.08-.09.17-.33-.03-.57-.2-.24-.45-.17-.54-.1l-.4.33-.65-.76.9-.74.38.48.35-.28.04.05-.34.28.58.72.9-.74-.27-.34.1-.08.27.34.9-.72-.59-.72s-.26.2-.35.29l-.04-.05.35-.3-.4-.48.2-.15h-.01c.01 0 .08-.04.1-.14.03-.13-.03-.3-.2-.5-.16-.2-.31-.3-.45-.32a.23.23 0 0 0-.18.04l-3 2.47h-.01l-.17-.2 3.02-2.46c.02 0 .07-.06.08-.16.02-.15-.06-.32-.22-.53-.17-.2-.32-.3-.46-.3-.1 0-.16.06-.17.07l.02-.01-.39.3-.37-.45-.35.3-.04-.06.35-.29-.59-.72-.08.07-.8.66.28.34-.1.08-.28-.34-.91.73.58.72.35-.27.03.05-.33.27.37.46-.78.63-2.1-2.46c-.42-.5-1.45-.71-1.45-.71s.04 1.05.41 1.52c.3.35 1.27 1.56 2.04 2.5l.02.04zm-4.7 5.49V7.83h12.3v10.13h-12.3z"/><path fill="#3E95D4" d="M18.33 16.97c-.09.13-.19.24-.19.24h.1c.33 0 .47-.13.53-.18.08.03.29.15.6.12h.04l.07-.01s-.3-.22-.4-.39c.26-.1.44-.32.53-.45a4.66 4.66 0 0 0 .77-.45l.12-.11-.16.02s-.43.06-.73.07c.25-.23.35-.6.35-.61l.03-.15-.12.1s-.18.15-.39.26c-.28.14-.46.2-.46.2l-.07-.04a1.2 1.2 0 0 0-.64-.11h-.1c-.07-.02-.1-.16-.14-.26l-.03-.12c-.14-.37-.38-.55-.7-.51a.66.66 0 0 0-.4.16c-.24.19-.4.5-.4.52l-.06.11.12-.04s.21-.07.34 0c.15.1.25.2.25.43v.13c-.07.05-.16.14-.14.27.04.36.43.5.58.54l.23.1-.13.19-.06.07h.09c.08 0 .42 0 .57-.1M20.6 14c-.09.13-.19.24-.19.24h.1c.33 0 .47-.13.53-.18.08.03.3.15.61.13h.04l.06-.02s-.29-.22-.4-.39c.26-.1.44-.32.53-.45a5.16 5.16 0 0 0 .77-.45l.13-.11-.17.02s-.43.06-.73.07c.26-.23.35-.6.35-.6l.03-.16-.12.1s-.18.16-.38.26c-.29.14-.46.2-.47.2l-.06-.04a1.2 1.2 0 0 0-.65-.11h-.1c-.07-.02-.1-.15-.13-.26l-.04-.12c-.13-.37-.37-.54-.7-.51a.66.66 0 0 0-.4.17c-.24.18-.4.5-.4.5l-.06.13.12-.05s.22-.07.34 0c.15.1.25.2.25.43v.12c-.07.06-.16.16-.14.28.05.37.43.5.59.54.07.05.15.08.23.1l-.14.19-.06.07h.1c.08 0 .41 0 .57-.1m-3.84 0c-.08.13-.18.24-.18.24h.09c.33 0 .47-.13.53-.18.08.03.3.15.61.13h.04l.06-.02s-.29-.22-.4-.39c.26-.1.44-.32.54-.45a5.16 5.16 0 0 0 .76-.45l.13-.11-.17.02s-.43.06-.73.07c.26-.23.35-.6.35-.6l.04-.16-.13.1s-.18.16-.38.26c-.29.14-.46.2-.47.2l-.06-.04a1.2 1.2 0 0 0-.65-.11h-.1c-.07-.02-.1-.15-.13-.26l-.04-.12c-.13-.37-.37-.54-.7-.51a.66.66 0 0 0-.4.17c-.24.18-.4.5-.4.5l-.06.13.12-.05s.22-.07.34 0c.15.1.25.2.25.43v.12c-.07.06-.16.16-.14.28.05.37.43.5.59.54.07.05.15.08.23.1l-.14.19-.06.07h.1c.08 0 .41 0 .57-.1m5.38-2.97-.2.25h.1c.33 0 .47-.14.53-.19.08.04.3.15.61.13h.04l.06-.02s-.29-.21-.4-.38c.26-.1.45-.33.54-.46a4.66 4.66 0 0 0 .76-.45l.13-.11-.17.02s-.43.06-.72.07c.25-.23.34-.59.34-.6l.04-.16-.12.1a2.36 2.36 0 0 1-.85.46l-.07-.03a1.2 1.2 0 0 0-.64-.12h-.1c-.08-.02-.11-.15-.14-.26l-.03-.11c-.14-.38-.38-.55-.71-.52a.66.66 0 0 0-.4.17c-.24.18-.4.5-.4.51l-.06.12.12-.05s.22-.07.34 0c.15.1.25.2.25.43v.13c-.07.05-.16.15-.14.27.05.37.43.5.59.55l.23.1-.14.18-.05.07h.08c.09 0 .42 0 .58-.1m-3.84 0c-.08.13-.19.25-.19.25h.1c.33 0 .47-.14.53-.19.08.04.3.15.61.13h.04l.06-.02s-.29-.21-.4-.38c.26-.1.44-.33.54-.46a5.16 5.16 0 0 0 .76-.45l.13-.11-.17.02s-.43.06-.72.07c.25-.23.34-.59.34-.6l.04-.16-.12.1s-.19.16-.39.26c-.29.15-.46.2-.46.2l-.07-.03a1.2 1.2 0 0 0-.64-.12h-.1c-.08-.02-.11-.15-.14-.26l-.03-.11c-.14-.38-.38-.55-.71-.52a.66.66 0 0 0-.4.17c-.24.18-.4.5-.4.51l-.06.12.12-.05s.22-.07.34 0c.15.1.25.2.25.43v.13c-.07.05-.16.15-.14.27.05.37.43.5.59.55l.23.1-.14.18-.06.07h.1c.08 0 .41 0 .57-.1m-3.83 0-.2.25h.1c.33 0 .47-.14.53-.19.08.04.3.15.61.13h.04l.06-.02s-.29-.21-.4-.38c.26-.1.45-.33.54-.46a5.16 5.16 0 0 0 .76-.45l.13-.11-.17.02s-.43.06-.72.07c.25-.23.34-.59.34-.6l.04-.16-.12.1s-.19.16-.4.26c-.28.15-.45.2-.46.2l-.06-.03a1.2 1.2 0 0 0-.65-.12h-.1c-.07-.02-.1-.15-.13-.26l-.03-.12c-.14-.37-.38-.54-.71-.51a.66.66 0 0 0-.4.17c-.24.18-.4.5-.4.51l-.06.12.12-.05s.22-.07.34 0c.15.1.25.2.25.43v.13c-.07.05-.16.15-.14.27.05.37.43.5.59.55l.23.1-.14.18-.06.07h.1c.08 0 .41 0 .57-.1m-2.13-3.2h12.3v10.13H12.53l-.15-10.14z"/><path fill="#8D1711" d="m38.49 7.4-.55.45-.22 10.06H25.7l-.49.54 13.3-.01-.02-11.04"/><path fill="#9B751D" d="m29.55 20.37-.47.47v1.7H25.9v5.05l.45-.45h4.39v-3.32h2.48l-.42.47v8.2h-1.6l-.47.48v-3.46l.47-.5h-5.3v5.34l.46-.45h3.2l-.46.47v1.66h-7.87l-.48.47v-2.6h3.21v-4.38l.49-.51h-5.17v3.49h-1.63l-.48.48v-9.16h2.58l-.47.47v3.3l.47-.45h4.21v-4.12l.49-.49h-3.22l-.49.49v-2.65h8.82m.27-.48h-9.57v3.6h3.22v3.17h-3.25v-3.33h-3.54v10.09h3.54v-3.43h3.25v3.43h-3.22v3.55h9.78v-3.55h-3.2v-3.4h3.32v3.43h3.54V23.34h-3.44v3.33h-3.46v-3.18h3.27V19.9h-.24z"/><path fill="#F2CB13" d="m17.63 24.29.01 8.21h1.62v-3.49h5.18v5.33h-3.22v1.69h7.86v-1.66l-3.19-.02v-5.34h5.3v3.49h1.6v-8.21h-1.6v3.29h-5.3v-5.05h3.19v-1.69l-7.86-.01v1.7h3.22v5.05h-5.18v-3.29h-1.63"/><path fill="#222221" d="M29.55 20.37v2.65h-3.2v4.12h4.38v-3.32h2.48v9.16h-2.49V29.5h-4.38v4.39h3.21v2.6h-8.81v-2.6h3.21v-4.38l-4.2-.01v3.46h-2.59v-9.16h2.58v3.33h4.2v-4.12h-3.2v-2.65h8.81m.27-.48h-9.57v3.6h3.22v3.17h-3.25v-3.33h-3.54v10.12h3.54V30h3.25v3.43h-3.22v3.55h9.78v-3.55h-3.2v-3.4h3.32v3.43h3.54V23.34h-3.44v3.33h-3.46v-3.18h3.27V19.9h-.24z"/><path fill="#222221" d="M29.55 20.38v2.64h-3.21v4.12h4.38v-3.32h2.49v9.16h-2.5V29.5h-4.37v4.4h3.2v2.58h-8.81V33.9h3.22v-4.38l-4.21-.01v3.47h-2.58v-9.16h2.58v3.32h4.2v-4.12h-3.21v-2.65h8.82M25.2 42.2c-.87-.46-5.94-3.08-9.34-8.64-3.79-6.18-3.83-14.5-3.83-14.57 0-.82-.17-9.8-.2-11.59h26.66l-.2 10.52v.52l-.01.4H12.53v.29c0 .06-.01 8.39 3.77 14.57 3.4 5.56 8.9 8.5 8.9 8.5zm-.04-35.42H11.19v.32c0 .1.22 11 .22 11.89 0 2.28.82 9.83 3.92 14.9a26.23 26.23 0 0 0 9.65 9.13l.13.06.14-.06c.06-.03 5.91-2.9 9.73-9.13 3.1-5.07 3.92-12.63 3.92-14.9 0-.9.22-11.79.22-11.9v-.31H25.16z"/><path fill="#0072AC" d="M25.19 7.4c-.1 0-.55.45-.55.45V17.9H12.51l-.5.54H25.2V7.4"/><path fill="#BBBAB0" d="M15.4 9.81c.3-.05.59-.42.59-.42l.03-.06s-.02.2-.12.33c-.1.15-.24.24-.24.24l-.25-.08M14.5 11.16c.28-.09.4-.32.4-.32s.1.1.21.15c.24.12.35.14.35.14s-.02.04-.2.01c-.17-.03-.34-.1-.34-.1s-.17.16-.45.15l.03-.03"/><path fill="#BBBAB0" d="M14.7 10.64s.12-.04.27.03c.11.06.19.18.19.18s.48-.3.53-.47l-.64.16-.35.04h-.04s-.15-.02-.25-.06l-.2-.1s0 .1-.19.16c-.18.05-.44-.06-.44-.06s.32.31.68.34h.14v.04l-.09.05c-.18.06-.36.09-.36.09l.18.03c.21.01.42-.09.42-.09l.05-.08.04-.06.06-.2"/><path fill="#222221" d="M14.56 10.93c-.1 0-.3 0-.47-.04l-.07.14c.24.02.5-.04.54-.1m.03-.09a.41.41 0 0 0 .05-.21c-.2-.02-.48-.1-.6-.4-.09-.22.13-.42.13-.42s-.2.25 0 .49c.25.28.67.22.67.22.31-.02.72-.16 1.11-.36l.36-.21c-.15.02-.36.04-.53.04a1.9 1.9 0 0 1-.74-.25c-.25-.12-.57-.07-.7-.1-.1-.02-.15-.14-.19-.26 0 .1-.03.2-.15.28-.25.14-.5-.02-.5-.02s.2.08.43-.06c.3-.17.12-.52.12-.52-.12-.23-.29-.33-.53-.3a.6.6 0 0 0-.36.13c-.16.12-.3.31-.36.42.08-.02.22-.05.32-.01l-.01-.1.02-.14c.02-.08-.03-.12-.03-.12s.1 0 .08.2c-.02.16.11.28.11.28.1.08.17.2.17.41v.04c0 .22 0 .56.29.75.32.22.7.23.84.22m.55-.25c0 .03.02.08.05.14.18-.06.34-.2.44-.3-.17.07-.34.12-.5.16zm-.41.06c0 .08 0 .17-.06.3-.07.12-.17.22-.17.22.32-.02.42-.2.42-.2l.04.03s.15.12.45.12c-.18-.14-.26-.23-.32-.38a1.4 1.4 0 0 1-.05-.13l-.17.02h-.14v.02zm.92-.79c.16-.12.3-.35.35-.48-.07.05-.32.25-.72.36.16.07.26.1.36.12zm-2.13.7a.97.97 0 0 1-.17-.58.3.3 0 0 0-.03.35c.05.1.12.18.2.23zm-.14-1.52c0-.03.03-.05.06-.05s.06.02.06.05c0 .03-.03.06-.06.06a.06.06 0 0 1-.06-.06zm-.04 0c0 .07.05.12.12.12.06 0 .11-.05.11-.11a.12.12 0 0 0-.23 0zm1.16 2c-.16.1-.5.1-.58.1h-.08l.05-.08.14-.19a1.36 1.36 0 0 1-.23-.1c-.16-.04-.54-.17-.59-.54-.02-.12.07-.22.14-.27v-.13c0-.23-.1-.33-.25-.42-.12-.08-.34 0-.34 0l-.12.04.06-.12c0-.01.16-.33.4-.51.13-.1.2-.15.4-.17.33-.03.57.14.7.51l.04.12c.03.1.06.24.13.26h.1a1.18 1.18 0 0 1 .72.15s.17-.05.46-.2c.2-.1.38-.25.39-.26l.12-.1-.04.15c0 .02-.09.38-.35.6v.01c.3 0 .73-.07.73-.07l.17-.02-.13.11s-.15.14-.54.34l-.22.11c-.1.13-.28.35-.54.46.11.16.4.38.4.38l-.06.02h-.04c-.32.02-.53-.1-.6-.13-.07.05-.2.19-.54.19h-.09l.19-.25"/><path fill="#BBBAB0" d="m14.67 10.34-.14.1s.35-.03.4-.3c.06-.32-.32-.42-.32-.42s.14.07.2.2c.02.05-.23.02-.23.02s.2.07.26.05v.08c-.03.03-.21 0-.21 0s.14.05.2.05v.04l-.03.05-.18-.03.15.06a.63.63 0 0 1-.07.07c-.05 0-.14-.04-.14-.04l.11.07M15.22 9.98c.01.04-.2.01-.2.01s.17.07.22.05v.06c-.02.02-.18 0-.18 0s.12.04.18.04a.2.2 0 0 1 0 .04l-.02.04-.16-.02.13.06a.38.38 0 0 1-.06.06l-.12-.04.1.06-.14.08s.31-.02.36-.26c.03-.15-.17-.28-.17-.28s.03.04.06.1M19.23 9.81c.3-.05.59-.42.59-.42l.03-.06s-.03.2-.12.33c-.1.15-.24.24-.24.24l-.25-.08M18.33 11.16c.28-.09.4-.32.4-.32s.1.1.21.15c.24.12.35.14.35.14s-.02.04-.2.01c-.17-.03-.34-.1-.34-.1s-.17.16-.45.15l.03-.03"/><path fill="#BBBAB0" d="M18.53 10.64s.12-.04.27.03c.11.06.19.18.19.18s.48-.3.53-.47l-.64.16-.35.04h-.04s-.15-.02-.25-.06l-.2-.1s0 .1-.19.16c-.18.05-.44-.06-.44-.06s.32.31.68.34h.14v.04l-.09.05c-.18.06-.36.09-.36.09l.18.03c.21.01.42-.09.42-.09l.05-.08.04-.06.06-.2"/><path fill="#222221" d="M18.4 10.93c-.1 0-.3 0-.47-.04l-.08.14c.24.02.5-.04.54-.1m.03-.09h.01a.4.4 0 0 0 .04-.21c-.2-.02-.48-.1-.6-.4-.08-.22.13-.42.13-.42s-.2.25 0 .49c.25.28.67.22.67.22.31-.02.72-.16 1.11-.36l.36-.21a5.6 5.6 0 0 1-.52.04 1.9 1.9 0 0 1-.75-.25c-.25-.12-.57-.07-.7-.1-.1-.02-.15-.14-.18-.26 0 .1-.03.2-.15.28-.26.14-.51-.02-.51-.02s.2.08.43-.06c.3-.17.11-.52.11-.52-.12-.23-.28-.33-.52-.3a.6.6 0 0 0-.36.13c-.17.12-.3.31-.37.42.08-.02.23-.05.33-.01l-.02-.1c0-.06.02-.1.03-.14.02-.08-.03-.12-.03-.12s.1 0 .08.2c-.02.16.11.28.11.28.1.08.17.2.17.41v.04c0 .22 0 .56.28.75.33.22.71.23.85.22m.55-.25c0 .03.02.08.05.14.18-.06.34-.2.44-.3-.17.07-.34.12-.5.16zm-.41.06c0 .08 0 .17-.06.3-.07.12-.17.22-.17.22.33-.02.42-.2.42-.2l.04.03s.15.12.45.12c-.18-.14-.26-.23-.32-.38l-.05-.13-.17.02h-.14v.02zm.92-.79c.16-.12.3-.35.35-.48-.07.05-.32.25-.72.36.16.07.26.1.36.12zm-2.13.7a.97.97 0 0 1-.17-.58.3.3 0 0 0-.03.35c.05.1.12.18.2.23zm-.14-1.52c0-.03.03-.05.06-.05s.06.02.06.05c0 .03-.03.06-.06.06a.06.06 0 0 1-.06-.06zm-.04 0c0 .07.05.12.12.12.06 0 .11-.05.11-.11a.11.11 0 0 0-.11-.12.12.12 0 0 0-.12.12zm1.16 2c-.16.1-.5.1-.58.1h-.09l.06-.08.14-.19a1.39 1.39 0 0 1-.23-.1c-.16-.04-.54-.17-.6-.54 0-.12.08-.22.15-.27v-.13c0-.23-.1-.33-.25-.42-.12-.08-.34 0-.34 0l-.12.04.06-.12c0-.01.16-.33.4-.51.13-.1.21-.15.4-.17.33-.03.57.14.7.51l.04.12c.03.1.06.24.13.26h.1a1.18 1.18 0 0 1 .72.15s.17-.05.46-.2c.2-.1.38-.26.39-.26l.12-.1-.04.15c0 .02-.09.38-.35.6v.01c.3 0 .73-.07.73-.07l.17-.02-.13.11s-.15.14-.54.34l-.22.11c-.1.13-.28.35-.54.46.11.16.4.38.4.38l-.06.02h-.04c-.32.02-.53-.1-.6-.13-.07.05-.2.19-.54.19h-.1l.2-.25"/><path fill="#BBBAB0" d="m18.5 10.34-.14.1s.35-.03.4-.3c.06-.32-.32-.42-.32-.42s.14.07.2.2c.02.05-.23.02-.23.02s.2.07.26.05v.08c-.03.03-.21 0-.21 0s.14.05.2.05v.04l-.03.05-.18-.03.16.06a.5.5 0 0 1-.07.07c-.06 0-.15-.04-.15-.04l.11.07M19.05 9.98c.01.04-.2.01-.2.01s.17.07.22.05v.06c-.02.02-.18 0-.18 0s.12.04.18.04v.04l-.02.04-.16-.02.13.06a.42.42 0 0 1-.06.06l-.12-.04.1.06-.13.08s.3-.02.35-.26c.03-.15-.17-.28-.17-.28l.06.1M23.06 9.81c.3-.05.59-.42.59-.42l.03-.06s-.02.2-.12.33c-.1.15-.24.24-.24.24l-.25-.08M22.16 11.16c.28-.09.4-.32.4-.32s.1.1.21.15c.24.12.35.14.35.14s-.02.04-.2.01c-.17-.03-.34-.1-.34-.1s-.17.16-.45.15l.03-.03"/><path fill="#BBBAB0" d="M22.36 10.64s.12-.04.27.03c.11.06.19.18.19.18s.48-.3.53-.47l-.64.16-.35.04h-.04s-.15-.02-.24-.06l-.21-.1s0 .1-.19.16c-.18.05-.44-.06-.44-.06s.32.31.68.34h.14v.04l-.09.05c-.18.06-.36.09-.36.09l.18.03c.21.01.42-.09.42-.09l.06-.08.03-.06.06-.2"/><path fill="#222221" d="M22.23 10.93c-.1 0-.3 0-.47-.04l-.08.14c.24.02.5-.04.54-.1m.03-.09h.01a.4.4 0 0 0 .04-.21c-.2-.02-.48-.1-.6-.4-.09-.22.13-.42.13-.42s-.2.25 0 .49c.25.28.67.22.67.22.31-.02.72-.16 1.11-.36l.36-.21c-.15.02-.35.04-.52.04a1.9 1.9 0 0 1-.75-.25c-.25-.12-.57-.07-.7-.1-.1-.02-.15-.14-.19-.26.01.1-.02.2-.15.28-.25.14-.5-.02-.5-.02s.2.08.43-.06c.3-.17.12-.52.12-.52-.12-.23-.3-.33-.53-.3a.6.6 0 0 0-.36.13c-.17.12-.3.31-.36.42.08-.02.22-.05.32-.01l-.02-.1c0-.06.02-.1.03-.14.02-.08-.03-.12-.03-.12s.1 0 .08.2c-.02.16.11.28.11.28.1.08.17.2.17.41v.04c0 .22 0 .56.29.75.32.22.7.23.84.22m.55-.25c0 .03.02.08.05.14.18-.06.34-.2.44-.3-.17.07-.34.12-.5.16zm-.41.06c0 .08 0 .17-.06.3-.07.12-.17.22-.17.22.32-.02.42-.2.42-.2l.04.03s.15.12.45.12c-.18-.14-.26-.23-.32-.38l-.05-.13-.17.02h-.14v.02zm.92-.79c.16-.12.3-.35.35-.48-.07.05-.31.25-.72.36.16.07.26.1.36.12zm-2.13.7a.97.97 0 0 1-.17-.58.3.3 0 0 0-.04.35c.06.1.13.18.21.23zm-.14-1.52c0-.03.03-.05.06-.05s.06.02.06.05c0 .03-.03.06-.06.06a.06.06 0 0 1-.06-.06zm-.04 0c0 .07.05.12.12.12.06 0 .11-.05.11-.11a.12.12 0 0 0-.23 0zm1.16 2c-.16.1-.5.1-.58.1h-.08l.05-.08.14-.19a1.39 1.39 0 0 1-.23-.1c-.16-.04-.54-.17-.6-.54 0-.12.08-.22.15-.27v-.13c0-.23-.1-.33-.25-.42-.12-.08-.34 0-.34 0l-.12.04.06-.12c0-.01.16-.33.4-.51.13-.1.21-.15.4-.17.33-.03.57.14.7.51l.04.12c.03.1.06.24.14.26h.1c.13 0 .36-.02.64.12l.07.03s.17-.05.46-.2c.2-.1.39-.26.39-.26l.12-.1-.04.15c0 .02-.09.38-.35.6v.01c.3 0 .73-.07.73-.07l.17-.02-.13.11s-.15.14-.54.34l-.22.11c-.1.13-.28.35-.54.46.11.16.4.38.4.38l-.07.02h-.03c-.32.02-.53-.1-.6-.13-.07.05-.2.19-.54.19h-.1l.2-.25"/><path fill="#BBBAB0" d="m22.34 10.34-.15.1s.35-.03.4-.3c.06-.32-.32-.42-.32-.42s.14.07.2.2c.02.05-.23.02-.23.02s.2.07.26.05v.08c-.03.03-.21 0-.21 0s.14.05.2.05v.04l-.03.05-.18-.03.16.06a.5.5 0 0 1-.07.07c-.06 0-.15-.04-.15-.04l.11.07M22.88 9.98c.01.04-.2.01-.2.01s.17.07.22.05v.06c-.02.02-.18 0-.18 0s.12.04.18.04v.04l-.02.04-.16-.02.13.06a.42.42 0 0 1-.05.06l-.13-.04.1.06-.13.08s.3-.02.35-.26c.03-.15-.17-.28-.17-.28s.04.04.06.1M17.68 12.78c.3-.05.59-.42.59-.42l.03-.06s-.03.19-.12.33c-.1.14-.24.24-.24.24l-.25-.08M16.78 14.13c.28-.09.4-.32.4-.32s.1.1.21.15c.24.11.35.14.35.14s-.02.04-.2 0c-.17-.02-.34-.08-.34-.08s-.17.15-.45.14l.03-.03"/><path fill="#BBBAB0" d="M16.98 13.6s.12-.03.27.04c.11.06.19.18.19.18s.48-.3.53-.47l-.64.16-.35.03h-.04s-.15 0-.25-.05l-.2-.1s0 .1-.19.16c-.18.05-.44-.07-.44-.07s.32.32.68.34l.14.01v.03s0 .02-.09.05c-.18.07-.36.1-.36.1l.18.03c.21 0 .42-.09.42-.09l.05-.08.04-.06.06-.2"/><path fill="#222221" d="M16.84 13.9c-.1 0-.3 0-.47-.04l-.07.14c.24.01.5-.04.54-.1m.03-.1a.41.41 0 0 0 .05-.2c-.2-.03-.48-.1-.6-.4-.09-.22.13-.42.13-.42s-.2.25 0 .49c.25.28.67.22.67.22.31-.02.72-.16 1.11-.36l.36-.21-.53.04a1.9 1.9 0 0 1-.74-.25c-.25-.13-.57-.07-.7-.1-.1-.02-.15-.15-.19-.26 0 .1-.03.2-.15.28-.26.14-.5-.02-.5-.02s.2.08.43-.06c.3-.17.11-.52.11-.52-.12-.23-.28-.33-.52-.3a.6.6 0 0 0-.36.13c-.17.12-.3.31-.37.41.08 0 .23-.04.33 0l-.02-.11c0-.05.02-.1.03-.13.02-.09-.03-.12-.03-.12s.1 0 .08.2c-.02.16.11.27.11.27.1.1.17.21.17.42v.03c0 .23 0 .57.28.76.33.22.71.22.85.22m.55-.26c0 .04.02.09.05.14.18-.05.34-.2.44-.3-.17.08-.34.13-.5.17zm-.41.07c0 .08 0 .17-.06.3-.07.12-.17.22-.17.22.32-.02.41-.2.41-.2l.04.03s.16.11.46.11c-.18-.13-.26-.22-.33-.37l-.04-.13-.18.02h-.13v.02zm.92-.79c.16-.12.3-.35.35-.48-.07.05-.32.25-.72.36.16.06.26.1.36.12zm-2.13.7a.97.97 0 0 1-.17-.58.3.3 0 0 0-.04.35c.06.1.13.17.21.23zM15.66 12c0-.03.03-.06.06-.06s.06.03.06.06-.03.06-.06.06a.06.06 0 0 1-.06-.06zm-.04 0c0 .07.05.12.12.12s.11-.05.11-.12c0-.06-.05-.1-.11-.1s-.12.04-.12.1zM16.77 14c-.15.1-.48.1-.57.1h-.09l.06-.07.14-.19a1.36 1.36 0 0 1-.23-.1c-.16-.04-.55-.18-.6-.54 0-.13.08-.22.15-.27v-.13c0-.23-.1-.33-.25-.43-.13-.07-.34 0-.34 0l-.12.04.05-.11c.01-.02.17-.33.4-.52.13-.1.22-.15.4-.16.34-.04.57.14.71.51l.04.12c.02.1.06.24.13.26h.1a1.18 1.18 0 0 1 .71.15s.18-.06.47-.2c.2-.1.38-.26.38-.26l.12-.1-.03.15c0 .02-.1.38-.35.6.3 0 .72-.06.73-.06l.17-.02-.13.11s-.15.14-.54.34l-.22.11c-.1.13-.28.35-.54.45.11.17.4.4.4.4h-.1c-.32.03-.53-.09-.6-.12-.07.05-.2.18-.54.19h-.1l.2-.25"/><path fill="#BBBAB0" d="m16.95 13.3-.14.1s.35-.03.4-.3c.06-.3-.32-.41-.32-.41s.14.07.2.2c.02.05-.23.02-.23.02s.2.07.26.05v.08c-.03.02-.21 0-.21 0s.14.05.2.05v.03c0 .02-.02.04-.03.05l-.18-.03.15.07a.63.63 0 0 1-.07.07l-.14-.04.11.07M17.5 12.95c.01.04-.2.01-.2.01s.17.06.22.05v.06c-.02.02-.18 0-.18 0s.12.04.18.04v.04l-.02.04-.16-.02.13.06a.38.38 0 0 1-.06.06l-.12-.04.1.06-.14.08s.31-.02.36-.26c.03-.16-.17-.28-.17-.28s.03.04.06.1M21.51 12.78c.3-.05.59-.42.59-.42l.03-.06s-.03.19-.12.33c-.1.14-.24.24-.24.24l-.25-.08M20.61 14.13c.28-.09.4-.32.4-.32s.1.1.21.15c.24.11.35.14.35.14s-.02.04-.2 0c-.17-.02-.34-.08-.34-.08s-.17.15-.45.14l.03-.03"/><path fill="#BBBAB0" d="M20.81 13.6s.12-.03.27.04c.11.06.19.18.19.18s.48-.3.53-.47l-.64.16-.35.03h-.04s-.15 0-.25-.05l-.2-.1s0 .1-.19.16c-.18.05-.44-.07-.44-.07s.32.32.68.34l.14.01v.03s0 .02-.09.05c-.18.07-.36.1-.36.1l.18.03c.21 0 .42-.09.42-.09l.06-.08.03-.06.06-.2"/><path fill="#222221" d="M20.68 13.9c-.1 0-.3 0-.47-.04l-.08.14c.24.01.5-.04.54-.1m.03-.1a.4.4 0 0 0 .05-.2c-.2-.03-.48-.1-.6-.4-.09-.22.13-.42.13-.42s-.2.25 0 .49c.24.28.67.22.67.22.31-.02.72-.16 1.1-.36.18-.09.29-.16.37-.21l-.53.04a1.9 1.9 0 0 1-.75-.25c-.24-.13-.56-.07-.69-.1-.1-.02-.15-.15-.19-.26 0 .1-.03.2-.15.28-.26.14-.5-.02-.5-.02s.2.08.43-.06c.3-.17.11-.52.11-.52-.12-.23-.28-.33-.52-.3a.6.6 0 0 0-.37.13c-.16.12-.3.31-.36.41.08 0 .23-.04.33 0l-.02-.11c0-.05.02-.1.03-.13.02-.09-.03-.12-.03-.12s.1 0 .08.2c-.02.16.11.27.11.27.1.1.17.21.17.42v.03c0 .23 0 .57.28.76.33.22.71.22.85.22m.55-.26c0 .04.02.09.05.14.18-.05.34-.2.44-.3-.17.08-.34.13-.5.17zm-.41.07c0 .08 0 .17-.06.3-.07.12-.17.22-.17.22.32-.02.42-.2.42-.2l.04.03s.15.11.45.11c-.18-.13-.26-.22-.32-.37l-.05-.13-.17.02h-.14v.02zm.92-.79c.16-.12.3-.35.35-.48-.07.05-.32.25-.72.36.16.06.26.1.36.12zm-2.13.7a.97.97 0 0 1-.17-.58.3.3 0 0 0-.03.35c.05.1.12.17.2.23zM19.5 12c0-.03.03-.06.06-.06s.06.03.06.06-.03.06-.06.06a.06.06 0 0 1-.06-.06zm-.04 0c0 .07.05.12.12.12.06 0 .11-.05.11-.12a.12.12 0 0 0-.23 0zM20.61 14c-.16.1-.5.1-.58.1h-.09l.06-.07.14-.19a1.39 1.39 0 0 1-.23-.1c-.16-.04-.54-.18-.59-.54-.02-.13.07-.22.14-.27v-.13c0-.23-.1-.33-.25-.43-.12-.07-.34 0-.34 0l-.12.04.06-.11c0-.02.16-.33.4-.52.13-.1.2-.15.4-.16.33-.04.57.14.7.51l.04.12c.02.1.06.24.13.26h.1a1.18 1.18 0 0 1 .71.15s.18-.06.47-.2c.2-.1.38-.26.38-.26l.12-.1-.03.15c0 .02-.1.38-.35.6.3 0 .72-.06.73-.06l.17-.02-.13.11s-.15.14-.54.34l-.22.11c-.1.13-.28.35-.54.45.11.17.4.4.4.4h-.1c-.32.03-.53-.09-.6-.12-.07.05-.2.18-.54.19h-.1l.2-.25"/><path fill="#BBBAB0" d="m20.78 13.3-.14.1s.35-.03.4-.3c.06-.3-.32-.41-.32-.41s.14.07.2.2c.02.05-.23.02-.23.02s.2.07.26.05v.08c-.03.02-.21 0-.21 0s.14.05.2.05v.03c0 .02-.02.04-.03.05l-.18-.03.16.07a.5.5 0 0 1-.08.07l-.14-.04.11.07M21.33 12.95c.01.04-.2.01-.2.01s.16.06.22.05v.06c-.02.02-.19 0-.19 0s.13.04.19.04v.04l-.02.04-.17-.02.14.06a.38.38 0 0 1-.06.06l-.13-.04.1.06c-.06.05-.13.08-.13.08s.31-.02.36-.26c.03-.16-.17-.28-.17-.28s.03.04.06.1M19.24 15.75c.3-.06.58-.42.58-.42l.04-.06s-.03.19-.12.33c-.1.14-.24.24-.24.24l-.25-.08-.01-.01M18.34 17.1c.28-.1.4-.32.4-.32s.1.1.21.15c.24.11.35.14.35.14s-.03.04-.2 0c-.17-.02-.34-.09-.34-.09s-.18.16-.45.14l.03-.02"/><path fill="#BBBAB0" d="M18.54 16.57s.12-.03.27.04c.11.05.19.18.19.18s.47-.3.53-.47l-.64.16-.35.03h-.04s-.15-.01-.25-.05l-.2-.1s0 .1-.2.16c-.18.05-.43-.07-.43-.07s.32.32.67.34l.15.01v.03l-.1.05c-.17.06-.35.1-.35.1l.18.02c.21.02.42-.08.42-.08l.05-.08.03-.06.07-.2"/><path fill="#222221" d="M18.4 16.87c-.1 0-.3 0-.47-.04l-.08.13c.24.02.5-.03.55-.09m.02-.1h.02a.43.43 0 0 0 .03-.2c-.2-.03-.47-.11-.6-.41-.08-.22.14-.42.14-.42s-.2.25 0 .5c.24.28.67.22.67.22.3-.03.72-.16 1.1-.37.17-.08.29-.15.37-.2l-.53.03a1.9 1.9 0 0 1-.75-.24c-.24-.13-.57-.07-.69-.1-.1-.02-.16-.15-.19-.27 0 .1-.03.21-.15.28-.26.15-.5-.01-.5-.01s.2.07.43-.06c.3-.17.11-.53.11-.53-.12-.23-.28-.33-.52-.3a.6.6 0 0 0-.37.13c-.16.12-.3.32-.36.42.08-.01.23-.04.33 0l-.02-.11c0-.06.02-.1.03-.13.01-.09-.03-.13-.03-.13s.1.01.08.2c-.02.17.1.28.1.28.1.09.17.21.17.42v.03c0 .23 0 .57.3.76.32.21.7.22.83.22m.55-.26.06.14c.17-.06.33-.2.44-.3-.18.07-.34.13-.5.16zm-.4.06c0 .09 0 .18-.07.3-.06.13-.16.22-.16.23.32-.02.41-.2.41-.2l.04.02s.16.12.45.12c-.17-.14-.26-.22-.32-.37l-.05-.14-.17.02s-.06.01-.14 0v.02zm.91-.78c.17-.12.3-.35.36-.48-.08.05-.32.24-.72.35.16.07.26.11.36.13zm-2.12.7a.97.97 0 0 1-.17-.58.3.3 0 0 0-.04.34c.06.11.12.18.21.24zm-.14-1.52c0-.03.03-.06.06-.06s.06.03.06.06-.03.06-.06.06a.06.06 0 0 1-.06-.06zm-.04 0c0 .07.05.12.11.12.07 0 .12-.05.12-.12a.11.11 0 0 0-.12-.11.12.12 0 0 0-.11.11zm1.15 1.99c-.15.1-.48.1-.57.1h-.09l.06-.07.13-.2a1.36 1.36 0 0 1-.23-.09c-.16-.04-.54-.18-.58-.54-.02-.13.07-.22.14-.28v-.12c0-.23-.1-.34-.25-.43-.13-.07-.34 0-.34 0l-.13.04.06-.11c0-.02.17-.34.4-.52.13-.1.21-.15.4-.17.33-.03.57.15.71.52l.03.12c.03.1.07.24.14.26h.1a1.18 1.18 0 0 1 .71.15s.18-.06.46-.2c.2-.1.39-.26.4-.26l.11-.1-.03.15c0 .02-.1.38-.35.6.3 0 .72-.06.73-.06l.16-.02-.12.1a3.59 3.59 0 0 1-.77.45c-.09.14-.27.36-.54.46.12.17.4.39.4.39l-.06.01h-.03c-.32.03-.53-.09-.61-.12-.06.05-.2.18-.53.19h-.1l.2-.25"/><path fill="#BBBAB0" d="m18.51 16.27-.14.1s.34-.03.4-.3c.06-.31-.32-.42-.32-.42s.13.08.2.2v.01c.02.04-.23.01-.23.01s.2.07.25.06l.01.07v.01c-.03.02-.22-.01-.22-.01s.14.06.21.06v.03l-.03.05-.18-.03.15.07a.63.63 0 0 1-.07.07l-.14-.04.1.06h.01M19.05 15.92c.02.04-.2.01-.2.01s.17.06.22.04l.01.07c-.03.02-.19-.01-.19-.01s.13.05.19.05v.04l-.02.04-.17-.03s.08.05.14.06a.38.38 0 0 1-.06.06c-.04 0-.13-.04-.13-.04l.1.06c-.06.05-.13.08-.13.08s.31-.02.35-.25c.03-.16-.16-.28-.16-.28s.03.04.06.1M32.11 12.33l3.02-2.46.01-.04c0-.06-.02-.16-.18-.35-.18-.23-.28-.24-.3-.24v.02l-.19.15s.3.02.05.21l-2.8 2.25.38.45h.01"/><path fill="#615E4E" d="m34.95 9.73-2.98 2.44.14.16 3.03-2.46v-.04c0-.04 0-.1-.05-.18 0 0-.06 0-.14.08"/><path fill="#BBBAB0" d="m33.97 9.55-.24-.29v.12l-.35.28-.01-.12-.3-.38.35-.28-.32-.39-.01.1-.43.36.28.37-.54.42-.01-.1-.27-.35.01.1-.47.36.2.29-.01.11.35-.28.3.38.1.01-.33.27.19.25 1.5-1.23h.01M33.28 14.82l.4-.35-.66-.77v.01l-.4.32.66.8M31.87 13.14l.39-.32-3.04-3.54a2.39 2.39 0 0 0-1.07-.6l3.72 4.46"/><path fill="#615E4E" d="m31.9 13.12-2.41-2.93c-.43-.5-.36-.42-.95-1.07 0 0 .53.72.86 1.13l2.4 2.94.1-.07M32.56 14.08c.47.57.64.8.64.8l.1-.07-.65-.8-.09.07"/><path fill="#F2CB13" d="M32.56 15.7c.1.12.23 0 .23 0l.7-.56.7-.6s.15-.1.06-.2a.1.1 0 0 0-.03-.04l.02-.02.13-.1c.02-.02.13-.07.25.07.05.07.07.13.07.18 0 .06-.02.1-.04.11l-.93.78-.97.81c-.01.02-.12.08-.26-.1-.06-.06-.09-.12-.08-.17a.1.1 0 0 1 .04-.07l.08-.07.03-.02M33.72 15.6c.06.1.18.34.36.56l.39.42.03-.06a.66.66 0 0 1 .38-.27h.01a2.1 2.1 0 0 0-.3-.59l-.41-.44-.32.27-.08.06-.06.05M34.65 17.1l.05.07a.44.44 0 1 0 .67-.56.44.44 0 0 0-.74.12l.01-.02.02-.01c.1-.1.28-.08.37.04a.26.26 0 0 1-.37.37v-.01M28.19 16.8c0 .02.02.05.05.08a.29.29 0 0 0 .5-.16l.02-.1 1.8.17.02-.02a.15.15 0 0 1 .21 0c.06.05.07.15 0 .21a.15.15 0 0 1-.2 0l-.03-.01v-.02a.29.29 0 1 0 .31-.31l-.1-.01.01-.11c.23-1.46.33-1.53.37-1.56l4.9-4c.01 0 .02-.1-.16-.32-.19-.24-.3-.26-.33-.25l-.22.18-.02.02c.04-.02.1-.03.12 0 .08.1-.13.27-.13.27-.48.37-3.64 2.88-3.87 3.1 0 0-.5.44-.86.61-.27.13-1.59.03-1.59.03l.02-.08v-.1c0-.05-.02-.1-.06-.14l-.02-.03a.3.3 0 0 0-.2-.03v.01c.05.05.06.14 0 .19a.13.13 0 0 1-.18 0h-.01a.22.22 0 0 0-.02.12v-.02c0 .03.02.06.04.08.03.04.07.07.13.1.07.02.17.02.17.02l-.02.22.31.02.02-.09 1.4.1.13-.07-.21 1.57-1.58-.12.06-.08.06-.44v-.01l-.27-.03-.08.71c-.06-.04-.15-.06-.26-.04h.02v.02c.06.05.07.14.02.19-.05.06-.13.04-.19 0a.13.13 0 0 1-.03-.06.4.4 0 0 0-.06.18"/><path fill="#F2CB13" d="m34.51 13.02.34-.28.02-.09.39.47-.34.29.23.28-.02.1.58-.47-.28-.34.43-.35.01-.11.28.35-.01.1.56-.45-.32-.39-.01.1-.34.29v-.1l-.31-.38.35-.29-.25-.31v-.01l-1.51 1.23.21.26-.01.1"/><path fill="#9B751D" d="M34.42 14.16c.05 0 .12 0 .2.1.05.06.07.12.07.17 0 .06-.03.1-.04.11l-.93.79-.97.8c-.01.02-.12.08-.26-.09-.06-.07-.09-.13-.08-.18 0 0 .16.27.32.16.16-.11 1.72-1.42 1.83-1.52.14-.13-.14-.34-.14-.34M34.84 16.27l.04-.01h.01a2.1 2.1 0 0 0-.31-.6l-.4-.44-.1.08s.2.25.41.48c.21.24.35.49.35.49M34.97 17.32c.12.02.25-.01.34-.1a.43.43 0 0 0 .06-.61.43.43 0 0 0-.21-.14s.28.13.19.48c-.1.34-.38.37-.38.37M28.9 16.35l.08-.09.06-.44-.07-.01-.06.54M30.7 14.9l-.13.07-1.4-.1v.09h-.08l.02-.16 1.6.1"/><path fill="#9B751D" d="M30.72 14.34a1.4 1.4 0 0 1 .44.46l.12-.09a1.55 1.55 0 0 0-.43-.47l.11-.1a1.89 1.89 0 0 1 .43.47l.03-.02 4.35-3.58c.18-.16.27-.17.27-.17.04.08.03.12.02.13l-4.9 4c-.04.02-.15.09-.37 1.55l-.02.1h-.1s.22-1.44.27-1.56c.04-.12.1-.15.1-.15v-.01l-.12-.17a1.26 1.26 0 0 0-.32-.3l.12-.09M30.67 17.16c.04.03.1.05.15.06a.3.3 0 0 0 .21-.07c.06-.04.1-.11.1-.2a.29.29 0 0 0-.06-.2.27.27 0 0 0-.18-.11s.21.15.12.35c-.09.2-.34.17-.34.17M30.63 16.74l-.07.05-1.8-.17s.03.16-.11.3c-.12.1-.31.08-.4-.03a.33.33 0 0 1-.06-.1s.11.23.36.1c.22-.1.17-.34.17-.34l1.91.19M35.97 11.74l-.35.28.42.5-.01-.1-.31-.38.35-.29-.24-.31-.01-.01-.06.05.21.26M36.6 12.51l-.45.36-.01.11.56-.46-.32-.39-.01.1.23.28M34.52 12.92l-.01.1.34-.28.02-.09-.35.27M35.15 13.69l-.01.1.57-.47-.28-.34.43-.35.01-.11-.54.44.28.35-.46.38"/><path fill="#BBBAB0" d="M29.53 15.74c0 .04.02.08.05.12a.26.26 0 0 0 .4-.32.26.26 0 0 0-.1-.08l-.08-.03.05-.3h-.03l-.24-.02-.01.19-1.6-.11.08-.1.2-1.41 1.43.09.1-.06-.09.62h.34c.03-.15.1-.4.22-.5l.21-.16.54-.44-.37-.47-.78.56c-.1.06-.35.1-1.84-.01l.06-.08.01-.1c0-.08 0-.13-.05-.19-.1-.12-.33-.08-.33-.08s.15.12.05.23c-.1.11-.23-.03-.23-.03s-.02.12.07.22c.05.06.1.1.18.11h.17l-.22 1.93s-.15-.07-.22-.03c0 0 .1.1-.03.2s-.2-.1-.21-.06c-.03.1-.06.2 0 .29a.3.3 0 0 0 .54-.15l.01-.1 1.71.18s0-.14.17-.13c.12.02.16.26-.03.28-.07 0-.13-.06-.13-.06"/><path fill="#615E4E" d="m33.38 9.66-.41-.51.35-.28-.23-.28.01-.11.32.39-.35.29.3.38.01.12M33.91 9.59l-.18-.21v-.13l.24.29-.01.01-.05.04M32.2 9.77l-.34.26-.01.12.35-.28.3.38.1.01-.4-.49M32.4 9.74v-.11l-.28-.34.01.1.27.35M30.47 13.46a1.68 1.68 0 0 0-.4-.46l-.12.1c.07.03.16.1.25.23l.16.22-.1.1h-.01a1.53 1.53 0 0 0-.16-.23 1.7 1.7 0 0 0-.23-.25l-.15.09a1.55 1.55 0 0 1 .43.5c-.16.22-.19.58-.19.58h.08c.04-.16.1-.41.22-.5l.21-.17.54-.43v-.01l-.1-.13-.42.36M28.18 13.22s0 .04-.07.08c-.06.05-.16.04-.16.04s.05-.02.08-.07c.03-.04.02-.06.02-.06l.13.01M28.18 13.59l-.22 1.6.08-.09.22-1.42 1.42.09.11-.06-1.61-.12M29.8 15.43l.05-.3h-.03l-.07-.01-.04.29.09.02M29.9 15.77c-.12.22-.32.1-.32.1a.26.26 0 0 0 .37.03c.05-.05.08-.1.09-.18a.25.25 0 0 0-.16-.26s.16.1.03.31M27.26 15.72a.3.3 0 0 0 .54-.15l.01-.1 1.7.18.01-.07-1.77-.19s.04.16-.12.3c-.15.14-.37.03-.37.03"/><path fill="#222221" d="M29.6 14.31v.01h.02l.4.01c.04-.15.11-.4.23-.5l.2-.16.54-.44H31l-.47-.58-.01-.02-.73.6c-.03.02-.14.1-1.63 0l-.1-.01v-.11a.3.3 0 0 0-.6-.06c0 .08.02.16.07.22.05.07.12.1.2.11l.11.01-.2 1.85-.11-.01a.3.3 0 0 0-.27.49.3.3 0 0 0 .54-.15l.01-.1 1.7.18.02.09c0 .04.02.08.05.12.04.05.1.09.18.1.06 0 .13-.02.18-.07.06-.04.09-.1.1-.17a.25.25 0 0 0-.16-.26l-.08-.03.05-.3h-.03l-.33-.03-.01.1-1.44-.1.21-1.42 1.43.09-.08.54m.66.02.16-.02.86-.7.02-.01-.16-.2h-.02l-.53.43-.21.17c-.04.03-.1.18-.13.32h.01zm1.23-.88.77-.63-3.04-3.54c-.37-.42-1.07-.6-1.07-.6s.06.77.38 1.16l2.94 3.62.02-.01zm-2.1.87.05-.36c-.17 0-.86-.05-1-.06l-.04.23.06-.06c.2-.16.5-.13.66.07.04.05.07.1.08.17h.17l.02.01zm-1.06.3-.04.28c.04 0 .12 0 .23.02l.01-.1c-.05-.02-.1-.04-.14-.09a.4.4 0 0 1-.06-.1zm.42.31.4.03.02-.1 1.4.1-.2 1.39-1.4-.09.06-.44-.38-.05-.07.64h-.1c-.05 0-.13 0-.2.06a.3.3 0 0 0-.05.4c.1.13.3.16.41.05.14-.13.12-.3.12-.3l1.8.17v.1a.29.29 0 0 0 .47.26c.05-.05.1-.12.1-.2a.29.29 0 0 0-.25-.31l-.11-.01.01-.11c.23-1.46.33-1.53.37-1.56l4.9-4c.01 0 .02-.1-.15-.32-.2-.24-.32-.26-.33-.25-.2.16-4.71 3.86-5.02 4.1-.13.08-.85.07-1.44.03h-.1v-.1c0-.05-.02-.1-.06-.14a.26.26 0 0 0-.36-.04.26.26 0 0 0 .09.44l.08.03-.03.22h.02zm5.76-1.9.34-.29.3.38-.33.28.31.4.58-.48-.28-.34.43-.35.28.35.56-.46-.32-.39-.35.29-.31-.38.35-.29-.25-.3v-.02l-1.57 1.28.26.31zm-1.64 2.13.42-.35.4-.33-.67-.77-.82.66.05.06.6.74.02-.01zm-3.38.9a.44.44 0 0 1-.07-.07c-.04-.04-.05-.1-.07-.14l-.1-.01v.01l-.03.21.3.02-.03-.01zm.59-.92h-.02v.02l-.03.16c.04.02.08.04.12.08.06.08.1.19.1.3l.01-.1.07-.44-.25-.02m.15.69a.45.45 0 0 1-.15.23.42.42 0 0 1-.08.05l.2.01.03-.24v-.05zm4.2.83a.66.66 0 0 1 .45-.4h.01a2.1 2.1 0 0 0-.3-.6l-.41-.44-.32.27-.34.28.35.45c.15.19.41.35.56.43zm-.46-7.12-.24-.29-.35.3-.31-.39.35-.29-.32-.39c-.1.1-.44.37-.55.46l.28.34-.43.35-.28-.34-.58.47.32.39.34-.28.3.38-.33.28.23.29 1.56-1.27zm1.34 7.68a.43.43 0 0 0 .06-.61.44.44 0 0 0-.67.56c.16.18.43.2.61.05zm-2.55-1.08.96-.82.93-.78a.18.18 0 0 0 .04-.11c0-.05-.02-.11-.07-.18-.12-.14-.23-.09-.25-.07l-.94.8-.98.8s-.04.03-.04.08.02.1.08.18c.14.17.25.1.27.1zm-.65-3.81 3.02-2.46.01-.04c0-.05-.02-.16-.18-.35-.19-.23-.29-.24-.3-.24v.01l-3.05 2.49.5.58zm-1.75.1-2.04-2.5c-.37-.47-.4-1.52-.4-1.52s1.02.22 1.44.71l2.1 2.46.77-.62-.36-.47.33-.27-.04-.05-.34.27-.58-.72.9-.73.28.34.1-.08-.27-.34.8-.66.08-.07.6.72-.36.29.04.05.35-.29.37.46.39-.31-.02.01a.22.22 0 0 1 .17-.07c.14 0 .29.1.46.3.16.2.24.38.22.53a.25.25 0 0 1-.08.16l-3.02 2.46.17.2 3.01-2.47c.03-.02.1-.05.18-.04.14.01.29.12.45.32.17.2.23.37.2.5-.02.1-.09.14-.1.15l.02-.02-.2.17.4.48-.36.29.04.05.35-.3.59.73-.9.72-.27-.34-.1.08.28.34-.9.74-.6-.72.35-.28-.04-.05-.34.28-.4-.48-.89.73.66.77.39-.33c.1-.07.33-.14.54.1.2.25.11.48.04.57l-.47.4.4.44c.18.23.31.55.37.73.17.01.3.09.41.22a.64.64 0 0 1-.08.91.65.65 0 0 1-1.06-.5 2.51 2.51 0 0 1-1.03-.97l-.47.39s-.1.08-.24.07c-.12-.01-.23-.08-.32-.2-.1-.12-.15-.23-.13-.34.02-.14.12-.21.12-.21l.35-.3.02-.02-.6-.73-.05-.07-.75.62c-.06.1-.19.73-.28 1.34a.5.5 0 0 1 .22.15.5.5 0 0 1-.07.7.5.5 0 0 1-.7-.07.5.5 0 0 1-.1-.26l-1.43-.13a.49.49 0 0 1-.15.23.5.5 0 0 1-.64-.78.5.5 0 0 1 .25-.1l.05-.45-.47-.05a.5.5 0 0 1-.15.23.51.51 0 0 1-.83-.4c0-.15.06-.3.19-.4a.5.5 0 0 1 .27-.1l.16-1.47a.5.5 0 0 1-.24-.16.5.5 0 0 1 .07-.72.52.52 0 0 1 .73.08c.06.07.09.16.1.26.63.04 1.3.06 1.4.03l.07-.06.64-.52-.02-.03z"/></svg>