<?xml version="1.0" encoding="iso-8859-1"?>
<!-- Generator: Adobe Illustrator 28.3.0, SVG Export Plug-In . SVG Version: 6.00 Build 0)  -->
<svg version="1.2" baseProfile="tiny-ps" xmlns:xlink="http://www.w3.org/1999/xlink" viewBox="0 0 100 100" xmlns="http://www.w3.org/2000/svg">
  <title>Cranleigh Prep School</title>
<g>
	<polygon fill="#FFFFFF" points="33.095,15.781 33.095,27.547 44.3,27.547 44.3,43.794 27.773,43.794 27.773,32.868 15.728,32.868    15.728,67.044 27.492,67.044 27.492,56.119 44.021,56.119 44.021,71.526 33.376,71.526 33.376,83.852 67.27,83.852 67.27,72.087    54.384,72.087 54.384,55.84 71.753,55.84 71.753,66.484 84.639,66.484 84.639,33.149 73.154,33.149 73.154,44.635 55.226,44.635    55.226,28.387 67.27,28.387 67.27,15.017 33.095,15.781  " />
	<polygon fill="none" stroke="#000000" stroke-width="0.0484" points="33.095,15.781 33.095,27.547 44.3,27.547 44.3,43.794    27.773,43.794 27.773,32.868 15.728,32.868 15.728,67.044 27.492,67.044 27.492,56.119 44.021,56.119 44.021,71.526 33.376,71.526    33.376,83.852 67.27,83.852 67.27,72.087 54.384,72.087 54.384,55.84 71.753,55.84 71.753,66.484 84.639,66.484 84.639,33.149    73.154,33.149 73.154,44.635 55.226,44.635 55.226,28.387 67.27,28.387 67.27,15.017 33.095,15.781  " />
	<path fill="#9B751D" d="M67.383,15.017h-35.31v14.037c0,0,10.085,0,11.665,0c0,1.557,0,12.806,0,14.364c-1.568,0-13.369,0-14.937,0   c0-1.575,0-11.446,0-11.446H15.038v36.274h13.764c0,0,0-10.254,0-11.84c1.568,0,13.369,0,14.937,0c0,1.565,0,13.203,0,14.768   c-1.583,0-11.665,0-11.665,0v13.833h36.14V71.175c0,0-9.848,0-11.423,0c0-1.563,0-13.135,0-14.701c1.559,0,12.853,0,14.412,0   c0,1.588,0,11.916,0,11.916h13.761V31.973H71.555c0,0,0,9.87,0,11.446c-1.566,0-13.336,0-14.903,0c0-1.559,0-12.872,0-14.431   c1.581,0,11.665,0,11.665,0v-13.97H67.383L67.383,15.017z M66.343,16.884l-1.816,1.814v6.595h-11.36v21.737l1.741-1.744h18.516   c0,0,0-9.87,0-11.446c1.439,0,9.672,0,9.672,0l-1.652,1.848v28.975h-6.199l-1.851,1.86v-12.02l1.842-1.948H53.167v22.236   l1.756-1.748h11.422l-1.817,1.82v6.467H35.81l-1.87,1.808c0,0,0-8.642,0-10.096c1.583,0,11.667,0,11.667,0V54.539l1.891-1.984   H25.086v12.109h-6.332l-1.848,1.861c0,0,0-30.966,0-32.684c1.451,0,10.028,0,10.028,0l-1.848,1.848v11.335l1.848-1.736h18.672   V27.188l1.891-1.894H35.837l-1.897,1.894c0,0,0-8.844,0-10.303C35.658,16.884,66.343,16.884,66.343,16.884" />
	<polyline fill="#F2CB13" points="18.737,35.669 18.754,64.664 25.086,64.664 25.086,52.555 47.498,52.555 47.498,74.773    35.81,74.773 35.81,81.331 64.527,81.331 64.527,74.864 53.167,74.791 53.167,52.555 75.234,52.555 75.244,64.664 81.443,64.664    81.443,35.688 75.234,35.669 75.234,47.023 53.167,47.031 53.167,25.293 64.527,25.293 64.527,18.699 35.81,18.677 35.837,25.293    47.498,25.293 47.498,47.023 25.087,47.023 25.087,35.688 18.737,35.669  " />
	<path d="M67.383,15.017h-35.31v14.037c0,0,10.085,0,11.665,0c0,1.557,0,12.806,0,14.364c-1.568,0-13.369,0-14.937,0   c0-1.575,0-11.446,0-11.446H15.038V68.39h13.764c0,0,0-10.398,0-11.984c1.568,0,13.369,0,14.937,0c0,1.565,0,13.203,0,14.768   c-1.583,0-11.665,0-11.665,0v13.833h36.14V71.175c0,0-9.848,0-11.423,0c0-1.563,0-13.135,0-14.701c1.559,0,12.853,0,14.412,0   c0,1.588,0,11.916,0,11.916h13.761V31.973H71.555c0,0,0,9.87,0,11.446c-1.566,0-13.336,0-14.903,0c0-1.559,0-12.872,0-14.431   c1.581,0,11.665,0,11.665,0v-13.97H67.383L67.383,15.017z M66.343,16.884v10.303H54.907v18.099h18.516c0,0,0-9.87,0-11.446   c1.439,0,9.672,0,9.672,0l-0.006,32.684l-9.696-0.002v-12.02H54.912l0.011,18.54h11.422l-0.001,10.081L33.94,83.139   c0,0,0-8.642,0-10.096c1.583,0,11.667,0,11.667,0V54.539l-18.672-0.036v12.022H16.906c0,0,0-30.966,0-32.684   c1.451,0,10.028,0,10.028,0v11.446h18.672V27.188H33.94c0,0,0-8.844,0-10.303C35.658,16.884,66.343,16.884,66.343,16.884" />
</g>
</svg>