<?xml version="1.0" encoding="utf-8"?>
<!-- Generator: Adobe Illustrator 25.3.1, SVG Export Plug-In . SVG Version: 6.00 Build 0)  -->
<svg version="1.2" baseProfile="tiny-ps" id="Layer_1" xmlns="http://www.w3.org/2000/svg" xmlns:xlink="http://www.w3.org/1999/xlink" viewBox="0 0 500 500" xml:space="preserve">
    <title>Fat Brain Toys</title>
    <rect x="-2.5" y="-2.5" fill="#F48120" width="505" height="505"/>
    <g>
        <g>
            <path fill="#FFFFFF" d="M286.2,220c-9.5,0-17.3,7.7-17.3,17.3c0,9.5,7.7,17.3,17.3,17.3c9.5,0,17.3-7.7,17.3-17.3
                C303.5,227.7,295.7,220,286.2,220z"/>
        </g>
        <g>
            <path fill="#FFFFFF" d="M213.8,220c-9.5,0-17.3,7.7-17.3,17.3c0,9.5,7.7,17.3,17.3,17.3s17.3-7.7,17.3-17.3
                C231.1,227.7,223.4,220,213.8,220z"/>
        </g>
        <g>
            <path fill="#FFFFFF" d="M278.2,133.7c-6.3-0.9-12.2,3.4-13.1,9.7c-0.9,6.3,3.4,12.2,9.7,13.1c16,2.4,29.7,13.2,35.8,28.2
                c1.8,4.5,6.1,7.2,10.7,7.2c1.4,0,2.9-0.3,4.3-0.9c5.9-2.4,8.8-9.1,6.4-15.1C322.9,153.5,302.3,137.3,278.2,133.7z"/>
        </g>
        <g>
            <path fill="#FFFFFF" d="M445.6,225.6c7.4-18.8,6-40.2-4.3-58c-10.3-17.8-28.1-29.7-48.1-32.8c-3-20-14.9-37.8-32.8-48.1
                c-17.8-10.3-39.2-11.7-58-4.3c-12.6-15.8-31.8-25.3-52.4-25.3c-20.6,0-39.8,9.5-52.4,25.3c-18.8-7.4-40.2-6-58,4.3
                c-17.8,10.3-29.7,28.1-32.8,48.1c-20,3-37.8,14.9-48.1,32.8c-10.3,17.8-11.7,39.2-4.3,58c-15.3,12.3-24.8,30.9-25.3,50.8
                c-0.4,17.8,6.3,34.7,19,47.7c13,13.3,31,20.9,49.5,20.9h91.9c16.6,13.2,37.7,21,60.4,21c11.1,0,21.8-1.9,31.9-5.4
                c5.5,7.1,8.6,15.7,8.6,24.9c0,31.6,25.7,57.3,57.3,57.3h8.5c6.4,0,11.6-5.2,11.6-11.6v-25.1c28-3.8,49.6-27.8,49.6-56.7v-5.8
                c30.7-6.2,53.5-33.1,53.5-65.6C470.9,257.5,461.4,238.2,445.6,225.6z M405.5,321.9C405.5,321.9,405.5,321.9,405.5,321.9
                c-6.9-0.1-13.5-1.7-19.6-4.8c-5.7-2.9-12.7-0.7-15.6,5c-2.9,5.7-0.7,12.7,5,15.6c5.9,3,12.4,5.2,19,6.3v5.3
                c0,18.8-15.3,34.1-34.1,34.1h-3.9c-6.4,0-11.6,5.2-11.6,11.6v24.5c-17.4-1.5-31.1-16.2-31.1-34c0-12.5-3.8-24.8-10.6-35.1
                c16.6-10.8,30-26.6,37.7-46.1c2.3-5.9-0.6-12.7-6.5-15c-5.9-2.3-12.7,0.6-15,6.5c-11.3,28.6-38.4,47-69.1,47
                c-36.3,0-66.6-26-73-60.7c0.3,0,0.7-0.1,1-0.1c6.4-0.3,11.3-5.8,10.9-12.2c-0.3-6.4-5.8-11.3-12.2-10.9
                c-12.9,0.7-25.4,4.9-36,12.2c-5.3,3.6-6.6,10.8-3,16.1c2.2,3.3,5.9,5,9.5,5c2.3,0,4.5-0.7,6.6-2c0.3-0.2,0.6-0.4,0.9-0.6
                c2.6,11.7,7.2,22.6,13.5,32.2H97.7c-12.3,0-24.3-5.1-33-14c-8.3-8.5-12.7-19.5-12.5-31c0.3-12.1,5.6-23.4,14.4-31.4
                c7.3,8.2,16.4,14.5,26.6,18.3c-2.6,3.7-5.7,7.1-9.3,10c-5,4-5.9,11.2-1.9,16.2c2.3,2.9,5.7,4.4,9.1,4.4c2.5,0,5-0.8,7.2-2.5
                c19.1-15.1,28.9-39.4,25.6-63.5c-0.9-6.3-6.7-10.7-13-9.9c-6.3,0.9-10.8,6.7-9.9,13c0.5,3.5,0.5,7,0.2,10.5
                c-8.8-3.3-16.4-9.4-21.6-17.6c-0.1-0.2-0.3-0.3-0.4-0.5c-0.1-0.1-0.1-0.2-0.2-0.4c-8.2-13.7-8.3-30.7-0.4-44.5
                c6.2-10.8,16.7-18.3,28.6-20.9c1.8,9.6,5.7,18.6,11.4,26.6c2.3,3.1,5.8,4.8,9.4,4.8c2.3,0,4.7-0.7,6.8-2.2
                c5.2-3.7,6.3-11,2.6-16.1c-5.4-7.5-8.3-16.4-8.3-25.7c0,0,0-0.1,0-0.1c0,0,0-0.1,0-0.1c-0.2-15.9,8.2-30.8,21.9-38.7
                c10.8-6.3,23.7-7.5,35.3-3.8c-2.3,6.8-3.4,14-3.4,21.2c0,1.6,0.1,3.3,0.2,4.9c0,0.6,0.1,1.2,0.2,1.8c0.1,1,0.2,2,0.3,3
                c0.1,0.7,0.3,1.4,0.4,2.2c0.2,0.9,0.3,1.8,0.5,2.7c0.2,0.7,0.4,1.5,0.6,2.2c0.2,0.9,0.4,1.7,0.7,2.6c0.1,0.2,0.1,0.4,0.2,0.7
                c0.1,0.2,0.1,0.3,0.2,0.5c1,3,2.1,5.9,3.5,8.7c-8.7,3.4-16.7,8.4-23.5,15.1c-4.5,4.5-4.6,11.8-0.1,16.3c2.3,2.3,5.2,3.4,8.2,3.4
                c2.9,0,5.9-1.1,8.1-3.3c11.5-11.3,28.4-15.8,44-11.7c6.2,1.6,12.5-2.1,14.1-8.2c1.6-6.2-2-12.5-8.2-14.1
                c-6.2-1.7-12.6-2.4-18.9-2.2c-0.2-0.3-0.3-0.7-0.5-1c-2.2-3.4-3.8-7-5-10.9c-0.2-0.5-0.3-1.1-0.4-1.6c-0.1-0.5-0.3-1-0.4-1.5
                c-0.1-0.5-0.2-1.1-0.3-1.6c-0.1-0.5-0.2-1-0.3-1.5c-0.1-0.6-0.2-1.3-0.2-1.9c0-0.4-0.1-0.9-0.1-1.3c-0.1-1.1-0.1-2.1-0.1-3.2
                c0-7.5,1.9-14.8,5.5-21.3c0,0,0,0,0-0.1c7.8-13.9,22.5-22.6,38.4-22.6c12.5,0,24.3,5.4,32.5,14.5c-2.3,2.1-4.5,4.3-6.5,6.7
                c-4.1,4.9-3.5,12.2,1.4,16.3c2.2,1.8,4.8,2.7,7.4,2.7c3.3,0,6.6-1.4,8.9-4.1c3.1-3.6,6.7-6.7,10.7-9.2c13.7-8.1,30.7-8.3,44.5-0.3
                c12.9,7.4,21,20.9,21.9,35.6c0,0.2,0,0.3,0,0.5c0,10.1-3.4,19.7-9.7,27.5c-4,5-3.2,12.2,1.7,16.3c2.1,1.7,4.7,2.6,7.3,2.6
                c3.4,0,6.7-1.5,9-4.3c6.3-7.8,10.7-17,13-26.8c12.2,2.5,22.9,10.1,29.3,21.1c6.2,10.8,7.5,23.7,3.8,35.3
                c-6.8-2.3-13.9-3.4-21.2-3.4c-8.4,0-16.6,1.6-24.4,4.6c-2.8-2.8-5.9-5.5-9.3-7.8c-5.2-3.6-12.4-2.4-16.1,2.9
                c-3.7,5.2-2.4,12.4,2.9,16.1c13.3,9.2,20.7,25,19.5,41.1c-0.5,6.4,4.3,11.9,10.7,12.4c0.3,0,0.6,0,0.9,0c6,0,11.1-4.6,11.5-10.7
                c0.9-11.9-1.4-23.7-6.3-34.2c3.4-0.9,7-1.3,10.6-1.3c7.5,0,14.8,1.9,21.3,5.5c0,0,0,0,0.1,0c13.9,7.8,22.6,22.5,22.6,38.4
                C447.8,301.8,429.2,321.1,405.5,321.9z"/>
        </g>
    </g>
</svg>
