<svg version="1.2" baseProfile="tiny-ps" viewBox="0 0 360 360" xmlns="http://www.w3.org/2000/svg">
  <title>Mainline Menswear</title>
<rect fill="#FFFFFF" width="360" height="360" />
<g>
	<g>
		<path fill="#107CBC" d="M45,186v-32h12.4l7.4,21.9l7.4-21.9h12.4v32h-7.7v-25.2L68.8,186h-7.9l-8.1-25.2V186H45z" />
		<path fill="#107CBC" d="M129.8,186h-9l-3.6-7.4h-16.4l-3.5,7.4h-8.8l16-32h8.8L129.8,186z M114.6,173.2l-5.6-11.8l-5.6,11.8H114.6    z" />
		<path fill="#107CBC" d="M133.9,186v-32h8.4v32H133.9z" />
		<path fill="#107CBC" d="M150.2,186v-32h8.1l16.7,21.4V154h7.8v32h-8.4l-16.6-20.9V186H150.2z" />
		<path fill="#107CBC" d="M191.7,186v-31.9h8.4v26.4h20.6v5.4H191.7L191.7,186z" />
		<path fill="#107CBC" d="M226.2,186v-32h8.4v32H226.2z" />
		<path fill="#107CBC" d="M242.5,186v-32h8.1l16.7,21.4V154h7.8v32h-8.4l-16.6-20.9V186H242.5z" />
		<path fill="#107CBC" d="M283.8,186v-32h30.5v5.4h-22.1v7.1h20.6v5.4h-20.6v8.8H315v5.4L283.8,186L283.8,186z" />
	</g>
	<g>
		<path fill="#A19C9B" d="M45,205.9v-13.1h2.4l2.8,9.2c0.3,0.8,0.4,1.5,0.6,1.9c0.1-0.6,0.3-1.3,0.6-2.1l2.8-9h2.1v13.1h-1.4V195    l-3.5,10.9h-1.4l-3.5-11v11H45z" />
		<path fill="#A19C9B" d="M83.7,205.9v-13.1h8.5v1.5h-7v4h6.5v1.5h-6.5v4.5h7.2v1.5L83.7,205.9L83.7,205.9z" />
		<path fill="#A19C9B" d="M119.5,205.9v-13.1h1.7l6.3,10.3v-10.3h1.5v13.1h-1.7l-6.3-10.3v10.3H119.5z" />
		<path fill="#A19C9B" d="M155.6,201.9l1.5-0.1c0.1,0.6,0.1,1.3,0.6,1.7c0.3,0.4,0.6,0.8,1.3,1c0.6,0.1,1.1,0.4,1.8,0.4    c0.6,0,1.1-0.1,1.7-0.3c0.6-0.1,0.8-0.6,1-0.8c0.1-0.3,0.3-0.7,0.3-1.1s-0.1-0.8-0.3-1.1c-0.1-0.3-0.6-0.6-1.1-0.8    c-0.3-0.1-1-0.3-2.1-0.6c-1.1-0.3-1.8-0.6-2.4-0.8c-0.6-0.3-1-0.7-1.3-1.3c-0.3-0.6-0.4-1-0.4-1.7s0.1-1.3,0.6-1.8    c0.3-0.6,0.8-1,1.5-1.3c0.6-0.3,1.4-0.4,2.2-0.4c0.8,0,1.7,0.1,2.4,0.6c0.7,0.3,1.3,0.8,1.5,1.4c0.4,0.6,0.6,1.3,0.6,1.9l-1.5,0.1    c-0.1-0.8-0.4-1.4-0.8-1.9c-0.6-0.4-1.1-0.6-2.1-0.6c-0.8,0-1.7,0.1-2.1,0.6c-0.6,0.4-0.6,0.8-0.6,1.4c0,0.6,0.1,0.8,0.6,1.1    c0.3,0.3,1.1,0.6,2.4,0.8c1.3,0.3,2.1,0.6,2.6,0.8c0.7,0.3,1.3,0.8,1.5,1.3c0.3,0.4,0.6,1.1,0.6,1.8s-0.1,1.3-0.6,1.9    s-0.8,1.1-1.5,1.4c-0.6,0.3-1.4,0.6-2.4,0.6c-1.1,0-1.9-0.1-2.6-0.6c-0.7-0.3-1.3-0.8-1.7-1.5S155.6,202.7,155.6,201.9z" />
		<path fill="#A19C9B" d="M194.2,205.9l-3.1-13.1h1.7l1.8,8.5c0.1,0.8,0.4,1.8,0.6,2.6c0.3-1.4,0.6-2.2,0.6-2.4l2.2-8.8h1.9l1.7,6.7    c0.4,1.7,0.7,3.2,0.8,4.6c0.1-0.8,0.3-1.8,0.6-2.8l1.8-8.4h1.7l-3.2,13.1h-1.7l-2.5-9.9c-0.1-0.8-0.3-1.3-0.4-1.5    c-0.1,0.6-0.1,1.1-0.3,1.5l-2.5,9.9h-1.7V205.9z" />
		<path fill="#A19C9B" d="M232.5,205.9v-13.1h8.5v1.5h-7v4h6.5v1.5H234v4.5h7.2v1.5L232.5,205.9L232.5,205.9z" />
		<path fill="#A19C9B" d="M267,205.9l4.5-13.1h1.7l4.9,13.1h-1.8l-1.4-3.9h-4.9l-1.3,3.9H267z M270.3,200.6h4l-1.3-3.6    c-0.4-1.1-0.7-1.9-0.8-2.6c-0.1,0.8-0.4,1.7-0.6,2.5L270.3,200.6z" />
	</g>
	<g>
		<path fill="#A19C9B" d="M304.1,205.9v-13.1h5.3c1.1,0,1.8,0.1,2.4,0.3c0.6,0.1,1,0.6,1.3,1.3c0.3,0.7,0.6,1.3,0.6,1.9    c0,0.8-0.3,1.7-0.8,2.4c-0.6,0.6-1.4,1-2.5,1.3c0.4,0.1,0.7,0.4,0.8,0.6c0.6,0.6,0.8,1,1.3,1.7l2.1,3.5h-1.9l-1.7-2.6    c-0.6-0.8-0.8-1.4-1.1-1.8c-0.3-0.4-0.6-0.7-0.8-0.8c-0.3-0.1-0.6-0.3-0.7-0.3s-0.6-0.1-0.8-0.1h-1.8v5.8h-1.4V205.9z     M305.7,198.6h3.5c0.7,0,1.3-0.1,1.7-0.1c0.4-0.1,0.7-0.4,0.8-0.8c0.1-0.4,0.3-0.7,0.3-1.3c0-0.6-0.1-1.1-0.6-1.5    c-0.4-0.4-1-0.6-1.9-0.6h-3.8L305.7,198.6L305.7,198.6z" />
	</g>
</g>
</svg>