<svg version="1.2" baseProfile="tiny-ps" id="Layer_1" xmlns="http://www.w3.org/2000/svg" xmlns:xlink="http://www.w3.org/1999/xlink"
	 viewBox="0 0 164.6 164.6" xml:space="preserve">
	 <title>Tractor Supply Co.</title>
<path fill="#FFFFFF" d="M0,164.6C0,109.8,0,54.9,0,0c54.9,0,109.8,0,164.6,0c0,54.9,0,109.8,0,164.6C109.8,164.6,54.9,164.6,0,164.6
	z M55.8,140.8c0.4-0.1,0.7-0.2,1-0.3c20.6-7,41.2-14,61.8-21c0.7-0.2,1-0.7,1.1-1.4c6.9-26.4,13.7-52.9,20.6-79.3
	c0.2-0.6,0.2-1.2,0.4-1.8c-38.9,0-77.7,0-116.6,0C34.7,71.6,45.2,106.1,55.8,140.8z"/>
<path fill="#E31937" d="M55.8,140.8C45.2,106.1,34.7,71.6,24.1,37c38.9,0,77.7,0,116.6,0c-0.1,0.6-0.2,1.2-0.4,1.8
	c-6.9,26.4-13.7,52.9-20.6,79.3c-0.2,0.7-0.4,1.1-1.1,1.4c-20.6,7-41.2,14-61.8,21C56.6,140.5,56.3,140.6,55.8,140.8z M89.8,66.2
	c0-0.6,0-1,0-1.4c0-3.9,0-7.8,0-11.8c0-2.4,0.4-2.1-2.2-2.2c-1.6,0-3.4-0.4-4.3,1.6c0,0.1-0.1,0.1-0.2,0.1C80.6,51,78.4,50.5,76,51
	c-5.9,1.3-9.2,6.3-8,12.4c0.7,3.8,2.4,7.2,4.2,10.5c2.2,4.1,4.4,8.3,6.4,12.5c1.1,2.2,1.6,4.7,1.3,7.2c-0.2,1.6-1.2,2.7-2.5,2.8
	c-1.4,0.1-2.9-1.1-3.2-2.6c-0.1-0.5-0.1-1-0.1-1.4c0-1.1,0-2.2-0.1-3.2c0-0.3-0.5-0.8-0.8-0.8c-2-0.1-3.9-0.1-5.9,0
	c-0.3,0-0.8,0.5-0.8,0.8c-0.1,5.1,0,10.2,0,15.2c0,0.2,0.3,0.7,0.4,0.7c1.4,0.1,2.8,0.2,4.2,0c0.5-0.1,1-1,1.5-1.5
	c0,0,0.1,0,0.2-0.1c0.1,0.1,0.2,0.2,0.4,0.3c4,3.6,8.8,3.4,12.3-0.7c2.5-2.8,3.4-6.3,3.6-9.9c0.2-4.8-1.1-9.3-3.2-13.5
	c-2.3-4.5-4.9-9-7.3-13.5C78,65,77.4,63.9,77,62.7c-0.4-1.2,0.1-2.5,1-3c1-0.6,2.2-0.3,3.2,0.6c0.9,0.9,1.3,2.1,1.3,3.4
	c0,0.9,0,1.7,0,2.7c2.1,0,4.1,0,6.1,0C88.9,66.3,89.3,66.3,89.8,66.2z M118.1,98.6c-1.1,0-2,0-3,0c-1.5,0-2.9,0.1-4.4,0.2
	c-0.1,1.4-0.1,2.9-0.2,4.3c0,1,0,1.9-0.2,2.9c-0.2,1.2-0.8,2.3-2.2,2.5c-1.5,0.2-2.8-0.3-3.5-1.8c-0.5-1-0.8-2-1-3.1
	c-1-6.8-1.1-13.6-0.9-20.4c0.1-2.8,0.7-5.5,1.4-8.2c0.3-1.3,1.2-2.6,2.1-3.7c1-1.3,2.5-1,3.4,0.4c0.3,0.5,0.6,1,0.6,1.5
	c0.2,1.1,0.2,2.3,0.3,3.4c0,0.3,0.4,0.9,0.6,0.9c2.2,0.1,4.4,0,6.6,0c0-5.2,0-10.3,0-15.5c-2.2,0.6-4.7-1.1-6.3,1.5
	c-4-2.7-8.4-2.3-11.8,1.2c-0.9,1-1.7,2.1-2.4,3.3c-2.5,4.5-3.2,9.5-3.6,14.5c-0.5,6.6-0.4,13.2,0.5,19.7c0.5,3.7,1.3,7.2,3.1,10.5
	c3.2,6.1,11.5,7.1,16.2,2.7C118.6,110.8,118.4,104.8,118.1,98.6z M45.6,55.5c0-1.3,0-2.5,0-3.7c0-0.8,0.4-1.1,1.1-1
	c0.9,0.1,0.6,0.9,0.6,1.4c0,10.9,0,21.8,0,32.7c0,1.1-0.3,1.8-1.3,2.2c-0.8,0.3-1.1,0.9-1,1.8c0.1,1.6,0.1,3.3,0,4.9
	c0,0.8,0.2,1.1,1.1,1.1c3.9,0,7.8,0,11.8,0c0.8,0,1.1-0.3,1.1-1c0-1.6-0.1-3.3,0-4.9c0-1-0.3-1.6-1.2-2c-0.9-0.4-1.1-1-1.1-2
	c0-11,0-22,0-33c0-1.5,0.1-1.6,1.8-1.2c0,1.4,0,2.9,0,4.4c2.2,0,4.2,0,6.3,0c0-4.9,0-9.7,0-14.6c-0.3,0-0.4-0.1-0.6-0.1
	c-8,0-16.1,0-24.1,0c-0.9,0-1,0.4-1,1.2c0,4.2,0,8.3,0,12.5c0,0.3,0.1,0.7,0.1,1.1C41.4,55.5,43.4,55.5,45.6,55.5z"/>
<path fill="#FFFFFF" d="M89.8,66.2c-0.5,0-0.9,0.1-1.2,0.1c-2,0-3.9,0-6.1,0c0-1,0-1.8,0-2.7c0-1.3-0.4-2.4-1.3-3.4
	c-0.9-0.9-2.2-1.2-3.2-0.6c-1,0.5-1.5,1.8-1,3c0.4,1.2,1,2.4,1.6,3.5c2.4,4.5,4.9,9,7.3,13.5c2.2,4.2,3.4,8.7,3.2,13.5
	c-0.1,3.7-1.1,7.1-3.6,9.9c-3.5,4.1-8.4,4.3-12.3,0.7c-0.1-0.1-0.2-0.2-0.4-0.3c-0.1,0-0.2,0-0.2,0.1c-0.5,0.5-0.9,1.4-1.5,1.5
	c-1.4,0.2-2.8,0.1-4.2,0c-0.2,0-0.4-0.5-0.4-0.7c0-5.1,0-10.2,0-15.2c0-0.3,0.5-0.8,0.8-0.8c2-0.1,3.9-0.1,5.9,0
	c0.3,0,0.8,0.5,0.8,0.8c0.1,1.1,0,2.2,0.1,3.2c0,0.5,0,1,0.1,1.4c0.3,1.5,1.8,2.7,3.2,2.6c1.3-0.1,2.3-1.2,2.5-2.8
	c0.3-2.5-0.3-5-1.3-7.2c-2-4.2-4.2-8.3-6.4-12.5c-1.8-3.4-3.4-6.8-4.2-10.5c-1.2-6.1,2.1-11.2,8-12.4c2.3-0.5,4.6,0,7.1,1.7
	c0.1,0,0.2-0.1,0.2-0.1c0.9-2,2.6-1.7,4.3-1.6c2.5,0,2.2-0.2,2.2,2.2c0,3.9,0,7.8,0,11.8C89.8,65.2,89.8,65.7,89.8,66.2z"/>
<path fill="#FFFFFF" d="M118.1,98.6c0.3,6.2,0.5,12.2-4.5,16.9c-4.7,4.3-13,3.4-16.2-2.7c-1.8-3.3-2.6-6.9-3.1-10.5
	c-0.9-6.6-1-13.1-0.5-19.7c0.4-5,1.1-10,3.6-14.5c0.6-1.2,1.5-2.3,2.4-3.3c3.3-3.4,7.8-3.9,11.8-1.2c1.6-2.6,4.1-0.9,6.3-1.5
	c0,5.2,0,10.3,0,15.5c-2.2,0-4.4,0-6.6,0c-0.2,0-0.6-0.6-0.6-0.9c-0.2-1.1-0.2-2.3-0.3-3.4c-0.1-0.5-0.4-1.1-0.6-1.5
	c-0.9-1.4-2.4-1.6-3.4-0.4c-0.9,1.1-1.7,2.4-2.1,3.7c-0.7,2.7-1.2,5.5-1.4,8.2c-0.3,6.8-0.2,13.7,0.9,20.4c0.2,1,0.5,2.1,1,3.1
	c0.7,1.4,2,2,3.5,1.8c1.4-0.2,2-1.3,2.2-2.5c0.2-0.9,0.2-1.9,0.2-2.9c0.1-1.4,0.1-2.9,0.2-4.3c1.5-0.1,2.9-0.1,4.4-0.2
	C116.1,98.6,117.1,98.6,118.1,98.6z"/>
<path fill="#FFFFFF" d="M45.6,55.5c-2.2,0-4.3,0-6.4,0c0-0.4-0.1-0.7-0.1-1.1c0-4.2,0-8.3,0-12.5c0-0.8,0.1-1.2,1-1.2
	c8,0,16.1,0,24.1,0c0.2,0,0.3,0,0.6,0.1c0,4.9,0,9.7,0,14.6c-2.1,0-4.1,0-6.3,0c0-1.5,0-3,0-4.4c-1.7-0.4-1.8-0.3-1.8,1.2
	c0,11,0,22,0,33c0,1,0.2,1.6,1.1,2c0.9,0.4,1.2,1,1.2,2c-0.1,1.6,0,3.3,0,4.9c0,0.8-0.3,1-1.1,1c-3.9,0-7.8,0-11.8,0
	c-0.8,0-1.1-0.3-1.1-1.1c0-1.6,0.1-3.3,0-4.9c0-0.9,0.2-1.5,1-1.8c1-0.4,1.3-1.1,1.3-2.2c0-10.9,0-21.8,0-32.7
	c0-0.5,0.3-1.3-0.6-1.4c-0.7-0.1-1.1,0.1-1.1,1C45.7,53,45.6,54.1,45.6,55.5z"/>
</svg>
