<?xml version="1.0" encoding="UTF-8" standalone="yes"?>
<svg version="1.2" baseProfile="tiny-ps" viewBox="0 0 113.4 113.4" xml:space="preserve" xmlns="http://www.w3.org/2000/svg">
  <title>bimi-svg-tiny-12-ps</title>
  <rect x="0" y="0" fill="#001F12" width="113.4" height="113.4"/>
  <g>
    <path fill="#FFFFFF" d="M57.4,40.1h-0.6c-0.2,0.8-0.7,1.5-1.3,2.2c-0.6,0.6-1.4,1.1-2.2,1.3v0.6c0.8,0.2,1.6,0.7,2.2,1.3&#xD;&#xA;&#x9;&#x9;c0.6,0.6,1.1,1.4,1.3,2.2h0.6c0.2-0.8,0.7-1.5,1.3-2.2c0.6-0.6,1.4-1.1,2.2-1.3v-0.6c-0.8-0.2-1.6-0.7-2.2-1.3&#xD;&#xA;&#x9;&#x9;C58.1,41.6,57.6,40.9,57.4,40.1z"/>
    <path fill="#FFFFFF" d="M70.3,48.8c-5.7,0-8.8,3.3-8.8,9.3s3.2,9.3,8.8,9.3c5.7,0,8.8-3.3,8.8-9.3S75.9,48.8,70.3,48.8z M70.3,63.4&#xD;&#xA;&#x9;&#x9;c-2.9,0-4.4-1.9-4.4-5.4s1.6-5.4,4.4-5.4s4.4,2,4.4,5.4S73.1,63.4,70.3,63.4z"/>
    <path fill="#FFFFFF" d="M91.4,48.8L91.4,48.8c-2,0-3.8,1.2-4.7,2.9l-0.4,0.9h-0.9v-3.5h-4.2V67h4.5v-9.4c0-3.5,1.2-4.9,4.1-4.9&#xD;&#xA;&#x9;&#x9;c2.9,0,4.1,1.5,4.1,4.9V67h4.5v-10C98.5,51.2,96.4,48.8,91.4,48.8L91.4,48.8z"/>
    <path fill="#FFFFFF" d="M45.3,48.8L45.3,48.8c-1.8,0-3.5,1-4.2,2.6l-0.6,1.3h-0.9V41.9H35v25h4.5v-3.5h0.9l0.6,1.3&#xD;&#xA;&#x9;&#x9;c0.8,1.6,2.4,2.6,4.2,2.6h0.1c4.4,0,7.4-3.4,7.4-9.3S49.7,48.8,45.3,48.8L45.3,48.8z M43.8,63.5c-3,0-4.5-1.8-4.5-5.4&#xD;&#xA;&#x9;&#x9;s1.5-5.4,4.5-5.4c3,0,4.5,2,4.5,5.4S46.7,63.5,43.8,63.5L43.8,63.5z"/>
    <path fill="#FFFFFF" d="M28,52.6h-0.9l-0.6-1.3c-0.8-1.6-2.4-2.6-4.2-2.6h-0.1c-4.4,0-7.3,3.4-7.3,9.3s2.9,9.3,7.4,9.3h0.1&#xD;&#xA;&#x9;&#x9;c1.8,0,3.4-1,4.2-2.6l0.6-1.3h0.9V67h4.5V49.1h-4.5L28,52.6L28,52.6L28,52.6z M23.8,63.5c-2.9,0-4.5-2-4.5-5.4s1.6-5.4,4.5-5.4&#xD;&#xA;&#x9;&#x9;c3,0,4.5,1.8,4.5,5.4S26.8,63.5,23.8,63.5z"/>
    <rect x="54.8" y="49.1" fill="#FFFFFF" width="4.5" height="17.8"/>
  </g>
</svg>