<?xml version="1.0" encoding="utf-8"?>
<!-- Generator: Adobe Illustrator 27.2.0, SVG Export Plug-In . SVG Version: 6.00 Build 0)  -->
<svg version="1.2" baseProfile="tiny-ps" id="Layer_1" xmlns="http://www.w3.org/2000/svg" xmlns:xlink="http://www.w3.org/1999/xlink"
	viewBox="0 0 600 600" xml:space="preserve">
<title>Creative Fabrica </title>
<g>
	<g>
		<path d="M45.7,217.1c3.5-6.4,8.4-11.3,14.7-14.8c6.3-3.5,13.4-5.3,21.3-5.3c9.7,0,18.1,2.6,25,7.7s11.6,12.1,13.9,21h-22
			c-1.6-3.4-4-6-7-7.8c-3-1.8-6.4-2.7-10.2-2.7c-6.1,0-11.1,2.1-15,6.4c-3.8,4.3-5.7,10-5.7,17.2s1.9,12.9,5.7,17.2
			c3.8,4.3,8.8,6.4,15,6.4c3.8,0,7.2-0.9,10.2-2.7c3-1.8,5.3-4.4,7-7.8h22c-2.3,8.9-7,15.9-13.9,21s-15.3,7.6-25,7.6
			c-8,0-15-1.8-21.3-5.3c-6.3-3.5-11.2-8.5-14.7-14.8c-3.5-6.3-5.3-13.5-5.3-21.6C40.4,230.7,42.2,223.5,45.7,217.1z"/>
		<path d="M161.7,217.1c3.5-2.1,7.4-3.1,11.7-3.1v21.2h-5.5c-5,0-8.7,1.1-11.2,3.2c-2.5,2.1-3.7,5.9-3.7,11.3v30.3h-20v-65.2h20
			v10.9C155.2,222,158.2,219.2,161.7,217.1z"/>
		<path d="M244.1,252.1h-45.2c0.3,4,1.6,7.1,3.9,9.3c2.3,2.1,5.1,3.2,8.5,3.2c5,0,8.5-2.1,10.4-6.3h21.3c-1.1,4.3-3.1,8.1-5.9,11.6
			c-2.8,3.4-6.4,6.1-10.7,8.1c-4.3,1.9-9.1,2.9-14.4,2.9c-6.4,0-12.1-1.4-17.1-4.1c-5-2.7-8.9-6.6-11.7-11.7s-4.2-11-4.2-17.8
			s1.4-12.7,4.1-17.8c2.8-5.1,6.6-9,11.6-11.7c5-2.7,10.7-4.1,17.2-4.1c6.3,0,11.9,1.3,16.8,4c4.9,2.6,8.7,6.4,11.5,11.3
			c2.8,4.9,4.2,10.6,4.2,17.2C244.5,248.1,244.4,250.1,244.1,252.1z M224,241c0-3.4-1.2-6.1-3.5-8.2c-2.3-2-5.3-3-8.8-3
			c-3.3,0-6.2,1-8.5,2.9s-3.7,4.7-4.3,8.3L224,241L224,241z"/>
		<path d="M256.6,229.6c2.5-5.1,6-9,10.3-11.7c4.4-2.7,9.2-4.1,14.6-4.1c4.6,0,8.6,0.9,12.1,2.8c3.5,1.9,6.1,4.3,8,7.4v-9.2h20v65.2
			h-20v-9.2c-2,3-4.7,5.5-8.1,7.4c-3.5,1.9-7.5,2.8-12.1,2.8c-5.3,0-10.1-1.4-14.5-4.1c-4.4-2.8-7.8-6.7-10.3-11.8
			c-2.5-5.1-3.8-11-3.8-17.7S254,234.6,256.6,229.6z M297.5,235.5c-2.8-2.9-6.1-4.3-10.1-4.3c-4,0-7.3,1.4-10.1,4.3
			c-2.8,2.8-4.2,6.8-4.2,11.7s1.4,8.9,4.2,11.9c2.8,2.9,6.1,4.4,10.1,4.4c4,0,7.3-1.4,10.1-4.3c2.8-2.9,4.2-6.8,4.2-11.8
			C301.6,242.3,300.2,238.4,297.5,235.5z"/>
		<path d="M374.2,263v16.9H364c-7.2,0-12.9-1.8-16.9-5.3c-4-3.5-6.1-9.3-6.1-17.4v-25.9H333v-16.6h7.9v-15.9h20v15.9h13.1v16.6H361
			v26.2c0,1.9,0.5,3.4,1.4,4.2c0.9,0.9,2.5,1.3,4.7,1.3H374.2z"/>
		<path d="M388.5,206.5c-2.2-2.1-3.3-4.6-3.3-7.6c0-3.1,1.1-5.7,3.3-7.8c2.2-2.1,5.1-3.1,8.6-3.1c3.4,0,6.2,1,8.5,3.1
			c2.2,2.1,3.3,4.7,3.3,7.8c0,3-1.1,5.6-3.3,7.6c-2.2,2.1-5,3.1-8.5,3.1C393.6,209.6,390.7,208.6,388.5,206.5z"/>
		<rect x="387" y="214.7" width="20" height="65.2"/>
		<path d="M452.6,261.2l14.1-46.5H488l-23.1,65.2h-24.7L417,214.7h21.4L452.6,261.2z"/>
		<path d="M559.2,252.1H514c0.3,4,1.6,7.1,3.9,9.3c2.3,2.1,5.1,3.2,8.5,3.2c5,0,8.5-2.1,10.4-6.3h21.3c-1.1,4.3-3.1,8.1-5.9,11.6
			c-2.8,3.4-6.4,6.1-10.7,8.1c-4.3,1.9-9.1,2.9-14.4,2.9c-6.4,0-12.1-1.4-17.1-4.1c-5-2.7-8.9-6.6-11.7-11.7s-4.2-11-4.2-17.8
			s1.4-12.7,4.2-17.8c2.8-5.1,6.6-9,11.6-11.7c5-2.7,10.7-4.1,17.2-4.1c6.3,0,11.9,1.3,16.8,4c4.9,2.6,8.7,6.4,11.5,11.3
			c2.8,4.9,4.2,10.6,4.2,17.2C559.6,248.1,559.5,250.1,559.2,252.1z M539.1,241c0-3.4-1.2-6.1-3.5-8.2c-2.3-2-5.3-3-8.8-3
			c-3.3,0-6.2,1-8.5,2.9s-3.7,4.7-4.3,8.3L539.1,241L539.1,241z"/>
	</g>
	<g>
		<path d="M126.8,329v16H93.4v17.3h25v15.5h-25v33.2h-20v-82H126.8z"/>
		<path d="M140.6,360.7c2.5-5.1,6-9,10.3-11.7c4.4-2.7,9.2-4.1,14.6-4.1c4.6,0,8.6,0.9,12.1,2.8c3.5,1.9,6.1,4.3,8,7.4v-9.2h20v65.2
			h-20v-9.2c-1.9,3-4.7,5.5-8.1,7.4c-3.5,1.9-7.5,2.8-12.1,2.8c-5.3,0-10.1-1.4-14.5-4.1c-4.4-2.8-7.8-6.7-10.3-11.8
			s-3.8-11-3.8-17.7C136.8,371.6,138.1,365.8,140.6,360.7z M181.5,366.7c-2.8-2.9-6.1-4.3-10.1-4.3c-4,0-7.3,1.4-10.1,4.3
			c-2.8,2.8-4.2,6.8-4.2,11.7s1.4,8.9,4.2,11.9c2.8,2.9,6.1,4.4,10.1,4.4c4,0,7.3-1.4,10.1-4.3c2.8-2.9,4.2-6.8,4.2-11.8
			C185.7,373.5,184.3,369.5,181.5,366.7z"/>
		<path d="M251.6,347.7c3.5-1.9,7.5-2.8,12-2.8c5.4,0,10.2,1.4,14.6,4.1c4.4,2.7,7.8,6.6,10.3,11.7c2.5,5.1,3.8,10.9,3.8,17.6
			c0,6.7-1.3,12.6-3.8,17.7s-6,9-10.3,11.8c-4.4,2.8-9.2,4.1-14.6,4.1c-4.6,0-8.6-0.9-12-2.7c-3.4-1.8-6.1-4.3-8.1-7.3v9.1h-20
			v-86.5h20v30.5C245.4,352.1,248.1,349.6,251.6,347.7z M267.9,366.6c-2.8-2.8-6.2-4.3-10.2-4.3c-4,0-7.3,1.4-10.1,4.3
			s-4.2,6.8-4.2,11.8c0,5,1.4,8.9,4.2,11.8c2.8,2.9,6.1,4.3,10.1,4.3c4,0,7.4-1.5,10.2-4.4c2.8-2.9,4.2-6.9,4.2-11.9
			C272,373.3,270.6,369.4,267.9,366.6z"/>
		<path d="M333.4,348.3c3.5-2.1,7.4-3.1,11.7-3.1v21.2h-5.5c-5,0-8.7,1.1-11.2,3.2c-2.5,2.1-3.7,5.9-3.7,11.3v30.3h-20v-65.2h20
			v10.9C326.9,353.1,329.9,350.3,333.4,348.3z"/>
		<path d="M356.2,337.7c-2.2-2.1-3.3-4.6-3.3-7.6c0-3.1,1.1-5.7,3.3-7.8s5.1-3.1,8.6-3.1c3.4,0,6.2,1,8.5,3.1s3.3,4.7,3.3,7.8
			c0,3-1.1,5.6-3.3,7.6c-2.2,2.1-5,3.1-8.5,3.1C361.2,340.8,358.4,339.7,356.2,337.7z"/>
		<rect x="354.7" y="345.9" width="20" height="65.2"/>
		<path d="M391.1,360.7c2.8-5.1,6.6-9,11.6-11.7c4.9-2.7,10.6-4.1,17-4.1c8.2,0,15,2.1,20.5,6.4c5.5,4.3,9.1,10.3,10.8,18.1h-21.3
			c-1.8-5-5.3-7.5-10.4-7.5c-3.7,0-6.6,1.4-8.8,4.3c-2.2,2.8-3.3,6.9-3.3,12.2c0,5.3,1.1,9.4,3.3,12.2c2.2,2.8,5.1,4.3,8.8,4.3
			c5.1,0,8.6-2.5,10.4-7.5H451c-1.7,7.6-5.3,13.6-10.9,18c-5.5,4.4-12.3,6.5-20.4,6.5c-6.4,0-12.1-1.4-17-4.1
			c-4.9-2.7-8.8-6.6-11.6-11.7c-2.8-5.1-4.2-11-4.2-17.8C387,371.7,388.3,365.8,391.1,360.7z"/>
		<path d="M461.5,360.7c2.5-5.1,6-9,10.3-11.7c4.4-2.7,9.2-4.1,14.6-4.1c4.6,0,8.6,0.9,12.1,2.8c3.5,1.9,6.1,4.3,8,7.4v-9.2h20v65.2
			h-20v-9.2c-1.9,3-4.7,5.5-8.1,7.4c-3.5,1.9-7.5,2.8-12.1,2.8c-5.3,0-10.1-1.4-14.5-4.1c-4.4-2.8-7.8-6.7-10.3-11.8
			c-2.5-5.1-3.8-11-3.8-17.7C457.7,371.6,459,365.8,461.5,360.7z M502.4,366.7c-2.8-2.9-6.1-4.3-10.1-4.3c-4,0-7.3,1.4-10.1,4.3
			c-2.8,2.8-4.2,6.8-4.2,11.7s1.4,8.9,4.2,11.9c2.8,2.9,6.1,4.4,10.1,4.4c4,0,7.3-1.4,10.1-4.3c2.8-2.9,4.2-6.8,4.2-11.8
			C506.6,373.5,505.2,369.5,502.4,366.7z"/>
	</g>
</g>
</svg>
