<?xml version="1.0" encoding="utf-8"?>
<!-- Generator: Adobe Illustrator 28.3.0, SVG Export Plug-In . SVG Version: 6.00 Build 0)  -->
<svg version="1.2" baseProfile="tiny-ps" id="Calque_1"
	 xmlns="http://www.w3.org/2000/svg" xmlns:xlink="http://www.w3.org/1999/xlink" viewBox="0 0 512 512"
	 xml:space="preserve">
<title>Bobbies</title>
<rect fill="#222323" width="512" height="512"/>
<g id="Layer_4">
	<g>
		<path fill-rule="evenodd" fill="#FFFFFF" d="M48.7,196.3H45v74.9h16.7v-76.6C57.2,195.9,52.1,196.2,48.7,196.3z"/>
		<path fill-rule="evenodd" fill="#FFFFFF" d="M103.6,247.1c-0.1,2-0.3,4.1-0.8,6.1c-1.5,6.7-5.1,12.2-11.3,15.5
			c-5,2.7-10.3,3-15.8,2c-1.4-0.3-2.8-0.9-4.2-1.3c13.5,2.3,12.9-12.1,13-14.7v-16.5c0-2.6,0.5-16.9-13-14.7c1.4-0.4,2.8-1,4.2-1.3
			c5.5-1.1,10.8-0.7,15.8,2c6.2,3.3,9.8,8.8,11.3,15.5c0.4,2.1,0.7,4.1,0.8,6.1L103.6,247.1L103.6,247.1L103.6,247.1z"/>
		<path fill-rule="evenodd" fill="#FFFFFF" d="M194.2,196.3h-3.7v74.9h16.7v-76.6C202.7,195.9,197.6,196.2,194.2,196.3z"/>
		<path fill-rule="evenodd" fill="#FFFFFF" d="M216.4,269.2c1.8,0,3.4,0.1,4.9,0c7.4-0.4,8-10.6,8.1-13c0.3-6.1,0.4-12.1,0.3-18.2
			c0-2.5,0.5-16.6-12.7-14.3c1.4-0.4,2.7-1,4.1-1.3c5.3-1.1,10.6-0.7,15.4,1.9c6.1,3.3,9.6,8.6,11.1,15.1c1.6,7.4,0.9,14.6-3.2,21.1
			c-3.8,6.1-9.2,9.7-16.5,10.4c-3.6,0.4-7.1,0-10.5-1.3C217.1,269.6,216.9,269.5,216.4,269.2L216.4,269.2z"/>
		<path fill-rule="evenodd" fill="#FFFFFF" d="M269.4,196.3h-3.7v74.9h16.7v-76.6C277.9,195.9,272.8,196.2,269.4,196.3z"/>
		<path fill-rule="evenodd" fill="#FFFFFF" d="M340.7,223.3H337l-0.1,47.9h16.7l0.1-47.1v-2.5C349.1,222.9,344.1,223.2,340.7,223.3
			L340.7,223.3z"/>
		<path fill-rule="evenodd" fill="#FFFFFF" d="M291.6,269.4c1.8,0,3.4,0.1,4.9,0c7.5-0.4,8-10.7,8.1-13.1c0.3-6.1,0.4-12.1,0.3-18.2
			c0-2.5,0.5-16.6-12.7-14.4c1.4-0.4,2.7-1,4.1-1.3c5.4-1.1,10.6-0.7,15.4,1.9c6.1,3.3,9.6,8.6,11.1,15.2c1.6,7.4,0.9,14.6-3.2,21.2
			c-3.8,6.1-9.2,9.7-16.5,10.5c-3.6,0.4-7.1,0-10.5-1.3C292.3,269.7,292.1,269.6,291.6,269.4L291.6,269.4z"/>
		<path fill-rule="evenodd" fill="#FFFFFF" d="M140.9,271.5c-12.6-1.4-23.2-11.7-23.2-24.8s10.2-23.9,23.2-24.8
			c0,0-4.2,2.3-4.2,10.2v28.7C136.7,260.6,136.1,268.1,140.9,271.5z"/>
		<path fill-rule="evenodd" fill="#FFFFFF" d="M395.8,271.4c-10.6-0.6-27-5.8-27.1-25.4c0-12.9,10-23.4,22.8-24.4
			c0,0-4.2,2.2-4.2,10v28.1C387.3,259.6,387.1,269,395.8,271.4z"/>
		<path fill-rule="evenodd" fill="#FFFFFF" d="M151.9,271.5c12.6-1.4,23.2-11.7,23.2-24.8s-10.2-23.9-23.2-24.8
			c0,0,4.2,2.3,4.2,10.2v28.7C156.2,260.6,156.8,268.1,151.9,271.5z"/>
		<path fill-rule="evenodd" fill="#FFFFFF" d="M354.4,203.7c0,4.8-3.9,8.7-8.7,8.7s-8.7-3.9-8.7-8.7s3.9-8.7,8.7-8.7
			S354.4,198.9,354.4,203.7z"/>
		<path fill-rule="evenodd" fill="#FFFFFF" d="M399.2,221.6c0,0,18,1.9,19.7,21.4h-16.4l-0.1-11.8
			C402.4,231.1,402.7,224.3,399.2,221.6L399.2,221.6z"/>
		<path fill-rule="evenodd" fill="#FFFFFF" d="M449.2,221.8c-1.1,1.2-2.6,2.5-3.5,4c-2.2,3.6-1.4,8.7,1.9,11.8
			c1.7,1.6,3.7,2.9,5.6,4.2c3.5,2.3,7.3,4.4,10,7.6c5.2,6.1,4.1,13.1-2.5,17.6c-3.3,2.3-7,3.6-11.1,4.4c0.9-0.7,1.8-1.3,2.5-2
			c2.5-2.5,2.5-5.7,0.4-8.8c-1.9-2.7-4.6-4.3-7.3-6c-3.4-2.2-7-4.1-10-7.1c-4.9-5-4.8-13.2-0.7-18.3c3.2-4,7.6-5.8,12.4-7
			C447.7,222,448.6,221.9,449.2,221.8L449.2,221.8z"/>
		<path fill-rule="evenodd" fill="#FFFFFF" d="M439.5,263.3c0,3-2.4,5.4-5.4,5.4s-5.4-2.4-5.4-5.4s2.4-5.4,5.4-5.4
			S439.5,260.4,439.5,263.3z"/>
		<path fill-rule="evenodd" fill="#FFFFFF" d="M467,229.9c0,3-2.4,5.4-5.4,5.4s-5.4-2.4-5.4-5.4s2.4-5.4,5.4-5.4S467,227,467,229.9z
			"/>
		<path fill="#FFFFFF" d="M212.9,297l-6.1,0v20.3h2.9v-8.9l3.7,0c0,0,7,0.4,7-6C220.2,296.6,212.9,297,212.9,297z M213.2,306h-3.5
			v-6.7h3.3c0,0,4.8,0,4.8,3.4C217.8,306.4,213.2,306,213.2,306L213.2,306z"/>
		<path fill="#FFFFFF" d="M236.2,297h-2.6l-8.6,20.3h3.3l2.2-5h9l2.2,5h3.1L236.2,297L236.2,297z M231.2,309.5l3.7-9.3l3.6,9.3
			H231.2z"/>
		<path fill="#FFFFFF" d="M267,311.9c0.2,3,1.2,5.4,1.2,5.4h-3.4c0,0-0.7-2.8-1-5.9c-0.4-3.2-2.6-3.3-2.6-3.3h-5.5v9.2h-2.8v-20.5
			h8.4c4,0,5.4,2.4,5.8,3.7c0.4,1.4,0.2,3.1,0,3.6c-0.4,1.4-1.8,2.6-2.6,2.9C264.5,307.1,266.7,307.7,267,311.9L267,311.9z
			 M261.4,299.5h-5.8v5.9h5.7c1.5,0,3.1-0.9,3.1-3C264.4,300.1,262.7,299.5,261.4,299.5L261.4,299.5z"/>
		<rect x="277.9" y="297" fill="#FFFFFF" width="3.1" height="20.3"/>
		<path fill="#FFFFFF" d="M290.1,311.2l3.1,0c0,3.6,4.2,3.5,4.2,3.5c2.6,0,3.9-0.6,4.5-1.7c0.5-0.9,0.6-2,0-3c-0.8-1.1-3-1.6-4.9-2
			s-3.1-0.8-3.8-1.2c-0.9-0.5-1.6-1.1-2.1-1.8s-0.7-1.5-0.7-2.4c0-1,0.3-1.9,0.8-2.8s1.5-1.6,2.5-2c1.1-0.4,2.3-0.8,3.9-0.8
			c1.9,0,2.7,0.2,3.8,0.7c1.7,0.7,3.1,2.4,3.1,4.6h-3.1c0-2-2.3-2.8-3.9-2.8s-2.6,0.4-3.3,1c-0.7,0.6-1.2,1.2-1.2,2
			c0,0.7,0.2,1.3,0.8,1.7c0.5,0.5,1.8,0.9,3.9,1.4s3.5,0.9,4.3,1.2c1.1,0.5,2,1.2,2.5,2s0.8,1.7,0.8,2.8s-0.3,2-0.9,2.9
			s-1.5,1.6-2.6,2.1c-1.1,0.5-2.4,0.8-3.8,0.8c-1.8,0-3.3,0-4.5-0.6c-1.2-0.5-2.1-1.3-2.8-2.3C290.4,313.4,290.1,312.5,290.1,311.2
			L290.1,311.2z"/>
	</g>
</g>
</svg>
