<?xml version="1.0" encoding="utf-8"?>
<!-- Generator: Adobe Illustrator 26.3.1, SVG Export Plug-In . SVG Version: 6.00 Build 0)  -->
<svg version="1.2" baseProfile="tiny-ps" id="Layer_1" xmlns="http://www.w3.org/2000/svg" xmlns:xlink="http://www.w3.org/1999/xlink"
	 viewBox="0 0 841.89 595.28" xml:space="preserve">
<title>Rosy Blue</title>
<path fill="#FFFFFF" d="M372.5,199.06 M372.5,199.06c7.83,12.47,21.66,26.88,21.66,26.88s14.41,13.82,26.88,21.65c0,0,0,0,0,0l0,0
	l0,0v0v0c12.47-7.83,26.88-21.66,26.88-21.66s13.83-14.4,21.66-26.88l0,0l0,0l0,0l0,0c-7.84-12.47-21.66-26.88-21.66-26.88
	s-14.41-13.82-26.88-21.66c-12.47,7.83-26.88,21.66-26.88,21.66S380.33,186.59,372.5,199.06 M421.19,150.87
	c-0.07-0.15-0.11-0.26-0.13-0.31C421.08,150.61,421.13,150.72,421.19,150.87"/>
<g>
	<path d="M597.38,313.79v-14.39h15.04v-3.44h-15.04V282.8h27.61v-3.44h-31.05v37.86h32.26v-3.43H597.38z M568.46,303.54
		c0,6.82-4.04,11.06-13.28,11.06c-9.24,0-13.28-4.24-13.28-11.06v-24.18h-3.43v24.18c0,9.59,6.31,14.49,16.71,14.49
		c10.4,0,16.71-4.9,16.71-14.49v-24.18h-3.43V303.54z M495.37,279.36h-3.43v37.86h28.02v-3.44h-24.58V279.36z M460.04,313.79h-18.73
		v-14.29h18.73c5.35,0,8.88,2.47,8.88,7.32C468.93,312.02,465.14,313.79,460.04,313.79 M441.31,282.8h18.73
		c4.85,0,7.17,2.83,7.17,6.56c0,4.24-3.13,6.71-7.17,6.71h-18.73V282.8z M466.86,297.49c0.96-0.91,3.79-3.38,3.79-8.13
		c0-5.8-4.55-10-10.6-10h-22.16v37.86h22.16c7.47,0,12.32-4.04,12.32-10.4C472.36,301.22,468.72,298.65,466.86,297.49
		 M388.83,297.39l-14.29-18.03h-4.44l17.01,21.35v16.51h3.43v-16.51l17.01-21.35h-4.44L388.83,297.39z M345.12,295.82l-8.88-0.15
		c-4.39-0.05-8.63-1.31-8.63-5.91c0-3.13,3.58-7.77,13.03-7.77c6.36,0,9.79,2.43,13.22,4.54l2.12-2.57
		c-1.97-1.31-6.51-5.4-15.59-5.4c-11.71,0-16.2,6.2-16.2,11.16c0,7.42,6.61,9.33,12.07,9.38l8.68,0.15
		c6.62,0.15,9.79,3.79,9.79,7.22c0,5.6-6.71,8.13-14.54,8.13c-10.25,0-13.78-4.75-16.36-6.76l-2.37,2.47
		c2.68,2.53,7.32,7.72,18.73,7.72c13.43,0,17.97-6.16,17.97-11.56C358.14,300.87,353.5,295.97,345.12,295.82 M286.32,314.6
		c-10.15,0-16.86-7.62-16.86-16.3c0-8.68,6.71-16.31,16.86-16.31c10.15,0,16.86,7.62,16.86,16.31
		C303.18,306.98,296.47,314.6,286.32,314.6 M286.32,278.56c-11.66,0-20.29,8.33-20.29,19.74c0,11.41,8.63,19.74,20.29,19.74
		c11.66,0,20.29-8.33,20.29-19.74C306.61,286.89,298.03,278.56,286.32,278.56 M235.6,297.64h-16.71V282.8h19.74
		c2.47,0,7.62,1.1,7.62,7.22C246.25,297.13,240.39,297.64,235.6,297.64 M249.68,290.02c0-3.89-2.52-10.65-11.05-10.65h-23.17v37.86
		h3.43v-16.15h16.5l9.49,16.15h3.99l-9.54-16.15C242.61,300.82,249.68,298.9,249.68,290.02"/>
</g>
<g>
	<polygon points="385.91,347.18 385.91,352.38 377.68,352.38 377.68,347.18 376.6,347.18 376.6,359.05 377.68,359.05 377.68,353.46 
		385.91,353.46 385.91,359.05 386.98,359.05 386.98,347.18 	"/>
	<polygon points="360.46,347.18 360.46,348.26 364.95,348.26 364.95,359.05 366.03,359.05 366.03,348.26 370.52,348.26 
		370.52,347.18 	"/>
	<polygon points="295.54,347.18 290.76,355.46 285.98,347.18 284.9,347.18 284.9,359.05 285.98,359.05 285.98,349.3 286.01,349.3 
		290.76,357.39 295.51,349.3 295.54,349.3 295.54,359.05 296.61,359.05 296.61,347.18 	"/>
	<polygon points="337.32,347.18 337.32,359.05 347.43,359.05 347.43,357.98 338.39,357.98 338.39,353.47 343.11,353.47 
		343.11,352.39 338.39,352.39 338.39,348.26 347.05,348.26 347.05,347.18 	"/>
	<g>
		<path d="M308.96,358.23c-3.18,0-5.29-2.39-5.29-5.11c0-2.73,2.11-5.12,5.29-5.12c3.18,0,5.29,2.39,5.29,5.12
			C314.25,355.84,312.14,358.23,308.96,358.23 M308.96,346.93c-3.65,0-6.36,2.61-6.36,6.19c0,3.57,2.71,6.19,6.36,6.19
			c3.66,0,6.36-2.61,6.36-6.19C315.32,349.54,312.63,346.93,308.96,346.93"/>
		<path d="M327.09,352.91h-5.24v-4.66h6.19c0.78,0,2.4,0.35,2.4,2.27C330.44,352.75,328.6,352.91,327.09,352.91 M331.51,350.52
			c0-1.22-0.79-3.34-3.47-3.34h-7.26v11.87h1.07v-5.07h5.18l2.98,5.07h1.25l-2.99-5.07C329.3,353.91,331.51,353.31,331.51,350.52"/>
		<path d="M554.17,352.34l-2.79-0.05c-1.38-0.02-2.71-0.41-2.71-1.84c0-0.98,1.13-2.44,4.09-2.44c1.99,0,3.07,0.76,4.15,1.42
			l0.67-0.8c-0.62-0.41-2.04-1.7-4.89-1.7c-3.68,0-5.08,1.94-5.08,3.49c0,2.32,2.07,2.92,3.78,2.94l2.72,0.05
			c2.07,0.04,3.07,1.18,3.07,2.26c0,1.76-2.11,2.56-4.55,2.56c-3.22,0-4.32-1.49-5.13-2.13l-0.74,0.78c0.84,0.79,2.3,2.42,5.88,2.42
			c4.21,0,5.63-1.93,5.63-3.63C558.26,353.92,556.8,352.39,554.17,352.34"/>
	</g>
	<polygon points="522.9,347.18 522.9,357.49 522.87,357.49 514.58,347.18 513.5,347.18 513.5,359.05 514.58,359.05 514.58,348.8 
		514.61,348.8 522.9,359.05 523.97,359.05 523.97,347.18 	"/>
	<path d="M398.66,348.39l2.5,5.38h-5.02L398.66,348.39z M398.13,347.18l-5.79,11.87h1.2l2.08-4.21h6.11l2.07,4.21h1.2l-5.79-11.87
		H398.13z"/>
	<polygon points="487.56,347.18 482.78,355.46 478,347.18 476.93,347.18 476.93,359.05 478,359.05 478,349.3 478.03,349.3 
		482.78,357.39 487.53,349.3 487.56,349.3 487.56,359.05 488.64,359.05 488.64,347.18 	"/>
	<g>
		<path d="M536.74,357.98h-4.91v-9.73h4.91c2.66,0,4.16,2.82,4.16,4.86C540.9,355.41,539.23,357.98,536.74,357.98 M536.74,347.18
			h-5.98v11.87h5.98c3.29,0,5.23-3.26,5.23-5.93C541.97,350.32,540.03,347.18,536.74,347.18"/>
		<path d="M500.98,358.23c-3.18,0-5.29-2.39-5.29-5.11c0-2.73,2.11-5.12,5.29-5.12c3.18,0,5.29,2.39,5.29,5.12
			C506.27,355.84,504.16,358.23,500.98,358.23 M500.98,346.93c-3.66,0-6.36,2.61-6.36,6.19c0,3.57,2.7,6.19,6.36,6.19
			c3.66,0,6.36-2.61,6.36-6.19C507.34,349.54,504.65,346.93,500.98,346.93"/>
	</g>
	<polygon points="419.55,347.18 419.55,357.49 419.52,357.49 411.23,347.18 410.15,347.18 410.15,359.05 411.23,359.05 
		411.23,348.8 411.26,348.8 419.55,359.05 420.63,359.05 420.63,347.18 	"/>
	<path d="M465.61,348.39l2.5,5.38h-5.02L465.61,348.39z M465.07,347.18l-5.79,11.87h1.2l2.07-4.21h6.1l2.08,4.21h1.2l-5.79-11.87
		H465.07z"/>
	<g>
		<path d="M441.61,357.98h-4.91v-9.73h4.91c2.66,0,4.16,2.82,4.16,4.86C445.78,355.41,444.12,357.98,441.61,357.98 M441.61,347.18
			h-5.98v11.87h5.98c3.3,0,5.24-3.26,5.24-5.93C446.85,350.32,444.91,347.18,441.61,347.18"/>
	</g>
	<rect x="453.18" y="347.18" width="1.08" height="11.87"/>
</g>
<path fill="#F8E1DA" d="M418.59,181.68c0.85-0.23,1.66-0.45,2.45-0.65c-4.61-1.21-8.38-2.09-11.42-2.72
	c-0.83,2.29-1.65,4.61-2.43,6.9C411.15,183.86,415.03,182.64,418.59,181.68"/>
<path fill="#F3C4B9" d="M421.04,181.03c4.61-1.21,8.38-2.09,11.42-2.72c-5.37-14.73-11.42-28.54-11.42-28.54
	s-6.05,13.81-11.42,28.54C412.66,178.94,416.43,179.82,421.04,181.03"/>
<path fill="#FFF7F5" d="M409.62,178.31c-8.06-1.68-10.99-1.66-10.99-1.66s-0.02,2.93,1.66,11c2.29-0.84,4.61-1.66,6.9-2.44
	C407.96,182.92,408.78,180.6,409.62,178.31"/>
<path fill="#F3C5BA" d="M400.29,210.48c-1.68,8.06-1.66,10.99-1.66,10.99s2.93,0.02,10.99-1.66c-0.84-2.29-1.65-4.61-2.43-6.9
	C404.89,212.14,402.58,211.32,400.29,210.48"/>
<path fill="#F8E1DA" d="M407.19,212.91c0.78,2.29,1.6,4.61,2.43,6.9c3.04-0.63,6.8-1.51,11.42-2.72c-0.8-0.21-1.61-0.42-2.45-0.65
	C415.04,215.48,411.15,214.26,407.19,212.91"/>
<path fill="#F8E1DA" d="M403.66,201.51c-0.23-0.84-0.44-1.66-0.65-2.45c-1.21,4.61-2.09,8.38-2.72,11.42
	c2.29,0.83,4.61,1.65,6.9,2.43C405.84,208.95,404.62,205.07,403.66,201.51"/>
<path fill="#D6DFF1" d="M434.89,185.21c-0.78-2.29-1.59-4.61-2.43-6.9c-3.04,0.63-6.8,1.51-11.42,2.72c0.8,0.21,1.61,0.42,2.45,0.65
	C427.04,182.64,430.93,183.86,434.89,185.21"/>
<path fill="#9EB6DD" d="M441.79,187.64c1.68-8.06,1.66-11,1.66-11s-2.93-0.02-10.99,1.66c0.83,2.29,1.65,4.61,2.43,6.9
	C437.18,185.98,439.5,186.8,441.79,187.64"/>
<path fill="#D6DFF1" d="M438.42,201.51c-0.96,3.55-2.18,7.44-3.53,11.4c2.29-0.77,4.6-1.59,6.9-2.43
	c-0.63-3.04-1.51-6.81-2.72-11.42C438.86,199.86,438.65,200.67,438.42,201.51"/>
<path fill="#D6DFF1" d="M438.42,196.61c0.23,0.85,0.44,1.66,0.65,2.45c1.21-4.61,2.09-8.38,2.72-11.42c-2.3-0.84-4.61-1.66-6.9-2.43
	C436.24,189.17,437.46,193.06,438.42,196.61"/>
<path fill="#9EB6DD" d="M439.07,199.06c1.21,4.61,2.09,8.38,2.72,11.42c14.73-5.37,28.53-11.42,28.53-11.42s-13.81-6.05-28.53-11.42
	C441.16,190.68,440.28,194.45,439.07,199.06"/>
<path fill="#9297B6" d="M432.46,219.81c8.06,1.68,10.99,1.66,10.99,1.66s0.02-2.93-1.66-10.99c-2.3,0.83-4.61,1.65-6.9,2.43
	C434.12,215.21,433.3,217.52,432.46,219.81"/>
<path fill="#F3C4B9" d="M423.49,216.44c-0.85,0.23-1.66,0.44-2.45,0.65c4.62,1.21,8.38,2.09,11.42,2.72
	c0.84-2.29,1.66-4.61,2.43-6.9C430.93,214.26,427.05,215.48,423.49,216.44"/>
<path fill="#F8E1DA" d="M407.18,185.21c-2.29,0.78-4.61,1.6-6.9,2.43c0.63,3.04,1.51,6.81,2.72,11.42c0.21-0.8,0.42-1.61,0.65-2.45
	C404.62,193.06,405.84,189.17,407.18,185.21"/>
<path fill="#FFFFFF" d="M434.89,212.91c1.35-3.96,2.57-7.85,3.53-11.4c0.23-0.84,0.44-1.65,0.65-2.45c-0.21-0.8-0.42-1.61-0.65-2.46
	c-0.96-3.55-2.18-7.44-3.53-11.4c-3.96-1.35-7.85-2.57-11.4-3.53c-0.85-0.23-1.66-0.45-2.45-0.65c-0.79,0.21-1.61,0.42-2.45,0.65
	c-3.55,0.96-7.44,2.18-11.4,3.53c-1.35,3.96-2.56,7.85-3.53,11.4c-0.23,0.85-0.44,1.66-0.65,2.45c0.21,0.8,0.42,1.61,0.65,2.45
	c0.96,3.55,2.18,7.44,3.53,11.4c3.96,1.35,7.85,2.57,11.4,3.53c0.85,0.23,1.66,0.44,2.45,0.65c0.8-0.21,1.61-0.42,2.46-0.65
	C427.04,215.48,430.93,214.26,434.89,212.91"/>
<path fill="#3F7FB7" d="M443.45,176.65c0,0,0.02,2.93-1.66,11c14.72,5.36,28.53,11.42,28.53,11.42c-7.96-12.67-22-27.3-22-27.3
	s-14.63-14.04-27.29-21.99c0,0,6.05,13.81,11.42,28.54C440.52,176.62,443.45,176.65,443.45,176.65"/>
<path fill="#F8E1DA" d="M398.62,176.65c0,0,2.93-0.02,10.99,1.66c5.37-14.73,11.42-28.54,11.42-28.54
	c-12.67,7.96-27.3,21.99-27.3,21.99s-14.04,14.63-21.99,27.3c0,0,13.81-6.05,28.54-11.42C398.6,179.58,398.62,176.65,398.62,176.65"
	/>
<path fill="#F3C4B9" d="M403.01,199.06c-1.21-4.61-2.09-8.38-2.72-11.42c-14.73,5.37-28.54,11.42-28.54,11.42
	s13.81,6.05,28.54,11.42C400.92,207.44,401.79,203.67,403.01,199.06"/>
<path fill="#E79288" d="M398.62,221.47c0,0-0.02-2.93,1.66-10.99c-14.73-5.37-28.54-11.42-28.54-11.42
	c7.95,12.66,21.99,27.3,21.99,27.3s14.63,14.04,27.3,21.99c0,0-6.05-13.81-11.42-28.53C401.56,221.49,398.62,221.47,398.62,221.47"
	/>
<path fill="#CE283B" d="M421.04,217.09c-4.61,1.21-8.38,2.09-11.42,2.72c5.37,14.73,11.42,28.54,11.42,28.54s6.05-13.81,11.42-28.54
	C429.42,219.18,425.65,218.3,421.04,217.09"/>
<path fill="#214E83" d="M441.79,210.48c1.68,8.06,1.66,10.99,1.66,10.99s-2.93,0.02-10.99-1.66c-5.37,14.73-11.42,28.54-11.42,28.54
	c12.67-7.95,27.29-22,27.29-22s14.04-14.63,22-27.3C470.33,199.06,456.52,205.11,441.79,210.48"/>
</svg>
