<?xml version="1.0" encoding="UTF-8" standalone="yes"?>
<svg version="1.2" baseProfile="tiny-ps" viewBox="0 0 100 100" xml:space="preserve" xmlns="http://www.w3.org/2000/svg">
  <title>Cledara</title>
  <g>
    <rect fill="#FDFDFE" width="100" height="100"/>
    <g>
      <path fill="#57CBD5" d="M3.9,50.7c1.9,0,3.8,0,5.7,0c1.2,0,2.2,0.4,3,1.2c0.7,0.8,1.1,1.7,1.2,2.7c0,2,0,4,0,6c-3.2,0-6.4,0-9.7,0&#xD;&#xA;&#x9;&#x9;&#x9;c-0.2,0-0.2,0-0.2-0.2C3.9,57.2,3.9,53.9,3.9,50.7z"/>
      <path fill="#1B9C9C" d="M25.1,39.4c0,3.2,0,6.4,0,9.6c0,0.2-0.1,0.3-0.3,0.3c-1.8,0-3.6,0-5.3,0c-2.3,0-4.2-1.9-4.3-4.2&#xD;&#xA;&#x9;&#x9;&#x9;c0-1.9,0-3.8,0-5.6c0,0,0-0.1,0-0.1C18.5,39.4,21.8,39.4,25.1,39.4z"/>
      <path fill="#57CBD5" d="M15.2,60.6c0-1.6,0-3.3,0-4.9c0-0.5,0-1.1,0.1-1.6c0.3-1.2,1-2.2,2.1-2.8c0.7-0.4,1.5-0.6,2.3-0.6&#xD;&#xA;&#x9;&#x9;&#x9;c1.7,0,3.4,0,5.1,0c0.2,0,0.2,0.1,0.2,0.2c-0.1,1.7-0.5,3.3-1.3,4.7c-0.8,1.4-2,2.6-3.4,3.5c-1.1,0.7-2.4,1.1-3.7,1.4&#xD;&#xA;&#x9;&#x9;&#x9;c-0.3,0.1-0.7,0.1-1,0.1C15.5,60.6,15.4,60.6,15.2,60.6z"/>
      <path fill="#57CBD5" d="M13.7,39.4c0,1.9,0,3.7,0,5.6c0,0.8-0.2,1.5-0.5,2.1c-0.8,1.3-1.9,2.1-3.4,2.2c-1.9,0.1-3.7,0-5.6,0&#xD;&#xA;&#x9;&#x9;&#x9;c-0.1,0-0.2,0-0.3,0c0-0.1,0-0.3,0-0.4c0-0.2,0.1-0.5,0.1-0.7c0.1-1.5,0.6-2.8,1.4-4C6,42.9,7,42,8.1,41.2&#xD;&#xA;&#x9;&#x9;&#x9;c1.2-0.8,2.4-1.3,3.8-1.6c0.5-0.1,0.9-0.1,1.4-0.2C13.4,39.4,13.6,39.4,13.7,39.4z"/>
      <path fill="#21213C" d="M96.1,56.5c-0.6,0-1.2,0-1.9,0c-0.2,0-0.2-0.1-0.2-0.2c0-0.2,0-0.5,0-0.8c-0.4,0.4-0.8,0.7-1.2,0.9&#xD;&#xA;&#x9;&#x9;&#x9;c-1.3,0.5-2.6,0.5-3.9-0.3c-1.7-1-1.7-3.3,0-4.4c0.7-0.4,1.4-0.6,2.2-0.8c0.9-0.1,1.7-0.3,2.6-0.4c0.1,0,0.2-0.1,0.2-0.2&#xD;&#xA;&#x9;&#x9;&#x9;c0-0.8-0.5-1.3-1.3-1.5c-1-0.2-2.2,0.2-2.6,1.3c0,0.1-0.1,0.1-0.2,0.1c-0.5-0.3-1.1-0.5-1.6-0.8c-0.1-0.1-0.1-0.1-0.1-0.2&#xD;&#xA;&#x9;&#x9;&#x9;c0.4-0.9,1.1-1.5,2-1.9c1.5-0.6,3.1-0.6,4.5,0.2c0.8,0.5,1.3,1.3,1.5,2.2c0,0,0,0,0,0C96.1,52,96.1,54.2,96.1,56.5z M93.9,52.6&#xD;&#xA;&#x9;&#x9;&#x9;c0-0.1,0-0.2,0-0.3c0-0.2,0-0.2-0.2-0.2c-0.7,0.1-1.3,0.2-2,0.4c-0.4,0.1-0.8,0.1-1.2,0.3c-0.4,0.3-0.6,0.6-0.6,1.1&#xD;&#xA;&#x9;&#x9;&#x9;c0.1,0.5,0.4,0.8,0.9,0.9C92.3,55.2,94,54.4,93.9,52.6z"/>
      <path fill="#21213C" d="M66.9,48c0-0.2,0-0.3,0-0.4c0-1.3,0-2.6,0-3.9c0-0.2,0.1-0.3,0.3-0.3c0.6,0,1.2,0,1.7,0&#xD;&#xA;&#x9;&#x9;&#x9;c0.2,0,0.2,0,0.2,0.2c0,4.2,0,8.5,0,12.7c0,0.2-0.1,0.2-0.2,0.2c-0.6,0-1.1,0-1.7,0c-0.2,0-0.2-0.1-0.2-0.2c0-0.3,0-0.5,0-0.9&#xD;&#xA;&#x9;&#x9;&#x9;c-0.6,0.6-1.2,1-2,1.1c-2.9,0.7-5.6-1.2-5.9-4c-0.2-1.7,0.2-3.2,1.5-4.4c1.5-1.4,3.9-1.7,5.6-0.7C66.5,47.6,66.7,47.8,66.9,48z&#xD;&#xA;&#x9;&#x9;&#x9; M61.4,51.8c0,0.2,0,0.3,0,0.5c0.2,1.1,1,2,2,2.2c1.2,0.3,2.3-0.1,2.9-1c0.5-0.7,0.6-1.4,0.5-2.3c-0.2-1.7-1.7-2.8-3.4-2.4&#xD;&#xA;&#x9;&#x9;&#x9;C62.2,49.2,61.4,50.3,61.4,51.8z"/>
      <path fill="#21213C" d="M37.1,56.7c-3.5,0-6.2-2.4-6.5-5.9c-0.2-1.9,0.3-3.6,1.5-5.1c1.1-1.3,2.5-2,4.2-2.2c1.2-0.1,2.4,0,3.6,0.6&#xD;&#xA;&#x9;&#x9;&#x9;c1.2,0.6,2.1,1.4,2.6,2.6c0.1,0.1,0.1,0.2-0.1,0.3c-0.6,0.3-1.2,0.6-1.8,0.9c-0.1,0.1-0.2,0.1-0.2-0.1c-1.1-2.5-4.3-2.6-6-1.3&#xD;&#xA;&#x9;&#x9;&#x9;c-0.9,0.7-1.3,1.7-1.5,2.8c-0.2,1-0.1,2.1,0.3,3c0.7,1.5,2.1,2.5,3.8,2.4c1.4,0,2.5-0.6,3.2-1.8c0,0,0-0.1,0.1-0.1&#xD;&#xA;&#x9;&#x9;&#x9;c0.2-0.3,0.2-0.4,0.5-0.2c0.5,0.2,1,0.5,1.5,0.7c0.2,0.1,0.2,0.2,0.1,0.3c-0.6,1.3-1.6,2.1-2.9,2.7C38.8,56.5,38,56.7,37.1,56.7z"/>
      <path fill="#21213C" d="M54.3,52.4c-1.1,0-2.2,0-3.2,0c-0.3,0-0.3,0-0.2,0.3c0.3,1.3,1.4,2.2,2.8,2.1c0.9-0.1,1.6-0.4,2-1.1&#xD;&#xA;&#x9;&#x9;&#x9;c0.1-0.1,0.1-0.1,0.2-0.1c0.5,0.2,1,0.5,1.5,0.7c0.1,0.1,0.2,0.1,0.1,0.2c-0.4,0.9-1.1,1.4-2,1.8c-1.9,0.7-3.7,0.5-5.3-0.8&#xD;&#xA;&#x9;&#x9;&#x9;c-1.3-1.1-1.8-2.6-1.6-4.3c0.1-1.4,0.7-2.5,1.8-3.4c1.4-1.1,3-1.3,4.7-0.7c1.6,0.6,2.6,1.9,2.8,3.6c0.1,0.5,0.1,0.9,0,1.4&#xD;&#xA;&#x9;&#x9;&#x9;c0,0.2-0.1,0.3-0.3,0.3C56.5,52.4,55.4,52.4,54.3,52.4z M53.2,50.7C53.2,50.7,53.2,50.7,53.2,50.7c0.7,0,1.4,0,2.1,0&#xD;&#xA;&#x9;&#x9;&#x9;c0.2,0,0.2-0.1,0.2-0.3c-0.1-0.6-0.4-1.1-1-1.5c-1.4-0.9-3.3-0.1-3.6,1.5c0,0.1,0,0.2,0.2,0.2C51.8,50.7,52.5,50.7,53.2,50.7z"/>
      <path fill="#21213C" d="M77.3,55.4c-0.4,0.4-0.7,0.7-1.1,0.9c-1.4,0.6-2.7,0.5-4-0.3c-1.6-1-1.6-3.2,0-4.3&#xD;&#xA;&#x9;&#x9;&#x9;c0.7-0.5,1.5-0.7,2.3-0.8c0.9-0.1,1.7-0.3,2.6-0.4c0.1,0,0.2-0.1,0.2-0.2c0-0.8-0.4-1.3-1.2-1.5c-1.2-0.2-2.3,0.3-2.7,1.3&#xD;&#xA;&#x9;&#x9;&#x9;c0,0.1-0.1,0.1-0.2,0.1c-0.6-0.3-1.1-0.5-1.7-0.8c-0.2-0.1-0.1-0.2-0.1-0.3c0.3-0.7,0.9-1.3,1.6-1.7c1.5-0.8,3.1-0.9,4.6-0.1&#xD;&#xA;&#x9;&#x9;&#x9;c1.2,0.6,1.8,1.5,1.8,2.8c0,2.1,0,4.1,0,6.2c0,0.1,0,0.2-0.2,0.2c-0.6,0-1.2,0-1.7,0c-0.2,0-0.2-0.1-0.2-0.2&#xD;&#xA;&#x9;&#x9;&#x9;C77.3,56,77.3,55.8,77.3,55.4z M77.1,52.5c0-0.1,0-0.2,0-0.2c0-0.2,0-0.2-0.2-0.2c-0.6,0.1-1.3,0.2-1.9,0.3&#xD;&#xA;&#x9;&#x9;&#x9;c-0.4,0.1-0.8,0.1-1.2,0.3c-0.4,0.2-0.7,0.7-0.6,1.1c0.1,0.5,0.4,0.9,0.9,1C75.5,55.3,77.2,54.3,77.1,52.5z"/>
      <path fill="#21213C" d="M44.6,49.9c0-2.1,0-4.2,0-6.3c0-0.2,0-0.2,0.2-0.2c0.6,0,1.2,0,1.8,0c0.2,0,0.2,0,0.2,0.2&#xD;&#xA;&#x9;&#x9;&#x9;c0,4.2,0,8.5,0,12.7c0,0.2-0.1,0.2-0.2,0.2c-0.6,0-1.2,0-1.8,0c-0.2,0-0.2,0-0.2-0.2C44.6,54.1,44.6,52,44.6,49.9z"/>
      <path fill="#21213C" d="M83.4,48.3c0.6-1.1,1.6-1.4,2.7-1.4c0.3,0,0.5,0,0.8,0c0.2,0,0.2,0.1,0.2,0.2c0,0.5,0,1.1,0,1.6&#xD;&#xA;&#x9;&#x9;&#x9;c0,0.1,0,0.2-0.2,0.2c-0.4,0-0.9,0-1.3,0c-1.2,0.1-2,1-2,2.2c0,1.7,0,3.4,0,5.1c0,0.2,0,0.2-0.2,0.2c-0.6,0-1.2,0-1.8,0&#xD;&#xA;&#x9;&#x9;&#x9;c-0.2,0-0.2,0-0.2-0.2c0-3,0-6,0-9.1c0-0.2,0-0.2,0.2-0.2c0.5,0,1.1,0,1.6,0c0.2,0,0.2,0,0.2,0.2C83.4,47.6,83.4,47.9,83.4,48.3z"/>
    </g>
  </g>
</svg>