<?xml version="1.0" encoding="UTF-8" standalone="yes"?>
<svg version="1.2" baseProfile="tiny-ps" viewBox="0 0 1080 1080" xml:space="preserve" xmlns="http://www.w3.org/2000/svg">
  <title>bimi-svg-tiny-12-ps</title>
  <g>
    <path d="M927.3,501.2h-31.7c-21,0-38.8,14.4-42.8,37.3s8.8,37.3,29.8,37.3h31.7L927.3,501.2z M944,405.2h45.7L969,524.5l-9,51.3&#xA;&#x9;&#x9;l-6.8,39.1l-0.8,4.3h-45.7l0,0h-40.8c-39.9,0-66.8-35.2-58.8-80.7s47-80.7,87-80.7h40.8L944,405.2z"/>
    <path d="M516.4,575.8h31.7c21,0,38.8-14.4,42.8-37.3s-8.8-37.3-29.8-37.3h-31.7L516.4,575.8z M483.6,501.2l5.9-34L483.6,501.2z&#xA;&#x9;&#x9; M499.7,671.2H454l9.1-52l0.8-4.3l0.5-2.9l25.2-144.9l0.9-5.1l0.7-4.3H537h40.8c39.9,0,66.8,35.2,58.8,80.7s-47,80.7-87,80.7h-40.8&#xA;&#x9;&#x9;L499.7,671.2z"/>
    <path d="M765.5,457.1l-45,93.6L703,457.1h-50.3L688,603c-9.9,18.7-21.2,25.4-42.6,25.4l-7.5,42.8c42.3,2.2,72.8-17.1,98.3-65.8&#xA;&#x9;&#x9;l78-148.3L765.5,457.1L765.5,457.1z"/>
    <path d="M214.8,619.3h52.5l-31.8-78.6c25.5-11.9,45.6-35.8,50.2-62.1c7.1-40.7-19.8-73.4-60.4-73.4h-98.2L89.8,619.3h48.8&#xA;&#x9;&#x9;c9.8-56.1,19.5-112.1,29.3-168.2h49.4c13.4,0,22.3,11.9,19.6,27.5s-15.8,27.5-29.2,27.5h-38.9L214.8,619.3z"/>
    <path d="M393.9,575.8h-31.7c-21,0-33.8-14.4-29.8-37.3c4-22.9,21.8-37.3,42.8-37.3h31.7L393.9,575.8z M373.6,457.8&#xA;&#x9;&#x9;c-39.9,0-79,35.2-87,80.7s18.9,80.7,58.8,80.7h86.6l0.8-4.3l6.8-39.1l13-74.6l6.8-39.1l0.8-4.3h-45.8H373.6z"/>
  </g>
</svg>