<?xml version="1.0" encoding="utf-8"?>
<!-- Generator: Adobe Illustrator 27.9.0, SVG Export Plug-In . SVG Version: 6.00 Build 0)  -->
<svg version="1.2" baseProfile="tiny-ps" id="Layer_1" xmlns="http://www.w3.org/2000/svg" xmlns:xlink="http://www.w3.org/1999/xlink"
	 viewBox="0 0 70 70" xml:space="preserve">
<title>Audible</title>
<g id="surface1">
	<g>
		<path fill-rule="evenodd" fill="#FFA000" d="M35,45.2L57.7,31v3.8L35,49L12.2,34.8v-3.8L35,45.2"/>
	</g>
	<path fill-rule="evenodd" fill="#FFA000" d="M35,27.5c-5.1,0-9.6,2.6-12.3,6.6c0.2-0.2,0.3-0.3,0.6-0.5c6.4-5.3,15.6-4.1,20.6,2.6
		l3.3-2.1C44.7,30,40.2,27.5,35,27.5"/>
	<path fill-rule="evenodd" fill="#FFA000" d="M35,34c-2.8,0-5.2,1.4-6.7,3.5c1.2-0.9,2.6-1.3,4.1-1.3c2.4,0,4.6,1.3,6.1,3.4l3.2-2
		C40.2,35.3,37.8,34,35,34"/>
	<path fill-rule="evenodd" fill="#FFA000" d="M19.6,28.2c9.3-7.4,22.6-5.4,29.6,4.4v0.1l3.5-2.2C49,24.8,42.3,20.9,35,20.9
		c-7.3,0-13.9,3.8-17.8,9.6C17.9,29.9,18.8,29,19.6,28.2"/>
</g>
</svg>
