<svg xmlns="http://www.w3.org/2000/svg" xmlns:xlink="http://www.w3.org/1999/xlink" version="1.2" viewBox="0 0 3000 3000" baseProfile="tiny-ps">
  <title>UnicaflogoSVG_tiny_ps</title>
  <g>
    <path d="M1653.3,1691.6h0.5c4-2.3,8.3-0.5,11.1-2.4   c2.2-1.5,2.8-1,5.7-1.1c3.6-0.1,2.9,0.9,5.7,1.3c1.8-3.7,5.3-1,9.2-2.8c1.2-0.5,2.8-1.5,3.8-2.1c4.9-2.8,12.2-10.7,15.2-15.7   c0.9-1.5,0.9-2.5,2.7-3.3c2.3-1.1,2-0.4,3.1-2.9c1.7-4.3,3.6-4,3-8.8c-0.6-5.4,0.6-5.5,4.8-7.2c2.3-0.9,7-2.5,8.5-3.7   c0.8-5.3,1.1-6,0.2-11.3c-0.4-2.3-0.8-2.7-1.6-4.7c-0.8-2-0.2-3.4-0.1-5.6l2.4,0.2c0.2-3.9,0.2-0.7,4.5-4.9   c1.9-1.8,3.2-2.7,5.4-4.3c3.6-2.6,8.7-3.9,12.6-6.4c0.6-0.4,4.1-4.2,4.5-4.9c1-1.9,0.3-6.7,0.1-9c-0.2-2.7,1.1-6.6,0.5-8.3   c-0.6-1.9-1.2-1.1-0.7-3.8c0.3-1.6,0.6-2.7,0.7-4.4c-1-0.6-1.6-1.2-2.5-2c-2.1-1.9-3.3-9.4-3.1-11.2c0.6-4.2,0.7-3.6-0.9-7.5   c-1.8-4.6,0.7-2.9,0.3-7.9l2.1,0.6c1.4-4.4,3.4-2,3.2-8.6c4.6-1.8,11-11.4,14.1-15.3c2.7-3.4,3.7-4.1,7.6-6.9c2.7-2,5.3-5,7.7-7.2   c4.8-4.5,3.2-2.5,6.4-8.2c1.8-3.3,3.5-6.2,5.3-9.6c0.9-1.8,5.7-13,6.5-15.5c0.6-1.7,0.8-4,1.7-5.6v-5.2l-0.5-2.6   c-3.1-0.8-2.5-0.8-6.1,1.9c-2.3,1.8-4.3,0.5-7.4,0.8l-0.6,2.3l-4.3-0.4l-2.4,2.8c-2.5,0.1-3.2-0.7-5,0.6c-1.8,1.2-1.8,0.8-4.4,0.6   c-2.4-0.2-2.6-0.5-3.9-1.7c-2-1.9-1.2-0.8-4.1-1.4c0-2.4,0.4-2.8,2.1-3.6c-0.2-3.7-0.2-3.5-2.7-5.2c-2.1-1.4-6.3-5-8.2-6.7   c-1.6-1.5-3.2-1.5-4.7-2.8c-8.1-7.3-5-1.8-7.4-11.2c-0.6-2.5-3-3.5-5.7-5.5c-4.8-3.5-3.2-5.5-3.9-11.5c-0.1-0.8-1.7-4.8-2.1-5.3   c-0.1-0.1-3.6-2.8-4.2-3.3c-3.3-2.4-1.3-1.3-2.1-5.3c-0.2-1-2.2-3.7-2.9-4.6l-4.7-6.5c-1-1.4-2.1-1.4-2.3-1.7   c-1.2-4.6-1.3-4.5-3.5-7.8c-1.5-2.2-3.2-4.2-4.6-6.2l0.6-0.8c1.4,1.4,1.1,2,3.5,3c0.2,3.2-0.2,2.5,2,4c1.2,0.8,2,1.6,3.3,2.3   c1.3-2.3,1.1-6.4,0.9-9.4c-0.2-3.9-2.4-4-3.5-6.9l-9.5,0.9l-0.5-1.9c-3.2,1.9-1.6,2.7-3.6,5.2l-1.9-5c-1.9,0.7-3.4,1.9-5.2,2.7   c-2.1,0.9-3.6-0.8-5.9-1.3c-2-0.4-5.4-0.5-7.5-0.7c-3.5-0.3-4.1,0.4-5.5-2.4c-6.5-0.6-6,0.4-9.3-2.8c-4.2-4-9.4,1.3-12.6,3.6   c0,1.3,0.6,3.6,0.4,4.6c-0.2,0.9-1.5,2-2,3.2c-3.5,0.2-3.9,0.2-6.1-1.5c-9.9-7.3-7.4,2-12.5-8.6c-5.4-0.6-2.7-0.7-4.7-1.5   c-2.7-1-5.3,1.2-10.4-1.5c-1.2-0.6-1.5-1.7-2.3-3.8c-1.3,0.4-1.1,0.7-2.6,1.1c-0.8-0.6-0.8-0.6-1.6-1.5c0.5-0.8,4.3-3.9,5-4.4   c-0.3-4.5-4-3.5,1.4-8.5c-0.7-1-0.5-0.5-0.9-1.8l-2.9,1.6l-1.3-3.3h-0.8c-0.8,0.6-4.9,2-5.9,2.2c-3.2,0.4-2.3-2.2-5.9,0.1   c-0.7-0.3-1.3-0.9-1.3-1s-0.1-0.2-0.2-0.2l-6.2,2l-0.8-1.6c-4,0.2-8,0.6-12,0.9c-8.7,0.7-5,3-8.9,3.1c-2,0.1-2.5,0.7-4.1,1.7   c-7,4.5-3.6,0.8-8.3,0.6c-7.7-0.3-4.3,2-9.7-3.6l-4.1,5.1c-2.2,2.9-1.1,2.4-4.7,4.2c-12.9,6.5-6.8,3.3-9.9,8   c-2.2,3.4-2.2,1.5-2.7,6.6c-0.2,2.9-2,3.8-3.5,5.5c-3.2,3.6-5.9,5.1-12.8,5.2c-1.1,1.5-3.6,5.8-4.3,7.4l-2.7,0.1   c-1.1,1.3-3,5.1-3.9,6.9c-0.9,1.9-0.5,1.7-2.4,2.8c-5.8,3.5-3.3,6-6.5,9.2c-1.3,1.3-3.8,1-3.2,7.3c0.3,3.2,1.4,1.5,2,3.7   c0.7,2.9-0.8,2.8-1.1,4.2c-0.5,2.3,2,0.9-0.3,8.6c-0.8,2.8-1.5,5.3-2.4,8.1c-0.9,2.7-2.7,4.4-3.9,6.7c0.7,2.2,2.2,3,2.9,5.2   c-0.9,1.8-2,1.7-2.1,4.1c-0.2,4.6,6.8,8.5,8.1,11.8c0.6,1.5-0.5,0.2,1.1,1.5c2,1.7,3.5,2.4,4.1,4.3c0.6,1.8,0.2,0.7,0.8,1.9   c0.9,1.8,0,3.1,0.5,5.1c1.2,1.6,3.4,2.9,5,4.3c3.3,2.9,3.8,4,7.5,6.2c0.7,0.5,1.6,1.6,2.4,2.5c2,2.6,1.3,2.5,4.8,4.2   c7.4,3.7,6.1,3.2,14.5,0.9c5.1-1.4,11.1-2.3,15.9-0.3c3.9,1.6,3,1.4,6.6-0.3c1.4-0.7,5.2-2.7,6.4-2.9c2.2-0.5,1.7,0.3,3.8-1   c4.3-2.8,4.8-2.6,11.1-2.3c3.5,0.2,5.8-0.4,7.5,1.8c4.1,5.1,0.9,8.8,10.4,8.1c1.2-0.1,2.4-0.4,3.8-0.5c3-0.3,1.8-0.1,3.4-1.2   c0.5,1.1,2.8,3.5,3.7,4.2c1.7-0.8,0.6-1.1,2.1-1.1c0.3,1,0,1.4-0.8,2.1c1.9,2.1,1.5,1.8,1,5.6c-0.4,2.6-1,3.5-1.9,5.7   c-0.8,2.1,1.5,0.6,0.1,5.2c-0.5,1.6-0.6,2.9-1.5,4.1l-1,1c0.1,2.7,1,3,2.2,5c6.3,10.3,10.9,9.7,14,19.6c0.9,2.9,2.9,6.4,4.3,9.2   c2.6,5-0.3,7.4,1.5,11.6c1.4,3.2,4,6.7,1.5,10.1c-1.7,2.1-5,4.9-5.6,7.9c-0.3,1.9-0.5,3.7-1.2,5.5c-0.6,1.6-1.7,3.2-1.8,5.1   c-0.5,8.4,1.2,9.4,4.7,16c0.9,1.6,1.3,3.1,2.1,4.6c1.8,3.1,7,9.7,7.1,13c0,2.1-0.4,4.7,0.3,6.5c2.1,5.7-0.5,7.3,4.9,15.6   c0.4,0.6,4.6,5.3,6,7.4c1.3,1.8,0.1,2.8,1.5,5.2c1.1,2,3.7,7.1,5.3,8.1c-0.1,0.1-0.1,0.2-0.2,0.3l-1.3,1.5c-1,0.6-0.8,0.1-1.9,0.6   c0.2,2.4,1.8,3.3,3,4.7c2.7,2.9,2.4,3.5,4.5,3.4L1653.3,1691.6L1653.3,1691.6z M1762.5,1626.3c-1.4,0.8-1.6,1.1-3.3,1.8   c-0.2,1.3-1.2,4.6-1.9,5.5c-1,1.3-1.3-0.1-2.3,1.4c-0.3,0.4-1,1.9-1.2,2.4c-8.7-0.8-1.4,0-7.1,0.9c-0.9,0.1,0.2-0.1-0.5,0.1   l-0.7,0.2c-0.4,1.3,0,1.2-0.9,2.5c-2,2.7-1.8,4.6-0.7,8.5c1,3.7,0.2,2.9-3.9,8.9c-1.8,2.7-0.9,2.3-0.4,5.4c0.3,1.7-0.4,1.4-0.4,2.7   c0,0.5,0.6,2.3,0.8,2.8c0.8,2.4,1.4,2.2,3.6,3.3c1.9,0.9,3.1-0.6,5.1-1c4.5-0.9,4.1-3.7,6-7.9l6.2-14.4c0.4-0.8,0.6-1.7,1-2.4   c0.6-0.9,1.2-0.8,1.3-2.4c0-1.1-0.3-2.3,0-3.4s1-1.1,1.3-2.4c0.2-1-0.3-2.4,0.2-3.2c0.8-1.2,0.8,0.9,1.3,1.6   c0.6-0.6,0.9-0.7,1.6-1.2c0.1-1.8-0.6-5.4-0.9-7.4c-0.3-1.9-0.1-2.2-1-3.3c-0.8-0.9-1.2-1.8-2.3-2.3   C1762.3,1624.7,1762.7,1623.8,1762.5,1626.3z" fill="#E20613" fill-rule="evenodd"/>
    <path d="M1623.7,1570.1h127c0.5,1.5,1.1,2.8,1.8,3.5   c0.9,0.8,1.5,1.4,2.5,2c-0.1,1.6-0.4,2.8-0.7,4.4c-0.4,2.7,0.1,1.9,0.7,3.8c0.6,1.7-0.7,5.6-0.5,8.3c0.2,2.2,0.9,7.1-0.1,9   c-0.4,0.7-3.9,4.5-4.5,4.9c-3.9,2.5-9,3.8-12.6,6.4c-2.3,1.6-3.5,2.4-5.4,4.3c-4.3,4.2-4.2,1-4.5,4.9l-2.4-0.2   c-0.1,2.3-0.7,3.6,0.1,5.6c0.8,2,1.2,2.4,1.6,4.7c0.8,5.3,0.6,6.1-0.2,11.3c-1.5,1.3-6.3,2.8-8.5,3.7c-4.3,1.7-5.5,1.8-4.8,7.2   c0.6,4.8-1.2,4.5-3,8.8c-1,2.5-0.8,1.8-3.1,2.9c-1.7,0.8-1.7,1.8-2.7,3.3c-3,5-10.4,13-15.2,15.7c-1,0.6-2.7,1.6-3.8,2.1   c-3.9,1.8-7.4-0.9-9.2,2.8c-2.8-0.4-2.1-1.4-5.7-1.3c-2.9,0.1-3.5-0.4-5.7,1.1c-2.8,1.9-7.1,0-11.1,2.4h-0.5v-1.2   c-2.1,0.1-1.9-0.5-4.5-3.4c-1.2-1.4-2.8-2.3-3-4.7c1-0.5,0.9,0,1.9-0.6l1.3-1.5c0-0.1,0.1-0.2,0.2-0.3c-1.6-1-4.2-6.1-5.3-8.1   c-1.4-2.4-0.2-3.4-1.5-5.2c-1.5-2.1-5.7-6.8-6-7.4c-5.4-8.3-2.8-9.9-4.9-15.6c-0.7-1.8-0.3-4.4-0.3-6.5c-0.1-3.2-5.3-9.9-7.1-13   c-0.9-1.5-1.3-3-2.1-4.6c-3.5-6.6-5.2-7.6-4.7-16c0.1-1.9,1.2-3.5,1.8-5.1c0.7-1.7,0.9-3.5,1.2-5.5c0.5-3,3.9-5.8,5.6-7.9   c2.6-3.3-0.1-6.9-1.5-10.1C1623.4,1573.2,1623.5,1571.6,1623.7,1570.1 M1762.5,1626.3c-1.4,0.8-1.6,1.1-3.3,1.8   c-0.2,1.3-1.2,4.6-1.9,5.5c-1,1.3-1.3-0.1-2.3,1.4c-0.3,0.4-1,1.9-1.2,2.4c-8.7-0.8-1.4,0-7.1,0.9c-0.9,0.1,0.2-0.1-0.5,0.1   l-0.7,0.2c-0.4,1.3,0,1.2-0.9,2.5c-2,2.7-1.8,4.6-0.7,8.5c1,3.7,0.2,2.9-3.9,8.9c-1.8,2.7-0.9,2.3-0.4,5.4c0.3,1.7-0.4,1.4-0.4,2.7   c0,0.5,0.6,2.3,0.8,2.8c0.8,2.4,1.4,2.2,3.6,3.3c1.9,0.9,3.1-0.6,5.1-1c4.5-0.9,4.1-3.7,6-7.9l6.2-14.4c0.4-0.8,0.6-1.7,1-2.4   c0.6-0.9,1.2-0.8,1.3-2.4c0-1.1-0.3-2.3,0-3.4s1-1.1,1.3-2.4c0.2-1-0.3-2.4,0.2-3.2c0.8-1.2,0.8,0.9,1.3,1.6   c0.6-0.6,0.9-0.7,1.6-1.2c0.1-1.8-0.6-5.4-0.9-7.4c-0.3-1.9-0.1-2.2-1-3.3c-0.8-0.9-1.2-1.8-2.3-2.3   C1762.3,1624.7,1762.7,1623.8,1762.5,1626.3z" fill="#1D1D1B" fill-rule="evenodd"/>
    <path d="M1605.8,1508.4c5.3,0,10.9-0.2,17.3-0.7   c17.9-1.4,35-13.2,43.5-28.6c8.9-16.1,36.9-37.8,54-43.8c4.4-1.5,9.8-2.8,15.5-3.9c0.5,0.6,1.2,1.2,2.1,1.8c2.7,2,5.1,3,5.7,5.5   c2.4,9.4-0.7,4,7.4,11.2c1.5,1.3,3,1.3,4.7,2.8c1.9,1.7,6.1,5.3,8.2,6.7c2.6,1.7,2.6,1.5,2.7,5.2c-1.8,0.8-2.1,1.2-2.1,3.6   c3,0.6,2.1-0.5,4.1,1.4c1.3,1.2,1.5,1.5,3.9,1.7c2.6,0.3,2.6,0.7,4.4-0.6c1.8-1.3,2.5-0.5,5-0.6l2.4-2.8l4.3,0.4l0.6-2.3   c3.1-0.3,5.1,1,7.4-0.8c3-2.3,3.1-2.7,5-2.2c0.4,3.1,0.7,6.2,1,9.4c-0.5,1.4-0.7,3-1.1,4.3c-0.8,2.5-5.6,13.8-6.5,15.5   c-1.8,3.4-3.5,6.4-5.3,9.6c-3.2,5.7-1.6,3.7-6.4,8.2c-2.4,2.3-5,5.3-7.7,7.2c-3.9,2.8-4.9,3.6-7.6,6.9c-3.1,3.9-9.5,13.5-14.1,15.3   c0.2,6.6-1.8,4.3-3.2,8.6l-2.1-0.6c0.4,5-2.1,3.3-0.3,7.9c1.5,3.9,1.5,3.3,0.9,7.5c-0.3,1.8,1,9.3,3.1,11.2l0.6,0.5   c-6,0.4-11.8,0.8-16.8,1.2c-11.9,0.9-27.4,29.9-52.8,31.1c-49,2.2-18.8,38.4-47.1,43.5c-1.1,0.2-2.4,0.4-3.9,0.5   c-0.3-2.1-0.2-3.9-1.2-6.7c-0.7-1.8-0.3-4.4-0.3-6.5c-0.1-3.2-5.3-9.9-7.1-13c-0.9-1.5-1.3-3-2.1-4.6c-3.5-6.6-5.2-7.6-4.7-16   c0.1-1.9,1.2-3.5,1.8-5.1c0.7-1.7,0.9-3.5,1.2-5.5c0.5-3,3.9-5.8,5.6-7.9c2.6-3.3-0.1-6.9-1.5-10.1c-1.8-4.2,1.1-6.6-1.5-11.6   c-1.4-2.7-3.4-6.2-4.3-9.2c-3-9.9-7.6-9.3-14-19.6c-1.2-2-2-2.3-2.2-5l1-1c0.9-1.2,1-2.4,1.5-4.1c1.4-4.7-0.9-3.2-0.1-5.2   c0.9-2.2,1.5-3.1,1.9-5.7C1607.1,1510.1,1607.4,1510.2,1605.8,1508.4" fill="#009540" fill-rule="evenodd"/>
    <path d="M1495.1,1474.6c26.6-22.1,67.4-34.6,100.4-34.6   c38.3,0,80.1-31.1,90.6-64.4c0.1-0.2,0.7-0.8,1.7-1.7h0.2c2.3,0.5,3.8,2.2,5.9,1.3c1.8-0.8,3.4-2,5.2-2.7l1.9,5   c2-2.5,0.4-3.3,3.6-5.2l0.5,1.9l9.5-0.9c1.1,2.9,3.2,2.9,3.5,6.9c0.2,3,0.4,7.1-0.9,9.4c-1.3-0.7-2.1-1.5-3.3-2.3   c-2.2-1.5-1.9-0.8-2-4c-2.4-1-2.1-1.6-3.5-3l-0.6,0.8c1.4,2,3.1,4,4.6,6.2c2.3,3.3,2.3,3.2,3.5,7.8c0.2,0.3,1.3,0.2,2.3,1.7   l4.7,6.5c0.7,0.9,2.7,3.6,2.9,4.6c0.8,4-1.1,2.9,2.1,5.3c0.6,0.4,4.1,3.2,4.2,3.3c0.4,0.5,2,4.5,2.1,5.3c0.8,5.9-0.8,8,3.9,11.5   c2.7,2,5.1,3,5.7,5.5c2.4,9.4-0.7,4,7.4,11.2c1.5,1.3,3,1.3,4.7,2.8c0.9,0.9,2.5,2.2,4,3.4c-5.2,4.6-11.8,9.2-19.8,13.9   c-50.9,29.2-34.5,0.5-64.5,52.4c-1.7,2.9-3.1,3.6-6.1,4.8c-3.5,13.3-31.7,11.8-61.5,12.6c-1.1-1.4-2.3-3-3.6-5c-1.2-2-2-2.3-2.2-5   l1-1c0.9-1.2,1-2.4,1.5-4.1c1.4-4.7-0.9-3.2-0.1-5.2c0.9-2.2,1.5-3.1,1.9-5.7c0.5-3.8,0.8-3.5-1-5.6c0.8-0.7,1.1-1.1,0.8-2.1   c-1.5,0-0.4,0.3-2.1,1.1c-0.9-0.7-3.2-3.1-3.7-4.2c-1.6,1.1-0.4,1-3.4,1.2c-1.4,0.1-2.6,0.4-3.8,0.5c-9.5,0.7-6.3-3-10.4-8.1   c-1.8-2.2-4-1.6-7.5-1.8c-6.2-0.3-6.7-0.5-11.1,2.3c-2,1.3-1.6,0.6-3.8,1c-1.2,0.3-5,2.3-6.4,2.9c-3.7,1.7-2.7,1.9-6.6,0.3   c-4.8-2-10.8-1.1-15.9,0.3c-8.4,2.3-7.1,2.8-14.5-0.9c-3.5-1.7-2.8-1.6-4.8-4.2c-0.7-0.9-1.6-2.1-2.4-2.5c-3.7-2.3-4.2-3.4-7.5-6.2   c-1.6-1.4-3.8-2.7-5-4.3c-0.5-1.9,0.4-3.3-0.5-5.1c-0.6-1.2-0.3-0.1-0.8-1.9C1496,1475.7,1495.6,1475.1,1495.1,1474.6" fill="#F9B500" fill-rule="evenodd"/>
    <path d="M527.3,1220.4h87.3v423.7c0,32.3-9,62.4-26.7,90.6c-17.8,28.2-41.3,50.5-70.5,67.1   c-29.2,16.4-60.2,24.7-93.1,24.7c-24.4,0-48-4.6-71.2-13.8c-23-9.2-44-22.5-63-39.6c-18.8-17.2-33.6-36.8-44.3-58.9   c-10.7-22.2-16-45.8-16-70.9v-422.8h84.6v421c0,28.9,10.7,53.3,32,73.1c21.3,20,47.3,29.9,77.9,29.9c16.9,0,33.3-4.4,49.2-13.1   c15.9-8.8,28.9-20.6,38.8-35.4c10-14.7,15-30.2,15-46.7V1220.4z" fill="#DA004D"/>
    <polygon points="1043.1,1657.3 1043.1,1220.4 1130.5,1220.4 1130.5,1814.1 1045.9,1814.1 737.7,1353.4    737.7,1814.1 658.2,1814.1 658.2,1220.4 752.8,1220.4  " fill="#DA004D"/>
    <rect x="1194.2" y="1220.4" width="78.5" height="593.7" fill="#DA004D"/>
    <path d="M1614,1743.6c1.5,0,3.8,0.1,7.2,0.4c3.2,0.3,5.6,0.4,6.9,0.4c32.9,0,60.6-5.3,83.1-15.6   c22.6-10.4,45.4-25.4,68.4-45.1H1889c-17.9,28.9-40.1,53.9-66.6,74.7c-26.6,20.8-57.4,36.7-92.2,47.7   c-34.9,11-73.7,16.6-116.1,16.6c-34.2,0-68.7-7.9-103.5-23.9c-34.8-15.9-66.5-38-95.1-66.4c-28.8-28.5-51.5-61.4-68.4-98.8   s-25.4-76.5-25.4-117.4c0-0.7,0.1-1.9,0.4-3.7c0.3-1.6,0.4-2.8,0.4-3.4c0.9-39.3,9.1-76.9,25-113c15.7-36.1,37.3-68,64.7-95.9   c27.5-27.7,59.2-49.5,95-65.3c35.8-15.7,73.5-23.6,112.9-23.6h10.6c42.3,1.6,80.9,9.5,115.7,23.8c34.9,14.2,64.9,33.2,90,57   s45.8,51.2,62.2,82.2h-96.9c-44-47.6-98.9-74-164.7-79.4h-10.6c-37.6,0-73.4,9.8-107.6,29.7c-34.2,19.8-61.8,46.7-82.8,80.4   c-20.8,33.8-31.4,69.9-31.6,108.5v1.8c0,32,5.6,61.8,16.7,89.5c11,27.7,26.4,52,46.2,72.7c19.8,20.7,42.4,36.7,67.7,48.1   C1560.2,1737.3,1586.7,1743.2,1614,1743.6" fill="#DA004D"/>
    <path d="M2149,1312l-103.2,250.3h208L2149,1312z M2022.2,1617.8l-81,194.5h-60l236.9-575.2h61.8l238.7,575.2   h-61.7l-80-194.5H2022.2z" fill="#1D1D1B"/>
    <polygon points="2498.1,1812.3 2442.6,1812.3 2442.6,1237.1 2758.7,1237.1 2758.7,1294.4 2498.1,1294.4    2498.1,1498 2730.5,1498 2730.5,1553.5 2498.1,1553.5  " fill="#1D1D1B"/>
    <path d="M2857.9,1221.7h10.7c5.1,0,8.6-0.8,10.4-2.3   c1.9-1.5,2.8-3.5,2.8-6.1c0-1.6-0.5-3.1-1.4-4.3c-0.9-1.3-2.1-2.2-3.7-2.8c-1.6-0.6-4.5-0.9-8.9-0.9h-10v16.4H2857.9z    M2849.1,1252.4v-54.6h18.8c6.4,0,11.1,0.5,13.9,1.5c2.9,1,5.1,2.8,6.9,5.3c1.7,2.5,2.5,5.2,2.5,8c0,4-1.4,7.5-4.3,10.4   c-2.8,3-6.6,4.6-11.3,5c1.9,0.8,3.5,1.8,4.6,2.9c2.2,2.2,4.9,5.8,8.1,10.8l6.7,10.7h-10.8l-4.8-8.6c-3.8-6.8-6.9-11-9.2-12.7   c-1.6-1.3-4-1.9-7.1-1.9h-5.2v23.2L2849.1,1252.4L2849.1,1252.4z M2871.4,1182c-7.1,0-14.1,1.8-20.8,5.5c-6.8,3.7-12,8.9-15.8,15.7   c-3.8,6.8-5.7,13.9-5.7,21.2c0,7.3,1.9,14.3,5.6,21c3.7,6.7,9,11.9,15.7,15.7c6.7,3.7,13.7,5.6,21.1,5.6c7.3,0,14.3-1.9,21.1-5.6   c6.7-3.7,11.9-9,15.7-15.7c3.7-6.7,5.6-13.7,5.6-21c0-7.4-1.9-14.4-5.7-21.2c-3.8-6.8-9.1-12-15.8-15.7   C2885.4,1183.8,2878.4,1182,2871.4,1182z M2871.4,1173.6c8.5,0,16.8,2.2,25,6.5c8.1,4.4,14.4,10.6,19,18.8   c4.5,8.1,6.8,16.6,6.8,25.5c0,8.8-2.2,17.2-6.7,25.2c-4.5,8.1-10.7,14.4-18.8,18.8c-8.1,4.5-16.5,6.7-25.3,6.7s-17.2-2.2-25.3-6.7   s-14.3-10.7-18.8-18.8c-4.5-8.1-6.7-16.5-6.7-25.2c0-8.8,2.3-17.3,6.8-25.5s10.9-14.4,19-18.8   C2854.5,1175.8,2862.8,1173.6,2871.4,1173.6z" fill="#1D1D1B" fill-rule="evenodd"/>
  </g>
</svg>