<svg xmlns="http://www.w3.org/2000/svg" xmlns:xlink="http://www.w3.org/1999/xlink" version="1.2" viewBox="0 0 1080 1080" baseProfile="tiny-ps">
  <title>Predilife</title>
  <path d="M88.47,521.42c-10.51,0-19.04,8.52-19.04,19.04c0,10.51,8.52,19.04,19.04,19.04  s19.04-8.52,19.04-19.04S98.98,521.42,88.47,521.42z" fill="#192A56"/>
  <path d="M360.48,484.04c-31.16,0-56.42,25.26-56.42,56.42s25.26,56.42,56.42,56.42s56.42-25.26,56.42-56.42  C416.9,509.3,391.64,484.04,360.48,484.04z" fill="#192A56"/>
  <path d="M227.92,540.46c0-16.24-13.16-29.41-29.41-29.41c-16.24,0-29.4,13.17-29.4,29.41  s13.16,29.41,29.4,29.41C214.75,569.86,227.92,556.7,227.92,540.46z" fill="#192A56"/>
  <path d="M540.42,107.55c10.51,0,19.04-8.52,19.04-19.04c0-10.51-8.52-19.04-19.04-19.04  c-10.52,0-19.04,8.52-19.04,19.04C521.38,99.02,529.9,107.55,540.42,107.55z" fill="#192A56"/>
  <path d="M859.59,389.92c16.25,0,29.41-13.16,29.41-29.4c0-16.25-13.16-29.41-29.41-29.41  c-16.24,0-29.4,13.16-29.4,29.41C830.18,376.76,843.35,389.92,859.59,389.92z" fill="#192A56"/>
  <circle cx="706.2" cy="356.1" r="39.91" fill="#192A56"/>
  <path d="M540.42,304.1c-31.16,0-56.42,25.26-56.42,56.42s25.26,56.42,56.42,56.42s56.42-25.26,56.42-56.42  C596.84,329.36,571.58,304.1,540.42,304.1z" fill="#192A56"/>
  <path d="M221.25,331.11c-16.25,0-29.41,13.16-29.41,29.41c0,16.24,13.16,29.4,29.41,29.4  c16.24,0,29.4-13.16,29.4-29.4C250.66,344.27,237.49,331.11,221.25,331.11z" fill="#192A56"/>
  <circle cx="374.64" cy="356.1" r="39.91" fill="#192A56"/>
  <path d="M702.38,223.54c16.25,0,29.41-13.16,29.41-29.4c0-16.25-13.16-29.41-29.41-29.41  c-16.24,0-29.4,13.16-29.4,29.41C672.98,210.38,686.15,223.54,702.38,223.54z" fill="#192A56"/>
  <path d="M540.42,227.96c16.24,0,29.41-13.16,29.41-29.41c0-16.24-13.17-29.4-29.41-29.4  s-29.41,13.16-29.41,29.4C511.01,214.79,524.18,227.96,540.42,227.96z" fill="#192A56"/>
  <path d="M378.45,223.54c16.24,0,29.4-13.16,29.4-29.4c0-16.25-13.16-29.41-29.4-29.41  c-16.25,0-29.41,13.16-29.41,29.41C349.05,210.38,362.21,223.54,378.45,223.54z" fill="#192A56"/>
  <path d="M540.42,973.37c-10.51,0-19.04,8.52-19.04,19.04c0,10.51,8.52,19.04,19.04,19.04  c10.52,0,19.04-8.52,19.04-19.04C559.46,981.89,550.94,973.37,540.42,973.37z" fill="#192A56"/>
  <path d="M221.25,690.99c-16.25,0-29.41,13.16-29.41,29.4c0,16.25,13.16,29.41,29.41,29.41  c16.24,0,29.4-13.16,29.4-29.41C250.66,704.16,237.49,690.99,221.25,690.99z" fill="#192A56"/>
  <circle cx="374.64" cy="724.81" r="39.91" fill="#192A56"/>
  <path d="M540.42,663.98c-31.16,0-56.42,25.26-56.42,56.42s25.26,56.42,56.42,56.42s56.42-25.26,56.42-56.42  C596.84,689.24,571.58,663.98,540.42,663.98z" fill="#192A56"/>
  <path d="M859.59,690.99c-16.24,0-29.4,13.16-29.4,29.4c0,16.25,13.16,29.41,29.4,29.41  c16.25,0,29.41-13.16,29.41-29.41C889,704.16,875.83,690.99,859.59,690.99z" fill="#192A56"/>
  <circle cx="706.2" cy="724.81" r="39.91" fill="#192A56"/>
  <path d="M378.45,857.37c-16.25,0-29.41,13.16-29.41,29.4c0,16.25,13.16,29.41,29.41,29.41  c16.24,0,29.4-13.16,29.4-29.41C407.86,870.54,394.69,857.37,378.45,857.37z" fill="#192A56"/>
  <path d="M540.42,852.96c-16.24,0-29.41,13.16-29.41,29.41c0,16.24,13.17,29.4,29.41,29.4  s29.41-13.16,29.41-29.4C569.83,866.12,556.66,852.96,540.42,852.96z" fill="#192A56"/>
  <path d="M702.38,857.37c-16.24,0-29.4,13.16-29.4,29.4c0,16.25,13.16,29.41,29.4,29.41  c16.25,0,29.41-13.16,29.41-29.41C731.79,870.54,718.63,857.37,702.38,857.37z" fill="#192A56"/>
  <path d="M992.37,521.42c-10.52,0-19.04,8.52-19.04,19.04c0,10.51,8.52,19.04,19.04,19.04  c10.51,0,19.04-8.52,19.04-19.04S1002.88,521.42,992.37,521.42z" fill="#192A56"/>
  <path d="M720.36,484.04c-31.16,0-56.42,25.26-56.42,56.42s25.26,56.42,56.42,56.42s56.42-25.26,56.42-56.42  C776.78,509.3,751.52,484.04,720.36,484.04z" fill="#192A56"/>
  <path d="M882.33,511.05c-16.25,0-29.41,13.17-29.41,29.41s13.16,29.41,29.41,29.41  c16.24,0,29.4-13.17,29.4-29.41C911.73,524.22,898.57,511.05,882.33,511.05z" fill="#192A56"/>
  <circle cx="540.42" cy="540.46" r="71.44" fill="#00BACF"/>
</svg>