<?xml version="1.0" encoding="UTF-8"?>
<svg version="1.2" baseProfile="tiny-ps" id="Layer_1" xmlns="http://www.w3.org/2000/svg" xmlns:xlink="http://www.w3.org/1999/xlink" width="100px" height="100px" viewBox="0 0 100 100">
    <title>About You App Icon_svg Tiny P/S</title>
        <desc>Created with Sketch.</desc>
    <g id="iPhone" stroke="none" stroke-width="1" fill="none" fill-rule="evenodd">
        <g id="App-Icon">
            <g id="Icon-Template-512-pt">
                <g id="Guide" stroke-width="1" stroke="#000000" stroke-opacity="0.2">
                    <path d="M0,0 L100.00267,100.00267" id="Path-2" stroke-width="8.6779661" stroke-linecap="square" />
                    <path d="M100.00267,0 L0,100.00267" id="Path-3" stroke-width="8.6779661" stroke-linecap="square" />
                    <path d="M0,50.0013352 L100.00267,50.0013352" id="Path-4" stroke-width="8.6779661" stroke-linecap="square" />
                    <path d="M50.0013352,0 L50.0013352,100.00267" id="Path-5" stroke-width="8.6779661" stroke-linecap="square" />
                    <polygon id="Path-19" stroke-width="8.6779661" stroke-linecap="square" points="6.54314347 6.54314347 6.54314347 93.4595269 93.4595269 93.4595269 93.4595269 6.54314347" />
                    <path d="M31.1531756,0 L31.1531756,100.00267" id="Path-20" stroke-width="8.6779661" stroke-linecap="square" />
                    <path d="M68.8494947,0 L68.8494947,100.00267" id="Path-21" stroke-width="8.6779661" stroke-linecap="square" />
                    <path d="M100.00267,31.1531756 L0,31.1531756" id="Path-22" stroke-width="8.6779661" stroke-linecap="square" />
                    <path d="M100.00267,68.8494947 L0,68.8494947" id="Path-23" stroke-width="8.6779661" stroke-linecap="square" />
                    <circle id="Oval" stroke-width="8.6779661" cx="50.0013352" cy="50.0013352" r="39.2168675" />
                    <circle id="Oval-2" stroke-width="8.6779661" cx="50.0013352" cy="50.0013352" r="14.6068354" />
                    <circle id="Oval-2" stroke-width="8.6779661" cx="50.0013352" cy="50.0013352" r="22.419544" />
                </g>
                <rect id="Rectangle" fill="#000000" x="0" y="0" width="100.00267" height="100.00267" />
                <g id="ABOUT-YOU_Logo_weiß" transform="translate(15.039464, 24.805350)" fill="#FFFFFE" stroke-width="1">
                    <g>
                        <path d="M24.7409456,8.33747511 C24.7409456,6.69490163 23.9368023,6.09085472 22.2063203,6.09085472 L20.9390077,6.09085472 L20.9390077,10.6083194 L21.9382726,10.6083194 C23.8636806,10.6083194 24.7409456,9.9560185 24.7409456,8.33747511" id="Fill-1" />
                        <path d="M35.9275896,5.75268923 C33.8559382,5.75268923 33.5147687,7.54041226 33.5147687,12.1543849 C33.5147687,16.7925814 33.8559382,18.5560806 35.9275896,18.5560806 C37.9990456,18.5560806 38.3404106,16.7925814 38.3404106,12.1543849 C38.3404106,7.54041226 37.9990456,5.75268923 35.9275896,5.75268923" id="Fill-2" />
                        <path d="M22.4501245,13.0241194 L20.9390077,13.0241194 L20.9390077,18.2177213 L22.3038811,18.2177213 C23.9854849,18.2177213 25.1309932,17.6138682 25.1309932,15.6089053 C25.1309932,13.6037486 23.9854849,13.0241194 22.4501245,13.0241194" id="Fill-3" />
                        <path d="M66.7331404,6.38076623 L62.9312025,6.38076623 L62.9312025,20.7784771 L59.4217514,20.7784771 L59.4217514,6.38076623 L55.619618,6.38076623 L55.619618,3.53029273 L66.7331404,3.53029273 L66.7331404,6.38076623 Z M54.571866,15.5604575 C54.571866,19.9569965 51.8665583,21.1166426 49.0152026,21.1166426 C46.1636515,21.1166426 43.4583437,20.1744302 43.4583437,15.5604575 L43.4583437,3.53029273 L46.9677948,3.53029273 L46.9677948,15.5604575 C46.9677948,17.2757027 47.3822815,18.5560806 49.0152026,18.5560806 C50.6481238,18.5560806 51.062415,17.2757027 51.062415,15.5604575 L51.062415,3.53029273 L54.571866,3.53029273 L54.571866,15.5604575 Z M35.9275896,21.1166426 C30.6632176,21.1166426 30.0053177,17.3964345 30.0053177,12.1543849 C30.0053177,6.91233526 30.6632176,3.19212724 35.9275896,3.19212724 C41.1915707,3.19212724 41.8498616,6.91233526 41.8498616,12.1543849 C41.8498616,17.3964345 41.1915707,21.1166426 35.9275896,21.1166426 Z M23.3518286,20.7784771 L17.4293611,20.7784771 L17.4293611,3.53029273 L23.3029505,3.53029273 C26.1789407,3.53029273 28.2503966,4.59323699 28.2503966,7.90280164 C28.2503966,9.76280876 27.3486926,11.1881424 25.6184061,11.6712637 L25.6184061,11.7195176 C27.5436186,11.9852053 28.7866877,13.4347628 28.7866877,15.7296372 C28.7866877,18.4351549 27.4462533,20.7784771 23.3518286,20.7784771 Z M12.5550367,20.7784771 L11.7508934,17.1307469 L7.12017762,17.1307469 L6.31603432,20.7784771 L2.66033986,20.7784771 L7.26642104,3.53029273 L11.60465,3.53029273 L16.2109267,20.7784771 L12.5550367,20.7784771 Z M0,24.2802825 L69.8857809,24.2802825 L69.8857809,0 L0,0 L0,24.2802825 Z" id="Fill-4" />
                        <polyline id="Fill-5" points="9.41119419 6.52572199 7.72959037 14.2802734 11.1416761 14.2802734 9.45987682 6.52572199 9.41119419 6.52572199" />
                        <path d="M21.1392126,31.3333101 C19.0675612,31.3333101 18.7263917,33.1208394 18.7263917,37.7350058 C18.7263917,42.3730085 19.0675612,44.1363139 21.1392126,44.1363139 C23.210864,44.1363139 23.5520335,42.3730085 23.5520335,37.7350058 C23.5520335,33.1208394 23.210864,31.3333101 21.1392126,31.3333101" id="Fill-6" />
                        <path d="M46.7945706,32.2941265 L45.9292319,31.4222602 L47.2061246,30.1771523 C46.7544905,29.8872408 46.2166354,29.7184488 45.6394822,29.7184488 C44.0476187,29.7184488 42.7521522,31.0023149 42.7521522,32.5803559 C42.7521522,34.1587846 44.0476187,35.4426507 45.6394822,35.4426507 C47.2319323,35.4426507 48.5272032,34.1587846 48.5272032,32.5803559 C48.5272032,32.0158424 48.361213,31.4889244 48.0755691,31.0449489 L46.7945706,32.2941265" id="Fill-7" />
                        <path d="M45.6394822,36.6734181 C43.362738,36.6734181 41.5100607,34.837441 41.5100607,32.5803559 C41.5100607,30.3236584 43.362738,28.4872938 45.6394822,28.4872938 C47.9168129,28.4872938 49.7690992,30.3236584 49.7690992,32.5803559 C49.7690992,34.837441 47.9168129,36.6734181 45.6394822,36.6734181 Z M39.7832935,41.1408846 C39.7832935,45.5374236 37.0779857,46.6972635 34.2268256,46.6972635 C31.3752744,46.6972635 28.6699667,45.7548573 28.6699667,41.1408846 L28.6699667,29.1107198 L32.1796132,29.1107198 L32.1796132,41.1408846 C32.1796132,42.8563236 32.5939044,44.1363139 34.2268256,44.1363139 C35.8597468,44.1363139 36.274038,42.8563236 36.274038,41.1408846 L36.274038,29.1107198 L39.7832935,29.1107198 L39.7832935,41.1408846 Z M21.1392126,46.6972635 C15.8748405,46.6972635 15.2169406,42.9770554 15.2169406,37.7350058 C15.2169406,32.4927624 15.8748405,28.7727481 21.1392126,28.7727481 C26.4033892,28.7727481 27.0614846,32.4927624 27.0614846,37.7350058 C27.0614846,42.9770554 26.4033892,46.6972635 21.1392126,46.6972635 Z M10.7516285,46.359098 L7.24217748,46.359098 L7.24217748,39.570789 L2.73326605,29.1107198 L6.68164287,29.1107198 L8.97246393,35.7781031 L9.02114656,35.7781031 L11.4584066,29.1107198 L15.2603444,29.1107198 L10.7516285,39.570789 L10.7516285,46.359098 Z M0,49.8791198 L52.0956991,49.8791198 L52.0956991,25.5986435 L0,25.5986435 L0,49.8791198 Z" id="Fill-8" />
                    </g>
                </g>
            </g>
                <use />
            
            <path stroke="#000000" stroke-width="4.33898305" d="M54.68735,2.16949153 L67.5154779,2.16949153 L67.5146038,-2.16949135 L54.6856662,-2.1643226 L54.68735,2.16949153 Z" />
        </g>
    </g>
</svg>
