<svg width="560" height="740" viewBox="0 0 560 740" fill="none" xmlns="http://www.w3.org/2000/svg" baseProfile="tiny-ps" version="1.2">
<title>Resistbot</title>
<path d="M404.66 404.78L324.7 414.6L335.04 577.73L406.82 568.92L404.66 404.78Z" fill="#146A99"/>
<path d="M193.76 157.04C193.62 156.1 190.35 133.64 196.24 107.07C204.13 71.46 224.84 45.75 256.13 32.71L259.75 41.4C231.1 53.34 212.84 76.02 205.5 108.82C199.92 133.73 203.05 155.42 203.08 155.64L193.76 157.04Z" fill="#146A99"/>
<path d="M262.99 739.34C294.498 739.34 320.04 713.798 320.04 682.29C320.04 650.782 294.498 625.24 262.99 625.24C231.482 625.24 205.94 650.782 205.94 682.29C205.94 713.798 231.482 739.34 262.99 739.34Z" fill="#064672"/>
<path d="M262.99 704.68C275.356 704.68 285.38 694.656 285.38 682.29C285.38 669.924 275.356 659.9 262.99 659.9C250.624 659.9 240.6 669.924 240.6 682.29C240.6 694.656 250.624 704.68 262.99 704.68Z" fill="white"/>
<path d="M260.26 660.06C247.99 661.57 239.26 672.74 240.76 685.01C240.82 685.46 240.91 685.9 240.99 686.35L285.31 680.91C285.28 680.46 285.27 680.01 285.21 679.56C283.71 667.29 272.54 658.56 260.26 660.06Z" fill="#BCBEC0"/>
<path d="M404.92 411.78C393.22 316.49 306.48 248.72 211.19 260.42C115.55 272.16 48.09 358.49 59.82 454.13C60.94 463.27 62.76 472.16 65.2 480.74L113.9 675.53C115.76 682.96 122.86 687.83 130.46 686.9L392.69 654.7C400.29 653.77 406 647.32 406 639.66L406.13 438.87C406.43 429.97 406.05 420.91 404.92 411.78Z" fill="#001B21"/>
<path d="M425.34 322.11C411.54 209.72 309.24 129.79 196.84 143.59C84.4501 157.39 4.52012 259.69 18.3301 372.09C19.6501 382.86 21.8001 393.33 24.6701 403.45L82.6901 635.53C84.5501 642.96 91.6501 647.83 99.2501 646.9L413.31 608.34C420.91 607.41 426.62 600.96 426.62 593.3L426.78 354.08C427.12 343.56 426.66 332.88 425.34 322.11Z" fill="#146A99"/>
<path d="M425.34 322.11C411.54 209.72 309.24 129.79 196.84 143.59C84.4501 157.39 4.52012 259.69 18.3301 372.09C19.6501 382.86 21.8001 393.33 24.6701 403.45L82.6901 635.53C84.5501 642.96 91.6501 647.83 99.2501 646.9L413.31 608.34C420.91 607.41 426.62 600.96 426.62 593.3L426.78 354.08C427.12 343.56 426.66 332.88 425.34 322.11Z" fill="#064672"/>
<path d="M71.1601 439.77C68.2801 429.65 66.1401 419.18 64.8201 408.41C51.0201 296.02 130.95 193.71 243.34 179.91C288.98 174.31 332.95 184.16 370.01 205.36C326.8 160.26 263.61 135.39 196.85 143.59C84.4501 157.39 4.52012 259.69 18.3301 372.09C19.6501 382.86 21.8001 393.33 24.6701 403.45L82.6901 635.53C84.5501 642.96 91.6501 647.83 99.2501 646.9L122.24 644.08L71.1601 439.77Z" fill="#146A99"/>
<path d="M216.13 420.32C282.211 420.32 335.78 366.751 335.78 300.67C335.78 234.589 282.211 181.02 216.13 181.02C150.049 181.02 96.48 234.589 96.48 300.67C96.48 366.751 150.049 420.32 216.13 420.32Z" fill="white"/>
<path d="M333.24 276.15C248.55 266.97 167.3 287.37 99.9299 329.2C111.44 376.06 150.82 413.2 201.55 419.43C267.14 427.48 326.83 380.84 334.89 315.25C336.54 301.84 335.86 288.68 333.24 276.15Z" fill="#D1D3D4"/>
<path d="M212.21 338.33C242.564 338.33 267.17 313.724 267.17 283.37C267.17 253.016 242.564 228.41 212.21 228.41C181.856 228.41 157.25 253.016 157.25 283.37C157.25 313.724 181.856 338.33 212.21 338.33Z" fill="#001B21"/>
<path d="M193.42 273.35C200.047 273.35 205.42 267.978 205.42 261.35C205.42 254.723 200.047 249.35 193.42 249.35C186.793 249.35 181.42 254.723 181.42 261.35C181.42 267.978 186.793 273.35 193.42 273.35Z" fill="white"/>
<path d="M264.72 63.23C282.001 63.23 296.01 49.221 296.01 31.94C296.01 14.659 282.001 0.650024 264.72 0.650024C247.439 0.650024 233.43 14.659 233.43 31.94C233.43 49.221 247.439 63.23 264.72 63.23Z" fill="#146A99"/>
<path d="M374.48 335.93C381.89 335.93 388.16 341.49 389.07 348.86C390.06 356.92 384.31 364.28 376.25 365.27C375.65 365.34 375.03 365.38 374.43 365.38C367.02 365.38 360.74 359.82 359.84 352.45C359.36 348.55 360.43 344.69 362.85 341.59C365.27 338.49 368.76 336.52 372.66 336.04C373.26 335.97 373.88 335.93 374.48 335.93ZM374.48 330.29C373.65 330.29 372.81 330.34 371.97 330.44C360.8 331.81 352.86 341.98 354.23 353.15C355.5 363.48 364.28 371.04 374.43 371.04C375.26 371.04 376.1 370.99 376.94 370.89C388.11 369.52 396.05 359.35 394.68 348.18C393.41 337.85 384.62 330.29 374.48 330.29Z" fill="white"/>
<path d="M143.95 170.66C142.41 182.33 146.15 187.54 151.92 194.19C159.22 189.26 164.18 185.2 165.71 173.52C167.25 161.85 164.99 145.44 159.21 138.79C151.92 143.72 145.49 158.98 143.95 170.66Z" fill="#BCBEC0"/>
<path d="M244.21 192.48C283.78 187.62 322.6 189.76 359.43 197.92C371.26 200.54 378.7 185.46 369.27 177.86C367.81 176.68 366.34 175.53 364.85 174.38C317.42 138.06 258.12 122.13 197.85 129.53C137.58 136.93 83.89 166.73 46.66 213.45C25.4 240.13 10.87 270.66 3.64001 303.05C1.03001 314.74 15.99 322.15 23.64 312.93C77.19 248.47 154.47 203.5 244.21 192.48Z" fill="#D32020"/>
<path d="M364.85 174.38C317.42 138.06 258.12 122.13 197.85 129.53C163.83 133.71 131.91 145.03 103.86 162.5L105.57 172.12L154.79 216.05C182.74 204.44 212.7 196.37 244.21 192.5C283.78 187.64 322.6 189.78 359.43 197.94C371.26 200.56 378.7 185.48 369.27 177.88C367.82 176.68 366.34 175.52 364.85 174.38Z" fill="#D32020"/>
<path d="M84.99 199.43L91.44 209.26L103.2 209.52L95.84 218.69L99.23 229.96L88.23 225.79L78.56 232.49L79.13 220.75L69.77 213.62L81.11 210.53L84.99 199.43Z" fill="white"/>
<path d="M184.65 201.96C182.74 186.37 168.55 175.28 152.96 177.2C150.11 177.55 147.42 178.32 144.92 179.42C140.61 169.51 133.79 161.09 120.37 153.17C103.65 161.72 88.07 172.31 73.96 184.77C80.05 189.4 86.31 193.5 92.35 196.76C106.61 204.45 117.53 206.32 128.02 205.13C128.01 206.38 128.05 207.63 128.2 208.9C128.96 215.06 131.65 220.5 135.58 224.73C151.31 217.01 167.77 210.46 184.86 205.19C184.84 204.12 184.78 203.04 184.65 201.96Z" fill="#990404"/>
<path d="M95.9201 192.66C118.39 204.78 131.84 201.23 149.77 194.66C145.42 176.07 141 162.88 118.53 150.75C96.0601 138.63 61.0601 130.55 43.1301 137.12C47.4801 155.72 73.4501 180.54 95.9201 192.66Z" fill="#D32020"/>
<path d="M122.85 193.66C134.09 199.72 140.81 197.95 149.77 194.66C147.59 185.36 145.39 178.77 134.15 172.71C122.91 166.65 105.41 162.61 96.45 165.89C98.63 175.19 111.61 187.6 122.85 193.66Z" fill="#990404"/>
<path d="M134.63 143.15C131.3 168.46 139.4 179.77 151.92 194.19C167.75 183.51 178.5 174.69 181.84 149.37C185.17 124.05 180.27 88.47 167.75 74.05C151.91 84.74 137.96 117.84 134.63 143.15Z" fill="#990404"/>
<path d="M154.89 226.82C169.343 226.82 181.06 215.103 181.06 200.65C181.06 186.197 169.343 174.48 154.89 174.48C140.437 174.48 128.72 186.197 128.72 200.65C128.72 215.103 140.437 226.82 154.89 226.82Z" fill="#D32020"/>
<path d="M84.99 199.43L91.44 209.26L103.2 209.52L95.84 218.69L99.23 229.96L88.23 225.79L78.56 232.49L79.13 220.75L69.77 213.62L81.11 210.53L84.99 199.43Z" fill="white"/>
<path d="M46.9001 283.05L54.2601 273.88L42.5001 273.62L36.0501 263.79L32.1701 274.89L20.8301 277.99L30.1901 285.11L29.6301 296.86L39.2901 290.16L43.0101 291.57C44.6501 289.91 46.3001 288.26 47.9801 286.63L46.9001 283.05Z" fill="white"/>
<path d="M46.8099 241.63L43.4199 230.37L50.7799 221.2L40.9499 220.98C35.5099 228.42 30.5699 236.12 26.1499 244.06L26.1399 244.17L35.7999 237.47L46.8099 241.63Z" fill="white"/>
<path d="M210.32 136.98L216.78 146.81L228.53 147.07L221.17 156.24L224.56 167.51L213.56 163.34L203.9 170.04L204.46 158.3L195.1 151.17L206.44 148.08L210.32 136.98Z" fill="white"/>
<path d="M263.56 177.89L257.11 168.06L253.23 179.16L241.89 182.26L251.25 189.38L251.14 191.71C257.07 191.1 262.99 190.66 268.88 190.37L267.97 187.33L275.33 178.16L263.56 177.89ZM338.72 190.11L332.27 180.28L328.39 191.38L325.4 192.2C332.49 193.03 339.53 194.07 346.5 195.33L350.48 190.37L338.72 190.11ZM298.4 139.23L295.63 139.17L294.94 138.12C292.28 137.29 289.61 136.5 286.93 135.77L285.3 140.44L273.96 143.54L283.32 150.66L282.76 162.41L292.42 155.71L303.42 159.87L300.03 148.61L305.55 141.73C303.18 140.86 300.8 140.02 298.4 139.23Z" fill="white"/>
<path d="M404.66 404.78L324.7 414.6L335.04 577.73L406.82 568.92L404.66 404.78Z" fill="black"/>
<path d="M404.66 404.78L324.7 414.6L335.04 577.73L406.82 568.92L404.66 404.78Z" fill="#146A99"/>
<path d="M333.88 559.51L388.96 552.75L387.05 406.94L324.7 414.6L333.88 559.51Z" fill="black"/>
<path d="M524.33 217.83L488.11 240.35C490.62 248.73 492.48 257.36 493.56 266.22C498.61 307.33 487.34 347.94 461.85 380.57C436.36 413.2 399.68 433.95 358.57 439C347.64 440.34 336.75 440.5 326.03 439.57L328.78 481.3C332.27 481.49 335.77 481.61 339.28 481.61C347.35 481.61 355.48 481.12 363.62 480.12C415.71 473.72 462.19 447.43 494.5 406.07C526.81 364.72 541.08 313.26 534.69 261.17C532.84 246.19 529.35 231.68 524.33 217.83Z" fill="#BCBEC0"/>
<path d="M488.85 327.52L528.69 338.87C530.95 330.95 532.72 322.8 533.95 314.65L493 308.44C492.03 314.86 490.63 321.28 488.85 327.52ZM410.54 423.07L429.47 459.92C436.78 456.16 443.93 451.9 450.72 447.24L427.29 413.08C421.93 416.75 416.3 420.11 410.54 423.07ZM328.55 439.79L327.26 458.13L328.79 481.28C332.35 481.47 335.92 481.6 339.47 481.6C343.1 481.6 346.77 481.5 350.38 481.3L348.09 439.94C341.61 440.29 335.02 440.24 328.55 439.79ZM529 232.53C527.63 227.59 526.04 222.69 524.29 217.86L488.13 240.34C488.45 241.42 488.78 242.49 489.08 243.57L529 232.53ZM534.68 261.19L534.64 260.83L493.53 265.92L493.57 266.21C494.35 272.56 494.74 278.99 494.74 285.33V285.67L536.16 285.92V285.33C536.16 277.31 535.66 269.18 534.68 261.19ZM471.85 366.17L507.15 387.86C511.46 380.84 515.36 373.49 518.75 366L481.01 348.92C478.34 354.82 475.25 360.63 471.85 366.17ZM370.72 437.02L378.97 477.62C387.05 475.98 395.09 473.81 402.87 471.18L389.59 431.94C383.44 434.02 377.1 435.73 370.72 437.02ZM445.07 398.85L473.26 429.21C479.29 423.61 485.02 417.58 490.3 411.28L458.54 384.69C454.36 389.66 449.83 394.42 445.07 398.85Z" fill="#808285"/>
<path d="M554.62 155.17C554.62 155.17 558.68 245.22 505.24 251.78C451.8 258.34 434.72 190.45 467.71 174.15C500.7 157.85 554.62 155.17 554.62 155.17Z" fill="#808285"/>
<path d="M541.07 190.51L456.51 200.89C446.82 202.08 437.91 195.12 436.72 185.43L432.9 154.31C431.71 144.62 438.67 135.71 448.36 134.52L532.92 124.14C542.61 122.95 551.52 129.91 552.71 139.6L556.53 170.72C557.72 180.42 550.76 189.32 541.07 190.51Z" fill="#808285"/>
<path d="M489.406 203.557C491.965 189.978 480.449 176.409 463.684 173.25C446.919 170.09 431.254 178.537 428.694 192.116C426.135 205.695 437.651 219.264 454.416 222.424C471.181 225.583 486.847 217.137 489.406 203.557Z" fill="#BCBEC0"/>
<path d="M336.41 440.11C332.93 440.04 329.47 439.87 326.02 439.57L327.74 465.62H336.41V440.11Z" fill="#808285"/>
</svg>
