<?xml version="1.0"?>
<svg xmlns="http://www.w3.org/2000/svg" width="500" height="500" viewBox="0 0 500 500" fill="none" version="1.2" baseProfile="tiny-ps" xml:space="preserve">
<title>Tradu</title>
<path d="M59 226.38H83.4039V274.599H96.4614V226.38H120.786V216.139H59V226.38Z" fill="black"/>
<path d="M178.484 274.6L178.479 274.595H178.474L178.484 274.6Z" fill="black"/>
<path d="M176.6 252.236C180.185 251.643 183.085 250.529 185.389 248.739C189.829 245.584 191.707 240.889 191.707 234.659C191.707 228.428 189.829 223.821 185.648 220.75C180.014 216.652 171.993 216.139 160.559 216.139H133.843V274.595H146.901V253.771H157.655C159.19 253.771 160.73 253.771 162.266 253.688L178.478 274.595H194.348L176.6 252.236ZM160.985 244.39H146.905V225.958H160.818C171.655 225.954 178.482 226.634 178.482 235.001C178.482 242.938 172.936 244.39 160.985 244.39Z" fill="black"/>
<path d="M354.639 221.856C347.553 217.416 338.506 216.139 327.243 216.139H299.592V274.599H327.331C338.506 274.599 347.557 273.318 354.639 268.794C362.488 263.67 365.134 255.132 365.134 245.237C365.134 235.343 362.488 226.889 354.639 221.856ZM327.243 264.446H312.65V226.213H327.331C345.079 226.213 351.906 231.162 351.906 245.413C351.906 259.664 344.82 264.446 327.243 264.446Z" fill="black"/>
<path d="M428.197 216.139V248.91C428.197 254.201 427.513 258.211 424.529 261.112C421.287 264.446 415.82 265.381 409.677 265.381C403.534 265.381 398.072 264.275 394.913 261.028C391.929 257.957 391.245 253.776 391.245 248.484V216.139H378.192V249.423C378.192 258.979 379.385 265.293 385.019 269.733C391.587 274.858 400.463 275.792 409.594 275.792C418.724 275.792 427.35 274.854 433.918 269.821C439.723 265.297 441 258.983 441 249.423V216.139H428.197Z" fill="black"/>
<path d="M184.617 303.84L246.878 196L292.256 274.599H239.509L247.004 261.521H269.626L246.874 222.115L199.69 303.84H184.613H184.617Z" fill="url(#paint0_linear_9_2)"/>
<defs>
<linearGradient id="paint0_linear_9_2" x1="268.269" y1="235.535" x2="217.609" y2="326.704" gradientUnits="userSpaceOnUse">
<stop stop-color="#FF6100"/>
<stop offset="0.6" stop-color="#CE339A"/>
<stop offset="0.95" stop-color="#5C2FBB"/>
</linearGradient>
</defs>
</svg>
