<svg xmlns="http://www.w3.org/2000/svg" xmlns:xlink="http://www.w3.org/1999/xlink" version="1.2" viewBox="0 0 252 252" baseProfile="tiny-ps" xml:space="preserve">
  <title>FXCM</title>
  <g id="Layer_2">
    <rect x="0.25" y="0.25" width="252" height="252" fill="#0C51A3" fill-rule="evenodd"/>
  </g>
  <g id="Layer_1">
    <path d="M44.155,138.142v-20.763l-22.455,25.786   c5.285,7.464,14.014,12.368,23.818,12.368h0.239c11.764-0.1,21.926-7.247,26.424-17.391H45.758H44.155z" fill="#FFFFFF" fill-rule="evenodd"/>
    <path d="M47.173,115.411l0.02,19.695l22.598-24.876   c-5.189-7.8-14.013-12.989-24.033-13.059h-0.239c-12.195,0-22.694,7.553-27.047,18.226L47.173,115.411z" fill="#FFFFFF" fill-rule="evenodd"/>
    <path d="M88.874,107.265c-2.466,0.018-3.802,1.029-4.854,2.319   c-1.054,1.292-1.795,2.963-1.795,5.477v24.158l9.376,0.023l0.095-12.248l20.996,0.024v-7.746l-21.211,0.115   c-0.072-1.817-0.145-3.467,1.123-4.137c1.654-0.863,4.785-0.575,7.819-0.575c4.067,0.026,8.754,0,12.34,0l0.026-7.439   C106.856,107.237,94.821,107.22,88.874,107.265" fill="#FFFFFF" fill-rule="evenodd"/>
    <polygon points="150.415,107.237 141.257,107.237 133.7,118.219    126.07,107.166 116.459,107.166 127.406,122.856 116.459,139.072 125.514,139.175 133.603,127.569 141.511,139.183 150.953,139.25    139.63,122.88  " fill="#FFFFFF" fill-rule="evenodd"/>
    <path d="M178.758,107.237h-20.589c-3.42,0-6.241,2.821-6.241,6.293   v19.424c0,3.448,2.821,6.289,6.241,6.289h20.589c3.444,0,6.241-2.841,6.241-6.289v-4.677h-7.702v0.313   c0,1.832-1.408,3.352-3.154,3.352H163.67c-1.749,0-3.18-1.52-3.18-3.352v-10.338c0-1.83,1.431-3.349,3.18-3.349h10.473   c1.577,0,2.895,1.252,3.132,2.845h7.723v-4.218C184.999,110.058,182.202,107.237,178.758,107.237" fill="#FFFFFF" fill-rule="evenodd"/>
    <path d="M226.19,107.192h-6.386h-23.721   c-3.637,0-6.602,3.946-6.602,8.778v23.272h9.138v-6.554h0.02v-14.28c0-2.127,2.036-3.875,4.522-3.875h2.464   c0.405,0,0.811,0.047,1.194,0.143v18.012h0.024v6.554h8.941v-24.52c0.385-0.093,0.793-0.165,1.197-0.165h2.418   c0.142,0,0.286,0.022,0.405,0.022c2.249,0.194,4.043,1.871,4.043,3.876v20.786h8.941V115.97   C232.788,111.138,229.823,107.192,226.19,107.192" fill="#FFFFFF" fill-rule="evenodd"/>
  </g>
</svg>