<svg xmlns="http://www.w3.org/2000/svg" xmlns:xlink="http://www.w3.org/1999/xlink" version="1.2" viewBox="0 0 1080 1080" baseProfile="tiny-ps">
  <title>21.co</title>
  <rect width="1080" height="1080" fill="#111111"/>
  <radialGradient id="SVGID_1_" cx="325.709" cy="542.0747" r="97.0118" gradientUnits="userSpaceOnUse">
    <stop offset="0" stop-color="#814849"/>
    <stop offset="1" stop-color="#F9B48B"/>
  </radialGradient>
  <path d="M337.422,527.437c3.654-9.363,5.693-19.536,5.693-30.193  c0-45.914-37.221-83.135-83.136-83.135s-83.136,37.221-83.136,83.135h39.566c0-24.024,19.546-43.57,43.57-43.57  s43.569,19.545,43.569,43.57c0,11.138-4.224,21.292-11.126,29.003c6.193-0.873,12.511-1.354,18.944-1.354  C320.283,524.892,328.99,525.781,337.422,527.437z" fill="url(#SVGID_1_)"/>
  <circle cx="493.287" cy="637.97" r="24.411" fill="#F9B48B"/>
  <path d="M808.2,472.465c-52.444,0-94.958,42.514-94.958,94.958s42.515,94.958,94.958,94.958  s94.957-42.514,94.957-94.958C903.157,514.979,860.643,472.465,808.2,472.465z M808.2,622.815  c-30.544,0-55.393-24.849-55.393-55.392c0-30.543,24.849-55.392,55.393-55.392c30.543,0,55.391,24.849,55.391,55.392  C863.591,597.966,838.743,622.815,808.2,622.815z" fill="#F9B48B"/>
  <path d="M617.042,512.031c20.463,0,38.356,11.162,47.947,27.709l34.278-19.79  c-16.42-28.378-47.082-47.485-82.225-47.485c-52.444,0-94.958,42.514-94.958,94.958s42.515,94.958,94.958,94.958  c35.143,0,65.805-19.107,82.225-47.485l-34.278-19.79c-9.591,16.547-27.484,27.709-47.947,27.709  c-30.544,0-55.393-24.849-55.393-55.392C561.649,536.88,586.498,512.031,617.042,512.031z" fill="#F9B48B"/>
  <linearGradient id="SVGID_00000180355752382849232520000016863607562075894453_" gradientUnits="userSpaceOnUse" x1="313.0666" y1="440.367" x2="193.2255" y2="440.367">
    <stop offset="0" stop-color="#F9B48B"/>
    <stop offset="1" stop-color="#814849"/>
  </linearGradient>
  <path d="M343.02,659.415V619.85H225.011  c-5.623,12.256-8.602,25.679-8.602,39.566L343.02,659.415L343.02,659.415z" fill="url(#SVGID_00000180355752382849232520000016863607562075894453_)"/>
  <linearGradient id="SVGID_00000178176210905433325990000001784748497407862403_" gradientUnits="userSpaceOnUse" x1="266.859" y1="487.8455" x2="397.2799" y2="487.8455">
    <stop offset="0" stop-color="#F9B48B"/>
    <stop offset="1" stop-color="#814849"/>
  </linearGradient>
  <path d="M337.422,527.437  c-8.431-1.655-17.138-2.544-26.055-2.544c-6.433,0-12.752,0.481-18.944,1.354c-65.32,9.211-115.579,65.307-115.579,133.169h27.059  h12.508c0-13.887,2.979-27.31,8.602-39.566c4.648-10.129,11.094-19.464,19.21-27.579c17.935-17.935,41.781-27.812,67.145-27.812  c25.364,0,49.21,9.877,67.145,27.812s27.812,41.781,27.812,67.145v-95.279C387.847,545.72,364.039,532.662,337.422,527.437z" fill="url(#SVGID_00000178176210905433325990000001784748497407862403_)"/>
  <polygon points="366.758,453.674 406.324,453.674 406.324,564.136 406.324,659.415 445.89,659.415   445.89,453.674 445.89,414.109 366.758,414.109 " fill="#F9B48B"/>
</svg>