<?xml version="1.0" encoding="UTF-8" standalone="yes"?>
<svg version="1.2" viewBox="0 0 432 432" xml:space="preserve" baseProfile="tiny-ps" xmlns="http://www.w3.org/2000/svg">
  <title>Urban Barn</title>
  <defs/>
  <g>
    <path d="M39.65,221.22c0,5.9-4.12,8.82-10.31,8.82c-5.8,0-10.24-2.66-10.24-8.82v-27.21h-8.53v27.78&#xD;&#xA;&#x9;&#x9;c0,10.85,8.12,15.92,18.77,15.92c9.86,0,18.84-4.69,18.84-15.92v-27.78h-8.53V221.22z"/>
    <path d="M92.73,209.23c0-9.7-7.04-15.22-15.73-15.22H57.02v43.07h8.56v-12.68h9.96l9.86,12.65h10.34l-11.42-14.27&#xD;&#xA;&#x9;&#x9;C89.24,220.39,92.73,215.48,92.73,209.23z M76.02,217H65.58v-15.57h10.43c4.5,0,7.9,2.82,7.9,7.83&#xD;&#xA;&#x9;&#x9;C83.91,213.86,80.58,217,76.02,217z"/>
    <path d="M131.16,214.87c3.58-2.25,5.17-5.26,5.17-9.1c0-6.98-5.58-11.77-13.32-11.77h-20.07v43.07h22.26&#xD;&#xA;&#x9;&#x9;c7.96,0,13.38-4.92,13.38-11.96C138.58,220.58,136.13,216.68,131.16,214.87z M111.49,201.36h10.05c3.39,0,5.93,1.97,5.93,5.36&#xD;&#xA;&#x9;&#x9;c0,3.17-2.09,5.36-5.61,5.36h-10.37V201.36z M123.8,229.75h-12.3v-10.91h12.3c3.46,0,5.68,2.25,5.68,5.61&#xD;&#xA;&#x9;&#x9;C129.47,227.56,127.22,229.75,123.8,229.75z"/>
    <path d="M158.74,194.01l-17.38,43.07h9.13l3.2-8.44h19.98l3.17,8.44h9.13l-17.41-43.07H158.74z M156.11,221.82l7.58-18.87&#xD;&#xA;&#x9;&#x9;l7.52,18.87H156.11z"/>
    <path d="M287.34,221.69c-0.51-1.22-1.27-2.31-2.27-3.26c-1.01-0.96-2.25-1.77-3.74-2.42c-1.49-0.66-3.21-1.12-5.16-1.38&#xD;&#xA;&#x9;&#x9;c1.68-0.36,3.15-0.88,4.41-1.56c1.27-0.68,2.32-1.47,3.17-2.38c0.85-0.91,1.48-1.91,1.9-3.01c0.42-1.1,0.63-2.26,0.63-3.5&#xD;&#xA;&#x9;&#x9;c0-1.42-0.3-2.74-0.9-3.98c-0.6-1.24-1.52-2.31-2.77-3.23c-1.25-0.92-2.82-1.64-4.73-2.17c-1.91-0.53-4.16-0.79-6.75-0.79h-22.9&#xD;&#xA;&#x9;&#x9;v0.54l4.4,3.95v38.58h16.32c3.03,0,5.74-0.2,8.11-0.61c2.37-0.41,4.38-1.07,6.02-1.99c1.64-0.92,2.88-2.1,3.74-3.56&#xD;&#xA;&#x9;&#x9;c0.86-1.46,1.29-3.22,1.29-5.3C288.11,224.21,287.85,222.91,287.34,221.69z M278.5,228.96c-0.4,1.13-1.01,2.1-1.84,2.89&#xD;&#xA;&#x9;&#x9;c-0.83,0.79-1.89,1.4-3.18,1.82c-1.29,0.42-2.83,0.63-4.63,0.63h-7.89v-37.54h7.8c1.58,0,2.93,0.2,4.05,0.6&#xD;&#xA;&#x9;&#x9;c1.12,0.4,2.03,0.97,2.73,1.69c0.7,0.72,1.21,1.59,1.54,2.6c0.33,1.01,0.49,2.12,0.49,3.34c0,1.2-0.16,2.31-0.49,3.34&#xD;&#xA;&#x9;&#x9;c-0.33,1.03-0.85,1.92-1.54,2.67c-0.7,0.75-1.6,1.34-2.7,1.77c-1.1,0.43-2.41,0.64-3.93,0.64h-3.35v2.77h3.67&#xD;&#xA;&#x9;&#x9;c1.74,0,3.23,0.21,4.48,0.63c1.25,0.42,2.27,1.02,3.06,1.8c0.79,0.77,1.37,1.71,1.75,2.82c0.38,1.11,0.57,2.34,0.57,3.69&#xD;&#xA;&#x9;&#x9;C279.1,226.54,278.9,227.82,278.5,228.96z"/>
    <path d="M358.49,216.72c1.66-0.26,3.25-0.67,4.77-1.24c1.53-0.57,2.87-1.32,4.04-2.26c1.17-0.94,2.1-2.09,2.8-3.46&#xD;&#xA;&#x9;&#x9;c0.7-1.37,1.05-3,1.05-4.89c0-1.62-0.34-3.09-1.02-4.43c-0.68-1.34-1.68-2.48-3.01-3.44c-1.33-0.96-2.98-1.69-4.97-2.21&#xD;&#xA;&#x9;&#x9;c-1.99-0.52-4.29-0.78-6.93-0.78h-22.83v0.54l4.4,3.95v38.59l8.32-0.01v-40.3h7.54c1.76,0,3.25,0.19,4.48,0.58&#xD;&#xA;&#x9;&#x9;c1.23,0.39,2.22,0.95,2.98,1.67c0.76,0.72,1.31,1.6,1.66,2.63c0.35,1.03,0.53,2.17,0.53,3.43c0,1.4-0.18,2.66-0.54,3.78&#xD;&#xA;&#x9;&#x9;c-0.36,1.12-0.93,2.08-1.71,2.87c-0.78,0.79-1.78,1.41-2.99,1.86c-1.22,0.45-2.67,0.7-4.37,0.75l-3.34,0.02v2.8h3.07&#xD;&#xA;&#x9;&#x9;c0.34,0,0.68,0,1.03,0s0.69-0.01,1.03-0.03l7.43,14.69c1.63,3.21,4.92,5.24,8.53,5.24h6.31v-0.54l-4.61-3.56l-7.99-13.56&#xD;&#xA;&#x9;&#x9;c0,0-1.45-0.24-3.26-1.11S358.67,216.78,358.49,216.72z"/>
    <path d="M327.55,232.61l-14.48-38.61h-10.24v0.54l3.17,4.97l-13.77,37.56h3.33l4.61-12.56h15.39l4.46,12.56h11.07v-0.54&#xD;&#xA;&#x9;&#x9;L327.55,232.61z M301.18,221.75l6.8-18.53l6.58,18.53H301.18z"/>
    <polygon points="223.49,223.56 198.72,194.01 194.64,194.01 190.95,194.01 190.95,237.07 199.51,237.07 199.51,207.83 &#xD;&#xA;&#x9;&#x9;224.15,237.07 232.05,237.07 232.05,194.01 223.49,194.01 &#x9;"/>
    <polygon points="420.57,194.01 408.59,194.01 408.59,194.55 412.99,198.5 412.99,223.53 389.09,194.01 378.33,194.01 &#xD;&#xA;&#x9;&#x9;378.33,194.55 382.73,198.5 382.73,237.07 385.7,237.07 385.92,237.07 385.92,203.17 413.22,237.07 416.08,237.07 416.17,237.07 &#xD;&#xA;&#x9;&#x9;416.17,198.5 420.57,194.55 &#x9;"/>
  </g>
</svg>