<?xml version="1.0" encoding="utf-8"?>
<!-- Generator: Adobe Illustrator 25.2.3, SVG Export Plug-In . SVG Version: 6.00 Build 0)  -->
<svg version="1.2" baseProfile="tiny-ps"
	xmlns="http://www.w3.org/2000/svg" viewBox="0 0 64 64">
	<title>Cherre, Inc</title>
	<rect x="0" y="0.2" fill="#FFFFFF" width="64.1" height="63.8" />
	<g id="Logo_Small">
		<g id="Logo-Copy" transform="translate(14.000000, 7.000000)">
			<path id="XMLID_102_" fill="#DF2467" d="M10.8,38.3c0-2.3,0.6-4.5,1.7-6.4l0.1-0.1c0,0,0-0.1,0.1-0.2c0.1-0.1,0.1-0.1,0.1-0.2    c0.2-0.3,0.4-0.5,0.5-0.7c-0.2,0.1-0.4,0.2-0.6,0.3l-0.3,0.2c-0.3,0.1-0.6,0.1-0.8,0L11.3,31c-1.9-1.1-4.2-1.1-6.1,0    c-0.8,0.4-1.5,1.1-2,1.8L3.1,33c0,0,0,0-0.1,0.1l-0.1,0.2c-0.9,1.5-1.3,3.2-1.3,5c0,5.6,4.7,10.2,10.4,10.2h0.1c0.1,0,0.1,0,0.1,0    c1.1,0,2.1-0.2,3-0.5C12.4,45.5,10.7,42,10.8,38.3z M12.4,38.3c-0.1,3.6,1.8,7.1,4.9,9.2c0.5,0.3,0.4,1.1-0.1,1.4    c-1.4,0.7-3.1,1.1-4.9,1.1H12C5.4,50,0,44.7,0,38.2c0-2,0.6-4.1,1.6-5.8l0.1-0.1c0.1-0.2,0.2-0.3,0.3-0.4c0.6-1,1.5-1.8,2.6-2.3    c2.3-1.3,5.2-1.4,7.6-0.1c1.3-0.7,2.7-1,4.1-0.9c0.8,0,1.1,1.1,0.4,1.5c-0.9,0.5-1.7,1.3-2.3,2.1c0,0.1-0.1,0.1-0.1,0.2    c-0.1,0.1-0.1,0.1-0.1,0.1l-0.1,0.2C12.9,34.4,12.4,36.3,12.4,38.3z" />
			<path id="XMLID_100_" fill="#DF2467" d="M35.4,38.2c0-1.7-0.4-3.4-1.2-4.8c0,0,0-0.1-0.1-0.2l0,0c-0.2-0.4-0.4-0.7-0.6-0.9    c-1.9-2.2-5.1-2.7-7.6-1.3l-0.3,0.2c-0.3,0.1-0.6,0.1-0.8,0L24.4,31c-1-0.6-2.1-0.8-3.3-0.8c-0.1,0-0.2,0-0.4,0    c-0.1,0-0.2,0-0.4,0.1c-0.2,0-0.3,0.1-0.4,0.1c-0.1,0-0.3,0.1-0.3,0.1c-0.3,0.1-0.4,0.2-0.6,0.2c-0.2,0.1-0.4,0.2-0.5,0.3    c-0.9,0.5-1.6,1.2-2.1,1.9L16.2,33c0,0,0,0-0.1,0.1L16,33.3c-0.8,1.5-1.3,3.3-1.3,5c0,1.7,0.4,3.3,1.2,4.7c0.9,1.6,2.1,3,3.6,3.9    c0.1,0,0.2,0.1,0.3,0.2c0.1,0,0.1,0.1,0.2,0.1c0.2,0.1,0.6,0.3,0.5,0.3c1.3,0.6,2.9,1,4.4,1h0.3C30.9,48.2,35.4,43.7,35.4,38.2z     M37,38.2c0,6.4-5.1,11.6-11.6,11.8H25c-1.8,0-3.5-0.4-5.1-1.1c0,0-0.4-0.2-0.4-0.2l0,0l-0.2-0.1c-0.1-0.1-0.2-0.1-0.2-0.1    c-0.1,0-0.1,0-0.1-0.1l-0.2-0.1c-1.8-1.1-3.3-2.6-4.3-4.5c-0.9-1.7-1.3-3.5-1.3-5.5c0-2,0.5-4.1,1.5-5.8l0.1-0.1    c0.1-0.2,0.2-0.3,0.3-0.4c0.6-1,1.5-1.8,2.6-2.4c0.2-0.1,0.4-0.2,0.7-0.3c0.2-0.1,0.3-0.1,0.6-0.3c0.2-0.1,0.4-0.1,0.6-0.2    c0.1,0,0.3-0.1,0.5-0.1l0,0c0.2,0,0.4-0.1,0.5-0.1c0.2,0,0.4,0,0.6,0c1.5-0.1,2.9,0.3,4.1,0.9c3.2-1.8,7.2-1,9.5,1.7    c0.3,0.3,0.5,0.7,0.8,1.1c0.1,0.1,0.2,0.3,0.2,0.6c0-0.1,0-0.3-0.1-0.3c0.1,0.1,0.1,0.2,0.1,0.3C36.5,34.4,37,36.3,37,38.2z" />
			<path id="XMLID_98_" fill="#DF2467" d="M27.3,32.7c-0.4,0-0.8-0.4-0.8-0.8c0-0.4,0.4-0.8,0.8-0.8c2.5,0,4.8,1.3,6.1,3.4    c0.6,1,0.9,2.2,0.9,3.4s-0.3,2.4-0.9,3.4c-0.2,0.4-0.7,0.5-1.1,0.3s-0.5-0.7-0.3-1.1c0.5-0.8,0.7-1.7,0.7-2.6s-0.2-1.8-0.7-2.6    C31,33.7,29.2,32.7,27.3,32.7z" />
			<path id="XMLID_97_" fill="#DF2467" d="M21.2,23.2c0.7,1.1,1.5,2.1,2.2,2.9c0.4,0.5,0.8,0.9,1,1c0.3,0.3,0.3,0.8,0,1.1    c-0.3,0.3-0.8,0.3-1.1,0c-0.1-0.1-0.2-0.2-0.3-0.3c-0.2-0.2-0.5-0.5-0.8-0.8c-0.8-0.9-1.6-2-2.4-3.1c-1.3-1.9-2.2-3.9-2.8-6    c-1.2,1.9-2.1,3.7-2.8,5.4c-0.5,1.2-0.8,2.3-1,3.2c-0.1,0.5-0.2,0.9-0.2,1.1c0,0.4-0.4,0.8-0.9,0.7c-0.4,0-0.8-0.4-0.7-0.9    c0-0.2,0.1-0.7,0.2-1.3c0.2-1,0.6-2.2,1.1-3.4c0.9-2.2,2.1-4.6,3.8-7c-0.2-1.4-0.2-2.8-0.1-4.3c0.5-3.6,1.6-6.4,3.3-8.6    c1.4-1.7,2.7-2.7,3.7-3C23.8,0,23.9,0,24.1,0c0.3,0.1,0.7,0.3,1.1,0.7c2.1,2,1.3,5.8-3.8,11.6c-1.2,1.4-2.2,2.7-3.2,4    C18.7,18.7,19.8,21,21.2,23.2z M20.3,11.2c4.6-5.2,5.2-8.1,3.9-9.4c-0.1-0.1-0.2-0.1-0.2-0.2c-0.2,0.1-0.4,0.2-0.6,0.4    c-0.7,0.5-1.5,1.2-2.1,2c-1.5,1.9-2.6,4.5-3,7.8C18,12.6,18,13.3,18,14C18.7,13.1,19.5,12.2,20.3,11.2z" />
		</g>
	</g>
</svg>