<?xml version="1.0" encoding="utf-8"?>
<!-- Generator: Adobe Illustrator 27.0.1, SVG Export Plug-In . SVG Version: 6.00 Build 0)  -->
<svg version="1.2" baseProfile="tiny-ps" id="Layer_1" xmlns="http://www.w3.org/2000/svg" xmlns:xlink="http://www.w3.org/1999/xlink"
	 viewBox="0 0 64.3 64" xml:space="preserve">
<title>Surfshark</title>
<path fill-rule="evenodd" fill="#178A9E" d="M40.3,12.6c0,0-0.1,0-0.1,0h-8.9c-5.8,0.3-8.2,3.7-8.9,5.5c-2.6,7.8-5,23.1-5.3,25.3
	c-0.3,2.1-0.4,3.4-0.4,3.4c0,0.5,0,1.1,0.2,1.7c0.7,2.1,2.9,3.8,7.6,2.1c4.5-2,9.7-4.4,15.2-7.2c2.2-1.3,5.1-3.8,6.7-7
	c0.7-1.3,1.1-2.8,1.2-4.3c0-0.2,0-0.5,0-0.8c0-3.7-0.1-7.6-0.3-11.3c0,0-0.2-2.4-0.3-3.3c-0.1-0.9-0.3-1.2-0.3-1.2
	c-0.8-1.7-2.2-2.5-3.8-2.9C42.1,12.7,41.2,12.7,40.3,12.6z M39.9,20.6c0-0.4-0.3-0.8-0.8-0.8h-0.4c-4.8,0-8.8,3.9-8.8,8.7v4.1
	c0,2.5-2,4.5-4.6,4.5h-0.4c-0.4,0-0.8,0.3-0.8,0.8v2.6c0,0.4,0.3,0.8,0.8,0.8h0.4c4.8,0,8.8-3.9,8.8-8.7v-4.1c0-2.5,2-4.5,4.6-4.5
	h0.4c0.4,0,0.8-0.3,0.8-0.8V20.6z"/>
</svg>
