<?xml version="1.0"?><svg version="1.2" baseProfile="tiny-ps" viewBox="0 0 300 300" xmlns="http://www.w3.org/2000/svg" xmlns:xlink="http://www.w3.org/1999/xlink"><title>Turtle Rock Studios</title><g><g fill="#fefefe" transform="matrix(.1 0 0 -.1 0 300)"><path d="M0 1500V0h3000v3000H0V1500z"/></g><g fill="#dadada" transform="matrix(.1 0 0 -.1 0 300)"><path d="M1375 2453c-44-4-187-25-339-50l-100-16-70-58c-39-31-105-80-146-108l-75-51-43-68c-58-90-93-165-99-211l-5-37-62-20-61-20-119-74-118-74 5-48c3-26 18-77 33-114l26-66-15-39-15-39h2675l11 53c6 28 14 70 18 92l6 40-54 75-53 75-80 20c-93 23-105 29-105 55 0 11-21 72-48 137l-48 118-69 73-70 74-65 43c-79 52-336 180-380 189l-32 6-30 25-30 25-201-2c-111-1-220-3-242-5zm449-88c105-34 150-59 207-112l49-46v15c0 8-6 20-12 27l-13 13 55-27c30-15 91-50 135-77l80-50 60-66c50-55 94-122 80-122-2 0-71 34-154 76l-150 77-27 39-27 39-13-30-13-31-45-22-46-22-38 13c-69 25-143 63-187 97l-45 34v-13c0-7 11-29 25-49s25-41 25-45c-1-13-39-52-132-136l-86-78-129 65c-124 62-213 118-213 134 0 4 23 21 51 37 28 17 56 36 62 44l12 14-30-7c-40-10-185-77-185-86 0-4 17-23 39-43l39-35-37-6c-20-3-59-6-87-6h-51l-24 18c-13 10-59 37-102 60l-79 42h-76l-56-61c-32-34-64-72-73-85-34-52-22-12 18 63 50 93 77 123 144 165 27 18 81 54 120 82l69 51h221l23-8 22-8v20l-47 15-48 15h40c22 1 88 8 146 17l107 15 92-30c50-17 95-31 101-31 21 0 7 17-24 28-18 6-42 18-52 27l-20 14 111 1h111l77-25zm453-390 82-49-16-18c-9-10-41-32-72-49s-66-41-79-52l-22-21-27 10-27 9-12 25c-6 14-23 61-38 105l-26 79 13 8c6 4 26 16 42 26l30 19 35-21c20-11 72-43 117-71zm-339 32 75-32 25-84 24-83-53-54-53-54h-15c-8 0-86 30-172 67l-157 67 97 108 96 108 29-5c16-3 63-20 104-38zM795 1795l72-45 7-37c3-21 6-45 6-54v-17l-26-6c-15-4-61-23-103-43l-76-36-72-2-73-1-29-22-29-21-32 9c-18 5-43 16-56 25l-23 15-18-6c-82-27-84-30-51-76l21-30-20 11c-51 26-83 85-86 153l-2 32 53 32c62 38 229 105 320 130 34 9 65 21 68 25 3 5 21 9 41 9h36l72-45zm621-130c37-19 139-62 228-96 183-69 194-75 219-118l18-31h-93l-19 24-19 24-47 6c-27 4-60 9-75 12l-26 5-7-20-6-21h-68l-11 39-10 39-15 6-15 5-5-22-6-23-32-12-32-12-33 34-34 33 16 30 15 30-12 12c-17 17-30 14-73-19-21-16-45-30-51-30h-13v16c0 8 14 29 30 46 34 34 37 43 13 34l-18-6 30 25 30 25h54l67-35zm1281-5 42-18 25-51 26-50-1-23-1-23-5 20c-3 11-26 42-51 68l-47 48-29-5c-16-4-39-14-50-24l-19-17 6 18c4 10 7 35 7 54v35l28-7c15-3 46-15 69-25zm-2285 10c-12-10-27-20-33-22l-12-4 22-42 21-42 24-6c31-7 54 0 88 28l26 23 6 36 6 36-37 7c-21 3-49 6-63 6l-25-1-23-19zm-242-405v-45h60l2-162 3-163 58-3 57-3v331h60v90H170v-45zm260-134V953l21-26 20-27 40-10 39-11 39 11 40 10 20 27 21 26v357H560V960h-20v350H430v-179zm280-30V890h110v180h19l3-87 3-88 53-3 52-3v181l-17 18-18 17 18 18 17 17v44c0 56-13 92-39 105l-20 11-90 7-91 6v-212zm130 89v-40h-20v80h20v-40zm127 114c-4-4-7-25-7-46v-38h70V890h110v329l33 3 32 3v80l-116 3-115 3-7-7zm253-204V890h180v90h-70v330h-110v-210zm200 0V890h190v90h-80v79l33 3 32 3v80l-32 3-33 3v69h70v90h-180v-210zm320 0V890h110v180h9c15 0 21-29 21-106v-74h100v190l-19 11-18 12 18 18 19 19v108l-18 22-18 23-50 8c-27 4-73 8-101 8l-53 1v-210zm135 110 6-20-6-20c-3-11-11-20-16-20h-9v80h9c5 0 13-9 16-20zm174 72-34-30V952l24-26 25-26 38-10 38-11 39 11 40 10 20 27 21 26v296l-24 27-23 28-65 4-65 4-34-30zm101-182V960h-20v280h20v-140zm178 181-33-29-3-111c-3-61-1-132 3-157l6-45 19-19c11-11 37-24 59-30l41-11 38 11 38 10 23 24 22 24 6 56 6 56h-123V960h-20v280h19l3-57 3-58 59-3 58-3-4 67-4 67-32 28-32 29h-120l-32-29zm252-181V890h110l1 73 1 72 10-35c5-19 14-52 19-72l10-38h109v13c0 8-14 59-30 114l-30 101 26 83c14 45 28 89 31 96l6 14-54-3-54-3-22-65-21-65-1 68-1 67h-110v-210zM170 810v-30h2690v60H170v-30zm772-90c-27-12-36-32-28-64l6-24 37-12c21-7 42-16 47-21l9-8-18-7-18-7-12 16-12 17h-53v-15c0-8 9-24 20-35l20-20h90l20 20 20 20v40l-20 20c-24 24-25 30-5 30h15v14c0 20-24 36-62 41l-33 5-23-10zm58-45c14-16 10-18-14-9-9 3-16 10-16 15 0 14 16 11 30-6zm794 41-31-14-11-31-11-32 6-30 6-30 25-19 25-20h78l24 25 25 24v43l-1 43-13 17c-13 17-57 38-79 38-7-1-26-7-43-14zm65-50 12-15-3-28-3-28h-50l-3 34-3 34 13 8c18 12 24 11 37-5zm128 53-27-11-6-24-6-25 17-19c9-10 30-22 46-25 16-4 31-11 35-16l5-9-17-7-16-6-10 16-9 17h-49v-37l18-16 19-17h83l20 20 20 20v49l-22 15-21 15 16 7c36 14 12 50-39 59l-29 4-28-10zm60-56c-2-2-12-1-21 3l-16 6 6 10 6 9 14-12c8-6 13-14 11-16zm-967 32v-25h50V540h60v129l28 3 27 3 3 23 3 22h-171v-25zm182-46 4-71 23-19 23-19h87l20 26 21 27v127h-59l-3-62-3-63-19-3-19-4-8 14c-5 7-9 37-9 66v52h-62l4-71zm208-19v-90h107l27 21 26 20v99l-20 20-20 20h-120v-90zm88 41 13-8-3-34-3-34-17-3-18-3v91h8c4 0 13-4 20-9zm102-41v-90h60v180h-60v-90z"/></g><g fill="#ababab" transform="matrix(.1 0 0 -.1 0 300)"><path d="M1385 2453c-44-4-187-25-338-49l-98-16-127-95c-70-52-140-105-157-117l-30-23-52-87c-52-86-83-159-83-195v-17l-53-17-54-17-84-51c-46-29-103-63-127-76l-42-25v-21c0-31 25-120 44-158 20-40 20-62 1-99l-16-30h2679l16 86 16 86-12 21c-6 12-29 48-51 80l-40 57-56 15c-31 9-72 20-91 25l-36 10-11 47c-6 27-28 88-49 138l-37 90-56 63c-31 35-85 85-121 112l-65 49-160 81-161 80h-41l-41 30-42 30-192-2c-106-1-211-3-233-5zm431-84c38-12 95-34 127-50l58-30 39-40c41-42 53-42 23 0l-16 24 79-43c134-74 187-111 252-176l63-64 15-36 15-36-23 7c-13 4-58 27-100 51s-99 52-125 62l-47 17-31 42c-34 48-41 51-50 23l-6-19-45-31-45-30-77 30c-79 30-152 72-184 104l-18 17v-11c0-6 14-31 30-56l31-44-59-57c-32-32-82-80-111-107l-53-49-91 44c-127 60-207 106-240 137l-28 26 43 23c24 12 54 32 68 43l25 22-30-7c-39-9-170-69-179-83l-6-10 40-35 41-34-32-7c-17-3-57-6-88-6h-56l-45 30c-25 16-50 30-56 30s-31 13-55 30l-44 30h-72l-26-20c-14-11-53-54-86-96-65-80-74-84-38-18 12 22 37 68 54 101l33 61 97 65c54 36 115 78 136 93l38 28 57 7 57 6 60-8c33-4 69-10 79-15l19-7-7 11c-4 6-28 18-54 26l-47 15h43c23 1 86 8 140 17l97 15 30-4c17-3 63-17 104-31 41-15 79-25 85-23l11 4-52 27c-29 14-53 29-53 31 0 3 49 5 109 5h109l68-21zm425-369c63-39 114-76 114-81 0-9-138-103-184-125l-14-7-26 14-25 14-33 95c-17 52-31 98-30 102 2 8 68 56 78 57 4 1 58-31 120-69zm-299 7 74-34 23-81 23-81-31-40c-18-22-44-49-59-59l-27-19-15 5c-8 2-76 30-150 62s-143 60-153 64l-19 6 39 43c21 24 65 74 98 111l60 67 31-5c18-2 65-20 106-39zM791 1800c38-22 70-44 73-48 3-5 8-31 11-58l7-50-48-18c-27-10-73-31-103-47l-55-29H533l-26-20c-32-25-41-25-103 4l-51 24-42-19c-22-10-41-21-41-25s12-23 26-42l27-34-19 10c-11 6-33 25-50 44l-32 33-15 52-14 52 21 19c50 44 227 123 348 155 30 8 64 19 74 25s34 12 53 12h35l67-40zm637-138c42-22 147-65 232-97l155-57 33-36c17-19 32-39 32-44v-8h-93l-23 25-23 25h-28c-16 0-44 4-63 10l-35 10-23-26-24-25-15 5c-8 3-19 6-23 6-5 0-14 18-20 40l-11 40h-28l-6-19-6-19-28-12-29-12-19 10c-10 6-27 20-37 31l-20 22 13 34 12 35-6 10c-10 16-22 12-76-25l-51-35-9 6c-16 9-10 23 29 66l37 42-20-7-20-7 28 25 28 25h59l78-38zm1332-58c10-23 23-45 29-48l11-7-1-47-1-47-14 47-15 47-50 41-49 42-41-20-41-21 6 31c3 17 6 41 6 53v22l71-25 71-25 18-43zm-2347 63c-38-25-38-26-19-71l14-34 30-6 29-7 37 22 36 21 6 27c3 14 8 34 11 44l4 17h-29c-16 0-42 2-58 5l-29 5-32-23zm1660-367c-12-5-30-21-40-36l-17-27-4-98c-3-55-1-120 3-145l7-47 28-29 28-28h103l28 14 27 15 12 26 12 26v258l-12 26-12 26-27 15-28 14-43-1c-24 0-53-4-65-9zm77-201V958l-12 4-13 5-3 114c-3 119 2 159 18 159h10v-141zm193 192-32-20-10-38-11-38v-90c0-49 5-108 10-130l9-40 26-22 26-23h115l23 16 23 17 14 33c8 18 14 49 14 69v35h-110v-89l-11-7-11-7-9 14-9 14v230l9 14 9 14 11-7 11-7v-110l53 3 52 3-1 63-1 64-26 26-26 26-58 3-58 4-32-20zm-2173-31v-40h70V889l53 3 52 3 3 163 2 162h60v80H170v-40zm260-134V951l24-27 23-28 66-4 66-4 31 30 30 30v352H560V960h-20v340H430v-174zm280-31V890h110v192l15-12 15-12V889l48 3 47 3 3 87 3 87-20 20-20 20 15 9 15 9 6 41c7 51-2 87-27 112l-20 20H710v-205zm136 110c7-28 0-55-16-55h-10v80h10c5 0 12-11 16-25zm124 55v-40h60V890h110v330h60v80H970v-40zm252-162 3-203h170v80l-32 3-33 3v319h-110l2-202zm198-3V889l93 3 92 3v80l-37 3-38 3v79h60v90h-60v70h70v80h-180v-205zm320 0V890h110v192l15-12 15-12V890h100v180l-19 19-19 19 19 16 19 16v91l-15 28c-19 38-31 41-136 41h-89v-205zm135 95v-33l-12-4-13-5v84l13-4 12-5v-33zm707-92 3-203 53-3 52-3 1 78 1 78 20-77 20-78h108v11c0 6-14 57-31 114l-32 102 31 92 31 91h-106l-21-67-20-68-1 68-1 67h-110l2-202zM180 810v-30h2680v60H180v-30zm746-106c-33-32-10-75 47-89 15-4 30-11 33-16l5-9-17-7-17-6-12 16-12 17h-21c-11 0-24-4-27-10l-6-10 25-25 25-25h72l24 25c31 30 31 40 0 70l-24 25h-20c-21 0-37 17-27 27 4 4 12 1 18-5l12-12h56v9c0 5-7 17-16 25l-15 16h-88l-15-16zm154-9v-25h50V540h60v130h50v50h-160v-25zm183 9c-3-8-3-41 0-72l6-57 22-17 21-18h76l23 19 23 19 4 71 4 71h-61l-3-62-3-63h-50l-3 63-3 62h-50l-6-16zm207-75v-91l60 4 59 4 21 19 20 18v97l-20 20-20 20h-120v-91zm84 45 16-6v-78h-40v45c0 48 0 48 24 39zm106-44v-90h60v180h-60v-90zm112 67-22-23v-85l25-24 24-25h82l24 25 25 24v78l-21 27-20 26h-96l-21-23zm93-62v-40l-26-3-27-3-6 26-6 25 10 21 11 20 22-3 22-3v-40zm100 65-18-20 11-25 11-24 41-12 40-12v-27h-41l-5 15-6 15h-48v-39l22-15 22-16h72l22 20 22 21v17c0 28-21 49-62 62-21 6-38 16-38 21 0 12 27 12 35-1 3-5 17-10 31-10h24v13c0 7-5 18-12 25l-12 12h-93l-18-20z"/></g><g fill="#7c7c7c" transform="matrix(.1 0 0 -.1 0 300)"><path d="M1400 2453c-40-3-116-14-385-55l-69-11-75-59c-41-33-107-82-147-109-81-54-85-59-154-179l-49-84-12-53-12-52-54-17-55-17-121-75c-67-41-124-77-126-79-8-6 21-118 41-163 23-49 23-71 3-113l-14-27 1337 2 1337 3 11 50c7 28 13 69 13 93l1 43-39 57c-21 31-47 64-57 73l-19 16-55 12c-30 7-67 17-82 23l-26 10-6 31c-3 18-26 81-50 141l-45 109-70 73c-90 93-151 134-340 228l-153 76h-44l-34 30-35 29-185-1c-102-1-205-3-230-5zm447-92 82-28 51-33c28-18 59-43 69-56 26-33 36-30 14 3l-18 27 90-48c125-67 203-123 256-181 48-52 85-113 75-123-3-3-73 28-154 69l-149 74-27 38-28 39-12-23c-6-13-29-36-51-51l-40-28-25 6c-41 9-186 80-226 111l-37 28 13-25c7-14 22-38 33-54l20-29-109-103c-60-57-115-104-122-104s-71 29-140 65l-127 64-43 37-43 37 41 23c44 25 97 64 87 64-14 0-140-50-168-67-38-22-37-36 6-69l35-26-6-9-5-9h-168l-50 30c-28 17-74 44-102 60l-50 30h-70l-51-52c-27-29-64-72-81-95-17-24-33-41-35-38-6 5 81 178 102 204 6 8 55 44 110 80 54 36 116 78 138 93l40 27 55 7 55 7 66-11c36-6 68-10 70-7 2 2-18 10-45 18l-48 15 35 1c19 1 86 9 148 18l113 17 37-11c20-6 65-20 100-31l62-20v9c0 5-6 9-12 9-7 0-31 11-53 25l-40 24 125 1h125l82-29zm398-362c63-39 115-75 115-80s-19-21-42-35c-24-15-68-44-99-64l-56-37-31 13-31 13-11 43c-6 24-20 69-32 101-11 32-18 60-15 64 13 12 72 52 79 53 5 0 60-32 123-71zm-299 9 70-29 22-74c12-41 22-81 22-88 0-17-74-103-101-117l-18-10-161 69c-89 38-163 71-165 73s39 51 91 108c52 58 94 108 94 112 0 9 65-10 146-44zM790 1804c33-20 67-46 75-58l15-20v-82l-90-38c-50-21-93-42-96-47l-5-9H533l-26-20c-14-11-34-20-44-20s-36 9-58 20c-47 24-67 25-106 5l-30-16 7-12c4-7 16-24 26-39 23-34 17-35-23-6-36 27-64 71-72 113-3 17-8 37-12 46l-6 17 57 36 58 36 115 44c157 61 229 83 273 85l37 1 61-36zm645-143c27-16 124-57 215-91 90-34 170-65 177-68 6-4 23-24 37-44l25-38h-102l-23 25-23 25h-33c-18 0-48 4-65 9l-32 9-20-26-19-27-27 10-28 10-11 34c-6 19-17 36-23 39l-13 4v-31l-30-16-31-16-18 6c-10 3-28 17-41 30l-24 25 13 36 13 36-10 10-10 10-58-35c-79-50-99-36-43 28l31 35h-35l37 29 36 29 42-10c24-5 65-22 93-37zm1252 7 52-19 31-56 30-57-1-45-1-46-16 53-17 52-45 39-44 38-21-5c-11-3-30-12-43-20l-23-15 3 56 3 57 20-6c11-4 43-15 72-26zm-2279-6c-33-20-34-27-9-68l19-31 27-7 26-7 28 20c38 27 47 41 54 79l7 32-63-1-62-1-27-16zm1655-371-32-20-5-23c-3-13-8-49-11-80l-6-58 7-81 7-81 22-26 22-26 60-4 60-4 34 30 34 30v302l-27 26-27 27-53 4-53 4-32-20zm87-192V958l-12 4-13 5-3 123c-3 127 0 150 18 150h10v-141zm198 195c-15-8-32-23-38-34l-10-19V951l23-27 24-27 55-5 55-4 31 16c39 20 47 36 56 104l7 52h-110l-3-47-3-48h-30v270h30l3-52 3-53h111l-7 58c-9 70-18 88-55 107l-29 15h-43l-43-1-27-15zm-2178-34v-40h70V900h100v320h70v80H170v-40zm260-131V959l10-20c6-10 24-26 40-34l29-15h82l28 14 27 15 12 26 12 26v329H560V960h-20v340H430v-171zm280-29V900h110v182l13-4 12-5 3-86 3-87h99v161l-23 23-22 22 20 16 20 16v114l-28 24-28 24H710v-200zm138 88 3-35-15-6-16-6v91l13-4 12-5 3-35zm122 72v-40h60V900h110v320h60v80H970v-40zm250-160V900h170v80h-60v320h-110v-200zm200 0V900h180v80h-70v90h60v70h-60v80h70v80h-180v-200zm320 0V900h110v182l13-4 12-5 3-86 3-87h99v169l-23 17-23 17 23 23 23 23v34c0 19-5 48-10 64l-11 30-25 12-25 11h-169v-200zm138 88 3-35-15-6-16-6v91l13-4 12-5 3-35zm702-88V900h110l1 78 1 77 18-70c11-38 19-73 19-77l1-8h112l-5 13c-2 6-17 56-33 110l-28 98 27 82c15 46 27 86 27 90s-21 7-48 7h-47l-22-72-21-73-1 73-1 72h-110v-200zM180 810v-30h2680v60H180v-30zm747-108c-10-10-17-26-17-35v-17l23-14c12-8 34-18 50-21l27-7v-28h-17c-9 0-24 7-33 15l-17 15-17-6c-23-9-20-30 6-48l22-16h62l22 16 23 16-3 31-3 31-25 12c-14 7-36 17-50 22l-25 10 19 8 20 8 4-12 4-12h58v8c0 5-8 16-18 25l-19 17h-80l-16-18zm153-2v-20h49l3-67 3-68h50l3 68 3 67h49v40h-160v-20zm190-48v-68l13-18 13-18 46-5 46-5 21 21 21 21v140h-50V592l-16-6-17-6-13 11-14 11v118h-50v-68zm200-23v-92l62 6 63 6 17 21 18 22v75l-21 27-20 26h-119v-91zm100 30 12-21-6-24-6-24h-40v90h29l11-21zm92-26 3-88h50l3 88 3 87h-62l3-87zm113 62-25-24v-77l15-21 16-22 34-7 35-6 29 12 28 11 12 25c6 14 11 38 11 55v30l-25 24-24 25h-82l-24-25zm93-59 3-39-13-8c-18-12-24-11-42 7l-16 15v23c0 12 6 28 12 34l13 13 20-3 20-3 3-39zm98 63-15-21 8-22 8-21 42-15 41-14v-26h-39l-9 16-9 16-22-7c-26-8-27-19-1-45l20-20h71l24 25c14 13 25 31 25 39v15l-26 20c-15 12-35 21-45 21s-21 5-24 11l-7 10 6 7 7 6 19-12c11-7 29-12 40-12h20v9c0 5-7 17-16 25l-15 16h-88l-15-21z"/></g><g fill="#4f4f4f" transform="matrix(.1 0 0 -.1 0 300)"><path d="M1385 2450c-44-5-125-15-180-24s-136-22-180-28l-80-12-70-56c-38-31-107-82-152-114l-82-57-24-42c-13-23-39-66-57-94l-33-53-16-61-16-62-40-12c-52-15-120-51-219-114-44-28-84-52-90-54l-10-3 17-70c10-38 26-86 36-107l19-38-8-31c-5-16-14-36-21-44l-12-14 1339 2 1338 3 13 60c7 33 12 76 12 95l1 35-50 67-49 67-38 10c-21 6-60 16-88 24l-50 13-12 44c-6 25-27 83-47 130s-36 90-36 96-39 49-87 96l-88 85-57 36c-76 49-341 177-366 177h-19l-38 30-38 30-171-1c-94-1-207-5-251-9zm445-82c92-29 154-63 208-111l47-41-29 32c-17 18-27 32-23 32 10 0 180-95 245-136 89-58 210-200 187-222-3-3-74 29-158 71l-152 77-24 37-23 36-13-29-13-29-44-23-45-23-80 31-80 30-58 41-58 41 16-26c9-14 25-38 34-53l17-26-109-104c-61-56-116-103-123-103-40 0-352 176-352 199 0 4 22 20 50 35 27 15 52 31 55 36l6 10h-12c-19 0-169-72-169-80 0-4 17-24 37-44 20-19 35-38 32-41-3-2-44-6-91-7l-85-3-39 26c-21 14-70 43-107 63l-68 36h-56l-59-62c-33-35-71-78-84-97l-24-34-4 11c-4 12 80 174 107 206 9 10 59 47 111 82s112 75 132 90l37 26 78 5 78 5 45-10c61-15 63-7 3 11l-48 15 40 1c22 1 75 8 118 16s100 15 125 15l47-1 83-28c45-16 82-27 82-25s-22 15-50 29c-27 14-50 29-50 33v8l123-4 122-3 65-21zm421-370 118-73-17-18c-9-10-44-34-77-52-33-19-71-44-84-56l-23-22-33 16-32 15-34 105-34 105 40 25c22 14 44 26 49 26 4 1 61-32 127-71zm-326 21c39-16 75-33 81-37s23-44 37-90l25-83-55-60c-30-32-60-59-66-59-14 0-318 130-331 141l-8 7 66 69c36 38 80 88 98 111l32 41 25-6c14-3 58-18 96-34zM802 1798l69-43 5-21c3-11 4-38 2-58l-3-37-75-30c-41-17-81-36-89-42l-14-12-88-5-88-6-19-17c-24-22-43-21-102 4l-49 21-35-12c-20-6-38-15-41-19-2-5 7-23 20-41 32-43 24-50-20-16-41 31-53 52-71 121l-14 50 23 19c36 31 182 97 311 142l121 42 44 1 44 1 69-42zm628-133c36-19 124-56 195-83 72-28 149-57 172-67l41-17 26-39 26-39h-109l-14 21-15 20-61 9c-33 5-65 11-71 15l-10 6-12-25-11-26h-55l-9 13c-6 6-15 25-20 41-5 17-15 32-21 34l-12 4v-41l-41-12-40-12-32 31-31 32 12 32 12 32-13 13-13 13-51-36-52-36-10 7c-19 11-12 30 22 65l32 33-25-7-25-7 40 35 40 36 35-6c19-3 64-21 100-39zm1240 11 65-24 33-57 32-57-1-47v-46l-18 50-17 51-39 37-40 36-18 1c-10 0-31-7-47-15l-30-16v111h8c4 0 36-11 72-24zm-2262-14c-33-20-34-27-9-68l19-31 26-5 26-5 35 24 35 24 6 27c3 15 7 33 10 40l3 12-62-1-62-1-27-16zm1667-366-30-13-13-27-12-27V953l24-26 24-26 27-7c14-3 45-4 67-1l41 6 26 25 26 26 3 133 3 132-10 27-11 28-32 20-33 20h-35c-19-1-49-7-65-14zm79-78c3-13 6-66 6-118s-3-105-6-117l-6-23h-28v280h28l6-22zm200 76-31-15-12-25-11-25V971l10-25 9-25 30-16 30-15h82l29 15c16 8 34 24 40 34l10 20v101h-100V960h-41l3 137 3 138 18 3 17 3v-111h100v111l-11 21-11 20-33 14c-19 8-49 14-67 14h-33l-31-16zm-2174-34v-40h60V900h100v320h70v80H180v-40zm250-125V971l11-25 12-25 32-16 33-15h73l28 14 27 15 12 26 12 26v329H570V985l-9-14-9-14-11 7-11 7v329H430v-165zm280-35V900h110v182l13-4 12-5 3-86 3-87h101l-3 86-4 86-22 18-23 18 22 14 22 15v115l-27 24-28 24H710v-200zm135 85v-38l-12-4-13-5v94l13-4 12-5v-38zm125 75v-40h60V900h110v320h60v80H970v-40zm260-160V900h160v80h-60v320h-100v-200zm190 0V900h180v80h-81l3 43 3 42 33 3 32 3v68l-32 3-33 3-3 38-3 37h71v80h-170v-200zm320 0V900h110v182l13-4 12-5 3-86 3-87h99v161l-23 23-22 22 20 16 20 16-1 57v58l-28 23-27 24h-179v-200zm135 85v-38l-12-4-13-5v94l13-4 12-5v-38zm705-85V900h110l1 78 1 77 20-77 20-78h107l-20 68c-11 37-25 86-31 109l-12 43 27 83c15 46 27 87 27 91v7l-47-3-47-3-22-70-22-70-1 73-1 72h-110v-200zM180 810v-30l1338 2 1337 3v50l-1337 3-1338 2v-30zm745-114-16-25 10-20 11-20 40-11 40-11v-29h-50v20h-51l3-17 3-17 25-14 25-13 33 5c19 3 40 10 48 17l14 11v56l-13 11c-8 6-28 14-46 17-17 4-34 11-37 15l-5 9 15 6 16 6 15-12 14-12 21 4 21 3-16 23-16 22h-89l-15-24zm155 5v-20l28-3 27-3 3-62 3-63h49v130h50v40h-160v-19zm190-49v-69l18-16c9-8 28-18 42-22l26-6 29 11c40 15 45 25 45 103v67h-50V591l-10-6c-6-3-19-3-30 0l-20 6v129h-50v-68zm200-17v-85h120l20 20 20 20v81l-25 24-24 25h-111v-85zm103 24 10-16-6-25-7-26-16-6c-9-3-20-4-25 0l-9 5v90l21-3c12-2 26-10 32-19zm87-23v-86h61l-3 83-3 82-27 3-28 3v-85zm115 59-25-24v-38l1-38 13-17c7-10 26-22 41-28l29-11 26 6c14 4 33 14 42 22l18 16 6 32 6 33-16 30c-17 34-33 42-82 42h-35l-24-25zm96-38 10-23-10-27-11-27h-18c-25 0-42 20-42 50s17 50 42 50h18l11-23zm107 52-18-10v-57l45-18 45-17v-27h-19c-11 0-23 5-26 10-6 10-55 14-55 4 0-3 4-13 10-23l9-19 34-6 35-6 25 9 26 10 11 21 11 21-15 24-16 24-35 7c-19 3-38 10-41 15l-5 9 16 6 16 7 12-12c13-13 57-15 57-3 0 5-8 16-18 25l-19 17h-34c-19 0-42-5-51-11z"/></g><g fill="#050505" transform="matrix(.1 0 0 -.1 0 300)"><path d="M1385 2443c-71-6-201-23-287-37l-157-25-60-49c-33-28-100-78-150-112l-90-62-32-56c-18-32-47-86-66-121l-33-63v-27c0-37-8-44-71-64l-56-17-99-61c-54-34-109-68-120-75l-21-13 9-53c5-29 21-78 34-109l25-56-15-38c-9-21-16-39-16-41s598-4 1329-4h1329l16 69c9 39 16 81 16 94v24l-49 70-49 70-49 12c-26 7-66 18-88 24l-40 12-9 30c-5 17-29 80-53 142l-44 112-62 67c-34 36-89 85-122 109l-60 43-165 81c-91 45-173 81-183 81s-34 12-53 28l-34 27h-147c-82 0-206-5-278-12zm435-69c77-22 168-69 215-112l40-37-25 29-25 29 20-7c33-12 176-93 236-133 87-58 216-210 196-230-7-6-68 21-139 62-54 32-158 78-158 70 0-1 43-29 95-60l95-58-17-19c-10-11-45-36-78-55s-70-44-83-56l-23-22-37 20-36 20-9 35c-8 31-34 107-52 151l-6 16 50 30 49 31 22-15 21-15-33 47-33 47-3-22-4-21-46-30c-25-16-52-29-60-29-25 0-163 62-213 96l-49 32 15-26c9-15 21-34 27-44l12-16-30-34c-16-18-68-68-115-110l-87-78-138 70c-129 64-214 120-214 140 0 4 25 22 56 40 31 17 54 34 51 36-7 8-153-55-166-70l-11-13 39-36c22-20 37-38 33-41-4-2-42-7-84-11l-77-7-48 28c-26 16-66 37-88 47s-48 25-57 34l-18 16-42-1-42-2-36-35c-20-20-57-62-81-95s-47-59-51-60c-11 0 19 77 41 108 10 15 25 43 34 62 18 44 61 84 142 135 35 22 90 58 121 80l56 40 86 4 85 3-13 8-13 8 49 6c27 3 83 11 124 16 41 6 96 10 122 10h47l51-20c69-27 82-25 37 5-20 14-37 28-37 32 0 3 57 2 128-1l127-7 55-15zm120-359 75-33 27-83 27-82-8-15c-15-27-104-112-118-112-7 0-75 27-151 59-75 32-147 62-159 66-13 3-23 11-23 16 0 6 44 60 98 120l97 109 30-6c17-4 64-21 105-39zM805 1797l70-42 8-49c10-61 6-72-30-80-15-4-61-23-102-42l-74-34H559l-34-14-35-15v-23l-27 6c-16 4-46 16-67 27l-39 20-44-16-43-17 31-44 30-44h-11c-5 0-32 21-59 48l-49 47-11 54-11 54 15 17c33 36 201 110 380 168l60 19 45 2 46 1 69-43zm610-123c27-15 133-59 235-98l185-72 27-39c15-22 27-43 28-47v-8h-97l-23 24-23 25-26 5c-14 3-47 7-73 11l-46 6-7-21-6-20h-57l-11 14c-7 8-16 27-20 42s-12 29-19 32l-12 4v-38l-35-17-36-17-41 38-40 38 15 31 16 30-11 11-11 11-51-35c-28-19-56-34-63-34h-13v38l26 31 26 31-19-6-18-6 40 37 40 36 35-5c19-3 57-18 85-32zm1250 6c72-25 81-32 111-93l25-48-3-47-3-47-13 45-14 45-41 43-41 42h-43l-27-21-26-20v121h8c5 0 35-9 67-20zm-1497 643c7-3 16-2 19 1 4 3-2 6-13 5l-19-1 13-5zm-760-666-26-22 16-35 17-34 25-6 25-6 33 19 34 20 9 24c5 13 9 33 9 44v19h-57l-58-1-27-22zm1676-361c-17-8-39-24-48-37l-16-23V962l26-31 25-30 36-7 35-7 39 12 39 12 18 26 17 27v271l-13 23-14 24-33 14c-42 17-71 17-111 0zm74-190 3-128-12-14-11-14-9 6-9 5v280l18-3 17-3 3-129zm206 190c-17-8-39-24-48-37l-16-23V983l11-31 10-30 36-17 36-17 46 5 45 5 28 31 28 31v100h-99l-3-52-3-53h-30l-3 143-3 142h41v-110h100v106l-16 23-17 23-33 14c-41 17-70 17-110 0zm-2184-36v-40h60V900h100v320h60v80H180v-40zm250-122V975l13-25 12-25 35-18 35-18 44 4 43 5 27 26 26 26 3 175 4 175H570V972l-13-11-14-11-6 7c-4 3-7 82-7 175v168H430v-162zm280-37V900h100v181l18-3 17-3 3-88 3-87h90l-3 92-3 92-22 12-23 11 25 11 25 12v118l-19 23-18 23-97 4-96 4v-201zm138 85-3-41-17-3-18-3v44c0 49 5 58 26 50l15-6-3-41zm122 74v-40h70V900h90v320h70v80H970v-40zm260-160V900h160v70h-60v330h-100v-200zm190 0V900h180v69l-37 3-38 3-3 48-3 47h71v70h-70v80h70v80h-170v-200zm330 1V900h90v180h40V900h91l-3 92-3 92-22 12-23 11 25 11 25 12v118l-19 23-18 23-92 4-91 4v-201zm128 85-3-41h-30l-3 33c-2 19-1 40 2 48l5 14 16-6 16-7-3-41zm712-86V900h100l1 83 1 82 21-82 21-83h104l-34 110-33 109 29 87c17 48 30 89 30 91s-20 3-45 3h-44l-25-77-24-78-1 78-1 77h-100v-200zM180 810v-20h2670v40H180v-20zm758-101-18-10v-57l28-10c15-6 35-13 45-16l18-6-3-17c-4-23-23-27-41-8-9 8-25 15-36 15h-21v-9c0-5 7-17 16-25l15-16h88l15 16c33 32 17 68-39 87-21 8-41 19-43 25l-4 12h21c11 0 23-4 26-10 3-5 15-10 26-10h19v29l-19 11c-25 13-71 12-93-1zm142-9v-20h60V550h40v130h60v40h-160v-20zm190-43v-63l16-22 15-22h96l16 18 17 19v133h-49l-3-67-3-68h-50l-3 68-3 67h-49v-63zm200-21v-86h119l21 28 22 27-5 39-5 39-16 15-15 16-61 4-60 4v-86zm104 28c17-43-1-84-36-84h-18v100h48l6-16zm96-29v-85h40v170h-40v-85zm122 75-22-9-10-26c-6-15-10-37-10-49v-23l21-27 20-26h96l17 19 17 19 1 43v43l-26 23-27 23-27-1c-15 0-37-4-50-9zm82-52 10-17-10-28-9-28-18-3-18-4-14 12-15 12v33c0 39 7 47 39 43l24-3 11-17zm102 46c-9-8-16-24-16-34v-19l22-15c12-9 30-16 39-16s21-6 28-13l11-13-12-12c-16-16-23-15-42 4l-16 15-20-3-21-3 16-22 16-23h97l11 14 12 15-3 28-3 28-45 16c-24 9-46 21-48 28l-4 11h50l4-11 4-11 24 4 25 3-22 23-23 22h-69l-15-16z"/></g></g></svg>