<?xml version="1.0" encoding="UTF-8"?>
<svg id="Layer_1" xmlns="http://www.w3.org/2000/svg" baseProfile="tiny-ps" version="1.2" viewBox="0 0 900 900">
  <!-- Generator: Adobe Illustrator 29.0.1, SVG Export Plug-In . SVG Version: 2.1.0 Build 192)  -->
<title>Qlik</title>
  <g>

    <rect x="444.9" y="317.4" width="27.6" height="264.1" fill="#54565a"/>
    <g>
      <rect x="520" y="397" width="27.5" height="184.5" fill="#54565a"/>
      <circle cx="534" cy="336.2" r="18.8" transform="translate(116.6 809.4) rotate(-80.8)" fill="#54565a"/>
    </g>
    <polygon points="740.7 397 702.4 397 622.9 466.6 622.8 317.4 595.3 317.4 595.3 581.5 622.8 581.5 622.8 496.3 704.4 581.5 742.6 581.5 645.3 482.8 740.7 397" fill="#54565a"/>
    <g>
      <path d="M258.2,560.2c-60.9,0-110.2-49.3-110.2-110.2s8.9-49.6,23.8-68.4l-20.1-20.4c-20.1,24.1-32.2,55-32.2,88.8,0,76.6,62.1,138.7,138.7,138.7s63.6-11.7,87.5-31.1l-20.1-20.4c-18.7,14.4-42,23-67.4,23Z" fill="#54565a"/>
      <path d="M364.8,538.3l1.6-1.6c19-23.7,30.4-53.9,30.4-86.7,0-76.6-62.1-138.7-138.7-138.7s-63.3,11.5-87.1,30.8c-6.9,5.6-13.2,11.7-18.9,18.5-.2.2-.3.4-.5.6l20.1,20.4c.2-.2.3-.4.5-.7,5.5-6.9,11.9-13,18.9-18.4,18.6-14.2,41.8-22.7,67-22.7,60.9,0,110.2,49.3,110.2,110.2s-8.8,49.3-23.5,68c-5.3,6.8-11.4,12.9-18.2,18.3-.4.3-.7.5-1.1.8l20.1,20.4,23.7,24h38.2l-42.7-43.2Z" fill="#069948"/>
    </g>
  </g>
  <path d="M768,583.9c-1.8,0-3.5-.3-5.1-1s-3-1.6-4.2-2.8-2.1-2.6-2.8-4.2-1-3.3-1-5.1.3-3.5,1-5.1,1.6-3,2.8-4.2,2.6-2.1,4.2-2.8c1.6-.7,3.3-1,5.1-1s3.5.3,5.1,1,3,1.6,4.2,2.8,2.1,2.6,2.8,4.2,1,3.3,1,5.1-.3,3.5-1,5.1-1.6,3-2.8,4.2-2.6,2.1-4.2,2.8c-1.6.7-3.3,1-5.1,1ZM768,581.5c2,0,3.7-.5,5.3-1.4,1.6-1,2.9-2.2,3.8-3.8s1.4-3.4,1.4-5.3-.5-3.7-1.4-5.3-2.2-2.9-3.8-3.8c-1.6-1-3.4-1.4-5.3-1.4s-3.7.5-5.3,1.4c-1.6,1-2.9,2.2-3.8,3.8s-1.4,3.4-1.4,5.3.5,3.7,1.4,5.3,2.2,2.9,3.8,3.8,3.4,1.4,5.3,1.4ZM763.6,576.7v-12h5.8c.6,0,1.2.1,1.8.4s1,.7,1.4,1.3c.4.6.6,1.2.6,2.1s-.2,1.5-.6,2.1c-.4.6-.9,1-1.5,1.4s-1.2.5-1.8.5h-4.5v-1.6h3.9c.6,0,1.1-.2,1.5-.6s.7-1,.7-1.7-.2-1.3-.7-1.6-.9-.5-1.4-.5h-3v10.4h-2.2v-.2ZM770.6,571.1l3,5.6h-2.3l-2.9-5.6h2.2Z" fill="#55575b"/>
</svg>