<?xml version="1.0" encoding="UTF-8" standalone="yes"?>
<svg stroke-miterlimit="10" version="1.2" viewBox="0 0 275 275" xml:space="preserve" fill-rule="nonzero" stroke-linecap="round" stroke-linejoin="round" baseProfile="tiny-ps" xmlns="http://www.w3.org/2000/svg">
  <title>NCM Associates, Inc.</title>
  <g id="NCM">
    <path d="M48.47 97.72C55.47 98.02 56.33 103.39 56.33 111.61L56.33 127.33C62.4323 129.05 68.6428 130.36 74.92 131.25L74.92 101.46C74.92 87.28 66.63 81.3 56.33 81.3C52.04 81.3 43.75 82.49 39.6 92.2L39.31 92.2L39.31 83.54L20.73 83.54L20.73 106.05C21.5 107.29 26.25 114.24 39.32 120.82L39.32 111.9C39.32 103.84 41.75 97.72 48.04 97.72C48.04 97.72 48.47 97.72 48.47 97.72Z" fill="#002c73" fill-rule="nonzero" stroke="none"/>
    <path d="M39.32 137.6C32.7476 135.256 26.5006 132.083 20.73 128.16L20.73 167.73L39.32 167.73L39.32 137.6L39.32 137.6Z" fill="#002c73" fill-rule="nonzero" stroke="none"/>
    <path d="M56.33 167.74L74.92 167.74L74.92 144.68C68.6796 144.255 62.4713 143.446 56.33 142.26L56.33 167.74C56.33 167.74 56.33 167.74 56.33 167.74Z" fill="#002c73" fill-rule="nonzero" stroke="none"/>
    <path d="M111.2 170C130.2 170 137.48 160.27 137.48 142.59L137.48 139.5C131.98 140.59 126.21 141.64 120.13 142.66C120.13 142.66 119.46 142.78 118.26 142.97C117.69 149.53 117.44 154.87 111.65 155.02C107.33 154.39 105.19 152.59 104.6 144.52C99.16 144.95 92.6 145.24 85.4 145.14C86.73 162.63 96.06 170 111.2 170L111.2 170Z" fill="#002c73" fill-rule="nonzero" stroke="none"/>
    <path d="M104.45 133.15L104.45 111.15C104.45 102.61 105.19 96.02 111.68 96.02C115.81 96.02 118.03 98.57 118.32 103.21L118.32 112.65L137.51 112.65L137.51 105.46C137.52 93 130.43 81 111.2 81C96.73 81 85.2 87.14 85.2 110.51L85.2 132.43C90.52 132.9 96.25 133.19 102.43 133.25L104.43 133.15L104.43 133.15L104.45 133.15Z" fill="#002c73" fill-rule="nonzero" stroke="none"/>
    <path d="M233.94 104.91C228.483 108.856 222.664 112.275 216.56 115.12L216.56 167.74L233.94 167.74L233.94 104.91L233.94 104.91Z" fill="#002c73" fill-rule="nonzero" stroke="none"/>
    <path d="M164.97 133.26C159.57 134.66 153.76 136.04 147.59 137.38L147.59 167.74L164.97 167.74L164.97 133.26L164.97 133.26Z" fill="#002c73" fill-rule="nonzero" stroke="none"/>
    <path d="M215.5 81.3C206.95 81.3 201.5 84.88 198.12 92.2L197.85 92.2C196.78 84.44 188.63 81.3 182.21 81.3L181.81 81.3C176.2 81.6 169.11 82.94 165.23 92.2L164.96 92.2L164.96 83.54L147.59 83.54L147.59 127.6C153.09 126.6 158.92 125.36 164.97 123.93L164.97 112.35C164.97 103.09 165.37 96.35 173.53 96.23L173.8 96.23C181.55 96.23 182.09 102.5 182.09 109.81L182.09 119.44C187.81 117.78 193.63 115.93 199.47 113.86L199.47 112.35C199.47 102.5 200.81 96.68 208.29 96.23L208.96 96.23C214.75 96.23 216.18 101.23 216.49 107.17C222.38 104.62 228.23 101.82 233.94 98.75C233.75 89.95 228.12 81.3 215.51 81.3L215.51 81.3L215.5 81.3Z" fill="#002c73" fill-rule="nonzero" stroke="none"/>
    <path d="M199.46 122.45C194.31 124.45 188.56 126.45 182.08 128.45L182.08 167.77L199.46 167.77L199.46 122.45L199.46 122.45Z" fill="#002c73" fill-rule="nonzero" stroke="none"/>
    <path d="M254.81 92.33L249.43 92.28L248.06 87.85L246.16 92.38L241.41 92.33L245.32 95.44L243.89 100.19L248.01 97.55L252.49 100.09L250.7 95.34L254.81 92.33L254.81 92.33Z" fill="#002c73" fill-rule="nonzero" stroke="none"/>
    <path d="M23.66 182.26L26.2 182.26L29.5 193.8L26.91 193.8L26.33 191.42L23.1 191.42L22.53 193.8L20.2 193.8L23.66 182.26L23.66 182.26ZM25.86 189.43L24.69 184.7L23.57 189.43L25.85 189.43L25.86 189.43Z" fill="#002c73" fill-rule="nonzero" stroke="none"/>
    <path d="M52.07 184.77L49.97 185.57C49.8399 184.76 49.1501 184.159 48.33 184.14C48.0056 184.124 47.6885 184.24 47.45 184.46C47.2405 184.649 47.1207 184.918 47.12 185.2C47.1102 185.507 47.2524 185.799 47.5 185.98C48.0053 186.295 48.5456 186.55 49.11 186.74C49.7193 186.954 50.3056 187.229 50.86 187.56C51.2787 187.839 51.6222 188.217 51.86 188.66C52.1286 189.157 52.263 189.715 52.25 190.28C52.2816 191.282 51.8766 192.249 51.14 192.93C50.3085 193.641 49.2321 194 48.14 193.93C46.1957 194.04 44.4766 192.678 44.14 190.76L46.35 190.13C46.4178 191.104 47.2236 191.862 48.2 191.87C48.5859 191.889 48.9657 191.768 49.27 191.53C49.5401 191.311 49.6919 190.978 49.68 190.63C49.681 190.349 49.5777 190.079 49.39 189.87C49.0077 189.541 48.5567 189.302 48.07 189.17C47.379 188.944 46.7097 188.656 46.07 188.31C45.624 188.042 45.2553 187.663 45 187.21C44.7138 186.715 44.5685 186.151 44.58 185.58C44.5448 184.628 44.907 183.704 45.58 183.03C46.2896 182.349 47.2471 181.987 48.23 182.03C49.9803 181.85 51.5898 183.004 51.98 184.72L51.98 184.72L52.07 184.77Z" fill="#002c73" fill-rule="nonzero" stroke="none"/>
    <path d="M75.46 184.77L73.36 185.57C73.2299 184.76 72.5401 184.159 71.72 184.14C71.3956 184.124 71.0785 184.24 70.84 184.46C70.6305 184.649 70.5107 184.918 70.51 185.2C70.5025 185.509 70.6486 185.801 70.9 185.98C71.4053 186.295 71.9456 186.55 72.51 186.74C73.1193 186.954 73.7055 187.229 74.26 187.56C74.6784 187.839 75.0218 188.217 75.26 188.66C75.5286 189.157 75.663 189.715 75.65 190.28C75.6816 191.282 75.2766 192.249 74.54 192.93C73.7085 193.641 72.6321 194 71.54 193.93C69.5957 194.04 67.8766 192.678 67.54 190.76L69.75 190.13C69.8178 191.104 70.6236 191.862 71.6 191.87C71.9859 191.889 72.3657 191.768 72.67 191.53C72.9401 191.311 73.0919 190.978 73.08 190.63C73.081 190.349 72.9777 190.079 72.79 189.87C72.4075 189.541 71.9566 189.302 71.47 189.17C70.7791 188.943 70.1097 188.656 69.47 188.31C69.024 188.042 68.6553 187.663 68.4 187.21C68.1138 186.715 67.9685 186.151 67.98 185.58C67.9448 184.628 68.307 183.704 68.98 183.03C69.6896 182.349 70.6471 181.987 71.63 182.03C73.3815 181.845 74.9938 183.002 75.38 184.72L75.38 184.72L75.46 184.77Z" fill="#002c73" fill-rule="nonzero" stroke="none"/>
    <path d="M99.75 188C99.75 191.967 98.3567 193.95 95.57 193.95C94.3302 194.024 93.141 193.448 92.43 192.43C91.6397 191.093 91.2704 189.55 91.37 188C91.37 184.04 92.7633 182.06 95.55 182.06C96.7757 181.994 97.9509 182.555 98.67 183.55C99.4748 184.888 99.8484 186.442 99.74 188L99.74 188L99.75 188ZM97.08 188C97.1518 186.95 97.0297 185.896 96.72 184.89C96.5266 184.423 96.0707 184.118 95.565 184.118C95.0593 184.118 94.6034 184.423 94.41 184.89C94.1015 185.893 93.9795 186.943 94.05 187.99C93.9846 189.03 94.1065 190.073 94.41 191.07C94.5958 191.546 95.0543 191.859 95.565 191.859C96.0757 191.859 96.5342 191.546 96.72 191.07C97.0361 190.062 97.1616 189.004 97.09 187.95L97.09 187.95L97.08 188Z" fill="#002c73" fill-rule="nonzero" stroke="none"/>
    <path d="M121.66 189.6L124 189.74C123.964 190.863 123.544 191.939 122.81 192.79C122.099 193.59 121.07 194.033 120 194C118.72 194.067 117.496 193.47 116.76 192.42C115.947 191.12 115.556 189.601 115.64 188.07C115.554 186.531 115.941 185.002 116.75 183.69C117.5 182.631 118.744 182.033 120.04 182.11C122.447 182.11 123.757 183.597 123.97 186.57L121.65 186.74C121.59 185.027 121.053 184.17 120.04 184.17C119.496 184.182 119.006 184.505 118.78 185C118.386 186.022 118.225 187.118 118.31 188.21C118.237 189.206 118.384 190.207 118.74 191.14C118.974 191.639 119.479 191.952 120.03 191.94C120.957 191.94 121.5 191.167 121.66 189.62L121.66 189.62L121.66 189.6Z" fill="#002c73" fill-rule="nonzero" stroke="none"/>
    <path d="M140.03 182.26L142.57 182.26L142.57 193.8L140.03 193.8L140.03 182.26L140.03 182.26Z" fill="#002c73" fill-rule="nonzero" stroke="none"/>
    <path d="M161.32 182.26L163.87 182.26L167.2 193.8L164.61 193.8L164.03 191.42L160.78 191.42L160.2 193.8L157.87 193.8L161.33 182.26L161.33 182.26L161.32 182.26ZM163.52 189.43L162.35 184.7L161.2 189.44L163.48 189.44L163.52 189.43Z" fill="#002c73" fill-rule="nonzero" stroke="none"/>
    <path d="M181.07 182.26L188.26 182.26L188.26 184.42L185.9 184.42L185.9 193.8L183.36 193.8L183.36 184.42L181.07 184.42L181.07 182.26L181.07 182.26Z" fill="#002c73" fill-rule="nonzero" stroke="none"/>
    <path d="M203.67 182.26L210.69 182.26L210.69 184.24L206.21 184.24L206.21 186.92L209.69 186.92L209.69 188.89L206.21 188.89L206.21 191.73L210.69 191.73L210.69 193.8L203.67 193.8L203.67 182.26L203.67 182.26Z" fill="#002c73" fill-rule="nonzero" stroke="none"/>
    <path d="M233.53 184.77L231.43 185.57C231.3 184.76 230.61 184.159 229.79 184.14C229.466 184.124 229.149 184.24 228.91 184.46C228.701 184.649 228.581 184.918 228.58 185.2C228.572 185.509 228.719 185.801 228.97 185.98C229.475 186.295 230.016 186.55 230.58 186.74C231.189 186.954 231.776 187.229 232.33 187.56C232.75 187.837 233.094 188.215 233.33 188.66C233.599 189.157 233.734 189.715 233.72 190.28C233.752 191.282 233.347 192.249 232.61 192.93C231.778 193.641 230.702 194 229.61 193.93C227.666 194.04 225.947 192.678 225.61 190.76L227.82 190.13C227.888 191.104 228.694 191.862 229.67 191.87C230.056 191.889 230.436 191.768 230.74 191.53C231.01 191.311 231.162 190.978 231.15 190.63C231.151 190.349 231.048 190.079 230.86 189.87C230.478 189.541 230.027 189.302 229.54 189.17C228.849 188.944 228.18 188.656 227.54 188.31C227.094 188.042 226.725 187.663 226.47 187.21C226.184 186.715 226.039 186.151 226.05 185.58C226.016 184.628 226.378 183.705 227.05 183.03C227.76 182.349 228.717 181.987 229.7 182.03C231.45 181.85 233.06 183.004 233.45 184.72L233.45 184.72L233.53 184.77Z" fill="#002c73" fill-rule="nonzero" stroke="none"/>
    <path d="M244.43 159.28C246.77 159.357 248.612 161.303 248.559 163.644C248.506 165.984 246.579 167.846 244.238 167.817C241.897 167.789 240.016 165.881 240.02 163.54C240.033 162.392 240.504 161.296 241.328 160.496C242.152 159.696 243.262 159.259 244.41 159.28L244.41 159.28L244.43 159.28ZM244.38 160.14C242.502 160.154 240.991 161.687 241.005 163.565C241.019 165.443 242.552 166.954 244.43 166.94C245.317 166.938 246.164 166.574 246.776 165.932C247.388 165.29 247.711 164.426 247.67 163.54C247.7 162.652 247.369 161.79 246.753 161.149C246.137 160.509 245.288 160.145 244.4 160.14L244.4 160.14L244.38 160.14ZM243.73 165.75L242.73 165.75L242.73 161.52C243.27 161.412 243.819 161.359 244.37 161.36C244.887 161.311 245.406 161.43 245.85 161.7C246.119 161.925 246.274 162.259 246.27 162.61C246.238 163.105 245.877 163.516 245.39 163.61L245.39 163.66C245.816 163.821 246.117 164.207 246.17 164.66C246.209 165.01 246.314 165.349 246.48 165.66L245.42 165.66C245.255 165.347 245.14 165.009 245.08 164.66C245.061 164.451 244.955 164.259 244.787 164.131C244.62 164.004 244.407 163.953 244.2 163.99L243.73 163.99L243.73 165.68L243.73 165.68L243.73 165.75ZM243.73 163.36L244.2 163.36C244.75 163.36 245.2 163.18 245.2 162.74C245.2 162.3 244.91 162.09 244.29 162.09C244.109 162.085 243.927 162.102 243.75 162.14L243.75 163.36L243.75 163.36L243.73 163.36Z" fill="#002c73" fill-rule="nonzero" stroke="none"/>
  </g>
</svg>
