<svg xmlns="http://www.w3.org/2000/svg" xmlns:xlink="http://www.w3.org/1999/xlink" version="1.2" viewBox="0 0 500 500" baseProfile="tiny-ps">
  <title>Wolt</title>
  <rect width="500" height="500" fill="#FFFFFF"/>
  <path d="M250,476.5c125.1,0,226.5-101.4,226.5-226.5S375.1,23.4,250,23.4S23.5,124.9,23.5,250  S124.9,476.5,250,476.5" fill="#00C2E8"/>
  <path d="M212.2,191.4c-3.7,0-6.9,0.1-8.6,0.3c-3.2,0.3-4.3,3.4-4.1,6.4c3,43.6-7,94.2-17.9,94.1  c-8.1-0.1-10.2-23.8-10-44.9c0.1-12.5,0.9-24.5,1.3-35c0.1-3.9-1.3-4.7-4.1-5c-3.9-0.6-7.8-0.5-11.7,0.3c-3.3,0.7-4.1,3.4-7.6,11.5  c-17.5,40.5-34.2,73.1-34.2,73.1c-4.1-32.8,1.8-64.5,6.8-87.7c0.7-3.2-0.8-5.1-3.4-5.1c-4.9,0-12.5,0.1-16,2.4  c-3.2,2.1-4.4,4.3-5.4,8.9c-5.5,26.5-9.3,59.8-4.1,85.6c1.1,5.6,2.4,6.9,4.7,8.4s12.4,2.9,16.3,2.9c4.4,0,8.5-1.1,11.9-6.9  c7.3-12.2,13.1-24.4,24.2-48c0.9,30.8,5,55,26.6,55.2c28.7,0.2,47.8-71.2,48.1-105.7C225,193.1,220.5,191.5,212.2,191.4" fill="#FFFFFF"/>
  <path d="M254.3,296.6c-6.4,0-10.6-5.6-10.5-16.5c0.2-20.9,7.8-43.3,21.1-43.1c1.4,0,2.7,0.2,4,0.7  c-0.2,0.8-0.4,1.5-0.5,1.9c-2.1,11.8,0.3,19.4,5.9,23.6C271.4,281.4,263.1,296.7,254.3,296.6 M407.7,231.1c0,0-9.7-0.6-20.8-1.2  c0,0,2.4-12.4,3.5-17.4c0.6-2.5-0.7-4.9-3.8-5.7s-10.2-0.9-12.6-0.6c-2.1,0.1-3.8,1.5-4.4,3.5c-1.2,5.2-2.4,11.4-3.9,19.4  c-4.1-0.1-8.2-0.2-11-0.2c-2.2-0.2-4.1,1.4-4.4,3.5c-0.7,2.7-1.1,5.5-1.2,8.4c-0.1,2.4,2.5,3.6,5.2,3.5l8.5-0.3  c-1,4.5-3,16.7-3.8,24.2c-4.8,15.7-14.6,27.2-23,27.1c-5.1,0-8.1-3.1-8.1-12.3c0.1-12.8,3.2-28.9,7.6-45c6.1-14.5,9.8-30.6,9.8-37.9  c0-2.8-0.8-5.8-4.1-6.5c-5.9-1.2-11.6-1.1-15.6,0.1c-3.6,1.1-4.3,4.8-4.8,6.8c-2.1,9.5-5.6,26.4-8.1,41.2  c-5.3,6.3-11.3,10.6-17.8,11.7c-0.8-19.6-12.2-28.2-27.9-28.3c-27.6-0.2-45.5,24.2-45.7,51.9c-0.2,22.4,11.9,31.9,29.7,32  c21,0.2,36.8-14.6,42.8-41.9c5.8-1.2,11.2-4,15.6-8c0,0-3.5,16.9-3.6,26.9c-0.1,15.1,6.3,23.5,21.5,23.7  c12.5,0.1,23.5-8.6,30.4-19.3c1.7,14,9,19.6,20.9,19.7c10.9,0.1,21.5-6.7,29-19.2c1.5-2.5,2.6-4.7,1.7-5.8c-2.1-2.5-6.2-3.8-7.4-1.8  c-5,8.9-10.3,12.5-16,12.5c-4.5,0-8.2-2.8-8.1-10.6c0.1-11.3,6.7-41.9,6.7-41.9c5.6-0.2,11.8-0.3,17.8-0.4c5.2-0.1,8.9-1.6,9.8-6.5  C412.7,233.2,411,231.3,407.7,231.1" fill="#FFFFFF"/>
</svg>