<?xml version="1.0" encoding="UTF-8" standalone="yes"?>
<svg baseProfile="tiny-ps" version="1.2" viewBox="0 0 800 800" xmlns="http://www.w3.org/2000/svg">
  <title>Halcyon Tech Inc</title>
  <rect width="800" height="800" fill="#0c2340"/>
  <polyline points="640 640 160 640 160 160" fill="none"/>
  <path d="M255.92906,592c39.77143,29.48571,88.45713,46.62857,141.94287,46.62857s102.17144-17.14286,141.25713-46.62857c-5.48571-2.05714-10.97142-4.11428-15.77142-6.85714-24.68149-12.34074-48.6775-12.34285-73.3588-.00632-32.63031,16.30971-71.62356,16.3097-104.25387-.00001-24.68127-12.33652-48.67728-12.3344-73.35878.00634-5.48571,2.74287-10.28571,4.80001-15.77143,6.85714h-.6857Z" fill="#f44544"/>
  <path d="M633.75766,420.57143c-2.05716.6857-4.11428,2.05714-6.17144,2.74287-34.28571,17.14286-69.94286,17.14286-104.22858,0-24.6857-12.34285-48.6857-12.34285-73.37143,0-34.28571,17.14286-69.94286,17.14286-104.22858,0-24.68572-12.34285-48.68572-12.34285-73.37143,0-34.28571,17.14286-69.94286,17.14286-104.22857,0-2.05714-.6857-3.42857-2.05714-5.48571-2.74287,1.37143,15.77142,4.11429,31.54285,8.91429,45.94286,4.11429,1.37143,8.22857,3.42857,12.34286,5.48571,24.68571,12.34285,48.68572,12.34285,73.37143,0,34.28571-17.14286,69.94286-17.14286,104.22857,0,24.6857,12.34285,48.6857,12.34285,73.37143,0,34.28571-17.14286,69.94286-17.14286,104.22858,0,24.6857,12.34285,48.6857,12.34285,73.37141,0,4.11428-2.05714,8.22855-4.11428,13.02858-5.48571,4.11428-15.08572,7.54285-30.17144,8.91431-45.94286h-.6857Z" fill="#ff8400"/>
  <path d="M224.38621,564.57143c-13.71429-15.08572-26.05714-31.54285-35.65714-49.37143,27.42857,8.22858,55.54286,4.80001,82.97142-8.22858,24.6815-12.34074,48.67752-12.34285,73.3588-.00632,32.63032,16.30972,71.62356,16.30971,104.25387-.00001,24.68126-12.33652,48.67727-12.3344,73.35878.00634,27.42857,13.71429,55.54287,16.45715,83.65715,8.22858-9.60001,17.82856-21.94286,34.97142-35.65715,49.37143-10.79468,0-20.92557-3.319-31.69891-8.65076-32.49821-16.08347-70.994-17.83941-103.15097-1.08409-24.93028,12.98987-49.13265,13.42205-74.01451,1.29655-33.17904-16.1689-72.20023-16.96152-105.21702-.46384-10.96235,5.47761-21.24047,8.21694-31.5186,8.90214h-.68572Z" fill="#ff8400"/>
  <path d="M634.44336,384.93794c-7.54285,2.05714-14.39999,4.80001-21.94284,8.91428-24.6857,12.34285-48.6857,12.34285-73.37143,0-34.28571-17.14286-69.94286-17.14286-104.22858,0-24.6857,12.34285-48.6857,12.34285-73.37143,0-34.28571-17.14286-69.94286-17.14286-104.22857,0-24.68571,12.34285-48.68571,12.34285-73.37143,0-6.85714-3.42857-14.4-6.17144-21.25714-8.22858,6.85712-123.42856,109.71427-221.48571,235.19999-221.48571s228.34283,97.37143,236.57143,220.80001Z" fill="#ffac2f"/>
</svg>