<?xml version="1.0" encoding="utf-8"?>
<!-- Generator: Adobe Illustrator 27.9.0, SVG Export Plug-In . SVG Version: 6.00 Build 0)  -->
<svg version="1.2" baseProfile="tiny-ps" id="Layer_1" xmlns="http://www.w3.org/2000/svg" xmlns:xlink="http://www.w3.org/1999/xlink"
	 viewBox="0 0 360 360" xml:space="preserve">
<title>Epicor Software</title>
<rect fill="#085165" width="360" height="360"/>
<path fill="#FFFFFF" d="M261.6,188.4c0,0.3,0,0.6-0.1,0.8c-0.1,0.3-0.3,0.5-0.5,0.7s-0.4,0.4-0.7,0.5c-0.3,0.1-0.6,0.1-0.8,0.1
	h-25.3c-0.6,0-1.1-0.3-1.5-0.7s-0.6-0.9-0.6-1.5v-17.2c0-0.3,0.1-0.5,0.2-0.8c0.1-0.3,0.3-0.5,0.4-0.7c0.2-0.2,0.4-0.3,0.7-0.4
	c0.3-0.1,0.5-0.2,0.8-0.2h25.3c0.3,0,0.6,0,0.8,0.1c0.3,0.1,0.5,0.2,0.7,0.4s0.4,0.4,0.5,0.7s0.2,0.5,0.2,0.8L261.6,188.4
	L261.6,188.4z M322.7,187.7c5.2-0.8,7.8-4.3,7.8-9.7v-8.2c0-6.3-3.6-9.8-9.8-9.8H282v39.6h9.7v-30.5h26.9c0.3,0,0.6,0,0.8,0.1
	s0.5,0.3,0.7,0.4c0.2,0.2,0.3,0.4,0.4,0.7s0.1,0.5,0.1,0.8v5.4c0,0.3,0,0.5-0.1,0.8s-0.3,0.5-0.4,0.7c-0.2,0.2-0.4,0.3-0.7,0.4
	s-0.5,0.1-0.8,0.1h-22.9v9.1h15.7l8.2,11.8h11.9L322.7,187.7z M232.1,160c-6.3,0-9.8,3.6-9.8,9.8v19.8c0,6.3,3.6,9.8,9.8,9.8h29.4
	c6.2,0,9.8-3.6,9.8-9.8v-19.8c0-6.3-3.6-9.8-9.8-9.8H232.1z M168.2,189.6c0,6.3,3.6,9.8,9.8,9.8h34.2v-9h-32.1
	c-0.3,0-0.6-0.1-0.8-0.2c-0.3-0.1-0.5-0.3-0.7-0.5s-0.3-0.4-0.4-0.7c-0.1-0.3-0.1-0.5-0.1-0.8v-17.1c0-0.5,0.2-1.1,0.6-1.5
	c0.4-0.4,0.9-0.6,1.5-0.6h32.2v-9H178c-6.3,0-9.8,3.6-9.8,9.8V189.6z M157.6,160h-9.8v39.6h9.8V160z M89,160v39.6h9.8v-30.5h26.7
	c0.3,0,0.6,0,0.8,0.1c0.3,0.1,0.5,0.2,0.7,0.4s0.4,0.4,0.5,0.7s0.2,0.5,0.1,0.8v5.4c0,0.3,0,0.6-0.1,0.8c-0.1,0.3-0.3,0.5-0.5,0.7
	s-0.5,0.3-0.7,0.4c-0.3,0.1-0.6,0.1-0.8,0.1h-22.1v9.1h24.2c6.3,0,9.8-3.6,9.8-9.8v-8.2c0-6.3-3.6-9.8-9.8-9.8H89V160z M38,160
	c-6.3,0-9.8,3.6-9.8,9.8v19.8c0,6.3,3.6,9.8,9.8,9.8h38.1v-8.3H40c-0.3,0-0.5-0.1-0.8-0.2c-0.3-0.1-0.5-0.3-0.7-0.4
	c-0.2-0.2-0.3-0.4-0.4-0.7c-0.1-0.3-0.2-0.5-0.2-0.8v-18.7c0-0.3,0-0.6,0.1-0.8s0.2-0.5,0.4-0.7s0.4-0.4,0.7-0.5s0.5-0.2,0.8-0.2
	h25.3c0.3,0,0.6,0,0.8,0.1c0.3,0.1,0.5,0.3,0.7,0.5s0.4,0.4,0.5,0.7s0.2,0.6,0.1,0.8v3.6c0,0.3-0.1,0.5-0.2,0.8s-0.3,0.5-0.5,0.7
	s-0.4,0.3-0.7,0.4c-0.3,0.1-0.5,0.1-0.8,0.1H42v8.3h25.4c6.3,0,9.8-3.7,9.8-9.8v-4.7c0-6.3-3.6-9.8-9.8-9.8H38V160z"/>
</svg>
