<?xml version="1.0" encoding="UTF-8"?>
<svg version="1.2" baseProfile="tiny-ps" id="Layer_1" xmlns="http://www.w3.org/2000/svg" xmlns:xlink="http://www.w3.org/1999/xlink" viewBox="0 0 200 200">
    <title>Salesloft</title>
    <g>
        <g transform="translate(100, 100)">
            <path id="fullLogo_00000067220021088379397080000001560629644369969848_" fill="#B3D334" d="M42.7,78.5c0-8.6,6.7-16,16-16c9.5,0,16.3,7.4,16.3,16s-6.7,16-16,16C49.4,94.4,42.7,87,42.7,78.5z" />
            <path id="fullLogo_00000119109879179332421470000015636763633874953602_" fill="#064B2E" d="M-43.7,-57.4c0-12.9,12.1-23.1,27.6-23.1c20.2,0,32.1,9.5,39,57.9h4.3l6.3-66.1C-11.2,-104.4,-67.3,-88,-68.2,-40.4c0,51.3,81.8,51.3,81.8,98.2c0,13.7-12.1,23.2-25.8,23.2c-36.1,0-44.6-30.2-46.5-61.9h-4.4L-75,78.6c0,0,26.8,15.8,55.8,15.8c34.8-0.6,57.9-26.1,58.4-52.9C43.3,-10.1,-43.7,-20.7,-43.7,-57.4z" />
        </g>
    </g>
</svg>
