<?xml version="1.0" encoding="UTF-8"?><!-- Created with Inkscape (http://www.inkscape.org/) --><svg xmlns:inkscape="http://www.inkscape.org/namespaces/inkscape" xmlns:sodipodi="http://sodipodi.sourceforge.net/DTD/sodipodi-0.dtd" xmlns="http://www.w3.org/2000/svg" xmlns:svg="http://www.w3.org/2000/svg" version="1.2" width="552.97333" height="482.18668" viewBox="0 0 552.97333 482.18668" baseProfile="tiny-ps"><title>taboola_logo_blue_smiley_tiny.svg</title><defs id="defs1"></defs><g id="g1"><g id="group-R5"><path id="path2" d="m 1225.87,1356.79 c -668.554,3.86 -967.718,447.93 -964.714,941.58 2.895,493.74 306.996,930.68 975.534,926.66 668.54,-3.69 967.72,-444.24 964.77,-937.98 -2.95,-493.58 -307.05,-934.11 -975.59,-930.26 m 8.04,1374.66 C 976.691,2733 940.945,2482.86 939.82,2294.44 c -1.015,-188.51 31.731,-442.5 288.83,-444.07 257.06,-1.38 292.96,251.96 294.08,440.7 1.08,188.57 -31.72,438.98 -288.82,440.38" transform="matrix(0.13333333,0,0,-0.13333333,0,482.18667)" fill="#385bb2" fill-opacity="1" fill-rule="nonzero" stroke="none"></path><path id="path3" d="m 2910.36,1356.71 c -668.39,4.02 -967.51,448.09 -964.56,941.72 2.74,493.6 307,930.7 975.44,926.68 668.49,-3.86 967.67,-444.39 964.88,-937.98 -2.95,-493.74 -307.22,-934.16 -975.76,-930.42 m 8.04,1374.82 c -257.06,1.55 -292.8,-248.59 -293.87,-437.16 -1.23,-188.53 31.57,-442.37 288.78,-443.92 256.89,-1.55 292.84,251.97 293.91,440.53 1.09,188.59 -31.77,439.15 -288.82,440.55" transform="matrix(0.13333333,0,0,-0.13333333,0,482.18667)" fill="#385bb2" fill-opacity="1" fill-rule="nonzero" stroke="none"></path><path id="path4" d="m 515.734,1356.69 c 481.961,-215.31 982.086,-310.91 1527.006,-314.03 572.46,-3.37 1006.57,104.73 1556.15,314.03 l -3.21,-593.042 C 3103.8,519.73 2570.41,388.211 2038.88,391.27 1459.61,394.699 1042.12,513.668 512.156,763.648 l 3.578,593.042" transform="matrix(0.13333333,0,0,-0.13333333,0,482.18667)" fill="#385bb2" fill-opacity="1" fill-rule="nonzero" stroke="none"></path></g></g></svg>