<?xml version="1.0" encoding="utf-8"?>
<svg version="1.2" baseProfile="tiny-ps" id="Layer_1" xmlns="http://www.w3.org/2000/svg" xmlns:xlink="http://www.w3.org/1999/xlink"
	  viewBox="0 0 200 200"  xml:space="preserve">
	  <title>Taboola Logo</title>
<g>
	<g>
		<path fill="#064264" d="M15.6,87.1H4.5V76.9h34.6v10.2H27.9V117H15.7L15.6,87.1z"/>
		<path fill="#064264" d="M49.3,103.9c-1.3,0.7-2.9,1-4.4,1.4c-2.5,0.5-3.8,1.2-3.8,3.1c0,1.3,1.4,2.7,3.4,2.7
			c2.5,0,4.5-1.5,4.7-4.5L49.3,103.9z M59.8,110.5c0,2.2,0.1,4.6,1.3,6.5l-11.3-0.1c-0.3-0.8-0.4-2-0.4-2.7h-0.1
			c-2.4,2.7-5.8,3.4-9.4,3.4c-5.6,0-10.2-2.7-10.2-8.8c0.1-9.2,10.8-8.8,16.4-9.8c1.5-0.3,3-0.7,3-2.6c0-2-1.8-2.7-3.6-2.7
			c-3.4,0-4.1,1.7-4.2,2.9L31,96.5c0.4-8.2,8.1-9.5,15-9.4c14.1,0.1,14,5.9,13.9,11.5L59.8,110.5z"/>
		<path fill="#064264" d="M76.9,95.4c-4,0-4.9,3.7-4.9,7.1c0,3.5,0.9,7.2,4.8,7.2c4,0,4.9-3.7,4.9-7.2
			C81.8,99.2,80.9,95.4,76.9,95.4 M61.5,76.9h11.1l-0.1,14.4h0.1c1.7-2.4,4.7-3.9,8-3.9c9.7,0.1,12.3,8.3,12.3,15.2
			c0,7.3-4.1,15.3-12.3,15.3c-5.4,0-7.1-2.1-8.5-4H72v3.1H61.5V76.9z"/>
		<path fill="#064264" d="M108.3,85c-4.2,0-4.8,4.1-4.8,7.1c0,3.1,0.5,7.2,4.7,7.2s4.8-4.1,4.8-7.2C113.1,89.1,112.5,85,108.3,85
			 M108.2,107.4c-10.9-0.1-15.8-7.3-15.7-15.4c0-8.1,5-15.2,15.9-15.1s15.8,7.2,15.7,15.3C124.1,100.3,119.1,107.5,108.2,107.4"/>
		<path fill="#064264" d="M135.8,85c-4.2,0-4.8,4.1-4.8,7.1c0,3.1,0.5,7.2,4.7,7.2s4.8-4.1,4.8-7.2C140.5,89.1,140,85,135.8,85
			 M135.7,107.4c-10.9-0.1-15.8-7.3-15.7-15.4c0-8,5-15.2,15.9-15.1s15.8,7.2,15.7,15.3C151.5,100.3,146.6,107.5,135.7,107.4"/>
		<path fill="#064264" d="M152.8,76.9h10.8V117h-10.8V76.9z"/>
		<path fill="#064264" d="M183.8,103.8c-1.3,0.7-2.9,1-4.4,1.4c-2.5,0.5-3.8,1.2-3.8,3.1c0,1.3,1.4,2.7,3.4,2.7
			c2.5,0,4.5-1.5,4.7-4.5L183.8,103.8z M194.4,110.4c0,2.2-0.1,4.7,1.1,6.6h-11.1c-0.3-0.8-0.5-2.1-0.4-2.9h-0.1
			c-2.4,2.7-5.8,3.4-9.4,3.4c-5.6,0-10.2-2.7-10.2-8.8c0.1-9.2,10.8-8.8,16.4-9.8c1.5-0.3,3-0.7,3-2.6c0-2-1.8-2.7-3.6-2.7
			c-3.4,0-4.1,1.7-4.2,2.9l-10.3-0.1c0.4-8.2,8.1-9.5,15-9.4c13.9,0.1,13.7,5.8,13.7,11.4v12H194.4z"/>
		<path fill="#064264" d="M96.6,107.4c7.9,3.5,16,5.1,24.9,5.1c9.3,0.1,16.4-1.7,25.4-5.1l-0.1,9.7c-8,4-16.7,6.1-25.4,6.1
			c-9.4-0.1-16.3-2-24.9-6.1L96.6,107.4z"/>
	</g>
</g>
</svg>
