<?xml version="1.0" encoding="utf-8"?>
<!-- Generator: Adobe Illustrator 27.7.0, SVG Export Plug-In . SVG Version: 6.00 Build 0)  -->
<svg version="1.2" baseProfile="tiny-ps" xmlns="http://www.w3.org/2000/svg" xmlns:xlink="http://www.w3.org/1999/xlink" viewBox="0 0 173.74 173.74" xml:space="preserve">
<title>Blue Ridge Energy</title>
<g id="Layer_3">
	<rect y="0" fill="#FFFFFF" width="173.74" height="173.74"/>
</g>

<g id="Layer_2">
	<g>
		<path fill="#231F20" d="M141.83,101.14c-9.65,0-17.47-7.82-17.47-17.47s7.82-17.47,17.47-17.47c1.64,0,3.22,0.23,4.72,0.65
			c-2.49-1.07-5.23-1.66-8.11-1.66c-11.37,0-20.59,9.22-20.59,20.59c0,11.37,9.22,20.59,20.59,20.59c10.99,0,19.97-8.61,20.56-19.45
			C157.48,95.01,150.37,101.14,141.83,101.14"/>
		<path fill="#EC1C2E" d="M144.37,100.3c8.23,0,14.9-6.67,14.9-14.9c0-8.23-6.67-14.9-14.9-14.9c-8.23,0-14.9,6.67-14.9,14.9
			C129.47,93.63,136.15,100.3,144.37,100.3"/>
		<path fill="#898B8D" d="M93.26,106.16h4.39v-1.35h-1.04v-1.69l2.26-3.02h0.79v-1.35h-3.82v1.35h0.78l-0.94,1.37
			c-0.14,0.21-0.21,0.36-0.21,0.36h-0.03c0,0-0.07-0.16-0.21-0.36l-0.94-1.37h0.78v-1.35h-3.83v1.35h0.79l2.26,3.02v1.69h-1.04
			V106.16z M79.35,102.42c0,2.23,2.08,3.87,4.93,3.87c1.35,0,3.96-0.37,3.96-1.48v-2.46h-3.56v1.35h1.49v0.51
			c0,0.42-0.98,0.54-1.6,0.54c-1.82,0-2.82-1.01-2.82-2.4c0-1.39,1.01-2.14,2.69-2.14c0.84,0,1.53,0.19,1.53,0.56v0.54h2.07v-1.2
			c0-0.93-2.05-1.45-3.73-1.45C81.41,98.64,79.35,100.19,79.35,102.42 M70.79,102.12v-1.91h0.83c0.39,0,0.69,0.04,0.89,0.12
			c0.4,0.16,0.5,0.48,0.5,0.82c0,0.67-0.45,0.96-1.18,0.96H70.79z M67.44,106.16h4.32v-1.35h-0.97v-1.25h0.47
			c0.48,0,0.65,0.08,0.8,0.32l1.13,1.73c0.26,0.4,0.56,0.55,1.31,0.55h1.53v-1.35H75.7c-0.3,0-0.48-0.06-0.6-0.24l-0.71-1.1
			c-0.21-0.32-0.57-0.45-0.57-0.45v-0.02c0.92-0.39,1.5-1.06,1.5-2.03c0-1.09-0.74-1.81-1.85-2.08c-0.53-0.12-1.15-0.14-1.85-0.14
			h-4.18v1.35h1.04v4.71h-1.04V106.16z M55.55,106.16h7.29v-2.18h-1.94v0.74H58.9v-1.55h2.7v-1.45h-2.7v-1.5h1.84v0.74h1.94v-2.18
			h-7.13v1.35h1.04v4.71h-1.04V106.16z M40.94,106.16h4.44v-1.35h-1.09v-2.48c0-0.33-0.08-0.83-0.08-0.83h0.05
			c0,0,0.17,0.46,0.39,0.76l2.91,3.9h2.33v-6.06h1.04v-1.35h-4.44v1.35h1.09v2.51c0,0.33,0.08,0.83,0.08,0.83H47.6
			c0,0-0.17-0.46-0.39-0.76l-2.9-3.92h-3.38v1.35h1.04v4.71h-1.04V106.16z M28.92,106.16h7.29v-2.18h-1.94v0.74h-1.99v-1.55h2.7
			v-1.45h-2.7v-1.5h1.84v0.74h1.94v-2.18h-7.13v1.35h1.04v4.71h-1.04V106.16z"/>
		<path fill="#231F20" d="M111.91,84.8h-5.17c0.27-1.57,1.2-2.6,2.62-2.6C110.81,82.2,111.71,83.25,111.91,84.8 M115.25,86.1v-0.05
			c0-3.47-1.85-6.64-5.89-6.64c-3.52,0-5.98,2.87-5.98,6.36v0.05c0,3.74,2.69,6.32,6.32,6.32c2.19,0,3.81-0.87,4.94-2.28l-1.96-1.76
			c-0.95,0.89-1.78,1.25-2.93,1.25c-1.53,0-2.62-0.82-2.96-2.4h8.42C115.23,86.65,115.25,86.45,115.25,86.1 M99.09,85.17
			c0,1.67-1.29,2.83-2.96,2.83c-1.67,0-2.93-1.14-2.93-2.83v-0.05c0-1.67,1.26-2.83,2.93-2.83c1.67,0,2.96,1.16,2.96,2.83V85.17z
			 M102.48,89.11v-9.47h-3.43v1.6c-0.93-1.03-2.03-1.82-3.9-1.82c-2.78,0-5.37,2.05-5.37,5.7v0.05c0,3.63,2.55,5.7,5.37,5.7
			c1.83,0,2.93-0.75,3.95-1.98v0.59c0,2.19-1.11,3.33-3.45,3.33c-1.6,0-2.84-0.41-4.08-1.12l-1.17,2.6
			c1.53,0.82,3.39,1.28,5.35,1.28C100.22,95.57,102.48,93.72,102.48,89.11 M85.66,85.78c0,2.03-1.33,3.38-2.93,3.38
			c-1.6,0-2.96-1.35-2.96-3.38v-0.05c0-2.05,1.35-3.38,2.96-3.38c1.6,0,2.93,1.35,2.93,3.38V85.78z M89.05,91.87V75.22h-3.43v6.02
			c-0.81-0.98-1.94-1.82-3.77-1.82c-2.87,0-5.51,2.24-5.51,6.32v0.05c0,4.08,2.69,6.32,5.51,6.32c1.78,0,2.93-0.84,3.77-1.98v1.76
			H89.05z M75.46,79.65h-3.43v12.23h3.43V79.65z M75.55,75.22h-3.61v3.08h3.61V75.22z M67.38,81.4c0,1.35-0.97,2.26-2.66,2.26H61.2
			v-4.59h3.45c1.69,0,2.73,0.78,2.73,2.28V81.4z M71.38,91.87l-3.86-5.7c2.01-0.75,3.39-2.37,3.39-4.95v-0.05
			c0-3.28-2.23-5.27-5.96-5.27h-7.22v15.97h3.48v-5.11h2.73l3.39,5.11H71.38z M53.5,84.8h-5.17c0.27-1.57,1.2-2.6,2.62-2.6
			C52.4,82.2,53.3,83.25,53.5,84.8 M56.84,86.1v-0.05c0-3.47-1.85-6.64-5.89-6.64c-3.52,0-5.98,2.87-5.98,6.36v0.05
			c0,3.74,2.69,6.32,6.32,6.32c2.19,0,3.81-0.87,4.94-2.28l-1.96-1.76c-0.95,0.89-1.78,1.25-2.93,1.25c-1.53,0-2.62-0.82-2.96-2.4
			h8.42C56.82,86.65,56.84,86.45,56.84,86.1 M44.07,91.87V79.65h-3.43v6.82c0,1.64-0.84,2.49-2.14,2.49c-1.31,0-2.08-0.84-2.08-2.49
			v-6.82h-3.43v7.92c0,2.81,1.51,4.54,4.11,4.54c1.74,0,2.75-0.94,3.54-1.96v1.73H44.07z M31.77,75.22h-3.43v16.65h3.43V75.22z
			 M24.03,87.06c0,1.19-0.93,1.73-2.46,1.73h-4.13v-3.51h4.02c1.78,0,2.57,0.66,2.57,1.73V87.06z M23.15,80.67
			c0,1.19-0.97,1.69-2.51,1.69h-3.2v-3.38h3.43c1.47,0,2.28,0.59,2.28,1.64V80.67z M27.48,87.5v-0.05c0-2.14-1.13-3.22-2.96-3.92
			c1.13-0.64,2.08-1.64,2.08-3.44v-0.05c0-2.51-1.99-4.13-5.21-4.13h-7.34v15.97h7.52C25.13,91.87,27.48,90.41,27.48,87.5"/>
		<path fill="#231F20" d="M158.77,104.28v2.09h0.51v-2.91h-0.54l-0.89,1.38l-0.89-1.38h-0.54v2.91h0.5v-2.08l0.91,1.36h0.02
			L158.77,104.28z M155.17,103.93h0.92v-0.47h-2.36v0.47h0.92v2.44h0.51V103.93z"/>
	</g>
</g>
</svg>
