<?xml version="1.0"?><svg version="1.2" baseProfile="tiny-ps" viewBox="0 0 300 300" xmlns="http://www.w3.org/2000/svg" xmlns:xlink="http://www.w3.org/1999/xlink">
<title>CB</title>
<g>
<g fill="#f2bd3c" transform="matrix(.1 0 0 -.1 0 300)">
<path d="M0 1500V0h3000v3000H0V1500z"/>
</g>
<g fill="#c69a31" transform="matrix(.1 0 0 -.1 0 300)">
<path d="M540 2595c-36-7-91-23-122-35l-58-21-52-40c-64-47-110-104-150-183l-30-59-23-91c-13-50-29-142-35-205l-13-114 6-351 6-351 11-95c14-132 27-184 68-270l35-75 61-61 62-62 63-31c35-18 98-41 140-52l76-20 140-6 140-6 72 12c89 14 165 41 228 83l48 32 44 60c61 82 91 143 114 234l20 77 6 123 6 122H972l-7-67c-3-38-12-105-20-151l-13-82-19-33c-11-17-34-42-53-54l-33-23H699l-37 19c-49 25-66 45-98 114l-26 58-9 112-10 112 3 415 4 415 23 68 22 68 31 35c17 19 45 42 62 51l31 16 61 1h61l34-20 34-20 18-36 18-36 15-119c8-65 17-124 19-130l4-13h424l-6 128-6 127-16 60c-8 33-30 89-47 125l-32 65-50 51-51 50-65 32-65 32-70 15-70 15-150-1-150-1-65-13zm1038-10-8-8V500h645l170 10 170 11 60 15c33 9 86 29 118 46l57 31 48 47 47 46 28 52 28 51 14 68 15 68v240l-11 65-10 65-23 50c-45 99-119 159-246 202l-65 21 20 7c11 4 44 18 73 31l52 23 55 52 55 52 24 51c13 28 30 79 36 114l13 63-5 117-5 117-23 65c-12 36-36 87-53 114l-31 48-48 38-48 39-55 20-55 21-88 10-87 10-430 6-430 7-7-8zm807-352c51-27 79-57 104-113l21-45v-161l-27-55-28-54-34-22c-18-13-50-27-70-33l-36-10h-305v509l23 5c12 2 87 3 167 2l145-3 40-20zm40-858 49-30 25-49 25-49 4-95 5-95-13-55-12-54-46-48-47-48-40-11-40-11h-325v549l23 16 22 16 161-3 161-3 48-30z"/>
</g>
<g fill="#896a22" transform="matrix(.1 0 0 -.1 0 300)">
<path d="M582 2600c-35-5-92-18-127-30l-64-21-58-38-59-38-42-49c-23-27-55-76-72-110l-29-60-26-105-25-104-11-140-11-140 6-270c12-475 26-588 91-721l35-72 56-56 56-56 82-40 81-40 75-17 75-16 160-1h160l62 17c34 9 83 26 110 39l48 22 61 61 61 60 41 85 41 85 15 78c9 42 19 124 23 182l6 105-214-2-214-3-13-115c-7-63-19-138-27-167l-15-52-31-30-30-31-41-11-42-11-45 7c-59 9-91 26-128 69l-31 34-22 59-23 58-8 280c-4 154-8 368-8 476l-1 196 25 99 25 98 24 37 25 37 35 21 36 22 53 6 54 6 35-12 35-11 25-28c35-37 46-77 60-209l12-113h428l-7 108c-3 59-13 138-21 176l-14 69-29 64-30 63-51 54-51 53-57 31c-31 17-84 38-117 47l-60 16-150 4-150 4-63-9zm993-31c-3-8-4-475-3-1039l3-1025 160-3c88-2 304 2 480 7l320 11 63 15c35 8 88 27 118 41l54 25 55 51 55 50 35 71 35 72 10 65c5 36 10 110 10 165l-1 100-13 76-14 75-22 44c-35 68-60 97-116 136l-51 36-74 23-74 23 20 7c11 4 48 20 82 35l62 28 45 42 46 43 30 61 29 61 11 65c13 88 12 180-4 272l-14 77-25 55-26 55-45 49-46 49-48 26c-27 15-78 34-113 43l-64 16-482 5-483 5-5-13zm810-331c46-25 86-68 108-118l21-45v-75l1-75-14-38c-7-21-27-55-44-74l-32-36-40-18-40-19h-335v522l173-4 172-3 30-17zm-3-838c48-14 94-53 118-101l20-38 9-68 10-68-9-73-8-73-28-47-29-47-54-27-55-28h-356v535l8 11c4 6 16 16 27 22l20 11 145 1h145l37-10z"/>
</g>
<g fill="#5e4917" transform="matrix(.1 0 0 -.1 0 300)">
<path d="M600 2600c-91-13-145-28-219-64l-64-31-56-55-56-55-32-60c-37-70-68-174-88-300l-15-90v-680l11-140c5-77 16-170 24-207l14-68 32-67 32-68 66-66 66-66 65-31c86-42 162-60 293-72l109-9 102 9 103 10 59 20c33 11 82 36 111 55l52 35 40 51c49 61 94 153 115 236l16 61 10 122c5 67 7 126 4 131l-5 9H980l-4-22c-3-13-10-68-16-124-13-118-22-157-50-202l-21-33-46-21-46-20-54 5-53 6-43 23-42 23-40 78-39 78-7 182c-4 100-8 322-8 493l-1 310 20 78c34 130 68 179 142 211l37 15h106l35-18 35-17 22-45 22-45 11-100c7-55 14-110 16-122l4-23h421l-5 58c-3 31-8 92-11 136l-6 79-23 73-24 74-32 50c-61 95-158 162-285 195l-60 16-135 4-135 4-65-9zm980-1059V500h93c50 1 261 5 467 10l375 9 69 15c135 30 242 98 305 193l31 47 20 63 19 63 7 103 6 102-11 93-11 93-21 54-20 54-46 51-46 51-48 24c-26 14-75 32-108 41-34 10-59 20-56 22 3 3 28 14 57 24s76 34 105 53l53 35 35 48 35 47 22 70 23 70-1 120v120l-17 62c-22 83-59 155-107 207l-39 42-53 27-53 27-70 16-70 15-472 6-473 6V1541zm831 684 42-30 31-55 31-55v-180l-26-50-25-50-40-28-39-28-65-10-65-10-125 3-125 3-3 250c-1 137 0 256 3 263l5 14 179-4 179-3 43-30zm-11-832 45-20 32-36 32-37 12-42 12-43v-190l-11-41-12-40-35-41-35-41-41-16-41-16-122-7-122-6-57 7-57 7v549l33 21 32 20 145-4 145-3 45-21z"/>
</g>
<g fill="#2b210a" transform="matrix(.1 0 0 -.1 0 300)">
<path d="M616 2600c-94-11-173-33-240-67l-49-25-53-50c-94-89-135-171-176-353l-20-90-5-320-5-320 11-190 12-190 14-70 15-69 35-74 35-73 58-59 58-58 74-37 74-37 91-19 90-19h280l67 14 66 15 57 27 57 28 53 53 52 52 36 68c20 38 45 102 57 143l21 75 6 122 6 123h-207c-113 0-206-1-206-2 0-2-7-55-14-118-8-64-19-135-25-158l-12-42-30-35-30-34-36-12-36-12-60 6-60 5-41 29-41 29-34 69-34 68-9 171-9 171 3 355 4 355 27 76 28 76 32 33c18 18 48 40 67 48l35 15 58-1 58-1 31-18c17-10 40-30 50-44l20-26 14-94c7-52 16-115 19-141l6-48h409v167l-15 89-16 89-34 72-34 73-49 49-49 49-62 31c-33 17-89 38-123 46l-63 15-115 4-115 5-79-9zm964-1056V508l463 5 462 5 73 16 72 15 65 31 64 31 49 47c61 60 97 120 118 202l17 65 1 140v140l-13 60c-24 107-83 200-158 246-19 12-72 35-117 50l-81 28 23 7c13 3 54 21 92 40l69 33 40 40 40 40 24 48c13 26 30 73 38 103l13 55-1 105v105l-17 68c-8 37-27 90-41 118l-26 51-44 43c-48 49-106 81-180 102l-50 14-175 9c-96 5-320 10-497 10h-323V1544zm799 700 41-16 35-41 34-40 17-50 16-49-4-77-5-76-21-41c-25-50-68-88-119-106l-38-13h-330l-3 262-2 262 62 4c35 3 111 3 170 1l106-3 41-17zm-19-835c25-5 62-21 83-35l39-25 26-57 27-57v-220l-14-38c-17-51-64-103-115-130l-41-21-182-4-183-4v568l33 17 32 16h125l125 1 45-11z"/>
</g>
<g fill="#020100" transform="matrix(.1 0 0 -.1 0 300)">
<path d="M585 2593c-65-9-151-36-209-65l-60-30-56-57-56-56-32-65-32-65-24-96c-14-53-29-139-35-192l-11-96v-233c0-259 14-553 31-668 6-41 22-103 35-138l24-63 40-58c85-121 202-186 390-217l85-14h105l105 1 77 13 77 14 55 25 55 25 47 44c59 53 108 129 140 215l25 66 14 96c8 53 15 124 15 159v62H980v-13c0-7-7-68-15-136l-16-123-15-31c-21-42-53-76-86-93l-27-14H699l-38 20c-71 36-122 119-140 228l-9 57-6 420-6 420 9 59c6 32 20 90 33 130l22 71 41 41 42 41 52 13 52 12 41-6c23-4 54-14 71-24l29-17 20-39 20-39 16-129 16-128h409l-7 113c-8 139-26 228-62 304l-28 58-60 61-61 60-55 26-55 26-77 16-77 16-138-1c-76-1-151-4-168-6zm1002-20-7-6V510h318c174 0 394 5 487 10l171 10 57 15c32 8 81 27 109 41l51 26 52 49 52 49 26 48c14 27 33 75 42 108l16 59v270l-15 74-16 74-32 55-33 54-35 28c-48 38-104 65-177 85-35 10-63 21-63 25s15 11 33 14c17 3 56 17 84 31l53 24 50 47 50 46 24 52c13 28 29 75 35 104l11 53v194l-14 66-14 67-27 53-27 54-42 43-41 44-50 25c-27 14-72 32-100 40l-50 13-300 10c-355 11-669 13-678 3zm769-318 50-14 33-33 34-33 23-50 24-50v-152l-15-44-16-44-37-38-37-38-49-14-50-15h-316v527l7 6c3 4 72 7 153 7h146l50-15zm60-862c50-27 88-69 106-120l13-38V995l-24-48-24-49-40-29c-22-16-57-34-78-39l-38-10-168 2-168 3-3 70c-2 39-1 166 3 283l7 213 27 14 26 15 160-3 160-2 41-22z"/>
</g>
</g>
</svg>