<svg xmlns="http://www.w3.org/2000/svg" xmlns:xlink="http://www.w3.org/1999/xlink" version="1.2" viewBox="0 0 600 600" baseProfile="tiny-ps">
  <title>scytale-logo-2024</title>
  <linearGradient id="SVGID_1_" gradientUnits="userSpaceOnUse" x1="105.512" y1="203.45" x2="452.64" y2="203.45">
    <stop offset="0" stop-color="#5EC9E2"/>
    <stop offset="0" stop-color="#5EC9E2"/>
    <stop offset="0.97" stop-color="#0058A2"/>
    <stop offset="1" stop-color="#0058A2"/>
  </linearGradient>
  <path d="M147.76,409.23c-37.78,18.7-53.12,64.72-34.04,102.5c13.47,26.93,40.4,42.27,68.46,42.27  c11.6,0,23.19-2.62,34.04-8.23l236.42-118.21c-10.47,5.24-22.44,7.86-34.04,7.86s-23.19-2.62-34.04-7.86L247.65,359.1l-99.88,50.13  l0,0L147.76,409.23z" fill="url(#SVGID_1_)"/>
  <linearGradient id="SVGID_00000090253812758190399630000000944006716684066988_" gradientUnits="userSpaceOnUse" x1="148.88" y1="516.55" x2="494.508" y2="516.55">
    <stop offset="0" stop-color="#FEBD11"/>
    <stop offset="0" stop-color="#FDBB11"/>
    <stop offset="0.15" stop-color="#F3952F"/>
    <stop offset="0.3" stop-color="#EB7547"/>
    <stop offset="0.46" stop-color="#E55C5A"/>
    <stop offset="0.62" stop-color="#E04A68"/>
    <stop offset="0.8" stop-color="#DD4070"/>
    <stop offset="1" stop-color="#DD3D73"/>
  </linearGradient>
  <path d="M384.18,54.23l-235.3,117.46  c20.57-9.73,44.89-10.1,66.96,0.75l136.54,68.46l0,0l99.88-50.13c37.78-18.7,53.12-64.72,34.04-102.5  C472.83,61.34,445.9,46,417.84,46c-10.85,0.37-22.44,2.99-33.67,8.23" fill="url(#SVGID_00000090253812758190399630000000944006716684066988_)"/>
  <linearGradient id="SVGID_00000119831658529752981390000005594633252251009921_" gradientUnits="userSpaceOnUse" x1="356.0215" y1="403.3361" x2="-94.1785" y2="444.106">
    <stop offset="0.16" stop-color="#FEBD11"/>
    <stop offset="0.27" stop-color="#FCB615"/>
    <stop offset="0.42" stop-color="#F8A522"/>
    <stop offset="0.59" stop-color="#F08938"/>
    <stop offset="0.77" stop-color="#E66256"/>
    <stop offset="0.92" stop-color="#DD3D73"/>
  </linearGradient>
  <path d="M149.26,171.32  c-1.5,0.75-2.62,1.5-3.74,1.87c-0.75,0.37-1.5,0.75-2.24,1.5c-1.5,0.75-2.62,1.5-3.74,2.62c-1.12,0.75-2.62,1.87-3.74,2.62  c-0.37,0.37-1.12,0.75-1.5,1.12c-1.12,0.75-1.87,1.5-2.99,2.62c-1.12,0.75-1.87,1.87-2.99,2.62c-1.12,1.12-2.62,2.62-3.74,4.11  c-0.75,0.75-1.12,1.5-1.87,2.24c-0.75,0.75-1.5,1.5-1.87,2.62c-0.75,0.75-1.5,1.87-1.87,2.62c-0.37,0.37-0.75,0.75-0.75,1.5  c-0.37,0.75-1.12,1.5-1.5,2.24c-0.37,0.75-0.75,1.5-1.5,2.24c-0.37,0.75-0.75,1.5-1.5,2.62s-1.12,2.62-1.87,3.74  c-0.75,1.5-1.12,2.99-1.87,4.49c-0.37,1.12-0.75,2.62-1.12,3.74c-0.37,1.5-0.75,2.62-1.12,4.11c-0.37,0.75-0.37,1.5-0.37,2.24  c0,0.37-0.37,1.12-0.37,1.5c-0.37,0.75-0.37,1.5-0.37,2.24s-0.37,1.5-0.37,2.24s0,1.12-0.37,1.87c0,0.75-0.37,1.87-0.37,2.62v10.1  c0,0.75,0,1.87,0.37,2.62c0,0.75,0,1.5,0.37,1.87c0,0.75,0.37,1.5,0.37,2.24v0.37c0.37,1.12,0.37,2.24,0.75,3.37  c0,0.75,0.37,1.5,0.37,2.24c0.37,1.5,0.75,2.62,1.12,4.11c0.37,1.12,0.75,2.62,1.12,3.74c0.37,1.5,1.12,2.99,1.87,4.49  c0.37,1.12,1.12,2.62,1.87,3.74s1.12,2.24,1.87,3.37c0.37,0.37,0.75,1.12,0.75,1.5c0.37,0.75,0.75,1.5,1.5,2.24l0,0  c0.37,0.37,0.75,1.12,0.75,1.5c0.75,0.75,1.12,1.87,1.87,2.62s1.5,1.87,1.87,2.62s1.12,1.5,1.87,2.24c1.12,1.5,2.24,2.62,3.74,4.11  l1.87,1.87l0,0c1.12,1.12,2.24,2.24,3.74,3.37l0,0c1.12,0.75,2.24,1.87,3.37,2.62c1.12,0.75,2.24,1.87,3.74,2.62  c0.75,0.37,1.5,0.75,2.24,1.5c0.75,0.37,1.5,0.75,2.24,1.5c0.37,0.37,0.75,0.37,1.12,0.75s0.75,0.37,1.12,0.75l1.5,0.75  c10.1,4.86,21.32,7.48,32.92,7.48s23.19-2.62,34.04-8.23l136.54-68.46l-136.54-68.46c-10.85-5.61-22.82-8.23-34.04-8.23  s-22.44,2.24-32.54,7.11" fill="url(#SVGID_00000119831658529752981390000005594633252251009921_)"/>
  <linearGradient id="SVGID_00000173845071671880071120000011206799946698570926_" gradientUnits="userSpaceOnUse" x1="125.3176" y1="410.9331" x2="588.8076" y2="247.4531">
    <stop offset="0" stop-color="#5EC9E2"/>
    <stop offset="0.1" stop-color="#5EC9E2"/>
    <stop offset="0.97" stop-color="#0058A2"/>
    <stop offset="1" stop-color="#0058A2"/>
  </linearGradient>
  <path d="M352.76,240.9l-136.91,68.46  c-10.85,5.61-22.44,8.23-34.04,8.23s-22.44-2.62-32.92-7.48l98.38,49.38l136.54,68.46c10.85,5.61,22.44,7.86,34.04,7.86  s23.57-2.99,34.04-7.86c4.11-1.87,7.86-4.49,11.6-7.11c0.75-0.37,1.12-0.75,1.87-1.5l0.37-0.37c1.5-1.12,2.62-2.24,3.74-3.37l0,0  c0.75-0.75,1.12-1.12,1.87-1.87c2.24-2.24,4.49-5.24,6.73-7.86c0.37-0.75,1.12-1.5,1.5-2.24c1.12-1.87,2.24-3.74,3.74-5.61  c0.75-1.5,1.5-2.99,2.24-4.11s1.12-2.62,1.87-3.74c0.75-1.5,1.12-2.99,1.87-4.49c0.37-1.12,0.75-2.62,1.12-3.74  c0.37-1.5,0.75-2.62,1.12-4.11c0-0.75,0.37-1.5,0.37-2.24c0.37-1.12,0.37-2.62,0.75-3.74c0-0.75,0.37-1.5,0.37-2.24  s0-1.12,0.37-1.87c0-0.75,0-1.87,0.37-2.62V353.9c0-0.75,0-1.87-0.37-2.62c0-0.75,0-1.5-0.37-2.24c-0.37-1.87-0.75-4.11-1.12-5.99  c-0.37-1.5-0.75-2.99-1.12-4.11v-0.75c0-0.75-0.37-1.12-0.37-1.87c-0.75-1.87-1.5-4.11-2.24-5.99c-0.37-0.75-0.37-1.5-0.75-1.87  c-1.12-2.24-1.87-4.11-2.99-6.36c-0.37-0.75-0.75-1.5-1.12-2.24c0-0.37-0.37-0.75-0.37-0.75l-1.5-2.24  c-0.75-1.5-1.87-2.62-2.99-4.11v-0.37c-0.37-0.75-1.12-1.5-1.5-2.24c-1.5-1.87-3.37-4.11-5.24-5.99c-1.5-1.5-2.99-2.99-4.86-4.49  c-0.37-0.37-0.75-0.75-1.5-1.12c-1.12-1.12-2.62-2.24-4.11-2.99c-0.75-0.75-1.87-1.12-2.99-1.87c-2.24-1.5-4.49-2.62-7.11-4.11  l-1.5-0.75l-96.89-47.88l0,0L352.76,240.9z" fill="url(#SVGID_00000173845071671880071120000011206799946698570926_)"/>
  <linearGradient id="SVGID_00000057827137067300656350000004728828844434394265_" gradientUnits="userSpaceOnUse" x1="292.74" y1="364.3104" x2="463.36" y2="277.5604">
    <stop offset="0" stop-color="#5EC9E2"/>
    <stop offset="0" stop-color="#5EC9E2"/>
    <stop offset="0.97" stop-color="#0058A2"/>
    <stop offset="1" stop-color="#0058A2"/>
  </linearGradient>
  <path d="M384.18,291.02l-136.91,68.46l136.91,68.46  c10.85,5.61,22.44,7.86,34.04,7.86s23.57-2.99,34.04-7.86c4.11-1.87,7.86-4.49,11.6-7.11c0.75-0.37,1.12-0.75,1.87-1.5l0.37-0.37  c1.5-1.12,2.62-2.24,3.74-3.37l0,0c0.75-0.75,1.12-1.12,1.87-1.87c2.24-2.24,4.86-5.24,6.73-7.86c0.37-0.75,1.12-1.5,1.5-2.24  c1.12-1.87,2.24-3.74,3.74-5.61c0.75-1.5,1.5-2.99,2.24-4.11s1.12-2.62,1.87-3.74c0.75-1.5,1.12-2.99,1.87-4.49  c0.37-1.12,0.75-2.62,1.12-3.74c0.37-1.5,0.75-2.62,1.12-4.11c0-0.75,0.37-1.5,0.37-2.24c0.37-1.12,0.37-2.62,0.75-3.74  c0-0.75,0.37-1.5,0.37-2.24s0-1.12,0.37-1.87c0-0.75,0-1.87,0.37-2.62v-11.22c0-0.75,0-1.87-0.37-2.62c0-0.75,0-1.5-0.37-2.24  c-0.37-1.87-0.75-4.11-1.12-5.99c-0.37-1.5-0.75-2.99-1.12-4.11v-0.75c0-0.75-0.37-1.12-0.37-1.87c-0.75-1.87-1.5-4.11-2.24-5.99  c-0.37-0.75-0.37-1.5-0.75-1.87c-1.12-2.24-1.87-4.11-2.99-6.36c-0.37-0.75-0.75-1.5-1.12-2.24c0-0.37-0.37-0.75-0.37-0.75  l-1.5-2.24c-0.75-1.5-1.87-2.62-2.99-4.11v-0.37c-0.37-0.75-1.12-1.5-1.5-2.24c-1.5-2.24-3.37-4.11-5.24-5.99  c-1.5-1.5-2.99-2.99-4.86-4.49c-0.37-0.37-0.75-0.75-1.5-1.12c-1.5-1.12-2.62-2.24-4.11-2.99c-0.75-0.75-1.87-1.12-2.99-1.87  c-2.24-1.5-4.49-2.99-7.11-4.11l-1.5-0.75c-10.1-4.86-21.32-7.48-32.92-7.48s-21.7,4.12-32.92,9.73" fill="url(#SVGID_00000057827137067300656350000004728828844434394265_)"/>
</svg>