<?xml version="1.0" encoding="utf-8"?>
<!-- BIMI from DMARC Advisor   -->
<svg version="1.2" baseProfile="tiny-ps" id="Layer_1" xmlns="http://www.w3.org/2000/svg" xmlns:xlink="http://www.w3.org/1999/xlink"
	 viewBox="0 0 1000 1000" xml:space="preserve">
	 <title>Eredivisie</title>
		<rect fill="#220090" width="1000" height="1000"/>
		<path fill="#FFFFFF" d="M500,157.65c-79.66,0-157.46,27.68-219.06,77.92l-0.25,0.2L336,291.05c47.15-37.96,103.85-58.03,163.99-58.03c145.51,0,263.9,119.77,263.9,266.98c0,59.66-19.14,116.12-55.35,163.33l56.22,56.17l0.16-0.2
			c51.84-61.44,80.39-139.33,80.39-219.3C845.32,311.23,690.41,157.65,500,157.65"/>
		<path fill="#FFFFFF" d="M234.7,281.11c-51.6,61.37-80.02,139.1-80.02,218.89c0,188.77,154.91,342.35,345.32,342.35c79.47,0,157.12-27.55,218.63-77.56l0.16-0.12l-55.32-55.28c-47.03,37.68-103.55,57.6-163.48,57.6C354.49,766.98,236.1,647.21,236.1,500c0-59.45,18.99-115.72,54.92-162.81
			l-56.23-56.19L234.7,281.11L234.7,281.11z"/>
			<path fill="#FFFFFF" d="M485.3,531.2l215,0.3l0.5-3.3c0.7-4.5,1.2-9,1.5-13.2c0.4-5.3,0.6-10.2,0.6-15.1c0-110.2-91-199.9-202.8-199.9c-111.8,0-202.8,89.7-202.8,199.9c0,110.2,91,199.9,202.8,199.9c42.2,0,82.7-12.7,117.1-36.8
				l-53.9-53.8C544,620.8,522.2,627,500,627c-68.4,0-124.1-57-124.1-127S431.5,373,500,373c28.2,0,55.8,10,77.8,28.1c20.4,16.9,35.2,40.1,42,65.9H421L485.3,531.2L485.3,531.2z"/>
</svg>