<?xml version="1.0" encoding="utf-8"?>
<!-- Generator: Adobe Illustrator 24.0.3, SVG Export Plug-In . SVG Version: 6.00 Build 0)  -->
<svg version="1.2" baseProfile="tiny-ps"
	 id="svg22" xmlns:cc="http://creativecommons.org/ns#" xmlns:dc="http://purl.org/dc/elements/1.1/" xmlns:inkscape="http://www.inkscape.org/namespaces/inkscape" xmlns:rdf="http://www.w3.org/1999/02/22-rdf-syntax-ns#" xmlns:sodipodi="http://sodipodi.sourceforge.net/DTD/sodipodi-0.dtd" xmlns:svg="http://www.w3.org/2000/svg"
	 xmlns="http://www.w3.org/2000/svg" xmlns:xlink="http://www.w3.org/1999/xlink" viewBox="0 0 216 216"
	 xml:space="preserve">
<title>lendtek.com</title>
<path fill="#FFFFFF" d="M216,216H0V0h216V216z"/>
<path fill="#C1C1C1" d="M108,5.7c56.9,0,102.9,46.1,102.9,102.9S164.9,211.6,108,211.6S5.1,165.5,5.1,108.6S51.1,5.7,108,5.7z"/>
<path fill="#FFFFFB" d="M108,18.1c50,0,90.5,40.5,90.5,90.5S158,199.2,108,199.2s-90.5-40.5-90.5-90.5S58,18.1,108,18.1z"/>
<path fill="#40A0ED" d="M108,26.7c45.3,0,82,36.7,82,82s-36.7,82-82,82s-82-36.7-82-82S62.7,26.7,108,26.7z"/>
<path fill="#FFFFFB" d="M151.4,132.5v24.7H70.5l9.4-24.7l7.6-19.9h-23L74,87.9h23l10.6-27.8H134l-10.6,27.8h25.3l-9.4,24.7h-25.3
	l-7.6,19.9H151.4z"/>
</svg>
