<?xml version="1.0" encoding="UTF-8" standalone="yes"?>
<svg width="160px" height="160px" viewBox="0 0 160 160" version="1.2" baseProfile="tiny-ps" xmlns="http://www.w3.org/2000/svg">
  <title>bimi-svg-tiny-12-ps</title>
  <defs id="defs265"/>
  <g id="layer1">
    <path fill="#cc141a" d="m 125.20692,87.361433 c -0.8,-4.2 -2.1,-7.8 -4.1,-11 -1.2,-1.9 -2.6,-3.6 -4.2,-5.1 -1.7,-1.6 -3.7,-3 -5.8,-4 -2.1,-1 -4.4,-1.7 -6.8,-2 -2.2,-0.3 -4.499997,-0.2 -6.799997,0.1 -4.1,0.7 -7.2,2.2 -10.6,4.2 -2.3,1.4 -4.4,3 -6.5,4.9 l -2.5,-2.5 c -1,-0.9 -2.100003,-1.8 -3.300003,-2.6 -1.1,-0.8 -2.4,-1.5 -3.8,-2.3 -2.6,-1.4 -6.1,-2.4 -9.5,-2.8 -3.5,-0.4 -7.1,0 -10.3,1.1 -1.7,0.6 -3.3,1.3 -4.7,2.3 -1.4,0.9 -2.8,1.9 -4,3.2 -2.2,2.1 -4.1,4.8 -5.5,7.9 -1.2,2.6 -2,5.5 -2.5,8.5 -0.4,2.7 -0.4,5.5 -0.1,8.3 0.2,2.499997 0.8,5.099997 1.7,7.799997 1.5,4.6 3.8,9 6.8,13.2 1.3,1.9 2.8,3.8 4.5,5.5 1.5,1.7 5.5,5.4 7.8,7.2 3,2.3 7.8,4.5 11.1,4 1.3,-0.2 2.3,-0.7 2.9,-1.6 2.4,-3.3 -2.2,-8.9 -7.2,-14.9 -10.5,-12.6 -11.2,-18.799997 -11.6,-22.499997 v -0.1 c -0.6,-5.7 2,-10.9 6.3,-12.4 5.2,-1.8 9.7,-0.1 13.5,5.2 0.5,0.7 0.9,1.4 1.4,2.1 1.8,2.9 3.5,5.5 8.100003,6.2 4.6,0.7 7,-2.5 9.9,-6.2 l 0.7,-0.9 c 2.4,-2.9 7.4,-7.3 13.999997,-4.3 6.5,3 7.1,14.799997 3.5,23.399997 -4,9.6 -10.599997,18 -15.499997,22.7 -4.6,4.5 -10.3,9.1 -16.900003,13.7 -5.3,3.9 -7.9,6.5 -7.5,9.9 0.1,0.8 0.5,1.8 2,2.6 0.9,0.5 2.3,0.7 3.9,0.7 3.800003,0 9.200003,-1.5 15.300003,-5.2 2.9,-1.8 9.3,-6.3 13.999997,-10.7 4.5,-4.3 9.4,-10.2 13,-15.6 1.7,-2.6 3.3,-5.4 4.7,-8.3 1.4,-3 2.6,-6.1 3.5,-9.2 1,-3.3 1.6,-6.7 1.9,-9.999997 0,-3.5 -0.2,-7.1 -0.8,-10.5 z" id="path47"/>
    <path fill="#ffcb03" d="m 49.883368,14.161433 0.3,0.3 c 0.2,0.2 0.4,0.5 0.7,0.9 0.6,0.8 1.4,1.9 2.3,3.3 0.4,0.7 0.9,1.5 1.4,2.3 0.5,0.8 1,1.7 1.4,2.6 0.5,0.9 1,1.8 1.4,2.8 0.5,1 0.9,1.9 1.4,2.9 0.5,1 0.9,2 1.3,3 0.4,1 0.8,2 1.1,2.9 0.7,1.9 1.2,3.8 1.6,5.4 0.4,1.6 0.7,3 0.8,4 0.1,1 0.2,1.6 0.2,1.6 0.2,3.8 -2.7,7 -6.5,7.3 -2.1,0.1 -4,-0.7 -5.4,-2.1 0,0 -0.4,-0.4 -1,-1.2 -0.6,-0.8 -1.4,-1.9 -2.3,-3.3 -0.9,-1.4 -1.9,-3 -2.8,-4.8 -0.5,-0.9 -0.9,-1.9 -1.4,-2.8 -0.4,-1 -0.9,-2 -1.3,-3 l -1.2,-3 c -0.4,-1 -0.7,-2 -1.1,-3 -0.3,-1 -0.6,-1.9 -0.9,-2.8 -0.3,-0.9 -0.5,-1.8 -0.7,-2.6 -0.4,-1.6 -0.7,-3 -0.8,-3.9 -0.1,-0.5 -0.1,-0.9 -0.2,-1.1 v -0.4 c -0.4,-3.7 2.2,-7 5.9,-7.5 2.2,-0.4 4.4,0.5 5.8,2.2 z m 72.300002,4.9 v 0.4 c 0,0.3 -0.1,0.7 -0.2,1.2 -0.2,1 -0.4,2.4 -0.8,4.1 -0.2,0.8 -0.4,1.7 -0.7,2.7 -0.3,0.9 -0.6,1.9 -0.9,2.9 -0.3,1 -0.7,2 -1.1,3.1 -0.4,1 -0.8,2.1 -1.2,3.1 -0.4,1.1 -0.9,2.1 -1.3,3.1 -0.5,1 -0.9,2 -1.4,3 -0.9,1.9 -1.9,3.6 -2.8,5.1 -0.9,1.5 -1.7,2.6 -2.3,3.5 -0.6,0.8 -1,1.3 -1,1.3 -2.5,2.8 -6.9,3 -9.699999,0.5 -1.6,-1.4 -2.3,-3.5 -2.3,-5.4 0,0 0,-0.6 0.2,-1.6 0.1,-1 0.4,-2.4 0.8,-4.1 0.4,-1.7 0.9,-3.6 1.6,-5.6 0.3,-1 0.7,-2 1.099999,-3.1 0.4,-1 0.8,-2.1 1.3,-3.1 0.4,-1 0.9,-2.1 1.4,-3.1 0.5,-1 0.9,-2 1.4,-2.9 0.5,-0.9 1,-1.9 1.4,-2.7 0.5,-0.9 0.9,-1.7 1.4,-2.4 0.9,-1.5 1.7,-2.7 2.3,-3.5 0.3,-0.4 0.5,-0.7 0.7,-0.9 l 0.3,-0.3 c 2.3,-2.9 6.5,-3.4 9.5,-1.1 1.7,1.3 2.6,3.6 2.3,5.8 z m -36.699999,-11.1 c 0,0 0,0.1 0.1,0.4 0.1,0.3 0.2,0.7 0.3,1.2 0.3,1 0.6,2.5 1,4.3 0.2,0.9 0.3,1.8 0.5,2.9 0.2,1 0.3,2.1 0.4,3.2 0.1,1.1 0.2,2.3 0.4,3.4 0.1,1.2 0.2,2.4 0.2,3.5 0.1,1.2 0.1,2.4 0.1,3.5 v 3.4 c 0,2.2 -0.2,4.3 -0.4,6.1 -0.2,1.8 -0.4,3.3 -0.7,4.3 -0.2,1.1 -0.4,1.7 -0.4,1.7 -1,3.6 -4.8,5.7 -8.4,4.7 -2.100003,-0.6 -3.700003,-2.2 -4.500003,-4.1 0,0 -0.2,-0.6 -0.5,-1.6 -0.3,-1 -0.7,-2.5 -1,-4.3 -0.4,-1.8 -0.7,-3.8 -0.9,-6.1 -0.1,-1.1 -0.2,-2.3 -0.3,-3.4 -0.1,-1.2 -0.2,-2.4 -0.2,-3.5 -0.1,-1.2 -0.1,-2.4 -0.1,-3.5 v -3.4 c 0,-1.1 0.1,-2.2 0.1,-3.2 0.1,-1 0.1,-2 0.2,-2.9 0.2,-1.8 0.4,-3.3 0.6,-4.3 0.1,-0.5 0.2,-0.9 0.2,-1.2 0.1,-0.3 0.1,-0.4 0.1,-0.4 0.8,-3.6 4.4,-5.9 8.000003,-5.1 2.7,0.5 4.4,2.2 5.2,4.4 z m 63.399999,38.1 c 0,0 -0.1,0.1 -0.2,0.3 -0.1,0.2 -0.3,0.5 -0.5,0.8 -0.5,0.7 -1.1,1.7 -2,2.8 -0.4,0.6 -0.9,1.1 -1.5,1.7 -0.5,0.6 -1.1,1.2 -1.7,1.9 -0.6,0.6 -1.2,1.3 -1.9,1.9 -0.7,0.6 -1.3,1.3 -2,1.9 l -2.1,1.8 c -0.7,0.6 -1.4,1.1 -2.1,1.6 -1.4,1 -2.8,1.9 -4,2.6 -1.2,0.7 -2.3,1.2 -3.1,1.5 -0.8,0.3 -1.3,0.5 -1.3,0.5 -3.7,1.2 -7.7,-0.9 -8.8,-4.6 -0.6,-1.8 -0.4,-3.6 0.4,-5.2 0,0 0.2,-0.5 0.7,-1.2 0.4,-0.7 1.1,-1.7 2,-2.8 0.9,-1.1 1.9,-2.4 3.2,-3.6 0.6,-0.6 1.3,-1.2 1.9,-1.9 l 2.1,-1.8 c 0.7,-0.6 1.4,-1.2 2.1,-1.7 0.7,-0.6 1.4,-1.1 2.2,-1.6 0.7,-0.5 1.4,-1 2.1,-1.4 0.7,-0.4 1.3,-0.8 1.9,-1.2 1.2,-0.7 2.3,-1.2 3.1,-1.6 0.4,-0.2 0.7,-0.3 0.9,-0.4 0.2,-0.1 0.3,-0.1 0.3,-0.1 3.5,-1.4 7.5,0.4 8.9,3.9 0.6,2 0.4,4.2 -0.6,5.9 z m -129.500002,-9.4 c 0,0 0.1,0 0.3,0.1 0.2,0.1 0.5,0.2 0.9,0.4 0.8,0.3 1.9,0.8 3.1,1.5 0.6,0.3 1.3,0.7 2,1.1 0.7,0.4 1.4,0.9 2.1,1.4 0.7,0.5 1.5,1 2.2,1.5 0.7,0.6 1.5,1.1 2.2,1.7 l 2.1,1.8 c 0.7,0.6 1.3,1.2 2,1.8 1.2,1.2 2.3,2.4 3.2,3.5 0.9,1.1 1.6,2.1 2.1,2.8 0.5,0.7 0.7,1.2 0.7,1.2 1.8,3.5 0.4,7.7 -3,9.5 -1.7,0.8 -3.5,1 -5.2,0.5 0,0 -0.5,-0.1 -1.3,-0.5 -0.8,-0.3 -1.9,-0.8 -3.1,-1.5 -1.2,-0.7 -2.7,-1.5 -4.1,-2.5 -0.7,-0.5 -1.4,-1 -2.2,-1.6 -0.7,-0.6 -1.4,-1.1 -2.2,-1.7 l -2.1,-1.8 c -0.7,-0.6 -1.3,-1.2 -1.9,-1.9 -0.6,-0.6 -1.2,-1.2 -1.7,-1.8 -0.5,-0.6 -1,-1.2 -1.5,-1.7 -0.9,-1.1 -1.6,-2 -2.1,-2.7 -0.2,-0.3 -0.4,-0.6 -0.5,-0.8 -0.1,-0.2 -0.2,-0.3 -0.2,-0.3 -1.9999997,-3.2 -0.9,-7.4 2.3,-9.4 1.9,-1.2 4,-1.3 5.9,-0.6 z" id="path49"/>
  </g>
</svg>