<svg xmlns="http://www.w3.org/2000/svg" xmlns:xlink="http://www.w3.org/1999/xlink" version="1.2" viewBox="0 0 300 331" baseProfile="tiny-ps">
  <title>Databricks</title>
  <path d="M283.923,136.449l-133.779,77.175L6.89,131.168L0,134.982v59.862l150.144,86.271l133.779-76.881  v31.692L150.144,313.1L6.89,230.644L0,234.458v10.271L150.144,331L300,244.729v-59.862l-6.89-3.815l-142.966,82.163L16.077,186.334  v-31.691l134.067,76.881L300,145.253V86.271l-7.464-4.402l-142.392,81.869L22.966,90.966L150.144,17.9l104.497,60.155l9.187-5.282  v-7.336L150.144,0L0,86.271v9.39l150.144,86.272l133.779-77.175V136.449z" fill="#FF3621"/>
</svg>