<svg version="1.2" baseProfile="tiny-ps" width="125" height="125" viewBox="0 0 125 125" fill="none" xmlns="http://www.w3.org/2000/svg"><title>Sumissura</title><path fill="#F3D0CA" d="M0 0h125v125H0z"/><path d="M11.0625 63.8433c-2.2877.0057-3.74239.8512-2.74084 2.8471.21137.332.46241.629.72995.8813C10.1038 68.5476 11.5467 69 13.1612 69c1.7367 0 3.3263-.4287 4.3545-1.4283.6602-.6429 1.1006-1.5242 1.1006-2.7143 0-1.9526-1.4675-3.1904-3.4735-3.5004-1.2476-.1905-1.5655-.2142-2.7151-.3573-.685-.0953-1.468-.3574-1.468-1.2381 0-.6429.4404-1.0955.9784-1.3094.4647-.1905.8811-.1905 1.3212-.1905.6362 0 1.2969.2142 1.6632.5718.2939.3095.5139.6902.5139 1.1665h2.9109c0-.9049-.4401-1.8336-1.1249-2.548-.93-.976-2.4713-1.452-3.9877-1.452-1.5896 0-2.9357.4523-3.86545 1.2381-.75775.6428-1.29631 1.5241-1.29631 2.7859 0 1.5715 1.17441 2.9521 2.91116 3.3092 1.1254.2385 2.3971.31 3.5223.4766.7827.1189 1.272.5949 1.272 1.3091 0 1.3573-1.5653 1.5715-2.5926 1.5715-3.88923 0-3.80613-2.1822-2.1233-2.8471ZM74.4083 63.8433c-2.2875.0057-3.7422.8512-2.7406 2.8471.2114.332.4621.629.7296.8813C73.4499 68.5477 74.893 69 76.5069 69c1.7367 0 3.3263-.4287 4.3545-1.4283.6599-.6429 1.1006-1.5242 1.1006-2.7143 0-1.9525-1.4674-3.1903-3.4734-3.5004-1.2477-.1905-1.5653-.2141-2.7151-.3573-.6854-.0953-1.468-.3574-1.468-1.2381 0-.6429.4404-1.0955.9784-1.3094.4647-.1905.881-.1905 1.3215-.1905.6355 0 1.2963.2142 1.6625.5718.2936.3095.514.6902.514 1.1665h2.9108c0-.9049-.4401-1.8336-1.1249-2.548-.9297-.976-2.4713-1.452-3.9871-1.452-1.5902 0-2.9357.4524-3.8654 1.2381-.7584.6428-1.2963 1.5241-1.2963 2.7859 0 1.5715 1.1735 2.9522 2.9102 3.3092 1.1261.2385 2.3978.3101 3.5232.4766.7827.1189 1.272.595 1.272 1.3091 0 1.3573-1.5659 1.5715-2.5935 1.5715-3.8883 0-3.8052-2.1822-2.1226-2.8471ZM62.7119 63.8433c-2.288.0057-3.7421.8512-2.7411 2.8471.2114.332.4621.629.7299.8813 1.052.976 2.4945 1.4283 4.1096 1.4283 1.7367 0 3.3269-.4287 4.3545-1.4283.6605-.6429 1.1006-1.5242 1.1006-2.7143 0-1.9525-1.468-3.1903-3.474-3.5004-1.2477-.1905-1.5653-.2141-2.7151-.3573-.6842-.0953-1.4674-.3574-1.4674-1.2381 0-.6429.4401-1.0955.9783-1.3094.4648-.1905.8811-.1905 1.3207-.1905.6361 0 1.2972.2142 1.6637.5718.2936.3095.5134.6902.5134 1.1665h2.9114c0-.9049-.4404-1.8336-1.1249-2.548-.9297-.976-2.4713-1.452-3.9879-1.452-1.5897 0-2.9352.4524-3.8649 1.2381-.7584.6428-1.2963 1.5241-1.2963 2.7859 0 1.5715 1.1741 2.9522 2.9108 3.3092 1.1255.2385 2.3972.3101 3.5221.4766.7832.1189 1.2719.595 1.2719 1.3091 0 1.3573-1.5653 1.5715-2.5923 1.5715-3.8889 0-3.8058-2.1822-2.123-2.8471ZM31.7913 67.1092c-.4818 0-.9378-.4459-.9378-1.0481v-9.7516h-3.0576v6.5474c0 1.0008-.1961 2.1194-.9298 2.7859-.3671.3574-.8562.6192-1.5653.6192-1.6145 0-2.2017-.9049-2.2017-2.3575v-7.595h-3.0579v8.2621c0 2.6427 1.6877 4.4284 4.4031 4.4284 1.6145 0 3.0333-.7139 3.6449-1.9283 0 .9501 1.2899 1.7654 2.2613 1.7654 2.3929 0 2.2064-2.1777 2.2064-2.1777s-.1624.4498-.7656.4498ZM117.997 66.731s-.163.4492-.767.4492c-1.043 0-1.133-.9593-1.133-1.561v-4.5958c0-.8334-.049-1.7141-.367-2.4996-.733-1.8573-2.593-2.5238-4.77-2.5238-2.838 0-5.113 1.2381-5.284 4.0237h2.96c.074-1.1434.906-1.762 2.324-1.762 1.737 0 2.153.7855 2.153 1.9525v.7618l-3.743.2621c-2.422.1663-4.305 1.5236-4.305 3.8808 0 2.0241 1.565 3.8811 4.599 3.8811 1.81 0 3.278-.857 3.865-1.8573 0 .9507 1.29 1.766 2.261 1.766 2.393 0 2.207-2.1777 2.207-2.1777Zm-4.884-2.9691c0 1.833-1.345 2.8332-3.254 2.8332-.954 0-1.81-.5949-1.81-1.5472 0-1.0002.906-1.5478 1.835-1.6194l3.229-.2379v.5713ZM95.1376 67.1092c-.4824 0-.9381-.4459-.9381-1.0481v-9.7516h-3.0574v6.5474c0 1.0008-.1969 2.1194-.9297 2.7859-.3677.3574-.8568.6192-1.5659.6192-1.6151 0-2.2017-.9049-2.2017-2.3575v-7.595h-3.0579v8.2621c0 2.6427 1.688 4.4284 4.4031 4.4284 1.6146 0 3.0336-.7139 3.6455-1.9283 0 .9501 1.2899 1.7654 2.261 1.7654 2.3923 0 2.2061-2.1777 2.2061-2.1777s-.1621.4498-.765.4498ZM104.576 57.0276c-.686-.6688-1.489-.752-2.362-.6215-1.194.1872-1.734.5984-2.212 1.7603l-.2692-1.8572h-2.5935v12.3814h3.0827v-6.2384c0-1.7586.872-3.1297 2.546-3.4352.678-.1432 1.161.1079 1.387.3765.382.4546-.031 1.5836-.031 1.5836s2.144-2.3025.452-3.9495ZM52.5592 67.0641c-.4818 0-.9381-.4458-.9381-1.0476v-5.6833c0-2.5712-1.4188-4.3332-4.1339-4.3332-1.7121 0-3.082.7381-3.8403 2.0241C43.0108 56.7618 41.7877 56 40.0021 56c-1.6881 0-2.9112.8097-3.6206 1.9525l-.2446-1.643h-2.5443v12.3813h3.0336v-6.7625c0-1.5472.7827-3.3329 2.5194-3.3329 1.541 0 1.957.8807 1.957 2.4043v7.6908h3.0334v-6.7622c0-1.5472.7586-3.3329 2.495-3.3329 1.541 0 1.9568.8807 1.9568 2.4043v6.072c0 .9501.7652 1.7206 2.3702 1.7206 2.3934 0 2.3668-2.1777 2.3668-2.1777s-.1622.4495-.7656.4495ZM58.2291 67.0441c-.4818 0-.9375-.4459-.9375-1.0476v-9.687h-3.1069V67.072c0 .95.7653 1.7206 2.3703 1.7206 2.3928 0 2.4403-2.1975 2.4403-2.1975s-.1627.449-.7662.449Z" fill="#333"/></svg>
