<?xml version="1.0" encoding="UTF-8" standalone="yes"?>
<svg version="1.2" width="408" height="408" baseProfile="tiny-ps" xmlns="http://www.w3.org/2000/svg">
  <title>bimi-svg-tiny-12-ps</title>
  <path d="M0 0 C134.64 0 269.28 0 408 0 C408 134.64 408 269.28 408 408 C273.36 408 138.72 408 0 408 C0 273.36 0 138.72 0 0 Z " fill="#FAFAFC" transform="translate(0,0)"/>
  <path d="M0 0 C134.64 0 269.28 0 408 0 C408 0.33 408 0.66 408 1 C404.7 1.33 401.4 1.66 398 2 C397.8026123 2.71438232 397.60522461 3.42876465 397.40185547 4.16479492 C394.66182578 13.58723197 391.04496384 22.5250596 387.26849365 31.57043457 C379.91260084 49.20965744 372.82812508 66.94876646 365.875 84.75 C356.94188681 107.60481361 347.8679573 130.40109925 338.74225998 153.17963409 C335.63713185 160.93057852 332.53345576 168.68210471 329.4296875 176.43359375 C329.1007015 177.25517975 328.77171551 178.07676575 328.43276024 178.92324829 C318.05978252 204.82965053 307.73049439 230.75185912 297.75 256.8125 C297.48764557 257.49697205 297.22529114 258.18144409 296.95498657 258.88665771 C289.88491044 277.33680827 289.88491044 277.33680827 284 296.1875 C283.75362793 297.06172607 283.50725586 297.93595215 283.25341797 298.83666992 C280.72575361 307.86184226 278.34379041 316.92559021 276 326 C272.97561242 323.50076426 272.26600831 321.19763018 271.31640625 317.44140625 C271.02830078 316.33216797 270.74019531 315.22292969 270.44335938 314.08007812 C270.15267578 312.91927734 269.86199219 311.75847656 269.5625 310.5625 C267.58562977 302.80161844 265.49110597 295.16958793 262.84741211 287.60595703 C262.0580456 285.1785015 261.49258415 282.81438678 261 280.3125 C260.37790464 277.24863553 259.47341934 274.60697377 258.16040039 271.77148438 C256.143132 267.33600479 254.26528094 262.8585552 252.43359375 258.34375 C252.11342789 257.55657593 251.79326202 256.76940186 251.46339417 255.95837402 C250.7929325 254.30834034 250.12325753 252.6579868 249.4543457 251.00732422 C248.43948767 248.50490117 247.42005382 246.00437453 246.40039062 243.50390625 C245.74451154 241.88813451 245.08890349 240.27225273 244.43359375 238.65625 C244.13351913 237.92160522 243.83344452 237.18696045 243.52427673 236.43005371 C241.72638677 231.97850198 240.11800545 227.49615848 238.63586426 222.92955017 C237.86842615 220.60073501 236.99156491 218.33133232 236.0625 216.0625 C235.7221875 215.22460938 235.381875 214.38671875 235.03125 213.5234375 C234.6909375 212.69070312 234.350625 211.85796875 234 211 C233.35235763 209.39656283 232.70653356 207.79239008 232.0625 206.1875 C231.56943359 204.95966797 231.56943359 204.95966797 231.06640625 203.70703125 C229.8456076 200.60808082 228.67540273 197.49143476 227.5 194.375 C226.13201673 190.78979613 224.73471214 187.32753545 222.9375 183.9375 C220.76762239 179.79817524 219.42786782 175.45540149 218 171.015625 C216.53325636 166.59247622 214.77279891 162.30734736 213 158 C212.3315329 156.33405464 211.66487513 154.66738216 211 153 C210.67 152.175 210.34 151.35 210 150.5 C209 148 208 145.5 207 143 C206.67 142.17628906 206.34 141.35257813 206 140.50390625 C205.32974391 138.82564783 204.6631125 137.14593755 204 135.46484375 C202.39640227 131.41200104 200.74798615 127.40267119 198.9375 123.4375 C197.29367252 119.79165695 195.99937145 116.11729975 194.77734375 112.3125 C193.37312574 108.13512784 191.66536046 104.07856202 190 100 C189.3319891 98.33387165 188.66531692 96.66720593 188 95 C187.66871094 94.17242187 187.33742187 93.34484375 186.99609375 92.4921875 C186.34064552 90.85228174 185.68695087 89.21167384 185.03515625 87.5703125 C183.29521475 83.19600174 181.52175868 78.83832449 179.703125 74.49609375 C176.99058485 67.99278 174.32395525 61.47200316 171.6875 54.9375 C171.23310547 53.82439453 170.77871094 52.71128906 170.31054688 51.56445312 C169.88193359 50.50033203 169.45332031 49.43621094 169.01171875 48.33984375 C168.62459717 47.38456787 168.23747559 46.42929199 167.83862305 45.44506836 C167 43 167 43 167 40 C166.34 40 165.68 40 165 40 C164.97104024 36.87501937 164.95321517 33.7500731 164.9375 30.625 C164.92912109 29.73554688 164.92074219 28.84609375 164.91210938 27.9296875 C164.90888672 27.07890625 164.90566406 26.228125 164.90234375 25.3515625 C164.89710693 24.56604004 164.89187012 23.78051758 164.88647461 22.97119141 C165 21 165 21 166 19 C166.66 19 167.32 19 168 19 C168.09023437 18.25878906 168.18046875 17.51757812 168.2734375 16.75390625 C169.12778539 13.51565215 170.2400423 12.25339522 172.625 9.9375 C173.27726563 9.28652344 173.92953125 8.63554687 174.6015625 7.96484375 C177 6 177 6 184 2 C147.04 2 110.08 2 72 2 C73.98 3.65 75.96 5.3 78 7 C80 10 80 10 80 14 C69.11 14 58.22 14 47 14 C47 14.99 47 15.98 47 17 C31.49 17 15.98 17 0 17 C0 11.39 0 5.78 0 0 Z " fill="#2B59AA" transform="translate(0,0)"/>
  <path d="M0 0 C0.33 0 0.66 0 1 0 C1 80.19 1 160.38 1 243 C-31.67 243 -64.34 243 -98 243 C-95.76923077 231.84615385 -95.76923077 231.84615385 -93.75 227.875 C-91.55899398 223.32544044 -89.72900694 218.7375678 -88 214 C-85.98635717 208.50789793 -83.77025559 203.20336446 -81.28125 197.90625 C-79.70127118 194.3223956 -78.34852798 190.67593668 -77 187 C-74.985331 181.5082373 -72.77029984 176.20345863 -70.28125 170.90625 C-68.70127118 167.3223956 -67.34852798 163.67593668 -66 160 C-63.985331 154.5082373 -61.77029984 149.20345863 -59.28125 143.90625 C-57.43068996 139.70863821 -55.86402121 135.41381283 -54.31835938 131.09570312 C-52.95044402 127.33104593 -51.42520679 123.69014627 -49.7421875 120.0546875 C-46.27317006 112.51908137 -43.22143638 104.81890895 -40.125 97.125 C-39.46372134 95.48736201 -38.80217605 93.84983166 -38.14038086 92.21240234 C-36.76974796 88.82042393 -35.4002456 85.42799278 -34.03173828 82.03515625 C-25.80295932 61.63722176 -17.53430323 41.2551725 -9.20724487 20.89715576 C-8.48888483 19.14005719 -7.77136824 17.38261353 -7.05471802 15.62481689 C-6.06237351 13.19157244 -5.06680203 10.75967432 -4.0703125 8.328125 C-3.62456627 7.23257797 -3.62456627 7.23257797 -3.16981506 6.11489868 C-1.11432366 1.11432366 -1.11432366 1.11432366 0 0 Z " fill="#2C59AA" transform="translate(407,165)"/>
  <path d="M0 0 C60.06 0 120.12 0 182 0 C182 1.32 182 2.64 182 4 C195.86 4 209.72 4 224 4 C224 5.32 224 6.64 224 8 C224.66 8 225.32 8 226 8 C226.67031719 9.9570868 227.33614683 11.91571113 228 13.875 C228.37125 14.96554687 228.7425 16.05609375 229.125 17.1796875 C230 20 230 20 230 22 C218.45 22 206.9 22 195 22 C195 23.32 195 24.64 195 26 C130.65 26 66.3 26 0 26 C0 17.42 0 8.84 0 0 Z " fill="#414143" transform="translate(0,360)"/>
  <path d="M0 0 C55.77 0 111.54 0 169 0 C169 1.32 169 2.64 169 4 C182.53 4 196.06 4 210 4 C216 19 216 19 216 22 C204.45 22 192.9 22 181 22 C181 23.32 181 24.64 181 26 C121.27 26 61.54 26 0 26 C0 17.42 0 8.84 0 0 Z " fill="#434345" transform="translate(0,326)"/>
  <path d="M0 0 C51.15 0 102.3 0 155 0 C155 1.32 155 2.64 155 4 C168.86 4 182.72 4 197 4 C201 13 201 13 202 22 C190.78 22 179.56 22 168 22 C168 23.32 168 24.64 168 26 C112.56 26 57.12 26 0 26 C0 17.42 0 8.84 0 0 Z " fill="#444446" transform="translate(0,293)"/>
  <path d="M0 0 C46.86 0 93.72 0 142 0 C142 1.32 142 2.64 142 4 C155.53 4 169.06 4 183 4 C186 12 186 12 188 22 C176.78 22 165.56 22 154 22 C154 23.32 154 24.64 154 26 C103.18 26 52.36 26 0 26 C0 17.42 0 8.84 0 0 Z " fill="#444446" transform="translate(0,259)"/>
  <path d="M0 0 C42.24 0 84.48 0 128 0 C128 1.32 128 2.64 128 4 C129.84730713 3.97643433 129.84730713 3.97643433 131.73193359 3.95239258 C136.29029835 3.89819411 140.8486345 3.86368678 145.40722656 3.83520508 C147.38221013 3.82009538 149.35716004 3.79960672 151.33203125 3.77368164 C154.16675106 3.73739381 157.00102826 3.72029584 159.8359375 3.70703125 C160.72243988 3.69154739 161.60894226 3.67606354 162.52230835 3.66011047 C163.34300812 3.65988388 164.16370789 3.65965729 165.00927734 3.65942383 C165.73319672 3.65276199 166.45711609 3.64610016 167.20297241 3.63923645 C169 4 169 4 171 7 C171.50254546 8.88454547 172.00458176 10.77012702 172.4375 12.671875 C173.19479886 15.80625086 174.11414412 18.8995044 175 22 C163.78 22 152.56 22 141 22 C141 23.32 141 24.64 141 26 C94.47 26 47.94 26 0 26 C0 17.42 0 8.84 0 0 Z " fill="#464648" transform="translate(0,226)"/>
  <path d="M0 0 C37.95 0 75.9 0 115 0 C115 1.32 115 2.64 115 4 C128.53 4 142.06 4 156 4 C159 10 159 10 161 21 C149.78 21 138.56 21 127 21 C127 22.32 127 23.64 127 25 C85.09 25 43.18 25 0 25 C0 16.75 0 8.5 0 0 Z " fill="#404042" transform="translate(0,193)"/>
  <path d="M0 0 C33.66 0 67.32 0 102 0 C102 1.32 102 2.64 102 4 C115.2 4 128.4 4 142 4 C148 16 148 16 149 23 C137.78 23 126.56 23 115 23 C115 23.99 115 24.98 115 26 C77.05 26 39.1 26 0 26 C0 17.42 0 8.84 0 0 Z " fill="#48484A" transform="translate(0,159)"/>
  <path d="M0 0 C64.68 0 129.36 0 196 0 C196 0.99 196 1.98 196 3 C209.53 3 223.06 3 237 3 C238.98 8.445 238.98 8.445 241 14 C161.47 14 81.94 14 0 14 C0 9.38 0 4.76 0 0 Z " fill="#414142" transform="translate(0,394)"/>
  <path d="M0 0 C29.04 0 58.08 0 88 0 C88 1.32 88 2.64 88 4 C101.2 4 114.4 4 128 4 C135 18 135 18 135 22 C124.11 22 113.22 22 102 22 C102 23.32 102 24.64 102 26 C68.34 26 34.68 26 0 26 C0 17.42 0 8.84 0 0 Z " fill="#454546" transform="translate(0,126)"/>
  <path d="M0 0 C24.75 0 49.5 0 75 0 C75 1.32 75 2.64 75 4 C87.87 4 100.74 4 114 4 C121 17 121 17 121 22 C110.11 22 99.22 22 88 22 C88 23.32 88 24.64 88 26 C58.96 26 29.92 26 0 26 C0 17.42 0 8.84 0 0 Z " fill="#444446" transform="translate(0,92)"/>
  <path d="M0 0 C20.13 0 40.26 0 61 0 C61 1.32 61 2.64 61 4 C74.2 4 87.4 4 101 4 C107 16 107 16 108 22 C97.11 22 86.22 22 75 22 C75 23.32 75 24.64 75 26 C50.25 26 25.5 26 0 26 C0 17.42 0 8.84 0 0 Z " fill="#454547" transform="translate(0,59)"/>
  <path d="M0 0 C15.84 0 31.68 0 48 0 C48 1.32 48 2.64 48 4 C60.87 4 73.74 4 87 4 C92 14 92 14 94 22 C83.11 22 72.22 22 61 22 C61 23.32 61 24.64 61 26 C40.87 26 20.74 26 0 26 C0 17.42 0 8.84 0 0 Z " fill="#414143" transform="translate(0,25)"/>
  <path d="M0 0 C1.30177689 -0.00953201 2.60355377 -0.01906403 3.94477844 -0.02888489 C5.36837796 -0.0286234 6.79197749 -0.02768609 8.21557617 -0.02612305 C9.67665224 -0.03001087 11.13772718 -0.03434572 12.59880066 -0.03910828 C15.66290955 -0.0465719 18.72690323 -0.04627899 21.79101562 -0.04101562 C25.70842766 -0.03523189 29.62536521 -0.05212425 33.54269886 -0.0753603 C36.5616886 -0.09013119 39.5805651 -0.09096461 42.59958458 -0.08785057 C44.04320907 -0.08836247 45.48684012 -0.09357549 46.93042946 -0.10366249 C48.9548847 -0.11606818 50.97943584 -0.10727315 53.00390625 -0.09765625 C54.72907219 -0.09860039 54.72907219 -0.09860039 56.48908997 -0.0995636 C61.37098067 0.47010762 65.44653686 2.36268258 68.57104492 6.2121582 C70.69604492 9.2746582 70.69604492 9.2746582 70.69604492 13.2746582 C59.80604492 13.2746582 48.91604492 13.2746582 37.69604492 13.2746582 C37.69604492 14.2646582 37.69604492 15.2546582 37.69604492 16.2746582 C22.18604492 16.2746582 6.67604492 16.2746582 -9.30395508 16.2746582 C-9.30395508 11.6546582 -9.30395508 7.0346582 -9.30395508 2.2746582 C-5.75013172 -0.09455737 -4.2159731 0.01692449 0 0 Z " fill="#434345" transform="translate(9.303955078125,0.725341796875)"/>
  <path d="M0 0 C134.64 0 269.28 0 408 0 C408 0.33 408 0.66 408 1 C407.14417145 1.00173625 406.2883429 1.0034725 405.40658015 1.00526136 C354.72749938 1.10820155 304.04843184 1.21629496 253.36937652 1.33111694 C247.28962675 1.34488717 241.20987688 1.35861417 235.13012695 1.37231445 C233.9197149 1.37504276 232.70930285 1.37777106 231.46221165 1.38058204 C211.84156911 1.42470436 192.2209208 1.46532168 172.60026815 1.50465261 C152.480374 1.54506199 132.36049062 1.58921724 112.24061233 1.63687855 C99.81711122 1.66618924 87.39361095 1.69254843 74.97009585 1.71517897 C66.4606342 1.7309591 57.95118572 1.75036473 49.44173869 1.77266841 C44.52604587 1.78544415 39.61036324 1.79657638 34.69465828 1.80341911 C30.19980599 1.80971114 25.70498877 1.82052612 21.2101557 1.8350333 C19.57889217 1.83948284 17.94762298 1.84223142 16.31635364 1.84316199 C14.10892096 1.84466292 11.90159092 1.85220578 9.69417858 1.8613348 C8.46502387 1.86399284 7.23586916 1.86665089 5.96946734 1.86938947 C2.94343077 1.86650349 2.94343077 1.86650349 0 3 C0 2.01 0 1.02 0 0 Z " fill="#1A4878" transform="translate(0,0)"/>
</svg>