<?xml version="1.0" encoding="utf-8"?>
<!-- Generator: Adobe Illustrator 27.2.0, SVG Export Plug-In . SVG Version: 6.00 Build 0)  -->
<svg version="1.2" baseProfile="tiny-ps" xmlns="http://www.w3.org/2000/svg" xmlns:xlink="http://www.w3.org/1999/xlink"  viewBox="0 0 400 400"  xml:space="preserve">
<title>Otrium</title>
<g id="Layer_3">
</g>
<g id="Layer_4">
</g>
<g id="Layer_5">
</g>
<g id="Layer_6">
</g>
<g id="Layer_7">
</g>
<g id="Layer_8">
	<rect width="400" height="400"/>
	<g>
		<g id="Group_5" transform="translate(1641.88 228.739)">
			<path id="Path_10" fill="#FFFFFF" d="M-1278.75-39.09c-2.03-2.74-6.2-4.57-10.46-4.57c-11.93,0-19.87,9.13-19.87,9.13
				c-0.35-1.88-0.92-3.26-1.78-4.45c-2.02-2.74-6.17-4.53-10.42-4.57c-11.84-0.11-18.11,6.61-19.77,9.04
				c0.12-5.44-0.03-7.62-0.03-7.62h-21.13c0,0,2.49,2.56,2.67,9.12l-0.14,42.08l18.59-0.03v-39.43c0,0,3.41-5.55,8.1-5.55
				c2.8,0,5.82,2.84,5.82,9.65l0,35.34l18.59-0.03l-0.05-40.05c1.03-1.42,3.95-4.96,7.7-4.96c2.8,0,5.82,2.84,5.82,9.65l0,35.37
				l18.46-0.03l0.14-37.25C-1276.51-33.9-1277.12-36.85-1278.75-39.09z"/>
			<path id="Path_11" fill="#FFFFFF" d="M-1289.21-43.16c4.08,0,8.13,1.76,10.07,4.37c1.56,2.15,2.14,5.01,2.14,10.58l-0.13,36.75
				l-17.47,0.02l0-34.88c0-7.01-3.17-10.14-6.31-10.14c-3.95,0-6.98,3.61-8.1,5.16l-0.09,0.13v0.16l0.05,39.56l-17.61,0.02l0-34.85
				c0-7.01-3.17-10.14-6.31-10.14c-4.91,0-8.38,5.54-8.52,5.78l-0.07,0.12V8.56l-17.6,0.02l0.14-41.6c-0.13-4.66-1.4-7.37-2.18-8.61
				h19.68c0.04,0.89,0.09,3.13,0.01,7.11l-0.04,1.66l0.93-1.37c0.62-0.9,6.4-8.83,19.07-8.82c0.1,0,0.19,0,0.29,0
				c4.1,0.04,8.13,1.79,10.03,4.37c0.83,1.15,1.37,2.5,1.7,4.25l0.19,1l0.67-0.77C-1308.63-34.29-1300.78-43.16-1289.21-43.16
				 M-1289.21-43.65c-11.93,0-19.87,9.13-19.87,9.13c-0.35-1.88-0.92-3.26-1.78-4.45c-2.02-2.74-6.17-4.53-10.42-4.57
				c-0.1,0-0.2,0-0.29,0c-11.65,0-17.83,6.63-19.48,9.04c0.12-5.44-0.03-7.62-0.03-7.62h-21.13c0,0,2.49,2.56,2.67,9.12l-0.14,42.08
				l18.59-0.03v-39.43c0,0,3.41-5.55,8.1-5.55c2.8,0,5.82,2.84,5.82,9.65l0,35.34l18.59-0.03l-0.05-40.05
				c1.03-1.42,3.95-4.96,7.7-4.96c2.8,0,5.82,2.84,5.82,9.65l0,35.37l18.46-0.03l0.14-37.25c0-5.69-0.61-8.64-2.24-10.87
				C-1280.78-41.83-1284.94-43.65-1289.21-43.65L-1289.21-43.65z"/>
		</g>
		<path id="Path_9_00000059309629795698694860000000597197869518876087_" fill="#FFFFFF" d="M254.99,226.05c0,0-3.41,5.55-8.1,5.55
			c-2.8,0-5.82-2.84-5.82-9.65v-35.33h-21.28c0,0,2.69,2.76,2.69,9.88v27.27c0,5.69,0.61,8.64,2.24,10.87
			c2.03,2.74,6.2,4.57,10.46,4.57c4.06,0,8.84-1.52,12.8-4.17c1.84-1.16,6.53-4.55,6.97-4.87c-0.12,5.44,0.03,7.62,0.03,7.62h18.46
			l0.13-51.17H252.3c0,0,2.69,2.76,2.69,9.88L254.99,226.05"/>
		<g id="Group_3" transform="translate(827.977 243.152)">
			<path id="Path_5" fill="#FFFFFF" d="M-634.75-56.54c0,0,2.69,2.76,2.69,9.88l-0.01,41.29h18.45l0-51.17L-634.75-56.54z"/>
			<path id="Path_6" fill="#FFFFFF" d="M-614.12-56.04l0,50.19h-17.47l0.01-40.8c0-5.14-1.37-8.07-2.2-9.39L-614.12-56.04
				 M-613.62-56.54h-21.13c0,0,2.69,2.76,2.69,9.88l-0.01,41.29h18.45L-613.62-56.54L-613.62-56.54z"/>
		</g>
		<g id="Group_2" transform="translate(831.713)">
			<path id="Path_3" fill="#FFFFFF" d="M-627.42,160.79c-5.88,0-10.68,4.8-10.68,10.58c0,7.49,7.79,13.23,15.68,9.51
				c2-0.95,3.59-2.58,4.49-4.6C-614.4,168.35-619.96,160.79-627.42,160.79z"/>
			<path id="Path_4" fill="#FFFFFF" d="M-627.42,161.28c3.41-0.01,6.6,1.71,8.46,4.57c1.94,2.98,2.15,6.71,0.58,10.23
				c-0.85,1.91-2.36,3.46-4.25,4.35c-1.5,0.72-3.13,1.1-4.8,1.11c-5.62-0.01-10.18-4.56-10.18-10.18
				C-637.6,165.81-633.03,161.28-627.42,161.28 M-627.42,160.79c-5.88,0-10.68,4.8-10.68,10.58c0,5.88,4.8,10.68,10.68,10.68
				c1.73-0.01,3.44-0.41,5.01-1.16c2-0.95,3.59-2.58,4.49-4.6C-614.4,168.35-619.96,160.79-627.42,160.79L-627.42,160.79z"/>
		</g>
		<g id="Group_4_00000156561123565588832740000017968229985232413604_" transform="translate(378.861 228.744)">
			<path id="Path_7_00000143576763723098611780000006221682158774829215_" fill="#FFFFFF" d="M-197.57-43.66
				c-11.59,0-15.23,12.75-15.23,12.75l0-11.22h-20.54c0,0,2.69,2.76,2.69,9.88l-0.01,41.29h18.45l-0.01-31.88
				c-0.13-3.98,1.01-6.56,2.53-8.92s4.71-1.92,5.22,0.28c0.72,3.09,2.88,6.1,7.58,6.15c5.85,0.06,9.46-4.37,9.15-9.55
				C-188.05-39.93-192.19-43.66-197.57-43.66z"/>
			<path id="Path_8_00000156587085138290786840000013497291971100351658_" fill="#FFFFFF" d="M-197.57-43.17
				c5.12,0,9.05,3.51,9.34,8.34c0.15,2.49-0.64,4.79-2.22,6.46c-1.58,1.68-3.76,2.56-6.32,2.56l-0.11,0
				c-5.02-0.05-6.61-3.64-7.1-5.77c-0.31-1.34-1.5-2.24-2.96-2.24c-1.25,0-2.43,0.67-3.15,1.8c-1.44,2.23-2.75,4.89-2.61,9.18
				l0.01,31.39h-17.47l0.01-40.8c0-5.14-1.37-8.07-2.2-9.39h19.07l0,10.72l0,3.51l0.97-3.38C-212.29-30.9-208.65-43.17-197.57-43.17
				 M-197.57-43.66c-11.59,0-15.23,12.75-15.23,12.75l0-11.22h-20.54c0,0,2.69,2.76,2.69,9.88l-0.01,41.29h18.45l-0.01-31.88
				c-0.13-3.98,1.01-6.56,2.53-8.92c0.7-1.08,1.76-1.58,2.74-1.58c1.15,0,2.21,0.67,2.48,1.86c0.72,3.09,2.88,6.11,7.58,6.15
				c0.04,0,0.08,0,0.12,0c5.78,0,9.34-4.41,9.03-9.55C-188.04-39.93-192.19-43.66-197.57-43.66L-197.57-43.66z"/>
		</g>
		<g id="Group_1" transform="translate(0 48.822)">
			<path id="Path_1" fill="#FFFFFF" d="M131.43,141.78h8.92l1.9-3.98h-10.82v-20.64h-1.42l-24.72,22.87v1.75l6.79,0.01v30.59
				c0,8.51,4.96,17.63,16.03,17.63c7.86,0,11.84-4.73,13.52-7.6l-0.73-0.75c-1.23,0.65-2.61,0.98-4.01,0.97
				c-2.76,0-5.46-2.66-5.46-7.08L131.43,141.78z"/>
			<path id="Path_2" fill="#FFFFFF" d="M130.94,117.64v20.64h10.53l-1.43,3h-9.1v34.24c0,4.92,3.07,7.58,5.95,7.58
				c1.35,0.01,2.68-0.28,3.9-0.86l0.21,0.22c-1.71,2.77-5.54,7.04-12.9,7.04c-4.91,0-8.99-1.88-11.78-5.44
				c-2.42-3.09-3.76-7.24-3.76-11.7v-31.08l-0.49,0l-6.3-0.01v-1.04l24.42-22.59L130.94,117.64 M131.43,117.15h-1.42l-24.72,22.87
				v1.75l6.79,0.01v30.59c0,8.51,4.96,17.63,16.03,17.63c7.86,0,11.84-4.73,13.52-7.6l-0.73-0.75c-1.23,0.65-2.61,0.98-4.01,0.97
				c-2.76,0-5.46-2.66-5.46-7.08v-33.75h8.92l1.9-3.98h-10.82L131.43,117.15L131.43,117.15z"/>
		</g>
		<path id="Path_12_00000152257420511906988950000002419927017320704925_" fill="#FFFFFF" d="M69.83,169.14
			c-19.24-0.2-35,15.24-35.2,34.49s15.24,35,34.49,35.2c19.24,0.2,35-15.24,35.2-34.49C104.51,185.09,89.07,169.33,69.83,169.14z
			 M87.24,195.01c-0.86,3.46-3.31,10.05-5.32,14.54c-4.08,9.13-8.22,15.75-12.29,19.79c-3.47,3.35-8.11,6.07-13.27,3.9
			c-5.88-2.47-6.09-7.65-5.91-12.47c0.26-5.65,2.47-13.22,6.55-22.35c4.08-9.13,8.25-15.83,12.29-19.79
			c3.47-3.35,7.88-6.3,13.2-4.06C89.58,177.55,89.84,185.02,87.24,195.01z"/>
	</g>
</g>
</svg>
