<?xml version="1.0" encoding="UTF-8" standalone="yes"?>
<svg baseProfile="tiny-ps" version="1.2" viewBox="0 0 283.5 283.5" xmlns="http://www.w3.org/2000/svg">
  <title>bimi-svg-tiny-12-ps</title>
  <g>
    <g id="Calque_1">
      <g>
        <path d="M103.8,154" fill="none" stroke="#5e7c2b" stroke-width="1.3"/>
        <path d="M102.6,165" fill="none" stroke="#5e7c2b" stroke-width="1.3"/>
        <polygon points="27.9 95.1 23 102.9 18.2 95.1 12.3 95.1 12.3 115.2 17.8 115.2 17.8 103.7 22.9 111.5 23 111.5 28.2 103.7 28.2 115.2 33.8 115.2 33.8 95.1 27.9 95.1" fill="#ea5b0c"/>
        <polygon points="37.3 95.1 37.3 115.2 53.6 115.2 53.6 110.5 42.8 110.5 42.8 107.3 52.5 107.3 52.5 102.9 42.8 102.9 42.8 99.8 53.5 99.8 53.5 95.1 37.3 95.1" fill="#ea5b0c"/>
        <polygon points="12.3 118.4 25.2 118.4 25.2 179.3 58.4 179.3 56.7 191 12.3 191 12.3 118.4" fill="#1d1d1b"/>
        <polygon points="48.9 118.4 58.6 118.4 55.5 135.6 45.9 135.6 48.9 118.4" fill="#1d1d1b"/>
        <polygon points="69.6 118.4 82.5 118.4 72.4 191 59.4 191 69.6 118.4" fill="#ea5b0c"/>
        <polygon points="84.7 118.4 101.8 118.4 136.9 172.3 137.1 172.3 137.1 118.4 150.1 118.4 150.1 191 133.7 191 97.8 135.3 97.6 135.3 97.6 191 84.7 191 84.7 118.4" fill="#1d1d1b"/>
        <g>
          <path d="M65.7,99.9h-3.7v4.8h3.7c1.9,0,3-.9,3-2.4h0c0-1.6-1.2-2.4-3-2.4Z" fill="none"/>
          <path d="M74.3,102h0c0-2-.6-3.6-1.8-4.8-1.4-1.4-3.5-2.2-6.6-2.2h-9.5v20.2h5.6v-6.1h2.4l4.1,6.1h6.4l-4.8-7c2.5-1.1,4.1-3.1,4.1-6.2ZM68.7,102.4c0,1.5-1.1,2.4-3,2.4h-3.7v-4.8h3.7c1.9,0,3,.8,3,2.4h0Z" fill="#ea5b0c"/>
          <path d="M86.7,110.5c-2.8,0-4.8-2.4-4.8-5.4h0c0-3,2-5.4,4.8-5.4s3.3.9,4.4,2.4l4.2-3.3c-1.8-2.5-4.4-4.2-8.6-4.2-6.1,0-10.6,4.6-10.6,10.5h0c0,6.1,4.6,10.5,10.4,10.5s7-1.9,8.9-4.5l-4.2-3c-1.2,1.5-2.4,2.4-4.5,2.4Z" fill="#ea5b0c"/>
        </g>
        <g>
          <path d="M129.2,102.5h0c0-1.8-1.2-2.7-3.2-2.7h-2.6v5.3h2.6c2,0,3.2-1,3.2-2.6Z" fill="none"/>
          <path d="M152.1,105.2h0c0-3-2.1-5.5-5.2-5.5s-5.1,2.5-5.1,5.4h0c0,3,2.1,5.5,5.2,5.5s5.1-2.5,5.1-5.4Z" fill="none"/>
          <path d="M191,99.9h-3.7v4.8h3.7c1.9,0,3-.9,3-2.4h0c0-1.6-1.2-2.4-3-2.4Z" fill="none"/>
          <path d="M126.1,109.5c5,0,8.7-2.5,8.7-7.3h0c0-4.5-3.3-7.1-8.4-7.1h-8.6v20.2h5.6v-5.8h2.8ZM123.4,99.8h2.6c2,0,3.2.9,3.2,2.6h0c0,1.6-1.2,2.7-3.2,2.7h-2.6v-5.3Z" fill="#ea5b0c"/>
          <path d="M157.8,105.1h0c0-5.8-4.6-10.5-10.8-10.5s-10.9,4.7-10.9,10.5h0c0,5.8,4.6,10.5,10.8,10.5s10.9-4.7,10.9-10.5ZM141.9,105.1h0c0-3,2-5.4,5.1-5.4s5.2,2.5,5.2,5.4h0c0,3-2,5.4-5.1,5.4s-5.2-2.5-5.2-5.4Z" fill="#ea5b0c"/>
          <path d="M159.9,95.1v11.3c0,6.3,3.6,9.2,9.3,9.2s9.4-2.9,9.4-9.4v-11.2h-5.7v11.3c0,2.8-1.5,4.1-3.7,4.1s-3.7-1.4-3.7-4.3v-11.2h-5.7Z" fill="#ea5b0c"/>
          <path d="M199.6,102h0c0-2-.6-3.6-1.8-4.8-1.4-1.4-3.5-2.2-6.6-2.2h-9.5v20.2h5.6v-6.1h2.4l4.1,6.1h6.4l-4.8-7c2.5-1.1,4.1-3.1,4.1-6.2ZM194,102.4c0,1.5-1.1,2.4-3,2.4h-3.7v-4.8h3.7c1.9,0,3,.8,3,2.4h0Z" fill="#ea5b0c"/>
        </g>
        <g>
          <path d="M252,135.8c-2.2-2.4-4.8-4.2-7.9-5.5-3.1-1.3-6.5-2-10.3-2s-7.2.7-10.2,2c-3,1.3-5.7,3.2-7.8,5.5-2.2,2.4-3.9,5.1-5.1,8.3-1.2,3.1-1.8,6.5-1.8,10.1s.6,7.5,1.8,10.8c1.2,3.3,2.9,6.1,5.1,8.5,2.2,2.4,4.8,4.3,7.8,5.6,3,1.4,6.4,2,10.2,2s7.2-.7,10.3-2c3.1-1.4,5.7-3.2,7.9-5.6,2.2-2.4,3.9-5.2,5.1-8.5,1.2-3.3,1.8-6.9,1.8-10.8s-.6-7-1.8-10.1c-1.2-3.1-2.9-5.9-5.1-8.3Z" fill="none"/>
          <path d="M272.4,154.6c0-5.8-1-11.1-2.9-15.8-1.9-4.7-4.6-8.7-8-12.1-3.4-3.3-7.5-5.9-12.2-7.6-4.7-1.7-9.9-2.6-15.6-2.5-5.6,0-10.7.9-15.4,2.7-4.7,1.8-8.7,4.4-12.1,7.7-3.4,3.3-6,7.4-7.9,12.1-1.3,3.1-2.1,6.4-2.5,10h-29.6v-19.1h33.9v-11.7h-46.9v72.6h12.9v-30.1h29.6c.4,3.4,1.3,6.6,2.5,9.6,1.9,4.6,4.6,8.6,7.9,11.9,3.4,3.3,7.4,5.9,12.1,7.7,4.7,1.8,9.8,2.7,15.4,2.7,5.7,0,10.9-1,15.6-2.9,4.7-1.9,8.8-4.5,12.2-7.8,3.4-3.3,6.1-7.3,8-12,1.9-4.6,2.9-9.8,2.9-15.5h0ZM257.1,165c-1.2,3.3-2.9,6.1-5.1,8.5-2.2,2.4-4.8,4.3-7.9,5.6-3.1,1.4-6.5,2-10.3,2s-7.2-.7-10.2-2c-3-1.4-5.7-3.2-7.8-5.6-2.2-2.4-3.9-5.2-5.1-8.5-1.2-3.3-1.8-6.9-1.8-10.8s.6-7,1.8-10.1c1.2-3.1,2.9-5.9,5.1-8.3,2.2-2.4,4.8-4.2,7.8-5.5,3-1.3,6.4-2,10.2-2s7.2.7,10.3,2c3.1,1.3,5.7,3.2,7.9,5.5,2.2,2.4,3.9,5.1,5.1,8.3,1.2,3.1,1.8,6.5,1.8,10.1s-.6,7.5-1.8,10.8Z" fill="#1d1d1b"/>
        </g>
        <rect x="97.6" y="95.1" width="5.6" height="20.2" fill="#ea5b0c"/>
      </g>
    </g>
  </g>
</svg>