<?xml version="1.0" encoding="UTF-8" standalone="yes"?>
<svg baseProfile="tiny-ps" version="1.2" viewBox="0 0 283.5 283.5"
  xmlns="http://www.w3.org/2000/svg">
  <title>Distant Journeys</title>
  <g>
    <path
      d="M72.2,115.1h-5l-1.7-2.5c-.6,1.5-3.4,3.6-8,3.6-6.8,0-11.1-5.2-11.1-13.4v-27.6c0-7.6,4.1-12.5,11.3-12.5s6.1,1.1,6.9,2.5v-16.6l7.5-2.5v68.9ZM64.7,75.3c0-3.6-2.5-5.5-5.3-5.5s-5.5,1.8-5.5,5.5v28.2c0,3.6,2.4,5.4,5.5,5.4s5.3-1.9,5.3-5.4v-28.2Z"
      fill="#bc8e49" />
    <path
      d="M81.5,55.4c-2.3,0-3.9-2.1-3.9-4.7s1.6-4.6,3.9-4.6,3.8,2.1,3.8,4.6c0,2.6-1.6,4.7-3.8,4.7ZM85.1,115.1h-7.4v-51.7h7.4v51.7Z"
      fill="#bc8e49" />
    <path
      d="M103,116.3c-7.6,0-12.9-5.2-12.9-12.9v-3.6l7.4,1.6v1.9c0,3.3,2.3,5.4,5.5,5.4s5.7-1.9,5.7-5.4-.8-4.5-1.9-6c-3.6-4-8.3-6.6-11.9-10.9-2.5-3-4.1-6.4-4.1-11.2,0-7.4,5.2-12.6,12.7-12.6s12.1,5.1,12.1,12.5v3.6l-7.3-1.7v-1.9c0-3.4-2-5.5-5.1-5.5s-5,2.2-5,5.7c0,7.9,11.5,11.8,16.2,19.6,1.2,2,1.9,4.6,1.9,7,0,7.4-4.1,14.2-13.4,14.2Z"
      fill="#bc8e49" />
    <path
      d="M139,107.2l5.2,5.6c-1.9,2.2-5.2,3.6-8.2,3.6-7.8,0-11.6-4.5-11.6-12.8v-33.5h-4.7v-6.6h4.7v-9.4l7.4-2.5v11.9h9.8v6.6h-9.8v33.5c0,3.5,1.3,5.3,3.8,5.3s2.8-.7,3.4-1.7Z"
      fill="#bc8e49" />
    <path
      d="M171.9,115.1h-4.9l-1.7-3c-1.3,2.2-3.7,4.1-8,4.1s-11.2-3.9-11.2-13.5c0-15.1,13.2-19.3,18.4-24.9v-2.5c0-3.2-1.4-5.5-4.4-5.5s-4.7,1-5.5,3.5l-6.3-4.1c2.2-3.5,5-6.4,11.8-6.4s11.8,4.7,11.8,12.5v39.8ZM164.6,87.5c-3.7,2.4-11.3,7-11.3,14.6s1.9,6.8,5.6,6.8,5.8-3.2,5.8-6.8v-14.6Z"
      fill="#bc8e49" />
    <path
      d="M203.9,115.1h-7.4v-39.8c0-3.6-2.8-5.5-5.8-5.5s-5.8,1.9-5.8,5.5v39.8h-7.4v-51.7h4.9l1.7,2.5c1.7-1.9,4-3.1,8.1-3.1,7,0,11.8,4.9,11.8,12.3v40.1Z"
      fill="#bc8e49" />
    <path
      d="M227.8,107.2l5.2,5.6c-1.9,2.2-5.2,3.6-8.2,3.6-7.8,0-11.6-4.5-11.6-12.8v-33.5h-4.7v-6.6h4.7v-9.4l7.4-2.5v11.9h9.8v6.6h-9.8v33.5c0,3.5,1.3,5.3,3.8,5.3s2.8-.7,3.4-1.7Z"
      fill="#bc8e49" />
  </g>
  <g>
    <path
      d="M40.8,183.1c0,7.1-5.1,12.9-12.9,12.9s-3.7-.3-5.2-1l1.9-7.5c.9.8,2,1.1,3.2,1.1,3,0,5.4-1.9,5.4-5.5v-54.1h7.4v54.1ZM37.3,120.9c-2.2,0-3.9-2.1-3.9-4.7s1.7-4.6,3.9-4.6,3.9,2.1,3.9,4.6-1.6,4.7-3.9,4.7Z"
      fill="#0c5581" />
    <path
      d="M71.9,168.9c0,7.9-5.8,12.9-12.9,12.9s-12.9-4.9-12.9-12.9v-28.2c0-7.8,5.6-12.5,12.9-12.5s12.9,4.7,12.9,12.5v28.2ZM64.5,140.8c0-3.6-2.5-5.5-5.4-5.5s-5.4,1.9-5.4,5.5v28.2c0,3.5,2.4,5.4,5.4,5.4s5.4-1.9,5.4-5.4v-28.2Z"
      fill="#0c5581" />
    <path
      d="M102.6,180.6h-4.9l-1.7-2.5c-1,1.4-3,3.6-7.9,3.6s-10.9-4.9-10.9-13.7v-39.2h7.4v40c0,3.5,2.2,5.4,5.2,5.4s5.2-1.7,5.2-5.4v-40h7.4v51.7Z"
      fill="#0c5581" />
    <path
      d="M125.6,129.7l-2.5,6.7c-.4-.5-1.2-.7-2.3-.7-2.6,0-5,2.5-5,5.8v39.1h-7.4v-51.7h4.9l1.7,3.3c.9-1.8,3-4,6.3-4s3.5.5,4.4,1.4Z"
      fill="#0c5581" />
    <path
      d="M155.2,180.6h-7.4v-39.8c0-3.6-2.8-5.5-5.8-5.5s-5.8,1.9-5.8,5.5v39.8h-7.4v-51.7h4.9l1.7,2.5c1.7-1.9,4-3.1,8.1-3.1,7,0,11.8,4.9,11.8,12.3v40.1Z"
      fill="#0c5581" />
    <path
      d="M185.8,168.9c0,8.1-5.5,12.9-12.6,12.9s-12.6-4.7-12.6-12.9v-28.2c0-8.1,5.6-12.5,12.9-12.5s12.9,4.8,12.9,13.5c0,14-5.4,18-18.3,24.6v2.5c0,3.5,2,5.4,5.2,5.4s5.1-1.9,5.1-5.4v-.8l7.5-2.5v3.3ZM173.4,135.3c-3,0-5.4,1.9-5.4,5.5v17.4c9-4.2,10.8-8.1,10.8-16s-2.5-6.9-5.4-6.9Z"
      fill="#0c5581" />
    <path
      d="M216.3,195.1h-7.5v-16.1c-.8,1.3-2.5,2.8-6.8,2.8s-11.5-3.3-11.5-12.5v-40.3h7.4v40c0,3.6,2.4,5.4,5.5,5.4s5.3-1.8,5.3-5.4v-40h7.5v66.1Z"
      fill="#0c5581" />
    <path
      d="M234.4,181.8c-7.6,0-12.9-5.2-12.9-12.9v-3.6l7.4,1.6v1.9c0,3.3,2.3,5.4,5.5,5.4s5.8-1.9,5.8-5.4-.8-4.5-1.9-6c-3.6-4-8.3-6.6-11.9-10.9-2.5-3-4.1-6.4-4.1-11.2,0-7.4,5.2-12.6,12.7-12.6s12.1,5.1,12.1,12.5v3.6l-7.3-1.7v-1.9c0-3.4-2-5.5-5.1-5.5s-5,2.2-5,5.7c0,7.9,11.5,11.8,16.2,19.6,1.2,2,1.9,4.6,1.9,7,0,7.4-4.1,14.2-13.4,14.2Z"
      fill="#0c5581" />
  </g>
  <g>
    <path
      d="M57,208.6c-.3,1.5-.6,3.2-1,5.1-.4,1.9-.8,3.7-1.2,5.4-.4,1.7-.8,3.2-1.2,4.5-.4,1.3-.7,2.1-1,2.5-.4,0-.7,0-1.1,0s-.5-.3-.3-.6c.6-1.2,1.1-2.7,1.7-4.4.4-1.5.9-3.3,1.4-5.4.5-2.1.9-4.6,1.2-7.5-.5,0-1-.1-1.4-.3-.4-.2-.9-.5-1.3-.8-.4-.3-.8-.7-1.1-1-.4-.4-.7-.8-1-1.1-.4-.6-.9-1.3-1.4-2.3-.5-1-.9-2-1.3-3.1-.4-1.1-.7-2.2-1-3.3-.3-1.1-.4-2-.5-2.7,0-.1,0-.3.2-.3.2,0,.4,0,.6,0s.5,0,.7,0c.3,0,.5,0,.6.1.3,3,.8,5.4,1.6,7.2.8,1.8,1.5,3.2,2.3,4.2.9,1.2,1.9,2,3,2.4.2-1.2.4-2.7.5-4.3.1-1.6.2-3.2.2-4.7,0-1.5,0-2.8,0-3.9,0-1.1,0-1.8,0-2,.2-.3.4-.4.7-.4s.6.1,1.1.3c0,.8,0,1.7,0,2.7,0,1,0,2.1-.1,3.1,0,1.1-.1,2.2-.2,3.3,0,1.1-.2,2.1-.2,3.1,0,1-.2,1.8-.2,2.6,0,.8-.2,1.4-.2,1.8Z"
      fill="#231f20" />
    <path
      d="M59.9,207.7c.6,0,1.2.1,1.9.2.7.1,1.4.3,2,.5s1.3.5,1.8.8c.6.3,1,.6,1.4,1,.4.3.6.8.6,1.5,0,.7,0,1.4-.1,2.2-.1.8-.4,1.6-.7,2.5s-.7,1.6-1.1,2.3c-.4.7-.8,1.2-1.3,1.7s-.9.7-1.3.7c-.7,0-1.2-.2-1.7-.5-.4-.3-.8-.7-1.1-1.1-.3-.4-.5-.9-.6-1.4-.1-.5-.2-.9-.2-1.3,0-1.6-.1-3,0-4.2,0-1.2.2-2.2.3-3,0-.1-.2-.3-.3-.4,0-.1-.2-.2-.3-.3,0-.1-.2-.2-.3-.3.1,0,.2-.1.4-.3.2-.2.4-.4.5-.5ZM61.5,218.3c0,.1.2.2.4.4.1.1.3.2.6.3s.5,0,.7,0c.2,0,.5-.2.8-.5.7-.7,1.3-1.5,1.6-2.3.4-.8.6-1.5.7-2.2.1-.7,0-1.3,0-1.8-.1-.5-.4-.9-.6-1.2-.2-.1-.4-.3-.6-.4-.2-.1-.4-.2-.6-.3-.3,0-.6-.2-1-.3-.4-.1-.9-.2-1.5-.4-.3.9-.5,1.9-.6,2.8-.1.9-.2,1.8-.2,2.6,0,.8,0,1.5.2,2,.1.6.2,1,.3,1.2Z"
      fill="#231f20" />
    <path
      d="M71.3,219.1c.2.1.5-.1,1-.8.5-.7.9-1.5,1.4-2.5.4-1,.8-2.1,1.1-3.3.3-1.2.4-2.2.3-3,0-.2,0-.3.2-.3.1,0,.3,0,.5,0s.4,0,.6,0c.2,0,.3,0,.4,0,0,.7-.1,1.5-.2,2.5s-.2,2-.2,3c0,1,0,1.9.1,2.7.1.8.3,1.3.7,1.6.3.2.7.2,1.1,0s.8-.5,1.3-.9c.4-.4.8-.7,1.1-1s.5-.4.6-.3c-.1.5-.4,1-.8,1.5-.4.5-.8.9-1.3,1.2-.5.3-1,.6-1.6.7-.6.1-1.1.1-1.5,0-.2,0-.3-.2-.4-.5-.1-.3-.2-.7-.3-1.1,0-.4-.1-.9-.2-1.3,0-.5,0-.9-.2-1.3-.2.5-.5,1-.8,1.6-.3.6-.6,1.2-.9,1.7s-.6,1-.8,1.4c-.3.4-.5.6-.7.7-.6.2-1.1.3-1.4.2s-.6-.3-.7-.6c-.2,0-.3-.4-.4-.9s-.1-1.2-.2-2c0-.8,0-1.7,0-2.7v-3.1c0-1.1,0-2.1,0-3.1,0-1,0-2-.1-2.8.2,0,.4,0,.6,0,.2,0,.4,0,.5.1.2,0,.3.1.4.3.1.7.2,1.9,0,3.6-.1,1.7-.2,3.8-.2,6.2,0,0,0,.3,0,.5,0,.3,0,.5,0,.8,0,.3.1.6.2.8.1.3.2.4.4.5Z"
      fill="#231f20" />
    <path
      d="M80.7,207c0-.3.1-.3.4-.2.3.1.6.3,1,.4.1.7.2,1.2.3,1.6,0,.4.1.8.1,1.1,0,.4,0,.7,0,1.2,0,.4,0,1,.1,1.6.3-.7.6-1.3,1-1.9.4-.6.9-1.1,1.5-1.5.6-.4,1.3-.7,2.2-.9.8-.2,1.9-.3,3.1-.2,0,.2,0,.4-.2.6-.2.2-.5.3-1.1.4-.9.1-1.6.4-2.3.9-.6.4-1.2.9-1.7,1.5-.5.6-.8,1.2-1.1,1.8-.3.6-.5,1.2-.7,1.8,0,.3,0,.6-.1,1.1s0,1,0,1.6,0,1.1,0,1.6,0,.9,0,1.2c0,.1,0,.3-.2.3-.2,0-.4.1-.6.2-.2,0-.4,0-.6,0-.2,0-.3-.2-.3-.3,0-3.1,0-5.7-.2-7.9s-.4-4.2-.6-5.9Z"
      fill="#231f20" />
    <path
      d="M113.6,191.7c-1,0-2.1,0-3.1,0s-2.1.2-3.2.3c-1,.1-2.1.3-3,.4-1,.1-1.9.3-2.7.4,0,2.3.2,4.5.3,6.7s.2,4.5.3,6.7c.1,2.3.3,4.6.5,6.9.2,2.3.4,4.8.7,7.3,0,.1-.1.2-.3.3s-.4.1-.7.1-.5,0-.7-.1c-.2,0-.4-.2-.4-.5-.1-1.4-.2-3-.3-4.8,0-1.8-.2-3.6-.3-5.4,0-1.9-.2-3.7-.3-5.5s-.2-3.5-.3-5-.2-2.9-.4-4c-.1-1.1-.3-1.9-.4-2.4-1.7,0-3.6.1-5.5.3s-3.8.4-5.6.6c-.3,0-.5,0-.8,0s-.3-.2-.4-.4c0-.1,0-.3.2-.5.2-.2.5-.4,1-.5,2.1-.4,4.2-.7,6.2-1,2-.3,4-.5,5.9-.7,1.9-.2,3.9-.4,5.9-.6,2-.2,4-.4,6.1-.7.1,0,.3,0,.5.2.2.2.4.4.5.6s.2.4.3.7c0,.2,0,.4,0,.5Z"
      fill="#231f20" />
    <path
      d="M109.9,201.4c.3,0,.5.1.5.5,0,.4,0,.7-.2.9-.3.3-.5.5-.6.7,0,.2-.3.3-.6.4-.2,0-.3,0-.5,0-.1,0-.2-.2-.3-.7.1-.3.3-.7.6-1,.3-.3.6-.6,1.1-.8ZM110.1,207.2c.1,1.4.3,3,.3,4.7,0,1.7.2,3.5.3,5.4.1.9.2,1.7.4,2.2s.2,1,.3,1.5c-.5,0-.8,0-1.1,0-.3-.1-.5-.2-.8-.4,0-.5-.1-1.3-.2-2.4,0-1.1-.1-2.3-.2-3.6s-.1-2.5-.2-3.8c0-1.2-.1-2.2-.2-2.9.1,0,.2-.1.3-.3,0-.1.2-.2.2-.3,0,0,.2-.2.4-.2.1,0,.3,0,.6,0Z"
      fill="#231f20" />
    <path
      d="M113.6,206c0-.3,0-.4.2-.5.1,0,.3,0,.5,0,.2,0,.3.2.5.3.2.1.3.2.3.3,0,.8,0,1.8,0,3.2-.1,1.3-.2,3-.2,5,.1-.5.3-1,.5-1.7.2-.7.5-1.3.8-2,.3-.7.7-1.3,1-1.9.4-.6.7-1,1.1-1.4.4-.3.7-.5,1-.5s.6.3.9.8c0,.1.1.5.2.9,0,.5,0,1,0,1.7,0,.7,0,1.4,0,2.2,0,.8,0,1.6.1,2.4.3-.7.6-1.4.9-2.2.3-.8.7-1.5,1.1-2.1.4-.6.8-1.1,1.3-1.5.4-.4.9-.4,1.4-.2.2,0,.4.4.5.8s.2,1,.2,1.6c0,.6.1,1.3.2,2,0,.7.2,1.3.4,1.9.2.6.5,1,.9,1.4.4.3.9.5,1.6.4.4,0,.6,0,.8,0,.2,0,.3,0,.4,0,0,0,.1,0,0,.1,0,0,0,.1,0,.3-1.1.6-2,.7-2.7.6-.7-.2-1.3-.6-1.7-1.2-.4-.6-.7-1.4-.8-2.3-.2-.9-.3-1.8-.3-2.7,0-.4-.2-.5-.4-.5-.2,0-.4.3-.7.7-.3.4-.6.9-.9,1.4s-.6,1.2-.9,1.8-.6,1.3-.8,1.9-.4,1.1-.5,1.5c-.1.3-.4.3-.7.2s-.5-.3-.6-.7c-.1-.5-.2-1.1-.2-1.8,0-.7,0-1.4,0-2.1,0-.7,0-1.4,0-2.1,0-.7,0-1.2,0-1.7,0-.5,0-.8-.2-1,0-.2-.3-.1-.5.1-.5.8-1,1.6-1.4,2.6-.4,1-.8,2-1.1,3-.3,1.1-.6,2.1-.8,3.2s-.4,2-.4,2.9c-.5.1-.9,0-1.1-.2s-.4-.5-.5-.8c0-.4.1-1.1.2-2.2,0-1.1,0-2.4.1-3.8,0-1.4,0-2.9.1-4.4,0-1.5,0-2.8.1-3.9Z"
      fill="#231f20" />
    <path
      d="M133,208.4c0,0,.3-.1.8-.2s.8-.2,1,0c.9,0,1.5.2,2,.7.5.5.5,1.4.1,2.8-.6,1.5-1.3,2.8-2.3,3.8-.9,1-2,2-3.3,2.9.3.8.7,1.2,1.3,1.3.6,0,1.2,0,1.9-.3.7-.3,1.3-.7,1.9-1.1.6-.5,1.1-.9,1.5-1.2.6-.5,1.1-1,1.5-1.4.4-.4.8-.8,1.2-1.4,0,0,.1,0,.2,0,0,0,0,.2,0,.3s0,.4-.1.6c0,.2-.2.4-.3.6,0,.2-.2.3-.4.5-.2.2-.4.4-.6.7-.3.3-.6.6-1,1.1-.4.4-.9.8-1.3,1.2s-.9.7-1.3,1c-.5.3-1,.5-1.5.6-.6.1-1.2.1-1.9,0-.6-.2-1.1-.4-1.4-.7s-.6-.5-.8-.7c-.2-.3-.3-.5-.4-.7s-.1-.4-.2-.5c-.1-.6-.2-1.4-.2-2.4,0-1,.3-2.3.9-3.9.4-.8.8-1.5,1.3-2.1.4-.6,1-1,1.6-1.4ZM131,216.3c.4-.2.8-.5,1.4-.9.5-.4,1-.8,1.5-1.3s.9-1,1.2-1.6c.3-.6.5-1.2.6-1.9,0-.4,0-.8,0-.9,0,0-.1-.1-.2-.1-.5-.2-1-.2-1.5.2-.5.4-1,.9-1.4,1.6-.4.7-.8,1.5-1,2.4-.3.9-.4,1.7-.4,2.5Z"
      fill="#231f20" />
    <path
      d="M154.4,207.8c1.3,0,2.5-.2,3.8-.3,1.2-.1,2.5-.2,3.9-.3.3,0,.5.2.6.5,0,.3,0,.5-.4.5-1.1.1-2.4.3-3.8.5-1.4.2-2.8.5-4.1.8,0,.9,0,1.9,0,2.8s0,1.9,0,2.8c0,.9.1,1.8.3,2.7.1.9.3,1.7.6,2.4.4.5.8.8,1.3.9s.8,0,1.2,0c.4-.1.7-.3,1-.6.3-.3.6-.6.8-.8.2-.2.4-.2.5,0,.1.2,0,.5-.4.9-.2.2-.4.4-.7.7-.3.2-.6.4-1,.6-.4.2-.8.3-1.3.3-.5,0-1,0-1.5-.2-.7-.2-1.2-.7-1.5-1.6-.3-.9-.6-2-.7-3.2-.2-1.2-.3-2.5-.3-3.8,0-1.3-.1-2.5-.2-3.6-1.3.1-2.3.2-2.9.3s-1,.1-1.3.2c-.3,0-.4,0-.5,0,0,0-.3-.2-.5-.4,0-.1,0-.3,0-.4s0-.2,0-.3,0-.2.2-.3c.1,0,.3-.2.6-.2.4-.1,1.1-.2,1.9-.2.8,0,1.7,0,2.5-.2,0-.9,0-1.7,0-2.2s0-1,0-1.4c0-.4,0-.8,0-1.2s0-.9,0-1.5,0-.3.2-.3c.2,0,.3-.1.6-.1s.4,0,.6,0c.2,0,.3.2.4.3,0,.3.1.7.2,1.2s0,1.1,0,1.6c0,.6,0,1.2,0,1.8s0,1.1,0,1.5Z"
      fill="#231f20" />
    <path
      d="M162.3,207.7c.6,0,1.2.1,1.9.2.7.1,1.4.3,2,.5.7.2,1.3.5,1.8.8.6.3,1,.6,1.4,1,.4.3.6.8.6,1.5,0,.7,0,1.4-.1,2.2-.2.8-.4,1.6-.7,2.5-.3.8-.7,1.6-1,2.3-.4.7-.8,1.2-1.3,1.7-.4.4-.9.7-1.3.7-.7,0-1.2-.2-1.7-.5s-.8-.7-1.1-1.1c-.3-.4-.5-.9-.6-1.4-.1-.5-.2-.9-.2-1.3,0-1.6-.1-3,0-4.2,0-1.2.2-2.2.3-3,0-.1-.2-.3-.3-.4,0-.1-.2-.2-.3-.3,0-.1-.2-.2-.3-.3.1,0,.2-.1.4-.3.2-.2.4-.4.5-.5ZM163.9,218.3c0,.1.2.2.4.4.1.1.3.2.6.3s.5,0,.7,0,.5-.2.8-.5c.7-.7,1.3-1.5,1.6-2.3.4-.8.6-1.5.7-2.2.1-.7,0-1.3,0-1.8-.1-.5-.4-.9-.6-1.2-.2-.1-.4-.3-.6-.4-.2-.1-.4-.2-.6-.3-.3,0-.6-.2-1-.3-.4-.1-.9-.2-1.5-.4-.3.9-.5,1.9-.6,2.8-.1.9-.2,1.8-.2,2.6,0,.8,0,1.5.2,2,.1.6.2,1,.3,1.2Z"
      fill="#231f20" />
    <path
      d="M198.6,190.6c-.7.4-1.8.9-3.1,1.4-1.4.5-2.8,1-4.4,1.5-1.6.5-3.1,1-4.7,1.5-1.6.5-2.9,1-4.1,1.5,0,.7.1,1.3.1,1.8,0,.5,0,1,.1,1.6,0,.6.1,1.3.2,2.1.1.8.3,2,.5,3.4,1.2-.5,2.1-.9,2.8-1.2.7-.3,1.5-.5,2.2-.8.8-.2,1.7-.5,2.7-.8,1.1-.3,2.5-.7,4.3-1.2.1,0,.3.1.5.3s.4.3.5.6.2.4.2.6-.1.4-.3.5c-1.3.1-2.5.4-3.7.7-1.2.3-2.3.7-3.4,1.1s-2.1.8-3,1.2c-.9.4-1.7.8-2.5,1.1,0,1.4.2,2.7.5,4s.6,2.5,1,3.5c.4,1.1.9,1.9,1.5,2.6.6.7,1.2,1.1,1.9,1.2.3,0,.8.1,1.4.2.6,0,1.3,0,2.1-.3.8-.2,1.7-.7,2.7-1.3,1-.6,2.1-1.6,3.4-3,.8-.7,1.4-1.1,1.7-1.2s.4,0,.1.4c-.8.9-1.5,1.7-2.2,2.4s-1.4,1.4-2.1,2c-.7.6-1.5,1.1-2.3,1.6-.8.4-1.8.8-2.9.9-1.5.3-2.8.2-3.8-.2-1-.5-1.8-1.3-2.5-2.4-.6-1.1-1.2-2.5-1.5-4.2-.4-1.7-.7-3.5-1-5.5-.5,0-.9.2-1.3.3-.3.1-.8.4-1.3.7-.2,0-.3-.2-.3-.4,0-.2.2-.5.5-.8.3-.3.6-.6.9-1,.4-.3.7-.6,1.1-.9-.2-1.2-.3-2.5-.5-3.8-.2-1.3-.3-2.6-.5-3.8-.2-1.2-.3-2.3-.3-3.2,0-1-.1-1.7-.1-2.2.2,0,.3-.2.4-.2,0,0,.2,0,.3-.1.1,0,.2,0,.4,0,.1,0,.4,0,.7,0,0,.1,0,.4.1.6,0,.3,0,.5,0,.7,1.5-.4,2.9-.8,4.1-1.1,1.2-.4,2.4-.7,3.6-1,1.2-.3,2.3-.7,3.5-1,1.2-.3,2.5-.7,3.9-1,.2,0,.5,0,.7,0,.2,0,.4.1.6.2.1.1.3.2.3.3,0,0,0,.1,0,.2Z"
      fill="#231f20" />
    <path
      d="M200.3,205.2c.4.5.8,1,1.1,1.5.3.5.7,1,1,1.5.3.5.7,1.1,1.1,1.7s.8,1.3,1.3,2.1c.3-.9.6-1.7.8-2.4s.4-1.6.5-2.5c0-.2.2-.3.5-.2.3.1.5.2.7.3,0,.2.1.5,0,.9,0,.4-.2.8-.3,1.2s-.3.8-.4,1.2c-.1.4-.3.7-.3.9,0,.1-.1.3-.2.5,0,.2-.1.4-.2.6,0,.2-.2.5-.3.7.7,1.7,1.3,3.1,2,4.3.6,1.2,1,2.2,1.3,2.8,0,.2-.2.2-.5.1-.3-.1-.6-.3-.9-.6-.4-.7-.7-1.5-1.2-2.1-.4-.7-.8-1.5-1.3-2.3-.2.4-.3.9-.6,1.4-.2.5-.5,1.1-.7,1.7-.2.6-.5,1.1-.7,1.7-.2.6-.4,1.1-.6,1.6-.2.3-.4.5-.6.6-.2,0-.5,0-.9-.1.5-1.3,1-2.3,1.3-3.1.3-.8.6-1.5.8-2s.4-1.1.5-1.6c.1-.5.3-1.1.5-1.9-.3-.4-.7-1-1.1-1.7s-.8-1.3-1.2-2c-.4-.7-.8-1.3-1.2-1.9-.4-.6-.7-1-1-1.3-.2-.3-.3-.6-.2-1,0-.4.3-.5.7-.4Z"
      fill="#231f20" />
    <path
      d="M221.4,208.8c.1,0,.3.1.4.2.2,0,.3.2.5.4.1.2.3.4.4.7.1.3.2.6.2,1.1,0,1.5-.4,2.9-1.2,4.2-.7,1.2-1.6,2.3-2.6,3.2-1,.9-2,1.5-3.1,1.9-1.1.4-2,.6-2.7.4,0,2.9,0,5.3,0,7.2,0,1.9,0,3.5,0,4.7,0,1.2,0,2.2,0,2.8,0,.6,0,1.1-.1,1.3,0,.2-.2.3-.4.3s-.4,0-.7-.1c0,0-.1,0-.1-.2,0-.2,0-.6,0-1.1s0-1.4,0-2.5,0-.6,0-1.5,0-2.1,0-3.5c0-1.4,0-3,0-4.6s0-3.3-.2-4.9c0-1.6-.1-3.1-.2-4.4,0-1.4-.2-2.4-.3-3.2,0,0,0-.2,0-.4s0-.5-.1-.9c0-.4-.1-.7-.2-1.2,0-.4-.2-.8-.2-1.2.5,0,.8,0,1,.2s.4.3.5.5c.2.6.3,1.5.5,2.7.2,1.2.3,2.9.6,5.1,0-.3.2-.7.5-1.2s.6-1.1,1-1.7c.4-.6.9-1.2,1.4-1.8.5-.6,1.1-1.1,1.7-1.5.6-.4,1.2-.7,1.8-.9.6-.2,1.2-.1,1.8.2ZM215.7,218.8c1.4-.6,2.5-1.3,3.2-2.2s1.4-1.8,1.7-2.6c.4-.9.5-1.7.5-2.3s-.1-1.1-.4-1.3c-.6-.4-1.2-.4-1.7-.1-.5.3-1.1.7-1.6,1.1-.3.2-.6.7-1.1,1.3-.5.6-1,1.3-1.4,2-.5.7-.9,1.5-1.2,2.2-.3.8-.5,1.4-.5,2,.1.1.3.3.5.3.2,0,.4,0,.7,0,.3,0,.7-.1,1.2-.4Z"
      fill="#231f20" />
    <path
      d="M226.4,211.8c0,0,0,.5.1,1.2,0,.7.2,1.6.3,2.7s.3,2.2.4,3.4.3,2.4.4,3.5c.1,1.1.3,2.1.4,2.9.1.8.2,1.4.2,1.6-.2,0-.3,0-.4,0-.1,0-.2-.1-.4-.2-.1-.1-.3-.3-.4-.5s-.4-.5-.7-1c-.4-2.7-.7-5.1-.9-7.1s-.4-3.7-.6-5c-.5.7-.9,1.2-1.2,1.4s-.4.4-.4.4c0,0-.1-.1,0-.4,0-.1,0-.3,0-.4,0-.1,0-.3,0-.4,0-.1,0-.2.1-.3.2-.3.4-.6.6-.9.2-.3.3-.6.4-.8.1-.3.2-.6.3-.8,0-.3,0-.6,0-.8s0-.5,0-.7,0-.5,0-.8c0-.3,0-.6,0-1v-4.4c0-1,0-2,0-3s0-2.1.1-3c0-1,.1-1.8.2-2.6,0-.8.2-1.4.2-1.8.2-.9.5-1.5,1-2s.9-.7,1.4-.8c.5,0,.9,0,1.4.4s.8.8,1,1.4c.3.7.4,1.5.4,2.5s0,2.2-.3,3.4c-.2,1.2-.4,2.5-.7,3.8-.3,1.3-.6,2.6-1,3.9s-.7,2.4-1.1,3.5c-.4,1.1-.7,2-.9,2.8ZM226,209.3c.7-2.2,1.4-4.3,1.8-6.4.5-2.1.8-4,1-5.6.2-1.7.3-3,.2-4,0-1-.3-1.5-.6-1.6-.6-.2-1,0-1.3.6-.3.6-.6,1.4-.8,2.5s-.3,2.3-.4,3.7,0,2.7,0,4.1c0,1.4,0,2.7,0,3.9,0,1.2,0,2.2,0,2.9Z"
      fill="#231f20" />
    <path
      d="M230.8,207.7c.6,0,1.2.1,1.9.2.7.1,1.4.3,2,.5.7.2,1.3.5,1.8.8.6.3,1,.6,1.4,1,.4.3.6.8.6,1.5,0,.7,0,1.4-.1,2.2-.2.8-.4,1.6-.7,2.5-.3.8-.7,1.6-1,2.3-.4.7-.8,1.2-1.3,1.7-.4.4-.9.7-1.3.7-.7,0-1.2-.2-1.7-.5s-.8-.7-1.1-1.1c-.3-.4-.5-.9-.6-1.4-.1-.5-.2-.9-.2-1.3,0-1.6-.1-3,0-4.2,0-1.2.2-2.2.3-3,0-.1-.2-.3-.3-.4,0-.1-.2-.2-.3-.3,0-.1-.2-.2-.3-.3.1,0,.2-.1.4-.3.2-.2.4-.4.5-.5ZM232.4,218.3c0,.1.2.2.4.4.1.1.3.2.6.3s.5,0,.7,0,.5-.2.8-.5c.7-.7,1.3-1.5,1.6-2.3.4-.8.6-1.5.7-2.2.1-.7,0-1.3,0-1.8-.1-.5-.4-.9-.6-1.2-.2-.1-.4-.3-.6-.4-.2-.1-.4-.2-.6-.3-.3,0-.6-.2-1-.3-.4-.1-.9-.2-1.5-.4-.3.9-.5,1.9-.6,2.8-.1.9-.2,1.8-.2,2.6,0,.8,0,1.5.2,2,.1.6.2,1,.3,1.2Z"
      fill="#231f20" />
    <path
      d="M240.7,207c0-.3.1-.3.4-.2.3.1.6.3,1,.4.1.7.2,1.2.3,1.6,0,.4.1.8.1,1.1s0,.7,0,1.2c0,.4,0,1,.1,1.6.3-.7.6-1.3,1-1.9s.9-1.1,1.5-1.5c.6-.4,1.3-.7,2.2-.9.8-.2,1.9-.3,3.1-.2,0,.2,0,.4-.2.6-.2.2-.5.3-1.1.4-.9.1-1.6.4-2.3.9s-1.2.9-1.7,1.5c-.5.6-.8,1.2-1.1,1.8-.3.6-.5,1.2-.7,1.8,0,.3,0,.6-.1,1.1,0,.5,0,1,0,1.6s0,1.1,0,1.6,0,.9,0,1.2,0,.3-.2.3c-.2,0-.4.1-.6.2-.2,0-.4,0-.6,0-.2,0-.3-.2-.3-.3,0-3.1,0-5.7-.2-7.9-.2-2.2-.4-4.2-.6-5.9Z"
      fill="#231f20" />
    <path
      d="M252.9,208.4c0,0,.3-.1.8-.2.4-.1.8-.2,1,0,.9,0,1.5.2,2,.7.5.5.5,1.4.1,2.8-.6,1.5-1.3,2.8-2.3,3.8-.9,1-2,2-3.3,2.9.3.8.7,1.2,1.3,1.3.6,0,1.2,0,1.9-.3.7-.3,1.3-.7,1.9-1.1.6-.5,1.1-.9,1.5-1.2.6-.5,1.1-1,1.5-1.4.4-.4.8-.8,1.2-1.4,0,0,.1,0,.2,0,0,0,0,.2,0,.3,0,.1,0,.4-.1.6,0,.2-.2.4-.3.6,0,.2-.2.3-.4.5-.2.2-.4.4-.6.7-.3.3-.6.6-1,1.1-.4.4-.9.8-1.3,1.2s-.9.7-1.3,1c-.5.3-1,.5-1.5.6-.5.1-1.2.1-1.9,0-.6-.2-1.1-.4-1.4-.7s-.6-.5-.8-.7-.3-.5-.4-.7c0-.2-.2-.4-.2-.5-.2-.6-.2-1.4-.2-2.4,0-1,.3-2.3.9-3.9.4-.8.8-1.5,1.3-2.1.4-.6,1-1,1.6-1.4ZM250.9,216.3c.4-.2.8-.5,1.4-.9.5-.4,1-.8,1.5-1.3s.9-1,1.2-1.6c.3-.6.5-1.2.6-1.9,0-.4,0-.8,0-.9,0,0-.1-.1-.2-.1-.5-.2-1-.2-1.5.2-.5.4-1,.9-1.4,1.6s-.8,1.5-1,2.4c-.3.9-.4,1.7-.4,2.5Z"
      fill="#231f20" />
  </g>
</svg>