<?xml version="1.0" encoding="utf-8"?>
<!-- Generator: Adobe Illustrator 28.1.0, SVG Export Plug-In . SVG Version: 6.00 Build 0)  -->
<svg version="1.2" baseProfile="tiny-ps" id="Layer_1" xmlns="http://www.w3.org/2000/svg" xmlns:xlink="http://www.w3.org/1999/xlink"
	viewBox="0 0 363.1 235.3" xml:space="preserve">
	<title>CARE</title>
<g id="Guides_For_Artboard_2_">
</g>
<g id="Guides_For_Artboard_1_">
</g>
<g id="Guides_For_Artboard">
</g>
<g id="Layer_1_00000118391541203002058380000016544355448092499611_">
	<g>
		<g>
			<rect fill="#FCDF00" width="363.1" height="186.5"/>
			<path fill="#0B67B2" d="M101.4,66c-1.7-0.6-3.5-1.1-5.7-1.7c-2.1-0.6-4.4-1.1-7-1.5c-2.6-0.4-5.5-0.6-8.6-0.7
				c-3.8,0-7.6,0.6-11.3,1.7c-3.7,1.1-7.2,2.8-10.4,5c-3.3,2.2-6.2,5.1-8.7,8.5c-2.5,3.4-4.5,7.4-6,12c-1.4,4.6-2.2,9.7-2.2,15.5
				c0,6.1,0.9,11.5,2.5,16c1.7,4.5,3.9,8.4,6.6,11.5c2.8,3.1,5.8,5.6,9.2,7.5c3.4,1.9,6.8,3.2,10.3,4.1c3.5,0.8,6.8,1.2,10,1.2
				c3.3,0,6.3-0.2,9.1-0.6c2.8-0.4,5.3-1,7.6-1.6c2.2-0.6,4.3-1.2,6-1.8v-8.9c-1.7,0.7-3.5,1.5-5.6,2.2c-2.1,0.8-4.5,1.4-7.1,1.9
				c-2.6,0.5-5.6,0.8-8.8,0.8c-5.5,0-10.2-1-14.1-2.9c-3.9-1.9-7.1-4.4-9.5-7.5c-2.5-3.2-4.3-6.7-5.4-10.6c-1.2-3.9-1.7-8-1.7-12.2
				s0.6-8.3,1.8-12.3c1.2-4,3-7.6,5.5-10.8c2.5-3.3,5.5-5.8,9.3-7.7c3.8-1.9,8.2-2.9,13.3-3c3,0,5.8,0.3,8.2,0.8
				c2.5,0.5,4.7,1.2,6.8,2s4.1,1.6,5.9,2.5L101.4,66"/>
			<path fill="#0B67B2" d="M180.8,129.6c-0.6,0.5-1.4,1.2-2.4,1.9c-1,0.8-2.1,1.6-3.3,2.4c-1.1,0.8-2.3,1.4-3.3,2
				c-1,0.5-1.9,0.8-2.5,0.8c-0.5,0-0.9-0.1-1.1-0.3c-0.2-0.2-0.4-0.4-0.5-0.6c-0.1-0.2-0.1-0.8-0.1-1.6c0-0.8-0.1-1.8-0.1-2.8v-2.8
				V87.8c0-3.1-0.1-5.7-0.3-7.8c-0.2-2.2-0.6-4.1-1.4-5.8c-0.7-1.7-1.8-3.4-3.3-5.1c-1.6-1.7-3.5-3.1-5.8-4.2
				c-2.3-1-4.7-1.8-7.2-2.2c-2.5-0.5-4.9-0.7-7.1-0.7c-3,0-5.8,0.3-8.4,0.9c-2.6,0.6-4.9,1.4-7.1,2.3c-2.2,0.9-4.1,1.8-5.8,2.8
				c-1.7,1-3.1,1.8-4.4,2.5v8.7c2.8-2.1,5.5-3.8,8-5.2c2.5-1.5,5.1-2.5,7.8-3.3c2.7-0.7,5.6-1.1,8.7-1.1c4.4,0,7.9,0.7,10.5,2
				c2.6,1.3,4.4,3.2,5.5,5.6c1.1,2.4,1.6,5.1,1.6,8.2v10.1c-1.9,0.1-4.3,0.3-7.3,0.5c-3,0.3-6.2,0.8-9.7,1.5c-3.5,0.7-7,1.7-10.5,3
				c-3.5,1.3-6.7,3.1-9.6,5.1c-2.9,2.1-5.2,4.8-7,7.9c-1.8,3.1-2.6,6.9-2.7,11.2c0,2.9,0.6,5.5,1.8,7.9c1.1,2.4,2.7,4.6,4.7,6.4
				c2,1.8,4.3,3.2,6.9,4.2c2.6,1,5.4,1.5,8.3,1.6c3.1,0,5.9-0.4,8.5-1.1c2.6-0.7,5-1.6,7.1-2.7c2.1-1.1,3.9-2.1,5.5-3.3
				c1.6-1.1,2.9-2.1,3.9-2.9c0.2,2,0.4,3.8,0.7,5.3c0.3,1.5,0.8,2.6,1.6,3.4c0.8,0.8,2,1.2,3.6,1.2c1.8,0,3.9-0.8,6.6-2.2
				c2.6-1.4,5.7-3.5,9.4-6.2L180.8,129.6 M159,127.6c-1.1,1.1-2.5,2.2-4,3.4c-1.5,1.2-3.2,2.4-5.1,3.4c-1.9,1.1-3.9,1.9-6.1,2.6
				c-2.2,0.7-4.6,1-7.1,1c-1.6,0-3.3-0.2-5.1-0.7c-1.8-0.5-3.5-1.2-5.2-2.3c-1.6-1-2.9-2.4-3.9-4.1c-1-1.7-1.6-3.7-1.6-6
				c0-2.4,0.4-4.6,1.4-6.6c0.9-2,2.2-3.8,3.7-5.3c1.6-1.6,3.3-3,5.2-4.2c1.9-1.2,3.9-2.2,5.9-3c2.5-1,5.2-1.7,7.9-2.2
				c2.7-0.4,5.3-0.8,7.8-0.9c2.5-0.1,4.5-0.2,6.2-0.3L159,127.6L159,127.6z"/>
			<path fill="#0B67B2" d="M247.6,71.5c-1-0.9-2.2-1.9-3.5-2.9c-1.4-1.1-2.8-2.1-4.3-3.1c-1.6-1-3.2-1.8-4.9-2.4
				c-1.7-0.6-3.5-0.9-5.4-1c-2.7,0-5.3,0.7-7.8,1.9c-2.5,1.2-4.8,2.7-7.1,4.6c-2.2,1.9-4.2,3.8-6,5.9c-1.8,2.1-3.4,4-4.7,5.8
				c-1.3,1.8-2.3,3.3-2.9,4.3v-21h-8.5v79.7h8.5V93.3c1.7-2.9,3.6-5.7,5.6-8.3c2-2.7,4.1-5.1,6.4-7.2c2.2-2.1,4.5-3.8,6.8-5.1
				c2.3-1.2,4.6-1.9,6.9-1.9c1.9,0,3.9,0.5,5.8,1.4c1.9,0.9,3.7,2.1,5.4,3.4c1.7,1.3,3.2,2.6,4.6,3.8L247.6,71.5"/>
			<path fill="#0B67B2" d="M321.5,100.4c0-2.8-0.3-5.6-0.7-8.5c-0.4-2.9-1.4-5.9-2.7-9.1c-1-2.4-2.4-4.8-4.2-7.3
				c-1.8-2.5-4-4.7-6.6-6.7c-2.6-2-5.7-3.7-9.2-4.9c-3.5-1.2-7.5-1.9-11.9-1.9c-5.7,0.1-10.9,1.2-15.4,3.3
				c-4.5,2.2-8.4,5.2-11.5,8.9c-3.2,3.8-5.6,8.1-7.2,12.9c-1.6,4.8-2.5,9.9-2.5,15.2c0,4.3,0.5,8.5,1.6,12.6
				c1.1,4.1,2.7,7.9,4.9,11.5c2.2,3.6,4.8,6.8,8,9.5c3.2,2.7,6.9,4.9,11.1,6.4c4.2,1.5,8.9,2.3,14.2,2.4c4.4,0,8.5-0.5,12.2-1.5
				c3.7-0.9,7.1-2.2,10.2-3.9c3-1.6,5.9-3.4,8.3-5.4v-9.6c-1.2,1.1-2.7,2.3-4.5,3.6c-1.8,1.4-4,2.7-6.4,4c-2.5,1.3-5.3,2.4-8.4,3.3
				c-3.1,0.8-6.6,1.3-10.4,1.3c-3.1,0-6.1-0.4-9.2-1.4c-3-0.9-5.9-2.3-8.6-4.2c-2.7-1.9-5.1-4.3-7.2-7.2c-2.1-2.9-3.7-6.3-4.8-10.3
				c-1.1-4-1.6-8.5-1.5-13.6L321.5,100.4 M259.9,93.7c0.8-4.1,2.1-7.7,3.9-10.7c1.8-3,3.9-5.5,6.4-7.5c2.5-2,5.1-3.4,7.8-4.4
				c2.8-0.9,5.5-1.4,8.2-1.4c4.5,0,8.5,1.1,12,3.1c3.5,2,6.4,4.7,8.4,8.1c1.5,2.5,2.7,4.8,3.3,6.9c0.7,2.1,1.2,4.1,1.5,5.8
				C311.3,93.7,259.9,93.7,259.9,93.7z"/>
			<rect x="249.6" y="41.5" fill="#0B67B2" width="71.9" height="8.2"/>
			<polygon fill="#0B67B2" points="0,210.6 3.3,210.6 3.3,220.6 15.7,220.6 15.7,210.6 19,210.6 19,234.7 15.7,234.7 15.7,223.4 
				3.3,223.4 3.3,234.7 0,234.7 			"/>
			<polygon fill="#0B67B2" points="26.5,210.6 44,210.6 44,213.6 29.7,213.6 29.7,220.9 42.9,220.9 42.9,223.7 29.7,223.7 
				29.7,231.8 44.2,231.8 44.2,234.7 26.5,234.7 			"/>
			<path fill="#0B67B2" d="M57.7,210.6h3.7l8.7,24.1h-3.6l-2.5-7.2h-9.5l-2.6,7.2h-3.3L57.7,210.6z M63.1,224.8l-3.7-10.6l-3.9,10.6
				H63.1z"/>
			<polygon fill="#0B67B2" points="75,210.6 78.3,210.6 78.3,231.8 90.4,231.8 90.4,234.7 75,234.7 			"/>
			<polygon fill="#0B67B2" points="110.8,210.6 110.8,213.5 102.7,213.5 102.7,234.7 99.4,234.7 99.4,213.5 91.2,213.5 91.2,210.6 
							"/>
			<polygon fill="#0B67B2" points="115.9,210.6 119.2,210.6 119.2,220.6 131.6,220.6 131.6,210.6 134.9,210.6 134.9,234.7 
				131.6,234.7 131.6,223.4 119.2,223.4 119.2,234.7 115.9,234.7 			"/>
			<rect x="154.2" y="210.6" fill="#0B67B2" width="3.3" height="24.1"/>
			<polygon fill="#0B67B2" points="164.8,210.6 168.6,210.6 180.6,230.1 180.6,210.6 183.8,210.6 183.8,234.7 180.1,234.7 
				167.9,215.3 167.9,234.7 164.8,234.7 			"/>
			<path fill="#0B67B2" d="M193.2,226.9c0.1,1.4,0.4,2.5,0.9,3.3c1.1,1.6,2.9,2.4,5.5,2.4c1.2,0,2.3-0.2,3.2-0.5
				c1.9-0.7,2.8-1.9,2.8-3.6c0-1.3-0.4-2.2-1.2-2.8c-0.8-0.6-2.1-1-3.8-1.4l-3.2-0.7c-2.1-0.5-3.5-1-4.4-1.6c-1.5-1-2.2-2.5-2.2-4.5
				c0-2.2,0.7-3.9,2.2-5.3c1.5-1.4,3.5-2.1,6.2-2.1c2.5,0,4.6,0.6,6.3,1.8c1.7,1.2,2.6,3.2,2.6,5.9h-3.1c-0.2-1.3-0.5-2.3-1-3
				c-0.9-1.3-2.6-1.9-4.9-1.9c-1.9,0-3.2,0.4-4,1.2c-0.8,0.8-1.2,1.8-1.2,2.8c0,1.2,0.5,2.1,1.4,2.6c0.6,0.4,2,0.8,4.2,1.3l3.3,0.8
				c1.6,0.4,2.8,0.9,3.6,1.5c1.5,1.1,2.2,2.8,2.2,4.9c0,2.7-1,4.6-2.9,5.7c-1.9,1.1-4.1,1.7-6.6,1.7c-2.9,0-5.2-0.8-6.9-2.3
				c-1.7-1.5-2.5-3.6-2.4-6.2L193.2,226.9L193.2,226.9z"/>
			<path fill="#0B67B2" d="M219,210.6v14.9c0,1.8,0.3,3.2,1,4.4c1,1.8,2.6,2.6,5,2.6c2.8,0,4.7-0.9,5.7-2.8c0.6-1,0.8-2.4,0.8-4.2
				v-14.9h3.3v13.5c0,3-0.4,5.2-1.2,6.9c-1.5,2.9-4.2,4.4-8.3,4.4c-4.1,0-6.9-1.4-8.3-4.4c-0.8-1.6-1.2-3.9-1.2-6.9v-13.5L219,210.6
				L219,210.6z"/>
			<path fill="#0B67B2" d="M242.2,210.6h10.9c1.8,0,3.3,0.3,4.5,0.8c2.2,1,3.3,2.9,3.3,5.7c0,1.4-0.3,2.6-0.9,3.5
				c-0.6,0.9-1.4,1.7-2.5,2.2c0.9,0.4,1.6,0.9,2.1,1.5c0.5,0.6,0.7,1.6,0.8,3l0.1,3.2c0,0.9,0.1,1.6,0.2,2.1c0.2,0.8,0.5,1.3,1,1.5
				v0.5h-4c-0.1-0.2-0.2-0.5-0.3-0.8c-0.1-0.3-0.1-1-0.2-1.9l-0.2-4c-0.1-1.6-0.6-2.6-1.7-3.2c-0.6-0.3-1.6-0.4-2.9-0.4h-7.2v10.3
				h-3.3L242.2,210.6L242.2,210.6z M252.8,221.6c1.5,0,2.7-0.3,3.5-0.9c0.9-0.6,1.3-1.7,1.3-3.3c0-1.7-0.6-2.9-1.8-3.5
				c-0.6-0.3-1.5-0.5-2.6-0.5h-7.7v8.2L252.8,221.6L252.8,221.6z"/>
			<path fill="#0B67B2" d="M275.1,210.6h3.7l8.7,24.1h-3.6l-2.5-7.2H272l-2.6,7.2H266L275.1,210.6z M280.5,224.8l-3.7-10.6
				l-3.9,10.6H280.5z"/>
			<polygon fill="#0B67B2" points="292.5,210.6 296.3,210.6 308.3,230.1 308.3,210.6 311.5,210.6 311.5,234.7 307.8,234.7 
				295.6,215.3 295.6,234.7 292.5,234.7 			"/>
			<path fill="#0B67B2" d="M335.8,212.4c1.7,1.6,2.6,3.4,2.8,5.5h-3.2c-0.4-1.6-1.1-2.8-2.1-3.7c-1.1-0.9-2.5-1.4-4.5-1.4
				c-2.3,0-4.2,0.8-5.6,2.5c-1.4,1.7-2.2,4.2-2.2,7.7c0,2.8,0.6,5.1,2,6.9c1.3,1.8,3.2,2.6,5.8,2.6c2.4,0,4.2-0.9,5.4-2.8
				c0.6-1,1.1-2.2,1.5-3.8h3.2c-0.3,2.5-1.2,4.7-2.8,6.4c-1.9,2.1-4.5,3.1-7.6,3.1c-2.8,0-5.1-0.9-7-2.5c-2.5-2.2-3.7-5.7-3.7-10.4
				c0-3.6,0.9-6.5,2.8-8.8c2-2.5,4.8-3.7,8.3-3.7C331.8,209.9,334.1,210.8,335.8,212.4"/>
			<polygon fill="#0B67B2" points="345.3,210.6 362.8,210.6 362.8,213.6 348.5,213.6 348.5,220.9 361.7,220.9 361.7,223.7 
				348.5,223.7 348.5,231.8 363.1,231.8 363.1,234.7 345.3,234.7 			"/>
		</g>
	</g>
</g>
</svg>
