<?xml version="1.0" encoding="UTF-8"?>
<svg id="Capa_1"  xmlns="http://www.w3.org/2000/svg" baseProfile="tiny-ps" version="1.2" viewBox="0 0 97.7 92">
  <title> Balearia Eurolineas Maritimas</title>
  <path d="M47.9,46h-4.8l-2.2,16.2h.5c2.1.6,3.4.8,5.1.8,6.7,0,10.6-3,10.6-8.2s-3.6-8.7-9.1-8.7M57.7,29.3c.1-2.3-.5-4.2-1.9-5.7-1.5-1.5-3.6-2.4-6.2-2.4s-1.7,0-2.8,0h-.4s-2.2,16.1-2.2,16.1h6.7c3.3,0,6.5-3.8,6.8-8.2M61,40.6l.9.5c5.7,3,8.4,7.3,8.4,13.5s-3.4,12.6-9.2,15.3c-3.9,1.9-9,2.8-15.6,2.8s-9.7-.3-18.1-1.8l7.8-58c6.2-.7,8.4-.9,14.1-.9,13.2,0,20.8,5.4,20.8,14.8s-2.8,10.6-8.2,13.2l-.9.5h0ZM97.7,48.9c0-27-21.9-48.9-48.9-48.9S0,21.9,0,48.9c0,25.8,18.5,38.3,18.5,38.3,23.4-16.8,36.3,6.5,54,4.8,0,0,25.3-13.7,25.2-43" fill="#008996" stroke-width="0"/>
  
</svg>