<svg version="1.2" baseProfile="tiny-ps" viewBox="0 0 216 216" xml:space="preserve" xmlns="http://www.w3.org/2000/svg">
  <title>Bookkeeper360</title>
  <g>
    <path fill="#2697D4" d="M184.4,117.7c0,0-2.5,35.2-38,33.7c0,0-13.6,23.3-40.9,23.3s-41.2-24.1-41.2-24.1s-28.8,4.8-39.1-23.8&#xA;&#x9;&#x9;c0,0-8.4-23.8,15.1-33.7c0,0,3.8-36.2,41.3-32.6c12.9-22.8,41.9-30.8,64.6-17.8c7.2,4.1,13.1,9.9,17.4,17c0,0,21-2.1,31.9,15.3&#xA;&#x9;&#x9;h-0.1C206.2,92.4,202.8,109.6,184.4,117.7z"/>
    <path fill="#FFFFFF" d="M47.1,116.6h10.6c-0.2,2.5,0.6,4.9,2.2,6.8c1.8,1.7,4.2,2.5,6.6,2.4c2.4,0.2,4.7-0.6,6.5-2.2&#xA;&#x9;&#x9;c1.7-1.6,2.5-3.8,2.4-6.1c0.1-2.4-0.9-4.6-2.7-6.1c-2.4-1.6-5.2-2.3-8-2h-0.8c-0.3,0-0.5,0.1-0.8,0.2v-7.6h1.1&#xA;&#x9;&#x9;c2.6,0.2,5.1-0.5,7.2-1.9c1.6-1.4,2.5-3.5,2.4-5.7c0-1.9-0.7-3.7-2-5c-1.5-1.3-3.4-1.9-5.4-1.7c-2.1-0.2-4.2,0.5-5.7,2&#xA;&#x9;&#x9;c-1.5,1.7-2.2,3.9-2,6.1v0.3H53c-2.2,0-3.5-0.6-3.9-1.8c-0.4-1.2-0.5-2.6-0.2-3.9c0.7-2.7,2.2-5.2,4.2-7.1&#xA;&#x9;&#x9;c3.8-3.2,8.7-4.8,13.7-4.6c4.8-0.3,9.4,1.2,13.2,4.1c3.3,2.6,5.1,6.5,5,10.7c0.1,2.2-0.5,4.4-1.7,6.3c-1.3,1.9-3,3.4-5,4.4&#xA;&#x9;&#x9;c2.5,1.1,4.7,2.9,6.5,5c1.5,2.3,2.3,5,2.2,7.7c0.3,5-1.8,9.8-5.5,13.1c-4.3,3.3-9.6,4.9-15,4.6c-5.2,0.4-10.4-1.2-14.5-4.6&#xA;&#x9;&#x9;c-3.5-3.5-5.3-8.3-4.9-13.2L47.1,116.6z M105,101.6c1.3-1.2,2.9-2.2,4.6-2.8c1.9-0.7,3.9-1.1,6-1.1c4.9-0.2,9.6,1.6,13.2,4.9&#xA;&#x9;&#x9;c3.3,3.5,5,8.1,4.9,12.9c0.2,5.2-1.8,10.3-5.4,14c-3.9,3.5-9.1,5.3-14.3,5c-5.9,0.4-11.6-2.1-15.4-6.6c-3.4-4.4-5-11.1-5-20&#xA;&#x9;&#x9;c0-9.5,1.8-16.8,5.5-21.7c3.8-5.1,9.9-7.9,16.2-7.6c4.3-0.2,8.6,1.1,12,3.8c2.9,2.6,4.7,6.3,5,10.2H124c-0.9,0.1-1.8-0.3-2.4-0.9&#xA;&#x9;&#x9;c-0.6-0.6-1.2-1.3-1.8-2c-0.7-0.6-1.4-1.1-2.2-1.6c-1.1-0.6-2.4-0.9-3.6-0.8c-2.6,0-5.1,1.3-6.5,3.6&#xA;&#x9;&#x9;C105.7,94.2,104.8,97.9,105,101.6L105,101.6z M105.1,115.8c-0.1,2.7,0.7,5.3,2.4,7.4c1.6,1.8,4,2.8,6.5,2.7&#xA;&#x9;&#x9;c2.4,0.2,4.7-0.8,6.1-2.7c1.6-2.1,2.4-4.8,2.2-7.4c0.2-2.5-0.7-4.9-2.4-6.8c-1.7-1.7-4-2.5-6.3-2.4c-2.3-0.1-4.6,0.7-6.3,2.4&#xA;&#x9;&#x9;C105.8,110.9,105,113.3,105.1,115.8z M160.1,78.6c5.3-0.2,10.5,1.9,14.2,5.8c4,4.5,6,11.9,6,22.2c0,10.5-2,17.9-6.1,22.4&#xA;&#x9;&#x9;c-3.6,3.8-8.8,5.8-14,5.5c-5.5,0.2-10.9-1.9-14.6-6c-3.6-4-5.4-11.3-5.4-21.9c0-10.4,2-17.8,6-22.4&#xA;&#x9;&#x9;C149.7,80.4,154.8,78.3,160.1,78.6z M160.1,87.4c-1.4-0.1-2.8,0.4-3.9,1.3c-1.9,1.9-3.2,4.3-3.6,7c-0.9,3.6-1.3,7.3-1.3,10.9&#xA;&#x9;&#x9;c0,3.8,0.4,7.5,1.2,11.2c0.3,2.7,1.7,5.2,3.9,6.9c1.1,0.8,2.4,1.3,3.8,1.3c1.4,0,2.8-0.5,3.9-1.3c2-1.8,3.2-4.3,3.6-6.9&#xA;&#x9;&#x9;c0.9-3.6,1.3-7.3,1.3-11c0-3.7-0.4-7.4-1.3-11c-0.5-2.7-1.8-5.2-3.7-7.1C162.8,87.8,161.5,87.4,160.1,87.4z"/>
  </g>
</svg>
