<?xml version="1.0" encoding="UTF-8" standalone="yes"?>
<svg viewBox="0 0 180 180" version="1.2" baseProfile="tiny-ps" xmlns="http://www.w3.org/2000/svg">
  <title>HVV BIMI Logo</title>
  <g id="hvv-BIMI" stroke="none" stroke-width="1" fill="none" fill-rule="evenodd">
    <g id="hvv_Logo_rot_srgb" transform="translate(0.000000, 45.000000)">
      <polygon id="Path" points="0 0 180 0 180 90.7936508 0 90.7936508"/>
      <polygon id="Path" fill="#00FF00" fill-rule="nonzero" points="18.6666667 23.8730159 18.6666667 31.2380952 29.015873 35.8730159 18.6666667 40.3174603 18.6666667 47.6825397 37.2698413 38.4126984 37.2698413 33.6507937"/>
      <path d="M145.015873,66.9206349 L137.015873,66.9206349 L121.52381,35.8730159 L130.857143,35.8730159 L141.206349,57.6507937 L151.873016,35.8730159 L161.269841,35.8730159 L145.015873,66.9206349 Z M103.873016,66.9206349 L95.8730159,66.9206349 L80.4444444,35.8730159 L89.7777778,35.8730159 L100.126984,57.6507937 L110.793651,35.8730159 L120.190476,35.8730159 L103.873016,66.9206349 Z M53.5238095,53.0793651 L53.5238095,66.9206349 L45.3968254,66.9206349 L45.3968254,25.7777778 L53.5238095,25.7777778 L53.5238095,42.1587302 C54.6031746,39.8730159 56.1269841,38.0952381 58.2222222,36.6984127 C60.3174603,35.3015873 62.8571429,34.6666667 65.9047619,34.6666667 C67.3650794,34.6666667 68.7619048,34.7936508 70.031746,35.1111111 C71.3015873,35.4285714 72.4444444,35.8730159 73.4603175,36.5714286 C75.5555556,37.7777778 77.1428571,39.5555556 78.2222222,41.8412698 C79.3015873,44.1269841 79.8730159,46.7936508 79.8730159,49.9047619 L79.8730159,66.9206349 L71.4285714,66.9206349 L71.4285714,52.6349206 C71.4285714,51.5555556 71.3650794,50.6031746 71.2380952,49.6507937 C71.1111111,48.7619048 70.9206349,47.8730159 70.6666667,47.047619 C70.1587302,45.4603175 69.2698413,44.2539683 68.0634921,43.3650794 C66.8571429,42.4761905 65.2063492,42.031746 63.1111111,42.031746 C59.8095238,42.031746 57.4603175,42.9206349 55.8730159,44.7619048 C54.2857143,46.6666667 53.5238095,49.4603175 53.5238095,53.0793651" id="Shape" fill="#FA1E41" fill-rule="nonzero"/>
    </g>
  </g>
</svg>