 <svg xmlns="http://www.w3.org/2000/svg" xmlns:xlink="http://www.w3.org/1999/xlink" version="1.2" viewBox="0 0 800 800" baseProfile="tiny-ps">
  <title>wingstop_logo-01</title>
  <path d="M135.9,445.5c74.8-52,167.3-79.7,260.5-79.9h1.5V357h-1.5c-97.6,0.2-193.9,30-271.3,85.6l-1.2,0.9  l23.3,32.4l6.5-5.7L135.9,445.5z M141.6,413.7c5.9-0.1,28.8-8.1,39.9-17.2c1-0.8-17.4-0.3-25.7-3c-6.4,0.7-15.7,4-22.3,4.8  c-5.1,0.6-10.1,1-14.8,1.1c-0.2,0-0.3,0-0.5,0c-5.1,0.1-10-0.1-14.6-0.7C110.5,409.7,123.4,414,141.6,413.7z M124.6,390.9  c5.9-0.1,12.3-0.8,19-1.9c1.3-0.2,2.6-0.4,3.9-0.6c-4.9-3.7-8.8-8.7-11.5-15.2c-6.4,0.7-12.9,1.5-19.6,2.3c-5.1,0.6-10.1,1-14.8,1.1  c-0.2,0-0.3,0-0.5,0c-5.1,0.1-10-0.1-14.6-0.7C93.4,386.9,106.4,391.2,124.6,390.9z M307.5,462.8l-12.5,4.6c-0.2,0-0.3,0-0.5,0.1  c-32,8.8-62.8,21.8-91.4,38.7c-0.9,0.6-1.3,1.7-0.9,2.7c0.3,0.8,1.1,1.3,2,1.3c0.2,0,0.4,0,0.6-0.1c34.3-10,58.8-16,91.6-19.7  c0.2,0,0.3,0.1,0.5,0.1l20,2.4c2.5,0.3,5.1,2.5,5.8,4.9l5.7,19.3c0.7,2.4,3.3,3.9,5.7,3.3l19.6-4.6c2.4-0.6,5.7,0.6,7.2,2.6  l11.9,16.1c1.5,2,4.4,2.5,6.5,1.2l16.8-11c0,0,0.1,0,0.1-0.1v-12.8C360.4,510.7,327.4,492.1,307.5,462.8z M382,476.5l-0.4-0.1  l-1,4.1c1.3,0.4,2.3-0.1,2.6-1.4C383.6,477.9,383.2,476.7,382,476.5z M397.9,438.3v-8.6h-1.5c-79.4,0.2-155.7,27.1-220.6,71.4  l-18.6-26l-6.5,5.7l23.1,32.2l1.2-0.8c64.6-46,141.2-73.7,221.4-73.9L397.9,438.3L397.9,438.3z M60,319.1  c59.4-0.4,199.3-1.2,199.3-1.2c1.4,0,2.6,1,2.9,2.4c0,0.1,3.7,15.3,14.7,21.6c4.6,2.8,11.7,4.6,16.6,5.4l2.3-1.7  c-0.2-2.6-0.4-5.4-0.5-7.2c-4.1-2.4-14.5-9.9-15-25.2v-0.3h0.1v-0.3h-0.1c0-3.1-1.7-5.3-5.7-7.4c-3.9-2-9.8-3-16.5-3L4.2,303.9  C11.2,315,32.8,319.5,60,319.1z M493.9,338.1l13.9-21l0.2-2.8c0.2-2.5-1.8-4.8-4.2-5.1l-20-2.3c-2.5-0.3-5.1-2.5-5.8-4.9l-5.9-19.3  c-0.7-2.4-3.3-3.9-5.7-3.3l-19.6,4.6c-2.4,0.6-5.7-0.6-7.2-2.6l-12-16.2c-1.5-2-4.4-2.5-6.5-1.2l-17.7,10.3v13.5h0.5  C440.5,289,474,308.1,493.9,338.1z M306.2,338.1l-13.9-21l-0.2-2.8c-0.2-2.5,1.8-4.8,4.3-5.1l20-2.3c2.5-0.3,5.1-2.5,5.8-4.9  l5.7-19.3c0.7-2.4,3.3-3.9,5.7-3.3l19.6,4.6c2.4,0.6,5.7-0.6,7.2-2.6l12-16.2c1.5-2,4.4-2.5,6.5-1.2l17.7,10.3v13.5h-0.5  C359.5,289,326,308.1,306.2,338.1z M435.1,351.3c-9.3-7.7-21.1-11.4-34-11.7c-0.2,0-0.5,0-0.7,0c-13.3-0.1-25.6,3.6-35.2,11.4  c11-0.9,22.1-1.3,33.1-1.3h2.4c1.9,0,3.8,0,5.8,0.1C416,349.9,425.6,350.5,435.1,351.3z M178.5,367.8c29.1-3.5,55.9-6.5,76.2-8.8  c-4.5-4.8-7.3-10.1-8.7-13c-10.7,1.2-62.5,6.6-87.4,7.5c-0.5,0-1,0-1.4,0c-13.4,0.2-25-1.1-34.5-3.9c-0.8,0-1.5,0.1-2.3,0.2  c6.6,14.2,21.8,19.5,43.8,19.1C168.8,368.7,173.6,368.4,178.5,367.8z M188.8,388.9c5.9-0.2,39-14.2,69.2-23.4  c-20.9,2.3-46.1,5.7-78.9,9.6c-5.1,0.6-10,1-14.7,1.1c-0.2,0-0.5,0-0.7,0c-7.2,0.2-13.9-0.4-20.1-1.7  C150.6,385.7,170.6,389.2,188.8,388.9z M80.9,345.2c2.8-0.1,5.7-0.2,8.6-0.4c6.5-0.5,12.8-1,19-1.4c-6.5-4.2-10.7-9.7-12.2-16.3  c-13.7,0.1-26.1,0.2-36.2,0.3c-9.8,0-19.1-0.5-27.5-1.8C39.7,340.1,56.6,345.6,80.9,345.2z M272.4,361.9c3,0.7,6.1,1.4,9.1,2.2  c1.3-0.4,2.6-0.8,3.9-1.2l1.3-4.7c-4.2-1.2-8.8-3.1-12.7-5.7c-10.6-7.4-15.2-20.8-16.9-26.6c-14.2,0.1-94.5,0.6-154.7,1.1  c1.5,4.2,5.6,8.6,13,12.2c9.5,4.6,23.7,7.5,41.7,7c0.5,0,1,0,1.4,0c27.3-0.9,88.7-7.7,88.8-7.7l2.1-0.2l0.9,2.3c0,0,1.7,4.5,5.3,9.5  C259.5,355,265,360.3,272.4,361.9z M101.5,369.3c4.5-0.1,9.3-0.5,14.3-1.1c3.6-0.4,7.1-0.8,10.5-1.2c-5.4-4-9.6-9.5-12.3-16.7  c-8.1,0.6-16.2,1.2-24.2,1.8c-3,0.2-6,0.4-8.9,0.5c-0.2,0-0.4,0-0.6,0c-8,0.2-15.5-0.3-22.3-1.8C64.9,364.4,79.9,369.7,101.5,369.3z   M302,360.2c17.3-3.6,34.7-6.2,52.3-7.8c11.9-11.5,28.1-18.6,46-18.5c0.3,0,0.6,0,0.9,0c17.4,0.4,33.1,7.5,44.7,18.9  c18,1.9,35.9,4.8,53.6,8.7c-15.3-39.8-53.8-68.1-99-68.1C355.8,293.3,317.5,321,302,360.2z M468.9,332.8c2.1,2.1,2.4,4.9,1.3,7.5  l-4.6-2.1c0.5-0.5,0.9-1.7,0.3-2.3c-1.6-1.6-4.4,1.5-5.4,2.5c-0.9,1-3.2,3.2-1.8,4.5c0.9,0.9,2.3,0.1,3-0.7l-1.3-1.3l2.7-2.7  l4.9,4.8l-0.5,0.6c-3.1,3.2-7.7,6.5-11.7,2.6c-3.8-3.7-1.8-8.3,1.5-11.6C460.4,331.5,465.1,329.1,468.9,332.8z M443.6,314.9l4,2.3  l-2,11.5h0.1c0.9-1.9,1.6-3.9,2.7-5.7l2.3-4l4.1,2.4l-9.1,15.7l-4.1-2.4l2.1-10.9h-0.1c-0.8,1.5-1.4,3.1-2.3,4.6l-2.7,4.6l-4.1-2.4  L443.6,314.9z M428.7,309.2l4.7,1.5l-5.7,17.2l-4.7-1.5L428.7,309.2z M403.4,305l0.5,7.4c0.1,1.4,0.1,2.7,0.2,4  c0.3-1.3,0.4-2.6,0.7-4l1.9-7.2l4.2,0.3l0.7,7.4c0.1,1.3,0.1,2.6,0.2,4c0.2-1.1,0.4-2.5,0.7-3.9l1.7-7.2l4.8,0.4l-5.1,17.8l-4.7-0.4  l-0.7-7.5c-0.1-1.5-0.1-2.8-0.2-4c-0.2,1.2-0.4,2.5-0.7,4l-1.6,7.3l-4.7-0.4l-2.7-18.3L403.4,305z M374.8,307.9l1.4,4l-4,1.4  l0.8,2.4l3.6-1.2l1.4,4.1l-3.6,1.2l0.9,2.6l4-1.4l1.4,4l-8.6,3l-5.9-17.2C366.2,310.9,374.8,307.9,374.8,307.9z M349.6,319.6  l3.5,5.5l2-1.2l-3.5-5.5l4.2-2.6l9.7,15.4l-4.2,2.6l-3.9-6.2l-2,1.2l3.9,6.2l-4.2,2.6l-9.7-15.4L349.6,319.6z M337.4,328.7l3.1,3.1  l-2,2l9.7,9.7l-3.5,3.5l-9.7-9.7l-1.9,1.9l-3.1-3.1L337.4,328.7z M678.7,349.8c-0.8-0.1-1.5-0.1-2.3-0.2c-9.4,2.7-21.1,4.1-34.5,3.9  c-0.4,0-0.9,0-1.4,0c-24.9-0.8-76.6-6.3-87.4-7.5c-1.4,2.9-4.2,8.2-8.7,13c20.3,2.3,47.1,5.3,76.2,8.8c4.9,0.6,9.7,1,14.2,1.1  C656.9,369.3,672.1,363.9,678.7,349.8z M634.8,376.2c-4.7-0.1-9.6-0.5-14.7-1.1c-32.8-3.9-58-7.3-78.9-9.6  c30.1,9.1,65.2,23.4,71.1,23.6c18.3,0.3,36.3-3.4,43.2-14.6c-6.1,1.4-12.9,1.9-20.1,1.7C635.3,376.2,635.1,376.2,634.8,376.2z   M696.8,326.9c-60.2-0.4-140.5-1-154.7-1.1c-1.6,5.8-6.2,19.3-16.9,26.6c-3.9,2.6-8.5,4.4-12.7,5.7l1.3,4.7c1.3,0.4,2.6,0.8,3.9,1.2  c3-0.8,6.1-1.5,9.1-2.2c7.5-1.6,13-6.9,16.7-11.9s5.3-9.4,5.3-9.5l0.9-2.3l2.1,0.2c0.1,0,61.5,6.7,88.8,7.7c0.5,0,1,0,1.4,0  c18,0.4,32.2-2.4,41.7-7C691.2,335.5,695.3,331.1,696.8,326.9z M406.7,357.1H404v8.6h1.4h1.2c47.1,0.9,93.5,7.9,138,22.8  c42.6,14.3,82.5,34.5,118.6,60.1l-18.5,25.1l6.5,5.7l24.1-32.8l-1.2-0.9C597.6,389.8,502.7,358.9,406.7,357.1z M180.1,431  c-0.8,0.4-0.8,1.2-0.2,2.2c0.2,0.3,0.4,0.6,0.7,0.9s0.8,0.9,1.7,1.6c8.5,7.4,12.6,11.2,20.7,18.9c0.1,0,0.1,0,0.1-0.1  c-2.1-11.1-3.1-16.7-4.8-28c-0.1-0.9-0.2-1.5-0.4-1.9c-0.1-0.4-0.2-0.7-0.4-1c-0.6-1.1-1.2-1.4-1.8-1.1c-0.3-0.6-0.5-0.9-0.8-1.5  c5.3-2.7,8-4.1,13.3-6.6c0.3,0.6,0.4,0.9,0.7,1.6c-0.4,0.2-0.6,0.4-0.6,0.8s0.1,0.7,0.2,1.1c0.3,0.6,1,1.4,2.2,2.6  c7.9,8.2,11.8,12.3,19.3,20.8c0.1,0,0.1,0,0.1-0.1c-1.4-11.5-1.9-17.2-2.8-28.8c0-1-0.2-1.9-0.5-2.6c-0.1-0.4-0.4-0.6-0.8-0.9  c-0.4-0.2-0.8-0.2-1.1-0.1c-0.3-0.6-0.4-0.9-0.7-1.6c4.7-2,8-3.9,12.8-5.8c0.2,0.6,0.4,1,0.6,1.6c-0.6,0.2-0.9,0.8-0.9,1.6  c0,0.8,0,1.8,0.1,3.1c0.9,15.4,1.5,23,3.1,38.2l0.3,2.8c0.1,0.8,0.2,1.4,0.4,1.9c0.2,0.4,0.5,0.7,0.8,0.9c0.4,0.2,0.8,0.2,1.2,0.1  c0.3,0.6,0.4,0.9,0.7,1.6c-4.4,1.9-7.6,3.9-12,5.9c-0.3-0.6-0.4-0.9-0.7-1.6c0.2-0.2,0.4-0.5,0.6-0.9c0.2-0.4,0.2-0.8,0-1.2  c-0.2-0.5-0.5-0.9-1-1.4c-0.4-0.5-1.1-1.2-1.9-2c-8-8.7-12.2-13-20.6-21.4l-0.2,0.1c1.6,11.5,2.5,17.3,4.6,28.7  c0.4,2.6,0.8,4.1,1.1,4.7c0.5,0.9,1.1,1.3,1.8,1.2c0.3,0.6,0.5,0.9,0.8,1.5c-4.2,2.2-7.3,4.3-11.5,6.7c-0.3-0.6-0.5-0.9-0.9-1.5  c0.3-0.2,0.5-0.4,0.7-0.7c0.2-0.3,0.2-0.7-0.1-1.1c-0.3-0.5-0.6-0.9-1-1.3s-0.9-0.8-1.4-1.3c-12.1-11.3-18.4-16.8-31.3-27.4  c-0.6-0.5-1.1-0.9-1.5-1.1c-0.5-0.3-1-0.3-1.6-0.1c-0.4-0.6-0.5-0.9-0.9-1.5c4.7-2.8,8-5.2,12.7-7.9  C179.6,430.1,179.8,430.4,180.1,431z M255.4,446.9c1.7-0.6,2.3-1.5,1.9-2.6c-6.2-16.2-8.3-25.3-14.4-41.5c-0.4-1.1-1.5-1.3-3.4-0.5  c-0.3-0.6-0.4-1-0.6-1.6c7.1-2.8,8.8-3.1,15.9-5.5l0.6,1.6c-1.9,0.6-2.6,1.5-2.2,2.6c5.7,16.4,8.5,24.6,14.2,41  c0.4,1.1,1.4,1.3,3.1,0.8l0.6,1.6c-6.4,2.1-8.6,3.3-14.9,5.7C255.8,447.9,255.7,447.6,255.4,446.9z M274.8,440.1  c1.1-0.4,1.5-1.1,1.1-2.2l-13.2-41.3c-0.4-1.1-1.1-1.4-2.4-1c-0.2-0.5-0.4-1.1-0.5-1.6l15.9-4.1c0,0,0.3,1,0.5,1.7  c-0.5,0.1-0.7,0.5-0.5,1.1c0.1,0.5,2.7,2,2.7,2l33,21.1c0,0-3.7-17.9-6.2-29.8c-0.2-1.1-1.2-1.5-2.9-1.1c-0.1-0.7-0.2-1-0.4-1.7  c6-1.3,9.1-1.9,15.1-2.9l0.3,1.7c-1.3,0.2-1.6,2-1.6,2l8.7,41.8c0,0,0.9,1.6,2,1.4c0.1,0.7,0.2,1,0.3,1.7c-5.8,1-8.6,1.6-14.4,2.8  c-0.1-0.7-0.2-1-0.4-1.7c0.8-0.2,1.1-0.5,1-1.1c-0.1-0.4-1.9-1.8-1.9-1.8l-34.7-22.3l8.9,30.5c0.3,1.1,1.2,1.5,2.5,1.1  c0.2,0.7,0.3,1,0.5,1.6c-5.2,1.5-7.7,2.3-12.9,3.9C275.1,441.1,275,440.8,274.8,440.1z M374.9,388.2c-0.8-0.2-1.2-0.3-2-0.5  c0.1-0.4,0.2-0.8,0.1-1.2c-0.1-1-0.7-1.8-2-2.5s-2.9-1.2-4.8-1.7c-1.9-0.4-4-0.7-6.3-0.7c-2.1-0.1-4.2,0-6.3,0.2  c-2.5,0.2-4.9,0.8-7.2,1.8c-2.3,0.9-4.4,2.2-6,3.9c-1.7,1.6-2.9,3.6-3.7,6c-0.8,2.4-1,5.1-0.5,8.3c0.5,3.1,1.4,5.7,2.8,7.8  s3.1,3.7,5,4.9c1.9,1.2,4,1.9,6.3,2.4c2.3,0.4,4.6,0.5,6.8,0.3c3.5-0.3,6.6-0.9,9.3-1.7c2.7-0.8,5.1-1.6,7-2.4  c-0.2-3.3-0.3-4.9-0.5-8.2c-4.8,0.3-7.2,0.4-12,0.9c-0.9,0.1-1.5,0.3-1.9,0.7s-0.6,1.3-0.6,2.6l-1.7,0.2c-0.5-4.9-0.7-7.3-1.2-12.2  c0.7-0.1,1-0.1,1.7-0.2c0.2,1.1,0.6,1.7,1,2c0.5,0.2,1.2,0.3,2,0.2c9.5-0.8,14.3-1.1,23.9-1.4c0,0.7,0,1,0.1,1.7  c-1.3,0.2-2.1,0.5-2.4,0.7c-0.3,0.3-0.4,0.8-0.4,1.6c0.1,4.3,0.2,6.5,0.4,10.8c0,0.6,0.2,1,0.6,1.2s0.8,0.4,1.3,0.6  c0,0.6,0,0.9,0,1.5c-1.9,1.5-4,2.8-6.2,3.9c-2.1,1-4.3,1.9-6.6,2.6c-2.2,0.7-4.4,1.2-6.7,1.5c-2.2,0.3-4.4,0.6-6.6,0.8  c-4.2,0.4-8,0.3-11.6-0.4c-3.6-0.7-6.8-1.9-9.6-3.7c-2.8-1.8-5.2-4.1-7.1-7s-3.2-6.3-3.9-10.2c-0.7-4-0.6-7.6,0.4-11  c0.9-3.3,2.6-6.4,5-9s5.4-4.8,9.1-6.4c3.7-1.7,7.9-2.7,12.7-3.2c3-0.3,5.8-0.4,8.6-0.2c2.7,0.2,5.2,0.4,7.3,0.8  c2.1,0.3,3.9,0.7,5.3,1s2.3,0.5,2.6,0.5c0.6,0,1.1-0.2,1.4-0.4c0.3-0.3,0.6-0.5,1-0.7c0.5,0.2,0.7,0.4,1.2,0.6  C378,380.5,376.9,383,374.9,388.2z M421.8,407c0.4,0.2,0.6,0.3,1,0.5c0,0.5,0.1,1.1,0.3,1.6c0.4,0.8,1.3,1.6,2.7,2.4  c1.4,0.8,2.9,1.6,4.7,2.3c1.8,0.7,3.7,1.4,5.5,1.9c1.9,0.5,3.7,0.9,5.2,1c1.1,0.1,2.6,0.2,4.5,0.3c1.8,0.1,3.7-0.1,5.5-0.3  c1.8-0.3,3.4-0.8,4.9-1.5c1.4-0.7,2.2-1.8,2.5-3.2c0.2-1.4-0.2-2.6-1.3-3.5c-1.1-0.9-2.6-1.6-4.6-2.2c-1.9-0.6-4.2-1.1-6.7-1.5  c-2.6-0.4-5.2-0.8-7.8-1.2c-2.6-0.4-5.2-1-7.7-1.6s-4.8-1.5-6.7-2.7c-1.9-1.2-3.5-2.7-4.7-4.6s-1.7-4.3-1.6-7.2  c0.1-2,0.7-3.9,1.9-5.8c1.2-1.9,2.9-3.5,5.2-4.8c2.3-1.3,5.2-2.3,8.8-3c3.5-0.7,7.6-0.8,12.3-0.3c4,0.4,7.4,1.1,10.2,2  c2.9,0.9,5.3,1.8,7.3,2.7s3.7,1.7,5.1,2.4c1.4,0.7,2.5,1.2,3.5,1.3c1,0.2,1.8,0.1,2.3-0.2c0.5,0.4,0.7,0.6,1.2,1  c-3.9,4.2-5.8,6.3-9.5,10.5c-0.4-0.2-0.6-0.3-1-0.5c0-0.9-0.2-1.7-0.5-2.3c-0.5-0.8-1.3-1.7-2.5-2.7c-1.2-0.9-2.7-1.8-4.5-2.6  c-1.9-0.9-3.8-1.6-5.8-2.1c-2.1-0.6-4.2-1-6.4-1.3c-1.7-0.2-3.4-0.2-5.1-0.2c-1.7,0.1-3.3,0.3-4.8,0.6c-1.4,0.3-2.6,0.8-3.6,1.5  s-1.5,1.5-1.6,2.6c-0.1,1.5,0.4,2.7,1.6,3.6s2.8,1.6,4.8,2.1c2,0.6,4.3,1,6.9,1.4s5.2,0.9,7.9,1.4c2.7,0.5,5.3,1.2,7.8,2.1  c2.5,0.8,4.7,2,6.6,3.3c1.8,1.4,3.2,3,4.1,5s1.1,4.4,0.6,7.2c-0.6,3.3-2,5.8-4.2,7.5c-2.2,1.8-4.8,3-7.7,3.8c-2.9,0.8-6,1.2-9.2,1.2  s-6.1-0.1-8.9-0.4c-3.8-0.4-6.9-0.9-9.5-1.5c-2.5-0.6-4.6-1.3-6.3-2c-1.7-0.7-3-1.3-4-1.9c-1-0.5-1.8-0.8-2.6-0.9  c-0.5,0-0.9,0.2-1.3,0.7c-0.5-0.3-0.8-0.5-1.4-0.8C418,413.7,419.2,411.5,421.8,407z M408.9,395.1c0-4.4-3.7-8-8.2-8s-8.3,3.5-8.3,8  c0,4.4,3.7,8.1,8.2,8.1C405.2,403.1,408.9,399.5,408.9,395.1z M496.8,430.7c-0.3,1.1,0.2,1.8,1.5,2.2c-0.2,0.7-0.3,1-0.4,1.7  c-5.4-1.4-8.1-2.1-13.5-3.3c0.1-0.7,0.2-1,0.4-1.7c0.4,0.1,0.8,0,1.2-0.2c0.4-0.2,0.6-0.6,0.8-1.2c3.4-14.8,5-22.3,8.4-37.1  c-6.4-1.5-7.2-1.5-13.5-3.2c-0.6-0.2-1.2-0.2-1.8,0c-0.6,0.2-1.1,0.7-1.3,1.5c-0.7-0.2-1-0.3-1.7-0.5c1.3-5.2,2-7.8,3.4-13l1.8,0.5  c-0.2,0.9-0.1,1.5,0.4,2c0.4,0.4,1,0.8,1.6,0.9c17.5,4.7,20.8,4.5,38.2,9.7c0.6,0.2,1.2,0.2,1.9,0.1c0.6-0.1,1.1-0.6,1.4-1.5  c0.7,0.2,1.1,0.3,1.8,0.5c-1.6,5.1-2.3,7.7-3.9,12.8c-0.7-0.2-1-0.3-1.7-0.5c0.3-0.9,0.2-1.5-0.3-2s-1-0.8-1.5-1  c-6.4-1.9-7-2.1-13.4-3.7C502.4,408.6,500.5,416,496.8,430.7z M553.9,399.4c3.2,1.2,6.2,2.9,9,5.2c2.8,2.2,5.1,4.9,6.9,8  c1.8,3.1,2.8,6.4,3.1,10.1s-0.5,7.5-2.3,11.5s-4.2,7.1-7.1,9.3c-2.9,2.2-5.9,3.8-9.1,4.7c-3.2,0.9-6.4,1.2-9.6,1  c-3.2-0.3-6.2-0.9-9-2c-2.8-1-5.5-2.5-8.1-4.4s-4.8-4.3-6.6-7.1c-1.8-2.8-3-6-3.7-9.5c-0.7-3.6-0.4-7.5,0.9-11.7  c1.3-4.2,3.2-7.6,5.8-10.2s5.6-4.4,9-5.5c3.3-1.1,6.8-1.6,10.5-1.5C547.4,397.5,550.8,398.2,553.9,399.4z M550.8,407.6  c-2.1-0.8-4.4-1.2-6.8-1.3c-2.4,0-4.7,0.3-6.9,1.1c-2.2,0.8-4.1,2-5.8,3.6s-3,3.8-3.8,6.3s-1,5-0.7,7.3c0.4,2.3,1.1,4.4,2.2,6.4  c1.1,1.9,2.6,3.6,4.3,5s3.6,2.5,5.5,3.2c2,0.7,4.1,1.1,6.3,1.2s4.4-0.2,6.6-0.9c2.1-0.7,4.1-1.8,5.9-3.3c1.8-1.5,3.3-3.5,4.3-6  s1.5-4.9,1.3-7.2c-0.2-2.4-0.9-4.6-2-6.6s-2.7-3.8-4.5-5.4C554.9,409.6,552.9,408.4,550.8,407.6z M561.1,457.5  c0.3-0.6,0.4-0.9,0.7-1.6c2.1,0.9,3.3,0.9,3.8-0.1c7.4-15.7,11.1-23.6,18.4-39.3c0.5-1-0.4-2.1-2.7-3.2c0.3-0.6,0.4-0.9,0.7-1.6  c13.3,6.1,19.8,9.4,32.7,16.7c5.8,3.3,9.8,7,11.9,11c2.1,3.9,1.6,8.2-1.3,12.8c-2.9,4.6-6.5,6.8-10.8,6.9c-4.3,0-9.1-1.5-14.5-4.6  c-6.8-3.9-10.3-5.7-17.3-9.2c-3.1,6.1-4.6,9.1-7.6,15.2c-0.5,1,0.1,2,1.9,2.9c-0.3,0.6-0.5,0.9-0.8,1.5  C570.3,461.7,567.2,460.3,561.1,457.5z M605.5,447.4c1.9,1.1,3.7,1.7,5.5,1.8s3.3-0.9,4.5-3s1.4-3.9,0.4-5.4s-2.4-2.9-4.4-4  c-7.6-4.3-11.5-6.4-19.2-10.3c-2.2,4.4-3.3,6.6-5.5,10.9C594.3,441.1,598.1,443.1,605.5,447.4z M703,327  c-1.5,6.6-5.7,12.1-12.2,16.3c6.2,0.5,12.5,0.9,19,1.4c2.9,0.2,5.8,0.4,8.6,0.4c24.2,0.5,41.1-5,48.3-19.8  c-8.4,1.4-17.7,1.8-27.5,1.8C729.1,327.2,716.7,327.1,703,327z M541.2,302.3c-6.7-0.1-12.6,1-16.5,3c-4,2-5.7,4.3-5.7,7.4h-0.1v0.3  h0.1v0.3c-0.4,15.3-10.8,22.8-15,25.2c-0.2,1.8-0.4,4.6-0.6,7.2l2.3,1.7c4.9-0.9,12-2.7,16.6-5.4c10.9-6.3,14.7-21.5,14.7-21.6  c0.3-1.5,1.5-2.4,2.9-2.4c0,0,139.9,0.9,199.3,1.2c27.2,0.4,48.8-4.1,55.8-15.2L541.2,302.3z M681.1,399.4c-0.2,0-0.3,0-0.5,0  c-4.7-0.1-9.7-0.5-14.8-1.1c-6.7-0.8-16-4-22.3-4.8c-8.4,2.7-26.8,2.1-25.7,3c11.1,9.1,34,17.1,39.9,17.2c18.2,0.3,31.1-4,38-15  C691.1,399.3,686.2,399.6,681.1,399.4z M698.2,376.6c-0.2,0-0.3,0-0.5,0c-4.7-0.1-9.7-0.5-14.8-1.1c-6.7-0.8-13.2-1.6-19.6-2.3  c-2.7,6.5-6.6,11.5-11.5,15.2c1.3,0.2,2.6,0.4,3.9,0.6c6.7,1.1,13.1,1.8,19,1.9c18.2,0.3,31.1-4,38-15  C708.2,376.5,703.3,376.7,698.2,376.6z M718.9,352.5c-0.2,0-0.4,0-0.6,0c-2.9-0.1-5.9-0.3-8.9-0.5c-8.3-0.6-16.4-1.2-24.2-1.8  c-2.7,7.2-6.9,12.7-12.3,16.7c3.5,0.4,7,0.8,10.5,1.2c5,0.6,9.8,1,14.3,1.1c21.6,0.4,36.6-4.8,43.4-18.5  C734.4,352.2,726.9,352.7,718.9,352.5z M399.6,459.5c13,0.1,25-4.4,34.5-11.8v-0.1c-9.6-1-19.3-1.6-29-1.8c-1.6,0-3.3-0.1-5-0.1  h-1.9c-11.1,0-22.1,0.6-33,1.6c9.2,7.4,20.9,11.9,33.5,12.2C399.1,459.5,399.3,459.5,399.6,459.5z M443.4,448.7L443.4,448.7  C443.4,448.8,443.4,448.8,443.4,448.7c-0.1,0.1-0.2,0.2-0.3,0.2L443,449c-11.7,10.2-26.9,16.3-43.5,16.2c-0.3,0-0.6,0-0.9,0  c-16.4-0.3-31.3-6.7-42.7-16.9c-15.2,1.7-30.2,4.3-44.9,7.8c18.8,29.6,51.9,49.2,89.5,49.2c37.2,0,70-19.2,88.9-48.3  C474.3,453.3,459,450.6,443.4,448.7z M346.8,466.8l-2.8-2.5l-1.9,2.1l3.1,2.8l-2.9,3.2l-6.8-6.1l12.1-13.5l6.8,6.1l-2.9,3.2  l-3.1-2.8l-1.7,1.9l2.8,2.5L346.8,466.8z M363.9,475l-0.5,10.4l-4.8-2.6l0.4-3c0.1-0.7,0.3-1.4,0.5-2.1c-0.5,0.5-1,1-1.5,1.5l-2.3,2  l-4.7-2.5l8.3-6.2l0.5-9.7l4.8,2.6l-0.3,2.3c-0.1,0.7-0.3,1.4-0.5,2.1c0.5-0.5,0.9-1.1,1.4-1.6l1.6-1.6l4.9,2.6L363.9,475z   M388.1,480.2c-1.1,4.6-4.3,5.3-8.4,4.2l-1.4,5.8l-4.8-1.2l4.3-17.6l4.3,1.1C386.3,473.5,389.2,475.6,388.1,480.2z M405.4,479.2  l-4.2-0.1v2.5l3.8,0.1l-0.1,4.3l-3.8-0.1v2.8l4.2,0.1l-0.1,4.3l-9.1-0.1l0.3-18.1l9.1,0.1L405.4,479.2z M424.2,490l-4.4-6.7v0.1  c0.2,0.9,0.5,1.7,0.7,2.6l1.1,4.7l-4.8,1.1l-4.2-17.7l4.6-1.1c4.1-1,7.4-0.5,8.5,4.2c0.5,1.9,0,3.9-1.7,5.1l5.3,6.5L424.2,490z   M440.2,484.3L434,472l-2.4,1.2l-2-4l9.3-4.7l2,4l-2.5,1.3l6.2,12.3L440.2,484.3z M458.5,473.2c-1,0.8-2.1,1.4-3.3,1.7l-3.6-4.4  c1.2,0.4,2.7,0.4,3.7-0.4c0.5-0.4,0.9-1.2,0.4-1.8c-0.2-0.3-0.6-0.5-0.9-0.5c-0.3-0.1-0.7-0.1-1.1,0c-1.2,0-2.3,0-3.3-0.3  s-1.9-0.8-2.8-1.8c-1.3-1.6-2.7-5.5,0.5-8.1c0.9-0.7,2.1-1.3,3.3-1.5l3.5,4.3c-1-0.3-2.6-0.4-3.5,0.3c-0.4,0.4-0.7,1.1-0.3,1.7  c0.2,0.3,0.6,0.4,1,0.5s0.8,0,1.2,0c1.3-0.1,2.3-0.1,3.3,0.2c1,0.3,1.8,0.8,2.7,1.9C461.3,467.5,461.2,471.1,458.5,473.2z   M418.2,476.8l1,4.4h0.3c1.3-0.3,1.7-1.6,1.4-2.7C420.6,476.9,419.5,476.4,418.2,476.8z M595.7,507.8c-27.9-17-58.2-30.2-89.2-40.5  c-3.4-1.1-13.3-4.9-13.3-4.9c-15.9,23.6-40.6,41.2-70.7,47.3c-5.6,1.1-11.4,1.9-17.1,2.1v13.9l15.2,10.1c2.1,1.4,5,0.9,6.5-1.1  l12-16.1c1.5-2,4.7-3.2,7.2-2.6l19.5,4.7c2.4,0.6,5-0.9,5.7-3.3l5.8-19.2c0.7-2.4,3.4-4.6,5.9-4.9l19.9-2.3  c35.5,4.6,62.3,12.2,90.8,20.8c0.2,0.1,0.4,0.1,0.6,0.1c0.8,0,1.6-0.5,2-1.3C597,509.6,596.7,508.4,595.7,507.8z M622.7,503.6  c-63.3-44.6-138.4-72.4-217.2-73.9H404v8.6h1.4c79.6,1.6,155,30.2,218,76.4l1.2,0.9l23-31.2l-6.5-5.7L622.7,503.6z" fill="#046A37"/>
</svg>