<?xml version="1.0" encoding="utf-8"?>
<!-- Generator: Adobe Illustrator 27.9.0, SVG Export Plug-In . SVG Version: 6.00 Build 0)  -->
<svg version="1.2" baseProfile="tiny-ps" id="Layer_1" xmlns="http://www.w3.org/2000/svg" xmlns:xlink="http://www.w3.org/1999/xlink"
	 viewBox="0 0 500 500" xml:space="preserve">
<title>Scottish Rite, Northern Masonic Jurisdiction</title>
<rect x="-0.3" y="-0.3" fill="#3F2874" width="500" height="500"/>
<g>
	<g id="Vector_Smart_Object_4_">
		<g>
			<g>
				<g>
					<path fill="#FFFFFF" d="M97.8,164.7c-0.4,0-0.8,0.1-1.3,0.4l-2.8,1.9c-3.3-2-7.6-2.4-9.9-2.4c-9,0-22.7,7-22.7,19.8
						c0,19.7,29.6,28.9,29.6,48.2c0,14.1-13.9,23.5-26,23.5c-10.9,0-22.6-6.7-22.6-20.5c0-10,6.1-16.8,13.2-16.8
						c4.8,0,7.2,3.2,7.2,6.5c0,1.4-0.5,3-1.5,3.7c1,1.4,2.8,2.4,4.3,2.4c3.1,0,6-2.6,6-7.1c-0.4-6.2-7.9-9.8-15.6-9.8
						c-11.8,0-23.9,8.5-23.9,21.8c0,15.3,16.3,25.4,32.6,25.4c17.1,0,38.3-11.9,38.3-32.9c0-21.8-29-33.6-29-48.3
						c0-5.4,4.9-9.5,10.3-9.5c7.8,0,12.4,8.3,14.2,13.1c0.4,1,1.6,1.5,2.9,1.5c1.7,0,3.3-0.9,3.3-2.2V183l-4.5-16.1
						C99.5,165.4,98.9,164.7,97.8,164.7"/>
					<path fill="#FFFFFF" d="M155.3,177.8c-0.4,0-0.9,0.1-1.4,0.4l-2.6,1.8c-3.2-1.9-6.5-2.4-9.8-2.4c-20,0-33,17.3-33.3,34.3
						c-0.4,15.7,10,25.2,23.6,25.2c12.9,0,24-9.2,24.2-18.8c0.2-5.7-3.6-7.5-6.6-7.5c-4,0-6.8,2.7-7.1,6.6c0.2-0.1,0.4-0.1,0.7-0.1
						c1.6,0,2.6,1.4,2.5,3.5c-0.1,4.6-4.6,10.3-12.4,10.3c-10,0-12.9-8.8-12.7-17.8c0.4-14.7,9.2-30,21-30c7.7,0,10.6,6.1,12.9,12.7
						c0.4,1.1,1.4,1.6,2.6,1.6c1.5,0,3.1-0.7,3.3-2.4l0.1-0.5l-3.3-15.1C156.9,178.5,156.3,177.8,155.3,177.8"/>
					<path fill="#FFFFFF" d="M188.5,231c-8.9,0-12.6-7.7-12.6-17c0-12.2,6.9-30.6,20.5-30.6c8.7,0,12.4,7.6,12.4,16.9
						C208.8,212.7,202,231,188.5,231 M196.9,177.7c-19.9,0-33.4,16.7-33.4,34.2c0,16.1,10.4,25.1,24.8,25.1c19.7,0,33-16.9,33-34.2
						C221.4,186.4,210.7,177.7,196.9,177.7"/>
					<path fill="#FFFFFF" d="M328.6,194.3l-3.9-14.1c-0.4-1.3-1.4-1.7-2.6-1.6c-7,0.4-14,0.7-19.8,0.7c-6,0-13.7-0.4-19.1-0.7
						c-1.3-0.1-2.1,0.4-2.6,1.6l-2.5,6.1l-1.7-6.1c-0.4-1.3-1.4-1.7-2.6-1.6c-7,0.4-14,0.7-19.8,0.7c-6.1,0-13.7-0.4-19.1-0.7
						c-1.3-0.1-2.1,0.4-2.6,1.6l-5.7,14c-0.9,2.2,5.2,2.8,6.3,0.5c2.4-4.8,6.8-10.1,11.1-10.1c3.7,0,4.1,2.4,3.4,7
						c-0.9,6.5-4,24.4-5.5,30.9c-0.8,4.2-2.1,7.1-5.5,7.1c-1.3,0-1.9,0.5-2.1,1.8l-0.4,2.2c-0.3,1.6,0.9,1.8,1.5,1.8
						c6.9-0.6,13.5-0.6,20.2,0c1.3,0,1.9-0.5,2.1-1.8l0.5-2.2c0.2-1.3-0.3-1.8-1.5-1.8c-3.6,0-3.6-3.1-3-7.1
						c0.8-6.5,4.1-24.4,5.5-30.9c0.8-4,1.9-6.8,5.1-7c4.5-0.4,7,5,9.8,10.2c0.6,1.1,2.3,1.5,3.8,1.3c1.4,0,2.9-0.4,3.4-1.4
						c2.4-4.8,6.8-10.1,11.1-10.1c3.7,0,4.1,2.4,3.4,7c-0.9,6.5-4,24.4-5.5,30.9c-0.8,4.2-2.1,7.1-5.5,7.1c-1.3,0-1.9,0.5-2.1,1.8
						l-0.4,2.2c-0.3,1.6,0.9,1.8,1.5,1.8c6.9-0.6,13.5-0.6,20.2,0c1.3,0,1.9-0.5,2.1-1.8l0.5-2.2c0.2-1.3-0.3-1.8-1.5-1.8
						c-3.6,0-3.6-3.1-3-7.1c0.8-6.5,4.1-24.4,5.5-30.9c0.8-4,1.9-6.8,5-7c4.5-0.4,7,5,9.8,10.2C323.5,197.1,329.2,196.3,328.6,194.3
						"/>
					<path fill="#FFFFFF" d="M356.9,182.6l0.5-2.2c0.2-1.3-0.3-1.9-1.5-1.8c-7,0.6-13.6,0.6-19.9,0c-1.3,0-1.9,0.5-2.1,1.8l-0.5,2.2
						c-0.3,1.6,0.9,1.8,1.5,1.8c3.4,0,3.5,3,3,7.1c-0.9,6.5-4.1,24.5-5.5,31c-0.9,4.2-2.1,7.1-5.5,7.1c-1.3,0-1.9,0.5-2.1,1.8
						l-0.5,2.2c-0.3,1.6,0.9,1.8,1.5,1.8c6.7-0.6,13.4-0.6,19.9,0c1.3,0,1.9-0.5,2.1-1.8l0.5-2.2c0.2-1.3-0.3-1.8-1.5-1.8
						c-3.6,0-3.5-3.1-3-7.1c0.9-6.5,4.1-24.6,5.5-31.1c0.9-4.1,2-7.1,5.5-7.1C356.1,184.4,356.7,183.8,356.9,182.6"/>
					<path fill="#FFFFFF" d="M382.1,184.4c6.1,0,9.8,3.8,12.5,8.5c0.6,1.1,1.9,1.6,3.2,1.6c1.6,0,3.4-1,3.4-2.3v-0.5l-3.2-11.5
						c-0.5-2-2-2.7-3.7-1.6l-2.7,1.8c-3.2-1.9-7.4-2.4-9.9-2.4c-8.8,0-19.6,5.3-19.6,15.7c0,15,22.3,18.1,22.3,29.2
						c0,4.6-3.5,8.2-9.4,8.2c-6.8,0-9.9-3.7-9.9-7.4c0-2.2,1.4-4.1,3.6-4.7c-1.3-2.6-3.6-3.6-6-3.6c-4,0-8.4,3-8.4,8.8
						c0,9.4,11.5,13,20.6,13c11.8,0,22-6.4,22-17.8c0-15.4-22.1-20.5-22.1-29.1C374.7,186.2,378.9,184.4,382.1,184.4"/>
					<path fill="#FFFFFF" d="M466.6,178.6c-7.1,0.6-13.8,0.6-20.2,0c-1.3,0-1.9,0.5-2.1,1.8l-0.5,2.2c-0.3,1.6,0.9,1.8,1.5,1.8
						c3.4,0,3.5,3,3,7.1c-0.5,3.2-1.3,7.8-2,12c-0.2,1.3-0.8,1.8-2.1,1.8h-20.8c-1.3,0-1.7-0.5-1.5-1.8c0.7-4.1,1.6-8.8,2.4-12
						c0.9-4.2,2-7.1,5.5-7.1c1.3,0,1.9-0.5,2.1-1.8l0.5-2.2c0.2-1.3-0.3-1.9-1.5-1.8c-7.1,0.6-13.8,0.6-20.2,0
						c-1.3,0-1.9,0.5-2.1,1.8l-0.5,2.2c-0.3,1.6,0.9,1.8,1.5,1.8c3.4,0,3.5,3,3,7.1c-0.9,6.5-4.1,24.5-5.5,31
						c-0.9,4.2-2.1,7.1-5.5,7.1c-1.3,0-1.9,0.5-2.1,1.8l-0.5,2.2c-0.3,1.6,0.9,1.8,1.5,1.8c6.9-0.6,13.5-0.6,20.2,0
						c1.3,0,1.9-0.5,2.1-1.8l0.5-2.2c0.2-1.3-0.3-1.8-1.5-1.8c-3.6,0-3.5-3.1-3-7.1c0.3-2.1,1-6.3,1.4-8.3c0.2-1.3,0.8-1.8,2.1-1.8
						H443c1.3,0,1.7,0.5,1.5,1.8l-1.6,8.3c-0.9,4.2-2.1,7.1-5.5,7.1c-1.3,0-1.9,0.5-2.1,1.8l-0.5,2.2c-0.3,1.6,0.9,1.8,1.5,1.8
						c6.9-0.6,13.5-0.6,20.2,0c1.3,0,1.9-0.5,2.1-1.8l0.5-2.2c0.2-1.3-0.3-1.8-1.5-1.8c-3.6,0-3.5-3.1-3-7.1
						c0.9-6.5,4.1-24.6,5.5-31.1c0.9-4.1,2-7.1,5.5-7.1c1.3,0,1.9-0.5,2.1-1.8l0.5-2.2C468.3,179.1,467.9,178.5,466.6,178.6"/>
					<path fill="#FFFFFF" d="M235.2,249.1c-6.9,0.6-13.6,0.6-19.9,0c-1.3,0-1.9,0.5-2.1,1.8l-0.4,2.2c-0.3,1.6,0.9,1.8,1.5,1.8
						c3.4,0,3.5,3,3,7.1c-0.9,6.5-4.1,24.6-5.5,31.1c-0.9,4.1-2.1,7.1-5.5,7.1c-1.3,0-1.9,0.5-2.1,1.8l-0.4,2.2
						c-0.3,1.6,0.9,1.8,1.5,1.8c6.7-0.6,13.4-0.6,19.9,0c1.3,0,1.9-0.5,2.1-1.8l0.4-2.2c0.2-1.3-0.3-1.8-1.5-1.8
						c-3.6,0-3.5-3.1-3-7.1c0.9-6.5,4.1-24.6,5.5-31.1c0.9-4.1,2-7.1,5.5-7.1c1.3,0,1.9-0.5,2.1-1.8l0.4-2.2
						C236.9,249.7,236.5,249.1,235.2,249.1"/>
					<path fill="#FFFFFF" d="M290.1,264.9l-3.9-14.1c-0.4-1.3-1.4-1.7-2.6-1.6c-7,0.4-14,0.7-19.8,0.7c-6,0-13.7-0.4-19.1-0.7
						c-1.3-0.1-2.1,0.4-2.6,1.6l-5.7,14c-0.9,2.2,5.2,2.8,6.3,0.5c2.4-4.8,6.8-10.1,11.1-10.1c3.7,0,4.1,2.4,3.4,7
						c-0.9,6.5-4,24.4-5.5,30.9c-0.8,4.1-2.1,7.1-5.5,7.1c-1.3,0-1.9,0.5-2.1,1.8l-0.4,2.2c-0.3,1.6,0.9,1.8,1.5,1.8
						c6.9-0.6,13.5-0.6,20.2,0c1.3,0,1.9-0.5,2.1-1.8l0.5-2.2c0.2-1.3-0.3-1.8-1.5-1.8c-3.6,0-3.6-3.1-3-7.1
						c0.8-6.5,4.1-24.4,5.5-30.9c0.8-4,1.9-6.8,5.1-7c4.5-0.4,7,5,9.8,10.2C284.9,267.6,290.7,266.8,290.1,264.9"/>
					<path fill="#FFFFFF" d="M308.9,262.2c0.9-4.2,2-7.1,5.5-7.1h2.3c7.1,0,11.9,5.2,14.5,10.3c1.2,2.2,6.1,1.4,5.5-0.5l-4.5-14.1
						c-0.5-1.2-1.4-1.7-2.6-1.6c-11.8,0.4-22.6,0.4-34.4,0c-1.3,0-1.9,0.5-2.1,1.8l-0.5,2.4c-0.3,1.6,0.9,1.8,1.5,1.8
						c3.4,0,3.5,3,3,7.1c-0.9,6.5-3.9,24.1-5.3,30.6c-0.9,4.1-2.1,7.4-5.5,7.4c-1.3,0-1.8,0.3-2.1,1.5l-0.5,2.4
						c-0.4,1.6,0.9,1.8,1.5,1.8c13.8-0.6,26.5-0.5,40.2,0c1.3,0,2.2-0.5,2.6-1.6l7-17c0.8-2.1-4.4-2.2-5.4-0.1
						c-2.7,5.5-9.8,12.6-16.5,12.6h-2.8c-6.7,0-7.3-3.1-6.7-7.1c0.3-2.2,1.4-9,1.6-10.3s0.8-1.8,2.1-1.8h5c1.8,0,3.2,1.5,2.9,3.2
						l-0.3,1.6c-0.3,1.3,0.3,1.8,1.5,1.8h3.3c1.3,0,1.9-0.5,2.1-1.8c0.2-4.4,1.4-10.6,2.7-15.2c0.2-1.3-0.3-1.8-1.5-1.8h-3.3
						c-1.3,0-1.8,0.5-2.1,1.8l-0.4,1.4c-0.4,1.5-2.4,2.8-3.7,2.8h-5.3c-1.3,0-1.7-0.5-1.5-1.8C307.1,270.5,308.2,265.1,308.9,262.2"
						/>
					<path fill="#FFFFFF" d="M216.9,323.9c-21.8,12.5-24.4-32.5-33-32.5c13.2-2.9,20.3-13.4,20-23.8c-0.3-10.5-6.3-21.1-25.3-21.1
						c-13,0-27.3-0.8-32.3-0.8c-18.1,0-37.5,10.6-37.5,28.2c0,11.7,10.6,19.1,21,19.1c8.2,0,16.2-3.5,17.3-10
						c1.1-7.2-6.4-9.5-10.1-4.7c0.9,0.5,1.3,1.6,1.3,2.8c0,3.3-2.7,7.1-8.1,7.1c-6,0-10.6-5.7-10.6-12.7c0-13.5,13.4-24.1,26.4-24.1
						c9.4,0,12,4.1,11.4,8c-1.4,8.6-2.4,16.6-3.6,24.2c-1.3,7.1-2.8,13.9-4.2,20.9c-0.8,4.1-2.1,7.1-5.5,7.1c-1.3,0-1.9,0.5-2.1,1.8
						l-0.4,2.2c-0.3,1.6,0.9,1.8,1.5,1.8c7-0.6,13.7-0.6,20.6,0c1.3,0,1.9-0.5,2.1-1.8l0.4-2.2c0.2-1.3-0.3-1.8-1.5-1.8
						c-3.6,0-3.5-3.1-3-7.1c1.9-14.9,4.5-28.7,7.8-45.1c0.8-4.1,2.5-7.1,6.9-7.1c10.3,0,14.4,8.3,14.4,15.3
						c0,9.5-6.4,18.6-17.5,19.4c-1.8,0.1-3.7,0.4-5.7,0.7l-0.3,1.5c2.2,0,7.9,4.9,16.2,25.6c4.8,11.9,10.1,20.6,19.6,20.6
						c7.9,0,13.8-5.9,15.2-10.4C218.5,324.2,217.7,323.5,216.9,323.9"/>
					<path fill="#FFFFFF" d="M97.8,164.7c-0.4,0-0.8,0.1-1.3,0.4l-2.8,1.9c-3.3-2-7.6-2.4-9.9-2.4c-9,0-22.7,7-22.7,19.8
						c0,19.7,29.6,28.9,29.6,48.2c0,14.1-13.9,23.5-26,23.5c-10.9,0-22.6-6.7-22.6-20.5c0-10,6.1-16.8,13.2-16.8
						c4.8,0,7.2,3.2,7.2,6.5c0,1.4-0.5,3-1.5,3.7c1,1.4,2.8,2.4,4.3,2.4c3.1,0,6-2.6,6-7.1c-0.4-6.2-7.9-9.8-15.6-9.8
						c-11.8,0-23.9,8.5-23.9,21.8c0,15.3,16.3,25.4,32.6,25.4c17.1,0,38.3-11.9,38.3-32.9c0-21.8-29-33.6-29-48.3
						c0-5.4,4.9-9.5,10.3-9.5c7.8,0,12.4,8.3,14.2,13.1c0.4,1,1.6,1.5,2.9,1.5c1.7,0,3.3-0.9,3.3-2.2V183l-4.5-16.1
						C99.5,165.4,98.9,164.7,97.8,164.7"/>
					<path fill="#FFFFFF" d="M155.3,177.8c-0.4,0-0.9,0.1-1.4,0.4l-2.6,1.8c-3.2-1.9-6.5-2.4-9.8-2.4c-20,0-33,17.3-33.3,34.3
						c-0.4,15.7,10,25.2,23.6,25.2c12.9,0,24-9.2,24.2-18.8c0.2-5.7-3.6-7.5-6.6-7.5c-4,0-6.8,2.7-7.1,6.6c0.2-0.1,0.4-0.1,0.7-0.1
						c1.6,0,2.6,1.4,2.5,3.5c-0.1,4.6-4.6,10.3-12.4,10.3c-10,0-12.9-8.8-12.7-17.8c0.4-14.7,9.2-30,21-30c7.7,0,10.6,6.1,12.9,12.7
						c0.4,1.1,1.4,1.6,2.6,1.6c1.5,0,3.1-0.7,3.3-2.4l0.1-0.5l-3.3-15.1C156.9,178.5,156.3,177.8,155.3,177.8"/>
					<path fill="#FFFFFF" d="M188.5,231c-8.9,0-12.6-7.7-12.6-17c0-12.2,6.9-30.6,20.5-30.6c8.7,0,12.4,7.6,12.4,16.9
						C208.8,212.7,202,231,188.5,231 M196.9,177.7c-19.9,0-33.4,16.7-33.4,34.2c0,16.1,10.4,25.1,24.8,25.1c19.7,0,33-16.9,33-34.2
						C221.4,186.4,210.7,177.7,196.9,177.7"/>
					<path fill="#FFFFFF" d="M328.6,194.3l-3.9-14.1c-0.4-1.3-1.4-1.7-2.6-1.6c-7,0.4-14,0.7-19.8,0.7c-6,0-13.7-0.4-19.1-0.7
						c-1.3-0.1-2.1,0.4-2.6,1.6l-2.5,6.1l-1.7-6.1c-0.4-1.3-1.4-1.7-2.6-1.6c-7,0.4-14,0.7-19.8,0.7c-6.1,0-13.7-0.4-19.1-0.7
						c-1.3-0.1-2.1,0.4-2.6,1.6l-5.7,14c-0.9,2.2,5.2,2.8,6.3,0.5c2.4-4.8,6.8-10.1,11.1-10.1c3.7,0,4.1,2.4,3.4,7
						c-0.9,6.5-4,24.4-5.5,30.9c-0.8,4.2-2.1,7.1-5.5,7.1c-1.3,0-1.9,0.5-2.1,1.8l-0.4,2.2c-0.3,1.6,0.9,1.8,1.5,1.8
						c6.9-0.6,13.5-0.6,20.2,0c1.3,0,1.9-0.5,2.1-1.8l0.5-2.2c0.2-1.3-0.3-1.8-1.5-1.8c-3.6,0-3.6-3.1-3-7.1
						c0.8-6.5,4.1-24.4,5.5-30.9c0.8-4,1.9-6.8,5.1-7c4.5-0.4,7,5,9.8,10.2c0.6,1.1,2.3,1.5,3.8,1.3c1.4,0,2.9-0.4,3.4-1.4
						c2.4-4.8,6.8-10.1,11.1-10.1c3.7,0,4.1,2.4,3.4,7c-0.9,6.5-4,24.4-5.5,30.9c-0.8,4.2-2.1,7.1-5.5,7.1c-1.3,0-1.9,0.5-2.1,1.8
						l-0.4,2.2c-0.3,1.6,0.9,1.8,1.5,1.8c6.9-0.6,13.5-0.6,20.2,0c1.3,0,1.9-0.5,2.1-1.8l0.5-2.2c0.2-1.3-0.3-1.8-1.5-1.8
						c-3.6,0-3.6-3.1-3-7.1c0.8-6.5,4.1-24.4,5.5-30.9c0.8-4,1.9-6.8,5-7c4.5-0.4,7,5,9.8,10.2C323.5,197.1,329.2,196.3,328.6,194.3
						"/>
					<path fill="#FFFFFF" d="M356.9,182.6l0.5-2.2c0.2-1.3-0.3-1.9-1.5-1.8c-7,0.6-13.6,0.6-19.9,0c-1.3,0-1.9,0.5-2.1,1.8l-0.5,2.2
						c-0.3,1.6,0.9,1.8,1.5,1.8c3.4,0,3.5,3,3,7.1c-0.9,6.5-4.1,24.5-5.5,31c-0.9,4.2-2.1,7.1-5.5,7.1c-1.3,0-1.9,0.5-2.1,1.8
						l-0.5,2.2c-0.3,1.6,0.9,1.8,1.5,1.8c6.7-0.6,13.4-0.6,19.9,0c1.3,0,1.9-0.5,2.1-1.8l0.5-2.2c0.2-1.3-0.3-1.8-1.5-1.8
						c-3.6,0-3.5-3.1-3-7.1c0.9-6.5,4.1-24.6,5.5-31.1c0.9-4.1,2-7.1,5.5-7.1C356.1,184.4,356.7,183.8,356.9,182.6"/>
					<path fill="#FFFFFF" d="M382.1,184.4c6.1,0,9.8,3.8,12.5,8.5c0.6,1.1,1.9,1.6,3.2,1.6c1.6,0,3.4-1,3.4-2.3v-0.5l-3.2-11.5
						c-0.5-2-2-2.7-3.7-1.6l-2.7,1.8c-3.2-1.9-7.4-2.4-9.9-2.4c-8.8,0-19.6,5.3-19.6,15.7c0,15,22.3,18.1,22.3,29.2
						c0,4.6-3.5,8.2-9.4,8.2c-6.8,0-9.9-3.7-9.9-7.4c0-2.2,1.4-4.1,3.6-4.7c-1.3-2.6-3.6-3.6-6-3.6c-4,0-8.4,3-8.4,8.8
						c0,9.4,11.5,13,20.6,13c11.8,0,22-6.4,22-17.8c0-15.4-22.1-20.5-22.1-29.1C374.7,186.2,378.9,184.4,382.1,184.4"/>
					<path fill="#FFFFFF" d="M466.6,178.6c-7.1,0.6-13.8,0.6-20.2,0c-1.3,0-1.9,0.5-2.1,1.8l-0.5,2.2c-0.3,1.6,0.9,1.8,1.5,1.8
						c3.4,0,3.5,3,3,7.1c-0.5,3.2-1.3,7.8-2,12c-0.2,1.3-0.8,1.8-2.1,1.8h-20.8c-1.3,0-1.7-0.5-1.5-1.8c0.7-4.1,1.6-8.8,2.4-12
						c0.9-4.2,2-7.1,5.5-7.1c1.3,0,1.9-0.5,2.1-1.8l0.5-2.2c0.2-1.3-0.3-1.9-1.5-1.8c-7.1,0.6-13.8,0.6-20.2,0
						c-1.3,0-1.9,0.5-2.1,1.8l-0.5,2.2c-0.3,1.6,0.9,1.8,1.5,1.8c3.4,0,3.5,3,3,7.1c-0.9,6.5-4.1,24.5-5.5,31
						c-0.9,4.2-2.1,7.1-5.5,7.1c-1.3,0-1.9,0.5-2.1,1.8l-0.5,2.2c-0.3,1.6,0.9,1.8,1.5,1.8c6.9-0.6,13.5-0.6,20.2,0
						c1.3,0,1.9-0.5,2.1-1.8l0.5-2.2c0.2-1.3-0.3-1.8-1.5-1.8c-3.6,0-3.5-3.1-3-7.1c0.3-2.1,1-6.3,1.4-8.3c0.2-1.3,0.8-1.8,2.1-1.8
						H443c1.3,0,1.7,0.5,1.5,1.8l-1.6,8.3c-0.9,4.2-2.1,7.1-5.5,7.1c-1.3,0-1.9,0.5-2.1,1.8l-0.5,2.2c-0.3,1.6,0.9,1.8,1.5,1.8
						c6.9-0.6,13.5-0.6,20.2,0c1.3,0,1.9-0.5,2.1-1.8l0.5-2.2c0.2-1.3-0.3-1.8-1.5-1.8c-3.6,0-3.5-3.1-3-7.1
						c0.9-6.5,4.1-24.6,5.5-31.1c0.9-4.1,2-7.1,5.5-7.1c1.3,0,1.9-0.5,2.1-1.8l0.5-2.2C468.3,179.1,467.9,178.5,466.6,178.6"/>
				</g>
			</g>
		</g>
	</g>
	<g>
		<path fill="#FFFFFF" d="M336.5,249.7v-1h5.7v1H340v5.8h-1.2v-5.8H336.5z M348.9,248.7h1v6.8h-1.1v-4.6l-1.8,3.5h-0.8l-1.8-3.4v4.5
			h-1.1v-6.8h1l2.4,4.5L348.9,248.7z"/>
	</g>
</g>
</svg>
