<?xml version="1.0" encoding="UTF-8" standalone="yes"?><svg xmlns="http://www.w3.org/2000/svg" baseProfile="tiny-ps" version="1.2" viewBox="0 0 1024 1024"><title>Sweetwater Sound</title><path id="Swoosh" d="M926.5,569.5c-3.7-1.7,2-1.1,3.6-1.5-1.2-1.8-4.3-1.6-6.3-2.2,0,0,0,0,0-.1-.7,0-2,0-2.3.9-1.3,0-2.8-.3-3.7-1.4-3.5-.3-6.1,3.2-10.2,1.5,0-.3,0-.5.1-.8,2.5.6,5.3-.7,7-2.5-2.8-.9-5.9.5-8.8,0-1.1-.1-2.5-.9-3.3.2-1.8-.3-3.7-1.6-5.9-1.4-.3-2.1-3.6-1.7-5.2-2,1.7-.7,1.3-1.6-.2-2.1,0,0,0,0,0,0-5.2,1.3-5.4-3.6-11.4-1.3,1.3-.1,4.3.6,2.4,2.1-3.6-.9-7.2-1.5-10.8-1.5-2.9,2.4-8.3.3-12.2.2,1.8-2.8-1.7-2.1-3.6-2,0,.4-.1.8-.2,1.1-1.1-.1-2.2-.3-3.3-.4.3-.7,1.3-1,1.9-1.4-1.9-2.5-9-.8-12.6-1.3,0-.4.1-.9.2-1.3-.7,0-1.4.1-2.1.2-3.5.7-7.3,1.1-11.4,1.1-9.1,0-16.3-1.4-22.1-4.4-2.6-.3-4.8.2-7.6-.6,1.8-2.4-1.3-2.7-4.6-2.8v5.7h-6c-2.6,0-5.1,0-7.4.2-2.7.2-5.5.3-8.5.3-5.2,0-9.4-.4-12.8-1.1-4.4-.9-7.8-2.9-10.3-6-.6-.7-1.1-1.5-1.6-2.3-2.3,0-4.6,0-6.9,0,0,.2.1.3.2.5l3.5,8.3h-35.9l-1.7-3.2c-.1-.2-.2-.4-.3-.6-1.7,1.3-3.4,2.4-5.3,3.1-4.5,1.8-9.9,2.6-16.6,2.6s-9.7-1-13.5-2.8c-3.9-1.9-7-4.6-9.3-8.1-.3-.4-.6-.9-.8-1.4-4.2-.1-8.3-.2-12.5-.4l-1.3,5.9-1,4.8h-37.6l-.9-4.9-1.2-6.4c-3.5,0-7,0-10.6,0l-1.1,6.3-.9,5h-38.2l-1-4.7-1.2-5.3c-1.9,0-3.7.2-5.6.3,0,0,0-.1,0-.1-2.4,0-4.7,0-7.1,0v10h-6c-2.6,0-5.1,0-7.4.2-2.7.2-5.5.3-8.5.3-5.2,0-9.4-.4-12.8-1.1-4.4-.9-7.8-2.9-10.3-6-.3-.4-.6-.9-.9-1.3-6.6-.3-13.3.2-20.1.7-6.6,6-16.1,9-28.3,9s-17.8-1.7-23.7-5.3c-.9-.5-1.8-1.1-2.7-1.7-4.6-.4-10-.2-13.8,1-4.9,0-9.9,0-14.9,0-6.3,4-14.5,6.1-24.6,6.1s-12.6-.8-17.5-2.5c-1.9.2-3.9.5-5.6,0-.5,1-2.1,1.4-3,1.7-8.8-1.7-19.1,1.8-28.9.6h0c-2.8-.3-5.6.6-8.4.6.1.4.3.1.5.2,0,.7-.1.9-.2,1.5-5.2-2.1-11,.3-15.6.9-.2-2.5-3.1-2.4-5-1.7h.6c-1.2.1-2.3.6-2.9,2-4.9,1.4-13.6-3.1-15.9,2.4-1.6-.7-2.9-1.5-4.8-1.4-1.9,2.1-5.7,1-8.1,2.3-1.4-.6-10.1-1.3-10.1.8-.5,0-.8.1-1.2.4-3.1-1.7-9.8-2.2-12.3.7-.6-1.4-3-.9-4.3-1-.7,1.7.6,3,1.6,4.2-1.4-.2-5.5-1.5-3.3-3.7-.9,0-1.8-.3-2.7-.4-3.6,3-10.8-.1-13.5,4.9-.5,0-1.1-.1-1.6-.2,1.4-2.6-3.8-2.8-3.9-.8-7.5,0-15.3,1.1-22.1,4-4.7-3.2-10.6-.2-15.8-2-.5.6-1.6.4-2.2.9-1,5.7-9.9-1-12.9,3.6-2.1-1-4.1-1.6-6.5-1.3.1,1.2,1.5,1.9,2.4,2.7-1.3-.3-4.2,0-3.6-1.8-1.2-.5-4.2,0-4.7,1.4,0,0,0,0,0,0,0,0,0,0,0,0-.9.1-4.1.1-3,1.3-.8,0-1.5.3-2.3.5,0-.7-1-.8-1.5-1-.4-1.6-2.8-1.9-4-1.1-.5,1.1,1,1.7-.7,2.7-2.9-1-5.7-1.6-8.8-.7-.1-.5-.2-1-.3-1.5-3.2-.4-5.4,2.1-8.5,1.2-2.1,1.7-8.3-.5-8.3,3.3,7.4-.8,14.8,0,22.3-.7,2.2,7.3-7.5,6.1-12.1,6.9,0,0,0,0,0-.1,1.1,0,2.1-1.1,2.4-2.2.5-1.6,4.3-1.5,1.7-3.3-3-.3-5.3,2.5-7.8,3.9.5.7,1.8.9,2.6,1-.4,1.3-1.9,1.9-3.1,2.2,0,.3,0,.5-.1.8.7.1,5.1-.6,4,.3-3.8,2.3-1.2,1.2-1.4,3.9.1,0,.3,0,.4,0h-.4c-.2.7-.3,1.5.3,2-1.1,0-2,.5-2.9.9l4.3,1c-3.2-.2-6,2.7-6.3-2.4-1-.2-3,.3-3.2-1-1.1.1-2.4,0-3.5.2-1.3,2.7-5.9,2.1-3.6,6-3.6.6-2-2.7-5.5-3-4.5,9.5,43.5,2.3,52.4,1.2,9.8,1,21.6-.2,31.3-1.7.3.5,1.1.3,1.6.4,0,.4.8.1,1.1.2.6-1,1.9-1.4,3-1.5,2.5,2.6,4.9-.6,7.3-.8,1.7,2,4.6,0,6.7-.6,0-.3.4-.1.6-.2,0,.4.8.1,1.1.2,0,.3,0,.6-.1.9,1.8.2,3.2-1.5,4.8-2.2,0,.1,0,.3,0,.4h0c1.3,2.7,9.7.5,12.6.7,28.6-2.8,56.1-1.3,85-5.4-.2-.8-1.4-.8-2.1-1,.7-.8,2-.9,3-1.3-.8,4.1,15.2.7,18.2,1.1,53-5.1,106.1-6.1,159.1-8.8-2.3.5,3,3.8,4-.7,2.9.3,5.5-.9,8.4-.4-.9-.1-2.6.5-1.9,1.7,79.5-3.6,162.3-1.9,240-1,4.5,3.1,12.1,1.6,17.4,1.8,3.5,1.5,8.3.4,12.2.2.6,1.4,2.9,1.3,4.2,1.6.5-.8,1.5-1,2.4-1.1,11.8,4.7,26.8-.4,39.1,5.1,3.2-3.2,7.4,3.5,10.5.2,2.9.9,5.1,2,8.2.5,2.1,1.5,5.6,1.2,8.1,1.3,3.4,2,8.7-.1,12.6,1,3.6-.2,6.9,1.8,10.4.7.7,2.1-2.8,1.5-3.7,2.8,4.7.6,10,2,14-1.3,1.4.4-1.8,2-2.3,2.2,0,0,0,0,0,0,.4,1.6,3.1,1.3,3.7,0,0,0,0,0,0,0h0s0,0,0,0c.4,0,.7,0,1.1,0h0s0,0,0,0c0,0,0,0,0,0,0,0,0,0,0,0h0c2.1.1,5.5,1,5.8,1.6.1,1.2,1.5,2,2.5,1.8.7-1.1,8,1.2,8,1.9,2-1.5,4.7-1.8,7-2.4,0,.7.5,1.4-.3,1.9,1,0,1.9.6,2.6,1.2-1.5.3-3.5,0-5.1.9,2.5-.3,3.1,2.2,5.1,3-2.9.2-5.4,2.2-8.2,2.9-3.7-.2-5.5,0-5.7.5-1.2,1.8,25.2,7.1,38.1-1.1,1.1-1.9-1.3-2.4,1.2-4.9,11,1.6,3.9-9.2,15.5-7.1,1.2-.6,1.7-2.1,2.2-3.3,2.6.3,1.8-1.9,1.1-3.4-.6-.2-.7.6-1.2.5-.2-2.6,6.3-4.9,4.4-7,1.8-1.4,4.4-1.6,5.1-4.3.2-.2.3-.5.5-.7-2.7-3.9-7.7-2.1-11.8-2.2ZM112.1,589.7c-.1,2.3-2.6,1.2-4.2,1.5,1.6-4.6,6.5-3.6,10.4-3.2-.6,3.5-4.5-1.6-6.2,1.7ZM123.6,589.7c-.6.5-1.3.9-1.9,1.5-3.3-1.1,5.7-6.2,1.9-1.5ZM127.6,585.1c-1.7-6.7,0-.5,3.9-6.6,1.4,1.6,7.5,1,2.7,1.9-8.6.4.8,5.3-6.6,4.7ZM135.6,585c-2.2-.2,5.9-2.9,6.6-3.7-.5,1.8,1.7,3.8,1.8,4.6-2.9-1.7-5.3-.2-8.4-.9ZM150.8,578.8c-1.3-1.4-6-1.4-4,1.1-1.3-.7-4-.7-3.6-3,.6-4.1,8.7-2.3,7.7,1.9ZM156.5,581.4c1.8.6,5.4-.6,5.2,2.2-2.2,1.2-7.6,1.2-5.2-2.2ZM172.5,585.7c-.4.2-.8.5-1.2.7-1.8-1.2-3.2.6-4.4.1,1.7-2.8,3.4-1.3,0-3.4,2.3,0,1.2-3,1.2-4.4,5.9.6,1.6,4.6,5.3,5.2-2.4-.2-5.1,1.6-.9,1.8ZM194.9,587.4c-4.7-.2-1.8-6.1-2.5-8.8.7.3,1.4.2,2.2.2-3.4,6.5,4.9,4.1.4,8.6ZM207.5,581.1c-1.7,0-3.1.2-3.6,2-1.9-.7-3-2.6-5.3-1.6.1-1.6,1.7-3,3.2-3,0,4.8,7.4-3.5,5.7,2.6ZM213.5,585.5c-1.6-1.1-3.5-1.3-5.4-1.1,1-2.8,5-1.5,7.1-2.9-2.9-.5,2.6-.1,2.6.7-.8,3.6-3.8,0-4.4,3.3ZM223,580.8c-1.4-1.9-4.2-1.6-6.3-2.2,4.8-1.3.6-1.4-1.5-3-.7-1.3-5.8-1.6-7.3-.4,0,.3-1.3.2-1.2-.2-.7-1.1-2.2-1.5-3.7-1.2.9-1.7,1.5-2.6.7-4.6,3.6,1.6,6.3.9,2.1,4.3,6.1,0,11.1,1.8,16.9,3.2v2.3c1.8-.1,2,1.7.2,1.9ZM232.5,580.6c.4-1.2-1-2.1-2-1.4-1.2,0,.3-1,.7-1.1,2,0,4.3.9,5.7-1,.6-.1,2.6-.6,3.2-.7-.5,1.4,1.8,1.1,2.1,1.6-2.3,3.3-6.2,2.6-9.7,2.6ZM243.6,574.8c-2.1,0-9.5-5.1-5.4-6.3,3.1,1-.3,2.3,4.7,3.9,1,.2,2.4,2.7.8,2.5ZM251.4,580c-1.1-.3-7.1-1.2-5.1-3,2,4.1,6-2.3,7.7,0-1,.8-1.8,1.9-2.6,3ZM253.2,571.8c-3.9-2.5-13.5-1.3-4.6-6.2,1.4,1.1-.8,2.1-1,3.2,4-1.1,7.7-1.8,11.7-.7.8-2.9,8.2,0,.8,1.9-2.3-2.6-5.9-1.5-6.9,1.8ZM269.2,579.8c-.7-3-6.5,4.9-5.5-.1,7.1-3.1-7.1.5-7.9-2.6-1.3,0,2.4-1.3,2.2.4,1.6,0,3.1-.7,4.6-1.3,1.8,2.2,8.4,0,6.7,3.6ZM276.6,569.7c-6.2,2-3.2,1.1-1.6-2.8,1.1.3,2.4,1.7,1.6,2.8ZM278.2,583c-4.2-.5,5.3-4.3,4.9-1.4-1.6.3-3.8.2-4.9,1.4ZM288.5,565.4c.8.6,1.7,1.4,1.3,2.5-5.9.2-10.9-.7-1.3-2.5ZM290.1,574.1c-1.3,1.3-5.2,1-2.3,3.2-.7,1.5-3.2,1.4-3.9,0,2.1-.5.9-2.9,1.2-4.4.6.2,5.5.5,4.9,1.3ZM344.6,559.2c-1.9-3,6.1,1,2.5,3.2,2.7.6,5.6.7,8.2.5-1.9.3-2.5,2.4-3.9,3.6,1.1-3.2-2-1.9-4.2-1.8-1.4-3.6-10.3-1.7-2.7-5.5ZM295.9,575.1c-.9,0-1.9.1-2.8.1-1.3-3.8,7.8-1.3,9.5-1.5-2.1.9-5.1-.8-6.7,1.4ZM305.2,565.6c-4.3-1.9-3.7-4.9,1.1-4.1-1.2,2.1,3.8,1.8,5.2,2.2-.8,1.5-2.8.9-4.1,1.5-.7.3-1.4.8-2.2.4ZM335.7,572c-2.6.7-15.8-1.2-15.2,1.6-1.6,2.3-5.3-1.4-8.3-.3,1.2,2.2-2.8,1.6-4,.7,6.5-4.4,8.1-1.2,14.4-3.9l3.6-1.5s.1,3.1,4,2.7c3.9-.4,5.1-4.5,5.1-4.5,1,.3,2,1,1.9,2.1,7.4-2.8,20.4,2.6,5.2,2.6-2.5.8-4.9-2.3-6.8.4ZM345.5,576.6c.4-1.4-.6-2.3-1.8-2.7,1.3-1.8,6.6-.2,7.5,1.3-2.1.1-3.7,1.7-5.7,1.4ZM355.2,569.9c-1.2-.5-2.1-1.6-3.3-1.8-.1.4-.4-.4-.5-.6,2.5-.7,9.1,3.3,3.8,2.4ZM358.6,563.6c.4-1.4-.6-2.4-1.2-3.3,5.9-.4,9.4,3.5,1.2,3.3ZM432.7,572.3c-3-2.3,1.3-2,1.5-3.7.6.3,2.4.2,2.4.8-1.4,1.3-2.8,5.3-3.9,2.9ZM471,563.3c-3.7-1-7.9,1.3-3.4-2.9,1.1.8,3.8,1.5,3.4,2.9ZM502,566.8c-3.3-.2-2.9-1.8-1-3.9,1.4.7,1,2.9,1,3.9ZM515,565.6c.3.8,2.6,1.6.7,2.2-1.3-2.1-3.7,0-5.4-.9,1.3.2,2-.5,2.5-1.3,2.4-5.2,9.4-1.1,13.4-1.9-3.3,1.7-9.2-1-11.3,1.9ZM570.6,567.8c1.6-2,6.4-1.5,6.9-.4-2.4,0-4.5,1.5-6.9.4ZM600.9,565.5c1.3,1,3.4,1.3,4.7,1.7-2.4,1.3-6.8,2.8-4.7-1.7ZM637.1,564.2c-.2-2.5-6.8-.3-4.4-4.1,2.1,2,5.1,2.3,7.3,2.2-.9.8-1.5,2.3-3,1.9ZM658.2,570.7c-6,.3-.7-5.6,1-1.6-.7.8-2.9.7-1,1.6ZM649.5,562.5c-1.1,1.6-5.1,3.1-5.6,1.2,1.2-.9,1.5-1,.2-2.1,4.9-.3,11.5,1.9,15.1-1.3,2.3,4.5-7.8,1.7-9.7,2.1ZM699.8,570.7c-4.2-3.5-12.3-2.1-4.6-6.4.8,1.2,2.3,2.1,1.7,3.6.7,1.1,4.1,1,2.9,2.8ZM708.6,570.9c2.5.3,2.7-1.7,2.8-3.6,1.2.3,2.9,2,2.7,2.7-1.8.2-3.7,1.9-5.5.8ZM714.5,566c-1.7.3,0-1.2,0-1.9-1.7-1.9-4.7-.6-7-1.1,1.9-2.7-2.1-1.4-1.6-4.2,2.7.7,4.3,2.8,6.6,3.9,3-2.1,7.4,3.5,1.9,3.3ZM733.3,569.7c-3.1,2.3-7.4,2.6-3.2-1.5.9.3,3.8.3,3.2,1.5ZM727.4,565.5c-.4.6-1.4.3-2,.5-7-3.2,9.5-4.2,12-2.8-2.6,2.6-7.8-.3-10,2.3ZM748.5,565.8c-4.1-.5,3.8.1,3.8-2,1.4.4,2.9.7,4.3,1-.6,0-1.1.2-1.6.2,4.8,2.7-4.8.3-6.5.8ZM776.8,574c-4.6,3.9-6-2.9,2.7-1.7,4.1,1.9-1.2,1.5-2.7,1.7ZM779.3,565.1c-.6-.7-1.9.4-2.8.1,2.9-2.5,9-.9,13-2.1-1.1,1.7-3.8,1.6-5.2,1.2-1.9,2.7-2.8,2-5.1.7ZM785.6,574.8c1-.8.5-2-.1-2.9,5.5,1.3,7,4.4.1,2.9ZM791.8,566c-1.4-.5-2.6.9-4,1.3-1.4-1.8,4.2-2.5,5.6-3.8,1.6-1.2,2.5-3.8,4.8-2.5-4,1.6-2,6.8-6.4,5ZM802.9,577c-1.1.4-2,1.2-2.9.9-.5-1.8-3.7-1.5-3.1-3.9-.7-.7-2.4-.3-2.9-1,1.5.2,4-2.9,4.6-.7.4,2.2,5.1,2.5,4.3,4.6ZM799.6,566c.7-1.2,2.5-1.4,3.6-2-.6-.6-1.9-.3-2.7-.4-.2-2.6-3.2-1.5,1.5-2.8,2.3,1.2-.8,2.3,3.9,3.2.4,5-3.5,1.5-6.4,2.2ZM807.9,559.6c1.4-2.7,12.5-1.5,6.6,0h3.8c4.2-1.6,5.6,8.4,10.9,1.3,1.5,1.2,4.1.7,5.9,1.1-1,2.5-5.3.3-6,3-10.2,1.2-5.8-5.6-19.9-3.6,0,0-1.9-.7-1.3-1.7ZM813.1,571.8c.7-1.1,1.2-2.1,1.1-3.4,5.1.7,2.6,3.4-1.1,3.4ZM817.1,565.6c-2.6,1.7-3.5-.8-6.2-1.4,3.2-1.4,14.6.7,6.2,1.4ZM835.2,579.9c-1.8,0-3.5-1.4-4.6-2.8-2.9-.4-7,1.3-9.1-1.1,1.8,1.4,3.6-.3,4.6-1.9,1.5,1,2.6,2.4,4.6,2.4.7-1.5,4.1-1.2,3.1.9,0,1.7,4.3.8,1.4,2.5ZM831.8,572.5c-.7-.9.3-4.5,1.5-2.3.8,0,0,.9.4,1.2,2.4.6,2-1.1,3.7-2.2-2.1,0-3.5-2.4-3.8-4.3,1.3.4,3.6-.4,2,1.5,8.1,6,3.6,5.2-3.7,6.1ZM843.5,576.4c-3.3,0,0,1.9,1.9,2.1-2.2.8-5.1-.8-7.6-.9,1.4-3.7,10,.7,3.4-4.3-.5-.4,2.1-1.8,2.5-.9.3,2.3,3.6,2.3,5.3,4.3-1.8.2-3.7-.3-5.5-.3ZM850.3,571.8c-3-.7-5.5-.7-8-2.3,3.7-3.5,9.8,4.6,9.6-1.4,4.3,1,1.3,3.8-1.6,3.6ZM901.6,568.7c3.1,3.2,9.2-1.4,10.6,3.1-1.7-.2-3.1.9-3.9,2.4-2.1-.9-4.4-3.5-7.3-1.9-2.9,1.6-5.7.3-5.7.3-.8-.9-4.1.1-1.5-1.7-.9-.1-1.7-.2-2.6-.4,2.2-3.8,7.3.8,10.4-1.8ZM870.6,563.9c10.5,2.4-4.4-5.8,8.8-1.4,7.9,2.4-9.8,3.6-8.8,1.4ZM858.4,569c4.1,1,4.6-.9,1-2.7,2.1-.9,4.8,2.5,5.7-1,6.2.7-2.5,3.3.9,4.4,12.2,2.4-3.6,3.6-7.6-.7ZM888.6,590.5c.9-2-3.4-1.9-4.8-1.5,5.5.9-.8,3-1.8-.4-3-.1-4.5,3.3-7.6,1.5,2.2-3-6.5,0-6.5-2.7,1.2-.2,3.4.8,2.5-1.1,10.6,4.7.8-2.6,12.4-2.7.6,0,.8.6,1.1,1.1-6.7.7-.7,5,2.1,1.9,1.8-.5,6.5,4.1,2.6,3.9ZM905.6,597.3c-1.4,3.3-5.7.2-8.3,1.4-.1,1.9-2.1,0-2.9-.6,1.5-.2,4.4-3.2,5.1-.9,1.9.1,4.2.6,5.7-1,.2.3.4.7.3,1.1ZM907.4,593.4c0-5.6-6.9,2.3-10.3-.2.9-2.2,3.1-1.4,4.9-1.1.5-2.8-2.3-1.5-4.3-1.4,2-.8,3.5-2.6,5.5-3.3-1.2,2.2,1.7,1.6,3.1,1.5-.7-.8,0-1.5.3-2.3,2.2,1,4.3,2.3,6.6,2.7-3.1.4-3.5,2.2-5.8,3.9ZM919.6,576.4c-2.5-.4-3.4,2.1-5.4,2.7-1.3-.2-8.8-.6-5.1,1.7-2-.2-3.6.5-4.9,1.9-2,.7-2.9-.8-.9-1.9-1-.6-2.7,0-3.7-.6-.1-1.7-5.5-3.5-5-.8-2.6.3,2.2,1.7-.2,4.3-.9-.7-2.3-.6-3.4-1.1,4.8.4,1.1-1.5-.4-2.9,3-2-2.2-1.2-3.6-2.2-2.7,2.2-7.4,2.7-11.2.9,4.3-.2,2.6-2.4-.6-1.7.9-1.4,2.3-1,3.7-.9-3.9-2.7,1.8-2.1,3.5-2.8,8.2,4,2.6-7-3-.9-.6-5.7,5.7-1.1,8.8-2.7,0,.6.7.9,1.2,1.1-.3.7-1.7,1.2-.3,1.7,0,0,3.1,7,18,3.7,6.5,4.8,6.9-1.7,14.5.5-.4,1-1.5.8-2.2.1ZM920.1,568.4c1.9.4,3.5,1.6,4.2,3.2,1.5.4,5.6-.9,5.4.9-3.5,0-16.2,2.2-9.7-4.1Z" fill="#df2935" stroke-width="0"></path><g id="Sweetwater"><path id="_R_" d="M915.6,531.4c.9.4,1.8.9,2.5,1.6.7.7,1.2,1.5,1.6,2.5.4.9.6,2,.6,3s-.2,2.1-.6,3.1c-.4.9-.9,1.8-1.6,2.4-.7.7-1.5,1.2-2.5,1.6-.9.4-2,.6-3.1.6s-2.1-.2-3.1-.6c-.9-.4-1.8-.9-2.5-1.6-.7-.7-1.2-1.5-1.6-2.4-.4-.9-.6-2-.6-3.1s.2-2.1.6-3c.4-.9.9-1.8,1.6-2.5.7-.7,1.5-1.3,2.5-1.6.9-.4,2-.6,3.1-.6s2.1.2,3.1.6ZM910,532.4c-.8.3-1.5.8-2.1,1.4-.6.6-1,1.3-1.4,2.1-.3.8-.5,1.7-.5,2.6s.2,1.8.5,2.6c.3.8.8,1.5,1.4,2.1.6.6,1.3,1.1,2.1,1.4.8.3,1.7.5,2.6.5s1.8-.2,2.6-.5c.8-.3,1.5-.8,2.1-1.4.6-.6,1-1.3,1.4-2.1.3-.8.5-1.7.5-2.6s-.2-1.8-.5-2.6c-.3-.8-.8-1.5-1.4-2.1-.6-.6-1.3-1.1-2.1-1.4-.8-.3-1.7-.5-2.6-.5s-1.8.2-2.6.5ZM909.8,543v-9h3.4c1,0,1.8.2,2.2.6.5.4.7,1,.7,1.8s0,.7-.2,1c-.1.3-.3.5-.5.7-.2.2-.4.4-.7.5-.3.1-.6.2-.9.3l2.7,4h-1.3l-2.5-4h-1.9v4h-1.1ZM913.3,538.1c.3,0,.6,0,.9-.2.2,0,.5-.3.6-.5.2-.2.2-.5.2-.9s0-.6-.2-.8c-.1-.2-.3-.4-.5-.5-.2-.1-.4-.2-.7-.2-.3,0-.5,0-.8,0h-2v3.1h1.5c.3,0,.7,0,1,0Z" fill="#2e71ea" stroke-width="0"></path><path id="r" d="M894.8,450.5v12.7h.4c2.5-4.6,5.5-8.3,9-11,3.5-2.8,7.8-4.1,12.9-4.1s1.4,0,2.2,0c.8,0,1.5.1,2.2.3v23.3c-1.3-.1-2.6-.2-3.8-.3-1.2,0-2.5,0-3.8,0-2.1,0-4.2.3-6.4.9-2.1.6-4.1,1.6-5.8,2.9-1.8,1.4-3.2,3.1-4.2,5.3-1.1,2.2-1.6,4.9-1.6,8v57h-24.4v-95h23.3Z" fill="#2e71ea" stroke-width="0"></path><path id="e" d="M815.7,509.3c0,2.8.2,5.6.6,8.2.4,2.6,1.1,5,2,7.1.9,2.1,2.2,3.7,3.7,4.9,1.5,1.2,3.4,1.9,5.6,1.9,4.1,0,7.1-1.5,9-4.4,1.9-2.9,3.2-7.4,3.9-13.4h21.9c-.5,11.1-3.4,19.5-8.8,25.2-5.4,5.8-13.9,8.6-25.6,8.6s-15.7-1.5-20.7-4.4c-4.9-2.9-8.6-6.8-10.9-11.7-2.4-4.8-3.8-10.2-4.3-16.2-.5-6-.8-12-.8-18s.4-12.5,1.3-18.4c.9-5.9,2.6-11.1,5.3-15.7,2.6-4.6,6.4-8.2,11.4-10.9,4.9-2.7,11.5-4.1,19.8-4.1s12.9,1.1,17.4,3.4c4.5,2.3,8.1,5.5,10.7,9.7,2.6,4.2,4.4,9.2,5.3,15.2.9,5.9,1.4,12.6,1.4,19.9v5.5h-48.2v7.6ZM839.9,477.6c-.4-2.8-1-5.1-1.9-7.1-.9-1.9-2.1-3.4-3.7-4.4-1.6-1-3.6-1.5-6.1-1.5s-4.5.6-6.1,1.7c-1.6,1.1-2.9,2.6-3.8,4.4-.9,1.8-1.6,3.9-2,6.1-.4,2.2-.6,4.5-.6,6.7v3.7h24.9c-.1-3.6-.4-6.9-.7-9.6Z" fill="#2e71ea" stroke-width="0"></path><path id="t" d="M773.7,423.3v27.2h14.1v16.6h-14.1v51.4c0,3.8.6,6.4,1.7,8,1.1,1.6,3.4,2.4,7,2.4s1.9,0,2.8,0c.9,0,1.8-.1,2.6-.3v16.9c-2.7,0-5.3,0-7.9.3-2.5.2-5.2.3-8,.3-4.7,0-8.6-.3-11.6-1-3-.6-5.3-1.9-6.9-3.9-1.6-1.9-2.7-4.5-3.3-7.7-.6-3.2-.9-7.2-.9-12v-54.4h-12.4v-16.6h12.4v-27.2h24.4Z" fill="#2e71ea" stroke-width="0"></path><path id="a" d="M664.1,477.3c0-5.5.9-10.1,2.6-13.9,1.8-3.7,4.1-6.7,7.1-9,3-2.3,6.5-3.9,10.6-4.9,4.1-1,8.4-1.5,13-1.5,7.3,0,13.2.7,17.7,2.1,4.5,1.4,7.9,3.4,10.4,6,2.5,2.6,4.1,5.7,5,9.3.9,3.6,1.3,7.5,1.3,11.7v50c0,4.5.2,7.9.6,10.4.4,2.5,1.2,5.1,2.4,7.9h-23.3c-.8-1.5-1.4-3.1-1.9-4.9-.4-1.7-.8-3.4-1.1-5h-.4c-2.8,4.9-6.1,8.2-9.8,9.6-3.7,1.5-8.5,2.2-14.4,2.2s-7.8-.7-10.8-2.2c-2.9-1.5-5.3-3.5-7.1-6.1-1.8-2.6-3.1-5.5-3.9-8.7-.8-3.2-1.2-6.4-1.2-9.6s.5-8.3,1.4-11.6c.9-3.2,2.4-6,4.3-8.3,1.9-2.3,4.4-4.2,7.4-5.7,3-1.5,6.6-2.9,10.9-4.1l13.8-3.7c3.6-.9,6.2-2.2,7.6-3.9,1.4-1.6,2.1-4.1,2.1-7.2s-.9-6.5-2.6-8.6c-1.7-2.1-4.6-3.1-8.7-3.1s-6.6,1.1-8.5,3.4c-1.9,2.2-2.8,5.2-2.8,9v2.6h-21.9v-2.3ZM703.3,501.1c-1.9.8-3.6,1.3-5.1,1.7-4.9,1.1-8.5,2.8-10.6,5.3-2.1,2.5-3.2,5.8-3.2,10.1s.7,6.8,2.1,9.4c1.4,2.6,3.8,3.9,7.1,3.9s3.4-.3,5.1-.8c1.8-.5,3.4-1.4,4.9-2.6,1.5-1.2,2.7-2.7,3.6-4.6.9-1.9,1.4-4.1,1.4-6.7v-18.7c-1.6,1.3-3.4,2.3-5.3,3.1Z" fill="#2e71ea" stroke-width="0"></path><path id="w" d="M563.8,450.5l11.1,67.4h.4l11.8-67.4h26.5l12.5,67.4h.4l11.5-67.4h23.3l-20.5,95h-27.7l-12.5-67.4h-.4l-11.8,67.4h-28.2l-20.7-95h24.4Z" fill="#2e71ea" stroke-width="0"></path><path id="t-2" d="M520.3,423.3v27.2h14.1v16.6h-14.1v51.4c0,3.8.6,6.4,1.7,8,1.1,1.6,3.4,2.4,7,2.4s1.9,0,2.8,0c.9,0,1.8-.1,2.6-.3v16.9c-2.7,0-5.3,0-7.9.3-2.5.2-5.2.3-8,.3-4.7,0-8.6-.3-11.6-1-3-.6-5.3-1.9-6.9-3.9-1.6-1.9-2.7-4.5-3.3-7.7-.6-3.2-.9-7.2-.9-12v-54.4h-12.4v-16.6h12.4v-27.2h24.4Z" fill="#2e71ea" stroke-width="0"></path><path id="e-2" d="M433.7,509.3c0,2.8.2,5.6.6,8.2.4,2.6,1.1,5,2,7.1.9,2.1,2.2,3.7,3.7,4.9,1.5,1.2,3.4,1.9,5.6,1.9,4.1,0,7.1-1.5,9-4.4,1.9-2.9,3.2-7.4,3.9-13.4h21.9c-.5,11.1-3.4,19.5-8.8,25.2-5.4,5.8-13.9,8.6-25.6,8.6s-15.7-1.5-20.7-4.4-8.6-6.8-10.9-11.7c-2.4-4.8-3.8-10.2-4.3-16.2-.5-6-.8-12-.8-18s.4-12.5,1.3-18.4c.9-5.9,2.6-11.1,5.3-15.7,2.6-4.6,6.4-8.2,11.4-10.9,4.9-2.7,11.5-4.1,19.8-4.1s12.9,1.1,17.4,3.4c4.5,2.3,8.1,5.5,10.7,9.7,2.6,4.2,4.4,9.2,5.3,15.2.9,5.9,1.4,12.6,1.4,19.9v5.5h-48.2v7.6ZM457.9,477.6c-.4-2.8-1-5.1-1.9-7.1-.9-1.9-2.1-3.4-3.7-4.4-1.6-1-3.6-1.5-6.1-1.5s-4.5.6-6.1,1.7c-1.6,1.1-2.9,2.6-3.8,4.4-.9,1.8-1.6,3.9-2,6.1-.4,2.2-.6,4.5-.6,6.7v3.7h24.9c-.1-3.6-.4-6.9-.7-9.6Z" fill="#2e71ea" stroke-width="0"></path><path id="e-3" d="M354,509.3c0,2.8.2,5.6.6,8.2.4,2.6,1.1,5,2,7.1.9,2.1,2.2,3.7,3.7,4.9,1.5,1.2,3.4,1.9,5.6,1.9,4.1,0,7.1-1.5,9-4.4,1.9-2.9,3.2-7.4,3.9-13.4h21.9c-.5,11.1-3.4,19.5-8.8,25.2-5.4,5.8-13.9,8.6-25.6,8.6s-15.7-1.5-20.7-4.4c-4.9-2.9-8.6-6.8-10.9-11.7-2.4-4.8-3.8-10.2-4.3-16.2-.5-6-.8-12-.8-18s.4-12.5,1.3-18.4c.9-5.9,2.6-11.1,5.3-15.7,2.6-4.6,6.4-8.2,11.4-10.9,4.9-2.7,11.5-4.1,19.8-4.1s12.9,1.1,17.4,3.4c4.5,2.3,8.1,5.5,10.7,9.7,2.6,4.2,4.4,9.2,5.3,15.2.9,5.9,1.4,12.6,1.4,19.9v5.5h-48.2v7.6ZM378.2,477.6c-.4-2.8-1-5.1-1.9-7.1-.9-1.9-2.1-3.4-3.7-4.4-1.6-1-3.6-1.5-6.1-1.5s-4.5.6-6.1,1.7c-1.6,1.1-2.9,2.6-3.8,4.4-.9,1.8-1.6,3.9-2,6.1-.4,2.2-.6,4.5-.6,6.7v3.7h24.9c-.1-3.6-.4-6.9-.7-9.6Z" fill="#2e71ea" stroke-width="0"></path><path id="w-2" d="M231.8,450.5l11.1,67.4h.4l11.8-67.4h26.5l12.5,67.4h.4l11.5-67.4h23.3l-20.5,95h-27.7l-12.5-67.4h-.4l-11.8,67.4h-28.2l-20.7-95h24.4Z" fill="#2e71ea" stroke-width="0"></path><path id="S" d="M146.1,510.5c0,2.9.2,5.6.7,8,.5,2.4,1.4,4.4,2.6,6.1,1.3,1.6,3,2.9,5.2,3.9,2.2.9,4.9,1.4,8.2,1.4s7.4-1.3,10.5-3.8c3.1-2.5,4.7-6.4,4.7-11.7s-.4-5.3-1.1-7.3c-.8-2.1-2-3.9-3.8-5.6-1.8-1.6-4.1-3.1-7-4.5-2.9-1.4-6.4-2.7-10.7-4.1-5.6-1.9-10.5-3.9-14.7-6.2-4.1-2.2-7.6-4.9-10.3-7.9-2.8-3-4.8-6.5-6.1-10.4-1.3-3.9-1.9-8.5-1.9-13.7,0-12.5,3.5-21.8,10.4-27.9,6.9-6.1,16.5-9.2,28.6-9.2s10.9.6,15.6,1.9c4.8,1.2,8.9,3.2,12.4,6,3.5,2.8,6.2,6.3,8.1,10.6,1.9,4.3,2.9,9.4,2.9,15.4v3.5h-24.4c0-6-1.1-10.6-3.2-13.9-2.1-3.2-5.6-4.9-10.6-4.9s-5.2.4-7.1,1.2c-1.9.8-3.4,1.9-4.5,3.3-1.1,1.4-1.9,2.9-2.3,4.7-.4,1.8-.6,3.6-.6,5.5,0,3.9.8,7.1,2.5,9.8,1.6,2.6,5.2,5.1,10.6,7.3l19.6,8.5c4.8,2.1,8.8,4.3,11.8,6.6,3.1,2.3,5.5,4.8,7.3,7.4,1.8,2.6,3.1,5.6,3.8,8.7.7,3.2,1.1,6.7,1.1,10.6,0,13.3-3.9,23-11.6,29-7.7,6.1-18.4,9.1-32.2,9.1s-24.6-3.1-30.8-9.4c-6.2-6.2-9.3-15.2-9.3-26.8v-5.1h25.4v3.7Z" fill="#2e71ea" stroke-width="0"></path></g></svg>