<?xml version="1.0" encoding="utf-8"?>
<!-- Generator: Adobe Illustrator 27.5.0, SVG Export Plug-In . SVG Version: 6.00 Build 0)  -->
<svg version="1.2" baseProfile="tiny-ps" id="Layer_1" xmlns="http://www.w3.org/2000/svg" xmlns:xlink="http://www.w3.org/1999/xlink"
viewBox="0 0 360 361" xml:space="preserve">
<title>Outbrain</title>
<path id="XMLID_63_" fill="#ED6622" d="M259.6,293c-10.2,9.9-22.2,17.6-35.9,23.2s-28.7,8.4-44.7,8.4c-16.1,0-31-2.8-44.8-8.4
	c-13.7-5.6-25.7-13.4-35.9-23.2c-10.2-9.9-18.2-21.5-24-35c-5.6-13-8.4-27-8.6-42.1h27.1c0.3,4.6,1.3,9,3.1,13.1
	c2.1,4.9,5,9.1,8.7,12.7c3.7,3.6,8.1,6.4,13,8.4c5,2.1,10.4,3.1,16.3,3.1c5.8,0,11.2-1,16.2-3.1c5-2,9.3-4.8,13.1-8.4
	c3.7-3.6,6.6-7.8,8.7-12.7c1.4-3.2,2.3-6.6,2.8-10.2h8.7c0.5,3.6,1.4,7,2.8,10.2c2.1,4.9,5,9.1,8.7,12.7c3.7,3.6,8.1,6.4,13,8.4
	c5,2.1,10.4,3.1,16.2,3.1c5.9,0,11.3-1,16.3-3.1c5-2,9.3-4.8,13.1-8.4c3.7-3.6,6.6-7.8,8.7-12.7c1.8-4.1,2.8-8.4,3.1-13.1h27.1
	c-0.2,15.1-3.1,29.1-8.6,42.1C277.9,271.5,269.9,283.1,259.6,293 M158.3,213.1c0,3.4-0.6,6.5-1.9,9.4c-1.2,2.9-3,5.4-5.2,7.5
	s-4.8,3.8-7.7,5c-3,1.2-6.2,1.8-9.7,1.8s-6.7-0.6-9.6-1.8c-3-1.2-5.5-2.9-7.7-5s-3.9-4.7-5.2-7.5c-1.2-2.9-1.9-6-1.9-9.4
	s0.6-6.5,1.9-9.4s3-5.4,5.2-7.6c2.2-2.1,4.8-3.8,7.7-5c3-1.2,6.2-1.8,9.6-1.8s6.7,0.6,9.7,1.8s5.5,2.9,7.7,5s4,4.7,5.2,7.6
	C157.7,206.6,158.3,209.7,158.3,213.1 M248.5,213.1c0,3.4-0.6,6.5-1.9,9.4c-1.2,2.9-3,5.4-5.2,7.5s-4.8,3.8-7.7,5
	c-3,1.2-6.2,1.8-9.7,1.8s-6.7-0.6-9.7-1.8c-2.9-1.2-5.5-2.9-7.7-5s-3.9-4.7-5.2-7.5c-1.3-2.9-1.9-6-1.9-9.4s0.6-6.5,1.9-9.4
	c1.2-2.9,3-5.4,5.2-7.6c2.2-2.1,4.8-3.8,7.7-5c3-1.2,6.2-1.8,9.7-1.8s6.7,0.6,9.7,1.8s5.6,2.9,7.7,5c2.2,2.1,3.9,4.7,5.2,7.6
	C247.9,206.6,248.5,209.7,248.5,213.1 M75.8,167.7c19.2-6.3,44.8-14.3,44.8-14.3c56.2-17.7,63.8-38.5,63.8-38.5s11.8,20.9,52.6,34.6
	c0,0,22.6,7.3,43.5,14.8c1,2.1,2.1,4.1,3.1,6.3c3.7,8.6,6.2,17.6,7.5,27.1h-28.9c-0.1-0.2-0.1-0.3-0.2-0.5c-2.1-4.9-5-9.1-8.7-12.7
	c-3.7-3.6-8.1-6.4-13.1-8.4S229.8,173,224,173s-11.2,1-16.2,3.1c-5,2-9.3,4.8-13.1,8.4c-3.7,3.6-6.6,7.8-8.7,12.7
	c-0.7,1.5-1.2,3.1-1.7,4.7h-10.9c-0.5-1.6-1-3.2-1.7-4.7c-2.1-4.9-5-9.1-8.7-12.7c-3.7-3.6-8.1-6.4-13.1-8.4s-10.4-3.1-16.2-3.1
	s-11.3,1-16.2,3.1c-5,2-9.3,4.8-13,8.4c-3.7,3.6-6.6,7.8-8.7,12.7c-0.1,0.2-0.2,0.3-0.2,0.5H66.8c1.3-9.5,3.8-18.5,7.5-27.1
	C74.8,169.6,75.3,168.7,75.8,167.7 M338.7,113.3c-8.8-20.5-21-38.3-36.6-53.4S268.2,33,247.3,24.4S203.6,11.6,179,11.6
	s-47.4,4.3-68.3,12.8C89.8,33,71.5,44.8,55.9,59.9s-27.8,32.9-36.6,53.4S6.1,156.1,6.1,180c0,24,4.4,46.2,13.2,66.7
	s21,38.3,36.6,53.4s33.9,26.9,54.8,35.5c21,8.6,43.7,12.8,68.3,12.8s47.3-4.3,68.3-12.8c20.9-8.5,39.2-20.4,54.8-35.5
	s27.8-32.9,36.6-53.4c8.8-20.5,13.2-42.8,13.2-66.7C351.9,156.1,347.5,133.8,338.7,113.3"/>
</svg>
