<svg xmlns="http://www.w3.org/2000/svg" xmlns:xlink="http://www.w3.org/1999/xlink" version="1.2" viewBox="0 0 92.698 92.878" baseProfile="tiny-ps">
  <title>Kiwitron</title>
  <g id="Raggruppa_397_00000109725825507613202220000010301820841903791270_" transform="translate(-2.906 -2.108)">
    <path id="Tracciato_168_00000017475364108059584440000011949151982590587320_" d="M86.008,39.414   c-0.104-0.415-0.525-0.666-0.94-0.562c-0.002,0.001-0.004,0.001-0.006,0.001h-0.009L13.313,58.08   c-0.413,0.109-0.66,0.532-0.552,0.945c0,0.002,0.001,0.003,0.001,0.005v0.009c5.78,20.129,26.784,31.762,46.913,25.982   C79.3,79.387,90.94,59.227,86.008,39.414z M32.253,60.54c-0.961,0.535-2.173,0.189-2.708-0.772   c-0.516-0.927-0.214-2.097,0.687-2.658l0.049-0.028c0.956-0.545,3.865-0.689,4.199-0.097S33.209,59.994,32.253,60.54z    M40.363,67.312c-0.54,0.959-1.754,1.299-2.713,0.759s-1.299-1.754-0.759-2.713c0.011-0.019,0.022-0.038,0.034-0.057   c0.557-0.949,2.999-2.526,3.587-2.185C41.1,63.458,40.918,66.368,40.363,67.312z M48.997,71.141c-1.1-0.007-1.986-0.904-1.98-2.004   c0-1.097,1.335-3.689,2.011-3.684s1.977,2.612,1.97,3.708C50.991,70.26,50.096,71.145,48.997,71.141L48.997,71.141z M60.39,68.16   c-0.955,0.545-2.17,0.213-2.715-0.742l0,0c-0.545-0.956-0.689-3.865-0.102-4.199c0.587-0.334,3.015,1.273,3.56,2.225   c0.546,0.955,0.215,2.171-0.74,2.717c-0.002,0.001-0.003,0.002-0.005,0.003L60.39,68.16z M68.767,59.879   c-0.556,0.949-1.776,1.268-2.725,0.713c-0.949-0.554-2.526-2.999-2.185-3.58c0.342-0.581,3.248-0.406,4.196,0.148   c0.948,0.555,1.267,1.774,0.713,2.723L68.767,59.879z M69.879,50.501c-1.097-0.008-3.689-1.337-3.684-2.013   c0.005-0.676,2.612-1.974,3.708-1.967c1.099-0.009,1.998,0.875,2.007,1.975c0.009,1.099-0.875,1.998-1.975,2.007L69.879,50.501   L69.879,50.501z" fill="#53B051"/>
    <g id="Semi_half_asimmetrici_00000010304925394461043770000000712088547033153722_" transform="translate(15.657 15.756)">
      <path id="Tracciato_181_00000054962243558213814560000006669831044181306815_" d="M22.322,13.061    c-0.956,0.544-1.289,1.76-0.745,2.715l0,0c0.544,0.953,2.972,2.562,3.559,2.225s0.443-3.243-0.097-4.2    c-0.545-0.955-1.761-1.288-2.717-0.744L22.322,13.061z" fill="#43403F"/>
      <path id="Tracciato_182_00000134247231588096071090000002313240874510262711_" d="M13.951,21.34    c-0.555,0.949-0.235,2.168,0.714,2.722l0,0c0.949,0.555,3.855,0.733,4.194,0.149c0.34-0.584-1.236-3.03-2.185-3.585    C15.726,20.072,14.507,20.391,13.951,21.34z" fill="#43403F"/>
      <path id="Tracciato_183_00000031927599912630405630000001399526288072638640_" d="M12.836,30.717    c-1.099-0.006-1.995,0.88-2.001,1.979c-0.006,1.099,0.88,1.995,1.979,2.001c1.097,0.008,3.704-1.293,3.708-1.967    S13.935,30.724,12.836,30.717z" fill="#43403F"/>
      <path id="Tracciato_184_00000013887560772150307940000015944839357363604659_" d="M45.072,13.192    c-0.949-0.555-2.168-0.235-2.722,0.714l0,0c-0.554,0.949-0.733,3.855-0.149,4.196c0.584,0.342,3.03-1.236,3.585-2.185    C46.34,14.968,46.021,13.748,45.072,13.192z" fill="#43403F"/>
      <path id="Tracciato_185_00000171718638236996164180000008124382506530057115_" d="M33.716,10.078    c-1.1-0.006-1.996,0.88-2.004,1.979c-0.005,1.099,1.295,3.706,1.97,3.708c0.674,0.002,2.007-2.586,2.013-3.684    S34.816,10.087,33.716,10.078z" fill="#43403F"/>
      <path id="Tracciato_192_00000026141400068282042010000016571432861183775405_" d="M48.482,24.327    c0.335,0.587,3.245,0.443,4.199-0.097c0.964-0.529,1.316-1.74,0.787-2.704c-0.529-0.964-1.74-1.316-2.704-0.787l-0.052,0.03    C49.754,21.31,48.15,23.741,48.482,24.327z" fill="#43403F"/>
    </g>
    <radialGradient id="Freccialift_00000127029636966209107410000013740741017581490860_" cx="-674.6182" cy="807.6802" r="0.6705" gradientUnits="userSpaceOnUse">
      <stop offset="0.5" stop-color="#5A5857"/>
      <stop offset="1" stop-color="#43403E"/>
    </radialGradient>
    <path id="Freccialift_00000011011437688989301130000005892571254466438554_" d="   M82.954,34.005c0.415,0.103,0.835-0.15,0.938-0.565c0.042-0.171,0.025-0.351-0.049-0.511C75.239,13.842,52.79,5.344,33.703,13.948   C18.62,20.747,9.688,36.542,11.636,52.971c0.054,0.424,0.441,0.724,0.865,0.67c0.036-0.004,0.072-0.012,0.106-0.021l5.936-1.591   c0.364-0.099,0.604-0.445,0.568-0.82C17.588,34.554,29.855,19.817,46.51,18.294c7.822-0.715,15.616,1.637,21.736,6.559   c0.329,0.268,0.38,0.751,0.115,1.083l-0.014,0.016l-2.357,2.791c-0.275,0.327-0.234,0.815,0.093,1.091   c0.092,0.077,0.2,0.132,0.316,0.16L82.954,34.005z" fill="url(#Freccialift_00000127029636966209107410000013740741017581490860_)"/>
  </g>
</svg>