<?xml version="1.0" encoding="utf-8"?>
<svg version="1.2" baseProfile="tiny-ps" id="Ebene_1" xmlns="http://www.w3.org/2000/svg" xmlns:xlink="http://www.w3.org/1999/xlink"
	 viewBox="0 0 391.2 394" xml:space="preserve">
<title>SaveTV</title>
<g>
	<g>
		<path fill="#3E3E3E" d="M90,163.4c-18.5,0-33.6,15.1-33.6,33.6s15.1,33.6,33.6,33.6c18.5,0,33.6-15.1,33.6-33.6
			S108.5,163.4,90,163.4z M90,227.6c-16.9,0-30.6-13.7-30.6-30.6c0-16.9,13.7-30.6,30.6-30.6c16.9,0,30.6,13.7,30.6,30.6
			C120.5,213.9,106.8,227.6,90,227.6z"/>
		<rect x="269.2" y="202.3" fill="#3E3E3E" width="8.7" height="8.7"/>
		<path fill="#3E3E3E" d="M156,196.4c-2-1.5-6.2-2.7-12.6-3.5c-1.7-0.2-3-0.5-4-0.7c-1.9-0.5-2.9-1.3-2.9-2.5c0-1,0.5-1.8,1.4-2.4
			c1.2-0.8,2.9-1.1,5.1-1.1c2.7,0,4.9,0.6,6.7,1.8c0.9,0.6,1.9,1.5,2.8,2.8l5.6-3.1c-1.9-2.7-4.6-4.6-7.9-5.8
			c-2.2-0.8-4.6-1.1-7.1-1.1c-5,0-8.8,1.2-11.2,3.5c-1.7,1.7-2.6,3.6-2.6,5.8c0,2.5,0.9,4.5,2.6,5.9c2.1,1.7,5.7,2.9,10.8,3.5
			c2.8,0.4,4.8,0.7,6,1c1.9,0.4,2.8,1.3,2.8,2.5c0,1.2-0.7,2.2-2.1,2.8c-1.2,0.5-2.8,0.8-4.8,0.8c-2.3,0-4.4-0.4-6.1-1.1
			c-2-0.8-3.6-2.2-4.7-4l-5.7,3.3c1.8,2.2,3.5,3.8,5.1,4.8c2.7,1.6,6.3,2.4,10.7,2.4c3.6,0,6.7-0.5,9.1-1.6c3.7-1.6,5.5-4.3,5.5-8
			C158.7,199.8,157.8,197.8,156,196.4z"/>
		<polygon fill="#3E3E3E" points="225.8,181.7 215.7,202.9 205.5,181.7 198.4,181.7 212.2,211 219,211 232.9,181.7 		"/>
		<path fill="#3E3E3E" d="M261.4,185.5c-2.8-3.2-6.9-4.7-12.3-4.7c-5.2,0-9.2,1.6-12.2,4.7c-2.7,2.8-4,6.4-4,10.8
			c0,4.6,1.5,8.4,4.5,11.3c3,2.9,7.1,4.4,12.2,4.4c3.6,0,6.8-0.8,9.5-2.5c3.3-2,5.2-4.4,5.8-7.2h-7.4c-0.5,1.2-1.5,2.3-2.9,3.1
			c-1.4,0.8-3.1,1.2-5.2,1.2c-2.8,0-5-0.7-6.6-2.1c-1.6-1.4-2.7-3.5-3.1-6.1h25.7C265.4,192.8,264.1,188.5,261.4,185.5z M239.9,193
			c0.6-2.6,1.9-4.4,3.7-5.6c1.4-0.8,3.2-1.3,5.3-1.3c2.6,0,4.6,0.5,6.2,1.6c1.6,1.1,2.6,2.8,3.1,5.2H239.9z"/>
		<polygon fill="#3E3E3E" points="314.1,181.7 269.2,181.7 269.2,192.5 282.6,192.5 282.6,211 293.9,211 293.9,192.5 309,192.5 		
			"/>
		<polygon fill="#3E3E3E" points="322,181.7 311.9,202.9 308.9,196.9 296.3,196.9 303,211 320.8,211 334.8,181.7 		"/>
		<path fill="#3E3E3E" d="M188.1,185c-2.1-2.1-5.4-4.1-9.5-4.2c-4.5-0.2-9.2,1.5-12.1,4.3c-3,2.8-4.2,6.8-4.2,11.1
			c0,4.5,1.7,8.9,4.9,11.7c2.9,2.7,7.2,4.1,11.5,4c4.1-0.1,7.4-1.9,9.5-3.7v2.8h6.7v-29.3h-6.7V185z M186.4,202.7
			c-1.7,2.3-4.7,3.6-7.7,3.6c-2.6,0-4.9-0.8-6.6-2.6c-1.7-1.8-2.8-4.5-2.8-7.3c0-2.7,0.8-5.5,2.5-7.3c1.7-1.8,4.3-2.6,6.9-2.6
			c2.2,0,4.9,0.8,6.5,2.2c2.1,1.8,2.9,4.6,2.9,7.7C188.1,198.6,187.7,201,186.4,202.7z"/>
	</g>
	<path fill="#B91F2D" d="M90,175.3c-12,0-21.7,9.7-21.7,21.7c0,12,9.7,21.7,21.7,21.7c12,0,21.7-9.7,21.7-21.7
		C111.6,185,101.9,175.3,90,175.3z M81.1,211.5v-29.2l25.3,14.6L81.1,211.5z"/>
</g>
</svg>
