<svg version="1.2" baseProfile="tiny-ps" xmlns="http://www.w3.org/2000/svg" xmlns:xlink="http://www.w3.org/1999/xlink"
	width="305" height="305" viewBox="0 0 305 305">
	<title>Cloud Design</title>
	<path fill="#417DD3" d="M111,0h41.8c26.4,0,39.4,14.7,39.4,41.6v85c0,26.9-13,41.5-39.4,41.5H111V0z"/>
	<path fill="#4AB9FF" d="M201,37.6h25.2c15.9,0,23.8,8.8,23.8,25.1V114c0,16.2-7.8,25.1-23.8,25.1H201L201,37.6z"/>
	<path fill="#54DFFF" d="M258.9,60.4h15.4c9.7,0,14.5,5.4,14.5,15.3v31.3c0,9.9-4.8,15.3-14.5,15.3h-15.4V60.4z"/>
	<path fill="#6F53AD" d="M102.2,156.3H69.7c-20.5,0-30.6-11.4-30.6-32.3V58c0-20.9,10.1-32.3,30.6-32.3h32.5L102.2,156.3z"/>
	<path fill="#50368C" d="M30.2,131.8H14.8c-9.7,0-14.5-5.4-14.5-15.3V85.1c0-9.9,4.8-15.3,14.5-15.3h15.4V131.8z"/>
	<path fill="#444B55" d="M29.4,239.5V194h3v42.8h14.4v2.7L29.4,239.5z"/>
	<path fill="#444B55" d="M52.1,205.1c0-6.6,3.1-11.5,10-11.5s10.2,4.9,10.2,11.5v23.3c0,6.6-3.1,11.5-10.2,11.5s-10-4.9-10-11.5
		V205.1z M55.1,228.6c0,4.9,2,8.6,7,8.6s7.2-3.6,7.2-8.6v-23.6c0-4.9-2-8.6-7.2-8.6s-7,3.6-7,8.6V228.6z"/>
	<path fill="#444B55" d="M84.1,228.5c0,4.9,1.9,8.7,6.9,8.7s6.9-3.7,6.9-8.7V194h2.8v34.4c0,6.5-2.8,11.5-9.8,11.5s-9.8-5-9.8-11.5
		V194h3L84.1,228.5z"/>
	<path fill="#444B55" d="M119.4,194c7.1,0,10.2,4.6,10.2,11.3v22.9c0,6.7-3.1,11.3-10.2,11.3h-10.1V194H119.4z M119.4,236.8
		c5.1,0,7.2-3.4,7.2-8.4v-23.1c0-5-2.2-8.4-7.2-8.4h-7v40L119.4,236.8z"/>
	<path fill="#444B55" d="M156.7,194.5c7,0,10.1,4.6,10.1,11.3v22.9c0,6.7-3.1,11.3-10.1,11.3h-10v-45.5H156.7z M156.7,237.2
		c5.1,0,7.1-3.4,7.1-8.4v-23.1c0-5-2.1-8.4-7.1-8.4h-7v40L156.7,237.2z"/>
	<path fill="#444B55" d="M191.2,215.1v2.7h-12.4v19h14.9v2.7h-17.9V194h17.9v2.7h-14.9v18.3L191.2,215.1z"/>
	<path fill="#444B55" d="M219.3,205v0.9h-2.9v-1.2c0-4.8-1.8-8.4-6.8-8.4c-4.9,0-6.8,3.6-6.8,8.4c0,11.1,16.4,11.2,16.4,23.8
		c0,6.6-2.9,11.4-9.8,11.4s-9.8-4.8-9.8-11.4v-2.3h2.9v2.5c0,4.9,1.9,8.4,6.9,8.4s6.9-3.5,6.9-8.4c0-10.9-16.4-11.1-16.4-23.8
		c0-6.8,3-11.2,9.7-11.3C216.5,193.6,219.3,198.4,219.3,205z"/>
	<path fill="#444B55" d="M231.2,194v45.5h-3V194H231.2z"/>
	<path fill="#444B55" d="M259.5,205.1v3.4h-2.9v-3.6c0-4.9-1.9-8.6-6.9-8.6s-6.9,3.7-6.9,8.6v23.6c0,4.9,1.9,8.5,6.9,8.5
		s6.9-3.6,6.9-8.5v-9.8h-6V216h8.9v12.4c0,6.6-2.9,11.5-9.8,11.5s-9.8-4.9-9.8-11.5v-23.3c0-6.6,2.8-11.5,9.8-11.5
		C256.7,193.6,259.5,198.6,259.5,205.1z"/>
	<path fill="#444B55" d="M271.1,239.5h-2.7V194h3.9l13.6,38.4V194h2.7v45.5h-3.3l-14.2-40.5L271.1,239.5z"/>
	<path fill="#444B55" d="M17.7,236.6L17.7,236.6l-7.1,0.1c-5.1,0-7.2-3.4-7.2-8.4v-23.1c0-5,2.2-8.4,7.2-8.4h7l0,0h3v-2.8h-10
		c-7.1,0-10.2,4.6-10.2,11.3v22.9c0,6.7,3.1,11.3,10.2,11.3h10.1v-2.8L17.7,236.6z"/>
	<path fill="#464C55" d="M304.7,199.2c-0.1,3-2.6,5.4-5.6,5.3c-3-0.1-5.4-2.6-5.3-5.6c0.1-3,2.5-5.3,5.5-5.3c3,0,5.4,2.3,5.5,5.3
		C304.8,199,304.8,199.1,304.7,199.2z M294.6,199.2c0.1,2.6,2.2,4.6,4.8,4.5c2.6-0.1,4.6-2.2,4.5-4.8c-0.1-2.5-2.2-4.5-4.7-4.5
		c-2.6,0-4.7,2-4.7,4.6C294.6,199,294.6,199.1,294.6,199.2L294.6,199.2z M299.3,195.8c1.2,0,1.7,0.6,1.7,1.8v0.2
		c0.1,0.7-0.3,1.4-0.9,1.6c0.7,0.2,0.9,0.8,0.9,1.6v0.7c0,0.3,0,0.6,0.2,0.9h-0.9c-0.1-0.3-0.2-0.6-0.1-0.9V201
		c0-0.9-0.4-1.2-1.2-1.2h-0.6v2.8h-0.9v-6.8L299.3,195.8z M299.2,199c0.7,0,1-0.3,1-1v-0.3c0-0.7-0.2-1.1-0.9-1.1h-0.8v2.4H299.2z"
		/>
</svg>
