<?xml version="1.0" encoding="utf-8"?>
<svg version="1.2" baseProfile="tiny-ps" id="Capa_1" xmlns="http://www.w3.org/2000/svg" xmlns:xlink="http://www.w3.org/1999/xlink"
	viewBox="0 0 1080 1080" xml:space="preserve">
	<title>7th Avenue</title>
<g>
	<path d="M0,0c360,0,719.9,0,1080,0c0,359.9,0,719.9,0,1080c-359.9,0-720,0-1080,0C0,720.1,0,360,0,0z M700.6,539.2
		c1.2,0.6,1.6,1,2,1c38-0.1,76.1-0.1,114.1-0.2c0.1,0,0.3-0.2,0.3-0.3c0.1-0.2,0-0.3,0-0.9c-1.2-0.2-2.4-0.5-3.7-0.7
		c-6.1-1-12.2-1.6-18.2-3c-7.2-1.7-9.7-4.8-10.5-12.1c-0.2-2-0.4-4.1-0.4-6.2c-0.1-18.5-0.1-37-0.1-55.5c0-20.9,0.1-41.8,0-62.7
		c-0.1-20.5-10.2-35.5-29.6-42.4c-24.3-8.7-46.9-5.1-67.3,10.8c-9.4,7.3-16.7,16.7-23.4,26.5c-1.5,2.2-3,4.4-4.6,6.6
		c-0.4-0.1-0.8-0.2-1.1-0.3c0-6.4,0-12.8,0-19.2c0-6.5,0-13,0-19.5c0-6.5,0-13,0-19.5c0-6.5,0-13,0-19.5s0-13,0-19.5
		c0-6.5,0.1-13,0-19.5c-0.1-6.4,0.3-12.9-0.3-19.4c-1,0-1.5-0.1-2,0c-1.2,0.2-2.3,0.5-3.5,0.8c-14.7,3.4-29.3,7.2-44.4,8.1
		c-8.6,0.5-17.1,0.9-25.7,1.5c-1.2,0.1-2.3,0.4-3.5,0.6c0,0.4,0,0.8,0,1.2c2.1,0.4,4.3,0.8,6.4,1.3c4.7,1.1,9.4,1.9,14,3.3
		c5.3,1.5,8.2,5.4,8.7,10.9c0.2,2.6,0.3,5.1,0.3,7.7c0,72.3,0,144.7,0,217c0,2.2,0,4.5-0.2,6.7c-0.6,7.4-3.4,10.7-10.6,12.7
		c-1.5,0.4-3,0.8-4.5,1c-5.1,0.7-10.2,1.4-15.3,2.1c-0.8,0.1-1.5,0.7-2.3,1.1c0.1,0.3,0.1,0.7,0.2,1c12.8,0,25.6,0,38.4,0
		c13,0,26.1,0.1,39.1,0c12.7-0.1,25.3,0.3,38-0.8c-1-0.8-2-1.2-3.1-1.4c-4.9-0.7-9.9-1.3-14.8-2.1c-11.5-1.8-14.8-5.4-14.8-17
		c-0.1-37-0.1-74.1-0.1-111.1c0-1.7,0.5-3.8,1.6-5.2c6-7.8,12.8-14.7,21.2-20c8.1-5.1,17-7.1,26.5-6.1c13.1,1.3,22.3,9,25.4,21.9
		c1,4,1.4,8.1,1.5,12.2c0.1,35.3,0.1,70.6,0,106c0,2.7-0.3,5.5-0.6,8.2c-0.6,5-3.5,8.1-8.1,9.6c-2.1,0.7-4.3,1.3-6.5,1.6
		c-4.9,0.8-9.8,1.4-14.8,2.1C703.3,538.2,702.3,538.6,700.6,539.2z M455.8,281.3c-55.5,0-110.8,0-166.5,0
		c-3.6,25.1-7.1,50.1-10.6,75c5.2-11.4,14.6-17.2,25.5-21.2c1.9-0.7,3.9-1.3,5.9-1.9c16.3-4.6,33-6.2,49.8-6c19.5,0.2,39,1.3,58.5,2
		c0.6,0,1.1,0.4,2.2,0.8c-6.3,7.3-12.1,14.2-18.1,21c-14.4,16.1-29,32-43.2,48.2c-32.6,37-54.9,79.2-65.6,127.4
		c-1,4.3-1.9,8.6-2.8,12.9c6.1,1.1,57.7,0.8,61.3-0.2c3.3-15.2,6.4-30.5,9.9-45.6c6.6-29.1,14.7-57.7,26.1-85.4
		c10.4-25.1,23.5-48.7,37.3-72c9.5-16.1,19.2-32.1,28.7-48.1C455.4,286.3,457.2,284.4,455.8,281.3z M481.6,357c0,2.8,0,4.8,0,6.9
		c0,43,0,86,0,129c0,1.9,0,3.8,0.1,5.7c0.7,14.3,5.7,26.6,18,34.7c19.5,12.9,40.3,13.8,61.8,5.7c0.8-0.3,1.3-1.2,2.6-2.4
		c-2.6-0.3-4.2-0.4-5.9-0.6c-13.2-1.4-22.6-9.7-25.3-22.6c-0.7-3.5-1.1-7.1-1.1-10.7c-0.1-46.3-0.1-92.5,0-138.8
		c0-1.5,0.2-3,0.4-5.1c8.2,0,16.2,0,24.3,0c-0.1-1.5-0.2-2.3-0.2-3.7c-8.1,0-16,0-24.4,0c0-5.2,0-9.8,0-14.4c0-4.5,0-8.9,0-13.4
		c0-4.6,0.1-9.3,0-13.9c-0.1-4.5,0.6-9.1-0.8-14.8c-1.7,2.3-2.8,3.7-3.7,5.2c-7.2,10.8-15.6,20.4-25.6,28.6
		c-10.3,8.4-21.6,15.1-33.5,20.9c-1.4,0.7-3.3,0.9-4.2,3.6c3.1,0.1,5.7,0.1,8.3,0.1C475.1,357,478,357,481.6,357z M660.4,748.6
		c0-0.3,0-0.6,0.1-0.9c-0.8-0.2-1.5-0.5-2.3-0.7c-3-0.5-6.1-0.7-9.1-1.4c-4.4-1-6-3-6.3-7.5c-0.2-2.7-0.3-5.5-0.3-8.2
		c0-20.2,0-40.5,0-60.7c0-2.2,0-4.5-0.3-6.7c-0.8-8.9-5.3-15.4-13.1-19.6c-14-7.6-32.1-5.5-44.5,5.7c-4.5,4.1-8.1,9.2-12.1,13.9
		c-0.9,1.1-1.8,2.3-2.7,3.4c-0.3-0.1-0.6-0.2-0.8-0.3c0-8.1,0-16.3,0-25.2c-15.2,4.5-30.2,6.4-45.4,7.2c1.6,0.9,3.1,1.3,4.7,1.6
		c10.1,1.9,11.4,3.4,11.4,13.5c0,23.5,0,47,0,70.4c0,10.4-1.5,12-11.8,13.5c-2.1,0.3-4.2,0.5-6.3,0.8c5.9,1.8,61.9,1.6,66.1,0.2
		c-4.1-0.6-7.4-1.1-10.7-1.7c-6.2-1.2-8-3.2-8.1-9.3c-0.1-21.4-0.1-42.9,0-64.3c0-1.6,0.5-3.6,1.5-4.7c3.7-3.8,7.4-7.6,11.6-10.8
		c4.8-3.7,10.7-4.5,16.6-3.6c5.8,0.9,10.5,3.7,12.5,9.3c1.2,3.5,1.9,7.3,2,11c0.2,20.2,0.1,40.5,0.1,60.7c0,1,0,2.1-0.1,3.1
		c-0.3,5.2-2,7.3-7.3,8.4c-2.7,0.6-5.4,0.8-8.1,1.2c-1,0.2-1.9,0.7-2.8,1c0.1,0.2,0.1,0.4,0.2,0.6
		C616.9,748.6,638.6,748.6,660.4,748.6z M793.7,748.5c0-0.3,0-0.7,0-1c-1.6-0.3-3.3-0.6-4.9-0.9c-10.1-2-11.2-3.3-11.2-13.6
		c0-28.8,0-57.6,0-86.4c0-1.8,0-3.6,0-5.9c-3.3,0.8-5.8,1.4-8.2,2c-2.5,0.6-5,1.1-7.5,1.6c-2.3,0.5-4.7,1-7.1,1.3
		c-2.5,0.3-5.1,0.5-7.7,0.7c-2.6,0.2-5.1,0.4-7.7,0.6c-2.3,0.2-4.8-0.3-8.1,1.1c2.4,0.6,3.7,1,5,1.2c11,2,12.2,3.3,12.2,14.4
		c0,16.6-0.2,33.2,0.1,49.9c0.1,4.9-1.3,8.6-4.8,11.8c-1.4,1.3-2.7,2.7-4.1,3.9c-4.1,3.5-8.6,6.2-14.1,7
		c-11.2,1.8-19.7-4.2-21.4-15.4c-0.4-2.5-0.5-5.1-0.5-7.7c0-22.1,0-44.2,0-66.3c0-1.9,0-3.7,0-6.2c-15.2,4.5-30.1,6.3-45.2,7.1
		c1.8,1,3.6,1.3,5.4,1.6c9.3,1.8,10.8,3.5,10.8,13c0,20.4-0.1,40.8,0,61.2c0.1,11.9,5.7,20.3,16.9,24.5c15.8,5.9,30.1,2.9,42.3-8.5
		c4.3-4,7.7-9.1,11.6-13.7c0.7-0.8,1.4-1.7,2.8-3.4c0.2,9.4-0.1,17.7,0.2,26.2C764.1,748.5,778.9,748.5,793.7,748.5z M322.6,748.5
		c-6.2-3.3-10.5-8.2-14.3-13.5c-5.9-8.1-10.2-17-13.8-26.3c-13.8-35.6-27.6-71.2-41.5-106.8c-0.5-1.4-1.2-2.8-1.8-4.2
		c-1.9,0-3.6,0-5.3,0c-0.7,1.7-1.4,3.3-2,4.9c-12,31.9-24,63.8-36.1,95.7c-4.1,10.7-8.1,21.5-12.3,32.1c-3.4,8.7-9.5,14.5-18.9,16.5
		c-0.7,0.1-1.3,0.7-1.9,1c0.1,0.2,0.2,0.4,0.2,0.6c16.7,0,33.3,0,50,0c-1.1-1-2.3-1.3-3.5-1.6c-3.8-0.9-7.8-1.4-11.4-2.8
		c-10.5-3.8-13.3-10.1-9.4-20.5c3.7-10.1,7.6-20.2,11.4-30.3c0.5-1.3,1.1-2.4,1.7-3.7c14.2,0,28.2,0,42.5,0
		c4.3,11.8,8.7,23.6,12.8,35.3c0.7,2.1,0.9,4.4,1,6.6c0.2,6.5-2.5,10.8-8.6,13.2c-2.8,1.1-5.9,1.6-8.9,2.2c-2.6,0.5-5.3,0.7-7.9,1
		c0,0.2,0.1,0.4,0.1,0.5C270.6,748.5,296.6,748.5,322.6,748.5z M436.9,683.7c6.7,0,13,0,19.3,0c6.3,0,12.7,0,19,0c6.5,0,13,0,19.5,0
		c6.3,0,12.5,0.1,19-0.1c-0.2-6.9-1.7-12.9-3.9-18.6c-4.8-12.6-13.7-20.6-26.7-24.2c-7.4-2-14.9-2.5-22.4-2.1
		c-18.6,1-32.1,10-40,26.9c-6.2,13.2-7,27.2-3.9,41.2c5,22.7,20.6,41.1,45.7,43.7c16.3,1.7,31.1-1.9,42.2-15
		c9.9-11.8,13.6-26.2,16.5-40.9c-1.6,2.4-2.8,5-4.1,7.5c-5.7,10.6-14.3,17.4-26.4,19.2c-4.7,0.7-9.5,1-14.3,1
		C455.1,722,438.4,706,436.9,683.7z M898,683.7c-0.3-7.2-1.8-13.4-4.1-19.3c-4.8-12.2-13.5-20-26-23.6c-7.7-2.2-15.5-2.7-23.4-2.2
		c-17.3,1.1-30.3,9.2-38.3,24.6c-8.4,16.2-9,33.3-3.2,50.4c7.1,20.9,21.2,34.3,43.8,36.8c22,2.4,39.3-5.8,49.3-25.7
		c4.3-8.6,7-17.8,9.2-27.2c0.1-0.6,0-1.3,0-3.1c-1.4,2.8-2.3,4.6-3.2,6.4c-5.1,10.1-12.8,17.2-24.1,20c-7.6,1.8-15.3,2.1-23,1.2
		c-8.2-1-15.4-4.5-21.3-10.4c-6.2-6.3-10-13.8-11.9-22.4c-0.4-1.6-0.5-3.2-0.9-5.4C846.8,683.7,872.1,683.7,898,683.7z M375.6,641
		c0,0.2-0.1,0.4-0.1,0.5c1.2,0.4,2.5,0.8,3.7,1.3c7.4,2.7,10.6,8.4,9,16.2c-0.5,2.2-1.1,4.3-1.9,6.4c-5.6,14.4-11.3,28.7-17,43
		c-0.6,1.5-1.3,3-2.3,5.1c-0.8-1.4-1.2-2.1-1.5-2.8c-6.1-14.5-12.2-29.1-18.2-43.6c-1.1-2.7-2-5.5-2.5-8.3
		c-1.6-8.7,1.8-13.8,10.4-15.8c3.1-0.7,6.3-1,9.5-1.5c0-0.1,0-0.2,0-0.4c-23.8,0-47.7,0-71.5,0c6.4,3.1,10.6,8.3,14.2,13.9
		c3.7,5.7,7.4,11.6,10.2,17.8c10.3,23.2,20.1,46.5,30.1,69.8c0.9,2,1.8,4,2.8,6.2c1.9-0.1,3.6-0.2,5.2-0.2c0.8-1.9,1.5-3.5,2.1-5.1
		c10.3-26.1,20.5-52.3,30.9-78.4c1.4-3.5,3-6.9,4.7-10.3c3.2-6.1,8.2-10,14.8-11.9c1.2-0.3,2.4-0.9,3.6-1.3
		c-0.1-0.2-0.1-0.4-0.2-0.6C399.6,641,387.6,641,375.6,641z"/>
	<path fill="#FFFFFF" d="M700.6,539.2c1.7-0.5,2.7-1,3.7-1.1c4.9-0.7,9.9-1.3,14.8-2.1c2.2-0.3,4.4-0.9,6.5-1.6
		c4.6-1.6,7.5-4.6,8.1-9.6c0.3-2.7,0.6-5.5,0.6-8.2c0-35.3,0.1-70.6,0-106c0-4.1-0.5-8.2-1.5-12.2c-3.1-12.8-12.3-20.5-25.4-21.9
		c-9.6-1-18.4,1-26.5,6.1c-8.4,5.3-15.2,12.2-21.2,20c-1,1.4-1.6,3.4-1.6,5.2c-0.1,37-0.1,74.1,0.1,111.1c0,11.6,3.4,15.2,14.8,17
		c4.9,0.8,9.8,1.3,14.8,2.1c1.1,0.2,2.1,0.6,3.1,1.4c-12.7,1.1-25.4,0.7-38,0.8c-13,0.1-26.1,0-39.1,0c-12.8,0-25.6,0-38.4,0
		c-0.1-0.3-0.1-0.7-0.2-1c0.8-0.4,1.5-1,2.3-1.1c5.1-0.8,10.2-1.4,15.3-2.1c1.5-0.2,3-0.6,4.5-1c7.2-2,10-5.3,10.6-12.7
		c0.2-2.2,0.2-4.5,0.2-6.7c0-72.3,0-144.7,0-217c0-2.6,0-5.1-0.3-7.7c-0.5-5.5-3.4-9.3-8.7-10.9c-4.6-1.3-9.3-2.2-14-3.3
		c-2.1-0.5-4.3-0.9-6.4-1.3c0-0.4,0-0.8,0-1.2c1.2-0.2,2.3-0.6,3.5-0.6c8.6-0.5,17.1-0.9,25.7-1.5c15.1-0.9,29.7-4.7,44.4-8.1
		c1.2-0.3,2.3-0.5,3.5-0.8c0.5-0.1,1,0,2,0c0.7,6.5,0.2,13,0.3,19.4c0.1,6.5,0,13,0,19.5c0,6.5,0,13,0,19.5c0,6.5,0,13,0,19.5
		s0,13,0,19.5c0,6.5,0,13,0,19.5c0,6.4,0,12.8,0,19.2c0.4,0.1,0.8,0.2,1.1,0.3c1.5-2.2,3-4.4,4.6-6.6c6.8-9.7,14-19.1,23.4-26.5
		c20.4-15.9,43.1-19.5,67.3-10.8c19.4,7,29.5,21.9,29.6,42.4c0.1,20.9,0,41.8,0,62.7c0,18.5,0,37,0.1,55.5c0,2.1,0.1,4.1,0.4,6.2
		c0.8,7.3,3.2,10.4,10.5,12.1c6,1.4,12.1,2,18.2,3c1.3,0.2,2.5,0.5,3.7,0.7c0,0.6,0,0.8,0,0.9c0,0.1-0.2,0.3-0.3,0.3
		c-38,0.1-76.1,0.2-114.1,0.2C702.2,540.2,701.8,539.8,700.6,539.2z"/>
	<path fill="#FFFFFF" d="M455.8,281.3c1.4,3.1-0.4,5-1.6,7c-9.5,16-19.2,32-28.7,48.1c-13.8,23.3-27,46.9-37.3,72
		c-11.4,27.6-19.4,56.3-26.1,85.4c-3.5,15.2-6.6,30.4-9.9,45.6c-3.6,1-55.2,1.2-61.3,0.2c0.9-4.3,1.8-8.6,2.8-12.9
		c10.8-48.2,33.1-90.5,65.6-127.4c14.3-16.2,28.9-32.1,43.2-48.2c6-6.8,11.8-13.7,18.1-21c-1.1-0.4-1.7-0.8-2.2-0.8
		c-19.5-0.7-39-1.8-58.5-2c-16.8-0.2-33.5,1.4-49.8,6c-2,0.6-3.9,1.2-5.9,1.9c-10.9,4-20.4,9.8-25.5,21.2c3.5-24.9,7.1-49.9,10.6-75
		C345,281.3,400.3,281.3,455.8,281.3z"/>
	<path fill="#FFFFFF" d="M481.6,357c-3.6,0-6.5,0-9.4,0c-2.6,0-5.3-0.1-8.3-0.1c0.9-2.7,2.7-2.9,4.2-3.6
		c11.9-5.8,23.2-12.5,33.5-20.9c10-8.2,18.5-17.8,25.6-28.6c1-1.5,2.1-2.9,3.7-5.2c1.4,5.7,0.7,10.3,0.8,14.8c0.1,4.6,0,9.3,0,13.9
		c0,4.5,0,8.9,0,13.4c0,4.6,0,9.2,0,14.4c8.4,0,16.4,0,24.4,0c0.1,1.4,0.1,2.2,0.2,3.7c-8.1,0-16.1,0-24.3,0
		c-0.2,2.1-0.4,3.6-0.4,5.1c0,46.3,0,92.5,0,138.8c0,3.6,0.4,7.2,1.1,10.7c2.7,12.9,12.1,21.2,25.3,22.6c1.6,0.2,3.3,0.3,5.9,0.6
		c-1.3,1.2-1.9,2.1-2.6,2.4c-21.5,8.1-42.4,7.2-61.8-5.7c-12.2-8.1-17.3-20.4-18-34.7c-0.1-1.9-0.1-3.8-0.1-5.7c0-43,0-86,0-129
		C481.6,361.8,481.6,359.8,481.6,357z"/>
	<path fill="#FFFFFF" d="M660.4,748.6c-21.7,0-43.5,0-65.2,0c-0.1-0.2-0.1-0.4-0.2-0.6c0.9-0.3,1.9-0.8,2.8-1
		c2.7-0.5,5.4-0.7,8.1-1.2c5.2-1.1,6.9-3.2,7.3-8.4c0.1-1,0.1-2.1,0.1-3.1c0-20.2,0.1-40.5-0.1-60.7c0-3.7-0.7-7.5-2-11
		c-2-5.7-6.7-8.5-12.5-9.3c-6-0.9-11.8-0.1-16.6,3.6c-4.2,3.2-7.9,7-11.6,10.8c-1,1.1-1.5,3.1-1.5,4.7c-0.1,21.4-0.1,42.9,0,64.3
		c0,6.1,1.9,8.1,8.1,9.3c3.3,0.6,6.7,1.1,10.7,1.7c-4.2,1.3-60.3,1.5-66.1-0.2c2.1-0.3,4.2-0.5,6.3-0.8c10.4-1.4,11.8-3.1,11.8-13.5
		c0-23.5,0-47,0-70.4c0-10.1-1.4-11.6-11.4-13.5c-1.6-0.3-3.2-0.7-4.7-1.6c15.2-0.8,30.2-2.7,45.4-7.2c0,8.9,0,17,0,25.2
		c0.3,0.1,0.6,0.2,0.8,0.3c0.9-1.1,1.8-2.3,2.7-3.4c4-4.7,7.6-9.8,12.1-13.9c12.4-11.2,30.5-13.3,44.5-5.7
		c7.8,4.2,12.3,10.7,13.1,19.6c0.2,2.2,0.3,4.4,0.3,6.7c0,20.2,0,40.5,0,60.7c0,2.7,0,5.5,0.3,8.2c0.4,4.5,2,6.5,6.3,7.5
		c3,0.7,6.1,0.9,9.1,1.4c0.8,0.1,1.5,0.4,2.3,0.7C660.4,748,660.4,748.3,660.4,748.6z"/>
	<path fill="#FFFFFF" d="M793.7,748.5c-14.8,0-29.6,0-45.1,0c-0.2-8.5,0-16.7-0.2-26.2c-1.5,1.8-2.2,2.6-2.8,3.4
		c-3.8,4.6-7.2,9.7-11.6,13.7c-12.2,11.4-26.5,14.5-42.3,8.5c-11.1-4.2-16.8-12.6-16.9-24.5c-0.1-20.4,0-40.8,0-61.2
		c0-9.4-1.5-11.2-10.8-13c-1.8-0.3-3.6-0.7-5.4-1.6c15.1-0.9,30-2.7,45.2-7.1c0,2.5,0,4.4,0,6.2c0,22.1,0,44.2,0,66.3
		c0,2.6,0.1,5.2,0.5,7.7c1.7,11.1,10.3,17.2,21.4,15.4c5.4-0.9,10-3.5,14.1-7c1.4-1.2,2.7-2.7,4.1-3.9c3.5-3.2,4.9-6.9,4.8-11.8
		c-0.3-16.6-0.1-33.2-0.1-49.9c0-11.1-1.2-12.4-12.2-14.4c-1.3-0.2-2.6-0.6-5-1.2c3.4-1.4,5.8-0.8,8.1-1.1c2.6-0.3,5.1-0.4,7.7-0.6
		c2.6-0.2,5.1-0.4,7.7-0.7c2.4-0.3,4.7-0.8,7.1-1.3c2.5-0.5,5-1,7.5-1.6c2.5-0.6,4.9-1.2,8.2-2c0,2.3,0,4.1,0,5.9
		c0,28.8,0,57.6,0,86.4c0,10.3,1.1,11.6,11.2,13.6c1.6,0.3,3.3,0.6,4.9,0.9C793.7,747.8,793.7,748.2,793.7,748.5z"/>
	<path fill="#FFFFFF" d="M322.6,748.5c-26,0-52,0-78,0c0-0.2-0.1-0.4-0.1-0.5c2.6-0.3,5.3-0.5,7.9-1c3-0.6,6.1-1.1,8.9-2.2
		c6.1-2.4,8.8-6.7,8.6-13.2c-0.1-2.2-0.2-4.5-1-6.6c-4.2-11.8-8.5-23.5-12.8-35.3c-14.4,0-28.3,0-42.5,0c-0.6,1.3-1.2,2.5-1.7,3.7
		c-3.8,10.1-7.7,20.2-11.4,30.3c-3.9,10.5-1.1,16.7,9.4,20.5c3.7,1.3,7.6,1.9,11.4,2.8c1.2,0.3,2.5,0.6,3.5,1.6c-16.7,0-33.3,0-50,0
		c-0.1-0.2-0.2-0.4-0.2-0.6c0.6-0.3,1.2-0.9,1.9-1c9.4-2,15.5-7.7,18.9-16.5c4.2-10.7,8.3-21.4,12.3-32.1c12-31.9,24-63.8,36.1-95.7
		c0.6-1.6,1.3-3.2,2-4.9c1.8,0,3.4,0,5.3,0c0.6,1.4,1.3,2.8,1.8,4.2c13.8,35.6,27.6,71.2,41.5,106.8c3.6,9.3,7.9,18.2,13.8,26.3
		C312.2,740.4,316.4,745.2,322.6,748.5z M255.1,687.1c-6.8-18.2-13.2-35.6-20.2-54.4c-7.1,18.7-14,36.3-20.5,54.4
		C228.2,687.1,241.2,687.1,255.1,687.1z"/>
	<path fill="#FFFFFF" d="M436.9,683.7c1.5,22.3,18.1,38.3,39.5,38.5c4.8,0.1,9.6-0.3,14.3-1c12.1-1.8,20.7-8.5,26.4-19.2
		c1.3-2.5,2.6-5.1,4.1-7.5c-2.9,14.7-6.6,29.1-16.5,40.9c-11.1,13.2-25.9,16.7-42.2,15c-25.2-2.6-40.8-21-45.7-43.7
		c-3.1-14.1-2.3-28,3.9-41.2c7.9-16.8,21.4-25.9,40-26.9c7.6-0.4,15.1,0.1,22.4,2.1c13,3.6,21.9,11.6,26.7,24.2
		c2.2,5.8,3.7,11.7,3.9,18.6c-6.5,0.3-12.7,0.1-19,0.1c-6.5,0-13,0-19.5,0c-6.3,0-12.7,0-19,0C449.9,683.7,443.6,683.7,436.9,683.7z
		 M436.3,681c11,0,21.2,0.2,31.4-0.1c3.1-0.1,6.4-1.4,9.2-2.8c7.4-3.6,11.5-9.8,11.1-18.1c-0.4-8.7-5.1-15-13.3-17.7
		c-10.7-3.6-20.8-1.8-28.8,6.6C437.7,657.8,435.5,668.8,436.3,681z"/>
	<path fill="#FFFFFF" d="M898,683.7c-25.9,0-51.2,0-77.2,0c0.3,2.2,0.5,3.8,0.9,5.4c1.9,8.5,5.7,16.1,11.9,22.4
		c5.9,5.9,13.1,9.5,21.3,10.4c7.7,0.9,15.4,0.7,23-1.2c11.3-2.7,19-9.8,24.1-20c0.9-1.8,1.8-3.6,3.2-6.4c0,1.8,0.1,2.5,0,3.1
		c-2.2,9.4-4.8,18.5-9.2,27.2c-10,19.9-27.2,28.1-49.3,25.7c-22.5-2.5-36.6-15.9-43.8-36.8c-5.8-17.1-5.3-34.2,3.2-50.4
		c8-15.4,21-23.5,38.3-24.6c7.9-0.5,15.8,0,23.4,2.2c12.6,3.6,21.3,11.4,26,23.6C896.2,670.4,897.7,676.5,898,683.7z M821,681.3
		c11,0,22.1,0.8,33.1-0.6c2.6-0.4,5.3-1.5,7.7-2.8c7.1-3.8,10.9-9.8,10.5-18c-0.4-8.1-4.7-13.8-12-17.1c-5.7-2.6-11.6-2.6-17.6-1.2
		C825.9,645.3,818.1,666.7,821,681.3z"/>
	<path fill="#FFFFFF" d="M375.6,641c12,0,24,0,35.9,0c0.1,0.2,0.1,0.4,0.2,0.6c-1.2,0.4-2.3,1-3.6,1.3c-6.6,1.9-11.6,5.8-14.8,11.9
		c-1.7,3.3-3.3,6.8-4.7,10.3c-10.3,26.1-20.6,52.3-30.9,78.4c-0.6,1.6-1.3,3.1-2.1,5.1c-1.6,0.1-3.3,0.1-5.2,0.2
		c-1-2.2-1.9-4.2-2.8-6.2c-10-23.3-19.9-46.6-30.1-69.8c-2.8-6.2-6.4-12.1-10.2-17.8c-3.6-5.6-7.9-10.7-14.2-13.9
		c23.8,0,47.7,0,71.5,0c0,0.1,0,0.2,0,0.4c-3.2,0.5-6.4,0.7-9.5,1.5c-8.7,2-12,7.1-10.4,15.8c0.5,2.8,1.4,5.7,2.5,8.3
		c6,14.6,12.1,29.1,18.2,43.6c0.3,0.7,0.8,1.4,1.5,2.8c0.9-2.1,1.7-3.6,2.3-5.1c5.7-14.3,11.3-28.7,17-43c0.8-2.1,1.5-4.2,1.9-6.4
		c1.6-7.8-1.6-13.5-9-16.2c-1.2-0.4-2.5-0.8-3.7-1.3C375.6,641.4,375.6,641.2,375.6,641z"/>
	<path d="M255.1,687.1c-13.9,0-26.9,0-40.7,0c6.6-18.1,13.4-35.6,20.5-54.4C241.8,651.4,248.3,668.9,255.1,687.1z"/>
	<path d="M436.3,681c-0.8-12.2,1.3-23.2,9.7-32.1c8-8.4,18-10.2,28.8-6.6c8.2,2.7,12.9,9,13.3,17.7c0.4,8.3-3.7,14.5-11.1,18.1
		c-2.9,1.4-6.1,2.7-9.2,2.8C457.6,681.2,447.3,681,436.3,681z"/>
	<path d="M821,681.3c-2.9-14.6,4.8-36,21.7-39.7c6-1.3,11.9-1.3,17.6,1.2c7.3,3.3,11.6,9,12,17.1c0.4,8.1-3.4,14.1-10.5,18
		c-2.4,1.3-5,2.4-7.7,2.8C843.1,682.1,832,681.3,821,681.3z"/>
</g>
</svg>
