<?xml version="1.0" encoding="UTF-8"?>
<svg id="Layer_1" xmlns="http://www.w3.org/2000/svg" baseProfile="tiny-ps" version="1.2" viewBox="0 0 96 96">
<title>Jelly</title>
  <!-- Generator: Adobe Illustrator 29.0.1, SVG Export Plug-In . SVG Version: 2.1.0 Build 192)  -->
  <path d="M88.06,38.66h-4.33c-.92,0-1.7.51-2.32,1.51l-.7,1.1-.66-1.05c-.29-.47-.58-.81-.92-1.06-.43-.32-.91-.48-1.44-.48h-4.33c-.68,0-1.32.28-1.79.79-.49.52-.76,1.21-.76,1.95,0,.67.19,1.3.58,1.89l4.58,6.86v4.29c0,.76.26,1.46.74,1.99.48.53,1.12.82,1.81.82h4.33c.69,0,1.33-.29,1.81-.82.48-.53.74-1.24.74-1.99v-4.35l4.58-6.83c.39-.61.59-1.23.59-1.85,0-1.6-1.06-2.77-2.51-2.77h0Z" fill="#1d76bb"/>
  <g>
    <path d="M74.21,52.59c-.45-.5-1.06-.77-1.7-.77h-5.07v-10.33c0-.76-.26-1.46-.74-1.99-.48-.53-1.12-.82-1.81-.82h-4.33c-.69,0-1.33.29-1.81.82s-.74,1.24-.74,1.99v12.82c0,.76.26,1.46.74,1.99.48.53,1.12.82,1.81.82h11.95c.65,0,1.25-.27,1.7-.77s.7-1.17.7-1.88-.26-1.38-.7-1.88Z" fill="#b0206c"/>
    <line x1="72.5" y1="51.82" x2="68.18" y2="51.82" fill="none"/>
  </g>
  <path d="M56.67,52.59c-.45-.5-1.06-.77-1.7-.77h-5.07v-10.33c0-.76-.26-1.46-.74-1.99-.48-.53-1.12-.82-1.81-.82h-4.33c-.69,0-1.33.29-1.81.82s-.74,1.24-.74,1.99v12.82c0,.76.26,1.46.74,1.99.48.53,1.12.82,1.81.82h11.95c.65,0,1.25-.27,1.7-.77s.7-1.17.7-1.88-.25-1.38-.7-1.88Z" fill="#f15b2a"/>
  <path d="M37.49,51.89h-5.74v-1.37h4.69c.63,0,1.23-.27,1.68-.75.45-.49.71-1.15.71-1.85,0-1.45-1.07-2.63-2.38-2.63h-4.69v-1.25h5.64c.63,0,1.23-.27,1.68-.75.45-.49.7-1.15.7-1.85,0-1.45-1.07-2.63-2.38-2.63h-12.5c-.69,0-1.33.29-1.81.82s-.74,1.24-.74,1.99v12.68c0,.76.26,1.46.74,1.99.48.53,1.12.82,1.81.82h12.6c.63,0,1.23-.27,1.68-.75.45-.49.7-1.15.7-1.85,0-1.45-1.07-2.63-2.39-2.62h0Z" fill="#ae1f27"/>
  <path d="M20.6,39.63c-.48-.53-1.12-.82-1.81-.82h-10.47c-1.31,0-2.38,1.18-2.38,2.63,0,.7.25,1.36.7,1.85.45.48,1.04.75,1.68.75h3.59v6.27c0,.17,0,.34-.02.49h-4c-.67,0-1.29.29-1.75.81s-.71,1.2-.71,1.93c0,.83.38,1.69.98,2.18.58.49,1.22.88,1.91,1.15.79.31,1.65.47,2.54.47h4.33c1.86,0,3.41-.63,4.49-1.81.55-.6.96-1.34,1.24-2.19s.42-1.82.42-2.88v-8.85c0-.76-.26-1.46-.74-1.98h0Z" fill="#098843"/>
  <path d="M33.06,38.81c1.31,0,2.38,1.18,2.38,2.63,0,.7-.25,1.36-.7,1.85-.45.48-1.04.75-1.68.75h-5.64v1.25h4.69c1.31,0,2.38,1.18,2.38,2.63,0,.7-.25,1.36-.7,1.85-.45.48-1.04.75-1.68.75h-4.69v1.37h5.74c1.31,0,2.38,1.18,2.38,2.63,0,.7-.25,1.36-.71,1.85-.45.48-1.04.75-1.68.75h-8.27c-.69,0-1.33-.29-1.81-.82s-.74-1.24-.74-1.99v-12.68c0-.76.26-1.46.74-1.99.48-.53,1.12-.82,1.81-.82h8.18Z" fill="#ec2227"/>
  <path d="M18.81,38.81c.69,0,1.33.29,1.81.82s.74,1.24.74,1.99v8.85c0,1.06-.14,2.03-.42,2.88-.28.85-.7,1.59-1.24,2.19-1.07,1.18-2.62,1.81-4.49,1.81-.89,0-1.75-.16-2.54-.47-.69-.27-1.33-.66-1.91-1.15-.59-.49-.98-1.35-.98-2.18,0-.73.25-1.42.71-1.93.46-.52,1.09-.81,1.75-.81.58,0,1.02.17,1.52.57.55.45.93.61,1.41.61.55,0,.73-.22.78-.29.2-.25.31-.73.31-1.38v-6.27h-3.59c-.63,0-1.23-.27-1.68-.75-.45-.49-.71-1.15-.71-1.85,0-1.45,1.07-2.63,2.38-2.63h6.15Z" fill="#3db54a"/>
  <path d="M47.35,38.67c.69,0,1.33.29,1.81.82s.74,1.24.74,1.99v10.33h5.07c.65,0,1.25.27,1.7.77s.7,1.17.7,1.88-.25,1.38-.7,1.88-1.06.77-1.7.77h-7.62c-.69,0-1.33-.29-1.81-.82s-.74-1.24-.74-1.99v-12.82c0-.76.26-1.46.74-1.99.49-.53,1.13-.82,1.81-.82Z" fill="#f89521"/>
  <path d="M60.56,38.8c.69,0,1.33.29,1.81.82s.74,1.24.74,1.99v10.33h5.07c.65,0,1.25.27,1.7.77s.7,1.17.7,1.88-.25,1.38-.7,1.88-1.06.77-1.7.77h-7.62c-.69,0-1.33-.29-1.81-.82s-.74-1.24-.74-1.99v-12.82c0-.76.26-1.46.74-1.99.48-.53,1.12-.82,1.81-.82Z" fill="#eb0d8c"/>
  <path d="M88.06,38.65c1.45,0,2.51,1.16,2.51,2.77,0,.62-.2,1.24-.59,1.85l-4.58,6.83v4.35c0,.76-.26,1.46-.74,1.99-.48.53-1.12.82-1.81.82s-1.33-.29-1.81-.82c-.48-.53-.74-1.24-.74-1.99v-4.29l-4.58-6.86c-.39-.58-.58-1.21-.58-1.89,0-.74.27-1.44.76-1.95.48-.51,1.12-.79,1.79-.79.53,0,1.02.16,1.44.48.34.25.63.59.92,1.06l2.82,4.48,2.87-4.53c.62-1,1.4-1.51,2.32-1.51h0Z" fill="#53ace0"/>
</svg>