<?xml version="1.0" encoding="UTF-8"?>
<svg id="Layer_1" xmlns="http://www.w3.org/2000/svg" width="1000" height="1000" baseProfile="tiny-ps" version="1.2" viewBox="0 0 1000 1000">
<title>Elanco Animal Health</title>
  <path d="M603.3,506.2c-11.5,0-16.4,34.6-16.4,40.4s1.8,7.5,6.2,7.5c11.6,0,16.4-34.8,16.4-40.4s-2.1-7.5-6.3-7.5Z" fill="#2a71b9" stroke-width="0"/>
  <path d="M180.6,453.8l36.6,204.3,600.8-106.3v-209.9l-637.4,111.9ZM287.1,571.6h-67.1l23.7-111.8h65l-7.1,23.6h-34.2l-4,18.8h27.9l-4.8,22.8h-27.9l-4.8,22.8h38.3l-5.1,23.9ZM316.8,573.7c-23.6,0-21.5-12.2-18-28.7l12-56.5c4.2-19.2,4.5-25.3,4.3-30l29-4.8c.3,4-.6,12.5-2.4,20.7l-13.1,61.4c-3,14.6-3.4,18.5,2.9,18.5s1.9-.2,3-.5l.8,17.3c-4,1.4-10.9,2.6-18.6,2.6ZM388.7,574.8c-3.4-1.8-5.8-6.7-6.2-9.8-3.7,3.9-11.9,9.2-21.5,9.2-16.8,0-23.9-10.6-23.9-28.2s7.1-35.9,17.8-46.7,19.6-12.5,34.2-12.5,25.5,1.9,31.6,5c-2.4,5.8-4.8,15.7-6.2,22.6l-6.2,29.8c-.6,2.7-.5,8.5,3.2,12.5l-22.6,18.1ZM456.6,571.6l11.2-52.9c1.4-6.4.6-9.3-4-9.3s-8,2.2-11.5,7.7l-11.7,54.5h-27.9l11.1-52.1c2.6-12.5,3.5-19.9,2.2-28.1l24.7-4.6c.6,2.7,1.3,5.6,1.4,9,6.4-5.6,16-9,25.2-9,20.7,0,22.8,11.7,20.2,23.7l-13,61.1h-27.9ZM525.3,573.7c-23.1,0-34.3-14.8-28.4-42.7,5.9-28.1,22.9-44.3,47.3-44.3s18.3,3,25,9.8l-16.4,16.8c-2.4-3.4-6.6-6.1-10.4-6.1-6.4,0-11.2,5.1-14.8,22-3.5,16.8-3.2,23.7,4.8,23.7s12-3,16.7-7.4l8.3,16.4c-10.7,8.8-22.1,11.7-32.2,11.7ZM588.4,573.7c-19.6,0-30.6-10.8-30.6-29.8s11.6-57.1,50.7-57.1,30.6,8.5,30.6,29.3-12,57.6-50.7,57.6Z" fill="#2a71b9" stroke-width="0"/>
  <path d="M374.6,512c-5.9,6.9-9.5,23.1-9.5,33.4s1.6,8,5.5,8,9.1-5.8,9.8-8.5l7.7-36.3c-1-.8-2.4-1.1-3.4-1.1-2.1,0-6.1-.2-10.1,4.5Z" fill="#2a71b9" stroke-width="0"/>
</svg>