<?xml version="1.0" encoding="utf-8"?>
<svg version="1.2" baseProfile="tiny-ps" id="TuringCollege"
	 xmlns="http://www.w3.org/2000/svg" xmlns:xlink="http://www.w3.org/1999/xlink" viewBox="0 0 80 80"
	 xml:space="preserve">
	 <title>Turing College </title>
<rect x="-0.0003" y="-0.0003" fill="#202128" width="80.0005" height="80.0005"/>
<g>
	<path fill-rule="evenodd" fill="#FFFFFF" d="M4.8367,39.7487l3.7639,3.7639l-1.3391,1.3391l3.7684,3.7684l8.4592-8.4592
		l-3.7639-3.7639l1.2487-1.2487l-3.7684-3.7684L4.8367,39.7487z M12.9048,39.3382h2.362h0.0085v-1.5945h-0.9039l-1.5178,1.5178
		c-0.0256,0.0256-0.0682,0.0085-0.0682-0.0256v-1.4837H8.7095v1.586h3.9736c0.0341,0,0.0512,0.0426,0.0256,0.0682l-1.5178,1.5178
		v3.3852h1.586v-4.8518C12.7769,39.3894,12.8365,39.3382,12.9048,39.3382z"/>
	<path fill="#FFFFFF" d="M32.2404,39.1648v-0.8442h-1.1768v4.8689h1.1768v-3.8286h1.7395v-1.0403h-0.8954L32.2404,39.1648z"/>
	<path fill="#FFFFFF" d="M26.8927,36.6748h-5.3804v1.0403h2.0976v5.4572h1.2022v-5.4572h2.0806V36.6748z"/>
	<path fill="#FFFFFF" d="M29.0675,41.0407c0,0.8442-0.5116,1.2279-1.0231,1.2279c-0.614,0-0.8698-0.2985-0.8698-1.0318v-2.9162
		h-1.1768v3.1464c0,1.1767,0.5459,1.7736,1.6373,1.7736c0.7077,0,1.1768-0.2814,1.441-0.8527v0.793h1.1682v-4.8603h-1.1768V41.0407z
		"/>
	<path fill="#FFFFFF" d="M35.7198,36.6915H34.543v1.0147h1.1768V36.6915z"/>
	<path fill="#FFFFFF" d="M35.7198,38.3206H34.543v4.8603h1.1768V38.3206z"/>
	<path fill="#FFFFFF" d="M39.0621,38.2095c-0.7077,0-1.1768,0.2814-1.441,0.8527v-0.7418h-1.1768v4.8603h1.1768v-2.7712
		c0-0.776,0.3752-1.2279,1.0231-1.2279c0.614,0,0.8698,0.2984,0.8698,1.0317v2.9589h1.1768v-3.1379
		C40.6992,38.8149,40.1621,38.2095,39.0621,38.2095z"/>
	<path fill="#FFFFFF" d="M44.6322,38.3203v0.5031c-0.2644-0.4178-0.6823-0.6139-1.2706-0.6139
		c-1.2022,0-2.0464,0.9891-2.0464,2.4131c0,1.4325,0.8442,2.4302,2.0464,2.4302c0.5798,0,0.9892-0.1961,1.2536-0.5884v0.486
		c-0.0171,0.8953-0.5713,1.0829-1.0318,1.0829c-0.5884,0-0.9124-0.2217-1.0061-0.6992l-0.0085-0.0426l-1.1853,0.1791l0.0085,0.0426
		c0.1364,0.938,0.9209,1.5007,2.0976,1.5007c1.5007,0,2.3277-0.7845,2.3277-2.1999l0.0171-4.4937H44.6322L44.6322,38.3203z
		 M44.8112,40.6311c0,0.0938,0,0.1705-0.0085,0.2473l-0.0939,0.4775c-0.162,0.486-0.5116,0.7248-1.0743,0.7248
		c-0.7248,0-1.1341-0.5287-1.1341-1.4496c0-0.9294,0.4008-1.4411,1.1341-1.4411C44.4446,39.1986,44.8112,39.6591,44.8112,40.6311z"
		/>
	<path fill="#FFFFFF" d="M53.7854,40.8786c0-1.4922,0.8099-2.379,2.1743-2.379s2.1744,0.8783,2.1744,2.379
		c0,1.4922-0.8101,2.379-2.1744,2.379C54.5954,43.2491,53.7854,42.3709,53.7854,40.8786z M57.5629,40.8786
		c0-1.1938-0.5969-1.91-1.6031-1.91c-1.0148,0-1.603,0.7163-1.603,1.91c0,1.1938,0.5968,1.9015,1.603,1.9015
		C56.966,42.7801,57.5629,42.0724,57.5629,40.8786z"/>
	<path fill="#FFFFFF" d="M58.8104,36.6742h0.5544v6.489h-0.5544V36.6742z"/>
	<path fill="#FFFFFF" d="M60.2242,36.6742h0.5542v6.4805h-0.5542V36.6742z"/>
	<path fill="#FFFFFF" d="M65.5711,40.9888h-3.5559c0.0256,1.1341,0.5884,1.7992,1.5009,1.7992c0.8185,0,1.3727-0.4519,1.4922-1.2279
		h0.5542c-0.128,1.0573-0.904,1.6883-2.055,1.6883c-1.2962,0-2.0635-0.8783-2.0635-2.3705c0-1.5007,0.7587-2.3875,2.0635-2.3875
		c1.2875,0,2.055,0.8783,2.055,2.3875v0.1109H65.5711z M62.0238,40.6136h2.976c-0.0768-1.0488-0.6225-1.6628-1.4837-1.6628
		C62.6463,38.9508,62.1006,39.5648,62.0238,40.6136z"/>
	<path fill="#FFFFFF" d="M75.1633,40.9888h-3.5557c0.0256,1.1341,0.5884,1.7992,1.5007,1.7992c0.8185,0,1.3729-0.4519,1.4922-1.2279
		h0.5542c-0.1279,1.0573-0.9038,1.6883-2.055,1.6883c-1.2961,0-2.0635-0.8783-2.0635-2.3705c0-1.5007,0.7589-2.3875,2.0635-2.3875
		c1.2875,0,2.055,0.8783,2.055,2.3875v0.1109H75.1633z M71.6161,40.6136h2.9759c-0.0768-1.0488-0.6225-1.6628-1.4837-1.6628
		C72.2385,38.9508,71.6927,39.5648,71.6161,40.6136z"/>
	<path fill="#FFFFFF" d="M50.5994,43.2488c-1.7991,0-2.8565-1.2108-2.8565-3.4278c0-2.217,1.2024-3.4022,2.8565-3.4278
		c1.4325-0.0256,2.4131,0.9209,2.6775,2.4557h-0.5713c-0.2559-1.2193-1.0233-1.9441-2.1147-1.9356
		c-1.3217,0.0171-2.2682,1.0147-2.2682,2.9077s0.8442,2.9077,2.2682,2.9077c1.0573,0,1.8332-0.7077,2.1062-1.9015h0.5713
		C52.9869,42.3364,51.9979,43.2488,50.5994,43.2488z"/>
	<path fill="#FFFFFF" d="M70.3733,38.5934v4.3658c0,1.2108-0.8099,2.0635-2.1487,2.0635c-1.1341,0-1.8588-0.5372-1.9954-1.4922
		c0-0.0256-0.0085-0.0597-0.0085-0.0853l0.5288-0.0767c0,0.0171,0.0085,0.0426,0.0085,0.0597
		c0.0937,0.7163,0.6309,1.1255,1.4751,1.1255c0.9806,0,1.603-0.6736,1.5944-1.5349v-1.3302h-0.0171
		c0,0.9721-0.6394,1.5604-1.7054,1.5604c-1.2534,0-1.9952-0.8783-1.9952-2.379c0-1.4837,0.7418-2.3705,1.9952-2.3705
		c1.066,0,1.7054,0.5884,1.7054,1.5604h0.0171v-1.4666H70.3733z M69.8703,40.8701c0-1.1767-0.5969-1.9015-1.603-1.9015
		c-1.0148,0-1.6031,0.7163-1.6031,1.9015c0,1.1938,0.5969,1.9015,1.6031,1.9015C69.2733,42.7716,69.8703,42.0554,69.8703,40.8701z"
		/>
</g>
</svg>
