<svg xmlns="http://www.w3.org/2000/svg" xmlns:xlink="http://www.w3.org/1999/xlink" version="1.2" viewBox="0 0 720 720" baseProfile="tiny-ps">
  <title>Heller</title>
  <polygon points="76.92,271.41 76.92,446.75 115.48,446.75 115.48,371.12 186.45,371.12 186.45,446.75   225.01,446.75 225.01,271.41 186.45,271.41 186.45,338.7 115.48,338.7 115.48,271.41 76.92,271.41 " fill="#F9423A"/>
  <path d="M356.14,385.11c0-6.14-0.74-14-2.95-22.35c-6.88-26.03-26.52-46.41-58.94-46.41  c-38.31,0-64.83,28.73-64.83,67.04s24.56,66.8,64.83,66.8c30.45,0,49.85-14,59.43-42.73h-30.7c-2.7,8.84-14.49,16.45-27.75,16.45  c-19.15,0-29.96-10.31-30.94-32.17h91.6L356.14,385.11L356.14,385.11z M264.29,369.64c1.47-16.7,12.28-27.01,28.73-27.01  s24.56,7.86,28,27.01H264.29z" fill="#F9423A"/>
  <polygon points="360.31,271.41 360.31,446.75 395.19,446.75 395.19,271.41 360.31,271.41 " fill="#F9423A"/>
  <polygon points="403.04,271.41 403.04,446.75 437.91,446.75 437.91,271.41 403.04,271.41 " fill="#F9423A"/>
  <path d="M569.05,385.11c0-6.14-0.74-14-2.95-22.35c-6.88-26.03-26.52-46.41-58.94-46.41  c-38.31,0-64.83,28.73-64.83,67.04s24.56,66.8,64.83,66.8c30.45,0,49.85-14,59.43-42.73h-30.7c-2.7,8.84-14.49,16.45-27.75,16.45  c-19.15,0-29.96-10.31-30.94-32.17h91.6L569.05,385.11L569.05,385.11z M477.2,369.64c1.47-16.7,12.28-27.01,28.73-27.01  s24.56,7.86,28,27.01H477.2z" fill="#F9423A"/>
  <path d="M647.39,316.35c-17.44,0-33.89,11.05-40.52,27.01h-0.49v-23.58h-33.15v126.96h34.87v-57.22  c0-22.84,9.09-40.77,34.38-40.77c4.91,0,9.09,0.49,12.52,1.23v-32.42c-1.72-0.49-4.17-1.23-7.61-1.23l0,0V316.35z" fill="#F9423A"/>
</svg>