<?xml version="1.0" encoding="UTF-8" standalone="yes"?>
<svg version="1.2" baseProfile="tiny-ps" viewBox="0 0 24 24" xml:space="preserve" xmlns="http://www.w3.org/2000/svg">
  <title>FIGS Inc</title>
  <rect fill-rule="evenodd" fill="#FFFFFF" width="24" height="24"/>
  <path fill-rule="evenodd" fill="#282828" d="M12.8,13.3l0,2.8l-2.3,0l0-2.7c-2.7-0.1-2.7-2.4-2.7-2.4l2.7,0l0-2.7l2.4,0l0,2.7&#xA;&#x9;c2.5,0.2,2.7,2.4,2.7,2.4L12.8,13.3z M14.5,2.5C13.7,2.2,12.8,2,11.7,2c-1,0-2.1,0.1-3,0.5C6.5,3.4,5,5.4,5,8.5v7.1&#xA;&#x9;c0,3.2,1.4,5.2,3.7,6c0.8,0.3,1.7,0.5,2.8,0.5c1,0,2.2-0.2,3-0.5c2.3-0.9,3.8-2.9,3.8-6V8.6C18.2,5.4,16.8,3.4,14.5,2.5z"/>
</svg>