<?xml version="1.0" encoding="UTF-8"?>
<!-- Generator: Adobe Illustrator 26.2.1, SVG Export Plug-In . SVG Version: 6.00 Build 0)  -->
<svg version="1.2" baseProfile="tiny-ps" viewBox="0 0 56.7 56.7" xml:space="preserve" xmlns="http://www.w3.org/2000/svg">
<title>NALYSYS</title>


	<path d="m28.4 39.4c-6.1 0-11.1-5-11.1-11.1s5-11.1 11.1-11.1 11.1 5 11.1 11.1c0 2.5-0.8 4.8-2.3 6.7l3.6 3.6c2.3-2.8 3.7-6.4 3.7-10.3 0-8.9-7.2-16.2-16.2-16.2-8.9 0-16.2 7.2-16.2 16.2s7.2 16.2 16.2 16.2c3.9 0 7.5-1.4 10.3-3.7l-3.6-3.6c-1.8 1.4-4.1 2.2-6.6 2.2z" fill="#036EB8"/>
	<path d="m28.4 20.3c-4.4 0-8 3.6-8 8s3.6 8 8 8 8-3.6 8-8-3.6-8-8-8zm0 10.4c-1.3 0-2.4-1.1-2.4-2.4s1.1-2.4 2.4-2.4 2.4 1.1 2.4 2.4-1.1 2.4-2.4 2.4z" fill="#036eb8"/>





</svg>
