<?xml version="1.0" encoding="utf-8"?>
<!-- Generator: Adobe Illustrator 25.4.1, SVG Export Plug-In . SVG Version: 6.00 Build 0)  -->
<svg version="1.2" baseProfile="tiny-ps" id="Layer_1" xmlns="http://www.w3.org/2000/svg" xmlns:xlink="http://www.w3.org/1999/xlink"
	  viewBox="0 0 500 500" xml:space="preserve">
<title>St. Jude Children's Research Hospital</title>
<g>
	<rect x="-12" y="-14" fill="#FFFFFF" width="524" height="524"/>
	<g>
		<path fill="#C40D3C" d="M372.26,291.74c-3.44,0-6.03-2.65-6.03-6.18c0-3.53,2.59-6.18,6.03-6.18c3.48,0,6.1,2.65,6.1,6.18
			C378.36,289.08,375.74,291.74,372.26,291.74 M372.26,278.08c-4.21,0-7.5,3.28-7.5,7.48c0,4.2,3.29,7.48,7.5,7.48
			c4.23,0,7.54-3.28,7.54-7.48C379.8,281.36,376.49,278.08,372.26,278.08"/>
		<path fill="#C40D3C" d="M372.41,285.16h-1.4v-2.13h1.47c0.66,0,1.1,0.43,1.1,1.08C373.58,284.63,373.22,285.16,372.41,285.16
			 M373.72,285.86c0.78-0.42,1.22-1.09,1.22-1.82c0-1.22-0.86-2-2.19-2h-3.15v6.97h1.4v-2.86h1.3l1.66,2.86h1.52l-1.85-3.11
			L373.72,285.86z"/>
	</g>
	<path fill="#C40D3C" d="M256.24,252.79c-0.22,0.61-0.84,0.66-0.84,0.66c-10.72,0.35-19.9,4.66-27.28,12.84c0,0-0.83,0.8-2.91-0.84
		c-1.6-1.25-1.01-2.56-1.01-2.56c2.84-7.15,10.16-11.86,21.74-14l0.34-0.05c2.37-0.33,7.89-1.09,9.76,2.62
		C256.05,251.46,256.45,252.17,256.24,252.79 M289.35,288.22l-0.07-0.09c4.1-5.91,9.74-13.5,11.76-14.9
		c0.14-0.07,0.25-0.11,0.41-0.18c6.1-0.35,9.52-2.48,10.42-3.13c1.15-0.82,4.53-4.1,5.09-4.69c0.58-0.61,2.33-4.57,3.04-6.24v-0.01
		l-0.08,0.14l0.28-0.66l0.05-0.18l0.46-1.43c-0.02-0.44-0.25-0.82-0.63-1.03c-0.27-0.14-0.61-0.14-0.98-0.11
		c0.02-0.04,0.03-0.09,0.03-0.09c0.22-0.46,0.45-1.06,0.45-1.47v-0.1c-0.06-0.46-0.32-0.83-0.71-1.05c-0.41-0.22-0.94-0.21-1.5-0.08
		c-0.28-0.36-0.58-0.59-0.66-0.61c-0.12-0.08-0.79-0.32-2.02,0.43c-0.48,0.28-0.96,0.8-1.35,1.29c0.05-0.37,0.09-0.76,0.09-0.76
		c-0.11-0.41-0.42-0.75-0.83-0.9c-0.59-0.22-1.32-0.08-2.04,0.39c-0.78,0.53-1.83,2.18-2.13,2.66c-0.26,0.21-1.3,1.11-1.91,2.18
		c-1.99,0.64-3.23,0.6-3.75,0.41c1.21-0.7,2.17-1.37,2.69-1.98c1.19-1.42,1.85-2.92,1.85-4.13c0-0.21-0.02-0.41-0.05-0.6
		c-0.12-0.56-0.42-0.99-0.86-1.22c-1.2-0.6-2.62,0.61-2.9,0.86c-0.02,0.03-0.42,0.45-0.63,0.68c-0.45,0.11-1.4,0.39-2.02,0.95
		c-0.44,0.39-0.96,0.56-1.58,0.77c-0.74,0.24-1.57,0.54-2.38,1.22l-0.06,0.05c0.02-0.02,0.04-0.03,0.06-0.04
		c-0.15,0.1-1.46,0.98-1.87,1.25c-1.89,0.99-2.89,1.98-3.96,3.03c-2.12,2.1-4.77,4.71-16.65,8.65c-0.1-4.35-2.79-16.04-3.33-20.51
		c-1.1-7.9-10.26-18.77-16.84-25.65c6.21,3.61,9.69,4.11,13.11-0.54c0.9-1.41,2.33,0.11,3.62-0.14c1.88-0.98,1.64-1.5,1.64-2.86
		c0.55-1.46,2.03-0.74,3.13-0.92c2.77-0.46,1.12-3.36,2.21-4.82c12.17-0.73-1.55-11.91,6.64-16.54c5.33-2.48,7.34-5.8,9.72-9
		c1.96-2.64,2.37-0.58,3.84-2.75c2.65-9.53-1.93-21.29-7.82-29.37c-30.19-38.81-64.67-20.92-74.72,3.12
		c-4.16,6.11-2.87,14.99-3.11,22.29c-0.78,2.54-2.31,2.47-4.5,0.97c-0.5,5.03,3.44,6.03,5.19,6.37c0.18,0.64,1.33,1.63,1.81,2.3
		c-1.57,0.45-4.86-0.45-5.93-1.03c-0.04,1.14,0.1,2.08,1.01,3.12c0.72,3.58,2.55,4.86,5.15,5.92c4.84,1.96,2.57,8.6,2,11.33
		c-0.18,0.6-0.36,1.2-0.52,1.78c-4.48,1.15-7.46,5.2-8.65,9.4c-0.55,10.19-5.8,18.65-5.71,29.2c0,0-0.09,1.54,0,2.17
		c2.61,11.41-0.72,26.36-0.17,38.12c-38.07,5.67-73.08,17.9-102.94,35.12c44.28-17.81,95.95-28.07,151.17-28.07
		s106.89,10.26,151.17,28.07C369.28,305.98,331,293.2,289.35,288.22"/>
</g>
</svg>
