<?xml version="1.0"?><svg version="1.2" baseProfile="tiny-ps" viewBox="0 0 300 300" xmlns="http://www.w3.org/2000/svg" xmlns:xlink="http://www.w3.org/1999/xlink"><title>PT. Bank Rakyat Indonesia Tbk</title><g><g fill="#fdfffe" transform="matrix(.1 0 0 -.1 0 300)"><path d="M0 1500V0h3000v3000H0V1500z"/></g><g fill="#cbe2ec" transform="matrix(.1 0 0 -.1 0 300)"><path d="m179 2007-34-23-22-39-23-40 2-416 3-416 28-36c15-20 41-44 57-52l29-15h828l34 23c18 12 44 38 56 56l23 34v834l-23 34c-12 18-38 44-56 56l-34 23H213l-34-23zm270-85 34-19 19-34c20-38 23-75 8-114l-10-27-110-112c-61-62-110-116-110-121 0-4 49-57 109-119l108-111 7-32 8-33-7-28-6-29-32-31c-40-38-75-52-133-52h-46l-29 29-29 29v753l12 22c6 12 18 27 27 34l16 12 65 1h65l34-18zm298-2 32-19 16-30 15-30v-36c0-53-11-69-133-193l-112-112 200-202c110-111 203-204 208-206 4-2 7-10 7-18v-14H790c-104 0-190 2-190 4s7 23 15 46l15 43v122l-20 43-20 44-66 69-67 69 71 74c39 41 79 90 88 108l17 32 4 61 5 60-10 35c-5 19-13 43-17 53l-7 17h107l32-20zm258-5 25-24v-686l-52 55c-28 30-92 96-142 147l-90 92 72 75 72 74 20 43 20 44v122l-15 42-14 41h80l24-25zm255-415v-452l228 4 227 3 55 27c66 31 103 65 132 121l22 42v160l-21 41c-12 22-35 55-53 74l-31 33 14 16c8 9 22 30 31 48l16 32v116l-19 40-18 40-37 33c-20 17-53 40-74 49l-37 17-217 4-218 4v-452zm421 252 29-32v-55l-20-32-20-33h-240v192l111-4 111-3 29-33zm40-350 29-32v-80l-29-32-29-33-131-3-131-4v224l131-4 131-3 29-33zm259 98v-450h170v330h48l47-1 114-164 115-165h196v10c0 6-51 84-114 172l-114 162 47 21 46 22 41 45 41 45 14 39 14 39v75l-1 75-30 55-31 55-52 32-53 32-50 10-49 11h-399v-450zm413 276c18-7 40-22 50-33l18-21 6-34 5-35-16-35-16-34-29-17-29-17h-232v240h211l32-14zm327-276v-450h180v900h-180v-450z"/></g><g fill="#95b9d0" transform="matrix(.1 0 0 -.1 0 300)"><path d="m186 2008-39-23-24-44-23-44v-794l23-44 24-44 39-22 39-23h806l33 14 33 14 29 38 29 37v856l-21 27c-11 15-33 37-48 48l-27 21-417 3-417 2-39-22zm265-83 30-16 19-32 20-32v-38c0-21-5-48-11-60s-61-73-122-134l-111-113 106-108 107-108 10-28c6-15 11-42 11-60v-33l-22-33-23-33-35-18-35-19H279l-24 25-25 24v782l25 24 24 25h142l30-15zm325-28 34-37v-112l-78-82c-110-114-152-160-152-167 0-3 92-101 205-216l204-210-6-7c-3-3-93-6-198-6H593l18 53 18 52 1 44c0 24-5 62-12 84l-12 41-79 84-80 84 76 77c41 42 83 92 93 111l19 35v150l-19 34-18 33 72-4 72-4 34-37zm231 19 28-24 3-349 3-348-153 152-153 153 82 82 82 83 16 44 15 44v51l-1 51-14 40c-8 22-15 41-15 43 0 1 18 2 39 2h40l28-24zm253-410v-446h436l50 15 50 15 41 35 41 34 22 48 23 48v70l1 70-23 45c-13 25-37 59-53 76l-30 32 28 41 27 41 5 50 5 50-14 47-13 47-41 42-41 41-50 18-49 18-207 5-208 4v-446zm400 269c35-18 50-43 50-85v-31l-15-29-16-30h-249v190h201l29-15zm47-355 32-19 10-35 9-36-9-36-10-35-32-19-32-20h-245v220h245l32-20zm273 86v-446h170l2 163 3 162 41 3 42 3 116-165 117-166h200l-7 13c-5 6-57 81-117 166-59 84-107 154-105 156 2 1 26 14 53 28 63 32 98 68 126 132l23 50v131l-18 47-18 47-44 39-45 39-47 18-47 17-222 5-223 4v-446zm426 268 35-17 14-28c8-15 15-42 15-59v-31l-16-30-15-31-42-19-42-19h-205v250h222l34-16zm314-269v-445h180v890h-180v-445z"/></g><g fill="#6596bd" transform="matrix(.1 0 0 -.1 0 300)"><path d="M205 2016c-17-7-43-28-58-45l-26-32-11-37-10-37v-730l10-37 11-37 26-32 27-32 33-13 32-14h787l44 23 45 22 23 45 22 44v792l-23 44-22 45-45 23-44 22H630l-395-1-30-13zm788-82 17-5 15-29 15-29v-676l-152 152-153 153 77 77c42 43 83 93 92 110l16 32 6 58 6 58-15 40c-8 22-18 48-22 59l-8 18 44-7c24-3 52-9 62-11zm-512-33 39-39v-113l-121-126-121-125 110-112 110-111 7-28c4-16 5-46 2-69l-5-40-24-25c-13-14-35-31-50-39l-27-14H273l-24 26-24 26v776l24 26 24 26h169l39-39zm270 22 29-18 20-40c24-49 25-65 6-109l-14-34-107-111-107-110 203-211c112-116 206-215 207-220l4-10H592l20 63 20 62-5 51-5 52-17 33c-9 19-49 67-88 106l-71 72 77 80 77 79 17 38 16 39v130l-16 38-16 37h121l29-17zm516 20-7-6v-877h426l51 15 50 15 40 29 40 29 27 53 26 53v141l-19 41c-10 22-33 57-52 78l-33 38 12 16c7 10 22 37 33 61l21 44-5 55-6 55-28 45-28 45-50 28-51 28-69 11-70 10h-151c-83 0-154-3-157-7zm419-186 24-28v-70l-15-29-16-30h-249v192l116-4 116-3 24-28zm27-338 27-20 11-38 11-37-15-36-15-36-28-18-27-18-123-4-124-4v232h257l26-21zm274 524-7-6v-877h170v331l47-3 48-3 114-162 114-163h199l-35 48c-99 138-199 284-195 287 2 2 28 17 58 32l55 29 32 42 32 43 11 37c5 20 10 66 10 102v65l-21 45c-26 58-53 87-111 116l-47 24-68 10-68 10h-166c-91 0-169-3-172-7zm423-168c16-8 36-25 44-37l16-22v-93l-22-28-21-27-33-14-33-14h-211v250h231l29-15zm317 169-7-7v-877h180l-2 443-3 442-80 3-81 3-7-7z"/></g><g fill="#2c6ba3" transform="matrix(.1 0 0 -.1 0 300)"><path d="M217 2016c-45-16-74-40-93-78l-14-27v-828l23-33 22-34 35-20 35-21 375-3c206-2 394 0 418 3l44 6 39 36 39 35 10 36 10 37v750l-10 34-10 35-32 33-32 33-36 10-35 10H630l-375-1-38-13zm233-88 45-23 19-47 19-47-12-42-13-43-114-116-113-116 110-109 109-110 10-36 10-35-10-34-10-34-31-32-32-33-49-11-49-12-33 6-33 6-24 26-24 26-3 366-3 367 11 37 11 38 27 14 27 15 55 1h56l44-22zm260 16 32-7 34-33 33-34 6-34 7-34-7-33-8-33-115-118-115-118 206-209c114-115 207-213 207-219 0-18-42-22-222-22H590v10c0 6 7 27 16 48l17 37v130l-16 38-17 39-71 74-72 74 72 76 73 76 19 42 19 41v126l-15 36c-8 19-15 39-15 44v9h39c21 0 53-3 71-6zm287-14 32-19 6-23c3-13 4-175 3-360l-3-338-149 156-148 155 76 78 76 79 14 33c7 19 16 54 20 79l6 45-13 50c-8 28-18 58-22 68l-7 17h77l32-20zm273-431v-441l228 4 227 4 38 17c21 10 58 36 82 58l44 41 17 50 16 50-4 61-4 62-19 38c-10 22-33 55-51 74l-34 35 25 30c24 29 45 85 45 124 0 11-7 43-15 71l-15 50-44 41-44 41-53 15-53 16h-386v-441zm354 291 39-9 25-24 25-25v-81l-17-26-16-25h-250v200h78c42 0 95-5 116-10zm59-354c18-7 41-23 52-36l20-22v-96l-20-22c-11-13-34-29-52-36l-32-14h-221v240h221l32-14zm297 64v-440h170v330h95l115-165 115-165h185v8c-1 4-52 79-114 167l-114 160 46 23c57 28 107 75 135 127l22 40v170l-23 47-23 47-42 31-42 31-49 14-50 15h-426v-440zm424 279c16-8 39-27 50-42l21-28-1-39-1-40-17-25c-10-14-31-35-49-45l-32-20h-225v263l113-5 112-4 29-15zm326-279v-440h160v880h-160v-440z"/></g><g fill="#01529c" transform="matrix(.1 0 0 -.1 0 300)"><path d="m182 1999-33-22-19-38-20-38v-802l20-38 19-39 34-21 34-21h830l33 23 34 22 20 35 21 35v810l-21 35-20 35-34 22-33 23H215l-33-21zm262-63 33-14 21-26c11-15 24-41 27-57l7-31-7-36-7-37-116-117-115-117 105-109 106-110 12-37 12-37-6-31c-3-16-17-45-31-63l-25-32-45-17-45-18-51 5-51 5-21 22-22 22-3 395-3 395 30 29 29 30h133l33-14zm304-6 32-20 20-32 20-33v-38c0-54-10-69-126-189-57-59-104-111-104-117s93-105 206-221l207-210-7-8-8-7-200-3-201-3 6 23c3 13 13 47 21 76l15 53-9 50c-13 66-22 82-102 169-37 41-68 79-68 83 0 5 36 46 79 91l79 83 12 44 12 44-5 60-4 61-17 32-17 32h126l33-20zm263-9 29-29v-707l-157 158-157 158 82 82 81 82 16 37 15 37v122l-15 36c-8 19-15 39-15 44v9h92l29-29zm259-421v-442l223 4 222 3 50 23c60 28 100 64 128 117l22 40v160l-19 35c-10 19-34 51-53 71l-34 36 32 52 33 53-1 52-1 53-17 39c-22 53-58 88-119 116l-51 23-207 3-208 3v-441zm373 289 38-10 20-32 20-32-6-38c-3-21-13-49-22-63l-16-25-126 3-126 3-3 89c-2 49-1 95 2 103l5 13h176l38-11zm52-353 34-14 15-31 16-30v-31c0-17-7-44-15-59l-14-28-35-17-34-16h-242v113c0 63 3 117 7 120 3 4 57 7 120 7h114l34-14zm295 65v-441h160v330h97l113-161c62-88 118-163 125-165 6-3 49-4 94-2l83 3-109 155c-60 85-112 160-116 166l-7 12 55 26 54 27 36 42 36 41 16 55 15 55-5 56-5 56-20 40c-27 52-66 88-127 116l-50 23-222 3-223 3v-440zm416 280 41-18 16-36c21-43 21-67 3-112l-15-35-33-20-33-20h-235v260h215l41-19zm324-281v-440h160v880h-160v-440z"/></g></g></svg>