<?xml version="1.0" encoding="utf-8"?>
<!-- Generator: Adobe Illustrator 26.5.0, SVG Export Plug-In . SVG Version: 6.00 Build 0)  -->
<svg version="1.2" baseProfile="tiny-ps" id="レイヤー_1"
	 xmlns="http://www.w3.org/2000/svg" xmlns:xlink="http://www.w3.org/1999/xlink" viewBox="0 0 1080 1080" xml:space="preserve">
<title>カイゴジョブ</title>
<g>
	<g>
		<path fill="#DAE000" d="M896.73,561.74c-25.83-59.03-135.22,4.75-368.88,4.75s-343.05-63.78-368.88-4.75
			c-31.3,71.54,158.38,180.39,368.88,180.39S928.04,633.28,896.73,561.74z"/>
		<path fill="#ABCD03" d="M221.31,660.57c68.99,44.82,184.25,81.55,306.54,81.55s237.55-36.74,306.54-81.55
			c-66.15-37.59-184.37-62.76-306.54-62.76S287.47,622.99,221.31,660.57z"/>
		<g>
			<path fill="#231815" d="M350.71,355.84h-13.74c-3.67,0-6.67,2.93-6.69,6.53c0,9.31-3.31,10.83-16.33,18.43
				c-28.68,16.75-51.76,28.4-85.43,41.9c-4.36,1.75-6.16,4.85-6.16,10.31v9.18c-0.01,2.71,0.71,4.65,2.08,5.6
				c1.55,1.08,4.07,1.13,7.17-0.13c16.99-6.91,35.02-15.14,52.95-23.85v66.69c0,3.62,2.95,6.57,6.57,6.57h14.06
				c3.63,0,6.57-2.95,6.57-6.57v-80.29c8.87-4.55,17.57-9.12,25.94-13.59c15.28-8.17,19.54-15.02,19.54-32.52v-2.18
				C357.03,358.53,354.15,355.84,350.71,355.84z"/>
			<path fill="#231815" d="M189.33,376.67H126.2v-14.25c0-3.62-2.95-6.57-6.57-6.57h-12.45c-3.62,0-6.57,2.95-6.57,6.57v14.25H72.56
				c-3.62,0-6.57,2.95-6.57,6.57v10.06c0,3.62,2.95,6.57,6.57,6.57h26.78l-0.02,9.1c-0.4,37.53-10.92,55.09-32.91,60.49
				c-6.6,1.62-7.46,3-7.46,8.77v11.27c0,1.8,0.47,3.15,1.39,4.01c1.13,1.05,3,1.49,5.55,1.28c17.52-2.82,30.38-9.97,41.63-23.16
				c10.36-12.07,15.4-30.25,17.39-62.76l0.07-9h44.69v39.61c0,24.65-3.7,28.93-24.93,28.93c-1.88,0-3.35,0.01-4.21,0.01
				c-3.58,0-6.57,2.82-6.57,6.57s0,8.07,0,11.48c0,3.41,2.95,6.57,6.57,6.57h7.43c35.26-0.94,48.25-14.19,47.94-48.89v-60.92
				C195.9,379.62,192.95,376.67,189.33,376.67z"/>
			<path fill="#231815" d="M800.06,380.78h-70.08c-3.62,0-6.57,2.95-6.57,6.57v8.27c0,3.11,2.21,5.81,5.24,6.44l67.16-0.03
				c10.03,0,12.53,2.39,12.7,12.19v9.82H737.7c-3.62,0-6.57,2.95-6.57,6.57v7.94c0,3.62,2.95,6.57,6.57,6.57h70.81v12.37
				c-0.17,9.82-2.66,12.22-12.7,12.22h-65.84c-3.62,0-6.57,2.95-6.57,6.57v8.1c0,3.62,2.95,6.57,6.57,6.57h70.06
				c11.41,0.13,19.98-2.57,25.47-8.1c5.32-5.36,7.9-13.51,7.67-24.21v-45.55c0.23-10.72-2.35-18.87-7.67-24.23
				C820,383.34,811.36,380.66,800.06,380.78z"/>
			<path fill="#231815" d="M660.32,377.87h5.96c2.82,0,5.12-2.3,5.12-5.12v-15.76c0-2.82-2.3-5.12-5.12-5.12h-5.96
				c-2.82,0-5.12,2.3-5.12,5.12v15.76C655.2,375.57,657.5,377.87,660.32,377.87z"/>
			<path fill="#231815" d="M691.93,351.87h-6.15c-2.82,0-5.12,2.3-5.12,5.12v15.76c0,2.82,2.29,5.12,5.12,5.12h6.15
				c2.82,0,5.12-2.3,5.12-5.12v-15.76C697.05,354.17,694.75,351.87,691.93,351.87z"/>
			<path fill="#231815" d="M681.95,389.3h-13.09c-3.62,0-6.57,2.95-6.57,6.57v23.51c-0.66,37.58-10.47,46.79-50.01,46.96h-43.46
				c-3.62,0-6.57,2.95-6.57,6.57v11.48c0,3.62,2.95,6.57,6.57,6.57h39.76c34.12-0.16,49.08-3.91,61.54-15.42
				c13.58-12.79,18.57-27.79,18.41-55.35v-24.32C688.53,392.25,685.58,389.3,681.95,389.3z"/>
			<path fill="#231815" d="M564.94,388.68h46.77c3.62,0,6.57-2.95,6.57-6.57v-11c0-3.62-2.95-6.57-6.57-6.57h-46.77
				c-3.62,0-6.57,2.95-6.57,6.57v11C558.37,385.74,561.32,388.68,564.94,388.68z"/>
			<path fill="#231815" d="M611.71,427.79c3.62,0,6.57-2.95,6.57-6.57v-11c0-3.62-2.95-6.57-6.57-6.57h-46.77
				c-3.62,0-6.57,2.95-6.57,6.57v11c0,3.62,2.95,6.57,6.57,6.57H611.71z"/>
			<path fill="#231815" d="M512.03,351.87h-5.96c-2.82,0-5.12,2.3-5.12,5.12v15.76c0,2.82,2.29,5.12,5.12,5.12h5.96
				c2.82,0,5.12-2.3,5.12-5.12v-15.76C517.15,354.17,514.85,351.87,512.03,351.87z"/>
			<path fill="#231815" d="M537.67,351.87h-6.15c-2.82,0-5.12,2.3-5.12,5.12v15.76c0,2.82,2.3,5.12,5.12,5.12h6.15
				c2.82,0,5.12-2.3,5.12-5.12v-15.76C542.79,354.17,540.49,351.87,537.67,351.87z"/>
			<path fill="#231815" d="M490.68,376.48v-9.66h-99.92c-3.62,0-6.57,2.95-6.57,6.57v11.48c0,3.62,2.95,6.57,6.57,6.57h93.47v74.89
				h-93.47c-3.62,0-6.57,2.95-6.57,6.57v11.48c0,3.62,2.95,6.57,6.57,6.57h103.62c10.38,0,16.09-5.54,16.09-15.61v-87.84h-8.75
				C495.98,387.51,490.68,382.21,490.68,376.48z"/>
			<path fill="#231815" d="M990.3,351.87h-5.96c-2.82,0-5.12,2.3-5.12,5.12v15.76c0,2.82,2.29,5.12,5.12,5.12h5.96
				c2.82,0,5.12-2.3,5.12-5.12v-15.76C995.41,354.17,993.12,351.87,990.3,351.87z"/>
			<path fill="#231815" d="M1015.94,351.87h-6.15c-2.82,0-5.12,2.3-5.12,5.12v15.76c0,2.82,2.3,5.12,5.12,5.12h6.15
				c2.82,0,5.12-2.3,5.12-5.12v-15.76C1021.06,354.17,1018.76,351.87,1015.94,351.87z"/>
			<path fill="#231815" d="M968.95,376.48v-9.66h-99.92c-3.62,0-6.57,2.95-6.57,6.57v11.46c0,3.62,2.95,6.57,6.57,6.57h93.57v5.37
				c0,47.92-17.25,69.54-75.86,69.54H875.3c-3.62,0-6.57,2.95-6.57,6.57v11.48c0,3.62,2.95,6.57,6.57,6.57h4.27
				c84.34,0,109.17-30.74,109.17-98.3v-5.16h-8.75C974.25,387.51,968.95,382.21,968.95,376.48z"/>
		</g>
	</g>
</g>
</svg>
