<?xml version="1.0" encoding="UTF-8" standalone="yes"?>
<svg version="1.2" viewBox="0 0 800 800" xml:space="preserve" baseProfile="tiny-ps" xmlns="http://www.w3.org/2000/svg">
  <title>Origin BJJ LLC</title>
  <rect class="st0" width="800" height="800" fill="#FFFFFF"/>
  <path class="st1" d="M423.9,442.5c33.3-50.1,131.9-213.3,73.4-305.4c27.9,55.6-34.6,169.7-58.7,210&#xA;&#x9;C440.5,376.9,435.8,409.7,423.9,442.5" fill="#231F20"/>
  <path class="st1" d="M724.9,376.3c-2.9-35.5-11.6-69.5-25-101.1c-30.7-72.1-86.6-131.7-158-166.5c14,9,27.4,19,40,29.9&#xA;&#x9;c38.3,30.6,68.2,70.7,86.8,116.3c18,41.9,26.2,88.3,20.6,137.1c-3.8,33.1-13.1,64.2-26.9,92.6c-0.4,0.9-0.8,1.8-1.2,2.7&#xA;&#x9;c-20.8,43.1-52.1,79.7-90.1,107.1c-9.4,6.6-20.3,13.4-32.8,20c0,0-0.1,0-0.1,0.1c-23.9,13.4-47.7,21.8-70.4,26.7&#xA;&#x9;c-2.2,0.5-4.3,1.1-6.5,1.6c-20,4.5-41.1,4.9-60.1,3.6h-0.1c-17.5-0.9-33.6-3.5-47.8-6.7c-5.9-1.2-10.5-2.2-13.4-2.7&#xA;&#x9;c-16.7-4.5-32.5-10.9-47.2-18.8c-1-0.5-1.5-0.8-1.5-0.8l0,0c-10.1-5.5-19.6-11.7-28.7-18.6c-19.3-14.7-36-32.6-49.7-52.5&#xA;&#x9;c-24-35.3-38-77.5-38.7-122.3c0.1-8.7,1.4-18.6,2.5-27.6c2.6-20.7,7.9-40.2,15.5-58.2c1.4-3.4,3.6-7.8,5.1-11&#xA;&#x9;c12.4-24.9,50.9-88,127.1-99.3c95.3-14.1,108.9,78.7,108.9,78.7S572.7,60,374.7,71.4c-21.1,0.3-41.9,3.7-62.1,9.7c0,0,0,0-0.1,0&#xA;&#x9;c-2,0.5-3.9,1.1-5.9,1.8c-68.9,22.3-130.3,74.2-171.5,132.7c-8.1,11.5-15.5,23.6-22.1,36.1l0,0c-13.3,25.2-26.9,54.6-33.8,90.2l0,0&#xA;&#x9;c-0.2,1.1-0.4,2.2-0.6,3.3c-1.6,8.8-2.8,18-3.5,27.5c-6.6,80,16.5,155.9,60.2,216.8c26.2,36.5,59.6,67.5,98.7,90.9&#xA;&#x9;c0,0,79.6,57.5,201.5,47.3c55.4-4.6,101.5-25.2,136.2-47c0.1-0.1,0.3-0.2,0.4-0.2c1.4-0.9,2.7-1.7,4-2.6&#xA;&#x9;c13.4-8.7,26.2-18.2,38.2-28.7c1.8-1.5,3.5-3.1,5.2-4.7c15.7-14.2,24.1-24.4,24.1-24.4l0,0c34-38.3,59.4-85.1,72.4-137.2&#xA;&#x9;c3.4-13.8,6.2-28,7.9-42.5C726.4,418.6,726.6,397.2,724.9,376.3" fill="#231F20"/>
</svg>