<?xml version="1.0" encoding="UTF-8"?>
<svg xmlns="http://www.w3.org/2000/svg" baseProfile="tiny-ps" version="1.2" viewBox="0 0 200 200">
  <!-- Generator: Adobe Illustrator 28.7.0, SVG Export Plug-In . SVG Version: 1.2.0 Build 136)  -->
  <title>iDenfy</title>
  <g>
    <g id="Layer_1">
      <g id="d40d8880-57f5-4d30-bcd2-e953e4532cda">
        <rect x="-6.6" y="-7.1" width="213.6" height="213.6" vector-effect="non-scaling-stroke"/>
      </g>
      <g vector-effect="non-scaling-stroke">
        <path d="M145.8,109.5c1.6,0,3.1-.4,4.5-1.2v1.6c0,1.1-.4,2.2-1,3.1,1.2,1.1,2.8,1.7,4.5,1.6.8-1.5,1.2-3.1,1.2-4.8v-17.3c0-.3,0-.6-.2-.9-.1-.3-.3-.6-.5-.8-.2-.2-.5-.4-.8-.5-.3-.1-.6-.2-.9-.2s-.6,0-.9.2c-.3.1-.5.3-.8.5-.2.2-.4.5-.5.8-.1.3-.2.6-.2.9v7.2c0,.6,0,1.3-.2,1.9-.2.6-.5,1.2-.9,1.6-.4.5-.9.8-1.5,1.1-.6.3-1.2.4-1.8.4s-1.3-.1-1.8-.4c-.6-.3-1.1-.6-1.5-1.1-.4-.5-.7-1-.9-1.6-.2-.6-.3-1.2-.2-1.9v-7.1c0-.3,0-.6-.2-.9-.1-.3-.3-.6-.5-.8-.2-.2-.5-.4-.8-.5-.3-.1-.6-.2-.9-.2s-.6,0-.9.2c-.3.1-.5.3-.8.5-.2.2-.4.5-.5.8s-.2.6-.2.9v7.1c0,2.5.8,4.9,2.5,6.8,1.7,1.8,4.1,2.9,6.6,3" vector-effect="non-scaling-stroke" fill="#fff"/>
        <path d="M146.5,115c-.4.1-.9.2-1.3.2-.7,0-1.5-.2-2.1-.5-.7-.3-1.3-.8-1.7-1.3-.2-.2-.4-.4-.7-.6-.3-.1-.6-.2-.9-.3s-.6,0-.9.1c-.3,0-.6.3-.8.5-.5.4-.7,1-.8,1.6,0,.6.2,1.2.5,1.7.9,1.1,1.9,1.9,3.2,2.5,1.2.6,2.6.9,3.9,1,1.4,0,2.7-.2,4-.7,1.3-.5,2.4-1.3,3.3-2.3-.8-.7-1.6-1.2-2.6-1.6-1-.3-2-.4-3-.4" vector-effect="non-scaling-stroke" fill="#fff"/>
        <path d="M136.8,85.1c-.4.5-1,.7-1.7.7-.6,0-1.3-.2-1.7-.6-.6-.5-1.3-.8-2.1-.8-.8,0-1.6.3-2.1.9-.6.6-.9,1.4-.9,2.2v4.9h3.8c.6,0,1.2.3,1.7.7.5.5.7,1.1.7,1.7s-.3,1.2-.7,1.7c-.5.5-1.1.7-1.7.7h-3.8v10.1c0,.6-.3,1.3-.7,1.7-.5.5-1.1.7-1.7.7s-1.3-.3-1.7-.7c-.5-.5-.7-1.1-.7-1.7v-19.8c0-1.5.4-3,1.3-4.3.8-1.3,2-2.3,3.4-2.9,1.4-.6,3-.8,4.5-.6,1.5.3,2.9.9,4,2,.5.4.7,1,.7,1.7,0,.6-.2,1.3-.6,1.7" vector-effect="non-scaling-stroke" fill="#fff"/>
        <path d="M120.4,100v7.5c0,.6-.2,1.2-.7,1.7-.4.4-1,.7-1.7.7s-1.2-.2-1.7-.7-.7-1-.7-1.7v-7.5c0-1.3-.4-2.5-1.2-3.5-.9-1-2.1-1.5-3.3-1.6-3.1,0-4.7,3.1-4.7,5.8v6.7c0,.6-.3,1.2-.7,1.7-.4.4-1.1.7-1.7.7s-1.2-.3-1.7-.7c-.4-.4-.7-1.1-.7-1.7v-15.2c0-.6.3-1.2.7-1.7.4-.4,1.1-.7,1.7-.7.5,0,1,.2,1.4.5.4.3.7.7.8,1.2,1.4-.9,3.1-1.4,4.8-1.4,2.5,0,4.9,1.2,6.7,3s2.7,4.3,2.6,6.8" vector-effect="non-scaling-stroke" fill="#fff"/>
        <path d="M85.6,97.3h8.4c-.4-.7-1-1.4-1.7-1.8-.7-.4-1.5-.6-2.4-.6-.9,0-1.7.2-2.5.6-.8.4-1.4,1-1.9,1.8ZM97.2,101.3h-12.2c.3,1.1.9,2.1,1.8,2.9.9.7,2,1.1,3.2,1.1,1.5,0,3-.5,4.2-1.5.2-.2.5-.4.8-.5.3-.1.6-.2.9-.2.3,0,.6,0,.9.2.3.1.5.3.8.5.2.2.4.5.5.8.1.3.2.6.2.9,0,.3,0,.6-.2.9-.1.3-.3.5-.5.8-2.1,1.8-4.7,2.8-7.5,2.8-2.6,0-5.2-1-7-2.9-1.9-1.9-2.9-4.4-2.9-7s1-5.2,2.9-7c1.9-1.9,4.4-2.9,7-2.9.6,0,1.2,0,1.7.2,1.3.3,2.6.8,3.7,1.6,1.1.8,2,1.8,2.7,3,.8,1.2,1.2,2.5,1.3,3.9,0,.4-.1.8-.3,1.1-.1.4-.4.8-.8,1-.3.3-.8.4-1.2.4" vector-effect="non-scaling-stroke" fill="#fff"/>
        <path d="M62.7,80h-6.2c-.3,0-.6,0-.9.2-.3.1-.6.3-.8.5-.2.2-.4.5-.5.8-.1.3-.2.6-.2.9v4.6c.5.8,1.2,1.4,2,1.7.9.4,1.8.6,2.7.6v-4.4h3.8c2.7,0,5.3,1.1,7.2,3,1.9,1.9,3,4.5,3,7.2,0,2.7-1.1,5.3-3,7.2-1.9,1.9-4.5,3-7.2,3.1h-3.9v-13c-.7-.7-1.5-1.3-2.4-1.7-.7-.4-1.5-.6-2.3-.6v17.5c0,.6.2,1.2.7,1.7.4.5,1,.7,1.6.7l6.2.2h0c4,0,7.8-1.6,10.6-4.4,2.8-2.8,4.4-6.7,4.4-10.6s-1.6-7.8-4.4-10.6c-2.8-2.8-6.7-4.4-10.6-4.4" vector-effect="non-scaling-stroke" fill="#fff"/>
        <path d="M47.9,109.9c-.7,0-1.3-.3-1.8-.7-.5-.5-.7-1.1-.7-1.7v-15.3c0-.3,0-.6.2-.9.1-.3.3-.6.5-.8.2-.2.5-.4.8-.5.3-.1.6-.2.9-.2s.6,0,.9.2c.3.1.6.3.8.5.2.2.4.5.5.8.1.3.2.6.2.9v15.3c0,.6-.3,1.3-.7,1.7-.5.5-1.1.7-1.7.7h0ZM47.9,86.6c-.7,0-1.3-.2-1.7-.7-.5-.5-.7-1.1-.8-1.7v-.2c0-.6.3-1.3.7-1.7.5-.4,1.1-.7,1.7-.7s1.3.3,1.7.7c.5.4.7,1.1.7,1.7v.2c0,.6-.3,1.2-.7,1.7s-1.1.7-1.7.7Z" vector-effect="non-scaling-stroke" fill="#fff"/>
      </g>
    </g>
  </g>
</svg>