<?xml version="1.0" encoding="utf-8"?>
<svg version="1.2" baseProfile="tiny-ps" id="Layer_1" xmlns="http://www.w3.org/2000/svg" xmlns:xlink="http://www.w3.org/1999/xlink"
	 viewBox="0 0 127.6 127.6" xml:space="preserve">
<title>Majestic</title>
<rect x="-1.1" y="-1.1" fill="#2D526D" width="130" height="130"/>
<g>
	<g>
		<path fill="#E62A28" d="M99.3,55.6c0.2,1.2,0.4,2.4,0.5,3.5c1.2,1.5,2.4,3.1,3.5,4.8c-1.1-0.9-2.2-1.7-3.3-2.5
			c0.1,1.1,0.1,2.1,0.2,3.2c-0.8-1.6-1.7-3.1-2.6-4.7c-1.2-0.7-2.5-1.3-3.7-1.9c0.6-0.4,1.2-0.8,1.9-1.2c-0.9-1.5-1.9-3-2.8-4.4
			c1.5,1.2,2.9,2.5,4.2,3.8C97.9,56,98.6,55.8,99.3,55.6"/>
		<path fill="none" stroke="#FCEB2F" stroke-width="0.5" stroke-linejoin="round" d="M99.3,55.6c0.2,1.2,0.4,2.4,0.5,3.5
			c1.2,1.5,2.4,3.1,3.5,4.8c-1.1-0.9-2.2-1.7-3.3-2.5c0.1,1.1,0.1,2.1,0.2,3.2c-0.8-1.6-1.7-3.1-2.6-4.7c-1.2-0.7-2.5-1.3-3.7-1.9
			c0.6-0.4,1.2-0.8,1.9-1.2c-0.9-1.5-1.9-3-2.8-4.4c1.5,1.2,2.9,2.5,4.2,3.8C97.9,56,98.6,55.8,99.3,55.6"/>
	</g>
	<g>
		<path fill="#E62A28" d="M83.7,42.8c0.4,1.3,0.8,2.5,1.2,3.8c1.6,1,3.2,2,4.7,3.2c-1.3-0.3-2.7-0.5-4-0.6c0.2,1.2,0.5,2.4,0.7,3.6
			c-1.1-1.3-2.3-2.6-3.5-3.8c-1.4,0-2.8,0-4.2,0.1c0.6-0.9,1.1-1.8,1.7-2.6c-1.2-1.2-2.4-2.4-3.7-3.6c1.7,0.6,3.4,1.3,5,2
			C82.3,44.2,83,43.5,83.7,42.8"/>
		<path fill="none" stroke="#FCEB2F" stroke-width="0.5" stroke-linejoin="round" d="M83.7,42.8c0.4,1.3,0.8,2.5,1.2,3.8
			c1.6,1,3.2,2,4.7,3.2c-1.3-0.3-2.7-0.5-4-0.6c0.2,1.2,0.5,2.4,0.7,3.6c-1.1-1.3-2.3-2.6-3.5-3.8c-1.4,0-2.8,0-4.2,0.1
			c0.6-0.9,1.1-1.8,1.7-2.6c-1.2-1.2-2.4-2.4-3.7-3.6c1.7,0.6,3.4,1.3,5,2C82.3,44.2,83,43.5,83.7,42.8"/>
	</g>
	<g>
		<path fill="#E62A28" d="M65.4,36c0.6,1.3,1.3,2.7,1.9,4c1.8,0.3,3.6,0.7,5.4,1.1c-1.4,0.5-2.9,1-4.3,1.6c0.5,1.4,0.9,2.8,1.4,4.3
			c-1.4-1-2.8-2-4.3-2.9c-1.5,0.7-2.9,1.6-4.2,2.5c0.4-1.4,0.8-2.8,1.3-4.2c-1.4-0.8-2.9-1.6-4.4-2.4c1.8-0.2,3.6-0.3,5.4-0.3
			C64.2,38.4,64.8,37.2,65.4,36"/>
		<path fill="none" stroke="#FCEB2F" stroke-width="0.5" stroke-linejoin="round" d="M65.4,36c0.6,1.3,1.3,2.7,1.9,4
			c1.8,0.3,3.6,0.7,5.4,1.1c-1.4,0.5-2.9,1-4.3,1.6c0.5,1.4,0.9,2.8,1.4,4.3c-1.4-1-2.8-2-4.3-2.9c-1.5,0.7-2.9,1.6-4.2,2.5
			c0.4-1.4,0.8-2.8,1.3-4.2c-1.4-0.8-2.9-1.6-4.4-2.4c1.8-0.2,3.6-0.3,5.4-0.3C64.2,38.4,64.8,37.2,65.4,36"/>
	</g>
	<g>
		<path fill="#E62A28" d="M46.3,39.1c0.9,1.1,1.8,2.3,2.6,3.4c1.8-0.6,3.7-1,5.5-1.4c-1.4,1.2-2.7,2.5-3.9,3.9
			c0.7,1.3,1.4,2.7,2.1,4c-1.5-0.4-3.1-0.8-4.7-1.1c-1.3,1.4-2.5,2.9-3.7,4.4c0.1-1.7,0.3-3.3,0.5-5c-1.6-0.2-3.1-0.4-4.7-0.5
			c1.7-1,3.5-2,5.2-2.9C45.6,42.3,45.9,40.7,46.3,39.1"/>
		<path fill="none" stroke="#FCEB2F" stroke-width="0.5" stroke-linejoin="round" d="M46.3,39.1c0.9,1.1,1.8,2.3,2.6,3.4
			c1.8-0.6,3.7-1,5.5-1.4c-1.4,1.2-2.7,2.5-3.9,3.9c0.7,1.3,1.4,2.7,2.1,4c-1.5-0.4-3.1-0.8-4.7-1.1c-1.3,1.4-2.5,2.9-3.7,4.4
			c0.1-1.7,0.3-3.3,0.5-5c-1.6-0.2-3.1-0.4-4.7-0.5c1.7-1,3.5-2,5.2-2.9C45.6,42.3,45.9,40.7,46.3,39.1"/>
	</g>
	<g>
		<path fill="#E62A28" d="M27.7,51.4c1.2,0.7,2.3,1.5,3.5,2.3c1.6-1.3,3.4-2.5,5.2-3.5c-1.1,1.7-2.2,3.5-3.1,5.3c1,1,1.9,2,2.9,3
			c-1.6,0.2-3.2,0.6-4.8,1c-0.9,2.1-1.7,4.2-2.5,6.3c-0.3-1.8-0.5-3.5-0.8-5.3c-1.6,0.6-3.1,1.2-4.7,1.9c1.4-1.9,2.8-3.8,4.3-5.6
			C27.7,55.1,27.7,53.3,27.7,51.4"/>
		<path fill="none" stroke="#FCEB2F" stroke-width="0.5" stroke-linejoin="round" d="M27.7,51.4c1.2,0.7,2.3,1.5,3.5,2.3
			c1.6-1.3,3.4-2.5,5.2-3.5c-1.1,1.7-2.2,3.5-3.1,5.3c1,1,1.9,2,2.9,3c-1.6,0.2-3.2,0.6-4.8,1c-0.9,2.1-1.7,4.2-2.5,6.3
			c-0.3-1.8-0.5-3.5-0.8-5.3c-1.6,0.6-3.1,1.2-4.7,1.9c1.4-1.9,2.8-3.8,4.3-5.6C27.7,55.1,27.7,53.3,27.7,51.4"/>
	</g>
</g>
<g>
	<path fill="#F6F6F6" d="M26.2,79.7c-0.1-2.2-0.2-4.9-0.2-7.3H26c-0.6,2.1-1.3,4.5-2,6.6l-2.5,7.5H19l-2.3-7.4
		c-0.7-2.2-1.3-4.6-1.7-6.7h-0.1c-0.1,2.3-0.2,5-0.3,7.4l-0.4,6.9h-2.9l1.2-17.3h4.2l2.3,6.9c0.6,2,1.2,4.1,1.6,6h0.1
		c0.5-1.9,1.1-4,1.7-6l2.4-6.9h4.1l1,17.3h-3.1L26.2,79.7z"/>
	<path fill="#F6F6F6" d="M40.8,79.5l-1.4-4.3c-0.3-1.1-0.6-2.2-0.9-3.2h-0.1c-0.3,1-0.5,2.2-0.8,3.2l-1.3,4.3H40.8z M35.8,81.9
		l-1.5,4.9h-3.3l5.5-17.3h4l5.6,17.3h-3.4l-1.6-4.9H35.8z"/>
	<path fill="#F6F6F6" d="M52.8,69.5H56v11.2c0,4.8-2.3,6.4-5.7,6.4c-0.9,0-2-0.2-2.6-0.4l0.4-2.5c0.5,0.2,1.2,0.3,1.9,0.3
		c1.8,0,2.9-0.8,2.9-3.8V69.5z"/>
	<polygon fill="#F6F6F6" points="67.8,79.1 61.3,79.1 61.3,84.2 68.6,84.2 68.6,86.8 58.2,86.8 58.2,69.5 68.2,69.5 68.2,72.1 
		61.3,72.1 61.3,76.5 67.8,76.5 	"/>
	<path fill="#F6F6F6" d="M70.8,83.3c1,0.6,2.6,1.1,4.2,1.1c2,0,3.2-0.9,3.2-2.4c0-1.3-0.9-2.1-3.1-2.9c-2.8-1-4.7-2.5-4.7-5
		c0-2.8,2.4-5,6.1-5c1.9,0,3.3,0.4,4.2,0.9l-0.8,2.5c-0.6-0.3-1.8-0.8-3.4-0.8c-2,0-2.9,1.1-2.9,2.1c0,1.3,1,2,3.3,2.8
		c3,1.1,4.5,2.6,4.5,5.1c0,2.8-2.1,5.2-6.6,5.2c-1.8,0-3.7-0.5-4.7-1.1L70.8,83.3z"/>
	<polygon fill="#F6F6F6" points="88,72.1 83,72.1 83,69.5 96.1,69.5 96.1,72.1 91.1,72.1 91.1,86.8 88,86.8 	"/>
	<rect x="97.6" y="69.5" fill="#F6F6F6" width="3.2" height="17.3"/>
	<path fill="#F6F6F6" d="M115.4,86.2c-0.7,0.4-2.4,0.8-4.5,0.8c-5.5,0-8.8-3.5-8.8-8.7c0-5.7,3.9-9.1,9.2-9.1c2.1,0,3.6,0.4,4.2,0.8
		l-0.7,2.5c-0.8-0.4-1.9-0.7-3.4-0.7c-3.5,0-6,2.2-6,6.4c0,3.8,2.2,6.2,6,6.2c1.3,0,2.6-0.3,3.4-0.6L115.4,86.2z"/>
</g>
</svg>
