<?xml version="1.0" encoding="utf-8"?>
<!-- Generator: Adobe Illustrator 27.0.0, SVG Export Plug-In . SVG Version: 6.00 Build 0)  -->
<svg version="1.2" baseProfile="tiny-ps" id="Layer_1" xmlns="http://www.w3.org/2000/svg" xmlns:xlink="http://www.w3.org/1999/xlink"
	 viewBox="0 0 60 60" xml:space="preserve"> 
	  	  <title>Lyft</title>
<rect fill="#FF00BF" width="60" height="60"/>
<path fill-rule="evenodd" fill="#FFFFFF" d="M47.5,23.5h-1.8c-0.8-4-5-6.7-9.3-5.1c-2.4,0.9-4.3,3.7-4.3,6.3v11.7h0.2l0,0
	c1.3-0.1,2.6-0.6,3.5-1.6s1.4-2.2,1.4-3.6h2.2V26h-2.1v-1.4c0-0.5,0.3-1.1,0.8-1.3c1.3-0.7,2.7,0.2,2.7,1.5v4.7c0,1.9,0.7,3.6,2,4.9
	c1.2,1.2,2.9,1.9,4.6,2h0.2v-5.1l0,0c-1,0-1.7-0.8-1.7-1.7v-0.9h1.7L47.5,23.5L47.5,23.5z M17.5,32V18.3h-5.1v12.9
	c0,3.5,2.3,5.1,4.5,5.1c0.6,0,1.3-0.1,1.9-0.4c0.1,0,0.2-0.1,0.2-0.1s-0.1-0.1-0.2-0.2C18,34.7,17.5,33.4,17.5,32z M25.7,30.3v-6.8
	h5.1v11.6c0,2.2-0.7,3.9-2.2,5.2c-1.3,1.1-3,1.7-4.9,1.7c-1.2,0-2.5-0.2-3.6-0.7v-4.6c0.2,0,0.3,0.1,0.3,0.1
	c0.8,0.4,1.6,0.6,2.4,0.6s1.5-0.2,2-0.5c0.6-0.4,0.9-0.9,1-1.5c-0.8,0.7-1.8,1-2.8,1c-2.4,0-4.3-1.9-4.3-4.3v-8.6h5.1v6.9
	c0,0.5,0.4,0.9,0.9,0.9C25.3,31.2,25.7,30.8,25.7,30.3z"/>
</svg>
