<?xml version="1.0" encoding="UTF-8"?>
<svg xmlns="http://www.w3.org/2000/svg" baseProfile="tiny-ps" version="1.2" viewBox="0 0 50 50">
  <!-- Generator: Adobe Illustrator 29.0.1, SVG Export Plug-In . SVG Version: 2.1.0 Build 192)  -->
  <title>SendGrid</title>
  <g>
    <path d="M30,10h-8c-1.1,0-2,.9-2,2v6c0,1.1.9,2,2,2h6c1.1,0,2,.9,2,2v6c0,1.1.9,2,2,2h6c1.1,0,2-.9,2-2V11c0-.5-.5-1-1-1h-9Z" fill="#51a9e3"/>
    <path d="M20,40h8c1.1,0,2-.9,2-2v-6c0-1.1-.9-2-2-2h-6c-1.1,0-2-.9-2-2v-6c0-1.1-.9-2-2-2h-6c-1.1,0-2,.9-2,2v17c0,.5.5,1,1,1h9Z" fill="#51a9e3"/>
  </g>
</svg>