<?xml version="1.0" encoding="utf-8"?>
<!-- Generator: Adobe Illustrator 24.0.0, SVG Export Plug-In . SVG Version: 6.00 Build 0)  -->
<svg version="1.2" baseProfile="tiny-ps" id="Layer_1" xmlns="http://www.w3.org/2000/svg" xmlns:xlink="http://www.w3.org/1999/xlink"
	 viewBox="0 0 60 60" xml:space="preserve">
<title>twilio-logomark-redArtboard 1</title>
<path fill="#F22F46" d="M30,15c-8.3,0-15,6.7-15,15s6.7,15,15,15s15-6.7,15-15S38.3,15,30,15z M30,41c-6.1,0-11-4.9-11-11
	s4.9-11,11-11s11,4.9,11,11S36.1,41,30,41z M36.8,26.3c0,1.7-1.4,3.1-3.1,3.1c-1.7,0-3.1-1.4-3.1-3.1c0-1.7,1.4-3.1,3.1-3.1l0,0
	C35.4,23.2,36.8,24.6,36.8,26.3z M36.8,33.7c0,1.7-1.4,3.1-3.1,3.1c-1.7,0-3.1-1.4-3.1-3.1c0-1.7,1.4-3.1,3.1-3.1l0,0
	C35.4,30.6,36.8,32,36.8,33.7z M29.4,33.7c0,1.7-1.4,3.1-3.1,3.1s-3.1-1.4-3.1-3.1c0-1.7,1.4-3.1,3.1-3.1C28,30.6,29.4,32,29.4,33.7
	z M29.4,26.3c0,1.7-1.4,3.1-3.1,3.1c-1.7,0-3.1-1.4-3.1-3.1c0-1.7,1.4-3.1,3.1-3.1C28,23.2,29.4,24.6,29.4,26.3z"/>
</svg>
