<?xml version="1.0" encoding="utf-8"?>
<!-- Generator: Adobe Illustrator 24.0.3, SVG Export Plug-In . SVG Version: 6.00 Build 0)  -->
<svg version="1.2" baseProfile="tiny-ps"
	 id="svg22" xmlns:cc="http://creativecommons.org/ns#" xmlns:dc="http://purl.org/dc/elements/1.1/" xmlns:inkscape="http://www.inkscape.org/namespaces/inkscape" xmlns:rdf="http://www.w3.org/1999/02/22-rdf-syntax-ns#" xmlns:sodipodi="http://sodipodi.sourceforge.net/DTD/sodipodi-0.dtd" xmlns:svg="http://www.w3.org/2000/svg"
	 xmlns="http://www.w3.org/2000/svg" xmlns:xlink="http://www.w3.org/1999/xlink" viewBox="0 0 216 216"
	 xml:space="preserve">
<title>Springoakscapital Tech</title>
<path fill="#FFFFFF" d="M216,216H0V0h216V216z"/>
<path fill="#92BF46" d="M84.7,95.1c0-6.7,0-13.4,0-20.2c0-0.8,0-1.6,0-2.4c0.1-2,0.9-3.8,2.1-5.5c1.5-2.1,3.5-3.6,6.1-4.2
	c3.2-0.8,6.1-0.1,8.7,1.8c2.1,1.5,3.5,3.5,4,6c0.1,0.5,0.2,1.1,0.2,1.6c0,10.4,0,20.8,0,31.2c0,0.3,0,0.7-0.1,1
	c-0.1,1.1-0.7,2-1.7,2.6c-1.8,1.2-3.6,2.4-5.4,3.6c-0.3,0.2-0.5,0.3-0.8,0.4c-0.4,0.2-0.6,0-0.7-0.4c-0.1-0.4-0.1-0.7-0.1-1.1
	c0-1.9,0-3.9,0-5.8c0-5.8,0-11.5,0-17.3c0-0.6,0-1.3-0.1-1.9c-0.2-1-0.9-1.5-1.8-1.4c-0.9,0.1-1.6,0.8-1.6,1.7c0,0.8,0,1.5,0,2.3
	c0,8.1,0,16.3,0,24.4c0,0.5,0,1-0.1,1.5c-0.1,0.9-0.6,1.6-1.4,2c-2,1.1-4.1,2.3-6.2,3.4c-0.2,0.1-0.5,0.2-0.8,0.1
	c-0.2-0.1-0.2-0.4-0.2-0.6c-0.2-3.6,0-7.3,0-10.9C84.7,103.1,84.7,99.1,84.7,95.1C84.7,95.1,84.7,95.1,84.7,95.1z M123.6,92.2
	c0.7-0.6,1.5-1.3,2.2-1.9c4-3.5,8-7,11.8-10.7c3.5-3.4,6.9-6.8,10.3-10.2c0.3-0.3,0.5-0.6,0.4-0.9c-0.1-0.4-0.6-0.5-1-0.5
	c-3.7-0.1-7.2,1.1-10.3,3c-2.1,1.3-4.1,2.6-6.2,4c-0.3,0.2-0.6,0.3-0.9,0.5c-0.4,0.2-0.6,0-0.7-0.4c-0.1-0.3-0.1-0.6-0.1-0.8
	c0-3.4,0-6.7,0-10.1c0-0.7-0.1-1.5-0.3-2.2c-1.2-4.6-6-7.5-10.9-6.3c-4.1,1-7.2,4.5-7.1,9.1c0,9.4,0,18.9,0,28.3c0,2.4,0,4.8,0,7.3
	c0,0.3,0,0.6,0.1,0.9c0.1,0.4,0.4,0.5,0.8,0.3c0.3-0.1,0.5-0.3,0.8-0.5c1.5-1.1,2.9-2.3,4.4-3.4c1-0.8,1.7-1.7,1.8-3
	c0-0.3,0-0.6,0-0.9c0-1.7-0.1-3.4-0.1-5.2c0-2.9,0-5.8,0.1-8.7c0-1.2,0-2.4,0-3.6c0-0.6,0.2-1.1,0.5-1.6c0.7-1,2-1,2.7,0
	c0.4,0.6,0.5,1.2,0.5,1.9c0,3.5,0,6.9,0,10.4c0,1.6,0,3.1,0,4.7c0,0.3,0,0.7,0.3,0.8C123.1,92.6,123.4,92.4,123.6,92.2z M55.3,115.1
	c0,3.7,0,7.4,0,11.1c0,0.5,0,1,0.1,1.4c0.1,0.6,0.3,0.9,0.9,1c0.3,0,0.5,0,0.8,0c1.9-0.1,3.8-0.3,5.6-0.6c0.7-0.1,1.3-0.2,2-0.4
	c0.9-0.2,1.1-0.6,1.2-1.4c0-0.5,0.1-1,0.1-1.5c0-4.3,0-8.6,0-12.8c0-1,0-2,0-3c0-0.3,0-0.6,0.1-0.9c0.2-0.8,0.8-1.3,1.5-1.2
	c0.9,0.1,1.5,0.5,1.7,1.4c0.1,0.4,0.1,0.9,0.1,1.4c0,2.2,0,4.3,0,6.5c0,2.8,0,5.6,0,8.4c0,0.3,0,0.6,0.1,0.9
	c0.1,0.4,0.3,0.6,0.7,0.5c0.3,0,0.6-0.1,0.9-0.2c2.3-0.9,4.5-1.9,6.8-2.8c1.2-0.5,1.7-1.4,1.7-2.6c0-5.7-0.1-11.4-0.1-17.1
	c0-1-0.2-1.9-0.4-2.9c-1.6-5.6-7.5-9.4-13.3-8.5c-4.8,0.8-8.1,3.6-9.7,8.2c-0.5,1.5-0.7,3.1-0.7,4.7
	C55.2,108.1,55.2,111.6,55.3,115.1C55.2,115.1,55.2,115.1,55.3,115.1z"/>
<path fill="#26476E" d="M146.7,102.5c0.2,0.1,0.3,0.2,0.5,0.3c2.9,1.3,5.7,2.7,8.6,4c0.6,0.3,1.1,0.6,1.6,0.9c3.1,2,4.4,5,4.4,8.6
	c0,1.9-0.8,3.5-2.1,5c-1.4,1.6-3.1,2.9-5.2,3.3c-1.4,0.3-2.8,0.2-4.1-0.1c-1.2-0.3-2.3-0.7-3.3-1.2c-4.4-2.1-8.8-4.1-13.2-6.2
	c-3.2-1.5-6.4-3-9.7-4.6c-1-0.5-1.1-0.8-0.3-1.6c1.4-1.4,2.8-2.7,4.1-4c0.7-0.7,1.6-0.8,2.5-0.3c1.2,0.6,2.4,1.2,3.6,1.7
	c2.2,1.1,4.5,2.1,6.7,3.2c0.6,0.3,1.2,0.5,1.8,0.6c0.9,0.2,1.6-0.2,1.9-1.2c0.2-0.6,0.1-1.1-0.4-1.5c-0.5-0.4-1-0.7-1.6-1
	c-3.1-1.5-6.2-2.9-9.3-4.3c-0.3-0.1-0.6-0.3-0.8-0.5c-0.3-0.2-0.3-0.4-0.1-0.8c0.1-0.2,0.3-0.4,0.5-0.6c8-8.2,15.5-16.8,22.8-25.7
	c0.5-0.6,1-1.3,1.5-1.9c0.2-0.3,0.5-0.5,0.7-0.8c0.4-0.4,0.7-0.3,1.1,0.1c0.1,0.1,0.2,0.2,0.2,0.3c1.5,2.1,2.6,4.3,3,6.9
	c0.5,2.7,0.1,5.4-0.9,8c-1.3,3.3-3.4,5.9-6.5,7.8c-2.4,1.5-4.8,3.1-7.3,4.6C147,101.7,146.7,102,146.7,102.5z M144.9,133.2
	c-0.2-2.7-1.3-4.9-3.2-6.7c-1.2-1.1-2.6-1.8-4-2.5c-4.5-2.1-9.1-4.2-13.6-6.3c-1.2-0.6-2.4-1.2-3.6-1.7c-1.1-0.5-2-0.4-2.9,0.4
	c-1.5,1.3-3.1,2.6-4.6,3.9c-0.3,0.3-0.6,0.6-0.9,1c-0.2,0.2-0.1,0.5,0.1,0.7c0.3,0.2,0.6,0.4,0.9,0.5c3.4,1.6,6.8,3.1,10.1,4.7
	c0.5,0.3,1,0.6,1.5,0.9c0.6,0.5,0.7,1.3,0.3,2c-0.4,0.7-1.1,1-1.9,0.7c-0.1,0-0.3-0.1-0.4-0.2c-4-1.9-8.1-3.8-12.1-5.6
	c-0.5-0.2-1-0.4-1.5-0.6c-0.5-0.2-1.1-0.1-1.5,0.3c-2,1.5-4.1,3-6.1,4.5c-0.2,0.1-0.3,0.3-0.5,0.4c-0.2,0.3-0.2,0.5,0,0.7
	c0.3,0.2,0.6,0.4,0.9,0.5c8,3.7,16.1,7.5,24.1,11.2c1.5,0.7,3.1,1.5,4.7,2.1c2.9,1,5.8,1,8.5-0.4c3.9-2,6-5.1,6-9.6
	C144.9,133.8,144.9,133.5,144.9,133.2z M181.4,101.8c-0.5-6.1-1.7-12.1-3.7-17.9c-2.9-8.5-7.4-16.1-13.2-23
	c-4.7-5.6-10.1-10.5-16.3-14.5c-10.7-6.8-22.4-10.7-35.1-11.7c-4-0.3-8.1-0.2-12.1,0.2c-3.5,0.3-6.9,0.9-10.3,1.8
	c-5.9,1.4-11.5,3.5-16.9,6.3c-7.3,3.8-13.7,8.8-19.3,14.8c-5.3,5.6-9.6,11.9-13,18.8c-2.7,5.7-4.6,11.7-5.8,17.9
	c-0.5,2.9-0.9,5.8-1.1,8.7c-0.2,3.2-0.3,6.3,0,9.5c0.3,3.4,0.8,6.8,1.4,10.2c0.6,3,1.5,5.9,3,8.6c1.7,3.1,3.9,5.8,7,7.7
	c3.2,2,6.7,2.8,10.3,3c4.2,0.2,8.2-0.4,12.2-1.5c5-1.3,9.8-3.4,14.4-5.8c7-3.6,13.5-7.9,19.8-12.6c6.4-4.8,12.5-10,18.3-15.4
	c6.3-5.8,12.3-11.9,17.9-18.3c4.7-5.3,9.3-10.8,13.8-16.3c-2.1,2.5-4.8,4.6-7.2,6.8c-2.3,2.2-4.6,4.4-6.9,6.6
	c-4.8,4.5-9.8,8.8-14.9,13c-7.5,6.2-15.3,12.1-23.6,17.3c-6.2,4-12.5,7.7-19.1,10.9c-4.6,2.2-9.3,4-14.2,5.4
	c-4,1.1-8.1,1.7-12.4,1.3c-1.8-0.2-3.5-0.7-5-1.5c-2.9-1.6-4.7-4.1-5.5-7.2c-1.1-4.1-1.8-8.4-2.1-12.6c-0.2-3.4-0.2-6.8,0.2-10.2
	c0.3-3,0.8-6,1.5-9c1.2-5.2,3-10.3,5.4-15c3.3-6.5,7.5-12.2,12.8-17.3c6.7-6.4,14.4-11.3,23.2-14.4c6.3-2.3,12.7-3.5,19.4-3.8
	c4.4-0.2,8.8,0,13.2,0.7c4.1,0.6,8.2,1.7,12.1,3.1c9.2,3.2,17.4,8.2,24.4,15.1c5.6,5.6,10.1,12,13.5,19.1c3.7,7.7,5.7,15.9,6.1,24.5
	c0.2,4.1,0,8.2-0.5,12.2c-0.6,4.4-1.5,8.6-3,12.8c-3.9,11.4-10.7,20.9-19.8,28.8c-6.8,5.8-14.6,9.9-23.1,12.6
	c-5.6,1.8-11.4,2.8-17.3,3c-2.6,0.1-5.2,0-7.8-0.2c-2.7-0.2-5.4-0.6-8-1.1c-6.6-1.3-12.8-3.6-18.6-6.9c-4.3-2.4-8.2-5.2-11.9-8.4
	c-0.5-0.4-0.9-0.9-1.2-1.5c-0.7-1.1-0.6-2.3,0.1-3.4c0.4-0.7,1-1.2,1.7-1.6c3.2-1.9,6.4-2.1,9.8-0.5c2.6,1.3,5.3,2.5,8,3.8
	c2.4,1.1,4.8,2.3,7.3,3.3c2.6,1.2,5.3,1.4,8.1,0.7c7.3-2,10.7-9.4,8.3-15.9c-1.2-3.2-3.4-5.4-6.4-6.8c-0.9-0.4-1.9-0.8-2.8-1.3
	c-1-0.5-2-0.5-2.9,0.1c-2.5,1.5-5,2.9-7.5,4.3c-0.3,0.2-0.6,0.3-0.9,0.5c-0.4,0.3-0.4,0.7,0.1,1c0.3,0.2,0.7,0.3,1,0.5
	c1.4,0.7,2.8,1.4,4.3,2.1c0.4,0.2,0.7,0.4,1,0.7c0.6,0.5,0.7,1.3,0.3,1.9c-0.3,0.7-1,1-1.7,0.8c-0.3-0.1-0.6-0.2-0.9-0.3
	c-2.5-1.2-5.1-2.4-7.6-3.6c-0.6-0.3-1.2-0.4-1.8-0.4c-0.7,0-1.4,0.3-2,0.6c-2.7,1.1-5.5,2.2-8.3,2.9c-4.6,1.3-9.2,1.9-13.9,1.7
	c-0.3,0-0.6,0-0.9,0c-0.6,0.1-1,0.4-1.2,1c-0.1,0.3-0.3,0.7-0.4,1.1c-0.3,1.2-0.6,2.4-0.5,3.6c0.3,2.8,1.4,5.3,3.4,7.3
	c2,2,4.2,4,6.4,5.7c6.7,5.2,14.2,9.1,22.2,11.9c4.3,1.5,8.7,2.5,13.2,3.1c12.6,1.7,25.6,0,37.5-4.6c8.8-3.4,16.7-8.6,23.5-15.1
	c4.6-4.4,8.6-9.2,11.9-14.6c7-11.5,10.7-24.4,10.8-37.9C181.7,106.3,181.6,104,181.4,101.8z"/>
</svg>
