<?xml version="1.0" encoding="UTF-8"?>
<svg id="Ebene_1" xmlns="http://www.w3.org/2000/svg" baseProfile="tiny-ps" version="1.2" viewBox="0 0 96 96">
<title>HanseMerkur Krankenversicherung AG</title>
  <rect x=".0614" width="96" height="96" fill="#fff" stroke-width="0"/>
  <g>
    <path d="M53.3586,29.5608c0-.8806.714-1.5944,1.5946-1.5944s1.5945.7138,1.5945,1.5944-.7138,1.5946-1.5945,1.5946-1.5946-.7139-1.5946-1.5946ZM41.7414,28.9288c.8807,0,1.5946-.7138,1.5946-1.5944s-.7139-1.5946-1.5946-1.5946-1.5945.7138-1.5945,1.5946.7139,1.5944,1.5945,1.5944ZM57.6317,36.0473c0-2.811-3.8586-5.0678-8.5155-5.0678-.8381,0-1.6476.0722-2.4126.2065-.0818.0143-.1407.0862-.1407.1692v1.0196c0,.0986.0869.1744.185.164,2.1956-.2317,3.9933-.0632,5.5109.4301.0722.0235.1195.0925.1172.1685l-.151,4.877c-1.2186.2652-2.5724.4138-4.0001.4138-2.761,0-5.2472-.5539-7.0048-1.4393l-.0096-1.0495c.795.3754,1.8932.7464,2.974.9749l-.1709-5.9242c-.0021-.0735.042-.1408.1111-.1659,1.5835-.5773,3.6004-.8947,5.8306-.8316.0964.0027.1766-.0738.1766-.1701l.0037-.961c0-.0917-.0717-.1677-.1633-.1715-.3348-.014-.6741-.0212-1.0174-.0212-5.7751,0-10.4568,2.0017-10.4568,4.4709,0,.6515.3278,1.2701.9139,1.8283l1.1862,11.3652c.0088.0848.0803.1492.1656.1492h3.547c.094.0001.1694-.0778.1664-.1718l-.2136-6.5274c.4137.0889.8419.1652,1.2841.2258l.5929,9.7007c.0054.0878.0782.1564.1662.1564h3.8364c.088,0,.1607-.0686.1662-.1564l.5929-9.7007c1.6706-.2295,3.1615-.6746,4.3264-1.2588l-.0062,1.0426c-.8599.5273-1.9109.9424-3.0864,1.2051l-.1649,5.3129c-.0029.0938.0724.1716.1664.1716h3.5472c.0853,0,.1567-.0645.1656-.1493l.8296-7.9594c.6071-.6968.9518-1.4957.9518-2.3267ZM49.8187,35.8247c0-.8806-.7138-1.5946-1.5945-1.5946s-1.5946.7139-1.5946,1.5946.7139,1.5946,1.5946,1.5946,1.5945-.7139,1.5945-1.5946Z" fill="#00a075" stroke-width="0"/>
    <path d="M37.0168,60.3681c.3019.3269.4524.7568.4524,1.2896,0,.6631-.2559,1.1756-.7692,1.5384-.5126.3612-1.1812.5422-2.005.5422-.9806,0-1.7655-.22-2.356-.6584-.0164-.0125-.0265-.0328-.0265-.0538v-1.5243c0-.0695.0795-.1053.1334-.0609.2895.2379.6171.4275.9823.571.422.1654.8246.2489,1.2061.2489.6639,0,.9954-.1912.9954-.5726,0-.1716-.0601-.3019-.181-.3924-.1209-.0897-.3167-.181-.5874-.2715l-.6491-.1802c-.6233-.1716-1.0984-.4159-1.4245-.7318-.3269-.3175-.49-.7513-.49-1.3044,0-.6428.2458-1.1562.7389-1.5376.4923-.3823,1.1257-.5726,1.8996-.5726.8012,0,1.5088.1935,2.1251.5827.0195.0117.0311.0336.0311.0569v1.5033c0,.0671-.0771.1023-.131.0625-.6491-.4853-1.2942-.7287-1.9348-.7287-.2715,0-.4899.0508-.656.1506-.1654.1013-.2489.2418-.2489.422,0,.1716.0554.2997.1661.3854.11.0851.2965.1678.5578.2482l.7536.2262c.6436.181,1.1155.4354,1.4175.7614ZM22.4944,57.3749c.5031.4532.7544,1.0914.7544,1.9152v4.1137c0,.1014-.0819.1841-.1841.1841h-1.4261c-.1022,0-.1841-.0826-.1841-.1841v-.1778c-.121.1208-.3347.2309-.6405.3315-.3074.1006-.6358.1505-.9876.1505-.7037,0-1.295-.1965-1.7717-.5874-.4775-.3924-.7162-.9252-.7162-1.5986,0-.6334.2488-1.1507.7458-1.5533.4977-.4017,1.1187-.603,1.8621-.603.6436,0,1.1461.1311,1.5081.3916v-.3767c0-.3215-.1335-.5781-.3995-.7685-.2668-.1912-.6358-.2871-1.1086-.2871-.6233,0-1.1959.1561-1.7162.4665-.0546.0328-.1233-.0046-.1233-.0679v-1.4314c0-.0227.0125-.0446.032-.057.5875-.3589,1.3262-.5376,2.2148-.5376.9245,0,1.6383.2256,2.1407.6772ZM21.4545,61.2662c-.0804-.1818-.2309-.3246-.4526-.4306-.2208-.1053-.4673-.1583-.7388-.1583-.3214,0-.6007.0709-.837.2114-.2356.1411-.3543.3472-.3543.6186,0,.2707.1155.4767.3473.6179.2308.1411.5125.2114.844.2114.2715,0,.518-.0531.7388-.1592.2216-.1053.3721-.2482.4526-.4291v-.4822ZM28.5518,56.6975c-.7638,0-1.3668.2551-1.8091.7684v-.4344c0-.1014-.0828-.1835-.1841-.1835h-1.5018c-.1022,0-.1841.082-.1841.1835v6.3721c0,.1013.0819.1841.1841.1841h1.5018c.1014,0,.1841-.0828.1841-.1841v-4.0833c.0702-.291.2184-.5195.4446-.6858.2262-.1654.4845-.2496.7763-.2496.362,0,.6358.1092.8215.3246.1865.2169.2793.5055.2793.8675v3.8266c0,.1013.0827.1841.1841.1841h1.5018c.1014,0,.1841-.0828.1841-.1841v-4.2183c0-.7544-.209-1.3574-.6256-1.8106-.4174-.4518-1.0032-.6772-1.7569-.6772ZM15.9396,54.653h-1.5625c-.1014,0-.1842.0819-.1842.1833v3.431h-4.0621v-3.431c0-.1014-.0827-.1833-.1841-.1833h-1.5618c-.1014,0-.1841.0819-.1841.1833v8.5675c0,.1014.0827.1841.1841.1841h1.5618c.1014,0,.1841-.0826.1841-.1841v-3.4475h4.0621v3.4475c0,.1014.0828.1841.1842.1841h1.5625c.1014,0,.1833-.0826.1833-.1841v-8.5675c0-.1014-.0819-.1833-.1833-.1833ZM81.862,56.848h-1.5167c-.1013,0-.1841.082-.1841.1835v4.0979c-.0702.2919-.2161.5204-.4369.6858-.2215.167-.4774.2496-.7692.2496-.362,0-.6335-.1052-.8145-.3168-.181-.2106-.2715-.5031-.2715-.8745v-3.8421c0-.1014-.0819-.1835-.1833-.1835h-1.5025c-.1014,0-.1833.082-.1833.1835v4.2189c0,.7544.2083,1.3574.6256,1.8098.4166.4518.997.6779,1.7412.6779.7434,0,1.3473-.2566,1.8091-.7684v.4338c0,.1013.0827.1841.1841.1841h1.5018c.1022,0,.1841-.0828.1841-.1841v-6.3721c0-.1014-.0819-.1835-.1841-.1835ZM67.6141,56.8034c-.1435-.0703-.3706-.1062-.6819-.1062-.6833,0-1.1857.3738-1.5072.9167v-.582c0-.1013-.0826-.1841-.1849-.1841h-1.501c-.1014,0-.1841.0828-.1841.1841v6.3714c0,.1022.0826.1849.1841.1849h1.5018c.1014,0,.1841-.0828.1841-.1849v-3.9927c.0702-.3011.2208-.5344.4517-.7014.2317-.1654.5079-.248.83-.248.3152,0,.5875.0546.8169.1622.0554.0266.1178-.0093.1178-.0702v-1.7022c0-.0204-.0094-.0391-.0273-.0476ZM72.1987,59.9387l2.6337-2.9029c.0655-.0718.014-.188-.0835-.188h-1.9503c-.0265,0-.0523.0117-.0695.032l-2.2795,2.6368v-4.6808c0-.1014-.0819-.1833-.1841-.1833h-1.5018c-.1014,0-.1841.0819-.1841.1833v8.5675c0,.1022.0827.1849.1841.1849h1.5018c.1022,0,.1841-.0828.1841-.1849v-2.9223l2.3997,3.0714c.018.0218.0445.0359.0726.0359h1.9098c.0944,0,.1466-.1085.0889-.1833l-2.7219-3.4661ZM43.664,57.6019c.5125.6031.7692,1.4167.7692,2.4426v.5383c0,.0359-.0289.0647-.0648.0647h-4.2782c.0702.5227.2816.9121.6335,1.1679.3519.2567.7895.3854,1.3122.3854.628,0,1.2302-.1708,1.8067-.5125.0547-.032.1233.0039.1233.0671v1.3614c0,.0203-.0102.0405-.0281.0537-.5305.3784-1.2599.568-2.189.568-1.0352,0-1.8693-.3113-2.5027-.9354-.6335-.6225-.9494-1.4675-.9494-2.5323,0-1.0555.2956-1.9152.8894-2.5782.5929-.6639,1.352-.9947,2.2764-.9947.9549,0,1.689.3004,2.2016.9041ZM42.699,59.4259c-.0203-.3713-.1334-.6709-.3394-.8963-.2059-.227-.4899-.3395-.8519-.3395-.6936,0-1.1461.412-1.3567,1.2358h2.548ZM61.5617,57.6019c.5126.6031.7692,1.4167.7692,2.4426v.5383c0,.0359-.0289.0647-.0648.0647h-4.2774c.0702.5227.2809.9121.6327,1.1679.3519.2567.7888.3854,1.3122.3854.628,0,1.2303-.1708,1.8068-.5125.0546-.032.1233.0039.1233.0679v1.3607c0,.0203-.0101.0405-.0281.0537-.5305.3784-1.2599.568-2.1883.568-1.036,0-1.87-.3113-2.5034-.9354-.6335-.6225-.9503-1.4675-.9503-2.5323,0-1.0555.2966-1.9152.8902-2.5782.5929-.6639,1.3519-.9947,2.2764-.9947.9549,0,1.689.3004,2.2016.9041ZM60.5966,59.4259c-.0203-.3713-.1334-.6709-.3393-.8963-.206-.227-.4899-.3395-.8519-.3395-.6936,0-1.1453.412-1.3567,1.2358h2.5479ZM87.8947,56.8034c-.1435-.0703-.3705-.1062-.6811-.1062-.6842,0-1.1866.3738-1.508.9167v-.5827c0-.1014-.0827-.1833-.1841-.1833h-1.5018c-.1014,0-.1841.0819-.1841.1833v6.3721c0,.1022.0828.1849.1841.1849h1.5018c.1014,0,.1841-.0828.1841-.1849v-3.9927c.0702-.3011.2208-.5344.4525-.7014.2309-.1654.5071-.248.8292-.248.3152,0,.5874.0546.8168.1622.0554.0266.1178-.0093.1178-.0702v-1.7022c0-.0204-.0093-.0391-.0273-.0476ZM54.6421,54.6525h-1.4799c-.0624,0-.1209.0321-.1545.0843l-2.7352,4.2884-2.7507-4.2884c-.0336-.0522-.092-.0843-.1545-.0843h-1.5096c-.1022,0-.1841.0828-.1841.1833v8.5675c0,.1022.0819.1849.1841.1849h1.5166c.1014,0,.1841-.0828.1841-.1849v-5.4641l2.6688,3.981h.0601l2.6384-3.981v5.4641c0,.1022.0827.1849.1841.1849h1.5322c.1014,0,.1841-.0828.1841-.1849v-8.5675c0-.1006-.0827-.1833-.1841-.1833Z" fill="#00a075" stroke-width="0"/>
  </g>
</svg>