<?xml version="1.0" encoding="UTF-8" standalone="yes"?>
<svg version="1.2" baseProfile="tiny-ps" viewBox="0 0 85 85" xml:space="preserve" xmlns="http://www.w3.org/2000/svg">
  <title>bimi-svg-tiny-12-ps</title>
  <g id="Logos_x2F_Veepee_x2F_Logo_x5F_Veepee">
    <g id="Veepee">
      <path id="Fill-14" fill-rule="evenodd" fill="#EC008C" d="M58.6,37.6c-0.3-3-1-5.8-2.1-8.3c1.9-3.9,3.8-5.3,3.8-5.3&#xA;&#x9;&#x9;&#x9;s3.9,10,0.5,20.3c-2.1,6.4-4.7,10.2-6,11.9c-0.3,0.4-0.6,0.5-0.4,0.3C57.5,52.2,59.3,45.3,58.6,37.6 M61.7,49.8&#xA;&#x9;&#x9;&#x9;c-1.6,1.9-3.2,3.8-5,5.2c-0.3,0.2-0.4,0.2-0.2,0c6.3-6.8,13.1-22,4.3-37c0,0-3.5,2.4-6.4,7.4c-2.8-4.4-6.9-8-12.1-11.3&#xA;&#x9;&#x9;&#x9;c0,0-13,14.4-7.2,35.4c-16.5,2.3-10.5,15-7.9,16.9c0.1,0.1,0.2,0,0.1-0.2c-0.9-1.4-3.5-6.4,1.8-11.2c2.9-2.6,8.9-3.2,8.9-3.2&#xA;&#x9;&#x9;&#x9;c-1.4-10-1.3-19.1,5.6-29.2c0.9,0.6,10.9,5,11.3,19.9c0.8,9.3-4,16.8-8.7,19.7c-8.3,4.5-17.7,6.7-25.8,8.6C19.7,71,20,71,20.4,71&#xA;&#x9;&#x9;&#x9;c19.3-0.8,36.4-9.5,43-17.8c1.3-1.6,1.8-3.3,1-4.3C63.6,47.8,62,49.3,61.7,49.8"/>
    </g>
  </g>
</svg>