<?xml version="1.0"?><svg version="1.2" baseProfile="tiny-ps" viewBox="0 0 300 300" xmlns="http://www.w3.org/2000/svg" xmlns:xlink="http://www.w3.org/1999/xlink"><title>boxxe</title><g><g fill="#0050ff" transform="matrix(.1 0 0 -.1 0 300)"><path d="M380 1601v-301h110v51l37-28 36-28h143l41 27 41 27 26 52 26 53v123l-11 34c-7 19-23 49-37 68l-25 33-45 20-45 20-57-4-58-4-36-27-35-27-3 102-3 103-52 3-53 3v-300zm312 10 28-31 1-28c2-48-3-76-17-104l-14-28-30-15c-38-20-75-19-111 2l-29 17-15 32c-19 41-19 87 0 128l15 31 28 18 27 18 45-5 44-4 28-31zm301 120c-22-11-55-34-72-52l-31-32-16-55-16-55 6-46 6-46 23-45 23-45 48-30 48-29 63-4 63-4 37 12c73 24 134 99 149 183l7 38-11 53-11 53-36 43-37 43-40 18-41 19h-120l-42-19zm155-95 28-14 14-28 15-27v-52l-1-51-19-26c-24-33-56-48-98-48h-33l-22 16c-12 8-29 28-37 44l-15 29v82l15 29c8 16 25 36 37 44l22 16h67l27-14zm1131 91-44-24-27-39-28-39-10-52-9-53 9-52 10-52 26-38 26-37 51-26 51-25h112l52 26 52 26 25 42c14 24 25 46 25 49 0 4-26 7-58 7h-59l-23-24-23-25-27-6-28-6-35 15-36 14-16 32-16 31 6 9 6 10h322l-6 66-5 66-28 41-29 40-44 24-44 23h-134l-44-23zm156-81 33-14 11-20c6-12 11-28 11-36v-16h-98c-54 0-101 3-105 6l-6 7 15 28 14 28 28 15c34 19 54 20 97 2zm-1138 81c4-7 41-56 82-110l73-97-58-77c-31-43-69-93-82-110l-24-33h148l17 28c9 15 29 42 45 61l28 33 45-60 44-61 55-2c30-2 87-1 125 0l70 2 30 37c17 20 39 47 50 60l20 24 44-61 44-61h147l-80 105c-44 57-80 109-80 113 0 5 36 57 80 115l80 107h-72l-73-1-43-59c-24-33-47-60-50-60-4 0-27 27-50 60l-44 60h-247l-46-60c-25-33-48-60-50-60s-25 27-50 60l-46 60h-140l8-13zm522-112 72-96-72-94c-39-52-73-95-75-95-3 0-127 158-138 178l-8 13 71 94c39 52 73 95 75 95s36-43 75-95zm333-452 3-58 233-3 232-2v120h-471l3-57z"/></g><g fill="#1c1c1a" transform="matrix(.1 0 0 -.1 0 300)"><path d="M380 1601v-301h110v51l37-28 36-28h143l41 27 41 27 26 52 26 53v123l-11 34c-7 19-23 49-37 68l-25 33-45 20-45 20-57-4-58-4-36-27-35-27-3 102-3 103-52 3-53 3v-300zm312 10 28-31 1-28c2-48-3-76-17-104l-14-28-30-15c-38-20-75-19-111 2l-29 17-15 32c-19 41-19 87 0 128l15 31 28 18 27 18 45-5 44-4 28-31zm301 120c-22-11-55-34-72-52l-31-32-16-55-16-55 6-46 6-46 23-45 23-45 48-30 48-29 63-4 63-4 37 12c73 24 134 99 149 183l7 38-11 53-11 53-36 43-37 43-40 18-41 19h-120l-42-19zm155-95 28-14 14-28 15-27v-52l-1-51-19-26c-24-33-56-48-98-48h-33l-22 16c-12 8-29 28-37 44l-15 29v82l15 29c8 16 25 36 37 44l22 16h67l27-14zm1131 91-44-24-27-39-28-39-10-52-9-53 9-52 10-52 26-38 26-37 51-26 51-25h112l52 26 52 26 25 42c14 24 25 46 25 49 0 4-26 7-58 7h-59l-23-24-23-25-27-6-28-6-35 15-36 14-16 32-16 31 6 9 6 10h322l-6 66-5 66-28 41-29 40-44 24-44 23h-134l-44-23zm156-81 33-14 11-20c6-12 11-28 11-36v-16h-98c-54 0-101 3-105 6l-6 7 15 28 14 28 28 15c34 19 54 20 97 2zm-1138 81c4-7 41-56 82-110l73-97-58-77c-31-43-69-93-82-110l-24-33h148l17 28c9 15 29 42 45 61l28 33 45-60 44-61 55-2c30-2 87-1 125 0l70 2 30 37c17 20 39 47 50 60l20 24 44-61 44-61h147l-80 105c-44 57-80 109-80 113 0 5 36 57 80 115l80 107h-72l-73-1-43-59c-24-33-47-60-50-60-4 0-27 27-50 60l-44 60h-247l-46-60c-25-33-48-60-50-60s-25 27-50 60l-46 60h-140l8-13zm522-112 72-96-72-94c-39-52-73-95-75-95-3 0-127 158-138 178l-8 13 71 94c39 52 73 95 75 95s36-43 75-95z"/></g></g></svg>