<svg xmlns="http://www.w3.org/2000/svg" xmlns:xlink="http://www.w3.org/1999/xlink" version="1.2" viewBox="0 0 96 96" baseProfile="tiny-ps">
  <title>Bluesun Hotels and Resorts</title>
  <g>
    <path d="M8.54,53.162c0.457,0.168,0.89,0.289,1.309,0.373c0.419,0.079,0.834,0.121,1.244,0.121   c1.328,0,2.358-0.368,3.09-1.104c0.731-0.741,1.1-1.785,1.1-3.145c0-1.319-0.354-2.363-1.063-3.127   c-0.713-0.764-1.673-1.146-2.884-1.146c-0.48,0-0.951,0.079-1.412,0.233c-0.457,0.154-0.918,0.391-1.384,0.708L8.54,53.162   L8.54,53.162L8.54,53.162z M6,55.114V36.601h2.54v7.195c0.475-0.336,0.979-0.587,1.524-0.746c0.54-0.159,1.141-0.237,1.808-0.237   c1.836,0,3.309,0.596,4.422,1.794c1.11,1.198,1.664,2.791,1.664,4.777c0,2.101-0.625,3.728-1.869,4.874   c-1.249,1.146-3.01,1.719-5.285,1.719c-0.764,0-1.538-0.07-2.325-0.21C7.692,55.622,6.867,55.408,6,55.114L6,55.114L6,55.114z    M20.484,55.702V36.601h2.512v19.101L20.484,55.702L20.484,55.702z M51.33,54.365c-0.839,0.536-1.701,0.941-2.586,1.211   c-0.89,0.265-1.804,0.4-2.754,0.4c-1.99,0-3.584-0.615-4.772-1.85c-1.188-1.235-1.781-2.88-1.781-4.935   c0-1.888,0.574-3.416,1.715-4.59c1.142-1.174,2.633-1.762,4.469-1.762c1.822,0,3.267,0.597,4.33,1.789   c1.067,1.193,1.598,2.801,1.598,4.833v0.368h-9.451c0.075,1.193,0.466,2.125,1.174,2.796c0.709,0.667,1.664,1.002,2.852,1.002   c0.802,0,1.64-0.149,2.507-0.442c0.872-0.299,1.771-0.746,2.698-1.347L51.33,54.365L51.33,54.365L51.33,54.365z M42.098,48.041   l6.678-0.014c-0.084-0.909-0.415-1.641-0.997-2.195c-0.583-0.555-1.309-0.834-2.186-0.834c-0.965,0-1.743,0.256-2.335,0.769   C42.666,46.284,42.279,47.039,42.098,48.041L42.098,48.041L42.098,48.041z" fill="#004A80"/>
    <path d="M58.552,55.926h0.053c1.668,0,2.968-0.339,3.864-1.009c0.963-0.728,1.367-1.597,1.308-2.818   c-0.037-0.765-0.509-1.563-0.96-2.014c-0.86-0.86-2.583-1.537-3.149-1.76c-1.647-0.671-2.809-1.219-2.809-2.186   c0-0.614,0.469-0.903,0.695-1.042c0.313-0.193,0.991-0.294,1.498-0.294c0.759,0.003,1.594,0.215,2.163,0.393   c0.546,0.169,1.228,0.489,1.869,0.87l0.009-2.254c-0.632-0.294-1.257-0.512-1.902-0.664c-0.736-0.175-1.523-0.265-2.34-0.268h-0.04   c-1.474,0-2.668,0.352-3.547,1.046c-0.918,0.72-1.357,1.626-1.307,2.696c0.07,1.477,1.078,2.48,3.48,3.462   c0.165,0.068,0.293,0.118,0.387,0.155l0.07,0.028c1.002,0.412,1.581,0.654,1.897,0.869c0.04,0.027,0.084,0.054,0.128,0.082   c0.338,0.21,0.903,0.561,0.846,1.398c-0.022,0.321-0.185,0.896-1.034,1.145c-0.456,0.134-1.164,0.175-1.844,0.105   c-0.637-0.065-1.095-0.193-1.851-0.414c-0.572-0.166-1.217-0.475-1.861-0.821l-0.009,2.431c0.611,0.273,1.255,0.481,1.916,0.618   C56.863,55.839,57.694,55.922,58.552,55.926L58.552,55.926z" fill="#004A80"/>
    <path d="M34.548,54.159c-0.629,0.601-1.254,1.039-1.878,1.319c-0.624,0.275-1.295,0.415-2.013,0.415   c-1.375,0-2.456-0.397-3.248-1.189s-1.188-1.873-1.188-3.248v-8.369h2.54v7.727c0,1.02,0.214,1.775,0.648,2.26   c0.433,0.489,1.104,0.732,2.013,0.732c0.648,0,1.212-0.126,1.701-0.377c0.485-0.247,0.96-0.667,1.426-1.249v-9.092h2.512v12.615   h-2.512L34.548,54.159L34.548,54.159L34.548,54.159z" fill="#004A80"/>
    <path d="M82.672,44.821c0.629-0.601,1.254-1.039,1.878-1.319c0.624-0.275,1.295-0.415,2.013-0.415   c1.375,0,2.456,0.397,3.248,1.189C90.604,45.068,91,46.149,91,47.524v8.369h-2.54v-7.726c0-1.02-0.214-1.775-0.648-2.26   c-0.433-0.49-1.104-0.732-2.013-0.732c-0.648,0-1.212,0.126-1.701,0.377c-0.485,0.247-0.96,0.667-1.426,1.249v9.092H80.16V43.279   h2.512L82.672,44.821L82.672,44.821L82.672,44.821z" fill="#004A80"/>
    <path d="M74.468,54.159c-0.629,0.601-1.254,1.039-1.878,1.319c-0.624,0.275-1.295,0.415-2.013,0.415   c-1.375,0-2.456-0.397-3.248-1.189s-1.188-1.873-1.188-3.248v-8.369h2.54v7.727c0,1.02,0.215,1.775,0.648,2.26   c0.433,0.489,1.104,0.732,2.013,0.732c0.648,0,1.212-0.126,1.701-0.377c0.485-0.247,0.96-0.667,1.426-1.249v-9.092h2.512v12.615   h-2.512L74.468,54.159L74.468,54.159L74.468,54.159z" fill="#004A80"/>
  </g>
</svg>