<?xml version="1.0"?><svg version="1.2" baseProfile="tiny-ps" viewBox="0 0 300 300" xmlns="http://www.w3.org/2000/svg" xmlns:xlink="http://www.w3.org/1999/xlink"><title>RedBalloon</title><g><g fill="#fffffe" transform="matrix(.1 0 0 -.1 0 300)"><path d="M0 1515V30h2970v2970H0V1515z"/></g><g fill="#f8c2be" transform="matrix(.1 0 0 -.1 0 300)"><path d="M0 1515V30h2970v2970H0V1515zm1710 1169 85-25 74-42 75-42 71-70 71-70 38-64c20-35 49-98 64-140l27-76v-290l-19-60-20-60-8 110c-4 61-15 143-23 183l-17 73-38 77c-95 188-255 319-450 368l-65 17h-170l-65-17c-36-9-101-34-146-56l-80-39-67-61-66-61-46-69-46-70-29-79-30-80-11-89-12-88 11-84c6-47 10-86 8-87-1-1-15 9-31 21l-30 24-3 176-4 176 17 76 17 75 45 90 45 90 71 73 72 72 70 42 70 41 75 25c42 14 105 29 140 35l65 10 90-6 89-5 86-24zM706 1771c22-77 78-184 136-263l50-68 88-82c101-96 195-165 375-278l129-81 15 6c36 14 271 166 365 237l102 76 86 90 86 91 47 76 48 76 29 84c16 47 32 108 35 137l7 53 7-40 8-40-10-81c-34-295-211-519-613-778l-88-58 69-63 68-62 29-53 28-52 5-62 5-61-12-45-13-45-10 35c-5 19-16 55-25 80l-15 45-71 71-71 70-52 32-52 31-63-42c-35-23-86-64-114-92l-52-52-22-44-23-44-6-55-7-55-14 25-14 25v170l27 53 27 52 43 43c23 24 57 54 75 68l32 25-92 59c-141 90-278 197-362 280l-75 75-47 71c-56 85-100 187-119 277l-15 67 1 95 1 95 9-60c5-32 16-84 25-114zm1451-113-5-13v50l5-12c2-7 2-19 0-25zM1690 512v-58l-22-44-23-45-33-22-33-22-45-7-44-6-44 6-45 7-33 22-33 22-22 45-23 44v41c0 22 5 47 10 55l10 15v-34l32-37 33-37 32-13 32-14h99l34 15 35 14 32 36 31 36v39h20v-58z"/></g><g fill="#ef7e75" transform="matrix(.1 0 0 -.1 0 300)"><path d="M0 1515V30h2970v2970H0V1515zm1685 1181c33-9 103-37 155-63l95-46 86-86 86-86 41-85c23-47 49-114 59-150l16-65 1-110v-110l-18-65c-10-35-24-76-31-90l-14-25-1 117v117l-15 70c-43 206-172 379-354 475l-67 35-79 22-79 21-106-4-105-5-82-31-82-30-58-39c-32-21-85-65-118-99l-60-61-38-64-38-64-26-80-27-80v-140c-1-77 2-154 6-172l7-32-19 19c-11 11-24 20-29 20s-15 17-22 38l-12 37-1 165-1 165 18 65c9 36 36 103 59 150l41 85 86 85 86 86 72 37c87 46 138 64 223 82l65 14 110-4 110-3 60-16zm-981-906c10-36 35-101 57-145l39-81 66-82 66-83 79-68c98-85 224-175 370-263l110-67 107 66c155 95 275 181 371 264l83 72 64 80 63 81 41 80 40 81 20 79c11 44 21 102 21 130l1 51 8-30c4-16 8-61 9-100l1-70-19-90-18-90-31-67c-17-37-54-101-82-142l-52-75-81-78c-91-87-208-177-340-260l-88-56 38-31c63-50 111-106 138-159l25-51V539l-17-37-16-37-7 55-7 55-23 44-22 44-52 51c-28 28-77 69-109 91l-58 39-47-24-47-25-81-80-81-80-18-53-17-53 4-41 4-40-18 21-17 22-7 45c-4 26-4 72-1 104l5 59 28 52 29 52 67 61 68 62-143 96c-170 115-279 207-365 309l-62 74-44 85c-52 100-71 161-86 273l-12 82 8 75 8 75 7-70c4-38 14-99 23-135zm1453-147-5-18v70l5-17c2-10 2-26 0-35zM1365 472c15-12 46-27 69-33l41-11 45 6 44 6 39 26 39 26 17 39c9 21 19 39 24 39h7V449l-14-32c-16-39-61-82-99-96l-28-11h-118l-28 11c-38 14-83 57-99 96l-14 32v45c0 24 3 52 6 61l7 16 17-39 17-39 28-21z"/></g><g fill="#e73f31" transform="matrix(.1 0 0 -.1 0 300)"><path d="M0 1515V30h2970v2970H0V1515zm1676 1185c201-51 356-165 460-337l35-58 25-80 26-80 5-101 6-101-18-78c-9-43-25-96-35-119l-19-41v105c-2 238-58 398-190 542l-53 58-74 50-75 49-82 27-82 27-110 1-110 1-75-23c-41-13-104-40-140-59l-65-36-80-81-80-81-37-70c-20-38-47-104-59-145l-23-75-1-115c0-63 4-137 8-164l9-48-36 27-36 28-8 26-7 26v185l1 185 27 80c44 132 115 236 225 328l57 48 80 40 80 39 75 20 75 19h111l111 1 79-20zm-956-950c79-237 268-435 630-660 71-44 134-80 140-80 16 0 258 152 352 222 105 77 247 215 304 294 87 121 138 260 151 404l6 74 8-19c4-11 8-65 8-120l1-100-15-70c-56-265-227-468-597-709l-88-57 73-72 74-72 24-50 23-50V535l-19-40-18-40-7 56-7 57-22 45-22 46-69 64c-38 36-89 77-114 92l-45 27-58-38c-32-21-84-64-116-96l-58-57-21-48-21-48 1-59 2-58-23 28-22 28-4 83-3 83 16 46 16 46 36 47c19 26 57 65 84 86l49 39-128 86c-166 111-239 170-332 267-117 121-180 227-219 365l-21 73-6 96-6 95 8 50 8 49 13-95 12-95 22-65zm1446-72c-3-13-6-32-7-43l-1-20-8 28c-9 31-4 57 12 57h10l-6-22zM1338 503l13-23 42-22 42-21h56l56 1 29 15c39 20 70 54 88 97l14 35 11-29 11-28-6-48-6-48-22-38-22-39-44-25-45-24h-130l-42 22-41 22-21 28c-11 16-25 49-31 74l-12 45 13 44 12 44 11-30c6-16 17-40 24-52zm442-69v-15l-10 6c-5 3-10 10-10 16 0 5 5 9 10 9 6 0 10-7 10-16z"/></g></g></svg>