<?xml version="1.0" encoding="UTF-8" standalone="yes"?><svg xmlns="http://www.w3.org/2000/svg" xmlns:xlink="http://www.w3.org/1999/xlink" baseProfile="tiny-ps" version="1.2" viewBox="0 0 228 228"><title>MoneySuperMarket-bimi-logo</title><defs><linearGradient id="linear-gradient" x1="114" y1="0" x2="114" y2="228" gradientUnits="userSpaceOnUse"><stop offset="0" stop-color="#7a3f9d"></stop><stop offset=".5" stop-color="#590f85"></stop><stop offset="1" stop-color="#2f004b"></stop></linearGradient></defs><rect width="228" height="228" fill="url(#linear-gradient)" stroke-width="0"></rect><path d="M58.1,88.2h6.7l-.5-30.6,7.6,27.4,7.6-27.4-.5,30.6h6.7v-43.2h-8.7l-5.1,21.1-5.1-21.1h-8.7s0,43.2,0,43.2ZM98.7,50.8c2.2,0,4,.4,5.5,1.4,1.5,1,2.5,2.3,3.3,3.9.7,1.7,1,3.8,1,6.5v14.4c0,2.6-.3,4.8-1,6.6-.7,1.7-1.8,3.1-3.3,4-1.5.9-3.3,1.4-5.5,1.4s-3.9-.4-5.3-1.4c-1.5-.9-2.6-2.3-3.3-4-.8-1.7-1.1-3.9-1.1-6.6v-14.4c0-2.5.3-4.7,1.1-6.4.8-1.7,1.9-3.1,3.4-3.9,1.5-1,3.2-1.4,5.3-1.4h0ZM97.8,98.5h6.5v26.9c0,2.3-.3,4.2-1,5.8-.7,1.5-1.7,2.7-3.1,3.5-1.4.8-3.1,1.2-5.2,1.2s-4-.3-5.4-1.1c-1.4-.8-2.4-1.9-3.1-3.5-.7-1.6-1-3.5-1-5.9v-26.9h6.6v27.6c0,.9,0,1.7.3,2.3.2.6.5,1,.9,1.3.3.3,1,.4,1.8.4s1.1-.2,1.6-.4c.4-.3.8-.8,1-1.3.2-.6.3-1.3.3-2.3v-27.6h0ZM122,99.3c-1.3-.6-2.9-.9-4.7-.9h-9.6v36.7h6.6v-11.2h3.3c1.8,0,3.3-.3,4.6-.9s2.3-1.6,3-3,1-3.1,1-5.2v-7.7c0-2.1-.3-3.8-1-5.1-.7-1.3-1.7-2.3-3.1-2.9h0ZM119.6,115c0,1-.3,1.9-.8,2.4-.5.5-1.3.9-2.4.9h-2.1v-14.3h2.1c1.1,0,2,.3,2.4.9.5.6.8,1.3.8,2.3v7.9ZM144.6,98.5h-15.1v36.7h15.1v-5.8h-8.6v-10.4h7.8v-5.4h-7.8v-9.4h8.6v-5.6h0ZM157.3,98.5c2.8,0,5,.7,6.6,2.1,1.7,1.4,2.4,3.5,2.4,6.2v5.7c0,1.8-.4,3.4-1.2,4.6-.5.8-1.1,1.5-1.9,2h0c.3.2.5.3.8.5,1.7,1.4,2.4,3.5,2.4,6.2v9.3h-6.6v-11.5c0-.8-.3-1.5-.7-2-.4-.5-1.2-.8-2.3-.8h-2.4v14.3h-6.6v-36.7h9.4ZM154.5,115.6v-11.6h2.4c1,0,1.7.3,2.3.8.4.5.7,1.2.7,2v5.9c0,.9-.3,1.7-.7,2.1-.4.5-1.2.8-2.3.8h-2.4ZM102.1,78.1c0,1.2-.2,2.2-.4,2.9s-.6,1.2-1,1.6-1,.5-1.8.5-1.3-.2-1.7-.5-.8-.9-1-1.6c-.3-.7-.4-1.7-.4-2.9v-16.7c0-1.1.2-2,.4-2.8.3-.7.6-1.3,1-1.7s1-.6,1.7-.6,1.4.2,1.9.6c.4.3.9,1,1,1.7.3.7.3,1.7.3,2.8v16.7ZM131.3,51.5h-6.4v20.9l-6.2-20.9h-7v36.7h6.4v-20.6l6.2,20.6h7v-36.7ZM134.7,51.5h15.1v5.6h-8.6v9.4h7.8v5.4h-7.8v10.4h8.6v5.8h-15.1v-36.7h0ZM172,51.5h-6.6l-3.4,18.8-3.1-18.8h-6.8l6.6,26.6v10.1h6.6v-10.1l6.8-26.6ZM180.4,145.4v5.5h-5.2v31.2h-6.6v-31.2h-5.2v-5.5h17ZM160.5,145.4h-15.1v36.7h15.1v-5.8h-8.6v-10.4h7.8v-5.4h-7.8v-9.4h8.6v-5.6h0ZM136.5,161.3l7.3,20.8h-7.3l-4.3-13.7-2.9,4.5v9.2h-6.5v-36.6h6.5v17.1l6.5-17.2h7.3l-6.6,15.9h0ZM77.3,182.1l5.9-36.6h9.9l5.9,36.6h-6.6l-.9-6.3h-6.6l-.9,6.3h-6.6ZM85.5,170.1l2.4-18h.3l2.4,18h-5.2ZM110.4,145.4c2.8,0,5,.7,6.6,2.1,1.7,1.4,2.4,3.5,2.4,6.2v5.7c0,1.8-.4,3.4-1.2,4.6-.5.8-1.1,1.5-1.9,2h0c.3.2.5.3.8.5,1.7,1.4,2.4,3.5,2.4,6.2v9.3h-6.6v-11.5c0-.8-.3-1.5-.7-2s-1.2-.8-2.3-.8h-2.4v14.3h-6.6v-36.7h9.4,0ZM107.5,162.5v-11.6h2.4c1,0,1.7.3,2.3.8.4.5.7,1.2.7,2v5.9c0,.9-.3,1.7-.7,2.1-.4.5-1.2.8-2.3.8h-2.4ZM77.4,134.7c-1.6.8-3.4,1.1-5.3,1.1s-4.2-.3-5.8-1.1c-1.6-.8-2.7-1.9-3.5-3.5s-1.1-3.5-1.1-5.8v-4.4h6.6v4.4c0,.8,0,1.5.3,2.3.3.7.6,1.2,1.2,1.7.5.4,1.3.6,2.3.6s1.9-.3,2.5-1c.5-.7.9-1.6.9-2.6v-4.8c0-1.2-.2-2.2-.5-2.9s-.9-1.3-1.6-1.7c-.2-.2-1-.5-1.9-1h0c-2.3-1.2-5.7-3.1-6.3-3.7-1-.9-1.7-1.8-2.3-3.1s-.8-2.8-.8-4.6v-4.4c0-1.7.4-3.3,1.2-4.7s1.9-2.4,3.4-3.1c1.5-.7,3.2-1,5.2-1,3.2,0,5.8.9,7.4,2.7,1.7,1.8,2.5,4.3,2.5,7.5v3.9h-6.5v-3.9c0-1.3-.3-2.4-.8-3.1s-1.5-1.1-2.8-1.1-1.3.2-1.7.4-.8.6-1,1-.3,1-.3,1.5v4.4c0,1,.3,1.7.5,2.4.3.6.8,1,1.3,1.4.2,0,.9.5,1.8,1h0c2.1,1.1,5.2,2.8,6,3.5,1.2,1,2.1,2.2,2.8,3.6.6,1.4,1,3.1,1,5.1v5.1c0,1.9-.3,3.6-1.1,5-.8,1.4-2,2.5-3.6,3.3l-.2-.3ZM75.2,138.8h-8.7l-5.1,21.1-5.1-21.1h-8.7v43.2h6.7l-.5-30.6,7.6,27.4,7.6-27.4-.5,30.6h6.7s0-43.2,0-43.2Z" fill="#fff" fill-rule="evenodd" stroke-width="0"></path></svg>