<svg width="290" height="290" viewBox="0 0 290 290" fill="none" xmlns="http://www.w3.org/2000/svg" baseProfile="tiny-ps" version="1.2">
<title>Aalto logo</title>
<rect width="290" height="290" fill="#2E1829"/>
<path d="M143.153 112H157.931V156.334H166.551V171.112H155.468C146.847 171.112 143.153 167.418 143.153 158.797V112Z" fill="white"/>
<path d="M222.585 125.547C209.654 125.547 199.802 134.167 199.802 148.945C199.802 163.723 209.654 172.344 222.585 172.344C235.516 172.344 245.368 163.723 245.368 148.945C245.368 134.167 235.516 125.547 222.585 125.547ZM229.974 156.334H215.196V141.556H229.974V156.334Z" fill="white"/>
<path d="M196.107 141.556V126.778H187.487V112H172.709V126.778H164.088V141.507H172.709V158.797C172.709 167.418 176.403 171.112 185.024 171.112H196.107V156.334H187.487V141.544H196.107V141.556Z" fill="white"/>
<path d="M74.1886 139.093C72.9571 130.473 67.9819 125.547 60.6421 125.547C52.0216 125.547 44.6326 132.936 44.6326 148.945C44.6326 164.955 52.0216 172.344 60.6421 172.344C67.9203 172.344 72.9571 167.418 74.1886 158.797V171.112H88.9667V126.778H74.1886V139.093ZM74.1886 156.334H59.4106V141.556H74.1886V156.334Z" fill="white"/>
<path d="M122.217 126.778V139.093C120.986 130.473 116.01 125.547 108.671 125.547C100.05 125.547 92.6611 132.936 92.6611 148.945C92.6611 164.955 100.05 172.344 108.671 172.344C115.949 172.344 120.986 167.418 122.217 158.797V171.112H136.995V126.778H122.217ZM122.217 156.334H107.439V141.556H122.217V156.334Z" fill="white"/>
</svg>
