<?xml version="1.0" encoding="UTF-8" standalone="yes"?>
<svg version="1.2" baseProfile="tiny-ps" viewBox="0 0 1417.32 1417.32" xml:space="preserve" xmlns="http://www.w3.org/2000/svg">
  <title>Vino.com</title>
  <desc>Your online wine shop</desc>
  <rect x="-0.52" fill="#AA0E3E" width="1417.32" height="1417.32"/>
  <g>
    <path fill="#FFFFFF" d="M995.08,759.41c14.81,0,27.66-5.32,38.22-15.84c10.48-10.53,15.8-23.36,15.8-38.16&#xA;&#x9;&#x9;c0-14.84-5.34-27.61-15.91-37.99c-10.53-10.25-23.35-15.45-38.11-15.45c-14.83,0-27.58,5.23-37.89,15.54&#xA;&#x9;&#x9;c-10.32,10.33-15.55,23.08-15.55,37.9c0,14.77,5.21,27.59,15.48,38.09C967.42,754.06,980.2,759.41,995.08,759.41z"/>
    <path fill="#FFFFFF" d="M708.65,764.19c63.47,0,117.56-21.4,160.8-63.61c43.29-42.27,65.24-95.63,65.24-158.61&#xA;&#x9;&#x9;s-21.95-116.35-65.24-158.63c-43.23-42.22-97.33-63.62-160.8-63.62c-63.45,0-117.55,21.41-160.8,63.62l0,0&#xA;&#x9;&#x9;c-43.28,42.28-65.23,95.65-65.24,158.63c0,62.95,21.95,116.32,65.24,158.61C591.1,742.79,645.2,764.19,708.65,764.19z&#xA;&#x9;&#x9; M573.65,541.97c0-38.95,12.81-71.15,39.17-98.45c26.27-27.18,57.62-40.4,95.84-40.4c38.22,0,69.57,13.21,95.84,40.4&#xA;&#x9;&#x9;c26.35,27.26,39.15,59.46,39.15,98.45c0,38.96-12.81,71.15-39.16,98.42c-26.23,27.18-57.58,40.39-95.84,40.39&#xA;&#x9;&#x9;c-38.24,0-69.59-13.21-95.84-40.4C586.46,613.09,573.65,580.89,573.65,541.97z"/>
    <path fill="#FFFFFF" d="M1097.74,799.47l-2.96,4.51c-15.65,23.83-41.3,54.78-65.32,78.84c-85.74,85.66-199.67,132.84-320.8,132.87&#xA;&#x9;&#x9;c-121.13-0.03-235.06-47.21-320.8-132.86c-23.96-23.99-49.6-54.94-65.31-78.85l-2.96-4.51H224l8.05,14.78&#xA;&#x9;&#x9;c45.89,84.26,113.52,155.14,195.6,204.96c84.48,51.28,181.65,78.39,281.01,78.4c99.35-0.01,196.53-27.12,281.02-78.4&#xA;&#x9;&#x9;c82.09-49.83,149.73-120.7,195.6-204.96l8.05-14.78L1097.74,799.47L1097.74,799.47z"/>
  </g>
</svg>