<?xml version="1.0" encoding="UTF-8"?>
<svg xmlns="http://www.w3.org/2000/svg" baseProfile="tiny-ps" version="1.2" viewBox="0 0 96 96">
<!-- Generator: Adobe Illustrator 28.6.0, SVG Export Plug-In . SVG Version: 1.2.0 Build 709)  -->
<title>Skeb</title>
<desc>Skebのロゴタイプです。</desc>
<g>
<g id="logotype">
<rect y="0" width="96" height="96" fill="#fff"/>
<circle cx="48" cy="48" r="36" fill="#1e5e71"/>
<path d="M48,80c17.7,0,32-14.3,32-32s-14.3-32-32-32-32,14.3-32,32,14.3,32,32,32Z" fill="#30b396"/>
<path d="M34.6,25.5l-1.6,4.6,6.8,2.3,1.6-4.6-6.8-2.3Z" fill="#fff"/>
<path d="M29.9,39.2l-1.6,4.6,6.8,2.3,1.6-4.6-6.8-2.3Z" fill="#fff"/>
<path d="M25.2,52.8l-1.6,4.6,6.8,2.3,1.6-4.6-6.8-2.3Z" fill="#fff"/>
<path d="M26.4,71.6l.9-2.7-5-1.7c1.2,1.6,2.6,3.1,4,4.4Z" fill="#fff"/>
<path d="M39.9,24.8l4.5,1.6-3,9-4.6-1.6-1.6,4.6,4.6,1.6-3.1,9.1-4.6-1.6-1.6,4.6,4.6,1.6-3.1,9.1-4.6-1.6-1.5,4.6,4.6,1.6-2,5.9c1.3,1,2.7,1.9,4.2,2.8,5.7-16.8,11.4-33.7,17.2-50.4l-9.1-3.1-.8,2.3Z" fill="#fff"/>
<path d="M53.3,27l-17.3,50.7c5.9,2.4,12.4,3,18.6,1.7,6.2-1.3,11.9-4.4,16.4-9,4.4-4.6,7.4-10.3,8.5-16.6,1.1-6.3.4-12.7-2.2-18.5l-24-8.2Z" fill="#fff"/>
</g>
</g>
</svg>