<?xml version="1.0" encoding="utf-8"?>
<!-- Generator: Adobe Illustrator 27.8.1, SVG Export Plug-In . SVG Version: 6.00 Build 0)  -->
<svg version="1.2" baseProfile="tiny-ps" id="Capa_1" xmlns="http://www.w3.org/2000/svg" xmlns:xlink="http://www.w3.org/1999/xlink"
	 viewBox="0 0 693 693" xml:space="preserve">
	 <title>Bancolombia</title>
<rect x="0" y="0" fill="#2C2A29" width="693" height="693"/>
<g>
	<path fill="#FFFFFF" d="M530.3,253.3c-137.7,17.4-271.8,51.3-399,107.1c-9.3,4.5-14.7,15.9-12.9,26.1c5.1,26.1,10.2,45.9,15.3,72
		c2.1,11.1,12.6,16.2,23.1,11.4c129-58.8,265.5-96,405.6-118.5c9-1.5,13.5-11.7,9.9-21.9c-7.2-21.6-13.2-39-20.4-60.6
		C548.3,258.7,539.3,252.1,530.3,253.3z"/>
	<path fill="#FFFFFF" d="M531.2,406.6c-86.1,18.6-170.1,40.8-253.2,69.3c-10.5,3.9-16.5,15-13.8,25.2c6.6,24.3,12.6,42.9,19.2,67.2
		c3,11.4,16.2,17.4,27.9,12.9c83.1-29.7,167.4-55.5,253.2-76.2c8.1-2.1,12.3-11.7,9.3-21.6c-6.9-21.9-12.9-39.3-19.8-60.9
		C550.4,411.7,540.5,404.8,531.2,406.6z"/>
	<path fill="#FFFFFF" d="M198.8,255.4c2.7,10.2,13.2,15.6,23.7,12.3c87-26.7,174.3-44.7,264.3-57.9c10.2-1.5,15.9-12,12.3-22.5
		c-8.1-22.5-14.7-40.2-22.8-62.4c-3.6-9.3-12.9-15.6-22.5-14.7c-87.9,10.8-172.8,26.7-258,51.3c-11.1,3.6-18,15.9-15,26.7
		C186.5,212.2,192.5,231.1,198.8,255.4z"/>
</g>
</svg>
