<?xml version="1.0" encoding="UTF-8"?>
<svg version="1.2" baseProfile="tiny-ps" xml:space="preserve" xmlns="http://www.w3.org/2000/svg"
  viewBox="0 0 1080 1080">
  <title>VeeFriends</title>
    <g>
      <path d="M210.7,614.8h-40.9l-29.9-109.3h34.4l15.7,79.1h2l18.7-79.1h33.2l-33.2,109.3h0Z" fill="#343536" stroke-width="0"/>
      <path d="M311.8,582.1h-44.3c.8,3.4,2.7,6.7,5.7,8.7,3.5,2,7.5,3,11.7,2.7,8.2-.5,16.2-1.8,24.2-4.2l1.9-.7-4.4,24.9c-8.2,2.2-16.5,3.5-24.9,3.5-14,0-24.9-3.7-32.7-11.2-7.7-7.5-11.7-17.7-12-30.7,0-13,3.7-23.2,11.2-30.7,7.5-7.5,17.7-11.2,30.7-11.2s19.7,3,25.9,8.7c6.2,5.7,9.2,14,9.2,24.4s-.6,7.7-1.3,11.4l-1.1,4.4h0ZM286.3,563.1c0-6-2.5-9-7.5-9s-10,4-11.2,12l18.5.4.2-3.4h0Z" fill="#343536" stroke-width="0"/>
      <path d="M393.9,582.1h-44.3c.8,3.4,2.7,6.7,5.7,8.7,3.5,2,7.5,3,11.7,2.7,8.2-.5,16.2-1.8,24.2-4.2l1.9-.7-4.4,24.9c-8.2,2.2-16.5,3.5-24.9,3.5-14,0-24.9-3.7-32.7-11.2-7.7-7.5-11.7-17.7-12-30.7,0-13,3.7-23.2,11.2-30.7,7.5-7.5,17.7-11.2,30.7-11.2s19.7,3,25.9,8.7,9.2,14,9.2,24.4-.6,7.7-1.3,11.4l-1.1,4.4h0ZM368.3,563.1c0-6-2.5-9-7.5-9s-10,4-11.2,12l18.5.4.2-3.4h0Z" fill="#343536" stroke-width="0"/>
      <path d="M663.1,582.5h-44.3c.8,3.4,2.7,6.7,5.7,8.6,3.5,2,7.5,3,11.7,2.7,8.2-.5,16.2-1.8,24.2-4.2l1.9-.7-4.4,24.9c-8.2,2.2-16.5,3.5-25,3.5-14,0-25-3.7-32.7-11.2-7.7-7.5-11.7-17.7-12-30.7,0-13,3.7-23.2,11.2-30.7,7.5-7.5,17.7-11.2,30.7-11.2s19.7,3,26,8.7c6.2,5.7,9.2,14,9.2,24.4s-.6,7.7-1.3,11.4l-1.1,4.4h0ZM637.6,563.4c0-6-2.5-9-7.5-9s-10,4-11.2,12l18.5.4.2-3.4h0Z" fill="#00c08b" stroke-width="0"/>
      <path d="M439.2,531.4l-.5,19.7,33.6-.4-2.6,27.1-31.4-.5,1.2,37.7h-33.9v-109.5h75.6c0,0-2.7,26.9-2.7,26.9l-39.2-1h0Z" fill="#00c08b" stroke-width="0"/>
      <path d="M538,535.2l.2,32.8-3.5-2.3c-1.8-1-4-1.5-6-1.2-2.7,0-5.5.8-8,1.8-2.7,1.2-5.5,2.7-7.7,4.7l1.2,43.9h-32.7l.2-78.1,31.2-2v15h1.5c4.7-10,10.9-15.1,19.2-15.1,2.4-.1,3,.4,4.3.6h0Z" fill="#00c08b" stroke-width="0"/>
      <path d="M574.4,496c3,3.2,4.5,7.5,4.2,11.7.2,4.7-1.5,9.2-4.5,12.7-3.2,3.2-7.7,5-12.5,4.7-4.2.2-8.7-1.2-11.7-4.2-3-3.2-4.2-7.5-4-12-.2-4.7,1.5-9.5,4.7-12.7,3.2-3.2,7.7-5,12.5-4.7,4,0,8.2,1.5,11.2,4.5ZM546,536.9l32.9-2-.2,80.1h-32.9l.2-78.1h0Z" fill="#00c08b" stroke-width="0"/>
      <path d="M721.2,614.8l1.8-44.7c0-7-2.7-10.2-8-10.2s-5.5.8-8,2.2v17l1.2,35.4h-33.2l.2-78.1,31.2-2v11.7h1.2c5.5-5.7,12.1-9.5,19.6-12,8.6-1.5,15.1,1.5,19.6,5.2,4.5,4.2,7,10.2,6.5,16.5l.5,58.4-32.7.5h0Z" fill="#00c08b" stroke-width="0"/>
      <path d="M841.7,579.3l.2,10.2c0,1,0,2,.5,3,.2.5,1,1,1.8.8,1,0,2-.2,2.7-.5l2.5-.8-3.5,19.5c-4.7,3-10.2,4.7-15.7,5-3.5-.2-6.7-1.5-9.5-3.5-2.7-2.2-7.7-8.5-7.7-8.5-4.5,4.7-7.2,10.7-16,11.7-9.7.5-19-3.5-25.2-10.7-6-7.2-9.2-17-9.2-29.4s3.7-24.4,11.2-31.7c7.5-7.2,17.7-11,30.7-11s4.2.2,6.2.5l-.5-35.7,32.7-2.2-1.2,83.3h0ZM795.8,558.4c-1.5,2-2.5,5.1-2.5,10.9s1,14.3,2.5,17.6c1.2,3.2,4.2,5.2,7.5,5.2s5.7-1.2,8-3.5l.2-6-.2-25.4c-2.5-1-5-1.8-7.5-1.8-3-.2-6,.8-8,3h0Z" fill="#00c08b" stroke-width="0"/>
      <path d="M918.3,537.4l-4.8,26-3.1-2c-3.7-2.2-7.7-4.2-11.7-5.7-3-1.2-6.2-2-9.5-2s-4.5,1-4.5,3,1,3,2.5,3.7c2.7,1.5,5.5,2.5,8.5,3.5,4.2,1.5,8.2,3.2,12.2,5.2,3.2,1.8,6.2,4.5,8.5,7.5,2.5,3.5,3.7,8,3.5,12.2,0,4.7-1.2,9.7-3.7,13.7-2.7,4.5-7,8.2-12,10.2-6.5,2.7-13.5,4-20.5,3.7-9.7,0-19.5-1.5-28.7-4.5l4.9-27.7c4.2,3.2,10.5,7.2,15.5,9.2,4,1.8,8.2,2.7,12.5,3,3.2,0,4.7-1,4.7-3.2s-1-3-2.5-3.7c-2.7-1.5-5.5-2.7-8.5-3.5-4.2-1.5-8.2-3.2-12.2-5.2-3.2-1.8-6.2-4.2-8.5-7.5-2.5-3.7-3.7-8-3.5-12.5,0-5,1.5-10,4.2-14.5,3-4.5,7.5-8,12.5-10.2,6.2-2.7,12.7-4,19.5-3.7,9,.4,16.7,2.2,24.7,5h0Z" fill="#00c08b" stroke-width="0"/>
      <path d="M922.5,521.4h-2.7v-2h8v2h-2.7v7.5h-2.5v-7.5ZM930,519.4h3.2l2.2,6.2,2.2-6.2h3.2v9.5h-2.5v-6.2l-2.2,6.2h-1.8l-2.2-6.2v6.2h-2.5l.2-9.5h0Z" fill="#00c08b" stroke-width="0"/>
      <path d="M424,489.6c.8-.2,1.5-.2,2-.5,1.5-.2,3-.5,4.5-.8s3,0,4.2,0,1,0,1.5.2c.8,0,1.2.2,2,.8,1.2.5,2.2,1.2,3.2,2l1,1c.2.2.3.2.5.2,1.2-.8,2.7-.8,4.2-1,.8-.2,1.5-.2,2-.2,1,0,2,.8,2.5,1.8.8,1.2,1.5,2.7,1.8,4.2s.2,3,.2,4.5v5.2c0,1.2.2,2.7.2,4,0,2,0,3.7-.2,5.7,0,1.5-.5,3-1.2,4.2-.5.8-1.2,1.2-2.2,1.5-1.5.5-3.2,1-5,1s-1.5,0-2.5-.2c-1.2-.2-1.8-1-2-2.2,0-1-.2-2-.2-3s.2-1.2,1.2-1.2h1.8c.5.2.5.5.5,1s0,1,.2,1.5c0,.5.2.8.8.5h.5c1.5-.5,2.7-1,4-2.2s.8-1.2.8-2c0-1.5,0-2.7.2-4.2,0-2.5.2-5,.2-7.5s-.2-3.2-.5-5c0-.8-.5-1.5-.8-2.2-.5-1.2-1.5-1.8-2.7-2-.8,0-1.5-.2-2.2-.2,0,0,0,.2.2.2.2.8.5,1.2.8,2,.5,1.5.8,3,1,4.5.2,1.2.2,2.5.2,3.7s-.2.8-.8,1c-.8.2-1.5.2-2.2,0-.5-.2-1-.8-1-1.2v-4.2c0-.5-.2-.7-.8-.5h-.5v2.2c0,.8,0,1.5-.2,2.2,0,.5-.2.8-.5,1-.2.5-.8.5-1.2.5s-1.2,0-1.8-.2c-.2-.2-.5-.5-.5-1v-2c0-1.2,0-2.7-.2-4,0-.2-.2-.5-.5-.5-1.2-.2-2.5-.5-3.7-.8-1.8-.2-3.5,0-5.2,0-1.2.2-2.5.5-3.7.5-1.2.2-2.2.8-3.2,1.5,0,0-.2.2-.2.5,0,1,0,2,.2,3,0,.5.2,1,.2,1.5v1.8c0,.5-.2.5-.5.5-.8,0-1.2,0-2-.2-.2,0-.8,0-1-.2-.8-.2-.8-1-.8-1.5,0-1.8-.2-3.7-.2-5.5s0-.2-.2-.2h-1v5.2c0,.8-.2,1.5-.5,2,0,.2-.2.5-.8.5-1,0-2-.2-2.7-1-.5-.5-.5-1.2-.8-1.8,0-.8-.2-1.8-.2-2.5,0-2.7,0-5.2-.2-8v-1c0-.2,0-.5-.5-.5-1.2,0-2.5,0-3.7-.5-1.2-.5-2.2-1.5-3-2.5-.5-.8-.8-1.8-.8-2.7v-4.2c0-.8.2-1.2.2-2,.2-2,.5-4,.5-6,.2-2,.2-4,.5-6,0-.8.2-1.8.2-2.5s.2-.5.5-.2l.5.5c1,1.2,1.5,2.7,2,4.2.2.5.2.8.5,1.2.2,0,.5-.2.8-.2,1.2-.5,2.5-.8,3.7-1,1.2-.2,2.5-.2,3.7-.2s2.2.5,3.2.8c.5.2,1,.5,1.8,1,0-.2.2-.8.2-1,.5-1.2,1-2.7,1.5-4,.2-1,.8-1.8,1-2.7,0-.2.2-.5.5-.2.2,0,.2.2.5.2,0,.2.2.5.2.8v3.2c0,1.8.2,3.5.2,5.2s0,2.2.2,3.2c0,1.5,0,3,.2,4.5,0,1.8,0,3.2-.5,5-.2,1-.5,1.8-1.2,2.5.8.8,1.2,1.3,1,1.5h0ZM419.3,477.4l-.8-.8c-.2-.2-.3-.2-.5,0-.8.5-1.2,1.2-1.5,2v1.2c0,1,.5,1.5,1.5,1.5s1.2-.2,1.8-1c.2-.8.2-1.2.5-2,0-.2-.5-.8-1-1ZM411.8,476.6c-.8,0-1.2.5-2,.8-.2.2-.5.2-.8.5-.5.8-.8,1.8-.5,2.5.2,1.2,1.2,2,2.5,1.8.2,0,.5-.2.8-.2.5-.2.8-.5,1-1,0-.5.2-.8.2-1.2v-1.5c-.2-.5-.5-.8-.8-1.2,0-.2-.2-.2-.5-.2Z" fill="#000" stroke-width="0"/>
      <path d="M413,478.1v1.5c0,.5-.2.8-.2,1.2-.2.5-.5,1-1,1s-.5.2-.8.2c-1.2.2-2.2-.5-2.5-1.8-.2-1,0-1.8.5-2.5.2-.2.5-.5.8-.5.5-.5,1.2-.8,2-.8l1,1s.2.2.2.5Z" fill="#f1ea41" stroke-width="0"/>
      <path d="M419.3,477.4c.5.2,1,.8.8,1.2,0,.8-.2,1.2-.5,2s-1,1.2-1.8,1c-1-.2-1.5-.8-1.5-1.5v-1.2c0-1,.8-1.5,1.5-2,.2.2.5.5,1,.5s.5.2.5,0ZM418.3,478.4c-.2.2-.2.8-.2,1h.2c.2-.2.2-.5,0-1Z" fill="#f0e942" stroke-width="0"/>
      <path d="M413,478.1c-.2-.2-.3-.3-.5-.5l-1-1c.2,0,.5,0,.8.2.5.2.8.8.8,1.2Z" fill="#dedbb1" stroke-width="0"/>
      <path d="M419.3,477.4c-.2.2-.2,0-.2,0-.2-.2-.5-.5-1-.5.2-.2.3-.2.5,0,.2,0,.5.2.8.5Z" fill="#d7d696" stroke-width="0"/>
      <path d="M418.3,478.4c.2.5.2.8,0,1h-.2c.2-.2.2-.5.2-1Z" fill="#efed8f" stroke-width="0"/>
    </g>
</svg>