<?xml version="1.0" encoding="UTF-8"?>
<svg version="1.2" baseProfile="tiny-ps" id="Layer_1" xmlns="http://www.w3.org/2000/svg" xmlns:xlink="http://www.w3.org/1999/xlink" viewBox="0 0 160 160">
    <title>zkipster</title>
    <g>
        <!-- Generator: Adobe Illustrator 29.1.0, SVG Export Plug-In . SVG Version: 2.1.0 Build 142) -->
        <rect width="160" height="160" />
    </g>
    <g>
        <path d="M81.2,81.6s0,0-1.1-1.3l1.1,1.3h0s-1.1-1.3-1.1-1.3q1.1,1.3,1.1,1.3h0c0,0,0,0-.1.1-.1,0-.3.2-.5.4-.4.4-1.1.9-1.9,1.5-1.6,1.3-3.9,3.2-6.6,5.3-2.3,1.8-4.8,3.8-7.6,5.9h61v3.4H59.9c-2.6,1.9-5.3,3.8-8,5.7-7.3,5-14.8,9.5-20.5,11.5-2.8,1-5.5,1.5-7.7.9-1.2-.3-2.1-1-2.8-2.1-.7-1-.9-2.3-.9-3.7,0-4.2,2.9-7.1,6.5-9.1,3.6-2,8.4-3.4,13-4.4,4.6-1,9.2-1.5,12.7-1.8,1.7-.2,3.2-.2,4.2-.3.5,0,.9,0,1.2,0,.1,0,.2,0,.3,0,0,0,0,0,0,0,0,0,0,0,0,0h0s0,0,0,.6c0,0,0,0,0,0v-.6s0,0,0,0h.8c4.1-3,7.9-6,11.2-8.5,2.7-2.2,5-4,6.6-5.3.8-.7,1.4-1.2,1.8-1.5.2-.2.4-.3.5-.4,0,0,0,0,0,0h0c0,0,0,0,0,0h0s0,0,0,0c0,0,0,0,0,0,.1,0,.3-.2.5-.4.4-.4,1.1-.9,1.9-1.5,1.6-1.3,3.9-3.2,6.6-5.3,2.2-1.8,4.8-3.8,7.6-5.9h-61.2v-3.4h65.7c2.6-1.9,5.3-3.8,8-5.7,7.3-5,14.7-9.5,20.4-11.5,2.8-1,5.5-1.5,7.6-.9,1.1.3,2.1,1,2.8,2.1.6,1,.9,2.3.9,3.7,0,4.2-2.9,7.1-6.5,9.1-3.6,2-8.4,3.4-13,4.4-4.6,1-9.2,1.5-12.7,1.8-1.7.2-3.2.2-4.2.3-.5,0-.9,0-1.2,0-.1,0-.2,0-.3,0,0,0,0,0,0,0h0s0,0,0,0v-.5s0,0,0,0v.5s0,0,0,0h-.6c-4.1,3-7.9,6-11.1,8.5-2.7,2.2-5,4-6.6,5.3-.8.7-1.4,1.2-1.8,1.5-.2.2-.4.3-.5.4,0,0,0,0-.1.1h0ZM106.4,62.1c.3,0,.7,0,1.1,0,3.4-.3,7.8-.8,12.3-1.7,4.5-.9,8.8-2.2,12-4,3.2-1.8,4.8-3.9,4.8-6.2s-.2-1.6-.4-1.9c-.2-.3-.4-.5-.9-.6-1-.3-2.9-.1-5.5.8-5.2,1.9-12.3,6.1-19.6,11.1-1.2.8-2.5,1.7-3.7,2.6ZM53.7,98.6c-.4,0-.8,0-1.2,0-3.4.3-7.8.8-12.3,1.7-4.5.9-8.8,2.2-12,4-3.2,1.8-4.8,3.9-4.8,6.2s.2,1.6.4,1.9c.2.3.4.5.9.6,1,.3,2.9.1,5.6-.8,5.2-1.9,12.4-6.1,19.7-11.1,1.2-.8,2.5-1.7,3.7-2.6Z" fill="#fff" fill-rule="evenodd" />
    </g>
</svg>
