<?xml version="1.0" encoding="UTF-8" standalone="yes"?><svg xmlns="http://www.w3.org/2000/svg" xmlns:xlink="http://www.w3.org/1999/xlink" baseProfile="tiny-ps" version="1.2" viewBox="0 0 320 320"><title>Taonga</title><defs><linearGradient id="linear-gradient" x1="160" y1="320" x2="160" y2="0" gradientUnits="userSpaceOnUse"><stop offset="0" stop-color="#b8f6ff"></stop><stop offset=".5" stop-color="#94e7ff"></stop><stop offset="1" stop-color="#7ac0fb"></stop></linearGradient><linearGradient id="linear-gradient-2" x1="160.4" y1="204.3" x2="160.4" y2="110.3" gradientUnits="userSpaceOnUse"><stop offset="0" stop-color="#3b8d3a"></stop><stop offset=".4" stop-color="#6dbe4d"></stop><stop offset=".6" stop-color="#aee174"></stop></linearGradient></defs><g id="Layer_4"><rect y="0" width="320" height="320" fill="url(#linear-gradient)" stroke-width="0"></rect></g><g id="Layer_8_copy_2"><g><path d="M302.8,155.8c0-2.7-1.5-4.4-4.1-4.7-4.5-.5-10.4-.7-14.1-.5-12,.8-19.4,2.6-19.1,20.1.2,13.7,3.9,20.8,13.6,19.6,5.5-.7,9.7-3.3,12.3-7.4.4-.7,1-.6,1.1.3l.2,1c.5,2.7,2.2,4.1,4.8,3.9l2.3-.2c2.6-.2,3.8-1.6,3.7-4.2l-.7-28ZM289.7,173.4c-2.2,3.4-4.6,5.8-7.1,6-3.1.4-3.5-1.2-3.7-9.7-.2-8.3,1.8-9.4,6.5-9.8.8,0,1.8-.1,3-.2.9,0,1.4.4,1.4,1.3l.3,10.8c0,.6,0,1-.4,1.6ZM261.8,157.2c0-2.8-1.3-4.4-3.8-5-3.9-1-12.3-1.5-16.8-1.4-16.4.5-19.4,10.2-19,21,.4,11.4,4.3,17.9,14.7,18.1,4.6,0,7.7-1,10.9-2.3.8-.4,1.2-.2,1,.9,0,.4-.2,1.1-.5,1.7-.4,2.3-1.8,4.2-5.8,4.8-3.5.6-8.4.2-12.2.3-2.7,0-4.3,1.3-4.6,4.7-.2,3,.7,4.9,3.3,5.5,3.9.8,10.8.9,15.6.6h0c14.4-.8,18.4-10,18-21.7l-.8-27.2ZM247.3,178.5c-1.6.6-3.2,1-4.4,1-5.1.2-6.2-1.3-6.4-8.3-.2-8.1,1.1-10.3,5.3-10.6,1.2-.1,3.2,0,4.6.1,1.1.1,1.5.6,1.5,1.5l.5,14.7c0,.8-.4,1.4-1.2,1.6ZM209.8,150.1c-4.6-.5-9.8.5-14.7,2.5-1,.4-1.5.2-1.8-.7l-.2-.4c-.6-1.2-1.8-2.2-3.8-2.4l-2.8-.3c-2.8-.3-4.5,1.1-4.8,4l-2.9,29.2c-.3,2.9,1.1,4.5,4,4.8l5.1.5c2.8.3,4.5-1.1,4.8-4l2-20.4c0-.9.5-1.3,1.4-1.4,3-.6,5-.5,7-.3,2.3.2,3.1,1.1,2.8,3.6l-1.9,19.7c-.3,2.9,1.1,4.5,4,4.8l5.1.5c2.8.3,4.5-1.1,4.8-4l2.2-21.8c.8-8.5-2.7-13.2-10.3-13.9ZM108.4,150.6c-3.8-.6-11.1-.9-16.8-.6-12.8.6-18.6,3.8-19.3,19.8-.6,13.9,3.3,20.7,13.5,20,7.9-.6,11.4-5.2,13.3-7.2.7-.7,1.1-.4,1.2.5v.8c.5,2.8,2.2,4.2,5.1,4.1h2.4c2.7-.2,4.1-1.6,4.1-4.3l.5-28.3c0-3.8-2.7-4.5-4.1-4.8ZM98.3,171.2c0,.9-.1,1.3-.4,1.8-1.8,2.8-4.5,5.3-7.9,5.8-3.3.4-3.6-1.5-3.5-9.9.2-8.4,2.4-9.5,7.3-9.7h3.1c.9-.2,1.5.4,1.5,1.3l-.2,10.7ZM65,133.1c0-1.5.7-2.3,2.1-2.4l15-.8c4.5-.3,6.8-2.8,6.5-7.3l-.2-3.8c-.3-4.5-2.8-6.7-7.3-6.5l-57.4,3.2c-4.5.3-6.7,2.8-6.5,7.3l.2,3.8c.3,4.5,2.8,6.7,7.3,6.5l15-.8c1.5,0,2.3.7,2.4,2.1l3.2,57c.3,4.5,2.8,6.7,7.3,6.5l9.1-.5c4.5-.3,6.7-2.8,6.5-7.3l-3.2-57ZM146.1,138.6c-16.5,0-29.9,13.4-29.9,29.9s13.4,29.9,29.9,29.9,29.9-13.4,29.9-29.9-13.4-29.9-29.9-29.9Z" fill="#205126" stroke-width="0"></path><path d="M302.8,155.8c0-2.7-1.5-4.4-4.1-4.7-4.5-.5-10.4-.7-14.1-.5-12,.8-19.4,2.6-19.1,20.1.2,13.7,3.9,20.8,13.6,19.6,5.5-.7,9.7-3.3,12.3-7.4.4-.7,1-.6,1.1.3l.2,1c.5,2.7,2.2,4.1,4.8,3.9l2.3-.2c2.6-.2,3.8-1.6,3.7-4.2l-.7-28ZM289.7,173.4c-2.2,3.4-4.6,5.8-7.1,6-3.1.4-3.5-1.2-3.7-9.7-.2-8.3,1.8-9.4,6.5-9.8.8,0,1.8-.1,3-.2.9,0,1.4.4,1.4,1.3l.3,10.8c0,.6,0,1-.4,1.6ZM261.8,157.2c0-2.8-1.3-4.4-3.8-5-3.9-1-12.3-1.5-16.8-1.4-16.4.5-19.4,10.2-19,21,.4,11.4,4.3,17.9,14.7,18.1,4.6,0,7.7-1,10.9-2.3.8-.4,1.2-.2,1,.9,0,.4-.2,1.1-.5,1.7-.4,2.3-1.8,4.2-5.8,4.8-3.5.6-8.4.2-12.2.3-2.7,0-4.3,1.3-4.6,4.7-.2,3,.7,4.9,3.3,5.5,3.9.8,10.8.9,15.6.6h0c14.4-.8,18.4-10,18-21.7l-.8-27.2ZM247.3,178.5c-1.6.6-3.2,1-4.4,1-5.1.2-6.2-1.3-6.4-8.3-.2-8.1,1.1-10.3,5.3-10.6,1.2-.1,3.2,0,4.6.1,1.1.1,1.5.6,1.5,1.5l.5,14.7c0,.8-.4,1.4-1.2,1.6ZM209.8,150.1c-4.6-.5-9.8.5-14.7,2.5-1,.4-1.5.2-1.8-.7l-.2-.4c-.6-1.2-1.8-2.2-3.8-2.4l-2.8-.3c-2.8-.3-4.5,1.1-4.8,4l-2.9,29.2c-.3,2.9,1.1,4.5,4,4.8l5.1.5c2.8.3,4.5-1.1,4.8-4l2-20.4c0-.9.5-1.3,1.4-1.4,3-.6,5-.5,7-.3,2.3.2,3.1,1.1,2.8,3.6l-1.9,19.7c-.3,2.9,1.1,4.5,4,4.8l5.1.5c2.8.3,4.5-1.1,4.8-4l2.2-21.8c.8-8.5-2.7-13.2-10.3-13.9ZM108.4,150.6c-3.8-.6-11.1-.9-16.8-.6-12.8.6-18.6,3.8-19.3,19.8-.6,13.9,3.3,20.7,13.5,20,7.9-.6,11.4-5.2,13.3-7.2.7-.7,1.1-.4,1.2.5v.8c.5,2.8,2.2,4.2,5.1,4.1h2.4c2.7-.2,4.1-1.6,4.1-4.3l.5-28.3c0-3.8-2.7-4.5-4.1-4.8ZM98.3,171.2c0,.9-.1,1.3-.4,1.8-1.8,2.8-4.5,5.3-7.9,5.8-3.3.4-3.6-1.5-3.5-9.9.2-8.4,2.4-9.5,7.3-9.7h3.1c.9-.2,1.5.4,1.5,1.3l-.2,10.7ZM65,133.1c0-1.5.7-2.3,2.1-2.4l15-.8c4.5-.3,6.8-2.8,6.5-7.3l-.2-3.8c-.3-4.5-2.8-6.7-7.3-6.5l-57.4,3.2c-4.5.3-6.7,2.8-6.5,7.3l.2,3.8c.3,4.5,2.8,6.7,7.3,6.5l15-.8c1.5,0,2.3.7,2.4,2.1l3.2,57c.3,4.5,2.8,6.7,7.3,6.5l9.1-.5c4.5-.3,6.7-2.8,6.5-7.3l-3.2-57ZM146.1,138.6c-16.5,0-29.9,13.4-29.9,29.9s13.4,29.9,29.9,29.9,29.9-13.4,29.9-29.9-13.4-29.9-29.9-29.9Z" fill="none" stroke="#205126" stroke-linejoin="round" stroke-width="12"></path></g></g><g id="Layer_8_copy"><g><path d="M302.8,155.8c0-2.7-1.5-4.4-4.1-4.7-4.5-.5-10.4-.7-14.1-.5-12,.8-19.4,2.6-19.1,20.1.2,13.7,3.9,20.8,13.6,19.6,5.5-.7,9.7-3.3,12.3-7.4.4-.7,1-.6,1.1.3l.2,1c.5,2.7,2.2,4.1,4.8,3.9l2.3-.2c2.6-.2,3.8-1.6,3.7-4.2l-.7-28ZM289.7,173.4c-2.2,3.4-4.6,5.8-7.1,6-3.1.4-3.5-1.2-3.7-9.7-.2-8.3,1.8-9.4,6.5-9.8.8,0,1.8-.1,3-.2.9,0,1.4.4,1.4,1.3l.3,10.8c0,.6,0,1-.4,1.6ZM261.8,157.2c0-2.8-1.3-4.4-3.8-5-3.9-1-12.3-1.5-16.8-1.4-16.4.5-19.4,10.2-19,21,.4,11.4,4.3,17.9,14.7,18.1,4.6,0,7.7-1,10.9-2.3.8-.4,1.2-.2,1,.9,0,.4-.2,1.1-.5,1.7-.4,2.3-1.8,4.2-5.8,4.8-3.5.6-8.4.2-12.2.3-2.7,0-4.3,1.3-4.6,4.7-.2,3,.7,4.9,3.3,5.5,3.9.8,10.8.9,15.6.6h0c14.4-.8,18.4-10,18-21.7l-.8-27.2ZM247.3,178.5c-1.6.6-3.2,1-4.4,1-5.1.2-6.2-1.3-6.4-8.3-.2-8.1,1.1-10.3,5.3-10.6,1.2-.1,3.2,0,4.6.1,1.1.1,1.5.6,1.5,1.5l.5,14.7c0,.8-.4,1.4-1.2,1.6ZM209.8,150.1c-4.6-.5-9.8.5-14.7,2.5-1,.4-1.5.2-1.8-.7l-.2-.4c-.6-1.2-1.8-2.2-3.8-2.4l-2.8-.3c-2.8-.3-4.5,1.1-4.8,4l-2.9,29.2c-.3,2.9,1.1,4.5,4,4.8l5.1.5c2.8.3,4.5-1.1,4.8-4l2-20.4c0-.9.5-1.3,1.4-1.4,3-.6,5-.5,7-.3,2.3.2,3.1,1.1,2.8,3.6l-1.9,19.7c-.3,2.9,1.1,4.5,4,4.8l5.1.5c2.8.3,4.5-1.1,4.8-4l2.2-21.8c.8-8.5-2.7-13.2-10.3-13.9ZM108.4,150.6c-3.8-.6-11.1-.9-16.8-.6-12.8.6-18.6,3.8-19.3,19.8-.6,13.9,3.3,20.7,13.5,20,7.9-.6,11.4-5.2,13.3-7.2.7-.7,1.1-.4,1.2.5v.8c.5,2.8,2.2,4.2,5.1,4.1h2.4c2.7-.2,4.1-1.6,4.1-4.3l.5-28.3c0-3.8-2.7-4.5-4.1-4.8ZM98.3,171.2c0,.9-.1,1.3-.4,1.8-1.8,2.8-4.5,5.3-7.9,5.8-3.3.4-3.6-1.5-3.5-9.9.2-8.4,2.4-9.5,7.3-9.7h3.1c.9-.2,1.5.4,1.5,1.3l-.2,10.7ZM65,133.1c0-1.5.7-2.3,2.1-2.4l15-.8c4.5-.3,6.8-2.8,6.5-7.3l-.2-3.8c-.3-4.5-2.8-6.7-7.3-6.5l-57.4,3.2c-4.5.3-6.7,2.8-6.5,7.3l.2,3.8c.3,4.5,2.8,6.7,7.3,6.5l15-.8c1.5,0,2.3.7,2.4,2.1l3.2,57c.3,4.5,2.8,6.7,7.3,6.5l9.1-.5c4.5-.3,6.7-2.8,6.5-7.3l-3.2-57ZM146.1,138.6c-16.5,0-29.9,13.4-29.9,29.9s13.4,29.9,29.9,29.9,29.9-13.4,29.9-29.9-13.4-29.9-29.9-29.9Z" fill="#37933f" stroke-width="0"></path><path d="M302.8,155.8c0-2.7-1.5-4.4-4.1-4.7-4.5-.5-10.4-.7-14.1-.5-12,.8-19.4,2.6-19.1,20.1.2,13.7,3.9,20.8,13.6,19.6,5.5-.7,9.7-3.3,12.3-7.4.4-.7,1-.6,1.1.3l.2,1c.5,2.7,2.2,4.1,4.8,3.9l2.3-.2c2.6-.2,3.8-1.6,3.7-4.2l-.7-28ZM289.7,173.4c-2.2,3.4-4.6,5.8-7.1,6-3.1.4-3.5-1.2-3.7-9.7-.2-8.3,1.8-9.4,6.5-9.8.8,0,1.8-.1,3-.2.9,0,1.4.4,1.4,1.3l.3,10.8c0,.6,0,1-.4,1.6ZM261.8,157.2c0-2.8-1.3-4.4-3.8-5-3.9-1-12.3-1.5-16.8-1.4-16.4.5-19.4,10.2-19,21,.4,11.4,4.3,17.9,14.7,18.1,4.6,0,7.7-1,10.9-2.3.8-.4,1.2-.2,1,.9,0,.4-.2,1.1-.5,1.7-.4,2.3-1.8,4.2-5.8,4.8-3.5.6-8.4.2-12.2.3-2.7,0-4.3,1.3-4.6,4.7-.2,3,.7,4.9,3.3,5.5,3.9.8,10.8.9,15.6.6h0c14.4-.8,18.4-10,18-21.7l-.8-27.2ZM247.3,178.5c-1.6.6-3.2,1-4.4,1-5.1.2-6.2-1.3-6.4-8.3-.2-8.1,1.1-10.3,5.3-10.6,1.2-.1,3.2,0,4.6.1,1.1.1,1.5.6,1.5,1.5l.5,14.7c0,.8-.4,1.4-1.2,1.6ZM209.8,150.1c-4.6-.5-9.8.5-14.7,2.5-1,.4-1.5.2-1.8-.7l-.2-.4c-.6-1.2-1.8-2.2-3.8-2.4l-2.8-.3c-2.8-.3-4.5,1.1-4.8,4l-2.9,29.2c-.3,2.9,1.1,4.5,4,4.8l5.1.5c2.8.3,4.5-1.1,4.8-4l2-20.4c0-.9.5-1.3,1.4-1.4,3-.6,5-.5,7-.3,2.3.2,3.1,1.1,2.8,3.6l-1.9,19.7c-.3,2.9,1.1,4.5,4,4.8l5.1.5c2.8.3,4.5-1.1,4.8-4l2.2-21.8c.8-8.5-2.7-13.2-10.3-13.9ZM108.4,150.6c-3.8-.6-11.1-.9-16.8-.6-12.8.6-18.6,3.8-19.3,19.8-.6,13.9,3.3,20.7,13.5,20,7.9-.6,11.4-5.2,13.3-7.2.7-.7,1.1-.4,1.2.5v.8c.5,2.8,2.2,4.2,5.1,4.1h2.4c2.7-.2,4.1-1.6,4.1-4.3l.5-28.3c0-3.8-2.7-4.5-4.1-4.8ZM98.3,171.2c0,.9-.1,1.3-.4,1.8-1.8,2.8-4.5,5.3-7.9,5.8-3.3.4-3.6-1.5-3.5-9.9.2-8.4,2.4-9.5,7.3-9.7h3.1c.9-.2,1.5.4,1.5,1.3l-.2,10.7ZM65,133.1c0-1.5.7-2.3,2.1-2.4l15-.8c4.5-.3,6.8-2.8,6.5-7.3l-.2-3.8c-.3-4.5-2.8-6.7-7.3-6.5l-57.4,3.2c-4.5.3-6.7,2.8-6.5,7.3l.2,3.8c.3,4.5,2.8,6.7,7.3,6.5l15-.8c1.5,0,2.3.7,2.4,2.1l3.2,57c.3,4.5,2.8,6.7,7.3,6.5l9.1-.5c4.5-.3,6.7-2.8,6.5-7.3l-3.2-57ZM146.1,138.6c-16.5,0-29.9,13.4-29.9,29.9s13.4,29.9,29.9,29.9,29.9-13.4,29.9-29.9-13.4-29.9-29.9-29.9Z" fill="none" stroke="#2c7735" stroke-linejoin="round" stroke-width="8"></path></g></g><g id="Layer_8_copy_3"><g><path d="M302.8,153.8c0-2.7-1.5-4.4-4.1-4.7-4.5-.5-10.4-.7-14.1-.5-12,.8-19.4,2.6-19.1,20.1.2,13.7,3.9,20.8,13.6,19.6,5.5-.7,9.7-3.3,12.3-7.4.4-.7,1-.6,1.1.3l.2,1c.5,2.7,2.2,4.1,4.8,3.9l2.3-.2c2.6-.2,3.8-1.6,3.7-4.2l-.7-28ZM289.7,171.4c-2.2,3.4-4.6,5.8-7.1,6-3.1.4-3.5-1.2-3.7-9.7-.2-8.3,1.8-9.4,6.5-9.8.8,0,1.8-.1,3-.2.9,0,1.4.4,1.4,1.3l.3,10.8c0,.6,0,1-.4,1.6ZM261.8,155.2c0-2.8-1.3-4.4-3.8-5-3.9-1-12.3-1.5-16.8-1.4-16.4.5-19.4,10.2-19,21,.4,11.4,4.3,17.9,14.7,18.1,4.6,0,7.7-1,10.9-2.3.8-.4,1.2-.2,1,.9,0,.4-.2,1.1-.5,1.7-.4,2.3-1.8,4.2-5.8,4.8-3.5.6-8.4.2-12.2.3-2.7,0-4.3,1.3-4.6,4.7-.2,3,.7,4.9,3.3,5.5,3.9.8,10.8.9,15.6.6h0c14.4-.8,18.4-10,18-21.7l-.8-27.2ZM247.3,176.6c-1.6.6-3.2,1-4.4,1-5.1.2-6.2-1.3-6.4-8.3-.2-8.1,1.1-10.3,5.3-10.6,1.2-.1,3.2,0,4.6.1,1.1.1,1.5.6,1.5,1.5l.5,14.7c0,.8-.4,1.4-1.2,1.6ZM209.8,148.1c-4.6-.5-9.8.5-14.7,2.5-1,.4-1.5.2-1.8-.7l-.2-.4c-.6-1.2-1.8-2.2-3.8-2.4l-2.8-.3c-2.8-.3-4.5,1.1-4.8,4l-2.9,29.2c-.3,2.9,1.1,4.5,4,4.8l5.1.5c2.8.3,4.5-1.1,4.8-4l2-20.4c0-.9.5-1.3,1.4-1.4,3-.6,5-.5,7-.3,2.3.2,3.1,1.1,2.8,3.6l-1.9,19.7c-.3,2.9,1.1,4.5,4,4.8l5.1.5c2.8.3,4.5-1.1,4.8-4l2.2-21.8c.8-8.5-2.7-13.2-10.3-13.9ZM108.4,148.6c-3.8-.6-11.1-.9-16.8-.6-12.8.6-18.6,3.8-19.3,19.8-.6,13.9,3.3,20.7,13.5,20,7.9-.6,11.4-5.2,13.3-7.2.7-.7,1.1-.4,1.2.5v.8c.5,2.8,2.2,4.2,5.1,4.1h2.4c2.7-.2,4.1-1.6,4.1-4.3l.5-28.3c0-3.8-2.7-4.5-4.1-4.8ZM98.3,169.2c0,.9-.1,1.3-.4,1.8-1.8,2.8-4.5,5.3-7.9,5.8-3.3.4-3.6-1.5-3.5-9.9.2-8.4,2.4-9.5,7.3-9.7h3.1c.9-.2,1.5.4,1.5,1.3l-.2,10.7ZM65,131.1c0-1.5.7-2.3,2.1-2.4l15-.8c4.5-.3,6.8-2.8,6.5-7.3l-.2-3.8c-.3-4.5-2.8-6.7-7.3-6.5l-57.4,3.2c-4.5.3-6.7,2.8-6.5,7.3l.2,3.8c.3,4.5,2.8,6.7,7.3,6.5l15-.8c1.5,0,2.3.7,2.4,2.1l3.2,57c.3,4.5,2.8,6.7,7.3,6.5l9.1-.5c4.5-.3,6.7-2.8,6.5-7.3l-3.2-57ZM146.1,136.6c-16.5,0-29.9,13.4-29.9,29.9s13.4,29.9,29.9,29.9,29.9-13.4,29.9-29.9-13.4-29.9-29.9-29.9Z" fill="url(#linear-gradient-2)" stroke-width="0"></path><path d="M302.8,153.8c0-2.7-1.5-4.4-4.1-4.7-4.5-.5-10.4-.7-14.1-.5-12,.8-19.4,2.6-19.1,20.1.2,13.7,3.9,20.8,13.6,19.6,5.5-.7,9.7-3.3,12.3-7.4.4-.7,1-.6,1.1.3l.2,1c.5,2.7,2.2,4.1,4.8,3.9l2.3-.2c2.6-.2,3.8-1.6,3.7-4.2l-.7-28ZM289.7,171.4c-2.2,3.4-4.6,5.8-7.1,6-3.1.4-3.5-1.2-3.7-9.7-.2-8.3,1.8-9.4,6.5-9.8.8,0,1.8-.1,3-.2.9,0,1.4.4,1.4,1.3l.3,10.8c0,.6,0,1-.4,1.6ZM261.8,155.2c0-2.8-1.3-4.4-3.8-5-3.9-1-12.3-1.5-16.8-1.4-16.4.5-19.4,10.2-19,21,.4,11.4,4.3,17.9,14.7,18.1,4.6,0,7.7-1,10.9-2.3.8-.4,1.2-.2,1,.9,0,.4-.2,1.1-.5,1.7-.4,2.3-1.8,4.2-5.8,4.8-3.5.6-8.4.2-12.2.3-2.7,0-4.3,1.3-4.6,4.7-.2,3,.7,4.9,3.3,5.5,3.9.8,10.8.9,15.6.6h0c14.4-.8,18.4-10,18-21.7l-.8-27.2ZM247.3,176.6c-1.6.6-3.2,1-4.4,1-5.1.2-6.2-1.3-6.4-8.3-.2-8.1,1.1-10.3,5.3-10.6,1.2-.1,3.2,0,4.6.1,1.1.1,1.5.6,1.5,1.5l.5,14.7c0,.8-.4,1.4-1.2,1.6ZM209.8,148.1c-4.6-.5-9.8.5-14.7,2.5-1,.4-1.5.2-1.8-.7l-.2-.4c-.6-1.2-1.8-2.2-3.8-2.4l-2.8-.3c-2.8-.3-4.5,1.1-4.8,4l-2.9,29.2c-.3,2.9,1.1,4.5,4,4.8l5.1.5c2.8.3,4.5-1.1,4.8-4l2-20.4c0-.9.5-1.3,1.4-1.4,3-.6,5-.5,7-.3,2.3.2,3.1,1.1,2.8,3.6l-1.9,19.7c-.3,2.9,1.1,4.5,4,4.8l5.1.5c2.8.3,4.5-1.1,4.8-4l2.2-21.8c.8-8.5-2.7-13.2-10.3-13.9ZM108.4,148.6c-3.8-.6-11.1-.9-16.8-.6-12.8.6-18.6,3.8-19.3,19.8-.6,13.9,3.3,20.7,13.5,20,7.9-.6,11.4-5.2,13.3-7.2.7-.7,1.1-.4,1.2.5v.8c.5,2.8,2.2,4.2,5.1,4.1h2.4c2.7-.2,4.1-1.6,4.1-4.3l.5-28.3c0-3.8-2.7-4.5-4.1-4.8ZM98.3,169.2c0,.9-.1,1.3-.4,1.8-1.8,2.8-4.5,5.3-7.9,5.8-3.3.4-3.6-1.5-3.5-9.9.2-8.4,2.4-9.5,7.3-9.7h3.1c.9-.2,1.5.4,1.5,1.3l-.2,10.7ZM65,131.1c0-1.5.7-2.3,2.1-2.4l15-.8c4.5-.3,6.8-2.8,6.5-7.3l-.2-3.8c-.3-4.5-2.8-6.7-7.3-6.5l-57.4,3.2c-4.5.3-6.7,2.8-6.5,7.3l.2,3.8c.3,4.5,2.8,6.7,7.3,6.5l15-.8c1.5,0,2.3.7,2.4,2.1l3.2,57c.3,4.5,2.8,6.7,7.3,6.5l9.1-.5c4.5-.3,6.7-2.8,6.5-7.3l-3.2-57ZM146.1,136.6c-16.5,0-29.9,13.4-29.9,29.9s13.4,29.9,29.9,29.9,29.9-13.4,29.9-29.9-13.4-29.9-29.9-29.9Z" fill="none" stroke="#37933f" stroke-miterlimit="10" stroke-width=".8"></path></g></g><g id="Layer_9"><g id="Layer_11"><path d="M146.6,145.9c-.7.2-1.5.5-2.3.8-1.7.7-3.6,1.7-5.5,3.3-.9.8-1.9,1.7-2.7,2.7-.8,1.1-1.6,2.2-2.1,3.6-.6,1.3-.9,2.8-1.1,4.3,0,.8-.1,1.5-.1,2.3v.5c0,.2,0,.5,0,.7,0,.2,0,.4,0,.6,0,.2,0,.4,0,.6.2,1.6.7,3.2,1.4,4.7.7,1.5,1.6,2.9,2.8,4.1,1.2,1.2,2.5,2.1,4,2.8,1.5.7,3.2,1,4.9,1.1.9,0,1.8,0,2.6-.1.8-.1,1.6-.3,2.4-.6,1.6-.6,3-1.4,4.2-2.6,1.2-1.1,2.1-2.5,2.7-4.1.3-.8.5-1.6.6-2.4v-.6c0,0,0-.6,0-.6v-.4c0,0,0-.1,0-.1h0c0-.3,0-.5,0-.6-.2-1.5-.8-2.9-1.8-4.1-.9-1.2-2.2-2.1-3.6-2.6-.7-.3-1.4-.4-2.1-.5h-.3s-.1,0-.1,0c0,0,0,0,0,0h0s0,0,0,0c-.1,0-.3,0-.3,0h-.2c-.3,0-.7,0-1,.1-1.3.3-2.5,1-3.4,2-.9,1-1.5,2.3-1.7,3.6,0,.2,0,.3,0,.5h0c0,0,0,0,0,0h0c0,0,0,.2,0,.2,0,0,0,.1,0,.2,0,.3,0,.6,0,.8.1.5.3,1.1.6,1.5,1.1,1.9,3.7,2.7,5.4,1.8,1.9-1.5.6-2.1,1.1-3,.2-.4-.9-.7-.8-1.2,0-.1,2.6.3,2.6.2,0,0,0-.1,0-.1v-.2c0-.2,0-.4,0-.6,0-.8-.5-1.4-.9-1.9-.5-.4-1-.6-1.5-.6-.5,0-.8.2-1,.3-.1,0-.2.1-.3.1,0,0,0,0,0,0,0,0,0,0,0,0,0,0,.1-.1.2-.2.2-.2.5-.4,1-.6.5-.1,1.3-.1,2,.3.7.4,1.4,1.2,1.8,2.2,0,.3.2.5.2.9v.2s0,.2,0,.2c0,.1,0,.3,0,.4,0,.6,0,1.2-.3,1.9-.3,1.2-1.1,2.4-2.5,3.5-.6.5-1.4.8-2.2,1.1-.8.2-1.7.3-2.6.2-1.8-.1-3.8-1-5.2-2.6-.7-.8-1.3-1.8-1.6-2.8-.2-.5-.3-1.1-.4-1.7v-.5s0-.2,0-.2h0s0-.2,0-.2h0c0-.3,0-.6,0-.8.1-2.1.8-4.4,2.2-6.3,1.4-1.9,3.4-3.4,5.9-4.2.6-.2,1.2-.3,1.9-.4h.5c0,0,.4,0,.4,0h0s0,0,0,0h.1s.2,0,.2,0h.5c1.2,0,2.5.2,3.7.6,2.4.7,4.7,2.2,6.4,4.2,1.7,2,2.9,4.5,3.4,7.2,0,.3,0,.7.1,1v.3s0,.2,0,.2v.4s0,.2,0,.2h0c0,.1,0,.4,0,.4v.5c0,.3,0,.7,0,1-.1,1.3-.4,2.6-.9,3.9-.9,2.5-2.3,4.8-4.2,6.6-1.9,1.8-4.2,3.2-6.6,4-1.2.4-2.4.7-3.7.8-1.2.1-2.5.2-3.7,0-2.5-.2-4.9-.8-7.1-1.9-1.1-.5-2.1-1.2-3.1-1.9-1-.7-1.8-1.6-2.6-2.5-1.6-1.8-2.7-3.8-3.5-5.9-.8-2.1-1.2-4.2-1.3-6.3,0-.3,0-.5,0-.8,0-.3,0-.6,0-.8,0-.2,0-.5,0-.7,0-.1,0,0,0,0h0s0-.1,0-.1v-.2s0-.4,0-.4c0-1,.2-2,.4-2.9.5-1.9,1.1-3.7,2.1-5.2.9-1.5,2-2.9,3.1-4,1.2-1.1,2.4-2,3.6-2.7,2.4-1.4,4.7-2.1,6.6-2.5,1.4-.3,2.4-.2,2.7.4Z" fill="#2c7735" stroke-width="0"></path><path d="M153.8,164.4c0,1.6-1.3,2.8-2.8,2.8s-2.8-1.3-2.8-2.8,1.3-2.8,2.8-2.8,2.8,1.3,2.8,2.8Z" fill="#2c7735" stroke-width="0"></path></g></g><g id="Layer_10"><path d="M304.6,178.8s-3.4-2.4-5.2-1.6c-1.7.8-3,2.9-2.4,4.4s1.8,1.3,1.8,1.3l.9-1.5s-1.3-.6-1-1.3c.2-.7,1.7-1.5,2.4-.9.7.5,3.7,3.9,3.7,3.9l-.3-4.3Z" fill="#2c7735" fill-rule="evenodd" stroke-width="0"></path><path d="M221,170s1.6,4.7,3.5,5c1.8.3,4.5-.3,5-1.9s-.1-3.7-1.2-3.1c-1,.6-1.7,2.2-1.9,3.1-.2.9-.7,1.1-1.2.8-.5-.3-.8-3.5-.8-2.7,0,.8,0-3,1.5-3.5,1.5-.4,4.7-.3,5.4,1.2.7,1.5,1.3,5.1.8,6.1s-2.8,3.3-4.2,3.5c-1.4.2-5.3-.4-6.1-.8s-.8-7.7-.8-7.7Z" fill="#2c7735" fill-rule="evenodd" stroke-width="0"></path><path d="M181.1,151.6s2.2.4,2.3.8c.1.3,0,1.9,0,1.9,0,0-2.4.9-2.9.8s.6-3.5.6-3.5Z" fill="#2c7735" fill-rule="evenodd" stroke-width="0"></path><path d="M87.6,166.4l-9.9,1.9-6.8,3.9.7,1.6,6.1-3.8,10.3-2.2-.5-1.4Z" fill="#2c7735" fill-rule="evenodd" stroke-width="0"></path><path d="M42.5,146.2c.4-.3,4.7-1.2,6.1-.4s4.4,5.1,4.6,5.8c.2.7-.5,4.1-1.5,4.6s-4,1.9-5,1.2-1.9-2.3-1.5-3.5c.4-1.1,2.3-2.7,2.3-2.7,0,0,1.1,1,.8,1.5-.4.5-.8,1.9-.8,1.9,0,0,.9,1.9,2.3.8,1.4-1.1,1.3-3.8,1.2-4.6-.1-.8-5.2-2.9-4.2-2.7,1,.2-3.6,0-4.2,1.9-.6,1.9-.4-3.6,0-3.8Z" fill="#2c7735" fill-rule="evenodd" stroke-width="0"></path><path d="M58.3,190.7s-4-3.7-3.5-6.1c.5-2.4,2.8-5.5,3.8-5.4s3.8,1.9,4.2,2.7.2,3.8-1.2,3.8c-1.3,0-3.1-3.1-3.1-3.1,0,0-1,.1-1.2.8-.2.6,0,5,1.2,5,1.1,0,4.4.3,5-.4.6-.7,1.1-6.8,1.2-7.7s-7.4-4-6.1-3.8c1.3.2-4.1.9-5,2.3-.9,1.4-2.4,6-2.3,7.3s1.7,3.6,3.1,4.2c1.4.6,3.8.4,3.8.4Z" fill="#2c7735" fill-rule="evenodd" stroke-width="0"></path></g></svg>