<?xml version="1.0" encoding="utf-8"?>
<!-- Generator: Adobe Illustrator 28.0.0, SVG Export Plug-In . SVG Version: 6.00 Build 0)  -->
<svg version="1.2" baseProfile="tiny-ps" id="Layer_1" xmlns="http://www.w3.org/2000/svg" xmlns:xlink="http://www.w3.org/1999/xlink"
	viewBox="0 0 500 500" xml:space="preserve">
<title>Egnyte, Inc.</title>
<path fill-rule="evenodd" fill="#34BCB4" d="M260.4,160.7h-30.54c-1.96,0-3.72-1.76-3.72-3.72V38.36c0-2.15,1.76-3.72,3.72-3.72
	h30.54c1.96,0,3.72,1.76,3.72,3.72v118.62C264.31,159.13,262.55,160.7,260.4,160.7z"/>
<path fill-rule="evenodd" fill="#34BCB4" d="M324.8,326.5l15.27-26.62c0.98-1.76,3.33-2.35,5.09-1.37l101.79,59.31
	c1.76,0.98,2.35,3.33,1.37,5.09l-15.27,26.62c-0.98,1.76-3.33,2.35-5.09,1.37l-101.79-59.31
	C324.41,330.61,323.82,328.26,324.8,326.5z"/>
<path fill-rule="evenodd" fill="#34BCB4" d="M150.2,299.68l15.27,26.62c0.98,1.76,0.39,4.11-1.37,5.09L62.31,390.7
	c-1.76,0.98-4.11,0.39-5.09-1.37l-15.27-26.62c-0.98-1.76-0.39-4.11,1.37-5.09l101.79-59.31
	C146.87,297.33,149.22,297.92,150.2,299.68z"/>
<path fill-rule="evenodd" fill="#12264A" d="M438.14,186.93l-31.71-55.2c-1.96-3.33-6.07-4.5-9.4-2.54l-151.9,88.48l-151.9-88.28
	c-3.13-1.96-7.44-0.78-9.4,2.54l-31.52,55c-1.96,3.33-0.78,7.44,2.54,9.4l151.9,88.28v176.76c0,3.72,2.94,6.85,6.85,6.85h63.23
	c3.72,0,6.85-2.94,6.85-6.85V284.61l151.9-88.28C438.72,194.37,439.9,190.26,438.14,186.93z"/>
</svg>
