<svg xmlns="http://www.w3.org/2000/svg" baseProfile="tiny-ps" version="1.2" fill="#333" viewBox="0 0 180 180">
  <title>Paperless Post</title>
  <path d="M71.84 123.64h-5.37v8.02h1.37v-3.25h4.17c.66 0 1.8-.96 1.8-2.34s-.97-2.43-1.97-2.43Zm-.09 3.38h-3.91v-1.99h3.75c.43 0 .87.61.87 1.07.01.4-.38.93-.71.93v-.01Zm95.47-21.32c0-.18-.06-.37-.19-.56-.13-.19-.33-.31-.6-.35.22-.04.39-.09.51-.17.23-.15.34-.39.34-.71 0-.45-.18-.76-.54-.91-.2-.09-.52-.13-.96-.13h-1.23v3.59h.62v-1.41h.49c.33 0 .56.04.68.12.22.13.33.41.33.82 0 0 .03.46.03.47h.58s-.05-.14-.05-.23v-.53h-.01Zm-1.49-1.1h-.56v-1.3s1.02-.09 1.27.13c.14.12.23.26.23.52 0 .57-.69.64-.95.64l.01.01ZM37.67 91.59l-.36-.18.34-.21c.39-.24.96-.45 1.37-.58.68-.16.67-.18.36-.21-.04 0-.39-.02-.56-.02-.36 0-1.6.04-2.63.53l-.08.04-.08-.03c-1.49-.48-2.9-.68-4.09-.68-.2 0-.4 0-.6.02-6.46.47-11.63 4-15.48 10.59-2.68 4.58-3.19 9.55-2.69 11.47.55 2.1 1.94 3.16 4.15 3.16.29 0 .6-.02.91-.06 3.93-.47 6.71-4.86 8.73-8.06l.13-.21c1.57.7 4.13.93 6.37.49.09-.02.17-.04.26-.06.02 0 .05-.01.07-.02.02 0 .04 0 .06-.01.11-.02.21-.05.31-.08 4.02-1.04 7.74-4.51 7.74-9.17 0-3.8-2.31-5.76-4.24-6.74l.01.02Zm-12 12.42-.13.25-.18-.08c-.9-.49-1.59-2.06-1.61-2.11-.05-.13-.13-.32-.17-.24v-.02c0 .05-.01.13-.01.25 0 1.41.42 2.77 1.19 3.34l.16.12s-4.3 7.41-6.57 8.09c-.33.1-.65.14-.94.14-.72 0-1.95-.32-2.07-2.43-.02-.14-.57-4.01 2.8-9.67 3.66-6.15 7.01-8.94 11.96-9.8 1.71-.26 2.82-.15 4.61.26l-.14.12-.33.27c-3.63 2.92-6.36 7.46-8.56 11.52l-.01-.01Zm13.55-5.75c-.65 3.69-2.96 6.48-5.93 7.49-.02 0-.03.01-.05.02h-.03c-.76.23-2.29.39-2.37.39-1.1.02-2.07-.2-2.95-.53v-.02c1.95-3.66 4.93-8.96 8.34-12.76l.12-.13.15.09c1.65.93 2.79 2.89 2.79 4.76 0 .18-.02.41-.07.69Zm128.89 4.11c-.62-.64-1.38-.95-2.26-.95-.88 0-1.63.32-2.25.95-.62.64-.93 1.41-.93 2.31 0 .9.31 1.68.92 2.32.62.64 1.37.96 2.25.96.88 0 1.64-.32 2.26-.96.62-.64.93-1.41.93-2.32 0-.91-.31-1.67-.93-2.31h.01Zm-.32 4.31c-.53.55-1.18.83-1.94.83s-1.41-.28-1.94-.83c-.53-.55-.8-1.22-.8-2s.27-1.44.8-1.99c.54-.55 1.18-.83 1.94-.83s1.4.28 1.94.83c.53.55.8 1.21.8 1.99s-.27 1.45-.8 2Zm-14.5 5.74c.88-1 1.17-3.99 1.27-5.63.04-.63.3-3.64 1.43-3.95.25-.07.3-.39.25-.58-.2-.69-.99-.7-1.65-.7-2.89.03-4.71 1.82-6.72 3.78-.07.07-.15.14-.22.22l-.23.26-.04.04-1.3 1.48c-.98.97-2.59 2.33-5.22 3.99-.86.54-1.55.73-2 .86-.25.07-.43.12-.51.2.96-.93 1.14-2.96 1.26-4.22.01-.12.02-.23.03-.34.05-.48.08-.96.1-1.43.1-1.63.18-3.1.98-3.42.16-.07.2-.45.14-.7-.11-.43-.62-.69-1.22-.68-2.74.04-4.98 1.5-7.03 3.86l-.3.36-.06.06c-.05.04-.09.08-.14.13-.19.19-.41.42-.65.67-2.03 2.12-5.74 6-9.46 6.03-1.57.02-3.58-.07-3.59-1.95 4.84-1.57 7.03-4.97 7.02-6.87 0-1.59-1.03-2.73-2.7-2.81-.78-.04-1.53.13-2.22.46-1.84.75-4.51 4-4.26 8.31 0 .11.01.29.02.42 0 .05 0 .09.01.12-1.45 1.01-3.37 2.03-5.16 2.16-2.43.17-3.8-.43-3.9-3.12 0-.09-.01-.18-.02-.25-.02-.23-.03-.35.1-.49 4.42-4.55 8.07-9.99 9.36-13.25.62-1.58 1.08-4.47-1.34-4.94-3.28-.63-7.08 4.18-9.16 11.3-.55 1.77-1.1 4.08-1.18 6.34-1.54 1.43-3.46 3.12-5.32 4.07-.03.01-1.09.48-2.04.48-2.61 0-1.86-2.47-1.82-2.61.48-1.77 2.8-3.94 3.63-4.24.97-.36 1.03-1.61-.04-1.71-.29-.02-.64 0-1.02.03-1.27.1-2.97.22-4.32-1.34.09-.21.14-.45.14-.7-.01-.91-.72-1.64-1.57-1.63-.85.01-1.53.76-1.52 1.67 0 .55.27 1.03.66 1.32-.35.98-.98 2.7-1.87 3.84-1.94 2.48-5.35 5.32-9.11 5.39-1.3.03-3.51-.06-3.91-1.55 4.57-1.58 7.85-5.2 7.81-7.11-.03-1.59-1.07-2.71-2.74-2.77-3.9-.14-7.34 4.66-7.28 8.95 0 .08 0 .16.02.23v.1c-2.72 1.49-5.32 1.61-7.22 1.56 1.53-1.54 2.76-4.54 2.76-6.66 0-1.66-.73-2.86-1.95-3.18-1.01-.27-2.08-.2-3.21.48-.38.23-.74.53-1.02.78-.17.14-.31.26-.41.33.01-.03.03-.07.05-.12.16-.37.53-1.2.28-1.2-.12 0-.26 0-.43-.02-.5-.02-1.19-.04-1.83-.06h-.09c-.27 0-.65-.02-.53.23.4.79.38 1.28.21 1.71-1.93 2.36-7.82 8.35-10.92 8.09-1.2-.1-1.27-.61-1.18-1.51.08-.8 1.1-2.65 1.5-3.37.21-.37.43-.78.66-1.18.22-.41.45-.82.67-1.2.11-.18.18-.32.26-.46.08-.16.17-.31.29-.51.36-.57.73-.83.98-1 .18-.12.3-.21.31-.33 0-.08-.18-.08-.18-.08l-2.29-.11c-.42.03-.6.4-.82.83-.02.04-.04.08-.06.13-.42-.97-1.39-1.49-2.35-1.53-4.25-.18-8.66 3.93-8.84 8.27-.08 2.06 1.51 3.48 3.73 3.51 1.42.01 3.17-.75 4.03-1.95l.08.45c.39 1.09 1.62 1.53 2.66 1.59 3.33.21 5.98-2.15 8.16-4.1.19-.17.38-.34.56-.5-2.08 3.76-4.89 8.8-6.89 12.04l2.9-.66 4.8-8.27c.7 1.34 1.76 1.72 2.85 1.81 1.46.11 2.64-.33 3.51-.82 4.23.6 7.24-.23 9.4-1.42.83 1.56 2.67 2.15 4.37 2.27 1.23.11 2.44-.02 3.61-.31.07-.02.24-.06.61-.17 2.6-.78 5.08-2.46 7.28-5.22.04-.05 1.08-1.44 1.54-2.18.59-.91 1-1.7 1.29-2.26.86.81 2.23 1.05 2.95 1.17.15.03.27.05.35.07-.22.01-6.49 5.54-2.78 8.31.23.19 2.84 1.41 5.09.13.03-.02.09-.05.17-.1.81-.44 3.85-2.1 5.42-3.7.17 2.19 1.68 4.19 4.89 4.19 2.26 0 4.83-1.02 6.82-2.27.95 1.85 3.26 2.38 5.14 2.36 3.5-.03 6.39-2.43 8.33-4.12.06 2.97 2.79 4.15 5.94 4.01 3.36-.15 6.51-1.68 9.02-4.19-.1 2.63 1.85 4.28 5.01 4.14 5.8-.09 9.21-3.48 11.05-6.05l-.68-1.98c-1.84 3.19-4.17 5.45-7.22 6.26l-.02-.07Zm-41.33-17.88c1.23-1.78 2.23-2.76 3.2-2.33.37.16.41.58.33 1.08-.49 3.34-5.28 11.49-8.17 13.32-.19.12.64-6.32 4.64-12.07Zm-65.35 15.81c-1.28 1.98-5.28 2.94-5.05-.4.17-2.51 3.69-6.24 6.25-6.14.45.02.92.16 1.24.45h.01c.48.4.52.79.42 1.09l-2.88 4.99.01.01Zm15.64 2.4c-1.44 0-2.18-1.36-1.95-2.17.02-.06 1.64-3.24 2.3-4.27 1.03-1.61 2.77-2.5 4.07-2.34 1.11.13 1.18.85 1.18 1.83 0 2.49-2.5 6.95-5.6 6.95Zm14.53-4.46c.28-1.68 1.7-3.87 3.27-4.73.39-.23.87-.45 1.57-.44.67 0 1.07.35 1.08 1.08.01.75-.78 1.7-1.25 2.22-1.88 2.12-3.7 2.84-4.8 3.27 0 0-.04-.37.13-1.4Zm41.52 0c.25-2.1.81-4.3 2.56-5.17.05-.03.11-.06.17-.09.37-.19.8-.42 1.43-.35.69.08 1.05.5 1.03 1.24-.02 1.26-1.1 2.5-1.64 2.98-1.58 1.41-2.85 2.02-3.59 2.25l.04-.87v.01Zm19.26-1.2c-.27 2.7-.56 5.53-2.7 5.63-1.92.03-2.81-1.14-3.01-2.57.25-.02.52-.11.73-.33.94-.96.18-2.01.15-2.05.46-.51 1.36-1.65 1.36-1.65 1.6-1.69 3.18-2.89 4.16-2.81-.42.93-.56 2.33-.7 3.77l.01.01Zm14.67.3c-.31 2.69-.63 5.44-2.76 5.43-1.86-.01-2.56-1.08-2.65-2.42.33.05.69-.03.96-.32 1.03-1.05.06-2.16-.05-2.23 1.81-2.05 3.86-4.09 5.43-4.63-.57.97-.75 2.56-.94 4.17h.01Zm-48.21 16.26h8v1.32h-3.33v6.71h-1.34v-6.71h-3.33v-1.32Zm-21.17-.2c-2.24 0-4.5 1.62-4.5 4.02 0 2.86 2.18 4.37 4.5 4.37 2.2 0 4.51-1.49 4.51-4.37 0-2.46-2.36-4.02-4.51-4.02Zm0 7.02c-1.94 0-3.13-1.1-3.13-2.99 0-1.38 1.46-2.54 3.13-2.54s3.11 1.14 3.11 2.54c0 1.72-1.1 2.99-3.11 2.99Zm16.94-1.42c.06 1.19-1.06 2.79-3.61 2.79-2.76 0-4.74-1.74-4.74-1.74l.91-1.05c.97.8 2.4 1.47 3.74 1.47.92.01 2.27-.36 2.27-1.2 0-.35-.13-.75-.57-.83l-3.86-.59c-1.11-.18-1.99-1.09-1.99-2.14 0-1.78 2.24-2.38 3.91-2.32 1.32.09 2.49.55 3.52 1.34l-.99.99c-.84-.53-2.05-1.05-3.19-1.04-.79 0-1.83.43-1.88.95-.05.5.62.83 1.2.89l2.64.31c1.22.15 2.56.75 2.65 2.17h-.01Z"/>
  <path d="M109.02 52.44c-.08-.15-2.26-3.44-5.74-3.44-.6 0-1.28.08-1.89.31-4.15 1.38-5.66 4.13-8.08 8.65-.6 1.22-1.36 2.53-2.19 4.06-.68 1.15-1.89 3.06-4.3 5.74-3.4 3.75-12.38 9.95-12.53 10.03-.53.38-1.21.77-1.89 1.22-3.4 1.99-8.61 4.36-8.68 4.36-4.45 1.99-8.38 3.44-8.38 3.44s-.23.08-.23.23c0 .23.23.23.23.23 3.62.15 7.62.23 11.85.23 2.34.08 12.91-.23 12.98-.23 1.36-.08 2.57-.08 3.7-.15l6.27 6.12c-.53 0-1.06.08-1.59.15-.75.15-1.43.31-2.11.61-.15.08-.23.23-.15.38.08.15.23.31.38.23.6-.15 1.36-.31 1.96-.31.68-.08 1.36-.08 2.04-.08 1.36 0 2.79.23 4.15.38.15 0 .3-.08.38-.23.08-.15 0-.38-.23-.38-1.28-.46-2.72-.69-4.08-.77-.75-.99-2.72-4.06-2.26-5.36.23-.77 1.51-1 1.81-1 1.59-.31 4.3-.92 7.32-3.14 5.89-4.21 6.64-11.94 6.64-12.32.153-1.3267.23-2.96.23-4.9 0-1.22 0-2.53-.07-3.75-.08-1.53-.08-2.98 0-4.13.15-3.83 1.13-5.82 3.02-5.82.23 0 .91.08.91.08h.23c.38-.23.3-.46.3-.46v.02ZM67.95 86.81h-.75l-2.64-2.91c.45-.23 1.36-.61 2.11-1l3.62 3.83c-.68.08-1.74.08-2.34.08Zm6.34-.15h-1.21l-4.53-4.67c1.66-.84 3.32-1.68 4.15-2.14l6.49 6.66c-1.96.08-3.4.15-4.91.15h.01Zm14.87-.46c-1.74.23-3.77.15-6.04.31l-7.7-8.34c8.23-5.59 12.23-9.64 13.97-11.63 1.21-.92 3.85-2.37 6.79-2.37 3.77 0 6.49 2.3 7.4 6.12-.53 13.7-12.08 15.69-14.42 15.92v-.01Z"/>
  <path d="M119.06 53.29c.08-.08.15 0 .23.08.07.08.07.15.15.31l-4.76 8.19c-.08.08-.15.15-.23.15-.08 0-.23-.08-.23-.15l-1.51-4.21c-.08-.08 0-.15 0-.23 0-.08.07-.15.15-.15l2.19-.61-.53-2.22c-.08-.08-.08-.15 0-.23 0-.08.07-.15.15-.15l4.38-.77.01-.01Zm-7.4 4.21c.15-.08.23 0 .3.15l1.51 3.9c.07.15 0 .23-.08.31 0 .08-.07.08-.15.08h-.15l-4.98-2.98c-.15 0-.15-.15-.15-.23 0-.08.07-.23.15-.23 0 0 3.55-.99 3.55-1Zm.75-8.04c.15.08.23.15.23.23l1.43 6.12c.07.15 0 .23-.15.31l-5.96 1.68c-.15 0-.23 0-.3-.08-.08-.08-.08-.23 0-.31l4.53-7.81c0-.15.15-.15.23-.15l-.01.01Zm.98-.38c.08-.08.23-.08.31 0l4.98 2.98c.15.08.15.23.15.31 0 .15-.15.23-.23.23l-4.15.69h-.1c-.09-.04-.14-.11-.2-.23l-.83-3.67c-.08-.15 0-.23.07-.31Z"/>
</svg>
