<?xml version="1.0" encoding="UTF-8"?>
<!-- Generator: Adobe Illustrator 26.3.1, SVG Export Plug-In . SVG Version: 6.00 Build 0) -->
<svg version="1.2" baseProfile="tiny-ps" id="Layer_1" xmlns="http://www.w3.org/2000/svg" xmlns:xlink="http://www.w3.org/1999/xlink" viewBox="0 0 80 80" xml:space="preserve">
    <title>Clearlake</title>
    <g>
        <g>
            <linearGradient id="SVGID_1_" gradientUnits="userSpaceOnUse" x1="40.3913" y1="35.1339" x2="40.3913" y2="64.3632">
                <stop offset="0" stop-color="#FFFFFF" />
                <stop offset="1" stop-color="#79A3DC" />
            </linearGradient>
            <path fill="url(#SVGID_1_)" d="M72.7,44.13c-1.31,1.18-3.14,1.18-3.73,0.98c-0.59-0.19-3.14-0.19-3.8,0
			c-0.65,0.2-2.68-0.13-3.07-0.33c-0.39-0.2-3.86-1.38-4.52-1.38c-0.65,0-1.37,1.05-1.96,1.05c-0.59,0-4.45-0.07-5.24,0
			c-0.79,0.07-4.19,2.81-4.97,3.21c-0.79,0.39-1.96,1.51-2.75,1.05c-0.78-0.46-3.73-1.83-4.97-1.7c-1.24,0.13-3.73,0.92-4.26,0.72
			c-0.52-0.2-4.12-1.18-5.04-0.72c-0.91,0.46-2.42-0.39-3.2-0.85c-0.79-0.46-11.2-5.5-11.2-5.5l-5.89-0.83v9.7v14.83H72.7V44.13z" />
            <linearGradient id="SVGID_00000170973337272628632060000015955302706154777269_" gradientUnits="userSpaceOnUse" x1="40.3913" y1="35.1339" x2="40.3913" y2="64.3632">
                <stop offset="0" stop-color="#FFFFFF" />
                <stop offset="1" stop-color="#739DD2" />
            </linearGradient>
            <path fill="url(#SVGID_00000170973337272628632060000015955302706154777269_)" d="M25.17,46.16c0.78,0.46,2.29,1.31,3.2,0.85
			c0.92-0.46,4.52,0.52,5.04,0.72c0.52,0.2,3.01-0.59,4.26-0.72c1.24-0.13,4.19,1.25,4.97,1.7c0.79,0.46,1.97-0.66,2.75-1.05
			c0.78-0.39,4.19-3.14,4.97-3.21c0.79-0.07,4.65,0,5.24,0c0.59,0,1.31-1.05,1.96-1.05c0.66,0,4.13,1.18,4.52,1.38
			c0.39,0.2,2.42,0.52,3.07,0.33c0.66-0.19,3.21-0.19,3.8,0c0.59,0.2,2.42,0.2,3.73-0.98v-8.95H8.09v4.65l5.89,0.83
			C13.98,40.66,24.39,45.7,25.17,46.16z" />
            <linearGradient id="SVGID_00000018918509960699065840000014843782228866313898_" gradientUnits="userSpaceOnUse" x1="40.3913" y1="7.1645" x2="40.3913" y2="49.5304">
                <stop offset="0.5073" stop-color="#E1E5EE" />
                <stop offset="0.9022" stop-color="#316094" />
            </linearGradient>
            <path fill="url(#SVGID_00000018918509960699065840000014843782228866313898_)" d="M25.17,46.16c0.78,0.46,2.29,1.31,3.2,0.85
			c0.92-0.46,4.52,0.52,5.04,0.72c0.52,0.2,3.01-0.59,4.26-0.72c1.24-0.13,4.19,1.25,4.97,1.7c0.79,0.46,1.97-0.66,2.75-1.05
			c0.78-0.39,4.19-3.14,4.97-3.21c0.79-0.07,4.65,0,5.24,0c0.59,0,1.31-1.05,1.96-1.05c0.66,0,4.13,1.18,4.52,1.38
			c0.39,0.2,2.42,0.52,3.07,0.33c0.66-0.19,3.21-0.19,3.8,0c0.59,0.2,2.42,0.2,3.73-0.98v-8.95H8.09v4.65l5.89,0.83
			C13.98,40.66,24.39,45.7,25.17,46.16z" />
            <linearGradient id="SVGID_00000155868917442045629080000017511562563742411437_" gradientUnits="userSpaceOnUse" x1="40.3913" y1="17.133" x2="40.3913" y2="35.1776">
                <stop offset="0" stop-color="#E9EAEA" />
                <stop offset="0.9709" stop-color="#8C9091" />
            </linearGradient>
            <path fill="url(#SVGID_00000155868917442045629080000017511562563742411437_)" d="M68.97,20.84c-0.59,0.2-3.14,0.2-3.8,0
			c-0.65-0.2-2.68,0.13-3.07,0.33c-0.39,0.2-3.86,1.38-4.52,1.38c-0.65,0-1.37-1.05-1.96-1.05c-0.59,0-4.45,0.07-5.24,0
			c-0.79-0.07-4.19-2.81-4.97-3.21c-0.79-0.39-1.96-1.5-2.75-1.05c-0.78,0.46-3.73,1.83-4.97,1.7c-1.24-0.13-3.73-0.92-4.26-0.72
			c-0.52,0.2-4.12,1.18-5.04,0.72c-0.91-0.46-2.42,0.39-3.2,0.85c-0.79,0.46-11.2,5.5-11.2,5.5l-5.89,0.83v8.99v0.02v0.04H72.7
			v-0.03v-0.03V21.82C71.39,20.64,69.55,20.64,68.97,20.84z" />
        </g>
        <g>
            <path fill="none" d="M40.42,58.71h-1.26v1.8h1.26c0.29,0,0.52-0.08,0.7-0.25c0.18-0.17,0.27-0.38,0.27-0.65
			c0-0.27-0.09-0.48-0.27-0.65C40.94,58.8,40.71,58.71,40.42,58.71z" />
            <polygon fill="none" points="32.22,62.03 33.92,62.03 33.08,59.54 		" />
            <polygon fill="none" points="53.18,62.03 54.88,62.03 54.05,59.54 		" />
            <path fill="#FFFFFF" d="M14.34,63.88c0.47-0.38,0.76-0.92,0.87-1.61h-1.35c-0.16,0.65-0.54,0.97-1.15,0.97
			c-0.36,0-0.64-0.12-0.86-0.36c-0.17-0.19-0.27-0.5-0.32-0.93c-0.01-0.13-0.02-0.47-0.02-1c0-0.98,0.09-1.59,0.26-1.84
			c0.22-0.3,0.53-0.45,0.93-0.45c0.61,0,0.99,0.32,1.15,0.97h1.35c-0.12-0.7-0.4-1.23-0.85-1.6s-1.01-0.56-1.67-0.56
			c-0.73,0-1.35,0.25-1.85,0.75c-0.31,0.31-0.51,0.7-0.6,1.18c-0.05,0.28-0.08,0.8-0.08,1.55c0,0.75,0.03,1.27,0.08,1.55
			c0.09,0.48,0.29,0.87,0.6,1.18c0.36,0.36,0.79,0.59,1.27,0.69h1.15C13.68,64.28,14.04,64.13,14.34,63.88z" />
            <polygon fill="#FFFFFF" points="17.52,57.52 17.52,64.36 21.96,64.36 21.96,63.17 18.86,63.17 18.86,57.52 		" />
            <polygon fill="#FFFFFF" points="28.37,58.71 28.37,57.52 23.86,57.52 23.86,64.36 28.37,64.36 28.37,63.17 25.2,63.17 25.2,61.51 
			27.9,61.51 27.9,60.32 25.2,60.32 25.2,58.71 		" />
            <path fill="#FFFFFF" d="M33.57,57.52h-1.05l-2.49,6.84h1.39l0.41-1.21h2.43l0.4,1.21h1.39L33.57,57.52z M32.22,62.03l0.86-2.49
			l0.84,2.49H32.22z" />
            <path fill="#FFFFFF" d="M41.48,61.42c0.36-0.13,0.65-0.34,0.87-0.62c0.25-0.33,0.37-0.72,0.37-1.17c0-0.6-0.2-1.09-0.59-1.48
			c-0.41-0.41-0.95-0.61-1.63-0.61h-2.68v6.84h1.34v-2.73h0.96l1.33,2.73h1.55L41.48,61.42z M41.12,60.26
			c-0.18,0.17-0.41,0.25-0.7,0.25h-1.26v-1.8h1.26c0.29,0,0.52,0.08,0.7,0.25c0.18,0.17,0.27,0.38,0.27,0.65
			C41.39,59.88,41.3,60.1,41.12,60.26z" />
            <polygon fill="#FFFFFF" points="45.27,57.52 45.27,64.36 49.7,64.36 49.7,63.17 46.6,63.17 46.6,57.52 		" />
            <path fill="#FFFFFF" d="M54.54,57.52h-1.05L51,64.36h1.39l0.41-1.21h2.43l0.4,1.21h1.39L54.54,57.52z M53.18,62.03l0.86-2.49
			l0.84,2.49H53.18z" />
            <polygon fill="#FFFFFF" points="61.85,60.24 64.12,57.52 62.5,57.52 60.08,60.5 60.08,57.52 58.75,57.52 58.75,64.36 60.08,64.36 
			60.08,62.31 60.97,61.25 62.72,64.36 64.28,64.36 		" />
            <polygon fill="#FFFFFF" points="66.05,64.36 70.56,64.36 70.56,63.17 67.39,63.17 67.39,61.51 70.09,61.51 70.09,60.32 
			67.39,60.32 67.39,58.71 70.56,58.71 70.56,57.52 66.05,57.52 		" />
        </g>
    </g>
</svg>
