<?xml version="1.0"?><svg version="1.2" baseProfile="tiny-ps" viewBox="0 0 300 300" xmlns="http://www.w3.org/2000/svg" xmlns:xlink="http://www.w3.org/1999/xlink"><title>Brave Software inc.</title><g><g fill="#fffffe" transform="matrix(.1 0 0 -.1 0 300)"><path d="M0 1500V0h3000v3000H0V1500z"/></g><g fill="#ffc4b4" transform="matrix(.1 0 0 -.1 0 300)"><path d="m1056 2553-96-108h-97l-98-1-30-16c-16-9-67-54-113-100l-82-83 27-69 27-68-33-96-34-97 127-479 126-480 28-60c51-108 74-127 466-390l189-126h74l189 126c391 262 415 282 466 390l28 60 126 480 127 479-34 97-33 96 27 68 27 69-82 83c-46 46-96 91-113 100l-30 16-98 1h-97l-96 108-95 107h-698l-95-107zm592-284 93-29 126 21 126 21 16-20c82-104 170-224 197-270l34-56v-76l-145-155-145-154v-23c0-13 9-49 20-81 11-31 20-68 20-82 0-70-86-165-148-165-11 0-56 18-101 41l-82 41-65 60-64 60v35l23 20c12 11 68 50 125 86l102 67v20c0 12-22 64-50 116-27 52-50 104-50 115v20l23 22 22 23 143 53c78 30 145 57 148 62l5 8-28 8c-15 3-77 7-138 7h-110l-70-24-70-25-3-31-3-31 26-137 26-137-3-32-3-31-45-14-45-13h-110l-45 13-45 14-3 31-3 32 26 137 26 137-3 31-3 31-70 25-70 24h-110c-60 0-123-4-138-7l-28-8 5-8c3-5 70-32 148-62l143-53 23-23 22-22v-20c0-11-22-63-50-115l-50-95v-42l103-66c56-36 112-75 125-86l22-20v-35l-64-60-65-60-82-41c-45-23-90-41-101-41-62 0-148 95-148 165 0 14 9 51 20 82 11 32 20 68 20 80v23l-145 155-145 154v77l36 60c29 49 109 158 195 266l16 20 126-21 126-21 93 29c145 46 148 46 296 0zm-86-1053c35-13 100-42 146-65l83-42 6-16 6-16-29-21c-16-12-81-63-146-113-64-51-122-93-130-93-7 0-65 42-129 94-64 51-129 102-144 113l-28 20 6 16 6 16 83 42c64 32 184 84 205 89 2 0 31-11 65-24z"/></g><g fill="#ff8c6e" transform="matrix(.1 0 0 -.1 0 300)"><path d="m1055 2547-99-113-96 4-95 3-39-23-39-23-70-78-70-77 26-66 26-65-35-95-34-95 124-472c68-260 134-498 146-530l22-58 53-58 54-57 182-125c101-68 224-150 273-181l90-58h52l85 53c46 29 165 109 264 176l180 124 53 51 53 51 28 60 29 60 126 482 126 481-34 96-35 95 25 60c13 34 24 64 24 68 0 5-32 43-71 86l-71 78-42 21-41 21h-71c-39-1-80-3-90-6l-19-5-99 114-99 114h-693l-99-113zm586-272 73-25h40c22 0 81 7 132 16l92 17 15-6c20-8 201-251 232-313l27-53-11-33-11-33-135-144-135-143-6-24-6-24 21-50 21-49v-82l-14-28c-8-15-33-44-55-64l-41-37h-60l-63 29c-108 49-227 151-227 193 0 21 26 43 137 118 54 36 101 72 107 82l10 16-52 100-52 101v48l18 15c26 23 66 42 192 88 63 24 119 46 124 51l9 8-36 6c-20 4-78 8-129 8l-93 2-71-23-72-22-12-15-13-16 31-174 31-175-5-15-6-14-74-17-74-16-74 16-74 17-6 15-6 14 19 108c11 59 25 137 32 174l12 67-13 15-12 16-72 22-71 22h-80c-44 0-102-4-129-8l-48-8 8-7c5-4 68-29 139-56l130-48 33-24 32-24v-50l-52-101-52-100 10-16c6-10 53-46 107-82 111-75 137-97 137-118 0-41-117-142-225-193l-60-29h-65l-41 37c-22 20-47 49-55 64l-14 28v80l21 53 20 52-5 21-5 21-141 150-140 149-6 31-6 31 20 39c23 46 113 172 187 265l54 66 93-18c51-10 114-18 139-18l46-1 44 16c24 8 67 22 94 29l50 15 46-5c26-3 79-17 120-30zm-38-1073c108-48 207-102 207-111s-238-201-286-231l-24-15-24 15c-46 28-286 221-286 230 0 11 136 84 225 121l70 29 28-5c16-3 56-17 90-33z"/></g><g fill="#ff5302" transform="matrix(.1 0 0 -.1 0 300)"><path d="m1052 2540-94-108-73 5-74 6-44-12-44-13-88-88-88-89 27-65 28-65-35-98-34-98 127-480 126-480 26-55c46-102 82-132 448-377 91-61 182-119 202-129l37-17 33 14c18 7 116 69 218 137 352 237 388 267 436 366l26 51 127 485 128 485-33 97-34 98 26 66 27 66-89 89-89 89-34 11-34 12-82-6-82-5-94 109-94 108h-710l-93-109zm587-262 104-32 125 21 125 22 11-13c80-98 202-268 222-308l26-51-7-33-6-34-135-143c-75-78-140-152-146-163l-10-22 21-56 21-57v-82l-25-43c-27-46-66-79-106-89l-25-6-92 46-92 46-65 62c-36 34-65 68-65 76 0 19 50 63 127 109 37 23 84 55 103 71l35 29-52 101-53 101v59l16 16c23 22 53 36 199 91l130 49-40 7c-22 4-80 7-129 7l-89 1-71-21c-39-11-77-27-84-34l-14-13 33-181 33-181-10-10c-15-15-112-40-154-39-19 0-59 6-89 13l-55 12-10 16-10 17 33 176 32 176-11 14-11 13-78 21-77 21-80-1c-43 0-99-4-124-7l-45-8 129-47c143-53 176-69 200-92l16-16v-62l-45-83-45-82v-52l115-76 115-75 11-20 10-20-26-35c-41-53-121-113-211-156l-81-39-28 7-29 7-42 43-43 42-10 38-10 37 9 41c5 23 16 58 24 78l16 37-8 20c-4 11-66 83-138 158-72 76-136 149-143 162l-13 24 5 32c7 42 37 90 155 248l97 128 25-5c14-3 71-13 127-23l101-17 99 31 98 32 40 1h40l104-32zm39-1110 127-63 3-12 3-12-146-116c-81-64-152-118-159-121l-12-4-129 101c-72 55-140 110-153 120l-23 20 3 12c4 13 154 95 233 127l50 20 38-4 39-4 126-64z"/></g><g fill="#ff3816" transform="matrix(.1 0 0 -.1 0 300)"><path d="m1053 2542-92-106-98-1h-98l-30-14-30-14 75-9 75-9 52-24c29-13 64-35 78-49l25-25 106-21c135-26 139-26 251 10l93 30h75l104-32 104-32 125 21 125 22 11-13c80-98 202-268 222-308l26-51-7-33-6-34-135-143c-75-78-140-152-146-163l-10-22 21-56 21-57v-82l-25-43c-27-46-66-79-106-89l-25-6-89 45-90 45-62 56c-34 30-65 65-68 76l-7 20 19 21c10 11 55 43 99 70 45 27 97 62 115 78l34 28-52 101-53 101v59l16 16c23 22 53 36 199 91l130 49-40 7c-22 4-80 7-129 7l-89 1-71-21c-39-11-77-27-84-34l-14-13 33-181 33-181-10-10c-16-16-113-40-161-40h-43v-113l17-19 17-20-17-30-17-30v-133h98l128-65c71-36 130-70 132-77l3-11-151-121c-147-117-172-132-185-111-3 6-10 10-15 10h-9l-3-230-3-230 13-5c8-3 28-5 46-5h32l74 46c132 82 442 298 490 341l48 43 32 62 32 63 128 485 127 485-33 97-34 98 26 66 27 66-89 89-89 89-34 11-34 12-82-6-82-5-94 109-94 108h-710l-92-107z"/></g><g fill="#ff2302" transform="matrix(.1 0 0 -.1 0 300)"><path d="M1730 2450v-200h13c8 0 63 9 123 20s114 20 121 20h12l105-140c58-77 115-159 127-182l21-41-5-39-5-38-141-150-141-149v-25c0-14 10-55 21-91l22-66-13-42-12-42-42-42-42-42-27-6-27-7-56 22c-66 27-154 84-206 134l-38 35v-149h12c7 0 68-28 135-62l123-61v-35l-73-54c-39-30-100-78-135-107l-62-52V400h7c9 0 407 268 500 336l71 53 31 44c47 69 60 109 191 610l123 469-32 101-33 102 26 64 26 64-82 83-81 84-44 16-44 17-79-6-79-6-98 109-97 110h-116v-200zm-41-416-77-24-5-13c-3-8 8-83 24-168s28-167 27-183l-3-29-15-8c-8-5-34-13-57-19l-43-11v-117l58 37c31 21 83 55 115 75l57 38v20c0 10-21 60-47 109l-46 90v62l28 23c16 12 56 33 89 45 34 12 97 36 141 53l80 30-45 7c-25 4-81 7-125 7h-80l-76-24z"/></g></g></svg>