<?xml version="1.0" encoding="UTF-8"?>
<svg xmlns="http://www.w3.org/2000/svg" width="450" height="450" baseProfile="tiny-ps" version="1.2" viewBox="0 0 450 450">
<title>Metlife</title>
  <path id="path14" d="M224.9,179.5c29,38.4,46.2,86.2,46.2,138s-1,24.8-2.9,36.8h83.9c7.3,0,13.2-5.9,13.2-13.2V109c0-8.6-8.1-15-16.5-12.8-50.1,13.2-93.5,43.1-123.9,83.4" fill="#98d437" stroke-width="0"/>
  <path id="path16" d="M181.7,354.3c-1.9-12-2.9-24.2-2.9-36.8,0-51.8,17.2-99.7,46.2-138-30.4-40.3-73.8-70.1-123.9-83.4-8.3-2.2-16.5,4.2-16.5,12.8v232.1c0,7.3,5.9,13.2,13.2,13.2h83.9" fill="#448dd3" stroke-width="0"/>
  <path id="path18" d="M224.9,179.5c-29,38.4-46.2,86.2-46.2,138s1,24.8,2.9,36.8h86.5c1.9-12,2.9-24.2,2.9-36.8,0-51.8-17.2-99.7-46.2-138" fill="#295da6" stroke-width="0"/>
</svg>