<?xml version="1.0" encoding="utf-8"?>
<!-- Generator: Adobe Illustrator 25.0.1, SVG Export Plug-In . SVG Version: 6.00 Build 0) -->
<svg version="1.2" baseProfile="tiny-ps" xmlns:xlink="http://www.w3.org/1999/xlink" viewBox="0 0 100 100" xmlns="http://www.w3.org/2000/svg">
  <title>NVIDIA</title>
<g id="Layer_1">
	<rect fill="#76B900" width="100" height="100" />
	<g id="NV-stacked-full-negative_1_">
		<g>
			<g>
				<g>
					<path fill="#FFFFFF" d="M84.4,73.5v-0.3h0.2c0.1,0,0.2,0,0.2,0.1s-0.1,0.2-0.2,0.2L84.4,73.5 M84.4,73.7L84.4,73.7l0.4,0.5h0.3       l-0.3-0.5c0.2,0,0.3-0.1,0.3-0.3c0-0.3-0.2-0.4-0.5-0.4h-0.5v1.2h0.3L84.4,73.7 M85.8,73.6c0-0.7-0.6-1.1-1.2-1.1       s-1.2,0.4-1.2,1.1s0.6,1.1,1.2,1.1C85.2,74.7,85.8,74.3,85.8,73.6 M85.4,73.6c0,0.5-0.4,0.9-0.8,0.9l0,0       c-0.5,0-0.8-0.3-0.8-0.9c0-0.5,0.4-0.9,0.8-0.9S85.4,73.1,85.4,73.6" />
					<path fill="#FFFFFF" d="M42.7,61.5v12.8h3.6V61.5H42.7z M14.2,61.5v12.8h3.7v-9.7h2.8c0.9,0,1.6,0.2,2.1,0.7       c0.6,0.6,0.8,1.6,0.8,3.4v5.6h3.5v-7.1c0-5.1-3.2-5.7-6.4-5.7C20.7,61.5,14.2,61.5,14.2,61.5z M48.5,61.5v12.8h5.9       c3.1,0,4.1-0.5,5.3-1.7C60.5,71.8,61,70,61,68c0-1.8-0.4-3.4-1.2-4.4c-1.3-1.8-3.3-2.1-6.2-2.1C53.6,61.5,48.5,61.5,48.5,61.5z        M52.1,64.3h1.6c2.3,0,3.7,1,3.7,3.6s-1.5,3.6-3.7,3.6h-1.6V64.3z M37.5,61.5l-3,10.2l-2.9-10.2h-3.9l4.1,12.8H37l4.2-12.8       C41.2,61.5,37.5,61.5,37.5,61.5z M62.6,74.3h3.6V61.5h-3.6V74.3z M72.8,61.5l-5.1,12.8h3.6l0.8-2.3h6l0.8,2.3h3.9l-5.1-12.8       L72.8,61.5z M75.1,63.8l2.2,6h-4.5L75.1,63.8z" />
					<path fill="#FFFFFF" d="M37.9,31.5v-3.1c0.3,0,0.6,0,0.9,0c8.4-0.3,13.9,7.2,13.9,7.2s-6,8.3-12.4,8.3c-0.9,0-1.7-0.1-2.5-0.4       v-9.3c3.3,0.4,3.9,1.8,5.9,5.1l4.4-3.7c0,0-3.2-4.2-8.6-4.2C39,31.4,38.5,31.4,37.9,31.5 M37.9,21.3v4.6c0.3,0,0.6,0,0.9-0.1       c11.7-0.4,19.3,9.6,19.3,9.6s-8.8,10.7-17.9,10.7c-0.8,0-1.6-0.1-2.4-0.2v2.8c0.6,0.1,1.3,0.1,2,0.1c8.5,0,14.6-4.3,20.6-9.5       c1,0.8,5,2.7,5.9,3.6c-5.7,4.7-18.8,8.6-26.3,8.6c-0.7,0-1.4,0-2.1-0.1v4h32.3V21.3H37.9z M37.9,43.5v2.4       c-7.9-1.4-10-9.6-10-9.6s3.8-4.2,10-4.9v2.7l0,0c-3.3-0.4-5.9,2.7-5.9,2.7S33.5,42,37.9,43.5 M24,36c0,0,4.7-6.9,14-7.6v-2.5       c-10.3,0.8-19.2,9.5-19.2,9.5S23.9,50,38,51.3v-2.7C27.5,47.4,24,36,24,36" />
				</g>
			</g>
		</g>
	</g>
</g>

</svg>