<svg xmlns="http://www.w3.org/2000/svg" xmlns:xlink="http://www.w3.org/1999/xlink" version="1.2" viewBox="0 0 80 80" baseProfile="tiny-ps">
  <title>HelloBello</title>
  <g id="rectangle">
    <g id="rectangle_80x80_00000116918595123549832620000006033689165812766897_">
      <g id="rectangle_80x80_00000166657863076458148410000014091679898799554209_">
        <g id="rectangle_80x80_00000003785058999702497460000013415197308211962811_">
          <rect width="80" height="80" fill="#00756C"/>
          <g id="hb_logo_80x_00000155130720516209175190000005665936622317903262_">
            <path d="M60.922,38.748c0.144,0.37,0.463,0.822,0.771,1.007c0.021,0.01,0.031,0.021,0.051,0.021       c0.339,0.144,0.73,0.021,0.915-0.298c0.298-0.514,0.319-1.151,0.041-1.686l-0.021-0.031c-0.123-0.288-0.35-0.524-0.637-0.658       c-0.113-0.051-0.236-0.082-0.37-0.062c-0.062,0-0.123,0.01-0.175,0.031c-0.175,0.031-0.329,0.123-0.452,0.257       C60.685,37.699,60.757,38.326,60.922,38.748L60.922,38.748z" fill="#FFFFFF"/>
            <path d="M67.604,39.848c-0.01,0.021-0.021,0.031-0.031,0.051c-0.103,0.164-0.185,0.339-0.247,0.524       c-0.113,0.308-0.103,0.637,0.01,0.946c0.422,0.843,1.46,0.442,1.984-0.041c0.524-0.483,0.977-1.408,0.432-1.984       c-0.206-0.206-0.493-0.308-0.781-0.267c-0.175,0.01-0.339,0.062-0.504,0.123c-0.164,0.082-0.329,0.175-0.473,0.288       C67.851,39.58,67.717,39.704,67.604,39.848z" fill="#FFFFFF"/>
            <path d="M66.463,37.083c-0.524,0.545-0.72,1.326-0.524,2.046c0.308,0.894,1.295,0.555,1.748-0.021       c0.452-0.576,0.812-1.305,0.576-2.015c-0.113-0.38-0.483-0.637-0.874-0.586c-0.185,0.031-0.37,0.103-0.524,0.216       c-0.144,0.093-0.278,0.216-0.391,0.349L66.463,37.083L66.463,37.083z" fill="#FFFFFF"/>
            <path d="M65.178,38.275c0.257-0.391,0.401-0.843,0.432-1.305c0.041-0.37-0.031-0.75-0.185-1.09       c-0.041-0.093-0.103-0.175-0.175-0.247c-0.288-0.278-0.74-0.329-1.079-0.113c-0.247,0.144-0.452,0.36-0.586,0.606       c-0.411,0.699-0.473,1.542-0.185,2.303c0.062,0.154,0.175,0.278,0.308,0.37c0.267,0.175,0.607,0.195,0.894,0.051       c0.082-0.041,0.154-0.093,0.226-0.144C64.962,38.573,65.075,38.429,65.178,38.275L65.178,38.275z" fill="#FFFFFF"/>
            <path d="M64.068,44.319c-0.236-0.134-0.504-0.216-0.771-0.236h-0.113       c-0.257,0.021-0.514,0.041-0.761,0.093c-0.329,0.041-0.668,0.01-0.987-0.082c-0.031-0.01-0.051-0.021-0.082-0.031       c-0.288-0.134-0.524-0.339-0.699-0.606c-0.01-0.021-0.021-0.041-0.041-0.062c-0.041-0.072-0.072-0.154-0.103-0.226       c-0.051-0.164-0.062-0.339-0.031-0.514c0.021-0.103,0.051-0.206,0.082-0.298c0.01-0.031,0.031-0.072,0.041-0.103       c0.134-0.257,0.308-0.504,0.504-0.72c0.175-0.226,0.452-0.524,0.607-0.668c0.308-0.278,0.627-0.535,0.956-0.781       c0.37-0.247,0.761-0.452,1.182-0.596c0.319-0.123,0.668-0.154,0.997-0.072c0.062,0.01,0.123,0.041,0.185,0.072       c0.267,0.134,0.504,0.308,0.709,0.514c0.504,0.493,1.419,2.251,1.542,2.611c0.113,0.298,0.185,0.596,0.236,0.905       c0.093,0.535-0.164,1.162-0.617,1.429c-0.308,0.185-0.504,0.247-0.761,0.247c-0.35,0.01-0.699-0.082-1.008-0.247       C64.767,44.699,64.068,44.319,64.068,44.319L64.068,44.319z" fill="#FFFFFF"/>
            <path d="M55.031,47.495v4.502c0,0.113,0.041,0.154,0.144,0.175c0.37,0.082,0.73,0.164,1.09,0.247       c0.072,0.021,0.103,0.041,0.103,0.113v3.608c0.01,0.062-0.031,0.113-0.093,0.134c-0.586,0.236-1.203,0.401-1.83,0.463       c-0.843,0.103-1.686,0.041-2.509-0.154c-1.11-0.278-1.758-0.987-1.984-2.097c-0.093-0.463-0.144-0.925-0.144-1.398V40.886       c0-0.113,0.031-0.144,0.134-0.144c0.792-0.072,1.583-0.164,2.375-0.236c0.648-0.062,1.295-0.134,1.953-0.206       c0.051-0.01,0.103,0.021,0.123,0.072c0.216,0.339,0.37,0.72,0.442,1.12c0.123,0.565,0.185,1.141,0.185,1.717       C55.041,44.638,55.041,46.067,55.031,47.495" fill="#FFFFFF"/>
            <path d="M46.467,23.021h0.123c0.226,0.298,0.38,0.648,0.452,1.018c0.154,0.617,0.236,1.244,0.226,1.881       v8.799c0,0.103,0.031,0.144,0.134,0.164c0.37,0.082,0.74,0.175,1.121,0.257c0.072,0.021,0.093,0.041,0.093,0.113v3.608       c0.01,0.062-0.031,0.123-0.093,0.134c-0.586,0.247-1.203,0.401-1.84,0.473c-0.864,0.103-1.737,0.041-2.57-0.185       c-1.069-0.288-1.686-0.997-1.912-2.066c-0.103-0.535-0.154-1.079-0.144-1.614V23.617c0-0.123,0.041-0.144,0.154-0.164       c0.771-0.082,1.552-0.164,2.334-0.247C45.181,23.144,45.829,23.082,46.467,23.021" fill="#FFFFFF"/>
            <path d="M47.844,47.537v4.461c0,0.113,0.021,0.154,0.144,0.185c0.37,0.072,0.73,0.164,1.09,0.247       c0.082,0.021,0.103,0.041,0.103,0.123v3.598c0.01,0.062-0.031,0.113-0.093,0.134c-0.565,0.236-1.162,0.391-1.768,0.463       c-0.864,0.113-1.748,0.062-2.591-0.154c-1.131-0.288-1.768-1.038-1.974-2.169c-0.082-0.452-0.123-0.915-0.123-1.377v-12.13       c0-0.123,0.041-0.144,0.144-0.154c0.72-0.072,1.429-0.144,2.149-0.216c0.72-0.072,1.45-0.144,2.18-0.226       c0.051-0.01,0.103,0.021,0.113,0.062c0.175,0.267,0.308,0.565,0.38,0.874c0.175,0.689,0.257,1.408,0.247,2.118       C47.844,44.761,47.844,46.149,47.844,47.537" fill="#FFFFFF"/>
            <path d="M35.384,49.798c0.072-0.463,0.236-0.884,0.658-1.131c0.329-0.195,0.679-0.164,1.018,0.021       c0.226,0.123,0.319,0.349,0.329,0.606c0.01,0.164-0.01,0.339-0.072,0.493c-0.01,0.051-0.062,0.093-0.113,0.082h-1.737       C35.425,49.87,35.373,49.88,35.384,49.798 M41.984,55.236c-0.329-0.935-0.658-1.871-0.987-2.806       c-0.041-0.113-0.072-0.113-0.175-0.072c-1.316,0.586-2.673,0.894-4.123,0.792c-0.298-0.01-0.596-0.082-0.874-0.216       c-0.38-0.195-0.596-0.606-0.555-1.038c0.206,0.093,0.422,0.164,0.637,0.216c0.709,0.154,1.439,0.216,2.159,0.185       c0.545-0.01,1.08-0.103,1.594-0.278c0.864-0.308,1.46-0.874,1.737-1.758c0.164-0.545,0.206-1.12,0.123-1.686       c-0.072-0.699-0.391-1.357-0.884-1.861c-0.504-0.514-1.131-0.812-1.809-1.007c-0.709-0.185-1.45-0.267-2.18-0.236       c-0.751,0.01-1.491,0.123-2.2,0.329c-1.563,0.473-2.704,1.419-3.331,2.94c-0.278,0.689-0.442,1.429-0.473,2.169       c-0.072,0.874-0.01,1.747,0.195,2.601c0.37,1.398,1.193,2.416,2.55,2.96c0.74,0.278,1.522,0.432,2.313,0.452       c1.285,0.062,2.57-0.072,3.804-0.411c0.874-0.247,1.696-0.586,2.426-1.131c0.062-0.031,0.082-0.113,0.051-0.175l0,0" fill="#FFFFFF"/>
            <path d="M27.622,32.498c0.062-0.442,0.216-0.843,0.617-1.11c0.339-0.226,0.709-0.206,1.049-0.01       c0.278,0.154,0.391,0.493,0.329,0.874c-0.034,0.206-0.158,0.308-0.37,0.308h-1.552C27.663,32.56,27.611,32.57,27.622,32.498        M34.232,37.967c-0.339-0.956-0.679-1.922-1.008-2.878c-0.021-0.062-0.041-0.082-0.113-0.051       c-1.038,0.483-2.149,0.761-3.29,0.822c-0.504,0.021-0.997,0.021-1.491-0.123c-0.555-0.164-0.833-0.555-0.822-1.151       c0.185,0.082,0.37,0.154,0.555,0.206c0.699,0.164,1.419,0.236,2.138,0.206c0.617,0,1.234-0.103,1.82-0.319       c0.74-0.288,1.275-0.792,1.563-1.532c0.195-0.555,0.267-1.141,0.195-1.727c-0.031-0.493-0.185-0.977-0.432-1.408       c-0.442-0.74-1.1-1.192-1.892-1.48c-0.627-0.226-1.295-0.339-1.964-0.349c-0.997-0.031-1.984,0.062-2.94,0.37       c-1.501,0.483-2.581,1.429-3.187,2.899c-0.267,0.678-0.432,1.398-0.473,2.128c-0.062,0.925-0.031,1.83,0.216,2.724       c0.195,0.771,0.607,1.48,1.182,2.035c0.524,0.483,1.151,0.822,1.84,1.018c0.946,0.288,1.923,0.329,2.91,0.298       c1.069-0.031,2.128-0.216,3.136-0.545c0.72-0.226,1.398-0.565,2.005-1.007C34.232,38.059,34.263,38.028,34.232,37.967" fill="#FFFFFF"/>
            <path d="M63.872,52.615c-0.021,0.103-0.041,0.195-0.082,0.288c-0.175,0.483-0.709,0.73-1.182,0.555       c-0.01,0-0.021-0.01-0.031-0.01c-0.185-0.082-0.339-0.226-0.422-0.421c-0.123-0.298-0.195-0.606-0.206-0.925       c-0.041-0.555-0.041-1.11,0-1.655c0.01-0.298,0.082-0.596,0.206-0.874c0.195-0.442,0.709-0.637,1.151-0.442       c0.206,0.093,0.37,0.257,0.452,0.463c0.123,0.349,0.195,0.709,0.185,1.079c0.01,0.206,0,0.421,0,0.627       C63.944,51.73,63.954,52.173,63.872,52.615 M68.838,49.726c-0.093-0.72-0.329-1.408-0.709-2.025       c-0.637-1.018-1.594-1.614-2.735-1.922c-0.751-0.185-1.522-0.267-2.293-0.236c-0.884,0-1.758,0.144-2.601,0.421       c-1.522,0.535-2.611,1.532-3.167,3.063c-0.473,1.305-0.545,2.714-0.226,4.06c0.36,1.583,1.306,2.703,2.807,3.33       c0.822,0.329,1.707,0.493,2.601,0.473c0.956,0,1.83-0.082,2.683-0.329c1.789-0.514,2.961-1.634,3.444-3.444       C68.941,52.008,69.002,50.857,68.838,49.726" fill="#FFFFFF"/>
            <path d="M56.11,35.315c-0.01,0.082-0.041,0.154-0.062,0.236c-0.195,0.637-0.761,0.709-1.172,0.617       c-0.226-0.062-0.411-0.226-0.493-0.442c-0.123-0.288-0.185-0.596-0.195-0.905c-0.041-0.555-0.041-1.12,0-1.686       c0.021-0.278,0.082-0.555,0.185-0.822c0.206-0.473,0.617-0.668,1.11-0.514c0.206,0.062,0.38,0.216,0.483,0.411       c0.113,0.247,0.185,0.514,0.206,0.781c0.041,0.339,0.031,0.668,0.031,1.038C56.182,34.441,56.203,34.883,56.11,35.315        M61.086,32.457c-0.082-0.699-0.319-1.377-0.679-1.994c-0.617-1.018-1.542-1.624-2.663-1.943       c-1.604-0.401-3.29-0.36-4.883,0.103c-1.583,0.514-2.724,1.521-3.29,3.104c-0.493,1.367-0.555,2.847-0.175,4.245       c0.391,1.501,1.337,2.539,2.766,3.135c0.822,0.329,1.707,0.493,2.601,0.473c0.74,0.01,1.491-0.062,2.21-0.216       c0.771-0.154,1.501-0.452,2.149-0.905c0.966-0.689,1.522-1.655,1.799-2.786C61.189,34.626,61.24,33.526,61.086,32.457" fill="#FFFFFF"/>
            <path d="M24.743,52.594c-0.072,0.216-0.185,0.421-0.329,0.596c-0.339,0.391-0.833,0.411-1.254,0.267       c-0.072-0.021-0.072-0.082-0.072-0.134v-4.019c0-0.103,0.031-0.144,0.134-0.164c0.226-0.051,0.463-0.082,0.689-0.062       c0.37,0.031,0.689,0.267,0.822,0.617c0.144,0.37,0.216,0.771,0.206,1.162C24.949,51.443,24.928,52.029,24.743,52.594        M30.068,50.343c-0.01-0.781-0.164-1.542-0.442-2.272c-0.36-0.884-0.946-1.573-1.82-1.994c-0.524-0.247-1.1-0.38-1.686-0.401       c-1.069-0.103-2.138,0.154-3.043,0.73v-3.104c0.01-0.576-0.031-1.151-0.113-1.727c-0.062-0.432-0.216-0.843-0.463-1.192       c-0.031-0.051-0.082-0.082-0.144-0.072c-0.617,0.072-1.234,0.134-1.861,0.195c-0.751,0.082-1.501,0.164-2.262,0.247       c-0.154,0.021-0.154,0.01-0.154,0.175v11.924c0,0.771,0,1.542-0.164,2.303c-0.062,0.267,0.041,0.391,0.236,0.535       c1.038,0.709,2.2,1.048,3.434,1.213c0.822,0.103,1.645,0.123,2.467,0.072c0.761-0.041,1.522-0.185,2.252-0.411       c1.82-0.606,3.002-1.819,3.496-3.68c0.206-0.833,0.288-1.686,0.247-2.529" fill="#FFFFFF"/>
            <path d="M10.144,23.452C10.031,23.463,10,23.493,10,23.606v12.561c0,0.627,0.041,1.264,0.144,1.881       c0.051,0.36,0.154,0.709,0.319,1.038c0.031,0.072,0.113,0.123,0.195,0.113h4.339c0.11,0,0.164-0.055,0.164-0.164v-6.363       c0-0.103,0.031-0.144,0.134-0.175c0.175-0.041,0.36-0.062,0.545-0.062c0.401,0,0.617,0.175,0.72,0.565       c0.072,0.329,0.103,0.658,0.093,0.987c0,0.72-0.021,1.429,0.01,2.148c0.01,0.524,0.082,1.048,0.195,1.552       c0.216,0.843,0.74,1.388,1.573,1.624c0.432,0.113,0.874,0.175,1.316,0.164c0.586-0.01,1.172-0.072,1.748-0.185       c0.278-0.041,0.555-0.123,0.822-0.226c0.062-0.021,0.103-0.082,0.103-0.144v-3.372c0.01-0.051-0.031-0.113-0.082-0.113l0,0       c-0.206-0.062-0.411-0.123-0.617-0.175c-0.093-0.021-0.113-0.062-0.113-0.154c0-1.007,0.021-2.015-0.01-3.022       c-0.01-0.627-0.123-1.244-0.329-1.83c-0.319-0.874-0.915-1.46-1.83-1.686c-0.422-0.093-0.853-0.144-1.295-0.154       c-1.038-0.051-2.036,0.257-2.858,0.863c-0.082,0.062-0.154,0.123-0.226,0.185c-0.021-0.031-0.031-0.072-0.021-0.123v-3.207       c0.01-0.524-0.021-1.048-0.082-1.562c-0.082-0.565-0.185-1.12-0.576-1.562C14.39,23,11.049,23.36,10.144,23.452L10.144,23.452z       " fill="#FFFFFF"/>
            <path d="M39.404,23c0.339,0.473,0.473,1.028,0.576,1.593c0.082,0.545,0.123,1.09,0.113,1.634v8.491       c0,0.103,0.021,0.144,0.123,0.164c0.37,0.082,0.74,0.175,1.121,0.257c0.072,0.021,0.093,0.041,0.093,0.113v3.618       c0.01,0.062-0.031,0.113-0.093,0.134c-1.388,0.565-2.93,0.668-4.38,0.298c-0.72-0.195-1.306-0.576-1.645-1.264       c-0.206-0.421-0.329-0.874-0.37-1.336c-0.041-0.401-0.062-0.812-0.062-1.213V23.627c0-0.123,0.031-0.154,0.154-0.164       c0.853-0.082,1.707-0.175,2.57-0.267C38.139,23.134,39.393,23,39.404,23" fill="#FFFFFF"/>
          </g>
        </g>
      </g>
    </g>
  </g>
</svg>