<?xml version="1.0" encoding="UTF-8" standalone="yes"?>
<svg version="1.2" baseProfile="tiny-ps" viewBox="0 0 513.3 424.6" xml:space="preserve" xmlns="http://www.w3.org/2000/svg">
 <title>Bechtel</title>
 <polygon stroke-width="0px" fill="#57727f" points="269.5 196.5 254.3 201.9 254.3 172 237.5 178 237.5 254.6 254.3 248.7 254.3 218 269.5 212.6 269.5 243.3 286.4 237.4 286.4 160.7 269.5 166.7 269.5 196.5"/>
 <polygon stroke-width="0px" fill="#57727f" points="293.6 174.3 308.4 169.1 308.4 229.6 325.2 223.6 325.2 163.1 340 157.9 340 141.8 293.6 158.2 293.6 174.3"/>
 <polygon stroke-width="0px" fill="#57727f" points="413.9 176.2 413.9 115.7 397 121.7 397 198.3 436.6 184.3 436.6 168.2 413.9 176.2"/>
 <path stroke-width="0px" fill="#57727f" d="M116.7,258.5c3.4-4.5,5.8-10.7,5.8-17.4s-.9-13.5-9.8-15.9c-3.2-.9-7.9-.4-11.9,1,0,0-24.2,8.5-24.2,8.5v76.6l32-11.3c8.5-3.2,11.5-7.6,11.7-8,3.4-4.8,5.6-11.2,5.7-17.7,0-7-2.9-14.3-9.3-16v.2ZM93.5,244.9s6.8-2.5,8.4-3c4.3-1.5,5.9,2.7,5.9,5.7s-2.3,7.6-6.1,9c-1.1.4-8.2,2.9-8.2,2.9v-14.5h0ZM104.8,285.4c-3.9,1.4-11.3,4-11.3,4v-16.3l9.7-3.4c4-1.5,7.1,1.4,7.1,6.1s-1.6,8.2-5.5,9.6h0Z"/>
 <polygon stroke-width="0px" fill="#57727f" points="347.2 215.9 387.7 201.6 387.7 185.5 364 193.8 364 177.6 382.2 171.1 382.2 156.7 364 163.1 364 149.4 387.7 141 387.7 124.9 347.2 139.2 347.2 215.9"/>
 <polygon stroke-width="0px" fill="#57727f" points="134.7 290.9 175.2 276.6 175.2 260.5 151.5 268.9 151.5 252.6 169.8 246.2 169.8 231.7 151.5 238.2 151.5 224.4 175.2 216.1 175.2 200 134.7 214.3 134.7 290.9"/>
 <path stroke-width="0px" fill="#57727f" d="M228.7,228.9l-15,5.3v8c0,4.7-2.5,8.3-7.1,9.9-4.2,1.5-6.7,0-6.7-4.1v-36.2c0-4.5,2.7-8.1,7.2-9.7,4.4-1.5,6.5,0,6.5,4.5v8.2l15-5.3v-7.9c0-11.1-5.9-17.2-15.6-16.2-2.1.2-4.5.9-6.9,1.6-3.8,1.2-23.1,8.9-23.1,31.4v33.7c0,11.4,6.8,18.1,17.1,17,2.1-.2,4.4-.7,6.7-1.6,13.5-4.8,21.8-16.1,21.8-29.7v-8.9h.1Z"/>
 <path stroke-width="0px" fill="#ee3424" d="M249.9,97.6c30.8,0,58.7,12.1,79.3,31.9l21.7-7.7c-24.8-27.7-60.9-45.2-101.1-45.2-72.6,0-131.9,57-135.5,128.7l21.7-7.7c7.2-56.4,55.4-100.1,113.8-100.1h0Z"/>
 <path stroke-width="0px" fill="#ee3424" d="M249.9,327c-31.1,0-59.3-12.4-79.9-32.4l-21.7,7.7c24.9,28.1,61.2,45.8,101.6,45.8,72.9,0,132.3-57.4,135.5-129.5l-21.7,7.7c-6.8,56.8-55.2,100.9-113.9,100.9v-.2Z"/>
</svg>
