<?xml version="1.0" encoding="utf-8"?>
<!-- Generator: Adobe Illustrator 28.7.1, SVG Export Plug-In . SVG Version: 9.03 Build 54978)  -->
<svg version="1.2" baseProfile="tiny-ps" id="Capa_1" xmlns="http://www.w3.org/2000/svg" xmlns:xlink="http://www.w3.org/1999/xlink"
	  viewBox="0 0 1080 1080"  xml:space="preserve">
<title>EuroAmerica</title>
<g>
	<path fill="#FFFFFF" d="M798.8,453.4C798.5,377.3,734,315.8,654.6,316c-47.1,0.2-88.8,22-114.9,55.6c-26.3-33.5-68.2-55-115.2-54.9
		C345.1,317,281,379,281.2,455.1c0.3,76.1,64.8,137.6,144.2,137.4c47.1-0.2,88.8-22,114.9-55.6c26.3,33.5,68.2,55,115.3,54.9
		C734.9,591.5,799,529.5,798.8,453.4"/>
	<polygon fill="#404B51" points="117.5,659.8 175.8,659.8 175.8,671.6 131.9,671.6 131.9,705.1 173.9,705.1 173.9,716.8 
		131.9,716.8 131.9,752.7 176.2,752.7 176.2,764.4 117.5,764.4 	"/>
	<path fill="#404B51" d="M258.8,689v75.4h-13.5v-11c-2.7,3.7-6.1,6.7-10.1,9c-4,2.4-8.7,3.5-13.9,3.5c-4.7,0-8.7-1-12-3
		c-3.3-2-6-4.7-8.1-8.1c-2.1-3.4-3.6-7.4-4.6-11.9c-0.9-4.5-1.4-9.3-1.4-14.3v-39.7h14.1v39.3c0,3.9,0.3,7.4,0.8,10.6
		c0.5,3.2,1.4,5.9,2.7,8.2c1.3,2.3,3,4.1,5.1,5.4c2.1,1.3,4.8,2,8.1,2c4.2,0,7.9-1.1,11-3.3c3.1-2.2,5.7-4.5,7.7-6.9V689L258.8,689
		L258.8,689z"/>
	<path fill="#404B51" d="M324.8,700.7h-3.6c-5.5,0-10.4,1-14.4,3.1c-4,2.1-7.5,5.5-10.3,10.2v50.4h-14.1V689h13.5v14.5
		c2.2-5,5.1-8.8,8.7-11.5c3.6-2.6,8.4-3.9,14.4-3.9c2.3,0,4.2,0.3,5.8,0.8L324.8,700.7L324.8,700.7z"/>
	<path fill="#404B51" d="M392.2,726.7c0-3.9-0.5-7.5-1.4-11c-0.9-3.5-2.3-6.5-4.2-9c-1.8-2.6-4.2-4.6-7-6c-2.8-1.5-6.1-2.2-9.9-2.2
		c-3.8,0-7.1,0.7-9.9,2.2c-2.8,1.5-5.2,3.5-7,6c-1.8,2.6-3.2,5.6-4.2,9c-0.9,3.5-1.4,7.1-1.4,11c0,4,0.5,7.7,1.4,11.1s2.3,6.4,4.2,9
		c1.8,2.6,4.2,4.6,7,6c2.8,1.5,6.1,2.2,9.9,2.2c3.8,0,7.1-0.7,9.9-2.2c2.8-1.5,5.2-3.5,7-6c1.8-2.6,3.2-5.5,4.2-9
		C391.7,734.4,392.2,730.7,392.2,726.7 M406.3,726.7c0,5.3-0.8,10.4-2.4,15.1c-1.6,4.7-4,8.9-7.1,12.5c-3.1,3.6-7,6.5-11.5,8.6
		c-4.5,2.1-9.7,3.2-15.5,3.2c-5.9,0-11-1-15.6-3.2c-4.5-2.1-8.3-5-11.5-8.6c-3.1-3.6-5.5-7.8-7.1-12.5c-1.6-4.7-2.4-9.7-2.4-15.1
		s0.8-10.4,2.4-15.1c1.6-4.7,4-8.9,7.1-12.5c3.1-3.6,7-6.5,11.5-8.6c4.5-2.1,9.7-3.1,15.6-3.1c5.8,0,10.9,1,15.5,3.1
		c4.6,2.1,8.4,5,11.5,8.6c3.1,3.6,5.5,7.8,7.1,12.5C405.5,716.4,406.3,721.4,406.3,726.7"/>
	<path fill="#404B51" d="M445.6,727.5h40.2L465.7,673L445.6,727.5z M514.4,764.4h-14.8l-9.6-25.3h-48.9l-9.4,25.3H417l41.6-104.6
		h14.1L514.4,764.4z"/>
	<path fill="#404B51" d="M612.6,698.9c-4,0-7.7,1.2-11.1,3.5s-6.4,5.1-9,8.5c0.9,4.3,1.4,8.9,1.4,13.8v39.7h-14.1v-39.3
		c0-3.9-0.3-7.4-0.8-10.6c-0.5-3.2-1.4-5.9-2.7-8.2c-1.2-2.3-2.9-4.1-5-5.4c-2.1-1.3-4.7-2-7.8-2c-4.2,0-7.9,1.1-11.1,3.3
		c-3.2,2.2-5.7,4.5-7.6,6.9v55.3h-14.1V689h13.5v11c2.8-4,6.2-7.1,10.2-9.3c4-2.2,8.6-3.3,13.8-3.3c5.3,0,9.8,1.3,13.3,3.9
		c3.5,2.6,6.3,6.2,8.2,10.8c3.1-4.7,6.9-8.3,11.2-10.9c4.3-2.6,9.6-3.8,15.8-3.8c4.7,0,8.7,1,12.1,3c3.3,2,6.1,4.7,8.2,8.1
		c2.1,3.4,3.6,7.3,4.6,11.9c1,4.5,1.5,9.3,1.5,14.3v39.7h-14.1v-39.3c0-3.9-0.3-7.4-0.8-10.6c-0.5-3.2-1.4-5.9-2.7-8.2
		c-1.2-2.3-2.9-4.1-5-5.4C618.3,699.6,615.7,698.9,612.6,698.9"/>
	<path fill="#404B51" d="M694.4,698c-3,0-5.7,0.6-8,1.7c-2.3,1.2-4.3,2.7-6,4.7c-1.7,2-3,4.3-3.9,7s-1.5,5.5-1.7,8.4h35.5
		c0.3-2.9,0.3-5.7-0.2-8.4c-0.4-2.7-1.3-5-2.5-7c-1.3-2-3-3.6-5.2-4.7C700.2,698.6,697.5,698,694.4,698 M694.9,687.5
		c4.8,0,9,0.8,12.7,2.3c3.6,1.6,6.7,3.7,9.1,6.4c2.5,2.7,4.3,6,5.5,9.7c1.2,3.7,1.8,7.7,1.8,12c0,4.3-0.5,8.5-1.6,12.7h-47.6
		c0.1,3.7,0.6,7,1.6,9.9c0.9,2.9,2.4,5.5,4.3,7.6c1.9,2.1,4.5,3.8,7.5,5c3.1,1.2,6.8,1.7,11.2,1.7c4.1,0,7.9-0.4,11.5-1.2
		c3.6-0.8,6.9-1.9,10-3.2l1.9,10.5c-3.3,1.6-7.2,2.8-11.7,3.7c-4.5,0.9-9,1.3-13.7,1.3c-6.3,0-11.8-1-16.4-3.1
		c-4.7-2-8.5-4.8-11.5-8.3s-5.3-7.6-6.8-12.3s-2.3-9.8-2.3-15.2s0.8-10.6,2.3-15.4c1.6-4.8,3.8-9,6.8-12.7c3-3.6,6.6-6.4,10.9-8.5
		C684.7,688.5,689.5,687.5,694.9,687.5"/>
	<path fill="#404B51" d="M784.2,700.7h-3.6c-5.5,0-10.3,1-14.4,3.1c-4,2.1-7.5,5.5-10.3,10.2v50.4h-14.1V689h13.5v14.5
		c2.2-5,5.1-8.8,8.7-11.5c3.6-2.6,8.4-3.9,14.4-3.9c2.3,0,4.2,0.3,5.8,0.8L784.2,700.7L784.2,700.7z"/>
	<path fill="#404B51" d="M798.5,689h14.1v75.4h-14.1V689z M796.7,666.7c0-2.4,0.8-4.5,2.4-6.3s3.8-2.7,6.5-2.7
		c2.7,0,4.9,0.9,6.5,2.7c1.6,1.8,2.4,3.9,2.4,6.3c0,2.4-0.8,4.5-2.4,6.3c-1.6,1.8-3.8,2.7-6.5,2.7c-2.7,0-4.9-0.9-6.5-2.7
		C797.5,671.2,796.7,669.2,796.7,666.7"/>
	<path fill="#404B51" d="M867.8,687.3c4.2,0,8.1,0.4,11.8,1.1c3.7,0.7,6.8,1.7,9.4,3l-2,10.9c-2.7-1.2-5.6-2-8.7-2.7
		c-3.1-0.6-6.2-0.9-9.2-0.9c-8.5,0-14.7,2.6-18.8,7.8c-4,5.2-6,11.9-6,20.1c0,8.3,2,15,6,20.1c4,5.2,10.3,7.8,18.8,7.8
		c3,0,6.1-0.3,9.2-0.9c3.1-0.6,6-1.5,8.7-2.7l2,10.9c-2.6,1.3-5.9,2.3-9.9,3c-4,0.7-7.8,1.1-11.3,1.1c-6.3,0-11.8-1.1-16.5-3.2
		c-4.7-2.1-8.6-5-11.8-8.6c-3.2-3.6-5.5-7.8-7.1-12.6s-2.3-9.8-2.3-15s0.8-10.2,2.3-15c1.6-4.8,3.9-9,7.1-12.6s7.1-6.5,11.8-8.6
		C856,688.4,861.5,687.3,867.8,687.3"/>
	<path fill="#404B51" d="M927.7,755.6c4.1,0,7.9-0.9,11.5-2.8c3.6-1.8,6.7-4.2,9.3-7v-14c-3.1,0.2-6.1,0.4-8.8,0.6
		c-2.7,0.2-5.5,0.5-8.2,0.8c-2.2,0.2-4.3,0.6-6.2,1.1c-1.9,0.5-3.6,1.2-5,2.1c-1.4,0.9-2.5,2-3.3,3.5c-0.8,1.4-1.2,3.1-1.2,5.1
		c0,3.6,1,6.2,3.1,7.9C920.9,754.8,923.9,755.6,927.7,755.6 M948.7,755c-1.2,1.4-2.6,2.7-4.2,4c-1.7,1.3-3.6,2.5-5.7,3.5
		c-2.2,1-4.5,1.9-7.1,2.5c-2.6,0.6-5.3,1-8.1,1c-3.1,0-6-0.5-8.6-1.5c-2.6-1-4.9-2.4-6.8-4.2c-1.9-1.8-3.4-4-4.5-6.6
		c-1.1-2.6-1.7-5.5-1.7-8.6c0-6.9,2.4-12.2,7.3-15.7c4.9-3.5,11.4-5.6,19.6-6.1c3.3-0.2,6.7-0.4,10-0.5c3.3-0.1,6.5-0.2,9.5-0.2
		v-3.3c0-6.4-1.4-11.4-4.1-15c-2.7-3.6-7.2-5.4-13.5-5.4c-3.7,0-7.2,0.5-10.5,1.4c-3.3,0.9-6.5,2.2-9.5,3.9l-3.3-10.4
		c4-2.4,8-4.1,12.2-5c4.1-0.9,8.7-1.4,13.6-1.4c8.9,0,16,2.7,21.3,8.2c5.3,5.4,7.9,13.2,7.9,23.4v45.4h-13.8V755z"/>
	<path fill="#B2292E" d="M783.2,477.2l-2,7c-0.1,0.9-0.6,1.7-1.2,2.4c-0.6,0.7-1.5,1.2-2.3,1.4l-27.4,6l-14.1,2.9
		c-0.4,0.1-0.9,0.1-1.5,0.2c-1.1,0.1-2.3,0.1-3.3,0c-0.5,0-1-0.1-1.5-0.2l-15-2.7c-0.4-0.1-0.8-0.1-1.2,0c-0.8,0.2-1.4,0.7-1.7,1.4
		c-0.2,0.4-0.3,0.8-0.3,1.2l-0.1,6.7c0,0.4-0.1,0.9-0.3,1.3c-0.2,0.4-0.4,0.8-0.7,1.2c-0.5,0.8-1.3,1.4-2.2,1.6l-8.5,2.7
		c-1.7,0.5-4.3,1.7-5.8,2.6l-12.5,7.5c-0.8,0.5-1.5,1.2-2.2,2.1s-1.1,1.8-1.3,2.7l-3.8,15.7c-0.1,0.4-0.3,0.9-0.5,1.3
		c-0.4,0.9-1.1,1.9-1.8,2.7c-0.3,0.4-0.7,0.7-1,1l-15.1,11.2c-0.7,0.5-1.7,1-2.7,1.3c-0.5,0.2-1,0.3-1.6,0.4c-0.5,0.1-1,0.1-1.4,0.1
		l-22.5-0.9l-13.3,0.3l-10.3,0.2c-0.4,0-0.9-0.1-1.3-0.2c-1.3-0.4-2.5-1.5-2.9-2.7l-4-11.1c-0.1-0.4-0.4-0.8-0.7-1.2
		c-0.9-1.1-2.3-1.8-3.6-1.8l-18.2,0.2c-1.1,0-2.1-0.6-2.7-1.5c-0.4-0.5-0.6-1-0.7-1.7l-0.2-2.8l-0.2-2.8c0-0.4,0-0.9,0.1-1.4
		c0.3-1.5,1-3.1,1.9-4l2.8-3.9l2.8-3.9c0.4-0.4,1-1.1,1.6-2c0.3-0.4,0.7-0.9,1-1.4c0.2-0.3,0.3-0.5,0.5-0.8c1-1.5,1.8-3,1.8-3.8
		l1.8-6.5c0.1-1.3,0.7-3.1,1.5-4.4c0.3-0.5,0.5-0.9,0.8-1.2l3.9-4.7c0.3-0.3,0.4-0.8,0.5-1.2c0.1-0.9-0.2-2-0.3-3
		c-0.1-0.5-0.1-1-0.1-1.5l3.4-9.7c0.1-0.9,0.5-1.8,1.1-2.6c0.6-0.8,1.4-1.5,2.2-1.8l3.7-1.7c1.6-0.7,4.3-0.8,5.9-0.3l11.5,3.8
		c0.4,0.1,0.9,0.3,1.4,0.4c1.6,0.4,3.5,0.6,4.8,0.6l16,1.9c0.4,0,0.9,0,1.5,0.1c1,0.1,2.2,0.4,3.1,0.8c0.5,0.2,1,0.4,1.4,0.6
		l10.3,2.8c0,0,0.1,0,0.2,0.1c1.2,0.6,2.9,0.9,4.3,0.9c0.5,0,1-0.1,1.4-0.2l4.1-0.9c0.4-0.1,0.9-0.3,1.3-0.5c1.2-0.7,2.2-2,2.5-3.3
		l4.4-20.9c0.4-1.7-0.2-4.3-1.2-5.7l-10.2-14.5c-0.2-0.4-0.5-0.8-0.6-1.2c-0.2-0.5-0.3-0.9-0.4-1.4c-0.2-1-0.1-1.9,0.1-2.7
		c0.5-1.5,2.4-2.8,4.1-3l26.2-2.5c0.4,0,0.9-0.1,1.5-0.3c1-0.2,2.2-0.6,3.1-1.1c0.5-0.2,0.9-0.5,1.3-0.7l22.9-14.4
		c1.4-0.9,3.2-2.6,4.2-4c0.1-0.1,0.2-0.2,0.2-0.3l6.1-9.4l6.1-9.4c6-3.8,13.7-0.4,15.6,0.6c0.1,0.1,0.3,0.1,0.3,0.2
		c0,0,0.2,0.1,0.2,0.1c2.7,1,6.6,3.1,9.6,5c1,0.7,1.9,1.3,2.7,1.9l6.2,10.4c0.9,1.5,5,3.8,7,10.8c2,7-0.5,9.9-0.5,9.9
		c0.5,1.7,2.1,17.2,2.1,19l2.9,3.3l-0.6,8.8c0,1.8,1.2,9.6,0.9,11.3L783.2,477.2z M623,364.3l0.8-0.6c1.4-1.1,3.9-2,5.7-2.1
		l13.5-0.3c1.8,0,2.9,1.3,2.6,3.1l-4.3,15.5c-0.3,1.7-0.6,9.2-2.4,9.2l-19.9-1.1c-1.8,0-2.3-1.1-1.2-2.5l4-5.2
		c1.1-1.4,3.5-6.5,3-8.2l-2.9-4.4C621.3,366.1,621.6,365.4,623,364.3 M645.3,340.1l2.5-3c1.1-1.4,3.3-1.8,5-1.1l3.5,1.6
		c1.6,0.7,4.3,1.2,6.1,1l3.9-0.3c1.8-0.1,3.3,1.1,3.4,2.9l2,6.9c0.1,1.8,1.9,4.4,3.4,5.3l5.7,6.3c1.5,1,2.9,3.2,3.1,4.9l4.7,12.3
		c0.3,1.7,1.6,4,3,5.1l6.6,8c1.4,1.1,2.5,3.4,2.5,5.1l0,2.9c0,1.8-1.3,3.9-2.8,4.7l-1,0.5c-1.6,0.8-4.2,1.1-5.9,0.8l-8.3-2
		c-1.7-0.4-4.5-0.7-6.3-0.7l-14.2,0.1c-1.8,0-3.2-1.4-3.2-3.2l0.2-28.8c0-1.8-0.8-4.4-1.8-5.8L645,345.2
		C644,343.8,644.1,341.5,645.3,340.1 M509.9,421.9l-11.9,9.7c-1.5,1.2-2.8,3.9-2.8,5.8l0,11.5c0,2-1.4,4.3-3.2,5.1l-26.8,13
		c-1.8,0.9-3.4,3.1-3.5,5.1l-1.6,16.8c-0.2,2-1.7,4.4-3.4,5.3l-23.2,13.3c-1.7,1-3.7,3.2-4.5,5.1l-1.4,3.5c-0.8,1.8-2.2,4.7-3.2,6.4
		l-15.7,26.7c-1,1.7-1.4,4.6-0.9,6.5l3.6,13.7c0.5,1.9-0.6,3-2.5,2.3l-17.7-5.8c-1.9-0.6-3.4-2.7-3.5-4.7l-1.6-105
		c0-2-1.4-4.5-3-5.6l-40.9-29.1c-1.6-1.1-3.2-3.6-3.5-5.6l-4.2-23.7c-0.3-2,0.3-4.9,1.3-6.5l16.6-25.1l9.7-12
		c1.2-1.5,3.8-2.6,5.8-2.4l38.2,4.4c2,0.2,4.4,1.7,5.5,3.4l6.6,9.9c1.1,1.6,3.6,3,5.5,3.1l11.2,0.3c2,0,4.9,1,6.5,2.1l10.6,7.5
		c1.6,1.1,4,3.2,5.5,4.6L474,398c1.4,1.4,4.1,2.4,6.1,2.2l23.5-2.1c2-0.2,4,1.2,4.4,3.1l3.8,14.9
		C512.3,418.1,511.5,420.6,509.9,421.9 M798.8,453.4C798.5,377.3,734,315.8,654.6,316c-47.1,0.2-88.8,22-114.9,55.6
		c-26.3-33.5-68.2-55-115.2-54.9C345.1,317,281,379,281.2,455.1c0.3,76.1,64.8,137.6,144.2,137.4c47.1-0.2,88.8-22,114.9-55.6
		c26.3,33.5,68.2,55,115.3,54.9C734.9,591.5,799,529.5,798.8,453.4"/>
</g>
</svg>
