<?xml version="1.0" encoding="UTF-8" standalone="yes"?>
<svg width="96" height="96" viewBox="0 0 96 96" version="1.2" baseProfile="tiny-ps" stroke-miterlimit="2" stroke-linejoin="round" fill-rule="evenodd" xmlns="http://www.w3.org/2000/svg">
  <title>Bergen Real Estate</title>
  <g id="Bergen-Real-Estate" transform="matrix(0.126641,0,0,0.126641,0,0)">
    <rect x="0" y="0" width="758.048" height="758.048" fill="none"/>
    <g>
      <g id="Square" transform="matrix(-5.34846,0,0,5.34846,841.436,-83.3878)">
        <path d="M157.323,29.764L157.323,143.15C157.323,150.972 150.972,157.323 143.15,157.323L29.764,157.323C21.942,157.323 15.591,150.972 15.591,143.15L15.591,29.764C15.591,21.942 21.942,15.591 29.764,15.591L143.15,15.591C150.972,15.591 157.323,21.942 157.323,29.764Z" fill="rgb(255,0,0)"/>
      </g>
      <g id="RG" transform="matrix(5.34846,0,0,5.34846,605.948,187.166)">
        <path d="M0,71.744C4.613,70.809 8.629,69.515 11.935,67.894L12.729,67.506L12.729,31.605L-16.63,31.605L-16.63,43.577L-1.501,43.577L-1.501,58.756C-5.485,59.776 -9.564,60.294 -13.643,60.294C-20.713,60.294 -26.072,58.259 -29.57,54.246C-33.119,50.178 -34.919,43.963 -34.919,35.774C-34.919,27.842 -33.166,21.772 -29.708,17.734C-26.26,13.705 -21.262,11.746 -14.427,11.746C-10.873,11.746 -7.562,12.281 -4.586,13.335C-1.6,14.394 1.506,16.171 4.645,18.618L6.046,19.711L11.564,7.92L10.791,7.217C7.776,4.477 3.988,2.328 -0.469,0.831C-4.888,-0.652 -9.684,-1.404 -14.723,-1.404C-21.938,-1.404 -28.334,0.11 -33.731,3.096C-39.162,6.102 -43.402,10.463 -46.335,16.056C-49.246,21.606 -50.722,28.24 -50.722,35.774C-50.722,43.439 -49.246,50.14 -46.335,55.688C-43.4,61.286 -39.107,65.648 -33.574,68.653C-28.088,71.637 -21.546,73.148 -14.133,73.148C-9.346,73.148 -4.591,72.677 0,71.744M-54.974,35.774C-54.974,33.976 -54.881,32.231 -54.725,30.525L-66.153,30.525C-70.59,30.525 -73.869,29.732 -75.897,28.168C-77.84,26.669 -78.784,24.401 -78.784,21.234C-78.784,18.135 -77.857,15.915 -75.949,14.45C-73.953,12.917 -70.657,12.14 -66.153,12.14L-51.754,12.14L-51.754,17.734C-51.254,16.481 -50.716,15.254 -50.101,14.082C-46.914,8.003 -42.345,3.222 -36.54,-0.174L-36.54,-0.52L-67.921,-0.52C-76.151,-0.52 -82.54,1.344 -86.911,5.019C-91.353,8.758 -93.605,14.147 -93.605,21.037C-93.605,25.983 -92.269,30.254 -89.633,33.731C-87.693,36.292 -85.136,38.324 -82.004,39.799C-84.767,41.397 -86.879,44.124 -88.305,47.942L-97.585,72.265L-81.192,72.265L-71.895,48.048C-71.229,46.217 -70.261,44.991 -68.939,44.302C-67.509,43.56 -65.58,43.183 -63.206,43.183L-54.491,43.183C-54.8,40.807 -54.974,38.344 -54.974,35.774M-36.54,71.837L-36.54,72.265L-51.95,72.265L-51.95,53.512C-51.402,54.946 -50.796,56.338 -50.101,57.663C-46.937,63.697 -42.367,68.45 -36.54,71.837" fill-rule="nonzero" fill="white"/>
      </g>
    </g>
  </g>
</svg>