<?xml version="1.0" encoding="utf-8"?>
<!-- Generator: Adobe Illustrator 28.3.0, SVG Export Plug-In . SVG Version: 6.00 Build 0)  -->
<svg version="1.2" baseProfile="tiny-ps" id="Layer_1" xmlns="http://www.w3.org/2000/svg" xmlns:xlink="http://www.w3.org/1999/xlink"
viewBox="0 0 1200 1200" xml:space="preserve">
<title>Eftsure</title>
<rect x="-0.1" y="-0.8" fill="#FFFFFF" width="1200" height="1200"/>
<g>
	<path fill="none" d="M1077.2,563.3c-7.6-5.4-16.8-8.1-27.9-8.1c-10.8,0-20.1,2.9-27.9,8.5c-7.7,5.8-13.4,13.5-16.8,23.3h88.2
		C1089.9,576.6,1084.7,568.7,1077.2,563.3z"/>
	<path fill="none" d="M182.8,563.3c-7.6-5.4-16.8-8.1-27.9-8.1c-10.8,0-20.1,2.9-27.9,8.5c-7.7,5.8-13.4,13.5-16.8,23.3h88.2
		C195.5,576.6,190.3,568.7,182.8,563.3z"/>
	<path fill="#234BFF" d="M216.1,543.4c-7.6-7.5-16.5-13.3-27-17.6c-10.4-4.3-21.9-6.4-34.3-6.4c-12.2,0-23.7,2.2-34.3,6.7
		s-19.8,10.6-27.5,18.4c-7.7,7.7-13.8,16.9-18.2,27.4c-4.4,10.5-6.6,21.8-6.6,33.9c0,12.1,2.1,23.3,6.2,33.7
		c4.1,10.4,9.9,19.5,17.6,27.3c7.6,7.7,16.9,13.8,27.7,18.2c10.8,4.4,22.8,6.6,36.2,6.6c18.4,0,33.6-3.5,45.6-10.4
		c12.1-6.9,22.3-16.3,30.6-27.9l-34.6-20.2c-4.1,6.7-9.5,12.1-16.2,16.1c-6.7,3.9-15,6-24.8,6c-12.2,0-22.5-3.1-30.7-9.4
		c-8.3-6.2-13.8-14.7-16.7-25.6h131.4v-15.9c0-12.2-2.1-23.6-6.4-34S223.7,550.9,216.1,543.4z M110.2,587c3.5-9.8,9-17.6,16.8-23.3
		c7.7-5.8,17-8.5,27.9-8.5c11,0,20.3,2.7,27.9,8.1c7.6,5.4,12.7,13.3,15.6,23.7L110.2,587L110.2,587z"/>
	<path fill="#234BFF" d="M458.8,651.6c-5.3,0-9.6-1.7-13-5.2c-3.4-3.5-5-9.6-5-18.4v-67.4h43.5v-38l0,0h-43.5v-60.3l-41.7,24.6v35.8
		h-29v38h29v68.9c0,22.4,4.8,38.3,14.4,47.6s23.1,14,40.4,14c7.7,0,15-1.1,21.6-3.2s12.6-5.3,17.9-9.4l-19.3-33
		C469.4,649.6,464.4,651.6,458.8,651.6z"/>
	<path fill="#234BFF" d="M319.5,522.8v-8c0-6.3,0.3-11.3,0.9-15.1c0.6-3.8,2.1-6.7,4.4-8.9c2.4-2.1,5.7-3.5,9.9-4.3
		c4.3-0.7,10.1-1.1,17.4-1.1h7.1v-38.6h-11c-13.5,0-24.7,1.2-33.9,3.4c-9.1,2.2-16.4,6.1-21.8,11.5c-5.4,5.4-9.3,12.6-11.7,21.6
		c-2.4,9-3.5,20.2-3.5,33.7v5.8h-28.8v38h28.8v127.4h42V560.8h28.9v-38L319.5,522.8L319.5,522.8L319.5,522.8z"/>
	<path fill="#234BFF" d="M630.7,600.3c-5.8-3.8-12.2-6.7-19.3-8.7s-14.1-3.8-21-5.2c-12.1-2.6-21.4-5.1-27.9-7.2
		c-6.6-2.1-9.8-5.8-9.8-11.2c0-4.7,2-8.5,6-11.5c3.9-3,10.2-4.4,18.5-4.4c7.7,0,14.2,1.6,19.5,4.6c5.2,3,9.5,7.3,13,12.8l38.6-15.6
		c-7.7-11-17.2-19.6-28.2-25.9c-11-6.2-25.3-9.4-42.9-9.4c-10.2,0-19.5,1.4-27.7,4.1c-8.3,2.8-15.4,6.5-21.3,11.2
		c-5.9,4.7-10.5,10.2-13.8,16.5c-3.3,6.3-4.9,13-4.9,19.9c0,8.8,1.7,15.9,5.2,21.6c3.5,5.6,8,10.3,13.6,14c5.6,3.7,11.9,6.6,19,8.5
		c7.1,2.1,14.1,3.8,21,5.2c5.3,1,10.3,2.1,15,3c4.7,1,8.8,2.2,12.4,3.5c3.5,1.3,6.4,3,8.4,4.9c2.1,2,3,4.4,3,7.5
		c0,4.9-2.2,9.1-6.7,12.7c-4.5,3.6-11,5.3-19.6,5.3c-18,0-30.6-7.5-38-22.3l-40.7,16.1c6.5,13.2,16.1,23.4,28.6,30.5
		c12.6,7.1,28.8,10.6,48.6,10.6c12.1,0,22.5-1.6,31.4-4.9s16.3-7.5,22.2-12.7c5.9-5.2,10.3-11,13.1-17.4s4.3-12.9,4.3-19.5
		c0-8.8-1.8-16.1-5.5-22C641.3,608.9,636.5,604.1,630.7,600.3z"/>
	<path fill="#234BFF" d="M780.9,613.6c0,12.8-3.3,22.8-9.8,29.7c-6.6,6.9-14.8,10.4-24.8,10.4c-11.4,0-19.9-3.4-25.4-10.1
		c-5.5-6.7-8.3-15.9-8.3-27.5v-93.3h-43.1v99.2c0,21.9,5.6,38.9,16.8,51.1c11.3,12.2,27,18.4,47.5,18.4c10.2,0,19.4-2.1,27.5-6.4
		c8.1-4.3,14.9-10.2,20.2-17.7v20.8l42.2-0.3V522.4l-42.9,0.3V613.6L780.9,613.6z"/>
	<path fill="#234BFF" d="M951.4,521.5c-4.8-1.2-9.9-1.8-15.4-1.8c-10.6,0-19.9,2.3-27.7,6.9c-7.9,4.6-13.8,11.7-17.9,21.6v-25.4
		h-41.7v165.3h42v-87.3c0-13.9,3.3-23.8,9.8-29.8c6.5-6,15.2-9,26-9c4.7,0,9,0.6,12.9,1.6c3.9,1.2,6.9,2.5,9.2,4.1l15.3-41.7
		C960.4,524.2,956.3,522.8,951.4,521.5z"/>
	<path fill="#234BFF" d="M1132.3,604.2c0-12.2-2.1-23.6-6.4-34c-4.3-10.4-10.2-19.3-17.7-26.8c-7.6-7.5-16.5-13.3-27-17.6
		c-10.4-4.3-21.9-6.4-34.3-6.4c-12.2,0-23.7,2.2-34.3,6.7c-10.6,4.5-19.8,10.6-27.5,18.4c-7.7,7.7-13.8,16.9-18.2,27.4
		c-4.4,10.5-6.6,21.8-6.6,33.9c0,12.1,2.1,23.3,6.2,33.7c4.1,10.4,9.9,19.5,17.6,27.3c7.6,7.7,16.9,13.8,27.7,18.2
		c10.8,4.4,22.8,6.6,36.2,6.6c18.4,0,33.6-3.5,45.6-10.4c12.1-6.9,22.3-16.3,30.6-27.9l-34.6-20.2c-4.1,6.7-9.5,12.1-16.2,16.1
		c-6.7,3.9-15,6-24.8,6c-12.2,0-22.5-3.1-30.7-9.4c-8.3-6.2-13.8-14.7-16.7-25.6h131.1V604.2z M1004.6,587c3.5-9.8,9-17.6,16.8-23.3
		c7.7-5.8,17-8.5,27.9-8.5c11,0,20.3,2.7,27.9,8.1c7.6,5.4,12.7,13.3,15.6,23.7L1004.6,587L1004.6,587z"/>
</g>
</svg>
