<?xml version="1.0" encoding="UTF-8" standalone="yes"?>
<svg version="1.2" width="100%" viewBox="0 0 3840 3840" xml:space="preserve" baseProfile="tiny-ps" xmlns="http://www.w3.org/2000/svg">
  <title>bimi-svg-tiny-12-ps</title>
  <path fill="#FFFFFF" stroke="none" d="&#xA;M2512.000000,3842.000000 &#xA;&#x9;C1674.666626,3842.000000 838.333313,3842.000000 2.000000,3842.000000 &#xA;&#x9;C2.000000,2562.000000 2.000000,1282.000000 2.000000,2.000000 &#xA;&#x9;C1282.000000,2.000000 2562.000000,2.000000 3842.000000,2.000000 &#xA;&#x9;C3842.000000,1282.000000 3842.000000,2562.000000 3842.000000,3842.000000 &#xA;&#x9;C3399.000000,3842.000000 2956.000000,3842.000000 2512.000000,3842.000000 &#xA;z"/>
  <path fill="#050505" stroke="none" d="&#xA;M3486.898438,2595.550049 &#xA;&#x9;C3483.430664,2594.254395 3480.737061,2594.624756 3478.101562,2594.605225 &#xA;&#x9;C3404.665283,2594.062744 3331.228760,2593.543945 3256.891846,2593.308594 &#xA;&#x9;C3254.136475,2596.669922 3251.028076,2595.874023 3248.294678,2595.966797 &#xA;&#x9;C3243.712402,2596.122803 3243.942627,2598.516113 3245.552490,2602.299561 &#xA;&#x9;C3249.866455,2611.692627 3255.674805,2619.427002 3260.886230,2627.514893 &#xA;&#x9;C3301.114258,2689.948242 3341.449463,2752.312988 3381.732666,2814.710938 &#xA;&#x9;C3383.465576,2817.395508 3385.010986,2820.201172 3387.481201,2824.360840 &#xA;&#x9;C3382.768311,2824.360840 3379.569824,2824.360840 3376.371338,2824.360840 &#xA;&#x9;C2623.493164,2824.360840 1870.614746,2824.361084 1117.736450,2824.360840 &#xA;&#x9;C1116.070068,2824.360840 1114.381104,2824.183350 1112.741333,2824.391846 &#xA;&#x9;C1107.682739,2825.035400 1106.506348,2822.092529 1106.168335,2817.882324 &#xA;&#x9;C1105.212036,2805.971436 1105.193604,2805.923096 1117.515015,2805.923096 &#xA;&#x9;C1856.395630,2805.921875 2595.276123,2805.921875 3334.156738,2805.919922 &#xA;&#x9;C3338.822266,2805.919922 3343.487549,2805.891602 3349.071289,2805.680176 &#xA;&#x9;C3351.280273,2804.713867 3350.975342,2803.606445 3350.426758,2801.940430 &#xA;&#x9;C3349.832275,2798.610840 3347.849854,2796.680908 3346.426758,2794.474609 &#xA;&#x9;C3304.729248,2729.821533 3262.946777,2665.222900 3221.376465,2600.488037 &#xA;&#x9;C3217.816406,2594.944580 3214.165771,2592.315674 3207.118896,2592.261719 &#xA;&#x9;C2963.176758,2590.383545 2719.236816,2588.263916 2475.296631,2586.123779 &#xA;&#x9;C2462.284668,2586.009766 2463.782959,2588.298584 2463.782959,2574.403076 &#xA;&#x9;C2463.782959,2567.773682 2463.940430,2567.655029 2471.197510,2567.697266 &#xA;&#x9;C2512.855957,2567.939453 2554.514160,2568.242920 2597.086670,2568.301270 &#xA;&#x9;C2612.102539,2564.166260 2626.327148,2565.816162 2641.266113,2567.803223 &#xA;&#x9;C2642.850342,2568.678223 2643.713135,2568.886963 2645.195801,2568.811523 &#xA;&#x9;C2648.729004,2567.906982 2651.657471,2567.895508 2655.311035,2568.486084 &#xA;&#x9;C2658.564697,2569.791016 2661.261230,2569.374023 2663.894043,2569.393066 &#xA;&#x9;C2733.995117,2569.900146 2804.096680,2570.381104 2875.101562,2570.592285 &#xA;&#x9;C2877.299805,2568.787842 2878.912109,2568.583252 2881.355469,2569.782959 &#xA;&#x9;C2884.066650,2571.427002 2886.289307,2571.016846 2889.239746,2570.744141 &#xA;&#x9;C2898.745117,2565.580566 2907.525879,2570.562988 2917.152832,2570.569824 &#xA;&#x9;C2920.650146,2571.041748 2923.275146,2571.455322 2925.903320,2571.476074 &#xA;&#x9;C2998.620850,2572.054932 3071.338379,2572.593994 3144.940918,2572.836914 &#xA;&#x9;C3151.997070,2570.256592 3158.197021,2571.374756 3165.209473,2572.635742 &#xA;&#x9;C3177.875732,2574.384033 3189.726807,2573.205811 3202.324951,2573.821045 &#xA;&#x9;C3201.589600,2568.647461 3198.727783,2565.744873 3196.665039,2562.548828 &#xA;&#x9;C3075.306641,2374.523926 2953.904053,2186.528076 2832.514404,1998.523560 &#xA;&#x9;C2557.740967,1572.961670 2282.972656,1147.396606 2008.200562,721.833801 &#xA;&#x9;C2007.478760,720.715881 2006.737549,719.610474 2005.508057,718.082031 &#xA;&#x9;C2003.437622,717.181824 2001.923096,716.010864 1999.596436,717.458618 &#xA;&#x9;C1997.428467,719.802368 1995.754883,721.869751 1994.320190,724.091431 &#xA;&#x9;C1725.449585,1140.490967 1456.539307,1556.864990 1188.024780,1973.494141 &#xA;&#x9;C1180.244751,1985.565552 1171.188599,1988.770752 1158.231934,1987.112061 &#xA;&#x9;C1157.971680,1983.074829 1160.961304,1980.505127 1162.840698,1977.592041 &#xA;&#x9;C1260.176147,1826.721191 1357.582031,1675.895752 1454.972656,1525.060181 &#xA;&#x9;C1636.563477,1243.818115 1818.149414,962.572754 1999.863525,680.648865 &#xA;&#x9;C2000.772339,679.230042 2001.695312,678.943787 2003.384521,679.539795 &#xA;&#x9;C2005.465576,682.557190 2006.787231,685.231506 2008.394653,687.721313 &#xA;&#x9;C2316.454102,1164.877930 2624.532959,1642.022217 2932.614258,2119.164551 &#xA;&#x9;C3028.381836,2267.484863 3124.227783,2415.754883 3219.734131,2564.243408 &#xA;&#x9;C3224.523193,2571.689453 3229.430908,2574.213379 3238.066895,2574.193604 &#xA;&#x9;C3278.728271,2574.100586 3319.390869,2574.743652 3360.939453,2574.827881 &#xA;&#x9;C3371.984863,2571.980225 3382.153076,2572.708984 3393.171143,2574.763184 &#xA;&#x9;C3396.650879,2575.271973 3399.282227,2575.614990 3401.916260,2575.636475 &#xA;&#x9;C3450.672852,2576.032959 3499.429443,2576.391113 3549.094727,2576.504395 &#xA;&#x9;C3551.945068,2574.322754 3554.145020,2573.902588 3557.309814,2575.713135 &#xA;&#x9;C3564.917236,2577.712646 3571.934082,2577.036865 3578.900879,2577.118164 &#xA;&#x9;C3609.224365,2577.472900 3639.550049,2577.614258 3669.874268,2577.898438 &#xA;&#x9;C3677.434814,2577.969238 3677.445557,2578.081299 3677.501221,2585.644775 &#xA;&#x9;C3677.518311,2587.977051 3677.417236,2590.310059 3677.436035,2592.642334 &#xA;&#x9;C3677.456299,2595.129150 3676.135742,2596.248291 3673.791504,2596.297363 &#xA;&#x9;C3671.459961,2596.346191 3669.126465,2596.315186 3666.793945,2596.299561 &#xA;&#x9;C3625.804688,2596.023193 3584.815430,2595.743408 3542.912598,2595.691650 &#xA;&#x9;C3527.321777,2600.027100 3512.459229,2598.018799 3497.674805,2596.975830 &#xA;&#x9;C3494.432129,2596.747070 3491.118164,2596.104004 3486.898438,2595.550049 &#xA;z"/>
  <path fill="#050505" stroke="none" d="&#xA;M665.262695,2240.413574 &#xA;&#x9;C674.543457,2216.747314 683.627808,2193.518311 692.609924,2170.250000 &#xA;&#x9;C707.583984,2131.459717 722.396912,2092.606445 737.534180,2053.880127 &#xA;&#x9;C739.747253,2048.218262 739.787354,2043.407837 737.460388,2037.742920 &#xA;&#x9;C723.427002,2003.578369 709.865234,1969.220215 695.866821,1935.041016 &#xA;&#x9;C690.441040,1921.793213 683.982971,1909.051636 675.623108,1897.281738 &#xA;&#x9;C670.226013,1889.683228 664.191223,1884.520264 654.180603,1886.302002 &#xA;&#x9;C651.919434,1886.704468 649.511780,1886.199585 647.195557,1886.395752 &#xA;&#x9;C643.209473,1886.733398 641.206116,1885.784790 641.210632,1881.057983 &#xA;&#x9;C641.215210,1876.249756 643.392456,1875.744995 647.296814,1875.752319 &#xA;&#x9;C702.618347,1875.856323 757.940063,1875.852783 813.261780,1875.897949 &#xA;&#x9;C813.905457,1875.898438 814.548889,1876.199585 815.595276,1876.460938 &#xA;&#x9;C814.333130,1883.325684 811.187195,1889.548828 808.804932,1896.009277 &#xA;&#x9;C804.776978,1906.932617 800.936218,1917.943481 796.383972,1928.648438 &#xA;&#x9;C793.454285,1935.538086 793.601807,1941.577881 796.422363,1948.594604 &#xA;&#x9;C826.699707,2023.916870 856.664246,2099.364990 886.734680,2174.770264 &#xA;&#x9;C896.960632,2200.413086 907.163391,2226.066162 917.567017,2251.637207 &#xA;&#x9;C919.674744,2256.817627 920.100464,2261.381836 917.954102,2266.851074 &#xA;&#x9;C906.652832,2295.648193 895.778564,2324.613037 884.751221,2353.517822 &#xA;&#x9;C884.040161,2355.381592 883.473450,2357.331543 882.520996,2359.066650 &#xA;&#x9;C879.296326,2364.939941 873.737671,2365.012451 870.237976,2359.181885 &#xA;&#x9;C869.052124,2357.206055 868.382690,2354.919678 867.483826,2352.772217 &#xA;&#x9;C827.916382,2258.249268 788.131714,2163.816162 749.560730,2068.161621 &#xA;&#x9;C747.677124,2067.435547 746.354797,2065.683105 744.207764,2067.516846 &#xA;&#x9;C734.027954,2089.772217 726.552368,2112.498535 718.102539,2134.848633 &#xA;&#x9;C690.698547,2207.333496 663.486511,2279.890625 636.198547,2352.419189 &#xA;&#x9;C635.378845,2354.597900 634.751160,2356.882324 633.664368,2358.920410 &#xA;&#x9;C630.439697,2364.968506 623.952515,2365.145508 620.285522,2359.257324 &#xA;&#x9;C619.070190,2357.305908 618.409058,2355.007080 617.511597,2352.860352 &#xA;&#x9;C560.810730,2217.218750 504.465515,2081.432617 450.860260,1944.527100 &#xA;&#x9;C444.415649,1928.067749 436.323700,1912.421387 426.657867,1897.586792 &#xA;&#x9;C421.604034,1889.830322 415.627625,1884.730713 405.415680,1886.207397 &#xA;&#x9;C399.541870,1887.056763 393.440216,1886.230835 387.447357,1886.391235 &#xA;&#x9;C383.279846,1886.502808 383.634766,1883.789307 383.631744,1881.077515 &#xA;&#x9;C383.628662,1878.327515 383.398041,1875.697144 387.519226,1875.773071 &#xA;&#x9;C395.512817,1875.920410 403.511139,1875.799438 411.507507,1875.808838 &#xA;&#x9;C426.500580,1875.826294 441.495422,1875.717407 456.486328,1875.911133 &#xA;&#x9;C492.735901,1876.379639 527.643677,1896.204590 542.211182,1934.807617 &#xA;&#x9;C556.299927,1972.141724 571.450684,2009.074585 586.097778,2046.198364 &#xA;&#x9;C611.487976,2110.551758 636.849609,2174.916016 662.689087,2239.791992 &#xA;&#x9;C663.806458,2240.377686 664.428284,2240.552734 665.262695,2240.413574 &#xA;z"/>
  <path fill="#050505" stroke="none" d="&#xA;M2602.815918,1907.235229 &#xA;&#x9;C2644.686768,1939.523560 2671.029541,1981.605225 2685.986572,2030.914917 &#xA;&#x9;C2704.448975,2091.782227 2704.581299,2153.382812 2686.972900,2214.209961 &#xA;&#x9;C2668.854736,2276.796875 2630.161133,2323.547852 2570.921631,2352.031006 &#xA;&#x9;C2547.971680,2363.065430 2523.497314,2369.362549 2498.118408,2372.132812 &#xA;&#x9;C2465.423340,2375.701660 2432.913086,2375.051270 2400.736572,2367.911621 &#xA;&#x9;C2348.313232,2356.279541 2305.397949,2329.583252 2273.252441,2286.259277 &#xA;&#x9;C2246.348633,2249.999268 2232.688232,2208.762939 2227.735107,2164.267334 &#xA;&#x9;C2223.799561,2128.911621 2224.806152,2093.783936 2231.995850,2058.889160 &#xA;&#x9;C2241.650146,2012.031372 2260.624023,1969.455444 2292.331787,1933.415527 &#xA;&#x9;C2318.301270,1903.897705 2351.447021,1884.607544 2389.109375,1874.356567 &#xA;&#x9;C2447.359863,1858.501831 2505.092773,1860.501709 2561.377441,1883.944580 &#xA;&#x9;C2575.871826,1889.981445 2589.615234,1897.406250 2602.815918,1907.235229 &#xA;z"/>
  <path fill="#050505" stroke="none" d="&#xA;M1508.947510,2169.999268 &#xA;&#x9;C1508.947510,2105.339355 1508.988281,2041.679932 1508.920410,1978.020386 &#xA;&#x9;C1508.901978,1960.700562 1508.957764,1943.352539 1506.044434,1926.192383 &#xA;&#x9;C1504.197632,1915.315186 1500.988647,1904.879639 1495.978027,1894.976440 &#xA;&#x9;C1493.287476,1889.658691 1489.768311,1887.118164 1483.486084,1887.561768 &#xA;&#x9;C1475.526733,1888.123779 1467.494141,1887.553833 1459.499756,1887.748779 &#xA;&#x9;C1455.344971,1887.850098 1454.482544,1885.799561 1454.514648,1882.215332 &#xA;&#x9;C1454.545288,1878.791992 1455.013306,1876.432007 1459.315430,1876.530396 &#xA;&#x9;C1483.959106,1877.094482 1508.662720,1875.178467 1533.249268,1877.727905 &#xA;&#x9;C1559.236816,1880.422607 1590.470581,1903.902588 1593.590210,1942.781982 &#xA;&#x9;C1593.989502,1947.756226 1594.008179,1952.770386 1594.009033,1957.765991 &#xA;&#x9;C1594.030518,2085.751709 1594.026123,2213.737305 1594.026123,2341.722900 &#xA;&#x9;C1594.026123,2345.346191 1594.026123,2348.969482 1594.026123,2352.235107 &#xA;&#x9;C1597.680420,2353.888672 1600.716309,2353.333252 1603.670654,2353.335205 &#xA;&#x9;C1658.997803,2353.369629 1714.325562,2353.237061 1769.651245,2353.520752 &#xA;&#x9;C1776.412842,2353.555420 1780.536011,2351.495117 1784.388672,2345.989746 &#xA;&#x9;C1798.711426,2325.522705 1813.495361,2305.377197 1828.200317,2285.179688 &#xA;&#x9;C1830.109253,2282.557617 1831.478760,2279.411133 1834.883789,2277.362061 &#xA;&#x9;C1836.551270,2279.790771 1835.808716,2282.472412 1835.816162,2284.901123 &#xA;&#x9;C1835.887695,2308.231689 1835.885864,2331.562256 1835.846436,2354.893066 &#xA;&#x9;C1835.829468,2364.912109 1837.258057,2364.358643 1826.056641,2364.359131 &#xA;&#x9;C1717.402100,2364.362061 1608.747681,2364.360596 1500.093140,2364.360596 &#xA;&#x9;C1486.761353,2364.360596 1473.427490,2364.231934 1460.098755,2364.430908 &#xA;&#x9;C1455.677368,2364.496582 1454.375488,2362.833252 1454.460327,2358.563477 &#xA;&#x9;C1454.538208,2354.642822 1455.962769,2353.247803 1459.763306,2353.325684 &#xA;&#x9;C1467.092651,2353.476318 1474.484497,2352.799316 1481.743286,2353.529785 &#xA;&#x9;C1488.539429,2354.213623 1492.205078,2351.238037 1495.220581,2345.815918 &#xA;&#x9;C1500.798096,2335.786377 1503.848389,2324.969482 1505.955811,2313.803467 &#xA;&#x9;C1508.752930,2298.983643 1508.768555,2283.960693 1508.874512,2268.988037 &#xA;&#x9;C1509.105591,2236.326660 1508.946777,2203.662598 1508.947510,2169.999268 &#xA;z"/>
  <path fill="#050505" stroke="none" d="&#xA;M2773.038574,995.442261 &#xA;&#x9;C2750.590088,1003.530396 2728.853027,1004.295044 2706.821045,996.630310 &#xA;&#x9;C2672.535400,984.702759 2649.530029,953.775513 2649.009766,918.282654 &#xA;&#x9;C2648.508545,884.093628 2670.183594,852.024719 2703.496826,839.619629 &#xA;&#x9;C2736.485596,827.335266 2767.982422,831.092468 2795.807617,853.218384 &#xA;&#x9;C2843.218750,890.918213 2835.137451,963.940002 2780.943115,991.671448 &#xA;&#x9;C2778.574463,992.883423 2776.153809,993.993958 2773.038574,995.442261 &#xA;z"/>
  <path fill="#050505" stroke="none" d="&#xA;M990.946289,1897.094971 &#xA;&#x9;C988.436951,1890.537598 986.271912,1884.676392 983.882996,1878.208984 &#xA;&#x9;C1011.177307,1878.208984 1037.649780,1878.208984 1065.533081,1878.208984 &#xA;&#x9;C1051.968018,1913.154785 1038.672607,1947.405518 1024.540771,1983.811523 &#xA;&#x9;C1012.994507,1953.940674 1002.142517,1925.865967 990.946289,1897.094971 &#xA;z"/>
  <path fill="#FCFCFC" stroke="none" d="&#xA;M3486.297363,2595.980469 &#xA;&#x9;C3504.045166,2594.059326 3522.112549,2595.519043 3541.090576,2595.670166 &#xA;&#x9;C3541.656738,2598.025391 3540.817871,2599.860107 3538.381592,2599.833252 &#xA;&#x9;C3521.074951,2599.644043 3503.616211,2601.809570 3486.297363,2595.980469 &#xA;z"/>
  <path fill="#FCFCFC" stroke="none" d="&#xA;M2641.849854,2567.639404 &#xA;&#x9;C2627.933838,2569.748047 2613.873535,2568.444580 2598.908691,2568.327393 &#xA;&#x9;C2598.343262,2565.982666 2599.171631,2564.170410 2601.597412,2564.166992 &#xA;&#x9;C2614.069092,2564.150635 2626.540771,2564.194580 2639.011963,2564.306641 &#xA;&#x9;C2640.418701,2564.319336 2641.231934,2565.516113 2641.849854,2567.639404 &#xA;z"/>
  <path fill="#FCFCFC" stroke="none" d="&#xA;M3393.787109,2574.409180 &#xA;&#x9;C3383.795654,2576.080322 3373.566162,2575.210938 3362.582764,2574.862305 &#xA;&#x9;C3362.638672,2572.654053 3363.766846,2570.602295 3365.839111,2570.525146 &#xA;&#x9;C3375.221191,2570.175049 3384.889893,2567.820801 3393.787109,2574.409180 &#xA;z"/>
  <path fill="#FCFCFC" stroke="none" d="&#xA;M2917.742920,2570.170410 &#xA;&#x9;C2909.222656,2572.067627 2900.397217,2571.049805 2890.797363,2570.772949 &#xA;&#x9;C2890.196533,2567.076172 2892.203613,2566.050781 2895.321289,2565.994873 &#xA;&#x9;C2902.925537,2565.858643 2910.479980,2565.844971 2917.742920,2570.170410 &#xA;z"/>
  <path fill="#FCFCFC" stroke="none" d="&#xA;M3165.777344,2572.256348 &#xA;&#x9;C3159.800049,2574.024414 3153.545898,2573.185059 3146.565430,2572.862305 &#xA;&#x9;C3147.843018,2567.242432 3152.382080,2567.655762 3156.581787,2568.192139 &#xA;&#x9;C3159.729004,2568.593994 3163.012451,2569.279541 3165.777344,2572.256348 &#xA;z"/>
  <path fill="#FCFCFC" stroke="none" d="&#xA;M3245.846436,2602.166016 &#xA;&#x9;C3243.017334,2600.578857 3241.405029,2597.565918 3239.542480,2593.713867 &#xA;&#x9;C3244.919189,2592.121826 3249.661133,2593.043945 3255.153809,2593.282227 &#xA;&#x9;C3255.867188,2596.784912 3254.047607,2598.022705 3251.032715,2598.017334 &#xA;&#x9;C3248.648926,2598.012939 3246.619873,2598.661865 3245.846436,2602.166016 &#xA;z"/>
  <path fill="#FCFCFC" stroke="none" d="&#xA;M2655.739746,2568.056152 &#xA;&#x9;C2653.133301,2569.958740 2650.113770,2569.052734 2646.484375,2568.850586 &#xA;&#x9;C2648.657959,2564.856445 2651.970703,2565.391846 2655.739746,2568.056152 &#xA;z"/>
  <path fill="#FCFCFC" stroke="none" d="&#xA;M3557.892090,2575.584717 &#xA;&#x9;C3555.844238,2576.474365 3553.693604,2576.639893 3550.773193,2576.528320 &#xA;&#x9;C3552.479004,2570.954346 3553.532715,2570.766113 3557.892090,2575.584717 &#xA;z"/>
  <path fill="#FCFCFC" stroke="none" d="&#xA;M2881.911621,2569.668945 &#xA;&#x9;C2880.474854,2570.558105 2878.957031,2570.739746 2876.722168,2570.620117 &#xA;&#x9;C2877.843018,2565.274658 2878.526367,2565.115479 2881.911621,2569.668945 &#xA;z"/>
  <path fill="#FCFCFC" stroke="none" d="&#xA;M744.629395,2067.898438 &#xA;&#x9;C743.755676,2067.281738 743.703003,2066.645264 743.845337,2066.056152 &#xA;&#x9;C744.203003,2064.575928 744.413818,2062.611572 746.109985,2062.364014 &#xA;&#x9;C748.828308,2061.967041 747.774231,2064.986572 749.040894,2066.863770 &#xA;&#x9;C747.956726,2067.704346 746.748047,2067.802490 744.629395,2067.898438 &#xA;z"/>
  <path fill="#FCFCFC" stroke="none" d="&#xA;M2003.938232,679.371826 &#xA;&#x9;C2003.112915,679.865173 2002.215332,679.761292 2000.653809,679.813232 &#xA;&#x9;C2000.102417,678.774414 2000.219727,677.370117 2001.425659,676.942627 &#xA;&#x9;C2002.772949,676.465088 2003.515259,677.530823 2003.938232,679.371826 &#xA;z"/>
  <path fill="#FCFCFC" stroke="none" d="&#xA;M1999.992920,717.736084 &#xA;&#x9;C2000.224854,714.698364 2001.375610,711.396362 2004.782471,716.975342 &#xA;&#x9;C2003.672363,717.713013 2002.333862,717.761169 1999.992920,717.736084 &#xA;z"/>
  <path fill="#FCFCFC" stroke="none" d="&#xA;M3350.150391,2802.071289 &#xA;&#x9;C3351.674561,2802.534424 3353.350342,2803.614502 3350.684326,2805.578369 &#xA;&#x9;C3350.016357,2804.572998 3350.043213,2803.661621 3350.150391,2802.071289 &#xA;z"/>
  <path fill="#FCFCFC" stroke="none" d="&#xA;M664.914307,2240.048828 &#xA;&#x9;C665.551575,2241.406738 665.116943,2242.156006 663.368530,2240.848389 &#xA;&#x9;C663.544495,2240.240234 663.934021,2240.171875 664.914307,2240.048828 &#xA;z"/>
  <path fill="#FFFFFF" stroke="none" d="&#xA;M2418.560059,2359.646973 &#xA;&#x9;C2363.944336,2352.107910 2319.281250,2326.983643 2285.389160,2283.281738 &#xA;&#x9;C2257.407227,2247.200439 2243.708740,2205.694580 2239.001465,2160.796143 &#xA;&#x9;C2238.902832,2159.853760 2239.208984,2158.868652 2239.324463,2157.919678 &#xA;&#x9;C2242.723633,2157.487793 2242.854492,2160.497314 2244.097412,2162.194336 &#xA;&#x9;C2255.175781,2177.320068 2269.982910,2185.690674 2288.741211,2183.295410 &#xA;&#x9;C2307.686523,2180.876709 2320.990234,2169.823730 2327.684326,2151.621094 &#xA;&#x9;C2332.347656,2138.940918 2333.355225,2125.592529 2333.457031,2112.273926 &#xA;&#x9;C2333.701416,2080.252930 2335.109619,2048.320557 2339.977051,2016.643555 &#xA;&#x9;C2344.491211,1987.265991 2351.166992,1958.607910 2366.660156,1932.568237 &#xA;&#x9;C2382.115967,1906.591553 2405.413818,1893.013062 2434.277344,1887.901245 &#xA;&#x9;C2457.235840,1883.835327 2480.114746,1884.547852 2502.281982,1892.427246 &#xA;&#x9;C2525.731934,1900.762573 2541.998535,1917.359863 2553.693359,1938.859497 &#xA;&#x9;C2555.441895,1942.073853 2556.972412,1945.411499 2558.814941,1948.568604 &#xA;&#x9;C2560.401367,1951.287231 2562.587158,1953.750610 2566.042725,1951.721924 &#xA;&#x9;C2569.178955,1949.880859 2569.012451,1946.777710 2567.671875,1943.776123 &#xA;&#x9;C2566.724121,1941.653931 2565.580811,1939.619995 2564.548584,1937.535034 &#xA;&#x9;C2551.759033,1911.701904 2532.534424,1892.827515 2504.567139,1882.398682 &#xA;&#x9;C2503.669189,1881.572754 2503.445557,1881.022583 2503.574219,1879.654175 &#xA;&#x9;C2535.539795,1883.955933 2565.042969,1894.551636 2591.531006,1912.838501 &#xA;&#x9;C2619.857666,1932.394897 2640.371094,1958.660278 2656.509766,1988.696167 &#xA;&#x9;C2668.406982,2010.838379 2676.247559,2034.413940 2681.768311,2058.835449 &#xA;&#x9;C2682.207764,2060.779785 2682.428711,2062.774170 2682.745361,2064.746094 &#xA;&#x9;C2683.098633,2066.947021 2684.663330,2069.562256 2682.272949,2071.166748 &#xA;&#x9;C2679.503662,2073.025391 2678.255615,2069.873047 2676.713379,2068.482178 &#xA;&#x9;C2671.428955,2063.717041 2665.444336,2060.197266 2658.659180,2058.180420 &#xA;&#x9;C2631.640625,2050.148682 2604.644775,2065.744141 2598.179443,2093.635742 &#xA;&#x9;C2595.357178,2105.811523 2593.777832,2118.265625 2593.430176,2130.856934 &#xA;&#x9;C2592.168701,2176.522949 2588.979736,2221.956543 2576.006348,2266.125244 &#xA;&#x9;C2567.944580,2293.571533 2555.034180,2317.787109 2531.295410,2335.143066 &#xA;&#x9;C2518.044678,2344.830566 2503.425781,2350.405273 2487.129395,2351.959229 &#xA;&#x9;C2470.811523,2353.515869 2454.625977,2353.597412 2438.406982,2350.449707 &#xA;&#x9;C2407.807373,2344.511230 2386.137695,2327.006592 2371.479492,2300.058594 &#xA;&#x9;C2370.049805,2297.430176 2368.868652,2294.666504 2367.433594,2292.041260 &#xA;&#x9;C2365.577881,2288.647217 2363.210449,2285.605713 2358.805664,2287.652100 &#xA;&#x9;C2354.045654,2289.864014 2355.770264,2293.552246 2357.389648,2296.933350 &#xA;&#x9;C2365.847168,2314.592285 2377.146484,2330.008789 2392.763672,2342.091309 &#xA;&#x9;C2399.653320,2347.421875 2407.060547,2351.783691 2415.727783,2355.442383 &#xA;&#x9;C2417.023926,2356.887695 2418.282227,2357.649414 2418.560059,2359.646973 &#xA;z"/>
  <path fill="#707070" stroke="none" d="&#xA;M2419.054443,2360.711426 &#xA;&#x9;C2419.925293,2358.638184 2418.486084,2357.717529 2416.947021,2356.181152 &#xA;&#x9;C2427.031006,2357.305908 2436.849365,2362.302246 2447.728271,2363.011230 &#xA;&#x9;C2438.200439,2364.447998 2428.945801,2362.893555 2419.054443,2360.711426 &#xA;z"/>
  <path fill="#8F8F8F" stroke="none" d="&#xA;M2503.312500,1878.416260 &#xA;&#x9;C2503.863525,1879.383057 2503.801025,1879.930420 2503.815430,1881.300415 &#xA;&#x9;C2494.491211,1880.889893 2485.746826,1876.729492 2476.151855,1876.378906 &#xA;&#x9;C2485.080566,1876.434448 2493.988525,1875.961304 2503.312500,1878.416260 &#xA;z"/>
  <path fill="#FFFFFF" stroke="none" d="&#xA;M2683.435059,2073.497559 &#xA;&#x9;C2682.415771,2073.443115 2681.706299,2072.859131 2682.797607,2072.258057 &#xA;&#x9;C2682.979248,2072.157715 2683.536377,2072.739258 2683.435059,2073.497559 &#xA;z"/>
  <path fill="#FFFFFF" stroke="none" d="&#xA;M2709.996582,984.821716 &#xA;&#x9;C2676.039307,972.018982 2656.832764,941.165649 2662.217041,906.732178 &#xA;&#x9;C2666.678467,878.199463 2684.305664,859.955750 2710.840820,849.868713 &#xA;&#x9;C2739.281494,839.057434 2774.802246,847.240112 2795.477295,869.238342 &#xA;&#x9;C2827.191406,902.982056 2818.854492,956.266785 2778.074707,979.283264 &#xA;&#x9;C2756.606445,991.400330 2734.016846,993.032104 2709.996582,984.821716 &#xA;z"/>
  <path fill="#050505" stroke="none" d="&#xA;M2772.784912,894.965210 &#xA;&#x9;C2771.095947,908.665588 2760.876953,913.150513 2749.634766,917.777100 &#xA;&#x9;C2759.531494,930.511963 2767.770508,943.293152 2777.846191,954.730286 &#xA;&#x9;C2778.935303,955.966797 2780.499268,956.912720 2781.229736,958.313110 &#xA;&#x9;C2783.202637,962.094238 2781.181396,965.178650 2776.917725,965.722961 &#xA;&#x9;C2769.660156,966.649597 2764.752686,964.596985 2760.726074,957.670166 &#xA;&#x9;C2754.730713,947.356140 2747.183838,937.942566 2740.266846,928.167114 &#xA;&#x9;C2739.117188,926.541687 2737.851074,924.994080 2736.576172,923.462402 &#xA;&#x9;C2733.986572,920.351501 2730.453613,921.193970 2727.305664,921.745605 &#xA;&#x9;C2723.415039,922.427368 2724.907227,925.908569 2724.846680,928.278992 &#xA;&#x9;C2724.677002,934.932556 2724.689941,941.595276 2724.814453,948.250977 &#xA;&#x9;C2724.989014,957.578796 2725.375977,958.076477 2734.418701,960.093628 &#xA;&#x9;C2736.511963,960.560669 2738.491455,960.680603 2738.155273,963.458740 &#xA;&#x9;C2737.889404,965.653198 2736.129395,965.696289 2734.417236,965.695312 &#xA;&#x9;C2723.431641,965.689209 2712.445801,965.678040 2701.460205,965.712219 &#xA;&#x9;C2699.681396,965.717712 2698.051270,965.566895 2697.814941,963.396729 &#xA;&#x9;C2697.511963,960.613770 2699.478760,960.528503 2701.568359,960.028076 &#xA;&#x9;C2709.943604,958.022705 2710.089355,957.889893 2710.121338,949.525391 &#xA;&#x9;C2710.205078,927.554382 2710.000488,905.581238 2710.248779,883.612732 &#xA;&#x9;C2710.317139,877.567139 2708.521973,874.000732 2702.150635,873.569031 &#xA;&#x9;C2701.182373,873.503418 2700.174805,873.174866 2699.302490,872.735229 &#xA;&#x9;C2697.968506,872.062561 2697.409668,870.719482 2697.916504,869.412842 &#xA;&#x9;C2698.190186,868.707642 2699.310059,868.024536 2700.132324,867.903442 &#xA;&#x9;C2701.762451,867.663208 2703.451172,867.812744 2705.115479,867.812805 &#xA;&#x9;C2717.432617,867.813477 2729.750732,867.742737 2742.066650,867.865479 &#xA;&#x9;C2745.704834,867.901672 2749.420654,868.109131 2752.958496,868.886169 &#xA;&#x9;C2767.832520,872.153259 2774.487549,881.580505 2772.784912,894.965210 &#xA;z"/>
  <path fill="#F1F1F1" stroke="none" d="&#xA;M2735.202637,915.463013 &#xA;&#x9;C2732.715820,915.566772 2731.049316,915.535706 2729.392578,915.647278 &#xA;&#x9;C2725.968018,915.877869 2724.655029,914.227722 2724.674805,910.916870 &#xA;&#x9;C2724.740479,899.941345 2724.729248,888.965027 2724.675049,877.989441 &#xA;&#x9;C2724.661133,875.172852 2725.652100,873.562561 2728.688232,873.642517 &#xA;&#x9;C2730.682373,873.695068 2732.678955,873.621948 2734.674561,873.630981 &#xA;&#x9;C2747.603516,873.689453 2754.346436,878.394104 2755.949463,888.465027 &#xA;&#x9;C2757.988037,901.270630 2752.131592,910.799377 2739.913330,914.504578 &#xA;&#x9;C2738.645020,914.889221 2737.323975,915.100952 2735.202637,915.463013 &#xA;z"/>
</svg>