<?xml version="1.0" encoding="utf-8"?>
<svg version="1.2" baseProfile="tiny-ps" viewBox="0 0 256 256" xmlns="http://www.w3.org/2000/svg">
  <title>Steam</title>
  <linearGradient id="g" x1="0.588" y1="1" x2="0.413" y2="0">
    <stop offset="0" stop-color="#1387b8"/>
    <stop offset="0.5" stop-color="#132e62"/>
    <stop offset="1" stop-color="#111d2e"/>
  </linearGradient>
  <path fill="url(#g)" d="M128.251,255.818C198.804,255.818,256,198.55,256,127.909C256,57.267,198.804,0,128.251,0 C57.696,0,0.501,57.267,0.501,127.909C0.501,198.55,57.696,255.818,128.251,255.818z"/>
  <path fill="#fff" d="M169.807,119.381c13.3,0,24.085-10.79,24.085-24.115s-10.785-24.115-24.085-24.115 c-13.3,0-24.085,10.79-24.085,24.115S156.508,119.381,169.807,119.381z"/>
  <path fill="#fff" d="M89.217,212.348c19.913,0,36.109-16.226,36.109-36.164c0-0.575-0.018-1.149-0.036-1.715 l43.37-30.992c0.364,0.009,0.729,0.018,1.093,0.018c26.536,0,48.116-21.616,48.116-48.185c0-26.56-21.589-48.176-48.116-48.176 c-26.536,0-48.116,21.616-48.116,48.176c0,0.21,0.009,0.41,0.009,0.629L91.23,140.076c-0.665-0.036-1.339-0.055-2.013-0.055 c-7.533,0-14.539,2.317-20.332,6.284L0.383,117.949C0.128,121.232,0,124.543,0,127.881c0,12.203,1.713,24.006,4.892,35.179 L53.8,183.308C57.116,199.853,71.727,212.348,89.217,212.348z M169.753,63.216c17.681,0,32.065,14.402,32.065,32.105 s-14.384,32.096-32.065,32.096s-32.065-14.402-32.065-32.096C137.688,77.617,152.071,63.216,169.753,63.216z M80.463,194.344 c10.166,4.25,21.853-0.575,26.089-10.753c4.245-10.188-0.574-21.881-10.74-26.131l-16.196-6.704 c6.249-2.353,13.345-2.453,19.977,0.301c6.686,2.791,11.879,8.017,14.639,14.721c2.76,6.704,2.742,14.082-0.036,20.768 c-5.748,13.818-21.653,20.367-35.444,14.611c-6.377-2.663-11.186-7.506-13.965-13.298L80.463,194.344z"/>
</svg>
