<?xml version="1.0" encoding="utf-8"?>
<svg version="1.2" baseProfile="tiny-ps" id="Layer_1" xmlns="http://www.w3.org/2000/svg" xmlns:xlink="http://www.w3.org/1999/xlink"
	 viewBox="0 0 305 300" xml:space="preserve">
	 <title>Influencity</title>
<path fill="#FF5883" d="M243.3,159.9h-63.8l8.5-20.4h22.2c5.2,0,10.4-1.4,14.9-4.1c4.5-2.7,8.2-6.5,10.6-11.2
	c2.5-4.6,3.7-9.8,3.4-15c-0.2-5.2-1.9-10.3-4.8-14.7c-2.9-4.4-6.9-7.9-11.6-10.1s-10-3.2-15.2-2.7s-10.2,2.4-14.4,5.5
	s-7.5,7.3-9.6,12.1l-8.6,20.7h-21l24.6-59h-21.2l-24.4,58.9H69.1L61,139.5h63.8l-8.5,20.4H94.1c-5.2,0-10.4,1.4-14.9,4.1
	c-4.5,2.7-8.2,6.5-10.6,11.2c-2.5,4.6-3.7,9.8-3.4,15c0.2,5.2,1.9,10.3,4.8,14.7s6.9,7.9,11.6,10.1c4.7,2.3,10,3.2,15.2,2.7
	s10.2-2.4,14.4-5.5c4.2-3.1,7.5-7.3,9.6-12.1l8.6-20.7h21l-24.5,58.9H147l24.5-58.9h63.8L243.3,159.9z M201.6,106.8
	c0.7-1.6,1.7-2.9,3.1-3.9c1.4-1,3-1.6,4.7-1.8s3.4,0.2,4.9,0.9c1.5,0.7,2.8,1.9,3.8,3.3c0.9,1.4,1.5,3.1,1.6,4.8
	c0.1,1.7-0.3,3.4-1.1,4.9s-2,2.7-3.4,3.6c-1.5,0.9-3.1,1.3-4.8,1.3h-14.1L201.6,106.8z M102.7,192.5c-0.7,1.6-1.7,2.9-3.1,3.9
	s-3,1.6-4.7,1.8s-3.4-0.2-4.9-0.9s-2.8-1.9-3.8-3.3c-0.9-1.4-1.5-3.1-1.5-4.8c-0.1-1.7,0.3-3.4,1.1-4.9s2-2.7,3.5-3.6
	c1.5-0.9,3.1-1.3,4.8-1.3h14.1L102.7,192.5z M158.4,159.8h-20.9l8.5-20.4h21L158.4,159.8z"/>
</svg>
