<?xml version="1.0" encoding="UTF-8"?>
<svg version="1.2" baseProfile="tiny-ps" id="Layer_1" xmlns="http://www.w3.org/2000/svg" xmlns:xlink="http://www.w3.org/1999/xlink" width="213" height="213" viewBox="0 0 213 213" fill="none">
    <title>True Classic</title>
    <rect width="213" height="213" fill="white" />
	<path d="M10 88.079C11.6313 88.1334 13.2626 88.1868 14.8939 88.2391C14.8939 100.186 14.8939 112.134 14.8939 124.081C16.9097 123.992 18.9245 123.907 20.9403 123.825C20.9403 112.025 20.9403 100.226 20.9403 88.4253C22.5716 88.4744 24.2029 88.5215 25.8342 88.5675C25.8342 86.7849 25.8342 85.0034 25.8342 83.2208C20.5558 83.0199 15.2774 82.7971 10 82.5554C10 84.3966 10 86.2378 10 88.079Z" fill="#282828" />
	<path d="M44.2086 108.075C44.2086 105.784 43.2291 103.877 40.8682 102.886C43.0571 102.175 44.2086 100.379 44.2086 98.1428C44.2086 95.6321 44.2086 93.1214 44.2086 90.6106C44.2086 86.3581 41.6165 83.7763 36.8356 83.6131C33.8984 83.5158 30.9612 83.4122 28.0251 83.3034C28.0251 96.72 28.0251 110.136 28.0251 123.552C30.0409 123.478 32.0557 123.408 34.0715 123.34C34.0715 117.369 34.0715 111.397 34.0715 105.427C34.57 105.426 35.0695 105.424 35.5691 105.423C37.4118 105.419 38.1611 106.353 38.1611 108.224C38.1611 111.53 38.1611 114.835 38.1611 118.141C38.1611 120.124 38.2762 121.995 38.7944 123.188C40.8102 123.125 42.826 123.066 44.8428 123.01C44.3236 121.771 44.2096 119.863 44.2096 117.843C44.2096 114.587 44.2096 111.331 44.2096 108.075H44.2086ZM38.1611 98.0894C38.1611 99.6314 37.4699 100.454 36.1453 100.447C35.4541 100.443 34.7628 100.44 34.0715 100.436C34.0715 96.4983 34.0715 92.5596 34.0715 88.6219C34.7628 88.6397 35.4541 88.6575 36.1453 88.6743C37.4699 88.7077 38.1611 89.5509 38.1611 91.0929C38.1611 93.4247 38.1611 95.7576 38.1611 98.0894Z" fill="#282828" />
	<path d="M56.9397 115.68C56.9397 117.181 56.1914 118.159 54.8659 118.183C53.5414 118.208 52.8501 117.249 52.8501 115.74C52.8501 105.187 52.8501 94.6361 52.8501 84.0838C50.8332 84.0326 48.8174 83.9782 46.8016 83.9206C46.8016 94.7763 46.8016 105.632 46.8016 116.488C46.8016 120.737 50.143 123.305 54.8669 123.187C59.6489 123.069 62.9892 120.395 62.9903 116.242C62.9903 105.601 62.9903 94.9594 62.9903 84.3171C60.9734 84.2753 58.9576 84.2313 56.9408 84.1832C56.9408 94.6822 56.9408 105.181 56.9408 115.68H56.9397Z" fill="#282828" />
	<path d="M65.8704 122.529C70.1725 122.452 74.4736 122.388 78.7757 122.336C78.7757 120.67 78.7757 119.006 78.7757 117.34C76.4718 117.36 74.1668 117.383 71.8629 117.408C71.8629 113.356 71.8629 109.304 71.8629 105.251C73.8404 105.249 75.8189 105.248 77.7973 105.247C77.7973 103.581 77.7973 101.915 77.7973 100.249C75.8199 100.243 73.8414 100.237 71.8629 100.231C71.8629 96.6541 71.8629 93.0774 71.8629 89.5017C74.1679 89.53 76.4718 89.5551 78.7757 89.5781C78.7757 87.9127 78.7757 86.2483 78.7757 84.5828C74.4736 84.5264 70.1715 84.4563 65.8704 84.3736C65.8704 97.0914 65.8704 109.81 65.8704 122.529Z" fill="#282828" />
	<path d="M97.5336 84.3956C92.8096 84.3736 89.5242 86.9042 89.5242 90.9841C89.5242 99.3479 89.5242 107.713 89.5242 116.077C89.5242 120.156 92.8086 122.69 97.5336 122.67C102.317 122.651 105.313 120.1 105.313 116.037C105.313 113.242 105.313 110.445 105.313 107.65C103.354 107.65 101.394 107.65 99.4354 107.652V115.419C99.4354 116.878 98.8011 117.817 97.4765 117.82C96.151 117.825 95.5748 116.888 95.5748 115.428C95.5748 107.498 95.5748 99.5676 95.5748 91.6379C95.5748 90.1775 96.151 89.2413 97.4765 89.2454C98.8011 89.2496 99.4354 90.1891 99.4354 91.6484C99.4354 94.0461 99.4354 96.4439 99.4354 98.8426C101.394 98.8447 103.354 98.8458 105.313 98.8458C105.313 96.2409 105.313 93.636 105.313 91.0312C105.313 86.967 102.316 84.4176 97.5336 84.3966V84.3956Z" fill="#282828" />
	<path d="M114.129 84.5588C112.132 84.5661 110.135 84.5703 108.138 84.5724C108.138 97.2065 108.138 109.841 108.138 122.475C112.498 122.478 116.857 122.494 121.216 122.521C121.216 120.845 121.216 119.169 121.216 117.493C118.854 117.483 116.491 117.474 114.129 117.468C114.129 106.498 114.129 95.5285 114.129 84.5588Z" fill="#282828" />
	<path d="M149.665 83.9646C144.941 84.0671 141.829 86.7075 141.829 90.8293C141.829 92.8211 141.829 94.814 141.829 96.8058C141.829 99.7141 142.924 101.137 144.652 102.566C146.477 104.154 148.301 105.749 150.125 107.354C151.161 108.371 151.507 109.013 151.507 110.721C151.507 112.394 151.507 114.067 151.507 115.74C151.507 117.236 150.932 118.133 149.606 118.113C148.281 118.094 147.705 117.183 147.705 115.694C147.705 113.106 147.705 110.518 147.705 107.93C145.746 107.923 143.787 107.917 141.828 107.91C141.828 110.679 141.828 113.446 141.828 116.214C141.828 120.335 144.824 122.972 149.606 123.069C154.331 123.167 157.556 120.613 157.556 116.412C157.556 114.065 157.556 111.717 157.556 109.371C157.556 106.415 156.462 104.958 154.734 103.514C152.91 101.908 151.084 100.311 149.26 98.7244C148.224 97.718 147.878 97.083 147.879 95.381C147.879 94.0336 147.879 92.6862 147.879 91.3398C147.879 89.8512 148.455 88.9389 149.78 88.918C151.104 88.8971 151.681 89.7947 151.681 91.2896C151.681 93.6748 151.681 96.0599 151.681 98.4441C153.64 98.4326 155.598 98.419 157.557 98.4064C157.557 95.8078 157.557 93.2103 157.557 90.6117C157.557 86.4125 154.447 83.86 149.665 83.9656V83.9646Z" fill="#282828" />
	<path d="M167.582 83.5137C162.859 83.6591 159.748 86.3759 159.748 90.5751C159.748 92.6056 159.748 94.6361 159.748 96.6656C159.748 99.6293 160.842 101.078 162.571 102.535C164.395 104.155 166.219 105.786 168.043 107.43C169.08 108.472 169.426 109.131 169.426 110.878C169.426 112.59 169.426 114.301 169.426 116.013C169.426 117.543 168.849 118.459 167.525 118.43C166.2 118.402 165.625 117.468 165.625 115.947C165.625 113.303 165.625 110.66 165.625 108.015C163.666 108.004 161.709 107.993 159.749 107.984C159.749 110.804 159.749 113.625 159.749 116.446C159.749 120.645 162.744 123.356 167.525 123.497C172.248 123.639 175.474 121.046 175.474 116.735C175.474 114.326 175.474 111.918 175.474 109.511C175.474 106.478 174.38 104.983 172.652 103.502C170.828 101.857 169.004 100.225 167.18 98.6052C166.142 97.5789 165.796 96.9303 165.796 95.1916C165.796 93.8149 165.796 92.4382 165.796 91.0626C165.796 89.5425 166.374 88.6063 167.697 88.5759C169.023 88.5456 169.598 89.462 169.598 90.9914C169.598 93.4321 169.598 95.8727 169.598 98.3133C171.557 98.2976 173.514 98.2798 175.473 98.2631C175.473 95.5975 175.473 92.932 175.473 90.2675C175.473 85.9575 172.363 83.3641 167.582 83.5127V83.5137Z" fill="#282828" />
	<path d="M178.181 123.386C180.216 123.454 182.251 123.524 184.286 123.598C184.286 110.18 184.286 96.7608 184.286 83.3432C182.251 83.4185 180.216 83.4907 178.181 83.5597C178.181 96.8351 178.181 110.11 178.181 123.387V123.386Z" fill="#282828" />
	<path d="M203 98.2694C203 95.3622 203 92.455 203 89.5478C203 85.0003 200.006 82.296 195.227 82.5115C190.506 82.7239 187.223 85.607 187.223 89.9882C187.223 98.9954 187.223 108.001 187.223 117.009C187.223 121.39 190.506 124.273 195.227 124.487C200.006 124.706 203 122.005 203 117.457V108.097C201.042 108.076 199.084 108.055 197.128 108.036C197.128 110.888 197.128 113.74 197.128 116.59C197.128 118.198 196.493 119.21 195.17 119.166C193.845 119.122 193.269 118.079 193.269 116.486C193.269 107.828 193.269 99.169 193.269 90.5113C193.269 88.917 193.845 87.875 195.17 87.8321C196.493 87.7892 197.128 88.8008 197.128 90.4087C197.128 93.0502 197.128 95.6906 197.128 98.3321C199.086 98.3112 201.043 98.2903 203 98.2694Z" fill="#282828" />
	<path d="M131.203 84.3862C126.421 84.4458 123.079 87.036 123.08 91.1212C123.08 101.579 123.08 112.039 123.08 122.497C125.097 122.511 127.114 122.528 129.13 122.548C129.13 119.525 129.13 116.501 129.13 113.478C130.494 113.484 131.857 113.492 133.221 113.5C133.221 116.531 133.221 119.561 133.221 122.592C135.238 122.615 137.255 122.641 139.272 122.67C139.272 112.111 139.272 101.551 139.272 90.9904C139.272 86.8603 135.929 84.3265 131.205 84.3872L131.203 84.3862ZM129.129 108.888C129.129 103.162 129.129 97.4366 129.129 91.7112C129.129 90.2414 129.879 89.2894 131.203 89.2768C132.529 89.2643 133.22 90.2047 133.22 91.6787C133.22 97.4178 133.22 103.157 133.22 108.897C131.856 108.893 130.493 108.89 129.129 108.887V108.888Z" fill="#282828" />
</svg>
