<?xml version="1.0" encoding="utf-8" standalone="yes"?><!-- Generator: Adobe Illustrator 26.0.3, SVG Export Plug-In . SVG Version: 6.00 Build 0)  --><svg xmlns="http://www.w3.org/2000/svg" xmlns:xlink="http://www.w3.org/1999/xlink" version="1.2" viewBox="0 0 694 744" xml:space="preserve" baseProfile="tiny-ps"><title>Staq Technologies Ltd</title><g id="Icon"><rect width="694" height="744" fill="none"></rect><g><path d="M260.5,322l86.5-49.9l86.6,49.9l80.5-46.5c2.7-1.5,2.7-5.4,0-6.9L350,173.9c-1.9-1.1-4.1-1.1-6,0l-167.3,96.3    c-1.9,1.1-3,3.1-3,5.2l0.1,93c0,2.1,1.1,4.1,3,5.2l83.6,48.2l86.5-50L260.5,322z"></path><path d="M520.2,375.4c0-2.1-1.1-4.1-3-5.2L433.5,322L347,371.9l86.6,50.1l-86.6,49.8l-86.6-49.9l-80.6,46.4    c-2.7,1.5-2.7,5.4,0,6.9L344,570.1c1.9,1.1,4.1,1.1,6,0l167.3-96.4c1.9-1.1,3-3.1,3-5.2L520.2,375.4z"></path></g></g></svg>