<svg xmlns="http://www.w3.org/2000/svg" xmlns:xlink="http://www.w3.org/1999/xlink" version="1.2" viewBox="0 0 300 300" baseProfile="tiny-ps">
  <title>zerobounce-logo-cert</title>
  <g>
    <rect width="300" height="300" fill="#FFFFFF"/>
    <g id="Symbols">
      <g id="nav---w_x2F_-black-log-in-text" transform="translate(-168.000000, -18.000000)">
        <g id="Group-26" transform="translate(168.000000, 18.000000)">
          <path id="Fill-1" d="M36.734,165.984h6.998      c0.313,0,0.522,0.104,0.627,0.418l2.611,4.178c0.209,0.418,0.104,0.836-0.209,1.149c-0.104,0.104-0.313,0.104-0.418,0.104      H26.395c-0.418,0-0.836-0.313-0.836-0.836v-3.551c0-0.209,0.104-0.418,0.209-0.522l10.235-11.802      c0.313-0.313,0.209-0.836-0.104-1.149c-0.104-0.104-0.313-0.209-0.522-0.209h-8.564c-0.418,0-0.836-0.313-0.836-0.836v-4.178      c0-0.418,0.313-0.836,0.836-0.836h19.008c0.418,0,0.836,0.313,0.836,0.836v3.447c0,0.209-0.104,0.418-0.209,0.522      l-10.235,11.802c-0.313,0.313-0.209,0.836,0.104,1.149C36.421,165.879,36.525,165.984,36.734,165.984" fill="#171E25" fill-rule="evenodd"/>
          <path id="Fill-3" d="M63.053,157.837      c0.418,0,0.836-0.313,0.836-0.836v-0.104c-0.209-2.298-2.193-3.969-4.491-3.864c-2.298,0-4.178,1.567-4.7,3.76      c-0.104,0.418,0.104,0.836,0.522,1.044h0.209H63.053z M70.364,161.911H55.742c-0.418,0-0.836,0.313-0.836,0.731      c0,0.104,0,0.209,0.104,0.313c0.836,2.089,2.924,3.447,5.222,3.342c1.88,0,3.655-0.731,5.118-1.88      c0.313-0.313,0.731-0.313,1.044,0l2.924,2.924c0.313,0.313,0.313,0.836,0,1.149c-2.715,2.402-6.058,3.76-9.713,3.655      c-6.789,0-11.384-3.864-12.324-9.713c-1.462-9.191,5.535-15.562,14.622-14.204c6.371,1.044,9.609,5.849,9.4,13.159      C71.095,161.493,70.782,161.806,70.364,161.911L70.364,161.911z" fill="#171E25" fill-rule="evenodd"/>
          <path id="Fill-5" d="M81.957,150.944      c1.358-1.671,3.238-2.82,5.326-3.238c0.418-0.104,0.836,0.209,0.94,0.731v0.104v5.118c0,0.418-0.313,0.836-0.836,0.836      c-3.969-0.104-6.475,1.984-6.893,5.013v11.28c0,0.418-0.313,0.836-0.836,0.836h-5.953c-0.418,0-0.836-0.313-0.836-0.836v-21.932      c0-0.418,0.313-0.836,0.836-0.836h5.953c0.418,0,0.836,0.313,0.836,0.836v1.671c0,0.418,0.418,0.836,0.836,0.836      C81.644,151.258,81.852,151.153,81.957,150.944" fill="#171E25" fill-rule="evenodd"/>
          <path id="Fill-7" d="M95.116,159.926      c0,3.655,2.193,6.058,5.326,6.058c3.133,0,5.326-2.507,5.326-6.058c0-3.655-2.193-6.058-5.326-6.058      C97.31,153.869,95.116,156.271,95.116,159.926 M113.393,159.822c0,7.206-5.222,12.011-12.846,12.011      c-7.624,0-12.951-4.804-12.951-12.011c0-7.206,5.222-12.011,12.951-12.011S113.393,152.615,113.393,159.822" fill="#171E25" fill-rule="evenodd"/>
          <path id="Fill-9" d="M141.488,159.613      c0-3.655-2.193-6.058-5.326-6.058s-5.222,2.611-5.222,6.058c0,3.551,2.193,6.162,5.222,6.162S141.488,163.268,141.488,159.613       M149.112,159.822c0,7.102-4.282,11.906-10.862,11.906c-2.193,0-4.282-0.731-5.849-2.089c-0.313-0.313-0.836-0.209-1.149,0.104      c-0.104,0.104-0.209,0.313-0.209,0.522v0.418c0,0.418-0.313,0.836-0.836,0.836h-5.953c-0.418,0-0.836-0.313-0.836-0.836v-30.81      c0-0.418,0.313-0.836,0.836-0.836h5.953c0.418,0,0.836,0.313,0.836,0.836v9.191c0,0.418,0.313,0.836,0.836,0.836      c0.209,0,0.418-0.104,0.522-0.209c1.671-1.358,3.655-2.089,5.64-2.089C144.726,147.707,149.112,152.511,149.112,159.822" fill="#171E25" fill-rule="evenodd"/>
          <path id="Fill-11" d="M156.527,159.926      c0,3.655,2.193,6.058,5.326,6.058s5.326-2.507,5.326-6.058c0-3.655-2.193-6.058-5.326-6.058      C158.721,153.869,156.527,156.271,156.527,159.926 M174.596,159.822c0,7.206-5.222,12.011-12.846,12.011      c-7.311,0-12.951-5.222-12.951-12.011c0-7.206,5.222-12.011,12.951-12.011C169.582,147.811,174.596,152.615,174.596,159.822" fill="#171E25" fill-rule="evenodd"/>
          <path id="Fill-13" d="M199.243,166.297l-5.953,4.386      c-0.313,0.209-0.836,0.209-1.149-0.209c-0.104-0.104-0.104-0.313-0.104-0.418c0-0.418-0.418-0.836-0.836-0.836      c-0.209,0-0.418,0.104-0.627,0.209c-1.671,1.671-3.969,2.507-6.266,2.402c-5.118,0-8.355-3.551-8.355-8.982v-14.204      c0-0.418,0.313-0.836,0.731-0.836h5.953c0.418,0,0.836,0.313,0.836,0.836v11.906c0,2.82,1.567,4.491,3.969,4.491      c2.924,0,4.595-2.402,4.595-5.64v-10.757c0-0.418,0.313-0.836,0.731-0.836h5.953c0.418,0,0.836,0.313,0.836,0.836v16.919      C199.557,165.879,199.452,166.088,199.243,166.297" fill="#171E25" fill-rule="evenodd"/>
          <path id="Fill-15" d="M227.338,156.793v14.099      c0,0.418-0.313,0.836-0.836,0.836h-5.849c-0.418,0-0.836-0.313-0.836-0.836v-12.011c0-2.82-1.671-4.491-4.178-4.491      c-2.82,0-4.491,1.984-4.804,4.804v10.862c0,0.418-0.313,0.836-0.836,0.836c-0.209,0-0.313-0.104-0.522-0.104l-5.953-4.386      c-0.209-0.104-0.313-0.418-0.313-0.627v-16.919c0-0.418,0.313-0.836,0.836-0.836h5.953c0.418,0,0.836,0.313,0.836,0.836v0.731      c0,0.418,0.313,0.836,0.836,0.836c0.209,0,0.418-0.104,0.522-0.209c1.775-1.671,4.178-2.507,6.475-2.507      C223.891,147.811,227.338,151.258,227.338,156.793" fill="#171E25" fill-rule="evenodd"/>
          <path id="Fill-17" d="M250.524,153.555l-4.178,2.507      c-0.313,0.209-0.731,0.104-1.044-0.104c-1.149-1.253-2.715-1.984-4.386-1.984c-2.924,0-5.013,2.402-5.013,5.849      c0,3.447,2.089,5.953,5.013,5.953c1.775,0.104,3.447-0.731,4.491-2.089c0.209-0.313,0.731-0.418,1.044-0.209l4.178,2.507      c0.418,0.209,0.522,0.731,0.313,1.044c-2.089,3.029-5.64,4.804-10.235,4.804c-7.206,0-12.115-4.804-12.115-12.011      c0-7.206,5.013-12.115,12.22-12.115c4.386,0,7.833,1.671,10.026,4.595C250.941,152.824,250.837,153.242,250.524,153.555" fill="#171E25" fill-rule="evenodd"/>
          <path id="Fill-19" d="M266.294,157.837      c0.418,0,0.836-0.313,0.836-0.836v-0.104c-0.209-2.298-2.193-3.969-4.491-3.864c-2.298,0-4.178,1.567-4.7,3.76      c-0.104,0.418,0.104,0.836,0.522,1.044h0.209H266.294z M273.605,161.911h-14.726c-0.418,0-0.836,0.313-0.836,0.731      c0,0.104,0,0.209,0.104,0.313c0.836,2.089,2.924,3.447,5.222,3.342c1.88,0,3.655-0.731,5.118-1.88      c0.313-0.313,0.731-0.313,1.044,0l2.924,2.924c0.313,0.313,0.313,0.836,0,1.149c-2.715,2.402-6.058,3.76-9.713,3.655      c-6.789,0-11.384-3.864-12.324-9.713c-1.462-9.191,5.535-15.562,14.622-14.204c6.371,1.044,9.609,5.849,9.4,13.159      C274.336,161.493,274.023,161.911,273.605,161.911L273.605,161.911z" fill="#171E25" fill-rule="evenodd"/>
          <path id="Fill-21" d="M43.523,117.941      c21.724-5.64,58.591-9.609,72.273,21.306c0.209,0.418,0.627,0.627,1.044,0.418c0.209-0.104,0.418-0.313,0.418-0.522      c1.044-3.969,5.222-10.966,20.47-16.606c0.418-0.209,0.836,0,1.044,0.418s0,0.836-0.418,1.044      c-7.206,4.178-17.337,11.175-20.888,19.635c0,0-0.209,1.044-0.731,0.104c0,0-16.606-33.63-72.899-24.439      c-0.418,0-0.731-0.418-0.731-0.836C43.105,118.359,43.314,118.15,43.523,117.941" fill="#FBDD46" fill-rule="evenodd"/>
          <g id="Group-25" transform="translate(77.608696, 0.525261)">
            <path id="Fill-23" d="M99.816,106.163l-8.669,8.877       c-0.209,0.209-0.522,0.313-0.836,0.209l-11.488-4.804c-0.418-0.209-0.627-0.627-0.418-1.044       c0.104-0.209,0.313-0.418,0.627-0.522l20.053-4.178c0.418-0.104,0.836,0.104,0.94,0.522       C100.129,105.641,100.025,105.954,99.816,106.163 M77.674,127.051l-3.133-15.144c-0.104-0.418,0.209-0.836,0.627-0.94h0.418       l14.935,6.162c0.313,0.104,0.627,0.104,0.836-0.209l11.384-11.488c0.313-0.313,0.836-0.313,1.149,0       c0.104,0.104,0.209,0.209,0.209,0.418l2.402,11.071l-1.358-14.935c0-0.418-0.418-0.731-0.836-0.731h-0.104l-31.332,6.371       c-0.418,0.104-0.731,0.522-0.627,0.94l4.178,20.261c0.104,0.418,0.522,0.731,0.94,0.627l29.452-5.953l-28.199,4.073       C78.197,127.677,77.779,127.469,77.674,127.051" fill="#171E25" fill-rule="evenodd"/>
          </g>
        </g>
      </g>
    </g>
  </g>
</svg>