<?xml version="1.0" encoding="utf-8"?>
<!-- Generator: Adobe Illustrator 26.2.1, SVG Export Plug-In . SVG Version: 6.00 Build 0)  -->
<svg version="1.2" baseProfile="tiny-ps" id="a" xmlns="http://www.w3.org/2000/svg" xmlns:xlink="http://www.w3.org/1999/xlink"
	 viewBox="0 0 413 413" xml:space="preserve">
<title>Mercury</title>
<rect x="-29.7" y="-29.5" fill="#FFFFFF" width="474.1" height="474.1"/>
<path fill="#040C34" d="M206.5,41.7c-90.7,0-164.5,73.5-164.8,164.1v0.8c0,90.9,74.1,164.6,164.8,164.6s164.8-74,164.8-164.6
	S297.5,41.7,206.5,41.7z M165.2,57.4c12.4-3.5,25.6-5.5,39.3-5.7h4c21.1,0.7,39.3,14.1,47,32.5c1.7,4,2.7,7.9,3.5,12.4
	c0.5,2.5,0.5,5.2,0.5,7.9c0,11.9-4,22.8-10.4,31.8c-7-4.2-14.7-7.4-22.6-9.4c6.2-5.5,9.9-13.4,9.9-22.3c0-6.5-2-12.4-5.7-17.4
	c-5.5-7.4-14.2-12.4-24.1-12.4c-17.4,0-33.8,3.2-49,9.4c-4.2,1.7-8.2,3.7-12.2,5.7c-23.4,12.4-42.7,31.5-55.2,55.1
	c-12.9,3-24.3,9.9-32.8,19.6C72.1,112.8,113.1,71.8,165.2,57.4L165.2,57.4z M269.4,102.3c16.9,10.2,31.1,24.3,41.2,41.2h-2.2
	c-13.9,0-26.8,4.5-37.3,12.4c-4-5.2-8.7-9.9-13.9-13.9c7.7-10.4,12.4-23.3,12.4-37.2C269.4,103.8,269.4,103.1,269.4,102.3
	L269.4,102.3z M325.8,182.3c-5-3.5-10.9-5.7-17.4-5.7c-9,0-16.9,3.7-22.4,9.9c-4.7,5.2-7.5,12.2-7.5,19.9c0,12.9-3.5,25.1-9.4,35.5
	c-1.7,3-3.5,5.7-5.7,8.4c-3.7,5-8.2,9.2-12.9,12.9c-6-6-13.2-10.7-21.4-13.7c8.7-4.5,15.9-11.7,20.4-20.4c3.7-6.7,5.7-14.6,5.7-22.9
	c0-13.7,5.2-26.1,13.7-35.5c2.2-2.5,4.7-4.7,7.5-6.9c9-6.7,19.9-10.4,31.8-10.4c2.7,0,5.5,0.2,8,0.5
	C320.6,162.9,323.8,172.4,325.8,182.3L325.8,182.3z M328.3,205.4v2c-0.5,10.4-9.2,18.9-19.9,18.9s-19.9-8.9-19.9-19.9
	s9-19.9,19.9-19.9S327.8,194.9,328.3,205.4L328.3,205.4z M257.2,270.9c5.2-4,9.9-8.7,13.9-13.9c10.4,7.7,23.4,12.2,37.3,12.2h2.2
	c-10.2,16.9-24.4,31-41.2,41.2v-2.2C269.4,294.3,264.9,281.4,257.2,270.9L257.2,270.9z M226.4,286.1c-5.2-4.7-12.2-7.5-19.6-7.5
	c-12.9,0-25.1-3.5-35.5-9.4c-3-1.7-5.7-3.5-8.4-5.7c-5-3.7-9.4-8.2-13.2-13.2c6-6,10.7-13.2,13.9-21.1c4.5,8.7,11.7,15.9,20.6,20.6
	c6.7,3.7,14.7,5.7,22.9,5.7c13.7,0,26.1,5.2,35.5,13.7c2.5,2.2,4.7,4.7,7,7.5c6.7,8.9,10.4,19.9,10.4,31.8c0,2.7-0.2,5.2-0.5,8
	c-8.9,4.2-18.4,7.5-28.3,9.4c3.5-5,5.7-10.9,5.7-17.4C236.3,299.5,232.4,291.6,226.4,286.1L226.4,286.1z M226.4,308.4
	c0,10.2-7.7,18.6-17.6,19.6h-4c-9.9-1-17.6-9.4-17.6-19.6c0-10.9,8.9-19.9,19.9-19.9S226.4,297.5,226.4,308.4L226.4,308.4z
	 M143.6,310.4c-16.9-10.2-31.3-24.6-41.5-41.5h2.5c13.9,0,26.8-4.5,37-12.2c4.2,5.2,8.9,9.9,14.2,14.1
	c-7.7,10.4-12.4,23.3-12.4,37.2C143.6,309.2,143.6,309.9,143.6,310.4L143.6,310.4z M104.6,235.9c8.7,0,16.7-3.7,22.1-9.9
	c0.2-0.2,0.5-0.7,0.8-1c0.5-0.8,1-1.2,1.5-2c0.2-0.2,0.5-0.8,0.5-1c0.2-0.2,0.2-0.5,0.5-0.8c0.2-0.5,0.5-1,1-1.5v-0.2
	c0.2-0.2,0.2-0.7,0.5-1c0.2-0.5,0.2-0.8,0.5-1.2c0-0.2,0.2-0.5,0.2-0.7c0.2-0.2,0.2-0.8,0.2-1c0.2-0.5,0.2-1.2,0.5-1.7v-0.2
	c0-0.2,0.2-0.5,0.2-1c0-0.2,0.2-0.5,0.2-0.8v-1.7c0-0.5,0-1,0.2-1.5v-2.2c0-12.9,3.5-25.1,9.4-35.5c1.7-3,3.5-5.7,5.7-8.4
	c3.7-4.7,7.9-9.2,12.9-12.9c6,6,13.2,10.7,21.4,13.9c-8.7,4.5-15.9,11.7-20.4,20.4c-3.7,6.7-5.7,14.4-5.7,22.6v0.2
	c0,13.7-5.5,26.1-13.9,35.3c-2.2,2.5-4.7,4.7-7.5,6.7c-8.9,6.5-19.6,10.4-31.6,10.4c-2.7,0-5.5-0.2-8.2-0.5
	c-4.2-8.9-7.5-18.4-9.4-28.3C92.2,234,98.2,235.9,104.6,235.9L104.6,235.9z M84.7,206.4v-1.2c0.5-10.4,9.2-18.9,19.9-18.9
	s19.9,8.9,19.9,19.9v0.2c-0.2,10.7-8.9,19.4-19.9,19.4C93.7,226,85,217.3,84.7,206.4L84.7,206.4z M155.8,142.1
	c-5.2,4-9.7,8.7-13.7,13.7c-10.4-7.7-23.4-12.4-37.5-12.4h-2c10.2-16.6,24.3-30.8,41-41v2.2C143.6,118.5,148.1,131.4,155.8,142.1
	L155.8,142.1z M186.9,126.9c5.2,4.7,12.2,7.5,19.9,7.5c12.9,0,25.1,3.5,35.5,9.4c3,1.7,5.7,3.5,8.4,5.7c5,3.7,9.2,8.2,12.9,12.9
	c-6,6-10.7,13.2-13.7,21.4c-4.5-8.7-11.7-15.9-20.4-20.4c-6.7-3.7-14.7-5.7-22.9-5.7c-13.7,0-26.1-5.2-35.5-13.7
	c-2.5-2.2-4.7-4.7-7-7.4c-6.7-8.9-10.4-19.9-10.4-31.8c0-2.7,0.2-5.5,0.5-7.9c8.9-4.2,18.4-7.4,28.3-9.4c-3.5,5-5.7,10.9-5.7,17.4
	C176.7,113.5,180.6,121.4,186.9,126.9L186.9,126.9z M186.6,104.6c0-10.7,8.4-19.4,18.9-19.9h2c10.4,0.5,18.9,9.2,18.9,19.9
	s-8.9,19.9-19.9,19.9S186.6,115.5,186.6,104.6L186.6,104.6z M245.5,206.4c0,21.6-17.4,39-39,39s-39-17.4-39-39v-0.2
	c0.2-21.4,17.6-38.7,39-38.7S245.5,185,245.5,206.4z M57.1,247.4c-3.5-12.4-5.2-25.3-5.5-38.7v-4.5c1-21.1,14.2-39,32.8-46.7
	c4-1.5,7.9-2.7,12.4-3.5c2.5-0.5,5.2-0.5,7.7-0.5c11.9,0,22.9,4,31.8,10.7c-4.2,6.9-7.4,14.6-9.4,22.6c-5.5-6.2-13.4-9.9-22.4-9.9
	c-6.5,0-12.4,2-17.4,5.5c-7.5,5.5-12.4,14.1-12.4,23.8v0.5c0,17.1,3.2,33.5,9.2,48.4c1.7,4.2,3.5,8.2,5.7,12.2
	c12.4,23.8,31.8,43.2,55.4,55.6c3,12.9,10.2,24.3,19.9,32.8C112.8,341.2,71.5,299.7,57.1,247.4L57.1,247.4z M248,355.6
	c-12.4,3.5-25.6,5.5-39.3,5.5h-4c-21.1-0.8-39.3-14.1-47-32.5c-1.7-4-2.7-8-3.5-12.4c-0.5-2.5-0.5-5.2-0.5-8
	c0-11.9,4-22.9,10.4-31.8c7,4.2,14.7,7.5,22.6,9.4c-6.2,5.5-9.9,13.4-9.9,22.4c0,6.5,2,12.4,5.7,17.4c5,7,12.7,11.7,21.6,12.4h5
	c16.4-0.2,32.1-3.7,46.5-9.4c4.2-1.7,8.2-3.5,12.2-5.7c23.6-12.4,43-31.8,55.4-55.4c12.9-3,24.4-10.2,32.5-19.9
	C341.4,300,300.2,341.2,248,355.6L248,355.6z M361.3,206.4v2c-0.8,21.1-14.2,39-32.5,46.7c-4,1.7-8,2.7-12.4,3.5
	c-2.5,0.5-5.2,0.5-8,0.5c-11.9,0-22.9-4-31.6-10.4c4.2-6.9,7.5-14.6,9.4-22.6c5.5,6.2,13.4,9.9,22.4,9.9c6.5,0,12.4-2.2,17.4-5.7
	c7.5-5.5,12.4-14.1,12.4-24.1c0-17.1-3.2-33.8-9.4-48.9c-1.7-4.2-3.7-8.2-5.7-12.2c-12.4-23.6-31.8-43-55.4-55.4
	c-3-12.9-10.2-24.3-19.9-32.8c52.2,14.4,93.4,55.6,107.9,107.8c3.5,12.4,5.5,25.6,5.5,39.2L361.3,206.4L361.3,206.4z"/>
</svg>
