<?xml version="1.0" encoding="utf-8"?>
<!-- Generator: Adobe Illustrator 27.8.0, SVG Export Plug-In . SVG Version: 6.00 Build 0)  -->
<svg version="1.2" baseProfile="tiny-ps" id="Layer_1" xmlns="http://www.w3.org/2000/svg" xmlns:xlink="http://www.w3.org/1999/xlink"
	 viewBox="0 0 50 50" xml:space="preserve">
	 <title>Psycho Bunny</title>
<rect x="-2.12" y="-2.12" fill="#0A1C2B" width="53.53" height="53.53"/>
<g id="Layer_2_00000149357794343284262440000003002174332802601661_">
	<g id="Layer_2_00000150076368578224243140000017453399468071335595_">
		<g id="Layer_1-2_00000098934741947766955140000000813575037133368705_">
			<path fill="#FFFFFF" d="M37.06,34.76c-0.18-0.05-0.28-0.23-0.25-0.41l0.18-1.08c0.1-0.61-0.27-1.2-0.87-1.36l-0.24-0.07
				c-0.54-0.15-1.12,0.09-1.38,0.59l-0.78,1.44c-0.3,0.55-0.79,0.97-1.37,1.19c0,0-3.64,1.45-6.23,2.39
				c-0.35,0.13-0.73,0.26-1.11,0.4c-0.38-0.13-0.76-0.27-1.11-0.4c-2.59-0.94-6.23-2.39-6.23-2.39c-0.58-0.22-1.07-0.65-1.37-1.2
				l-0.78-1.44c-0.27-0.49-0.84-0.74-1.39-0.59l-0.24,0.07c-0.59,0.17-0.97,0.75-0.87,1.36l0.18,1.08c0.03,0.18-0.08,0.36-0.26,0.41
				c-0.46,0.14-0.72,0.61-0.6,1.08l0.03,0.1c0.11,0.43,0.52,0.71,0.96,0.66l2.28-0.25c0.38-0.04,0.77,0,1.14,0.13
				c0,0,3.61,1.18,6.19,2.1c-1.7,0.58-3.14,1.04-3.14,1.04c-0.59,0.2-1.24,0.19-1.82-0.04l-1.53-0.61
				c-0.52-0.21-1.12-0.03-1.44,0.44l-0.14,0.2c-0.35,0.51-0.26,1.2,0.21,1.6l0.83,0.72c0.14,0.12,0.16,0.32,0.07,0.47
				c-0.26,0.4-0.16,0.93,0.22,1.21l0.08,0.06c0.36,0.26,0.85,0.21,1.16-0.11l1.6-1.65c0.27-0.28,0.59-0.49,0.95-0.63
				c0,0,2.64-1.05,5.01-1.94c2.37,0.89,5.01,1.94,5.01,1.94c0.36,0.14,0.68,0.35,0.95,0.63l1.61,1.66c0.31,0.32,0.8,0.36,1.16,0.11
				l0.08-0.06c0.39-0.28,0.49-0.81,0.23-1.21c-0.1-0.15-0.07-0.35,0.07-0.47l0.83-0.72c0.47-0.4,0.56-1.09,0.21-1.6l-0.14-0.2
				c-0.32-0.46-0.92-0.64-1.44-0.44l-1.53,0.61c-0.58,0.23-1.23,0.25-1.82,0.04c0,0-1.43-0.47-3.14-1.04
				c2.58-0.92,6.19-2.1,6.19-2.1c0.36-0.12,0.75-0.17,1.14-0.13l2.29,0.25c0.44,0.05,0.85-0.23,0.96-0.66l0.03-0.1
				C37.78,35.37,37.52,34.9,37.06,34.76z"/>
			<path fill="#FFFFFF" d="M22.76,33.12v1.84c0,0.24,0.17,0.45,0.41,0.49l1.59,0.28v-2.61H22.76z"/>
			<path fill="#FFFFFF" d="M27.24,33.12v1.84c0,0.24-0.17,0.45-0.41,0.49l-1.59,0.28v-2.61H27.24z"/>
			<path fill="#FFFFFF" d="M30.85,21.76c3.79-4.38,4.22-10.74,1.04-15.59c-4.06,3.21-5.82,8.53-4.49,13.53
				c-1.53-0.71-3.28-0.71-4.81,0c0.29-1.09,0.44-2.22,0.44-3.36c0-3.97-1.81-7.72-4.93-10.17c-3.17,4.85-2.75,11.21,1.04,15.59
				c-1.11,0.72-1.71,2.02-1.53,3.33l0.49,3.67c0.11,0.83,0.7,1.52,1.5,1.76l2.22,0.67c0.32,0.1,0.57,0.37,0.63,0.71l0.05,0.3
				c0.05,0.25,0.27,0.43,0.52,0.43h3.94c0.26,0,0.48-0.18,0.52-0.43l0.06-0.3c0.06-0.33,0.3-0.61,0.63-0.71l2.22-0.67
				c0.8-0.25,1.38-0.93,1.49-1.76l0.49-3.67C32.55,23.78,31.96,22.49,30.85,21.76z M21.87,29.22c-1.29,0-2.34-0.94-2.34-2.1
				s1.05-2.11,2.34-2.11s2.34,0.94,2.34,2.1S23.16,29.22,21.87,29.22z M25.55,31.29h-1.1c-0.37,0-0.67-0.3-0.67-0.67
				c0-0.14,0.05-0.28,0.13-0.4l0.91-1.22c0.07-0.1,0.21-0.12,0.31-0.04c0.02,0.01,0.03,0.03,0.04,0.04l0.91,1.22
				c0.22,0.29,0.16,0.71-0.13,0.93C25.84,31.25,25.7,31.3,25.55,31.29z M28.13,29.22c-1.29,0-2.34-0.94-2.34-2.1s1.05-2.1,2.34-2.1
				s2.34,0.94,2.34,2.1S29.42,29.22,28.13,29.22L28.13,29.22z"/>
			<path fill="#EE6FBB" d="M31.46,8.79c1.75,4.06,0.99,8.76-1.95,12.05C27.76,16.78,28.52,12.08,31.46,8.79z"/>
			<path fill="#EE6FBB" d="M17.61,13.28c0-1.54,0.31-3.07,0.93-4.49c1.86,2.08,2.89,4.77,2.88,7.56c0,1.54-0.31,3.07-0.93,4.49
				C18.63,18.76,17.6,16.07,17.61,13.28z"/>
		</g>
	</g>
</g>
</svg>
