<?xml version="1.0" encoding="UTF-8"?>
<svg id="Layer_1" xmlns="http://www.w3.org/2000/svg" baseProfile="tiny-ps" version="1.2" xmlns:inkscape="http://www.inkscape.org/namespaces/inkscape" xmlns:sodipodi="http://sodipodi.sourceforge.net/DTD/sodipodi-0.dtd" xmlns:svg="http://www.w3.org/2000/svg" viewBox="0 0 96 96" xml:space="preserve">
<title>Imagine Orthodontic Studio</title>
  <!-- Generator: Adobe Illustrator 29.1.0, SVG Export Plug-In . SVG Version: 2.1.0 Build 142)  -->
  <path id="path18" d="M92.3,60.5h-.2c0-.1-.2-.3-.2-.3h-.2c0-.1-.2-.3-.2-.3h-.2c0-.1-.2-.3-.2-.3h-.2c0-.1-.2-.3-.2-.3h-.2c0-.1-.2-.3-.2-.3h-.2c0-.1-.2-.2-.2-.2h-.2c0-.1-.2-.2-.2-.2h-.2c0-.1-.2-.2-.2-.2h-.2c0-.1-.2-.2-.2-.2h-.2c-.2-.2-.4-.4-.5-.5h-.2c-.3-.3-.6-.5-.9-.7-.2-.1-.5-.3-.7-.4-1.5-.9-3.1-1.7-4.7-2.3-20.3-8.3-40.2,1.9-40.2,1.9,17.3-9.4,29.6-9.7,37-8.2-2.6-8.6-4.5-18.6-4.4-26.1.6,0,1.1,0,1.7-.2,2.1-.8,3.2-3.1,2.4-5.3-.8-2.1-3.1-3.3-5.2-2.5-2.1.8-3.2,3.1-2.4,5.3.5,1.4,1.6,2.3,2.9,2.6-4.6,17.6-22.4,20.9-36.2-.4,0,0,.2,0,.3-.1l.5-.4c.4-.4.8-.8,1.1-1.3,1-2,.2-4.5-1.8-5.5-2-1-4.4-.2-5.4,1.8s-.2,4.5,1.8,5.5c.9.5,1.9.5,2.8.3,2.8,26-10.1,33.3-24.6,22.6.8-1.1,1-2.5.6-3.9-.8-2.1-3.1-3.3-5.2-2.5-2.1.8-3.2,3.1-2.4,5.3.8,2.1,3.1,3.3,5.2,2.5.6-.2,1-.5,1.4-.9,0,.5,1,1.4,1.2,1.7.9,1.2,1.7,2.5,2.6,3.7,2.4,3.4,4.8,7,6.6,10.8,1.9,4,3.1,8.3,4.6,12.5,0,0-.1.2-.1.2-.1.2-.2.4-.3.6-.1.2-.2.4-.3.6-.1.2-.2.4-.3.6h0c0,.2-.2.4-.3.6h0c0,.3-.2.4-.3.6h0c-.1.2-.2.4-.3.6h0c0,.3-.2.5-.3.7h0c-.1.2-.2.5-.3.7h0c0,.2-.2.5-.3.7,0,0,0,0,0,0,0,.2-.2.4-.3.7,0,.2-.2.4-.2.6h0c0,.3-.2.5-.2.7h0s0,0,0,0c0,.2-.1.4-.2.6h0s0,0,0,0c0,.2-.1.4-.2.7,0,.2-.1.4-.2.7h0c0,.2-.1.5-.2.7,0,.2-.1.5-.2.7h0c0,.3-.1.5-.2.7h0c0,.2,0,.3-.1.5v.3c0,0,0-.3,0-.3l.3-.9c1.3-3.6,2.9-6.9,5-10,.5-.8,1-1.5,1.6-2.3.4-.5.8-1.1,1.2-1.6.7-.9,1.5-1.7,2.3-2.6,11.3-11.7,28.4-17.4,44.3-14.4,1.5.3,3.1.6,4.6,1.1,3,.9,6,2.2,8.8,3.8.4.2.8.5,1.2.7l1,.6h-.2c0-.1,0-.1,0-.1Z" fill="#a33896" fill-rule="evenodd"/>
</svg>