<svg xmlns="http://www.w3.org/2000/svg" xmlns:xlink="http://www.w3.org/1999/xlink" version="1.2" viewBox="0 0 436 436" baseProfile="tiny-ps">
  <title>Skills Base Full Colour Icon - Tiny 1.2</title>
  <path d="M100.4,251.9c-11-86.5,50.7-140.8,113.4-144.1c46.6-2.5,92.5,26.8,116.2,72.3l29-46.6l46.6-15.9  c-18.6-28.5-40.1-50.1-65.8-65.8C243.8-6.6,120.2,17.5,69.4,90C40.2,131.5,40.7,196.5,100.4,251.9z" fill="#2F99DE"/>
  <path d="M332.7,187.2c11,86.5-50.7,140.8-113.4,144.1c-46.6,2.5-92.5-26.8-116.2-72.3l-29,46.6l-46.6,15.9  c18.6,28.5,40.1,50.1,65.8,65.8c96,58.5,219.6,34.4,270.4-38.1C392.9,307.6,392.4,242.6,332.7,187.2z" fill="#2F99DE"/>
  <circle cx="218.2" cy="221.2" r="49.9" fill="#595858"/>
</svg>