<?xml version="1.0" encoding="UTF-8" standalone="yes"?>
<svg width="512" height="512" version="1.2" viewBox="0 0 512 512" baseProfile="tiny-ps" xmlns="http://www.w3.org/2000/svg">
  <title>bimi-svg-tiny-12-ps</title>
  <g id="layer1">
    <g id="g8" transform="translate(49.85,195.75)">
      <path id="path1" d="m46.8 45.1-22.6 22.6 22.6 22.6h24l-22.6-22.6 22.6-22.6zm318.7 0h-24.1l22.6 22.6-22.6 22.6h24.1l22.6-22.6z" fill="#ff1478"/>
      <g id="g7">
        <g id="g6" fill="#0023a0">
          <path id="path2" d="m117.3 73.6c-2.1 3.7-6 6.1-10.5 6.1-6.6 0-12-5.4-12-12.1s5.4-12.1 12-12.1c4.5 0 8.4 2.5 10.5 6.1l10.8-4.7c-4.1-7.1-12-11.9-21.2-11.9-13.3 0-24.1 10.1-24.1 22.6s10.8 22.6 24.1 22.6c9.2 0 17.2-4.8 21.2-11.9z"/>
          <path id="path3" d="m254.3 45.2c-4.6 0-8.8 1.8-12 4.6v-19.7h-12.1v60.3h12.1v-24.2c0-5 4-9 9-9s9 4 9 9v24.2h12v-27.1c0.1-10-8-18.1-18-18.1z"/>
          <path id="path4" d="m305.4 45.1c-13.3 0-24.1 10.1-24.1 22.6s10.8 22.6 24.1 22.6 24.1-10.1 24.1-22.6-10.8-22.6-24.1-22.6zm0 34.6c-6.6 0-12-5.4-12-12s5.4-12 12-12 12 5.4 12 12-5.3 12-12 12z"/>
          <path id="path5" d="m170 45.1v4.4c-3.8-2.8-8.4-4.4-13.4-4.4-12.5 0-22.6 10.1-22.6 22.6s10.1 22.6 22.6 22.6c5 0 9.7-1.7 13.4-4.4v4.4h12.1v-45.2zm-12 34.6c-6.6 0-12-5.4-12-12s5.4-12 12-12 12 5.4 12 12c0.1 6.6-5.3 12-12 12z"/>
          <path id="path6" d="m218.1 78.1c-1.3 1-2.8 1.6-4.5 1.6-4.1 0-7.5-3.4-7.5-7.5v-15.1h12v-10.5h-12v-10.5h-12v36.1c0 10 8.1 18.1 18.1 18.1 3.3 0 6.4-1.1 9-3z"/>
        </g>
      </g>
    </g>
  </g>
</svg>