<?xml version="1.0" encoding="utf-8"?>
<!-- Generator: Adobe Illustrator 27.6.1, SVG Export Plug-In . SVG Version: 6.00 Build 0)  -->
<svg version="1.2" baseProfile="tiny-ps" id="Layer_1" xmlns="http://www.w3.org/2000/svg" xmlns:xlink="http://www.w3.org/1999/xlink"
	 viewBox="0 0 500 500" xml:space="preserve">
<title>Jumbotail Technologies</title>
<rect fill="#FFFFFF" width="500" height="500"/>
<path fill="#2A552A" d="M78,195.5c-21.7,8.6-37.3,30-37.3,54.5c0,32.5,26.5,58.6,58.6,58.6c32.5,0,58.6-26.5,58.6-58.6
	c0-21.7-11.8-40.8-29.3-50.7C106.7,217.5,79.6,199.3,78,195.5L78,195.5z"/>
<path fill="#FFFFFF" d="M102.6,251.9c-2.5,13.4-17.2,18.2-26.1,7.3l-14.3,9.2c9.6,21.4,46.9,32.2,67.9,0
	c12.7-19.4,6.7-48.4-0.6-69.2c-8.6-5.1-18.8-8-29.3-8c-7.6,0-15,1.6-21.7,4.1c1.6,3.8,3.5,8.6,6.4,13.7
	C93,224.8,105.1,238.5,102.6,251.9"/>
<path fill="#2A552A" d="M412.4,265.9c-1,1-1.6,1.6-2.5,2.2c-1,0.6-2.2,1-3.8,1c-1.3,0-2.2-0.3-3.2-1c-0.6-0.6-1.3-1.6-1.3-2.5
	c0-1.3,0.6-2.2,1.6-3.2s2.5-1.3,4.5-1.3h4.8v4.8H412.4z M454.5,268.8v-42.7h-13.4v5.7l4.1,1v35.7l-3.8,1l-3.8-1v-27.4h-14.3v5.4
	l5.1,1v21l-4.1,1l-2.5-0.3c0-0.3,0-1,0-1.3s0-1,0-1.6v-14c0-3.8-1.3-6.7-4.1-8.6c-2.9-1.9-6.1-3.2-10.2-3.2c-2.5,0-4.8,0.3-7,1.3
	s-4.1,1.9-5.7,2.9v7.6h7l0.6-3.5c0.6-0.3,1.3-0.6,1.9-1c0.6-0.3,1.6-0.3,2.9-0.3c1.9,0,3.2,0.3,4.1,1.3c1,1,1.6,2.2,1.6,3.8v3.2
	h-4.8c-4.8,0-8.6,1-11.2,2.5c-2.5,1.6-3.8,4.1-3.8,7.3c0,0.6,0,1.6,0.3,2.2l-1.6,0.3c-0.6,0-1,0.3-1.6,0.3s-1,0-1.6,0
	c-1,0-1.6-0.3-1.9-1c-0.6-0.6-0.6-1.6-0.6-2.9v-16.9h6.1v-6.7h-6.1v-8.3h-9.2v8.3h-5.1v5.1l5.1,1.3v17.2c0,3.8,0.6,6.4,2.5,8.3
	c1.6,1.6,4.1,2.5,7.3,2.5c1.3,0,2.2,0,3.2-0.3s1.9-0.3,2.9-0.6l3.8-1.6c1.9,1.6,4.5,2.5,7.6,2.5c1.9,0,3.8-0.3,5.4-1.3
	c1.6-0.6,2.9-1.9,3.8-2.9c0,0.6,0.3,1.3,0.3,1.9c0.3,0.6,0.3,1,0.6,1.6h10.2h0.3h16.9h0.6h16.9v-5.4L454.5,268.8L454.5,268.8z
	 M437.6,231.8c0,3.2-2.5,5.7-5.7,5.7s-5.7-2.5-5.7-5.7s2.5-5.7,5.7-5.7C435,226.1,437.6,228.6,437.6,231.8"/>
<path fill="#2A552A" d="M214.8,229.6h-5.1h-14.3v5.7l5.1,1v25.5c0,2.2-0.6,4.1-1.6,5.4s-2.5,1.9-4.1,1.9c-1.9,0-3.5-0.6-4.5-1.9
	s-1.6-2.9-1.6-5.4h-8.9v0.3c0,4.5,1.3,8,3.8,10.2s6.7,3.5,11.2,3.5s8-1.3,10.8-3.8c2.9-2.5,4.5-6.1,4.5-10.5V236l5.1-1L214.8,229.6
	L214.8,229.6z"/>
<path fill="#2A552A" d="M361.7,258.6c0,3.2-0.3,5.4-1.6,7.3c-1,1.9-2.9,2.9-5.1,2.9c-2.5,0-4.1-1-5.1-2.9s-1.6-4.5-1.6-7.3V258
	c0-2.9,0.6-5.4,1.6-7.3c1-1.9,2.9-2.9,5.1-2.9s4.1,1,5.1,2.9s1.6,4.5,1.6,7.3V258.6L361.7,258.6z M330.5,258.9c0,2.9-0.3,5.4-1.3,7
	s-2.5,2.5-4.8,2.5c-1.3,0-2.5-0.3-3.5-0.6c-1-0.3-2.2-1.3-2.2-2.2v-14.3c0-1,1.3-1.9,2.2-2.5c1-0.6,2.2-1,3.5-1c2.2,0,3.8,1,4.8,2.9
	s1.3,4.5,1.3,8V258.9L330.5,258.9z M355,240.8c-5.1,0-8.9,1.6-11.8,4.8c-1.9,2.2-3.2,5.1-3.8,8.3c-0.3-3.2-1.6-6.1-3.2-8.3
	c-2.2-3.2-5.4-4.8-9.9-4.8c-1.9,0-3.2,0.3-4.5,1c-1.3,0.6-2.5,1.9-3.5,3.2v-18.8h-14v5.7l5.1,1v36l-2.9,0.6l-3.8-0.6v-14
	c0-4.8-0.6-8.3-2.5-10.5s-4.5-3.5-7.6-3.5c-2.2,0-4.1,0.6-5.7,1.6s-2.9,2.5-4.1,4.1c-0.6-1.9-1.9-3.5-3.5-4.5s-3.5-1.3-5.4-1.3
	s-4.1,0.3-5.7,1.3s-2.9,2.2-4.1,3.8l-0.3-4.5h-13.7v5.4l5.1,1v21l-4.5,1l-4.1-1v-27.4h-8.9h-3.8v5.4l4.1,1V266c-1,1-1.6,1.6-2.9,1.9
	c-1.3,0.3-2.2,0.6-3.8,0.6s-2.9-0.6-3.8-1.6c-1-1-1.3-2.9-1.3-5.4v-20.4H217h-3.8v5.4l4.1,1v14c0,4.8,0.6,8.3,2.9,10.5
	c1.9,2.2,4.8,3.5,8.3,3.5c1.9,0,3.8-0.3,5.4-1.3c1.6-1,2.9-2.2,3.8-3.8l0.6,4.1h11.8h0.3H268v-5.1l-4.1-1v-18.2c1-1,1.3-1.6,2.2-1.9
	c1-0.3,1.9-0.6,3.2-0.6c1.6,0,2.9,0.6,3.5,1.6s1,2.9,1,5.4v14l-3.5,1v5.4h16.9v-5.7l-4.1-1v-15.9c0-0.3,0-0.6,0-1c0-0.3,0-0.6,0-1
	c0.6-1,1.3-1.9,2.2-2.2c1-0.3,2.2-1,3.5-1c1.6,0,2.9,0.6,3.8,1.6c1,1,1.3,2.9,1.3,5.4v14l-4.1,1v5.4h15.9h1.6h1.9h1h7l0.6-4.1
	c1,1.6,2.2,2.9,3.8,3.5c1.6,0.6,3.2,1.3,5.1,1.3c4.1,0,7.6-1.6,9.6-4.5c1.6-2.2,2.5-5.1,3.2-8.3c0.6,3.2,1.9,5.7,3.8,8
	c2.9,3.2,6.7,4.8,11.8,4.8s8.9-1.6,11.8-4.8c2.9-3.2,4.1-7.3,4.1-12.4v-0.6c0-5.1-1.3-9.2-4.1-12.4C364,242.4,360.1,240.8,355,240.8
	L355,240.8L355,240.8z"/>
</svg>
