<svg xmlns="http://www.w3.org/2000/svg" xmlns:xlink="http://www.w3.org/1999/xlink" version="1.2" viewBox="0 0 226 226" baseProfile="tiny-ps"><title>CoSchedule Wordmark</title><rect width="226" height="226" fill="#323248"/><g><g><path d="M206.8,107.5c-5.8,0-10.1,4.5-10.1,10.8s4.2,10.8,10.1,10.8c3.3,0,6.1-1.2,7.5-2.4    c1.1-0.9,1.1-1.1,0.3-2.2c-0.1-0.2-0.7-1-0.9-1.1c-0.7-1-1.1-0.8-2-0.2l-0.2,0.1c-1.5,1-3,1.3-4.5,1.3c-2.7,0-5.3-2.3-5.7-5h13.2    c1.1,0,1.4-0.4,1.5-1.3c0.1-0.4,0.1-1.1,0.1-1.4C216.2,111.5,212.3,107.5,206.8,107.5z M201.5,115.7c0.6-2.4,2.8-4,5.4-4    c2.3,0,4.3,1.7,4.7,4H201.5z" fill="#FFFFFF"/><path d="M45.4,107.5c-5.8,0-10.5,4.8-10.5,10.7c0,6,4.7,10.8,10.5,10.8s10.5-4.9,10.5-10.8    C55.9,112.3,51.2,107.5,45.4,107.5z M45.4,124.6c-3.2,0-5.8-2.9-5.8-6.4s2.6-6.3,5.8-6.3s5.8,2.8,5.8,6.3    C51.2,121.8,48.7,124.6,45.4,124.6z" fill="#FFFFFF"/><path d="M66.9,111.1c-3.7-1.4-5.7-3-5.7-5.4c0-1.6,1.3-3.9,5.2-3.9c2.7,0,5.8,2,6.1,2.2    c0.7,0.4,1.2,0.1,1.6-0.5c0.4-0.5,0.8-1.1,1.1-1.6c0.5-0.7,0.1-1.2-0.3-1.4c-0.5-0.3-3.8-2.6-8.4-2.6c-7.2,0-9.9,4.7-9.9,8    c0,5.1,3.6,7.4,8.2,9.2c4.5,1.8,6.9,3.4,6.9,6c0,2.2-2,4-5.2,4c-3.5,0-7-2.8-7.3-3c-0.5-0.4-1.1-0.2-1.5,0.4s-0.8,1.2-1.1,1.8    c-0.5,0.8-0.1,1.1,0.3,1.4c0.8,0.7,4.2,3.4,9.7,3.4c5.9,0,10.1-3.7,10.1-8.2C76.7,115.6,72.2,113.2,66.9,111.1z" fill="#FFFFFF"/><path d="M32.1,121.7c-0.3-0.2-0.7-0.3-1,0c-2,1.6-4.1,2.9-7.2,2.9c-5.9,0-10.5-5.2-10.5-11.2    s4.5-11.3,10.4-11.3c2.6,0,5.3,1.1,7.2,2.9c0.4,0.4,0.8,0.4,1.1,0l1.8-1.9c0.3-0.4,0.3-0.9,0-1.2c-2.9-2.6-5.9-4-10.1-4    c-8.3,0-15,7-15,15.7s6.7,15.6,15,15.6c3.7,0,7.3-1.3,10.1-4.2c0.3-0.3,0.4-0.9,0-1.1L32.1,121.7z" fill="#FFFFFF"/><path d="M161.5,97.8h-2.4c-0.6,0-1.1,0.5-1.1,1.1v10.3c-1.6-1.1-3.5-1.8-5.6-1.8c-5.6,0-10.2,4.8-10.2,10.7    c0,6,4.6,10.8,10.2,10.8c2.1,0,4-0.7,5.6-1.8v0.2c0,0.6,0.5,1.1,1.1,1.1h2.4c0.6,0,1.1-0.5,1.1-1.1V99    C162.6,98.4,162.1,97.8,161.5,97.8z M152.4,124.6c-3.2,0-5.6-2.9-5.6-6.4s2.5-6.3,5.6-6.3c3.2,0,5.6,2.8,5.6,6.3    C158,121.8,155.5,124.6,152.4,124.6z" fill="#FFFFFF"/><path d="M130.5,107.5c-5.8,0-10.1,4.5-10.1,10.8s4.2,10.8,10.1,10.8c3.3,0,6.1-1.2,7.5-2.4    c1.1-0.9,1.1-1.1,0.3-2.2c-0.1-0.2-0.7-1-0.9-1.1c-0.7-1-1.1-0.8-2-0.2l-0.2,0.1c-1.5,1-3,1.3-4.5,1.3c-2.7,0-5.3-2.3-5.7-5h13.2    c1.1,0,1.4-0.4,1.5-1.3c0.1-0.4,0.1-1.1,0.1-1.4C139.8,111.5,135.9,107.5,130.5,107.5z M125.1,115.7c0.6-2.4,2.8-4,5.4-4    c2.3,0,4.3,1.7,4.7,4H125.1z" fill="#FFFFFF"/><path d="M109.8,107.5c-2.7,0-4.7,1.1-5.8,1.9V99c0-0.6-0.5-1.1-1.1-1.1h-2.4c-0.6,0-1.1,0.5-1.1,1.1v28.5    c0,0.6,0.5,1.1,1.1,1.1h2.4c0.6,0,1.1-0.5,1.1-1.1v-13.1c0.6-0.6,2.8-2.3,5.6-2.3c2.5,0,3.7,1.6,3.7,4.8v10.7    c0,0.6,0.5,1.1,1.1,1.1h2.5c0.6,0,1.1-0.5,1.1-1.1v-10.7C117.9,110.8,115,107.5,109.8,107.5z" fill="#FFFFFF"/><path d="M96.6,122.5l-0.6-0.4c-0.9-0.7-1.2-0.9-2.3,0.2c-0.1,0.1-0.3,0.2-0.4,0.4c-1,1-2,2-4.3,2    c-3.2,0-5.7-2.8-5.7-6.3s2.6-6.2,5.8-6.2c1.5,0,3,0.7,4,1.8l0.1,0.1c0.1,0.1,0.1,0.1,0.2,0.2c0.6,0.6,1.1,1.1,2.1,0.1l0.9-0.8    c1-0.9,1.1-1.1,0.3-2.3c-1.9-2.4-4.4-3.6-7.5-3.6c-5.7,0-10.6,5-10.6,10.8c0,6,4.6,10.7,10.5,10.7c3.2,0,6.2-1.6,7.9-4.4    C97.8,123.5,97.5,123.2,96.6,122.5z" fill="#FFFFFF"/><path d="M183.9,108h-2c-0.9,0-1.5,0-1.5,1.5v11.3c-0.5,2.3-2.4,4-4.7,4s-4.3-1.7-4.7-4v-11.3    c0-1.5-0.8-1.5-1.5-1.5h-2c-0.6,0-1.1,0.5-1.1,1.1v10.6c0,0.1,0,0.2,0,0.3l0,0c0.2,5.3,4,9.1,9.4,9.1s9.2-3.8,9.4-9.1l0,0    c0-0.1,0-0.2,0-0.3V109C184.9,108.4,184.5,108,183.9,108z" fill="#FFFFFF"/><path d="M195.7,125.2l-0.3-0.3l0,0c-2.3-2.3-2.3-3.9-2.3-3.9V99c0-0.6-0.5-1.1-1.1-1.1h-2.4    c-0.6,0-1.1,0.5-1.1,1.1v22.4c0,2,0.8,3.9,2.2,5.4l1.7,1.7c0.4,0.4,1.1,0.4,1.5,0l1.7-1.7C196.1,126.3,196.1,125.6,195.7,125.2z" fill="#FFFFFF"/></g></g></svg>