<?xml version="1.0" encoding="UTF-8"?>
<svg version="1.2" baseProfile="tiny-ps" id="Ebene_2" xmlns="http://www.w3.org/2000/svg" viewBox="-12.8 -12.8 85 85">
<title>Onlineprinters BIMI Logo</title>
<g>
<rect x="-15.5" y="-15" width="90" height="90" fill="#ffffff"/>
</g>
<g id="Ebene_2-2"><g id="Layer_1">
<g>
<rect fill="#2d4924" y="51.14" width="7.96" height="7.96"/>
<rect fill="#2d4924" y="40.91" width="7.96" height="7.96"/>
<rect fill="#2d4924" x="10.23" y="51.14" width="7.96" height="7.96"/>
<path fill="#2d4924" d="M29.55,10.23c-10.67,0-19.32,8.65-19.32,19.32v19.32h7.96V29.55h0c0-6.28,5.09-11.36,11.36-11.36s11.36,5.09,11.36,11.36-5.09,11.36-11.36,11.36h-9.09v7.96h9.09c10.67,0,19.32-8.65,19.32-19.32S40.22,10.23,29.55,10.23h0Z"/>
<path fill="#2d4924" d="M29.55,0C13.23,0,0,13.23,0,29.55H0v9.09H7.96v-9.09c0-11.93,9.67-21.59,21.59-21.59s21.59,9.67,21.59,21.59-9.67,21.59-21.59,21.59h-9.09v7.96h9.09c16.32,0,29.55-13.23,29.55-29.55S45.87,0,29.55,0Z"/>
</g>
</g>
</g>
</svg>