<?xml version="1.0" encoding="utf-8"?>

<svg viewBox="0 0 50 50" fill="none" xmlns="http://www.w3.org/2000/svg" version="1.2" baseProfile="tiny-ps">
<title>Meow Logo </title>
<path d="M37.4174 11.4312C37.1636 11.4871 31.3087 12.7885 25.1857 15.0239C19.0629 12.7884 13.2084 11.4871 12.9549 11.4312L11 11V26.2588C11 27.3201 11.1552 28.351 11.447 29.3341C11.5952 29.8322 11.7781 30.3181 11.9935 30.7897C14.0762 35.3477 19.2046 38.5794 25.1857 38.5794C32.0534 38.5794 37.7966 34.3193 39.0968 28.6826C39.1385 28.5004 39.1759 28.3173 39.2085 28.1328C39.2806 27.7252 39.3288 27.3113 39.3532 26.892C39.3658 26.6821 39.3723 11 39.3723 11L37.4174 11.4312ZM36.1549 15.0443V20.6634C34.5941 19.3666 32.4625 18.1054 29.744 16.8708C32.3008 16.0568 34.6131 15.4344 36.1549 15.0443ZM25.1857 35.362C19.1376 35.3616 14.2174 31.2781 14.2174 26.2588C14.2174 25.1664 15.2999 22.2456 25.1857 18.4589C35.0718 22.2457 36.1549 25.1665 36.1549 26.2588C36.1549 26.5727 36.136 26.8825 36.0978 27.1882C36.042 27.6469 35.9442 28.0954 35.809 28.531C34.5893 32.4544 30.2888 35.362 25.1857 35.362ZM14.2173 15.0443C15.7588 15.4344 18.0714 16.0568 20.6283 16.8708C17.9098 18.1054 15.7779 19.3666 14.2173 20.6634V15.0443Z" fill="#FF6531"/>
</svg>
