<?xml version="1.0" encoding="iso-8859-1"?>
<!-- Generator: Adobe Illustrator 29.1.0, SVG Export Plug-In . SVG Version: 9.03 Build 55587)  -->
<svg version="1.2" baseProfile="tiny-ps" id="Layer_1" xmlns="http://www.w3.org/2000/svg" xmlns:xlink="http://www.w3.org/1999/xlink"
	 viewBox="0 0 580.557 335.276" xml:space="preserve">
	 <title>Nu-Mega</title>
<g>
	<path fill="#242D63" d="M164.679,155.212c-0.257-1.754-0.341-4.847-0.341-7.268h-0.168c-0.84,2.342-3.795,8.272-12.407,8.272
		c-7.511,0-13.346-4.432-13.346-14.033V111.7h15.204v26.144c0,4.165,1.265,6.172,4.299,6.172c4.393,0,5.322-3.923,5.322-7.175V111.7
		h15.199v25.531c2.594-6.858,4.017-14.275,4.017-22.033c0-34.736-28.476-62.906-63.608-62.906c-35.122,0-63.608,28.17-63.608,62.906
		c0,34.756,28.486,62.906,63.608,62.906c19.77,0,37.424-8.909,49.091-22.892H164.679z"/>
	<path fill="#242D63" d="M248.66,96.576h-23.07c0,0-7.901,33.546-8.405,35.695c-0.46-2.169-7.669-35.695-7.669-35.695h-24.019
		v58.978h14.547v-42.568c0.954,3.558,11.454,42.568,11.454,42.568h10.421c0,0,11.251-39.332,12.215-42.687v42.687h14.888V96.576
		H248.66z"/>
	<path fill="#242D63" d="M271.559,120.231c4.185,0,5.816,2.322,5.816,8.252v0.904h-12.279
		C265.2,123.744,267.651,120.231,271.559,120.231 M250.525,133.246c0,5.154,1.087,12.358,6.26,17.447
		c3.983,3.923,9.729,5.9,17.062,5.865c6.932-0.099,12.679-1.621,15.466-2.525l0.252-0.079l-0.351-11.207l-0.479,0.198
		c-5.351,2.288-9.502,3.4-12.699,3.4c-6.542,0-10.08-2.841-10.569-8.405h26.455v-4.605c0-10.604-5.396-22.976-20.61-22.976
		C257.037,110.358,250.525,122.217,250.525,133.246"/>
	<path fill="#242D63" d="M310.017,132.578c0-7.377,1.616-10.678,5.218-10.678c3.918,0,5.895,3.8,5.895,11.261
		c0,7.288-0.904,11.513-5.559,11.513C310.961,144.674,310.017,139.837,310.017,132.578 M293.439,132
		c0,15.407,5.875,23.555,16.988,23.555c5.223,0,9.359-2.792,11.557-7.659v1.962c0,8.78-3.592,12.684-11.646,12.684
		c-6.453,0-10.643-2.382-13.41-3.963l-0.504-0.282l-0.544,12.743l0.222,0.099c2.342,1.028,10.139,2.955,16.691,2.955
		c16.538,0,24.241-7.723,24.241-24.316v-27.883c0-4.487,0.287-7.945,0.504-10.159l0.04-0.385h-14.957l-0.044,0.301
		c-0.306,1.952-0.519,4.23-0.573,6.117c-2.589-4.902-6.547-7.412-11.824-7.412C299.191,110.358,293.439,121.238,293.439,132"/>
	<path fill="#242D63" d="M352.804,141.348c0-4.541,3.661-6.839,10.88-6.839h1.423v1.077c0,7.135-2.49,10.757-7.417,10.757
		C354.46,146.343,352.804,144.658,352.804,141.348 M343.895,113.212l-0.247,0.089l0.553,11.622l0.509-0.316
		c1.952-1.22,7.051-4.037,12.476-4.037c5.845,0,7.921,3.009,7.921,5.574v0.998h-3.533c-15.243,0-22.967,5.109-22.967,15.204
		c0,8.365,5.618,14.211,13.682,14.211c4.931,0,8.385-1.744,12.862-6.532c0.04,1.077,0.143,2.164,0.257,3.222l0.237,2.303
		l0.326,0.005h13.895l-0.044-0.38c-0.217-2.347-0.504-5.924-0.504-9.571v-18.791c0-8.138-2.233-16.454-18.846-16.454
		C354.623,110.356,349.049,111.315,343.895,113.212"/>
</g>
<polygon fill="#FFFFFF" points="101.595,114.795 101.264,114.795 101.264,155.213 87.409,155.213 87.409,96.922 105.809,96.922 
	121.265,137.089 121.433,137.089 121.433,96.922 135.284,96.922 135.284,155.213 116.71,155.213 "/>
<g>
	<path fill="#FFFFFF" d="M163.244,111.7v25.141c0,3.251-0.929,7.175-5.327,7.175c-3.034,0-4.299-2.006-4.299-6.172V111.7h-15.204
		v30.482c0,9.601,5.836,14.033,13.351,14.033c8.608,0,11.562-5.929,12.402-8.272h0.173c0,2.421,0.079,5.514,0.341,7.268h3.261
		c4.442-5.322,8.01-11.38,10.5-17.961V111.7H163.244z"/>
	<path fill="#86774F" d="M162.551,85.648c0,6.102-5.005,11.053-11.172,11.053c-6.176,0-11.172-4.951-11.172-11.053
		c0-6.107,4.996-11.048,11.172-11.048C157.546,74.599,162.551,79.54,162.551,85.648"/>
	<path fill="#FFFFFF" d="M140.208,85.644c0.01,6.073,4.976,11.024,11.172,11.029c6.181-0.005,11.152-4.956,11.167-11.029
		c-0.015-6.073-4.981-11.019-11.167-11.024C145.184,74.625,140.218,79.571,140.208,85.644 M136.057,85.644
		c0-8.4,6.868-15.16,15.323-15.179c8.44,0.02,15.318,6.774,15.323,15.179c-0.005,8.405-6.878,15.164-15.323,15.184
		C142.926,100.808,136.057,94.049,136.057,85.644"/>
</g>
<rect x="188.469" y="177.669" fill="#2DABE2" width="7.199" height="50.247"/>
<g>
	<path fill="#2DABE2" d="M203.236,191.203h6.547v5.831h0.143c2.016-4.17,6.908-6.695,12.022-6.695c9.502,0,13.746,5.9,13.746,15.767
		v21.81h-6.764v-19.004c0-8.568-1.873-12.743-7.772-13.104c-7.703,0-11.157,6.191-11.157,15.12v16.988h-6.764v-36.713H203.236z"/>
	<path fill="#2DABE2" d="M268.425,209.99c0-7.629-3.523-14.181-10.722-14.181c-6.834,0-10.218,7.417-10.218,13.682
		c0,6.903,3.889,12.956,10.218,12.956C264.037,222.447,268.425,216.829,268.425,209.99 M275.194,226.331
		c0,11.157-5.757,17.561-18.93,17.561c-3.889,0-7.268-0.499-13.173-2.515l0.721-6.26c5.183,2.372,8.276,3.306,13.242,3.306
		c7.125,0,11.37-4.823,11.37-12.595v-3.602h-0.143c-2.876,3.82-7.624,5.692-12.304,5.692c-10.51,0-15.688-8.568-15.688-18.07
		c0-9.428,5.322-19.508,16.405-19.508c6.483,0,10.08,2.377,12.096,6.335h0.143v-5.47h6.261L275.194,226.331L275.194,226.331z"/>
	<path fill="#2DABE2" d="M282.037,191.203h6.335v5.687h0.148c1.799-3.815,5.682-6.552,9.571-6.552c2.011,0,3.019,0.217,4.462,0.504
		v6.048c-1.225-0.504-2.599-0.652-3.74-0.652c-6.048,0-10.006,5.761-10.006,14.977v16.701h-6.769v-36.713H282.037z"/>
	<path fill="#2DABE2" d="M328.749,206.031c0-5.613-3.311-10.218-9.141-10.218c-6.621,0-9.354,5.47-9.858,10.218H328.749z
		 M333.142,226.404c-2.589,0.934-5.539,2.377-11.587,2.377c-13.03,0-19.004-7.921-19.004-19.868
		c0-10.871,6.839-18.574,17.205-18.574c12.234,0,16.192,8.924,16.192,20.733H309.75c0,7.268,5.687,12.239,12.091,12.239
		c4.467,0,9.645-2.308,11.3-3.676v6.769H333.142z"/>
	<path fill="#2DABE2" d="M355.986,223.311c7.629,0,10.796-7.56,10.796-13.682c0-6.834-3.528-13.816-10.871-13.816
		c-7.338,0-10.218,6.913-10.075,13.603C345.694,215.173,348.718,223.311,355.986,223.311 M367.069,222.733h-0.143
		c-1.799,2.732-5.974,6.048-12.521,6.048c-11.088,0-15.762-9.863-15.762-19.868c0-9.863,5.178-18.574,15.831-18.574
		c6.404,0,10.08,2.525,12.165,5.9h0.143V173.93h6.764v53.987h-6.478L367.069,222.733L367.069,222.733z"/>
</g>
<path fill="#2DABE2" d="M380.848,191.202h6.769v36.713h-6.769V191.202z M388.048,183h-7.624v-7.634h7.624V183z"/>
<g>
	<path fill="#2DABE2" d="M418.837,206.031c0-5.613-3.311-10.218-9.136-10.218c-6.626,0-9.359,5.47-9.863,10.218H418.837z
		 M423.229,226.404c-2.594,0.934-5.544,2.377-11.592,2.377c-13.02,0-18.999-7.921-18.999-19.868
		c0-10.871,6.834-18.574,17.205-18.574c12.234,0,16.192,8.924,16.192,20.733h-26.198c0,7.268,5.682,12.239,12.091,12.239
		c4.462,0,9.645-2.308,11.3-3.676v6.769H423.229z"/>
	<path fill="#2DABE2" d="M430.747,191.203h6.552v5.831h0.143c2.016-4.17,6.908-6.695,12.022-6.695c9.497,0,13.746,5.9,13.746,15.767
		v21.81h-6.764v-19.004c0-8.568-1.873-12.743-7.777-13.104c-7.703,0-11.152,6.191-11.152,15.12v16.988h-6.769L430.747,191.203
		L430.747,191.203z"/>
	<path fill="#2DABE2" d="M489.433,196.674h-9.724v20.081c0,4.249,2.594,6.552,5.687,6.552c2.09,0,3.597-0.647,4.605-1.295v5.761
		c-1.507,0.43-3.592,1.008-5.756,1.008c-6.977,0-11.3-3.316-11.3-10.658v-21.45h-8.272v-5.47h8.272v-8.499l6.764-2.154v10.653h9.724
		L489.433,196.674L489.433,196.674z"/>
	<path fill="#2DABE2" d="M491.814,220.717c2.663,1.729,6.478,2.594,8.42,2.594c3.098,0,6.913-1.3,6.913-5.257
		c0-6.695-15.911-6.117-15.911-16.415c0-7.629,5.687-11.3,12.956-11.3c3.167,0,5.757,0.647,8.42,1.443l-0.573,5.9
		c-1.512-0.934-5.544-1.873-7.125-1.873c-3.454,0-6.478,1.443-6.478,4.462c0,7.491,15.906,5.327,15.906,17.062
		c0,7.852-6.26,11.449-12.812,11.449c-3.449,0-6.982-0.361-10.075-2.016L491.814,220.717z"/>
</g>
<polygon fill="#242D63" points="388.626,110.666 385.266,110.666 385.266,109.303 393.533,109.303 393.533,110.666 390.173,110.666 
	390.173,120.109 388.626,120.109 "/>
<polygon fill="#242D63" points="395.09,109.305 397.644,109.305 401.034,118.283 404.359,109.305 406.914,109.305 406.914,120.111 
	405.367,120.111 405.367,110.758 405.333,110.758 401.76,120.111 400.243,120.111 396.666,110.758 396.636,110.758 396.636,120.111 
	395.09,120.111 "/>
</svg>
