<?xml version="1.0" encoding="UTF-8"?>
<svg version="1.2" baseProfile="tiny-ps" id="Layer_1" xmlns="http://www.w3.org/2000/svg" xmlns:xlink="http://www.w3.org/1999/xlink" viewBox="0 0 1305.35 1008.68">
    <title>Your Brand</title>
    <rect x="263.88" y="106.27" width="719.31" height="719.31" fill="#f15a22" />
    <g>
        <g>
            <g>
                <path d="m572.65,465.41c0-4-.13-10.18-6.7-12.63-2.06-.89-3.98-.89-4.64-.89-2.96,0-6.06.77-8.75,2.57-2.96,1.93-4.26,3.87-5.8,6.31-.65-2.58-2.07-8.76-10.43-8.76s-11.98,5.28-14.8,9.27v-8.24h-16.62v2.7h6.05v52.92h-11.2v-55.62h-16.49v2.7h6.05v32.7c-.12,4.89-.51,11.72-4.24,16.48-1.29,1.8-3.09,3.09-5.54,3.09-4.76,0-4.76-4.5-4.76-7.72v-47.26h-16.61v2.7h6.06v41.6c0,5.52.12,14.93,10.95,14.93,9.01,0,12.61-6.05,14.15-8.89v7.99h37.74v-2.71h-5.53v-31.93c.12-5.15.25-11.2,3.6-15.96,1.42-2.06,3.73-4.25,6.69-4.25,4.64,0,4.64,5.27,4.76,9.27v42.88h-5.41v2.71h21.51v-2.71h-5.66v-35.42c0-4.12.13-9.39,3.6-13.64,1.94-2.58,4.39-3.47,6.31-3.47,2.84,0,3.99,2.05,4.13,2.44.64,1.29,1.03,2.97,1.03,7.1v43h-5.41v2.71h22.02v-2.71h-6.06v-43.26h0Z" fill="#fff" />
                <path d="m610.48,490.64c-1.04,5.03-3.73,18.15-12.62,18.15-3.22,0-5.66-2.04-6.97-4.88-2.05-4.38-1.92-12.36-1.8-24.33h25.12c.13-7.1.13-16.88-6.32-23.31-2.57-2.58-5.92-3.99-9.78-3.99-11.85,0-20.49,12.74-20.49,30.76,0,16.22,7.6,28.98,19.45,28.98s14.67-13.13,16.49-20.73l-3.09-.64h0Zm-18.42-32.71c1.29-1.8,3.1-3.09,5.67-3.09,5.67,0,5.92,6.05,6.05,8.5.27,4.63.14,9,.14,13.38h-14.68c.26-11.2.39-15.58,2.83-18.8" fill="#fff" />
                <path d="m447.86,476.34c-2.31-1.27-4.5-2.69-6.83-3.99-3.73-2.32-7.33-4.5-7.33-9.14,0-3.86,3.35-7.85,8.5-7.85,3.35,0,5.66,1.67,7.6,4.37,2.57,3.74,2.95,7.99,3.34,12.24h3.22v-18.93h-2.44l-2.06,3.99c-1.68-2.06-4.12-4.89-9.54-4.89-9.26,0-15.31,8.11-15.31,16.61s5.41,12.11,7.34,13.4c1.93,1.42,10.94,6.69,12.74,7.85,3.36,2.31,5.81,4.89,5.81,9.53,0,4.89-3.09,9.78-8.76,9.78-4.64,0-8.37-2.83-10.83-6.82-2.95-4.76-3.34-9.15-3.72-13.78h-3.1v22.67h2.71l3.09-4.77c2.57,2.83,5.4,5.93,11.58,5.93,9.91,0,15.2-10.05,15.2-19.32,0-10.16-6.44-14.03-11.21-16.88" fill="#fff" />
                <path d="m317.31,509.57c-9.78,0-11.47-12.1-11.97-28.19-.14-4.51-.26-9.16-.26-13.79,0-9.79.39-20.6.9-26.01.64-6.82,2.06-13.01,5.67-16.61,1.54-1.42,3.86-2.84,6.83-2.84,3.34,0,6.05,1.81,8.24,4.77,4.12,5.4,5.4,13.65,6.44,20.47h2.7l-.26-27.04h-2.44l-3.1,5.54c-1.93-2.58-5.01-6.69-11.58-6.69-15.46,0-27.3,21.37-27.3,47.38,0,8.77,1.42,20.86,5.41,29.63,3.08,6.69,9.91,16.48,20.09,16.48,7.33,0,10.69-4.51,12.74-7.22l3.36,5.93h2.7l.78-30.4h-2.83c-2.32,11.46-5.55,28.59-16.1,28.59" fill="#fff" />
                <path d="m419.15,466.18c0-4.52-.14-10.31-5.8-13.01-1.54-.66-3.21-1.04-5.15-1.04-7.85,0-11.46,5.92-13.39,9.02v-8.12h-16.74v2.71h6.18v52.92h-6.18v2.7h22.27v-2.7h-5.54v-32.33c.14-5.02.26-11.45,4-16.35,1.93-2.7,3.99-3.47,5.53-3.47,4.12,0,4.25,4.64,4.25,9.14v43.02h-5.4v2.7h22.02v-2.7h-6.05v-42.49h0Z" fill="#fff" />
                <path d="m641.61,452.01c-6.69,0-9.91,6.31-11.46,9.4v-8.37h-16.61v2.7h6.05v52.92h-6.05v2.71h23.43v-2.71h-6.82v-32.45c0-5.54,0-11.85,4.5-17.51.91-1.17,2.32-2.71,3.61-2.71.9,0,.9.9.9,1.03,0,.65-.9,2.7-1.03,3.22-.12.39-.12.77-.12,1.16,0,3.22,2.31,5.41,5.53,5.41,2.83,0,5.8-2.32,5.8-6.82s-3.09-7.98-7.73-7.98" fill="#fff" />
                <path d="m360.07,451.89c-10.3,0-19.96,12.09-19.96,30.77,0,6.31,1.42,18.54,9.4,25.5,2.83,2.58,5.54,3.59,9.01,3.59s7.86-.76,12.63-6.55c2.95-3.48,4.5-7.09,5.78-11.85,1.04-4.12,1.55-8.38,1.55-12.5,0-19.18-9.41-28.95-18.41-28.95m3.73,54.59c-.64.9-2.07,2.31-4.64,2.31-6.94,0-7.59-8.63-7.59-22.15,0-12.24.13-19.31.77-23.44.77-4.38,2.83-8.37,7.34-8.37,4.76,0,5.94,4.63,6.19,5.92.9,3.48.9,7.6.9,17.64,0,18.55,0,24.21-2.96,28.07" fill="#fff" />
                <path d="m903.78,500.04c-.63,3.74-1.28,7.35-3.35,7.35-1.66,0-1.79-2.19-1.79-3.1-.14-1.67-.14-3.21-.14-4.89v-33.86c0-4.5-.13-9.66-6.44-12.23-2.82-1.04-6.05-1.29-8.23-1.29-11.47,0-17.52,6.56-17.52,12.24,0,4.25,2.58,6.69,5.78,6.69s5.93-2.71,5.93-6.18c0-1.16-.27-2.58-1.41-3.99-.64-.77-1.55-1.55-1.55-2.45,0-1.16,2.69-3.48,7.08-3.48,6.05,0,6.05,5.28,6.05,10.04v11.21c-7.34,1.67-14.8,3.35-20.09,9.27-1.43,1.55-4.5,5.28-4.5,11.85,0,7.35,4.38,14.55,12.61,14.55,5.81,0,8.89-3.09,11.98-8.5.27,1.93.51,4.01,2.19,5.79,1.43,1.54,3.86,2.57,6.7,2.57,7.6,0,8.49-5.91,9.4-11.2l-2.72-.39h.02Zm-15.58-14.42c-.25,8.5-.64,13.01-3.1,17.38-.65,1.03-2.57,4.5-5.66,4.5s-4.11-4.24-4.11-9.91c0-13.78,3.34-16.23,12.87-18.93v6.95h0Z" fill="#fff" />
                <path d="m953.24,456.5c0-1.49-.89-1.72-2.19-1.72h-2.74v5.63h1.27v-2.38h.87l1.25,2.38h1.37l-1.37-2.38c1.01-.07,1.53-.49,1.53-1.53m-2.17.68h-1.49v-1.42h1.21c.55,0,1.28,0,1.28.57,0,.72-.36.85-.99.85" fill="#fff" />
                <path d="m932.99,452.01c-6.69,0-9.91,6.31-11.46,9.4v-8.37h-16.61v2.7h6.05v52.92h-6.05v2.71h23.44v-2.71h-6.84v-32.45c0-5.54,0-11.85,4.51-17.51.9-1.17,2.33-2.71,3.61-2.71.9,0,.9.9.9,1.03,0,.65-.9,2.7-1.04,3.22-.12.39-.12.77-.12,1.16,0,3.22,2.31,5.41,5.53,5.41,2.83,0,5.79-2.32,5.79-6.82s-3.09-7.98-7.72-7.98" fill="#fff" />
                <path d="m950.47,452.23c-3.01,0-5.41,2.42-5.41,5.44s2.4,5.42,5.41,5.42,5.43-2.42,5.43-5.42-2.4-5.44-5.43-5.44m0,9.57c-2.35,0-4.12-1.73-4.12-4.14s1.77-4.15,4.12-4.15,4.14,1.72,4.14,4.15-1.8,4.14-4.14,4.14" fill="#fff" />
                <polygon points="787.95 420.33 771.33 420.33 771.33 423.04 777.38 423.04 777.38 508.67 771.33 508.67 771.33 511.38 794 511.38 794 508.67 787.95 508.67 787.95 420.33" fill="#fff" />
                <polygon points="765.06 420.33 748.44 420.33 748.44 423.04 754.5 423.04 754.5 508.67 748.44 508.67 748.44 511.38 771.11 511.38 771.11 508.67 765.06 508.67 765.06 420.33" fill="#fff" />
                <path d="m745.64,490.64c-1.04,5.03-3.73,18.15-12.62,18.15-3.23,0-5.67-2.04-6.96-4.88-2.05-4.38-1.92-12.36-1.79-24.33h25.11c.13-7.1.13-16.88-6.3-23.31-2.58-2.58-5.94-3.99-9.8-3.99-11.84,0-20.47,12.74-20.47,30.76,0,16.22,7.6,28.98,19.44,28.98s14.68-13.13,16.48-20.73l-3.09-.64h0Zm-18.41-32.71c1.28-1.8,3.09-3.09,5.67-3.09,5.67,0,5.91,6.05,6.05,8.5.26,4.63.13,9,.13,13.38h-14.68c.27-11.2.39-15.58,2.84-18.8" fill="#fff" />
                <path d="m856.69,508.67v-88.34h-16.61v2.71h6.05v85.63h-11.21v-55.62h-16.49v2.7h6.05v32.7c-.12,4.89-.51,11.72-4.25,16.48-1.29,1.8-3.08,3.09-5.54,3.09-4.77,0-4.77-4.5-4.77-7.72v-47.25h-16.61v2.7h6.06v41.6c0,5.52.13,14.93,10.95,14.93,9.01,0,12.6-6.05,14.15-8.89v7.99h38.25v-2.7h-6.05.02Z" fill="#fff" />
                <path d="m691.03,509.57c-9.78,0-11.46-12.1-11.97-28.19-.13-4.51-.26-9.16-.26-13.79,0-9.79.39-20.6.9-26.01.64-6.82,2.06-13.01,5.67-16.61,1.55-1.42,3.86-2.84,6.83-2.84,3.34,0,6.05,1.81,8.24,4.77,4.12,5.4,5.41,13.65,6.44,20.47h2.7l-.26-27.04h-2.44l-3.1,5.54c-1.93-2.58-5.02-6.69-11.59-6.69-15.46,0-27.3,21.37-27.3,47.38,0,8.77,1.42,20.86,5.4,29.63,3.09,6.69,9.93,16.48,20.09,16.48,7.34,0,10.7-4.51,12.75-7.22l3.36,5.93h2.7l.78-30.4h-2.85c-2.31,11.46-5.54,28.59-16.09,28.59" fill="#fff" />
            </g>
        </g>
    </g>
</svg>
