<?xml version="1.0" encoding="iso-8859-1"?>
<!-- Generator: Adobe Illustrator 28.2.0, SVG Export Plug-In . SVG Version: 6.00 Build 0)  -->
<svg version="1.2" baseProfile="tiny-ps" id="Layer_1" xmlns="http://www.w3.org/2000/svg" xmlns:xlink="http://www.w3.org/1999/xlink"
	 width="100px" height="100px" viewBox="0 0 100 100" xml:space="preserve">
	 <title>City Football Group</title>
<g>
	<rect fill="#FFFFFF" width="100" height="100"/>
	<g>
		<rect x="92.3" y="48.406" fill="#00285E" width="0.745" height="8.455"/>
		<rect x="94.253" y="48.406" fill="#00285E" width="0.747" height="8.455"/>
		<path fill="#00285E" d="M52.952,40.267c-4.593,0-8.33-3.737-8.33-8.33c0-4.593,3.737-8.33,8.33-8.33c4.593,0,8.33,3.737,8.33,8.33
			C61.282,36.53,57.545,40.267,52.952,40.267 M52.952,22.042c-5.456,0-9.895,4.439-9.895,9.895s4.439,9.895,9.895,9.895
			c5.456,0,9.895-4.439,9.895-9.895S58.408,22.042,52.952,22.042"/>
		<path fill="#00285E" d="M43.539,47.577h-2.49v-2.026h2.49V47.577z M43.539,56.861h-2.49v-8.25h2.49V56.861z M35.318,54.68
			c1.309,0,2.126-0.643,2.448-1.405h2.778c-0.502,2.421-2.607,3.811-5.342,3.811c-3.412,0-5.887-2.584-5.887-6.145
			c0-3.559,2.475-6.142,5.887-6.142c2.927,0,4.861,1.52,5.342,3.811h-2.778c-0.322-0.762-1.139-1.405-2.448-1.405
			c-2.016,0-3.253,1.532-3.261,3.737C32.065,53.148,33.302,54.68,35.318,54.68 M58.469,48.752c0.006,0.059,0.01,0.119,0.016,0.178
			l-3.149,8.663c-0.652,1.812-1.516,1.817-3.222,1.817h-0.433l-0.739-1.995h1.544c0.588-0.002,0.689-0.353,0.538-0.761
			c-0.16-0.432-2.421-6.536-2.893-7.808v1.493h-2.108v3.956c0,0.652,0.382,0.794,0.973,0.794c0.222,0,0.461-0.032,0.699-0.032v1.804
			c0,0-0.986,0.079-1.48,0.079c-2.309,0-2.68-0.668-2.68-2.909v-3.692h-1.37v-1.728h1.37v-2.588h2.488v2.588h2.108h2.785
			l1.585,5.234h0.032l1.535-5.234h2.386c-0.207-2.181-0.672-4.287-1.371-6.284c-1.279,0.51-2.672,0.794-4.131,0.794
			c-6.167,0-11.184-5.017-11.184-11.184c0-1.836,0.448-3.569,1.235-5.098c-3.412-1.576-7.209-2.46-11.214-2.46
			C16.994,24.379,5,36.373,5,51.168s11.994,26.79,26.789,26.79c14.795,0,26.79-11.994,26.79-26.79
			C58.579,50.354,58.54,49.548,58.469,48.752"/>
		<path fill="#00285E" d="M58.456,48.611h-0.003c0.005,0.047,0.011,0.094,0.016,0.141C58.465,48.705,58.461,48.658,58.456,48.611"/>
		<path fill="#00285E" d="M62.181,51.378v5.483h-0.747v-5.483h-1.041v-0.629h1.041v-0.555c0-0.26,0.019-0.502,0.061-0.723
			c0.04-0.22,0.114-0.409,0.225-0.567c0.109-0.158,0.262-0.28,0.455-0.368c0.194-0.087,0.441-0.131,0.74-0.131
			c0.11,0,0.214,0.005,0.308,0.013c0.095,0.008,0.201,0.019,0.32,0.037v0.639c-0.103-0.016-0.198-0.03-0.286-0.042
			c-0.085-0.012-0.173-0.018-0.26-0.018c-0.206,0-0.363,0.032-0.473,0.096c-0.111,0.063-0.191,0.147-0.241,0.253
			c-0.053,0.107-0.082,0.231-0.09,0.374c-0.007,0.142-0.011,0.296-0.011,0.46v0.533h1.207v0.629L62.181,51.378L62.181,51.378z"/>
		<path fill="#00285E" d="M65.507,51.425c-0.268,0.151-0.492,0.348-0.669,0.593c-0.178,0.246-0.311,0.523-0.403,0.835
			c-0.09,0.313-0.137,0.63-0.137,0.953s0.047,0.641,0.137,0.954c0.092,0.312,0.224,0.589,0.403,0.834
			c0.177,0.245,0.401,0.442,0.669,0.592c0.27,0.15,0.581,0.226,0.934,0.226c0.355,0,0.669-0.076,0.937-0.226
			c0.266-0.15,0.49-0.347,0.669-0.592c0.178-0.245,0.311-0.522,0.4-0.834c0.093-0.313,0.139-0.631,0.139-0.954
			s-0.047-0.641-0.139-0.953c-0.089-0.312-0.222-0.589-0.4-0.835c-0.179-0.245-0.403-0.442-0.669-0.593
			c-0.268-0.148-0.581-0.224-0.937-0.224C66.088,51.2,65.777,51.276,65.507,51.425 M67.68,50.833
			c0.36,0.175,0.661,0.406,0.907,0.699c0.245,0.292,0.43,0.633,0.556,1.024c0.125,0.39,0.188,0.806,0.188,1.249
			s-0.064,0.859-0.188,1.249c-0.126,0.391-0.311,0.732-0.556,1.024c-0.246,0.294-0.547,0.524-0.907,0.694
			c-0.359,0.17-0.773,0.254-1.238,0.254c-0.464,0-0.878-0.084-1.236-0.254c-0.36-0.17-0.662-0.4-0.907-0.694
			c-0.245-0.291-0.43-0.633-0.555-1.024c-0.128-0.39-0.191-0.806-0.191-1.249s0.063-0.859,0.191-1.249
			c0.126-0.391,0.311-0.732,0.555-1.024c0.245-0.293,0.547-0.524,0.907-0.699c0.358-0.174,0.772-0.26,1.236-0.26
			C66.907,50.574,67.32,50.66,67.68,50.833"/>
		<path fill="#00285E" d="M71.853,51.425c-0.267,0.151-0.491,0.348-0.669,0.593c-0.176,0.246-0.311,0.523-0.401,0.835
			c-0.091,0.313-0.136,0.63-0.136,0.953s0.045,0.641,0.136,0.954c0.09,0.312,0.225,0.589,0.401,0.834
			c0.178,0.245,0.401,0.442,0.669,0.592c0.269,0.15,0.581,0.226,0.935,0.226c0.355,0,0.669-0.076,0.938-0.226
			c0.267-0.15,0.49-0.347,0.668-0.592c0.178-0.245,0.311-0.522,0.402-0.834c0.09-0.313,0.137-0.631,0.137-0.954
			s-0.047-0.641-0.137-0.953c-0.091-0.312-0.224-0.589-0.402-0.835c-0.179-0.245-0.401-0.442-0.668-0.593
			c-0.269-0.148-0.582-0.224-0.938-0.224C72.433,51.2,72.122,51.276,71.853,51.425 M74.026,50.833
			c0.359,0.175,0.662,0.406,0.907,0.699c0.243,0.292,0.43,0.633,0.556,1.024c0.126,0.39,0.19,0.806,0.19,1.249
			s-0.064,0.859-0.19,1.249c-0.126,0.391-0.313,0.732-0.556,1.024c-0.245,0.294-0.547,0.524-0.907,0.694
			c-0.359,0.17-0.772,0.254-1.238,0.254c-0.465,0-0.878-0.084-1.236-0.254c-0.359-0.17-0.661-0.4-0.905-0.694
			c-0.246-0.291-0.43-0.633-0.557-1.024c-0.127-0.39-0.189-0.806-0.189-1.249s0.062-0.859,0.189-1.249
			c0.127-0.391,0.312-0.732,0.557-1.024c0.244-0.293,0.546-0.524,0.905-0.699c0.358-0.174,0.771-0.26,1.236-0.26
			C73.254,50.574,73.667,50.66,74.026,50.833"/>
		<path fill="#00285E" d="M78.981,50.75v0.629h-1.243v4.119c0,0.246,0.032,0.437,0.1,0.575c0.068,0.138,0.234,0.216,0.502,0.231
			c0.214,0,0.427-0.012,0.64-0.035v0.627c-0.11,0-0.222,0.005-0.332,0.013c-0.11,0.008-0.22,0.012-0.331,0.012
			c-0.497,0-0.843-0.097-1.041-0.291c-0.199-0.193-0.293-0.551-0.284-1.071v-4.179h-1.067V50.75h1.067v-1.834h0.746v1.834
			L78.981,50.75L78.981,50.75z"/>
		<path fill="#00285E" d="M84.599,52.864c-0.076-0.312-0.193-0.591-0.356-0.835c-0.162-0.245-0.369-0.444-0.62-0.598
			c-0.253-0.154-0.557-0.231-0.912-0.231c-0.394,0-0.73,0.077-1,0.231c-0.272,0.154-0.494,0.353-0.663,0.598
			c-0.169,0.245-0.292,0.524-0.368,0.835c-0.075,0.312-0.112,0.626-0.112,0.941c0,0.315,0.037,0.629,0.112,0.94
			c0.076,0.313,0.198,0.591,0.368,0.835c0.169,0.245,0.391,0.445,0.663,0.598c0.271,0.155,0.606,0.232,1,0.232
			c0.355,0,0.659-0.077,0.912-0.232c0.251-0.152,0.459-0.353,0.62-0.598c0.162-0.244,0.279-0.522,0.356-0.835
			c0.074-0.312,0.113-0.626,0.113-0.94C84.712,53.49,84.673,53.176,84.599,52.864 M80.567,48.406v3.506h0.025
			c0.078-0.222,0.19-0.416,0.337-0.581c0.145-0.166,0.312-0.306,0.502-0.421c0.189-0.116,0.396-0.199,0.617-0.255
			c0.222-0.055,0.442-0.083,0.663-0.083c0.466,0,0.87,0.087,1.213,0.26c0.343,0.174,0.629,0.409,0.858,0.704
			c0.229,0.296,0.398,0.639,0.51,1.03c0.109,0.39,0.166,0.803,0.166,1.238c0,0.434-0.056,0.847-0.166,1.237
			c-0.112,0.392-0.282,0.734-0.51,1.03c-0.229,0.296-0.515,0.529-0.858,0.699c-0.344,0.17-0.747,0.254-1.213,0.254
			c-0.497,0-0.941-0.114-1.333-0.344c-0.391-0.229-0.674-0.556-0.847-0.983h-0.023v1.162h-0.687v-8.455L80.567,48.406L80.567,48.406
			z"/>
		<path fill="#00285E" d="M90.264,53.521c-0.048,0.087-0.138,0.15-0.272,0.189c-0.133,0.039-0.253,0.067-0.354,0.082
			c-0.316,0.056-0.641,0.106-0.979,0.15c-0.336,0.043-0.641,0.109-0.916,0.195c-0.277,0.087-0.504,0.212-0.682,0.373
			c-0.176,0.162-0.265,0.394-0.265,0.692c0,0.191,0.037,0.357,0.112,0.504c0.076,0.146,0.176,0.272,0.3,0.379
			c0.128,0.106,0.274,0.188,0.44,0.243c0.167,0.055,0.335,0.083,0.509,0.083c0.284,0,0.556-0.044,0.816-0.131
			c0.26-0.087,0.486-0.213,0.681-0.379c0.193-0.166,0.347-0.366,0.462-0.604c0.114-0.237,0.171-0.505,0.171-0.805v-0.971
			L90.264,53.521L90.264,53.521z M86.534,51.698c0.127-0.261,0.298-0.473,0.515-0.64c0.217-0.165,0.471-0.287,0.765-0.366
			c0.291-0.08,0.615-0.119,0.971-0.119c0.267,0,0.536,0.026,0.804,0.077c0.269,0.051,0.509,0.148,0.722,0.29
			c0.213,0.142,0.387,0.341,0.521,0.598c0.134,0.257,0.2,0.591,0.2,1v3.245c0,0.3,0.147,0.451,0.44,0.451
			c0.087,0,0.166-0.017,0.236-0.048v0.627c-0.086,0.016-0.164,0.028-0.231,0.036c-0.067,0.008-0.152,0.013-0.254,0.013
			c-0.191,0-0.34-0.028-0.456-0.078c-0.116-0.051-0.203-0.125-0.266-0.219c-0.064-0.094-0.104-0.208-0.125-0.337
			c-0.019-0.131-0.03-0.274-0.03-0.432h-0.024c-0.134,0.198-0.27,0.374-0.408,0.526c-0.139,0.155-0.291,0.284-0.461,0.385
			c-0.169,0.102-0.363,0.181-0.581,0.236c-0.217,0.056-0.475,0.083-0.775,0.083c-0.283,0-0.551-0.034-0.797-0.102
			c-0.251-0.066-0.468-0.173-0.653-0.319c-0.185-0.146-0.332-0.331-0.438-0.557c-0.106-0.225-0.159-0.491-0.159-0.798
			c0-0.426,0.094-0.761,0.284-1.001c0.191-0.24,0.44-0.423,0.752-0.55c0.313-0.126,0.663-0.215,1.054-0.266
			c0.392-0.051,0.787-0.101,1.19-0.15c0.157-0.015,0.296-0.035,0.414-0.059c0.119-0.023,0.217-0.064,0.296-0.124
			c0.079-0.059,0.14-0.14,0.183-0.242c0.044-0.103,0.065-0.239,0.065-0.403c0-0.252-0.041-0.459-0.123-0.622
			c-0.085-0.161-0.199-0.289-0.344-0.384c-0.147-0.094-0.317-0.159-0.509-0.195c-0.194-0.035-0.401-0.053-0.622-0.053
			c-0.473,0-0.859,0.113-1.16,0.337c-0.3,0.226-0.459,0.586-0.473,1.082H86.31C86.332,52.267,86.407,51.958,86.534,51.698"/>
	</g>
</g>
</svg>
