<?xml version="1.0" encoding="utf-8"?>
<!-- Generator: Adobe Illustrator 26.4.1, SVG Export Plug-In . SVG Version: 6.00 Build 0)  -->
<svg version="1.2" baseProfile="tiny-ps" id="Layer_1" xmlns="http://www.w3.org/2000/svg" xmlns:xlink="http://www.w3.org/1999/xlink"
	 viewBox="0 0 70 70" xml:space="preserve">
	 <title>CenturyLink</title>
<g>
	<g>
		<g>
			<path fill="#272425" d="M18.3,47c1.3,1.9,3,3.6,4.9,4.9l6.7-11.6L18.3,47"/>
			<path fill="#272425" d="M23.2,18.7c-1.9,1.3-3.6,3-4.9,4.9l11.6,6.7L23.2,18.7"/>
			<path fill="#272425" d="M43.4,16.8c-2.1-1-4.3-1.6-6.7-1.8v13.4L43.4,16.8"/>
			<path fill="#272425" d="M26.4,53.7c2.1,1,4.3,1.6,6.7,1.8V42.1L26.4,53.7"/>
			<path fill="#272425" d="M51.5,23.6c-1.3-1.9-3-3.6-4.9-4.9l-6.7,11.6L51.5,23.6"/>
			<path fill="#272425" d="M46.6,51.9c1.9-1.3,3.6-3,4.9-4.9l-11.6-6.7L46.6,51.9"/>
		</g>
		<g>
			<path fill="#272425" d="M55.1,33.4c-0.2-2.4-0.8-4.6-1.8-6.7l-11.6,6.7H55.1"/>
			<path fill="#272425" d="M14.7,37.1c0.2,2.4,0.8,4.6,1.8,6.7l11.6-6.7H14.7"/>
			<path fill="#272425" d="M16.4,26.7c-1,2.1-1.6,4.3-1.8,6.7h13.4L16.4,26.7"/>
			<path fill="#272425" d="M41.7,37.1l11.6,6.7c1-2.1,1.6-4.3,1.8-6.7H41.7"/>
			<path fill="#272425" d="M33.1,15c-2.4,0.2-4.6,0.8-6.7,1.8l6.7,11.6V15"/>
			<path fill="#272425" d="M36.7,55.5c2.4-0.2,4.6-0.8,6.7-1.8l-6.7-11.6V55.5"/>
		</g>
	</g>
	<g>
		<path fill="#272425" d="M50.2,17.5c0-1.3,1.1-2.4,2.5-2.4c1.3,0,2.4,1.1,2.4,2.4c0,1.4-1.1,2.5-2.4,2.5
			C51.3,19.9,50.2,18.8,50.2,17.5z M54.7,17.5c0-1.2-0.9-2-2.1-2c-1.2,0-2.1,0.9-2.1,2c0,1.2,0.9,2.1,2.1,2.1
			C53.9,19.5,54.7,18.7,54.7,17.5z M52.1,18.9h-0.4v-2.8H53c0.7,0,1,0.3,1,0.8c0,0.5-0.4,0.7-0.9,0.8l0.8,1.2h-0.4l-0.8-1.2h-0.6
			V18.9z M52.6,17.3c0.4,0,0.9,0.1,0.9-0.5c0-0.4-0.3-0.4-0.7-0.4h-0.8v0.9H52.6z"/>
	</g>
</g>
</svg>
