<?xml version="1.0" encoding="utf-8"?>
<!-- Generator: Adobe Illustrator 26.4.1, SVG Export Plug-In . SVG Version: 6.00 Build 0)  -->
<svg version="1.2" baseProfile="tiny-ps" id="Layer_1" xmlns="http://www.w3.org/2000/svg" xmlns:xlink="http://www.w3.org/1999/xlink"
	 viewBox="0 0 70 70" xml:space="preserve">
	 <title>Quantum Fiber</title>
<g>
	<g>
		<g>
			<g>
				<path fill="#38C6F4" d="M45.9,50.6c-2.3,2.1-4.8,3.8-7.5,5.2c2.5,2.1,4.6,4.8,6,7.8l8.2-4.5C50.8,55.9,48.5,53.1,45.9,50.6z"/>
			</g>
			<path fill="#7B8EE1" d="M38.3,45.5c-3,2.6-6.7,4.4-10.6,5.1v0.1c3.8,0.7,7.5,2.6,10.6,5.1c2.7-1.4,5.3-3.1,7.5-5.2
				C43.6,48.6,41.1,46.8,38.3,45.5z"/>
			<path fill="#503296" d="M33.3,7.7c-12.3,0-22.2,9.9-22.2,22.2c0,11.7,8.7,18,14.7,18c4.4,0,7.8-1.7,9.2-4.3
				c-5.1,0-14.4-4.9-14.4-13.7c0-7,5.7-12.7,12.7-12.7c7,0,12.7,5.7,12.7,12.7c0,6.2-3.1,11.7-7.7,15.6c2.7,1.4,5.3,3.1,7.5,5.2
				c5.8-5.3,9.7-12.6,9.7-20.7C55.5,17.6,45.6,7.7,33.3,7.7z"/>
		</g>
	</g>
	<g>
		<path fill="#503296" d="M54.3,57.8c-0.2,0-0.4-0.1-0.6-0.2c-0.2-0.1-0.3-0.3-0.5-0.5C53,57,53,56.8,53,56.6c0-0.2,0.1-0.5,0.2-0.6
			c0.1-0.2,0.3-0.3,0.5-0.5c0.2-0.1,0.4-0.2,0.6-0.2c0.2,0,0.5,0.1,0.6,0.2c0.2,0.1,0.3,0.3,0.5,0.5c0.1,0.2,0.2,0.4,0.2,0.6
			c0,0.2-0.1,0.4-0.2,0.6c-0.1,0.2-0.3,0.3-0.5,0.5C54.7,57.8,54.5,57.8,54.3,57.8z M54.3,57.5c0.2,0,0.3,0,0.5-0.1
			c0.1-0.1,0.3-0.2,0.3-0.4c0.1-0.1,0.1-0.3,0.1-0.5c0-0.2,0-0.4-0.1-0.5c-0.1-0.1-0.2-0.3-0.3-0.3c-0.1-0.1-0.3-0.1-0.5-0.1
			c-0.2,0-0.3,0-0.5,0.1c-0.1,0.1-0.3,0.2-0.3,0.3c-0.1,0.1-0.1,0.3-0.1,0.5c0,0.2,0,0.4,0.1,0.5c0.1,0.1,0.2,0.3,0.3,0.4
			C53.9,57.5,54.1,57.5,54.3,57.5z M53.8,57.1v-1.2h0.4c0.2,0,0.3,0,0.4,0.1c0.1,0.1,0.1,0.2,0.1,0.3c0,0.2-0.1,0.3-0.2,0.4l0.3,0.4
			h-0.3l-0.2-0.4h-0.2v0.4H53.8z M54.2,56.2h-0.1v0.3h0.1c0.1,0,0.2-0.1,0.2-0.2C54.4,56.2,54.4,56.2,54.2,56.2z"/>
	</g>
</g>
</svg>
