<?xml version="1.0" encoding="UTF-8"?><svg xmlns:inkscape="http://www.inkscape.org/namespaces/inkscape" xmlns:sodipodi="http://sodipodi.sourceforge.net/DTD/sodipodi-0.dtd" xmlns="http://www.w3.org/2000/svg" xmlns:svg="http://www.w3.org/2000/svg" width="1024" height="1024" viewBox="0 0 1024 1024" fill="none" version="1.2" baseProfile="tiny-ps"><title>Proton AG</title><g id="g172"><path d="M1024.00 0H0V1024.00H1024.00V0Z" fill="#6D4AFF" id="path166"></path><path d="m 348.98323,635.50864 v 128.18 h 89.97 v -122.64 c 0,-11.93 4.74,-23.37 13.18,-31.81 8.44,-8.44 19.88,-13.18 31.81,-13.18 h 92.25 c 43.04,-0.01 84.31,-17.12 114.73,-47.55 30.43,-30.43 47.52,-71.71 47.53,-114.74 0,-43.04 -17.1,-84.32 -47.53,-114.76 -30.43,-30.44 -71.71,-47.54 -114.75,-47.55 h -227.19 v 160.23 h 89.97 v -75.54 h 131.15 c 20.36,0 39.89,8.09 54.3,22.48 14.4,14.4 22.49,33.92 22.5,54.29 0,20.37 -8.09,39.9 -22.49,54.3 -14.4,14.4 -33.94,22.49 -54.3,22.49 h -95.35 c -16.52,0 -32.88,3.24 -48.15,9.56 -15.26,6.32 -29.13,15.59 -40.82,27.27 -11.68,11.68 -20.95,25.55 -27.26,40.82 -6.32,15.26 -9.56,31.63 -9.55,48.15 z" fill="#ffffff" id="path168"></path><path d="m 483.92323,596.06864 c -35.79,0 -70.11,14.22 -95.41,39.52 -25.3,25.3 -39.52,59.62 -39.53,95.41 v 32.69 h 89.97 v -122.64 c 0,-11.93 4.74,-23.36 13.17,-31.8 8.43,-8.44 19.87,-13.18 31.8,-13.18 z" fill="url(#paint0_linear_7397_163048)" id="path170"></path></g><defs id="defs182"><linearGradient id="paint0_linear_7397_163048" x1="394.76" y1="739.45" x2="394.76" y2="551.09" gradientUnits="userSpaceOnUse"><stop stop-color="white" id="stop174"></stop><stop offset="1" stop-color="#1C0554" id="stop176"></stop></linearGradient></defs></svg>