<?xml version="1.0" encoding="utf-8"?>
<!-- Generator: Adobe Illustrator 27.1.1, SVG Export Plug-In . SVG Version: 6.00 Build 0)  -->
<svg version="1.2" baseProfile="tiny-ps" id="Layer_1" xmlns="http://www.w3.org/2000/svg" xmlns:xlink="http://www.w3.org/1999/xlink"
	 viewBox="0 0 64 64" xml:space="preserve">
	 <title>Zalando SE</title>
<path fill="#FF6900" d="M45.7,28.6c-2.2-2.8-5.4-5.5-9.5-8h0c-4.1-2.4-8-3.8-11.5-4.4c-2.2-0.4-3.2,0.1-3.7,0.3
	c-0.5,0.3-1.4,1-2.2,3.1c-1.3,3.4-2,7.6-2,12.4v0c0,4.9,0.8,9,2,12.4c0.8,2.1,1.7,2.8,2.2,3.1c0.5,0.3,1.5,0.7,3.7,0.3
	c3.5-0.6,7.4-2,11.5-4.4h0c4.1-2.5,7.3-5.2,9.5-8c1.4-1.7,1.6-2.9,1.6-3.5C47.3,31.4,47.1,30.3,45.7,28.6z"/>
</svg>
