<?xml version="1.0" encoding="utf-8" standalone="yes"?><!-- Generator: Adobe Illustrator 27.5.0, SVG Export Plug-In . SVG Version: 6.00 Build 0)  --><svg xmlns="http://www.w3.org/2000/svg" xmlns:xlink="http://www.w3.org/1999/xlink" version="1.2" baseProfile="tiny-ps" viewBox="0 0 500 500" xml:space="preserve"><title>TalpaNetworkBIMI</title><rect fill="#FFFFFF" width="500" height="500"></rect><g><ellipse fill="none" cx="375.46" cy="282.53" rx="11.09" ry="11.62"></ellipse><path fill="none" d="M350.21,195.8c-6.05,0-11.08,5.02-11.08,11.62c0,6.6,5.03,11.62,11.08,11.62c6.08,0,10.66-4.9,10.66-11.62   C360.86,200.7,356.28,195.8,350.21,195.8z"></path><path fill="none" d="M307.07,219.03c6.05,0,11.09-5.01,11.09-11.62c0-6.6-5.03-11.62-11.09-11.62c-6.07,0-10.66,4.9-10.66,11.62   S301,219.03,307.07,219.03z"></path><path fill="none" d="M255.87,270.91c-5.18,0-9.52,3.67-10.67,8.87h20.14C264.62,274.56,261.04,270.91,255.87,270.91z"></path><path fill="none" d="M239.96,195.8c-6.05,0-11.08,5.02-11.08,11.62c0,6.6,5.03,11.62,11.08,11.62c6.08,0,10.66-4.9,10.66-11.62   C250.62,200.7,246.04,195.8,239.96,195.8z"></path><path d="M276.61,221.27v-39.94c0-1.73-1.4-3.12-3.12-3.12c-1.73,0-3.13,1.4-3.13,3.12v39.94c0,1.72,1.4,3.12,3.13,3.12   C275.21,224.4,276.61,223,276.61,221.27z"></path><path d="M202.6,178.21c-1.79-0.08-3.27,1.35-3.27,3.12v39.84c0,1.69,1.3,3.15,2.99,3.22c1.79,0.08,3.27-1.35,3.27-3.12v-24.73h9.25   c1.7,0,3.07-1.42,3-3.14c-0.07-1.62-1.47-2.87-3.09-2.87h-9.16v-9.1C205.58,179.74,204.28,178.29,202.6,178.21z"></path><path d="M253.75,190.44c-1.73,0-3.12,1.4-3.12,3.12v0.98c-2.91-3.04-6.81-4.74-11.12-4.74c-9.86,0-16.88,8.24-16.88,17.61   c0,9.37,7.02,17.61,16.88,17.61c4.31,0,8.21-1.69,11.12-4.74v0.98c0,1.73,1.4,3.12,3.12,3.12c1.73,0,3.12-1.4,3.12-3.12v-27.71   C256.87,191.83,255.47,190.44,253.75,190.44z M239.96,219.03c-6.05,0-11.08-5.01-11.08-11.62c0-6.6,5.03-11.62,11.08-11.62   c6.08,0,10.66,4.9,10.66,11.62C250.62,214.13,246.04,219.03,239.96,219.03z"></path><path d="M363.99,190.44c-1.73,0-3.12,1.4-3.12,3.12v0.98c-2.91-3.04-6.81-4.74-11.12-4.74c-9.86,0-16.88,8.24-16.88,17.61   c0,9.37,7.02,17.61,16.88,17.61c4.31,0,8.21-1.69,11.12-4.74v0.98c0,1.73,1.4,3.12,3.12,3.12c1.73,0,3.12-1.4,3.12-3.12v-27.71   C367.11,191.83,365.72,190.44,363.99,190.44z M350.21,219.03c-6.05,0-11.08-5.01-11.08-11.62c0-6.6,5.03-11.62,11.08-11.62   c6.08,0,10.66,4.9,10.66,11.62C360.86,214.13,356.28,219.03,350.21,219.03z"></path><path d="M293.29,190.43c-1.73,0-3.13,1.4-3.13,3.13v40.74c0,1.72,1.4,3.12,3.13,3.12c1.72,0,3.12-1.4,3.12-3.12v-14.01   c2.91,3.04,6.81,4.74,11.12,4.74c9.86,0,16.88-8.24,16.88-17.61c0-9.37-7.02-17.61-16.88-17.61c-4.31,0-8.21,1.69-11.12,4.74v-0.98   C296.42,191.83,295.02,190.43,293.29,190.43z M307.07,195.8c6.05,0,11.09,5.02,11.09,11.62c0,6.6-5.03,11.62-11.09,11.62   c-6.07,0-10.66-4.9-10.66-11.62S301,195.8,307.07,195.8z"></path><path d="M284.51,253.32c-1.79-0.08-3.27,1.35-3.27,3.12v39.84c0,1.69,1.3,3.15,2.99,3.22c1.79,0.08,3.27-1.35,3.27-3.12v-24.73   h7.38c1.7,0,3.07-1.42,3-3.14c-0.07-1.62-1.47-2.87-3.09-2.87h-7.28v-9.1C287.49,254.85,286.19,253.4,284.51,253.32z"></path><path d="M358.11,282.53c0,9.37,7.49,17.61,17.35,17.61c9.86,0,17.35-8.24,17.35-17.61c0-9.37-7.49-17.61-17.35-17.61   C365.6,264.92,358.11,273.16,358.11,282.53z M375.46,270.91c6.05,0,11.09,5.02,11.09,11.62c0,6.6-5.04,11.62-11.09,11.62   c-6.05,0-11.09-5.02-11.09-11.62C364.37,275.93,369.41,270.91,375.46,270.91z"></path><path d="M255.87,264.92c-9.86,0-17.22,8.24-17.22,17.61c0,9.37,7.36,17.61,17.22,17.61c4.57,0,9.26-1.37,12.35-4.18   c1.2-1.08,1.29-2.92,0.22-4.11c-1.07-1.19-2.79-1.04-4.1-0.09c-2.26,1.67-5.56,2.4-8.47,2.4c-5.09,0-9.38-3.55-10.61-8.62h23.51   c1.66,0,3-1.34,3-3C271.77,273.16,265.73,264.92,255.87,264.92z M245.2,279.78c1.15-5.19,5.49-8.87,10.67-8.87   c5.18,0,8.75,3.65,9.47,8.87H245.2z"></path><path d="M445.66,281.73l9.43-11.14c1.09-1.29,0.93-3.22-0.36-4.32c-1.29-1.09-3.22-0.93-4.32,0.36l-10.23,12.09h-5.6v-22.27   c0-1.73-1.4-3.13-3.13-3.13c-1.72,0-3.12,1.4-3.12,3.13v39.94c0,1.73,1.4,3.13,3.12,3.13c1.73,0,3.13-1.4,3.13-3.13v-11.66h5.55   l10.85,13.63c1.06,1.34,3.01,1.56,4.35,0.49c1.34-1.06,1.56-3.01,0.49-4.35L445.66,281.73z"></path><path d="M60.82,214.57c9.56,0,17.32-7.75,17.32-17.32c0-9.56-7.75-17.32-17.32-17.32c-9.56,0-17.31,7.75-17.31,17.32   C43.5,206.82,51.26,214.57,60.82,214.57z"></path><path d="M104.1,214.57c9.56,0,17.32-7.75,17.32-17.32c0-9.56-7.75-17.32-17.32-17.32c-9.56,0-17.31,7.75-17.31,17.32   C86.79,206.82,94.54,214.57,104.1,214.57z"></path><path d="M147.38,214.57c9.56,0,17.32-7.75,17.32-17.32c0-9.56-7.75-17.32-17.32-17.32c-9.56,0-17.31,7.75-17.31,17.32   C130.07,206.82,137.82,214.57,147.38,214.57z"></path><path d="M60.82,257.86c9.56,0,17.32-7.75,17.32-17.32c0-9.56-7.75-17.32-17.32-17.32c-9.56,0-17.31,7.75-17.31,17.32   C43.5,250.1,51.26,257.86,60.82,257.86z"></path><path d="M104.1,257.86c9.56,0,17.32-7.75,17.32-17.32c0-9.56-7.75-17.32-17.32-17.32c-9.56,0-17.31,7.75-17.31,17.32   C86.79,250.1,94.54,257.86,104.1,257.86z"></path><path d="M147.38,257.86c9.56,0,17.32-7.75,17.32-17.32c0-9.56-7.75-17.32-17.32-17.32c-9.56,0-17.31,7.75-17.31,17.32   C130.07,250.1,137.82,257.86,147.38,257.86z"></path><path d="M60.82,301.14c9.56,0,17.32-7.75,17.32-17.32s-7.75-17.32-17.32-17.32c-9.56,0-17.31,7.75-17.31,17.32   S51.26,301.14,60.82,301.14z"></path><path d="M104.1,301.14c9.56,0,17.32-7.75,17.32-17.32s-7.75-17.32-17.32-17.32c-9.56,0-17.31,7.75-17.31,17.32   S94.54,301.14,104.1,301.14z"></path><path d="M147.38,301.14c9.56,0,17.32-7.75,17.32-17.32s-7.75-17.32-17.32-17.32c-9.56,0-17.31,7.75-17.31,17.32   S137.82,301.14,147.38,301.14z"></path><path d="M104.1,344.42c9.56,0,17.32-7.75,17.32-17.32c0-9.56-7.75-17.32-17.32-17.32c-9.56,0-17.31,7.75-17.31,17.32   C86.79,336.67,94.54,344.42,104.1,344.42z"></path><path d="M199.33,279.86v16.53c0,1.73,1.4,3.12,3.12,3.12c1.73,0,3.13-1.4,3.13-3.12v-16.13c0-5.67,4.25-9.34,9.33-9.34   c4.99,0,9.19,3.67,9.19,9.34v16.13c0,1.73,1.4,3.12,3.13,3.12c1.72,0,3.12-1.4,3.12-3.12v-16.53c0-9.1-6.79-14.94-15.45-14.94   C206.17,264.92,199.33,270.76,199.33,279.86z"></path><path d="M328.32,265.55c-3.08,0-3.8,1.55-4.56,3.9l-6.87,21.34l-7.57-23.14c-0.56-1.63-2.33-2.51-3.97-1.95s-2.5,2.34-1.95,3.97   l8.69,25.41c0.74,2.31,2.12,4.42,4.74,4.42c2.62,0,3.98-2.06,4.73-4.42l6.76-20.87l6.76,20.87c0.75,2.36,2.11,4.42,4.73,4.42   c2.62,0,3.98-2.06,4.74-4.42l8.69-25.41c0.56-1.63-0.31-3.41-1.95-3.97s-3.41,0.31-3.97,1.95l-7.57,23.14l-6.87-21.34   C332.12,267.09,331.4,265.55,328.32,265.55z"></path><path d="M407.42,296.38v-18.74c0-3.32,2.69-5.99,6.01-5.99h5.05c1.66,0,3-1.34,3-3s-1.34-3-3-3h-5.29   c-6.64,0-12.02,5.38-12.02,12.02v18.72c0,1.73,1.4,3.13,3.12,3.13C406.02,299.51,407.42,298.11,407.42,296.38z"></path></g></svg>