<?xml version="1.0" encoding="UTF-8" standalone="yes"?>
<svg baseProfile="tiny-ps" version="1.2" viewBox="0 0 512 512" xmlns="http://www.w3.org/2000/svg">
  <title>HawaiiGuide</title>
  <g id="Layer_1">
    <rect x="1.9" y="2.3" width="508.7" height="508.7" rx="102" ry="102" fill="#518b54"/>
    <rect x="-117.4" y="-116.8" width="751.8" height="751.8" rx="102" ry="102" fill="#518b54"/>
    <g id="Layer_6">
      <rect x="-122.4" y="-116.8" width="756.9" height="751.8" rx="102" ry="102" fill="#2e538d"/>
    </g>
  </g>
  <g id="Layer_5">
    <path d="M417.6,163.5c-.4,1-1,1.8-1.8,2.5-.8.7-1.7,1.1-2.7,1.1-1.1,0-2.2,0-3.4-.4-1.1-.4-2.2-.9-3.2-1.5-1-.6-1.9-1.4-2.7-2.3-.8-.9-1.4-1.9-1.8-2.9-.4-1-.5-2.1-.4-3.3.6-6.2,8.4-11.8,13.8-12.4,1.7-.3,1.3,1.5.9,1.9-4.5,3.9-4.3,4.6-2.5,5.8,3.7,2.5,5.7,7.5,3.8,11.7Z" fill="#fff" fill-rule="evenodd"/>
    <path d="M361.7,232.2c-6.6-7.1-7.1-17.8-5.6-28.5.6-3.1,1.2-6.3,1.8-9.5,3.6-17.8-6-27.5-18.3-28.8-12-1.2-26.7,5.5-34.3,20.5-2.5,5-4.2,10.4-5,16.1-.8,5.7-.5,11.4.8,16.9.6,2.5,1.6,4.8,2.9,6.8,1.3,2,2.9,3.6,4.7,5,10.6,7.7,20.9.8,27.8-8.1,2.8,11.2,12.9,15.4,21,16.8,5.7,1,8.5-2.5,4.2-7.2ZM337.1,193c-.3,1.3-.5,2.1-.6,2.4-.9,3.6-1.9,6.7-3.1,9.5-1.1,2.8-2.3,5-3.5,6.7-1.2,1.7-2.6,2.8-4,3.4-1.5.6-3,.4-4.7-.4-1-.4-1.7-1.3-2.1-2.7-.4-1.4-.5-3.1-.4-4.9.1-1.8.4-3.7.9-5.7.5-2,1.2-3.7,2.1-5.3.7-1.3,1.6-2.7,2.6-4.1,1-1.4,2.2-2.7,3.4-3.8,8.6-7.5,11.7-5.1,9.2,5Z" fill="#fff" fill-rule="evenodd"/>
    <path d="M238.6,184.4c2.5-15.5,5.9-20.2,12-20.3,6.8-.2,8.5,6.8,7.5,21.2-.6,8.1-1.5,16-2,23.4-.8,14,7.2,17.3,12.7,2.2,3.6-9.7,4.5-23.8,5-30.6,1.5-21.8,23.3-21.4,22.1,1.5-.7,13.3-1.9,21.5-6.2,31.9-1.4,3.5-3.2,6.7-5.3,9.8-1.7,2.5-3.7,4.8-6,6.9-2.2,2-4.8,3.8-7.8,5.2-1.8,1.1-4.2,1.8-7,2.1-3.9.7-7.5.1-10.9-1.8-3.4-1.9-6.4-4.9-9.1-8.9-.5-.8-1-1.7-1.4-2.5-.4-.9-.9-1.9-1.4-3-1.3,1.2-2.5,2.5-3.6,3.9-1.1,1.4-2.2,2.7-3.3,4-1.1,1.3-2.3,2.5-3.6,3.7-1.3,1.2-2.7,2.1-4.4,2.8-2.7,1.3-5.6,1.4-8.7.2-3.1-1.2-5.6-3.5-7.6-6.9-2.5-4-4-8.5-4.5-13.7-.5-5.2-.2-10.4.7-15.7.6-3.4.9-6.6,1.3-9.5,1.8-13.5-2.5-19.4-5.4-22.8-1.4-1.7-4.2-5.4.1-5.7,20.5-1.5,25.1,10.7,24.5,23.4-.3,6.6-6.6,34.3-.2,35.2,7.4,1,11.2-28.9,12.3-35.9Z" fill="#fff" fill-rule="evenodd"/>
    <path d="M202.5,232.2c-6.6-7.1-7.1-17.8-5.6-28.5.6-3.1,1.2-6.3,1.8-9.5,5.8-29.3-24.7-36.4-42.5-21.1-4.2,3.6-7.6,7.9-10.2,12.9-2.5,5-4.2,10.4-5,16.1-.8,5.7-.5,11.4.8,16.9.6,2.5,1.6,4.8,2.9,6.8,1.3,2,2.9,3.6,4.7,5,10.6,7.7,20.9.8,27.8-8.1,2.8,11.2,12.9,15.4,21,16.8,5.7,1,8.5-2.5,4.2-7.2ZM177.9,193c-.3,1.3-.5,2.1-.6,2.4-.9,3.6-1.9,6.7-3.1,9.5-1.1,2.8-2.3,5-3.5,6.7-1.2,1.7-2.6,2.8-4,3.4-1.5.6-3,.4-4.7-.4-1-.4-1.7-1.3-2.1-2.7-.4-1.4-.5-3.1-.4-4.9.1-1.8.4-3.7.9-5.7.5-2,1.2-3.7,2.1-5.3.7-1.3,1.6-2.7,2.6-4.1,1-1.4,2.2-2.7,3.4-3.8,8.6-7.5,11.7-5.1,9.2,5Z" fill="#fff" fill-rule="evenodd"/>
    <path d="M377.3,164.7h10.2c1.1,0,1.7.6,2,1.6l.5,2h3.9c3.1,0,3.5,2.7,2.1,4.9-2.8,4.2-4.4,7.3-5.7,13.5-1.5,7.5-2.9,14.9-4.3,22.4-1.4,7.4-2.7,14.2-2.2,22.1.4,7.4-5.4,8.3-9.6,3.8-9.5-9.5-9.8-20.1-8.2-30.7l2.1-14.1c1.2-8.1,1.2-10.8-.7-16-1.3-3.5-1.1-5.9,2.6-5.9h3.6s1.4-2.4,1.4-2.4c.4-.7,1.4-1.2,2.3-1.2Z" fill="#fff" fill-rule="evenodd"/>
    <path d="M430.5,164.7h10.2c1.1,0,1.7.6,2,1.6l.5,2h3.6c3.1,0,3.5,2.7,2.1,4.9-2.8,4.2-4.4,7.3-5.7,13.5-1.5,7.5-2.9,14.9-4.3,22.4-1.4,7.4-2.7,14.2-2.2,22.1.4,7.4-5.4,8.3-9.6,3.8-9.7-9.7-9.7-20.7-8.2-31.1l2.1-13.7c1.2-8.1,1.2-10.8-.7-16-1.3-3.5-1.1-5.9,2.6-5.9h4s1.5-2.4,1.5-2.4c.4-.7,1.4-1.2,2.3-1.2Z" fill="#fff" fill-rule="evenodd"/>
    <path d="M285.7,360.2c-15.4,1.3-30.9-10.1-26.7-46.4.4-2.7.8-5.6,1.2-8.7.1-3.3-.6-5.5-2.1-6.9-1.5-1.3-3.6-2.1-6.5-2.3-4.9-.5-9.8-.5-14.8.2-5,.6-9.1,1.6-12.2,3-3.2,1.4-4.9,3.1-5.1,5.1-.7,5.8,11,7.7,15.3,8.5,1,.2,1.8.4,2.4.5-7.6,33-33.4,32.7-36.2,11.5-3.4-26.3,17.8-70.3,48.9-56.5,7.2,3.2,11.4,4.7,16.1,1.4,2.6-1.8,2.8-6.9-1.2-10.9-5.9-5.9-12.7-9.4-20.4-10.6-7.7-1.2-15.3-.4-22.9,2.4-7.6,2.7-14.6,7.3-21,13.6-6.4,6.3-11.3,13.9-14.8,22.7-1.6,3.9-3.1,8.1-4.3,12.8-1.2,4.7-2,9.5-2.4,14.4-.4,4.9-.2,9.7.5,14.5.7,4.8,2,9.2,3.9,13.4,1.9,4.1,4.7,7.7,8.2,10.8,14.7,13,35.4,10.7,50-2.1,7.6,16.7,23.8,24.4,44,17.6,6.7-3.9,7.8-8.7,0-8Z" fill="#fff"/>
    <path d="M327.7,316.8c.4-1.5.7-3,1.1-4.5.5-2,1-4,1.5-6,.5-2,.8-4,1-6,.6-2.6.6-5.4,0-8.2-.5-2.6-1.8-4.8-3.9-6.6-2.1-1.7-4.5-2.4-7.1-2-2.3.5-4.3,1.6-6,3.2-1.6,1.6-3,3.6-4.1,5.8-1.1,2.2-2,4.6-2.7,7-1.9,6.6-10,30.3-17.4,31-1.1.1-1.8-1-2.1-3.2-.2-1.8-.2-4,0-6.4.6-7,2.1-14.7,3.4-21.4,2.9-14.7-1.9-20.5-21.9-16.8-4.7.9-8.4,2.6-9.1,4.3-2.1,5.3,13.8-1.2,9.9,15.5-.3,1.5-.6,3-.8,4.5-.6,3.4-.9,6.6-1,9.8-.1,3.2,0,5.9.3,8.2.4,4.3,1.3,8.3,2.7,12.1,1.4,3.8,3.2,6.8,5.2,9.2,2,2.4,4.4,3.9,7,4.5,10,2.3,19.7-6.1,23.7-14.8,2,12.9,12.8,17.6,21.5,19.1,5.7,1,8.5-2.5,4.2-7.2-7.2-7.7-7.1-19.5-5.2-31.1Z" fill="#fff"/>
    <path d="M493.1,318.2c-1.5-1.3-4.4-.3-7.2,2.6-8,8.2-20,15-26.1,13.2-1.2-.4-2.2-1-3-1.9-.8-.9-1.4-2-1.8-3.4-.4-1.3-.5-2.7-.3-4.1,5.3.8,9.8.3,13.6-1.5,3.8-1.8,7.4-4.1,11-7.1,2.6-2.3,4.8-5.1,6.3-8.2,1.6-3.1,2.4-6.6,2.5-10.5.2-4.6-.9-8.5-3.4-11.7-2.5-3.2-6-5.2-10.5-6-3.2-.6-6.5-.6-9.9,0-3.5.6-6.5,1.7-9.2,3.4-4.5,2.9-8.3,6.4-11.6,10.5-3.3,4.2-5.7,8.8-7.4,13.7-1.7,5-2.5,10.2-2.4,15.5,0,5.3,1.1,10.6,3.3,15.8,2.4,4.8,6,8.3,10.6,10.5,17.1,8.3,37.2-9.9,44-23.3,1.8-3.6,3.1-6.4,1.5-7.7ZM458.5,305.9c1.1-2,2.4-3.8,4-5.3,1.5-1.5,3.1-2.5,4.8-3.2,1.7-.7,3.2-.5,4.7.4.6,1.4.6,3,0,4.7-.7,1.7-1.7,3.2-3.2,4.6-1.5,1.4-3.3,2.5-5.4,3.4-2.1.9-4.4,1.4-6.7,1.4.2-1.9.9-3.9,2-6Z" fill="#fff"/>
    <path d="M430.3,347.9c-5.9-6.3-7.9-13.9-6.4-23.9,2.2-14.3,4.3-24.2,8.8-42,7.2-28-9.5-33.9-17.6-34-4.7,0-5.2,1.9-2.7,5.7,2,3.1,5.4,7.4,2.3,18.9-.9,3.2-1.7,6.2-2.8,8.9-4.3-3.1-9.3-3-13.7-1.8-4.5,1.1-8.7,3.5-12.8,7-3.1,2.7-5.7,5.9-7.9,9.3-2.2,3.5-3.9,7.1-5.2,10.9-1.3,3.8-2.1,7.8-2.4,12-.4,4.2-.2,8.3.4,12.4.5,2.2,1.4,4.7,2.7,7.2,8.5,16.6,24.8,13.9,32.2-2.1,2.4,15.6,18.6,19,26.8,19.2,5.9.2,1.8-4-1.8-7.8ZM406,309c-1,3-2.1,5.5-3.1,7.6-8.5,16.5-20.9,15-14.2-1.7,1.2-2.9,2.8-5.6,4.8-8,1.5-1.8,3.5-3.9,5.5-5.5,5.8-4.8,11.8-6.7,7,7.6Z" fill="#fff"/>
    <path d="M356,283.9c-7.1,0-11.6,3.7-12.9,11.7l-1.7,10.2-1.6,10.9c-1.6,10.8-2.1,18.7,2.9,29.2,4.8,10.1,13.3,10.1,13.9.2.6-9.2,2.2-18.5,4-27.8,1-5.3,2.1-10.7,3.1-16.1l1.2-6.6c1.6-8.8-3.5-11.8-9-11.8Z" fill="#fff"/>
    <path d="M498.8,334.1c-3.4,10.1-14.3,26.8-35.7,26.8h-52.2c-8.6,0-14.8,5.3-16.2,14.4l-3.3,21.4h63c37.9,0,46.3-29,46.6-62.2,0-3.6-1-3.8-2.1-.4ZM411.5,387.3c-.2.5-.5.9-.9,1.3-.4.4-.8.5-1.4.6-.6,0-1.1,0-1.7-.2-.6-.2-1.1-.4-1.6-.8-.5-.3-1-.7-1.4-1.2-.4-.5-.7-1-.9-1.5-.2-.5-.3-1.1-.2-1.7,0-.6.2-1.1.5-1.6.3-.5.7-.9,1.1-1.2.4-.3,1-.5,1.5-.5,1.1,0,2.1.3,3.1.9,1,.7,1.6,1.5,2,2.5.2.6.4,1.2.3,1.8,0,.6-.1,1.2-.4,1.7ZM429.5,382.7c-.5,1-1.1,1.9-1.9,2.8-.7.9-1.6,1.6-2.5,2.2-.9.6-1.9,1-3,1.2-1.1.2-2.1.1-3.2-.3-1.3-.4-2.2-1.1-2.9-2.1-.7-1-1.1-2.1-1.4-3.4-.1-1.1-.1-2.1,0-3.1.1-1,.4-2.1.7-3,.3-1,.8-1.9,1.3-2.8.5-.9,1.1-1.7,1.8-2.5.5-.5,1-1,1.6-1.5.6-.5,1.2-.9,1.9-1.3.7-.4,1.4-.6,2.1-.7.7-.1,1.4-.1,2.2,0,1,.3,1.8.8,2.5,1.6.7.8,1,1.7,1.1,2.8.1,1.7-.3,3.2-1.2,4.5-.2.3-.4.6-.7.8-.3.3-.6.5-.9.6-.3.1-.7.2-1,.2s-.6-.1-.9-.4c-.6-.5-.8-1.2-.7-1.9.1-.5.3-1,.5-1.6.2-.6.3-1.1.4-1.6-1.1.6-2,1.2-2.8,1.9-.7.7-1.3,1.4-1.7,2.1-.4.7-.7,1.4-.9,2.2-.2.7-.3,1.4-.4,2.1-.1.9,0,1.6.5,2.1.4.5,1.1.8,1.8.9.6,0,1.2,0,1.7-.2.5-.2,1-.4,1.4-.7.5-.3.9-.6,1.3-1,.4-.4.9-.7,1.3-1,0,0,.2-.1.4-.3.2-.2.4-.3.6-.5.2-.1.4-.3.6-.3.2,0,.3,0,.4,0,.3.4.4.7.4,1.1,0,.4-.2.8-.4,1.2ZM445.2,379.8c-.2,1.2-.5,2.4-.9,3.6-.4,1.1-1,2.2-1.7,3.1-.7.9-1.6,1.6-2.6,2.1-1.2.4-2.3.6-3.4.4-1.1-.1-2-.4-2.8-1-.8-.5-1.5-1.3-2-2.2-.5-.9-.8-2-.8-3.1-.1-2.8.2-5.1,1-7.1.8-2,2-3.5,3.6-4.7,1.1-.7,2.2-1.1,3.3-1.2,1.2-.1,2.2,0,3.2.6,1,.5,1.8,1.2,2.5,2.3.7,1,1,2.3,1,3.8,0,1.1,0,2.3-.3,3.5ZM470,377.3c-.1,1.3-.3,2.6-.6,3.9-.3,1.3-.7,2.6-1.1,3.8-.4,1.2-.8,2.2-1.2,3-.4.4-.8.6-1.2.6-.4,0-.7-.2-1.1-.5-.3-.3-.6-.7-.8-1.1-.2-.4-.4-.8-.5-1.2-.2-.6-.3-1.2-.3-1.8,0-.6,0-1.1.2-1.7,0-.5.2-1.1.4-1.6.2-.5.3-1.1.4-1.7,0-.2,0-.5.1-.8,0-.4,0-.7,0-1.1s0-.6-.2-.8c-.1-.2-.3-.2-.6,0-.4.2-.8.7-1.2,1.4-.4.7-.8,1.5-1.1,2.4-.4.9-.7,1.8-1,2.7-.3.9-.5,1.7-.7,2.4-.1.5-.3.9-.5,1.4-.2.5-.4.9-.7,1.3-.3.3-.6.5-1,.6-.4,0-.8-.2-1.3-.7-.4-.5-.7-1-.8-1.5,0-.5-.1-1.1-.2-1.7,0-1.4,0-2.7.2-4,.2-1.3.5-2.5.8-3.8,0-.2,0-.4,0-.5-.1-.1-.2-.2-.4-.2-.2,0-.4,0-.5,0-.2,0-.3.2-.4.4-.3.3-.5.6-.7.9-.2.3-.4.6-.6,1-.2.4-.4.9-.6,1.5-.2.6-.4,1.3-.6,2.1-.2.8-.5,1.7-.6,2.5-.2.8-.4,1.6-.7,2.5-.2.6-.6.9-.9,1.1-.4.2-.8.2-1.2,0-.4-.1-.8-.4-1.1-.8-.3-.4-.6-.9-.8-1.5-.2-.9-.3-1.9-.3-2.8,0-1,.1-1.9.3-2.8.2-.9.3-1.7.5-2.5.2-.8.4-1.5.5-2.1,0-1.1.2-2.1.5-3,.3-.9.7-1.6,1.2-2.1.5-.5,1.1-.6,1.8-.5.7.1,1.4.7,2.2,1.8.5-.7,1.2-1.2,2-1.5.8-.3,1.6-.5,2.3-.4.8,0,1.5.3,2.1.7.6.4,1.1,1.1,1.4,1.9.5-.7,1.2-1.3,2.1-1.7.9-.4,1.7-.5,2.6-.5.9,0,1.7.3,2.3.9.7.5,1.1,1.3,1.3,2.4.2.9.2,2.1.1,3.3Z" fill="#fff"/>
    <path d="M440.2,374.9c-.2-.2-.6-.2-1,0-.6.2-1,.7-1.4,1.3-.4.6-.7,1.3-.9,2-.2.7-.4,1.5-.5,2.2-.1.7-.2,1.3-.1,1.8,0,.6.1,1,.3,1.3.2.3.5.5.7.5.3,0,.6,0,.9-.1.3-.1.5-.4.7-.6.6-.9,1-1.7,1.3-2.6.3-.9.5-1.8.7-2.9,0-.1,0-.4,0-.8,0-.4,0-.8-.1-1.2,0-.4-.3-.7-.5-.9Z" fill="#fff"/>
    <path d="M371.3,254.7l-3.1,3.7c0-.1,0-.2-.1-.3-.5-1.2-1.7-2-3.1-2.2-.6,0-1.3,0-1.8.2,0-.4,0-.9-.3-1.3-.5-1.1-1.7-1.9-2.9-2-.7,0-1.4,0-2,.4,0-.5-.1-.9-.3-1.4-.6-1.2-1.7-2-2.9-2-.8,0-2.5.2-3.9,2.4l-4.9,7.6c-6-3.1-10.3-5.3-13.3-.4-.4.7-1.2,2.3-.6,3.5.2.4.6.9,1.4,1,9.3,1.5,12.4,7.2,13,8.3,2.7,6.3,10.1,9.2,16.4,6.5,2.5-1.2,3.3-3.1,4.8-7.1l.3-.8c.3-.6,4.8-7.1,7.6-11,.3-.4.6-.9.7-1.3.7-1.8.1-3.4-.9-4.2-1.1-.9-2.8-1-4,.5Z" fill="#fff"/>
    <g>
      <path d="M127.7,138c-5.1,9-11.3,20.4-17.6,33-9.2,1.1-18.8,2.5-29.7,4.2l7.9-22.1c10.2-28.6-14-38.8-26.2.4-1.8,5.7-4.1,14.6-6.6,24.5C4.8,192.4-1.5,251.2,31.3,252.8c12.9.6,27.7-17,33.9-34.5,3.3-9.3,6.6-18.6,9.9-27.9,26.7-2.1,45.5-2.3,54.4-3.1,14.8-1.2,17.4-17.5,2.5-18.1,4.4-9,8.9-17.2,13-24.2,13-22.4-5-28.8-17.3-7ZM45.5,214.4c-8.4,28-25.5,25.1-19.1,3.4,3.1-10.4,10.8-21.2,25.7-25.4-1.6,6.9-4.5,15.1-6.6,22Z" fill="#fff" fill-rule="evenodd"/>
      <path d="M96.8,195.8l24.6-1.1c1.2,0,2.3.9,2.4,2.1,0,1.2-.9,2.3-2.1,2.4l-24.6,1.1c-1.2,0-2.3-.9-2.4-2.2,0-1.2.9-2.3,2.1-2.4Z" fill="#fff" fill-rule="evenodd"/>
      <path d="M99,190.1l24.6-1.1c1.2,0,2.3.9,2.4,2.1,0,1.2-.9,2.3-2.1,2.4l-24.6,1.1c-1.2,0-2.3-.9-2.4-2.1,0-1.2.9-2.3,2.1-2.4Z" fill="#fff" fill-rule="evenodd"/>
      <path d="M172.6,233.8c-8.4,13.3-19.5,25.6-30.2,28.5,5.8,2.7,15.5.3,22.1-6.1-7.8,32.3-70.1,23.7-46.4-51.2h1.5c1.2-.1,2.2-1.2,2.1-2.4,0-1.2-1.1-2.2-2.4-2.1l-24.6,1.1c-1.2,0-2.2,1.1-2.1,2.4,0,1.2,1.1,2.2,2.3,2.1-22.4,65.4,7.8,95.1,37.9,96.7,11.2.6,22.6-2.5,31.2-9.2,0,0,1.1-1,1.1-1,.3,1.4,0,3.3.1,4.6s0,1.9.3,3.6,1,6.1,1.5,5.3c4.5-7.3,8.6-19.6,10-27.6,0,0,.7-3.3.9-5.1,1.8-11.2,1.8-23-5.2-39.5Z" fill="#fff"/>
      <path id="White_Curved_Path" d="M94.8,220.5c-.5,2.7-1.1,5.4-1.5,8.2-.7,4.7-1.5,9.3-1.8,14-.7,8.6.2,17.3,3.3,25.9,2,5.7,5,11.1,9.9,16.1,5.2,5.3,12.2,9.1,20.5,11.7,11.6,3.6,21.6,2.4,30.2-2.7,3.5-2.1,6.4-4.6,8.9-7.3,0,0,.2-.2.1-.4-.8.7-1.6,1.4-2.5,2-4.4,3.3-9.4,5.9-16.1,6.9-6.7,1-13.2-.1-19.6-2.3-12.1-4.1-20.1-10.7-25.1-19.1-4.3-7.2-6.4-14.5-7.4-22-.9-6.6-.5-13.2.4-19.7.5-3.7.8-7.4,1.2-11.1,0,0,0-.2,0-.3,0,0-.2,0-.2,0Z" fill="#fff"/>
    </g>
    <g>
      <path d="M442.7,145.7c4.3-2.9,3.9-7,3.9-11.2,2,.4,2.2,1.9,2.5,3,1.6,5.6,1.6,11.3-1.3,16.8-2.9,5.6-7.5,8.2-13.5,7.8-5.2-.3-9.5-3.9-10.8-9.1-1-3.9-.9-7.9,1-11.7.3-.6.6-1.5,1.5-1.6,1.2-.2.9.9,1.2,1.5,1,1.9,2.1,3.8,5,2.8,2.7-.9,2.8-3,2.3-5.2-.3-1.3-.8-2.5-1.5-3.7-2.3-4.2-2.6-8.7-1.4-13.4.2-.9.5-1.8,2.1-2.3-.6,6.4,4.3,10.2,7.7,14.7,2.6,3.5,2.2,7.4,1.5,11.5Z" fill="#fff"/>
      <path d="M390.7,145.1c4.8-2.5,4.8-7,5.4-11.6,2,.8,2,2.4,2.2,3.6.9,6.3.2,12.5-3.4,18.1-3.7,5.6-8.7,7.8-14.9,6.5-5.3-1.1-9.3-5.6-10-11.5-.6-4.4,0-8.7,2.5-12.6.4-.6.8-1.5,1.7-1.5,1.3,0,.8,1.1,1,1.8.8,2.2,1.7,4.4,4.8,3.8,2.9-.6,3.3-2.9,3-5.3-.2-1.4-.5-2.8-1.1-4.2-1.9-4.9-1.6-9.8.2-14.8.3-.9.7-1.9,2.5-2.2-1.4,6.9,3.2,11.7,6.1,17.2,2.2,4.2,1.3,8.4.1,12.7Z" fill="#fff"/>
      <path d="M435,165.5c2.7.2,6-1.1,7.7,2.6.2.5,1.9.3,2.9.5,2.7.5,3.8,2.2,2.3,4.3-5.8,8.4-6.4,18.4-8.4,28-2,9.7-4.2,19.4-3.6,29.5.1,2.1-.8,3.9-2.8,4.7-2.1.9-3.8-.1-5.3-1.4-6.1-5.3-9.2-12.1-9.7-20.1-.3-5.3.7-10.5,1.4-15.7.5-3.7,1-7.5,1.7-11.2.7-4.2.4-8.2-1-12.2-1.6-4.8-1-5.6,3.9-6,.8,0,1.8,0,2.3-.6,2.2-3.3,5.4-2.9,8.6-2.6Z" fill="#fff"/>
      <path d="M365.9,210.8c.3-6.2,1.6-13,2.6-19.9.8-5.7,1.4-11.2-.5-16.9-1.4-3.9-.5-4.9,3.6-5.2.9,0,1.9.1,2.5-.7,3.7-4.9,8.8-1.9,13.3-2.5.7,0,1.4.5,1.6,1.2.6,2.1,2.1,2,3.8,2.1,3.1.2,4.3,1.8,2.8,4.1-5.7,8.4-6.3,18.2-8.3,27.6-2.1,9.9-4.2,19.9-3.6,30.1.1,1.9-.7,3.4-2.5,4.1-2,.8-3.8.2-5.4-1.1-4.4-3.8-7.5-8.6-8.8-14.3-.6-2.6-1.1-5.1-1-8.6Z" fill="#fff"/>
    </g>
  </g>
</svg>