<svg xmlns="http://www.w3.org/2000/svg" xmlns:xlink="http://www.w3.org/1999/xlink" version="1.2" viewBox="0 0 225.771 225.771" baseProfile="tiny-ps">
  <title>principal_v_blue_rgb-circle</title>
  <g id="circle">
    <circle cx="113.488" cy="113.959" r="98.658" fill="#FFFFFF"/>
  </g>
  <g id="Layer_1">
    <g>
      <g>
        <path d="M150.728,69.428c0-19.505-15.222-33.783-36.058-33.783c-25.652,0-45.012,20.038-45.012,46.343     c0,27.515,21.102,50.481,48.473,53.022v-34.993c-12.826-1.21-21.635-10.672-21.635-23.232c0-12.148,8.155-20.981,19.36-20.981     c10.285,0,17.23,6.413,17.23,15.899c0,8.422-5.348,13.891-14.956,15.367v12.947C137.902,99.484,150.728,87.457,150.728,69.428z" fill="#0076CF"/>
        <g>
          <path d="M139.523,150.183c-2.178,0-4.235,0.92-5.493,2.614l-0.29-2.178h-2.88v24.055h3.461v-8.252      c1.065,0.992,3.025,1.694,4.719,1.694c4.719,0,7.913-3.799,7.913-9.317C146.953,153.644,143.976,150.183,139.523,150.183      L139.523,150.183z M138.483,164.994c-1.549,0-3.243-0.774-4.09-1.839V158c0-2.88,1.767-4.719,4.453-4.719      c2.831,0,4.598,2.13,4.598,5.493C143.419,162.743,141.58,164.994,138.483,164.994L138.483,164.994z M47.418,144.4v23.353h3.606      V159.5h4.792c4.937,0,8.252-3.025,8.252-7.55c0-4.501-3.315-7.55-8.252-7.55C55.815,144.4,47.418,144.4,47.418,144.4z       M51.024,147.449h4.308c3.243,0,5.155,1.621,5.155,4.501c0,2.88-1.912,4.501-5.155,4.501h-4.308V147.449z M74.425,150.329      c-1.984,0-3.799,0.92-4.792,2.468l-0.29-2.178h-2.904v17.134H69.9v-9.244c0-3.315,1.549-5.082,4.501-5.082      c0.508,0,1.21,0.145,1.912,0.29l0.411-2.952C76.047,150.474,75.272,150.329,74.425,150.329L74.425,150.329z M81.201,148.151      c1.258,0,2.178-0.92,2.178-2.178c0-1.258-0.92-2.178-2.178-2.178c-1.283,0-2.251,0.92-2.251,2.178      C78.951,147.231,79.943,148.151,81.201,148.151L81.201,148.151z M82.895,167.753v-17.134h-3.461v17.134      C79.435,167.753,82.895,167.753,82.895,167.753z M96.084,150.183c-2.251,0-4.235,0.992-5.493,2.614l-0.29-2.178h-2.904v17.134      h3.461v-9.583c0-2.88,1.839-4.864,4.453-4.864c2.323,0,3.799,1.476,3.799,3.799v10.648h3.461v-11.084      C102.57,152.797,99.956,150.183,96.084,150.183L96.084,150.183z M114.065,153.281c1.404,0,3.025,0.629,4.38,1.621l1.549-2.541      c-1.549-1.331-3.872-2.178-6.05-2.178c-5.009,0-8.688,3.751-8.688,8.954c0,5.421,3.388,8.954,8.47,8.954      c2.396,0,4.864-0.847,6.268-2.178l-1.549-2.468c-1.258,1.065-2.686,1.549-4.235,1.549c-3.315,0-5.421-2.251-5.421-5.856      C108.789,155.628,110.895,153.281,114.065,153.281L114.065,153.281z M172.895,165.139c-1.21,0-1.621-0.484-1.621-1.839v-19.965      h-3.461v20.449c0,2.759,1.549,4.308,4.453,4.308c0.702,0,1.476-0.145,1.984-0.363l-0.363-2.759      C173.597,165.066,173.185,165.139,172.895,165.139L172.895,165.139z M124.785,148.151c1.258,0,2.178-0.92,2.178-2.178      c0-1.258-0.92-2.178-2.178-2.178s-2.251,0.92-2.251,2.178C122.535,147.231,123.527,148.151,124.785,148.151L124.785,148.151z       M126.479,167.753v-17.134h-3.461v17.134C123.019,167.753,126.479,167.753,126.479,167.753z M159.924,157.443      c-1.065-0.29-2.468-0.411-3.727-0.411c-4.525,0-7.187,2.178-7.187,5.784c0,3.17,2.541,5.3,6.219,5.3      c2.178,0,3.945-0.847,5.155-2.323c0.484,1.476,1.767,2.323,3.461,2.323c0.702,0,1.476-0.145,1.984-0.363l-0.363-2.686      c-0.29,0.073-0.629,0.145-0.92,0.145c-0.847,0-1.21-0.436-1.21-1.258v-7.405c0-3.945-2.614-6.34-6.921-6.34      c-2.105,0-4.501,0.557-6.558,1.549l1.065,2.759c1.476-0.847,3.243-1.331,4.937-1.331c2.686,0,4.09,1.21,4.09,3.533v0.726      H159.924z M159.924,160.904c0,2.759-1.621,4.38-4.308,4.38c-1.984,0-3.17-1.065-3.17-2.759c0-1.912,1.549-3.025,4.162-3.025      c1.258,0,2.251,0.145,3.315,0.363V160.904z" fill="#4D4E53"/>
        </g>
      </g>
      <g>
        <path d="M177.735,143.722c2.251,0,3.824,1.573,3.824,3.824c0,2.251-1.573,3.824-3.824,3.824     s-3.824-1.573-3.824-3.824C173.887,145.295,175.484,143.722,177.735,143.722z M177.735,150.692c1.839,0,3.122-1.283,3.122-3.146     c0-1.839-1.283-3.146-3.122-3.146s-3.122,1.283-3.122,3.146C174.589,149.385,175.872,150.692,177.735,150.692z M176.114,145.368     h1.888c0.895,0,1.525,0.557,1.525,1.379c0,0.653-0.363,1.137-0.944,1.258l1.089,1.67h-1.065l-0.92-1.525h-0.629v1.525h-0.944     C176.114,149.675,176.114,145.368,176.114,145.368z M177.033,147.449h0.823c0.411,0,0.702-0.242,0.702-0.653     c0-0.387-0.29-0.653-0.702-0.653h-0.823V147.449z" fill="#4D4E53"/>
      </g>
    </g>
  </g>
</svg>