<?xml version="1.0" encoding="utf-8"?>
<!-- Generator: Adobe Illustrator 28.0.0, SVG Export Plug-In . SVG Version: 6.00 Build 0)  -->
<svg version="1.2" baseProfile="tiny-ps" id="Layer_2_00000046321406814092471470000009176008335814893493_"
	 xmlns="http://www.w3.org/2000/svg" xmlns:xlink="http://www.w3.org/1999/xlink" viewBox="0 0 4000 4000" xml:space="preserve">
<title>State Supply</title>
<rect fill="#C20000" width="4000" height="4000"/>
<path fill="#DFDFDF" d="M956.4,843.4c-143.6,0-261.8,119.9-261.8,266.9v1495.1c0,109.8,67.6,211.1,168.9,250L2046,3345.3
	l1182.5-489.9c101.4-38.9,168.9-140.2,168.9-250V1110.3c0-147-118.3-266.9-261.8-266.9L956.4,843.4z"/>
<path fill="#C20000" d="M1069.6,981.9c-128.4,0-233.1,104.7-233.1,233.1v1312.6c0,96.3,60.8,184.1,150.3,217.9l1059.2,430.8
	l1064.3-432.5l-5.1,1.7c89.5-33.8,150.4-121.6,150.4-217.9V1215c0-128.4-104.7-233.1-233.1-233.1H1069.6z"/>
<path fill="#232323" d="M3027.6,1091.7c65.9,0,119.9,54.1,119.9,119.9V2531c0,50.7-32.1,94.6-77.7,111.5l-1023.7,415.6
	l-1025.4-415.6c-45.6-16.9-77.7-60.8-77.7-111.5V1211.7c0-65.9,54.1-119.9,119.9-119.9L3027.6,1091.7z"/>
<path id="White" fill="#FFFFFF" d="M1086.5,2473.6l-82.8-736.5l324.3-162.2h1434.2l324.4,175.7l-81.1,712.9l-959.5,390.2
	L1086.5,2473.6z"/>
<path fill="#C20000" d="M2172.8,2605.3L1992,2495.5l-89.5,113.2l-18.6-180.7l-147-98h140.2l-3.4-50.7h-64.2V2205h59.1l-3.4-52.4
	v-6.8l37.2,59.1h376.7v74.3h-332.8l33.8,55.7l922.4-1.7L2965,1808l-211.1-104.7H1336.5l-211.1,103l55.7,593l864.9,295.6l285.5-89.5
	L2172.8,2605.3z M2277.5,2184.7H2193v-74.3h84.5V2184.7z M2802.9,2277.6h-467.9v-74.3h467.9V2277.6z M2334.9,1829.9h467.9v74.3
	h-467.9V1829.9z M2334.9,1924.5h74.3v255.1h-74.3V1924.5z M1809.5,1829.9h467.9v74.3h-467.9V1829.9z M1809.5,1922.9h82.8v74.3h-82.8
	V1922.9z M1809.5,2015.8h467.9v74.3h-467.9V2015.8z M1755.5,2184.7H1671v-74.3h84.5V2184.7z M1287.5,1829.9h467.9v74.3h-467.9
	V1829.9z M1287.5,1922.8h82.8v74.3h-82.8V1922.8z M1287.5,2015.8h467.9v74.3h-467.9V2015.8z M1287.5,2203.3h467.9v74.3h-467.9
	V2203.3z"/>
<path fill="#C20000" d="M2110.2,2357l-28.7,38.9h800.7l15.2-5.1l3.4-33.8L2110.2,2357L2110.2,2357z M2397.4,2580l118.3-45.6h-386.9
	l30.4,45.6H2397.4z M2091.7,2478.6l20.3,30.4h471.3l81.1-30.4H2091.7z M2062.9,2421.2l-5.1,8.4l15.2,23.6h658.8l82.8-32.1H2062.9z"
	/>
<path fill="none" d="M2416,1230.2v94.6h6.8c8.4,0,15.2-1.7,18.6-6.8c3.4-5.1,5.1-13.5,5.1-27v-30.4c0-13.5-1.7-22-6.8-25.3
	C2438,1231.9,2429.5,1230.2,2416,1230.2z M2600.2,1230.2v94.6h6.8c8.4,0,15.2-1.7,18.6-6.8c3.4-5.1,5.1-13.5,5.1-27v-30.4
	c0-13.5-1.7-22-6.8-25.3C2620.4,1231.9,2612,1230.2,2600.2,1230.2L2600.2,1230.2z M1483.5,1363.7h22c-3.4-32.1-6.8-72.6-10.1-121.6
	C1490.3,1297.8,1485.2,1338.3,1483.5,1363.7z"/>
<path fill="#FFFFFF" d="M1437.9,1186.3h-160.5v45.6h45.6v253.4h69.2v-253.4h45.6L1437.9,1186.3z M1564.6,1231.9h47.3v253.4h67.6
	v-253.4h45.6v-45.6h-160.4L1564.6,1231.9z M1456.5,1188l-47.3,297.3h57.5l10.1-72.6h35.5l6.8,72.6h67.6l-38.9-297.3H1456.5z
	 M1483.5,1363.7c1.7-25.3,6.8-65.9,11.8-121.6c3.4,49,6.8,87.9,10.1,121.6H1483.5z M1804.5,1343.4h69.3v-47.3h-69.2v-62.5h71V1188
	h-136.9v297.3h138.5V1438h-72.6L1804.5,1343.4z M2265.6,1360.3l-1.7,64.2c0,8.4-6.8,16.9-16.9,16.9c-8.4,0-16.9-6.8-16.9-16.9
	l-1.6-60.8V1188H2161v175.7c0,33.8,0,55.8,1.7,65.9c1.7,10.9,5.7,21.2,11.8,30.4c6.8,10.1,16.9,16.9,28.7,23.7
	c14.6,5.5,30,8.4,45.6,8.4c15.2,0,28.7-1.7,40.5-6.8s20.3-11.8,27-22s11.8-18.6,11.8-28.7c1.7-8.4,1.7-25.3,1.7-47.3V1188h-64.2
	L2265.6,1360.3z M2417.7,1188h-69.2v297.3h69.3v-114.9h18.6c76,0,81.1-47.3,81.1-72.6c0-27,5.1-71-15.2-92.9
	C2480.2,1182.9,2417.7,1188,2417.7,1188L2417.7,1188L2417.7,1188z M2448.1,1292.7c0,13.5-1.7,23.6-5.1,27s-10.1,6.8-18.6,6.8h-6.8
	v-94.6c13.5,0,20.3,1.7,25.3,5.1c3.4,3.4,6.8,11.8,6.8,25.3v30.4L2448.1,1292.7L2448.1,1292.7z M2600.1,1188h-69.2v297.3h69.2
	v-114.9h18.6c76,0,81.1-47.3,81.1-72.6c0-27,5.1-71-15.2-92.9S2600.2,1188,2600.1,1188L2600.1,1188L2600.1,1188z M2630.5,1292.7
	c0,13.5-1.7,23.6-5.1,27c-3.4,5.1-10.1,6.8-18.6,6.8h-6.8v-94.6c13.5,0,20.3,1.7,25.3,5.1c3.4,3.4,6.8,11.8,6.8,25.3v30.4
	L2630.5,1292.7L2630.5,1292.7z M2784.3,1188H2715v297.3h140.2V1438h-71L2784.3,1188z M2927.9,1188l-23.6,111.5l-23.6-111.5h-65.9
	l55.7,189.2v108.1h67.6v-108.1l57.5-189.2L2927.9,1188L2927.9,1188z M1209.8,1182.9c-55.7-6.8-118.3,3.4-114.9,74.3
	c3.4,60.8,45.6,84.5,54.1,92.9c8.4,6.8,45.6,38.9,47.3,59.1c1.7,25.3-6.8,33.8-16.9,33.8s-16.9-6.8-18.6-27c-1.7-22,0-47.3,0-47.3
	h-67.6v47.3c0,0-8.4,76,86.2,76c64.2,0,82.8-38.9,82.8-79.4c0-38.9-5.1-54.1-43.9-91.2c-45.6-43.9-55.7-38.9-55.7-76
	c0-20.3,33.8-20.3,33.8,8.5c-1.7,28.7-1.7,42.2-1.7,42.2h67.6v-50.7C1265.6,1243.7,1260.5,1189.7,1209.8,1182.9z M2091.7,1182.9
	c-55.8-6.8-118.3,3.4-114.9,74.3c3.4,60.8,45.6,84.5,54.1,92.9c8.4,6.8,45.6,38.9,47.3,59.1c1.7,25.3-6.8,33.8-16.9,33.8
	s-16.9-6.8-18.6-27c-1.7-22,0-47.3,0-47.3h-67.6v47.3c0,0-8.4,76,86.2,76c64.2,0,82.8-38.9,82.8-79.4c0-38.9-5.1-54.1-43.9-91.2
	c-45.6-43.9-55.7-38.9-55.7-76c0-20.3,33.8-20.3,33.8,8.5c1.7,27,1.7,40.5,1.7,40.5h67.6v-50.7
	C2147.4,1243.8,2144.1,1189.7,2091.7,1182.9z"/>
</svg>
