<?xml version="1.0" encoding="utf-8"?>
<!-- Generator: Adobe Illustrator 28.1.0, SVG Export Plug-In . SVG Version: 6.00 Build 0)  -->
<svg version="1.2" baseProfile="tiny-ps" id="Calque_1"
	 xmlns="http://www.w3.org/2000/svg" xmlns:xlink="http://www.w3.org/1999/xlink" viewBox="0 0 1080 1080"
	 xml:space="preserve">
<title>Karos</title>
<g>
	<g>
		<g>
			<g>
				<path fill="#FFAC9B" d="M271.6,435.2c0,0-2.3,2.5,0.6,4.4l0.8,0.5v-6.5L271.6,435.2z"/>
				<polygon fill="#FFAA9B" points="273.1,433.6 273.1,440.1 275.4,441.6 275.4,431.1 				"/>
				<polygon fill="#FFA99B" points="275.4,431.1 275.4,441.6 277.7,443.1 277.7,428.5 				"/>
				<polygon fill="#FFA79B" points="277.7,428.5 277.7,443.1 279.9,444.5 279.9,425.9 				"/>
				<polygon fill="#FFA59B" points="279.9,425.9 279.9,444.5 282.2,446 282.2,423.4 				"/>
				<polygon fill="#FFA39B" points="282.2,423.4 282.2,446 284.5,447.4 284.5,420.8 				"/>
				<polygon fill="#FFA29B" points="284.5,420.8 284.5,447.4 286.8,448.9 286.8,418.2 				"/>
				<polygon fill="#FFA09B" points="286.8,418.2 286.8,448.9 289.1,450.3 289.1,415.7 				"/>
				<polygon fill="#FF9E9B" points="289.1,415.7 289.1,450.3 291.4,451.8 291.4,413.1 				"/>
				<polygon fill="#FF9C9B" points="291.4,413.1 291.4,451.8 293.7,453.2 293.7,410.6 				"/>
				<polygon fill="#FF9B9B" points="293.7,410.6 293.7,453.2 296,454.7 296,408 				"/>
				<polygon fill="#FF999B" points="296,408 296,454.7 298.3,456.2 298.3,405.4 				"/>
				<polygon fill="#FF979B" points="298.3,405.4 298.3,456.2 300.6,457.6 300.6,402.9 				"/>
				<polygon fill="#FF959B" points="300.6,402.9 300.6,457.6 302.9,459.1 302.9,400.3 				"/>
				<polygon fill="#FF949B" points="302.9,400.3 302.9,459.1 305.1,460.5 305.1,397.7 				"/>
				<polygon fill="#FF929B" points="305.1,397.7 305.1,460.5 307.4,462 307.4,395.2 				"/>
				<polygon fill="#FF909B" points="307.4,395.2 307.4,462 309.7,463.4 309.7,392.6 				"/>
				<polygon fill="#FF8E9B" points="309.7,392.6 309.7,463.4 312,464.9 312,390 				"/>
				<polygon fill="#FF8D9B" points="312,390 312,464.9 314.3,466.4 314.3,387.5 				"/>
				<polygon fill="#FF8B9B" points="314.3,387.5 314.3,466.4 316.6,467.8 316.6,384.9 				"/>
				<path fill="#FF899B" d="M318.2,383.1l-1.6,1.8v82.9l2.3,1.5v-86.8C318.7,382.7,318.4,382.8,318.2,383.1z"/>
				<path fill="#FF879B" d="M320.4,382c-0.5,0-1,0.2-1.6,0.5v86.8l2.3,1.5v-88.6C320.9,382,320.7,382,320.4,382z"/>
				<path fill="#FF869B" d="M322.8,383c0,0-0.7-0.7-1.6-1v88.6l2.1,1.4c0,0,0.1,0,0.1,0.1v-88.4L322.8,383z"/>
				<path fill="#FF849B" d="M325.8,386.2l-2.3-2.4v88.4c0.3,0.2,1.1,0.6,2.1,0.6c0,0,0.1,0,0.2,0L325.8,386.2L325.8,386.2z"/>
				<path fill="#FF829B" d="M328,471.8v-83.1l-2.3-2.4v86.5C326.5,472.7,327.3,472.4,328,471.8z"/>
				<path fill="#FF809B" d="M328.5,471.4l1.9-2.1v-78.2l-2.3-2.4v83.1C328.2,471.7,328.3,471.5,328.5,471.4z"/>
				<polygon fill="#FF7F9B" points="332.6,466.7 332.6,393.5 330.3,391.1 330.3,469.3 				"/>
				<polygon fill="#FF7D9B" points="334.9,464.1 334.9,396 332.6,393.5 332.6,466.7 				"/>
				<polygon fill="#FF7B9B" points="337.2,461.5 337.2,398.4 334.9,396 334.9,464.1 				"/>
				<polygon fill="#FF799B" points="339.5,459 339.5,400.9 337.2,398.4 337.2,461.5 				"/>
				<polygon fill="#FF789B" points="341.8,456.4 341.8,403.3 339.5,400.9 339.5,459 				"/>
				<polygon fill="#FF769B" points="344.1,453.8 344.1,405.8 341.8,403.3 341.8,456.4 				"/>
				<polygon fill="#FF749B" points="346.4,451.2 346.4,408.2 344.1,405.8 344.1,453.8 				"/>
				<polygon fill="#FF729B" points="348.7,448.7 348.7,410.7 346.4,408.2 346.4,451.2 				"/>
				<polygon fill="#FF719B" points="351,446.1 351,413.1 348.7,410.7 348.7,448.7 				"/>
				<polygon fill="#FF6F9B" points="353.2,443.5 353.2,415.6 351,413.1 351,446.1 				"/>
				<polygon fill="#FF6D9B" points="355.5,440.9 355.5,418 353.2,415.6 353.2,443.5 				"/>
				<polygon fill="#FF6B9B" points="357.8,438.4 357.8,420.5 355.5,418 355.5,440.9 				"/>
				<polygon fill="#FF6A9B" points="360.1,435.8 360.1,422.9 357.8,420.5 357.8,438.4 				"/>
				<polygon fill="#FF689B" points="362.4,433.2 362.4,425.4 360.1,422.9 360.1,435.8 				"/>
				<path fill="#FF669B" d="M363.7,431.7c0,0,2.3-2.6-0.1-5.1l-1.2-1.3v7.8L363.7,431.7z"/>
			</g>
		</g>
		<g>
			<g>
				<path fill="#FFAC9B" d="M807.5,439.6c2.9-1.8,0.6-4.4,0.6-4.4l-1.4-1.6v6.5L807.5,439.6z"/>
				<polygon fill="#FFAA9B" points="806.6,440.1 806.6,433.6 804.4,431.1 804.4,441.6 				"/>
				<polygon fill="#FFA99B" points="804.4,441.6 804.4,431.1 802.1,428.5 802.1,443.1 				"/>
				<polygon fill="#FFA79B" points="802.1,443.1 802.1,428.5 799.8,425.9 799.8,444.5 				"/>
				<polygon fill="#FFA59B" points="799.8,444.5 799.8,425.9 797.5,423.4 797.5,446 				"/>
				<polygon fill="#FFA39B" points="797.5,446 797.5,423.4 795.2,420.8 795.2,447.4 				"/>
				<polygon fill="#FFA29B" points="795.2,447.4 795.2,420.8 792.9,418.2 792.9,448.9 				"/>
				<polygon fill="#FFA09B" points="792.9,448.9 792.9,418.2 790.6,415.7 790.6,450.3 				"/>
				<polygon fill="#FF9E9B" points="790.6,450.3 790.6,415.7 788.3,413.1 788.3,451.8 				"/>
				<polygon fill="#FF9C9B" points="788.3,451.8 788.3,413.1 786,410.5 786,453.2 				"/>
				<polygon fill="#FF9B9B" points="786,453.2 786,410.5 783.7,408 783.7,454.7 				"/>
				<polygon fill="#FF999B" points="783.7,454.7 783.7,408 781.4,405.4 781.4,456.2 				"/>
				<polygon fill="#FF979B" points="781.4,456.2 781.4,405.4 779.2,402.9 779.2,457.6 				"/>
				<polygon fill="#FF959B" points="779.2,457.6 779.2,402.9 776.9,400.3 776.9,459.1 				"/>
				<polygon fill="#FF949B" points="776.9,459.1 776.9,400.3 774.6,397.7 774.6,460.5 				"/>
				<polygon fill="#FF929B" points="774.6,460.5 774.6,397.7 772.3,395.2 772.3,462 				"/>
				<polygon fill="#FF909B" points="772.3,462 772.3,395.2 770,392.6 770,463.4 				"/>
				<polygon fill="#FF8E9B" points="770,463.4 770,392.6 767.7,390 767.7,464.9 				"/>
				<polygon fill="#FF8D9B" points="767.7,464.9 767.7,390 765.4,387.5 765.4,466.4 				"/>
				<polygon fill="#FF8B9B" points="765.4,466.4 765.4,387.5 763.1,384.9 763.1,467.8 				"/>
				<path fill="#FF899B" d="M763.1,467.8v-82.9l-1.6-1.8c-0.2-0.3-0.5-0.4-0.7-0.6v86.8L763.1,467.8z"/>
				<path fill="#FF879B" d="M760.8,469.3v-86.8c-0.5-0.4-1.1-0.5-1.6-0.5c-0.3,0-0.5,0-0.7,0.1v88.6L760.8,469.3z"/>
				<path fill="#FF869B" d="M756.4,472.1l2.1-1.4v-88.6c-1,0.3-1.6,1-1.6,1l-0.6,0.7v88.4C756.3,472.1,756.4,472.1,756.4,472.1z"/>
				<path fill="#FF849B" d="M756.3,383.7l-2.3,2.4v86.5h0.1c1,0,1.8-0.4,2.1-0.6v-88.3H756.3z"/>
				<path fill="#FF829B" d="M751.7,388.6v83.2c0.8,0.7,1.6,0.9,2.3,0.9v-86.5L751.7,388.6z"/>
				<path fill="#FF809B" d="M749.4,391.1v78.2l1.8,2.1c0.1,0.2,0.3,0.3,0.4,0.4v-83.2L749.4,391.1z"/>
				<polygon fill="#FF7F9B" points="747.1,393.5 747.1,466.7 749.4,469.3 749.4,391.1 				"/>
				<polygon fill="#FF7D9B" points="744.8,396 744.8,464.1 747.1,466.7 747.1,393.5 				"/>
				<polygon fill="#FF7B9B" points="742.5,398.4 742.5,461.5 744.8,464.1 744.8,396 				"/>
				<polygon fill="#FF799B" points="740.2,400.9 740.2,459 742.5,461.5 742.5,398.4 				"/>
				<polygon fill="#FF789B" points="737.9,403.3 737.9,456.4 740.2,459 740.2,400.9 				"/>
				<polygon fill="#FF769B" points="735.6,405.8 735.6,453.8 737.9,456.4 737.9,403.3 				"/>
				<polygon fill="#FF749B" points="733.3,408.2 733.3,451.2 735.6,453.8 735.6,405.8 				"/>
				<polygon fill="#FF729B" points="731.1,410.7 731.1,448.7 733.3,451.2 733.3,408.2 				"/>
				<polygon fill="#FF719B" points="728.8,413.1 728.8,446.1 731.1,448.7 731.1,410.7 				"/>
				<polygon fill="#FF6F9B" points="726.5,415.6 726.5,443.5 728.8,446.1 728.8,413.1 				"/>
				<polygon fill="#FF6D9B" points="724.2,418 724.2,440.9 726.5,443.5 726.5,415.6 				"/>
				<polygon fill="#FF6B9B" points="721.9,420.5 721.9,438.4 724.2,440.9 724.2,418 				"/>
				<polygon fill="#FF6A9B" points="719.6,422.9 719.6,435.8 721.9,438.4 721.9,420.5 				"/>
				<polygon fill="#FF689B" points="717.3,425.4 717.3,433.2 719.6,435.8 719.6,422.9 				"/>
				<path fill="#FF669B" d="M716.1,426.7c-2.3,2.5,0,5.1,0,5.1l1.3,1.5v-7.8L716.1,426.7z"/>
			</g>
		</g>
	</g>
	<g>
		<g>
			<path fill="#FF7459" d="M120.1,366.6c-0.9-0.6-5.8-3.6-10.4-3.6c-3.1,0-5.8,1.3-7.5,3.5c-3.2,4.1-2.1,9.9-1,13.9l50.5,178
				L259,458.7L120.1,366.6z"/>
			<polygon fill="#FF7459" points="258.9,458.8 151.7,558.5 152.9,562.8 262.4,461.1 			"/>
			<polygon fill="#FF7359" points="262.4,461.1 152.9,562.8 154.1,567.1 265.8,463.3 			"/>
			<polygon fill="#FF7259" points="265.8,463.3 154.1,567.1 155.3,571.4 269.2,465.6 			"/>
			<polygon fill="#FF7159" points="269.2,465.6 155.3,571.4 156.5,575.7 272.6,467.9 			"/>
			<polygon fill="#FF7059" points="272.6,467.9 156.5,575.7 157.8,580 276,470.1 			"/>
			<polygon fill="#FF6F59" points="276,470.1 157.8,580 159,584.3 279.4,472.4 			"/>
			<polygon fill="#FF6E59" points="279.4,472.4 159,584.3 160.2,588.6 282.9,474.7 			"/>
			<polygon fill="#FF6D59" points="282.9,474.7 160.2,588.6 161.4,592.9 286.3,476.9 			"/>
			<polygon fill="#FF6C59" points="286.3,476.9 161.4,592.9 162.7,597.3 289.7,479.2 			"/>
			<polygon fill="#FF6B59" points="289.7,479.2 162.7,597.3 163.9,601.6 293.1,481.5 			"/>
			<polygon fill="#FF6A59" points="293.1,481.5 163.9,601.6 165.1,605.9 296.5,483.7 			"/>
			<polygon fill="#FF6959" points="296.5,483.7 165.1,605.9 166.3,610.2 300,486 			"/>
			<polygon fill="#FF6859" points="300,486 166.3,610.2 167.6,614.5 303.4,488.3 			"/>
			<path fill="#FF6859" d="M524.8,279l-15.7,18.1l27.5-25.6C533.1,272.3,528.9,274.3,524.8,279z"/>
			<polygon fill="#FF6759" points="303.4,488.3 167.6,614.5 168.8,618.8 306.8,490.6 			"/>
			<path fill="#FF6759" d="M540,271.2c-1,0-2.2,0.1-3.4,0.4l-27.5,25.6L484.9,325l57.7-53.6C541.8,271.3,540.9,271.2,540,271.2z"/>
			<polygon fill="#FF6659" points="306.8,490.6 168.8,618.8 170,623.1 310.2,492.8 			"/>
			<path fill="#FF6659" d="M542.6,271.4L484.9,325l-24.2,27.9l86.4-80.2C545.8,272.1,544.3,271.7,542.6,271.4z"/>
			<path fill="#FF6559" d="M547.1,272.7l-86.4,80.2l-24.2,27.9l114.3-106.2C549.8,273.9,548.5,273.2,547.1,272.7z"/>
			<polygon fill="#FF6559" points="310.2,492.8 170,623.1 171.2,627.4 313.6,495.1 			"/>
			<polygon fill="#FF6459" points="313.6,495.1 171.2,627.4 172.4,631.7 317.1,497.4 			"/>
			<path fill="#FF6459" d="M550.9,274.6L436.6,380.8l-24.2,27.9L554,277.1C553.3,276.3,552.2,275.5,550.9,274.6z"/>
			<path fill="#FF6359" d="M556.2,279.1c-0.2-0.2-0.9-1-2-2L412.5,408.7l-24.2,27.9L556.9,280L556.2,279.1z"/>
			<path fill="#FF6359" d="M319.1,498.7l-2-1.3L172.4,631.7l1.2,4.3l146.9-136.5C320.1,499.3,319.6,499,319.1,498.7z"/>
			<polygon fill="#FF6259" points="556.9,280 388.3,436.6 364.1,464.5 559.5,283 			"/>
			<path fill="#FF6259" d="M320.6,499.6L173.7,636l1.2,4.3l150-139.4C323.4,500.8,322,500.3,320.6,499.6z"/>
			<polygon fill="#FF6159" points="559.5,283 364.1,464.5 340,492.4 562.1,286 			"/>
			<path fill="#FF6159" d="M326.3,501.1c-0.5,0-1,0-1.5-0.1l-150,139.4l1.2,4.3l156.3-145.2C330.7,500.3,328.7,501.1,326.3,501.1z"
				/>
			<path fill="#FF6059" d="M562.1,286L340,492.4l-3.3,3.8c0,0-1.7,1.8-4.3,3.2L176.1,644.7l1.2,4.3l387.4-360L562.1,286z"/>
			<polygon fill="#FF5F59" points="564.7,289 177.3,649 178.6,653.3 567.4,292 			"/>
			<polygon fill="#FF5E59" points="567.4,292 178.6,653.3 179.8,657.6 570,295 			"/>
			<polygon fill="#FF5D59" points="570,295 179.8,657.6 181,661.9 572.6,298 			"/>
			<polygon fill="#FF5C59" points="572.6,298 181,661.9 182.2,666.2 575.2,301 			"/>
			<path fill="#FF5B59" d="M575.2,301l-393,365.2l0.2,0.6c0.3,1.1,0.7,2.2,1.3,3.5L577.8,304L575.2,301z"/>
			<path fill="#FF5A59" d="M577.8,304L183.7,670.3c0.5,1.2,1.2,2.4,1.9,3.7l394.9-367L577.8,304z"/>
			<path fill="#FF5959" d="M580.5,307L185.6,674c0.7,1.1,1.4,2.2,2.3,3.3l395.2-367.2L580.5,307z"/>
			<path fill="#FF5859" d="M583.1,310.1L187.9,677.3c0.8,1,1.7,2,2.7,2.9l395.1-367.1L583.1,310.1z"/>
			<path fill="#FF5759" d="M585.7,313.1L190.6,680.2c0.9,0.9,2,1.8,3.1,2.6l394.6-366.7L585.7,313.1z"/>
			<path fill="#FF5659" d="M588.3,316.1L193.7,682.8c1.1,0.8,2.3,1.5,3.6,2.1L591,319.1L588.3,316.1z"/>
			<path fill="#FF5559" d="M591,319.1L197.3,684.9c1.3,0.6,2.6,1.2,4.1,1.6l392.2-364.4L591,319.1z"/>
			<path fill="#FF5459" d="M593.6,322.1L201.4,686.5c1.5,0.5,3.1,0.8,4.8,1l390-362.4L593.6,322.1z"/>
			<path fill="#FF5359" d="M596.2,325.1l-390,362.4c1.2,0.1,2.4,0.2,3.6,0.2h2l387-359.6L596.2,325.1z"/>
			<polygon fill="#FF5259" points="598.8,328.1 211.8,687.8 217.6,687.8 601.4,331.1 			"/>
			<polygon fill="#FF5159" points="601.4,331.1 217.6,687.8 223.5,687.8 604.1,334.1 			"/>
			<polygon fill="#FF5059" points="604.1,334.1 223.5,687.8 229.4,687.8 606.7,337.2 			"/>
			<polygon fill="#FF4F59" points="606.7,337.2 229.4,687.8 235.2,687.8 609.3,340.2 			"/>
			<polygon fill="#FF4E59" points="609.3,340.2 235.2,687.8 241.1,687.8 611.9,343.2 			"/>
			<polygon fill="#FF4D59" points="611.9,343.2 241.1,687.8 246.9,687.8 614.5,346.2 			"/>
			<polygon fill="#FF4C59" points="614.5,346.2 246.9,687.8 252.8,687.8 617.2,349.2 			"/>
			<polygon fill="#FF4B59" points="617.2,349.2 252.8,687.8 258.7,687.8 619.8,352.2 			"/>
			<polygon fill="#FF4A59" points="619.8,352.2 258.7,687.8 264.5,687.8 622.4,355.2 			"/>
			<polygon fill="#FF4959" points="622.4,355.2 264.5,687.8 270.4,687.8 625,358.2 			"/>
			<polygon fill="#FF4859" points="625,358.2 270.4,687.8 276.2,687.8 627.6,361.2 			"/>
			<polygon fill="#FF4759" points="627.6,361.2 276.2,687.8 282.1,687.8 630.3,364.2 			"/>
			<polygon fill="#FF4659" points="630.3,364.2 282.1,687.8 288,687.8 632.9,367.3 			"/>
			<polygon fill="#FF4559" points="632.9,367.3 288,687.8 293.8,687.8 635.5,370.3 			"/>
			<polygon fill="#FF4459" points="635.5,370.3 293.8,687.8 299.7,687.8 638.1,373.3 			"/>
			<polygon fill="#FF4359" points="638.1,373.3 299.7,687.8 305.5,687.8 640.7,376.3 			"/>
			<polygon fill="#FF4259" points="640.7,376.3 305.5,687.8 311.4,687.8 643.4,379.3 			"/>
			<polygon fill="#FF4159" points="643.4,379.3 311.4,687.8 317.3,687.8 646,382.3 			"/>
			<polygon fill="#FF4059" points="646,382.3 317.3,687.8 323.1,687.8 648.6,385.3 			"/>
			<polygon fill="#FF3F59" points="648.6,385.3 323.1,687.8 329,687.8 651.2,388.3 			"/>
			<polygon fill="#FF3E59" points="651.2,388.3 329,687.8 334.8,687.8 653.8,391.3 			"/>
			<polygon fill="#FF3D59" points="653.8,391.3 334.8,687.8 340.7,687.8 656.5,394.4 			"/>
			<polygon fill="#FF3C59" points="656.5,394.4 340.7,687.8 346.6,687.8 659.1,397.4 			"/>
			<polygon fill="#FF3B59" points="659.1,397.4 346.6,687.8 352.4,687.8 661.7,400.4 			"/>
			<polygon fill="#FF3958" points="661.7,400.4 352.4,687.8 358.3,687.8 664.3,403.4 			"/>
			<polygon fill="#FF3858" points="664.3,403.4 358.3,687.8 364.2,687.8 667,406.4 			"/>
			<polygon fill="#FF3758" points="667,406.4 364.2,687.8 370,687.8 669.6,409.4 			"/>
			<polygon fill="#FF3658" points="669.6,409.4 370,687.8 375.9,687.8 672.2,412.4 			"/>
			<polygon fill="#FF3558" points="672.2,412.4 375.9,687.8 381.7,687.8 674.8,415.4 			"/>
			<polygon fill="#FF3458" points="674.8,415.4 381.7,687.8 387.6,687.8 677.4,418.4 			"/>
			<polygon fill="#FF3358" points="677.4,418.4 387.6,687.8 393.5,687.8 680.1,421.4 			"/>
			<polygon fill="#FF3258" points="680.1,421.4 393.5,687.8 399.3,687.8 682.7,424.5 			"/>
			<polygon fill="#FF3158" points="682.7,424.5 399.3,687.8 405.2,687.8 685.3,427.5 			"/>
			<polygon fill="#FF3058" points="685.3,427.5 405.2,687.8 411,687.8 687.9,430.5 			"/>
			<polygon fill="#FF2F58" points="687.9,430.5 411,687.8 416.9,687.8 690.5,433.5 			"/>
			<polygon fill="#FF2E58" points="690.5,433.5 416.9,687.8 422.8,687.8 693.2,436.5 			"/>
			<polygon fill="#FF2D58" points="693.2,436.5 422.8,687.8 428.6,687.8 695.8,439.5 			"/>
			<polygon fill="#FF2C58" points="695.8,439.5 428.6,687.8 434.5,687.8 698.4,442.5 			"/>
			<polygon fill="#FF2B58" points="698.4,442.5 434.5,687.8 440.3,687.8 701,445.5 			"/>
			<polygon fill="#FF2A58" points="701,445.5 440.3,687.8 446.2,687.8 703.6,448.5 			"/>
			<polygon fill="#FF2958" points="703.6,448.5 446.2,687.8 452.1,687.8 706.3,451.5 			"/>
			<polygon fill="#FF2858" points="706.3,451.5 452.1,687.8 457.9,687.8 708.9,454.6 			"/>
			<polygon fill="#FF2758" points="708.9,454.6 457.9,687.8 463.8,687.8 711.5,457.6 			"/>
			<polygon fill="#FF2658" points="711.5,457.6 463.8,687.8 469.6,687.8 714.1,460.6 			"/>
			<polygon fill="#FF2558" points="714.1,460.6 469.6,687.8 475.5,687.8 716.7,463.6 			"/>
			<polygon fill="#FF2458" points="716.7,463.6 475.5,687.8 481.4,687.8 719.4,466.6 			"/>
			<polygon fill="#FF2358" points="719.4,466.6 481.4,687.8 487.2,687.8 722,469.6 			"/>
			<polygon fill="#FF2258" points="722,469.6 487.2,687.8 493.1,687.8 724.6,472.6 			"/>
			<polygon fill="#FF2158" points="724.6,472.6 493.1,687.8 498.9,687.8 727.2,475.6 			"/>
			<polygon fill="#FF2058" points="727.2,475.6 498.9,687.8 504.8,687.8 729.9,478.6 			"/>
			<polygon fill="#FF1F58" points="729.9,478.6 504.8,687.8 510.7,687.8 732.5,481.7 			"/>
			<polygon fill="#FF1E58" points="732.5,481.7 510.7,687.8 516.5,687.8 735.1,484.7 			"/>
			<polygon fill="#FF1D58" points="735.1,484.7 516.5,687.8 522.4,687.8 737.7,487.7 			"/>
			<polygon fill="#FF1C58" points="737.7,487.7 522.4,687.8 528.2,687.8 740.3,490.7 			"/>
			<polygon fill="#FF1B58" points="740.3,490.7 528.2,687.8 534.1,687.8 743,493.7 			"/>
			<polygon fill="#FF1A58" points="743,493.7 534.1,687.8 540,687.8 745.6,496.7 			"/>
			<path fill="#FF1958" d="M745.7,496.8l-0.1-0.1L540,687.8h5.9l202.7-188.3C747.5,498.8,746.6,497.9,745.7,496.8z"/>
			<path fill="#FF1858" d="M748.5,499.5L545.8,687.8h5.9l200.7-186.5C751,500.9,749.7,500.3,748.5,499.5z"/>
			<path fill="#FF1758" d="M754.9,501.6c-0.9,0-1.7-0.1-2.5-0.3L551.7,687.8h5.9l200.9-186.7C757.4,501.4,756.2,501.6,754.9,501.6z"
				/>
			<path fill="#FF1658" d="M763,499.2c0,0-1.9,1.2-4.5,1.9L557.6,687.8h5.9l211.9-196.9L763,499.2z"/>
			<polygon fill="#FF1558" points="775.3,490.8 563.4,687.8 569.3,687.8 797,476.2 			"/>
			<polygon fill="#FF1458" points="797,476.2 569.3,687.8 575.1,687.8 818.6,461.5 			"/>
			<polygon fill="#FF1358" points="818.6,461.5 575.1,687.8 581,687.8 840.3,446.8 			"/>
			<polygon fill="#FF1258" points="840.3,446.8 581,687.8 586.9,687.8 861.9,432.2 			"/>
			<polygon fill="#FF1158" points="861.9,432.2 586.9,687.8 592.7,687.8 883.6,417.5 			"/>
			<polygon fill="#FF1058" points="883.6,417.5 592.7,687.8 598.6,687.8 905.2,402.8 			"/>
			<polygon fill="#FF0F58" points="905.2,402.8 598.6,687.8 604.4,687.8 926.9,388.1 			"/>
			<polygon fill="#FF0E58" points="926.9,388.1 604.4,687.8 610.3,687.8 948.5,373.5 			"/>
			<path fill="#FF0D58" d="M958.8,366.5l-10.2,6.9L610.3,687.8h5.9l349.3-324.5C963.4,363.8,961.1,364.9,958.8,366.5z"/>
			<path fill="#FF0C58" d="M965.4,363.2L616.2,687.8h5.9l349.7-324.9C969.8,362.4,967.8,362.5,965.4,363.2z"/>
			<path fill="#FF0B58" d="M971.7,362.9L622,687.8h5.9l347.5-322.9C974.3,363.9,973.1,363.2,971.7,362.9z"/>
			<path fill="#FF0A58" d="M976.5,366c-0.3-0.4-0.7-0.8-1.1-1.2l-347.5,323h5.9l344-319.6C977.4,367.4,977,366.7,976.5,366z"/>
			<path fill="#FF0958" d="M977.7,368.1l-344,319.6h5.9l339.2-315.2C978.7,371,978.4,369.5,977.7,368.1z"/>
			<path fill="#FF0858" d="M978.8,372.5L639.6,687.8h5.9l333.2-309.6C978.9,376.7,979,374.6,978.8,372.5z"/>
			<path fill="#FF0758" d="M978.3,380c0.1-0.4,0.2-1.1,0.3-1.8L645.5,687.8h5.9l325.5-302.4L978.3,380z"/>
			<polygon fill="#FF0658" points="976.8,385.3 651.3,687.8 657.2,687.8 974.8,392.7 			"/>
			<polygon fill="#FF0558" points="974.8,392.7 657.2,687.8 663,687.8 972.7,400 			"/>
			<polygon fill="#FF0458" points="972.7,400 663,687.8 668.9,687.8 970.7,407.4 			"/>
			<polygon fill="#FF0358" points="970.7,407.4 668.9,687.8 674.8,687.8 968.6,414.7 			"/>
			<polygon fill="#FF0258" points="968.6,414.7 674.8,687.8 680.6,687.8 966.6,422 			"/>
			<polygon fill="#FF0158" points="966.6,422 680.6,687.8 686.5,687.8 964.5,429.4 			"/>
			<polygon fill="#FF0058" points="964.5,429.4 686.5,687.8 692.3,687.8 962.5,436.7 			"/>
			<path fill="#FF0058" d="M898.6,666.5l63.9-229.7l-270.1,251h179.4C879.3,687.8,894.7,683.3,898.6,666.5z"/>
		</g>
	</g>
	<g>
		<g>
			<path fill="#FF7459" d="M191.4,754.6V792c0,4.4,1.7,10,6,13.8v-65C193.9,743.7,191.4,748.2,191.4,754.6z"/>
			<path fill="#FF7359" d="M197.4,740.9v65c1.6,1.4,3.6,2.6,6,3.4v-71.7C201.3,738.3,199.2,739.3,197.4,740.9z"/>
			<path fill="#FF7259" d="M203.4,737.6v71.7c1.8,0.6,3.8,0.9,6,0.9v-73.6C207.5,736.5,205.5,736.9,203.4,737.6z"/>
			<path fill="#FF7159" d="M209.5,736.5C209.4,736.5,209.4,736.5,209.5,736.5l-0.1,73.6h0.1h5.9v-73.6H209.5z"/>
			<rect x="215.4" y="736.5" fill="#FF7059" width="6" height="73.6"/>
			<rect x="221.4" y="736.5" fill="#FF6F59" width="6" height="73.6"/>
			<rect x="227.4" y="736.5" fill="#FF6E59" width="6" height="73.6"/>
			<rect x="233.4" y="736.5" fill="#FF6D59" width="6" height="73.6"/>
			<rect x="239.4" y="736.5" fill="#FF6C59" width="6" height="73.6"/>
			<rect x="245.4" y="736.5" fill="#FF6B59" width="6" height="73.6"/>
			<rect x="251.4" y="736.5" fill="#FF6A59" width="6" height="73.6"/>
			<rect x="257.4" y="736.5" fill="#FF6959" width="6" height="73.6"/>
			<rect x="263.4" y="736.5" fill="#FF6859" width="6" height="73.6"/>
			<rect x="269.4" y="736.5" fill="#FF6759" width="6" height="73.6"/>
			<rect x="275.4" y="736.5" fill="#FF6659" width="6" height="73.6"/>
			<rect x="281.4" y="736.5" fill="#FF6559" width="6" height="73.6"/>
			<rect x="287.4" y="736.5" fill="#FF6459" width="6" height="73.6"/>
			<rect x="293.4" y="736.5" fill="#FF6359" width="6" height="73.6"/>
			<rect x="299.5" y="736.5" fill="#FF6259" width="6" height="73.6"/>
			<rect x="305.5" y="736.5" fill="#FF6159" width="6" height="73.6"/>
			<rect x="311.5" y="736.5" fill="#FF6059" width="6" height="73.6"/>
			<rect x="317.5" y="736.5" fill="#FF5F59" width="6" height="73.6"/>
			<rect x="323.5" y="736.5" fill="#FF5E59" width="6" height="73.6"/>
			<rect x="329.5" y="736.5" fill="#FF5D59" width="6" height="73.6"/>
			<rect x="335.5" y="736.5" fill="#FF5C59" width="6" height="73.6"/>
			<rect x="341.5" y="736.5" fill="#FF5B59" width="6" height="73.6"/>
			<rect x="347.5" y="736.5" fill="#FF5A59" width="6" height="73.6"/>
			<rect x="353.5" y="736.5" fill="#FF5959" width="6" height="73.6"/>
			<rect x="359.5" y="736.5" fill="#FF5859" width="6" height="73.6"/>
			<rect x="365.5" y="736.5" fill="#FF5759" width="6" height="73.6"/>
			<rect x="371.5" y="736.5" fill="#FF5659" width="6" height="73.6"/>
			<rect x="377.5" y="736.5" fill="#FF5559" width="6" height="73.6"/>
			<rect x="383.5" y="736.5" fill="#FF5459" width="6" height="73.6"/>
			<rect x="389.5" y="736.5" fill="#FF5359" width="6" height="73.6"/>
			<rect x="395.5" y="736.5" fill="#FF5259" width="6" height="73.6"/>
			<rect x="401.5" y="736.5" fill="#FF5159" width="6" height="73.6"/>
			<rect x="407.5" y="736.5" fill="#FF5059" width="6" height="73.6"/>
			<rect x="413.5" y="736.5" fill="#FF4F59" width="6" height="73.6"/>
			<rect x="419.5" y="736.5" fill="#FF4E59" width="6" height="73.6"/>
			<rect x="425.5" y="736.5" fill="#FF4D59" width="6" height="73.6"/>
			<rect x="431.5" y="736.5" fill="#FF4C59" width="6" height="73.6"/>
			<rect x="437.5" y="736.5" fill="#FF4B59" width="6" height="73.6"/>
			<rect x="443.5" y="736.5" fill="#FF4A59" width="6" height="73.6"/>
			<rect x="449.5" y="736.5" fill="#FF4959" width="6" height="73.6"/>
			<rect x="455.5" y="736.5" fill="#FF4859" width="6.1" height="73.6"/>
			<rect x="461.6" y="736.5" fill="#FF4759" width="6" height="73.6"/>
			<rect x="467.6" y="736.5" fill="#FF4659" width="6" height="73.6"/>
			<rect x="473.6" y="736.5" fill="#FF4559" width="6" height="73.6"/>
			<rect x="479.6" y="736.5" fill="#FF4459" width="6" height="73.6"/>
			<rect x="485.6" y="736.5" fill="#FF4359" width="6" height="73.6"/>
			<rect x="491.6" y="736.5" fill="#FF4259" width="6" height="73.6"/>
			<rect x="497.6" y="736.5" fill="#FF4159" width="6" height="73.6"/>
			<rect x="503.6" y="736.5" fill="#FF4059" width="6" height="73.6"/>
			<rect x="509.6" y="736.5" fill="#FF3F59" width="6" height="73.6"/>
			<rect x="515.6" y="736.5" fill="#FF3E59" width="6" height="73.6"/>
			<rect x="521.6" y="736.5" fill="#FF3D59" width="6" height="73.6"/>
			<rect x="527.6" y="736.5" fill="#FF3C59" width="6" height="73.6"/>
			<rect x="533.6" y="736.5" fill="#FF3B59" width="6" height="73.6"/>
			<rect x="539.6" y="736.5" fill="#FF3958" width="6" height="73.6"/>
			<rect x="545.6" y="736.5" fill="#FF3858" width="6" height="73.6"/>
			<rect x="551.6" y="736.5" fill="#FF3758" width="6" height="73.6"/>
			<rect x="557.6" y="736.5" fill="#FF3658" width="6" height="73.6"/>
			<rect x="563.6" y="736.5" fill="#FF3558" width="6" height="73.6"/>
			<rect x="569.6" y="736.5" fill="#FF3458" width="6" height="73.6"/>
			<rect x="575.6" y="736.5" fill="#FF3358" width="6" height="73.6"/>
			<rect x="581.6" y="736.5" fill="#FF3258" width="6" height="73.6"/>
			<rect x="587.6" y="736.5" fill="#FF3158" width="6" height="73.6"/>
			<rect x="593.6" y="736.5" fill="#FF3058" width="6" height="73.6"/>
			<rect x="599.6" y="736.5" fill="#FF2F58" width="6" height="73.6"/>
			<rect x="605.6" y="736.5" fill="#FF2E58" width="6" height="73.6"/>
			<rect x="611.6" y="736.5" fill="#FF2D58" width="6.1" height="73.6"/>
			<rect x="617.7" y="736.5" fill="#FF2C58" width="6" height="73.6"/>
			<rect x="623.7" y="736.5" fill="#FF2B58" width="6" height="73.6"/>
			<rect x="629.7" y="736.5" fill="#FF2A58" width="6" height="73.6"/>
			<rect x="635.7" y="736.5" fill="#FF2958" width="6" height="73.6"/>
			<rect x="641.7" y="736.5" fill="#FF2858" width="6" height="73.6"/>
			<rect x="647.7" y="736.5" fill="#FF2758" width="6" height="73.6"/>
			<rect x="653.7" y="736.5" fill="#FF2658" width="6" height="73.6"/>
			<rect x="659.7" y="736.5" fill="#FF2558" width="6" height="73.6"/>
			<rect x="665.7" y="736.5" fill="#FF2458" width="6" height="73.6"/>
			<rect x="671.7" y="736.5" fill="#FF2358" width="6" height="73.6"/>
			<rect x="677.7" y="736.5" fill="#FF2258" width="6" height="73.6"/>
			<rect x="683.7" y="736.5" fill="#FF2158" width="6" height="73.6"/>
			<rect x="689.7" y="736.5" fill="#FF2058" width="6" height="73.6"/>
			<rect x="695.7" y="736.5" fill="#FF1F58" width="6" height="73.6"/>
			<rect x="701.7" y="736.5" fill="#FF1E58" width="6" height="73.6"/>
			<rect x="707.7" y="736.5" fill="#FF1D58" width="6" height="73.6"/>
			<rect x="713.7" y="736.5" fill="#FF1C58" width="6" height="73.6"/>
			<rect x="719.7" y="736.5" fill="#FF1B58" width="6" height="73.6"/>
			<rect x="725.7" y="736.5" fill="#FF1A58" width="6" height="73.6"/>
			<rect x="731.7" y="736.5" fill="#FF1958" width="6" height="73.6"/>
			<rect x="737.7" y="736.5" fill="#FF1858" width="6" height="73.6"/>
			<rect x="743.7" y="736.5" fill="#FF1758" width="6" height="73.6"/>
			<rect x="749.7" y="736.5" fill="#FF1658" width="6" height="73.6"/>
			<rect x="755.7" y="736.5" fill="#FF1558" width="6" height="73.6"/>
			<rect x="761.7" y="736.5" fill="#FF1458" width="6" height="73.6"/>
			<rect x="767.7" y="736.5" fill="#FF1358" width="6.1" height="73.6"/>
			<rect x="773.8" y="736.5" fill="#FF1258" width="6" height="73.6"/>
			<rect x="779.8" y="736.5" fill="#FF1158" width="6" height="73.6"/>
			<rect x="785.8" y="736.5" fill="#FF1058" width="6" height="73.6"/>
			<rect x="791.8" y="736.5" fill="#FF0F58" width="6" height="73.6"/>
			<rect x="797.8" y="736.5" fill="#FF0E58" width="6" height="73.6"/>
			<rect x="803.8" y="736.5" fill="#FF0D58" width="6" height="73.6"/>
			<rect x="809.8" y="736.5" fill="#FF0C58" width="6" height="73.6"/>
			<rect x="815.8" y="736.5" fill="#FF0B58" width="6" height="73.6"/>
			<rect x="821.8" y="736.5" fill="#FF0A58" width="6" height="73.6"/>
			<rect x="827.8" y="736.5" fill="#FF0958" width="6" height="73.6"/>
			<rect x="833.8" y="736.5" fill="#FF0858" width="6" height="73.6"/>
			<rect x="839.8" y="736.5" fill="#FF0758" width="6" height="73.6"/>
			<rect x="845.8" y="736.5" fill="#FF0658" width="6" height="73.6"/>
			<rect x="851.8" y="736.5" fill="#FF0558" width="6" height="73.6"/>
			<rect x="857.8" y="736.5" fill="#FF0458" width="6" height="73.6"/>
			<path fill="#FF0358" d="M869.7,736.5h-5.9v73.6h5.9h0.1L869.7,736.5C869.8,736.5,869.8,736.5,869.7,736.5z"/>
			<path fill="#FF0258" d="M869.8,736.5v73.6c1.9,0,3.9-0.3,6-1v-71.7C874,736.9,872.1,736.5,869.8,736.5z"/>
			<path fill="#FF0158" d="M875.8,737.4v71.7c2.1-0.7,4.2-1.8,6-3.3v-65C880.2,739.3,878.2,738.2,875.8,737.4z"/>
			<path fill="#FF0058" d="M881.8,740.8v65c3.5-2.9,6-7.3,6-13.8v-37.4C887.8,750.2,886.1,744.6,881.8,740.8z"/>
		</g>
	</g>
</g>
</svg>
