<?xml version="1.0" encoding="utf-8"?>
<!-- Generator: Adobe Illustrator 27.4.0, SVG Export Plug-In . SVG Version: 6.00 Build 0)  -->
<svg version="1.2" baseProfile="tiny-ps" id="Layer_1" xmlns="http://www.w3.org/2000/svg" xmlns:xlink="http://www.w3.org/1999/xlink"
	 viewBox="0 0 233.35 233.35" xml:space="preserve">
<title>Green Paper Products</title>
<g>
	<rect fill="#FFFFFF" width="233.35" height="233.35"/>
	<g>
		<g>
			<path fill-rule="evenodd" fill="#5AA429" d="M202.9,108.48c0,0-7.52-10.3-11.34-16.12c-3.82-5.82-17.23-27.59-24.22-32.91
				c-6.98-5.32-14.46-9.14-27.26-14.63c-12.8-5.49-34.62-6.98-46.92-6.65c-12.3,0.34-46.86,4.99-64.82,20.45
				c12.3,12.96,24.27,25.26,28.76,30.42c4.48,5.15,29.74,30.41,53.34,39.89c23.6,9.48,28.92,9.81,40.22,8.98
				C161.98,137.08,188.97,122.79,202.9,108.48L202.9,108.48z"/>
			<path fill-rule="evenodd" fill="#16290A" d="M193.7,91.2c0,0,1.98-1.1,1.54-5.95s-12.15-23.48-20.19-33.59
				c-8.03-10.12-36.3-31.64-80.65-27.23c-11.15,0.78-44.35,10.37-50.31,12.7c-5.97,2.34-15.3,4.93-16.6,7.26
				c5.96,7.26,42.27,51.09,51.09,57.31c8.82,6.22,28.27,24.64,55.24,26.97c26.97,2.34,42.53-5.19,60.95-17.63
				c-1.56-8.04-3.04-10.47-3.04-10.47s-4.78-4.61-14.5-9.3c-9.73-4.69-27.6-12.33-37.41-14.85c-9.81-2.52-35.97-9.29-39.62-9.29
				c-3.65,0-11.9,2.78-2.43,4.96c9.47,2.18,38.21,7.39,57.84,19.64c19.63,12.24,24.05,14.42,23.45,16.16
				c-0.61,1.75-12.33,7.74-19.11,9.03c-6.76,1.32-15.63,6.6-36.64-2c-21.02-8.58-37.7-19.28-49.08-28.9
				c-11.38-9.65-24.22-23.8-26.4-27.17c-2.16-3.39-5.9-9.11-5.03-12.59c4.17-2.25,17.2-8.76,33.52-9.29
				c16.34-0.52,31.18-2.43,45.17,0.18s25.82,7.63,38.53,15.42c12.73,7.81,17.62,15.07,21.17,20.84
				c3.57,5.77,10.84,15.87,12.55,17.85L193.7,91.2z"/>
			<g>
				<path fill="#16290A" d="M192.17,137.39c-0.91,0-1.76-0.17-2.55-0.52c-0.79-0.34-1.49-0.81-2.08-1.41
					c-0.59-0.59-1.06-1.29-1.41-2.08c-0.35-0.79-0.52-1.65-0.52-2.55c0-0.9,0.17-1.74,0.52-2.54c0.35-0.79,0.81-1.48,1.41-2.07
					s1.29-1.05,2.08-1.4c0.79-0.35,1.65-0.52,2.55-0.52c0.9,0,1.74,0.17,2.54,0.52c0.79,0.35,1.49,0.81,2.08,1.4s1.06,1.28,1.4,2.07
					c0.34,0.79,0.51,1.64,0.51,2.54c0,0.91-0.17,1.76-0.51,2.55c-0.34,0.79-0.81,1.49-1.4,2.08c-0.59,0.59-1.29,1.06-2.08,1.41
					C193.91,137.22,193.07,137.39,192.17,137.39z M192.17,136.53c0.79,0,1.53-0.15,2.2-0.44c0.67-0.29,1.25-0.7,1.73-1.21
					c0.48-0.51,0.86-1.11,1.14-1.8c0.28-0.69,0.41-1.44,0.41-2.24c0-0.79-0.14-1.54-0.41-2.23c-0.28-0.69-0.66-1.29-1.14-1.79
					c-0.48-0.51-1.06-0.91-1.73-1.2c-0.67-0.29-1.41-0.44-2.2-0.44c-0.79,0-1.53,0.15-2.21,0.44c-0.68,0.29-1.26,0.69-1.75,1.2
					c-0.49,0.51-0.87,1.1-1.15,1.79c-0.28,0.69-0.41,1.43-0.41,2.23c0,0.81,0.14,1.55,0.41,2.24c0.28,0.69,0.66,1.29,1.15,1.8
					c0.49,0.51,1.07,0.91,1.75,1.21C190.64,136.38,191.37,136.53,192.17,136.53z M195.43,134.49h-1.07l-2.09-3.37h-1.64v3.37h-0.9
					v-7.3h3.19c0.97,0,1.64,0.17,2.02,0.52c0.38,0.35,0.57,0.82,0.57,1.42c0,0.36-0.06,0.66-0.17,0.91
					c-0.12,0.25-0.28,0.46-0.48,0.61c-0.21,0.16-0.45,0.27-0.73,0.34c-0.28,0.07-0.58,0.12-0.91,0.13L195.43,134.49z M192,130.42
					c0.25,0,0.53,0,0.83,0c0.3,0,0.58-0.03,0.84-0.1c0.26-0.07,0.47-0.19,0.64-0.38c0.17-0.18,0.25-0.46,0.25-0.83
					c0-0.29-0.06-0.51-0.16-0.68c-0.11-0.17-0.25-0.29-0.42-0.38c-0.17-0.09-0.37-0.14-0.59-0.17c-0.22-0.03-0.44-0.04-0.66-0.04
					h-2.09v2.59H192z"/>
			</g>
		</g>
		<g>
			<g>
				<g>
					<path fill="#5AA429" d="M48.22,156.26l-2.89,2.58c-1.83-1.75-3.96-2.62-6.39-2.62c-2.12,0-3.9,0.64-5.33,1.91
						c-1.43,1.27-2.15,2.82-2.15,4.64c0,1.88,0.74,3.48,2.23,4.78c1.49,1.31,3.32,1.96,5.5,1.96c1.42,0,2.61-0.27,3.59-0.81
						c0.97-0.54,1.76-1.38,2.35-2.53h-6.24v-3.48h10.84l0.03,0.82c0,1.7-0.49,3.32-1.47,4.85s-2.24,2.69-3.79,3.5
						c-1.55,0.8-3.37,1.21-5.46,1.21c-2.24,0-4.23-0.44-5.98-1.32c-1.75-0.88-3.14-2.13-4.16-3.76c-1.02-1.62-1.53-3.38-1.53-5.26
						c0-2.58,0.94-4.82,2.83-6.73c2.24-2.27,5.15-3.4,8.73-3.4c1.87,0,3.63,0.31,5.26,0.94C45.55,154.06,46.9,154.97,48.22,156.26z"
						/>
					<path fill="#5AA429" d="M52.3,153.08h4.35c2.38,0,4.07,0.19,5.08,0.58c1.01,0.38,1.82,1.02,2.44,1.91
						c0.61,0.89,0.92,1.95,0.92,3.17c0,1.28-0.34,2.35-1.02,3.21c-0.68,0.86-1.7,1.51-3.07,1.95l5.1,8.66h-4.48l-4.85-8.25H56.4
						v8.25h-4.1V153.08z M56.4,160.7h1.28c1.3,0,2.2-0.16,2.69-0.47c0.49-0.31,0.74-0.82,0.74-1.54c0-0.43-0.12-0.8-0.37-1.11
						c-0.24-0.31-0.57-0.54-0.98-0.68c-0.41-0.14-1.16-0.21-2.25-0.21H56.4V160.7z"/>
					<path fill="#5AA429" d="M67.94,153.08H79.7v3.63h-7.69v3.52h7.69v3.56h-7.69v5.13h7.69v3.64H67.94V153.08z"/>
					<path fill="#5AA429" d="M82.04,153.08H93.8v3.63h-7.69v3.52h7.69v3.56h-7.69v5.13h7.69v3.64H82.04V153.08z"/>
					<path fill="#5AA429" d="M96.14,153.08h3.93l9.22,12.82v-12.82h4.1v19.49h-3.95l-9.21-12.78v12.78h-4.1V153.08z"/>
					<path fill="#38683D" d="M123.86,153.08h4.29c2.46,0,4.12,0.1,4.98,0.29c1.23,0.27,2.24,0.84,3.02,1.69
						c0.78,0.85,1.17,1.92,1.17,3.21c0,1.3-0.38,2.37-1.14,3.21c-0.76,0.84-1.81,1.41-3.15,1.7c-0.98,0.21-2.8,0.32-5.48,0.32h-1.54
						v9.06h-2.15V153.08z M126.01,154.99v6.61l3.65,0.04c1.47,0,2.55-0.12,3.24-0.36c0.68-0.24,1.22-0.63,1.61-1.18
						c0.39-0.54,0.59-1.15,0.59-1.82c0-0.65-0.2-1.25-0.59-1.79c-0.39-0.54-0.91-0.93-1.55-1.16c-0.64-0.23-1.69-0.34-3.14-0.34
						H126.01z"/>
					<path fill="#38683D" d="M146.7,153.08l10.05,19.49h-2.33l-3.39-6.41h-9.28l-3.36,6.41h-2.4l10.18-19.49H146.7z M146.43,157.22
						l-3.69,7.05h7.37L146.43,157.22z"/>
					<path fill="#38683D" d="M158.58,153.08h4.29c2.46,0,4.12,0.1,4.98,0.29c1.23,0.27,2.24,0.84,3.02,1.69
						c0.78,0.85,1.17,1.92,1.17,3.21c0,1.3-0.38,2.37-1.14,3.21c-0.76,0.84-1.81,1.41-3.15,1.7c-0.98,0.21-2.8,0.32-5.48,0.32h-1.54
						v9.06h-2.15V153.08z M160.73,154.99v6.61l3.65,0.04c1.47,0,2.55-0.12,3.24-0.36s1.22-0.63,1.61-1.18
						c0.39-0.54,0.59-1.15,0.59-1.82c0-0.65-0.2-1.25-0.59-1.79c-0.39-0.54-0.91-0.93-1.55-1.16c-0.64-0.23-1.69-0.34-3.14-0.34
						H160.73z"/>
					<path fill="#38683D" d="M174.86,153.08h12.35v1.91h-10.2v6.11h10.11V163h-10.11v7.66h10.11v1.91h-12.26V153.08z"/>
					<path fill="#38683D" d="M189.54,153.08h4.29c2.39,0,4.01,0.09,4.86,0.27c1.28,0.27,2.32,0.83,3.12,1.7
						c0.8,0.87,1.2,1.94,1.2,3.22c0,1.06-0.28,1.99-0.83,2.8c-0.55,0.8-1.34,1.41-2.37,1.82c-1.03,0.41-2.44,0.62-4.25,0.63
						l7.75,9.05h-2.66l-7.75-9.05h-1.22v9.05h-2.15V153.08z M191.7,154.99v6.62l3.71,0.03c1.44,0,2.5-0.12,3.19-0.37
						s1.23-0.64,1.61-1.19c0.39-0.54,0.58-1.15,0.58-1.82c0-0.65-0.2-1.25-0.59-1.78c-0.39-0.53-0.91-0.92-1.54-1.15
						c-0.64-0.23-1.69-0.34-3.17-0.34H191.7z"/>
					<path fill="#38683D" d="M27.92,185.64h4.29c2.46,0,4.12,0.1,4.98,0.29c1.23,0.27,2.24,0.84,3.02,1.69
						c0.78,0.85,1.17,1.92,1.17,3.21c0,1.3-0.38,2.37-1.14,3.21c-0.76,0.84-1.81,1.41-3.15,1.7c-0.98,0.21-2.8,0.32-5.48,0.32h-1.54
						v9.06h-2.15V185.64z M30.07,187.55v6.61l3.65,0.04c1.47,0,2.55-0.12,3.24-0.36c0.68-0.24,1.22-0.63,1.61-1.18
						c0.39-0.54,0.59-1.15,0.59-1.82c0-0.65-0.2-1.25-0.59-1.79c-0.39-0.54-0.91-0.93-1.55-1.16c-0.64-0.23-1.69-0.34-3.14-0.34
						H30.07z"/>
					<path fill="#38683D" d="M49.25,185.64h4.29c2.39,0,4.01,0.09,4.86,0.27c1.28,0.27,2.32,0.83,3.12,1.7
						c0.8,0.87,1.2,1.94,1.2,3.22c0,1.06-0.28,1.99-0.83,2.8c-0.55,0.8-1.34,1.41-2.37,1.82c-1.03,0.41-2.44,0.62-4.25,0.63
						l7.75,9.05h-2.66l-7.75-9.05h-1.22v9.05h-2.15V185.64z M51.41,187.55v6.62l3.71,0.03c1.44,0,2.5-0.12,3.19-0.37
						c0.69-0.25,1.23-0.64,1.61-1.19s0.58-1.15,0.58-1.82c0-0.65-0.2-1.25-0.59-1.78c-0.39-0.53-0.91-0.92-1.54-1.15
						c-0.64-0.23-1.69-0.34-3.17-0.34H51.41z"/>
					<path fill="#38683D" d="M81.06,185.15c3.26,0,5.99,0.98,8.19,2.95c2.2,1.97,3.3,4.39,3.3,7.27c0,2.85-1.1,5.27-3.29,7.26
						c-2.19,1.99-4.87,2.98-8.03,2.98c-3.2,0-5.89-0.99-8.09-2.97c-2.2-1.98-3.3-4.37-3.3-7.18c0-1.87,0.5-3.61,1.5-5.21
						c1-1.6,2.37-2.85,4.1-3.76C77.17,185.6,79.04,185.15,81.06,185.15z M81.15,187.04c-1.59,0-3.11,0.38-4.53,1.13
						c-1.43,0.75-2.54,1.76-3.35,3.04c-0.8,1.27-1.2,2.69-1.2,4.26c0,2.32,0.89,4.27,2.66,5.87c1.78,1.6,3.91,2.39,6.42,2.39
						c1.67,0,3.22-0.37,4.64-1.1c1.42-0.73,2.53-1.74,3.33-3.01c0.8-1.27,1.2-2.69,1.2-4.24c0-1.55-0.4-2.95-1.2-4.2
						c-0.8-1.25-1.92-2.25-3.37-3C84.31,187.42,82.77,187.04,81.15,187.04z"/>
					<path fill="#38683D" d="M100.32,205.13v-19.49h4.47c3.22,0,5.56,0.23,7.02,0.7c2.09,0.66,3.72,1.81,4.9,3.44
						c1.18,1.63,1.76,3.58,1.76,5.84c0,1.95-0.47,3.67-1.4,5.15c-0.93,1.48-2.14,2.58-3.63,3.29c-1.49,0.71-3.58,1.06-6.26,1.06
						H100.32z M102.38,203.28h2.49c2.98,0,5.04-0.17,6.2-0.5c1.62-0.48,2.89-1.33,3.82-2.57c0.93-1.24,1.39-2.76,1.39-4.55
						c0-1.88-0.5-3.49-1.51-4.82c-1-1.33-2.41-2.25-4.2-2.74c-1.35-0.37-3.57-0.56-6.66-0.56h-1.52V203.28z"/>
					<path fill="#38683D" d="M126.16,185.64h2.15v11.76c0,1.4,0.03,2.27,0.09,2.61c0.11,0.77,0.36,1.41,0.75,1.93
						c0.39,0.52,0.99,0.95,1.8,1.3c0.81,0.35,1.63,0.52,2.45,0.52c0.71,0,1.4-0.14,2.05-0.41c0.65-0.27,1.2-0.65,1.64-1.14
						c0.44-0.49,0.76-1.07,0.97-1.76c0.15-0.49,0.22-1.51,0.22-3.05v-11.76h2.15v11.76c0,1.74-0.19,3.15-0.56,4.22
						c-0.38,1.07-1.13,2.01-2.26,2.8c-1.13,0.8-2.49,1.19-4.09,1.19c-1.74,0-3.23-0.38-4.47-1.13c-1.24-0.75-2.07-1.74-2.49-2.98
						c-0.26-0.76-0.4-2.13-0.4-4.11V185.64z"/>
					<path fill="#38683D" d="M169.25,189.26l-1.7,1.18c-0.94-1.1-2.06-1.94-3.38-2.51c-1.31-0.57-2.76-0.85-4.33-0.85
						c-1.72,0-3.31,0.37-4.78,1.12c-1.47,0.75-2.6,1.75-3.41,3.01c-0.81,1.26-1.21,2.67-1.21,4.25c0,2.38,0.9,4.36,2.7,5.95
						c1.8,1.59,4.07,2.38,6.82,2.38c3.02,0,5.54-1.07,7.57-3.21l1.7,1.17c-1.07,1.24-2.41,2.19-4.02,2.87
						c-1.61,0.68-3.4,1.01-5.38,1.01c-3.77,0-6.74-1.13-8.92-3.4c-1.83-1.92-2.74-4.23-2.74-6.94c0-2.85,1.11-5.25,3.32-7.2
						c2.21-1.95,4.98-2.92,8.31-2.92c2.01,0,3.83,0.36,5.45,1.08C166.89,186.95,168.22,187.96,169.25,189.26z"/>
					<path fill="#38683D" d="M174.89,187.55v-1.91h11.81v1.91h-4.81v17.58h-2.2v-17.58H174.89z"/>
					<path fill="#38683D" d="M191.02,201.5l1.83-0.99c1.29,2.15,2.78,3.22,4.47,3.22c0.72,0,1.4-0.15,2.04-0.46
						c0.64-0.3,1.12-0.71,1.45-1.23c0.33-0.51,0.5-1.06,0.5-1.63c0-0.65-0.25-1.29-0.73-1.92c-0.67-0.86-1.9-1.91-3.69-3.13
						c-1.8-1.23-2.91-2.12-3.35-2.66c-0.76-0.92-1.14-1.91-1.14-2.98c0-0.85,0.22-1.62,0.67-2.32c0.45-0.7,1.08-1.25,1.9-1.65
						c0.82-0.4,1.7-0.6,2.66-0.6c1.02,0,1.96,0.23,2.85,0.68c0.88,0.46,1.82,1.29,2.81,2.51l-1.76,1.21
						c-0.81-0.97-1.5-1.61-2.07-1.92c-0.57-0.31-1.19-0.46-1.87-0.46c-0.87,0-1.58,0.24-2.13,0.72c-0.55,0.48-0.83,1.06-0.83,1.76
						c0,0.42,0.1,0.83,0.29,1.23s0.55,0.83,1.07,1.3c0.28,0.25,1.21,0.9,2.78,1.95c1.87,1.25,3.14,2.35,3.84,3.33
						c0.69,0.97,1.04,1.95,1.04,2.93c0,1.41-0.59,2.64-1.78,3.68c-1.19,1.04-2.63,1.56-4.33,1.56c-1.31,0-2.5-0.32-3.56-0.95
						C192.9,204.04,191.92,202.98,191.02,201.5z"/>
				</g>
			</g>
		</g>
	</g>
</g>
</svg>
