<?xml version="1.0" encoding="UTF-8" standalone="yes"?>
<svg version="1.2" baseProfile="tiny-ps" viewBox="0 0 104.9 104.9" xml:space="preserve" xmlns="http://www.w3.org/2000/svg">
  <title>Krug Champagne</title>
  <rect y="0" fill="#560028" width="104.9" height="104.9"/>
  <g>
    <path fill="#C1AA7D" d="M21.7,46.3c0-0.3,0.4-1.3,1.4-1.3c1,0,1.3,0.9,1.3,0.9c0.4-0.5,1-0.9,1.7-0.9c1.2,0,2,0.9,2.2,2.1&#xA;&#x9;&#x9;c-0.5-0.2-0.8-0.3-1.1-0.3c-0.7,0-1,0.3-1.8,1.2l-2.3,2.7l4.6,5.8c0.8,0.9,1.5,1.9,2.6,1.9c0.6,0,0.9-0.2,1-0.4l1,1&#xA;&#x9;&#x9;c-0.1,0.8-0.6,1.4-1.6,1.4c-0.6,0-1-0.2-1.5-0.8l-0.8-0.9l-1.6,1.5L25.6,59c-0.2,0.5-0.7,1.4-1.6,1.4c-0.6,0-1.1-0.1-2.1-1.4&#xA;&#x9;&#x9;c-0.3-0.3-0.4-0.7-0.4-0.8c0.2,0.2,0.5,0.4,0.9,0.4c0.5,0,0.7-0.5,0.7-0.9c0-0.5-0.6-1.2-0.8-1.5l-2-2.6h-1.8v3.7&#xA;&#x9;&#x9;c0,0.5,0.1,0.8,0.2,1.1c0.9,0,1.2-0.4,1.2-0.4l1,1c-0.1,0.8-0.9,1.4-1.6,1.4c-0.6,0-1.1-0.3-1.6-0.8c-0.4-0.4-0.7-0.8-0.7-0.8&#xA;&#x9;&#x9;l-1.4,1.5l-1.3-1.4c-0.2,0.6-0.8,1.5-1.7,1.5c-1,0-1.5-0.6-1.9-1.1c-0.3-0.3-0.6-0.7-0.6-1.1c0.3,0.2,0.6,0.3,1,0.3&#xA;&#x9;&#x9;c1,0,1.3-0.8,1.3-2.1v-8.3c0-0.5,0-0.9-0.1-1.3c-0.2,0-0.4-0.1-0.6-0.1c-0.3,0-0.6,0.1-0.9,0.3l-0.7-1c0.2-0.7,0.7-1.1,1.5-1.1&#xA;&#x9;&#x9;c1,0,1.4,0.6,1.6,1.5l1.7-1.7l1.7,1.7c0.3-0.9,0.8-1.5,1.8-1.5c0.8,0,1.4,0.3,2,0.9c0.3,0.3,0.6,0.6,0.6,1.2v0.1&#xA;&#x9;&#x9;c-0.3-0.2-0.7-0.4-1.2-0.4c-1,0-1.2,0.6-1.2,1.9v3h1l3.3-3.8c0.4-0.4,0.5-0.7,0.6-1.1c-0.1,0-0.2,0-0.3,0c-0.3,0-0.6,0.1-0.8,0.3&#xA;&#x9;&#x9;C22.4,47.1,21.7,46.4,21.7,46.3L21.7,46.3z M10.9,46.9c0.3-0.2,0.5-0.3,0.8-0.3c0.2,0,0.3,0,0.5,0.1c-0.2-0.5-0.5-0.8-1.1-0.8&#xA;&#x9;&#x9;c-0.3,0-0.6,0.1-0.9,0.2L10.9,46.9z M13.3,57.9c-0.1,0.4-0.6,1.5-1.6,1.5c-0.2,0-0.5,0-0.6-0.1c0.6,0.7,1,0.9,1.6,0.9&#xA;&#x9;&#x9;c0.9,0,1.4-1,1.6-1.4L13.3,57.9z M14.3,45.9L13.3,47h1.5l-0.2-1.1H14.3z M15,47.3l-0.1,0.4l-0.1-0.4h-1.6v1.4h3.3v-1.4H15z&#xA;&#x9;&#x9; M13.3,48.9v1.4h1.5l0.1-0.3l0.1,0.3h1.5v-1.4H13.3z M13.3,50.6V52h0.6l0.7-1.4H13.3z M13.3,52.3v1.4h1.4l-0.7-1.4H13.3z M15.1,54&#xA;&#x9;&#x9;l-0.1,0.3L14.8,54h-1.5v1.4h3.3V54H15.1z M13.3,55.6v1.4h1.6l0.1-0.4l0.1,0.4h1.6v-1.4H13.3z M13.3,57.3l1.1,1.1h0.3l0.2-1.1H13.3z&#xA;&#x9;&#x9; M15.2,45.9L15,47h1.5l-1.1-1.1H15.2z M15,57.3l0.2,1.1h0.3l1.1-1.1H15z M15.1,59.4l0.6,0.6l1.2-1.3c-0.3-0.4-0.4-0.8-0.4-0.8&#xA;&#x9;&#x9;L15.1,59.4z M15.2,50.6l0.7,1.4h0.6v-1.4H15.2z M15.9,52.3l-0.7,1.4h1.4v-1.4H15.9z M17.5,51.8h0.8v-3.1c0-0.9,0.2-2,1.4-2&#xA;&#x9;&#x9;c0.6,0,1,0.3,1,0.3c0-0.5-0.4-0.8-0.9-1.2c0.1,0.1,0.1,0.3,0.1,0.5c-0.2-0.1-0.6-0.3-1.2-0.3c-1,0-1.3,1-1.3,2V51.8z M17.5,52.6&#xA;&#x9;&#x9;v3.7c0,1.1,0.2,2.1,1.1,2.2c-0.2-0.3-0.2-0.6-0.2-1.1v-3.9h1.9l-0.6-0.8H17.5z M20,58.3c-0.2,0.4-0.7,1.1-1.7,1.1&#xA;&#x9;&#x9;c-0.1,0-0.3,0-0.4-0.1c0.5,0.5,0.8,0.9,1.5,0.9c1.1,0,1.4-1,1.3-1.1L20,58.3z M20.4,52.3l1.1,1.5h2.9l-1.2-1.5H20.4z M20.4,52H23&#xA;&#x9;&#x9;l-1.3-1.6L20.4,52z M21.7,54l1,1.4h3L24.6,54H21.7z M22.4,46.9c0.2-0.1,0.5-0.3,0.7-0.3c0.1,0,0.2,0,0.3,0c0-0.6-0.4-0.7-0.7-0.7&#xA;&#x9;&#x9;c-0.4,0-0.7,0.2-0.9,0.3L22.4,46.9z M22.3,49.8l0.6,0.8l2.2-2.7c0.6-0.7,1.1-1.4,2-1.4c0.5,0,0.9,0.2,0.9,0.2&#xA;&#x9;&#x9;c-0.2-0.5-0.4-0.9-0.9-1.2c0.1,0.2,0.2,0.4,0.2,0.5c-0.1-0.1-0.5-0.2-0.9-0.2c-1.2,0-1.7,1-2.5,2L22.3,49.8z M24.4,57.9&#xA;&#x9;&#x9;c0,0.3-0.2,1.5-1.4,1.5c-0.2,0-0.4,0-0.5-0.1c0.6,0.7,1,0.9,1.5,0.9c0.8,0,1.3-0.9,1.4-1.3L24.4,57.9z M22.9,55.7l1,1.4h1.3&#xA;&#x9;&#x9;c-0.2-0.4-0.5-0.9-0.5-1.2c0,0,0.5,0.6,1,1.2H27l-1.1-1.4H22.9z M24.2,57.3l1.3,1h0.7c-0.2-0.3-0.5-0.7-0.7-1H24.2z M26.1,57.3&#xA;&#x9;&#x9;c0.3,0.3,0.6,0.6,0.8,0.7l0.6-0.3l-0.3-0.3H26.1z M26.2,59.4l0.6,0.6l1.4-1.3L27.7,58L26.2,59.4z M31.3,58.3&#xA;&#x9;&#x9;c-0.1,0.5-0.7,1.1-1.5,1.1c-0.3,0-0.5-0.1-0.7-0.2c0.6,0.7,1,1,1.6,1c1,0,1.3-1.1,1.3-1.1L31.3,58.3z"/>
    <path fill="#C1AA7D" d="M39.7,46.6c1-1.4,2.3-1.6,3.9-1.6c4.4,0,7.1,2.6,7.1,4.6c0,2.1-1.8,2.9-3.6,3.2c0,0,0.5,0.3,1.1,0.8&#xA;&#x9;&#x9;c1.7,1.4,2.5,3.7,3.1,5c0.4,0,0.8-0.1,1-0.4l0.8,0.9c0,0-0.3,1.3-1.6,1.3c-0.8,0-1.2-0.3-2-1.2c-0.3,0.5-1,1.2-2,1.2&#xA;&#x9;&#x9;c-0.8,0-1.5-0.3-2.5-1.5c-0.9-1-1.1-1.8-1.4-3.8c-0.1-0.6-0.3-1.1-0.5-1.4h-1.6v3.7c0,0.5,0.1,0.8,0.2,1.1c0.9,0,1.2-0.4,1.2-0.4&#xA;&#x9;&#x9;l1,1c-0.1,0.8-0.9,1.4-1.6,1.4c-0.6,0-1.1-0.3-1.6-0.8c-0.4-0.4-0.7-0.8-0.7-0.8l-1.4,1.5l-1.3-1.4c-0.2,0.6-0.8,1.5-1.7,1.5&#xA;&#x9;&#x9;c-1,0-1.5-0.6-1.9-1.1c-0.3-0.3-0.6-0.7-0.6-1.1c0.3,0.2,0.6,0.3,1,0.3c1,0,1.3-0.8,1.3-2.1v-8.3c0-0.5,0-0.9-0.1-1.3&#xA;&#x9;&#x9;c-0.2,0-0.4-0.1-0.6-0.1c-0.3,0-0.6,0.1-0.9,0.3l-0.7-1c0.2-0.7,0.7-1.1,1.5-1.1c1,0,1.4,0.6,1.6,1.5l1.7-1.7L39.7,46.6z&#xA;&#x9;&#x9; M33.9,46.9c0.3-0.2,0.5-0.3,0.8-0.3c0.2,0,0.3,0,0.5,0.1c-0.2-0.5-0.5-0.8-1.1-0.8c-0.3,0-0.6,0.1-0.9,0.2L33.9,46.9z M36.3,57.9&#xA;&#x9;&#x9;c-0.1,0.4-0.6,1.5-1.6,1.5c-0.2,0-0.5,0-0.6-0.1c0.6,0.7,1,0.9,1.6,0.9c0.9,0,1.4-1,1.6-1.4L36.3,57.9z M37.3,45.9L36.3,47h1.5&#xA;&#x9;&#x9;l-0.2-1.1H37.3z M38,47.3l-0.1,0.4l-0.1-0.4h-1.6v1.4h3.3v-1.4H38z M36.3,48.9v1.4h1.5l0.1-0.3l0.1,0.3h1.5v-1.4H36.3z M36.3,50.6&#xA;&#x9;&#x9;V52h0.6l0.7-1.4H36.3z M36.3,52.3v1.4h1.4l-0.7-1.4H36.3z M38,54l-0.1,0.3L37.8,54h-1.5v1.4h3.3V54H38z M36.3,55.6v1.4h1.6l0.1-0.4&#xA;&#x9;&#x9;l0.1,0.4h1.6v-1.4H36.3z M36.3,57.3l1.1,1.1h0.3l0.2-1.1H36.3z M38.2,45.9L38,47h1.5l-1.1-1.1H38.2z M38,57.3l0.2,1.1h0.3l1.1-1.1&#xA;&#x9;&#x9;H38z M38.1,59.4l0.6,0.6l1.2-1.3c-0.3-0.4-0.4-0.8-0.4-0.8L38.1,59.4z M38.2,50.6l0.7,1.4h0.6v-1.4H38.2z M38.9,52.3l-0.7,1.4h1.4&#xA;&#x9;&#x9;v-1.4H38.9z M40.5,51.8h0.8v-3c0-1.1,0.3-2.1,1.7-2.1c0.4,0,1,0.1,1.4,0.2c-0.3-0.6-0.9-1-1.8-1c-1.7,0-2.2,1-2.2,2.1V51.8z&#xA;&#x9;&#x9; M40.5,52.7v3.6c0,1.1,0.2,2.1,1.1,2.2c-0.2-0.3-0.3-0.6-0.3-1.1v-3.9H43c-0.6-0.7-1.3-0.8-1.7-0.8H40.5z M42.9,58.3&#xA;&#x9;&#x9;c-0.2,0.4-0.7,1.1-1.7,1.1c-0.1,0-0.3,0-0.4-0.1c0.5,0.5,0.8,0.9,1.5,0.9c1.1,0,1.4-1,1.3-1.1L42.9,58.3z M42.3,51.8&#xA;&#x9;&#x9;c1.7,0,2.6-1.6,2.6-3.2c0-0.4-0.1-0.9-0.3-1.4c-0.4-0.2-1-0.3-1.5-0.3c-1.3,0-1.5,0.7-1.5,1.9v3H42.3z M46.3,53.7&#xA;&#x9;&#x9;c-1.2-1.1-3.1-1.3-3.6-1.2c0.8,0.3,1.1,0.6,1.4,1.2H46.3z M45.3,50.7c-0.5,0.7-1.2,1.1-1.7,1.2c1.5,0,3.1-0.2,4.2-1.2H45.3z&#xA;&#x9;&#x9; M44.2,54c0.1,0.4,0.3,0.8,0.4,1.4h3c-0.3-0.5-0.6-1-1-1.4H44.2z M46.4,47.2c-1-0.8-1.9-1.1-2.1-1.1c0.3,0.2,0.9,0.5,1.2,1.1H46.4z&#xA;&#x9;&#x9; M44.6,55.6c0.1,0.4,0.2,1,0.3,1.4h1.4c0-0.2,0-0.4,0-0.5c0,0,0.1,0.2,0.2,0.5h1.8c-0.2-0.4-0.4-0.9-0.6-1.4H44.6z M45,57.3&#xA;&#x9;&#x9;c0.6,2,1.9,1.8,2.3,1.7c-0.5-0.2-1-0.8-1.1-1.7H45z M46.4,52.7c1.9-0.1,4-0.8,4-3c0-1.1-0.8-2.1-1.6-2.7c0.5,0.5,0.7,1.2,0.7,1.9&#xA;&#x9;&#x9;c0,2.4-2.3,3.4-4.4,3.4c2.5,0.9,3.5,2.9,4.3,4.8c0.4,1,0.7,1.5,1.6,1.5c-0.6-1.3-1.4-3.5-3-4.9c-0.6-0.5-1-0.7-1-0.7L46.4,52.7z&#xA;&#x9;&#x9; M48,47.2c-0.8-1-2.1-1.4-2.7-1.5c0.6,0.2,1.3,0.9,1.6,1.5H48z M45.8,49.1c0,0.6-0.2,1-0.4,1.4H48c0.3-0.4,0.6-0.8,0.6-1.4H45.8z&#xA;&#x9;&#x9; M47,47.4c0.1,0.3,0.2,0.5,0.2,0.5c-0.2-0.2-0.4-0.4-0.5-0.5h-1.1c0.1,0.4,0.2,0.8,0.2,1.4h2.8c0-0.5-0.2-1-0.4-1.4H47z M45.8,59.3&#xA;&#x9;&#x9;c0.5,0.6,1,0.9,1.8,0.9c1,0,1.6-0.8,1.9-1.2c-0.2-0.2-0.5-0.6-0.6-0.8C48.4,59.4,47.1,59.9,45.8,59.3 M46.7,57.3&#xA;&#x9;&#x9;c0.2,0.5,0.7,1,1.2,1c0.4,0,0.7-0.3,0.8-0.4c0,0-0.1-0.3-0.2-0.6H46.7z M52.2,58.4c-0.1,0.4-0.5,1-1.6,1c-0.3,0-0.5-0.1-0.7-0.2&#xA;&#x9;&#x9;c0.7,0.8,1,0.9,1.6,0.9c0.8,0,1.2-0.6,1.3-1.1L52.2,58.4z"/>
    <path fill="#C1AA7D" d="M68.4,45.7c0.3-0.4,0.8-0.7,1.4-0.7c0.8,0,1.4,0.3,2,0.9c0.3,0.3,0.6,0.6,0.6,1.2v0.1&#xA;&#x9;&#x9;c-0.3-0.2-0.7-0.4-1.1-0.4c-1,0-1.3,0.6-1.3,1.9v6.6c0,1.6,0,3-1.5,4c-1,0.7-2.7,1.3-4.8,1.3c-2.9,0-4.8-0.2-6.9-2.7&#xA;&#x9;&#x9;c-0.6-0.8-0.7-1.9-0.7-2.6v-7.2c0-0.5,0-0.9-0.1-1.3c-0.2,0-0.4-0.1-0.6-0.1c-0.3,0-0.6,0.1-0.9,0.3l-0.7-1&#xA;&#x9;&#x9;c0.2-0.7,0.7-1.1,1.5-1.1c1,0,1.4,0.6,1.6,1.5l1.7-1.7l1.7,1.7c0.3-0.9,0.8-1.5,1.8-1.5c0.8,0,1.4,0.3,2,0.9&#xA;&#x9;&#x9;c0.3,0.3,0.6,0.6,0.6,1.2v0.1c-0.3-0.2-0.7-0.4-1.2-0.4c-1,0-1.2,0.6-1.2,1.9v9.2c0.5,0.3,1.2,0.5,2.2,0.5c1.6,0,2.5-0.7,2.9-1.2&#xA;&#x9;&#x9;c0.3-0.5,0.5-1.1,0.5-2.8v-6.1c0-0.5,0-1-0.1-1.4c-0.2,0-0.4-0.1-0.6-0.1c-0.3,0-0.6,0.1-0.9,0.3l-0.8-1c0.2-0.7,0.7-1.1,1.6-1.1&#xA;&#x9;&#x9;C67.8,45,68.2,45.3,68.4,45.7 M54.6,46.9c0.2-0.2,0.5-0.3,0.8-0.3c0.2,0,0.3,0,0.5,0.1c-0.2-0.5-0.5-0.8-1.1-0.8&#xA;&#x9;&#x9;c-0.3,0-0.6,0.1-0.8,0.2L54.6,46.9z M58.1,45.9L57,47h1.5l-0.2-1.1H58.1z M58.7,47.3l-0.1,0.4l-0.1-0.4H57v1.4h3.3v-1.4H58.7z&#xA;&#x9;&#x9; M57,48.9v1.4h1.5l0.1-0.3l0.1,0.3h1.5v-1.4H57z M57,50.6V52h0.6l0.7-1.4H57z M57,52.3v1.4h1.4l-0.7-1.4H57z M58.8,54l-0.1,0.3&#xA;&#x9;&#x9;L58.5,54H57v1.4h3.3V54H58.8z M57,55.6c0,0.4,0,0.9,0.2,1.4h1.4c0-0.4,0-0.7,0-0.7c0.1,0.2,0.2,0.5,0.4,0.7h1.5&#xA;&#x9;&#x9;c-0.2-0.3-0.2-0.9-0.2-1.4H57z M57.4,57.3c0.3,0.7,1.5,1.3,2.3,1.5c-0.5-0.4-0.8-0.9-1-1.5H57.4z M69.7,48.7c0-0.9,0.2-2,1.5-2&#xA;&#x9;&#x9;c0.5,0,1,0.3,1,0.3c0-0.5-0.4-0.8-0.9-1.2c0.1,0.1,0.1,0.3,0.1,0.5c-0.2-0.1-0.6-0.3-1.2-0.3c-1,0-1.4,1-1.4,2v6.5&#xA;&#x9;&#x9;c0,1.6-0.1,3-1.4,4c-1.1,0.9-2.9,1.1-4.5,1.1c-1,0-3,0-4.5-0.6c-0.2-0.1-0.4-0.2-0.6-0.3c1.7,1.6,3.3,1.8,6,1.8&#xA;&#x9;&#x9;c2.1,0,3.7-0.5,4.6-1.3c1.2-0.9,1.4-1.9,1.4-3.9V48.7z M58.9,45.9L58.8,47h1.5l-1.1-1.1H58.9z M58.9,50.6l0.7,1.4h0.6v-1.4H58.9z&#xA;&#x9;&#x9; M59.6,52.3l-0.7,1.4h1.4v-1.4H59.6z M59.2,57.3c0.9,1.5,2.6,1.8,4.2,1.6c-1.3-0.3-2.3-0.9-2.8-1.6H59.2z M61.2,55.3&#xA;&#x9;&#x9;c0,0.9,0,1.9,0.8,2.5v-9.1c0-0.9,0.2-2,1.4-2c0.6,0,1,0.3,1,0.3c0-0.5-0.4-0.8-0.9-1.2c0.1,0.1,0.1,0.3,0.1,0.5&#xA;&#x9;&#x9;c-0.2-0.1-0.6-0.3-1.2-0.3c-1,0-1.3,1-1.3,2V55.3z M66.4,46.9c0.2-0.2,0.5-0.3,0.8-0.3c0.2,0,0.3,0,0.5,0.1&#xA;&#x9;&#x9;c-0.2-0.5-0.5-0.8-1.1-0.8c-0.3,0-0.6,0.1-0.8,0.2L66.4,46.9z"/>
    <path fill="#C1AA7D" d="M92.4,57.4c0,0.5,0.1,0.8,0.2,1.1c0.8,0,1.2-0.4,1.2-0.4l0.9,1c-0.1,0.8-0.9,1.4-1.6,1.4&#xA;&#x9;&#x9;c-0.6,0-1.1-0.3-1.6-0.8c-0.4-0.4-0.7-0.8-0.7-0.8l-1.4,1.5L88,58.8c-0.6,0.5-2.1,1.9-5,1.9c-6,0-9.4-4.6-9.4-8.5&#xA;&#x9;&#x9;c0-4.8,3.8-7.3,8.5-7.3c2.3,0,4.1,1,4.4,1.3l1.1-1.2l1.1,1.2c0,0,0.6-0.9,1.5-0.9c1.6,0,2.4,1.4,2.4,2.2c-0.2-0.1-0.7-0.3-1.4-0.3&#xA;&#x9;&#x9;c-1.3,0-1.6,1.1-1.6,1.9c0,0.6,0.1,1.1,0.3,1.4c-0.6,0-1-0.1-1.4-0.5c-0.8-0.7-1.4-2.1-1.9-2.6c-0.7-0.3-1.3-0.4-2.2-0.4&#xA;&#x9;&#x9;c-3.8,0-4.4,4-4.4,6.1c0,2,0.5,3.9,1.2,5.1c0.5,0.3,1.1,0.5,1.9,0.5c3,0,3.1-2.1,3.1-2.7v-0.9c0-0.5,0-0.9-0.1-1.3&#xA;&#x9;&#x9;c-0.2,0-0.4-0.1-0.6-0.1c-0.3,0-0.6,0.1-0.9,0.3l-0.8-1c0.2-0.7,0.7-1.1,1.6-1.1c1,0,1.4,0.5,1.6,1.3l1.6-1.7l1.6,1.7&#xA;&#x9;&#x9;c0.3-0.9,0.9-1.3,1.8-1.3c0.9,0,1.5,0.4,2,0.9c0.3,0.3,0.6,0.6,0.6,1.2v0.1c-0.3-0.2-0.7-0.4-1.2-0.4c-1,0-1.2,0.6-1.2,1.9V57.4z&#xA;&#x9;&#x9; M74.8,50.6c-0.1,0.4-0.2,0.9-0.2,1.4h0.6l0.7-1.4H74.8z M75.3,52.3h-0.6c0,0.5,0,1,0.1,1.4H76L75.3,52.3z M74.9,54&#xA;&#x9;&#x9;c0.1,0.5,0.3,1,0.5,1.4h3.1c-0.2-0.5-0.3-1-0.4-1.4h-1.6l-0.1,0.3L76.1,54H74.9z M78.1,50.3c0.1-0.4,0.2-0.9,0.5-1.4h-3.2&#xA;&#x9;&#x9;c-0.3,0.4-0.4,0.9-0.6,1.4h1.3l0.1-0.3l0.1,0.3H78.1z M75.5,55.6c0.3,0.6,0.7,1.1,1.1,1.4h1.3c-0.1-0.4-0.2-0.8-0.2-0.8&#xA;&#x9;&#x9;c0.1,0.3,0.4,0.5,0.6,0.8h1c-0.3-0.4-0.6-0.9-0.7-1.4H75.5z M78.6,47.3c-0.4,0.3-0.7,0.7-0.7,0.7c0-0.2,0.1-0.5,0.2-0.7h-1.3&#xA;&#x9;&#x9;c-0.4,0.4-0.8,0.8-1.2,1.4h3.1c0.3-0.5,0.5-1,0.9-1.4H78.6z M77.3,52h0.6c0-0.3,0-0.8,0.2-1.4h-1.5L77.3,52z M78,53.7&#xA;&#x9;&#x9;c-0.1-0.7-0.1-1.1-0.1-1.4h-0.6l-0.7,1.4H78z M76.8,57.3c0.6,0.7,1.5,1.2,2.4,1.4c-0.6-0.4-1-0.8-1.3-1.4H76.8z M78.2,47&#xA;&#x9;&#x9;c0.3-0.5,0.7-1.1,1.1-1.3c-0.7,0.2-1.4,0.7-2.2,1.3H78.2z M87.2,57.9c-0.3,0.3-1.8,1.6-5,1.6c-1.8,0-3.6-0.3-4.8-0.9&#xA;&#x9;&#x9;c1.2,1,3.2,1.9,5.7,1.9c2.8,0,4.3-1.3,4.8-1.8L87.2,57.9z M78.5,57.3c0.7,0.8,2.4,2,3.3,1.6c-0.9-0.2-1.8-0.8-2.4-1.6H78.5z&#xA;&#x9;&#x9; M79.9,47c0.6-0.6,1.5-1.2,2.3-1.4c0,0-0.1,0-0.4,0c-1.1,0-2.1,0.7-2.9,1.4H79.9z M83.6,46c-3.6,0-4.8,3.7-4.8,6.2&#xA;&#x9;&#x9;c0,2.2,0.6,4.4,1.8,5.5c-0.5-1.1-1-2.7-1-4.8c0-2.2,0.8-6.3,4.7-6.3c0.6,0,1.2,0.1,1.8,0.3C85.6,46.4,84.7,46,83.6,46 M84.7,53.7&#xA;&#x9;&#x9;c0.2-0.2,0.5-0.3,0.8-0.3c0.2,0,0.3,0,0.5,0.1c-0.2-0.5-0.5-0.8-1.1-0.8c-0.3,0-0.6,0.1-0.8,0.2L84.7,53.7z M87.7,45.5l-0.8,0.9&#xA;&#x9;&#x9;h1.6L87.7,45.5z M87.1,46.7c0.4,0.5,0.8,1.4,1.1,1.9c-0.1-0.6,0-1.5,0.3-1.9H87.1z M88.7,52l-1.6,1.7h3.3L88.7,52z M88,55.4&#xA;&#x9;&#x9;l0.7-1.4h-1.6v1.4H88z M87.1,55.6v1.4h1.6L88,55.6H87.1z M90.3,57.3h-3.3l1.6,1.7L90.3,57.3z M90.6,46.2c-1.1,0-1.9,0.9-1.9,2.1&#xA;&#x9;&#x9;c0,0.5,0.1,1,0.3,1.2c-0.2,0-0.5-0.1-0.6-0.2c0.3,0.4,0.7,0.8,1.3,0.9c-0.1-0.2-0.2-0.7-0.2-1.1c0-1,0.6-2.2,1.9-2.2&#xA;&#x9;&#x9;c0.7,0,1.1,0.2,1.1,0.2c-0.1-0.4-0.5-0.9-0.9-1.2c0.1,0.2,0.2,0.5,0.2,0.6C91.7,46.5,91.3,46.2,90.6,46.2 M90.3,55.4V54h-1.6&#xA;&#x9;&#x9;l0.7,1.4H90.3z M89.4,55.6l-0.7,1.4h1.6v-1.4H89.4z M88.9,59.4l0.6,0.6l1.3-1.3c-0.3-0.4-0.4-0.8-0.4-0.8L88.9,59.4z M92.1,55.5&#xA;&#x9;&#x9;c0-0.9,0.2-2,1.4-2c0.5,0,1,0.3,1,0.3c0-0.5-0.4-0.8-0.9-1.2c0.1,0.1,0.1,0.3,0.1,0.5c-0.2-0.1-0.5-0.3-1.2-0.3c-1,0-1.3,1-1.3,2&#xA;&#x9;&#x9;v1.5c0,1.1,0.1,2.1,1.1,2.2c-0.2-0.3-0.2-0.6-0.2-1.1V55.5z M93.7,58.3c-0.1,0.4-0.6,1.1-1.7,1.1c-0.1,0-0.3,0-0.4-0.1&#xA;&#x9;&#x9;c0.5,0.5,0.8,0.9,1.5,0.9c1,0,1.4-1,1.3-1.1L93.7,58.3z"/>
  </g>
</svg>