<?xml version="1.0" encoding="UTF-8" standalone="yes"?>
<svg viewBox="0 -140.15 529.1 529.1" baseProfile="tiny-ps" version="1.2" xmlns="http://www.w3.org/2000/svg">
  <title>bimi-svg-tiny-12-ps</title>
  <path d="M395.3,93.3c0,12.9,5.7,30.4,33,40.3,5.9,2,18.3,6.2,18.3,17.3s-6.6,12.8-12.8,12.8-13.1-6-13.1-13.6,0-5.2,0-5.2h-25.3v6.2c0,21,17.2,38.2,38.4,38.2s38.1-19.4,38.1-37.5c0-27.3-20.7-35.4-33.1-40.2-7.2-2.8-18.1-7-18.1-17.5s5.8-12.8,12.7-12.8,13.3,6,13.3,13.6v5.2h25.3v-6c0-21.1-17.2-38.3-38.4-38.3h0c-10.3,0-20,4.2-27.4,11.9-6.8,7.2-10.8,16.6-10.8,25.8Z" fill="#1d1d1b" stroke-width="0"/>
  <path d="M377.2,57.6c-8.2,0-14.8,6.6-14.8,14.8s6.6,14.8,14.8,14.8,14.8-6.6,14.8-14.8-6.6-14.8-14.8-14.8Z" fill="#1d1d1b" stroke-width="0"/>
  <path d="M246.6,150.7h0c-.2,3.6-.6,7.1-2,9.8-1.5,3.1-4.2,5.1-8.9,5.1s-7.1-2.2-8.5-5.1c-3.1-6-3.4-22.2-3.4-37.8s.4-31.8,3.4-37.8c1.5-2.9,3.8-5.1,8.5-5.1s7.3,1.8,8.7,4.9c1.5,2.7,1.8,6.4,2,10v13.5h25.8v-13.5h0c-.5-12.3-4.7-22.5-11.4-28.9-6.5-6.2-14.3-9.3-25-9.3s-22.1,5.8-28.1,12.9c-10.3,12.3-9.6,36-9.6,53.4s-.7,40.7,9.6,53c6,7.1,13.6,12.9,28.1,12.9s18.5-3.1,25-9.3c6.7-6.3,11-16.6,11.6-28.9h0v-13.5h-25.8v13.5Z" fill="#1d1d1b" stroke-width="0"/>
  <polygon points="93.5 124.2 120.9 187.4 142.9 187.4 142.9 58.1 117.1 58.1 117.1 121.3 90.3 58.1 67.8 58.1 67.8 187.4 93.5 187.4 93.5 124.2" fill="#1d1d1b" stroke-width="0"/>
  <polygon points="359.3 58.1 333.5 58.1 309 113.7 309 58.1 283.3 58.1 283.3 187.4 309 187.4 309 157.6 317.4 140.2 335.9 187.4 363.5 187.4 333.5 111.8 359.3 58.1" fill="#1d1d1b" stroke-width="0"/>
  <rect x="67.8" y="58.1" width="0" height="129.3" fill="#1d1d1b" stroke-width="0"/>
  <rect x="158.3" y="58.1" width="25.8" height="91.3" fill="#1d1d1b" stroke-width="0"/>
  <ellipse cx="171.2" cy="174.1" rx="14.8" ry="14.8" transform="translate(-3.1 345) rotate(-89.9)" fill="#1d1d1b" stroke-width="0"/>
</svg>