<svg xmlns="http://www.w3.org/2000/svg" xmlns:xlink="http://www.w3.org/1999/xlink" version="1.2" viewBox="0 0 34 34" baseProfile="tiny-ps">
  <title>mastercard-symbol_34x34</title>
  <rect x="12.674" y="9.225" width="8.653" height="15.55" fill="#FF5F00"/>
  <path d="M13.223,17c0-3.155,1.477-5.964,3.777-7.775c-1.682-1.324-3.805-2.114-6.111-2.114  C5.427,7.111,1,11.538,1,17s4.427,9.889,9.889,9.889c2.307,0,4.429-0.79,6.111-2.114C14.7,22.964,13.223,20.155,13.223,17z" fill="#EB001B"/>
  <path d="M33,17c0,5.462-4.427,9.889-9.888,9.889c-2.307,0-4.429-0.79-6.111-2.114  c2.3-1.811,3.777-4.62,3.777-7.775S19.3,11.036,17,9.225c1.682-1.324,3.805-2.114,6.111-2.114C28.573,7.111,33,11.538,33,17z" fill="#F79E1B"/>
</svg>