<?xml version="1.0" encoding="utf-8"?>
<!-- Generator: Adobe Illustrator 26.0.2, SVG Export Plug-In . SVG Version: 6.00 Build 0)  -->
<svg version="1.2" baseProfile="tiny-ps" id="Masterplan"
	 xmlns="http://www.w3.org/2000/svg" xmlns:xlink="http://www.w3.org/1999/xlink" viewBox="0 0 226.8 226.8"
	 xml:space="preserve">
<title>Masterplan com GmbH</title>
<g>
	<g>
		<path fill="#5F605F" d="M218.8,162.9h0.3v0.3h-0.3V162.9z"/>
		<path fill="#616261" d="M220.6,162.7c0,0.3-0.3,0.5-0.6,0.5c-0.4,0-0.6-0.3-0.6-0.7c0-0.4,0.3-0.7,0.6-0.7c0.3,0,0.5,0.2,0.5,0.5
			l-0.2,0c0-0.2-0.1-0.3-0.4-0.3c-0.2,0-0.4,0.2-0.4,0.5c0,0.3,0.2,0.5,0.4,0.5c0.2,0,0.3-0.2,0.4-0.4L220.6,162.7z"/>
		<path fill="#616261" d="M220.9,162.5c0-0.5,0.3-0.7,0.6-0.7c0.3,0,0.6,0.2,0.6,0.7s-0.3,0.7-0.6,0.7
			C221.2,163.2,220.9,163,220.9,162.5z M221.9,162.5c0-0.3-0.2-0.5-0.4-0.5c-0.2,0-0.4,0.2-0.4,0.5c0,0.3,0.2,0.5,0.4,0.5
			C221.7,163,221.9,162.9,221.9,162.5z"/>
		<path fill="#616261" d="M222.4,161.9h0.2v0.1h0c0.1-0.1,0.2-0.2,0.3-0.2c0.2,0,0.3,0.1,0.4,0.2h0c0.1-0.1,0.2-0.2,0.4-0.2
			c0.3,0,0.5,0.2,0.5,0.5v0.9H224v-0.8c0-0.2-0.1-0.3-0.3-0.3c-0.2,0-0.3,0.1-0.3,0.3v0.9h-0.2v-0.8c0-0.2-0.1-0.3-0.3-0.3
			c-0.2,0-0.3,0.1-0.3,0.3v0.9h-0.2V161.9z"/>
	</g>
	<g>
		<path fill="#FC5B6E" d="M205.7,161.4h0.3l0.6,1.4h0l0.6-1.4h0.3v1.8h-0.2v-1.5h0l-0.6,1.5h-0.1l-0.6-1.5h0v1.5h-0.2V161.4z"/>
		<path fill="#FC5B6E" d="M208.7,163L208.7,163c0,0.1-0.2,0.2-0.4,0.2c-0.3,0-0.5-0.2-0.5-0.4c0-0.2,0.1-0.3,0.4-0.4
			c0.2-0.1,0.4-0.1,0.4-0.2c0-0.1-0.1-0.2-0.3-0.2c-0.2,0-0.3,0.1-0.3,0.3l-0.2-0.1c0-0.2,0.2-0.4,0.5-0.4c0.3,0,0.5,0.1,0.5,0.5
			v0.9h-0.2V163z M208,162.8c0,0.1,0.1,0.2,0.3,0.2c0.3,0,0.4-0.1,0.4-0.3v-0.3h0c0,0-0.1,0.1-0.3,0.2
			C208,162.7,208,162.7,208,162.8z"/>
		<path fill="#FC5B6E" d="M209.3,162.7c0,0.2,0.1,0.4,0.4,0.4c0.2,0,0.3-0.1,0.3-0.2c0-0.1-0.1-0.2-0.4-0.3
			c-0.3-0.1-0.4-0.2-0.4-0.4c0-0.2,0.2-0.4,0.5-0.4c0.3,0,0.5,0.2,0.5,0.4l-0.2,0c0-0.2-0.1-0.3-0.3-0.3c-0.2,0-0.3,0.1-0.3,0.2
			c0,0.1,0.1,0.1,0.4,0.2c0.4,0.1,0.5,0.2,0.5,0.4c0,0.2-0.1,0.4-0.5,0.4c-0.4,0-0.5-0.2-0.6-0.5L209.3,162.7z"/>
		<path fill="#FC5B6E" d="M210.6,162h-0.2v-0.2h0.2v-0.3h0.2v0.3h0.3v0.2h-0.3v0.7c0,0.1,0,0.2,0.2,0.2h0.1v0.2H211
			c-0.3,0-0.4-0.1-0.4-0.4V162z"/>
		<path fill="#FC5B6E" d="M212.5,162.9c-0.1,0.2-0.3,0.3-0.6,0.3c-0.4,0-0.6-0.3-0.6-0.7s0.3-0.7,0.6-0.7c0.4,0,0.6,0.3,0.6,0.7v0.1
			h-1c0,0.2,0.1,0.5,0.4,0.5c0.3,0,0.4-0.2,0.4-0.3L212.5,162.9z M212.3,162.4c0-0.2-0.1-0.4-0.4-0.4c-0.3,0-0.4,0.3-0.4,0.4H212.3z
			"/>
		<path fill="#FC5B6E" d="M213.1,163.2h-0.2v-1.3h0.2V163.2z M213.4,161.9v0.2h-0.6v-0.2H213.4z"/>
		<path fill="#FC5B6E" d="M213.7,161.9h0.2v0.1h0c0.1-0.1,0.2-0.2,0.4-0.2c0.3,0,0.6,0.3,0.6,0.7s-0.2,0.7-0.6,0.7
			c-0.2,0-0.3-0.1-0.4-0.2h0v0.7h-0.2V161.9z M214,162.8c0,0.2,0.1,0.3,0.3,0.3c0.3,0,0.4-0.2,0.4-0.5s-0.1-0.5-0.4-0.5
			c-0.2,0-0.3,0.2-0.3,0.3V162.8z"/>
		<path fill="#FC5B6E" d="M215.3,161.4h0.2v1.8h-0.2V161.4z"/>
		<path fill="#FC5B6E" d="M216.7,163L216.7,163c0,0.1-0.2,0.2-0.4,0.2c-0.3,0-0.5-0.2-0.5-0.4c0-0.2,0.1-0.3,0.4-0.4
			c0.2-0.1,0.4-0.1,0.4-0.2c0-0.1-0.1-0.2-0.3-0.2c-0.2,0-0.3,0.1-0.3,0.3l-0.2-0.1c0-0.2,0.2-0.4,0.5-0.4c0.3,0,0.5,0.1,0.5,0.5
			v0.9h-0.2V163z M216,162.8c0,0.1,0.1,0.2,0.3,0.2c0.3,0,0.4-0.1,0.4-0.3v-0.3h0c0,0-0.1,0.1-0.3,0.2
			C216.1,162.7,216,162.7,216,162.8z"/>
		<path fill="#FC5B6E" d="M217.3,161.9h0.2v0.1h0c0.1-0.1,0.2-0.2,0.4-0.2c0.3,0,0.5,0.2,0.5,0.5v0.9h-0.2v-0.8
			c0-0.2-0.1-0.4-0.3-0.4c-0.2,0-0.3,0.1-0.3,0.3v0.9h-0.2V161.9z"/>
	</g>
	<path fill="#FC5B6E" d="M23.3,155l29.1-88.4c0,0,3.3-7.8,10.2-7.8s35.2,0,35.2,0s9.6-0.4,4.7,13.8c-4.8,14.2-28.7,83.9-28.7,83.9
		s-2.4,7.2-10.2,7.2s-34.6,0-34.6,0S22,164.2,23.3,155z"/>
	<path fill="#FE7484" d="M136.4,155l-29.1-88.4c0,0-3.3-7.8-10.2-7.8s-35.2,0-35.2,0s-9.6-0.4-4.7,13.8S86,156.5,86,156.5
		s2.4,7.2,10.2,7.2s34.6,0,34.6,0S137.7,164.2,136.4,155z"/>
	<path fill="#FEABB5" d="M203.3,155.3l-29.1-88.4c0,0-3.3-7.8-10.2-7.8s-35.2,0-35.2,0s-9.6-0.4-4.7,13.8s28.7,83.9,28.7,83.9
		s2.4,7.2,10.2,7.2s34.6,0,34.6,0S204.6,164.6,203.3,155.3z"/>
	<path fill="#FF8F9D" d="M90.1,155.3l29.1-88.4c0,0,3.3-7.8,10.2-7.8c6.9,0,35.2,0,35.2,0s9.6-0.4,4.7,13.8s-28.7,83.9-28.7,83.9
		s-2.4,7.2-10.2,7.2s-34.6,0-34.6,0S88.8,164.6,90.1,155.3z"/>
</g>
</svg>
