<?xml version="1.0" encoding="utf-8" standalone="yes"?><!-- Generator: Adobe Illustrator 27.1.1, SVG Export Plug-In . SVG Version: 6.00 Build 0)  --><svg xmlns="http://www.w3.org/2000/svg" xmlns:xlink="http://www.w3.org/1999/xlink" version="1.2" baseProfile="tiny-ps" viewBox="0 0 180 180" xml:space="preserve"><title>GC_LOGO</title><path fill="#FFFFFF" d="M118.63,43.23c-7.3-2.9-15.33-4.76-26.35-5.35c-45-2.43-82.72,18.46-84.24,46.65  c-1.33,24.63,21.93,45.57,55.54,52.94c7.63,2.69,17.17,4.24,28.02,4.72c44.39,1.94,79.92-19.95,80.42-49.82  C172.39,69.94,150.02,50.53,118.63,43.23z"></path><path fill="#003B78" d="M134.25,92.29l-1.12,2.42c-2.03,1.06-3.85,1.78-5.47,2.18c-1.62,0.39-3.63,0.59-6.06,0.59  c-3.44,0-6.48-0.53-9.13-1.6c-2.08-0.86-3.84-2.01-5.28-3.42c-1.45-1.42-2.56-2.96-3.34-4.62c-1.19-2.51-1.78-5.23-1.78-8.16  c0-5.03,1.75-9.14,5.25-12.32c3.49-3.18,8.43-4.78,14.82-4.78c2.19,0,4.16,0.16,5.91,0.48c1.75,0.32,3.77,0.88,6.08,1.7l0.12,0.31  c-0.26,0.75-0.46,1.69-0.61,2.83c-0.25,1.81-0.4,3.47-0.46,5h-1.92c-0.03-1.75-0.12-3.15-0.26-4.21c-1.09-1.12-2.31-1.95-3.66-2.5  c-1.35-0.55-3.08-0.83-5.19-0.83c-3.81,0-6.86,1.19-9.14,3.55c-2.29,2.37-3.43,5.68-3.43,9.92c0,2.57,0.39,4.81,1.16,6.72  c0.77,1.92,1.8,3.5,3.08,4.76c1.28,1.25,2.57,2.16,3.87,2.74c1.78,0.76,3.92,1.15,6.43,1.15c1.66,0,3.23-0.18,4.7-0.55  c1.48-0.37,3.08-1,4.82-1.89L134.25,92.29z"></path><path fill="#003A70" d="M134.25,92.29l-1.12,2.42c-2.03,1.06-3.85,1.78-5.47,2.18c-1.62,0.39-3.63,0.59-6.06,0.59  c-3.44,0-6.48-0.53-9.13-1.6c-2.08-0.86-3.84-2.01-5.28-3.42c-1.45-1.42-2.56-2.96-3.34-4.62c-1.19-2.51-1.78-5.23-1.78-8.16  c0-5.03,1.75-9.14,5.25-12.32c3.49-3.18,8.43-4.78,14.82-4.78c2.19,0,4.16,0.16,5.91,0.48c1.75,0.32,3.77,0.88,6.08,1.7l0.12,0.31  c-0.26,0.75-0.46,1.69-0.61,2.83c-0.25,1.81-0.4,3.47-0.46,5h-1.92c-0.03-1.75-0.12-3.15-0.26-4.21c-1.09-1.12-2.31-1.95-3.66-2.5  c-1.35-0.55-3.08-0.83-5.19-0.83c-3.81,0-6.86,1.19-9.14,3.55c-2.29,2.37-3.43,5.68-3.43,9.92c0,2.57,0.39,4.81,1.16,6.72  c0.77,1.92,1.8,3.5,3.08,4.76c1.28,1.25,2.57,2.16,3.87,2.74c1.78,0.76,3.92,1.15,6.43,1.15c1.66,0,3.23-0.18,4.7-0.55  c1.48-0.37,3.08-1,4.82-1.89L134.25,92.29z"></path><path fill="#003A70" d="M74.01,72.48h-1.98c0-0.52-0.03-1.29-0.1-2.31c-0.05-0.72-0.13-1.33-0.25-1.83  c-0.41-0.49-0.86-0.89-1.34-1.19c-1.07-0.72-2.31-1.27-3.71-1.68c-1.4-0.41-2.99-0.61-4.75-0.61c-4.12,0-7.42,1.26-9.91,3.78  c-2.48,2.51-3.72,5.97-3.72,10.36c0,4.8,1.31,8.62,3.92,11.45c2.62,2.83,5.82,4.24,9.62,4.24c1.1,0,2.18-0.11,3.23-0.34  c1.05-0.23,2.07-0.55,3.08-0.99c0.05-0.44,0.09-1.28,0.12-2.53c0.03-1.24,0.05-1.99,0.05-2.26c0-1.55-0.06-2.47-0.2-2.76  c-0.1-0.2-0.32-0.34-0.67-0.42c-0.58-0.16-2.14-0.32-4.7-0.46v-1.98l7.4,0.09l7.44-0.09v1.62c-0.95,0.19-1.57,0.47-1.87,0.8  c-0.15,0.16-0.24,0.61-0.27,1.34c-0.09,1.86-0.13,3.19-0.13,4c0,1.23,0.08,2.49,0.23,3.79c-3.07,1.1-5.75,1.88-8.04,2.34  c-2.29,0.45-4.57,0.68-6.85,0.68c-3.72,0-7-0.62-9.86-1.85c-2-0.88-3.71-2.01-5.13-3.38c-1.42-1.38-2.5-2.87-3.24-4.46  c-1.17-2.47-1.76-5.21-1.76-8.23c0-2.54,0.38-4.76,1.15-6.66c0.77-1.9,1.84-3.56,3.21-4.98c1.37-1.41,2.92-2.56,4.67-3.45  c1.74-0.89,3.56-1.52,5.47-1.9c1.91-0.38,4-0.57,6.28-0.57c2.81,0,5.42,0.25,7.84,0.76c2.42,0.5,4.31,1.05,5.66,1.65l0.2,0.47  C74.71,66.33,74.35,68.86,74.01,72.48"></path><path fill="#968B83" d="M107.87,78.74c0,9.98-8.49,18.07-18.97,18.07c-10.48,0-18.98-8.09-18.98-18.07c0-9.98,8.5-18.07,18.98-18.07  C99.38,60.66,107.87,68.75,107.87,78.74"></path><path fill="#968B83" d="M88.9,97.1c-10.62,0-19.26-8.24-19.26-18.36s8.64-18.36,19.26-18.36c10.62,0,19.26,8.24,19.26,18.36  S99.52,97.1,88.9,97.1z M88.9,60.95c-10.31,0-18.69,7.98-18.69,17.79s8.39,17.79,18.69,17.79c10.31,0,18.69-7.98,18.69-17.79  S99.2,60.95,88.9,60.95z"></path><path fill="#003A70" d="M62.86,134.5c7.27,2.85,23.65,2.59,27.74,2.5c35.63-0.82,70.5-19.47,70.5-44.89  c0-23.91-32.91-42.84-71.86-44.05c-10.8-0.34-12.47-0.37-23.76,1.39c7.62-2.88,15.68-4.55,27.17-4.55  c41.63,0,75.37,21.14,75.37,47.22c0,27.72-33.3,48.59-75.37,47.48C80.82,139.28,70.6,137.61,62.86,134.5"></path><path fill="#B12028" d="M117.96,129.86c-7.27,2.85-18.3,2.03-27.16,1.94c-35.64-0.37-71.08-18.91-71.08-44.33  c0-23.92,32.91-42.85,71.86-44.05c10.8-0.34,12.46-0.37,23.76,1.39c-7.62-2.88-15.68-4.55-27.17-4.55  c-41.63,0-75.37,21.14-75.37,47.22c0,27.72,33.31,48.59,75.37,47.48C100.01,134.64,110.22,132.98,117.96,129.86"></path><g><path fill="#003A70" d="M55.93,112.81h-1.01c-0.02-0.69-0.09-1.12-0.19-1.26c-0.05-0.08-0.19-0.13-0.41-0.16   c-0.56-0.07-1.44-0.11-2.65-0.11c-0.17,0-0.48,0-0.9,0.01v0.93c0,1.32,0.02,2.25,0.06,2.78c0.04,0.53,0.1,0.85,0.17,0.93   c0.05,0.06,0.15,0.11,0.29,0.15c0.14,0.04,0.74,0.08,1.8,0.14v0.66l-4.5-0.06c-0.65,0-1.69,0.02-3.09,0.06v-0.7   c0.88-0.01,1.38-0.03,1.52-0.07c0.07-0.02,0.13-0.05,0.17-0.09c0.07-0.07,0.12-0.21,0.16-0.43c0.02-0.13,0.06-0.53,0.09-1.21   c0.04-0.68,0.06-1.16,0.06-1.46v-3.47c0-0.08-0.04-0.86-0.1-2.35c-0.01-0.43-0.06-0.74-0.13-0.92c-0.02-0.06-0.06-0.11-0.11-0.14   c-0.05-0.03-0.16-0.06-0.32-0.09c-0.17-0.03-0.61-0.06-1.35-0.1v-0.7l4.06,0.07l5.5-0.08c0.77,0,1.5,0.03,2.18,0.08l0.11,0.12   c-0.08,0.32-0.16,0.72-0.21,1.22c-0.06,0.49-0.1,0.93-0.1,1.3h-0.94c0-0.14-0.02-0.43-0.06-0.9c-0.02-0.24-0.04-0.39-0.07-0.44   c-0.02-0.04-0.06-0.07-0.1-0.08c-0.14-0.06-0.45-0.13-0.95-0.2c-0.5-0.06-1.08-0.1-1.74-0.1c-0.13,0-0.49,0.01-1.07,0.02   c-0.58,0.02-0.98,0.03-1.19,0.04c-0.08,0.55-0.12,1.55-0.12,3v1.16c0.97,0.04,1.62,0.06,1.95,0.06c0.98,0,1.6-0.03,1.86-0.1   c0.1-0.02,0.17-0.09,0.21-0.19c0.07-0.14,0.11-0.46,0.13-0.95h1.01V112.81z"></path><path fill="#003A70" d="M60.03,111.15c0-1.02,0.21-1.91,0.63-2.67c0.42-0.76,1.03-1.41,1.81-1.94c0.79-0.53,1.64-0.91,2.56-1.15   c1.18-0.3,2.47-0.45,3.87-0.45c1.39,0,2.64,0.14,3.78,0.43c0.84,0.22,1.58,0.53,2.22,0.94c0.64,0.41,1.13,0.83,1.47,1.26   c0.33,0.43,0.59,0.91,0.76,1.42c0.18,0.51,0.26,1.08,0.26,1.7c0,1.05-0.25,2.03-0.74,2.93c-0.37,0.67-0.9,1.27-1.61,1.78   c-0.71,0.52-1.51,0.92-2.41,1.2c-1.24,0.37-2.65,0.56-4.23,0.56c-1.72,0-3.19-0.23-4.42-0.68c-1.23-0.46-2.2-1.13-2.9-2.02   C60.38,113.58,60.03,112.48,60.03,111.15 M63.56,110.65c0,1.3,0.24,2.38,0.73,3.24c0.49,0.85,1.11,1.46,1.87,1.81   c0.76,0.35,1.66,0.53,2.7,0.53c0.96,0,1.81-0.17,2.57-0.5c0.76-0.34,1.35-0.91,1.78-1.7c0.43-0.8,0.64-1.77,0.64-2.91   c0-0.78-0.11-1.5-0.35-2.15c-0.23-0.65-0.57-1.2-1-1.66c-0.44-0.46-0.95-0.8-1.54-1.04c-0.59-0.24-1.37-0.36-2.34-0.36   c-1.11,0-2.06,0.19-2.84,0.57c-0.78,0.38-1.34,0.95-1.7,1.7C63.73,108.92,63.56,109.75,63.56,110.65"></path><path fill="#003A70" d="M81.41,111.15c0-1.02,0.21-1.91,0.63-2.67c0.42-0.76,1.03-1.41,1.81-1.94c0.79-0.53,1.64-0.91,2.56-1.15   c1.18-0.3,2.47-0.45,3.86-0.45c1.39,0,2.65,0.14,3.77,0.43c0.84,0.22,1.58,0.53,2.22,0.94c0.65,0.41,1.13,0.83,1.47,1.26   c0.34,0.43,0.59,0.91,0.76,1.42c0.17,0.51,0.26,1.08,0.26,1.7c0,1.05-0.25,2.03-0.74,2.93c-0.37,0.67-0.9,1.27-1.61,1.78   c-0.71,0.52-1.51,0.92-2.41,1.2c-1.23,0.37-2.65,0.56-4.23,0.56c-1.71,0-3.19-0.23-4.42-0.68c-1.23-0.46-2.2-1.13-2.9-2.02   C81.76,113.58,81.41,112.48,81.41,111.15 M84.93,110.65c0,1.3,0.24,2.38,0.73,3.24c0.49,0.85,1.11,1.46,1.87,1.81   c0.76,0.35,1.66,0.53,2.7,0.53c0.96,0,1.82-0.17,2.58-0.5c0.76-0.34,1.35-0.91,1.78-1.7c0.43-0.8,0.65-1.77,0.65-2.91   c0-0.78-0.12-1.5-0.35-2.15c-0.23-0.65-0.57-1.2-1-1.66c-0.43-0.46-0.94-0.8-1.54-1.04c-0.59-0.24-1.37-0.36-2.34-0.36   c-1.11,0-2.06,0.19-2.84,0.57c-0.78,0.38-1.35,0.95-1.7,1.7C85.11,108.92,84.93,109.75,84.93,110.65"></path><path fill="#003A70" d="M102.37,116.89v-0.4c0.06-0.02,0.16-0.07,0.32-0.13c0.29-0.12,0.56-0.24,0.8-0.37   c0.08-0.75,0.12-1.97,0.12-3.65v-1.38c0-0.74-0.02-1.82-0.05-3.25c-0.02-0.79-0.07-1.29-0.15-1.51c-0.02-0.05-0.05-0.09-0.09-0.12   c-0.06-0.04-0.16-0.08-0.29-0.1c-0.13-0.02-0.6-0.07-1.43-0.15v-0.68l4.14,0.07c0.49,0,1.4-0.02,2.75-0.05   c0.98-0.02,1.76-0.03,2.34-0.03c1.35,0,2.43,0.06,3.24,0.18c0.81,0.12,1.52,0.31,2.12,0.58c0.6,0.27,1.11,0.58,1.52,0.94   c0.41,0.37,0.73,0.75,0.94,1.17c0.36,0.7,0.54,1.47,0.54,2.31c0,1.07-0.26,2.02-0.8,2.86c-0.53,0.84-1.27,1.54-2.2,2.1   c-0.93,0.56-1.94,0.97-3.03,1.22c-1.09,0.25-2.4,0.37-3.94,0.37l-3.39-0.06L102.37,116.89z M106.94,115.86   c0.7,0.09,1.38,0.14,2.02,0.14c1.01,0,1.9-0.08,2.68-0.23c0.57-0.12,1.08-0.29,1.51-0.51c0.43-0.22,0.85-0.55,1.24-0.99   c0.39-0.43,0.7-0.96,0.92-1.56c0.22-0.6,0.33-1.26,0.33-1.95c0-0.64-0.11-1.25-0.33-1.85c-0.22-0.6-0.58-1.12-1.08-1.57   c-0.5-0.45-1.13-0.77-1.9-0.97c-0.76-0.2-1.92-0.3-3.47-0.3c-0.59,0-1.23,0.04-1.93,0.13c-0.08,0.79-0.12,2.29-0.12,4.47v1.92   C106.82,114.23,106.86,115.33,106.94,115.86"></path><path fill="#003A70" d="M133.17,108.21h-0.96c-0.01-0.65-0.05-1.11-0.11-1.37c-0.23-0.25-0.64-0.46-1.23-0.66   c-0.58-0.19-1.23-0.28-1.96-0.28c-1.03,0-1.83,0.19-2.4,0.57c-0.57,0.38-0.85,0.83-0.85,1.35c0.01,0.37,0.09,0.67,0.25,0.9   c0.16,0.23,0.39,0.41,0.68,0.55c0.3,0.13,0.73,0.26,1.31,0.37c0.44,0.07,1.06,0.15,1.84,0.25c0.79,0.1,1.3,0.18,1.53,0.21   c0.62,0.12,1.12,0.26,1.5,0.42c0.38,0.17,0.68,0.36,0.91,0.57c0.22,0.22,0.41,0.49,0.55,0.81c0.14,0.33,0.22,0.7,0.22,1.1   c0,0.72-0.2,1.34-0.61,1.89c-0.31,0.41-0.73,0.78-1.27,1.12c-0.54,0.34-1.1,0.59-1.67,0.76c-0.91,0.27-2.01,0.4-3.29,0.4   c-0.93,0-1.77-0.06-2.5-0.19c-0.73-0.13-1.54-0.35-2.41-0.66c0.23-0.64,0.36-1.61,0.37-2.9h0.96c-0.02,0.41,0.03,0.91,0.13,1.5   c0.29,0.35,0.79,0.65,1.49,0.91c0.7,0.27,1.46,0.4,2.29,0.4c0.72,0,1.37-0.09,1.94-0.28c0.57-0.19,0.98-0.45,1.23-0.78   c0.26-0.33,0.38-0.7,0.38-1.12c0-0.36-0.09-0.66-0.27-0.91c-0.18-0.25-0.46-0.45-0.84-0.61c-0.38-0.15-1.05-0.31-2.01-0.47   c-1.38-0.21-2.28-0.37-2.72-0.46c-0.66-0.15-1.18-0.36-1.58-0.63c-0.4-0.28-0.7-0.61-0.9-0.99c-0.2-0.39-0.29-0.81-0.29-1.26   c0-0.63,0.18-1.2,0.54-1.73c0.36-0.53,0.83-0.94,1.42-1.23c0.58-0.29,1.25-0.5,1.99-0.62c0.74-0.13,1.5-0.19,2.28-0.19   c0.8,0,1.59,0.05,2.35,0.16c0.76,0.11,1.41,0.26,1.97,0.46l0.09,0.2c-0.11,0.36-0.19,0.72-0.24,1.07   C133.23,107.18,133.2,107.64,133.17,108.21"></path></g><rect x="41.48" y="101.46" fill="#968B83" width="96.99" height="1.71"></rect><path fill="#FFFFFF" d="M103.6,84.28l0.48,1.05c-0.35,0.31-0.88,0.85-1.61,1.62c-0.72,0.77-1.24,1.35-1.54,1.73  c-0.79,0.18-1.44,0.26-1.95,0.26c-0.94,0-1.82-0.14-2.62-0.42c-1.15-0.39-2.35-1.04-3.59-1.93c-1.02,0.79-2.08,1.38-3.21,1.78  c-1.13,0.4-2.4,0.59-3.81,0.59c-2.52,0-4.44-0.67-5.75-2.02c-1.31-1.35-1.96-2.87-1.96-4.57c0-1.24,0.32-2.33,0.96-3.26  c0.88-1.28,2.34-2.39,4.36-3.33c-0.41-0.92-0.71-1.71-0.87-2.38c-0.17-0.67-0.25-1.35-0.25-2.05c0-0.94,0.19-1.62,0.56-2.04  l1.58-1.8c0.73-0.84,1.24-1.33,1.5-1.48c0.92-0.49,1.89-0.73,2.9-0.73c0.75,0,1.42,0.15,2.02,0.44c0.59,0.29,1.04,0.71,1.35,1.28  c0.31,0.57,0.46,1.18,0.46,1.86c0,0.97-0.34,1.96-1.03,2.96c-0.7,1-2.14,2.17-4.34,3.52c1.02,1.5,2.15,2.94,3.4,4.31  c1.26,1.36,2.47,2.48,3.63,3.34c0.38-0.6,0.64-1.15,0.81-1.64c0.17-0.48,0.24-0.98,0.24-1.47c0-0.39-0.05-0.8-0.16-1.25  c-0.11-0.44-0.27-0.83-0.48-1.17h-2.96l-0.15-0.19c0.23-0.36,0.4-0.65,0.51-0.85l0.56-1.21c2.13,0.06,3.38,0.09,3.74,0.09  c2.98,0,5.27-0.09,6.88-0.26l0.14,0.13c-0.24,0.66-0.39,1.12-0.45,1.4c-0.06,0.27-0.1,0.59-0.14,0.98l-0.15,0.17  c-1.37-0.12-2.14-0.19-2.32-0.19c-0.44-0.03-1.27-0.05-2.5-0.07c0.11,0.52,0.16,0.97,0.16,1.36c0,0.81-0.16,1.6-0.49,2.35  c-0.32,0.76-0.91,1.66-1.77,2.69c0.75,0.52,1.59,0.92,2.54,1.2c0.94,0.28,1.84,0.42,2.69,0.42c0.25,0,0.46-0.03,0.62-0.08  c0.16-0.05,0.36-0.13,0.58-0.26L103.6,84.28z M84.01,77.17c-0.58,0.35-1.04,0.79-1.39,1.34c-0.34,0.54-0.52,1.18-0.52,1.89  c0,1.06,0.29,2.1,0.89,3.09c0.58,1,1.33,1.78,2.26,2.32c0.92,0.55,1.86,0.82,2.82,0.82c1.11,0,2.2-0.35,3.29-1.04  c-1.6-1.33-2.96-2.63-4.06-3.9C86.2,80.43,85.1,78.92,84.01,77.17 M86.52,74.01c1.06-0.73,1.85-1.45,2.35-2.15  c0.5-0.7,0.75-1.43,0.75-2.21c0-0.7-0.2-1.25-0.59-1.67c-0.39-0.41-0.89-0.63-1.48-0.63c-0.63,0-1.16,0.22-1.58,0.67  c-0.42,0.44-0.64,1.03-0.64,1.78C85.33,70.99,85.73,72.4,86.52,74.01"></path><g><path fill="#B12028" d="M74.01,72.43h-1.98c0-0.52-0.03-1.29-0.1-2.31c-0.05-0.71-0.13-1.32-0.25-1.83   c-0.41-0.49-0.86-0.89-1.34-1.19c-1.07-0.72-2.31-1.27-3.71-1.68c-1.4-0.41-2.99-0.61-4.75-0.61c-4.12,0-7.42,1.26-9.91,3.78   c-2.48,2.51-3.72,5.97-3.72,10.36c0,4.8,1.31,8.61,3.92,11.44c2.62,2.83,5.82,4.24,9.62,4.24c1.1,0,2.18-0.11,3.23-0.34   c1.05-0.23,2.07-0.55,3.08-0.99c0.05-0.45,0.09-1.28,0.12-2.53c0.03-1.24,0.05-1.99,0.05-2.26c0-1.56-0.06-2.47-0.2-2.77   c-0.1-0.19-0.32-0.34-0.67-0.42c-0.58-0.16-2.14-0.31-4.7-0.46v-1.98l7.4,0.1l7.44-0.1v1.62c-0.95,0.19-1.57,0.46-1.87,0.8   c-0.15,0.16-0.24,0.6-0.27,1.34c-0.09,1.86-0.13,3.19-0.13,4c0,1.23,0.08,2.49,0.23,3.78c-3.07,1.11-5.75,1.88-8.04,2.34   c-2.29,0.46-4.57,0.68-6.85,0.68c-3.72,0-7-0.62-9.86-1.85c-2-0.88-3.71-2.01-5.13-3.38c-1.42-1.38-2.5-2.86-3.24-4.46   c-1.17-2.47-1.76-5.21-1.76-8.22c0-2.55,0.38-4.77,1.15-6.66c0.77-1.9,1.84-3.56,3.21-4.98c1.37-1.41,2.92-2.56,4.67-3.45   c1.74-0.89,3.56-1.52,5.47-1.9c1.91-0.38,4-0.57,6.28-0.57c2.81,0,5.42,0.25,7.84,0.76c2.42,0.51,4.31,1.06,5.66,1.65l0.2,0.47   C74.71,66.28,74.35,68.81,74.01,72.43"></path><path fill="#B12028" d="M60.61,97.98c-3.77,0-7.16-0.64-10.07-1.89c-2.05-0.9-3.83-2.07-5.29-3.49c-1.47-1.42-2.59-2.98-3.35-4.61   c-1.2-2.52-1.81-5.36-1.81-8.45c0-2.61,0.4-4.92,1.19-6.86c0.79-1.96,1.91-3.69,3.32-5.15c1.4-1.45,3.02-2.64,4.81-3.55   c1.77-0.9,3.66-1.56,5.61-1.95c1.93-0.39,4.07-0.58,6.38-0.58c2.82,0,5.49,0.26,7.95,0.77c2.49,0.52,4.38,1.07,5.76,1.69l0.19,0.08   l0.36,0.82l-0.05,0.18c-0.39,1.39-0.75,3.9-1.08,7.48l-0.04,0.48H71.5v-0.53c0-0.51-0.03-1.28-0.1-2.28   c-0.04-0.63-0.11-1.17-0.2-1.62c-0.36-0.41-0.73-0.74-1.14-1c-1.02-0.68-2.22-1.23-3.57-1.62c-1.34-0.39-2.89-0.59-4.61-0.59   c-3.95,0-7.16,1.22-9.53,3.62c-2.37,2.39-3.57,5.76-3.57,9.99c0,4.64,1.27,8.37,3.78,11.09c2.5,2.7,5.6,4.07,9.23,4.07   c1.07,0,2.11-0.11,3.12-0.33c0.93-0.2,1.83-0.49,2.7-0.84c0.03-0.46,0.06-1.16,0.09-2.18c0.03-1.31,0.05-2,0.05-2.24   c0-2.05-0.11-2.47-0.15-2.55c0,0-0.06-0.07-0.31-0.12c-0.33-0.09-1.35-0.26-4.61-0.45l-0.5-0.03v-3.01l7.93,0.1l7.96-0.1v2.58   l-0.42,0.09c-1.09,0.22-1.46,0.49-1.58,0.63c-0.01,0.01-0.11,0.2-0.15,1.02c-0.09,1.83-0.13,3.17-0.13,3.98   c0,1.19,0.08,2.44,0.23,3.72l0.05,0.42l-0.39,0.14c-3.07,1.11-5.8,1.9-8.11,2.36C65.26,97.75,62.92,97.98,60.61,97.98z M61.41,62.5   c-2.24,0-4.32,0.19-6.18,0.56c-1.86,0.37-3.65,1-5.34,1.85c-1.68,0.86-3.21,1.98-4.53,3.35c-1.31,1.36-2.36,2.98-3.1,4.81   c-0.74,1.82-1.11,3.99-1.11,6.46c0,2.93,0.57,5.62,1.71,8c0.71,1.52,1.76,2.97,3.13,4.3c1.37,1.33,3.04,2.43,4.98,3.28   c2.77,1.2,6.02,1.8,9.65,1.8c2.24,0,4.51-0.23,6.75-0.67c2.16-0.43,4.71-1.16,7.57-2.18c-0.13-1.18-0.19-2.33-0.19-3.43   c0-0.83,0.05-2.18,0.14-4.03c0.04-0.92,0.16-1.4,0.41-1.67c0.32-0.36,0.89-0.65,1.73-0.86v-0.67l-6.91,0.09l-6.88-0.09v0.95   c2.28,0.14,3.72,0.29,4.31,0.45c0.48,0.11,0.82,0.34,1,0.68c0.14,0.3,0.26,0.86,0.26,3.01c0,0.25-0.01,0.93-0.05,2.27   c-0.03,1.31-0.07,2.13-0.12,2.58l-0.03,0.3l-0.28,0.12c-1.01,0.44-2.08,0.78-3.18,1.02c-1.08,0.23-2.2,0.35-3.34,0.35   c-3.93,0-7.3-1.48-10-4.41c-2.69-2.92-4.06-6.89-4.06-11.8c0-4.52,1.3-8.14,3.88-10.73c2.58-2.61,6.04-3.93,10.28-3.93   c1.82,0,3.47,0.21,4.9,0.63c1.46,0.42,2.75,1.01,3.86,1.75c0.51,0.33,0.99,0.75,1.44,1.29l0.08,0.1l0.03,0.12   c0.12,0.52,0.21,1.17,0.26,1.91c0.05,0.73,0.08,1.34,0.09,1.82h0.99c0.31-3.29,0.64-5.59,1.02-7.01l-0.05-0.11   c-1.29-0.55-3.09-1.06-5.37-1.54C66.75,62.75,64.15,62.5,61.41,62.5z"></path></g><g><path fill="#B12028" d="M134.25,92.29l-1.12,2.42c-2.03,1.06-3.85,1.78-5.47,2.18c-1.62,0.39-3.63,0.59-6.06,0.59   c-3.44,0-6.48-0.53-9.13-1.6c-2.08-0.86-3.84-2.01-5.28-3.42c-1.45-1.42-2.56-2.96-3.34-4.62c-1.19-2.51-1.78-5.23-1.78-8.16   c0-5.03,1.75-9.14,5.25-12.32c3.49-3.18,8.43-4.78,14.82-4.78c2.19,0,4.16,0.16,5.91,0.48c1.75,0.32,3.77,0.88,6.08,1.7l0.12,0.31   c-0.26,0.75-0.46,1.69-0.61,2.83c-0.25,1.81-0.4,3.47-0.46,5h-1.92c-0.03-1.75-0.12-3.15-0.26-4.21c-1.09-1.12-2.31-1.95-3.66-2.5   c-1.35-0.55-3.08-0.83-5.19-0.83c-3.81,0-6.86,1.19-9.14,3.55c-2.29,2.37-3.43,5.68-3.43,9.92c0,2.57,0.39,4.81,1.16,6.72   c0.77,1.92,1.8,3.5,3.08,4.76c1.28,1.25,2.57,2.16,3.87,2.74c1.78,0.76,3.92,1.15,6.43,1.15c1.66,0,3.23-0.18,4.7-0.55   c1.48-0.37,3.08-1,4.82-1.89L134.25,92.29z"></path><path fill="#B12028" d="M121.61,98.35c-3.53,0-6.71-0.56-9.46-1.66c-2.17-0.9-4.04-2.11-5.57-3.61c-1.5-1.48-2.69-3.12-3.52-4.88   c-1.24-2.61-1.86-5.48-1.86-8.54c0-5.26,1.86-9.62,5.54-12.97c3.65-3.32,8.84-5,15.41-5c2.22,0,4.26,0.17,6.06,0.5   c1.8,0.33,3.89,0.91,6.21,1.73l0.38,0.13l0.39,0.98l-0.11,0.31c-0.24,0.68-0.43,1.57-0.57,2.65c-0.24,1.78-0.4,3.43-0.46,4.92   l-0.04,0.84h-3.62l-0.02-0.86c-0.03-1.51-0.1-2.79-0.22-3.82c-0.94-0.92-2-1.62-3.16-2.09c-1.25-0.51-2.88-0.76-4.86-0.76   c-3.54,0-6.4,1.1-8.51,3.28c-2.11,2.19-3.19,5.33-3.19,9.31c0,2.44,0.37,4.59,1.09,6.4c0.71,1.78,1.68,3.28,2.88,4.45   c1.19,1.16,2.41,2.03,3.61,2.56c1.65,0.71,3.7,1.07,6.08,1.07c1.58,0,3.09-0.18,4.49-0.52c1.4-0.35,2.96-0.97,4.63-1.82l0.54-0.28   l1.54,1.39l-1.52,3.28l-0.27,0.14c-2.08,1.08-3.99,1.84-5.66,2.25C126.18,98.15,124.08,98.35,121.61,98.35z M122.15,63.44   c-6.12,0-10.91,1.53-14.23,4.55c-3.29,3-4.96,6.93-4.96,11.67c0,2.79,0.57,5.41,1.69,7.79c0.74,1.57,1.8,3.04,3.16,4.37   c1.37,1.34,3.05,2.43,5,3.24c2.53,1.02,5.49,1.53,8.8,1.53c2.33,0,4.3-0.19,5.85-0.56c1.46-0.36,3.15-1.02,5-1.96l0.46-1   c-1.37,0.64-2.68,1.11-3.89,1.42c-1.54,0.38-3.19,0.57-4.91,0.57c-2.62,0-4.9-0.41-6.78-1.22c-1.41-0.63-2.8-1.6-4.14-2.92   c-1.37-1.34-2.48-3.04-3.28-5.06c-0.81-2.01-1.22-4.39-1.22-7.05c0-4.46,1.24-8,3.68-10.53c2.45-2.53,5.73-3.82,9.77-3.82   c2.2,0,4.06,0.3,5.52,0.89c1.47,0.6,2.8,1.51,3.96,2.7l0.2,0.21l0.04,0.29c0.12,0.94,0.2,2.1,0.25,3.44h0.23   c0.08-1.32,0.22-2.74,0.43-4.24c0.12-0.92,0.27-1.72,0.46-2.4c-1.99-0.68-3.79-1.17-5.34-1.45   C126.19,63.6,124.26,63.44,122.15,63.44z"></path></g></svg>