<?xml version="1.0" encoding="utf-8"?>
<!-- Generator: Adobe Illustrator 27.6.1, SVG Export Plug-In . SVG Version: 6.00 Build 0)  -->
<svg version="1.2" baseProfile="tiny-ps" id="Layer_1" xmlns="http://www.w3.org/2000/svg" xmlns:xlink="http://www.w3.org/1999/xlink"
	  viewBox="0 0 104 104"  xml:space="preserve">
    <title>CyberGhost VPN</title>
<path fill="#FFCC00" d="M103.6,51.8c0-10.2-3-20.3-8.7-28.8C89.2,14.5,81.1,7.9,71.6,3.9C62.2,0,51.7-1,41.7,1
	c-10,2-19.3,6.9-26.5,14.2C7.9,22.4,3,31.7,1,41.7c-2,10-1,20.5,2.9,29.9C7.9,81.1,14.5,89.2,23,94.9c8.5,5.7,18.5,8.7,28.8,8.7
	c6.8,0,13.5-1.3,19.8-3.9c6.3-2.6,12-6.4,16.8-11.2c4.8-4.8,8.6-10.5,11.2-16.8C102.3,65.3,103.6,58.6,103.6,51.8z"/>
<path fill="#323232" d="M76.7,43.2c0-6.8-2.7-13.3-7.5-18.1c-4.8-4.8-11.3-7.5-18.1-7.5S37.8,20.3,33,25.1
	c-4.8,4.8-7.5,11.3-7.5,18.1c0,14.1-6,39.7,8.2,39.7C96.8,82.9,76.7,57.3,76.7,43.2z M45.5,58c-5.2,0-9.5-6-9.5-13.3
	s4.2-13.3,9.5-13.3s9.5,6,9.5,13.3S50.7,58,45.5,58z M67.5,53.6c-4.1,0-7.5-4.7-7.5-10.5s3.4-10.5,7.5-10.5S75,37.2,75,43
	S71.6,53.6,67.5,53.6L67.5,53.6z"/>
</svg>
