<?xml version="1.0" encoding="UTF-8"?>
<svg version="1.2" baseProfile="tiny-ps"
	 id="svg22" xmlns:cc="http://creativecommons.org/ns#" xmlns:dc="http://purl.org/dc/elements/1.1/" xmlns:inkscape="http://www.inkscape.org/namespaces/inkscape" xmlns:rdf="http://www.w3.org/1999/02/22-rdf-syntax-ns#" xmlns:sodipodi="http://sodipodi.sourceforge.net/DTD/sodipodi-0.dtd" xmlns:svg="http://www.w3.org/2000/svg"
	 xmlns="http://www.w3.org/2000/svg" xmlns:xlink="http://www.w3.org/1999/xlink" viewBox="-5 -6 256.993 249.372"
	 xml:space="preserve">
  <title>Ravelin</title>
  <path class="cls-1" fill="#2a4afc" d="M170.652,96.068,125.028,63.41,79.421,96.067l17.493,53.064h56.212Zm-64.343,40.025L94.737,101l30.291-21.639,30.31,21.705L143.78,136.093Z"></path>
  <path class="cls-1" fill="#2a4afc" d="M213.248,100.355,230.419,76.6,202.48,67.442v-63L142.3,23.657,125.011,0,107.675,23.768,47.511,4.321V67.426L19.639,76.55l17.266,23.933L0,151.448l59.768,19.709v29.474l28.1-9.1L125.1,242.372l37.068-50.914,28.124,9.176V170.916l59.8-19.446Zm-28.213,34.86,2.865-8.875,5.277,1.72,12.057-16.585,23.926,33.154-38.888,12.642V136.919Zm-84.181,52.05,19.533-6.3v-5.532h9.282v5.531l19.5,6.3-24.129,33.053Zm6.544-24.773v9.069l-34.673,11.25V146.337l8.632-2.8-10.892-33.5-8.614,2.8L40.564,83.354,75.1,72.01l5.345,7.339,28.489-20.682-5.33-7.34L125.012,22l21.441,29.325L141.124,58.7l28.541,20.682,5.312-7.373,34.53,11.31-21.3,29.447-8.631-2.8-10.891,33.568,8.631,2.8V182.73l-34.69-11.219v-9.019ZM189.507,63.2l-19.473-6.3-3.22,4.412-7.535-5.475,3.27-4.494L150.4,34.705l39.1-12.553ZM87.557,51.323l2.4,3.317.889,1.187-7.54,5.482-3.269-4.495L60.484,63.2V22.155L99.623,34.8ZM64.992,135.209l-5.224,1.674v20.58L20.912,144.7,44.9,111.555l11.973,16.571,5.284-1.721Z"></path>
</svg>
