<?xml version="1.0" encoding="utf-8"?>
<!-- Generator: Adobe Illustrator 27.3.1, SVG Export Plug-In . SVG Version: 6.00 Build 0)  -->
<svg version="1.2" baseProfile="tiny-ps" id="Layer_1" xmlns="http://www.w3.org/2000/svg" xmlns:xlink="http://www.w3.org/1999/xlink"
	 viewBox="0 0 148 146.9" xml:space="preserve">
	 <title>PhonePe</title>
<circle fill="#5F259F" cx="74" cy="73.5" r="67.7"/>
<path fill="#FFFFFF" d="M104.6,55.7c0-2.6-2.1-4.8-4.8-4.8h-9L70.1,27c-1.9-2.2-5-3.1-7.8-2.3L55,26.8c-1.1,0.3-1.4,1.7-0.6,2.5
	L77.1,51H42.5c-1,0-1.8,0.8-1.8,1.8v3.9c0,2.6,2.1,4.8,4.8,4.8h5.3v18.3c0,13.6,7.3,21.8,19.4,21.8c3.7,0,6.9-0.4,10.5-1.9v12.2
	c0,3.3,2.7,6,6,6h5.2c1.2,0,2.3-1,2.3-2.3V61.4h8.7c1,0,1.8-0.8,1.8-1.8L104.6,55.7L104.6,55.7L104.6,55.7z M80.7,88.2
	c-2.1,1-5.2,1.5-7.5,1.5c-6.2,0-9-3.1-9-10V61.4h16.5V88.2z"/>
</svg>
