<?xml version="1.0" encoding="utf-8"?>
<!-- Generator: Adobe Illustrator 25.2.3, SVG Export Plug-In . SVG Version: 6.00 Build 0)  -->
<svg version="1.2" baseProfile="tiny-ps" id="Layer_1" xmlns="http://www.w3.org/2000/svg" xmlns:xlink="http://www.w3.org/1999/xlink"
	 viewBox="0 0 300 300" xml:space="preserve">
<title>Palantir Technologies</title>
<rect fill="#15181C" width="300" height="300"/>
<path fill="#FFFFFF" d="M153,180.37c24.56,0,44.47-20.01,44.47-44.7c0-24.69-19.91-44.7-44.47-44.7c-24.56,0-44.47,20.01-44.47,44.7
	C108.53,160.36,128.44,180.37,153,180.37z M153,104.81c16.98,0,30.75,13.84,30.75,30.9s-13.77,30.91-30.75,30.91
	c-16.98,0-30.75-13.84-30.75-30.91S136.02,104.81,153,104.81z M153,209.02l-46.35-19.86l6.6-12.72L153,193.7l39.75-17.25l6.6,12.72
	L153,209.02z"/>
</svg>
