<?xml version="1.0" encoding="utf-8"?>
<!-- Generator: Adobe Illustrator 22.0.0, SVG Export Plug-In . SVG Version: 6.00 Build 0)  -->
<svg version="1.2" baseProfile="tiny-ps" id="Layer_1" xmlns="http://www.w3.org/2000/svg" xmlns:xlink="http://www.w3.org/1999/xlink"
	 viewBox="0 0 500.3 500.3" xml:space="preserve">
<title>VEJA Fair Trade SARL</title>
		<path d="M300.4,325.4h-13.5v39.3c0,3-0.3,5.3-0.9,6.7c-0.8,2.1-2.4,3.7-4.8,4.7c-1.5,0.5-3.2,0.6-5,0.5l-2.4-0.5
			c-3.5-1.5-5.3-4.5-5.5-8.9H255c0.2,5.9,1.9,10.8,5.3,14.8c3.4,4.1,7.9,6.6,13.6,7.4c2.8,0.4,5.3,0.4,7.4,0
			c3.4-0.5,6.5-1.7,9.3-3.6c2.9-2,5.2-4.4,6.9-7.4c1.2-2.2,2-4.5,2.4-7c0.3-2,0.5-4.4,0.5-7.4L300.4,325.4L300.4,325.4z
			 M211.3,374.9v-11.6h20.3v-13h-20.3v-11.7h32.1v-13.1h-45.6V388h45.6v-13.1H211.3z M117.7,325.4l33.7,65.6l33.8-65.6h-15
			l-18.7,36.3l-18.8-36.3H117.7z M346,351.9l6.5,12.5h-13L346,351.9z M332.8,377.5h26.4l5.4,10.5h15.1l-33.8-65.5L312.3,388h15
			L332.8,377.5z M346,109.2c-8.4,0-14.8,0.7-19.1,2.2c-9.6,3.3-17.4,10.1-23.4,20.6l-54.1,94.2l-52.8-83.3h-71.1l77.6,119.4h91.4
			l87.9-153.1L346,109.2L346,109.2z M500,500H0V0h500V500z"/>
</svg>
