<?xml version="1.0" encoding="utf-8"?>
<!-- Generator: Adobe Illustrator 28.2.0, SVG Export Plug-In . SVG Version: 6.00 Build 0)  -->
<svg version="1.2" baseProfile="tiny-ps" id="Layer_1" xmlns="http://www.w3.org/2000/svg" xmlns:xlink="http://www.w3.org/1999/xlink"
	 viewBox="0 0 720 216" xml:space="preserve">
<title>Nathan James</title>
<g>
	<path fill="#3A3E3E" d="M75.6,137.1v-3.2l5.3-0.7V98.8c0-5.6-1.7-6.6-5.6-6.6v-2.7l10.9-4.4c1.3,2.6,2.6,5.5,3.3,8
		c4.7-4.1,7.6-8,16.1-8c9.9,0,16.7,5.7,16.7,18.8v29.3l5.3,0.7v3.2h-19.1v-3.2l5.3-0.7v-28.9c0-7.8-3.3-13.1-11.1-13.1
		c-5.7,0-9.3,2.9-13.1,7.3v34.7l5.3,0.7v3.2H75.6z"/>
	<path fill="#3A3E3E" d="M160.6,107.5c-7.1,1.3-18.6,5.8-18.6,16.3c0,5.3,3.3,8.8,8.6,8.8c4.2,0,7.6-2.5,10-5.6V107.5z M169.1,129.6
		c0,2.4,1.3,3,2.5,3c1.6,0,2.7-1.2,3.4-1.9l2.2,2.1c-2.4,3.4-5.5,5.9-9.9,5.9c-3.7,0-6.1-3.3-6.4-7c-3.6,3.9-9.5,7-14.8,7
		c-7.2,0-13.3-5.2-13.3-12.6c0-13.4,16.8-20,27.9-22.5c0-11.5-7-14.7-10.4-14.7c-3.9,0-2.1,7.1-9.2,7.1c-2.6,0-4.5-1.9-4.5-4.9
		c0-4.5,2.5-6,9.5-6c6.4,0,23,3.5,23,18.3V129.6z"/>
	<path fill="#3A3E3E" d="M209,86.7v4.6h-13.8v33.1c0,5.9,1.9,8.1,7.2,8.1c2.5,0,5.5-1.9,8.2-4l1.6,3.3c-4.6,4.2-8.6,6.9-15,6.9
		c-6.9,0-10.6-5.2-10.6-15.1V91.3H180v-4.6h6.8V72.8l8.6-7v20.8H209z"/>
	<path fill="#3A3E3E" d="M249.1,137.1v-3.2l5.3-0.7v-29.1c0-9.1-4.4-12.9-11-12.9c-4.6,0-9.3,2.3-13.5,6.2v35.7l5.3,0.7v3.2H216
		v-3.2l5.3-0.7V74.8c0-7.3-0.9-9.2-3.2-9.2c-0.7,0-1.6,0.1-2.6,0.4v-3.2l14.6-4.9c-0.1,2.2-0.2,4.1-0.2,6.4v27.8
		c4.6-3.3,10.4-7.2,16.6-7.2c9.8,0,16.5,7.6,16.5,16.7v31.4l5.3,0.7v3.2H249.1z"/>
	<path fill="#3A3E3E" d="M301.5,107.5c-7.1,1.3-18.6,5.8-18.6,16.3c0,5.3,3.3,8.8,8.6,8.8c4.2,0,7.6-2.5,10-5.6V107.5z M310,129.6
		c0,2.4,1.3,3,2.5,3c1.6,0,2.7-1.2,3.4-1.9l2.2,2.1c-2.4,3.4-5.5,5.9-9.9,5.9c-3.7,0-6.1-3.3-6.4-7c-3.6,3.9-9.5,7-14.8,7
		c-7.2,0-13.3-5.2-13.3-12.6c0-13.4,16.8-20,27.9-22.5c0-11.5-7-14.7-10.4-14.7c-3.9,0-2.1,7.1-9.2,7.1c-2.6,0-4.5-1.9-4.5-4.9
		c0-4.5,2.5-6,9.5-6c6.4,0,23,3.5,23,18.3V129.6z"/>
	<path fill="#3A3E3E" d="M322.2,137.1v-3.2l5.3-0.7V98.8c0-5.6-1.7-6.6-5.6-6.6v-2.7l10.9-4.4c1.3,2.6,2.6,5.5,3.3,8
		c4.7-4.1,7.6-8,16.1-8c9.9,0,16.7,5.7,16.7,18.8v29.3l5.3,0.7v3.2H355v-3.2l5.3-0.7v-28.9c0-7.8-3.3-13.1-11.1-13.1
		c-5.7,0-9.3,2.9-13.1,7.3v34.7l5.3,0.7v3.2H322.2z"/>
	<path fill="#3A3E3E" d="M421.3,67.1c0,3.1-2.1,5.6-5.8,5.6c-3.7,0-5.8-2.5-5.8-5.6c0-3.1,2.1-5.6,5.8-5.6
		C419.2,61.5,421.3,64,421.3,67.1 M419.9,85.1c-0.1,2.2-0.2,4.1-0.2,6.4v39c0,12.4-9.4,25.5-17.9,25.5c-3.7,0-6-2-6-4.8
		c0-2.5,1.6-5.3,4.9-5.3c1.9,0,3.1,0.7,4,1.5c1,0.7,1.6,1.5,2.6,1.5c3.1,0,3.8-6.2,3.8-11.6v-35.4c0-7.3-1-9.2-3.2-9.2
		c-0.7,0-1.6,0.1-2.6,0.4v-3.2L419.9,85.1z"/>
	<path fill="#3A3E3E" d="M459.1,107.5c-7.1,1.3-18.6,5.8-18.6,16.3c0,5.3,3.3,8.8,8.6,8.8c4.2,0,7.6-2.5,10-5.6V107.5z M467.7,129.6
		c0,2.4,1.3,3,2.5,3c1.6,0,2.7-1.2,3.4-1.9l2.2,2.1c-2.4,3.4-5.5,5.9-9.9,5.9c-3.7,0-6.1-3.3-6.4-7c-3.6,3.9-9.5,7-14.8,7
		c-7.2,0-13.3-5.2-13.3-12.6c0-13.4,16.8-20,27.9-22.5c0-11.5-7-14.7-10.4-14.7c-3.9,0-2.1,7.1-9.2,7.1c-2.6,0-4.5-1.9-4.5-4.9
		c0-4.5,2.5-6,9.5-6c6.4,0,23,3.5,23,18.3V129.6z"/>
	<path fill="#3A3E3E" d="M485.4,98.2c0-5.6-1.7-6.6-5.6-6.6v-2.7l10-3.8c1.5,2.6,2.9,5.8,3.8,8.6c4.3-3.6,7.1-8.6,16.4-8.6
		c6.4,0,10.6,3.9,13.1,8.7c5.1-4.3,9.7-8.7,16.9-8.7c9.9,0,15.9,7.1,15.9,19v29.1l5.3,0.7v3.2H542v-3.2l5.3-0.7v-29.9
		c0-9.2-5.6-12-10.8-12c-4.5,0-8.2,2.9-11.6,6v35.9l5.3,0.7v3.2h-19.1v-3.2l5.3-0.7v-31.8c0-4.9-4-10.1-9.9-10.1
		c-4.6,0-9.3,4.2-12.5,6.9v35.1l5.3,0.7v3.2h-19.1v-3.2l5.3-0.7V98.2z"/>
	<path fill="#3A3E3E" d="M591.1,105.2c3.4-0.9,5.6-2,5.6-6.8c0-4-2-9.5-8.1-9.5c-9,0-11.6,8.5-11.6,14.8c0,3.3,0,4.3,0.1,5.4
		L591.1,105.2z M577.4,113.9c0.3,7.3,5,17.7,14.7,17.7c5.9,0,9.5-3.4,12.8-8.5l2.6,1.8c-3.4,7.5-9.6,13.7-18.6,13.7
		c-13.7,0-20.6-12.4-20.6-24.7c0-17.5,9.2-28.9,19.6-28.9c11.7,0,17,9.8,18.5,20.3L577.4,113.9z"/>
	<path fill="#3A3E3E" d="M629.6,138.7c-8.2,0-16-3.9-16-9.2c0-3.6,2-5.5,5-5.5c8,0,3.4,10.9,11.2,10.9c5.7,0,11-2.9,11-8.3
		c0-13.2-24.3-10.9-24.3-26.8c0-8.9,7-14.6,19-14.6c6.1,0,9.2,2.5,9.2,5.9c0,3.6-2,5-5.2,5c-5.1,0-4.9-7.1-8.7-7.1
		c-4.3,0-7.3,3-7.3,7.2c0,11.8,24.3,7.8,24.3,27.1C647.8,131.3,641,138.7,629.6,138.7"/>
</g>
</svg>
