<?xml version="1.0" encoding="UTF-8" standalone="yes"?>
<svg version="1.2" baseProfile="tiny-ps" viewBox="0 0 250 250" xml:space="preserve" xmlns="http://www.w3.org/2000/svg">
  <title>Paradox Interactive AB</title>
  <rect x="0" fill="#FFFFFF" width="250" height="250"/>
  <g id="Symbols">
    <g id="Logo_x2F_Platypus_x2F_Black">
      <g id="Shape">
        <path fill="#1A1A1A" d="M216.9,130.3c-1.1-5.8,4.7-10.7,1.9-16.4c-2.8-5.8-16.4-5.5-16.6-12.2c-0.2-7.7,10.9-3.8,15.5-3.6&#xA;&#x9;&#x9;&#x9;&#x9;c0-12.4-4.9-23-18.1-14.5c-2.1,0-5.3-0.4-6.4-2.3c-4-7.3,8.1-9,8.5-14.7c0.2-3.4-4-5.5-5.3-8.3c-0.9-1.9,0-4.3,0-6.2&#xA;&#x9;&#x9;&#x9;&#x9;c0-0.9-1.1-0.9-1.7-1.1c-2.6-0.6-4.9,0.9-7.5,0.2c-2.8-0.6-4.5-3.2-7-4.5c0,1.1-1.9,2.3-2.3,3.2c-1.9,2.6-8.5,11.7-12.8,7.9&#xA;&#x9;&#x9;&#x9;&#x9;c-1.7-1.5-1.3-4.3-1.1-6.4c2.3-16-3.4-17.7-17.5-19.8c-3.4-0.6-12.1-2.6-16-1.5c0,2.8,3.4,21.8-2.8,20.9c-7.2,0-3.4-19-13.8-21.3&#xA;&#x9;&#x9;&#x9;&#x9;c-1.7,0.6-4,0.9-5.1,2.6c-1.5,2.1,1.5,9,2.1,11.5c0.9,3.2,0.6,7.7-0.6,10.5c-11.9,0.4-10.6-26-29.4-13.2c0,7,16.8,16,11.1,23.9&#xA;&#x9;&#x9;&#x9;&#x9;c-1.1,1.3-2.6,2.3-4.3,2.6C79,68.7,75.3,49,65.1,51c-1.7,0.2-3.2,1.5-3.8,3C59,58.7,70,65.3,71.7,70c0.9,2.6,0,4.9-0.2,7.3&#xA;&#x9;&#x9;&#x9;&#x9;c-8.5,0-18.5-12.2-26.4-4.5c-1.3,1.3-2.6,2.8-2.1,4.7c0.9,3.2,6.6,2.8,8.3,5.8c3.2,7.3-3.6,12.4-3.8,18.6c0,3,2.3,4.9,1.3,8.3&#xA;&#x9;&#x9;&#x9;&#x9;c-3.2,11.3-14.3-1.5-19.6,3.4c-4.7,4.5,0.6,13.7,1.1,19c0.2,3.4-1.7,6-1.9,9.4c-0.2,2.8,2.1,5.1,2.8,7.9c1.1,3.6,0,7.7,2.1,10.9&#xA;&#x9;&#x9;&#x9;&#x9;c6,9.2,16-15.8,20.4-5.3c3.6,8.5-14.7,8.1-15.1,14.5s10.6,12.2,14.9,16.2c3.6,3.6,6.6,8.3,7.2,13.4c0.4,5.1-1.9,10.5-3.2,15.2&#xA;&#x9;&#x9;&#x9;&#x9;c1.9,0,3.2,0.9,5.3,0.2c9.4-2.8,14.7-17.7,13.2-26.9c-1.3-7.7-5.5-14.3-6-22.4c-0.4-7.9,7.2-21.3-0.2-27.1&#xA;&#x9;&#x9;&#x9;&#x9;c-0.4-0.2-0.6-0.4-1.1-0.6c0,0.9-1.7,1.1-2.8,1.1c-1.7,0-3-0.6-4-1.5c-1.7-1.3-2.6-3.2-1.3-5.1c1.7-2.6,6.8-2.1,7.5-5.8&#xA;&#x9;&#x9;&#x9;&#x9;c1.3-7.9-15.1-9.4-5.1-19c1.9-1.7,4.5-3.2,7.2-3c4.7,0.4,15.8,3.6,15.1,9.6c-0.2,2.8-2.6,5.1-1.5,8.1c1.1,3.2,5.5,2.8,6.8,5.8&#xA;&#x9;&#x9;&#x9;&#x9;c1.7,4.1-1.7,6.8-1.3,10.7c0,0.9,0.4,1.3,1.3,1.9c1.5,1.1,4,1.5,4.9,3.2c2.1,4.7-3.4,10.2,3.8,12.8c0-3.2-0.6-7.7,2.1-9.4&#xA;&#x9;&#x9;&#x9;&#x9;c0,0.9,1.5,1.9,2.1,2.6c2.3,3.6,3.4,7,8.1,8.3c0.2-7-3.8-12.8-3.8-13c3.4,0,5.5,4.5,9.4,3.4c3.6-0.9,0.4-4.9-0.4-6.6&#xA;&#x9;&#x9;&#x9;&#x9;c-2.3-4.7,1.1-8.5-0.4-13c-1.5-4.7-13.8-7.9-17.7-11.5c-1.3-1.3-2.6-3.2-1.9-5.1c2.3-7.3,10.9-3,16.8-4.7&#xA;&#x9;&#x9;&#x9;&#x9;c2.8-0.9,4.9-2.8,6.8-4.9c2.8-3,4.7-8.1,3-12.2c-1.1-2.6-2.8-4.3-2.3-7.5c1.7-13,22.8-12.4,31.9-7.7c4.7,2.3,9.2,7.9,6.6,13.7&#xA;&#x9;&#x9;&#x9;&#x9;c-2.1,4.9-8.1,2.1-12.4,3.8c-3.6,1.7-8.5,9.2-9.8,12.6c-1.9,5.3,3.4,9.4,3.6,14.5c0.6,11.3-4.5,21.6-6.8,31.8&#xA;&#x9;&#x9;&#x9;&#x9;c-0.4,1.9,1.3,4.5,0.2,6.2c-1.7,2.8-4.9,1.7-7.7,2.8c-2.1,0.9-3,2.3-4.9,3.6c-3.8,2.3-8.5,3.6-8.9,9c2.6,0,4.3-1.3,7-1.5&#xA;&#x9;&#x9;&#x9;&#x9;c0.4,0,0.4,0.2,0.6,0.4c-0.6,5.1-4.3,9.2-2.1,14.1c3.4,0,4-7.7,9.6-5.8c0.6,0,0.6,0,0.6,0.6c1.1,3.6,1.5,6.6,3.6,9.8&#xA;&#x9;&#x9;&#x9;&#x9;c0.4,0,2.3-0.4,2.1-1.9c-0.2-3.4-0.6-8.3,0.4-11.1c1.7-4.3,4.5-3.6,3.8-9.4c0.9,0,1.9-1.5,2.8-1.7c6.8-2.3,7.9-6.2,16.4-6&#xA;&#x9;&#x9;&#x9;&#x9;c2.1,0,4.3,0.2,6,1.1c1.5,0,0.9-2.3,0.4-4.1c-3-10-6.8-19.8-6.8-31.4c0.6,0,1.1,0,1.7,0c0,1.3,5.1,8.1,6,9.8&#xA;&#x9;&#x9;&#x9;&#x9;c1.3,2.1,5.3,11.5,8.9,9.4c1.7-1.1,2.8-12.8,3.6-15.6c3.6-9.8,13.8-12,19.8-2.6c5.7,9,2.1,27.7-5.1,34.8&#xA;&#x9;&#x9;&#x9;&#x9;c-2.8,2.6-6.8,2.8-9.6,5.1c-2.8,2.6-0.2,7.5-0.9,10.9c-0.4,3.2-2.6,6.2-4.9,8.5c-5.3,5.1-12.1,7.5-17.5,12.2&#xA;&#x9;&#x9;&#x9;&#x9;c-2.3,1.9-2.8,5.3-5.5,6.6c-2.8,1.3-6.2-0.4-8.9,0.4c-2.1,1.3-4,2.6-6.2,3.8c-3.8,1.9-10,5.3-12.1,6c0,8.1,19.6,3.8,23.6,1.7&#xA;&#x9;&#x9;&#x9;&#x9;c2.8-1.5,3.6-5.3,6.6-6.6s5.5,1.7,8.9,0.6c3-1.1,5.7-3.4,8.5-5.3c5.1-3.4,10.6-6.4,15.3-10.5c1.7-1.5,4.3-3.4,4.9-5.3&#xA;&#x9;&#x9;&#x9;&#x9;c1.3-3.4-4.3-12,5.5-10.7c7.5,1.1,14.9-14.1,16.4-19.4c0.9-4.1,1.7-8.3,2.6-12.4c1.1-2.6,2.1-4.9,3.2-7.5&#xA;&#x9;&#x9;&#x9;&#x9;C223.3,134.6,217.8,134.8,216.9,130.3z M47.8,146.6c-6,1.3-10.2-5.5-7.5-10.5c1.1-2.1,3-3,4.9-4.1c2.3,0.2,4.5,0.4,6.2,1.9&#xA;&#x9;&#x9;&#x9;&#x9;C56.3,137.8,53.8,145.3,47.8,146.6z M87.8,102.1c-0.6,0.2-1.5-0.2-2.1-0.4c-7.7-3.2-4.5-8.1-1.5-13.7&#xA;&#x9;&#x9;&#x9;&#x9;C89.9,90.4,91.2,100.4,87.8,102.1z M98.2,124.5c7,3.4,9.6,9.4,9.2,12.4c0,1.1-0.6,1.7-0.6,1.7s-1.7,0.6-3.8-0.2&#xA;&#x9;&#x9;&#x9;&#x9;C97.3,136.5,98.2,130.3,98.2,124.5z M154.6,149.8c-0.2,2.3-1.3,3.4-2.8,5.3c-2.8,0-5.3-1.3-6.2-3.8c-0.9-2.1,0-4.9,0.2-7.3&#xA;&#x9;&#x9;&#x9;&#x9;c0.6-7.9,1.3-16.9,3.8-23.9c2.6,5.8,1.7,12.6,3,19.2C153.3,142.7,155.1,145.9,154.6,149.8z M192.9,115.1c-3.6,0-7,0.4-10.6-0.2&#xA;&#x9;&#x9;&#x9;&#x9;c-13.4-2.6-1.9-17.7,1.1-23.7C188.7,96.1,194.8,107.2,192.9,115.1z"/>
      </g>
    </g>
  </g>
</svg>