<?xml version="1.0"?><svg version="1.2" baseProfile="tiny-ps" viewBox="0 0 292 292" xmlns="http://www.w3.org/2000/svg" xmlns:xlink="http://www.w3.org/1999/xlink"><title>Servify</title><g><g fill="#fefdfe" transform="matrix(.1 0 0 -.1 0 292)"><path d="M0 1460V0h2920v2920H0V1460z"/></g><g fill="#8ffc48" transform="matrix(.1 0 0 -.1 0 292)"><path d="M360 1796c-19-7-84-42-144-77l-109-64-31-38-31-39-3-166-4-167 11-35 10-36 33-31c18-17 85-60 148-96l115-66 41-7 42-6 38 12c20 7 87 42 148 77l111 64 27 29 27 29 10 38 11 38v270l-9 32-9 31 25 37 25 37v72l-27 23-26 23h-55l-21-20c-12-10-28-29-36-40l-15-21-76 45c-111 65-160 77-226 52zm-62-288c14-12 122-164 122-173 0-4-14-26-30-51-17-24-37-58-44-74l-13-31-81 123-82 124v20c0 26 27 63 54 74l21 9 20-6c11-3 26-10 33-15zm742 15-35-18-9-37-9-37 17-26 17-26 27-11c15-5 41-16 57-23l30-13-19-8-19-7-29 16c-17 9-38 17-48 17h-19l-11-20-11-20 11-19 10-19 45-17 45-18 37 6 38 6 23 26 22 26v70l-24 24-24 23-41 13-41 12v19l23-6c12-4 35-9 51-13l29-6 12 17 13 17-5 17c-6 25-36 42-86 48l-42 5-35-18zm256 1-16-15v-236l18-16 19-17h162l15 16c19 18 21 45 4 62l-12 12h-116v19l51 3 52 3 11 18 11 17-11 18-11 17-52 3-51 3v19h109l15 16c9 8 16 22 16 29s-7 21-16 29l-15 16h-168l-15-16zm304 9c-8-3-18-11-22-17l-8-11v-234l16-15c20-21 37-20 57 2l17 19v53h10c5 0 23-18 41-40s41-42 51-46l19-6 14 12c19 16 19 45 0 73l-15 23 20 40 20 39-11 38-10 37-25 16-25 17-67 3c-37 2-74 1-82-3zm128-100-3-18-33-3-32-3v41h71l-3-17zm148 91c-9-8-16-20-16-26 0-14 90-229 103-245l9-13h46l10 13c16 19 102 229 102 249v17l-20 11-20 11-18-10-18-10-28-70c-15-39-29-71-31-71s-13 28-24 62c-31 91-61 117-95 82zm330 0-16-15v-238l16-15c19-19 36-20 52-4l12 12v252l-12 12c-16 16-33 15-52-4zm154-4-20-20v-205l13-25 13-25 16-3 16-3 16 16 16 16v69h90l21 21 20 20-14 22-14 22-52 3-51 3v19h116l12 12c7 7 12 22 12 35v22l-19 11-20 10h-151l-20-20zm268 9-18-10v-45l45-62 45-62v-89l20-11 20-11 20 11 20 11v47l1 47 44 59 45 59v45l-15 12-14 12-19-6-20-7-27-39c-15-22-31-40-36-40-4 0-17 16-29 35s-30 40-40 45c-22 12-21 12-42-1z"/></g><g fill="#b69fe1" transform="matrix(.1 0 0 -.1 0 292)"><path d="M360 1796c-19-7-84-42-144-77l-109-64-31-38-31-39-3-166-4-167 11-35 10-36 33-31c18-17 85-60 148-96l115-66 41-7 42-6 38 12c20 7 87 42 148 77l111 64 27 29 27 29 10 38 11 38v270l-10 33-9 34 24 39 25 39v59l-22 21c-22 20-35 24-73 21l-20-2-31-35-30-36-77 46c-112 65-160 77-227 52zm-63-288c17-13 123-163 167-237l39-63v-52l-27-23-27-23h-28c-15 0-34 6-43 13-9 6-59 77-112 157l-96 145v20c0 27 27 64 54 75l21 9 20-6c11-3 25-10 32-15zm743 15-35-18-9-37-9-37 17-26 17-26 27-11c15-5 41-16 57-23l30-13-19-8-19-7-29 16c-17 9-38 17-48 17h-19l-11-20-11-20 11-19 10-19 45-17 45-18 37 6 38 6 23 26 22 26v70l-24 24-24 23-41 13-41 12v19l23-6c12-4 35-9 51-13l29-6 12 17 13 17-5 17c-6 25-36 42-86 48l-42 5-35-18zm256 1-16-15v-236l18-16 19-17h162l15 16c19 18 21 45 4 62l-12 12h-116v19l51 3 52 3 11 18 11 17-11 18-11 17-52 3-51 3v19h109l15 16c9 8 16 22 16 29s-7 21-16 29l-15 16h-168l-15-16zm304 9c-8-3-18-11-22-17l-8-11v-234l16-15c20-21 37-20 57 2l17 19v53h10c5 0 23-18 41-40s41-42 51-46l19-6 14 12c19 16 19 45 0 73l-15 23 20 40 20 39-11 38-10 37-25 16-25 17-67 3c-37 2-74 1-82-3zm128-100-3-18-33-3-32-3v41h71l-3-17zm148 91c-9-8-16-20-16-26 0-14 90-229 103-245l9-13h46l10 13c16 19 102 229 102 249v17l-20 11-20 11-18-10-18-10-28-70c-15-39-29-71-31-71s-13 28-24 62c-31 91-61 117-95 82zm330 0-16-15v-238l16-15c19-19 36-20 52-4l12 12v252l-12 12c-16 16-33 15-52-4zm154-4-20-20v-205l13-25 13-25 16-3 16-3 16 16 16 16v69h90l21 21 20 20-14 22-14 22-52 3-51 3v19h116l12 12c7 7 12 22 12 35v22l-19 11-20 10h-151l-20-20zm268 9-18-10v-45l45-62 45-62v-89l20-11 20-11 20 11 20 11v47l1 47 44 59 45 59v45l-15 12-14 12-19-6-20-7-27-39c-15-22-31-40-36-40-4 0-17 16-29 35s-30 40-40 45c-22 12-21 12-42-1z"/></g><g fill="#4bd802" transform="matrix(.1 0 0 -.1 0 292)"><path d="M245 1729c-66-39-134-84-151-100l-31-30-12-38-11-38v-268l10-37 11-37 28-29c16-15 85-61 153-100l125-72h109l125 71c141 81 166 100 186 148l15 34-3 182-3 182 22 37 22 37v27c0 34-9 47-43 65l-27 14-26-5-25-5-26-33c-14-19-29-34-34-34s-49 23-97 50l-88 50H365l-120-71zm61-221c31-35 85-114 143-211l54-89v-52l-27-23-27-23h-58l-24 23c-13 12-63 80-110 152l-87 130v69l22 23 21 23h74l19-22zm737 12c-27-11-43-40-43-78v-29l18-16c10-10 40-24 65-33l47-16v-13c0-7-7-16-16-19l-15-6-30 16-30 15-22-3-22-3v-50l35-17 35-18h87l29 29 29 29v50l-17 21-18 21-50 19c-27 10-51 24-53 31l-4 12 63-4 64-3 3 23 3 22-35 15c-39 17-89 18-123 5zm260 3-13-5v-256l16-6c9-3 53-6 99-6h84l10 18 9 18-9 17-10 17h-130l3 18 3 17 50 3 49 3 13 11c17 14 16 23-3 42l-15 16h-99v30h54c30 0 61 3 70 6l16 6v46l-16 6c-19 7-163 7-181-1zm290 1-13-6v-259l16-6 17-6 16 10 16 10 5 33 5 33 11 4 12 4 38-46 37-46 20 3c11 2 25 10 30 19l10 16-22 32-22 31 20 26 21 27v66l-24 28-24 28-79 2c-43 1-84 0-90-3zm137-79 12-15-12-15-12-15h-68v60h68l12-15zm147 78c-15-14-5-52 36-148 23-55 46-106 50-112l8-13h47l10 13c5 6 30 61 55 122l45 110-9 17-10 18h-18c-24 0-33-12-61-85-13-33-26-64-30-68l-7-8-27 73c-15 40-33 76-39 80-15 10-41 10-50 1zm330 0c-4-3-7-64-7-135v-129l16-6 17-6 16 10 16 10 3 118 3 117-12 14c-12 15-41 19-52 7zm155-5-12-12v-232l12-12c7-7 20-12 30-12h18l10 25c5 14 9 29 9 33-1 4-1 15 0 24l1 17 51 3 52 3 10 16 10 16-6 17-6 16h-111v39l61 3 62 3 10 17 11 16-13 16-13 16h-174l-12-12zm258-3-12-15 6-15c3-8 23-39 45-68l40-52 3-49 3-49 18-11 17-11 18 11 17 11 3 49 3 49 40 52c22 29 42 60 45 68l6 15-12 15c-7 8-21 15-31 15h-18l-31-45c-17-25-34-45-39-45-4 0-21 20-39 45l-32 45h-19c-10 0-24-7-31-15z"/></g><g fill="#518557" transform="matrix(.1 0 0 -.1 0 292)"><path d="M245 1729c-66-39-134-84-151-100l-31-30-12-38-11-38v-268l10-37 11-37 28-29c16-15 85-61 153-100l125-72h109l125 71c140 80 166 100 185 146l14 32v326l-9 14-9 14-151-226-151-226-19-11c-11-5-31-10-45-10h-25l-24 23c-13 12-63 80-110 152l-87 130v72l23 21 23 22h71l20-22c11-13 41-54 67-93 26-38 49-72 51-73 4-4 223 321 231 341l4 12-93 53-94 52H365l-120-71zm798-209c-27-11-43-40-43-78v-29l18-16c10-10 40-24 65-33l47-16v-13c0-7-7-16-16-19l-15-6-30 16-30 15-22-3-22-3v-50l35-17 35-18h87l29 29 29 29v50l-17 21-18 21-50 19c-27 10-51 24-53 31l-4 12 63-4 64-3 3 23 3 22-35 15c-39 17-89 18-123 5zm260 3-13-5v-256l16-6c9-3 53-6 99-6h84l10 18 9 18-9 17-10 17h-130l3 18 3 17 50 3 49 3 13 11c17 14 16 23-3 42l-15 16h-99v30h54c30 0 61 3 70 6l16 6v46l-16 6c-19 7-163 7-181-1zm290 1-13-6v-259l16-6 17-6 16 10 16 10 5 33 5 33 11 4 12 4 38-46 37-46 20 3c11 2 25 10 30 19l10 16-22 32-22 31 20 26 21 27v66l-24 28-24 28-79 2c-43 1-84 0-90-3zm137-79 12-15-12-15-12-15h-68v60h68l12-15zm147 78c-15-14-5-52 36-148 23-55 46-106 50-112l8-13h47l10 13c5 6 30 61 55 122l45 110-9 17-10 18h-18c-24 0-33-12-61-85-13-33-26-64-30-68l-7-8-27 73c-15 40-33 76-39 80-15 10-41 10-50 1zm330 0c-4-3-7-64-7-135v-129l16-6 17-6 16 10 16 10 3 118 3 117-12 14c-12 15-41 19-52 7zm155-5-12-12v-232l12-12c7-7 20-12 30-12h18l10 25c5 14 9 29 9 33-1 4-1 15 0 24l1 17 51 3 52 3 10 16 10 16-6 17-6 16h-111v39l61 3 62 3 10 17 11 16-13 16-13 16h-174l-12-12zm258-3-12-15 6-15c3-8 23-39 45-68l40-52 3-49 3-49 18-11 17-11 18 11 17 11 3 49 3 49 40 52c22 29 42 60 45 68l6 15-12 15c-7 8-21 15-31 15h-18l-31-45c-17-25-34-45-39-45-4 0-21 20-39 45l-32 45h-19c-10 0-24-7-31-15z"/></g><g fill="#4e12c1" transform="matrix(.1 0 0 -.1 0 292)"><path d="M245 1729c-66-39-134-84-151-100l-31-30-12-38-11-38v-268l10-37 11-37 28-29c16-15 85-61 153-100l125-72h109l125 71c140 80 166 100 185 146l14 32v160c0 88-3 167-6 176l-6 16-157-233-156-232-29-8-30-7-25 12-26 12-97 145-98 144v73l23 21 23 22h72l24-28c12-15 41-56 63-89 22-34 43-62 47-63 6 0 195 276 230 335l7 11-93 52-93 52H365l-120-71zm798-209c-27-11-43-40-43-78v-29l18-16c10-10 40-24 65-33l47-16v-13c0-7-7-16-16-19l-15-6-30 16-30 15-22-3-22-3v-50l35-17 35-18h87l29 29 29 29v50l-17 21-18 21-50 19c-27 10-51 24-53 31l-4 12 63-4 64-3 3 23 3 22-35 15c-39 17-89 18-123 5zm260 3-13-5v-256l16-6c9-3 53-6 99-6h84l10 18 9 18-9 17-10 17h-130l3 18 3 17 50 3 49 3 13 11c17 14 16 23-3 42l-15 16h-99v30h54c30 0 61 3 70 6l16 6v46l-16 6c-19 7-163 7-181-1zm290 1-13-6v-259l16-6 17-6 16 10 16 10 5 33 5 33 11 4 12 4 38-46 37-46 20 3c11 2 25 10 30 19l10 16-22 32-22 31 20 26 21 27v66l-24 28-24 28-79 2c-43 1-84 0-90-3zm137-79 12-15-12-15-12-15h-68v60h68l12-15zm147 78c-15-14-5-52 36-148 23-55 46-106 50-112l8-13h47l10 13c5 6 30 61 55 122l45 110-9 17-10 18h-18c-24 0-33-12-61-85-13-33-26-64-30-68l-7-8-27 73c-15 40-33 76-39 80-15 10-41 10-50 1zm330 0c-4-3-7-64-7-135v-129l16-6 17-6 16 10 16 10 3 118 3 117-12 14c-12 15-41 19-52 7zm155-5-12-12v-232l12-12c7-7 20-12 30-12h18l10 25c5 14 9 29 9 33-1 4-1 15 0 24l1 17 51 3 52 3 10 16 10 16-6 17-6 16h-111v39l61 3 62 3 10 17 11 16-13 16-13 16h-174l-12-12zm258-3-12-15 6-15c3-8 23-39 45-68l40-52 3-49 3-49 18-11 17-11 18 11 17 11 3 49 3 49 40 52c22 29 42 60 45 68l6 15-12 15c-7 8-21 15-31 15h-18l-31-45c-17-25-34-45-39-45-4 0-21 20-39 45l-32 45h-19c-10 0-24-7-31-15z"/></g></g></svg>