<?xml version="1.0" encoding="utf-8"?>
<!-- Generator: Adobe Illustrator 28.1.0, SVG Export Plug-In . SVG Version: 6.00 Build 0)  -->
<svg version="1.2" baseProfile="tiny-ps" id="Layer_1" xmlns="http://www.w3.org/2000/svg" xmlns:xlink="http://www.w3.org/1999/xlink" viewBox="0 0 80 80" xml:space="preserve">
<title>Headset Advisor</title>
<rect x="0" fill="#FFFFFF" width="80" height="80"/>
<g id="_x23_5b2b81ff">
	<path fill="#5B2B81" d="M32.4,26.8h0.2c1.8,0,3.6,0.4,5.2,0.8c1.4,0.6,2.8,1.4,3.8,2.6c0.2,0.2,0.4,0.4,0.6,0.8c0,0.2,0,0.4,0,0.4
		c0,0.2,0,0.4,0.2,0.4c0.8,1.6,1.2,3.2,1.4,5c-0.4-0.2-1-0.2-1.4-0.2c-0.2-1.4-0.4-2.6-1-3.8c-0.2-0.4-0.2-0.6-0.6-1
		c-0.2-0.2-0.4-0.2-0.4-0.4c-0.6-0.8-1.2-1.4-2.2-2c-1.2-0.8-2.6-1-4-1.2c-2-0.2-4.2,0-6.2,0.6c-1.2,0.4-2.2,1.2-3,2.2
		c-0.2,0.4-0.8,0.6-1,1c-0.8,1.4-1.2,2.8-1.4,4.4c-0.4,0-1,0-1.4,0c0.2-1.8,0.6-3.6,1.6-5c0.2-0.2,0-0.4,0-0.8
		c0-0.2,0.2-0.4,0.2-0.4c1-1.4,2.4-2.4,3.8-3c0.8-0.4,1.8-0.6,2.8-0.8C30.4,26.8,31.4,26.8,32.4,26.8z"/>
	<path fill="#5B2B81" d="M45.6,34.6c0.4,0,1,0,1.4,0c0.8,0,1.4,0.8,1.4,1.4c0,2.6,0,5.2,0,7.8c0,0.8,0,1.6-0.4,2.4
		c-0.2,0.6-0.6,1.2-1.2,1.6C45.6,48.6,44,49,42.6,49c-0.6,1.2-1,2.4-1.8,3.4C40.4,53,40,53.6,39.2,54c-0.4,0.2-1,0.4-1.4,0.2
		c-1-0.2-2-0.4-3.2-0.8c-0.2,0.6-0.6,0.8-1,0.6c-0.8-0.4-1.6-0.6-2.4-1c-0.4-0.2-0.6-0.4-0.6-0.8c0-0.4,0.2-0.6,0.2-0.8
		c0.2-0.4,0.8-0.6,1.2-0.6c0.8,0.4,1.8,0.6,2.6,1c0.4,0.2,0.6,0.4,0.6,0.8c0.8,0.2,1.6,0.6,2.6,0.8c0.4,0,0.8,0.2,1.2,0
		c0.6-0.2,1-0.8,1.4-1.4c0.6-1,1.2-2,1.6-3c-0.6-0.2-1.2-0.4-1.8-0.8c-0.6-0.4-1-1-1.2-1.6c-0.4-0.8-0.6-1.8-0.6-2.8s0-2,0.4-3
		c0.2-0.8,0.6-1.4,1.2-2c0.4-0.6,1.2-1,1.8-1.2c0.8-0.2,1.6-0.2,2.2,0c0.8,0.2,1.6,0.8,2,1.6C45.6,37.6,45.6,36.2,45.6,34.6
		 M42.8,40c-0.2,0-0.6,0.2-0.8,0.2c-0.6,0.4-0.8,0.8-1,1.4c-0.2,0.8-0.2,1.6-0.2,2.4c0,0.8,0.4,1.6,0.8,2c0.6,0.6,1.4,0.6,2,0.4
		c0.6-0.2,1-0.4,1.4-1c0.2-0.6,0.4-1.2,0.4-1.6c0-0.8,0-1.4-0.2-2.2c-0.2-0.4-0.4-1-0.8-1.2C44,40.2,43.4,40,42.8,40z"/>
	<path fill="#5B2B81" d="M4.6,36c0-0.8,0.6-1.4,1.4-1.4c0.6,0,1,0,1.6,0c0,1.8,0,3.6,0,5.4c2,0,4,0,5.8,0c0-1.8,0-3.6,0-5.4
		c1,0,2,0,3,0c0,4.8,0,9.6,0,14.2c-1,0-2,0-3,0c0-2.2,0-4.2,0-6.4c-2,0-4,0-5.8,0c0,2.2,0,4.2,0,6.4c-1,0-2,0-3,0
		C4.6,44.6,4.6,40.4,4.6,36z"/>
	<path fill="#5B2B81" d="M70.8,34.6c0.6,0,1,0,1.6,0c0.8,0,1.4,0.8,1.4,1.4c0,0.6,0,1.2,0,1.8c0.6,0,1.2,0,1.8,0c0,0.4,0,0.8,0,1
		c-0.2,0.4-0.6,0.8-1,0.8c-0.2,0-0.4,0-0.6,0c0,2,0,4,0,6.2c0,0.2,0,0.4,0.2,0.4c0.2,0.2,0.4,0.2,0.6,0.2s0.6,0,1,0
		c0,0.8,0,1.4,0,2.2c-1,0-2,0-3,0c-0.4,0-0.8-0.2-1.2-0.6c-0.4-0.4-0.4-1-0.4-1.4C70.8,42.8,70.8,38.6,70.8,34.6z"/>
	<path fill="#5B2B81" d="M19.8,38c1-0.6,2.2-0.6,3.4-0.4c1,0.2,2,0.6,2.8,1.4c0.6,0.6,1,1.6,1.2,2.4c0.2,0.8,0.2,1.6,0.2,2.4V44
		c-2.4,0-4.8,0-7.2,0c0,0.6,0.2,1.4,0.6,2c0.2,0.4,0.6,0.6,1,0.6c0.6,0.2,1.2,0,1.8-0.2c0.4-0.2,0.4-0.6,0.8-0.8
		c0.2-0.2,0.4-0.2,0.8-0.2c0.6,0,1.4,0,2,0C27,46.2,26.6,47,26,47.6c-0.6,0.6-1.2,1-2,1.2s-1.6,0.4-2.4,0.2c-0.8,0-1.8-0.4-2.4-1
		c-0.8-0.6-1.4-1.6-1.6-2.4c-0.2-1-0.4-1.8-0.2-2.8c0-0.8,0.2-1.6,0.4-2.4C18.2,39.4,18.8,38.6,19.8,38 M20.6,40.8
		c-0.2,0.4-0.4,1-0.4,1.4c1.4,0,2.8,0,4.2,0c0-0.6-0.2-1.4-0.8-1.8C23.2,40,22.6,40,22,40S21,40.4,20.6,40.8z"/>
	<path fill="#5B2B81" d="M31.4,37.6c0.8-0.2,1.8-0.2,2.6,0c0.8,0,1.6,0.2,2.4,0.8c0.6,0.4,0.8,1,1,1.6c0.2,0.4,0,1,0,1.4
		c0,1,0,1.8,0,2.8s0,2-0.4,2.8c-0.4,0.6-0.8,1.2-1.4,1.4C35,48.8,34,49,33.2,49.2c-1,0-2,0.2-3-0.2c-0.6-0.2-1.2-0.6-1.6-1
		C28,47.4,28,46.4,28,45.6c0-0.8,0.2-1.6,0.8-2c0.6-0.4,1.2-0.8,1.8-1c0.4-0.2,0.8-0.2,1.2-0.2c0.2,0,0.6-0.2,0.8-0.2
		c0.6,0,1.2-0.2,1.6-0.6c0.4-0.2,0.4-0.8,0-1.2c0-0.4-0.2-0.4-0.6-0.4c-0.6-0.2-1.4-0.2-2,0c-0.2,0.2-0.6,0.4-0.6,0.6
		c-1,0-1.8,0-2.8,0c0-0.8,0.4-1.6,1-2C30,38.2,30.6,37.8,31.4,37.6 M32.4,44c-0.4,0-0.8,0.2-1,0.4c-0.2,0-0.2,0.2-0.4,0.2
		c-0.2,0.4-0.4,0.8-0.2,1.2c0,0.4,0.2,0.8,0.6,1s1,0.2,1.6,0s1.4-0.6,1.6-1.2c0.2-0.6,0.2-1.4,0.2-2.2C34,43.6,33.2,43.8,32.4,44z"
		/>
	<path fill="#5B2B81" d="M50.8,38.4c0.6-0.4,1.6-0.6,2.4-0.8c1,0,2.2,0,3.2,0.4c0.4,0.2,0.8,0.4,1.2,0.8c0.6,0.6,1,1.6,1,2.4
		c-0.6,0-1.2,0-1.8,0c-0.4,0-0.8-0.2-1-0.6c-0.2-0.2-0.4-0.4-0.4-0.6c-0.6-0.4-1.2-0.4-1.8-0.4c-0.4,0-0.8,0.2-1,0.4s-0.2,0.6,0,0.8
		s0.6,0.4,0.8,0.4c0.4,0.2,1,0.2,1.4,0.4c0.2,0,0.4,0,0.6,0.2c0.8,0.2,1.8,0.4,2.4,1c0.6,0.4,1,1,1,1.8s0,1.6-0.4,2.2
		c-0.4,0.6-1,1.2-1.6,1.4c-1,0.4-2,0.4-3,0.6c-0.8,0-1.8,0-2.6-0.4c-0.8-0.2-1.4-0.8-1.8-1.4C49,46.4,49,45.8,49,45c1,0,1.8,0,2.8,0
		c0,0.4,0.2,1,0.6,1.2c0.4,0.4,1,0.4,1.6,0.4s1,0,1.6-0.4c0.2-0.2,0.4-0.6,0.4-0.8s-0.2-0.4-0.6-0.6c-0.4-0.2-1-0.4-1.6-0.4
		c-0.4,0-0.8-0.2-1.2-0.2c-0.6-0.2-1.4-0.4-2-0.8c-0.6-0.4-1.2-1-1.4-1.6c-0.2-0.8,0-1.8,0.4-2.6C50,39,50.4,38.6,50.8,38.4z"/>
	<path fill="#5B2B81" d="M62.6,37.8c0.8-0.2,1.8-0.4,2.6-0.2c1,0.2,1.8,0.4,2.6,1c0.6,0.4,1,1,1.2,1.6c0.6,1.2,0.6,2.4,0.6,3.6V44
		c-2.4,0-4.8,0-7.2,0c0,0.4,0,1,0.4,1.4c0.2,0.2,0.2,0.4,0.4,0.6c0.2,0.2,0.6,0.4,1.2,0.4c0.6,0,1,0,1.4-0.2c0.2,0,0.4-0.2,0.6-0.4
		s0.6-0.4,1-0.4c0.8,0,1.4,0,2.2,0c-0.2,0.8-0.6,1.6-1.2,2.2c-0.6,0.6-1.2,1-2,1.2S64.8,49,64,49c-0.8,0-1.6-0.4-2.4-0.8
		C61,47.8,60.4,47,60,46.4c-0.4-0.8-0.6-1.8-0.6-2.6s0-1.8,0.2-2.6s0.6-1.4,1-2C61.2,38.6,61.8,38,62.6,37.8 M63.6,40.2
		c-0.4,0.2-0.8,0.6-1,1s-0.2,0.8-0.2,1.2c1.4,0,2.8,0,4.2,0c0-0.6-0.2-1.2-0.6-1.6c-0.2-0.4-0.6-0.4-1-0.6C64.6,40,64,40,63.6,40.2z
		"/>
	<path fill="#5B2B81" d="M44.2,49.8c0-0.2,0.2-0.4,0.4-0.4s0.6,0,0.8,0c0.6,1.6,1.2,3.2,1.8,5c-0.4,0-0.8,0-1,0c0-0.4-0.2-0.6-0.2-1
		c-0.6,0-1.2,0-2,0c-0.2,0.4-0.2,0.6-0.4,1c-0.4,0-0.8,0-1,0C43.2,52.8,43.6,51.4,44.2,49.8 M45,50.4c-0.2,0.6-0.4,1.4-0.6,2
		c0.4,0,1,0,1.4,0C45.4,51.8,45.2,51.2,45,50.4z"/>
	<path fill="#5B2B81" d="M51.6,49.4c0.2,0,0.4,0,0.6,0c0.2,0,0.4,0.2,0.4,0.6c0,1,0,2,0,2.8c0,0.4-0.2,1-0.4,1.2
		c-0.4,0.2-0.8,0.4-1.4,0.4h-0.2c-0.4,0-0.8-0.2-1.2-0.4C49,53.6,49,53,49,52.4s0.2-1.2,0.6-1.6c0.4-0.4,1-0.4,1.4-0.2
		c0.2,0,0.4,0.2,0.6,0.6C51.6,50.6,51.6,50,51.6,49.4 M50.6,51.4c-0.4,0-0.6,0.4-0.6,0.8c0,0.4,0,0.8,0.2,1.2s0.8,0.4,1.2,0
		c0.2-0.2,0.2-0.6,0.2-0.8c0-0.4,0-0.6-0.2-1C51.4,51.4,51,51.4,50.6,51.4z"/>
	<path fill="#5B2B81" d="M60,49.4c0.2,0,0.6,0,0.8,0.2S61,50,61,50.2c-0.4,0-0.6,0-1,0C60,50,60,49.8,60,49.4z"/>
	<path fill="#5B2B81" d="M63,51c0.2-0.4,0.6-0.6,1.2-0.6c0.4,0,1,0,1.4,0.2s0.4,0.6,0.6,1c-0.2,0-0.4,0-0.8,0
		c-0.2,0-0.2-0.2-0.4-0.2c-0.2-0.2-0.4-0.2-0.6-0.2s-0.4,0-0.4,0c-0.2,0-0.2,0.2,0,0.4c0,0.4,0.2,0.4,0.6,0.4s0.8,0.2,1.2,0.4
		c0.2,0.2,0.4,0.6,0.4,0.8c0,0.4-0.2,0.8-0.4,1c-0.4,0.2-0.8,0.4-1.2,0.4h-0.2c-0.4,0-0.8-0.2-1.2-0.4c-0.2-0.2-0.4-0.6-0.4-1
		c0.4,0,0.6,0,1,0c0,0.2,0,0.2,0.2,0.4c0.2,0.2,0.4,0.2,0.6,0.2s0.4,0,0.6-0.2s0.2-0.2,0-0.4S64.6,53,64.4,53c-0.4,0-0.8-0.2-1-0.4
		C62.6,52,62.6,51.4,63,51z"/>
	<path fill="#5B2B81" d="M69,50.6c0.4,0,0.8,0,1.2,0c0.4,0.2,0.6,0.4,0.8,0.8c0.2,0.4,0.4,1,0.2,1.6c0,0.4-0.2,0.8-0.6,1.2
		c-0.2,0.2-0.6,0.4-1,0.4s-0.8,0-1.2-0.2c-0.4-0.2-0.6-0.4-0.6-0.8c-0.2-0.6-0.2-1.2,0-1.8C68,51,68.4,50.6,69,50.6 M69.2,51.4
		c-0.4,0-0.6,0.4-0.6,0.8c0,0.4,0,0.8,0.2,1c0.2,0.4,0.8,0.6,1,0.2c0.2-0.2,0.4-0.6,0.4-1s0-0.8-0.2-1
		C69.8,51.4,69.4,51.2,69.2,51.4z"/>
	<path fill="#5B2B81" d="M54.4,50.6c0.4,0,0.8,0,1,0c0.2,0.8,0.6,1.8,0.8,2.6c0.2-0.8,0.4-1.6,0.6-2.4c0-0.2,0.2-0.4,0.4-0.4
		s0.6,0,0.8,0c-0.4,1.2-1,2.6-1.4,3.8c-0.4,0-0.6,0-1,0C55.4,53.2,55,51.8,54.4,50.6z"/>
	<path fill="#5B2B81" d="M60,54.4c0-1.2,0-2.6,0-3.8c0.2,0,0.4,0,0.6,0c0.2,0,0.4,0.2,0.4,0.4c0,1.2,0,2.2,0,3.4
		C60.8,54.4,60.4,54.4,60,54.4z"/>
	<path fill="#5B2B81" d="M73.4,51.2c0.4-0.4,1-0.6,1.6-0.6c0,0.4,0,0.6,0,1c-0.2,0-0.6,0-0.8,0.2c-0.2,0-0.2,0.4-0.2,0.6
		c0,0.6,0,1.4,0,2c-0.4,0-0.6,0-1,0c0-0.6,0-1.2,0-2C73,52,73.2,51.4,73.4,51.2z"/>
</g>
</svg>
