<?xml version="1.0" encoding="utf-8"?>
<!-- Generator: Adobe Illustrator 27.0.1, SVG Export Plug-In . SVG Version: 6.00 Build 0)  -->
<svg version="1.2" baseProfile="tiny-ps" xmlns="http://www.w3.org/2000/svg"  id="Layer_1" xmlns:xlink="http://www.w3.org/1999/xlink"  viewBox="0 0 393.89 367.28" xml:space="preserve">
<title>Morinaga</title>
<g>
</g>
<g>
	<g>
		<g>
			<g>
				<g>
					<path fill="#967D64" d="M325.65,318.65c-1.23,0.39-3.17-1.18-4.03-1.66c-1.03-0.57-1.93,0.13-2,0.94
						c-0.07,0.81-0.13,1.38-0.28,2.75c-0.44,3.34-1.44,4.76-5.24,5.83c-0.35,0.1-0.62,0.3-0.81,0.53c-0.14,0.18-0.25,0.38-0.33,0.58
						c-0.18,0.47-0.2,0.94-0.2,1.13c0,0.05,0,0.08,0,0.08c1.08-0.14,2.14-0.34,3.14-0.61c3.69-0.99,6.75-2.9,8.17-6.01
						c0.26-0.57,0.46-1.17,0.61-1.82l0,0l0,0c6.11,1.07,9.42-1.95,9.42-6.84c0-0.58-0.37-1.03-1.19-1.03h-21.09
						c0,0,0.17,1.04,0.26,1.4c0.18,0.67,0.74,0.88,1.2,0.88h15.35C328.09,316.71,327.07,318.17,325.65,318.65z"/>
					<g>
						<g>
							<g>
								<g>
									<g>
										<path fill="#967D64" d="M189.85,327.66c0,0.54,0.44,1.01,0.96,1.01c7.64-0.47,15.3-2.93,20.54-7.1
											c0,0-0.98-0.87-1.88-0.97c-0.49-0.05-0.92,0.05-1.39,0.28c-3.63,1.76-8.68,2.93-12.77,2.92v-11.6
											c0-0.56-0.45-1.01-1.01-1.01h-3.45c-0.56,0-1.01,0.45-1.01,1.01h0L189.85,327.66z"/>
									</g>
									<g>
										<path fill="#967D64" d="M154.46,320.61c-3.55-0.97-9.54-2.33-13.44-2.33l0.07,1.25c3.63,0.69,8.58,3.25,10.58,4.39
											L154.46,320.61z"/>
									</g>
									<g>
										<g>
											<path fill="#967D64" d="M127.7,313.19c0.67,0,1.29-0.2,1.81-0.94c0.32-0.45,0.44-0.72,0.44-0.72H108.1
												c0,0,0.13,0.27,0.44,0.72c0.52,0.74,1.14,0.94,1.81,0.94H127.7z"/>
										</g>
										<g>
											<path fill="#967D64" d="M127.07,315.31c-0.93,1.65-2.88,4.39-4.27,5.51l1.45,0.3c3.69-0.88,6.6-3.15,8-6.34h-4.26
												C127.51,314.79,127.22,315.04,127.07,315.31z"/>
										</g>
										<g>
											<path fill="#967D64" d="M121.04,315.13H108.1c0,0,0.14,0.74,0.25,0.89c0.26,0.36,0.5,0.55,1.14,0.55
												c0.65,0,8.13,0,8.13,0v11.45h-4.85c0,0,0.14,0.81,0.25,0.96c0.26,0.36,0.68,0.55,1.14,0.55h6.69
												c0.72,0,1.14-0.44,1.14-1.1v-5.19c2.16,2.56,4.82,4.11,7.45,5.06c1.46,0.53,2.66,0.6,3.2,0.55
												c0.27-0.03,0.63-0.1,0.63-0.1c-5.42-3.78-9.1-7.5-10.99-12.68C122.06,315.47,121.72,315.13,121.04,315.13z"/>
										</g>
										<g>
											<path fill="#967D64" d="M115.53,318.39h-9.24c0,0,0.14,0.59,0.25,0.73c0.26,0.36,0.59,0.55,1.14,0.55
												c0.55,0,5.01,0,5.01,0c-1.09,3.81-4.23,7.27-7.72,9.05c0,0,0.36,0.09,0.68,0.11c0.84,0.05,1.86-0.25,2.92-0.59
												c4.51-1.44,7-4.31,8.15-8.23C116.99,319.11,116.4,318.39,115.53,318.39z"/>
										</g>
									</g>
									<g>
										<path fill="#967D64" d="M295.25,317.56c1.7,0.11,9.87,0.42,13.48,0.87c0.96,0.12,1.34,0.65,1.34,1.2
											c0,0.72-0.16,4.2-0.16,4.2c-3.6-1.77-10.72-3.54-14.95-3.93L295.25,317.56z"/>
										<g>
											<path fill="#967D64" d="M295.51,311.2h-3.45c-0.56,0-1.01,0.45-1.01,1.01v15.51c0,0.56,0.45,1.01,1.01,1.01h3.45
												c0.55,0,1-0.45,1.01-1v-15.53C296.52,311.64,296.07,311.2,295.51,311.2z"/>
										</g>
									</g>
									<g>
										<path fill="#967D64" d="M246.83,317.56c1.7,0.11,9.87,0.42,13.48,0.87c0.96,0.12,1.34,0.65,1.34,1.2
											c0,0.72-0.16,4.2-0.16,4.2c-3.6-1.77-10.72-3.54-14.95-3.93L246.83,317.56z"/>
										<g>
											<path fill="#967D64" d="M247.1,311.2h-3.45c-0.56,0-1.01,0.45-1.01,1.01v15.51c0,0.56,0.45,1.01,1.01,1.01h3.45
												c0.55,0,1-0.45,1.01-1v-15.53C248.1,311.64,247.66,311.2,247.1,311.2z"/>
										</g>
									</g>
									<g>
										<g>
											<path fill="#967D64" d="M280.31,327.72c0.44,0.61,0.96,1,1.55,1h5.5c-2.12-2.48-6.29-6.1-9.76-7.53l-1.74,1.38
												C277.6,324.35,279.39,326.42,280.31,327.72z"/>
										</g>
									</g>
									<g>
										<g>
											<g>
												<path fill="#967D64" d="M160.1,322.32c0,0,0.56,1.79,2.62,1.53c9.07-1.14,19.86-7.99,23.14-11.53c0,0-4.89,0-6.39,0
													c-1.5,0-2.14,0.27-3.04,1.04C172.92,316.37,166.76,319.81,160.1,322.32z"/>
											</g>
										</g>
										<g>
											<path fill="#967D64" d="M177.41,327.72v-11.99l-4.9,2.41v9.58c0,0.56,0.45,1.01,1.01,1.01h2.88
												C176.95,328.72,177.4,328.28,177.41,327.72z"/>
										</g>
									</g>
								</g>
								<g>
									<g>
										<g>
											<g>
												<path fill="#967D64" d="M100.39,313.88c0.46,0,0.88-0.19,1.14-0.55c0.11-0.15,0.25-0.73,0.25-0.73H77.99
													c0,0,0.14,0.59,0.25,0.73c0.26,0.36,0.68,0.55,1.14,0.55H100.39z"/>
												<g>
													<path fill="#967D64" d="M77.25,319.22c0,0,0.55,0.22,0.73,0.25c1.18,0.23,1.81,0.03,3.15-0.54
														c3.13-1.33,5.51-3.92,6.54-5.49h-4.63C81.56,315.45,79.68,317.44,77.25,319.22z"/>
												</g>
												<g>
													<path fill="#967D64" d="M102.56,319.22c0,0-0.55,0.22-0.73,0.25c-1.18,0.23-1.81,0.03-3.15-0.54
														c-3.14-1.33-5.51-3.92-6.54-5.49h4.63C98.24,315.45,100.12,317.44,102.56,319.22z"/>
												</g>
											</g>
										</g>
										<g>
											<g>
												<path fill="#967D64" d="M82.07,321.72l-3.55,0.04c-0.26,2.24-1.36,5.03-2.63,6.96c0,0,0.52,0.14,0.64,0.14
													c0.79,0.01,1.41-0.18,2.12-0.75C80.31,326.77,81.44,324.55,82.07,321.72z"/>
											</g>
											<g>
												<path fill="#967D64" d="M97.7,321.72l3.55,0.04c0.26,2.24,1.36,5.03,2.63,6.96c0,0-0.52,0.14-0.64,0.14
													c-0.79,0.01-1.41-0.18-2.12-0.75C99.46,326.77,98.33,324.55,97.7,321.72z"/>
											</g>
											<path fill="#967D64" d="M78.16,322.31c-0.46,0-0.88-0.19-1.14-0.55c-0.11-0.15-0.25-0.73-0.25-0.73h12.68l-0.51,1.28
												L78.16,322.31z"/>
											<g>
												<path fill="#967D64" d="M89.45,321.03l-3.14,0.78c0.24,1.78,0.99,4.27,1.96,5.55c0.47,0.62,1.14,1.15,1.62,1.37
													l0.38-0.67C89.76,326,89.5,323.16,89.45,321.03z"/>
											</g>
										</g>
										<g>
											<path fill="#967D64" d="M101.61,322.31c0.46,0,0.88-0.19,1.14-0.55c0.11-0.15,0.25-0.73,0.25-0.73H90.32l0.51,1.28
												L101.61,322.31z"/>
											<g>
												<path fill="#967D64" d="M90.32,321.03l3.14,0.78c-0.24,1.78-0.99,4.27-1.96,5.55c-0.47,0.62-1.14,1.15-1.62,1.37
													l-0.38-0.67C90.01,326,90.27,323.16,90.32,321.03z"/>
											</g>
										</g>
									</g>
									<g>
										<path fill="#967D64" d="M91.31,310.6h-2.85c-0.4,0.02-0.73,0.35-0.73,0.75v7.46c0,0.42,0.34,0.77,0.77,0.77h2.82
											c0.42,0,0.76-0.34,0.77-0.76v-7.46C92.07,310.94,91.73,310.6,91.31,310.6z"/>
									</g>
									<g>
										<path fill="#967D64" d="M86.07,319.64c0-0.42-0.34-0.77-0.77-0.77v0h-2.31c-0.42,0-0.77,0.34-0.77,0.77h0v9.11h0
											c0,0.42,0.34,0.76,0.76,0.77h2.32v0c0.42,0,0.77-0.34,0.77-0.77h0L86.07,319.64L86.07,319.64z"/>
									</g>
									<g>
										<path fill="#967D64" d="M97.55,319.64c0-0.42-0.34-0.77-0.77-0.77v0h-2.31c-0.42,0-0.76,0.34-0.77,0.75v9.13
											c0.01,0.42,0.34,0.75,0.76,0.75h2.32v0c0.42,0,0.77-0.34,0.77-0.77h0L97.55,319.64L97.55,319.64z"/>
									</g>
								</g>
							</g>
							<path fill="#967D64" d="M282.75,313.77c0-0.7-0.41-1.26-1.26-1.26h-16.72c0,0,0.18,0.92,0.25,1.29
								c0.14,0.71,0.75,0.99,1.22,0.99h10.44c-1.85,5.19-4.99,8.9-12.35,11.6c-1.55,0.57-1.45,2.32-1.45,2.32
								C275.18,327.09,282.75,318.46,282.75,313.77z"/>
							<path fill="#967D64" d="M237.44,313.72c0-0.6-0.54-1.21-1.36-1.21c-3.46,0-13.1,0-13.69,0c-1.21,0-2.11,0.67-2.6,1.57
								c-1.3,2.37-3.66,4.71-6.45,6.34c0,0,0.87,0.69,2.14,0.71c3.98,0.09,7.25-2.11,8.96-4.81c0.26-0.41,0.41-0.65,0.67-1.06
								c0.23-0.36,0.66-0.49,1.28-0.49c0.62,0,5.35,0,5.35,0c-1.79,7.03-5.48,9.65-15.3,11.56c-1.68,0.33-1.55,2.38-1.55,2.38
								C230.56,328.18,237.44,320.87,237.44,313.72z"/>
							<path fill="#967D64" d="M159.51,313.72c0-0.6-0.54-1.21-1.36-1.21c-3.46,0-13.1,0-13.69,0c-1.21,0-2.11,0.67-2.6,1.57
								c-1.3,2.37-3.66,4.71-6.45,6.34c0,0,0.87,0.67,2.14,0.71c3.2,0.11,7.25-2.11,8.96-4.81c0.26-0.41,0.41-0.65,0.67-1.06
								c0.23-0.36,0.66-0.49,1.28-0.49s5.35,0,5.35,0c-1.55,6.95-5.18,9.72-15.3,11.56c-1.68,0.31-1.55,2.38-1.55,2.38
								C152.63,328.18,159.51,320.87,159.51,313.72z"/>
						</g>
						<path fill="#967D64" d="M162.75,309.37c-1.06,0-1.93-0.86-1.93-1.93c0-1.06,0.86-1.93,1.93-1.93c1.06,0,1.93,0.86,1.93,1.93
							C164.68,308.51,163.82,309.37,162.75,309.37z"/>
						<path fill="#967D64" d="M162.75,314.53c-1.06,0-1.93-0.86-1.93-1.93c0-1.06,0.86-1.93,1.93-1.93c1.06,0,1.93,0.86,1.93,1.93
							C164.68,313.66,163.82,314.53,162.75,314.53z"/>
					</g>
				</g>
				<path fill="none" stroke="#967D64" stroke-width="2.2401" stroke-miterlimit="10" d="M333.31,339.65H76.35
					c-10.64,0-19.34-8.7-19.34-19.34l0,0c0-10.64,8.7-19.34,19.34-19.34h256.96c10.64,0,19.34,8.7,19.34,19.34l0,0
					C352.65,330.95,343.94,339.65,333.31,339.65z"/>
				<g>
					<g>
						<path fill="#967D64" d="M139.56,97.32h-4.16l-3.31,17.2h3.35c1.46,0,2.51-1.01,2.75-2.29c0.61-3.2,1.31-7.71,1.31-7.71
							s1.38,3.76,3.01,8.16c0.47,1.28,1.62,1.98,2.8,1.98c1.21,0,2.37-0.7,2.85-2.01c1.62-4.37,2.98-8.13,2.98-8.13
							s0.74,4.52,1.31,7.71c0.26,1.44,1.42,2.29,2.75,2.29h3.35l-3.33-17.19h-4.14c-1.35,0-2.53,0.83-2.98,2.08
							c-1.2,3.34-2.78,7.93-2.78,7.93s-1.56-4.62-2.77-7.96C142.15,98.33,141,97.32,139.56,97.32"/>
						<path fill="#967D64" d="M168.24,97.01c4.92,0,9.26,2.66,9.26,8.92c0,6.29-4.34,8.96-9.26,8.96c-4.91,0-9.25-2.66-9.25-8.96
							C158.99,99.72,163.34,97.01,168.24,97.01 M164.22,105.93c0,4.06,1.65,5.41,4.02,5.41c2.38,0,4.03-1.33,4.03-5.41
							c0-4.04-1.62-5.37-4.03-5.37C165.9,100.56,164.22,101.87,164.22,105.93z"/>
						<path fill="#967D64" d="M179.59,97.33h10.43c2.73,0,4.19,2,4.19,3.77c0,1.87-1.24,3.68-2.95,4.66l4.88,8.76h-4.63
							c-0.96,0-1.55-0.12-2.06-1.15c-1.46-2.95-3.9-8.02-3.9-8.02c2.11-0.23,3.62-1.21,3.62-2.74c0-1.09-0.83-1.72-1.95-1.72h-2.55
							v13.64h-5.07V97.33"/>
						<rect x="196.77" y="97.33" fill="#967D64" width="5.08" height="17.19"/>
						<path fill="#967D64" d="M204.62,114.51V97.33h4.21c1.7,0,3.2,1.22,3.85,2.76c1.36,3.21,3.23,7.6,3.23,7.6V97.33h4.75v17.19h-4
							c-1.88,0-3.28-1.21-4.02-2.97c-1.08-2.55-3.27-7.68-3.27-7.68v10.65H204.62"/>
						<path fill="#967D64" d="M235.48,114.51l-0.99-3.08h-6.4l-0.87,3.08h-5.47c0,0,2.18-6.69,4.76-14.61
							c0.45-1.39,1.95-2.57,3.67-2.57h5.11l5.81,17.19H235.48 M233.45,108.13l-2.38-7.4l-2.1,7.4H233.45z"/>
						<path fill="#967D64" d="M251.21,105.39v5.24c-0.49,0.15-1,0.26-1.5,0.26c-2.35,0-3.47-1.17-3.47-4.84
							c0-2.96,0.9-5.71,5.37-5.71c1.27,0,2.81,0.25,3.76,0.88v-3.89c-1.51-0.46-3.13-0.6-4.46-0.6c-7.33,0-9.92,4.88-9.92,9.42
							c0,6.42,3.43,8.77,8.78,8.77c3.9,0,4.5-0.63,6.52-0.63v-8.89H251.21"/>
						<path fill="#967D64" d="M270.91,114.51l-0.99-3.08h-6.4l-0.88,3.08h-5.46c0,0,2.17-6.69,4.75-14.61
							c0.45-1.39,1.95-2.57,3.67-2.57h5.11l5.81,17.19H270.91 M268.89,108.13l-2.38-7.4l-2.09,7.4H268.89z"/>
					</g>
					<g>
						<path fill="#FFFFFF" d="M256.82,90.04c-8.74-19.25-15.19-35.8-19.52-50.38c-0.54-1.86-1.22-3.69-1.72-4.91
							c-2.32-5.94-7.19-8.14-11.42-8.11c-3.39,0.02-7.73,0.89-12.95,5.78c-1.43-0.73-2.8-1.08-4.1-1.08c-1.07-0.01-2,0.25-2.75,0.58
							c-0.75-0.33-1.67-0.58-2.73-0.57c-1.3,0-2.67,0.35-4.1,1.08c-3.89-3.71-7.95-5.75-12.86-5.78c-4.11-0.03-8.57,1.97-10.98,6.78
							c-0.78,1.51-1.34,3.09-2.04,5.32c-4.89,16.45-10.81,32.04-19.93,51.31h28.57c1.57-0.01,3.15-0.1,4.73-0.97
							c1.58-0.88,2.61-2.35,3.37-4c0.6-1.35,1.18-2.7,1.74-4.08c0.81,1.46,1.67,2.83,2.6,4.07c2.86,3.93,7.14,5.45,11.25,5.45
							l0.27,0c4.23,0.07,8.68-1.44,11.57-5.5c0.96-1.31,1.89-2.8,2.77-4.39c0.63,1.49,1.23,2.9,1.82,4.17
							c0.77,1.68,1.68,3.17,3.27,4.16c1.6,0.96,3.23,1.07,4.87,1.08H256.82"/>
						<path fill="#B6002A" d="M204.48,49.86c0.56-0.06,1.16-0.06,1.72,0c0.52,0.05,0.65-0.29,0.49-0.64
							c-0.2-0.46-0.6-0.91-1.23-0.91c-0.61,0-1.04,0.54-1.33,0.92C203.88,49.59,204,49.91,204.48,49.86"/>
						<path fill="#B6002A" d="M202.7,52.69c-0.17-0.01-0.24,0.24,0,0.38c0.27,0.15,0.62,0.29,0.97,0.23c0.38-0.06,1.16-0.2,1.91-0.2
							c0.82,0,1.43,0.2,2.03,0.25c0.38,0.02,0.69-0.11,0.79-0.22c0.16-0.17,0.07-0.37-0.15-0.33c-0.3,0.03-0.44-0.1-0.6-0.2
							c-0.39-0.26-0.82-0.61-1.23-1c-0.24-0.22-0.53-0.2-0.72-0.07h-0.38c-0.2-0.15-0.44-0.16-0.72,0.06
							c-0.37,0.28-0.77,0.6-1.17,0.89C203.19,52.65,202.97,52.72,202.7,52.69"/>
						<path fill="#B6002A" d="M201.14,45.34c-1.4,0-2.46,1.13-2.89,2.03c-0.23,0.46,0.17,1.07,0.78,0.59
							c0.67-0.52,1.5-0.59,2.2-0.53c0.35,0.02,0.75,0.07,1.07,0.12c0.29,0.04,0.54-0.12,0.54-0.57
							C202.83,46.24,202.08,45.34,201.14,45.34"/>
						<path fill="#B6002A" d="M234.59,40.44c-0.49-1.71-1.15-3.48-1.62-4.62c-2.18-5.31-6.24-6.57-9.72-6.32
							c-2.29,0.16-6.37,0.86-11.59,6.52c-4.07-2.99-6.19-1.66-7.28-0.83c-1.09-0.83-3.22-2.14-7.28,0.83
							c-4.29-4.59-7.98-6.41-12.04-6.54c-3.37-0.12-6.77,1.21-8.86,5.24c-0.65,1.26-1.17,2.67-1.85,4.85
							c-4.92,16.55-10.67,31.39-18.2,47.63h3.96c2.82,0,4.07-0.73,5.18-3.25c6.14-13.48,11.44-28.41,15.9-43.24
							c0.38-1.24,0.88-2.22,1.44-2.83c0.75-0.81,1.8-1.22,2.92-1.22c0.63,0,1.48,0.18,2.23,0.68c1.47,0.97,2.72,2.21,4.01,3.66
							c-0.2,0.32-0.31,1.01-0.31,1.37c0,0.9,0.25,1.73,0.45,2.39c0.24,0.8,0.43,1.58,0.44,2.56c0.04,2.73-2.07,4.02-3.09,4.15
							c-1.21,0.16-2.03-0.73-1.9-1.97c0.12-1.19,0.76-1.47,1.2-1.47c0.59,0,1.23,0.58,0.77,1.67c1.36-0.21,2.1-1.14,2.06-2.68
							c-0.04-1.55-1.16-2.38-2.37-2.42c-2.23-0.07-4.16,1.6-4.15,4.92c0.01,4.4,3.55,7.57,5.95,8.46c1.27,3.26,3.98,4.95,6.48,5.57
							c0.85,0.21,1.12-0.08,0.92-0.87c-0.62-2.36-1.14-3.97-2.08-6.19c-0.14-0.35-0.41-0.54-0.65-0.54c-0.23,0-0.61,0.16-1.13,0.16
							c-1.37,0-2.85-1.3-2.85-2.69c0-0.81,0.64-1.58,1.57-1.58c0.87,0,1.52,0.71,1.95,1.34c0.28,0.44,0.65,0.18,0.56-0.21
							c-0.23-0.95-0.23-2.16-0.23-2.77c0-1.18,0.4-2.37,0.84-3.21c0.39-0.76,0.24-1.54-0.31-2.26c-0.68-0.87-1.33-1.52-1.33-3.2
							c0-1.58,0.87-3.17,2.39-3.21c1.22-0.03,1.56,0.87,1.58,1.58c0.02,0.81-0.44,1.29-0.99,1.29c-0.47,0-0.83-0.37-0.9-0.99
							c-0.07-0.27-0.26-0.24-0.4,0.02c-0.29,0.55-0.42,1.2-0.41,1.86c0.02,1.26,0.68,2.35,2.07,2.35c1.32,0,2.15-1.17,2.18-2.73
							c0.6,1.55,1.76,2.36,3.75,1.62c-1.13-0.46-2.02-1.71-2.05-3.03c-0.03-1.31,0.79-2.29,2.2-2.28c0.92,0.01,1.47,0.4,1.85,0.93
							c0.19,0.27,0.09,0.55-0.19,0.45c-0.26-0.08-0.69-0.04-0.89,0.01c-0.62,0.16-1.18,0.62-1.24,1.43
							c-0.06,0.8,0.36,1.38,0.88,1.83c0.52,0.45,1.23,0.74,1.82,0.73c0.85-0.01,1.14-0.29,1.47-0.82c0.49-0.83,1.13-1.44,1.84-1.47
							c0.6-0.03,0.98,0.28,0.95,0.77c-0.03,0.58-0.44,0.95-1.36,1.15c-0.7,0.15-0.66,0.76,0.19,0.75c2.06-0.02,3.64,0.38,4.19,2.67
							c0.34,1.4-0.48,1.2-1.05,0.61c-0.71-0.75-1.58-1.52-2.74-1.52c-1.21,0-1.89,0.6-2.04,1.5c-0.1,0.64,0.29,0.83,0.62,0.68
							c0.44-0.2,1.19-0.26,2-0.11c1.19,0.2,2.25,0.82,2.91,1.41c0.88,0.77,1.27,2.23,1.27,4c0,5.49-3.21,8.12-7.78,9.01
							c-2.25,0.45-1.12,3.15,0.98,2.96c1.09-0.1,2.25-0.2,3.46-0.2c2.23,0,3.66,1.26,2.27,5.36c-1.56,4.01-3.81,7.84-5.88,10.76
							c-0.88,1.23-2.03,1.98-3.28,1.98c-1.22,0-2.28-0.57-3.28-1.98c-2.1-2.99-3.91-6.42-5.64-10.1c-0.94-1.83-1.58-2.58-2.62-3.25
							c-0.8-0.51-1.77-0.86-3.11-0.86c-2.16,0-4.18,1.04-5.33,4.24c-1.81,5.04-4.03,10.6-6.62,16.24h2.64
							c2.87,0,4.23-0.52,5.53-3.32c1.4-3.15,2.7-6.42,4.08-9.93c1.54,3.66,3.21,6.9,5.1,9.42c2.4,3.22,5.58,4.31,9.26,4.31
							c3.72,0,6.94-1.11,9.29-4.33c1.88-2.58,3.75-6.08,5.31-9.61c1.41,3.59,2.85,7.11,4.13,9.89c1.37,3.02,2.56,3.58,5.56,3.58
							h2.89c-3.37-7.04-6.17-14.17-8.68-21.11c-0.77-2.09,1.94-3.01,2.67-1.17c2.46,6.37,5.08,13.2,7.79,18.93
							c1.21,2.74,2.78,3.36,5.36,3.36h2.87c-5.3-11.66-10.11-23.14-13.46-34.14c-0.63-2.03,2.03-2.69,2.57-1.05
							c3.34,9.69,8.03,21.57,12.62,31.73c1.4,2.98,2.53,3.46,5.5,3.46h3.77C244.43,69.22,238.96,55.19,234.59,40.44"/>
						<path fill="#B6002A" d="M184.65,60.74c0.14-2.36-1.6-3.47-3-3.47c-1.85,0-2.99,1.03-3.69,3.1
							c-3.27,9.23-6.69,17.61-10.7,26.84h3c3.24,0,4.57-0.67,5.68-3.16c2.77-6.53,5.64-13.99,7.93-20.33
							C184.23,62.76,184.6,61.57,184.65,60.74"/>
					</g>
				</g>
			</g>
			<g>
				<g>
					<g>
						<g>
							<path fill="#967D64" d="M234.11,248.82C234.11,248.81,234.11,248.81,234.11,248.82c0-0.06,0-0.12,0-0.18
								c-0.1-16.4-13.3-28.13-30.38-29.48c-1.1-0.1-2.21-0.14-3.32-0.14c-1.13,0-2.25,0.05-3.37,0.15
								c-16.87,1.38-30.2,13.08-30.33,29.43c0,0.08-0.01,0.15-0.01,0.22c0,0,0,0,0,0.01c0,0,0,0,0,0.01c0,0.08,0.01,0.15,0.01,0.22
								c0.13,16.35,13.46,28.05,30.33,29.43c1.11,0.1,2.24,0.15,3.37,0.15c1.11,0,2.22-0.05,3.32-0.15
								c17.08-1.35,30.28-13.08,30.38-29.48C234.11,248.94,234.11,248.88,234.11,248.82C234.11,248.82,234.11,248.82,234.11,248.82z
								 M200.41,275.22c-11.66,0-20.73-10.47-20.74-26.41c0-15.93,9.08-26.41,20.74-26.41c11.66,0,20.73,10.47,20.74,26.41
								C221.14,264.75,212.07,275.22,200.41,275.22z"/>
						</g>
					</g>
					<path fill="#967D64" d="M89.74,243.53c-3.24-1.03-10.94-2.81-14.01-3.78c-4.19-1.33-7.99-4.06-7.99-9.15
						c0-5.18,4.97-7.7,12.03-7.7c3.7,0,8.7,0.47,13.41,1.17c3.76,0.72,5.7,1.49,6.57,1.89l1.36-4.14l-1.37-0.38
						c-6.01-1.28-14.28-2.29-19.98-2.29c-14.34,0-25.65,6.37-25.65,14.38c0,8.01,4.95,13.17,13.82,15.98
						c2.96,0.94,11.83,2.93,14.64,3.82c9.05,2.87,11.59,6.72,11.59,11.97c0,5.12-5.58,9.45-14.41,9.45
						c-5.77,0-12.61-0.83-18.48-2.33c-4.15-1.41-6.24-2.76-7.16-3.26l-1.65,4.1l1.65,0.76c7.55,3.22,19.08,4.48,26.16,4.48
						c15.58,0,27.35-4.57,27.35-17.55C107.64,252.36,99.92,246.76,89.74,243.53z"/>
					<g>
						<path fill="#967D64" d="M309.58,192.27c0.05-0.03,0.09-0.06,0.14-0.09l-2.2-3.12c-1.19,0.8-3.02,1.86-5.82,2.95
							c-4.26,1.57-8.93,2.44-13.57,2.44c-11.66,0-21.11-9.96-21.11-25.89c0-15.94,9.45-25.89,21.11-25.89
							c3.79,0,7.59,0.6,11.18,1.66c3.03,0.96,4.95,1.99,6.1,2.75l2.41-3.42c-7.33-4.17-15.11-4.75-19.69-4.75
							c-17.68,0-34.08,12.1-34.08,29.66s16.4,29.66,34.08,29.66c5.06,0,13.81-0.67,21.87-5.63l-0.25-0.36
							C309.7,192.25,309.64,192.26,309.58,192.27z"/>
					</g>
				</g>
				<path fill="#967D64" d="M63.7,140.09H40.78h-3.69h-0.63c0.28,1.41,0.63,6.07,0.63,9.84l0,0v37.3l0,0
					c-0.01,3.77-0.35,8.42-0.63,9.84h0.63h3.69H63.7c17.68,0,32.01-10.95,32.01-28.5C95.71,151.01,81.38,140.09,63.7,140.09z
					 M61.63,193.58H51.06v-50.04h10.57c11.66,0,21.11,9.1,21.11,25.03C82.74,184.5,73.29,193.58,61.63,193.58z"/>
				<path fill="#967D64" d="M119.63,187.23l-0.01,0.03v-37.33l0,0.01c0.01-3.77,0.35-8.42,0.63-9.84h-0.64h-3.69h-6.58h-3.7h-0.63
					c0.27,1.33,0.59,5.52,0.63,9.15v38.68c-0.04,3.63-0.36,7.82-0.63,9.15h0.63h3.7h6.59h3.68h0.64
					C119.98,195.65,119.63,191,119.63,187.23z"/>
				<path fill="#967D64" d="M173.09,171.75c7.39-1.41,12.98-7.89,12.98-15.69c0-8.82-7.15-15.98-15.98-15.98h-36.22l0,0h-0.64
					c0.28,1.41,0.63,6.07,0.63,9.84l0.01-0.03v37.35l-0.01-0.03c-0.01,3.77-0.35,8.42-0.63,9.84h0.64l0,0h13.97v-53.7h14.77
					c7.98,0,11.98,5.37,11.98,12.7c0,4.65-1.62,8.73-4.83,11.1l-1.64-2.26h-15.49l23.31,32.16h15.49L173.09,171.75z"/>
				<path fill="#967D64" d="M246.4,197.06l-1.03-4.33c-1.41,0.28-6.22,0.63-9.99,0.63h-21.85V169.4h18.61
					c1.61,0.06,8.47,0.37,9.75,0.62v-4.97c0,0-5.4-0.04-9.35,0h-19.02v-21.2h23.45c3.34,0.11,6.6,0.37,7.32,0.48l1.03-4.23h-42.14
					h-3.64h-0.69c0.28,1.41,0.63,6.07,0.63,9.84l0.06-0.15v37.59l-0.06-0.15c-0.01,3.77-0.35,8.42-0.63,9.84h4.33v0H246.4z"/>
				<path fill="#967D64" d="M355.55,277.31l-1.03-4.33c-1.41,0.28-6.22,0.63-9.99,0.63h-21.85v-23.97h18.61
					c1.61,0.06,8.47,0.37,9.75,0.62v-4.97c0,0-5.4-0.04-9.35,0h-19.02v-21.2h23.45c3.34,0.11,6.6,0.37,7.32,0.48l1.03-4.24h-42.14
					h-3.64h-0.69c0.28,1.41,0.63,6.07,0.63,9.84l0.06-0.15v37.59l-0.06-0.15c-0.01,3.77-0.35,8.42-0.63,9.84h4.33l0,0H355.55z"/>
				<path fill="#967D64" d="M282.24,252c7.39-1.41,12.98-7.89,12.98-15.69c0-8.82-7.15-15.98-15.98-15.98h-36.22v0h-0.64
					c0.28,1.41,0.63,6.07,0.63,9.84l0.01-0.03v37.35l-0.01-0.03c-0.01,3.77-0.35,8.42-0.63,9.84h0.64l0,0h13.97v-53.7h14.77
					c7.98,0,11.98,5.37,11.98,12.7c0,4.65-1.62,8.73-4.83,11.1l-1.64-2.26h-15.49l23.31,32.16h15.49L282.24,252z"/>
				<path fill="#967D64" d="M365.31,143.84c3.61,0.09,7.35,0.38,8.13,0.5l-1.03-4.25h-55.57l-1.03,4.25
					c0.78-0.12,4.52-0.41,8.13-0.5h12.67v44.69c-0.07,3.48-0.37,7.28-0.62,8.53h0.62h3.71h6.56h3.7h0.63
					c-0.26-1.31-0.58-5.38-0.63-8.97v-44.26H365.31z"/>
				<path fill="#967D64" d="M158.38,224.08c3.61,0.09,7.35,0.38,8.13,0.5l-1.03-4.25h-55.57l-1.03,4.25
					c0.78-0.12,4.52-0.41,8.13-0.5h12.67v44.69c-0.07,3.48-0.37,7.28-0.62,8.54h0.62h3.71h6.56h3.7h0.63
					c-0.26-1.31-0.58-5.39-0.63-8.97v-44.25H158.38z"/>
			</g>
		</g>
	</g>
</g>
</svg>
