<?xml version="1.0" encoding="utf-8"?>
<!-- Generator: Adobe Illustrator 26.3.1, SVG Export Plug-In . SVG Version: 6.00 Build 0)  -->
<svg version="1.2" baseProfile="tiny-ps" id="Capa_1" xmlns="http://www.w3.org/2000/svg" xmlns:xlink="http://www.w3.org/1999/xlink"
	 viewBox="0 0 360 360" xml:space="preserve">
	 <title>Yndika</title>
<g id="design">
	<path fill="#545859" d="M205.3,141.7h7.6c0.5,0,0.8,0.4,0.8,0.8v7.6c0,0.5-0.4,0.8-0.8,0.8h-7.6c-0.5,0-0.8-0.4-0.8-0.8v-7.6
		C204.4,142.1,204.8,141.7,205.3,141.7z"/>
	<path fill="#545859" d="M213.6,198v-38.9c0-0.5-0.4-0.8-0.8-0.8l0,0h-7.6c-0.5,0-0.8,0.4-0.8,0.8l0,0v59.3c0,0.5,0.4,0.8,0.8,0.8
		l0,0h7.6c0.5,0,0.8-0.4,0.8-0.8l0,0V198z"/>
	<path fill="#545859" d="M308.7,175.1l19,43.7c0.1,0.3,0.4,0.5,0.8,0.5h8.3c0.5,0,0.8-0.4,0.8-0.8c0-0.1,0-0.2-0.1-0.3l-26.7-59.4
		c-0.1-0.3-0.4-0.5-0.8-0.5h-2.4c-0.3,0-0.6,0.2-0.8,0.5l-27.7,59.4c-0.2,0.4,0,0.9,0.4,1.1c0.1,0.1,0.2,0.1,0.4,0.1h8.1
		c0.3,0,0.6-0.2,0.8-0.5L308.7,175.1z"/>
	<path fill="#FFA400" d="M276.4,217.9L249.8,189l26.1-29.3c0.3-0.3,0.3-0.8,0-1.2c-0.2-0.2-0.4-0.2-0.6-0.2h-9.9
		c-0.2,0-0.4,0.1-0.6,0.2L238.1,189l26.8,30c0.2,0.2,0.4,0.3,0.6,0.3h10.2c0.5,0,0.8-0.4,0.8-0.8
		C276.6,218.3,276.5,218.1,276.4,217.9z"/>
	<path fill="#FFA400" d="M234.4,198v-38.9c0-0.5-0.4-0.8-0.8-0.8H226c-0.5,0-0.8,0.4-0.8,0.8v59.3c0,0.5,0.4,0.8,0.8,0.8h7.6
		c0.5,0,0.8-0.4,0.8-0.8V198z"/>
	<path fill="#545859" d="M172.7,217.6c3.8-1.3,7.4-3.3,10.3-6c6.6-5.8,9.8-13.4,9.8-22.7c0-9.4-3.2-16.9-9.4-22.6
		c-3-2.8-6.5-4.8-10.4-6c-3.6-1.2-8.4-1.8-14.5-1.8h-12c-0.5,0-0.8,0.4-0.8,0.8l0,0v59.3c0,0.5,0.4,0.8,0.8,0.8l0,0h11.8
		C164.5,219.3,169.3,218.7,172.7,217.6z M154.9,167h4.1c7.8,0,13.8,1.9,17.8,5.6c4.5,4.2,6.7,9.6,6.7,16.3s-2.3,12.1-6.8,16.1
		c-2.1,2-4.7,3.5-7.4,4.4c-3.3,1-6.8,1.4-10.3,1.3h-4.1L154.9,167z"/>
	<path fill="#545859" d="M86.6,176.6l40.7,42.4c0.2,0.2,0.4,0.3,0.6,0.3h2.3c0.5,0,0.8-0.4,0.8-0.8l0,0v-59.3c0-0.5-0.4-0.8-0.8-0.8
		l0,0h-7.6c-0.5,0-0.8,0.4-0.8,0.8l0,0v41.5l-40.3-42.2c-0.2-0.2-0.4-0.3-0.6-0.3h-2.7c-0.5,0-0.8,0.4-0.8,0.8l0,0v59.4
		c0,0.5,0.4,0.8,0.8,0.8l0,0h7.6c0.5,0,0.8-0.4,0.8-0.8l0,0V176.6z"/>
	<path fill="#545859" d="M42,219.3h7.6c0.5,0,0.8-0.4,0.8-0.8l0,0v-25.5l19.3-33.4c0.2-0.4,0.1-0.9-0.3-1.1
		c-0.1-0.1-0.3-0.1-0.4-0.1h-8.7c-0.3,0-0.6,0.2-0.7,0.4l-13.7,24l-13.7-24c-0.1-0.3-0.4-0.4-0.7-0.4h-8.7c-0.5,0-0.8,0.4-0.8,0.8
		c0,0.1,0,0.3,0.1,0.4l19.2,33.4v25.5C41.2,218.9,41.6,219.3,42,219.3L42,219.3z"/>
</g>
</svg>
