<?xml version="1.0" encoding="utf-8"?>
<!-- Generator: Adobe Illustrator 28.1.0, SVG Export Plug-In . SVG Version: 6.00 Build 0)  -->
<svg version="1.2" baseProfile="tiny-ps" id="PittaRosso"
	 xmlns="http://www.w3.org/2000/svg" xmlns:xlink="http://www.w3.org/1999/xlink" viewBox="0 0 255.1 255.1"
	 xml:space="preserve">
	 <title>PittaRosso</title>
<circle fill="#FFFFFF" cx="127.6" cy="127.6" r="127.6"/>
<rect fill="#D0043C" width="255.1" height="255.1"/>
<g>
	<path fill="#FFFFFF" d="M97.9,138.5c5.7-0.3,11.2-0.8,16.2-1.3c-4.2-23.5-6.9-45.2-4.6-52.9c2.8-9.2,21.9-6.9,39.4,0.3l-5-32.8
		c-36.4-16.2-60.2-13.3-62.1,12.6C80.2,86.1,87,113.2,96,138.5C96.6,138.5,97.3,138.5,97.9,138.5"/>
	<path fill="#FFFFFF" d="M117.6,162.4c-4.1-0.1-8.3-0.4-12.6-0.7c12.7,30.4,25.9,53.6,25.9,53.6s-6.1-24.7-11.9-52.9
		C118.5,162.4,118.1,162.5,117.6,162.4"/>
	<path fill="#FFFFFF" d="M117.7,156.2c2.4,0.1,4.8,0.1,7.3,0.1c28.3,0,57.4-5,77.6-21.5c30.5-24.9-15.6-62.9-52.4-81.1l4.8,33.5
		c16.6,8.1,29.7,20.4,22.6,30.7c-10.7,15.4-36,22.5-62.2,25.4c-5.7,0.6-11.4,1.1-17,1.4c-7,0.4-13.8,0.5-20.2,0.5
		c-23.4,0-41.5-2-41.5-2s29.7,8.9,65.8,12C107.4,155.7,112.5,156,117.7,156.2"/>
</g>
</svg>
