<?xml version="1.0" encoding="UTF-8"?><svg xmlns="http://www.w3.org/2000/svg" width="120" height="120" viewBox="0 0 120 120" fill="none" version="1.2" baseProfile="tiny-ps"><title>VersaHub-Logo</title><rect width="120" height="120" fill="#1D4ED8"></rect><path fill-rule="evenodd" d="M13.86 67.5955C13.4799 67.5955 13.1719 67.2894 13.1719 66.9117L13.1719 65.5441C13.1719 65.1664 13.4799 64.8602 13.86 64.8602C14.24 64.8602 14.5481 65.1664 14.5481 65.5441L14.5481 66.9117C14.5481 67.2894 14.24 67.5955 13.86 67.5955Z" fill="white"></path><path fill-rule="evenodd" d="M16.9567 66.2279C16.5766 66.2279 16.2686 65.9217 16.2686 65.5441L16.2686 62.8088C16.2686 62.4311 16.5766 62.1249 16.9567 62.1249C17.3367 62.1249 17.6447 62.4311 17.6447 62.8088L17.6447 65.5441C17.6447 65.9217 17.3367 66.2279 16.9567 66.2279Z" fill="white"></path><path fill-rule="evenodd" d="M20.0528 64.1764C19.6728 64.1764 19.3647 63.8702 19.3647 63.4926L19.3647 59.3896C19.3647 59.012 19.6728 58.7058 20.0528 58.7058C20.4329 58.7058 20.7409 59.012 20.7409 59.3896L20.7409 63.4926C20.7409 63.8702 20.4329 64.1764 20.0528 64.1764Z" fill="white"></path><path fill-rule="evenodd" d="M23.149 62.8088C22.769 62.8088 22.4609 62.5026 22.4609 62.125L22.4609 56.6544C22.4609 56.2767 22.769 55.9706 23.149 55.9706C23.5291 55.9706 23.8371 56.2767 23.8371 56.6544L23.8371 62.125C23.8371 62.5026 23.5291 62.8088 23.149 62.8088Z" fill="white"></path><path fill-rule="evenodd" d="M22.5204 65.2663C22.6748 64.9212 23.0814 64.7658 23.4287 64.9192L25.5575 65.8595L25.5575 52.5514C25.5575 52.1738 25.8656 51.8676 26.2456 51.8676C26.6257 51.8676 26.9337 52.1738 26.9337 52.5514L26.9337 66.9117C26.9337 67.1432 26.8159 67.3589 26.6206 67.4851C26.4253 67.6112 26.179 67.6306 25.9662 67.5366L22.8697 66.1689C22.5225 66.0156 22.3661 65.6114 22.5204 65.2663Z" fill="white"></path><path fill-rule="evenodd" d="M14.5481 62.125C14.5481 62.5026 14.24 62.8088 13.86 62.8088C13.4799 62.8088 13.1719 62.5026 13.1719 62.125L13.1719 52.5514C13.1719 52.32 13.2897 52.1042 13.485 51.9781C13.6803 51.8519 13.9266 51.8326 14.1394 51.9266L20.3323 54.6619C20.6796 54.8152 20.836 55.2193 20.6816 55.5645C20.5273 55.9096 20.1206 56.065 19.7734 55.9116L14.5481 53.6037L14.5481 62.125Z" fill="white"></path><path fill-rule="evenodd" d="M100.264 65.1507V65.9819C100.264 66.1737 100.136 66.3016 99.9446 66.3016H97.7715C97.5798 66.3016 97.452 66.1737 97.452 65.9819V53.7065C97.452 53.5146 97.5798 53.3868 97.7715 53.3868H100.009C100.2 53.3868 100.328 53.5146 100.328 53.7065V58.3097C100.903 57.4786 101.862 56.9671 103.012 56.9671C105.313 56.9671 106.975 58.7573 106.975 61.6343C106.975 64.5114 105.313 66.4294 103.012 66.4294C101.862 66.4934 100.903 65.9819 100.264 65.1507ZM103.971 61.8261V61.6343C103.971 59.972 103.268 59.2048 102.118 59.2048C100.903 59.2048 100.264 60.0999 100.264 61.6983V61.8901C100.264 63.4884 100.903 64.3196 102.118 64.3196C103.204 64.3196 103.971 63.4884 103.971 61.8261ZM77.4473 53.5786H75.0186C74.8269 53.5786 74.6991 53.7064 74.6991 53.8982V65.9179C74.6991 66.1097 74.8269 66.2376 75.0186 66.2376H77.4473C77.6391 66.2376 77.7669 66.1097 77.7669 65.9179V60.995H82.6243V65.9179C82.6243 66.1097 82.7521 66.2376 82.9439 66.2376H85.3726C85.5643 66.2376 85.6921 66.1097 85.6921 65.9179V53.8982C85.6921 53.7064 85.5643 53.5786 85.3726 53.5786H82.9439C82.7521 53.5786 82.6243 53.7064 82.6243 53.8982V58.6294H77.7669V53.8982C77.7669 53.7064 77.6391 53.5786 77.4473 53.5786ZM87.2262 57.5425V62.6573C87.2262 65.0229 88.4405 66.4294 90.4857 66.4294C91.6362 66.4294 92.4671 65.9179 92.9784 64.9589V65.9179C92.9784 66.1097 93.1062 66.2376 93.2979 66.2376H95.5349C95.7266 66.2376 95.8545 66.1097 95.8545 65.9179V57.5425C95.8545 57.3507 95.7266 57.2228 95.5349 57.2228H93.2979C93.1062 57.2228 92.9784 57.3507 92.9784 57.5425V61.954C92.9784 63.2966 92.531 64.1278 91.5083 64.1278C90.5496 64.1278 90.1023 63.5524 90.1023 62.4655V57.5425C90.1023 57.3507 89.9744 57.2228 89.7827 57.2228H87.5457C87.354 57.2228 87.2262 57.3507 87.2262 57.5425ZM33.6026 53.9622C33.4748 53.7064 33.2191 53.5146 32.8996 53.5146C32.4522 53.5146 32.1326 54.0261 32.3243 54.4097L36.4148 65.5343C36.6065 65.9819 36.99 66.2376 37.4374 66.2376C37.8848 66.2376 38.3322 65.9179 38.46 65.5343L42.5505 54.4097C42.6783 53.9622 42.3587 53.5146 41.9113 53.5146C41.5918 53.5146 41.3361 53.7064 41.2722 53.9622L37.4374 64.6393L33.6026 53.9622ZM72.7815 65.5983C72.7815 65.918 72.5258 66.2377 72.1423 66.2377C71.8228 66.2377 71.5032 65.9819 71.4393 65.6622V64.7032C70.7362 66.0459 69.5219 66.4934 68.2436 66.4934C66.3262 66.4934 65.1758 65.4704 65.1758 63.936C65.1758 61.954 66.7736 61.4426 68.6271 61.059C68.8829 61.0008 69.1303 60.949 69.3658 60.8997C70.4243 60.6779 71.2418 60.5067 71.5032 60.036V59.9081C71.5032 58.8212 70.8001 58.1819 69.2662 58.1819C67.924 58.1819 67.0293 58.6294 66.8375 59.6524C66.7736 59.9721 66.5179 60.1639 66.1984 60.1639C65.751 60.1639 65.4314 59.7803 65.5592 59.3327C65.9427 57.8622 67.3488 57.095 69.2662 57.095C71.5671 57.095 72.7815 58.054 72.7815 60.2278V65.2147V65.5983ZM66.6458 63.8081C66.6458 64.7672 67.2849 65.4065 68.4993 65.4065C70.0332 65.4065 71.1836 64.6393 71.5671 62.9131V61.059C71.152 61.4223 70.3154 61.6171 69.4681 61.8144L69.468 61.8144C69.2718 61.8601 69.075 61.906 68.8827 61.954C67.6684 62.2098 66.6458 62.5934 66.6458 63.8081ZM57.5059 64.3196C57.7615 64.1917 58.0811 64.1917 58.2728 64.3835C58.9759 65.0868 59.9346 65.4065 60.8293 65.4065C62.0437 65.4065 62.8746 64.8311 62.8746 63.8081C62.8746 62.8679 61.9026 62.6298 60.5543 62.2996C60.4357 62.2705 60.3142 62.2408 60.1902 62.2098C58.4006 61.8261 57.1224 61.3147 57.1224 59.6524C57.1224 58.1179 58.5285 57.0311 60.318 57.0311C61.5324 57.0311 62.555 57.4786 63.4498 58.1819C63.7694 58.4376 63.7054 58.9491 63.3859 59.1409C63.1302 59.2688 62.8746 59.2688 62.6828 59.077C62.0437 58.4376 61.2128 58.1179 60.382 58.1179C59.2315 58.1179 58.4646 58.6934 58.4646 59.5884C58.4646 60.5399 59.2823 60.7362 60.8555 61.1138L60.8933 61.1229C62.4911 61.5065 64.1528 62.0179 64.1528 63.7442C64.1528 65.3425 62.8107 66.4934 60.8293 66.4934C59.5511 66.4934 58.2728 66.0458 57.4419 65.2786C57.1224 65.0229 57.1863 64.5114 57.5059 64.3196ZM49.1971 63.8721C49.3888 63.6163 49.7084 63.4885 49.964 63.6163C50.3475 63.7442 50.4753 64.1917 50.1558 64.5754C49.5166 65.6622 48.3023 66.4934 46.321 66.4934C43.5727 66.4934 41.911 64.5754 41.911 61.8262C41.911 59.013 43.7644 57.095 46.321 57.095C49.0053 57.095 50.2836 58.7573 50.4753 61.5065C50.5393 61.8901 50.2197 62.2098 49.8362 62.2098H43.3171C43.381 64.0639 44.5314 65.3426 46.3849 65.3426C47.9188 65.3426 48.7497 64.7032 49.1971 63.8721ZM49.1971 61.1229C49.1332 59.2049 48.0466 58.118 46.3849 58.118C44.7231 58.118 43.5088 59.3327 43.381 61.1229H49.1971ZM53.4155 59.077V57.8622C53.4155 57.4786 53.0959 57.2229 52.7764 57.2229C52.3929 57.2229 52.1372 57.5425 52.1372 57.8622V65.5344C52.1372 65.918 52.4568 66.1737 52.7764 66.1737C53.1598 66.1737 53.4155 65.854 53.4155 65.5344V61.6983C53.4155 59.5245 53.9268 58.4376 55.7803 58.4376H55.9081C56.2277 58.4376 56.5472 58.1819 56.5472 57.7983C56.5472 57.4147 56.2277 57.1589 55.9081 57.1589C54.3742 57.2868 53.7351 57.7983 53.4155 59.077Z" fill="white"></path></svg>