<svg xmlns="http://www.w3.org/2000/svg" xmlns:xlink="http://www.w3.org/1999/xlink" version="1.2" viewBox="0 0 96 96" baseProfile="tiny-ps" id="Layer_1">
  <title>L'olivier Assurance</title>
<path fill="#F04924" d="M19.4,58.2h65.2v-1H25.8c-0.6-4.4-4-11.2,1.6-15c0.2,0,0.4,0.1,0.3-0.2c0,0,0.1,0,0.1,0
	c0.1,0.1,0.3,0.2,0.2,0c0.1,0,0-0.1,0-0.2l0-0.2c0,0.1,0.1,0.1,0.1,0.2c0,0,0,0,0,0c0,0,0-0.1,0-0.2c0,0.1,0,0.1,0,0.2
	c0.1,0,0.1,0,0.2,0l0.1-0.2c0.1,0,0.2,0.1,0.2,0.1s-0.1,0,0-0.1c0,0,0.2,0.1,0.2,0l0-0.4l0.1,0.1c0,0,0,0.1,0.1,0
	c0.2-0.4,0.1-0.2,0.2-0.4c0,0.1,0.1,0.1-0.1,0.2c0.4,0.2,0.5-0.5,0.5-0.6c0,0,0,0,0.1,0c0.1-0.1-0.2,0-0.1-0.1c0.1-0.1,0.2,0,0.2,0
	c0.1,0-0.1-0.1-0.1-0.1c0-0.1-0.2-0.1-0.2-0.1l0-0.1c0.1,0.1,0.2,0.1,0.3,0.1c0,0.1,0.1,0.1,0.1,0.1c-0.2,0.1,0,0.3,0.1,0.1l0,0
	c0,0.1-0.1,0.1,0,0.1l0,0c0,0,0.1,0,0.1,0c0,0,0.1,0.1,0.1,0.1c-0.1,0.1,0.1,0.1,0.1,0c-0.1,0.1,0.1,0.1,0.1,0.1
	c-0.1,0,0.2,0.2,0.3,0.1c0,0.2,0.2-0.1,0.2-0.2c0-0.1-0.1-0.1-0.2-0.2c0,0,0,0,0,0c0.2,0,0-0.1,0.1-0.2c0.1,0,0.4,0.1,0.3-0.1
	c0.2,0.3,0.2-0.1,0.3-0.1c0-0.1,0-0.1,0-0.2c-0.1,0-0.2-0.3-0.3-0.2c-0.1-0.1-0.5-0.2-0.5-0.1h0c0-0.1-0.2,0-0.2,0l0-0.1
	c-0.1-0.1-0.3-0.1-0.2-0.3c0,0,0-0.1-0.1-0.1c-0.2-0.2,0.4,0,0.3,0c-0.3,0.3,0.3,0.3,0.2,0.1c0.1,0,0.2,0,0.3-0.1
	c0.3,0,0.1,0.1-0.1,0.1c0,0,0.2,0.1,0.2,0.1c0.1-0.1,0.2,0.1,0.3,0.1c0.1-0.1,0.2,0,0.3,0c0.4-0.1-0.2-0.2-0.3-0.3
	c0,0-0.1,0,0.1-0.1c0.2-0.1,0.1-0.1,0.1-0.1c0.1-0.1,0.3,0,0.5-0.1l0.1,0.1l0.1,0c0.2,0.2,0.5-0.1,0.6,0.1c0.1-0.1,0.1-0.2-0.1-0.3
	c0.2,0,1,0,0.4-0.2l0.1-0.1c0-0.1-0.1-0.1-0.2-0.1c0-0.1-0.2,0-0.2,0c-0.1,0-0.3,0.1-0.4,0c0.1,0,0-0.1-0.1-0.1c0,0,0,0,0.1,0
	c0.3-0.2-0.5,0-0.3-0.3c0.1,0,0.5,0,0.4,0.1c0,0,0.1-0.1,0.2-0.1l-0.1,0.1c0,0,0.4,0.1,0.3,0c0,0.1,0.2,0,0.2-0.1
	c0.2,0,0.1-0.1,0.1-0.2c0,0,0.1,0.1,0.1,0.1l0.1-0.1l-0.1,0.1l0.2,0l0.1-0.1c0.1,0.1,0.3,0.1,0.2-0.1c0,0,0.1-0.1,0.1-0.1
	c0,0.1,0.1,0.1,0.1,0.1c0,0.3,0.4,0.2,0.1-0.1c0.1,0,0.3,0.2,0.4,0.1c0.1-0.1,0-0.1,0-0.2c0.1-0.1,0.4,0.1,0.4,0l-0.1,0.1
	c0.2,0.1,0.6,0.1,0.6-0.2c0.1-0.1,0.5-0.1,0.6-0.1c0.1,0,0.3-0.1,0.4,0c0,0,0-0.1,0.1-0.2c0.2,0,0.1-0.1,0-0.1
	c0.1,0,0.2-0.1,0.2-0.1c-0.1,0.1,0.2,0.2,0.2,0.1c0.2,0.1,0.3-0.4,0-0.3c0,0-0.2-0.2-0.3-0.1c0,0-0.3-0.1-0.1,0
	c0.1,0.1-0.2,0-0.2,0.1c-0.2,0.1-0.4-0.1-0.6,0.1c-0.1,0-0.3-0.1-0.3-0.2c0.2,0,0.3-0.3,0.4-0.1c0,0,0.1-0.3,0-0.3
	c0.1-0.1,0.4-0.1,0.5-0.3c0-0.1-0.1-0.3-0.3-0.2c0-0.1-0.2-0.1-0.1-0.2c0.2,0,0.4,0,0.6-0.1l0.1,0c0,0.1-0.1,0.1-0.2,0.1l0.1,0
	l-0.1,0.1c0.1,0,0.2,0,0.3-0.1c0.1,0,0.1,0.1,0.2,0.1c-0.1,0.1-0.3,0-0.3,0.1c0,0.1-0.1,0,0,0.1c0.1,0,0.1,0,0.1,0s0-0.1,0.1-0.1
	s0-0.1,0.1-0.1c0.2,0,0.1,0.1,0.1,0.1c-0.2,0.1,0.1,0.2,0.2,0.1c0,0.1,0.1,0,0.1,0c0,0,0,0,0,0.1c0.1,0,0.1,0.1,0.1,0.1
	c0.1,0,0.2,0,0.1-0.1l0,0c0,0,0.1,0,0.1-0.1c0.8,0.3,0.5-0.4,0.1-0.3c-0.1-0.1-0.2-0.2,0,0c0.1,0,0.1,0,0.1,0c0,0,0.1,0,0.1,0
	c0.1-0.1-0.1-0.1-0.2-0.1l0,0c0,0-0.1-0.1-0.1-0.1l0,0c0.1,0,0.3,0,0.1,0c0.1,0,0.3-0.1,0.3,0l-0.1,0c0,0.1,0,0.1,0,0.2
	c0,0,0,0,0.1,0s-0.1-0.1-0.1-0.1c0.2,0,0.2-0.2,0-0.2l0.1,0c0.1,0,0.1,0.1,0.2,0.1c0-0.1,0.1,0,0.2,0c0.1,0,0.1,0.2,0.2,0.2
	c0.1,0-0.1,0.1-0.1,0.1s0.1,0,0.1,0c-0.1,0.1-0.1,0.2,0.1,0.2l0,0.1c0.2,0.3,0.7-0.1,0.2,0c0.1-0.1-0.2-0.2-0.2-0.2
	c0.1,0,0.3,0,0.1-0.1c-0.1-0.1,0.3,0.1,0.3-0.2c0-0.3-0.3,0-0.4-0.1c-0.1,0,0-0.2-0.1-0.3c0-0.2-0.3,0-0.4-0.1c0,0,0,0,0-0.1
	s-0.2,0-0.2-0.1c0-0.1-0.1-0.1-0.1-0.2c0.2-0.1,0.2,0,0.4,0c0.2-0.1,0.1,0.2,0,0.1c0.2,0,0.1,0.3,0,0.1c0,0,0.2,0.1,0.2,0.1
	c0.3,0.1,0.1-0.1,0-0.2c0.1,0,0.1,0,0.2,0c0.1-0.1,0.1-0.2,0-0.2c0.2,0,0.4,0,0.2-0.1c0.1-0.2-0.3-0.1-0.3,0h0.1
	c-0.1,0-0.2,0.1-0.3,0.1c0-0.1,0-0.1-0.1-0.1l0,0c0.1,0.1,0.4,0.1,0.3-0.1c0.2-0.1-0.2-0.2-0.2-0.1c-0.1,0.2-0.3,0.2-0.4,0.2
	c0-0.1-0.1-0.1-0.2-0.1c-0.1-0.1,0.1,0,0.1-0.1c-0.1-0.1,0.1-0.1-0.1-0.2c-0.1-0.1-0.2,0.2-0.3,0.1c0.1-0.1-0.1-0.1-0.1-0.1
	C37.6,34,37.6,34,37.7,34c0,0,0,0-0.1,0c-0.1,0.1,0.3,0,0.3,0.1c-0.2,0-0.3,0-0.5,0l0,0l0,0c0,0-0.1-0.2-0.1-0.1c0,0-0.1,0-0.1,0
	l0,0c-0.1,0-0.1,0.1-0.1,0.1c-0.1,0-0.2,0-0.2-0.1c0,0.1-0.1,0.1-0.2,0c0.1-0.1-0.2-0.1-0.3-0.2c0.1,0,0.6,0,0.7,0.2
	c0,0,0.3,0,0.1-0.1c0.2,0,0.3-0.1,0.5-0.1c0.1-0.1-0.2-0.1-0.2-0.1l0,0c-0.2-0.1,0.1-0.1-0.1-0.2c-0.2,0-0.3,0-0.4,0.1
	c-0.1,0-0.2-0.2-0.4-0.1c-0.1,0.3-0.3,0-0.5,0c-0.1,0,0.5-0.3,0.5-0.2c0,0.1,0.2,0.1,0.2,0c0,0.1,0.2,0.1,0.2,0.1
	c0,0,0.1-0.2,0.1-0.2c0,0,0.3,0,0.2-0.1c0.1,0,0.2-0.1,0.2,0c-0.1,0.1,0,0.2,0.1,0.1c0.1,0.2,0.2,0,0.2-0.1c0.1,0,0.1-0.2,0.1-0.2
	c0.1,0.1,0.4-0.1,0.1-0.1c0.2,0,0-0.2-0.1-0.1l-0.1,0c0.4-0.2-0.3,0-0.2,0.2c-0.2,0-0.3,0.1-0.4,0c0-0.1-0.1-0.1-0.1-0.1
	c0.1,0-0.1-0.1-0.1-0.1c-0.1-0.1-0.3-0.2-0.5-0.1c0,0.1-0.3,0-0.1,0c0.2,0,0.4,0,0.5,0c0.2,0,0-0.2-0.1-0.1c-0.1-0.1,0.2,0,0.2-0.2
	c0-0.3-0.4-0.2-0.4-0.1c-0.2,0.2-0.3-0.1-0.5,0c0,0-0.3-0.1-0.1-0.1c0.2,0-0.2-0.1-0.1-0.1c0.1,0,0.1-0.1-0.1-0.1
	c-0.1,0,0.5-0.1,0.5-0.1c0.1-0.1,0.7-0.1,0.5-0.2c0.3-0.2-0.2-0.2-0.4-0.2c0.1-0.3-0.4-0.1-0.2-0.2c0.1,0,0.3,0,0.1-0.1
	c0.2-0.1,0-0.2-0.1-0.2c0-0.1-0.4-0.1-0.4-0.1c0-0.1-0.2-0.2-0.3-0.3c0,0,0.2-0.2,0.1-0.2c0.4,0-0.1-0.1,0.1-0.1
	c0.1,0-0.1-0.1-0.1-0.1c0,0,0.1,0,0.1,0l0.1-0.1c0.4-0.1,0-0.4,0.4-0.3c0,0,0.1,0.1,0.1,0.1c0,0.1,0.4,0,0.4-0.2c0,0,0.3,0,0.2-0.1
	c0.1,0-0.1-0.2-0.1-0.2l0-0.2c-0.1-0.2-0.5,0-0.4-0.2c0.2,0-0.4-0.3-0.3-0.3c0,0,0.1,0,0.1,0c0.2,0,0.5-0.2,0.6-0.4
	c0,0,0.1-0.1,0.1-0.1c0-0.1-0.3,0-0.3-0.1c0.1-0.2-0.6-0.2-0.3,0c0.1,0.1-0.3,0.1-0.2,0.2c-0.1-0.1-0.5-0.1-0.5,0.2
	c-0.2-0.1-0.3-0.2-0.4-0.2l0,0.1c-0.2-0.1-0.6-0.2-0.8-0.3c-0.1,0,0.3-0.1,0.3-0.1c0.1,0,0.3,0.1,0.3,0.1c0,0-0.1,0.1,0,0.2
	c0.2,0.1,0.1-0.1,0.1-0.1c0.1,0.1,0.3,0.1,0.2,0c0.1,0,1.1-0.1,0.5-0.2c0.1,0,0.2,0,0.1-0.1c0.1,0,0.4,0,0.2-0.1
	c0.1,0,0.3,0,0.2-0.1c0.2,0,0.1-0.2,0-0.2c0.3,0,0-0.2-0.1-0.2c0-0.1-0.5-0.1-0.5,0c0,0-0.1-0.1-0.1-0.1c0.2-0.3-0.5-0.3-0.7-0.4
	c0.2-0.1-0.1-0.2-0.2,0c-0.2,0.1-0.5-0.5-0.7-0.1l-0.1,0c0-0.1-0.1-0.2-0.1-0.2c0.4-0.5,0.2,0.1,0.6-0.1c0.1,0,0.1,0,0.1,0.1
	c0,0.1,0.4,0.2,0.2-0.1c0,0,0,0,0.2,0s-0.1-0.2-0.1-0.2c0.4-0.1-0.3-0.2-0.4-0.2c0.5-0.1,0.6,0.1,1,0.2c0,0,0.1-0.1,0.2-0.1
	s-0.1-0.1-0.1-0.1c0,0,0.1,0,0.1,0c0.3,0.1,0.2-0.2,0-0.1c0-0.1-0.1-0.1-0.1-0.1c0-0.1-0.1-0.2-0.2-0.2c0-0.1-0.2-0.1-0.2-0.1
	c0.1-0.1-0.1-0.1-0.1-0.1c0,0-0.1,0.1-0.1,0.1c-0.1,0-0.2-0.1-0.3,0c-0.1,0-0.1-0.2-0.2-0.1c0.1-0.2-0.3,0-0.4,0
	c-0.1,0.2-0.3,0-0.4,0.1c-0.1,0.3-0.2-0.1-0.3-0.2c0.1-0.1,0.5,0.1,0.4-0.1c0.1-0.1,0.4,0.1,0.2-0.1c0-0.1-0.2-0.1-0.2-0.1
	c0.1,0,0.1-0.1,0.1-0.1c-0.1,0-0.3-0.1-0.3,0c-0.2,0-0.2,0-0.2,0.1c0,0-0.2,0-0.2,0c-0.1,0-0.3,0-0.2-0.1c0.1,0,0-0.1,0-0.1l0-0.1
	c0.1-0.1,0-0.2,0.2-0.1c0,0,0,0.1,0.1,0.1c0,0.1,0.2-0.1,0.1-0.1c0-0.1-0.1-0.2-0.2-0.2c0-0.1-0.1-0.1-0.1-0.1l0-0.1
	c0,0-0.4,0-0.3-0.1c0.1-0.1-0.1-0.1-0.2-0.1c-0.1,0.3-0.7,0.1-1,0.2c0.2,0,0.1-0.3-0.1-0.3c0,0,0,0-0.1-0.1s0,0.3,0,0.3h-0.1
	c0,0,0-0.1,0-0.1c0-0.2-0.3-0.1-0.3,0c-0.1,0-0.1,0.1-0.1,0.1c-0.1,0-0.1,0-0.2,0c-0.1-0.1-0.4-0.1-0.4-0.1c0-0.2,0-0.1-0.3-0.1
	c0-0.1-0.2,0-0.2,0c-0.1,0,0.1,0.1,0.1,0.1s-0.2,0-0.2,0c-0.3,0-0.4-0.2-0.6-0.1v0.2c-0.3,0.1-0.3-0.1-0.6,0c-0.1,0-0.1,0-0.1,0.1
	c-0.1,0.1-0.2-0.1-0.2-0.1c0-0.1-0.1-0.1-0.1-0.1c-0.1-0.1-0.1,0-0.1,0c-0.1,0,0-0.1,0.1-0.1c0.1,0,0-0.1,0-0.1
	c0.1-0.2-0.4-0.3-0.4-0.2c-0.1,0-0.3,0-0.1,0.1c0.2,0.1-0.2,0.3-0.3,0.3c-0.1,0-0.1-0.1-0.3,0c-0.1,0.1,0-0.3-0.1-0.1
	c-0.1,0.2-0.3-0.2-0.4-0.1c-0.2,0-0.3-0.1,0-0.1c0.1-0.1,0.2-0.1,0.2-0.2c0,0-0.4-0.1-0.2-0.1c0.1,0,0-0.1,0.1-0.2c0,0,0-0.1,0-0.1
	l0,0c-0.1,0-0.3,0-0.4,0c0,0.1-0.1,0.1-0.1,0l-0.1-0.1c-0.5,0.1,0.1-0.2-0.2-0.2c0,0.1-0.2,0.1-0.1,0.2c0,0,0,0.1,0.1,0.1
	c0.3,0-0.2,0.4-0.3,0.3c-0.1,0.2-0.3,0-0.4,0.2c-0.1,0.1-0.5,0.1-0.4,0.2c0.1,0.1,0.1,0.2-0.1,0.2c0,0.1-0.1,0.1-0.2,0
	c-0.1,0-0.3,0-0.1,0.1c-0.1,0.1,0.1,0.2,0,0.3c0,0-0.3,0-0.2-0.1c0.1-0.3-0.4-0.2-0.3-0.3c0.2-0.1-0.3,0-0.1-0.2
	c0.1,0,0.3-0.1,0.1-0.1c0,0,0-0.1,0-0.1c-0.1,0-0.5-0.1-0.5,0.1c0,0.1-0.1,0.1-0.3,0.1c-0.1,0-0.3,0-0.4,0c0.2,0.3-0.2-0.1-0.3,0
	c0,0,0,0-0.1-0.1c-0.2-0.1,0.4,0,0.1-0.1c0,0,0-0.1,0-0.1c-0.1-0.2-0.2,0-0.4,0c-0.1,0,0,0.1-0.1,0.1s-0.1,0-0.1,0
	c0.1-0.2-0.2-0.1-0.1-0.3c-0.1,0.1-0.4,0.2-0.5,0c0-0.1-0.2-0.1-0.3-0.1C20.5,23,20.6,23,20.6,23c-0.1-0.3-0.3,0-0.3,0.1
	c-0.1,0-0.2,0.1-0.2,0.1c0.1,0,0.1,0,0.2,0.1c0,0-0.1,0.1,0,0.1c0.1,0.2-0.4,0-0.1,0.2c-0.1,0-0.4,0-0.3,0l-0.2-0.1
	c0,0,0.1,0-0.1-0.1s-0.2,0-0.2,0c-0.1,0-0.5,0-0.3,0.1c0.1,0-0.1,0.2-0.1,0.2c-0.1,0,0-0.2,0-0.2c0.1-0.1-0.1-0.1-0.2-0.1
	c-0.2-0.1-0.3,0.2-0.4,0c0.1-0.2,0-0.2-0.2-0.3c-0.2-0.1,0.1,0.1,0,0.2c-0.1,0.1-0.1,0-0.2-0.1c-0.1-0.1-0.1,0-0.2,0.1
	c-0.1,0-0.2,0-0.3,0c0,0,0,0-0.1,0s0,0.1,0,0.1s0.1,0-0.1,0s-0.2,0-0.2,0c0,0-0.2,0.1-0.2,0c-0.1-0.1-0.4-0.1-0.1,0.1
	c-0.1-0.1-0.1,0.1,0,0.1c0,0.1,0.4,0.1,0.5,0.1c0.1,0.1,0.9,0.2,0.5,0.3c-0.1,0-0.4-0.2-0.6-0.1c0-0.1-0.5-0.1-0.4,0.1
	c0.1,0.1,0.4,0.1,0.5,0.2c-0.1,0.1,0,0.2,0,0.2c0,0-0.1,0.1-0.1,0.1c0,0,0-0.2-0.1-0.1l0-0.1c0.2,0,0.1-0.2,0-0.2
	c-0.1,0.1-0.3-0.1-0.3,0.1l-0.1,0c0,0.1-0.2,0-0.2,0.2l0,0c0-0.2-1.1-0.5-0.7-0.2c0,0-0.2,0-0.1,0.1l-0.1,0.1l-0.1-0.1
	c0.2,0,0.2-0.2,0-0.1c0-0.1,0-0.2-0.1-0.2c0,0,0.1,0-0.1-0.1C15,24.1,15,24.2,15,24.2l-0.3,0l-0.1-0.1c0,0,0.1,0,0-0.1
	c-0.1-0.1-0.2,0-0.2,0s0.1,0,0.1,0c0,0-0.4-0.1-0.2,0.1c0,0-0.3,0-0.3,0.1c0.1,0.2,0.6,0,0.5,0.1c0,0.2,0.1,0.1,0.3,0.1
	c0,0.3,0.2,0.1,0.3,0.2c-0.1,0-0.3,0-0.3,0.2c-0.1,0-0.3,0-0.1,0.1l0,0.1c0,0,0.2,0,0.3,0c0.2,0.1-0.5,0-0.6,0.1c0,0,0,0,0,0
	c0,0-0.2,0-0.1,0.2c-0.6-0.1,0.3,0.1-0.4,0.2c-0.1-0.1-0.3-0.1-0.4,0c-0.1,0-0.1-0.2-0.2-0.1c0-0.1-0.2-0.1-0.3-0.1
	c-0.1-0.1-0.1-0.1-0.2,0.1c0,0.2,0.3-0.1,0.2,0.1c-0.2,0.1,0.2,0.4,0.2,0.2c0-0.1,0.1-0.1,0.2-0.1c0.2,0-0.1,0.1,0,0.1
	c0,0-0.1,0-0.1,0c-0.1,0-0.3,0-0.3,0.1c-0.2-0.1-0.3-0.1-0.5-0.3c0.3,0,0.3-0.1,0.1-0.1c0-0.1-0.2-0.2-0.2-0.2
	c0.1,0,0.4-0.1,0.1-0.2c0-0.1-0.2,0-0.2,0c0-0.1-0.4,0-0.1,0.1l0,0.1c-0.1,0-0.1,0-0.1,0.1c-0.1,0-0.1,0.2,0,0.1
	c0,0.1,0.4,0.1,0,0.2c0,0-0.2,0-0.3,0l0-0.1c0.1,0,0.2,0,0.2,0c0.2,0-0.4-0.2-0.4-0.1c0-0.2-0.5-0.2-0.5,0c0,0-0.1,0-0.1,0
	c-0.1,0.1,0.2,0.2,0.3,0.2c-0.1,0-0.3,0-0.4,0.1c-0.5,0.2,0.7,0,0.4,0.2c-0.1,0,0,0.1,0,0.1c0,0.1-0.1,0.2,0,0.2c0,0,0,0,0,0
	c0.3,0,0.2-0.2,0.5,0c0,0-0.1,0-0.1,0.1l0,0c0,0.2,0.6-0.1,0.5,0.1c-0.1,0.1-0.5,0.2-0.3,0c-0.1-0.1-0.3-0.1-0.4,0
	c0-0.1-0.3-0.1-0.2,0c-0.1,0-0.3,0-0.3,0.1c-0.1,0.1-0.3,0.1-0.3,0.3l0.1,0c0.1,0.2,0.2,0.2,0.4,0c0.2,0.1,0.6,0.4,0.7,0.1
	c0,0,0.1,0,0.1-0.1c0-0.1,0.1-0.1,0.1-0.1l0,0.1c0.1,0.2,0.2,0,0.3-0.1c0.1,0.1,0.3,0.1,0.1-0.1c0,0,0.2,0,0.2-0.1
	c0.1,0,0.1,0,0.1,0c0,0,0.1,0.1,0.1,0.1c0.1,0,0.3,0,0.3,0c0.1,0,0.2,0,0.2-0.1c0.1,0,0.2,0.2,0.2,0.2c-0.1,0-0.2,0.1-0.3,0.2
	c0.1,0,0.1,0.1,0.1,0c0,0.1-0.1,0.1,0.1,0.1l-0.1,0.2c0,0-0.4,0.2-0.4,0.1c0-0.2-0.2-0.1-0.3,0c-0.1,0,0.4,0.1,0.2,0.2
	c-0.1-0.1-0.3-0.1-0.3-0.1c0.1,0.1-0.3,0.1-0.2,0.2c-0.1,0-0.2,0-0.4,0.1c-0.1,0-0.3-0.3-0.4-0.1c0,0-0.3,0.1-0.1,0.1s0,0.1,0,0.1
	s-0.1,0.1,0.1,0.1c0.2,0-0.2,0.2-0.2,0.2c0-0.3-0.7-0.1-0.5-0.5c0,0,0.2-0.1,0.1-0.1c0,0,0,0,0.1-0.1s-0.1-0.1-0.1-0.1s0,0-0.1-0.1
	s-0.1,0.1-0.1,0.1c-0.1,0-0.3,0-0.3,0.1l-0.1,0l-0.1-0.1c-0.1,0-0.2-0.1-0.3,0c0.1,0-0.4-0.1-0.4,0c-0.1,0-0.4-0.1-0.4-0.1
	c-0.1,0-0.4-0.1-0.2,0.1c-0.1,0-0.1,0.2-0.1,0.2c-0.1,0-0.1,0.2-0.1,0.2c0,0,0.7,0,0.4,0.1c0,0-0.4,0-0.2,0.1c0.1,0,0.1,0,0.1,0
	c-0.3,0,0,0,0,0c-0.1,0-0.2,0-0.2,0.1l0.3,0c0,0,0,0.1,0.1,0.1c0.2,0,0.1,0,0.1,0c0,0-0.3,0.1-0.3,0.2c0.1,0,0.5,0,0.3,0.1
	c0.2,0.1,0.3-0.1,0.3,0.2c0,0,0.4,0,0.2-0.1c0.1,0,0.6,0,0.4,0.2c0,0-0.1,0-0.1,0.1c-0.1,0.2-0.4-0.1-0.6,0.1c0,0-0.2,0-0.2,0
	c0-0.1-0.3-0.1-0.2,0c-0.1,0-0.2,0-0.3,0.1c-0.2-0.1-0.3-0.2-0.2,0.1c-0.1,0.1-0.5-0.2-0.3,0c-0.1-0.1-0.3,0-0.3,0.1l-0.1,0
	c0.1,0.1-0.1,0.1-0.1,0c-0.2,0.1-0.6-0.2-0.7,0.2c0.1,0,0,0,0,0.1c0,0.1,0.2,0,0.2,0c0,0,0.1,0.1,0.1,0.1l0.1,0
	c-0.1-0.1,0-0.1,0.1-0.1C7.8,30.1,8,30,7.9,30.2c0.2,0.1,0.3,0,0.5,0c0.1,0,0.1-0.1,0.2-0.1s0.1,0,0,0c-0.1,0,0,0.1,0,0.1
	s-0.1,0,0,0c0.1,0-0.2,0-0.3,0.1c-0.1,0-0.4,0-0.5,0l0,0.1c-0.1,0-0.3,0-0.4,0c-0.1-0.1-0.2,0-0.3,0.1c0.4,0,0.1-0.1,0,0.1
	c0.1,0,0.2-0.1,0.2-0.1c0.1,0.1,0.1-0.1,0.3-0.1c0.1,0.1-0.3,0.1-0.3,0.2c-0.4,0-0.1,0.1,0,0.1c0,0,0.1,0,0.2,0l0.1,0l0.2,0.1
	L7.8,31c-0.1-0.1-0.5-0.3-0.4,0C7.3,30.9,7,31,7.3,31c0.2,0.1-0.1,0.1-0.2,0.1l0-0.1C7,31,6.8,31,7,31.1c-0.1,0-0.5,0.2-0.3,0
	C6.7,31,6.6,31,6.5,31c0.1-0.1-0.1,0-0.1,0c-0.1,0-0.3-0.1-0.3,0c0,0,0.1,0.1,0.2,0c0.1,0,0.1,0,0.1,0c-0.1,0-0.2,0-0.2,0.1
	c0.1,0,0.2,0.1,0.4,0.1c0,0,0,0,0.1,0.1c0.1,0.1-0.4,0.1-0.1,0.3l-0.2,0c-0.1,0.3,0.4,0,0.4,0.1c0.1,0,0.2-0.1,0.3,0
	c0.1-0.1-0.1-0.1,0.1-0.1c0.2,0,0,0.1,0,0.1c0.3,0.1,0.4-0.1,0.6,0c-0.1,0.1-0.3,0-0.3,0.1l-0.3,0c-0.1,0,0,0.1,0.1,0.1
	c0.2,0.1,0,0.1-0.1,0.1c0-0.1-0.1,0-0.2,0c0-0.1-0.2,0-0.2,0s0,0-0.1,0s0,0.1,0,0.1c0,0,0,0.1,0,0.1H6.5c0.1,0-0.3-0.1-0.3,0.1
	c-0.1,0-0.1,0.1-0.1,0.1s-0.1,0,0,0c0.2,0.1,0.1,0.1,0.1,0.1c-0.2-0.1-0.3-0.1-0.4,0.1l0.1,0l0,0c0,0,0,0.1,0.1,0.1
	c0.1,0,0,0.2-0.1,0.3c0,0.1,0.4,0.3,0.4,0.1c0,0,0.3,0,0.2-0.1c0.1,0,0.1-0.1,0.2-0.1c0-0.1,0-0.1,0.1-0.1l0-0.1
	c0.3-0.1,0.6,0,0.9,0c-0.2,0.1-0.7,0.1-1,0.3c0.4-0.1,0.8-0.2,1.2-0.2c0,0-0.4,0.1-0.2,0.2c0,0,0,0-0.1,0c-0.1,0,0.1,0.2,0.1,0.1
	c0,0,0.2,0,0.1-0.1c0,0.1,0.2,0,0.1-0.1c0.1-0.1,0.6-0.1,0.5-0.1l0.2,0c0,0,0,0.1,0.1,0.1c0.1,0,0.1-0.1,0.1-0.1
	c0.2,0,0.7-0.1,0.8-0.2l0,0c-0.1,0-0.2,0.1-0.2,0.1c0.1,0,0.1,0,0.2,0c0.2,0.1,0.4,0.1,0.6,0c0,0,0,0,0,0c-0.1,0-0.3,0-0.3,0.1
	l-0.1,0c-0.1-0.1-0.4-0.2-0.4,0c0,0,0,0-0.2,0s-0.1,0.1-0.1,0.1c-0.1,0-0.4,0-0.4,0c-0.1,0-0.4,0-0.1,0.1c-0.1,0-0.1,0.2-0.1,0.2
	c-0.1,0,0,0.2,0,0.2c0,0,0.7-0.1,0.4,0.1c0,0-0.3,0.1-0.2,0.1c0.1,0,0.1,0,0.1,0c-0.3,0.1,0,0,0,0c-0.1,0.1-0.2,0.1-0.2,0.2h0.3
	c0,0,0,0.1,0.2,0.1s0.1,0,0.1,0c0,0-0.2,0.2-0.2,0.2c0.1,0,0.5-0.1,0.4,0.1c0.3,0.1,0.2-0.1,0.3,0.1c0.1,0,0.4,0,0.2-0.2
	c0.1,0,0.6-0.1,0.5,0.1c-0.1,0-0.2,0.2-0.4,0.2c-0.1,0-0.2,0-0.3,0c0,0-0.2,0-0.2,0c0-0.1-0.4-0.1-0.2,0.1c-0.1,0-0.2,0.1-0.3,0.1
	c-0.2-0.1-0.3-0.1-0.2,0.1c0,0-0.6-0.1-0.3,0.1c-0.1-0.1-0.2,0-0.2,0.1H8c0.1,0.1-0.1,0.1-0.1,0c0,0,0,0,0,0.1
	c-0.3-0.1-0.6,0-0.6,0.3c0.2,0-0.2,0.2,0.3,0.1c-0.1,0,0.1,0.2,0.1,0.1h0.1c-0.2,0,0-0.2,0.1-0.1c0.1-0.1,0.2-0.2,0.2,0
	c0.2,0,0.3,0,0.5-0.1c0,0,0.3-0.2,0.2-0.1c-0.1,0.1,0,0.1,0,0.1s-0.1,0,0,0s-0.1,0-0.1,0l-0.1,0.1c-0.1,0-0.4,0.1-0.5,0v0.1
	c-0.1,0-0.3,0-0.4,0.1c-0.1-0.1-0.2,0.1-0.3,0.1c0.4,0,0,0,0,0.1c0.1,0,0.2-0.1,0.2-0.1C7.6,36.3,7.6,36,7.8,36
	c0.1,0.1-0.2,0.2-0.2,0.3c-0.3,0-0.1,0.2,0.1,0.1c0-0.1,0.1,0,0.2,0l0.1,0l0.2,0l0,0.1c-0.1,0-0.6-0.2-0.4,0c-0.5,0-0.1,0.1,0,0.1
	c0,0-0.2,0.1-0.2,0.1l0,0c-0.1,0-0.3,0-0.1,0.1c-0.1,0-0.5,0.3-0.3,0c0-0.1-0.2-0.1-0.2,0c0-0.2-0.8,0.1-0.2,0.1
	c0.2,0-0.1,0.1-0.1,0.2c0.1,0,0.2,0,0.4,0c0,0,0,0,0.1,0.1c0.2,0.1-0.2,0.1-0.1,0.2l0,0c0,0,0,0,0.1,0.1l-0.1,0.1
	C6.6,37.8,7,37.4,7,37.5c0.1,0,0.2-0.1,0.3,0c0.1-0.1,0-0.1,0.1-0.2c0.1-0.1,0.1,0.1,0,0.1c0.3,0,0.4-0.2,0.6-0.1
	c-0.1,0.1-0.2,0-0.2,0.2c-0.1,0-0.6,0-0.2,0.1c0.2,0,0.1,0.1-0.1,0.1c0-0.1-0.1,0-0.2,0c0-0.1-0.2,0-0.2,0s0,0-0.1,0s0,0.1,0,0.1
	c-0.1,0,0,0.1,0,0.1l-0.1,0c0.1,0-0.3,0-0.3,0.1c-0.1,0-0.1,0.1-0.1,0.1s-0.2,0,0,0s0.1,0.1,0.1,0.1c-0.2-0.1-0.3-0.1-0.4,0.1h0.1
	c0,0.1,0.4,0.1,0.2,0.3c-0.2,0.2,0.3,0.4,0.3,0.2c0,0,0.3-0.1,0.2-0.1c0.1,0,0.1-0.1,0.2-0.1c0-0.1,0-0.1,0-0.1l0-0.1
	c0.3-0.1,0.6-0.1,0.9-0.1c-0.2,0.1-0.7,0.2-0.9,0.4c0.4-0.2,0.7-0.3,1.1-0.4c-0.1,0.1-0.3,0.1-0.2,0.2c-0.3,0.1,0.1,0.2,0.1,0.1
	c0.1,0,0.2,0,0.1-0.1c0.1,0.1,0.2,0,0.1-0.1c0.1-0.1,0.6-0.2,0.5-0.2l0.2,0c0,0,0,0.1,0.1,0.1c0.1,0,0.1-0.1,0.1-0.1
	c0.2,0,0.7-0.3,0.8-0.3l0,0c-0.2,0.1-0.3,0.2,0,0.1c0.2,0.1,1.3-0.3,0.8,0c-0.2,0.2,0.4,0.3,0.1,0.3c0-0.1-0.2,0-0.2-0.1
	c0-0.1-0.1,0-0.1,0c-0.1,0-0.2,0.1-0.1,0.1c0,0-0.8,0.1-0.3,0.1c0.1,0,0,0.1,0,0.1c-0.1,0.4,1.1-0.6,1,0l-0.1,0.1c0,0-0.1,0-0.1,0
	c0,0,0,0,0,0c-0.1,0-0.1,0-0.1,0.1c0,0,0,0,0,0c0,0-0.1,0-0.1,0c0,0-0.2,0-0.1,0.1c-0.1,0,0,0.1,0,0.1L10.5,39
	c0.1,0.1,0.3,0.2,0.4,0.1c0.1,0.1,0.3,0,0.4,0c0.3,0.2-0.2,0.2-0.2,0.2c-0.1,0.1,0,0.1,0,0.1c0,0.1,0.1,0,0.1,0c0.2,0,0.1,0,0.4-0.1
	c0.2-0.1,0.1,0,0.1,0l0.1,0.1c-0.1,0-0.1,0.1-0.2,0.2c-0.1,0,0.1-0.2,0-0.2c-0.2,0.1-0.2,0.4-0.4,0.4c0-0.1-0.1-0.2-0.1-0.2
	c0,0,0,0,0,0.1s0.1,0,0.1,0c-0.1,0.2,0,0.2,0.1,0.1l0,0.1c-0.1,0-0.2,0-0.2,0.1c0,0.1,0.1,0,0,0.1s-0.1,0-0.1,0
	c-0.1,0.1-0.2,0-0.3,0c-0.1,0.1,0-0.1,0-0.1S10.6,40,10.6,40c0-0.1-0.1-0.2-0.2-0.1l0-0.1c-0.3,0-0.3,0.5-0.1,0.2c0,0.1,0.2,0,0.3,0
	c-0.2,0.3,0.1,0.1,0.1,0.2c-0.1,0.1-0.2,0.3,0,0.3c0.1,0,0.1-0.1,0.1-0.1c0.1-0.1,0.3,0,0.4,0c0.1,0.1,0.2,0,0.2-0.1l0.2-0.1
	c0.3,0.1,0.2-0.1,0.5,0c0,0.1-0.2,0.3-0.2,0.4c0.1,0,0.4-0.2,0.4-0.3c0.2,0,0.3-0.3,0.3-0.4c0.3-0.4-0.2,0-0.1-0.3l0.1-0.1
	c0.3,0,0.3,0.3,0.3,0.5c0,0,0.2,0,0.1-0.1c0.1,0,0.2-0.2,0-0.2c-0.1,0-0.2-0.3-0.3-0.3c-0.2,0,0-0.3,0-0.3l0.2,0.1
	c0-0.1,0.1-0.2,0.1-0.3c0.1-0.1,0.1,0,0.1,0c-0.1,0.1-0.1,0.5-0.1,0.5c0,0.1,0.3-0.1,0,0.1c-0.1,0.1,0.2,0.1,0.2,0.1
	c0,0,0,0.1,0,0.1c0.1,0,0,0.1,0.2,0c0.1-0.1,0-0.3,0.1-0.3c0,0.1,0.2,0,0.1-0.1c0,0,0.1-0.1,0.1-0.1l0,0.1l0.3-0.4c0,0,0,0,0,0
	c-0.2,0.4-0.1,0.4,0.1,0.1l0,0c0.4-0.1-0.6,0.5,0.2,0.1c0.1-0.2,0.2-0.3,0.2-0.5c0.1-0.1,0.3-0.1,0.3-0.2c0.1,0.2,0.3,0,0.3-0.1
	c0.1,0.2-0.2,0.2-0.2,0.3c-0.1,0-0.2,0.1-0.2,0.1c0,0,0.1,0.2,0.1,0.1c0,0-0.2,0.2,0,0.2c0,0.1-0.3,0.3-0.4,0.3c0-0.1-0.1-0.2-0.1,0
	c-0.1,0-0.2,0.1-0.1,0.2c0,0-0.3-0.1-0.4,0c0,0.2,0.4,0.1,0.6,0.1c0,0,0.1,0,0.1,0c-0.2,0.1-0.1,0.3,0,0.2c0,0-0.1,0.1,0,0.1h0
	c0,0.1,0.1,0.2,0.1,0.1c0,0,0.2,0,0.1-0.1l0,0c0,0,0.1,0,0.1,0c0,0.1,0.2,0.1,0.1-0.1l0.3-0.2c0.1,0,0.2-0.1,0.3,0
	c0,0,0.1,0.1,0.1,0.1c-0.1,0.2,0.2,0.1,0.3,0.2c0,0,0,0-0.1,0c0,0-0.1,0-0.1,0c0.1-0.1-0.2-0.1-0.2,0c-0.1,0-0.1,0-0.1,0.1
	c0,0-0.1,0.1-0.1,0.1c0,0-0.2,0-0.1,0c-0.1,0-0.1,0-0.1,0l-0.1,0c-0.1-0.1-0.3,0.1-0.3,0.1c-0.1,0-0.3,0-0.4-0.1c0,0-0.2,0-0.2,0
	l-0.1,0c-0.2,0.2-0.5,0-0.7,0c-0.1,0.2-0.1,0-0.2,0c-0.1,0-0.1,0.3-0.1,0.3c-0.1,0.1-0.4,0.2-0.5,0.3h0.2L12.3,41H12
	c0.1,0.1,0,0.1,0.1,0.2c0.1,0.1-0.1,0.1-0.1,0.2l0.1,0.1c0.1,0,0.2,0,0.4,0c-0.1,0.1,0.2,0.1,0.2,0.1c0,0,0.2,0.1,0.2,0
	c0.2,0,0.4,0.1,0.5,0l0.2,0.1c-0.1,0-0.3,0-0.4,0c-0.1-0.1-0.2,0-0.2,0c-0.3-0.1-0.4,0.2-0.1,0.2c0.1,0.2,0.2,0.2,0.4,0.1
	c-0.1,0.2,0.2,0.1,0.3,0.1c-0.2,0.1,0.1,0.1,0.1,0.1c0.1,0.1,0.3,0,0.4-0.1c-0.2,0,0-0.2,0.1-0.1c0,0,0,0,0,0c0.1-0.1,0.1,0,0.1,0
	c0,0,0.1,0,0.1,0.1l0.1-0.1c0.1,0.1,0.2,0,0.1-0.1c0.2,0.1,0.1-0.1,0.3-0.2c0.1-0.1,0.6-0.2,0.3,0.1c0.1,0,0.1,0,0.2,0
	c0.1,0-0.1,0,0,0c0.3,0-0.3,0.1,0.2,0.2c0,0.1-0.1,0.2,0.1,0.2l-0.1,0.1c0.1,0,0.1,0.1,0.1,0.1l0.1,0.1c0.1,0,0.4,0,0.3-0.2
	c0.4,0.1,0.6,0.1,0.2-0.2l0,0c0.2,0,0.3,0,0.5,0.1c0.1,0,0.1,0,0.1-0.1v-0.2c0.1,0,0.2,0.1,0.4,0.1c0,0.2-0.1,0.3,0.1,0.3
	c0.1,0.2,0.3,0.2,0.4,0c0,0.2,0.2,0.1,0.4,0.1c-0.2,0.1,0.1,0.1,0.1,0.1c0.1,0,0.3,0,0.4-0.1c1.7,3.6,2.4,12.3,0.6,14.6L19.4,58.2z
	 M30.8,40.9C30.8,40.9,30.8,40.9,30.8,40.9C30.8,40.9,30.8,40.9,30.8,40.9z M37.4,35.6c0.1,0,0.1,0,0.2,0
	C37.4,35.6,37.4,35.6,37.4,35.6z M37.8,35.6L37.8,35.6c0.1-0.1,0.2-0.1,0.3-0.1c0,0,0,0-0.1,0s0,0,0,0h0.1L37.8,35.6z M22.6,41.6
	c-0.1,0.1-0.1-0.1-0.2,0c0.2-0.2,0.4-0.3,0.6-0.5C22.9,41.3,22.9,41.5,22.6,41.6L22.6,41.6z M15.3,39.3
	C15.3,39.3,15.3,39.3,15.3,39.3L15.3,39.3C15.2,39.3,15.3,39.3,15.3,39.3L15.3,39.3z M10.5,33C10.5,33,10.6,33.1,10.5,33L10.5,33
	L10.5,33z M10.5,33.2c0.1,0,0.3-0.1,0.2,0.1C10.6,33.3,10.5,33.3,10.5,33.2L10.5,33.2z M11.6,38.8L11.6,38.8
	C11.6,38.8,11.6,38.8,11.6,38.8z M14.7,39.9L14.7,39.9L14.7,39.9L14.7,39.9L14.7,39.9z M22.1,42.1L22.1,42.1L22.1,42.1
	C22.1,42,22.2,42,22.1,42.1c0.1,0,0.2-0.1,0.2-0.1c0,0,0,0.1,0,0.1C22.2,42.1,22.1,42.1,22.1,42.1L22.1,42.1L22.1,42.1L22.1,42.1z
	 M25.5,42L25.5,42L25.5,42L25.5,42z M23.2,23.9l0.1-0.1c0,0.1,0.1,0.1,0.1,0.2C23.3,24,23,24.2,23.2,23.9L23.2,23.9z M23.2,24.3
	c0.1,0,0.1,0.1-0.1,0.1C23.1,24.4,23,24.3,23.2,24.3z M11,28.4c0.1,0,0.5,0,0.2,0.2C11.1,28.5,10.9,28.6,11,28.4L11,28.4z
	 M10.7,27.8c0.2,0,0.1,0.1,0.1,0.1C10.7,27.8,10.4,27.9,10.7,27.8z M10.6,28.5c0.1,0,0.2,0,0.3,0c0,0.2-0.3,0.1-0.5,0.1
	C10.4,28.6,10.4,28.6,10.6,28.5z M10.5,32.7C10.6,32.7,10.6,32.7,10.5,32.7C10.5,32.7,10.5,32.7,10.5,32.7c0,0.1,0,0-0.1,0
	C10.4,32.7,10.4,32.7,10.5,32.7z M10.3,32.9L10.3,32.9C10.4,32.9,10.4,33,10.3,32.9C10.4,33,10.4,33,10.3,32.9L10.3,32.9
	C10.3,32.9,10.2,33,10.3,32.9L10.3,32.9z M9.8,36.1c-0.2,0.2-0.5,0-0.7,0.2c0,0.1-0.1,0.3-0.3,0.2l0,0.1c-0.2-0.1-1.2,0-0.5,0.1
	c-0.1,0-0.5,0-0.4,0.1c-0.2,0-0.3-0.1-0.1-0.1c0.1-0.2,0.4-0.3,0.6-0.4l0,0c0.2,0,0.1-0.1,0.1-0.1l0.2,0c0.3-0.2,0.6-0.4,1-0.3
	c0.1-0.3,0.5-0.2,0.7-0.3c-0.1,0.1-0.2,0.1-0.2,0.2l-0.2,0l0,0.1L9.9,36C9.8,36,9.8,36,9.8,36.1L9.8,36.1z M11.4,38.9L11.4,38.9
	C11.4,38.9,11.4,38.9,11.4,38.9L11.4,38.9z M11.9,38.8c-0.2,0.3-0.1,0.2-0.1-0.1C11.9,38.7,11.9,38.7,11.9,38.8
	C11.9,38.7,11.9,38.7,11.9,38.8C12,38.7,12,38.8,11.9,38.8L11.9,38.8z M13.4,39.4C13.4,39.4,13.4,39.4,13.4,39.4
	c0-0.2-0.2,0.2-0.3,0.1c0-0.1,0.1-0.1,0.2-0.2c0.1,0,0.1,0,0.2,0c0,0,0,0,0,0.1l0,0L13.4,39.4L13.4,39.4z M16,39.9
	c0,0-0.2,0-0.2,0.1l0-0.1c0,0-0.1,0,0-0.1h0c0,0,0,0,0,0c0,0,0,0,0.1,0C16,39.9,16,39.9,16,39.9C16.2,39.9,16,39.9,16,39.9z
	 M20.3,42c0,0,0.1-0.1,0.1-0.1c0,0,0.7-0.2,0.4,0c-0.1,0,0,0.1,0,0.1c0.3-0.1,0.3,0.3,0.5,0.3l-0.1,0.1c0.1,0,0.1,0.1,0.1,0.1
	l0.1,0.1c0.1,0,0.3-0.1,0.3-0.2c0,0,0.5,0,0.5,0c0,0,0,0,0,0c0.1,0,0.1-0.1,0.1-0.1c0,0,0.1,0,0.1,0c0.1,0.1,0.3,0,0.3,0l0,0
	c-0.7,2.3-0.4,5.3,0,6.6C21.9,48.8,21.2,44.4,20.3,42z M24.1,42.7L24.1,42.7C24.1,42.7,24.2,42.7,24.1,42.7c0.1,0,0.3-0.1,0.3-0.2
	c0.2-0.2-0.2-0.1,0-0.3c0.1,0,0.2-0.2,0.2-0.1c0,0.1,0.1,0,0.2,0.1c0,0.1,0.2,0,0,0.2c0,0-0.1-0.1-0.1,0c-0.1,0,0,0.2,0.1,0.1
	c0.1,0.1,0.3,0,0.3-0.1c0.1,0,0.1-0.1,0.1-0.1l0.1,0l0.2-0.2c0,0,0.2,0,0.1,0.1c-0.8,0.9-1.3,1.8-1.8,2.9
	C23.8,44.3,23.9,43.5,24.1,42.7L24.1,42.7z"/>
  <path d="M42.986,55.892c-2.784,0-5.045-2.261-5.045-5.045s2.261-5.045,5.045-5.045l0,0  c2.763,0,5.003,2.219,5.003,4.982c0,0.021,0,0.021,0,0.042C48.01,53.694,45.854,55.892,42.986,55.892z M42.986,47.895  c-1.591,0-2.784,1.444-2.784,2.973c0,1.591,1.13,2.952,2.784,2.952c1.591,0,2.742-1.382,2.742-2.931  C45.75,49.382,44.598,47.895,42.986,47.895z" fill="#303232"/>
  <path d="M49.099,55.557V42.955h2.261v12.602H49.099z" fill="#303232"/>
  <path d="M53.014,45.027v-2.072h2.261v2.072H53.014z M53.014,55.557v-9.441h2.261v9.441H53.014z" fill="#303232"/>
  <path d="M61.722,55.557h-1.779l-3.81-9.462h2.449l2.282,6.259h0.063l2.135-6.259h2.491L61.722,55.557z" fill="#303232"/>
  <path d="M66.37,45.027v-2.072h2.261v2.072H66.37z M66.37,55.557v-9.441h2.261v9.441H66.37z" fill="#303232"/>
  <path d="M79.872,51.831h-7.327c0.063,0.251,0.167,0.481,0.314,0.691c0.502,0.775,1.382,1.256,2.303,1.256  c0.921,0,1.717-0.377,2.177-1.214h2.387c-0.607,1.926-2.554,3.287-4.564,3.287c-2.721,0.042-4.961-2.135-4.982-4.857  c0-0.042,0-0.105,0-0.147c0-2.826,2.114-5.066,4.961-5.066c2.68-0.021,4.857,2.135,4.878,4.815c0,0.042,0,0.063,0,0.105  C80.019,51.077,79.956,51.454,79.872,51.831z M75.141,47.854c-1.382,0-2.345,0.816-2.68,2.156h5.234  C77.465,48.649,76.523,47.854,75.141,47.854L75.141,47.854z" fill="#303232"/>
  <path d="M83.536,50.24v5.317h-2.261v-9.441h2.072v0.837h0.042c0.628-0.921,1.089-1.151,2.219-1.151V48  C84.122,48.021,83.536,48.858,83.536,50.24z" fill="#303232"/>
  <path d="M29.505,55.557V42.913h2.407v10.593h4.543v2.031h-6.95V55.557z" fill="#303232"/>
  <path d="M35.994,47.142l1.465-4.145h1.779l-1.863,4.145C37.376,47.142,35.994,47.142,35.994,47.142z" fill="#303232"/>
  <path d="M34.005,66.213c-0.481,0-0.733-0.272-0.775-0.565c-0.042-0.314-0.084-0.607-0.167-0.921h-2.303  c-0.126,0.481-0.209,0.984-0.293,1.465h-0.44c-0.377,0-0.523-0.209-0.523-0.565c0-0.837,1.068-4.229,1.968-5.213h0.481  c0.377,0,0.754,0.188,0.942,0.523c0.523,0.942,1.382,3.412,1.612,5.234L34.005,66.213z M31.912,61.503  c-0.398,0.733-0.691,1.507-0.9,2.324h1.779C32.624,63.01,32.31,62.235,31.912,61.503L31.912,61.503z" fill="#303232"/>
  <path d="M38.109,66.297c-1.151,0-1.758-0.461-1.758-1.13v-0.523h0.021c0.44,0.398,1.005,0.628,1.612,0.628  c0.858,0,1.151-0.293,1.151-0.754c0-0.398-0.147-0.565-1.382-0.837c-0.984-0.209-1.528-0.691-1.528-1.486  c0-0.963,0.816-1.863,2.156-1.863s1.738,0.565,1.738,1.047V61.9h-0.042c-0.398-0.398-0.942-0.607-1.507-0.565  c-0.9,0-1.214,0.293-1.214,0.733c0,0.335,0.272,0.565,1.34,0.796c1.068,0.23,1.57,0.775,1.57,1.549  C40.265,65.564,39.49,66.297,38.109,66.297z" fill="#303232"/>
  <path d="M44.179,66.297c-1.151,0-1.758-0.461-1.758-1.13v-0.523h0.021c0.44,0.398,1.005,0.628,1.612,0.628  c0.858,0,1.151-0.293,1.151-0.754c0-0.398-0.147-0.565-1.361-0.837c-0.984-0.209-1.528-0.691-1.528-1.486  c0-0.963,0.816-1.863,2.156-1.863c1.34,0,1.738,0.565,1.738,1.047V61.9h-0.042c-0.398-0.398-0.942-0.607-1.507-0.565  c-0.9,0-1.214,0.293-1.214,0.733c0,0.335,0.272,0.565,1.34,0.796c1.068,0.23,1.57,0.775,1.57,1.549  C46.357,65.564,45.582,66.297,44.179,66.297z" fill="#303232"/>
  <path d="M50.732,66.297c-1.403,0-2.303-0.942-2.303-2.596v-3.266h0.44c0.356,0,0.712,0.272,0.712,1.068v2.135  c0,1.068,0.356,1.591,1.256,1.591c0.816,0,1.151-0.544,1.151-1.549v-3.245h0.44c0.44,0,0.733,0.314,0.733,1.026v2.135  C53.16,65.292,52.386,66.297,50.732,66.297z" fill="#303232"/>
  <path d="M59.21,66.255c-0.356,0.021-0.691-0.188-0.837-0.523l-0.419-1.047  c-0.272-0.628-0.502-0.67-0.816-0.733c-0.188-0.042-0.377-0.063-0.565-0.084v2.324h-0.377c-0.398,0.042-0.754-0.251-0.775-0.649  c0-0.042,0-0.084,0-0.126v-4.836c0.481-0.126,0.984-0.188,1.486-0.209h0.649c1.151,0,1.884,0.691,1.884,1.654  c0,0.775-0.523,1.424-1.193,1.528c0.335,0.167,0.586,0.461,0.712,0.816l0.461,1.068c0.084,0.209,0.209,0.419,0.356,0.607  C59.629,66.213,59.524,66.255,59.21,66.255z M57.075,61.377c-0.167,0-0.335,0.021-0.523,0.063v1.528  c0.272,0.042,0.544,0.063,0.816,0.042c0.481,0,0.858-0.272,0.858-0.775c0-0.691-0.356-0.858-0.858-0.858H57.075z" fill="#303232"/>
  <path d="M65.888,66.213c-0.481,0-0.733-0.272-0.775-0.565c-0.042-0.314-0.084-0.607-0.167-0.921h-2.303  c-0.126,0.481-0.209,0.984-0.293,1.465h-0.44c-0.377,0-0.523-0.209-0.523-0.565c0-0.837,1.068-4.229,1.968-5.213h0.481  c0.377,0,0.754,0.188,0.942,0.523c0.523,0.942,1.382,3.412,1.612,5.234L65.888,66.213z M63.795,61.503  c-0.398,0.733-0.691,1.507-0.9,2.324h1.779C64.486,63.01,64.193,62.235,63.795,61.503L63.795,61.503z" fill="#303232"/>
  <path d="M72.504,66.213c-0.44,0-0.942-0.126-1.654-1.528l-1.047-2.052c-0.105-0.23-0.23-0.461-0.398-0.67  v4.25h-0.461c-0.398,0-0.712-0.314-0.691-0.712c0-0.021,0-0.021,0-0.042v-5.003h0.565c0.754,0,1.256,0.398,1.633,1.172l1.005,2.031  c0.126,0.23,0.251,0.586,0.335,0.775v-3.978h0.523c0.356,0.021,0.628,0.314,0.628,0.67v5.108L72.504,66.213z" fill="#303232"/>
  <path d="M79.663,61.984c-0.356-0.481-1.089-0.628-1.591-0.628c-1.026,0-1.8,0.733-1.8,1.863  c0,1.361,0.754,2.031,1.842,2.031c0.565,0,1.214-0.23,1.528-0.544h0.042v0.419c0,0.796-0.921,1.13-1.717,1.13  c-1.549,0.021-2.826-1.193-2.847-2.742c0-0.042,0-0.084,0-0.126c0-1.779,1.193-3.035,2.952-3.035c0.942,0,1.633,0.398,1.633,1.172  v0.44L79.663,61.984z" fill="#303232"/>
  <path d="M85.587,65.522c0,0.461-0.251,0.712-1.256,0.712h-0.607c-1.403,0-2.156-0.775-2.156-2.24v-1.068  c0-0.544,0.042-1.089,0.105-1.633c0.084-0.691,0.419-0.858,0.879-0.858h3.015v0.398c0,0.398-0.251,0.607-0.775,0.607h-1.989  c-0.063,0.44-0.084,0.9-0.084,1.34h2.219v0.419c0,0.377-0.23,0.523-0.691,0.523h-1.528v0.335c0,1.005,0.335,1.193,1.214,1.193h0.377  c0.419,0,0.837-0.042,1.256-0.126L85.587,65.522z" fill="#303232"/>
</svg>
