<?xml version="1.0" encoding="UTF-8"?>
<!-- Generator: Adobe Illustrator 27.5.0, SVG Export Plug-In . SVG Version: 6.00 Build 0) -->
<svg version="1.2" baseProfile="tiny-ps" id="Layer_1" xmlns="http://www.w3.org/2000/svg" xmlns:xlink="http://www.w3.org/1999/xlink" viewBox="0 0 1024 1024" xml:space="preserve">
    <title>Wells Fargo</title>
    <g>
        <rect id="Red_box_25_" x="-0.33" y="-0.24" fill="#D71E28" width="1024" height="1024" />
        <rect id="Yellow_25_" x="-0.33" y="895.76" fill="#FFCD41" width="1024" height="128" />
        <path id="WF_18_" fill="#FFFFFF" d="M658.87,359.53v240.45h-38.86v39.77h152.68v-39.77h-45.71v-93.26h94.17
		c3.66-7.77,5.03-13.72,5.03-22.85c0-8.68-1.37-14.18-5.03-21.94h-94.17v-102.4h81.37c30.63,0,41.14,13.26,51.2,51.65l3.2,12.35
		h32.91V319.76H497.77v39.77h44.8L490,552.9l-65.37-233.14H358.8l-64,232.69l-53.49-192.91h42.97v-39.77H135.26v39.77h36.57
		l80.46,280.23h63.54l66.74-232.23l64.91,232.23h63.54l80-280.23H658.87z" />
    </g>
</svg>
