<?xml version="1.0" encoding="utf-8"?>
<!-- Generator: Adobe Illustrator 24.1.3, SVG Export Plug-In . SVG Version: 6.00 Build 0)  -->
<svg version="1.2" baseProfile="tiny-ps" id="Vrstva_1"
	 xmlns="http://www.w3.org/2000/svg" xmlns:xlink="http://www.w3.org/1999/xlink" viewBox="0 0 1366 1366"
	  xml:space="preserve">
	  <title>Logo ZONER a.s.</title>
	<path fill="#FBBE00" d="M205.2,540.7c73-5,129.4-4.8,185.1,0.9l-93-98.5L205.2,540.7L205.2,540.7z M188.1,558.8
		c64.9-7.2,137.8-6.3,189.8-4.8c25.4,0.6,25.4,9.5,6.6,24.9c-18.9,15.3-165,107-201.6,153.9c-16.3,15.1-25.1,28.5-27.9,40
		l-84.4-89.5L188.1,558.8L188.1,558.8z M427.3,580.9c-48.8,42.9-143.3,119.2-155,137.3c-16.4,25.5-38.5,82.7,27.6,82.7h112.9
		l111.1-117.7L427.3,580.9L427.3,580.9z M395.1,819.7H228c-11.4,0-22-1-31.3-2.9l100.6,106.5L395.1,819.7L395.1,819.7z"/>
	<polygon fill="#004981" points="585.3,800.7 585.3,756.2 657.8,607.7 590.1,607.7 590.1,553.7 728.3,553.7 728.3,601.5 
		654.5,748.3 728,748.3 728,800.7 	"/>
	<path fill="#004981" d="M732,708l0.3-14c0.6-30.4,5.7-51.7,15.3-63.8c10.9-13.9,30.2-20.9,58.2-20.9c27.7,0,47.2,7,58.5,20.9
		c10.1,12.8,15.3,34.1,15.3,63.8v27.7c0,29.9-5.2,51.2-15.6,64c-11.3,13.7-30.9,20.5-58.8,20.5c-28,0-47.3-6.9-57.8-20.8
		c-9.4-12.1-14.4-33.3-15-63.7L732,708L732,708z M790.2,718l0.3,15.1l0.3,7.6c0.2,5.8,0.7,10,1.4,12.8c2.1,9.8,6.6,14.7,13.5,14.7
		c7.5,0,12.1-6,13.9-18.1c0.2-1.6,0.4-4.8,0.7-9.4l1-22.6v-20l-1-22.6c-0.9-18.1-5.7-27.2-14.5-27.2c-9.1,0-14,9.1-14.9,27.2
		l-0.3,7.6l-0.3,15.1V718H790.2z"/>
	<path fill="#004981" d="M886.6,800.7v-185h56.1V634l3.9-5.5c7.4-10.6,19.1-16.7,35.3-18.4h7.8c15.6,0,26.8,5.1,33.8,15.1
		c5.6,8.4,8.4,21.3,8.4,38.5v137h-58.4V675.5c0-13-4.2-19.6-12.5-19.6c-9.6,0-14.8,5.7-15.6,16.9l-0.3,3.8v124.2h-58.5V800.7z"/>
	<path fill="#004981" d="M1181.9,692.6v24.8h-85.8v20.2l0.3,9.6c0.3,13,5.6,19.5,15.5,19.5c9.3,0,14.4-7.8,15.3-23.5l0.3-5.9v-1.7
		h54.3c0,46-23.4,69-70.2,69c-29.5,0-50-9.3-61.4-28.1c-8.9-14.7-13.4-38.7-13.4-71.9c0-22.5,3.1-41.6,9.5-57.5
		c8.4-21.3,21.7-33.1,39.7-35.4c12.5-1.5,22.3-2.3,29.5-2.3c42.9,0,64.9,23.2,66,69.8L1181.9,692.6L1181.9,692.6z M1095.7,684h32.1
		v-5.5c0-18.3-3-28.3-9.1-30.2c-2.4-0.6-4.7-1-7.1-1c-10.6,0-15.9,10.5-15.9,31.5V684L1095.7,684z"/>
	<path fill="#004981" d="M1188.5,800.7v-185h56.1V641l2.6-4.8c9.3-17.3,22.3-26.1,38.8-26.1c0.7,0,1.3,0,2,0h8.1v59l-7.5-1
		c-13.5,0-23.2,1.7-29.1,5.1c-8.4,4.8-12.7,13.6-12.7,26.4v101.1H1188.5L1188.5,800.7z"/>

</svg>
