<?xml version="1.0" encoding="utf-8"?>
<!-- Generator: Adobe Illustrator 27.7.0, SVG Export Plug-In . SVG Version: 6.00 Build 0)  -->
<svg version="1.2" baseProfile="tiny-ps" id="Layer_1" xmlns="http://www.w3.org/2000/svg" xmlns:xlink="http://www.w3.org/1999/xlink"
	 viewBox="0 0 1000 1000" xml:space="preserve">
<title>Document360</title>
<rect fill="#FFFFFF" width="1000" height="1000"/>
<g>
	<path fill="#8005D2" d="M926.1,328.3c0,68.7-58.3,126.2-127.9,126.2c-70.9,0-128.3-57.5-128.4-128.6
		c-0.1-70.3,57.6-127.3,129-127.3C869.8,198.5,926.1,255.9,926.1,328.3z"/>
	<path fill="#8005D2" d="M129.5,583c16.2-76.4,32.3-152.8,48.5-229.2c17.1-80.6,34.2-161.2,51.3-241.8c1.6-7.3,3-14.7,4.5-22.1
		c1.5-7,2-7.4,9.1-7.4c105.7,0,211.3,0.4,317-0.2c34.3-0.2,68.3,1.7,102,8c37.3,7,73,18.7,106.7,36.2c1.1,0.6,2.2,1.2,3.2,1.8
		c0.4,0.2,0.7,0.6,1.7,1.5c-11.6,1.8-22.4,3.7-32.9,7.1c-64.5,20.7-108.2,62.9-130.8,126.8c-1.4,3.9-2.6,7.9-3.7,11.8
		c-0.9,3.2-2.6,4.6-6.1,3.7c-21.2-5.9-42.9-6.6-64.7-6.6c-38,0.1-76.1,0-114.1,0c-6.7,0-7.1,0.4-8.5,6.9
		c-14.9,68.4-29.9,136.8-44.8,205.2c-15.5,71.1-30.9,142.2-46.3,213.3c-1.5,6.9-3.1,13.7-4.5,20.6c-0.7,3.7-1.8,4.4-5.2,2
		c-32.4-23-64.8-45.9-97.3-68.8c-26.7-18.8-53.4-37.6-80.1-56.4C128.9,591.5,128.1,589.6,129.5,583z"/>
	<path fill="#8005D2" d="M932.5,478.8c-6.9,75.3-26.7,146.6-64.3,212.6c-29.3,51.4-66.8,95.6-114.3,131.1
		c-41.2,30.8-86.8,52.8-135.7,68.3c-37.4,11.8-75.7,18.9-114.7,23.2c-41.6,4.5-83.2,3.9-124.9,3.7c-2,0-4,0-6,0
		c-99.7,0-199.4,0-299.1,0c-1.9,0-3.9,0.4-6.2-0.6c1.1-2.3,3.3-3.3,5-4.5c40.1-29.6,80.2-59.2,120.3-88.7
		C235.8,791.9,279,760,322,728.1c5.1-3.8,10.3-5.5,16.6-5.5c41.1,0.1,82.2-0.2,123.3,0.2c18.9,0.2,37.7,0.4,56.3-2.9
		c39.3-7,73.3-24.7,102.9-51c36.8-32.7,58.5-74.7,72-121.3c4.1-14,6.9-28.3,9.3-42.6c0.6-3.8,1.4-5,5.7-2.9
		c32.3,15.9,66.5,23.1,102.5,20.3c44.9-3.5,84.7-19.9,118.6-50c0.6-0.5,1.1-1.1,1.7-1.5c0.2-0.2,0.6-0.1,1.2-0.2
		C932.8,473.4,932.7,476.1,932.5,478.8z"/>
</g>
</svg>
