<?xml version="1.0" encoding="UTF-8"?>
<svg xmlns="http://www.w3.org/2000/svg" baseProfile="tiny-ps" version="1.2" viewBox="0 0 79.4 79.4">
<title>Enerdata</title>
  <!-- Generator: Adobe Illustrator 28.7.0, SVG Export Plug-In . SVG Version: 1.2.0 Build 136)  -->
  <g>
    <g id="Calque_1">
      <g>
        <path d="M20.7,58c-13.1-1.9-20.1-15.1-14.4-26.7,7.5-15.2,30.1-12.7,34.4,3.8,3.2,12.3-7.7,24.8-20,22.9h0ZM31.7,44.2c.7-.2.7-.2.8-.8,0-.5,0-.6-.2-.5-2.8,1.1-5.1.1-5.1-2.1v-.5h5.8v-1c-.6-5.3-7.1-4.6-7,.8,0,3.4,2.4,5.1,5.8,4h0ZM27.2,39.1c0-.2.1-.5.2-.8,1-2.2,4-1.6,4,.7v.5h-2.1c-2.1,0-2.1,0-2.1-.3ZM13.7,43.7v-.6h-4.9v-4h4.7v-1.2h-4.7v-3.6h4.9v-1.1h-6.1v11.1h6.1v-.6ZM17.6,41.5c0-3.7.4-4.3,2-4.6,2.1-.3,2.5.6,2.5,5.2v2.2s1.2,0,1.2,0v-3c0-4-.2-4.6-1.5-5.2-1.3-.6-3.6-.2-4,.8-.2.3-.4,0-.4-.5,0-.3,0-.4-.5-.4h-.5v8.3h1.2v-2.8ZM36.7,41.8c0-3.8.7-5,2.7-4.8.6,0,.7,0,.7-.8,0-.8-1.9-.5-2.9.6l-.7.7v-.5c0-.8,0-1-.6-1h-.5s0,8.3,0,8.3h1.3s0-2.5,0-2.5ZM44.4,44.2c-2.6-1.2-2.6-6.8,0-8.1,1.1-.5,2.9-.3,3.7.5l.4.4v-4.6h1.3c0,0,0,11.9,0,11.9h-.6c-.6,0-.6,0-.6-.6v-.5c0,0-.4.4-.4.4-.8.9-2.6,1.1-3.8.6h0ZM47.4,43.1c1.4-.9,1.5-4.7,0-5.8-1.5-1.1-3.4,0-3.7,2.1-.3,2.5.5,4,2.3,4s.9,0,1.3-.3h0ZM53.5,44.2c-.9-.5-1.3-1.1-1.3-2.1,0-1.8,1.2-2.6,4-2.7,1.7,0,1.7,0,1.4-1.3-.3-1.1-1.6-1.5-3.2-.9-.9.3-.9.3-.9,0,0-.1-.1-.3-.2-.5-.2-.6,2.6-1.2,4-.8,1.4.4,1.7,1.1,1.7,5.2v3.1s-.5,0-.5,0c-.4,0-.5,0-.6-.5v-.5c-.1,0-.6.4-.6.4-.9.8-2.7,1.1-3.7.6h0ZM56.5,43.1c.7-.3,1-1.1,1-2.1v-.8h-1.3c-2,.2-2.7.7-2.7,1.8s1.5,1.8,3,1h0ZM63,44.2c-.9-.5-1.1-1-1.1-4.3v-2.9h-.6c-.9,0-.9-.5,0-.9.5-.3.6-.4.8-1.1.2-.7.3-.8.6-.9h.4s0,2,0,2h2.4v.9h-2.4v2.6c0,3.5.2,4,1.8,3.8h.7c0,0,0,.4,0,.4,0,.4,0,.5-.3.5-.6.2-1.9,0-2.4-.1h0ZM68.4,44.2c-.6-.3-1.1-.9-1.3-1.6-.5-2.1,1.1-3.3,4.4-3.3h1v-.6c0-1.7-1.3-2.2-3.3-1.5-.4.1-.8.3-.8.2-.5-.7-.4-1,.6-1.3,3.8-1.2,4.9,0,4.9,5.3v2.9h-.5c-.5,0-.5,0-.6-.5-.1-.6,0-.6-.7,0-.8.7-2.6,1-3.6.5h0ZM71.3,43.2c.8-.4,1.2-1.2,1.2-2.2v-.7h-1.3c-2,.2-2.7.6-2.7,1.8s1.5,1.9,2.8,1.1h0Z" fill="#fdfcfb"/>
        <path d="M20.8,58c0,0,.2,0,.3,0s0,0-.2,0c-.2,0-.2,0,0,0ZM24.8,58c0,0,.2,0,.3,0,0,0,0,0-.2,0-.2,0-.2,0,0,0ZM10.5,53.5l-.3-.3.3.3c.3.2.4.3.3.3s-.2-.1-.3-.3ZM35.9,52.7c.2-.3.5-.5.5-.5s-.1.2-.4.5-.5.5-.5.5.1-.2.4-.5ZM8.8,51.8l-.3-.3.3.3c.3.2.4.3.3.3s-.2-.1-.3-.3ZM45.5,44.5c.2,0,.5,0,.7,0,.2,0,0,0-.4,0-.4,0-.5,0-.3,0ZM54.5,44.5c.2,0,.5,0,.7,0,.2,0,0,0-.4,0s-.6,0-.4,0ZM64.1,44.5c.2,0,.4,0,.6,0s0,0-.3,0-.5,0-.3,0h0ZM69.5,44.5c.2,0,.5,0,.7,0,.2,0,0,0-.4,0-.4,0-.5,0-.3,0ZM28.6,44.3c-3.3-.8-3.8-6.7-.6-8.2,2.3-1.1,4.7.4,4.9,3.2v1c0,0-5.7,0-5.7,0v.5c0,2.2,2.4,3.2,5.1,2.1.2,0,.2,0,.2.5,0,.9-2.2,1.4-3.9.9h0ZM31.5,38.9c0-2.3-3-2.8-4-.7-.5,1.2-.5,1.1,1.9,1.1h2.1v-.5ZM48.7,44.3c0,0,.2,0,.4,0,.7,0,.8.1.2.2-.3,0-.6,0-.6,0ZM57.9,44.3s0-.2,0-.2c0,0,0,0,.1,0,0,0,.3.2.6.2h.5c0,0-.5,0-.5,0-.3,0-.5,0-.6,0h0ZM73,44.3c.2,0,.4,0,.6,0s0,0-.3,0-.5,0-.3,0ZM7.5,38.8v-5.5h6.1v1.1h-4.9v3.6h4.7v1.2h-4.7v4h4.9v1.2h-6.1v-5.5ZM16.4,40.2v-4.1h.5c.5,0,.5,0,.5.4,0,.6.2.8.4.5.5-.9,2.7-1.3,4-.8,1.3.6,1.5,1.2,1.5,5.2v3s-1.3,0-1.3,0v-2.2c.1-4.6-.3-5.5-2.4-5.2-1.7.3-2,.9-2,4.6v2.8h-1.2v-4.1ZM35.4,40.2v-4.1h.5c.6,0,.6.1.6,1v.5l.7-.7c1-1,2.9-1.4,2.9-.6,0,.7-.1.8-.7.8-2.1-.2-2.7,1-2.7,4.8v2.5s-1.3,0-1.3,0v-4.1ZM67.6,43.7l-.3-.3.3.3c.2.1.3.3.3.3,0,.1-.1,0-.3-.3ZM43.4,43.5l-.3-.4.4.3c.3.3.4.4.3.4s-.2-.2-.4-.4ZM54.9,43.4c.1,0,.3,0,.4,0,0,0,0,0-.2,0-.2,0-.3,0-.2,0ZM64.4,43.4c.1,0,.3,0,.4,0,0,0,0,0-.2,0-.2,0-.3,0-.2,0ZM69.9,43.4c.1,0,.3,0,.4,0,0,0,0,0-.2,0-.2,0-.3,0-.2,0ZM68.8,43c-.2-.2-.2-.2,0,0,.1.1.2.2.2.2,0,.1-.1,0-.3-.2ZM56.7,42.9s.1-.1.2-.2c.2-.2.2-.2,0,0-.2.2-.3.3-.3.2ZM67,42.5c0-.2,0-.2,0,0,0,0,0,.2,0,.3s0,0,0-.2ZM52.1,42.1c0-.2,0-.3,0-.2,0,.1,0,.3,0,.4s0,0,0-.2ZM61.9,39.6c0-1.5,0-2.1,0-1.4,0,.8,0,2,0,2.7s0,.1,0-1.4ZM63.2,39.6c0-1.5,0-2.1,0-1.4,0,.8,0,2,0,2.7s0,.1,0-1.4ZM41.1,41.9c0-.2,0-.2,0,0,0,0,0,.2,0,.3s0,0,0-.2ZM72.4,41.5c0-.2,0-.2,0,0,0,0,0,.2,0,.3,0,0,0,0,0-.2ZM4.4,41.4c0-.2,0-.2,0,0,0,0,0,.2,0,.3s0,0,0-.2ZM48.3,41.1c0-.2,0-.2,0,0,0,0,0,.2,0,.3s0,0,0-.2ZM41.3,39.6c0-.8,0-1.1,0-.7,0,.4,0,1,0,1.4,0,.4,0,0,0-.7h0ZM42.3,40.2c0-.5,0-.7,0-.4,0,.2,0,.6,0,.9s0,0,0-.4ZM43.7,40.2c0-.2,0-.3,0-.2,0,.1,0,.3,0,.4s0,0,0-.2ZM52.6,40.5s.1-.1.2-.2c.2-.2.2-.2,0,0-.2.2-.3.3-.3.2ZM55.8,40.3c0,0,.2,0,.3,0s0,0-.2,0c-.2,0-.2,0,0,0ZM70.6,40.3c0,0,.2,0,.3,0,0,0,0,0-.2,0-.2,0-.2,0,0,0ZM48.3,39.4c0-.2,0-.3,0-.2s0,.2,0,.3,0,0,0-.2ZM57.3,39.3c.1,0,.2-.2.3-.5,0-.4,0-.4,0,0,0,.4,0,.5-.3.5-.2,0-.2,0,0,0ZM72.2,39.3c0,0,.2,0,.3,0,0,0,0,0-.2,0-.2,0-.2,0,0,0ZM73.7,38c0-.2,0-.3,0-.2,0,0,0,.2,0,.3s0,0,0-.2ZM4.4,37.7c0-.2,0-.3,0-.2,0,0,0,.2,0,.3s0,0,0-.2ZM57.1,37.3l-.3-.3.3.3c.2.1.3.3.3.3,0,.1-.1,0-.3-.3ZM43.4,36.7c.1-.1.3-.3.3-.3s0,.1-.2.3c-.1.1-.3.3-.3.3s0-.1.2-.3ZM60.6,36.6c0-.2,0-.3,0-.2,0,.1,0,.3,0,.4,0,0,0,0,0-.2h0ZM65.6,36.5v-.5h-2.4v-1s0-1,0-1v1.9h2.5v.5c0,.3,0,.5,0,.5s0-.2,0-.5h0ZM48,36.6c-.2-.2-.2-.2,0,0,.2.2.3.3.2.3s-.1-.1-.2-.2ZM58.1,36.5l-.3-.3.3.3c.3.2.4.3.3.3s-.2-.1-.3-.3ZM45.5,35.8c.2,0,.5,0,.7,0,.2,0,0,0-.4,0-.4,0-.5,0-.3,0ZM55.7,35.8c.1,0,.3,0,.5,0s0,0-.2,0-.4,0-.2,0ZM70.7,35.8c.1,0,.3,0,.5,0s0,0-.2,0-.4,0-.2,0ZM36.6,27.3l-.3-.3.3.3c.3.2.4.3.3.3s-.2-.1-.3-.3ZM9.7,26.5c.3-.3.6-.6.6-.6.1,0,0,.1-.6.7l-.6.6.6-.6ZM34.9,25.6c-.2-.2-.2-.2,0,0,.2.2.3.3.2.3s-.1-.1-.2-.2ZM10.9,25.4s.1-.1.2-.2c.2-.2.2-.2,0,0-.2.2-.3.3-.3.2ZM25.3,21.2c0,0,.2,0,.3,0,0,0,0,0-.2,0-.2,0-.2,0,0,0ZM21.4,21.1c.1,0,.3,0,.4,0,0,0,0,0-.2,0-.2,0-.3,0-.2,0ZM23.9,21.1c.1,0,.3,0,.4,0,0,0,0,0-.2,0-.2,0-.3,0-.2,0Z" fill="#f19328"/>
        <path d="M-.3,39.6V-.5h80.2v80.2H-.3v-40.1ZM25.9,57.9c15-2.6,20.7-21.3,9.7-31.7-11.8-11.2-31.2-2.8-31.2,13.4,0,11.5,10.3,20.3,21.5,18.3ZM46.9,44.4c.4-.1.9-.4,1.1-.6.4-.4.5-.4.6.3,0,.3.1.3.6.4h.6s0-12,0-12h-1.3v4.5l-.4-.4c-2-1.9-5.1-.5-5.6,2.6-.6,3.6,1.6,6.1,4.5,5.2h0ZM45,43.1c-2.2-1.2-1.3-6.2,1-6.2s2.1.6,2.3,2.3c.5,3.1-1.2,5-3.4,3.9h0ZM56,44.4c.4-.1.8-.4,1.1-.7l.5-.5v.6c.3.5.3.6.8.6h.5s0-3.3,0-3.3c0-4,0-4.3-1.3-4.9-1.4-.7-4.7-.2-4.4.7.2.7.2.7,1.3.4,1.9-.6,2.9-.2,3.1,1.2,0,.9,0,.9-1.4.9-2.8,0-4.4,1.4-3.9,3.4.4,1.4,2,2.2,3.8,1.6h0ZM54,43.1c-1.4-1.2-.2-2.5,2.4-2.7h1.2c0,0,0,.8,0,.8-.1,1.8-2.3,3-3.5,1.9h0ZM65.6,44.4c0,0,.1-.3.1-.6v-.5h-.7c-1.6.2-1.7,0-1.7-3.6v-2.7h2.4v-1.1h-2.4v-1.9h-.5c-.4,0-.5,0-.7.9-.2.8-.3.9-.9,1.2-.9.4-.9.9,0,.9h.6v2.5c0,3.6.2,4.4,1.5,4.9.5.2,1.9.2,2.2,0h0ZM71.3,44.2c.2-.1.6-.4.9-.6l.4-.4v.6c.2.6.2.6.7.6h.5v-3.3c0-3.5,0-3.9-.7-4.6-1.2-1.3-5.5-.9-5,.5l.2.5.6-.3c1.9-.8,3.5-.2,3.5,1.4,0,.6,0,.6-1.9.7-1.9.1-2.7.5-3.2,1.5-1.2,2.3,1.5,4.5,4,3.3h0ZM68.9,43c-1.3-1.3.2-2.7,3-2.7h.7s0,.8,0,.8c-.2,1.9-2.4,3.1-3.6,1.9Z" fill="#eb6625"/>
      </g>
    </g>
  </g>
</svg>