<?xml version="1.0"?><svg version="1.2" baseProfile="tiny-ps" viewBox="0 0 300 300" xmlns="http://www.w3.org/2000/svg" xmlns:xlink="http://www.w3.org/1999/xlink"><title>Lazzar</title><g><g fill="#00021e" transform="matrix(.1 0 0 -.1 0 300)"><path d="m357 2533-7-6V960H120V830h230l2-207 3-208 33-3 32-3v421l1253 2 1252 3 3 63 3 62H420v1580h-28c-16 0-32-3-35-7zm183-863v-610h370v100H620v1120h-80v-610zm2145 326c-31-14-64-46-83-81l-11-20-1 53v52h-60v-940h60v751l15 29c8 15 27 38 41 49l27 21h76l15-22 16-22v-156h60v183l-12 38c-6 21-19 46-28 54l-18 16-33 5-34 4-30-14zm-1741-10c-3-8-4-29-2-48l3-33 34-3 34-4 38 17 37 17 29-9 28-9 20-37c23-43 19-51-24-36l-32 11-34-6-35-7-24-32c-14-18-37-59-51-90l-27-58-15-82-15-82 6-95 5-95 20-66 21-66 40-46 40-46 34-11 34-11 28 7c16 4 35 11 42 17l12 9v-32h81l-3 403-3 402-25 50-25 50-35 17-35 18H949l-5-14zm220-265 27-28-3-224-3-224-20-40-20-40-23-3-23-4-26 17-25 17-24 52c-31 69-45 142-45 241v80l20 66c12 36 30 78 42 93l20 26h75l28-29zm216 229v-50h103c57 0 106-3 109-6 4-3-47-163-113-356l-119-350v-128h310v90h-240v8c0 5 56 174 125 376l125 368v98h-300v-50zm350 0v-50h220v-9c0-5-54-166-120-357l-120-347v-127h310v90h-120c-66 0-120 3-120 6s56 172 125 375l125 368v101h-300v-50zm390 0v-50h79l35 16 34 17 26-7 27-7 19-32c11-17 20-40 20-49v-16l-31 15-31 15-35-5-35-6-20-18c-26-23-71-113-92-183l-17-55-6-100-5-100 15-84 16-83 25-43c30-50 87-102 122-111l25-7 40 16 39 15v-28h81l-3 403-3 402-25 49-25 50-35 18-35 18h-205v-50zm221-230 30-30-3-222-3-223-20-40-20-40-28-3-28-3-33 34-33 35-16 53c-10 30-21 86-26 124l-8 70 8 66c9 73 39 161 65 190l17 19h69l29-30zm-107-914c-17-8-39-24-48-37l-16-23v-65l23-25 22-26 55-18 55-19 3-21 3-22-23-9-24-9-30 6c-16 3-38 11-49 18l-21 14-11-30-11-30 31-17 32-17h52l51-1 29 21 28 21 9 35 9 35-14 28-14 29-50 19c-27 11-57 23-65 27l-15 7-3 22-3 21 26 10 26 10 39-14 39-13 5 14c4 8 6 21 6 29v15l-35 15c-42 17-71 17-111 0zm-364-120V563l23-34c39-58 98-74 158-44l30 16 19 32 20 32v245h-60V609l-14-34-15-35h-72l-15 35-14 34v201h-60V686zm611 7c-24-65-52-139-62-165l-19-48h69l13 35 12 36 65-3 65-3 10-32 9-33h67v9c0 5-26 78-59 163l-58 153-34 3-34 3-44-118zm97-18c5-16 13-38 17-47l7-18h-41c-23 0-41 3-41 6 0 4 8 28 17 55l18 48 6-7c3-4 11-20 17-37z"/></g></g></svg>