<?xml version="1.0" encoding="UTF-8" standalone="yes"?>
<svg version="1.2" xmlns="http://www.w3.org/2000/svg" width="326.000000pt" height="340.000000pt" viewBox="-7 0 340 340" preserveAspectRatio="xMidYMid meet" baseProfile="tiny-ps"><title>Juni-Logo-VMC (1) (1).svg</title>

<g transform="translate(0.000000,340.000000) scale(0.100000,-0.100000)" fill="#000000" stroke="none">
<path d="M990 2390 l0 -180 500 0 500 0 0 -362 -1 -363 -92 -134 -92 -135
-175 -63 -175 -64 -65 21 c-36 12 -118 40 -183 64 l-117 42 -116 174 c-64 96
-120 179 -124 184 -6 6 -294 -156 -319 -180 -2 -2 67 -110 153 -241 l156 -239
297 -107 c164 -59 304 -107 312 -107 8 0 147 48 309 107 l295 107 159 240 158
240 0 588 0 588 -690 0 -690 0 0 -180z"/>
</g>
</svg>
