<?xml version="1.0" encoding="UTF-8"?>
<svg xmlns="http://www.w3.org/2000/svg" baseProfile="tiny-ps" version="1.2" viewBox="0 0 200 200">
  <title>FanDual</title>
  <rect x="-2" y="-2" width="203" height="203" fill="#0078ff" stroke-width="0"/>
  <path d="M57.8,82.9c9.8-4.6,20.2-7.3,30.4-8.5,1.1-.2,1.6.6,1.4,1.5-1.3,7.8-2.2,15.8-2.5,23.8,0,.9-.6,1.5-1.6,1.7-5.7,1.1-11.2,2.8-17.2,5.6,5.5,9.5,12.1,18.2,19.4,25.5.8.9,1.3,1.8,1.6,3.3,1.9,12.2,5.2,24.5,9.6,36.2.3.6.3,1.1,0,1.5s-1.1.4-1.7,0C53,146.5,26.4,98.4,25.9,47.9c0-1.2.4-2.1,1.4-2.7,23.4-13.1,49.7-19.4,76.2-18.8,1.2,0,1.6,1.1,1.1,2-3.6,7.6-6.7,15.3-9.1,23-.3.9-.8,1.4-1.8,1.4-14.1.7-27.9,3.9-40.5,9.2,1,7.1,2.5,14.2,4.6,20.9ZM106.6,52.9c-.9,0-1.5-.9-1.2-1.7,2.8-8.1,6-15.7,9.6-22.7.4-.8,1.1-1.2,2.1-1.1,19.9,2.2,38.7,8.5,55.5,17.9,1,.6,1.5,1.5,1.4,2.7-.3,47.8-24.3,93.5-64.6,121.2-.8.5-1.7.2-2.1-.6-2.9-7.9-5.3-15.8-7-23.6-.2-1,0-1.8.8-2.4,24.4-19.2,41.5-47.9,45.6-80.5-12.4-5.3-25.8-8.5-40.1-9.2Z" fill="#fff" stroke-width="0"/>
</svg>