<?xml version="1.0" encoding="utf-8"?>
<!-- Generator: Adobe Illustrator 27.0.0, SVG Export Plug-In . SVG Version: 6.00 Build 0)  -->
<svg version="1.2" baseProfile="tiny-ps" id="Layer_1" xmlns="http://www.w3.org/2000/svg" xmlns:xlink="http://www.w3.org/1999/xlink"
	 viewBox="0 0 312.76 312.76" xml:space="preserve">
<title>Finya</title>
<rect width="100%" height="100%" fill="#ffffff"/>
<g>
	<g>
		<g>
			<g>
				<path fill="#345FFD" d="M155.43,132.42c0.48,0.58,1.41,0.59,1.89-0.01c3.99-4.93,17.01-22.63,17.01-43.74
					c0-21.05-13.02-38.83-17.01-43.77c-0.21-0.25-0.55-0.4-0.94-0.4c0,0,0,0,0,0c-0.36,0-0.7,0.13-0.91,0.36l-0.04,0.05
					c-3.99,4.94-17,22.68-17,43.75C138.43,109.72,151.43,127.47,155.43,132.42z"/>
			</g>
		</g>
	</g>
	<g>
		<g>
			<path fill="#345FFD" d="M224.3,138.64c-21.1,0-38.82,13-43.74,16.99c-0.29,0.23-0.46,0.57-0.46,0.94
				c-0.01,0.49,0.26,0.81,0.48,0.99c4.91,3.97,22.66,16.97,43.73,16.97c21.11,0,38.83-13.02,43.76-17c0.29-0.24,0.45-0.58,0.45-0.96
				c0-0.36-0.17-0.71-0.45-0.94C263.11,151.65,245.37,138.64,224.3,138.64z"/>
		</g>
	</g>
	<g>
		<g>
			<g>
				<path fill="#345FFD" d="M44.94,157.74c5.26,4.19,22.8,16.8,43.52,16.8c21.14,0,38.83-13.01,43.75-17
					c0.3-0.25,0.47-0.59,0.46-0.96c0-0.36-0.18-0.71-0.46-0.94c-4.93-3.98-22.68-16.99-43.75-16.99c-21.06,0-38.81,13-43.75,16.99
					c-0.29,0.23-0.46,0.57-0.46,0.94c0,0.38,0.16,0.72,0.46,0.97L44.94,157.74z"/>
			</g>
		</g>
	</g>
	<g>
		<g>
			<path fill="#345FFD" d="M156.37,180.32C156.37,180.32,156.37,180.32,156.37,180.32c-0.39,0-0.73,0.16-0.94,0.42l-0.01,0.01
				c-3.99,4.94-17,22.68-17,43.75c0,21.08,13.01,38.81,17,43.74c0.48,0.6,1.41,0.61,1.89,0c3.99-4.93,17.01-22.63,17.01-43.74
				c0-21.05-13.02-38.83-17.01-43.77C157.11,180.48,156.76,180.32,156.37,180.32z"/>
		</g>
	</g>
	<g>
		<g>
			<g>
				<path fill="#345FFD" d="M138.6,140.17c0.38,0.03,0.74-0.09,1-0.35c0.25-0.25,0.37-0.61,0.33-0.99
					c-0.66-6.31-3.98-28.03-18.9-42.96c-14.89-14.89-36.66-18.25-42.98-18.93c-0.32-0.03-0.67,0.11-0.95,0.38
					c-0.26,0.26-0.4,0.59-0.39,0.9l0.01,0.07c0.67,6.31,4.02,28.06,18.92,42.96C110.54,136.15,132.28,139.5,138.6,140.17z"/>
			</g>
		</g>
	</g>
	<g>
		<g>
			<g>
				<path fill="#345FFD" d="M138.73,173c-0.04,0-0.09,0-0.13,0.01c-6.31,0.67-28.05,4.02-42.95,18.93
					c-14.9,14.9-18.25,36.64-18.92,42.95c-0.04,0.37,0.08,0.73,0.34,0.99c0.26,0.27,0.63,0.39,1.01,0.36l0.29-0.03l0.01,0
					c6.68-0.75,28-4.24,42.65-18.89l0,0c14.94-14.95,18.25-36.66,18.91-42.96c0.04-0.39-0.09-0.75-0.35-1.01
					C139.36,173.12,139.05,173,138.73,173z"/>
			</g>
		</g>
	</g>
	<g>
		<g>
			<path fill="#345FFD" d="M174.01,173c-0.3,0-0.63,0.14-0.87,0.39c-0.27,0.27-0.4,0.62-0.36,0.96l0,0.01
				c0.67,6.31,4.02,28.06,18.92,42.96c14.91,14.91,36.64,18.24,42.94,18.91c0.39,0.04,0.74-0.08,1.01-0.34
				c0.25-0.25,0.37-0.61,0.33-0.99c-0.66-6.31-3.97-28.03-18.9-42.96c-14.89-14.89-36.66-18.25-42.98-18.93
				C174.07,173,174.04,173,174.01,173z"/>
		</g>
	</g>
	<path fill="#FDC900" d="M254.18,57.43c-6.31,0.67-28.05,4.02-42.95,18.93c-14.92,14.92-18.25,36.64-18.92,42.95
		c-0.04,0.37,0.08,0.73,0.34,0.99c0.34,0.35,0.75,0.39,1.04,0.37c6.28-0.67,28.02-4.02,42.92-18.92
		c14.93-14.93,18.25-36.66,18.92-42.97c0.04-0.37-0.09-0.73-0.36-0.99C254.9,57.52,254.54,57.39,254.18,57.43z"/>
</g>
</svg>
