<?xml version="1.0"?><svg version="1.2" baseProfile="tiny-ps" viewBox="0 0 300 300" xmlns="http://www.w3.org/2000/svg" xmlns:xlink="http://www.w3.org/1999/xlink"><title>Uitvoeringsinstituut werknemersverzekeringen</title><g><g fill="#feffff" transform="matrix(.1 0 0 -.1 0 300)"><path d="M0 1515V30h2970v2970H0V1515z"/></g><g fill="#c7e1f6" transform="matrix(.1 0 0 -.1 0 300)"><path d="M0 1515V30h2970v2970H0V1515zm2155 1055c119-14 195-34 280-75l70-33 61-56 62-56 32-49c37-59 80-173 80-216v-30l-38 68-37 68-54 54-54 54-66 35c-85 44-154 64-268 75l-91 10-100-10-100-9-94-24c-276-70-548-223-770-434l-99-95-72-96-73-96-51-101-52-100-27-90-27-89-1-115-1-115 19-55c39-116 109-206 210-272l60-38 64-20c35-11 72-20 81-20h16l-60 31-60 30-53 52-53 52-32 65-32 64-3 106-4 105 17 65c23 90 74 195 137 287l53 77 81 80c96 95 207 177 325 240l85 46 105 34c57 18 138 39 179 45 41 7 77 14 79 17 3 3 12 40 21 82l15 77 21-1h20l242-165 241-164-2-14-2-14-318-173c-175-96-322-174-328-174h-9v23c1 12 9 62 20 112 10 49 17 91 15 93-7 8-196-62-255-95-217-118-379-303-435-497l-17-58v-67l-1-68 17-51 18-52 48-54 49-53 63-28 63-29 93-4 93-4 61 12c60 11 154 42 233 74l40 17-20-16c-78-62-346-181-515-230l-115-33-124-17-124-18-111 6-111 6-80 20-80 21-75 37-75 36-71 72-71 71-26 56c-15 31-34 82-42 114l-15 58v195l14 68c95 449 517 917 1071 1184l120 58 120 40c139 45 253 70 374 81 126 11 128 11 226 0zM1474 964c26-18 35-18 73 6l32 19 6 23c3 13 6 72 8 133l2 109 33 7 32 6V899l-32 3-33 3-3 21-3 22-26-24-25-24-34-6-34-6-25 6-26 7-19 32-20 32 2 145 3 145 30 5 30 5 5-143 5-144 19-14zm325 259c5-21 20-77 32-125l23-88 7 8c3 4 23 60 43 125l37 118 35-3 35-3 39-118c21-66 41-121 43-123 2-3 19 52 37 121l33 125h69l-5-20c-3-11-25-92-48-180l-44-160h-74l-41 131-42 131-8-8c-4-5-25-64-46-132l-38-123-35 3-36 3-51 178-52 177h77l10-37zm589-93c24-71 45-130 47-130s23 59 47 130l42 130h33c18 0 33-3 33-6s-28-84-62-180l-61-175-35 3-36 3-63 175c-34 96-63 176-63 178 0 1 17 2 38 2h38l42-130z"/></g><g fill="#8bc2eb" transform="matrix(.1 0 0 -.1 0 300)"><path d="M0 1515V30h2970v2970H0V1515zm2285 1035 80-20 81-39 80-40 62-62 63-61 39-82 39-81 10-59c6-33 11-69 10-80v-21l-14 42c-30 99-111 201-209 265l-59 38-81 27-81 27-175 1h-175l-110-29c-254-66-478-183-696-364l-96-79-69-79c-194-220-297-431-319-654l-6-65 11-70 11-70 34-73 35-73 57-58 58-57 49-27c50-28 107-49 161-61l30-6-50 26c-27 15-69 41-91 60l-42 33-34 53c-20 29-44 78-54 108l-19 55 1 95 1 95 32 94 31 93 40 69c91 154 223 292 388 402 158 106 322 172 499 199l72 11 10 46c5 25 12 63 16 83l7 37 13 5 13 5 249-170 248-170v-34l-315-172c-173-95-321-173-327-173h-13v23c0 12 7 59 16 105l17 82-7 7-6 7-73-23c-104-34-212-91-306-161l-81-62-54-63c-29-35-69-89-89-122l-36-58-26-80-27-80 4-85 4-85 29-53 29-53 37-34c48-43 99-69 168-85l54-13 91 6 91 6 75 21c41 12 117 41 168 65 50 24 92 42 92 40 0-9-195-119-293-165-128-61-310-124-441-152l-101-22H935l-180-1-81 23c-229 66-379 206-431 405l-16 62v95l-1 95 13 60c79 381 385 774 821 1058 234 152 490 256 740 301 124 22 152 24 285 20l120-3 80-21zm-835-1416V999l10-20 11-19h63l28 27 28 27v246h19c11 0 26 3 35 6l16 6V900h-70v39l-36-24-37-25h-79l-28 28-28 29-7 54c-3 30-5 99-3 154l3 100 30 6c17 4 33 7 38 8l7 1v-136zm373 3c16-65 32-115 36-112 3 3 22 56 41 118l36 112h78l36-112c19-61 38-114 41-118 6-5 18 34 59 193l11 42h34c19 0 35-3 35-7 0-5-21-86-47-182l-47-173-13-5c-7-3-24-2-37 1l-24 6-45 132-45 133-5-15c-3-8-22-68-42-133l-36-118-15-6c-8-3-24-3-37 1l-23 5-32 113c-17 62-41 144-51 181l-20 68 42-3 41-3 29-118zm567-2c23-69 43-125 45-125s22 56 45 125l42 125h68v-9c0-7-96-284-115-333l-7-18h-73l-59 168c-33 92-61 173-64 180l-4 12h80l42-125z"/></g><g fill="#489fdf" transform="matrix(.1 0 0 -.1 0 300)"><path d="M0 1515V30h2970v2970H0V1515zm2224 1050c47-8 116-26 153-40l68-26 68-46 68-46 44-54c72-88 126-224 124-313v-35l-13 35c-8 20-26 60-41 90l-28 55-58 57-58 56-73 36c-40 20-100 43-133 52l-60 15-106 6-106 6-84-12c-124-18-258-56-381-107l-109-46-103-62c-134-80-257-177-366-287l-87-89-63-87-63-88-53-110-53-110-21-85-20-85v-181l15-59c9-32 28-81 43-108l27-50 58-58 58-58 72-36c40-19 88-38 107-41l35-6-45 23-45 23-56 56-57 56-21 42c-12 23-28 67-36 99l-15 57v56c1 125 53 279 142 416l52 79 100 100 101 101 93 63c51 34 134 82 185 106l93 44 93 25c52 14 120 28 152 32l57 6 13 67c15 81 25 111 39 111 6 0 123-77 261-171l249-171v-33l-311-170c-172-93-318-172-326-173-9-2-19 0-23 5l-9 8 21 98c11 54 18 101 15 103-7 8-115-25-184-56-34-16-94-49-135-75l-73-48-74-71c-119-115-196-245-221-374l-13-63 6-58 5-58 20-46 20-45 41-41 40-40 48-24c26-14 75-30 108-37l60-12 77 6 77 6 85 25c46 13 124 43 173 67 48 23 93 44 98 46 43 15-185-121-280-167l-121-60-137-46-138-46-122-20-122-21-155 5-155 5-73 21c-96 28-175 68-244 124l-55 46-46 68-46 68-20 61-20 61-7 80-7 80 12 83c67 452 490 949 1047 1228 179 90 392 160 564 186l95 14 101 1 101 1 87-15zm-774-1428v-133l16-22 15-22h47l31 26 31 26v248h9c5 0 23 3 40 6l31 7-2-189-3-189h-70l-3 23-3 23-30-26-31-25h-95l-21 23c-11 12-25 35-31 50l-11 28v268l28 4c15 2 33 5 40 6l12 1v-133zm373 11c16-65 32-118 36-118 3 0 22 53 41 118l36 117h78l40-125 39-125 23 85c12 47 28 104 34 128l11 42h81l-4-12c-3-7-27-93-53-190l-49-178h-64l-10 13c-5 6-27 65-48 129s-41 115-45 112c-4-2-10-16-14-31-3-16-20-72-36-125l-31-98h-67l-6 10c-7 12-105 350-105 363v8l42-3 42-3 29-117zm777 118c0-2-29-86-65-187-36-100-65-184-65-186s-17-3-37-1l-38 3-62 170c-34 94-62 176-62 183l-1 13 42-3 42-3 36-110c20-60 38-117 41-125l6-15 42 133 42 132h39c22 0 40-2 40-4z"/></g><g fill="#0279d4" transform="matrix(.1 0 0 -.1 0 300)"><path d="M0 1515V30h2970v2970H0V1515zm2310 1035c41-12 106-38 145-58l70-36 66-66 66-65 32-63c38-75 61-160 60-222v-45l-23 63c-71 191-232 307-476 343l-83 12-95-7c-197-14-379-68-582-172l-125-65-95-67-95-67-126-125-126-125-66-101c-37-55-83-135-103-178l-36-79-24-95-24-95v-163l15-59c9-32 30-85 47-117l31-59 61-57 62-57 55-27c30-15 68-30 84-33l30-7-45 29c-25 16-66 53-91 81-77 86-108 171-109 297v70l15 63c31 130 101 261 208 389l62 74 87 72c47 40 125 96 172 126l86 53 93 38 92 38 105 22c58 12 115 24 126 26l22 4 12 67c7 38 17 76 22 86l10 19 17-5c17-4 349-228 458-309l52-38-5-14-5-14-325-178-325-177-11 11-10 10 21 103c12 56 19 104 17 106-7 7-154-46-219-78-34-18-95-54-134-81l-73-50-63-68-64-67-45-74-46-74-23-65-23-65V915l23-52 23-52 49-46 50-46 42-19c23-10 73-24 111-30l68-11 81 11 82 11 87 29c48 16 119 46 159 65 39 20 73 34 76 32 8-9-180-120-303-179-206-98-400-155-614-178l-105-12-85 7c-47 3-122 15-168 26l-83 19-77 37-77 38-71 70-71 70-25 50c-14 28-34 75-44 105l-19 55v260l22 81c162 595 857 1178 1557 1305l101 19 165-4 165-4 75-22zm-860-1407v-128l13-25 12-25 26-3 25-3 27 21 27 21v248l19 11c11 5 31 10 45 10h26V889l-37 3-38 3-3 22-3 23-22-20c-12-11-37-25-57-31l-36-11-37 16-38 15-14 35-15 35v280l23 4c12 2 30 5 40 6l17 1v-127zm374 10c16-62 32-113 35-113s22 52 41 115l34 115h82l38-122c21-68 40-118 42-113 2 6 17 60 32 120l29 110 41 3 42 3v-7c0-4-18-71-39-148-22-78-44-160-51-184l-11-43-41 3-41 3-43 125-42 125-6-15c-3-8-21-64-39-125l-33-110-36-3-35-3-10 13c-10 14-103 334-103 356v13l43-3 42-3 29-112zm570-18 41-129 41 129 41 130 42 3 41 3v-9c0-4-29-89-64-188l-63-179-36-3-36-3-10 18c-9 18-131 352-131 360 0 2 21 3 47 1l46-3 41-130z"/></g></g></svg>