<?xml version="1.0" encoding="utf-8"?>

<!-- Generator: Adobe Illustrator 26.3.1, SVG Export Plug-In . SVG Version: 6.00 Build 0)  -->

<svg version="1.2" baseProfile="tiny-ps" id="Angel" xmlns="http://www.w3.org/2000/svg" xmlns:xlink="http://www.w3.org/1999/xlink" viewBox="0 0 600 600" xml:space="preserve">

<title>Angel Publishing</title>

<rect fill="#FFFFFF" width="600" height="600"/>

		<ellipse transform="matrix(0.9997 -2.497617e-02 2.497617e-02 0.9997 -2.1186 5.1216)" fill="#8C3532" cx="204" cy="87.4" rx="40.4" ry="40.4"/>

	<path fill="#8C3532" d="M362.2,125.2c0,16.2-13.2,29.4-29.4,29.4c-16.2,0-29.4-13.2-29.4-29.4c0-16.2,13.2-29.4,29.4-29.4

		C349,95.8,362.2,109,362.2,125.2z"/>

	<path fill="#8C3532" d="M464.5,163c0,18.4-14.9,33.3-33.3,33.3c-18.4,0-33.3-14.9-33.3-33.3c0-18.4,14.9-33.3,33.3-33.3

		C449.6,129.7,464.5,144.6,464.5,163z"/>

	<path fill="#8C3532" d="M528.5,259.4c0,18.4-14.9,33.3-33.3,33.3c-18.4,0-33.3-14.9-33.3-33.3c0-18.4,14.9-33.3,33.3-33.3

		C513.6,226.1,528.5,241,528.5,259.4z"/>

	<path fill="#8C3532" d="M136.5,294.5c0,18.4-14.9,33.3-33.3,33.3c-18.4,0-33.3-14.9-33.3-33.3c0-18.4,14.9-33.3,33.3-33.3

		C121.6,261.3,136.5,276.2,136.5,294.5z"/>

	<path fill="#8C3532" d="M154.1,181.5c0,18.4-14.9,33.3-33.3,33.3c-18.4,0-33.3-14.9-33.3-33.3c0-18.4,14.9-33.3,33.3-33.3

		C139.2,148.2,154.1,163.1,154.1,181.5z"/>

	<ellipse fill="#8C3532" cx="423.2" cy="496.2" rx="40.4" ry="40.4"/>

	<path fill="#8C3532" d="M251.7,512.6c0,22.3-18.1,40.4-40.4,40.4c-22.3,0-40.4-18.1-40.4-40.4c0-22.3,18.1-40.4,40.4-40.4

		C233.6,472.2,251.7,490.3,251.7,512.6z"/>

	<path fill="#8C3532" d="M176.9,391c0,16.2-13.2,29.4-29.4,29.4c-16.2,0-29.4-13.2-29.4-29.4c0-16.2,13.2-29.4,29.4-29.4

		C163.8,361.6,176.9,374.8,176.9,391z"/>

	<path fill="#8C3532" d="M530,382.6c0,19.3-15.6,34.9-34.9,34.9c-19.3,0-34.9-15.6-34.9-34.9c0-19.3,15.6-34.9,34.9-34.9

		C514.4,347.8,530,363.4,530,382.6z"/>

	<path fill="#8C3532" d="M416.3,206c0,11.7-9.5,21.2-21.2,21.2c-11.7,0-21.2-9.5-21.2-21.2c0-11.7,9.5-21.2,21.2-21.2

		C406.8,184.9,416.3,194.3,416.3,206z"/>

	<path fill="#8C3532" d="M458.6,277.1c0,11.7-9.5,21.2-21.2,21.2c-11.7,0-21.2-9.5-21.2-21.2c0-11.7,9.5-21.2,21.2-21.2

		C449.1,255.9,458.6,265.4,458.6,277.1z"/>

	<path fill="#8C3532" d="M211.5,359.4c0,11.7-9.5,21.2-21.2,21.2c-11.7,0-21.2-9.5-21.2-21.2c0-11.7,9.5-21.2,21.2-21.2

		C202.1,338.2,211.5,347.7,211.5,359.4z"/>

	<path fill="#8C3532" d="M180.8,288c0,11.7-9.5,21.2-21.2,21.2c-11.7,0-21.2-9.5-21.2-21.2s9.5-21.2,21.2-21.2

		C171.3,266.9,180.8,276.3,180.8,288z"/>

	<path fill="#8C3532" d="M197.3,207.9c0,11.7-9.5,21.1-21.2,21.1c-11.7,0-21.2-9.5-21.2-21.1c0-11.7,9.5-21.2,21.2-21.2

		C187.8,186.7,197.3,196.2,197.3,207.9z"/>

	<path fill="#8C3532" d="M346.6,177.7c0,10.2-8.2,18.4-18.4,18.4c-10.2,0-18.4-8.2-18.4-18.4c0-10.2,8.2-18.4,18.4-18.4

		C338.4,159.3,346.6,167.5,346.6,177.7z"/>

	<path fill="#8C3532" d="M455.3,363.8c0,11.7-9.5,21.2-21.2,21.2c-11.7,0-21.2-9.5-21.2-21.2c0-11.7,9.5-21.1,21.2-21.1

		C445.8,342.6,455.3,352.1,455.3,363.8z"/>

	<path fill="#8C3532" d="M405.9,440.6c0,14.1-11.4,25.5-25.5,25.5c-14.1,0-25.5-11.4-25.5-25.5c0-14.1,11.4-25.5,25.5-25.5

		C394.4,415.1,405.9,426.5,405.9,440.6z"/>

	<path fill="#8C3532" d="M258.8,443.4c0,13.8-11.2,25-25,25c-13.8,0-25-11.2-25-25c0-13.8,11.2-25,25-25

		C247.6,418.4,258.8,429.6,258.8,443.4z"/>

	<path fill="#8C3532" d="M263.2,144.8c0,13.2-10.7,23.9-23.9,23.9c-13.2,0-23.9-10.7-23.9-23.9c0-13.2,10.7-23.9,23.9-23.9

		C252.5,120.9,263.2,131.6,263.2,144.8z"/>

	<path fill="#8C3532" d="M366.6,400.9c0,9.6-7.8,17.3-17.3,17.3c-9.6,0-17.3-7.8-17.3-17.3c0-9.6,7.8-17.3,17.3-17.3

		C358.8,383.6,366.6,391.4,366.6,400.9z"/>

	<path fill="#8C3532" d="M409.1,348.9c0,9.6-7.7,17.3-17.3,17.3c-9.6,0-17.3-7.8-17.3-17.3c0-9.6,7.7-17.3,17.3-17.3

		C401.3,331.6,409.1,339.3,409.1,348.9z"/>

	<path fill="#8C3532" d="M415.6,285.2c0,9.6-7.8,17.3-17.3,17.3c-9.6,0-17.3-7.7-17.3-17.3c0-9.6,7.8-17.3,17.3-17.3

		C407.9,267.9,415.6,275.6,415.6,285.2z"/>

	<path fill="#8C3532" d="M230.1,228.1c0,9.6-7.8,17.3-17.3,17.3c-9.6,0-17.3-7.8-17.3-17.3c0-9.6,7.8-17.3,17.3-17.3

		C222.3,210.8,230.1,218.5,230.1,228.1z"/>

	<path fill="#8C3532" d="M277.3,186.4c0,9.6-7.7,17.3-17.3,17.3c-9.6,0-17.3-7.8-17.3-17.3c0-9.6,7.8-17.3,17.3-17.3

		C269.6,169.1,277.3,176.8,277.3,186.4z"/>

	<path fill="#8C3532" d="M264.1,398.3c0,9.6-7.7,17.3-17.3,17.3c-9.6,0-17.3-7.8-17.3-17.3c0-9.6,7.7-17.3,17.3-17.3

		C256.4,381,264.1,388.7,264.1,398.3z"/>

	<path fill="#8C3532" d="M212.5,284.6c0,7.4-6,13.5-13.5,13.5c-7.4,0-13.5-6-13.5-13.5c0-7.4,6-13.5,13.5-13.5

		C206.5,271.2,212.5,277.2,212.5,284.6z"/>

	<path fill="#8C3532" d="M269.3,367.2c0,7.4-6,13.5-13.5,13.5s-13.5-6-13.5-13.5c0-7.4,6-13.5,13.5-13.5S269.3,359.8,269.3,367.2z"

		/>

	<path fill="#8C3532" d="M383.4,234.4c0,7.4-6,13.5-13.5,13.5c-7.4,0-13.5-6-13.5-13.5c0-7.4,6-13.5,13.5-13.5

		C377.4,220.9,383.4,226.9,383.4,234.4z"/>

	<path fill="#8C3532" d="M233,336.5c0,7.4-6,13.5-13.5,13.5c-7.4,0-13.5-6-13.5-13.5c0-7.4,6-13.5,13.5-13.5

		C227,323,233,329,233,336.5z"/>

	<path fill="#8C3532" d="M336.2,209.1c0,7.4-6,13.5-13.5,13.5c-7.4,0-13.5-6-13.5-13.5c0-7.4,6-13.5,13.5-13.5

		C330.2,195.7,336.2,201.7,336.2,209.1z"/>

	<path fill="#8C3532" d="M373.7,335.1c0,6.2-5,11.3-11.3,11.3c-6.2,0-11.3-5-11.3-11.3c0-6.2,5.1-11.3,11.3-11.3

		C368.7,323.8,373.7,328.8,373.7,335.1z"/>

	<path fill="#8C3532" d="M239.6,284.9c0,6.2-5,11.3-11.3,11.3c-6.2,0-11.3-5-11.3-11.3c0-6.2,5.1-11.3,11.3-11.3

		C234.6,273.6,239.6,278.7,239.6,284.9z"/>

	<path fill="#8C3532" d="M284.7,216.8c0,6.2-5,11.3-11.3,11.3c-6.2,0-11.3-5.1-11.3-11.3c0-6.2,5-11.3,11.3-11.3

		C279.6,205.5,284.7,210.6,284.7,216.8z"/>

	<path fill="#8C3532" d="M250.6,243.2c0,6.2-5,11.3-11.3,11.3c-6.2,0-11.3-5.1-11.3-11.3c0-6.2,5-11.3,11.3-11.3

		C245.6,231.9,250.6,236.9,250.6,243.2z"/>

	<path fill="#8C3532" d="M380.2,290.4c0,6.2-5,11.3-11.3,11.3c-6.2,0-11.3-5-11.3-11.3c0-6.2,5-11.3,11.3-11.3

		C375.1,279.1,380.2,284.1,380.2,290.4z"/>

	<path fill="#8C3532" d="M341.8,373.8c0,6.2-5.1,11.3-11.3,11.3c-6.2,0-11.3-5-11.3-11.3c0-6.2,5-11.3,11.3-11.3

		C336.7,362.6,341.8,367.6,341.8,373.8z"/>

	<path fill="#8C3532" d="M327.5,351.3c0,4.7-3.8,8.5-8.5,8.5c-4.7,0-8.5-3.8-8.5-8.5c0-4.7,3.8-8.5,8.5-8.5

		C323.7,342.8,327.5,346.6,327.5,351.3z"/>

	<path fill="#8C3532" d="M250.6,322.2c0,6.2-5,11.3-11.3,11.3c-6.2,0-11.3-5.1-11.3-11.3c0-6.2,5-11.3,11.3-11.3

		C245.6,310.9,250.6,316,250.6,322.2z"/>

	<path fill="#8C3532" d="M361.5,256.3c0,6.2-5,11.3-11.3,11.3c-6.2,0-11.3-5.1-11.3-11.3c0-6.2,5.1-11.3,11.3-11.3

		C356.5,245.1,361.5,250.1,361.5,256.3z"/>

	<path fill="#8C3532" d="M328.8,236.4c0,6.2-5,11.3-11.3,11.3c-6.2,0-11.3-5.1-11.3-11.3c0-6.2,5-11.3,11.3-11.3

		C323.8,225.2,328.8,230.2,328.8,236.4z"/>

	<path fill="#8C3532" d="M272.6,342.8c0,4.5-3.7,8.2-8.2,8.2c-4.5,0-8.2-3.7-8.2-8.2c0-4.5,3.7-8.2,8.2-8.2

		C268.9,334.5,272.6,338.2,272.6,342.8z"/>

	<path fill="#8C3532" d="M350.3,325.8c0,4.5-3.7,8.2-8.2,8.2c-4.5,0-8.2-3.7-8.2-8.2c0-4.5,3.7-8.2,8.2-8.2

		C346.6,317.6,350.3,321.2,350.3,325.8z"/>

	<path fill="#8C3532" d="M290.3,238.5c0,4.5-3.7,8.2-8.2,8.2c-4.5,0-8.2-3.7-8.2-8.2c0-4.5,3.7-8.2,8.2-8.2

		C286.6,230.3,290.3,234,290.3,238.5z"/>

	<path fill="#8C3532" d="M342.6,270.9c0,4.5-3.7,8.2-8.2,8.2c-4.5,0-8.2-3.7-8.2-8.2c0-4.5,3.7-8.2,8.2-8.2

		C338.9,262.7,342.6,266.4,342.6,270.9z"/>

	<path fill="#8C3532" d="M265.3,258.7c0,4.5-3.7,8.2-8.2,8.2c-4.5,0-8.2-3.7-8.2-8.2c0-4.5,3.7-8.2,8.2-8.2

		C261.6,250.5,265.3,254.2,265.3,258.7z"/>

	<path fill="#8C3532" d="M355.8,297.2c0,4.5-3.7,8.2-8.2,8.2c-4.5,0-8.2-3.7-8.2-8.2c0-4.5,3.7-8.2,8.2-8.2

		C352.1,289,355.8,292.7,355.8,297.2z"/>

	<path fill="#8C3532" d="M254.1,286.3c0,3.1-2.5,5.7-5.7,5.7c-3.1,0-5.7-2.5-5.7-5.7c0-3.1,2.5-5.7,5.7-5.7

		C251.5,280.7,254.1,283.2,254.1,286.3z"/>

	<path fill="#8C3532" d="M314.2,336.1c0,3.1-2.5,5.7-5.7,5.7c-3.1,0-5.7-2.5-5.7-5.7c0-3.1,2.5-5.7,5.7-5.7

		C311.7,330.5,314.2,333,314.2,336.1z"/>

	<path fill="#8C3532" d="M329.9,317.8c0,3.1-2.5,5.7-5.7,5.7c-3.1,0-5.7-2.6-5.7-5.7c0-3.1,2.5-5.7,5.7-5.7

		C327.4,312.2,329.9,314.7,329.9,317.8z"/>

	<path fill="#8C3532" d="M336.7,298.9c0,3.1-2.5,5.7-5.7,5.7c-3.1,0-5.7-2.5-5.7-5.7c0-3.1,2.5-5.7,5.7-5.7

		C334.1,293.2,336.7,295.8,336.7,298.9z"/>

	<path fill="#8C3532" d="M318.4,257.8c0,3.7-3,6.6-6.6,6.6c-3.7,0-6.6-3-6.6-6.6c0-3.7,3-6.6,6.6-6.6

		C315.4,251.2,318.4,254.2,318.4,257.8z"/>

	<path fill="#8C3532" d="M294.8,255.6c0,3.6-3,6.6-6.6,6.6c-3.7,0-6.6-3-6.6-6.6c0-3.7,3-6.6,6.6-6.6

		C291.8,248.9,294.8,251.9,294.8,255.6z"/>

	<path fill="#8C3532" d="M278.9,326.7c0,3.7-3,6.6-6.6,6.6c-3.7,0-6.6-3-6.6-6.6c0-3.7,3-6.6,6.6-6.6

		C275.9,320.1,278.9,323,278.9,326.7z"/>

	<path fill="#8C3532" d="M262.9,312.9c0,3.6-3,6.6-6.6,6.6c-3.7,0-6.6-3-6.6-6.6c0-3.7,3-6.6,6.6-6.6

		C259.9,306.3,262.9,309.2,262.9,312.9z"/>

	<path fill="#8C3532" d="M306.7,322c0,2.5-2,4.5-4.5,4.5c-2.5,0-4.5-2-4.5-4.5c0-2.5,2-4.5,4.5-4.5

		C304.6,317.5,306.7,319.5,306.7,322z"/>

	<path fill="#8C3532" d="M316.9,309.2c0,2.5-2,4.5-4.5,4.5c-2.5,0-4.5-2-4.5-4.5c0-2.5,2-4.5,4.5-4.5

		C314.9,304.7,316.9,306.7,316.9,309.2z"/>

	<path fill="#8C3532" d="M321.4,297.3c0,2.5-2,4.5-4.5,4.5c-2.5,0-4.5-2-4.5-4.5c0-2.5,2-4.5,4.5-4.5

		C319.4,292.8,321.4,294.8,321.4,297.3z"/>

	<path fill="#8C3532" d="M325.3,281c0,2.5-2,4.5-4.5,4.5c-2.5,0-4.5-2-4.5-4.5c0-2.5,2-4.5,4.5-4.5

		C323.2,276.4,325.3,278.5,325.3,281z"/>

	<path fill="#8C3532" d="M310.5,272.6c0,2.5-2,4.5-4.5,4.5c-2.5,0-4.5-2-4.5-4.5c0-2.5,2-4.5,4.5-4.5

		C308.5,268.1,310.5,270.1,310.5,272.6z"/>

	<path fill="#8C3532" d="M296.1,271.7c0,2.5-2,4.5-4.5,4.5c-2.5,0-4.5-2-4.5-4.5c0-2.5,2-4.5,4.5-4.5

		C294,267.1,296.1,269.1,296.1,271.7z"/>

	<path fill="#8C3532" d="M273.6,268.4c0,2.5-2,4.5-4.5,4.5s-4.5-2-4.5-4.5c0-2.5,2-4.5,4.5-4.5S273.6,265.9,273.6,268.4z"/>

	<path fill="#8C3532" d="M267.2,287.1c0,2.5-2,4.5-4.5,4.5c-2.5,0-4.5-2-4.5-4.5c0-2.5,2-4.5,4.5-4.5

		C265.2,282.5,267.2,284.5,267.2,287.1z"/>

	<path fill="#8C3532" d="M273.6,306.3c0,2.5-2,4.5-4.5,4.5s-4.5-2-4.5-4.5c0-2.5,2-4.5,4.5-4.5S273.6,303.8,273.6,306.3z"/>

	<path fill="#8C3532" d="M285.8,314c0,2.5-2,4.5-4.5,4.5c-2.5,0-4.5-2-4.5-4.5c0-2.5,2-4.5,4.5-4.5

		C283.8,309.5,285.8,311.5,285.8,314z"/>

	<path fill="#8C3532" d="M301.3,311.3c0,1.6-1.3,2.9-2.9,2.9c-1.6,0-2.9-1.3-2.9-2.9c0-1.6,1.3-2.9,2.9-2.9

		C300,308.4,301.3,309.7,301.3,311.3z"/>

	<path fill="#8C3532" d="M288.1,303.1c0,1.6-1.3,2.9-2.9,2.9c-1.6,0-2.9-1.3-2.9-2.9c0-1.6,1.3-2.9,2.9-2.9

		C286.8,300.2,288.1,301.5,288.1,303.1z"/>

	<path fill="#8C3532" d="M281.1,298.3c0,1.6-1.3,2.9-2.9,2.9c-1.6,0-2.9-1.3-2.9-2.9c0-1.6,1.3-2.9,2.9-2.9

		C279.8,295.4,281.1,296.7,281.1,298.3z"/>

	<path fill="#8C3532" d="M277.2,287.4c0,1.6-1.3,2.9-2.9,2.9c-1.6,0-2.9-1.3-2.9-2.9c0-1.6,1.3-2.9,2.9-2.9

		C275.9,284.5,277.2,285.8,277.2,287.4z"/>

	<path fill="#8C3532" d="M281.1,275.8c0,1.6-1.3,2.9-2.9,2.9c-1.6,0-2.9-1.3-2.9-2.9c0-1.6,1.3-2.9,2.9-2.9

		C279.8,272.9,281.1,274.2,281.1,275.8z"/>

	<path fill="#8C3532" d="M313.6,287.5c0,1.6-1.3,2.9-2.9,2.9c-1.6,0-2.9-1.3-2.9-2.9c0-1.6,1.3-2.9,2.9-2.9

		C312.3,284.6,313.6,285.9,313.6,287.5z"/>

</svg>

