<svg version="1.2" baseProfile="tiny-ps" viewBox="0 0 200 200" xmlns="http://www.w3.org/2000/svg">
  <title>bimi-svg-tiny-12-ps</title>
  <rect width="200" height="200" fill="#e7edf5" stroke-width="0"></rect>
  <g id="Bonafide_B">
    <path d="M122,95.7c12.1-2.2,18.8-11.2,18.8-21.8s-14.1-23.9-36.1-23.9h-40.4v28.1c0,6.4,3.4,12.4,8.8,15.7l4.5,2.7-4.5,2.7c-5.5,3.3-8.8,9.3-8.8,15.7v35.1h43.9c24.7,0,37.5-11.6,37.5-29.5s-11.2-23.9-23.7-24.8h0ZM87.7,55.1h14.4c11.1,0,16.6,6.4,16.6,19.6s-2.4,19.2-16.2,19.2h-6.5c-4.6,0-8.3-3.7-8.3-8.3,0,0,0-30.5,0-30.5ZM100.7,144.9h-13v-37.4c0-4.6,3.7-8.3,8.3-8.3h7.5c14.1,0,20.1,8.2,20.1,22s-7.5,23.7-22.8,23.7h0Z" fill="#3f4950" stroke-width="0"></path>
  </g>
</svg>