<?xml version="1.0" encoding="UTF-8" standalone="yes"?>
<svg version="1.2" width="2000" height="2000" baseProfile="tiny-ps" xmlns="http://www.w3.org/2000/svg">
  <title>bimi-svg-tiny-12-ps</title>
  <path d="M0 0 C660 0 1320 0 2000 0 C2000 660 2000 1320 2000 2000 C1340 2000 680 2000 0 2000 C0 1340 0 680 0 0 Z " fill="#FEFEFE" transform="translate(0,0)"/>
  <path d="M0 0 C79.51468447 0 79.51468447 0 98.03515625 17.76171875 C109.13216266 30.40304017 111.98445828 43.29943378 111.22216797 59.63964844 C110.32156169 69.20784792 105.33072018 77.05572985 99 84 C98.43539062 84.62132812 97.87078125 85.24265625 97.2890625 85.8828125 C95.9214807 87.3171056 94.46794679 88.6686064 93 90 C92.34 90 91.68 90 91 90 C91 90.66 91 91.32 91 92 C92.175625 92.2784375 92.175625 92.2784375 93.375 92.5625 C98.50197368 94.59561025 102.59949937 97.71582932 107 101 C108.051875 101.763125 109.10375 102.52625 110.1875 103.3125 C120.6607741 113.32029525 125.83943233 126.07074376 126.33666992 140.34130859 C126.60716981 156.89865821 121.48873093 172.95844515 109.9453125 185.2265625 C80.05426054 212.47663798 37.58785988 202 0 202 C0 135.34 0 68.68 0 0 Z " fill="#6CA1F8" transform="translate(61,901)"/>
  <path d="M0 0 C2.06261888 1.82587175 4.03652949 3.75137324 5.984375 5.69921875 C6.314375 0.74921875 6.644375 -4.20078125 6.984375 -9.30078125 C19.524375 -9.30078125 32.064375 -9.30078125 44.984375 -9.30078125 C44.984375 40.19921875 44.984375 89.69921875 44.984375 140.69921875 C32.444375 140.69921875 19.904375 140.69921875 6.984375 140.69921875 C6.489375 133.27421875 6.489375 133.27421875 5.984375 125.69921875 C4.870625 126.73046875 3.756875 127.76171875 2.609375 128.82421875 C-12.09976969 141.57900156 -27.21595828 144.87442126 -46.20849609 143.9309082 C-54.05269079 143.28347902 -61.03441942 141.80783135 -68.015625 138.13671875 C-68.69568604 137.78593262 -69.37574707 137.43514648 -70.07641602 137.07373047 C-87.10741101 127.97418102 -100.81783796 112.09575964 -107.015625 93.69921875 C-109.67967717 84.05474425 -110.53477616 74.80237662 -110.453125 64.82421875 C-110.44482666 63.509375 -110.43652832 62.19453125 -110.42797852 60.83984375 C-110.07101485 40.31125721 -103.76800927 23.40449904 -89.703125 8.19921875 C-88.3728125 6.96171875 -88.3728125 6.96171875 -87.015625 5.69921875 C-86.00628906 4.68214844 -86.00628906 4.68214844 -84.9765625 3.64453125 C-61.94215247 -18.63957227 -25.19330184 -19.22131448 0 0 Z " fill="#6DA1F8" transform="translate(684.015625,963.30078125)"/>
  <path d="M0 0 C0.71800781 0.59554687 1.43601562 1.19109375 2.17578125 1.8046875 C11.69648453 10.44683247 16.34689198 22.90128431 17.16672325 35.57796669 C17.42479953 43.08775689 17.34419243 50.60055975 17.29296875 58.11328125 C17.28736471 60.53850541 17.28309844 62.963733 17.28010559 65.38896179 C17.26872045 71.73303818 17.23930833 78.07690437 17.20599365 84.42089844 C17.17515557 90.91012734 17.16157103 97.39939062 17.14648438 103.88867188 C17.11443206 116.59255452 17.06171643 129.2962268 17 142 C4.46 142 -8.08 142 -21 142 C-21.0093457 139.22577637 -21.01869141 136.45155273 -21.02832031 133.59326172 C-21.06223395 124.38108727 -21.11786213 115.16913344 -21.18390274 105.95713615 C-21.22324938 100.37717464 -21.25550042 94.79736792 -21.27099609 89.21728516 C-21.2862474 83.8224479 -21.32084189 78.42803659 -21.36830902 73.03339005 C-21.38303591 70.98517708 -21.39103597 68.93690328 -21.39188385 66.88863754 C-21.08598576 46.25575708 -21.08598576 46.25575708 -30.14453125 28.33203125 C-35.4406575 24.52997009 -40.50337858 23.46465143 -46.9375 23.5625 C-47.64189209 23.57079834 -48.34628418 23.57909668 -49.07202148 23.58764648 C-57.57232825 23.86432738 -62.65814526 26.84726038 -68.3984375 32.94140625 C-76.57838261 43.45562838 -78.10320506 55.59291964 -78.20532227 68.45727539 C-78.21522186 69.24862885 -78.22512146 70.0399823 -78.23532104 70.85531616 C-78.26656955 73.43606717 -78.29154628 76.0168365 -78.31640625 78.59765625 C-78.33700755 80.40083762 -78.35800479 82.20401451 -78.37937927 84.00718689 C-78.43427221 88.72692202 -78.48382445 93.44669834 -78.53222656 98.16650391 C-78.59157162 103.84352824 -78.65761719 109.52047818 -78.72252655 115.1974411 C-78.82012294 123.79824819 -78.90926105 132.39910552 -79 141 C-91.21 141 -103.42 141 -116 141 C-116 91.83 -116 42.66 -116 -8 C-103.79 -8 -91.58 -8 -79 -8 C-78.505 -1.07 -78.505 -1.07 -78 6 C-76.30875 4.659375 -74.6175 3.31875 -72.875 1.9375 C-51.03254644 -14.75104779 -22.15205213 -18.74102817 0 0 Z " fill="#6DA1F8" transform="translate(883,962)"/>
  <path d="M0 0 C12.54 0 25.08 0 38 0 C38 18.48 38 36.96 38 56 C45.26 56 52.52 56 60 56 C60 66.56 60 77.12 60 88 C52.74 88 45.48 88 38 88 C38 126.94 38 165.88 38 206 C25.46 206 12.92 206 0 206 C0 167.06 0 128.12 0 88 C-6.27 88 -12.54 88 -19 88 C-19 77.44 -19 66.88 -19 56 C-12.73 56 -6.46 56 0 56 C0 37.52 0 19.04 0 0 Z " fill="#6DA2F8" transform="translate(940,898)"/>
  <path d="M0 0 C12.54 0 25.08 0 38 0 C38 68.64 38 137.28 38 208 C25.46 208 12.92 208 0 208 C0 139.36 0 70.72 0 0 Z " fill="#6EA2F8" transform="translate(441,896)"/>
  <path d="M0 0 C12.54 0 25.08 0 38 0 C38 68.64 38 137.28 38 208 C25.46 208 12.92 208 0 208 C0 139.36 0 70.72 0 0 Z " fill="#6DA2F8" transform="translate(373,896)"/>
  <path d="M0 0 C-0.62223369 3.37837617 -1.44017092 6.57705104 -2.5234375 9.8359375 C-2.8225 10.73570312 -3.1215625 11.63546875 -3.4296875 12.5625 C-3.89761719 13.9546875 -3.89761719 13.9546875 -4.375 15.375 C-4.67921875 16.29539062 -4.9834375 17.21578125 -5.296875 18.1640625 C-6.98781287 23.22242365 -8.81506877 28.13417157 -11 33 C-12.155 32.67 -13.31 32.34 -14.5 32 C-20.10963065 30.63228087 -24.77352002 29.95224471 -30.1875 32.5 C-39.60101442 40.86756837 -41.19477743 52.98796226 -42 65 C-42.23440907 71.52014348 -42.25642802 78.04678744 -42.31640625 84.5703125 C-42.3370102 86.46174539 -42.3580075 88.35317402 -42.37937927 90.24459839 C-42.43424492 95.19283583 -42.48380891 100.14111233 -42.53222656 105.0894165 C-42.59159706 111.0426251 -42.65762723 116.99576318 -42.72252655 122.94891357 C-42.82008847 131.96589887 -42.90925007 140.98293199 -43 150 C-55.21 150 -67.42 150 -80 150 C-80 100.83 -80 51.66 -80 1 C-69.44 1 -58.88 1 -48 1 C-47.505 8.92 -47.505 8.92 -47 17 C-46.195625 15.659375 -45.39125 14.31875 -44.5625 12.9375 C-34.00741473 -2.82079632 -17.28032513 -6.553261 0 0 Z " fill="#6CA1F8" transform="translate(291,953)"/>
  <path d="M0 0 C7.75762251 6.49845617 12.89759477 14.16544055 16.09375 23.75390625 C16.34758665 26.95763247 16.32509838 30.16616447 16.34375 33.37890625 C16.364375 34.24386719 16.385 35.10882812 16.40625 36 C16.47396654 47.29173269 12.22091256 57.48988944 4.65625 65.87890625 C-5.25744335 75.31961805 -17.50713743 78.27633345 -30.8203125 78.03125 C-39.95344423 77.60650232 -47.14679963 73.67743312 -53.90625 67.75390625 C-54.79763672 67.03654297 -54.79763672 67.03654297 -55.70703125 66.3046875 C-62.42231842 60.39344802 -68.50082637 49.42983705 -69.14453125 40.41796875 C-69.54405793 26.12597207 -66.71979605 14.66383748 -56.90625 3.75390625 C-41.13263354 -11.16451413 -17.62688402 -12.7411716 0 0 Z " fill="#515151" transform="translate(1598.90625,1030.24609375)"/>
  <path d="M0 0 C7.41302044 7.24828666 12.79333165 16.85709842 13.34375 27.3359375 C13.36053522 29.26558011 13.3495226 31.19563957 13.3125 33.125 C13.30041504 34.13578613 13.28833008 35.14657227 13.27587891 36.18798828 C12.94796019 48.52369405 9.52486129 58.58918354 1 67.68359375 C-5.48231315 73.76076233 -13.1825668 78.29975334 -22.1875 78.75 C-23.21746094 78.82347656 -24.24742187 78.89695312 -25.30859375 78.97265625 C-36.63055637 79.45628883 -44.90117925 76.88151365 -53.5625 69.5 C-63.36135082 59.95240176 -68.15853057 49.36184493 -68.66015625 35.61621094 C-68.8065727 22.27662655 -65.48866304 11.36271546 -56.08203125 1.5546875 C-39.74483214 -13.68586658 -17.66710637 -12.47089862 0 0 Z " fill="#FDFEFE" transform="translate(679.1875,994.25)"/>
  <path d="M0 0 C12.21 0 24.42 0 37 0 C37 49.17 37 98.34 37 149 C24.79 149 12.58 149 0 149 C0 99.83 0 50.66 0 0 Z " fill="#6BA0F8" transform="translate(509,954)"/>
  <path d="M0 0 C12.21 0 24.42 0 37 0 C37 49.17 37 98.34 37 149 C24.79 149 12.58 149 0 149 C0 99.83 0 50.66 0 0 Z " fill="#6BA0F8" transform="translate(306,954)"/>
  <path d="M0 0 C39.67567568 0 39.67567568 0 50.75 9.3125 C51.4925 10.199375 52.235 11.08625 53 12 C53.73669922 12.84498047 53.73669922 12.84498047 54.48828125 13.70703125 C63.31632596 24.46278796 64.31852786 36.56475657 63 50 C61.3938518 59.01766353 57.39986615 68.87251611 49.9609375 74.55859375 C34.57941188 85.2845071 19.29607296 82 0 82 C0 54.94 0 27.88 0 0 Z " fill="#515151" transform="translate(1001,1024)"/>
  <path d="M0 0 C34.45714286 0 34.45714286 0 42 6 C48.04986464 12.72207182 48.5261879 18.33319708 48.31640625 27.0625 C47.81223666 33.33661049 46.12585174 36.87414826 41.625 41.375 C38.81885526 43.11213722 36.13511571 44.00678152 33 45 C33.92619141 46.65322266 33.92619141 46.65322266 34.87109375 48.33984375 C39.35249847 56.35901214 43.79639435 64.39715245 48.125 72.5 C48.70979126 73.58462524 48.70979126 73.58462524 49.30639648 74.69116211 C52 79.76496052 52 79.76496052 52 82 C46.39 82 40.78 82 35 82 C34.20335937 80.46730469 33.40671875 78.93460938 32.5859375 77.35546875 C31.51568114 75.29944994 30.44536546 73.24346201 29.375 71.1875 C28.85292969 70.18267578 28.33085938 69.17785156 27.79296875 68.14257812 C27.27089844 67.14033203 26.74882813 66.13808594 26.2109375 65.10546875 C25.73962402 64.19949951 25.26831055 63.29353027 24.78271484 62.36010742 C22.23101369 57.55059455 19.60711098 52.77970346 17 48 C16.67 59.22 16.34 70.44 16 82 C10.72 82 5.44 82 0 82 C0 54.94 0 27.88 0 0 Z " fill="#515151" transform="translate(1658,1024)"/>
  <path d="M0 0 C35.89655172 0 35.89655172 0 43 7 C48.00741485 12.94314389 48.78954448 18.92781092 48.4765625 26.5546875 C47.63131555 32.66540726 45.75263115 37.67894773 40.95703125 41.72265625 C35.94516017 45 35.94516017 45 33 45 C33.54003662 46.01425049 34.08007324 47.02850098 34.63647461 48.07348633 C36.63847856 51.83494597 38.63744625 55.59801201 40.63549805 59.36157227 C41.50088012 60.99059358 42.36708625 62.61917741 43.23413086 64.24731445 C44.4798702 66.58690848 45.72264274 68.92805706 46.96484375 71.26953125 C47.35341049 71.99775589 47.74197723 72.72598053 48.14231873 73.47627258 C49.63302788 76.29170932 50.99058654 78.97175963 52 82 C46.39 82 40.78 82 35 82 C26.2109375 65.88671875 26.2109375 65.88671875 24.62011719 62.96240234 C23.50965753 60.93191447 22.39003551 58.90641835 21.26269531 56.88525391 C20.71452148 55.89831543 20.16634766 54.91137695 19.6015625 53.89453125 C19.10221191 53.0022583 18.60286133 52.10998535 18.08837891 51.19067383 C17 49 17 49 17 47 C16.34 47 15.68 47 15 47 C15 58.55 15 70.1 15 82 C10.05 82 5.1 82 0 82 C0 54.94 0 27.88 0 0 Z " fill="#505050" transform="translate(1166,1024)"/>
  <path d="M0 0 C2.43901466 1.91410613 4.7095087 3.90444413 7 6 C5.55218207 9.44428265 3.72305391 11.36130962 0.875 13.75 C0.15054687 14.36359375 -0.57390625 14.9771875 -1.3203125 15.609375 C-1.87460938 16.06828125 -2.42890625 16.5271875 -3 17 C-6.97278668 15.09599164 -10.63849347 12.77523921 -14.3671875 10.4375 C-21.38084795 6.60808302 -28.14992085 6.12263821 -36 7 C-43.37062119 9.19485257 -48.83307519 13.57599092 -53 20 C-57.01184635 28.06667677 -56.89876877 35.60603958 -54.4375 44.125 C-51.76219646 51.47740764 -47.75382797 55.78982792 -40.875 59.4375 C-33.41665747 62.37255473 -25.16266474 62.11206032 -17.6875 59.375 C-12.97167638 57.22933884 -8.95880284 54.31743255 -5 51 C-1.78475695 52.40844718 0.32183868 54.10344786 2.75 56.625 C3.36359375 57.25664063 3.9771875 57.88828125 4.609375 58.5390625 C5.06828125 59.02117187 5.5271875 59.50328125 6 60 C2.50564499 67.81189943 -5.31703424 71.95767783 -13 75 C-24.86357048 78.50012173 -37.69114925 78.74630802 -49.1015625 73.6015625 C-60.03425191 67.56058857 -67.17525985 58.99533021 -71.40893555 47.23095703 C-72.50807599 43.08228073 -72.48613598 38.95627246 -72.4375 34.6875 C-72.42992676 33.75977783 -72.42235352 32.83205566 -72.41455078 31.8762207 C-72.09675763 18.65764937 -67.2435081 9.83932204 -57.8125 0.8125 C-41.2690699 -13.43167371 -17.46006981 -11.89996991 0 0 Z " fill="#515151" transform="translate(1412,1031)"/>
  <path d="M0 0 C14.52 0 29.04 0 44 0 C44 4.95 44 9.9 44 15 C34.43 15 24.86 15 15 15 C15 19.95 15 24.9 15 30 C24.57 30 34.14 30 44 30 C44 34.95 44 39.9 44 45 C34.43 45 24.86 45 15 45 C15 52.26 15 59.52 15 67 C24.57 67 34.14 67 44 67 C44 71.95 44 76.9 44 82 C29.48 82 14.96 82 0 82 C0 54.94 0 27.88 0 0 Z " fill="#4F4F4F" transform="translate(1258,1024)"/>
  <path d="M0 0 C14.52 0 29.04 0 44 0 C44 4.95 44 9.9 44 15 C34.43 15 24.86 15 15 15 C15 19.95 15 24.9 15 30 C24.57 30 34.14 30 44 30 C44 34.95 44 39.9 44 45 C34.43 45 24.86 45 15 45 C15 52.26 15 59.52 15 67 C24.57 67 34.14 67 44 67 C44 71.95 44 76.9 44 82 C29.48 82 14.96 82 0 82 C0 54.94 0 27.88 0 0 Z " fill="#4F4F4F" transform="translate(1809,1024)"/>
  <path d="M0 0 C7.35982697 4.64614775 12.13900648 9.83949992 14.67578125 18.23828125 C16.29213561 26.23025558 15.39890332 33.39654648 11.09765625 40.32421875 C6.25028222 47.22098889 1.00161473 50.68956592 -6.90234375 53.32421875 C-15.81461523 54.53188504 -22.47161766 52.24544524 -29.90234375 47.32421875 C-35.75918303 42.37818715 -38.49372299 36.38318495 -39.25390625 28.83203125 C-39.61582241 19.36506651 -38.50048091 12.39371306 -32.03515625 5.265625 C-22.99286604 -3.19612907 -11.31108422 -5.8505608 0 0 Z " fill="#FCFCFC" transform="translate(1584.90234375,1039.67578125)"/>
  <path d="M0 0 C5.7579228 3.32763071 8.95357013 5.38392533 11.5 11.75 C8.2 14.72 4.9 17.69 1.5 20.75 C-0.51822917 19.22005208 -2.53645833 17.69010417 -4.5546875 16.16015625 C-8.27098118 13.46621645 -10.92597566 13.50496298 -15.5 13.75 C-17.69952122 15.56350588 -17.69952122 15.56350588 -17.89453125 18.078125 C-17.35368895 21.74085899 -15.85091327 22.9649939 -13.1875 25.5 C-12.27742188 26.36882812 -11.36734375 27.23765625 -10.4296875 28.1328125 C-7.6218534 30.64114429 -4.75131391 33.02232072 -1.8125 35.375 C5.37185607 41.13671131 12.63587845 47.54272686 13.96875 57.1171875 C14.03615222 64.68308648 13.74287322 70.05062331 8.5 75.75 C2.43726784 81.81273216 -3.50458641 83.88606897 -11.875 84.25 C-19.66527664 84.0248475 -25.14908359 81.86790567 -30.859375 76.5546875 C-36.76115908 70.21340886 -36.76115908 70.21340886 -37.5 65.75 C-36.08833114 64.76364163 -34.67043816 63.78618745 -33.25 62.8125 C-32.46109375 62.26722656 -31.6721875 61.72195313 -30.859375 61.16015625 C-28.67363007 59.85377559 -26.9846199 59.20019489 -24.5 58.75 C-24.10167969 59.23210937 -23.70335937 59.71421875 -23.29296875 60.2109375 C-22.76316406 60.84257813 -22.23335937 61.47421875 -21.6875 62.125 C-21.16542969 62.75148438 -20.64335938 63.37796875 -20.10546875 64.0234375 C-18.08121275 66.2003746 -16.36223209 67.61344022 -13.37890625 68.0859375 C-8.39252623 68.17807145 -8.39252623 68.17807145 -3.9375 66.125 C-2.02224778 62.96067025 -1.84329413 61.39836596 -2.5 57.75 C-6.94597054 50.8510802 -14.19609287 46.15555839 -20.55859375 41.12109375 C-27.01191321 35.84633152 -32.67282036 29.4448137 -33.90625 20.953125 C-34.11454719 14.39176352 -33.48526601 9.91138676 -29.3828125 4.6640625 C-21.32717188 -3.5252817 -10.36696447 -4.97490694 0 0 Z " fill="#515151" transform="translate(1925.5,1024.25)"/>
  <path d="M0 0 C33.30232558 0 33.30232558 0 44 10 C49.95468727 17.9761469 50.96648382 25.09354084 50 35 C47.97200468 40.64691801 43.9598399 44.72463403 39 48 C26.25950169 53.04135612 13.84162782 52 0 52 C0 34.84 0 17.68 0 0 Z " fill="#FDFDFE" transform="translate(99,1015)"/>
  <path d="M0 0 C4.29893606 2.03850123 7.52801128 4.62157085 10.60546875 8.28125 C11.07210937 8.79945313 11.53875 9.31765625 12.01953125 9.8515625 C16.24591975 15.30572866 16.39400094 20.83857451 16.15234375 27.578125 C15.09954503 34.70707633 11.76088897 39.94265264 6.04296875 44.28125 C-0.54613474 48.11491021 -5.81046607 49.15347068 -13.39453125 48.28125 C-16.34791979 47.31504869 -18.80172027 45.97814689 -21.39453125 44.28125 C-22.28140625 43.745 -23.16828125 43.20875 -24.08203125 42.65625 C-29.74555311 36.83965998 -31.74193812 30.78381572 -32.08203125 22.71875 C-31.81481441 15.74298417 -30.43525184 11.17882639 -25.39453125 6.28125 C-17.54683006 0.08984755 -10.08784942 -3.02800048 0 0 Z " fill="#6DA1F8" transform="translate(535.39453125,892.71875)"/>
  <path d="M0 0 C4.76019053 3.4626804 8.47182437 8.10687936 10.3359375 13.69921875 C10.98209506 21.9403758 11.22396681 29.71221215 6.3359375 36.69921875 C1.86584377 41.72254191 -3.48599622 45.19183739 -10.26953125 46.015625 C-17.76403169 46.3360795 -22.84498859 44.87281538 -28.60546875 40.0859375 C-33.16249497 35.79529277 -36.31217025 31.70410253 -37.0625 25.296875 C-36.99517159 15.14150661 -35.9981315 9.19997114 -28.6640625 1.69921875 C-19.66007215 -4.65415871 -9.66769951 -5.32180935 0 0 Z " fill="#6DA1F8" transform="translate(337.6640625,895.30078125)"/>
  <path d="M0 0 C14.85 0 29.7 0 45 0 C45 4.95 45 9.9 45 15 C40.05 15 35.1 15 30 15 C30 37.11 30 59.22 30 82 C24.72 82 19.44 82 14 82 C14 59.89 14 37.78 14 15 C9.38 15 4.76 15 0 15 C0 10.05 0 5.1 0 0 Z " fill="#515151" transform="translate(1452,1024)"/>
  <path d="M0 0 C18.89473684 0 18.89473684 0 26 6 C33.25958365 14.4354317 33.76019567 22.00621861 33.2265625 32.83007812 C32.5727566 39.09196051 29.50072542 43.94560437 24.875 48.0625 C16.64172132 53.61101389 12.46913433 51 0 51 C0 34.17 0 17.34 0 0 Z " fill="#FDFDFD" transform="translate(1015,1039)"/>
  <path d="M0 0 C23.38461538 0 23.38461538 0 29.9375 5.4375 C30.9584375 6.7059375 30.9584375 6.7059375 32 8 C32.5775 8.680625 33.155 9.36125 33.75 10.0625 C36.62014819 14.5112297 36.58193537 19.87732945 36 25 C34.22321137 31.26444906 31.53192526 35.38297194 26 39 C18 42 18 42 0 42 C0 28.14 0 14.28 0 0 Z " fill="#FDFEFE" transform="translate(99,938)"/>
  <path d="M0 0 C4.95 0 9.9 0 15 0 C15 27.06 15 54.12 15 82 C10.05 82 5.1 82 0 82 C0 54.94 0 27.88 0 0 Z " fill="#4E4E4E" transform="translate(1749,1024)"/>
  <path d="M0 0 C4.95 0 9.9 0 15 0 C15 27.06 15 54.12 15 82 C10.05 82 5.1 82 0 82 C0 54.94 0 27.88 0 0 Z " fill="#4F4F4F" transform="translate(1105,1024)"/>
  <path d="M0 0 C12.17703595 -0.49200145 12.17703595 -0.49200145 15.89453125 1.73046875 C18 4 18 4 18.59375 6.25390625 C18.54734375 7.39666016 18.54734375 7.39666016 18.5 8.5625 C18.4896875 9.32691406 18.479375 10.09132813 18.46875 10.87890625 C17.89349726 13.48192489 17.08835141 14.37955751 15 16 C10.09931037 17.63356321 5.14261524 17.05529694 0 17 C0 11.39 0 5.78 0 0 Z " fill="#F3F3F3" transform="translate(1673,1039)"/>
  <path d="M0 0 C11.6283557 -0.28020134 11.6283557 -0.28020134 16 2 C18.48038907 5.7205836 18.46337203 7.59796571 18 12 C15.78136971 14.90717073 14.48055071 15.83981643 11 17 C7.32893957 17.13281695 3.67480286 17.04323297 0 17 C0 11.39 0 5.78 0 0 Z " fill="#F7F7F7" transform="translate(1181,1039)"/>
</svg>