<?xml version="1.0" encoding="utf-8"?>
<svg version="1.2" baseProfile="tiny-ps" id="Layer_1" 
	 xmlns="http://www.w3.org/2000/svg" xmlns:xlink="http://www.w3.org/1999/xlink" viewBox="0 0 552.73 552.73"
	 xml:space="preserve">
	<title>AMSOIL</title>
	<desc>The AMSOIL logo is a registered trademark displayed with AMS in the color red and OIL in the color blue surrounded by a grey and black outline.</desc>
		<g>
			<path fill="#FFFFFF" d="M125.42,222.29l-0.03,0c-2.89,0.06-6.15,2.01-7.38,3.8l-16.01,22.77c-0.56,0.79-0.85,1.72-0.85,2.68
				c0,0.75,0.18,1.49,0.53,2.15c0,0,0.31,0.47,0.31,0.47c0.03,0.04,0.02,0.03,0.02,0.03c1.39,1.87,2.46,2.01,3.81,2.01
				c0,0,5.84-0.01,10.32-0.02c-6.88,5.51-60.82,48.73-60.82,48.73c-1.11,0.89-1.75,2.21-1.75,3.64l0.23,1.53l0.06,0.01
				c0.89,1.89,2.61,3.12,4.37,3.12l52.96,0.06c0.31,0,0.52,0.11,0.66,0.33c0.09,0.14,0.11,0.27,0.11,0.34
				c-0.19,0.3-5.67,8.97-5.67,8.97c-0.48,0.75-0.72,1.61-0.72,2.5c0,0.67,0.16,1.35,0.48,2.01l0.03,0.06l0.04,0.06
				c1.07,1.83,2.58,2.67,4.49,2.51c0,0,278.66-22.43,281.66-22.67c0.14,0,80.1,0.02,80.1,0.02c1.56,0,3.01-0.78,3.88-2.08
				c17.39-26.11,20.58-30.9,21.16-32.07c-0.08,0.26-0.16,0.53-0.16,0.53c0.51-0.77,0.78-1.66,0.78-2.58l-0.15-1.15
				c-0.02-0.06-0.38-1.01-0.38-1.01c-3.44-6.55-15.85-7.21-19.57-7.25l0,0c2.87-4.57,20.33-32.36,20.33-32.36
				c0.47-0.75,0.72-1.61,0.72-2.49v-0.21l-0.01,0.04l-0.41-1.71c0.02,0.04-0.16-0.36-0.16-0.36c-0.83-1.49-2.39-2.42-4.08-2.42
				L125.42,222.29z"/>
			<path fill="#FFFFFF" d="M125.42,222.29l-0.03,0c-2.89,0.06-6.15,2.01-7.38,3.8l-16.01,22.77c-0.56,0.79-0.85,1.72-0.85,2.68
				c0,0.75,0.18,1.49,0.53,2.15c0,0,0.31,0.47,0.31,0.47c0.03,0.04,0.02,0.03,0.02,0.03c1.39,1.87,2.46,2.01,3.81,2.01
				c0,0,5.84-0.01,10.32-0.02c-6.88,5.51-60.82,48.73-60.82,48.73c-1.11,0.89-1.75,2.21-1.75,3.64l0.23,1.53l0.06,0.01
				c0.89,1.89,2.61,3.12,4.37,3.12l52.96,0.06c0.31,0,0.52,0.11,0.66,0.33c0.09,0.14,0.11,0.27,0.11,0.34
				c-0.19,0.3-5.67,8.97-5.67,8.97c-0.48,0.75-0.72,1.61-0.72,2.5c0,0.67,0.16,1.35,0.48,2.01l0.03,0.06l0.04,0.06
				c1.07,1.83,2.58,2.67,4.49,2.51c0,0,278.66-22.43,281.66-22.67c0.14,0,80.1,0.02,80.1,0.02c1.56,0,3.01-0.78,3.88-2.08
				c17.39-26.11,20.58-30.9,21.16-32.07c-0.08,0.26-0.16,0.53-0.16,0.53c0.51-0.77,0.78-1.66,0.78-2.58l-0.15-1.15
				c-0.02-0.06-0.38-1.01-0.38-1.01c-3.44-6.55-15.85-7.21-19.57-7.25l0,0c2.87-4.57,20.33-32.36,20.33-32.36
				c0.47-0.75,0.72-1.61,0.72-2.49v-0.21l-0.01,0.04l-0.41-1.71c0.02,0.04-0.16-0.36-0.16-0.36c-0.83-1.49-2.39-2.42-4.08-2.42
				L125.42,222.29z"/>
			<path fill="#FFFFFF" d="M125.42,222.29l-0.03,0c-2.89,0.06-6.15,2.01-7.38,3.8l-16.01,22.77c-0.56,0.79-0.85,1.72-0.85,2.68
				c0,0.75,0.18,1.49,0.53,2.15c0,0,0.31,0.47,0.31,0.47c0.03,0.04,0.02,0.03,0.02,0.03c1.39,1.87,2.46,2.01,3.81,2.01
				c0,0,5.84-0.01,10.32-0.02c-6.88,5.51-60.82,48.73-60.82,48.73c-1.11,0.89-1.75,2.21-1.75,3.64l0.23,1.53l0.06,0.01
				c0.89,1.89,2.61,3.12,4.37,3.12l52.96,0.06c0.31,0,0.52,0.11,0.66,0.33c0.09,0.14,0.11,0.27,0.11,0.34
				c-0.19,0.3-5.67,8.97-5.67,8.97c-0.48,0.75-0.72,1.61-0.72,2.5c0,0.67,0.16,1.35,0.48,2.01l0.03,0.06l0.04,0.06
				c1.07,1.83,2.58,2.67,4.49,2.51c0,0,278.66-22.43,281.66-22.67c0.14,0,80.1,0.02,80.1,0.02c1.56,0,3.01-0.78,3.88-2.08
				c17.39-26.11,20.58-30.9,21.16-32.07c-0.08,0.26-0.16,0.53-0.16,0.53c0.51-0.77,0.78-1.66,0.78-2.58l-0.15-1.15
				c-0.02-0.06-0.38-1.01-0.38-1.01c-3.44-6.55-15.85-7.21-19.57-7.25l0,0c2.87-4.57,20.33-32.36,20.33-32.36
				c0.47-0.75,0.72-1.61,0.72-2.49v-0.21l-0.01,0.04l-0.41-1.71c0.02,0.04-0.16-0.36-0.16-0.36c-0.83-1.49-2.39-2.42-4.08-2.42
				L125.42,222.29z"/>
			<path fill="#005BAA" d="M362.22,233.04c0,0,35.69-0.04,40.5,0.01c7.58,0.88,9.54,6.76,7.16,10.76l-29.25,45.71
				c-4.53,7.46-11.37,8.49-12.18,8.51c0,0-38.02-0.03-38.48-0.01c-8.03,0.21-11.17-6.88-8.37-11.43l30.36-48.07
				C355.39,233.42,362.22,233.04,362.22,233.04z M360.41,280.2c0,0,1.81-0.23,3.09-2.05c1.28-1.83,15.67-24.05,15.67-24.05
				s2.55-3.71-0.44-3.98c-3.19-0.29-7-0.18-7-0.18s-3-0.23-4.53,2.68c-1.53,2.9-15.28,24.39-15.28,24.39s-2.54,3.11,0.26,3.22
				L360.41,280.2z"/>
			<polygon fill="#005BAA" points="383.7,298.01 425.22,233.13 449.69,233.05 408.26,298.02 			"/>
			<path fill="#005BAA" d="M416.33,298l41.43-64.88l25.35-0.02l-28.15,44.04c2.68,0.65,5.48-0.95,5.48-0.95
				c8.61-4.43,19.66-4.9,22.93-1.58l-15,23.37L416.33,298z"/>
			<path fill="#ED1C24" d="M125.69,232.97l71.65,0.07l0.64,1.07l-42.83,67.6l167.32,0.13c7.21,0.17,3.12,1.9-0.51,2.35L122.1,319.1
				l-0.67-1.03l18.06-28.5l-20.8-0.03l-16.12,13.6l-21.35-0.02l-1.52-1.18l65.54-54.98h-27.12l-0.76-0.9L125.69,232.97z
				 M148.7,274.43l12.32-20.91l-24.75,20.9L148.7,274.43z"/>
			<polygon fill="#ED1C24" points="165.2,297.8 206.21,233.2 228.27,233.16 226.09,260.59 255.14,232.97 278.61,232.88 
				279.08,233.9 238.93,297.88 214.47,297.8 231.16,271.06 205.66,292.81 206.48,272.68 189.65,297.83 			"/>
			<path fill="#ED1C24" d="M246.03,297.76l17.09-27.2c5,9.72,19,14.19,26.06,10.06c2.88-1.68,1.61-4.87,1.61-4.87
				s-12.35-20.63-13.29-22.21c-0.93-1.59-0.09-6.54,0.8-8.53c0,0,1.9-3.81,3.5-6.51c2.03-3.43,9.6-5.49,9.6-5.49l56.52,0.02
				l-17.84,27.55c-3.95-10.82-17.29-12-19.87-12.2c-7-0.53-8.2,4.16-7.06,5.74l13.12,21.32c1.66,3.36,0.95,5.88,0.29,7.33
				c0,0-3.24,5.46-5.8,9.1c-1.97,2.8-5.43,5.19-9.01,5.92L246.03,297.76z"/>
			<path fill="#BCBEC0" stroke="#BCBEC0" stroke-width="0.3249" d="M55.41,308.74c0-0.89,0.4-1.72,1.09-2.27l64.71-51.85h-0.17
				L111,258.13c0.08,0,0.15,0,0.23,0c-6.83,5.47-56.92,45.6-56.92,45.6c-1.53,1.22-2.4,3.04-2.4,5c0,0.72,0.12,1.44,0.36,2.12
				c0.01,0.04,0.03,0.07,0.05,0.11l3.2-1.44C55.45,309.27,55.41,309.01,55.41,308.74z"/>
			<path fill="#BCBEC0" stroke="#BCBEC0" stroke-width="0.3249" d="M102.97,251.73c0-0.59,0.18-1.17,0.53-1.67l16.02-22.79
				c0.93-1.35,3.65-3,5.98-3.05c0,0,368.9-0.01,368.9-0.01c1.06,0,2.04,0.58,2.55,1.5c0.04,0.08,0.06,0.16,0.1,0.24l2.99-1.88
				c-0.01-0.02-0.02-0.04-0.03-0.05c-1.13-2.04-3.28-3.31-5.61-3.31l-369.19,0.01c-4.08,0.05-7.8,3.47-9,5.17l-15.57,22.14
				c-1.38,1.97-1.55,4.51-0.44,6.65c0.07,0.14,0.17,0.27,0.25,0.41l3.07-1.72c-0.07-0.1-0.16-0.19-0.22-0.31
				C103.08,252.65,102.97,252.19,102.97,251.73z"/>
			<path fill="#BCBEC0" stroke="#BCBEC0" stroke-width="0.3249" d="M481.12,260.37l-6.05,3c-0.12,0.19-0.19,0.31-0.19,0.31
				l3.12,0.04c7.17,0.09,15.67,1.79,18.04,6.31c0.1,0.19,0.17,0.39,0.23,0.6l3.26-1.29c-0.11-0.32-0.23-0.63-0.39-0.93
				C495.98,262.4,486.98,260.78,481.12,260.37z"/>
			<path fill="#BCBEC0" stroke="#BCBEC0" stroke-width="0.3249" d="M107.71,326.85c-0.19-0.39-0.31-0.82-0.31-1.26
				c0-0.55,0.16-1.09,0.45-1.56c0,0,5.08-7.97,5.73-9.06c0.34-0.57,0.27-1.41-0.16-2.11l-4.13,2.33c0,0,0.01,0,0.01,0
				c-1.77,2.79-4.41,6.97-4.41,6.97c-0.65,1.03-0.99,2.21-0.99,3.42c0,1.08,0.29,2.14,0.81,3.09
				C104.27,327.76,107.06,325.73,107.71,326.85z"/>
			<g>
				<path fill="#BCBEC0" stroke="#BCBEC0" stroke-width="0.3249" d="M411.21,236.45c-0.29-0.59-0.67-1.12-1.09-1.62l-1.95,1.3
					c0.38,0.41,0.71,0.86,0.95,1.36c0.81,1.64,0.72,3.58-0.24,5.19c0.02-0.03-29.23,45.68-29.23,45.68
					c-4.46,7.35-11.16,7.97-11.23,7.97c-3.86,0-38.02-0.03-38.49-0.01c-3.16,0.08-5.73-1.12-7.13-3.28l-1.93,1.29
					c1.85,2.85,5.14,4.43,9.14,4.32c0.61-0.01,25.41,0,38.45,0.01c0.11,0,8.01-0.57,13.17-9.07c-0.01,0.02,29.24-45.69,29.24-45.69
					C412.25,241.58,412.37,238.8,411.21,236.45z"/>
				<path fill="#BCBEC0" stroke="#BCBEC0" stroke-width="0.3249" d="M352.18,278.54L352.18,278.54
					C352.18,278.54,352.18,278.54,352.18,278.54L352.18,278.54c0,0-0.05-0.01-0.08-0.02c0.09-0.33,0.38-0.87,0.72-1.3
					c0.64-0.99,13.88-21.67,15.41-24.58c1.14-2.16,3.33-2.06,3.42-2.06c0.15,0,3.89-0.1,6.97,0.18c0.27,0.02,0.36,0.08,0.38,0.09
					c0.01,0.03,0.02,0.06,0.02,0.1c0,0.01,0,0.02-0.01,0.03l2.19-0.85c-0.03-0.1-0.05-0.21-0.09-0.3c-0.27-0.57-0.88-1.27-2.28-1.4
					c-3.23-0.29-6.98-0.19-7.14-0.18c-0.03-0.01-3.67-0.24-5.53,3.3c-1.48,2.81-14.92,23.82-15.21,24.28
					c-0.38,0.48-1.25,1.7-1.25,2.9c0,0.29,0.05,0.59,0.18,0.87c0.02,0.03,0.04,0.07,0.06,0.11l2.28-1.17
					C352.21,278.54,352.18,278.54,352.18,278.54z"/>
				<path fill="#BCBEC0" stroke="#BCBEC0" stroke-width="0.3249" d="M156.86,258.7l9.14-10.66l0.12-0.21l-5.23,4.42l-27.15,22.93
					l6.35-2.32C143.07,270.35,151.18,263.5,156.86,258.7z"/>
				<path fill="#BCBEC0" stroke="#BCBEC0" stroke-width="0.3249" d="M235.54,266.18c0,0-24.07,19.91-27.82,23.35
					c0-0.02,0-0.04,0-0.05l-1.89,3.58c0.66,0.33,1.69,0.18,3.14-0.93c2.92-2.24,8.3-6.28,15.65-12.95c0.07-0.07,0.15-0.13,0.22-0.2
					l10.6-12.63C235.5,266.25,235.54,266.18,235.54,266.18z"/>
				<path fill="#BCBEC0" stroke="#BCBEC0" stroke-width="0.3249" d="M278.17,233.75c0.02,0,0.05,0,0.05,0
					c-2.11,3.36-38.66,61.53-39.32,62.57c-1.11,0-18.12-0.06-21.66-0.07l-2.82,1.64c0.21,0.43,0.69,0.76,1.62,0.77
					c2.26,0.03,19.08,0.03,21.41,0c2.33-0.04,2.96-0.4,4.06-2.11c1.1-1.71,38.5-61.42,38.79-61.88c0.39-0.61,0.41-1.43,0.11-2.1
					L278.17,233.75z"/>
				<path fill="#BCBEC0" stroke="#BCBEC0" stroke-width="0.3249" d="M225.3,263.1l2.81-5.88c0,0,0,0,0,0
					c0.39-4.87,1.89-23.11,1.87-23.47c-0.02-0.23,0.09-1-0.41-1.55l-1.94,1.77C227.43,236.35,225.38,262.15,225.3,263.1z"/>
				<path fill="#BCBEC0" stroke="#BCBEC0" stroke-width="0.3249" d="M208.65,267.56c0-0.05,0-0.08,0-0.08s-17.68,26.72-18.96,28.7
					c-0.03,0.04-0.05,0.08-0.07,0.1c-1.1,0-18.21-0.02-21.68-0.02l-2.59,1.62c0.27,0.4,0.76,0.69,1.53,0.71
					c1.82,0.04,19.66,0,21.48,0.02c1.82,0.02,2.49-0.03,3.53-1.54c1.03-1.51,9.62-14.1,13.46-20.11l3.28-9.31
					C208.65,267.62,208.65,267.58,208.65,267.56z"/>
				<path fill="#BCBEC0" stroke="#BCBEC0" stroke-width="0.3249" d="M320.16,302.62c1.53,0,2.41,0,2.47,0
					c-0.07,0.01-0.13,0.02-0.2,0.03c0.04,0-176.29,13.15-198.81,14.83c-0.02,0-0.04,0-0.06,0c0.01-0.01,0.02-0.04,0.03-0.05
					l-2.56,1.29c0.25,0.66,1.01,1.2,2.81,1.12c3.65-0.18,198.82-14.87,198.82-14.87c2.11-0.26,5.5-0.95,5.56-2.69L320.16,302.62z"/>
				<path fill="#BCBEC0" stroke="#BCBEC0" stroke-width="0.3249" d="M197.15,233.82c-2.1,3.31-41.52,65.53-43.43,68.55l4.17-2.23
					c2.33-3.68,41.23-65.07,41.65-65.73c0.22-0.35,0.22-1.13-0.11-1.8l-2.36,1.22C197.11,233.82,197.14,233.82,197.15,233.82z"/>
				<path fill="#BCBEC0" stroke="#BCBEC0" stroke-width="0.3249" d="M149.06,245.43c0,0-0.07,0-0.18,0c-2.21,0-25.86,0-29.34,0
					c0,0,0,0-0.01,0c0.01-0.02,0.03-0.04,0.04-0.06l-2.83,1.47c0.22,0.51,0.73,0.93,1.7,0.92c1.94-0.03,19.19,0,24.13,0
					L149.06,245.43L149.06,245.43z"/>
				<path fill="#BCBEC0" stroke="#BCBEC0" stroke-width="0.3249" d="M142.16,288.04l-23.27-0.03c0,0-15.49,13.07-16.12,13.6
					c-0.71,0-15.88-0.01-20.63-0.02c-0.01,0-0.02,0-0.03,0c0.01-0.01,0.02-0.02,0.03-0.02l-3.05,0.97c0.16,0.73,0.75,1.37,2.08,1.38
					c2.67,0.02,20.78,0.02,20.78,0.02c0,0,1.42,0.28,3.13-1.16c4.51-3.81,14.21-12.06,14.66-12.44c0.73,0,14.88,0.02,18.24,0.02
					c0,0,0,0,0.01,0l4.21-2.32H142.16z"/>
				<path fill="#BCBEC0" stroke="#BCBEC0" stroke-width="0.3249" d="M346.39,233.81c0,0,0.01,0,0.02,0
					c-0.01,0.01-0.02,0.03-0.03,0.05c-1.98,3.06-13.75,21.24-15.55,24.01c-4.56-8.79-15.25-10.67-19.9-11.03
					c-5.41-0.41-7.44,2.11-8.06,3.22c-0.83,1.48-0.85,3.23-0.04,4.36c-0.04-0.06,13.08,21.25,13.08,21.25
					c0.57,1.16,0.86,2.29,0.86,3.41c0,0.96-0.21,1.9-0.64,2.83c-0.01,0-3.21,5.37-5.7,8.92c-1.86,2.64-5.08,4.76-8.22,5.42
					c-0.3,0-47.93-0.02-53.21-0.02c-0.09,0-0.17,0-0.23,0c0.02-0.03,0.05-0.07,0.07-0.11l-2.86,1.5c0.22,0.53,0.76,0.96,1.71,0.94
					c1.84-0.04,54.81,0.03,54.81,0.03l0.11-0.02c3.78-0.77,7.51-3.22,9.74-6.39c2.55-3.64,5.82-9.12,5.85-9.18
					c1.28-2.77,1.17-5.58-0.25-8.44c-0.05-0.09-13.17-21.42-13.17-21.42c-0.24-0.34-0.32-1.12,0.14-1.93
					c0.85-1.51,2.98-2.25,5.85-2.03c4.54,0.35,15.48,2.16,18.87,11.44c0,0,1.3,1.44,2.5-0.42c1.19-1.86,15.49-23.97,16.65-25.73
					c0.47-0.7,0.36-1.42,0.04-1.98L346.39,233.81z"/>
				<path fill="#BCBEC0" stroke="#BCBEC0" stroke-width="0.3249" d="M447.47,233.69c0.03,0,0.07,0,0.1,0
					c-2.15,3.37-39.29,61.61-39.94,62.64c-1.1,0-18.15-0.01-21.73-0.01L383.1,298c0.24,0.38,0.63,0.64,1.12,0.64l23.51,0.01
					c0.64,0,1.45-0.44,1.79-0.98l40.81-64.04c0.33-0.5,0.28-0.96,0.05-1.34L447.47,233.69z"/>
				<path fill="#BCBEC0" stroke="#BCBEC0" stroke-width="0.3249" d="M453.13,277.32c0,0-0.01,0.01-0.01,0.02l3.96-1.88
					c0-0.01,0.01-0.01,0.01-0.02c1.99-3.11,21.09-33.17,26.66-41.79c0.31-0.47,0.26-1.09-0.07-1.55l-2.72,1.68
					C478.75,237.24,453.74,276.36,453.13,277.32z"/>
				<path fill="#BCBEC0" stroke="#BCBEC0" stroke-width="0.3249" d="M481.64,274.62c-1.76,2.74-13.3,20.72-13.91,21.67
					c-1.18,0-44.76,0.01-49.16,0.02l-2.68,1.58c0.26,0.43,0.76,0.75,1.67,0.75c2.23-0.01,48.56-0.02,48.56-0.02s2.2-0.06,2.68-0.31
					c0.49-0.24,1.46-1.65,1.46-1.65s13.05-20.22,13.55-21.1c0.45-0.81,0.39-1.52,0.23-2.02l-2.28,0.9
					C481.72,274.49,481.68,274.54,481.64,274.62z"/>
			</g>
			<g>
				<g>
					<path stroke="#000000" stroke-width="0.3249" d="M105.9,258.14c0,0,2.54-0.01,5.1-0.01l10.04-3.52l-15.15,0.03
						c-0.96,0-1.44-0.01-2.37-1.26c-0.93-1.25-3.65,0.69-3.07,1.72C101.43,256.89,103.66,258.15,105.9,258.14z"/>
					<path stroke="#000000" stroke-width="0.3249" d="M497.32,227.13c0,0.55-0.15,1.08-0.45,1.55c0,0-19.7,31.35-21.8,34.7l6.05-3
						c-0.01,0-0.02,0-0.03,0c2.71-4.31,18.74-29.83,18.74-29.83c0.64-1.02,0.98-2.2,0.98-3.41c0-1.06-0.28-2.05-0.77-3.05
						c-0.5-1-3.35,1.07-2.99,1.88C497.25,226.4,497.25,226.4,497.32,227.13z"/>
					<path stroke="#000000" stroke-width="0.3249" d="M496.37,271.39c0,0.58-0.17,1.13-0.49,1.61c0,0-21.01,31.54-21.01,31.54
						c-0.54,0.81-1.45,1.3-2.42,1.3c-0.01,0-80.17-0.02-80.17-0.02L110.55,328.5c-1.36,0.11-2.18-0.52-2.84-1.65
						c-0.66-1.12-3.45,0.91-3,1.83c0.45,0.92,0.07,0.15,0.12,0.23c1.27,2.09,3.57,3.27,6,3.07c0,0,278.55-22.42,281.59-22.67
						c0.15,0,80.03,0.02,80.03,0.02c2.15,0,4.14-1.07,5.33-2.86l21-31.54c0.7-1.05,1.08-2.28,1.08-3.55c0-0.69-0.04-1.19-0.35-2.05
						c-0.31-0.86-3.51,0.2-3.26,1.29C496.35,271.02,496.37,271.13,496.37,271.39z"/>
				</g>
				<g>
					<path stroke="#000000" stroke-width="0.3249" d="M111.29,311.71c-2.11-0.01-52.97-0.07-52.97-0.07c-1.24,0-2.28-1.03-2.79-2.12
						c-0.51-1.08-3.71-0.11-3.2,1.44c0.76,2.3,3.32,4.17,6,4.17c0,0,44.1,0.06,50.73,0.06c0.09,0,0.17,0,0.25,0l4.13-2.33
						C113.03,312.23,112.31,311.72,111.29,311.71z"/>
				</g>
			</g>
			<g>
				<path stroke="#000000" stroke-width="0.3249" d="M322.61,292.76c-0.56-0.97-0.84-2.05-0.84-3.1c0-1.05,0.28-2.08,0.83-2.98
					l30.35-48.06c3.01-4.48,9.15-4.93,9.32-4.94c1,0,35.74-0.04,40.44,0.01c2.27,0.14,4.47,1.34,5.46,2.45
					c0.64,0.71,2.52-0.56,1.95-1.3c-1.47-1.9-4.33-3.25-7.26-3.47c-4.88-0.06-40.28-0.02-40.64-0.02l-0.06,0
					c-0.3,0.02-7.45,0.48-11.16,6c-0.02,0.03-30.38,48.1-30.38,48.1c-1.57,2.55-1.58,5.8-0.03,8.48c0.07,0.13,0.18,0.28,0.25,0.36
					c0.33,0.44,2.54-0.42,1.91-1.33C322.64,292.8,322.65,292.83,322.61,292.76z"/>
				<path stroke="#000000" stroke-width="0.3249" d="M352.14,280.87c0.05,0,8.34-0.04,8.34-0.04l0.07-0.01
					c0.1-0.01,2.34-0.31,3.9-2.53c1.28-1.82,15.1-23.17,15.69-24.08c0.27-0.39,1.56-2.43,1.06-4.07l-2.19,0.85
					c-0.01,0.39-0.33,1.23-0.81,1.93c-0.16,0.25-14.4,22.25-15.66,24.03c-0.91,1.29-2.1,1.53-2.26,1.55c-0.2,0-7.61,0.03-8.07,0.04
					l-2.28,1.17C350.22,280.23,350.81,280.82,352.14,280.87z"/>
				<path stroke="#000000" stroke-width="0.3249" d="M153.65,302.49c0,0,145.74,0.11,166.51,0.13l8.07-0.33
					c0-0.02,0.01-0.03,0.01-0.05c0-0.02,0-0.05,0-0.07c-0.07-1.48-1.86-1.8-5.12-1.88c-0.03,0-146.02-0.11-165.23-0.13
					c0.01-0.01,0.01-0.02,0.02-0.03l-4.17,2.23C153.68,302.44,153.65,302.49,153.65,302.49z"/>
				<path stroke="#000000" stroke-width="0.3249" d="M156.86,258.7c0.1-0.08,0.2-0.17,0.3-0.25c-3.45,5.85-8.05,13.67-8.51,14.44
					c-0.87,0-5.31,0-8.58-0.01c0,0,0.01-0.01,0.02-0.01l-6.35,2.32l-0.03,0.02l16.27,0.01L166,248.04L156.86,258.7z"/>
				<path stroke="#000000" stroke-width="0.3249" d="M217.18,296.26c-0.01,0-0.01,0-0.02,0c1.79-2.93,16.36-26.78,18.19-29.77
					c0.04-0.06,0.06-0.1,0.09-0.14l-10.6,12.63c0.07-0.06,0.14-0.13,0.21-0.19c-5,8.19-9.99,16.34-10.45,17.18
					c-0.26,0.49-0.48,1.32-0.18,1.93l2.82-1.64C217.23,296.26,217.2,296.26,217.18,296.26z"/>
				<path stroke="#000000" stroke-width="0.3249" d="M207.75,289.22c0.4-4.72,0.86-19.9,0.91-21.57l-3.28,9.31
					c0.02-0.03,0.05-0.07,0.07-0.1c0,0.02,0,0.05,0,0.07c-0.52,5.62-0.51,12.3-0.56,14.06c-0.02,0.89,0.28,1.74,0.96,2.08l1.89-3.58
					C207.73,289.4,207.74,289.31,207.75,289.22z"/>
				<path stroke="#000000" stroke-width="0.3249" d="M167.94,296.26C167.94,296.26,167.94,296.26,167.94,296.26
					c2.12-3.35,38.88-61.24,39.53-62.27c1.12,0,17.59-0.03,20.06-0.04c0.03,0,0.06,0,0.09,0c0,0.01,0,0.02,0,0.03l1.94-1.77
					c-0.31-0.34-0.85-0.6-1.79-0.59c-2.48,0.03-17.24-0.03-19.15-0.03c-1.91-0.01-2.92,0.73-3.97,2.51
					c-1.06,1.78-38.73,60.87-39.3,61.91c-0.33,0.59-0.35,1.34,0.02,1.89l2.59-1.62C167.95,296.26,167.94,296.26,167.94,296.26z"/>
				<path stroke="#000000" stroke-width="0.3249" d="M225.3,263.15c0,0,0.04-0.04,0.1-0.1c1.87-1.78,30.19-28.7,30.82-29.3
					c0.77,0,20.94,0,21.95,0l2.25-1.18c-0.28-0.65-0.86-1.15-1.68-1.15c-1.47,0-17.56,0.01-21.55,0.01
					c-1.36-0.01-2.71,0.77-2.71,0.77s-22.6,21.48-26.37,25.07c0-0.01,0-0.03,0-0.04l-2.81,5.88
					C225.3,263.12,225.3,263.15,225.3,263.15z"/>
				<path stroke="#000000" stroke-width="0.3249" d="M142.23,288.04h-0.03l-4.21,2.32c0,0,0.01,0,0.01,0
					c-1.89,2.98-16.24,25.71-16.71,26.47c-0.24,0.39-0.51,1.21-0.25,1.89l2.56-1.29C125.86,313.86,142.23,288.04,142.23,288.04z"/>
				<path stroke="#000000" stroke-width="0.3249" d="M126.95,233.75c1.19,0,62.77,0.06,69.75,0.07c0.16,0,0.29,0,0.39,0l2.36-1.22
					c-0.29-0.61-0.85-1.12-1.77-1.11c-1.94,0.02-69.23-0.07-70.2-0.07c-0.97,0-2.17,0.62-2.68,1.38
					c-0.52,0.75-7.65,11.97-8.01,12.62c-0.18,0.33-0.25,0.92-0.03,1.42l2.83-1.47C121.26,242.71,126.4,234.62,126.95,233.75z"/>
				<path stroke="#000000" stroke-width="0.3249" d="M149.06,245.44l-6.48,2.33c0.01,0,0.02,0,0.03,0c0.01,0,0.03,0,0.04,0
					c-4.55,3.82-62.34,52.19-63.09,52.87c-0.38,0.34-0.65,1.17-0.48,1.91l3.05-0.97C86.85,297.62,148.87,245.59,149.06,245.44z"/>
				<path stroke="#000000" stroke-width="0.3249" d="M263.78,272.31c2.9,4.46,7.71,8.05,13.41,9.71c5.05,1.47,9.86,1.18,13.21-0.78
					c1.92-1.12,2.47-2.84,2.47-4.29c0-0.8-0.17-1.51-0.37-2.02l-0.03-0.09l-12.08-20.19c-2.23-4.11-0.79-9.69,0.87-12.56
					c1.52-2.61,5.73-8.35,12.33-8.31c0.15,0,48.75,0.02,52.8,0.02l2.41-1.34c-0.33-0.56-0.88-0.95-1.32-0.99
					c-0.87-0.06-44.56,0.01-53.59-0.03c-9.03-0.04-13.5,7.15-14.95,10.16c-1.46,3.01-3.4,9.13-0.92,13.6
					c0,0,11.63,19.44,12.34,20.63c0.05,0.15,0.19,0.56,0.19,1.11c0,0.73-0.26,1.65-1.32,2.27c-2.76,1.61-7.01,1.82-11.38,0.55
					c-5.78-1.68-10.66-5.47-13.06-10.13c0,0-1.25-1.22-2.77,1.1c-1.52,2.32-15.38,24.48-15.93,25.34c-0.27,0.42-0.33,1.01-0.12,1.52
					l2.86-1.5C250.85,292.89,262.22,274.79,263.78,272.31z"/>
				<path stroke="#000000" stroke-width="0.3249" d="M385.83,296.31c0.03-0.04,0.06-0.09,0.09-0.14c2.88-4.5,39.3-61.4,39.94-62.42
					c1.08,0,17.78-0.06,21.55-0.07c0.02,0,0.04,0,0.06,0l2.92-1.39c-0.31-0.52-0.97-0.87-1.5-0.87l-23.13,0.01
					c-0.64,0-1.45,0.44-1.79,0.98l-40.77,63.71c-0.43,0.64-0.4,1.36-0.08,1.87l2.79-1.69C385.87,296.31,385.85,296.31,385.83,296.31
					z"/>
				<path stroke="#000000" stroke-width="0.3249" d="M459.9,274.63c-0.05,0.02-1.34,0.7-2.87,0.9c0.01-0.02,0.03-0.04,0.04-0.06
					l-3.96,1.88c-0.01,0.01-0.02,0.03-0.02,0.03l1.59,0.38c3.09,0.75,6.2-1,6.33-1.07c7.71-3.97,17.26-4.47,20.77-2.3
					c-0.01,0.01-0.02,0.04-0.03,0.05l2.28-0.9c-0.15-0.46-0.37-0.74-0.37-0.74C480.51,269.5,468.81,270.05,459.9,274.63z"/>
				<path stroke="#000000" stroke-width="0.3249" d="M418.46,296.3c0.02-0.04,0.06-0.09,0.09-0.14c2.9-4.55,39.2-61.38,39.85-62.4
					c1.11,0,19.11-0.02,22.58-0.02c0,0,0,0.01-0.01,0.01c0,0.01-0.01,0.02-0.02,0.03l2.72-1.68c-0.28-0.39-0.76-0.68-1.45-0.68
					c-6.72-0.03-22.67,0.01-22.67,0.01s-1.7,0.09-2.33,0.48c-0.63,0.39-1.59,1.85-1.59,1.85s-39.46,61.75-39.81,62.33
					c-0.2,0.34-0.33,1.17,0.06,1.8l2.68-1.58C418.53,296.3,418.48,296.3,418.46,296.3z"/>
			</g>
			<path d="M498.5,303.19c0,2.77-1.91,4.68-4.33,4.68c-2.7,0-4.36-2.1-4.36-4.68c0-2.76,1.91-4.68,4.36-4.68
				C496.59,298.51,498.5,300.44,498.5,303.19z M493.04,303.75h0.97l1.62,2.68h1.17l-1.76-2.76c0.94-0.11,1.64-0.58,1.64-1.71
				c0-1.27-0.77-1.8-2.29-1.8h-2.38v6.27h1.03V303.75z M493.04,302.87v-1.83h1.24c0.62,0,1.36,0.09,1.36,0.85
				c0,0.91-0.68,0.98-1.45,0.98H493.04z M499.71,303.19c0-3.41-2.58-5.66-5.54-5.66c-3,0-5.57,2.26-5.57,5.66
				c0,3.23,2.32,5.66,5.57,5.66C497.13,308.86,499.71,306.6,499.71,303.19z"/>
		</g>
</svg>
