<?xml version="1.0"?>
<svg xmlns="http://www.w3.org/2000/svg" version="1.2" fill="none" viewBox="0 0 216 216" height="216" width="216" baseProfile="tiny-ps">
  <title>Rest</title>
  <rect fill="#092056" height="216" width="216"/>
  <path fill="white" d="M78.3056 136.646C77.9566 136.534 77.5984 136.404 77.2129 136.244C76.2782 135.845 75.3997 135.327 74.5997 134.702C73.4875 133.875 72.4859 132.91 71.6192 131.831C69.9286 129.745 63.922 121.407 56.0307 109.914C57.7565 109.482 59.4476 108.923 61.0902 108.241C62.7782 107.555 64.3504 106.615 65.7522 105.455C67.1588 104.293 68.3089 102.854 69.1304 101.229C69.9842 99.5501 70.4122 97.5617 70.4142 95.2633C70.4142 92.8483 70.0095 90.7743 69.2002 89.0415C68.454 87.3789 67.3855 85.8791 66.0558 84.6279C64.7349 83.4124 63.2186 82.4256 61.5698 81.7087C59.8926 80.9827 58.1536 80.4068 56.3736 79.9879C54.6509 79.5875 52.8994 79.3221 51.135 79.1939C49.4231 79.0702 47.86 79.0189 46.4426 79.0189H23.2511C22.9138 79.035 22.5958 79.1796 22.3629 79.4227C22.1299 79.6658 22 79.9887 22 80.3245C22 80.6603 22.1299 80.9833 22.3629 81.2263C22.5958 81.4694 22.9138 81.614 23.2511 81.6302C24.0112 81.6298 24.7639 81.7783 25.4663 82.0672C26.1687 82.3562 26.807 82.7799 27.3447 83.3142C27.8825 83.8485 28.3091 84.4829 28.6004 85.1813C28.8916 85.8796 29.0417 86.6281 29.0421 87.3841V134.176L38.5148 130.252C39.1531 129.991 39.6986 129.546 40.0818 128.975C40.4651 128.404 40.6687 127.732 40.6667 127.046V110.629H44.2148C51.9939 121.938 58.0308 130.228 60.4377 133.289C61.6374 134.799 63.0407 136.136 64.608 137.265C65.8885 138.212 67.3269 138.927 68.8572 139.378C70.3191 139.797 71.8338 140.007 73.3553 140C74.5266 139.999 75.6963 139.912 76.8548 139.74C77.4011 139.659 77.8685 139.574 78.2661 139.481C78.6304 139.393 78.9471 139.17 79.1513 138.857C79.3556 138.544 79.432 138.166 79.3649 137.799C79.3108 137.529 79.1836 137.279 78.9969 137.076C78.8102 136.872 78.5711 136.724 78.3056 136.646ZM54.1094 104.447C52.9772 105.379 51.664 106.068 50.2517 106.472C48.872 106.876 47.4408 107.079 46.0025 107.076H40.6667V83.1668C41.1979 83.1064 41.7867 83.0128 42.4423 82.8951C43.0566 82.7722 43.678 82.6875 44.3029 82.6415C45.0161 82.5811 45.7263 82.5539 46.4275 82.5539C47.7797 82.5566 49.1239 82.7601 50.4156 83.1577C51.7916 83.576 53.0621 84.2809 54.1428 85.2256C55.3295 86.2778 56.271 87.5749 56.9017 89.0264C57.6089 90.5811 57.964 92.5162 57.964 94.8075C57.964 97.0988 57.6089 99.0339 56.9017 100.637C56.2852 102.108 55.3285 103.413 54.1094 104.447Z"/>
  <path fill="white" d="M110.414 100.755C109.449 98.6328 108.042 96.7386 106.287 95.1969C104.477 93.6274 102.386 92.4126 100.122 91.6165C97.6406 90.752 95.0272 90.321 92.3978 90.3426C89.7551 90.3171 87.132 90.7957 84.6704 91.7524C82.3441 92.6687 80.2415 94.0684 78.5029 95.858C76.669 97.8014 75.264 100.105 74.3782 102.62C73.3665 105.325 72.8606 108.445 72.8606 111.979C72.828 114.909 73.3087 117.822 74.281 120.589C75.1719 123.116 76.5573 125.443 78.3572 127.435C80.1566 129.382 82.3521 130.926 84.7978 131.964C87.4809 133.085 90.368 133.643 93.278 133.603C95.426 133.639 97.5664 133.341 99.6215 132.718C101.291 132.197 102.875 131.438 104.326 130.466C105.58 129.618 106.716 128.608 107.704 127.462C108.161 126.909 108.588 126.371 108.985 125.847C109.274 125.468 109.403 124.991 109.347 124.519C109.29 124.046 109.052 123.613 108.681 123.312C108.379 123.087 108.012 122.965 107.634 122.964C107.376 122.965 107.12 123.021 106.886 123.13C106.651 123.239 106.444 123.398 106.278 123.595C105.048 125.061 103.649 126.378 102.11 127.52C100.186 128.929 97.6881 129.633 94.6165 129.633C93.4076 129.648 92.2093 129.406 91.1018 128.924C89.6797 128.264 88.4563 127.245 87.5537 125.968C84.3668 121.763 84.1726 114.445 84.124 111.873C84.124 111.873 83.9662 103.049 87.1136 97.5818C87.317 97.2316 88.1122 95.8369 89.5084 95.0701C90.3896 94.5768 91.3836 94.3169 92.3948 94.3154C93.4636 94.3031 94.5178 94.5629 95.4573 95.0701C96.3678 95.5652 97.1509 96.4014 97.8095 97.5818C98.5628 99.0556 99.0877 100.634 99.3665 102.264C99.7884 104.685 99.9805 107.14 99.9402 109.597H89.4598C88.9309 109.597 88.4237 109.806 88.0498 110.178C87.6758 110.55 87.4657 111.054 87.4657 111.58C87.4657 112.106 87.6758 112.611 88.0498 112.983C88.4237 113.355 88.9309 113.564 89.4598 113.564H111.565C111.632 113.032 111.689 112.45 111.75 111.801C111.808 111.263 111.85 110.663 111.877 109.989C111.905 109.316 111.926 108.652 111.926 108.009C111.96 105.51 111.444 103.034 110.414 100.755Z"/>
  <path fill="white" d="M147.288 114.4C145.206 112.549 142.129 110.777 138.055 109.06L132.72 106.85C130.765 106.026 129.217 105.129 128.097 104.163C127.545 103.689 127.106 103.097 126.814 102.432C126.522 101.767 126.384 101.045 126.41 100.32C126.389 99.5229 126.537 98.7305 126.844 97.9938C127.15 97.2571 127.608 96.5923 128.188 96.0422C129.372 94.886 131.299 94.3154 133.955 94.3154C137.508 94.3154 140.202 95.3016 142.038 97.2739C143.584 98.9395 144.68 100.968 145.224 103.17C145.32 103.574 145.562 103.929 145.904 104.167C146.246 104.406 146.664 104.511 147.079 104.463C147.493 104.415 147.876 104.217 148.154 103.907C148.431 103.596 148.584 103.196 148.584 102.78V102.741C148.548 101.165 148.465 99.6859 148.335 98.3033C148.162 96.4105 147.534 94.9826 146.475 93.9712C145.291 92.8573 143.531 91.9667 141.197 91.3237C138.863 90.6807 135.852 90.3516 132.182 90.3516C129.912 90.3312 127.647 90.5805 125.435 91.0943C123.528 91.5312 121.712 92.2931 120.066 93.3463C118.623 94.2772 117.42 95.5326 116.554 97.0112C115.697 98.566 115.27 100.319 115.316 102.092C115.284 103.442 115.535 104.783 116.054 106.031C116.573 107.279 117.348 108.405 118.33 109.337C120.353 111.275 123.137 113.012 126.68 114.548L131.296 116.486C133.269 117.339 135.166 118.353 136.969 119.52C138.509 120.552 139.279 121.922 139.279 123.629C139.294 124.443 139.127 125.251 138.791 125.994C138.454 126.737 137.957 127.396 137.333 127.924C136.028 129.075 133.724 129.645 130.407 129.645C126.86 129.645 124.168 128.659 122.33 126.687C120.781 125.024 119.684 122.996 119.143 120.794C119.055 120.421 118.843 120.088 118.542 119.848C118.241 119.609 117.869 119.476 117.483 119.472C117.031 119.472 116.597 119.65 116.277 119.968C115.957 120.287 115.777 120.718 115.777 121.168V121.21C115.808 122.789 115.896 124.275 116.026 125.657C116.204 127.545 116.827 128.985 117.893 129.977C119.071 131.103 120.837 131.988 123.171 132.631C125.505 133.274 128.51 133.609 132.182 133.609C134.644 133.629 137.101 133.376 139.506 132.854C141.53 132.428 143.467 131.667 145.237 130.602C146.753 129.675 148.039 128.421 149 126.931C149.945 125.408 150.425 123.645 150.384 121.856C150.384 118.743 149.352 116.257 147.288 114.4Z"/>
  <path fill="white" d="M183.671 128.691C183.824 128.989 183.868 129.33 183.795 129.656C183.722 129.982 183.538 130.273 183.273 130.478C182.69 130.916 182.074 131.31 181.431 131.656C180.279 132.219 179.073 132.664 177.831 132.984C176.141 133.434 174.396 133.642 172.647 133.603C168.619 133.603 165.46 132.525 163.186 130.339C160.913 128.154 159.766 124.945 159.766 120.718V94.4151L152.448 94.3939C152.284 94.3915 152.123 94.3448 151.983 94.2587C151.843 94.1725 151.729 94.0503 151.653 93.9049C151.231 93.1181 150.684 92.4044 150.032 91.7917L149.237 91.046C149.183 90.9954 149.145 90.9297 149.129 90.8575C149.113 90.7852 149.119 90.7098 149.146 90.6411C149.174 90.5723 149.221 90.5134 149.283 90.472C149.345 90.4306 149.418 90.4087 149.492 90.409L159.76 90.4483V83.0732C159.76 82.3871 159.964 81.7164 160.347 81.1458C160.73 80.5752 161.275 80.1303 161.912 79.8672L170.538 76.3019L171.309 76V90.4452H179.075C179.605 90.446 180.112 90.6556 180.487 91.0279C180.861 91.4003 181.072 91.9051 181.073 92.4317C181.071 92.9577 180.86 93.4617 180.486 93.8334C180.111 94.2051 179.604 94.4143 179.075 94.4151H171.309V121.232C171.309 124.552 171.712 126.768 172.523 127.897C172.893 128.454 173.401 128.907 173.998 129.211C174.595 129.516 175.261 129.662 175.931 129.636C176.854 129.641 177.773 129.521 178.663 129.28C179.434 129.071 180.187 128.805 180.918 128.483C181.173 128.359 181.422 128.226 181.664 128.087C181.836 127.989 182.027 127.926 182.224 127.903C182.421 127.88 182.62 127.897 182.811 127.954C183.001 128.01 183.177 128.105 183.329 128.232C183.481 128.358 183.606 128.515 183.695 128.691H183.671Z"/>
  <path fill="white" d="M188.632 89.6533C185.227 89.6533 182.22 86.6776 182.22 82.8267C182.22 79.0195 185.227 76 188.632 76C192.037 76 195 79.0195 195 82.8267C195 86.6338 192.037 89.6533 188.632 89.6533ZM183.591 82.8267C183.591 86.065 185.89 88.5593 188.632 88.5593C191.374 88.5593 193.629 86.065 193.629 82.8267C193.629 79.5446 191.374 77.0503 188.632 77.0503C185.89 77.0503 183.591 79.5446 183.591 82.8267ZM186.332 86.2838V79.3696C186.332 78.8882 186.598 78.5819 187.084 78.5819H188.455C190.136 78.5819 191.418 79.5884 191.418 81.0325C191.418 81.8639 190.887 82.6079 190.047 82.9579C190.445 83.2643 190.71 83.7456 190.843 84.3583L191.108 85.8024C191.241 86.4588 191.374 87.0277 190.622 87.0277H190.357C189.738 87.0277 189.693 86.5901 189.561 85.9774L189.34 84.7959C189.163 83.8769 188.942 83.5706 188.455 83.5706H187.88V86.2838C187.88 86.7214 187.659 87.0277 187.217 87.0277H186.996C186.598 87.0277 186.332 86.7214 186.332 86.2838ZM187.88 82.214H188.411C189.207 82.214 189.782 81.7326 189.782 81.0762C189.782 80.3761 189.207 79.8947 188.411 79.8947H187.88V82.214Z"/>
</svg>
