<?xml version="1.0" encoding="utf-8"?>
<!-- Generator: Adobe Illustrator 27.9.6, SVG Export Plug-In . SVG Version: 9.03 Build 54986)  -->
<svg version="1.2" baseProfile="tiny-ps" xmlns="http://www.w3.org/2000/svg" xmlns:xlink="http://www.w3.org/1999/xlink"
	 viewBox="0 0 1633.1 1633.1" xml:space="preserve">
<title>ThredUp Inc.</title>
<g id="Background">
	<path fill="#FFFFFF" stroke="#000000" stroke-miterlimit="10" d="M-285,287.4"/>
	<rect fill="#30D8A4" stroke="#000000" stroke-miterlimit="10" width="1631.9" height="1634.9"/>
</g>
<g id="Layer_1">
	<path d="M595.2,849.7c37-6.8,62-24.5,60.7-78.3c-1.7-70.2-45.2-84-124.4-84h-69.3v311.4h68.1v-124h16c23.2,0,33.1,12.6,34.6,42
		c2,37.5,3.5,70,7.8,81.9h70.8c-7.3-14.1-7.9-41.1-10-82.4C646.8,863.5,636.3,857.7,595.2,849.7z M542.6,822.1h-12.3v-82h12.3
		c35.3,0,45.7,13.6,45.7,39.5C588.2,815.7,576.1,822.1,542.6,822.1z M4.2,740h54v258.7h68.4V740h55.5v-52.7H4.2V740z M342.6,815.4
		H281V687.3h-68.4v311.4H281V868.2h61.6v130.6h73.7V687.3h-73.7L342.6,815.4L342.6,815.4z M760.4,865.5h64.5v-52.6h-64.5V740h83.8
		v-52.7H692v311.4h152.4V946h-84L760.4,865.5z M950.1,687.3h-68v311.4h68c101.1,0,131.8-55.8,131.8-152.4v-6.6
		C1081.8,735.2,1052.4,687.3,950.1,687.3z M964.3,945h-13.8V741.1h13.8c42.1,0,51.4,32.5,51.4,99.7
		C1015.7,906.9,1006.4,945,964.3,945L964.3,945z M1605.1,631.6c-13.2,0-23.8,10.7-23.8,23.8c0,13.2,10.7,23.8,23.8,23.8
		c13.2,0,23.8-10.7,23.8-23.8c0,0,0,0,0,0C1628.9,642.3,1618.2,631.6,1605.1,631.6z M1605.1,675.1c-10.9,0-19.7-8.8-19.7-19.7
		s8.8-19.7,19.7-19.7c10.8,0,19.7,8.8,19.7,19.6C1624.7,666.3,1615.9,675.1,1605.1,675.1z M1443.4,634.5h-79.4v311.4h68.7V844h10.7
		c81.6,0,118.2-35.9,118.2-105C1561.7,672,1523.7,634.5,1443.4,634.5z M1442.3,791.3h-9.5V686.8h9.5c35.8,0,52.8,13.5,52.8,52.7
		S1478.1,791.3,1442.3,791.3L1442.3,791.3z M1253,841.9c0,35.2-4.8,52.3-30.7,52.3c-26.3,0-30.8-17.1-30.8-52.3V634.5h-70.7v199.3
		c0,78.4,19.6,116.8,101.4,116.8s101.4-38.3,101.4-116.8V634.5H1253V841.9z M1615.2,661.5c0-2.3-1.7-4.2-4-4.5
		c2.9-0.3,5.1-2.9,4.9-5.9c0-4.5-2.9-7.3-8.9-7.3h-11.6l-0.1,23h6.1v-7.6h4.1c2.1,0,3.2,0.6,3.4,3.2c0.2,2.4,0.5,3.8,0.9,4.4h6.3
		C1615.7,666,1615.6,665,1615.2,661.5z M1606.1,654.4h-4.4v-5.6h4.4c2.6,0,3.9,1,3.9,2.9C1610.1,653.8,1608.8,654.4,1606.1,654.4z"
		/>
</g>
</svg>
