<?xml version="1.0" encoding="utf-8"?>
<!-- Generator: Adobe Illustrator 28.7.1, SVG Export Plug-In . SVG Version: 9.03 Build 54978)  -->
<svg version="1.2" baseProfile="tiny-ps" id="Layer_1" xmlns="http://www.w3.org/2000/svg" xmlns:xlink="http://www.w3.org/1999/xlink"
	 viewBox="0 0 96 96" xml:space="preserve">
<title>Plex</title>
<rect width="96" height="96"/>
<g id="_x35_12x512_x5F_SansFree">
	<g id="Togetherness_-_Full_Color_-_on_black">
		<path id="Vector" fill="#FFFFFF" d="M25.6,37.2c-2.8,0-4.6,0.8-6.1,2.7v-2.1h-5.4v25.7c0,0,0.1,0,0.4,0.1c0.4,0,2.4,0.5,3.9-0.7
			c1.3-1.1,1.6-2.4,1.6-3.8v-3.7c1.5,1.7,3.3,2.4,5.8,2.4c5.3,0,9.4-4.3,9.4-10.1S31.3,37.2,25.6,37.2L25.6,37.2L25.6,37.2z
			 M24.6,52.9c-3,0-5.4-2.5-5.4-5.5s2.8-5.3,5.4-5.3s5.4,2.3,5.4,5.3S27.7,52.8,24.6,52.9L24.6,52.9L24.6,52.9z"/>
		<path id="Vector_2" fill="#FFFFFF" d="M42.8,47.1c0,2.2,0.2,4.9,2.4,7.9l0.2,0.2c-0.9,1.5-2,2.5-3.5,2.5s-2.3-0.6-3.2-1.7
			c-1-1.1-1.5-2.6-1.5-4.2V31.1h5.6V47.1L42.8,47.1L42.8,47.1z"/>
		<path id="Vector_3" fill="#EBAF00" d="M70.3,57.2h-6.7l6.5-9.6l-6.5-9.7h6.7l6.5,9.7C76.8,47.6,70.3,57.2,70.3,57.2z"/>
		<path id="Vector_4" fill="#FFFFFF" d="M78.6,46.4l5.8-8.6h-6.7l-2.5,3.6C75.2,41.4,78.6,46.4,78.6,46.4z"/>
		<path id="Vector_5" fill="#FFFFFF" d="M75.3,53.6l1.1,1.6c1.1,1.7,2.5,2.5,4.2,2.6c1.7,0,3-1.6,3.5-2.1c0,0-0.9-0.8-1.9-2
			c-1.5-1.7-3.4-4.9-3.5-5L75.3,53.6L75.3,53.6L75.3,53.6z"/>
		<path id="Vector_6" fill="#FFFFFF" d="M58.6,51.6c-1.1,1-1.9,1.6-3.5,1.6c-2.8,0-4.4-2-4.6-4.2h14.9c0-0.3,0.2-0.7,0.2-1.3
			c0-6-4.4-10.5-10.2-10.5s-10.1,4.6-10.1,10.3s4.5,10.2,10.2,10.2s7.3-2.3,9.2-6.2h-6L58.6,51.6z M55.3,41.8c2.5,0,4.3,1.6,4.7,3.7
			h-9.4C51.1,43.3,52.8,41.8,55.3,41.8L55.3,41.8z"/>
	</g>
</g>
</svg>

