<?xml version="1.0" encoding="utf-8"?>
<!-- Generator: Adobe Illustrator 26.0.1, SVG Export Plug-In . SVG Version: 6.00 Build 0)  -->
<svg version="1.2" baseProfile="tiny-ps" id="Main" xmlns="http://www.w3.org/2000/svg" xmlns:xlink="http://www.w3.org/1999/xlink" viewBox="0 0 80 80" xml:space="preserve">
<title>Solvent.Life LTD</title>
<g id="Layer_12">
    <circle fill="#021642" cx="40" cy="40" r="40"/>
</g>
<g id="Layer_11">
    <linearGradient id="SVGID_1_" gradientUnits="userSpaceOnUse" x1="20.746" y1="51.685" x2="20.746" y2="25.3591">
        <stop offset="0" stop-color="#F9AB75"/>
        <stop offset="0.5451" stop-color="#8DE4C1"/>
        <stop offset="1" stop-color="#6AF7BE"/>
    </linearGradient>
    <path fill="url(#SVGID_1_)" d="M17,51.7L17,51.7l0-18.9c0-4.1,3.3-7.4,7.4-7.4h0v18.9C24.5,48.4,21.1,51.7,17,51.7z"/>
</g>
<g id="Layer_10">
    <linearGradient id="SVGID_00000016797927243494605330000009358211297946410649_" gradientUnits="userSpaceOnUse" x1="13.3333" y1="51.6849" x2="13.3333" y2="33.9601">
        <stop offset="0" stop-color="#F9AB75"/>
        <stop offset="1.946770e-02" stop-color="#F4AE79"/>
        <stop offset="0.187" stop-color="#CBC49B"/>
        <stop offset="0.3509" stop-color="#ABD6B6"/>
        <stop offset="0.5083" stop-color="#94E3C9"/>
        <stop offset="0.6564" stop-color="#86EAD4"/>
        <stop offset="0.7854" stop-color="#81EDD8"/>
    </linearGradient>
    <path fill="url(#SVGID_00000016797927243494605330000009358211297946410649_)" d="M17,41.4v10.3c-4.1,0-7.4-3.3-7.4-7.4V34 c2,0,3.9,0.8,5.2,2.2C16.2,37.5,17,39.3,17,41.4C17,41.3,17,41.3,17,41.4z"/>
</g>
<g id="Layer_9">
    <linearGradient id="SVGID_00000084502865343501291630000006845252352680591032_" gradientUnits="userSpaceOnUse" x1="28.1586" y1="57.53" x2="28.1586" y2="25.3591">
        <stop offset="0.1061" stop-color="#5FD1E7"/>
        <stop offset="0.5674" stop-color="#DDDD80"/>
        <stop offset="1" stop-color="#6BF7BE"/>
    </linearGradient>
    <path fill="url(#SVGID_00000084502865343501291630000006845252352680591032_)" d="M31.9,57.5L31.9,57.5c-4.1,0-7.4-3.3-7.4-7.4 V25.4h0c4.1,0,7.4,3.3,7.4,7.4V57.5z"/>
</g>
<g id="Layer_8">
    <linearGradient id="SVGID_00000166666206291387381520000008603410321292988602_" gradientUnits="userSpaceOnUse" x1="35.5713" y1="57.53" x2="35.5713" y2="13.6445">
        <stop offset="6.145251e-02" stop-color="#5FD1E7"/>
        <stop offset="1" stop-color="#FA2A6A"/>
    </linearGradient>
    <path fill="url(#SVGID_00000166666206291387381520000008603410321292988602_)" d="M31.9,57.5L31.9,57.5l0-36.5 c0-4.1,3.3-7.4,7.4-7.4h0v36.5C39.3,54.2,36,57.5,31.9,57.5z"/>
</g>
<g id="Layer_7">
    <linearGradient id="SVGID_00000140729161971520815310000010800101065929143988_" gradientUnits="userSpaceOnUse" x1="42.9839" y1="66.8601" x2="42.9839" y2="13.6445">
        <stop offset="5.404893e-02" stop-color="#B36EDC"/>
        <stop offset="0.427" stop-color="#DE52A8"/>
        <stop offset="0.6913" stop-color="#F76185"/>
        <stop offset="1" stop-color="#F82C6C"/>
    </linearGradient>
    <path fill="url(#SVGID_00000140729161971520815310000010800101065929143988_)" d="M46.7,66.9L46.7,66.9c-4.1,0-7.4-3.3-7.4-7.4 V13.6h0c4.1,0,7.4,3.3,7.4,7.4V66.9z"/>
</g>
<g id="Layer_6">
    <linearGradient id="SVGID_00000150061239638635295520000004582884858328399035_" gradientUnits="userSpaceOnUse" x1="50.3965" y1="66.8601" x2="50.3965" y2="32.3351">
        <stop offset="1.929260e-02" stop-color="#B36EDC"/>
        <stop offset="1" stop-color="#B3F380"/>
    </linearGradient>
    <path fill="url(#SVGID_00000150061239638635295520000004582884858328399035_)" d="M46.7,66.9L46.7,66.9l0-27.1 c0-4.1,3.3-7.4,7.4-7.4h0v27.1C54.1,63.5,50.8,66.9,46.7,66.9z"/>
</g>
<g id="Layer_5">
    <linearGradient id="SVGID_00000038414839369377051610000015832134401237636530_" gradientUnits="userSpaceOnUse" x1="57.8092" y1="58.6401" x2="57.8092" y2="32.3351">
        <stop offset="0" stop-color="#F3AB72"/>
        <stop offset="0.5056" stop-color="#BACD93"/>
        <stop offset="1" stop-color="#A6F461"/>
    </linearGradient>
    <path fill="url(#SVGID_00000038414839369377051610000015832134401237636530_)" d="M61.5,58.6L61.5,58.6c-4.1,0-7.4-3.3-7.4-7.4 V32.3h0c4.1,0,7.4,3.3,7.4,7.4V58.6z"/>
</g>
<g id="Layer_4">
    <linearGradient id="SVGID_00000173862302491038596080000018047667239692181407_" gradientUnits="userSpaceOnUse" x1="65.2218" y1="58.6401" x2="65.2218" y2="33.9701">
        <stop offset="0" stop-color="#F3AB72"/>
        <stop offset="1" stop-color="#FDC575"/>
    </linearGradient>
    <path fill="url(#SVGID_00000173862302491038596080000018047667239692181407_)" d="M68.9,34v17.3c0,4.1-3.3,7.4-7.4,7.4V41.4 c0,0,0-0.1,0-0.1C61.6,37.2,64.9,34,68.9,34z"/>
</g>
<g id="Layer_3">
    <linearGradient id="SVGID_00000093174495349886640350000004186928245957552310_" gradientUnits="userSpaceOnUse" x1="4.9019" y1="32.453" x2="18.3849" y2="39.8808">
        <stop offset="0" stop-color="#CDBB7F"/>
        <stop offset="0.8827" stop-color="#8AE8D1"/>
    </linearGradient>
    <path fill="url(#SVGID_00000093174495349886640350000004186928245957552310_)" d="M17,41.3l-7.4-4.2L4,34h5.7c2,0,3.9,0.8,5.2,2.2 C16.2,37.5,17,39.3,17,41.3z"/>
</g>
<g id="Layer_2">
    <linearGradient id="SVGID_00000039844176101981220300000012072925248336630197_" gradientUnits="userSpaceOnUse" x1="60.6137" y1="39.6534" x2="73.2915" y2="32.5856">
        <stop offset="0" stop-color="#FABD74"/>
        <stop offset="1" stop-color="#B6C58A"/>
    </linearGradient>
    <path fill="url(#SVGID_00000039844176101981220300000012072925248336630197_)" d="M74.6,34l-5.6,3.2l-7.4,4.2 c0.1-4,3.4-7.3,7.4-7.3H74.6z"/>
</g>
</svg>
