<?xml version="1.0" encoding="UTF-8" standalone="yes"?>
<svg width="400" height="400" baseProfile="tiny-ps" fill-rule="evenodd" version="1.2" xmlns="http://www.w3.org/2000/svg">
  <title>bimi-svg-tiny-12-ps</title>
  <path d="M180.4 111.613c-2.97.192-7.92.631-11 .975s-9.2.798-13.6 1.007c-5.515.262-8.932.62-11 1.152-1.65.425-5.011.889-7.47 1.032-2.479.144-5.685.612-7.2 1.051-1.501.435-4.17.892-5.93 1.015s-4.46.636-6 1.14a32.1 32.1 0 0 1-5.8 1.196c-1.65.154-3.81.638-4.8 1.076s-3.07.94-4.623 1.117-3.659.69-4.68 1.142-2.901.944-4.177 1.095-2.95.636-3.72 1.08-2.516.946-3.88 1.117c-1.406.175-2.969.658-3.608 1.112-.62.442-2.024.934-3.12 1.095s-2.801.717-3.789 1.238-2.206.947-2.707.947-1.923.54-3.16 1.2-2.728 1.2-3.315 1.2-1.645.428-2.354.951-1.977 1.06-2.818 1.195-1.967.589-2.503 1.011-1.704.963-2.597 1.203-2.015.777-2.495 1.193-1.678.96-2.663 1.208-1.791.637-1.791.865-.675.682-1.5 1.009c-1.952.773-2.689 1.142-5.1 2.549-1.1.642-2.749 1.525-3.663 1.962s-1.815 1.052-2 1.368-1.012.792-1.837 1.06-1.5.643-1.5.831-.72.748-1.6 1.243-1.6 1.053-1.6 1.24-.765.675-1.7 1.084-2.012 1.077-2.394 1.486-1.261 1.192-1.954 1.742c-1.088.864-12.949 12.596-14.623 14.465-.595.665-.943 1.25-3.045 5.118-.614 1.13-1.358 2.147-1.653 2.26s-.646.888-.779 1.722-.614 1.987-1.068 2.564-1.003 2.153-1.223 3.521c-.46 2.859-.951 3.95-1.775 3.95-.496 0-.586 1.29-.586 8.4 0 6.909.099 8.4.557 8.4.661 0 1.842 2.759 1.845 4.308 0 .601.54 2.172 1.198 3.492s1.198 2.684 1.198 3.03.452 1.053 1.002 1.57 1 1.164 1 1.439.412 1.008.916 1.63 1.111 1.581 1.351 2.131c1.21 2.778 18.02 19.2 19.653 19.2.222 0 1.134.585 2.025 1.3 3.04 2.438 4.583 3.5 5.089 3.5.277 0 1.013.42 1.635.934A17.33 17.33 0 0 0 40 251.393l3 1.553c.88.454 2.21 1.237 2.956 1.74s1.663.914 2.038.914 1.005.356 1.399.792 1.312.904 2.039 1.04 1.912.684 2.634 1.217a10.35 10.35 0 0 0 2.923 1.395c.886.235 1.982.77 2.434 1.19s1.675.921 2.715 1.115 2.199.63 2.576.968 1.406.74 2.286.891 2.266.704 3.079 1.226 2.254 1.065 3.2 1.205 2.441.66 3.321 1.156 2.5 1.03 3.6 1.188 2.542.62 3.204 1.026 2.193.862 3.4 1.014 2.779.627 3.491 1.056 2.512.952 4 1.163 3.816.827 5.173 1.371 3.201.987 4.096.987 2.574.375 3.732.834 3.58.983 5.385 1.165 4.313.715 5.574 1.187c1.354.507 4.033 1.011 6.542 1.231 2.337.205 5.296.733 6.576 1.174 1.51.519 4.312.943 7.977 1.207 3.108.224 6.64.685 7.85 1.025 1.426.401 5.325.746 11.079.981 4.884.199 10.914.685 13.4 1.079 6.753 1.071 50.162 1.074 57.212.004 2.58-.392 8.61-.881 13.4-1.088 5.203-.225 9.675-.62 11.109-.983 1.32-.333 4.83-.795 7.8-1.025 3.255-.252 6.375-.738 7.855-1.222 1.35-.442 4.452-.966 6.893-1.165 2.916-.237 5.066-.638 6.269-1.17 1.022-.453 3.481-.979 5.57-1.193 2.056-.21 4.306-.675 4.999-1.034s2.558-.797 4.146-.975 3.613-.694 4.5-1.146 2.914-1.003 4.505-1.224 3.476-.745 4.188-1.165 2.256-.878 3.429-1.017 2.733-.606 3.465-1.038 2.197-.908 3.256-1.057a12 12 0 0 0 3.525-1.173 11.01 11.01 0 0 1 3.329-1.122c.951-.122 2.401-.687 3.222-1.256s1.951-1.034 2.511-1.034 1.811-.42 2.778-.932 2.353-1.051 3.078-1.194 1.896-.694 2.6-1.224 1.912-1.095 2.682-1.258 1.909-.722 2.531-1.244 1.542-.948 2.046-.948 1.381-.366 1.95-.814 1.629-1.017 2.354-1.264 1.81-.856 2.409-1.352 1.616-1.018 2.259-1.159 1.485-.606 1.872-1.034.931-.777 1.21-.777 1.016-.425 1.638-.945 1.581-1.08 2.131-1.245 1.45-.697 2-1.182c1.068-.943 2.485-1.938 4.592-3.228 1.894-1.159 3.168-2.155 5.522-4.315 1.147-1.053 2.896-2.573 3.886-3.378s3.24-3.077 5-5.049l4.197-4.621c1.527-1.59 2.715-3.277 3.545-5.037.415-.88 1.138-1.943 1.606-2.362s.852-1.16.852-1.646.39-1.38.867-1.987 1.013-2.024 1.191-3.149c.418-2.643 1.097-4.256 1.791-4.256.453 0 .551-1.769.551-10 0-8.058-.103-10-.532-10-.756 0-1.436-1.46-1.82-3.903-.181-1.157-.612-2.417-.958-2.8s-.759-1.237-.919-1.897-.804-1.791-1.431-2.514-1.14-1.641-1.14-2.041-.495-1.29-1.1-1.979-1.499-1.75-1.986-2.359c-2.61-3.261-3.818-4.601-6.945-7.703-1.886-1.872-4.103-3.944-4.926-4.604-1.808-1.452-3.694-3.103-5.047-4.422-.553-.538-1.17-.978-1.371-.978-.538 0-4.743-2.891-5.316-3.654-.27-.36-.977-.777-1.573-.926s-1.603-.71-2.24-1.246-1.386-.974-1.665-.974-.827-.353-1.217-.785-1.364-.994-2.162-1.249-1.812-.786-2.252-1.18-1.52-.906-2.4-1.14-1.813-.768-2.072-1.186-1.152-.888-1.982-1.044-2.027-.718-2.659-1.25-1.498-.966-1.925-.966-1.789-.54-3.026-1.2-2.575-1.2-2.975-1.2-1.389-.45-2.199-1-1.944-1-2.518-1-2.034-.533-3.244-1.184-2.651-1.191-3.203-1.2-1.812-.441-2.8-.959-2.599-1.067-3.579-1.218-2.335-.617-3.012-1.035-2.468-.958-3.981-1.2-3.218-.766-3.788-1.164-2.103-.846-3.405-.994-3.193-.635-4.2-1.083-3.251-.978-4.985-1.177-3.579-.643-4.101-.984-2.883-.877-5.247-1.19-5.019-.874-5.899-1.248-3.267-.826-5.305-1.003-5.007-.68-6.6-1.118-4.785-.916-7.095-1.063-5.64-.613-7.4-1.036c-2.122-.509-5.895-.899-11.2-1.155-4.4-.212-9.71-.581-11.8-.821l-7.6-.808c-5.271-.516-38.222-.772-44.8-.347m-57.833 51.313c1.17.856 1.225 68.848.057 69.705-.909.666-10.418.813-11.424.178-.52-.329-.627-3.79-.8-25.827-.231-29.396.259-26.582-4.634-26.582-2.258 0-2.933.137-3.123.633-.134.348-.243 11.88-.243 25.626 0 16.464-.141 25.258-.414 25.767-.463.864-48.238 1.235-49.582.385-.525-.332-.52-.51.048-1.494.355-.614.862-1.792 1.127-2.617s.655-1.5.866-1.5.751-.765 1.2-1.7c1.506-3.137 2.55-5.014 3.204-5.76.358-.407.862-1.401 1.121-2.208s.756-1.705 1.105-1.994.979-1.249 1.4-2.132 1.29-2.506 1.93-3.606a74.11 74.11 0 0 0 1.99-3.683c.455-.926 1.018-1.801 1.249-1.944s.774-1.081 1.203-2.083 1.025-2.018 1.323-2.256.755-1.108 1.016-1.931.706-1.633.989-1.8.899-1.113 1.369-2.103c.964-2.03 2.335-4.512 3.314-6 .362-.55.793-1.45.958-2s.619-1.226 1.011-1.501.926-1.176 1.189-2 .906-1.911 1.43-2.415.954-1.245.954-1.646.34-1.162.756-1.691 1.036-1.632 1.379-2.454.799-1.493 1.014-1.493.605-.675.868-1.5.883-1.95 1.377-2.5 1.087-1.571 1.32-2.268.751-1.63 1.154-2.071a46.13 46.13 0 0 0 1.248-1.432c.708-.863 29.879-.959 31.051-.103m49.672.474c1.685.55 3.445 1.003 3.912 1.006s1.299.269 1.849.591 1.907 1.02 3.016 1.552 2.256 1.256 2.549 1.609.778.642 1.077.642c1.074 0 7.856 6.678 8.964 8.827.404.784 1.019 1.662 1.365 1.949.813.675.811 2.268-.004 2.581-.348.134-8.349.243-17.781.243-20.15 0-19.186-.173-19.186 3.445 0 5.291-1.482 4.955 21.85 4.955 22.604 0 20.309-.839 20.075 7.343-.136 4.749-.303 5.97-1.043 7.608-.485 1.073-.883 2.423-.883 3-.002 1.085-2.327 6.065-3.372 7.219-.325.359-.825 1.188-1.109 1.842-.515 1.182-1.053 1.835-3.851 4.679-1.946 1.978-4.841 4.309-5.352 4.309-.225 0-1.024.54-1.776 1.2s-1.676 1.201-2.053 1.202-1.406.446-2.286.988-2.157.991-2.837.998-2.301.405-3.6.886c-1.944.719-3.215.874-7.163.874s-5.219-.155-7.163-.874c-1.299-.481-2.83-.874-3.403-.874s-1.886-.45-2.919-1-2.165-1-2.515-1-1.088-.452-1.64-1.004-1.617-1.26-2.366-1.573c-1.641-.686-8.384-7.324-8.803-8.668-.165-.525-.815-1.546-1.445-2.269s-1.146-1.654-1.146-2.069-.482-1.329-1.071-2.029c-2.213-2.63-2.692-2.564 20.314-2.788 23.938-.233 22.157.105 22.157-4.204 0-4.563 1.985-4.196-22.703-4.196-13.814 0-21.418-.144-21.923-.414-.999-.535-1.074-4.777-.141-7.999.349-1.203.846-3.267 1.105-4.587s.771-2.85 1.137-3.4.97-1.765 1.339-2.7.843-1.7 1.05-1.7.659-.675 1.003-1.5.964-1.86 1.377-2.3c3.664-3.906 6.363-6.394 7.429-6.847.7-.297 1.398-.744 1.551-.992s1.2-.888 2.327-1.424 2.499-1.232 3.049-1.549 1.45-.587 2-.6 1.72-.301 2.6-.641c4.414-1.704 11.805-1.86 16.439-.347m75.969-.117c.665.353 2.273.839 3.574 1.08s2.738.775 3.192 1.188 1.472.957 2.261 1.209 1.816.815 2.283 1.249 1.04.791 1.274.791c1.13 0 10.408 10.274 10.408 11.527 0 .328.436 1.169.969 1.868s1.098 1.976 1.255 2.838.678 2.377 1.158 3.367c.585 1.206.796 2.196.642 3l-.232 1.2-24.676.2c-27.788.225-25.611-.087-25.732 3.688-.123 3.83-2.422 3.512 25.385 3.512 18.655 0 24.788.117 25.151.48.789.789.546 3.787-.509 6.295-.544 1.292-1.106 3.075-1.247 3.962-.148.925-.664 1.993-1.211 2.507-.524.493-.953 1.156-.953 1.474 0 1.971-8.204 10.935-11.443 12.503-.966.468-1.757 1.014-1.757 1.215s-.252.364-.559.364-1.586.54-2.841 1.2-2.775 1.2-3.378 1.2-2.16.389-3.459.864c-3.178 1.162-11.009 1.268-13.763.187-.99-.389-2.75-.866-3.911-1.06s-2.602-.699-3.2-1.122a7.68 7.68 0 0 0-2.339-1.04c-.687-.149-1.664-.711-2.169-1.25s-1.089-.979-1.296-.979c-1.207 0-9.885-8.587-9.885-9.782 0-.149-.436-.844-.969-1.545s-1.101-1.813-1.262-2.473-.715-1.827-1.231-2.593-.938-1.811-.938-2.323-.379-2.757-.841-4.99c-.949-4.58-.891-6.52.396-13.222.495-2.581 1.138-4.719 1.593-5.296.419-.533.877-1.583 1.017-2.332s.535-1.595.875-1.877.973-1.156 1.405-1.94c2.03-3.68 6.001-7.796 9.037-9.366.616-.319 1.453-.947 1.86-1.397s1.307-.942 1.999-1.093 1.768-.701 2.39-1.223c.65-.545 1.67-.955 2.4-.966.698-.009 1.989-.295 2.869-.635 2.909-1.123 4.347-1.299 9.8-1.203 4.048.072 5.703.257 6.608.739m64.894 33.585l-.276 34.863c-.404 1.063-1.311 1.044-4.152-.084-.619-.246-1.684-.447-2.365-.447s-1.975-.427-2.874-.949-2.085-1.088-2.635-1.257-1.557-.733-2.238-1.252-1.399-.942-1.595-.942-.81-.448-1.363-.997a166.99 166.99 0 0 0-2.605-2.5c-2.584-2.426-6.072-6.622-6.403-7.703-.168-.55-.731-1.509-1.251-2.131s-.945-1.488-.945-1.924-.446-1.737-.99-2.888c-1.895-4.006-1.786-18.684.167-22.442.452-.871.823-1.969.823-2.438s.376-1.287.835-1.816 1.092-1.575 1.406-2.324.929-1.74 1.366-2.2 1.56-1.72 2.494-2.799 2.779-2.837 4.099-3.907 2.771-2.307 3.225-2.749 1.534-.997 2.4-1.232 1.944-.767 2.396-1.184 1.737-.931 2.858-1.143 2.641-.654 3.379-.982 1.972-.56 2.742-.518l1.4.077.102 33.868m11.748-33.442c.666.344 2.176.783 3.355.975 1.21.197 2.487.691 2.929 1.133.432.432 1.388.912 2.125 1.067s1.791.683 2.341 1.172 1.912 1.541 3.027 2.339c3.923 2.804 9.161 9.537 10.495 13.488.334.99.871 2.208 1.193 2.707 1.993 3.086 1.816 19.739-.248 23.323-.434.753-.908 1.943-1.054 2.642s-.533 1.496-.862 1.769-.86 1.123-1.18 1.891c-.668 1.597-.772 1.718-5.998 6.968-2.135 2.145-4.096 3.9-4.358 3.9s-.882.433-1.379.962a4.79 4.79 0 0 1-2.229 1.21c-.729.137-1.788.613-2.353 1.057s-1.979.965-3.141 1.157-2.62.543-3.239.781c-4.095 1.575-3.874 3.536-3.874-34.367l.414-34.026c.512-.957 2.342-1.024 4.036-.148m57.62 97.019c-1.369.517-.98 1.724.607 1.878 1.038.101 1.317.338 1.528 1.3.295 1.344 1.581 1.638 1.896.434.32-1.225-2.844-4.061-4.031-3.612m-6.203.222c-.749.748-.212 1.688 1.033 1.808 1.411.136 1.386.033.875 3.566-.416 2.884.19 3.666 2.222 2.867 1.808-.71 2.091-1.687.746-2.579-.722-.48-.785-.703-.4-1.423.251-.469.457-1.185.457-1.591 0-1.607-3.888-3.694-4.933-2.648m-2.167 1.998c-.763.308-.69 7.479.082 8.12 1.058.878 1.317.077 1.352-4.177.035-4.239-.059-4.498-1.434-3.943m9.382 7.652c-1.915 1.944-1.996 2.883-.249 2.883 1.215 0 3.653-3.093 3.161-4.011-.592-1.106-.786-1.031-2.912 1.128m-7.692 1.299c-.156.253-.009.737.329 1.074.823.823 2.788.367 2.604-.604-.153-.808-2.492-1.183-2.933-.47" fill="#060614"/>
  <path d="M177 111.192c-3.3.171-7.895.597-10.21.946s-7.896.814-12.4 1.032c-5.133.249-8.957.628-10.244 1.015-1.129.34-4.729.883-8 1.207s-6.714.864-7.652 1.199-3.566.771-5.841.968c-2.362.205-4.675.638-5.395 1.011-.693.358-3.117.895-5.388 1.194s-4.737.857-5.482 1.242-2.655.847-4.244 1.025-3.672.681-4.629 1.117-2.866.92-4.242 1.075c-1.511.171-2.891.591-3.488 1.061-.572.449-2.112.936-3.652 1.154-1.465.207-3.227.726-3.917 1.152s-2.055.893-3.034 1.039-2.394.613-3.142 1.039-2.212.937-3.254 1.135-2.57.817-3.396 1.378c-.842.571-2.069 1.019-2.792 1.019-.71 0-1.719.336-2.244.746s-1.965 1.038-3.202 1.396-2.474.923-2.752 1.258-1.199.718-2.048.854-1.988.658-2.53 1.161-1.579 1.043-2.304 1.201-1.827.714-2.449 1.236-1.449.948-1.839.948-1.502.537-2.47 1.193-2.053 1.196-2.411 1.2-.896.302-1.194.662-1.311.983-2.249 1.385-1.706.898-1.706 1.102-.675.641-1.5.972-1.843.98-2.262 1.443-.977.843-1.241.843-1.043.54-1.734 1.2-1.518 1.2-1.839 1.2-1.087.45-1.703 1l-3.487 3.1c-8.329 7.394-16.194 16.208-16.871 18.907-.145.577-.608 1.262-1.029 1.521s-1.036 1.402-1.368 2.538-.86 2.28-1.174 2.541-.674 1.13-.799 1.933c-.402 2.566-1.105 4.46-1.657 4.46-.295 0-.536.27-.536.6 0 .845 1.093.748 1.567-.139.218-.407.575-1.851.794-3.211.22-1.368.767-2.94 1.223-3.521s.935-1.731 1.068-2.564.484-1.608.779-1.722 1.039-1.13 1.653-2.26c2.102-3.868 2.45-4.453 3.045-5.118 1.674-1.869 13.535-13.601 14.623-14.465.693-.55 1.573-1.334 1.954-1.742s1.459-1.077 2.394-1.486 1.7-.897 1.7-1.084.72-.745 1.6-1.24 1.6-1.054 1.6-1.243.675-.562 1.5-.831 1.651-.745 1.837-1.06 1.085-.931 2-1.368 2.563-1.322 3.663-1.967c1.821-1.067 3.164-1.724 5.7-2.785.495-.207.9-.558.9-.78s.806-.605 1.791-.853 2.183-.792 2.663-1.208 1.602-.953 2.495-1.193 2.061-.782 2.597-1.203 1.662-.877 2.503-1.011 2.109-.673 2.818-1.195 1.768-.951 2.354-.951 2.078-.54 3.315-1.2 2.659-1.2 3.16-1.2 1.719-.426 2.707-.947 2.693-1.078 3.789-1.238 2.5-.653 3.12-1.095c.639-.454 2.202-.937 3.608-1.112 1.364-.171 3.11-.674 3.88-1.117s2.444-.93 3.72-1.08 3.155-.643 4.177-1.095 3.127-.966 4.68-1.142 3.633-.679 4.623-1.117 3.15-.922 4.8-1.076a32.1 32.1 0 0 0 5.8-1.196c1.54-.504 4.24-1.017 6-1.14s4.429-.58 5.93-1.015c1.515-.439 4.721-.907 7.2-1.051 2.459-.143 5.82-.607 7.47-1.032 2.079-.535 5.516-.892 11.2-1.164 4.51-.216 10.45-.653 13.2-.971 9.917-1.145 20.96-1.524 36.8-1.263 14.683.242 18.112.424 26.8 1.419 2.09.24 7.4.609 11.8.821 5.305.256 9.078.646 11.2 1.155 1.76.423 5.09.89 7.4 1.036s5.503.626 7.095 1.063 4.563.941 6.6 1.118 4.425.629 5.305 1.003 3.534.936 5.899 1.248 4.725.848 5.247 1.19 2.367.784 4.101.984 3.977.729 4.985 1.177 2.897.935 4.2 1.083 2.835.595 3.405.994 2.275.922 3.788 1.164 3.305.782 3.981 1.2 2.033.884 3.012 1.035 2.591.699 3.579 1.218 2.248.95 2.8.959 1.993.549 3.203 1.2 2.67 1.184 3.244 1.184 1.707.45 2.518 1 1.8 1 2.199 1 1.738.54 2.975 1.2 2.598 1.2 3.026 1.2 1.293.435 1.925.966 1.828 1.094 2.659 1.25 1.722.626 1.982 1.044 1.192.952 2.072 1.186 1.96.747 2.4 1.14 1.453.924 2.252 1.18 1.771.817 2.162 1.249.938.785 1.217.785 1.029.438 1.665.974 1.645 1.096 2.24 1.246 1.303.566 1.573.926c.573.763 4.778 3.654 5.316 3.654.201 0 .818.44 1.371.978 1.353 1.319 3.239 2.97 5.047 4.422.823.66 3.04 2.732 4.926 4.604 3.127 3.102 4.335 4.442 6.945 7.703.487.609 1.381 1.67 1.986 2.359s1.1 1.58 1.1 1.979.513 1.318 1.14 2.041 1.271 1.854 1.431 2.514.574 1.514.919 1.897.777 1.643.958 2.8c.476 3.033 2.352 5.668 2.352 3.303 0-.33-.234-.6-.52-.6-.6 0-1.48-2.184-1.48-3.674 0-.56-.334-1.447-.742-1.972s-.975-1.674-1.261-2.554-.838-1.825-1.227-2.1-.82-1.015-.958-1.644-.782-1.653-1.431-2.275-1.181-1.301-1.181-1.51-.405-.798-.9-1.31-1.35-1.514-1.9-2.227c-1.339-1.735-7.829-8.233-9.724-9.734-.832-.66-1.931-1.605-2.441-2.1s-1.084-.9-1.277-.9-.801-.454-1.354-1.01c-1.26-1.267-3.437-2.811-5.012-3.554-.665-.313-1.547-.945-1.962-1.403s-.934-.833-1.154-.833-1.003-.46-1.739-1.021-1.882-1.211-2.547-1.442-1.378-.741-1.588-1.133-.99-.825-1.736-.965-1.676-.608-2.066-1.039-1.303-.896-2.029-1.032-1.63-.591-2.01-1.012-1.549-1.018-2.596-1.329-2.277-.939-2.734-1.396-1.336-.831-1.953-.831-1.733-.45-2.478-1-1.655-1-2.021-1-1.637-.514-2.823-1.143-2.876-1.273-3.756-1.432-1.96-.616-2.4-1.014-1.788-.93-2.995-1.183-2.603-.728-3.102-1.055-1.809-.766-2.91-.974-2.963-.834-4.136-1.39-2.765-1.009-3.536-1.009-2.219-.435-3.218-.966-2.871-1.088-4.16-1.238-3.032-.619-3.873-1.043-2.642-.874-4-1-3.64-.656-5.07-1.179-4.202-1.133-6.159-1.355-3.985-.683-4.505-1.024c-.574-.376-2.682-.782-5.361-1.032-2.428-.227-5.171-.685-6.095-1.018s-4.244-.857-7.379-1.163-6.734-.838-8-1.183c-1.371-.373-5.453-.78-10.101-1.005-4.29-.209-10.5-.757-13.8-1.22-6.639-.93-42.909-1.44-55.6-.782m-85.484 51.837a46.13 46.13 0 0 1-1.248 1.432c-.403.441-.922 1.374-1.154 2.071s-.827 1.718-1.32 2.268-1.113 1.675-1.377 2.5-.654 1.5-.868 1.5-.671.672-1.014 1.493-.964 1.926-1.379 2.454-.756 1.289-.756 1.691-.429 1.142-.954 1.646-1.168 1.59-1.43 2.415-.798 1.724-1.189 2-.847.951-1.011 1.501-.596 1.45-.958 2c-.979 1.488-2.35 3.97-3.314 6-.47.99-1.086 1.936-1.369 2.103s-.728.977-.989 1.8-.718 1.692-1.016 1.931-.893 1.253-1.323 2.256-.971 1.939-1.203 2.083-.794 1.018-1.249 1.944a74.11 74.11 0 0 1-1.99 3.683c-.64 1.1-1.508 2.723-1.93 3.606s-1.051 1.842-1.4 2.132-.846 1.187-1.105 1.994-.763 1.801-1.121 2.208c-.654.746-1.698 2.623-3.204 5.76-.449.935-.989 1.7-1.2 1.7s-.6.675-.866 1.5-.772 2.003-1.127 2.617c-.568.984-.573 1.162-.048 1.494 1.344.85 49.119.479 49.582-.385.273-.509.414-9.303.414-25.767l.243-25.626c.19-.496.865-.633 3.123-.633 4.893 0 4.403-2.814 4.634 26.582.173 22.037.28 25.498.8 25.827 1.006.635 10.515.488 11.424-.178 1.168-.857 1.113-68.849-.057-69.705s-30.343-.76-31.051.103m67.284-.218c-.77.175-2.12.597-3 .936s-2.05.628-2.6.641-1.45.283-2 .6-1.922 1.014-3.049 1.549-2.174 1.177-2.327 1.424-.851.695-1.551.992c-1.066.453-3.765 2.941-7.429 6.847-.413.44-1.032 1.475-1.377 2.3s-.796 1.5-1.003 1.5-.68.765-1.05 1.7-.972 2.15-1.339 2.7-.878 2.08-1.137 3.4-.756 3.384-1.105 4.587c-.933 3.222-.858 7.464.141 7.999.505.27 8.109.414 21.923.414 24.688 0 22.703-.367 22.703 4.196 0 4.309 1.781 3.971-22.157 4.204-23.006.224-22.527.158-20.314 2.788.589.7 1.071 1.613 1.071 2.029s.516 1.346 1.146 2.069 1.28 1.744 1.445 2.269c.419 1.344 7.162 7.982 8.803 8.668.749.313 1.814 1.021 2.366 1.573s1.29 1.004 1.64 1.004 1.482.45 2.515 1 2.347 1 2.919 1 2.104.393 3.403.874c1.944.719 3.215.874 7.163.874s5.219-.155 7.163-.874c1.299-.481 2.919-.88 3.6-.886s1.957-.456 2.837-.998 1.909-.987 2.286-.988 1.301-.542 2.053-1.202 1.551-1.2 1.776-1.2c.511 0 3.406-2.331 5.352-4.309 2.798-2.844 3.336-3.497 3.851-4.679.284-.654.784-1.483 1.109-1.842 1.045-1.154 3.37-6.134 3.372-7.219 0-.577.398-1.927.883-3 .74-1.638.907-2.859 1.043-7.608.234-8.182 2.529-7.343-20.075-7.343-23.332 0-21.85.336-21.85-4.955 0-3.618-.964-3.445 19.186-3.445l17.781-.243c.815-.313.817-1.906.004-2.581-.346-.287-.961-1.165-1.365-1.949-1.108-2.149-7.89-8.827-8.964-8.827-.299 0-.784-.289-1.077-.642s-1.44-1.078-2.549-1.609-2.466-1.231-3.016-1.552-1.382-.588-1.849-.591-2.227-.456-3.912-1.006c-3.21-1.048-10.099-1.35-13.439-.589m76-.022c-.77.187-2.12.619-3 .958s-2.171.626-2.869.635c-.73.011-1.75.421-2.4.966-.622.522-1.697 1.072-2.39 1.223s-1.591.643-1.999 1.093-1.244 1.078-1.86 1.397c-3.036 1.57-7.007 5.686-9.037 9.366-.432.784-1.065 1.658-1.405 1.94s-.734 1.127-.875 1.877-.598 1.799-1.017 2.332c-.455.577-1.098 2.715-1.593 5.296-1.287 6.702-1.345 8.642-.396 13.222.462 2.233.841 4.478.841 4.99s.422 1.557.938 2.323 1.07 1.933 1.231 2.593.729 1.773 1.262 2.473.969 1.396.969 1.545c0 1.195 8.678 9.782 9.885 9.782.207 0 .79.441 1.296.979s1.482 1.101 2.169 1.25a7.68 7.68 0 0 1 2.339 1.04c.598.423 2.038.928 3.2 1.122s2.921.671 3.911 1.06c2.754 1.081 10.585.975 13.763-.187 1.299-.475 2.856-.864 3.459-.864s2.123-.54 3.378-1.2 2.533-1.2 2.841-1.2.559-.164.559-.364.791-.747 1.757-1.215c3.239-1.568 11.443-10.532 11.443-12.503 0-.318.429-.981.953-1.474.547-.514 1.063-1.582 1.211-2.507.141-.887.703-2.67 1.247-3.962 1.055-2.508 1.298-5.506.509-6.295-.363-.363-6.496-.48-25.151-.48-27.807 0-25.508.318-25.385-3.512.121-3.775-2.056-3.463 25.732-3.688l24.676-.2.232-1.2c.154-.804-.057-1.794-.642-3-.48-.99-1.001-2.505-1.158-3.367s-.722-2.139-1.255-2.838-.969-1.54-.969-1.868c0-1.253-9.278-11.527-10.408-11.527-.234 0-.807-.356-1.274-.791s-1.494-.996-2.283-1.249-1.807-.796-2.261-1.209-1.89-.948-3.192-1.188-2.909-.727-3.574-1.08c-1.38-.735-10.966-1.087-13.408-.494m74.058.652c-.738.328-2.259.77-3.379.982s-2.407.727-2.858 1.143-1.53.949-2.396 1.184-1.946.789-2.4 1.232-1.905 1.679-3.225 2.749-3.165 2.828-4.099 3.907-2.057 2.338-2.494 2.799-1.052 1.45-1.366 2.2-.946 1.796-1.406 2.324-.835 1.346-.835 1.816-.371 1.567-.823 2.438c-1.953 3.758-2.062 18.436-.167 22.442.544 1.151.99 2.451.99 2.888s.425 1.302.945 1.924 1.083 1.581 1.251 2.131c.331 1.081 3.819 5.277 6.403 7.703l2.605 2.5c.553.549 1.166.997 1.363.997s.914.424 1.595.942 1.688 1.082 2.238 1.252 1.736.735 2.635 1.257 2.193.949 2.874.949 1.746.201 2.365.447c2.841 1.128 3.748 1.147 4.152.084.23-.605.338-14.275.276-34.863L313 163l-1.4-.077c-.77-.042-2.004.191-2.742.518m11.956.133c-.276.515-.414 11.869-.414 34.026 0 37.903-.221 35.942 3.874 34.367.619-.238 2.077-.59 3.239-.781s2.575-.712 3.141-1.157 1.624-.92 2.353-1.057a4.79 4.79 0 0 0 2.229-1.21c.497-.529 1.118-.962 1.379-.962s2.223-1.755 4.358-3.9c5.226-5.25 5.33-5.371 5.998-6.968.32-.768.852-1.619 1.18-1.891s.717-1.069.862-1.769.62-1.889 1.054-2.642c2.064-3.584 2.241-20.237.248-23.323-.322-.499-.859-1.717-1.193-2.707-1.334-3.951-6.572-10.684-10.495-13.488-1.115-.798-2.477-1.85-3.027-2.339s-1.603-1.016-2.341-1.172-1.693-.635-2.125-1.067c-.442-.442-1.719-.936-2.929-1.133-1.179-.192-2.689-.631-3.355-.975-1.694-.876-3.524-.809-4.036.148M0 208c0 .44.256.8.569.8.586 0 1.179 1.499 1.608 4.059.134.803.584 1.893 1.001 2.422s.878 1.609 1.026 2.4.703 1.816 1.233 2.276.963 1.077.963 1.369.535 1.239 1.189 2.103 1.194 1.745 1.2 1.957.367.752.802 1.2 1.74 1.883 2.9 3.189c3.376 3.802 12.507 12.625 13.066 12.625.175 0 .658.375 1.073.833s1.373 1.092 2.13 1.408 1.625.931 1.931 1.367.774.792 1.043.792 1.079.54 1.802 1.2 1.548 1.2 1.835 1.2 1.034.403 1.66.896c1.431 1.126 3.066 2.088 5.369 3.161.99.461 2.16 1.161 2.6 1.555s1.546.915 2.459 1.157 1.758.698 1.879 1.013.872.696 1.67.846 1.931.676 2.521 1.17 1.701 1.029 2.471 1.188 2.03.713 2.8 1.231 2.178 1.115 3.129 1.326 2.03.656 2.4.987 1.391.727 2.271.88 2.23.699 3 1.215 2.21 1.055 3.2 1.197 2.296.606 2.903 1.032 2.136.954 3.4 1.174 2.927.738 3.697 1.15 2.3.876 3.4 1.029 2.6.622 3.333 1.042 2.587.941 4.118 1.158 3.508.764 4.391 1.214 3.027.982 4.764 1.18 3.715.648 4.395 1 2.756.812 4.613 1.023 4.292.745 5.413 1.187c1.261.497 3.769.944 6.581 1.173 2.55.208 5.055.635 5.71.973 1.264.654 6.641 1.441 9.872 1.446 1.105.001 3.54.371 5.41.82 2.335.562 5.781.928 11 1.17 4.18.193 9.76.679 12.4 1.079 7.922 1.2 56.493 1.089 65.8-.151 3.63-.484 9.3-.973 12.6-1.088 3.46-.121 6.931-.466 8.2-.815 1.21-.334 4.72-.808 7.8-1.054 3.438-.275 6.449-.747 7.8-1.221 1.21-.425 4.129-.947 6.487-1.159 2.466-.222 5.144-.723 6.307-1.181 1.111-.438 3.652-.982 5.648-1.208s4.19-.701 4.877-1.056 2.548-.792 4.136-.97 3.624-.699 4.524-1.158 2.868-.99 4.375-1.179 3.168-.623 3.693-.964 2.246-.89 3.825-1.217 3.29-.865 3.8-1.193 1.962-.784 3.225-1.013 2.794-.767 3.4-1.195 1.933-.892 2.947-1.03 2.444-.695 3.178-1.236 1.812-.984 2.396-.984 1.87-.429 2.857-.954 2.408-1.084 3.159-1.243 1.754-.645 2.228-1.08 1.626-.963 2.561-1.173 2.225-.824 2.869-1.366S348.484 258 349 258s1.473-.45 2.127-1 1.543-1 1.976-1 1.466-.54 2.297-1.2 1.813-1.2 2.184-1.2 1.381-.535 2.245-1.189 1.768-1.194 2.009-1.2.755-.361 1.141-.788 1.231-.893 1.876-1.035 1.452-.685 1.794-1.207.962-1.058 1.377-1.189c.982-.312 5.333-3.219 5.975-3.993.273-.329.716-.599.984-.599s.692-.45.942-1 .649-1 .886-1c.656 0 5.498-4.29 8.368-7.415l3.289-3.501c.401-.393.73-.861.73-1.04s.495-.864 1.1-1.522c2.459-2.675 3.252-3.792 3.502-4.932.145-.658.607-1.381 1.028-1.606.432-.231.961-1.188 1.215-2.197.247-.983.58-1.787.738-1.787.44 0 1.217-1.916 1.217-3 0-1.327.817-3 1.464-3 .295 0 .536-.36.536-.8 0-2.655-1.794-.007-2.342 3.456-.178 1.125-.713 2.543-1.191 3.149s-.867 1.501-.867 1.987-.383 1.227-.852 1.646-1.191 1.482-1.606 2.362c-.83 1.76-2.018 3.447-3.545 5.037-.549.57-2.437 2.65-4.197 4.621s-4.01 4.244-5 5.049-2.739 2.325-3.886 3.378c-2.354 2.16-3.628 3.156-5.522 4.315-2.107 1.29-3.524 2.285-4.592 3.228-.55.485-1.45 1.017-2 1.182s-1.509.725-2.131 1.245-1.359.945-1.638.945-.824.35-1.21.777-1.23.893-1.872 1.034-1.659.663-2.259 1.159-1.683 1.105-2.409 1.352-1.784.816-2.354 1.264-1.447.814-1.95.814-1.424.427-2.046.948-1.761 1.081-2.531 1.244-1.977.729-2.682 1.258-1.874 1.08-2.6 1.224-2.11.681-3.078 1.194-2.218.932-2.778.932-1.691.465-2.511 1.034-2.271 1.134-3.222 1.256a11.01 11.01 0 0 0-3.329 1.122 12 12 0 0 1-3.525 1.173c-1.059.149-2.524.625-3.256 1.057s-2.291.899-3.465 1.038-2.716.597-3.429 1.017-2.597.945-4.188 1.165-3.618.771-4.505 1.224-2.912.968-4.5 1.146-3.454.617-4.146.975-2.943.824-4.999 1.034c-2.089.214-4.548.74-5.57 1.193-1.203.532-3.353.933-6.269 1.17-2.441.199-5.543.723-6.893 1.165-1.48.484-4.6.97-7.855 1.222-2.97.23-6.48.692-7.8 1.025-1.434.363-5.906.758-11.109.983-4.79.207-10.82.696-13.4 1.088-7.05 1.07-50.459 1.067-57.212-.004-2.486-.394-8.516-.88-13.4-1.079-5.754-.235-9.653-.58-11.079-.981-1.21-.34-4.742-.801-7.85-1.025-3.665-.264-6.467-.688-7.977-1.207-1.28-.441-4.239-.969-6.576-1.174-2.509-.22-5.188-.724-6.542-1.231-1.261-.472-3.77-1.006-5.574-1.187s-4.228-.706-5.385-1.165-2.837-.834-3.732-.834-2.738-.444-4.096-.987-3.685-1.16-5.173-1.371-3.288-.734-4-1.163-2.283-.904-3.491-1.056-2.737-.608-3.4-1.014-2.104-.868-3.204-1.026-2.72-.693-3.6-1.188-2.374-1.016-3.321-1.156-2.386-.682-3.2-1.205-2.199-1.074-3.079-1.226-1.909-.552-2.286-.891-1.536-.774-2.576-.968-2.262-.696-2.715-1.115-1.548-.955-2.434-1.19a10.35 10.35 0 0 1-2.923-1.395c-.722-.533-1.907-1.08-2.634-1.217s-1.645-.604-2.039-1.04-1.024-.792-1.399-.792-1.292-.411-2.038-.914-2.076-1.286-2.956-1.74l-3-1.553a17.33 17.33 0 0 1-2.531-1.659c-.622-.514-1.358-.934-1.635-.934-.506 0-2.049-1.062-5.089-3.5-.891-.715-1.803-1.3-2.025-1.3-1.633 0-18.443-16.422-19.653-19.2-.24-.55-.848-1.509-1.351-2.131s-.916-1.355-.916-1.63-.45-.922-1-1.439-1.001-1.223-1.002-1.57-.54-1.71-1.198-3.03-1.198-2.891-1.198-3.492c-.003-1.549-1.184-4.308-1.845-4.308-.307 0-.557.36-.557.8m374.937 53.44l-1.737 1.64v3.66 3.66l1.556 1.556c2.129 2.129 8.375 2.572 10.479.744s3.947-6.97 2.759-7.704c-.223-.138-.651-.823-.951-1.523-1.209-2.826-2.584-3.571-6.682-3.625l-3.688-.048-1.736 1.64m11.564 2.617c-.315 1.204-1.601.91-1.896-.434-.211-.962-.49-1.199-1.528-1.3-1.587-.154-1.976-1.361-.607-1.878 1.187-.449 4.351 2.387 4.031 3.612m-7.643-3.226c2.268 1.214 2.8 2.365 1.885 4.075-.385.72-.322.943.4 1.423 1.345.892 1.062 1.869-.746 2.579-2.032.799-2.638.017-2.222-2.867.511-3.533.536-3.43-.875-3.566-.93-.09-1.3-.327-1.3-.834 0-1.299 1.271-1.66 2.858-.81m-3.324 5.777c-.035 4.254-.294 5.055-1.352 4.177-.772-.641-.845-7.812-.082-8.12 1.375-.555 1.469-.296 1.434 3.943m1.856-3.308c.664 2.018.383 7.125-.386 7.015-1.253-.179-1.451-7.515-.204-7.515.234 0 .499.225.59.5m6.538.4c-.07.495-.398.9-.728.9s-.658-.405-.728-.9c-.098-.693.069-.9.728-.9s.826.207.728.9m.361 3.549c.333.333.251.663-.315 1.271-.923.991-1.363.687-1.014-.701.278-1.111.635-1.264 1.329-.57m2.105 1.94c.492.918-1.946 4.011-3.161 4.011-1.747 0-1.666-.939.249-2.883 2.126-2.159 2.32-2.234 2.912-1.128m-3.665.663c-.246 1.241-1.735 1.885-2.527 1.093-.654-.654-.653-.719.03-1.218 1.051-.769 2.659-.688 2.497.125m-4.006 2.234c.184.971-1.781 1.427-2.604.604-.865-.865-.27-1.557 1.215-1.413.809.079 1.306.369 1.389.809" fill="#f0d32a"/>
  <path d="M0 94.6l.536 94.6c.552 0 1.255-1.894 1.657-4.46.125-.803.485-1.673.799-1.933s.842-1.404 1.174-2.541.948-2.278 1.368-2.538.884-.944 1.029-1.521c.677-2.699 8.542-11.513 16.871-18.907l3.487-3.1c.616-.55 1.383-1 1.703-1s1.148-.54 1.839-1.2 1.471-1.2 1.734-1.2.822-.379 1.241-.843 1.437-1.113 2.262-1.443 1.5-.768 1.5-.972.768-.699 1.706-1.102 1.95-1.025 2.249-1.385.836-.658 1.194-.662 1.443-.544 2.411-1.2S46.839 142 47.23 142s1.217-.427 1.839-.948 1.724-1.078 2.449-1.236 1.762-.699 2.304-1.201 1.681-1.025 2.53-1.161 1.771-.52 2.048-.854 1.516-.901 2.752-1.258 2.677-.986 3.202-1.396 1.534-.746 2.244-.746c.723 0 1.95-.448 2.792-1.019.826-.561 2.354-1.181 3.396-1.378s2.507-.709 3.254-1.135 2.162-.894 3.142-1.039 2.345-.613 3.034-1.039 2.452-.945 3.917-1.152c1.54-.218 3.08-.705 3.652-1.154.597-.47 1.977-.89 3.488-1.061 1.376-.155 3.285-.639 4.242-1.075s3.04-.939 4.629-1.117 3.498-.639 4.244-1.025 3.212-.944 5.482-1.242 4.695-.836 5.388-1.194c.72-.373 3.033-.806 5.395-1.011 2.275-.197 4.903-.633 5.841-.968s4.382-.874 7.652-1.199 6.871-.867 8-1.207c1.288-.388 5.113-.766 10.254-1.015 4.51-.219 10.81-.787 14-1.264 8.997-1.344 54.588-1.326 64.067.025 3.446.491 9.746 1.062 14 1.267 4.602.223 8.665.628 10.034 1.001 1.266.345 4.866.877 8 1.183s6.455.83 7.379 1.163 3.667.791 6.095 1.018c2.679.25 4.787.656 5.361 1.032.52.341 2.547.801 4.505 1.024s4.729.832 6.159 1.355 3.711 1.053 5.07 1.179 3.158.576 4 1 2.584.894 3.873 1.043 3.161.707 4.16 1.238 2.447.966 3.218.966 2.362.454 3.536 1.009 3.034 1.181 4.136 1.39 2.411.647 2.91.974 1.895.802 3.102 1.055 2.555.785 2.995 1.183 1.52.854 2.4 1.014 2.57.803 3.756 1.432 2.456 1.143 2.823 1.143 1.276.45 2.021 1 1.86 1 2.478 1 1.496.374 1.953.831 1.687 1.085 2.734 1.396 2.215.909 2.596 1.329 1.285.876 2.01 1.012 1.639.601 2.029 1.032 1.32.899 2.066 1.039 1.527.574 1.736.965.924.901 1.588 1.133 1.81.88 2.547 1.442 1.519 1.021 1.739 1.021.739.375 1.154.833 1.297 1.09 1.962 1.403c1.575.743 3.752 2.287 5.012 3.554.553.556 1.162 1.01 1.354 1.01s.767.405 1.277.9 1.609 1.44 2.441 2.1c1.895 1.501 8.385 7.999 9.724 9.734.55.713 1.405 1.715 1.9 2.227s.9 1.101.9 1.31.531.888 1.181 1.51 1.293 1.646 1.431 2.275.57 1.368.958 1.644.941 1.22 1.227 2.1.853 2.029 1.261 2.554.742 1.412.742 1.972c0 1.49.88 3.674 1.48 3.674.425 0 .52-17.135.52-93.8V0H200 0v94.6m0 209.8V400h200 200v-94.8l-.536-94.8c-.647 0-1.464 1.673-1.464 3 0 1.084-.777 3-1.217 3-.158 0-.491.804-.738 1.787-.254 1.009-.783 1.966-1.215 2.197-.421.225-.883.948-1.028 1.606-.25 1.14-1.043 2.257-3.502 4.932-.605.658-1.1 1.343-1.1 1.522s-.329.647-.73 1.04-1.882 1.969-3.289 3.501c-2.87 3.125-7.712 7.415-8.368 7.415-.237 0-.635.45-.886 1s-.674 1-.942 1-.711.27-.984.599c-.642.774-4.993 3.681-5.975 3.993-.415.131-1.034.667-1.377 1.189s-1.149 1.065-1.794 1.207-1.489.607-1.876 1.035-.9.782-1.141.788-1.145.546-2.009 1.2-1.875 1.189-2.245 1.189-1.353.54-2.184 1.2-1.864 1.2-2.297 1.2-1.322.45-1.976 1-1.611 1-2.127 1-1.465.443-2.108.984-1.935 1.156-2.869 1.366-2.087.738-2.561 1.173-1.477.921-2.228 1.08-2.173.719-3.159 1.243-2.272.954-2.857.954-1.663.443-2.396.984-2.164 1.097-3.178 1.236-2.34.602-2.947 1.03-2.136.966-3.4 1.195-2.714.685-3.225 1.013-2.22.865-3.8 1.193-3.301.875-3.825 1.217-2.186.775-3.693.964-3.475.72-4.375 1.179-2.935.98-4.524 1.158-3.45.615-4.136.97-2.881.83-4.877 1.056-4.537.77-5.648 1.208c-1.163.458-3.841.959-6.307 1.181-2.358.212-5.277.734-6.487 1.159-1.351.474-4.362.946-7.8 1.221-3.08.246-6.59.72-7.8 1.054-1.269.349-4.74.694-8.2.815-3.3.115-8.97.604-12.6 1.088-9.307 1.24-57.878 1.351-65.8.151-2.64-.4-8.22-.886-12.4-1.079-5.219-.242-8.665-.608-11-1.17-1.87-.449-4.305-.819-5.41-.82-3.231-.005-8.608-.792-9.872-1.446-.655-.338-3.16-.765-5.71-.973-2.812-.229-5.32-.676-6.581-1.173-1.121-.442-3.557-.976-5.413-1.187s-3.933-.672-4.613-1.023-2.658-.802-4.395-1-3.881-.729-4.764-1.18-2.859-.996-4.391-1.214-3.384-.738-4.118-1.158-2.233-.889-3.333-1.042-2.63-.616-3.4-1.029-2.434-.93-3.697-1.15-2.794-.748-3.4-1.174-1.913-.89-2.903-1.032-2.43-.681-3.2-1.197-2.12-1.063-3-1.215-1.902-.549-2.271-.88-1.45-.775-2.4-.987-2.359-.808-3.129-1.326-2.03-1.072-2.8-1.231-1.882-.694-2.471-1.188-1.724-1.021-2.521-1.17-1.549-.53-1.67-.846-.967-.771-1.879-1.013-2.019-.763-2.459-1.157-1.61-1.094-2.6-1.555c-2.303-1.073-3.938-2.035-5.369-3.161-.626-.493-1.374-.896-1.66-.896s-1.113-.54-1.835-1.2-1.534-1.2-1.802-1.2-.738-.356-1.043-.792-1.174-1.051-1.931-1.367-1.715-.95-2.13-1.408-.898-.833-1.073-.833c-.559 0-9.69-8.823-13.066-12.625l-2.9-3.189c-.435-.448-.796-.988-.802-1.2s-.546-1.093-1.2-1.957-1.189-1.811-1.189-2.103-.433-.908-.963-1.369-1.084-1.484-1.233-2.276-.61-1.871-1.026-2.4-.867-1.619-1.001-2.422c-.429-2.56-1.022-4.059-1.608-4.059-.49 0-.569 13.205-.569 95.6m385.273-43.352c.674.634 1.471 1.725 1.77 2.425s.728 1.385.951 1.523c1.188.734-.652 5.872-2.759 7.704s-8.35 1.385-10.479-.744L373.2 270.4v-3.66-3.66l1.737-1.64 1.736-1.64 3.688.048c3.481.046 3.755.113 4.912 1.2m-9.104 2.287c-.601 1.567.033 6.865.835 6.98.769.11 1.05-4.997.386-7.015-.218-.661-.962-.639-1.221.035m6.303.365c.07.495.398.9.728.9s.658-.405.728-.9c.098-.693-.069-.9-.728-.9s-.826.207-.728.9m.468 4.3c-.179.894-.463 1.2-1.114 1.2-1.568 0-2.446.923-1.643 1.726.766.765 2.067.329 2.517-.843.141-.366.665-1.044 1.164-1.508.693-.641.798-.953.443-1.308-.746-.746-1.11-.551-1.367.733" fill="#fbfbfb"/>
</svg>