<?xml version="1.0"?><svg xmlns="http://www.w3.org/2000/svg" width="1000" height="1000" viewBox="0 0 1000 1000" fill="none" version="1.2" baseProfile="tiny-ps"><title>Company Name</title><rect width="1000" height="1000" fill="#474AEE"/><path d="M662.501 525.917V474.083H536.331L542.793 448.717C557.96 390.266 587.751 362.143 641.918 362.143C653.835 362.143 666.835 364.349 681.46 369.311L708.543 320.786C689.043 312.514 664.668 307 643.001 307C561.751 307 508.668 347.806 487.001 434.38L476.883 474.083H337.501V525.917H463.672L457.21 551.283C442.043 609.734 411.71 637.857 358.085 637.857C345.626 637.857 332.626 635.651 318.543 630.688L290.918 679.214C310.96 687.486 335.335 693 357.001 693C438.251 693 490.251 652.194 513.001 565.62L523.12 525.917H662.501Z" fill="white"/><path d="M229.167 500C229.167 423.903 289.833 362.143 364.583 362.143C380.292 362.143 395.458 364.9 410.083 370.414L437.708 321.889C414.417 311.963 389.5 307 364.583 307C260.042 307 175 393.574 175 500C175 560.106 203.167 616.903 249.208 653.297L276.833 604.771C247.042 578.854 229.167 540.806 229.167 500Z" fill="white"/><path d="M750.251 346.703L723.167 395.229C752.959 421.146 770.834 459.195 770.834 500C770.834 576.097 710.167 637.857 635.417 637.857C619.709 637.857 604.542 635.1 589.917 629.586L562.292 678.112C585.584 688.037 610.501 693 635.417 693C739.959 693 825.001 606.426 825.001 500C825.001 439.895 796.834 383.097 750.251 346.703Z" fill="white"/></svg>
