<?xml version="1.0" encoding="UTF-8" standalone="yes"?>
<svg version="1.2" width="751.000000pt" height="751.000000pt" viewBox="11 -100 751.000000 900.000000" preserveAspectRatio="xMidYMid meet" baseProfile="tiny-ps" xmlns="http://www.w3.org/2000/svg">
  <title>bimi-svg-tiny-12-ps</title>
  <g transform="translate(0.000000,810.000000) scale(0.100000,-0.100000)" fill="#000000" stroke="none">
    <path d="M821 5603 c1 -1061 4 -2182 8 -2493 l6 -565 24 -48 c13 -27 43 -67&#xA;66 -90 23 -23 262 -197 531 -387 269 -189 665 -469 879 -620 1591 -1126 1480&#xA;-1050 1528 -1050 46 0 62 10 297 176 47 33 171 121 275 194 105 73 280 197&#xA;390 275 237 168 388 274 745 525 884 620 1207 849 1245 882 25 22 53 61 71&#xA;100 l29 63 3 2483 2 2482 -3050 0 -3050 0 1 -1927z m5515 1421 l29 -6 0 -2096&#xA;c-1 -2096 -1 -2097 -22 -2143 -35 -77 -78 -114 -327 -282 -280 -189 -676 -466&#xA;-1029 -719 -136 -97 -256 -182 -266 -188 -19 -10 -20 24 -23 2692 -2 1487 -1&#xA;2709 1 2716 2 8 13 18 25 22 23 10 1566 13 1612 4z m-2186 -2857 c0 -1994 -3&#xA;-2841 -11 -2882 -13 -72 -48 -142 -96 -196 -51 -56 -86 -72 -148 -67 -59 5&#xA;-97 28 -222 138 -62 53 -85 81 -93 108 -6 25 -10 893 -10 2615 l0 2577 -260 0&#xA;-260 0 0 -2445 0 -2445 -42 21 c-22 11 -107 69 -187 127 -266 192 -297 218&#xA;-320 265 l-22 45 1 2203 c0 1212 -4 2210 -8 2217 -7 9 -67 12 -268 10 l-259&#xA;-3 -2 -2045 c-2 -1125 -3 -2048 -3 -2053 0 -15 -67 27 -230 144 -259 186 -279&#xA;203 -306 265 l-24 55 0 2071 c0 1511 3 2075 11 2085 10 11 246 13 1385 13&#xA;l1374 0 0 -2823z"/>
    <path d="M5267 6423 c-10 -9 -9 -3773 1 -3773 7 0 179 116 450 305 29 20 62&#xA;51 73 68 18 31 19 71 19 1695 l0 1663 -25 24 -24 25 -244 0 c-134 0 -247 -3&#xA;-250 -7z"/>
  </g>
</svg>