<?xml version="1.0" encoding="utf-8"?>
<!-- Generator: Adobe Illustrator 28.0.0, SVG Export Plug-In . SVG Version: 6.00 Build 0)  -->
<svg version="1.2" baseProfile="tiny-ps" id="Calque_1"
	 xmlns="http://www.w3.org/2000/svg" xmlns:xlink="http://www.w3.org/1999/xlink" viewBox="0 0 88 88"
	xml:space="preserve">
	 <title>EDF</title>
<path fill-rule="evenodd" fill="#10367A" d="M48.6,47.4c0,1.8,1.3,2.9,3,2.9c1.7,0,3-0.6,3.8-1.2c0.1,0.1,0.4,0.6,0.7,1.2
	c0.3,0.5,0.6,1.1,0.7,1.2c-1.3,1-3.1,1.7-6.1,1.7c-3.8,0-5.9-2.5-5.9-6.8c0-6.3,4.3-7,6.1-7c4,0,5.9,2.2,5.9,6.7v1
	c-0.3,0-0.6,0-0.9,0c-0.9,0-1.7,0-3.1,0c-1.1,0-4.2,0.1-4.2,0.1V47.4z M50.9,42.1c-2,0-2.2,1.8-2.3,2.6l0,0.2c0,0,1.5,0,2.3,0
	c0.8,0,2.1,0,2.1,0v-0.2C53,43.8,52.9,42.1,50.9,42.1z M64.5,39.7c3.7,0,6.3,2.3,6.3,6.5c0,5.2-3.5,6.8-7.1,6.8h-4.9
	c0-0.2,0-0.6,0-1c0-0.3,0-0.6,0-1v-9.2c0-0.4,0-0.7,0-1v0c0-0.5,0-0.8,0-1.1L64.5,39.7L64.5,39.7z M63.4,50.4c2.1,0,3.7-0.7,3.7-4.3
	c0-3.1-1.7-4.1-3.7-4.1h-1.1v8.3L63.4,50.4L63.4,50.4z M76,50.9c0,1,0,2,0,2h-3.6c0,0,0-1.1,0-2v-9.2c0-1,0-2,0-2H81v2.6
	c0,0-1.9,0-2.6,0H76v2.7l2.4,0c0.5,0,2,0,2,0v2.5c0,0-1.4,0-2,0l-2.4,0V50.9z"/>
<path fill-rule="evenodd" fill="#FE5716" d="M26,33.2c0.1-1,0-2.4,0.7-3.1c0.2-1,1.9-0.8,1.6-1.5c-0.2-0.4-0.9-0.2-1.3-0.1
	c-0.2,0.1-2.5,0.8-3.4,0.9c-0.4-0.1-0.7-0.2-1.1-0.3c-1.4,0.2-2.2,1.3-3,2.2c-0.7,0.7-1.6,2.6-0.8,3.7c0,0.2-0.1,0.5-0.1,0.7
	l1.6,2.3c0.6,0.4,0.6,0.7,1.2,1.1c0.1,0.2,0.2,0.4,0.4,0.6c0.5,0.3,1.9,0.3,2.2,0.1c2.3,0.2,2.1-4.4,2.8-5.4
	C26.7,33.9,26.4,33.4,26,33.2z M16,47.2c0.5-0.1,1.3-0.2,1.8-0.4c0.7-0.3,3.1-2,2.3-3.4c-0.2-2.9-3.7-0.4-5.2-1.4
	c-1.5-0.2-3.2-3-3.7-4.2c-0.2-0.5-0.1-0.3-0.3-0.7c0,0-0.2,0.1-0.2,0.1c-0.4,0.5-0.4,0.9-0.4,2.2c-0.2,0-0.4,0-0.6,0
	c0,0.4-0.1,0.7-0.3,0.9c0,0.1-0.1,0.1-0.1,0.2c-0.4-0.1-0.2,0.1-0.3-0.3c-1.4,0.1-1.3,1.4-1.9,2.2C7,45,12.2,48.1,16,47.2z
	 M33.1,39.4c-2.2,0.3-3.6,1-4.5,1.6c-0.6,0.4-0.8,0.7-0.9,0.9c-0.1,0.2-0.2,0.6-0.2,1c0.1,0.4,0.2,0.8,0.6,1.1
	c2.8-0.2,7.5-0.4,8.5,1.9c0.1,0.3,0.1,0.5,0.1,0.6c0.9-0.2,0.2-0.1,1.6,0.1c0.3,0,1.1-0.1,1.6-0.2c0.2-0.1,0.4-0.3,0.4-0.3
	s0-0.2,0-0.3c0,0,0.5,0,0.7-0.1c1.3-0.2,0.6-0.8,1.2-1.5C41.7,39.7,37.3,38.7,33.1,39.4z M28.1,48.7c-0.6,0.5-0.9,0.4-1.3,1.1
	c0,0,0.1,0.1,0,0.1c0.4,0.8,1.3,1.1,1.9,1.6c0.2,0.2,0.7,1.1,1,1.2c0.3,0.3,0.5,1.3,0.7,1.3c0.2,0.3,0,0.9,0.2,1.1
	c0,1.1-0.1,1.2-0.3,1.4c0,0.1,0.1,0.3,0.1,0.4c0.1,0.1,0.5,0.4,0.7,0.3c0.6,0,3.1,2,3.3,2.3c1.8,0.1,1.7-0.4,2.9-0.9
	c0.3-0.1,0.6,0,0.8-0.2c0.2-0.2,0.3-0.7,0.5-0.9C38.7,53,32.6,48.8,28.1,48.7z M21,49.7c-0.3,0.3-0.9,0.4-1.1,0.7
	c-0.3,0.5-1,1.5-1.5,2c-1.7,1.6-5.4,2.4-7.2,0.9c-0.1,0,0,0.1,0.1,0.5c0.1,0.8,0.8,2.8,0.6,3.3c0.2,0.6,0.3,0.4,0.6,0.7
	c0.2,0.2,0.3,0.8,0.5,0.9c0.3,0,0.6,0,0.8-0.1c0,0.2,0.1,0.3,0.2,0.5c0.4,0,0.7-0.1,1.1-0.1c0.2,0,0.8,0.4,1,0.4
	c0.4,0,0.8-0.1,1.2-0.1c0.9,0.2,1.7-0.1,2.4-0.6c0.4-0.3,0.9-0.2,1.3-0.6c0.5-0.5,1.3-1.4,1.6-2c0.9-1.5,0.6-5.2-0.2-6.1
	C22,49.6,21.7,49.6,21,49.7z"/>
</svg>
