<?xml version="1.0" encoding="utf-8"?>
<!-- Generator: Adobe Illustrator 27.6.1, SVG Export Plug-In . SVG Version: 6.00 Build 0)  -->
<svg version="1.2" baseProfile="tiny-ps" id="Layer_1" xmlns="http://www.w3.org/2000/svg" xmlns:xlink="http://www.w3.org/1999/xlink"
	 viewBox="0 0 96 96" xml:space="preserve">
 <title>QAD</title>
<rect fill="#FFFFFF" width="96" height="96"/>
<g>
	<path fill="#FB0436" d="M32.6,54.2L32.6,54.2c-1.5-2.3-2.5-4.9-2-7.6c1.6-8.2,16.2-11.8,17.5-9.8C49.5,38.8,37.5,45.9,32.6,54.2z
		 M36.2,58.7c-1.2-1.3-2.5-2.8-3.6-4.5c-1.6,2.7-2.5,5.6-1.9,8.4c1.4,6.6,10.1,10.1,13.2,11.3c9,3.6,18.8,2.3,19.1,0.5
		C63.4,72.2,47.5,71.5,36.2,58.7z"/>
	<path fill="#EE5B30" d="M63.4,41.8L63.4,41.8c1.5,2.3,2.5,4.9,2,7.6c-1.6,8.2-16.2,11.8-17.5,9.8C46.5,57.2,58.4,50.1,63.4,41.8z
		 M59.8,37.3c1.2,1.3,2.5,2.8,3.6,4.5c1.6-2.7,2.5-5.6,1.9-8.4C63.8,26.8,55.1,23.3,52,22.1c-9-3.6-18.8-2.3-19.1-0.5
		C32.6,23.8,48.4,24.5,59.8,37.3z"/>
</g>
</svg>
