<?xml version="1.0" encoding="UTF-8" standalone="yes"?><svg xmlns="http://www.w3.org/2000/svg" baseProfile="tiny-ps" version="1.2" viewBox="0 0 600 600"><title>Zilch</title><rect width="600" height="600" fill="#00d287" stroke-width="0"></rect><path d="M150.2,184.1c65.1-39.9,130.2-79.8,195.3-119.7,5.2-3.2,11.9-2.6,16.5,1.5,26.1,23.3,52.1,46.7,78.2,70,4.6,4.1,5.9,10.7,3.3,16.2-28.7,61.6-57.5,123.2-86.2,184.8-3.2,6.9.7,14.9,8.1,16.6,28.3,6.6,56.6,13.1,84.8,19.7,9.1,2.1,11.5,13.9,4,19.4-64.1,47-128.3,94-192.4,141.1-6.7,4.9-15.6,5.1-22.6.6-30.6-19.9-61.1-39.8-91.7-59.7-5.8-3.8-7.9-11.3-5-17.6,26.4-55.6,52.7-111.1,79.1-166.7,2.7-5.7,1.5-12.4-2.9-16.9-23.6-23.6-47.2-47.2-70.8-70.8-5.4-5.5-4.3-14.6,2.2-18.6Z" fill="#fff" stroke-width="0"></path></svg>