<?xml version="1.0" encoding="utf-8"?>
<!-- Generator: Adobe Illustrator 28.2.0, SVG Export Plug-In . SVG Version: 6.00 Build 0)  -->
<svg version="1.2" baseProfile="tiny-ps" id="Layer_1" xmlns="http://www.w3.org/2000/svg" xmlns:xlink="http://www.w3.org/1999/xlink"
	  viewBox="0 0 1000 1000" xml:space="preserve">
	<title>HBOMax</title>
<rect fill="#FFFFFF" width="1000" height="1000"/>
<g id="HBO_MAX">
	<g id="HBO_logo">
		<polygon fill="#002BE7" points="362.6,403.3 385.1,403.3 385.1,452.9 419.9,452.9 419.9,325 385.1,325 385.1,372.6 362.6,372.6 
			362.6,325 326.9,325 326.9,452.9 362.6,452.9 		"/>
		<path fill="#002BE7" d="M520.6,417c5.1,10.4,22.7,36.5,58.5,36.5s65-29.8,65-65.6c0-36.6-29.1-65-65-65
			c-35.8,0-54.1,26.3-58.6,36.9c0-16-15.7-34.8-34.1-34.8h-59.3v127.9h55.3C504.7,452.9,520.5,433.6,520.6,417z M579.1,355.4
			c18,0,32.5,14.6,32.5,32.6s-14.6,32.5-32.5,32.5c-18,0-32.6-14.6-32.6-32.5C546.5,369.9,561.1,355.4,579.1,355.4z M514.3,379.9
			c-0.8,3.6-0.9,14.2,0.1,17.8c-2.7-4.2-9.1-9.3-13.2-9.8C505.3,387.4,512,382.8,514.3,379.9z M460.2,353.4h17.6
			c5.1,0,9.1,5,9.1,10.8s-4,10.8-9.1,10.8h-17.6V353.4z M460.2,423.1v-21.6h17.6c5.1,0,9.1,5,9.1,10.8s-4,10.8-9.1,10.8L460.2,423.1
			L460.2,423.1z"/>
		<path fill="#002BE7" d="M579.1,413.5c14.1,0,25.6-11.5,25.6-25.6s-11.5-25.6-25.6-25.6s-25.6,11.5-25.6,25.6
			S565,413.5,579.1,413.5z"/>
	</g>
	<g id="Max_Logo_00000147194115527972109500000017488126264073637273_">
		<path id="x_00000011714149139512829280000011705066530039879814_" fill="#002BE7" d="M643.1,671.9h65.3
			c15.4-24.9,32.8-47.6,52.8-68.9c19.7,21.3,36.1,43.9,51.5,68.9h65.9c-22.6-34.4-47.2-67.2-76.7-99.7
			c29.2-31.2,54.1-63.3,76.7-97.1H814c-16.1,24.9-33.4,45.9-52.8,66.6c-19.7-20.7-37.1-41.6-52.8-66.6h-65.3
			c22.3,34.8,47.6,65.9,77.1,97.1C690.7,604.7,665.4,638.5,643.1,671.9"/>
		<path id="a_00000125589449901195111360000015945914525998722984_" fill="#002BE7" d="M514.9,677.1c26.6,0,49.5-9.8,67.2-31.2v25.9
			h51.5V475.1h-51.5V501c-17.7-21.3-40.7-31.2-67.2-31.2c-53.8,0-98.4,46.2-98.4,103.6C416.5,630.9,461.1,677.1,514.9,677.1
			 M465.1,573.5c0-32.1,25.9-58,58-58s58,25.9,58,58s-25.9,58-58,58C491,631.6,465.1,605.7,465.1,573.5 M478.5,573.5
			c0,24.9,20,44.9,44.6,44.9s44.6-20,44.6-44.9s-20-44.9-44.6-44.9S478.5,548.6,478.5,573.5"/>
		<path id="m_00000027566359229340358800000016273255330831412358_" fill="#002BE7" d="M121.4,671.9h54.1V549.6
			c23.6-18.7,34.4-24.6,43.3-24.6c10.5,0,17.4,6.6,17.4,23v124h54.1V549.3c23.6-18.4,34.1-24.3,43.3-24.3c10.5,0,17.4,6.6,17.4,23
			v124h54.1V529c0-44.3-25.3-59-49.5-59c-20.7,0-41.6,8.5-69.2,29.5c-8.9-22-28.2-29.5-45.6-29.5c-20.7,0-41.6,9.2-68.5,29.8v-24.6
			h-50.8L121.4,671.9L121.4,671.9z"/>
	</g>
</g>
</svg>
