<?xml version="1.0" encoding="UTF-8" standalone="yes"?>
<svg version="1.2" baseProfile="tiny-ps" viewBox="0 0 1000 1000" xml:space="preserve" xmlns="http://www.w3.org/2000/svg">
  <title>max</title>
  <g>
    <rect fill="#FFFFFF" width="1000" height="1000"/>
    <path fill="#002BE7" d="M663.9,611.9h74.7c17.6-28.5,37.5-54.4,60.5-78.9c22.5,24.4,41.3,50.3,58.9,78.9h75.5&#xA;&#x9;&#x9;c-25.9-39.4-54.1-77-87.9-114.1c33.4-35.7,62-72.5,87.9-111.1h-74c-18.4,28.5-38.3,52.6-60.5,76.2c-22.5-23.7-42.4-47.7-60.5-76.2&#xA;&#x9;&#x9;h-74.7c25.5,39.8,54.4,75.5,88.2,111.1C718.3,534.9,689.4,573.6,663.9,611.9z"/>
    <path fill="#002BE7" d="M517.1,617.9c30.4,0,56.7-11.3,77-35.7v29.7h59V386.6h-59v29.7c-20.3-24.4-46.6-35.7-77-35.7&#xA;&#x9;&#x9;c-61.6,0-112.6,52.9-112.6,118.7C404.4,565,455.5,617.9,517.1,617.9z M460,499.2c0-36.8,29.7-66.5,66.5-66.5s66.5,29.7,66.5,66.5&#xA;&#x9;&#x9;s-29.7,66.5-66.5,66.5S460,536,460,499.2z M475.4,499.2c0,28.5,22.9,51.4,51.1,51.4s51.1-22.9,51.1-51.4s-22.9-51.4-51.1-51.4&#xA;&#x9;&#x9;C498.3,447.8,475.4,470.7,475.4,499.2z"/>
    <path fill="#002BE7" d="M66.5,611.9h62V471.8c27-21.4,39.4-28.2,49.6-28.2c12,0,19.9,7.5,19.9,26.3v141.9h62V471.5&#xA;&#x9;&#x9;c27-21,39.1-27.8,49.6-27.8c12,0,19.9,7.5,19.9,26.3v141.9h62V448.2c0-50.7-28.9-67.6-56.7-67.6c-23.7,0-47.7,9.8-79.2,33.8&#xA;&#x9;&#x9;c-10.1-25.2-32.3-33.8-52.2-33.8c-23.7,0-47.7,10.5-78.5,34.2v-28.2H66.5V611.9z"/>
  </g>
</svg>