<?xml version="1.0" encoding="utf-8" standalone="yes"?><!-- Generator: Adobe Illustrator 22.1.0, SVG Export Plug-In . SVG Version: 6.00 Build 0)  --><svg xmlns="http://www.w3.org/2000/svg" xmlns:xlink="http://www.w3.org/1999/xlink" version="1.2" baseProfile="tiny-ps" viewBox="0 0 240 240" xml:space="preserve"><title>Main Method</title><path fill="#231F20" stroke="#A9B7C6" stroke-width="9" stroke-miterlimit="10" d="M234.5,120c0,62.8-51.3,113.6-114.5,113.6  C56.7,233.7,5.5,182.8,5.5,120C5.5,57.2,56.7,6.3,120,6.3C183.3,6.3,234.5,57.2,234.5,120z"></path><g><path fill="#A9B7C6" d="M95,46.9c-6.5,0-11.6,0.9-15.4,2.8c-3.8,1.8-5.7,4.9-5.7,9.2c0,0.6,0,1.1,0.1,1.4l3.5,34.2   c0.2,1.4,0.3,2.8,0.3,4.1c0,5.5-1.3,9.6-4,12.6c-2.6,2.9-6.6,4.9-11.9,5.8c5.4,0.9,9.4,2.8,12,5.6c2.6,2.8,3.9,6.9,3.9,12.4   c0,1.4-0.1,2.9-0.3,4.5l-3.5,34.2c-0.1,0.3-0.1,0.8-0.1,1.4c0,8,7,11.9,21.1,11.9v11c-10.1,0-18.3-1.7-24.6-5.1   c-6.3-3.4-9.5-9.2-9.5-17.4c0-1.5,0.1-2.7,0.2-3.5l3.3-31.7c0.1-0.8,0.2-1.9,0.2-3.3c0-3.3-0.8-6-2.3-8c-1.5-2.1-4.1-3.6-7.8-4.7   c-3.7-1.1-8.8-1.6-15.3-1.6v-11.2c6.5,0,11.6-0.5,15.3-1.6c3.7-1.1,6.3-2.6,7.8-4.7c1.5-2.1,2.3-4.7,2.3-7.9c0-1.4-0.1-2.6-0.2-3.3   l-3.3-31.9c-0.1-0.8-0.2-2-0.2-3.5c0-8.2,3.2-14,9.5-17.4c6.3-3.4,14.5-5.1,24.6-5.1V46.9z"></path><path fill="#A9B7C6" d="M169.1,41c6.3,3.4,9.5,9.2,9.5,17.4c0,1.5-0.1,2.7-0.2,3.5l-3.3,31.9c-0.1,1.2-0.2,2.1-0.2,2.8   c0,5,2,8.7,5.8,11.1c3.9,2.4,10.4,3.7,19.5,3.7v11.2c-9.1,0-15.6,1.2-19.5,3.7c-3.9,2.5-5.9,6.2-5.9,11.2c0,0.6,0.1,1.5,0.2,2.8   l3.3,31.7c0.1,0.8,0.2,2,0.2,3.5c0,8.2-3.2,14-9.5,17.4c-6.3,3.4-14.5,5.1-24.6,5.1v-11c14.1,0,21.1-4,21.1-11.9   c0-0.6,0-1.1-0.1-1.4l-3.5-34.2c-0.2-1.6-0.3-3.1-0.3-4.5c0-5.6,1.4-9.8,4.2-12.4c2.8-2.7,7.3-4.5,13.5-5.3c-6.1-1-10.5-3-13.4-5.9   c-2.9-3-4.3-7.2-4.3-12.7c0-1.3,0.1-2.6,0.3-4l3.5-34.2c0-0.3,0.1-0.8,0.1-1.4c0-4.3-1.9-7.3-5.7-9.2c-3.8-1.8-8.9-2.8-15.4-2.8   v-11C154.6,35.9,162.8,37.6,169.1,41z"></path></g></svg>