<?xml version="1.0" encoding="UTF-8"?>
<svg xmlns="http://www.w3.org/2000/svg" baseProfile="tiny-ps" version="1.2" viewBox="0 0 80 80">
  <!-- Generator: Adobe Illustrator 28.7.1, SVG Export Plug-In . SVG Version: 1.2.0 Build 142)  -->
  <title>InStride</title>
  <g>
    <g id="Layer_1">
      <rect width="80" height="80" fill="#ce0019"/>
      <g>
        <path d="M37.2,26c-.7-4.2-4.1-7.7-8.4-8.4-7-1.2-13,4.8-11.8,11.8.7,4.2,4.1,7.7,8.4,8.4,7,1.2,13-4.8,11.8-11.8Z" fill="#fff"/>
        <path d="M61.2,17.4h-8.9c-5.7,0-10.3,4.7-10.3,10.4s4.6,10.4,10.3,10.4h8.9c.5,0,1-.4,1-1v-18.9c0-.5-.4-1-1-1h0Z" fill="#fff"/>
        <path d="M27.3,41.7c-6.1,0-11,5.1-11,11.3v9.8c0,.5.4,1,1,1h20c.5,0,1-.4,1-1v-9.8c0-6.2-4.9-11.3-11-11.3Z" fill="#fff"/>
        <path d="M53.9,42.9h-10c-.5,0-1,.4-1,1v18.8c0,.5.4,1,1,1h10c5.7,0,10.3-4.7,10.3-10.4s-4.6-10.4-10.3-10.4Z" fill="#fff"/>
      </g>
    </g>
  </g>
</svg>