<?xml version="1.0" encoding="UTF-8"?>
<!-- Generator: Adobe Illustrator 25.3.1, SVG Export Plug-In . SVG Version: 6.00 Build 0) -->
<svg version="1.2" baseProfile="tiny-ps" id="Layer_1" xmlns="http://www.w3.org/2000/svg" xmlns:xlink="http://www.w3.org/1999/xlink" viewBox="0 0 300 300">
    <title>Milford Asset Management</title>
    <g>
        <rect y="0" fill="#FFFFFF" width="300" height="300" />
        <g>
            <g>
                <g>
                    <g>
                        <path fill="#384044" d="M244.3,216.5c0.1,0,4.5,0,6.6,0c1.2,0,2.7-0.2,3.8-0.5c2.7-0.7,4.8-2.4,6.2-5.1       c0.7-1.3,1.2-2.7,1.5-4.2s0.5-3.6,0.5-5.2c0.1-2.2,0-3.8-0.4-6c-0.3-1.5-0.7-3-1.4-4.4c-1.2-2.5-3-4.2-5.6-5.2       c-1.5-0.6-3-0.8-4.6-0.8c-2.1,0-6.5,0-6.6,0L244.3,216.5L244.3,216.5z M270.7,202.9c-0.1,3.1-0.7,6.2-1.8,9.1       c-0.9,2.2-2.1,4.2-3.8,6c-1.9,1.9-4.1,3.1-6.6,4c-3.5,1.1-5.8,1.1-5.8,1.1h-16.2c0,0-0.1-44,0-44.4c0.1,0,10,0,14.9,0       c2.6,0,5.1,0.4,7.6,1.2c4.3,1.5,7.4,4.4,9.4,8.5c0.9,1.9,1.5,3.8,1.9,5.9C270.9,198.6,270.8,202.7,270.7,202.9" />
                        <path fill="#384044" d="M163.6,201.1c0,0.6,0,1.1,0,1.7c0,1.8,0.2,3.6,0.6,5.3c0.3,1.5,0.8,3,1.6,4.4c1.2,2.1,2.9,3.6,5.3,4.3       c1.6,0.4,3.2,0.5,4.8,0.3c2.9-0.4,5.1-1.8,6.6-4.3c1-1.6,1.5-3.4,1.9-5.3c0.4-2,0.5-4.1,0.5-6.2c0-1.5,0-2.9-0.2-4.4       c-0.1-1.5-0.4-3-0.8-4.4c-0.4-1.5-1-3-1.9-4.3c-1.2-1.6-2.7-2.8-4.6-3.3c-2-0.6-4-0.6-6-0.1c-1.6,0.4-2.9,1.2-4,2.3       c-0.9,1-1.6,2.1-2.1,3.4c-0.8,1.8-1.1,3.7-1.4,5.7C163.6,197.8,163.6,199.4,163.6,201.1 M174.8,177.9c0.1,0,0.3,0.1,0.4,0.1       c1.6,0.1,3.2,0.3,4.7,0.7c2.7,0.7,5.1,2.1,7.1,4.1c1.5,1.5,2.6,3.3,3.5,5.3s1.4,4.1,1.8,6.2c0.4,2.6,0.5,5.2,0.5,7.9       c-0.1,2.7-0.4,5.4-1.1,8c-0.6,2.3-1.5,4.4-2.8,6.4c-2.3,3.4-5.5,5.5-9.4,6.5c-1.5,0.4-3,0.5-4.5,0.6c-2.1,0.1-4.1-0.1-6.2-0.6       c-2.6-0.7-4.8-1.8-6.8-3.6c-1.5-1.4-2.7-3.1-3.6-5c-0.9-1.8-1.5-3.8-1.9-5.7s-0.6-3.9-0.7-5.9c-0.1-2,0-4,0.1-6.1       c0.3-2.8,0.8-5.6,1.9-8.3c0.8-1.9,1.9-3.7,3.3-5.3c1.9-2.1,4.1-3.5,6.8-4.3c1.8-0.6,3.6-0.8,5.4-0.9c0.2,0,0.3,0,0.5-0.1       L174.8,177.9L174.8,177.9z" />
                        <path fill="#384044" d="M29.2,178.6h11.4c2.9,10.5,8.9,31.5,8.9,31.5h0.2c0,0,6.1-21,9-31.6h11.5c0.1,0.2,0,44.4,0,44.4h-6.7       v-17.8v-17.8h-0.3c0,0-7.2,23.7-10.6,35.5h-6c-3.3-11.8-10.4-35.5-10.4-35.5H36c0,0,0,34.6,0,35.5h-6.8V178.6z" />
                        <path fill="#384044" d="M206.7,198.4c0,0,7.4,0.1,9.6-0.2c1.1-0.1,2.1-0.4,3.1-0.8c1.6-0.7,2.6-1.9,3-3.5       c0.3-1.3,0.3-2.6,0.1-3.9c-0.2-0.9-0.5-1.8-1.1-2.6c-0.8-1.1-1.9-1.7-3.2-2.1c-1-0.3-1.8-0.4-2.9-0.4c-1.2-0.1-8.6,0-8.6,0       L206.7,198.4L206.7,198.4z M214.6,204.6h-7.9V223h-8v-44.4h17.9c0,0,3.3,0,5.7,0.8c1.7,0.6,3.3,1.4,4.6,2.7       c1.4,1.3,2.3,2.9,2.8,4.8c0.6,1.9,0.8,3.9,0.6,6c-0.1,1.6-0.5,3.2-1.2,4.7c-1.2,2.5-3.2,4.1-5.8,5c-0.4,0.2-0.9,0.3-1.4,0.5       c3.3,6.7,6.5,13.3,9.8,20c-0.1,0-8.8,0-8.8,0L214.6,204.6z" />
                    </g>
                    <polygon fill="#384044" points="126,178.6 153.9,178.6 153.9,185.1 133.9,185.1 133.9,196.6 148.8,196.6 148.8,203.1       133.9,203.1 133.8,223 126,223     " />
                    <polygon fill="#384044" points="101.9,216.1 121.5,216.1 121.5,223 94.1,223 94.1,178.6 101.9,178.6     " />
                    <rect x="78.4" y="178.6" fill="#384044" width="7.8" height="44.4" />
                </g>
            </g>
            <g>
                <path fill="#E9893F" d="M89.3,148c1.3-0.9,2-1.2,2.3-2s0.9-1.8,1.4-1.8s1,1.3,0.9,1.9c-0.1,0.6-2,1.9-2.1,2.4s-0.6,3.1-0.6,3.1     s0.5,0.2,1.3-0.1s3.1-2.4,3.9-3.3c0.8-0.9,4.1-6.6,5.8-9c1.7-2.5,3.8-7.2,5-8.7c1.2-1.6,1.9-3.2,2.8-4.2s0.8,1.2,1.1,1.9     c0.3,0.7-0.1,1.6-0.1,2.2c0,0.6,0.5,3.7,0.8,4s1.9,0.5,2.4,0s2.4-2.9,3.7-4.3c1.3-1.4,3.1-3.3,3.9-4.6c0.8-1.3,1.3-4.4,1.6-6.2     c0.3-1.8,1.3-6.1,1.7-6.7c0.4-0.6,0.6-2.5,0.9-2.6s1,2.7,1.7,3.8c0.7,1.1,3.5-1.1,4.2-1.9c0.7-0.8,3.5-2.7,4.2-3s4.5-2.2,5.7-3.1     s2.3-2.2,2.9-2.7c0.6-0.5,0.9-0.8,1.8-1c0,0,0.1,0,0.2,0c-0.7-0.5-1-1.3-1-2.1c0-1.7,0.2-7.8-0.5-9.8c-0.7-2.1-1.1-4.1-1.9-6.2     c-0.8-2.1-0.8-5,0.3-5.8s2.4-2.9,3.8-2.6c1.4,0.3,10.7-2.7,12.3-2.6s9.7-3.9,10.3-5.4s0.6-3.9,0.4-5.2c-0.2-1.3-0.6-4-0.5-4.4     c0.1-0.3,0.3-1,0.9-2.1c-0.9,0.7-2.8,2.6-2.8,2.6l-0.4,0.1c0,0-1.1,1.6-1.4,2c-0.3,0.4-2.6,4.6-3.2,5.5c-0.6,0.9-2,2.6-3.3,3.3     c-1.3,0.7-1.4,0.3-2.4,0.5s-1.3,0.8-2.5,1.7c-1.2,0.9-1.4,1.2-2.3,1.8c-0.9,0.6-3.3-0.7-3.3-0.7c-1.2-0.2-2.4,1.2-3.8,2.9     c-1.4,1.7-7.4,8-7.7,8.5s-0.5,1.7-0.9,2.5s-1.2,0.4-1.8,0.6s-0.1,0.9-0.5,2.4s-1.8,3.4-2.9,4.7c-1.1,1.3-3.8,4.6-4.4,5.4     s-4.4,5.8-5.9,7.3s-4.5,3.9-7,6.4s-3.1,3.2-3.5,3.4c-0.4,0.2,0.1,1.5-0.8,2s-2.1,1-4.4,1.5s-1.8,1.3-3.4,2.8s-2.1,2.1-4.5,2.9     s-3,1.4-5.7,1.9s-4,1-5.6,1.8s-1.9,1.8-3.8,3s-5.6,2.2-9.6,3.6c-4.1,1.4-9.4,2.6-11.3,3.2c-1.9,0.6-2.8,1.9-5,3.3     c-2.2,1.4-5.3,4.3-9,7.4c-3.7,3.1-5.2,2.1-7.5,2.5s-4,1.8-4.8,2.7s-4.3,4.4-4.3,4.4h45.1H81c0,0,3.4-6,5-8.1     C87.7,149.3,88,148.9,89.3,148z" />
                <path fill="#E2690F" d="M184.8,131c-1.2-1.4-1.6-2.5-1.5-3.6c0-0.3,0.1-0.6,0.2-1c-4.3-2.7-17-11.3-20.6-14.9     c-4.4-4.4-10.5-9.4-13.2-8.9c-1.2,0.3-2.1,0.1-2.8-0.3c-0.1-0.1-0.3-0.2-0.4-0.3c0,0-0.1,0-0.2,0c-0.9,0.2-1.2,0.5-1.8,1     s-1.7,1.8-2.9,2.7c-1.2,0.9-5,2.8-5.7,3.1c-0.7,0.3-3.5,2.2-4.2,3s-3.5,3-4.2,1.9s-1.4-3.9-1.7-3.8c-0.3,0.1-0.5,2-0.9,2.6     s-1.4,4.9-1.7,6.7c-0.3,1.8-0.8,4.9-1.6,6.2c-0.8,1.3-2.6,3.2-3.9,4.6c-1.3,1.4-3.2,3.8-3.7,4.3s-2.1,0.3-2.4,0s-0.8-3.4-0.8-4     s0.4-1.5,0.1-2.2s-0.2-2.9-1.1-1.9s-1.6,2.6-2.8,4.2c-1.2,1.6-3.3,6.3-5,8.7c-1.7,2.5-5,8.2-5.8,9c-0.8,0.9-3.1,3-3.9,3.3     s-1.3,0.1-1.3,0.1s0.5-2.6,0.6-3.1s2-1.8,2.1-2.4c0.1-0.6-0.4-1.9-0.9-1.9s-1.1,1-1.4,1.8s-1,1.1-2.3,2s-1.6,1.3-3.2,3.4     c-1.6,2.1-5,8.1-5,8.1h1.9h119.6C202.7,159.5,185.9,132.4,184.8,131z" />
                <path fill="#F8D5B8" d="M211.2,98c-2.1-5.2-4.8-13.3-6.8-17.4s-6.7-11.2-9.5-16s-8.2-9-11.6-10.4c-3.4-1.5-7.5-5.1-7.5-5.1     s-2.4,3.1-4.2,5.3c-0.6,0.7-0.9,1.2-1.2,1.8c-0.7,1.1-0.9,1.9-0.9,2.1c-0.1,0.4,0.3,3.1,0.5,4.4c0.2,1.3,0.2,3.7-0.4,5.2     c-0.6,1.5-8.8,5.5-10.3,5.4c-1.6-0.1-10.9,2.9-12.3,2.6c-1.4-0.3-2.7,1.8-3.8,2.6c-1.1,0.8-1.1,3.7-0.3,5.8     c0.8,2.1,1.2,4.1,1.9,6.2s0.5,8.2,0.5,9.8c0,0.8,0.4,1.6,1,2.1c0.1,0.1,0.3,0.2,0.4,0.3c0.7,0.4,1.6,0.5,2.8,0.3     c2.7-0.6,8.9,4.5,13.2,8.9c3.6,3.6,16.3,12.2,20.6,14.9c0-0.1,0-0.2,0.1-0.3c0.2-0.9,0.5-2,1.2-2.5c1-0.8,2.9-2.5,4.9-3.4     c2-1,2.2-0.7,2.2-3.2s-0.6-2.1-0.1-5.3c0.5-3.2-1-4.3,1-4.8c2-0.4,3.7-0.3,4.9,0.5c1.1,0.8,3,1.6,3.5,0.1s3.4-2.8,4.4-2.8     s7.5,2.5,8.1,2.8c0.2,0.1,1.8,1.2,3.6,2.5C215,108.2,213.2,102.9,211.2,98z" />
                <path fill="#EEA163" d="M254.2,148.2c-1-0.7-1.6-1.9-2.7-3c-1-1.1-4.9-4.8-8.4-7.4c-5.6-3.2-6.3-4.2-8.4-6.9     c-2.1-2.8-8.8-13.2-10.2-14.9c-0.9-1-4.4-3.8-7.3-5.8c-1.9-1.3-3.4-2.4-3.6-2.5c-0.6-0.3-7-2.8-8.1-2.8c-1,0-3.9,1.3-4.4,2.8     s-2.4,0.7-3.5-0.1c-1.1-0.8-2.8-1-4.9-0.5c-2,0.4-0.5,1.6-1,4.8c-0.5,3.2,0.1,2.8,0.1,5.3s-0.2,2.2-2.2,3.2s-3.9,2.6-4.9,3.4     c-0.7,0.5-1,1.6-1.2,2.5c0,0.1,0,0.2-0.1,0.3c-0.1,0.4-0.1,0.7-0.2,1c-0.2,1,0.3,2.2,1.5,3.6s17.9,28.5,17.9,28.5h6.2h57.3     C265.6,158.4,255.2,148.9,254.2,148.2z" />
            </g>
        </g>
    </g>
</svg>
