<?xml version="1.0" encoding="utf-8"?>
<!-- Generator: Adobe Illustrator 28.1.0, SVG Export Plug-In . SVG Version: 6.00 Build 0)  -->
<svg version="1.2" baseProfile="tiny-ps" id="Layer_1" xmlns="http://www.w3.org/2000/svg" xmlns:xlink="http://www.w3.org/1999/xlink"
	 viewBox="0 0 200 200" xml:space="preserve">
	 <title>Stock Holding</title>
<g>
	<g>
		<path fill-rule="evenodd" fill="#03569C" d="M54.8,108.8c-0.5-2.5-1.1-6.1-1.1-8.9c-0.8-28.5,22.6-52.6,52.2-53.4
			c4-0.1,8.9,0.6,12.9,1.3C83.9,52.4,93,107.8,54.8,108.8z"/>
		<path fill-rule="evenodd" fill="#03569C" d="M89.9,147.9c5.5,1.8,11.7,1.8,18,1.8c29.6,0,53.6-23.3,53.6-52c0-7.2-1.5-13-4.1-19.3
			c0,0-8.6-0.5-16.7,20.7C132,122.2,122.2,148.4,89.9,147.9L89.9,147.9z"/>
		<path fill-rule="evenodd" fill="#0D9046" d="M93.1,118.7l-44.5,0.1c-2.8-0.9,0.9-2.8,0.9-2.8c45.9,6.6,39-57.7,68.8-62.9
			c0.9-0.3,2.2-0.3,3.5-0.1c0,0,26.4-0.3,29,0.5c0,0,0,0.8-2.5,0.9C118,53.4,124.9,120.2,93.1,118.7L93.1,118.7z"/>
		<path fill-rule="evenodd" fill="#0D9046" d="M138.1,64.3C123.7,80.5,120,121.2,99.5,126c0,0-4.6,1.5-16.9,1.1H56.3
			c0,0-4,1.8,1.1,2.1c11.8,1.1,44.5-0.3,44.5-0.3c30.4-2.8,24.1-68.1,54.4-66.8l0.9-0.6h-12.1C143,61.4,139.5,62.8,138.1,64.3
			L138.1,64.3z"/>
		<path fill-rule="evenodd" fill="#0D9046" d="M144.2,73.4c-14.1,16.2-18,57-38.7,61.7c0,0-4.5,1.7-16.7,1.1H62.4
			c0,0-3.9,1.8,1.1,2.3c11.8,1.1,44.5-0.3,44.5-0.3c30.4-2.8,24.1-68.3,54.6-66.8l0.9-0.6h-12.1C149.1,70.6,145.7,71.9,144.2,73.4
			L144.2,73.4z"/>
		<rect x="10" y="148.5" fill="#03569C" width="77.6" height="2.5"/>
		<rect x="119.3" y="46.7" fill="#03569C" width="66.9" height="2.5"/>
	</g>
</g>
</svg>
