<?xml version="1.0" encoding="UTF-8" standalone="yes"?>
<svg version="1.2" xml:space="preserve" width="1333.3333" height="1333.3333" viewBox="0 0 1333.3333 1333.3333" baseProfile="tiny-ps" xmlns="http://www.w3.org/2000/svg">
  <title>GoGift.com A/S</title>
  <defs id="defs6"/>
  <g id="g10" transform="matrix(1.3333333,0,0,-1.3333333,0,1333.3333)">
    <g id="g12">
      <g id="g14">
        <g id="g20" transform="translate(1000,499.9956)">
          <path d="m 0,0 c 0,-276.139 -223.86,-499.996 -500,-499.996 -276.144,0 -500,223.857 -500,499.996 0,276.14 223.856,499.996 500,499.996 C -223.86,499.996 0,276.14 0,0" id="path22" fill="#00a1e0" fill-opacity="1" fill-rule="nonzero" stroke="none"/>
        </g>
        <g id="g24" transform="translate(345.9292,519.8168)">
          <path d="M 0,0 C 33.161,0 59.437,-25.12 59.437,-60.541 59.437,-97.97 34.984,-121.7 0,-121.7 c -34.011,0 -59.441,24.048 -59.441,61.159 C -59.441,-24.695 -33.157,0 0,0 m 0,-104.167 c 23.177,0 38.831,16.89 38.831,43.626 0,25.82 -17.019,42.715 -38.831,42.715 -21.796,0 -38.644,-17.464 -38.644,-42.715 0,-27.029 15.509,-43.626 38.644,-43.626" id="path26" fill="#ffffff" fill-opacity="1" fill-rule="nonzero" stroke="none"/>
        </g>
        <g id="g28" transform="translate(649.832,515.0346)">
          <path d="m 0,0 h -10.027 -12.024 -10.039 -5.33 v -1.56 -11.178 -80.238 -11.178 -7.455 h 5.33 10.039 12.024 H 0 5.342 v 7.455 11.178 80.238 V -1.56 0 Z" id="path30" fill="#ffffff" fill-opacity="1" fill-rule="nonzero" stroke="none"/>
        </g>
        <g id="g32" transform="translate(899.7432,498.3574)">
          <path d="m 0,0 c 0,-12.984 -10.528,-23.513 -23.509,-23.513 -12.989,0 -23.512,10.529 -23.512,23.513 0,12.985 10.523,23.513 23.512,23.513 C -10.528,23.513 0,12.985 0,0" id="path34" fill="#ffffff" fill-opacity="1" fill-rule="nonzero" stroke="none"/>
        </g>
        <g id="g36" transform="translate(267.104,509.4282)">
          <path d="M 0,0 H -19.989 V -0.004 H -50.876 V 0 h -19.99 v -5.47 -9.822 -5.195 h 5.462 14.528 28.983 v -66.794 c -1.866,-0.654 -15.612,-5.308 -40.234,-5.308 -46.124,0 -82.099,27.589 -82.099,82.936 0,46.852 31.172,83.927 76.11,83.927 20.355,0 37.82,-8.288 51.45,-20.542 l 4.425,-3.757 13.894,16.56 -3.978,3.374 c -19.492,17.052 -41.9,25.128 -65.506,25.128 -57.239,0 -99.343,-44.786 -99.343,-105.684 0,-57.158 37.696,-100.665 105.026,-100.665 27.453,0 42.214,4.51 59.844,10.235 0.94,0.306 2.304,0.769 2.304,0.769 l 0,3.825 v 91.013 0.437 z" id="path38" fill="#ffffff" fill-opacity="1" fill-rule="nonzero" stroke="none"/>
        </g>
        <g id="g40" transform="translate(845.583,425.2617)">
          <path d="m 0,0 v -0.009 c -3.068,5.395 -6.46,11.264 -9.172,16.254 l -0.909,1.649 -0.905,1.53 -1.365,2.385 -7.268,-4.884 c -2.215,-1.475 -5.224,-3.065 -8.348,-3.065 -3.973,0 -6.362,2.499 -6.362,9.598 v 20.461 10.4 h 24.932 v 35.452 h -24.932 v 28.121 H -75.953 V 16.645 c 0,-28.507 20.444,-41.059 41.853,-41.059 13.742,0 27.712,7.043 33.616,11.072 0.744,0.51 1.377,0.956 1.934,1.361 l 3.91,2.758 z" id="path42" fill="#ffffff" fill-opacity="1" fill-rule="nonzero" stroke="none"/>
        </g>
        <g id="g44" transform="translate(736.3525,515.0346)">
          <path d="m 0,0 h -14.944 v 11.238 c 0,10.469 0.467,24.333 12.661,24.333 3.519,0 8.085,-1.675 12.114,-4.089 l 24.592,29.306 c -8.198,7.723 -23.929,15.361 -39.634,15.361 -48.662,0 -53.903,-44.488 -53.903,-69.897 v -5.955 -35.694 -57.579 -11.178 -7.455 h 5.347 10.027 13.422 10.047 5.322 v 6.749 c 0,0.242 0.005,0.438 0.005,0.706 v 52.572 5.73 10.395 0.005 H 0 v -0.005 h 15.373 v 4.88 27.746 2.835 L 0,0.004 Z" id="path46" fill="#ffffff" fill-opacity="1" fill-rule="nonzero" stroke="none"/>
        </g>
        <g id="g48" transform="translate(589.667,515.0346)">
          <path d="m 0,0 h -0.013 -8.003 -7.366 -45.798 -15.369 v -15.586 h 0.009 v -0.688 h -0.009 v -19.178 h 5.067 c 0.098,0 0.166,-0.005 0.263,-0.005 h 29.175 v -39.395 c 0,0 -6.516,-3.745 -21.677,-3.745 -35.996,0 -58.727,26.327 -58.727,60.452 0,37.106 21.269,64.81 54.897,64.81 14.549,0 29.808,-5.598 41.901,-16.377 l 27.21,32.43 c -3.613,3.281 -10.749,8.806 -14.409,11.161 -16.861,10.834 -36.285,15.586 -56.334,15.586 -60.142,0 -100.707,-48.131 -100.707,-103.019 0,-61.2 36.485,-103.347 105.51,-103.347 24.593,0 48.377,6.92 61.647,11.736 1.22,0.437 2.057,0.79 2.733,1.109 v 20.405 H 0.004 L 0,-61.371 Z" id="path50" fill="#ffffff" fill-opacity="1" fill-rule="nonzero" stroke="none"/>
        </g>
      </g>
    </g>
  </g>
</svg>