<?xml version="1.0" encoding="UTF-8"?>
<svg 
  version="1.2" 
  baseProfile="tiny-ps" 
  xmlns="http://www.w3.org/2000/svg"
  id="bloom-logo-green" 
  viewBox="0 0 96 96">
  <title>Bloom Nutrition</title>
  <rect fill="#c4e7bc" y="0" width="96" height="96"/>
  <g>
    <g>
      <path fill="#1c5633" d="M36.95,23.76c2.91-.55,9.35-2.47,8.57-13.34,0,0-11.81,1.3-10.33,12.03,0,0,.11.86.52,1.2.25.2.7.22,1.23.12Z"/>
      <path fill="#1c5633" d="M33.44,22.14c-.17-4.52-1.61-14.72-18.25-16.02,0,0-.71,18.17,15.86,18.38,0,0,1.33.03,1.93-.52.37-.34.49-1.01.46-1.84Z"/>
    </g>
    <path fill="#1c5633" d="M25.97,86.12s-.03.61.92.37c.91-.23,1.82-.47,2.74-.65,4.86-.96,8.71-.4,13.5.46,9.75,1.75,20.57,3.31,29.23-2.69,4.82-3.34,8.12-8.74,8.43-14.65.29-5.43-2.11-10.76-6.45-14.07-2.5-1.91-5.55-3.05-8.69-3.25,4.75-2.73,7.95-7.85,7.95-13.72,0-4.79-2.31-9.43-6.05-12.39-3.93-3.11-8.93-4.12-13.85-3.8-4.41.28-8.67,1.67-12.95,2.95-4.13,1.23-7.45,2.1-11.64,1.65-.79-.08-1.58-.22-2.36-.35-.82-.14-.79.43-.79.43v59.73ZM45.3,78.56c-1.63-1.68-2.3-4.2-2.3-7.13v-14.64c0-1.14.37-1.32,2.14-1.46,0,0,6.98-.7,10.99,2.36,4.27,3.27,5.81,9.36,4.65,14.56-.94,4.21-4.02,8-8.51,8.52-2.42.28-5.19-.38-6.95-2.2ZM50.53,29.85c3.66.42,6.16,3.5,6.92,6.93.94,4.23-.31,9.18-3.78,11.84-3.26,2.5-8.94,1.92-8.94,1.92-1.44-.12-1.74-.27-1.74-1.19v-11.91c0-2.38.55-4.44,1.87-5.8,1.44-1.48,3.68-2.02,5.65-1.79Z"/>
  </g>
</svg>
