<svg xmlns="http://www.w3.org/2000/svg" xmlns:xlink="http://www.w3.org/1999/xlink" version="1.2" viewBox="0 0 69.667 69.667" baseProfile="tiny-ps">
  <title>NEWTPI1.2</title>
  <g>
    <g>
      <g>
        <path d="M5.645,29.572l-2.419-1.078c-0.166,0.385-0.317,0.778-0.454,1.179l2.52,0.817C5.398,30.18,5.516,29.873,5.645,29.572"/>
        <path d="M6.252,28.338l-2.293-1.325c-0.207,0.366-0.397,0.741-0.573,1.124l2.419,1.078C5.944,28.916,6.093,28.623,6.252,28.338"/>
        <path d="M5.17,30.864l-2.519-0.818c-0.125,0.398-0.232,0.806-0.326,1.218l2.592,0.551C4.989,31.494,5.074,31.177,5.17,30.864"/>
        <path d="M4.642,33.562l-2.634-0.277c-0.038,0.417-0.059,0.835-0.064,1.26h2.649C4.598,34.213,4.613,33.885,4.642,33.562"/>
        <path d="M4.835,32.199l-2.59-0.549c-0.083,0.41-0.148,0.825-0.197,1.245l2.635,0.277C4.721,32.842,4.774,32.52,4.835,32.199"/>
        <path d="M6.986,27.173l-2.143-1.558c-0.244,0.343-0.473,0.696-0.689,1.058l2.295,1.323C6.618,27.717,6.798,27.441,6.986,27.173"/>
        <path d="M9.849,24.222l-1.556-2.145c-0.338,0.253-0.663,0.518-0.979,0.795l1.771,1.969C9.332,24.626,9.587,24.419,9.849,24.222"/>
        <path d="M10.993,23.455L9.668,21.16c-0.361,0.216-0.715,0.445-1.056,0.688l1.557,2.143     C10.435,23.802,10.711,23.623,10.993,23.455"/>
        <path d="M7.836,26.091l-1.969-1.772c-0.275,0.316-0.542,0.642-0.794,0.98l2.143,1.557C7.414,26.593,7.62,26.339,7.836,26.091"/>
        <path d="M8.795,25.105l-1.772-1.968c-0.309,0.284-0.606,0.583-0.892,0.892l1.968,1.773C8.323,25.56,8.554,25.327,8.795,25.105"/>
        <path d="M6.448,41.482l-2.294,1.325c0.215,0.362,0.445,0.715,0.689,1.058l2.143-1.557C6.797,42.039,6.618,41.764,6.448,41.482"/>
        <path d="M8.099,43.681l-1.968,1.773c0.286,0.309,0.583,0.605,0.892,0.891l1.772-1.969C8.553,44.152,8.322,43.92,8.099,43.681"/>
        <path d="M7.215,42.625l-2.143,1.557c0.252,0.336,0.519,0.663,0.795,0.978l1.968-1.772C7.62,43.141,7.414,42.886,7.215,42.625"/>
        <path d="M9.086,44.64l-1.774,1.969c0.318,0.275,0.643,0.542,0.98,0.793l1.557-2.144C9.587,45.063,9.333,44.855,9.086,44.64"/>
        <path d="M12.209,22.81l-1.078-2.42c-0.384,0.176-0.758,0.368-1.123,0.573l1.324,2.296C11.618,23.099,11.91,22.95,12.209,22.81"/>
        <path d="M5.292,38.989l-2.521,0.818c0.137,0.403,0.287,0.794,0.455,1.178l2.419-1.076C5.516,39.608,5.399,39.301,5.292,38.989"/>
        <path d="M4.917,37.665l-2.592,0.55c0.092,0.414,0.201,0.821,0.325,1.22l2.519-0.819C5.074,38.303,4.99,37.988,4.917,37.665"/>
        <path d="M4.683,36.31l-2.634,0.277c0.049,0.418,0.114,0.835,0.197,1.245l2.59-0.55C4.774,36.961,4.722,36.637,4.683,36.31"/>
        <path d="M5.805,40.266l-2.42,1.076c0.176,0.385,0.367,0.759,0.574,1.126l2.293-1.325C6.092,40.858,5.944,40.565,5.805,40.266"/>
        <path d="M4.592,34.937H1.944c0.005,0.425,0.027,0.843,0.064,1.26l2.634-0.277C4.613,35.597,4.598,35.268,4.592,34.937"/>
        <path d="M29.664,29.215l2.419-1.078c-0.176-0.384-0.366-0.758-0.573-1.125l-2.293,1.326     C29.376,28.623,29.525,28.916,29.664,29.215"/>
        <path d="M30.178,30.491l2.521-0.818c-0.137-0.401-0.288-0.793-0.454-1.178l-2.42,1.077     C29.953,29.874,30.072,30.179,30.178,30.491"/>
        <path d="M13.485,22.298l-0.818-2.521c-0.401,0.135-0.793,0.287-1.176,0.453l1.075,2.42     C12.868,22.522,13.174,22.405,13.485,22.298"/>
        <path d="M30.826,35.919l2.635,0.275c0.038-0.415,0.059-0.833,0.065-1.258h-2.65C30.871,35.268,30.857,35.594,30.826,35.919"/>
        <path d="M30.786,33.171l2.634-0.277c-0.048-0.42-0.113-0.834-0.195-1.245l-2.592,0.549C30.696,32.52,30.747,32.842,30.786,33.171     "/>
        <path d="M30.552,31.815l2.592-0.55c-0.093-0.414-0.2-0.82-0.325-1.219l-2.52,0.818C30.395,31.178,30.478,31.495,30.552,31.815"/>
        <path d="M30.877,34.544h2.65c-0.006-0.425-0.028-0.845-0.065-1.26l-2.635,0.277C30.857,33.885,30.872,34.213,30.877,34.544"/>
        <path d="M16.165,21.689l-0.276-2.635c-0.42,0.05-0.835,0.115-1.247,0.196l0.551,2.592C15.514,21.778,15.838,21.728,16.165,21.689     "/>
        <path d="M10.168,45.489L8.61,47.633c0.343,0.243,0.697,0.471,1.058,0.688l1.325-2.296C10.711,45.858,10.435,45.678,10.168,45.489     "/>
        <path d="M17.538,21.598V18.95c-0.424,0.004-0.843,0.026-1.259,0.064l0.276,2.634C16.879,21.62,17.208,21.601,17.538,21.598"/>
        <path d="M14.809,21.922l-0.55-2.589c-0.413,0.091-0.82,0.2-1.219,0.323l0.818,2.521C14.172,22.08,14.488,21.995,14.809,21.922"/>
        <path d="M17.93,47.882v2.648c0.426-0.004,0.845-0.025,1.26-0.063l-0.277-2.635C18.59,47.861,18.261,47.88,17.93,47.882"/>
        <path d="M15.194,47.639l-0.551,2.591c0.41,0.082,0.827,0.146,1.247,0.195l0.276-2.635C15.838,47.752,15.514,47.701,15.194,47.639     "/>
        <path d="M25.619,45.258l1.558,2.144c0.337-0.251,0.663-0.518,0.979-0.793l-1.772-1.969     C26.136,44.855,25.882,45.063,25.619,45.258"/>
        <path d="M26.674,44.375l1.773,1.971c0.31-0.287,0.606-0.584,0.891-0.893l-1.968-1.773C27.146,43.92,26.915,44.152,26.674,44.375"/>
        <path d="M13.858,47.304l-0.818,2.52c0.401,0.125,0.807,0.232,1.22,0.324l0.551-2.591C14.488,47.486,14.171,47.4,13.858,47.304"/>
        <path d="M27.633,43.388l1.968,1.772c0.278-0.315,0.544-0.643,0.796-0.978l-2.145-1.557     C28.056,42.886,27.849,43.141,27.633,43.388"/>
        <path d="M16.556,47.832l-0.276,2.635c0.415,0.038,0.835,0.058,1.259,0.063v-2.648C17.208,47.88,16.881,47.861,16.556,47.832"/>
        <path d="M24.477,46.025l1.324,2.296c0.363-0.217,0.716-0.444,1.058-0.688l-1.557-2.145     C25.033,45.678,24.759,45.858,24.477,46.025"/>
        <path d="M20.66,47.557l0.55,2.591c0.413-0.092,0.82-0.199,1.219-0.324l-0.817-2.52C21.298,47.4,20.982,47.486,20.66,47.557"/>
        <path d="M21.985,47.183l0.818,2.521c0.399-0.136,0.792-0.287,1.177-0.454l-1.078-2.421     C22.601,46.959,22.296,47.076,21.985,47.183"/>
        <path d="M23.261,46.67l1.077,2.42c0.382-0.178,0.758-0.367,1.125-0.574l-1.325-2.294C23.852,46.384,23.558,46.532,23.261,46.67"/>
        <path d="M11.332,46.222l-1.325,2.294c0.366,0.207,0.741,0.396,1.124,0.574l1.078-2.42C11.91,46.532,11.617,46.384,11.332,46.222"/>
        <path d="M30.634,37.281l2.592,0.552c0.081-0.41,0.147-0.825,0.195-1.245l-2.634-0.279C30.747,36.637,30.695,36.961,30.634,37.281     "/>
        <path d="M29.825,39.907l2.42,1.078c0.165-0.384,0.317-0.774,0.453-1.176l-2.521-0.818C30.071,39.299,29.953,39.608,29.825,39.907     "/>
        <path d="M28.485,42.308l2.143,1.557c0.242-0.343,0.472-0.695,0.688-1.058l-2.295-1.325     C28.851,41.764,28.673,42.039,28.485,42.308"/>
        <path d="M19.304,47.79l0.276,2.635c0.421-0.05,0.836-0.113,1.245-0.195l-0.549-2.591C19.955,47.701,19.632,47.752,19.304,47.79"/>
        <path d="M30.299,38.616l2.521,0.819c0.124-0.398,0.23-0.806,0.324-1.22l-2.592-0.55C30.479,37.988,30.395,38.303,30.299,38.616"/>
        <path d="M12.567,46.83l-1.076,2.419c0.383,0.167,0.776,0.318,1.177,0.454l0.818-2.521C13.175,47.078,12.868,46.959,12.567,46.83"/>
        <path d="M29.218,41.143l2.293,1.325c0.206-0.365,0.397-0.741,0.573-1.126l-2.419-1.076     C29.525,40.565,29.376,40.858,29.218,41.143"/>
        <path d="M20.531,41.304h0.232v0.486h-5.951v-0.486h0.234c1.244,0,1.771-0.463,1.771-1.624V28.603h-3.059     c-1.71,0-2.025,0.338-2.363,2.554H10.91l0.358-3.734h0.465c0.106,0.274,0.378,0.295,0.906,0.295h10.275     c0.527,0,0.823-0.021,0.93-0.295h0.443l0.379,3.734h-0.485c-0.337-2.216-0.655-2.554-2.364-2.554h-3.06V39.68     C18.758,40.841,19.286,41.304,20.531,41.304"/>
        <path d="M43.776,24.212l-1.544-2.152c-0.338,0.249-0.668,0.509-0.986,0.787l1.762,1.98     C43.256,24.612,43.513,24.407,43.776,24.212"/>
        <path d="M44.924,23.455l-1.31-2.303c-0.362,0.212-0.717,0.438-1.063,0.68l1.545,2.152C44.365,23.796,44.641,23.621,44.924,23.455     "/>
        <path d="M42.714,25.087l-1.761-1.979c-0.309,0.281-0.608,0.578-0.896,0.889l1.958,1.784     C42.24,25.539,42.472,25.309,42.714,25.087"/>
        <path d="M40.895,27.149l-2.133-1.57c-0.242,0.34-0.473,0.692-0.692,1.054l2.287,1.339C40.527,27.687,40.707,27.414,40.895,27.149     "/>
        <path d="M41.751,26.071l-1.959-1.785c-0.277,0.313-0.543,0.639-0.797,0.978l2.133,1.57     C41.326,26.569,41.534,26.316,41.751,26.071"/>
        <path d="M46.144,22.819l-1.062-2.426c-0.384,0.172-0.76,0.362-1.128,0.566l1.31,2.303C45.553,23.101,45.846,22.955,46.144,22.819     "/>
        <path d="M50.108,21.718l-0.261-2.635c-0.417,0.046-0.834,0.111-1.247,0.19l0.535,2.595     C49.457,21.806,49.782,21.756,50.108,21.718"/>
        <path d="M51.481,21.634l0.017-2.649c-0.422,0.003-0.842,0.023-1.26,0.06l0.26,2.637C50.824,21.653,51.153,21.637,51.481,21.634"/>
        <path d="M47.424,22.315l-0.803-2.523c-0.399,0.132-0.793,0.279-1.181,0.442l1.063,2.427     C46.807,22.535,47.113,22.42,47.424,22.315"/>
        <path d="M48.751,21.948l-0.536-2.594c-0.41,0.089-0.818,0.196-1.22,0.318l0.805,2.524C48.114,22.102,48.43,22.019,48.751,21.948"/>
        <path d="M38.452,34.897l-2.648-0.016c0.003,0.42,0.021,0.843,0.059,1.26l2.637-0.26C38.47,35.555,38.456,35.226,38.452,34.897"/>
        <path d="M38.766,37.627l-2.594,0.536c0.09,0.41,0.198,0.817,0.318,1.22l2.524-0.804C38.922,38.267,38.839,37.948,38.766,37.627"/>
        <path d="M38.538,36.27l-2.637,0.262c0.047,0.418,0.11,0.835,0.191,1.245l2.595-0.532C38.624,36.922,38.574,36.597,38.538,36.27"/>
        <path d="M39.133,38.955l-2.523,0.801c0.131,0.401,0.28,0.796,0.443,1.182l2.426-1.062C39.353,39.571,39.239,39.263,39.133,38.955     "/>
        <path d="M52.856,21.694l0.294-2.635c-0.42-0.04-0.842-0.064-1.26-0.073l-0.016,2.65C52.2,21.643,52.528,21.662,52.856,21.694"/>
        <path d="M38.715,32.161l-2.589-0.567c-0.086,0.415-0.152,0.83-0.205,1.246l2.634,0.291     C38.595,32.809,38.647,32.486,38.715,32.161"/>
        <path d="M39.059,30.83l-2.514-0.834c-0.13,0.403-0.242,0.808-0.337,1.217l2.59,0.565C38.872,31.459,38.96,31.143,39.059,30.83"/>
        <path d="M39.542,29.541l-2.415-1.092c-0.169,0.388-0.323,0.78-0.459,1.173l2.515,0.836C39.29,30.149,39.41,29.844,39.542,29.541"/>
        <path d="M38.511,33.522l-2.634-0.291c-0.039,0.419-0.064,0.839-0.07,1.26l2.649,0.014C38.461,34.176,38.48,33.851,38.511,33.522"/>
        <path d="M40.157,28.31l-2.285-1.338c-0.208,0.368-0.403,0.742-0.58,1.121l2.412,1.09C39.844,28.889,39.994,28.596,40.157,28.31"/>
        <path d="M59.229,24.078l1.57-2.133c-0.339-0.243-0.691-0.475-1.053-0.694l-1.34,2.286C58.69,23.707,58.964,23.887,59.229,24.078"/>
        <path d="M64.686,36.038l2.633,0.29c0.04-0.418,0.064-0.839,0.072-1.259l-2.649-0.012C64.736,35.381,64.718,35.708,64.686,36.038"/>
        <path d="M64.744,34.662l2.648,0.017c-0.003-0.421-0.022-0.843-0.059-1.26l-2.637,0.261     C64.726,34.006,64.741,34.335,64.744,34.662"/>
        <path d="M64.659,33.289l2.636-0.261c-0.046-0.418-0.111-0.835-0.19-1.247l-2.594,0.533     C64.573,32.637,64.622,32.962,64.659,33.289"/>
        <path d="M64.483,37.398l2.59,0.566c0.085-0.413,0.15-0.827,0.203-1.244l-2.632-0.293C64.602,36.752,64.549,37.076,64.483,37.398"/>
        <path d="M64.063,30.606l2.524-0.802c-0.132-0.4-0.28-0.795-0.444-1.183l-2.426,1.064C63.843,29.988,63.959,30.296,64.063,30.606"/>
        <path d="M64.432,31.932l2.592-0.534c-0.09-0.411-0.196-0.819-0.317-1.222l-2.524,0.803C64.278,31.295,64.36,31.611,64.432,31.932     "/>
        <path d="M54.217,21.896l0.567-2.589c-0.414-0.086-0.83-0.154-1.245-0.205l-0.294,2.633C53.569,21.777,53.893,21.83,54.217,21.896     "/>
        <path d="M62.302,42.41l2.133,1.571c0.243-0.339,0.474-0.692,0.692-1.055l-2.286-1.337C62.671,41.872,62.49,42.145,62.302,42.41"/>
        <path d="M63.655,40.019l2.413,1.09c0.169-0.387,0.324-0.777,0.462-1.172l-2.516-0.835C63.907,39.409,63.786,39.716,63.655,40.019     "/>
        <path d="M64.139,38.731l2.514,0.833c0.129-0.402,0.242-0.808,0.336-1.215l-2.59-0.566C64.326,38.1,64.238,38.416,64.139,38.731"/>
        <path d="M63.039,41.248l2.288,1.339c0.209-0.368,0.402-0.743,0.579-1.12l-2.415-1.09C63.354,40.67,63.203,40.963,63.039,41.248"/>
        <path d="M56.838,22.723l1.092-2.413c-0.388-0.17-0.78-0.323-1.173-0.46l-0.834,2.515C56.23,22.472,56.534,22.592,56.838,22.723"/>
        <path d="M39.638,40.234l-2.427,1.062c0.173,0.383,0.362,0.759,0.565,1.128l2.302-1.312     C39.921,40.826,39.774,40.533,39.638,40.234"/>
        <path d="M58.069,23.338l1.336-2.286c-0.367-0.21-0.742-0.402-1.119-0.581l-1.091,2.414C57.49,23.024,57.781,23.175,58.069,23.338     "/>
        <path d="M55.549,22.24l0.833-2.514c-0.403-0.129-0.807-0.241-1.216-0.335L54.6,21.979C54.918,22.054,55.235,22.14,55.549,22.24"/>
        <path d="M62.166,26.957l2.153-1.544c-0.25-0.339-0.511-0.667-0.789-0.987l-1.978,1.762     C61.767,26.437,61.971,26.694,62.166,26.957"/>
        <path d="M63.56,29.326l2.425-1.064c-0.171-0.383-0.36-0.757-0.564-1.128l-2.302,1.311C63.277,28.734,63.424,29.027,63.56,29.326"/>
        <path d="M62.924,28.105l2.303-1.311c-0.212-0.362-0.438-0.716-0.68-1.063l-2.154,1.545     C62.582,27.547,62.757,27.823,62.924,28.105"/>
        <path d="M60.308,24.933l1.785-1.958c-0.313-0.278-0.638-0.545-0.977-0.799l-1.57,2.133     C59.809,24.508,60.064,24.716,60.308,24.933"/>
        <path d="M61.29,25.895l1.981-1.762c-0.283-0.308-0.581-0.607-0.889-0.896l-1.785,1.958C60.84,25.421,61.07,25.655,61.29,25.895"/>
        <path d="M53.09,47.842l0.261,2.635c0.418-0.046,0.834-0.111,1.248-0.191l-0.537-2.595C53.74,47.752,53.416,47.805,53.09,47.842"/>
        <path d="M54.446,47.612l0.536,2.594c0.41-0.089,0.817-0.195,1.22-0.318l-0.804-2.525C55.085,47.457,54.767,47.539,54.446,47.612"/>
        <path d="M55.773,47.245l0.802,2.523c0.399-0.132,0.793-0.279,1.182-0.442l-1.063-2.428C56.39,47.026,56.084,47.141,55.773,47.245     "/>
        <path d="M51.717,47.926l-0.017,2.648c0.42-0.004,0.84-0.023,1.259-0.058l-0.261-2.637C52.372,47.907,52.046,47.924,51.717,47.926     "/>
        <path d="M61.446,43.488l1.96,1.786c0.279-0.312,0.542-0.64,0.798-0.979l-2.134-1.568C61.872,42.99,61.662,43.243,61.446,43.488"/>
        <path d="M59.421,45.347l1.545,2.152c0.338-0.249,0.667-0.51,0.985-0.787l-1.761-1.981C59.941,44.947,59.684,45.152,59.421,45.347     "/>
        <path d="M57.137,46.79l1.064,2.425c0.382-0.171,0.758-0.36,1.127-0.563l-1.312-2.304C57.73,46.507,57.436,46.655,57.137,46.79"/>
        <path d="M60.483,44.473l1.762,1.979c0.31-0.281,0.608-0.578,0.896-0.887l-1.958-1.786C60.959,44.02,60.724,44.251,60.483,44.473"/>
        <path d="M58.273,46.107l1.312,2.302c0.36-0.211,0.715-0.44,1.061-0.68l-1.543-2.154C58.832,45.764,58.556,45.942,58.273,46.107"/>
        <path d="M54.377,41.304h0.253v0.486h-5.971v-0.486h0.231c1.245,0,1.772-0.463,1.772-1.624v-9.831     c0-1.162-0.528-1.647-1.772-1.647h-0.231v-0.484h5.951v0.484h-0.233c-1.245,0-1.772,0.485-1.772,1.647v9.831     C52.605,40.841,53.152,41.304,54.377,41.304"/>
      </g>
    </g>
  </g>
</svg>