<?xml version="1.0" encoding="utf-8"?>
<svg version="1.2" baseProfile="tiny-ps" id="Doctolib_blue" xmlns="http://www.w3.org/2000/svg" xmlns:xlink="http://www.w3.org/1999/xlink" viewBox="0 0 102 113.4" xml:space="preserve">
<title>Doctolib</title>
<path id="D" fill="#2479BF" d="M88,55.5c2.3-12.4,2.3-36.9-36.7-41C41,13.4,25,16.1,13.5,18.1c-0.1,0-0.2,0.2-0.3,0.3
	c-0.1,0.2-0.1,0.5,0,0.8c0.3,0.9,1.4,2.6,2.8,3.2c1.1,0.5,3.4,0.4,3.7,0.4c35.6-3.2,61,4.6,56.4,30.6c-2.7,15-12.6,33.8-39.7,33.8
	c-5.5,0-6.2-0.5-5.5-4.9c0.1-0.6,8.5-45.6,9-50.1c0-0.2-0.1-0.3-0.2-0.4c-0.3,0-6.2-1.4-7.7,4.3c-0.3,1.2-14.6,54.4-15.3,57.2
	c-0.9,3.9,1.7,5.9,19.2,5.9C80.1,99.1,86.7,62.8,88,55.5z"/>
</svg>
