<?xml version="1.0" encoding="utf-8"?>
<!-- Generator: Adobe Illustrator 26.3.1, SVG Export Plug-In . SVG Version: 6.00 Build 0)  -->
<svg version="1.2" baseProfile="tiny-ps" id="Layer_1" xmlns="http://www.w3.org/2000/svg" xmlns:xlink="http://www.w3.org/1999/xlink"
	  viewBox="0 0 104 105" xml:space="preserve">
<title>Ramp</title>
<desc>Ramp logo</desc>
<path fill="#E4F222" d="M52,0L52,0c28.7,0,52,23.3,52,52v0c0,28.7-23.3,52-52,52l0,0C23.3,104,0,80.7,0,52v0C0,23.3,23.3,0,52,0z"/>
<path fill="#1C1B17" d="M80,71.8V72l-30.5,0v-0.2c4.4-2.5,7.4-5.1,10.2-7.7h12.5L80,71.8z M72.4,31.7L64.7,24h-0.2
	c0,0,0.1,14.3-12.8,27.3C38.9,64,24,64,24,64v0.2l7.9,7.8c0,0,14.7,0.1,27.7-12.7C72.6,46.4,72.4,31.7,72.4,31.7z"/>
</svg>
