<?xml version="1.0" encoding="UTF-8" standalone="yes"?>
<svg version="1.2" baseProfile="tiny-ps" viewBox="0 0 113.39 113.39" xml:space="preserve" xmlns="http://www.w3.org/2000/svg">
  <title>bimi-svg-tiny-12-ps</title>
  <rect fill="#FFFFFF" width="113.39" height="113.39"/>
  <g>
    <path d="M21.34,48.23c-0.21,0.48,0,0.96-0.16,1.39c-0.35,0.11-0.35,0.11-0.78-0.23c-1.28-1.06-2.87-1.66-4.53-1.71&#xD;&#xA;&#x9;&#x9;c-1.72-0.1-3.44,0.23-5,0.95c-1.81,0.87-3.31,2.27-4.31,4c-0.82,1.42-1.3,3-1.4,4.63c-0.15,1.73,0.09,3.47,0.72,5.09&#xD;&#xA;&#x9;&#x9;c0.53,1.36,1.34,2.58,2.37,3.6c0.57,0.54,1.2,1.02,1.87,1.41c0.58,0.37,1.2,0.66,1.85,0.88c1.34,0.42,2.75,0.59,4.15,0.51&#xD;&#xA;&#x9;&#x9;c0.84-0.07,1.67-0.27,2.45-0.6c0.92-0.37,1.76-0.92,2.46-1.63c0.5,0.51,0.06,1.17,0.37,1.71h5v-20H21.34z M21.07,59.57&#xD;&#xA;&#x9;&#x9;c-0.28,1.75-1.4,3.24-3,4c-0.83,0.43-1.77,0.61-2.7,0.52c-1.65-0.15-3.13-1.06-4-2.48c-0.81-1.19-1.17-2.64-1-4.08&#xD;&#xA;&#x9;&#x9;c0.14-2.11,1.44-3.98,3.38-4.85c0.58-0.31,1.24-0.43,1.89-0.36c1.83-0.11,3.58,0.79,4.55,2.35c0.5,0.76,0.82,1.62,0.95,2.52&#xD;&#xA;&#x9;&#x9;C21.28,57.98,21.25,58.79,21.07,59.57z"/>
    <path d="M69.16,38.34h5.18c0.17,0.17,0.12,0.35,0.12,0.52c0,5.33,0,10.69,0,16.08c0,0.28-0.24,0.63,0.18,0.91l1.55-1.87l3.48-4.1&#xD;&#xA;&#x9;&#x9;l1.1-1.33c0.15-0.21,0.39-0.34,0.65-0.35h6.15c-0.18,0.5-0.62,0.78-0.91,1.16c-1,1.27-2,2.49-3.08,3.72s-2.13,2.64-3.29,3.89&#xD;&#xA;&#x9;&#x9;c-0.25,0.35-0.52,0.68-0.8,1c-0.17,0.18-0.17,0.47,0,0.65c1.51,1.78,3,3.57,4.53,5.36l3.32,3.9c0.08,0.12,0.15,0.25,0.2,0.38h-6.49&#xD;&#xA;&#x9;&#x9;l-6.37-7.61c-0.29,0-0.25,0.18-0.25,0.37v7c-0.01,0.08-0.03,0.15-0.06,0.22h-5.21V38.34z"/>
    <path d="M44.97,48.22v1.43c-0.17,0.11-0.39,0.1-0.55-0.03c-0.99-0.92-2.22-1.54-3.55-1.79c-1.7-0.25-3.45-0.12-5.09,0.4&#xD;&#xA;&#x9;&#x9;c-1.43,0.51-2.73,1.32-3.82,2.38c-0.9,0.86-1.62,1.88-2.12,3c-0.26,0.59-0.47,1.19-0.61,1.81c-0.16,0.63-0.13,1.33-0.29,2&#xD;&#xA;&#x9;&#x9;c-0.11,1.07-0.05,2.15,0.2,3.19c0.11,0.8,0.35,1.57,0.72,2.27c0.56,1.21,1.35,2.3,2.31,3.21c1.55,1.47,3.53,2.4,5.65,2.64&#xD;&#xA;&#x9;&#x9;c1.11,0.19,2.24,0.14,3.33-0.16c0.81-0.21,1.58-0.55,2.28-1l1.43-1c0.25,0.55-0.03,1.13,0.19,1.65h5.15v-20H44.97z M44.94,59.19&#xD;&#xA;&#x9;&#x9;c-0.18,1.92-1.37,3.59-3.11,4.39c-0.82,0.42-1.74,0.6-2.65,0.51c-1.81-0.12-3.42-1.19-4.25-2.8c-0.5-0.83-0.77-1.78-0.78-2.76&#xD;&#xA;&#x9;&#x9;c-0.16-2.04,0.73-4.02,2.36-5.26c1.18-0.88,2.69-1.21,4.13-0.88c1.56,0.3,2.89,1.31,3.6,2.72C44.92,56.36,45.17,57.79,44.94,59.19z&#xD;&#xA;&#x9;&#x9;"/>
    <path d="M107.01,59.88c0.22-0.17,0.32-0.45,0.26-0.72c0.03-1.03-0.02-2.07-0.15-3.11c-0.09-0.62-0.23-1.23-0.41-1.83&#xD;&#xA;&#x9;&#x9;c-0.27-0.98-0.72-1.92-1.32-2.75c-0.82-1.2-1.94-2.17-3.24-2.83c-1.43-0.69-3-1.03-4.59-1c-1.92-0.08-3.83,0.35-5.53,1.24&#xD;&#xA;&#x9;&#x9;c-1.66,0.98-2.97,2.45-3.74,4.2c-0.58,1.29-0.92,2.68-1,4.09c-0.14,1.79,0.08,3.59,0.66,5.29c0.44,1.35,1.18,2.58,2.16,3.6&#xD;&#xA;&#x9;&#x9;c1.54,1.55,3.59,2.49,5.77,2.64c1.23,0.17,2.47,0.12,3.68-0.15c0.91-0.17,1.79-0.46,2.63-0.85c2.29-1.16,3.96-3.26,4.58-5.76h-5.26&#xD;&#xA;&#x9;&#x9;c-0.28,0.7-0.76,1.3-1.38,1.72c-0.5,0.25-1.02,0.45-1.56,0.58c-1.29,0.33-2.66,0.16-3.83-0.48c-1-0.55-1.73-1.49-2-2.61&#xD;&#xA;&#x9;&#x9;c-0.18-0.4-0.18-0.86,0-1.27H107.01z M92.58,55.81c-0.01-1.59,0.93-3.05,2.4-3.69c3.12-1.25,6.8,0.12,7.1,3.53&#xD;&#xA;&#x9;&#x9;c-0.07,0.22-0.26,0.26-0.45,0.26h-8.74C92.78,55.93,92.66,55.89,92.58,55.81z"/>
    <path d="M53.69,48.2h5c0.18,0.66,0,1.33,0.19,2c1.8-1.83,4.38-2.68,6.92-2.29c0.25,0.02,0.48,0.15,0.63,0.36v4.44&#xD;&#xA;&#x9;&#x9;c-0.17,0.2-0.37,0.13-0.55,0.12c-0.82-0.08-1.65-0.08-2.47,0c-1.91,0.14-3.54,1.43-4.13,3.25c-0.39,1.11-0.56,2.29-0.52,3.47&#xD;&#xA;&#x9;&#x9;c0,2.67,0,5.34,0,8c0.03,0.22,0,0.44-0.08,0.64h-5L53.69,48.2z"/>
  </g>
</svg>