<?xml version="1.0" encoding="UTF-8"?>
<svg version="1.2" baseProfile="tiny-ps" id="Layer_1" xmlns="http://www.w3.org/2000/svg" xmlns:xlink="http://www.w3.org/1999/xlink" viewBox="0 0 700 700">
    <title>Company title</title>
    <g>
    </g>
    <g>
        <!-- Generator: Adobe Illustrator 28.6.0, SVG Export Plug-In . SVG Version: 1.2.0 Build 709) -->
        <g>
            <g id="Layer_1">
                <g id="Layer_1-2">
                    <path d="M274.8,315.4c-7.9,14-16.4,24.7-25.9,31.7-12.5,9.4-26.5,14-42,14s-26.2-3.7-38.1-11c-11.9-7.3-21-18-27.7-31.7-6.4-14-9.7-29.9-9.7-47.8,0-27.7,7.3-49.6,22.2-65.8,14.9-16.1,32.6-24.4,53.6-24.4s26.8,3.7,38.4,11.3c11.6,7.6,21.3,18.6,29.2,33.5l-20.4,11.3c-6.7-12.2-13.7-21.3-21.3-27.1-7.6-5.8-16.4-8.8-26.2-8.8-14,0-26.2,6.1-36.6,18-10.4,11.9-15.5,30.2-15.5,53.9s5.2,37.8,15.5,50c10.4,12.2,22.2,18.3,35.6,18.3,20.4,0,36.6-12.2,48.4-36.2l20.4,11.3h0v-.3Z" fill="#696a6c" />
                    <path d="M315.6,112.9h23.5v244.6h-23.5V112.9Z" fill="#696a6c" />
                    <path d="M413.7,184.2v-27.1c0-13.4,4.3-24.1,12.8-32,8.5-7.9,20.7-11.9,36.2-11.9s7.6,0,12.5.6v22.2c-4.9-.6-8.5-.9-11.6-.9-8.5,0-15.2,2.1-19.8,6.7-4.6,4.6-6.7,10.4-6.7,17.7v25h35.9v21.3h-35.9v152h-23.5v-152h-32.3v-21.3h32.6l-.3-.3Z" fill="#696a6c" />
                    <g>
                        <path d="M110.9,498.5c-4.6,0-9.4-3-9.4-10.7s4.6-10.7,9.4-10.7,4.9.9,7,3l-3,2.7c-1.2-1.5-2.4-1.8-4-1.8s-3,.6-4,1.8-1.2,2.7-1.2,5.2.3,4,1.2,5.2c.9,1.2,2.4,1.8,4,1.8s2.7-.6,4-1.8l3,2.7c-1.8,2.1-4,3-7,3h0v-.6Z" fill="#696a6c" />
                        <path d="M136.5,496.1c-1.5,1.5-3.4,2.4-6.4,2.4s-4.9-1.2-6.1-2.4c-1.8-2.1-2.4-4.6-2.4-8.2s.6-6.1,2.4-8.2c1.5-1.5,3.4-2.4,6.1-2.4s4.9,1.2,6.4,2.4c1.8,2.1,2.4,4.6,2.4,8.2s-.6,6.1-2.4,8.2ZM133.2,482.1c-.9-.9-1.8-1.2-3-1.2s-2.4.3-3,1.2c-1.2,1.2-1.5,3.4-1.5,5.8s0,4.6,1.5,5.8,1.8,1.2,3,1.2,2.4-.3,3-1.2c1.2-1.2,1.5-3.4,1.5-5.8s0-4.6-1.5-5.8Z" fill="#696a6c" />
                        <path d="M158.4,498.2v-12.8c0-3.4-1.8-4.6-4.3-4.6s-4.3,1.5-4.3,4.6v12.8h-4.3v-21h4.3v2.1c1.5-1.5,3.4-2.4,5.5-2.4s4,.6,5.2,1.8c1.5,1.5,2.1,3.7,2.1,5.8v13.4h-4.3v.3Z" fill="#696a6c" />
                        <path d="M175.8,498.5c-3.4,0-6.4-.6-8.8-3l2.7-2.7c1.8,1.8,4,2.1,6.1,2.1s4.6-.9,4.6-3-.9-2.4-2.7-2.4h-3.4c-4-.6-6.1-2.4-6.1-6.1s3.4-6.4,7.9-6.4,5.8.6,7.6,2.4l-2.7,2.7c-1.2-1.2-3-1.5-5.2-1.5s-3.7,1.2-3.7,2.7.6,2.1,3,2.4h3.4c4,.6,6.1,2.4,6.1,6.1s-3.7,6.7-8.8,6.7h0Z" fill="#696a6c" />
                        <path d="M192.6,489.1c0,3.7,1.8,5.8,5.5,5.8s3.7-.6,5.2-2.1l2.7,2.4c-2.1,2.1-4.3,3.4-7.9,3.4-5.2,0-9.4-2.7-9.4-10.7s3.4-10.7,8.8-10.7,8.8,4.3,8.8,10.1v1.8h-13.7,0ZM201.4,483.3c-.6-1.5-2.1-2.7-4.3-2.7s-3.4,1.2-4.3,2.7c-.3.9-.6,1.5-.6,2.7h9.4c0-1.2,0-1.8-.6-2.7h.3Z" fill="#696a6c" />
                        <path d="M224.2,482.4c-.9-.9-1.8-1.5-3-1.5-2.4,0-4.3,1.8-4.3,4.6v12.8h-4.3v-21h4.3v2.4c1.2-1.5,3.4-2.4,5.5-2.4s3.7.6,4.9,1.8l-3,3h0v.3Z" fill="#696a6c" />
                        <path d="M239.8,498.2h-3.4l-7.6-21h4.6l4.9,14.6,4.9-14.6h4.6l-7.6,21h-.3Z" fill="#696a6c" />
                        <path d="M263.5,498.2v-1.8c-1.5,1.5-3,2.1-5.5,2.1s-4.3-.6-5.5-1.8-1.5-2.7-1.5-4.6c0-3.4,2.4-6.1,7.3-6.1h5.5v-1.5c0-2.7-1.2-4-4.6-4s-3.4.6-4.6,2.1l-2.7-2.7c1.8-2.4,4-3,7.6-3,5.8,0,8.5,2.4,8.5,7.3v14h-4.6ZM263.5,489.1h-4.9c-2.4,0-3.7,1.2-3.7,3s1.2,3,4,3,2.7,0,4-1.2.9-1.5.9-3v-1.8h-.3Z" fill="#696a6c" />
                        <path d="M281.8,498.2c-4,0-5.8-2.7-5.8-5.8v-11.6h-2.4v-3.4h2.4v-6.4h4.3v6.4h4v3.4h-4v11.3c0,1.5.6,2.4,2.4,2.4h1.8v3.7h-2.7Z" fill="#696a6c" />
                        <path d="M290,473.2v-4.6h4.6v4.6h-4.6ZM290.3,498.2v-21h4.3v21h-4.3Z" fill="#696a6c" />
                        <path d="M317.4,496.1c-1.5,1.5-3.4,2.4-6.4,2.4s-4.9-1.2-6.1-2.4c-1.8-2.1-2.4-4.6-2.4-8.2s.6-6.1,2.4-8.2c1.5-1.5,3.4-2.4,6.1-2.4s4.9,1.2,6.4,2.4c1.8,2.1,2.4,4.6,2.4,8.2s-.6,6.1-2.4,8.2ZM314.4,482.1c-.9-.9-1.8-1.2-3-1.2s-2.4.3-3,1.2c-1.2,1.2-1.5,3.4-1.5,5.8s0,4.6,1.5,5.8,1.8,1.2,3,1.2,2.4-.3,3-1.2c1.2-1.2,1.5-3.4,1.5-5.8s0-4.6-1.5-5.8Z" fill="#696a6c" />
                        <path d="M339.4,498.2v-12.8c0-3.4-1.8-4.6-4.3-4.6s-4.3,1.5-4.3,4.6v12.8h-4.3v-21h4.3v2.1c1.5-1.5,3.4-2.4,5.5-2.4s4,.6,5.2,1.8c1.5,1.5,2.1,3.7,2.1,5.8v13.4h-4.3v.3Z" fill="#696a6c" />
                        <path d="M365.6,498.2c-4,0-5.8-2.7-5.8-5.8v-23.8h4.3v23.5c0,1.5.6,2.4,2.4,2.4h1.8v3.7h-2.7Z" fill="#696a6c" />
                        <path d="M386,498.2v-1.8c-1.5,1.5-3,2.1-5.5,2.1s-4.3-.6-5.5-1.8-1.5-2.7-1.5-4.6c0-3.4,2.4-6.1,7.3-6.1h5.5v-1.5c0-2.7-1.2-4-4.6-4s-3.4.6-4.6,2.1l-2.7-2.7c1.8-2.4,4-3,7.6-3,5.8,0,8.5,2.4,8.5,7.3v14h-4.6ZM386,489.1h-4.9c-2.4,0-3.7,1.2-3.7,3s1.2,3,4,3,2.7,0,4-1.2.9-1.5.9-3v-1.8h-.3Z" fill="#696a6c" />
                        <path d="M418.6,498.2h-3.7l-4.9-14.6-4.9,14.6h-3.7l-6.4-21h4.6l4,14.6,4.9-14.6h3.4l4.9,14.6,4-14.6h4.6l-6.4,21h-.3Z" fill="#696a6c" />
                        <path d="M445.7,480.8v17.4h-4.3v-17.4h-2.4v-3.4h2.4v-3.4c0-3,1.8-5.8,5.8-5.8h2.7v3.7h-1.8c-1.5,0-2.4.9-2.4,2.4v3h4.3v3.4h-4.3Z" fill="#696a6c" />
                        <path d="M469.7,496.1c-1.5,1.5-3.4,2.4-6.4,2.4s-4.9-1.2-6.1-2.4c-1.8-2.1-2.4-4.6-2.4-8.2s.6-6.1,2.4-8.2c1.5-1.5,3.4-2.4,6.1-2.4s4.9,1.2,6.4,2.4c1.8,2.1,2.4,4.6,2.4,8.2s-.6,6.1-2.4,8.2ZM466.7,482.1c-.9-.9-1.8-1.2-3-1.2s-2.1.3-3,1.2-1.5,3.4-1.5,5.8,0,4.6,1.5,5.8,1.8,1.2,3,1.2,2.4-.3,3-1.2c1.2-1.2,1.5-3.4,1.5-5.8s0-4.6-1.5-5.8Z" fill="#696a6c" />
                        <path d="M491.4,498.2v-2.1c-1.5,1.5-3.4,2.4-5.5,2.4s-4-.6-5.2-1.8c-1.5-1.5-2.1-3.7-2.1-5.8v-13.4h4.3v12.8c0,3.4,1.8,4.6,4.3,4.6s4.3-1.5,4.3-4.6v-12.8h4.3v21h-4.3v-.3Z" fill="#696a6c" />
                        <path d="M515.1,498.2v-12.8c0-3.4-1.8-4.6-4.3-4.6s-4.3,1.5-4.3,4.6v12.8h-4.3v-21h4.3v2.1c1.5-1.5,3.4-2.4,5.5-2.4s4,.6,5.2,1.8c1.5,1.5,2.1,3.7,2.1,5.8v13.4h-4.3v.3Z" fill="#696a6c" />
                        <path d="M538,498.2v-2.1c-1.5,1.8-3.4,2.4-5.5,2.4s-4-.6-5.2-1.8c-2.1-2.1-2.4-5.8-2.4-8.8s0-6.7,2.4-8.8c2.4-2.1,3-1.8,5.2-1.8s4,.6,5.5,2.4v-10.7h4.3v29.2h-4.3ZM533.4,480.8c-3.7,0-4.3,3.4-4.3,7s.6,7,4.3,7,4.3-3.4,4.3-7-.6-7-4.3-7Z" fill="#696a6c" />
                        <path d="M562,498.2v-1.8c-1.5,1.5-3,2.1-5.5,2.1s-4.3-.6-5.5-1.8-1.5-2.7-1.5-4.6c0-3.4,2.4-6.1,7.3-6.1h5.5v-1.5c0-2.7-1.2-4-4.6-4s-3.4.6-4.6,2.1l-2.7-2.7c1.8-2.4,4-3,7.6-3,5.8,0,8.5,2.4,8.5,7.3v14h-4.6ZM562,489.1h-4.9c-2.4,0-3.7,1.2-3.7,3s1.2,3,4,3,2.7,0,4-1.2.9-1.5.9-3v-1.8h-.3Z" fill="#696a6c" />
                        <path d="M580.3,498.2c-4,0-5.8-2.7-5.8-5.8v-11.6h-2.4v-3.4h2.4v-6.4h4.3v6.4h4v3.4h-4v11.3c0,1.5.6,2.4,2.4,2.4h1.8v3.7h-2.7Z" fill="#696a6c" />
                        <path d="M588.5,473.2v-4.6h4.6v4.6h-4.6ZM588.8,498.2v-21h4.3v21h-4.3Z" fill="#696a6c" />
                        <path d="M616,496.1c-1.5,1.5-3.4,2.4-6.4,2.4s-4.9-1.2-6.1-2.4c-1.8-2.1-2.4-4.6-2.4-8.2s.6-6.1,2.4-8.2c1.5-1.5,3.4-2.4,6.1-2.4s4.9,1.2,6.4,2.4c1.8,2.1,2.4,4.6,2.4,8.2s-.6,6.1-2.4,8.2ZM612.9,482.1c-.9-.9-1.8-1.2-3-1.2s-2.4.3-3,1.2c-1.2,1.2-1.5,3.4-1.5,5.8s0,4.6,1.5,5.8,1.8,1.2,3,1.2,2.4-.3,3-1.2c1.2-1.2,1.5-3.4,1.5-5.8s0-4.6-1.5-5.8Z" fill="#696a6c" />
                        <path d="M637.9,498.2v-12.8c0-3.4-1.8-4.6-4.3-4.6s-4.3,1.5-4.3,4.6v12.8h-4.3v-21h4.3v2.1c1.5-1.5,3.4-2.4,5.5-2.4s4,.6,5.2,1.8c1.5,1.5,2.1,3.7,2.1,5.8v13.4h-4.3v.3Z" fill="#696a6c" />
                    </g>
                    <path d="M697.3,434.8c-204.7-34.7-398.1-55.4-585.4-33.8h0c-.9.3-2.1.6-3,.9-13.7,1.8-14.9,10.7-13.7,18,2.1,12.2,16.4,9.4,17.1,9.4.9,0,1.8,0,2.7-.6,184-31.4,376.5-20.1,582.4,6.1" fill="#e51937" />
                </g>
            </g>
        </g>
    </g>
</svg>
