<?xml version="1.0" encoding="utf-8"?>
<!-- Generator: Adobe Illustrator 27.4.0, SVG Export Plug-In . SVG Version: 6.00 Build 0) -->
<svg version="1.2" baseProfile="tiny-ps" id="Layer_1" xmlns="http://www.w3.org/2000/svg" xmlns:xlink="http://www.w3.org/1999/xlink"
     viewBox="0 0 96 96" xml:space="preserve">
  <title>Mimo&amp;Co</title>
  <rect fill="#BB010F" width="96" height="96"/>

<g>
	<g>
		<g>
			<g>
				<path fill="#FFFFFF" d="M10.66,51.79c0.05,0.63,0.33,1.59,0.88,1.59h0.66c0.1,0,0.12,0.05,0.12,0.12v0.45
					c0,0.08-0.02,0.12-0.15,0.12c-0.19,0-0.64-0.05-1.89-0.05c-1.45,0-2.04,0.05-2.19,0.05c-0.14,0-0.16-0.02-0.16-0.15v-0.44
					c0-0.05,0.02-0.1,0.1-0.1h0.7c0.55,0,0.75-0.78,0.82-1.33c0.15-1.21,0.31-5.22,0.31-5.53l-0.02-2.6c0-0.78-0.17-1.3-0.94-1.3
					H8.35c-0.1,0-0.12-0.05-0.12-0.12v-0.47c0-0.05,0.02-0.1,0.12-0.1c0.17,0,0.63,0.05,2.64,0.05c0.8,0,1.33-0.05,1.53-0.05
					c0.17,0,0.3,0.02,0.41,0.29c1.09,2.89,2.31,5.72,3.27,8.27c0.19-0.32,1.48-3.49,1.58-3.73c0.07-0.17,1.77-4.24,1.85-4.58
					c0.05-0.19,0.28-0.21,0.78-0.21c2.66,0,3.23-0.05,3.42-0.05c0.09,0,0.1,0.05,0.1,0.16v0.39c0,0.1-0.02,0.15-0.14,0.15h-0.75
					c-0.39,0-0.45,0.31-0.45,0.67c0,0.26,0.02,4.44,0.04,4.8c0,0.34,0.05,4.07,0.05,4.37c0,0.65,0.16,0.92,0.39,0.92h0.82
					c0.1,0,0.12,0.05,0.12,0.12v0.42c0,0.1-0.02,0.15-0.16,0.15c-0.2,0-0.51-0.05-2.51-0.05c-1.74,0-2.4,0.05-2.62,0.05
					c-0.12,0-0.14-0.05-0.14-0.15V53.5c0-0.09,0.02-0.12,0.14-0.12h0.95c0.29,0,0.45-0.1,0.48-0.58c0.02-0.2,0.07-3.3,0.07-4.49
					v-5.19h-0.1c-0.18,0.29-2.08,4.92-2.38,5.62c-0.36,0.78-1.87,4.56-1.96,4.71c-0.08,0.14-0.2,0.39-0.41,0.39
					c-0.12,0-0.22-0.12-0.31-0.31c-0.05-0.12-2.3-5.39-2.42-5.7c-0.31-0.79-1.87-4.6-2.01-4.8c-0.07,0.24-0.1,4.55-0.1,4.75
					C10.54,47.99,10.56,50.3,10.66,51.79z"/>
				<path fill="#FFFFFF" d="M29.21,54.08c-0.13,0-0.92-0.05-2.4-0.05c-0.98,0-1.65,0.05-1.83,0.05c-0.09,0-0.14-0.04-0.14-0.17
					v-0.34c0-0.1,0.05-0.14,0.17-0.14h0.63c0.19,0,0.3-0.07,0.33-0.34c0.03-0.51,0.03-1.04,0.03-1.51l-0.03-2.38
					c0-0.47-0.1-0.81-0.82-1.07c-0.19-0.07-0.21-0.14-0.21-0.24v-0.19c0-0.05,0.04-0.08,0.19-0.13l2.53-0.82
					c0.19-0.07,0.34-0.1,0.46-0.1c0.13,0,0.19,0.09,0.17,0.21c-0.03,0.29-0.03,1.36-0.03,2.86v1.82c0,0.66,0,1.28,0.02,1.46
					c0.04,0.32,0.12,0.44,0.31,0.44h0.61c0.13,0,0.17,0.05,0.17,0.16v0.32C29.36,54.03,29.33,54.08,29.21,54.08z M26.88,46.06
					c-0.68,0.02-1.19-0.44-1.19-1.1c0-0.55,0.56-1.04,1.27-1.04c0.8,0,1.21,0.51,1.21,0.99C28.17,45.45,27.8,46.05,26.88,46.06z"/>
				<path fill="#FFFFFF" d="M32.22,46.76c0.15-0.07,0.27-0.12,0.39-0.12c0.1,0,0.21,0.05,0.24,0.22l0.14,0.97h0.09
					c0.48-0.66,1.34-1.19,2.42-1.19c1.09,0,1.62,0.49,2.06,1.19h0.08c0.58-0.68,1.41-1.14,2.28-1.14c0.76,0,1.12,0.1,1.65,0.65
					c0.49,0.49,0.73,0.65,0.73,2.33v1.22c0,0.58-0.05,1.52-0.07,1.87c-0.02,0.48,0.22,0.66,0.49,0.66h0.34
					c0.15,0,0.19,0.04,0.19,0.16v0.32c0,0.12-0.03,0.17-0.12,0.17c-0.12,0-0.6-0.05-1.84-0.05c-1.02,0-1.64,0.05-1.75,0.05
					c-0.1,0-0.14-0.05-0.14-0.2v-0.29c0-0.12,0.05-0.16,0.1-0.16h0.15c0.12,0,0.33-0.08,0.34-0.32c0.03-0.39,0.09-1,0.09-1.63v-1.64
					c0-1.05-0.05-1.41-0.27-1.65c-0.27-0.3-0.44-0.41-0.83-0.41c-0.48,0-0.82,0.36-1.02,0.55c-0.26,0.29-0.26,0.83-0.26,1.07v3.37
					c0,0.5,0.1,0.66,0.29,0.66h0.3c0.16,0,0.19,0.04,0.19,0.16v0.31c0,0.14-0.03,0.18-0.12,0.18c-0.12,0-0.56-0.05-1.6-0.05
					c-1.26,0-1.84,0.05-1.94,0.05c-0.08,0-0.12-0.05-0.12-0.17V53.6c0-0.14,0.02-0.17,0.17-0.17h0.24c0.24,0,0.41-0.22,0.41-1.21
					V49.7c0-1.17-0.17-1.57-0.38-1.75c-0.15-0.16-0.42-0.21-0.8-0.21c-0.34,0-0.73,0.24-0.94,0.53c-0.22,0.34-0.29,0.73-0.27,1.38
					v2.74c0,0.87,0.17,1.03,0.36,1.03h0.15c0.15,0,0.17,0.04,0.17,0.16v0.31c0,0.12-0.02,0.18-0.14,0.18
					c-0.16,0-0.61-0.05-1.82-0.05c-1.14,0-1.68,0.05-1.82,0.05c-0.1,0-0.14-0.04-0.14-0.15v-0.34c0-0.14,0.02-0.16,0.21-0.16h0.48
					c0.17,0,0.3-0.18,0.32-0.42c0.02-0.29,0.02-0.71,0.02-1.16V49.7c0-0.75-0.12-1.02-0.54-1.28l-0.34-0.2
					c-0.08-0.05-0.12-0.09-0.12-0.14v-0.2c0-0.05,0.03-0.12,0.1-0.15L32.22,46.76z"/>
				<path fill="#FFFFFF" d="M44.54,53.02c-0.65-0.71-0.9-1.61-0.9-2.69c0-0.77,0.42-2.02,1.46-2.82c0.86-0.68,1.73-0.87,2.54-0.87
					c1.17,0,1.97,0.36,2.74,1.07c0.84,0.75,1.18,1.67,1.18,2.7c0,0.99-0.43,1.94-1.09,2.66c-0.82,0.85-1.8,1.19-2.96,1.19
					C46.25,54.26,45.41,54.01,44.54,53.02z M48.96,50.3c0-1.97-0.68-2.94-1.43-2.94c-0.42,0-0.7,0.12-0.92,0.46
					c-0.34,0.53-0.56,1.26-0.56,2.64c0,0.99,0.09,1.63,0.42,2.36c0.22,0.46,0.5,0.73,1.12,0.73C48.54,53.55,48.96,52.17,48.96,50.3z
					"/>
				<path fill="#FFFFFF" d="M69.24,52.72c-1.26-1.12-1.85-3.08-1.85-4.54c0-1.75,0.56-3.34,1.75-4.61c0.97-1.03,2.38-1.84,4.49-1.84
					c1.55,0,2.82,0.39,3.42,0.72c0.24,0.12,0.33,0.1,0.36-0.02l0.14-0.42c0.03-0.1,0.07-0.1,0.32-0.1c0.25,0,0.29,0.03,0.29,0.27
					c0,0.32,0.3,3.22,0.39,3.72c0.02,0.12,0,0.21-0.09,0.22l-0.37,0.1c-0.09,0.03-0.15-0.03-0.21-0.19
					c-0.19-0.68-0.65-1.55-1.36-2.28c-0.73-0.72-1.63-1.28-2.93-1.28c-2.48,0-3.54,2.26-3.52,4.78c0,1.07,0.31,3.16,1.51,4.44
					c1.11,1.14,2.08,1.28,2.65,1.28c1.94,0,3.39-0.88,4.02-1.82c0.09-0.14,0.17-0.21,0.26-0.14l0.29,0.25
					c0.05,0.03,0.07,0.11,0,0.21c-0.99,1.43-2.64,2.81-5.04,2.81C71.5,54.28,70.31,53.67,69.24,52.72z"/>
				<path fill="#FFFFFF" d="M80.73,53.02c-0.65-0.71-0.9-1.61-0.9-2.69c0-0.77,0.43-2.02,1.47-2.82c0.87-0.68,1.73-0.87,2.53-0.87
					c1.18,0,1.98,0.36,2.74,1.07c0.83,0.75,1.17,1.67,1.17,2.7c0,0.99-0.43,1.94-1.09,2.66c-0.81,0.85-1.8,1.19-2.96,1.19
					C82.45,54.26,81.59,54.01,80.73,53.02z M85.15,50.3c0-1.97-0.68-2.94-1.43-2.94c-0.42,0-0.7,0.12-0.92,0.46
					c-0.34,0.53-0.56,1.26-0.56,2.64c0,0.99,0.08,1.63,0.43,2.36c0.22,0.46,0.49,0.73,1.12,0.73C84.72,53.55,85.15,52.17,85.15,50.3
					z"/>
			</g>
			<g>
				<path fill="#FFFFFF" d="M56.49,47.02c-0.11-0.31-0.17-0.62-0.17-0.95c0-0.67,0.24-1.22,0.73-1.65c0.49-0.44,1.21-0.66,2.16-0.66
					c0.79,0,1.38,0.17,1.79,0.53c0.41,0.35,0.61,0.77,0.61,1.25c0,0.49-0.2,0.91-0.59,1.26c-0.4,0.35-0.93,0.64-1.61,0.89l2.22,3.13
					c0.4-0.52,0.67-0.9,0.79-1.11c0.21-0.35,0.31-0.67,0.31-0.97c0-0.24-0.06-0.4-0.17-0.46c-0.11-0.07-0.38-0.13-0.8-0.18v-0.35
					h3.06v0.35c-0.41,0.05-0.68,0.14-0.81,0.26c-0.14,0.12-0.4,0.52-0.79,1.19c-0.06,0.11-0.22,0.35-0.48,0.71
					c-0.13,0.18-0.39,0.53-0.77,1.04c0.37,0.49,0.68,0.83,0.94,1.04c0.25,0.21,0.52,0.3,0.81,0.3c0.24,0,0.43-0.07,0.6-0.21
					c0.09-0.07,0.18-0.2,0.27-0.36l0.29,0.17c-0.21,0.46-0.44,0.83-0.7,1.1c-0.47,0.51-1.03,0.77-1.67,0.77
					c-0.46,0-0.89-0.15-1.31-0.44c-0.25-0.17-0.55-0.45-0.91-0.85c-0.55,0.4-1.01,0.68-1.37,0.85c-0.63,0.29-1.27,0.44-1.93,0.44
					c-0.7,0-1.34-0.23-1.9-0.68c-0.56-0.46-0.84-1.07-0.84-1.82c0-0.88,0.34-1.64,1.05-2.28c0.39-0.35,1-0.73,1.82-1.12
					C56.8,47.72,56.6,47.33,56.49,47.02z M59.3,52.81c0.14-0.08,0.36-0.21,0.64-0.4c-0.48-0.66-0.8-1.1-0.95-1.33
					c-0.16-0.23-0.47-0.7-0.95-1.4l-0.7-1.05c-0.39,0.23-0.65,0.42-0.78,0.57c-0.2,0.24-0.31,0.53-0.31,0.88
					c0,0.6,0.25,1.23,0.73,1.89c0.49,0.67,1.02,1,1.6,1C58.82,52.98,59.05,52.92,59.3,52.81z M59.77,46.93
					c0.25-0.21,0.37-0.5,0.37-0.86c0-0.38-0.12-0.78-0.36-1.19c-0.24-0.41-0.57-0.62-0.99-0.62c-0.16,0-0.31,0.04-0.44,0.13
					c-0.22,0.14-0.32,0.38-0.32,0.72c0,0.28,0.08,0.57,0.24,0.88c0.16,0.31,0.44,0.74,0.84,1.28
					C59.41,47.16,59.63,47.05,59.77,46.93z"/>
			</g>
		</g>
	</g>
</g>
</svg>
