<?xml version="1.0" encoding="utf-8"?>
<!-- Generator: Adobe Illustrator 25.4.1, SVG Export Plug-In . SVG Version: 6.00 Build 0)  -->
<svg version="1.2" baseProfile="tiny-ps" id="Layer_1" xmlns="http://www.w3.org/2000/svg" xmlns:xlink="http://www.w3.org/1999/xlink"
	 viewBox="0 0 241.01 241" xml:space="preserve">
<title>CliftonLarsonAllen LLP</title>
<g>
	<path fill="#2E334E" d="M120.5,1.2c-18.82,0-36.61,4.38-52.45,12.16c6.44-1.66,13.23-2.52,20.28-2.52
		c18.33,0,35.45,6.49,50.98,19.26l-1.04,0.88l-11.6,9.79l-0.82,0.69c-11.58-8.71-24.17-13.13-37.52-13.13
		c-16.65,0-31.07,5.96-42.85,17.72c-11.79,11.76-17.77,26.16-17.77,42.8c0,16.72,5.98,31.17,17.77,42.95
		c11.79,11.8,26.21,17.78,42.85,17.78c1.88,0,3.89-0.12,6.25-0.38V67.87L95.61,67l14.81-12.5l1.59-1.34v91.47
		c6.5-2.86,12.8-6.98,18.76-12.27l0.76-0.68l6.05,7.17l4.31,5.1l0.82,0.97c-9.61,8.52-19.93,14.64-30.7,18.19v16.25h33.41l39-103.77
		l17.29,0.13l31.31,84.43c4.37-12.4,6.77-25.74,6.77-39.63v-0.04C239.79,54.6,186.38,1.2,120.5,1.2"/>
	<path fill="#2E334E" d="M94.59,166.63c-2.05,0.17-4.15,0.25-6.25,0.25c-21.5,0-40.08-7.67-55.22-22.81
		c-15.13-15.13-22.8-33.71-22.8-55.21c0-6.63,0.77-13.06,2.26-19.17C5.3,85.11,1.21,102.32,1.21,120.5v0.01
		c0,65.88,53.41,119.29,119.3,119.29c0.74,0,1.48-0.02,2.22-0.05l16.15-42.97H94.59V166.63z"/>
	<polygon fill="#2E334E" points="206.19,137 193.33,101.53 180.53,136.82 172.17,159.53 172.27,159.57 168.16,170.67 164.9,179.36 
		221.59,179.36 214.79,160.64 	"/>
	<path fill="#2E334E" d="M143.03,237.63c27.61-5.28,51.82-20.09,69.12-40.86h-53.79L143.03,237.63z"/>
</g>
</svg>
