<?xml version="1.0" encoding="utf-8"?>
<!-- Generator: Adobe Illustrator 27.9.0, SVG Export Plug-In . SVG Version: 6.00 Build 0)  -->
<svg version="1.2" baseProfile="tiny-ps" id="SonyBank_x5F_JP"
	 xmlns="http://www.w3.org/2000/svg" xmlns:xlink="http://www.w3.org/1999/xlink" viewBox="0 0 600 600"
	 xml:space="preserve">
<title>Sony Bank Inc.</title>
<rect id="bg" fill="#FFFFFF" width="600" height="600"/>
<path id="logo" d="M527.18,268.85h-52.89v-11.26h52.36h0.53V268.85z M470.31,282.62l-9.67-7.02l-0.28,0.58
	c-5.68,12.06-17.3,23.21-23.26,27.89l-0.32,0.26l5.26,12.13l0.55-0.42c2.53-1.97,5.45-4.8,8.61-8.21v39.15h11.3v-53.05
	c3.15-4.08,5.62-7.71,6.97-9.92L470.31,282.62z M470.25,295.13h34.18v36.04c0,2.3-1.18,3.37-3.71,3.37l-17.25-0.56l4.25,12.49h0.39
	c0.55-0.01,13.35-0.14,16.82-0.54c7.71-0.89,11.15-2.64,11.15-10.59v-40.2H531v-11.26h-0.53h-60.22V295.13z M444.14,283.11
	c9.19-5.51,22.81-20.08,24.86-23.82l0.24-0.43l-9.68-6.6l-0.3,0.42c-5.07,6.99-13.61,15.04-20.78,19.58l-0.4,0.26l5.57,10.89
	L444.14,283.11z M418.6,323.2c3.6,5.94,8.27,10.59,14.35,14.1l0.5,0.28l-6.75,10.15l-0.43-0.27
	c-18.13-11.22-25.02-34.52-25.63-44.59h-6.25v29.97c1.19-0.32,14.4-3.86,14.4-3.86l0.08,10.95l-0.33,0.14
	c-3.52,1.45-27.1,6.98-30.34,7.39l-0.54,0.07c0,0-0.74-7.03-0.86-8.08c-8.48,2.19-34.04,7.2-36.77,7.54l-0.56,0.07l-0.66-11.55
	l0.52-0.04c3.36-0.28,9.34-1.18,16.44-2.48v-27.96h-16.65v-10.04h16.65v-6.71h-9.02v-4.83c-1.29,1.07-5.38,4.5-5.38,4.5l-4.52-11.06
	l0.37-0.22c4-2.59,14-12.17,19.04-22.63l0.15-0.3h10.2h0.32l0.15,0.28c2.1,3.9,9.33,13.31,16.74,17.96v-14.37h45.11v45.29H411.4
	c0.72,3.85,1.62,7.32,2.72,10.56c2.45-1.32,6.18-3.86,11.04-8.82l0.43-0.45l6.51,8.7l-0.31,0.33
	C430.17,314.8,422.84,320.71,418.6,323.2 M351.93,278.22h21.86c-1.46-1.54-10.99-11.6-11.78-12.44
	C360.03,268.7,356.2,273.57,351.93,278.22 M418.29,285.11h-23.91v7.59h23.91V285.11z M394.38,274.91h23.91v-7.13h-23.91V274.91z
	 M383.78,274.52c-0.95,2.21-3.66,8.47-3.66,8.47l-0.25,0.67c0,0-1.67-1.38-2.53-2.1v6.71h-11.23v6.71h15.32v10.04h-15.32v25.89
	c1.17-0.29,13.57-3.3,13.57-3.3s0.05,7.02,0.07,8.07c0.83-0.13,3.39-0.5,4.03-0.6V274.52z M339.72,311.44
	c1.29,4.63,2.81,15.11,3.05,19.83l10.15-2.34c0-3.68-1.86-15.63-3.44-19.68L339.72,311.44z M376.88,327.23
	c1.45-4.67,3.08-12.13,3.23-16.78l-9.02-1.8c-0.12,2.45-1.86,11.92-3.44,16.27L376.88,327.23z M236.9,268.82h-71.8v11.94h71.8
	V268.82z M326.77,294.98h-76.06v11.95h76.06V294.98z M246.32,321.79h-90.76v11.95h90.76V321.79z M95.37,294.87
	c-4.34-12.5-9.25-23.06-15.09-32.7c-2.23,0.92-9.5,4.22-11.28,5.08c5,9,9.77,19.47,14.7,32.38
	C84.82,298.93,93.88,295.27,95.37,294.87 M88.02,345.41c15.81-4.2,36.46-13.21,48.34-31.09c8.27-12.43,13.69-29.32,15.23-51.23
	c-1.03-0.16-11.25-1.97-11.84-2.08c-2.19,42.61-19.61,66.63-59.74,73.16L88.02,345.41z"/>
</svg>
