<?xml version="1.0" encoding="utf-8"?>
<!-- Generator: Adobe Illustrator 27.3.1, SVG Export Plug-In . SVG Version: 6.00 Build 0)  -->
<svg version="1.2" baseProfile="tiny-ps" xmlns="http://www.w3.org/2000/svg" xmlns:xlink="http://www.w3.org/1999/xlink"
	viewBox="0 0 189 189" xml:space="preserve">
	<title>PAYBACK GmbH</title>
<rect fill="#003EB0" width="189" height="189"/>
<path fill="#003EB0" d="M184.3,158.3c0,14.3-11.7,26-26,26H30.8c-14.4,0-26-11.7-26-26V30.8c0-14.3,11.7-26,26-26h127.4
	c14.4,0,26,11.7,26,26v127.5H184.3z"/>
<path fill="#FFFFFF" d="M64.9,90.8C50.6,90.8,39,79.2,39,64.9S50.6,39,64.9,39s25.9,11.6,25.9,25.9S79.2,90.8,64.9,90.8z M64.9,44.1
	c-11.4,0-20.8,9.3-20.8,20.8c0,11.4,9.3,20.8,20.8,20.8s20.8-9.3,20.8-20.8C85.7,53.5,76.4,44.1,64.9,44.1z"/>
<path fill="#FFFFFF" d="M64.9,150C50.6,150,39,138.4,39,124.1s11.6-25.9,25.9-25.9s25.9,11.6,25.9,25.9S79.2,150,64.9,150z
	 M64.9,103.4c-11.4,0-20.8,9.3-20.8,20.8c0,11.4,9.3,20.8,20.8,20.8s20.8-9.3,20.8-20.8S76.4,103.4,64.9,103.4z"/>
<path fill="#FFFFFF" d="M124.1,150c-14.3,0-25.9-11.6-25.9-25.9s11.6-25.9,25.9-25.9s25.9,11.6,25.9,25.9S138.4,150,124.1,150z
	 M124.1,103.4c-11.4,0-20.8,9.3-20.8,20.8c0,11.4,9.3,20.8,20.8,20.8c11.4,0,20.8-9.3,20.8-20.8
	C144.9,112.7,135.6,103.4,124.1,103.4z"/>
<path fill="#FFFFFF" d="M124.1,90.8c-14.3,0-25.9-11.6-25.9-25.9S109.8,39,124.1,39S150,50.6,150,64.9S138.4,90.8,124.1,90.8z"/>
</svg>
