<?xml version="1.0" encoding="UTF-8" standalone="yes"?><svg xmlns="http://www.w3.org/2000/svg" version="1.2" viewBox="0 0 192 192" baseProfile="tiny-ps"><title>JustPark</title><desc>JustPark</desc><rect width="192" height="192" fill="#23a437"></rect><path fill="#fff" d="M85.04,115.81v15.13c0,7.84-6.37,14.18-14.23,14.18-2.67,0-4.82-2.15-4.82-4.8v-57.52c0-18.89,14.95-34.79,33.89-35.17,19.43-.39,35.3,15.21,35.3,34.49,0,17.82-13.57,32.47-30.97,34.28-.39.05-.68.36-.68.75v4.35c0,1.51-1.69,2.26-2.65,1.16l-5.59-6.31-6.16-6.96c-1.13-1.28-1.13-3.37,0-4.67l6.16-6.96,5.59-6.31c.96-1.08,2.65-.35,2.65,1.16v4.29c0,.51.49.89.99.75,6.67-1.75,11.61-7.78,11.61-14.98,0-8.79-7.35-15.87-16.24-15.48-8.39.36-14.83,7.59-14.83,15.96v32.61l-.03.03h0Z"></path></svg>