<?xml version="1.0" encoding="UTF-8"?>
<svg version="1.2" baseProfile="tiny-ps" xmlns="http://www.w3.org/2000/svg" xmlns:xlink="http://www.w3.org/1999/xlink"
     viewBox="0 0 120 120" xml:space="preserve">
    <title>Abasteo</title>
    <rect id="Background_00000127751470947401080560000005452949247990487171_" x="0" y="0" fill="#0088D2" width="120"
          height="120"/>
    <path id="Pattern_00000158746342656040759750000009524708170954303413_" fill="#C7D1DE" d="M96.3,73.4c0.1,0.3,0.1,0.6,0,0.9
                c0,0.5-0.2,0.9-0.4,1.4c-0.2,0.4-0.5,0.8-0.9,1.1c-0.4,0.3-0.8,0.6-1.2,0.7c-0.5,0.2-0.9,0.3-1.4,0.2c-0.2,0-0.4,0-0.5-0.1
                c-0.2,0-0.3-0.1-0.5-0.1c-0.2-0.1-0.3-0.1-0.5-0.2c-0.1-0.1-0.3-0.2-0.4-0.2c-0.2-0.2-0.4-0.4-0.6-0.6c-0.2-0.2-0.3-0.5-0.5-0.7
                c-0.1-0.3-0.2-0.5-0.3-0.8c-0.1-0.3-0.1-0.6,0-0.9c0-0.5,0.2-0.9,0.4-1.3c0.2-0.4,0.5-0.8,0.9-1.1c0.3-0.3,0.8-0.6,1.2-0.7
                c0.4-0.2,0.9-0.3,1.4-0.3c0.2,0,0.3,0,0.5,0c0.2,0,0.3,0.1,0.5,0.1c0.2,0,0.3,0.1,0.5,0.2c0.1,0.1,0.3,0.1,0.4,0.2
                c0.2,0.2,0.5,0.3,0.6,0.6c0.2,0.2,0.4,0.4,0.5,0.7C96.2,72.9,96.3,73.1,96.3,73.4z M86.9,83.6c-0.2-0.3-0.4-0.5-0.7-0.7
                c-0.1,0-0.1-0.1-0.2-0.1c-0.1,0-0.1-0.1-0.2-0.1c-0.1,0-0.1-0.1-0.2-0.1c-0.1,0-0.1-0.1-0.2-0.1c-0.4-0.1-0.9-0.2-1.3-0.2
                c-0.4,0-0.8,0.1-1.2,0.3c-0.4,0.2-0.7,0.4-1,0.8c-0.3,0.3-0.5,0.7-0.7,1.1c-0.1,0.4-0.2,0.7-0.2,1.1c0,0.4,0,0.7,0.1,1
                c0.1,0.3,0.2,0.6,0.4,0.9c0.2,0.3,0.4,0.5,0.7,0.7c0.1,0,0.1,0.1,0.2,0.1s0.1,0.1,0.2,0.1c0.1,0,0.1,0.1,0.2,0.1
                c0.1,0,0.1,0.1,0.2,0.1c0.4,0.2,0.9,0.2,1.3,0.2c0.4,0,0.9-0.1,1.2-0.3c0.4-0.2,0.8-0.4,1.1-0.8c0.3-0.3,0.6-0.7,0.7-1.1
                c0.1-0.4,0.2-0.7,0.2-1.1c0-0.4,0-0.7-0.1-1.1C87.2,84.2,87.1,83.9,86.9,83.6z M75.5,92.6c-0.2-0.3-0.4-0.6-0.7-0.9
                c-0.3-0.2-0.7-0.4-1-0.5c-0.4-0.1-0.7-0.1-1.1,0c-0.4,0.1-0.7,0.2-1.1,0.4c-0.3,0.2-0.6,0.5-0.9,0.8c-0.3,0.3-0.4,0.7-0.5,1.1
                c-0.1,0.4-0.1,0.8-0.1,1.2c0,0.4,0.1,0.8,0.3,1.1c0.2,0.3,0.4,0.7,0.7,0.9c0.3,0.3,0.7,0.4,1,0.5c0.4,0.1,0.7,0.1,1.1,0.1
                c0.4-0.1,0.7-0.2,1.1-0.4c0.3-0.2,0.7-0.5,0.9-0.8c0.3-0.3,0.4-0.7,0.6-1.1c0.1-0.4,0.1-0.8,0.1-1.2
                C75.8,93.3,75.7,92.9,75.5,92.6z M62.6,97.5c0-0.1-0.1-0.1-0.1-0.2s-0.1-0.1-0.1-0.1c0,0-0.1-0.1-0.1-0.1c0,0-0.1-0.1-0.1-0.1
                c-0.2-0.2-0.4-0.3-0.7-0.4c-0.2-0.1-0.5-0.1-0.8-0.1c-0.3,0-0.5,0-0.8,0.1c-0.3,0.1-0.5,0.2-0.8,0.4c-0.3,0.2-0.5,0.5-0.7,0.8
                c-0.2,0.3-0.3,0.6-0.4,1c-0.1,0.3-0.1,0.7,0,1.1c0.1,0.3,0.2,0.7,0.3,1c0,0.1,0.1,0.1,0.1,0.2c0,0,0.1,0.1,0.1,0.1
                c0,0,0.1,0.1,0.1,0.1c0,0,0.1,0.1,0.1,0.1c0.2,0.2,0.4,0.3,0.7,0.4c0.2,0.1,0.5,0.1,0.8,0.2c0.3,0,0.5,0,0.8-0.1
                c0.3-0.1,0.5-0.2,0.8-0.4c0.3-0.2,0.5-0.5,0.7-0.8c0.2-0.3,0.3-0.7,0.4-1c0.1-0.4,0.1-0.7,0-1.1C62.9,98.1,62.8,97.8,62.6,97.5z
                 M49.9,99c0-0.1-0.1-0.2-0.1-0.3c-0.1-0.1-0.1-0.2-0.2-0.3c-0.1-0.1-0.1-0.2-0.2-0.2c-0.1-0.1-0.3-0.2-0.4-0.3
                c-0.2-0.1-0.3-0.1-0.5-0.2c-0.2,0-0.3,0-0.5,0c-0.2,0-0.4,0.1-0.5,0.1c-0.3,0.1-0.5,0.3-0.8,0.5c-0.2,0.2-0.4,0.5-0.5,0.8
                c-0.1,0.3-0.2,0.6-0.3,0.9c0,0.3,0,0.6,0,0.9c0,0.1,0.1,0.2,0.1,0.3c0,0.1,0.1,0.2,0.1,0.3c0.1,0.1,0.1,0.2,0.2,0.3
                c0.1,0.1,0.1,0.2,0.2,0.2c0.1,0.1,0.3,0.2,0.4,0.3c0.2,0.1,0.3,0.1,0.5,0.2c0.2,0,0.3,0,0.5,0c0.2,0,0.4-0.1,0.6-0.1
                c0.3-0.1,0.6-0.3,0.8-0.5c0.2-0.2,0.4-0.5,0.6-0.8c0.1-0.3,0.2-0.6,0.3-0.9c0-0.3,0-0.6,0-1C49.9,99.2,49.9,99.1,49.9,99z
                 M38,96.1c0-0.1-0.1-0.2-0.2-0.4c-0.1-0.1-0.1-0.2-0.2-0.3c-0.1-0.1-0.2-0.1-0.2-0.2c-0.1-0.1-0.2-0.1-0.3-0.1
                c-0.1,0-0.2-0.1-0.3-0.1c-0.1,0-0.2,0-0.3,0c-0.2,0-0.5,0.1-0.7,0.2c-0.2,0.1-0.4,0.3-0.6,0.5c-0.2,0.2-0.3,0.4-0.4,0.7
                c-0.1,0.3-0.2,0.5-0.2,0.8c0,0.2,0,0.3,0,0.4c0,0.1,0,0.3,0.1,0.4c0,0.1,0.1,0.2,0.2,0.4c0.1,0.1,0.1,0.2,0.2,0.3
                c0.1,0.1,0.2,0.1,0.2,0.2c0.1,0.1,0.2,0.1,0.3,0.1c0.1,0,0.2,0.1,0.3,0.1c0.1,0,0.2,0,0.3,0c0.2,0,0.5-0.1,0.7-0.2
                c0.2-0.1,0.4-0.3,0.6-0.5c0.2-0.2,0.3-0.4,0.4-0.7c0.1-0.3,0.2-0.5,0.2-0.8c0-0.2,0-0.3,0-0.5C38.1,96.4,38.1,96.3,38,96.1z
                 M28.9,89.9c-0.1-0.1-0.1-0.2-0.2-0.3c0,0-0.1-0.1-0.1-0.1c0,0-0.1-0.1-0.1-0.1c0,0-0.1,0-0.1-0.1c0,0-0.1,0-0.1,0
                c-0.2,0-0.4,0-0.6,0c-0.2,0-0.4,0.1-0.6,0.2c-0.2,0.1-0.3,0.3-0.5,0.5c-0.1,0.2-0.3,0.4-0.3,0.6c-0.1,0.2-0.1,0.3-0.1,0.5
                c0,0.2,0,0.3,0,0.5c0,0.2,0.1,0.3,0.1,0.4c0.1,0.1,0.1,0.2,0.2,0.3c0,0,0.1,0.1,0.1,0.1c0,0,0.1,0.1,0.1,0.1c0,0,0.1,0,0.1,0.1
                c0,0,0.1,0,0.1,0c0.2,0.1,0.4,0.1,0.6,0c0.2,0,0.4-0.1,0.6-0.2c0.2-0.1,0.3-0.3,0.5-0.5c0.1-0.2,0.3-0.4,0.3-0.6
                c0.1-0.2,0.1-0.3,0.1-0.5c0-0.2,0-0.3,0-0.5C29.1,90.2,29,90.1,28.9,89.9z M101.5,59.4c-0.1-0.2-0.2-0.4-0.3-0.5
                c-0.1-0.2-0.3-0.3-0.4-0.5c-0.2-0.1-0.3-0.3-0.5-0.4c-0.2-0.1-0.5-0.2-0.7-0.3c-0.2-0.1-0.5-0.1-0.8-0.2c-0.3,0-0.5,0-0.8,0
                c-0.3,0-0.6,0.1-0.8,0.2c-0.5,0.1-1,0.4-1.4,0.7c-0.4,0.3-0.7,0.7-1,1.1c-0.3,0.4-0.4,0.8-0.5,1.3c-0.1,0.5-0.1,0.9,0,1.4
                c0,0.2,0.1,0.4,0.2,0.6c0.1,0.2,0.2,0.4,0.3,0.5c0.1,0.2,0.3,0.3,0.4,0.5c0.2,0.1,0.3,0.3,0.5,0.4c0.2,0.1,0.4,0.2,0.7,0.3
                c0.2,0.1,0.5,0.2,0.8,0.2c0.3,0,0.5,0,0.8,0c0.3,0,0.6-0.1,0.9-0.1c0.5-0.1,1-0.4,1.4-0.7c0.4-0.3,0.8-0.7,1-1.1
                c0.3-0.4,0.5-0.9,0.5-1.3c0.1-0.5,0.1-0.9,0-1.4C101.6,59.8,101.6,59.5,101.5,59.4z M102.3,47.3c-0.1-0.4-0.2-0.8-0.4-1.1
                c-0.1-0.1-0.1-0.2-0.2-0.3c-0.1-0.1-0.2-0.2-0.2-0.2c-0.1-0.1-0.2-0.1-0.3-0.2c-0.1-0.1-0.2-0.1-0.3-0.2
                c-0.3-0.1-0.6-0.2-0.9-0.3c-0.3-0.1-0.6-0.1-1-0.1c-0.3,0-0.7,0.1-1,0.2c-0.3,0.1-0.6,0.2-1,0.4c-0.4,0.3-0.8,0.6-1,0.9
                c-0.3,0.3-0.5,0.7-0.6,1.1c-0.1,0.4-0.2,0.8-0.1,1.2c0,0.4,0.2,0.8,0.4,1.1c0.1,0.1,0.1,0.2,0.2,0.3c0.1,0.1,0.1,0.2,0.2,0.2
                c0.1,0.1,0.2,0.1,0.3,0.2c0.1,0.1,0.2,0.1,0.3,0.2c0.3,0.2,0.6,0.3,0.9,0.3c0.3,0.1,0.6,0.1,1,0.1c0.3,0,0.7-0.1,1-0.2
                c0.3-0.1,0.7-0.2,1-0.4c0.4-0.3,0.8-0.6,1.1-0.9c0.3-0.4,0.5-0.7,0.6-1.1C102.3,48.1,102.4,47.7,102.3,47.3z M93.7,39.1
                C93.7,39.1,93.7,39.1,93.7,39.1c0.1,0.1,0.1,0.1,0.2,0.1c0,0,0.1,0,0.1,0c0,0,0.1,0,0.1,0c0.3,0.2,0.6,0.3,1,0.3
                c0.4,0,0.7,0,1.1,0c0.4-0.1,0.7-0.2,1.1-0.4c0.3-0.2,0.7-0.4,0.9-0.7c0.3-0.3,0.5-0.6,0.7-1c0.1-0.3,0.2-0.7,0.2-1.1
                c0-0.3-0.1-0.7-0.2-1c-0.2-0.3-0.4-0.6-0.7-0.8c0,0-0.1,0-0.1-0.1c0,0-0.1,0-0.1-0.1c0,0-0.1,0-0.1,0c0,0-0.1,0-0.1,0
                c-0.3-0.2-0.6-0.2-1-0.3c-0.3,0-0.7,0-1.1,0.1c-0.4,0.1-0.7,0.2-1,0.4c-0.3,0.2-0.6,0.4-0.9,0.7c-0.3,0.3-0.5,0.6-0.7,1
                c-0.1,0.3-0.2,0.7-0.2,1c0,0.3,0.1,0.7,0.2,1C93.2,38.6,93.4,38.9,93.7,39.1z M90.6,30.4c0.3-0.1,0.7-0.3,0.9-0.6
                c0.3-0.2,0.5-0.5,0.7-0.8c0.2-0.3,0.3-0.6,0.3-0.9c0-0.3,0-0.6,0-0.8c-0.1-0.3-0.2-0.5-0.4-0.7c-0.2-0.2-0.4-0.4-0.7-0.5
                c0,0-0.1,0-0.1,0c0,0-0.1,0-0.1,0s-0.1,0-0.1,0c0,0-0.1,0-0.1,0c-0.3-0.1-0.7-0.1-1-0.1c-0.3,0-0.7,0.1-1,0.3
                c-0.3,0.1-0.6,0.3-0.9,0.6c-0.3,0.2-0.5,0.5-0.7,0.8c-0.2,0.3-0.3,0.6-0.3,0.8c0,0.3,0,0.6,0,0.8c0.1,0.3,0.2,0.5,0.3,0.7
                c0.2,0.2,0.4,0.4,0.6,0.5c0,0,0.1,0,0.1,0c0,0,0.1,0,0.1,0c0,0,0.1,0,0.1,0c0,0,0.1,0,0.1,0c0.3,0.1,0.7,0.1,1,0.1
                C89.9,30.6,90.3,30.5,90.6,30.4z M81.1,24.4c0.3,0,0.6,0,0.9-0.1c0.3-0.1,0.6-0.2,0.8-0.4c0.3-0.2,0.5-0.4,0.7-0.6
                c0.2-0.2,0.3-0.5,0.4-0.8C84,22.2,84,22,84,21.8c0-0.2-0.1-0.4-0.1-0.5c-0.1-0.2-0.2-0.3-0.3-0.4c-0.1-0.1-0.3-0.2-0.4-0.3
                c-0.1,0-0.1-0.1-0.2-0.1c-0.1,0-0.1,0-0.2-0.1c-0.1,0-0.1,0-0.2,0c-0.1,0-0.2,0-0.2,0c-0.3,0-0.6,0.1-0.9,0.2
                c-0.3,0.1-0.6,0.2-0.8,0.4c-0.3,0.2-0.5,0.4-0.7,0.6c-0.2,0.2-0.3,0.5-0.4,0.8c-0.1,0.2-0.1,0.4-0.1,0.6c0,0.2,0,0.4,0.1,0.5
                c0.1,0.2,0.2,0.3,0.3,0.4c0.1,0.1,0.3,0.2,0.4,0.3c0.1,0,0.1,0.1,0.2,0.1c0.1,0,0.1,0,0.2,0.1c0.1,0,0.1,0,0.2,0
                C81,24.4,81,24.4,81.1,24.4z M70.4,20.8c0.1,0.1,0.2,0.1,0.3,0.2c0.1,0,0.2,0.1,0.3,0.1c0.1,0,0.2,0,0.3,0.1c0.1,0,0.2,0,0.3,0
                c0.1,0,0.2,0,0.4-0.1c0.3-0.1,0.5-0.2,0.8-0.3c0.2-0.1,0.4-0.3,0.6-0.5c0.2-0.2,0.3-0.4,0.4-0.6c0.1-0.2,0.1-0.5,0.1-0.7
                c0-0.1,0-0.2-0.1-0.4c0-0.1-0.1-0.2-0.1-0.3c-0.1-0.1-0.1-0.2-0.2-0.3c-0.1-0.1-0.2-0.1-0.3-0.2c-0.1,0-0.2-0.1-0.3-0.1
                c-0.1,0-0.2,0-0.3,0c-0.1,0-0.2,0-0.3,0c-0.1,0-0.2,0-0.4,0.1c-0.3,0.1-0.5,0.2-0.8,0.3c-0.2,0.1-0.4,0.3-0.6,0.5
                c-0.2,0.2-0.3,0.4-0.4,0.6C70,19.4,70,19.6,70,19.8c0,0.1,0,0.2,0,0.4c0,0.1,0.1,0.2,0.1,0.3C70.2,20.6,70.3,20.7,70.4,20.8z
                 M59.6,20.4c0,0.1,0.1,0.1,0.1,0.2c0,0,0.1,0.1,0.1,0.1c0,0,0.1,0.1,0.2,0.1c0.1,0.1,0.2,0.1,0.3,0.1c0.1,0,0.2,0,0.4,0
                c0.1,0,0.3,0,0.4-0.1c0.1,0,0.3-0.1,0.4-0.2c0.2-0.1,0.4-0.3,0.6-0.4c0.2-0.2,0.3-0.3,0.4-0.5c0.1-0.2,0.2-0.4,0.2-0.6
                c0-0.2,0-0.4-0.1-0.6c0-0.1-0.1-0.1-0.1-0.2c0-0.1-0.1-0.1-0.1-0.1c0,0-0.1-0.1-0.1-0.1c0,0-0.1-0.1-0.2-0.1
                c-0.1-0.1-0.2-0.1-0.3-0.1c-0.1,0-0.2,0-0.4,0c-0.1,0-0.3,0-0.4,0.1c-0.1,0-0.3,0.1-0.4,0.2c-0.2,0.1-0.4,0.3-0.6,0.4
                c-0.2,0.2-0.3,0.3-0.4,0.5c-0.1,0.2-0.2,0.4-0.2,0.6c0,0.2,0,0.4,0,0.6C59.6,20.3,59.6,20.3,59.6,20.4z M52,21.1
                C52,21,51.9,21,52,21.1C51.9,21,51.9,21,51.9,21c0,0,0,0-0.1,0c-0.1-0.1-0.2-0.1-0.4-0.1c-0.1,0-0.3,0-0.4,0
                c-0.1,0-0.3,0.1-0.4,0.1c-0.1,0.1-0.3,0.2-0.4,0.3c-0.2,0.1-0.3,0.3-0.4,0.4c-0.1,0.2-0.2,0.3-0.2,0.5c0,0.2-0.1,0.3,0,0.5
                c0,0.2,0.1,0.3,0.2,0.4c0,0,0,0,0.1,0.1c0,0,0,0,0.1,0.1c0,0,0,0,0.1,0c0,0,0,0,0.1,0c0.1,0.1,0.2,0.1,0.4,0.1c0.1,0,0.3,0,0.4,0
                c0.1,0,0.3-0.1,0.4-0.1c0.1-0.1,0.3-0.2,0.4-0.3c0.2-0.1,0.3-0.3,0.4-0.5c0.1-0.2,0.2-0.3,0.2-0.5c0-0.2,0.1-0.3,0-0.5
                C52.2,21.4,52.1,21.2,52,21.1C52,21.1,52,21.1,52,21.1z M42.3,26.1C42.2,26,42,26,41.9,26c-0.1,0-0.3,0-0.4,0.1
                c-0.1,0-0.3,0.1-0.4,0.2c-0.1,0.1-0.3,0.2-0.4,0.3c-0.1,0.1-0.2,0.3-0.2,0.4c-0.1,0.1-0.1,0.3-0.1,0.4c0,0.1,0,0.3,0.1,0.4
                c0.1,0.1,0.1,0.2,0.2,0.3c0.1,0.1,0.2,0.1,0.4,0.1c0.1,0,0.3,0,0.4-0.1c0.1,0,0.3-0.1,0.4-0.2c0.1-0.1,0.3-0.2,0.4-0.4
                c0.1-0.1,0.2-0.3,0.2-0.4c0.1-0.1,0.1-0.3,0.1-0.4c0-0.1,0-0.3-0.1-0.4C42.5,26.2,42.4,26.1,42.3,26.1z M33.9,33
                C33.9,33,33.9,33,33.9,33C33.9,33,33.9,33,33.9,33C33.8,33,33.8,33,33.8,33c0,0,0,0-0.1,0c-0.1,0-0.2,0-0.3,0
                c-0.1,0-0.2,0.1-0.4,0.1s-0.2,0.2-0.3,0.3c-0.1,0.1-0.2,0.2-0.2,0.3c-0.1,0.1-0.1,0.2-0.1,0.3c0,0.1,0,0.2,0,0.3
                c0,0.1,0,0.2,0.1,0.2c0,0.1,0.1,0.1,0.2,0.2c0,0,0,0,0,0c0,0,0,0,0,0c0,0,0,0,0.1,0c0,0,0,0,0.1,0c0.1,0,0.2,0,0.3,0
                c0.1,0,0.2-0.1,0.4-0.1c0.1-0.1,0.2-0.2,0.3-0.3c0.1-0.1,0.2-0.2,0.2-0.3c0.1-0.1,0.1-0.2,0.1-0.3c0-0.1,0-0.2,0-0.3
                c0-0.1,0-0.2-0.1-0.2C34.1,33.1,34,33.1,33.9,33z"/>
    <path fill="#FFFFFF" d="M75.6,68.9l4.7-22.5c1.2-5.9,0-9.9-3.6-12.1c-3.6-2.1-8-3.2-13.3-3.2c-8,0-14.1,2.2-18.3,6.5
                    c-2.6,2.8-4.5,6.3-5.7,10.6h12c0.7-1.9,1.6-3.4,2.7-4.5c1.5-1.5,3.8-2.2,6.7-2.2c2.6,0,4.5,0.4,5.7,1.1c1.2,0.8,1.6,2.2,1.2,4.2
                    c-0.4,1.6-1.5,2.9-3.4,3.6c-1.1,0.4-2.8,0.8-5.2,1.1l-4.3,0.5c-5,0.6-8.8,1.7-11.6,3.1c-5.1,2.7-8.2,7.1-9.5,13.1
                    c-1,4.6-0.3,8.2,2,10.8c2.3,2.5,5.6,3.8,9.9,3.8c3.4,0,6.6-0.8,9.6-2.4c2.5-1.3,4.8-3,7-4.9c-0.1,1.1-0.2,2.1-0.3,3
                    c0,0.9,0,1.8,0.2,2.8h13.6l0.4-1.9c-0.7-0.4-1.2-0.9-1.5-1.5c-0.3-0.6-0.3-1.7,0-3.4C74.9,72.4,75.3,70.5,75.6,68.9z M64.6,62.3
                    c-1,4.3-2.8,7.2-5.4,8.9c-2.6,1.6-5.2,2.4-7.9,2.4c-1.7,0-3-0.5-4-1.5c-1-1-1.2-2.6-0.8-4.7c0.5-2.5,1.8-4.3,4-5.4
                    c1.3-0.7,3.3-1.3,6-1.8l2.9-0.5c1.5-0.3,2.6-0.6,3.5-0.9c0.9-0.3,1.7-0.7,2.6-1.2L64.6,62.3z"/>
</svg>

