<?xml version="1.0" encoding="utf-8"?>
<!-- Generator: Adobe Illustrator 28.2.0, SVG Export Plug-In . SVG Version: 6.00 Build 0)  -->
<svg version="1.2" baseProfile="tiny-ps" id="Layer_1" xmlns="http://www.w3.org/2000/svg" xmlns:xlink="http://www.w3.org/1999/xlink"
	 viewBox="0 0 500 500" xml:space="preserve">
<title>Sensilab</title>
<rect fill="#FF5D00" width="500" height="500"/>
<g>
	<path fill="#FFFFFF" d="M126.4,258.5c3.6,0.1,7,1.9,9.4,4.7l7-7c-4.2-4.7-10.6-6.7-16.3-6.7c-8.8,0-16.2,5.8-16.2,14.4
		c0,6.9,5.1,10.9,11.7,13.9c5.3,2.5,8.5,3.6,8.5,6.3c0,3-3.3,4.6-7.4,4.6c-3.8-0.1-7.7-2.2-10.3-5.8l-6.9,6.8c3.3,4.8,10.2,8,17.2,8
		c10.8,0,18.1-5.2,18-15.1c-0.1-7.1-7-10.3-12.4-13c-4.3-2-7.7-4.1-7.7-6.7C120.9,260.3,123.1,258.5,126.4,258.5z"/>
	<path fill="#FFFFFF" d="M188.6,262.2c0-8.2-7.3-12.8-15.1-12.8c-15.6,0-24.5,13.5-24.5,28.7c0,12.2,7.3,19.5,18.9,19.5
		c8.9,0,13.9-3.1,19.2-8.6l-8.2-5.9c-3.4,3.5-6.4,5-10.6,5c-4.2,0.1-7.8-2.9-8.7-6.9l0.2-0.1C174.5,279.4,188.6,274.1,188.6,262.2z
		 M173,259.2c3.1,0,4.8,1.3,4.8,3.6c0,5.6-8.8,8.2-17.9,9.3C161.9,263,168.2,259.2,173,259.2z"/>
	<path fill="#FFFFFF" d="M227.2,249.7c-6.2,0-12,3-16.8,9h-0.2l1.1-8.2h-10.5l-5.8,46.6h10.6l2.1-17.5c1.5-11.7,10.3-20.5,16.1-20.5
		c4.6,0,5.5,3.8,4.5,10.7l-3.6,27.3H235l3.7-28.2C240.5,256.1,237.2,249.6,227.2,249.7z"/>
	<path fill="#FFFFFF" d="M266,258.6c3.6,0.1,7,1.9,9.3,4.7l7-7c-4.2-4.7-10.6-6.7-16.3-6.7c-8.8,0-16.2,5.8-16.2,14.4
		c0,6.9,5.1,10.9,11.5,13.8c5.3,2.5,8.5,3.6,8.5,6.3c0,3-3.3,4.6-7.4,4.6c-3.6-0.1-7.5-2.2-10.2-5.7l-6.9,6.8c3.3,4.8,10.2,8,17.2,8
		c10.8,0,18.1-5.2,18-15.1c-0.1-7.2-7-10.3-12.4-13c-4.3-2-7.7-4.1-7.7-6.7C260.5,260.4,262.7,258.6,266,258.6z"/>
	<path fill="#FFFFFF" d="M302.6,229.4c-1.9-0.1-3.7,0.7-5.1,2c-1.3,1.3-2,3.2-2,5.1c0,1.8,0.7,3.5,2,4.8c1.2,1.3,3,2,4.8,2
		c1.9,0.1,3.7-0.7,5.1-2c1.3-1.3,2.1-3.2,2.1-5.1s-0.8-3.6-2-4.8C306.2,230,304.5,229.2,302.6,229.4z"/>
	<polygon fill="#FFFFFF" points="289.5,297.1 299.9,297.1 305.7,250.4 295.2,250.4 	"/>
	<polygon fill="#FFFFFF" points="314.7,297 325,297 333.8,226.6 323.3,226.6 	"/>
	<path fill="#FFFFFF" d="M373.6,254.2h-0.2c-3.2-3.2-7.6-4.5-12.3-4.5c-14,0-23,14.5-23,29.3c0,10.5,5,18.9,16.1,18.9
		c5,0,10.7-3.2,15.1-9.7h0.1l-1.1,8.9h10.5l5.7-46.8l-10.3,0.1L373.6,254.2z M372.1,265.2c-1.8,14.4-9.7,23.3-16.1,23.2
		c-4.8,0-7.5-3.7-7.5-9.5c0-9.5,4.8-19.9,13.1-19.9c4.1,0.1,7.8,1.6,10.7,4.4L372.1,265.2z"/>
	<path fill="#FFFFFF" d="M423,249.6c-5.6,0-10.9,2.8-15.5,8.8h-0.2l4-31.9h-10.5l-8.1,65.9c5.8,3.7,11.9,5.4,19.5,5.4
		c18.3,0,26.7-14.5,26.7-28.3C438.9,258.6,433.8,249.6,423,249.6z M411.2,288.3c-2.5,0-5-0.4-7.4-1.1l0.7-5.2
		c1.8-14.3,8.9-23,16.3-23c4.8,0,7.5,4.4,7.5,9.2C428.2,279,422.2,288.3,411.2,288.3z"/>
	<path fill="#FFFFFF" d="M460.3,234.8c-5.4,0-9.8,4.3-9.8,9.7s4.3,9.8,9.7,9.8c5.4,0.1,9.8-4.2,9.8-9.6
		C470,239.4,465.7,235,460.3,234.8z M465.8,250.4c-1.5,1.4-3.5,2.3-5.6,2.3c-4.3,0-7.8-3.5-7.8-7.8c-0.1-4.4,3.4-7.9,7.7-7.9
		c4.3,0,7.8,3.4,7.9,7.7C468,246.7,467.4,248.8,465.8,250.4z"/>
	<path fill="#FFFFFF" d="M464,242.8c0-1.9-1-3.3-3.4-3.3h-3.7v10.3h1.7v-3.7h1.5l2.6,3.7h2l-2.8-4
		C463.3,245.5,464.3,244.2,464,242.8z M458.6,244.4v-3.5h1.9c0.6,0,1.1,0.1,1.4,0.4c0.3,0.3,0.6,0.8,0.6,1.3c0,1-0.6,1.8-2.1,1.8
		H458.6z"/>
	<path fill="#FFFFFF" d="M75.1,228.3c-4-2.4-12.5-8.5-21.4-4.7c-8.6,3.5-16.1,15-22.6,23.2l-1.1,1.7c1.7,1.5,5.7,2,5.7,2
		c5.9,0.8,12,0,17.5-2.5C62.1,243.9,69.6,236.5,75.1,228.3z"/>
	<path fill="#FFFFFF" d="M149.8,189.9c-14.6-7.5-30.6-8.4-41.3,0c-10.1,7.8-28.7,37.8-28.7,37.8s14.1,8,30.1,3.1
		C126.5,225.8,143.6,205.8,149.8,189.9z"/>
	<path fill="#FFFFFF" d="M78.2,230c-6,8-13.2,15.6-16.1,22.8s-1.3,12.5,4.6,15.7c11.2-5.9,24.6-16.1,25.6-24.5
		C93.1,237.6,82.6,232.2,78.2,230z"/>
	<path fill="#FFFFFF" d="M62.3,214c3.1,6,14.5,12.3,14.5,12.3s5.3-8.1,6.8-10.8c6.4-10.7,10.8-22,8.8-33.9
		c-2.2-15.2-15.5-29.7-29.9-37.5c-0.9,18.7-5,45.1-3.2,60.4C59.8,207.8,60.8,211,62.3,214z"/>
</g>
</svg>
