<?xml version="1.0" encoding="UTF-8"?>
<!-- Created with Inkscape (http://www.inkscape.org/) -->
<svg width="300" height="300" version="1.2" viewBox="0 0 300 300" baseProfile="tiny-ps" xmlns="http://www.w3.org/2000/svg">
 <title>Luxcontrol</title>
 <path d="m0 150v-150h300v300h-300z" fill="#fcfdfd"/>
 <path d="m0 150v-150h300v300h-300zm237 73.5v-14.5l-32.25-0.11058c-28.322-0.0971-31.641-0.26694-27.25-1.3945 9.811-2.5193 23.858-8.8114 26.335-11.797 0.99509-1.199-0.17244-3.7098-6.4319-13.832-4.2062-6.8017-7.7752-12.512-7.9311-12.689-0.15591-0.1772-2.0455 0.79012-4.199 2.1496-17.081 10.783-41.325 7.6201-56.267-7.3399-14.742-14.759-18.115-36.988-8.3668-55.135 3.1396-5.8446 13.868-17.244 17.235-18.312 1.1692-0.3711 2.1258-1.0829 2.1258-1.5819 0-0.49894-3.4187-6.5254-7.5971-13.392l-7.5971-12.485-2.6529 1.6697c-11.426 7.1915-19.637 15.389-25.825 25.784-2.1055 3.5368-4.1656 6.4383-4.5781 6.4479-0.4125 0.009608-0.75-7.6325-0.75-16.983v-17h-28v175h174zm-146-36.5c0-12.1 0.3375-21.991 0.75-21.981 0.4125 0.0105 2.4721 2.9638 4.577 6.5628 9.8946 16.919 27.772 30.237 47.673 35.517l6.5 1.7245-59.5 0.17605z" fill="#a7cde1"/>
 <path d="m0 150v-150h300v300h-300zm238 73.5v-14.5l-31.75-0.0894c-27.427-0.0772-31.137-0.26188-27.25-1.3561 5.1105-1.4385 16.141-6.0023 19.652-8.1313 1.2911-0.78272 3.4549-2.097 4.8083-2.9205l2.4608-1.4974-7.4632-12.205c-4.1047-6.7127-7.8236-12.565-8.2641-13.006s-3.9566 0.75367-7.8135 2.6538c-9.0051 4.4363-18.083 5.9516-27.131 4.5286-19.902-3.1303-35.709-18.776-39.306-38.903-3.019-16.893 5.2491-35.603 20.285-45.901l4.7284-3.2386-7.1337-11.717c-3.9235-6.4443-7.6914-12.328-8.3729-13.076-2.8057-3.0765-20.079 12.068-28.85 25.295l-4.5998 6.9361v-33.372h-29v175h175zm-145.99-36.25 0.0095-21.75 4.0407 6.3696c5.9675 9.4069 10.637 14.701 18.278 20.721 7.8744 6.2038 18.795 11.874 27.863 14.466l6.2987 1.8008-56.5 0.14248z" fill="#fde046"/>
 <path d="m0 150v-150h300v300h-300zm238 73.5v-14.5l-31.75-0.0894c-27.427-0.0772-31.137-0.26188-27.25-1.3561 5.1105-1.4385 16.141-6.0023 19.652-8.1313 1.2911-0.78272 3.4549-2.097 4.8083-2.9205l2.4608-1.4974-7.4632-12.205c-4.1047-6.7127-7.8236-12.565-8.2641-13.006s-3.9566 0.75367-7.8135 2.6538c-9.0051 4.4363-18.083 5.9516-27.131 4.5286-19.902-3.1303-35.709-18.776-39.306-38.903-3.019-16.893 5.2491-35.603 20.285-45.901l4.7284-3.2386-7.1337-11.717c-3.9235-6.4443-7.6914-12.328-8.3729-13.076-2.8057-3.0765-20.079 12.068-28.85 25.295l-4.5998 6.9361v-33.372h-29v175h175zm-145.99-36.25 0.0095-21.75 4.0407 6.3696c5.9675 9.4069 10.637 14.701 18.278 20.721 7.8744 6.2038 18.795 11.874 27.863 14.466l6.2987 1.8008-56.5 0.14248zm99.433-23.157c0.30822-0.49871-0.34022-0.67122-1.441-0.38337-2.335 0.61061-2.6302 1.2901-0.5604 1.2901 0.79254 0 1.6932-0.40803 2.0014-0.90674zm-0.0155-1.9887c1.7825-0.69827 1.7956-0.80521 0.17569-1.4268-1.5976-0.61308-1.6124-0.81083-0.16769-2.2555 0.87092-0.87092 1.3-2.0421 0.95362-2.6026-0.3875-0.627 0.16278-0.59494 1.4301 0.0833 2.2579 1.2084 3.0744 0.54097 2.6396-2.1577-0.15549-0.96512 0.0475-1.5507 0.45114-1.3012 1.5091 0.9327 7.14-8.0718 6.3747-10.194-0.24793-0.6875 0.26172-1.25 1.1326-1.25 1.5431 0 2.0119-1.104 1.6349-3.8504-0.11917-0.86814 0.2849-1.0674 1.1315-0.55804 1.0612 0.6385 1.0569 0.47166-0.0221-0.85938-1.1764-1.4511-1.0742-1.6007 0.84173-1.2317 1.4754 0.28413 2.0216 5e-3 1.6888-0.86204-0.27057-0.70511 0.40672-1.8432 1.5051-2.5292 1.9323-1.2068 1.9372-1.2925 0.15022-2.6464-1.7514-1.3269-1.7257-1.4009 0.49678-1.431 1.4862-0.0202 2.535-0.76351 2.8666-2.0318 0.28766-1.1 0.91522-2 1.3946-2s0.80559-0.7875 0.72493-1.75c-0.30977-3.6964 0.23037-5.25 1.8252-5.25 1.4866 0 1.4703 0.20407-0.16054 2.0061-0.99854 1.1034-1.5623 2.2594-1.2528 2.5689 0.30952 0.30952 1.7129-1.3659 3.1185-3.7231 1.6955-2.8433 2.1888-4.5126 1.4656-4.9596-0.64392-0.39796-0.15073-0.97188 1.2049-1.4021 2.0127-0.63881 2.0904-0.8429 0.63212-1.659-0.9146-0.5118-1.6629-1.4482-1.6629-2.0809 0-0.83947 0.32426-0.82605 1.2 0.0497 1.7248 1.7248 2.8437 1.4774 2.0987-0.46404-0.43112-1.1235-0.25621-1.4278 0.53844-0.93662 0.69058 0.4268 1.4609-0.022 1.864-1.086 0.37784-0.99736 1.2788-2.4122 2.0021-3.144 1.4609-1.4781 0.75045-3.5678-0.87211-2.565-0.6423 0.39696-0.61051-0.14807 0.0844-1.4464 0.62001-1.1585 1.7292-1.8477 2.4986-1.5525 1.5172 0.5822 2.4971-0.54817 3.0746-3.5465 0.36756-1.9086-0.56217-1.9485-45.265-1.9413-28.251 0.0045-45.084 0.35867-44.182 0.92954 1.0815 0.6841 1.1206 0.9262 0.15144 0.93756-0.97909 0.01148-0.87045 0.75355 0.43349 2.9609 0.95701 1.6201 2.1023 2.7217 2.5451 2.4481 0.44278-0.27366 0.55031 0.1663 0.23896 0.97769-0.67236 1.7521 3.0446 4.0578 4.8597 3.0146 0.67613-0.38861 0.89085-0.33344 0.47715 0.1226-0.4137 0.45605-4e-3 1.656 0.91053 2.6665 2.0235 2.236 1.0464 3.6726-1.0631 1.5631-0.825-0.825-1.277-1.723-1.0045-1.9955s-0.1989-0.76198-1.0476-1.0877c-2.0081-0.77058-1.9701-0.62222 0.80363 3.1374 1.2907 1.7495 2.7124 2.8494 3.1593 2.4443 0.44691-0.40511 0.54101 0.0222 0.20912 0.94961-0.34083 0.95235 0.24263 2.7618 1.3407 4.1577 1.0693 1.3594 1.9441 2.9407 1.9441 3.5141s0.7875 1.5013 1.75 2.0619c0.9625 0.56061 1.3871 1.033 0.94346 1.0497-1.0666 0.0402 2.4907 6.0304 3.5812 6.0304 0.46388 0 0.59681 0.39901 0.29541 0.88669-0.30141 0.48768 0.12204 1.4428 0.94098 2.1224 0.81894 0.67966 1.489 1.7859 1.489 2.4583 0 0.67241 0.88939 2.0274 1.9764 3.0112s1.7818 2.1035 1.544 2.4883c-0.23784 0.38483 0.22277 0.69969 1.0236 0.69969 2.0555 0 1.8164-2.4249-0.29399-2.9818-0.9625-0.25395-0.57886-0.41929 0.85254-0.36742 1.9982 0.0724 2.4926 0.51456 2.1293 1.904-0.26028 0.99532-0.84927 2.0421-1.3089 2.3261s-0.58312 1.1744-0.27451 1.9787 0.93286 1.2325 1.3872 0.95166c0.45436-0.28081 1.1088-0.0532 1.4542 0.50575 0.34546 0.55897 0.0391 1.0232-0.6809 1.0316-0.9484 0.0111-0.89578 0.27654 0.19098 0.96353 0.825 0.52152 1.5562 1.4146 1.625 1.9847 0.0687 0.57006 0.18125 1.4865 0.25 2.0365 0.0687 0.55 0.84814 1 1.732 1 0.90254 0 1.3897 0.56632 1.1112 1.2919-0.27266 0.71054 0.15887 2.173 0.95895 3.25 1.3634 1.8352 1.4178 1.7699 0.86576-1.0419-0.5107-2.6015-0.45732-2.7011 0.40184-0.75 0.54492 1.2375 1.5678 2.2637 2.273 2.2804 0.75295 0.0179 0.55714 0.45267-0.47439 1.0534-2.379 1.3855-0.55902 5.1588 2.0219 4.1917 1.453-0.54444 1.5332-0.40165 0.49343 0.87925-2.0476 2.5225 0.11903 3.536 4.1682 1.9498zm-0.26897-11.105c0-1.375 0.22698-1.9375 0.50439-1.25s0.27741 1.8125 0 2.5-0.50439 0.125-0.50439-1.25zm-14.158-11.213c0-1.0435 1.159-0.97217 2.9874 0.18385 1.169 0.73909 1.0084 0.90434-0.75 0.77188-1.2306-0.0927-2.2374-0.52278-2.2374-0.95573zm6 0.81979c0-0.21616 0.675-0.65203 1.5-0.96862 0.825-0.31658 1.5-0.13972 1.5 0.39301 0 0.53274-0.675 0.96862-1.5 0.96862s-1.5-0.17686-1.5-0.39301zm17.429-1.4934c0-1.1452 0.51517-1.6887 1.3112-1.3832 0.99906 0.38337 1.0379 0.83248 0.16327 1.8864-1.4583 1.7572-1.4745 1.7516-1.4745-0.50317zm0.57143-4.1726c0-0.58246 0.45-0.7809 1-0.44098s1 0.81648 1 1.059-0.45 0.44098-1 0.44098-1-0.47656-1-1.059zm-6.3893-1.355c0.54818-1.4389 0.40042-1.7109-0.59526-1.0955-0.91441 0.56514-1.0869 0.43415-0.55707-0.42308 0.55259-0.89411 1.0717-0.93736 1.8545-0.15451 0.78284 0.78284 0.73467 1.437-0.17212 2.3371-1.0101 1.0027-1.115 0.87137-0.53006-0.66404zm-25.023-2.9545c0.31604-0.82358-0.33385-1.5932-1.632-1.9327-2.1663-0.5665-1.884-2.7122 0.35308-2.6834 0.71561 9e-3 0.59227 0.40223-0.30902 0.98469-1.213 0.78387-1.0694 0.9723 0.75 0.98469 1.5782 0.0107 2.25 0.61244 2.25 2.0153 0 1.1-0.43588 2-0.96862 2-0.53273 0-0.73228-0.61586-0.44344-1.3686zm29.412-1.7981c0-0.45833 0.42344-0.83333 0.94098-0.83333s1.1728 0.375 1.456 0.83333c0.28327 0.45834-0.14017 0.83334-0.94098 0.83334-0.8008 0-1.456-0.375-1.456-0.83334zm8.8125 0.48356c0.72187-0.28887 1.5844-0.25335 1.9167 0.0789 0.33229 0.33229-0.25834 0.56864-1.3125 0.52522-1.165-0.048-1.4019-0.28494-0.60417-0.60416zm-11.698-4.2463c-0.85973-0.53135-0.96201-1.0467-0.29014-1.4619 0.57071-0.35272 1.3388-0.15403 1.7069 0.44153 0.91846 1.4861 0.188 2.0122-1.4168 1.0204zm-28.035-0.76161c-0.11408-1.7209 1.6556-2.5475 2.5065-1.1708 0.43129 0.69784 0.29172 0.9039-0.34549 0.51008-0.58801-0.36341-1.297-0.0954-1.5756 0.59549-0.3625 0.89914-0.52891 0.91769-0.58541 0.0653zm4.921-0.36804c0-0.58246 0.45-0.7809 1-0.44098s1 0.81648 1 1.059-0.45 0.44098-1 0.44098-1-0.47656-1-1.059zm28.51-1.9573c0.34546-0.55897 1.047-0.75742 1.559-0.44098 1.387 0.85723 1.1284 1.4573-0.62812 1.4573-0.85746 0-1.2764-0.45734-0.9309-1.0163zm-11.01-1.9837c-0.33992-0.55-0.14148-1 0.44098-1s1.059 0.45 1.059 1-0.19844 1-0.44098 1-0.7191-0.45-1.059-1zm9.5-2.5c0-0.825 0.45-1.5 1-1.5s1 0.675 1 1.5-0.45 1.5-1 1.5-1-0.675-1-1.5zm-18.25-0.16228c0.6875-0.27741 1.8125-0.27741 2.5 0s0.125 0.50439-1.25 0.50439-1.9375-0.22698-1.25-0.50439zm-14.25-2.3377c-1.9084-0.82005-1.8969-0.86265 0.25-0.92971 1.2375-0.0387 2.25 0.37971 2.25 0.92971s-0.1125 0.96837-0.25 0.92971c-0.1375-0.0387-1.15-0.45702-2.25-0.92971zm15.372-0.75c-1.2439-1.5861-1.2085-1.6214 0.37756-0.37756 0.9625 0.75485 1.75 1.5424 1.75 1.75 0 0.82304-0.82119 0.29331-2.1276-1.3724zm-5.8724-0.25c0-0.55 0.47656-1 1.059-1s0.7809 0.45 0.44098 1-0.81648 1-1.059 1-0.44098-0.45-0.44098-1zm-18.777-2.4279c0.11052-1.3354 0.51323-2.2349 0.89492-1.999 0.67515 0.41726 0.0197 4.4269-0.72369 4.4269-0.20469 0-0.28174-1.0926-0.17123-2.4279zm37.527 1.7656c0.6875-0.27741 1.8125-0.27741 2.5 0s0.125 0.50439-1.25 0.50439-1.9375-0.22698-1.25-0.50439zm-12.539-2.9386c-0.70918-0.76953-0.84824-1.3991-0.30901-1.3991 1.0384 0 2.5417 1.9022 1.9486 2.4657-0.19258 0.18294-0.93038-0.297-1.6396-1.0665zm25.039 0.93858c-1.7315-0.69868-1.5687-2.0044 0.25-2.0044 0.825 0 1.5 0.6 1.5 1.3333 0 0.73333-0.1125 1.2978-0.25 1.2544-0.1375-0.0434-0.8125-0.30592-1.5-0.58333zm-21.219-3.0877c0.0173-0.4125 1.2548-1.6139 2.75-2.6697l2.7186-1.9197-2.4243 2.6697c-2.5476 2.8054-3.0959 3.1512-3.0443 1.9197zm0.17915-3.6491c0.70919-0.76953 1.447-1.2495 1.6396-1.0665 0.59314 0.56346-0.91014 2.4657-1.9486 2.4657-0.53923 0-0.40017-0.62961 0.30901-1.3991zm-24.211-3.5313c0-0.51175-1.0125-1.0877-2.25-1.2799-2.0542-0.31908-2.0106-0.4001 0.5-0.93088 2.2233-0.47003 2.75-0.22487 2.75 1.2799 0 1.0237-0.225 1.8613-0.5 1.8613s-0.5-0.4187-0.5-0.93045zm26-0.12857c0-0.58246 0.45-0.7809 1-0.44098s1 0.81648 1 1.059-0.45 0.44098-1 0.44098-1-0.47656-1-1.059zm2.5576-1.8477c-0.30822-0.49871 0.34022-0.67122 1.441-0.38337 2.335 0.61061 2.6302 1.2901 0.5604 1.2901-0.79254 0-1.6932-0.40803-2.0014-0.90674zm30.942-0.093259c-0.33992-0.55-0.14148-1 0.44098-1s1.059 0.45 1.059 1-0.19844 1-0.44098 1-0.7191-0.45-1.059-1zm-11.5-1c-0.90129-0.58246-1.0246-0.97549-0.30902-0.98469 0.65504-0.0084 1.4691 0.43469 1.809 0.98469 0.7673 1.2415 0.42112 1.2415-1.5 0zm-6.8421-2c0-1.375 0.22698-1.9375 0.50439-1.25s0.27741 1.8125 0 2.5-0.50439 0.125-0.50439-1.25zm-34.079-0.58333c0.048-1.1649 0.28494-1.4019 0.60416-0.60417 0.28887 0.72188 0.25335 1.5844-0.0789 1.9167-0.3323 0.33229-0.56864-0.25833-0.52522-1.3125zm8.921 0.69032c0-0.49116 0.675-1.152 1.5-1.4686 0.91371-0.35062 1.5-0.0016 1.5 0.89301 0 0.80774-0.675 1.4686-1.5 1.4686s-1.5-0.40186-1.5-0.89301zm16.812 0.2099c0.72187-0.28887 1.5844-0.25334 1.9167 0.07895 0.33229 0.33229-0.25834 0.56864-1.3125 0.52522-1.165-0.04798-1.4019-0.28494-0.60417-0.60417zm-49.077-0.91465c-0.32877-0.32877-0.34115-1.2665-0.0275-2.0838 0.46483-1.2113 0.7266-1.2395 1.4158-0.15224 1.4739 2.3252 0.4117 4.0361-1.3883 2.2361zm28.077-0.08535c0.72187-0.28887 1.5844-0.25334 1.9167 0.07895 0.33229 0.33229-0.25834 0.56864-1.3125 0.52522-1.165-0.04798-1.4019-0.28494-0.60417-0.60417zm25.188-2.8169c0.68469-0.825 1.6719-1.5 2.1939-1.5s0.27399 0.675-0.55101 1.5-1.8122 1.5-2.1939 1.5-0.13367-0.675 0.55102-1.5zm10.537 0.56052c-0.31934-0.51671 0.29792-0.8733 1.3717-0.79241 1.0738 0.08088 1.732 0.50365 1.4626 0.93948-0.66452 1.0752-2.1257 0.99941-2.8343-0.14706zm-16.08 66.009c0.31644-0.512 0.19299-1.1672-0.27431-1.456-0.46731-0.28881-0.84965 0.13009-0.84965 0.9309 0 1.6862 0.31534 1.8335 1.124 0.52511z" fill="#fbde45"/>
 <path d="m0 150v-150h300v300h-300zm238 73.5v-14.5l-31.75-0.0894c-27.427-0.0772-31.137-0.26188-27.25-1.3561 5.1105-1.4385 16.141-6.0023 19.652-8.1313 1.2911-0.78272 3.4549-2.097 4.8083-2.9205l2.4608-1.4974-7.4632-12.205c-4.1047-6.7127-7.8236-12.565-8.2641-13.006s-3.9566 0.75367-7.8135 2.6538c-9.0051 4.4363-18.083 5.9516-27.131 4.5286-19.902-3.1303-35.709-18.776-39.306-38.903-3.019-16.893 5.2491-35.603 20.285-45.901l4.7284-3.2386-7.1337-11.717c-3.9235-6.4443-7.6914-12.328-8.3729-13.076-2.8057-3.0765-20.079 12.068-28.85 25.295l-4.5998 6.9361v-33.372h-29v175h175zm-145.99-36.25 0.0095-21.75 4.0407 6.3696c5.9675 9.4069 10.637 14.701 18.278 20.721 7.8744 6.2038 18.795 11.874 27.863 14.466l6.2987 1.8008-56.5 0.14248zm109.74-39.25c5.5121-9.075 15.513-25.453 22.225-36.395 6.7116-10.942 12.437-20.505 12.723-21.25 0.43292-1.1282-7.4465-1.3549-47.087-1.3549-26.184 0-47.607 0.21779-47.607 0.48398 0 0.45989 15.144 25.454 28.487 47.016 3.4035 5.5 9.0251 14.645 12.492 20.323 5.0883 8.3315 6.5397 10.067 7.5246 9 0.67118-0.72743 5.7303-8.7476 11.242-17.823z" fill="#8bbdd6"/>
 <path d="m0 150v-150h300v300h-300zm238 73.5v-14.5l-62.5-0.1626 7-2.2504c7.7144-2.4801 17.787-7.337 21.209-10.227l2.203-1.8603-8-12.914c-4.4-7.1028-7.7735-13.505-7.4965-14.226 0.27694-0.72168 8.0228-13.585 17.213-28.586 16.308-26.619 29.11-47.517 30.031-49.024 0.25212-0.4125-21.216-0.75-47.708-0.75-44.703 0-48.12 0.12082-47.521 1.6806 0.35469 0.9243 4.8339 8.4618 9.9539 16.75 23.785 38.504 36.615 59.764 36.615 60.675 0 1.7349-14.255 7.7816-20.75 8.8018-19.992 3.1403-41.962-9.5906-49.295-28.563-2.8201-7.2973-3.8003-22.184-1.9178-29.127 2.8942-10.673 11.292-22.254 19.876-27.41 1.9726-1.1848 3.7355-2.2625 3.9176-2.3949 0.26376-0.1918-14.189-24.772-15.478-26.323-2.0404-2.456-24.742 18.571-30.134 27.911l-3.175 5.5-0.044122-33.5h-30v175h176zm-145.99-36.25 0.01205-21.75 2.4313 4.2523c9.7667 17.082 25.585 29.993 44.44 36.272l8.6042 2.8654-55.5 0.11031 0.01205-21.75z" fill="#60a2ce"/>
 <path d="m0 150v-150h300v300h-300zm238 74.015v-14.985l-60.5-0.52933 5.5-1.8688c6.0443-2.0538 18.408-7.9195 21.401-10.153 1.8179-1.3568 1.6258-1.8666-4.4104-11.698-3.4711-5.6537-7.1814-11.739-8.2451-13.522l-1.934-3.2425 3.9413-6.2575c2.1677-3.4416 9.6972-15.707 16.732-27.257 7.0351-11.55 15.588-25.5 19.006-31s6.7471-11.012 7.3972-12.25l1.1821-2.25h-96.646l-7.9622-12.986c-4.3792-7.1425-8.4182-12.992-8.9756-13-2.1783-0.029469-12.307 7.6354-18.487 13.99-3.575 3.6761-8.1875 9.5564-10.25 13.067l-3.75 6.3836v-34.508l-29.5 0.55347-0.25812 87c-0.14197 47.85-0.04359 87.562 0.21862 88.25 0.37638 0.98685 18.904 1.25 88.008 1.25h87.531zm-145.94-36.265c0.04658-16.832 0.30647-20.863 1.25-19.39 5.6206 8.7784 7.6147 11.489 11.913 16.192 9.2764 10.15 20.398 17.36 33.115 21.469 3.665 1.184 6.6637 2.3388 6.6637 2.5661 0 0.2273-11.925 0.41328-26.5 0.41328h-26.5l0.05881-21.25zm57.941-12.183c-13.1-3.651-23.785-12.695-29.692-25.133-3.1932-6.7239-3.6754-8.7695-4.0741-17.28-0.52044-11.111 1.424-18.589 7.1695-27.571 4.3977-6.8748 16.423-17.254 17.96-15.501 0.31231 0.35615 17.232 27.905 41.618 67.763 6.879 11.244 6.878 10.456 0.0184 14.083-9.1802 4.855-23.12 6.3921-33 3.6387z" fill="#3189c6"/>
 <path d="m0 150v-150h300v300h-300zm238.5 73.5v-15l-29.5-0.52277c-16.225-0.28752-28.417-0.62502-27.094-0.75 3.2409-0.30604 23.117-10.126 23.731-11.724 0.26789-0.69812-3.0864-7.1447-7.4539-14.326l-7.941-13.056 4.629-7.5445c21.097-34.385 31.781-51.849 32.629-53.335 0.55-0.96391 3.1375-5.1629 5.75-9.3312 2.6125-4.1682 4.75-7.8783 4.75-8.2447s-21.712-0.67359-48.25-0.68279l-48.25-0.01672-5.4565-9.2333c-3.0011-5.0783-6.7434-11.158-8.3164-13.51l-2.8599-4.2767-4.0144 2.2562c-6.398 3.5959-19.154 16.085-23.948 23.447l-4.4046 6.7636-0.27477-16.207-0.27477-16.207h-29.95v177.01l176.5-0.51087zm-146.5-35.5c0-11 0.19242-20 0.4276-20s2.0309 2.6394 3.9906 5.8653c6.078 10.005 18.142 21.051 30.582 28 1.375 0.76807 5.425 2.4532 9 3.7447l6.5 2.3482-50.5 0.04218zm57.5-12.936c-3.3-0.98659-7.575-2.6097-9.5-3.607-5.8306-3.0205-16.363-14.343-19.452-20.91-9.4558-20.108-3.0151-44.218 15.326-57.372 2.4062-1.7257 4.7126-2.9289 5.1253-2.6738 0.41272 0.25507 2.719 3.7068 5.1251 7.6706 2.4061 3.9638 5.2747 8.6721 6.3747 10.463 1.1 1.7909 7.9969 13.068 15.326 25.061 7.3296 11.993 15.066 24.584 17.192 27.98 4.232 6.7598 4.2865 6.5404-2.519 10.13-10.038 5.2951-22.177 6.4936-33 3.258z" fill="#0070b9"/>
</svg>
