<?xml version="1.0" encoding="utf-8"?>
<!-- Created basis logo file shared by HDFC Life Team  -->
<svg version="1.2" baseProfile="tiny-ps" id="Layer_1" xmlns="http://www.w3.org/2000/svg" xmlns:xlink="http://www.w3.org/1999/xlink"
	  viewBox="0 0 100 100" xml:space="preserve">
	  <title>HDFCLIFE</title>
<g>
	<g>
		<path fill-rule="evenodd" fill="#055696" d="M64.03,52.93c1.57,0,2.83-1.11,2.83-2.48c0-1.26-1.26-2.38-2.83-2.38
			c-1.57,0-2.83,1.11-2.83,2.38C61.2,51.82,62.46,52.93,64.03,52.93z"/>
		<path fill-rule="evenodd" fill="#055696" d="M60.49,65.42c0-0.76-0.56-1.36-1.21-1.36c-1.82-0.05-6.62,0-6.62,0
			s0.05-6.57,0.05-10.57l0,0c0-0.76,0.05-2.22,0.05-2.63c-0.05-1.67-2.48-2.17-3.79-2.27c-1.26-0.05-1.21,1.06-1.21,1.06v3.84l0,0
			v12.33c0,1.06,1.16,1.31,1.16,1.31h11.58C60.49,67.14,60.49,66.23,60.49,65.42z"/>
		<path fill-rule="evenodd" fill="#055696" d="M76.47,54.25c-0.56-5.56,2.78-5.26,3.94-5c0.46,0.05,0.51-0.45,0.46-0.56
			c-0.1-0.46-0.3-0.81-0.61-1.06c-1.21-1.01-3.34-0.91-3.34-0.91c-3.94,0-5.21,2.93-5.21,5.31c0,1.26-0.1,2.22-0.1,2.22
			s-0.91,0-1.21,0c-0.66,0-0.96,0.71-0.96,1.06c0,0.66,0,0.91,0,0.91h2.12v6.02c-4.25,3.64-5.11,1.62-5.11,0.66c0-1.57,0-4.6,0-6.52
			c0-1.62-2.33-2.12-3.74-2.22c-1.36-0.05-1.16,1.01-1.16,1.01s0,6.52,0,8.09c0,2.78,1.11,4.15,3.84,4.15
			c2.68,0,5.26-2.12,6.27-3.29c0,0,0,2.17,0,3.84c0.05,0.3,0.05,0.51,0.05,0.61c0.05,1.01,1.06,0.91,1.06,0.91
			c3.79,0,3.69-2.63,3.69-2.63V56.27c0,0,1.21,0,2.33,0c0.51,0,1.31-0.25,1.31-1.11c0-0.56-0.05-0.91-0.05-0.91H76.47z"/>
		<path fill-rule="evenodd" fill="#055696" d="M93.4,63.5c-1.31,0.76-2.88,1.42-5.26,1.42c-2.22,0-3.84-1.26-3.84-3.94
			c0-1.16,0.71-4.15,3.59-4.15c1.11-0.05,1.72,0.71,1.72,1.62c0,1.26-1.36,2.73-4.35,2.88c0.51,1.31,1.87,1.62,3.03,1.62
			c1.72,0,5.86-1.26,5.51-5.11C93.5,54.86,90.72,54,88.4,54c-5.36,0-9.5,3.34-9.1,7.84c0.4,4.9,4.8,5.51,7.68,5.51
			c2.93,0,5.61-1.26,6.57-2.63c0.25-0.25,0.46-0.61,0.46-0.91C94.01,63.45,93.76,63.25,93.4,63.5z"/>
		<polygon fill-rule="evenodd" fill="#E21118" points="55.64,43.23 55.64,38.27 51.7,38.27 51.7,43.23 47.75,43.23 47.75,30.74 
			51.7,30.74 51.7,35.44 55.64,35.44 55.64,30.74 59.58,30.74 59.58,43.23 		"/>
		<path fill-rule="evenodd" fill="#E21118" d="M66.2,43.48c-1.77,0-3.03-0.1-4.7-0.25V30.74c1.67-0.15,2.88-0.2,4.7-0.2
			c4.35,0,6.32,1.67,6.32,5.97v0.96C72.52,41.76,70.6,43.48,66.2,43.48L66.2,43.48z M68.68,36.51L68.68,36.51
			c0-2.63-0.51-3.18-2.38-3.18c-0.3,0-0.61,0-0.96,0v7.38c0.3,0,0.66,0,0.96,0c1.87,0,2.38-0.66,2.38-3.24V36.51z"/>
		<polygon fill-rule="evenodd" fill="#E21118" points="78.08,33.47 78.08,35.65 82.84,35.65 82.84,38.17 78.08,38.17 78.08,43.23 
			74.09,43.23 74.09,30.74 83.19,30.74 83.19,33.47 		"/>
		<path fill-rule="evenodd" fill="#E21118" d="M89.76,43.53c-3.89,0-5.91-1.36-5.91-5.97V36.4c0-4.55,2.02-5.91,5.91-5.91
			c1.01,0,2.98,0.15,3.64,0.35v2.63c-0.86-0.05-2.07-0.1-3.18-0.1c-1.57,0-2.33,0.46-2.33,3.03v1.16c0,2.63,0.76,3.13,2.33,3.13
			c1.11,0,2.33-0.1,3.18-0.15v2.63C92.74,43.38,90.77,43.53,89.76,43.53z"/>
		<polygon fill-rule="evenodd" fill="#AE1918" points="42.39,67.14 42.39,67.14 32.03,56.73 32.03,56.73 16.31,56.73 16.31,41 
			16.31,41 5.94,30.59 5.94,30.59 5.94,67.14 		"/>
		<polygon fill-rule="evenodd" fill="#E21118" points="16.31,41 32.03,41 32.03,56.73 42.39,67.14 42.39,30.59 5.94,30.59 		"/>
	</g>
</g>
</svg>
