<?xml version="1.0" encoding="utf-8"?>
<!-- Generator: Adobe Illustrator 28.7.2, SVG Export Plug-In . SVG Version: 9.03 Build 54978)  -->
<svg version="1.2" baseProfile="tiny-ps" id="Capa_1" xmlns="http://www.w3.org/2000/svg" xmlns:xlink="http://www.w3.org/1999/xlink"
	  viewBox="0 0 523 523" xml:space="preserve">
<title>Banco Unión S.A.</title>
<g>
	<path fill="#FFDD00" d="M327.2,380.6c0.3,0,0.6,0.2,0.9,0.2c-0.5,0-1-0.3-1.5-0.5C326.9,380.4,327.1,380.4,327.2,380.6L327.2,380.6
		z"/>
	<path fill="#FFDD00" d="M324.8,379.7c-0.2,0-0.5,0-0.7-0.2C324.3,379.5,324.5,379.5,324.8,379.7z"/>
	<path fill="#FFDD00" d="M318.2,377.3c0,0,0.2,0,0.5,0c-0.2,0-0.5-0.2-0.7-0.2c0,0,0.2,0,0.3,0h-0.1L318.2,377.3z"/>
	<path fill="#FFDD00" d="M322.8,379c-0.3,0-0.7-0.2-1-0.3C322.2,378.7,322.5,378.9,322.8,379z"/>
	<path fill="#FFDD00" d="M314.7,376c0.3,0,0.7,0.2,1,0.5c-0.7-0.2-1.4-0.6-2-0.8c0.3,0,0.7,0.2,1,0.5l0,0V376z"/>
	<path fill="#FFDD00" d="M302.4,370.5h-0.2H302.4z"/>
	<path fill="#FFDD00" d="M336.1,383.2c0.8,0.2,1.7,0.5,2.5,0.7c0.3,0,0.8,0.2,1.2,0.3c1.2,0.3,2.5,0.6,3.7,0.9
		c-2.7-0.6-5.3-1.2-7.9-2c0.2,0,0.3,0,0.6,0l0,0L336.1,383.2z"/>
	<path fill="#FFDD00" d="M332.4,382.2c0.2,0,0.6,0,0.8,0.2c-0.7-0.2-1.4-0.3-2-0.6c0.3,0,0.8,0.2,1.1,0.3H332.4L332.4,382.2z"/>
	<path fill="#FFDD00" d="M376.6,292.6c16.5,0,33,1.8,49.1,5v-0.2c-15.7-3.2-31.9-4.9-48.5-4.9s-0.5,0-0.7,0l0,0V292.6z"/>
	<path fill="#FFDD00" d="M343.4,385c-0.3-3.7-0.8-7.5-1.5-11.2c0.6,3.7,1,7.5,1.4,11.2c0.7,6.9,1,13.9,1,21s-0.3,13-0.9,19.4l0,0
		c1.2-13.2,1.1-26.8-0.2-40.4h0.1L343.4,385z"/>
	<path fill="#FFDD00" d="M343.4,385c21.1,5.1,43.2,6,64.6,3.3C386.4,391.1,364.4,390.2,343.4,385z"/>
	<path fill="#FFDD00" d="M296.6,367.5L296.6,367.5c0,0-0.2,0-0.3,0h0.2H296.6z"/>
	<path fill="#FFDD00" d="M197.9,204.3c-0.5-39.9,11.6-76.9,32.5-107.5H97.3v99.6c29.9-4,63.6-1.9,100.7,7.8l0,0V204.3z"/>
	<path fill="#FFDD00" d="M328.5,325.3c0.3,0.8,0.7,1.6,0.9,2.4C329.1,326.8,328.7,326.1,328.5,325.3z"/>
	<path fill="#FFDD00" d="M293.5,365.7h-0.2H293.5z"/>
	<path fill="#FFDD00" d="M330.6,330.6c0,0.3,0.2,0.7,0.3,1C331,331.3,330.7,330.9,330.6,330.6z"/>
	<path fill="#FFDD00" d="M316.3,300.4c4.4,7.6,8.2,15.5,11.6,23.6C324.5,315.9,320.6,308.1,316.3,300.4
		c-21.5,5.5-41.7,13.9-60.4,24.6C274.6,314.3,294.9,306,316.3,300.4z"/>
	<path fill="#FFDD00" d="M341.1,368.4v0.2V368.4z"/>
	<path fill="#FFDD00" d="M239.6,320.3c-24.9-30.6-40.2-69.2-41.7-111.5C199.4,251.1,214.7,289.7,239.6,320.3z"/>
	<path fill="#FFDD00" d="M197.9,204.3c26.4,8.6,50.6,22.1,71.3,39.8C248.4,226.5,224.3,212.9,197.9,204.3z"/>
	<path fill="#FFDD00" d="M261.5,343.1c0,0-0.2-0.2-0.3-0.3C261.2,342.8,261.4,343,261.5,343.1z"/>
	<path fill="#FFDD00" d="M268.8,349.2c0.2,0.2,0.6,0.5,0.8,0.7c-0.3-0.2-0.6-0.5-0.9-0.7H268.8L268.8,349.2z"/>
	<path fill="#FFDD00" d="M255.2,337.2c0.3,0.3,0.6,0.6,0.9,0.8c-0.3-0.3-0.7-0.6-0.9-0.9l0,0V337.2z"/>
	<path fill="#FFDD00" d="M180.6,392.4c18.2-24.9,41.1-46.1,67.2-62.6l0,0C221.4,345.5,198.7,367.1,180.6,392.4z"/>
	<path fill="#FFDD00" d="M252,334.1c-0.5-0.5-0.8-0.8-1.2-1.2C251.2,333.3,251.6,333.6,252,334.1z"/>
	<path fill="#00AEEF" d="M269.2,244c18.8,15.8,34.8,34.9,47.1,56.4c19.4-5.3,39.9-7.8,60.3-7.7h0.7c16.6,0,32.9,1.7,48.5,4.9V97
		H230.4c-20.9,30.6-33,67.7-32.5,107.5c26.4,8.6,50.6,22.1,71.3,39.8L269.2,244L269.2,244z"/>
	<path fill="#C40D42" d="M247.9,329.8c-2.8-3-5.6-6.2-8.2-9.5c-24.9-30.6-40.2-69.2-41.7-111.5v-4.5c-37.1-9.7-70.6-11.9-100.7-7.8
		v229h62.9c6-11.6,12.8-22.6,20.4-33.1C198.8,367.1,221.5,345.5,247.9,329.8L247.9,329.8L247.9,329.8z"/>
	<path fill="#FFDD00" d="M425.7,385.1c-5.9,1.4-11.7,2.4-17.7,3.2c-21.6,2.8-43.6,1.9-64.6-3.3c1.5,13.7,1.5,27.2,0.2,40.4h82.1
		V385.1L425.7,385.1L425.7,385.1z"/>
	<path fill="#F58220" d="M343.4,385c-1.2-0.2-2.5-0.6-3.7-0.9c-0.5,0-0.8-0.2-1.2-0.3c-0.8-0.2-1.7-0.5-2.5-0.7c-0.2,0-0.3,0-0.6,0
		c-0.7-0.2-1.5-0.5-2.1-0.6c-0.2,0-0.6,0-0.8-0.2c-0.5,0-0.8-0.2-1.1-0.3c-1-0.3-2.1-0.7-3.2-1c-0.3,0-0.6-0.2-0.9-0.2
		c-0.3,0-0.5,0-0.6-0.2c-0.7-0.2-1.2-0.5-1.9-0.7c-0.2,0-0.5,0-0.7-0.2c-0.5,0-0.8-0.2-1.2-0.5c-0.3,0-0.7-0.2-1-0.3
		c-1.1-0.3-2.1-0.8-3.3-1.2c0,0-0.2,0-0.5,0c0,0-0.2,0-0.3,0c-0.8-0.3-1.5-0.6-2.3-0.9c-0.3,0-0.7-0.2-1-0.5c-0.3,0-0.7-0.2-1-0.5
		c-3.8-1.6-7.6-3.3-11.2-5.1h-0.2c-1.8-0.9-3.6-1.8-5.3-2.7h-0.2c-1-0.6-1.9-1.1-2.9-1.6l0,0c-8.4-4.7-16.3-10.1-23.7-15.9
		c-0.2-0.2-0.6-0.5-0.8-0.7l0,0c-2.5-1.9-4.9-4-7.1-6c0,0-0.2-0.2-0.3-0.3c-1.7-1.6-3.5-3.2-5.1-4.7c-0.3-0.2-0.6-0.6-0.9-0.8l0,0
		c-1-1-2.1-2-3.2-3c-1-1-0.8-0.8-1.2-1.2c-1-1-1.9-2-2.9-3c-26.2,16.5-49,37.7-67.2,62.6c-7.7,10.4-14.5,21.5-20.4,33.1H344
		c0.6-6.4,0.9-12.9,0.9-19.4s-0.3-14.1-1-21l-0.5-0.3V385z"/>
	<path fill="#008151" d="M316.3,300.3c4.4,7.6,8.2,15.5,11.6,23.6c0.2,0.5,0.3,0.8,0.6,1.2c0.3,0.8,0.7,1.6,0.9,2.4
		c0.3,1,0.8,1.9,1.1,2.9c0,0.3,0.2,0.7,0.3,1c4.4,11.9,7.9,24.2,10.2,36.8v0.2c0.3,1.7,0.6,3.5,0.9,5.2c0.6,3.7,1,7.5,1.5,11.2
		c21.1,5.1,43.2,6,64.6,3.3c6-0.8,11.9-1.8,17.7-3.2v-87.4c-16.2-3.3-32.6-5-49.1-5C360.1,292.6,335.7,295,316.3,300.3L316.3,300.3
		L316.3,300.3z"/>
	<path fill="#007EC6" d="M316.3,300.3c-12.3-21.5-28.4-40.4-47.1-56.4c-20.8-17.5-45-31.2-71.3-39.8v4.5
		c1.5,42.2,16.8,80.8,41.7,111.5c2.6,3.3,5.4,6.4,8.2,9.5l0,0c2.6-1.7,5.3-3.3,7.9-4.7c18.8-10.7,39.1-19.1,60.4-24.6l0,0H316.3z"/>
	<path fill="#0072B4" d="M341.1,368.4c-2.3-12.7-5.6-25-10.2-36.8c0-0.3-0.2-0.7-0.3-1c-0.3-1-0.8-1.9-1.1-2.9
		c-0.3-0.8-0.7-1.6-0.9-2.4c-0.2-0.5-0.3-0.8-0.6-1.2c-3.4-8.1-7.3-16-11.6-23.6c-21.5,5.5-41.7,13.9-60.4,24.6
		c-2.7,1.6-5.3,3.2-7.9,4.7c0.9,1,1.9,2,2.9,3c1,1,0.8,0.8,1.2,1.2c1,1,2,2,3.2,3c0.3,0.3,0.7,0.6,0.9,0.9c1.7,1.6,3.4,3.2,5.1,4.7
		c0,0,0.2,0.2,0.3,0.3c2.4,2,4.7,4.1,7.1,6c0.3,0.2,0.6,0.5,0.9,0.7c7.5,5.9,15.4,11.2,23.7,15.9h0.2c1,0.6,1.9,1.1,2.9,1.6
		c0,0,0.2,0,0.3,0c1.8,0.9,3.5,1.9,5.3,2.7h0.2c3.7,1.8,7.5,3.5,11.2,5.1c0.7,0.2,1.4,0.6,2,0.8c0.8,0.3,1.5,0.6,2.3,0.9
		c0.2,0,0.5,0.2,0.7,0.2c1.1,0.5,2.1,0.8,3.3,1.2c0.3,0,0.7,0.2,1,0.3c0.5,0,0.8,0.2,1.2,0.5c0.2,0,0.5,0,0.7,0.2
		c0.7,0.2,1.2,0.5,1.9,0.7c0.5,0,1,0.3,1.5,0.5c1,0.3,2.1,0.7,3.2,1c0.7,0.2,1.4,0.5,2,0.6c0.7,0.2,1.5,0.5,2.1,0.6
		c2.6,0.7,5.3,1.4,7.9,2c-0.3-3.7-0.8-7.6-1.4-11.2c-0.2-1.7-0.6-3.5-0.9-5.2V368v0.2L341.1,368.4z"/>
</g>
</svg>
