<?xml version="1.0" encoding="utf-8"?>
<!-- Generator: Adobe Illustrator 27.8.1, SVG Export Plug-In . SVG Version: 6.00 Build 0)  -->
<svg version="1.2" baseProfile="tiny-ps" id="Ebene_1" xmlns="http://www.w3.org/2000/svg" viewBox="0 0 150 150" xml:space="preserve">
  <title>TOYOTA</title>
  <rect fill="#ffffff" width="150" height="150"/>
  <path fill="#282830" d="M75,42.1c-28.1,0-50.9,14.7-50.9,32.9s22.8,32.9,50.9,32.9s50.9-14.7,50.9-32.9S103.1,42.1,75,42.1z
	 M75,93.8c-4.2,0-7.6-8.2-7.8-18.6c2.5,0.2,5.1,0.3,7.8,0.3s5.3-0.1,7.8-0.3C82.6,85.6,79.2,93.8,75,93.8z M67.7,67
	c1.1-7.3,4-12.5,7.3-12.5s6.2,5.2,7.3,12.5c-2.3,0.2-4.8,0.3-7.3,0.3S70,67.2,67.7,67z M75,46.8c-5.5,0-10.1,8.2-11.8,19.6
	c-10.3-1.6-17.6-5.3-17.6-9.6c0-5.8,13.2-10.4,29.4-10.4s29.4,4.7,29.4,10.4c0,4.3-7.2,7.9-17.6,9.6C85.1,55,80.5,46.8,75,46.8z
	 M31.4,73.8c0-5.6,2.2-10.8,5.9-15.3c0,0.3-0.1,0.6-0.1,1c0,7,10.5,13,25.2,15.2c0,0.5,0,1,0,1.5c0,13.1,3.7,24.2,8.8,28
	C48.9,102.8,31.4,89.7,31.4,73.8z M78.8,104.1c5.1-3.8,8.8-14.9,8.8-28c0-0.5,0-1,0-1.5c14.7-2.2,25.2-8.2,25.2-15.2
	c0-0.3,0-0.6-0.1-1c3.7,4.5,5.9,9.7,5.9,15.3C118.6,89.7,101.1,102.8,78.8,104.1z"/>
</svg>
