<?xml version="1.0" encoding="utf-8"?>
<!-- Generator: Adobe Illustrator 28.5.0, SVG Export Plug-In . SVG Version: 9.03 Build 54727)  -->
<svg version="1.2" baseProfile="tiny-ps" id="Ebene_1" xmlns="http://www.w3.org/2000/svg" viewBox="0 0 150 150" xml:space="preserve">
  <title>LEXUS</title>
  <rect fill="#231F20" width="150" height="150"/>
  <path fill="#FFFFFF" d="M98.7,41.8l-2.2,3.4c15,6.2,21,17.3,21,29.3c0,6-1.6,11.4-4.8,11.4c-10.4,0-32.6,0-39.3,0
					c-5.4,0-6.9-1.9-4.5-6.7c4.3-8.5,17.2-24.7,25.1-34.4c1.2-1.4,2.1-3.7-2.1-4.8c-4.3-1.1-11.1-1.6-17-1.6
					c-29.5,0-50.1,16-50.1,36.5c0,18.9,17.8,36.6,50,36.6c14.2,0,31.7-4,41.6-15.2h-8.5c-9.6,8.7-22.2,10.7-33,10.7
					c-26,0-42.4-13.5-42.4-32.1c0-17.2,18.6-32.6,42.1-32.6c2.8,0,3.7,0.6,0.8,4.3c-6,7.5-16.7,22.2-21.8,30.9
					c-5.4,9.3,0.1,16.8,12.2,16.8c8.6,0,39.3,0,49.1,0c3,0,4.8-1.7,6.5-4.9c1.4-2.5,3.6-7.6,3.6-14.5C125.1,61,114.7,48.2,98.7,41.8
					z"/>
</svg>
