<?xml version="1.0"?><svg version="1.2" baseProfile="tiny-ps" viewBox="0 0 300 300" xmlns="http://www.w3.org/2000/svg" xmlns:xlink="http://www.w3.org/1999/xlink"><title>P/S</title><g><g fill="#0c1020" transform="matrix(.1 0 0 -.1 0 300)"><path d="M1762 2052c-106-158-360-534-564-835-203-302-368-551-365-553 5-5 88 116 499 726 91 135 269 400 397 588 128 189 231 348 229 353-2 4-90-121-196-279zM100 1501v-491h180v961l268-3 267-3 41-22 42-22 41-47 41-47 10-36c5-20 10-58 10-86v-50l-19-40c-10-22-33-56-52-74l-34-34-55-26-55-26-215-6-215-5 260-2 261-2 57 15c74 19 128 47 176 91l39 34 22 52 22 52-6 50-6 50-27 45-28 45-47 33c-26 19-73 44-105 56l-58 22-407 3-408 3v-490zm2065 473c-82-18-156-52-207-94l-36-30-21-43-21-43v-113l11-28c5-15 25-43 42-61l32-34 55-28c75-38 174-64 381-99 192-33 253-50 310-88l37-25 17-41 16-41-5-32-6-32-25-26-25-27-53-24-52-24-65-10c-36-6-111-11-166-11h-101l-87 15c-47 8-116 25-153 37l-67 22-43 41c-48 46-63 48-32 4l20-28 62-31 63-31 100-21 99-21 150-1h150l65 17c88 24 159 58 204 97l37 33 20 40 21 40 5 53 6 54-17 43-16 43-33 31c-72 70-177 104-467 154l-185 31-53 20-53 20-40 37-39 38v76l20 31 19 32 38 21c21 12 65 29 98 39l60 18 120-1h120l87-21 88-22 59-29 59-30 21-27 21-27v31l-32 28c-40 33-112 66-198 89l-65 17-140 4-140 4-70-16z"/></g></g></svg>