<?xml version="1.0" encoding="utf-8"?>
<!-- Generator: Adobe Illustrator 22.1.0, SVG Export Plug-In . SVG Version: 6.00 Build 0)  -->
<svg version="1.2" baseProfile="tiny-ps" id="design"
	 xmlns="http://www.w3.org/2000/svg" xmlns:xlink="http://www.w3.org/1999/xlink" width="400px" height="400px"
	 viewBox="0 0 400 400" xml:space="preserve">
<title>Smartcat</title>
<g id="design">
		<rect id="background" fill="#FFFFFF" width="400" height="400"/>
		<path id="sc-logo" fill="#231D33" d="M67.7,206.2c1-2.4,1.4-5,1.4-7.6c0-10.6-6.9-16.8-16.6-19.3l-3.3-0.9
			c-2.3-0.6-4.8-1.3-4.8-4.2c0-1,0.4-1.9,1.1-2.6c0.7-0.7,1.7-1.1,2.6-1.1h13.8v-10H47.9c-2.6,0-5.1,0.7-7.2,2.1
			c-2.2,1.4-3.9,3.3-5,5.6c-1.1,2.3-1.6,4.9-1.3,7.4c0.3,2.5,1.2,5,2.8,7c2.5,3.3,5.3,4.2,9,5.4l0.2,0.1l4.4,1.1
			c5,1.3,8.4,4.1,8.4,9.6c0,1.3-0.2,2.6-0.6,3.8c-0.5,1.2-1.2,2.3-2.1,3.2c-0.9,0.9-2,1.7-3.1,2.2c-1.2,0.5-2.5,0.8-3.7,0.8
			c-1.3,0-2.6-0.3-3.7-0.8c-1.2-0.5-2.3-1.2-3.1-2.2c-0.9-0.9-1.6-2-2.1-3.2c-0.5-1.2-0.7-2.5-0.6-3.8v-0.4h-10v0.4
			c-0.1,2.6,0.4,5.2,1.4,7.6c1,2.4,2.4,4.6,4.2,6.5c1.8,1.9,4,3.4,6.4,4.4c2.4,1,5,1.5,7.6,1.5c2.6,0,5.2-0.5,7.6-1.5
			c2.4-1,4.6-2.5,6.4-4.4C65.3,210.8,66.7,208.6,67.7,206.2z M190.8,218.1v-27.3c0-1.9,0.4-3.8,1.1-5.6c0.7-1.8,1.8-3.4,3.2-4.7
			c1.4-1.4,3-2.4,4.7-3.2c1.8-0.7,3.7-1.1,5.6-1.1h9.7v9.9h-9.7c-0.6,0-1.2,0.1-1.7,0.3s-1.1,0.6-1.5,1c-0.4,0.4-0.8,0.9-1,1.5
			s-0.3,1.1-0.3,1.7v27.5H190.8z M75.7,218.1v-27.8c0-1.9,0.4-3.8,1.1-5.6c0.7-1.8,1.8-3.4,3.2-4.7c1.4-1.4,3-2.4,4.7-3.2
			c1.8-0.7,3.7-1.1,5.6-1.1h5.1c1.1,0,2.2,0.1,3.3,0.4c2.3,0.5,4.5,1.6,6.3,3.2c1.7-1.5,3.6-2.5,5.8-3.1c1.3-0.4,2.7-0.5,4.1-0.5
			h4.8c1.2,0,2.4,0.2,3.6,0.4c2.4,0.6,4.6,1.8,6.4,3.5c1.8,1.7,3.1,3.8,3.9,6.1c0.6,1.9,0.8,3.8,0.7,5.8v26.6h-10v-28.5
			c0-0.6-0.1-1.2-0.3-1.7c-0.2-0.6-0.6-1.1-1-1.5c-0.4-0.4-0.9-0.8-1.5-1c-0.6-0.2-1.1-0.3-1.7-0.3h-5.2c-0.6,0-1.2,0.1-1.8,0.3
			c-0.6,0.2-1.1,0.6-1.5,1c-0.4,0.4-0.8,0.9-1,1.5c-0.2,0.6-0.3,1.2-0.3,1.8v28.5h-10v-28.4c0-0.6-0.1-1.2-0.3-1.7
			c-0.2-0.6-0.6-1.1-1-1.5c-0.4-0.4-0.9-0.8-1.5-1c-0.6-0.2-1.1-0.3-1.7-0.3h-5.2c-0.6,0-1.2,0.1-1.7,0.3c-0.5,0.2-1,0.6-1.5,1
			c-0.5,0.5-0.9,1.1-1.1,1.8c-0.2,0.7-0.3,1.4-0.2,2.1v27.7H75.7z M231.6,165.8h-10l0,37.7c0,3.9,1.5,7.6,4.3,10.3
			c2.7,2.7,6.4,4.3,10.3,4.3h10v-10h-10c-0.6,0-1.2-0.1-1.7-0.3c-0.6-0.2-1.1-0.6-1.5-1c-0.4-0.4-0.8-0.9-1-1.5
			c-0.2-0.6-0.3-1.1-0.3-1.7v-17.4h13.5v-9.9h-13.5V165.8z M355.5,165.8h-10v37.7c0,3.9,1.5,7.6,4.3,10.3c2.7,2.7,6.4,4.3,10.3,4.3
			h10v-10h-10c-0.6,0-1.2-0.1-1.7-0.3s-1.1-0.6-1.5-1c-0.4-0.4-0.8-0.9-1-1.5c-0.2-0.6-0.3-1.1-0.3-1.7v-17.4H369v-9.9h-13.5V165.8z
			 M291.1,208.1c-2.1,3.8-5.2,6.8-8.9,8.7c-3.7,1.9-7.9,2.6-12,2.1c-4.1-0.6-8-2.4-11.1-5.3c-3.1-2.9-5.3-6.6-6.4-10.8
			c-1.1-4.2-0.9-8.6,0.4-12.7c1.3-4.1,3.8-7.7,7.1-10.3c3.3-2.6,7.2-4.2,11.4-4.5c4.1-0.3,8.3,0.7,11.8,2.9c3.2,1.9,5.8,4.7,7.7,8
			l-8.7,5.3c-1-1.7-2.3-3.4-4-4.4c-1.9-1.1-4-1.6-6.2-1.5c-2.2,0.1-4.2,1-5.9,2.3c-1.7,1.4-3,3.5-3.7,5.6c-0.7,2.1-0.8,4.4-0.2,6.6
			c0.6,2.2,1.7,4.4,3.3,5.9c1.6,1.5,3.6,2.4,5.8,2.7c2.1,0.3,4.3-0.1,6.2-1.1c1.9-1,3.5-2.8,4.6-4.7L291.1,208.1z M161.8,175.3
			c-11.6,0-21.3,9.1-21.3,21.8c0,12.8,9.6,21.8,21.3,21.8c4.2,0,8-2,10.9-5.2v4.4h10v-42h-10v4.3C169.8,177.2,166,175.3,161.8,175.3
			z M151,197.1c0-6.7,4.7-12.3,10.8-12.3c6.1,0,11.3,5.6,11.3,12.3c0,6.7-5.2,12.2-11.3,12.2C155.7,209.3,151,203.8,151,197.1z
			 M295.1,197.1c0-12.8,9.6-21.8,21.3-21.8c4.2,0,8,2,10.9,5.2v-4.3h10v42h-10v-4.4c-3,3.2-6.8,5.2-10.9,5.2
			C304.7,218.9,295.1,209.8,295.1,197.1z M316.3,184.8c-6.1,0-10.8,5.6-10.8,12.3c0,6.7,4.7,12.2,10.8,12.2
			c6.1,0,11.3-5.6,11.3-12.2C327.6,190.4,322.4,184.8,316.3,184.8z"/>
</g>
</svg>
