<?xml version="1.0" encoding="utf-8"?>
<svg version="1.2" baseProfile="tiny-ps" width="200" height="200" viewBox="0 0 200 200" fill="none" xmlns="http://www.w3.org/2000/svg" xml:space="preserve">
<title>Swyfxt</title>
<rect width="200" height="200" fill="#1333D4"/>
<path d="M102.076 125.534C98.4527 137.224 82.6543 162.884 75.9509 171.208L73.4144 174.646C73.4144 174.646 70.9867 178.265 79.3569 173.669C85.5169 170.376 118.781 148.009 128.781 115.473C128.781 115.473 139.145 113.591 144 105.013C144 105.013 140.992 99.9462 131.173 98.5347C131.173 98.5347 132.441 84.6371 127.803 75.7701C125.991 72.2957 100.989 36.7915 76.0233 24.0519C75.5523 23.8348 75.0812 24.3415 75.3349 24.7758C78.6322 30.5303 90.6622 51.7025 98.7788 69.2193C98.7788 69.2193 108.091 87.1343 105.881 96.2546C101.895 112.758 57 111.238 57 111.238L76.3857 116.667C76.3857 116.667 59.8626 127.307 59.9713 127.307L86.2778 119.671C86.2778 119.671 112.331 118.621 127.803 115.69L102.076 125.534Z" fill="#ffffff"/>
</svg>
