<?xml version="1.0" encoding="UTF-8"?>
<svg id="Layer_1" xmlns="http://www.w3.org/2000/svg" baseProfile="tiny-ps" version="1.2" viewBox="0 0 1080 1080">
<title>pass_by</title>
  <!-- Generator: Adobe Illustrator 29.1.0, SVG Export Plug-In . SVG Version: 2.1.0 Build 142)  -->
  <rect y="-26.83" width="1094" height="1094" fill="#fff"/>
  <g>
    <path d="M222.93,712.52c-2.78-2.91-6.06-5.16-9.83-6.77-3.77-1.61-7.82-2.41-12.15-2.41s-8.35.83-12.06,2.5c-3.71,1.67-6.96,3.99-9.74,6.96s-4.98,6.53-6.59,10.67c-1.61,4.15-2.41,8.69-2.41,13.64v2.23c0,5.07.8,9.68,2.41,13.82,1.61,4.15,3.8,7.7,6.59,10.67s6.03,5.26,9.74,6.87c3.71,1.61,7.73,2.41,12.06,2.41s8.53-.77,12.25-2.32c3.71-1.55,6.96-3.74,9.74-6.59,2.78-2.84,4.95-6.31,6.49-10.39,1.54-4.08,2.32-8.66,2.32-13.73v-3.71c0-4.95-.77-9.43-2.32-13.45-1.55-4.02-3.71-7.48-6.49-10.39Z" fill="none"/>
    <path d="M330.92,712.8c-2.66-2.97-5.82-5.29-9.46-6.96-3.65-1.67-7.58-2.5-11.78-2.5s-8.29.81-11.87,2.41c-3.59,1.61-6.71,3.87-9.37,6.77-2.66,2.91-4.73,6.43-6.22,10.58-1.48,4.15-2.23,8.69-2.23,13.64v2.97c0,10.51,2.75,18.71,8.26,24.58,5.5,5.88,12.65,8.81,21.43,8.81,4.33,0,8.32-.8,11.97-2.41,3.65-1.61,6.77-3.9,9.37-6.87,2.6-2.97,4.64-6.52,6.12-10.67,1.48-4.14,2.23-8.75,2.23-13.82v-2.23c0-4.95-.74-9.49-2.23-13.64-1.48-4.14-3.56-7.7-6.22-10.67Z" fill="none"/>
    <path d="M790.69,712.52c-2.78-2.91-6.06-5.16-9.83-6.77-3.77-1.61-7.82-2.41-12.15-2.41s-8.35.83-12.06,2.5-6.96,3.99-9.74,6.96-4.98,6.53-6.59,10.67c-1.61,4.15-2.41,8.69-2.41,13.64v2.23c0,5.07.8,9.68,2.41,13.82,1.61,4.15,3.8,7.7,6.59,10.67s6.03,5.26,9.74,6.87c3.71,1.61,7.73,2.41,12.06,2.41s8.54-.77,12.25-2.32c3.71-1.55,6.96-3.74,9.74-6.59,2.78-2.84,4.95-6.31,6.49-10.39,1.54-4.08,2.32-8.66,2.32-13.73v-3.71c0-4.95-.77-9.43-2.32-13.45-1.55-4.02-3.71-7.48-6.49-10.39Z" fill="none"/>
    <path d="M0,65v1080.17h1080.17V65H0ZM246.59,740.07c0,7.55-1.11,14.23-3.34,20.04-2.23,5.82-5.29,10.7-9.18,14.66-3.9,3.96-8.44,6.96-13.64,9-5.19,2.04-10.7,3.06-16.51,3.06-2.97,0-6-.34-9.09-1.02-3.09-.68-6.03-1.73-8.81-3.15-2.78-1.42-5.35-3.15-7.7-5.2-2.35-2.04-4.33-4.48-5.94-7.33h-2.23v51.21h-14.47v-129.14h14.47v14.47h2.23c3.21-5.57,7.67-9.8,13.36-12.71,5.69-2.9,11.87-4.36,18.55-4.36,5.69,0,11.07,1.05,16.14,3.15,5.07,2.11,9.56,5.13,13.45,9.09,3.9,3.96,6.99,8.84,9.28,14.66,2.29,5.82,3.43,12.43,3.43,19.85v3.71ZM363.48,784.23h-9.83c-4.21,0-7.64-1.36-10.3-4.08-2.66-2.72-3.99-6.18-3.99-10.39v-1.11h-2.23c-2.97,6.19-7.08,10.76-12.34,13.73-5.26,2.97-10.79,4.45-16.61,4.45s-11.69-1.02-16.88-3.06c-5.19-2.04-9.74-5.07-13.64-9.09-3.9-4.02-6.96-8.93-9.18-14.75-2.23-5.81-3.34-12.55-3.34-20.22v-2.97c0-7.54,1.11-14.22,3.34-20.04,2.23-5.81,5.29-10.73,9.18-14.75,3.9-4.02,8.44-7.08,13.64-9.18,5.2-2.1,10.7-3.15,16.51-3.15,6.31,0,12.03,1.39,17.16,4.17,5.13,2.78,9.18,7.08,12.15,12.9h2.23v-14.47h14.47v73.1c0,3.71,1.67,5.57,5.01,5.57h4.64v13.36ZM464.6,758.26c0,4.45-.9,8.44-2.69,11.97-1.79,3.52-4.27,6.53-7.42,9-3.15,2.48-6.99,4.36-11.5,5.66-4.52,1.3-9.43,1.95-14.75,1.95-7.18,0-13.33-.96-18.46-2.88-5.13-1.92-9.4-4.45-12.8-7.61-3.4-3.15-5.97-6.74-7.7-10.76-1.73-4.02-2.72-8.07-2.97-12.15l13.73-3.34c.62,7.05,3.34,12.71,8.16,16.98,4.82,4.27,11.25,6.4,19.3,6.4,6.8,0,12.27-1.33,16.42-3.99,4.14-2.66,6.22-6.4,6.22-11.23,0-5.2-2.04-8.91-6.12-11.13-4.08-2.23-10.7-3.65-19.85-4.27-10.64-.74-18.8-3.22-24.49-7.42-5.69-4.2-8.54-10.33-8.54-18.37v-1.11c0-4.33.93-8.13,2.78-11.41,1.86-3.28,4.36-6.03,7.51-8.26,3.15-2.23,6.71-3.9,10.67-5.01,3.96-1.11,8.1-1.67,12.43-1.67,6.06,0,11.38.83,15.96,2.5,4.57,1.67,8.41,3.84,11.5,6.49,3.09,2.66,5.47,5.72,7.14,9.18,1.67,3.46,2.75,6.93,3.25,10.39l-13.73,3.34c-.62-5.94-3-10.58-7.14-13.92-4.15-3.34-9.56-5.01-16.23-5.01-2.6,0-5.1.28-7.51.83-2.41.56-4.55,1.39-6.4,2.5s-3.34,2.5-4.45,4.17-1.67,3.62-1.67,5.84c0,4.45,1.88,7.86,5.66,10.2,3.77,2.35,10.67,3.9,20.69,4.64,10.76.87,18.95,3.43,24.58,7.7,5.63,4.27,8.44,10.48,8.44,18.65v1.11ZM578.15,758.26c0,4.45-.9,8.44-2.69,11.97-1.79,3.52-4.27,6.53-7.42,9-3.15,2.48-6.99,4.36-11.5,5.66-4.52,1.3-9.43,1.95-14.75,1.95-7.18,0-13.33-.96-18.46-2.88-5.13-1.92-9.4-4.45-12.8-7.61-3.4-3.15-5.97-6.74-7.7-10.76-1.73-4.02-2.72-8.07-2.97-12.15l13.73-3.34c.62,7.05,3.34,12.71,8.16,16.98,4.82,4.27,11.25,6.4,19.3,6.4,6.8,0,12.27-1.33,16.42-3.99,4.14-2.66,6.22-6.4,6.22-11.23,0-5.2-2.04-8.91-6.12-11.13s-10.7-3.65-19.85-4.27c-10.64-.74-18.8-3.22-24.49-7.42-5.69-4.2-8.54-10.33-8.54-18.37v-1.11c0-4.33.93-8.13,2.78-11.41,1.86-3.28,4.36-6.03,7.51-8.26,3.15-2.23,6.71-3.9,10.67-5.01,3.96-1.11,8.1-1.67,12.43-1.67,6.06,0,11.38.83,15.96,2.5,4.58,1.67,8.41,3.84,11.5,6.49,3.09,2.66,5.47,5.72,7.14,9.18,1.67,3.46,2.75,6.93,3.25,10.39l-13.73,3.34c-.62-5.94-3-10.58-7.14-13.92-4.15-3.34-9.55-5.01-16.23-5.01-2.6,0-5.1.28-7.51.83-2.41.56-4.55,1.39-6.4,2.5s-3.34,2.5-4.45,4.17-1.67,3.62-1.67,5.84c0,4.45,1.88,7.86,5.66,10.2,3.77,2.35,10.67,3.9,20.69,4.64,10.76.87,18.95,3.43,24.58,7.7,5.63,4.27,8.44,10.48,8.44,18.65v1.11ZM697.08,806.5h-86.46v-13.36h86.46v13.36ZM814.34,740.07c0,7.55-1.11,14.23-3.34,20.04-2.23,5.82-5.29,10.7-9.18,14.66-3.9,3.96-8.44,6.96-13.64,9s-10.7,3.06-16.51,3.06c-2.97,0-6-.34-9.09-1.02-3.09-.68-6.03-1.73-8.81-3.15-2.78-1.42-5.35-3.15-7.7-5.2-2.35-2.04-4.33-4.48-5.94-7.33h-2.23v14.1h-14.47v-129.88h14.47v52.32h2.23c3.21-5.57,7.67-9.8,13.36-12.71,5.69-2.9,11.88-4.36,18.55-4.36,5.69,0,11.07,1.05,16.14,3.15,5.07,2.11,9.56,5.13,13.45,9.09,3.9,3.96,6.99,8.84,9.28,14.66,2.29,5.82,3.43,12.43,3.43,19.85v3.71ZM921.58,806.87c0,4.2-1.33,7.67-3.99,10.39-2.66,2.72-6.09,4.08-10.3,4.08h-52.51v-13.36h47.31c3.34,0,5.01-1.86,5.01-5.57v-34.88h-2.23c-2.97,5.94-6.87,10.64-11.69,14.1-4.82,3.46-10.95,5.2-18.37,5.2-5.07,0-9.74-.83-14.01-2.5-4.27-1.67-7.92-4.17-10.95-7.51-3.03-3.34-5.38-7.48-7.05-12.43-1.67-4.95-2.5-10.7-2.5-17.26v-54.92h14.47v53.06c0,9.65,1.98,16.7,5.94,21.15,3.96,4.45,10.02,6.68,18.18,6.68,8.78,0,15.68-3,20.69-9,5.01-6,7.51-14.01,7.51-24.03v-47.87h14.47v114.66Z" fill="none"/>
    <path d="M353.83,765.31v-73.1h-14.47v14.47h-2.23c-2.97-5.81-7.02-10.11-12.15-12.9-5.13-2.78-10.85-4.17-17.16-4.17-5.82,0-11.32,1.05-16.51,3.15-5.19,2.11-9.74,5.17-13.64,9.18-3.9,4.02-6.96,8.94-9.18,14.75-2.23,5.82-3.34,12.49-3.34,20.04v2.97c0,7.67,1.11,14.41,3.34,20.22,2.23,5.82,5.29,10.73,9.18,14.75,3.9,4.02,8.44,7.05,13.64,9.09,5.2,2.04,10.82,3.06,16.88,3.06s11.35-1.48,16.61-4.45c5.26-2.97,9.37-7.54,12.34-13.73h2.23v1.11c0,4.21,1.33,7.67,3.99,10.39,2.66,2.72,6.09,4.08,10.3,4.08h9.83v-13.36h-4.64c-3.34,0-5.01-1.86-5.01-5.57ZM339.36,739.33c0,5.07-.74,9.68-2.23,13.82-1.48,4.15-3.53,7.7-6.12,10.67-2.6,2.97-5.72,5.26-9.37,6.87-3.65,1.61-7.64,2.41-11.97,2.41-8.78,0-15.93-2.94-21.43-8.81-5.51-5.87-8.26-14.07-8.26-24.58v-2.97c0-4.95.74-9.49,2.23-13.64,1.48-4.14,3.55-7.67,6.22-10.58,2.66-2.91,5.78-5.16,9.37-6.77,3.59-1.61,7.54-2.41,11.87-2.41s8.13.83,11.78,2.5c3.65,1.67,6.8,3.99,9.46,6.96,2.66,2.97,4.73,6.53,6.22,10.67,1.48,4.15,2.23,8.69,2.23,13.64v2.23Z"/>
    <path d="M233.88,701.85c-3.9-3.96-8.38-6.99-13.45-9.09-5.07-2.1-10.45-3.15-16.14-3.15-6.68,0-12.87,1.46-18.55,4.36-5.69,2.91-10.14,7.14-13.36,12.71h-2.23v-14.47h-14.47v129.14h14.47v-51.21h2.23c1.61,2.85,3.59,5.29,5.94,7.33,2.35,2.04,4.92,3.77,7.7,5.2,2.78,1.42,5.72,2.47,8.81,3.15,3.09.68,6.12,1.02,9.09,1.02,5.81,0,11.32-1.02,16.51-3.06,5.2-2.04,9.74-5.04,13.64-9,3.9-3.96,6.96-8.84,9.18-14.66,2.23-5.81,3.34-12.49,3.34-20.04v-3.71c0-7.42-1.15-14.04-3.43-19.85-2.29-5.81-5.38-10.7-9.28-14.66ZM231.75,740.07c0,5.07-.77,9.65-2.32,13.73-1.55,4.08-3.71,7.55-6.49,10.39-2.78,2.85-6.03,5.04-9.74,6.59-3.71,1.55-7.79,2.32-12.25,2.32s-8.35-.8-12.06-2.41c-3.71-1.61-6.96-3.9-9.74-6.87s-4.98-6.52-6.59-10.67c-1.61-4.14-2.41-8.75-2.41-13.82v-2.23c0-4.95.8-9.49,2.41-13.64,1.61-4.14,3.8-7.7,6.59-10.67s6.03-5.29,9.74-6.96c3.71-1.67,7.73-2.5,12.06-2.5s8.38.81,12.15,2.41c3.77,1.61,7.05,3.87,9.83,6.77,2.78,2.91,4.95,6.37,6.49,10.39,1.54,4.02,2.32,8.51,2.32,13.45v3.71Z"/>
    <path d="M456.16,738.5c-5.63-4.27-13.82-6.83-24.58-7.7-10.02-.74-16.92-2.29-20.69-4.64-3.77-2.35-5.66-5.75-5.66-10.2,0-2.23.56-4.17,1.67-5.84s2.6-3.06,4.45-4.17,3.99-1.95,6.4-2.5c2.41-.56,4.92-.83,7.51-.83,6.68,0,12.09,1.67,16.23,5.01,4.14,3.34,6.52,7.98,7.14,13.92l13.73-3.34c-.5-3.46-1.58-6.93-3.25-10.39-1.67-3.46-4.05-6.52-7.14-9.18-3.09-2.66-6.93-4.82-11.5-6.49-4.58-1.67-9.9-2.5-15.96-2.5-4.33,0-8.47.56-12.43,1.67-3.96,1.11-7.51,2.78-10.67,5.01-3.15,2.23-5.66,4.98-7.51,8.26-1.86,3.28-2.78,7.08-2.78,11.41v1.11c0,8.04,2.84,14.16,8.54,18.37,5.69,4.21,13.85,6.68,24.49,7.42,9.15.62,15.77,2.04,19.85,4.27,4.08,2.23,6.12,5.94,6.12,11.13,0,4.82-2.07,8.57-6.22,11.23-4.15,2.66-9.62,3.99-16.42,3.99-8.04,0-14.47-2.13-19.3-6.4-4.82-4.27-7.55-9.93-8.16-16.98l-13.73,3.34c.25,4.08,1.23,8.13,2.97,12.15,1.73,4.02,4.3,7.61,7.7,10.76,3.4,3.15,7.67,5.69,12.8,7.61,5.13,1.92,11.29,2.88,18.46,2.88,5.32,0,10.23-.65,14.75-1.95,4.51-1.3,8.35-3.18,11.5-5.66,3.15-2.47,5.63-5.47,7.42-9,1.79-3.53,2.69-7.51,2.69-11.97v-1.11c0-8.16-2.81-14.38-8.44-18.65Z"/>
    <rect x="610.62" y="793.14" width="86.46" height="13.36"/>
    <path d="M569.71,738.5c-5.63-4.27-13.82-6.83-24.58-7.7-10.02-.74-16.92-2.29-20.69-4.64-3.77-2.35-5.66-5.75-5.66-10.2,0-2.23.56-4.17,1.67-5.84s2.6-3.06,4.45-4.17,3.99-1.95,6.4-2.5c2.41-.56,4.92-.83,7.51-.83,6.68,0,12.09,1.67,16.23,5.01,4.14,3.34,6.52,7.98,7.14,13.92l13.73-3.34c-.5-3.46-1.58-6.93-3.25-10.39-1.67-3.46-4.05-6.52-7.14-9.18-3.09-2.66-6.93-4.82-11.5-6.49-4.58-1.67-9.9-2.5-15.96-2.5-4.33,0-8.47.56-12.43,1.67-3.96,1.11-7.51,2.78-10.67,5.01-3.15,2.23-5.66,4.98-7.51,8.26-1.86,3.28-2.78,7.08-2.78,11.41v1.11c0,8.04,2.84,14.16,8.54,18.37,5.69,4.21,13.85,6.68,24.49,7.42,9.15.62,15.77,2.04,19.85,4.27s6.12,5.94,6.12,11.13c0,4.82-2.07,8.57-6.22,11.23-4.15,2.66-9.62,3.99-16.42,3.99-8.04,0-14.47-2.13-19.3-6.4-4.82-4.27-7.55-9.93-8.16-16.98l-13.73,3.34c.25,4.08,1.23,8.13,2.97,12.15,1.73,4.02,4.3,7.61,7.7,10.76,3.4,3.15,7.67,5.69,12.8,7.61,5.13,1.92,11.29,2.88,18.46,2.88,5.32,0,10.23-.65,14.75-1.95,4.51-1.3,8.35-3.18,11.5-5.66,3.15-2.47,5.63-5.47,7.42-9,1.79-3.53,2.69-7.51,2.69-11.97v-1.11c0-8.16-2.81-14.38-8.44-18.65Z"/>
    <path d="M907.11,740.07c0,10.02-2.5,18.03-7.51,24.03-5.01,6-11.91,9-20.69,9-8.16,0-14.23-2.23-18.18-6.68-3.96-4.45-5.94-11.5-5.94-21.15v-53.06h-14.47v54.92c0,6.56.83,12.31,2.5,17.26,1.67,4.95,4.02,9.09,7.05,12.43,3.03,3.34,6.68,5.84,10.95,7.51,4.27,1.67,8.93,2.5,14.01,2.5,7.42,0,13.54-1.73,18.37-5.2,4.82-3.46,8.72-8.16,11.69-14.1h2.23v34.88c0,3.71-1.67,5.57-5.01,5.57h-47.31v13.36h52.51c4.2,0,7.64-1.36,10.3-4.08,2.66-2.72,3.99-6.19,3.99-10.39v-114.66h-14.47v47.87Z" fill="#6d7278"/>
    <path d="M801.63,701.85c-3.9-3.96-8.38-6.99-13.45-9.09-5.07-2.1-10.45-3.15-16.14-3.15-6.68,0-12.87,1.46-18.55,4.36-5.69,2.91-10.14,7.14-13.36,12.71h-2.23v-52.32h-14.47v129.88h14.47v-14.1h2.23c1.61,2.85,3.59,5.29,5.94,7.33,2.35,2.04,4.92,3.77,7.7,5.2,2.78,1.42,5.72,2.47,8.81,3.15,3.09.68,6.12,1.02,9.09,1.02,5.81,0,11.32-1.02,16.51-3.06s9.74-5.04,13.64-9c3.9-3.96,6.96-8.84,9.18-14.66,2.23-5.81,3.34-12.49,3.34-20.04v-3.71c0-7.42-1.14-14.04-3.43-19.85-2.29-5.81-5.38-10.7-9.28-14.66ZM799.5,740.07c0,5.07-.77,9.65-2.32,13.73-1.55,4.08-3.71,7.55-6.49,10.39-2.78,2.85-6.03,5.04-9.74,6.59-3.71,1.55-7.79,2.32-12.25,2.32s-8.35-.8-12.06-2.41c-3.71-1.61-6.96-3.9-9.74-6.87s-4.98-6.52-6.59-10.67c-1.61-4.14-2.41-8.75-2.41-13.82v-2.23c0-4.95.8-9.49,2.41-13.64,1.61-4.14,3.8-7.7,6.59-10.67s6.03-5.29,9.74-6.96,7.73-2.5,12.06-2.5,8.38.81,12.15,2.41c3.77,1.61,7.05,3.87,9.83,6.77,2.78,2.91,4.95,6.37,6.49,10.39,1.54,4.02,2.32,8.51,2.32,13.45v3.71Z" fill="#6d7278"/>
  </g>
  <g>
    <path d="M0-13v1080.17h1080.17V-13H0ZM395.04,575.72l151.07-260.38,26.75,15.52-151.07,260.38-26.75-15.52ZM531.59,529.81l-26.6-15.77,154.34-260.23,26.6,15.77-154.34,260.23Z" fill="none"/>
    <rect x="333.43" y="437.83" width="301.03" height="30.92" transform="translate(-151 644.4) rotate(-59.88)"/>
    <rect x="444.19" y="376.35" width="302.56" height="30.92" transform="translate(-45.29 704.09) rotate(-59.33)" fill="#6d7278"/>
  </g>
</svg>