<?xml version="1.0" encoding="UTF-8" standalone="yes"?>
<svg version="1.2" baseProfile="tiny-ps" viewBox="0 0 226.77 226.77" xml:space="preserve" xmlns="http://www.w3.org/2000/svg">
  <title>bimi-svg-tiny-12-ps</title>
  <rect x="0.49" y="0.33" fill="#FFFFFF" width="226.77" height="226.77"/>
  <g>
    <g>
      <path fill="#215AA8" d="M54.86,133.75v-9.3h2.18v9.3H54.86z"/>
      <path fill="#215AA8" d="M60.12,126.81v0.87h0.02c0.19-0.53,0.76-1.07,1.38-1.07c0.93,0,1.76,0.5,1.76,1.45v5.69h-1.97v-4.96&#xA;&#x9;&#x9;&#x9;c-0.02-0.32-0.15-0.6-0.52-0.57c-0.35,0.02-0.53,0.22-0.53,0.57v4.96h-1.97v-6.94H60.12z"/>
      <path fill="#215AA8" d="M64.02,128.23v-1.43h0.78v-1.99h1.97v1.99h0.95v1.43h-0.95v3.66c0,0.39,0.18,0.48,0.43,0.48&#xA;&#x9;&#x9;&#x9;c0.23-0.04,0.3-0.03,0.51-0.03v1.39c-0.42,0.06-0.83,0.12-1.27,0.12c-1.06,0-1.65-0.55-1.65-1.6v-4.02H64.02z"/>
      <path fill="#215AA8" d="M70.45,130.6v1.22c0,0.38,0.17,0.71,0.61,0.73c0.73,0.04,0.65-0.62,0.69-1.21h1.96&#xA;&#x9;&#x9;&#x9;c0.1,1.79-0.87,2.61-2.58,2.63c-1.42,0.01-2.66-0.57-2.66-2.16v-2.83c0-1.79,1.13-2.37,2.66-2.38c1.37-0.01,2.65,0.5,2.65,2.01&#xA;&#x9;&#x9;&#x9;v1.99H70.45z M71.81,129.3v-0.68c0-0.25-0.16-0.71-0.67-0.71c-0.56,0-0.7,0.45-0.7,0.93v0.46H71.81z"/>
      <path fill="#215AA8" d="M76.56,126.81v1.05h0.03c0.22-0.75,0.7-1.25,1.52-1.25v2.23c-0.2-0.04-0.4-0.05-0.59-0.05&#xA;&#x9;&#x9;&#x9;c-0.56,0-0.78,0.11-0.82,0.68v4.28h-1.97v-6.94H76.56z"/>
      <path fill="#215AA8" d="M80.63,126.81v0.81h0.03c0.32-0.63,0.94-0.97,1.47-1c0.64-0.04,1.25,0.33,1.47,0.91h0.02&#xA;&#x9;&#x9;&#x9;c0.36-0.62,0.88-0.91,1.44-0.91c0.92,0,1.76,0.5,1.76,1.45v5.69h-1.97v-4.96c-0.03-0.32-0.15-0.6-0.52-0.57&#xA;&#x9;&#x9;&#x9;c-0.35,0.02-0.53,0.22-0.53,0.57v4.96h-1.97v-4.96c-0.06-0.3-0.14-0.57-0.47-0.57c-0.39,0-0.56,0.2-0.59,0.57v4.96H78.8v-6.94&#xA;&#x9;&#x9;&#x9;H80.63z"/>
      <path fill="#215AA8" d="M87.8,128.99c0-1.79,1.06-2.38,2.58-2.38c1.74,0,2.58,0.82,2.58,2.38v2.83c-0.1,1.58-1.08,2.16-2.58,2.16&#xA;&#x9;&#x9;&#x9;c-1.41,0-2.58-0.57-2.58-2.16V128.99z M89.77,131.94c0.04,0.4,0.2,0.61,0.61,0.61c0.41,0,0.57-0.21,0.61-0.61v-3.1&#xA;&#x9;&#x9;&#x9;c0-0.45-0.15-0.81-0.61-0.81c-0.46,0-0.61,0.36-0.61,0.81V131.94z"/>
      <path fill="#215AA8" d="M97.27,133.75v-0.8h-0.03c-0.36,0.67-0.96,1.03-1.54,1.03c-1.44-0.05-1.73-1.4-1.73-2.58v-2.41&#xA;&#x9;&#x9;&#x9;c0-1.09,0.39-2.38,1.69-2.38c0.52,0,1.03,0.22,1.44,0.83h0.03v-2.99h1.97v9.3H97.27z M95.96,131.25c0,0.41,0,1.11,0.57,1.11&#xA;&#x9;&#x9;&#x9;c0.53,0,0.61-0.53,0.61-1.21v-1.64c0-0.59-0.09-1.31-0.57-1.3c-0.63,0-0.61,0.78-0.61,1.23V131.25z"/>
      <path fill="#215AA8" d="M103.49,133.13c-0.5,0.55-0.92,0.84-1.7,0.84c-1.12,0-1.81-0.76-1.81-1.86c0-1.57,0.86-2.08,1.73-2.36&#xA;&#x9;&#x9;&#x9;c0.86-0.28,1.71-0.37,1.71-1.11c0-0.39-0.22-0.72-0.62-0.72c-0.72,0-0.72,0.5-0.75,1.08h-1.97c-0.04-0.87,0.23-1.47,0.71-1.85&#xA;&#x9;&#x9;&#x9;c0.48-0.38,1.17-0.54,1.96-0.54c1.95,0,2.65,0.59,2.65,2.12v4.25c0,0.26,0.08,0.52,0.17,0.77h-1.93L103.49,133.13z M103.41,130.38&#xA;&#x9;&#x9;&#x9;c-0.4,0.21-0.75,0.32-0.99,0.51c-0.25,0.17-0.46,0.42-0.46,0.9c0,0.43,0.26,0.74,0.73,0.74c0.58,0,0.71-0.61,0.72-1.06V130.38z"/>
      <path fill="#215AA8" d="M106.62,133.75v-9.3h1.98v9.3H106.62z"/>
      <path fill="#215AA8" d="M112.97,133.75v-9.3h2.83c1.65,0,2.94,0.53,2.94,2.41c0,0.82-0.3,1.55-1.06,1.96v0.03&#xA;&#x9;&#x9;&#x9;c0.99,0.57,1.2,1.07,1.2,2.22c0,1.89-1.07,2.69-2.84,2.69H112.97z M115.15,128.11c0.96-0.07,1.41,0,1.41-1.11&#xA;&#x9;&#x9;&#x9;c0-0.91-0.63-0.88-1.41-0.88V128.11z M115.15,132.08c1.09-0.03,1.56,0.05,1.56-1.21c0-1.07-0.62-1.05-1.56-1.09V132.08z"/>
      <path fill="#215AA8" d="M123.05,133.75v-0.85h-0.02c-0.18,0.53-0.75,1.08-1.38,1.08c-1.14,0-1.76-0.52-1.76-1.46v-5.71h1.97v4.97&#xA;&#x9;&#x9;&#x9;c0.02,0.32,0.11,0.6,0.49,0.58c0.35-0.02,0.57-0.23,0.57-0.58v-4.97h1.97v6.94H123.05z"/>
      <path fill="#215AA8" d="M126.26,133.75v-9.3h1.97v9.3H126.26z"/>
      <path fill="#215AA8" d="M129.46,133.75v-9.3h1.97v4.68h0.03l1.36-2.32h2.16L133,129.6l1.99,4.15h-2.07l-1.16-2.68l-0.34,0.45v2.23&#xA;&#x9;&#x9;&#x9;H129.46z"/>
      <path fill="#215AA8" d="M138.72,133.75v-9.3h2.19v7.45h2.66v1.85H138.72z"/>
      <path fill="#215AA8" d="M144.51,126.13v-1.68h1.97v1.68H144.51z M144.51,133.75v-6.94h1.97v6.94H144.51z"/>
      <path fill="#215AA8" d="M152.8,136.09h-1.97v-2.99h-0.02c-0.46,0.68-1.1,0.89-1.45,0.88c-1.43-0.05-1.73-1.4-1.73-2.58v-2.41&#xA;&#x9;&#x9;&#x9;c0-1.09,0.39-2.38,1.69-2.38c0.68,0.03,1.23,0.34,1.61,1.04h0.02v-0.84h1.84V136.09z M150.84,129.52c0-0.59-0.12-1.31-0.61-1.3&#xA;&#x9;&#x9;&#x9;c-0.63,0-0.61,0.78-0.61,1.23v1.8c0,0.41,0,1.11,0.57,1.11c0.53,0,0.65-0.53,0.65-1.21V129.52z"/>
      <path fill="#215AA8" d="M157.15,133.75v-0.85h-0.03c-0.18,0.53-0.76,1.08-1.37,1.08c-1.14,0-1.76-0.52-1.76-1.46v-5.71h1.97v4.97&#xA;&#x9;&#x9;&#x9;c0.03,0.32,0.11,0.6,0.49,0.58c0.35-0.02,0.57-0.23,0.57-0.58v-4.97h1.98v6.94H157.15z"/>
      <path fill="#215AA8" d="M160.35,126.13v-1.68h1.97v1.68H160.35z M160.35,133.75v-6.94h1.97v6.94H160.35z"/>
      <path fill="#215AA8" d="M166.85,133.75v-0.8h-0.03c-0.36,0.67-0.95,1.03-1.54,1.03c-1.44-0.05-1.72-1.4-1.72-2.58v-2.41&#xA;&#x9;&#x9;&#x9;c0-1.09,0.38-2.38,1.69-2.38c0.52,0,1.03,0.22,1.44,0.83h0.03v-2.99h1.97v9.3H166.85z M165.54,131.25c0,0.41,0,1.11,0.57,1.11&#xA;&#x9;&#x9;&#x9;c0.53,0,0.61-0.53,0.61-1.21v-1.64c0-0.59-0.08-1.31-0.57-1.3c-0.64,0-0.61,0.78-0.61,1.23V131.25z"/>
      <path fill="#215AA8" d="M172.67,128.87c-0.03-0.23-0.03-0.47-0.11-0.65c-0.08-0.18-0.22-0.3-0.55-0.3c-0.38,0-0.66,0.18-0.66,0.58&#xA;&#x9;&#x9;&#x9;c0,0.37,0.31,0.56,0.61,0.71c1.27,0.58,2.65,0.91,2.65,2.56c0,1.55-1.18,2.21-2.62,2.21c-1.57,0-2.66-0.67-2.58-2.34h1.89&#xA;&#x9;&#x9;&#x9;c-0.01,0.23,0.01,0.5,0.12,0.7c0.1,0.2,0.28,0.34,0.58,0.34c0.43,0,0.71-0.21,0.71-0.66c0-0.21-0.09-0.41-0.26-0.54&#xA;&#x9;&#x9;&#x9;c-0.79-0.42-1.9-0.72-2.52-1.43c-0.33-0.38-0.5-0.79-0.5-1.3c0-1.51,1.19-2.15,2.57-2.15c1.44,0,2.59,0.72,2.52,2.25H172.67z"/>
      <path fill="#215AA8" d="M183.3,133.22c-0.59,0.51-1.28,0.76-2.07,0.76c-1.67,0-2.78-1.06-2.78-2.76c0-1.29,0.63-2.29,1.72-2.96&#xA;&#x9;&#x9;&#x9;c-0.48-0.59-0.76-1.31-0.76-2.08c0-1.3,1.29-1.94,2.42-1.94c1.23,0,2.28,0.68,2.28,2.02c0,1.05-0.67,1.82-1.58,2.29&#xA;&#x9;&#x9;&#x9;c0.33,0.53,0.69,1.04,1,1.58h0.03c0.09-0.46,0.17-0.89,0.25-1.31h1.6c-0.03,1.03-0.38,2.03-0.83,2.94l1.28,2.01h-2.23&#xA;&#x9;&#x9;&#x9;L183.3,133.22z M181.01,129.65c-0.43,0.47-0.63,0.79-0.63,1.45c0,0.66,0.5,1.2,1.16,1.2c0.33-0.02,0.66-0.22,0.93-0.41&#xA;&#x9;&#x9;&#x9;L181.01,129.65z M181.14,126.17c0,0.4,0.23,0.85,0.51,1.11c0.32-0.16,0.66-0.68,0.66-1.04c0-0.43-0.18-0.64-0.63-0.64&#xA;&#x9;&#x9;&#x9;C181.36,125.6,181.14,125.85,181.14,126.17z"/>
      <path fill="#215AA8" d="M191.45,130.64v0.66c0,0.53,0.17,1,0.87,1c0.51,0,0.74-0.46,0.74-0.93c0-0.78-0.65-1.08-1.22-1.42&#xA;&#x9;&#x9;&#x9;c-0.67-0.38-1.24-0.74-1.65-1.22c-0.4-0.47-0.64-1.04-0.64-1.86c0-1.75,1.06-2.64,2.75-2.64c1.9,0,2.86,1.27,2.77,3.01h-2.01&#xA;&#x9;&#x9;&#x9;c-0.03-0.55,0-1.29-0.72-1.34c-0.44-0.04-0.7,0.21-0.75,0.62c-0.06,0.56,0.22,0.84,0.66,1.14c0.81,0.52,1.52,0.84,2.03,1.31&#xA;&#x9;&#x9;&#x9;c0.51,0.47,0.8,1.1,0.8,2.22c0,1.79-0.99,2.78-2.8,2.78c-1.99,0-2.84-1.12-2.84-2.34v-0.99H191.45z"/>
      <path fill="#215AA8" d="M195.95,128.99c0-1.79,1.05-2.38,2.58-2.38c1.74,0,2.58,0.82,2.58,2.38v2.83&#xA;&#x9;&#x9;&#x9;c-0.1,1.58-1.08,2.16-2.58,2.16c-1.41,0-2.58-0.57-2.58-2.16V128.99z M197.92,131.94c0.04,0.4,0.2,0.61,0.61,0.61&#xA;&#x9;&#x9;&#x9;s0.57-0.21,0.61-0.61v-3.1c0-0.45-0.15-0.81-0.61-0.81c-0.46,0-0.61,0.36-0.61,0.81V131.94z"/>
      <path fill="#215AA8" d="M202.37,133.75l0-9.3h1.97l0,9.3H202.37z"/>
      <path fill="#215AA8" d="M205.82,126.13v-1.68h1.97v1.68H205.82z M205.82,133.75v-6.94h1.97l0,6.94H205.82z"/>
      <path fill="#215AA8" d="M212.32,133.75v-0.8h-0.02c-0.36,0.67-0.96,1.03-1.54,1.03c-1.43-0.05-1.72-1.4-1.72-2.58l0-2.41&#xA;&#x9;&#x9;&#x9;c0-1.09,0.39-2.38,1.69-2.38c0.52,0,1.03,0.22,1.44,0.83h0.02v-2.99h1.97v9.3H212.32z M211,131.25c0,0.41,0,1.11,0.57,1.11&#xA;&#x9;&#x9;&#x9;c0.53,0,0.61-0.53,0.61-1.21v-1.64c0-0.59-0.09-1.31-0.57-1.3c-0.64,0-0.61,0.78-0.61,1.23V131.25z"/>
      <path fill="#215AA8" d="M218.14,128.87c-0.03-0.23-0.03-0.47-0.11-0.65c-0.08-0.18-0.23-0.3-0.55-0.3c-0.38,0-0.66,0.18-0.66,0.58&#xA;&#x9;&#x9;&#x9;c0,0.37,0.31,0.56,0.61,0.71c1.28,0.58,2.65,0.91,2.65,2.56c0,1.55-1.17,2.21-2.62,2.21c-1.57,0-2.66-0.67-2.59-2.34h1.89&#xA;&#x9;&#x9;&#x9;c-0.01,0.23,0.01,0.5,0.12,0.7c0.1,0.2,0.29,0.34,0.59,0.34c0.42,0,0.7-0.21,0.7-0.66c0-0.21-0.1-0.41-0.26-0.54&#xA;&#x9;&#x9;&#x9;c-0.79-0.42-1.89-0.72-2.51-1.43c-0.33-0.38-0.5-0.79-0.5-1.3c0-1.51,1.19-2.15,2.57-2.15c1.44,0,2.59,0.72,2.51,2.25H218.14z"/>
    </g>
    <g>
      <path fill="#215AA8" d="M66.01,101.27c-1.33-0.77-2.92-1.29-4.61-1.29c-0.93,0-2.56,0.04-2.56,1.69c0,3.35,8.18,0.19,8.18,10.08&#xA;&#x9;&#x9;&#x9;c0,6.87-4.12,8.6-7.57,8.6c-2.3,0-4.19-0.37-6.42-1.21v-6.66c1.6,1.1,3.56,1.69,5.34,1.69c1.4,0,2.68-0.48,2.68-1.77&#xA;&#x9;&#x9;&#x9;c0-3.46-8.18-0.33-8.18-10.29c0-7.06,4.46-8.31,8-8.31c1.67,0,3.52,0.34,5.14,0.88V101.27z"/>
      <path fill="#215AA8" d="M81.58,119.32c-1.11,0.51-2.76,1.03-4.28,1.03c-5.17,0-9.31-4.48-9.31-13.64c0-8.6,4.32-12.9,9.31-12.9&#xA;&#x9;&#x9;&#x9;c1.65,0,2.63,0.34,4.24,0.81v6.77c-0.99-0.52-1.99-0.96-2.99-0.96c-2.54,0-4.45,2.25-4.45,6.43c0,4.41,1.78,6.66,4.25,6.66&#xA;&#x9;&#x9;&#x9;c1.09,0,2.13-0.37,3.23-1V119.32z"/>
      <path fill="#215AA8" d="M87.13,94.24h8.22l5.55,25.66h-6.26l-1.03-5.55h-5.03l-0.96,5.55h-5.95L87.13,94.24z M89.41,108.18h3.45&#xA;&#x9;&#x9;&#x9;l-1.69-8.42h-0.04L89.41,108.18z"/>
      <path fill="#215AA8" d="M101.57,94.24h8.93l2.87,18.08h0.05V94.24h5.12v25.66h-8.78l-3.03-18.6h-0.04v18.6h-5.12V94.24z"/>
      <path fill="#215AA8" d="M120.67,94.24h8.76c4.46,0,7.59,2.5,7.59,12.9c0,9.71-3.39,12.76-7.84,12.76h-8.51V94.24z M126.64,113.51&#xA;&#x9;&#x9;&#x9;h1.49c2.17,0,2.66-2.36,2.66-6.62c0-4.41-0.54-6.69-2.67-6.69h-1.47V113.51z"/>
      <path fill="#215AA8" d="M144.82,94.24v25.66h-5.97V94.24H144.82z"/>
      <path fill="#215AA8" d="M155.32,94.24h9.78c2.69,0,5.35,1.43,5.35,6.32c0,3.53-1.14,5.4-3.21,6.29v0.07&#xA;&#x9;&#x9;&#x9;c2.16,0.48,3.5,3.27,3.5,5.85c0,6.47-3.16,7.13-6.39,7.13h-9.03V94.24z M160.93,104.06h1.49c1.05,0,2.18-0.51,2.18-2.46&#xA;&#x9;&#x9;&#x9;c0-1.91-0.98-2.5-2.05-2.5h-1.63V104.06z M160.93,114.61h1.56c1.1,0,2.28-0.66,2.28-2.65c0-2.2-1.11-2.61-2.23-2.61h-1.6V114.61z"/>
      <path fill="#215AA8" d="M178.6,109.46c0,2.43,0.42,4.27,1.85,4.27c1.55,0,1.9-1.73,1.9-4.23V94.24h5.84v15.07&#xA;&#x9;&#x9;&#x9;c0,8.31-3.09,11.03-7.8,11.03c-4.35,0-7.75-2.94-7.75-10.52V94.24h5.97V109.46z"/>
      <path fill="#215AA8" d="M190.39,94.24h5.96v18.08h7.32v7.57h-13.29V94.24z"/>
      <path fill="#215AA8" d="M211.02,104.32h0.04l3.72-10.07h6.79l-5.24,12.02l5.72,13.63h-7.13l-3.88-10.89h-0.04v10.89h-5.97V94.24&#xA;&#x9;&#x9;&#x9;h5.97V104.32z"/>
    </g>
    <g>
      <path fill="#44B2E8" d="M48.02,113.65c0,11.51-9.33,20.84-20.84,20.84c-11.51,0-20.83-9.33-20.83-20.84&#xA;&#x9;&#x9;&#x9;c0-11.51,9.33-20.84,20.83-20.84C38.69,92.81,48.02,102.14,48.02,113.65z"/>
      <g>
        <g>
          <path fill="#215AA8" d="M9.91,128.7c3.02,0.94,8.31,1.72,12.81,1.76c9.23,0.07,14.8-2.7,14.84-6.86c0.03-3.8-4.7-6.16-11.7-8.67&#xA;&#x9;&#x9;&#x9;&#x9;&#x9;c-6.98-2.33-16.72-6.26-16.68-11.59c0.05-6.25,9.46-10.75,23.6-10.64c5.55,0.05,10.42,0.88,12.54,1.64l-2.55,4.01&#xA;&#x9;&#x9;&#x9;&#x9;&#x9;c-2.24-0.75-5.93-1.45-10.54-1.49c-8.73-0.07-12.85,2.96-12.86,5.78c-0.04,4.1,4.57,5.73,13,8.61&#xA;&#x9;&#x9;&#x9;&#x9;&#x9;c10.65,3.58,15.37,7.41,15.35,12.01c-0.06,7.1-10.92,11.49-25.04,11.36c-6.1-0.05-12.55-1.02-15.04-1.89L9.91,128.7z"/>
          <path fill="#FFFFFF" d="M23.24,135.96l-0.57,0c-6.3-0.05-12.82-1.04-15.47-1.97l-1.52-0.53l3.59-6.36l1.04,0.32&#xA;&#x9;&#x9;&#x9;&#x9;&#x9;c3.05,0.95,8.28,1.66,12.43,1.69h0.35c7.83,0,13.11-2.22,13.14-5.53c0.02-2.9-4.3-5.06-10.81-7.39&#xA;&#x9;&#x9;&#x9;&#x9;&#x9;c-7.55-2.51-17.62-6.59-17.57-12.86c0.06-7.16,9.88-11.98,24.44-11.98l0.52,0c5.76,0.05,10.77,0.92,12.99,1.71l1.58,0.57&#xA;&#x9;&#x9;&#x9;&#x9;&#x9;l-4.02,6.32l-0.99-0.33c-1.24-0.41-4.69-1.38-10.13-1.42l-0.28,0c-7.73,0-11.22,2.6-11.23,4.44c-0.03,3.05,3.91,4.53,12.1,7.34&#xA;&#x9;&#x9;&#x9;&#x9;&#x9;c11.12,3.73,16.28,7.95,16.26,13.29C49.01,130.85,38.63,135.96,23.24,135.96z M9.66,131.89c3.02,0.7,8.27,1.34,13.03,1.38&#xA;&#x9;&#x9;&#x9;&#x9;&#x9;l0.55,0c13.36,0,23.1-4.22,23.15-10.03c0.02-3.95-4.7-7.46-14.43-10.72c-8.71-2.98-13.97-4.78-13.92-9.9&#xA;&#x9;&#x9;&#x9;&#x9;&#x9;c0.02-3.54,4.34-7.11,13.92-7.11h0.3c3.64,0.03,7.19,0.48,9.95,1.25l1.04-1.63c-2.47-0.57-6.35-1.06-10.46-1.09l-0.5,0&#xA;&#x9;&#x9;&#x9;&#x9;&#x9;c-12.55,0-21.71,3.92-21.75,9.32c-0.02,2.3,2.7,5.95,15.76,10.3c6.42,2.3,12.65,4.96,12.61,9.95c-0.05,5.06-6.12,8.2-15.83,8.2&#xA;&#x9;&#x9;&#x9;&#x9;&#x9;h-0.37c-4.01-0.03-8.8-0.65-12.15-1.52L9.66,131.89z"/>
        </g>
      </g>
    </g>
  </g>
</svg>