<?xml version="1.0" encoding="utf-8"?>
<!-- Generator: Adobe Illustrator 24.1.0, SVG Export Plug-In . SVG Version: 6.00 Build 0)  -->
<svg version="1.2" baseProfile="tiny-ps" id="Layer_1" xmlns="http://www.w3.org/2000/svg" xmlns:xlink="http://www.w3.org/1999/xlink"
viewBox="0 0 1201.3 1201.3" xml:space="preserve">
<title>Ericsson</title>
<g id="Layer_2_1_">
	<rect fill="#FFFFFF" stroke="#FFFFFF" stroke-miterlimit="10" width="1201.3" height="1201.3"/>
</g>
<g id="Layer_1_1_">
	<path fill="#181818" d="M893,254.1c-6.9-20.6-21.5-36.6-39.6-45.6c-18-9-39.6-11.2-75.2,0.7L373.9,344
		c-35.6,11.9-51.6,26.5-60.6,44.6c-9.1,18-11.2,39.5-4.3,60.2c6.9,20.6,21.5,36.6,39.6,45.6c18,9,39.6,11.2,75.2-0.7l404.3-134.8
		c35.6-11.8,51.6-26.5,60.6-44.6C897.8,296.3,899.9,274.8,893,254.1z"/>
	<path fill="#181818" d="M893,503.6c-6.9-20.6-21.5-36.6-39.6-45.6c-18-9-39.6-11.2-75.2,0.7L373.9,593.5
		c-35.6,11.9-51.6,26.5-60.6,44.6c-9.1,18-11.2,39.5-4.3,60.2c6.9,20.6,21.5,36.6,39.6,45.6c18,9,39.6,11.2,75.2-0.7l404.3-134.7
		c35.6-11.9,51.6-26.5,60.6-44.7C897.8,545.8,899.9,524.3,893,503.6z"/>
	<path fill="#181818" d="M893,753.2c-6.9-20.6-21.5-36.6-39.6-45.6c-18-9-39.6-11.2-75.2,0.7L373.9,843.1
		c-35.6,11.9-51.6,26.5-60.6,44.6c-9.1,18-11.2,39.5-4.3,60.2c6.9,20.6,21.5,36.6,39.6,45.6c18,9,39.6,11.2,75.2-0.7L828.1,858
		c35.6-11.8,51.6-26.5,60.6-44.6C897.8,795.4,899.9,773.9,893,753.2z"/>
</g>
</svg>
