<?xml version="1.0"?><svg version="1.2" baseProfile="tiny-ps" viewBox="0 0 300 300" xmlns="http://www.w3.org/2000/svg" xmlns:xlink="http://www.w3.org/1999/xlink"><title>rude</title><g><g fill="#fff" transform="matrix(.1 0 0 -.1 0 300)"><path d="M0 1500V0h3000v3000H0V1500z"/></g><g fill="#dcdbdb" transform="matrix(.1 0 0 -.1 0 300)"><path d="m2120 2355-12-14 5-13c2-7 1-23-4-34-4-12-10-57-14-100-3-43-10-94-15-114-18-64-51-244-62-330-6-47-12-87-14-89s-13 7-24 21-36 33-56 43l-36 17-74 1-74 2-34-37-34-37-17-48c-9-26-21-56-26-65-5-10-9-27-9-38s-4-28-9-38c-5-9-16-35-24-57-49-134-81-212-93-224l-13-14-7 39-7 39 16 115c10 63 17 142 17 176v61l-19 17-19 17-34 5-35 6-20-26-21-26-7-63c-3-34-9-82-11-107-3-25-13-79-24-120-10-41-21-101-25-132l-6-58-33-47-33-48-31-3-32-3v11c0 7-11 25-24 41l-24 28-7 73-6 73 9 155 9 155-14 23-13 22h-23c-12 0-32-3-44-6l-21-6-12-29-13-29 1-188v-187l12-83 12-83 22-31c11-17 34-41 49-52l29-21h61l62 1 43 24c23 13 42 26 42 29 0 4 10 17 23 31s31 37 41 52l17 26 34-14c45-19 73-18 113 4l34 18 16 29c9 17 20 32 23 35s12 22 21 44l15 39 22-32 23-31 41-22 42-22h56l57 1 44 26c25 14 50 33 57 41l13 16 38-38 37-39 46-11c25-7 59-12 75-12h30l10-13c6-6 13-24 17-39 4-14 22-44 41-66l34-40 20 5 20 5-6-15-5-15 33-10c18-6 52-13 76-16l43-6 37 10 37 10 37 30 37 30 30 62c17 34 31 72 31 85v23h-30v-14c0-36-69-130-112-152l-27-14h-76l-46 32-47 32-12 37-12 37 6 10c3 6 21 14 38 18 18 3 39 10 48 14 8 5 41 21 72 37 32 15 58 31 58 36 0 4 6 7 13 7s38 26 69 57l57 58 16 37 15 37v128l-14 48-15 48-27 28-27 28-50 17-49 16-51-6-51-7-55-27c-92-45-133-100-166-217-19-72-23-95-27-169l-3-58-30 6-30 6-12 17-13 17v66c0 37 7 111 14 166 8 54 18 144 21 199 4 55 8 118 10 140s7 85 11 140c3 55 10 107 14 115s11 63 15 121l7 107-20 6c-11 4-23 13-26 21-7 19-30 19-46 0zm-174-700c12-8 29-30 38-50l18-36-11-31c-6-17-11-43-11-59 0-15-14-63-30-106l-30-78-31-38-32-39-25-9-25-10-33 11-33 11-19 32c-11 18-25 48-31 69l-12 36 16 84c20 103 27 120 71 174l35 43 37 4c20 2 48 4 62 5l26 2 20-15zm602-122c5-10 12-37 15-60l5-42-16-23c-9-13-35-41-59-64l-42-40-51-24c-27-13-52-21-55-19-8 9 32 144 59 197l27 53 42 20c52 23 64 24 75 2zM579 2121c-20-4-61-19-90-34l-54-26-49-48c-92-91-186-260-186-336 0-10-5-26-12-36l-12-19 18-159c9-87 19-168 20-181 2-12 0-24-4-27l-7-4 9-68c13-97 14-105 25-133 6-14 16-52 23-85s19-72 26-87c8-15 14-38 14-53 0-14 3-25 8-25 4 0 15-14 24-30l17-30h57l12 12 12 12v26c0 14-14 66-30 115l-30 89-21 136-21 135-5 170-6 171 18 59c23 82 59 149 105 199l39 42 57 28 57 28 40-5c21-3 60-16 85-29l45-23 20-27 21-28 4-61 5-61-24-70-23-69-51-57-52-57-42 38-41 37h-95l-24-26-24-25-5-48-4-49 12-36c6-20 21-46 33-56l21-20h73l26 20 26 21 12-23c6-13 25-37 42-55l30-32 19-113c21-126 52-229 80-270l19-28h14c18 0 30 24 39 71l6 37-11 28-12 29-1 61-1 61-13 15-12 15 6 17 6 16-21 69c-12 38-21 75-21 83v14l-50 37c-27 21-50 41-50 46 0 4 33 34 73 65 88 69 108 98 142 201l27 79-4 71-4 70-24 48-24 49-39 35-39 35-52 23c-28 12-64 25-81 28-16 3-37 8-45 10-8 3-31 1-51-2zm-13-667c40-42 42-53 10-83l-24-23-19 4-18 3-13 41-13 41 10 26 11 27h11c6 0 27-16 45-36zm2083 407-29-29v-70l26-31 26-31h40c21 0 48 5 60 11l20 11 14 35 15 35-11 34-12 34-21 15-21 15h-78l-29-29zm116-16 25-24v-23c0-13-5-30-10-38l-9-15-15 20-15 20 10 3 9 4v58l-27 6c-46 10-50 12-20 13l28 1 24-25zm-87-82-3-38-19 34-18 34 18 36 18 36 4-32c2-18 2-50 0-70zm52 52c0-8-4-15-10-15-5 0-10 7-10 15s5 15 10 15c6 0 10-7 10-15zm10-82v-13h-54l12 12c7 7 12 21 12 33l1 20 14-19c8-11 15-26 15-33z"/></g><g fill="#b0afaf" transform="matrix(.1 0 0 -.1 0 300)"><path d="m2120 2355-12-14 7-11 6-10-10-33c-5-17-12-68-16-111-3-43-8-83-12-89-3-5-12-46-19-91-8-44-21-108-29-141s-16-91-19-130c-3-38-5-72-5-75-1-2-18 12-38 32-59 55-82 62-201 59l-33-1-34-36-34-36-16-46c-9-26-21-55-26-64-5-10-9-27-9-38s-4-28-10-38c-5-9-23-55-39-102-37-109-67-176-80-184l-10-7-7 25c-7 28 1 140 15 226 5 30 10 79 10 108l1 53-10 19-10 18-33 11-34 12-16-7c-9-3-22-16-30-28l-15-22-11-108c-6-60-20-142-31-185-10-42-22-102-25-134l-6-57-40-50-39-50h-39l-12 22c-6 13-21 33-33 46l-21 24v136c0 75 2 181 4 235l3 99-15 15-15 16-36-7-36-7-12-22-13-22-6-95-6-95 9-145 10-145 11-7 12-8h-23l8-35c4-20 20-51 34-69l26-34 45-18 46-17 56 13 56 12 51 52c28 28 58 61 66 74l15 23 33-16 33-17 35 6 34 7 33 28 32 29 25 56c13 31 27 56 30 56s13-14 22-31l18-30 46-21 47-20 62 4 62 4 53 38 53 38 14-18c7-10 13-20 13-24 0-3 15-14 33-25l32-20 65-10 65-11 25-51c14-28 34-61 44-72l19-21h47v-28l18-7c9-4 40-10 67-15l50-8 43 10 44 11 35 36 36 36 28 60c16 33 29 68 29 78v17h-30v-45l-36-48-35-48-32-19-32-20h-80l-46 29-47 30-15 44c-16 47-14 57 11 57 14 0 46 13 140 56 59 27 62 29 138 98l53 48 22 45 21 44-4 78-5 78-24 49-24 49-45 25-45 25-60-1-60-1-30-13c-16-7-32-14-35-14-3-1-23-13-45-28-79-51-101-89-135-231l-20-82v-107l-32 6c-42 8-49 16-58 67l-8 43 18 141c19 142 25 211 35 385 3 52 10 129 16 170 5 41 14 119 20 173l9 98-29 30c-33 33-43 35-61 14zm-163-707c40-45 57-108 33-123l-10-6v-74l-20-55c-27-73-40-99-68-137l-24-32-33-11-33-11-26 7-27 6-23 32c-13 17-29 51-36 75l-11 43 5 32c3 17 10 56 16 86l11 55 24 40c24 42 60 79 85 88 8 3 38 6 66 6l51 1 20-22zm591-110c5-7 13-36 17-65l7-52-65-64-64-64-47-18c-25-10-49-15-52-13-9 10 26 129 56 188 31 62 41 72 85 88 41 14 51 14 63 0zM501 2094l-53-27-72-71-71-71-39-74c-39-75-45-91-72-211l-15-65 6-35c4-19 13-89 20-155l12-120-7-8-6-7 13-83c7-45 16-88 19-97 4-8 8-22 9-30 4-38 28-128 41-157 8-17 14-38 14-46 0-9 9-32 21-51l21-36 24-6c13-3 31-4 39-1l14 6 7 26 6 26-30 92-31 93-21 132c-11 73-25 196-30 274l-9 142 9 69 10 69 22 51c45 106 113 183 197 220l44 19 44-6c79-11 151-60 169-116 4-14 7-50 5-80l-2-55-23-64-23-63-53-54-53-53-19 25c-11 13-33 31-48 39l-29 15h-66l-27-25-26-24-7-41-7-42 12-44 13-45 25-19 25-20h52l32 20 33 19 9-18c6-10 26-37 45-59l34-42 7-52c20-152 71-322 104-342 5-4 16-3 24 0l16 6 10 49 11 49-12 27-11 28-1 61-1 61-12 14c-6 8-13 34-16 59-7 63-35 164-47 168-6 2-28 19-50 37l-40 34 47 38c25 21 66 55 89 76l43 38 31 76 31 75 6 68 6 68-17 48c-32 94-96 159-196 198l-45 17-65 5-65 5-54-27zm50-621 28-17 12-28 12-29-23-24-23-25h-18c-23 0-39 22-46 63l-5 34 11 22c14 25 15 25 52 4zm2104 394-26-22-6-42-6-42 31-31 30-30h70l31 26 31 26v86l-31 26-31 26h-67l-26-23zm112-19 23-21v-66l-12-7-11-7-13 18-13 17 11 18 11 17-6 16-6 16-33 10-33 9 29 1 30 1 23-22zm-87-55-1-68-19 24-20 23v22c0 20 25 66 36 66 2 0 4-30 4-67zm58 25c-3-7-12-14-21-16l-17-3v31h42l-4-12zm-4-63c21-33 21-35-12-35h-29l5 30c5 36 15 38 36 5z"/></g><g fill="#7f7e7e" transform="matrix(.1 0 0 -.1 0 300)"><path d="m2134 2362-11-7-12-85c-7-47-18-116-24-155-6-38-12-74-12-80-2-18-26-129-40-190-8-33-17-89-19-125-3-36-5-67-5-69-1-2-21 15-45 37l-44 40-56 7-57 7-40-6-40-6-28-32-29-32-17-51c-9-27-20-59-25-70-4-11-13-40-20-65s-18-58-25-75c-7-16-18-48-25-70-19-59-58-142-69-149l-10-7-7 26c-7 29 0 148 15 250 6 39 10 89 11 112v42l-22 21-22 20h-72l-16-28-17-28-11-106c-6-58-17-131-25-163-9-32-20-90-26-129l-10-71-27-40c-34-50-51-64-79-65h-23v12c0 6-12 27-27 47l-28 36v474l-12 12-12 12-35-7-36-7-10-20-11-20-10-115c-5-64-7-119-4-124 2-4 7-60 10-125l5-119 13-8 12-8h-26l7-12c4-7 9-22 10-34 3-31 39-76 76-99l31-18h105l46 27 46 27 41 54c23 30 43 55 44 55s19-7 39-15l37-16 39 11 39 10 24 30c14 16 35 52 48 80 12 27 25 50 29 50 3 0 13-13 23-29l17-29 43-21 43-21h99l40 19c22 10 49 28 59 40 25 27 40 27 60-4 9-14 27-32 41-41l24-16 72-12 73-12 9-30c6-16 21-46 34-67l24-38 29-6 30-6v-26l38-10c20-6 61-11 90-11h53l28 14c56 29 120 121 136 195l7 33-13-4-14-5-3-23c-4-25-5-26-58-88-21-24-46-48-57-54l-20-10h-43l-43 1-39 25-39 24-22 38-22 37 3 16 3 16 30 9c73 22 173 67 207 93 12 10 46 41 74 70l52 52 17 46 18 45-6 72-6 72-23 45-23 46-46 23-46 23h-54l-54 1-47-19c-25-10-67-32-92-50l-45-32-22-42c-30-59-59-170-65-248-3-36-7-71-9-78l-4-12-33 11c-40 14-45 20-52 72l-6 41 20 150c20 140 27 232 36 465l4 95 14 40 14 40 5 93 5 93-24 9-24 10v15c0 16-9 19-26 7zm-170-723c14-17 29-41 32-55l6-24-7-38c-5-20-9-44-10-52-3-23-42-135-55-162-7-12-28-42-47-65l-34-43h-79l-30 28-31 27-18 55-18 54 18 86c23 103 41 140 91 186l38 34h118l26-31zm590-106c3-10 8-38 11-63l7-46-34-40c-34-42-97-89-156-117l-33-16-5 13-5 14 16 57c45 153 92 212 172 214l22 1 5-17zM502 2091l-62-30-69-70-68-71-37-70-37-69-19-73-20-73v-60c0-33 7-115 14-181l15-122-6-21-6-22 13-77c7-42 16-81 20-87 3-5 12-41 20-80 7-38 22-89 32-112l19-43-6-10-6-10 15-6 16-6v-37l21-11 21-12 24 6 24 6 5 23 6 23-31 97-31 96-19 118c-11 65-25 187-31 272l-11 154 11 76 11 75 35 72 35 72 45 45 45 45 45 22 46 22 47-4c56-5 112-30 147-65l25-26 10-38 11-38-11-65c-6-36-19-84-29-108l-19-43-51-55-51-55-14 18c-8 10-29 30-47 43l-33 24h-74l-25-29-25-30-6-35-7-36 11-41 11-41 24-24 24-24h56l38 25 37 26v-35l39-47c41-47 47-64 55-134 7-61 25-144 47-211l20-61 19-21 20-21 14 5 14 5 6 31c8 42 8 93-1 102-5 4-8 38-8 74l-1 67-11 20c-6 11-16 47-22 80s-15 76-21 95l-10 35-50 40c-27 22-50 42-50 45 1 3 24 23 52 45 29 22 69 55 90 73l37 34 31 79 30 79 6 58 6 58-16 58-17 58-57 58-57 58-60 22-60 22-55 5-55 4-63-30zm54-619c12-9 29-31 37-48l16-31-29-22c-16-11-38-21-49-21h-19l-11 31c-14 40-14 65-1 90 13 23 28 24 56 1zm2113 403-26-14-13-30-12-31 6-26 7-26 26-24 26-24h69l29 29 29 29v74l-29 29-29 29h-29c-15-1-40-7-54-15zm101-25 20-20v-32c0-18-4-39-9-47l-8-13-16 22-16 22 11 18 11 17-6 17-6 16h-71v-109l10-6 10-6v51h9c11 0 41-39 41-52v-8h-69l-20 26-21 27v44l21 27 20 26h69l20-20zm-35-30v-15l-17-3-18-3v42l18-3 17-3v-15z"/></g><g fill="#454444" transform="matrix(.1 0 0 -.1 0 300)"><path d="M2133 2358c-6-7-16-50-23-95l-12-81 6-11 7-10-10-18c-6-10-15-47-22-83-6-36-18-96-26-135-29-140-32-161-32-212l-1-52-9-5-8-5-24 25c-13 14-37 33-54 42l-30 16h-77l-77 1-34-33-34-33-28-87c-15-48-32-103-38-122s-14-39-18-45c-3-5-16-39-28-75-28-83-63-155-76-155h-10l-3 80-3 80 10 55c5 30 13 87 16 127l7 72-26 25-25 26h-68l-11-22c-15-32-30-109-37-196-4-40-13-91-20-112-8-22-17-68-20-102-8-78-21-113-59-160l-29-38h-26l-26 1-30 47-30 47-6 80-7 80 9 153 9 153-14 15c-8 8-21 14-30 14-25 0-64-22-72-39-3-9-8-96-11-193l-4-177 12-63c6-35 13-80 15-100 4-46 14-65 53-102l31-29 54-5 54-4 35 11 35 12 33 33c30 30 60 67 81 99l7 11 26-12c14-7 43-12 63-12h37l32 19 32 20 34 71 34 71 28-37 28-36 41-19 41-19h35c19 0 51 5 71 10l35 10 41 35 41 35 23-31 22-32 41-17c23-10 65-21 94-25l53-7 24-53c12-29 32-62 44-74l21-21h49l-5-14-5-13 45-12c25-6 64-11 86-11h42l34 16 35 17 33 39 33 39 22 55 21 56-6 10-6 10-9-13c-5-8-9-25-9-38v-24l-6 6-7 6-30-46-31-46-42-18-42-19-33 6-34 6-47 32-48 31v17c0 9-4 20-10 23-5 3-10 17-10 30v23l33 7c17 4 73 26 122 50l90 43 59 60c72 73 86 98 93 166l5 51-16 65-17 65-30 31-30 31-38 12c-84 25-158 11-247-47l-59-38-27-55c-33-66-46-116-61-234l-12-90-10 1c-5 0-22 4-37 8l-28 8-10 37c-14 50-13 71 10 233 12 79 23 190 25 248s7 150 10 205l6 100 15 38 14 37v188l-20 5-20 5v16c0 19-14 21-27 4zm-163-725 32-36-6-68-7-68-20-57c-28-79-54-127-90-169l-31-35h-76l-31 25-30 26-20 55-21 55 20 90c23 104 35 129 84 182l35 37h129l32-37zm585-93c3-5 8-35 10-67l5-58-41-43c-62-64-158-124-185-115l-10 3 18 71c9 39 30 94 45 122l28 51 34 23 34 23h28c15 0 30-4 34-10zM539 2105c-156-57-281-218-334-428l-17-67 13-148c8-81 13-165 12-187-2-47 15-181 27-210 4-11 13-46 20-78 11-54 31-114 67-194l14-33 20-10 20-11 19 6 20 6v75l-26 75-25 74-24 155-24 155-7 140-6 140 11 60 11 59 30 65c17 36 46 84 66 107l34 43 57 32 56 32 45-1h45l55-29 56-28 20-35 21-35v-65l-1-65-24-64-23-64-53-56-52-56-40 39-40 38-44 5-43 5-24-26-24-26-7-37-6-38 9-40c4-22 14-50 22-62l14-21 31-7 30-7 45 27 45 26v-14c0-7 20-39 44-70l44-57 7-62c9-86 43-223 68-275l21-43h17c23 0 28 9 35 64l7 45-9 18c-5 10-9 41-10 68-1 28-7 73-14 100-6 28-21 87-32 131l-20 81-49 37c-27 20-49 40-49 44s34 35 76 67c91 72 103 88 139 185l28 75 1 70 1 70-23 50c-40 88-101 138-211 174-73 24-110 25-162 6zm19-631c12-8 29-29 38-46l16-30-22-23c-51-54-100-26-100 57v34l12 12c16 16 29 15 56-4zm2105 392-31-26-6-25-7-26 16-33 16-34 29-12 29-12 30 7 31 7 20 25 20 26v66l-22 26-23 26-36 5-35 6-31-26zm108-15 23-18v-75l-24-19-25-19h-59l-23 22-23 21v61l22 23 21 23h65l23-19zm-91-56v-55h20v40h29l6-20c3-11 11-20 16-20 12 0 11 14-2 27l-11 11 13 19 12 20-6 17-6 16h-71v-55zm58 22 3-17h-41v41l17-3 18-3 3-18z"/></g><g fill="#020202" transform="matrix(.1 0 0 -.1 0 300)"><path d="M2125 2348c-2-7-9-49-16-93l-11-79 11-4 12-4-11-13c-7-8-13-24-16-37-5-34-21-114-39-198-19-94-22-109-31-193-3-37-11-70-15-73l-9-5-22 24c-13 13-36 32-51 42l-28 18-79 1-78 1-24-25c-43-47-76-119-92-200-3-15-18-56-35-95-5-11-16-42-26-70-9-27-29-76-43-108l-26-57-11 3-10 4-6 44-6 44 8 60c5 33 12 110 15 171l7 111-24 17-23 16h-56l-15-23-15-23-15-127c-8-70-19-135-24-145-9-17-13-39-26-142-8-62-16-79-57-132l-30-38h-58l-10 23c-5 12-20 35-32 50l-23 28 1 174c1 95 5 198 8 228l7 56-25 16-24 16-31-16-31-15-5-23c-2-12-7-62-10-112l-5-90 10-135c6-74 14-159 18-187l8-53 25-26c47-52 117-66 192-39l38 13 29 29c16 15 30 34 30 41v12h26l17 30 18 30 29-15 29-15h69l31 26c31 26 47 50 76 117 10 20 20 37 24 37 3-1 15-15 26-33l20-32 37-18c20-10 52-21 70-23l34-6 41 11 42 12 47 35 47 36 10-18c28-50 93-84 160-84 16 0 36-4 46-10l18-9 13-33c7-18 24-47 37-65l23-32 28-3 27-3v-30l40-13 40-14 53 5 53 4 42 29 42 30 34 65 33 66-4 19-5 19-8-30c-5-16-12-34-17-40-47-58-78-89-102-102l-29-15-45 6-44 6-31 22c-18 12-37 27-42 33-15 15-35 63-35 84v18l45 13 45 13v18l10-6 9-6 52 26c59 30 62 32 136 100l55 50 21 40 21 40-1 66v65l-17 52-17 51-30 25-30 25-42 12-41 11-50-7-50-6-53-26c-68-34-99-65-129-128-30-64-44-119-57-228l-10-89-31 6c-17 4-37 13-44 20l-14 13-5 59-5 59 15 110c19 130 29 237 32 320 1 33 6 109 10 170l8 109 13 33 14 32v173l-20 5-20 5v28h-15c-9 0-18-6-20-12zm-163-695c9-10 23-32 31-49l16-31-10-44c-22-104-29-129-49-181-11-31-29-65-38-76-10-11-27-32-37-46l-20-26h-97l-29 31-29 31-15 52-15 51 20 95 21 94 35 48c20 26 43 52 52 58l17 9 66 1h66l15-17zm592-115 14-23 2-40c1-22 2-45 1-51-1-7-25-37-55-68l-54-55-57-27-56-27-9 9-9 9 19 67c10 37 34 96 52 130l33 63 45 17c58 22 57 22 74-4zM550 2107c-19-7-53-22-75-34l-41-21-57-61c-66-72-119-151-137-207-7-21-16-49-21-62s-9-32-9-43c0-10-5-28-12-38l-12-19 19-170 18-170-7-25-6-25 11-58c6-33 11-69 11-81 0-13 4-23 8-23s13-28 19-62c14-72 52-191 64-196 4-2 7-12 7-22 0-9 6-23 14-29l15-12 28 3 28 3 3 35 3 36-31 87c-17 48-33 106-36 130-3 23-12 85-20 137l-15 95-6 156-6 155 13 55c7 29 25 81 41 115l28 60 41 47 41 46 64 32 64 31 38-6c21-4 60-19 87-34l49-27 20-26 19-27 5-64 6-65-27-74-27-74-56-57-56-56-25 30-26 31-33 13c-18 8-41 14-51 14h-19l-28-24-29-25-4-59-4-59 15-30c9-16 23-35 32-43l16-13 31 1 31 1 28 20c33 24 39 26 39 8 0-7 19-36 43-64l43-50 13-99 13-99 24-77c13-42 33-86 43-99l18-22 15 5 15 6 7 50 6 49-14 34-13 34 5 14c6 18-14 133-41 236l-20 80-49 38c-26 20-48 41-48 46s33 36 74 68c88 69 110 99 142 193l25 71 1 58 1 57-18 54-18 53-44 44-44 44-52 25c-29 13-62 24-74 24s-24 4-27 8c-7 12-68 12-106-1zm17-639c11-13 26-34 33-47l13-25-32-28c-38-34-55-35-75-6l-16 22v37c0 21 3 44 6 53l6 16h45l20-22zm2117 412c-12-5-29-19-38-32l-16-22v-63l20-26 20-25 26-6 27-7 29 12 29 12 14 28c19 35 19 53 0 88l-14 29-32 11c-37 13-37 13-65 1zm94-36 22-25v-51l-29-29-29-29h-17c-24 0-72 27-79 45-17 46-2 91 39 114l20 11 25-5 25-6 23-25zm-87-51 2-58 4 28c2 15 7 27 11 27 3 0 17-12 29-27l23-28-11 27-12 27 13 16 12 15-12 15-12 15h-48l1-57zm49 27v-20h-40v40h40v-20z"/></g></g></svg>