<?xml version="1.0" encoding="utf-8"?>
<!-- Created by Progist Solutions on 3rd July 2023 -->
<svg version="1.2" baseProfile="tiny-ps" id="Layer_1" xmlns="http://www.w3.org/2000/svg" xmlns:xlink="http://www.w3.org/1999/xlink"
	  viewBox="0 0 100 100" xml:space="preserve">
	  <title>IndiaMART</title>
<path fill-rule="evenodd" fill="#373435" fill-opacity="0.251" d="M26.2,8.9c-1.4-0.1-2.8,0.6-3.8,1.6c-1,1-1.9,2.5-2.1,4.2
	c-0.3,2,0.1,3.7,1,5c0.9,1.5,2.3,2.3,4.1,2.4c1.7,0,3.2-0.9,4.4-2.3c1-1.4,1.6-3.1,1.6-5c-0.1-1.7-0.7-3.2-1.6-4.4
	C28.9,9.5,27.6,8.9,26.2,8.9z"/>
<path fill-rule="evenodd" fill="#373435" fill-opacity="0.251" d="M54.7,28c24.6,6.7,42.2,25.4,39.2,41.8c-3,16.5-25.4,24.5-50,18
	C19.2,81.2,1.6,62.5,4.7,46C7.6,29.4,29.9,21.4,54.7,28z"/>
<path fill-rule="evenodd" fill="#ED3237" d="M53.7,25.7c24.6,6.5,42.2,25.2,39.2,41.8s-25.4,24.5-50,18C18.2,78.8,0.7,60.1,3.7,43.7
	C6.7,27.2,29.1,19.1,53.7,25.7z"/>
<path fill-rule="evenodd" fill="#373435" fill-opacity="0.251" d="M59.9,5.6C62,5.6,64,6.5,65.7,8c1.6,1.6,2.8,3.9,3.2,6.7
	c0.3,2.9-0.2,5.6-1.6,7.7c-1.4,2.2-3.6,3.6-6.3,3.6c-2.6,0-4.9-1.3-6.6-3.4c-1.5-2.1-2.4-4.7-2.4-7.6c0.1-2.8,1-5,2.6-6.7
	C55.9,6.6,57.8,5.6,59.9,5.6z"/>
<path fill-rule="evenodd" fill="#ED3237" d="M59.9,5.6c2.1,0,4.1,0.9,5.6,2.4c1.7,1.5,2.9,3.8,3.2,6.4c0.5,2.9-0.1,5.5-1.5,7.6
	c-1.4,2.1-3.6,3.4-6.1,3.4s-5-1.3-6.6-3.3C52.9,20,52,17.4,52,14.7c0.1-2.6,1-4.9,2.4-6.5C55.8,6.6,57.7,5.6,59.9,5.6z"/>
<path fill-rule="evenodd" fill="#373435" fill-opacity="0.251" d="M59.9,5.6C62,5.6,64,6.5,65.6,8c1.7,1.6,2.9,3.9,3.4,6.7
	c0.3,2.9-0.2,5.6-1.6,7.7c-1.4,2.2-3.6,3.6-6.3,3.6c-2.6,0-4.9-1.3-6.6-3.4c-1.5-2.1-2.4-4.7-2.4-7.6c0.1-2.8,1-5,2.4-6.7
	C55.8,6.6,57.8,5.6,59.9,5.6z"/>
<path fill-rule="evenodd" fill="#ED3237" d="M59.8,5.6c2.2,0,4.2,0.9,5.7,2.4c1.6,1.5,2.9,3.8,3.2,6.4c0.5,2.9-0.2,5.5-1.5,7.6
	c-1.4,2.1-3.6,3.4-6.1,3.4c-2.7,0-5-1.3-6.6-3.3C52.9,20,52,17.4,52,14.7c0.1-2.6,1-4.9,2.4-6.5C55.8,6.6,57.7,5.6,59.8,5.6z"/>
<path fill-rule="evenodd" fill="#ED3237" d="M26.1,8.7c-1.4,0-2.8,0.6-3.8,1.6s-1.9,2.5-2.2,4.4c-0.2,1.8,0.2,3.7,1,5
	c1,1.4,2.4,2.3,4.2,2.3s3.2-0.9,4.4-2.3c1-1.4,1.6-3.1,1.6-4.9c-0.1-1.8-0.7-3.3-1.6-4.4S27.5,8.7,26.1,8.7z"/>
<path fill-rule="evenodd" fill="#FEFEFE" d="M17.9,72.9c0.9-11.2,1.6-22.1,2.4-33.3c0.2-3.3,0.7-8.9,4.4-10.1
	c1.6-0.6,3.6-0.1,4.8,2.1c2.6,4.7,5.8,16.1,10.4,24.9c0,3.3-0.1,7.1-0.1,10.3C34.5,60,31.6,51,29.2,44.5c-0.2-0.6-0.5-1.1-0.7-1.7
	c-0.1-0.7-0.7-0.9-0.9-0.3c-0.1,0.3-0.1,0.7-0.1,1.4s-0.1,1.3-0.1,2c-0.2,10.6-1.2,22.1-1.3,32.8C23.9,77.2,20.3,75,17.9,72.9z"/>
<path fill="#FEFEFE" d="M78.1,84.3c-2-11.9-3.9-24-5.9-36c-1.6-9.6-3-17.9-11.7-18.6c-11-0.9-12.9,20-18.9,26.7
	c0,2.2,0,7.3,0.2,11.1c5.9,0.1,11.3-17.1,13.2-21c2-5.2,1.5-2.1,1.9-0.9c0.2,4.9,0.8,11.4,1.2,15.5c0,0.7,0,1.1,0.1,1.4
	c0.8,8.5,1,16.9,1.5,25.4C65.3,87.7,72.6,86.8,78.1,84.3z"/>
</svg>
