<?xml version="1.0" encoding="utf-8"?>
<svg version="1.2" baseProfile="tiny-ps" xmlns="http://www.w3.org/2000/svg" xmlns:xlink="http://www.w3.org/1999/xlink"
    viewBox="0 0 113.4 113.4" xml:space="preserve">
    <title>GetResponse</title>
    <path fill="#00ABE9" d="M100.5,80.8c0,2.1-1.7,3.7-3.7,3.7H16.6c-2.1,0-3.7-1.7-3.7-3.7V32.6c0-2.1,1.7-3.7,3.7-3.7h80.1
			c2.1,0,3.7,1.7,3.7,3.7v48.2H100.5z" />
    <path fill="#FFFFFF" d="M99.6,30.2c-10.3,16.2-26.4,30.9-43,30.6c-6.1-0.1-13.1-1.9-19-6.7c-4.4-3.6-8.8-9.2-10.5-17.2
		c-0.7,0-1.2,0-1.8,0c-2.7,0-4.3,2.4-4,4.6c0.1,0.5,0.2,1.1,0.3,1.7c1.3,7.8,5.9,16.6,13.6,22.3c6,4.4,13.4,7.3,21.5,7.3
		c14.6,0,30.2-9.3,43.8-33.2v-7C100.5,31.7,100.2,30.9,99.6,30.2z" />
</svg>