<?xml version="1.0"?><svg version="1.2" baseProfile="tiny-ps" viewBox="0 0 300 300" xmlns="http://www.w3.org/2000/svg" xmlns:xlink="http://www.w3.org/1999/xlink"><title>affideaYour Brand/Organization</title><g><g fill="#408edd" transform="matrix(.1 0 0 -.1 0 300)"><path d="M1113 2759c-427-50-803-331-975-731l-39-91-27-106-26-106-1-165v-165l14-70c45-227 154-440 312-609l71-76 86-65 86-65 101-49c111-55 222-92 335-112l75-14 140 1h140l85 18c123 26 238 68 345 125l94 50 26-84 26-85h971l-6 23c-8 32-683 2283-702 2340l-16 47-521-1-522-2-72-8z"/></g><g fill="#3a81c8" transform="matrix(.1 0 0 -.1 0 300)"><path d="M1460 1207V350h8c19 0 170 42 222 61 56 21 194 90 224 112l18 13-147 484c-173 573-315 1033-321 1039-2 2-4-381-4-852z"/></g><g fill="#336fae" transform="matrix(.1 0 0 -.1 0 300)"><path d="M1591 1003c-1-343 1-623 4-623 33 0 267 105 318 143l17 12-154 505c-85 278-162 523-170 545l-15 40v-622z"/></g><g fill="#2a5b8f" transform="matrix(.1 0 0 -.1 0 300)"><path d="M1720 812V430h13c6 0 53 22 102 49l90 49-3 17c-5 25-193 639-198 644-2 2-4-167-4-377z"/></g></g></svg>