<?xml version="1.0" encoding="UTF-8"?>
<svg xmlns="http://www.w3.org/2000/svg" baseProfile="tiny-ps" version="1.2" viewBox="0 0 200 200">
  <!-- Generator: Adobe Illustrator 28.7.0, SVG Export Plug-In . SVG Version: 1.2.0 Build 136)  -->
  <title>FORTRA</title>
  <g>
    <g id="Layer_1">
      <g id="fortra-logo-sky-blue-dusk-green">
        <rect x="0" y="-1" width="201.2" height="201.2" fill="#004442"/>
      </g>
      <path d="M172,100.3l6.6,13.3h-13.2l6.6-13.3h0ZM157.6,118.5h28.8l-14.4-29.2-14.4,29.2h0Z" fill="#8fe5f2"/>
      <polygon points="10.1 89.8 10.1 118.5 15.4 118.5 15.4 107.2 31.5 107.2 31.5 102 15.4 102 15.4 95 31.5 95 31.5 89.8 10.1 89.8" fill="#8fe5f2"/>
      <path d="M85.4,103.5h-10.5v-8.6h10.5c2.3,0,4,1.9,4,4.3s-1.8,4.3-4,4.3M94.8,99.2c0-5.1-4.2-9.3-9.3-9.3h-15.8v28.7h5.3v-10.2h9.1l5.9,10.2h5.9l-6.5-11.1c3.2-1.5,5.4-4.8,5.4-8.3" fill="#8fe5f2"/>
      <path d="M144.6,103.5h-10.5v-8.6h10.5c2.3,0,4,1.9,4,4.3,0,2.5-1.8,4.3-4,4.3M154,99.2c0-5.1-4.2-9.3-9.3-9.3h-15.8v28.7h5.3v-10.2h9.1l5.9,10.2h5.9l-6.5-11.1c3.3-1.5,5.4-4.8,5.4-8.3" fill="#8fe5f2"/>
      <polygon points="97.8 89.8 97.8 95 108.6 95 108.6 118.5 113.9 118.5 113.9 95 124.6 95 124.6 89.8 97.8 89.8" fill="#8fe5f2"/>
      <path d="M50.6,113.8c-5.4,0-9.5-4.2-9.5-9.7s4.1-9.7,9.5-9.7,9.5,4.2,9.5,9.7c0,5.5-4.1,9.7-9.5,9.7M50.6,89.3c-8.3,0-14.9,6.5-14.9,14.9s6.5,14.9,14.9,14.9,14.9-6.5,14.9-14.9-6.5-14.9-14.9-14.9" fill="#8fe5f2"/>
    </g>
  </g>
</svg>