<?xml version="1.0" encoding="UTF-8"?>
<svg id="Layer_1" xmlns="http://www.w3.org/2000/svg" baseProfile="tiny-ps" version="1.2" viewBox="0 0 115 115">
  <title>RedZed Lending Solutions</title>
  <!-- Generator: Adobe Illustrator 29.0.1, SVG Export Plug-In . SVG Version: 2.1.0 Build 192)  -->
  <path d="M67.3,25.6c-1.8,2.1-6.3,7.4-6.3,7.4h-24.4c-2.7,0-4.9-2.8-4.9-6.3s2.1-6.3,4.7-6.3h30.5c2.3,0,2.5,2.7.4,5.2ZM67.5,12.1h-31.5c-6.9,0-12.4,7-12.4,14.6s6.8,14.5,11.5,14.5h18.7l-22,25.8s-7.6,8.8-9.4,13.8c-4.2,10.2,3.2,17.7,7.3,20.8-9.3-11.5,6.6-27.6,6.6-27.6l36.7-43s3.3-3.6,3.3-7.9c0-6.2-3.8-11-8.8-11Z" fill="red"/>
  <path d="M47.7,89.4c1.8-2.1,6.3-7.4,6.3-7.4h24.4c2.7,0,4.9,2.8,4.9,6.3s-2.1,6.3-4.7,6.3h-30.5c-2.3,0-2.5-2.7-.4-5.2ZM47.5,102.9h31.5c6.9,0,12.4-7,12.4-14.6s-6.8-14.5-11.5-14.5h-18.7l22-25.8s7.6-8.8,9.4-13.8c4.2-10.2-3.2-17.7-7.3-20.8,9.3,11.5-6.6,27.6-6.6,27.6l-36.7,43s-3.3,3.6-3.3,7.9c-.1,6.2,3.7,11,8.8,11Z" fill="red"/>
</svg>