<?xml version="1.0" encoding="utf-8"?>
<!-- Generator: Adobe Illustrator 25.3.1, SVG Export Plug-In . SVG Version: 6.00 Build 0)  -->
<svg version="1.2" baseProfile="tiny-ps" xmlns="http://www.w3.org/2000/svg" xmlns:xlink="http://www.w3.org/1999/xlink" viewBox="0 0 2000 2000" xml:space="preserve">
<title>SmartHR</title>
<g id="レイヤー_3">
	<rect fill="#00C4CC" width="2000" height="2000"/>
</g>
<g id="レイヤー_1">
	<g>
		<path fill="#FFFFFF" d="M1213.03,506.77c154.75,0,280.2,125.45,280.2,280.2v426.06c0,154.75-125.45,280.2-280.2,280.2H786.97
			c-154.75,0-280.2-125.45-280.2-280.2V786.97c0-154.75,125.45-280.2,280.2-280.2H1213.03 M1213.03,407.93H786.97
			c-51.13,0-100.78,10.04-147.57,29.83c-45.15,19.1-85.67,46.41-120.45,81.19c-34.78,34.78-62.1,75.3-81.19,120.45
			c-19.79,46.79-29.83,96.44-29.83,147.57v426.06c0,51.13,10.04,100.78,29.83,147.57c19.1,45.15,46.41,85.67,81.19,120.45
			c34.78,34.78,75.3,62.1,120.45,81.19c46.79,19.79,96.44,29.83,147.57,29.83h426.06c51.13,0,100.78-10.04,147.57-29.83
			c45.15-19.1,85.67-46.41,120.45-81.19c34.78-34.78,62.1-75.3,81.19-120.45c19.79-46.79,29.83-96.44,29.83-147.57V786.97
			c0-51.13-10.04-100.78-29.83-147.57c-19.1-45.15-46.41-85.67-81.19-120.45c-34.78-34.78-75.3-62.1-120.45-81.19
			C1313.81,417.96,1264.16,407.93,1213.03,407.93L1213.03,407.93z"/>
		<path fill="#FFFFFF" d="M938.63,1111.41c-5.41,0-10.9-0.89-16.3-2.77c-94.7-33.02-158.33-122.63-158.33-222.97
			c0-130.18,105.91-236.09,236.09-236.09c100.44,0,190.07,63.71,223.04,158.54c8.97,25.82-4.68,54.02-30.49,63
			c-25.83,8.98-54.02-4.68-63-30.49c-19.14-55.06-71.21-92.06-129.55-92.06c-75.6,0-137.1,61.5-137.1,137.1
			c0,58.29,36.95,110.33,91.94,129.51c25.81,9,39.44,37.22,30.44,63.03C978.24,1098.62,959.09,1111.41,938.63,1111.41z"/>
		<path fill="#FFFFFF" d="M999.92,1350.42c-100.44,0-190.08-63.71-223.04-158.54c-8.98-25.81,4.68-54.02,30.49-63
			c25.8-8.97,54.02,4.68,63,30.5c19.14,55.06,71.21,92.05,129.55,92.05c75.6,0,137.11-61.51,137.11-137.11
			c0-58.28-36.95-110.33-91.95-129.51c-25.81-9-39.43-37.22-30.43-63.03c9.01-25.81,37.22-39.43,63.03-30.44
			c94.7,33.02,158.33,122.63,158.33,222.97C1236.01,1244.51,1130.1,1350.42,999.92,1350.42z"/>
	</g>
</g>
</svg>
