<?xml version="1.0" encoding="UTF-8"?>
<svg version="1.2" baseProfile="tiny-ps" id="Layer_1" xmlns="http://www.w3.org/2000/svg" viewBox="0 0 690.31 222.7">
<title>Inox Wind</title>
<rect  fill="#01a551" stroke-width="0px" x="344.08" y=".21" width="346.23" height="155.91"/>
<rect  fill="#094e9a" stroke-width="0px" y=".21" width="344.08" height="155.91"/>
<polygon fill="#fff" fill-rule="evenodd" stroke-width="0px" points="243.18 0 298.07 155.66 319.25 155.66 265.25 0 243.18 0"/>
<polygon fill="#fff" fill-rule="evenodd" stroke-width="0px" points="42.38 18.47 65.28 18.47 28.14 141.08 5.51 141.08 42.38 18.47"/>
<polygon fill="none" stroke="#fff" stroke-width="1.01px" points="42.38 18.47 65.28 18.47 28.14 141.08 5.51 141.08 42.38 18.47"/>
<path fill="#fff" fill-rule="evenodd" stroke-width="0px" d="M70.87,18.47l52.78.28s27.09-1.96,22.34,27.93c-4.75,29.88,0,0,0,0l-27.56,94.59-22.18-.27,27-90.89s2.14-10.16-8.82-11.77c-10.96-1.6-23.53-.53-23.53-.53,0,0-5.07.27-7.75,12.3-2.67,12.03-26.73,91.42-26.73,91.42l-22.19-.54L70.87,18.47Z"/>
<polygon fill="#fff" fill-rule="evenodd" stroke-width="0px" points="236.62 142 339.23 19.99 318.95 19.09 214.84 140.8 236.62 142"/>
<path fill="#fff" fill-rule="evenodd" stroke-width="0px" d="M353.02,19.36l11.34,123.8h1.23s37.86-65.9,37.86-65.9c0,0,3.86-8.63,4.77.91.91,9.54,9.09,65.2,9.09,65.2l2.07.06,62.96-123.28h-16.75l-37.19,71.53-10.22-70.4-1.41-.03-40.03,69.29-6.24-71.25-17.48.05Z"/>
<polygon fill="#fff" fill-rule="evenodd" stroke-width="0px" points="487.55 20.05 510.45 20.05 473.31 142.66 450.69 142.66 487.55 20.05"/>
<path fill="#fff" fill-rule="evenodd" stroke-width="0px" d="M516.04,20.05l52.79.28s27.09-1.95,22.34,27.93c-4.75,29.88,0,0,0,0l-27.56,94.59-22.18-.27,27-90.89s2.14-10.16-8.82-11.77c-10.96-1.6-23.52-.53-23.52-.53,0,0-5.08.27-7.75,12.3-2.67,12.03-26.73,91.42-26.73,91.42l-22.19-.53,36.63-122.54Z"/>
<path fill="#fff" fill-rule="evenodd" stroke-width="0px" d="M606.46,20.04l38.54-.35s52.33,1.77,35.36,63.29c0,0-17.32,53.39-70.37,59.75l-40.65-.25,37.12-122.45Z"/>
<path fill="#fff" fill-rule="evenodd" stroke-width="0px" d="M149.13,68.29s16.99-46.16,58.39-49.3c41.4-3.14,34.02,43.58,34.02,43.58,0,0-10.7,75.31-66.13,77.29-55.43,1.98-26.28-71.57-26.28-71.57Z"/>
<path  fill="#094e9a" stroke-width="0px" fill-rule="evenodd" d="M182.42,46.77c-20.31,16.87-30.1,56.28-21.08,66.87,12.81,15.05,43.07,10.72,59.24-30.89,9.01-23.19,7.8-40.15-3.99-45.43-10.81-4.83-21.81-.82-34.17,9.45Z"/>
<polygon fill="#fff" fill-rule="evenodd" stroke-width="0px" points="243.17 .19 265.75 .2 285.55 57.79 319.12 19.09 339.17 19.56 291.67 76.44 319.58 156.11 298.25 156.11 276.51 94.66 236.76 141.93 214.64 140.79 269.84 76.18 243.17 .19"/>
<path fill="#fff" fill-rule="evenodd" stroke-width="0px" d="M353,19.28l11.35,123.88h1.3l38.24-66.5c1.92-3.89,3.26-3.92,4.01-.09l9.42,66.81,2.08.02,63-123.22-16.73-.07-37.22,71.6-10.24-70.48h-1.44s-40.05,69.29-40.05,69.29l-6.13-71.37-17.58.12Z"/>
<polygon fill="#fff" fill-rule="evenodd" stroke-width="0px" points="487.41 19.83 450.62 142.46 473.15 142.52 510.49 19.94 487.41 19.83"/>
<path fill="#fff" fill-rule="evenodd" stroke-width="0px" d="M516.17,20.17l-36.76,122.76,22.16.33,27.08-93.05c1.99-8.21,5.66-11.05,11.82-10.67,6.34-.39,12.69-.26,19.04.66,8.92,1.47,11.05,7.32,7.38,16.57l-25.44,86.16h22.16l27.57-94.04c2.41-17.12-3.78-26.43-18.88-28.23l-56.13-.5Z"/>
<path fill="#fff" fill-rule="evenodd" stroke-width="0px" d="M606.21,20.16l-37,122.36,39.75.19c16.39-.97,33.67-9.97,44.37-19.6,17.83-16.06,32.34-42.88,30.41-65.66-1.71-20.22-14.03-35.54-38.94-37.75l-38.59.47Z"/>
<path  fill="#01a551" stroke-width="0px" fill-rule="evenodd" d="M621.32,38.23l-24.91,84.69c5.33.5,10.82.64,16.45-.34,16.59-2.89,31.89-14.34,40.59-31.19,7.5-14.52,7.86-29.22,2.06-40.79-5.22-10.42-18.33-12.96-34.2-12.37Z"/>

<path  fill="#094e9a" stroke-width="0px" d="M174.08,195.24l.03.14c.05.88.08,1.56.08,2.01,0,1.6-.15,3.08-.46,4.44-.31,1.36-.76,2.58-1.35,3.66-1.75,3.11-3.98,5.45-6.69,7.02-2.71,1.57-5.89,2.36-9.52,2.36-2.71,0-5.21-.45-7.52-1.35-2.3-.9-4.3-2.2-6-3.91-1.76-1.77-3.08-3.79-3.95-6.05-.87-2.26-1.31-4.81-1.31-7.63s.44-5.31,1.32-7.61c.88-2.3,2.2-4.34,3.94-6.12,1.66-1.68,3.64-2.96,5.94-3.86,2.3-.89,4.81-1.34,7.52-1.34,3.3,0,6.17.58,8.6,1.74,2.44,1.16,4.58,2.97,6.43,5.42l-4.56,3.2c-1.26-1.89-2.73-3.3-4.43-4.21-1.69-.91-3.68-1.37-5.94-1.37-3.82,0-6.88,1.28-9.16,3.83-2.29,2.55-3.43,5.99-3.43,10.31s1.16,7.68,3.48,10.27c2.32,2.59,5.36,3.89,9.11,3.89,3.28,0,5.99-.95,8.13-2.85,2.14-1.9,3.29-4.39,3.44-7.47h-10.5v-4.53h16.79Z"/>
<path  fill="#094e9a" stroke-width="0px" d="M181.12,214.12v-27.55h5.63c-.02,1.04-.07,2.14-.16,3.29-.09,1.16-.21,2.45-.37,3.87,1.05-2.58,2.25-4.48,3.61-5.71,1.36-1.23,2.94-1.84,4.74-1.84.44,0,.9.05,1.4.15.5.1,1.09.26,1.77.47l-1.34,5.72c-.52-.23-1-.4-1.44-.5-.44-.11-.87-.16-1.31-.16-2.04,0-3.67.88-4.88,2.65-1.21,1.77-1.82,4.16-1.82,7.18v12.42h-5.84Z"/>
<path  fill="#094e9a" stroke-width="0px" d="M221.74,209.11c-1.43,1.97-3.07,3.42-4.91,4.36-1.84.94-3.98,1.41-6.4,1.41-4.17,0-7.45-1.29-9.83-3.87-2.38-2.58-3.57-6.13-3.57-10.66s1.18-8.01,3.53-10.62c2.36-2.61,5.53-3.91,9.53-3.91s7.26,1.32,9.57,3.95c2.31,2.63,3.47,6.28,3.47,10.95v.48h-20.22v.6c0,2.58.72,4.68,2.15,6.31,1.43,1.63,3.24,2.45,5.42,2.45,1.45,0,2.74-.32,3.88-.96,1.13-.64,2.22-1.66,3.25-3.07l4.14,2.59ZM202.86,197.76h14.74c-.26-2.52-1.03-4.45-2.29-5.8-1.27-1.35-2.95-2.02-5.04-2.02s-3.81.68-5.09,2.04c-1.28,1.36-2.06,3.29-2.32,5.79Z"/>
<path  fill="#094e9a" stroke-width="0px" d="M251.56,209.11c-1.43,1.97-3.07,3.42-4.91,4.36-1.84.94-3.98,1.41-6.4,1.41-4.17,0-7.45-1.29-9.83-3.87-2.38-2.58-3.57-6.13-3.57-10.66s1.18-8.01,3.53-10.62c2.36-2.61,5.53-3.91,9.53-3.91s7.26,1.32,9.57,3.95c2.31,2.63,3.47,6.28,3.47,10.95v.48h-20.22v.6c0,2.58.72,4.68,2.15,6.31,1.43,1.63,3.24,2.45,5.42,2.45,1.45,0,2.74-.32,3.88-.96,1.13-.64,2.22-1.66,3.25-3.07l4.14,2.59ZM232.68,197.76h14.74c-.26-2.52-1.03-4.45-2.29-5.8-1.27-1.35-2.95-2.02-5.04-2.02s-3.81.68-5.09,2.04c-1.28,1.36-2.06,3.29-2.32,5.79Z"/>
<path  fill="#094e9a" stroke-width="0px" d="M276.99,214.12v-17.16c0-2.12-.38-3.68-1.14-4.68-.76-1-1.95-1.5-3.57-1.5-2.15,0-3.88.89-5.19,2.68-1.31,1.78-1.96,4.19-1.96,7.21v13.45h-5.84v-27.55h5.29c-.03,1.23-.11,2.45-.22,3.65-.11,1.2-.25,2.37-.41,3.51.96-2.47,2.3-4.35,4.01-5.63,1.71-1.28,3.74-1.92,6.08-1.92,2.83,0,5,.83,6.52,2.49,1.52,1.66,2.28,4.03,2.28,7.12v18.33h-5.84Z"/>
<path  fill="#094e9a" stroke-width="0px" d="M298.93,180.58c0,.99-.42,1.8-1.26,2.43-.84.63-1.93.94-3.27.94s-2.4-.31-3.22-.93c-.82-.62-1.23-1.43-1.23-2.44s.41-1.82,1.22-2.43c.81-.61,1.89-.92,3.23-.92s2.46.31,3.29.92c.83.61,1.24,1.42,1.24,2.43ZM291.52,214.12v-26.66h5.84v26.66h-5.84Z"/>
<path  fill="#094e9a" stroke-width="0px" d="M323.92,214.12v-17.16c0-2.12-.38-3.68-1.14-4.68-.76-1-1.95-1.5-3.57-1.5-2.15,0-3.88.89-5.19,2.68-1.31,1.78-1.96,4.19-1.96,7.21v13.45h-5.84v-27.55h5.29c-.03,1.23-.11,2.45-.22,3.65-.11,1.2-.25,2.37-.41,3.51.96-2.47,2.3-4.35,4.01-5.63,1.71-1.28,3.74-1.92,6.08-1.92,2.83,0,5,.83,6.52,2.49,1.52,1.66,2.28,4.03,2.28,7.12v18.33h-5.84Z"/>
<path  fill="#094e9a" stroke-width="0px" d="M343.06,216.18c.68,1.05,1.47,1.8,2.37,2.24.9.44,2.07.66,3.52.66,2.48,0,4.3-.67,5.46-2.03,1.16-1.35,1.74-3.45,1.74-6.3,0-.41-.04-1.07-.11-1.97v-.25c-.85,1.57-1.97,2.76-3.34,3.57-1.37.81-2.95,1.21-4.73,1.21-3.28,0-5.97-1.24-8.07-3.73-2.1-2.49-3.14-5.74-3.14-9.77s1.05-7.44,3.16-9.92c2.1-2.48,4.88-3.72,8.34-3.72,1.97,0,3.72.53,5.25,1.6,1.53,1.07,2.75,2.62,3.65,4.64-.26-1.05-.45-2.07-.58-3.04-.12-.98-.18-1.91-.18-2.81h5.68v23.34c0,2.24-.23,4.07-.69,5.49-.46,1.42-1.22,2.65-2.27,3.68-1.13,1.14-2.58,2.03-4.35,2.67-1.76.63-3.69.95-5.79.95-2.95,0-5.37-.43-7.27-1.29-1.89-.86-3.24-2.15-4.05-3.86l5.37-1.37ZM349.55,209.06c2.08,0,3.74-.82,4.99-2.47,1.25-1.65,1.87-3.87,1.87-6.68s-.61-5.01-1.85-6.66c-1.23-1.65-2.87-2.47-4.91-2.47s-3.78.82-5.02,2.46c-1.23,1.64-1.85,3.86-1.85,6.67s.61,5.03,1.83,6.68c1.22,1.65,2.86,2.47,4.92,2.47Z"/>

<path  fill="#094e9a" stroke-width="0px" d="M387.83,215.47v-35.85h9.15v35.85h-9.15Z"/>
<path  fill="#094e9a" stroke-width="0px" d="M432.74,215.47l-13.47-19.74c-.38-.57-.75-1.3-1.12-2.19s-.71-1.9-1.02-3.03c.16,1.42.27,2.76.35,4.03.08,1.27.12,2.45.12,3.53v17.39h-7.99v-35.85h7.94l12.87,19.02c.67.98,1.23,1.97,1.67,2.97.44,1,.78,2.03,1.02,3.08-.17-1.5-.3-2.89-.39-4.17-.09-1.27-.13-2.4-.13-3.38v-17.53h8.04v35.85h-7.89Z"/>
<path  fill="#094e9a" stroke-width="0px" d="M453.23,215.47v-35.85h11.84c3.12,0,5.77.15,7.96.46,2.19.31,3.95.79,5.27,1.43,3.19,1.55,5.61,3.68,7.26,6.38,1.66,2.7,2.48,5.88,2.48,9.52s-.77,6.77-2.31,9.42c-1.54,2.65-3.84,4.77-6.89,6.37-1.52.8-3.44,1.37-5.76,1.73-2.33.35-5.44.53-9.33.53h-10.52ZM466.08,186.65h-3.75v21.75h3.75c4.2,0,7.36-.91,9.46-2.73,2.1-1.82,3.15-4.56,3.15-8.2s-1.04-6.34-3.13-8.13c-2.09-1.79-5.25-2.69-9.49-2.69Z"/>
<path  fill="#094e9a" stroke-width="0px" d="M498.34,215.47v-35.85h9.15v35.85h-9.15Z"/>
<path  fill="#094e9a" stroke-width="0px" d="M527.04,208.63l-2.17,6.84h-9.25l13.34-35.85h10l13.34,35.85h-9.2l-2.17-6.84h-13.88ZM528.3,202.94h10.6l-5.25-16.94-5.35,16.94Z"/>

</svg>