<?xml version="1.0" encoding="utf-8"?>
<svg width="500" height="500" viewBox="0 0 500 500" fill="none" version="1.2" baseProfile="tiny-ps" xmlns="http://www.w3.org/2000/svg" xml:space="preserve">
<title>VitaMoment</title>
<rect width="500" height="500" fill="#FFFFFF"/>
<path d="M104.14 149C63.3799 185.287 43 220.385 43 254.295C43.905 291.829 65.8829 324.064 108.934 351C146.803 322.526 165.091 290.291 163.799 254.295C162.528 220.804 142.641 185.706 104.14 149Z" fill="#ABD855"/>
<path d="M65.6497 279.392C66.1176 279.392 66.5417 279.273 66.9219 279.035C67.3021 278.798 67.58 278.501 67.7555 278.145L81.6186 240.025C81.6771 239.847 81.7502 239.639 81.8379 239.401C81.9257 239.164 81.9696 238.897 81.9696 238.6C81.9696 238.243 81.8233 237.902 81.5309 237.575C81.2384 237.249 80.902 237.011 80.5218 236.863C80.1416 236.714 79.776 236.64 79.4251 236.64C78.8401 236.64 78.4307 236.804 78.1967 237.13C77.9627 237.457 77.7872 237.828 77.6702 238.243L65.6497 271.376L53.6291 237.709C53.5121 237.353 53.2781 237.086 52.9272 236.907C52.5762 236.729 52.2252 236.64 51.8743 236.64C51.4648 236.64 51.0846 236.729 50.7336 236.907C50.3827 237.086 50.0756 237.338 49.8124 237.664C49.5491 237.991 49.4175 238.332 49.4175 238.689C49.4175 238.867 49.4614 239.104 49.5491 239.401C49.6369 239.698 49.71 239.906 49.7685 240.025L63.6316 278.145C63.8071 278.56 64.0703 278.872 64.4213 279.08C64.7723 279.288 65.1817 279.392 65.6497 279.392ZM91.2595 223.459C92.1954 223.459 92.9705 223.132 93.5847 222.479C94.1989 221.826 94.506 221.054 94.506 220.163C94.506 219.272 94.1989 218.53 93.5847 217.937C92.9705 217.343 92.1954 217.046 91.2595 217.046C90.3821 217.046 89.6071 217.343 88.9344 217.937C88.2617 218.53 87.9254 219.272 87.9254 220.163C87.9254 221.054 88.2617 221.826 88.9344 222.479C89.6071 223.132 90.3821 223.459 91.2595 223.459ZM91.2595 278.768C91.903 278.768 92.4294 278.575 92.8389 278.189C93.2483 277.803 93.4531 277.373 93.4531 276.898V238.511C93.4531 237.976 93.2483 237.546 92.8389 237.219C92.4294 236.893 91.903 236.729 91.2595 236.729C90.6746 236.729 90.1774 236.893 89.7679 237.219C89.3585 237.546 89.1537 237.976 89.1537 238.511V276.898C89.1537 277.373 89.3585 277.803 89.7679 278.189C90.1774 278.575 90.6746 278.768 91.2595 278.768ZM120.255 278.768C120.899 278.768 121.396 278.56 121.747 278.145C122.098 277.729 122.273 277.254 122.273 276.72C122.273 276.126 122.098 275.636 121.747 275.25C121.396 274.864 120.899 274.671 120.255 274.671H118.062C114.786 274.671 112.461 274.018 111.086 272.712C109.712 271.405 109.025 269.208 109.025 266.121V240.559H120.694C121.162 240.559 121.557 240.366 121.879 239.98C122.2 239.594 122.361 239.164 122.361 238.689C122.361 238.095 122.2 237.62 121.879 237.264C121.557 236.907 121.162 236.729 120.694 236.729H109.025V218.204C109.025 217.61 108.805 217.15 108.366 216.823C107.928 216.497 107.416 216.333 106.831 216.333C106.363 216.333 105.895 216.497 105.427 216.823C104.959 217.15 104.725 217.61 104.725 218.204V266.121C104.725 270.515 105.866 273.721 108.147 275.74C110.428 277.759 113.733 278.768 118.062 278.768H120.255ZM139.004 279.302C141.928 279.302 144.487 278.605 146.681 277.209C148.874 275.814 150.702 274.255 152.165 272.534V276.898C152.165 277.373 152.369 277.803 152.779 278.189C153.188 278.575 153.686 278.768 154.271 278.768C154.914 278.768 155.426 278.575 155.806 278.189C156.186 277.803 156.376 277.373 156.376 276.898V253.295C156.376 250.327 155.894 247.551 154.929 244.968C153.963 242.385 152.384 240.277 150.191 238.644C147.997 237.011 144.999 236.195 141.197 236.195C139.442 236.195 137.687 236.388 135.933 236.774C134.178 237.16 132.73 237.664 131.589 238.288C130.449 238.911 129.878 239.579 129.878 240.292C129.878 240.708 130.054 241.212 130.405 241.806C130.756 242.4 131.224 242.697 131.809 242.697C132.218 242.697 132.788 242.474 133.52 242.029C134.251 241.583 135.216 241.168 136.415 240.782C137.614 240.396 139.15 240.203 141.022 240.203C143.712 240.203 145.862 240.856 147.471 242.162C149.079 243.469 150.249 245.131 150.98 247.15C151.711 249.169 152.077 251.217 152.077 253.295V255.611H147.339C143.303 255.611 139.749 255.953 136.678 256.635C133.607 257.318 131.209 258.521 129.484 260.243C127.758 261.964 126.895 264.399 126.895 267.546C126.895 271.524 128.065 274.478 130.405 276.408C132.745 278.338 135.611 279.302 139.004 279.302ZM139.618 275.384C137.278 275.384 135.289 274.745 133.651 273.469C132.013 272.192 131.195 270.158 131.195 267.368C131.195 264.874 131.984 263.048 133.564 261.89C135.143 260.732 137.19 259.99 139.705 259.664C142.221 259.337 144.911 259.174 147.778 259.174H152.077V265.854C152.077 267.101 151.463 268.481 150.234 269.995C149.006 271.509 147.441 272.786 145.54 273.825C143.639 274.864 141.665 275.384 139.618 275.384Z" fill="white"/>
<path d="M223.038 278.695C224.33 278.695 225.417 278.376 226.299 277.738C227.18 277.1 227.621 276.404 227.621 275.649V254.066C227.621 250.411 226.886 247.307 225.417 244.754C223.949 242.201 222.054 240.257 219.733 238.923C217.412 237.588 214.929 236.921 212.285 236.921C209.759 236.921 207.291 237.632 204.882 239.053C202.473 240.475 200.505 242.665 198.977 245.624C197.978 243.071 196.465 240.983 194.438 239.358C192.411 237.733 190.046 236.921 187.343 236.921C184.405 236.921 181.967 237.603 180.028 238.966C178.089 240.33 176.62 241.853 175.621 243.535V240.402C175.621 239.474 175.225 238.749 174.431 238.227C173.638 237.704 172.683 237.443 171.567 237.443C170.274 237.443 169.202 237.704 168.35 238.227C167.498 238.749 167.072 239.474 167.072 240.402V275.649C167.072 276.404 167.498 277.1 168.35 277.738C169.202 278.376 170.274 278.695 171.567 278.695C172.801 278.695 173.873 278.376 174.784 277.738C175.695 277.1 176.15 276.404 176.15 275.649V254.066C176.15 252.035 176.547 250.338 177.34 248.975C178.133 247.611 179.176 246.581 180.469 245.885C181.761 245.189 183.113 244.841 184.523 244.841C185.992 244.841 187.358 245.218 188.621 245.972C189.884 246.726 190.898 247.771 191.662 249.105C192.426 250.44 192.808 252.035 192.808 253.892V275.736C192.808 276.781 193.292 277.535 194.262 277.999C195.231 278.463 196.245 278.695 197.302 278.695C198.419 278.695 199.462 278.463 200.431 277.999C201.401 277.535 201.885 276.781 201.885 275.736V253.805C201.885 251.89 202.297 250.266 203.119 248.931C203.942 247.597 204.985 246.581 206.248 245.885C207.511 245.189 208.848 244.841 210.258 244.841C211.61 244.841 212.932 245.189 214.224 245.885C215.517 246.581 216.56 247.611 217.353 248.975C218.146 250.338 218.543 252.035 218.543 254.066V275.649C218.543 276.404 218.998 277.1 219.909 277.738C220.82 278.376 221.863 278.695 223.038 278.695ZM253.315 279.392C256.605 279.392 259.631 278.579 262.393 276.955C265.155 275.33 267.358 273.198 269.003 270.558C270.648 267.918 271.471 265.09 271.471 262.073V254.066C271.471 250.875 270.648 247.988 269.003 245.407C267.358 242.825 265.155 240.765 262.393 239.227C259.631 237.69 256.605 236.921 253.315 236.921C250.025 236.921 246.999 237.704 244.237 239.271C241.476 240.837 239.287 242.926 237.671 245.537C236.055 248.148 235.247 250.991 235.247 254.066V262.073C235.247 265.148 236.085 268.005 237.759 270.645C239.434 273.285 241.652 275.403 244.413 276.998C247.175 278.594 250.142 279.392 253.315 279.392ZM253.315 271.472C251.67 271.472 250.157 271.022 248.776 270.123C247.395 269.224 246.308 268.063 245.515 266.642C244.722 265.22 244.325 263.697 244.325 262.073V254.066C244.325 252.499 244.722 251.02 245.515 249.627C246.308 248.235 247.381 247.089 248.732 246.19C250.083 245.29 251.611 244.841 253.315 244.841C255.019 244.841 256.561 245.29 257.942 246.19C259.323 247.089 260.425 248.235 261.247 249.627C262.07 251.02 262.481 252.499 262.481 254.066V262.073C262.481 263.697 262.055 265.22 261.203 266.642C260.351 268.063 259.25 269.224 257.898 270.123C256.547 271.022 255.019 271.472 253.315 271.472ZM335.46 278.695C336.753 278.695 337.84 278.376 338.721 277.738C339.603 277.1 340.043 276.404 340.043 275.649V254.066C340.043 250.411 339.309 247.307 337.84 244.754C336.371 242.201 334.476 240.257 332.155 238.923C329.835 237.588 327.352 236.921 324.708 236.921C322.181 236.921 319.714 237.632 317.305 239.053C314.896 240.475 312.927 242.665 311.4 245.624C310.401 243.071 308.888 240.983 306.861 239.358C304.834 237.733 302.469 236.921 299.766 236.921C296.828 236.921 294.39 237.603 292.451 238.966C290.512 240.33 289.043 241.853 288.044 243.535V240.402C288.044 239.474 287.647 238.749 286.854 238.227C286.061 237.704 285.106 237.443 283.99 237.443C282.697 237.443 281.625 237.704 280.773 238.227C279.921 238.749 279.495 239.474 279.495 240.402V275.649C279.495 276.404 279.921 277.1 280.773 277.738C281.625 278.376 282.697 278.695 283.99 278.695C285.224 278.695 286.296 278.376 287.207 277.738C288.117 277.1 288.573 276.404 288.573 275.649V254.066C288.573 252.035 288.969 250.338 289.763 248.975C290.556 247.611 291.599 246.581 292.891 245.885C294.184 245.189 295.535 244.841 296.946 244.841C298.414 244.841 299.781 245.218 301.044 245.972C302.307 246.726 303.321 247.771 304.085 249.105C304.848 250.44 305.23 252.035 305.23 253.892V275.736C305.23 276.781 305.715 277.535 306.684 277.999C307.654 278.463 308.667 278.695 309.725 278.695C310.841 278.695 311.884 278.463 312.854 277.999C313.823 277.535 314.308 276.781 314.308 275.736V253.805C314.308 251.89 314.719 250.266 315.542 248.931C316.365 247.597 317.408 246.581 318.671 245.885C319.934 245.189 321.271 244.841 322.681 244.841C324.032 244.841 325.354 245.189 326.647 245.885C327.94 246.581 328.983 247.611 329.776 248.975C330.569 250.338 330.966 252.035 330.966 254.066V275.649C330.966 276.404 331.421 277.1 332.332 277.738C333.242 278.376 334.285 278.695 335.46 278.695ZM368.029 279.392C371.026 279.392 373.611 279.029 375.785 278.304C377.959 277.578 379.634 276.694 380.809 275.649C381.984 274.605 382.572 273.648 382.572 272.777C382.572 272.313 382.439 271.762 382.175 271.124C381.911 270.486 381.514 269.934 380.985 269.47C380.456 269.006 379.81 268.774 379.046 268.774C378.282 268.774 377.474 269.05 376.622 269.601C375.77 270.152 374.698 270.718 373.406 271.298C372.113 271.878 370.409 272.168 368.294 272.168C364.945 272.168 362.183 271.298 360.009 269.557C357.835 267.817 356.748 265.467 356.748 262.508V260.506H375.433C376.784 260.506 378.062 260.376 379.267 260.115C380.471 259.853 381.47 259.201 382.263 258.156C383.056 257.112 383.453 255.4 383.453 253.022C383.453 249.889 382.645 247.104 381.029 244.667C379.413 242.23 377.283 240.33 374.639 238.966C371.995 237.603 369.116 236.921 366.002 236.921C362.653 236.921 359.598 237.69 356.836 239.227C354.075 240.765 351.857 242.81 350.182 245.363C348.507 247.916 347.67 250.73 347.67 253.805V262.073C347.67 265.554 348.552 268.585 350.314 271.167C352.077 273.749 354.486 275.765 357.541 277.216C360.597 278.666 364.093 279.392 368.029 279.392ZM371.555 254.849H356.748V252.064C356.748 250.44 357.174 249.004 358.026 247.756C358.878 246.509 359.98 245.523 361.331 244.797C362.682 244.072 364.181 243.709 365.826 243.709C367.589 243.709 369.146 244.101 370.497 244.884C371.848 245.668 372.921 246.712 373.714 248.017C374.507 249.323 374.904 250.759 374.904 252.325C374.904 253.312 374.683 253.979 374.243 254.327C373.802 254.675 372.906 254.849 371.555 254.849ZM422.087 278.695C423.203 278.695 424.232 278.449 425.172 277.956C426.112 277.462 426.582 276.694 426.582 275.649V254.066C426.582 250.875 425.891 247.988 424.511 245.407C423.13 242.825 421.264 240.765 418.914 239.227C416.564 237.69 414.008 236.921 411.246 236.921C408.309 236.921 405.826 237.603 403.799 238.966C401.772 240.33 400.318 241.853 399.436 243.535V240.402C399.436 239.474 399.04 238.749 398.246 238.227C397.453 237.704 396.498 237.443 395.382 237.443C394.089 237.443 393.017 237.704 392.165 238.227C391.313 238.749 390.887 239.474 390.887 240.402V275.649C390.887 276.404 391.313 277.1 392.165 277.738C393.017 278.376 394.089 278.695 395.382 278.695C396.616 278.695 397.688 278.376 398.599 277.738C399.51 277.1 399.965 276.404 399.965 275.649V254.066C399.965 252.093 400.376 250.44 401.199 249.105C402.022 247.771 403.094 246.726 404.416 245.972C405.738 245.218 407.104 244.841 408.514 244.841C410.218 244.841 411.746 245.29 413.097 246.19C414.449 247.089 415.536 248.235 416.358 249.627C417.181 251.02 417.592 252.499 417.592 254.066V275.649C417.592 276.694 418.077 277.462 419.046 277.956C420.016 278.449 421.029 278.695 422.087 278.695ZM453.946 278.695C455.297 278.695 456.296 278.304 456.942 277.52C457.589 276.737 457.912 275.852 457.912 274.866C457.912 273.822 457.589 272.908 456.942 272.125C456.296 271.341 455.297 270.95 453.946 270.95H450.949C448.658 270.95 447.042 270.515 446.102 269.644C445.162 268.774 444.692 267.265 444.692 265.119V244.145H455.444C456.267 244.145 456.898 243.796 457.339 243.1C457.78 242.404 458 241.65 458 240.837C458 239.967 457.78 239.184 457.339 238.488C456.898 237.791 456.267 237.443 455.444 237.443H444.692V221.43C444.692 220.56 444.207 219.849 443.237 219.298C442.268 218.746 441.225 218.471 440.109 218.471C439.051 218.471 438.037 218.746 437.068 219.298C436.098 219.849 435.614 220.56 435.614 221.43V265.119C435.614 269.876 436.936 273.328 439.58 275.475C442.224 277.622 446.014 278.695 450.949 278.695H453.946Z" fill="#35383B"/>
</svg>