<?xml version="1.0" encoding="iso-8859-1"?>
<!-- Generator: Adobe Illustrator 28.1.0, SVG Export Plug-In . SVG Version: 6.00 Build 0)  -->
<svg version="1.2" baseProfile="tiny-ps" id="Layer_1" xmlns="http://www.w3.org/2000/svg" xmlns:xlink="http://www.w3.org/1999/xlink"
	  viewBox="0 0 150 150" xml:space="preserve">
<title>Cedars-Sinai Medical Center</title>	  
<g>
	<g>
		<g>
			<path fill="#76777A" d="M78.852,60.515l-2.394,1.466c-0.788-1.207-2.055-1.924-3.61-1.924c-2.534,0-4.408,1.855-4.408,4.568
				c0.009,2.803,1.944,4.568,4.408,4.568c1.546,0,2.803-0.698,3.64-1.915l2.274,1.636c-1.237,1.815-3.341,2.952-5.894,2.952
				c-4.299,0-7.331-3.042-7.331-7.241c0-4.199,3.032-7.24,7.331-7.24C75.441,57.384,77.715,58.561,78.852,60.515"/>
			<path fill="#76777A" d="M89.425,66.759c0,0.299-0.02,0.658-0.05,0.878h-6.852c0.279,1.397,1.256,2.005,2.484,2.005
				c0.837,0,1.745-0.339,2.444-0.928l1.525,1.676c-1.097,1.007-2.493,1.466-4.119,1.466c-2.962,0-5.016-2.015-5.016-5.057
				c0-3.042,1.994-5.116,4.887-5.116C87.51,61.683,89.415,63.747,89.425,66.759 M82.533,65.861h4.279
				c-0.24-1.236-0.988-1.935-2.105-1.935C83.48,63.926,82.762,64.664,82.533,65.861"/>
			<path fill="#76777A" d="M98.227,62.949v-5.705h2.593v14.362h-2.543v-1.067c-0.628,0.778-1.566,1.317-2.892,1.317
				c-2.663,0-4.678-2.185-4.678-5.087s2.015-5.087,4.678-5.087C96.681,61.682,97.599,62.191,98.227,62.949 M93.37,66.769
				c0,1.476,0.968,2.663,2.494,2.663c1.486,0,2.493-1.137,2.493-2.663c0-1.526-1.007-2.663-2.493-2.663
				C94.338,64.106,93.37,65.293,93.37,66.769"/>
			<path fill="#76777A" d="M112.567,71.606h-2.543v-1.067c-0.628,0.777-1.566,1.316-2.892,1.316c-2.663,0-4.678-2.184-4.678-5.086
				s2.015-5.087,4.678-5.087c1.326,0,2.254,0.539,2.892,1.327v-1.067h2.543V71.606z M105.117,66.769
				c0,1.476,0.968,2.663,2.494,2.663c1.486,0,2.493-1.137,2.493-2.663s-1.007-2.663-2.493-2.663
				C106.085,64.106,105.117,65.293,105.117,66.769"/>
			<path fill="#76777A" d="M121.397,61.892l-0.389,2.583c-0.428-0.19-1.047-0.309-1.575-0.309c-1.207,0-2.034,0.738-2.034,2.174
				v5.266h-2.604v-9.664h2.523v1.057c0.609-0.907,1.536-1.316,2.723-1.316C120.6,61.682,121.038,61.762,121.397,61.892"/>
			<path fill="#76777A" d="M129.535,64.634c-0.768-0.379-1.995-0.778-3.082-0.788c-0.988,0-1.486,0.349-1.486,0.878
				c0,0.559,0.698,0.698,1.576,0.828l0.858,0.13c2.094,0.319,3.262,1.256,3.262,2.892c0,1.994-1.636,3.281-4.438,3.281
				c-1.316,0-3.042-0.249-4.299-1.137l1.028-1.975c0.828,0.549,1.835,0.947,3.291,0.947c1.207,0,1.785-0.339,1.785-0.907
				c0-0.469-0.489-0.728-1.606-0.888l-0.788-0.11c-2.234-0.309-3.341-1.286-3.341-2.932c0-1.985,1.536-3.162,4.079-3.162
				c1.546,0,2.753,0.289,4.039,0.918L129.535,64.634z"/>
			<path fill="#76777A" d="M85.653,79.069c-1.097-0.678-2.434-1.187-3.959-1.187c-1.566,0-2.673,0.619-2.673,1.676
				c0,1.027,1.207,1.336,2.882,1.615l0.788,0.13c2.494,0.409,4.448,1.476,4.448,3.909c0,3.082-2.713,4.548-5.715,4.548
				c-2.115,0-4.389-0.618-5.885-1.825l1.446-2.244c1.007,0.808,2.653,1.506,4.448,1.506c1.546,0,2.743-0.609,2.743-1.686
				c0-0.967-1.018-1.326-2.963-1.636l-0.887-0.139c-2.463-0.389-4.259-1.476-4.259-4c0-2.912,2.593-4.428,5.565-4.428
				c1.955,0,3.581,0.439,5.336,1.486L85.653,79.069z"/>
			<path fill="#76777A" d="M91.904,76.685c0,0.938-0.728,1.656-1.666,1.656s-1.656-0.718-1.656-1.656s0.718-1.675,1.656-1.675
				S91.904,75.748,91.904,76.685"/>
		</g>
		<rect x="88.952" y="79.847" fill="#76777A" width="2.603" height="9.664"/>
		<g>
			<path fill="#76777A" d="M102.924,83.358v6.154h-2.603v-5.316c0-1.397-0.698-2.165-1.885-2.165c-1.117,0-2.045,0.729-2.045,2.185
				v5.296h-2.603v-9.665h2.533v1.137c0.688-1.027,1.746-1.396,2.843-1.396C101.358,79.588,102.924,81.114,102.924,83.358"/>
			<path fill="#76777A" d="M114.591,89.511h-2.543v-1.067c-0.628,0.777-1.566,1.316-2.892,1.316c-2.663,0-4.678-2.184-4.678-5.086
				s2.015-5.087,4.678-5.087c1.326,0,2.254,0.539,2.892,1.327v-1.067h2.543V89.511z M107.141,84.674
				c0,1.476,0.968,2.663,2.494,2.663c1.486,0,2.493-1.137,2.493-2.663s-1.007-2.663-2.493-2.663
				C108.109,82.011,107.141,83.198,107.141,84.674"/>
			<path fill="#76777A" d="M119.776,76.685c0,0.938-0.728,1.656-1.666,1.656c-0.937,0-1.656-0.718-1.656-1.656
				s0.718-1.675,1.656-1.675C119.048,75.01,119.776,75.748,119.776,76.685"/>
		</g>
		<rect x="116.824" y="79.847" fill="#76777A" width="2.603" height="9.664"/>
	</g>
	<g>
		<g>
			<path fill="#DC1E34" d="M32.71,78.9c-1.949,0-3.897-0.742-5.381-2.225c-2.967-2.967-2.967-7.794,0-10.761
				c2.967-2.967,7.794-2.967,10.761,0l1.596,1.597l-2.225,2.224l-1.596-1.597c-1.741-1.74-4.572-1.74-6.313,0
				c-1.741,1.741-1.741,4.572,0,6.313c0.843,0.843,1.964,1.308,3.156,1.308c1.192,0,2.313-0.465,3.156-1.308l2.224,2.224
				C36.607,78.158,34.659,78.9,32.71,78.9 M32.71,84.666c-3.572,0-6.93-1.391-9.456-3.916c-2.526-2.526-3.916-5.884-3.916-9.456
				s1.391-6.93,3.916-9.455c2.526-2.526,5.884-3.917,9.456-3.917s6.93,1.391,9.456,3.917l1.596,1.596l-2.225,2.224l-1.596-1.596
				c-1.931-1.932-4.5-2.996-7.231-2.996s-5.3,1.064-7.231,2.996c-1.932,1.931-2.995,4.5-2.995,7.231c0,2.732,1.063,5.3,2.995,7.232
				c1.931,1.931,4.5,2.995,7.231,2.995s5.3-1.064,7.231-2.995l2.919-2.919l2.224,2.224l-2.918,2.919
				C39.64,83.276,36.282,84.666,32.71,84.666 M49.829,86.989c-1.948,0-3.897-0.742-5.38-2.225l-1.596-1.596l2.224-2.225l1.596,1.596
				c1.741,1.741,4.572,1.741,6.313,0.001c1.74-1.741,1.74-4.572,0-6.313c-1.741-1.741-4.573-1.74-6.313,0l-2.224-2.224
				c1.437-1.437,3.348-2.229,5.38-2.229c2.033,0,3.944,0.791,5.381,2.229c2.967,2.967,2.967,7.794,0,10.761
				C53.727,86.248,51.778,86.989,49.829,86.989 M49.83,92.756c-3.572,0-6.93-1.391-9.456-3.917l-1.596-1.596l2.225-2.224
				l1.596,1.596c1.932,1.931,4.5,2.995,7.232,2.995c2.732,0,5.3-1.064,7.231-2.995s2.995-4.5,2.995-7.231s-1.064-5.3-2.995-7.232
				c-3.987-3.986-10.475-3.987-14.463,0.001l-2.918,2.918l-2.224-2.224l2.918-2.919c5.214-5.214,13.698-5.214,18.911,0
				c2.526,2.526,3.917,5.884,3.917,9.456s-1.391,6.93-3.917,9.455C56.759,91.365,53.402,92.756,49.83,92.756"/>
		</g>
	</g>
</g>
</svg>
