<svg viewBox="0 0 64 64" fill="none" xmlns="http://www.w3.org/2000/svg" baseProfile="tiny-ps" version="1.2">
<title>Oztix</title>
<path class="logo" d="M15.6875 45.068C4.85752 34.678 10.6875 9.738 29.1275 19.798C35.2575 22.998 39.8875 27.438 39.9375 29.268C39.9839 30.2804 39.8657 31.2935 39.5875 32.268C39.5297 32.4344 39.434 32.5852 39.3081 32.7084C39.1822 32.8316 39.0294 32.924 38.8618 32.9783C38.6942 33.0325 38.5163 33.0472 38.342 33.0211C38.1678 32.9951 38.0019 32.929 37.8575 32.828C36.7048 31.9167 35.628 30.9134 34.6375 29.828C33.9775 29.118 33.4975 28.648 32.8375 28.008C30.0675 25.258 24.2975 19.548 18.8375 22.888C14.6175 25.448 14.7475 30.578 14.8375 32.778C15.0275 39.778 25.1376 46.598 29.0276 48.628C50.3876 59.628 67.6175 37.118 56.7375 19.338C51.2175 10.338 41.5075 3.73799 29.9375 4.00799V7.75799C35.5075 9.21799 42.2375 13.548 46.4375 17.578C48.1571 19.2093 49.5357 21.1656 50.4936 23.3336C51.4514 25.5017 51.9694 27.8383 52.0175 30.208C52.0175 41.958 43.3275 48.208 32.2275 42.448C27.1075 39.778 22.0176 35.698 21.7776 32.588C21.725 31.8475 21.7484 31.1036 21.8475 30.368C21.8756 30.1495 21.9583 29.9416 22.088 29.7635C22.2178 29.5855 22.3902 29.443 22.5896 29.3493C22.789 29.2556 23.0088 29.2137 23.2287 29.2274C23.4485 29.2412 23.6614 29.3102 23.8475 29.428C25.3444 30.4602 26.7317 31.643 27.9875 32.958C28.6275 33.588 28.9875 33.908 29.6375 34.618C32.0775 37.208 37.1775 42.618 42.5475 39.338C44.6475 38.058 47.1276 35.238 46.9676 29.058C46.7676 21.478 34.8175 14.848 32.4275 13.598C23.8975 9.13799 16.0375 9.428 10.1975 14.418C9.36863 15.1347 8.6389 15.9586 8.02755 16.868C1.14755 27.018 0.347517 39.238 11.8675 50.588C16.9775 55.588 24.5275 59.588 32.1675 59.668L32.2475 55.668C25.8775 53.998 18.5375 47.818 15.6875 45.068Z" fill="#0077C9"/>
</svg>
