<svg xmlns="http://www.w3.org/2000/svg" xmlns:xlink="http://www.w3.org/1999/xlink" version="1.2" viewBox="0 0 216 213.8" baseProfile="tiny-ps">  <title>goescrow_bimi_tiny_ps</title>  <path d="M24.653,106.9c0-46.435,37.699-84.134,84.213-84.134  S193,60.465,193,106.9s-37.699,84.134-84.134,84.134S24.653,153.414,24.653,106.9z" fill="#FFFFFF" fill-rule="evenodd"/>  <g>    <polygon points="80.296,115.557 92.259,134.525 148.454,134.525 137.671,151.84 81.398,151.84 53.301,106.9    81.398,62.039 137.671,62.039 160.338,98.321 190.639,98.321 152.782,37.877 66.287,37.877 23,106.9 66.287,176.002    152.782,176.002 190.639,115.557  " fill="#525252"/>    <polygon points="92.259,79.275 80.296,98.321 138.694,98.321 126.81,79.275  " fill="#F07900"/>  </g></svg>