<?xml version="1.0" encoding="utf-8"?>
<!-- Generator: Adobe Illustrator 28.3.0, SVG Export Plug-In . SVG Version: 6.00 Build 0)  -->
<svg xmlns="http://www.w3.org/2000/svg" xmlns:xlink="http://www.w3.org/1999/xlink" version="1.2" baseProfile="tiny-ps" id="Layer_1" viewBox="0 0 566.9 566.9" xml:space="preserve">
<title>OptiSigns</title>
<rect fill="#FFFFFF" width="566.9" height="566.9"/>
	<path d="M270.3,288.3c0,7.7-2.8,14.2-8.3,19.7c-5.5,5.4-12.1,8.2-19.9,8.2c-7.8,0-14.4-2.7-19.9-8.2c-5.5-5.4-8.3-12-8.3-19.7   c0-7.7,2.8-14.2,8.3-19.7c5.5-5.4,12.2-8.2,19.9-8.2c7.8,0,14.4,2.7,19.9,8.2C267.5,274.1,270.3,280.7,270.3,288.3z M242.1,266.1   c-6.2,0-11.5,2.2-15.9,6.5c-4.4,4.3-6.6,9.6-6.6,15.7c0,6.1,2.2,11.4,6.6,15.7c4.4,4.3,9.7,6.5,15.9,6.5c6.2,0,11.5-2.2,15.9-6.5   c4.4-4.3,6.6-9.6,6.6-15.7c0-6.1-2.2-11.4-6.6-15.7C253.7,268.3,248.3,266.1,242.1,266.1z"/>
	<path d="M281.6,330c0,0.8-0.3,1.4-0.8,2c-0.6,0.5-1.2,0.8-2,0.8c-0.8,0-1.4-0.3-2-0.8c-0.6-0.5-0.8-1.2-0.8-2v-33.4   c0-5.4,1.9-10,5.8-13.8c3.9-3.8,8.5-5.7,14-5.7c5.5,0,10.1,1.9,14,5.7c3.9,3.8,5.8,8.4,5.8,13.8c0,5.4-1.9,10-5.8,13.8   c-3.9,3.8-8.5,5.7-14,5.7c-5.4,0-10.1-1.9-14-5.7c0,0-0.1-0.1-0.1-0.1V330L281.6,330z M281.6,296.7c0,3.8,1.4,7.1,4.1,9.8   c2.8,2.7,6.1,4.1,10,4.1c3.9,0,7.2-1.4,10-4.1c2.8-2.7,4.1-6,4.1-9.8c0-3.8-1.4-7.1-4.1-9.8c-2.8-2.7-6.1-4.1-10-4.1   c-3.9,0-7.2,1.4-10,4.1C282.9,289.5,281.6,292.8,281.6,296.7z"/>
	<path d="M340.8,310.6c0.8,0,1.4,0.3,2,0.8c0.6,0.5,0.8,1.2,0.8,2s-0.3,1.4-0.8,2c-0.6,0.5-1.2,0.8-2,0.8c-9.4,0-14.1-4.6-14.1-13.9   v-19.5h-2.8c-0.8,0-1.4-0.3-2-0.8s-0.8-1.2-0.8-2c0-0.8,0.3-1.4,0.8-2s1.2-0.8,2-0.8h2.8v-13.9c0-0.8,0.3-1.4,0.8-2   c0.6-0.5,1.2-0.8,2-0.8c0.8,0,1.4,0.3,2,0.8c0.6,0.5,0.8,1.2,0.8,2v13.9h5.7c0.8,0,1.4,0.3,2,0.8c0.6,0.5,0.8,1.2,0.8,2   c0,0.8-0.3,1.4-0.8,2c-0.6,0.5-1.2,0.8-2,0.8h-5.7v19.5C332.3,307.8,335.1,310.6,340.8,310.6z"/>
	<path d="M358.4,268.9c0,1-0.3,1.8-1,2.5c-0.7,0.7-1.5,1-2.5,1c-1,0-1.8-0.3-2.5-1c-0.7-0.7-1-1.5-1-2.5c0-1,0.3-1.8,1-2.5   c0.7-0.7,1.5-1,2.5-1c1,0,1.8,0.3,2.5,1C358,267.1,358.4,267.9,358.4,268.9z M352,280c0-0.8,0.3-1.4,0.8-2c0.6-0.5,1.2-0.8,2-0.8   c0.8,0,1.4,0.3,2,0.8c0.6,0.5,0.8,1.2,0.8,2v33.4c0,0.8-0.3,1.4-0.8,2c-0.6,0.5-1.2,0.8-2,0.8c-0.8,0-1.4-0.3-2-0.8   c-0.6-0.5-0.8-1.2-0.8-2V280z"/>
	<path d="M372.3,283.5c-2.5-2.9-3.6-6.3-3.3-10.1c0.3-3.8,2-7,4.9-9.5c2.7-2.2,5.7-3.4,9.2-3.4c4.1,0,7.7,1.7,10.7,5   c0.5,0.6,1,1.2,1.4,1.9c0.3,0.4,0.4,0.9,0.4,1.5c0,0.8-0.3,1.4-0.8,2c-0.6,0.5-1.2,0.8-2,0.8c-0.9,0-1.6-0.3-2-0.8   c-0.4-0.6-0.9-1.1-1.3-1.7c-1.5-1.8-3.4-2.7-5.7-2.9c-2.3-0.2-4.4,0.5-6.2,2c-1.8,1.5-2.8,3.4-3,5.6c-0.2,2.3,0.5,4.3,2,6.1   c1.2,1.2,3.3,2.1,6.1,2.8c4.9,1.1,8.6,3,11.2,5.9c2.7,3.1,4,6.6,4,10.6c0,0.5,0,1.1-0.1,1.6c-0.4,4.6-2.3,8.4-5.9,11.3   c-3.2,2.7-6.8,4-10.8,4c-5,0-9.4-2-13-5.9c-0.5-0.5-0.9-1.1-1.3-1.7c-0.4-0.5-0.6-1-0.6-1.7c0-0.8,0.3-1.4,0.8-2   c0.6-0.5,1.2-0.8,2-0.8c1,0,1.8,0.4,2.4,1.3c0.3,0.4,0.6,0.9,1,1.3c2,2.4,4.6,3.7,7.7,3.9c3.1,0.2,5.8-0.6,8.2-2.6   c2.4-2,3.7-4.5,3.9-7.6c0.3-3.1-0.6-5.8-2.6-8.1c-1.7-1.9-4.5-3.4-8.1-4.3C377.8,287.3,374.8,285.8,372.3,283.5z"/>
	<path d="M412.6,268.9c0,1-0.3,1.8-1,2.5c-0.7,0.7-1.5,1-2.5,1c-1,0-1.8-0.3-2.5-1c-0.7-0.7-1-1.5-1-2.5c0-1,0.3-1.8,1-2.5   c0.7-0.7,1.5-1,2.5-1c1,0,1.8,0.3,2.5,1C412.3,267.1,412.6,267.9,412.6,268.9z M406.3,280c0-0.8,0.3-1.4,0.8-2   c0.6-0.5,1.2-0.8,2-0.8c0.8,0,1.4,0.3,2,0.8c0.6,0.5,0.8,1.2,0.8,2v33.4c0,0.8-0.3,1.4-0.8,2c-0.6,0.5-1.2,0.8-2,0.8   c-0.8,0-1.4-0.3-2-0.8c-0.6-0.5-0.8-1.2-0.8-2V280z"/>
	<path d="M454.2,310.3c0,0-0.1,0.1-0.1,0.1c-3.9,3.8-8.5,5.7-14,5.7c-5.4,0-10.1-1.9-14-5.7c-3.9-3.8-5.8-8.4-5.8-13.8   c0-5.4,1.9-10,5.8-13.8c3.9-3.8,8.5-5.7,14-5.7c5.4,0,10.1,1.9,14,5.7c3.9,3.8,5.8,8.4,5.8,13.8v19.5c0,4.1-1.5,7.6-4.4,10.6   c-4.1,4.1-9.1,6.1-15,6.1c-5.8,0-10.8-2-14.9-6.1c-1.5-1.5-2.8-3.1-3.7-4.8c-0.3-0.4-0.4-0.9-0.4-1.5c0-0.8,0.3-1.4,0.8-2   c0.6-0.5,1.2-0.8,2-0.8c0.8,0,1.4,0.3,2,0.8c0.2,0.3,0.4,0.5,0.6,0.8c0.7,1.3,1.6,2.4,2.7,3.5c3,3,6.7,4.5,11,4.5   c4.3,0,7.9-1.5,11-4.5c1.9-2.2,2.8-4.4,2.8-6.6L454.2,310.3L454.2,310.3z M440.1,282.8c-3.9,0-7.2,1.4-10,4.1   c-2.8,2.7-4.1,6-4.1,9.8c0,3.8,1.4,7.1,4.1,9.8c2.8,2.7,6.1,4.1,10,4.1s7.2-1.4,10-4.1c2.8-2.7,4.1-6,4.1-9.8   c0-3.8-1.4-7.1-4.1-9.8C447.3,284.1,444,282.8,440.1,282.8z"/>
	<path d="M465.5,280c0-0.8,0.3-1.4,0.8-2c0.6-0.5,1.2-0.8,2-0.8c0.8,0,1.4,0.3,2,0.8c0.6,0.5,0.8,1.2,0.8,2v2.3   c3.5-3.4,7.8-5,12.7-5c5,0,9.4,1.8,12.9,5.3c3.6,3.5,5.4,7.8,5.4,12.8v18.1c0,0.8-0.3,1.4-0.8,2c-0.6,0.5-1.2,0.8-2,0.8   c-0.8,0-1.4-0.3-2-0.8c-0.6-0.5-0.8-1.2-0.8-2v-18.1c0-3.5-1.2-6.4-3.7-8.8c-2.5-2.4-5.5-3.7-9-3.7s-6.5,1.2-9,3.7   c-2.5,2.4-3.7,5.4-3.7,8.8v18.1c0,0.8-0.3,1.4-0.8,2c-0.6,0.5-1.2,0.8-2,0.8c-0.8,0-1.4-0.3-2-0.8c-0.6-0.5-0.8-1.2-0.8-2V280   L465.5,280z"/>
	<path d="M514.7,296.7c-2.1-0.8-3.6-1.6-4.5-2.5c-1.7-1.6-2.5-3.6-2.5-5.9c0-2.3,0.9-4.3,2.6-6c3.4-3.4,7.8-5.1,13.2-5.1   c5.9,0,10.9,2.3,15.1,7c0.4,0.4,0.6,1,0.5,1.6c0,0.8-0.3,1.4-0.8,2c-0.6,0.5-1.2,0.8-2,0.8s-1.4-0.2-1.9-0.7c-0.5-0.5-0.8-0.8-1-1   c-2.8-2.7-6.1-4.1-10-4.1c-3.9,0-7,1.2-9.3,3.6c-0.6,0.7-0.8,1.5-0.8,2.4c0.1,1.1,0.6,1.8,1.7,2.2l17.3,5.7   c2.1,0.8,3.6,1.6,4.5,2.5c1.7,1.6,2.5,3.6,2.5,5.9s-0.9,4.3-2.6,6c-3.4,3.4-7.8,5.1-13.2,5.1c-5.9,0-11-2.3-15.1-7   c-0.4-0.5-0.5-1-0.5-1.6c0-0.8,0.3-1.4,0.8-2c0.6-0.5,1.2-0.8,2-0.8c0.8,0,1.4,0.2,1.9,0.7c0.5,0.5,0.8,0.8,1,1   c2.8,2.7,6.1,4.1,10,4.1c3.9,0,7-1.2,9.3-3.6c0.6-0.7,0.8-1.5,0.8-2.4c-0.1-1.1-0.6-1.8-1.7-2.2L514.7,296.7z"/>
	<path d="M158.5,276.6c-1.9-0.6-2.4-1.4-2.6-3.4c-1.3-9.8-6.2-16.2-14.5-20c-6.2-2.9-14.7-3.5-21.5-1l-0.1-0.2   c-0.2-0.4-0.4-0.7-0.6-1c-7-11-18.8-17.6-31.6-17.6c-5.5,0-10.8,1.2-15.8,3.6C59,243.2,51.7,253.7,50,268.4   c-0.2,1.4-0.5,1.8-1.7,2.3c-14.8,5.4-23.1,20.2-20.3,35.9c1.3,7.1,5.2,13.6,11,18.4c5.8,4.8,13.1,7.4,20.4,7.5l28.4,0.1   c5.3,0,9.5-4.2,9.5-9.5l0-11.4H73.9v-14.1h0v-23.6h56.9l0,37.7h-23.4l0,11.4c0,5.3,4.5,9.2,9.8,9.2c0,0,22.3,0.2,28.1,0.1   c4.2,0,8.8-0.9,13.2-2.4c11.6-4.1,18.9-14.5,18.7-26.5C177.1,291.2,169.3,280.1,158.5,276.6z M156.1,325.6   c-3.5,1.1-7.3,1.6-10.9,1.7c-5.1,0.1-12.5,0.1-19.5,0.1v0h-8.5c-2.5,0-4.5-2-4.5-4.5v-6.2H129v0h4c2.2,0,3.2-1,3.2-3.2   c0-13.9,0-27.9,0-41.8c0-2.3-1-3.2-3.3-3.2h-30.5H71.9c-2.3,0-3.3,0.9-3.3,3.2v41.8c0,2.3,1,3.3,3.3,3.3l20.2,0v6.2   c0,2.5-2,4.5-4.5,4.5h-5.4v0h-6.3c-5.3,0-10.6,0-15.9,0c-13.5,0-25.1-9.5-27.1-22.1c-2.2-14.1,5.3-26.5,18.8-30.8   c2.2-0.7,3.1-1.9,3.2-4.2c0.4-14.3,10.8-27.3,24.9-30.8c2.6-0.7,5.3-1,8-1c11.6,0,22.4,6.3,28.2,16.4c0.7,1.3,1.5,2.6,3.2,2.6   c0.5,0,1.1-0.1,1.8-0.4c2.7-1.1,5.6-1.7,8.4-1.7c9.9,0,20.5,8.6,21.7,17.5c0.7,5.1,2.4,7.3,7.1,8.9c8.6,2.9,14.8,12.8,14.4,23.1   C172.1,314.3,165.5,322.7,156.1,325.6z"/>
	<path d="M114.3,287.4c-1.2-2.3-2.9-4.2-5.2-5.5c-0.3-0.2-0.7-0.3-1-0.3c-0.9,0-1.7,0.6-1.9,1.5c-0.2,0.9,0.2,1.6,1.1,2.2   c3.6,2.3,5.2,6.2,4.2,10.2c-1,4.1-4.8,7.1-9.1,7.1c-0.5,0-1,0-1.5-0.1c-3.1-0.5-5.6-2.4-7-5.2c-1.3-2.8-1.2-6,0.3-8.7   c0.8-1.4,1.9-2.5,3.5-3.5c0.9-0.6,1.2-1.7,0.6-2.6c-0.4-0.6-1-0.9-1.7-0.9c-0.4,0-0.7,0.1-1,0.3l-0.2,0.1c-0.9,0.6-1.8,1.3-2.6,2   c-3.1,3.2-4.3,7-3.6,11.3c1,6.5,6.4,11.1,12.7,11.1h0.1c3.2,0,5.8-0.8,8.2-2.5c3.4-2.5,5.2-6,5.5-10.3   C115.8,291.6,115.3,289.5,114.3,287.4z"/>
	<path d="M100.3,286.7c0,1,0,2,0,3.1c0,1.2,0.9,2.1,2,2.1h0c1.1,0,2-1,2-2.1c0-3,0-6,0-8.8c0-1.1-0.9-2.1-2-2.1c-1.1,0-2,0.9-2,2.1   c0,1,0,2,0,3c0,0.4,0,0.7,0,1.1v0.2C100.3,285.8,100.3,286.3,100.3,286.7z"/>
</svg>
