<svg xmlns="http://www.w3.org/2000/svg" xmlns:xlink="http://www.w3.org/1999/xlink" version="1.2" viewBox="0 0 256 256" baseProfile="tiny-ps">
  <title>Text S.A.</title>
  <rect width="256" height="256" fill="#FFFFFF"/>
  <path d="M86.938,191.563c13.687,1.125,27.375,1.687,41.062,1.687s27.375-0.562,41.063-1.5  c17.625-1.5,31.5-16.875,32.812-36.375c0.039-0.535,0.076-1.055,0.112-1.562c0.675-9.429,1.013-14.141,1.013-23.928v-18.923  l-24.375,21.188c-0.169,8.98,0.205,11.341-0.379,19.019c-0.062,0.818-0.129,1.699-0.202,2.656  c-0.562,7.313-5.062,13.313-10.5,13.688c-26.25,2.25-52.481,2.112-78.731-0.138c-5.438-0.375-9.938-6.375-10.5-13.687  c-0.058-0.768-0.114-1.501-0.167-2.205c-0.639-8.402-0.958-12.799-0.958-21.795l0.004-0.201c0.186-9.686,0.376-19.555,1.121-29.424  c0.562-7.126,4.875-12.938,10.125-13.688h77.756L129.15,118.91l-15.94-14.651l-18.199,15.982l33.919,31.176l74.066-65.042H203V62  H86.938c-17.625,1.5-31.5,16.875-32.812,36.375c-0.75,10.5-1.125,21-1.125,31.313c0,9.862,0.343,14.768,1.029,24.18  c0.031,0.43,0.063,0.869,0.096,1.32C55.438,174.688,69.313,190.063,86.938,191.563z" fill="#00C057"/>
</svg>