<?xml version="1.0" encoding="UTF-8" standalone="yes"?>
<svg width="100%" height="100%" viewBox="0 0 200 200" version="1.2" xml:space="preserve" fill-rule="evenodd" stroke-linejoin="round" stroke-miterlimit="2" baseProfile="tiny-ps" xmlns="http://www.w3.org/2000/svg">
  <title>Inner Circle</title>
  <g transform="matrix(1,0,0,1,0,52.445)">
    <g>
      <rect x="7.73" y="9.35" width="8.39" height="32.93" fill="rgb(28,28,28)"/>
      <path d="M71.89,35.61L71.21,35.61L60.25,9.35L46.49,9.35L46.49,35.61L45.81,35.61L34.85,9.35L21.09,9.35L21.09,42.29L28.85,42.29L28.85,16.03L29.53,16.03L40.49,42.29L54.34,42.29L54.34,16.03L54.92,16.03L65.89,42.29L79.74,42.29L79.74,9.35L71.89,9.35L71.89,35.61Z" fill="rgb(28,28,28)" fill-rule="nonzero"/>
    </g>
    <path d="M110.14,16.93L110.14,9.35L85.01,9.35L85.01,42.29L110.14,42.29L110.14,34.71L93.58,34.71L93.58,29.61L107.65,29.61L107.65,22.03L93.58,22.03L93.58,16.93L110.14,16.93Z" fill="rgb(28,28,28)" fill-rule="nonzero"/>
    <path d="M130.08,33.48L135.54,42.29L145.28,42.29L140.69,35.08C138.88,32.26 137.45,30.35 134.19,29.54L133.07,29.26L134.22,29.16C140.55,28.6 144.04,25.21 144.04,19.61C144.04,13 139.38,9.36 130.91,9.36L115.14,9.36L115.14,42.29L123.71,42.29L123.71,30.36L124.6,30.36C127.27,30.36 128.65,31.15 130.08,33.48ZM123.71,16.93L131.01,16.93C133.64,16.93 134.98,18.05 134.98,20.25C134.98,21.77 134.29,23.57 131.01,23.57L123.71,23.57L123.71,16.92L123.71,16.93Z" fill="rgb(28,28,28)" fill-rule="nonzero"/>
  </g>
  <g transform="matrix(1,0,0,1,0,52.445)">
    <path d="M192.27,58.76L192.27,51.18L167.15,51.18L167.15,84.12L192.27,84.12L192.27,76.54L175.72,76.54L175.72,71.44L189.79,71.44L189.79,63.86L175.72,63.86L175.72,58.76L192.27,58.76Z" fill="rgb(28,28,28)" fill-rule="nonzero"/>
    <path d="M88.08,75.31L93.54,84.12L103.28,84.12L98.69,76.91C96.88,74.09 95.45,72.18 92.19,71.37L91.07,71.09L92.22,70.99C98.55,70.43 102.04,67.04 102.04,61.44C102.04,54.83 97.38,51.19 88.91,51.19L73.14,51.19L73.14,84.12L81.71,84.12L81.71,72.19L82.6,72.19C85.27,72.19 86.65,72.98 88.08,75.31ZM81.71,58.76L89.01,58.76C91.64,58.76 92.98,59.88 92.98,62.08C92.98,63.6 92.29,65.4 89.01,65.4L81.71,65.4L81.71,58.75L81.71,58.76Z" fill="rgb(28,28,28)" fill-rule="nonzero"/>
    <g>
      <rect x="59.35" y="51.38" width="8.39" height="32.93" fill="rgb(28,28,28)"/>
      <path d="M151.38,51.38L142.99,51.38L142.99,84.31L163.83,84.31L163.83,77L151.38,77L151.38,51.38Z" fill="rgb(28,28,28)" fill-rule="nonzero"/>
      <path d="M38.76,78.07C33.26,78.07 28.78,73.59 28.78,68.09C28.78,62.59 33.26,58.11 38.76,58.11C42.59,58.11 45.91,60.28 47.59,63.44L55.81,63.44C53.77,55.94 46.91,50.42 38.77,50.42C29.01,50.42 21.1,58.33 21.1,68.09C21.1,77.85 29.01,85.76 38.77,85.76C47.4,85.76 54.58,79.57 56.12,71.39L48.18,71.39C46.81,75.28 43.11,78.07 38.76,78.07Z" fill="rgb(28,28,28)" fill-rule="nonzero"/>
      <path d="M122.38,78.07C116.88,78.07 112.4,73.59 112.4,68.09C112.4,62.59 116.88,58.11 122.38,58.11C126.21,58.11 129.53,60.28 131.21,63.44L139.43,63.44C137.39,55.94 130.53,50.42 122.39,50.42C112.63,50.42 104.72,58.33 104.72,68.09C104.72,77.85 112.63,85.76 122.39,85.76C131.02,85.76 138.2,79.57 139.74,71.39L131.8,71.39C130.43,75.28 126.73,78.07 122.38,78.07Z" fill="rgb(28,28,28)" fill-rule="nonzero"/>
    </g>
  </g>
</svg>