<?xml version="1.0" encoding="UTF-8" standalone="yes"?>
<svg viewBox="0 0 96 96" version="1.2" baseProfile="tiny-ps" xmlns="http://www.w3.org/2000/svg">
  <title>Priority Tire</title>
  <defs/>
  <rect fill="#ffffff" width="96" height="96"/>
  <g id="TIRE" fill="#f2a61d">
    <path id="path1" d="M67.46,44.3c-.04-.07-.04-.19-.02-.28.12-.61.24-1.21.36-1.81.02-.09.06-.21.13-.28.07-.07.17-.09.24-.09h7.61c.08,0,.16.02.21.09.04.07.04.19.02.28-.12.6-.24,1.21-.36,1.81-.02.09-.06.21-.13.28-.07.07-.17.09-.24.09h-2.01c-.08,0-.17.02-.24.09-.07.07-.11.19-.13.28-.59,3.01-1.18,6.02-1.77,9.03-.02.09-.06.21-.13.28-.07.07-.17.09-.24.09h-2.39c-.07,0-.16-.02-.21-.09-.04-.07-.04-.19-.02-.28.59-3.01,1.18-6.02,1.77-9.03.02-.09.02-.21-.02-.28-.04-.07-.13-.09-.21-.09h-2.01c-.08,0-.16-.02-.21-.09h0Z"/>
    <path id="path2" d="M74.14,54.09c-.05-.06-.04-.15-.03-.22.59-3.06,1.19-6.12,1.78-9.17.01-.07.05-.16.12-.22.07-.06.16-.08.23-.07h2.36c.07,0,.16.02.21.07.05.06.05.15.03.22-.59,3.06-1.19,6.12-1.78,9.17-.01.07-.05.16-.12.22-.07.06-.16.07-.24.07h-2.36c-.07,0-.16-.02-.21-.07Z"/>
    <path id="path3" d="M78.37,54.09c-.06-.06-.08-.14-.07-.22.59-3.06,1.19-6.12,1.78-9.17.01-.07.05-.16.12-.22.09-.07.2-.07.24-.07.78,0,2.99,0,4.49,0,.11,0,.89.07,1.41.28.22.09.44.21.66.42.32.31.46.66.48.88.02.15.02.3,0,.45-.11.55-.21,1.11-.32,1.66-.02.11-.16.58-.38.81-.16.18-.37.32-.59.41.17.08.31.21.41.37.14.23.14.63.1.81-.22,1.13-.54,2.78-.66,3.39,0,.04-.03.15-.12.22-.07.06-.16.07-.24.07h-2.36s-.15,0-.21-.07c-.04-.05-.05-.13-.03-.22.01-.07.52-2.66.54-2.8.04-.18.05-.31-.06-.44-.09-.11-.23-.15-.41-.15h-.96c-.09,0-.17.02-.23.07-.08.06-.1.15-.12.22-.2,1.03-.49,2.54-.6,3.09,0,.04-.03.15-.12.22-.09.07-.2.07-.24.07h-2.36c-.06,0-.12-.03-.17-.07h0ZM82.76,46.5c-.07.06-.1.15-.12.22-.07.36-.14.71-.21,1.07-.01.07-.02.16.03.22.05.06.13.07.21.07h.96c.18,0,.35-.06.48-.18.12-.11.2-.25.23-.41.03-.16.06-.32.09-.48.03-.15.03-.33-.06-.44-.09-.12-.27-.15-.41-.15h-.96c-.07,0-.17.01-.23.07h0Z"/>
    <path id="path4" d="M87.55,53.28c-.18-.32-.25-.77-.18-1.18.48-2.49,1.15-5.91,1.44-7.4,0-.04.03-.15.12-.22.07-.06.16-.08.24-.07h6.59c.07,0,.16.02.21.07.05.06.05.15.03.22-.09.48-.18.96-.28,1.44-.01.07-.05.16-.12.22-.07.06-.16.07-.24.07h-3.64c-.07,0-.17.02-.24.07-.07.06-.1.15-.12.22-.09.48-.19.96-.28,1.44-.01.07-.02.16.03.22.05.06.13.07.21.07h2.72c.07,0,.16.02.21.07.05.06.04.15.03.22l-.24,1.25c-.01.07-.05.16-.12.22s-.16.07-.24.07h-2.72c-.07,0-.17.02-.23.07-.07.06-.1.15-.12.22-.08.42-.08.43-.16.85-.04.22,0,.41.08.52.09.11.26.18.48.18h3.24c.07,0,.16.02.21.07.05.06.05.15.03.22-.09.48-.19.96-.28,1.44-.01.07-.05.16-.12.22-.09.07-.2.07-.24.07-.8,0-3.07,0-4.6,0-.64,0-1.38-.3-1.71-.88h0Z"/>
  </g>
  <g id="PRIORITY" fill-rule="evenodd" fill="#000000">
    <path id="path5" d="M.04,54.09c-.06-.07-.04-.18-.03-.22.35-1.82,1.49-7.68,2.25-11.57.01-.07.05-.15.15-.22.06-.04.13-.07.2-.07,1.52,0,3.05,0,4.56,0,1.31,0,2.2.51,2.46,1.36.13.41.06.84.02,1.03-.11.57-.47,2.44-.72,3.68-.05.27-.23.8-.49,1.18-.59.87-1.64,1.22-2.92,1.22-.54,0-1.07,0-1.62,0-.08,0-.16.03-.23.07-.08.06-.1.15-.12.22-.2,1.03-.4,2.06-.6,3.09-.01.08-.08.17-.15.22-.08.06-.13.07-.2.07H.25c-.09,0-.17-.02-.21-.07H.04ZM4.17,48.01c-.04-.05-.05-.13-.03-.22.2-1.03.4-2.06.6-3.09.02-.09.05-.17.12-.22.09-.07.19-.07.24-.07.36,0,.7,0,1.03,0,.15,0,.29.05.38.15.11.12.13.28.1.44-.08.41-.47,2.4-.49,2.51-.03.17-.13.33-.27.44-.12.1-.28.15-.43.15h-1.03s-.15,0-.21-.07Z"/>
    <path id="path6" d="M9.17,54.09c-.06-.06-.08-.14-.07-.22l1.78-9.17c.01-.07.05-.16.12-.22.09-.07.2-.07.24-.07.78,0,2.99,0,4.49,0,.11,0,.89.06,1.41.28.22.09.44.21.66.42.32.31.46.66.48.88.02.15.02.3,0,.45-.11.55-.21,1.11-.32,1.66-.02.11-.16.58-.38.81-.16.18-.37.32-.59.41.17.08.31.21.41.37.14.23.14.63.1.81-.22,1.13-.54,2.78-.66,3.39,0,.04-.03.15-.12.22-.07.06-.16.07-.24.07h-2.36s-.15,0-.21-.07c-.04-.05-.05-.13-.03-.22.01-.07.52-2.65.54-2.8.04-.18.05-.31-.06-.44-.09-.11-.23-.15-.41-.15h-.96c-.09,0-.17.02-.23.07-.07.06-.1.15-.12.22-.2,1.03-.49,2.54-.6,3.09,0,.04-.03.15-.12.22-.09.08-.2.07-.24.07h-2.36c-.06,0-.12-.03-.17-.07h0ZM13.55,46.5c-.07.06-.1.15-.12.22-.07.36-.14.71-.21,1.07-.01.07-.02.16.03.22.05.06.13.07.21.07h.96c.18,0,.35-.06.48-.19.12-.11.2-.25.23-.4.03-.16.06-.32.09-.48.03-.15.03-.33-.06-.44-.09-.12-.27-.15-.41-.15h-.96c-.07,0-.17.02-.23.07h0Z"/>
    <path id="path7" d="M18.15,54.09c-.05-.06-.04-.15-.03-.22l1.78-9.17c.01-.07.05-.16.12-.22.07-.06.16-.07.23-.07h2.36c.07,0,.16.02.21.07.05.06.04.15.03.22l-1.78,9.17c-.01.07-.05.16-.12.22-.07.06-.16.07-.23.07h-2.36c-.07,0-.16-.02-.21-.07h0Z"/>
    <path id="path8" d="M22.75,52.95c-.08-.25-.12-.52-.06-.81.37-1.9.74-3.81,1.11-5.71.06-.29.2-.59.39-.85.58-.79,2.09-1.18,2.95-1.18h1.84c1.11,0,2.14.33,2.46,1.18.1.26.15.54.09.85-.37,1.9-.74,3.81-1.11,5.71-.05.25-.23.57-.42.81-.66.86-1.92,1.21-2.92,1.21h-1.84c-1.14,0-2.21-.39-2.49-1.21h0ZM25.81,51.99c-.06-.07-.1-.22-.08-.33.32-1.66.6-3.09.92-4.75.02-.11.13-.26.21-.33.08-.07.25-.15.36-.15h.88c.11,0,.25.08.3.15.06.07.1.22.08.33-.32,1.66-.6,3.09-.92,4.75-.02.11-.13.26-.21.33-.08.07-.25.15-.36.15h-.88c-.11,0-.25-.08-.3-.15h0Z"/>
    <path id="path9" d="M31.44,54.09c-.05-.06-.08-.14-.07-.22l1.78-9.17c.01-.07.05-.16.12-.22.09-.07.2-.07.23-.07.78,0,2.99,0,4.49,0,.12,0,.89.06,1.41.28.22.09.44.21.66.42.32.31.46.66.48.88.02.15.02.3,0,.45-.11.55-.21,1.11-.32,1.66-.02.11-.16.58-.38.81-.16.18-.37.32-.59.41.17.08.31.21.41.37.14.23.14.63.1.81-.22,1.13-.54,2.78-.66,3.39,0,.04-.03.15-.12.22-.07.06-.16.07-.23.07h-2.36s-.15,0-.21-.07c-.04-.05-.05-.13-.03-.22.01-.07.52-2.65.54-2.8.04-.18.05-.31-.06-.44-.09-.11-.23-.15-.41-.15h-.96c-.09,0-.17.02-.24.07-.07.06-.1.15-.12.22-.2,1.03-.49,2.54-.6,3.09,0,.04-.03.15-.12.22-.09.08-.2.07-.24.07h-2.36c-.06,0-.12-.03-.17-.07h0ZM35.82,46.5c-.07.06-.1.15-.12.22-.07.36-.14.71-.21,1.07-.01.07-.02.16.03.22.05.06.13.07.21.07h.96c.18,0,.35-.06.48-.19.12-.11.2-.25.23-.4.03-.16.06-.32.09-.48.03-.15.03-.33-.06-.44-.09-.12-.27-.15-.41-.15h-.96c-.07,0-.17.02-.24.07h0Z"/>
    <path id="path10" d="M40.42,54.09c-.05-.06-.04-.15-.03-.22.59-3.06,1.19-6.11,1.78-9.17.01-.07.05-.16.12-.22.07-.06.16-.07.24-.07h2.36c.07,0,.16.02.21.07.05.06.04.15.03.22l-1.78,9.17c-.01.07-.05.16-.12.22-.07.06-.16.07-.24.07h-2.36c-.07,0-.16-.02-.21-.07Z"/>
    <path id="path11" d="M45.72,46.35c-.05-.06-.05-.15-.03-.22l.28-1.44c.01-.08.05-.16.12-.22.07-.06.16-.07.24-.07h7.51c.07,0,.16.02.21.07.05.06.04.15.03.22l-.28,1.44c-.02.07-.05.16-.12.22s-.16.07-.23.07h-1.99c-.07,0-.17.02-.24.07-.07.06-.1.15-.12.22-.46,2.38-.93,4.76-1.39,7.15-.01.08-.05.16-.12.22-.07.06-.16.07-.24.07h-2.36c-.07,0-.16-.02-.21-.07-.05-.06-.04-.15-.03-.22.46-2.38.93-4.76,1.39-7.15.01-.07.02-.16-.03-.22s-.13-.07-.21-.07h-1.99c-.07,0-.16-.01-.21-.07h0Z"/>
    <path id="path12" d="M56.65,54.09c-.06-.06-.08-.14-.07-.22.23-1.38.47-2.75.7-4.13-.87-1.67-1.74-3.34-2.61-5.01-.04-.07-.04-.15,0-.22.04-.07.14-.1.26-.11h2.5c.09,0,.29.03.37.07.06.04.11.09.15.15.45.85.91,1.7,1.36,2.54.8-.85,1.63-1.73,2.43-2.58.06-.07.1-.11.18-.15.09-.04.18-.04.26-.04h2.43c.14,0,.26.03.29.11.03.06.02.19-.04.26-1.55,1.67-3.05,3.34-4.6,5.01-.23,1.38-.5,2.71-.74,4.09-.03.09-.08.16-.15.22-.08.06-.26.07-.33.07h-2.21c-.08,0-.14-.03-.18-.07Z"/>
  </g>
</svg>