<?xml version="1.0" encoding="utf-8"?>
<!-- Generator: Adobe Illustrator 26.0.3, SVG Export Plug-In . SVG Version: 6.00 Build 0)  -->
<svg version="1.2" baseProfile="tiny-ps" id="Layer_1" xmlns="http://www.w3.org/2000/svg" xmlns:xlink="http://www.w3.org/1999/xlink"
	 viewBox="0 0 400 400">
<title>Kotak</title>	 

	<rect fill="#ED3438" width="400" height="400"/>

	<path fill="#1D3B6E" d="M24.52,200c0-29.14,27.47-52.76,61.34-52.76c33.93,0,61.4,23.62,61.4,52.76s-27.47,52.76-61.4,52.76
		C51.99,252.76,24.52,229.14,24.52,200L24.52,200z"/>
	<polygon fill="#D82627" points="78.46,164.17 92.72,159.49 92.77,236.55 78.4,241.34 	"/>
	<path fill="#FFFFFF" d="M132.05,205.35c-1.34,11.03-7.52,22.12-21.06,22.17c-7.86,0-14.04-5.4-18.27-11.98v-7.69
		c5.29,2.67,10.31,5.52,16.38,5.63c7.41,0.11,14.15-2.79,16.94-8.13H132.05z M86.87,212.26c-6.18,7.47-12.15,15.1-23.34,15.1
		c-15.88,0-23.4-15.32-23.4-28.14c0-12.31,5.91-26.86,21.34-26.86c6.69,0,13.15,4.07,16.99,8.41L78.4,191.2
		c-3.18-2.12-10.36-4.23-15.1-4.35c-9.75-0.17-18.39,4.07-18.22,13.76c0.11,6.63,6.69,11.14,13.2,11.14
		c10.08,0,16.16-9.14,21.23-16.1c1.45-1.84,5.4-7.19,6.07-8.02c5.63-7.91,12.15-15.1,23.35-15.1c13.26,0,20.67,10.64,22.73,21.62
		h-5.96c-2.4-3.57-6.96-5.74-11.53-5.74c-10.36,0-16.6,9.53-21.78,16.55C92.38,204.96,88.37,210.47,86.87,212.26L86.87,212.26z"/>
	<path fill-rule="evenodd" fill="#FFFFFF" d="M226.77,228.3c13.65,0,24.07-7.97,24.07-21.67c0-13.76-10.42-21.73-24.07-21.73
		c-13.71,0-24.13,7.97-24.13,21.73C202.65,220.34,213.07,228.3,226.77,228.3L226.77,228.3z M226.77,218.27
		c-6.63,0-9.3-5.52-9.3-11.64c0-6.18,2.67-11.7,9.3-11.7c6.57,0,9.3,5.52,9.3,11.7C236.08,212.76,233.35,218.27,226.77,218.27
		L226.77,218.27z"/>
	<path fill="#FFFFFF" d="M249.56,195.88h8.19v16.88c0,9.86,3.12,15.54,15.88,15.54c3.62,0,6.3-0.5,9.03-0.84l-0.5-9.3
		c-1.39,0.22-2.95,0.56-4.35,0.56c-4.57,0-5.74-2.51-5.74-7.52v-15.32h10.03v-10.03h-10.03v-14.32l-14.1,5.01v9.3h-8.41V195.88z"/>
	<polygon fill="#FFFFFF" points="332.19,227.3 346.51,227.3 346.51,206.8 346.67,206.8 358.15,227.3 375.48,227.3 359.88,204.9 
		374.31,185.85 358.6,185.85 346.67,203.29 346.51,203.29 346.51,171.58 332.19,176.54 	"/>
	<polygon fill="#FFFFFF" points="164.54,227.3 178.86,227.3 178.86,206.8 179.02,206.8 190.44,227.3 207.83,227.3 192.23,204.9 
		206.6,185.85 190.95,185.85 179.02,203.29 178.86,203.29 178.86,171.58 164.54,176.32 	"/>
	<path fill-rule="evenodd" fill="#FFFFFF" d="M327.12,227.52c-0.67-3.29-0.78-6.63-0.78-9.92v-15.6c0-12.81-9.3-17.38-20-17.38
		c-6.18,0-11.59,0.89-16.71,2.95l0.22,9.81c4.01-2.23,8.69-3.12,13.37-3.12c5.24,0,9.47,1.56,9.58,7.24
		c-1.84-0.33-4.46-0.56-6.8-0.56c-7.69,0-21.62,1.56-21.62,14.32c0,9.14,7.41,13.2,15.66,13.2c5.96,0,10.03-2.34,13.32-7.58h0.17
		c0,2.17,0.22,4.35,0.33,6.63H327.12z M297.87,214.21c0-4.01,3.9-5.52,8.8-5.52c2.17,0,4.29,0.17,6.13,0.22
		c0,4.9-3.45,9.92-8.97,9.92C300.48,218.83,297.87,217.16,297.87,214.21L297.87,214.21z"/>

</svg>
