<?xml version="1.0" encoding="UTF-8" standalone="yes"?>
<svg version="1.2" viewBox="0 0 130 130" xml:space="preserve" baseProfile="tiny-ps" xmlns="http://www.w3.org/2000/svg">
  <title>bimi-svg-tiny-12-ps</title>
  <g>
    <path d="M63.282,23.823c1.969,0.124,3.665-1.37,3.789-3.339&#xD;&#xA;&#x9;&#x9;c0.124-1.968-1.371-3.664-3.341-3.787c-1.967-0.124-3.664,1.371-3.787,3.339C59.819,22.004,61.314,23.699,63.282,23.823&#xD;&#xA;&#x9;&#x9;L63.282,23.823z" fill-rule="evenodd" fill="#AEB789"/>
    <path d="M58.017,42.751c-4.584-6.867-6.628-15.556-6.133-26.067&#xD;&#xA;&#x9;&#x9;c-3.963,10.836-2.563,21.268,0.468,29.809C54.326,45.381,56.22,44.136,58.017,42.751L58.017,42.751z" fill-rule="evenodd" fill="#CCD49E"/>
    <path d="M75.529,16.337c1.399,18.547-6.727,33.888-24.378,46.026&#xD;&#xA;&#x9;&#x9;l13.3,4.791C64.451,67.154,85.967,42.471,75.529,16.337L75.529,16.337z" fill-rule="evenodd" fill="#CCD49E"/>
    <path d="M97.721,54.051c-10.814,1.093-18.973,1.868-24.478,2.326&#xD;&#xA;&#x9;&#x9;c-1.297,2.506-2.752,4.937-4.334,7.258c-0.549,0.806-1.132,1.637-1.74,2.447L97.721,54.051L97.721,54.051z" fill-rule="evenodd" fill="#CCD49E"/>
    <path d="M51.151,62.363c17.651-12.138,25.777-27.48,24.378-46.026&#xD;&#xA;&#x9;&#x9;c0,0-3.231,32.532-44.719,38.698L51.151,62.363L51.151,62.363z" fill-rule="evenodd" fill="#AEB789"/>
    <path d="M51.884,16.685c-0.495,10.511,1.549,19.2,6.133,26.067&#xD;&#xA;&#x9;&#x9;c1.781-1.373,3.468-2.886,5.043-4.545C53.341,27.945,51.884,16.685,51.884,16.685L51.884,16.685z" fill-rule="evenodd" fill="#AEB789"/>
    <path d="M73.243,56.378c5.505-0.458,13.664-1.233,24.478-2.326&#xD;&#xA;&#x9;&#x9;c-8.407-0.998-15.287-3.116-20.914-5.86c-0.459,1.298-0.966,2.588-1.517,3.866C74.661,53.517,73.977,54.96,73.243,56.378&#xD;&#xA;&#x9;&#x9;L73.243,56.378z" fill-rule="evenodd" fill="#AEB789"/>
    <path d="M108.861,98.271c-1.079,1.652-0.615,3.864,1.036,4.943&#xD;&#xA;&#x9;&#x9;c1.651,1.078,3.864,0.614,4.942-1.039c1.078-1.65,0.614-3.864-1.037-4.942C112.151,96.155,109.939,96.62,108.861,98.271&#xD;&#xA;&#x9;&#x9;L108.861,98.271z" fill-rule="evenodd" fill="#93B7CE"/>
    <path d="M94.99,84.357c8.234-0.602,16.801,1.905,25.701,7.519&#xD;&#xA;&#x9;&#x9;c-7.472-8.791-17.239-12.717-26.164-14.292C94.523,79.849,94.671,82.11,94.99,84.357L94.99,84.357z" fill-rule="evenodd" fill="#B2D4E4"/>
    <path d="M109.334,112.617c-16.824-7.929-26.164-22.563-28.02-43.904&#xD;&#xA;&#x9;&#x9;l-10.727,9.208C70.588,77.921,81.452,108.81,109.334,112.617L109.334,112.617z" fill-rule="evenodd" fill="#B2D4E4"/>
    <path d="M65.581,113.325c4.382-9.947,7.731-17.427,10.047-22.442&#xD;&#xA;&#x9;&#x9;c-1.541-2.364-2.938-4.829-4.177-7.349c-0.43-0.875-0.866-1.793-1.271-2.72L65.581,113.325L65.581,113.325z" fill-rule="evenodd" fill="#B2D4E4"/>
    <path d="M81.314,68.712c1.856,21.341,11.195,35.976,28.02,43.904&#xD;&#xA;&#x9;&#x9;c0,0-26.709-18.853-11.614-57.987L81.314,68.712L81.314,68.712z" fill-rule="evenodd" fill="#93B7CE"/>
    <path d="M120.691,91.875c-8.9-5.614-17.467-8.12-25.701-7.519&#xD;&#xA;&#x9;&#x9;c0.316,2.227,0.8,4.44,1.467,6.629C110.177,87.59,120.691,91.875,120.691,91.875L120.691,91.875z" fill-rule="evenodd" fill="#93B7CE"/>
    <path d="M75.627,90.883c-2.316,5.015-5.665,12.496-10.047,22.442&#xD;&#xA;&#x9;&#x9;c5.014-6.822,10.249-11.762,15.411-15.305c-0.903-1.04-1.775-2.117-2.616-3.226C77.417,93.528,76.499,92.221,75.627,90.883&#xD;&#xA;&#x9;&#x9;L75.627,90.883z" fill-rule="evenodd" fill="#93B7CE"/>
    <path d="M20.693,99.502c1.117,1.626,0.705,3.849-0.92,4.966&#xD;&#xA;&#x9;&#x9;c-1.626,1.116-3.848,0.704-4.965-0.923c-1.116-1.624-0.704-3.848,0.922-4.964C17.355,97.464,19.577,97.877,20.693,99.502&#xD;&#xA;&#x9;&#x9;L20.693,99.502z" fill-rule="evenodd" fill="#E89D72"/>
    <path d="M34.235,85.268c-8.246-0.409-16.752,2.297-25.518,8.118&#xD;&#xA;&#x9;&#x9;c7.265-8.963,16.937-13.117,25.822-14.901C34.597,80.75,34.501,83.014,34.235,85.268L34.235,85.268z" fill-rule="evenodd" fill="#F9B995"/>
    <path d="M20.556,113.855c16.634-8.32,25.629-23.169,26.985-44.548&#xD;&#xA;&#x9;&#x9;l10.939,8.955C58.48,78.262,48.341,109.398,20.556,113.855L20.556,113.855z" fill-rule="evenodd" fill="#F9B995"/>
    <path d="M64.314,113.54c-4.613-9.841-8.136-17.242-10.569-22.201&#xD;&#xA;&#x9;&#x9;c1.485-2.4,2.824-4.896,4.005-7.445c0.41-0.885,0.824-1.812,1.207-2.749L64.314,113.54L64.314,113.54z" fill-rule="evenodd" fill="#F9B995"/>
    <path d="M47.541,69.307c-1.356,21.379-10.351,36.228-26.985,44.548&#xD;&#xA;&#x9;&#x9;c0,0,26.26-19.472,10.254-58.242L47.541,69.307L47.541,69.307z" fill-rule="evenodd" fill="#E89D72"/>
    <path d="M8.717,93.385c8.766-5.82,17.272-8.526,25.518-8.118&#xD;&#xA;&#x9;&#x9;c-0.264,2.233-0.696,4.457-1.312,6.661C19.128,88.855,8.717,93.385,8.717,93.385L8.717,93.385z" fill-rule="evenodd" fill="#E89D72"/>
    <path d="M53.745,91.339c2.433,4.96,5.956,12.36,10.569,22.201&#xD;&#xA;&#x9;&#x9;c-5.172-6.703-10.521-11.519-15.765-14.94c0.878-1.061,1.725-2.157,2.54-3.286C52.018,94.025,52.905,92.697,53.745,91.339&#xD;&#xA;&#x9;&#x9;L53.745,91.339z" fill-rule="evenodd" fill="#E89D72"/>
  </g>
</svg>