<svg version="1.2" baseProfile="tiny-ps" id="Ebene_1" xmlns="http://www.w3.org/2000/svg" xmlns:xlink="http://www.w3.org/1999/xlink" viewBox="0 0 708.7 708.7" xml:space="preserve"> 
<title>MOIA</title>
<path fill="#000C15" d="M583.7,401.4L540,303.3l-43.7,98.1h16.9l26.8-60.3l26.8,60.3H583.7L583.7,401.4z M430.6,401.4h16.8v-94.2  h-16.8V401.4L430.6,401.4z M365.7,388.8c9.7-9.5,14.6-21,14.6-34.2c0-15-5.4-27.3-16-36.6c-9.6-8.4-20.6-12.6-32.7-12.6  c-13.7,0-25.5,4.8-35.2,14.2c-9.6,9.4-14.5,21-14.5,34.5c0,13.4,4.9,25,14.5,34.6c9.6,9.5,21.2,14.4,34.5,14.4  C344.4,403.1,356.1,398.3,365.7,388.8L365.7,388.8z M363.4,354.5c0,9.1-3.1,16.9-9.4,23.1c-6.2,6.3-13.9,9.5-23,9.5  s-16.8-3.2-22.9-9.5c-6.2-6.2-9.3-14.1-9.3-23.4c0-9.1,3.2-17,9.4-23.4c6.2-6.3,14-9.5,23.1-9.5c8.4,0,15.9,3.1,22.3,9.3  C360.1,336.9,363.4,344.9,363.4,354.5L363.4,354.5z M235.2,401.4h17.6l-41.6-98.1l-22.4,61.5l-22.3-61.5l-41.6,98.1h17.6l23.6-55.7  l22.7,59.6l22.7-59.6L235.2,401.4L235.2,401.4z"/>
</svg>
