<?xml version="1.0" encoding="utf-8"?>
<!-- Generator: Adobe Illustrator 25.4.0, SVG Export Plug-In . SVG Version: 6.00 Build 0)  -->
<svg version="1.2" baseProfile="tiny-ps" id="Layer_1" xmlns="http://www.w3.org/2000/svg" xmlns:xlink="http://www.w3.org/1999/xlink"
	 viewBox="0 0 223 177" xml:space="preserve">
	 <title>Trust Italia S.p.A.</title>
<g>
	<polygon fill="#741B4B" points="72.9,53.6 72.9,36.6 89.9,36.6 	"/>
	<polygon fill="#B12973" points="89.9,36.6 89.9,53.6 72.9,53.6 	"/>
	<polygon fill="#521A23" points="56.1,70.6 56.1,53.6 73.1,53.6 	"/>
	<polygon fill="#6D0E0C" points="73.1,53.6 73.1,70.6 56.1,70.6 	"/>
	<polygon fill="#832056" points="61.3,31.9 61.3,15.9 77.3,15.9 	"/>
	<polygon fill="#5C133E" points="77.3,15.9 77.3,31.9 61.3,31.9 	"/>
	<polygon fill="#A50D33" points="56.1,48.8 56.1,35.8 69.1,35.8 	"/>
	<polygon fill="#941B3C" points="69.1,35.8 69.1,48.8 56.1,48.8 	"/>
	<polygon fill="#600E3E" points="89.9,36.6 106.9,36.6 106.9,53.6 	"/>
	<polygon fill="#751B4F" points="106.9,53.6 89.9,53.6 89.9,36.6 	"/>
	<polygon fill="#610D1C" points="73.1,87.6 56.1,87.6 56.1,70.6 	"/>
	<polygon fill="#881826" points="56.1,70.6 73.1,70.6 73.1,87.6 	"/>
	<polygon fill="#B41C45" points="90.1,70.6 107.1,70.6 107.1,87.6 	"/>
	<polygon fill="#92182F" points="107.1,87.6 90.1,87.6 90.1,70.6 	"/>
	<polygon fill="#9C182F" points="73.1,87.6 73.1,70.6 90.1,70.6 	"/>
	<polygon fill="#6C171E" points="90.1,70.6 90.1,87.6 73.1,87.6 	"/>
	<polygon fill="#FD922A" points="107.1,121.6 107.1,138.6 90.1,138.6 	"/>
	<polygon fill="#F0A621" points="90.1,138.6 90.1,121.6 107.1,121.6 	"/>
	<polygon fill="#FEB12D" points="90.1,104.6 90.1,87.6 107.1,87.6 	"/>
	<polygon fill="#C24F23" points="107.1,87.6 107.1,104.6 90.1,104.6 	"/>
	<polygon fill="#ED8A08" points="107.1,121.6 90.1,121.6 90.1,104.6 	"/>
	<polygon fill="#E56818" points="90.1,104.6 107.1,104.6 107.1,121.6 	"/>
	<polygon fill="#67B346" points="140.9,121.6 140.9,138.6 123.9,138.6 	"/>
	<polygon fill="#028041" points="123.9,138.6 123.9,121.6 140.9,121.6 	"/>
	<polygon fill="#038B4D" points="140.9,155.6 123.9,155.6 123.9,138.6 	"/>
	<polygon fill="#64B348" points="123.9,138.6 140.9,138.6 140.9,155.6 	"/>
	<polygon fill="#91BF52" points="123.9,104.6 123.9,87.6 140.9,87.6 	"/>
	<polygon fill="#67B440" points="140.9,87.6 140.9,104.6 123.9,104.6 	"/>
	<polygon fill="#035F36" points="140.9,121.6 123.9,121.6 123.9,104.6 	"/>
	<polygon fill="#028050" points="123.9,104.6 140.9,104.6 140.9,121.6 	"/>
	<polygon fill="#0B539B" points="157.9,70.6 157.9,87.6 174.9,87.6 	"/>
	<polygon fill="#253F70" points="174.9,87.6 174.9,70.6 157.9,70.6 	"/>
	<polygon fill="#213A70" points="174.9,53.6 157.9,53.6 157.9,70.6 	"/>
	<polygon fill="#1D2A54" points="157.9,70.6 174.9,70.6 174.9,53.6 	"/>
	<polygon fill="#1B99D3" points="140.9,70.6 123.9,70.6 123.9,87.6 	"/>
	<polygon fill="#32B6DD" points="123.9,87.6 140.9,87.6 140.9,70.6 	"/>
	<polygon fill="#29BBEC" points="157.9,87.6 157.9,70.6 140.9,70.6 	"/>
	<polygon fill="#1F9CD4" points="140.9,70.6 140.9,87.6 157.9,87.6 	"/>
	<polygon fill="#253475" points="107.1,138.6 90.1,138.6 90.1,155.6 	"/>
	<polygon fill="#125EAC" points="90.1,155.6 107.1,155.6 107.1,138.6 	"/>
	<polygon fill="#36B4EE" points="124.1,155.6 124.1,138.6 107.1,138.6 	"/>
	<polygon fill="#008BC5" points="107.1,138.6 107.1,155.6 124.1,155.6 	"/>
	<polygon fill="#EA7E1C" points="140.9,53.6 140.9,36.6 157.9,36.6 	"/>
	<polygon fill="#F1A126" points="157.9,36.6 157.9,53.6 140.9,53.6 	"/>
	<polygon fill="#F28028" points="157.9,36.6 174.9,36.6 174.9,53.6 	"/>
	<polygon fill="#F9BA17" points="174.9,53.6 157.9,53.6 157.9,36.6 	"/>
	<polygon fill="#7B1E57" points="106.9,53.6 106.9,36.6 123.9,36.6 	"/>
	<polygon fill="#9C1A62" points="123.9,36.6 123.9,53.6 106.9,53.6 	"/>
	<polygon fill="#DD488C" points="123.9,36.6 140.9,36.6 140.9,53.6 	"/>
	<polygon fill="#CC1684" points="140.9,53.6 123.9,53.6 123.9,36.6 	"/>
	<rect x="43.3" y="26" fill="#6D1217" width="8.6" height="8.6"/>
</g>
</svg>
