<?xml version="1.0" encoding="UTF-8" standalone="yes"?>
<svg width="100" height="100" viewBox="0 0 100 100" fill="none" version="1.2" baseProfile="tiny-ps" xmlns="http://www.w3.org/2000/svg">
  <title>Vestiaire Collective</title>
  <rect width="100" height="100" fill="#FF5B29"/>
  <path d="M64.9729 39.5223L50.5673 78H44.9729L27.9799 34.9134C27.0708 32.6089 26.1617 30.7235 22.875 28.419V28H47.2106V28.4888C44.2736 30.3743 43.0848 31.5614 43.0848 33.5167C43.0848 34.7737 43.5743 36.3101 44.3436 38.4749L53.5043 63.6145L62.5254 39.243L62.5589 39.1552C63.1042 37.7262 63.5743 36.4944 63.5743 35.2626C63.5743 33.2374 62.3156 31.2123 57.84 28.4888V28H72.875V28.4888C67.84 32.8184 66.7911 34.7039 64.9729 39.5223Z" fill="black"/>
  <path d="M67.25 78C70.3566 78 72.875 75.4816 72.875 72.375C72.875 69.2684 70.3566 66.75 67.25 66.75C64.1434 66.75 61.625 69.2684 61.625 72.375C61.625 75.4816 64.1434 78 67.25 78Z" fill="black"/>
</svg>
