<?xml version="1.0" encoding="UTF-8"?>
<svg id="bimi" xmlns="http://www.w3.org/2000/svg" baseProfile="tiny-ps" version="1.2" viewBox="0 0 566.93 566.93">
  <title>イオンフィナンシャルサービス</title>
  <path d="M244.62,453.89c0,.74.26,4.48,5.47,4.48,2.57,0,4.49-.97,5.75-2.87,1.08-1.76,1.2-3.39,1.3-6.83-.78-.04-2.5-.14-2.5-.14-6.64,0-10.01,1.81-10.01,5.36Z" fill="#6857a3" stroke-width="0"/>
  <path d="M298.72,344.25c0-4.98-15.67-9.56-38.51-11.6h-.09c-.56,0-.99-.41-.99-.99,0-.75.42-1.25.99-1.25,29.16,2.79,49.81,9.21,49.81,17.64s-22.89,15.52-54.29,17.77c7.1,18.34,24.85,31.43,45.69,31.43h.02c27.23,0,49.26-22.15,49.26-49.2s-22-49.1-49.17-49.1-49.13,22.05-49.13,49.1c0,2.89.09,5.51.71,8.34,26.47-1.71,45.7-6.48,45.7-12.14Z" fill="#6857a3" stroke-width="0"/>
  <path d="M182.94,337.75v-1.37c-8.84,2.19-14.26,4.9-14.26,7.86s5.42,5.68,14.26,7.81v-14.3Z" fill="#6857a3" stroke-width="0"/>
  <path d="M290.31,176.59c134.75-20.04,194.63-71.4,42.8-104.31C218.15,47.45,74.3,47.43,0,48.84v142.95c67.81.43,195.7-1.14,290.31-15.2Z" fill="#6857a3" stroke-width="0"/>
  <path d="M544.25,0H22.68C10.15,0,0,10.15,0,22.68v13.38c83.24-2.07,260.38-1.08,388.43,37.82,68.66,20.88,199.2,81.92-19.45,144.56h0C238.17,255.7,77.8,255.61,0,252.9v291.36C0,556.78,10.15,566.93,22.68,566.93h521.57c12.52,0,22.68-10.15,22.68-22.68V22.68C566.93,10.15,556.78,0,544.25,0ZM159.81,425.54h-19.32v11.95h18.22v6.25h-18.22v19.34h-7.32v-43.86h25.99s.65-.01.65-.01v6.33ZM180.13,463.1h-6.86v-30.9h6.86v30.9ZM180.66,426.73h-7.98v-7.38h7.98v7.38ZM157.45,348.05c0-5.5,9.9-10.56,25.47-13.94v-4.64l.1-30.18-72.76,102.03h-11.72l74.39-106.52h73.37v10.71h-53.06v26.72c11.75-1.93,25.51-2.83,40.47-2.83h.35c.67,0,1.16.51,1.16,1,0,.73-.49,1.25-1.16,1.25h-.35c-15.33,0-29.38.99-40.47,2.71v19.77c11.1,1.79,25.14,2.78,40.47,2.78h8.85c-.53-3.07-.72-5.88-.72-8.86,0-32.96,26.64-59.5,59.6-59.5h0c32.8,0,59.53,26.67,59.53,59.51s-26.73,59.48-59.63,59.48c-26.41,0-48.75-17.25-56.54-41.12-3.63.15-7.29.15-11.1.15-14.95,0-28.79-1-40.47-2.75v26.36h53.06v11.14h-63.36v-39.54c-15.58-3.27-25.47-8.23-25.47-13.73ZM223.68,463.09h-6.97v-19.46c0-1.92-.24-3.43-1.4-4.59-1.21-1.15-2.96-1.81-4.79-1.81-3.52,0-7.07,2.53-7.07,8.18v17.69h-6.84v-26.82s-.08-4.08-.08-4.08h6.86s.03,2.06.04,3.41h.01c2.05-2.6,4.98-4,8.86-4,5.25,0,11.39,2.81,11.39,10.73v20.76ZM257.94,463.1l-.13-.48c-.23-.8-.35-1.66-.44-2.57-3.07,3.98-7.15,4-8.59,4-6.73,0-11.08-3.69-11.08-9.4,0-2.24.72-6.43,5.52-9.22,2.42-1.35,5.99-2.04,10.58-2.04,0,0,2.93.12,3.36.14-.01-2.99-.08-4.4-.93-5.45-.88-1.16-2.96-1.68-4.6-1.68-5.08,0-5.25,3.29-5.3,4.39l-.02.62h-6.91l.11-.97c.18-1.55.43-3.65,2.2-5.73h-.02c2.78-3.07,7.94-3.39,10.03-3.39,4.15,0,9.23,1.23,11.07,4.71.99,1.87,1.08,3.36,1.08,4.85l-.24,14.13s.02,4.18.47,7.35l.1.74h-6.25ZM306.9,463.09h-6.96v-19.46c0-1.91-.23-3.43-1.38-4.59-1.21-1.15-2.96-1.81-4.79-1.81-3.51,0-7.07,2.53-7.07,8.18v17.69h-6.84v-26.82s-.06-4.08-.06-4.08h6.84s.02,2.05.05,3.4c2.04-2.59,4.96-3.99,8.84-3.99,5.25,0,11.37,2.81,11.37,10.73v20.76ZM347.44,452.65c-.35,5.57-4.39,11.22-12.62,11.22-1.96,0-6.86-.4-10.22-4.06-1.58-1.85-3.7-5.08-3.7-11.75l.04.02c0-12.27,7.27-16.63,14.09-16.63,1.9,0,6.64.38,9.57,3.89,2.31,2.68,2.49,5.24,2.63,6.96l.05.72h-6.3l-.6-.04-.05-.59c-.14-1.37-.59-5.55-5.25-5.55s-7.01,3.52-7.01,10.48c0,7.46,2.19,11.08,6.71,11.08,5.13,0,5.71-4.45,5.76-5.81l.03-.63h6.92l-.05.7ZM367.75,463.1h-6.84v-30.9h6.84v30.9ZM368.27,426.73h-7.96v-7.38h7.96v7.38ZM402.4,463.1l-.14-.48c-.23-.8-.35-1.65-.44-2.57-3.06,3.98-7.15,4-8.59,4-6.72,0-11.07-3.69-11.07-9.4,0-2.24.72-6.42,5.52-9.22,2.42-1.35,5.96-2.04,10.57-2.04,0,0,2.91.12,3.35.14,0-2.99-.06-4.4-.92-5.45-.87-1.16-2.93-1.68-4.59-1.68-5.08,0-5.26,3.31-5.31,4.39l-.04.62h-6.89l.11-.96c.18-1.55.43-3.66,2.2-5.74h0c2.79-3.07,7.94-3.39,10.03-3.39,4.14,0,9.23,1.23,11.07,4.71.99,1.86,1.07,3.36,1.07,4.85l-.23,14.13s.01,4.18.45,7.35l.1.74h-6.25ZM431.15,463.09h-6.84v-43.79h6.84v43.79ZM454.72,401.32h-10.47l-66-94.76v94.76h-10.26v-106.52h13.75l62.51,90.02v-90.02h10.47v106.52Z" fill="#6857a3" stroke-width="0"/>
  <path d="M389.07,453.89h-.01c0,.74.28,4.48,5.49,4.48,2.57,0,4.52-.97,5.76-2.87,1.07-1.75,1.17-3.27,1.28-6.83-.78-.04-2.5-.14-2.5-.14-6.64,0-10.01,1.81-10.01,5.36Z" fill="#6857a3" stroke-width="0"/>
  <path d="M368.97,218.42h0c218.66-62.64,88.11-123.67,19.45-144.55C260.38,34.97,83.24,33.98,0,36.05v12.79c74.3-1.41,218.15-1.39,333.11,23.44,151.83,32.92,91.95,84.27-42.8,104.31C195.7,190.65,67.81,192.22,0,191.79v61.11c77.8,2.71,238.17,2.81,368.97-34.47Z" fill="#f8b500" stroke-width="0"/>
  <polygon points="444.25 384.82 381.74 294.8 368 294.8 368 401.32 378.25 401.32 378.25 306.56 444.25 401.32 454.72 401.32 454.72 294.8 444.25 294.8 444.25 384.82" fill="#fff" stroke-width="0"/>
  <path d="M246.28,401.32v-11.14h-53.06v-26.36c11.68,1.75,25.51,2.75,40.47,2.75,3.81,0,7.47,0,11.1-.15,7.78,23.87,30.12,41.12,56.54,41.12,32.9,0,59.63-26.64,59.63-59.48s-26.73-59.5-59.53-59.5h0c-32.96,0-59.6,26.53-59.6,59.49,0,2.98.19,5.79.72,8.86h-8.85c-15.33,0-29.37-.99-40.47-2.78v-19.77c11.09-1.72,25.14-2.71,40.47-2.71h.35c.66,0,1.16-.51,1.16-1.25,0-.48-.48-1-1.16-1h-.35c-14.95,0-28.72.9-40.47,2.83v-26.72h53.06v-10.71h-73.37l-74.39,106.52h11.72l72.76-102.03-.1,30.18v4.64c-15.58,3.38-25.47,8.45-25.47,13.94s9.9,10.45,25.47,13.73v39.54h63.36ZM301.44,298.95c27.16,0,49.17,22.05,49.17,49.1s-22.03,49.21-49.26,49.21h-.02c-20.84,0-38.59-13.09-45.69-31.44,31.4-2.25,54.29-9.34,54.29-17.77s-20.65-14.85-49.81-17.64c-.56,0-.99.49-.99,1.25,0,.58.42.99.99.99h.09c22.83,2.04,38.51,6.62,38.51,11.6,0,5.67-19.22,10.43-45.7,12.14-.62-2.83-.71-5.45-.71-8.34,0-27.05,21.96-49.1,49.13-49.1ZM168.68,344.24c0-2.97,5.42-5.68,14.26-7.86v15.67c-8.84-2.14-14.26-4.77-14.26-7.81Z" fill="#fff" stroke-width="0"/>
  <polygon points="159.16 419.23 133.17 419.23 133.17 463.09 140.49 463.09 140.49 443.75 158.71 443.75 158.71 437.5 140.49 437.5 140.49 425.54 159.81 425.54 159.81 419.22 159.16 419.22 159.16 419.23" fill="#fff" stroke-width="0"/>
  <polygon points="172.68 419.35 172.68 426.73 180.66 426.73 180.66 419.35 180.01 419.35 172.68 419.35" fill="#fff" stroke-width="0"/>
  <polygon points="179.46 432.2 173.27 432.2 173.27 463.1 180.13 463.1 180.13 432.2 179.48 432.2 179.46 432.2" fill="#fff" stroke-width="0"/>
  <path d="M212.3,431.59c-3.87,0-6.81,1.4-8.86,4h-.01c-.01-1.34-.04-3.41-.04-3.41h-6.86s.08,4.06.08,4.08v26.82h6.84v-17.69c0-5.65,3.55-8.18,7.07-8.18,1.84,0,3.59.67,4.79,1.81,1.16,1.16,1.4,2.67,1.4,4.59v19.46h6.97v-20.76c0-7.93-6.14-10.73-11.39-10.73Z" fill="#fff" stroke-width="0"/>
  <path d="M263.63,455.01l.24-14.13c0-1.5-.09-2.98-1.08-4.85-1.84-3.48-6.92-4.71-11.07-4.71-2.09,0-7.25.33-10.03,3.41h.02c-1.77,2.06-2.03,4.17-2.2,5.71l-.11.97h6.91l.02-.62c.05-1.1.21-4.39,5.3-4.39,1.65,0,3.72.53,4.6,1.68.86,1.04.92,2.45.93,5.45-.43-.01-3.36-.14-3.36-.14-4.59,0-8.17.69-10.58,2.04-4.81,2.79-5.52,6.98-5.52,9.22,0,5.71,4.35,9.4,11.08,9.4,1.45,0,5.52-.02,8.59-4,.09.91.21,1.76.44,2.57l.13.48h6.25l-.1-.74c-.44-3.17-.47-7.3-.47-7.35ZM255.84,455.5c-1.26,1.9-3.18,2.87-5.75,2.87-5.21,0-5.47-3.74-5.47-4.48,0-3.55,3.37-5.36,10.01-5.36,0,0,1.72.1,2.5.14-.1,3.45-.21,5.07-1.3,6.83Z" fill="#fff" stroke-width="0"/>
  <path d="M295.53,431.59c-3.88,0-6.81,1.39-8.84,3.99-.03-1.35-.05-3.4-.05-3.4h-6.84s.06,4.06.06,4.08v26.82h6.84v-17.69c0-5.65,3.56-8.18,7.07-8.18,1.84,0,3.59.67,4.79,1.81,1.16,1.16,1.38,2.68,1.38,4.59v19.46h6.96v-20.76c0-7.93-6.13-10.73-11.37-10.73Z" fill="#fff" stroke-width="0"/>
  <path d="M340.54,452.58c-.05,1.36-.63,5.81-5.76,5.81-4.52,0-6.71-3.62-6.71-11.08,0-6.96,2.35-10.48,7.01-10.48s5.11,4.18,5.25,5.55l.05.59.6.04h6.3l-.05-.72c-.14-1.71-.31-4.28-2.63-6.96-2.93-3.51-7.67-3.89-9.57-3.89-6.82,0-14.09,4.37-14.09,16.63l-.04-.02c0,6.67,2.11,9.9,3.7,11.75,3.36,3.66,8.25,4.06,10.22,4.06,8.23,0,12.27-5.65,12.62-11.22l.05-.7h-6.92l-.03.63Z" fill="#fff" stroke-width="0"/>
  <polygon points="360.31 419.35 360.31 426.73 368.27 426.73 368.27 419.35 367.62 419.35 360.31 419.35" fill="#fff" stroke-width="0"/>
  <polygon points="360.91 432.2 360.91 463.1 367.75 463.1 367.75 432.2 367.1 432.2 360.91 432.2" fill="#fff" stroke-width="0"/>
  <path d="M408.1,455.01l.23-14.13c0-1.5-.08-3-1.07-4.85-1.84-3.48-6.93-4.71-11.07-4.71-2.09,0-7.23.33-10.03,3.41h0c-1.77,2.06-2.03,4.18-2.2,5.73l-.11.96h6.89l.04-.62c.05-1.08.23-4.39,5.31-4.39,1.66,0,3.72.53,4.59,1.68.86,1.04.92,2.45.92,5.45-.44-.01-3.35-.14-3.35-.14-4.6,0-8.15.69-10.57,2.04-4.81,2.8-5.52,6.98-5.52,9.22,0,5.71,4.35,9.4,11.07,9.4,1.45,0,5.54-.02,8.59-4,.09.92.21,1.76.44,2.57l.14.48h6.25l-.1-.74c-.44-3.17-.45-7.3-.45-7.35ZM400.3,455.5c-1.25,1.9-3.2,2.87-5.76,2.87-5.21,0-5.49-3.74-5.49-4.48h.01c0-3.55,3.37-5.36,10.01-5.36,0,0,1.72.1,2.5.14-.11,3.56-.21,5.08-1.28,6.83Z" fill="#fff" stroke-width="0"/>
  <polygon points="424.3 419.29 424.3 463.09 431.15 463.09 431.15 419.29 430.49 419.29 424.3 419.29" fill="#fff" stroke-width="0"/>
</svg>