<svg xmlns="http://www.w3.org/2000/svg"
     width="423.28mm" height="423.28mm"
     version="1.2" baseProfile="tiny-ps"
     viewBox="0 0 1600 1600">
  <title>Icon AGNITAS</title>
  <path id="polygons"
        fill="#cfcfcf"
        d="M 830.00,131.00
           C 832.15,154.04 831.00,206.09 831.00,232.00
             831.00,232.00 831.00,413.00 831.00,413.00
             831.00,413.00 1115.00,413.00 1115.00,413.00
             1115.00,413.00 1115.00,131.00 1115.00,131.00
             1115.00,131.00 830.00,131.00 830.00,131.00 Z
           M 488.00,474.00
           C 488.00,474.00 488.00,758.00 488.00,758.00
             488.00,758.00 770.00,758.00 770.00,758.00
             770.00,758.00 770.00,474.00 770.00,474.00
             770.00,474.00 488.00,474.00 488.00,474.00 Z" />
  <path id="blue"
        fill="#0070ba"
        d="M 614.00,474.00
           C 614.00,474.00 770.00,474.00 770.00,474.00
             770.00,474.00 770.00,630.00 770.00,630.00
             770.00,630.00 792.00,632.00 792.00,632.00
             813.27,632.03 831.26,631.34 852.00,625.44
             921.02,605.82 971.28,551.16 985.72,481.00
             988.78,466.10 989.02,451.13 989.00,436.00
             989.00,436.00 987.00,413.00 987.00,413.00
             987.00,413.00 831.00,413.00 831.00,413.00
             831.00,413.00 831.00,257.00 831.00,257.00
             831.00,257.00 798.00,255.00 798.00,255.00
             798.00,255.00 788.00,255.91 788.00,255.91
             774.33,256.85 761.24,258.65 748.00,262.43
             677.77,282.46 627.29,340.50 614.61,412.00
             612.72,422.69 611.98,436.12 612.00,447.00
             612.00,447.00 614.00,474.00 614.00,474.00 Z
           M 878.00,853.00
           C 878.00,853.00 878.00,915.00 878.00,915.00
             878.00,915.00 940.00,915.00 940.00,915.00
             940.00,915.00 940.00,853.00 940.00,853.00
             940.00,853.00 878.00,853.00 878.00,853.00 Z" />
  <path id="name"
        fill="black"
        d="M 1392.00,1020.00
           C 1392.00,1020.00 1333.00,1020.00 1333.00,1020.00
             1333.00,1048.55 1335.89,1074.72 1361.00,1093.07
             1377.75,1105.31 1399.85,1108.03 1420.00,1108.00
             1454.21,1107.95 1486.70,1086.01 1497.25,1053.00
             1499.09,1047.26 1499.54,1042.87 1500.16,1037.00
             1500.61,1032.86 1501.14,1031.53 1500.96,1027.00
             1499.60,991.86 1477.80,972.15 1448.00,957.25
             1434.51,950.50 1408.44,939.80 1401.92,926.00
             1396.62,914.78 1406.40,902.77 1418.00,902.11
             1432.33,901.29 1440.71,912.69 1441.00,926.00
             1441.00,926.00 1477.00,926.00 1477.00,926.00
             1477.00,926.00 1498.00,927.00 1498.00,927.00
             1498.00,927.00 1499.00,926.00 1499.00,926.00
             1499.00,926.00 1497.20,906.00 1497.20,906.00
             1493.58,887.11 1484.20,871.34 1468.00,860.52
             1445.51,845.50 1409.73,844.79 1385.00,854.46
             1371.31,859.82 1357.88,869.97 1349.44,882.00
             1340.15,895.23 1336.82,911.07 1337.00,927.00
             1337.41,961.92 1364.31,984.51 1394.00,997.42
             1405.19,1002.29 1421.46,1008.27 1429.82,1017.09
             1434.03,1021.53 1438.13,1028.66 1437.45,1035.00
             1435.78,1050.49 1415.58,1058.40 1403.04,1049.75
             1393.74,1043.34 1392.23,1030.43 1392.00,1020.00 Z
           M 603.00,963.00
           C 603.00,963.00 460.00,963.00 460.00,963.00
             460.00,963.00 460.00,1014.00 460.00,1014.00
             460.00,1014.00 530.00,1014.00 530.00,1014.00
             522.80,1024.70 518.04,1030.24 507.00,1037.30
             472.23,1059.54 428.28,1037.74 415.09,1001.00
             403.69,969.26 416.17,935.48 446.00,919.31
             458.12,912.74 465.51,911.85 479.00,912.00
             490.14,912.13 501.92,916.73 511.00,923.04
             521.98,930.67 522.08,935.98 534.00,936.00
             534.00,936.00 596.00,936.00 596.00,936.00
             595.08,925.85 585.37,910.34 579.42,902.00
             557.71,871.57 521.03,849.45 483.00,849.00
             462.40,848.76 444.34,850.62 425.00,858.45
             379.08,877.05 347.58,923.54 347.00,973.00
             346.50,1016.31 362.46,1055.18 397.00,1082.33
             415.24,1096.67 442.59,1107.72 466.00,1108.00
             477.05,1108.13 488.08,1108.33 499.00,1106.39
             535.41,1099.89 568.74,1077.23 587.13,1045.00
             597.31,1027.15 601.67,1010.32 603.09,990.00
             603.09,990.00 604.00,980.00 604.00,980.00
             604.00,980.00 603.00,963.00 603.00,963.00 Z
           M 113.00,1103.00
           C 113.00,1103.00 181.00,1103.00 181.00,1103.00
             181.00,1103.00 188.98,1078.00 188.98,1078.00
             188.98,1078.00 210.33,1012.00 210.33,1012.00
             210.33,1012.00 234.00,939.00 234.00,939.00
             234.00,939.00 250.02,989.00 250.02,989.00
             250.02,989.00 258.00,1015.00 258.00,1015.00
             258.00,1015.00 223.00,1015.00 223.00,1015.00
             223.00,1015.00 223.00,1047.00 223.00,1047.00
             223.00,1047.00 223.00,1067.13 223.00,1067.13
             223.00,1067.13 266.00,1067.00 266.00,1067.00
             266.00,1067.00 274.83,1067.13 274.83,1067.13
             274.83,1067.13 277.67,1077.00 277.67,1077.00
             277.67,1077.00 283.07,1093.00 283.07,1093.00
             283.07,1093.00 287.26,1102.96 287.26,1102.96
             287.26,1102.96 295.00,1103.00 295.00,1103.00
             295.00,1103.00 355.00,1103.00 355.00,1103.00
             355.00,1103.00 346.42,1080.00 346.42,1080.00
             346.42,1080.00 328.45,1033.00 328.45,1033.00
             328.45,1033.00 315.58,999.00 315.58,999.00
             315.58,999.00 280.77,908.00 280.77,908.00
             280.77,908.00 260.00,853.00 260.00,853.00
             260.00,853.00 217.00,853.00 217.00,853.00
             217.00,853.00 209.45,852.91 209.45,852.91
             209.45,852.91 202.68,869.00 202.68,869.00
             202.68,869.00 186.55,911.00 186.55,911.00
             186.55,911.00 139.58,1033.00 139.58,1033.00
             139.58,1033.00 113.00,1103.00 113.00,1103.00 Z
           M 632.00,853.00
           C 632.00,853.00 632.00,1103.00 632.00,1103.00
             632.00,1103.00 693.00,1103.00 693.00,1103.00
             693.00,1103.00 693.00,966.00 693.00,966.00
             693.00,966.00 762.66,1070.00 762.66,1070.00
             762.66,1070.00 777.33,1092.00 777.33,1092.00
             777.33,1092.00 785.30,1102.96 785.30,1102.96
             785.30,1102.96 793.00,1103.00 793.00,1103.00
             793.00,1103.00 840.00,1103.00 840.00,1103.00
             840.00,1103.00 840.00,853.00 840.00,853.00
             840.00,853.00 778.00,853.00 778.00,853.00
             778.00,853.00 778.00,990.00 778.00,990.00
             778.00,990.00 708.67,885.00 708.67,885.00
             708.67,885.00 695.42,865.00 695.42,865.00
             695.42,865.00 686.69,853.06 686.69,853.06
             686.69,853.06 679.00,853.00 679.00,853.00
             679.00,853.00 632.00,853.00 632.00,853.00 Z
           M 961.00,853.00
           C 961.00,853.00 961.00,912.00 961.00,912.00
             961.00,912.00 1007.00,912.00 1007.00,912.00
             1007.00,912.00 1007.00,1040.00 1007.00,1040.00
             1007.00,1040.00 1007.00,1080.00 1007.00,1080.00
             1007.00,1080.00 1006.00,1103.00 1006.00,1103.00
             1006.00,1103.00 1069.00,1103.00 1069.00,1103.00
             1069.00,1103.00 1069.00,912.00 1069.00,912.00
             1069.00,912.00 1116.00,912.00 1116.00,912.00
             1116.00,912.00 1116.00,853.00 1116.00,853.00
             1116.00,853.00 961.00,853.00 961.00,853.00 Z
           M 1092.00,1103.00
           C 1092.00,1103.00 1151.00,1103.00 1151.00,1103.00
             1151.00,1103.00 1158.73,1103.18 1158.73,1103.18
             1158.73,1103.18 1163.00,1092.00 1163.00,1092.00
             1163.00,1092.00 1171.49,1066.00 1171.49,1066.00
             1171.49,1066.00 1199.72,978.00 1199.72,978.00
             1199.72,978.00 1212.00,938.00 1212.00,938.00
             1212.00,938.00 1221.02,965.00 1221.02,965.00
             1221.02,965.00 1237.00,1015.00 1237.00,1015.00
             1237.00,1015.00 1201.00,1015.00 1201.00,1015.00
             1201.00,1015.00 1201.00,1067.00 1201.00,1067.00
             1201.00,1067.00 1244.00,1067.00 1244.00,1067.00
             1244.00,1067.00 1253.04,1067.04 1253.04,1067.04
             1253.04,1067.04 1256.33,1077.00 1256.33,1077.00
             1256.33,1077.00 1262.33,1095.00 1262.33,1095.00
             1262.33,1095.00 1265.27,1103.00 1265.27,1103.00
             1265.27,1103.00 1273.00,1103.00 1273.00,1103.00
             1273.00,1103.00 1334.00,1103.00 1334.00,1103.00
             1334.00,1103.00 1314.94,1053.00 1314.94,1053.00
             1314.94,1053.00 1260.42,911.00 1260.42,911.00
             1260.42,911.00 1244.32,869.00 1244.32,869.00
             1243.22,866.02 1239.30,855.13 1237.96,853.13
             1236.04,852.87 1232.15,853.00 1230.00,853.00
             1230.00,853.00 1188.12,853.06 1188.12,853.06
             1183.94,861.50 1184.88,859.40 1182.05,867.00
             1182.05,867.00 1165.05,911.00 1165.05,911.00
             1165.05,911.00 1115.58,1040.00 1115.58,1040.00
             1115.58,1040.00 1100.55,1079.00 1100.55,1079.00
             1097.67,1086.21 1093.33,1095.54 1092.00,1103.00 Z
           M 878.00,929.00
           C 878.00,929.00 878.00,1103.00 878.00,1103.00
             878.00,1103.00 941.00,1103.00 941.00,1103.00
             941.00,1103.00 940.00,1081.00 940.00,1081.00
             940.00,1081.00 940.00,1045.00 940.00,1045.00
             940.00,1045.00 940.00,929.00 940.00,929.00
             940.00,929.00 878.00,929.00 878.00,929.00 Z
           M 274.83,1067.13M 223.09,1067.26" />
</svg>
