<?xml version="1.0" encoding="UTF-8"?>
<svg id="Layer_1" xmlns="http://www.w3.org/2000/svg" baseProfile="tiny-ps" version="1.2" viewBox="0 0 1224 792">
<title>St. Thomas University</title>
  <!-- Generator: Adobe Illustrator 29.1.0, SVG Export Plug-In . SVG Version: 2.1.0 Build 142)  -->
  <g>
    <path d="M856,118.6h-497.9v181.1h-147l-54.8,36v145.8l43.7,28.7h-43.7v89l54.8,36h202.9l47.7-31.4v37.2h290.4v-37.2l47.7,31.4h188.8l54.8-36v-199.4h24.2v-100.1h-211.8V118.6h.3-.2ZM462,595.1l-49.8,32.6h-198.8l-49.8-32.6v-77.8h114.5v24.8h69.6v-32.1h-134.3l-49.8-32.6v-137.8l49.8-32.6h198.8l49.8,32.6v77.8h-114.5v-24.8h-69.6v32.1h134.3l49.8,32.6v137.8h0ZM284.9,535.1v-17.6h55.5v17.6h-55.5ZM425.1,424.6h43.7v-89l-43.7-28.7h92v204h-48.3v-57.6l-43.7-28.7h0ZM340.4,399.8v17.6h-55.5v-17.6h55.5ZM745.3,633.7h-276.3v-115.6h55.3V241.5h-14.1v58.1h-144.8V125.8h483.7v173.9h-144.8v-58.1h-14.1v276.6h55.3v115.6h-.2ZM745.3,510.8h-48.3v-204h24v92.8h24.2v111.2h0ZM890.9,306.9v85.7h-24.2v149.8h55.5v-149.8h-24.2v-85.7h162.7v85.7h-24.2v202.6l-49.8,32.6h-184.6l-49.8-32.6v-202.6h-24.2v-85.7h163.1ZM915,399.8v135.3h-41.3v-135.3h41.3Z" fill="#fff"/>
    <path d="M675.8,227h42.4v58.1h116.6v-144.8h-455.5v144.8h116.6v-58.1h42.4v305.6h-55.3v86.7h248v-86.7h-55.3V227h.2ZM724.1,539.8v72.1h-233.9v-72.1h55.3V219.7h-56.5v58.1h-102.4v-130.3h441.2v130.3h-102.4v-58.1h-56.5v320.1h55.3-.1Z" fill="#fff"/>
    <path d="M263.7,439.1v-61.1h97.9v24.8h86.1v-55.3l-39.8-26.1h-190.4l-39.8,26.1v122l39.8,26.1h144.2v61.1h-97.9v-24.8h-86.1v55.3l39.8,26.1h190.4l39.8-26.1v-122l-39.8-26.1h-144.2ZM440.7,583.3l-34.8,22.8h-186.4l-34.8-22.8v-44.1h72v24.8h112.1v-75.6h-149.3l-34.8-22.9v-114.1l34.8-22.8h186.4l34.8,22.8v44.1h-72v-24.8h-112.1v75.6h149.3l34.8,22.8v114.1h0Z" fill="#fff"/>
    <path d="M766.5,587.1l39.8,26.1h176.5l39.8-26.1v-209.2h24.2v-56.6h-134.4v56.6h24.2v178.7h-83.7v-178.7h24.2v-56.6h-134.4v56.6h24.2v209.2h-.5ZM749.4,370.8v-42.1h120.3v42.1h-24.2v193.3h97.9v-193.3h-24.2v-42.1h120.3v42.1h-24.2v212.4l-34.8,22.8h-172.2l-34.8-22.8v-212.4h-24.2.4Z" fill="#fff"/>
  </g>
  <g>
    <path d="M690,241.5h14.1v58.1h144.8V125.8h-483.7v173.9h144.8v-58.1h14.1v276.6h-55.3v115.6h276.3v-115.6h-55.3V241.5h.2ZM731.2,532.5v86.7h-248v-86.7h55.3V226.9h-42.4v58.1h-116.6v-144.8h455.5v144.8h-116.6v-58.1h-42.4v305.6h55.3-.2Z" fill="#8a2432"/>
    <path d="M213.4,306.9l-49.8,32.6v137.8l49.8,32.6h134.3v32.1h-69.6v-24.8h-114.5v77.8l49.8,32.6h198.8l49.8-32.6v-137.8l-49.8-32.6h-134.3v-32.1h69.6v24.8h114.5v-77.8l-49.8-32.6h-198.8,0ZM447.8,402.9h-86.1v-24.8h-97.9v61.1h144.2l39.8,26.1v122l-39.8,26.1h-190.4l-39.8-26.1v-55.3h86.1v24.8h97.9v-61.1h-144.2l-39.8-26.1v-122l39.8-26.1h190.4l39.8,26.1v55.3h0Z" fill="#8a2432"/>
    <path d="M898,392.6h24.2v149.8h-55.5v-149.8h24.2v-85.7h-162.7v85.7h24.2v202.6l49.8,32.6h184.6l49.8-32.6v-202.6h24.2v-85.7h-162.7v85.7h-.4ZM912.1,321.4h134.4v56.6h-24.2v209.2l-39.8,26.1h-176.5l-39.8-26.1v-209.2h-24.2v-56.6h134.4v56.6h-24.2v178.7h83.7v-178.7h-24.2v-56.6h.5Z" fill="#8a2432"/>
  </g>
  <polygon points="827.6 277.9 827.6 147.6 386.5 147.6 386.5 277.9 488.8 277.9 488.8 219.7 545.3 219.7 545.3 539.8 490.2 539.8 490.2 611.9 724.1 611.9 724.1 539.8 668.8 539.8 668.8 219.7 725.4 219.7 725.4 277.9 827.6 277.9" fill="#002856"/>
  <polygon points="219.6 328.7 184.8 351.5 184.8 465.5 219.6 488.4 368.7 488.4 368.7 564 256.7 564 256.7 539.3 184.8 539.3 184.8 583.3 219.6 606 405.8 606 440.7 583.3 440.7 469.2 405.8 446.4 256.7 446.4 256.7 370.8 368.7 370.8 368.7 395.6 440.7 395.6 440.7 351.5 405.8 328.7 219.6 328.7" fill="#002856"/>
  <polygon points="1039.6 328.7 919.2 328.7 919.2 370.8 943.4 370.8 943.4 564 845.4 564 845.4 370.8 869.7 370.8 869.7 328.7 749.4 328.7 749.4 370.8 773.6 370.8 773.6 583.3 808.3 606 980.6 606 1015.4 583.3 1015.4 370.8 1039.6 370.8 1039.6 328.7" fill="#002856"/>
</svg>