<?xml version="1.0" encoding="UTF-8"?><svg xmlns="http://www.w3.org/2000/svg" xmlns:svg="http://www.w3.org/2000/svg" height="126" viewBox="0 0 126 126" class="MobileNavbar__logo css-0" version="1.2" width="126" baseProfile="tiny-ps"><title>plaid-logo-bimi-converted.svg</title><rect x="0" y="0" width="100%" height="100%" fill="white"></rect><g fill="#111111" fill-rule="evenodd" id="g180" transform="matrix(0.74294441,0,0,0.74294441,16.194874,45.3651)"><path d="m 66.248,16.268 c -1.057,-0.889 -2.861,-1.333 -5.413,-1.333 h -5.756 v 17.788 h 4.304 v -5.575 h 1.928 c 2.34,0 4.056,-0.515 5.148,-1.546 1.23,-1.155 1.849,-2.693 1.849,-4.613 0,-1.991 -0.687,-3.565 -2.06,-4.721 m -5.044,6.855 H 59.383 V 18.96 h 1.636 c 1.99,0 2.985,0.698 2.985,2.094 0,1.378 -0.934,2.068 -2.8,2.068 m 14.469,-8.188 h -4.488 v 17.788 h 9.69 v -4.026 h -5.202 z m 13.995,0 -7.05,17.788 h 4.832 l 0.924,-2.586 H 94.5 l 0.845,2.586 h 4.886 l -7,-17.788 z m -0.053,11.601 1.849,-6.08 1.82,6.08 z" id="path176"></path><path d="m 102.473,32.722 h 4.489 V 14.934 h -4.489 z M 124.39,18.268 a 7.376,7.376 0 0 0 -2.14,-2.053 c -1.355,-0.854 -3.204,-1.28 -5.545,-1.28 h -5.914 v 17.787 h 6.918 c 2.5,0 4.506,-0.817 6.02,-2.453 1.514,-1.635 2.27,-3.805 2.27,-6.508 0,-2.15 -0.537,-3.981 -1.61,-5.493 m -7.182,10.427 h -1.927 v -9.734 h 1.954 c 1.373,0 2.428,0.43 3.168,1.287 0.74,0.857 1.11,2.073 1.11,3.647 0,3.2 -1.435,4.8 -4.305,4.8 M 18.637,0 4.09,3.81 0.081,18.439 5.095,23.587 0,28.65 l 3.773,14.693 14.484,4.047 5.096,-5.064 5.014,5.147 14.547,-3.81 4.008,-14.63 -5.013,-5.146 5.095,-5.063 L 43.231,4.13 28.745,0.083 23.651,5.146 Z m -8.927,6.624 7.663,-2.008 3.351,3.44 -4.887,4.856 z m 16.822,1.478 3.405,-3.383 7.63,2.132 -6.227,6.187 z m -21.86,9.136 2.111,-7.705 6.125,6.288 -4.886,4.856 z m 29.547,-1.243 6.227,-6.189 1.986,7.74 -3.404,3.384 z m -15.502,-0.127 4.887,-4.856 4.807,4.936 -4.886,4.856 z m -7.814,7.765 4.886,-4.856 4.81,4.936 -4.888,4.856 z m 15.503,0.127 4.886,-4.856 4.808,4.936 -4.887,4.856 z m -21.836,6.167 3.406,-3.385 4.807,4.937 -6.225,6.186 z m 14.021,1.598 4.887,-4.856 4.808,4.936 -4.886,4.856 z m 15.502,0.128 4.887,-4.856 3.351,3.439 -2.11,7.705 z m -24.656,8.97 6.226,-6.189 4.81,4.936 -3.406,3.385 z m 16.843,-1.206 4.886,-4.856 6.126,6.289 -7.662,2.007 z" id="path178"></path></g></svg>