<?xml version="1.0" encoding="UTF-8"?>
<svg version="1.2" baseProfile="tiny-ps" xmlns="http://www.w3.org/2000/svg" xmlns:xlink="http://www.w3.org/1999/xlink" viewBox="0 0 40 40">
  <title>Hello_Fresh</title>
  <rect width="40" height="40" fill="#fff"/>
  <path d="m15.86,16.42c.12.19.11.43,0,.62h0c-.38.59-.56,1.3-.49,2.01h0c.14,1.97-.96,4.03-2.97,5.2s-4.35,1.09-5.99,0h0c-.57-.41-1.28-.6-1.99-.57h0c-.21,0-.42-.12-.54-.31-.12-.19-.11-.43,0-.62h0c.38-.59.56-1.31.49-2.01h0c-.13-1.97.96-4.03,2.97-5.2,2-1.16,4.35-1.09,5.99,0h0c.57.41,1.28.6,1.98.57h0c.21,0,.42.12.54.31h.01Z" fill="#96dc14"/>
  <g>
    <polygon points="24.92 24.13 24.92 20.16 27.73 20.16 27.73 21.04 26.03 21.04 26.03 21.73 27.51 21.73 27.51 22.49 26.03 22.49 26.03 23.24 27.79 23.24 27.79 24.13 24.92 24.13" fill="#232323"/>
    <path d="m34.56,24.13v-1.69l-.05.02c-.68.24-1.33.25-1.34.25h-.03v1.42h-1.16v-3.98h1.16v1.67h.03s.59,0,1.35-.25h.02v-1.41h1.16v3.98h-1.16.02Z" fill="#232323"/>
    <polygon points="17.86 24.13 17.86 20.17 20.66 20.17 20.66 21.14 19.02 21.14 19.02 21.92 20.31 21.92 20.31 22.75 19.02 22.75 19.02 24.13 17.86 24.13" fill="#232323"/>
    <polygon points="22.08 19.64 22.08 15.68 24.96 15.68 24.96 16.57 23.19 16.57 23.19 17.25 24.66 17.25 24.66 18.01 23.19 18.01 23.19 18.76 24.94 18.76 24.94 19.64 22.08 19.64" fill="#232323"/>
    <polygon points="28.55 19.64 28.55 15.67 29.71 15.67 29.71 18.68 31.29 18.68 31.29 19.64 28.55 19.64" fill="#232323"/>
    <polygon points="25.41 19.64 25.41 15.67 26.57 15.67 26.57 18.68 28.15 18.68 28.15 19.64 25.41 19.64" fill="#232323"/>
    <path d="m33.61,19.75c-.42,0-.77-.08-1.12-.26-.34-.18-.6-.42-.79-.73s-.27-.68-.27-1.1.1-.79.27-1.1.45-.56.79-.73c.35-.18.7-.26,1.12-.26s.77.08,1.12.26c.34.18.6.42.79.73.19.31.28.68.28,1.1s-.1.79-.28,1.1c-.19.31-.45.56-.79.73-.35.18-.7.26-1.12.26Zm0-3.21c-.2,0-.37.04-.55.14-.17.09-.29.22-.38.39s-.14.37-.14.58.05.42.14.58.21.3.38.39.34.14.55.14.37-.04.55-.14c.17-.09.29-.22.38-.39s.14-.37.14-.58-.05-.42-.14-.58-.22-.3-.38-.39c-.17-.1-.34-.14-.55-.14Z" fill="#232323"/>
    <path d="m20.43,19.64v-1.69l-.05.02c-.68.24-1.33.25-1.34.25h-.03v1.42h-1.16v-3.98h1.16v1.67h.03s.59,0,1.35-.25h.02v-1.41h1.16v3.98h-1.16.02Z" fill="#232323"/>
    <path d="m29.86,24.21h-.12c-.32,0-.61-.08-.88-.19s-.47-.26-.63-.46c-.07-.09-.14-.19-.18-.28l.91-.48c.02.1.06.19.13.27.08.1.18.18.3.22.13.06.27.09.44.09h.06c.11,0,.21,0,.3-.04.1-.03.19-.08.24-.13.07-.06.1-.13.1-.21,0-.1-.03-.19-.11-.24-.07-.06-.16-.1-.25-.13-.1-.03-.25-.07-.46-.11-.32-.06-.59-.13-.8-.19-.2-.07-.38-.19-.53-.36-.15-.17-.21-.41-.2-.71,0-.26.09-.5.22-.68.15-.19.34-.34.58-.44.22-.09.48-.14.75-.14h.1c.28,0,.54.07.76.17s.41.23.55.4c.08.09.14.18.18.28l-.83.44c-.03-.13-.09-.23-.19-.32-.12-.09-.26-.14-.44-.15h-.04c-.09,0-.17,0-.24.03-.09.03-.16.07-.19.12-.05.06-.08.12-.08.19,0,.1.03.18.11.23.07.06.16.1.24.12s.24.06.46.1c.31.06.58.12.8.19.2.07.39.19.54.36s.21.41.2.71c0,.27-.1.51-.25.7-.17.19-.39.35-.67.46-.25.09-.55.14-.86.14v.03h-.02Z" fill="#232323"/>
    <path d="m24.44,24.19c-.23,0-.46-.03-.66-.1-.12-.04-.23-.09-.34-.15s-.21-.14-.31-.21c-.18-.15-.34-.33-.48-.55-.06-.1-.12-.2-.17-.31,0-.03-.03-.06-.04-.1v-.02h-.23v1.39h-1.16v-3.98h1.8c.32,0,.6.06.86.17.24.11.44.26.57.46.14.19.19.43.19.68,0,.17-.03.32-.1.46s-.16.25-.28.34c-.13.1-.32.19-.5.26h-.04l.03.07c.07.12.15.22.22.3.05.04.09.08.14.11.06.03.11.06.16.08.1.04.21.07.34.08v1h-.02.02v.02Zm-2.23-2.2h.51c.11,0,.2-.02.3-.06.1-.04.17-.1.22-.18s.09-.17.09-.26-.03-.19-.09-.27-.14-.14-.22-.18-.19-.06-.3-.06h-.51v1.01h0Z" fill="#232323"/>
  </g>
</svg>
