<?xml version="1.0" encoding="UTF-8"?>
<svg version="1.2" baseProfile="tiny-ps" id="Layer_1" xmlns="http://www.w3.org/2000/svg" xmlns:xlink="http://www.w3.org/1999/xlink" viewBox="0 0 40 40">
  <title>EveryPlate_tiny_ps</title>
  <rect width="40" height="40" fill="#FFFFFF"/>
  <g>
    <path d="M28.136,23.277L28.136,23.277c-0.011-0.083-0.033-0.158-0.064-0.224   C28.102,23.119,28.124,23.194,28.136,23.277z" fill="#F99D33"/>
    <path d="M19.973,23.979c0.026-0.099,0.04-0.211,0.04-0.335l0,0C20.014,23.768,20,23.88,19.973,23.979z" fill="#F99D33"/>
    <path d="M18.858,23.644c0,0.241,0.055,0.443,0.153,0.584C18.913,24.086,18.858,23.885,18.858,23.644   L18.858,23.644z" fill="#F99D33"/>
    <path d="M27.04,23.277L27.04,23.277c0.01-0.083,0.03-0.158,0.06-0.224   C27.07,23.119,27.05,23.194,27.04,23.277z" fill="#F99D33"/>
    <path d="M37.042,20.001v-0.002c-0.001-9.411-7.629-17.04-17.04-17.041h-0.005   C10.586,2.959,2.958,10.589,2.958,20c0,9.412,7.63,17.042,17.042,17.042S37.042,29.413,37.042,20.001z M28.706,17.459h0.023   l0.677-1.814h1.681l-2.213,5.276H27.14l0.776-1.742l-1.658-3.534h1.688L28.706,17.459z M27.573,24.5   c0.205,0,0.411-0.094,0.502-0.245h1.422c-0.122,0.784-0.905,1.31-1.97,1.31c-1.186,0-1.985-0.77-1.985-1.922   s0.791-1.914,1.985-1.914c1.232,0,1.977,0.713,1.977,1.914v0.324h-2.479C27.071,24.284,27.284,24.5,27.573,24.5z M24.707,24.255   c0.152,0,0.327-0.029,0.479-0.05v1.231c-0.19,0.079-0.555,0.13-0.897,0.13c-1.019,0-1.688-0.576-1.688-1.454v-1.008h-0.639v-1.238   h0.639v-1.137h1.612v1.137h0.973v1.238h-0.973v0.698C24.213,24.111,24.357,24.255,24.707,24.255z M20.067,25.126   c-0.266,0.331-0.7,0.439-1.057,0.439c-1.011,0-1.688-0.777-1.688-1.922c0-1.144,0.677-1.914,1.688-1.914   c0.357,0,0.806,0.101,1.057,0.439h0.023v-0.302h1.536v3.563H20.09v-0.302L20.067,25.126L20.067,25.126z M15.88,19.208l-1.437-3.563   h1.688l0.578,1.742h0.015l0.578-1.742h1.696l-1.445,3.563C17.553,19.208,15.88,19.208,15.88,19.208z M16.851,19.829v5.599h-1.612   v-5.599C15.239,19.829,16.851,19.829,16.851,19.829z M20.938,19.344c-1.186,0-1.985-0.77-1.985-1.922s0.791-1.914,1.985-1.914   c1.232,0,1.977,0.713,1.977,1.914v0.324h-2.479c0.046,0.317,0.258,0.533,0.547,0.533c0.205,0,0.411-0.094,0.502-0.245h1.422   C22.785,18.819,22.002,19.344,20.938,19.344z M25.024,17.754v1.454h-1.612v-3.563h1.544v0.381h0.015   c0.137-0.331,0.396-0.518,0.722-0.518c0.122,0,0.243,0.014,0.38,0.058v1.368c-0.137-0.029-0.259-0.05-0.365-0.05   C25.268,16.883,25.024,17.178,25.024,17.754z M8.837,14.553c-0.219,0.52-0.622,0.324-0.622,0.324   c-0.477-0.144-0.238-0.618-0.238-0.618c2.044-4.373,6.482-7.406,11.629-7.406c3.005,0,5.766,1.036,7.952,2.767   c-2.054-1.39-4.533-2.203-7.201-2.203c-5.043,0-9.407,2.901-11.516,7.125L8.837,14.553z M13.924,16.091V17.3h-1.871v0.669h2.297   v1.238h-3.977V14.17h3.977v1.238h-2.297v0.684L13.924,16.091L13.924,16.091z M12.053,25.429h-1.681v-5.038h2.297   c1.392,0,2.228,0.734,2.228,1.943c0,1.209-0.836,1.958-2.228,1.958h-0.616V25.429z M20.38,33.163c-3.005,0-5.766-1.035-7.952-2.767   c2.054,1.391,4.533,2.203,7.201,2.203c5.043,0,9.407-2.901,11.517-7.124l0.003-0.012c0.221-0.518,0.623-0.323,0.623-0.323   c0.476,0.143,0.237,0.617,0.237,0.617C29.966,30.132,25.527,33.163,20.38,33.163z" fill="#F99D33"/>
    <path d="M20.357,7.417c2.668,0,5.147,0.813,7.201,2.203c-2.186-1.73-4.947-2.767-7.952-2.767   c-5.147,0-9.585,3.032-11.629,7.406c0,0-0.239,0.474,0.238,0.618c0,0,0.403,0.195,0.622-0.324l0.004-0.011   C10.95,10.318,15.314,7.417,20.357,7.417z" fill="#FFFFFF"/>
    <path d="M31.772,25.141c0,0-0.403-0.195-0.623,0.323l-0.003,0.012c-2.11,4.223-6.474,7.124-11.517,7.124   c-2.668,0-5.147-0.812-7.201-2.203c2.186,1.731,4.947,2.767,7.952,2.767c5.146,0,9.586-3.031,11.629-7.406   C32.009,25.757,32.248,25.284,31.772,25.141z" fill="#FFFFFF"/>
    <path d="M27.573,22.737c-0.211,0-0.383,0.117-0.473,0.316c-0.03,0.066-0.05,0.141-0.06,0.224h1.095   c-0.011-0.083-0.033-0.158-0.064-0.224C27.978,22.854,27.801,22.737,27.573,22.737z" fill="#F99D33"/>
    <path d="M13.186,22.334c0-0.41-0.251-0.684-0.646-0.684h-0.487v1.382h0.487   C12.935,23.032,13.186,22.751,13.186,22.334z" fill="#F99D33"/>
    <path d="M20.983,16.516c-0.281,0-0.494,0.209-0.532,0.54h1.095C21.5,16.725,21.287,16.516,20.983,16.516z" fill="#F99D33"/>
    <path d="M19.857,23.057c-0.102-0.14-0.25-0.219-0.436-0.219c-0.257,0-0.445,0.186-0.523,0.48   c-0.026,0.098-0.04,0.208-0.04,0.326c0,0.241,0.055,0.443,0.153,0.584c0.098,0.141,0.239,0.222,0.41,0.222   c0.279,0,0.473-0.174,0.553-0.471c0.026-0.099,0.04-0.211,0.04-0.335C20.014,23.399,19.958,23.197,19.857,23.057z" fill="#F99D33"/>
    <polygon points="14.349,15.407 14.349,14.17 10.372,14.17 10.372,19.208 14.349,19.208 14.349,17.97    12.053,17.97 12.053,17.3 13.924,17.3 13.924,16.091 12.053,16.091 12.053,15.407  " fill="#FFFFFF"/>
    <polygon points="18.998,15.645 17.302,15.645 16.724,17.387 16.709,17.387 16.131,15.645 14.443,15.645    15.88,19.208 17.553,19.208  " fill="#FFFFFF"/>
    <path d="M14.897,22.334c0-1.209-0.836-1.943-2.228-1.943h-2.297v5.038h1.681v-1.137h0.616   C14.06,24.291,14.897,23.543,14.897,22.334z M12.053,23.032V21.65h0.487c0.395,0,0.646,0.273,0.646,0.684   c0,0.417-0.251,0.698-0.646,0.698H12.053z" fill="#FFFFFF"/>
    <polygon points="27.915,19.179 27.139,20.921 28.873,20.921 31.086,15.645 29.405,15.645 28.729,17.459    28.706,17.459 27.945,15.645 26.257,15.645  " fill="#FFFFFF"/>
    <path d="M25.186,23.104v-1.238h-0.973v-1.137h-1.612v1.137h-0.639v1.238h0.639v1.008   c0,0.878,0.669,1.454,1.688,1.454c0.342,0,0.707-0.05,0.897-0.13v-1.231c-0.152,0.022-0.327,0.05-0.479,0.05   c-0.35,0-0.494-0.144-0.494-0.453v-0.698C24.213,23.104,25.186,23.104,25.186,23.104z" fill="#FFFFFF"/>
    <path d="M25.709,16.883c0.106,0,0.228,0.022,0.365,0.05v-1.368c-0.137-0.043-0.259-0.058-0.38-0.058   c-0.327,0-0.586,0.187-0.722,0.518h-0.015v-0.381h-1.544v3.563h1.612v-1.454C25.024,17.178,25.268,16.883,25.709,16.883z" fill="#FFFFFF"/>
    <rect x="15.239" y="19.829" width="1.612" height="5.599" fill="#FFFFFF"/>
    <path d="M29.504,23.644c0-1.202-0.745-1.914-1.977-1.914c-1.194,0-1.985,0.763-1.985,1.914   s0.799,1.922,1.985,1.922c1.065,0,1.848-0.525,1.97-1.31h-1.422c-0.091,0.151-0.297,0.245-0.502,0.245   c-0.289,0-0.502-0.216-0.548-0.533h2.479C29.504,23.968,29.504,23.644,29.504,23.644z M28.136,23.277H27.04l0,0   c0.01-0.083,0.03-0.158,0.06-0.224c0.089-0.198,0.262-0.316,0.473-0.316c0.228,0,0.405,0.117,0.498,0.316   C28.102,23.119,28.124,23.194,28.136,23.277L28.136,23.277z" fill="#FFFFFF"/>
    <path d="M22.907,18.035h-1.422c-0.091,0.151-0.297,0.245-0.502,0.245c-0.289,0-0.502-0.216-0.547-0.533   h2.479v-0.324c0-1.202-0.745-1.914-1.977-1.914c-1.194,0-1.985,0.763-1.985,1.914s0.798,1.922,1.985,1.922   C22.002,19.344,22.785,18.819,22.907,18.035z M20.983,16.516c0.304,0,0.517,0.209,0.563,0.54h-1.095   C20.489,16.725,20.702,16.516,20.983,16.516z" fill="#FFFFFF"/>
    <path d="M21.626,25.429v-3.563H20.09v0.302h-0.023c-0.251-0.338-0.7-0.439-1.057-0.439   c-1.011,0-1.688,0.77-1.688,1.914c0,1.144,0.677,1.922,1.688,1.922c0.357,0,0.791-0.108,1.057-0.439h0.023v0.302L21.626,25.429   L21.626,25.429z M19.973,23.979c-0.079,0.297-0.273,0.471-0.553,0.471c-0.171,0-0.312-0.081-0.41-0.222s-0.153-0.343-0.153-0.584   l0,0c0-0.119,0.014-0.229,0.04-0.326c0.078-0.293,0.266-0.48,0.523-0.48c0.186,0,0.335,0.079,0.436,0.219s0.157,0.342,0.157,0.587   l0,0C20.014,23.768,20,23.88,19.973,23.979z" fill="#FFFFFF"/>
  </g>
</svg>
