<?xml version="1.0" encoding="utf-8"?>
<!-- Generator: Adobe Illustrator 28.1.0, SVG Export Plug-In . SVG Version: 6.00 Build 0)  -->
<svg version="1.2" baseProfile="tiny-ps" id="Layer_1" xmlns="http://www.w3.org/2000/svg" xmlns:xlink="http://www.w3.org/1999/xlink"
	 viewBox="0 0 100 100" xml:space="preserve">
	<title>Green Chef</title>
<g>
	<g>
		<g id="XMLID_1_">
			<g>
				<path fill="#43693D" d="M87.8,49.5v10.6c0,5.2-3.3,7.7-7.5,8.4c-3,0.5-7.9,1-13.5,1.3c-5.5,0.4-11.6,0.6-16.8,0.6c0,0,0,0,0,0
					s0,0,0,0c-10.3,0-24.3-0.9-30.3-1.9c-4.3-0.7-7.5-3.2-7.5-8.4V49.5v0V38.9c0-5.2,3.3-7.7,7.5-8.4C22,30,27,29.6,32.7,29.2
					s12.2-0.6,17.3-0.6c0,0,0,0,0,0c0,0,0,0,0,0c10.3,0,25.1,1,30.3,1.9c4.3,0.7,7.5,3.2,7.5,8.4L87.8,49.5L87.8,49.5L87.8,49.5z
					 M22.9,55.9V43.2c0-1-0.8-1.8-1.8-1.8s-1.8,0.8-1.8,1.8v12.7c0,1,0.8,1.8,1.8,1.8C22.1,57.7,22.9,56.9,22.9,55.9z"/>
			</g>
		</g>
	</g>
	<path fill="#FFFFFF" d="M44.1,56.6c0,0-0.1,0-0.1,0c0,0-0.1,0-0.1,0.1c-0.5,0.6-1.2,0.9-1.9,0.9c-1.4,0-2.5-1.1-2.5-2.6
		c0-1.5,1.1-2.6,2.5-2.6c0.7,0,1.4,0.3,1.9,0.9c0.1,0.1,0.1,0.1,0.2,0l0.9-0.7c0,0,0.1-0.1,0.1-0.1c0,0,0-0.1,0-0.1
		c-0.7-0.9-1.8-1.4-3-1.4c-2.2,0-3.9,1.8-3.9,4c0,2.2,1.7,4,3.9,4c1.2,0,2.3-0.5,3-1.4c0-0.1,0-0.2,0-0.2L44.1,56.6z"/>
	<path fill="#FFFFFF" d="M41.5,44c0-0.1-0.1-0.1-0.1-0.1h-3.8c-0.1,0-0.1,0.1-0.1,0.1v0.4c0,0.4,0.3,0.7,0.7,0.7h1.8
		c-0.1,0.9-1,1.5-2.1,1.5c-1.4,0-2.5-1.1-2.5-2.6s1.1-2.6,2.5-2.6c0.6,0,1.2,0.2,1.7,0.7c0.1,0.1,0.1,0.1,0.2,0l0.8-0.8
		c0,0,0-0.1,0-0.1c0,0,0-0.1,0-0.1c-0.7-0.7-1.7-1.1-2.7-1.1c-2.2,0-4,1.8-4,4c0,2.2,1.7,4,4,4C40.2,48.1,41.5,46.6,41.5,44z"/>
	<path fill="#FFFFFF" d="M51.3,48H56c0.1,0,0.1-0.1,0.1-0.1v-1.1c0-0.1-0.1-0.1-0.1-0.1h-3.3v-1.8h2.8c0.1,0,0.1-0.1,0.1-0.1v-1.1
		c0-0.1-0.1-0.1-0.1-0.1h-2.8v-1.9h3.2c0.1,0,0.1-0.1,0.1-0.1v-1.1c0-0.1-0.1-0.1-0.1-0.1h-4.5c-0.1,0-0.1,0.1-0.1,0.1v7.5
		C51.2,47.9,51.3,48,51.3,48z"/>
	<path fill="#FFFFFF" d="M58.5,48h4.6c0.1,0,0.1-0.1,0.1-0.1v-1.1c0-0.1-0.1-0.1-0.1-0.1h-3.3v-1.8h2.8c0.1,0,0.1-0.1,0.1-0.1v-1.1
		c0-0.1-0.1-0.1-0.1-0.1h-2.8v-1.9h3.2c0.1,0,0.1-0.1,0.1-0.1v-1.1c0-0.1-0.1-0.1-0.1-0.1h-4.5c-0.1,0-0.1,0.1-0.1,0.1v7.5
		C58.4,47.9,58.4,48,58.5,48z"/>
	<path fill="#FFFFFF" d="M60,57.5h-3.3v-1.8h2.8c0.1,0,0.1-0.1,0.1-0.1v-1.1c0-0.1-0.1-0.1-0.1-0.1h-2.8v-1.9h3.2
		c0.1,0,0.1-0.1,0.1-0.1v-1.1c0-0.1-0.1-0.1-0.1-0.1h-4.5c-0.1,0-0.1,0.1-0.1,0.1v7.5c0,0.1,0.1,0.1,0.1,0.1H60
		c0.1,0,0.1-0.1,0.1-0.1v-1.1C60.1,57.6,60.1,57.5,60,57.5z"/>
	<path fill="#FFFFFF" d="M66.9,51h-4.5c-0.1,0-0.1,0.1-0.1,0.1v7.5c0,0.1,0.1,0.1,0.1,0.1h1.2c0.1,0,0.1-0.1,0.1-0.1v-3h2.5
		c0.1,0,0.1-0.1,0.1-0.1v-1.1c0-0.1-0.1-0.1-0.1-0.1h-2.5v-1.9h3.2c0.1,0,0.1-0.1,0.1-0.1v-1.1C67.1,51.1,67,51,66.9,51z"/>
	<path fill="#FFFFFF" d="M71.2,40.2H70c-0.1,0-0.1,0.1-0.1,0.1v4.8L67,40.3c0,0-0.1-0.1-0.1-0.1h-1.1c-0.1,0-0.1,0.1-0.1,0.1v7.5
		c0,0.1,0.1,0.1,0.1,0.1h1.2c0.1,0,0.1-0.1,0.1-0.1V43l3,4.9c0,0,0.1,0.1,0.1,0.1h1.1c0.1,0,0.1-0.1,0.1-0.1v-7.5
		C71.3,40.2,71.3,40.2,71.2,40.2z"/>
	<path fill="#FFFFFF" d="M52.7,51h-1.2c-0.1,0-0.1,0.1-0.1,0.1v3.1h-3.1v-3.1c0-0.1-0.1-0.1-0.1-0.1h-1.2c-0.1,0-0.1,0.1-0.1,0.1
		v7.5c0,0.1,0.1,0.1,0.1,0.1h1.2c0.1,0,0.1-0.1,0.1-0.1v-3.1h3.1v3.1c0,0.1,0.1,0.1,0.1,0.1h1.2c0.1,0,0.1-0.1,0.1-0.1v-7.5
		C52.8,51.1,52.7,51,52.7,51z"/>
	<path fill="#FFFFFF" d="M47.4,48h1.4c0.1,0,0.1,0,0.1-0.1c0,0,0-0.1,0-0.2l-1.8-2.6c1.3-0.3,1.8-1.4,1.8-2.4c0-1.2-0.6-2.5-2.4-2.5
		h-2.9c-0.1,0-0.1,0.1-0.1,0.1v7.5c0,0.1,0.1,0.1,0.1,0.1h1.2c0.1,0,0.1-0.1,0.1-0.1v-2.6h0.6l1.8,2.7C47.3,48,47.4,48,47.4,48z
		 M46.4,43.9h-1.5v-2.3h1.6c0.7,0,1,0.6,1,1.2C47.5,43.3,47.2,43.9,46.4,43.9z"/>
</g>
</svg>
