<?xml version="1.0" encoding="UTF-8"?>
<svg xmlns="http://www.w3.org/2000/svg" baseProfile="tiny-ps" version="1.2" viewBox="0 0 500 500">
  <!-- Generator: Adobe Illustrator 28.7.1, SVG Export Plug-In . SVG Version: 1.2.0 Build 142)  -->
  <title>Univision LLC</title>
  <g>
    <g id="Layer_1">
      <path d="M345,499.2h-190.8c-40.7,0-78.1-16-105.6-41.8C18.7,429.3,0,389.3,0,344.9v-190.8c0-38,13.7-72.6,36.4-99.5C64.7,21.2,107.1,0,154.3,0h190.8c42.6,0,81.2,17.3,109,45.2,28,27.8,45.2,66.5,45.2,109v190.8c0,38.8-14.4,74.4-38,101.4-28.2,32.3-69.9,52.9-116.3,52.9" fill="#64be00"/>
      <path d="M235.5,126.4c-11.5,10-22.3,22.9-22.3,30.5s2.6,6.9,5.9,7.4c51.7,10.2,99.5,38.9,132.8,83.3,3.8,5.4,9.2,14.2,13.7,28.2,19,58.5-14,94.3-39.4,113.5h0c-1.2.8-2.4,1.7-3.6,2.5,29.9-16.7,50.5-37.3,66.7-65.3v-.5.4c26.4-47.6,27.8-107.6-1.7-158-9.5-16.2-21.5-30.3-35.2-41.7-8.3-6.9-17.7-12.5-27.8-16.2-39.4-14.1-69.1-1.6-89,15.7" fill="#fff"/>
      <path d="M150.3,323.4c14.4,4.9,31,7.9,37.6,4.1,4-2.4,4.5-5.8,3.3-9-17-49.8-16.2-105.6,5.7-156.6,2.9-6.1,7.6-15,17.5-26,43.2-47.7,93.2-34,122.1-20.8-29.5-17.5-57.5-25.1-89.9-25.1l-.4.3.3-.3c-54.5,1.1-106.9,29.9-135.8,80.7-9.2,16.3-15.3,33.8-18.3,51.4-1.8,10.7-2,21.6,0,32.3,7.5,41.1,33.2,60.6,58.1,69.1" fill="#fff"/>
      <path d="M113.1,331.6h-.4c27.8,46.7,79,78.1,137.4,77.9,18.9,0,36.9-3.3,53.7-9.5,10.3-3.7,19.8-9,28.1-16,32.2-26.9,35.3-57.2,31.2-84.8-2.2-15-8.6-30.9-15.2-34.5-4-2.2-7.1-1.1-9.4,1.5-34.8,39.6-83.6,66.5-138.7,72.9-6.7.5-16.9.7-31.2-2.4-63-13.7-75.8-64.1-78.8-95.7-.5,34.4,6.9,62.4,22.9,90.4h.5-.1Z" fill="#fff"/>
    </g>
  </g>
</svg>