<?xml version="1.0" encoding="UTF-8"?>
<svg id="Layer_1" xmlns="http://www.w3.org/2000/svg" baseProfile="tiny-ps" version="1.2" viewBox="0 0 500 500">
  <!-- Generator: Adobe Illustrator 29.1.0, SVG Export Plug-In . SVG Version: 2.1.0 Build 142)  -->
  <title>LookTV</title>
  <rect x="-.1" y="-.24" width="500.57" height="500.22" fill="#0d151f"/>
  <g>
    <g>
      <path d="M72.91,282.88v-98.59h-28.32v105.87c0,14.57,11.81,26.39,26.38,26.39h35.88v-28.32h-28.6c-2.95,0-5.34-2.39-5.34-5.34" fill="#0ad7af"/>
      <path d="M163.95,274.04c0,7.83-6.35,14.18-14.18,14.18s-14.18-6.35-14.18-14.18v-18.92c0-7.83,6.35-14.18,14.18-14.18,7.83,0,14.18,6.35,14.18,14.18v18.92ZM151.63,212.61h-3.73c-22.44,0-40.64,18.19-40.64,40.63h0v22.66c0,22.44,18.19,40.64,40.63,40.64h3.74c22.44,0,40.64-18.19,40.64-40.64h0v-22.66c0-22.44-18.19-40.64-40.64-40.64h0Z" fill="#0ad7af"/>
      <path d="M251.78,274.04c0,7.83-6.35,14.18-14.18,14.18s-14.18-6.35-14.18-14.18v-18.92c0-7.83,6.35-14.18,14.18-14.18s14.18,6.35,14.18,14.18v18.92ZM239.46,212.61h-3.73c-22.44,0-40.64,18.19-40.64,40.64h0v22.66c0,22.44,18.19,40.64,40.64,40.64h3.73c22.44,0,40.64-18.19,40.64-40.63h0v-22.66c0-22.44-18.19-40.64-40.63-40.64h0Z" fill="#0ad7af"/>
      <polygon points="368.29 212.61 339.97 212.61 311.65 258.44 311.65 184.29 283.32 184.29 283.32 316.54 311.65 316.54 311.65 274.65 339.97 316.54 368.29 316.54 334.73 266.91 368.29 212.61" fill="#0ad7af"/>
    </g>
    <path d="M424.44,229.23h-19.6c-19.41,0-35.14,15.56-35.15,34.76h0v3.2c0,19.2,15.73,34.76,35.14,34.76h19.59c19.41,0,35.15-15.56,35.15-34.76h0v-3.19c0-19.2-15.73-34.76-35.14-34.76ZM409.32,260.53h-5.06v12.89c0,.81.66,1.47,1.47,1.47h3.21v5.6h-4.28c-2.5,0-4.39-.63-5.67-1.9-1.28-1.27-1.92-3.11-1.92-5.55v-12.5h-3.6v-5.6h1.8c.97,0,1.64-.23,1.99-.71.36-.47.54-1.14.54-2.02v-4.18h6.47v6.91h5.06v5.6ZM428.35,280.48h-8.56l-8.37-25.54h7.1l5.73,19.56,5.65-19.56h6.81l-8.37,25.54Z" fill="#0ad7af"/>
  </g>
</svg>
