<?xml version="1.0" encoding="utf-8" standalone="yes"?><!-- Generator: Adobe Illustrator 27.7.0, SVG Export Plug-In . SVG Version: 6.00 Build 0)  --><svg xmlns="http://www.w3.org/2000/svg" xmlns:xlink="http://www.w3.org/1999/xlink" version="1.2" baseProfile="tiny-ps" viewBox="0 0 100 100" xml:space="preserve"><title>The Honor Foundation</title><rect fill="#FFFFFF" width="100" height="100"></rect><g><path fill="#243746" d="M63.5,37.4l1.3,3.9l-3.3-2.4l-3.3,2.4l1.3-3.9L56.1,35h4.1l1.3-3.9l1.3,3.9h4.1L63.5,37.4z M51.9,37.4   l1.3,3.9l-3.3-2.4l-3.3,2.4l1.3-3.9L44.5,35h4.1l1.3-3.9l1.3,3.9h4.1L51.9,37.4z M41.5,41.3l-3.3-2.4l-3.3,2.4l1.3-3.9L32.9,35H37   l1.3-3.9l1.3,3.9h4.1l-3.3,2.4L41.5,41.3z M28.7,27.7v34.8l5.8,4.1V45.4h6.7v26l5.2,3.7V45.4h6.7v29.7l5.2-3.7v-26h6.7v21.2   l5.8-4.1V27.7H28.7z"></path></g></svg>