<?xml version="1.0" encoding="utf-8" standalone="yes"?><!-- Generator: Adobe Illustrator 28.2.0, SVG Export Plug-In . SVG Version: 6.00 Build 0)  --><svg xmlns="http://www.w3.org/2000/svg" xmlns:xlink="http://www.w3.org/1999/xlink" version="1.2" baseProfile="tiny-ps" viewBox="0 0 33 33" xml:space="preserve"><title>Spa World</title><g><path fill="#005B8E" d="M32.5,16.5c0,8.84-7.16,16-16,16s-16-7.16-16-16s7.16-16,16-16S32.5,7.67,32.5,16.5"></path><path fill="#FFFFFF" d="M12.81,7.06c-0.53-0.48-1.11-0.68-1.78-0.6c-0.26,0.03-0.52,0.08-0.77,0.13c-0.13,0.02-0.25,0.04-0.38,0.06   H9.87c-1.1,0.3-2.05,0.76-2.91,1.42C6.37,8.5,5.89,9.03,5.54,9.63c-0.18,0.27-0.28,0.58-0.31,0.95c-0.05,0.59,0.12,1.12,0.52,1.6   c0.42,0.48,0.87,0.86,1.37,1.17l1.39,0.82c0.41,0.24,0.75,0.46,1.08,0.7c0.3,0.2,0.57,0.46,0.8,0.77c0.4,0.53,0.55,1.11,0.48,1.76   c-0.07,0.6-0.33,1.19-0.82,1.85c-0.69,0.9-1.63,1.64-2.87,2.25c-0.2,0.1-0.43,0.17-0.66,0.25c-0.17,0.06-0.25,0-0.3-0.07   c-0.04-0.05-0.08-0.1-0.12-0.14c-0.08-0.1-0.16-0.2-0.22-0.31c-0.27-0.47-0.4-1.01-0.42-1.65c0-0.72,0.09-1.41,0.28-2.06   c0.07-0.25,0.06-0.44-0.26-0.59c-0.19-0.08-0.39-0.15-0.58-0.18c-0.32-0.06-0.58,0.06-0.71,0.32c-0.15,0.28-0.27,0.52-0.36,0.76   c-0.18,0.55-0.28,1.14-0.31,1.86c0,0.59,0.12,1.12,0.36,1.57c0.41,0.74,1.01,1.22,1.83,1.47c0.5,0.14,1.01,0.19,1.52,0.14   c0.47-0.04,0.93-0.17,1.39-0.38c0.88-0.38,1.7-0.91,2.51-1.65c0.72-0.65,1.26-1.41,1.61-2.26c0.23-0.59,0.27-1.21,0.11-1.83   c-0.14-0.55-0.44-1.05-0.86-1.5c-0.42-0.46-0.95-0.88-1.57-1.25l-1.67-0.96c-0.41-0.23-0.79-0.5-1.12-0.81   c-0.45-0.46-0.55-0.89-0.3-1.5c0.11-0.23,0.26-0.48,0.42-0.69c0.44-0.62,1.09-1.12,2.1-1.63c0.31-0.17,0.7-0.31,1.22-0.42   c0.01,0,0.02,0,0.02-0.01c0,0,0,0,0,0.01l-0.1,0.86l-0.01,0.17c-0.05,0.69-0.11,1.32-0.04,2.02c0.03,0.25,0.08,0.54,0.21,0.8   c0.29,0.56,0.82,0.9,1.57,1.02c0.15,0.04,0.31,0,0.37-0.01c0.12-0.03,0.21-0.1,0.25-0.19c0.04-0.08,0.03-0.17-0.02-0.25   c-0.03-0.06-0.1-0.18-0.21-0.25c-0.16-0.1-0.23-0.32-0.25-0.8c-0.05-0.74,0.02-1.41,0.1-2.07c0.02-0.25,0.04-0.5,0.07-0.74   s0.05-0.5,0.07-0.73C13.14,7.54,13.04,7.28,12.81,7.06"></path><path fill="#FFFFFF" d="M21.97,12.45c-0.11-0.52-0.47-0.93-0.97-1.15c-0.59-0.25-1.29-0.19-1.86,0.16   c-0.55,0.32-1.01,0.75-1.37,1.29c-0.31,0.44-0.57,0.92-0.81,1.46c-0.31,0.63-0.57,1.29-0.82,1.92c-0.14,0.37-0.29,0.75-0.45,1.12   c0.03-0.28,0.08-0.56,0.12-0.85c0.08-0.52,0.22-1.44,0.24-2.03c0.02-0.57,0.02-1.08-0.17-1.6c-0.2-0.57-0.44-0.9-0.91-1.09   c-0.09-0.03-0.19-0.07-0.3-0.07l0,0c-0.14-0.01-0.21,0.05-0.24,0.09s-0.06,0.12-0.01,0.24c0.09,0.19,0.12,0.42,0.11,0.7   c0.01,0.41-0.04,0.86-0.15,1.39c-0.09,0.55-0.25,1.49-0.36,2.03c-0.05,0.28-0.11,0.55-0.16,0.83l-0.78,4.09   c-0.2,1.03-0.38,1.96-0.46,2.91c-0.03,0.41-0.05,0.86,0.02,1.3c0.05,0.35,0.49,0.58,0.84,0.58s0.47-0.1,0.59-0.44l0.22-0.75   c0.26-0.89,0.47-1.8,0.75-2.71c0.16-0.51,0.3-1.03,0.47-1.53c0.46-1.66,1.36-3.74,1.79-4.74c0.4-0.93,0.76-1.61,1.17-2.2   c0.4-0.58,0.84-1,1.34-1.27c0.23-0.11,0.38-0.15,0.45-0.11c0.08,0.05,0.09,0.26,0.09,0.49v0.07c0.02,1.82-1.04,4.64-2.59,5.79   c-0.21,0.13-0.34,0.16-0.52,0.01c-0.08-0.06-0.17-0.09-0.26-0.11c-0.02-0.01-0.04-0.01-0.06-0.02c-0.08-0.02-0.17-0.03-0.26-0.01   c-0.17,0.04-0.24,0.13-0.27,0.19c-0.03,0.06-0.05,0.17,0.03,0.32c0.12,0.2,0.3,0.35,0.54,0.45c1.2,0.57,2.7-0.25,3.47-1.36   c0.87-1.33,1.4-2.73,1.58-4.17C22.07,13.22,22.06,12.82,21.97,12.45"></path><path fill="#FFFFFF" d="M29.86,14.43c-0.14-0.13-0.37-0.14-0.52-0.02c-0.07,0.06-0.12,0.14-0.17,0.21l-0.64,1.06   c-0.31,0.46-0.99,1.28-1.12,1.31H27.4v-0.01c0-0.04,0.01-0.1,0.02-0.15l0.51-2.1L28,14.5c0.1-0.36,0.2-0.73,0.32-1.08   c0.09-0.3-0.01-0.55-0.29-0.74c-0.22-0.14-0.42-0.23-0.62-0.27c-0.27-0.04-0.46,0.03-0.6,0.23c-0.04,0.07-0.08,0.14-0.13,0.21   c-0.1,0.17-0.34,0.69-1.04,2.04c-0.7,1.36-1.73,2.43-1.95,2.55c-0.02,0.02-0.06,0.03-0.09,0.04c-0.01-0.03-0.02-0.05-0.03-0.07   c0-0.06,0-0.13,0-0.19c0-0.13,0-0.25,0.01-0.37c0.13-1.01,0.43-1.97,0.87-2.85c0.39-0.75,0.85-1.34,1.41-1.79   c0.34-0.28,0.64-0.48,0.99-0.57c0.29-0.08,0.59-0.13,0.87,0.06c0.08,0.05,0.26,0.07,0.32,0.02c0.05-0.04,0.07-0.15,0.04-0.22   c-0.03-0.09-0.07-0.16-0.14-0.24c-0.44-0.45-0.94-0.65-1.52-0.6c-0.47,0.02-0.93,0.2-1.4,0.53c-0.53,0.38-0.94,0.76-1.26,1.16   c-0.59,0.73-1.03,1.56-1.34,2.52c-0.16,0.53-0.33,1.15-0.27,1.79l0.02,0.29v0.01c0.11,0.7,0.51,1.17,1.21,1.4   c0.1,0.03,0.19,0.05,0.28,0.06c0.29,0.02,0.54-0.07,0.75-0.27c0.23-0.21,0.42-0.43,0.58-0.66c0.17-0.23,0.73-1.06,0.73-1.06   c0.01,0.05,0.01,0.11,0.02,0.17c0.11,0.68,0.37,1.17,1.28,1.38c0.34,0.08,0.63,0.03,0.89-0.18c0.16-0.13,0.32-0.28,0.43-0.43   c0.16-0.2,0.56-0.72,0.93-1.34c0.22-0.37,0.47-0.78,0.62-1.2C29.95,14.71,30,14.56,29.86,14.43"></path><polygon fill="#FFFFFF" points="20,21.06 19.28,23.36 18.9,23.36 18.27,21.66 17.66,23.36 17.28,23.36 16.56,21.06 16.97,21.06    17.51,22.82 18.07,21.06 18.47,21.06 19.05,22.82 19.59,21.06  "></polygon><path fill="#FFFFFF" d="M21.22,23.38c-0.16,0-0.31-0.03-0.45-0.1c-0.13-0.07-0.25-0.15-0.35-0.26s-0.17-0.23-0.22-0.37   c-0.05-0.14-0.08-0.28-0.08-0.43s0.03-0.3,0.08-0.44c0.06-0.14,0.13-0.26,0.23-0.37s0.21-0.19,0.35-0.26   c0.13-0.06,0.28-0.1,0.44-0.1s0.31,0.03,0.45,0.1c0.13,0.07,0.25,0.16,0.35,0.27s0.17,0.23,0.22,0.37   c0.05,0.14,0.08,0.28,0.08,0.43s-0.03,0.3-0.08,0.44c-0.05,0.14-0.13,0.26-0.23,0.37s-0.22,0.19-0.35,0.26   C21.52,23.34,21.37,23.38,21.22,23.38L21.22,23.38z M20.49,22.21c0,0.11,0.02,0.21,0.05,0.31c0.03,0.1,0.08,0.19,0.15,0.27   c0.06,0.08,0.14,0.14,0.23,0.19c0.09,0.05,0.19,0.07,0.3,0.07c0.12,0,0.22-0.02,0.31-0.07s0.17-0.11,0.23-0.19s0.11-0.17,0.14-0.27   c0.03-0.1,0.05-0.2,0.05-0.3c0-0.11-0.02-0.21-0.05-0.32c-0.03-0.1-0.08-0.19-0.15-0.27c-0.06-0.08-0.14-0.14-0.23-0.18   c-0.09-0.05-0.19-0.07-0.3-0.07c-0.12,0-0.22,0.02-0.31,0.07s-0.17,0.11-0.23,0.19s-0.11,0.17-0.14,0.27   C20.5,22.01,20.49,22.11,20.49,22.21L20.49,22.21z"></path><path fill="#FFFFFF" d="M22.69,23.36v-2.3h1c0.1,0,0.2,0.02,0.29,0.06c0.09,0.04,0.16,0.1,0.22,0.17s0.11,0.15,0.15,0.24   c0.04,0.09,0.05,0.18,0.05,0.27c0,0.08-0.01,0.15-0.03,0.22s-0.05,0.14-0.09,0.2c-0.04,0.06-0.09,0.11-0.14,0.16   c-0.06,0.04-0.12,0.08-0.18,0.1l0.54,0.87h-0.42l-0.5-0.8h-0.53v0.8L22.69,23.36L22.69,23.36z M23.06,22.24h0.63   c0.05,0,0.1-0.01,0.14-0.03c0.04-0.02,0.08-0.05,0.11-0.09s0.05-0.09,0.07-0.14s0.03-0.11,0.03-0.16c0-0.06-0.01-0.11-0.03-0.16   s-0.05-0.1-0.08-0.14c-0.03-0.04-0.07-0.07-0.12-0.09c-0.04-0.02-0.09-0.03-0.14-0.03h-0.61L23.06,22.24L23.06,22.24z"></path><polygon fill="#FFFFFF" points="24.83,23.36 24.83,21.06 25.19,21.06 25.19,23.04 26.43,23.04 26.43,23.36  "></polygon><path fill="#FFFFFF" d="M26.72,23.36v-2.3h0.81c0.19,0,0.35,0.03,0.49,0.09s0.26,0.14,0.35,0.25c0.09,0.1,0.16,0.22,0.21,0.36   c0.05,0.14,0.07,0.29,0.07,0.44c0,0.17-0.03,0.33-0.08,0.47s-0.13,0.26-0.22,0.36c-0.1,0.1-0.21,0.18-0.35,0.23   c-0.14,0.06-0.29,0.08-0.46,0.08h-0.82V23.36z M28.29,22.21c0-0.12-0.02-0.23-0.05-0.33c-0.03-0.1-0.08-0.19-0.15-0.26   c-0.06-0.07-0.14-0.13-0.24-0.17c-0.09-0.04-0.2-0.06-0.32-0.06h-0.45v1.66h0.45c0.12,0,0.23-0.02,0.32-0.06   c0.09-0.04,0.17-0.1,0.24-0.17c0.06-0.07,0.11-0.16,0.14-0.26C28.27,22.44,28.29,22.33,28.29,22.21L28.29,22.21z"></path></g></svg>