<?xml version="1.0" encoding="utf-8"?>
<!-- Generator: Adobe Illustrator 27.9.0, SVG Export Plug-In . SVG Version: 6.00 Build 0)  -->
<svg version="1.2" baseProfile="tiny-ps" id="hbglobal" xmlns="http://www.w3.org/2000/svg" xmlns:xlink="http://www.w3.org/1999/xlink"
	viewBox="0 0 2000 2000" xml:space="preserve">
	<title>CREWFARE</title>
<rect width="2000" height="2000"/>
<path fill="#FFFFFF" d="M275.2,1037l-48.1-7.7c-7.5-1.2-14.7,4-16.1,11.5c-6.5,36.9-16.5,43.9-32.6,43.9
	c-33.6,0-37.5-48.2-37.5-84.5c0-73.2,19.6-82.5,36.7-82.5c17,0,24.9,10.5,30.2,39.9c1.4,7.6,8.7,12.8,16.3,11.4l48.7-8.6
	c7.5-1.3,12.6-8.6,11.4-16.1c-10.5-65.8-43.7-96.4-104.3-96.4c-44.8,0-119.9,19.8-119.9,152.3c0,125.5,64.2,151.9,118,151.9
	c59.3,0,94.8-32.2,108.7-98.4c0.8-3.8,0-7.6-2.2-10.8C282.4,1039.7,279,1037.6,275.2,1037z"/>
<path fill="#FFFFFF" d="M479.1,1033.4c-1.1-2.4-0.1-5.1,2.2-6.6c23.9-14.9,37.7-42.3,37.7-75.1c0-65.3-35.7-98.4-106.1-98.4h-83.2
	c-7.7,0-14,6.3-14,14.1V1133c0,7.7,6.3,14.1,14,14.1h50.5c7.7,0,14-6.3,14-14.1v-77.8c0-2.8,2.3-5.1,5.1-5.1c2,0,3.8,1.2,4.7,3
	l38.8,85.7c2.3,5,7.3,8.3,12.8,8.3h52.9c4.8,0,9.2-2.4,11.8-6.4s3-9,1-13.4L479.1,1033.4z M410.9,987.3h-11.6
	c-2.8,0-5.1-2.3-5.1-5.1v-55.5c0-2.8,2.3-5.1,5.1-5.1h11.6c22.9,0,31,8.3,31,31.7C441.9,977.7,433.2,987.3,410.9,987.3z"/>
<path fill="#FFFFFF" d="M720.1,1080h-85.9c-2.8,0-5.1-2.3-5.1-5.1v-41.6c0-2.8,2.3-5.1,5.1-5.1h52.4c7.7,0,14-6.3,14-14.1v-37
	c0-7.7-6.3-14.1-14-14.1h-52.4c-2.8,0-5.1-2.3-5.1-5.1v-30.5c0-2.8,2.3-5.1,5.1-5.1h81.3c7.7,0,14-6.3,14-14.1v-40.9
	c0-7.7-6.3-14.1-14-14.1H562.6c-7.8,0-14.1,6.3-14.1,14.1V1133c0,7.7,6.3,14.1,14.1,14.1h157.5c7.8,0,14.1-6.3,14.1-14.1v-38.9
	C734.1,1086.3,727.8,1080,720.1,1080z"/>
<path fill="#FFFFFF" d="M1056.1,853.3H1013c-6.8,0-12.6,4.9-13.8,11.6l-16.7,93.3c-2.5,13.6-4.6,24.8-6.7,38.8
	c-1.9-12.7-3.8-23.3-6.1-35.3L952.6,865c-1.2-6.7-7-11.6-13.8-11.6h-47.4c-6.8,0-12.7,4.9-13.8,11.6l-15.9,91l-1.8,9.6
	c-1.9,10.6-3.6,19.9-5.5,32c-2.2-14.8-4.1-25.2-6.6-39.1L831,864.9c-1.2-6.7-7-11.6-13.8-11.6h-48.9c-4.3,0-8.3,1.9-11,5.3
	c-2.7,3.3-3.7,7.7-2.8,11.8l59.3,266.8c1.4,6.5,7.1,11,13.7,11h46.6c6.8,0,12.6-4.9,13.8-11.6l24.2-136.3l24.2,136.3
	c1.2,6.7,7,11.6,13.8,11.6h46.6c6.6,0,12.3-4.5,13.7-11l59.3-266.8c0.9-4.2-0.1-8.5-2.8-11.8
	C1064.4,855.2,1060.4,853.3,1056.1,853.3z"/>
<g>
	<path fill="#FFFFFF" stroke="#000000" stroke-width="3" stroke-miterlimit="10" d="M1284.7,867.3v40.9c0,8.2-6.7,14.9-14.9,14.9
		h-77.4c-2.4,0-4.3,1.9-4.3,4.3v38.9c0,2.4,1.9,4.3,4.3,4.3h49.3c8.2,0,14.9,6.7,14.9,14.9v37c0,8.2-6.7,14.9-14.9,14.9h-49.3
		c-2.4,0-4.3,1.9-4.3,4.3v91.3c0,8.2-6.7,14.9-14.9,14.9h-52.4c-8.2,0-14.9-6.7-14.9-14.9V867.3c0-8.2,6.7-14.9,14.9-14.9h149
		C1278,852.4,1284.7,859.1,1284.7,867.3z"/>
	<path fill="#FFFFFF" stroke="#000000" stroke-width="3" stroke-miterlimit="10" d="M1498.5,1128.9L1421,862
		c-1.8-6.3-7.7-10.7-14.3-10.7h-55.3c-6.6,0-12.5,4.4-14.3,10.7l-77.6,266.8c-1.3,4.5-0.5,9.3,2.4,13.1c2.8,3.8,7.2,6,11.9,6h46.4
		c6.8,0,12.7-4.6,14.4-11.2l8.6-33.7c0.5-1.9,2.2-3.2,4.2-3.2h58.2c2,0,3.7,1.3,4.2,3.3l8.3,33.6c1.6,6.7,7.6,11.3,14.4,11.3h51.7
		c4.7,0,9.1-2.2,11.9-6C1498.9,1138.2,1499.8,1133.4,1498.5,1128.9z M1364.4,1019.3c2.1-8.3,4.2-15.7,6.1-22.7
		c2.5-9,4.8-17.3,6.8-26c2.1,9.1,4.3,17.8,6.8,27.3c1.7,6.6,3.5,13.6,5.4,21.3l3.5,15h-32.3L1364.4,1019.3z"/>
	<path fill="#FFFFFF" stroke="#000000" stroke-width="3" stroke-miterlimit="10" d="M1729.2,1126.9l-42.4-93.8
		c-0.9-2-0.1-4.3,1.9-5.5c24.2-15.1,38.1-42.7,38.1-75.8c0-65.8-36-99.2-106.9-99.2h-83.2c-8.2,0-14.9,6.7-14.9,14.9V1133
		c0,8.2,6.7,14.9,14.9,14.9h50.5c8.2,0,14.9-6.7,14.9-14.9v-77.8c0-2.4,1.9-4.3,4.3-4.3c1.7,0,3.2,1,3.9,2.5l38.8,85.7
		c2.4,5.3,7.7,8.8,13.6,8.8h52.9c5.1,0,9.7-2.5,12.5-6.8C1730.9,1136.8,1731.3,1131.5,1729.2,1126.9z M1596.4,926.6
		c0-2.4,1.9-4.3,4.3-4.3h11.6c22.5,0,30.1,7.8,30.1,30.9c0,24.2-8.1,33.2-30.1,33.2h-11.6c-2.4,0-4.3-1.9-4.3-4.3V926.6z"/>
	<path fill="#FFFFFF" stroke="#000000" stroke-width="3" stroke-miterlimit="10" d="M1940,1094.1v38.9c0,8.2-6.7,14.9-14.9,14.9
		h-157.5c-8.2,0-14.9-6.7-14.9-14.9V867.3c0-8.2,6.7-14.9,14.9-14.9h152.9c8.2,0,14.9,6.7,14.9,14.9v40.9c0,8.2-6.7,14.9-14.9,14.9
		h-81.3c-2.4,0-4.3,1.9-4.3,4.3v30.5c0,2.4,1.9,4.3,4.3,4.3h52.4c8.2,0,14.9,6.7,14.9,14.9v37c0,8.2-6.7,14.9-14.9,14.9h-52.4
		c-2.4,0-4.3,1.9-4.3,4.3v41.6c0,2.4,1.9,4.3,4.3,4.3h85.9C1933.3,1079.2,1940,1085.9,1940,1094.1z"/>
</g>
</svg>
