<?xml version="1.0" encoding="utf-8"?>
<!-- Generator: Adobe Illustrator 26.5.0, SVG Export Plug-In . SVG Version: 6.00 Build 0)  -->
<svg version="1.2" baseProfile="tiny-ps" id="Layer_1" xmlns="http://www.w3.org/2000/svg" xmlns:xlink="http://www.w3.org/1999/xlink" viewBox="0 0 500 500" xml:space="preserve">
<title>Adafruit</title>
<rect width="500" height="500"/>
<g>
	<path fill="#FFFFFF" d="M422.13,229.49c-1.13-7.08-4.95-9.08-14.19-12.05c-7.01-2.24-54.05-17.23-54.05-17.23
		s-32.77-12.38-57.07,5.13c-3.28,2.36-6.65,5.04-10.06,7.91c2.86-3.4,5.54-6.8,7.89-10.08c17.46-24.32,5.02-57.08,5.02-57.08
		s-15.07-47-17.32-54.02c-2.99-9.23-5.01-13.06-12.07-14.16c-7.06-1.11-10.15,1.91-15.82,9.77c-4.31,5.99-33.1,46.08-33.1,46.08
		s-21.89,27.35-12.75,55.87c1.22,3.84,2.74,7.88,4.42,12.01c-2.36-3.78-4.76-7.38-7.15-10.62c-17.74-24.12-52.73-22.42-52.73-22.42
		s-49.35-0.2-56.73-0.21c-9.71-0.03-13.97,0.72-17.21,7.08c-3.25,6.38-1.32,10.25,4.41,18.07c4.36,5.96,33.6,45.72,33.6,45.72
		s19.25,29.26,49.19,29.39c4.02,0.01,8.33-0.16,12.76-0.48c-4.31,1.07-8.46,2.24-12.28,3.51c-28.44,9.42-37.63,43.21-37.63,43.21
		s-15.44,46.88-17.74,53.89c-3.01,9.23-3.63,13.5,1.43,18.56c5.06,5.05,9.34,4.43,18.55,1.39c7.01-2.3,53.86-17.82,53.86-17.82
		s33.78-9.26,43.14-37.71c1.26-3.82,2.42-7.96,3.5-12.27c-0.31,4.43-0.49,8.73-0.45,12.75c0.18,29.95,29.47,49.13,29.47,49.13
		s39.81,29.16,45.77,33.52c7.84,5.71,11.72,7.61,18.09,4.36c6.37-3.25,7.1-7.5,7.06-17.21c-0.02-7.37-0.31-56.73-0.31-56.73
		s1.64-34.99-22.52-52.69c-3.24-2.38-6.82-4.77-10.61-7.11c4.14,1.66,8.17,3.15,12.01,4.37c28.53,9.09,55.83-12.84,55.83-12.84
		s40.05-28.85,46.02-33.17C420.24,239.64,423.25,236.55,422.13,229.49z M252.14,193.14c5.38,0.85,8.05,12.3,5.96,25.58
		c-2.08,13.27-8.14,23.35-13.52,22.5c-5.39-0.85-8.07-12.3-5.97-25.58C240.71,202.37,246.76,192.29,252.14,193.14z M183.21,228.35
		c2.47-4.86,14.18-3.86,26.15,2.23c11.98,6.09,19.69,14.97,17.22,19.82c-2.47,4.87-14.18,3.87-26.16-2.21
		C188.44,242.09,180.74,233.2,183.21,228.35z M219.55,294.55c-9.49,9.51-20.32,14.1-24.17,10.25c-3.85-3.85,0.72-14.68,10.21-24.2
		c9.5-9.51,20.32-14.1,24.17-10.25C233.62,274.2,229.04,285.04,219.55,294.55z M271.85,316.84c-4.86,2.49-13.74-5.21-19.85-17.18
		c-6.11-11.96-7.14-23.68-2.28-26.15c4.85-2.48,13.74,5.22,19.85,17.18C275.68,302.65,276.7,314.36,271.85,316.84z M284.45,261.41
		c-13.27,2.11-24.72-0.54-25.58-5.92c-0.85-5.38,9.21-11.46,22.49-13.57c13.27-2.11,24.72,0.53,25.58,5.92
		C307.8,253.21,297.73,259.29,284.45,261.41z"/>
</g>
</svg>
