<?xml version="1.0" encoding="utf-8"?>
<!-- Generator: Adobe Illustrator 25.4.1, SVG Export Plug-In . SVG Version: 6.00 Build 0)  -->
<svg version="1.2" baseProfile="tiny-ps" xmlns="http://www.w3.org/2000/svg" xmlns:xlink="http://www.w3.org/1999/xlink" viewBox="0 0 368.5 368.5" xml:space="preserve">
<title>BO</title>
<g id="Layer_2">
	<rect fill-rule="evenodd" fill="#FFFFFF" width="368.5" height="368.5"/>
</g>
<g id="Layer_1">
	<g id="Layer_1_00000139293098211708877040000002723152234927927200_">
		<path fill-rule="evenodd" stroke="#FFFFFF" stroke-miterlimit="10" d="M200.3,132.2c0,7.1,2.8,13.7,8.1,19
			c7.4,7.4,15.6,8.5,21.1,8c6.6-0.5,13.2-3.6,17.7-8.1l1.2-1.2l0,0c3.3-3.3,5.4-5.4,7.3-7.3l13.6,13.3l9.6-9.6l0.1-0.2l-13.4-13.5
			l9.6-9.6l-10-10l-9.6,9.6c0,0-27.9-28.1-31.4-31.6c-1.9-1.9-3-3.9-3-7.1c0-3.4,1.5-5.6,2.8-6.9c1.9-1.9,4.6-3,7.1-3
			c3.8,0,6.2,2,7,2.9l0.2,0.2l0.2-0.2l5.7-5.7l3.9-3.9l0.2-0.2l-0.3-0.3c-2.6-2.6-8.2-7.1-17-7.1c-6.7,0-12.9,2.7-17.4,7.5
			c-4.2,4.5-6.7,10.6-6.7,16.6c0,10,5.7,16.2,9.7,20l-8.5,8.3C203.4,117.1,200.3,124.8,200.3,132.2z M218.4,122.3l8.4-8.5l18.9,18.8
			c-0.9,0.9-4.5,4.6-8.6,8.6c-4.9,4.8-12.9,5.8-18.8-0.1c-2.6-2.6-3.9-5.8-3.9-9.3C214.5,128.3,215.9,124.7,218.4,122.3z M280,191.9
			c-12.9-12.9-30.1-20-48.4-20s-35.5,7.1-48.4,20s-20,30.1-20,48.3c0,18.3,7.1,35.4,20,48.3s30.1,20,48.4,20s35.5-7.1,48.4-20
			s20-30.1,20-48.3S292.9,204.8,280,191.9z M231.6,291c-13.6,0-26.3-5.3-35.9-14.9c-9.6-9.6-14.9-22.3-14.9-35.9
			c0-13.6,5.3-26.3,14.9-35.9c9.6-9.6,22.4-14.9,35.9-14.9c13.6,0,26.3,5.3,36,14.9c9.6,9.6,14.9,22.3,14.9,35.9
			C282.4,268.2,259.6,291,231.6,291z M163.3,141.7c0,29.1-15.9,55.6-41.6,69.3c7.3,4.7,13.5,11.1,17.8,18.6c4.5,7.9,6.9,17,6.9,26.1
			c0,14.2-5.5,27.5-15.6,37.5c-10,10-23.4,15.5-37.5,15.5h-26V63.1h17.4c21,0,40.8,8.2,55.6,23C155.1,101,163.3,120.7,163.3,141.7z
			 M127.8,98.6c-11.5-11.4-26.7-17.8-42.9-17.8v121.9c16.2-0.1,31.5-6.4,42.9-17.8c11.5-11.5,17.9-26.8,17.9-43.1
			C145.7,125.4,139.4,110.1,127.8,98.6z M84.9,291.2h8.3c19.6,0,35.5-15.9,35.5-35.4c0-9.5-3.7-18.4-10.4-25.1
			c-6.7-6.7-15.7-10.4-25.2-10.4c0,0-6.8,0-8.3,0L84.9,291.2L84.9,291.2z"/>
	</g>
</g>
</svg>