<?xml version="1.0" encoding="UTF-8"?>
<svg id="Ebene_1" xmlns="http://www.w3.org/2000/svg" baseProfile="tiny-ps" version="1.2" viewBox="0 0 133 133">
  <title>Mailculture</title>
  <g id="g1">
    <path id="path1" d="M110.1,36.9c0-.8-.3-1.6-.9-2.2h0c-.7-.8-1.8-1.3-2.8-1.3h-53c-4.8-.1-4.8,7.5,0,7.4h42.8l-29.8,25-37.5-31.6c-.7-.6-1.5-.9-2.4-.9h0c-1.1,0-2.2.5-2.8,1.3h0c-.5.6-.9,1.5-.9,2.4v58.9c0,2.1,1.7,3.7,3.7,3.7h59.8c4.8,0,4.8-7.5,0-7.4H30.2v-47.2l33.9,28.4c.7.6,1.6.9,2.4.9s1.7-.3,2.4-.9l33.8-28.4v44.2c0,2.1,1.7,3.7,3.7,3.7s3.7-1.7,3.7-3.7,0-52,0-52.3Z" fill="#75b726"/>
  </g>
</svg>