<svg xmlns="http://www.w3.org/2000/svg" xmlns:xlink="http://www.w3.org/1999/xlink" version="1.2" viewBox="0 0 108 108" baseProfile="tiny-ps">
  <title>3DB_Logo_Bug_Black (1v2)</title>
  <g>
    <g id="Layer_1_00000015336287281508195410000010181760437615397787_">
      <g id="Layer_1-2">
        <g>
          <g>
            <path d="M103.9,54.3c0,27.5-22.3,49.8-49.8,49.8S4.3,81.9,4.3,54.3S26.6,4.5,54.1,4.5       S103.9,26.8,103.9,54.3z" fill="#FFFFFF"/>
            <path d="M4.1,54.3c0-27.6,22.4-50,50-50l0,0c27.6,0,50,22.4,50,50l0,0c0,27.6-22.4,50-50,50l0,0       C26.5,104.3,4.1,81.9,4.1,54.3C4.1,54.3,4.1,54.3,4.1,54.3z M19,19.2c-9,9-14.5,21.4-14.5,35.1l0,0C4.5,68,10.1,80.4,19,89.4       l0,0c9,9,21.4,14.5,35.1,14.5l0,0c13.7,0,26.1-5.6,35.1-14.5l0,0c9-9,14.5-21.4,14.5-35.1l0,0c0-13.7-5.6-26.1-14.5-35.1l0,0       c-9-9-21.4-14.5-35.1-14.5l0,0C40.4,4.7,28,10.3,19,19.2C19,19.2,19,19.2,19,19.2z" fill="#231F20"/>
            <g>
              <path d="M52.7,9.2h2.2c2.8,0.4,5.3,1.7,5.8,4.4        C61,15,61,16.7,61,18.4s0,3.4,0.1,5c0.1,6.7,0.3,13.5,0.3,20.3c0,12.8,0,25.6-0.7,37.8c0,0.9,0,1.9,0.5,2.1        c0.4,0.2,1.2-0.1,1.6-0.3c0.6-0.2,1-0.4,1.6-0.5c0.6,0,1.1,0.2,1.6,0.4c2.8,0.8,5.5,1.2,8.5,1.6c2.4,0.3,5.1,0.6,7.6,0.3        c2.4-0.2,4.7-0.8,6.6-1.4c-5.1,6.2-11.5,10.9-20,13.9c-1.3,0.4-2.8,1-4.6,1.1c-1.9,0.1-3.7,0-4.7-1c-0.9-0.8-0.7-2.9-0.9-4.6        c-0.3-4.1-0.3-8.6-0.3-12.7V63.1c0-10.8-0.2-21.7,0.8-31.7c0-0.7,0.2-1.5,0-2c0-0.3-0.4-0.9-0.7-0.9c-0.4,0-1.1,0.2-1.5,0.4        c-2.8,1-5.8,1.9-8.8,2.6c-0.5,0.1-1.2,0.1-1.6,0.3c-0.5,0.2-1.6,1.2-1.5,1.7c0,0.5,1,0.8,1.4,1.1c0.6,0.3,1.2,0.7,1.6,0.9        c0.9,0.6,2.5,1.6,2.7,2.7c0.3,1.6,0.2,3.6,0.3,5.6c0,1.9,0.1,3.9,0.1,5.8c0,2.9,0,6-0.1,8.7c0,0.8-0.1,1.7-0.8,2.2        c-0.5,0-1.1-0.1-1.6-0.2c-1.6-0.2-3.3-0.2-4.9-0.3c-2.1,0-4.2,0.4-6.1,0.9c-3.7,0.9-6.8,2.4-9.5,4.3        c-5.2,3.8-9.2,9.7-8.8,18.8c-2.8-3.1-5.1-6.9-6.9-11c-1.9-4.2-3.2-8.9-3.7-14.4c4,2.4,9.9,3.8,16.3,3        c5.8-0.7,10.5-2.9,13.9-5.8c1.8-1.5,3.3-3.2,4.4-5.4c1.1-2.1,2.2-4.7,1.8-7.9c-0.3-2.9-1.6-5-3.1-6.8        c-1.1-1.3-2.4-2.5-3.8-3.6c-0.4-0.3-1.3-0.8-1.2-1.2c0-0.5,1.2-0.6,1.7-0.7c5.7-1.3,10.9-3.8,11.7-9.9        c0.6-4.3-1.3-7.7-3.3-9.8c-0.2-0.2-0.6-0.4-0.5-0.6c1.9-0.3,4-0.5,6.1-0.6l0,0L52.7,9.2z" fill="#231F20" fill-rule="evenodd"/>
              <path d="M38.5,11.9c0.4,0,1.2,0.7,1.6,1c1.3,1.2,2.2,2.9,2.5,5.1        c0.4,3.1-0.9,5.8-2.3,7.5c-1.5,1.8-3.8,3-6.5,3.6s-6.3,0.5-9,1.1c-0.5,0.1-1.1,0.4-1.6,0.8c-0.3,0.2-1,0.8-0.8,1.4        c0.2,0.5,1.5,0.3,2.2,0.4c5.1,0.6,9.3,2.5,11.1,6.5c1.1,2.4,1,5.8,0.3,8.6c-0.7,2.6-2,4.7-3.6,6.5c-1.6,1.7-3.5,3.3-5.9,4.2        c-2.5,1-5.8,1.1-8.6,0.2c-3.6-1.2-6.4-3.7-7.9-7.2c-0.5-1.2-1.1-2.5-1.1-3.9s0.4-2.3,0.7-3.4c1.8-7.7,5.2-13.8,9.6-18.9        C23.8,20,29.6,15.5,37,12.6c0.5-0.2,1-0.5,1.5-0.6l0,0V11.9z" fill="#231F20" fill-rule="evenodd"/>
              <path d="M97.6,42.1L97.6,42.1c-3.5-2.5-7.4-4.6-13.3-4.6        c-5.1,0-9.3,1.3-12.6,3.2c-0.5,0.3-1.1,0.8-1.5,0.7c-0.7-0.2-0.6-2.2-0.6-3.2c0-8.8,0-17.6,0.6-25.8        C83.7,17.9,93,27.7,97.5,42.2l0,0L97.6,42.1z" fill="#231F20" fill-rule="evenodd"/>
              <path d="M77.2,42.5C82,42.3,86,44,88.8,46.1        c2.8,2.2,4.7,5.4,6,9.2c0.6,2,1.1,4.1,1.2,6.4c0.1,2.4-0.2,4.6-0.7,6.7c-1,4.1-2.5,7.6-5.2,9.9c-1.5,1.3-2.9,2.2-4.6,2.9        c-2.1,0.8-4.3,0.1-6.2-0.6c-3.4-1.3-7-3.4-8.1-7c-0.6-1.8-0.6-4.5-0.8-6.8c-0.5-6-0.7-11.9-0.5-18.3c0-1.5,0-2.9,0.6-3.8        c1-1.6,4.4-2.2,6.9-2.3l0,0L77.2,42.5z" fill="#231F20" fill-rule="evenodd"/>
              <path d="M39.1,63.4c2.9-0.2,5.5,1,7.3,2.2s3.8,3,4.3,5.3        c0.3,1.4,0.2,4.1,0.3,6.2s0.1,4.2,0.1,6.4c0,3.4,0,6.4-0.7,9c-0.2,0.8-0.5,1.8-0.9,2.4c-0.2,0.3-0.9,0.7-1.4,0.9        c-1.4,0.8-3.1,1.4-5,1.6c-2.6,0.2-5.3-0.5-7.2-1.5c-3.7-2.1-6.1-5.7-7.5-10c-0.7-2.3-1.2-5.2-0.9-7.7c0.2-2.8,1-5.3,1.7-7        c0.8-2.1,2-3.8,3.6-5.2C34.4,64.7,36.3,63.7,39.1,63.4C39.1,63.4,39.1,63.4,39.1,63.4z" fill="#231F20" fill-rule="evenodd"/>
            </g>
          </g>
          <path d="M86.5,100.5L86.5,100.5c0-2.1,1.7-3.9,3.9-3.9s3.9,1.8,3.9,3.9l0,0c0,2.1-1.7,3.9-3.9,3.9      S86.5,102.6,86.5,100.5z M93.8,100.4L93.8,100.4c0-1.9-1.5-3.5-3.4-3.5s-3.4,1.6-3.4,3.5l0,0c0,1.9,1.5,3.5,3.4,3.5      S93.8,102.3,93.8,100.4z M88.9,98.4h1.8c0.9,0,1.5,0.4,1.5,1.3s-0.4,1.1-0.9,1.2l1.1,1.5h-0.9l-0.9-1.4h-0.8v1.4H89v-3.9l0,0      L88.9,98.4z M90.6,100.4c0.5,0,0.8-0.3,0.8-0.6s-0.3-0.6-0.8-0.6h-0.9v1.3h0.9V100.4z" fill="#231F20"/>
        </g>
      </g>
    </g>
  </g>
</svg>