<?xml version="1.0" encoding="UTF-8" standalone="yes"?>
<svg version="1.2" xmlns="http://www.w3.org/2000/svg" baseProfile="tiny-ps" xml:space="preserve" viewBox="-0 0 1984.3 1984.3"><title>Dormy Golf (1).svg</title>



<g id="Färg">
	<rect class="st5" width="1984.3" height="1984.3" fill="#FFFFFF"/>
	<g>
		<path class="st6" d="M1337.2,1176.6h-51.6V946.8c0-47.8-60.7-47.8-60.7,2.6v227.2h-100.7l0,0V936.4c0-72.3,73.6-127.8,133.5-125.9
			c43.3,1.4,79.5,43.9,79.5,43.9s36.2-42.5,79.5-43.9c59.9-1.9,133.5,53.6,133.5,125.9v240.1l0,0h-100.7V949.3
			c0-50.4-60.7-50.4-60.7-2.6v229.8H1337.2z" fill="#C51315"/>
		<path class="st6" d="M173.8,986.3c0,49.5,37.9,89.7,84.6,89.7c46.7,0,84.6-40.2,84.6-89.7c0-49.6-37.9-89.7-84.6-89.7
			C211.7,896.6,173.8,936.8,173.8,986.3z M439.2,987.6c0,105.2-81.6,190.4-182.1,190.4C156.5,1178,75,1092.8,75,987.6
			c0-105.2,81.5-190.4,182.1-190.4c30.2,0,58.2,10.9,83.3,24.5V610h98.6L439.2,987.6z" fill="#C51315"/>
		<path class="st6" d="M567.3,990.6c0,49.6,37.9,89.7,84.6,89.7c46.7,0,84.6-40.2,84.6-89.7c0-49.5-37.9-89.7-84.6-89.7
			C605.2,900.9,567.3,941.1,567.3,990.6z M470.5,991c0-105.2,81.5-190.4,182.1-190.4c100.5,0,182,85.2,182,190.4
			c0,105.2-81.5,190.4-182,190.4C552,1181.5,470.5,1096.2,470.5,991z" fill="#C51315"/>
		<path class="st6" d="M1696.2,1374.3c88.8,0,211.7-75.9,213-217.3l-1.3-323.4h-103.3v212.3c0,73-107.2,73-107.2-3.9V833.6h-103.3
			v220.1c0,73,56.8,145.3,140,145.9c51.1,0.4,70.5-22,70.5-22c0,43.9-50.8,96.6-108.1,98.1L1696.2,1374.3z" fill="#C51315"/>
		<path class="st6" d="M1140.4,789l1.2-4.5l-3.3-2.7c-0.4-1.2-1.2-3.4-3.1-5.2c0-0.1-0.1-0.2-0.2-0.4l-0.5-2.5l-2-1.7
			c-0.2-0.3-0.7-1.2-1.1-1.8c-1.4-2.6-3.6-6.8-8.6-9c-0.2-0.2-0.4-0.4-0.5-0.6c-4.5-6.9-11.9-8.3-16.9-9.2c-1-0.2-2-0.4-2.9-0.6
			c-1.1-0.6-2.1-1-3.1-1.3c-2.2-1.4-5.5-2.7-9-2.4c-1.2,0.1-2.4,0.4-3.5,0.8c-5.1-0.4-9.4,2.9-11.5,4.5c0,0-0.1,0-0.1,0.1
			c-1.6,0.3-3.6,0.7-5.7,1.8c-0.3,0-0.7,0-1.1,0c-2.9,0.1-8.8,0.4-12.4,6.2l-1.5,2.3c-1.8,0.9-3.2,1.9-4.3,3.1
			c-0.6,0.2-1.2,0.4-1.8,0.6l-3-0.5l-2.2,1.8c-3-1.7-7.5-3.9-12.8-2.7c-0.9-0.2-2-0.7-3.6-1.4c-1.2-0.6-2.5-1.2-3.8-1.6l-2.5-0.9
			l-2.6,0.7c-3,0.9-6.7-0.3-11.1-1.7c-2.4-0.7-4.8-1.5-7.6-2l-1-0.1c-14-2.2-29.7-4.6-44.1,1.7c-9.7,1.6-19.3,5.1-28.6,10.6
			l-2.7,1.2c-13.6,6.1-27.7,12.4-40,22.6c-1.4,0.9-2.8,1.7-4.2,2.5c-3.6,2.1-7.7,4.4-11.3,8.3l-1.2,1.6c-2.8,5.1-4.3,12.7-2.6,19.2
			c-0.5,1.6-0.8,3-0.8,4.3l-2.4,2.5l-0.8,0.9c-1.2,1.6-1.9,3.4-2.1,5.2c-0.5,0.7-1.1,1.3-1.6,2l-2.4,3.1
			c-6.9,11.8-15.5,26.4-15.4,44.8c0.2,15.8,4.3,30.1,8.4,44c1,3.4,2,6.8,2.8,9.6c1,5.1,2.1,10.2,3.3,15.3c3,13.4,5.7,26,6.8,40
			c1.5,9.4,2.6,18.9,3.7,28.3l0.8,7l0.5,1.9c1.1,2.9,1.2,6.6,1.4,10.6c0.1,1.8,0.2,3.6,0.3,5.4l0.3,3.7l0.2,0.2
			c-0.5,2.8-0.1,5,0.7,6.8c-0.3,0.7-0.6,1.3-0.9,2l-0.5,2.1c-0.3,2.8-1,5.6-1.7,8.3c-1.2,5-2.5,10.7-2.2,16.8
			c-0.3,4.9-0.9,9.9-1.5,14.9c-1,8.2-2,16.7-1.9,24.4c-0.1,1.7-0.4,3.4-0.6,5.2c-0.5,3.9-1.1,8.4-0.6,13l0.3,3.1
			c-2.7,5.3-2.6,11.3-2.4,15.6c-1.8,3.1-1.7,6.5-1.7,8.2c0,0.4,0,0.7,0,1.1c0,0,0-0.4,0.3-0.9l-1,3.9l1.3,3.2
			c0.4,1.1,1.5,3.6,4.3,5.5l1.2,0.8l1.4,0.4c3,0.8,6.1,1.3,9.3,1.8c2.3,0.4,4.5,0.7,7.6,1.3l1.3,0.2c2.1,0.4,5.3,1,8.7,0
			c2.1,0.3,4.4,1.1,6.9,1.9c1.9,0.6,3.8,1.3,6.2,1.9l5.9,1.2c9,1.9,18.3,3.8,28.2,3.8c1.3,0,2.7,0,4.1-0.1c7.8-0.3,17-4,22.2-11.6
			c0.4,0,0.9,0,1.4,0c1.2,0,2.3,0,3.5,0c4,0.4,7.1-0.8,9.3-1.7c0.7-0.3,1.5-0.6,1.9-0.7l2.5-0.4l1.9-1.7c3.3-3,5.3-6.6,6.3-11.5
			c0.5-4-1.3-6.9-2.3-8.5l-1-1.7c-4-5.2-9.9-5.8-13.4-6.1c-0.9-0.1-1.7-0.1-2.5-0.3l-1.7-0.2c-0.9-0.1-1.9,0-2.8,0.1
			c-0.5,0-1.1,0.1-1.1,0.2l-1.3-0.6l-0.8-0.1c-0.4-0.4-1.1-1.2-1.5-1.8c-0.6-0.8-1.2-1.5-1.9-2.2c-1.1-2.7-2.4-5.2-3.7-7.6
			c-1.4-2.5-2.7-5-3.5-7.4c1.6-2,3.2-4.8,3-8.4l-0.4-22.9c0-3.1-0.1-6.1-0.3-9.2c-0.2-2.8-0.3-5.6-0.2-8.4c0.9-3.8-0.1-7.1-0.7-9.1
			c-0.1-0.4-0.2-0.7-0.3-0.9c3.7-10,6-21.6,6.8-34.7c4.7-17.6,2.7-34.8,0.7-51.5c-0.4-3.6-0.9-7.2-1.2-11.2
			c-1.1-7.2-2.3-14.5-3.4-21.8l-1.5-14.3l5,6.4c0.1,2.5,0.9,4.6,1.3,5.6l0.6,2.7c0.5,2.2,1.7,4.2,3.3,5.7c0.6,2.7,2,5.2,3.9,7.2
			c0.5,3.2,1,6.7,2.8,10.3l1.8,3.8l0.4,0.1c0.4,0.9,1,1.9,1.9,2.9l3,3.2l1.1-0.2c0.4,0.7,1,1.5,1.6,2.2c0.5,3.3,2,6,4.6,7.9l1.3,1
			l1.6,0.4c1.3,0.4,3,0.6,5,0.5l2.8,5.1l1,0.4l73.2,138l-0.2,2.2l1.6,2.4c1.3,1.9,2.1,4.1,2.6,6.8c-0.5,0.4-0.9,0.8-1.4,1.2l-1,1
			l-0.6,1.3c-1.4,2.9-1.5,6.1-0.3,9.5l1.5,2.6c2.5,3.3,5.6,4.8,9.1,4.8c11.1,0.2,21.2-2.3,28.8-4.6l1.2-0.5
			c9.8-4.8,8.7-12.5,8.1-14.7l-0.3-1c-2.2-5.6-5.7-8.6-10.3-9l-1.2-0.1l-1.2,0.2c-4.7,1-9.3,1.9-13.8,2.6c-0.2-0.8-0.3-1.6-0.3-2.3
			l-0.2-2.4l-1-1.3c0,0,0,0,0,0c-0.3-1.4-1.2-4.7-4.2-7.1l-72.4-139.4c-0.2-2-0.9-3.8-1.6-5.4c1.2-3,0.8-6.1-1-8.9
			c0-1.7-0.1-3.2-0.2-4.6c-0.2-2.5-0.3-4.1,0.2-5.2l1.2-3l-6.3-16.4l-3.6-1.2c-0.3-0.1-0.8-0.7-1.8-2.9c0.4-3-0.2-5.7-0.7-7.5
			c0.9-5.2-1-9.6-2.7-12.8c0.3-2.7-0.1-4.9-1-6.6c-0.1-0.7-0.1-1.4-0.2-2.1c-0.2-2.1-0.4-3.9-0.1-5.3l0.5-2.1l-0.6-2.1
			c-1.5-4.7-1.1-10.2-0.6-16.5c0.1-1.1,0.2-2.2,0.2-3.2c0.4-0.3,0.7-0.7,1-1.1c2.3-0.4,4.4-1.5,6.2-3.1c2.1-2,3.4-4.6,3.9-7.4
			c0.2-0.1,0.4-0.3,0.6-0.4l2.5-1l1.4-2.3c0.9-1.4,1.7-2.7,2.7-4c1.6-2.4,3.2-4.8,4.7-7.5c1.2-1.1,2-2.2,2.5-3l1.9-1.5l0.8-2.3
			c1-2.7,3.7-5.1,6.8-7.8c3-2.7,6.4-5.7,9.1-9.8l1.1-1.7l0.2-2c0.2-2.1,1.2-4,2.9-6.4c1.7,3.3,4.3,6.8,9,9c3.7,1.6,7,1.2,9.6,0.2
			c0.3,0.1,0.6,0.3,0.9,0.4l3.5,1.6l1.3-0.6c1.4,0.6,2.6,0.7,4,0.7c0,0.1,0.1,0.1,0.1,0.2l1.7,2.3l2.8,0.7c2.1,0.5,3.9,0.3,5.6,0.1
			l2.2-0.1l1.8-1.2c2-1.3,3.8-2.9,5.7-4.6c0.9-0.8,1.8-1.6,2.6-2.2c2.4,0.2,5.6,0.3,8.8-1.2l1.2,0.7c3.7,2.2,7.2,2.1,9.2,1.9
			c0.2,0,0.4,0,0.7,0l1.9,1.1l2.8-0.4c3.1-0.5,5.2-2,6.8-3.4l6-0.2l0.4-6c1.1-1.4,3-4,3-7.8c0.3-0.5,0.7-1.1,0.9-1.7
			c0.6-1.1,0.9-2.1,1-3c0.7-1.1,1.3-2.7,1.3-4.5c1.3-2.6,2.1-6.2,1.3-11.4c0.4-0.9,0.8-1.9,1-3.1c2.1-4.4,0.8-8.7,0.2-10.7
			C1140.6,789.5,1140.5,789.2,1140.4,789z" fill="#C51315"/>
	</g>
</g>
</svg>
