<?xml version="1.0" encoding="UTF-8" standalone="yes"?>
<svg version="1.2" viewBox="0 0 80 80" baseProfile="tiny-ps" xmlns="http://www.w3.org/2000/svg">
  <title>Team Fishel</title>
  <rect x="-0.065" width="80" height="80"/>
  <rect x="13.675" y="49.584" width="1.468" height="2.936" fill="#FFFFFF"/>
  <rect x="64.985" y="49.121" width="1.468" height="2.936" fill="#FFFFFF"/>
  <rect x="53.394" y="52.521" width="6.723" height="2.009" fill="#FFFFFF"/>
  <path d="M0.205,4.365" fill="none"/>
  <path d="M19.857,30.729c-0.309,0.232-0.618,0.386-0.927,0.618c0,0.155,0.232,0.773,0.232,0.927  c-0.077,0.077-0.232,0.386-0.309,0.464c-0.541,0.155-1.855-0.077-2.164,0.155c-3.941,3.014-7.109,6.414-8.809,9.891  c-1.932,3.941-2.396,8.268-1.082,11.668c1.855,5.1,6.955,9.35,14.528,10.818c7.418,1.391,17.387,0.773,26.119-2.164  c5.564-1.855,10.818-4.636,15.532-8.191c0.077-0.077,0-2.164,0.077-2.318c0.077,0,0.232-0.077,0.309-0.155  c0.155-0.077,0.309,1.855,0.464,1.777c1.855-1.391,3.477-3.014,5.023-4.714c5.023-5.564,6.491-10.355,4.559-15.532  c-0.773-2.318-2.859-4.25-4.946-5.873c2.627,3.014,3.632,5.1,3.864,6.491c0.773,5.486-2.086,11.05-7.65,15.919  c-0.077,0.077,0,2.009-0.077,2.086c-0.077,0-0.773,0-0.85,0c0-0.077,0-0.386,0-0.464c0.077-0.386,0.232-0.773,0.309-1.159  c-1.082,0.85-2.318,1.777-3.4,2.55c-0.618,0.386,1.314,1.005,1.314,1.159c-0.077,0.155-0.232,0.309-0.232,0.464  c-0.077,0.155-0.232,0.232-0.309,0.386c-0.155,0.077-3.014-0.232-3.323-0.232c-0.232,0-0.309,0-0.541,0.077  c-3.555,1.932-7.341,3.555-11.282,4.868c-17.155,5.564-33.846,2.55-37.246-6.8c-1.159-3.246-0.85-6.877,0.695-9.891  c1.932-3.864,5.564-7.727,10.2-11.127" fill="#E31837"/>
  <path d="M21.016,31.502c3.941-2.627,8.191-4.714,12.673-6.182c5.177-1.7,10.355-3.632,15.146-3.786  c0.077-0.618,0.077,0.618,0,0c-5.255,0.232-10.509,1.236-15.609,2.936c-4.405,1.391-8.577,3.4-12.441,5.718" fill="#E31837"/>
  <path d="M16.612,32.97c-3.941,2.936-6.955,6.336-8.732,9.737  c-2.009,3.941-2.396,8.268-1.159,11.668c1.855,5.1,6.955,9.35,14.528,10.818c7.418,1.391,17.387,0.773,26.119-2.164  c5.564-1.855,10.741-4.559,15.378-8.114 M63.826,54.066c1.777-1.391,3.4-2.936,4.946-4.636c5.023-5.564,6.491-10.355,4.559-15.532  c-0.773-2.318-2.859-4.25-4.946-5.873c2.627,3.014,3.632,5.1,3.864,6.491c0.773,5.486-2.009,10.896-7.573,15.764 M63.826,50.975  c-0.773,0.618-1.623,1.314-2.473,1.855 M57.412,55.38c-3.555,1.932-7.264,3.555-11.128,4.791  c-17.078,5.641-33.769,2.627-37.169-6.723c-1.159-3.246-0.85-6.877,0.695-9.891c1.932-3.941,5.564-7.805,10.277-11.205   M21.016,31.502c3.941-2.627,8.191-4.714,12.673-6.182c5.177-1.7,10.355-3.632,15.146-3.786c0.077-0.618,0.077,0.618,0,0  c-5.255,0.232-10.509,1.236-15.609,2.936c-4.327,1.391-8.5,3.323-12.364,5.641 M19.471,30.961c-0.232,0.155-0.464,0.232-0.695,0.464  " stroke-width="0.365" stroke="#000000" fill="none"/>
  <path d="M43.658,40.157h-4.791v-2.241h1.005l2.936-7.727H41.88v-2.241h6.646v2.241h-0.927l3.091,7.65h1.082  v2.318h-5.873v-2.318h1.391l-0.464-1.236h-3.864l-0.464,1.236h1.082v2.318H43.658z M46.13,34.67l-1.082-2.782l-1.159,2.782H46.13z" fill="#FFC23C"/>
  <path d="M74.954,51.053c0.155,0,0.232,0,0.232-0.232c0-0.155-0.155-0.155-0.232-0.155h-0.232v0.309h0.232  V51.053z M74.799,51.748h-0.232v-1.159h0.386c0.232,0,0.386,0.077,0.386,0.309c0,0.155-0.155,0.232-0.232,0.309l0,0l0.309,0.464  h-0.232l-0.232-0.386h-0.232L74.799,51.748z M74.954,51.98c0.464,0,0.773-0.309,0.773-0.773s-0.309-0.773-0.773-0.773  s-0.773,0.309-0.773,0.773l0,0C74.181,51.593,74.49,51.98,74.954,51.98C74.876,51.98,74.876,51.98,74.954,51.98 M73.949,51.13  c0-0.541,0.386-1.005,0.927-1.005s1.005,0.386,1.005,0.927c0,0.541-0.386,1.005-0.927,1.005l0,0  C74.413,52.134,73.949,51.748,73.949,51.13C73.949,51.207,73.949,51.13,73.949,51.13" fill="#FFC23C"/>
  <polygon points="28.512,37.607 28.512,31.116 27.816,31.116 27.816,28.952 28.203,28.488 28.203,30.498   29.053,30.498 29.053,37.607 " fill="#E31837"/>
  <polygon points="27.585,41.161 27.585,38.534 28.048,38.225 28.048,40.62 37.476,40.62 37.167,41.161 " fill="#E31837"/>
  <polygon points="34.385,36.448 34.385,37.684 34.926,37.684 34.926,36.061 " fill="#E31837"/>
  <polygon points="32.994,35.443 32.994,35.907 34.539,35.907 34.848,35.443 " fill="#E31837"/>
  <polygon points="32.994,30.961 32.994,30.498 34.926,30.498 34.926,32.429 37.398,32.429 37.167,32.661   34.462,32.661 34.462,30.961 " fill="#E31837"/>
  <polygon points="56.562,41.084 51.849,41.084 51.849,38.148 52.158,38.148 52.158,40.543 56.794,40.543 " fill="#E31837"/>
  <polygon points="52.544,37.607 52.544,30.961 51.462,30.961 51.462,28.72 52.003,28.257 52.003,30.42   53.085,30.42 53.085,37.607 " fill="#E31837"/>
  <polygon points="60.04,41.007 58.34,41.007 56.099,35.443 56.099,34.207 58.649,40.543 60.349,40.543 " fill="#E31837"/>
  <polygon points="61.894,41.007 61.894,38.534 62.358,38.07 62.358,40.543 67.767,40.543 67.458,41.007 " fill="#E31837"/>
  <polygon points="62.976,34.67 62.976,37.53 63.44,37.53 63.44,33.666 " fill="#E31837"/>
  <polygon points="60.04,33.511 59.808,32.97 61.663,28.411 62.126,28.257 " fill="#E31837"/>
  <polygon points="67.149,30.343 67.149,30.884 67.613,30.884 67.767,30.343 " fill="#E31837"/>
  <polygon points="39.021,37.761 41.571,30.961 41.03,30.961 41.03,28.798 41.494,28.411 41.494,30.42   42.421,30.42 39.562,37.761 " fill="#E31837"/>
  <polygon points="38.017,41.161 38.017,38.534 38.48,38.225 38.48,40.62 43.426,40.62 43.194,41.161 " fill="#E31837"/>
  <polygon points="45.28,34.516 44.739,33.125 44.971,32.507 45.821,34.516 " fill="#E31837"/>
  <polygon points="43.039,37.375 43.194,36.834 46.671,36.834 46.98,37.607 46.517,37.607 46.362,37.375 " fill="#E31837"/>
  <polygon points="45.049,41.084 45.049,38.766 45.589,38.225 45.589,40.543 51.54,40.543 51.153,41.084 " fill="#E31837"/>
  <polygon points="18.543,33.279 15.839,33.279 15.839,28.875 16.38,28.488 16.38,32.739 18.853,32.739 " fill="#E31837"/>
  <polygon points="19.703,37.607 19.703,31.116 19.162,31.116 19.162,30.652 20.244,30.652 20.244,37.607 " fill="#E31837"/>
  <polygon points="24.184,33.279 24.184,31.193 23.721,31.193 23.721,30.729 24.725,30.729 24.725,32.739   27.353,32.739 26.966,33.279 " fill="#E31837"/>
  <polygon points="18.389,41.161 18.389,38.998 18.93,38.534 18.93,40.62 24.803,40.62 24.571,41.161 " fill="#E31837"/>
  <polygon points="52.621,51.98 52.621,45.566 51.926,45.566 51.926,43.402 52.312,42.939 52.312,44.948   53.24,44.948 53.24,51.98 " fill="#E31837"/>
  <polygon points="51.694,55.612 51.694,52.984 52.158,52.675 52.158,55.071 61.663,55.071 61.276,55.612 " fill="#E31837"/>
  <polygon points="58.494,50.898 58.494,52.057 59.035,52.057 59.035,50.434 " fill="#E31837"/>
  <polygon points="57.026,49.816 57.026,50.357 58.572,50.357 59.035,49.816 " fill="#E31837"/>
  <polygon points="57.103,45.411 57.103,44.948 59.035,44.948 59.035,46.802 61.508,46.802 61.276,47.112   58.572,47.112 58.572,45.411 " fill="#E31837"/>
  <polygon points="17.384,55.844 10.971,55.844 10.971,53.139 11.512,52.984 11.512,55.303 17.616,55.303 " fill="#E31837"/>
  <polygon points="12.825,52.134 12.13,52.134 12.13,45.643 11.125,45.643 11.125,43.402 11.589,43.016   11.589,45.102 12.825,45.102 " fill="#E31837"/>
  <polygon points="16.843,50.048 16.843,50.512 18.775,50.512 19.007,50.048 " fill="#E31837"/>
  <polygon points="16.843,45.643 16.843,45.102 19.007,45.102 19.007,47.034 21.634,47.034 21.557,47.266   18.466,47.266 18.466,45.643 " fill="#E31837"/>
  <polygon points="27.507,55.766 21.789,55.766 21.789,53.216 22.33,52.753 22.33,55.303 27.894,55.303 " fill="#E31837"/>
  <polygon points="23.721,52.212 23.18,52.212 23.18,45.566 21.944,45.566 21.944,43.093 22.253,42.861   22.253,45.025 23.721,45.025 " fill="#E31837"/>
  <polygon points="27.353,45.025 27.353,45.489 27.816,45.489 28.048,45.025 " fill="#E31837"/>
  <polygon points="31.139,55.766 28.435,55.766 28.435,50.898 28.976,50.434 28.976,55.225 31.448,55.225 " fill="#E31837"/>
  <polygon points="35.93,55.689 31.989,55.689 31.68,55.534 31.68,54.994 32.066,55.225 36.162,55.225 " fill="#E31837"/>
  <polygon points="35.157,52.134 34.617,52.134 34.617,50.666 32.066,50.666 32.066,50.125 30.907,50.125   28.512,47.73 28.512,45.643 29.053,45.257 29.053,47.498 31.526,49.971 35.157,49.971 " fill="#E31837"/>
  <polygon points="32.839,45.489 32.839,44.948 35.544,44.948 35.544,46.416 38.248,46.416 37.939,47.034   36.935,47.034 36.548,46.725 35.003,46.725 35.003,45.489 " fill="#E31837"/>
  <polygon points="43.889,55.612 38.48,55.612 38.48,53.371 38.944,52.753 38.944,55.148 44.276,55.148 " fill="#E31837"/>
  <polygon points="39.485,52.134 39.485,45.643 38.558,45.643 38.558,43.016 38.944,42.63 38.944,44.871   40.026,44.871 40.026,52.134 " fill="#E31837"/>
  <polygon points="50.69,55.612 45.126,55.612 45.126,53.062 45.589,52.521 45.589,55.148 50.999,55.148 " fill="#E31837"/>
  <polygon points="43.735,50.434 43.735,49.971 46.439,49.971 46.439,52.057 45.976,52.057 45.976,50.434 " fill="#E31837"/>
  <polygon points="43.735,44.871 43.735,45.334 44.276,45.334 44.43,44.871 " fill="#E31837"/>
  <polygon points="46.053,47.112 46.053,45.489 45.203,45.489 45.203,42.784 45.667,42.475 45.667,44.871   46.517,44.871 46.517,47.112 " fill="#E31837"/>
  <polygon points="50.38,44.871 50.38,45.411 50.767,45.411 51.076,44.871 " fill="#E31837"/>
  <polygon points="62.435,55.534 62.435,52.83 62.899,52.521 62.899,54.994 73.176,54.994 72.79,55.534 " fill="#E31837"/>
  <polygon points="63.594,52.057 63.594,45.489 62.358,45.489 62.358,42.707 62.822,42.398 62.822,44.871   64.058,44.871 64.058,52.057 " fill="#E31837"/>
  <polygon points="67.458,44.871 67.458,45.334 67.922,45.334 68.076,44.871 " fill="#E31837"/>
  <polygon points="70.085,50.743 70.085,51.98 70.626,51.98 70.626,50.357 " fill="#E31837"/>
  <polygon points="28.435,30.188 28.435,27.948 37.862,27.948 37.862,32.275 35.235,32.275 35.235,30.188   32.685,30.188 32.685,32.893 35.235,32.893 35.235,35.057 32.685,35.057 32.685,37.916 35.235,37.916 35.235,35.752 37.785,35.752   37.785,40.157 28.357,40.157 28.357,37.916 29.362,37.916 29.362,30.188 " fill="#FFC23C"/>
  <polygon points="52.235,40.157 52.235,37.839 53.394,37.839 53.394,30.188 52.235,30.188 52.235,27.948   57.567,27.948 60.04,34.284 62.667,27.87 67.922,27.87 67.922,30.111 66.917,30.111 66.917,37.761 67.999,37.761 67.999,40.08   62.744,40.08 62.744,37.839 63.749,37.839 63.749,32.429 60.581,40.08 58.881,40.08 55.944,33.048 55.944,37.839 57.026,37.839   57.026,40.157 " fill="#FFC23C"/>
  <polygon points="19.239,40.234 19.239,37.916 20.553,37.916 20.553,30.266 19.162,30.266 19.162,32.275   16.766,32.275 16.766,28.025 27.585,28.025 27.585,32.275 25.189,32.275 25.189,30.188 23.721,30.188 23.721,37.916 25.266,37.916   25.266,40.234 " fill="#FFC23C"/>
  <polygon points="52.544,44.561 52.544,42.398 61.894,42.398 61.894,46.725 59.344,46.725 59.344,44.639   56.872,44.639 56.872,47.266 59.344,47.266 59.344,49.507 56.872,49.507 56.872,52.366 59.267,52.366 59.267,50.202 61.817,50.202   61.817,54.607 52.39,54.607 52.39,52.366 53.471,52.366 53.471,44.561 " fill="#FFC23C"/>
  <polygon points="17.925,54.684 11.975,54.684 11.975,52.521 13.212,52.521 13.212,44.716 12.052,44.716   12.052,42.398 21.712,42.398 21.712,46.802 19.393,46.802 19.393,44.716 16.689,44.716 16.689,47.343 19.316,47.343 19.316,49.739   16.689,49.739 16.689,52.443 17.925,52.443 " fill="#FFC23C"/>
  <polygon points="22.562,54.684 22.562,52.443 23.875,52.443 23.875,44.639 22.639,44.639 22.639,42.398   28.28,42.398 28.28,44.716 26.889,44.716 26.889,52.443 28.28,52.443 28.28,54.684 " fill="#FFC23C"/>
  <polygon points="29.285,54.684 29.285,50.28 31.757,50.28 31.757,52.443 35.467,52.443 35.467,49.739   31.68,49.739 29.362,47.189 29.362,44.871 31.989,42.321 35.08,42.321 35.853,43.016 35.853,42.321 38.48,42.321 38.48,46.184   35.853,46.184 35.853,44.716 32.685,44.716 32.685,46.88 36.394,46.88 38.48,48.889 38.48,52.521 36.394,54.684 32.221,54.684   31.68,54.298 31.68,54.684 " fill="#FFC23C"/>
  <polygon points="39.33,54.684 39.33,52.443 40.412,52.443 40.412,44.639 39.253,44.639 39.253,42.321   44.585,42.321 44.585,44.639 43.58,44.639 43.58,47.343 46.903,47.343 46.903,44.639 45.899,44.639 45.899,42.243 51.076,42.243   51.076,44.639 50.226,44.639 50.226,52.366 51.153,52.366 51.153,54.684 45.821,54.684 45.821,52.366 46.903,52.366 46.903,49.739   43.58,49.739 43.58,52.366 44.662,52.366 44.662,54.684 " fill="#FFC23C"/>
  <polygon points="63.208,54.684 63.208,52.443 64.444,52.443 64.444,44.561 63.208,44.561 63.208,42.243   68.231,42.243 68.231,44.561 67.304,44.561 67.304,52.366 71.013,52.366 71.013,50.202 73.254,50.202 73.254,54.684 " fill="#FFC23C"/>
  <polygon points="53.24,16.588 48.912,20.606 53.162,20.297 48.99,21.379 54.167,23.388 48.758,22.229   50.844,25.166 48.217,22.847 50.071,29.338 47.444,23.079 46.362,26.479 46.671,22.925 42.885,27.484 45.899,22.461 42.035,23.543   45.512,21.688 39.098,20.452 45.589,20.838 42.499,18.597 46.053,20.143 43.117,14.347 46.749,19.679 46.362,8.474 47.599,19.602   49.84,15.584 48.371,19.988 " fill="#FFFFFF"/>
  <polygon points="53.24,16.588 48.912,20.606 53.162,20.297 48.99,21.379   54.167,23.388 48.758,22.229 50.844,25.166 48.217,22.847 50.071,29.338 47.444,23.079 46.362,26.479 46.671,22.925 42.885,27.484   45.899,22.461 42.035,23.543 45.512,21.688 39.098,20.452 45.589,20.838 42.499,18.597 46.053,20.143 43.117,14.347 46.749,19.679   46.362,8.474 47.599,19.602 49.84,15.584 48.371,19.988 " stroke-width="0.525" stroke="#000000" fill="none"/>
</svg>