<?xml version="1.0" encoding="utf-8"?>
<!-- Generator: Adobe Illustrator 27.3.1, SVG Export Plug-In . SVG Version: 6.00 Build 0)  -->
<svg version="1.2" baseProfile="tiny-ps" id="Layer_1" xmlns:svg="http://www.w3.org/2000/svg" xmlns="http://www.w3.org/2000/svg" xmlns:xlink="http://www.w3.org/1999/xlink" viewBox="0 0 226.8 226.8" xml:space="preserve">
	<title>CM.com</title>
<g>
	<path class="st0" d="M113.4,13.4c-55.1,0-100,44.9-100,100s44.9,100,100,100s100-44.9,100-100S168.5,13.4,113.4,13.4" fill="#101E1E"/>
	<path class="st1" d="M178.9,134.8c0-4.4,3.6-8,8-8c4.4,0,8,3.6,8,8c0,4.4-3.6,8-8,8C182.5,142.8,178.9,139.2,178.9,134.8" fill="#007FFF"/>
	<path class="st2" d="M71.7,146.9c-18.4,0-33.4-15-33.4-33.4S53.3,80,71.7,80c3.6,0,7.1,0.6,10.5,1.7c3.7,1.2,5.7,5.2,4.5,8.9
		c-1.2,3.7-5.2,5.7-8.9,4.5c-1.9-0.6-4-1-6-1c-10.7,0-19.3,8.7-19.3,19.3s8.7,19.3,19.3,19.3c9.9,0,15.5-5.2,20.2-18.6l10.5-29.5
		c1-2.8,3.6-4.6,6.5-4.7c2.9,0,5.6,1.7,6.7,4.5l12.2,31.4l12.2-31.4c1.1-2.7,3.7-4.5,6.6-4.5c0,0,0.1,0,0.1,0c2.9,0,5.6,1.9,6.5,4.7
		l17.5,48.8c1.3,3.7-0.6,7.7-4.3,9c-3.7,1.3-7.7-0.6-9-4.3l-11.1-31l-12,30.7c-1.1,2.7-3.7,4.5-6.6,4.5l0,0c-2.9,0-5.5-1.8-6.6-4.5
		l-11.9-30.6l-4.1,11.6C101.1,130.9,93,146.9,71.7,146.9" fill="#FFFFFF"/>
</g>
</svg>

