<?xml version="1.0"?><svg version="1.2" baseProfile="tiny-ps" viewBox="0 0 116 116" xmlns="http://www.w3.org/2000/svg" xmlns:xlink="http://www.w3.org/1999/xlink"><title>Amgen</title><g><g fill="#fefeff" transform="matrix(.1 0 0 -.1 0 116)"><path d="M0 580V0h1160v1160H0V580z"/></g><g fill="#dae4f4" transform="matrix(.1 0 0 -.1 0 116)"><path d="M461 1115c-82-18-173-62-239-115l-52-42-45-63-45-62-26-69-26-69-5-90-5-90 16-69 16-69 36-67c19-37 46-78 59-90l24-23 5 14c3 8 20 54 37 104 50 142 115 283 172 373l53 83 64 65c101 103 200 159 321 185 27 6 49 14 49 18 0 14-117 61-187 76-83 18-138 18-222 0zm519-547 1-373 30 35c39 46 85 140 104 215l15 59v131l-15 63c-8 34-24 82-36 105-27 55-82 137-91 137h-8V568zM688 720c-26-17-57-45-70-63-34-44-78-121-78-135v-12h200v120c0 66-1 120-3 120s-24-14-49-30zM417 263c-3-10-16-60-30-110l-25-93 6-4c4-2 31-11 61-20l55-16h181l38 11 37 10v239H422l-5-17z"/></g><g fill="#b1c6e8" transform="matrix(.1 0 0 -.1 0 116)"><path d="M430 1105c-107-30-165-66-253-153l-59-57-38-80-39-80-12-69-12-69 6-73 7-73 24-66c23-60 86-168 106-180l8-5 18 52c51 157 147 368 207 458 111 165 248 268 410 309l71 19-49 25c-28 13-74 32-104 41l-55 16-95-1-96-1-45-13zm550-527V210h9c11 0 51 60 86 129l27 53 14 67c7 36 14 89 14 117v51l-20 77-20 77-26 49c-15 27-39 64-55 82l-28 33-1-367zM694 722c-53-39-99-93-129-152-14-27-25-52-25-55s45-5 100-5h100v120c0 66-2 120-3 120-2 0-22-13-43-28zM419 253c-6-16-20-63-31-106l-21-78 10-10c6-6 37-17 70-25l58-14h67c37 0 90 5 118 11l50 11v238H430l-11-27z"/></g><g fill="#81a2d9" transform="matrix(.1 0 0 -.1 0 116)"><path d="M431 1104c-30-8-81-29-115-46l-61-32-70-71-71-70-32-67-33-67-14-68C10 568 19 481 64 368c24-59 85-158 97-158 4 0 21 42 39 92 50 141 123 301 176 386l48 77 81 81 80 81 85 41c47 23 109 48 138 54 28 7 52 16 52 19 0 10-118 57-170 69-25 5-81 9-125 9h-80l-54-15zm549-534V210h8c13 0 73 96 97 157l24 59 11 72 12 72-12 72-11 72-23 57c-26 65-84 159-97 159h-9V570zM682 710c-44-32-91-90-123-153l-20-37 14-6c8-3 52-4 98-2l84 3 3 113 3 112h-9c-5 0-28-14-50-30zM427 273c-3-5-17-52-32-106l-26-97 6-9c8-14 138-41 198-41 29 0 79 5 110 11l57 12v237H431l-4-7z"/></g><g fill="#4979c8" transform="matrix(.1 0 0 -.1 0 116)"><path d="M440 1105c-30-8-84-30-120-48l-65-32-65-65-65-65-32-60c-17-33-39-87-48-120l-18-59V505l12-55c17-70 62-165 98-209l29-34 28 84c37 109 112 279 167 376l44 77 81 85 82 86 56 34c65 39 175 81 214 81h27l-25 20c-14 10-54 29-90 41l-65 21-95 4-95 4-55-15zm550-529V218l15 12c8 7 33 48 54 91l39 78 12 57 12 58-5 90-4 91-19 54c-10 30-37 84-61 120l-43 66V576zM676 702l-49-37-38-64c-22-36-39-68-39-73v-8h190v220h-7c-5 0-30-17-57-38zM427 263c-3-5-15-44-27-88s-24-88-26-97l-5-17 53-16c29-8 85-18 123-21l70-5 60 13 60 13 3 113 3 112H431l-4-7z"/></g><g fill="#2961be" transform="matrix(.1 0 0 -.1 0 116)"><path d="m460 1104-65-14-70-34-70-35-51-48c-66-64-104-122-139-208l-28-70-5-95-4-95 17-64c18-72 43-124 88-190l30-44 37 104c149 421 309 620 570 706l84 27-52 24c-62 28-171 52-232 51-25 0-74-7-110-15zm530-533V216l26 35c63 83 104 209 104 322v62l-15 63c-15 64-59 158-94 202l-21 25V571zM715 728c-37-20-87-73-126-132-22-33-39-63-39-68v-8h179l3 110c2 61 3 110 3 110s-9-6-20-12zM416 223c-8-27-21-74-29-105l-15-56 63-17 63-17 107 4 107 4 12 15 11 16-3 101-3 102H432l-16-47z"/></g></g></svg>