<?xml version="1.0" encoding="utf-8"?>
<!-- Generator: Adobe Illustrator 28.1.0, SVG Export Plug-In . SVG Version: 6.00 Build 0)  -->
<svg version="1.2" baseProfile="tiny-ps" id="Logomark" xmlns="http://www.w3.org/2000/svg" xmlns:xlink="http://www.w3.org/1999/xlink"
	  viewBox="0 0 400 400" xml:space="preserve">
	<title>Times Internet Limited</title>
<g>
	<path fill="#1F1E4F" stroke="#231F20" stroke-miterlimit="10" d="M204.54,165.95c-7.01-1.91-15.03-2.45-14.36-7.39
		c0.67-4.94,9.2-3.28,11.02-2.77c1.82,0.51,5.19,1.5,9.11,4.14l6.53-9.24c0,0-6.56-6.08-19.78-6.46
		c-13.22-0.38-19.2,7.17-20.1,13.73c-0.89,6.56,1.72,11.5,6.27,13.92c4.55,2.42,8.5,3.34,11.59,4.08c3.09,0.73,7.32,1.56,9.08,3.25
		c1.75,1.69,1.24,3.47,0.6,4.62c-0.64,1.15-2.48,2.26-6.62,2.17c-4.14-0.1-8.22-1.5-9.87-2.29c-1.66-0.8-5-2.64-6.15-3.69
		l-7.33,8.69c0,0,3.92,3.5,9.01,5.45c5.1,1.94,11.38,3.09,17.36,2.55c5.98-0.54,11.88-2.39,15.6-8.34c0,0,3.06-5,1.66-11.15
		C216.77,171.05,211.55,167.86,204.54,165.95"/>
	<rect x="47.7" y="145.5" fill="#1F1E4F" stroke="#231F20" stroke-miterlimit="10" width="12.03" height="50.08"/>
	<polygon fill="#1F1E4F" stroke="#231F20" stroke-miterlimit="10" points="37.98,145.5 33.44,145.5 27.86,145.5 11.81,145.5 
		11.81,157.53 27.86,157.53 27.86,195.58 39.89,195.58 39.89,145.5 	"/>
	<polygon fill="#1F1E4F" stroke="#231F20" stroke-miterlimit="10" points="109.05,145.5 107.64,145.5 107.65,145.53 107.61,145.5 
		94.38,166.91 81.15,145.5 81.14,145.51 81.14,145.5 79.58,145.5 78.91,145.5 67.55,145.5 67.55,195.56 79.58,195.56 79.58,165.85 
		87.31,178.36 87.3,178.38 94.36,189.89 104.3,173.72 104.3,173.74 109.05,166.07 109.05,195.56 121.08,195.56 121.08,145.5 
		110.61,145.5 	"/>
	<polygon fill="#1F1E4F" stroke="#231F20" stroke-miterlimit="10" points="164.85,183.52 140.92,183.52 140.92,176.42 
		166.28,176.42 166.28,164.39 140.92,164.39 140.92,157.38 168.35,157.38 168.35,145.34 140.92,145.34 128.89,145.34 128.89,195.56 
		130.33,195.56 140.52,195.56 140.92,195.56 168.81,195.56 169.24,195.56 169.24,187.29 169.24,185.14 169.24,183.52 168.81,183.52 
			"/>
	<polygon fill="#1F1E4F" stroke="#231F20" stroke-miterlimit="10" points="103.1,201.96 103.1,202.12 103.1,212.53 103.1,213.99 
		103.3,213.99 103.3,214.02 119.26,214.02 119.26,252.18 131.29,252.18 131.29,252.07 131.38,252.07 131.38,213.99 147.09,213.99 
		147.09,201.96 	"/>
	<rect x="27.79" y="202.12" fill="#1F1E4F" stroke="#231F20" stroke-miterlimit="10" width="12.03" height="50.08"/>
	<polygon fill="#1F1E4F" stroke="#231F20" stroke-miterlimit="10" points="370.61,201.99 365.03,201.99 360.49,201.99 
		358.58,201.99 358.58,252.07 370.61,252.07 370.61,214.02 386.66,214.02 386.66,201.99 	"/>
	<polygon fill="#1F1E4F" stroke="#231F20" stroke-miterlimit="10" points="83.25,202.12 83.25,232.54 59.67,202.13 59.67,202.13 
		59.67,202.12 47.64,202.12 47.64,252.18 59.67,252.18 59.67,221.76 83.25,252.18 95.28,252.18 95.28,202.12 	"/>
	<polygon fill="#1F1E4F" stroke="#231F20" stroke-miterlimit="10" points="290.56,202.12 290.56,232.54 266.98,202.13 
		266.98,202.13 266.98,202.12 254.95,202.12 254.95,252.18 266.98,252.18 266.98,221.76 290.56,252.18 302.59,252.18 302.59,202.12 
			"/>
	<path fill="#1F1E4F" stroke="#231F20" stroke-miterlimit="10" d="M229.06,227.02H215.1v-12.87h14.44c1.91,0.15,5.48,1.12,5.48,6.28
		C235.01,225.49,231.2,226.73,229.06,227.02 M247.08,218.78c0-17.06-18.05-16.66-18.05-16.66h-0.26h-4.86h-8.82h-12.03v50.06h12.03
		v-13.12h9.9l8.66,13.12h14.42l-11.82-17.9C248.49,229.15,247.08,218.78,247.08,218.78"/>
	<polygon fill="#1F1E4F" stroke="#231F20" stroke-miterlimit="10" points="166.93,201.96 154.9,201.96 154.9,252.18 156.34,252.18 
		166.53,252.18 166.93,252.18 194.82,252.18 195.25,252.18 195.25,243.91 195.25,241.76 195.25,240.14 194.82,240.14 190.86,240.14 
		166.93,240.14 166.93,233.04 192.29,233.04 192.29,221.01 166.93,221.01 166.93,213.99 194.36,213.99 194.36,201.96 	"/>
	<polygon fill="#1F1E4F" stroke="#231F20" stroke-miterlimit="10" points="322.44,201.96 310.41,201.96 310.41,252.18 
		311.84,252.18 322.03,252.18 322.44,252.18 350.32,252.18 350.76,252.18 350.76,243.91 350.76,241.76 350.76,240.14 350.32,240.14 
		346.36,240.14 322.44,240.14 322.44,233.04 347.8,233.04 347.8,221.01 322.44,221.01 322.44,213.99 349.87,213.99 349.87,201.96 	
		"/>
</g>
<text transform="matrix(0 -1 1 0 1656.6648 521.2372)" fill="#1E1F4E" font-family="'Lato-Regular'" font-size="25px">LOGO  VARIATIONS</text>
</svg>
