<svg xmlns="http://www.w3.org/2000/svg" xmlns:xlink="http://www.w3.org/1999/xlink" version="1.2" viewBox="0 0 1024 1024" baseProfile="tiny-ps">
  <title>kyte_logo_diamond</title>
  <rect width="1024" height="1024" fill="#002809"/>
  <path d="M683.989,432.493c-17.428,9.951-30.109,24.406-39.035,42.49  c-0.301,0.709-0.602,1.394-0.899,2.065c-0.573,1.302-1.125,2.555-1.608,3.834c-8.403,22.261-9.05,44.967-3.861,68.005  c0.024,0.105,0.05,0.213,0.075,0.321c0.167,0.707,0.345,1.461,0.183,2.104c-1.658,6.56-4.434,12.572-9.468,17.247  c-9.417,8.748-24.553,8.172-34.358-1.319c-7.908-7.655-10.874-17.441-10.957-28.068c-0.145-18.448-0.124-36.897-0.102-55.346  c0.007-6.8,0.015-13.601,0.015-20.401c0-0.359,0.059-0.719,0.124-1.123c0.034-0.203,0.069-0.417,0.099-0.647h42.921v-41.233h-43.229  v-56.825h-48.038v56.649c-1.158,0.113-2.298,0.198-3.422,0.282c-2.378,0.178-4.685,0.35-6.949,0.765  c-27.472,5.039-45.999,20.955-54.956,47.194c-8.401,24.612-16.431,49.351-24.46,74.089c-3.48,10.724-6.96,21.447-10.471,32.16  c-0.165,0.505-0.348,1.003-0.538,1.52c-0.09,0.247-0.183,0.498-0.275,0.755c-0.809-0.179-1.592-0.336-2.352-0.488  c-1.584-0.318-3.072-0.616-4.514-1.065c-10.035-3.131-18.413-8.442-21.885-18.953c-9.543-28.893-18.992-57.816-28.44-86.74  c-3.522-10.779-7.043-21.558-10.569-32.335c-1.269-3.879-2.538-7.758-3.799-11.617c-0.578-1.765-1.153-3.526-1.727-5.281  c-4.543,0-9.059-0.023-13.555-0.045c-9.974-0.049-19.854-0.098-29.728,0.098c-22.004,0.437-40.781,8.791-56.161,24.435  c-9.396,9.557-18.676,19.228-27.957,28.899c-5.83,6.076-11.659,12.151-17.518,18.198c-1.756,1.812-3.651,3.49-5.532,5.155  c-0.865,0.766-1.726,1.529-2.57,2.301l1.142-137.949h-48.99v259.273h48.961c0-0.187,0-0.365-0.001-0.537  c-0.002-0.349-0.004-0.672,0.003-0.994c0.073-3.704,0.149-7.409,0.225-11.113c0.236-11.534,0.471-23.068,0.646-34.603  c0.029-1.892,0.574-3.241,1.911-4.585c2.456-2.469,4.831-5.017,7.207-7.566c1.089-1.168,2.178-2.336,3.275-3.497  c4.183-4.426,8.369-8.848,12.581-13.297c1.773-1.873,3.551-3.75,5.334-5.635c0.182,0.261,0.358,0.508,0.527,0.747  c0.347,0.489,0.669,0.943,0.973,1.409c1.982,3.025,3.963,6.05,5.944,9.076c15.016,22.929,30.033,45.858,45.011,68.811  c0.855,1.309,1.67,1.939,3.338,1.932c13.993-0.056,27.987-0.051,41.981-0.047c3.839,0.001,7.678,0.003,11.517,0.003h2.035  l-77.807-119.089c2.291-2.417,4.546-4.842,6.792-7.257c5.079-5.46,10.112-10.87,15.393-16.025  c7.991-7.8,17.825-12.285,28.965-14.102c0.079,0.215,0.154,0.416,0.226,0.609c0.146,0.39,0.279,0.747,0.398,1.108  c2.825,8.626,5.645,17.254,8.465,25.883c6.801,20.811,13.602,41.622,20.484,62.406c0.665,2.009,1.321,4.023,1.977,6.037  c2.947,9.048,5.9,18.113,9.703,26.794c7.25,16.552,19.4,28.495,36.885,34.252c3.417,1.125,6.94,1.927,10.494,2.735  c1.639,0.373,3.284,0.747,4.929,1.155l-28.095,85.88h51.335c0.086-0.255,0.172-0.507,0.257-0.758c0.181-0.531,0.359-1.055,0.53-1.58  c1.833-5.626,3.667-11.251,5.501-16.876c4.626-14.19,9.252-28.379,13.865-42.572c7.09-21.814,14.174-43.63,21.258-65.446  c6.02-18.539,12.041-37.078,18.064-55.616c1.02-3.139,2.039-6.278,3.058-9.417c4.056-12.498,8.112-24.996,12.233-37.473  c2.994-9.063,9.971-13.628,18.913-16.464v3.081c0,6.04,0,12.08-0.001,18.12c0,13.876,0,27.752,0.002,41.628  c0.002,18.82,2.394,37.193,10.609,54.393c7.29,15.262,18.186,27.192,34.063,33.493c26.08,10.35,49.758,4.974,70.985-12.595  c2.724-2.255,5.106-4.924,7.486-7.593c1.098-1.231,2.196-2.462,3.328-3.651c33.848,37.696,107.373,39.321,139.944,2.11  l-31.022-31.863c-5.068,4.999-10.657,8.806-17.132,11.289c-8.895,3.412-18.082,3.484-27.333,2.346  c-12.092-1.487-23.127-5.433-31.717-14.579c-4.998-5.321-8.188-11.592-9.867-18.978h139.15c0.06-0.261,0.119-0.498,0.175-0.719  c0.108-0.433,0.202-0.807,0.255-1.187c2.088-14.785,2.337-29.547-0.869-44.216c-5.753-26.324-19.762-47.161-42.105-62.203  c-12.347-8.312-26.267-12.283-41.041-13.271C720.815,419.452,701.615,422.428,683.989,432.493z M721.298,464.708  c12.423-2.448,24.6-0.9,36.314,5.887c0.047,0.031-0.047-0.031,0,0c-0.004-0.002,0.078,0.051,0,0  c9.766,6.328,15.877,15.133,19.235,25.706c0.48,1.511,0.907,3.06,1.284,4.645h-94.154c0.261-1.697,0.655-3.415,1.175-5.133  c3.642-12.025,13.472-24.041,27.457-28.77c0.965-0.327,1.928-0.631,2.89-0.912C717.438,465.563,719.371,465.087,721.298,464.708z" fill="#FEFEFE" fill-rule="evenodd"/>
  <rect x="846.941" y="566.527" transform="matrix(0.7071 -0.7071 0.7071 0.7071 -162.0587 787.8096)" width="46" height="46" fill="#20D14F"/>
</svg>
