<?xml version="1.0" encoding="UTF-8" standalone="yes"?>
<svg version="1.2" baseProfile="tiny-ps" viewBox="0 0 2400 2400" xml:space="preserve" xmlns="http://www.w3.org/2000/svg">
  <title>LB GLOBAL</title>
  <rect fill="#FFFFFF" width="2400" height="2400"/>
  <path d="M225,1124h33.5v121.2h62.1v30.9H225V1124z"/>
  <path d="M361.8,1124h103.3v30.9h-69.8v28.3h65.9v30.9h-65.9v30.9H469v30.9H361.8L361.8,1124L361.8,1124z"/>
  <path d="M592.5,1161.1c-2.7-3.4-6.4-6-11.1-7.6c-4.7-1.6-9.1-2.5-13.2-2.5c-2.4,0-4.9,0.3-7.5,0.9c-2.6,0.6-5,1.5-7.3,2.7&#xA;&#x9;c-2.3,1.2-4.2,2.8-5.6,4.8c-1.4,2-2.1,4.4-2.1,7.3c0,4.6,1.7,8.1,5.2,10.5c3.4,2.4,7.8,4.5,13,6.2c5.2,1.7,10.9,3.4,16.9,5.2&#xA;&#x9;c6,1.7,11.6,4.2,16.9,7.3c5.2,3.2,9.6,7.4,13,12.7c3.4,5.3,5.2,12.4,5.2,21.3s-1.6,15.8-4.7,22.1c-3.2,6.3-7.4,11.5-12.8,15.7&#xA;&#x9;c-5.4,4.2-11.6,7.2-18.7,9.2c-7.1,2-14.6,3-22.5,3c-9.9,0-19-1.5-27.5-4.5c-8.4-3-16.3-7.9-23.6-14.6l23.8-26.2&#xA;&#x9;c3.4,4.6,7.8,8.1,13,10.6c5.2,2.5,10.6,3.8,16.2,3.8c2.7,0,5.5-0.3,8.3-1c2.8-0.6,5.3-1.6,7.5-2.9c2.2-1.3,4-2.9,5.4-4.9&#xA;&#x9;c1.4-2,2-4.4,2-7.1c0-4.6-1.8-8.2-5.3-10.8c-3.5-2.7-7.9-4.9-13.2-6.8c-5.3-1.9-11-3.7-17.2-5.6c-6.2-1.9-11.9-4.4-17.2-7.5&#xA;&#x9;c-5.3-3.2-9.7-7.3-13.2-12.5c-3.5-5.1-5.3-12-5.3-20.4c0-8.5,1.6-15.3,4.8-21.5c3.2-6.2,7.5-11.3,12.9-15.5&#xA;&#x9;c5.4-4.2,11.6-7.3,18.6-9.3c7-2.1,14.2-3.1,21.7-3.1c8.6,0,16.9,1.2,24.9,3.7c8,2.4,15.2,6.5,21.7,12.2L592.5,1161.1L592.5,1161.1z"/>
  <path d="M747.2,1124h56.7c6.6,0,13.2,0.5,19.9,1.4c6.7,0.9,12.6,2.8,17.9,5.6c5.3,2.8,9.6,6.7,12.9,11.7c3.3,5,4.9,11.7,4.9,20&#xA;&#x9;c0,8.3-2.4,15.7-7.2,21.4c-4.8,5.7-11.1,9.7-19,12.1v0.4c5,0.7,9.6,2.1,13.6,4.2c4.1,2.1,7.6,4.7,10.5,7.9c2.9,3.2,5.2,7,6.8,11.3&#xA;&#x9;c1.6,4.3,2.4,8.9,2.4,13.8c0,8-1.7,14.7-5.2,20.1c-3.4,5.4-7.9,9.7-13.3,13c-5.4,3.3-11.6,5.7-18.4,7.1c-6.8,1.4-13.6,2.1-20.3,2.1&#xA;&#x9;h-62.3L747.2,1124L747.2,1124z M780.7,1184.8H805c2.6,0,5.1-0.3,7.6-0.9c2.5-0.6,4.8-1.5,6.8-2.8c2-1.3,3.6-3,4.8-5.2&#xA;&#x9;c1.2-2.1,1.8-4.7,1.8-7.7s-0.7-5.8-2-7.8c-1.4-2.1-3.1-3.7-5.3-4.8c-2.2-1.1-4.6-2-7.3-2.5s-5.4-0.8-8-0.8h-22.8L780.7,1184.8&#xA;&#x9;L780.7,1184.8z M780.7,1247.7h30.1c2.6,0,5.2-0.3,7.8-0.9c2.7-0.6,5-1.6,7.2-3c2.2-1.4,3.9-3.3,5.3-5.6s2-5.1,2-8.4&#xA;&#x9;c0-3.6-0.9-6.5-2.7-8.7c-1.8-2.2-4-3.9-6.8-5.1c-2.7-1.1-5.7-1.9-8.8-2.4s-6.1-0.6-8.8-0.6h-25.3L780.7,1247.7L780.7,1247.7z"/>
  <path d="M909.2,1124h103.3v30.9h-69.8v28.3h66v30.9h-66v30.9h73.7v30.9H909.2V1124z"/>
  <path d="M1064.7,1124h45.5l64.7,105.7h0.4V1124h33.5V1276H1165l-66.4-108.3h-0.4V1276h-33.5V1124z"/>
  <path d="M1339.8,1225.1c0,7-0.6,13.8-1.8,20.4c-1.2,6.6-3.5,12.4-7,17.5c-3.4,5.1-8.3,9.2-14.7,12.2c-6.4,3.1-14.7,4.6-25,4.6&#xA;&#x9;c-12,0-22.2-2.9-30.5-8.6c-8.3-5.7-13.7-14.7-16.1-26.9l30.7-7.5c0.4,3.7,2.1,6.9,5.1,9.5c2.9,2.6,6.3,3.9,10,3.9s6.9-1,9-2.9&#xA;&#x9;s3.7-4.3,4.7-7.2c1-2.9,1.6-6,1.8-9.3c0.2-3.4,0.3-6.5,0.3-9.3V1124h33.5L1339.8,1225.1L1339.8,1225.1z"/>
  <path d="M1440.2,1124h27.7L1534,1276h-37.8l-13.1-32.2H1424l-12.7,32.2h-36.9C1374.4,1276,1440.2,1124,1440.2,1124z M1453,1168.2&#xA;&#x9;l-18.5,47.3h37.2L1453,1168.2L1453,1168.2z"/>
  <path d="M1570.8,1124h50.7l35,99.2h0.4l35.2-99.2h50.5V1276h-33.5v-116.6h-0.4l-39.9,116.6h-25.6l-38.4-116.6h-0.4V1276h-33.5&#xA;&#x9;L1570.8,1124L1570.8,1124z"/>
  <path d="M1794.6,1124h33.5V1276h-33.5V1124z"/>
  <path d="M1880.1,1124h45.5l64.7,105.7h0.4V1124h33.5V1276h-43.8l-66.4-108.3h-0.4V1276h-33.5L1880.1,1124L1880.1,1124z"/>
  <path d="M2151.8,1161.1c-2.7-3.4-6.4-6-11.1-7.6c-4.7-1.6-9.1-2.5-13.2-2.5c-2.4,0-4.9,0.3-7.5,0.9c-2.6,0.6-5,1.5-7.3,2.7&#xA;&#x9;c-2.3,1.2-4.2,2.8-5.6,4.8c-1.4,2-2.1,4.4-2.1,7.3c0,4.6,1.7,8.1,5.1,10.5c3.4,2.4,7.8,4.5,13,6.2c5.2,1.7,10.9,3.4,16.9,5.2&#xA;&#x9;c6,1.7,11.6,4.2,16.9,7.3c5.2,3.2,9.6,7.4,13,12.7c3.4,5.3,5.1,12.4,5.1,21.3s-1.6,15.8-4.7,22.1c-3.1,6.3-7.4,11.5-12.8,15.7&#xA;&#x9;c-5.4,4.2-11.6,7.2-18.7,9.2c-7.1,2-14.6,3-22.4,3c-9.9,0-19.1-1.5-27.5-4.5s-16.3-7.9-23.6-14.6l23.8-26.2c3.4,4.6,7.8,8.1,13,10.6&#xA;&#x9;c5.2,2.5,10.6,3.8,16.2,3.8c2.7,0,5.5-0.3,8.3-1c2.8-0.6,5.3-1.6,7.5-2.9c2.2-1.3,4-2.9,5.4-4.9c1.4-2,2-4.4,2-7.1&#xA;&#x9;c0-4.6-1.8-8.2-5.3-10.8c-3.5-2.7-7.9-4.9-13.2-6.8c-5.3-1.9-11-3.7-17.2-5.6c-6.2-1.9-11.9-4.4-17.2-7.5&#xA;&#x9;c-5.3-3.2-9.7-7.3-13.2-12.5c-3.5-5.1-5.3-12-5.3-20.4c0-8.5,1.6-15.3,4.8-21.5c3.2-6.2,7.5-11.3,12.9-15.5&#xA;&#x9;c5.4-4.2,11.6-7.3,18.6-9.3c7-2.1,14.2-3.1,21.7-3.1c8.6,0,16.9,1.2,24.9,3.7c8,2.4,15.2,6.5,21.7,12.2L2151.8,1161.1L2151.8,1161.1&#xA;&#x9;z"/>
</svg>