<?xml version="1.0" encoding="UTF-8" standalone="yes"?><svg xmlns="http://www.w3.org/2000/svg" version="1.2" viewBox="0 0 348.6 348.6" baseProfile="tiny-ps"><title>ib-square-tinysvgps</title><defs></defs><g id="Layer_1-2"><g><path d="M85.2,187.7c1.6,2.1,3.9,3.5,7,4.6,2.7.9,5.7,1.3,9.3,1.2,2.3,0,5.4-.2,8.4-1.1,4.8-1.5,7.3-4.4,7.6-8.7.3-3.5-.9-6-3.6-7.7-1.6-1-3.4-1.8-5.4-2.2-2.6-.6-5.2-1.1-7.7-1.6-1.4-.3-2.7-.5-4.1-.8h-.4c-1.8-.5-3.7-.9-5.5-1.7-1.3-.6-2.3-1.7-2.7-3-.4-1.4,0-2.9.7-4.1,1.3-1.9,3.2-2.6,4.6-3,1.3-.3,2.5-.6,3.8-.7,3.4-.3,6.1,0,8.5.5,3.8,1.1,6.1,3.4,7,6.8.2.8.3,1.6.4,2.4,0,.2,0,.3,0,.5h3.7c0-2.7-.7-5-1.8-7-1.8-3.1-4.7-5-8.8-6.1-3-.7-6.2-.9-10-.4-2.6.3-4.8.9-6.8,2-2.2,1.2-3.6,2.7-4.4,4.6-1.5,3.6-1,8.3,3.6,10.4,1.7.8,3.4,1.3,5.1,1.7,2.2.5,4.4.9,6.6,1.3,1.5.3,3,.6,4.5.9,2,.4,4.1.9,6.1,2,2,1,2.6,2.5,2.8,3.6.3,1.6-.2,3.4-1.3,4.7-1.7,1.9-3.9,2.6-5.7,3-2.3.5-4.8.7-8.1.5-2.5,0-4.5-.5-6.3-1.3-3.1-1.3-5-3.5-5.6-6.5,0-.5-.2-1.1-.2-1.6h0c0-.1-3.8-.1-3.8-.1,0,.3,0,.6,0,.9.3,2.3,1,4.3,2.3,6Z"></path><path d="M273.4,187.7c1.6,2.1,3.9,3.5,7,4.6,2.7.9,5.7,1.3,9.3,1.2,2.3,0,5.4-.2,8.4-1.1,4.8-1.5,7.3-4.4,7.6-8.7.3-3.5-.9-6-3.6-7.7-1.6-1-3.4-1.8-5.4-2.2-2.6-.6-5.2-1.1-7.7-1.6-1.4-.3-2.7-.5-4.1-.8h-.4c-1.8-.5-3.7-.9-5.5-1.7-1.3-.6-2.3-1.7-2.7-3-.4-1.4-.1-2.9.7-4.1,1.3-1.9,3.2-2.6,4.6-3,1.3-.3,2.5-.6,3.8-.7,3.4-.3,6.1,0,8.5.5,3.8,1.1,6.1,3.4,7,6.8.2.8.3,1.6.4,2.4,0,.2,0,.3.1.5h3.7c-.1-2.7-.7-5-1.8-7-1.8-3.1-4.7-5-8.8-6.1-3-.7-6.2-.9-10-.4-2.6.3-4.8.9-6.8,2-2.2,1.2-3.6,2.7-4.4,4.6-1.5,3.6-1,8.3,3.6,10.4,1.7.8,3.4,1.3,5.1,1.7,2.2.5,4.4.9,6.6,1.3,1.5.3,3,.6,4.5.9,2,.4,4.1.9,6.1,2,2,1,2.6,2.5,2.8,3.6.3,1.6-.2,3.4-1.3,4.7-1.7,1.9-3.9,2.6-5.7,3-2.3.5-4.8.7-8.1.5-2.5,0-4.5-.5-6.3-1.3-3.1-1.3-5-3.5-5.6-6.5-.1-.5-.2-1.1-.2-1.6h0c0-.1-3.8-.1-3.8-.1,0,.3,0,.6.1.9.2,2.3,1,4.3,2.3,6Z"></path><polygon points="20 159.8 36.4 159.8 36.4 156.2 0 156.2 0 159.8 16.4 159.8 16.4 188.8 0 188.8 0 192.5 36.4 192.5 36.4 188.8 20 188.8 20 159.8"></polygon><polygon points="74.6 156.2 74.6 187.2 45.4 156.2 41.8 156.2 41.8 192.5 45.4 192.5 45.4 161.5 74.6 192.5 78.2 192.5 78.2 156.2 74.6 156.2"></polygon><path d="M253.9,156.2h-7.3l-14.5,36.4h3.9l4.4-11.1h19.6l4.4,11.1h3.9l-14.4-36.4ZM242,177.8l7.2-18h2.3l7.2,18h-16.7Z"></path><polygon points="119.9 156.2 119.9 159.8 136.3 159.8 136.3 192.5 139.9 192.5 139.9 159.8 156.3 159.8 156.3 156.2 119.9 156.2"></polygon><path d="M188.5,192.5l-14.4-36.3h-7.2l-14.4,36.4h3.9l4.4-11.1h19.4l4.4,11.1h3.9ZM162.2,177.8l7.1-18h2.3l7.1,18h-16.5Z"></path><path d="M227.4,176.2c-.7-.8-1.5-1.6-2.5-2.1.6-.4,1.1-.9,1.5-1.5,1.4-1.7,2.3-3.9,2.3-6.4s-.9-4.6-2.3-6.4c-1.8-2.2-4.6-3.6-7.7-3.6h-25.5v36.4h26.4c3.1,0,5.9-1.4,7.7-3.6,1.4-1.7,2.3-3.9,2.3-6.4.1-2.5-.8-4.7-2.2-6.4ZM196.9,159.8h21.8c3.5,0,6.4,2.9,6.4,6.4s-2.6,6.1-6,6.4h-22.2v-12.8ZM220.1,188.8h-23.1v-12.7h22.7c3.5,0,6.4,2.9,6.4,6.4,0,3.3-2.7,6.1-6,6.3Z"></path><polygon points="315.9 188.8 315.9 176.2 345 176.2 345 172.6 315.9 172.6 315.9 159.8 346.8 159.8 346.8 156.2 312.3 156.2 312.3 192.5 348.6 192.5 348.6 188.8 315.9 188.8"></polygon></g></g></svg>