<?xml version="1.0" encoding="utf-8"?>
<!-- Generator: Adobe Illustrator 27.4.1, SVG Export Plug-In . SVG Version: 6.00 Build 0)  -->
<svg version="1.2" baseProfile="tiny-ps" id="Layer_1" xmlns="http://www.w3.org/2000/svg" xmlns:xlink="http://www.w3.org/1999/xlink"
	 viewBox="0 0 200 200" xml:space="preserve">
<title>Wyze Logo</title>
<desc>Wyze Logo White on Purple Background</desc>
<rect fill="#4E2FD2" width="200" height="200"/>
<path fill-rule="evenodd" fill="#FFFFFF" d="M42.6,81.7h-6.7l6.7,14.2l-5.9,12.3L24.1,81.7h-6.7l17.2,36.6h4.2l7.1-15.1l7.1,15.1
	h4.2l17.2-36.6h-6.7l-12.6,26.8L42.6,81.7L42.6,81.7z"/>
<path fill-rule="evenodd" fill="#FFFFFF" d="M106.2,81.7l-11.5,18.4L83.2,81.7h-7.1l15.7,24.9v11.5h6.1v-11.5l15.5-24.9
	C113.3,81.7,106.2,81.7,106.2,81.7z"/>
<path fill-rule="evenodd" fill="#FFFFFF" d="M150.7,118.3h31.8V112h-31.8V118.3z"/>
<path fill-rule="evenodd" fill="#FFFFFF" d="M150.7,88h31.8v-6.3h-31.8V88z"/>
<path fill-rule="evenodd" fill="#FFFFFF" d="M150.7,103h31.8v-6.3h-31.8V103z"/>
<path fill-rule="evenodd" fill="#FFFFFF" d="M115.2,81.7v6.1h20.9l-23.4,30.6h34.1v-6.1h-21.6l23.6-30.6H115.2L115.2,81.7z"/>
</svg>