<?xml version="1.0" encoding="UTF-8"?>
<svg id="Layer_1" xmlns="http://www.w3.org/2000/svg" baseProfile="tiny-ps" version="1.2" viewBox="0 0 80 80">
	<title>AbbVie</title>
  <!-- Generator: Adobe Illustrator 29.0.0, SVG Export Plug-In . SVG Version: 2.1.0 Build 186)  -->
  <rect width="80" height="80" fill="#071d49"/>
  <path d="M72.2,45.2c0-.7-.4-.9-1.1-.9h-4.8c-2.3,0-2.9-1.4-3.1-2.3h6.6c2,0,2.6-1.4,2.6-2.4s-.6-2.4-2.6-2.4h-3.6c-3.4,0-4.5,2.3-4.5,4.2s1.3,4.2,4.5,4.2h6v-.4ZM66.4,38.5h3.1c1.1,0,1.4.7,1.4,1.2s-.2,1.2-1.4,1.2h-6.2c0-.8.7-2.3,3.1-2.3ZM52.4,45.1c-.4.5-.5.7-.9.7s-.6-.2-.9-.7c-.7-1-5.1-7.8-5.1-7.8h.6c1,0,1.4.5,1.7,1,.3.4,3.8,5.9,3.8,5.9,0,0,3.4-5.2,3.8-5.9.3-.5.7-1,1.7-1h.5s-4.6,7-5.2,7.8ZM19.4,45.6c-.8,0-1.1-.3-1.2-.9l-.2-.9c-.2.4-1.3,1.9-3.6,1.9h-2.4c-3.5,0-4.5-2.4-4.5-4.2s1.2-4.2,4.5-4.2h2.5c2.5,0,4,1.5,4.3,3.3.3,1.5.9,5.1.9,5.1h-.4ZM14.3,38.5h-2c-2.4,0-3.2,1.5-3.2,2.9s.8,2.9,3.2,2.9h2c2.5,0,3.2-1.6,3.2-2.9s-.6-2.9-3.2-2.9ZM59.3,35.9c.4,0,.7-.2.7-.7v-.3c0-.4-.4-.7-.7-.7s-.7.2-.7.7v.3c0,.4.4.7.7.7ZM58.6,37.2h.3c.7,0,1.1.3,1.1,1.1v7.3h-.3c-.7,0-1.1-.4-1.1-1.1v-7.2ZM22.2,38.4c.3-.3,1.3-1.2,3.1-1.2h2.4c3.5,0,4.6,2.4,4.6,4.2s-1.2,4.2-4.6,4.2h-2.5c-2.5,0-4.4-1.6-4.4-4.2v-7h.4c.7,0,1,.4,1,1v3.1ZM25.5,44.3h2c2.4,0,3.2-1.5,3.2-2.9s-.8-2.9-3.2-2.9h-2c-2.5,0-3.2,1.6-3.2,2.9s.6,2.9,3.2,2.9ZM35.3,38.4c.3-.3,1.3-1.2,3.1-1.2h2.4c3.5,0,4.5,2.4,4.5,4.2s-1.2,4.2-4.5,4.2h-2.5c-2.5,0-4.4-1.6-4.4-4.2v-7h.4c.7,0,1,.4,1,1v3.1ZM38.6,44.3h2c2.4,0,3.2-1.5,3.2-2.9s-.8-2.9-3.2-2.9h-2c-2.5,0-3.2,1.6-3.2,2.9s.6,2.9,3.2,2.9Z" fill="#fff"/>
</svg>