<?xml version="1.0" encoding="UTF-8" standalone="yes"?>
<svg width="32" height="32" viewBox="0 0 32 32" fill="none" version="1.2" baseProfile="tiny-ps" xmlns="http://www.w3.org/2000/svg">
  <title>bimi-svg-tiny-12-ps</title>
  <rect width="32" height="32" fill="#F5F5F5"/>
  <path d="M12.4692 10C12.6349 10 12.7692 10.1343 12.7692 10.3V12.4692C12.7692 12.6349 12.6349 12.7692 12.4692 12.7692H10C8.2157 12.7692 6.76923 14.2157 6.76923 16C6.76923 17.7843 8.2157 19.2308 10 19.2308H12.4692C12.6349 19.2308 12.7692 19.3651 12.7692 19.5308V21.7C12.7692 21.8657 12.6349 22 12.4692 22H10C6.68629 22 4 19.3137 4 16C4 12.6863 6.68629 10 10 10H12.4692Z" fill="#1B1B1B"/>
  <path d="M22 12.7692H19.5308C19.3651 12.7692 19.2308 12.6349 19.2308 12.4692V10.3C19.2308 10.1343 19.3651 10 19.5308 10H22C25.3137 10 28 12.6863 28 16C28 19.3137 25.3137 22 22 22H19.5308C19.3651 22 19.2308 21.8657 19.2308 21.7V19.5308C19.2308 19.3651 19.3651 19.2308 19.5308 19.2308H22C23.7843 19.2308 25.2308 17.7843 25.2308 16C25.2308 14.2157 23.7843 12.7692 22 12.7692Z" fill="#1B1B1B"/>
  <path d="M17.3846 10.3C17.3846 10.1343 17.2503 10 17.0846 10H14.9154C14.7497 10 14.6154 10.1343 14.6154 10.3V14.3154C14.6154 14.4811 14.4811 14.6154 14.3154 14.6154H10C9.2353 14.6154 8.61538 15.2353 8.61538 16C8.61538 16.7647 9.2353 17.3846 10 17.3846H14.3154C14.4811 17.3846 14.6154 17.5189 14.6154 17.6846V21.7C14.6154 21.8657 14.7497 22 14.9154 22H17.0846C17.2503 22 17.3846 21.8657 17.3846 21.7V17.6846C17.3846 17.5189 17.5189 17.3846 17.6846 17.3846H22C22.7647 17.3846 23.3846 16.7647 23.3846 16C23.3846 15.2353 22.7647 14.6154 22 14.6154L17.6846 14.6154C17.5189 14.6154 17.3846 14.4811 17.3846 14.3154V10.3Z" fill="#1B1B1B"/>
</svg>