<?xml version="1.0" encoding="iso-8859-1"?>
<svg xmlns="http://www.w3.org/2000/svg" xmlns:xlink="http://www.w3.org/1999/xlink" version="1.2" viewBox="0 0 102 170" baseProfile="tiny-ps">
<title>Veterans First</title>

<g>

  <g>
    <rect fill="#ffffff"
      y="0"
      x="-35"
       height="170"
       width="170"/>
  </g>

<line x1="2561.187" y1="-1714.333" x2="2418.972" y2="-2024.841" stroke-miterlimit="10" stroke-width="0.25" stroke="#EC1C24" fill="none"/>
<line x1="2868.52" y1="-1714.333" x2="2726.305" y2="-2024.841" stroke-miterlimit="10" stroke-width="0.25" stroke="#EC1C24" fill="none"/>
<path d="M95.62,31.421c-0.817,0-1.453-0.656-1.453-1.453s0.644-1.461,1.461-1.461     c0.817,0,1.453,0.656,1.453,1.453S96.437,31.421,95.62,31.421z M95.628,28.668c-0.737,0-1.292,0.584-1.292,1.301     c0,0.717,0.551,1.292,1.284,1.292c0.737,0,1.292-0.584,1.292-1.3C96.912,29.243,96.361,28.668,95.628,28.668z M95.986,30.141     l0.378,0.556h-0.399l-0.33-0.499h-0.27v0.499h-0.342v-1.55h0.688c0.37,0,0.608,0.189,0.608,0.511     C96.32,29.912,96.183,30.069,95.986,30.141z M95.7,29.449h-0.334v0.455h0.342c0.173,0,0.266-0.093,0.266-0.225     C95.974,29.525,95.87,29.449,95.7,29.449z" fill="#231F20"/>
<linearGradient id="SVGID_1_" gradientUnits="userSpaceOnUse" x1="-3.9893" y1="35.1603" x2="59.1383" y2="79.3627">
<stop offset="0" stop-color="#CBA251"/>
<stop offset="0.3558" stop-color="#C9A04F"/>
<stop offset="0.5476" stop-color="#C49B47"/>
<stop offset="0.7004" stop-color="#BA9139"/>
<stop offset="0.8325" stop-color="#AC8426"/>
<stop offset="0.9502" stop-color="#9A730D"/>
<stop offset="1" stop-color="#916A00"/>
</linearGradient>
<path d="M51.811,83.641L16.179,6.357c-1.952,12.207-5.384,31.011,0.782,49.498L8.222,36.772      c-1.34,8.382-3.756,21.47,1.006,34.139l10.885,24.051h20.499l3.007,6.565L51.811,83.641z" fill="url(#SVGID_1_)"/>
<polygon points="24.571,96.213 25.856,99.02 28.346,99.02 29.632,96.213     "/>
<path d="M47.635,126.308" fill="#CBA251"/>
<polygon points="20.109,94.962 26.827,94.962 26.827,94.962 13.491,94.962 8.87,105.052 24.73,105.052           " fill="#CBA251"/>
<path d="M87.207,6.357c1.952,12.207,5.384,31.01-0.782,49.498l8.739-19.083c1.34,8.382,3.756,21.47-1.006,34.139l-42.44,92.954    l-18.324-40.014L87.207,6.357z"/>

</g>

</svg>
