<?xml version="1.0" encoding="utf-8"?>
<!-- Generator: Adobe Illustrator 27.9.0, SVG Export Plug-In . SVG Version: 6.00 Build 0)  -->
<svg version="1.2" baseProfile="tiny-ps" id="Layer_1" xmlns="http://www.w3.org/2000/svg" xmlns:xlink="http://www.w3.org/1999/xlink"
	  viewBox="0 0 212.12 219.73"  xml:space="preserve">
<title>Zuken USA</title>
<g id="レイヤー_1">
	<polygon points="26.65,48.02 106.93,109.38 26.65,170.23 	"/>
	<polygon fill="#FFD900" points="26.65,48.02 187.73,47.76 106.93,109.38 	"/>
	<polygon fill="#4794D1" points="187.73,170.49 26.65,170.23 187.73,47.76 	"/>
	<g>
		<g>
			<polyline points="37.44,29.04 26.09,29.02 27.7,27.32 38.18,27.32 			"/>
			<polyline fill-rule="evenodd" points="37.29,29.08 34.38,32.58 41.66,32.59 46.03,27.31 38.18,27.32 			"/>
		</g>
		<g>
			<polyline points="35.01,40 46.28,39.96 45.11,41.9 33.45,41.86 			"/>
			<polyline fill-rule="evenodd" points="35.2,39.96 40.08,34.14 33.18,34.18 26.31,41.9 33.51,41.9 			"/>
			<line fill="none" x1="33.32" y1="41.86" x2="33.51" y2="41.85"/>
		</g>
	</g>
	<g>
		<polygon points="31.39,191.59 31.4,177.04 26.52,177.04 26.52,191.59 		"/>
		<polyline points="31.37,182.14 41.71,177.04 45.08,177.04 36.73,181.13 47.57,191.59 40.95,191.59 32.51,183.33 31.37,183.87 		
			"/>
	</g>
	<g>
		<polygon points="168.36,177.04 173.01,177.04 183.31,188.94 183.31,177.04 188.12,177.04 188.12,191.59 183.31,191.59 
			173.01,179.7 173.01,191.59 168.36,191.59 		"/>
	</g>
	<g>
		<path d="M182.03,35.99v-8.51h5.03v8.83l0.02,0.57c0,2.2-4.11,5.6-9.75,5.6c-5.63,0-9.87-3.33-9.92-5.37v-0.32v-9.3h4.9v8.5v0.59
			c0.08,1.45-0.24,4.58,5.04,4.58c2.86,0,4.63-1.13,4.68-4.58L182.03,35.99L182.03,35.99z"/>
	</g>
	<path d="M101.34,183.89l11.29-0.02l1.56-1.56h-12.51l-0.3-0.01c0.72-2.04,2.48-3.49,4.33-3.49h0.9h7.57l1.65-1.8h-11.5l-1.7,0.03
		c-3.89,0-6.7,3.38-6.7,7.36s3.7,7.18,7.59,7.18l2.64,0.03l8.02-0.01l1.69-1.74l-9.18-0.01l-0.44,0.01c-2.41,0-5.22-2.49-5.22-5.54
		c0-0.14,0-0.28,0.01-0.42L101.34,183.89z"/>
</g>
</svg>
