<?xml version="1.0" encoding="UTF-8" standalone="yes"?>
<svg width="808" height="808" xml:space="preserve" version="1.2" baseProfile="tiny-ps" xmlns="http://www.w3.org/2000/svg">
  <title>Polished Geek</title>
  <rect width="808" height="808" fill="#F6F5F0" />
  <g transform="matrix(1.3333 0 0 -1.3333 -128.26 825.392)">
    <path d="M272.57 196.97c0 14.784 11.985 26.77 26.771 26.77 22.04-1.023 79.05-36.762 79.05-36.762 16.312-9.572 17.546-29.139 1.322-37.835 0 0-59.156-36.204-80.372-37.044-14.786 0-26.771 11.985-26.771 26.769zm253.18.99c0 14.785-11.984 26.771-26.772 26.771-22.038-1.022-79.052-36.762-79.052-36.762-16.312-9.574-17.546-29.14-1.324-37.837 0 0 59.161-36.203 80.376-37.045 14.788 0 26.772 11.986 26.772 26.771z" fill="#231f20" fill-rule="evenodd"/>
    <path d="M478.61 342.09h90.083v103.28H478.61zm-65.044-26.255v155.4c0 16.848 17.528 26.254 32.33 26.254h155.51c14.797 0 32.324-9.406 32.324-26.254v-170.47c.033-8.171-.83-11.691-2.613-16.504l-21.547-56.472a26.84 26.84 0 0 0-1.075-2.161c-4.518-10.727-15.13-18.255-27.5-18.255-16.479 0-29.832 13.357-29.832 29.831 0 3.671.661 7.187 1.874 10.433.264.841.589 1.691.968 2.549l14.684 39.791h-122.8c-14.802 0-32.33 9.407-32.33 25.863m-93.779 26.25h-90.084v103.28h90.084zm65.042-26.255v155.4c0 16.848-17.526 26.254-32.328 26.254h-155.51c-14.798 0-32.323-9.406-32.323-26.254v-170.47c-.034-8.171.83-11.691 2.613-16.504l21.545-56.472c.335-.752.694-1.473 1.075-2.161 4.521-10.727 15.132-18.255 27.503-18.255 16.477 0 29.833 13.357 29.833 29.831 0 3.671-.662 7.187-1.875 10.433a24.468 24.468 0 0 1-.971 2.549l-14.685 39.791h122.8c14.802 0 32.328 9.407 32.328 25.863" fill="#06c"/>
  </g>
</svg>