<?xml version="1.0" encoding="utf-8"?>
<!-- Generator: Adobe Illustrator 27.6.1, SVG Export Plug-In . SVG Version: 6.00 Build 0)  -->
<svg version="1.2" baseProfile="tiny-ps" xmlns="http://www.w3.org/2000/svg" xmlns:xlink="http://www.w3.org/1999/xlink" viewBox="0 0 100 100" xml:space="preserve">
	<title>Lottomart</title>
<g id="Layer_1">
	<rect x="0.1" y="0.1" fill="#E1F80B" width="100" height="99.8"/>
</g>
<g id="Layer_2">
	<g id="Lottomart_x5F_Single_Line_x5F_Player_Purple_00000124881285246043451620000009577991774589909175_">
		<polygon fill="#4C204C" points="63.8,53.9 63.8,44.3 61.3,44.3 58.6,48.2 55.8,44.3 53.4,44.3 53.4,53.9 56.2,53.9 56.2,48.7 
			58.6,52 61,48.7 61,53.9 		"/>
		<path fill="#4C204C" d="M68.6,50.1c0,0,0.4-1.4,0.7-2.5h0c0.3,1.1,0.7,2.5,0.7,2.5H68.6z M68.1,44.3l-3.8,9.6h2.9l0.6-1.7h3.1
			l0.6,1.7h2.9l-3.8-9.6L68.1,44.3z"/>
		<path fill="#4C204C" d="M78.7,48.7h-1v-2.1h1c0.6,0,1.1,0.3,1.1,1C79.8,48.4,79.3,48.7,78.7,48.7 M81.1,50.3
			c1-0.5,1.5-1.5,1.5-2.7c0-2.3-1.7-3.4-4.1-3.4h-3.6v9.6h2.7v-3h0.8l0.2,0.5c2.7,6.1,8.9,4.4,9.6,4.2v-2.4
			C87.8,53.3,82.3,54.9,81.1,50.3"/>
		<polygon fill="#4C204C" points="42.1,44.3 34.3,44.3 34.3,46.6 36.8,46.6 36.8,53.9 39.6,53.9 39.6,46.6 42.1,46.6 		"/>
		<polygon fill="#4C204C" points="9.4,44.3 9.4,53.9 15.5,53.9 15.5,51.5 12.2,51.5 12.2,44.3 		"/>
		<polygon fill="#4C204C" points="33.7,44.3 25.9,44.3 25.9,46.6 28.4,46.6 28.4,53.9 31.2,53.9 31.2,46.6 33.7,46.6 		"/>
		<path fill="#4C204C" d="M24.7,49.1c0,2.3-1.7,3.9-4.1,3.9c-2.3,0-4-1.7-4-3.9c0-2.2,1.7-3.9,4-3.9C23,45.2,24.7,46.8,24.7,49.1
			 M20.7,44.1c-2.9,0-5.1,2.2-5.1,5c0,2.9,2.2,5,5.1,5c3,0,5.1-2.1,5.1-5C25.8,46.2,23.6,44.1,20.7,44.1"/>
		<path fill="#4C204C" d="M51.4,49.1c0,2.3-1.7,3.9-4.1,3.9c-2.3,0-4-1.7-4-3.9c0-2.2,1.7-3.9,4-3.9C49.7,45.2,51.4,46.8,51.4,49.1
			 M52.5,49.1c0-2.9-2.2-5-5.1-5c-2.9,0-5.1,2.2-5.1,5c0,2.9,2.2,5,5.1,5C50.3,54.1,52.5,52,52.5,49.1"/>
		<path fill="#4C204C" d="M82.9,44.3L82.9,44.3L82.9,44.3l0,2.4h0v0h2.5v4.7l0-0.1v1.6c0,0,1.5,0.1,2.9-0.4v-5.7h2.4v-2.4H82.9z"/>
	</g>
</g>
</svg>
