<?xml version="1.0" encoding="utf-8"?>
<svg version="1.2" baseProfile="tiny-ps" id="Layer" xmlns="http://www.w3.org/2000/svg" xmlns:xlink="http://www.w3.org/1999/xlink" viewBox="0 0 500 500" xml:space="preserve">
<title>TransferNow</title>
<rect x="-0.1" y="0" fill="#3F51B5" width="500" height="500"/>
<path fill="#FFFFFF" d="M400.9,239.7L400.9,239.7c-0.1-0.1-0.1-0.1-0.2-0.2c-0.2-0.2-0.3-0.3-0.5-0.5c-0.4-0.4-0.9-0.9-1.5-1.2
	c0,0-0.1,0-0.2,0c-3.5-2.3-8.1-3.2-10.7-3.2c-3,0-5.9,0.5-8.6,1.6c-2.5,1-4.7,2.6-6.4,4.6c-1.8,2.1-3.2,4.4-4,7
	c-0.9,2.8-1.4,5.8-1.4,8.8c0,1.7,0.2,3.4,0.7,5.1c0,0,0,0-0.1,0c0.3,1.3,0.9,2.5,1.6,3.6c1.5,2.4,3.6,4.3,6.1,5.6
	c2.7,1.3,5.7,2,8.7,2c3,0,5.9-0.5,8.7-1.6c2.5-1,4.7-2.6,6.4-4.6c1.8-2.1,3.2-4.4,4-7c0.9-2.8,1.4-5.8,1.4-8.8
	c0-3.4-0.8-6.3-2.3-8.8C402.1,241.2,401.5,240.4,400.9,239.7z M392.7,254.7c-0.3,1.6-0.9,3.2-1.6,4.6c-0.6,1.3-1.6,2.5-2.7,3.4
	c-1.1,0.9-2.4,1.3-3.8,1.3c-1.1,0-2.2-0.2-3.2-0.7c-0.9-0.5-1.6-1.3-2-2.2c-0.4-1.1-0.7-2.3-0.6-3.5c0,0,0.1,0,0.1,0
	c0-0.1,0-2.3,0.1-2.3l0.4-2.6c0.5-2.2,1.3-4.3,2.2-6.4c0.9-1.9,2.2-3.5,3.8-4.8c0,0,0.1,0,0.1,0c0.5,0,2.6,0.2,5.1,2.5
	c1.7,1.6,2.6,3.7,2.6,6C393.2,251.5,393,253,392.7,254.7z"/>
<path fill="#FFFFFF" d="M359.2,237.1c-1.8-1.1-3.9-1.7-6.5-1.7c-2.8,0-7.2,0.5-12.9,3.6l0.8-3.5l-12.1,3.2l-3.5,13.8
	c0,0-0.1,0.1-0.1,0.1l-1.8,6.9c0,0,0,0,0.1-0.1l-3.1,12.1h12.3l5.6-24.4c3.1-1.6,5.9-2.3,8.1-2.4c1.7,0,3,0.5,3.7,1.6
	s0.9,2.6,0.5,4.5l-4.9,20.6h12.3l5.3-22.1c0.7-2.9,0.7-5.4,0-7.5C362.2,239.9,360.9,238.2,359.2,237.1z"/>
<path fill="#FFFFFF" d="M469.4,236.6c0,0-0.5,3.1-2.6,8.2c-2.6,5-5.6,9.7-11.2,14c-2.7,2.1-6.2,4.2-9.7,4.6c0-0.7,0.1-1.5,0.1-2.2
	c0.6-9.8,3.9-25.8,3.9-25.8l-12.4,3.3l-3,15.2c-0.1,0.4-0.1,0.8-0.2,1.2c-1.2,1.2-2.3,2.3-3.1,3.1c-2.1,1.8-5.7,5.3-10.1,6.4
	c0-1,0.1-2.2,0.2-3.4c0.6-9.8,3.9-25.8,3.9-25.8l-12.5,3.3L410,254c-4.3,24.7,16.7,16.1,16.7,16.1c0,0,0,0,0,0
	c2.1-0.9,4.7-2.3,7.9-5.1c1.4,5.6,5.3,7,9,6.9c0,0,0.1,0,0.1,0c2.1,0.1,5.2-0.7,7.6-1.7c2.7-1.2,8-4.2,13.7-12
	c7.1-9.7,9-22.8,9-22.8L469.4,236.6z"/>
<path fill="#FFFFFF" d="M119.3,244.2c-0.3-1.7-1-3.3-2.1-4.7c-1-1.2-2.3-2.1-3.7-2.7c-1.4-0.6-3-0.9-4.5-0.9
	c-2.6,0-5.1,0.6-7.3,1.9c-2.2,1.3-4.1,3.1-5.6,5.1c-1.6,2.2-2.8,4.7-3.5,7.3c-0.8,2.7-1.2,5.5-1.2,8.4c0,3.1,0.5,5.7,1.6,7.8
	c1,2,2.5,3.7,4.4,4.9c1.9,1.1,4.1,1.7,6.4,1.7c2.4,0,4.7-0.7,6.6-2c2-1.3,3.6-3.2,4.7-5.4l-1.2,6.7h11l8.3-35.7H121L119.3,244.2z
	 M116.6,255.8c-0.4,1.4-1,2.9-1.7,4.1c-0.6,1.2-1.5,2.2-2.6,3.1c-0.9,0.7-2.1,1.1-3.3,1.1c-1.1,0-2.2-0.2-3.2-0.8
	c-0.8-0.6-1.5-1.4-1.9-2.4c-0.4-1.2-0.7-2.4-0.6-3.7c0-2.9,0.8-5.7,2.2-8.2c0.6-1.2,1.6-2.2,2.7-3.1c1-0.8,2.3-1.2,3.5-1.2
	c1,0,2.1,0.2,3,0.8c0.8,0.5,1.5,1.3,1.9,2.3c0.5,1.1,0.7,2.3,0.7,3.4C117.3,252.9,117,254.4,116.6,255.8z"/>
<path fill="#FFFFFF" d="M48.2,245.3h9.7l2-8.6h-9.7l2.6-11.1l-13,3.4l-1.8,7.7h-6.6l-2,8.6H36l-3.2,14c-0.6,3-0.6,5.5,0.2,7.6
	c0.8,2,2.3,3.7,4.3,4.6c2.4,1.1,4.9,1.6,7.5,1.5c1.5,0,3.1-0.1,4.6-0.3c1.4-0.2,2.8-0.6,4.1-1.3l0.7-7.8c-0.6,0.3-1.2,0.5-1.8,0.7
	c-0.9,0.2-1.8,0.3-2.7,0.3c-1.8,0-3.2-0.4-4.1-1.4s-1.1-2.3-0.7-4.2L48.2,245.3z"/>
<path fill="#FFFFFF" d="M90.7,236.2c-0.7-0.1-1.3-0.2-2-0.2c-2.2,0-4.3,0.5-6.2,1.6c-1.8,1.1-3.4,2.6-4.6,4.3c-0.6,1-1.2,2-1.7,3.1
	l1.4-8.2H66.9l-8.3,35.7h12.2l3.8-16.5c0.4-2.1,1.2-4,2.4-5.7c0.9-1.3,2.2-2.4,3.7-3.1c1.4-0.6,2.8-0.9,4.3-1c0.8,0,1.6,0,2.5,0.2
	c0.6,0.1,1.1,0.3,1.7,0.5l2.9-10.2C91.7,236.4,91.2,236.3,90.7,236.2z"/>
<path fill="#FFFFFF" d="M171.1,237.6c-1.9-1.2-4.2-1.8-6.4-1.7c-3.2,0-6.3,1-8.8,2.9c-1.7,1.3-3,2.9-3.9,4.8l1.1-6.9h-10.8
	l-8.3,35.7h12.1l4.5-19.2c0.3-1.5,0.8-3,1.6-4.3c0.6-1.1,1.5-2,2.5-2.7c1-0.6,2.2-0.9,3.4-0.9c1.7,0,3,0.5,3.7,1.6
	c0.7,1.1,0.9,2.6,0.5,4.5l-4.9,21.1h12.1l5.3-22.5c0.6-2.9,0.6-5.4,0-7.4C174.1,240.4,172.8,238.8,171.1,237.6z"/>
<path fill="#FFFFFF" d="M278.6,238c-2.5-1.3-5.4-2-8.9-2c-4.2,0-7.8,0.9-10.8,2.7c-3,1.8-5.4,4.3-7,7.4c-1.7,3.3-2.5,7-2.5,10.7
	c0,3,0.7,5.9,2.2,8.5c1.5,2.5,3.6,4.4,6.2,5.7c2.9,1.4,6.1,2.1,9.3,2c2.5,0,5-0.3,7.4-1c2.1-0.6,4.1-1.6,5.9-3
	c1.6-1.2,2.9-2.8,3.7-4.6l-10-3.9c-0.5,1.2-1.4,2.2-2.4,3c-1.2,0.8-2.7,1.2-4.1,1.2c-1.2,0-2.5-0.2-3.6-0.8c-1-0.5-1.9-1.4-2.4-2.4
	c-0.6-1.1-0.9-2.4-0.9-3.6h24.7c0.3-0.9,0.5-1.9,0.6-2.9c0.1-1,0.1-2,0.1-2.9c0-2.9-0.6-5.8-1.9-8.4
	C282.9,241.1,281,239.2,278.6,238z M274.5,251.1h-12.9c0.2-0.8,0.5-1.6,0.9-2.3c0.6-1.2,1.6-2.3,2.7-3.2c1.2-0.8,2.8-1.3,4.2-1.2
	c0.9,0,1.9,0.2,2.7,0.6c0.8,0.4,1.4,1,1.8,1.8c0.4,0.9,0.7,2,0.6,3.1C274.6,250.3,274.6,250.7,274.5,251.1z"/>
<path fill="#FFFFFF" d="M195,244.8c1-0.5,2.2-0.7,3.3-0.7c1.4,0,2.8,0.2,4.1,0.7c1.3,0.4,2.5,1.1,3.5,1.9c1,0.7,1.9,1.6,2.5,2.7
	l6.1-6c-1.7-2.4-4.1-4.2-6.8-5.4c-3.2-1.4-6.5-2-9.9-2c-2.8,0-5.5,0.4-8.1,1.4c-2.2,0.8-4,2.2-5.4,4c-1.3,1.8-2,4-2,6.3
	c0,2.3,0.8,4.5,2.3,6.3c1.5,1.7,4.1,3.1,7.7,4.2l4.3,1.3c0.8,0.2,1.6,0.6,2.3,1.1c0.5,0.4,0.7,1.1,0.7,1.7c0,0.8-0.4,1.6-1.2,2
	c-1.1,0.5-2.3,0.7-3.4,0.6c-2.3,0-4.4-0.6-6.3-1.8c-2-1.2-3.6-2.8-4.9-4.7l-6.3,5.8c1.3,1.9,2.9,3.5,4.7,4.8c2,1.4,4.2,2.4,6.5,3.1
	c2.4,0.7,4.9,1.1,7.4,1.1c2.9,0,5.7-0.4,8.4-1.5c2.2-0.9,4-2.4,5.4-4.3c1.3-2,1.9-4.2,1.9-6.6c0-2.1-0.7-4.1-2-5.8
	c-1.3-1.6-3.3-2.8-5.8-3.6l-6.8-2.1c-0.8-0.2-1.6-0.6-2.3-1c-0.6-0.3-1-1-1-1.7C193.9,245.9,194.3,245.1,195,244.8z"/>
<path fill="#FFFFFF" d="M321.4,236.2c-0.7-0.1-1.3-0.2-2-0.2c-2.2,0-4.3,0.5-6.2,1.6c-1.8,1.1-3.4,2.6-4.6,4.3
	c-0.6,1-1.2,2-1.7,3.1l1.4-8.3h-10.8l-8.3,35.7h12.2l3.8-16.5c0.4-2.1,1.2-4,2.4-5.7c0.9-1.3,2.2-2.4,3.7-3.1
	c1.4-0.6,2.8-0.9,4.3-1c0.8,0,1.6,0,2.5,0.2c0.6,0.1,1.1,0.3,1.7,0.5l2.9-10.2C322.3,236.4,321.9,236.3,321.4,236.2z"/>
<path fill="#FFFFFF" d="M239.6,234c0.4-1.8,1-3.1,2-3.7c1-0.7,2.4-1,4.2-1c0.8,0,1.7,0.1,2.5,0.3c0.6,0.1,1.1,0.3,1.7,0.6l2.7-7.8
	c-1.1-0.6-2.2-1-3.4-1.3c-4-0.8-8.3-0.6-12.2,0.7c-2.2,0.8-4.1,2.2-5.6,3.9c-1.5,1.8-2.7,4.3-3.4,7.5l-0.8,3.5h-6.2l-2,8.6h6.3
	l-6.3,27.1h12.1l6.3-27.1h9.4l2-8.6H239L239.6,234z"/>
</svg>
