<?xml version="1.0" encoding="utf-8"?>
<!-- Generator: Adobe Illustrator 25.3.1, SVG Export Plug-In . SVG Version: 6.00 Build 0)  -->
<svg version="1.2" baseProfile="tiny-ps" id="Layer_1" xmlns="http://www.w3.org/2000/svg" xmlns:xlink="http://www.w3.org/1999/xlink"
	 viewBox="0 0 640 640" xml:space="preserve">
<title>StyleBlueprint</title>
<path fill="#8196A9" d="M71.65,380.73c-20.16,0-40.32-0.04-60.48,0.05c-2.38,0.01-3.29,0.03-3.29,0.03l0.06-128.07
	c0,0,0.87,0.01,3.23,0.02c40.53,0.06,81.07,0.06,121.6,0c2.38,0,2.73-0.02,3.21-0.02c-0.09,40.61,0.08,128.07,0.08,128.07
	s-0.93-0.02-3.3-0.03C112.39,380.7,92.02,380.73,71.65,380.73z M98.75,314.84c3.91-1.44,5.49-4.35,5.53-8.02
	c0.12-8.73,0.34-17.48-0.08-26.19c-0.28-5.94-3.38-8.4-9.41-8.58c-5.01-0.15-10.03,0.1-15.03-0.11c-2.63-0.11-3.39,0.61-3.38,3.32
	c0.11,26.11,0.06,52.22,0.06,78.33c0,2.02,0.05,4.05-0.01,6.07c-0.04,1.32,0.38,1.93,1.81,1.91c5.97-0.08,11.96,0.18,17.91-0.19
	c5.96-0.37,8.45-3.42,8.46-9.44c0.02-9.27-0.1-18.55,0.05-27.82C104.74,319.69,103.54,316.38,98.75,314.84z M66.09,343.39
	c0.07-7.29,0.63-13.53-2.72-19.18c-3.75-6.32-7.06-12.93-11.26-18.93c-5.09-7.28-3.9-15.23-3.63-23.13c0.09-2.45,1.98-3.91,4.7-3.75
	c2.74,0.16,4.03,1.73,4.16,4.32c0.11,2.34,0.04,4.69,0.09,7.03c0.13,6.35-1.29,5.68,6.12,5.77c1.72,0.02,2.56-0.5,2.51-2.36
	c-0.09-3.3,0.11-6.61-0.06-9.91c-0.44-8.28-4.3-11.86-12.61-11.89c-0.64,0-1.28-0.01-1.92,0.01c-6.92,0.21-11.37,4.62-11.49,11.5
	c-0.07,3.84,0.13,7.68-0.05,11.51c-0.21,4.21,0.89,7.99,2.97,11.57c3.74,6.45,7.18,13.09,11.23,19.33
	c5.35,8.25,3.85,17.16,3.25,26.01c-0.17,2.54-1.98,3.91-4.65,3.86c-2.64-0.05-4.05-1.49-4.66-3.98c-0.73-2.95-0.35-5.94-0.38-8.91
	c-0.07-5.81-0.02-5.75-5.83-5.62c-1.7,0.04-2.53,0.38-2.48,2.3c0.12,4.05-0.13,8.11,0.09,12.15c0.25,4.51,1.93,8.36,6.54,10.06
	c3.9,1.44,7.93,1.55,11.93,0.41c4.15-1.18,6.63-4,7.72-8.16C66.61,349.7,65.86,345.96,66.09,343.39z"/>
<path fill="#FBFCFC" d="M98.75,314.84c4.79,1.54,5.99,4.86,5.92,9.29c-0.16,9.27-0.03,18.54-0.05,27.82
	c-0.01,6.02-2.5,9.07-8.46,9.44c-5.95,0.37-11.94,0.11-17.91,0.19c-1.43,0.02-1.85-0.59-1.81-1.91c0.06-2.02,0.01-4.05,0.01-6.07
	c0-26.11,0.04-52.22-0.06-78.33c-0.01-2.71,0.75-3.43,3.38-3.32c5,0.22,10.02-0.03,15.03,0.11c6.03,0.18,9.13,2.64,9.41,8.58
	c0.42,8.71,0.19,17.46,0.08,26.19C104.23,310.48,102.66,313.39,98.75,314.84z M84.7,336.28c0,4.15,0,8.29,0,12.44
	c0,6.31,0.42,6.67,6.85,5.74c2.89-0.42,4.72-1.94,4.73-5.02c0.04-8.61,0.05-17.22,0-25.83c-0.02-3.08-1.81-4.64-4.78-4.88
	c-1.48-0.12-2.98,0.01-4.46-0.12c-1.81-0.15-2.4,0.57-2.37,2.37C84.77,326.07,84.71,331.18,84.7,336.28z M84.7,295.16
	c0,4.16,0,8.32,0,12.47c0,4.06,0,4.06,4.18,4.01c0.53-0.01,1.07,0,1.6-0.04c3.88-0.35,5.29-1.77,5.32-5.72
	c0.06-7.14,0.06-14.28,0-21.43c-0.03-3.6-1.69-5.22-5.28-5.41c-1.17-0.06-2.36,0.08-3.52-0.03c-1.87-0.19-2.37,0.63-2.33,2.4
	C84.77,285.99,84.71,290.58,84.7,295.16z"/>
<path fill="#FBFCFC" d="M66.09,343.39c-0.23,2.57,0.51,6.31-0.45,10c-1.09,4.16-3.56,6.98-7.72,8.16c-4,1.14-8.04,1.03-11.93-0.41
	c-4.62-1.7-6.3-5.55-6.54-10.06c-0.22-4.04,0.03-8.1-0.09-12.15c-0.06-1.92,0.78-2.27,2.48-2.3c5.82-0.12,5.77-0.18,5.83,5.62
	c0.04,2.97-0.34,5.96,0.38,8.91c0.61,2.48,2.02,3.92,4.66,3.98c2.67,0.05,4.48-1.33,4.65-3.86c0.6-8.85,2.11-17.76-3.25-26.01
	c-4.05-6.24-7.49-12.88-11.23-19.33c-2.08-3.59-2.94-7.36-2.97-11.57c-0.03-3.63-0.02-7.67,0.05-11.51
	c0.13-6.88,4.57-11.29,11.49-11.5c0.64-0.02,1.28-0.01,1.92-0.01c8.32,0.03,12.18,3.61,12.61,11.89c0.17,3.29-0.03,6.61,0.06,9.91
	c0.05,1.86-0.79,2.38-2.51,2.36c-7.41-0.09-5.99,0.58-6.12-5.77c-0.05-2.34,0.03-4.69-0.09-7.03c-0.13-2.58-1.42-4.16-4.16-4.32
	c-2.72-0.16-4.62,1.29-4.7,3.75c-0.27,7.89-1.47,15.85,3.63,23.13c4.2,6,7.52,12.61,11.26,18.93
	C66.72,329.86,66.17,336.09,66.09,343.39z"/>
<path fill="#8196A9" d="M84.7,336.28c0-5.1,0.06-10.21-0.03-15.31c-0.03-1.8,0.56-2.18,2.37-2.37c1.55-0.16,2.98,0,4.46,0.12
	c2.97,0.24,4.77,1.81,4.78,4.88c0.05,8.61,0.04,17.22,0,25.83c-0.01,3.08-1.84,4.6-4.73,5.02c-6.43,0.93-6.85,0.58-6.85-5.74
	C84.7,344.57,84.7,340.43,84.7,336.28z"/>
<path fill="#8196A9" d="M84.71,295.16c0-4.58,0.06-9.17-0.03-13.75c-0.04-1.76,0.46-2.58,2.33-2.4c1.16,0.12,2.35-0.03,3.52,0.03
	c3.59,0.19,5.25,1.8,5.28,5.41c0.07,7.14,0.06,14.28,0,21.43c-0.03,3.94-1.44,5.37-5.32,5.72c-0.53,0.05-1.07,0.04-1.6,0.04
	c-4.18,0.05-4.18,0.05-4.18-4.01C84.7,303.48,84.7,299.32,84.71,295.16z"/>
<g>
	<path fill="#56565A" d="M169.68,326.95c0.37,4.06,1.92,7.36,4.66,9.88c2.74,2.52,6.03,3.78,9.87,3.78c3.48,0,6.45-1.23,8.93-3.7
		c2.47-2.47,3.71-5.22,3.71-8.25c0-2.37-0.88-4.44-2.63-6.21c-1.75-1.77-5.38-3.69-10.88-5.75c-5.5-2.06-9.61-4.1-12.34-6.13
		c-2.72-2.03-4.08-5.29-4.08-9.76c0-5.25,1.78-9.12,5.34-11.61c3.56-2.49,8.02-3.74,13.36-3.74c1.1,0,2.21,0.12,3.34,0.35
		c1.13,0.23,2.15,0.5,3.06,0.81c0.92,0.31,1.79,0.59,2.63,0.85c0.84,0.26,1.49,0.39,1.96,0.39s0.9-0.27,1.3-0.81
		s0.59-1.07,0.59-1.58h2.29v14.2h-2.76v-0.31c0-2.88-1.14-5.54-3.42-7.98c-2.28-2.44-5.3-3.66-9.06-3.66c-3.19,0-6.02,1-8.48,3.01
		c-2.46,2.01-3.69,4.45-3.69,7.33c0,3.86,1.41,6.47,4.24,7.83c2.83,1.36,6.72,2.93,11.67,4.71c4.95,1.77,8.53,4.02,10.73,6.75
		c2.2,2.73,3.3,5.71,3.3,8.95c0,5.66-1.83,9.84-5.49,12.54c-3.66,2.7-8.23,4.05-13.71,4.05c-1.48,0-2.8-0.09-3.99-0.27
		c-1.18-0.18-2.48-0.46-3.87-0.85c-1.4-0.39-2.4-0.66-3-0.81c-0.61-0.15-1.09-0.23-1.46-0.23c-0.58,0-1.08,0.21-1.5,0.62
		c-0.42,0.41-0.63,0.93-0.63,1.54h-2.76v-15.28L169.68,326.95z"/>
	<path fill="#56565A" d="M218.74,291.23v12.19h9.64v2.7h-9.64v29.39c0,2.78,1.08,4.17,3.24,4.17c1.42,0,2.42-0.42,3-1.27
		c0.58-0.85,0.87-2.02,0.87-3.51v-3.63h3.24v2.39c0,2.88-0.72,5.13-2.17,6.75c-1.45,1.62-3.44,2.43-5.96,2.43
		c-3.48,0-5.79-0.82-6.95-2.47c-1.16-1.65-1.74-4.06-1.74-7.25v-27h-6.95v-2.7c3.16,0,5.63-1.12,7.43-3.36
		c1.79-2.24,2.92-5.18,3.4-8.83H218.74z"/>
	<path fill="#56565A" d="M270.4,303.42v2.24h-1.66c-0.63,0-1.16,0.39-1.58,1.16c-0.42,0.77-0.98,1.96-1.66,3.55l-16.35,41.89
		c-1.05,2.73-2.27,4.63-3.66,5.71c-1.39,1.08-3.58,1.62-6.57,1.62c-1.94,0-3.56-0.49-4.88-1.47c-1.31-0.98-1.96-2.34-1.96-4.09
		c0-1.39,0.47-2.55,1.42-3.47s2.11-1.39,3.48-1.39c1.05,0,1.98,0.36,2.77,1.08c0.79,0.72,1.18,1.62,1.18,2.7
		c0,0.67-0.12,1.25-0.36,1.74c-0.24,0.49-0.49,1.01-0.75,1.58c0,0.41,0.55,0.62,1.65,0.62c1.99,0,3.63-1.81,4.94-5.42l3.31-9.14
		l-13.22-33.2c-0.42-1.08-0.95-1.93-1.58-2.55s-1.5-0.93-2.61-0.93h-1.03v-2.24h17.85v2.24h-1.03c-1.9,0-3.15,0.16-3.75,0.46
		c-0.61,0.31-0.91,0.8-0.91,1.47c0,0.72,0.28,1.8,0.85,3.25l8.82,23l9.06-23c0.41-1.18,0.62-2.21,0.62-3.09s-0.33-1.44-0.99-1.7
		c-0.66-0.26-1.54-0.39-2.65-0.39h-1.42v-2.24H270.4z"/>
	<path fill="#56565A" d="M282.25,333.35c0,2.83,0.21,4.54,0.63,5.13c0.42,0.59,1.45,0.89,3.08,0.89h2.76v2.24h-19.35v-2.24h2.69
		c1.63,0,2.66-0.27,3.08-0.81c0.42-0.54,0.63-2.28,0.63-5.21v-40.89c0-2.01-0.12-3.52-0.36-4.55c-0.24-1.03-1.49-1.54-3.75-1.54
		h-2.29v-2.24h12.88V333.35z"/>
	<path fill="#56565A" d="M296.86,322.63c0,5.09,0.59,9.36,1.78,12.81c1.19,3.45,3.86,5.17,8.02,5.17c3.37,0,6.15-1.17,8.33-3.51
		c2.18-2.34,3.28-5.23,3.28-8.68h3.24c0,4.47-1.42,8-4.27,10.57c-2.84,2.57-6.61,3.86-11.3,3.86c-5.58,0-9.77-1.81-12.56-5.43
		c-2.79-3.62-4.19-8.28-4.19-13.98c0-5.95,1.35-10.97,4.07-15.05c2.71-4.08,6.94-6.12,12.68-6.12c5.16,0,9.14,2.05,11.93,6.15
		c2.79,4.1,4.19,8.84,4.19,14.22H296.86z M314.4,320.39c0-4.4-0.53-8.15-1.58-11.25c-1.05-3.1-3.37-4.65-6.95-4.65
		c-3.53,0-5.91,1.61-7.15,4.84c-1.24,3.22-1.86,6.91-1.86,11.05H314.4z"/>
	<path fill="#56565A" d="M324.98,339.37h2.45c1.9,0,3.05-0.35,3.48-1.04c0.42-0.69,0.63-2.48,0.63-5.35v-35.51
		c0-3.85-0.21-6.22-0.63-7.12c-0.42-0.9-1.47-1.35-3.16-1.35h-2.76v-2.24h24.17c4.74,0,8.97,1.08,12.68,3.25
		c3.71,2.17,5.57,5.62,5.57,10.37c0,2.99-1.62,5.78-4.86,8.36c-3.24,2.58-6.41,3.87-9.52,3.87c4.37,0.46,8.16,1.86,11.38,4.18
		c3.21,2.33,4.82,5.46,4.82,9.4c0,4.96-2.28,8.77-6.83,11.43c-4.56,2.66-9.91,3.99-16.08,3.99h-21.33V339.37z M338.73,311.59h6.16
		c4.16,0,7.56-0.88,10.19-2.65c2.63-1.77,3.95-4.73,3.95-8.88c0-3.59-1.16-6.33-3.48-8.23c-2.32-1.9-5.66-2.85-10.03-2.85h-6.79
		V311.59z M338.73,339.37h7.9c4.11,0,7.5-1.17,10.19-3.51c2.69-2.34,4.03-5.49,4.03-9.45c0-4.47-1.82-7.69-5.45-9.64
		c-3.63-1.95-7.27-2.93-10.9-2.93h-5.77V339.37z"/>
	<path fill="#56565A" d="M385.1,333.35c0,2.83,0.21,4.54,0.63,5.13c0.42,0.59,1.45,0.89,3.08,0.89h2.76v2.24h-19.35v-2.24h2.69
		c1.63,0,2.66-0.27,3.08-0.81s0.63-2.28,0.63-5.21v-40.89c0-2.01-0.12-3.52-0.36-4.55c-0.24-1.03-1.49-1.54-3.75-1.54h-2.29v-2.24
		h12.88V333.35z"/>
	<path fill="#56565A" d="M402.79,331.52c0,2.46,0.68,4.44,2.05,5.93c1.37,1.49,3.42,2.23,6.16,2.23c2.79,0,5.16-1.29,7.11-3.86
		c1.95-2.57,2.92-5.53,2.92-8.87v-15.82c0-2.21-0.29-3.68-0.87-4.4c-0.58-0.72-1.92-1.08-4.03-1.08h-1.58v-2.24h1.03
		c1.37,0,3.16-0.1,5.37-0.29c2.21-0.19,4.58-0.48,7.11-0.87l-0.55,9.62v22.63c0,2.16,0.28,3.5,0.83,4.04s1.8,0.81,3.75,0.81h1.82
		v2.24h-12.4v-5.86c-1.05,2.06-2.75,3.75-5.09,5.09c-2.34,1.34-4.96,2.01-7.86,2.01c-3.95,0-6.98-0.86-9.08-2.58
		c-2.11-1.72-3.16-4.74-3.16-9.06v-20.06c0-2.21-0.29-3.68-0.87-4.4c-0.58-0.72-1.92-1.08-4.03-1.08h-1.5v-2.24h0.95
		c1.37,0,3.16-0.1,5.37-0.29c2.21-0.19,4.58-0.48,7.11-0.87l-0.55,9.62V331.52z"/>
	<path fill="#56565A" d="M442.29,322.63c0,5.09,0.59,9.36,1.78,12.81c1.18,3.45,3.86,5.17,8.02,5.17c3.37,0,6.15-1.17,8.33-3.51
		c2.18-2.34,3.28-5.23,3.28-8.68h3.24c0,4.47-1.42,8-4.27,10.57c-2.84,2.57-6.61,3.86-11.3,3.86c-5.58,0-9.77-1.81-12.56-5.43
		c-2.79-3.62-4.19-8.28-4.19-13.98c0-5.95,1.36-10.97,4.07-15.05c2.71-4.08,6.94-6.12,12.68-6.12c5.16,0,9.14,2.05,11.93,6.15
		c2.79,4.1,4.19,8.84,4.19,14.22H442.29z M459.82,320.39c0-4.4-0.53-8.15-1.58-11.25s-3.37-4.65-6.95-4.65
		c-3.53,0-5.91,1.61-7.15,4.84c-1.24,3.22-1.86,6.91-1.86,11.05H459.82z"/>
	<path fill="#56565A" d="M469.22,356.11h1.66c1.95,0,3.23-0.32,3.83-0.96c0.6-0.64,0.91-1.97,0.91-3.97V310.9
		c0-2.37-0.29-3.83-0.87-4.4c-0.58-0.57-2.03-0.85-4.34-0.85h-1.18v-2.24h1.82c2.53,0,4.66-0.06,6.4-0.19
		c1.74-0.13,3.13-0.37,4.19-0.73v8.79c2.69-6.02,7-9.03,12.96-9.03c4.21,0,7.73,1.91,10.55,5.74c2.82,3.83,4.23,8.61,4.23,14.36
		c0,6.37-1.44,11.37-4.3,15.02c-2.87,3.65-6.54,5.47-11.02,5.47c-2.42,0-4.71-0.58-6.87-1.74c-2.16-1.16-3.79-2.92-4.9-5.28
		l-0.16,13.81c0,2.93,0.21,4.75,0.63,5.44c0.42,0.69,1.71,1.04,3.87,1.04h1.9v2.24h-19.27V356.11z M493.47,339.68
		c2.95,0,5.05-1.6,6.32-4.81c1.26-3.21,1.9-7.35,1.9-12.43c0-5.54-0.58-9.76-1.74-12.66c-1.16-2.9-3.48-4.35-6.95-4.35
		c-4.32,0-7.21,1.85-8.69,5.54c-1.48,3.69-2.21,8.13-2.21,13.32c0,4.88,0.92,8.66,2.76,11.35
		C486.71,338.33,489.57,339.68,493.47,339.68z"/>
	<path fill="#56565A" d="M511.8,339.37h1.9c1.84,0,3.05-0.33,3.63-1c0.58-0.67,0.87-1.93,0.87-3.78v-23.14
		c0-2.01-0.29-3.47-0.87-4.4c-0.58-0.93-1.79-1.39-3.63-1.39h-1.9v-2.24h1.66c1.79,0,3.66-0.08,5.61-0.25
		c1.95-0.17,3.66-0.47,5.13-0.9v9.95c2.37-3.94,4.42-6.54,6.16-7.81c1.74-1.27,3.66-1.91,5.77-1.91c1.95,0,3.66,0.45,5.13,1.35
		c1.47,0.9,2.21,2.25,2.21,4.05c0,1.34-0.39,2.42-1.18,3.24c-0.79,0.82-1.9,1.23-3.32,1.23c-1.16,0-2.17-0.37-3.04-1.12
		c-0.87-0.75-1.3-1.68-1.3-2.82c0-0.46,0.13-1,0.39-1.62h-1.5c-2.48,0-4.57,1.59-6.28,4.78c-1.71,3.19-2.57,6.46-2.57,9.8v13.04
		c0,2.26,0.46,3.65,1.38,4.17c0.92,0.51,2.7,0.77,5.33,0.77h1.74v2.24H511.8V339.37z"/>
	<path fill="#56565A" d="M552.16,309.51c0-1.7-0.28-2.76-0.83-3.2c-0.55-0.44-1.75-0.66-3.59-0.66h-1.97v-2.24h2.84
		c2.37,0,4.11-0.09,5.21-0.27c1.11-0.18,2.84-0.5,5.21-0.96c-0.21,2.42-0.33,4.14-0.36,5.17c-0.03,1.03-0.04,1.85-0.04,2.47v24.61
		c0,1.96,0.28,3.27,0.83,3.93c0.55,0.67,1.7,1,3.44,1h2.53v2.24h-19.67v-2.24h2.69c1.53,0,2.53-0.33,3-1
		c0.47-0.67,0.71-1.83,0.71-3.47V309.51z M555.08,286.52c1.16,0,2.18,0.44,3.08,1.31c0.9,0.88,1.34,1.88,1.34,3.01
		c0,1.18-0.46,2.2-1.38,3.05c-0.92,0.85-1.94,1.27-3.04,1.27c-1.11,0-2.12-0.42-3.04-1.27c-0.92-0.85-1.38-1.86-1.38-3.05
		c0-1.23,0.42-2.26,1.26-3.09C552.77,286.93,553.82,286.52,555.08,286.52z"/>
	<path fill="#56565A" d="M564.88,303.42h2.13c2.21,0,4.05-0.08,5.53-0.25c1.47-0.17,3.05-0.47,4.74-0.9v7.17
		c3.42-4.78,7.53-7.17,12.32-7.17c5.16,0,8.6,1.01,10.31,3.04c1.71,2.03,2.57,4.89,2.57,8.58v19.48c0,2.82,0.21,4.53,0.63,5.12
		c0.42,0.59,1.45,0.88,3.08,0.88h2.69v2.24H589.6v-2.24h2.69c1.63,0,2.66-0.27,3.08-0.81c0.42-0.54,0.63-2.27,0.63-5.2v-17.32
		c0-3.49-0.55-6.13-1.66-7.93c-1.11-1.8-3.08-2.69-5.92-2.69c-3.37,0-5.99,1.19-7.86,3.58c-1.87,2.39-2.8,5.3-2.8,8.74v15.62
		c0,2.82,0.21,4.53,0.63,5.12c0.42,0.59,1.45,0.88,3.08,0.88h2.69v2.24h-19.27v-2.24h2.69c1.63,0,2.66-0.27,3.08-0.81
		c0.42-0.54,0.63-2.28,0.63-5.21v-23.3c0-1.8-0.32-2.98-0.95-3.55c-0.63-0.57-1.84-0.85-3.63-0.85h-1.82V303.42z"/>
	<path fill="#56565A" d="M621.75,291.23v12.19h9.64v2.7h-9.64v29.39c0,2.78,1.08,4.17,3.24,4.17c1.42,0,2.42-0.42,3-1.27
		c0.58-0.85,0.87-2.02,0.87-3.51v-3.63h3.24v2.39c0,2.88-0.72,5.13-2.17,6.75c-1.45,1.62-3.44,2.43-5.96,2.43
		c-3.48,0-5.79-0.82-6.95-2.47s-1.74-4.06-1.74-7.25v-27h-6.95v-2.7c3.16,0,5.63-1.12,7.42-3.36c1.79-2.24,2.92-5.18,3.4-8.83
		H621.75z"/>
</g>
</svg>
