<svg xmlns="http://www.w3.org/2000/svg" xmlns:xlink="http://www.w3.org/1999/xlink" version="1.2" viewBox="0 0 32 32" baseProfile="tiny-ps">
  <title>sophos-s-shield-rgb-32px</title>
  <rect width="32" height="32" fill="#005BC8"/>
  <path d="M7.7,8.1v10.5c0,1.1,0.6,2.1,1.5,2.6L16,25l6.7-3.7c1-0.5,1.5-1.5,1.5-2.6V8.1H7.7z M17.6,20.2h-5.5  v-1.9h5.5c0.5,0,1-0.4,1-1c0-0.5-0.4-1-1-1h-3l0,0c-1.6,0-2.8-1.3-2.8-2.8l0,0c0-1.6,1.3-2.8,2.8-2.8l0,0H20v1.9h-5.5  c-0.5,0-1,0.4-1,1s0.4,1,1,1h3c1.6,0,2.8,1.3,2.8,2.8C20.4,18.9,19.1,20.2,17.6,20.2z" fill="#FFFFFF"/>
</svg>