<?xml version="1.0" encoding="UTF-8"?>
<svg version="1.2" baseProfile="tiny-ps" id="uuid-5d8fc747-f4b3-471c-bba8-77529ab10b1a" xmlns="http://www.w3.org/2000/svg" xmlns:xlink="http://www.w3.org/1999/xlink" viewBox="0 0 283.46 283.46">
    <title>Your Brand</title>
    <path d="m283.46,141.73C283.46,63.47,219.99,0,141.73,0S0,63.47,0,141.73s63.47,141.73,141.73,141.73,141.73-63.47,141.73-141.73" fill="#e83f44" />
    <path d="m117.53,87.67c2.42.81,4.84,1.88,7.26,2.96l1.34.81c3.5,1.88,6.72,4.03,9.68,6.45s5.65,4.84,8.07,7.8c1.61,1.88,3.23,4.03,4.84,5.92,1.61,2.15,3.23,4.57,4.57,6.72,4.84,8.07,8.34,16.14,10.49,22.32,1.34,3.77,2.15,6.99,2.69,9.14.54,1.88.81,2.96.81,2.96h0v-.54c0-.27,0-.81.27-1.61,0-.81.27-1.61.54-2.69v-1.61c.27-1.08.54-2.15.54-3.23v-14.25h0v-.81c0-3.5,0-6.99-.54-11.03-.54-6.45-1.61-13.18-3.5-20.17-.54-1.88-1.08-4.03-1.88-5.92-.54-1.88-1.34-3.77-1.88-5.65-1.08-2.69-2.15-5.11-3.5-7.8s-2.69-5.38-4.3-7.8l-.54-1.08c-1.08-1.61-2.15-3.23-3.23-5.11l-1.08-1.61-1.34-1.88c-.81.54-1.61,1.08-2.15,1.61-1.08.81-1.88,1.34-2.96,2.15-1.08.81-2.42,1.61-3.5,2.69-1.88,1.34-3.5,2.69-5.38,4.03-.81.81-1.88,1.34-2.69,2.15-2.15,1.61-4.57,3.23-6.72,4.84-2.15,1.61-4.3,3.23-6.45,4.57-1.34.81-2.42,1.88-3.77,2.69l-1.61,1.34c1.08,0,1.88.54,2.96.81.81,0,1.61.54,2.42.81" fill="#fff" />
    <path d="m131.78,125.33c2.69-2.96,5.11-5.38,6.72-6.99,1.34-1.34,2.42-2.15,2.42-2.15h-.27c-.27,0-.81.27-1.61.54-.81,0-1.61.54-2.69,1.08l-1.34.54c-1.08.27-1.88.81-3.23,1.34-.81.27-1.61.54-2.42,1.08-.81.27-1.34.54-2.15,1.08l-1.61.81c-2.42,1.08-4.84,2.42-7.53,4.03-2.96,1.61-5.92,3.77-9.14,5.92-5.11,3.77-10.49,8.07-15.6,13.18-1.34,1.34-2.96,2.96-4.3,4.57-1.34,1.34-2.69,2.96-3.77,4.57-1.88,2.15-3.5,4.57-5.11,6.99-1.61,2.42-3.23,5.11-4.57,7.53l-.54,1.08c-.81,1.88-1.88,3.5-2.69,5.38-.27.54-.54,1.34-.81,1.88-.27.81-.54,1.34-.81,2.15.81.27,1.61.81,2.42,1.08,1.08.54,2.15,1.08,3.23,1.61,1.34.54,2.69,1.08,4.03,1.88,2.15.81,4.03,1.88,6.19,2.69,1.08.54,2.15.81,3.23,1.34,2.42,1.08,5.11,2.15,7.53,3.5,2.42,1.08,4.84,2.15,7.26,3.23,1.34.54,2.69,1.34,4.03,1.88.54.27,1.34.54,1.88.81-.27-1.08-.54-1.88-.81-2.96,0-.81-.54-1.61-.54-2.69-.54-2.69-.81-5.11-1.08-7.8v-1.61c0-4.03,0-7.8.81-11.56.54-3.77,1.61-7.26,2.69-10.76.81-2.42,1.61-4.84,2.69-7.26s2.42-4.84,3.5-7.26c4.57-8.34,9.68-15.33,14.25-20.44" fill="#fff" />
    <path d="m206.82,186.38c0-1.34,0-2.42-.27-3.77,0-1.34-.27-2.96-.54-4.3,0-2.15-.54-4.3-.81-6.72,0-1.08,0-2.42-.27-3.5-.27-2.69-.54-5.38-.81-8.34-.27-2.69-.54-5.11-.81-7.8,0-1.61-.27-2.96-.54-4.57v-2.15c-.81.81-1.34,1.34-2.15,2.15-.54.54-1.34,1.34-1.88,1.88-1.88,1.88-4.03,3.23-6.19,4.84l-1.34.81c-3.23,2.15-6.72,3.77-10.49,5.11-3.5,1.34-6.99,2.42-10.76,3.23-2.42.54-5.11.81-7.53,1.34-2.69.27-5.38.54-8.07.54-9.41,0-18.02-.81-24.74-2.15-4.03-.81-7.26-1.61-9.41-2.15-1.88-.54-2.96-.81-2.96-.81h0l.27.27,1.08,1.08c.54.54,1.34,1.08,2.15,1.88l1.08,1.08c.81.54,1.61,1.34,2.69,2.15.54.54,1.34,1.08,2.15,1.61.54.54,1.34.81,1.88,1.34l1.61,1.08c2.15,1.34,4.57,2.96,7.26,4.57,2.96,1.61,6.19,3.5,9.68,5.11,5.65,2.69,12.1,5.11,19.36,6.99,1.88.54,4.03,1.08,5.92,1.34,1.88.54,3.77.81,5.92,1.08,2.69.54,5.65.81,8.61,1.08h9.95c1.88,0,4.03,0,5.92-.54h1.88c.81,0,1.34,0,2.15-.27,0-.81,0-1.88-.27-2.69" fill="#fff" />
</svg>
