<svg xmlns="http://www.w3.org/2000/svg" xmlns:xlink="http://www.w3.org/1999/xlink" version="1.2" viewBox="0 0 297.359 297.359" baseProfile="tiny-ps">
  <title>Meethaq app Icon simple 2- Tiny 1.2-01</title>
  <g>
    <path d="M148.679,292.679L148.679,292.679c-79.538,0-144-64.463-144-144l0,0c0-79.537,64.463-144,144-144   l0,0c79.537,0,144,64.463,144,144l0,0C292.679,228.217,228.217,292.679,148.679,292.679z" fill="#7A1F17"/>
  </g>
  <g>
    <g>
      <path d="M134.842,125.954c-1.228,2.043-3.022,5.272-3.094,7.819c11.401,8.026,16.52,25.563,13.669,40.05    C157.29,160.654,146.953,137.159,134.842,125.954z" fill="#DBAE27"/>
      <path d="M149.636,132.479c0.113-0.113,0.225-0.169,0.225-0.225c1.695-1.433,4.85-1.876,6.694-2.756    c1.069-6.243-12.427-4.905-9.169,1.237c0.097,0.131,0.265,0.001,0.337,0c0.72-1.763,2.376-2.866,4.331-2.587    c0.108,0.01,0.164,0.147,0.056,0.225c0,0.056-0.056,0.056-0.113,0.113c-0.056,0-0.056,0.056-0.056,0.056    c-10.606,4.686,2.521,14.792,5.569,20.362c2.944,3.986,3.66,8.906,5.569,13.051C164.371,148.222,146.64,138.181,149.636,132.479z" fill="#DBAE27"/>
      <path d="M151.773,103.511c-0.204,0.026-0.385-0.062-0.562,0.056c-0.056,0-0.113,0.056-0.113,0.112    c-0.23,0.158-3.056,5.755-3.206,5.962c-0.678,0.973,7.622,5.368,7.988,5.681c-0.071,0.14-2.353,4.65-2.419,4.781    c-0.035,0.179-0.18,0.505,0.112,0.619c1.329,0.606,7.344,5.61,8.887,5.006c0.609-0.708,3.269-5.198,3.319-6.187    c-1.819-1.831-5.535-4.068-8.044-5.175c0.605-1.25,1.883-3.475,2.363-4.781C159.47,107.443,153.868,104.909,151.773,103.511z" fill="#DBAE27"/>
      <path d="M162.854,109.417c-0.032,6.725,7.477,6.76,4.725,0.788c-0.045,1.048-0.418,2.654-1.744,2.475    c-3.008-1.1-2.646-6.518-2.756-9.056l0,0l0,0l0,0c-0.1,0.013-0.072-0.033-0.113,0.056c0,0,0,0,0,0.056l0,0    C162.519,105.451,162.673,107.72,162.854,109.417z" fill="#DBAE27"/>
      <path d="M152.786,96.761c0.036,0.608,0.071,1.564,0.169,2.137c-1.109-1.864-2.558-5.503-5.175-5.456    c-0.083,0.029-0.142,0.084-0.225,0.113c-0.915,1.331-0.221,2.805,1.463,2.7c0.056,0,0.056,0,0.056,0    c0.003-0.076-0.019-0.104,0.056-0.169c0-0.056,0.056-0.056,0.056-0.112c1.686,0.792,3.093,3.579,3.769,5.456l0,0    c-0.014-0.014,0.098,0.098,0.113,0.113c0.037-0.018,0.216,0.048,0.225-0.056l0.056-0.056c0.663-2.229,0.082-5.232,0.506-7.538    c-0.021-0.098,0.04-0.194,0.056-0.337c0.25-0.643,1.255-0.237,1.575,0.169l0,0l0,0c0.091-0.022,0.374,0.057,0.394-0.056    c0.501-0.934-0.129-2.127-1.181-2.362l0,0l0,0l0,0c-2.244,0.383-1.516,3.391-1.688,5.231    C152.786,96.367,152.786,96.536,152.786,96.761z" fill="#DBAE27"/>
      <path d="M146.261,119.823c-0.918-1.387-2.171-3.623-3.994-3.431c-0.083,0.029-0.142,0.084-0.225,0.113    c-0.814,1.335-0.442,2.543,1.238,2.644c0.271,0.004,0.157,0.036,0.281-0.169c0-0.056,0.056-0.056,0.056-0.112    c1.686,0.792,3.093,3.579,3.769,5.456l0,0c0,0,0,0.056,0.056,0.056l0.056,0.056c0.037-0.018,0.216,0.048,0.225-0.056l0.056-0.056    c0.708-2.252-0.004-5.291,0.563-7.594c-0.021-0.098,0.04-0.194,0.056-0.337c0.272-0.663,1.164-0.198,1.575,0.113l0,0    c0.102,0,0.215,0,0.338,0c0.241-0.327,0.355-1.32,0-1.631c-0.218-0.356-0.688-0.72-1.125-0.9l0,0h-0.056    c-2.726,0.674-1.476,5.566-1.519,7.819C147.431,121.238,146.599,120.511,146.261,119.823z" fill="#DBAE27"/>
      <path d="M168.086,120.104c-0.083,0.029-0.142,0.084-0.225,0.113c-0.814,1.335-0.442,2.543,1.238,2.644    c0.286-0.029,0.262,0.106,0.394-0.169c0-0.056,0.056-0.056,0.056-0.112c1.624,0.72,3.13,3.628,3.769,5.456l0,0    c0.028,0.028,0.085,0.085,0.113,0.113c0.037-0.018,0.216,0.048,0.225-0.056l0.056-0.056c0.66-2.242,0.082-5.279,0.506-7.594    c-0.021-0.098,0.04-0.194,0.056-0.337c0.14-0.258,0.361-0.384,0.675-0.337c0,0,0.056,0.056,0.169,0.056    c0.209,0.098,0.625,0.233,0.731,0.45l0,0l0,0c0.061,0,0.185,0,0.281,0c0.256-0.33,0.356-1.317,0-1.631    c-0.325-0.246-0.727-0.684-1.181-0.844l0,0l0,0c-2.709,0.705-1.484,5.627-1.519,7.875c-0.748-1.491-2.004-3.683-3.319-4.837    C169.62,120.462,168.675,120.042,168.086,120.104z" fill="#DBAE27"/>
      <path d="M128.148,143.223c-0.925-1.419-2.173-3.588-4.05-3.431c-0.083,0.029-0.142,0.084-0.225,0.113    c-0.934,1.466-0.239,2.712,1.519,2.644c0.001-0.039-0.016-0.121,0.056-0.169c0-0.056,0.056-0.056,0.056-0.112    c1.686,0.792,3.093,3.579,3.769,5.456l0,0c0,0,0,0.056,0.056,0.056l0.056,0.056c0.037-0.018,0.216,0.048,0.225-0.056l0.056-0.056    c0.707-2.249-0.011-5.297,0.562-7.594c-0.021-0.098,0.04-0.194,0.056-0.337c0.321-0.667,1.15-0.194,1.575,0.113l0,0    c0.078,0,0.231,0,0.338,0c0.697-1.023-0.222-2.078-1.237-2.475l0,0l0,0l0,0c-2.642,0.823-1.417,5.609-1.462,7.875    C129.289,144.745,128.479,143.864,128.148,143.223z" fill="#DBAE27"/>
      <path d="M176.692,193.511c0.056-0.45,0.056-0.844,0.169-0.9c-0.021-0.098,0.04-0.194,0.056-0.338    c0.313-0.644,1.149-0.229,1.519,0.169l0,0l0,0c0.11-0.024,0.362,0.06,0.394-0.056c0.165-0.351,0.305-1.276-0.056-1.575    c-0.325-0.246-0.727-0.684-1.181-0.844l0,0l0,0c0,0,0,0-0.056,0c-2.689,0.93-1.405,5.469-1.463,7.819    c-1.108-1.851-2.543-5.496-5.119-5.456c-0.083,0.029-0.142,0.084-0.225,0.113c-0.887,1.408-0.32,2.656,1.406,2.644    c0.114,0.024,0.005-0.107,0.113-0.169c0-0.056,0.056-0.056,0.056-0.113c1.578,0.671,3.162,3.688,3.825,5.456l0,0    c-0.014-0.014,0.098,0.098,0.113,0.113c0.066-0.014,0.147,0.042,0.169-0.056l0.056-0.056    C177.066,198.234,176.721,195.663,176.692,193.511z" fill="#DBAE27"/>
      <path d="M144.798,195.817c0.056-0.45,0.056-0.844,0.169-0.9c-0.021-0.098,0.04-0.194,0.056-0.338    c0.073-0.149,0.215-0.337,0.45-0.337c0.056,0,0.056,0,0.056,0c0.296-0.015,0.773,0.283,1.013,0.45l0,0c0.078,0,0.231,0,0.338,0    c0.256-0.33,0.356-1.317,0-1.631c-0.329-0.249-0.724-0.701-1.181-0.844l0,0l0,0c-2.725,0.689-1.476,5.556-1.519,7.819    c-1.106-1.863-2.747-5.87-5.4-5.4c-0.839,1.357-0.401,2.585,1.294,2.644c0.056,0,0.056,0,0.056,0c0.063,0,0.105,0,0.169,0    c0.003-0.076-0.019-0.104,0.056-0.169c0-0.056,0.056-0.056,0.056-0.113c1.603,0.664,3.141,3.718,3.769,5.512l0,0    c0,0,0,0.056,0.056,0.056l0.056,0.056c0.085-0.02,0.192,0.053,0.225-0.056l0.056-0.056    C145.185,200.471,144.799,197.982,144.798,195.817z" fill="#DBAE27"/>
      <path d="M104.298,179.617c0.185,0.096,0.371,0.196,0.45,0.337l0,0l0,0c0.337,0.046,0.432-0.091,0.506-0.45    c0.323-0.988-0.58-1.692-1.406-2.081l0,0l0,0c0,0,0,0-0.056,0c-2.829,0.827-1.349,5.448-1.575,7.819    c-1.103-1.828-2.548-5.504-5.119-5.456c-0.083,0.029-0.142,0.084-0.225,0.113c-0.863,1.381-0.361,2.622,1.35,2.644    c0.172,0.034,0.058-0.071,0.169-0.169c0-0.056,0.056-0.056,0.056-0.113c1.624,0.72,3.13,3.628,3.769,5.456l0,0    c-0.014-0.014,0.098,0.098,0.113,0.113c0.037-0.018,0.216,0.048,0.225-0.056l0.056-0.056c0.693-2.38,0.028-5.495,0.563-7.931    c0.12-0.155,0.208-0.34,0.45-0.338c0.056,0,0.056,0,0.056,0C103.848,179.442,104.107,179.521,104.298,179.617z" fill="#DBAE27"/>
      <path d="M166.511,151.942L166.511,151.942C166.454,151.942,166.454,151.942,166.511,151.942    C166.454,151.942,166.454,151.942,166.511,151.942c-0.128,0-0.177-0.023-0.169,0.113l0,0c-0.435,3.408-0.82,9.557,2.925,10.912    c2.563,0.294,3.026-2.791,1.8-4.387c-0.045,1.048-0.418,2.654-1.744,2.475C166.268,159.962,166.708,154.465,166.511,151.942    L166.511,151.942z" fill="#DBAE27"/>
      <path d="M154.473,157.679L154.473,157.679L154.473,157.679    C154.417,157.679,154.417,157.679,154.473,157.679c-0.128,0-0.177-0.023-0.169,0.113l0,0c-2.265,13.468,7.791,13.06,4.725,6.525    c-0.045,1.048-0.418,2.654-1.744,2.475C154.212,165.696,154.697,160.213,154.473,157.679L154.473,157.679z" fill="#DBAE27"/>
      <path d="M134.392,165.386L134.392,165.386L134.392,165.386c-0.114,0.016-0.13-0.044-0.169,0.056    c0,0,0,0,0,0.056l0,0c-0.434,3.405-0.821,9.556,2.925,10.913c2.574,0.33,3.111-2.764,1.856-4.387    c0.053,1.207-0.801,3.134-2.194,2.306C134.318,172.605,134.655,167.929,134.392,165.386L134.392,165.386z" fill="#DBAE27"/>
      <path d="M106.154,171.517c1.012-1.052,0.508-2.684-0.113-3.713c0.051,1.219-0.805,3.13-2.194,2.306    c-2.471-1.748-2.25-6.405-2.306-9l0,0l0,0l0,0c-0.103-0.01-0.115,0.015-0.113,0.113l0,0    C100.731,164.448,101.018,174.37,106.154,171.517z" fill="#DBAE27"/>
      <path d="M107.673,182.092L107.673,182.092L107.673,182.092c-0.128,0-0.177-0.023-0.169,0.113l0,0    c-2.243,13.48,7.723,13.031,4.669,6.525c0.045,0.344-0.117,0.912-0.225,1.181C108.749,194.942,107.202,184.138,107.673,182.092    L107.673,182.092z" fill="#DBAE27"/>
      <path d="M98.842,190.811L98.842,190.811L98.842,190.811c-0.114,0.016-0.13-0.044-0.169,0.056    c0,0,0,0,0,0.056l0,0c-2.283,13.427,7.792,13.078,4.725,6.525c-0.042,1.05-0.415,2.651-1.744,2.475    C98.583,198.773,99.072,193.349,98.842,190.811C98.898,190.811,98.842,190.811,98.842,190.811z" fill="#DBAE27"/>
      <path d="M152.561,192.948L152.561,192.948L152.561,192.948c-0.056,0-0.113,0-0.113,0l-0.056,0.056v0.056    l0,0c-2.261,13.459,7.747,13.042,4.669,6.525c-0.049,1.052-0.383,2.712-1.744,2.531    C152.244,201.001,152.681,195.513,152.561,192.948L152.561,192.948z" fill="#DBAE27"/>
      <path d="M179.111,185.298c2.568,0.267,3.026-2.778,1.8-4.387c0.051,1.219-0.805,3.13-2.194,2.306    c-2.455-1.722-2.255-6.391-2.306-8.944l0,0l0,0l0,0c-0.103-0.01-0.115,0.015-0.113,0.113l0,0    c-0.447,3.382-0.76,9.187,2.644,10.856C178.998,185.298,179.054,185.298,179.111,185.298z" fill="#DBAE27"/>
      <path d="M147.217,224.336c-0.112-0.169-0.169-0.281-0.169-0.281c0.018,1.027-0.344,2.619-1.688,2.419    c-2.901-1.048-2.453-6.187-2.587-8.606l0,0l0,0l0,0c-0.046,0.008-0.096-0.027-0.113,0.056c0,0,0,0,0,0.056l0,0    C140.672,230.716,149.827,230.467,147.217,224.336z" fill="#DBAE27"/>
      <path d="M170.617,223.379c-0.056-0.169-0.113-0.225-0.169-0.225c0.015,0.285-0.047,0.766-0.169,1.013    c-0.096,0.776-0.826,1.345-1.519,0.956c-2.172-1.299-1.944-5.422-2.025-7.537l0,0l0,0l0,0c-0.056,0-0.056,0-0.056,0    s0,0-0.056,0.056c0,0,0,0,0,0.056l0,0c-0.359,2.914-0.575,7.515,2.081,9.169c0.113,0.057,0.226,0.03,0.337,0.113    C171.168,227.282,171.676,224.648,170.617,223.379z" fill="#DBAE27"/>
      <path d="M115.042,195.704c2.372,1.081,4.652,4.14,7.256,3.656c0.451-1.312,3.444-4.486,2.081-5.794    c-1.969-1.054-5.072-3.732-7.256-4.05c-0.345,0.056-3.127,5.313-2.812,5.681c0,0.056,0.056,0.113,0.112,0.113    C114.311,195.254,114.592,195.423,115.042,195.704z" fill="#DBAE27"/>
      <path d="M112.173,205.154c1.909,1.212,4.449,2.995,6.356,4.163c1.84,1.202,3.159-3.486,3.938-4.331    c1.922,0.608,6.712,5.901,8.156,3.432c3.851-6.432,2.391-4.489-4.725-9.282c-0.3-0.112-0.688-0.176-1.013-0.056    c-0.155-0.236-2.379,4.524-2.475,4.613c-1.999-1.422-4.804-3.549-7.2-4.444l0,0c-0.094,0.027-0.404-0.065-0.45,0.056    c-0.056,0-0.056,0.056-0.112,0.056c-0.174,0.049-2.649,5.006-2.756,5.119C111.887,204.728,111.867,205.003,112.173,205.154z" fill="#DBAE27"/>
      <path d="M170.111,230.298c-1.77-1.153-4.782-3.207-6.75-4.106c-0.301,0.007-0.584-0.032-0.9,0.056    c-0.15-0.105-2.457,4.4-2.588,4.556c-1.799-1.272-4.853-3.494-6.919-4.331c-0.259,0.036-0.761-0.11-0.9,0.169    c-0.138,0.131-2.699,5.17-2.812,5.344c2.427,1.162,5.35,4.52,8.1,4.5c0.138-0.034,0.134-0.096,0.225-0.169l2.419-4.275    c1.096,0.309,6.933,5.602,7.987,3.656c0.237-0.767,2.879-4.381,2.194-5.231C170.336,230.467,170.223,230.354,170.111,230.298z" fill="#DBAE27"/>
      <path d="M199.642,216.854c-0.375-1.384-1.364-3.191-3.038-2.812c-0.056,0-0.169,0.056-0.225,0.056    c-0.757,0.518-1.777,1.56-2.812,1.631c-3.258,7.243-13.782,9.939-21.037,12.994c6.528-1.138,18.371-3.851,20.981-11.081    c1.724,0.635,7.174,4.195,6.581,0C199.867,217.586,199.811,217.248,199.642,216.854z M197.279,217.473    c-0.861-0.23-1.616-0.605-1.294-1.519c0.085-0.134,0.057-0.131,0.113-0.225c0.08-0.054,0.132-0.03,0.225-0.113    c0.242-0.04,0.426,0.068,0.619,0.113c0.68,0.527,1.271,1.118,1.631,1.8C198.011,217.642,197.617,217.529,197.279,217.473z" fill="#DBAE27"/>
      <path d="M184.792,185.186c-1.271,1.019-3.547,2.582-4.669,3.6c6.169-3.783,15.297-7.957,15.413-16.481    c-0.058,0.006-0.214-0.025-0.281,0.056c-0.056,0-0.113,0.056-0.169,0.056C193.586,177.538,189.571,181.789,184.792,185.186z" fill="#DBAE27"/>
      <path d="M170.223,131.073c-9.757-1.145-13.261,16.294-4.669,19.857c5.563,3.392,16.611-6.972,18.957,0.393    c-19.055,32.406-94.02,47.551-64.181-11.194c0-0.056-0.056-0.112-0.112-0.112c-0.094-0.069-0.288-0.108-0.338,0    c0,0-0.056,0-0.056,0.056c-16.445,17.267-12.153,53.097,17.72,49.556c18.667-3.212,38.105-15.427,48.544-32.285    C188.259,146.611,183.251,131.407,170.223,131.073z M175.229,141.142c-2.276,0.945-4.621,2.432-7.031,2.419c0,0,0,0-0.056,0l0,0    l0,0l0,0l0,0l0,0l0,0c-1.148,0.047-2.435-0.584-3.15-1.35c2.094-4.293,7.758-3.548,10.969-1.237    C175.679,140.973,175.454,141.029,175.229,141.142z" fill="#DBAE27"/>
      <path d="M209.261,198.348c-3.597-14.052-15.801-14.733-19.575-0.619l-2.419-0.731    c-2.29,2.595-2.198,7.146-5.119,9.281c-3.643,3.499-10.111,4.367-13.162-0.056c-4.681-6.564-1.912-17.322-6.806-23.794    c-2.322,3.48-2.275,8.382-1.069,12.206c1.313,3.976,1.769,8.963,2.588,13.106c0.947,4.504-5.2,6.751-8.55,7.031    c-6.342,0.618-6.187-6.428-7.031-10.238c-0.324-0.193-0.777,0.174-0.9,0.45c-30.725,23.967-69.998,0.942-53.211-37.406    c16.566-38.07,61.189-60.002,58.33-106.988c-0.873,39.655-41.754,60.998-57.263,93.206c-12.1,22.614-10.667,61.493,17.438,68.457    c12.666,3.039,24.725-1.592,33.356-9.732c-0.566,15.645,18.66,11.869,19.462-1.012c0.206,0.01,0.269,0.228,0.45,0.338    c5.655,10.698,18.897,4.255,19.912-5.626c0.017-0.456,0.424-0.62,0.732-0.787c5.315,1.746,11.327,2.943,16.481,3.544    c3.758,0.387,4.282-4.175,5.625-6.637C209.302,201.187,209.319,199.705,209.261,198.348z M201.779,200.598    c-3.084-0.426-7.751-0.955-10.462-2.531c0.651-1.286,1.917-3.13,3.656-2.981l0,0l0,0c3.452,0.117,6.456,2.598,8.494,5.681    C203.354,200.767,202.736,200.711,201.779,200.598z" fill="#DBAE27"/>
    </g>
  </g>
</svg>