<?xml version="1.0" encoding="iso-8859-1" standalone="yes"?><!-- Generator: Adobe Illustrator 25.4.2, SVG Export Plug-In . SVG Version: 6.00 Build 0)  --><svg xmlns="http://www.w3.org/2000/svg" xmlns:xlink="http://www.w3.org/1999/xlink" version="1.2" viewBox="0 0 147.402 130.394" xml:space="preserve" baseProfile="tiny-ps"><title>RAC-logo-badge-only-7-12-2021-vs3</title><g><linearGradient id="SVGID_1_" gradientUnits="userSpaceOnUse" x1="34.7595" y1="112.4924" x2="112.5854" y2="34.6665"><stop offset="0" stop-color="#19294D"></stop><stop offset="0.32" stop-color="#2C4471"></stop><stop offset="0.54" stop-color="#375485"></stop><stop offset="1" stop-color="#000125"></stop></linearGradient><path d="M139.645,61.733c-0.375-0.353-53.43-53.43-53.43-53.43   c-8.688-6.465-17.779-6.118-24.665,1.446c0,0-53.413,51.631-53.787,51.983C2.17,67.029,0.345,77.782,7.7,85.313   c0.656,0.672,36.158,36.44,38.809,38.774c3.566,3.145,6.825,3.696,10.982,3.696l31.984-2.92c4.146,0,7.408-0.556,10.973-3.694   c2.648-2.343,38.592-35.185,39.254-35.857C147.057,77.782,145.229,67.029,139.645,61.733z" fill="url(#SVGID_1_)"></path><linearGradient id="SVGID_00000098907755265040579740000005071123473361734283_" gradientUnits="userSpaceOnUse" x1="49.7227" y1="0.8948" x2="45.2866" y2="64.3337"><stop offset="0" stop-color="#FFD600"></stop><stop offset="0.1236" stop-color="#FFC300"></stop><stop offset="0.4863" stop-color="#FF9100"></stop><stop offset="0.6648" stop-color="#FF7D01"></stop></linearGradient><path d="M86.186,8.159   c-6.492-6.908-17.409-7.895-24.97,0.059c0,0-53.82,53.83-53.423,53.492C25.639,46.192,65.386,8.409,86.844,8.872   C86.557,8.584,86.504,8.483,86.186,8.159z" fill="url(#SVGID_00000098907755265040579740000005071123473361734283_)"></path><linearGradient id="SVGID_00000003106253279699031260000001448958136218229651_" gradientUnits="userSpaceOnUse" x1="67.8238" y1="137.6634" x2="130.2643" y2="75.2229"><stop offset="0.0852" stop-color="#FFD600"></stop><stop offset="0.3867" stop-color="#FFAA00"></stop><stop offset="0.6543" stop-color="#FF8900"></stop><stop offset="0.8011" stop-color="#FF7D01"></stop></linearGradient><path d="M139.955,85.059   c0.014-0.012,0.088-0.102,0.059-0.075c-4.111,3.66-38.482,35.003-82.07,42.8c-0.02,0,32.124,0,32.124,0   c4.154,0,7.373-0.36,10.99-3.696C104.684,120.749,139.858,85.154,139.955,85.059z" fill="url(#SVGID_00000003106253279699031260000001448958136218229651_)"></path><path d="M77.618,74.865h-6.456l5.428-9.267L77.618,74.865z M87.85,86.304l-5.412-29.883c0,0-6.15,0-6.703,0   c-0.873,0-2.714,0.197-4.232,2.717c-1.404,2.166-14.185,22.269-14.185,22.269l0.004,4.897h7.112l2.801-4.735h11.099l0.551,4.735   H87.85z" fill="#FFD600"></path><path d="M49.66,67.143c-0.494,2.151-2.279,3.204-5.41,3.204h-3.968l1.458-6.325h3.704   C48.743,64.022,50.135,65.072,49.66,67.143 M33.421,58.519l-0.651,2.881l-5.725,24.896h9.668l2.597-11.408   c2.447,0,6.733,0.479,6.52,7.981c-0.019,0.666-0.131,3.078-0.165,3.435h10.348c0-0.973-0.015-1.925-0.02-3.18   c-0.011-2.408-0.127-4.436-0.61-6.159c-0.439-1.731-1.253-3.163-2.358-4.3c1.63-0.59,5.273-2.486,6.578-7.339   c0.708-2.632,0.495-8.895-9.535-8.932H32.864L33.421,58.519z" fill="#FFD600"></path><path d="M107.752,74.884c-0.395,0.545-0.832,0.981-1.379,1.413c-1.363,1.073-2.973,1.617-4.854,1.617   c-1.844,0-3.23-0.614-4.158-1.83c-0.924-1.231-1.178-2.776-0.75-4.655c0.445-1.939,1.428-3.538,2.943-4.797   c1.52-1.258,3.227-1.894,5.119-1.894c2.619,0,4.207,1.223,4.805,3.702h9.842c-0.029-2.918-0.969-5.971-2.484-7.844   c-2.287-2.854-5.617-4.281-10.02-4.281c-4.459,0-8.551,1.452-12.264,4.361c-3.717,2.91-6.061,6.496-7.039,10.752   c-0.967,4.238-0.291,7.792,2.043,10.65c2.346,2.856,5.725,4.283,10.158,4.283c4.367,0,8.191-1.254,11.482-3.773   c2.482-1.895,4.658-4.68,6.178-7.705H107.752z" fill="#FFD600"></path></g></svg>