<?xml version="1.0" encoding="utf-8"?>
<!-- Generator: Adobe Illustrator 28.2.0, SVG Export Plug-In . SVG Version: 6.00 Build 0)  -->
<svg version="1.2" baseProfile="tiny-ps" xmlns="http://www.w3.org/2000/svg" xmlns:xlink="http://www.w3.org/1999/xlink" viewBox="0 0 1080 1079" xml:space="preserve">
<title>Kiwibank</title>
<g id="Layer_1">
	<rect x="1.4" y="-0.2" width="1080" height="1080"/>
</g>
<g id="Layer_2">
	<g>
		<g>
			<g>
				<path fill="#FFFFFF" d="M414.5,609.6h-38.1l-51.7-67.5v67.5h-30V461.7h30v64.6l50.3-64.6h35.9l-57.3,69.9L414.5,609.6z"/>
				<path fill="#FFFFFF" d="M456.5,476.3c0,9.5-7.7,16.8-17.4,16.8c-9.9,0-17.4-7.3-17.4-16.8c0-9.5,7.5-17,17.4-17
					C448.8,459.3,456.5,466.8,456.5,476.3z M424.5,609.6V505.3h29.2v104.3H424.5z"/>
				<path fill="#FFFFFF" d="M612.3,505.3h28.6l-36.3,104.3h-27.8l-23.1-65l-23.1,65h-27.8l-36.3-104.3h29.8l21.7,64.8l22.5-64.8
					h27.6l22.5,64.8L612.3,505.3z"/>
				<path fill="#FFFFFF" d="M684.4,476.3c0,9.5-7.7,16.8-17.4,16.8c-9.9,0-17.4-7.3-17.4-16.8c0-9.5,7.5-17,17.4-17
					C676.7,459.3,684.4,466.8,684.4,476.3z M652.4,609.6V505.3h29.2v104.3H652.4z"/>
			</g>
			<g>
				<path fill="#FFFFFF" d="M402.8,732.8c0,31-22.5,53.9-49.8,53.9c-11.3,0-21.3-4.3-29-11.3v9.3h-29.2V636.8H324v53.3
					c7.7-7.3,17.6-11.5,29-11.5C380.3,678.5,402.8,701.6,402.8,732.8z M373.8,732.6c0-16.8-10.3-29.2-25.3-29.2
					c-15.6,0-26.3,12.4-26.3,29.2c0,16.8,10.7,29.4,26.3,29.4C363.5,762,373.8,749.4,373.8,732.6z"/>
				<path fill="#FFFFFF" d="M491.9,680.3h29.2v104.3h-29.2v-9.3c-7.7,7.1-17.6,11.3-29,11.3c-27.4,0-49.8-22.9-49.8-53.9
					c0-31.2,22.5-54.3,49.8-54.3c11.3,0,21.3,4.3,29,11.5V680.3z M493.7,732.6c0-16.8-10.7-29.2-26.3-29.2
					c-15,0-25.3,12.4-25.3,29.2c0,16.8,10.3,29.4,25.3,29.4C483,762,493.7,749.4,493.7,732.6z"/>
				<path fill="#FFFFFF" d="M633.8,718.4v66.3h-29.2v-59c0-14.6-5.3-22.3-17-22.3c-12.2,0-18.2,8.1-18.2,22.3v59h-29.2V680.3h29v9.5
					c6.3-7.3,16.4-11.5,26.5-11.5C619.8,678.3,633.8,693.7,633.8,718.4z"/>
				<path fill="#FFFFFF" d="M753.1,784.7h-35.1l-36.7-47.2v47.2h-29.2V636.8h29.2v84.5l35.5-40.9h35.1l-43,48.2L753.1,784.7z"/>
				<path fill="#FFFFFF" d="M795.9,768.7c0,9.7-7.7,17.2-17.4,17.2c-9.9,0-17.4-7.5-17.4-17.2c0-9.7,7.5-17.2,17.4-17.2
					C788.2,751.5,795.9,759,795.9,768.7z"/>
			</g>
		</g>
		<g>
			<path fill="#2E8752" d="M249.3,254.9l-53.8,53.8c-14.7,14.7-22.9,34.6-22.9,55.3v544.1h652.9v-76.7H249.3V254.9z"/>
			<path fill="#19E480" d="M249.4,254.7l53.8-53.8c14.7-14.7,34.6-22.9,55.3-22.9h544.1V831H826V254.7H249.4z"/>
		</g>
	</g>
</g>
</svg>