<?xml version="1.0"?>
<svg xmlns="http://www.w3.org/2000/svg" xmlns:xlink="http://www.w3.org/1999/xlink" version="1.2" viewBox="0 0 512 512" baseProfile="tiny-ps">
  <title>Cydea Ltd</title>
  <linearGradient id="SVGID_1_" gradientUnits="userSpaceOnUse" x1="-46.8513" y1="81.3556" x2="558.8513" y2="431.0581">
    <stop offset="0" stop-color="#E52D7A"/>
    <stop offset="0.8272" stop-color="#FF5A28"/>
  </linearGradient>
  <rect y="0.207" width="512" height="512" fill="url(#SVGID_1_)"/>
  <g>
    <g>
      <path d="M118.513,289.369c-5.955,0-11.249-1.375-15.884-4.127c-4.635-2.75-8.292-6.5-10.966-11.248    c-2.676-4.748-4.014-10.1-4.014-16.054c0-6.029,1.281-11.418,3.844-16.167c2.562-4.748,6.066-8.497,10.514-11.249    c4.446-2.75,9.57-4.126,15.375-4.126c4.596,0,8.836,0.904,12.718,2.713c3.881,1.809,7.292,4.522,10.231,8.14    c0.829,0.904,1.13,1.865,0.904,2.883s-0.867,1.904-1.922,2.657c-0.83,0.604-1.752,0.811-2.77,0.622    c-1.018-0.187-1.904-0.735-2.657-1.639c-4.372-4.974-9.875-7.461-16.506-7.461c-4.222,0-7.933,1.018-11.136,3.052    c-3.204,2.035-5.691,4.824-7.461,8.366c-1.771,3.543-2.657,7.613-2.657,12.209c0,4.522,0.941,8.555,2.827,12.097    c1.883,3.543,4.522,6.331,7.914,8.365c3.392,2.035,7.272,3.053,11.644,3.053c2.939,0,5.633-0.396,8.083-1.188    c2.448-0.791,4.616-2.015,6.5-3.674c0.904-0.752,1.846-1.168,2.826-1.243c0.979-0.074,1.883,0.226,2.713,0.904    c0.904,0.83,1.413,1.772,1.526,2.826c0.113,1.057-0.246,1.961-1.074,2.714C133.586,286.845,126.727,289.369,118.513,289.369z" fill="#FFFFFF"/>
      <path d="M181.369,286.882c-1.131,0.528-2.187,0.622-3.166,0.282c-0.98-0.339-1.772-1.074-2.374-2.204    l-25.211-52.23c-0.528-1.13-0.604-2.185-0.226-3.165c0.376-0.979,1.13-1.733,2.261-2.261c1.13-0.526,2.185-0.622,3.166-0.283    c0.979,0.339,1.733,1.074,2.261,2.205l24.759,52.23c0.602,1.131,0.791,2.188,0.565,3.166    C183.177,285.602,182.499,286.355,181.369,286.882z M168.82,315.71c-0.604,0-1.283-0.151-2.035-0.452    c-2.563-1.13-3.278-2.939-2.148-5.427l36.516-80.493c1.13-2.411,2.939-3.089,5.426-2.035c2.562,1.056,3.279,2.826,2.148,5.313    l-36.629,80.494C171.344,314.843,170.25,315.71,168.82,315.71z" fill="#FFFFFF"/>
      <path d="M248.294,289.369c-5.955,0-11.305-1.375-16.053-4.127c-4.749-2.75-8.499-6.5-11.25-11.248    c-2.752-4.748-4.126-10.137-4.126-16.167c0-5.953,1.337-11.305,4.014-16.053c2.674-4.748,6.312-8.497,10.909-11.249    c4.596-2.75,9.797-4.126,15.602-4.126c5.049,0,9.609,1.074,13.679,3.222c4.07,2.148,7.348,4.994,9.836,8.536v-33.237    c0-1.357,0.412-2.431,1.242-3.222c0.828-0.792,1.883-1.187,3.166-1.187c1.281,0,2.336,0.396,3.166,1.187    c0.828,0.792,1.242,1.865,1.242,3.222v53.36c-0.15,5.879-1.602,11.175-4.352,15.885c-2.752,4.711-6.482,8.422-11.191,11.135    C259.466,288.012,254.173,289.369,248.294,289.369z M248.294,281.455c4.371,0,8.271-1.035,11.701-3.109    c3.428-2.071,6.143-4.879,8.139-8.422c1.996-3.541,2.996-7.574,2.996-12.097c0-4.446-1-8.459-2.996-12.04    c-1.996-3.579-4.711-6.387-8.139-8.422c-3.429-2.035-7.33-3.052-11.701-3.052c-4.297,0-8.178,1.018-11.645,3.052    c-3.467,2.035-6.217,4.844-8.252,8.422c-2.036,3.581-3.053,7.594-3.053,12.04c0,4.522,1.018,8.556,3.053,12.097    c2.035,3.543,4.785,6.351,8.252,8.422C240.117,280.42,243.998,281.455,248.294,281.455z" fill="#FFFFFF"/>
      <path d="M328.107,289.369c-6.105,0-11.514-1.338-16.224-4.014c-4.711-2.674-8.404-6.387-11.079-11.136    c-2.676-4.748-4.013-10.175-4.013-16.279c0-6.179,1.261-11.625,3.787-16.336c2.524-4.709,6.01-8.422,10.457-11.136    c4.446-2.713,9.57-4.07,15.375-4.07c5.728,0,10.721,1.3,14.979,3.9c4.258,2.601,7.556,6.201,9.893,10.797    c2.335,4.598,3.505,9.835,3.505,15.714c0,1.206-0.379,2.167-1.131,2.883c-0.755,0.717-1.734,1.073-2.939,1.073h-48.047v-7.235    h48.951l-4.861,3.505c0.074-4.37-0.717-8.29-2.374-11.758c-1.658-3.465-4.014-6.179-7.065-8.14    c-3.053-1.959-6.689-2.939-10.91-2.939c-4.296,0-8.065,1.018-11.305,3.053c-3.241,2.035-5.748,4.843-7.519,8.422    c-1.771,3.581-2.656,7.67-2.656,12.266c0,4.599,0.998,8.668,2.996,12.21c1.996,3.543,4.729,6.33,8.196,8.365    c3.466,2.035,7.461,3.053,11.983,3.053c2.713,0,5.444-0.47,8.196-1.413c2.75-0.941,4.955-2.128,6.613-3.562    c0.828-0.678,1.771-1.035,2.826-1.074c1.055-0.037,1.959,0.246,2.714,0.849c0.979,0.904,1.487,1.885,1.525,2.938    c0.037,1.057-0.396,1.961-1.3,2.714c-2.487,2.11-5.652,3.863-9.496,5.257C335.343,288.673,331.649,289.369,328.107,289.369z" fill="#FFFFFF"/>
      <path d="M396.729,289.369c-5.804,0-11.005-1.375-15.601-4.127c-4.599-2.75-8.235-6.5-10.91-11.248    c-2.676-4.748-4.013-10.1-4.013-16.054c0-6.029,1.374-11.418,4.126-16.167c2.751-4.748,6.501-8.497,11.249-11.249    c4.748-2.75,10.099-4.126,16.054-4.126c5.952,0,11.285,1.376,15.996,4.126c4.71,2.752,8.44,6.5,11.192,11.249    c2.751,4.748,4.164,10.138,4.239,16.167l-3.504,2.714c0,5.426-1.264,10.307-3.787,14.64c-2.526,4.335-5.955,7.764-10.288,10.288    C407.148,288.107,402.23,289.369,396.729,289.369z M397.635,281.455c4.37,0,8.271-1.018,11.7-3.053    c3.429-2.034,6.143-4.842,8.14-8.422c1.996-3.578,2.996-7.592,2.996-12.04c0-4.522-1-8.553-2.996-12.097    c-1.997-3.542-4.711-6.349-8.14-8.422c-3.43-2.072-7.33-3.109-11.7-3.109c-4.297,0-8.179,1.037-11.645,3.109    c-3.468,2.074-6.218,4.881-8.253,8.422c-2.035,3.543-3.053,7.575-3.053,12.097c0,4.448,1.018,8.462,3.053,12.04    c2.035,3.58,4.785,6.388,8.253,8.422C389.456,280.438,393.338,281.455,397.635,281.455z M424.654,288.804    c-1.283,0-2.338-0.396-3.166-1.187c-0.83-0.792-1.243-1.827-1.243-3.109v-19.332l2.147-8.931l6.67,1.696v26.567    c0,1.282-0.415,2.317-1.243,3.109C426.989,288.408,425.935,288.804,424.654,288.804z" fill="#FFFFFF"/>
    </g>
  </g>
</svg>
