<?xml version="1.0" encoding="UTF-8" standalone="yes"?>
<svg version="1.2" baseProfile="tiny-ps" viewBox="0 0 750 750" xml:space="preserve" xmlns="http://www.w3.org/2000/svg">
  <title>Telstra Group Limited</title>
  <desc>Telstra BIMI Logo</desc>
  <g>
    <rect fill="white" width="750" height="750"/>
	<path fill="#f96449" d="M 429.19316 344.8248 L 407.0694 474.8082 C 402.50077 498.1983 387.09944 504.5311 373.42336 504.5311 L 270.95805 504.5311 L 314.135 266.4511 C 271.02214 246.7381 227.0069 233.86027 191.95094 233.86027 C 158.60076 233.86027 131.52212 242.8796 113.51376 264.4901 C 100.82304 279.85196 94.5 298.81364 94.5 321.366 C 94.5 389.0523 147.73657 482.9698 238.85417 559.58105 C 320.0838 627.3017 409.4401 665.22105 474.47987 665.22105 C 506.9282 665.22105 533.10276 655.285 550.2831 635.45354 C 563.8064 620.1066 569.1979 600.2053 569.1979 577.6535 C 569.1979 511.8847 515.57735 419.68675 429.19316 344.8248 Z"/>
	<path fill="#0d54ff" d="M 245.22207 93 C 228.9584 93 215.4397 103.91626 211.837 121.0497 L 197.4216 199.51436 L 326.2686 199.51436 L 270.9577 504.53104 L 373.4236 504.53104 C 387.09967 504.53104 402.501 498.19827 407.0696 474.80816 L 453.9282 199.51436 L 546.60625 199.51436 C 562.934 199.51436 576.4178 188.67192 580.0354 171.55564 L 594.5 93 Z"/>
  </g>
</svg>