<?xml version="1.0" encoding="utf-8"?>
<!-- Generator: Adobe Illustrator 27.7.0, SVG Export Plug-In . SVG Version: 6.00 Build 0)  -->
<svg xmlns="http://www.w3.org/2000/svg" xmlns:xlink="http://www.w3.org/1999/xlink" version="1.2" baseProfile="tiny-ps" id="Ebene_1" viewBox="0 0 80 80" xml:space="preserve">
	  <title>Investa Holding GmbH</title>
<g id="icons">
	<path fill="#243453" d="M68,40.7h-5.7v5.7H68V40.7z M60.8,40.7h-5.7v12.9h5.7V40.7z M53.6,40.7h-5.7v20.1h5.7V40.7z M46.5,40.7   h-5.7V68h5.7V40.7z M68,33.6H40.7v5.7H68V33.6z M60.8,26.4H40.7v5.7h20.1C60.8,32.1,60.8,26.4,60.8,26.4z M53.7,19.2H40.8V25h12.9   C53.7,25,53.7,19.2,53.7,19.2z M46.5,12h-5.7v5.7h5.7V12 M39.3,12h-5.7v27.3h5.7V12z M32.2,19.2h-5.7v20.1h5.7V19.2z M25,26.4h-5.7   v12.9H25V26.4z M17.8,33.5H12v5.7h5.7L17.8,33.5 M39.3,40.7H12v5.7h27.3V40.7z M39.3,47.9H19.2v5.7h20.1L39.3,47.9 M39.2,55H26.3   v5.7h12.9C39.2,60.7,39.2,55,39.2,55z M39.2,62.2h-5.7V68h5.7V62.2z"/>
</g>
</svg>
