<svg xmlns="http://www.w3.org/2000/svg" baseProfile="tiny-ps" version="1.2" viewBox="0 0 1074 1072"><title>Skinport</title><path fill="#232728" d="M0 0h1074v1072H0z"/><path fill="#fa490a" d="M462.41 731.12s-34.53 23.89-84.17 18.27c0 0 7.31-10.71-8.95-37.26-17.57-28.69-46.62-66.96-50.08-101.21l143.2 120.19Z"/><path fill="#016699" d="M763.69 522.28c26.5 112.19-.1 110.62-15.83 162.81s-121.07 97.41-248.53 75.06c-113.92-19.98-200.61-151.29-201.86-183.83 225.94 101.69 465.11-53.25 466.22-54.03Z"/><path fill="#fa490a" d="M628.39 369.63s-61.54-94.24-168.13-114.32c0 0 34.16 36.29 19.68 50.81-7.58 7.6-28.76-7.49-40.06-22.1 0 0 7.73 24.05-36.99 66.77-24.17 23.1-87.21 84.09-87.54 159.31L628.4 369.63ZM297.47 576.31s-6.46-88.23-101.31-113.82c0 0 .32 68.46 54.95 108.68 0 0-39.27 39.2-18.65 95.34 0 0 61.9-10.84 65.01-90.2Z"/><path fill="#4db5da" d="M297.47 576.31c-1.25-32.54 18.78-154.34 151.76-216.38 132.98-62.04 276.05 27 310.78 148.14 1.39 4.83 2.57 9.55 3.68 14.21-1.11.79-252.75 179.11-466.22 54.03Z"/><path fill="#01324d" d="M541.31 758.77c38.52-11.12 66.45-92.08 69.18-99.42-11.56 8.35-23.37-2.12-15.52-14.07l-6.62.17c-4.97.11-9.49.52-13.85 1.25-11.41 1.92-20.22 5.87-30.42 10.44-4.58 2.05-9.77 4.38-15.83 6.81-4.46 1.79-8.64 3.02-12.42 3.66-7.72 1.3-11.51-.22-12.39-.65l-11.49-10.64s-7.85 13.92-10.07 18.76c-10 21.86-7.37 50.37 7.26 68.32 9.66 11.86 31.78 21.25 52.16 15.36Z"/><path fill="#225d73" d="M726.16 543.33c-24.95-82.51-65.66-170.99-103.19-186.62-5.89-.96-11.35-1.45-16.2-1.45-2.39 0-4.72.1-6.93.31-32.09 2.97-61.86 21.13-86.11 52.51-34.55 44.72-56.48 112.06-51.31 143.56 3.84 23.39 17.17 42.94 35.79 57.93 3.88 3.12 7.98 6.05 12.28 8.77 33.29 3.03 73-6.12 102.86-15.6 49.75-15.81 85.54-41.91 113.37-57.61-.18-.6-.37-1.2-.55-1.8Z"/><path fill="#01324d" d="M736.53 705.9c.59-.74 1.19-1.48 1.74-2.23.59-.8 1.12-1.61 1.67-2.42.48-.71.98-1.41 1.42-2.12.55-.88 1.03-1.76 1.53-2.65.37-.66.77-1.31 1.11-1.98.52-1.01.97-2.04 1.43-3.06.24-.54.52-1.08.74-1.62.64-1.56 1.2-3.13 1.68-4.7 0-.01.01-.03.01-.04 6.65-22.05-2.94-79.22-21.15-139.96-44.53 25.12-124.84 63.25-216.23 73.22 1.32.83 2.65 1.66 4 2.46 31.67 18.56 102.64 7.53 111.7 23.11 9.06 15.58-19.63 26.54-5.54 47.59 5.25 7.85 12.79 13.15 21.8 15.49.31 9.53 2.53 19.38 8.51 27.46 5.37 7.25 12.89 11.89 21.6 13.58 2.23-.84 4.4-1.71 6.55-2.59.34-.14.7-.27 1.04-.42 1.96-.81 3.86-1.66 5.74-2.51.51-.23 1.03-.45 1.53-.69 1.75-.81 3.45-1.64 5.14-2.48.6-.3 1.22-.6 1.81-.9 1.57-.81 3.11-1.63 4.62-2.46.66-.36 1.33-.72 1.99-1.09 1.43-.81 2.81-1.63 4.18-2.46.69-.42 1.38-.83 2.06-1.26 1.29-.81 2.55-1.63 3.79-2.45.7-.47 1.41-.94 2.09-1.42a129.204 129.204 0 0 0 5.5-4.02c1.04-.8 2.06-1.61 3.05-2.42.7-.57 1.38-1.16 2.06-1.74.92-.79 1.83-1.59 2.7-2.39.68-.63 1.34-1.26 2-1.9.81-.78 1.61-1.56 2.37-2.35.66-.68 1.28-1.36 1.9-2.05.7-.77 1.4-1.53 2.06-2.31.62-.74 1.21-1.48 1.79-2.22Z"/><path fill="#fa490a" d="M610.49 659.35s-28 74.03-68.04 83.9c-40.04 9.87-64.67-55.66-50.34-92.43 0 0 11.5 11.06 39.33 4.26 27.84-6.8 37.88-13.72 63.53-9.79 0 0 1.9 13.5 15.52 14.07Z"/><path fill="#fff" d="M602.24 354.06c35.6-3.3 121.68 28.76 171.16 120.85 49.48 92.09 49.3 203.92 19.49 243.08-29.81 39.16-24.39-23.66-24.39-23.66s-11.89 39.95-36.37 42.95c-24.49 3-13.88-41.02-13.88-41.02s-12.2 31.78-31.18 32.51c-18.98.73-19.95-24.47-13-47.35 0 0-21.96 10.67-31.45-3.51-9.49-14.17 11.38-23.92 11.98-37.36.6-13.44-13.48-30.79-60.42-30.11-46.94.68-104.23-35.14-111.52-79.59-7.3-44.45 37.12-169.16 119.57-176.8Z"/><path fill="#232728" d="M711.32 587.15c26.65-10.94 44.74-58.5 18.85-104.79-25.88-46.29-78.31-41.67-110.12-19.48 0 0 19.94-4.13 40.39 5.85 0 0-31.04 11.47-30.12 51.57.92 40.1 40.1 83.64 81 66.85Zm67.22-16.4c8.94 2.68 15.02 43.55-2.56 42.81-17.58-.74-15.89-48.35 2.56-42.81Z"/><path fill="#4db5da" d="M714.59 502.27c12.8 5.15 12.3 39.01-8.58 39.05-28.11.06-15.84-48.88 8.58-39.05Z"/></svg>