<?xml version="1.0" encoding="UTF-8" standalone="yes"?>
<svg version="1.2" viewBox="0 0 145 145" xml:space="preserve" baseProfile="tiny-ps" xmlns="http://www.w3.org/2000/svg">
  <title>bimi-svg-tiny-12-ps</title>
  <rect class="st0" width="145" height="145" fill="#1D1D1D"/>
  <g>
    <path class="st1" d="M81.2,91c-4-5.8-25.5-38-26-38.6c-1.8-2.4-4.1-3.6-6.6-3.6H28v0.3c0,0,3.7,1,6,4.6&#xA;&#x9;&#x9;c0.9,1.4,24.9,38.2,25.6,39.1c2.5,3.5,6.2,3.5,6.5,3.5h22.5v-0.3C88.6,96.1,83.9,95,81.2,91z" fill="#FFFFFF"/>
    <path class="st1" d="M97.4,48.8c-2.5,0-4.6,0.7-6.6,3.6c-0.9,1.3-8,12-10.2,15.1c-2.2,3.1-6.3,4.9-6.3,4.9v0.3H95&#xA;&#x9;&#x9;c2.4,0,4.6-1,6.7-4c2.5-3.8,9.5-13.7,10.4-15c2.7-3.8,6-4.6,6-4.6v-0.3C118.1,48.8,97.4,48.8,97.4,48.8z" fill="#FFFFFF"/>
  </g>
</svg>