<?xml version="1.0" encoding="iso-8859-1"?>
<!-- Generator: Adobe Illustrator 29.0.1, SVG Export Plug-In . SVG Version: 9.03 Build 54978)  -->
<svg version="1.2" baseProfile="tiny-ps" id="Layer_1" xmlns="http://www.w3.org/2000/svg" xmlns:xlink="http://www.w3.org/1999/xlink"
	 viewBox="0 0 250 250" xml:space="preserve">
<title>Daemon</title>
<path fill="#FEFEFE" d="M125.466-0.28c0.629,0.204,0.619,0.445,0,0.72c0.251,1.358-8.447,2.531-8.912,2.391
	c-0.291-1.111-1.16-1.428-2.606-0.951l-1.163,1.699l-10.683,2.827l-1.832-0.925l-1.001,1.842l-11.376,4.531L85.87,11.24
	l-0.646,1.945c-3.902,2.002-7.494,4.489-11.043,7.047l-1.989-0.353c-1.228,2.612-3.336,4.791-6.323,6.537
	c-2.134,2.599-4.346,4.02-6.635,4.263l-0.111,2.172c-3.982,4.041-7.581,8.408-10.741,13.121l-2.106,0.547l0.412,1.989
	c-3.354,4.944-5.829,10.335-7.911,15.918l-1.86,0.813c0.466,0.847,0.706,1.497,0.607,2.425c-0.088,0.823-4.184,14.574-4.683,15.846
	l-1.683,1.169l1.077,2.137l-1.712,13.263l-1.525,1.88c2.042,4.905,2.539,13.011,0.72,18l1.721,2.904
	c0.781,8.325,2.862,16.436,6.042,24.173c-0.709,0.733-0.935,1.542-0.563,2.443l2.023,1.101c3.185,7.844,7.762,14.997,13.64,21.094
	l0.175,2.285c3.866,1.939,7.432,4.598,10.698,7.977c3.877,2.236,7.03,4.856,9.46,7.863l1.961-0.623
	c5.862,2.787,12.072,4.896,18.441,6.158L94.509,197l2.123-1.149c6.968,1.039,14.052,0.686,20.849-1.182l2.224,0.89l3.257-2.428
	c35.177-9.832,41.331-61.776,1.527-68.243l-2.624-2.049c-1.132,2.029-7.286,0.895-7.919-1.44c-1.298,1.601-3.218,0.881-5.759-2.16
	c-1.209,2.048-6.189-0.712-5.759-2.88c-1.982,1.734-8.242-3.464-7.199-5.76c-2.533,0.775-6.223-3.359-5.039-5.76
	c-2.414,0.731-6.174-6.044-4.32-7.92c-2.611-0.132-4.324-7.702-2.16-9.36c-2.575-0.937-1.903-9.449,0.72-10.08
	c-1.941-1.748,0.261-9.722,2.88-10.08c-2.148-1.384,2.233-7.651,4.32-6.48c-0.403-3.249,3.965-7.521,7.199-7.2
	c-0.778-2.614,5.901-6.983,7.919-5.04c1.179-3.04,7.411-4.655,10.079-2.88c0.587-2.609,8.09-3.875,9.359-1.44
	c0.9-2.141,4.213-2.172,5.039,0c1.275-0.027,2.475,0.213,3.6,0.72c0.79-1.847,1.357-1.853,2.16,0
	c1.412-2.244,9.965-0.395,10.799,2.16c0.122-0.327,0.267-0.631,0.489-0.86c0.561-0.577,10.195,2.117,9.59,4.46
	c1.838-1.903,9.416,2.425,9.359,5.04c1.987-0.513,4.06,0.32,6.218,2.497c2.956,1.502,4.483,3.309,4.58,5.423
	c1.872-1.513,7.358,3.504,6.479,5.76c0.271-0.211,0.551-0.395,0.857-0.483c0.779-0.222,7.807,7.901,6.342,9.843l1.731-0.036
	c2.679,2.906,6.465,9.229,6.188,12.996c3.303,1.445,5.736,8.982,4.32,12.24c2.533,0.344,4.923,7.708,2.88,9.36
	c2.551,0.947,3.726,9.286,1.44,10.8c2.534,2.428,2.526,11.246,0,13.68c2.129,3.372,0.809,10.348-2.16,12.96
	c1.849,2.324-0.034,9.818-2.88,10.8c1.882,1.749-1.084,8.931-3.6,9.36c0.316,0.142,0.606,0.305,0.803,0.545
	c0.482,0.587-4.518,9.078-5.509,10.16l-1.774,0.094c1.145,1.996-4.392,8.942-6.108,10.219l-1.811-0.139
	c0.23,0.257,0.432,0.523,0.539,0.824c0.239,0.672-6.907,8.254-8.458,6.376l0.218,1.659c-3.296,2.494-6.754,4.81-10.241,7.026
	l-1.496-0.765c-1.078,3.38-7.391,6.738-10.799,5.76c-0.238,2.706-8.805,6.22-10.799,4.32c0.221,2.219-8.691,4.26-10.404,4.149
	l-1.114-1.269c-3.815,3.019-12.356,3.211-16.558,0.72l-1.356,1.4c-4.594-0.09-9.101-0.804-13.558-1.874l-0.924-1.686
	c-2.554,1.059-5.576,0.761-9.067-0.894c-3.424-0.577-5.681-1.959-6.771-4.146c-0.527,0.163-1.056,0.299-1.591,0.337
	c-3.561,0.257-24.875-13.417-26.127-16.753c-0.189-0.502-0.286-1.038-0.358-1.584c-2.106,0.742-5.203-1.154-4.32-3.6
	c-2.262,0.75-5.391-2.984-4.32-5.04c-2.157,0.78-4.783-2.341-3.6-4.32c-2.084,0.822-4.44-2.745-2.88-4.32
	c-2.195,0.579-4.293-2.507-2.88-4.32c-2.143,0.611-4.616-3.563-2.88-5.04c-2.563-0.31-4.232-3.576-2.88-5.76
	c-2.146,0.049-3.324-3.177-1.44-4.32c-2.597-0.914-3.517-3.403-2.16-5.76c-2.034,0.535-2.903-1.304-1.44-2.88
	c-0.475-0.313-0.93-0.646-1.313-1.047c-2.378-2.489-4.854-18.215-3.006-21.993c0.042-2.456-0.198-4.856-0.72-7.2
	c-0.427-4.073-0.309-8.164,0-12.24c-0.042-1.73,0.198-3.41,0.72-5.04c-1.969-0.724-1.989-2.162,0-2.88l0.72-5.04
	c-0.34-0.359-0.655-0.733-0.878-1.154c-1.124-2.125,2.579-17.079,4.477-19.726c-0.298-0.85-0.778-1.09-1.44-0.72
	c-0.462,5.965-1.862,12.734-3.281,18.827c-0.208,0.892-1.021,1.52-1.758,2.053c0.053,1.295-0.187,2.495-0.72,3.6
	c1.987,1.763,1.449,7.238-0.72,8.64l-0.72,3.6c2.012,0.757,2.06,2.873,0,3.6c-0.676,3.548-0.702,7.243,0,10.8l1.565,2.328
	c0.418,7.329,1.622,14.573,3.526,21.659l-0.771,2.653c2.335,0.858,2.938,3.07,1.44,5.04c2.882,1.046,2.987,3.257,2.16,5.76
	c2.936,0.471,2.724,2.704,2.16,5.04c2.807-0.007,3.353,3.473,2.88,5.76c2.636-0.252,3.564,3.582,2.88,5.76
	c2.397-0.559,3.574,2.28,2.88,4.32c2.271,0.08,3.231,1.76,2.88,5.04c2.696-0.709,4.078,2.659,4.32,5.04
	c2.575-1.035,4.144,2.688,4.32,5.04c2.153-0.749,4.331,1.451,3.6,3.6c5.199,1.846,10.687,6.522,12.959,11.52
	c-0.223,0.311-0.463,0.302-0.72,0c-0.481,0.164-0.964,0.302-1.455,0.345c-3.965,0.345-15.846-10.936-18.978-14.352
	c-22.076-24.077-33.042-60.124-29.624-92.54c-3.834,25.301,2.04,49.896,12.26,72.756c-0.471,6.828-8.787-3.885-6.838-6.528
	c-1.943-0.301-1.825-0.817,0-1.44c-2.128-0.493-2.914-0.996-1.44-2.88c-2.172-0.067-2.867-1.177-1.44-2.88
	c-2.23-0.158-2.46-2.392-0.72-3.6c-2.866-1.466-3.586-2.906-2.16-4.32c-2.28-0.162-2.372-2.202-0.72-3.6
	c-2.198,0.014-3.117-2.778-1.44-4.32c-2.214-0.302-2.465-2.334-0.72-3.6c-2.211-0.144-2.643-3.383-0.72-4.32
	c-2.161-0.74-2.436-2.082-0.72-3.6l-1.587-1.1c0.296-2.89,0.345-5.644,0.147-8.26c-0.349-0.543-0.672-1.096-0.902-1.686
	c-1.992-5.108,2.705-28.016,4.399-34.598c4.669-18.141,12.9-35.737,26.74-48.676c0.266-0.952,1.27-1.797,2.16-2.16
	c2.151-1.687,1.911-1.687-0.72,0c-0.364,0.928-1.283,1.816-2.16,2.16C18.054,65.852,6.848,95.494,6.661,125.539L5.239,128.6
	c2.091,0.954,2.014,4.045,0,5.04c2.186,0.226,2.431,3.088,0.72,4.32c2.051,0.078,2.776,2.874,0.72,3.6
	c2.194,0.368,2.044,3.837,0,4.32c0.426,0.857,0.157,1.183-0.72,0.72c-2.054-0.344-2.635-1.873-0.72-2.88
	c-2.241-0.345-2.78-4.813-0.72-5.76c-2.063-0.323-2.393-4.044-0.526-4.506L3.08,128.6c-1.413-0.906-1.409-1.97,0-2.88
	c-1.927-2.236-2.304-6.795,0-8.64c-1.74-0.994-1.393-5.183,0.72-5.76c-1.528-8.732,1.951-19.248,4.871-27.789
	C19.263,52.553,42.536,26.415,72.192,12.68c0.722-1.278,2.848-2.3,4.32-2.16c0.69-1.014,1.89-1.734,3.6-2.16
	c2.969-0.989,2.969-0.989,0,0c-1.551,0.853-2.99,1.333-4.32,1.44c-0.708,1.142-3.006,2.359-4.32,2.16
	C34.967,31.694,8.35,65.555,2.807,107.284L0.92,110.6c1.967,0.4,1.961,3.157,0,3.6l0.001,2.754c1.454,1.716,1.179,5.11-0.721,6.606
	c1.864,2.083,2.142,5.191,0,7.2c1.383,1.965,3.253,4.921,0.72,6.48c2.176,0.601,2.665,5.363,0.72,6.48
	c2.127,0.214,3.218,3.733,1.44,5.04c2.162,0.097,2.703,4.183,0.72,5.04c2.029-0.123,3.133,2.268,1.44,3.6
	c2.327,0.435,2.294,2.145,0.72,3.6l2.441,2.947c10.621,32.779,34.596,59.632,66.158,73.532l2.673,2.721l1.764-0.828
	c4.709,2.006,9.509,3.692,14.502,4.861l1.012,1.727c3.149-0.61,6.497-0.428,10.045,0.546l8.052,0.797l1.341,1.536
	c0.667-1.14,1.306-1.173,1.916-0.04c0.291-0.604,0.601-1.088,0.983-1.152c2.23-0.375,14.242-0.389,16.703-0.124l1.996,1.317
	l1.241-1.524l10.86-1.101l1.577,1.185c3.645-2.896,9.81-4.371,14.398-3.6c3.658-3.578,10.721-6.513,15.838-6.48l0.759-1.978
	c4.286-2.306,8.398-4.893,12.336-7.763l2.023,0.381l0.31-1.921l9.226-6.236l1.982,0.238c0.691-2.501,2.397-4.718,5.118-6.651
	c2.1-3.006,4.474-4.869,7.121-5.589c0.234-2.523,1.673-4.974,4.317-7.355c1.562-2.974,3.483-4.843,5.762-5.605
	c0.307-4.317,2.806-8.506,6.479-10.8l-0.647-1.83c2.098-3.829,3.772-7.826,5.321-11.902l1.805-0.668l-0.554-2.089
	c1.638-4.296,3.131-8.65,4.477-13.063l1.837-1.408c-1.093-3.205,0.2-9.659,1.283-13.073l1.597-1.327v111.6H-0.52V-0.28H125.466z"/>
<path fill="#FEFEFE" d="M142.024-0.28h107.988v117.36c-0.204,0.629-0.445,0.62-0.72,0c-1.378-0.406-1.377-1.034,0-1.44
	c-1.438-1.332-2.029-3.418-1.772-6.259c-0.941-3.096-0.83-5.569,0.333-7.421c-1.98-2.715-3.242-6.015-3.788-9.899
	c-1.765-3.66-2.422-7.08-1.971-10.261l-1.922-1.035c-2.275-6.205-5.269-12.057-8.608-17.745l0.451-2.1l-2.232-1.006L222.734,48.3
	l-0.079-2.5c-3.951-1.711-9.333-6.64-10.079-10.8l-2.757-0.734c-3.91-3.934-8.113-7.534-12.594-10.805l-0.487-2.141l-2.363,0.067
	c-4.419-3.218-8.958-6.268-13.849-8.733l-1.066-2.134c-4.892,0.11-11.625-2.327-15.118-5.76c-2.847,0.679-5.981,0.236-9.402-1.33
	c-3.272-0.271-5.898-1.268-7.876-2.99c-1.122,1.819-4.271,2.216-5.039,0C141.395,0.236,141.405-0.005,142.024-0.28z"/>
<path fill="#5642CB" d="M249.292,132.92c0.243,0.805,0.483,1.765,0.72,2.88c-0.056,0.947,0.085,1.939,0,2.88
	c-0.399,4.425-1.836,9.984-2.88,14.4l-2.313-0.39c-8.827-9.649-21.023-16.273-34.379-13.707l-2.183-1.023
	c0.255-4.098,0.265-9.587,0-13.68c3.035-3.643,11.372-3.786,16.217-3.548c6.244,0.307,11.102,1.79,16.593,4.7
	C243.686,126.819,248.461,130.388,249.292,132.92z"/>
<path fill="#9A27A3" d="M136.985-0.28c1.734,0.28,3.413,0.52,5.039,0.72c1.628,0.023,3.48-0.168,5.039,0l0.876,1.655
	c-9.725,11.824-14.032,25.237-10.016,40.675l-0.939,2.31c-0.681-0.1-1.465,0.081-2.16,0c-1.123-0.502-2.323-0.742-3.6-0.72
	c-1.629-0.12-3.394-0.022-5.039,0c-3.975-2.781-4.96-10.68-5.33-15.593c-0.501-6.653,0.395-12.367,2.613-18.608
	c1.101-3.099,3.506-8.548,6.317-9.719c-0.554-0.28-0.314-0.52,0.72-0.72H136.985z"/>
<path fill="#5E3FC6" d="M249.292,115.64c0.005,0.48-0.006,0.96,0,1.44c0.2,1.56,0.44,3.24,0.72,5.04v8.64l-0.72,2.16
	c-3.695-1.679-6.388-4.969-10.049-6.87c-9.857-5.117-20.558-4.683-30.986-1.77c-0.194-2.994-0.833-7.627-1.44-10.8
	c1.189-4.337,9.078-5.81,13.378-6.378c7.311-0.966,13.404,0.16,20.272,2.539C243.045,110.534,248.3,113.387,249.292,115.64z"/>
<path fill="#B197B3" d="M142.024-0.28v0.72c-1.58-0.023-4.055,0.537-5.039-0.72H142.024z"/>
<path fill="#7E6CB6" d="M250.012,122.12c-1.254-0.983-0.701-3.461-0.72-5.04h0.72V122.12z"/>
<path fill="#AF90B0" d="M130.505-0.28c-0.16,0.276-0.633,0.508-0.72,0.72c-1.403,1.408-2.918,1.411-4.32,0v-0.72H130.505z"/>
<path fill="#7F71B7" d="M250.012,135.8c-1.059-0.493-0.724-1.936-0.72-2.88c0.003-0.795-0.197-1.804,0.72-2.16V135.8z"/>
<path fill="#0064FE" d="M20.358,172.52c0.3,0.59,4.361,6.911,4.657,7.223c0.294,0.308,0.912,0.941,1.095,0.697
	c-1.91-6.727-5.574-13.204-7.716-19.996c-6.139-19.466-7.942-40.769-3.724-60.933c0.673-3.217,2.062-9.084,4.241-11.231
	c-2.423,12.395-3.557,25.876-2.903,38.549c1.569,30.404,20.688,72.224,48.984,86.01c2.571,1.12,2.811,1.12,0.72,0
	c-4.339-3.867-8.734-7.506-12.959-11.52c-1.487-2.079,0.637-8.046,3.6-5.76c8.076,7.127,18.2,13.645,28.077,18
	c2.154,4.682,1.482,10.633,0.001,15.732c-1.04,3.583-3.218,11.075-7.201,10.908C42.14,225.618,16.979,197.524,5.959,161
	c-0.594-2.92,2.141-3.525,3.6-1.44c0.762-0.453,1.002,0.027,0.72,1.44c1.869-0.511,1.931-0.011,0.72,1.44
	c1.038,0.588,1.048,2.397,0.72,3.6c1.028-0.068,1.084,0.516,0.72,1.44c1.109,0.862,1.829,2.062,2.16,3.6
	c1.21-0.393,1.21,0.087,0,1.44C17.145,171.7,19.065,171.7,20.358,172.52z"/>
<path fill="#D90E7D" d="M95.229,110.6c1.947,1.827,4.889,4.458,7.199,5.76l1.079,2.196c-4.618,29.892-40.91,47.081-65.681,30.494
	l-0.91,0.43c-4.415-10.709-6.218-17.942-7.199-29.52l2.592,0.22c19.13,14.879,46.303,10.991,60.498-8.648L95.229,110.6z"/>
<path fill="#E40A77" d="M108.188,119.24c6.402,27.635-8.542,54.397-38.491,56.779c-5.36,0.426-12.292,0.616-16.943-2.059
	c-7.804-8.17-11.499-13.955-15.838-24.48c-0.295-2.117,0.726-1.624,2.126-1.048c2.17,0.892,4.337,2.409,6.848,3.232
	c26.575,8.71,52.367-8.166,56.538-35.304C103.415,116.916,107.308,118.88,108.188,119.24z"/>
<path fill="#EB0873" d="M108.188,119.24c4.615,2.794,6.475,8.459,7.87,13.491c4.14,14.928,0.308,31.191-10.242,42.563
	c-9.191,9.908-20.101,13.727-32.905,14.506c-8.038-4.204-13.99-9.383-20.158-15.84c12.201,1.056,22.611,1.87,33.758-4.039
	c17.087-9.058,22.416-25.532,21.706-43.871C108.136,123.935,106.466,120.857,108.188,119.24z"/>
<path fill="#F5046D" d="M121.866,122.84c25.006,16.937,23.4,57.099-2.16,72.72c-9.195,2.593-15.649,2.911-25.197,1.44
	c-3.798-1.311-0.725-3.283,1.759-4.409c31.214-10.478,35.679-46.125,15.732-69.936c-0.273-1.381,0.619-1.664,1.947-1.255
	C115.885,121.959,119.52,122.252,121.866,122.84z"/>
<path fill="#D11282" d="M90.19,104.84c1.496,2.191,3.042,3.886,5.039,5.76c-15.233,22.562-44.493,26.808-65.513,9.36
	c-0.522-6.165-0.931-11.692-0.72-18l1.929-0.519c17.274,16.406,39.585,16.664,57.919,2.29L90.19,104.84z"/>
<path fill="#F00670" d="M113.947,121.4c-1.701,0.588,0.224,1.94,0.683,2.558c15.647,21.085,15.736,48.087-6.636,64.568
	c-4.301,3.169-8.684,3.824-12.561,6.158c-1.171,0.705-2.146,0.864-0.924,2.316c-6.659-1.026-15.588-4.057-21.598-7.2
	c0.286-3.373,6.294-1.856,8.829-2.33c4.492-0.84,11.317-3.873,15.155-6.444c20.646-13.829,25.353-41.447,11.293-61.786
	C109.446,119.755,112.824,121.076,113.947,121.4z"/>
<path fill="#FB0169" d="M121.866,122.84c14.259,3.573,25.65,6.443,29.91,23.007c6.465,25.138-9.154,43.252-32.07,49.713
	c1.457-3.379,5.275-5.374,7.9-8.299c12.644-14.089,14.281-36.972,3.916-52.838C128.655,130.035,124.159,127.344,121.866,122.84z"/>
<path fill="#C51689" d="M83.711,87.56c0.193,2.386,1.361,7.111,2.16,9.36c-3.418,5.167-13.487,6.462-19.661,6.51
	c-9.27,0.073-16.703-2.669-24.487-7.514c-3.82-2.377-9.081-7.237-10.566-11.237c1.538-8.451,2.837-11.894,5.759-19.44l2.05,0.114
	c8.958,15.276,24.547,24.11,42.558,21.155L83.711,87.56z"/>
<path fill="#BF188C" d="M84.431,77.48c-0.552,2.847-0.953,7.205-0.72,10.08c-12.976,2.781-26.864-0.76-36.723-9.713
	c-4.242-3.852-6.236-8.623-10.072-12.607c3.117-8.047,4.539-11.5,9.359-18.72c1.756-2.123,3.26,0.22,4.165,2.215
	c4.258,14.32,17.273,25.221,32.166,27.102L84.431,77.48z"/>
<path fill="#7038BC" d="M232.014,60.92c4.51,7.805,6.866,12.126,10.079,20.88l-1.27,1.413c-15.138-5.176-29.671-2.581-41.205,8.667
	c-1.688-3.579-5.563-9.63-7.919-12.96c-1.247-4.497,5.583-9.944,9.172-12.536c8.907-6.432,18.743-7.624,29.489-6.912L232.014,60.92z
	"/>
<path fill="#CC1385" d="M31.156,84.68c2.959,1.443,4.653,4.667,7.191,6.849c13.485,11.592,31.722,13.794,47.523,5.391
	c0.784,2.208,2.966,5.938,4.32,7.92c-3.729,0.843-6.525,4.342-10.048,6.15c-13.337,6.845-28.223,6.195-41.008-1.528
	c-3.838-2.318-6.374-5.413-10.136-7.503C29.21,95.599,30.049,90.768,31.156,84.68z"/>
<path fill="#882EAD" d="M196.738,21.32l1.048,1.918c-15.795,5.851-23.673,16.233-27.493,32.462
	c-0.475,0.986-1.499,1.045-3.071,0.179c-2.322-1.442-6.922-3.995-9.359-5.04c-2.753-4.129-0.601-11.942,0.993-16.689
	c3.527-10.502,11.021-19.149,20.604-23.631C186.231,13.78,190.796,17.008,196.738,21.32z"/>
<path fill="#683BC1" d="M242.093,81.8c2.583,7.038,4.435,12.511,5.759,20.16l-2.23,0.435c-12.38-6.384-28.005-7.242-39.378,1.671
	l-2.307,0.055c-1.232-3.907-2.586-8.565-4.32-12.24c-0.25-1.725,0.415-2.156,1.486-3.194c5.706-5.523,17.572-9.966,25.482-9.779
	C231.85,79.032,236.954,81.915,242.093,81.8z"/>
<path fill="#B81B91" d="M87.31,67.4c-0.751,1.81-2.47,7.967-2.88,10.08c-14.902-1.242-26.668-9.951-33.495-23.021
	c-1.381-2.645-1.466-7.332-4.661-7.939c4.363-6.535,7.45-10.257,12.959-15.84c0.888-0.863,1.782-0.992,2.327,0.1
	c2.336,14.888,9.484,28.963,24.318,34.55L87.31,67.4z"/>
<path fill="#8031B2" d="M196.738,21.32c6.446,4.678,10.242,7.976,15.838,13.68l-1.7,1.698c-14.287,2.277-26.12,12.054-30.889,25.734
	L178.02,63.8c-2.843-2.432-7.311-5.754-10.799-7.92c1.994,0.092,1.827-1.035,2.28-2.402c5.573-16.81,8.338-22.627,25.268-30.203
	C195.842,22.795,197.125,23.174,196.738,21.32z"/>
<path fill="#932AA7" d="M164.342,4.76c1.964,0.956,0.846,2.406-0.512,3.667c-10.517,7.623-16.291,22.241-13.993,34.955
	c0.368,2.69-0.317,3.976-2.054,3.859c-2.676-0.719-8.026-1.754-10.799-2.16c-2.814-11.357-2.898-22.508,2.507-33.133
	c2.194-4.313,6.029-7.179,7.572-11.507C152.946,1.074,158.759,2.988,164.342,4.76z"/>
<path fill="#7735B8" d="M222.655,45.8c3.882,4.962,6.374,9.954,9.359,15.12c-8.513-0.153-15.539-0.642-23.525,2.752
	c-6.434,2.734-13.991,8.853-16.79,15.248c-1.401-1.979-5.809-7.852-7.199-9.36c-1.041-4.909,4.921-11.127,8.609-14.442
	c3.724-3.347,8.093-5.969,12.757-7.776C210.656,45.485,218.156,43.081,222.655,45.8z"/>
<path fill="#5144CE" d="M247.132,153.08c-1.512,6.401-3.508,10.774-5.759,16.56l-2.06-0.505
	c-6.999-10.345-18.304-18.864-31.372-17.067l-1.844-1.147c0.963-4.27,1.889-8.619,2.16-12.96
	C224.158,134.293,236.899,141.658,247.132,153.08z"/>
<path fill="#AE2097" d="M98.829,53.72c-2.587,2.151-5.129,4.558-7.199,7.2c-0.439,0.355-1.137,0.838-1.458,0.595
	c-7.879-5.971-14.408-15.306-17.285-24.867c-1.488-4.947-3.463-12.474-0.695-16.767c4.954-3.513,8.014-5.818,13.678-8.64
	c1.962,0.102,2.717,1.774,2.265,5.016c-2.75,13.062,2.168,25.377,10.926,35.323L98.829,53.72z"/>
<path fill="#8E2CAA" d="M179.46,10.52c-1.052,2.953-5.176,4.429-7.538,6.501c-9.945,8.725-14.272,20.637-14.06,33.819
	c-2.172-0.931-8.057-3.057-10.079-3.6c1.475-3.089-0.105-6.762,0.008-10.433c0.295-9.542,4.952-19.81,11.477-26.681
	c1.728-1.82,4.729-2.585,5.073-5.366C169.398,6.365,174.679,8.219,179.46,10.52z"/>
<path fill="#B31D94" d="M72.192,19.88c-0.41,11.875,3.204,23.612,10.82,32.738l8.617,8.302c-1.39,1.774-3.488,4.476-4.32,6.48
	c-15.746-5.456-23.452-17.676-26.576-33.539c-0.241-1.226,0.208-2.691-1.501-3.181C64.268,25.578,66.478,23.932,72.192,19.88z"/>
<path fill="#A4239D" d="M113.947,1.88c3.968-0.81,4.212,0.344,2.871,3.869c-6.56,12.554-4.966,25.139,0.721,37.85l-0.712,2.202
	c-3.416,0.762-6.858,1.511-10.079,2.88c-2.129-0.719-5-5.63-5.97-7.945c-4.916-11.742-6.052-23.523-0.509-35.255
	C105.306,3.853,108.7,2.889,113.947,1.88z"/>
<path fill="#4A47D2" d="M241.373,169.64c-2.323,5.97-3.327,8.637-6.479,14.4l-1.907,0.055
	c-6.156-11.196-14.987-19.495-28.316-20.813l-1.453-1.562c1.135-3.195,2.124-7.451,2.88-10.8
	C220.994,147.945,233.728,157.704,241.373,169.64z"/>
<path fill="#414AD7" d="M228.414,194.84c-3.538,5.35-5.939,8.275-10.079,12.96l-1.772,0.098
	c-4.463-10.643-10.735-19.834-22.223-24.044l-1.202-1.974c1.113-1.67,5.941-9.59,6.479-10.8c2.993-2.43,9.137,0.938,12.348,2.788
	c4.993,2.876,8.63,6.483,12.076,11.021C225.691,187.06,228.632,192.46,228.414,194.84z"/>
<path fill="#3051E2" d="M177.3,199.16c5.14,0.142,9.998,7.031,12.622,11.39c2.748,4.566,6.611,12.513,4.656,17.41
	c-5.432,3.587-8.79,6.334-15.118,9.36l-1.66-0.185c-0.451-10.483-3.759-20.614-11.736-27.926l-0.283-2.128
	C168.888,205.169,174.53,201.385,177.3,199.16z"/>
<path fill="#633DC4" d="M247.852,101.96c0.913,5.27,1.385,8.17,1.44,13.68c-3.388-0.826-6.024-3.307-9.372-4.667
	c-10.191-4.141-23.895-3.865-33.104,2.507c-0.507-2.649-2.023-6.642-2.88-9.36C216.24,93.203,234.125,94.233,247.852,101.96z"/>
<path fill="#185AEF" d="M132.665,220.04c4.145,1.617,5.192,9.177,5.622,13.499c0.449,4.517,0.796,12.516-2.742,15.301
	c-8.186,0.544-13.433,0.551-21.598,0c4.585-7.668,3.617-18.039,1.242-26.399l0.917-1.681
	C121.703,220.9,127.143,220.909,132.665,220.04z"/>
<path fill="#A9219A" d="M100.269,5.48c1.384,0.636,0.31,2.307,0.023,3.257c-3.196,10.582-3.264,20.756,1.52,30.84
	c1.531,3.226,3.963,5.718,4.936,9.103c-3.358,1.428-5.099,2.695-7.919,5.04c-4.137-5.856-8.978-11.049-11.001-18.158
	c-0.896-3.149-1.929-8.581-1.971-11.749c-0.055-4.062,1.979-8.696,0.014-12.573C91.131,8.619,94.785,7.252,100.269,5.48z"/>
<path fill="#3A4DDB" d="M218.336,207.8c-4.116,4.658-7.33,8.124-12.239,12.24l-1.66-1.239c-2.064-10.515-8.365-20.475-18.346-24.954
	l-0.872-1.887c1.735-1.825,6.469-7.905,7.919-10.08c8.73,2.967,16.244,8.986,20.736,17.062
	C215.532,201.921,216.146,205.391,218.336,207.8z"/>
<path fill="#7C33B5" d="M212.576,35c3.298,3.361,7.197,7.117,10.079,10.8c-16.27-0.27-31.754,8.588-38.156,23.76
	c-0.899-0.976-5.082-4.565-6.479-5.76C182.896,47.876,195.99,37.014,212.576,35z"/>
<path fill="#0F5EF5" d="M116.107,220.76c2.874,7.262,3.495,19.514,0.36,26.666c-0.709,1.617-0.502,1.666-2.52,1.414
	c-8.228-0.555-11.574-1.007-19.438-2.88c5.304-7.462,5.34-16.937,4.479-25.715l1.281-1.645
	C106.714,220.068,109.313,220.59,116.107,220.76z"/>
<path fill="#0960F9" d="M100.269,218.6c0.901,8.473,1.269,18.323-3.2,25.982c-0.809,1.386-0.484,1.718-2.559,1.378
	c-7.502-1.787-10.586-2.979-17.278-5.76c4.535-4.656,6.907-13.43,7.224-19.837c0.112-2.266-1.686-4.557-0.025-6.803
	C90.307,216.151,94.144,217.205,100.269,218.6z"/>
<path fill="#9E25A0" d="M125.466,0.44c1.439,0.004,2.88-0.003,4.32,0c-1.791,4.339-4.708,8.574-5.988,13.092
	c-3.014,10.644-1.687,20.723,2.388,30.828c-3.824,0.05-5.786,0.642-9.359,1.44c-3.291-8.828-6.568-16.516-5.748-26.268
	c0.542-6.447,3.47-10.618,4.899-15.987c0.606-2.275-0.421-1.67-2.031-1.665C118.592,0.987,120.353,0.425,125.466,0.44z"/>
<path fill="#2954E6" d="M165.781,207.08c6.784,5.428,11.339,14.395,12.774,22.864c0.424,2.499-0.35,5.082,0.904,7.376
	c-5.005,2.393-10.569,4.725-15.838,6.48l-1.271-2.055c0.614-9.513-2.777-18.481-7.613-26.525l0.245-2.379
	C158.527,211.209,162.458,209.124,165.781,207.08z"/>
<path fill="#364FDE" d="M185.219,191.96c11.418,4.07,19.229,16.351,20.878,28.08c-4.258,3.571-7.231,5.089-11.519,7.92
	c-2.058-11.944-7.247-21.811-17.278-28.8C178.678,198.053,183.789,193.465,185.219,191.96z"/>
<path fill="#4648D4" d="M234.894,184.04c-2.018,3.689-4.162,7.296-6.479,10.8c-2.854-2.789-3.719-6.779-6.182-10.018
	c-5.318-6.995-13.763-12.695-22.615-13.742c0.906-2.034,2.763-7.005,3.6-9.36c9.077,0.512,18.544,4.954,24.461,11.896
	C230.385,176.791,231.911,181.072,234.894,184.04z"/>
<path fill="#2456E9" d="M154.983,212.84c5.917,9.595,9.907,19.369,8.639,30.96c-4.732,1.576-9.562,2.714-14.398,3.6l-1.186-2.369
	c0.881-8.626-0.46-17.39-4.174-25.243l0.321-2.628C147.173,216.236,152.061,214.185,154.983,212.84z"/>
<path fill="#1E58EC" d="M144.184,217.16c5.012,9.793,6.431,19.344,5.039,30.24c-5.317,0.974-8.382,1.088-13.678,1.44
	c2.481-9.52,2.076-20.125-2.88-28.8C135.748,219.555,141.074,218.121,144.184,217.16z"/>
<path fill="#F90869" d="M71.472,11.96c1.143-0.406,1.328-0.385,0.72,0.72C33.906,33.767,9.282,67.001,3.8,111.32
	c-0.683,2.046-2.806,1.342-2.88-0.72C6.147,66.34,32.083,30.941,71.472,11.96z"/>
<path fill="#F8DB01" d="M39.076,43.64C18.29,66.538,9.762,97.918,8.839,128.6c-0.682,1.87-3.174,2.21-3.6,0
	c-0.567-30.625,10.44-63.961,33.116-84.96H39.076z"/>
<path fill="#DAA0F0" d="M27.557,73.88c-1.006,6.996-3.164,13.777-3.6,20.88l-0.72,5.04c-0.009,0.955,0.055,1.928,0,2.88
	c-0.527,1.614-0.767,3.294-0.72,5.04c-0.3,4.071-0.433,8.171,0,12.24c0.516,2.348,0.756,4.748,0.72,7.2
	c0.811,7.626,2.057,15.684,4.32,23.04c-0.061,2.446-3.45,3.442-4.32,0.72c-2.593-9.284-3.881-16.788-4.32-26.64
	c-0.701-3.559-0.678-7.24,0-10.8c0.045-1.196-0.065-2.406,0-3.6l0.72-3.6c0.221-2.739,0.328-5.963,0.72-8.64
	c0.509-1.121,0.749-2.321,0.72-3.6c1.198-6.82,2.636-14.358,5.039-20.88C27.123,71.405,27.946,71.953,27.557,73.88z"/>
<path fill="#246EFA" d="M52.034,191.96c0.054,1.77-1.18,5.033-2.88,5.76c-1.973-2.032-2.76-3.204-4.32-5.04
	c-2.068-2.586-0.516-6.728,2.88-5.76C49.01,188.397,50.887,190.806,52.034,191.96z"/>
<path fill="#3B74F9" d="M44.115,182.6c0.946,1.228,2.564,3.139,3.6,4.32c-1.87,1.261-3.183,3.47-2.88,5.76
	c-1.626-1.914-2.775-2.904-4.32-5.04C39.025,184.817,41.219,179.956,44.115,182.6z"/>
<path fill="#1068FC" d="M52.034,191.96c1.343,1.351,2.758,2.222,4.32,3.6c-2.436-0.373-2.052,4.05-3.6,5.76
	c-1.283-1.219-2.374-2.337-3.6-3.6C49.298,195.538,49.801,192.94,52.034,191.96z"/>
<path fill="#7284F3" d="M35.476,168.92c0.743,1.471,1.941,3.46,2.88,5.04c0.483,1.636-1.862,4.649-3.6,4.32
	c-1.245-2.222-1.819-3.63-2.88-5.76C30.513,169.756,33.058,166.447,35.476,168.92z"/>
<path fill="#898AF2" d="M35.476,168.92c-1.863,0.189-3.417,1.759-3.6,3.6c-1.032-2.072-1.83-3.328-2.88-5.76
	c-1.304-2.666,1.247-4.978,3.6-3.6C33.443,165.062,34.528,167.044,35.476,168.92z"/>
<path fill="#5D7EF6" d="M41.235,178.28c0.483,1.636-1.862,4.649-3.6,4.32c-0.695-1.098-1.62-2.072-2.88-4.32
	c0.697-1.792,1.861-3.415,3.6-4.32C39.322,175.586,40.213,176.769,41.235,178.28z"/>
<path fill="#4D7AF6" d="M41.235,178.28c0.828,1.223,1.842,2.972,2.88,4.32c-2.373,0.068-3.076,3.075-3.6,5.04
	c-1.57-2.171-1.84-3.398-2.88-5.04C38.333,180.808,39.496,179.185,41.235,178.28z"/>
<path fill="#9F92F0" d="M31.156,158.84c0.568,1.416,0.915,3.142,1.44,4.32c-1.179,1.259-3.907,1.772-3.6,3.6
	c-0.69-1.6-1.436-3.156-2.16-5.04C25.282,158.77,29.509,156.033,31.156,158.84z"/>
<path fill="#B397EF" d="M31.156,158.84c-1.625,0.053-4.603,0.961-4.32,2.88c-0.742-1.93-1.515-3.78-2.16-5.76
	c-0.582-2.15,2.655-4.334,4.32-2.88C29.66,155.055,30.382,156.911,31.156,158.84z"/>
<path fill="#793CB5" d="M4.519,137.96c0.234,1.747,0.42,3.976,0.72,5.76c-0.075,2.169-3.171,1.966-3.6,0
	c-0.384-2.397-0.486-4.15-0.72-6.48C1.191,135.061,4.392,135.918,4.519,137.96z"/>
<path fill="#CA1B84" d="M0.92,114.2c0.848,0.701,1.568,1.661,2.16,2.88c-0.2,2.754,0.003,5.831,0,8.64
	c-1.337,1.412-2.297,0.692-2.88-2.16C0.222,120.292,0.686,117.203,0.92,114.2z"/>
<path fill="#D2C82C" d="M10.279,137.96c0.261,2.162-3.935,2.053-4.32,0c-0.178-1.443-0.616-2.641-0.72-4.32
	c0.378-1.279,1.065-1.811,2.273-1.864c-0.219-1.445-0.338-2.571,1.327-3.176c0.251,0.087,0.509-0.071,0.659,0.4
	C9.941,130.39,9.851,135.356,10.279,137.96z"/>
<path fill="#86A37E" d="M12.439,149.48c0.282,1.086,1.007,2.815,1.44,4.32c-1.013,1.085-2.213,2.045-3.6,2.88
	c-1.124,0.32-1.694-1.153-1.44-2.16c-1.021-1.113-1.443-3.773,0-4.32C8.185,148.139,11.688,147.573,12.439,149.48z"/>
<path fill="#AD2A97" d="M0.2,123.56l2.88,2.16c-0.001,0.959-0.018,1.921,0,2.88c1.891,5.519-0.426,8.57-2.88,2.16
	C0.099,128.383,0.184,125.942,0.2,123.56z"/>
<path fill="#4B87B2" d="M16.758,161.72c0.409,1.156,0.387,2.749,0.72,3.6c-0.509,1.041-1.949,1.761-4.32,2.16
	c-0.204,0.629-0.445,0.62-0.72,0c-0.211-0.488-0.533-0.946-0.72-1.44c0.052-1.488,0.052-2.928,0-4.32
	C12.32,158.397,15.166,159.139,16.758,161.72z"/>
<path fill="#B1B84C" d="M10.999,141.56c0.279,1.43,0.438,3.033,0.72,4.32c-0.725,2.106-3.537,2.011-4.32,0
	c-0.146,0.635-0.39,0.612-0.72,0c-0.099-1.417,0.143-2.917,0-4.32C6.402,139.413,10.596,139.491,10.999,141.56z"/>
<path fill="#60919C" d="M14.598,157.4c0.232,0.739,1.556,2.612,2.16,4.32c-1.611-1.023-3.416-0.979-5.039,0
	c0.166,0.644-0.074,0.884-0.72,0.72c-0.123-0.351-0.505-0.818-0.72-1.44c-0.462-1.65-0.222-2.61,0.72-2.88
	C10.127,155.435,13.908,155.127,14.598,157.4z"/>
<path fill="#C99DEF" d="M27.557,150.2c0.297,0.964,1.116,1.917,1.44,2.88l-4.32,2.88c-0.549-1.684-0.965-3.341-1.44-5.04
	C24.635,152.053,25.949,150.284,27.557,150.2z"/>
<path fill="#494CD1" d="M6.679,148.04c1.203,1.096,1.996,3.877,0.72,5.04c0.654,2.061-2.849,2.627-3.6,0.72
	c-0.504-2.083-0.384-3.418-0.72-5.04C2.571,145.795,5.407,145.881,6.679,148.04z"/>
<path fill="#9AAD61" d="M11.719,145.88c0.257,1.175,0.49,2.715,0.72,3.6l-3.6,0.72c-1.349,0.955-2.867-3.77-1.44-4.32
	C8.824,145.776,10.288,145.952,11.719,145.88z"/>
<path fill="#9541A9" d="M4.519,137.96l-3.6-0.72c-0.226-2.248-0.618-4.079-0.72-6.48l3.599,2.873
	c-0.962-1.662-0.686-3.252-0.72-5.033C4.676,131.293,4.138,135.112,4.519,137.96z"/>
<path fill="#6649C0" d="M5.239,143.72c0.107,0.639,0.514,1.788,0.72,2.88c0.92-0.658,0.988,0.461,0.72,1.44
	c-1.153,0.042-2.985-0.447-3.6,0.72c-0.306-1.475-1.108-2.968-1.44-5.04H5.239z"/>
<path fill="#2D57E2" d="M7.399,153.08c1.008-0.336,1.071,0.527,0.72,1.44c0.84,0.694,1.687,2.038,0.72,2.88
	c-0.122,1.579-3.427,1.948-3.6,0c-0.252-0.912-1.065-2.05-1.44-3.6L7.399,153.08z"/>
<path fill="#E81271" d="M3.8,111.32c-0.209,1.687-0.622,4.414-0.72,5.76c-2.808,0.396-2.202-0.388-2.16-2.88
	c0.092-1.181-0.138-2.43,0-3.6L3.8,111.32z"/>
<path fill="#E6D114" d="M8.839,128.6c-0.121,4.036,1.126,4.377-3.6,5.04c-0.103-1.663,0.031-3.37,0-5.04
	C6.25,128.793,8.038,128.323,8.839,128.6z"/>
<path fill="#337BCA" d="M17.478,165.32c0.318,0.814,1.011,1.883,1.44,2.88c0.348,1.971-3.737,2.599-4.32,0.72
	c-0.848,0.646-1.538-0.49-1.44-1.44C12.483,164.138,14.828,165.539,17.478,165.32z"/>
<path fill="#2273DD" d="M18.918,168.2c0.351,0.815,0.982,1.915,1.44,2.88c-1.974,1.119-3.894,1.599-5.759,1.44
	c-0.103-0.427,0.115-1.049,0-1.44c-0.548-0.857-1.135-1.858,0-2.16L18.918,168.2z"/>
<path fill="#C3C140" d="M10.279,137.96c0.202,1.232,0.484,2.389,0.72,3.6h-4.32c-0.111-1.094-0.564-2.336-0.72-3.6H10.279z"/>
<path fill="#CCABD9" d="M26.117,73.16c0.562-1.526,1.964-3.379,2.272-5.286l3.487-4.067L27.557,73.88L26.117,73.16z"/>
<path fill="#70998D" d="M13.878,153.8c0.341,1.188,0.406,2.601,0.72,3.6l-3.158,0.078l-0.442,0.642
	c-1.201,0.596-1.656-0.498-0.72-1.44C10.676,153.979,11.015,153.361,13.878,153.8z"/>
<path fill="#ECEBEE" d="M8.839,150.2c0.269,1.218-0.285,3.139,0,4.32c-0.204,0.629-0.445,0.62-0.72,0
	c-0.128-0.472-0.596-0.966-0.72-1.44c-0.488-1.873-0.401-3.488-0.72-5.04c-0.093-0.451-0.637-0.999-0.72-1.44
	c0.28-0.14,0.551-0.675,0.72-0.72c0.198-0.052,0.471,0.018,0.72,0C6.522,147.707,8.723,149.674,8.839,150.2z"/>
<path fill="#106BEC" d="M20.358,171.08c0.154,0.325-0.156,1.133,0,1.44c-2.474-0.308-3.769,0.174-3.607,2.879
	c-1.035-0.273-1.931-1.961-2.152-2.879C16.234,170.945,18.175,170.884,20.358,171.08z"/>
<path fill="#1C61ED" d="M8.839,157.4c1.352,0.109,1.788,1.287,0.72,2.16c-1.38-0.125-3.121-0.175-3.6,1.44
	c-0.474-1.572-0.445-2.605-0.72-3.6H8.839z"/>
<path fill="#BA99C6" d="M22.517,119.96c-0.742-5.415-0.581-6.878,0-12.24C22.474,111.762,22.339,115.927,22.517,119.96z"/>
<path fill="#B6A9BC" d="M18.918,124.28c-1.199-2.665-1.218-7.986,0-10.8C18.788,116.937,18.764,120.83,18.918,124.28z"/>
<path fill="#E72A79" d="M76.511,10.52c-1.471,0.81-2.972,1.418-4.32,2.16l-0.72-0.72c1.442-0.695,2.623-1.487,4.32-2.16
	C76.826,9.508,77.02,9.512,76.511,10.52z"/>
<path fill="#E42A77" d="M80.111,8.36c-1.602,1.102-1.941,1.247-3.6,2.16l-0.72-0.72C77.673,9.054,77.265,8.75,80.111,8.36z"/>
<path fill="#C9B7CF" d="M23.237,127.16c-0.254-2.387-0.601-4.527-0.72-7.2c0.009,0.067,0.576,0.436,0.7,1.087
	C23.57,122.906,23.04,125.218,23.237,127.16z"/>
<path fill="#C8C2CB" d="M22.517,107.72c0.017-1.578-0.533-4.058,0.72-5.04C23.117,104.769,22.671,106.303,22.517,107.72z"/>
<path fill="#C8B1D1" d="M23.237,99.8c0.015-1.577-0.531-4.059,0.72-5.04C23.859,96.354,24.55,98.791,23.237,99.8z"/>
<path fill="#EAD118" d="M41.235,41.48c-0.125,0.117-2,1.984-2.16,2.16h-0.72c0.717-0.664,1.183-1.335,2.16-2.16H41.235z"/>
<path fill="#E0397E" d="M80.111,8.36c1.445-0.993,3.059-2.93,2.876-0.004C82.054,8.453,81.03,8.234,80.111,8.36z"/>
<path fill="#DCC834" d="M40.515,41.48c0.422-0.356,2.442-2.655,2.872-2.16c1.284,1.476-1.611,1.651-2.153,2.16H40.515z"/>
<path fill="#B7AABD" d="M18.918,109.88c0.087-1.617,0.684-3.157,0.72-3.6C19.596,107.434,20.085,109.265,18.918,109.88z"/>
<path fill="#C1AACA" d="M20.358,97.64c0.213-1.453,0.52-2.46,0.72-3.6C21.035,95.193,21.524,97.025,20.358,97.64z"/>
<path fill="#932AA7" d="M134.825,45.08c-1.246-0.146-3.322-0.7-3.6-0.72C132.379,44.402,134.21,43.913,134.825,45.08z"/>
<path fill="#E8E9EA" d="M10.279,156.68c0.214,0.659,0.709,1.36,0.72,1.44c0.128,0.929-0.27,2.055-0.72,2.88
	c-0.123-0.358-0.515-0.804-0.72-1.44c-0.233-0.724-0.496-1.417-0.72-2.16c-0.246-0.814-0.459-1.92-0.72-2.88h0.72
	C8.968,155.055,10.067,156.026,10.279,156.68z"/>
<path fill="#E9ECF0" d="M11.719,166.04c-0.566-1.493-0.433-2.783-0.72-3.6c0.216-0.25,0.435-0.548,0.72-0.72
	C12.017,163.049,13.19,165.201,11.719,166.04z"/>
<path fill="#ABB8C8" d="M14.598,168.92c0.174,0.559-0.17,1.584,0,2.16c-1.389-0.952-1.578-2.256-2.16-3.6h0.72
	C13.487,167.874,14.494,168.584,14.598,168.92z"/>
</svg>
