<?xml version="1.0" encoding="UTF-8" standalone="yes"?>
<svg width="600" height="600" viewBox="0 0 600 600" fill="none" version="1.2" baseProfile="tiny-ps" xmlns="http://www.w3.org/2000/svg">
  <title>HomeToGo logo</title>
  <rect width="600" height="600" fill="white"/>
  <path d="M462.558 379.505C462.558 373.518 467.411 368.665 473.398 368.665H521.16C527.147 368.665 532 373.518 532 379.505V379.505C532 385.492 527.147 390.345 521.16 390.345H473.398C467.411 390.345 462.558 385.492 462.558 379.505V379.505Z" fill="#612ACE"/>
  <path d="M462.558 379.505C462.558 373.518 467.411 368.665 473.398 368.665H521.16C527.147 368.665 532 373.518 532 379.505V379.505C532 385.492 527.147 390.345 521.16 390.345H473.398C467.411 390.345 462.558 385.492 462.558 379.505V379.505Z" fill="url(#paint1_radial_5107_24632)"/>
  <path d="M81.4467 292.069C80.6477 292.069 80 291.422 80 290.624V184.459C80 183.803 80.4411 183.23 81.0748 183.062L99.9355 178.049C100.854 177.805 101.754 178.497 101.754 179.446V224.122C107.072 217.72 114.13 214.519 122.928 214.519C131.05 214.519 137.963 217.283 143.667 222.812C149.275 228.341 152.079 235.228 152.079 243.473V290.624C152.079 291.422 151.431 292.069 150.632 292.069H131.916C131.117 292.069 130.47 291.422 130.47 290.624V249.293C130.47 245.122 129.068 241.679 126.264 238.963C123.557 236.15 120.173 234.743 116.112 234.743C112.051 234.743 108.619 236.15 105.815 238.963C103.108 241.679 101.754 245.122 101.754 249.293V290.624C101.754 291.422 101.106 292.069 100.307 292.069H81.4467Z" fill="#262626"/>
  <path d="M171.304 282.612C163.666 274.949 159.847 265.492 159.847 254.24C159.847 242.988 163.666 233.579 171.304 226.013C178.942 218.35 188.562 214.519 200.164 214.519C211.67 214.519 221.242 218.35 228.88 226.013C236.614 233.579 240.482 242.988 240.482 254.24C240.482 265.395 236.614 274.852 228.88 282.612C221.145 290.178 211.573 293.961 200.164 293.961C188.562 293.961 178.942 290.178 171.304 282.612ZM200.164 272.427C205.192 272.427 209.349 270.681 212.637 267.189C216.117 263.6 217.858 259.284 217.858 254.24C217.858 249.196 216.117 244.928 212.637 241.436C209.349 237.847 205.192 236.053 200.164 236.053C195.137 236.053 190.931 237.799 187.547 241.29C184.163 244.879 182.471 249.196 182.471 254.24C182.471 259.284 184.163 263.6 187.547 267.189C190.931 270.681 195.137 272.427 200.164 272.427Z" fill="#262626"/>
  <path d="M269.912 290.624C269.912 291.422 269.264 292.069 268.465 292.069H249.605C248.806 292.069 248.158 291.422 248.158 290.624V217.856C248.158 217.057 248.806 216.41 249.605 216.41H268.465C269.264 216.41 269.912 217.057 269.912 217.856V223.249C274.94 217.429 281.466 214.519 289.491 214.519C299.353 214.519 306.991 218.399 312.405 226.159C317.336 218.399 324.878 214.519 335.029 214.519C343.151 214.519 350.064 217.235 355.768 222.667C361.376 228.002 364.18 234.646 364.18 242.6V290.624C364.18 291.422 363.532 292.069 362.733 292.069H343.873C343.074 292.069 342.426 291.422 342.426 290.624V248.42C342.426 244.54 341.217 241.29 338.8 238.672C336.383 236.053 333.386 234.743 329.808 234.743C326.231 234.743 323.186 236.053 320.672 238.672C318.255 241.29 317.046 244.54 317.046 248.42V290.624C317.046 291.422 316.398 292.069 315.599 292.069H296.739C295.94 292.069 295.292 291.422 295.292 290.624V248.42C295.292 244.54 294.083 241.29 291.666 238.672C289.249 236.053 286.252 234.743 282.675 234.743C279.097 234.743 276.052 236.053 273.538 238.672C271.121 241.29 269.912 244.54 269.912 248.42V290.624Z" fill="#262626"/>
  <path d="M450.949 262.097H394.824C396.081 266.074 398.353 269.275 401.64 271.7C404.927 274.125 408.795 275.337 413.242 275.337C419.102 275.337 423.879 273.336 427.571 269.334C427.952 268.922 428.527 268.738 429.069 268.884L447.269 273.795C448.171 274.038 448.609 275.061 448.122 275.858C444.736 281.387 440.255 285.205 434.416 288.577C428.132 292.166 421.025 293.961 413.097 293.961C401.302 293.961 391.488 290.178 383.657 282.612C375.825 275.046 371.909 265.589 371.909 254.24C371.909 242.988 375.728 233.579 383.367 226.013C391.005 218.35 400.528 214.519 411.937 214.519C423.249 214.519 432.724 218.35 440.362 226.013C448 233.579 451.82 242.988 451.82 254.24C451.82 256.956 451.529 259.575 450.949 262.097ZM394.969 245.946H429.63C428.277 242.066 426.005 238.963 422.814 236.635C419.623 234.307 415.998 233.143 411.937 233.143C408.07 233.143 404.589 234.307 401.495 236.635C398.401 238.963 396.226 242.066 394.969 245.946Z" fill="#262626"/>
  <path d="M130.635 300.422C130.635 299.624 131.283 298.977 132.082 298.977H150.89C151.689 298.977 152.336 299.624 152.336 300.422V313.601H167.961C168.76 313.601 169.408 314.248 169.408 315.047V330.979C169.408 331.778 168.76 332.425 167.961 332.425H152.336V360.66C152.336 362.977 153.108 364.907 154.651 366.452C156.194 367.9 158.172 368.624 160.583 368.624H167.961C168.76 368.624 169.408 369.271 169.408 370.069V387.45C169.408 388.248 168.76 388.895 167.961 388.895H156.966C149.539 388.895 143.27 386.627 138.158 382.09C133.143 377.456 130.635 371.713 130.635 364.859V300.422Z" fill="#262626"/>
  <path d="M185.564 379.484C177.945 371.858 174.135 362.446 174.135 351.248C174.135 340.051 177.945 330.687 185.564 323.158C193.184 315.532 202.781 311.719 214.355 311.719C225.832 311.719 235.381 315.532 243.001 323.158C250.717 330.687 254.575 340.051 254.575 351.248C254.575 362.349 250.717 371.761 243.001 379.484C235.285 387.013 225.736 390.778 214.355 390.778C202.781 390.778 193.184 387.013 185.564 379.484ZM214.355 369.348C219.37 369.348 223.518 367.61 226.797 364.135C230.269 360.563 232.005 356.268 232.005 351.248C232.005 346.229 230.269 341.981 226.797 338.506C223.518 334.935 219.37 333.149 214.355 333.149C209.339 333.149 205.144 334.886 201.768 338.361C198.392 341.933 196.704 346.229 196.704 351.248C196.704 356.268 198.392 360.563 201.768 364.135C205.144 367.61 209.339 369.348 214.355 369.348Z" fill="#262626"/>
  <path d="M285.867 351.294C285.867 339.967 289.252 330.608 296.022 323.216C302.792 315.729 311.303 311.985 321.554 311.985C329.291 311.985 336.255 314.289 342.444 318.897V315.302C342.444 314.504 343.092 313.857 343.891 313.857H362.613C363.412 313.857 364.06 314.504 364.06 315.302V387.147C364.06 397.418 360.385 405.913 353.034 412.633C345.781 419.544 336.738 423 325.906 423C317.202 423 309.417 420.792 302.55 416.377C296.098 412.196 291.68 407.109 289.296 401.116C288.989 400.342 289.447 399.491 290.252 399.274L308.919 394.245C309.582 394.066 310.274 394.382 310.633 394.966C311.868 396.972 313.794 399.021 316.187 400.25C318.991 401.786 322.086 402.554 325.471 402.554C330.21 402.554 334.224 401.114 337.512 398.234C340.8 395.354 342.444 391.755 342.444 387.435V383.547C336.448 388.251 329.485 390.603 321.554 390.603C311.303 390.603 302.792 386.859 296.022 379.372C289.252 371.788 285.867 362.429 285.867 351.294ZM325.326 333.295C320.587 333.295 316.573 335.023 313.285 338.479C310.094 341.935 308.498 346.254 308.498 351.438C308.498 356.429 310.094 360.653 313.285 364.109C316.573 367.565 320.587 369.292 325.326 369.292C329.968 369.292 333.934 367.565 337.222 364.109C340.51 360.749 342.154 356.525 342.154 351.438C342.154 346.254 340.51 341.935 337.222 338.479C333.934 335.023 329.968 333.295 325.326 333.295Z" fill="#262626"/>
  <path d="M383.344 379.372C375.704 371.788 371.883 362.429 371.883 351.294C371.883 340.159 375.704 330.848 383.344 323.36C390.984 315.777 400.607 311.985 412.213 311.985C423.722 311.985 433.296 315.777 440.937 323.36C448.674 330.848 452.543 340.159 452.543 351.294C452.543 362.333 448.674 371.692 440.937 379.372C433.2 386.859 423.625 390.603 412.213 390.603C400.607 390.603 390.984 386.859 383.344 379.372ZM412.213 369.292C417.242 369.292 421.401 367.565 424.689 364.109C428.171 360.557 429.912 356.285 429.912 351.294C429.912 346.302 428.171 342.079 424.689 338.623C421.401 335.071 417.242 333.295 412.213 333.295C407.184 333.295 402.977 335.023 399.592 338.479C396.207 342.031 394.514 346.302 394.514 351.294C394.514 356.285 396.207 360.557 399.592 364.109C402.977 367.565 407.184 369.292 412.213 369.292Z" fill="#262626"/>
  <defs>
    <radialGradient id="paint1_radial_5107_24632" cx="0.85" cy="1.2" r="1.25" gradientUnits="objectBoundingBox">
      <stop offset="0" stop-color="#FFD458" />
      <stop offset="0.8" stop-color="#612ACE" />
    </radialGradient>
  </defs>
</svg>