<?xml version="1.0" encoding="utf-8"?>
<svg xmlns="http://www.w3.org/2000/svg" xmlns:xlink="http://www.w3.org/1999/xlink" version="1.2" viewBox="0 0 96 96" baseProfile="tiny-ps">
<title>LoveBook</title>
<desc>LoveBook</desc>
<rect width="96" height="96" fill="#FFFFFF"/>
<g>
  <polygon points="29.649,25.044 47.998,41.138 47.998,76.081 7.899,44.908 23.267,21.274  " fill="#E6E7E8"/>
  <polygon points="66.353,25.044 47.998,41.138 47.998,76.081 88.103,44.908 72.732,21.274  " fill="#D0D2D3"/>
  <path d="M93.492,42.025L75.808,17.369l-0.047-0.063c-0.723-0.877-1.793-1.382-2.932-1.382   c-0.848,0-1.649,0.275-2.359,0.825l-22.471,18.94L25.491,16.717c-0.67-0.518-1.471-0.793-2.317-0.793   c-1.139,0-2.209,0.505-2.933,1.382L2.507,42.025c-1.247,1.546-1.088,3.807,0.37,5.162l40.315,31.908   c0.7,0.634,1.605,0.982,2.551,0.982h0.001l4.52-0.001c0.945,0,1.847-0.349,2.547-0.985l40.241-31.844l0.071-0.061   C94.58,45.832,94.74,43.571,93.492,42.025z M85.34,43.931l-36.517,28.55H47.18l-36.52-28.55l13.142-18.848L44.26,42.422   l1.46,13.269c0.006,0.038,0.579,3.639,2.28,3.639c1.473,0,2.159-2.702,2.284-3.67l1.457-13.238L72.2,25.082L85.34,43.931z" fill="#B62025"/>
</g>
</svg>
