<?xml version="1.0" encoding="utf-8"?>
<!-- Generator: Adobe Illustrator 27.2.0, SVG Export Plug-In . SVG Version: 6.00 Build 0)  -->
<svg version="1.2" baseProfile="tiny-ps" id="Layer_1" xmlns="http://www.w3.org/2000/svg" xmlns:xlink="http://www.w3.org/1999/xlink"
	  viewBox="0 0 120 120" xml:space="preserve">
<title>Fashion Nova</title>
<rect width="120" height="120"/>
<path fill-rule="evenodd" fill="#FFFFFF" d="M96.8,54.3h3.7c0.1,0,0.2,0.1,0.2,0.2l-3.8,11.2c0,0.1-0.2,0.2-0.3,0.2H93
	c-0.1,0-0.3-0.1-0.3-0.2l-2-5.9c0,0.1,0,0.2,0,0.3c0,3.4-2.7,6.2-6,6.2c-3,0-5.5-2.3-5.9-5.3v4.7c0,0.1-0.1,0.2-0.2,0.2h-2.8
	c-0.1,0-0.3-0.1-0.3-0.2l-2.9-5.2v5.2c0,0.1-0.1,0.2-0.2,0.2h-3.4l-7.1-10.5V66H61V54.3h0.7l7.1,10.4V54.3h0.3l0.7,0h2.4
	c0.1,0,0.3,0.1,0.4,0.2l2.8,5.2v-5.2c0-0.1,0.1-0.3,0.2-0.3h2.9c0.1,0,0.2,0.1,0.2,0.3v4.7c0.4-3,2.9-5.3,5.9-5.3c2,0,3.8,1,4.9,2.6
	l-0.7-2c0-0.1,0-0.2,0.2-0.2h3.7c0.1,0,0.3,0.1,0.3,0.2l1.7,6.9l1.7-6.9C96.5,54.5,96.7,54.3,96.8,54.3z M82.1,60.2
	c0,1.5,1.2,2.7,2.6,2.7s2.6-1.2,2.6-2.7c0-1.5-1.2-2.7-2.6-2.7S82.1,58.7,82.1,60.2z M103.3,61.6l0.9-3.2l0.9,3.2H103.3z
	 M106.3,54.6l3.7,11.2c0,0.1,0,0.2-0.1,0.2h-3.3c-0.1,0-0.3-0.1-0.3-0.2l-0.5-1.8h-3.1l-0.5,1.8c-0.1,0.1-0.2,0.2-0.3,0.2h-3.3
	c-0.1,0-0.2-0.1-0.1-0.2l3.7-11.2c0-0.1,0.2-0.2,0.4-0.2h3.4C106,54.3,106.2,54.5,106.3,54.6z"/>
<path fill="#FFFFFF" d="M10.7,55.1h5v-0.7H10v11.9h0.7v-5.5h4.8v-0.7h-4.8V55.1z"/>
<path fill-rule="evenodd" fill="#FFFFFF" d="M31.6,60c0.4,0.2,0.7,0.5,1.1,0.8c0.3,0.3,0.6,0.6,0.8,1c0.2,0.4,0.3,0.8,0.3,1.3
	c0,0.5-0.1,0.9-0.3,1.3c-0.2,0.4-0.4,0.7-0.7,1c-0.3,0.3-0.7,0.5-1.1,0.7c-0.4,0.2-0.9,0.2-1.5,0.2c-0.5,0-1-0.1-1.6-0.2
	c-0.6-0.1-1-0.3-1.4-0.5l0.2-0.7c0.5,0.2,0.9,0.4,1.4,0.5c0.5,0.1,0.9,0.2,1.5,0.2c0.9,0,1.6-0.2,2.1-0.7c0.5-0.4,0.8-1.1,0.8-1.8
	c0-0.4-0.1-0.8-0.2-1.1c-0.2-0.3-0.4-0.6-0.6-0.8c-0.3-0.2-0.5-0.4-0.9-0.6c-0.3-0.2-0.7-0.4-1-0.5c-0.4-0.2-0.8-0.4-1.2-0.6
	c-0.4-0.2-0.7-0.4-0.9-0.7c-0.3-0.3-0.5-0.5-0.6-0.9c-0.1-0.3-0.2-0.7-0.2-1.1c0-0.5,0.1-0.9,0.3-1.2c0.2-0.4,0.4-0.6,0.7-0.9
	c0.3-0.2,0.6-0.4,1-0.5c0.4-0.1,0.8-0.2,1.2-0.2c0.5,0,1,0.1,1.5,0.2c0.5,0.1,0.9,0.3,1.3,0.5l-0.2,0.7c-0.4-0.2-0.8-0.4-1.2-0.5
	c-0.4-0.1-0.8-0.2-1.3-0.2c-0.7,0-1.3,0.2-1.8,0.5c-0.5,0.3-0.7,0.9-0.7,1.6c0,0.3,0,0.6,0.1,0.9c0.1,0.2,0.2,0.5,0.4,0.7
	c0.2,0.2,0.4,0.4,0.7,0.6c0.3,0.2,0.6,0.4,1,0.6C30.8,59.6,31.2,59.8,31.6,60z M20.6,54.2l-4.5,11.9h0.7l1.2-3.2h5.6l1.2,3.2h0.7
	l-4.5-11.9H20.6z M18.3,62.2l2.6-7l2.6,7H18.3z"/>
<path fill="#FFFFFF" d="M42.6,59.9h-6.9v-5.5h-0.8v11.9h0.8v-5.7h6.9v5.7h0.8V54.4h-0.8V59.9z"/>
<path fill="#FFFFFF" d="M45.6,66.3h0.8V54.4h-0.8V66.3z"/>
<path fill-rule="evenodd" fill="#FFFFFF" d="M47.9,60.4c0-3.5,2.8-6.4,6.1-6.4c3.4,0,6.1,2.9,6.1,6.4c0,3.5-2.8,6.4-6.1,6.4
	C50.7,66.7,47.9,63.9,47.9,60.4z M48.7,60.4c0,3,2.4,5.5,5.3,5.5c2.9,0,5.3-2.5,5.3-5.5s-2.4-5.5-5.3-5.5
	C51.1,54.8,48.7,57.3,48.7,60.4z"/>
</svg>
