<?xml version="1.0" encoding="utf-8"?>
<svg version="1.2" xmlns:xlink="http://www.w3.org/1999/xlink" viewBox="-55 -55 455 455" baseProfile="tiny-ps" xmlns="http://www.w3.org/2000/svg">
  <title>BIMI LOGO Kraemer Pferdesport </title>
<g>
	<rect  x="-55" y="-55" width="455" height="455" fill="#fff" />
	<path fill="#17325C" d="M332.26,332.26H14.17V14.17h318.08V332.26z M17.09,329.34h312.25V17.09H17.09V329.34z" />
</g>
<path fill="#17325C" d="M36.53,36.54v273.34H309.9V36.54H36.53z M58.99,287.45V58.51h228.94v72.47l-48.16-33.95l-69.11-16.95  l-4.84-2.26l-2.9-3.22l-25.66-14.05l3.87,18.89L120.96,90.4l-1.29,6.32l-52.8,33.07v19.86l11.15,7.61l15.15-2.77l2.77-0.65  l1.29-2.58l3.22-1.93l73.75-12.25l5.03-1.29l7.09-1.16l14.37,17.92v50.86h-19.21l-5.35,2.9l-17.09,15.02v34.04l38.23,31.01h6.32  v-27.59h-19.86l-6.64-5.67v-22.43l9.54-8.7h101.28v65.48H58.99z" />
</svg>