<?xml version="1.0" encoding="utf-8"?>
<svg xmlns="http://www.w3.org/2000/svg" xmlns:xlink="http://www.w3.org/1999/xlink" version="1.2" baseProfile="tiny-ps" viewBox="0 0 1080 1080" xml:space="preserve">
<title>Tourism NT</title>
<linearGradient id="tntlogogradient" gradientUnits="userSpaceOnUse" x1="517.1766" y1="287.2517" x2="794.5972" y2="767.7588">
<stop offset="0" stop-color="#E9943E"/>
<stop offset="0.0923" stop-color="#E9943E"/>
<stop offset="0.8227" stop-color="#DD5D85"/>
<stop offset="0.9944" stop-color="#D9355D"/>
<stop offset="1" stop-color="#DA3832"/>
</linearGradient>
<rect fill="#FFFFFF" width="1080" height="1080"/>
		<path fill="url(#tntlogogradient)" d="M958.7,537.4c-0.6-1.3-0.6-3.2-0.6-5.1s-0.6-3.2-0.6-5.1s0-3.8,0-5.8s0-1.3,0.6-1.9c0.6-4.5,0-10.2,0-12.2    s0-3.8-1.3-7c0-0.6,0-1.9-0.6-2.6c-1.3-3.8-1.9-9-2.6-14.1c-0.6-2.6-1.3-5.1-1.9-7.7c-0.6-2.6-1.9-5.1-3.2-8.3    c-3.2-8.3-5.1-10.2-7.7-16.6c-0.6-1.3-0.6-2.6-1.3-3.2c0-1.3-0.6-5.8-2.6-10.2c0.6,0.6-2.6-3.8-2.6-3.8    c-2.6-6.4-8.3-19.2-9.6-25.6c-2.6-12.2-8.3-20.5-8.3-20.5l-0.6-1.9c0-0.6-0.6-2.6-2.6-7c-1.3-1.9-2.6-4.5-4.5-6.4l-0.6-2.6    c0.6,1.9,0.6,0.6-1.3-1.9c0-0.6,0-1.9-0.6-3.2c-1.3-1.9-3.8-4.5-7-9c-1.3-3.2,0-2.6-3.2-6.4c0-0.6-3.8-7-5.8-8.3    c-1.3-3.8-7-10.2-5.8-10.9c-0.6-0.6-17.3-21.8-20.5-25.6c-3.2-3.2-16.6-16.6-18.6-17.9c-1.9-1.3-4.5-3.2-5.8-3.8    c-3.8-4.5-11.5-12.2-15.4-13.4c-4.5-4.5-7-5.8-8.3-6.4c-7-4.5-2.6-2.6-5.1-5.1c-4.5-2.6-9-3.2-12.2-5.1c0,0-6.4-3.2-10.2-5.1    c-3.8-1.9-8.3-3.2-11.5-3.8c-0.6,0-7-1.3-7-1.3c-2.6-1.9-1.9-1.3-5.1-1.9c-3.2-0.6-6.4-1.3-8.3-1.9c-0.6-0.6-8.3-3.2-10.2-3.2    c-7-0.6-9.6-1.9-12.2-2.6s-3.8-1.9-9.6-1.3c-2.6,0.6-3.8,1.9-11.5,0.6c0,0-3.8-0.6-5.1-0.6c-1.3,0.6-12.8-0.6-12.8-0.6    c-10.2,0.6-30.7,2.6-33.3,3.2c-7,1.3-14.7,2.6-22.4,3.8c-3.8,0.6-7.7,1.3-11.5,1.9c-3.8,0.6-7,1.3-10.9,1.9c0,0-12.8,4.5-10.9,3.8    c-4.5,1.3-10.9,4.5-17.3,7c-6.4,2.6-12.8,5.1-17.9,6.4c0,0-5.8,4.5-12.8,6.4c0,0-30.7,16-42.2,21.8c-0.6,1.3-4.5,3.2-7.7,5.8    c-3.2,1.9-12.2,9-14.1,9.6c-1.9,0.6-4.5,2.6-10.2,6.4c-3.2,1.9-3.2,4.5-7,7.7l-0.6-0.6c0,0-7,7-7,7.7    c-4.5,5.1-12.2,10.9-12.8,10.9l-9.6,12.2c0-0.6-3.2,3.2-3.2,3.8c-3.2,2.6-12.2,13.4-12.2,13.4c-1.9,2.6-3.8,4.5-5.8,7    c-1.9,2.6-3.8,5.1-5.1,7.7c-1.9,2.6-3.8,5.1-5.1,8.3c-1.9,2.6-9,16-9.6,15.4c-0.6,2.6-5.8,9-6.4,12.2h-0.6    c-5.8,12.2-7.7,17.3-11.5,27.5c0.6,0.6-1.3,4.5-1.3,7.7c-2.6,7.7-6.4,15.4-8.3,25c-1.3,6.4-4.5,18.6-5.1,23    c-0.6,3.8-1.9,19.2-1.9,18.6v-0.6c0,8.3-1.9,17.3-2.6,26.2c-1.3,9-1.3,17.3,0,23.7v-0.6c0.6,4.5,1.3,9,1.9,13.4    c0.6,6.4-0.6,4.5,0,5.8c0,1.3,0.6,3.2,0.6,4.5c0.6,3.2,0.6,5.8,1.3,8.3c0.6,5.1,1.9,10.2,3.2,16c-0.6,5.1,1.9,12.8,4.5,21.1    c1.3,3.8,3.2,8.3,4.5,12.2c0.6,1.9,1.3,3.8,1.9,5.8c0.6,1.9,1.9,3.8,1.9,3.8c1.3,1.9,0.6,1.9,1.3,3.2c5.8,12.2,12.2,25,19.8,37.1    c7.7,12.2,16,23.7,25.6,33.9c7,7.7,5.8,2.6,14.1,12.2c0,0,12.8,11.5,21.1,17.9c4.5,3.2,8.3,6.4,12.8,9s9,5.8,13.4,7.7    c-1.3-0.6,1.9,1.9,5.1,3.8c3.2,1.3,5.8,2.6,5.8,2.6c2.6,1.3,0.6,0.6,1.9,1.9c3.8,2.6,14.1,7,16.6,7.7c2.6,1.3,9.6,3.8,12.8,5.1    c3.2,1.3,6.4,1.9,9,3.2c3.8,0.6,12.2,4.5,14.1,3.8c-0.6,0.6,2.6,1.9,6.4,2.6c3.8,1.3,8.3,1.9,10.9,1.9c-1.9,0,12.2,3.2,11.5,2.6    c5.1,1.9,9.6,2.6,14.1,2.6c4.5,0.6,8.3,0.6,10.9,1.9c16,0.6,31.4,0.6,45.4-1.3c0,0.6,6.4-0.6,19.8-1.9c3.8-0.6,33.9-7,32.6-6.4    c2.6-0.6,21.1-7.7,20.5-7.7c1.9-0.6,5.8-2.6,12.8-5.1c0,0.6,5.1-2.6,10.9-5.1c0,0.6,8.3-3.8,12.2-6.4c4.5-2.6,21.8-12.2,21.8-12.2    c5.1-3.2,9-6.4,13.4-9c0,0-1.3-1.3,5.8-5.1c-1.3,1.3,5.1-3.2,7.7-4.5l0,0c1.9-1.9,4.5-4.5,7.7-6.4c1.3-0.6,11.5-7.7,13.4-10.9    c-0.6,1.3,1.3-1.3,9-7c-0.6,0.6,5.8-4.5,9-7.7s6.4-6.4,9.6-9.6c2.6-1.3,1.9-0.6,4.5-2.6s4.5-5.1,6.4-7.7    c4.5-5.1,10.9-12.8,10.9-12.8c0-1.3,1.3-2.6,3.8-5.1s4.5-4.5,6.4-7c-0.6,1.3,10.2-12.2,17.3-23l10.9-16.6c2.6-3.2,5.1-6.4,7-10.2    c1.9-3.8,3.8-7,5.1-10.9c0.6-1.9,1.3-3.8,2.6-5.1c0.6-1.9,1.3-3.8,1.9-5.1c1.3-3.8,3.2-7,5.1-10.2l1.3-7c1.3-2.6,2.6-9,2.6-9    c2.6-6.4,2.6-16,3.2-19.8c1.3-1.3,0.6-1.3,0.6-3.8s0-5.1,0.6-7C956.7,547,958.7,537.4,958.7,537.4z"/>
		<path fill="#FFFFFF" d="M599.1,468.9c19.8,7,1.9,40.3-15.4,20.5C566.4,469.5,599.1,468.9,599.1,468.9"/>
		<path fill="#FFFFFF" d="M676.5,579.6c0,0-16.6,21.8,8.3,20.5C709.1,599.4,691.8,570.6,676.5,579.6"/>
		<path fill="#FFFFFF" d="M743,574.5c0,0-28.8-0.6-12.8,19.2C745.6,612.9,760.3,581.5,743,574.5"/>
		<path fill="#FFFFFF" d="M785.3,542.5c0,0-32,0.6-15.4,19.8C787.2,580.9,803.8,548.9,785.3,542.5"/>
		<path fill="#FFFFFF" d="M628.5,434.3c-1.3-14.7-23.7-24.3-29.4-1.3C594,456.1,629.8,448.4,628.5,434.3"/>
		<path fill="#FFFFFF" d="M666.9,388.3c0,0-35.2,0.6-16.6,21.8C668.8,430.5,688,395.3,666.9,388.3"/>
		<path fill="#FFFFFF" d="M734.1,391.5c-9.6-10.2-33.9-1.9-18.6,18.6C727.7,426.7,743,401.7,734.1,391.5"/>
		<path fill="#FFFFFF" d="M804.5,625.7c14.7-1.3,25.6-24.3,1.3-30.1C782.1,590.5,789.1,627.6,804.5,625.7"/>
		<path fill="#FFFFFF" d="M659.2,335.8c-9.6-10.2-33.9-1.9-18.6,19.2C652.8,371.6,668.8,346.7,659.2,335.8"/>
		<path fill="#FFFFFF" d="M710.4,325.6c0,0-39,0.6-18.6,23.7C713,372.9,733.4,333.9,710.4,325.6"/>
		<path fill="#FFFFFF" d="M765.4,340.9c0,0-35.2,0.6-16.6,21.8C767.3,383.2,785.9,348,765.4,340.9"/>
		<path fill="#FFFFFF" d="M872.3,495.1c0,0-14.7-32-26.2-6.4C834.5,514.3,874.2,516.9,872.3,495.1"/>
		<path fill="#FFFFFF" d="M531.2,473.4c-4.5,13.4,20.5,30.1,25,9.6C561.3,457.4,535.7,459.9,531.2,473.4"/>
		<path fill="#FFFFFF" d="M681.6,639.1c-2.6,14.1,24.3,26.9,25.6,6.4C709.8,619.3,684.2,625.7,681.6,639.1"/>
		<path fill="#FFFFFF" d="M792.9,501.5c-2.6,14.1,24.3,26.9,25.6,6.4C821.1,481.7,795.5,487.4,792.9,501.5"/>
		<path fill="#FFFFFF" d="M735.4,637.8c-2.6,14.1,24.3,26.9,25.6,6.4C762.9,618,737.3,623.7,735.4,637.8"/>
		<path fill="#FFFFFF" d="M567.7,403.6c0,0-35.2,0.6-16.6,21.1C569.6,446.5,588.8,411.3,567.7,403.6"/>
		<path fill="#FFFFFF" d="M846.7,543.1c0,0-35.2,0.6-16.6,21.1C848.6,586,867.2,550.8,846.7,543.1"/>
		<path fill="#FFFFFF" d="M617,362.7c0,0-35.2,0.6-16.6,21.8C618.9,405.6,637.5,370.4,617,362.7"/>
			<path fill="#1F1F5F" d="M569,658.3c-1.9,7-3.2,14.7-4.5,21.8c-1.3,7-1.9,14.7-2.6,21.8c-0.6,7.7-1.3,14.7-1.9,21.8     c-0.6,7.7-1.3,14.7-1.3,21.8c-0.6,14.7-1.3,29.4-2.6,44.1c-0.6,7.7-1.3,14.7-2.6,22.4c-0.6,3.8-1.3,7.7-1.9,11.5     c-0.6,3.8-1.9,7.7-2.6,11.5l0,0c-0.6,2.6-2.6,4.5-5.8,3.8s-4.5-2.6-3.8-5.8c0-0.6,0-0.6,0.6-1.3c2.6-7,3.8-13.4,3.8-21.1     c0-7,0-14.7,0-21.8c0.6-14.7,1.9-29.4,3.2-44.1c0.6-7.7,1.3-14.7,1.9-22.4l2.6-21.8c0.6-7.7,1.3-14.7,1.9-21.8     c0.6-7.7,1.3-14.7,0.6-22.4c0-3.8,2.6-7,7-7c3.8,0,7,2.6,7,7C569,657,569,657.6,569,658.3L569,658.3z"/>
			<path fill="#1F1F5F" d="M531.2,678.1c-1.3,4.5-1.9,9-1.9,12.8c0,1.3,0,1.9,0,2.6v3.2c0,2.6-0.6,4.5-0.6,7     c-0.6,9-1.9,17.9-2.6,26.9s-1.3,17.9-1.9,26.9c-0.6,9-0.6,17.9-1.3,26.9c0,4.5,0,9,0,13.4c0,4.5,0,9,0,13.4     c0,9-0.6,17.9-0.6,26.9l-0.6,13.4c0,2.6,0,4.5,0,6.4c0,1.9,0,4.5,0,6.4c0,4.5,0.6,9,0.6,13.4c0,5.1-0.6,9.6-0.6,14.1     c0,2.6-2.6,5.1-5.8,4.5c-2.6,0-5.1-2.6-4.5-5.8l0,0l0,0c0.6-4.5,1.3-9,1.3-12.8v-13.4c0-2.6,0-4.5,0-7c0-2.6,0.6-4.5,0.6-7     l1.3-13.4c0.6-9,1.3-17.9,1.3-26.9c0-4.5,0-9,0-13.4c0-4.5,0-9,0-13.4c0-17.9,0-35.8,0.6-54.4c0-9,0.6-17.9,0.6-26.9     c0-1.9,0-4.5,0-6.4v-3.2c0-1.3,0-2.6,0-3.8c0-5.1,0.6-9,0.6-14.1c0-4.5,3.8-7.7,7.7-7.7c3.8,0,7.7,3.8,7.7,7.7     C531.2,676.8,531.2,677.5,531.2,678.1z"/>
			<path fill="#1F1F5F" d="M881.2,388.3c-3.8,24.3-10.9,45.4-32,59.5c-17.9,12.2-39.7,17.3-59.5,24.3c-25,9-48.6,19.2-72.9,30.1     c-42.2,19.2-83.8,39.7-125.4,60.8c-0.6,0.6-1.3,0.6-1.9,1.3l0,0c-1.3,0.6-2.6,1.3-4.5,1.9c-15.4,9.6-23,37.1-6.4,47.3     c3.8,1.9,7.7,3.2,10.9,3.2c5.1,0,9.6-1.3,14.1-3.2c5.1-1.9,9-2.6,14.1-1.9c5.1,0.6,11.5,7,13.4,11.5c3.2,7.7,15.4,19.8,24.3,28.8     c2.6,2.6,1.9,5.8-0.6,3.8c-10.9-7-10.2-7.7-16.6-10.2c-5.1-1.9-6.4-2.6-11.5-1.9s-10.9-0.6-13.4-1.9c-16.6-9-39-1.3-54.4-4.5     c-8.3-1.9-20.5,1.3-27.5,7.7c-15.4,14.7-30.1,30.1-46.7,30.7c-8.3,0.6-17.9-4.5-25.6-7c-4.5-1.9-10.9-2.6-16-3.2     c-4.5,0-2.6-1.9,0-3.2c16.6-7.7,32.6-23,47.3-37.8c3.8-3.8,12.2-15.4-1.9-21.8c-23.7-6.4-46.1-14.7-67.8-26.2     c-22.4-11.5-42.2-26.2-60.8-43.5c-19.8-17.9-43.5-37.1-65.9-51.8c-16.6-10.9-34.6-18.6-53.7-26.9c-44.8-16-81.3-44.1-102.4-88.3     l-1.3-5.1c-1.3-9,8.3-14.1,12.2-7c12.8,25.6,32.6,46.7,56.9,62.1c26.2,17.3,56.3,24.3,88.9,32.6c26.2,6.4,45.4,14.1,70.4,25     c24.3,10.2,46.1,24.3,67.8,39.7c21.8,15.4,42.9,31.4,68.5,39.7c2.6,0.6,5.8,1.9,8.3,2.6c25.6,5.8,51.2-1.3,76.1-10.2     c11.5-4.5,23-9,34.6-14.1c9.6-4.5,17.9-9.6,26.2-14.7c23-13.4,30.7-21.8,53.1-35.2c0.6,0,0.6-0.6,1.3-0.6     c7.7-5.8,16-10.9,24.3-16c47.3-28.8,99.2-50.5,145.2-82.5c0.6-0.6,1.3-1.3,2.6-1.3C876.1,380.6,881.9,382.5,881.2,388.3z"/>
</svg>
