<?xml version="1.0" encoding="UTF-8" standalone="yes"?>
<svg xmlns="http://www.w3.org/2000/svg" width="500" viewBox="0 -0.000004499999988638592 375 375" height="500" version="1.2" baseProfile="tiny-ps">
<title>Svg_square_cinode_logo.svg</title>
<g>
<path fill="#f9950b" d="M 62.765625 187.195312 C 62.765625 193.550781 57.609375 198.707031 51.246094 198.707031 C 44.886719 198.707031 39.730469 193.550781 39.730469 187.195312 C 39.730469 180.835938 44.886719 175.683594 51.246094 175.683594 C 57.609375 175.683594 62.765625 180.835938 62.765625 187.195312 Z M 51.25 221.730469 C 32.164062 221.730469 16.699219 206.269531 16.699219 187.195312 C 16.699219 168.121094 32.164062 152.65625 51.25 152.65625 C 67.683594 152.65625 81.40625 164.136719 84.90625 179.5 L 72.941406 179.5 C 69.769531 170.574219 61.265625 164.171875 51.246094 164.171875 C 38.527344 164.171875 28.214844 174.480469 28.214844 187.195312 C 28.214844 199.914062 38.527344 210.222656 51.246094 210.222656 C 62.191406 210.222656 71.332031 202.589844 73.683594 192.363281 L 85.367188 192.363281 C 82.871094 208.980469 68.570312 221.730469 51.25 221.730469 Z M 51.25 141.144531 C 25.804688 141.144531 5.179688 161.761719 5.179688 187.195312 C 5.179688 212.628906 25.804688 233.246094 51.25 233.246094 C 76.691406 233.246094 97.316406 212.628906 97.316406 187.195312 C 97.316406 161.761719 76.691406 141.144531 51.25 141.144531 Z M 51.25 141.144531 " fill-opacity="1" fill-rule="evenodd"/>
</g>
<path fill="#f9950b" d="M 120.210938 187.289062 C 120.210938 173.320312 130.777344 163.78125 144.410156 163.78125 C 154.429688 163.78125 160.226562 169.230469 163.429688 174.886719 L 155.113281 178.976562 C 153.203125 175.296875 149.113281 172.363281 144.410156 172.363281 C 136.160156 172.363281 130.164062 178.703125 130.164062 187.289062 C 130.164062 195.875 136.160156 202.210938 144.410156 202.210938 C 149.113281 202.210938 153.203125 199.347656 155.113281 195.601562 L 163.429688 199.621094 C 160.15625 205.277344 154.429688 210.796875 144.410156 210.796875 C 130.777344 210.796875 120.210938 201.257812 120.210938 187.289062 Z M 120.210938 187.289062 " fill-opacity="1" fill-rule="evenodd"/>
<path fill="#f9950b" d="M 169.714844 164.527344 L 179.394531 164.527344 L 179.394531 209.976562 L 169.714844 209.976562 Z M 169.714844 164.527344 " fill-opacity="1" fill-rule="evenodd"/>
<path fill="#f9950b" d="M 221.117188 209.976562 L 199.4375 180.335938 L 199.4375 209.976562 L 189.757812 209.976562 L 189.757812 164.527344 L 199.710938 164.527344 L 220.773438 193.078125 L 220.773438 164.527344 L 230.453125 164.527344 L 230.453125 209.976562 Z M 221.117188 209.976562 " fill-opacity="1" fill-rule="evenodd"/>
<path fill="#f9950b" d="M 273.46875 187.289062 C 273.46875 178.769531 268.015625 172.363281 259.632812 172.363281 C 251.246094 172.363281 245.863281 178.769531 245.863281 187.289062 C 245.863281 195.738281 251.246094 202.210938 259.632812 202.210938 C 268.015625 202.210938 273.46875 195.738281 273.46875 187.289062 Z M 235.910156 187.289062 C 235.910156 173.589844 245.929688 163.78125 259.632812 163.78125 C 273.402344 163.78125 283.421875 173.589844 283.421875 187.289062 C 283.421875 200.984375 273.402344 210.796875 259.632812 210.796875 C 245.929688 210.796875 235.910156 200.984375 235.910156 187.289062 Z M 235.910156 187.289062 " fill-opacity="1" fill-rule="evenodd"/>
<path fill="#f9950b" d="M 321.546875 187.289062 C 321.546875 179.246094 316.636719 173.046875 307.296875 173.046875 L 299.050781 173.046875 L 299.050781 201.460938 L 307.296875 201.460938 C 316.296875 201.460938 321.546875 194.988281 321.546875 187.289062 Z M 289.371094 209.976562 L 289.371094 164.527344 L 307.296875 164.527344 C 321.546875 164.527344 331.429688 173.589844 331.429688 187.289062 C 331.429688 200.984375 321.546875 209.976562 307.296875 209.976562 Z M 289.371094 209.976562 " fill-opacity="1" fill-rule="evenodd"/>
<g>
<path fill="#f9950b" d="M 335.972656 209.976562 L 335.972656 164.527344 L 368.144531 164.527344 L 368.144531 173.046875 L 345.652344 173.046875 L 345.652344 182.65625 L 367.667969 182.65625 L 367.667969 191.171875 L 345.652344 191.171875 L 345.652344 201.460938 L 368.144531 201.460938 L 368.144531 209.976562 Z M 335.972656 209.976562 " fill-opacity="1" fill-rule="evenodd"/>
</g>
</svg>