<?xml version="1.0" encoding="UTF-8" standalone="yes"?>
<svg viewBox="0 0 451.97 451.97" version="1.2" baseProfile="tiny-ps" xmlns="http://www.w3.org/2000/svg">
  <title>bimi-svg-tiny-12-ps</title>
  <rect width="451.97" height="451.97" fill="#1d1d1d"/>
  <g>
    <rect x="117.69" y="340.07" width="216.58" height="40.85" fill="#0fff2c"/>
    <g>
      <path d="M179.13,218.1c0-25.18,20.98-45.59,46.84-45.59,8.7,0,16.84,2.31,23.81,6.34.46.26,1.03.26,1.48-.03l41.21-26.64c.79-.51.89-1.62.21-2.25-17.36-16.1-40.85-25.98-66.72-25.98-53.44,0-96.75,42.16-96.75,94.16,0,11.78,2.25,23.06,6.32,33.47.33.84,1.36,1.17,2.12.67l41.26-26.65c.46-.3.71-.84.64-1.4-.28-1.99-.41-4.02-.41-6.09h-.02Z" fill="#fff"/>
      <path d="M273.19,212.04c-.46.3-.69.82-.64,1.35.16,1.54.26,3.1.26,4.69,0,25.18-20.98,45.59-46.84,45.59-8.19,0-15.87-2.05-22.57-5.65-.46-.25-1-.23-1.44.05l-41.49,26.82c-.79.51-.89,1.64-.2,2.26,17.25,15.56,40.33,25.08,65.72,25.08,53.44,0,96.75-42.16,96.75-94.16,0-11.32-2.07-22.17-5.84-32.22-.31-.85-1.36-1.18-2.12-.69l-41.57,26.87h-.02Z" fill="#fff"/>
    </g>
    <g>
      <rect x="181.25" y="71.04" width="34.66" height="34.66" rx="1.85" ry="1.85" fill="#fff"/>
      <rect x="236.05" y="71.04" width="34.66" height="34.66" rx="1.85" ry="1.85" fill="#fff"/>
    </g>
  </g>
</svg>