<?xml version="1.0" encoding="UTF-8" standalone="yes"?>
<svg version="1.2" baseProfile="tiny-ps" viewBox="0 0 612 612" xml:space="preserve" xmlns="http://www.w3.org/2000/svg">
  <title>bimi-svg-tiny-12-ps</title>
  <rect x="-17.87" y="-17.87" fill="#1E242D" width="647.75" height="647.75"/>
  <rect x="47.12" y="351.02" fill="#F7AA1B" width="517.76" height="17.9"/>
  <path fill="#FFFFFF" d="M354.04,287.47l28.69-30.15c0.38-0.4,0.1-1.06-0.46-1.06h-33.05c-0.18,0-0.36,0.08-0.48,0.22l-24.32,28.7&#xA;&#x9;c-0.38,0.45-1.11,0.18-1.11-0.41v-27.88c0-0.35-0.28-0.63-0.63-0.63h-24.81c-0.35,0-0.63,0.28-0.63,0.63v81.16&#xA;&#x9;c0,0.34,0.28,0.63,0.63,0.63h24.81c0.35,0,0.63-0.28,0.63-0.63v-18.82c0-0.15,0.06-0.3,0.16-0.42l11.43-12.84&#xA;&#x9;c0.29-0.33,0.82-0.26,1.03,0.13l16.54,32.23c0.11,0.21,0.32,0.34,0.56,0.34h30.73c0.49,0,0.79-0.54,0.54-0.95l-30.34-49.5&#xA;&#x9;C353.81,287.99,353.84,287.67,354.04,287.47"/>
  <path fill="#FFFFFF" d="M291.62,274.42v-17.53c0-0.35-0.28-0.63-0.63-0.63h-41.84h-25.37c-0.35,0-0.63,0.28-0.63,0.63v18.16v11.58&#xA;&#x9;v17.4v15.88v18.15c0,0.35,0.28,0.63,0.63,0.63h25.37h41.84c0.35,0,0.63-0.28,0.63-0.63v-17.53c0-0.34-0.28-0.63-0.63-0.63h-41.21&#xA;&#x9;c-0.35,0-0.63-0.28-0.63-0.63v-14.62c0-0.35,0.28-0.63,0.63-0.63h37.71c0.35,0,0.63-0.28,0.63-0.63v-16.14&#xA;&#x9;c0-0.35-0.28-0.63-0.63-0.63h-37.71c-0.35,0-0.63-0.28-0.63-0.63v-10.33c0-0.35,0.28-0.63,0.63-0.63h41.21&#xA;&#x9;C291.34,275.04,291.62,274.76,291.62,274.42"/>
  <path fill="#FFFFFF" d="M217.87,274.42v-17.53c0-0.35-0.28-0.63-0.63-0.63H175.4h-25.37c-0.35,0-0.63,0.28-0.63,0.63v18.16v11.58&#xA;&#x9;v17.4v15.88v18.15c0,0.35,0.28,0.63,0.63,0.63h25.37h41.84c0.35,0,0.63-0.28,0.63-0.63v-17.53c0-0.34-0.28-0.63-0.63-0.63h-41.21&#xA;&#x9;c-0.35,0-0.63-0.28-0.63-0.63v-14.62c0-0.35,0.28-0.63,0.63-0.63h37.71c0.35,0,0.63-0.28,0.63-0.63v-16.14&#xA;&#x9;c0-0.35-0.28-0.63-0.63-0.63h-37.71c-0.35,0-0.63-0.28-0.63-0.63v-10.33c0-0.35,0.28-0.63,0.63-0.63h41.21&#xA;&#x9;C217.59,275.04,217.87,274.76,217.87,274.42"/>
  <path fill="#FFFFFF" d="M125.67,302.01c0.02,0,0.03-0.01,0.04-0.02c10.07-2.37,17.57-11.41,17.57-22.21v-0.69&#xA;&#x9;c0-12.61-10.22-22.83-22.83-22.83H88.23h-3.62H64.17c-0.35,0-0.63,0.28-0.63,0.63v81.16c0,0.35,0.28,0.63,0.63,0.63H87.6&#xA;&#x9;c0.35,0,0.63-0.28,0.63-0.63v-28.78c0-0.34,0.28-0.63,0.63-0.63h9.7c0.23,0,0.44,0.13,0.55,0.33l15.85,29.38&#xA;&#x9;c0.11,0.2,0.32,0.33,0.55,0.33h26.73c0.47,0,0.77-0.5,0.56-0.91l-17.27-33.74C125.54,304.02,124.52,302.3,125.67,302.01&#xA;&#x9; M118.97,282.02c0,5.24-4.27,9.5-9.54,9.5H88.86c-0.35,0-0.63-0.28-0.63-0.63v-17.73c0-0.35,0.28-0.63,0.63-0.63h20.57&#xA;&#x9;C114.7,272.53,118.97,276.78,118.97,282.02"/>
  <path fill="#FFFFFF" d="M397.8,297.54c0-11.04,9.19-19.99,20.54-19.99c3.81,0,7.38,1.01,10.44,2.78c0.2,0.12,0.45,0.11,0.65-0.01&#xA;&#x9;l18.07-11.68c0.34-0.22,0.39-0.71,0.09-0.99c-7.61-7.06-17.91-11.39-29.25-11.39c-23.43,0-42.42,18.48-42.42,41.28&#xA;&#x9;c0,5.17,0.99,10.11,2.77,14.67c0.15,0.37,0.6,0.51,0.93,0.3l18.09-11.69c0.2-0.13,0.31-0.37,0.28-0.61&#xA;&#x9;C397.87,299.34,397.8,298.45,397.8,297.54"/>
  <path fill="#FFFFFF" d="M439.04,294.89c-0.2,0.13-0.31,0.36-0.28,0.59c0.07,0.68,0.11,1.36,0.11,2.06c0,11.04-9.2,19.99-20.54,19.99&#xA;&#x9;c-3.59,0-6.96-0.9-9.9-2.48c-0.2-0.11-0.44-0.1-0.63,0.02l-18.19,11.76c-0.35,0.22-0.39,0.72-0.08,1c7.56,6.82,17.68,11,28.81,11&#xA;&#x9;c23.43,0,42.42-18.48,42.42-41.28c0-4.96-0.91-9.72-2.56-14.13c-0.14-0.37-0.6-0.52-0.93-0.3L439.04,294.89z"/>
  <path fill="#FFFFFF" d="M413.84,248.27h-14.1c-0.3,0-0.55-0.24-0.55-0.54v-14.1c0-0.3,0.24-0.55,0.55-0.55h14.1&#xA;&#x9;c0.3,0,0.55,0.25,0.55,0.55v14.1C414.39,248.02,414.14,248.27,413.84,248.27"/>
  <path fill="#FFFFFF" d="M437.87,248.27h-14.1c-0.3,0-0.55-0.24-0.55-0.54v-14.1c0-0.3,0.24-0.55,0.55-0.55h14.1&#xA;&#x9;c0.3,0,0.55,0.25,0.55,0.55v14.1C438.41,248.02,438.17,248.27,437.87,248.27"/>
  <path fill="#FFFFFF" d="M467.05,338.68h23.22c0.35,0,0.63-0.28,0.63-0.63v-39.85c0-0.61,0.79-0.86,1.14-0.36l28.12,40.56&#xA;&#x9;c0.12,0.17,0.31,0.27,0.52,0.27h23.68c0.35,0,0.63-0.28,0.63-0.63v-81.17c0-0.34-0.28-0.63-0.63-0.63h-23.62&#xA;&#x9;c-0.34,0-0.62,0.28-0.63,0.62l-0.22,40.85c0,0.61-0.8,0.86-1.14,0.35l-28.52-41.55c-0.12-0.17-0.31-0.27-0.52-0.27h-22.66&#xA;&#x9;c-0.35,0-0.63,0.28-0.63,0.63v81.17C466.42,338.4,466.7,338.68,467.05,338.68"/>
  <path fill="#FFFFFF" d="M557.28,327.59h-0.04c-3.5,0-6.3,2.68-6.3,6.11c0,3.43,2.8,6.15,6.3,6.15c3.5,0,6.26-2.72,6.26-6.15&#xA;&#x9;C563.5,330.27,560.75,327.59,557.28,327.59 M557.28,338.59c-2.72,0-4.77-2.16-4.77-4.88c0-2.69,2.05-4.88,4.7-4.88h0.04&#xA;&#x9;c2.68,0,4.7,2.2,4.7,4.92C561.94,336.42,559.93,338.62,557.28,338.59"/>
  <path fill="#FFFFFF" d="M558.66,333.89v-0.07c0.71-0.22,1.26-0.71,1.26-1.45c0-0.6-0.26-1.05-0.63-1.31&#xA;&#x9;c-0.41-0.3-0.93-0.49-2.09-0.49c-1.01,0-1.79,0.11-2.35,0.19v6.11h1.42v-2.43h0.67c0.78,0,1.16,0.3,1.27,0.93&#xA;&#x9;c0.19,0.75,0.3,1.27,0.49,1.49h1.49c-0.11-0.22-0.26-0.56-0.45-1.49C559.56,334.56,559.25,334.07,558.66,333.89 M556.98,333.44&#xA;&#x9;h-0.67v-1.75c0.15-0.04,0.41-0.08,0.78-0.08c0.89,0,1.3,0.37,1.3,0.93C558.4,333.18,557.77,333.44,556.98,333.44"/>
</svg>