<?xml version="1.0" encoding="UTF-8" standalone="yes"?>
<svg width="1024" height="1024" viewBox="0 0 1024 1024" fill="none" version="1.2" baseProfile="tiny-ps" xmlns="http://www.w3.org/2000/svg">
  <title>bimi-svg-tiny-12-ps</title>
  <g>
    <path d="M1024 0H0V1024H1024V0Z" fill="#25D1DA"/>
    <path fill-rule="evenodd" d="M633.28 483.21C638.21 479.46 640.78 474.14 640.78 467.04C640.78 462.31 639.3 458.46 636.24 455.6C633.18 452.64 627.76 449.68 619.68 446.72L594.83 437.35C573.14 429.26 562.39 415.56 562.39 396.13C562.39 383.41 567.32 373.05 577.18 365.26C587.04 357.37 599.96 353.52 615.94 353.52C628.66 353.52 640.99 355.79 653.12 360.32C655.49 361.11 657.16 362.09 658.05 363.38C659.04 364.66 659.53 366.54 659.53 369.1V377.09C659.53 380.64 658.25 382.42 655.69 382.42C654.31 382.42 652.04 381.93 648.99 380.94C638.64 377.78 628.08 376.21 617.44 376.21C598.7 376.21 589.33 382.62 589.33 395.34C589.33 400.47 590.91 404.51 594.06 407.37C597.22 410.33 603.33 413.58 612.5 417.13L635.28 426C646.82 430.54 655.1 435.86 660.13 442.07C665.16 448.28 667.73 456.27 667.73 466.03C667.73 479.93 662.6 491.08 652.24 499.26C641.89 507.45 628.18 511.59 611.02 511.59C593.86 511.59 579.96 508.83 566.84 503.31C564.47 502.32 562.9 501.24 562.01 500.06C561.12 498.88 560.73 497 560.73 494.44V486.16C560.73 482.61 561.91 480.83 564.28 480.83C565.66 480.83 568.13 481.42 571.58 482.61C584.5 486.75 597.81 488.82 611.62 488.82C621.09 488.82 628.29 486.95 633.31 483.2L633.28 483.21ZM503.81 363.69C503.81 359.75 505.78 357.77 509.63 357.77H526.89C530.83 357.77 532.71 359.74 532.71 363.69V501.16C532.71 505.1 530.74 507.08 526.89 507.08H514.27C512.3 507.08 510.82 506.69 509.73 505.9C508.65 505.11 507.95 503.63 507.56 501.46L505.49 491.2C487.34 504.71 468.71 511.51 449.67 511.51C435.86 511.51 425.21 507.57 417.82 499.78C410.42 491.89 406.68 480.85 406.68 466.55V363.7C406.68 359.76 408.65 357.78 412.5 357.78H429.76C433.7 357.78 435.58 359.75 435.58 363.7V456.99C435.58 467.54 437.65 475.33 441.69 480.36C445.83 485.39 452.34 487.85 461.31 487.85C475.31 487.85 489.51 483.12 503.71 473.75V363.7H503.81V363.69ZM346.92 507.07C342.98 507.07 341.1 505.1 341.1 501.15V405.79C341.1 395.93 339.23 388.73 335.58 384C331.93 379.27 326.01 377 318.03 377C303.83 377 289.43 381.44 275.04 390.21C275.24 391.59 275.34 393.07 275.34 394.65V501.15C275.34 505.09 273.37 507.07 269.52 507.07H252.26C248.32 507.07 246.44 505.1 246.44 501.15V405.79C246.44 395.93 244.57 388.73 240.92 384C237.17 379.27 231.35 377 223.37 377C208.58 377 194.28 381.34 180.67 389.92V501.15C180.67 505.09 178.7 507.07 174.85 507.07H157.59C153.65 507.07 151.77 505.1 151.77 501.15V363.68C151.77 359.74 153.74 357.76 157.59 357.76H170.41C172.38 357.76 173.86 358.15 174.95 358.94C176.03 359.73 176.73 361.21 177.12 363.38L178.9 372.75C197.64 359.83 215.88 353.32 233.63 353.32C251.38 353.32 264 360.32 270.51 374.23C289.84 360.33 309.07 353.32 328.4 353.32C341.81 353.32 352.17 357.17 359.36 364.76C366.56 372.45 370.21 383.3 370.21 397.4V501.14C370.21 505.08 368.24 507.06 364.39 507.06H346.94L346.92 507.07ZM796.69 617.71C810.3 611.89 821.64 626.68 808.33 636.64C727.96 696.2 611.6 727.96 511.31 727.96C370.79 727.96 244.17 675.7 148.42 588.62C142.4 583.2 145.46 576.19 151.48 576.19C153.06 576.19 154.83 576.68 156.71 577.77C259.96 638.32 387.76 674.71 519.7 674.71C608.75 674.71 706.57 656.17 796.7 617.71H796.69ZM793.63 391C786.43 399.38 782.78 412.6 782.78 430.94V434.79C782.78 452.64 786.43 465.75 793.73 474.04C801.03 482.42 812.57 486.56 828.34 486.56C836.52 486.56 845.3 485.18 854.67 482.42C856.84 481.83 858.32 481.53 859.01 481.53C861.58 481.53 862.76 483.5 862.76 487.45V495.44C862.76 498 862.37 499.88 861.58 501.06C860.79 502.24 859.21 503.33 856.94 504.31C847.38 508.45 836.23 510.52 823.61 510.52C800.63 510.52 782.98 503.91 770.85 490.7C758.63 477.49 752.61 458.26 752.61 433.11C752.61 407.96 758.92 388.93 771.45 375.22C784.07 361.61 801.82 354.81 824.8 354.81C835.35 354.81 845.71 356.68 855.77 360.43C857.94 361.22 859.42 362.2 860.31 363.39C861.2 364.57 861.59 366.55 861.59 369.31V377.3C861.59 381.24 860.31 383.22 857.75 383.22C856.76 383.22 855.18 382.92 853.11 382.33C845.12 379.96 837.04 378.78 828.85 378.78C812.68 378.48 800.84 382.63 793.65 391.01L793.63 391ZM830.61 695.12C824 700.74 817.7 697.68 820.65 690.39C830.31 666.03 852.11 611.5 841.75 598.19C831.49 584.98 773.8 591.88 747.97 595.03C740.08 596.02 738.9 589.11 746 584.08C769.77 567.32 801.32 561.69 827.55 561.69C852.11 561.69 871.83 566.62 876.07 571.85C884.85 582.8 873.7 658.83 830.61 695.12ZM716.22 357.87C720.17 357.87 722.04 359.84 722.04 363.79V501.16C722.04 505.1 720.07 507.08 716.22 507.08H698.97C695.02 507.08 693.15 505.11 693.15 501.16V363.69C693.15 359.75 695.12 357.77 698.97 357.77H716.22V357.87ZM721.05 300.87C724.3 304.12 725.88 308.36 725.88 313.69C725.88 319.02 724.3 323.26 721.05 326.51C717.79 329.76 713.36 331.34 707.74 331.34C702.12 331.34 697.68 329.76 694.42 326.51C691.17 323.26 689.59 319.02 689.59 313.69C689.59 308.36 691.17 304.12 694.42 300.87C697.68 297.62 702.11 296.04 707.74 296.04C713.37 296.04 717.9 297.62 721.05 300.87Z" fill="#14191A"/>
  </g>
  <defs/>
</svg>