<?xml version="1.0"?><svg version="1.2" baseProfile="tiny-ps" viewBox="0 0 300 300" xmlns="http://www.w3.org/2000/svg" xmlns:xlink="http://www.w3.org/1999/xlink"><title>Cuivre River Electric Cooperative</title><g><g fill="#fefffe" transform="matrix(.1 0 0 -.1 0 300)"><path d="M0 1500V0h3000v3000H0V1500z"/></g><g fill="#cbe7db" transform="matrix(.1 0 0 -.1 0 300)"><path d="M1332 2980c-111-12-178-25-297-62l-100-30-100-48c-356-172-629-483-755-860l-31-94-20-115c-10-63-18-116-15-118 5-5 121 39 416 157 298 120 527 202 549 198l16-3 5-46 5-46 115 50c152 65 263 101 387 126l101 21 129-1h128l70-18 70-19 90 44 90 43 83 21c104 26 238 46 370 55l103 8-6 15c-12 32-96 150-157 222-115 134-275 260-436 343l-91 47-118 39-118 39-95 16c-52 8-142 17-200 20l-105 4-83-8zm1273-802c-158-18-317-70-428-142l-55-35-54 15-53 15-110 6-110 5-90-16c-49-10-137-33-195-53l-105-35-230-108c-126-59-263-119-303-134l-72-26v131l-17-5c-39-12-764-216-768-216-15 0 3-301 19-317 7-7 190 66 610 244 186 79 342 143 347 143h9v-45c0-25 3-45 7-45 7 0 187 94 370 193 66 36 170 87 230 113l108 46 95 25 95 24 115 6 115 5 59-10 59-10 46 33c108 77 239 126 459 171l22 4v30l-47-1c-27-1-84-6-128-11zm85-77c-107-35-193-80-255-134l-48-42 14-12c8-6 36-15 62-21l49-10 57 57 56 56 89 55c49 30 91 61 94 68l4 12h-19c-10-1-56-13-103-29zm96-82c-47-25-114-93-141-142l-20-37-18 6c-10 3-60 15-110 25l-92 19-110 6-110 6-100-15-100-16-118-42-118-41-167-83c-92-45-259-134-372-197-113-64-251-138-307-167l-103-51v130h-15c-24 0-388-107-568-167l-167-56v-18c0-25 47-172 76-236l23-53 83 39c46 21 235 109 420 195s339 156 342 156 6-27 8-61l3-60 249 172c457 314 628 408 842 461l89 22h160l160-1 100-17c55-9 107-19 117-22l16-5 11 34c6 18 33 68 60 111l50 78-8 21c-11 29-20 29-65 6zm90-214c-10-33-21-63-25-67l-6-7-125 19c-69 11-154 20-190 20h-65l-90-19c-325-69-556-190-1088-570-125-89-282-198-349-241l-121-79-8 5-9 5v171l-32-8c-99-21-588-191-588-204 0-4 32-56 72-116l71-109 116-116 116-115 94-63c166-110 330-180 521-223l105-23h390l104 23c195 44 357 113 521 221l85 56 103 100 104 100 64 85 65 85 69 140 70 140 25 88c30 108 51 232 60 356l6 94-33-7c-18-3-64-22-103-41l-70-35-61-52c-112-96-214-232-376-497l-37-61h-253l23 38c134 221 279 391 434 507 119 89 288 163 413 180l52 7v37l-37 8c-21 4-81 8-133 7l-95-1-65-17c-151-41-317-139-524-312l-123-103-156-169-156-170-88-7c-49-3-118-9-155-14l-66-7 53 60c118 135 458 433 643 565 126 89 187 122 296 160l89 31 96 16 96 16 161-5 162-5-6 42c-3 22-11 64-17 91l-12 50-17-60zM2590 349c-32-13-68-47-86-81l-14-27v-92l15-29c19-38 59-68 106-80l39-11 39 11 39 10 35 39 35 39 6 38 6 39-9 34c-6 18-18 45-26 58l-17 25-41 19-42 19-30-1c-16 0-41-5-55-10zm137-52 36-34 4-54 4-54-21-33-20-33-37-15-36-16-33 7-33 6-30 30-30 30-7 36-7 37 14 40 14 40 34 23 34 23h77l37-33zm-157-17c0-5 5-10 10-10h10V130h-10c-5 0-10-4-10-10v-10h80v10c0 6-4 10-10 10h-10v50h9c5 0 18-16 30-35l20-35h21c26 0 25 4-6 45l-26 34 16 16c20 21 20 49 0 69l-15 16h-109v-10zm95-45v-30l-17-3-18-3v72l18-3 17-3v-30z"/></g><g fill="#8ec9b1" transform="matrix(.1 0 0 -.1 0 300)"><path d="M1280 2974c-133-25-198-41-275-66l-90-30-115-59-115-60-85-64-86-63-95-100-96-99-62-94c-75-112-117-193-164-319l-36-96-20-101c-12-56-21-117-21-137v-36l23 10c266 111 925 360 953 360 2 0 4-22 4-50v-50h9c4 0 54 20 111 45 120 53 282 106 395 131l80 17h270l72-20 73-19 47 27c27 15 89 42 139 58l92 31 116 20c64 11 165 23 226 26 60 4 110 9 110 12 0 14-117 176-172 239-204 233-488 399-798 468l-75 17-195 3c-107 2-206 1-220-1zm1400-791c-211-16-384-69-514-158l-39-26-61 16-61 16-95 5-95 6-95-16-95-17-102-34c-96-32-168-63-458-199-66-30-152-67-190-80l-70-24-3 59-3 59h-12c-7 0-184-48-394-107L10 1575v-85c0-78 15-219 24-228 5-4 318 123 681 277l280 119 3-44 3-44h16c9 0 108 50 220 111 343 187 499 251 676 279l78 13 135-6 134-5 64 43 65 43 83 32c45 18 133 44 195 58l113 27-3 10-4 10-24 1c-13 0-44-1-69-3zm30-76c-92-28-188-76-257-129l-53-40v-27l38-10c20-5 46-11 57-13l20-3 44 48 43 47 104 66 104 66-6 9c-7 12-6 12-94-14zm69-95c-50-32-110-96-134-141-8-17-17-31-18-31-2 0-44 9-94 20s-134 25-188 31l-97 10-112-11-111-12-92-29c-195-62-349-135-673-317-113-63-261-144-330-180l-125-65-3 67-3 66h-11c-43 0-712-210-732-230l-9-9 33-103c33-106 65-178 78-178 4 0 194 87 422 193l415 193 3-58 3-58h8c4 0 113 73 242 161 290 200 394 266 534 340l110 58 105 35 105 35 84 12 85 12 130-6 131-6 85-16c47-8 92-15 101-15h17l13 33c7 17 32 63 56 100 43 68 48 82 37 111-8 21-13 21-65-12zm95-221-18-63-40 6c-23 3-86 12-141 21-55 8-118 15-140 15-71 0-217-30-343-71l-123-40-142-72c-179-92-293-163-554-349-263-187-546-378-561-378h-12v180l-27-6c-47-11-382-122-491-162l-102-38 35-58c19-32 56-88 82-125l47-66 100-100 101-100 90-61c168-115 352-194 548-236l102-22h360l89 17c320 64 589 213 806 444l82 88 64 96c104 155 172 316 214 504l20 90 7 123 6 122h-15c-9 0-58-21-109-47l-94-46-96-96-95-96-80-120c-43-66-102-157-129-202l-50-83h-256l17 33c33 65 145 224 213 304 119 139 274 259 415 323 67 31 208 70 250 70h26v39l-47 8c-27 4-84 7-128 6l-80-1-65-17c-174-45-323-135-566-341l-105-89-146-162-146-162-66-5c-36-3-109-10-161-15s-96-8-98-6c-7 6 342 336 456 431 327 273 499 368 737 404l80 12h111c61 0 135-3 164-7l53-7-7 58c-3 33-10 73-15 89l-8 30-19-64zM2605 353c-31-8-83-51-100-83l-15-29v-86l19-35 18-35 33-22 33-23h102l32 20c37 22 60 54 73 101l10 33-11 40-11 41-26 29c-44 46-97 63-157 49zm105-39c15-9 35-30 45-47l18-30-1-44v-44l-17-25c-9-14-30-34-48-44l-32-20h-28c-15 0-41 7-58 15l-30 16-19 32-20 32v76l15 29c8 15 27 38 41 49l27 21h79l28-16zm-140-34c0-5 5-10 10-10h10V134l-12-12-12-12h88l-12 12-12 12v28c0 38 11 35 38-12l23-40h19c26 0 25 6-5 42-29 34-30 41-10 58 8 7 15 21 15 31v18l-22 15-22 16h-96v-10zm95-45v-30l-17-3-18-3v72l18-3 17-3v-30z"/></g><g fill="#4da983" transform="matrix(.1 0 0 -.1 0 300)"><path d="M1247 2965c-237-39-452-128-639-267-248-183-425-428-524-723l-34-103-17-101-16-101 6-6 7-7 342 136c306 121 595 227 619 227h9l1-32c0-18 3-41 7-50l7-17 90 40c118 53 257 101 375 129l95 24h145l145 1 73-19 72-18 68 35 68 36 89 26c110 32 236 53 371 61 56 4 108 10 115 15l13 8-59 88-59 88-116 116-115 115-101 67c-161 107-317 173-509 218l-90 20-175 4-175 4-88-14zm1293-800c-146-27-258-68-356-130l-58-37-75 15c-42 9-101 19-131 22l-56 6-94-12c-170-20-316-71-635-222-183-86-323-142-333-132-3 3-7 30-10 60-2 30-7 55-11 55-3 0-177-49-386-108L15 1573l1-94c0-52 4-120 8-151l7-58h14c18 0 301 115 665 269 156 67 288 121 292 121h8v-45c0-25 3-45 7-45 7 0 156 78 343 180 263 143 424 200 620 220l85 9 97-10 97-10 43 33c24 18 80 50 124 71l81 38 118 29c64 17 126 30 136 30h19v20l-82-1c-46 0-117-7-158-14zm185-56c-38-11-106-37-150-59l-80-38-48-42c-26-23-47-45-47-50s25-14 55-21l55-12 62 60 63 59 87 54 87 53-5 8c-3 5-6 9-7 8-1 0-33-9-72-20zm55-102-54-32-41-51c-22-28-45-59-50-68l-10-18-105 24-105 23h-360l-75-23c-193-57-410-158-763-356-184-103-399-216-412-216-3 0-5 29-5 65s-3 65-6 65c-35 0-696-206-731-228l-12-8 15-58c17-64 71-206 83-219l8-8 419 195 419 194 5-53c3-29 7-56 10-58 3-3 120 74 260 170 478 328 642 414 873 458l79 15h243l134-20c74-11 135-19 136-17 1 1 9 21 19 43 10 23 36 68 57 100 39 60 45 79 31 101l-8 13-54-33zm107-177c-3-8-11-34-17-57l-11-43h-22c-12 0-62 6-112 14-49 8-117 17-150 21l-60 6-90-16c-340-59-588-187-1165-598-124-89-277-194-340-235l-115-74-7 74c-4 40-5 81-2 91l5 17h-19c-48 0-592-185-592-202 0-20 97-163 168-248l79-95 79-66c99-83 177-136 285-193l84-45 120-40 120-40 90-15c50-8 131-18 180-21l90-7 120 12 120 12 110 28c544 141 953 572 1066 1123l21 102 5 109 6 108-24-6c-13-4-55-22-94-41l-70-34-65-54c-106-87-208-221-359-470l-54-87h-128c-71 0-129 2-129 5 0 2 14 27 30 56 219 371 513 610 815 663l70 12v28l-25 7c-14 4-68 7-121 8l-96 1-79-20c-171-44-345-150-576-353l-94-82-143-157-143-158-32-4c-17-3-74-8-126-11s-113-8-135-12l-40-5 125 127c232 235 563 510 725 601 85 47 203 89 311 110l89 18h140c77 0 157-3 179-7l38-8-6 54c-4 30-11 68-15 83l-9 29-5-15zM2611 350c-45-11-80-38-102-80l-19-35v-80l23-39 22-39 35-18 35-19h80l35 18 35 17 22 34 23 34v104l-23 33c-38 57-103 84-166 70zm105-39 32-19 17-46 18-47-12-38-11-39-35-31-36-31h-76l-34 23c-18 12-39 34-46 47l-13 25v97l39 39 39 39h87l31-19zm-131-116v-85h51l-4 40-4 40h8c5-1 21-19 36-40l28-40h31l-7 13c-4 6-16 22-27 34l-20 23 18 34 19 34-13 16-13 16h-103v-85zm83 43-3-33-17-3-18-3v71h41l-3-32z"/></g><g fill="#048c54" transform="matrix(.1 0 0 -.1 0 300)"><path d="M1335 2974c-129-18-235-41-323-70l-102-33-101-52c-277-142-483-347-633-630l-45-84-40-120-39-120-17-99c-9-54-14-100-12-103 3-2 166 59 363 138 336 133 572 219 601 219h12l7-49 6-49 72 33c117 53 259 104 374 132l107 27 160 1h160l60-17 60-18 80 40c129 63 282 98 519 120 66 6 121 12 123 14 7 7-97 155-160 228-205 238-521 417-832 473l-90 16-140 4c-77 2-153 1-170-1zm1222-810c-150-23-300-79-396-146l-34-24-81 19-81 19-130-5-130-5-95-25c-118-32-220-73-447-180-193-91-295-134-343-143l-30-6v123l-18-5c-9-3-183-53-385-110S17 1570 14 1567s-1-67 5-143l11-138 8-8 9-9 154 61c85 34 296 122 470 196s321 134 328 134h11v-89l33 14c17 7 91 46 162 85 324 176 474 243 628 280l82 20 95 6 95 6 72-11 73-11 59 40c32 22 90 54 127 71l69 32 114 28c62 16 122 29 132 29h19v20l-62-1c-35-1-102-7-151-15zm138-68c-92-30-179-75-243-126l-53-41 6-9c3-4 28-13 56-19l50-11 52 53 52 53 88 54c49 30 90 57 93 62l5 8h-18c-10-1-49-11-88-24zm63-106-56-40-30-46c-17-25-33-51-35-57l-4-12-119 25-119 25h-320l-82-23c-188-51-435-165-768-354-82-47-211-117-286-157l-136-71-6 7c-4 3-7 34-7 68v63l-142-40c-79-22-245-73-370-115l-226-74 19-72c11-39 34-104 51-144l30-73 31 14c18 8 207 95 421 195 213 100 392 181 397 181h9v-119l263 181c301 207 435 289 579 358l103 49 87 25 88 25 104 11 104 11 114-11c101-9 181-20 260-36l26-5 6 28c4 16 29 64 57 107l50 78-6 19-6 19h-13c-7 0-38-18-68-40zm131-165c-3-5-12-31-19-57l-12-47-27 5c-129 22-233 34-295 34h-74l-83-16c-46-9-131-31-189-50l-105-35-150-74-150-74-165-109c-91-60-270-183-398-275-245-175-410-283-418-274-3 2-8 43-11 91l-6 86h-8c-29 0-546-175-581-196l-9-6 27-46c52-90 119-178 204-266l85-88 95-72 96-72 109-56c121-61 245-106 375-134l85-19h410l85 18c189 40 364 114 525 221l90 60 121 120 121 121 66 101c146 221 226 460 243 727l7 107-42-15c-70-24-156-74-213-122-104-89-176-183-371-490l-47-73h-250v13c0 19 99 176 166 263 109 143 271 288 405 363 75 42 202 87 283 102l66 11v9c0 16-55 24-170 23l-115-1-80-27c-152-50-300-141-495-304l-95-80-166-179-166-178-134-12c-74-6-147-12-162-12l-29-1 55 63c61 68 322 312 432 403 39 32 124 98 190 147l120 89 100 49 100 49 76 19c153 39 334 51 469 32 30-5 56-7 58-6 2 2-3 36-10 76l-13 74-6-10zM2570 332l-35-18-23-45-23-44 4-44 5-43 19-26c11-14 31-35 45-45l27-20 48-4 48-4 39 23 39 23 18 35 19 35v80l-18 35-17 35-34 22-34 23h-92l-35-18zm147-17c33-22 54-58 60-103l5-39-18-38-17-37-31-19-31-19h-84l-36 31-35 31-11 40-11 41 17 43 17 44 26 19c48 34 103 36 149 6zm-122-115v-80h31l-4 35-4 35h30l22-35 22-35h28l-26 40-27 40h-49l4 40 4 40h-31v-80zm69 64 17-17-6-24-6-25 13 4 13 5v68l-24 3-24 4 17-18z"/></g><g fill="#121315" transform="matrix(.1 0 0 -.1 0 300)"><path d="m2570 331-35-18-23-44-24-44 5-44 5-43 19-26c11-14 31-34 44-45l26-18 40-6 40-5 46 20 46 20 20 41 21 40v76l-19 35-18 35-33 23-33 22h-92l-35-19zm146-16c34-22 55-58 61-103l5-39-18-38-17-37-31-19-31-19h-87l-38 38-38 38-7 37-7 37 23 47 24 47 35 18 35 19 34-5c18-3 44-12 57-21zm-121-115v-80h31l-4 35-4 35h30l22-35 22-35h30l-27 36-28 37 17 9 16 9v57l-16 6c-9 3-21 6-27 6h-11l19-13 18-14-7-26-6-27h-52l4 40 4 40h-31v-80z"/></g></g></svg>