<?xml version="1.0" encoding="utf-8"?>
<!-- Generator: Adobe Illustrator 25.0.0, SVG Export Plug-In . SVG Version: 6.00 Build 0)  -->
<svg version="1.2" baseProfile="tiny-ps" id="Layer_1" xmlns="http://www.w3.org/2000/svg" xmlns:xlink="http://www.w3.org/1999/xlink"
	  viewBox="0 0 1900 1900"  xml:space="preserve">
	  <title>Main Street America Insurance</title>
<polygon fill="#0B3B5F" points="890.1,647.5 925.2,647.5 953.1,720.9 982.6,647.5 1018.2,647.5 1039,784.9 1003.2,784.9 
	993.2,705.8 992.8,705.8 959.9,784.9 945.6,784.9 914.1,705.8 913.7,705.8 902.3,784.9 866.7,784.9 "/>
<path fill="#0B3B5F" d="M1108.6,689.9h-0.4l-14.8,43.7h29.7L1108.6,689.9z M1083.6,761l-9.5,23.9h-37.9l52.9-137.4h39l51.8,137.4
	h-38.1l-8.9-23.9H1083.6L1083.6,761z"/>
<rect x="1178.2" y="647.5" fill="#0B3B5F" width="35.7" height="137.4"/>
<polygon fill="#0B3B5F" points="1224.5,647.5 1260.2,647.5 1325.6,731.5 1326,731.5 1326,647.5 1361.7,647.5 1361.7,784.9 
	1326,784.9 1260.6,700.7 1260.2,700.7 1260.2,784.9 1224.5,784.9 "/>
<g>
	<path fill="#0B3B5F" d="M950.4,846.4c-6.6-5.5-15-9.1-23.7-9.1c-6.6,0-15.3,3.8-15.3,11.5c0,8,9.7,11.1,15.8,13.1l9.1,2.7
		c19.1,5.7,33.9,15.3,33.9,37.5c0,13.7-3.3,27.7-14.2,37c-10.8,9.1-25.2,12.9-39,12.9c-17.3,0-34.3-5.8-48.3-15.7l15.3-28.8
		c8.9,7.8,19.5,14.2,31.7,14.2c8.4,0,17.3-4.2,17.3-13.8c0-10-14-13.5-21.7-15.7c-22.4-6.4-37.2-12.2-37.2-38.8
		c0-27.9,19.9-46.1,47.4-46.1c13.8,0,30.8,4.4,43,11.3L950.4,846.4z"/>
</g>
<polygon fill="#0B3B5F" points="1036.4,948.4 1000.7,948.4 1000.7,841.3 971.2,841.3 971.2,811 1065.9,811 1065.9,841.3 
	1036.4,841.3 "/>
<g>
	<path fill="#0B3B5F" d="M1112.8,872.6h3.5c11.7,0,24.8-2.2,24.8-17.1s-13.2-17.1-24.9-17.1h-3.5L1112.8,872.6L1112.8,872.6
		L1112.8,872.6z M1191.3,948.4h-44.5l-33.7-52.8h-0.4v52.8H1077V811h53.4c27.2,0,47.8,12.9,47.8,42.3c0,19-10.6,35.3-30.1,38.8
		L1191.3,948.4z"/>
</g>
<polygon fill="#0B3B5F" points="1234.9,841.3 1234.9,864.2 1275.1,864.2 1275.1,894.5 1234.9,894.5 1234.9,918.2 1277.3,918.2 
	1277.3,948.4 1199.1,948.4 1199.1,811 1277.3,811 1277.3,841.3 "/>
<polygon fill="#0B3B5F" points="1326,841.3 1326,864.2 1366.3,864.2 1366.3,894.5 1326,894.5 1326,918.2 1368.5,918.2 1368.5,948.4 
	1290.3,948.4 1290.3,811 1368.5,811 1368.5,841.3 "/>
<polygon fill="#0B3B5F" points="1439.7,948.4 1404,948.4 1404,841.3 1374.5,841.3 1374.5,811 1469.2,811 1469.2,841.3 1439.7,841.3 
	"/>
<path fill="#0B3B5F" d="M934.9,1017h-0.4l-14.8,43.7h29.7L934.9,1017z M909.9,1088.1l-9.5,23.9h-37.9l52.9-137.4h39l51.8,137.4
	h-38.1l-8.9-23.9H909.9L909.9,1088.1z"/>
<polygon fill="#0B3B5F" points="1026.9,974.6 1062.1,974.6 1090,1048 1119.5,974.6 1155.1,974.6 1175.8,1112 1140.1,1112 
	1130.1,1032.9 1129.7,1032.9 1096.7,1112 1082.5,1112 1051,1032.9 1050.6,1032.9 1039.1,1112 1003.6,1112 "/>
<polygon fill="#0B3B5F" points="1217.6,1004.8 1217.6,1027.8 1257.8,1027.8 1257.8,1058.1 1217.6,1058.1 1217.6,1081.7 1260,1081.7 
	1260,1112 1181.8,1112 1181.8,974.6 1260,974.6 1260,1004.8 "/>
<g>
	<path fill="#0B3B5F" d="M1305,1036.2h3.5c11.7,0,24.8-2.2,24.8-17.1s-13.1-17.1-24.8-17.1h-3.5V1036.2z M1383.6,1112h-44.5
		l-33.7-52.8h-0.4v52.8h-35.7V974.6h53.4c27.2,0,47.8,12.9,47.8,42.3c0,19-10.6,35.3-30.1,38.8L1383.6,1112z"/>
</g>
<rect x="1387.8" y="974.6" fill="#0B3B5F" width="35.7" height="137.4"/>
<g>
	<path fill="#0B3B5F" d="M1535.9,1020.7c-7.3-9.8-19.1-15.1-31.3-15.1c-21.9,0-36.6,16.8-36.6,38.1c0,21.7,14.9,37.4,37.2,37.4
		c11.7,0,23.3-5.7,30.8-14.6v42.8c-11.8,3.6-20.4,6.4-31.5,6.4c-19.1,0-37.4-7.3-51.6-20.2c-15.1-13.7-22.1-31.5-22.1-51.9
		c0-18.8,7.1-36.8,20.2-50.3c13.5-13.8,33-22.2,52.3-22.2c11.5,0,22.1,2.5,32.6,6.9V1020.7L1535.9,1020.7z"/>
</g>
<path fill="#0B3B5F" d="M1612.5,1017h-0.4l-14.8,43.7h29.7L1612.5,1017z M1587.5,1088.1l-9.5,23.9h-37.9l52.9-137.4h39l51.8,137.4
	h-38.1l-8.9-23.9H1587.5L1587.5,1088.1z"/>
<g>
	<path fill="#A2A9AC" d="M428.8,1104c22.7,15.1,45.1,4.4,57.8-4.5c-4.5-1.2-12.9-3.4-12.9-3.4l-1.3-3.5c-8-20.9-24.1-51.6-35-54.7
		c-5.8-1.6-10.1-1.3-13.4,0.9c-5.4,3.8-7.2,12.7-7.5,15.8h-0.1c-0.1,0.4,0,0.9-0.1,1.3l-0.5-0.1c-2.1,11.5-2.7,21.2-2.9,25.6
		C413.8,1084.6,417.7,1096.6,428.8,1104"/>
	<path fill="#A2A9AC" d="M361.6,1077.5c15.7,11.6,31.1,4.2,37,0.5c0.4-7,1.5-19.4,4.7-33.2c0.1-1.2,0.2-2.5,0.2-3.9
		c0-11.7-3.8-29.5-24.5-38.7c-2.9-1.3-5.5-1.4-8.3-0.2c-7.8,3.2-14.3,14.4-17.3,20.9c-1.6,5.7-3.2,12.5-4.1,19.5l0.7,0.4
		c-0.1,0.2-0.8,2.1-1.3,5c-0.1,1.7-0.2,3.5-0.2,5.2h-0.2C348.3,1060,350.7,1069.6,361.6,1077.5"/>
	<path fill="#A2A9AC" d="M235.4,987.7c2.6,4,6.7,6.5,12.1,7.5c8.1,1.5,18.1-0.9,27.7-6.2c-15.1-13-27.6-25.2-38-36.6
		C225.2,965.7,227.6,976.4,235.4,987.7"/>
	<path fill="#A2A9AC" d="M282.9,1030.5c1.1,5.6,4.3,10,9.9,13.5c20.7,12.9,36.4,0.3,42.3-5.7c0.9-6.1,2.2-12,3.6-17.1l-0.4-0.1
		c0.2-0.6,2-7.2,2-15.4c0-11.2-3.3-25.5-18.4-32.7c-2.9-1.4-9.8-4.7-27.8,22.4C290.1,1000.7,280.4,1017.5,282.9,1030.5"/>
	<path fill="#A2A9AC" d="M660.9,889.1c-40.8-29.2-127.5-79-137-81.1c-2.5,0-10.1-2.5-20.5-6.4c-68.4,34.8-119.1,43.5-150.8,25.8
		c-27.2-15.2-29.1-44-29.2-45.3c-0.2-3.5,2.1-6.6,5.5-7.5c0.8-0.2,78-20.2,139.4-80.1c22.4-21.9,79.5-17.9,126.2-7.9
		c2.5-6.3,3.4-12.4,3.4-17c0-2.8-0.3-4.8-0.8-6.1c-23.2,2.4-100.6-1.2-122.2-9.7c-9.6-3.8-18.3,2.2-23.5,5.8l-3.7,2.9
		c-7.9,6.4-24.5,19.7-48.6,30.8c-18.7,8.6-41.2,9.7-59.4,10.6c-10.5,0.5-20.1,3.2-25.7,2.9c-31.6-1.7-90.3-39.2-114-54.6
		c-3.6-2.3-12.4-8.2-12.4-8.2v224.9h8.2h7.9c0.1,0.7,7.1,46.1,83.4,111.1c11.3-15.5,24.8-27.7,41-20l0,0
		c16.8,8.1,23.6,22.5,25.7,36.5c3.2-3.2,7-6.1,11.2-7.8c6.5-2.7,13.3-2.5,19.8,0.4c19.3,8.6,28.1,23.4,31.4,37.7
		c6.9-4.5,15.3-5.5,25.1-2.7c19.9,5.7,37.6,45.9,43.2,60c3.7,1,18.9,5,26.7,7c1.9,0.1,3,0.1,3.1,0.1h3l2.1,2.2
		c4.7,4.8,19.7,17.1,32.5,16c9.5-0.8,17.8-7.5,23-12.6c-19.6-13.6-59.5-49.2-79.7-67.4l-1.3,1.3c-2.8,2.9-7.4,3-10.3,0.2
		s-3-7.4-0.2-10.3l12.8-13.2c2.8-2.9,7.4-3,10.3-0.2s3,7.4,0.2,10.3l-1.4,1.4c35.6,32.2,75.7,66.3,82.8,69.2
		c3.1,0.6,23.9,4.3,37.2-4.8c5.5-3.8,8.9-9.4,10.5-16.8c-26.3-17.5-82.5-69.8-105.6-91.7l-0.9,1.1c-2.6,3.1-7.2,3.5-10.2,0.9
		c-3.1-2.6-3.5-7.2-0.9-10.2l11.2-13.3c2.6-3.1,7.2-3.5,10.2-0.9c3.1,2.6,3.5,7.2,0.9,10.3l-0.9,1c46,43.7,97.7,89.1,109.1,94
		c1.3,0.3,2.8,0.6,4.3,1.1c9.4,2.6,18.5,4.4,25.5-1.9c14.9-13.5,8.3-23.8,6.7-25.9l-45.8-54.8c-5-6.2-43.8-35.8-71.1-56l-1.2,1.5
		c-2.6,3.1-7.2,3.5-10.2,0.9c-3.1-2.6-3.5-7.2-0.9-10.2l11.2-13.3c2.6-3.1,7.2-3.5,10.3-0.9s3.5,7.2,0.9,10.3l-0.6,0.7
		c18.8,14,66,49.2,73,58l44.5,53.2c5.4,2.2,24.8,8.8,32.9-4.7c1-1.8,1.5-4.3,1.5-7.5C730,981.9,697.2,915.1,660.9,889.1"/>
	<path fill="#A2A9AC" d="M810.9,647.5c-2.1,1.4-138.9,88.4-158.6,73.1c-17.9-13.9-145-43.8-173.8-15.7
		c-54.8,53.5-119.3,75.9-139.5,82c1.7,7.3,6.6,20,20.9,27.9c19.9,11,62,14.3,149.5-32.8l9.3-5.1c1.9-1,4.3-1,6.3-0.2
		c1.5-0.1,3,0.3,4.3,1.3l21,16.7c26.3,22.2,70.3,59.4,96.3,48.3l2.1-1c2.9-1.3,6.1-0.6,8.3,1.7c0.3,0.3,0.2,0.7,0.4,1
		c0.9,0.5,2,0.5,2.6,1.4l20.5,30.8c12.6,19.5,35.4,54.8,43.3,60.7c23.2-6.5,28.3-43.5,28.4-43.9c0.2-2,1.3-3.8,3-5l39.6-28.2
		l7.9-5.3l8.2-5.5V647.5L810.9,647.5z"/>
	<path fill="#A2A9AC" d="M187.6,868.8c0,0.1,0.1,0.3,0.1,0.6L187.6,868.8L187.6,868.8z"/>
	<g>
		<path fill="#231F20" d="M1249,1203.1h-6.8v-61.2h6.8V1203.1z"/>
		<path fill="#231F20" d="M1261.8,1139.3l47.8,50v-47.4h6.8v64l-47.8-49.9v47.2h-6.8V1139.3z"/>
		<path fill="#231F20" d="M1356.9,1153.8c-2.4-4.2-5.4-6.7-10.6-6.7c-5.4,0-10.2,3.9-10.2,9.5c0,5.3,5.4,7.7,9.6,9.6l4.1,1.8
			c8,3.5,14.7,7.5,14.7,17.2c0,10.7-8.6,18.9-19.2,18.9c-9.8,0-17.1-6.3-19.1-15.8l6.7-1.9c0.9,6.2,5.7,11.4,12.3,11.4
			s12.6-5,12.6-11.9c0-7.2-5.6-9.6-11.3-12.2l-3.7-1.6c-7.2-3.2-13.3-6.9-13.3-15.7c0-9.5,8-15.6,17.1-15.6c6.8,0,12.6,3.5,15.8,9.5
			L1356.9,1153.8z"/>
		<path fill="#231F20" d="M1381.2,1178.3c0,4.5-0.2,9.8,2.7,13.6c2.7,3.7,7.9,5.8,12.3,5.8s9.2-2,12-5.4c3.2-3.9,3-9.3,3-14v-36.5
			h6.8v38.3c0,6.7-0.5,11.9-5.4,17c-4.2,4.5-10.3,7-16.5,7c-5.8,0-11.7-2.2-15.8-6.2c-5.4-5.1-6-10.7-6-17.7v-38.3h6.8
			L1381.2,1178.3L1381.2,1178.3z"/>
		<path fill="#231F20" d="M1437,1203.1h-6.8v-61.2h8.8c11.6,0,22.4,3.1,22.4,16.9c0,9.4-5.9,16.1-15.3,16.9l19.5,27.5h-8.4
			l-18.5-26.9h-1.7V1203.1L1437,1203.1z M1437,1170.2h2.1c7.7,0,15.5-1.5,15.5-11c0-10.1-7.4-11-15.6-11h-2V1170.2z"/>
		<path fill="#231F20" d="M1483.3,1185.7l-7.4,17.4h-7.5l28.3-64.1l27.5,64.1h-7.6l-7.2-17.4H1483.3z M1496.6,1154.9l-10.5,24.5
			h20.7L1496.6,1154.9z"/>
		<path fill="#231F20" d="M1531.3,1139.3l47.8,50v-47.4h6.8v64l-47.8-49.9v47.2h-6.8V1139.3z"/>
		<path fill="#231F20" d="M1645.4,1155.3c-4.9-5-11.6-8.1-18.7-8.1c-13.6,0-24.7,11.9-24.7,25.3c0,13.5,11.1,25.3,24.8,25.3
			c6.9,0,13.6-3.2,18.5-8.1v8.5c-5.3,3.8-11.8,6-18.3,6c-17.3,0-31.9-14.1-31.9-31.4c0-17.5,14.4-31.9,31.9-31.9
			c6.8,0,12.8,2,18.3,6L1645.4,1155.3L1645.4,1155.3z"/>
		<path fill="#231F20" d="M1656.9,1141.9h31.8v6.3h-24.9v18.2h24.2v6.3h-24.2v24h24.9v6.3h-31.8V1141.9z"/>
	</g>
</g>
</svg>
