<?xml version="1.0" encoding="utf-8"?>
<!-- Generator: Adobe Illustrator 27.2.0, SVG Export Plug-In . SVG Version: 6.00 Build 0)  -->
<svg version="1.2" baseProfile="tiny-ps" id="Layer_1" 
	 xmlns="http://www.w3.org/2000/svg" xmlns:xlink="http://www.w3.org/1999/xlink" viewBox="0 0 80 80"	 xml:space="preserve">
<title>Sideline</title>	 
		<rect fill="#FFFFFF" width="80" height="80"/>
		<g>
			<g>
				<path d="M24.9,63.9c-0.4-0.2-1-0.4-1.8-0.5c-0.4,0-0.6-0.1-0.8-0.1c-0.2,0-0.3-0.1-0.4-0.1c-0.1-0.1-0.1-0.2-0.1-0.3
					c0-0.2,0.1-0.3,0.3-0.5c0.2-0.1,0.4-0.2,0.7-0.2c0.3,0,0.6,0.1,0.8,0.2c0.2,0.1,0.3,0.3,0.3,0.5h1.5c0-0.6-0.3-1-0.8-1.4
					c-0.5-0.3-1.1-0.5-1.9-0.5c-0.5,0-0.9,0.1-1.3,0.2c-0.4,0.2-0.7,0.4-0.9,0.7c-0.2,0.3-0.3,0.6-0.3,1c0,0.4,0.1,0.7,0.3,0.9
					c0.2,0.2,0.5,0.4,0.8,0.5s0.8,0.2,1.3,0.3c0.4,0,0.6,0.1,0.8,0.1c0.2,0,0.3,0.1,0.4,0.2c0.1,0.1,0.1,0.2,0.1,0.3
					c0,0.2-0.1,0.4-0.3,0.5c-0.2,0.1-0.5,0.2-0.8,0.2c-0.4,0-0.6-0.1-0.9-0.2s-0.3-0.4-0.4-0.6h-1.5c0,0.6,0.3,1.1,0.8,1.5
					c0.5,0.4,1.2,0.5,2,0.5c0.5,0,1-0.1,1.4-0.2c0.4-0.2,0.7-0.4,0.9-0.7c0.2-0.3,0.3-0.6,0.3-1C25.5,64.5,25.3,64.1,24.9,63.9z"/>
				<path d="M27.1,58.7c-0.3,0-0.5,0.1-0.7,0.3c-0.2,0.2-0.3,0.4-0.3,0.7c0,0.3,0.1,0.5,0.3,0.7c0.2,0.2,0.4,0.3,0.7,0.3
					c0.3,0,0.5-0.1,0.7-0.3c0.2-0.2,0.3-0.4,0.3-0.7c0-0.3-0.1-0.5-0.3-0.7C27.6,58.8,27.4,58.7,27.1,58.7z"/>
				<rect x="26.3" y="61.1" width="1.6" height="5.8"/>
				<path d="M33.1,61.9c-0.4-0.5-1-0.8-1.7-0.8c-0.5,0-1,0.1-1.4,0.4c-0.4,0.2-0.7,0.6-1,1c-0.2,0.4-0.3,1-0.3,1.6
					c0,0.6,0.1,1.1,0.3,1.6c0.2,0.5,0.5,0.8,1,1c0.4,0.2,0.9,0.4,1.4,0.4c0.8,0,1.4-0.3,1.8-0.9l0.2,0.8h1.4V59h-1.6V61.9z
					 M32.7,65.2c-0.3,0.3-0.6,0.5-1,0.5c-0.4,0-0.8-0.2-1-0.5c-0.3-0.3-0.4-0.7-0.4-1.2c0-0.5,0.1-0.9,0.4-1.2
					c0.3-0.3,0.6-0.5,1-0.5c0.4,0,0.8,0.2,1,0.5c0.3,0.3,0.4,0.7,0.4,1.2C33.1,64.5,33,64.9,32.7,65.2z"/>
				<path d="M39.9,61.4c-0.4-0.2-1-0.3-1.6-0.3c-0.6,0-1.1,0.1-1.5,0.4s-0.8,0.6-1,1c-0.2,0.4-0.4,1-0.4,1.6c0,0.6,0.1,1.1,0.4,1.6
					c0.3,0.4,0.6,0.8,1.1,1c0.5,0.2,1,0.4,1.7,0.4c0.5,0,0.9-0.1,1.3-0.3s0.7-0.4,0.9-0.7c0.2-0.3,0.4-0.7,0.4-1h-1.6
					c-0.1,0.3-0.2,0.5-0.4,0.6c-0.2,0.1-0.5,0.2-0.8,0.2c-0.4,0-0.7-0.1-1-0.4c-0.2-0.2-0.4-0.6-0.4-1v0h4.2c0-0.2,0-0.3,0-0.5
					c0-0.6-0.1-1.1-0.4-1.5C40.7,62,40.4,61.6,39.9,61.4z M37.2,63.4c0-0.3,0.2-0.6,0.4-0.8c0.2-0.2,0.5-0.3,0.9-0.3
					c0.4,0,0.7,0.1,0.9,0.3c0.2,0.2,0.4,0.5,0.4,0.8H37.2z"/>
				<rect x="42.1" y="59" width="1.6" height="7.9"/>
				<rect x="44.9" y="61.1" width="1.6" height="5.8"/>
				<path d="M45.7,58.7c-0.3,0-0.5,0.1-0.7,0.3c-0.2,0.2-0.3,0.4-0.3,0.7c0,0.3,0.1,0.5,0.3,0.7c0.2,0.2,0.4,0.3,0.7,0.3
					c0.3,0,0.5-0.1,0.7-0.3c0.2-0.2,0.3-0.4,0.3-0.7c0-0.3-0.1-0.5-0.3-0.7C46.2,58.8,46,58.7,45.7,58.7z"/>
				<path d="M51,61.1c-0.4,0-0.8,0.1-1.1,0.2c-0.3,0.1-0.5,0.3-0.7,0.6L49,61.1h-1.4v5.8h1.6v-3c0-0.5,0.1-0.9,0.3-1.2
					c0.2-0.3,0.5-0.4,1-0.4c0.8,0,1.2,0.5,1.2,1.5v3.1h1.6v-3.1c0-1-0.2-1.7-0.7-2.1C52.2,61.3,51.7,61.1,51,61.1z"/>
				<path d="M59.8,64.4c0-0.2,0-0.3,0-0.5c0-0.6-0.1-1.1-0.4-1.5c-0.3-0.4-0.6-0.7-1-1c-0.4-0.2-1-0.3-1.6-0.3
					c-0.6,0-1.1,0.1-1.5,0.4c-0.4,0.2-0.8,0.6-1,1c-0.2,0.4-0.4,1-0.4,1.6c0,0.6,0.1,1.1,0.4,1.6c0.3,0.4,0.6,0.8,1.1,1
					c0.5,0.2,1,0.4,1.7,0.4c0.5,0,0.9-0.1,1.3-0.3c0.4-0.2,0.7-0.4,0.9-0.7c0.2-0.3,0.4-0.7,0.4-1h-1.6c-0.1,0.3-0.2,0.5-0.4,0.6
					c-0.2,0.1-0.5,0.2-0.8,0.2c-0.4,0-0.7-0.1-1-0.4c-0.2-0.2-0.4-0.6-0.4-1v0H59.8z M56.1,62.5c0.2-0.2,0.5-0.3,0.9-0.3
					c0.4,0,0.7,0.1,0.9,0.3c0.2,0.2,0.4,0.5,0.4,0.8h-2.6C55.7,63,55.8,62.7,56.1,62.5z"/>
			</g>
			<g>
				<path fill="#00B645" d="M33.5,21.9l7.9,0c0.8,0,1.5,0.5,1.8,1.3l1,2.7c0.2,0.6,0.8,1.1,1.5,1.1h13.3c0.7,0,1.3-0.6,1.3-1.3v-3.3
					c0-5.1-4.1-9.2-9.2-9.2H28.8c-5.1,0-9.2,4.1-9.2,9.2v13.1c2.4-0.3,5.1-0.4,8.1-0.4c10,0,16.8,1.9,18.5,3.5
					c1.2,1.2,1.8,2.3,1.9,5.2c0,0.8-0.6,1.5-1.5,1.5l-7.9,0c-0.8,0-1.5-0.5-1.8-1.3l-1-2.7c-0.2-0.6-0.8-1.1-1.5-1.1H20.9
					c-0.7,0-1.3,0.6-1.3,1.3v3.3c0,5.1,4.1,9.2,9.2,9.2h22.5c5.1,0,9.2-4.1,9.2-9.2V31.6c-2.4,0.3-5.1,0.4-8.1,0.4
					c-10,0-16.8-1.9-18.5-3.5c-1.2-1.2-1.8-2.3-1.9-5.2C32.1,22.6,32.7,21.9,33.5,21.9z"/>
			</g>
		</g>
</svg>
