<?xml version="1.0" encoding="UTF-8" standalone="yes"?>
<svg baseProfile="tiny-ps" version="1.2" viewBox="0 0 2000 2000" xmlns="http://www.w3.org/2000/svg">
  <title>bimi-svg-tiny-12-ps</title>
  <g>
    <g id="Layer_1">
      <g>
        <circle cx="1000" cy="1000" r="500" fill="none"/>
        <g>
          <rect x="500" y="500" width="1000" height="967" fill="none"/>
          <path d="M1000,500c-276.1,0-500,223.9-500,500s132.6,393.8,319.4,466.3v-92.4c0-63.9,1.9-124.5,5.1-158.8,9.8-105.2,81.9-159.5,175.4-159.5s165.7,54.3,175.4,159.5c3.2,34.2,5.1,94.9,5.1,158.8v92.4c186.9-72.4,319.4-253.8,319.4-466.3s-223.9-500-500-500h.2ZM1000,991.7c-92,0-166.7-74.6-166.7-166.7s74.6-166.7,166.7-166.7,166.7,74.6,166.7,166.7-74.6,166.7-166.7,166.7h0Z" fill="#4078ff"/>
        </g>
      </g>
      <g>
        <path d="M1435.8,1434.4c1.9-2.1,2.8-4.8,2.8-7.9s-1.4-6.9-4.1-9.3-6.3-3.6-10.9-3.6h-15.9v43.1h5.5v-17.2h9.3l10,17.2h6.2l-10.8-18.1c3.3-.6,5.9-2,7.7-4.2h.2ZM1413.3,1434.8v-16.4h10.2c2.8,0,5,.7,6.8,2.2s2.6,3.4,2.6,6-.9,4.7-2.6,6.1c-1.8,1.5-4,2.2-6.8,2.2h-10.2Z" fill="#4078ff"/>
        <path d="M1422,1397.3c-21,0-38,17-38,38s17,38,38,38,38-17,38-38-17-38-38-38ZM1422,1468.2c-18.1,0-32.9-14.8-32.9-32.9s14.8-32.9,32.9-32.9,32.9,14.8,32.9,32.9-14.8,32.9-32.9,32.9Z" fill="#4078ff"/>
      </g>
    </g>
  </g>
</svg>