<?xml version="1.0" encoding="utf-8"?>
<!-- Generator: Adobe Illustrator 27.2.0, SVG Export Plug-In . SVG Version: 6.00 Build 0)  -->
<svg version="1.2" baseProfile="tiny-ps" id="Layer_1" xmlns="http://www.w3.org/2000/svg" xmlns:xlink="http://www.w3.org/1999/xlink"
	 viewBox="0 0 1400 1400" xml:space="preserve">
<title>Textfree</title>
<rect fill="#FFFFFF" width="1400" height="1400"/>
<g>
	<g>
		<path fill="#666666" d="M1203.3,1157.5c1.9-2.2,2.9-4.8,2.9-8c0-3.8-1.4-6.9-4.1-9.3c-2.7-2.4-6.4-3.6-10.9-3.6h-16v43.3h5.5
			v-17.3h9.3l10.1,17.3h6.3l-10.8-18.2C1198.8,1161.1,1201.4,1159.7,1203.3,1157.5z M1180.7,1157.9v-16.5h10.3
			c2.8,0,5.1,0.7,6.8,2.2c1.8,1.5,2.7,3.5,2.7,6c0,2.7-0.9,4.7-2.7,6.2c-1.8,1.5-4.1,2.2-6.8,2.2H1180.7z"/>
		<path fill="#666666" d="M1189.4,1120.2c-21.1,0-38.2,17.1-38.2,38.2c0,21.1,17.1,38.2,38.2,38.2s38.2-17.1,38.2-38.2
			C1227.6,1137.3,1210.5,1120.2,1189.4,1120.2z M1189.4,1191.5c-18.2,0-33.1-14.8-33.1-33.1s14.8-33.1,33.1-33.1
			c18.2,0,33.1,14.8,33.1,33.1S1207.7,1191.5,1189.4,1191.5z"/>
	</g>
	<g>
		<path fill-rule="evenodd" fill="#6461CE" d="M670.9,196.6H403c-127.5,0-230.9,103.4-230.9,230.9c0,77.9,38.6,146.7,97.6,188.5
			l-32.4,123.2c-4.2,15.8,13.1,28.5,27,19.9L412,658.4h103.5c43.7-33.9,98.4-54.1,157.8-54.1h146.1c50.4-42.4,82.4-105.8,82.4-176.8
			C901.8,300,798.4,196.6,670.9,196.6z"/>
		<path fill-rule="evenodd" fill="#666666" d="M1074.5,1050.8c59-41.8,97.6-110.6,97.6-188.5c0-127.5-103.4-230.9-230.9-230.9H673.3
			c-127.5,0-230.9,103.4-230.9,230.9c0,127.5,103.4,230.9,230.9,230.9h258.9l147.7,100.6c13.9,8.6,31.2-4.1,27-19.9L1074.5,1050.8z"
			/>
		<g>
			<path fill="#FFFFFF" d="M604.8,785.5c0-4.4,1-7.5,3-9.5c2-2,5.1-3,9.5-3h20.6v-35.6h-28.5c-15.2,0-26.7,3.6-34.4,10.8
				c-7.7,7.2-11.6,17.6-11.6,31v17.3h-25.2v35.3h25.2v117.3h41.4V831.9h38.3v-35.3h-38.3V785.5z"/>
			<g>
				<path fill-rule="evenodd" fill="#FFFFFF" d="M755.4,834.6h-16.6c-11.9,0-20.6,3.6-26.1,10.7c-5.5,7.1-8.3,16.8-8.3,29.1v74.8
					h-41.5V796.6h37.6l3.9,22.9c4.6-7.5,10.2-13.2,16.9-17.1c6.7-3.9,15.7-5.8,27-5.8h7.1V834.6z"/>
				<path fill-rule="evenodd" fill="#FFFFFF" d="M912.5,882.4c0.8-4.2,1.2-8.9,1.2-14.3c-0.2-14.8-3.6-27.8-10.2-38.7
					c-6.6-11-15.8-19.5-27.6-25.5c-11.8-6-25.4-9.1-40.8-9.1c-15.2,0-28.6,3.2-40.2,9.6c-11.6,6.4-20.6,15.5-27,27.3
					c-6.4,11.8-9.6,25.6-9.6,41.4c0,15.6,3.3,29.3,9.9,41.1c6.6,11.8,16.1,20.8,28.5,27.2c12.4,6.3,27.1,9.5,44.1,9.5
					c13.1,0,24.6-2.3,34.7-7c10.1-4.7,18.2-11,24.3-19.1c6.1-8.1,10-17.2,11.6-27.3H870c-1.8,7.1-5.5,12.5-11.1,16.2
					c-5.6,3.7-12.7,5.5-21.2,5.5c-10.7,0-19.1-3.2-25.2-9.5c-6.1-6.3-9.7-15-10.7-26.1v-1.2H912.5z M813.7,833.8
					c6.2-5.2,13.9-7.9,23-7.9c9.5,0,17.4,2.5,23.6,7.6c6.2,5,10,12.2,11.4,21.5h-69.2C803.8,846.2,807.5,839.1,813.7,833.8z"/>
				<path fill-rule="evenodd" fill="#FFFFFF" d="M1083,882.4c0.8-4.2,1.2-8.9,1.2-14.3c-0.2-14.8-3.6-27.8-10.2-38.7
					c-6.6-11-15.8-19.5-27.6-25.5c-11.8-6-25.4-9.1-40.8-9.1c-15.2,0-28.6,3.2-40.2,9.6c-11.6,6.4-20.6,15.5-27,27.3
					c-6.4,11.8-9.6,25.6-9.6,41.4c0,15.6,3.3,29.3,9.9,41.1c6.6,11.8,16.1,20.8,28.5,27.2c12.4,6.3,27.1,9.5,44.1,9.5
					c13.1,0,24.6-2.3,34.7-7c10.1-4.7,18.2-11,24.3-19.1c6.1-8.1,10-17.2,11.6-27.3h-41.3c-1.8,7.1-5.5,12.5-11.1,16.2
					c-5.6,3.7-12.7,5.5-21.2,5.5c-10.7,0-19.1-3.2-25.2-9.5c-6.1-6.3-9.7-15-10.7-26.1v-1.2H1083z M984.2,833.8
					c6.2-5.2,13.9-7.9,23-7.9c9.5,0,17.4,2.5,23.6,7.6c6.2,5,10,12.2,11.4,21.5h-69.2C974.3,846.2,978,839.1,984.2,833.8z"/>
			</g>
		</g>
		<g>
			<path fill="#FFFFFF" d="M335.3,319.1h-41.4v42.8h-25.2v35.3h25.2v73.6c0,29.1,14.5,43.6,43.6,43.6h29.1v-35.3h-16.5
				c-5.3,0-9.2-1.2-11.4-3.6s-3.4-6.2-3.4-11.6v-66.8H370v-35.3h-34.7V319.1z"/>
			<path fill="#FFFFFF" d="M764.8,319.1h-41.4v42.8h-25.2v35.3h25.2v73.6c0,29.1,14.5,43.6,43.6,43.6h29.1v-35.3h-16.5
				c-5.3,0-9.2-1.2-11.4-3.6c-2.3-2.4-3.4-6.2-3.4-11.6v-66.8h34.7v-35.3h-34.7V319.1z"/>
			<g>
				<path fill-rule="evenodd" fill="#FFFFFF" d="M535.1,447.6c0.8-4.2,1.2-8.9,1.2-14.3c-0.2-14.8-3.6-27.8-10.2-38.7
					c-6.6-11-15.8-19.5-27.6-25.5c-11.8-6-25.4-9.1-40.8-9.1c-15.2,0-28.6,3.2-40.2,9.6c-11.6,6.4-20.6,15.5-27,27.3
					s-9.6,25.6-9.6,41.4c0,15.6,3.3,29.3,9.9,41.1c6.6,11.8,16.1,20.8,28.5,27.2c12.4,6.3,27.1,9.5,44.1,9.5c13.1,0,24.6-2.3,34.7-7
					c10.1-4.7,18.2-11,24.3-19.1c6.1-8.1,10-17.2,11.6-27.3h-41.3c-1.8,7.1-5.5,12.5-11.1,16.2c-5.6,3.7-12.7,5.5-21.2,5.5
					c-10.7,0-19.1-3.2-25.2-9.5c-6.1-6.3-9.7-15-10.7-26.1v-1.2H535.1z M436.4,399.1c6.2-5.2,13.9-7.9,23-7.9
					c9.5,0,17.4,2.5,23.6,7.6c6.2,5,10,12.2,11.4,21.5h-69.2C426.5,411.4,430.2,404.3,436.4,399.1z"/>
				<polygon fill-rule="evenodd" fill="#FFFFFF" points="647.7,514.4 612.7,466.6 578,514.4 533.1,514.4 589.9,436.6 535.8,361.8 
					583.6,361.8 615.4,407 647.7,361.8 692.6,361.8 638.8,436.6 695.5,514.4 				"/>
			</g>
		</g>
	</g>
</g>
</svg>
