<?xml version="1.0" encoding="utf-8"?>
<!-- Generator: Adobe Illustrator 27.1.1, SVG Export Plug-In . SVG Version: 6.00 Build 0)  -->
<svg version="1.2" baseProfile="tiny-ps" id="Layer_1" xmlns="http://www.w3.org/2000/svg" xmlns:xlink="http://www.w3.org/1999/xlink"
	  viewBox="0 0 144 144"  xml:space="preserve">
<title>Masterly Notion</title>
<g>
	<g>
		<rect fill="#082034" width="144" height="144"/>
		<g>
			<g>
				<g>
					<polygon fill="#B85957" points="74.51,75.93 73.2,75.93 73.2,87.26 73.2,88.5 73.2,88.5 74.51,88.5 74.51,88.5 78.92,88.5 
						78.92,87.26 74.51,87.26 					"/>
					<polygon fill="#B85957" points="126.13,57.09 126.13,57.1 121.73,57.1 121.73,58.34 126.13,58.34 126.13,69.67 127.44,69.67 
						127.44,58.34 127.44,57.1 127.44,57.09 					"/>
					<g>
						<path fill="#F5F5F5" d="M76.98,60.69h2.45l1.09,7.81h0.03l1.09-7.81h2.45v10.91h-1.62v-8.26h-0.03l-1.25,8.26h-1.43
							l-1.25-8.26h-0.03v8.26h-1.5V60.69z"/>
						<path fill="#F5F5F5" d="M86.69,60.69h2.32l1.78,10.91h-1.71l-0.31-2.17v0.03h-1.95l-0.31,2.13h-1.59L86.69,60.69z
							 M88.56,67.98l-0.76-5.39h-0.03l-0.75,5.39H88.56z"/>
						<path fill="#F5F5F5" d="M91.27,69.01v-0.62h1.62v0.75c0,0.78,0.34,1.06,0.89,1.06c0.55,0,0.89-0.28,0.89-1.09
							c0-0.9-0.34-1.48-1.46-2.46c-1.43-1.26-1.9-2.15-1.9-3.4c0-1.71,0.89-2.71,2.56-2.71c1.67,0,2.49,1,2.49,2.74v0.45h-1.62
							v-0.56c0-0.78-0.31-1.08-0.86-1.08c-0.55,0-0.86,0.3-0.86,1.04c0,0.79,0.36,1.37,1.48,2.35c1.43,1.26,1.89,2.13,1.89,3.49
							c0,1.78-0.9,2.77-2.59,2.77S91.27,70.75,91.27,69.01z"/>
						<path fill="#F5F5F5" d="M98.7,62.24h-1.79v-1.56h5.3v1.56h-1.79v9.35H98.7V62.24z"/>
						<path fill="#F5F5F5" d="M103.04,60.69h4.67v1.56h-2.96v2.88h2.35v1.56h-2.35v3.35h2.96v1.56h-4.67V60.69z"/>
						<path fill="#F5F5F5" d="M108.69,60.69h2.54c1.78,0,2.54,0.83,2.54,2.51v0.67c0,1.12-0.36,1.84-1.12,2.15v0.03
							c0.86,0.26,1.14,1.08,1.14,2.31v1.92c0,0.53,0.02,0.92,0.19,1.32h-1.75c-0.09-0.28-0.16-0.45-0.16-1.34v-1.99
							c0-1.01-0.3-1.34-1.08-1.34h-0.59v4.67h-1.71V60.69z M111.03,65.36c0.64,0,1.03-0.28,1.03-1.15v-0.84
							c0-0.78-0.26-1.12-0.87-1.12h-0.78v3.12H111.03z"/>
						<path fill="#F5F5F5" d="M114.97,60.69h1.71v9.35h2.82v1.56h-4.53V60.69z"/>
						<path fill="#F5F5F5" d="M120.53,66.95l-2.07-6.26h1.82l1.17,4h0.03l1.17-4h1.67l-2.07,6.26v4.64h-1.71V66.95z"/>
					</g>
					<g>
						<path fill="#F5F5F5" d="M76.98,74.09h2.15l1.67,6.53h0.03v-6.53h1.53V85H80.6l-2.06-7.96h-0.03V85h-1.53V74.09z"/>
						<path fill="#F5F5F5" d="M83.51,82.41v-5.73c0-1.75,0.92-2.74,2.6-2.74s2.6,1,2.6,2.74v5.73c0,1.75-0.92,2.74-2.6,2.74
							S83.51,84.16,83.51,82.41z M87,82.52v-5.95c0-0.78-0.34-1.08-0.89-1.08c-0.55,0-0.89,0.3-0.89,1.08v5.95
							c0,0.78,0.34,1.08,0.89,1.08C86.66,83.6,87,83.3,87,82.52z"/>
						<path fill="#F5F5F5" d="M91.15,75.65h-1.79v-1.56h5.3v1.56h-1.79V85h-1.71V75.65z"/>
						<path fill="#F5F5F5" d="M95.48,74.09h1.71V85h-1.71V74.09z"/>
						<path fill="#F5F5F5" d="M98.34,82.41v-5.73c0-1.75,0.92-2.74,2.6-2.74s2.6,1,2.6,2.74v5.73c0,1.75-0.92,2.74-2.6,2.74
							S98.34,84.16,98.34,82.41z M101.84,82.52v-5.95c0-0.78-0.34-1.08-0.89-1.08c-0.55,0-0.89,0.3-0.89,1.08v5.95
							c0,0.78,0.34,1.08,0.89,1.08C101.49,83.6,101.84,83.3,101.84,82.52z"/>
						<path fill="#F5F5F5" d="M104.7,74.09h2.15l1.67,6.53h0.03v-6.53h1.53V85h-1.76l-2.06-7.96h-0.03V85h-1.53V74.09z"/>
					</g>
					<g>
						<path fill="#B85957" d="M63.39,61c-2.82-6.24-7.84-11.16-14.13-13.84c-0.16-0.07-0.34-0.1-0.51-0.1
							c-0.25,0-0.5,0.07-0.71,0.21c-0.21,0.13-0.38,0.33-0.49,0.58v0c-0.07,0.16-0.1,0.34-0.1,0.51c0,0.1,0.01,0.2,0.03,0.29
							c0.04,0.2,0.13,0.38,0.26,0.53c0.13,0.16,0.3,0.29,0.49,0.37c5.69,2.43,10.23,6.88,12.79,12.53
							c1.47,3.25,2.21,6.69,2.21,10.16c0,1.88-0.22,3.78-0.66,5.65c-0.02,0.1-0.03,0.2-0.03,0.3c0,0.3,0.1,0.58,0.28,0.8
							c0.17,0.22,0.43,0.39,0.73,0.46c0.1,0.02,0.2,0.03,0.3,0.03c0.3,0,0.58-0.1,0.8-0.28c0.22-0.17,0.39-0.43,0.46-0.73
							c0.49-2.07,0.73-4.17,0.73-6.25C65.84,68.39,65.02,64.59,63.39,61z"/>
						<path fill="#B85957" d="M63.1,80.86c-0.16-0.06-0.33-0.1-0.49-0.1c-0.26,0-0.51,0.08-0.72,0.22
							c-0.21,0.14-0.39,0.34-0.49,0.59c-2.4,5.9-6.9,10.59-12.71,13.21c-0.05,0.02-0.1,0.05-0.15,0.08
							c-1.6,0.71-3.28,1.26-4.99,1.62c-0.3,0.06-0.57,0.23-0.75,0.46c-0.18,0.23-0.29,0.51-0.29,0.81c0,0.09,0.01,0.18,0.03,0.27
							l0,0l0,0l0,0.01l0,0l0,0c0.07,0.3,0.24,0.55,0.46,0.73c0.22,0.18,0.51,0.28,0.8,0.28c0.09,0,0.18-0.01,0.27-0.03
							c1.95-0.41,3.86-1.04,5.68-1.86c0.06-0.03,0.12-0.06,0.18-0.1C56.28,94.15,61.2,89,63.82,82.55v0c0.06-0.16,0.1-0.33,0.1-0.49
							c0-0.26-0.08-0.51-0.22-0.72C63.56,81.13,63.35,80.96,63.1,80.86z"/>
						<path fill="#B85957" d="M25.6,49.66c0.11,0.22,0.29,0.41,0.49,0.53c0.2,0.12,0.43,0.19,0.67,0.19c0.2,0,0.4-0.05,0.59-0.14
							l-0.02,0.01l0.02-0.01c0.33-0.17,0.66-0.32,0.98-0.47c0.05-0.02,0.1-0.05,0.14-0.08c2.55-1.14,5.24-1.83,7.99-2.06
							c0.68-0.06,1.37-0.09,2.05-0.09c2.03,0,4.05,0.25,6.04,0.75c0.11,0.03,0.21,0.04,0.32,0.04c0.29,0,0.57-0.1,0.79-0.27
							c0.22-0.17,0.39-0.42,0.47-0.71c0.03-0.11,0.04-0.21,0.04-0.32c0-0.29-0.1-0.57-0.27-0.79c-0.17-0.22-0.42-0.39-0.71-0.47
							c-2.19-0.55-4.43-0.83-6.67-0.83c-0.76,0-1.51,0.03-2.27,0.09c-3.1,0.26-6.13,1.05-8.99,2.34c-0.06,0.03-0.12,0.06-0.18,0.1
							c-0.3,0.14-0.59,0.28-0.89,0.43l0,0c-0.22,0.11-0.4,0.29-0.53,0.49c-0.12,0.2-0.19,0.43-0.19,0.67c0,0.1,0.01,0.19,0.03,0.29
							C25.51,49.46,25.55,49.56,25.6,49.66z"/>
						<path fill="#B85957" d="M26.48,73.59c-0.41,0-0.83-0.01-1.24-0.03c-4.2-0.18-8.39-1.34-12.11-3.35
							c-0.19-0.11-0.41-0.16-0.62-0.16c-0.23,0-0.46,0.06-0.66,0.18c-0.2,0.12-0.37,0.29-0.49,0.5c-0.1,0.19-0.16,0.41-0.16,0.62
							c0,0.1,0.01,0.2,0.03,0.29l0.58-0.13l-0.58,0.13c0.04,0.18,0.12,0.34,0.23,0.49c0.11,0.15,0.25,0.27,0.42,0.36
							c4.06,2.19,8.63,3.45,13.23,3.65c0.45,0.02,0.91,0.03,1.36,0.03c1.23,0,2.45-0.08,3.66-0.22c0-0.78,0-1.65,0.01-2.62
							C28.93,73.51,27.71,73.59,26.48,73.59z"/>
						<path fill="#B85957" d="M11.61,68.12c0.07,0.33,0.28,0.63,0.59,0.82c3.16,1.92,6.62,3.17,10.28,3.71
							c0.06,0.01,0.13,0.01,0.19,0.01c0.32,0,0.62-0.12,0.84-0.31c0.23-0.2,0.39-0.48,0.44-0.8v0v0c0.01-0.06,0.01-0.13,0.01-0.19
							c0-0.32-0.12-0.62-0.31-0.84c-0.2-0.23-0.48-0.39-0.8-0.44l0,0c-3.31-0.49-6.44-1.62-9.31-3.36l0,0
							c-0.21-0.13-0.44-0.19-0.67-0.19c-0.22,0-0.43,0.06-0.63,0.16c-0.19,0.11-0.36,0.26-0.48,0.46c-0.13,0.21-0.19,0.44-0.19,0.68
							C11.57,67.92,11.59,68.02,11.61,68.12L11.61,68.12z"/>
						<path fill="#B85957" d="M26.82,70.34c-0.35,0.01-0.68,0.15-0.91,0.39c-0.23,0.23-0.37,0.56-0.37,0.91l0,0.02v0
							c0.01,0.35,0.15,0.68,0.39,0.91c0.23,0.23,0.56,0.37,0.91,0.37h0.02l0,0c1.1-0.02,2.2-0.1,3.29-0.25
							c0-0.81,0.01-1.68,0.01-2.63C29.05,70.22,27.94,70.32,26.82,70.34z"/>
						<path fill="#B85957" d="M30.14,76.62c-1.23,0.15-2.46,0.22-3.7,0.22c-4.52,0-9.04-0.98-13.25-2.95
							c-0.18-0.08-0.37-0.12-0.55-0.12c-0.25,0-0.48,0.07-0.69,0.2c-0.21,0.13-0.38,0.32-0.49,0.55c-0.08,0.18-0.12,0.36-0.12,0.55
							c0,0.1,0.01,0.2,0.03,0.29c0.04,0.19,0.13,0.36,0.25,0.52c0.12,0.15,0.28,0.28,0.47,0.37h0c4.55,2.13,9.45,3.19,14.35,3.19
							c1.24,0,2.48-0.07,3.71-0.21C30.14,78.51,30.14,77.64,30.14,76.62z"/>
						<path fill="#B85957" d="M26.45,67.08c-4.23,0-8.43-1.25-12.04-3.67c-0.22-0.15-0.48-0.22-0.72-0.22
							c-0.21,0-0.41,0.05-0.6,0.15c-0.19,0.1-0.35,0.24-0.48,0.43c-0.15,0.22-0.22,0.48-0.22,0.73c0,0.1,0.01,0.2,0.03,0.29
							L13,64.64l-0.58,0.13c0.07,0.31,0.26,0.6,0.54,0.79c4.04,2.72,8.75,4.11,13.49,4.11c1.24,0,2.47-0.1,3.7-0.29
							c0-0.83,0-1.7,0.01-2.63C28.93,66.97,27.69,67.08,26.45,67.08z"/>
						<path fill="#B85957" d="M26.48,80.09c-4.31,0-8.62-0.81-12.65-2.39l-0.01,0l0.01,0c-0.15-0.06-0.32-0.09-0.47-0.09
							c-0.26,0-0.51,0.08-0.72,0.22c-0.21,0.14-0.39,0.35-0.49,0.61l0,0l0,0c-0.06,0.15-0.09,0.32-0.09,0.47
							c0,0.1,0.01,0.2,0.03,0.29l0.58-0.13l-0.58,0.13c0.05,0.2,0.14,0.39,0.27,0.55c0.13,0.16,0.31,0.29,0.52,0.37l0.01,0l-0.01,0
							c4.34,1.7,8.97,2.57,13.6,2.57c1.28,0,2.56-0.07,3.84-0.2c-0.09-0.52-0.14-1.3-0.16-2.59C28.94,80.03,27.71,80.09,26.48,80.09
							z"/>
						<polygon fill="#B85957" points="13.84,60.59 13.84,60.59 13.85,60.59 						"/>
						<path fill="#B85957" d="M42.41,61.91c-1.27-0.48-2.59-0.72-3.91-0.72c-0.63,0-1.26,0.06-1.89,0.17
							c6.97,4.03,10.49,6.05,12.28,7.09c-0.09-0.25-0.19-0.5-0.3-0.75C47.38,65.01,45.17,62.95,42.41,61.91z"/>
						<path fill="#B85957" d="M26.43,63.83c-0.68,0-1.35-0.04-2.03-0.11c-3.16-0.36-6.18-1.54-8.75-3.41
							c-0.23-0.17-0.5-0.25-0.77-0.25c-0.2,0-0.4,0.05-0.58,0.14c-0.18,0.09-0.34,0.22-0.47,0.4l0,0c-0.17,0.23-0.25,0.5-0.25,0.77
							c0,0.1,0.01,0.2,0.03,0.29v0c0.07,0.29,0.24,0.57,0.5,0.76c2.93,2.14,6.38,3.49,9.99,3.89c0.77,0.09,1.54,0.13,2.32,0.13
							c1.25,0,2.5-0.11,3.73-0.34c0-0.84,0-1.72,0-2.65C28.93,63.7,27.68,63.83,26.43,63.83z"/>
						<path fill="#B85957" d="M42.04,82.8l0.01,0.02l1.02-0.46c2.71-1.23,4.8-3.49,5.82-6.26c-14.96,8.64-5.04,2.91-13.76,7.94
							c-1.46,0.85-3.17,1.03-4.2-0.26c-0.18-0.22-0.32-0.4-0.43-0.65c-1.35,0.15-2.71,0.22-4.06,0.22c-3.8,0-7.61-0.58-11.31-1.74
							c-0.13-0.04-0.26-0.06-0.39-0.06c-0.28,0-0.54,0.09-0.76,0.25c-0.22,0.16-0.39,0.39-0.48,0.66c0,0,0,0,0,0l0,0l0,0
							c-0.04,0.13-0.06,0.26-0.06,0.39c0,0.1,0.01,0.2,0.03,0.29c0.05,0.22,0.15,0.42,0.3,0.58c0.15,0.17,0.35,0.3,0.57,0.37
							c3.95,1.24,8.02,1.86,12.08,1.86C31.76,85.94,37.06,84.89,42.04,82.8z"/>
						<path fill="#B85957" d="M15.66,59.49c2.4,1.86,5.25,3.07,8.26,3.5h0l0,0c0.06,0.01,0.13,0.01,0.19,0.01
							c0.32,0,0.62-0.12,0.85-0.31c0.23-0.2,0.39-0.48,0.44-0.8c0.01-0.06,0.01-0.13,0.01-0.19c0-0.32-0.12-0.62-0.31-0.85
							c-0.2-0.23-0.48-0.39-0.8-0.44c-2.56-0.37-5-1.41-7.04-2.99c-0.23-0.18-0.52-0.27-0.79-0.27c-0.19,0-0.39,0.04-0.56,0.13
							c-0.18,0.08-0.34,0.21-0.47,0.38c-0.18,0.23-0.27,0.52-0.27,0.79c0,0.1,0.01,0.2,0.03,0.29
							C15.26,59.04,15.42,59.3,15.66,59.49z"/>
						<polygon fill="#B85957" points="23.93,63 23.92,62.99 23.92,62.99 						"/>
						<path fill="#B85957" d="M35.14,60.51c0.21,0.12,0.42,0.24,0.63,0.36c0.9-0.22,1.82-0.33,2.73-0.33c1.39,0,2.79,0.25,4.14,0.76
							c2.93,1.11,5.25,3.28,6.54,6.13c0.22,0.49,0.41,0.99,0.56,1.5c1.13,0.65,1.03,0.6,1.14,0.68c0.33,0.24,0.55,0.39,0.87,0.74
							c1.41,1.53,1.01,3.5-1.23,4.79c-0.27,0.16-0.53,0.31-0.79,0.45c-0.08,0.27-0.17,0.54-0.27,0.8c-1.08,2.87-3.19,5.16-5.96,6.47
							l-0.17,0.08c-4.56,2.06-9.37,3.27-14.32,3.58c-0.34,0.02-0.65,0.18-0.87,0.41c-0.22,0.23-0.35,0.55-0.35,0.89
							c0,0.03,0,0.05,0,0.08c0,0.07,0.02,0.14,0.03,0.21c0.07,0.29,0.23,0.54,0.45,0.72c0.22,0.18,0.51,0.29,0.81,0.29
							c0.03,0,0.06,0,0.08,0h0c5.05-0.32,9.98-1.51,14.65-3.55l0.01,0l0.57-0.26c3.48-1.57,6.15-4.42,7.49-8
							c0.62-1.64,0.93-3.35,0.93-5.05c0-2.01-0.43-4.02-1.28-5.9c-1.57-3.48-4.42-6.15-8-7.49c-1.64-0.62-3.35-0.93-5.05-0.93
							c-2.01,0-4.02,0.43-5.9,1.28l-0.62,0.28c-1.21,0.49-2.48,0.81-3.76,0.96c-0.33,0.04-0.62,0.2-0.82,0.43
							c-0.2,0.23-0.33,0.53-0.33,0.86c0,0.05,0,0.1,0.01,0.16c0.04,0.33,0.2,0.62,0.43,0.82c0.23,0.2,0.53,0.33,0.86,0.33
							c0.05,0,0.1,0,0.16-0.01c0.56-0.07,1.12-0.16,1.67-0.29C30.47,60.06,32.59,59.04,35.14,60.51z"/>
						<path fill="#B85957" d="M24.92,89.17c0.02,0,0.03,0,0.05,0c0.35,0,0.67-0.14,0.9-0.36c0.23-0.22,0.39-0.54,0.4-0.89v0
							c0-0.01,0-0.03,0-0.04c0-0.35-0.14-0.67-0.36-0.9c-0.22-0.23-0.54-0.39-0.89-0.4h0c-2.61-0.09-5.23-0.44-7.78-1.03
							c-0.1-0.02-0.2-0.03-0.29-0.03c-0.3,0-0.58,0.1-0.8,0.28c-0.22,0.18-0.39,0.43-0.46,0.73c-0.02,0.1-0.03,0.2-0.03,0.29
							c0,0.1,0.01,0.2,0.03,0.29c0.05,0.24,0.17,0.45,0.34,0.62c0.17,0.17,0.39,0.3,0.63,0.36C19.36,88.71,22.14,89.07,24.92,89.17
							L24.92,89.17z"/>
						<path fill="#B85957" d="M45.75,88.27L45.75,88.27l0.5-0.23l0-0.01c2.12-1.04,3.97-2.46,5.51-4.24
							c0.21-0.24,0.32-0.55,0.32-0.85c0-0.18-0.04-0.36-0.11-0.53c-0.07-0.17-0.19-0.32-0.33-0.45c-0.24-0.21-0.55-0.32-0.85-0.32
							c-0.18,0-0.36,0.04-0.53,0.11c-0.17,0.08-0.32,0.19-0.45,0.33c-1.42,1.63-3.14,2.91-5.13,3.81h0l-0.17,0.08l0,0
							c-5.72,2.56-11.87,3.87-18.07,3.87c-2.04,0-4.08-0.14-6.11-0.43c-0.06-0.01-0.12-0.01-0.18-0.01c-0.32,0-0.62,0.12-0.85,0.32
							c-0.23,0.2-0.39,0.48-0.44,0.8v0c-0.01,0.06-0.01,0.12-0.01,0.18c0,0.1,0.01,0.2,0.03,0.29c0.06,0.26,0.19,0.48,0.38,0.66
							c0.19,0.18,0.43,0.3,0.71,0.34h0c2.15,0.3,4.32,0.45,6.47,0.45C33.07,92.45,39.65,91.04,45.75,88.27z"/>
						<path fill="#B85957" d="M52.51,80.66c0.18,0.09,0.38,0.14,0.58,0.14c0.24,0,0.47-0.07,0.68-0.19c0.2-0.12,0.38-0.31,0.49-0.53
							c1.22-2.47,1.84-5.14,1.84-7.81c0-2.47-0.52-4.93-1.57-7.25c-0.56-1.24-1.26-2.41-2.09-3.48c-0.13-0.16-0.29-0.29-0.47-0.38
							c-0.18-0.09-0.37-0.13-0.56-0.13c-0.28,0-0.56,0.09-0.79,0.27c-0.16,0.13-0.29,0.29-0.38,0.47c-0.09,0.18-0.13,0.37-0.13,0.56
							c0,0.28,0.09,0.56,0.27,0.79c0.7,0.91,1.3,1.91,1.78,2.97c0.89,1.97,1.34,4.08,1.34,6.18c0,2.28-0.52,4.55-1.56,6.65
							c-0.09,0.18-0.14,0.38-0.14,0.58c0,0.1,0.01,0.2,0.03,0.29c0.04,0.18,0.12,0.36,0.24,0.51
							C52.17,80.45,52.33,80.58,52.51,80.66z"/>
						<polygon fill="#B85957" points="52.51,80.67 52.51,80.66 52.51,80.66 						"/>
						<polygon fill="#B85957" points="51.82,79.79 51.82,79.79 51.82,79.79 51.81,79.78 						"/>
						<path fill="#B85957" d="M17.55,56.83L17.55,56.83c2.59,2.04,5.71,3.09,8.88,3.09c2,0,4.02-0.42,5.92-1.28l0.56-0.25
							c1.82-0.74,3.72-1.1,5.62-1.1c3.28,0,6.52,1.08,9.21,3.18c0.24,0.18,0.52,0.28,0.8,0.27c0.19,0,0.38-0.04,0.56-0.13
							c0.18-0.08,0.34-0.21,0.46-0.37c0.18-0.24,0.28-0.52,0.27-0.8c0-0.19-0.04-0.38-0.13-0.56c-0.08-0.18-0.21-0.34-0.37-0.46
							c-3.15-2.46-6.96-3.73-10.81-3.73c-2.46,0-4.93,0.52-7.26,1.57l-0.5,0.22c-1.41,0.56-2.88,0.84-4.34,0.84
							c-2.59,0-5.15-0.86-7.27-2.53c-0.24-0.19-0.52-0.28-0.8-0.28c-0.19,0-0.38,0.04-0.56,0.12c-0.18,0.08-0.34,0.21-0.46,0.37
							c-0.19,0.24-0.28,0.52-0.28,0.8c0,0.1,0.01,0.2,0.03,0.29C17.15,56.38,17.31,56.65,17.55,56.83z"/>
						<path fill="#B85957" d="M19.79,54.46c1.95,1.46,4.29,2.21,6.64,2.21c1.55,0,3.11-0.32,4.57-0.99l0.56-0.25
							c0.71-0.29,1.43-0.54,2.17-0.74c0.29-0.08,0.53-0.25,0.69-0.47c0.17-0.22,0.26-0.49,0.26-0.78c0-0.11-0.02-0.23-0.05-0.34l0,0
							c-0.08-0.29-0.25-0.53-0.47-0.69c-0.22-0.17-0.49-0.26-0.78-0.26c-0.11,0-0.23,0.02-0.34,0.05c-1.07,0.29-2.11,0.67-3.11,1.12
							l-0.37,0.17c-1.01,0.4-2.06,0.6-3.12,0.6c-1.8,0-3.59-0.57-5.09-1.69h0c-0.23-0.17-0.51-0.26-0.78-0.26
							c-0.2,0-0.39,0.04-0.57,0.13c-0.18,0.09-0.34,0.22-0.47,0.39c-0.17,0.23-0.26,0.51-0.26,0.78c0,0.1,0.01,0.2,0.03,0.29
							C19.37,54,19.54,54.27,19.79,54.46z"/>
						<polygon fill="#B85957" points="42.93,91.34 42.93,91.34 42.93,91.33 						"/>
						<path fill="#B85957" d="M57.99,79.61c0.9-2.39,1.35-4.87,1.35-7.35c0-2.92-0.62-5.84-1.86-8.58
							c-1.76-3.89-4.63-7.11-8.29-9.29c-3.25-1.93-6.91-2.94-10.66-2.94c-0.38,0-0.76,0.01-1.14,0.03
							c-0.34,0.02-0.66,0.17-0.87,0.41c-0.22,0.23-0.35,0.55-0.35,0.89c0,0.02,0,0.05,0,0.07l0-0.01l0,0.01c0,0,0,0,0,0
							c0.02,0.34,0.17,0.66,0.41,0.87c0.23,0.22,0.55,0.35,0.89,0.35c0.02,0,0.05,0,0.07,0c0.33-0.02,0.66-0.03,0.99-0.03
							c3.28,0,6.49,0.88,9.33,2.58c3.2,1.91,5.71,4.72,7.26,8.13c1.09,2.4,1.63,4.95,1.63,7.51c0,2.17-0.39,4.34-1.18,6.43
							c-1.72,4.56-5.1,8.16-9.53,10.17l0,0l-0.31,0.14c-0.65,0.29-1.32,0.57-1.99,0.83c-0.25,0.1-0.46,0.27-0.6,0.49
							c-0.14,0.21-0.22,0.46-0.22,0.72c0,0.1,0.01,0.19,0.03,0.29c0.01,0.06,0.03,0.12,0.06,0.18l0,0c0.1,0.25,0.27,0.46,0.49,0.6
							c0.21,0.14,0.46,0.22,0.72,0.22c0.16,0,0.32-0.03,0.47-0.09c0.82-0.32,1.63-0.67,2.42-1.02l0,0l0.87-0.4l0-0.02
							C52.6,88.46,56.15,84.5,57.99,79.61z"/>
						<path fill="#B85957" d="M41.35,93.16c0.16-0.22,0.25-0.49,0.25-0.77c0-0.12-0.02-0.25-0.05-0.37
							c-0.08-0.28-0.26-0.52-0.48-0.68c-0.22-0.16-0.49-0.25-0.77-0.25c-0.12,0-0.25,0.02-0.37,0.05c-4.38,1.3-8.9,1.96-13.46,1.96
							c-0.54,0-1.09-0.01-1.63-0.03c-0.02,0-0.03,0-0.05,0c-0.35,0-0.67,0.14-0.9,0.36c-0.23,0.22-0.38,0.54-0.4,0.89
							c0,0.02,0,0.03,0,0.05c0,0.1,0.01,0.2,0.03,0.29c0.06,0.28,0.22,0.53,0.43,0.7c0.21,0.18,0.49,0.29,0.79,0.3
							c0.58,0.02,1.15,0.03,1.73,0.03c4.81,0,9.58-0.69,14.2-2.07C40.95,93.55,41.19,93.38,41.35,93.16z"/>
						<polygon fill="#B85957" points="41.55,92.02 41.55,92.02 41.55,92.02 						"/>
						<polygon fill="#B85957" points="23.52,94.67 23.52,94.67 23.52,94.67 						"/>
						<path fill="#B85957" d="M22.12,52.01c0.1,0.14,0.24,0.27,0.4,0.36h0c1.2,0.69,2.56,1.04,3.91,1.04c1.1,0,2.2-0.23,3.22-0.69
							l0,0l0.36-0.17c2.72-1.17,5.6-1.76,8.48-1.76c2.55,0,5.11,0.46,7.58,1.39c5.37,2.02,9.62,6.01,11.99,11.24
							c0.99,2.2,1.61,4.51,1.83,6.89v0c0.03,0.34,0.19,0.63,0.42,0.84c0.23,0.21,0.54,0.34,0.87,0.34c0.04,0,0.08,0,0.12-0.01
							c0.34-0.03,0.63-0.19,0.84-0.42c0.21-0.23,0.34-0.54,0.34-0.87c0-0.04,0-0.08-0.01-0.12c-0.24-2.66-0.93-5.26-2.05-7.72
							c-2.65-5.85-7.43-10.33-13.44-12.6c-2.76-1.04-5.63-1.56-8.49-1.56c-3.38,0-6.75,0.72-9.92,2.16l0,0l-0.21,0.1
							c-0.62,0.25-1.28,0.37-1.94,0.37c-0.91,0-1.81-0.23-2.61-0.7c-0.2-0.12-0.43-0.17-0.65-0.17c-0.23,0-0.45,0.06-0.64,0.17
							c-0.2,0.11-0.37,0.28-0.49,0.48c-0.12,0.2-0.17,0.43-0.17,0.65c0,0.1,0.01,0.2,0.03,0.29C21.95,51.71,22.02,51.87,22.12,52.01
							z"/>
						<path fill="#B85957" d="M48.44,94.2l1.13-0.52l-0.01-0.03c7.32-3.78,12.24-11.1,12.94-19.38v0c0-0.04,0-0.07,0-0.11
							c0-0.33-0.13-0.65-0.34-0.88c-0.21-0.23-0.51-0.39-0.85-0.42h0c-0.04,0-0.07,0-0.11,0c-0.33,0-0.65,0.13-0.88,0.34
							c-0.23,0.21-0.39,0.51-0.42,0.85c-0.65,7.76-5.46,14.57-12.54,17.77l0,0l-0.41,0.19c-4.9,2.17-10.05,3.54-15.34,4.08
							c-0.33,0.03-0.63,0.19-0.83,0.42c-0.21,0.23-0.33,0.54-0.33,0.87c0,0.04,0,0.09,0.01,0.13v0c0.01,0.05,0.01,0.11,0.03,0.16
							c0.07,0.29,0.23,0.55,0.46,0.72c0.22,0.18,0.51,0.28,0.81,0.28c0.04,0,0.09,0,0.13-0.01C37.59,98.1,43.16,96.59,48.44,94.2
							L48.44,94.2z"/>
					</g>
				</g>
				<circle fill="none" stroke="#F5F5F5" stroke-width="0.75" stroke-miterlimit="10" cx="130.33" cy="53.35" r="2.47"/>
				
					<text transform="matrix(1 0 0 1 129.217 54.7382)" fill="#F5F5F5" font-family="'BahijTheSansArabic-Bold'" font-size="4.0229px">R</text>
			</g>
		</g>
	</g>
</g>
</svg>
