<?xml version="1.0" encoding="utf-8"?>
<!-- Generator: Adobe Illustrator 25.4.1, SVG Export Plug-In . SVG Version: 6.00 Build 0)  -->
<svg version="1.2" baseProfile="tiny-ps" id="Layer_1" xmlns="http://www.w3.org/2000/svg" xmlns:xlink="http://www.w3.org/1999/xlink" viewBox="0 0 500 500" xml:space="preserve">
<title>Dreamstime</title>
<rect fill-rule="evenodd" fill="#FFFFFF" width="500" height="500"/>
<g>
	<path fill-rule="evenodd" fill="#50A847" d="M364.2,217.1c-6.9-10.2-21.8-8.4-28.3-0.8c-3.3,3.8-4.5,9-4,13.8
		c0.3,3.7,1.8,7.2,3.6,9.5c5.1,6.2,14,6.9,19.8,2.9c8.2-5.7,7.6-14.9,3.2-20c-7.9-9.1-21.5-0.1-16.5,10.3c1.2,2.5,4.1,3.8,6.6,3.8
		c3.7,0,6.4-4.4,4.8-6.9c-1.7-2.7-4.6,0-3.4,2c1,1.6-1.1,2.5-2.1,2.3c-2.4-0.5-3.5-3.9-2.7-6.6c0.7-2.3,3.2-4,5.5-3.9
		c3.3,0.2,7,2.8,6.5,8.5c-0.7,9.2-12.8,11-17.6,4.3c-7.5-10.5,1.4-24.8,14.9-20.5c7,2.2,12.1,10.5,8.9,19.2
		c-1.2,3.3-1.9,4.5-2.1,5.6C360.9,244.9,374.2,231.9,364.2,217.1z"/>
	<path fill-rule="evenodd" fill="#777777" d="M453.8,263.1l-9.2,10c-1.3,1.3-2.7,1.8-4.4,0.9c-1.5-1-2.2-2.5-2.1-4.2
		c0.2-1,0.6-1.8,1.3-2.5c2.2-2.5,4.4-5,6.6-7.4c-2.4-0.3-4.2-0.7-6.5-0.2c-4.6,1.4-7.3,5.8-7.3,10.5c0,4.8,2.9,9.5,7.7,10.7
		c0.3,0.1,0.6,0.1,0.9,0.1c2.6,0.2,5.2,0,7.8,0.1c3,0.4,3.7,3.3,3,5.9c-0.7,1.7-1.7,2.4-3.5,2.5c-2.1,0-4.2,0-6.3,0
		c-3.6,0-6.7-1-9.6-3.1c-3-2.4-5-5.1-6.3-8.6c-1.6-4.6-1.6-9.4-0.3-14.1c1.6-4.7,4.4-8.4,8.7-10.8l0.8-0.4c3.6-1.5,7.2-1.8,11.1-0.8
		c1.7,0.5,3.1,1.2,4.6,2.2c1.4,1.1,2.9,2.3,3.9,3.8C456,259.6,455.5,261.5,453.8,263.1z"/>
	<path fill-rule="evenodd" fill="#777777" d="M352.3,285c-0.1,1.9-0.7,3.3-2.6,4c-1.1,0.3-2.1,0.2-3.1-0.3c-1.4-0.9-1.8-2.1-1.8-3.7
		V255c0.1-1.7,0.5-3.1,2.2-3.9c1.4-0.5,2.7-0.3,4,0.3c1.2,1,1.3,2.1,1.4,3.6V285z"/>
	<path fill-rule="evenodd" fill="#777777" d="M332.9,273.1c0,0.8-0.1,1.7-0.1,2.5c-0.8,5.8-4.2,10.9-9.9,12.9
		c-3.8,1.1-7.6,0.8-11.2-1.1c-3.1-2-5.1-4.6-6.4-8c-0.7-2.1-1-4.1-1-6.3c0-9.2,0-18.3,0-27.5c0.1-1.9,0.7-3.4,2.5-4.1
		c2.5-0.6,4.4,0.6,4.9,3.1c0.2,2.1,0.1,4.3,0.1,6.4h17.4c2.3,0.1,3.5,1.4,3.7,3.7c0,1.2-0.1,2.1-0.5,3.2c-0.9,1.3-1.7,1.4-3.2,1.5
		h-17.4v13.7c0.1,2.2,0.6,3.7,2,5.4l0.5,0.5c2.7,2.3,6,2.3,8.7,0c1.7-1.7,2.4-3.5,2.4-5.9c0-1.5,0.1-2.5,1.1-3.7
		c1.2-1.2,2.6-1.5,4.2-0.9C332.6,269.5,332.9,271.1,332.9,273.1z"/>
	<path fill-rule="evenodd" fill="#777777" d="M284.6,261.1c-0.9,1.2-1.3,2.1-1.5,3.6c-0.1,3.3,0,6.6,0,9.8c0,1.5-0.2,2.9-0.6,4.3
		c-1.3,4.4-4.2,8-8.5,9.6c-1.6,0.5-6.7,0.8-8.3,0.4c-2.6-1-3.1-4.2-1.9-6.4c0.8-1.3,1.7-1.7,3.2-1.8c1.1,0,5.3-0.3,6.1-0.9
		c1.3-0.8,2.1-2.3,2.5-4l0.1-0.6c0.1-3.3,0-6.6,0-9.9c0-1,0.1-2,0.2-3c1-5,3.9-9.2,8.8-10.9c1.6-0.5,7-0.8,8.6-0.4
		c2.5,0.9,3.1,3.7,2.2,6c-0.6,1.2-1.5,1.8-2.9,2.1C290.7,259.4,286,259.7,284.6,261.1z"/>
	<path fill-rule="evenodd" fill="#777777" d="M247.1,266.8c-0.1-2.9-1.2-5-3.6-6.7c-2.1-1.1-4-1.1-6.2-0.1c-0.7,0.5-1.3,0.9-1.9,1.5
		l-0.7,1V285c-0.1,1.9-0.7,3.3-2.6,4c-1.1,0.3-2.1,0.2-3.1-0.3c-1.4-0.9-1.8-2.1-1.8-3.7v-18.2c-0.1-3.1-1.5-5.5-4.3-7
		c-1.9-0.7-3.4-0.7-5.2,0c-2.3,1.2-3.5,3-4.1,5.5c-0.1,0.5-0.1,1-0.1,1.5c0,6,0,12.1,0,18.1c0,2.9-2,4.7-4.9,4
		c-1.9-0.7-2.5-2.1-2.6-4c0-6,0-12.1,0-18.1c0-1.4,0.2-2.7,0.4-4.1c1.2-5,4.2-9,9-11.1c3.8-1.3,7.5-1.2,11,0.6
		c1.5,0.8,2.6,1.8,3.9,2.9c0.6-0.5,1.1-1,1.7-1.5c3.8-2.9,8-3.6,12.6-2.2c2.4,0.9,4.1,2.1,5.9,4c0.8,1,1.5,2,2.2,3.1
		c1.3,2.6,1.9,5.4,1.9,8.3c0,6.4,0,12.8,0,19.2c-0.1,1.6-0.4,2.3-1.7,3.3c-1.5,0.7-2.6,0.7-4.1,0c-1.3-1-1.5-1.8-1.7-3.3V266.8z"/>
	<path fill-rule="evenodd" fill="#777777" d="M176.8,289.3l-0.9,0c-4-0.3-7-1.6-10-4.2l-0.6-0.6c-2.9-3.1-4.5-6.3-5.3-10.5
		c-0.6-4-0.3-7.6,0.9-11.4l0.3-0.8c1.7-3.7,4-6.5,7.4-8.7l0.7-0.4c4.1-2,8.3-2.2,12.6-1l0.8,0.3c4.6,1.9,7.7,5.4,9.7,9.8
		c1.1,2.7,1.6,5.4,1.6,8.4c0,5,0,10,0,15c-0.1,1.9-0.7,3.3-2.6,4c-1.1,0.3-2.1,0.2-3.1-0.3c-1.4-0.9-1.8-2.1-1.8-3.8c0-5,0-10,0-15
		c0-4.1-2-7.8-5.6-9.8c-2.4-1.2-4.9-1.3-7.4-0.4c-3.8,1.6-5.9,5.1-6.3,9.1c-0.2,3,0.4,5.5,2.1,8c1.7,2.2,3.7,3.6,6.5,4
		c1.4,0.1,2.3,0,3.5,0.9c1.3,1.3,1.5,2.9,1.1,4.6C179.9,288.3,178.7,289.2,176.8,289.3z"/>
	<path fill-rule="evenodd" fill="#777777" d="M146,263.1l-9.2,10c-1.3,1.3-2.6,1.8-4.4,0.9c-1.6-1.1-2.3-2.7-2-4.6
		c0.2-0.9,0.6-1.5,1.2-2.2c2.2-2.5,4.4-5,6.6-7.4c-2.4-0.3-4.2-0.7-6.5-0.2c-2.8,0.9-4.8,2.8-6.2,5.4c-1.8,3.9-1.4,8.4,1.1,12
		c1.3,1.7,2.7,2.8,4.7,3.6c3.3,1,14,0.1,17.3,0.5c2.6,0.6,3.2,3.1,2.7,5.4c-0.5,1.9-1.6,2.8-3.6,2.9c-2.1,0-11.5,0-13.6,0
		c-1.2,0-2.3-0.1-3.5-0.3c-4.9-1.2-8.2-4-10.9-8.2l-0.4-0.8c-2.7-5.5-3-11.7-1.1-17.5l0.3-0.8c1.7-3.7,4-6.5,7.4-8.7l0.7-0.4
		c4.1-2,8.3-2.2,12.6-0.9c2,0.7,3.6,1.7,5.2,3c2.1,1.9,4,3.7,2.7,6.7C147,262.1,146.6,262.6,146,263.1z"/>
	<path fill-rule="evenodd" fill="#777777" d="M97.3,266.8V285c-0.1,1.9-0.7,3.3-2.6,4c-1.1,0.3-2.1,0.2-3.1-0.3
		c-1.4-0.9-1.8-2.1-1.8-3.7c0-6,0-12.1,0-18.1c0-1.4,0.2-2.7,0.4-4.1c1.2-5,4.2-9,9-11.1c1.8-0.6,3.5-0.9,5.4-0.9
		c2.2,0.3,3.2,2,3.3,4.1c-0.1,1.5-0.2,2.4-1.4,3.4c-1.1,0.6-2,0.7-3.2,0.9c-2.4,0.6-4,1.7-5.2,3.9C97.6,264.5,97.4,265.5,97.3,266.8
		z"/>
	<path fill-rule="evenodd" fill="#777777" d="M61.6,259.1c-0.3,0-0.6,0-0.9,0c-5,0.7-8.1,4.9-8.6,9.7c-0.1,1.1,0,2.1,0.1,3.2
		c0.9,4.4,3.9,8,8.5,8.6c1.4,0.1,2.5,0,3.8-0.4c4.4-1.6,6.9-5.8,6.9-10.3c0-10.4,0-20.9,0-31.3c0.1-1.9,0.7-3.3,2.6-4
		c2.5-0.6,4.4,0.6,4.9,3.1c0,0.3,0.1,0.6,0.1,1c0,10.4,0,20.9,0,31.3c0,1.9-0.2,3.8-0.7,5.7c-1.5,5.3-4.9,9.6-9.8,12.1l-0.8,0.3
		c-3.7,1.3-7.3,1.4-11,0.3l-0.8-0.3c-4-1.7-6.8-4.5-8.9-8.2l-0.4-0.8c-2.4-5.3-2.5-11.1-0.7-16.6l0.3-0.8c1.7-3.7,4-6.5,7.4-8.7
		c2.7-1.5,5.5-2.3,8.6-2.1c2.9,0.4,3.7,3,3.2,5.6C64.7,258.1,63.5,259,61.6,259.1z"/>
	<path fill-rule="evenodd" fill="#777777" d="M405.4,266.8c-0.1-3.1-1.4-5.5-4.2-7c-2.3-0.9-4.2-0.7-6.3,0.6
		c-0.8,0.7-1.3,1.3-1.9,2.1V285c-0.1,1.9-0.7,3.3-2.6,4c-1.1,0.3-2.1,0.2-3.1-0.3c-1.4-0.9-1.8-2.1-1.8-3.7v-18.2
		c-0.1-2.9-1.2-5.1-3.7-6.7c-2-1.1-3.8-1.1-5.8-0.3c-2.3,1.2-3.5,3-4.1,5.5c-0.1,0.5-0.1,1-0.1,1.5c0,6,0,12.1,0,18.1
		c0,2.9-2,4.7-4.9,4c-1.9-0.7-2.5-2.1-2.6-4c0-6,0-12.1,0-18.1c0-1.4,0.2-2.7,0.4-4.1c1.2-5,4.2-9,9-11.1c3.8-1.3,7.5-1.2,11,0.6
		c1.5,0.8,2.6,1.8,3.9,2.9l1.2-1.1c3.7-3,7.7-4,12.4-2.9l0.7,0.2c4.1,1.5,6.9,4.4,8.7,8.4c0.9,2.3,1.3,4.5,1.3,7
		c0,6.4,0,12.8,0,19.2c-0.1,1.6-0.4,2.3-1.7,3.3c-1.7,0.8-3.2,0.8-4.7-0.4c-0.9-1-1-1.6-1.1-2.9V266.8z"/>
</g>
</svg>
