<?xml version="1.0" encoding="UTF-8" standalone="yes"?>
<svg width="1000" height="1000" baseProfile="tiny-ps" version="1.2" viewBox="0 0 1000 1000" xmlns="http://www.w3.org/2000/svg">
  <title>Compassion International</title>
  <g>
    <g id="Layer_1">
      <g>
        <rect y="0" width="1000" height="1000" fill="#2a5eec"/>
        <path d="M356.4,217.4c-6.2,8.5-10.7,17.8-12.9,28.1-3.1,10.2-3.1,20.9-.4,32,2.2,10.7,7.1,20.5,13.3,29.4,6.7,8.9,14.7,15.6,24.9,21.8,9.8,5.8,20,9.3,31.6,12,12,2.2,23.6,2.2,36.1.5,11.6-2.7,22.7-6.2,32.9-12.5,9.3-5.8,17.8-12.9,24.5-21.8,6.7-8.5,10.7-18.3,12.9-28,2.7-10.2,3.1-20.9.5-31.6-2.2-11.1-6.7-20.9-13.4-29.8-6.7-8.4-15.1-15.6-24.9-21.8-9.8-5.8-20-9.8-31.6-12.5-12-2.2-24-2.2-36,0-12,1.8-22.7,6.2-32.9,12-9.8,5.8-17.8,13.4-24.5,22.2M351.5,512l-12.9,19.1c9.8-8.5,28-19.6,53.9-33.4,17.3-9.4,59.6-31.6,126.8-65.9,50.7-26.3,92.6-65.4,125.1-117.5,10.7-16.9,20-34.3,27.6-52.5,4.5-10.7,8-20,10.2-27.6.9-3.1,1.3-8.9,1.3-16,.5-8,0-16-.9-22.3-.9-8-2.2-13.3-4.5-16-2.7-2.7-5.8-1.3-8.9,4-23.6,32.5-51.6,63.2-84.5,91.2-35.2,29.4-73.9,54.7-116.6,76.5-53.4,26.3-97,53.9-131.3,82.3-33.8,27.6-65,61.9-93.9,102.4-3.6,5.3-6.7,12.5-9.3,22.3,4.5-3.1,9.8-4,16.5-3.1l-10.2,20.5,16.5-13.3c5.3-4.5,10.2-7.6,15.1-8.9l-4,14.2c10.7-10.7,24.9-20.9,41.4-31.6l-5.8,14.2c7.6-7.6,15.1-14.2,22.7-19.6l25.8-19.1h0ZM476.2,468.4c-17.8,10.2-33.9,21.4-48.1,33.8-26.3,22.7-48.1,51.6-65.4,86.3-17.4,31.6-30.7,71.2-41.4,118.8-4.9,22.7-8,44.1-8.9,64.5l11.6-16c-3.6,21.3-5.8,44.9-6.2,70.3,5.3-9.4,8.9-15.6,11.6-19.1l-1.3,61.4,25.4-61.4c1.8,5.3,3.1,11.1,4.9,17.8,15.6-36,28.9-65.9,40.9-89.4,12-25.4,24.5-47.6,36.5-66.7,11.6-19.1,24.9-37.8,39.2-55.6,12.9-16,29.4-35.1,49.4-56.1,3.6-4.9,24.5-14.2,25.8-14.7,8.9-3.1,20-6.7,34.3-10.2,6.7-1.8,22.7-5.3,47.2-11.6,21.3-4.9,38.7-9.8,52.1-12.9,41.4-11.6,73-24,95.7-37.4,28.9-17.8,45.8-38.3,49.8-62.3-28,6.2-56.1,10.2-85,12-15.6.9-38.7,1.3-70.3,1.3s-48.9.4-64.1,2.2c-23.1,2.7-45.8,7.1-67.7,15.1-24.5,8.5-46.3,18.3-65.8,29.8" fill="#fff"/>
      </g>
    </g>
  </g>
</svg>