<?xml version="1.0" encoding="utf-8" standalone="yes"?>
<!-- Generator: Adobe Illustrator 27.4.1, SVG Export Plug-In . SVG Version: 6.00 Build 0)  -->

<svg xmlns="http://www.w3.org/2000/svg" xmlns:xlink="http://www.w3.org/1999/xlink" version="1.2" baseProfile="tiny-ps" viewBox="0 0 409 409" xml:space="preserve">
<title>Logo SAQ BIMI</title>
<rect fill="#FFFFFF" width="409" height="409"></rect>
<g>
<path fill="#7E003F" d="M238.93,361.29c-2.11,0-3.85-0.51-5.22-1.53c-1.38-1.02-2.53-2.54-3.43-4.58l-1.06-2.33l-1.37-3.37   l-24.57-58.85H176.9l2.96,6.85l-25,57.8c-1.69,4.08-4.64,6.12-8.86,6.12l-2.22-0.1v5.28c1.9-0.28,3.45-0.46,4.65-0.53   c3.72-0.36,7.1-0.53,10.12-0.53c3.16,0,6.58,0.18,10.23,0.53c1.19,0.06,2.71,0.24,4.53,0.53v-5.28c-0.63,0.14-1.58,0.22-2.84,0.22   c-5.49,0-8.23-1.83-8.23-5.48c0-1.62,0.55-3.77,1.69-6.44l4.85-11.29h27.21l4.54,10.97l0.53,1.16l0.95,2.74   c0.35,1.06,0.53,1.94,0.53,2.63c0,1.77-0.74,3.13-2.22,4.13c-1.48,0.98-3.66,1.46-6.54,1.46c-0.56,0.07-1.34,0.04-2.32-0.1v5.28   c1.06-0.07,2.76-0.24,5.12-0.48c2.36-0.25,4.9-0.37,7.65-0.37c1.47,0,3.65-0.04,6.54-0.11c2.89-0.06,5.03-0.1,6.43-0.1   c8.37,0,16.21,0.35,23.53,1.06v-5.28H238.93z M171,333.66l11.5-28.16l11.29,28.16H171z"></path>
<path fill="#7E003F" d="M301.56,365c4.42-1.95,8.38-4.64,11.89-8.06c7.78-7.56,11.65-17.06,11.65-28.52   c0-9.79-3.26-18.34-9.79-25.61c-6.54-7.27-15.35-11.88-26.43-13.82c-3.25-0.57-6.35-0.87-9.32-0.87c-1.9,0-3.81,0.11-5.71,0.32   c-1.91,0.22-3.71,0.51-5.4,0.87c-11.37,2.37-20.01,6.91-25.96,13.61c-5.93,6.7-8.89,15.19-8.89,25.49   c0,12.38,4.33,22.22,12.98,29.49c8.65,7.27,20.38,10.91,35.21,10.91c1.79,0,3.54-0.07,5.24-0.22c0.18-0.02,0.36-0.03,0.55-0.06   l0.32-0.03l2.15,2.34l2.42,2.58l2.62,0.44l17.04-3.14l-1.5-1.6l-0.47,0.1c-0.49,0.14-1.03,0.22-1.62,0.25   c-2.32,0.11-4.49-0.93-6.54-3.11l-1.01-1.08l0.25-0.15C301.34,365.09,301.45,365.04,301.56,365z M293.43,355.86   c-0.09,0.16-0.18,0.31-0.28,0.47l-0.25,0.35l-3.84-4.08l-2.55-0.45c-4.4,1.43-6.14,2.69-11.51,3.43l-2.19,0.34l1.18,1.25l0.06,0.04   c1.58,0.14,2.22,0.55,3.12,0.86c0.9,0.32,1.9,1.09,3.03,2.28l2.48,2.6l-0.37,0.11c0,0-0.21,0-0.33,0.01   c-0.2,0.01-0.41,0.02-0.62,0.02c-6.85,0-12.15-3.52-15.89-10.59c-3.11-5.9-4.66-13.14-4.66-21.71c0-9.94,1.15-18.12,3.49-24.52   c3.03-8.37,7.77-12.54,14.2-12.54c6.21,0,11.19,3.67,14.93,11.02c3.25,6.34,4.87,13.76,4.87,22.25   C298.31,340.56,296.69,350.17,293.43,355.86z"></path>
<path fill="#7E003F" d="M144.76,341.72c-0.5-5.25-2.24-9.57-5.22-12.95c-2.99-3.37-8.73-7.48-17.25-12.3   c-1.82-1.04-6.77-3.96-7.91-4.69c-1.15-0.72-4.61-3.05-5.91-4.37c-1.68-1.71-2.53-3.58-2.53-5.65c0-2.84,1.32-4.91,3.9-6.28   c1.49-0.8,3.34-1.1,5.3-1.17c1.8-0.07,3.24,0.18,4.83,0.52c7.67,1.65,12.9,6.3,15.72,14.07c0.23,0.62,0.35,1.04,0.53,2.03   c1.11,0,4.75,0,4.75,0l-1.68-21.2h-4.44c0.36,1.78-0.66,2.66-3.05,2.66c-0.85,0-2.84-0.45-4.11-0.85   c-6.42-1.98-10.98-2.67-16.13-2.67c-3.73,0-7,0.39-9.82,1.17c-2.81,0.78-5.31,1.89-7.49,3.3c-3.02,2.06-5.31,4.66-6.86,7.78   c-1.55,3.13-2.32,6.47-2.32,10.02c0,2.42,0.42,4.84,1.26,7.3c0.85,2.45,2.08,4.63,3.7,6.54c1.19,1.49,2.71,2.96,4.54,4.42   c1.82,1.45,4.61,3.35,8.33,5.7c2.24,1.42,9.29,5.4,10.55,6.19c2.6,1.61,4.65,3.35,6.16,5.16c1.52,1.82,2.28,3.92,2.28,6.34   c0,1.49-0.35,2.99-1.06,4.48c-0.7,1.49-1.65,2.67-2.85,3.51c-1.97,1.42-4.47,2.12-7.49,2.12c-1.88,0-3.7-0.27-4.33-0.42   c-8.15-1.35-13.64-6.68-16.45-15.98l-0.63-2.13H83.9l3.06,23.02h4.64c0.04-2.06,3.26-1.93,4.72-1.62c0.57,0.13,1.36,0.32,1.69,0.42   c1.22,0.29,24.61,7.24,38.68-4.6c5.44-4.59,8.17-10.47,8.17-17.63C144.86,342.97,144.83,342.21,144.76,341.72z"></path>
</g>
<g>
<rect x="91.5" y="34.95" fill="#7E003F" width="226" height="226"></rect>
<g>
<rect x="165.71" y="217.52" fill="#FFFFFF" width="77.3" height="15.47"></rect>
<polygon fill="#FFFFFF" points="273.96,202.1 212.13,202.1 212.13,171.16 243.07,171.16 243.07,93.8 165.71,93.8 165.71,171.16     196.65,171.16 196.65,202.1 134.82,202.1 134.82,62.91 273.96,62.91   "></polygon>
</g>
</g>
</svg>