<?xml version="1.0" encoding="utf-8"?>
<!-- Generator: Adobe Illustrator 16.0.0, SVG Export Plug-In . SVG Version: 6.00 Build 0)  -->
<svg version="1.2" baseProfile="tiny-ps" id="Layer_1" xmlns="http://www.w3.org/2000/svg" xmlns:xlink="http://www.w3.org/1999/xlink"
	 width="128px" height="128px" viewBox="0 0 128 128" xml:space="preserve">
    <title>Spocket</title>
<path id="Rectangle_4083" fill="#784DDD" d="M129-0.47H-0.82V128.48H129V-0.47z"/>
<path id="Vector" fill="#FFFFFF" d="M19.908,71.992c-2.45,0-4.718-1.197-5.533-3.142l2.902-1.046
	c0.544,1.077,1.542,1.555,2.601,1.555c1.18,0,2.025-0.598,2.025-1.555c0-0.959-0.998-1.287-2.69-1.855
	c-2.269-0.779-4.234-1.825-4.234-4.369c0-2.782,2.359-4.189,4.989-4.189c1.997,0,3.811,0.897,4.658,2.483l-2.661,1.287
	c-0.21-0.374-0.517-0.684-0.889-0.9c-0.373-0.216-0.796-0.329-1.228-0.328c-0.937,0-1.723,0.45-1.723,1.437
	c0,0.988,0.817,1.257,2.57,1.854c2.026,0.659,4.476,1.616,4.476,4.429C25.17,70.615,22.479,71.992,19.908,71.992L19.908,71.992z
	 M35.624,57.391c3.811,0,7.016,3.231,7.016,7.3c0,4.069-3.205,7.302-7.015,7.302c-1.937,0-3.508-0.689-4.658-1.826v8.587H27.58
	V57.661h3.387v1.556C32.116,58.08,33.689,57.392,35.624,57.391L35.624,57.391z M35.05,68.909c2.359,0,4.233-1.854,4.233-4.219
	c0-2.363-1.874-4.219-4.233-4.219c-2.389,0-4.295,1.854-4.295,4.219S32.661,68.909,35.05,68.909L35.05,68.909z M51.884,71.992
	c-4.264,0-7.53-3.233-7.53-7.302s3.266-7.3,7.53-7.3c4.204,0,7.469,3.231,7.469,7.3C59.354,68.76,56.087,71.992,51.884,71.992
	L51.884,71.992z M51.884,68.879c2.298,0,4.204-1.854,4.204-4.188c0.003-1.107-0.438-2.17-1.226-2.955
	c-0.788-0.786-1.859-1.229-2.978-1.233c-2.389,0-4.264,1.854-4.264,4.188C47.62,67.025,49.494,68.879,51.884,68.879L51.884,68.879z
	 M68.598,71.992c-4.265,0-7.53-3.233-7.53-7.302s3.267-7.3,7.53-7.3c3.054,0,5.654,1.735,6.773,4.338l-2.902,1.257
	c-0.665-1.496-2.087-2.514-3.871-2.514c-2.45,0-4.265,1.826-4.265,4.219c0,2.394,1.814,4.219,4.265,4.219
	c1.785,0,3.206-1.017,3.871-2.513l2.902,1.256C74.252,70.256,71.651,71.992,68.598,71.992L68.598,71.992z M90.785,57.661
	l-6.563,7.03l6.563,7.032H86.43l-5.321-5.984v5.984h-3.388v-22.44h3.388v14.362l5.321-5.984H90.785z M105.775,64.543l-0.03,0.718
	H94.254c0.241,2.394,2.025,3.979,4.264,3.979c1.571,0,2.994-0.778,3.811-2.125l2.722,1.107c-1.18,2.333-3.569,3.77-6.503,3.77
	c-4.443,0-7.59-3.232-7.59-7.301s3.205-7.3,7.5-7.3C102.539,57.392,105.715,60.324,105.775,64.543L105.775,64.543z M98.487,60.084
	c-1.937,0-3.419,1.107-3.992,2.842h7.802C101.723,61.192,100.393,60.084,98.487,60.084L98.487,60.084z M115.412,57.661v2.753h-2.811
	v11.31h-3.389v-11.31h-2.843v-2.753h2.843v-5.057h3.387v5.057H115.412L115.412,57.661z"/>
</svg>
