<?xml version="1.0" encoding="utf-8"?> <!-- Generator: Adobe Illustrator 27.2.0, SVG Export Plug-In . SVG Version: 6.00 Build 0)  --> <svg version="1.2" baseProfile="tiny-ps" id="Layer_1" xmlns="http://www.w3.org/2000/svg" xmlns:xlink="http://www.w3.org/1999/xlink" viewBox="0 0 113.4 113.4" xml:space="preserve"> <title>IIZI</title> <g> <polygon fill="#EC008C" points="84,28.1 18.8,28.1 35.1,44.4 35.1,77 67.7,77 84,93.3 	"/>	<path fill="#FFFFFF" d="M43.6,41.7c1.5,0,2.7,1.2,2.7,2.7c0,1.5-1.2,2.7-2.7,2.7c-1.5,0-2.7-1.3-2.7-2.7 C40.9,42.9,42.1,41.7,43.6,41.7z"/><rect x="41.2" y="48.5" fill="#FFFFFF" width="4.9" height="14.3"/>	<path fill="#FFFFFF" d="M51.5,41.7c1.5,0,2.7,1.2,2.7,2.7c0,1.5-1.2,2.7-2.7,2.7c-1.5,0-2.7-1.3-2.7-2.7 		C48.8,42.9,50,41.7,51.5,41.7z"/> <rect x="49" y="48.5" fill="#FFFFFF" width="4.9" height="14.3"/><path fill="#FFFFFF" d="M56,62.7L63.1,52h-6.2v-3.6h13.8L63.3,59h6.7v3.8H56z"/><path fill="#FFFFFF" d="M75.4,41.7c1.5,0,2.7,1.2,2.7,2.7c0,1.5-1.2,2.7-2.7,2.7c-1.5,0-2.7-1.3-2.7-2.7 C72.7,42.9,73.9,41.7,75.4,41.7z"/>	<rect x="73" y="48.5" fill="#FFFFFF" width="4.9" height="14.3"/> </g> </svg>