<?xml version="1.0" encoding="UTF-8"?>
<svg xmlns="http://www.w3.org/2000/svg" width="320" height="320" viewBox="0 0 320 320" fill="none" version="1.2" baseProfile="tiny-ps">
<title>Canary</title>
<rect width="320" height="320" fill="#4BACC5"></rect>
<path fill-rule="evenodd" d="M168.606 132.283C172.967 134.114 176.94 136.812 180.33 140.088C183.722 143.46 186.338 147.41 188.18 151.747C190.117 156.275 191.086 161.093 191.086 166.006C191.086 170.921 190.117 175.739 188.18 180.267C187.405 182.001 186.532 183.735 185.466 185.374C183.819 187.397 182.56 189.035 181.978 189.806C178.78 193.564 174.904 196.55 170.447 198.767C165.99 200.983 161.242 202.235 156.3 202.525C151.552 202.814 146.804 202.235 142.25 200.694C137.696 199.152 133.529 196.839 129.944 193.756C128.006 192.118 126.165 190.191 124.615 188.168L116.282 196.454C126.262 208.595 141.572 215.05 157.075 214.087V214.183C182.56 212.641 202.811 191.54 202.811 165.814C202.811 145.869 190.698 128.718 173.257 121.299C173.16 121.299 173.063 121.203 172.967 121.203C169.575 119.757 165.893 118.697 162.114 118.023L64.2476 215.339L52.7168 226.806H71.7087L167.153 131.898C168.122 132.09 168.606 132.283 168.606 132.283ZM218.509 79C203.296 79 190.601 88.4426 181.009 99.0414C177.715 102.703 171.901 109.158 171.901 109.158C173.645 109.737 175.389 110.315 177.133 111.085C184.303 114.072 190.795 118.505 196.416 123.997C202.036 129.489 206.299 135.945 209.4 143.171C212.598 150.59 214.148 158.491 214.148 166.585C214.148 174.679 212.598 182.58 209.4 189.998C206.396 197.128 201.939 203.584 196.416 209.172C190.892 214.665 184.4 219.001 177.133 222.084C169.672 225.263 161.727 226.805 153.587 226.805C145.448 226.805 137.502 225.263 130.041 222.084C122.87 219.097 116.378 214.665 110.758 209.172C109.596 208.017 108.433 206.764 107.367 205.415L97.8709 214.858C111.437 230.274 131.398 240.102 153.587 240.102C194.478 240.102 227.52 207.149 227.52 166.585C227.52 165.236 227.617 161.671 227.617 160.9C227.617 137.197 238.857 115.325 255.814 101.161C248.74 87.9608 234.69 79 218.509 79ZM219.187 132.283C215.698 125.731 211.338 119.757 206.008 114.458C202.424 110.893 198.548 107.81 194.478 105.112C196.125 102.703 198.16 100.487 200.485 98.656C205.621 94.6092 211.919 92.393 218.509 92.393C225.872 92.393 232.752 95.0909 237.985 99.9086C229.458 109.255 223.063 120.335 219.187 132.283Z" fill="white"></path></svg>
