<?xml version="1.0"?><svg version="1.2" baseProfile="tiny-ps" viewBox="0 0 300 300" xmlns="http://www.w3.org/2000/svg" xmlns:xlink="http://www.w3.org/1999/xlink"><title>Ezulix software pvt ltd</title><g><g fill="#fdffff" transform="matrix(.1 0 0 -.1 0 300)"><path d="M0 1500V0h3000v3000H0V1500z"/></g><g fill="#bfe1f2" transform="matrix(.1 0 0 -.1 0 300)"><path d="M390 1500v-280h351l-3 63-3 62-137 3-138 3v65l75 74c41 41 75 78 75 82v8H470v70h271l-3 63-3 62-172 3-173 2v-280zm1578 258-38-10v-484l16-22 15-22h57l23 20 24 20-11 7c-6 5-16 18-23 30l-11 22v451l-7-1c-5-1-25-6-45-11zm154-24-22-15v-46l18-16 19-17h42l15 22c21 30 20 44-4 68s-38 25-68 4zM927 1605c-50-17-85-50-108-100l-19-40v-106l14-32 13-32 36-32 37-32 36-7 36-7 55 6 55 6 24 15 24 16-17 35-16 34-28-15-28-14h-72l-28 15c-28 14-41 33-41 61v14h270v101l-15 28c-20 39-69 78-113 91-48 13-68 12-115-5zm124-91c9-8 19-24 22-35l5-19H900v8c0 15 33 54 54 62l21 9 29-4c16-3 37-12 47-21zm479-44v-141l14-32c7-18 23-41 35-51l21-19 48-5 48-4 37 15 37 16v-19h100v380h-145l25-13c32-16 50-52 50-99v-38h-90v9c0 6 5 13 10 16l10 6v58l-10 6c-5 3-10 17-10 31v24h-20v-24c0-14-4-28-10-31l-10-6v-65l12-12 12-12h-94v86l16 22c9 13 26 27 38 32l21 9h-72l-73 1v-140zm180 50v-30h-10c-6 0-13 7-16 15-8 19 2 45 16 45h10v-30zm90-110c0-16-5-40-11-53l-11-25-25-11c-33-15-79-14-112 4l-28 14-7 23c-3 13-6 35-6 51v27h200v-30zm-630 150v-40h200l-100-133-100-134v-33h340v80h-95c-52 0-95 2-95 5s43 64 95 136c52 71 95 136 95 144v15h-340v-40zm890 0v-40h50v-300h90v380h-140v-40zm167 28c6-7 36-48 67-91l57-77-7-13c-4-6-33-46-64-87s-60-81-64-87l-7-13h110l42 60c23 33 44 58 48 56 3-2 24-29 46-60l40-56h53c28 0 52 3 52 7 0 3-31 48-69 98l-69 92 64 87c35 47 64 88 64 91s-22 5-50 5h-49l-42-55-42-55-40 55-41 55h-108l9-12zm-1554-97c-35-32-63-61-63-65 0-3 29-6 65-6h65v65c0 36-1 65-2 65-2-1-31-27-65-59z"/></g><g fill="#fbc393" transform="matrix(.1 0 0 -.1 0 300)"><path d="M390 1500v-280h351l-3 63-3 62-137 3-138 3v65l75 74c41 41 75 78 75 82v8H470v70h271l-3 63-3 62-172 3-173 2v-280zm1583 256-43-9v-466l12-25 11-26 19-5c20-7 56 2 76 18l13 10-18 19-18 20-5 237-5 236-42-9zm137-36-11-21 6-19c4-11 16-25 27-31l21-11 23 11 24 11v56l-12 12-12 12h-55l-11-20zM895 1586l-40-24-23-40-22-40-6-44-6-43 12-44 12-45 32-32 32-32 44-12 44-12 49 6c52 7 97 24 97 37 0 4-5 20-12 34l-12 26-15-8c-9-4-41-9-72-11l-56-4-26 24c-14 13-28 33-32 46l-6 22h271l6 25 6 25-6 34c-4 19-17 48-29 66l-22 33-35 18-35 19H935l-40-24zm167-76c10-12 18-28 18-36v-14H900v13c1 16 20 41 45 55l20 12 40-4 40-5 17-21zm472 85c-4-8-5-78-2-155l3-139 21-28 21-28 34-12 34-13 39 5c21 3 51 12 67 21l29 15v-31h80v380h-113l27-25 26-24v-111h-92l7 23c13 39 2 137-16 137h-9v-24c0-14-4-28-10-31l-10-6v-58l10-6c6-3 10-13 10-21v-14h-90v111l26 24 27 25h-114l-5-15zm181-76v-24l-17-3-18-3v24c0 27 9 39 24 34l11-4v-24zm85-119v-41l-25-24-24-25h-102l-24 25-25 24v81h200v-40zm-620 160v-39l96-3 96-3-101-132-101-132v-31l168 2 167 3 3 37 3 37-99 3-100 3 94 129 94 128v38h-320v-40zm880 5v-35h50v-311l43 3 42 3 3 188 2 187h-140v-35zm170 28c0-3 25-39 55-80 31-40 58-80 61-88l6-15-66-89c-36-48-66-91-66-95 0-3 21-6 48-6l47 1 43 59c24 33 47 60 50 60 4 0 27-27 50-60l44-60h49c27 0 49 2 49 5s-32 48-71 99l-70 94 65 89 65 88-47 3-47 3-25-32c-14-18-34-44-45-57l-20-24-40 56-40 56h-47c-27 0-48-3-48-7zM673 1491c-35-32-63-61-63-65 0-3 29-6 65-6h65v65c0 36-1 65-2 65-2-1-31-27-65-59z"/></g><g fill="#7dc3e4" transform="matrix(.1 0 0 -.1 0 300)"><path d="M400 1500v-270h330v110H460v85l72 72 72 73H470v90h260v110H400v-270zm1573 256-43-9v-466l12-25 11-26 19-5c20-7 56 2 76 18l13 10-18 19-18 20-5 237-5 236-42-9zm137-36-11-21 6-19c4-11 16-25 27-31l21-11 23 11 24 11v56l-12 12-12 12h-55l-11-20zM895 1586l-40-24-23-40-22-40-6-44-6-43 12-44 12-45 32-32 32-32 44-12 44-12 49 6c52 7 97 24 97 37 0 4-5 20-12 34l-12 26-15-8c-9-4-41-9-72-11l-56-4-26 24c-14 13-28 33-32 46l-6 22h271l6 25 6 25-6 34c-4 19-17 48-29 66l-22 33-35 18-35 19H935l-40-24zm167-76c10-12 18-28 18-36v-14H900v13c1 16 20 41 45 55l20 12 40-4 40-5 17-21zm472 85c-4-8-5-78-2-155l3-139 21-28 21-28 34-12 34-13 39 5c21 3 51 12 67 21l29 15v-31h80v380h-113l27-25 26-24v-111h-92l7 23c13 39 2 137-16 137h-9v-24c0-14-4-28-10-31l-10-6v-58l10-6c6-3 10-13 10-21v-14h-90v111l26 24 27 25h-114l-5-15zm181-76v-24l-17-3-18-3v24c0 27 9 39 24 34l11-4v-24zm85-119v-41l-25-24-24-25h-102l-24 25-25 24v81h200v-40zm-620 160v-39l96-3 96-3-101-132-101-132v-31l168 2 167 3 3 37 3 37-99 3-100 3 94 129 94 128v38h-320v-40zm880 5v-35h50v-311l43 3 42 3 3 188 2 187h-140v-35zm170 28c0-3 25-39 55-80 31-40 58-80 61-88l6-15-66-89c-36-48-66-91-66-95 0-3 21-6 48-6l47 1 43 59c24 33 47 60 50 60 4 0 27-27 50-60l44-60h49c27 0 49 2 49 5s-32 48-71 99l-70 94 65 89 65 88-47 3-47 3-25-32c-14-18-34-44-45-57l-20-24-40 56-40 56h-47c-27 0-48-3-48-7zM670 1485l-54-55h114v55c0 30-1 55-3 55-1 0-27-25-57-55z"/></g><g fill="#f58728" transform="matrix(.1 0 0 -.1 0 300)"><path d="M400 1500v-270h330v110H460v85l72 72 72 73H470v90h260v110H400v-270zm1563 253-23-4v-495l12-12 12-12h64l12 15 13 15-17 18-16 19v463l-17-1c-10-1-28-4-40-6zm159-25c-7-7-12-21-12-33s5-26 12-33 21-12 33-12 26 5 33 12 12 21 12 33-5 26-12 33-21 12-33 12-26-5-33-12zM915 1591c-46-21-79-54-94-94l-11-28v-120l20-39 20-40 42-21 41-21 78 4 78 3 17 16 16 17-17 26-18 26-11-9c-7-6-30-13-53-17l-40-6-35 16-35 17-12 25c-6 14-11 29-11 34v10h268l5 29 6 29-10 38-11 39-26 29c-15 16-41 35-59 42l-32 14h-76l-40-19zm140-76 25-24v-41h-88c-49 0-91 3-95 6l-6 7 14 28c19 36 41 48 88 49h38l24-25zm485-60v-144l12-26 12-26 27-15 28-14h48l48 1 25 14c32 18 40 18 40 0v-15h80v370h-93l16-18 17-19v-210l-23-21-23-22h-105l-19 10-18 10-11 32-11 33 3 82 4 83 18 20 18 20h-93v-145zm148 122-5-24h27v47h-9c-5 0-11-10-13-23zm-508-17v-29l101-3 100-3-100-134c-56-74-101-140-101-148v-13h320v60h-192l5 14c3 8 47 71 96 139 50 69 91 130 91 136v11h-320v-30zm880 0v-30h50v-300h80v360h-130v-30zm180 25c0-3 27-42 60-86l60-82-8-11c-5-6-37-48-71-93l-62-83h98l43 60 43 60 12-10c6-5 27-32 46-60l34-50h96l-7 13c-4 6-34 47-66 89s-58 80-58 84c0 6 46 73 98 142l24 32h-92l-37-50c-20-27-41-50-45-50s-24 23-45 50l-37 50h-43c-24 0-43-2-43-5zM670 1485l-54-55h114v55c0 30-1 55-3 55-1 0-27-25-57-55zm1018-17c2-10 8-18 12-18s10 8 12 18l5 18h-34l5-18z"/></g><g fill="#4faeda" transform="matrix(.1 0 0 -.1 0 300)"><path d="m1963 1753-23-4v-495l12-12 12-12h64l12 15 13 15-17 18-16 19v463l-17-1c-10-1-28-4-40-6zm159-25c-7-7-12-21-12-33s5-26 12-33 21-12 33-12 26 5 33 12 12 21 12 33-5 26-12 33-21 12-33 12-26-5-33-12zM915 1591c-46-21-79-54-94-94l-11-28v-120l20-39 20-40 42-21 41-21 78 4 78 3 17 16 16 17-17 26-18 26-11-9c-7-6-30-13-53-17l-40-6-35 16-35 17-12 25c-6 14-11 29-11 34v10h268l5 29 6 29-10 38-11 39-26 29c-15 16-41 35-59 42l-32 14h-76l-40-19zm140-76 25-24v-41h-88c-49 0-91 3-95 6l-6 7 14 28c19 36 41 48 88 49h38l24-25zm485-60v-144l12-26 12-26 27-15 28-14h48l48 1 25 14c32 18 40 18 40 0v-15h80v370h-93l16-18 17-19v-210l-23-21-23-22h-105l-19 10-18 10-11 32-11 33 3 82 4 83 18 20 18 20h-93v-145zm148 122-5-24h27v47h-9c-5 0-11-10-13-23zm-508-17v-29l101-3 100-3-100-134c-56-74-101-140-101-148v-13h320v60h-192l5 14c3 8 47 71 96 139 50 69 91 130 91 136v11h-320v-30zm880 0v-30h50v-300h80v360h-130v-30zm180 25c0-3 27-42 60-86l60-82-8-11c-5-6-37-48-71-93l-62-83h98l43 60 43 60 12-10c6-5 27-32 46-60l34-50h96l-7 13c-4 6-34 47-66 89s-58 80-58 84c0 6 46 73 98 142l24 32h-92l-37-50c-20-27-41-50-45-50s-24 23-45 50l-37 50h-43c-24 0-43-2-43-5zm-552-117c2-10 8-18 12-18s10 8 12 18l5 18h-34l5-18z"/></g></g></svg>