<?xml version="1.0" encoding="utf-8"?>
<!-- Generator: Adobe Illustrator 27.5.0, SVG Export Plug-In . SVG Version: 6.00 Build 0)  -->
<svg version="1.2" baseProfile="tiny-ps" id="Layer_1" xmlns="http://www.w3.org/2000/svg" xmlns:xlink="http://www.w3.org/1999/xlink"
	viewBox="0 0 150 150" xml:space="preserve">
	<title>Eventbrite</title>
<path fill="#F05537" d="M69.52,51.2c9.98-2.3,19.94,1.87,25.48,9.77L50.89,71.16C52.41,61.63,59.53,53.51,69.52,51.2 M95.25,88.67
	c-3.34,4.94-8.48,8.68-14.75,10.13c-10.05,2.32-20.07-1.93-25.6-9.93l44.25-10.22l7.21-1.66l13.78-3.18
	c-0.08-2.96-0.45-5.96-1.15-8.97c-5.61-24.29-29.85-39.44-54.14-33.83S25.41,60.86,31.02,85.15s29.85,39.44,54.14,33.83
	c14.31-3.31,25.45-13.08,31.04-25.52L95.25,88.67z"/>
</svg>
