<?xml version="1.0" encoding="UTF-8"?>
<svg id="Capa_1" xmlns="http://www.w3.org/2000/svg" baseProfile="tiny-ps" version="1.2" viewBox="0 0 1080 1080">
<title> Zona Franca Iquique S.A.</title>
  <!-- Generator: Adobe Illustrator 29.1.0, SVG Export Plug-In . SVG Version: 2.1.0 Build 142)  -->
  <rect width="1080" height="1080" fill="#253b60"/>
  <g>
    <polygon points="105.6 453.22 105.6 507 189.85 507 89.29 631.77 304.58 631.77 305.79 576.56 217.9 576.56 312.11 453.22 105.6 453.22" fill="#eeedec"/>
    <polygon points="526.2 633.64 526.2 455.77 676.15 455.77 676.15 493.9 602.62 493.9 602.62 527.09 671.05 527.09 671.05 565.56 602.62 565.56 602.62 633.64 526.2 633.64" fill="#eeedec"/>
    <polygon points="907.93 455.47 910.62 632.28 990.59 632.28 990.59 455.47 907.93 455.47" fill="#eeedec"/>
    <path d="M516.75,518.66c-1.05-3.67-5.73-17.29-15.06-30.64-33.02-47.23-142.19-49.95-177.45-2.3-15.54,21.01-18.53,42.62-19.15,49.28-.56,6.03-3.42,42.81,22.47,71.23,10.44,11.46,21.38,16.99,28.34,20.43,32.99,16.28,82.72,17.36,123.57-5.87,8.03-4.57,26.84-18.1,35.74-44.43,8.43-24.91,3.54-50.7,1.54-57.7ZM447.58,554.91c-3.05,9.56-9.48,14.48-12.23,16.14-13.98,8.44-31,8.05-42.28,2.13-2.38-1.25-6.13-3.26-9.7-7.42-8.86-10.33-7.88-23.68-7.69-25.87.21-2.42,1.23-10.27,6.55-17.9,12.06-17.31,49.42-16.32,60.72.83,3.19,4.85,4.8,9.8,5.15,11.13.69,2.54,2.37,11.91-.52,20.96Z" fill="#eeedec"/>
    <path d="M837.17,564.19c19.71-8.88,22.3-10.55,22.3-10.55,4.25-2.75,15.38-9.97,20.43-23.49,3.72-9.98,2.45-18.91,1.36-26.55-.83-5.81-1.91-13.38-6.47-21.1-8.64-14.63-23.81-19.9-30.63-22.3-7.97-2.81-15.28-3.66-21.63-4.4-7.32-.86-13.53-.96-18.03-.87h-118.64v177.36h85.11v-54.98l33.87,54.98h94.98c-20.89-22.71-41.77-45.4-62.65-68.1ZM798.94,529.9c-3.09,3.63-7.25,4.62-8.94,4.91-6.94.19-13.87.38-20.81.57v-32.36c6.53.02,13.06.04,19.6.06,1.06-.01,6.6.05,10.34,4.28,2.9,3.28,3.03,7.14,3.13,10.34.09,3.02.25,8.01-3.32,12.2Z" fill="#eeedec"/>
  </g>
</svg>