<?xml version="1.0" encoding="utf-8"?>
<!-- Generator: Adobe Illustrator 27.6.1, SVG Export Plug-In . SVG Version: 6.00 Build 0)  -->
<svg version="1.2" baseProfile="tiny-ps" id="Layer_1" xmlns="http://www.w3.org/2000/svg" xmlns:xlink="http://www.w3.org/1999/xlink" viewBox="0 0 1080 1080" xml:space="preserve" >
<title>Valor Financial Service Co.,Ltd.</title>
<rect fill="#FFFFFF" width="1080" height="1080"/>
	<path fill="#DC062B" d="M121.1,545.5c-8-19.9-3.2-41.1,23.9-43.9c21.5-1.2,30.3,22,28.3,41.5c-1.2,24.7-2,39.1-2,48.7
		s-0.4,20,14.4,20.7c14.8,0.8,25.9-6.8,38.7,2c12.8,8.8,14.8,39.5-8,42.7c-22.8,3.2-25.5-2-42.7-1.6c-17.2,0.4-40.7,4.8-45.1-13.6
		c-4.4-18.4,3.6-25.1,3.2-43.1C131.4,581,128.6,564.2,121.1,545.5z"/>
	<path fill="#DC062B" d="M256.1,574.2c0-23.5,5.2-35.9,22-35.9c17.3,0,23.1,12,23.1,38.3c0,18-12,40.3,14.8,43.1
		c26.7,2.8,18-23.1,15.6-40.7c-3.6-22.8,0.7-40.7,24.7-38.7c28.7,2.4,19.6,38.3,18.4,55.1c-1.2,16.8,4.9,64.2-32.2,65.4
		c-37.1,1.2-72.9,2.5-78.5-19.2C257.9,618.4,256.1,592.2,256.1,574.2z"/>
	<path fill="#DC062B" d="M395.6,428.6c22.2-27.7,53.5-26.2,79-5.2c25.5,21.1,39.1,70.1,54.6,95.8c15.5,25.7,20,59.3,35.9,60.6
		c15.8,1.3,26.6-37.7,38.8-60.2c17.7-34.7,31.1-82.8,73.6-99.8c42.5-17,76.1,5.5,84.3,28.8c8.1,23.3,7.4,55.4-29.9,61
		c-37.3,5.5-52.9,7.4-75.8,43.6c-22.9,36.2-37.7,66.1-49.3,84.4c-11.6,18.4-44.7,39.9-77.8,2.8s-45.5-69.4-59.9-95.4
		c-14.4-25.9-38.7-52.7-62.7-59.1C382.5,479.6,380,447.5,395.6,428.6z"/>
	<path fill="#DC062B" d="M759,535.1c0-20.4,16-29.1,30.7-26.3c14.8,2.8,19.6,18,17.2,32.7c-2.4,14.8-18.4,21.2-31.9,17.6
		C761.4,555.4,759,541.1,759,535.1z"/>
	<path fill="#DC062B" d="M755,638.5c0,12.8,1.6,32.3,23.5,34.7c22,2.4,25.9-18,27.5-31.9c1.6-14,1.2-16.4,2-36.3
		c0.8-20-8.8-31.5-24.7-31.5c-16,0-26.7,12-26.7,27.1C755.8,610.5,755,625.7,755,638.5z"/>
	<path fill="#DC062B" d="M847.1,577c0-19.2,18.8-21.2,27.1-21.2c8.4,0,13.2-2.8,13.2-17.2c0-14.4,0.8-27.1,19.6-27.1
		c18.8,0,21.5,17.2,20.7,33.1c-0.8,16,5.2,10.4,14.8,11.2c9.6,0.8,19.2,2.8,22,20.7c2.8,18-15.6,22.3-27.1,22.3s-11.2,5.6-12,12
		s-2,19.6,3.6,31.9s5.2,33.1-21.2,33.9c-26.3,0.8-26.3-22.3-25.5-38.7c0.8-16.4,1.2-13.6,0.8-26.7c-0.4-13.2-6.4-14-16.8-13.6
		C855.8,598.1,847.1,588.2,847.1,577z"/>
</svg>
