<?xml version="1.0" encoding="utf-8"?>
<!-- Generator: Adobe Illustrator 25.3.1, SVG Export Plug-In . SVG Version: 6.00 Build 0)  -->
<svg version="1.2" baseProfile="tiny-ps" id="Layer_1" xmlns="http://www.w3.org/2000/svg" xmlns:xlink="http://www.w3.org/1999/xlink"
	 viewBox="0 0 600 600" xml:space="preserve">
	 <title>Strategic News Service</title>
<path fill="#2F3234" d="M401.1,369.72c3.91-3.89,6.28-9.22,6.28-15.86c0-14.2-8.3-21.47-22.84-35.31
	c-18.7-17.64-27.34-36.34-27.34-56.06c0-46.38,32.53-77.52,80.63-77.52c19.73,0,31.15,3.8,36.69,7.25l-13.49,43.97
	c-6.92-3.47-14.54-6.24-24.92-6.24c-16.27,0-28.04,9.7-28.04,25.61c0,8.66,2.43,15.58,22.51,32.88
	c20.41,17.66,28.03,38.08,28.03,55.38c0,46.12-28.73,73.2-67.38,77.84"/>
<path fill="#2F3234" d="M200.01,231.07c-4.01,3.97-6.41,9.39-6.41,16.17c0,14.47,8.46,21.88,23.29,35.99
	c19.05,18,27.87,37.04,27.87,57.16c0,47.28-33.17,79.03-82.21,79.03c-20.11,0-31.75-3.88-37.39-7.41l13.75-44.8
	c7.06,3.52,14.82,6.35,25.41,6.35c16.59,0,28.59-9.88,28.59-26.12c0-8.82-2.47-15.88-22.94-33.52
	c-20.82-17.99-28.57-38.81-28.57-56.46c0-47.02,29.29-74.62,68.69-79.35"/>
<polygon fill="#7A7C7D" points="380.81,377.29 370.45,377.29 266.5,178.57 265.71,178.58 265.71,178.57 228.44,178.57 
	220.03,223.79 229.79,223.79 333.75,422.62 365.12,422.55 365.13,422.5 372.41,422.5 "/>
</svg>
