<?xml version="1.0"?><svg version="1.2" baseProfile="tiny-ps" viewBox="0 0 300 300" xmlns="http://www.w3.org/2000/svg" xmlns:xlink="http://www.w3.org/1999/xlink"><title>vpv</title><g><g fill="#0074bf" transform="matrix(.1 0 0 -.1 0 300)"><path d="M1368 1971c-142-46-250-157-292-300l-16-55V700h180v915l19 40c10 22 30 54 45 72l26 31 52 26 52 26h131l40-19c80-37 139-117 150-207l7-50-11-41c-6-23-26-63-44-89l-32-49-58-29-59-30-69 1-69 1v-180l98 4 99 4 69 34 69 34 53 53 53 53 30 63 29 64 11 61 11 60-11 68-10 68-32 64-31 64-52 51-52 52-56 27c-71 35-127 48-208 47h-65l-57-18zm-1138-14c0-1 78-180 173-397l173-395h185l165 375c90 206 167 385 170 398l6 22H922l-9-12c-6-7-61-131-124-275-63-145-117-263-120-263-4 0-60 123-126 273l-119 272-97 3c-53 1-97 1-97-1zm1674-19c3-13 79-192 170-398l165-375h185l173 394c95 217 173 396 173 398s-44 2-97 1l-98-3-119-272c-65-150-122-273-125-273s-57 118-120 263c-63 144-118 268-124 275l-9 12h-180l6-22z"/></g></g></svg>