<?xml version="1.0" encoding="utf-8"?>
<!-- Generator: Adobe Illustrator 28.0.0, SVG Export Plug-In . SVG Version: 6.00 Build 0)  -->
<svg version="1.2" baseProfile="tiny-ps" id="Layer_1" xmlns="http://www.w3.org/2000/svg" xmlns:xlink="http://www.w3.org/1999/xlink"
	viewBox="0 0 2000 2000" xml:space="preserve">
<title>Spaceship</title>
<g>
	<rect fill="#394EFF" width="2000" height="2000"/>
</g>
<path fill="#FFFFFF" d="M1637.7,1395.7c0.1,1.1,0.1,2.2,0.1,3.4c0,82.4-66.9,149.1-149.4,149.1c-15.7,0-30.8-2.4-45-6.8
	l-419.9-138.5c-7.4-2.4-15.2-3.7-23.5-3.7c-8.2,0-16.1,1.3-23.5,3.7l-419.9,138.5c-14.2,4.5-29.3,6.8-45,6.8
	c-82.6,0-149.4-66.7-149.4-149.1v-3.5l0-0.8l0.1-3.4v-0.3l0.2-3.1l0-0.8l0.3-3.3l0-0.5l0.4-3l0.1-0.7l0.5-3.3l0.1-0.6l0.5-2.8
	l0.1-0.7l0.6-3.2l0.1-0.7l0.6-2.7l0.1-0.7l0.8-3.1l0.2-0.7l0.8-2.8l0.1-0.4l0.9-3.2l0.2-0.7l1-2.9l0.1-0.2l1.1-3.1l0.2-0.7l1.2-3
	v-0.1l1.2-2.9l0.3-0.7l1.3-3l0.2-0.3l1.2-2.6l0.3-0.7l1.4-2.9l0.2-0.4l1.3-2.5l0.3-0.6l1.4-2.5l0.2-0.3l0.1-0.2l0.3-0.6l7.5-13
	l236.5-408.7l243.8-421.6c25.8-44.8,74.2-75.1,129.8-75.1c55.5,0,103.9,30.2,129.7,75.1l243.8,421.6l236.5,408.7l7.5,13l0.3,0.6
	l0.1,0.2l0.2,0.4l1.4,2.5l0.3,0.6l1.3,2.5l0.2,0.3l1.4,2.9l0.3,0.7l1.3,2.6l0.1,0.3l1.3,3l0.3,0.7l1.2,2.9l0,0.1l1.2,3l0.3,0.7
	l1.1,3l0.1,0.2l0.9,2.9l0.2,0.7l0.9,3.2l0.1,0.4l0.7,2.8l0.2,0.7l0.8,3.1l0.1,0.7l0.6,2.7l0.1,0.7l0.6,3.2l0.1,0.7l0.5,2.8l0.1,0.6
	l0.5,3.3l0.1,0.7l0.4,3l0.1,0.5l0.3,3.3l0.1,0.8l0.1,3.1l0,0.3l0.1,3.4V1395.7z"/>
</svg>
