<svg viewBox="0 0 500 500" xmlns="http://www.w3.org/2000/svg" baseProfile="tiny-ps" version="1.2"><title>OneCasino Ltd. Bimi logo</title><path d="m0 0h500v500h-500z"/><path d="m82.89 242.93c-2.53-2.89-6.13-4.78-10.68-5.48l-3 11.06c1.84.31 3.26 1.18 4.23 2.54z" fill="#ffcb00" fill-rule="evenodd"/><path d="m87.17 256.58.01-.68c0-4.21-.92-7.84-2.67-10.75l-9.92 8.52c.22.89.33 1.88.33 2.97 0 .43-.02.87-.05 1.33z" fill="#ff6" fill-rule="evenodd"/><path d="m68.05 237.14c-18.85 0-25.82 16.72-25.82 28.61 0 11.61 6.97 18.76 19.23 18.76 17.16 0 24.34-13.79 25.54-25.15l-12.53 1.43c-1.24 5.84-5.07 12.49-12.64 12.49-4.74 0-7.25-2.97-7.25-8.27 0-5.87 3.07-15.74 11.81-16.57l3.06-11.26c-.46-.03-.93-.04-1.4-.04" fill="#5fff90" fill-rule="evenodd"/><path d="m107.9 239.1c-.09-.67-.56-.94-1.21-.94h-5.57c-.65 0-1.11.37-1.21 1.04l-7.43 43.08c-.09.74.28 1.21 1.02 1.21h10.4c.65 0 1.11-.37 1.21-1.02l3.72-21.92c1.3-7.52 5.76-12.17 11.8-12.17 3.71 0 5.48 2.41 4.64 7.24l-4.64 26.66c-.09.74.28 1.21 1.02 1.21h10.39c.65 0 1.11-.37 1.21-1.02l4.72-27.4c1.95-10.96-3.24-17.93-14.36-17.93-3.34 0-8.17 1.12-12.45 4.64-1.49 1.15-2.04 1.33-2.6.03z" fill="#5fff90"/><path d="m158.7 258.03c2.32-6.78 6.5-9.66 11.7-9.66 3.34 0 5.11 1.3 5.11 3.53s-1.58 3.99-5.2 4.55zm20.43 24.06c.65-.19 1.02-.65.93-1.3l-.74-8.82c-.09-.74-.56-1.11-1.3-.93l-4.83 1.3c-2.69.65-4.92.93-7.8.93-4.92 0-7.24-2.32-7.52-5.76l13.47-1.86c13.1-1.86 16.25-8.27 16.25-15.33 0-8.17-6.13-13.19-16.53-13.19-18.76 0-25.54 16.44-25.54 28.7 0 11.52 6.78 18.67 19.5 18.67 2.97 0 5.76-.28 8.92-1.11z" fill="#5fff90"/><path d="m351.8 215.5c-4.74 0-7.71 2.97-7.71 8.36 0 3.99 2.41 6.41 6.78 6.41 4.74 0 7.71-2.97 7.71-8.36 0-4-2.42-6.41-6.78-6.41" fill="#5fff90"/><g fill="#fff"><path d="m225.39 282.18c.65-.19 1.02-.65.93-1.3l-1.11-8.73c-.09-.74-.65-1.12-1.3-.93l-3.81 1.02c-2.79.74-5.01 1.02-6.87 1.02-5.39 0-7.89-2.88-7.89-8.08 0-6.04 2.97-16.81 13.84-16.81 1.11 0 2.97.19 5.02.84l3.06.93c.65.18 1.21 0 1.49-.65l3.99-8.17c.37-.74.09-1.21-.65-1.49l-4.74-1.39c-2.6-.74-5.2-1.3-7.8-1.3-19.88 0-26.56 16.35-26.56 28.7 0 11.52 6.78 18.67 19.69 18.67 2.97 0 5.67-.37 8.27-1.11z"/><path d="m269.69 249.68-.74 3.9c-2.14 11.7-7.43 19.69-14.12 19.69-3.99 0-6.41-2.69-6.41-7.24 0-6.22 4.18-17.65 14.58-17.65 1.95 0 3.06.19 4.64.65zm-1.21 32.69c0 .74.37 1.11 1.11 1.11h5.76c.65 0 1.11-.37 1.21-1.02l6.87-40.4c.09-.65-.19-1.11-.84-1.3l-9.29-2.23c-3.81-.93-6.69-1.39-9.75-1.39-19.97 0-27.49 17.37-27.49 30 0 10.96 6.04 17.37 16.44 17.37 5.76 0 9.75-2.51 13.28-6.59 2.04-2.14 2.41-1.86 2.69.09v4.36z"/><path d="m310.28 266.49c2.14.56 2.88 1.39 2.88 2.69 0 2.23-2.32 4.09-7.06 4.09-2.23 0-7.43-.37-11.05-1.39l-3.16-.93c-.65-.19-1.21 0-1.49.65l-3.9 8.36c-.37.74-.09 1.21.65 1.39l4.27 1.21c4.74 1.3 9.47 1.95 14.21 1.95 15.33 0 19.88-9.1 19.88-16.44 0-5.94-3.62-9.57-10.68-11.42l-8.27-2.23c-1.86-.46-2.69-1.21-2.69-2.42 0-2.14 2.6-3.62 6.87-3.62 2.88 0 5.57.28 8.27 1.02l3.9 1.11c.65.19 1.21 0 1.49-.65l3.81-8.45c.37-.74.09-1.21-.65-1.39l-4.37-1.11c-4.37-1.21-8.36-1.77-12.07-1.77-14.03 0-19.5 7.99-19.5 16.35 0 5.57 3.34 9.01 10.4 10.87z"/><path d="m355.88 239.37c.09-.74-.28-1.21-1.02-1.21h-16.16c-.65 0-1.11.37-1.21 1.02l-1.49 8.82c-.09.74.28 1.21 1.02 1.21h4.55l-5.76 33.06c-.09.74.28 1.21 1.02 1.21h10.4c.65 0 1.11-.37 1.21-1.02z"/><path d="m375.2 239.1c-.09-.67-.56-.94-1.21-.94h-5.57c-.65 0-1.11.37-1.21 1.04l-7.43 43.08c-.09.74.28 1.21 1.02 1.21h10.4c.65 0 1.11-.37 1.21-1.02l3.72-21.92c1.3-7.52 5.76-12.17 11.8-12.17 3.71 0 5.48 2.41 4.64 7.24l-4.64 26.66c-.09.74.28 1.21 1.02 1.21h10.39c.65 0 1.11-.37 1.21-1.02l4.72-27.4c1.95-10.96-3.24-17.93-14.36-17.93-3.34 0-8.17 1.12-12.45 4.64-1.49 1.15-2.04 1.33-2.6.03z"/><path d="m438.17 248.38c4.74 0 7.34 2.97 7.34 8.27 0 6.22-3.62 16.63-13.1 16.63-4.74 0-7.25-2.97-7.25-8.27.01-6.14 3.35-16.63 13.01-16.63m.47-11.24c-18.85 0-25.82 16.72-25.82 28.61 0 11.61 6.97 18.76 19.23 18.76 18.95 0 25.73-16.81 25.73-28.61-.01-11.61-6.98-18.76-19.14-18.76z"/></g></svg>