<?xml version="1.0" encoding="UTF-8"?>
<!-- Generator: Adobe Illustrator 28.2.0, SVG Export Plug-In . SVG Version: 6.00 Build 0) -->
<svg version="1.2" baseProfile="tiny-ps" id="Layer_1" xmlns="http://www.w3.org/2000/svg" xmlns:xlink="http://www.w3.org/1999/xlink" viewBox="0 0 359.7 243.7" xml:space="preserve">
    <title>More</title>
    <desc>More Retail Private Limited's logo</desc>
    <g id="design">
        <rect fill="#FFFFFF" width="359.7" height="243.7" />
        <path fill="#F04E23" d="M319.9,181.6l1.6-5l2.5-7.8l2.5-7.9l2.5-7.9l2.4-7.9l2.4-7.9l2.4-7.9l2.4-7.9l2.4-7.9l0.6-2l0.3-1l0.1-0.5
		l0.1-0.3l0.1-0.3l0-0.1l0-0.2c0,0,0.2-1.3-0.5-2.3v0h0h0h0l0,0c-0.1-0.1-0.1-0.1-0.1-0.2c0.1,0.1,0.1,0.1,0.1,0.2l-0.1-0.1
		c-0.5-0.8-1-1.3-1.5-1.9c-0.5-0.6-1-1.1-1.5-1.7c-2-2.1-4.2-4.1-6.5-5.9c-2.2-1.8-4.6-3.4-7-5c-2.4-1.5-4.8-3-7.3-4.3
		c-2.5-1.3-5-2.6-7.5-3.8c-2.6-1.2-5.1-2.3-7.7-3.3c-2.6-1.1-5.2-2-7.9-3c-2.6-0.9-5.3-1.8-8-2.6c-2.7-0.8-5.4-1.6-8-2.3
		c-2.7-0.7-5.4-1.4-8.1-2c-2.7-0.6-5.4-1.2-8.1-1.7c-2.7-0.5-5.4-1-8.2-1.5c-2.7-0.5-5.5-0.9-8.2-1.3c-2.7-0.4-5.5-0.8-8.2-1.1
		c-2.7-0.3-5.5-0.6-8.2-0.9c-2.8-0.3-5.5-0.5-8.3-0.8c-2.8-0.2-5.5-0.4-8.3-0.6c-2.8-0.2-5.5-0.3-8.3-0.4c-2.8-0.1-5.5-0.2-8.3-0.3
		c-2.8-0.1-5.5-0.1-8.3-0.2l-8.3-0.1l-8.3,0.1c-2.8,0-5.5,0.1-8.3,0.2c-2.8,0.1-5.5,0.2-8.3,0.3c-2.8,0.1-5.5,0.3-8.3,0.4
		c-2.8,0.2-5.5,0.4-8.3,0.6c-2.8,0.2-5.5,0.5-8.3,0.7c-2.7,0.3-5.5,0.6-8.2,0.9c-2.8,0.3-5.5,0.7-8.2,1.1c-2.7,0.4-5.5,0.8-8.2,1.3
		c-2.7,0.5-5.5,1-8.2,1.5c-2.7,0.5-5.4,1.1-8.2,1.7c-2.7,0.6-5.4,1.3-8.1,2c-2.7,0.7-5.4,1.5-8,2.3c-2.7,0.8-5.3,1.7-8,2.6
		c-2.6,0.9-5.3,1.9-7.8,3c-2.6,1-5.2,2.2-7.7,3.3C47,85.4,44.5,86.6,42,88c-2.5,1.4-4.9,2.8-7.3,4.3c-2.4,1.5-4.7,3.2-7,5
		c-2.2,1.8-4.4,3.7-6.5,5.9c-0.5,0.5-1,1.1-1.5,1.7l-0.5,0.6c-0.2,0.3-0.4,0.5-0.6,0.8c-0.2,0.3-0.4,0.6-0.6,0.8
		c-0.1,0.1-0.2,0.3-0.3,0.4c0,0-0.3,0.6-0.1,1.4c0.1,0.9,0.1,0.6,0.1,1l0.3,1l0.2,0.8l0.6,2l2.4,7.9l2.4,7.9l2.4,7.9l2.4,7.9
		l2.4,7.9l2.5,7.9l2,6.6h0l2.2,7.1l0.6,2h0l1.6,5H319.9z M341.3,106.6C341.3,106.6,341.3,106.6,341.3,106.6
		C341.3,106.6,341.3,106.6,341.3,106.6 M341.5,106.9C341.5,106.9,341.5,106.9,341.5,106.9L341.5,106.9L341.5,106.9z" />
        <path fill="#FFFFFF" d="M83.6,136.6h-1.4c-1.4,0-2.4-0.2-3-0.5c-0.6-0.3-1-0.7-1.2-1.2c-0.2-0.5-0.3-1.7-0.3-3.7v-20.6l1.2-0.8
		c2.2-1.6,3.6-2.5,4.1-2.8c1-0.5,2-0.9,3.1-1.2c1-0.2,2-0.4,3-0.4c1.9,0,3.2,0.7,3.9,2.1c0.5,0.9,0.7,2.8,0.7,5.5v18.1
		c0,2-0.1,3.3-0.4,3.8c-0.3,0.6-0.7,1-1.2,1.2c-0.5,0.2-1.9,0.3-4.1,0.4v10.2h27.4v-10.2c-2.2,0-3.5-0.1-3.9-0.3
		c-0.7-0.3-1.1-0.7-1.4-1.2c-0.3-0.5-0.4-1.8-0.4-3.9v-20.7c2.9-2.1,5.2-3.4,6.7-4.1c1.5-0.6,2.9-0.9,4.2-0.9c1.1,0,2.1,0.3,2.9,0.8
		c0.8,0.5,1.4,1.1,1.7,1.9c0.3,0.7,0.4,2.2,0.4,4.4v19.2c0,1.7-0.1,2.9-0.4,3.4c-0.3,0.5-0.7,0.9-1.2,1.1c-0.6,0.2-1.9,0.3-4.1,0.3
		v10.2H149v-10.2h-2.2c-2,0-3.2-0.1-3.7-0.3c-0.6-0.3-1-0.7-1.3-1.2c-0.3-0.5-0.4-1.7-0.4-3.5v-21.9c0-2.4-0.1-4.3-0.4-5.6
		c-0.4-2-1.3-3.9-2.6-5.7c-1.3-1.7-3.1-3.1-5.3-4.2c-2.2-1-4.6-1.5-7.2-1.5c-3.1,0-6.1,0.6-9,1.7c-3,1.1-6.1,3-9.3,5.6
		c-1-1.7-2.1-3-3.3-4c-1.2-1-2.7-1.8-4.5-2.4c-1.8-0.6-3.7-0.9-5.7-0.9c-3.1,0-6.2,0.6-9.1,1.7c-3,1.2-5.9,2.9-8.8,5.3v-7h-4.7
		c-5.2,2.4-10.8,3.9-16.9,4.5v10.2h7.4v23.8c0,2-0.1,3.2-0.4,3.8c-0.3,0.6-0.7,1-1.2,1.2c-0.5,0.2-1.8,0.3-3.9,0.3h-2v10.2h29.2
		V136.6z" />
        <polygon fill="#FFFFFF" points="236.8,167.3 54.2,167.3 54.2,169.5 235.4,169.5 251.3,169.5 305.3,169.5 305.3,167.3 247.5,167.3
		" />
        <path fill="#FFFFFF" d="M177.4,148.1c8.5,0,15.2-2.6,20.3-7.7c5.1-5.2,7.6-11.8,7.6-20.1c0-5.5-1.1-10.2-3.4-14.3
		c-2.3-4.1-5.5-7.3-9.8-9.7c-4.2-2.4-9.2-3.5-14.9-3.5c-5.5,0-10.4,1.2-14.7,3.6c-4.3,2.4-7.5,5.6-9.8,9.6c-2.3,4-3.4,8.7-3.4,14.3
		c0,8.4,2.5,15.1,7.4,20C161.9,145.5,168.8,148.1,177.4,148.1z M168.2,111.4c0.9-2.3,2.2-4.1,3.9-5.3c1.7-1.2,3.5-1.8,5.4-1.8
		c3,0,5.5,1.3,7.5,4c1.9,2.7,2.9,6.7,2.9,12.1c0,5.5-1,9.6-3.2,12.2c-2.1,2.6-4.6,3.9-7.6,3.9c-1.9,0-3.6-0.6-5.2-1.7
		c-1.6-1.2-2.8-3-3.7-5.4c-0.9-2.4-1.4-5.5-1.4-9.2C166.8,116.7,167.3,113.8,168.2,111.4z" />
        <path fill="#FFFFFF" d="M238.8,136.8h-2.2c-1.9,0-3.1-0.1-3.7-0.4c-0.6-0.3-1-0.6-1.2-1.2c-0.2-0.5-0.4-1.7-0.4-3.4v-22.3
		c0.7-0.6,1.5-1.1,2.3-1.5c1.1-0.5,2.2-0.8,3.1-0.8c2,0,3.5,0.6,4.7,1.8c1.2,1.2,2.1,3,2.8,5.3h10.6V93.7c-2.9-0.5-4.6-0.8-7.2-0.8
		c-3.8,0-7.4,0.8-10.7,2.3c-2.5,1.1-4.9,2.8-7.3,5.1v-7.3h-4.7c-5.9,2.6-11.5,4.1-17,4.4v10.2h7.4v24.3c0,1.8-0.1,3-0.4,3.5
		c-0.2,0.5-0.6,0.9-1,1.1c-0.5,0.2-1.6,0.3-3.4,0.3h-2.6V147h30.9V136.8z" />
        <path fill="#FFFFFF" d="M295.3,133.7c-2.6,1.4-5.1,2.1-7.3,2.1c-3.5,0-6.5-1.4-8.9-4.2c-2.4-2.8-3.7-6.4-3.7-10.9H309
		c0-3.1-0.1-5.4-0.3-6.9c-0.5-2.9-1.3-5.7-2.6-8.4c-1.3-2.7-2.9-5-5-6.9c-2.1-1.9-4.4-3.4-7.2-4.4c-2.7-1-5.8-1.5-9.1-1.5
		c-5.2,0-9.9,1.2-14.1,3.6c-4.1,2.4-7.4,5.7-9.7,9.9c-2.3,4.2-3.5,8.9-3.5,13.9c0,7.7,2.6,14.3,7.8,19.8c5.2,5.4,11.6,8.2,19.2,8.2
		c4.7,0,9.1-1.1,13.2-3.2c4.1-2.1,8.1-5.6,12-10.3l-6.9-7.3C300.5,130.2,297.9,132.3,295.3,133.7z M277.7,107.1
		c0.8-1.3,1.8-2.3,3.1-3c1.3-0.7,2.7-1.1,4.1-1.1c1.3,0,2.6,0.4,3.8,1.1c1.2,0.7,2.2,1.7,2.9,2.9c0.7,1.2,1.2,2.9,1.4,5h-16.9
		C276.4,110,276.9,108.4,277.7,107.1z" />
        <path fill="#FFFFFF" d="M328.3,102c-2.1-1.7-4.3-3.2-6.5-4.6c-2.2-1.5-4.6-2.8-6.9-4.1c-2.4-1.3-4.8-2.5-7.2-3.6
		c-2.4-1.1-4.9-2.2-7.4-3.2c-2.5-1-5-2-7.6-2.9c-2.6-0.9-5.1-1.7-7.7-2.5c-2.6-0.8-5.2-1.5-7.8-2.2c-2.6-0.7-5.3-1.3-7.9-2
		c-2.6-0.6-5.3-1.2-8-1.7c-2.7-0.5-5.3-1-8-1.5c-2.7-0.5-5.4-0.9-8.1-1.3c-2.7-0.4-5.4-0.7-8.1-1.1c-2.7-0.3-5.4-0.6-8.1-0.9
		c-2.7-0.3-5.4-0.5-8.1-0.7c-2.7-0.2-5.4-0.4-8.2-0.6c-2.7-0.2-5.4-0.3-8.2-0.4c-2.7-0.1-5.5-0.2-8.2-0.3c-2.7-0.1-5.5-0.1-8.2-0.2
		l-8.2-0.1l-8.2,0.1c-2.7,0-5.5,0.1-8.2,0.2c-2.7,0.1-5.5,0.2-8.2,0.3c-2.7,0.1-5.5,0.3-8.2,0.4c-2.7,0.2-5.4,0.4-8.2,0.6
		c-2.7,0.2-5.4,0.5-8.1,0.7c-2.7,0.3-5.4,0.6-8.1,0.9c-2.7,0.3-5.4,0.7-8.1,1.1c-2.7,0.4-5.4,0.8-8.1,1.3c-2.7,0.5-5.4,1-8,1.5
		c-2.7,0.5-5.3,1.1-8,1.7c-2.6,0.6-5.3,1.3-7.9,2c-2.6,0.7-5.2,1.4-7.8,2.2c-2.6,0.8-5.2,1.6-7.7,2.5c-2.6,0.9-5.1,1.8-7.6,2.9
		c-2.5,1-5,2.1-7.4,3.2c-2.4,1.1-4.8,2.3-7.2,3.6c-2.4,1.3-4.7,2.6-6.9,4.1c-2.2,1.5-4.4,3-6.5,4.7c-2.1,1.6-4,3.4-5.8,5.3
		c-0.4,0.5-0.9,0.9-1.3,1.4l-0.3,0.4l-0.2,0.3c0,0.1,0,0.2,0.1,0.3l0.1,0.4l0.6,2l2.4,7.9l2.4,7.9l2.4,7.9l2.4,7.9l2.5,7.9l2.4,7.8
		l2,6.5h0l3.2,10h271.2l2.7-8.7h0l2.5-7.8l2.5-7.8l2.4-7.9l2.4-7.9l2.4-7.9l2.4-7.9l2.4-7.9l0.4-1.3c0,0,0,0,0,0v0l0,0l0.2-0.6
		l0.2-0.8c-0.3-0.3-0.6-0.7-0.9-1.1l0-0.1c0,0,0,0,0,0l0,0.1c-0.3-0.3-0.6-0.7-0.9-1C332.3,105.4,330.4,103.6,328.3,102z
		 M334.7,109.6l0,0.2l-0.6,1.9l-2.3,7.8l-2.4,7.9l-2.4,7.9l-2.4,7.9L322,151l-2.4,7.9l-2,6.4h0l-2.9,9.3H45.1l-2.5-7.8l-2.5-7.8
		l-2.4-7.9l-2.4-7.9l-2.4-7.9l-2.4-7.9l-2.4-7.9l-2.3-7.8l-0.6-2.1l0.1-0.2c0.4-0.5,0.8-0.9,1.2-1.4c1.7-1.8,3.7-3.6,5.7-5.2
		c2-1.6,4.2-3.2,6.4-4.6c2.2-1.4,4.5-2.8,6.8-4.1c2.3-1.3,4.7-2.5,7.1-3.6c2.4-1.1,4.9-2.2,7.4-3.2c2.5-1,5-1.9,7.5-2.8
		c2.5-0.9,5.1-1.7,7.7-2.5c2.6-0.8,5.2-1.5,7.8-2.2c2.6-0.7,5.2-1.3,7.9-2c2.6-0.6,5.3-1.2,7.9-1.7c2.7-0.5,5.3-1,8-1.5
		c2.7-0.5,5.4-0.9,8-1.3c2.7-0.4,5.4-0.7,8.1-1.1c2.7-0.3,5.4-0.6,8.1-0.9c2.7-0.3,5.4-0.5,8.1-0.7c2.7-0.2,5.4-0.4,8.1-0.6
		c2.7-0.2,5.4-0.3,8.2-0.4c2.7-0.1,5.4-0.2,8.2-0.3c2.7-0.1,5.4-0.1,8.2-0.2l8.2-0.1l8.2,0.1c2.7,0,5.4,0.1,8.2,0.2
		c2.7,0.1,5.4,0.2,8.2,0.3c2.7,0.1,5.4,0.3,8.2,0.4c2.7,0.2,5.4,0.4,8.1,0.6c2.7,0.2,5.4,0.5,8.1,0.7c2.7,0.3,5.4,0.6,8.1,0.9
		c2.7,0.3,5.4,0.7,8.1,1.1c2.7,0.4,5.4,0.8,8,1.3c2.7,0.5,5.3,0.9,8,1.5c2.7,0.5,5.3,1.1,7.9,1.7c2.6,0.6,5.3,1.2,7.9,1.9
		c2.6,0.7,5.2,1.4,7.8,2.2c2.6,0.8,5.1,1.6,7.7,2.5c2.5,0.9,5.1,1.8,7.5,2.8c2.5,1,4.9,2.1,7.4,3.2c2.4,1.1,4.8,2.3,7.1,3.6
		c2.3,1.3,4.6,2.6,6.8,4.1c2.2,1.4,4.4,3,6.4,4.6c2,1.6,4,3.3,5.7,5.2c0.4,0.5,0.8,0.9,1.2,1.4C334.6,109.5,334.6,109.5,334.7,109.6
		z" />
        <path fill="#FFFFFF" d="M339.4,108.7c-0.1-0.1,0.1,0.2-0.1-0.4l0,0l-0.1-0.1c-0.8-1.2-1.8-2.2-2.7-3.3c-1.9-2-4-3.9-6.2-5.6
		c-2.2-1.7-4.4-3.3-6.8-4.8c-2.3-1.5-4.7-2.9-7.1-4.2c-2.4-1.3-4.9-2.6-7.4-3.7c-2.5-1.2-5-2.3-7.6-3.3c-2.6-1-5.1-2-7.7-2.9
		c-2.6-0.9-5.2-1.8-7.9-2.6c-2.6-0.8-5.3-1.6-7.9-2.3c-2.7-0.7-5.3-1.4-8-2c-2.7-0.6-5.4-1.2-8.1-1.7c-2.7-0.5-5.4-1-8.1-1.5
		c-2.7-0.5-5.4-0.9-8.1-1.3c-2.7-0.4-5.4-0.8-8.2-1.1c-2.7-0.3-5.5-0.6-8.2-0.9c-2.7-0.3-5.5-0.5-8.2-0.7c-2.7-0.2-5.5-0.4-8.2-0.6
		c-2.7-0.2-5.5-0.3-8.2-0.4c-2.7-0.1-5.5-0.2-8.2-0.3c-2.7-0.1-5.5-0.1-8.2-0.2l-8.2-0.1l-8.2,0.1c-2.7,0-5.5,0.1-8.2,0.2
		c-2.7,0.1-5.5,0.2-8.2,0.3c-2.7,0.1-5.5,0.3-8.2,0.4c-2.7,0.2-5.5,0.4-8.2,0.6c-2.7,0.2-5.5,0.5-8.2,0.7c-2.7,0.3-5.5,0.6-8.2,0.9
		c-2.7,0.3-5.5,0.7-8.2,1.1c-2.7,0.4-5.4,0.8-8.1,1.3c-2.7,0.5-5.4,1-8.1,1.5c-2.7,0.5-5.4,1.1-8.1,1.7c-2.7,0.6-5.3,1.3-8,2
		c-2.7,0.7-5.3,1.5-7.9,2.3c-2.6,0.8-5.3,1.7-7.9,2.6c-2.6,0.9-5.2,1.9-7.7,2.9c-2.6,1-5.1,2.1-7.6,3.3c-2.5,1.2-5,2.4-7.4,3.7
		c-2.4,1.3-4.8,2.7-7.1,4.2c-2.3,1.5-4.6,3.1-6.8,4.8c-2.2,1.7-4.3,3.6-6.2,5.6c-0.5,0.5-0.9,1-1.4,1.6c-0.5,0.6-1.2,1.3-1.5,2
		c-0.1,0.8,0.4,1.7,0.5,2.4l0.6,2l2.4,7.9l2.4,7.9l2.4,7.9l2.4,7.9l2.4,7.9l2.5,7.9l2,6.5h0l3.9,12.3h276.1l3.4-11h0l2.5-7.8
		l2.4-7.9l2.4-7.9l2.4-7.9l2.4-7.9l2.4-7.9l2.4-7.9l0.6-2l0.3-1l0.1-0.5l0.1-0.3l0-0.2l0-0.1l0-0.1
		C339.4,108.9,339.4,108.9,339.4,108.7z M337.2,109.4l-0.3,1l-0.6,2l-2.4,7.9l-2.4,7.9l-2.4,7.9l-2.4,7.8l-2.4,7.9l-2.5,7.9l-2,6.5
		l0,0l-3.4,10.9h-273l-3-9.5h0l-2.5-7.8l-2.4-7.9l-2.4-7.9l-2.4-7.8l-2.4-7.9l-2.4-7.9l-2.4-7.9l-0.6-2l-0.2-0.7
		c0-0.2-0.2-0.4-0.1-0.7c0.1-0.2,0.3-0.4,0.4-0.5l0.5-0.6c0.4-0.5,0.9-1,1.3-1.5c1.8-1.9,3.8-3.7,6-5.4c2.1-1.7,4.3-3.2,6.6-4.7
		c2.3-1.5,4.6-2.9,7-4.2c2.4-1.3,4.8-2.5,7.3-3.7c2.5-1.1,5-2.2,7.5-3.2c2.5-1,5.1-2,7.7-2.9c2.6-0.9,5.2-1.7,7.8-2.5
		c2.6-0.8,5.2-1.5,7.9-2.2c2.6-0.7,5.3-1.4,7.9-2c2.7-0.6,5.3-1.2,8-1.7c2.7-0.5,5.4-1,8.1-1.5c2.7-0.5,5.4-0.9,8.1-1.3
		c2.7-0.4,5.4-0.7,8.1-1.1c2.7-0.3,5.4-0.6,8.1-0.9c2.7-0.3,5.4-0.5,8.2-0.7c2.7-0.2,5.4-0.4,8.2-0.6c2.7-0.2,5.5-0.3,8.2-0.4
		c2.7-0.1,5.5-0.2,8.2-0.3c2.7-0.1,5.5-0.1,8.2-0.2l8.2-0.1l8.2,0.1c2.7,0,5.5,0.1,8.2,0.2c2.7,0.1,5.5,0.2,8.2,0.3
		c2.7,0.1,5.5,0.3,8.2,0.4c2.7,0.2,5.5,0.4,8.2,0.6c2.7,0.2,5.4,0.5,8.2,0.7c2.7,0.3,5.4,0.6,8.2,0.9c2.7,0.3,5.4,0.7,8.1,1.1
		c2.7,0.4,5.4,0.8,8.1,1.3c2.7,0.5,5.4,1,8.1,1.5c2.7,0.5,5.3,1.1,8,1.7c2.7,0.6,5.3,1.3,7.9,2c2.6,0.7,5.3,1.4,7.9,2.2
		c2.6,0.8,5.2,1.6,7.8,2.5c2.6,0.9,5.1,1.9,7.6,2.9c2.5,1,5,2.1,7.5,3.2c2.5,1.2,4.9,2.4,7.3,3.7c2.4,1.3,4.7,2.7,7,4.1
		c2.3,1.5,4.5,3,6.6,4.7c2.1,1.7,4.1,3.5,6,5.4c0.8,0.8,1.6,1.7,2.2,2.6L337.2,109.4z" />
        <polygon fill="#FFFFFF" points="235.3,155.3 54.2,155.3 54.2,157.6 236.7,157.6 247.7,157.6 305.3,157.6 305.3,155.3 251.6,155.3
		" />
        <polygon fill="#FFFFFF" points="237.3,159.3 54.2,159.3 54.2,165.5 237.4,165.5 245.8,165.5 305.3,165.5 305.3,159.3 245.9,159.3
		" />
    </g>
</svg>
