<?xml version="1.0" encoding="UTF-8"?>
<!-- Generator: Adobe Illustrator 25.4.1, SVG Export Plug-In . SVG Version: 6.00 Build 0) -->
<svg version="1.2" baseProfile="tiny-ps" id="Lager_1" xmlns="http://www.w3.org/2000/svg" xmlns:xlink="http://www.w3.org/1999/xlink" viewBox="0 0 196 196" xml:space="preserve">
    <title>Olofstr?ms Kraft AB</title>
    <g id="Page-1">
        <g id="Group">
            <rect id="Rectangle" fill-rule="evenodd" fill="#FFFFFF" width="196" height="196" />
            <g id="Group-6" transform="translate(43.000000, 42.000000)">
                <path id="Fill-1" fill-rule="evenodd" d="M0,83.9h37.1V122C16.6,122,0,104.9,0,83.9L0,83.9z M44.5,45.8V122
				c20.5,0,37.1-17.1,37.1-38.1S64.9,45.8,44.5,45.8L44.5,45.8z M0,38.1c0,21.1,16.6,38.1,37.1,38.1V0C16.6,0,0,17.1,0,38.1L0,38.1z
				 M88.9,76.2c16.4,0,29.6-13.7,29.6-30.5H88.9V76.2z M126,0H88.9h-7.4C61.1,0,44.5,17.1,44.5,38.1h37.1h7.4
				C109.4,38.1,126,21.1,126,0L126,0z" />
                <g id="Group-5">
                    <g id="Clip-4" />
                </g>
            </g>
        </g>
    </g>
</svg>
