<?xml version="1.0" encoding="utf-8"?>
<!-- Generator: Adobe Illustrator 26.3.1, SVG Export Plug-In . SVG Version: 6.00 Build 0)  -->
<svg version="1.2" baseProfile="tiny-ps" id="Layer_1" xmlns="http://www.w3.org/2000/svg" xmlns:xlink="http://www.w3.org/1999/xlink"
	viewBox="0 0 600 600" xml:space="preserve">
<title>Evident ID, Inc.</title>
<rect x="0.1" y="-0.2" fill="#FFFFFF" width="600" height="600"/>
<g>
	<path fill="#23313A" d="M490.2,269.6L300.1,79.4L198,181.5L110,269.6c-16.7,16.7-16.7,43.7,0,60.4l190.1,190.1L490.2,330
		C506.9,313.3,506.9,286.3,490.2,269.6z"/>
	<path fill="#2B93AA" d="M110,269.6L300.1,79.4c-28.2-28.2-73.8-28.2-102,0l-174,174c-25.6,25.6-25.6,67,0,92.6l61,61l113.1,113.1
		c28.2,28.2,73.8,28.2,102,0L110,330C93.3,313.3,93.3,286.3,110,269.6z"/>
	<path fill="#2AB496" d="M576.1,253.5l-61-61L402.1,79.4c-28.2-28.2-73.8-28.2-102,0l190.1,190.1c16.7,16.7,16.7,43.7,0,60.4
		L300.1,520.1v0c28.2,28.2,73.8,28.2,102,0l174-174C601.7,320.5,601.7,279.1,576.1,253.5z"/>
	<path fill="#FFFFFF" d="M261.9,387.5C261.9,387.5,261.8,387.5,261.9,387.5c-6.1,0-11.9-2.4-16.1-6.7l-54.2-55
		c-8.8-8.9-8.7-23.2,0.2-32c8.9-8.8,23.2-8.7,32,0.2l38.3,38.8L363.2,232c8.8-8.8,23.2-8.8,32,0c8.8,8.8,8.8,23.2,0,32L277.9,380.9
		C273.6,385.2,267.9,387.5,261.9,387.5z"/>
</g>
</svg>
