<?xml version="1.0" encoding="utf-8"?>
<svg viewBox="0 0 32 32" version="1.2" baseProfile="tiny-ps" xmlns="http://www.w3.org/2000/svg">
  <title>Crésus</title>
  <g>
    <rect width="32" height="32" fill="#005186" />
    <path d="m9.78,23.95l14.38-11.03V0h-11.05L0,10.03v15.83c2.9-1.1,6.17-1.77,9.78-1.9h0Z" fill="#e20613" />
    <polygon points="10.76 12.95 10.76 17.45 14.68 17.45 14.68 12.95 19.19 12.95 19.19 9.02 14.68 9.02 14.68 4.52 10.76 4.52 10.76 9.02 6.25 9.02 6.25 12.95 10.76 12.95" fill="#fff" />
    <path d="m30.81,32c-4.58-5.02-11.39-8.09-19.75-8.09h-.01c-.43,0-.85.02-1.27.04-3.62.12-6.88.8-9.78,1.9v6.15" fill="#fff" />
  </g>
</svg>