<svg xmlns="http://www.w3.org/2000/svg" xmlns:xlink="http://www.w3.org/1999/xlink" version="1.2" viewBox="0 0 2000 2000" baseProfile="tiny-ps">
  <title>fenwick_bimi</title>
  <circle cx="1000" cy="1000" r="1000" fill="#FFFFFF"/>
  <linearGradient id="SVGID_1_" gradientUnits="userSpaceOnUse" x1="172.1078" y1="1000" x2="1072.1078" y2="1000">
    <stop offset="0" stop-color="#0095FF"/>
    <stop offset="1" stop-color="#0058CD"/>
  </linearGradient>
  <path d="M944.898,856.888v285.459H550v428.509c0,42.301,34.292,76.593,76.593,76.593H978.51  c42.301,0,76.592-34.291,76.592-76.592v-318.306h318.306c42.301,0,76.592-34.292,76.592-76.592v-318.53V747.673v-318.53  c0-42.301-34.292-76.592-76.592-76.592h-318.53H945.122h-318.53c-42.301,0-76.593,34.292-76.593,76.593v427.744H944.898z   M944.898,747.449H659.439V461.99h285.459V747.449z M1055.102,857.653h285.459v285.459h-285.459V857.653z M1055.102,461.99h285.459  v285.459h-285.459V461.99z M944.898,1252.551v285.459H659.439v-285.459H944.898z" fill="url(#SVGID_1_)"/>
</svg>