<?xml version="1.0" encoding="UTF-8" standalone="yes"?><svg xmlns="http://www.w3.org/2000/svg" baseProfile="tiny-ps" version="1.2" viewBox="0 0 400 400"><title>Two Squared Wines</title><path d="M299.4,203.7l-3.7-3.7,3.7-3.7c7.2-7.2,13.3-10.9,18.4-11,5.1-.2,11.3,3.3,18.5,10.3l5.7-5.7-58.2-58.2-5.7,5.7c11.7,12.4,11.4,24.7-.7,36.9l-3.7,3.7-51.6-51.6,3.7-3.7c7.2-7.2,13.3-10.9,18.4-11,5.1-.2,11.3,3.3,18.5,10.3l5.7-5.7-58.2-58.2-5.7,5.7c11.7,12.4,11.4,24.7-.7,36.9l-3.7,3.7-3.7-3.7c-7.2-7.2-10.9-13.3-11-18.4-.1-5,3.3-11.2,10.3-18.5l-5.7-5.7-58.2,58.2,5.7,5.7c6.8-6.5,12.8-9.9,17.8-10.3,5-.4,11.4,3.3,19.1,11l3.7,3.7-51.6,51.6-3.7-3.7c-7.2-7.2-10.9-13.3-11-18.4-.1-5,3.3-11.2,10.3-18.5l-5.7-5.7-58.2,58.2,5.7,5.7c6.8-6.5,12.8-9.9,17.8-10.3,5-.4,11.4,3.3,19.1,11l3.7,3.7-3.7,3.8c-7.2,7.2-13.3,10.9-18.4,11-5,.1-11.2-3.3-18.5-10.3l-5.7,5.7,58.2,58.2,5.7-5.7c-6.5-6.8-9.9-12.8-10.3-17.8-.4-5,3.3-11.4,11-19.1l3.8-3.7,51.6,51.6-3.7,3.7c-7.2,7.2-13.3,10.9-18.4,11-5,.1-11.2-3.3-18.5-10.3l-5.7,5.7,58.2,58.2,5.7-5.7c-6.5-6.8-9.9-12.8-10.3-17.8-.4-5,3.3-11.4,11-19.1l3.7-3.7,3.7,3.7c7.2,7.2,10.9,13.3,11,18.4.2,5.1-3.3,11.3-10.3,18.5l5.7,5.7,58.2-58.2-5.7-5.7c-12.4,11.7-24.7,11.4-36.9-.7l-3.7-3.7,51.6-51.6,3.7,3.7c7.2,7.2,10.9,13.3,11,18.4.2,5.1-3.3,11.3-10.3,18.5l5.7,5.7,58.2-58.2-5.7-5.7c-12.4,11.7-24.7,11.4-36.9-.7h0ZM200,251.6l-51.6-51.6,51.6-51.6,51.6,51.6-51.6,51.6h0Z" fill="#d3b47f" stroke="#231f20" stroke-miterlimit="10" stroke-width=".2"></path></svg>