<?xml version="1.0" encoding="UTF-8"?><svg xmlns="http://www.w3.org/2000/svg" width="500" height="500" viewBox="0 0 500 500" fill="none" version="1.2" baseProfile="tiny-ps"><title>Founderly</title><rect width="500" height="500" fill="#281994"></rect><path fill-rule="evenodd" d="M275.208 268.719C272.843 270.383 270.085 271.216 266.932 271.216C263.498 271.216 260.331 270.341 257.431 268.592C254.532 266.842 252.21 264.303 250.464 260.973C248.719 257.644 247.846 253.609 247.846 248.869C247.846 244.129 248.733 240.065 250.507 236.68C252.28 233.294 254.673 230.684 257.685 228.85C260.697 227.016 264.033 226.099 267.692 226.099C270 226.099 272.337 226.635 274.701 227.707C277.066 228.779 279.036 230.218 280.613 232.024V209H291.338V269.946H280.613V262.751C279.374 265.065 277.573 267.054 275.208 268.719ZM56.7384 248.7V269.946H45V213.232H83.5932V223.813H56.7384V238.119H78.9485V248.7H56.7384ZM128.013 268.211C124.579 270.214 120.779 271.215 116.613 271.215C112.503 271.215 108.717 270.214 105.254 268.211C101.792 266.207 99.0192 263.513 96.9361 260.127C94.853 256.741 93.8115 252.932 93.8115 248.699C93.8115 244.467 94.853 240.644 96.9361 237.23C99.0192 233.816 101.792 231.107 105.254 229.104C108.717 227.1 112.503 226.099 116.613 226.099C120.779 226.099 124.579 227.1 128.013 229.104C131.448 231.107 134.22 233.816 136.332 237.23C138.443 240.644 139.498 244.467 139.498 248.699C139.498 252.932 138.443 256.741 136.332 260.127C134.22 263.513 131.448 266.207 128.013 268.211ZM116.613 260.804C114.586 260.804 112.7 260.339 110.955 259.407C109.209 258.476 107.816 257.108 106.774 255.302C105.733 253.496 105.212 251.295 105.212 248.7C105.212 246.104 105.733 243.903 106.774 242.097C107.816 240.291 109.209 238.909 110.955 237.949C112.7 236.99 114.586 236.51 116.613 236.51C118.64 236.51 120.526 236.99 122.271 237.949C124.016 238.909 125.424 240.291 126.493 242.097C127.563 243.903 128.098 246.104 128.098 248.7C128.098 251.295 127.563 253.496 126.493 255.302C125.424 257.108 124.016 258.476 122.271 259.407C120.526 260.339 118.64 260.804 116.613 260.804ZM177.881 268.761C174.981 270.228 171.702 270.962 168.042 270.962C164.326 270.962 161.019 270.228 158.119 268.761C155.22 267.294 152.94 265.192 151.279 262.455C149.618 259.718 148.788 256.459 148.788 252.678V227.199H159.597L159.682 250.731C159.682 254.061 160.442 256.544 161.962 258.18C163.482 259.817 165.509 260.635 168.042 260.635C170.519 260.635 172.532 259.817 174.08 258.18C175.629 256.544 176.403 254.061 176.403 250.731V227.199H187.297V252.678C187.297 256.459 186.452 259.718 184.763 262.455C183.074 265.192 180.78 267.294 177.881 268.761ZM210.267 269.946V242.859C211.449 241.166 212.87 239.699 214.531 238.457C216.192 237.216 217.98 236.595 219.894 236.595C222.315 236.595 224.215 237.3 225.594 238.711C226.973 240.122 227.663 242.266 227.663 245.144L227.748 269.946H238.473V243.705C238.473 237.836 237.009 233.435 234.081 230.5C231.154 227.566 227.522 226.099 223.187 226.099C220.316 226.099 217.769 226.86 215.545 228.384C213.321 229.908 211.562 231.544 210.267 233.294V227.199H199.542V269.946H210.267ZM269.634 260.465C266.425 260.465 263.85 259.337 261.907 257.079C259.965 254.822 258.994 252.085 258.994 248.869C258.994 246.724 259.444 244.735 260.345 242.901C261.246 241.067 262.498 239.572 264.103 238.415C265.707 237.258 267.636 236.679 269.888 236.679C271.971 236.679 273.899 237.145 275.672 238.076C277.446 239.007 279.093 240.291 280.613 241.928V248.022C280.613 250.618 280.092 252.833 279.05 254.667C278.009 256.501 276.658 257.926 274.997 258.942C273.336 259.957 271.548 260.465 269.634 260.465ZM333.267 269.396C330.592 270.609 327.651 271.215 324.442 271.215C320.219 271.215 316.377 270.256 312.914 268.337C309.452 266.419 306.693 263.795 304.638 260.465C302.584 257.136 301.556 253.327 301.556 249.038C301.556 244.862 302.485 241.053 304.343 237.611C306.201 234.168 308.762 231.389 312.028 229.273C315.293 227.157 319.009 226.099 323.175 226.099C327.341 226.099 330.93 227.001 333.942 228.807C336.954 230.613 339.263 233.11 340.867 236.299C342.472 239.487 343.274 243.169 343.274 247.345V251.916H312.366C312.929 254.794 314.336 257.108 316.588 258.857C318.84 260.606 321.599 261.481 324.864 261.481C327.96 261.481 330.775 260.86 333.309 259.619C335.842 258.377 337.869 257.108 339.389 255.81L339.305 265.798C337.954 266.983 335.941 268.182 333.267 269.396ZM332.971 244.552H312.535C313.21 241.787 314.449 239.586 316.25 237.949C318.052 236.313 320.276 235.495 322.922 235.495C325.343 235.495 327.566 236.242 329.593 237.738C331.62 239.233 332.746 241.504 332.971 244.552ZM363.795 246.075V269.946H353.07V227.199H363.795V235.24C365.259 232.701 366.99 230.585 368.989 228.892C370.987 227.199 373.253 226.352 375.787 226.352C377.307 226.352 378.686 226.606 379.925 227.114V239.219C378.123 238.203 376.237 237.695 374.267 237.695C371.79 237.695 369.735 238.499 368.102 240.108C366.469 241.716 365.034 243.705 363.795 246.075ZM398.926 269.946V209H388.201V269.946H398.926ZM455 227.199L424.007 290.261H411.847L424.683 266.814L406.273 227.199H418.771L430.932 254.456L442.755 227.199H455Z" fill="white"></path></svg>