<?xml version="1.0" encoding="utf-8"?>
<!-- Generator: Adobe Illustrator 23.1.0, SVG Export Plug-In . SVG Version: 6.00 Build 0)  -->
<svg version="1.2" baseProfile="tiny-ps" id="レイヤー_1"
	 xmlns="http://www.w3.org/2000/svg" xmlns:xlink="http://www.w3.org/1999/xlink" viewBox="0 0 349.8 349.8"
	 xml:space="preserve">
<title>qualitia.co.jp</title>
<rect fill="#FFFFFF" width="349.8" height="349.8"/>
<path d="M181.3,247.5c-25.6,0-48.9-12.7-62.8-33.6h-9c14.9,25.6,41.9,41.3,71.8,41.3c0,0,0.1,0,0.1,0h48.7l-7.2-11.1
	c12.3-7.1,22.7-17.4,30.1-30.1h-9C230.1,234.9,206.8,247.5,181.3,247.5"/>
<path d="M31.9,155.2h-8.4c-7.5,0-13.4,2.4-17.7,7.1C1.9,166.5,0,171.7,0,178v1c0,6.3,1.9,11.5,5.7,15.7c4.3,4.7,10.2,7.1,17.7,7.1
	h8.4h19.3l-3.4-5.3c0.6-0.6,1.3-1.1,1.9-1.8c3.8-4.2,5.7-9.4,5.7-15.7v-1c0-6.3-1.9-11.5-5.7-15.7C45.3,157.6,39.4,155.2,31.9,155.2
	 M9.1,178.5c0.2-11.3,6.8-17.1,14.8-17.1h7.5c8,0,14.6,5.8,14.8,17.1c-0.2,11.3-6.8,17.1-14.8,17.1h-7.5
	C15.9,195.6,9.3,189.8,9.1,178.5"/>
<path d="M170.7,155.2V196c0,3.2,2.6,5.7,5.7,5.7h34.4v-8.1h-30.5c-0.9,0-1.6-0.7-1.6-1.6v-36.9H170.7z"/>
<rect x="215.6" y="155.2" width="8.1" height="46.6"/>
<polygon points="228.5,163.3 246.8,163.3 246.8,201.7 254.9,201.7 254.9,163.3 273.3,163.3 273.3,155.2 228.5,155.2 "/>
<rect x="278" y="155.2" width="8.1" height="46.6"/>
<path d="M138.8,164.3l9,16.3H134l-4.4,8h22.6l7.2,13.1h9.3l-24.9-44.1c-2.2-3.9-7.8-3.9-10,0l-24.9,44.1h9.3L138.8,164.3z"/>
<path d="M324.9,157.6c-2.2-3.9-7.8-3.9-10,0L290,201.7h9.3l20.6-37.4l9,16.3h-13.8l-4.4,8h22.6l7.2,13.1h9.3L324.9,157.6z"/>
<path d="M111.9,155.2h-8.1v25.6c0,4.9-1.5,8.4-4.5,10.4c-2.5,1.7-6.4,2.5-11.7,2.5h-2.8c-5.3,0-9.2-0.8-11.7-2.5
	c-3-2-4.5-5.5-4.5-10.4v-25.6h-8.1v25.6c0,7.5,2.2,13,6.6,16.4c4,3,9.9,4.6,17.7,4.6h2.8c7.8,0,13.7-1.6,17.7-4.6
	c4.4-3.4,6.7-8.9,6.7-16.4V155.2z"/>
<path d="M179,102.3c28.5,0,53.2,16.7,64.9,40.7h8.4c-12.2-28.4-40.4-48.4-73.3-48.4c-32.8,0-61.1,20-73.3,48.4h8.4
	C125.8,118.9,150.5,102.3,179,102.3"/>
</svg>
