<?xml version="1.0" encoding="utf-8"?>
<!-- Generator: Adobe Illustrator 25.4.1, SVG Export Plug-In . SVG Version: 6.00 Build 0)  -->
<svg version="1.2" baseProfile="tiny-ps" id="Layer_1" xmlns="http://www.w3.org/2000/svg" xmlns:xlink="http://www.w3.org/1999/xlink"
	 viewBox="0 0 800 800" xml:space="preserve">
	<title>NCM Investment</title>
	<g>
		<rect x="25" y="537.9" fill="#008065" width="4.6" height="35.3"/>
		<path fill="#008065" d="M106.2,555.7l-11.3-17.9h-5v35.3h4.3v-15.1c0-5.9-0.1-10.1-0.4-14.6l0.2-0.1c1.8,3.8,4.1,7.9,6.6,11.8
			l11.2,17.9h4.6v-35.3h-4.3v14.8c0,5.5,0.1,9.8,0.5,14.5l-0.1,0.1C110.9,563.6,108.8,559.9,106.2,555.7z"/>
		<path fill="#008065" d="M202.2,537.9h-4.9l-6,17.4c-1.6,4.6-3,9.1-4,13.2h-0.1c-0.9-4.1-2.3-8.4-3.8-13.2l-5.5-17.4H173l11.5,35.3
			h5L202.2,537.9z"/>
		<polygon fill="#008065" points="277.5,541.7 277.5,537.9 258.4,537.9 258.4,573.2 278.3,573.2 278.3,569.4 263,569.4 263,556.6 
			276.7,556.6 276.7,552.8 263,552.8 263,541.7 	"/>
		<path fill="#008065" d="M356.2,563.5c0-5.2-3-8.1-9-10.4c-4.9-1.9-7-3.5-7-6.8c0-2.4,1.8-5.3,6.7-5.3c3.2,0,5.6,1,6.7,1.7l1.3-3.7
			c-1.6-0.9-4.2-1.7-7.8-1.7c-6.9,0-11.4,4.1-11.4,9.6c0,5,3.6,8,9.3,10c4.8,1.8,6.7,3.7,6.7,7c0,3.6-2.7,6-7.4,6
			c-3.1,0-6.1-1-8.2-2.3l-1.2,3.8c1.9,1.3,5.6,2.3,9,2.3h0C352.2,573.7,356.2,569,356.2,563.5z"/>
		<polygon fill="#008065" points="426.2,573.2 426.2,541.7 437,541.7 437,537.9 410.8,537.9 410.8,541.7 421.6,541.7 421.6,573.2 	
			"/>
		<path fill="#008065" d="M523.1,557.7l0.9,15.5h4.5l-2.2-35.3h-5.8l-6.3,17.1c-1.6,4.5-2.8,8.3-3.7,11.9h-0.2
			c-0.9-3.7-2.1-7.5-3.6-11.9l-6-17.1h-5.8l-2.5,35.3h4.3l0.9-15.1c0.3-5.3,0.6-11.2,0.7-15.6h0.1c1,4.2,2.4,8.8,4.1,13.7l5.7,16.8
			h3.5l6.2-17.1c1.8-4.9,3.2-9.3,4.5-13.4h0.2C522.5,546.8,522.8,552.7,523.1,557.7z"/>
		<polygon fill="#008065" points="606.9,541.7 606.9,537.9 587.8,537.9 587.8,573.2 607.7,573.2 607.7,569.4 592.4,569.4 
			592.4,556.6 606.1,556.6 606.1,552.8 592.4,552.8 592.4,541.7 	"/>
		<path fill="#008065" d="M682.3,555.7L671,537.9h-5v35.3h4.3v-15.1c0-5.9-0.1-10.1-0.4-14.6l0.2-0.1c1.8,3.8,4.1,7.9,6.6,11.8
			l11.2,17.9h4.6v-35.3h-4.3v14.8c0,5.5,0.1,9.8,0.5,14.5l-0.1,0.1C687,563.6,684.9,559.9,682.3,555.7z"/>
		<polygon fill="#008065" points="764.2,573.2 764.2,541.7 775,541.7 775,537.9 748.9,537.9 748.9,541.7 759.6,541.7 759.6,573.2 	
			"/>
		<rect x="25" y="490.5" fill="#008065" width="750" height="4.2"/>
		<path fill="#008065" d="M25,236.1v202.1c0,5.4,4.4,9.8,9.8,9.8h32.8V291.1L204,447.9h32.8c5.4,0,9.8-4.4,9.8-9.8v-202
			c0-5.4-4.4-9.8-9.8-9.8H204v156.8L67.6,226.3H34.8C29.4,226.3,25,230.7,25,236.1z"/>
		<path fill="#008065" d="M289.2,236.1v202.1c0,5.4,4.4,9.8,9.8,9.8h202c5.4,0,9.8-4.4,9.8-9.8v-32.8H341.6c-5.4,0-9.8-4.4-9.8-9.8
			V278.7c0-5.4,4.4-9.8,9.8-9.8h169.2v-32.8c0-5.4-4.4-9.8-9.8-9.8H299C293.6,226.3,289.2,230.7,289.2,236.1z"/>
		<path fill="#008065" d="M553.4,236.1v202.1c0,5.4,4.4,9.8,9.8,9.8H596V291.1l40,46l7.5,8.6l20.6,23.7l39.1-45l16.1-18.5l0.4-0.5
			c-0.2-0.2-0.5-0.5-0.7-0.7c-1.1-1.1-2.2-2.3-3.3-3.3c-2.2-2.2-4.2-4.2-4.8-4.9c-0.9-0.8-1.6-1.8-2.2-2.8c-1-1.7-1.5-3.7-1.5-5.8
			c0-1.4,0.2-2.7,0.7-3.9c0.1-0.3,0.2-0.5,0.3-0.8c0-0.1,0.1-0.2,0.1-0.2c1.8-4.4,6.2-7.2,11.2-7.2h0l12.8,0l11.9,0l19.8,0l7,0
			c1.4,0,2.7,0.3,3.9,0.8v-40.6c0-0.1,0-0.2,0-0.3c0-1.3-0.3-2.6-0.9-3.7c-1.5-3.4-4.9-5.8-8.9-5.8h-32.8l-3.6,4.2l-9.1,10.4
			l-55.4,63.8L596,226.3h-32.8C557.8,226.3,553.4,230.7,553.4,236.1z"/>
		<path fill="#008065" d="M771.7,356.9c-0.9,0-1.7-0.4-2.3-1l0,0l-11.3-11.2c-4.4-4.4-7.8,0-7.8,0l-18,20.7v82.5h32.8
			c5.4,0,9.8-4.4,9.8-9.8v-41.3l0,0v-43.2C775,355.4,773.5,356.9,771.7,356.9z"/>
		<path fill="#F5A800" d="M775,314.7v-26.2c0-1.1-0.4-2-1.1-2.7c-0.7-0.7-1.7-1.2-2.8-1.2l-51.8-0.1c-1.8,0-3.2,1.4-3.2,3.3
			c0,0.9,0.4,1.7,1,2.3l0.6,0.6l10.6,10.7c4,4,0,8,0,8L670.1,376l20.9,23.4l59.3-68.2c0,0,3.4-4.4,7.8,0l10.7,10.6l0.6,0.6
			c0.6,0.6,1.4,1,2.3,1c1.8,0,3.3-1.5,3.3-3.2L775,314.7z"/>
	</g>
</svg>
