<?xml version="1.0" encoding="UTF-8"?>
<svg xmlns="http://www.w3.org/2000/svg" width="500" height="500" baseProfile="tiny-ps" version="1.2" viewBox="0 0 500 500">
<title>Raised by Coyotes</title>
  <!-- Generator: Adobe Illustrator 28.7.1, SVG Export Plug-In . SVG Version: 1.2.0 Build 142)  -->
  <g>
    <g id="Layer_1">
      <rect width="500" height="500" fill="#070707"/>
      <path d="M333.51,327.33h-21.78c-5.73,0-10.68,3.99-12.32,9.38-7.31,24.13-31.96,38.72-56.6,33.01-22.38-5.19-41.05-22.5-47.29-44.68-5.75-20.44-1.13-42.86,10.95-58.89.23,3.51.5,7.02.69,10.53.8,14.74,1.39,29.49,1.92,44.24.12,3.39.24,6.78.35,10.17.22,6.9,5.72,12.77,12.77,12.77,1.96,0,3.85-.54,5.58-1.4,7.37.66,14.83.73,22.2.36,9.78-.49,20.41-1.34,29.21-6.04,12.76-6.82,16.71-23.32,13.88-36.51-1.43-6.62-4.89-12.35-9.47-17.05,3.95-3.38,6.71-7.89,8.38-12.85.77,3.1,1.27,6.31,1.32,9.67.22,16.42,25.77,16.47,25.55,0-.17-12.7-4.02-24.03-10.43-33.48,4.16-.02,8.32,0,12.47,0,6.68,0,13.08-5.88,12.77-12.77-.31-6.92-5.61-12.77-12.77-12.77h-26.73c-8.34-13.8-16.69-27.6-25.03-41.4,2.06-.23,4.12-.47,6.16-.9,18.95-4.02,33.45-22.17,32.53-41.65-1-21.01-17.02-36.58-37.22-40.08-10.05-1.74-20.3-1.66-30.46-1.23-10.1.42-20,2.14-30.02,3.06-1.15-.08-2.3-.06-3.43.13-.8,0-1.67.02-1.98.02h-21.16c-16.44,0-16.47,25.55,0,25.55h13.01c.11,32.25-.63,64.49-.45,96.74h-19.98c-16.44,0-16.47,25.55,0,25.55h12.68c-18,21.97-24.86,51.27-19.35,79.05,6.26,31.57,30.9,57.54,61.41,67.08,36.26,11.34,74.27-6.49,89.57-40.06h13.08c16.44,0,16.46-25.55,0-25.55ZM221.8,179.43c5.86.12,11.72.25,17.58.37,7.54,12.47,15.07,24.93,22.61,37.4.61,1.01,1.22,2.01,1.83,3.02-2.71-.4-5.41-.74-8.11-.92-4.91-.58-9.92-.49-14.84.31-6.6.66-13.03,2.07-19.2,4.26-.11-14.81-.03-29.62.13-44.44ZM238.86,246.34c-.36.15-.72.31-1.08.46.38-.21.82-.44,1.08-.46ZM238.86,296.88c-.36.15-.71.31-1.07.46.38-.21.81-.44,1.07-.46ZM267.33,263.82l-.24.09.04-.03.2-.07ZM266.47,264.34l.1-.07-.22.33.12-.26ZM266.72,264.06l-.11.03.12-.06-.02.02ZM253.49,244.64c2.42.46,4.63,1.32,6.96,2.06-3.45-1.09-.08.07.91.64.58.33,1.15.67,1.7,1.04l.1.07c.32.49,1.89,1.64,2.21,1.97.29.3.57.62.85.93.45.76.9,1.5,1.33,2.27.16.51.42,1.09.54,1.5.04.16.17.7.29,1.24-.03.29.17,2.1.15,2.59,0,.25-.02.51-.04.76-.25.87-.63,1.91-.85,2.85-.16.29-.32.58-.5.86l-.29.43-.14.07h0l-.09.07v-.03s-.51.29-.51.29c-.72.24-1.44.46-2.17.65-1.77.47-3.57.82-5.37,1.11l-.42.06c-.84.09-1.67.19-2.51.26-2.1.19-4.21.33-6.32.43-5.74.26-11.53.18-17.29-.14-.22-3.18-.32-6.37-.58-9.54-.16-1.94-.24-4.07-.38-6.2,1.97-1.41,4-2.73,6.19-3.8l.42-.23c.33-.13.67-.26,1.01-.38,1.53-.55,3.08-1.01,4.66-1.38.34-.08.95-.29,1.54-.46l.59-.02-.3.04.56-.05c1.42-.09,2.85-.17,4.32-.14.55,0,1.1,0,1.65.02.31.01.63.06.93.08l.41.03.44.04h0ZM258.58,316.55l-.42.06c-.84.09-1.67.19-2.51.26-2.1.19-4.21.33-6.32.43-4.92.23-9.87.2-14.82.01-.19-5.88-.39-11.75-.62-17.62,1.12-.69,2.19-1.49,3.38-2.08l.42-.23c.33-.13.67-.26,1.01-.38,1.53-.55,3.08-1.01,4.66-1.38.77-.18,2.78-1.01,3.47-.67-.55.08-1.09.15-1.64.23.44-.05.88-.09,1.32-.12.59-.04,1.18-.08,1.77-.1,1.27-.04,2.55-.03,3.82.05.07,0,.81.11,1.25.12l.16.03c2.42.46,4.63,1.32,6.96,2.05-3.45-1.09-.08.07.91.64.58.33,1.15.68,1.7,1.04l.1.07c.32.49,1.89,1.64,2.21,1.97.29.3.57.62.85.93.45.75.9,1.5,1.33,2.27.16.52.42,1.09.54,1.5.04.16.17.7.29,1.25-.03.29.17,2.1.15,2.59,0,.25-.02.51-.04.76-.25.87-.63,1.91-.85,2.85-.16.29-.32.58-.5.87l-.29.43-.14.07h0s-.09.07-.09.07v-.03s-.51.29-.51.29c-.72.24-1.44.46-2.17.65-1.77.47-3.57.82-5.37,1.11ZM266.73,314.57l-.02.02-.11.04.12-.06ZM266.47,314.88l.1-.07-.22.33.12-.26ZM267.09,314.46l.04-.03.2-.07-.24.1ZM243.3,121.2c11.5-.34,30.29-2.34,36.91,9.63,5.1,9.22.31,20.06-9.88,22.83-8.61,2.34-18.61.85-27.44.66-6.95-.15-13.9-.29-20.84-.44.1-10.38.11-20.76.06-31.14,7.04-.79,14.12-1.34,21.19-1.55Z" fill="#fff"/>
    </g>
  </g>
</svg>