<?xml version="1.0" encoding="utf-8"?>
<!-- Generator: Adobe Illustrator 27.8.1, SVG Export Plug-In . SVG Version: 6.00 Build 0)  -->
<svg version="1.2" baseProfile="tiny-ps" xmlns:x="http://ns.adobe.com/Extensibility/1.0/" xmlns:i="http://ns.adobe.com/AdobeIllustrator/10.0/" xmlns:graph="http://ns.adobe.com/Graphs/1.0/" xmlns:xlink="http://www.w3.org/1999/xlink" viewBox="0 0 580 580" xmlns="http://www.w3.org/2000/svg">
  <title>Assent Inc.</title>

<g id="canvas">
	<g id="Layer_6">
		<rect x="0.5" y="0.5" fill="#215273" width="579" height="579" />
	</g>
	<g id="LogoMark">
		<polygon fill="#FFFFFF" points="92.2,245.8 102.8,270.1 113.4,245.8    " />
		<polygon fill="#FFFFFF" points="103.8,272.8 115.5,299.4 127.2,272.8    " />
		<polygon fill="#FFFFFF" points="145.9,265.8 129.3,227.5 112.6,265.8    " />
		<polygon fill="#FFFFFF" points="104.7,239.1 98.9,225.9 93.2,239.1    " />
	</g>
	<g id="LogoType">
		<path fill="#FFFFFF" d="M224.5,327.7c0,17.6-15.3,26.1-32.7,26.1c-16.3,0-28.3-6.8-34.2-19.4l18.2-10.3c2.3,6.7,7.8,10.6,16,10.6    c6.7,0,11.2-2.3,11.2-7c0-11.9-42-5.4-42-34.1c0-16.6,14.2-25.9,31-25.9c13.2,0,24.6,6,31,17.3l-17.9,9.8c-2.4-5.2-7-8.3-13-8.3    c-5.2,0-9.4,2.3-9.4,6.7C182.4,305.2,224.5,297.7,224.5,327.7z" />
		<path fill="#FFFFFF" d="M298.4,327.7c0,17.6-15.3,26.1-32.7,26.1c-16.3,0-28.3-6.8-34.2-19.4l18.2-10.3c2.3,6.7,7.8,10.6,16,10.6    c6.7,0,11.2-2.3,11.2-7c0-11.9-42-5.4-42-34.1c0-16.6,14.2-25.9,31-25.9c13.2,0,24.6,6,31,17.3l-17.9,9.8c-2.4-5.2-7-8.3-13-8.3    c-5.2,0-9.4,2.3-9.4,6.7C256.3,305.2,298.4,297.7,298.4,327.7z" />
		<path fill="#FFFFFF" d="M350.3,335.1c8.1,0,14.7-3.4,18.2-8.1l16.9,9.8c-7.7,11.1-19.9,17.4-35.5,17.4c-27.4,0-44.6-18.7-44.6-43    c0-24.3,17.4-43,43-43c24.1,0,41.2,19.1,41.2,43c0,3.1-0.3,5.9-0.8,8.6h-61.4C330.2,330.6,339.2,335.1,350.3,335.1z M368.5,302.8    c-2.6-11.7-11.4-16.5-20.2-16.5c-11.2,0-18.9,6-21.3,16.5H368.5z" />
		<polygon fill="#FFFFFF" points="127,290.5 115.6,316.8 82.6,316.8 99,279.1 87.4,252.5 59.6,316.8 51.4,335.5 43.5,353.8     67,353.8 74.9,335.8 123.1,335.8 130.9,353.8 154.5,353.8    " />
		<path fill="#FFFFFF" d="M474.5,304.1v49.8h-21v-47.3c0-11.1-6.7-16.8-16.1-16.8c-10.3,0-17.9,6-17.9,20.2v43.9h-21v-81h21v9.1    c4.9-7.3,13.3-11.3,24.3-11.3C461,270.5,474.5,282.5,474.5,304.1z" />
		<path fill="#FFFFFF" d="M516.5,291.8v33.6c0,8.7,6.2,8.9,18,8.2V353c-29.2,3.2-39-5.3-39-27.1v-34.1h-14v-20h14v-16.4l21-6.3    v22.8h18v20H516.5z" />
		<path fill="#FFFFFF" d="M528.4,251.9c0-1.3,0.4-2.3,1.2-3.2c0.8-0.9,1.8-1.3,3-1.3c1.2,0,2.2,0.4,3,1.3c0.8,0.9,1.2,1.9,1.2,3.2    c0,1.3-0.4,2.3-1.2,3.2c-0.8,0.9-1.8,1.3-3,1.3c-1.2,0-2.2-0.4-3-1.3C528.8,254.2,528.4,253.2,528.4,251.9z M528.9,251.9    c0,1.1,0.4,2.1,1.1,2.8s1.6,1.2,2.7,1.2c1,0,1.9-0.4,2.7-1.2s1.1-1.7,1.1-2.8c0-1.1-0.4-2-1.1-2.8c-0.7-0.8-1.6-1.2-2.7-1.2    c-1,0-1.9,0.4-2.7,1.2C529.3,249.9,528.9,250.8,528.9,251.9z M531.7,252.2v2.1h-0.6v-5.1h1.6c0.6,0,1,0.1,1.4,0.4    c0.3,0.3,0.5,0.6,0.5,1.1c0,0.3-0.1,0.5-0.2,0.7s-0.4,0.4-0.6,0.5c0.3,0.1,0.5,0.3,0.6,0.5c0.1,0.2,0.2,0.5,0.2,0.8v0.3    c0,0.2,0,0.3,0,0.4c0,0.1,0,0.2,0.1,0.3v0.1h-0.6c0-0.1-0.1-0.2-0.1-0.4s0-0.3,0-0.5v-0.3c0-0.3-0.1-0.6-0.2-0.7    c-0.2-0.1-0.4-0.2-0.8-0.2H531.7z M531.7,251.7h1.1c0.3,0,0.6-0.1,0.8-0.2s0.3-0.4,0.3-0.7c0-0.3-0.1-0.6-0.3-0.7s-0.5-0.2-1-0.2    h-1V251.7z" />
	</g>
	<g id="guides">
	</g>
	<g id="clear_space">
	</g>
	<g id="labels">
	</g>
</g>
</svg>