<?xml version="1.0" encoding="utf-8"?>
<svg version="1.2" baseProfile="tiny-ps" xmlns="http://www.w3.org/2000/svg" xmlns:xlink="http://www.w3.org/1999/xlink" viewBox="0 0 170 170" xml:space="preserve">
<title>UCS CO.,LTD.</title>
<g>
	<path fill="#EF8201" d="M46.271,96.949c10.347,10.346,24.103,16.045,38.734,16.045c30.206,0,54.78-24.574,54.78-54.78
		c0-10.392-2.878-20.341-8.25-28.942l-6.793,0.006h-0.594h-19.573c9.525,6.34,15.805,17.17,15.805,29.47
		c0,19.54-15.84,35.381-35.38,35.381c-19.54,0-35.381-15.841-35.381-35.381c0-12.3,6.28-23.13,15.806-29.47H45.852h-0.594
		l-6.782-0.006c-5.372,8.601-8.25,18.55-8.25,28.942C30.226,72.846,35.923,86.602,46.271,96.949z"/>
	<path fill="#EA5405" d="M154.8,69.907c-0.073-1.067-0.169-2.126-0.29-3.179c-0.06-0.526-0.126-1.051-0.198-1.574
		c-0.144-1.046-0.31-2.083-0.499-3.114c-0.095-0.515-0.195-1.028-0.301-1.539c-0.212-1.023-0.445-2.037-0.701-3.042
		c-2.428-9.551-6.821-18.318-12.723-25.846c-0.622-0.793-1.26-1.571-1.913-2.336h-1.357c5.089,8.896,7.801,19.004,7.801,29.529
		c0,15.923-6.2,30.893-17.46,42.152c-11.259,11.259-26.229,17.46-42.152,17.46c-15.923,0-30.892-6.201-42.152-17.46
		C31.595,89.7,25.394,74.73,25.394,58.807c0-10.737,2.855-20.819,7.842-29.529h-1.412c-0.654,0.764-1.292,1.542-1.913,2.336
		c-5.902,7.528-10.295,16.294-12.724,25.846c-0.255,1.005-0.489,2.019-0.701,3.042c-0.106,0.511-0.206,1.024-0.3,1.539
		c-0.189,1.031-0.356,2.068-0.499,3.114c-0.072,0.522-0.138,1.047-0.198,1.574c-0.12,1.053-0.217,2.113-0.29,3.179
		c-0.109,1.599-0.165,3.214-0.165,4.841c0,0.899,0.017,1.793,0.051,2.683c0.503,13.353,4.751,25.748,11.72,36.168l0,0l0,0
		c-0.011-0.001-0.021-0.001-0.031-0.002c8.476,12.674,20.983,22.418,35.684,27.414c0.046,0.016,0.092,0.032,0.138,0.048
		c0.427,0.144,0.857,0.282,1.288,0.418c0.188,0.06,0.376,0.119,0.566,0.177c0.391,0.12,0.784,0.237,1.178,0.351
		c0.24,0.068,0.48,0.135,0.721,0.201c0.367,0.101,0.733,0.203,1.101,0.299c0.361,0.092,0.723,0.179,1.086,0.267
		c0.454,0.109,0.909,0.215,1.367,0.315c0.408,0.09,0.818,0.179,1.229,0.262c0.261,0.052,0.523,0.101,0.784,0.15
		c0.414,0.079,0.83,0.154,1.247,0.225c0.24,0.041,0.478,0.081,0.718,0.119c0.493,0.079,0.989,0.151,1.486,0.22
		c0.162,0.022,0.323,0.047,0.484,0.067c0.694,0.091,1.39,0.171,2.09,0.241c0.7,0.07,1.402,0.13,2.108,0.179
		c0.087,0.006,0.174,0.011,0.261,0.016c0.641,0.043,1.283,0.076,1.928,0.102c0.083,0.003,0.167,0.006,0.25,0.01
		c0.79,0.028,1.582,0.047,2.378,0.048c0.019,0.001,0.039,0.001,0.058,0.001c0.02,0,0.039,0.001,0.059,0.001c0.005,0,0.011,0,0.015,0
		c0.005,0,0.01,0,0.015,0c0.02,0,0.04,0,0.059-0.001c0.019,0,0.039,0,0.058-0.001c0.796-0.001,1.588-0.02,2.377-0.048
		c0.083-0.003,0.167-0.007,0.25-0.01c0.645-0.025,1.288-0.059,1.928-0.102c0.087-0.006,0.174-0.01,0.26-0.016
		c0.706-0.049,1.409-0.109,2.108-0.179c0.7-0.07,1.397-0.15,2.09-0.241c0.162-0.02,0.323-0.045,0.485-0.067
		c0.497-0.069,0.993-0.141,1.486-0.22c0.24-0.038,0.48-0.078,0.718-0.119c0.417-0.071,0.833-0.146,1.247-0.225
		c0.262-0.049,0.524-0.098,0.784-0.15c0.412-0.083,0.821-0.172,1.23-0.262c0.457-0.1,0.913-0.206,1.367-0.315
		c0.362-0.088,0.725-0.174,1.085-0.267c0.368-0.096,0.735-0.198,1.101-0.299c0.241-0.066,0.483-0.132,0.721-0.201
		c0.394-0.114,0.787-0.231,1.178-0.351c0.189-0.059,0.377-0.118,0.566-0.177c0.431-0.136,0.861-0.274,1.287-0.418
		c0.047-0.016,0.091-0.032,0.138-0.048c14.702-4.996,27.208-14.74,35.684-27.414c-0.01,0.001-0.021,0.001-0.031,0.002l0,0l0,0
		c6.969-10.42,11.216-22.815,11.72-36.168c0.034-0.89,0.05-1.785,0.05-2.683C154.965,73.122,154.91,71.507,154.8,69.907z"/>
	
		<ellipse transform="matrix(0.9926 -0.1217 0.1217 0.9926 -6.5117 10.7828)" fill="#E50112" cx="85" cy="58.689" rx="24.766" ry="24.766"/>
</g>
</svg>
