<svg baseProfile="tiny-ps" version="1.2" width="451" height="451" viewBox="0 0 451 451" fill="none" xmlns="http://www.w3.org/2000/svg">
<title>Altezza Travel</title>
<path d="M451 0H0V451H451V0Z" fill="#FFD334"/>
<path fill-rule="evenodd" d="M317.5 329.3C317.3 325.2 316.4 321.5 309.9 316.4C307.5 314.5 305.9 301.5 304.8 289.4C303.9 279.4 306 278.7 313.2 275.1C314 274.7 315 274.9 315.5 275.7L316 276.5L316.3 277.1L319.4 299C319.5 299.6 319.9 305.1 320.2 307.6C321.5 317.9 328.1 320.9 337.5 320.5C341.5 320.3 347.4 319.1 347.7 315.6C348.2 307.9 344 302.1 344.4 297.4C349.2 280.1 353.9 264.8 358.8 248C362 237 363.8 228.1 364.6 219.8C367.1 195.5 365.7 177.6 360.4 155.3C359.8 152.6 358.8 147.8 357.5 143.5C355.9 137.9 354.8 135.6 350.8 131.4C345.5 125.9 338.8 122.2 331.6 119.7C321.4 116.2 310 115.3 299.7 116.3C291.3 117.1 287.9 120.1 281 126.7C269.3 137.9 267.6 138.9 253.6 146.5C248.8 148.5 249.3 153 249.7 154C251.6 159.2 252.6 162.7 255 165.2C256.2 166.4 256.8 167.1 259.6 168.1L251.4 175.4C240.1 184 236.2 186 223 182.8C208.1 179.2 196.1 177.4 183.9 176.7C163.2 175.6 139.1 183.5 122.5 198.3C105.4 213.4 101.9 234.4 88.5996 252.8C82.7996 260.8 76.9996 267.1 69.8996 273C66.7996 275.6 63.0996 278.2 59.2996 280.8C54.8996 283.9 50.2996 287.6 54.4996 292.9C59.1996 298.7 66.4996 297.3 72.9996 295.3C86.1996 291.3 100.5 283.1 111.6 274.7C112.8 273.8 114.6 274.8 114.3 277.9L109.5 304.9C109.2 307.9 107.5 317 109.9 320.5C116.1 329.5 121.6 333.5 133.4 332.4C136.8 332.1 141.2 331.6 144.2 329.9C147.5 328.1 147.6 325 147.2 322C146.9 319.4 141.7 314.1 138.3 311.1C137.8 310.7 137.8 310 138 309.4C138.8 305.9 141.3 306.2 144.8 304.8C152.6 301.6 159.8 298.2 165.2 288.2C167.2 284.4 170 287.5 170 288L169 300.2C169.3 311.2 175 315.1 185 316.3C191.7 317.1 199 316.5 201.3 314.7C202.5 313.8 202.9 311.2 202.9 309.7C202.1 306.2 200.7 305 196.8 300.7C196 300.3 195.8 297.6 196.1 296.8L200.3 287.6C201.9 284.7 202.7 283.8 206.2 284C221.8 286.4 233.4 292 258.6 285C259.4 284.8 260.1 285.1 260.6 285.7L261.7 287.2L261.9 287.4C270.7 300.1 279.6 314.6 287.2 328.2C288.9 331.6 292.8 333.2 293.5 333.5C295.9 334.3 304.9 334.1 309.8 333.4C310.7 333.3 311.6 333.1 312.4 332.9C313.2 332.7 313.9 332.5 314.5 332.2C316.6 331.8 317.6 330.7 317.5 329.3Z" fill="black"/>
<path fill-rule="evenodd" d="M265.801 171.4L294.701 177.6C295.701 177.8 296.401 178.6 296.401 179.6L298.601 212.6C298.601 213.1 298.401 213.6 297.901 213.9C297.401 214.2 296.901 214.1 296.501 213.8L272.901 196C272.601 195.8 272.301 195.7 271.901 195.8C271.501 195.9 271.201 196 271.001 196.4L254.301 220.7C253.901 221.3 253.101 221.4 252.501 221.1L247.501 218C246.901 217.6 246.201 217.8 245.801 218.3L236.701 230.4C236.301 231 235.501 231.1 234.901 230.7L215.601 217.5C215.201 217.2 214.601 217.2 214.201 217.5C213.801 217.8 213.501 218.2 213.601 218.8L216.001 244.8C216.001 245.4 215.801 245.9 215.301 246.1C214.801 246.4 214.301 246.3 213.801 245.9L178.801 215.2C178.501 214.9 178.101 214.8 177.801 214.9C177.401 215 177.101 215.2 176.901 215.5L162.901 237.9L158.301 236.7C157.701 236.5 157.201 236.8 156.901 237.3L150.201 248.2C150.001 248.6 149.701 248.8 149.201 248.8C148.801 248.9 148.401 248.7 148.101 248.4L146.301 246.7C146.001 246.4 145.701 246.3 145.301 246.3C144.901 246.3 144.601 246.5 144.401 246.8L128.701 265.6C128.301 266.1 127.701 266.2 127.201 266C126.701 265.8 126.401 265.2 126.401 264.6L130.601 231.4C130.701 230.8 130.301 230.2 129.801 230C129.201 229.8 128.601 230 128.201 230.5C111.301 255.9 103.901 266.7 78.1013 282.7C68.9013 288.4 60.2013 292.6 58.6013 289.5C57.8013 287.8 59.0013 286.5 60.7013 285.4C65.5013 282.2 70.0013 279.4 74.5013 275.6C82.6013 268.7 90.2013 260.5 96.5013 250.7C104.501 238.2 110.301 222.3 119.401 210C131.201 194 155.801 184.2 175.001 183C187.201 182.3 199.501 184 216.601 187.9C244.801 194.1 243.901 188.1 265.801 171.4Z" fill="#FEFEFE"/>
<path fill-rule="evenodd" d="M307.9 132.4L312.7 138.2V138.3C312.9 138.6 313.2 138.7 313.6 138.8C314 138.8 314.3 138.7 314.6 138.5L318.3 135.2C318.6 135 318.9 134.8 319.3 134.9C319.7 134.9 320 135.1 320.2 135.4L329.1 146.5C329.4 146.9 329.8 147.1 330.3 147L339.7 145.7C342.1 145.4 342.5 145.7 343.4 146.7L353 158L354.8 160.2L357.1 163C357.2 163.2 357.5 163.2 357.7 163.1C357.9 163 358 162.8 357.9 162.6L357.4 160.3L354.3 147.5C351.7 136.7 346.3 132.2 336.7 126.8C327 121.3 302.5 117.4 292.8 123.1C290.2 124.6 288.7 126 287.1 127.8C284.4 130.7 283.8 131.7 284.9 133.1C286.6 135.2 287.4 134.3 289.8 133.8L303.6 131C306.4 130.3 306.2 130.3 307.9 132.4Z" fill="#FEFEFE"/>
</svg>
