<?xml version="1.0" encoding="UTF-8"?>
<!-- Generator: Adobe Illustrator 24.2.3, SVG Export Plug-In . SVG Version: 6.00 Build 0) -->
<svg version="1.2" baseProfile="tiny-ps" id="Layer_1" xmlns="http://www.w3.org/2000/svg" xmlns:xlink="http://www.w3.org/1999/xlink" viewBox="40 -2 400 400">
    <title>Leatherman Tool Group, Inc</title>
    <g transform="translate(0.000000,395.000000) scale(0.100000,-0.100000)">
        <path d="M0,1975V0h2380h2380v1975v1975H2380H0V1975z M2600,3215c243-40,469-156,656-337c107-103,185-209,248-335   c95-190,136-362,136-573c0-147-19-268-61-393c-37-111-107-252-167-337c-61-85-220-244-304-303c-215-151-462-229-728-230   c-214,0-368,36-560,131l-115,57l103,3c89,2,112-1,172-22c255-92,552-91,813,5c257,93,500,312,626,565c137,273,160,607,63,894   c-64,187-142,313-286,456c-218,219-460,326-767,341c-553,26-1029-330-1179-882c-28-102-38-335-20-456c15-107,66-263,121-370   c45-87,48-111,30-199l-7-34l-42,64c-95,143-169,328-197,489c-22,124-20,341,5,462C1279,2891,1914,3328,2600,3215z M2335,2938   c-4-27-61-532-125-1113c-6-55-13-110-16-122l-4-23h-263h-263l27,228c15,125,44,371,64,547c41,356,53,400,126,458   c62,49,98,56,287,57h173L2335,2938z M3240,1645c0-64-33-312-45-341c-20-48-81-110-133-136c-47-23-51-23-484-26l-438-3v34   c0,18,11,130,25,247c14,118,25,223,25,233c0,16,32,17,525,17h525V1645z M2050,1518c0-35-47-437-55-475l-5-23h-260h-260v25   c0,35,49,477,55,493c3,9,66,12,265,12h260V1518z" fill="#393B42" />
    </g>
</svg>
