<svg xmlns="http://www.w3.org/2000/svg" xmlns:xlink="http://www.w3.org/1999/xlink" version="1.2" viewBox="0 0 1000 1000" baseProfile="tiny-ps"><title>Alignable Logo Icon</title><rect width="1000" height="1000" fill="#FFFFFF" fill-rule="evenodd"/><path d="M966.81,338.63C899.99,144.1,716.03,3.95,499.97,3.95  c-35.3,0-69.72,3.83-102.99,10.91c-20.14,4.34-39.83,9.94-59,16.67c2.51,7.7,4.98,15.41,7.48,23.12  c12.14,37.47,24.78,76.57,38.03,115.53c7.76,22.82,15.79,45.5,23.95,67.81c25.95,70.72,53.94,136.82,84.29,186.44  c13.37,21.85,27.26,40.11,41.52,54.52c20.69,20.82,42.34,33.3,65.06,33.3c33.26-0.03,64.16-25.74,93.04-67.19  c24.71,49.74,49.95,114.4,71.84,175.75c-46.27,39.92-100.02,63.94-164.81,63.95h-0.07c-49.19,0-91.92-14.11-130.02-38.04  c-18.03-11.35-35.27-24.52-51.27-40.25c-45.58-44.84-83.34-106.44-116.53-177.01c-11.61-24.71-22.73-50.44-33.33-77.14  c-29.56-74.14-55.9-154.4-81.79-234.35c-17.45,14.52-33.9,30.26-49.19,47.04C55.52,253.34,6.2,370.99,6.2,499.99  c0,112.71,37.69,216.74,100.99,300.14c14.3,18.85,29.93,36.69,46.75,53.29c17.81-50.68,34.61-102.74,50.47-151.88  c21.17-65.66,42.59-131.63,65.75-194.56c35.18,65.92,75.91,122.48,124.91,164.14c-9.4,28.28-18.46,56.35-27.26,83.6  c-21.65,67.13-43.49,134.73-67.22,198.9c18.59,8.3,37.78,15.5,57.49,21.48c44.97,13.54,92.62,20.95,141.89,20.95  c132.69,0,253.18-52.92,341.97-138.73c17-16.39,32.72-33.94,47.26-52.59c-5.5-16.78-10.91-33.58-16.34-50.35  c-12.07-37.41-24.71-76.43-37.96-115.3c-7.8-22.88-15.77-45.54-23.96-67.89c-25.89-70.64-53.84-136.79-84.23-186.44  c-13.33-21.88-27.22-40.15-41.53-54.55c-5.13-5.19-10.39-9.88-15.65-13.97c-15.86-12.29-32.23-19.29-49.31-19.29  c-33.24,0-64.22,25.71-93.11,67.21c-24.77-49.8-49.94-114.39-71.89-175.75c5.77-5,11.68-9.74,17.7-14.23  c42.23-31.4,90.48-49.75,147.25-49.75c0.03,0,0.09,0,0.16,0c49.08,0,91.74,14.08,129.82,37.99c18.1,11.34,35.25,24.5,51.29,40.22  c45.58,44.86,83.29,106.49,116.49,177.08c11.64,24.74,22.7,50.49,33.36,77.19c13.44,33.76,26.21,68.83,38.55,104.52  c2.49-20.15,3.95-40.61,3.95-61.44C993.8,443.5,984.23,389.25,966.81,338.63" fill="#654A9E" fill-rule="evenodd"/></svg>
