<?xml version="1.0" encoding="utf-8"?>
<!-- Generator: Adobe Illustrator 16.0.0, SVG Export Plug-In . SVG Version: 6.00 Build 0)  -->
<svg version="1.2" baseProfile="tiny-ps" id="Layer_1" xmlns="http://www.w3.org/2000/svg" xmlns:xlink="http://www.w3.org/1999/xlink"
	 width="96px" height="96px" viewBox="0 0 96 96" xml:space="preserve">
<title>Maine School of Science and Mathematics</title>
<g>
	<path fill="#FFFFFF" d="M87.463,59.535c-1.4,0-2.6,0.699-2.6,1.5c0,0.8,1.1,1.5,2.6,1.5s2.6-0.7,2.6-1.5
		C90.063,60.234,88.863,59.535,87.463,59.535"/>
	<path d="M81.963,33.735c0,0-2.5,0-2.9,0c-0.5,0-0.6-0.4-0.299-0.8c0.199-0.5,0.899-0.9,1.799-1.101c0.9-0.2,1.602-0.2,1.602-0.2
		s0.6-0.899,2.699-1.3c1-0.2,1.199-0.2,1.9-0.2c0.699,0,2.799,0.2,4.299,2.101c0.9,1.1,1.201,2.2,1.5,3.399
		c0.301,1.601,0.801,3.801,1.301,5.9c0.5,2.099,1.5,5,1,8.3s-1.301,5.301-1.199,6.801c0.1,1.5,0,3.399,0,3.399s0.1,0.601-0.301,0.7
		c-0.399,0.1-0.6,0.1-0.6,0.1s0,0.2-0.4,0.2c-0.5,0-1.1-0.101-1.1-0.101l0.1,2c0,0,0.301,0.301,0.4,0.801s0.1,0.5,0.1,0.5
		l-0.699,0.3c0,0-0.4,1-0.602,0.899c-0.198,0-0.1-1.199-0.6-1.3c-0.6-0.101-0.9,0-1,0.3c-0.199,0.301-0.199,0.7-0.199,0.7
		s-0.601,0-0.701-0.301c-0.1-0.3,0-1,0-1h-0.898v-1.399c0,0,1.398-0.601,1.8-1c0.4-0.399,0.2-0.699,0-0.699
		c-0.2-0.101-0.399-0.101-0.5-0.301c-0.399-0.101-0.7-0.199-1-0.199s-1.1,0-1.1,0l-7.101-13.3c0,0,0-1.9,0.399-3.301
		c0.399-1.399,0.8-1.399,1.399-2.199c0.5-0.801,0.699-1.601,1.199-2.9c0.5-1.299,0.5-1.3,0.5-1.3l0.102-1.4c0,0-0.4-1.7-0.5-1.8
		C82.163,33.936,81.963,33.735,81.963,33.735z"/>
	<path fill="#FFFFFF" d="M83.264,35.936c0.1-0.2,0.1-0.2,1.1-0.101c1,0.2,1,0.5,1.601,0.3c0.601-0.1,1.5-0.8,1.8-0.8
		c0.301,0,1.2,0,1.7-0.2c0.5-0.199,0.399-0.899,0.399-1.199c0-0.301,0.199-0.4,0.199-0.4s1,3.4,1.201,4.6
		c0.199,1.2,0.5,3.601-0.301,5.2c-0.8,1.5-1.699,3.601-2.1,4.9c-0.301,1.3-1.7,5.6-2,6.7c-0.2,1-0.102,3.301,0.8,3.5
		c0.8,0.2,1.3-0.8,1.5-1.399c0.2-0.601,0.5-1.7,0.601-1.899c0.1-0.199,0.199,0.199,0.199,0.5s0,1.1-0.9,2.399
		c-0.898,1.3-1.699,2-1.699,2l-2.699-0.101l-2.9-13.899c0,0-0.199-1.3-0.199-1.5c0-0.2,0.399-1.7,0.5-2.2s0-2.2,0-2.2
		s1.199-2.699,1.301-3C83.363,36.635,83.264,35.936,83.264,35.936z"/>
	<path fill="#121280" d="M81.463,41.936c0,0.6-0.1,0.899-0.4,1.699c-0.199,0.801,0,2.301,0,2.301h-1.199c0,0-0.199-1.2,0.4-2.4
		C80.963,42.235,81.463,41.936,81.463,41.936z"/>
	<path fill="#FBCF11" d="M84.764,33.235c-0.5-0.101-0.801-0.3-2.301-0.3s-3.199,0-3.199,0s0.299-0.7,1.699-0.801
		c1.301-0.1,1.301-0.199,2,0c0.7,0.301,1.5,0.7,1.801,0.801C84.963,33.235,84.764,33.235,84.764,33.235z"/>
	<path fill="none" stroke="#000000" stroke-width="0.2419" stroke-linecap="round" stroke-miterlimit="10" d="M81.963,32.635
		c-0.3-0.1-0.6-0.199-0.9,0"/>
	<path fill="#FFE207" d="M83.764,33.436c0,0.199-1.801,0.199-1.701,0C82.063,33.235,83.764,33.235,83.764,33.436z"/>
	<path fill="#121280" d="M82.963,35.335c0,0-0.3-0.899-0.3-1.1c-0.101-0.2,0.7-0.5,1-0.3c0.3,0.1,1.2,0,1.7,0s0.699-0.7,0.398-0.801
		c-0.3-0.199-1.5-0.8-2.199-1c-0.699-0.199-0.801-0.3-0.801-0.3s0.602-0.899,2.7-1c2.2-0.1,3.2,1.4,3.601,2
		c0.399,0.601,0.399,1.2,0.301,1.601c0,0.3-0.301,0.699-0.9,0.699s-0.4-0.199-1,0.101c-0.6,0.3-1.6,0.8-2,0.8
		C85.163,35.735,83.764,34.936,82.963,35.335z"/>
	<path fill="#FBCF11" d="M84.363,35.936c1,0.199,1,0.5,1.6,0.3c0.6-0.101,1.5-0.8,1.801-0.8c0,0,1.199,0.899,1.6,2.699
		c0.4,1.801,0.5,3.5-0.1,4.7c-0.601,1.2-1.601,3-2.301,3.3c-0.699,0.301-3.5-1.3-3.699-2.699c-0.201-1.301,0.299-3.301,0.699-4.5
		C84.163,37.835,84.363,35.936,84.363,35.936z"/>
	<path d="M86.363,32.436c0,0-0.301,0-0.5,0.199c-0.2,0.101-0.4,0-0.602-0.199c-0.199-0.2-0.199-0.301,0-0.5
		c0.102-0.2,0.301-0.4,0.7-0.301c0.399,0,0.399,0.301,0.399,0.5v0.301H86.363z"/>
	<path fill="#121280" d="M89.463,31.535c0.5,1,1.9,3.5,2.5,7s0.2,3.2,0.2,3.2s0.399-0.2,0.5-0.2s0.2,0.3,0,0.4s-0.7,1-1,1.5
		s-0.5,0.899-0.5,0.899l-0.3,0.101c0,0-1.2,4-1.801,5.799c-0.699,1.801-1.5,4.801-1.5,5.5c0,0.701,0.199,2,0.5,2
		s0.5-0.299,0.899-1.299s0.399-1.301,0.399-1.301s0.801-1.501,1.699-2.301c0.801-0.8,1.4-2.398,1.4-2.6s-0.2-1.102,0-1.7
		c0.2-0.599,0.4-1.1,0.4-1.5c0-0.4,0-0.9,0.1-1c0.1-0.1,0.3-0.1,0.3-0.1s0.3,0.8,0.2,1.399c-0.1,0.601-0.4,0.9-0.3,1.8
		c0.1,0.9-0.2,1.301-0.3,1.801c-0.102,0.5-1.102,2-1.5,2.301c-0.4,0.3-0.5,0.5-0.7,1.6c-0.101,1-0.8,3-1.3,3.7
		s-0.801,0.899-0.801,0.899s0.399,0.101,0.399,0.2c0,0.199,0,0.699,0,0.699s0.7-0.399,0.8-0.3c0.2,0.101,0.2,0.101,0.2,0.101
		s0.5-0.399,0.601-0.301c0.199,0.101,0.301,0.301,0.301,0.301l0.398-0.601c0,0,0.2-0.2,0.2-0.301c0-0.1-0.101-0.799,0.101-1.199
		c0.199-0.399,0.5-0.7,0.5-0.7v-0.5c0,0,0.301-0.601,0.399-0.3c0,0.3,0.2,0.5-0.101,1s-0.5,1.199-0.5,1.5c0,0.3,0,0.8-0.101,1
		c-0.1,0.199-0.7,0.3-0.5,0.5c0.2,0.101,0.3,0.101,0.3,0.101l0.5-0.301l0.102,0.2l0.199-0.1c0,0,0.399,0,0.5-0.102
		c0-0.199-0.199-2.699,0.101-4.3c0.3-1.7,1-5,1.2-7.2c0.3-3.7-1.5-12.5-4-16.7C89.963,31.635,89.463,31.535,89.463,31.535z"/>
	<path fill="#918883" d="M85.563,32.335c-0.198-0.1-0.198-0.5,0.102-0.5c0.199,0,0.398-0.1,0.398,0.2c0,0.3-0.1,0.3-0.198,0.3
		C85.764,32.335,85.563,32.335,85.563,32.335z"/>
	<rect x="85.796" y="31.917" transform="matrix(0.7167 0.6974 -0.6974 0.7167 46.6109 -50.81)" width="0.101" height="0.1"/>
	<ellipse fill="#07234B" cx="60.563" cy="61.035" rx="2.602" ry="1.5"/>
	<path d="M55.063,33.735c0,0-2.5,0-2.898,0c-0.5,0-0.602-0.4-0.301-0.8c0.199-0.5,0.9-0.9,1.801-1.101c0.898-0.2,1.6-0.2,1.6-0.2
		s0.602-0.899,2.7-1.3c1-0.2,1.2-0.2,1.899-0.2s2.801,0.2,4.301,2.101c0.898,1.1,1.199,2.2,1.5,3.399c0.3,1.601,0.8,3.801,1.3,5.9
		c0.5,2.099,1.5,5,1,8.3s-1.3,5.301-1.2,6.801c0.102,1.5,0,3.399,0,3.399s0.102,0.601-0.3,0.7c-0.401,0.099-0.6,0.1-0.6,0.1
		s0,0.2-0.4,0.2c-0.5,0-1.1-0.101-1.1-0.101l0.1,2c0,0,0.3,0.301,0.4,0.801c0.1,0.5,0.1,0.5,0.1,0.5l-0.7,0.3c0,0-0.398,1-0.6,0.899
		c-0.2,0-0.102-1.199-0.602-1.3c-0.6-0.101-0.898,0-1,0.3c-0.198,0.301-0.198,0.7-0.198,0.7s-0.601,0-0.7-0.301c-0.102-0.3,0-1,0-1
		h-0.9v-1.399c0,0,1.4-0.601,1.801-1c0.399-0.399,0.199-0.699,0-0.699c-0.199-0.101-0.301-0.101-0.5-0.301
		c-0.199-0.199-0.5-0.199-0.801-0.199c-0.3,0-1.3,0-1.3,0l-7.1-13.3c0,0,0-1.9,0.399-3.301c0.399-1.399,0.799-1.399,1.399-2.199
		c0.5-0.801,0.7-1.601,1.2-2.9c0.5-1.299,0.5-1.3,0.5-1.3l0.1-1.4c0,0-0.4-1.7-0.5-1.8C55.264,33.936,55.063,33.735,55.063,33.735z"
		/>
	<path fill="#FFFFFF" d="M56.363,35.936c0.1-0.2,0.1-0.2,1.1-0.101c1,0.2,1,0.5,1.6,0.3c0.602-0.1,1.5-0.8,1.801-0.8
		s1.199,0,1.699-0.2c0.5-0.199,0.4-0.899,0.4-1.199c0-0.301,0.2-0.4,0.2-0.4s1,3.4,1.2,4.6c0.199,1.2,0.5,3.601-0.301,5.2
		c-0.801,1.5-1.699,3.601-2.101,4.9c-0.3,1.3-1.7,5.6-2,6.7c-0.2,1-0.101,3.301,0.8,3.5c0.801,0.2,1.301-0.8,1.5-1.399
		c0.2-0.601,0.5-1.7,0.602-1.899c0.1-0.199,0.199,0.199,0.199,0.5s0,1.1-0.899,2.399s-1.7,2-1.7,2l-2.699-0.101l-2.9-13.899
		c0,0-0.199-1.3-0.199-1.5c0-0.2,0.398-1.7,0.5-2.2c0.1-0.5,0-2.2,0-2.2s1.199-2.699,1.3-3
		C56.563,36.635,56.363,35.936,56.363,35.936z"/>
	<path fill="#121280" d="M54.563,41.936c0,0.6-0.1,0.899-0.398,1.699c-0.2,0.801,0,2.301,0,2.301h-1.2c0,0-0.2-1.2,0.399-2.4
		C54.063,42.235,54.563,41.936,54.563,41.936z"/>
	<path fill="#FBCF11" d="M57.863,33.235c-0.5-0.101-0.801-0.3-2.301-0.3s-3.199,0-3.199,0s0.3-0.7,1.699-0.801
		c1.301-0.1,1.301-0.199,2,0c0.699,0.301,1.5,0.7,1.801,0.801C58.063,33.235,57.863,33.235,57.863,33.235z"/>
	<path fill="none" stroke="#000000" stroke-width="0.2419" stroke-linecap="round" stroke-miterlimit="10" d="M55.063,32.635
		c-0.299-0.1-0.6-0.199-0.898,0"/>
	<path fill="#FFE207" d="M56.863,33.436c0,0.199-1.801,0.199-1.7,0C55.163,33.235,56.863,33.235,56.863,33.436z"/>
	<path fill="#121280" d="M56.063,35.335c0,0-0.299-0.899-0.299-1.1c-0.101-0.2,0.699-0.5,1-0.3c0.299,0.1,1.199,0,1.699,0
		s0.7-0.7,0.4-0.801c-0.301-0.199-1.5-0.8-2.2-1c-0.7-0.199-0.8-0.3-0.8-0.3s0.6-0.899,2.699-1c2.199-0.1,3.199,1.4,3.601,2
		c0.399,0.601,0.399,1.2,0.3,1.601c0,0.3-0.3,0.699-0.9,0.699c-0.6,0-0.398-0.199-1,0.101c-0.6,0.3-1.6,0.8-2,0.8
		C58.264,35.735,56.863,34.936,56.063,35.335z"/>
	<path fill="#FBCF11" d="M57.463,35.936c1,0.199,1,0.5,1.6,0.3c0.602-0.101,1.5-0.8,1.801-0.8c0,0,1.199,0.899,1.601,2.699
		c0.399,1.801,0.5,3.5-0.101,4.7c-0.6,1.2-1.6,3-2.301,3.3c-0.699,0.301-3.5-1.3-3.699-2.699c-0.199-1.301,0.301-3.301,0.699-4.5
		C57.363,37.835,57.463,35.936,57.463,35.936z"/>
	<path d="M59.463,32.436c0,0-0.3,0-0.5,0.199c-0.199,0.101-0.4,0-0.6-0.199c-0.2-0.2-0.2-0.301,0-0.5c0.1-0.2,0.3-0.4,0.699-0.301
		c0.399,0,0.399,0.301,0.399,0.5L59.463,32.436L59.463,32.436z"/>
	<path fill="#121280" d="M62.563,31.535c0.5,1,1.9,3.5,2.5,7c0.602,3.5,0.201,3.2,0.201,3.2s0.399-0.2,0.5-0.2
		c0.1,0,0.199,0.3,0,0.4c-0.201,0.1-0.701,1-1,1.5c-0.301,0.5-0.5,0.899-0.5,0.899l-0.301,0.101c0,0-1.199,4-1.8,5.799
		c-0.601,1.801-1.5,4.801-1.5,5.5c0,0.701,0.2,2,0.5,2s0.5-0.299,0.899-1.299s0.399-1.301,0.399-1.301s0.8-1.501,1.7-2.301
		c0.8-0.8,1.398-2.398,1.398-2.6s-0.199-1.102,0-1.7c0.201-0.6,0.4-1.1,0.4-1.5c0-0.4,0-0.9,0.1-1c0.102-0.1,0.301-0.1,0.301-0.1
		s0.301,0.8,0.199,1.399c-0.1,0.601-0.299,0.9-0.299,1.899c0.1,0.899-0.201,1.301-0.301,1.801c-0.199,0.5-1.1,2-1.5,2.3
		s-0.5,0.5-0.699,1.601c-0.101,1-0.801,3-1.301,3.7c-0.5,0.699-0.8,0.899-0.8,0.899s0.399,0.101,0.399,0.199
		c0,0.201,0,0.701,0,0.701s0.699-0.4,0.801-0.301c0.199,0.1,0.199,0.1,0.199,0.1s0.5-0.399,0.601-0.299c0.2,0.1,0.3,0.299,0.3,0.299
		l0.4-0.6c0,0,0.199-0.199,0.199-0.301c0-0.1-0.101-0.8,0.101-1.199c0.2-0.4,0.5-0.699,0.5-0.699v-0.5c0,0,0.3-0.602,0.399-0.301
		c0,0.301,0.199,0.5-0.101,1s-0.5,1.199-0.5,1.5s0,0.801-0.101,1s-0.699,0.301-0.5,0.5c0.199,0.1,0.301,0.1,0.301,0.1l0.5-0.299
		l0.1,0.199l0.2-0.101c0,0,0.399,0,0.5-0.101c0-0.199-0.2-2.699,0.101-4.3c0.301-1.7,1-5.001,1.199-7.2c0.301-3.7-1.5-12.5-4-16.7
		C63.063,31.635,62.563,31.535,62.563,31.535z"/>
	<path fill="#918883" d="M58.764,32.335c-0.201-0.1-0.201-0.5,0.1-0.5c0.199,0,0.4-0.1,0.4,0.2c0,0.3-0.101,0.3-0.201,0.3
		C58.863,32.335,58.764,32.335,58.764,32.335z"/>
	<rect x="58.929" y="32.036" transform="matrix(0.7047 0.7095 -0.7095 0.7047 40.1857 -32.3717)" width="0.1" height="0.099"/>
	<ellipse fill="#07234B" cx="37.863" cy="61.035" rx="2.6" ry="1.5"/>
	<path d="M43.363,33.735c0,0,2.4,0,2.9,0s0.6-0.4,0.3-0.8c-0.2-0.5-0.9-0.9-1.8-1.101c-0.9-0.2-1.6-0.2-1.6-0.2s-0.6-0.899-2.7-1.3
		c-1-0.2-1.2-0.2-1.9-0.2s-2.8,0.2-4.3,2.101c-0.9,1.1-1.2,2.2-1.5,3.399c-0.3,1.601-0.7,3.801-1.3,5.9c-0.5,2.1-1.5,5-1,8.3
		s1.3,5.301,1.2,6.801s0,3.399,0,3.399s-0.1,0.601,0.3,0.7c0.4,0.099,0.6,0.1,0.6,0.1s0,0.2,0.4,0.2c0.5,0,1.1-0.101,1.1-0.101
		l-0.1,2c0,0-0.4,0.301-0.4,0.801c-0.1,0.399-0.1,0.399-0.1,0.399l0.7,0.3c0,0,0.4,1,0.6,0.899c0.2,0,0.1-1.199,0.6-1.3
		c0.6-0.1,0.9,0,1,0.3c0.2,0.301,0.2,0.7,0.2,0.7s0.6,0,0.7-0.301c0.1-0.299,0-1,0-1h0.9v-1.399c0,0-1.4-0.601-1.8-1
		c-0.4-0.399-0.2-0.699,0-0.699c0.2-0.101,0.4-0.101,0.5-0.301c0.2-0.199,0.5-0.199,0.8-0.199c0.4,0,1.1,0,1.1,0l7.1-13.301
		c0,0,0-1.899-0.4-3.3c-0.4-1.401-0.8-1.4-1.4-2.2c-0.5-0.8-0.7-1.6-1.2-2.899c-0.2-1.2-0.2-1.2-0.2-1.2l-0.1-1.4
		c0,0,0.4-1.7,0.5-1.8C43.163,33.934,43.363,33.735,43.363,33.735z"/>
	<path fill="#FFFFFF" d="M42.063,35.936c-0.1-0.2-0.1-0.2-1.1-0.101c-1,0.2-1,0.5-1.6,0.3c-0.6-0.1-1.5-0.8-1.8-0.8s-1.2,0-1.7-0.2
		c-0.5-0.199-0.4-0.899-0.4-1.199c0-0.301-0.2-0.4-0.2-0.4s-1,3.4-1.2,4.6c-0.2,1.2-0.5,3.601,0.3,5.2c0.8,1.5,1.7,3.601,2.1,4.9
		c0.3,1.3,1.7,5.6,2,6.7c0.2,1,0.1,3.301-0.8,3.5c-0.8,0.2-1.3-0.8-1.5-1.399c-0.2-0.601-0.5-1.7-0.6-1.899s-0.2,0.199-0.2,0.5
		s0,1.1,0.9,2.399c0.9,1.3,1.7,2,1.7,2l2.7-0.101l2.9-13.899c0,0,0.2-1.3,0.2-1.5c0-0.2-0.4-1.7-0.5-2.2c-0.1-0.5,0-2.2,0-2.2
		s-1.2-2.699-1.3-3C41.963,36.635,42.063,35.936,42.063,35.936z"/>
	<path fill="#121280" d="M43.863,41.936c0,0.6,0.1,0.899,0.4,1.699c0.2,0.801,0,2.301,0,2.301h1.2c0,0,0.2-1.2-0.4-2.4
		C44.363,42.235,43.863,41.936,43.863,41.936z"/>
	<path fill="#FBCF11" d="M40.563,33.235c0.5-0.101,0.8-0.3,2.3-0.3s3.2,0,3.2,0s-0.3-0.7-1.7-0.801c-1.3-0.1-1.3-0.199-2,0
		c-0.7,0.301-1.5,0.7-1.8,0.801C40.363,33.235,40.563,33.235,40.563,33.235z"/>
	<path fill="none" stroke="#000000" stroke-width="0.2419" stroke-linecap="round" stroke-miterlimit="10" d="M43.363,32.635
		c0.3-0.1,0.6-0.199,0.9,0"/>
	<path fill="#FFE207" d="M41.563,33.436c0,0.199,1.8,0.199,1.7,0C43.263,33.235,41.563,33.235,41.563,33.436z"/>
	<path fill="#121280" d="M42.363,35.335c0,0,0.3-0.899,0.3-1.1c0.1-0.2-0.7-0.5-1-0.3c-0.3,0.1-1.2,0-1.7,0s-0.7-0.7-0.4-0.801
		c0.3-0.199,1.5-0.8,2.2-1c0.7-0.199,0.8-0.3,0.8-0.3s-0.6-0.899-2.7-1c-2.2-0.1-3.2,1.4-3.6,2c-0.4,0.601-0.4,1.2-0.3,1.601
		c0,0.3,0.3,0.699,0.9,0.699c0.5,0,0.4-0.199,1,0.101c0.6,0.3,1.6,0.8,2,0.8C40.163,35.735,41.563,34.936,42.363,35.335z"/>
	<path fill="#FBCF11" d="M40.963,35.936c-1,0.199-1,0.5-1.6,0.3c-0.6-0.101-1.5-0.8-1.8-0.8c0,0-1.2,0.899-1.6,2.699
		c-0.4,1.801-0.5,3.5,0.1,4.7s1.6,3,2.3,3.3c0.7,0.301,3.5-1.3,3.7-2.699c0.2-1.301-0.3-3.301-0.7-4.5
		C41.063,37.835,40.963,35.936,40.963,35.936z"/>
	<path d="M38.963,32.436c0,0,0.3,0,0.5,0.199c0.2,0.101,0.4,0,0.6-0.199c0.2-0.2,0.2-0.301,0-0.5c-0.1-0.2-0.3-0.4-0.7-0.301
		c-0.4,0-0.4,0.301-0.4,0.5V32.436z"/>
	<path fill="#121280" d="M35.863,31.535c-0.5,1-1.9,3.5-2.5,7c-0.6,3.5-0.2,3.2-0.2,3.2s-0.4-0.2-0.5-0.2s-0.2,0.3,0,0.4
		c0.2,0.1,0.7,1,1,1.5c0.3,0.5,0.5,0.899,0.5,0.899l0.3,0.101c0,0,1.2,4,1.8,5.799c0.7,1.801,1.5,4.801,1.5,5.5c0,0.701-0.2,2-0.5,2
		c-0.3,0-0.5-0.299-0.9-1.299c-0.4-1-0.4-1.301-0.4-1.301s-0.8-1.501-1.7-2.301c-0.8-0.8-1.4-2.398-1.4-2.6s0.2-1.102,0-1.7
		c-0.2-0.6-0.4-1.1-0.4-1.5c0-0.4,0-0.9-0.1-1c-0.1-0.1-0.3-0.1-0.3-0.1s-0.3,0.8-0.2,1.399c0.1,0.601,0.4,0.9,0.3,1.8
		c-0.1,0.9,0.2,1.301,0.3,1.801c0.2,0.5,1.1,2,1.5,2.301c0.4,0.3,0.5,0.5,0.7,1.6c0.1,1,0.8,3,1.3,3.7s0.8,0.899,0.8,0.899
		s-0.4,0.101-0.4,0.2c0,0.199,0,0.699,0,0.699s-0.7-0.199-0.9-0.101c-0.2,0.1-0.2,0.101-0.2,0.101s-0.5-0.399-0.6-0.3
		c-0.1,0.101-0.2,0.199-0.2,0.199l-0.4-0.6c0,0-0.2-0.199-0.2-0.301c0-0.1,0.1-0.8-0.1-1.199c-0.2-0.4-0.5-0.699-0.5-0.699v-0.5
		c0,0-0.3-0.602-0.4-0.301c0,0.301-0.2,0.5,0.1,1c0.3,0.5,0.5,1.199,0.5,1.5s0,0.801,0.1,1s0.7,0.301,0.5,0.5
		c-0.2,0.1-0.3,0.1-0.3,0.1l-0.5-0.299l-0.1,0.199l-0.2-0.101c0,0-0.4,0-0.5-0.101c0-0.199,0.2-2.699-0.1-4.3
		c-0.3-1.7-1-5.001-1.2-7.2c-0.3-3.7,1.5-12.5,4-16.7C35.363,31.635,35.863,31.535,35.863,31.535z"/>
	<path fill="#918883" d="M39.763,32.335c0.2-0.1,0.2-0.5-0.1-0.5c-0.2,0-0.4-0.1-0.4,0.2c0,0.3,0.1,0.3,0.2,0.3
		S39.763,32.335,39.763,32.335z"/>
	<rect x="39.491" y="31.989" transform="matrix(-0.7047 0.7095 -0.7095 -0.7047 90.1373 26.5597)" width="0.1" height="0.1"/>
	<path fill="#FFFFFF" d="M10.063,59.535c-1.4,0-2.6,0.699-2.6,1.5c0,0.8,1.1,1.5,2.6,1.5c1.4,0,2.6-0.7,2.6-1.5
		C12.663,60.234,11.463,59.535,10.063,59.535"/>
	<path d="M15.563,33.735c0,0,2.4,0,2.9,0s0.6-0.4,0.3-0.8c-0.2-0.5-0.9-0.9-1.8-1.101s-1.6-0.2-1.6-0.2s-0.6-0.899-2.7-1.3
		c-1-0.2-1.2-0.2-1.9-0.2c-0.7,0-2.7,0.2-4.3,2.101c-0.9,1.1-1.2,2.2-1.5,3.399c-0.4,1.601-0.8,3.801-1.3,5.9
		c-0.5,2.099-1.5,5-1,8.3s1.3,5.301,1.2,6.801c-0.1,1.5,0,3.399,0,3.399s-0.1,0.601,0.3,0.7s0.6,0.1,0.6,0.1s0,0.2,0.4,0.2
		c0.5,0,1.1-0.101,1.1-0.101l-0.1,2c0,0-0.4,0.301-0.4,0.801c-0.1,0.5-0.1,0.5-0.1,0.5l0.7,0.3c0,0,0.4,1,0.6,0.899
		c0.2,0,0.1-1.199,0.6-1.3c0.6-0.101,0.9,0,1,0.3c0.2,0.399,0.3,0.801,0.3,0.801s0.6,0,0.7-0.301c0.1-0.3,0-1,0-1h0.9v-1.399
		c0,0-1.4-0.601-1.8-1s-0.2-0.7,0-0.7c0.2-0.1,0.4-0.1,0.5-0.3c0.3-0.2,0.5-0.3,0.9-0.3c0.3,0,1.1,0,1.1,0l7.1-13.3
		c0,0,0-1.9-0.4-3.301c-0.4-1.399-0.8-1.399-1.4-2.199c-0.5-0.801-0.7-1.601-1.2-2.9c-0.4-1.3-0.4-1.3-0.4-1.3l-0.1-1.4
		c0,0,0.4-1.7,0.5-1.8C15.363,33.936,15.563,33.735,15.563,33.735z"/>
	<path fill="#FFFFFF" d="M14.263,35.936c-0.1-0.2-0.1-0.2-1.1-0.101c-1,0.2-1,0.5-1.6,0.3c-0.6-0.1-1.5-0.8-1.8-0.8
		c-0.3,0-1.2,0-1.7-0.2c-0.5-0.199-0.4-0.899-0.4-1.199c0-0.301-0.2-0.4-0.2-0.4s-1,3.4-1.2,4.6c-0.2,1.2-0.5,3.601,0.3,5.2
		c0.8,1.601,1.7,3.601,2.1,4.9c0.3,1.3,1.7,5.6,2,6.7c0.2,1,0.1,3.301-0.8,3.5c-0.8,0.2-1.3-0.8-1.5-1.399
		c-0.2-0.601-0.5-1.7-0.6-1.899c-0.2-0.199-0.3,0.199-0.3,0.5s0,1.1,0.9,2.399c0.9,1.299,1.7,2,1.7,2l2.7-0.101l2.9-13.899
		c0,0,0.2-1.3,0.2-1.5c0-0.2-0.4-1.7-0.5-2.2c-0.1-0.5,0-2.2,0-2.2s-1.2-2.699-1.3-3C14.063,36.635,14.263,35.936,14.263,35.936z"/>
	<path fill="#121280" d="M16.063,41.936c0,0.6,0.1,0.899,0.4,1.699c0.2,0.801,0,2.301,0,2.301h1.2c0,0,0.2-1.2-0.4-2.4
		C16.563,42.235,16.063,41.936,16.063,41.936z"/>
	<path fill="#FBCF11" d="M12.763,33.235c0.5-0.101,0.8-0.3,2.3-0.3s3.2,0,3.2,0s-0.5-0.7-1.8-0.801c-1.3-0.1-1.3-0.199-2,0
		c-0.7,0.301-1.5,0.7-1.8,0.801C12.463,33.235,12.763,33.235,12.763,33.235z"/>
	<path fill="none" stroke="#000000" stroke-width="0.2419" stroke-linecap="round" stroke-miterlimit="10" d="M15.463,32.635
		c0.3-0.1,0.6-0.199,0.9,0"/>
	<path fill="#FFE207" d="M13.763,33.436c0,0.199,1.7,0.199,1.7,0C15.463,33.235,13.763,33.235,13.763,33.436z"/>
	<path fill="#121280" d="M14.463,35.335c0,0,0.3-0.899,0.3-1.1c0.1-0.2-0.7-0.5-1-0.3c-0.3,0.1-1.2,0-1.7,0s-0.7-0.7-0.4-0.801
		c0.3-0.199,1.5-0.8,2.2-1c0.7-0.199,0.8-0.3,0.8-0.3s-0.6-0.899-2.7-1c-2.2-0.1-3.2,1.4-3.6,2c-0.4,0.601-0.4,1.2-0.3,1.601
		c0,0.3,0.3,0.699,0.9,0.699c0.5,0,0.4-0.199,1,0.101c0.6,0.3,1.6,0.8,2,0.8C12.363,35.735,13.763,34.936,14.463,35.335z"/>
	<path fill="#FBCF11" d="M13.163,35.936c-1,0.199-1,0.5-1.6,0.3c-0.6-0.101-1.5-0.8-1.8-0.8c0,0-1.2,0.899-1.6,2.699
		c-0.4,1.801-0.5,3.5,0.1,4.7c0.6,1.2,1.6,3,2.3,3.3c0.7,0.301,3.5-1.3,3.7-2.699c0.2-1.301-0.3-3.301-0.7-4.5
		C13.263,37.835,13.163,35.936,13.163,35.936z"/>
	<path d="M11.163,32.436c0,0,0.3,0,0.5,0.199c0.2,0.101,0.4,0,0.6-0.199c0.2-0.2,0.2-0.301,0-0.5c-0.1-0.2-0.3-0.4-0.7-0.301
		c-0.4,0-0.4,0.301-0.4,0.5V32.436z"/>
	<path fill="#121280" d="M8.063,31.535c-0.5,1-1.9,3.5-2.5,7c-0.6,3.6-0.1,3.3-0.1,3.3s-0.4-0.2-0.5-0.2s-0.2,0.301,0,0.4
		c0.2,0.099,0.7,1,1,1.5c0.3,0.5,0.5,0.9,0.5,0.9l0.3,0.1c0,0,1.2,4,1.8,5.8s1.5,4.801,1.5,5.5c0,0.7-0.2,2-0.5,2s-0.5-0.3-0.9-1.3
		s-0.4-1.301-0.4-1.301s-0.9-1.601-1.8-2.399c-0.8-0.8-1.4-2.399-1.4-2.601c0-0.2,0.2-1.101,0-1.699c-0.2-0.6-0.4-1.1-0.4-1.5
		c0-0.4,0-0.9-0.1-1c-0.1-0.1-0.3-0.1-0.3-0.1s-0.3,0.8-0.2,1.399c0.1,0.601,0.3,0.9,0.2,1.9c-0.1,0.898,0.2,1.3,0.3,1.8
		c0.2,0.5,1.1,2,1.5,2.3s0.5,0.5,0.7,1.602c0.1,1,0.8,3,1.3,3.699s0.8,0.899,0.8,0.899s-0.4,0.101-0.4,0.2c0,0.199,0,0.699,0,0.699
		s-0.7-0.3-0.8-0.199c-0.2,0.1-0.2,0.1-0.2,0.1s-0.5-0.398-0.6-0.3c-0.1,0.101-0.2,0.2-0.2,0.2l-0.4-0.601c0,0-0.2-0.2-0.2-0.301
		s0.1-0.8-0.1-1.199c-0.2-0.399-0.5-0.7-0.5-0.7v-0.5c0,0-0.3-0.601-0.4-0.3c0,0.3-0.2,0.5,0.1,1c0.3,0.5,0.5,1.199,0.5,1.5
		c0,0.3,0,0.8,0.1,1c0.1,0.199,0.7,0.3,0.5,0.5c-0.2,0.101-0.3,0.101-0.3,0.101l-0.5-0.301l-0.1,0.2l-0.2-0.101c0,0-0.4,0-0.5-0.1
		c0-0.201,0.2-2.701-0.1-4.301c-0.3-1.699-1-5.001-1.2-7.199c-0.3-3.701,1.5-12.5,4-16.701C7.563,31.635,8.063,31.535,8.063,31.535z
		"/>
	<path fill="#918883" d="M11.863,32.335c0.2-0.1,0.2-0.5-0.1-0.5c-0.2,0-0.4-0.1-0.4,0.2c0,0.3,0.1,0.3,0.2,0.3
		C11.763,32.335,11.863,32.335,11.863,32.335z"/>
	<rect x="11.649" y="32.045" transform="matrix(-0.7047 0.7095 -0.7095 -0.7047 42.7149 46.4102)" width="0.1" height="0.1"/>
	<polygon fill="none" stroke="#000000" stroke-width="2.6604" stroke-miterlimit="10" points="11.363,64.436 11.363,60.734 
		12.663,60.835 12.663,50.734 11.363,50.835 11.363,47.135 16.963,47.135 21.063,54.734 25.163,47.135 30.763,47.135 30.763,50.835 
		29.463,50.734 29.463,60.835 30.763,60.734 30.763,64.436 25.063,64.436 25.063,55.335 21.063,62.535 17.063,55.335 17.063,64.436 
			"/>
	<path fill="none" stroke="#000000" stroke-width="2.6604" stroke-miterlimit="10" d="M35.063,64.436v-5.3h4.4v1.699h2.7v-3.399
		h-3.4c-0.7,0-1.2-0.101-1.7-0.199c-0.5-0.1-0.8-0.301-1.1-0.5c-0.4-0.301-0.7-0.7-0.9-1.2s-0.3-1.2-0.3-2v-2.3
		c0-1.5,0.3-2.602,0.9-3.2c0.6-0.6,1.6-0.9,3-0.9h7.6v5.101h-4.2v-1.5h-2.6v3.201h3.4c2.6-0.102,4,1.1,4,3.5v3.398
		c0,2.5-1.3,3.7-4,3.7L35.063,64.436L35.063,64.436z"/>
	<path fill="none" stroke="#000000" stroke-width="2.6604" stroke-miterlimit="10" d="M50.863,64.436v-5.3h4.398v1.699h2.7v-3.399
		h-3.5c-0.7,0-1.2-0.101-1.7-0.199c-0.398-0.101-0.8-0.301-1.1-0.5c-0.4-0.301-0.7-0.7-0.9-1.2c-0.199-0.5-0.3-1.2-0.3-2v-2.3
		c0-1.5,0.3-2.602,0.899-3.2c0.601-0.6,1.601-0.9,3-0.9h7.601v5.101h-4.2v-1.5h-2.699v3.201h3.399c2.601-0.102,4,1.1,4,3.5v3.398
		c0,2.5-1.3,3.7-4,3.7L50.863,64.436L50.863,64.436z"/>
	<polygon fill="none" stroke="#000000" stroke-width="2.6604" stroke-miterlimit="10" points="66.363,64.436 66.363,60.734 
		67.563,60.835 67.563,50.734 66.363,50.835 66.363,47.135 71.963,47.135 76.063,54.734 80.163,47.135 85.663,47.135 85.663,50.835 
		84.463,50.734 84.463,60.835 85.663,60.734 85.663,64.436 80.063,64.436 80.063,55.335 76.063,62.535 72.063,55.335 72.063,64.436 
			"/>
	<polygon fill="none" stroke="#FFFFFF" stroke-width="0.9674" stroke-miterlimit="10" points="11.363,64.436 11.363,60.734 
		12.663,60.835 12.663,50.734 11.363,50.835 11.363,47.135 16.963,47.135 21.063,54.734 25.163,47.135 30.763,47.135 30.763,50.835 
		29.463,50.734 29.463,60.835 30.763,60.734 30.763,64.436 25.063,64.436 25.063,55.335 21.063,62.535 17.063,55.335 17.063,64.436 
			"/>
	<path fill="none" stroke="#FFFFFF" stroke-width="0.9674" stroke-miterlimit="10" d="M35.063,64.436v-5.3h4.4v1.699h2.7v-3.399
		h-3.4c-0.7,0-1.2-0.101-1.7-0.199c-0.5-0.1-0.8-0.301-1.1-0.5c-0.4-0.301-0.7-0.7-0.9-1.2s-0.3-1.2-0.3-2v-2.3
		c0-1.5,0.3-2.602,0.9-3.2c0.6-0.6,1.6-0.9,3-0.9h7.6v5.101h-4.2v-1.5h-2.6v3.201h3.4c2.6-0.102,4,1.1,4,3.5v3.398
		c0,2.5-1.3,3.7-4,3.7L35.063,64.436L35.063,64.436z"/>
	<path fill="none" stroke="#FFFFFF" stroke-width="0.9674" stroke-miterlimit="10" d="M50.863,64.436v-5.3h4.398v1.699h2.7v-3.399
		h-3.5c-0.7,0-1.2-0.101-1.7-0.199c-0.398-0.101-0.8-0.301-1.1-0.5c-0.4-0.301-0.7-0.7-0.9-1.2c-0.199-0.5-0.3-1.2-0.3-2v-2.3
		c0-1.5,0.3-2.602,0.899-3.2c0.601-0.6,1.601-0.9,3-0.9h7.601v5.101h-4.2v-1.5h-2.699v3.201h3.399c2.601-0.102,4,1.1,4,3.5v3.398
		c0,2.5-1.3,3.7-4,3.7L50.863,64.436L50.863,64.436z"/>
	<polygon fill="none" stroke="#FFFFFF" stroke-width="0.9674" stroke-miterlimit="10" points="66.363,64.436 66.363,60.734 
		67.563,60.835 67.563,50.734 66.363,50.835 66.363,47.135 71.963,47.135 76.063,54.734 80.163,47.135 85.663,47.135 85.663,50.835 
		84.463,50.734 84.463,60.835 85.663,60.734 85.663,64.436 80.063,64.436 80.063,55.335 76.063,62.535 72.063,55.335 72.063,64.436 
			"/>
	<polygon fill="#121280" points="11.363,64.436 11.363,60.734 12.663,60.835 12.663,50.734 11.363,50.835 11.363,47.135 
		16.963,47.135 21.063,54.734 25.163,47.135 30.763,47.135 30.763,50.835 29.463,50.734 29.463,60.835 30.763,60.734 30.763,64.436 
		25.063,64.436 25.063,55.335 21.063,62.535 17.063,55.335 17.063,64.436 	"/>
	<path fill="#121280" d="M35.063,64.436v-5.3h4.4v1.699h2.7v-3.399h-3.4c-0.7,0-1.2-0.101-1.7-0.199c-0.5-0.1-0.8-0.301-1.1-0.5
		c-0.4-0.301-0.7-0.7-0.9-1.2s-0.3-1.2-0.3-2v-2.3c0-1.5,0.3-2.602,0.9-3.2c0.6-0.6,1.6-0.9,3-0.9h7.6v5.101h-4.2v-1.5h-2.6v3.201
		h3.4c2.6-0.102,4,1.1,4,3.5v3.398c0,2.5-1.3,3.7-4,3.7L35.063,64.436L35.063,64.436z"/>
	<path fill="#121280" d="M50.863,64.436v-5.3h4.398v1.699h2.7v-3.399h-3.5c-0.7,0-1.2-0.101-1.7-0.199
		c-0.398-0.101-0.8-0.301-1.1-0.5c-0.4-0.301-0.7-0.7-0.9-1.2c-0.199-0.5-0.3-1.2-0.3-2v-2.3c0-1.5,0.3-2.602,0.899-3.2
		c0.601-0.6,1.601-0.9,3-0.9h7.601v5.101h-4.2v-1.5h-2.699v3.201h3.399c2.601-0.102,4,1.1,4,3.5v3.398c0,2.5-1.3,3.7-4,3.7
		L50.863,64.436L50.863,64.436z"/>
	<polygon fill="#121280" points="66.363,64.436 66.363,60.734 67.563,60.835 67.563,50.734 66.363,50.835 66.363,47.135 
		71.963,47.135 76.063,54.734 80.163,47.135 85.663,47.135 85.663,50.835 84.463,50.734 84.463,60.835 85.663,60.734 85.663,64.436 
		80.063,64.436 80.063,55.335 76.063,62.535 72.063,55.335 72.063,64.436 	"/>
</g>
</svg>
