<svg xmlns="http://www.w3.org/2000/svg" xmlns:xlink="http://www.w3.org/1999/xlink" version="1.2" viewBox="0 0 1080 1080" baseProfile="tiny-ps">
  <title>DocVilla</title>
  <rect width="1080" height="1080" fill="#FFFFFF"/>
  <g>
    <polygon points="667.5,474.7 627.4,474.7 627.4,434.6 600.9,434.6 600.9,474.7 560.7,474.7 560.7,501.2    600.9,501.2 600.9,541.4 627.4,541.4 627.4,501.2 667.5,501.2  " fill="#707171"/>
    <g>
      <g>
        <path d="M1001.6,464h5.7c1.3,0,2.3,0.3,2.9,0.8c0.6,0.5,0.9,1.2,0.9,2.1s-0.2,1.1-0.5,1.6     s-0.8,0.9-1.4,1.1c-0.6,0.2-1.5,0.3-2.6,0.3h-5.1V464l0,0H1001.6z M1001.6,480v-8h4.1c0.4,0,0.7,0.2,1.1,0.5     c0.4,0.2,0.8,0.6,1.2,1.2s1,1.4,1.7,2.5l2.4,3.7h3l-3.1-4.9c-0.6-1-1.3-1.8-2-2.4c-0.3-0.3-0.8-0.6-1.4-0.9     c1.7-0.2,3-0.8,3.8-1.7c0.8-0.9,1.2-2,1.2-3.2s-0.2-1.9-0.7-2.7c-0.5-0.8-1.2-1.4-2-1.7c-0.8-0.3-2.1-0.5-3.7-0.5h-8v18h2.4V480z     " fill="#231F20"/>
        <path d="M1007.1,452.2c-10.4,0-18.8,8.4-18.8,18.8s8.4,18.8,18.8,18.8s18.8-8.4,18.8-18.8     S1017.5,452.2,1007.1,452.2L1007.1,452.2L1007.1,452.2z M1019,482.9c-3.1,3.1-7.3,4.9-11.9,4.9s-8.9-1.9-11.9-4.9     c-3.1-3.1-4.9-7.3-4.9-11.9s1.9-8.9,4.9-11.9c3.1-3.1,7.3-4.9,11.9-4.9s8.9,1.9,11.9,4.9c3.1,3.1,4.9,7.3,4.9,11.9     S1022,479.9,1019,482.9z" fill="#231F20"/>
      </g>
      <g>
        <g>
          <path d="M528.3,580.2c0-0.9,0-1.6-0.3-2.2c-0.2-0.6-0.5-1.2-1.1-1.9c-1.3-1.6-2.8-2.7-5-3.6      c-2.4-1-4.7-1.4-7.3-1.4s-1.6,0.2-2.4,0.5c-0.8,0.3-1.7,0.9-2.7,1.8c-2.3,2.1-3.9,4.4-5,7.5l-41.9,111.8l-41.9-111.8l0,0      c-1.1-2.9-2.6-5.2-4.9-7.4c-1.1-1-2-1.6-2.8-1.9c-0.8-0.3-1.5-0.5-2.3-0.5c-2.1,0-3.9,0.3-5.6,0.8s-3.2,1.3-4.8,2.4      c-1.1,0.8-1.7,1.5-2.2,2.1c-0.4,0.6-0.7,1.2-0.9,2c-0.1,0.5-0.2,1.2-0.2,1.9c0,2.8,0.5,6.1,1.6,9.8l52.9,133.2l0,0      c0.6,1.4,1.2,2.6,2,3.6s1.6,1.8,2.7,2.6c1.1,0.7,2.1,1.3,3.3,1.6c1.2,0.4,2.4,0.5,4,0.6c1.4,0,2.4-0.2,3.3-0.5s1.8-0.8,2.7-1.6      c1.7-1.5,3.7-4.2,5.4-8.7l0,0L526.8,590c1.1-3.2,1.6-6.3,1.6-9.6v-0.2L528.3,580.2z" fill="#0D71B3"/>
          <g>
            <path d="M611.6,597.3c-2.3,0-4,0.5-5.5,1.5s-2.6,2.3-3.5,4.1c-0.9,1.9-1.3,4-1.3,6.3v112.2       c0,3.7,1,6.5,3,8.9c1.9,2.2,3.9,3.2,7.4,3.2s5.8-1.1,7.6-3.2c1.9-2.3,2.9-5.1,2.9-8.9V609.2c0-3.7-1-6.4-2.9-8.7l0,0       c-1.9-2.1-4-3.1-7.6-3.2L611.6,597.3L611.6,597.3z" fill="#0D71B3"/>
            <path d="M550.6,730.3c1.9,2.2,3.9,3.2,7.4,3.2s5.8-1.1,7.6-3.2c1.9-2.3,2.9-5.1,2.9-8.9V652       c0-3.8-1-6.5-2.9-8.7c-1.9-2.1-4-3.1-7.6-3.2c-3.5,0-5.6,1-7.4,3.1c-1.9,2.3-2.9,5-2.9,8.8v69.4c0,3.7,1,6.5,3,8.9l-3,2.5       l3-2.5l0,0L550.6,730.3z" fill="#0D71B3"/>
            <path d="M549.5,619.2c2.6,2.7,5.3,3.8,8.9,3.8s6.2-1.2,8.9-3.8c2.6-2.7,3.7-5.5,3.8-9       c0-2.3-0.6-4.4-1.7-6.4c-1.2-2-2.7-3.6-4.7-4.8s-4-1.7-6.3-1.7c-3.6,0-6.2,1.2-8.9,3.8c-2.6,2.7-3.7,5.5-3.8,9.1       C545.7,613.8,546.9,616.5,549.5,619.2" fill="#0D71B3"/>
            <path d="M777.3,640.1c-2.4,0-4.2,0.6-5.8,1.8s-3.1,3.2-4.4,6.3l-2.2,5.4l-4.1-4.2       c-3.7-3.8-7.1-6.3-10.3-7.8c-3-1.5-6.9-2.3-11.7-2.3c-9.8,0-18.5,3.8-26.7,11.9l0,0c-9.2,9.1-13.8,20.6-13.8,35.4       s5.2,28.2,15.6,37.5c7.7,6.7,16,9.9,25.5,9.9s8.6-0.9,11.5-2.4c3-1.6,6.2-4.2,9.4-8.1l4.3-5.3l2.3,6.4c1.2,3.3,2.7,5.5,4.3,6.8       s3.4,1.9,5.9,2c3.6,0,5.7-1.1,7.7-3.5c2.1-2.6,3.1-5.6,3.2-9.6v-69.6c0-3.2-1-5.4-3.1-7.6c-2.2-2.1-4.4-3.1-7.6-3.1l0,0       L777.3,640.1z M763.6,700.7c-1.9,4.2-4.7,7.8-8.4,10.4c-3.8,2.7-8.4,4.1-13.3,4.1c-7.3,0-13.7-3.3-17.4-9.3       c-3.6-5.7-5.3-12.3-5.3-19.7s1.9-13.2,5.7-18.8l0,0c3.9-5.9,10.1-9.2,17-9.1c7.8,0,14.6,2.9,18.7,8.8       c3.9,5.6,5.8,12.5,5.8,20.5S765.5,696.6,763.6,700.7z" fill="#0D71B3"/>
            <path d="M662.8,597.3c-2.3,0-4,0.5-5.5,1.5s-2.6,2.3-3.5,4.1c-0.9,1.9-1.3,4-1.3,6.3v112.2       c0,3.7,1,6.5,3,8.9c1.9,2.2,3.9,3.2,7.4,3.2s5.8-1.1,7.6-3.2c1.9-2.3,2.9-5.1,2.9-8.9V609.2c0-3.7-1-6.4-2.9-8.7l0,0       c-1.9-2.1-4-3.1-7.6-3.2L662.8,597.3L662.8,597.3z" fill="#0D71B3"/>
          </g>
        </g>
        <polygon points="614.1,341.7 379.2,534.4 614.1,382.8 849,534.4    " fill="#0D71B3"/>
        <g>
          <path d="M1041.1,729.2l-11.9-69.4c0-0.7-0.3-1.5-0.5-2.2c-1.6-4.9-5.5-8.9-10.6-10.4l-51.8-15.6l-2-0.6      c-2.1-0.6-4.3-0.2-6,1.1l-32,23.9l2,0.9l0,0l-2-0.9l-2.1,0.9l0,0l2.1-0.9l-32-23.9c-1.7-1.3-3.9-1.7-6-1.1l-53.8,16.2      c-5.8,1.7-10.1,6.6-11.1,12.6l-11.9,69.4c-0.8,4.8,2.9,9.1,7.7,9.1h214.1c3.6,0,6.6-2.5,7.5-5.7c0.3-1.1,0.4-2.2,0.2-3.4l0,0      L1041.1,729.2z" fill="#E72829"/>
          <g>
            <path d="M899.1,600c-19,1-33.9,16.6-33.9,35.6v14.2c-6.8,1.2-12.5,5.9-14.9,12.3c-0.6,1.7-1,3.5-1.2,5.3       l-2.9,36.7c-0.2,2.8,0.7,5.5,2.6,7.5c1.9,2,4.5,3.2,7.3,3.2h4.9c2.2,0,3.9-1.8,3.9-3.9s-1.8-3.9-3.9-3.9h-4.9       c-0.6,0-1.2-0.2-1.6-0.7c-0.4-0.4-0.6-1-0.6-1.6l2.9-36.7c0-1.1,0.3-2.2,0.7-3.2c1.7-4.5,6.1-7.5,11.1-7.6h0.6       c4.9,0,9.1,2.7,11,7c0.5,1.2,0.8,2.5,0.9,3.8l2.9,36.7c0,0.6-0.2,1.2-0.6,1.6s-1,0.7-1.6,0.7h-4.9c-2.2,0-3.9,1.8-3.9,3.9       s1.8,3.9,3.9,3.9h4.9c2.8,0,5.4-1.2,7.3-3.2c1.9-2,2.8-4.8,2.6-7.5l-2.9-36.7c-0.2-2.1-0.7-4.2-1.5-6.2       c-2.6-6.1-8.1-10.3-14.6-11.5v-14.1c0-14.8,11.6-27.1,26.4-27.8c2.2,0,3.8-1.9,3.7-4.1c0-2.2-1.9-3.8-4.1-3.7H899.1L899.1,600z       " fill="#FFFFFF"/>
            <path d="M987.5,666.9v-31.3c0-19.1-14.9-34.7-34-35.6c-2.2,0-4,1.6-4.1,3.7c0,2.2,1.6,4,3.7,4.1       c14.9,0.7,26.5,12.9,26.5,27.8v31.2c-7.2,1.7-12.5,8.2-12.5,15.9s7.3,16.4,16.4,16.4s16.4-7.3,16.4-16.4       S994.6,668.6,987.5,666.9L987.5,666.9L987.5,666.9z" fill="#FFFFFF"/>
          </g>
          <path d="M982.2,546.8v-41.6c0-14.9-12.1-27-27-27h-57.9c-14.9,0-27,12.1-27,27v41.6c-3.4,0.8-6,3.8-6,7.5      v6c0,4.3,3.5,7.7,7.7,7.7h6.1v0.5c0,8.8,7.6,27.6,22.5,38.7v13.5c0,5.4-3.8,11.5-9.1,12.6l-11,2l27.6,25.9      c10.2,9.6,26,9.6,36.2,0l27.6-25.9l-11-2c-5.3-1.1-9.1-7.2-9.1-12.6v-13.5c14.9-11.1,22.5-29.9,22.5-38.7V568h6.1      c4.3,0,7.7-3.5,7.7-7.7v-6c0-3.7-2.6-6.7-6-7.5H982.2L982.2,546.8z" fill="#E72829"/>
        </g>
        <path d="M382.8,709.3c0,0.3-1.6,1.3-4.8,2.8c-3.2,1.5-7.5,2.9-12.8,4.2s-11.6,1.9-19,1.9     c-9.2-0.7-15.3-5.1-18.3-13.5c-3-8.3-4.4-19.1-4.4-32.3s1.8-20.1,5.4-27.3s10.8-10.8,21.7-10.8c8.3,0.2,15.2,1,20.6,2.6     c5.5,1.5,9.2,2.8,11.3,3.9l-3.4-16.3c-2.8-0.8-7.3-1.8-13.7-3c-6.4-1.2-13.6-1.9-21.6-2.1c-12.6,0-22.7,1.9-30.2,5.8     c-7.5,3.8-13,9.6-16.5,17.4c-3.5,7.7-5.4,17.7-5.8,29.8c0,15.2,1.8,27.2,5.3,36c3.6,8.8,9.4,15.1,17.4,18.9     c8.1,3.9,19,5.8,32.8,5.8c9.9-0.3,18-1.1,24.4-2.4c6.4-1.3,9.6-2.2,9.6-2.7L382.8,709.3L382.8,709.3L382.8,709.3z M210.5,646     c2.7-7.3,9-11,18.7-11.3c9.4,0,15.4,3.8,17.9,11.3s3.8,17.8,3.8,30.8s-1.2,23.4-3.7,30.6c-2.5,7.2-8.5,10.8-18,10.8     s-11.8-2-15.1-6.1s-5.3-8.7-6-13.7c-0.7-5.1-1.3-12.5-1.7-22.2c0-12.8,1.4-22.8,4.1-30.1l0,0V646z M174.8,676.4     c0,19.9,4.3,34.5,13,43.7c8.6,9.2,22.1,13.8,40.3,14c19.2,0,33.1-4.7,41.6-14s12.8-24,12.8-44s-1.7-23.4-5.1-31.7     s-9.1-14.6-16.9-18.9c-7.9-4.3-18.4-6.4-31.5-6.4c-35.7,0-53.7,19.1-54,57.3L174.8,676.4L174.8,676.4z M128.2,698.1     c-4.8,9.9-14,14.9-27.7,14.9H74.7V594.3h23.1c10.4,0,18.3,2.5,23.8,7.5s9.1,11.7,10.9,20.2c1.8,8.5,2.8,18.9,2.9,31.4     C135.4,673.3,133,688.2,128.2,698.1L128.2,698.1L128.2,698.1z M38.8,574.6v158.1h69.3c13.5,0,24.4-2.9,32.8-8.8     c8.4-5.9,14.4-14.6,18.2-26.3s5.7-26.4,5.7-44.3s-4.3-44.1-12.8-58s-22.9-20.8-43.2-20.8h-70V574.6z" fill="#E72829"/>
      </g>
    </g>
  </g>
</svg>