<?xml version="1.0" encoding="utf-8"?>
<!-- Generator: Adobe Illustrator 24.0.2, SVG Export Plug-In . SVG Version: 6.00 Build 0)  -->
<svg version="1.2" baseProfile="tiny-ps" id="Layer_1" xmlns="http://www.w3.org/2000/svg" xmlns:xlink="http://www.w3.org/1999/xlink"
	 viewBox="0 0 100 100" xml:space="preserve">

<title> Equal Eats </title>
<g>
	<path fill="#18C2B2" d="M64.9,45.6h12.8v-2.9H64.9V45.6z M64.9,52.2h12.8v-2.9H64.9V52.2z"/>
	<g>
		<path fill="none" d="M26.7,31.9c-2.1-0.1-2.7,2.1-2.6,4.2c0,2.4-0.5,7.3,2.6,7c2.1,0.1,2.7-2.1,2.6-4.2
			C29.3,36.5,29.8,31.6,26.7,31.9z"/>
		<polygon fill="none" points="56.4,32.7 56.2,32.7 54.7,38.9 58,38.9 		"/>
		<polygon fill="none" points="56.4,52.7 56.2,52.7 54.7,58.8 58,58.8 		"/>
		<path d="M88,56c-1.5-0.3-4.1-0.4-3.9-2.2c0-2.9,4.7-2.1,5.9-0.4l2-2.2c-1.1-1.3-3-2.2-5.5-2.2c-6.6-0.6-8.2,8.5-1.7,9.6
			c0,0,1.7,0.3,1.7,0.3c1.6,0.3,2.2,0.8,2.2,1.9c-0.1,3.3-5,2.4-6.6,0.3l-2,2.2c2.9,4.1,12.7,3.1,12.2-2.8C92.1,58,90.6,56.4,88,56z
			"/>
		<path d="M53.1,65.5l1-3.9h4.4l1,3.9h3.7l-4.4-16.2H54l-4.4,16.2H53.1z M56.2,52.7h0.2l1.6,6.1h-3.3L56.2,52.7z"/>
		<rect x="64.9" y="29.4" width="3.5" height="10.4"/>
		<path d="M58.5,41.7l1,3.9h3.7l-4.4-16.2H54l-4.4,16.2h3.5l1-3.9H58.5z M56.2,32.7h0.2l1.6,6.1h-3.3L56.2,32.7z"/>
		<rect x="69.6" y="55.1" width="3.5" height="10.4"/>
		<polygon points="17.9,32.2 17.9,29.4 7.6,29.4 7.6,45.6 17.9,45.6 17.9,42.7 11.1,42.7 11.1,38.8 17.7,38.8 17.7,35.9 11.1,35.9 
			11.1,32.2 		"/>
		<path d="M30.2,30c-2.5-1.5-6.3-1.3-8.2,1.1c-1.8,2.5-1.8,5.8-1.5,8.7c0.5,4.7,4.3,7.1,8.8,5.5l3.8,1.8V44l-1.4-0.7
			c0,0,0-0.1,0.1-0.1C33.7,39.8,33.8,32.5,30.2,30z M29.3,38.9c0.1,2.1-0.6,4.3-2.6,4.2c-3.1,0.3-2.6-4.6-2.6-7
			c-0.1-2.1,0.6-4.3,2.6-4.2C29.8,31.6,29.3,36.5,29.3,38.9z"/>
		<path d="M35.9,29.4v9.8c0,4.4,1,6.7,5.7,6.7c4.7,0,5.7-2.3,5.7-6.7v-9.8h-3.5v10.3c0,2.1-0.2,3.4-2.2,3.4c-2,0-2.2-1.3-2.2-3.4
			V29.4H35.9z"/>
		<polygon points="46.8,52.1 46.8,49.3 36.5,49.3 36.5,65.5 46.8,65.5 46.8,62.6 39.9,62.6 39.9,58.7 46.6,58.7 46.6,55.9 
			39.9,55.9 39.9,52.1 		"/>
	</g>
</g>
</svg>
