<?xml version="1.0" encoding="utf-8"?>
<!-- Generator: Adobe Illustrator 27.0.1, SVG Export Plug-In . SVG Version: 6.00 Build 0)  -->
<svg version="1.2" baseProfile="tiny-ps" id="Layer_1" xmlns="http://www.w3.org/2000/svg" xmlns:xlink="http://www.w3.org/1999/xlink"
	 viewBox="0 0 612 612" xml:space="preserve">
	 <title>Macatawa Bank</title>
<rect fill="#FFFFFF" width="612" height="612"/>
<rect fill="#FFFFFF" width="612" height="612"/>
<g>
	<g>
		<path fill="#002395" d="M422.7,347.3c0,0-27.5,28.7-85,38.3l17.1-41c0,0,36.2-6.8,60.9-32.8C415.7,311.7,423.9,330.9,422.7,347.3
			 M412.2,302.1c0,0-9.1,16.5-49.2,23.3c0,0,29.3-68.8,29.3-70.2C392.3,253.8,406.3,280.3,412.2,302.1 M481.7,408.8V175.4H358.5
			l-36.7,83.7v-83.7h-116L104.5,408.8h86.6l64.6-154.2v154.2H328c0,0,64.3-13.7,94.8-50.6c0,0,5.4,26-31,50.6L481.7,408.8
			L481.7,408.8z"/>
	</g>
</g>
</svg>
