<?xml version="1.0"?><svg version="1.2" baseProfile="tiny-ps" viewBox="0 0 300 300" xmlns="http://www.w3.org/2000/svg" xmlns:xlink="http://www.w3.org/1999/xlink"><title>EXEO</title><g><g fill="#fff" transform="matrix(.1 0 0 -.1 0 300)"><path d="M0 1500V0h3000v3000H0V1500z"/></g><g fill="#e7eaf0" transform="matrix(.1 0 0 -.1 0 300)"><path d="M2290 1861c-54-17-107-51-146-93-67-71-89-118-104-221l-9-58 10-62 10-61 25-51 25-50 45-46 45-46 47-24 47-24h210l47 22 47 21 46 47 47 46 31 67 32 67v200l-32 67-31 67-44 43-43 43-50 24-50 24-90 3-90 3-25-8zm230-105 45-23 37-48 36-48 14-46c7-25 13-68 13-96 0-27-6-71-13-96l-14-46-36-48-37-49-50-25-50-25h-150l-41 22-42 21-41 47-41 47-16 55-16 56 4 67 5 68 22 43c42 80 100 128 178 148l38 9 55-5 55-5 45-23zm-2255 91c-3-6-4-170-3-362l3-350 242-3 242-2 11 19 10 20-7 18c-4 10-11 21-17 25l-11 8H372l-13 16-14 17v169l19 14 20 14h365l11 19 10 20-10 25-10 26H372l-13 17-14 16v164l14 16 13 17h363l11 8c6 4 13 15 17 25l7 18-10 20-11 19H269l-4-13zm576-1-12-15 12-22c6-13 54-81 105-153l94-129v-16c0-22-27-64-132-209l-89-123 3-22 3-22 32-3 32-3 16 18c8 10 52 70 98 133l83 115 26 3 25 3 98-136 98-136 36 3 36 3 3 20 3 20-111 154-110 153v50l101 139 100 140-3 22-3 22-28 3-28 3-15-12c-8-7-49-60-91-118-81-112-88-121-115-121h-16l-89 123-88 122-31 3-31 3-12-15zm629-6c-6-12-10-31-8-43l3-22 239-3 239-2 14 11 14 12-3 31-3 31-242 3-242 2-11-20zm-1-321-11-22 11-23 11-24 242 2 243 3v80l-242 3-242 2-12-21zm4-306-13-5v-22c0-12 6-30 13-39l12-17 240 2 240 3 3 30 4 29-18 13-18 13-225-1c-124 0-232-3-238-6z"/></g><g fill="#bfc7d7" transform="matrix(.1 0 0 -.1 0 300)"><path d="M2305 1861c-16-4-48-16-70-26l-40-19-46-46-45-45-30-60-29-60v-220l27-57 26-57 42-45 42-46 57-27 56-28h190l51 23 51 23 46 47 46 47 25 50 24 50 12 64 11 64-11 66-11 65-26 53-27 54-48 45-49 45-47 21-47 21-75 3c-41 2-88 0-105-5zm210-99c54-27 99-77 127-137l22-50v-160l-22-50c-28-60-73-110-126-137l-40-20-56-5-56-5-55 15-54 16-37 31-37 30-30 62-31 61v164l31 61 30 62 37 30c20 16 54 36 77 45l40 15 70-4 70-3 40-21zm-2244 84-11-13 2-349 3-349h490v70l-188 5-189 5-19 24-19 23v155l18 16 19 17h359l12 12c15 15 15 51 0 66l-12 12H371l-15 22-16 22v152l14 20 14 19 194 5 193 5v70l-236 3-236 2-12-14zm576 7c-4-3-7-15-7-25v-18l100-139 100-139v-22c0-30-8-43-121-198l-99-137v-35l25-6c14-3 31-4 39-1 7 3 53 60 100 126 48 66 96 127 108 135l21 15 18-10c10-5 56-62 103-127 46-65 91-124 100-131l15-13 22 4c12 2 26 10 32 19l9 15-107 150c-59 82-111 159-116 172l-9 23 14 27c8 15 55 83 105 152l91 124v35l-20 6-20 6-20-6-20-6-85-120-86-119h-49l-78 107c-42 59-85 115-94 125l-18 18h-23c-13 0-27-3-30-7zm636 0-13-5v-68l248 2 247 3 3 23 4 23-12 15-12 14-227-1c-124 0-232-3-238-6zm-1-325c-7-7-12-21-12-33s5-26 12-33l12-12h452l12 12c7 7 12 21 12 33s-5 26-12 33l-12 12h-452l-12-12zm-10-355 3-38 234-3 233-2 15 11 14 12-3 26-3 26-248 3-248 2 3-37z"/></g><g fill="#8f9eb8" transform="matrix(.1 0 0 -.1 0 300)"><path d="M2313 1860c-60-13-113-43-163-92l-43-43-31-65-31-65v-200l32-67 31-66 42-42 42-42 52-24 53-24 59-6 59-6 62 16 63 15 38 25c52 33 100 90 130 156l26 55 4 86 4 86-16 55-16 55-32 49-33 48-48 37-49 36-41 13c-56 16-142 21-194 10zm180-86 46-16 39-37 39-38 24-49 24-49v-180l-24-49c-27-55-77-108-124-132l-32-17-67-5-68-5-45 13-45 13-45 39-44 39-27 56-28 56 1 81v81l21 46c11 25 35 63 53 84l34 38 50 23 50 24h121l47-16zm-2215 75-18-10v-685l12-12 12-12h454l12 14 12 15-4 23-3 23-193 5-194 5-14 19-14 20v162l14 20 14 19 194 5 193 5v60l-193 5-194 5-14 19-14 20v174l17 13 16 14 191 5 191 5 3 23 4 23-12 15-12 14H516l-221-1-17-10zm575 4c-7-2-13-12-13-22v-16l94-132c52-72 99-140 105-151l11-21-9-23c-5-13-56-89-115-171-58-81-106-151-106-156s7-14 15-21l15-12 22 5 23 6 93 130 93 130 20 6 20 7 21-19c11-10 58-71 104-135l84-117 19-6c10-3 26-3 35 1l16 6v38l-89 123c-104 144-131 186-131 208v17l105 145c58 80 105 150 105 155s-7 15-15 22l-15 12-22-5-23-6-83-116c-46-63-92-120-102-125l-20-10-17 11c-10 6-52 58-93 116-90 126-109 142-147 126zm629-5-12-12v-56h490l6 25 6 25-12 15-12 15h-454l-12-12zm-8-332c-3-8-4-23-2-33l3-18h490v60l-243 3-242 2-6-14zm-4-334v-28l12-12 12-12h454l12 15 12 15-6 25-6 25h-490v-28z"/></g><g fill="#546a94" transform="matrix(.1 0 0 -.1 0 300)"><path d="m2245 1831-60-28-40-44c-51-55-82-118-96-194l-11-59 7-55c4-31 16-79 27-108l19-53 50-54 50-55 43-21c24-11 69-25 100-30l56-9 61 10 61 10 40 20c21 11 57 38 79 60l41 41 31 66 32 67v200l-32 67-32 67-46 45-46 45-55 20-55 21h-164l-60-29zm268-64 47-20 30-34c16-18 40-53 52-76l23-42v-200l-23-42c-12-23-36-58-52-76l-30-34-52-23-53-23h-130l-46 20-46 20-35 35c-19 19-45 57-58 84l-25 49v170l23 50 23 50 37 38c46 48 82 67 141 76 61 10 116 3 174-22zm-2247 67c-8-20-8-658 0-678l6-16h479l6 16 6 17-10 16-10 16-187 5-188 5-14 19-14 20v175l22 15 22 16h365l6 19c3 10 3 26-1 35l-6 16H384l-22 16-22 15v188l16 15 15 16h367l12 15 12 14-7 21-6 20H272l-6-16zm578 1-6-14 106-147 106-147v-36l-53-78c-29-43-81-116-114-161l-62-84 6-14 5-14h58l75 103c41 56 87 117 101 135l26 33 26-3 26-3 94-130 94-130 34-3 34-3v36l-110 153-110 154v46l37 53c20 30 67 96 104 147l68 93-6 15-6 15-31-3-31-3-82-115c-46-63-90-118-98-123l-15-8-20 6-20 6-85 120-86 119h-60l-5-15zm633 8c-4-3-7-19-7-35v-28l243 2 242 3 3 33 3 32h-478l-6-7zm-3-337-6-25 7-10 6-11h479v70h-480l-6-24zm-2-328 3-33 243-3 243-2-3 32-3 33-243 3-243 2 3-32z"/></g><g fill="#223f73" transform="matrix(.1 0 0 -.1 0 300)"><path d="M2280 1844c-25-9-64-30-88-46l-44-30-38-60-39-59-12-54-12-53 5-79 4-78 27-58 26-57 50-49 51-49 55-21 56-21h138l55 21 55 20 48 44 49 43 28 57 28 57 9 62 10 62-10 61-10 61-27 57-28 56-44 40-43 41-47 21-47 21-80 3-80 3-45-16zm199-60 53-16 48-44 48-45 22-52 23-52v-160l-22-50-22-50-42-43-41-42-54-20-53-20h-43c-23 0-65 7-92 15l-50 15-42 36-43 36-26 52-26 51-5 75-4 75 11 40c15 56 62 127 106 160l36 28 47 13c64 17 109 17 171-2zm-2204 54c-3-7-4-166-3-353l3-340h470v60l-193 5-193 5-9 15c-16 25-23 77-18 140l4 60 13 13 12 12 192 5 192 5v60l-192 5-192 5-13 13-13 13-3 87-4 88 20 24 20 25 192 3 191 4-3 26-3 27-233 3-232 2-5-12zm575-8v-20l100-138 100-139v-50l-26-39c-14-21-64-91-111-156l-85-118 6-15 5-15h49l97 135 97 135h58l44-57c25-32 69-92 98-133l54-75 27-3 27-3 6 14 5 14-107 149c-58 82-110 159-115 172l-9 23 14 27c8 15 55 83 105 152l91 125-3 15-2 15h-56l-87-120-87-120-23-3-24-4-19 18c-11 10-52 63-91 118-79 112-83 116-115 116h-23v-20zm637 14c-4-4-7-18-7-31v-23h481l-3 28-3 27-231 3-230 2-7-6zm-3-328c-3-8-4-23-2-33l3-18h470v60l-233 3-232 2-6-14zm-2-338 3-33h470l3 24 4 24-14 8-13 9h-456l3-32z"/></g></g></svg>