<?xml version="1.0" encoding="iso-8859-1"?>
<!-- Generator: Adobe Illustrator 28.7.3, SVG Export Plug-In . SVG Version: 9.03 Build 54978)  -->
<svg version="1.2" baseProfile="tiny-ps" xmlns="http://www.w3.org/2000/svg" xmlns:xlink="http://www.w3.org/1999/xlink"
	 viewBox="0 0 80 80" xml:space="preserve">
<title>beA</title>
<g>
	<path fill="none" d="M13.956,22.894c0.619-0.157,1.255-0.297,1.913-0.412l0,0C15.211,22.597,14.576,22.737,13.956,22.894z"/>
	<path fill="none" d="M8.968,37.157c-0.27-0.414-0.524-0.828-0.761-1.243C8.444,36.33,8.698,36.744,8.968,37.157z"/>
	<path fill="none" d="M18.887,17.653c0.247-0.293,0.499-0.571,0.756-0.837C19.386,17.082,19.134,17.36,18.887,17.653z"/>
	<path fill="none" d="M14.715,48.05c-0.34-0.951-0.635-1.944-0.885-2.98C14.08,46.106,14.375,47.1,14.715,48.05L14.715,48.05z"/>
	<path fill="none" d="M21.335,19.88c0.886,0.173,1.788,0.387,2.704,0.655l0,0C23.123,20.267,22.221,20.053,21.335,19.88z"/>
	<path fill="none" d="M21.018,19.813L21.018,19.813c-1.191-0.214-2.352-0.343-3.462-0.379c-0.613,0.929-1.175,1.952-1.687,3.048
		c0.991-0.17,2.019-0.287,3.084-0.352C19.62,21.297,20.311,20.523,21.018,19.813z"/>
	<path fill="none" d="M10.69,35.054L10.69,35.054L10.69,35.054c0.327,0.843,0.701,1.695,1.12,2.547
		c0.164-0.815,0.359-1.638,0.59-2.464c-0.152-0.848-0.277-1.686-0.365-2.51C11.54,33.433,11.093,34.248,10.69,35.054z"/>
	<path fill="none" d="M11.628,38.614c-0.03,0.177-0.061,0.353-0.088,0.529C11.566,38.967,11.598,38.791,11.628,38.614z"/>
	<path fill="none" d="M8.919,26.728c0-0.026,0.003-0.05,0.003-0.076C8.922,26.679,8.918,26.702,8.919,26.728z"/>
	<path fill="none" d="M11.91,31.16c0.003,0.042,0.005,0.083,0.008,0.125C11.915,31.243,11.913,31.202,11.91,31.16z"/>
	<path fill="none" d="M9.454,37.902L9.454,37.902c0.261-0.705,0.57-1.417,0.903-2.132C10.024,36.485,9.715,37.197,9.454,37.902z"/>
	<path fill="none" d="M11.376,40.339c-0.7-0.797-1.344-1.615-1.922-2.437c-0.418,1.139-0.745,2.258-0.973,3.346
		c-0.069,0.331-0.102,0.648-0.153,0.973c0.051-0.325,0.084-0.642,0.153-0.973c0.809,0.769,1.716,1.498,2.708,2.192
		C11.194,42.439,11.259,41.402,11.376,40.339C11.376,40.339,11.376,40.339,11.376,40.339z"/>
	<path fill="none" d="M7.333,44.464c-0.285-0.238-0.558-0.482-0.813-0.736C6.775,43.982,7.048,44.226,7.333,44.464z"/>
	<path fill="none" d="M11.852,29.852L11.852,29.852C11.852,29.852,11.852,29.852,11.852,29.852L11.852,29.852L11.852,29.852
		c-0.026-1.061,0.005-2.099,0.093-3.1c-1.052,0.603-2.022,1.249-2.896,1.941c0.128,1.103,0.354,2.247,0.667,3.413
		C10.364,31.34,11.078,30.588,11.852,29.852L11.852,29.852z"/>
	<path fill="none" d="M9.715,32.106c0.087,0.324,0.192,0.651,0.294,0.978C9.907,32.757,9.802,32.43,9.715,32.106
		C9.715,32.106,9.715,32.106,9.715,32.106z"/>
	<path fill="none" d="M45.956,37.655c-0.813,0-1.309,0.476-1.645,1.567h2.578c0.039-0.277,0.059-0.455,0.059-0.556
		C46.947,38.012,46.61,37.655,45.956,37.655z"/>
	<path fill="none" d="M32.573,42.594c1.15,0,2.062-1.349,2.062-3.095c0-0.814-0.397-1.269-1.13-1.269
		c-1.169,0-2.121,1.349-2.121,3.054C31.384,42.078,31.859,42.594,32.573,42.594z"/>
	<path fill="#4B829D" d="M35.916,20.265c-0.635-1.188-1.355-2.253-2.139-3.166c-0.151,0.012-0.303,0.023-0.452,0.039
		c-0.457,0.051-0.92,0.113-1.393,0.207c-0.626,0.119-1.262,0.273-1.91,0.47c0.828,0.741,1.637,1.582,2.412,2.514
		C33.638,20.219,34.803,20.202,35.916,20.265z"/>
	<path fill="#317794" d="M24.039,20.534L24.039,20.534c0.865,0.259,1.741,0.559,2.623,0.905c0.909-0.266,1.811-0.487,2.698-0.664
		c-0.859-0.634-1.722-1.204-2.587-1.71c-0.331,0.153-0.657,0.317-0.984,0.486C25.205,19.853,24.619,20.18,24.039,20.534
		L24.039,20.534z"/>
	<path fill="#317794" d="M24.255,22.232c-0.855-0.082-1.697-0.133-2.526-0.153c-0.668,0.49-1.336,1.013-1.988,1.571
		c0.754-0.195,1.524-0.369,2.31-0.519C22.787,22.802,23.525,22.5,24.255,22.232z"/>
	<path fill="#5588A3" d="M41.08,20.528c-0.203-0.555-0.516-1.039-0.941-1.43c-0.426-0.392-0.934-0.662-1.506-0.82l0.001,0.002
		c0.357,0.422,0.647,0.931,0.866,1.513C40.1,19.962,40.632,20.207,41.08,20.528z"/>
	<path fill="#3F7C99" d="M23.213,14.199c1.234,0.215,2.483,0.681,3.714,1.37c1.287-0.576,2.575-0.929,3.824-1.026l0,0h0
		c-1.167-0.666-2.417-1.05-3.724-1.113C25.717,13.37,24.434,13.643,23.213,14.199C23.213,14.199,23.213,14.199,23.213,14.199
		L23.213,14.199z"/>
	<path fill="#3F7C99" d="M18.887,17.653c-0.463,0.55-0.908,1.141-1.331,1.781l0,0c1.111,0.036,2.271,0.164,3.462,0.379
		c0.854-0.858,1.734-1.62,2.625-2.288c-1.249-0.503-2.481-0.853-3.671-1.048c-0.112,0.108-0.219,0.226-0.329,0.339
		C19.386,17.082,19.134,17.36,18.887,17.653z"/>
	<path fill="#317794" d="M15.869,22.482L15.869,22.482C15.869,22.482,15.869,22.482,15.869,22.482
		c-0.421,0.911-0.804,1.874-1.147,2.883c0.831-0.36,1.695-0.692,2.589-0.993c0.527-0.79,1.078-1.533,1.642-2.242
		C17.888,22.195,16.86,22.312,15.869,22.482z"/>
	<path fill="#3F7C99" d="M13.945,28.031c-0.198,0.805-0.37,1.634-0.513,2.483c0.453-0.636,0.929-1.266,1.438-1.888
		c0.351-0.721,0.722-1.425,1.11-2.104C15.273,27.009,14.594,27.513,13.945,28.031L13.945,28.031L13.945,28.031z"/>
	<path fill="#4B829D" d="M13.596,17.27c-0.403,0.209-0.788,0.451-1.154,0.732c-1.043,0.798-1.849,1.832-2.428,3.045
		c0.143-0.084,0.284-0.162,0.431-0.238c0.983-0.509,2.092-0.874,3.301-1.105c0.616-1.27,1.376-2.365,2.268-3.243
		C15.154,16.616,14.342,16.884,13.596,17.27z"/>
	<path fill="#4B829D" d="M8.922,26.653c0,0.026-0.004,0.05-0.003,0.076c0.009,0.638,0.052,1.293,0.13,1.964c0,0,0,0,0,0
		c0.874-0.691,1.844-1.338,2.896-1.941c0,0,0,0,0,0c0.102-1.203,0.284-2.354,0.544-3.438c-0.976,0.319-1.889,0.697-2.723,1.13
		c-0.264,0.136-0.52,0.278-0.768,0.427v0C8.938,25.446,8.916,26.042,8.922,26.653z"/>
	<path fill="#4B829D" d="M12.035,32.627L12.035,32.627c-0.049-0.451-0.087-0.898-0.117-1.342c-0.003-0.042-0.005-0.084-0.008-0.125
		c-0.028-0.44-0.048-0.877-0.058-1.308c-0.774,0.736-1.488,1.488-2.137,2.254c0.087,0.324,0.192,0.651,0.293,0.978
		c0.203,0.653,0.423,1.308,0.681,1.971C11.093,34.248,11.54,33.433,12.035,32.627C12.035,32.628,12.035,32.627,12.035,32.627z"/>
	<path fill="#4B829D" d="M11.81,37.601L11.81,37.601c0.184,0.373,0.4,0.744,0.599,1.115c0.2,0.371,0.383,0.743,0.599,1.115
		c-0.06-0.781-0.096-1.569-0.108-2.375c-0.195-0.779-0.361-1.552-0.5-2.319C12.169,35.963,11.974,36.786,11.81,37.601
		C11.81,37.601,11.81,37.601,11.81,37.601z"/>
	<path fill="#4B829D" d="M18.672,47.236c-0.546-0.557-1.081-1.139-1.607-1.746c-0.099-0.072-0.188-0.149-0.285-0.222
		c-0.545-0.405-1.082-0.815-1.591-1.235c0.358,0.783,0.733,1.534,1.131,2.264l0,0v0C17.078,46.629,17.862,46.944,18.672,47.236z"/>
	<path fill="#5588A3" d="M11.376,40.339c-0.117,1.063-0.182,2.1-0.187,3.102c0,0,0,0,0,0v0c0.821,0.571,1.706,1.117,2.641,1.63
		c-0.211-0.875-0.389-1.79-0.53-2.725C12.615,41.689,11.975,41.022,11.376,40.339z"/>
	<path fill="#5588A3" d="M5.954,27.404c-0.859,1.033-1.458,2.198-1.745,3.479c-0.286,1.28-0.239,2.588,0.097,3.89
		c0.425-1.18,1.103-2.33,1.998-3.424v0C5.958,29.98,5.832,28.651,5.954,27.404z"/>
	<path fill="#5588A3" d="M8.481,41.248c0.228-1.089,0.555-2.208,0.973-3.346l0,0v0c-0.173-0.247-0.324-0.496-0.486-0.745
		c-0.27-0.414-0.524-0.828-0.761-1.243c-0.189-0.332-0.384-0.665-0.55-0.997c-0.714,1.148-1.276,2.303-1.676,3.438
		C6.664,39.358,7.499,40.324,8.481,41.248z"/>
	<path fill="#608EA8" d="M11.42,46.917c0.192,1.338,0.5,2.577,0.925,3.7c1.159,0.33,2.429,0.54,3.771,0.614
		c-0.406-0.754-0.774-1.557-1.108-2.405c-0.099-0.254-0.199-0.513-0.292-0.775h0C13.546,47.739,12.443,47.361,11.42,46.917z"/>
	<polygon fill="#608EA8" points="14.715,48.05 14.715,48.05 14.715,48.05 	"/>
	<path fill="#608EA8" d="M7.333,44.464c-0.285-0.238-0.558-0.482-0.813-0.736c-0.352-0.351-0.663-0.72-0.952-1.098
		c-0.096-0.126-0.2-0.249-0.289-0.378c0.009,1.342,0.302,2.618,0.904,3.778c0.604,1.167,1.476,2.138,2.572,2.916
		c-0.433-1.175-0.654-2.488-0.673-3.896c0,0,0,0,0,0c0,0,0,0,0,0C7.822,44.862,7.574,44.665,7.333,44.464z"/>
	<path fill="#4B829D" d="M19.604,51.171c1.001-0.089,2.026-0.238,3.07-0.445c-0.721-0.538-1.44-1.117-2.147-1.739
		c-0.003,0-0.007,0-0.01,0c-0.003-0.003-0.007-0.006-0.01-0.009c-0.939-0.06-1.86-0.164-2.748-0.298
		C18.348,49.568,18.962,50.401,19.604,51.171z"/>
	<path fill="#8ACADF" d="M37.627,23.295c0.984,0.262,1.913,0.581,2.773,0.95c-0.16-1.122-0.423-2.173-0.782-3.121
		c-0.976-0.278-2.044-0.452-3.175-0.517C36.885,21.435,37.283,22.336,37.627,23.295z"/>
	<path fill="#72C3DC" d="M30.215,21.273c0.484,0.356,0.964,0.742,1.436,1.154c0.626,0.04,1.236,0.105,1.828,0.195
		c-0.392-0.588-0.804-1.139-1.229-1.651C31.587,21.031,30.909,21.133,30.215,21.273z"/>
	<path fill="#8ACADF" d="M30.752,14.542c1.086,0.62,2.104,1.487,3.025,2.557c1.404-0.102,2.737,0.009,3.943,0.344l-0.002-0.004
		c-0.867-1.027-1.907-1.816-3.118-2.319C33.389,14.617,32.091,14.435,30.752,14.542L30.752,14.542L30.752,14.542z"/>
	<path fill="#8ACADF" d="M25.597,18.445c0.391,0.202,0.782,0.391,1.176,0.62c1.095-0.515,2.183-0.931,3.249-1.25
		c-1.003-0.903-2.042-1.655-3.094-2.246c-0.257,0.12-0.521,0.247-0.785,0.383c-0.836,0.434-1.672,0.958-2.496,1.571
		c0.382,0.156,0.764,0.321,1.149,0.502c0.006,0.003,0.011,0.005,0.017,0.007C25.074,18.154,25.336,18.31,25.597,18.445z"/>
	<path fill="#80C7DF" d="M21.018,19.813L21.018,19.813c0.104,0.019,0.212,0.046,0.316,0.067c0.886,0.173,1.788,0.387,2.704,0.655h0
		c0.581-0.354,1.166-0.681,1.75-0.983c0.328-0.17,0.653-0.334,0.984-0.487c-0.394-0.229-0.784-0.418-1.176-0.62
		c-0.261-0.135-0.523-0.29-0.784-0.413c-0.006-0.003-0.011-0.005-0.017-0.007c-0.385-0.181-0.767-0.346-1.153-0.5c0,0,0,0,0,0
		C22.753,18.192,21.872,18.954,21.018,19.813L21.018,19.813z"/>
	<path fill="#72C3DC" d="M21.018,19.813L21.018,19.813c-0.708,0.711-1.399,1.484-2.066,2.317c0.226-0.016,0.455-0.025,0.68-0.032
		c0.457-0.022,0.921-0.028,1.39-0.028c0.235,0.003,0.47,0.005,0.706,0.01c0.767-0.559,1.537-1.074,2.309-1.545
		c-0.916-0.268-1.817-0.481-2.704-0.655C21.23,19.859,21.123,19.832,21.018,19.813z"/>
	<path fill="#63BFD9" d="M19.633,22.097c-0.225,0.007-0.454,0.016-0.68,0.032c-0.564,0.709-1.115,1.452-1.642,2.242
		c0.789-0.266,1.595-0.508,2.43-0.721c0.652-0.557,1.32-1.081,1.988-1.571c-0.236-0.006-0.471-0.008-0.706-0.01
		C20.554,22.069,20.09,22.076,19.633,22.097z"/>
	<path fill="#57BBD6" d="M15.981,26.522c0.646-0.44,1.312-0.871,2.001-1.281c0.577-0.556,1.166-1.086,1.76-1.59
		c-0.835,0.213-1.641,0.455-2.43,0.721C16.851,25.058,16.406,25.777,15.981,26.522z"/>
	<path fill="#2EB4D3" d="M16.38,26.884c0.522-0.567,1.058-1.117,1.602-1.643c-0.689,0.41-1.355,0.842-2.001,1.281
		c-0.388,0.679-0.759,1.383-1.11,2.104C15.349,28.039,15.85,27.459,16.38,26.884z"/>
	<path fill="#93CFE3" d="M19.973,16.477c0.882-0.859,1.826-1.553,2.808-2.063c0.143-0.074,0.289-0.145,0.433-0.215h0c0,0,0,0,0,0
		c-1.325-0.225-2.628-0.161-3.882,0.232c-0.439,0.137-0.86,0.312-1.263,0.521c-0.749,0.389-1.431,0.895-2.054,1.509
		C17.245,16.238,18.579,16.248,19.973,16.477z"/>
	<path fill="#8ACADF" d="M17.556,19.434c0.423-0.64,0.868-1.231,1.331-1.781c0.247-0.293,0.499-0.571,0.756-0.837
		c0.11-0.113,0.217-0.231,0.329-0.339l0,0c-1.393-0.229-2.728-0.239-3.958-0.017c-0.892,0.878-1.652,1.974-2.268,3.243
		c0.395-0.074,0.814-0.111,1.229-0.155C15.804,19.459,16.656,19.407,17.556,19.434z"/>
	<path fill="#80C7DF" d="M13.956,22.894c0.62-0.157,1.255-0.297,1.913-0.412c0.512-1.096,1.074-2.119,1.687-3.048l0,0
		c-0.9-0.027-1.753,0.025-2.581,0.114c-0.414,0.044-0.834,0.082-1.228,0.155c-0.527,1.086-0.949,2.298-1.258,3.61h0c0,0,0,0,0,0
		C12.962,23.158,13.455,23.022,13.956,22.894z"/>
	<path fill="#72C3DC" d="M12.915,26.226c0.579-0.3,1.186-0.587,1.807-0.861l0,0c0.343-1.008,0.726-1.972,1.147-2.883c0,0,0,0,0,0
		c-0.658,0.115-1.293,0.255-1.913,0.412c-0.502,0.127-0.995,0.263-1.468,0.419c0,0,0,0,0,0l0,0c-0.26,1.085-0.441,2.235-0.544,3.438
		C12.259,26.575,12.582,26.398,12.915,26.226z"/>
	<path fill="#63BFD9" d="M11.945,26.752C11.945,26.752,11.945,26.752,11.945,26.752c-0.088,1.001-0.118,2.039-0.093,3.1
		c0.657-0.622,1.356-1.228,2.093-1.821v0l0,0v0c0.226-0.919,0.486-1.809,0.776-2.666c-0.621,0.274-1.228,0.561-1.807,0.861
		C12.582,26.398,12.259,26.575,11.945,26.752z"/>
	<polygon fill="#63BFD9" points="11.852,29.852 11.852,29.852 11.852,29.852 	"/>
	<path fill="#57BBD6" d="M13.945,28.031c-0.738,0.593-1.437,1.199-2.093,1.821l0,0l0,0c0,0,0,0,0,0v0
		c0.01,0.431,0.03,0.868,0.058,1.308c0.003,0.042,0.005,0.083,0.008,0.125c0.03,0.444,0.068,0.892,0.117,1.342v0c0,0,0,0,0,0
		c0.429-0.709,0.895-1.414,1.397-2.113c0,0,0,0,0,0l0,0c0,0,0,0,0,0C13.575,29.665,13.747,28.836,13.945,28.031L13.945,28.031z"/>
	<path fill="#42B7D5" d="M12.035,32.627C12.035,32.627,12.035,32.627,12.035,32.627C12.035,32.627,12.035,32.628,12.035,32.627
		c0.088,0.825,0.213,1.662,0.365,2.51c0.205-0.757,0.442-1.515,0.708-2.273c0.082-0.797,0.191-1.584,0.324-2.35c0,0,0,0,0,0
		C12.93,31.213,12.464,31.918,12.035,32.627z"/>
	<path fill="#2EB4D3" d="M12.937,35.16c0.032-0.776,0.09-1.542,0.171-2.296c-0.266,0.759-0.503,1.517-0.708,2.273
		c0.14,0.767,0.305,1.541,0.5,2.319C12.885,36.7,12.899,35.934,12.937,35.16z"/>
	<path fill="#9ED3E6" d="M8.997,24.87L8.997,24.87c0.146-1.404,0.481-2.69,1.017-3.823c-1.155,0.675-2.116,1.565-2.819,2.67
		c-0.708,1.103-1.113,2.348-1.241,3.686C6.754,26.44,7.784,25.59,8.997,24.87z"/>
	<path fill="#93CFE3" d="M6.304,31.348c0.764-0.931,1.686-1.825,2.744-2.656c-0.078-0.671-0.121-1.327-0.13-1.964
		c0-0.026,0.003-0.05,0.003-0.076c-0.006-0.61,0.017-1.207,0.076-1.782c-1.213,0.719-2.244,1.569-3.044,2.533v0
		C5.832,28.651,5.958,29.98,6.304,31.348z"/>
	<path fill="#8ACADF" d="M9.715,32.106C9.715,32.106,9.715,32.106,9.715,32.106c-0.312-1.166-0.538-2.31-0.667-3.413c0,0,0,0,0,0
		c-1.058,0.831-1.98,1.724-2.744,2.656v0c0.294,1.165,0.749,2.367,1.354,3.568C8.243,33.973,8.935,33.032,9.715,32.106
		C9.715,32.106,9.715,32.106,9.715,32.106z"/>
	<path fill="#2EB4D3" d="M17.064,45.49c-0.497-0.573-0.983-1.167-1.45-1.784c-0.472-0.615-0.919-1.238-1.341-1.869l0,0v0
		c0.284,0.751,0.592,1.484,0.914,2.196c0,0,0,0,0,0c0.509,0.42,1.046,0.83,1.591,1.235C16.877,45.341,16.965,45.418,17.064,45.49z"
		/>
	<path fill="#80C7DF" d="M8.968,37.157c0.162,0.248,0.312,0.498,0.486,0.745v0c0.261-0.705,0.57-1.417,0.903-2.132
		c0.111-0.238,0.214-0.476,0.333-0.715v0l0,0v0c-0.258-0.663-0.479-1.318-0.681-1.971c-0.101-0.326-0.206-0.653-0.294-0.978
		c0,0,0,0,0,0c-0.78,0.926-1.473,1.867-2.057,2.811c0,0,0,0,0,0s0,0,0,0c0.166,0.332,0.361,0.665,0.55,0.997
		C8.444,36.33,8.698,36.744,8.968,37.157z"/>
	<path fill="#57BBD6" d="M14.273,41.837c-0.45-0.665-0.87-1.336-1.265-2.005c0.067,0.855,0.164,1.697,0.292,2.514
		c0.598,0.573,1.224,1.138,1.887,1.688C14.865,43.32,14.557,42.588,14.273,41.837L14.273,41.837z"/>
	<path fill="#72C3DC" d="M11.539,39.143c0.027-0.176,0.058-0.352,0.088-0.529c0.057-0.337,0.114-0.674,0.182-1.013l0,0v0
		c0,0,0,0,0,0c-0.418-0.852-0.792-1.704-1.12-2.547v0c-0.119,0.24-0.222,0.477-0.333,0.715c-0.333,0.715-0.642,1.427-0.903,2.132
		c0.578,0.822,1.222,1.64,1.922,2.437C11.421,39.944,11.478,39.544,11.539,39.143z"/>
	<path fill="#63BFD9" d="M11.81,37.601c-0.068,0.339-0.125,0.676-0.182,1.013c-0.03,0.177-0.061,0.353-0.088,0.529
		c-0.062,0.401-0.119,0.801-0.164,1.196c0,0,0,0,0,0c0.599,0.683,1.239,1.349,1.925,2.007c-0.128-0.817-0.225-1.659-0.292-2.514
		c-0.216-0.372-0.4-0.744-0.599-1.115C12.21,38.345,11.994,37.974,11.81,37.601L11.81,37.601z"/>
	<path fill="#57BBD6" d="M18.672,47.245L18.672,47.245c0.004,0.002,0.009,0.003,0.013,0.005c-0.005-0.005-0.009-0.009-0.014-0.014
		c0,0,0,0,0,0c-0.81-0.292-1.594-0.607-2.353-0.938v0c0.453,0.829,0.931,1.622,1.434,2.38c0.888,0.135,1.81,0.238,2.751,0.298
		C19.884,48.432,19.273,47.85,18.672,47.245C18.672,47.245,18.672,47.245,18.672,47.245z"/>
	<path fill="#63BFD9" d="M14.715,48.05L14.715,48.05L14.715,48.05l3.038,0.627c-0.503-0.757-0.981-1.55-1.434-2.38
		c-0.863-0.384-1.694-0.789-2.489-1.227C14.08,46.106,14.375,47.1,14.715,48.05z"/>
	<path fill="#72C3DC" d="M14.715,48.05c-0.34-0.951-0.635-1.944-0.885-2.98l0,0c-0.935-0.513-1.82-1.059-2.641-1.63
		c-0.005,1.207,0.076,2.377,0.231,3.477l0,0v0h0C12.443,47.361,13.546,47.739,14.715,48.05L14.715,48.05z"/>
	<path fill="#80C7DF" d="M11.189,43.441L11.189,43.441C11.189,43.441,11.188,43.441,11.189,43.441
		c-0.992-0.695-1.899-1.423-2.708-2.192c-0.069,0.331-0.102,0.648-0.153,0.973c-0.106,0.675-0.174,1.332-0.202,1.975
		c-0.013,0.284-0.045,0.578-0.042,0.855c0.978,0.71,2.099,1.332,3.336,1.866l0,0C11.264,45.817,11.184,44.647,11.189,43.441z"/>
	<path fill="#8ACADF" d="M8.481,41.248c-0.981-0.924-1.816-1.891-2.499-2.894c-0.464,1.334-0.706,2.645-0.702,3.898
		c0.089,0.129,0.193,0.252,0.289,0.378c0.289,0.378,0.6,0.747,0.952,1.098c0.254,0.253,0.528,0.498,0.813,0.736
		c0.241,0.201,0.489,0.398,0.75,0.587c0,0,0,0,0,0c-0.003-0.277,0.029-0.57,0.042-0.855c0.029-0.642,0.096-1.3,0.202-1.975
		C8.378,41.897,8.412,41.579,8.481,41.248z"/>
	<path fill="#93CFE3" d="M4.306,34.772c-0.449,1.264-0.611,2.562-0.444,3.861c0.17,1.303,0.659,2.514,1.418,3.62
		c-0.004-1.253,0.238-2.564,0.702-3.898C5.193,37.192,4.623,35.983,4.306,34.772z"/>
	<path fill="#42B7D5" d="M20.527,48.987c0.827,0.056,1.669,0.081,2.527,0.073c-0.707-0.336-1.417-0.7-2.119-1.091
		c-0.766-0.22-1.519-0.461-2.25-0.719c-0.004-0.002-0.009-0.003-0.013-0.005c0,0,0,0,0,0c0.601,0.605,1.212,1.186,1.832,1.73
		c0.001,0.001,0.002,0.001,0.003,0.002c0.003,0.003,0.007,0.006,0.01,0.009C20.52,48.987,20.524,48.987,20.527,48.987z"/>
	<path fill="#8ACADF" d="M14.31,54.059c-0.807-0.957-1.466-2.12-1.965-3.441c-1.357-0.386-2.565-0.94-3.589-1.67
		c0.463,1.26,1.177,2.361,2.137,3.248C11.861,53.084,13.015,53.699,14.31,54.059z"/>
	<path fill="#2EB4D3" d="M23.655,51.222c0.596,0.44,1.197,0.837,1.799,1.187c0.228-0.105,0.456-0.22,0.684-0.338
		c0.405-0.21,0.809-0.436,1.211-0.681c-0.6-0.179-1.209-0.388-1.821-0.628C24.897,50.946,24.271,51.098,23.655,51.222z"/>
	<path fill="#63BFD9" d="M19.541,51.336c-1.059,0.096-2.084,0.116-3.06,0.056c0.558,1.045,1.19,1.981,1.878,2.783
		c1.058-0.075,2.165-0.288,3.297-0.627C20.929,52.896,20.222,52.155,19.541,51.336z"/>
	<path fill="#4296B1" d="M30.67,44.221c0.852,0.813,1.427,1.071,2.518,1.071c1.566,0,2.954-0.635,3.965-1.845
		c0.991-1.15,1.626-2.994,1.626-4.641c0-2.103-1.21-3.292-3.352-3.292c-1.15,0-1.983,0.297-3.152,1.111l1.169-5.475h-3.827
		l-2.954,13.885h3.351L30.67,44.221z M33.505,38.231c0.734,0,1.13,0.456,1.13,1.269c0,1.746-0.912,3.095-2.062,3.095
		c-0.715,0-1.19-0.517-1.19-1.31C31.384,39.579,32.335,38.231,33.505,38.231z"/>
	<path fill="#4296B1" d="M46.412,35.513c-2.003,0-3.491,0.515-4.601,1.606c-1.071,1.071-1.844,3.075-1.844,4.88
		c0,2.142,1.427,3.293,4.084,3.293c2.638,0,4.323-0.813,5.374-2.618l-3.233-0.674c-0.396,0.813-0.833,1.15-1.487,1.15
		c-0.694,0-0.992-0.336-0.992-1.071c0-0.297,0.04-0.535,0.139-1.031h6.306c0.238-0.952,0.317-1.467,0.317-2.102
		C50.477,36.564,49.228,35.513,46.412,35.513z M46.888,39.222H44.31c0.337-1.091,0.833-1.567,1.645-1.567
		c0.655,0,0.991,0.357,0.991,1.011C46.947,38.766,46.927,38.944,46.888,39.222z"/>
</g>
<path fill="#4296B1" d="M58.872,36.187l-2.321,4.126h2.637L58.872,36.187z M63.651,45.034h-4.244l-0.099-1.963h-4.284l-1.071,1.963
	h-3.846l7.574-13.23h4.7L63.651,45.034z"/>
<g>
	<path fill="none" d="M34.005,48.811c-0.123-0.055-0.214-0.068-0.492-0.068H33.04l-0.464,2.18h0.478
		c0.341,0,0.605-0.095,0.797-0.291c0.277-0.282,0.46-0.765,0.46-1.224C34.31,49.121,34.196,48.898,34.005,48.811z"/>
	<path fill="none" d="M37.745,50.104c0-0.282-0.146-0.446-0.391-0.446c-0.364,0-0.674,0.41-0.674,0.906
		c0,0.282,0.141,0.446,0.387,0.446C37.44,51.01,37.745,50.6,37.745,50.104z"/>
	<path fill="none" d="M42.582,49.653c-0.369,0-0.674,0.414-0.674,0.906c0,0.287,0.141,0.45,0.387,0.45
		c0.373,0,0.678-0.409,0.678-0.905C42.973,49.817,42.832,49.653,42.582,49.653z"/>
	<path fill="#617F84" d="M34.901,49.33c0-0.442-0.186-0.773-0.51-0.906c-0.196-0.077-0.401-0.109-0.71-0.109h-1.097l-0.646,3.036
		h1.079c0.496,0,0.887-0.132,1.197-0.409C34.623,50.578,34.901,49.931,34.901,49.33z M33.053,50.923h-0.478l0.464-2.18h0.474
		c0.278,0,0.369,0.014,0.492,0.068c0.191,0.087,0.305,0.31,0.305,0.596c0,0.46-0.182,0.942-0.46,1.224
		C33.659,50.828,33.395,50.923,33.053,50.923z"/>
	<path fill="#617F84" d="M35.848,48.27c-0.196,0-0.369,0.173-0.369,0.369c0,0.145,0.095,0.241,0.241,0.241
		c0.196,0,0.369-0.173,0.369-0.368C36.089,48.365,35.993,48.27,35.848,48.27z"/>
	<polygon fill="#617F84" points="34.96,51.351 35.465,51.351 35.902,49.313 35.393,49.313 	"/>
	<path fill="#617F84" d="M36.83,52.007c-0.241,0-0.373-0.141-0.396-0.423l-0.505,0.209c0.05,0.219,0.096,0.319,0.196,0.41
		c0.128,0.123,0.332,0.187,0.583,0.187c0.664,0,1.152-0.396,1.293-1.047l0.432-2.03h-0.51l-0.05,0.236
		c-0.132-0.2-0.296-0.287-0.551-0.287c-0.655,0-1.197,0.628-1.197,1.397c0,0.441,0.287,0.742,0.719,0.742
		c0.251,0,0.455-0.082,0.696-0.282l-0.036,0.178C37.404,51.756,37.167,52.007,36.83,52.007z M37.067,51.01
		c-0.246,0-0.387-0.164-0.387-0.446c0-0.496,0.309-0.906,0.674-0.906c0.246,0,0.391,0.164,0.391,0.446
		C37.745,50.6,37.44,51.01,37.067,51.01z"/>
	<path fill="#617F84" d="M39.741,48.511c0-0.146-0.096-0.241-0.241-0.241c-0.196,0-0.368,0.173-0.368,0.369
		c0,0.145,0.095,0.241,0.241,0.241C39.568,48.88,39.741,48.707,39.741,48.511z"/>
	<polygon fill="#617F84" points="38.612,51.351 39.117,51.351 39.554,49.313 39.045,49.313 	"/>
	<path fill="#617F84" d="M40.424,48.802l-0.109,0.51H40l-0.086,0.409h0.314l-0.168,0.801c-0.046,0.214-0.059,0.3-0.059,0.41
		c0,0.305,0.173,0.45,0.542,0.45c0.101,0,0.178-0.009,0.346-0.041l0.155-0.405c-0.086,0.023-0.127,0.032-0.182,0.032
		c-0.214,0-0.323-0.082-0.323-0.246c0-0.055,0.009-0.127,0.036-0.25l0.159-0.751h0.523l0.091-0.409H40.82l0.15-0.696L40.424,48.802z
		"/>
	<path fill="#617F84" d="M43.1,49.558c-0.141-0.223-0.268-0.296-0.523-0.296c-0.687,0-1.224,0.615-1.224,1.393
		c0,0.446,0.291,0.746,0.719,0.746c0.264,0,0.473-0.086,0.696-0.282l-0.051,0.232h0.51l0.432-2.039h-0.505L43.1,49.558z
		 M42.295,51.01c-0.245,0-0.387-0.164-0.387-0.45c0-0.492,0.305-0.906,0.674-0.906c0.25,0,0.391,0.164,0.391,0.451
		C42.973,50.6,42.668,51.01,42.295,51.01z"/>
</g>
<polygon fill="#617F84" points="44.348,51.351 43.843,51.351 44.521,48.165 45.026,48.165 "/>
<path fill="#617F84" d="M45.309,50.782c-0.2,0-0.378,0.177-0.378,0.378c0,0.15,0.1,0.25,0.251,0.25c0.196,0,0.378-0.182,0.378-0.382
	C45.56,50.883,45.46,50.782,45.309,50.782z"/>
<polygon fill="#617F84" points="49.196,49.603 49.105,50.018 47.972,50.018 47.781,50.923 49.083,50.923 48.991,51.351 
	47.144,51.351 47.79,48.315 49.469,48.315 49.378,48.743 48.245,48.743 48.063,49.603 "/>
<g>
	<path fill="none" d="M72.91,49.918c0-0.214-0.109-0.323-0.332-0.323c-0.269,0-0.469,0.178-0.569,0.515h0.879
		C72.905,50.013,72.91,49.963,72.91,49.918z"/>
	<path fill="none" d="M56.135,50.104c0-0.287-0.141-0.451-0.391-0.451c-0.369,0-0.674,0.414-0.674,0.906
		c0,0.287,0.141,0.45,0.386,0.45C55.83,51.01,56.135,50.6,56.135,50.104z"/>
	<path fill="#617F84" d="M50.334,48.27c-0.196,0-0.369,0.173-0.369,0.369c0,0.145,0.096,0.241,0.241,0.241
		c0.196,0,0.369-0.173,0.369-0.368C50.575,48.365,50.479,48.27,50.334,48.27z"/>
	<polygon fill="#617F84" points="49.446,51.351 49.952,51.351 50.388,49.313 49.879,49.313 	"/>
	<path fill="#617F84" d="M51.002,49.312l-0.433,2.039h0.505l0.246-1.147c0.073-0.337,0.273-0.514,0.583-0.514
		c0.2,0,0.31,0.1,0.31,0.282c0,0.055-0.009,0.132-0.027,0.205l-0.246,1.174h0.505l0.273-1.293c0.027-0.132,0.041-0.218,0.041-0.296
		c0-0.314-0.223-0.501-0.592-0.501c-0.268,0-0.446,0.078-0.71,0.305l0.055-0.255H51.002z"/>
	<path fill="#617F84" d="M53.599,51.351l0.346-1.625h0.528l0.087-0.414h-0.524l0.05-0.241c0.073-0.337,0.214-0.496,0.442-0.496
		c0.059,0,0.095,0.009,0.173,0.05l0.187-0.391c-0.164-0.05-0.251-0.068-0.378-0.068c-0.496,0-0.801,0.305-0.938,0.933l-0.045,0.214
		h-0.273l-0.086,0.414h0.273l-0.346,1.625H53.599z"/>
	<path fill="#617F84" d="M56.39,51.351l0.432-2.039h-0.505l-0.055,0.245c-0.141-0.223-0.268-0.296-0.523-0.296
		c-0.688,0-1.224,0.615-1.224,1.393c0,0.446,0.291,0.746,0.719,0.746c0.264,0,0.474-0.086,0.696-0.282l-0.05,0.232H56.39z
		 M55.456,51.01c-0.245,0-0.386-0.164-0.386-0.45c0-0.492,0.305-0.906,0.674-0.906c0.25,0,0.391,0.164,0.391,0.451
		C56.135,50.6,55.83,51.01,55.456,51.01z"/>
	<path fill="#617F84" d="M58.988,49.881v-0.027c-0.009-0.232-0.023-0.273-0.114-0.378c-0.123-0.141-0.332-0.214-0.61-0.214
		c-0.387,0-0.701,0.137-0.942,0.405c-0.219,0.25-0.356,0.619-0.356,0.965c0,0.491,0.292,0.769,0.815,0.769
		c0.246,0,0.468-0.059,0.651-0.168c0.159-0.1,0.246-0.2,0.373-0.437l-0.455-0.132c-0.137,0.278-0.26,0.373-0.469,0.373
		c-0.241,0-0.368-0.15-0.368-0.441c0-0.223,0.063-0.455,0.177-0.646c0.127-0.218,0.305-0.328,0.523-0.328
		c0.182,0,0.287,0.1,0.287,0.278c0,0.027-0.005,0.086-0.014,0.141L58.988,49.881z"/>
	<path fill="#617F84" d="M59.684,48.165l-0.678,3.186h0.505l0.246-1.147c0.032-0.159,0.078-0.26,0.155-0.341
		c0.1-0.104,0.264-0.173,0.428-0.173c0.2,0,0.31,0.1,0.31,0.282c0,0.059-0.009,0.127-0.027,0.205l-0.246,1.174h0.505l0.273-1.293
		c0.032-0.136,0.041-0.218,0.041-0.296c0-0.314-0.223-0.501-0.592-0.501c-0.264,0-0.446,0.078-0.71,0.305l0.295-1.402H59.684z"/>
	<path fill="#617F84" d="M62.094,51.028c0-0.146-0.1-0.246-0.251-0.246c-0.2,0-0.377,0.177-0.377,0.378c0,0.15,0.1,0.25,0.25,0.25
		C61.913,51.41,62.094,51.229,62.094,51.028z"/>
	<path fill="#617F84" d="M64.393,50.992c-0.273,0-0.441-0.15-0.487-0.428l-0.514,0.282c0.055,0.195,0.109,0.282,0.237,0.382
		c0.164,0.127,0.373,0.186,0.656,0.186c0.373,0,0.669-0.105,0.905-0.309c0.246-0.214,0.396-0.528,0.396-0.82
		c0-0.314-0.127-0.459-0.628-0.719c-0.31-0.159-0.31-0.159-0.373-0.214c-0.064-0.055-0.1-0.132-0.1-0.219
		c0-0.26,0.237-0.482,0.51-0.482c0.232,0,0.364,0.114,0.41,0.359l0.487-0.269c-0.1-0.341-0.346-0.491-0.797-0.491
		c-0.35,0-0.655,0.118-0.878,0.336c-0.191,0.191-0.31,0.451-0.31,0.678c0,0.328,0.151,0.515,0.592,0.737
		c0.196,0.096,0.196,0.096,0.241,0.128c0.168,0.1,0.236,0.186,0.236,0.309C64.975,50.751,64.721,50.992,64.393,50.992z"/>
	<path fill="#617F84" d="M66.621,48.27c-0.195,0-0.369,0.173-0.369,0.369c0,0.145,0.096,0.241,0.241,0.241
		c0.195,0,0.369-0.173,0.369-0.368C66.863,48.365,66.767,48.27,66.621,48.27z"/>
	<polygon fill="#617F84" points="65.734,51.351 66.239,51.351 66.676,49.313 66.166,49.313 	"/>
	<path fill="#617F84" d="M68.833,49.881v-0.027c-0.009-0.232-0.023-0.273-0.113-0.378c-0.123-0.141-0.332-0.214-0.61-0.214
		c-0.387,0-0.701,0.137-0.942,0.405c-0.219,0.25-0.355,0.619-0.355,0.965c0,0.491,0.291,0.769,0.815,0.769
		c0.246,0,0.469-0.059,0.651-0.168c0.159-0.1,0.246-0.2,0.373-0.437l-0.455-0.132c-0.136,0.278-0.26,0.373-0.469,0.373
		c-0.241,0-0.369-0.15-0.369-0.441c0-0.223,0.064-0.455,0.177-0.646c0.128-0.218,0.305-0.328,0.524-0.328
		c0.182,0,0.286,0.1,0.286,0.278c0,0.027-0.005,0.086-0.014,0.141L68.833,49.881z"/>
	<path fill="#617F84" d="M69.62,48.165l-0.678,3.186h0.505l0.246-1.147c0.032-0.159,0.077-0.26,0.155-0.341
		c0.1-0.104,0.264-0.173,0.427-0.173c0.201,0,0.31,0.1,0.31,0.282c0,0.059-0.009,0.127-0.027,0.205l-0.246,1.174h0.505l0.273-1.293
		c0.032-0.136,0.041-0.218,0.041-0.296c0-0.314-0.223-0.501-0.592-0.501c-0.264,0-0.446,0.078-0.71,0.305l0.296-1.402H69.62z"/>
	<path fill="#617F84" d="M73.315,50.436c0.059-0.255,0.073-0.364,0.073-0.51c0-0.441-0.237-0.665-0.719-0.665
		c-0.373,0-0.701,0.141-0.933,0.405c-0.219,0.246-0.355,0.624-0.355,0.979c0,0.483,0.295,0.755,0.815,0.755
		c0.269,0,0.496-0.064,0.678-0.191c0.105-0.073,0.178-0.146,0.319-0.332l-0.415-0.155c-0.159,0.241-0.287,0.328-0.482,0.328
		c-0.245,0-0.392-0.155-0.392-0.423c0-0.041,0.005-0.096,0.023-0.191H73.315z M72.578,49.594c0.223,0,0.332,0.109,0.332,0.323
		c0,0.045-0.005,0.095-0.023,0.191h-0.879C72.109,49.772,72.309,49.594,72.578,49.594z"/>
	<path fill="#617F84" d="M75.481,49.408c-0.132-0.114-0.209-0.146-0.342-0.146c-0.236,0-0.405,0.096-0.655,0.36l0.064-0.309h-0.496
		l-0.432,2.039h0.505l0.214-1.002c0.073-0.341,0.341-0.633,0.582-0.633c0.123,0,0.187,0.032,0.269,0.141L75.481,49.408z"/>
	<path fill="#617F84" d="M75.46,50.782c-0.201,0-0.378,0.177-0.378,0.378c0,0.15,0.1,0.25,0.25,0.25
		c0.196,0,0.378-0.182,0.378-0.382C75.71,50.883,75.61,50.782,75.46,50.782z"/>
</g>
</svg>
