<?xml version="1.0" encoding="utf-8"?>
<svg version="1.2" baseProfile="tiny-ps" id="Layer_1" xmlns="http://www.w3.org/2000/svg" xmlns:xlink="http://www.w3.org/1999/xlink"
	  viewBox="0 0 1080 1080"  xml:space="preserve">
<title>Furbo_Logo_final</title>
<rect fill="#F7CD3D" width="1080" height="1080"></rect>
<g>
    <path fill="#F7CD3D" d="M 540.088 1078.985 C 838.368 1078.985 1080.175 837.444 1080.175 539.494 C 1080.175 241.538 838.368 0 540.088 0 C 241.805 0 0 241.538 0 539.494 C 0 837.444 241.805 1078.985 540.088 1078.985 Z"/>
    <path fill="#434343" d="M 351.3 445.988 L 245.625 445.988 L 245.625 634.012 L 268.007 634.012 L 268.007 469.31 L 330.983 469.31 C 342.203 469.31 351.3 460.212 351.3 448.993 L 351.3 445.988 Z M 576.758 632.89 L 599.328 632.89 L 599.328 446.575 L 576.758 446.575 L 576.758 632.89 Z M 611.229 601.637 C 617.797 607.768 629.455 613.216 639.012 613.216 C 659.86 613.216 673.749 599.323 673.749 576.161 C 673.749 554.168 663.606 538.062 640.173 537.955 C 629.75 537.905 618.17 543.741 611.229 550.69 L 611.273 530.507 C 619.664 523.901 629.75 520.589 641.038 520.008 C 673.712 518.33 695.75 543.741 695.75 576.161 C 695.75 608.581 669.336 632.898 641.038 632.898 C 629.937 632.898 619.664 629.009 611.273 622.403 L 611.229 601.637 Z M 834.375 573.369 C 834.375 600.752 814.139 626.943 781.996 630.518 L 781.996 612.653 C 800.103 607.798 812.892 592.823 812.892 573.384 C 812.892 551.513 799.852 534.088 776.037 534.088 C 756.992 534.088 738.54 549.556 738.54 572.862 C 738.54 593.619 749.851 607.896 768.9 612.653 L 768.9 630.518 C 738.507 628.207 716.516 603.264 716.516 572.862 C 716.516 540.937 742.899 515.085 775.446 515.065 C 810.567 515.033 834.375 539.359 834.375 573.369 Z M 548.646 534.132 L 555.228 516.673 C 541.282 510.863 519.934 507.721 503.854 519.201 C 488.524 530.152 484.329 544.468 484.329 563.162 L 484.329 632.903 L 506.153 632.903 L 506.153 565.142 C 506.153 562.848 506.442 558.131 506.794 555.552 C 508.449 543.327 514.404 536.902 522.233 532.989 C 531.42 528.395 544.055 531.841 548.646 534.132 Z M 281.11 534.083 L 334.991 534.083 L 334.991 529.858 C 334.991 520.534 327.436 512.981 318.121 512.981 L 281.11 512.981 L 281.11 534.083 Z M 357.979 585.705 L 357.979 518.693 L 379.046 518.693 C 379.046 518.693 378.932 568.978 379.826 585.705 C 380.6 600.225 391.134 613.622 407.207 613.622 C 423.286 613.622 432.71 601.343 433.267 586.259 C 433.89 569.385 433.819 518.693 433.819 518.693 L 454.889 518.693 L 454.889 585.705 C 454.889 612.656 434.595 634.061 406.104 633.724 C 379.343 633.414 357.979 612.656 357.979 585.705 Z"/>
</g>
</svg>
