<?xml version="1.0" encoding="UTF-8"?>
<svg version="1.2" baseProfile="tiny-ps" id="Layer_1" xmlns="http://www.w3.org/2000/svg" xmlns:xlink="http://www.w3.org/1999/xlink" width="200px" height="200px" viewBox="0 0 200 200">
    <title>Domino's Pizza Enterprises Limited</title>
    <g id="Artboard" stroke="none" stroke-width="1" fill="none" fill-rule="evenodd">
        <g id="ID" transform="translate(18.600000, 19.000000)">
            <g id="Tile-Colour" transform="translate(-0.000000, 0.000000)">
                <path d="M157.000263,45.5692668 L113.591004,2.88679708 C111.758754,1.08522361 109.321415,0.0925837587 106.73015,0.0925837587 C104.138885,0.0925837587 101.701547,1.08522361 99.8735425,2.88679708 L63.4673865,38.6792398 L2.87679995,98.2595502 C-0.906595295,101.979601 -0.906595295,108.027293 2.87679995,111.747344 L46.2860587,154.438164 C48.1193706,156.239738 50.5524632,157.232377 53.1426665,157.232377 C55.7339313,157.232377 58.1712701,156.239738 60.004582,154.438164 L114.31711,101.026625 L157.000263,59.0581046 C160.779412,55.3422288 160.779412,49.2893177 157.000263,45.5692668" id="Fill-130" fill="#FEFEFE" />
                <path d="M115.75393,60.9441203 C113.296422,63.3563082 110.069283,64.5608365 106.861253,64.5608365 C103.650038,64.5608365 100.43033,63.3563082 97.9685753,60.9441203 C95.5195594,58.5319324 94.2828435,55.3619563 94.2828435,52.2045057 C94.2828435,49.0387048 95.5195594,45.8645536 97.9685753,43.460716 C100.43033,41.0485281 103.645791,39.8325182 106.861253,39.8325182 C110.069283,39.8325182 113.296422,41.0401778 115.75393,43.460716 C118.202946,45.8645536 119.439662,49.0387048 119.439662,52.2045057 C119.439662,55.3577812 118.202946,58.5319324 115.75393,60.9441203 M153.927581,48.6044901 L110.519384,5.92202044 C108.42599,3.86471956 105.036433,3.86471956 102.939855,5.92202044 L56.0072826,52.0729888 L106.995009,102.202867 L153.927581,56.0560736 C156.02416,53.9987727 156.02416,50.661791 153.927581,48.6044901" id="Fill-132" fill="#E21836" />
                <path d="M62.655931,96.5854229 C65.1091932,94.1648847 68.333147,92.9614002 71.5443621,92.9614002 C74.7598234,92.9614002 77.9837772,94.1648847 80.4327932,96.5854229 C82.898794,98.9976108 84.1270175,102.155061 84.1270175,105.329213 C84.1270175,108.486663 82.898794,111.652464 80.4327932,114.060477 C77.9837772,116.465358 74.7598234,117.677193 71.5443621,117.681368 C68.3289007,117.681368 65.1091932,116.465358 62.655931,114.060477 C60.1984226,111.648289 58.9701992,108.479357 58.9701992,105.329213 C58.9701992,102.163412 60.1984226,98.9976108 62.655931,96.5854229 L62.655931,96.5854229 Z M43.5361971,113.570942 C41.0786886,115.970604 37.8557964,117.179307 34.6435197,117.179307 C31.4238122,117.179307 28.2041046,115.970604 25.7508424,113.570942 C23.2901493,111.161885 22.073603,107.992953 22.073603,104.831327 C22.073603,101.668657 23.2975802,98.5028565 25.7508424,96.079187 C28.2041046,93.6711743 31.4238122,92.466646 34.6435197,92.466646 C37.8557964,92.466646 41.0829349,93.6711743 43.5361971,96.0833622 C45.9894592,98.5028565 47.214498,101.668657 47.2102518,104.827152 C47.2102518,107.988778 45.9894592,111.161885 43.5361971,113.570942 L43.5361971,113.570942 Z M5.94640312,101.278282 C3.8540709,103.335583 3.8540709,106.672564 5.94640312,108.729865 L49.3556619,151.420685 C50.4012972,152.448814 51.7717695,152.9634 53.1464881,152.9634 C54.5169604,152.9634 55.8884942,152.448814 56.9341295,151.420685 L103.846532,105.285374 L52.8588057,55.1513205 L5.94640312,101.278282 Z" id="Fill-134" fill="#007AAF" />
                <path d="M79.5416956,150.511546 L80.2382147,150.511546 C80.694873,150.511546 81.0223754,150.441246 81.2161092,150.296111 C81.4006176,150.148708 81.4974845,149.958218 81.4974845,149.722373 C81.4974845,149.488796 81.4006176,149.298305 81.2253346,149.150902 C81.0385199,149.003499 80.7317747,148.935467 80.29818,148.935467 L79.5416956,148.935467 L79.5416956,150.511546 Z M77.9480044,147.835613 L80.8194161,147.835613 C81.6289467,147.835613 82.2193735,147.99889 82.5814712,148.320909 C82.950488,148.640661 83.1280773,149.073799 83.1280773,149.611253 C83.1280773,150.035321 82.9943087,150.40723 82.7129334,150.711107 C82.4407836,151.021788 82.0002698,151.248562 81.4006176,151.386894 C81.6473975,151.482139 81.8226805,151.577384 81.9472236,151.6817 C82.1063621,151.829103 82.2724197,152.035468 82.4569281,152.321203 C82.4661535,152.339345 82.8098003,152.953902 83.4970941,154.149002 L81.6035768,154.149002 C80.9946991,152.944832 80.5818616,152.225958 80.369677,151.992381 C80.1574923,151.758803 79.947614,151.645416 79.7354294,151.645416 C79.6916087,151.645416 79.6293371,151.645416 79.5416956,151.663558 L79.5416956,154.149002 L77.9480044,154.149002 L77.9480044,147.835613 Z M85.5151545,150.987772 C85.5151545,149.672482 85.0400454,148.554487 84.0967463,147.61791 C83.1442218,146.690404 82.0094952,146.22325 80.6695031,146.22325 C79.3295109,146.22325 78.185559,146.690404 77.2422599,147.61791 C76.2897353,148.554487 75.8238516,149.672482 75.8238516,150.987772 C75.8238516,152.305329 76.2897353,153.430128 77.2422599,154.357634 C78.185559,155.29421 79.3295109,155.761365 80.6695031,155.761365 C82.0094952,155.761365 83.1442218,155.29421 84.0967463,154.357634 C85.0400454,153.430128 85.5151545,152.305329 85.5151545,150.987772 L85.5151545,150.987772 Z M86.6775573,150.987772 C86.6775573,152.044539 86.4123265,153.033273 85.8749459,153.951708 C85.3375652,154.861072 84.5995317,155.579946 83.6746834,156.108329 C82.7475288,156.636712 81.7442644,156.895235 80.6695031,156.895235 C79.5947417,156.895235 78.5983965,156.636712 77.6643228,156.108329 C76.7394745,155.579946 76.00836,154.861072 75.4709794,153.951708 C74.9335987,153.033273 74.6614488,152.044539 74.6614488,150.987772 C74.6614488,149.940076 74.9335987,148.951341 75.4709794,148.041977 C76.00836,147.123543 76.7394745,146.404669 77.6643228,145.876285 C78.5983965,145.347902 79.5947417,145.08938 80.6695031,145.08938 C81.7442644,145.08938 82.7475288,145.347902 83.6746834,145.876285 C84.5995317,146.404669 85.3375652,147.123543 85.8749459,148.041977 C86.4123265,148.951341 86.6775573,149.940076 86.6775573,150.987772 L86.6775573,150.987772 Z" id="Fill-138" fill="#007AAF" />
            </g>
        </g>
    </g>
</svg>
