<?xml version="1.0" encoding="UTF-8" standalone="yes"?>
<svg version="1.2" baseProfile="tiny-ps" viewBox="0 0 600 600" xml:space="preserve" xmlns="http://www.w3.org/2000/svg">
  <title>bimi-svg-tiny-12-ps</title>
  <path fill="#1B335F" d="M98.3,347.8l17.9-17.8l183.4-182.4L417.2,267v-38.1h70v109L600,452.4L302,243.6L197.3,348.3&#xD;&#xA;&#x9;c-17.6-1.4-35.3-2.1-53.3-2.1C128.6,346.2,98.3,347.8,98.3,347.8z"/>
  <g>
    <path fill="#31A6DE" d="M495.3,447.2c-73.6-23.6-154.2-37.2-238.7-38.4c-43.7-0.6-86.3,2.1-127.6,7.8c-25.2,3.5-49.9,8.1-74,13.8&#xD;&#xA;&#x9;&#x9;c-2.6,0.6-5.1,1.2-7.7,1.9c-0.2,0-0.5,0.1-0.7,0.2c-2.2,0.5-4.4,1.1-6.5,1.6c-0.6,0.2-1.3,0.3-1.9,0.5c-2,0.5-3.9,1-5.9,1.5&#xD;&#xA;&#x9;&#x9;c-0.7,0.2-1.3,0.3-2,0.5c-1.4,0.4-2.8,0.8-4.1,1.1c-1.5,0.4-3,0.8-4.5,1.2c-0.6,0.2-1.2,0.3-1.7,0.5c-1.8,0.5-3.5,1-5.3,1.5&#xD;&#xA;&#x9;&#x9;c-4.9,1.4-9.8,2.9-14.7,4.5l98.3-97.7c15.1-1.1,30.3-1.6,45.7-1.6c18,0,35.7,0.7,53.3,2.1C307.3,357,409.1,392.3,495.3,447.2z"/>
  </g>
</svg>