<?xml version="1.0" encoding="utf-8"?>
<!-- Generator: Adobe Illustrator 28.2.0, SVG Export Plug-In . SVG Version: 6.00 Build 0)  -->
<svg version="1.2" baseProfile="tiny-ps" id="Layer_1" xmlns="http://www.w3.org/2000/svg" xmlns:xlink="http://www.w3.org/1999/xlink"
	 viewBox="0 0 144 144" xml:space="preserve">
<title>Duval County Public Schools</title>
<g>
	<g>
		<path fill="#009DDC" d="M124.2,67.11c-6.19-2.15-12.76-3.88-19.58-5.2V35.65h-8.4v24.87c-7.57-1.04-15.37-1.58-23.25-1.58
			c-7.88,0-15.68,0.54-23.25,1.58V35.65h-8.4v26.27c-6.82,1.31-13.39,3.05-19.58,5.2l2.75,7.93c5.33-1.85,10.97-3.38,16.83-4.58
			v8.15h8.4v-9.61c7.54-1.1,15.35-1.67,23.25-1.67c7.9,0,15.7,0.57,23.25,1.67v9.61h8.4v-8.15c5.85,1.2,11.49,2.73,16.83,4.58
			L124.2,67.11z"/>
		<g>
			<path fill="#FFC425" d="M63.5,23.6h-7.46v30.21c2.47-0.24,4.96-0.43,7.46-0.57V23.6z"/>
			<path fill="#00B259" d="M89.91,23.6h-7.46v29.64c2.5,0.14,4.99,0.32,7.46,0.57V23.6z"/>
			<path fill="#EE3124" d="M76.86,53.03V28.59H69.4v24.43c1.19-0.02,2.38-0.04,3.58-0.04C74.27,52.98,75.56,53,76.86,53.03"/>
		</g>
	</g>
	<g>
		<g>
			<path d="M7.18,90.47h2.69c2.26,0,3.83,1.55,3.83,3.58v0.02c0,2.03-1.56,3.6-3.83,3.6H7.18V90.47z M9.86,96.52
				c1.51,0,2.5-1.02,2.5-2.43v-0.02c0-1.41-0.99-2.45-2.5-2.45H8.44v4.9H9.86z"/>
			<path d="M19.28,94.62v-4.15h1.27v4.1c0,1.34,0.69,2.06,1.82,2.06c1.12,0,1.81-0.68,1.81-2.01v-4.15h1.27v4.09
				c0,2.15-1.21,3.23-3.1,3.23C20.47,97.79,19.28,96.71,19.28,94.62z"/>
			<path d="M31.14,90.47h1.4l2.17,5.54l2.16-5.54h1.37l-2.99,7.25h-1.11L31.14,90.47z"/>
			<path d="M45.93,90.42h1.17l3.17,7.25h-1.34l-0.73-1.74H44.8l-0.74,1.74h-1.3L45.93,90.42z M47.74,94.81l-1.25-2.88l-1.23,2.88
				H47.74z"/>
			<path d="M56.45,90.47h1.27v6.05h3.79v1.15h-5.05V90.47z"/>
			<path d="M71.55,94.09v-0.02c0-2.05,1.53-3.73,3.71-3.73c1.33,0,2.13,0.46,2.82,1.12l-0.81,0.94c-0.58-0.53-1.19-0.9-2.02-0.9
				c-1.38,0-2.38,1.13-2.38,2.54v0.02c0,1.41,1,2.56,2.38,2.56c0.89,0,1.45-0.36,2.07-0.94l0.81,0.82
				c-0.75,0.78-1.57,1.28-2.92,1.28C73.11,97.8,71.55,96.16,71.55,94.09z"/>
			<path d="M83.46,94.09v-0.02c0-2.03,1.56-3.73,3.78-3.73c2.21,0,3.76,1.68,3.76,3.7v0.02c0,2.03-1.56,3.73-3.78,3.73
				C85,97.8,83.46,96.12,83.46,94.09z M89.67,94.09v-0.02c0-1.4-1.02-2.56-2.45-2.56c-1.43,0-2.43,1.14-2.43,2.54v0.02
				c0,1.4,1.02,2.56,2.45,2.56C88.67,96.63,89.67,95.49,89.67,94.09z"/>
			<path d="M96.73,94.62v-4.15H98v4.1c0,1.34,0.69,2.06,1.82,2.06c1.12,0,1.81-0.68,1.81-2.01v-4.15h1.27v4.09
				c0,2.15-1.21,3.23-3.1,3.23C97.93,97.79,96.73,96.71,96.73,94.62z"/>
			<path d="M109.06,90.47h1.17l3.86,4.98v-4.98h1.25v7.2h-1.06l-3.97-5.12v5.12h-1.25V90.47z"/>
			<path d="M123.43,91.64h-2.29v-1.17h5.84v1.17h-2.28v6.03h-1.28V91.64z"/>
			<path d="M134.77,94.83l-2.86-4.36h1.49l2.02,3.19l2.04-3.19h1.45l-2.86,4.33v2.87h-1.28V94.83z"/>
			<path d="M19.08,105.79h2.21c1.3,0,2.13,0.74,2.13,1.87v0.02c0,1.26-1.01,1.91-2.24,1.91h-1.11v1.8h-0.98V105.79z M21.21,108.7
				c0.74,0,1.21-0.42,1.21-1v-0.02c0-0.66-0.47-1-1.21-1h-1.15v2.02H21.21z"/>
			<path d="M27.14,109.01v-3.23h0.98v3.19c0,1.04,0.54,1.6,1.42,1.6c0.87,0,1.41-0.53,1.41-1.56v-3.23h0.98v3.18
				c0,1.67-0.94,2.51-2.41,2.51C28.07,111.48,27.14,110.64,27.14,109.01z"/>
			<path d="M36.17,105.79h2.51c0.64,0,1.14,0.18,1.47,0.5c0.25,0.25,0.38,0.55,0.38,0.93v0.02c0,0.67-0.38,1.03-0.8,1.25
				c0.66,0.22,1.11,0.6,1.11,1.36v0.02c0,1-0.82,1.54-2.07,1.54h-2.59V105.79z M38.48,108.15c0.63,0,1.06-0.25,1.06-0.76v-0.02
				c0-0.44-0.35-0.71-0.98-0.71h-1.42v1.49H38.48z M38.77,110.52c0.67,0,1.08-0.26,1.08-0.77v-0.02c0-0.47-0.38-0.75-1.15-0.75
				h-1.56v1.54H38.77z"/>
			<path d="M44.99,105.79h0.98v4.71h2.95v0.9h-3.93V105.79z"/>
			<path d="M52.44,105.79h0.98v5.6h-0.98V105.79z"/>
			<path d="M57.55,108.6v-0.02c0-1.59,1.19-2.9,2.89-2.9c1.03,0,1.66,0.36,2.19,0.87L62,107.29c-0.45-0.42-0.93-0.7-1.57-0.7
				c-1.07,0-1.85,0.88-1.85,1.98v0.02c0,1.1,0.78,1.99,1.85,1.99c0.69,0,1.13-0.28,1.61-0.73l0.63,0.64
				c-0.58,0.61-1.23,0.99-2.27,0.99C58.76,111.48,57.55,110.21,57.55,108.6z"/>
			<path d="M70.57,110.57l0.59-0.7c0.54,0.46,1.07,0.73,1.77,0.73c0.61,0,0.99-0.28,0.99-0.7v-0.02c0-0.4-0.22-0.62-1.26-0.86
				c-1.19-0.29-1.87-0.64-1.87-1.67v-0.02c0-0.96,0.8-1.63,1.91-1.63c0.82,0,1.47,0.25,2.03,0.7l-0.53,0.74
				c-0.5-0.38-1.01-0.58-1.52-0.58c-0.58,0-0.91,0.3-0.91,0.66v0.02c0,0.43,0.26,0.62,1.33,0.88c1.18,0.29,1.8,0.71,1.8,1.64v0.02
				c0,1.05-0.82,1.67-2,1.67C72.05,111.47,71.24,111.17,70.57,110.57z"/>
			<path d="M78.46,108.6v-0.02c0-1.59,1.19-2.9,2.89-2.9c1.03,0,1.66,0.36,2.19,0.87l-0.63,0.73c-0.45-0.42-0.93-0.7-1.57-0.7
				c-1.07,0-1.85,0.88-1.85,1.98v0.02c0,1.1,0.78,1.99,1.85,1.99c0.69,0,1.13-0.28,1.61-0.73l0.63,0.64
				c-0.58,0.61-1.22,0.99-2.27,0.99C79.67,111.48,78.46,110.21,78.46,108.6z"/>
			<path d="M87.53,105.79h0.98v2.33h2.67v-2.33h0.98v5.6h-0.98v-2.36h-2.67v2.36h-0.98V105.79z"/>
			<path d="M96.12,108.6v-0.02c0-1.58,1.22-2.9,2.94-2.9c1.72,0,2.92,1.3,2.92,2.88v0.02c0,1.58-1.22,2.9-2.94,2.9
				C97.32,111.48,96.12,110.18,96.12,108.6z M100.95,108.6v-0.02c0-1.09-0.79-1.99-1.91-1.99c-1.11,0-1.89,0.89-1.89,1.98v0.02
				c0,1.09,0.79,1.99,1.91,1.99C100.17,110.58,100.95,109.69,100.95,108.6z"/>
			<path d="M105.69,108.6v-0.02c0-1.58,1.22-2.9,2.94-2.9c1.72,0,2.92,1.3,2.92,2.88v0.02c0,1.58-1.22,2.9-2.94,2.9
				C106.89,111.48,105.69,110.18,105.69,108.6z M110.51,108.6v-0.02c0-1.09-0.79-1.99-1.91-1.99c-1.11,0-1.89,0.89-1.89,1.98v0.02
				c0,1.09,0.79,1.99,1.91,1.99C109.74,110.58,110.51,109.69,110.51,108.6z"/>
			<path d="M115.5,105.79h0.98v4.71h2.95v0.9h-3.93V105.79z"/>
			<path d="M122.83,110.57l0.59-0.7c0.54,0.46,1.07,0.73,1.77,0.73c0.61,0,0.99-0.28,0.99-0.7v-0.02c0-0.4-0.22-0.62-1.27-0.86
				c-1.19-0.29-1.87-0.64-1.87-1.67v-0.02c0-0.96,0.8-1.63,1.91-1.63c0.82,0,1.46,0.25,2.03,0.7l-0.53,0.74
				c-0.5-0.38-1.01-0.58-1.52-0.58c-0.58,0-0.91,0.3-0.91,0.66v0.02c0,0.43,0.26,0.62,1.33,0.88c1.19,0.29,1.8,0.71,1.8,1.64v0.02
				c0,1.05-0.82,1.67-2,1.67C124.31,111.47,123.5,111.17,122.83,110.57z"/>
		</g>
	</g>
</g>
</svg>
