<?xml version="1.0" encoding="utf-8"?>
<!-- Generator: Adobe Illustrator 27.0.0, SVG Export Plug-In . SVG Version: 6.00 Build 0)  -->
<svg version="1.2" baseProfile="tiny-ps" xmlns="http://www.w3.org/2000/svg" xmlns:xlink="http://www.w3.org/1999/xlink"
	 viewBox="0 0 967.5 967.5" xml:space="preserve">
<title>Roku</title>
<path fill-rule="evenodd" fill="#662D91" d="M186.6,482h-19v-79h19c21.2,0,38.4,17.7,38.4,39.7C225,464.2,207.8,482,186.6,482
	 M286.6,442.6c0-43.6-41.5-79-92.3-79H106V600h61.6v-78.6h18.7l55.5,78.8h69.9l-65.2-92.6C270.7,492.9,286.6,469.2,286.6,442.6"/>
<path fill-rule="evenodd" fill="#662D91" d="M351,507.5c0-28,13.8-50.7,30.1-50.7c16.6,0,30.5,22.7,30.5,50.7
	c0,28-13.8,50.6-30.5,50.6C364.8,558.1,351,535.5,351,507.5z M286.6,507.5c0,53.5,42.2,96.3,94.4,96.3c52.3,0,94.8-42.9,94.8-96.3
	c0-53.5-42.5-96.4-94.8-96.4C328.8,411.1,286.6,454,286.6,507.5z"/>
<path fill-rule="evenodd" fill="#662D91" d="M799.9,511.4v23.3c-6.9,12.4-16.6,20.2-31.5,20.2c-15.2,0-22.1-9.2-22.1-38.6v-7.8V415
	h-126l-70.9,72.6v-72.9h-61.5V600h61.5v-75.1l74,75.1h77.5l-94.1-96.4l77.9-79.8v109.9c0,36.5,21.4,70.2,75.4,70.2
	c25.6,0,49.1-14.9,60.6-28.3l27.7,24.4h13.2V415h-61.6V511.4z"/>
</svg>
