<?xml version="1.0" encoding="UTF-8"?>
<svg version="1.2" baseProfile="tiny-ps" id="Layer_1" xmlns="http://www.w3.org/2000/svg" xmlns:xlink="http://www.w3.org/1999/xlink" viewBox="0 0 500 500" xml:space="preserve">
  <title>Slimster</title>
  <rect width="500" height="500" fill="#247ce1"/>
  <path d="M131.43,255.53c-1.61-.45-3.45-.83-5.5-1.16-2.06-.32-3.99-.71-5.81-1.16-1.81-.45-3.37-.98-4.66-1.59-1.29-.61-1.94-1.43-1.94-2.46,0-.96.56-1.75,1.69-2.36,1.13-.61,3.31-.92,6.53-.92,2.74,0,5.32.32,7.74.96,2.42.64,5.04,1.7,7.86,3.18l4.48-12.06c-5.4-3.15-11.69-4.73-18.87-4.73-3.63,0-7,.31-10.1.92-3.1.61-5.77,1.59-7.98,2.94-2.22,1.35-3.97,3.07-5.26,5.16-1.29,2.09-1.94,4.58-1.94,7.48,0,2.57.56,4.73,1.69,6.46,1.13,1.74,2.74,3.2,4.84,4.39,2.1,1.19,4.64,2.2,7.62,3.04,2.98.84,6.29,1.64,9.92,2.41,2.66.58,4.6,1.26,5.81,2.03,1.21.77,1.81,1.77,1.81,2.99,0,1.54-.85,2.81-2.54,3.81-1.69,1-4.48,1.5-8.35,1.5-3.39,0-6.49-.38-9.32-1.16-2.82-.77-5.04-1.61-6.65-2.51l-5.32,11.19c3.39,1.87,6.94,3.15,10.65,3.86,3.71.71,7.14,1.06,10.28,1.06,3.71,0,7.2-.32,10.46-.96,3.27-.64,6.09-1.66,8.47-3.04,2.38-1.38,4.25-3.2,5.63-5.45,1.37-2.25,2.06-5.02,2.06-8.3,0-4.25-1.19-7.57-3.57-9.99-2.38-2.41-5.62-4.26-9.74-5.55M150.29,288.9h15.9l-.05-70.03-15.9,5.37.05,64.65ZM173.47,288.84h16.02v-55.56h-16.02v55.56ZM173.47,228.85h16.02v-9.97h-16.02v9.97ZM278.78,238.51c-1.98-1.63-4.47-2.91-7.45-3.84-2.98-.93-6.38-1.39-10.18-1.39s-7.25.4-10.56,1.2c-3.31.8-6.08,2.06-8.32,3.79-1.32-1.41-3.21-2.59-5.65-3.55-2.44-.96-5.65-1.44-9.63-1.44-6.04,0-10.8,1.63-14.28,4.89v-4.99h-16.02v55.72h16.02v-37.49c.66-1.73,1.88-3.12,3.66-4.17,1.78-1.06,3.87-1.58,6.27-1.58,3.56,0,6.17.82,7.82,2.45,1.66,1.63,2.48,3.41,2.48,5.33v35.48h15.9v-37.11c.66-1.85,1.86-3.34,3.6-4.46,1.74-1.12,3.81-1.68,6.21-1.68,3.56,0,6.17.82,7.82,2.45,1.65,1.63,2.48,3.41,2.48,5.33v35.38h15.9v-37.01c0-2.69-.52-5.17-1.55-7.44-1.04-2.27-2.55-4.22-4.53-5.85M323.42,255.54c-1.61-.45-3.45-.84-5.5-1.16-2.06-.32-3.99-.71-5.81-1.16-1.82-.45-3.37-.98-4.66-1.59-1.29-.61-1.94-1.43-1.94-2.46,0-.96.56-1.75,1.69-2.36,1.13-.61,3.31-.92,6.53-.92,2.74,0,5.32.32,7.74.96,2.42.64,5.04,1.7,7.86,3.18l4.48-12.06c-5.4-3.15-11.69-4.73-18.87-4.73-3.63,0-7,.31-10.1.92-3.11.61-5.77,1.59-7.98,2.94-2.22,1.35-3.97,3.07-5.26,5.16-1.29,2.09-1.94,4.58-1.94,7.48,0,2.57.56,4.73,1.69,6.46,1.13,1.74,2.74,3.2,4.84,4.39,2.1,1.19,4.64,2.2,7.62,3.04,2.98.84,6.29,1.64,9.92,2.41,2.66.58,4.6,1.25,5.81,2.03,1.21.77,1.82,1.77,1.82,2.99,0,1.54-.85,2.81-2.54,3.81-1.7,1-4.48,1.49-8.35,1.49-3.39,0-6.49-.38-9.31-1.16-2.82-.77-5.04-1.61-6.65-2.51l-5.32,11.19c3.39,1.87,6.93,3.15,10.64,3.86,3.71.71,7.14,1.06,10.28,1.06,3.71,0,7.2-.32,10.46-.96,3.27-.64,6.09-1.65,8.47-3.04,2.38-1.38,4.25-3.2,5.63-5.45,1.37-2.25,2.05-5.02,2.05-8.3,0-4.24-1.19-7.57-3.57-9.99-2.38-2.41-5.62-4.26-9.74-5.54M366.54,276.46c-1.91,0-3.4-.35-4.47-1.05-1.08-.7-1.61-1.95-1.61-3.74v-26.2h11.92v-12.19h-11.92v-14.4l-15.77,5.28v9.12h-7.08v12.19h7.08v27.83c0,4.67,1.47,8.43,4.41,11.28,2.94,2.85,7.18,4.27,12.73,4.27,2.9,0,5.15-.16,6.77-.48,1.62-.32,2.84-.67,3.66-1.05l2.49-13.34c-1.16.77-2.47,1.38-3.91,1.82-1.45.45-2.88.67-4.28.67M427.19,240.04c-2.4-2.27-5.3-3.97-8.69-5.09-3.4-1.12-7.12-1.68-11.18-1.68-4.31,0-8.24.64-11.8,1.92-3.56,1.28-6.6,3.15-9.13,5.61-2.53,2.46-4.49,5.47-5.9,9.02-1.41,3.55-2.11,7.57-2.11,12.04,0,8.77,2.46,15.45,7.39,20.06,4.92,4.61,12.03,6.91,21.3,6.91,4.47,0,8.4-.64,11.8-1.92,3.39-1.28,6.62-3.45,9.69-6.52l-10.8-7.87c-1.41,1.47-2.94,2.48-4.6,3.02-1.65.54-3.52.81-5.59.81-1.49,0-2.96-.17-4.41-.53-1.45-.35-2.78-.89-3.98-1.63-1.2-.73-2.23-1.61-3.1-2.64-.87-1.02-1.43-2.21-1.68-3.55h39.87c.17-.51.29-1.33.37-2.45.08-1.12.13-2.76.13-4.94,0-4.61-.66-8.62-1.99-12.04-1.33-3.42-3.19-6.27-5.59-8.54M394.4,256.02c.41-3.13,1.78-5.71,4.1-7.72,2.32-2.02,5.21-3.02,8.69-3.02,3.14,0,5.73,1.01,7.76,3.02,2.03,2.01,3.29,4.59,3.79,7.72h-24.34ZM470.96,233.9c-1.53-.42-3.13-.62-4.78-.62-4.31,0-7.74,1.25-10.31,3.74v-3.74h-16.02v55.53h16.02v-37.3c.33-1.79,1.14-3.21,2.42-4.27,1.28-1.06,3.12-1.58,5.53-1.58,1.49,0,2.71.16,3.66.48.95.32,1.8.74,2.55,1.25l4.97-11.52c-1.16-.89-2.51-1.55-4.04-1.97M25,288.81v-55.63h55.63v47.7l-10.98-10.99v-25.73h-33.66v33.62h25.79l11.03,11.02H25ZM58.43,266.6h-11.22v-11.22h11.22v11.22Z" fill="#fff"/>
</svg>