<?xml version="1.0" encoding="utf-8"?>
<!-- Generator: Adobe Illustrator 27.9.0, SVG Export Plug-In . SVG Version: 6.00 Build 0)  -->
<svg version="1.2" baseProfile="tiny-ps" id="Logomark"
	 xmlns="http://www.w3.org/2000/svg" xmlns:xlink="http://www.w3.org/1999/xlink" viewBox="0 0 216 216"
	 xml:space="preserve">
<title>Native Remedies</title>
<rect fill="#FFFFFF" width="216" height="216" />
<g>
	<g>
		<g>
			<path fill="#4D6A47" d="M35.52,133.15c3.93-1.78,5.67-5.13,5.67-8.44c-0.04-4.92-3.85-7.12-7.7-7.12h-14.4     c-0.25,0-0.54,0.12-0.7,0.5l-0.33,0.79c-0.21,0.45,0.16,0.58,0.78,0.74c1.78,0.29,2.61,0.99,2.61,2.73v19.79     c0,1.57-1.08,2.23-2.11,2.44c-0.29,0.08-0.62,0.13-0.78,0.58l-0.25,0.7c-0.21,0.62,0.21,0.7,0.54,0.7h10.51     c0.37,0,0.58-0.13,0.7-0.33l0.33-0.82c0.17-0.33,0.09-0.66-0.45-0.75c-2.03-0.45-2.65-0.74-2.65-2.52v-8.07h3.1l6.5,11.51     c0.21,0.33,0.5,0.99,1.16,0.99h6.21v-1.36C42.6,144.25,39.25,139.61,35.52,133.15z M29.85,131.83h-2.57v-12h3.31     c2.57,0,4.47,1.2,4.55,5.34C35.23,129.72,32.75,131.83,29.85,131.83z" />
			<path fill="#4D6A47" d="M62.44,134.72c0-5.55-2.85-9.35-8.48-9.35c-6.13,0-10.6,4.14-10.6,11.05c0,5.67,4.14,10.64,11.51,10.64     c1.61,0,3.89-0.37,4.84-0.83c0.45-0.25,0.66-0.66,0.87-1.03l1.32-2.69c0.33-0.66-0.87-1.2-1.28-0.83     c-1.45,1.57-2.77,2.52-5.21,2.52c-4.18,0-6.21-3.77-6.21-7.82h12.29C62.07,136.38,62.44,135.47,62.44,134.72z M55.94,134.15     h-6.75c0-3.48,1.74-6.75,4.68-6.75c1.78,0,3.68,1.2,3.68,4.93C57.55,133.49,57.06,134.15,55.94,134.15z" />
			<path fill="#4D6A47" d="M99.04,142.14v-10.22c0-4.39-2.27-6.54-6-6.54c-2.98,0-5.75,1.53-7.57,3.97     c-0.79-2.15-1.87-3.97-5.88-3.97c-2.36,0-5.51,1.16-7.57,4.31h-0.09v-2.98c0-0.87-0.54-0.83-0.99-0.83h-6.66     c-0.25,0-0.5,0-0.62,0.33l-0.37,0.83c-0.25,0.5,0.17,0.66,0.58,0.78c1.91,0.41,2.52,0.7,2.52,2.48v11.84     c0,1.57-1.08,2.23-2.11,2.44c-0.29,0.08-0.62,0.13-0.79,0.58l-0.25,0.7c-0.21,0.62,0.21,0.7,0.54,0.7h9.98     c0.33,0,0.54-0.13,0.62-0.33l0.33-0.82c0.13-0.33,0.04-0.66-0.41-0.75c-1.86-0.45-2.4-0.74-2.4-2.52v-2.69     c0-7.45,2.53-10.43,4.97-10.43c2.48,0,3.1,1.95,3.1,4.47v8.65c0,1.57-1,2.23-1.95,2.44c-0.25,0.08-0.58,0.13-0.7,0.58l-0.25,0.7     c-0.21,0.62,0.21,0.7,0.5,0.7h9.77c0.33,0,0.54-0.13,0.62-0.33l0.33-0.82c0.12-0.33,0.04-0.66-0.41-0.75     c-1.82-0.45-2.4-0.74-2.4-2.52v-2.69c0-7.45,2.52-10.43,4.96-10.43c2.48,0,3.1,1.95,3.1,4.47v8.65c0,1.57-0.99,2.23-1.95,2.44     c-0.25,0.08-0.58,0.13-0.7,0.58l-0.25,0.7c-0.21,0.62,0.21,0.7,0.5,0.7h9.98c0.37,0,0.58-0.13,0.7-0.33l0.33-0.82     c0.17-0.33,0.09-0.66-0.45-0.75C99.66,144.2,99.04,143.91,99.04,142.14z" />
			<path fill="#4D6A47" d="M121.24,134.72c0-5.55-2.85-9.35-8.48-9.35c-6.13,0-10.6,4.14-10.6,11.05c0,5.67,4.14,10.64,11.51,10.64     c1.61,0,3.89-0.37,4.84-0.83c0.45-0.25,0.66-0.66,0.87-1.03l1.32-2.69c0.33-0.66-0.87-1.2-1.28-0.83     c-1.45,1.57-2.77,2.52-5.21,2.52c-4.18,0-6.21-3.77-6.21-7.82h12.29C120.87,136.38,121.24,135.47,121.24,134.72z M114.74,134.15     h-6.75c0-3.48,1.74-6.75,4.68-6.75c1.78,0,3.68,1.2,3.68,4.93C116.36,133.49,115.86,134.15,114.74,134.15z" />
			<path fill="#4D6A47" d="M144.28,142.01v-24.58c0-0.83-0.33-1.28-1.16-1.28h-6.5c-0.25,0-0.5,0-0.62,0.33l-0.37,0.82     c-0.25,0.5,0.16,0.66,0.58,0.79c1.91,0.41,2.53,0.7,2.53,2.48v5.3c-1.32-0.29-2.44-0.5-3.48-0.5c-7.16,0-12.33,5.55-12.33,11.79     c0,5.8,3.85,9.89,8.57,9.89c3.06,0,5.92-2.15,7.2-4.51h0.09v2.73c0,0.83,0.33,1.28,1.16,1.28h5.88c0.37,0,0.66-0.04,0.82-0.33     l0.21-0.78c0.33-0.83-0.62-0.7-1.24-1.24C144.65,143.83,144.28,143.5,144.28,142.01z M133.23,143.58c-2.65,0-4.47-3.23-4.47-7.24     c0-4.22,2.24-8.82,6.09-8.82c3.18,0,3.93,2.61,3.93,7.04C138.78,140.89,136.17,143.58,133.23,143.58z" />
			<path fill="#4D6A47" d="M154.48,122.89c1.61,0,3.02-1.49,3.02-3.06c0-1.66-1.41-3.06-3.06-3.06c-1.66,0-3.06,1.36-3.06,3.06     S152.78,122.89,154.48,122.89z" />
			<path fill="#4D6A47" d="M157.17,142.14v-16.27h-7.61c-0.25,0-0.5,0-0.62,0.33l-0.37,0.83c-0.25,0.5,0.17,0.66,0.58,0.78     c1.91,0.41,2.52,0.7,2.52,2.48v11.84c0,1.57-1.08,2.23-2.11,2.44c-0.29,0.08-0.62,0.13-0.79,0.58l-0.25,0.7     c-0.21,0.62,0.21,0.7,0.54,0.7h10.19c0.37,0,0.58-0.13,0.7-0.33l0.33-0.82c0.17-0.33,0.09-0.66-0.45-0.75     C157.79,144.2,157.17,143.91,157.17,142.14z" />
			<path fill="#4D6A47" d="M180.19,134.72c0-5.55-2.85-9.35-8.48-9.35c-6.13,0-10.6,4.14-10.6,11.05c0,5.67,4.14,10.64,11.51,10.64     c1.61,0,3.89-0.37,4.84-0.83c0.45-0.25,0.66-0.66,0.87-1.03l1.32-2.69c0.33-0.66-0.87-1.2-1.28-0.83     c-1.45,1.57-2.77,2.52-5.21,2.52c-4.18,0-6.21-3.77-6.21-7.82h12.29C179.82,136.38,180.19,135.47,180.19,134.72z M173.69,134.15     h-6.75c0-3.48,1.74-6.75,4.68-6.75c1.78,0,3.68,1.2,3.68,4.93C175.3,133.49,174.81,134.15,173.69,134.15z" />
			<path fill="#4D6A47" d="M192.95,133.9c-2.4-1.99-4.47-2.82-4.55-4.39c-0.04-0.83,1.2-2.19,2.65-2.19c1.66,0,2.69,0.58,3.35,1.61     c0.62,0.87,1.24,2.4,1.49,2.15l0.7-0.58c0.09-0.12,0.21-0.25,0.21-0.37v-3.1c0-0.54-0.37-1-1.08-1.16     c-1.16-0.25-3.02-0.5-4.76-0.5c-5.51,0-7.95,2.65-7.95,5.55c0,3.1,3.06,4.64,5.21,6.21c1.78,1.32,4.31,2.98,4.39,4.8     c0.04,1.78-1.45,3.14-3.64,3.14c-1.82,0-3.27-1.16-3.93-2.65c-0.83-1.41-0.79-2.94-1.24-2.77l-0.82,0.29     c-0.25,0.08-0.21,0.62-0.21,0.99v4.02c0,0.33,0.62,0.66,1.08,0.95c1.45,0.83,3.68,1.16,5.91,1.16c3.77,0,8.24-1.69,8.24-6.08     C198,138.58,196.88,137.17,192.95,133.9z" />
		</g>
		<g>
			<path fill="#4D6A47" d="M79.46,83.28h-7.53c-0.37,0-0.58,0.12-0.7,0.33l-0.33,0.83c-0.16,0.33-0.08,0.66,0.45,0.74     c2.03,0.45,2.65,0.75,2.65,2.53v16.6h-0.08L58.55,84.98c-0.74-0.87-1.28-1.61-2.32-1.69h-7.12c-0.37,0-0.58,0.17-0.7,0.33     l-0.33,0.83c-0.17,0.37-0.08,0.66,0.74,0.91c1.12,0.33,2.65,1.16,3.85,2.4v20.07c0,1.57-1.08,2.23-2.11,2.44     c-0.29,0.08-0.62,0.13-0.78,0.58l-0.25,0.7c-0.21,0.62,0.21,0.7,0.54,0.7h7.53c0.37,0,0.58-0.13,0.7-0.33l0.33-0.82     c0.17-0.33,0.08-0.66-0.45-0.75c-2.03-0.45-2.65-0.74-2.65-2.52V90.36h0.08l15.73,20.03c1.28,1.57,1.53,1.86,1.74,1.86h2.86     c0.75,0,0.91-0.54,0.91-1.36V87.71c0-1.57,1.08-2.23,2.11-2.44c0.29-0.09,0.62-0.13,0.78-0.58l0.25-0.7     C80.2,83.36,79.79,83.28,79.46,83.28z" />
			<path fill="#4D6A47" d="M101.39,107.7V95.66c0-2.69-1.12-2.94-2.4-3.48c-1.78-0.66-3.77-1.12-6.54-1.12     c-7.24,0-12.33,5.55-12.33,12.09c0,4.96,3.02,9.6,7.99,9.6c3.1,0,6.37-2.32,7.7-5.38h0.08v3.6c0,0.83,0.33,1.32,1.16,1.28h5.87     c0.37,0,0.66-0.04,0.83-0.33l0.21-0.78c0.33-0.83-0.62-0.7-1.24-1.24C101.76,109.52,101.39,109.19,101.39,107.7z M90.01,109.27     c-2.57,0-4.06-3.23-4.06-7.24c0-4.22,2.15-8.82,6.01-8.82c3.39,0,3.93,2.94,3.93,6.46C95.88,105.55,92.45,109.27,90.01,109.27z" />
			<path fill="#4D6A47" d="M112.17,85.6c0-0.5-1.12-0.5-1.95-0.08l-3.56,1.91v4.14h-3.52v2.36h3.52v12.25     c0,4.43,2.23,6.58,6.87,6.58c1.04,0,2.32-0.29,3.23-0.74l1.2-0.62c0.17-0.08,0.21-0.29,0.13-0.45l-0.58-1.16     c-0.08-0.21-0.45-0.13-0.7,0c-0.17,0.08-1.12,0.25-1.61,0.25c-2.07,0-3.02-1.32-3.02-3.93V93.92h5.46l0.82-0.83v-1.53h-6.29V85.6     z" />
			<path fill="#4D6A47" d="M126.02,88.58c1.61,0,3.02-1.49,3.02-3.06c0-1.66-1.41-3.06-3.06-3.06c-1.66,0-3.06,1.36-3.06,3.06     S124.32,88.58,126.02,88.58z" />
			<path fill="#4D6A47" d="M128.71,107.82V91.56h-7.61c-0.25,0-0.5,0-0.62,0.33l-0.37,0.83c-0.25,0.5,0.17,0.66,0.58,0.78     c1.91,0.41,2.52,0.7,2.52,2.48v11.84c0,1.57-1.08,2.23-2.11,2.44c-0.29,0.08-0.62,0.13-0.79,0.58l-0.25,0.7     c-0.21,0.62,0.21,0.7,0.54,0.7h10.19c0.37,0,0.58-0.13,0.7-0.33l0.33-0.82c0.17-0.33,0.09-0.66-0.45-0.75     C129.33,109.89,128.71,109.6,128.71,107.82z" />
			<path fill="#4D6A47" d="M153.07,91.56h-6.5c-0.33,0-0.54,0.5-0.66,0.75l-0.25,0.45c-0.5,1.03,3.93,0.62,2.86,2.86l-4.89,10.26     l-4.14-9.85c-0.96-2.27,1.74-2.15,2.07-2.94l0.33-0.83c0.21-0.54-0.13-0.7-0.71-0.7h-9.06c-0.37,0-0.66,0.17-0.78,0.5l-0.37,1     c-0.17,0.37,0.25,0.54,0.87,0.79c0.54,0.25,1.08,0.62,1.91,2.48l6.87,15.27c0.17,0.37,0.29,0.7,0.62,0.66h2.03     c0.33,0,0.41-0.25,0.58-0.58l7.37-15.35c0.5-1.04,0.7-1.49,0.99-1.82c0.62-0.71,1.57-0.66,1.82-1.41l0.2-0.7     C154.52,91.56,153.77,91.56,153.07,91.56z" />
			<path fill="#4D6A47" d="M172.23,100.41c0-5.55-2.86-9.35-8.48-9.35c-6.13,0-10.6,4.14-10.6,11.05c0,5.67,4.14,10.64,11.51,10.64     c1.61,0,3.89-0.37,4.84-0.83c0.45-0.25,0.66-0.66,0.87-1.03l1.32-2.69c0.33-0.66-0.87-1.2-1.28-0.83     c-1.45,1.57-2.77,2.52-5.21,2.52c-4.18,0-6.21-3.77-6.21-7.82h12.29C171.86,102.07,172.23,101.16,172.23,100.41z M165.73,99.84     h-6.75c0-3.48,1.74-6.75,4.68-6.75c1.78,0,3.68,1.2,3.68,4.93C167.34,99.18,166.85,99.84,165.73,99.84z" />
		</g>
		<g>
			<path fill="#4D6A47" d="M82.08,76.41c-1.42,0.75-1.73,2.18-0.28,3.26c1.4,1.06,7.21,2.49,11.44,0.7     c3.91-1.65,5.06-4.15,5.22-4.52c0.23-0.53-0.27-1.19-1.02-0.7c-0.62,0.41-3.04,2.77-6.26,3.4     C85.98,79.58,83.35,75.74,82.08,76.41z" />
			<g>
				<path fill="#68813C" d="M140.69,63.91c-1.19-1.71-21.84-15.91-36.78-5.97c-9.46,6.29-8.64,14.75-5.72,15.41      c0.9,0.2,5.1-6.48,12.09-9.67c6.58-3.01,10.34-2.79,10.53-2.04c0.14,0.54-2.14-0.21-9.35,3.03c-6.58,2.95-11.68,9.86-11.7,11.12      s13.37,11.02,22.72-2.93C132.17,58.42,141.77,65.46,140.69,63.91z" />
				<path fill="#4D6A47" d="M141.27,65.34c0.23,0.08,1.29,1.79,1.73,5.14c0.44,3.36-8.1-5.33-8.22-5.62      C134.65,64.57,138.42,64.32,141.27,65.34z" />
			</g>
		</g>
	</g>
</g>
</svg>