<?xml version="1.0" encoding="iso-8859-1"?>
<!-- Generator: Adobe Illustrator 28.1.0, SVG Export Plug-In . SVG Version: 6.00 Build 0)  -->
<svg version="1.2" baseProfile="tiny-ps" id="Layer_1" xmlns="http://www.w3.org/2000/svg" xmlns:xlink="http://www.w3.org/1999/xlink"
	 viewBox="0 0 383.76 383.76" xml:space="preserve">
	 <title>Samscreen</title>
<rect x="260.409" y="242.434" fill="#231F20" width="67.929" height="11.313"/>
<path fill="#231F20" d="M260.539,64.368v8.21h31.232C291.771,72.578,278.794,66.995,260.539,64.368z"/>
<path fill="#231F20" d="M260.349,307.218h46.987c0,0,10.881-6.339,17.494-11.288h-64.485L260.349,307.218z"/>
<path fill="#231F20" d="M260.486,321.859v-7.785h30.113C290.599,314.074,277.378,320.422,260.486,321.859z"/>
<path fill="#231F20" d="M260.46,79.354h46.125c0,0,12.633,5.562,17.781,11.288H260.46V79.354z"/>
<g>
	<path fill="#231F20" d="M346.265,278.516c-22.597,26.643-54.223,42.897-89.042,45.753c-3.654,0.294-7.308,0.448-10.934,0.448
		c-30.913,0-60.537-10.836-84.38-31.053c-26.643-22.61-42.897-54.223-45.753-89.056c-0.518-6.202-0.588-12.446-0.224-18.634
		l2.254,0.238c-0.35,6.048-0.28,12.152,0.224,18.214c2.814,34.217,18.774,65.298,44.955,87.502
		c26.195,22.204,59.445,32.887,93.676,30.087c1.148-0.098,2.31-0.21,3.444-0.336c10.248-1.106,20.188-3.402,29.667-6.818
		c5.39-1.932,10.64-4.228,15.694-6.86c6.244-3.248,12.222-7.014,17.878-11.284c7.56-5.698,14.532-12.278,20.804-19.67
		c22.219-26.181,32.901-59.445,30.087-93.662c-3.15-38.361-22.919-71.444-51.647-92.738c-5.726-4.256-11.83-8.036-18.214-11.298
		c-5.096-2.604-10.374-4.872-15.806-6.776c-9.072-3.192-18.592-5.376-28.407-6.454c-8.008-0.882-16.226-1.008-24.557-0.322
		c-43.639,3.584-81.902,28.827-102.482,66.823l-2.17-0.742c20.902-38.865,59.921-64.681,104.47-68.35
		c71.892-5.894,135.159,47.783,141.067,119.661C379.726,218.021,368.862,251.86,346.265,278.516z"/>
</g>
<rect x="260.444" y="97.454" fill="#231F20" width="67.964" height="11.313"/>
<rect x="260.48" y="115.572" fill="#231F20" width="67.929" height="11.313"/>
<rect x="260.444" y="188.08" fill="#231F20" width="67.929" height="11.313"/>
<rect x="260.48" y="206.198" fill="#231F20" width="67.929" height="11.313"/>
<rect x="260.444" y="224.316" fill="#231F20" width="67.929" height="11.313"/>
<rect x="260.444" y="260.552" fill="#231F20" width="67.929" height="11.313"/>
<rect x="260.477" y="277.889" fill="#231F20" width="67.894" height="11.313"/>
<g>
	<path fill="#268F3B" d="M33.036,157.231c-1.652-1.162-5.222-1.89-10.682-2.156c-4.074-0.196-6.454-0.462-7.154-0.784
		c-0.714-0.336-1.064-1.372-1.064-3.122c0-2.562,2.002-3.836,6.006-3.836c2.786,0,4.536,0.182,5.264,0.56
		c0.728,0.378,1.176,1.33,1.33,2.842c0.014,0.14,0.056,0.336,0.098,0.602h7.504c0-3.598-0.924-6.02-2.772-7.252
		c-1.834-1.246-5.432-1.862-10.766-1.862c-5.642,0-9.464,0.644-11.452,1.918c-1.988,1.288-2.982,3.738-2.982,7.364
		c0,4.046,1.092,6.706,3.276,7.98c2.17,1.288,6.692,1.918,13.538,1.918c3.038,0,4.564,1.344,4.564,4.018
		c0,2.786-2.436,4.172-7.28,4.172c-4.676,0-6.874-1.4-6.552-4.214c0.014-0.252,0.084-0.616,0.196-1.05H6.142v0.798
		c0,3.682,0.994,6.202,3.01,7.546c2.002,1.344,5.754,2.03,11.214,2.03c5.698,0,9.646-0.756,11.844-2.24
		c2.198-1.498,3.304-4.172,3.304-8.036C35.514,160.801,34.688,158.407,33.036,157.231z"/>
	<path fill="#268F3B" d="M66.651,144.617c-2.03-1.582-5.922-2.352-11.69-2.352c-5.292,0-8.82,0.63-10.612,1.918
		c-1.792,1.274-2.674,3.822-2.674,7.616h7.826c0-2.954,1.96-4.438,5.866-4.438c2.702,0,4.494,0.406,5.362,1.204
		c0.868,0.812,1.302,2.45,1.302,4.928v5.138h-0.126c-1.148-2.408-4.354-3.612-9.646-3.612c-7.938,0-11.9,3.29-11.9,9.87
		c0,6.51,3.878,9.772,11.634,9.772c5.334,0,8.736-1.582,10.206-4.732l0.196,0.028l-0.364,4.34h7.672v-20.707
		C69.703,149.167,68.681,146.171,66.651,144.617z M55.101,169.566c-2.856,0-4.732-0.322-5.628-0.966
		c-0.896-0.644-1.344-1.988-1.344-4.046c0-2.954,2.17-4.438,6.496-4.438c4.984,0,7.476,1.596,7.476,4.774
		C62.101,167.998,59.763,169.566,55.101,169.566z"/>
	<path fill="#268F3B" d="M114.406,142.265c-5.082,0-8.372,1.946-9.87,5.852h-0.14c-0.644-3.906-3.864-5.852-9.646-5.852
		c-4.956,0-8.218,1.75-9.772,5.264l-0.168-0.028l0.196-4.872h-7.672v31.669h7.672v-18.354c0-5.124,2.352-7.686,7.07-7.686
		c2.268,0,3.766,0.42,4.466,1.246c0.7,0.826,1.064,2.548,1.064,5.18v19.614h7.658v-18.522c0-5.012,2.338-7.518,7-7.518
		c3.738,0,5.6,2.24,5.6,6.72v19.321h7.672v-20.973C125.536,145.947,121.826,142.265,114.406,142.265z"/>
	<path fill="#268F3B" d="M158.787,157.231c-1.652-1.162-5.208-1.89-10.682-2.156c-4.06-0.196-6.454-0.462-7.154-0.784
		c-0.7-0.336-1.05-1.372-1.05-3.122c0-2.562,1.988-3.836,5.992-3.836c2.786,0,4.55,0.182,5.278,0.56
		c0.714,0.378,1.162,1.33,1.316,2.842c0.028,0.14,0.056,0.336,0.098,0.602h7.504c0-3.598-0.924-6.02-2.758-7.252
		c-1.848-1.246-5.432-1.862-10.766-1.862c-5.642,0-9.464,0.644-11.452,1.918c-1.988,1.288-2.982,3.738-2.982,7.364
		c0,4.046,1.092,6.706,3.262,7.98c2.17,1.288,6.692,1.918,13.552,1.918c3.024,0,4.55,1.344,4.55,4.018
		c0,2.786-2.422,4.172-7.266,4.172c-4.69,0-6.874-1.4-6.566-4.214c0.014-0.252,0.098-0.616,0.196-1.05h-7.966v0.798
		c0,3.682,1.008,6.202,3.01,7.546c2.016,1.344,5.754,2.03,11.228,2.03c5.684,0,9.632-0.756,11.83-2.24
		c2.198-1.498,3.304-4.172,3.304-8.036C161.265,160.801,160.439,158.407,158.787,157.231z"/>
	<path fill="#268F3B" d="M187.684,162.202c0,2.744-0.364,4.508-1.12,5.292c-0.742,0.784-2.436,1.176-5.068,1.176
		c-3.346,0-5.46-0.574-6.314-1.708c-0.854-1.134-1.288-3.92-1.288-8.33c0-4.578,0.392-7.448,1.176-8.624
		c0.77-1.162,2.688-1.75,5.754-1.75c4.312,0,6.468,1.848,6.468,5.53h7.602c0-4.48-0.98-7.532-2.954-9.128
		c-1.96-1.596-5.712-2.394-11.256-2.394c-5.726,0-9.59,1.092-11.578,3.304c-1.988,2.212-2.982,6.496-2.982,12.852
		c0,6.524,0.994,10.864,2.982,13.006c1.988,2.156,5.992,3.234,12.012,3.234c8.218,0,12.796-2.184,13.734-6.552l0.476-4.816v-1.092
		H187.684z"/>
	<path fill="#268F3B" d="M217.168,142.125c-3.934,0-6.818,1.652-8.652,4.97l-0.168-0.028l0.476-4.438h-7.672v31.669h7.672v-18.648
		c0-5.026,1.89-7.532,5.698-7.532c2.646,0,3.976,1.694,3.976,5.082c0,0.252-0.042,0.826-0.126,1.68h7.224v-2.212
		C225.597,145.639,222.783,142.125,217.168,142.125z"/>
	<path fill="#268F3B" d="M258.189,159.821v-2.324c0-6.048-0.98-10.108-2.912-12.18c-1.946-2.058-5.768-3.094-11.494-3.094
		c-5.964,0-9.968,1.064-12.012,3.178c-2.058,2.128-3.08,6.272-3.08,12.432c0,6.93,0.98,11.466,2.94,13.622
		c1.96,2.142,6.132,3.206,12.488,3.206c9.38,0,14.07-3.094,14.07-9.282v-1.218h-7.7c0,2.002-0.42,3.318-1.274,3.92
		c-0.854,0.616-2.674,0.91-5.488,0.91c-2.912,0-4.844-0.518-5.81-1.554c-0.98-1.036-1.47-3.108-1.47-6.23
		c0-0.224,0.028-0.686,0.07-1.386H258.189z M237.875,149.251c0.854-0.91,2.716-1.358,5.572-1.358c2.954,0,4.872,0.378,5.754,1.12
		c0.882,0.756,1.316,2.394,1.316,4.914l0.028,1.26h-13.958C236.587,152.135,237.021,150.147,237.875,149.251z"/>
	<path fill="#268F3B" d="M292.924,159.821v-2.324c0-6.048-0.98-10.108-2.926-12.18c-1.932-2.058-5.768-3.094-11.48-3.094
		c-5.964,0-9.968,1.064-12.026,3.178c-2.044,2.128-3.08,6.272-3.08,12.432c0,6.93,0.98,11.466,2.954,13.622
		c1.96,2.142,6.118,3.206,12.488,3.206c9.38,0,14.07-3.094,14.07-9.282v-1.218h-7.714c0,2.002-0.42,3.318-1.26,3.92
		c-0.854,0.616-2.688,0.91-5.502,0.91c-2.898,0-4.83-0.518-5.81-1.554c-0.966-1.036-1.456-3.108-1.456-6.23
		c0-0.224,0.028-0.686,0.07-1.386H292.924z M272.61,149.251c0.854-0.91,2.716-1.358,5.572-1.358c2.94,0,4.858,0.378,5.74,1.12
		c0.882,0.756,1.33,2.394,1.33,4.914l0.028,1.26h-13.958C271.322,152.135,271.742,150.147,272.61,149.251z"/>
	<path fill="#268F3B" d="M316.837,142.265c-5.208,0-8.554,1.904-10.052,5.726l-0.168-0.028l0.308-5.334h-7.602v31.669h7.672v-18.788
		c0-4.83,2.576-7.252,7.728-7.252c3.388,0,5.264,1.176,5.628,3.542l0.168,2.226v20.273h7.672v-21.575
		C328.191,145.751,324.411,142.265,316.837,142.265z"/>
</g>
<g>
	<path fill="#231F20" d="M335.249,143.577h-2.44v-1.309h6.47v1.309h-2.465v7.258h-1.564V143.577z"/>
	<path fill="#231F20" d="M347.472,147.34c-0.051-1.106-0.115-2.44-0.101-3.597h-0.038c-0.28,1.042-0.636,2.198-1.017,3.279
		l-1.246,3.711h-1.207l-1.144-3.661c-0.331-1.093-0.636-2.262-0.864-3.33h-0.026c-0.038,1.118-0.089,2.478-0.152,3.648l-0.191,3.445
		h-1.462l0.572-8.567h2.059l1.12,3.445c0.305,1.004,0.572,2.021,0.788,2.974h0.038c0.228-0.928,0.521-1.983,0.852-2.987l1.181-3.432
		h2.034l0.495,8.567h-1.524L347.472,147.34z"/>
</g>
</svg>
