<?xml version="1.0" encoding="utf-8"?>
<svg baseProfile="tiny-ps" version="1.2" viewBox="0 0 113.4 113.4" xmlns="http://www.w3.org/2000/svg">
  <title>C:\Users\mg\Downloads\Blocket_symbol_1.1_tiny</title>
  <g>
    <path d="M98.9,14.5C88.6,4.1,72.7.1,56.7,0c-16,.1-31.9,4.1-42.2,14.5C4.1,24.8.1,40.7,0,56.7c.1,16,4.1,31.9,14.5,42.2,10.2,10.4,26.2,14.4,42.2,14.5,16-.1,31.9-4.1,42.2-14.5,10.4-10.2,14.4-26.2,14.5-42.2-.1-16-4.1-31.9-14.5-42.2" fill="#f71414" stroke-width="0" />
  </g>
  <path d="M55.5,66.6v-14.4c.6-.2,1.7-.3,2.5-.3,4.6,0,7.2,2.7,7.2,7.2s-2.6,7.5-7.1,7.5h-2.7ZM42.5,77.8h16.3c12.8,0,19.9-6.6,19.9-18.7s-6.7-18.7-18.6-18.7-3.3.2-4.6.5v-11.2h-13v48.1Z" fill="#fff" stroke-width="0" />
</svg>