<?xml version="1.0" encoding="utf-8"?>
<svg xmlns:x="http://ns.adobe.com/Extensibility/1.0/" xmlns:i="http://ns.adobe.com/AdobeIllustrator/10.0/" xmlns:graph="http://ns.adobe.com/Graphs/1.0/" xmlns="http://www.w3.org/2000/svg" xmlns:xlink="http://www.w3.org/1999/xlink" version="1.2" baseProfile="tiny-ps" id="layer_1" viewBox="0 0 120 120" xml:space="preserve">
<title>micard.co.jp</title>
 <path fill="#0C3388" d="M69.69,29.91c0,5.35-4.34,9.69-9.69,9.69s-9.69-4.34-9.69-9.69c0-5.35,4.34-9.7,9.69-9.7 S69.69,24.55,69.69,29.91z"/>
 <polygon fill="#0C3388" points="39.23,85.07 53.11,76.2 51.53,43.14 34.09,51.54"/>
 <polygon fill="#376AB3" points="80.76,81.71 66.05,72.52 67.43,38.72 85.91,47.28"/>
 <polygon fill="#376AB3" points="60,99.79 46.96,89.69 43.62,56.17 60,66.2"/>
 <polygon fill="#0C3388" points="60,99.79 73.04,89.69 76.38,56.17 60,66.2"/>
 <path fill="#FFFFFF" d="M60.19,26.96c0,1.47-1.19,2.66-2.66,2.66c-1.47,0-2.66-1.19-2.66-2.66c0-1.47,1.19-2.66,2.66-2.66 C58.99,24.3,60.19,25.5,60.19,26.96z"/>
</svg>
