<?xml version="1.0" encoding="utf-8"?>
<!-- Generator: Adobe Illustrator 25.0.0, SVG Export Plug-In . SVG Version: 6.00 Build 0)  -->
<svg xmlns="http://www.w3.org/2000/svg" xmlns:xlink="http://www.w3.org/1999/xlink" version="1.2" baseProfile="tiny-ps" id="Layer_1" viewBox="0 0 600 600" xml:space="preserve">
<title>Quality Logo Products</title>
<rect y="0" fill="#016DB6" width="600" height="600"/>
<path fill="#FFFFFF" d="M85.9,453.4l1.8,3.4c0.1,0.2,0.2,0.5,0.2,0.8c0,0.6-0.3,1.2-0.9,1.5c-0.2,0.1-0.5,0.2-0.8,0.2  c-0.6,0-1.2-0.4-1.5-0.9l-2-3.7c-6.4,1.5-12.8-2.4-14.3-8.8s2.4-12.8,8.8-14.3s12.8,2.4,14.3,8.8c0.2,0.9,0.3,1.8,0.3,2.7  C91.9,447.3,89.6,451.2,85.9,453.4z M80.2,434.5c-4.8,0-7.9,3.9-7.9,8.4s3.2,8.5,7.9,8.5c0.3,0,0.5,0,0.8,0l-1.3-2.5  c-0.1-0.2-0.2-0.5-0.2-0.7c0-0.7,0.3-1.3,0.9-1.6c0.3-0.1,0.5-0.2,0.8-0.2c0.6,0,1.2,0.4,1.4,0.9l1.6,3c2.5-1.6,4-4.4,3.9-7.4  C88.2,438.4,85,434.5,80.2,434.5z"/>
<path fill="#FFFFFF" d="M105.6,454.9c-5.8,0-9.5-3.8-9.5-9.7v-12.1c0-1,0.8-1.8,1.8-1.8l0,0c1,0,1.8,0.8,1.8,1.9l0,0v12.6  c0,3.5,2.1,5.8,5.9,5.8s5.8-2.4,5.8-5.8v-12.6c0.1-1,1-1.8,2-1.7c0.9,0.1,1.7,0.8,1.7,1.7v12.1C115.2,451,111.4,454.9,105.6,454.9z"/>
<path fill="#FFFFFF" d="M138.6,454.5c-0.2,0.1-0.5,0.2-0.7,0.2c-0.7,0-1.3-0.4-1.6-1l-2.2-4.9h-10.6l-2.2,4.9c-0.3,0.6-0.9,1-1.6,1  c-0.2,0-0.5,0-0.7-0.1c-0.6-0.3-1-0.9-1-1.6c0-0.3,0-0.5,0.1-0.8l9-19.9c0.3-0.6,0.9-1,1.6-1s1.3,0.4,1.6,1l9,19.9  C139.8,453.1,139.4,454.1,138.6,454.5L138.6,454.5z M128.8,437l-3.8,8.6h7.8L128.8,437z"/>
<path fill="#FFFFFF" d="M158.6,454.4h-12.9c-1,0-1.8-0.8-1.9-1.8l0,0v-19.5c0-1,0.8-1.8,1.9-1.8c1,0,1.8,0.8,1.8,1.8V451h11  c0.9,0,1.7,0.7,1.7,1.6c0,0,0,0,0,0.1C160.3,453.6,159.5,454.4,158.6,454.4z"/>
<path fill="#FFFFFF" d="M166.4,454.7c-1,0-1.9-0.8-1.9-1.9v-19.7c0-1,0.8-1.9,1.8-1.9l0,0c1,0,1.8,0.8,1.8,1.8l0,0v19.7  C168.3,453.8,167.5,454.7,166.4,454.7C166.5,454.7,166.5,454.7,166.4,454.7z"/>
<path fill="#FFFFFF" d="M190.8,435h-6.7v17.8c0,1-0.8,1.9-1.8,1.9l0,0c-1,0-1.8-0.8-1.8-1.8l0,0V435h-6.6c-0.9,0.1-1.8-0.6-1.8-1.6  s0.6-1.8,1.6-1.8c0.1,0,0.2,0,0.3,0h17c0.9-0.1,1.8,0.6,1.8,1.6s-0.6,1.8-1.6,1.8C191,435,190.9,435,190.8,435L190.8,435z"/>
<path fill="#FFFFFF" d="M214.3,433.9l-7.6,10.1v8.8c0,1-0.8,1.8-1.9,1.9c-1,0-1.8-0.8-1.8-1.9l0,0v-8.7l-7.6-10.2  c-0.2-0.3-0.3-0.6-0.3-1c0-0.5,0.2-1,0.6-1.3c0.3-0.2,0.6-0.3,1-0.4c0.5,0,1,0.2,1.3,0.6l6.7,9.2l6.7-9.2c0.6-0.7,1.6-0.9,2.4-0.3  l0,0c0.4,0.3,0.6,0.8,0.6,1.3C214.5,433.3,214.4,433.6,214.3,433.9z"/>
<path fill="#FFFFFF" d="M247.1,454.5h-12.9c-1,0-1.8-0.8-1.9-1.8l0,0v-19.5c0-1,0.8-1.8,1.9-1.8c1,0,1.8,0.8,1.8,1.8v17.9h11  c0.9,0,1.7,0.7,1.7,1.6c0,0,0,0,0,0.1C248.8,453.7,248.1,454.5,247.1,454.5L247.1,454.5z"/>
<path fill="#FFFFFF" d="M261.6,455c-6.5,0.1-12-5-12.1-11.6s5-12,11.6-12.1c6.5-0.1,12,5,12.1,11.6c0,0.1,0,0.2,0,0.2  C273.3,449.6,268.2,454.9,261.6,455C261.7,455,261.7,455,261.6,455z M261.6,434.6c-4.8,0-8,3.9-8,8.5s3.2,8.5,8,8.5s7.9-3.9,7.9-8.5  S266.4,434.6,261.6,434.6L261.6,434.6z"/>
<path fill="#FFFFFF" d="M297.3,450.8c-4.2,5-11.7,5.7-16.7,1.5s-5.7-11.7-1.5-16.7c2.2-2.7,5.5-4.2,8.9-4.3c2.9-0.1,5.7,1,7.8,2.9  c0.4,0.4,0.6,0.8,0.6,1.4c0,0.4-0.1,0.7-0.4,1c-0.3,0.4-0.7,0.6-1.2,0.6c-0.4,0-0.8-0.1-1.1-0.4c-1.6-1.4-3.7-2.2-5.8-2.2  c-4.8,0-8,4-8,8.5s3.1,8.5,8,8.5c2.3,0.1,4.5-0.8,6.1-2.5v-3.9h-5c-0.9,0.1-1.7-0.6-1.8-1.5c-0.1-0.9,0.6-1.7,1.5-1.8  c0.1,0,0.2,0,0.3,0h6.9c1,0,1.8,0.7,1.9,1.7c0,0.1,0,0.1,0,0.2v5.8C297.8,450.1,297.6,450.5,297.3,450.8z"/>
<path fill="#FFFFFF" d="M313.3,455c-6.5,0.1-12-5-12.1-11.6s5-12,11.6-12.1s12,5,12.1,11.6c0,0.1,0,0.2,0,0.2  C325,449.6,319.8,454.9,313.3,455L313.3,455z M313.3,434.6c-4.8,0-8,3.9-8,8.5s3.2,8.5,8,8.5s7.9-3.9,7.9-8.5  S318.1,434.6,313.3,434.6L313.3,434.6z"/>
<path fill="#FFFFFF" d="M354,445.4h-7v7.6c0,1-0.8,1.8-1.8,1.8c0,0,0,0-0.1,0c-1,0-1.8-0.8-1.8-1.8c0,0,0,0,0-0.1v-19.5  c0-1,0.8-1.8,1.8-1.8c0,0,0,0,0.1,0h8.9c5.3,0,7.8,3.3,7.8,6.9S359.3,445.4,354,445.4z M354.5,435H347v7h7.5  c1.8,0.1,3.4-1.2,3.6-3.1c0-0.1,0-0.2,0-0.4c0.1-1.9-1.3-3.5-3.2-3.6C354.7,435,354.6,435,354.5,435L354.5,435z"/>
<path fill="#FFFFFF" d="M380.5,444.3c0,0,0.1,0.2,3.9,7.9c0.1,0.2,0.2,0.5,0.2,0.8c0,0.7-0.4,1.3-1,1.6c-0.2,0.1-0.5,0.2-0.8,0.2  c-0.7,0-1.3-0.4-1.6-1l-4.3-8.9h-7.1v8.1c-0.1,1-1,1.8-2,1.7c-0.9-0.1-1.6-0.8-1.7-1.7v-19.5c0-1,0.8-1.8,1.8-1.8h9  c4.3,0,7.8,2.1,7.8,6.7C384.8,441,383.1,443.5,380.5,444.3z M377.4,435h-7.6v6.7h7.6c1.8,0.2,3.4-1.2,3.6-3c0-0.1,0-0.2,0-0.3  c0-1.9-1.5-3.4-3.3-3.4C377.6,435,377.5,435,377.4,435z"/>
<path fill="#FFFFFF" d="M400.1,455c-6.5,0.1-12-5-12.1-11.6s5-12,11.6-12.1s12,5,12.1,11.6c0,0.1,0,0.2,0,0.2  C411.8,449.6,406.6,454.9,400.1,455L400.1,455z M400.1,434.6c-4.8,0-8,3.9-8,8.5s3.2,8.5,8,8.5s7.9-3.9,7.9-8.5  S404.8,434.6,400.1,434.6L400.1,434.6z"/>
<path fill="#FFFFFF" d="M424.8,454.5h-6.1c-1,0-1.9-0.8-1.9-1.8l0,0v-19.2c0-1,0.8-1.8,1.8-1.8l0,0h6.1c6.9,0,11.3,5.1,11.3,11.4  S431.7,454.5,424.8,454.5z M424.6,435h-4.1v16.1h4.1c5,0,7.9-3.4,7.9-8S429.6,435,424.6,435z"/>
<path fill="#FFFFFF" d="M450,455c-5.8,0-9.5-3.8-9.5-9.7v-12.1c0-1,0.8-1.8,1.8-1.8l0,0c1,0,1.9,0.8,1.9,1.8l0,0v12.6  c0,3.5,2.1,5.8,5.9,5.8s5.8-2.4,5.8-5.8v-12.6c0-1,0.8-1.9,1.9-1.9s1.9,0.8,1.9,1.9v12.1C459.5,451.2,455.8,455,450,455z"/>
<path fill="#FFFFFF" d="M484.9,450.6c-4.2,4.9-11.6,5.5-16.5,1.3s-5.5-11.6-1.3-16.5c2.2-2.6,5.4-4.1,8.8-4.1c2.9,0,5.6,1,7.7,3  c0.4,0.3,0.6,0.8,0.6,1.3c0,0.4-0.1,0.8-0.4,1.1c-0.3,0.4-0.7,0.6-1.2,0.6c-0.4,0-0.8-0.1-1.1-0.4c-1.5-1.4-3.5-2.2-5.5-2.1  c-4.8,0-7.9,3.9-7.9,8.4s3.1,8.5,7.9,8.5c2.6,0,5.1-1.2,6.6-3.3c0.3-0.3,0.7-0.5,1.2-0.5c0.4,0,0.8,0.2,1.2,0.5  c0.3,0.3,0.5,0.7,0.5,1.2C485.3,449.8,485.2,450.2,484.9,450.6z"/>
<path fill="#FFFFFF" d="M506,435.1h-6.7v17.8c0,1-0.8,1.9-1.8,1.9l0,0c-1,0-1.8-0.8-1.8-1.8l0,0v-17.8H489c-0.9-0.1-1.7-0.9-1.6-1.8  c0.1-0.8,0.7-1.5,1.6-1.6h17c0.9,0.1,1.7,0.9,1.6,1.8C507.5,434.4,506.8,435,506,435.1z"/>
<path fill="#FFFFFF" d="M519.3,455c-2.8,0-6.7-0.7-8.9-2.6c-0.4-0.4-0.6-0.9-0.6-1.4c0-0.4,0.1-0.7,0.3-1c0.3-0.4,0.8-0.6,1.3-0.6  c0.4,0,0.8,0.1,1.1,0.3c2,1.3,4.4,1.9,6.8,1.9c2.2,0,5.5-0.6,5.5-3.2s-3.8-3-8-4.6c-3-1.1-6-2.6-6-6.5c0-4.7,4.6-6.1,8.9-6.1  c2.6,0.1,5.3,0.7,7.7,1.8c0.6,0.3,0.9,0.8,0.9,1.5c0,0.3,0,0.5-0.2,0.8c-0.3,0.6-0.8,0.9-1.5,0.9c-0.3,0-0.6,0-0.8-0.1  c-1.9-0.9-4-1.4-6.1-1.5c-2.1,0-5.2,0.5-5.2,2.8s4.6,3.5,7.2,4.3c3.7,1.2,6.8,2.6,6.8,6.6C528.4,453.2,523.8,455,519.3,455z"/>
<path fill="#FFFFFF" d="M484.8,114.9c0.2,5.7-4.3,10.5-10.1,10.6c-5.7,0.2-10.5-4.3-10.6-10.1c-0.2-5.7,4.3-10.5,10.1-10.6  c0.1,0,0.2,0,0.3,0c5.6-0.1,10.2,4.3,10.3,9.9C484.8,114.8,484.8,114.8,484.8,114.9z M466.7,114.9c-0.1,4.3,3.3,7.9,7.6,8  c0.1,0,0.2,0,0.3,0c4.3,0,7.7-3.5,7.7-7.7c0-0.1,0-0.2,0-0.3c0.2-4.3-3.2-7.9-7.4-8.1c-4.3-0.2-7.9,3.2-8.1,7.4  C466.7,114.5,466.7,114.6,466.7,114.9L466.7,114.9z M472.9,120.2h-2.3v-10.1c1.3-0.2,2.6-0.3,3.9-0.3c1.2-0.1,2.4,0.2,3.5,0.7  c0.7,0.5,1,1.4,1,2.2c-0.1,1.2-0.9,2.1-2.1,2.3v0.1c1,0.4,1.7,1.4,1.8,2.5c0.1,0.9,0.4,1.7,0.7,2.5h-2.5c-0.4-0.8-0.7-1.6-0.8-2.4  c-0.2-1.1-0.8-1.6-2.1-1.6h-1.1V120.2z M473,114.5h1.1c1.3,0,2.3-0.4,2.3-1.5s-0.7-1.5-2.1-1.5c-0.4,0-0.9,0-1.3,0.1V114.5z"/>
<polygon fill="#FFFFFF" points="263,343.3 393.7,333.4 397.4,309.4 290.9,317.7 327.3,110.9 303.7,112.6 "/>
<path fill="#FFFFFF" d="M416.3,157.7l-83.2,4.3l-26.9,144.3l21.9-1.1l12.1-61.6l66.2-4.8L416.3,157.7z M390.5,217.8l-45.4,2  l6.3-38.6l44.4-2.2L390.5,217.8z"/>
<polyline fill="#FFFFFF" points="222.1,362.8 216.9,386.3 431,370.7 458.4,121.3 458.5,120.9 339,128.7 336.1,148.9 433.7,143.8   409.4,348.5 407.8,348.6 "/>
<polygon fill="#FFFFFF" points="142.1,367.7 188,161.1 284.6,153.9 290,134.4 169.2,143 114.8,391.5 170.4,388.7 174,366.7 "/>
<path fill="#FFFFFF" d="M247.1,345.9L282.8,165l-84.8,8.2l-40.1,177.4l30-0.5l-10.3,57.7h24l11.5-60.6L247.1,345.9z M182.9,323.9  l31.3-135.4l44.5-2.5l-27.3,135.6L182.9,323.9z"/>
</svg>
