<?xml version="1.0" encoding="utf-8"?>
<svg version="1.2" baseProfile="tiny-ps" id="Layer_1" xmlns="http://www.w3.org/2000/svg" xmlns:xlink="http://www.w3.org/1999/xlink" viewBox="0 0 100 100" xml:space="preserve">
<title>CITYUNIONBANK</title>
<path fill="#2E3191" d="M51.16,0.42c0.36,0,0.72,0,1.09,0c12.6,0.68,23.51,5.32,32.6,14.07c7.9,7.61,12.87,16.85,14.51,27.7
	c2.37,15.68-1.81,29.53-12.45,41.3c-7.45,8.24-16.75,13.45-27.69,15.36c-16.62,2.89-31.29-1.43-43.67-12.91
	c-7.98-7.4-12.96-16.6-14.76-27.35c-2.46-14.69,0.97-27.99,10.31-39.6C18.84,9.32,28.96,3.45,41.13,1.15
	c2.23-0.42,4.48-0.65,6.74-0.74c0.36,0,0.72,0,1.08-0.01C49.69,0.41,50.43,0.41,51.16,0.42z"/>
<path fill="#FEFEFE" d="M50,97.65c-26.38,0-47.91-21.38-47.95-47.61C2.02,23.86,23.65,2.4,50.06,2.41
	c26.45,0.01,47.91,21.45,47.89,47.86C97.94,76.29,76.32,97.65,50,97.65z"/>
<path fill="#2E3191" d="M43.46,22.89c1.69-4.94,6.68-7.1,10.95-3.33c0-0.86,0.04-1.67-0.01-2.47c-0.19-3.04,2.14-5.47,4.76-6.24
	c2.26-0.67,4.44-0.41,6.38,0.87c1.73,1.13,2.57,2.86,2.58,4.95c0,1.84,0.01,3.67-0.01,5.51c-0.01,0.44,0.09,0.65,0.55,0.82
	c3,1.13,5.8,2.66,7.87,5.14c2.26,2.7,4.06,5.69,4.68,9.27c0.58,3.39,0.48,6.7-0.69,9.96c-0.81,2.25-1.91,4.36-3.45,6.17
	c-1.89,2.22-4.14,4.03-6.88,5.15c-0.36,0.14-0.69,0.38-1.06,0.45c-0.82,0.16-0.86,0.69-0.86,1.38c0.03,5.12,0.03,10.24,0.04,15.36
	c0,0.7,0.02,1.4,0.05,2.1c0.02,0.36-0.13,0.45-0.47,0.47c-1.39,0.05-1.39,0.07-1.4-1.31c-0.04-7.11-0.06-14.23-0.12-21.34
	c-0.02-1.8-1.06-2.96-2.68-3.54c-1.49-0.53-3.04-0.68-4.59-0.21c-1.95,0.59-2.82,1.75-2.84,3.79c-0.03,2.47-0.04,4.94-0.05,7.41
	c-0.01,1.16-0.23,2.25-0.77,3.32c-0.52,1.02-1.26,1.4-2.32,1.4c-2.06,0-4.12,0-6.19,0c-5.96,0-11.92-0.02-17.88,0.02
	c-1.29,0.01-2.61-1.08-3.05-2.18c-0.81-2.03-0.62-4.14-0.67-6.23c-0.08-2.99-0.11-5.98-0.13-8.97c0-0.4-0.12-0.49-0.49-0.6
	c-2.03-0.56-3.49-1.87-4.43-3.72c-0.68-1.34-0.95-2.79-0.96-4.33c-0.01-2.87-0.24-5.74-0.11-8.62c0.09-1.89,0.39-3.7,1.3-5.42
	c1.77-3.3,6.16-4.73,9.12-2.43c0.6,0.46,1.04,1.03,1.6,1.58c0.39-1.76,0.83-3.42,1.99-4.81c1.79-2.15,4.06-2.8,6.69-2.19
	c1.24,0.29,2.19,1.14,3.01,2.09C43.11,22.39,43.27,22.64,43.46,22.89z"/>
<path fill="#2E3191" d="M64.33,75.22c1.16,0.58,1.35,1.55,1.26,2.66c-0.04,0.59-0.02,1.18-0.03,1.77c-0.01,0.92-0.58,1.62-1.46,1.87
	c-0.68,0.19-1.37,0.26-2.07,0.26c-2.99-0.02-5.98-0.02-8.97,0.01c-0.52,0-0.64-0.14-0.63-0.64c0.02-3.71,0.02-7.43,0-11.14
	c0-0.54,0.18-0.62,0.66-0.62c3.44,0.02,6.88,0.01,10.33,0.01c1.48,0,2.13,0.68,2.1,2.17c-0.02,0.72-0.04,1.45-0.05,2.17
	C65.43,74.44,65.07,74.91,64.33,75.22z"/>
<path fill="#2E3191" d="M35.12,74.85c0-1.63,0.01-3.26-0.01-4.89c-0.01-0.43,0.09-0.59,0.55-0.58c1,0.04,1.99,0.04,2.99,0
	c0.47-0.02,0.61,0.12,0.61,0.6c-0.01,2.9,0.03,5.8,0.01,8.7c0,0.55,0.16,0.67,0.68,0.66c1.34-0.04,2.67-0.03,4.01,0
	c0.49,0.01,0.59-0.15,0.59-0.61c-0.02-2.9,0-5.8-0.02-8.7c0-0.5,0.1-0.67,0.63-0.64c1.02,0.05,2.04,0.03,3.06,0.01
	c0.38-0.01,0.49,0.1,0.49,0.49c-0.02,3.19,0.04,6.39-0.06,9.58c-0.05,1.56-0.71,2.29-2.31,2.29c-2.88,0.01-5.75,0.01-8.63,0.03
	c-0.36,0-0.72-0.08-1.07-0.12c-0.92-0.09-1.54-0.94-1.53-1.91C35.15,78.11,35.12,76.48,35.12,74.85z"/>
<path fill="#2E3191" d="M25.19,69.39c1.49,0,2.99,0.01,4.48,0c0.37,0,0.72,0.06,1.07,0.15c0.33,0.08,0.51,0.26,0.61,0.62
	c0.29,1.06,0.41,2.12,0.43,3.21c0.01,0.33-0.05,0.45-0.39,0.45c-1.11-0.01-2.22-0.01-3.33,0c-0.3,0-0.41-0.11-0.39-0.4
	c0.01-0.36-0.02-0.73,0.01-1.09c0.02-0.36-0.06-0.53-0.47-0.52c-1.31,0.02-2.63,0.02-3.94,0c-0.41-0.01-0.49,0.15-0.48,0.51
	c0.01,2.17,0.02,4.35,0,6.52c0,0.4,0.14,0.49,0.51,0.48c1.29-0.02,2.58-0.03,3.87,0c0.44,0.01,0.54-0.14,0.52-0.54
	c-0.03-0.59,0.01-1.18-0.01-1.77c-0.01-0.32,0.09-0.43,0.42-0.43c1.11,0.02,2.22,0.01,3.33,0c0.3,0,0.39,0.1,0.39,0.39
	c0,1.13-0.1,2.25-0.28,3.38c-0.12,0.75-0.66,0.99-1.23,1.17c-0.47,0.15-0.96,0.24-1.46,0.24c-2.56-0.01-5.12-0.01-7.68-0.01
	c-1.83,0-2.55-0.55-2.59-2.36c-0.06-2.78-0.18-5.57,0.08-8.35c0.11-1.23,0.62-1.66,1.86-1.67C22.07,69.38,23.63,69.39,25.19,69.39z"
	/>
<path fill="#FEFEFE" d="M62.55,49.93c0.02-1.4,0.03-2.81,0.05-4.21c0.01-0.69-0.49-0.34-0.78-0.39c-0.28-0.04-0.64-0.14-0.62,0.41
	c0.03,1.2-0.02,2.4,0.02,3.6c0.02,0.52-0.12,0.68-0.66,0.68c-2,0.01-3.7,0.75-5.02,2.26c-0.64,0.73-0.99,1.61-1,2.6
	c-0.01,0.6-0.09,1.21-0.15,1.91c-0.71-0.42-1.4-0.76-2.02-1.19c-2.16-1.5-3.99-3.33-5.31-5.62c-1.4-2.42-2.31-4.99-2.31-7.84
	c0-1.95,0.01-3.89,0.54-5.79c0.27-0.96,0.62-1.89,1.09-2.76c1.51-2.83,3.49-5.25,6.19-7.03c0.64-0.42,1.32-0.77,1.98-1.15
	c0.34-0.19,0.52-0.16,0.8,0.22c1.26,1.73,2.99,2.69,5.13,2.91c2.81,0.28,5.19-0.46,6.85-2.91c0.21-0.31,0.22-0.86,0.58-0.93
	c0.42-0.08,0.84,0.27,1.26,0.44c2.03,0.8,3.86,1.99,5.34,3.53c2.28,2.38,4.07,5.11,4.79,8.43c0.63,2.93,0.61,5.83-0.12,8.73
	c-0.23,0.92-0.58,1.81-1,2.66c-1.45,2.93-3.46,5.42-6.23,7.18c-1.13,0.72-2.29,1.43-3.69,1.88c0.12-2.24-0.13-4.32-1.93-5.85
	c-1.08-0.92-2.35-1.41-3.73-1.65c-0.05-0.01-0.08-0.04-0.07-0.07C62.52,49.95,62.53,49.93,62.55,49.93z"/>
<path fill="#FEFEFE" d="M32.92,42.9c2.73,3.4,6.84,3.69,10.01,0.53c0.08,0.42,0.16,0.8,0.23,1.19c0.43,2.53,1.44,4.85,2.81,6.99
	c1.27,1.99,2.85,3.72,4.84,5.05c1.03,0.69,2.02,1.44,3.19,1.88c0.2,0.08,0.43,0.17,0.41,0.47c-0.11,2,0.25,4.03-0.26,6.02
	c-0.23,0.91-0.44,1.09-1.38,1.09c-7.91,0-15.81-0.01-23.72,0.02c-0.75,0-1.15-0.33-1.37-0.94c-0.29-0.81-0.51-1.62-0.51-2.51
	c0.01-3.96-0.01-7.93-0.04-11.89c0-0.47,0.11-0.65,0.62-0.81c2.3-0.74,3.79-2.36,4.61-4.6C32.65,44.62,32.95,43.86,32.92,42.9z"/>
<path fill="#FEFEFE" d="M33.08,32.74c0-1.52,0.01-3.03,0-4.55c-0.01-2.16,0.75-4.01,2.27-5.54c0.88-0.9,3.1-1.26,4.4-0.61
	c1.99,0.98,3.14,2.62,3.2,4.86c0.07,2.87-0.02,5.75,0.06,8.62c0.04,1.54,0.29,3.07-0.29,4.56c-0.69,1.79-1.79,3.23-3.75,3.66
	c-1.46,0.32-2.79-0.09-3.86-1.17c-1.3-1.31-1.95-2.92-2.02-4.74C33.04,36.14,33.08,34.44,33.08,32.74z"/>
<path fill="#FEFEFE" d="M21.21,37.31c0-1.83-0.04-3.67,0.01-5.5c0.04-1.46,0.54-2.81,1.48-3.91c2.05-2.41,5.19-2.25,7.12,0.32
	c0.98,1.3,1.34,2.82,1.35,4.4c0.02,3.4,0.11,6.8-0.08,10.18c-0.13,2.3-1.21,4.28-3.43,5.28c-1.42,0.64-2.9,0.37-4.13-0.64
	c-1.52-1.26-2.34-2.88-2.33-4.9C21.22,40.79,21.21,39.05,21.21,37.31z"/>
<path fill="#FEFEFE" d="M66.27,19.54c0,0.91-0.03,1.81,0.01,2.72c0.1,2.47-1.39,4.09-3.78,4.45c-1.45,0.21-2.83,0.08-4.11-0.7
	c-1.33-0.81-2.12-1.9-2.08-3.54c0.05-1.9,0.06-3.8,0-5.7c-0.05-1.49,0.6-2.58,1.79-3.36c1.77-1.17,3.66-1.44,5.66-0.62
	c1.46,0.6,2.52,2.18,2.52,3.76C66.27,17.55,66.27,18.54,66.27,19.54z"/>
<path fill="#FEFEFE" d="M44.87,32.28c0-2.33-0.06-4.66,0.02-6.99c0.07-2.01,0.91-3.7,2.52-4.98c1.71-1.35,4.18-1.09,5.62,0.55
	c0.53,0.6,0.92,1.25,1.24,1.98c0.25,0.57,0.05,0.79-0.43,1.01c-1.34,0.6-2.56,1.4-3.72,2.31c-2.05,1.61-3.73,3.53-4.96,5.84
	c-0.06,0.11-0.12,0.22-0.17,0.33C44.95,32.32,44.91,32.3,44.87,32.28z"/>
<path fill="#696BB0" d="M62.55,49.93c0.02,0.04,0.03,0.09,0.05,0.13c-0.19,0.01-0.38,0.06-0.67-0.1
	C62.2,49.95,62.37,49.94,62.55,49.93z"/>
<path fill="#FEFEFE" d="M58.92,76.44c0.59,0,1.18,0.02,1.76-0.01c0.68-0.03,1.02,0.29,1.04,0.94c0.02,0.4,0.09,0.79-0.08,1.2
	c-0.22,0.53-0.57,0.76-1.14,0.75c-1.11-0.02-2.22-0.02-3.32,0c-0.42,0.01-0.61-0.08-0.58-0.55c0.04-0.58,0.04-1.18,0-1.76
	c-0.04-0.5,0.17-0.61,0.62-0.58C57.78,76.46,58.35,76.44,58.92,76.44z"/>
<path fill="#FEFEFE" d="M58.97,74.04c-0.65,0-1.31-0.02-1.96,0.01c-0.3,0.01-0.4-0.09-0.4-0.38c0.01-0.59,0.02-1.18,0-1.76
	c-0.01-0.31,0.14-0.38,0.41-0.37c1.22,0.01,2.44,0,3.66,0.01c0.44,0,0.72,0.15,0.68,0.68c-0.05,0.56,0.18,1.29-0.1,1.64
	c-0.3,0.38-1.06,0.08-1.61,0.12c-0.22,0.02-0.45,0-0.68,0C58.97,74.01,58.97,74.02,58.97,74.04z"/>
<path fill="#2E3191" d="M61.95,31.03c1.32,2.01,2.62,3.99,3.93,5.96c0.13,0.2,0.13,0.36,0,0.55c-1.31,1.98-2.61,3.96-3.96,6.01
	c-0.66-1-1.29-1.93-1.9-2.87c-0.66-1-1.31-2.01-1.98-3c-0.18-0.27-0.25-0.47-0.04-0.78c1.26-1.88,2.5-3.77,3.75-5.65
	C61.79,31.19,61.86,31.13,61.95,31.03z"/>
<path fill="#2E3191" d="M50.54,38.67c2.4,0,4.66,0,6.92,0c0.18,0,0.37,0,0.47,0.19c1.1,1.94,2.2,3.88,3.36,5.93
	c-2.4,0-4.68,0-6.96,0c-0.23,0-0.37-0.08-0.48-0.29C52.77,42.6,51.69,40.7,50.54,38.67z"/>
<path fill="#2E3191" d="M62.54,44.79c0.94-1.65,1.89-3.16,2.66-4.76c0.52-1.09,1.18-1.47,2.39-1.39c1.69,0.12,3.4,0.04,5.09,0.03
	c0.38,0,0.64-0.01,0.35,0.49c-1.02,1.76-2.02,3.54-3.02,5.31c-0.1,0.18-0.19,0.33-0.45,0.33C67.26,44.79,64.96,44.79,62.54,44.79z"
	/>
</svg>
