<?xml version="1.0" encoding="utf-8"?>
<!-- Generator: Adobe Illustrator 27.1.0, SVG Export Plug-In . SVG Version: 6.00 Build 0)  -->
<svg version="1.2" baseProfile="tiny-ps" id="Layer_1" xmlns="http://www.w3.org/2000/svg" xmlns:xlink="http://www.w3.org/1999/xlink"
	 viewBox="0 0 160 160" xml:space="preserve">
<title>PAPMALL, LLC</title>
<g>
	<g>
		<path fill="#EA7721" d="M19.8,76.9c0-1.8,0.4-3.5,1.2-5c-5.1,1.1-8.9,5.7-8.9,11.2v11.4h11.4c4.5,0,8.4-2.6,10.3-6.5
			c-0.8,0.2-1.6,0.3-2.5,0.3C24.9,88.4,19.8,83.2,19.8,76.9z"/>
		<path fill="#216AAA" d="M31.2,65.5c-4.5,0-8.4,2.6-10.3,6.5c0.8-0.2,1.6-0.3,2.5-0.3h0c6.3,0,11.4,5.1,11.4,11.4
			c0,1.8-0.4,3.5-1.2,5c5.1-1.1,8.9-5.7,8.9-11.2V65.5H31.2z"/>
		<path fill="#1E3116" d="M23.4,71.6L23.4,71.6c-0.9,0-1.7,0.1-2.5,0.3c-0.7,1.5-1.2,3.2-1.2,5c0,6.3,5.1,11.4,11.4,11.4
			c0.9,0,1.7-0.1,2.5-0.3c0.7-1.5,1.2-3.2,1.2-5C34.9,76.8,29.8,71.6,23.4,71.6z"/>
	</g>
	<path fill="#EA7721" d="M72.5,87.7v-0.9c-1.1,0.6-2.3,0.9-3.5,0.9c-4.2,0-7.7-3.4-7.7-7.7c0-2,0.8-3.9,2.2-5.3
		c1.2-1.2,2.7-2,4.4-2.2l0.9-0.1h7.9v15.3H72.5z M69,76.5c-1.9,0-3.5,1.6-3.5,3.5c0,1.9,1.6,3.5,3.5,3.5c1.9,0,3.5-1.6,3.5-3.5
		C72.5,78.1,70.9,76.5,69,76.5z"/>
	<path fill="#EA7721" d="M44.9,94.5V72.4h8.8c1.2,0,3.2,1,4.4,2.2c1.4,1.4,2.2,3.3,2.2,5.3c0,4.2-3.4,7.7-7.7,7.7
		c-1.2,0-2.5-0.3-3.5-0.9v7.8H44.9z M52.5,76.5c-1.9,0-3.5,1.6-3.5,3.5c0,1.9,1.6,3.5,3.5,3.5c1.9,0,3.5-1.6,3.5-3.5
		C56,78.1,54.4,76.5,52.5,76.5z"/>
	<path fill="#EA7721" d="M78,94.5V72.4h8.8c1.2,0,3.2,1,4.4,2.2c1.4,1.4,2.2,3.3,2.2,5.3c0,4.2-3.4,7.7-7.7,7.7
		c-1.2,0-2.5-0.3-3.5-0.9v7.8H78z M85.6,76.5c-1.9,0-3.5,1.6-3.5,3.5c0,1.9,1.6,3.5,3.5,3.5c1.9,0,3.5-1.6,3.5-3.5
		C89.1,78.1,87.5,76.5,85.6,76.5z"/>
	<path fill="#216AAA" d="M133.8,87.7v-1c-1.2,0.7-2.5,1-3.8,1c-4.2,0-7.7-3.4-7.7-7.7s3.4-7.7,7.7-7.7h7.7v15.3H133.8z M130,76.2
		c-2.1,0-3.8,1.7-3.8,3.8c0,2.1,1.7,3.8,3.8,3.8c2.1,0,3.8-1.7,3.8-3.8C133.8,77.9,132.1,76.2,130,76.2z"/>
	<path fill="#216AAA" d="M117.3,87.7V80c0-2.1-1.7-3.8-3.8-3.8c-2.1,0-3.8,1.7-3.8,3.8v7.7h-3.9V80c0-2.1-1.7-3.8-3.8-3.8
		c-2.1,0-3.8,1.7-3.8,3.8v7.7h-3.9V80c0-4.2,3.4-7.7,7.7-7.7c2.2,0,4.3,0.9,5.7,2.6c1.5-1.6,3.5-2.6,5.7-2.6c4.2,0,7.7,3.4,7.7,7.7
		v7.7H117.3z"/>
	
		<rect x="129.8" y="74.6" transform="matrix(-1.836970e-16 1 -1 -1.836970e-16 217.4605 -64.3442)" fill="#216AAA" width="22.2" height="3.9"/>
	
		<rect x="135" y="74.6" transform="matrix(-1.836970e-16 1 -1 -1.836970e-16 222.628 -69.5117)" fill="#216AAA" width="22.2" height="3.9"/>
</g>
</svg>
