<?xml version="1.0" encoding="UTF-8"?>
<svg id="Layer_1" xmlns="http://www.w3.org/2000/svg" baseProfile="tiny-ps" version="1.2" viewBox="0 0 1080 1080">
  <!-- Generator: Adobe Illustrator 29.0.0, SVG Export Plug-In . SVG Version: 2.1.0 Build 186)  -->
  <title>Mobile Text Alerts</title>
  <!-- <path d="M1460,40v1000H460V40h1000ZM965,322.5c-1.33-.37-8.67-.37-10,0-28.53-14.63-71.68-15.09-103.71-12.46-89.54,7.34-198.79,102.88-198.79,196.21v238.75c77.62-3.46,159.17,4.59,236.35.1,20.42-1.19,59.44-13.49,73.65-12.6,16.57,1.03,42.05,13.9,61.15,12.6l243.85-.1v-241.25c0-62.33-68.38-143.41-121.7-170.8-51.72-26.57-127.54-34.96-180.8-10.45Z" fill="#0d4534"/> -->
  <rect fill="#0d4534" width="1080" height="1080"></rect>
  <path d="M545,322.5c53.27-24.51,129.08-16.12,180.8,10.45,53.32,27.39,121.7,108.47,121.7,170.8v241.25l-243.85.1c-19.09,1.3-44.58-11.57-61.15-12.6v-2.5c12.67-1.03,38.69-20.12,50-27.5.82.1,1.67-.08,2.5,0l212.54-1.44c-2.7-55.7,3.49-114.47-.07-169.79-7.3-113.57-96.46-191.59-209.98-178.77-1.62.18-3.4-.23-5,0-2.58-5.29-7.94-8.15-12.71-11.04-5.34-3.24-31.06-17.92-34.79-18.96Z" fill="#f98a67"/>
  <path d="M535,322.5c-3.56.99-29.66,15.8-34.79,18.96-4.78,2.94-10.11,5.7-12.71,11.04-1.6-.22-3.38.17-5,0-113.75-12.05-202.63,64.5-209.98,178.77-3.56,55.32,2.64,114.09-.07,169.79l212.54,1.44c.83-.08,1.68.1,2.5,0,13.1,7.96,39.56,28.75,55,27.5v2.5c-14.21-.88-53.23,11.42-73.65,12.6-77.18,4.49-158.73-3.57-236.35-.1v-238.75c0-93.33,109.25-188.87,198.79-196.21,32.03-2.63,75.18-2.17,103.71,12.46Z" fill="#4a92d4"/>
  <path d="M545,322.5c3.72,1.03,29.44,15.72,34.79,18.96,4.78,2.89,10.14,5.75,12.71,11.04-16.49,2.36-35.95,5.65-50,15-.77-.24-4.23-.24-5,0-14.4-9.78-33.17-12.65-50-15,2.6-5.35,7.94-8.11,12.71-11.04,5.13-3.16,31.22-17.97,34.79-18.96,1.33-.37,8.67-.37,10,0Z" fill="#fbcce5"/>
  <path d="M597.5,352.5c113.52-12.81,202.67,65.21,209.98,178.77,3.56,55.32-2.64,114.09.07,169.79l-212.54,1.44c115.04-88.18,116.2-260.11,2.5-350Z" fill="#0e4534"/>
  <path d="M592.5,352.5c1.6-.23,3.38.18,5,0,113.7,89.89,112.54,261.82-2.5,350-.83-.08-1.68.1-2.5,0-9.76-1.15-28-7.35-38.15-10.6-5.1-1.63-9.81-6.23-11.85-6.9,112.4-55.97,133.33-210.34,36.32-292.57-6.21-5.27-30.14-22.99-36.32-24.93,14.05-9.35,33.51-12.64,50-15Z" fill="#4a92d4"/>
  <path d="M542.5,685c2.04.67,6.75,5.27,11.85,6.9,10.15,3.25,28.39,9.45,38.15,10.6-11.31,7.38-37.33,26.47-50,27.5-15.44,1.25-41.9-19.54-55-27.5,9.76-1.15,28-7.35,38.15-10.6,5.1-1.63,9.81-6.23,11.85-6.9.73-.24,4.27-.24,5,0Z" fill="#fbcce5"/>
  <path d="M482.5,352.5c-114.05,89.88-112.64,261.81,2.5,350l-212.54-1.44c2.7-55.7-3.49-114.47.07-169.79,7.35-114.27,96.23-190.83,209.98-178.77Z" fill="#0e4535"/>
  <path d="M487.5,352.5c16.83,2.35,35.6,5.22,50,15-12.77,4.03-46.84,33.82-56.28,44.97-74.94,88.5-45.2,220.71,56.28,272.53-2.04.67-6.75,5.27-11.85,6.9-10.15,3.25-28.39,9.45-38.15,10.6-.82.1-1.67-.08-2.5,0-115.14-88.19-116.55-260.12-2.5-350,1.62.17,3.4-.22,5,0Z" fill="#fa8a67"/>
  <path d="M542.5,367.5c6.17,1.94,30.1,19.67,36.32,24.93,97.02,82.22,76.08,236.59-36.32,292.57-.73-.24-4.27-.24-5,0-101.48-51.82-131.22-184.03-56.28-272.53,9.44-11.15,43.51-40.94,56.28-44.97.77-.24,4.23-.24,5,0Z" fill="#0e4534"/>
</svg>