<?xml version="1.0" encoding="utf-8"?>
<!-- Generator: Adobe Illustrator 25.1.0, SVG Export Plug-In . SVG Version: 6.00 Build 0)  -->
<svg version="1.2" baseProfile="tiny-ps" id="Layer_1" xmlns="http://www.w3.org/2000/svg" xmlns:xlink="http://www.w3.org/1999/xlink"
	  viewBox="0 0 141.7 141.7" xml:space="preserve">
	  <title>Insuranceline</title>
<g>
	<path fill="#F8AF19" d="M42.6,78.7v-1.4c-0.8,0.9-2.1,1.7-3.9,1.7c-2.5,0-3.6-1.3-3.6-3.5v-7.9H38v6.8c0,1.6,0.8,2.1,2.1,2.1
		c1.1,0,2-0.6,2.5-1.3v-7.6h2.9v11.2H42.6z"/>
	<path fill="#1F7947" d="M42.6,78.7v-1.4c-0.8,0.9-2.1,1.7-3.9,1.7c-2.5,0-3.6-1.3-3.6-3.5v-7.9H38v6.8c0,1.6,0.8,2.1,2.1,2.1
		c1.1,0,2-0.6,2.5-1.3v-7.6h2.9v11.2H42.6z"/>
	<path fill="#1F7947" d="M109.5,67.5h-2.9v11.2h2.9V67.5z M7.1,78.7h3.3V63.2H7.1V78.7z M20,78.7h2.9v-7.9c0-2.2-1.2-3.6-3.6-3.6
		c-1.8,0-3.2,0.9-3.9,1.7v-1.5h-2.9v11.2h2.9v-7.5c0.5-0.7,1.4-1.3,2.5-1.3c1.3,0,2.1,0.5,2.1,2.1V78.7z M27.2,70.6
		c0-0.6,0.7-1.1,1.8-1.1c1.4,0,2.6,0.6,3.3,1.3l1.2-2c-1.1-0.9-2.6-1.5-4.5-1.5c-2.9,0-4.6,1.6-4.6,3.5c0,4.4,6.6,2.9,6.6,4.7
		c0,0.7-0.6,1.2-1.9,1.2c-1.4,0-3.1-0.8-3.9-1.5L24,77.2c1.2,1.1,3.1,1.7,5,1.7c3.1,0,4.8-1.6,4.8-3.6
		C33.8,70.8,27.2,72.2,27.2,70.6 M53.2,70c0.3,0,0.6,0,0.8,0.1v-2.9c-1.4,0-2.8,0.8-3.6,1.8v-1.5h-2.9v11.2h2.9v-7.4
		C51,70.6,52.3,70,53.2,70 M61.7,76c-0.5,0.6-1.4,1-2.4,1c-1.2,0-2.1-0.6-2.1-1.6c0-1.1,1-1.7,2.1-1.7c0.9,0,1.9,0.3,2.4,1V76z
		 M61.7,78.7h2.9v-7.2c0-3.2-2.3-4.2-4.9-4.2c-1.8,0-3.5,0.6-4.9,1.8l1.1,2c0.9-0.9,2.1-1.3,3.3-1.3c1.5,0,2.5,0.7,2.5,1.9V73
		c-0.7-0.9-2.1-1.4-3.5-1.4c-1.8,0-3.9,1-3.9,3.6c0,2.5,2.1,3.7,3.9,3.7c1.5,0,2.8-0.5,3.5-1.4V78.7z M74.2,78.7h2.9v-7.9
		c0-2.2-1.2-3.6-3.6-3.6c-1.8,0-3.2,0.9-3.9,1.7v-1.5h-2.9v11.2h2.9v-7.5c0.5-0.7,1.4-1.3,2.5-1.3c1.3,0,2.1,0.5,2.1,2.1V78.7z
		 M81.4,73.1c0-1.9,1.3-3.2,3-3.2c1,0,1.8,0.4,2.4,1.2l1.9-1.8c-0.7-1-2.1-2-4.4-2c-3.5,0-5.9,2.4-5.9,5.9c0,3.5,2.5,5.9,5.9,5.9
		c2.3,0,3.7-1,4.4-2l-1.9-1.8c-0.5,0.7-1.3,1.2-2.4,1.2C82.7,76.3,81.4,75,81.4,73.1 M92,72c0.1-1.1,0.9-2.5,2.8-2.5
		c1.9,0,2.7,1.4,2.8,2.5H92z M92.1,74h8.3v-0.6c0-3.7-2.3-6.2-5.6-6.2c-3.4,0-5.8,2.6-5.8,5.9c0,3.6,2.6,5.9,6,5.9
		c1.7,0,3.5-0.5,4.6-1.6l-1.3-1.9c-0.7,0.7-2,1.1-3,1.1C93.4,76.6,92.3,75.4,92.1,74 M101.6,78.7h2.9V63.2h-2.9V78.7z M109.8,64.5
		c0-1-0.8-1.7-1.8-1.7c-1,0-1.8,0.8-1.8,1.7c0,1,0.8,1.8,1.8,1.8C109,66.3,109.8,65.5,109.8,64.5 M119,78.7h2.9v-7.9
		c0-2.2-1.2-3.6-3.6-3.6c-1.8,0-3.2,0.9-3.9,1.7v-1.5h-2.9v11.2h2.9v-7.5c0.5-0.7,1.4-1.3,2.5-1.3c1.3,0,2.1,0.5,2.1,2.1V78.7z
		 M131.8,72h-5.5c0.1-1.1,0.9-2.5,2.8-2.5C131,69.5,131.7,71,131.8,72 M134.6,74v-0.6c0-3.7-2.3-6.2-5.6-6.2c-3.4,0-5.8,2.6-5.8,5.9
		c0,3.6,2.6,5.9,6,5.9c1.7,0,3.5-0.5,4.6-1.6l-1.3-1.9c-0.7,0.7-2,1.1-3,1.1c-1.9,0-3-1.2-3.2-2.6H134.6z"/>
</g>
</svg>
