<?xml version="1.0" encoding="utf-8"?>
<!-- Generator: Adobe Illustrator 25.1.0, SVG Export Plug-In . SVG Version: 6.00 Build 0)  -->
<svg version="1.2" baseProfile="tiny-ps" xmlns="http://www.w3.org/2000/svg" xmlns:xlink="http://www.w3.org/1999/xlink" viewBox="0 0 538.6 538.6" xml:space="preserve">
<title>Asteron</title>
<g id="white_bg">
	<rect x="0" y="0" fill="#FFFFFF" width="538.6" height="538.6"/>
</g>
<g id="Layer_1">
</g>
<g id="circle">
	<circle fill="#008CD1" cx="269.3" cy="269.3" r="241.8"/>
</g>
<g id="text_1_">
	<g>
		<path fill="#FFFFFF" d="M97.7,169.8h16.9l35.1,90.7h-16.9l-8.5-24.2H88l-8.5,24.2H63.2L97.7,169.8z M92.3,224.2h27.8l-13.3-38.7
			h-0.6L92.3,224.2z"/>
		<path fill="#FFFFFF" d="M160.6,239.4c0.6,8.5,7.3,11.5,15.1,11.5c5.4,0,15.1-1.2,14.5-8.5c-0.6-7.9-10.9-8.5-21.2-10.9
			c-10.9-2.4-21.2-6-21.2-19.3c0-14.5,15.7-18.7,27.2-18.7c13.3,0,25.4,5.4,27.2,19.9h-15.1c-1.2-6.6-7.3-8.5-13.3-8.5
			c-4.2,0-12.1,1.2-12.1,6.6c0,7.3,10.9,7.9,21.2,10.3c10.3,2.4,21.2,6,21.2,19.3c0,15.7-15.7,21.2-29.6,21.2c-16.3,0-29-7.3-29-23
			H160.6z"/>
		<path fill="#FFFFFF" d="M202.9,194.6h10.9v-19.9h14.5v19.9h12.7v10.9h-13.3v35.1c0,6,0.6,9.1,7.3,9.1c1.8,0,4.2,0,6-0.6v10.9
			c-3,0-6,0.6-9.7,0.6c-15.1,0-18.1-6-18.1-16.9v-38.7h-10.9v-10.3H202.9z"/>
		<path fill="#FFFFFF" d="M256.7,231.5c0,10.3,5.4,19.3,17.5,19.3c8.5,0,13.3-3.6,15.7-10.9h13.9c-3,14.5-15.1,22.4-29.6,22.4
			c-20.6,0-32-14.5-32-34.5c0-18.7,12.1-34.5,31.4-34.5c20.6,0,33.2,18.7,30.8,38.1H256.7z M290.5,221.8
			c-0.6-9.1-6.6-17.5-16.3-17.5c-10.3,0-16.9,7.9-17.5,17.5H290.5z"/>
		<path fill="#FFFFFF" d="M309.3,194.6h13.3v12.7l0,0c1.8-7.3,10.3-14.5,19.3-14.5c3,0,4.2,0,5.4,0.6v13.9c-1.8,0-4.2-0.6-6-0.6
			c-9.7,0-17.5,7.9-17.5,22.4v31.4h-14.5V194.6z"/>
		<path fill="#FFFFFF" d="M344.9,227.3c0-19.9,12.1-34.5,33.2-34.5c21.2,0,33.2,14.5,33.2,34.5s-12.1,34.5-33.2,34.5
			C357,262.3,344.9,247.8,344.9,227.3z M396.9,227.3c0-11.5-5.4-23-18.7-23c-12.7,0-18.7,12.1-18.7,23c0,11.5,5.4,23,18.7,23
			C390.9,250.8,396.9,238.8,396.9,227.3z"/>
		<path fill="#FFFFFF" d="M416.8,194.6h13.9v9.7l0,0c4.2-7.3,12.1-11.5,20.6-11.5c14.5,0,23,7.9,23,22.4v45.3h-14.5v-41.1
			c0-10.3-4.2-14.5-12.7-14.5c-9.7,0-15.7,7.9-15.7,17.5v38.7h-14.5C416.8,261.1,416.8,194.6,416.8,194.6z"/>
	</g>
	<g>
		<path fill="#FFFFFF" d="M72.4,272.1h15.9V350H135v14.1H72.4V272.1z"/>
		<path fill="#FFFFFF" d="M138,272.1h14.7v14.1H138V272.1z M138,297.3h14.7v66.8H138V297.3z"/>
		<path fill="#FFFFFF" d="M155.8,297.3h11v-5.5c0-17.2,8.6-19.6,18.4-19.6c4.9,0,8,0,10.4,0.6v11.7c-1.8-0.6-3.7-0.6-6.7-0.6
			c-4.3,0-7.4,1.2-7.4,6.7v6.7h12.3v11h-12.3v55.8h-14.7v-55.8h-11C155.8,308.3,155.8,297.3,155.8,297.3z"/>
		<path fill="#FFFFFF" d="M208,334.1c0,10.4,5.5,19.6,17.8,19.6c8.6,0,13.5-3.7,15.9-11h14.1c-3.1,14.7-15.3,22.7-30,22.7
			c-20.8,0-32.5-14.7-32.5-35c0-19,12.3-35,31.9-35c20.8,0,33.7,19,31.3,38.6C256.4,334.1,208,334.1,208,334.1z M242.3,324.9
			c-0.6-9.2-6.7-17.8-16.6-17.8c-10.4,0-17.2,8-17.8,17.8H242.3z"/>
	</g>
</g>
</svg>
