<?xml version="1.0" encoding="utf-8"?>
<!-- Generator: Adobe Illustrator 25.1.0, SVG Export Plug-In . SVG Version: 6.00 Build 0)  -->
<svg version="1.2" baseProfile="tiny-ps" id="Layer_1" xmlns="http://www.w3.org/2000/svg" xmlns:xlink="http://www.w3.org/1999/xlink"
	  viewBox="0 0 141.7 141.7" xml:space="preserve">
	  <title>TAL</title>
<g>
	<path fill="#80C343" d="M93.6,89.4L75.3,45.8H62L40.9,95.9h14.5l13.2-33.7l5.5,14.1h-7.7L62.2,87H78l3.6,8.9h7.8
		c2.5,0,4.6-2.1,4.6-4.6c0-0.6-0.1-1.1-0.3-1.7L93.6,89.4z"/>
	<path fill="#80C343" d="M51.1,55.5L51.1,55.5l3.9-9.3H7.1v12.1H22v37.6h13.7V58.3h11.1C48.7,58.3,50.4,57.1,51.1,55.5"/>
	<path fill="#80C343" d="M110.6,83.8V46.2H96.9v49.7h18.5h11.1c1.9,0,3.5-1.2,4.2-2.8l0,0l3.9-9.2H110.6z"/>
</g>
</svg>
