<?xml version="1.0" encoding="utf-8"?>
<!-- Generator: Adobe Illustrator 13.0.0, SVG Export Plug-In . SVG Version: 6.00 Build 14948)  -->
<svg version="1.2" baseProfile="tiny-ps" xmlns:xlink="http://www.w3.org/1999/xlink" width="434px" height="434px" viewBox="0 0 434 434" xmlns="http://www.w3.org/2000/svg">
  <title>BeginJob.com</title>
<rect fill="#084170" width="434" height="434" />
<path fill="#FFFFFF" d="M355.037,34.732c0-4.994-4.055-9.043-9.055-9.043H90.927c-5.003,0-9.058,4.049-9.058,9.043v136.216  c0,2.6,1.114,4.925,2.874,6.576h-0.274l128.026,130.187l0.307,0.312c1.498,1.418,3.515,2.301,5.749,2.301  c2.302,0,4.385-0.923,5.895-2.418l0.009-0.009L352.66,177.524h-0.498c1.76-1.65,2.875-3.976,2.875-6.576V34.732z" />
<path fill="#084170" d="M349.871,39.773c0-4.804-3.903-8.701-8.716-8.701H95.75c-4.814,0-8.715,3.897-8.715,8.701v131.065  c0,2.5,1.072,4.737,2.765,6.327h-0.263L212.72,302.427l0.296,0.301c1.44,1.363,3.382,2.213,5.532,2.213  c2.214,0,4.219-0.889,5.669-2.327l0.012-0.009l123.357-125.44h-0.479c1.692-1.589,2.765-3.826,2.765-6.327V39.773z" />
<path fill="#FFFFFF" d="M342.982,44.756c0-4.583-3.697-8.303-8.257-8.303H102.18c-4.562,0-8.257,3.72-8.257,8.303v125.057  c0,2.383,1.016,4.517,2.619,6.033h-0.249l116.727,119.521l0.281,0.286c1.363,1.302,3.203,2.111,5.243,2.111  c2.097,0,3.998-0.848,5.372-2.22l0.007-0.009l116.897-119.69h-0.457c1.605-1.516,2.619-3.649,2.619-6.033V44.756z" />
<ellipse fill="#084170" cx="217.25" cy="77.5" rx="24.277" ry="24.5" />
<polygon fill="#084170" points="323,92 323,92 321,92 321,92 321,92 321,92 323,92 323,92 " />
<path fill="#084170" stroke="#FFFFFF" stroke-width="2.1904" d="M234,244.442c0,4.727-3.944,8.558-8.811,8.558h-13.379  c-4.866,0-8.811-3.831-8.811-8.558v-24.885c0-4.727,3.945-8.558,8.811-8.558h13.379c4.866,0,8.811,3.831,8.811,8.558V244.442z" />
<path fill="#084170" d="M247.5,193.2c0,5.965-3.884,10.8-8.675,10.8h-40.484c-4.791,0-8.674-4.835-8.674-10.8v-72.4  c0-5.965,3.884-10.8,8.674-10.8h40.484c4.791,0,8.675,4.835,8.675,10.8V193.2z" />
<path fill="#084170" stroke="#FFFFFF" stroke-width="2.6964" d="M215.253,178.884c1.228,5.838-1.601,11.375-6.317,12.366  l-3.479,0.731c-4.715,0.99-9.533-2.937-10.76-8.773l-12.839-61.064c-1.227-5.838,1.601-11.375,6.316-12.364l3.479-0.732  c4.715-0.991,9.533,2.936,10.76,8.772L215.253,178.884z" />
<path fill="#084170" stroke="#FFFFFF" stroke-width="3.4977" d="M243,181.08c0,1.061-0.941,1.92-2.104,1.92h-43.292  c-1.162,0-2.104-0.859-2.104-1.92v-14.16c0-1.061,0.942-1.92,2.104-1.92h43.292c1.162,0,2.104,0.859,2.104,1.92V181.08z" />
<path fill="#084170" stroke="#FFFFFF" stroke-width="1.9228" stroke-miterlimit="1" d="M259,220.635c0,3.516-4.329,6.365-9.67,6.365  h-59.66c-5.341,0-9.67-2.85-9.67-6.365v-39.27c0-3.516,4.329-6.365,9.67-6.365h59.66c5.341,0,9.67,2.85,9.67,6.365V220.635z" />
<path fill="#FFFFFF" stroke="#084170" stroke-width="3.4517" d="M235.625,181.56c0,0.796-0.627,1.44-1.402,1.44h-29.82  c-0.775,0-1.402-0.644-1.402-1.44V171.44c0-0.796,0.627-1.44,1.402-1.44h29.82c0.775,0,1.402,0.644,1.402,1.44V181.56z" />
<rect x="197.25" y="174" fill="#084170" width="7" height="9.5" />
<rect x="234.25" y="174" fill="#084170" width="7" height="9.5" />
<path fill="#FF7900" d="M56.259,322.302c3.522-0.704,10.655-1.232,17.347-1.232c8.189,0,13.209,0.792,17.524,3.346  c4.139,2.201,7.133,6.252,7.133,11.623c0,5.284-3.082,10.215-9.774,12.682v0.176c6.78,1.849,11.8,6.956,11.8,14.617  c0,5.372-2.466,9.599-6.164,12.593c-4.315,3.434-11.536,5.371-23.336,5.371c-6.604,0-11.536-0.44-14.529-0.881V322.302z   M69.556,345.021h4.403c7.044,0,10.831-2.906,10.831-7.309c0-4.491-3.434-6.869-9.51-6.869c-2.906,0-4.579,0.176-5.724,0.352  V345.021z M69.556,371.351c1.321,0.177,2.906,0.177,5.195,0.177c6.076,0,11.448-2.378,11.448-8.542  c0-5.987-5.372-8.365-12.064-8.365h-4.579V371.351z" />
<path fill="#FF7900" d="M114.993,363.602c0.44,5.548,5.9,8.189,12.152,8.189c4.579,0,8.277-0.616,11.888-1.761l1.761,9.07  c-4.403,1.761-9.774,2.729-15.586,2.729c-14.618,0-22.983-8.542-22.983-22.015c0-10.919,6.781-22.983,21.75-22.983  c13.914,0,19.197,10.831,19.197,21.486c0,2.289-0.264,4.314-0.44,5.283H114.993z M130.755,354.443c0-3.258-1.409-8.717-7.573-8.717  c-5.636,0-7.925,5.107-8.277,8.717H130.755z" />
<path fill="#FF7900" d="M187.113,374.609c0,8.277-1.674,15.058-6.517,19.373c-4.755,4.051-11.184,5.283-17.523,5.283  c-5.636,0-11.624-1.145-15.499-3.347l2.642-10.126c2.73,1.585,7.485,3.258,12.504,3.258c6.34,0,11.184-3.435,11.184-11.359v-2.818  h-0.177c-2.554,3.61-6.692,5.636-11.623,5.636c-10.655,0-18.229-8.63-18.229-21.046c0-13.825,8.982-22.631,19.549-22.631  c5.9,0,9.599,2.554,11.8,6.076h0.177l0.44-5.107h11.623c-0.176,2.73-0.352,6.34-0.352,12.769V374.609z M173.728,355.324  c0-0.881-0.088-1.762-0.264-2.465c-0.969-3.523-3.522-5.9-7.221-5.9c-4.844,0-8.806,4.402-8.806,12.24  c0,6.428,3.17,11.447,8.806,11.447c3.435,0,6.164-2.289,7.045-5.459c0.352-0.969,0.439-2.378,0.439-3.523V355.324z" />
<path fill="#FF7900" d="M206.837,325.825c0,3.699-2.817,6.693-7.221,6.693c-4.227,0-7.044-2.994-6.956-6.693  c-0.088-3.875,2.729-6.78,7.045-6.78C204.02,319.044,206.749,321.95,206.837,325.825z M193.012,380.861v-43.061h13.386v43.061  H193.012z" />
<path fill="#FF7900" d="M212.296,351.538c0-5.372-0.176-9.95-0.352-13.737h11.623l0.617,5.9h0.264  c1.762-2.73,6.164-6.869,13.297-6.869c8.806,0,15.41,5.813,15.41,18.492v25.537h-13.385v-23.863c0-5.549-1.938-9.335-6.78-9.335  c-3.698,0-5.9,2.554-6.78,5.02c-0.353,0.88-0.528,2.113-0.528,3.347v24.832h-13.386V351.538z" />
<path fill="#FF7900" d="M271.12,321.51h13.385v37.514c0,16.906-8.102,22.807-21.134,22.807c-3.082,0-7.133-0.528-9.774-1.409  l1.497-10.831c1.849,0.616,4.227,1.057,6.868,1.057c5.636,0,9.158-2.554,9.158-11.8V321.51z" />
<path fill="#FF7900" d="M332.938,358.847c0,15.763-11.184,22.983-22.72,22.983c-12.592,0-22.278-8.277-22.278-22.191  c0-13.912,9.158-22.807,22.983-22.807C324.131,336.832,332.938,345.902,332.938,358.847z M301.765,359.287  c0,7.396,3.082,12.944,8.806,12.944c5.195,0,8.542-5.195,8.542-12.944c0-6.428-2.466-12.945-8.542-12.945  C304.142,346.342,301.765,352.947,301.765,359.287z" />
<path fill="#FF7900" d="M336.371,318.34h13.386v24.568h0.176c2.554-3.699,7.045-6.076,13.032-6.076  c10.303,0,17.876,8.541,17.788,21.75c0,15.499-9.862,23.248-19.725,23.248c-5.02,0-9.863-1.85-12.945-6.957h-0.176l-0.528,5.988  H336.02c0.176-2.818,0.352-8.014,0.352-12.856V318.34z M349.757,362.545c0,0.881,0.088,1.674,0.264,2.378  c0.881,3.61,3.963,6.34,7.837,6.34c5.725,0,9.246-4.403,9.246-12.151c0-6.693-2.993-11.977-9.246-11.977  c-3.61,0-6.956,2.73-7.837,6.604c-0.176,0.792-0.264,1.585-0.264,2.466V362.545z" />
</svg>