<?xml version="1.0" encoding="utf-8"?>
<!-- Generator: Adobe Illustrator 13.0.0, SVG Export Plug-In . SVG Version: 6.00 Build 14948)  -->
<svg version="1.2" baseProfile="tiny-ps" xmlns:xlink="http://www.w3.org/1999/xlink" width="500px" height="500px" viewBox="0 0 500 500" xmlns="http://www.w3.org/2000/svg">
  <title>CareerConnects</title>
<rect fill="#24558B" width="500" height="500" />
<path d="M247.206,302.141c-9.994,5.17-32.05,10.684-59.964,10.684c-73.749,0-118.549-46.524-118.549-117.171  c0-76.505,53.071-122.685,124.063-122.685c27.915,0,47.902,5.858,56.518,10.338l-9.305,33.773c-11.028-4.825-26.191-8.96-45.49-8.96  c-47.213,0-81.33,29.637-81.33,85.465c0,51.004,29.982,83.743,80.986,83.743c17.231,0,35.151-3.446,46.179-8.615L247.206,302.141z" />
<path d="M423.652,302.141c-9.993,5.17-32.049,10.684-59.964,10.684c-73.748,0-118.549-46.524-118.549-117.171  c0-76.505,53.071-122.685,124.063-122.685c27.914,0,47.901,5.858,56.518,10.338l-9.305,33.773c-11.028-4.825-26.191-8.96-45.49-8.96  c-47.213,0-81.33,29.637-81.33,85.465c0,51.004,29.981,83.743,80.985,83.743c17.231,0,35.151-3.446,46.18-8.615L423.652,302.141z" />
<path fill="#91C3FB" d="M247.205,299.844c-9.994,5.17-32.05,10.684-59.964,10.684c-73.749,0-118.549-46.524-118.549-117.171  c0-76.505,53.071-122.685,124.063-122.685c27.915,0,47.902,5.858,56.518,10.338l-9.305,33.773c-11.028-4.825-26.191-8.96-45.49-8.96  c-47.213,0-81.33,29.637-81.33,85.465c0,51.004,29.982,83.743,80.986,83.743c17.231,0,35.151-3.446,46.179-8.615L247.205,299.844z" />
<path fill="#91C3FB" d="M423.651,299.844c-9.993,5.17-32.049,10.684-59.964,10.684c-73.748,0-118.549-46.524-118.549-117.171  c0-76.505,53.071-122.685,124.063-122.685c27.914,0,47.901,5.858,56.518,10.338l-9.305,33.773c-11.028-4.825-26.191-8.96-45.49-8.96  c-47.213,0-81.33,29.637-81.33,85.465c0,51.004,29.981,83.743,80.985,83.743c17.231,0,35.151-3.446,46.18-8.615L423.651,299.844z" />
<path fill="#FFFFFF" d="M57.337,408.95c-1.456,0.672-4.312,1.456-7.728,1.456c-8.512,0-14.056-5.488-14.056-13.944  c0-8.176,5.6-14.56,15.176-14.56c2.52,0,5.096,0.56,6.664,1.287l-1.232,5.152c-1.12-0.504-2.744-1.063-5.208-1.063  c-5.264,0-8.4,3.864-8.344,8.848c0,5.601,3.64,8.792,8.344,8.792c2.408,0,4.088-0.504,5.432-1.064L57.337,408.95z" />
<path fill="#FFFFFF" d="M80.801,403.238c0,2.464,0.112,4.871,0.392,6.552h-6.216l-0.448-3.024h-0.168  c-1.68,2.129-4.536,3.641-8.064,3.641c-5.488,0-8.568-3.977-8.568-8.12c0-6.888,6.104-10.36,16.184-10.304v-0.448  c0-1.792-0.728-4.761-5.544-4.761c-2.688,0-5.488,0.841-7.336,2.017l-1.344-4.479c2.016-1.232,5.544-2.408,9.856-2.408  c8.736,0,11.256,5.544,11.256,11.48V403.238z M74.081,396.462c-4.872-0.112-9.52,0.952-9.52,5.097c0,2.688,1.736,3.92,3.92,3.92  c2.744,0,4.76-1.793,5.376-3.752c0.168-0.504,0.224-1.064,0.224-1.513V396.462z" />
<path fill="#FFFFFF" d="M85.28,391.311c0-3.696-0.056-6.328-0.224-8.793h5.992l0.224,5.209h0.224  c1.344-3.864,4.536-5.824,7.448-5.824c0.672,0,1.064,0.056,1.624,0.168v6.496c-0.56-0.112-1.176-0.225-2.016-0.225  c-3.304,0-5.544,2.129-6.16,5.209c-0.112,0.615-0.224,1.344-0.224,2.127v14.112H85.28V391.311z" />
<path fill="#FFFFFF" d="M106.784,398.086c0.168,4.928,4.032,7.057,8.4,7.057c3.192,0,5.488-0.449,7.56-1.232l1.008,4.76  c-2.352,0.952-5.6,1.736-9.52,1.736c-8.848,0-14.056-5.488-14.056-13.832c0-7.561,4.592-14.672,13.328-14.672  c8.904,0,11.76,7.279,11.76,13.271c0,1.288-0.112,2.297-0.224,2.912H106.784z M118.768,393.27c0.056-2.52-1.064-6.664-5.656-6.664  c-4.256,0-6.048,3.865-6.328,6.664H118.768z" />
<path fill="#FFFFFF" d="M132.879,398.086c0.168,4.928,4.032,7.057,8.4,7.057c3.192,0,5.488-0.449,7.56-1.232l1.008,4.76  c-2.352,0.952-5.6,1.736-9.52,1.736c-8.848,0-14.056-5.488-14.056-13.832c0-7.561,4.592-14.672,13.328-14.672  c8.904,0,11.76,7.279,11.76,13.271c0,1.288-0.112,2.297-0.224,2.912H132.879z M144.863,393.27c0.056-2.52-1.064-6.664-5.656-6.664  c-4.256,0-6.048,3.865-6.328,6.664H144.863z" />
<path fill="#FFFFFF" d="M154.103,391.311c0-3.696-0.056-6.328-0.224-8.793h5.992l0.224,5.209h0.224  c1.344-3.864,4.536-5.824,7.448-5.824c0.672,0,1.064,0.056,1.624,0.168v6.496c-0.56-0.112-1.176-0.225-2.016-0.225  c-3.304,0-5.544,2.129-6.16,5.209c-0.112,0.615-0.224,1.344-0.224,2.127v14.112h-6.888V391.311z" />
<path fill="#FFFFFF" d="M190.784,408.95c-1.456,0.672-4.312,1.456-7.728,1.456c-8.512,0-14.056-5.488-14.056-13.944  c0-8.176,5.6-14.56,15.176-14.56c2.52,0,5.096,0.56,6.664,1.287l-1.232,5.152c-1.12-0.504-2.744-1.063-5.208-1.063  c-5.264,0-8.4,3.864-8.344,8.848c0,5.601,3.64,8.792,8.344,8.792c2.408,0,4.088-0.504,5.432-1.064L190.784,408.95z" />
<path fill="#FFFFFF" d="M218.504,395.902c0,10.023-7.056,14.504-14,14.504c-7.728,0-13.664-5.32-13.664-14.057  c0-8.959,5.88-14.447,14.112-14.447C213.072,381.902,218.504,387.614,218.504,395.902z M197.952,396.182  c0,5.265,2.576,9.24,6.776,9.24c3.92,0,6.664-3.863,6.664-9.352c0-4.256-1.904-9.128-6.608-9.128  C199.912,386.942,197.952,391.646,197.952,396.182z" />
<path fill="#FFFFFF" d="M221.36,390.639c0-3.137-0.056-5.769-0.224-8.121h6.048l0.336,4.088h0.168  c1.176-2.127,4.144-4.703,8.68-4.703c4.76,0,9.688,3.08,9.688,11.703v16.185h-6.888v-15.399c0-3.92-1.456-6.889-5.208-6.889  c-2.744,0-4.648,1.96-5.376,4.032c-0.224,0.616-0.28,1.456-0.28,2.239v16.017h-6.944V390.639z" />
<path fill="#FFFFFF" d="M250.591,390.639c0-3.137-0.056-5.769-0.224-8.121h6.047l0.336,4.088h0.168  c1.177-2.127,4.145-4.703,8.681-4.703c4.76,0,9.688,3.08,9.688,11.703v16.185h-6.889v-15.399c0-3.92-1.456-6.889-5.208-6.889  c-2.744,0-4.647,1.96-5.376,4.032c-0.225,0.616-0.279,1.456-0.279,2.239v16.017h-6.945V390.639z" />
<path fill="#FFFFFF" d="M284.694,398.086c0.168,4.928,4.033,7.057,8.4,7.057c3.192,0,5.488-0.449,7.561-1.232l1.008,4.76  c-2.352,0.952-5.6,1.736-9.52,1.736c-8.849,0-14.057-5.488-14.057-13.832c0-7.561,4.592-14.672,13.328-14.672  c8.904,0,11.76,7.279,11.76,13.271c0,1.288-0.111,2.297-0.225,2.912H284.694z M296.678,393.27c0.057-2.52-1.064-6.664-5.656-6.664  c-4.256,0-6.047,3.865-6.328,6.664H296.678z" />
<path fill="#FFFFFF" d="M325.966,408.95c-1.456,0.672-4.312,1.456-7.728,1.456c-8.513,0-14.057-5.488-14.057-13.944  c0-8.176,5.6-14.56,15.176-14.56c2.52,0,5.096,0.56,6.664,1.287l-1.232,5.152c-1.119-0.504-2.744-1.063-5.207-1.063  c-5.265,0-8.4,3.864-8.344,8.848c0,5.601,3.639,8.792,8.344,8.792c2.408,0,4.088-0.504,5.432-1.064L325.966,408.95z" />
<path fill="#FFFFFF" d="M336.997,375.518v7h6.553v5.152h-6.553v12.04c0,3.304,0.896,5.04,3.529,5.04  c1.287,0,1.903-0.111,2.688-0.336l0.111,5.264c-1.008,0.393-2.799,0.729-4.983,0.729c-2.521,0-4.647-0.896-5.937-2.297  c-1.455-1.567-2.127-4.031-2.127-7.615V387.67h-3.92v-5.152h3.92v-5.039L336.997,375.518z" />
<path fill="#FFFFFF" d="M345.622,403.462c1.567,0.952,4.535,1.96,7,1.96c3.023,0,4.367-1.232,4.367-3.023  c0-1.848-1.119-2.801-4.479-3.977c-5.32-1.848-7.56-4.76-7.504-7.951c0-4.816,3.976-8.568,10.304-8.568  c3.023,0,5.656,0.783,7.225,1.624l-1.345,4.872c-1.176-0.672-3.36-1.568-5.768-1.568c-2.464,0-3.808,1.176-3.808,2.855  c0,1.736,1.287,2.576,4.76,3.809c4.928,1.792,7.224,4.313,7.279,8.344c0,4.928-3.863,8.568-11.088,8.568  c-3.304,0-6.271-0.84-8.287-1.96L345.622,403.462z" />
<path fill="#FFFFFF" d="M369.253,410.406c-2.464,0-4.2-1.904-4.2-4.424c0-2.576,1.792-4.424,4.256-4.424  c2.52,0,4.256,1.791,4.256,4.424c0,2.52-1.68,4.424-4.256,4.424H369.253z" />
<path fill="#FFFFFF" d="M396.357,408.95c-1.456,0.672-4.312,1.456-7.728,1.456c-8.513,0-14.057-5.488-14.057-13.944  c0-8.176,5.6-14.56,15.176-14.56c2.52,0,5.096,0.56,6.664,1.287l-1.232,5.152c-1.119-0.504-2.744-1.063-5.207-1.063  c-5.265,0-8.4,3.864-8.344,8.848c0,5.601,3.639,8.792,8.344,8.792c2.408,0,4.088-0.504,5.432-1.064L396.357,408.95z" />
<path fill="#FFFFFF" d="M424.077,395.902c0,10.023-7.056,14.504-14,14.504c-7.728,0-13.664-5.32-13.664-14.057  c0-8.959,5.881-14.447,14.112-14.447C418.645,381.902,424.077,387.614,424.077,395.902z M403.525,396.182  c0,5.265,2.576,9.24,6.776,9.24c3.92,0,6.664-3.863,6.664-9.352c0-4.256-1.904-9.128-6.608-9.128  C405.485,386.942,403.525,391.646,403.525,396.182z" />
<path fill="#FFFFFF" d="M426.932,390.639c0-3.137-0.055-5.769-0.223-8.121h5.936l0.279,4.033h0.168  c1.345-2.129,3.809-4.648,8.4-4.648c3.584,0,6.384,2.016,7.561,5.04h0.111c0.952-1.513,2.072-2.632,3.36-3.416  c1.512-1.064,3.247-1.624,5.487-1.624c4.537,0,9.129,3.08,9.129,11.816v16.071h-6.721v-15.063c0-4.537-1.568-7.225-4.871-7.225  c-2.353,0-4.089,1.68-4.816,3.641c-0.168,0.672-0.336,1.512-0.336,2.295v16.353h-6.721v-15.792c0-3.809-1.512-6.496-4.703-6.496  c-2.576,0-4.313,2.016-4.928,3.92c-0.281,0.672-0.393,1.456-0.393,2.24v16.128h-6.721V390.639z" />
</svg>
