<?xml version="1.0" encoding="utf-8"?>
<!-- Generator: Adobe Illustrator 13.0.0, SVG Export Plug-In . SVG Version: 6.00 Build 14948)  -->
<svg version="1.2" baseProfile="tiny-ps" xmlns:xlink="http://www.w3.org/1999/xlink" width="500px" height="500px" viewBox="0 0 500 500" xmlns="http://www.w3.org/2000/svg">
  <title>HelloHiring.com</title>
<rect fill="#24558B" width="500" height="500" />
<g>
	<path fill="#FFFFFF" d="M97.239,409.79h-8.288v-17.976c0-3.977-1.232-7.057-4.816-7.057c-2.072,0-5.264,1.457-5.264,6.104v18.928   h-8.288v-45.024h8.288v17.584h0.112c2.24-3.248,5.656-4.424,8.344-4.424c5.544,0,9.912,4.032,9.912,13.217V409.79z" />
	<path fill="#FFFFFF" d="M125.351,408.559c-2.576,1.119-6.216,1.791-10.08,1.791c-9.632,0-15.12-6.047-15.12-15.735   c0-8.96,5.152-16.688,14.28-16.688c7.56,0,12.488,5.377,12.488,15.457c0,1.231-0.056,2.407-0.224,3.303h-18.648   c0.224,5.32,4.032,7.449,8.512,7.449c3.08,0,5.488-0.561,7.616-1.289L125.351,408.559z M119.247,390.918   c0.056-3.248-1.232-7.224-5.32-7.224c-3.976,0-5.656,4.144-5.88,7.224H119.247z" />
	<path fill="#FFFFFF" d="M138.174,409.79h-8.288v-45.024h8.288V409.79z" />
	<path fill="#FFFFFF" d="M151.109,409.79h-8.288v-45.024h8.288V409.79z" />
	<path fill="#FFFFFF" d="M182.972,393.941c0,11.873-7.616,16.465-14.56,16.465c-8.4,0-14.448-5.936-14.448-16.072   c0-10.472,6.328-16.408,14.784-16.408C177.484,377.926,182.972,384.479,182.972,393.941z M168.581,384.03   c-4.592,0-6.216,5.376-6.216,10.136c0,5.544,2.128,10.137,6.16,10.137c3.92,0,6.048-4.648,6.048-10.192   C174.572,389.238,172.836,384.03,168.581,384.03z" />
	<path fill="#FFFFFF" d="M212.819,409.79h-8.288v-17.976c0-3.977-1.232-7.057-4.816-7.057c-2.072,0-5.264,1.457-5.264,6.104v18.928   h-8.288v-45.024h8.288v17.584h0.112c2.24-3.248,5.656-4.424,8.344-4.424c5.544,0,9.912,4.032,9.912,13.217V409.79z" />
	<path fill="#FFFFFF" d="M221.499,374.51c-2.632,0-4.424-1.903-4.424-4.424c0-2.576,1.848-4.424,4.424-4.424   c2.688,0,4.48,1.848,4.48,4.424C225.979,372.774,224.075,374.51,221.499,374.51z M225.699,409.79h-8.288v-31.192h8.288V409.79z" />
	<path fill="#FFFFFF" d="M247.37,385.99c-0.616-0.112-1.288-0.168-2.128-0.168c-3.752,0-6.608,2.52-6.608,7.84v16.128h-8.288   v-21.448c0-3.863-0.112-6.943-0.224-9.744h7.112l0.336,5.433h0.224c1.456-4.032,4.816-6.104,7.728-6.104   c0.784,0,1.288,0.057,1.848,0.168V385.99z" />
	<path fill="#FFFFFF" d="M253.25,374.51c-2.632,0-4.424-1.903-4.424-4.424c0-2.576,1.848-4.424,4.424-4.424   c2.688,0,4.479,1.848,4.479,4.424C257.729,372.774,255.826,374.51,253.25,374.51z M257.45,409.79h-8.288v-31.192h8.288V409.79z" />
	<path fill="#FFFFFF" d="M288.752,409.79h-8.287v-18.2c0-3.808-1.232-6.832-4.761-6.832c-2.239,0-5.319,1.736-5.319,6.496v18.536   h-8.289v-21.784c0-3.64-0.111-6.607-0.224-9.352h7.168l0.392,4.199h0.168c1.4-2.295,4.48-4.871,9.017-4.871   c5.712,0,10.136,3.976,10.136,12.712V409.79z" />
	<path fill="#FFFFFF" d="M320.056,378.654c-0.168,2.24-0.28,4.984-0.28,9.296v17.584c0,6.104-0.56,17.416-15.736,17.416   c-3.639,0-7.391-0.728-9.855-2.128l1.624-6.328c1.849,1.008,4.761,2.016,8.063,2.016c4.648,0,7.729-2.632,7.729-8.623v-2.297   h-0.111c-1.568,2.465-4.369,3.977-7.785,3.977c-7.392,0-12.039-6.664-12.039-15.176c0-10.305,5.992-16.408,12.88-16.408   c3.92,0,6.44,1.904,7.84,4.367h0.112l0.336-3.695H320.056z M311.489,390.75c0-3.977-2.408-6.271-5.209-6.271   c-3.752,0-6.271,3.808-6.271,9.688c0,5.432,2.296,9.128,6.216,9.128c1.904,0,5.265-1.231,5.265-6.496V390.75z" />
	<path fill="#FFFFFF" d="M323.92,405.086c0-3.08,2.127-5.32,4.983-5.32c2.912,0,4.984,2.129,4.984,5.32   c0,3.137-1.96,5.32-4.984,5.32S323.92,408.109,323.92,405.086z" />
	<path fill="#FFFFFF" d="M357.799,409.006c-1.4,0.672-4.256,1.344-7.561,1.344c-9.127,0-15.063-5.936-15.063-15.848   c0-9.352,6.048-16.52,16.353-16.52c2.688,0,5.151,0.615,6.496,1.176l-1.345,6.328c-1.063-0.504-2.575-1.008-4.872-1.008   c-5.207,0-8.231,4.199-8.231,9.688c0,6.104,3.528,9.632,8.288,9.632c2.072,0,3.695-0.392,5.039-1.008L357.799,409.006z" />
	<path fill="#FFFFFF" d="M387.536,393.941c0,11.873-7.616,16.465-14.561,16.465c-8.4,0-14.447-5.936-14.447-16.072   c0-10.472,6.328-16.408,14.783-16.408C382.047,377.926,387.536,384.479,387.536,393.941z M373.143,384.03   c-4.592,0-6.216,5.376-6.216,10.136c0,5.544,2.128,10.137,6.16,10.137c3.92,0,6.048-4.648,6.048-10.192   C379.135,389.238,377.399,384.03,373.143,384.03z" />
	<path fill="#FFFFFF" d="M433.902,409.79h-8.12v-17.64c0-4.48-1.232-7.448-4.535-7.448c-2.297,0-4.873,1.792-4.873,6.16v18.928   h-8.119v-18.424c0-3.696-1.176-6.664-4.424-6.664c-2.297,0-4.984,2.128-4.984,6.328v18.76h-8.12v-21.784   c0-3.64-0.112-6.607-0.224-9.352h7.056l0.392,4.145h0.168c1.457-2.24,4.2-4.816,8.848-4.816c3.809,0,6.721,2.016,7.953,5.207h0.111   c2.576-3.807,5.768-5.207,9.24-5.207c5.432,0,9.632,3.863,9.632,12.88V409.79z" />
</g>
<g>
	<path d="M242.451,321.32H193.04V210.812h-87.472V321.32H56.156V64.58h49.412v102.496h87.472V64.58h49.412V321.32z" />
	<path d="M445.434,321.32h-49.412V210.812H308.55V321.32h-49.411V64.58h49.411v102.496h87.472V64.58h49.412V321.32z" />
</g>
<g>
	<path fill="#91C3FB" d="M240.451,319.32H191.04V208.812h-87.472V319.32H54.156V62.58h49.412v102.496h87.472V62.58h49.412V319.32z" />
	<path fill="#91C3FB" d="M443.434,319.32h-49.412V208.812H306.55V319.32h-49.411V62.58h49.411v102.496h87.472V62.58h49.412V319.32z" />
</g>
</svg>