<?xml version="1.0"?><svg version="1.2" baseProfile="tiny-ps" viewBox="-23 -10 260 260" xmlns="http://www.w3.org/2000/svg" xmlns:xlink="http://www.w3.org/1999/xlink"><title>Paramount Acceptance</title><g><g fill="#fcfefc" transform="matrix(.1 0 0 -.1 0 215)"><path d="M0 1075V0h2150v2150H0V1075z"/></g><g fill="#c7d5ee" transform="matrix(.1 0 0 -.1 0 215)"><path d="M1066 2105c-9-13-16-27-16-29 0-3-38-74-83-158-118-215-279-512-317-583-18-33-43-78-55-100s-56-103-98-180c-41-77-83-156-94-175-25-45-81-147-126-232-20-36-90-166-157-287C54 240 0 133 0 125v-15h1065c586 0 1065 3 1065 6 0 7-183 367-190 374-3 3-13 21-22 40-16 33-71 140-413 805-71 138-175 340-232 450s-120 233-141 273c-20 39-39 72-43 72s-14-11-23-25zm-66-703v-218L823 999c-98-101-222-229-276-284l-98-100 29 55c16 30 43 80 59 110 17 30 50 91 73 135 24 44 93 172 155 285 61 113 138 253 170 313 32 59 60 107 62 107 1 0 3-98 3-218zm364-150 187-362-7-12-7-11 10 6 9 6 68-132 67-132-55 60c-31 33-73 78-94 100-20 22-93 101-162 175s-144 155-167 180l-43 45v224c0 123 2 222 4 220s87-167 190-367zm-176-337c177-190 405-437 545-590l45-50-354-3c-195-1-515-1-711 0l-358 3 130 135c72 74 236 245 365 378l235 244 24-29c13-15 49-55 79-88z"/></g><g fill="#92a3c2" transform="matrix(.1 0 0 -.1 0 215)"><path d="M1007 1983c-144-266-327-603-617-1138C34 190 0 127 0 118v-8h2120v10c0 6-149 300-331 653s-413 801-513 994c-99 194-184 353-188 353-3 0-40-62-81-137zm3-564v-230l-140-147c-76-81-209-219-295-307L419 575l24 45c42 76 533 983 546 1008 6 12 14 22 16 22 3 0 5-104 5-231zm345-139c98-190 218-424 267-520l90-175-34 35c-19 19-113 121-208 225-96 105-204 223-242 263l-68 72v464l9-9c4-6 88-165 186-355zm-139-388c273-292 569-615 572-623l4-9h-726c-399 0-726 2-726 4 0 3 12 17 28 33 15 16 137 143 272 283 382 397 433 450 441 450 4 0 65-62 135-138z"/></g><g fill="#5b7098" transform="matrix(.1 0 0 -.1 0 215)"><path d="M865 1713c-121-224-238-441-261-483C328 719 34 179 19 154 9 137 0 120 0 116v-6h2120v7c0 6-208 411-543 1058-76 149-176 342-222 430-163 317-267 515-268 515s-101-183-222-407zm145-295v-243l-128-130c-70-71-203-208-295-304S418 569 416 571s60 121 138 264 211 387 295 543c85 155 155 282 157 282s4-109 4-242zm286-15c70-137 194-378 276-536 82-159 148-290 146-292-1-2-128 133-280 298l-278 302v238c0 130 2 237 4 237 3 0 62-111 132-247zm-164-411c23-27 169-185 324-353 154-167 295-321 313-341l33-38H338l4 9c1 6 149 162 328 347s342 356 364 380c21 24 42 44 46 44 5 0 28-22 52-48z"/></g><g fill="#2c4479" transform="matrix(.1 0 0 -.1 0 215)"><path d="M1047 2038c-20-40-81-154-135-253-97-179-486-893-527-970-12-22-94-173-182-335S35 170 26 152L9 120h2111l-34 62c-18 35-72 137-118 228-47 91-117 226-155 300-39 74-121 234-183 355s-123 238-135 260-80 153-150 290c-146 287-255 495-258 495-2 0-19-33-40-72zm-27-622v-229l-42-46c-23-25-150-158-282-295-133-137-247-257-254-267-11-16-42-27-42-15 0 2 22 41 48 87 27 46 69 122 94 169s116 216 203 375c86 160 180 332 208 383l50 94 8-14 9-13v-229zm236 74c47-91 141-273 208-405 68-132 156-302 195-378 39-75 67-137 62-137s-105 104-223 232c-117 128-243 265-280 305l-68 72v483l11-4c6-2 49-78 95-168zm39-670c98-107 185-202 194-211 57-57 307-333 309-343l3-11-698 2c-384 2-715 3-736 3h-39l4 9c3 8 352 372 632 659l120 122 17-17c9-10 96-106 194-213z"/></g><g fill="#23418b" transform="matrix(.1 0 0 -.1 0 215)"><path d="M1090 2061v-12l-10 6-10 6v-42l12 7 11 7-7-11-7-12h22l-6-10c-12-19-23-10-31 23l-7 32-13-45c-17-56-33-90-56-113l-18-18v-49h-9c-4 0-28-38-52-85l-43-85h-23l5-25 4-25h-10c-6 0-22-22-36-49l-24-50 4-18 5-19-29-26-30-27-13-35-13-36-18-6-18-5v-15c0-7-13-40-30-71l-29-58 14-11 15-11-7-6c-3-4-15-7-25-7h-18l-6-30c-4-16-10-30-15-30s-9-7-9-16v-16l-15 12-15 12v-20c0-26-55-148-84-187-13-16-26-43-30-59l-7-28-19-5c-11-3-20-10-20-17 0-19-60-160-76-177-7-8-14-21-14-28s-7-28-16-47l-16-33-16-6c-10-3-22-15-28-27-32-68-100-193-106-196-5-2-8-13-8-24v-20l-14 5-14 6-6-14-5-14 17 5 17 6-18-15-17-14v-41l63-7c34-3 485-5 1002-3l940 3 12 8 12 8-5 14-6 15-11-7-10-6 6 11 7 10-25 51c-14 28-30 53-35 56-6 3-10 15-10 26v20l-9-6-10-5 1 17c0 10-18 51-41 92-22 41-41 79-41 86s-7 15-15 19l-15 5v17c0 9-9 28-19 43-11 15-23 40-27 55l-7 27-18 12-19 12v17c0 9-5 28-11 42l-12 25-10-6-10-6 6 10 7 11-21 26-20 26 5 9 6 9-35 62c-19 34-35 66-35 71 0 4-8 13-18 18l-18 9-1 21c-2 23-27 54-36 45-3-3-3 3-1 14l6 19-16 6-16 6v60l-28 48c-16 27-32 60-35 76l-7 27-12-3-12-2-13 39c-7 21-22 51-33 66-11 16-20 35-20 44 0 8-13 38-30 66-16 28-30 57-30 65s-13 34-30 58c-16 25-47 83-69 130l-39 84-23 16-23 17-2 39-2 40-21 27-21 27v-12zm90-231c0-5-2-10-4-10-3 0-8 5-11 10l-6 10h10c6 0 11-4 11-10zm-3-77-5-18v60l5-12c2-7 2-21 0-30zm51-71 4-12h-32v32l12-4c6-2 14-10 16-16zm-268-2c0-5-5-10-11-10h-10l6 10c3 6 8 10 11 10 2 0 4-4 4-10zm60-25v10l9-15 10-14v-226l1-225-17-26c-10-14-39-46-65-70-27-25-48-50-48-56s-16-24-35-40c-67-54-120-108-132-135l-12-27-39-24c-44-29-99-89-113-124l-9-24-29-10-29-10-12-30-12-29-9 6-8 5-18-21-17-20h-36v14c0 8 4 17 9 21 6 3 13 26 17 50l6 45h36l6 16c3 9 6 26 6 39v23l13 11 14 11 6-7 7-6v22c0 12 11 43 25 69s25 57 25 69v22l16 15c8 9 19 16 24 16 9 0 38 59 43 87 1 11 15 35 30 52l27 33v38h9c5 0 16 12 24 28 45 85 56 109 61 125l6 18 9-6 10-5 7 11 7 12-11-7c-7-4-12-5-12-1 0 9 24 49 34 56 4 4 9 20 10 37l1 31 18 18c22 23 67 91 67 102 0 4 12 21 26 36l26 28 9-14 9-14v10zm-115-5c-3-5-10-10-16-10-5 0-9 5-9 10 0 6 7 10 16 10h15l-6-10zm313-48c18-30 38-71 45-93 6-21 15-39 19-39 5 0 8-6 8-12 0-7 4-19 9-27l9-15 18 14 17 15-8-44-7-43 10-7c5-3 26-37 47-76 21-38 43-77 50-85s15-28 19-44c4-15 14-35 21-43l15-14v-64l10 15 9 14 10-29c16-44 72-148 89-165l15-15-7 13-7 12h23l-6-24c-3-13-8-30-11-38l-5-13 30-32c16-18 30-37 30-43v-11l10 6 10 6v-60l21-14 20-15-10-6-10-7 9-23 8-23-8-12-8-13-21 7-22 7 3 16 3 17h-30l-3 20c-2 11-15 32-28 46l-24 25 7 7 6 7h-12c-6 0-28 16-47 35l-35 35-10-5-9-6v40l-30 18c-16 9-30 21-30 26 0 14-94 117-107 117-7 0-26 14-44 31l-31 30 6 15 6 15-10-6-10-6v8c0 4-25 35-55 68l-55 60v445h22l-5 20-5 21 21-3 22-3 33-53zm66 43-6-16-14 12c-19 15-18 19 6 19h19l-5-15zm-427-67-5-13-1 19c-1 11 2 17 5 13 3-3 4-12 1-19zm493-59c0-5-7-9-15-9s-15-4-15-10c0-5-5-10-10-10h-10l16 25 16 25 9-6c5-3 9-9 9-15zm-510 1c0-5-2-10-4-10-3 0-8 5-11 10l-6 10h10c6 0 11-4 11-10zm602-185c0-5-5-11-11-13l-11-4v34l11-4c6-2 11-8 11-13zm-702-5c0-5-2-10-4-10-3 0-8 5-11 10l-6 10h10c6 0 11-4 11-10zm760-131v-10l-10 6c-5 3-10 11-10 16v10l10-6c6-3 10-11 10-16zm-375-171c17-18 52-51 76-73 25-22 57-59 72-82 15-24 31-43 36-43 6 0 12-9 16-19l6-20 32-3 32-3 1-15c1-8 2-23 3-33l1-17 25-12 25-11v-19c0-10 4-18 8-18 5 0 22-11 38-25l29-26-18 7-18 6 39-38c21-22 60-57 86-79 63-53 107-97 102-102-4-5 25-42 67-85l17-18v-65H312l9 18c6 9 8 21 5 25-3 5 21 35 52 68 31 34 62 69 68 80 6 10 25 28 42 39s31 23 32 26c0 11 122 142 161 174 14 11 40 40 59 64 44 56 91 100 107 101 7 0 24 17 37 38 24 38 160 167 176 167 5 0 12 4 17 9l8 9-12-7-13-7v21h33l32-32zm-125 12c0-5-4-10-10-10-5 0-10 5-10 10 0 6 5 10 10 10 6 0 10-4 10-10zm-424-37c-3-3-13-3-22 1l-17 7 19 14 19 14 3-15c2-9 1-18-2-21zm1079-122-6-11-11 6-10 7 13 8c16 10 23 4 14-10zM497 854c-3-3-12-4-19-1l-13 5 19 1c11 1 17-2 13-5zm1003-124v-20h-20v40h20v-20zm38-72c-3-7-11-13-18-13s-15 6-17 13l-5 12h44l-4-12zm73-63c-1-15-24-12-29 3l-4 14 16-4c10-1 17-7 17-13zm196-37-5-13-1 19c-1 11 2 17 5 13 3-3 4-12 1-19zm-667 622c0-5 5-10 11-10h10l-6 10c-3 6-8 10-11 10-2 0-4-4-4-10z"/></g></g></svg>