<?xml version="1.0" encoding="UTF-8" standalone="no"?><svg xmlns="http://www.w3.org/2000/svg" width="512" height="512" viewBox="0 0 512 512" fill="none" version="1.2" baseProfile="tiny-ps"><title>Instant Gaming</title><path d="M512 0H0V512H512V0Z" fill="#101010"/><g transform="matrix(.848392 0 0 .848392 31.078588 31.027719)"><path d="M169.646 156.948c-5.269 0-10.393-2.732-13.216-7.619a15.23 15.23 0 0 1 5.58-20.808l30.486-17.589c7.291-4.206 16.614-1.71 20.824 5.576a15.23 15.23 0 0 1-5.58 20.808l-30.487 17.588a15.18 15.18 0 0 1-7.607 2.044z" fill="url(#A)"/><path d="M398.288 256.041L184.874 379.165l.001-52.768 167.424-96.647-30.335-17.501-159.955 92.162c-4.716 2.721-7.622 7.75-7.622 13.192v87.945a15.23 15.23 0 0 0 7.622 13.193c2.358 1.361 4.99 2.04 7.622 2.04s5.264-.682 7.622-2.04l259.145-149.508a15.23 15.23 0 0 0 0-26.383l-75.961-43.824a17.36 17.36 0 0 0-.492-.284l-75.985-43.838c-4.717-2.721-10.528-2.721-15.244 0l-106.707 61.562a15.23 15.23 0 0 0-5.579 20.808c2.823 4.887 7.947 7.619 13.215 7.619a15.19 15.19 0 0 0 7.608-2.043l99.084-57.165z" fill="url(#B)"/><path d="M398.288 256.041L184.874 379.165l.001-52.768 9.653-5.572-17.277-25.196-15.242 8.782c-4.716 2.721-7.622 7.75-7.622 13.192v87.945a15.23 15.23 0 0 0 7.622 13.193c2.358 1.361 4.99 2.04 7.622 2.04s5.264-.682 7.622-2.04l259.145-149.508a15.23 15.23 0 0 0 0-26.383l-75.961-43.824a17.36 17.36 0 0 0-.492-.284l-75.985-43.838c-4.717-2.721-10.528-2.721-15.244 0l-106.707 61.562a15.23 15.23 0 0 0-5.579 20.808c2.823 4.887 7.947 7.619 13.215 7.619a15.19 15.19 0 0 0 7.608-2.043l99.084-57.165z" fill="url(#C)"/></g><defs><linearGradient id="A" x1="156.371" y1="174.192" x2="204.504" y2="104.496" gradientUnits="userSpaceOnUse"><stop offset=".26" stop-color="#ff670d"/><stop offset="1" stop-color="#ff5317"/></linearGradient><linearGradient id="B" x1="254.981" y1="319.919" x2="317.817" y2="210.407" gradientUnits="userSpaceOnUse"><stop stop-color="#ff7207"/><stop offset="1"/></linearGradient><linearGradient id="C" x1="122.452" y1="350.718" x2="401.261" y2="180.566" gradientUnits="userSpaceOnUse"><stop stop-color="#ff8000"/><stop offset="1" stop-color="#ff4020"/></linearGradient></defs></svg>