<?xml version="1.0" encoding="utf-8" standalone="yes"?><!-- Generator: Adobe Illustrator 25.3.1, SVG Export Plug-In . SVG Version: 6.00 Build 0)  --><svg xmlns="http://www.w3.org/2000/svg" xmlns:xlink="http://www.w3.org/1999/xlink" version="1.2" baseProfile="tiny-ps" viewBox="0 0 200 200" xml:space="preserve"><title>Sharecare Inc</title><g><g><g><path fill="#00BFA5" d="M129.9,84.2L129.9,84.2L129.9,84.2L129.9,84.2z"></path><path fill="#00BFA5" d="M110.9,64.7c-6,0-11.3,2.9-14.8,7.2c-3.5-4.4-8.8-7.2-14.8-7.2c-10.6,0-19.1,8.7-19.1,19.4l0,0l0,0l0,0     c0,1.6,0.2,3.1,0.5,4.6c4.4,19.1,33.3,37.9,33.3,37.9l0,0l0,0c0,0,29-18.8,33.3-37.9c0.4-1.5,0.5-3,0.5-4.6l0,0l0,0l0,0     C129.9,73.4,121.5,64.7,110.9,64.7z"></path></g><path fill="#343333" d="M177.8,158.5L147.7,134c9.3-11.3,13.7-24.2,13.7-40c0-36-29.1-65.1-65.1-65.1S31,57.9,31,93.9    S60.1,159,96.1,159c15.2,0,29.3-5.4,40.4-14.1l6.2,13.5h35.1L177.8,158.5L177.8,158.5z M96.3,143.5c-27.3,0-49.4-22.2-49.4-49.4    S69,44.6,96.3,44.6s49.4,22.2,49.4,49.4S123.6,143.5,96.3,143.5"></path></g></g></svg>