<?xml version="1.0" encoding="utf-8"?>
<!-- Generator: Adobe Illustrator 25.0.0, SVG Export Plug-In . SVG Version: 6.00 Build 0)  -->
<svg version="1.2" baseProfile="tiny-ps" xmlns:xlink="http://www.w3.org/1999/xlink" viewBox="0 0 640 640" xmlns="http://www.w3.org/2000/svg">
  <title>Peacock</title>
<rect id="rect4" width="640" height="640" />
<g id="g44" transform="matrix(1.2893513,0,0,1.2893513,-404.18912,-92.156881)">
	<g id="g42">
		<g id="g10">
			<g id="g8">
				<path fill="#069DE0" d="M666.9,390.8c-11.9,0-21.5,9.6-21.5,21.5c0,11.9,9.6,21.5,21.5,21.5s21.5-9.6,21.5-21.5      C688.4,400.4,678.8,390.8,666.9,390.8z" />
			</g>
		</g>
		<g id="g16">
			<g id="g14">
				<path fill="#6E55DC" d="M666.9,331.9c-11.9,0-21.5,9.6-21.5,21.5s9.6,21.5,21.5,21.5s21.5-9.6,21.5-21.5      S678.8,331.9,666.9,331.9z" />
			</g>
		</g>
		<g id="g22">
			<g id="g20">
				<path fill="#05AC3F" d="M666.9,449.7c-11.9,0-21.5,9.6-21.5,21.5s9.6,21.5,21.5,21.5s21.5-9.6,21.5-21.5      S678.8,449.7,666.9,449.7z" />
			</g>
		</g>
		<path fill="#EF1541" d="M666.9,273.1c-11.9,0-21.5,9.6-21.5,21.5c0,11.9,9.6,21.5,21.5,21.5s21.5-9.6,21.5-21.5    C688.4,282.7,678.8,273.1,666.9,273.1z" />
		<g id="g30">
			<g id="g28">
				<path fill="#FF7112" d="M666.9,214.2c-11.9,0-21.5,9.6-21.5,21.5s9.6,21.5,21.5,21.5s21.5-9.6,21.5-21.5      S678.8,214.2,666.9,214.2L666.9,214.2z" />
			</g>
		</g>
		<g id="g36">
			<g id="g34">
				<path fill="#FCCC12" d="M666.9,155.3c-11.9,0-21.5,9.6-21.5,21.5s9.6,21.5,21.5,21.5s21.5-9.6,21.5-21.5      S678.8,155.3,666.9,155.3z" />
			</g>
		</g>
		<g id="g40">
			<path fill="#FFFFFF" d="M524.1,176c-49.1,0-89.1,40-89.1,89.1v206h42.2V356.7l15.4,16.4l62-24.3c35.5-13.8,58.5-45.6,58.5-83.7     C613.1,216,573.2,176,524.1,176L524.1,176z M539.9,311.3l-62.7,24.6v-70.8c0-28.3,21.3-48.9,46.8-48.9     c25.6,0,46.8,20.6,46.8,48.9C570.9,283,562.2,302.6,539.9,311.3L539.9,311.3z" />
		</g>
	</g>
</g>
</svg>