<svg xmlns="http://www.w3.org/2000/svg" xmlns:xlink="http://www.w3.org/1999/xlink" version="1.2" viewBox="0 0 141.732 141.732" baseProfile="tiny-ps">
  <title>Laneva.de</title>
  <g>
    <linearGradient id="SVGID_1_" gradientUnits="userSpaceOnUse" x1="5.2964" y1="25.2056" x2="105.9623" y2="125.8558">
      <stop offset="0" stop-color="#CDAD4F"/>
      <stop offset="0.18" stop-color="#DEC066"/>
      <stop offset="0.44" stop-color="#F6DB86"/>
      <stop offset="0.67" stop-color="#C89B13"/>
      <stop offset="0.8" stop-color="#F5DDA2"/>
      <stop offset="0.85" stop-color="#E9CD74"/>
      <stop offset="0.86" stop-color="#E9CD74"/>
      <stop offset="1" stop-color="#E9CD74"/>
    </linearGradient>
    <path d="M26.879,137.812c0,0-0.032,0-0.047,0c-0.032,0-0.063,0-0.095-0.047v-0.032l0,0   c0,0,0-0.016,0-0.032c0-0.016,0-0.032,0-0.047s0-0.032,0.016-0.047c0,0,0,0,0-0.016c0.347-0.331,34.95-32.571,28.679-61.328   c-3.041-13.93-15.332-24.44-36.557-31.279l0,0c-0.016,0-0.032-0.016-0.032-0.032c0,0-0.032-0.016-0.032-0.032l0,0   c0-0.016,0-0.032,0-0.047c0-0.016,0-0.032,0-0.047l0,0c0-0.016,0.016-0.032,0.032-0.047c0,0,0-0.016,0.032-0.032l0,0   c9.959-3.514,22.313-1.245,34.241,0.961c14.103,2.6,27.402,5.042,35.155-2.364c6.524-6.24,8.399-19.098,5.736-39.283   c0,0,0,0,0-0.016c0-0.016,0-0.032,0-0.047c0-0.016,0-0.032,0.032-0.047c0,0,0,0,0-0.016c0,0,0.016,0,0.032,0   c0,0,0.016-0.016,0.032-0.016l0,0c0,0,0,0,0.016,0c0,0,0.032,0,0.047,0s0.032,0,0.047,0.016c0,0,0,0,0.016,0   c14.119,18.515,11.345,40.701,6.508,56.049c-10.841,34.477-42.592,67.915-73.871,77.81L26.879,137.812z M53.068,22.01   c0,8.288,6.713,15.033,14.954,15.033s14.954-6.744,14.954-15.033S76.263,6.978,68.022,6.978S53.068,13.722,53.068,22.01z" fill="url(#SVGID_1_)"/>
    <path d="M21.364,76.468c0-8.556,2.159-16.608,5.956-23.652l-8.682-3.293   c-4.128,8.084-6.492,17.223-6.492,26.945c0,18.42,8.399,34.84,21.556,45.665l4.995-7.894   C28.093,105.115,21.364,91.595,21.364,76.468" fill="#95C11F"/>
    <path d="M109.007,31.606v13.126c7.107,8.619,11.377,19.665,11.377,31.72   c0,27.481-22.171,49.762-49.51,49.762c-3.845,0-7.579-0.441-11.172-1.276l-9.029,6.918c6.303,2.332,13.094,3.624,20.201,3.624   c32.429,0,58.712-26.425,58.712-59.012c0-17.963-7.989-34.02-20.579-44.846" fill="#95C11F"/>
    <path d="M48.246,22.026c-9.218,3.876-17.239,10.037-23.353,17.79l13.016-0.425   c3.845-3.451,8.21-6.319,12.984-8.43c-1.528-2.647-2.474-5.673-2.647-8.919" fill="#95C11F"/>
  </g>
  <rect x="-118.269" y="0.001" width="378.27" height="141.73" fill="none"/>
</svg>