<?xml version="1.0" encoding="UTF-8" standalone="yes"?>
<svg version="1.2" baseProfile="tiny-ps" viewBox="0 0 1000 1000" xml:space="preserve" xmlns="http://www.w3.org/2000/svg">
  <title>bimi-svg-tiny-12-ps</title>
  <g>
    <g>
      <polygon fill="#AE000D" points="185.8,535.4 167.6,535.4 167.6,467 208,467 208,481.8 185.8,481.8 185.8,494.9 206.3,494.9 &#xA;&#x9;&#x9;&#x9;206.3,509.7 185.8,509.7 &#x9;&#x9;"/>
      <polygon fill="#AE000D" points="219.3,535.4 219.3,467 237.7,467 237.7,520.5 264.1,520.5 264.1,535.4 &#x9;&#x9;"/>
      <path fill="#AE000D" d="M291.9,501.1c0,13.2,4.6,19.8,13.8,19.8c4.7,0,8.1-1.6,10.4-4.8s3.4-8.2,3.4-15s-1.1-11.9-3.4-15.1&#xA;&#x9;&#x9;&#x9;c-2.3-3.3-5.7-4.9-10.3-4.9C296.6,481.1,291.9,487.8,291.9,501.1 M339,501.1c0,11.5-2.8,20.3-8.5,26.2c-5.6,6-13.9,9-24.8,9&#xA;&#x9;&#x9;&#x9;c-10.7,0-19-3-24.7-9s-8.6-14.8-8.6-26.3c0-11.4,2.8-20.1,8.5-26.1s14-9,24.8-9c10.9,0,19.1,3,24.7,8.9&#xA;&#x9;&#x9;&#x9;C336.2,480.8,339,489.6,339,501.1"/>
      <path fill="#AE000D" d="M369.8,496.6h3.5c6.5,0,9.7-2.9,9.7-8.6c0-4.7-3.2-7.1-9.5-7.1h-3.6v15.7H369.8z M369.8,510.5v24.9h-18.5&#xA;&#x9;&#x9;&#x9;V467h22.4c18.6,0,27.9,6.7,27.9,20.2c0,7.9-3.9,14.1-11.6,18.4l19.9,29.8h-21l-14.5-24.9L369.8,510.5L369.8,510.5z"/>
      <path fill="#AE000D" d="M488.4,500.4c0-6.3-1.2-10.9-3.7-13.9s-6.3-4.5-11.3-4.5H468v38.3h4.1c5.6,0,9.7-1.6,12.4-4.9&#xA;&#x9;&#x9;&#x9;C487.1,512.1,488.4,507.1,488.4,500.4 M507.6,499.8c0,11.4-3.1,20.2-9.4,26.4s-15.1,9.3-26.5,9.3h-22.1V467h23.7&#xA;&#x9;&#x9;&#x9;c11,0,19.5,2.8,25.4,8.4S507.6,489.2,507.6,499.8"/>
      <path fill="#AE000D" d="M554.6,507.4l-2.9-11.2c-0.7-2.5-1.5-5.7-2.5-9.7s-1.6-6.8-1.9-8.5c-0.3,1.6-0.8,4.2-1.7,7.9&#xA;&#x9;&#x9;&#x9;c-0.8,3.6-2.7,10.8-5.5,21.6L554.6,507.4L554.6,507.4z M561.8,535.4l-3.4-12.8h-22.2l-3.5,12.8h-20.3l22.3-68.7h24.6l22.6,68.7&#xA;&#x9;&#x9;&#x9;H561.8z"/>
      <rect x="416.2" y="467" fill="#AE000D" width="18.6" height="68.4"/>
    </g>
    <g>
      <path d="M82,570.7c0.4,0.1,0.8,0.1,1.1,0.2c0.3-1.1,0.8-2.2,1-3.3c2.7-14.9,3.1-29.9,2.7-45c0-1.7-0.3-2.7-2.4-2.6&#xA;&#x9;&#x9;&#x9;c-2,0.1-1.9,1.2-2,2.6c-0.1,14.8-0.3,29.7-0.5,44.5C82,568.4,82,569.5,82,570.7"/>
      <path d="M49.8,435.6c8.3,17.7,14.1,35.9,17,55c0.1-2.3,0.3-4.5,0.1-6.7c-1.1-14.5-4.2-28.7-9.1-42.4&#xA;&#x9;&#x9;&#x9;C56.4,437.5,54.4,435.4,49.8,435.6"/>
      <path d="M68,506.4c-0.2,0.2-0.3,0.3-0.3,0.4c-0.1,12.6,0.4,25.1-2,37.6c-0.1,0.6,0.6,1.3,0.9,1.9c0.4-0.6,1.1-1.2,1.2-1.9&#xA;&#x9;&#x9;&#x9;c1.3-10.2,2.5-20.4,3.7-30.7C72,510.6,70.9,508.2,68,506.4"/>
      <path d="M75.4,513.9c-5,4.4-1.9,11.9,5.9,14.7c-0.5-1.2-1.1-2.3-2-3.1C76.1,522.4,72.7,519.4,75.4,513.9"/>
      <path d="M82,570.7c0-1.2,0-2.3,0-3.5c0.2-14.8,0.3-29.7,0.5-44.5c0-1.5,0-2.5,2-2.6c2.1-0.1,2.3,0.9,2.4,2.6&#xA;&#x9;&#x9;&#x9;c0.4,15.1,0,30.1-2.7,45c-0.2,1.1-0.6,2.2-1,3.3C82.8,570.8,82.4,570.8,82,570.7"/>
      <path d="M49.8,435.6c4.7-0.2,6.7,1.9,8.1,5.8c4.8,13.8,7.9,27.9,9.1,42.4c0.2,2.2,0,4.5-0.1,6.7C63.9,471.5,58,453.3,49.8,435.6"/>
      <path d="M68,506.4c2.9,1.8,4,4.2,3.6,7.4c-1.2,10.2-2.5,20.4-3.7,30.7c-0.1,0.7-0.8,1.2-1.2,1.9c-0.3-0.6-1.1-1.4-0.9-1.9&#xA;&#x9;&#x9;&#x9;c2.4-12.4,1.9-25,2-37.6C67.8,506.7,67.9,506.6,68,506.4"/>
      <path d="M75.4,513.9c-2.7,5.5,0.7,8.5,3.9,11.5c0.9,0.8,1.5,1.9,2,3.1C73.5,525.8,70.4,518.2,75.4,513.9"/>
      <path d="M94.3,490.4c-2.4,0.2-6.5,0.4-10.5,1.1c-4.2,0.8-8.5,1.7-12.3,3.4c-4.5,2-5.1,5.6-2.2,9.6c1.8,2.6,4.3,4.7,6,7.4&#xA;&#x9;&#x9;&#x9;c3.7,5.6,8.8,7,15.1,5.9c13.4-2.4,26.8-4.6,40.2-6.9c2.2-0.4,2.6-1.6,2.1-3.5c-1.2-4.4-4.3-7.1-7.9-9.4&#xA;&#x9;&#x9;&#x9;C115.9,492.8,106.2,490.7,94.3,490.4"/>
      <path d="M107,430.1c-1.8,0.7-2.6,1.1-3.3,1.3c-3.2,0.8-4.2,2.6-4.1,5.9c0.3,6.4,0.2,12.9,0.2,19.3c0,9.1,0,18.2,0,27.3&#xA;&#x9;&#x9;&#x9;c0.2,0,0.5,0.1,0.7,0.1C102.7,466.3,104.8,448.6,107,430.1"/>
      <path d="M57.4,437.1c1.3,5.3,1.5,5.6,6.3,6.1c10.6,1.2,21,0.7,31.1-3.2c4.1-1.5,4.3-1.9,3.1-6.4C84.9,439.9,71.3,439.8,57.4,437.1&#xA;&#x9;&#x9;&#x9;"/>
      <path d="M132.6,511.9c-2.2,0.9-5.2-0.7-5.2,3.1c-0.1,13.9-0.2,27.8-0.2,41.7c0,0.8,0.3,1.6,0.5,2.4c0.4,0,0.7,0,1.1-0.1&#xA;&#x9;&#x9;&#x9;C130.8,543.5,131.8,527.9,132.6,511.9"/>
      <path d="M66.7,455.5c0.9,0.2,2,0.6,3.2,0.9c8.6,2,17.1,1.2,25.6-0.4c3.6-0.7,3.9-1.2,2.9-4.1C87.6,453.1,77.1,454.3,66.7,455.5"/>
      <path d="M69.8,472.5c1.4,0.4,2.4,0.8,3.5,1c7.7,1.6,15.2,0.6,22.8-1.4c2.6-0.7,3.3-1.9,2.5-4.2C89,469.5,79.6,470.9,69.8,472.5"/>
      <path d="M98.2,460.3c-9.7,1.4-19.2,2.8-28.3,4.1c-0.2-0.1,0,0.1,0.3,0.2c0.8,0.2,1.6,0.4,2.4,0.5c7.7,1.2,15.2,0.6,22.8-0.7&#xA;&#x9;&#x9;&#x9;C98.2,463.8,99.1,462.6,98.2,460.3"/>
      <path d="M96.9,535.7c0.3,0,0.6,0.1,0.9,0.1c0.2-0.9,0.5-1.7,0.6-2.6c0.5-4.2,1.1-8.5,1.5-12.7c0.1-0.7-0.5-1.4-0.8-2.1&#xA;&#x9;&#x9;&#x9;c-0.6,0.7-1.8,1.3-1.9,2c-0.3,4.3-0.4,8.5-0.5,12.8C96.7,534,96.8,534.8,96.9,535.7"/>
      <path d="M125.2,524.6c-0.9-3.2-11.5-8.6-15-7.7C115.4,519.6,120,521.9,125.2,524.6"/>
      <path d="M94.3,490.4c11.9,0.2,21.6,2.4,30.4,7.7c3.7,2.2,6.7,5,7.9,9.4c0.5,1.9,0.2,3.1-2.1,3.5c-13.4,2.2-26.8,4.5-40.2,6.9&#xA;&#x9;&#x9;&#x9;c-6.3,1.1-11.4-0.2-15.1-5.9c-1.7-2.6-4.1-4.8-6-7.4c-2.9-4-2.2-7.6,2.2-9.6c3.9-1.7,8.1-2.6,12.3-3.4&#xA;&#x9;&#x9;&#x9;C87.8,490.8,91.9,490.7,94.3,490.4"/>
      <path d="M107,430.1c-2.2,18.5-4.3,36.2-6.5,53.9c-0.2,0-0.5-0.1-0.7-0.1c0-9.1,0-18.2,0-27.3c0-6.5,0.1-12.9-0.2-19.3&#xA;&#x9;&#x9;&#x9;c-0.2-3.3,0.9-5.2,4.1-5.9C104.5,431.1,105.2,430.8,107,430.1"/>
      <path d="M57.4,437.1c13.9,2.8,27.5,2.8,40.5-3.4c1.2,4.5,1,4.8-3.1,6.4c-10.1,3.8-20.5,4.4-31.1,3.2&#xA;&#x9;&#x9;&#x9;C58.9,442.6,58.7,442.4,57.4,437.1"/>
      <path d="M132.6,511.9c-0.8,16-1.8,31.6-3.8,47.1c-0.4,0-0.7,0-1.1,0.1c-0.2-0.8-0.5-1.6-0.5-2.4c0-13.9,0.1-27.8,0.2-41.7&#xA;&#x9;&#x9;&#x9;C127.4,511.1,130.4,512.7,132.6,511.9"/>
      <path d="M66.7,455.5c10.5-1.2,21-2.4,31.7-3.6c1,2.9,0.7,3.4-2.9,4.1c-8.5,1.6-17,2.4-25.6,0.4C68.7,456.1,67.5,455.7,66.7,455.5"/>
      <path d="M69.8,472.5c9.8-1.5,19.3-3,28.8-4.5c0.8,2.2,0.1,3.5-2.5,4.2c-7.5,2-15.1,3-22.8,1.4C72.2,473.3,71.1,472.9,69.8,472.5"/>
      <path d="M98.2,460.3c0.9,2.3,0,3.6-2.8,4.1c-7.6,1.4-15.2,2-22.8,0.7c-0.8-0.1-1.6-0.3-2.4-0.5c-0.3-0.1-0.5-0.2-0.3-0.2&#xA;&#x9;&#x9;&#x9;C79,463.1,88.5,461.7,98.2,460.3"/>
      <path d="M96.9,535.7c-0.1-0.8-0.2-1.7-0.2-2.5c0.1-4.3,0.2-8.5,0.5-12.8c0.1-0.7,1.2-1.4,1.9-2c0.3,0.7,0.8,1.5,0.8,2.1&#xA;&#x9;&#x9;&#x9;c-0.4,4.2-0.9,8.5-1.5,12.7c-0.1,0.9-0.4,1.7-0.6,2.6C97.5,535.7,97.2,535.7,96.9,535.7"/>
      <path d="M125.2,524.6c-5.2-2.7-9.8-5-15-7.7C113.7,516,124.2,521.4,125.2,524.6"/>
    </g>
    <g>
      <path d="M629.4,517.8c0,5.7-2.1,10.2-6.3,13.6c-4.2,3.3-9.8,5-16.7,5c-8.4,0-14.8-0.9-19.2-2.8v-4.8c4.9,2.1,11.2,3.1,18.9,3.1&#xA;&#x9;&#x9;&#x9;c5.6,0,10.1-1.3,13.4-3.9c3.3-2.6,4.9-5.9,4.9-10.1c0-2.6-0.6-4.7-1.6-6.4c-1.1-1.7-2.9-3.2-5.3-4.6c-2.5-1.4-6.1-2.9-10.9-4.5&#xA;&#x9;&#x9;&#x9;c-7-2.4-11.8-5-14.5-7.8s-4-6.5-4-11.2c0-5.1,2-9.3,6-12.5s9.2-4.8,15.5-4.8c6.4,0,12.5,1.2,18.1,3.6l-1.7,4.1&#xA;&#x9;&#x9;&#x9;c-5.7-2.4-11.1-3.6-16.3-3.6c-5.1,0-9.1,1.2-12.1,3.5s-4.5,5.5-4.5,9.5c0,2.5,0.5,4.6,1.4,6.2s2.4,3.1,4.5,4.4s5.7,2.8,10.8,4.7&#xA;&#x9;&#x9;&#x9;c5.3,1.8,9.3,3.6,12,5.4c2.7,1.7,4.6,3.7,5.9,5.9C628.8,512,629.4,514.7,629.4,517.8"/>
      <path d="M703.6,507h24.5l-9.3-24.7c-0.8-1.9-1.7-4.6-2.8-8c-0.8,3-1.8,5.7-2.8,8.1L703.6,507z M729.7,511.3h-27.8l-9.5,24.1h-5.3&#xA;&#x9;&#x9;&#x9;l27.5-68.7h3l26.9,68.7h-5.4L729.7,511.3z"/>
      <path d="M878.3,535.4h-4.8L833,474.7h-0.4c0.4,7.2,0.6,12.7,0.6,16.4v44.3h-4.6V467h4.8l40.5,60.6h0.3c-0.3-5.6-0.4-10.9-0.4-16&#xA;&#x9;&#x9;&#x9;V467h4.6L878.3,535.4L878.3,535.4z"/>
      <path d="M924.6,500.9h25.2v31.2c-6.6,2.8-14.1,4.2-22.3,4.2c-10.8,0-19.1-3-24.8-9.1c-5.8-6.1-8.6-14.7-8.6-25.9&#xA;&#x9;&#x9;&#x9;c0-7,1.4-13.1,4.3-18.5c2.9-5.4,6.9-9.5,12.3-12.5c5.3-2.9,11.4-4.4,18.3-4.4c7.5,0,14.1,1.4,20.1,4.1l-1.9,4.3&#xA;&#x9;&#x9;&#x9;c-5.9-2.7-12.1-4.1-18.4-4.1c-9,0-16.2,2.8-21.5,8.4s-7.9,13.1-7.9,22.5c0,10.3,2.5,18,7.5,23.2s12.4,7.8,22.1,7.8&#xA;&#x9;&#x9;&#x9;c6.3,0,11.7-0.9,16-2.7v-24h-20.3L924.6,500.9L924.6,500.9z"/>
      <polygon points="681.3,535.4 643.9,535.4 643.9,467 681.3,467 681.3,471.4 648.7,471.4 648.7,497.3 679.4,497.3 679.4,501.7 &#xA;&#x9;&#x9;&#x9;648.7,501.7 648.7,531 681.3,531 &#x9;&#x9;"/>
      <polygon points="772.1,535.4 767.2,535.4 767.2,471.5 745,471.5 745,467 794.3,467 794.3,471.5 772.1,471.5 &#x9;&#x9;"/>
      <rect x="804.4" y="467" width="4.8" height="68.4"/>
    </g>
  </g>
</svg>