<?xml version="1.0" encoding="utf-8"?>
<!-- Generator: Adobe Illustrator 27.6.1, SVG Export Plug-In . SVG Version: 6.00 Build 0)  -->
<svg version="1.2" baseProfile="tiny-ps" id="Layer_1" xmlns="http://www.w3.org/2000/svg" xmlns:xlink="http://www.w3.org/1999/xlink" viewBox="0 0 1500 1500" xml:space="preserve">
<title>Flodesk</title>
<rect fill="#FCFBF9" width="1500" height="1500"/>
<g>
	<path d="M257.1,726.3h-30.6v143.2h-39.7V726.3H162v-33.6h24.9v-6c0-38,17.1-60.8,58.5-60.8c3.7,0,7.4,0,11.8,0.7v34.6
		c-1.3-0.3-2.3-0.3-4-0.3c-14.8,0-24.5,5-26.6,19.2c-0.3,3-0.3,5-0.3,7.7v5h30.9L257.1,726.3L257.1,726.3z M287.7,626.8h40.4v242.7
		h-40.4C287.7,869.5,287.7,626.8,287.7,626.8z"/>
	<path d="M551.3,781.4c0,53.5-39.3,92.8-93.5,92.8s-93.1-39.3-93.1-92.8c0-53.5,38.3-93.1,93.1-93.1S551.3,728,551.3,781.4
		L551.3,781.4z M404.7,781.1c0,33.6,20.8,57.8,53.1,57.8s52.8-24.5,52.8-57.8s-20.5-57.2-52.8-57.2S404.7,748.5,404.7,781.1z"/>
	<path d="M759.4,869.5h-37.3v-12.8c0-4.7,0-8.4,0.7-11.4h-1.3c-12.1,17.8-33.6,28.2-59.2,28.2c-50.4,0-85.1-39-85.1-91.8
		c0-52.8,34.6-93.1,83.4-93.1c25.9,0,47.4,11.1,58.8,27.2h1c-0.3-18.5-0.7-23.2-0.7-44v-45.1h39.7L759.4,869.5L759.4,869.5z
		 M617.2,781.4c0,31.9,20.5,57.2,52.4,57.2s52.4-24.9,52.4-57.5s-20.8-56.5-52.4-56.5S617.2,750.2,617.2,781.4z"/>
	<path d="M974.3,821.8c-11.1,33.6-48.1,52.1-86.1,52.1c-54.5,0-92.1-38.3-92.1-92.5c0-54.1,38-93.1,91.8-93.1
		c58.2,0,89.8,42.7,89.8,94.8c0,2.3,0,6.7-0.3,10.1H836.1c1.3,29.2,25.5,47.1,53.8,47.1c19.2,0,35.3-8.7,45.4-25.5L974.3,821.8
		L974.3,821.8z M935.9,762.6c-3.7-25.9-20.8-41.4-48.1-41.4c-27.2,0-47.1,17.2-51.1,41.4H935.9L935.9,762.6z"/>
	<path d="M1101.3,742.1c-3-13.1-13.5-22.5-30.3-22.5s-26.2,8.1-26.2,19.5c0,9.4,5.7,13.8,19.8,18.5l34,11.8
		c28.2,9.7,44.7,21.2,44.7,48.1c0,36.7-29.9,56.5-70.3,56.5s-68.6-19.8-71.3-54.8l40-1.7c1,13.1,11.8,25.2,31.6,25.2
		c18.5,0,28.6-8.7,28.6-20.9s-7.7-15.8-26.6-22.2l-24.9-8.1c-28.6-9.1-46.1-22.9-46.1-49.1c0-32.9,27.6-54.8,68.6-54.8
		c37.3,0,63.5,20.5,66.2,53.1L1101.3,742.1L1101.3,742.1z"/>
	<path d="M1179,626.8h39.3v54.5c0,29.6-0.7,48.1-1,74.3l0.3,0.3c12.4-13.5,23.9-23.5,36.7-36.7l25.9-26.6h54.8l-93.8,83.4l96.8,93.5
		h-56.8c-22.2-22.2-43.7-45.4-63.2-67.2h-0.3c0.3,14.8,0.7,26.9,0.7,43.7v23.5H1179L1179,626.8L1179,626.8z"/>
</g>
</svg>
