<svg xmlns="http://www.w3.org/2000/svg" xmlns:xlink="http://www.w3.org/1999/xlink" version="1.2" viewBox="0 0 1920 1080" baseProfile="tiny-ps">
  <title>LinkSquares</title>
  <g>
    <g>
      <path d="M22.5,643.25c0-69.167,0-138.333,0-207.5c625,0,1250,0,1875,0c0,69.167,0,138.333,0,207.5    C1272.5,643.25,647.5,643.25,22.5,643.25z M915.246,610.903c2.002-0.68,2.775-1.164,3.554-1.175    c10.809-0.149,21.618-0.213,32.427-0.338c20.653-0.238,30.391-9.765,30.488-30.378c0.152-32.466,0.122-64.933,0.012-97.4    c-0.072-21.335-9.765-31.021-31.123-31.094c-32.441-0.112-64.884-0.091-97.325-0.008c-21.656,0.055-31.291,9.263-31.446,30.633    c-0.235,32.465-0.228,64.934-0.004,97.399c0.15,21.769,9.297,30.605,31.19,30.83c11.428,0.118,22.858,0.021,34.969,0.021    c0.096,11.51-0.756,21.611,13.722,21.695C916.812,631.176,914.35,620.187,915.246,610.903z M716.11,450.492    c-13.332,0-26.665-0.105-39.996,0.023c-24.173,0.232-40.812,19.202-40.862,46.418c-0.054,29.494,14.852,46.591,41.023,46.742    c24.164,0.14,48.329-0.031,72.493,0.055c15.629,0.056,19.382,3.778,19.468,18.782c0.091,16.044-3.75,20.456-19.293,20.635    c-22.911,0.264-45.829-0.009-68.743,0.112c-10.019,0.053-16.754-3.286-18.434-14.1c-1.429-9.195-7.224-14.147-16.787-11.859    c-9.172,2.195-10.514,9.62-9.46,17.605c2.64,20.006,18.513,34.193,39.129,34.411c26.661,0.281,53.332-0.204,79.99,0.184    c15.041,0.219,25.543-6.776,32.839-18.752c10.75-17.643,10.285-36.189,1.378-54.247c-6.282-12.735-16.778-19.709-32.011-19.437    c-24.989,0.447-49.994,0.228-74.991,0.074c-14.793-0.091-19.936-4.8-20.01-17.545c-0.106-18.349,3.371-22.468,19.602-22.553    c21.664-0.114,43.341,0.399,64.989-0.196c12.422-0.341,20.585,2.142,23.131,16.237c0.737,4.081,9.084,9.058,14.348,9.572    c7.718,0.755,11.049-5.717,11.101-13.364c0.134-19.92-17.365-38.213-37.66-38.713C743.614,450.239,729.859,450.513,716.11,450.492    z M1547.76,530.857c0,20.974-0.077,41.949,0.033,62.922c0.054,10.174,4.2,15.852,15.781,15.753    c42.035-0.359,84.077,0.112,126.107-0.46c5.277-0.072,12.522-3.121,15.326-7.175c6.197-8.96-1.327-18.428-14.434-18.552    c-29.965-0.282-59.934-0.107-89.901-0.113c-26.275-0.005-25.79-0.009-26.16-26.349c-0.148-10.535,3.664-13.492,13.767-13.34    c30.376,0.456,60.765,0.24,91.148,0.103c9.262-0.042,18.342-1.6,18.478-13.415c0.138-11.993-8.518-13.166-18.144-13.111    c-30.382,0.176-60.768-0.1-91.149,0.148c-9.939,0.081-14.971-3.499-13.913-13.825c0.334-3.257,0.042-6.575,0.052-9.865    c0.049-15.874,0.665-16.533,16.981-16.555c32.048-0.044,64.098-0.164,96.144,0.076c9.782,0.073,18.524-1.832,18.791-12.964    c0.264-11.054-8.033-13.768-18.055-13.721c-40.788,0.188-81.578,0.001-122.366,0.122c-14.112,0.042-18.368,4.423-18.459,18.632    C1547.655,489.73,1547.753,510.294,1547.76,530.857z M1800.537,609.399c11.249,0,22.499,0.004,33.748-0.001    c28.909-0.014,43.67-12.969,47.087-41.318c3.681-30.542-14.447-50.887-45.351-50.894c-23.332-0.005-46.665,0.157-69.995-0.072    c-13.406-0.131-18.339-5.586-18.438-19.25c-0.108-15.08,4.392-20.608,18.059-20.76c23.745-0.264,47.497,0.038,71.244-0.125    c10.375-0.071,16.682,4.262,17.99,14.682c1.06,8.442,6.233,12.747,14.34,12.058c9.35-0.795,11.939-7.389,11.48-15.929    c-1.107-20.551-18.033-36.754-39.236-36.934c-23.745-0.201-47.631,1.445-71.207-0.566c-32.253-2.751-47.981,20.31-49.163,43.67    c-1.28,25.301,10.83,52.14,45.574,50.01c22.827-1.399,45.814-0.355,68.729-0.228c14.687,0.081,18.629,4.045,18.851,18.222    c0.254,16.215-3.763,21.042-18.711,21.193c-22.913,0.232-45.831-0.056-68.744,0.114c-10.563,0.078-17.769-3.455-19.251-14.773    c-1.109-8.469-6.439-12.31-14.751-11.384c-8.907,0.992-11.183,7.218-10.982,15.106c0.512,20.11,16.975,36.661,37.483,37.105    C1773.034,609.622,1786.788,609.381,1800.537,609.399z M1493.24,542.806c6.398-9.463,12.896-16.69,16.689-25.106    c15.028-33.346-7.164-66.856-43.704-66.878c-27.06-0.016-54.122,0.163-81.179-0.084c-10.526-0.096-17.154,3.864-17.199,14.729    c-0.178,43.191-0.149,86.383,0.034,129.574c0.036,8.533,4.344,14.249,13.698,14.147c9.484-0.104,13.027-6.11,13.121-14.607    c0.136-12.339,0.443-24.697-0.072-37.016c-0.418-9.987,3.364-14.315,13.743-13.972c14.554,0.481,29.178-0.488,43.686,0.457    c4.868,0.317,11.03,3.437,13.925,7.255c12.211,16.11,23.429,32.956,34.974,49.557c5.419,7.793,12.785,11.799,21.17,6.079    c8.762-5.977,6.234-13.885,0.782-21.507C1512.601,571.029,1502.653,556.373,1493.24,542.806z M302.249,499.838    c6.092,5.558,9.45,8.467,12.634,11.55c31.216,30.234,62.205,60.702,93.84,90.503c4.115,3.877,13.127,7.519,16.972,5.6    c4.721-2.356,8.878-10.629,8.985-16.422c0.753-40.722,0.343-81.464,0.441-122.2c0.023-9.569-1.89-18.186-13.569-18.018    c-11.636,0.168-13.355,9.043-13.321,18.433c0.057,16.047,0.013,32.095,0.013,48.142c-0.001,12.93,0,25.86,0,42.652    c-7.929-7.259-13.063-11.75-17.961-16.479c-29.477-28.46-58.671-57.214-88.595-85.208c-4.338-4.058-13.496-7.729-17.86-5.829    c-4.492,1.955-8.107,10.908-8.21,16.864c-0.699,40.312-0.365,80.642-0.362,120.967c0,1.646-0.038,3.296,0.068,4.936    c0.523,8.06,4.354,13.376,12.961,13.669c8.777,0.299,12.636-5.292,13.696-13.023c0.554-4.047,0.26-8.214,0.262-12.327    C302.257,556.999,302.249,530.35,302.249,499.838z M488.241,544.623c7.149,3.48,11.203,5.211,15.02,7.354    c17.717,9.947,35.37,20.006,53.044,30.029c14.788,8.386,29.431,17.039,44.425,25.05c7.1,3.793,14.952,4.445,19.674-3.7    c4.855-8.377,1.459-14.918-6.736-19.38c-2.911-1.585-5.767-3.267-8.661-4.882c-26.786-14.95-53.594-29.864-80.343-44.879    c-3.642-2.044-6.997-4.586-12.171-8.016c5.993-3.223,9.517-5.262,13.164-7.057c28.266-13.911,56.598-27.692,84.818-41.696    c11.005-5.462,14.369-14.112,8.537-21.49c-6.214-7.86-13.723-5.756-21.311-2.104c-29.513,14.207-59.015,28.436-88.599,42.497    c-5.796,2.755-11.938,4.799-19.586,7.831c-0.543-5.852-1.131-9.772-1.226-13.704c-0.227-9.452,1.074-19.179-0.861-28.25    c-0.96-4.497-7.595-10.673-11.851-10.822c-4.286-0.15-9.135,5.917-13.044,9.921c-1.335,1.367-0.732,4.739-0.734,7.195    c-0.034,41.126-0.035,82.253,0.006,123.379c0.002,2.453-0.537,5.896,0.819,7.173c4.07,3.831,8.86,9.197,13.552,9.379    c3.763,0.146,9.852-5.767,11.216-10.121c2.007-6.409,0.792-13.823,0.833-20.809C488.285,567.468,488.241,557.414,488.241,544.623z     M1008.258,524.344c0,19.329-0.286,38.664,0.09,57.987c0.301,15.502,10.089,26.465,25.26,26.705    c36.614,0.58,73.249,0.524,109.865,0.009c13.495-0.19,23.639-9.147,23.909-22.253c0.849-41.1,0.671-82.225,0.474-123.338    c-0.043-8.854-5.77-13.713-14.83-12.622c-9.498,1.143-11.293,8.245-11.28,16.357c0.055,33.312-0.276,66.629,0.169,99.935    c0.152,11.358-3.467,16.546-15.706,16.273c-25.376-0.567-50.779-0.445-76.162-0.046c-11.072,0.174-15.665-3.706-15.482-15.14    c0.525-32.893,0.031-65.8,0.277-98.7c0.073-9.774-1.917-18.119-13.504-17.898c-11.534,0.22-13.273,8.905-13.158,18.444    C1008.398,488.151,1008.244,506.248,1008.258,524.344z M1348.531,598.26c-1.247-4.849-1.446-7.414-2.523-9.547    c-21.875-43.356-43.627-86.776-65.949-129.907c-6.24-12.056-18.285-11.762-24.987,0.145    c-7.065,12.553-13.612,25.403-20.026,38.299c-15.028,30.216-29.876,60.518-44.715,90.825c-3.852,7.867-4.202,15.591,4.695,20.185    c9.673,4.995,15.576-0.455,19.932-8.658c3.669-6.909,8.019-13.507,11.18-20.627c3.155-7.109,7.971-9.424,15.611-9.233    c17.471,0.437,34.973,0.507,52.439-0.021c8.322-0.252,12.951,2.897,16.384,10.156c3.857,8.156,7.938,16.559,13.754,23.315    c2.955,3.432,10.312,5.382,14.975,4.474C1343.181,606.91,1346.033,601,1348.531,598.26z M35.251,523.443    c0,18.517-0.074,37.034,0.02,55.551c0.101,19.949,9.36,29.985,29.517,30.227c37.475,0.45,74.959,0.161,112.439,0.145    c9.074-0.004,17.384-1.992,17.537-12.931c0.167-11.877-8.538-13.283-18.152-13.247c-32.899,0.124-65.81-0.444-98.693,0.287    c-12.695,0.282-16.305-3.796-15.968-16.237c0.881-32.484,0.333-65.008,0.271-97.515c-0.018-9.627-1.328-19.143-14.044-18.979    c-11.979,0.155-13.071,9.004-12.98,18.383C35.376,487.231,35.251,505.338,35.251,523.443z M248.236,530.506    c0-20.521-0.051-41.042,0.023-61.563c0.034-9.286-1.046-18.167-13.176-18.072c-11.015,0.087-13.236,8.234-13.25,17.173    c-0.064,41.452-0.049,82.905-0.026,124.357c0.005,9.079,2.353,16.816,13.511,16.717c11.301-0.101,12.999-7.978,12.95-17.049    C248.157,571.548,248.233,551.027,248.236,530.506z" fill="#FFFFFF"/>
      <path d="M915.246,610.903c-0.896,9.284,1.566,20.273-13.537,20.185c-14.478-0.084-13.625-10.185-13.722-21.695    c-12.112,0-23.541,0.097-34.969-0.021c-21.893-0.225-31.04-9.061-31.19-30.83c-0.224-32.465-0.231-64.934,0.004-97.399    c0.155-21.37,9.79-30.578,31.446-30.633c32.442-0.083,64.884-0.104,97.325,0.008c21.358,0.074,31.051,9.759,31.123,31.094    c0.11,32.466,0.14,64.934-0.012,97.4c-0.096,20.612-9.834,30.14-30.488,30.378c-10.809,0.125-21.619,0.189-32.427,0.338    C918.021,609.739,917.248,610.223,915.246,610.903z M916.067,583.229c8.233,0,16.079-0.435,23.856,0.104    c11.098,0.769,15.837-3.199,15.515-14.793c-0.719-25.899-0.686-51.829-0.389-77.74c0.114-9.958-3.431-14.098-13.826-13.926    c-26.223,0.433-52.466,0.506-78.685-0.03c-11.16-0.228-14.628,4.436-14.412,14.734c0.415,19.739-0.16,39.497,0.175,59.238    c0.589,34.71-7.687,33.292,36.305,32.012c0.749-0.022,1.48-0.65,3.437-1.563c-0.582-8.945,0.516-17.671,13.61-17.832    C915.046,563.267,915.159,572.766,916.067,583.229z"/>
      <path d="M716.11,450.502c13.749,0.011,27.504-0.263,41.245,0.075c20.295,0.5,37.794,18.793,37.66,38.713    c-0.052,7.647-3.383,14.119-11.101,13.364c-5.264-0.515-13.611-5.492-14.348-9.572c-2.545-14.096-10.709-16.579-23.131-16.237    c-21.648,0.595-43.325,0.082-64.989,0.196c-16.231,0.085-19.708,4.204-19.602,22.553c0.073,12.745,5.216,17.453,20.01,17.545    c24.997,0.155,50.001,0.373,74.991-0.074c15.233-0.272,25.729,6.702,32.011,19.437c8.907,18.058,9.372,36.604-1.378,54.247    c-7.297,11.976-17.799,18.97-32.839,18.752c-26.659-0.388-53.329,0.097-79.99-0.184c-20.616-0.217-36.489-14.404-39.129-34.411    c-1.054-7.985,0.288-15.41,9.46-17.605c9.563-2.288,15.358,2.663,16.787,11.859c1.68,10.814,8.415,14.152,18.434,14.1    c22.914-0.121,45.831,0.152,68.743-0.112c15.543-0.179,19.384-4.591,19.293-20.635c-0.085-15.004-3.838-18.726-19.468-18.782    c-24.164-0.086-48.329,0.084-72.493-0.055c-26.171-0.151-41.077-17.248-41.023-46.742c0.05-27.216,16.689-46.186,40.862-46.418    C689.445,450.387,702.778,450.492,716.11,450.502z"/>
      <path d="M1547.756,530.857c-0.003-20.563-0.101-41.126,0.03-61.688c0.091-14.209,4.348-18.59,18.459-18.632    c40.788-0.121,81.578,0.066,122.366-0.122c10.022-0.046,18.319,2.667,18.055,13.721c-0.266,11.132-9.008,13.037-18.791,12.964    c-32.046-0.24-64.096-0.119-96.144-0.076c-16.316,0.022-16.932,0.681-16.981,16.555c-0.01,3.29,0.282,6.608-0.052,9.865    c-1.058,10.326,3.974,13.906,13.913,13.825c30.381-0.248,60.767,0.028,91.149-0.148c9.625-0.056,18.282,1.118,18.144,13.111    c-0.136,11.815-9.216,13.373-18.478,13.415c-30.383,0.138-60.771,0.353-91.148-0.103c-10.103-0.152-13.916,2.805-13.767,13.34    c0.37,26.34-0.115,26.344,26.16,26.349c29.967,0.006,59.936-0.169,89.901,0.113c13.107,0.123,20.631,9.592,14.434,18.552    c-2.803,4.053-10.048,7.103-15.326,7.175c-42.03,0.572-84.072,0.101-126.107,0.46c-11.581,0.099-15.728-5.579-15.781-15.753    C1547.682,572.805,1547.76,551.831,1547.756,530.857z"/>
      <path d="M1800.537,609.39c-13.749-0.009-27.503,0.232-41.246-0.065c-20.508-0.444-36.971-16.994-37.483-37.105    c-0.201-7.888,2.075-14.113,10.982-15.106c8.313-0.926,13.642,2.915,14.751,11.384c1.482,11.319,8.688,14.852,19.251,14.773    c22.914-0.17,45.832,0.118,68.744-0.114c14.948-0.151,18.965-4.979,18.711-21.193c-0.222-14.177-4.164-18.14-18.851-18.222    c-22.915-0.127-45.901-1.171-68.729,0.228c-34.744,2.129-46.854-24.71-45.574-50.01c1.182-23.361,16.91-46.421,49.163-43.67    c23.576,2.011,47.462,0.364,71.207,0.566c21.203,0.18,38.129,16.383,39.236,36.934c0.46,8.54-2.13,15.134-11.48,15.929    c-8.107,0.689-13.28-3.616-14.34-12.058c-1.309-10.42-7.615-14.753-17.99-14.682c-23.747,0.162-47.499-0.139-71.244,0.125    c-13.667,0.152-18.167,5.68-18.059,20.76c0.099,13.664,5.032,19.119,18.438,19.25c23.33,0.229,46.663,0.066,69.995,0.072    c30.904,0.007,49.032,20.352,45.351,50.894c-3.417,28.35-18.178,41.305-47.087,41.318    C1823.036,609.403,1811.787,609.399,1800.537,609.39z"/>
      <path d="M1493.24,542.806c9.412,13.566,19.361,28.222,29.666,42.628c5.452,7.622,7.98,15.53-0.782,21.507    c-8.385,5.72-15.751,1.714-21.17-6.079c-11.544-16.602-22.763-33.447-34.974-49.557c-2.895-3.819-9.057-6.938-13.925-7.255    c-14.508-0.945-29.131,0.024-43.686-0.457c-10.378-0.343-14.16,3.985-13.743,13.972c0.515,12.319,0.208,24.677,0.072,37.016    c-0.094,8.497-3.637,14.503-13.121,14.607c-9.354,0.103-13.661-5.614-13.698-14.147c-0.183-43.191-0.212-86.384-0.034-129.574    c0.045-10.865,6.673-14.825,17.199-14.729c27.058,0.247,54.119,0.069,81.179,0.084c36.54,0.021,58.732,33.531,43.704,66.878    C1506.136,526.117,1499.638,533.343,1493.24,542.806z M1437.613,477.511c-10.795,0-21.633-0.543-32.359,0.306    c-3.561,0.282-9.348,3.756-9.768,6.437c-1.321,8.415-1.258,17.229-0.222,25.708c0.326,2.672,5.361,6.754,8.323,6.824    c21.986,0.524,44.022,0.837,65.982-0.123c11.332-0.495,18.923-10.847,18.076-21.273c-0.822-10.117-8.872-17.483-20.14-17.823    C1457.549,477.267,1447.577,477.504,1437.613,477.511z"/>
      <path d="M302.249,499.838c0,30.512,0.008,57.161-0.008,83.811c-0.002,4.113,0.292,8.28-0.262,12.327    c-1.059,7.731-4.919,13.322-13.696,13.023c-8.606-0.293-12.438-5.61-12.961-13.669c-0.106-1.64-0.068-3.291-0.068-4.936    c-0.003-40.324-0.337-80.654,0.362-120.967c0.103-5.957,3.718-14.909,8.21-16.864c4.364-1.9,13.522,1.771,17.86,5.829    c29.923,27.993,59.118,56.747,88.595,85.208c4.898,4.729,10.032,9.22,17.961,16.479c0-16.792,0-29.722,0-42.652    c0.001-16.047,0.044-32.095-0.013-48.142c-0.033-9.391,1.686-18.266,13.321-18.433c11.68-0.168,13.592,8.449,13.569,18.018    c-0.098,40.736,0.311,81.478-0.441,122.2c-0.107,5.793-4.264,14.066-8.985,16.422c-3.845,1.919-12.857-1.723-16.972-5.6    c-31.634-29.8-62.624-60.268-93.84-90.503C311.699,508.305,308.341,505.396,302.249,499.838z"/>
      <path d="M488.241,544.623c0,12.791,0.044,22.845-0.015,32.898c-0.041,6.986,1.174,14.4-0.833,20.809    c-1.363,4.354-7.453,10.267-11.216,10.121c-4.691-0.182-9.482-5.548-13.552-9.379c-1.357-1.277-0.817-4.72-0.819-7.173    c-0.041-41.126-0.04-82.253-0.006-123.379c0.002-2.456-0.601-5.828,0.734-7.195c3.909-4.004,8.758-10.072,13.044-9.921    c4.257,0.149,10.892,6.324,11.851,10.822c1.935,9.071,0.634,18.798,0.861,28.25c0.094,3.932,0.683,7.852,1.226,13.704    c7.648-3.032,13.79-5.076,19.586-7.831c29.584-14.061,59.086-28.29,88.599-42.497c7.588-3.653,15.098-5.757,21.311,2.104    c5.832,7.377,2.468,16.028-8.537,21.49c-28.219,14.004-56.551,27.785-84.818,41.696c-3.647,1.795-7.171,3.834-13.164,7.057    c5.174,3.429,8.529,5.971,12.171,8.016c26.749,15.015,53.557,29.929,80.343,44.879c2.894,1.615,5.75,3.297,8.661,4.882    c8.196,4.463,11.591,11.004,6.736,19.38c-4.721,8.146-12.574,7.494-19.674,3.7c-14.994-8.011-29.636-16.664-44.425-25.05    c-17.674-10.022-35.326-20.082-53.044-30.029C499.444,549.834,495.389,548.103,488.241,544.623z"/>
      <path d="M1008.251,524.344c-0.007-18.096,0.147-36.193-0.07-54.286c-0.114-9.539,1.624-18.224,13.158-18.444    c11.587-0.221,13.577,8.124,13.504,17.898c-0.247,32.899,0.248,65.807-0.277,98.7c-0.182,11.434,4.41,15.314,15.482,15.14    c25.383-0.4,50.786-0.521,76.162,0.046c12.239,0.273,15.858-4.914,15.706-16.273c-0.445-33.307-0.114-66.623-0.169-99.935    c-0.013-8.112,1.782-15.214,11.28-16.357c9.06-1.09,14.787,3.768,14.83,12.622c0.197,41.113,0.375,82.238-0.474,123.338    c-0.271,13.106-10.414,22.063-23.909,22.253c-36.616,0.516-73.251,0.571-109.865-0.009c-15.171-0.24-24.959-11.203-25.26-26.705    C1007.973,563.008,1008.258,543.673,1008.251,524.344z"/>
      <path d="M1348.531,598.26c-2.498,2.74-5.349,8.65-9.229,9.406c-4.663,0.909-12.021-1.042-14.975-4.474    c-5.816-6.756-9.897-15.159-13.754-23.315c-3.432-7.259-8.062-10.408-16.384-10.156c-17.466,0.528-34.967,0.459-52.439,0.021    c-7.641-0.191-12.456,2.124-15.611,9.233c-3.161,7.12-7.51,13.718-11.18,20.627c-4.356,8.202-10.259,13.652-19.932,8.658    c-8.897-4.594-8.547-12.318-4.695-20.185c14.839-30.307,29.687-60.61,44.715-90.825c6.413-12.895,12.96-25.746,20.026-38.299    c6.701-11.906,18.747-12.2,24.987-0.145c22.323,43.131,44.075,86.551,65.949,129.907    C1347.084,590.846,1347.284,593.411,1348.531,598.26z M1292.249,541.91c-8.126-18.036-15.428-34.244-24.104-53.499    c-9.032,19.208-16.72,35.556-25.157,53.499C1260.185,541.91,1274.889,541.91,1292.249,541.91z"/>
      <path d="M35.251,523.443c0-18.106,0.124-36.212-0.051-54.316c-0.091-9.379,1-18.229,12.98-18.383    c12.716-0.164,14.026,9.352,14.044,18.979c0.062,32.508,0.61,65.031-0.271,97.515c-0.337,12.441,3.273,16.519,15.968,16.237    c32.883-0.731,65.794-0.163,98.693-0.287c9.615-0.036,18.319,1.37,18.152,13.247c-0.153,10.938-8.463,12.927-17.537,12.931    c-37.48,0.016-74.964,0.305-112.439-0.145c-20.157-0.242-29.416-10.278-29.517-30.227    C35.178,560.478,35.251,541.96,35.251,523.443z"/>
      <path d="M248.234,530.506c-0.001,20.521-0.078,41.042,0.034,61.563c0.049,9.072-1.648,16.949-12.95,17.049    c-11.158,0.099-13.506-7.637-13.511-16.717c-0.023-41.452-0.039-82.905,0.026-124.357c0.014-8.94,2.235-17.087,13.25-17.173    c12.13-0.095,13.21,8.785,13.176,18.072C248.184,489.463,248.236,509.985,248.234,530.506z"/>
      <path d="M916.067,583.229c-0.908-10.463-1.021-19.962-14.413-19.797    c-13.095,0.161-14.192,8.888-13.61,17.832c-1.957,0.913-2.688,1.541-3.437,1.563c-43.992,1.28-35.716,2.698-36.305-32.012    c-0.335-19.742,0.241-39.5-0.175-59.238c-0.217-10.298,3.252-14.962,14.412-14.734c26.219,0.536,52.462,0.463,78.685,0.03    c10.395-0.172,13.94,3.968,13.826,13.926c-0.298,25.911-0.33,51.841,0.389,77.74c0.322,11.594-4.417,15.563-15.515,14.793    C932.146,582.794,924.3,583.229,916.067,583.229z" fill="#FFFFFF"/>
      <path d="M1437.613,477.508c9.964-0.003,19.936-0.241,29.891,0.06c11.268,0.34,19.318,7.706,20.14,17.823    c0.847,10.426-6.744,20.778-18.076,21.273c-21.96,0.959-43.995,0.646-65.982,0.123c-2.962-0.071-7.996-4.153-8.323-6.824    c-1.036-8.479-1.099-17.293,0.222-25.708c0.421-2.681,6.208-6.155,9.768-6.437C1415.98,476.968,1426.818,477.511,1437.613,477.508    z" fill="#FFFFFF"/>
      <path d="M1292.249,541.91c-17.359,0-32.064,0-49.26,0c8.437-17.942,16.125-34.291,25.157-53.499    C1276.82,507.666,1284.122,523.873,1292.249,541.91z" fill="#FFFFFF"/>
    </g>
  </g>
</svg>