<?xml version="1.0" encoding="UTF-8"?>
<svg version="1.2" xmlns="http://www.w3.org/2000/svg" width="1429" height="1429" baseProfile="tiny-ps" xml:space="preserve">
<title>Mystery Shoppers Ltd</title>
<path d="M0 0 C471.57 0 943.14 0 1429 0 C1429 471.57 1429 943.14 1429 1429 C957.43 1429 485.86 1429 0 1429 C0 957.43 0 485.86 0 0 Z " fill="#FEFEFE" transform="translate(0,0)"/>
<path d="M0 0 C471.57 0 943.14 0 1429 0 C1429 471.57 1429 943.14 1429 1429 C957.43 1429 485.86 1429 0 1429 C0 957.43 0 485.86 0 0 Z M532.375 161.8125 C531.52242615 162.09085693 530.66985229 162.36921387 529.79144287 162.65600586 C521.08332833 165.51347795 512.45444868 168.45016236 504 172 C502.27638348 172.69615939 500.55240789 173.39143026 498.828125 174.0859375 C459.89325196 189.9855111 422.6360625 209.02540764 388 233 C387.31744141 233.47147461 386.63488281 233.94294922 385.93164062 234.42871094 C368.17415065 246.73405904 351.25444959 260.05215568 334.8125 274.0625 C334.31564697 274.4838623 333.81879395 274.90522461 333.30688477 275.33935547 C322.11188026 284.95742349 311.57388303 295.26302689 301.15917969 305.71044922 C299.10986489 307.76517508 297.05518737 309.81443103 295 311.86328125 C293.66894975 313.19499165 292.33820939 314.52701188 291.0078125 315.859375 C290.10604782 316.75810333 290.10604782 316.75810333 289.18606567 317.67498779 C284.92879442 321.95547015 280.93515072 326.42317795 277 331 C276.02663512 332.11770459 275.05277902 333.23498188 274.078125 334.3515625 C267.12782886 342.37542251 260.45478169 350.57292391 254 359 C253.5153125 359.63164062 253.030625 360.26328125 252.53125 360.9140625 C245.02726706 370.72395686 237.86066911 380.730087 231 391 C230.55833496 391.6604834 230.11666992 392.3209668 229.66162109 393.00146484 C189.28877488 453.68602412 160.35311241 521.63990243 145.61132812 593.06054688 C145.06955938 595.66553716 144.50204486 598.26273462 143.921875 600.859375 C130.68636214 661.41894138 129.73298654 724.65409149 137 786 C137.08958984 786.77073853 137.17917969 787.54147705 137.27148438 788.33557129 C141.74826936 826.62659103 151.03739573 864.24928654 163.125 900.8125 C163.53290771 902.04693848 163.94081543 903.28137695 164.36108398 904.55322266 C166.59899058 911.19961999 169.03338713 917.70108423 171.78515625 924.15161133 C172.95269946 926.88909658 174.07461451 929.64069413 175.18359375 932.40234375 C197.91991226 988.48324308 228.91311482 1040.76783035 268 1087 C268.78503906 1087.93368408 268.78503906 1087.93368408 269.5859375 1088.88623047 C281.02313952 1102.47516497 293.13540034 1115.30515366 305.71044922 1127.84082031 C307.76517508 1129.89013511 309.81443103 1131.94481263 311.86328125 1134 C313.19499165 1135.33105025 314.52701188 1136.66179061 315.859375 1137.9921875 C316.45852722 1138.59336395 317.05767944 1139.19454041 317.67498779 1139.81393433 C321.95547015 1144.07120558 326.42317795 1148.06484928 331 1152 C332.11770459 1152.97336488 333.23498188 1153.94722098 334.3515625 1154.921875 C342.37571225 1161.87242211 350.57566047 1168.54126447 359 1175 C359.61568848 1175.47405273 360.23137695 1175.94810547 360.86572266 1176.43652344 C386.15564913 1195.85638491 413.01868602 1212.75087378 441 1228 C442.23000732 1228.6798999 442.23000732 1228.6798999 443.48486328 1229.37353516 C489.69785785 1254.90790681 541.17019355 1272.68915957 592.80175781 1283.33691406 C595.92183301 1283.98379378 599.0350973 1284.6574784 602.1484375 1285.3359375 C670.88090657 1300.04779355 743.90035693 1300.0673225 813 1288 C813.87736816 1287.85095215 814.75473633 1287.7019043 815.65869141 1287.54833984 C838.75045374 1283.58388245 861.65256328 1278.16191573 883.95263672 1270.97851562 C887.37098121 1269.88087705 890.79652061 1268.80743762 894.22265625 1267.734375 C896.71122721 1266.94883389 899.19951263 1266.16238755 901.6875 1265.375 C902.8336377 1265.01486816 903.97977539 1264.65473633 905.16064453 1264.28369141 C912.62432048 1261.89440158 919.7994474 1259.08377712 927 1256 C928.82252436 1255.25625103 930.64672864 1254.51660427 932.47265625 1253.78125 C946.99349146 1247.87707479 961.11978299 1241.3120313 975.17919922 1234.38476562 C977.436601 1233.27657946 979.69963733 1232.18493987 981.97265625 1231.109375 C1019.64419779 1212.98309256 1055.1469707 1187.9300729 1087 1161 C1087.62245605 1160.47664063 1088.24491211 1159.95328125 1088.88623047 1159.4140625 C1102.47516497 1147.97686048 1115.30515366 1135.86459966 1127.84082031 1123.28955078 C1129.89013511 1121.23482492 1131.94481263 1119.18556897 1134 1117.13671875 C1135.33105025 1115.80500835 1136.66179061 1114.47298812 1137.9921875 1113.140625 C1138.59336395 1112.54147278 1139.19454041 1111.94232056 1139.81393433 1111.32501221 C1144.07120558 1107.04452985 1148.06484928 1102.57682205 1152 1098 C1152.9733616 1096.88229255 1153.9472171 1095.76501473 1154.921875 1094.6484375 C1170.44247997 1076.73234327 1184.89835829 1057.75674481 1198 1038 C1198.83821289 1036.73736328 1198.83821289 1036.73736328 1199.69335938 1035.44921875 C1213.12237359 1015.10391431 1225.43655781 994.09789171 1235.98388672 972.1015625 C1237.14829814 969.69328438 1238.34203808 967.30043163 1239.53515625 964.90625 C1248.64925414 946.44124014 1256.03642215 927.3669473 1263 908 C1263.31267822 907.13890625 1263.62535645 906.2778125 1263.94750977 905.390625 C1278.94296401 863.94920466 1288.05500597 820.75163847 1293 777 C1293.0762561 776.33284973 1293.15251221 775.66569946 1293.2310791 774.97833252 C1300.14192282 713.89356397 1296.79790251 649.96381691 1283 590 C1282.85731689 589.3719043 1282.71463379 588.74380859 1282.56762695 588.09667969 C1278.28173858 569.24702615 1273.19045034 550.75235273 1267.1875 532.375 C1266.90914307 531.52251678 1266.63078613 530.67003357 1266.34399414 529.79171753 C1263.48654906 521.08357977 1260.55400434 512.45249759 1257 504 C1256.56067139 502.92524414 1256.12134277 501.85048828 1255.66870117 500.74316406 C1245.34717523 475.50331589 1234.13611701 451.04908195 1220.41308594 427.44287109 C1219.18621686 425.32192224 1217.98015289 423.19194796 1216.7890625 421.05078125 C1201.08747446 392.94814306 1181.75433031 366.54832908 1161 342 C1160.47664063 341.37754395 1159.95328125 340.75508789 1159.4140625 340.11376953 C1147.97686048 326.52483503 1135.86459966 313.69484634 1123.28955078 301.15917969 C1121.23482492 299.10986489 1119.18556897 297.05518737 1117.13671875 295 C1115.80500835 293.66894975 1114.47298812 292.33820939 1113.140625 291.0078125 C1112.24189667 290.10604782 1112.24189667 290.10604782 1111.32501221 289.18606567 C1107.04452985 284.92879442 1102.57682205 280.93515072 1098 277 C1096.88229541 276.02663512 1095.76501812 275.05277902 1094.6484375 274.078125 C1086.62428775 267.12757789 1078.42433953 260.45873553 1070 254 C1069.38431152 253.52594727 1068.76862305 253.05189453 1068.13427734 252.56347656 C1057.36837047 244.29645292 1046.30815962 236.50676748 1035 229 C1034.15727539 228.44054687 1033.31455078 227.88109375 1032.44628906 227.3046875 C1003.1478782 207.98559987 971.75242041 191.25745779 939.27001953 177.94091797 C937.19723373 177.08175294 935.1421298 176.19195581 933.08984375 175.28515625 C918.75698662 169.03298607 903.76582268 164.41550652 888.90020752 159.61450195 C887.17847332 159.05771591 885.45805475 158.49686564 883.73779297 157.93554688 C860.67320133 150.44599453 836.89942971 145.06005004 813 141 C811.62013916 140.75902588 811.62013916 140.75902588 810.21240234 140.51318359 C721.98094096 125.3578548 628.59650871 131.42021291 532.375 161.8125 Z " fill="#F2E800" transform="translate(0,0)"/>
<path d="M0 0 C471.57 0 943.14 0 1429 0 C1429 471.57 1429 943.14 1429 1429 C957.43 1429 485.86 1429 0 1429 C0 957.43 0 485.86 0 0 Z M634.3125 4.6875 C633.61640625 4.76859009 632.9203125 4.84968018 632.203125 4.93322754 C605.9040365 8.02680937 579.69083698 12.20845437 553.875 18.125 C553.18349854 18.28295044 552.49199707 18.44090088 551.77954102 18.6036377 C543.52856958 20.50667632 535.39767979 22.70448864 527.28961182 25.13961792 C522.7279394 26.50720692 518.15126828 27.7632936 513.5390625 28.953125 C505.02864632 31.1959017 496.7118439 33.94206562 488.375 36.75 C487.58663757 37.0142276 486.79827515 37.2784552 485.98602295 37.5506897 C473.53367386 41.72807426 461.18955359 46.10189242 449 51 C448.09121094 51.3619043 447.18242187 51.72380859 446.24609375 52.09667969 C443.3693147 53.24445582 440.49633837 54.40118451 437.625 55.5625 C436.78146973 55.90240967 435.93793945 56.24231934 435.06884766 56.5925293 C421.58753017 62.11541993 408.52699003 68.61778715 395.5 75.125 C394.39531372 75.67658783 394.39531372 75.67658783 393.26831055 76.23931885 C380.26836061 82.74525581 367.51002618 89.5882971 355 97 C354.21318848 97.46567383 353.42637695 97.93134766 352.61572266 98.41113281 C329.25741803 112.31476826 306.56678769 127.44733942 285 144 C283.9246747 144.81796545 282.84914576 145.63566324 281.7734375 146.453125 C266.64281983 157.98364558 252.07254097 170.20256571 238 183 C236.45836884 184.3750398 234.91670111 185.75003861 233.375 187.125 C223.52095804 196.00599393 213.83906636 205.07815624 204.4375 214.4375 C203.89061523 214.97979248 203.34373047 215.52208496 202.78027344 216.08081055 C199.29332816 219.58108513 196.02510967 223.22752717 192.79223633 226.96264648 C189.82801517 230.33227264 186.71819822 233.56175552 183.625 236.8125 C178.58104831 242.15362718 173.73567304 247.56649635 169.15625 253.31640625 C167.19209006 255.7609314 165.17267044 258.14748687 163.12646484 260.5234375 C151.24060391 274.35303092 140.55232427 289.14184226 130 304 C129.37399902 304.88099365 129.37399902 304.88099365 128.73535156 305.77978516 C119.27386612 319.14720654 110.45102979 332.97523655 102 347 C101.63616211 347.60150879 101.27232422 348.20301758 100.89746094 348.82275391 C69.16583865 401.43609043 43.11688352 458.87182629 27.67675781 518.47607422 C27.02476638 520.90763533 26.31954691 523.31459089 25.5859375 525.72265625 C14.92058678 560.83362241 9.00993358 597.54961628 4.75 633.9375 C4.59885742 635.21254395 4.44771484 636.48758789 4.29199219 637.80126953 C1.59608857 662.1891561 0.59016369 686.6075355 0.62223816 711.13097382 C0.62505518 713.29233636 0.62482896 715.45368713 0.62463379 717.61505127 C0.64265108 744.54409135 2.0508817 771.22160415 5 798 C5.11955048 799.10208801 5.11955048 799.10208801 5.24151611 800.22644043 C9.35910147 837.85748454 17.10389322 875.54689296 28.0534668 911.75708008 C28.76273401 914.18710236 29.44196102 916.61664398 30.09692383 919.0612793 C33.08297543 930.17877468 36.63005565 940.99561231 40.5625 951.8125 C40.86646698 952.6535025 41.17043396 953.494505 41.48361206 954.36099243 C50.70038647 979.82354243 61.28007079 1004.58317242 73 1029 C73.70938721 1030.47871582 73.70938721 1030.47871582 74.43310547 1031.98730469 C95.25370435 1075.10671322 121.71981596 1115.20309128 151 1153 C151.52223145 1153.67820801 152.04446289 1154.35641602 152.58251953 1155.05517578 C162.17905212 1167.51615238 172.42868367 1179.35792419 183 1191 C183.66902344 1191.75023437 184.33804688 1192.50046875 185.02734375 1193.2734375 C194.55623249 1203.95572991 204.33799463 1214.41743295 214.4375 1224.5625 C215.25093872 1225.38282715 215.25093872 1225.38282715 216.08081055 1226.21972656 C219.58108513 1229.70667184 223.22752717 1232.97489033 226.96264648 1236.20776367 C230.33227264 1239.17198483 233.56175552 1242.28180178 236.8125 1245.375 C242.15362718 1250.41895169 247.56649635 1255.26432696 253.31640625 1259.84375 C255.7609314 1261.80790994 258.14748687 1263.82732956 260.5234375 1265.87353516 C274.35303092 1277.75939609 289.14184226 1288.44767573 304 1299 C304.5873291 1299.41733398 305.1746582 1299.83466797 305.77978516 1300.26464844 C319.14720654 1309.72613388 332.97523655 1318.54897021 347 1327 C347.60150879 1327.36383789 348.20301758 1327.72767578 348.82275391 1328.10253906 C401.25272225 1359.72357019 458.32077979 1385.33910533 517.52685547 1401.32324219 C519.98515641 1401.99593816 522.43210938 1402.70075901 524.87890625 1403.4140625 C552.40742262 1411.33760584 580.69912168 1416.72037576 609 1421 C609.95229492 1421.14775879 610.90458984 1421.29551758 611.88574219 1421.44775391 C623.8173122 1423.28387797 635.7942372 1424.52390134 647.8125 1425.625 C648.49293365 1425.68762024 649.17336731 1425.75024048 649.87442017 1425.8147583 C654.5804769 1426.24345532 659.28887861 1426.63151863 664 1427 C665.21018799 1427.09861328 666.42037598 1427.19722656 667.66723633 1427.29882812 C682.77196787 1428.36655818 697.92749015 1428.24587812 713.0625 1428.25 C714.17797966 1428.25066278 714.17797966 1428.25066278 715.31599426 1428.25133896 C763.71012848 1428.26639184 812.68494948 1424.75461506 860 1414 C861.3464597 1413.7026155 862.69315017 1413.40627439 864.04003906 1413.11083984 C880.48083207 1409.4970512 896.79064668 1405.77845317 912.84082031 1400.66601562 C916.51278024 1399.53337127 920.22676896 1398.55892253 923.9375 1397.5625 C930.75823223 1395.70666892 937.47977595 1393.60427154 944.1875 1391.375 C945.06075928 1391.08568604 945.93401855 1390.79637207 946.83374023 1390.49829102 C951.66877105 1388.86882618 956.32502552 1387.03978839 961 1385 C963.26656148 1384.15511687 965.53776278 1383.32261721 967.8125 1382.5 C1035.79405322 1357.33916128 1100.56631483 1320.50299662 1157 1275 C1157.94101563 1274.24203125 1158.88203125 1273.4840625 1159.8515625 1272.703125 C1170.47460754 1264.06998753 1180.87268681 1255.20968185 1191 1246 C1192.54163116 1244.6249602 1194.08329889 1243.24996139 1195.625 1241.875 C1205.47904196 1232.99400607 1215.16093364 1223.92184376 1224.5625 1214.5625 C1225.10938477 1214.02020752 1225.65626953 1213.47791504 1226.21972656 1212.91918945 C1229.70667184 1209.41891487 1232.97489033 1205.77247283 1236.20776367 1202.03735352 C1239.17198483 1198.66772736 1242.28180178 1195.43824448 1245.375 1192.1875 C1250.41442197 1186.85116941 1255.25576075 1181.44316802 1259.83203125 1175.69921875 C1261.85332197 1173.18262076 1263.92571312 1170.72426695 1266.02563477 1168.27368164 C1271.93641937 1161.37146334 1277.55532789 1154.27517611 1283 1147 C1283.5352832 1146.28537598 1284.07056641 1145.57075195 1284.62207031 1144.83447266 C1323.98127401 1092.15181181 1355.08516991 1035.3176563 1380.1875 974.625 C1380.53772217 973.78308105 1380.88794434 972.94116211 1381.2487793 972.07373047 C1383.21670244 967.2432402 1384.82740068 962.39710139 1386.27758789 957.38793945 C1387.14748848 954.51247556 1388.188471 951.72844446 1389.26757812 948.92626953 C1399.84245833 921.11433461 1407.34056994 891.9390817 1413.39404297 862.85180664 C1413.80887253 860.89950042 1414.24105816 858.95082387 1414.68798828 857.00561523 C1417.21591104 845.82403234 1418.85743672 834.52721035 1420.5 823.1875 C1420.65374084 822.1335202 1420.80748169 821.07954041 1420.96588135 819.99362183 C1423.62062236 801.70027249 1425.71643852 783.4419609 1427 765 C1427.0935376 763.83476807 1427.1870752 762.66953613 1427.28344727 761.46899414 C1428.27971387 747.5787216 1428.18729427 733.65844423 1428.18530273 719.73999023 C1428.18522212 716.8115411 1428.19207331 713.88325058 1428.20581055 710.95483398 C1428.49764142 647.70827639 1420.62606368 583.42276814 1402.77197266 522.63232422 C1402.20392887 520.69537037 1401.64199701 518.75662149 1401.08349609 516.81689453 C1388.3937476 472.80489309 1371.63245236 430.88976922 1351 390 C1350.12867432 388.27160889 1350.12867432 388.27160889 1349.23974609 386.50830078 C1326.13456815 340.93994714 1297.20396135 297.51280645 1263.97314453 258.67407227 C1261.18539904 255.41576483 1258.48120598 252.1074043 1255.8125 248.75 C1249.90884404 241.49210038 1243.37196184 234.81571629 1236.92773438 228.04101562 C1234.71370445 225.6968806 1232.53512515 223.32281916 1230.36352539 220.93945312 C1221.46677645 211.17907524 1212.31351698 201.44693589 1202.20703125 192.92578125 C1199.6299865 190.67713867 1197.15092507 188.33724685 1194.66381836 185.98999023 C1188.86298664 180.51592556 1183.012879 175.22691521 1176.7734375 170.25 C1174.7816112 168.63409585 1172.8395771 167.00342809 1170.9140625 165.3125 C1161.82890363 157.33568197 1152.3019207 150.06856346 1142.57128906 142.89794922 C1140.04861002 141.03588058 1137.53503041 139.16214209 1135.0234375 137.28515625 C1125.53867524 130.21512975 1115.94549557 123.40574135 1106 117 C1104.95803467 116.32469238 1104.95803467 116.32469238 1103.89501953 115.63574219 C1059.06144862 86.64740629 1011.35438831 62.31376062 961.13378906 44.13720703 C957.76901014 42.9161771 954.41204283 41.67487928 951.0546875 40.43359375 C937.68057158 35.52832229 924.33318922 31.22386118 910.54003906 27.67675781 C908.10089853 27.026883 905.68792608 26.32165703 903.2734375 25.5859375 C878.45156261 18.0463342 852.61853937 12.96387461 827 9 C826.0207959 8.84080078 825.0415918 8.68160156 824.03271484 8.51757812 C788.07927445 2.72354509 751.79655096 0.62154718 715.41834259 0.62483215 C713.29311013 0.62499666 711.16789391 0.62228645 709.04266357 0.61950684 C684.0559499 0.60801938 659.13957736 1.76629136 634.3125 4.6875 Z " fill="#FEFEFE" transform="translate(0,0)"/>
<path d="M0 0 C1.56572754 0.00465271 1.56572754 0.00465271 3.16308594 0.00939941 C31.20654974 0.10662416 58.74364316 2.31961359 86.5 6.25 C87.9223999 6.44529297 87.9223999 6.44529297 89.37353516 6.64453125 C91.65017488 6.96554495 93.91867794 7.31574582 96.1875 7.6875 C97.89486328 7.96400391 97.89486328 7.96400391 99.63671875 8.24609375 C105.16248578 10.18350456 108.14155846 14.90423366 111.06640625 19.7578125 C111.7104541 20.81701904 112.35450195 21.87622559 113.01806641 22.9675293 C113.69272949 24.09199463 114.36739258 25.21645996 115.0625 26.375 C116.1367493 28.14721293 117.21360577 29.91782345 118.29064941 31.68833923 C119.01043163 32.87183043 119.72942722 34.0558004 120.44763184 35.24024963 C123.44505524 40.17942222 126.51902278 45.06614833 129.625 49.9375 C134.61484021 57.78582884 139.45360061 65.72079671 144.27197266 73.67529297 C148.60384236 80.81331974 153.03094984 87.88557209 157.50585938 94.93457031 C161.5905109 101.37360828 165.58574479 107.85096992 169.328125 114.49609375 C171.67157846 118.60260246 174.20612692 122.57811529 176.75 126.5625 C181.67239254 134.31286285 186.51047739 142.11204628 191.3125 149.9375 C198.9740343 162.41772413 206.72313148 174.84141041 214.5 187.25 C222.89469888 200.64438526 231.24407501 214.06424558 239.51708984 227.53417969 C246.44905914 238.81188926 253.47006063 250.03319311 260.5 261.25 C268.96083415 274.74990915 277.37435456 288.2762756 285.70825195 301.85498047 C290.28268732 309.29864496 294.91485246 316.7029082 299.60375977 324.07495117 C302.64754538 328.86762287 305.59851242 333.70133388 308.4140625 338.6328125 C309.41737315 340.41420276 309.41737315 340.41420276 311.5 341.25 C311.72429687 340.59386719 311.94859375 339.93773437 312.1796875 339.26171875 C313.93671485 335.253825 316.25314974 331.73174616 318.625 328.0625 C323.66732255 320.17531151 328.60825703 312.23141851 333.5 304.25 C339.67675396 294.18461359 345.92288453 284.16764362 352.26171875 274.20361328 C353.41169133 272.38932294 354.5518446 270.56936949 355.6875 268.74609375 C356.30625 267.75738281 356.925 266.76867187 357.5625 265.75 C358.32240234 264.52796875 358.32240234 264.52796875 359.09765625 263.28125 C360.5 261.25 360.5 261.25 362.12109375 259.71875 C363.63673965 258.34698299 363.63673965 258.34698299 363.94238281 256.41430664 C364.56374366 254.00258862 365.5128643 252.28096716 366.80078125 250.15234375 C367.27676758 249.36134277 367.75275391 248.5703418 368.24316406 247.75537109 C368.76104492 246.90797363 369.27892578 246.06057617 369.8125 245.1875 C370.35229492 244.29627441 370.89208984 243.40504883 371.44824219 242.48681641 C375.45653427 235.89444526 379.55093783 229.35851973 383.69848633 222.85302734 C386.74066409 218.07182763 389.72653054 213.25936524 392.671875 208.41796875 C393.0302948 207.83009583 393.3887146 207.2422229 393.75799561 206.63653564 C395.90817354 203.10996425 395.90817354 203.10996425 398.04675293 199.57635498 C399.03662592 197.93462162 400.03381664 196.29730733 401.03125 194.66015625 C401.60423828 193.71277588 402.17722656 192.76539551 402.76757812 191.78930664 C404.47177871 189.29136551 406.29262969 187.30717 408.5 185.25 C415.9282029 193.06208935 422.40332242 201.47560206 428.86669922 210.0859375 C430.38719221 212.10053389 431.92571454 214.0994313 433.47265625 216.09375 C446.40596608 232.86986435 457.54045462 250.91655191 468.26757812 269.15966797 C469.33991191 270.97847183 470.4265341 272.78883668 471.515625 274.59765625 C484.55173434 296.41258697 495.51111354 320.48528088 504.5 344.25 C505.03246338 345.64919678 505.03246338 345.64919678 505.57568359 347.07666016 C506.73944307 350.16837296 507.87413873 353.26930205 509 356.375 C509.36327393 357.34800049 509.72654785 358.32100098 510.10083008 359.32348633 C510.42849365 360.25056396 510.75615723 361.1776416 511.09375 362.1328125 C511.38958984 362.95152832 511.68542969 363.77024414 511.99023438 364.61376953 C512.90882341 369.36421224 512.14058826 373.04478447 509.88378906 377.29077148 C508.83529785 378.81553101 508.83529785 378.81553101 507.765625 380.37109375 C507.38044708 380.9397113 506.99526917 381.50832886 506.59841919 382.09417725 C505.32686016 383.96656898 504.03832554 385.82661491 502.75 387.6875 C501.3811139 389.69591092 500.01688539 391.70743912 498.65255737 393.71894836 C497.70528542 395.11458341 496.75647044 396.50917228 495.80618286 397.90275574 C491.1803551 404.6906371 486.67417138 411.55413647 482.18423462 418.43237305 C472.98037896 432.52831795 463.66853212 446.55036468 454.30957031 460.54370117 C451.70226031 464.4430578 449.10113291 468.34652147 446.5 472.25 C445.08597689 474.37112002 443.67191477 476.49221401 442.2578125 478.61328125 C441.49348722 479.75976405 440.72916433 480.90624845 439.96484375 482.05273438 C435.30859375 489.03710937 435.30859375 489.03710937 434.15615845 490.76565552 C433.39103266 491.91341537 432.62603819 493.06126278 431.86117554 494.209198 C430.04022151 496.94182642 428.21681153 499.67271922 426.38916016 502.40087891 C423.19598094 507.17182818 420.03148383 511.95588124 416.9453125 516.796875 C416.39359375 517.66054688 415.841875 518.52421875 415.2734375 519.4140625 C414.14645616 521.1819811 413.02427586 522.95296692 411.90625 524.7265625 C411.36226562 525.57476563 410.81828125 526.42296875 410.2578125 527.296875 C409.7745752 528.05838867 409.29133789 528.81990234 408.79345703 529.60449219 C408.36661621 530.14750977 407.93977539 530.69052734 407.5 531.25 C406.84 531.25 406.18 531.25 405.5 531.25 C405.37866699 531.8375708 405.25733398 532.4251416 405.13232422 533.03051758 C404.48739831 535.29423241 403.67559899 536.80687214 402.3828125 538.76171875 C401.94646484 539.42816406 401.51011719 540.09460938 401.06054688 540.78125 C400.58681641 541.4928125 400.11308594 542.204375 399.625 542.9375 C398.61703951 544.47255909 397.60923119 546.0077181 396.6015625 547.54296875 C396.0849707 548.32591309 395.56837891 549.10885742 395.03613281 549.91552734 C393.15285069 552.77756544 391.29057064 555.6527567 389.43261719 558.53128052 C388.08831014 560.61323252 386.74224149 562.69403118 385.39550781 564.77441406 C383.59795325 567.55192677 381.80229831 570.33064271 380.00927734 573.11108398 C373.50681609 583.18812639 366.93377599 593.21725151 360.32983398 603.22802734 C357.3770794 607.70430688 354.42698807 612.18234141 351.4765625 616.66015625 C350.88591003 617.55646759 350.29525757 618.45277893 349.68670654 619.37625122 C345.0088373 626.47558767 340.33522294 633.57770015 335.66992188 640.68530273 C333.91728464 643.35535837 332.16056671 646.02265296 330.40039062 648.68774414 C326.84849584 654.07418488 323.33081678 659.46756185 320.0078125 665 C319.25661133 666.23266602 319.25661133 666.23266602 318.49023438 667.49023438 C317.62273916 668.92613133 316.77513521 670.37438306 315.95507812 671.83789062 C314.8515625 673.65625 314.8515625 673.65625 312.5 676.25 C308.99609375 677.07421875 308.99609375 677.07421875 305.5 676.25 C303.53906725 673.97351485 302.32685307 672.16384845 300.9375 669.5625 C300.08594641 668.08887646 299.2302511 666.61764086 298.37109375 665.1484375 C297.91460449 664.35663086 297.45811523 663.56482422 296.98779297 662.74902344 C294.3291143 658.28328092 291.40520356 653.99527018 288.5 649.6875 C287.39563013 648.04050082 286.29146489 646.39336441 285.1875 644.74609375 C284.60814697 643.88306641 284.02879395 643.02003906 283.43188477 642.13085938 C276.1014116 631.19953329 268.83580583 620.22645408 261.60803223 609.22698975 C259.44020373 605.92799002 257.27122901 602.62974441 255.10232544 599.33145142 C253.95894682 597.59269292 252.81561633 595.85390278 251.67233276 594.11508179 C245.53574367 584.78229611 239.39337452 575.45332003 233.25 566.125 C232.41950638 564.8638588 232.41950638 564.8638588 231.57223511 563.57723999 C225.07941964 553.71773599 218.58422902 543.85980196 212.0859375 534.00390625 C190.29203568 500.94859391 190.29203568 500.94859391 179.875 485.0625 C161.41387481 456.90926154 142.87059196 428.80997373 124.34228516 400.70092773 C115.07295507 386.63826268 105.80761147 372.57297655 96.54541016 358.50561523 C95.43652432 356.82145124 94.3276376 355.13728783 93.21875 353.453125 C92.67020355 352.61999283 92.1216571 351.78686066 91.55648804 350.92848206 C88.10265412 345.68309212 84.64772427 340.43842572 81.19198608 335.19429016 C78.82138888 331.59682838 76.45112426 327.99914753 74.08087158 324.40145874 C72.97910472 322.72933467 71.87718677 321.05731014 70.77508545 319.38540649 C61.31292515 305.03096575 51.90872276 290.63981127 42.5 276.25 C42.17 479.2 41.84 682.15 41.5 891.25 C-26.81 891.25 -95.12 891.25 -165.5 891.25 C-165.5 606.13 -165.5 321.01 -165.5 27.25 C-154.35244517 23.53414839 -143.47249605 19.98930286 -132.125 17.125 C-131.45990417 16.9556897 -130.79480835 16.78637939 -130.10955811 16.61193848 C-118.97391048 13.78052124 -107.82320117 11.21650043 -96.5 9.25 C-95.56091797 9.0854834 -94.62183594 8.9209668 -93.65429688 8.75146484 C-77.67176712 5.98844487 -61.63552804 3.8851451 -45.5 2.25 C-44.73129578 2.16741943 -43.96259155 2.08483887 -43.17059326 1.99975586 C-28.74988208 0.46112196 -14.49769293 -0.07737533 0 0 Z " fill="#9291AD" transform="translate(715.5,191.75)"/>
<path d="M0 0 C1.56572754 0.00465271 1.56572754 0.00465271 3.16308594 0.00939941 C31.20654974 0.10662416 58.74364316 2.31961359 86.5 6.25 C87.9223999 6.44529297 87.9223999 6.44529297 89.37353516 6.64453125 C91.65017488 6.96554495 93.91867794 7.31574582 96.1875 7.6875 C97.89486328 7.96400391 97.89486328 7.96400391 99.63671875 8.24609375 C105.16248578 10.18350456 108.14155846 14.90423366 111.06640625 19.7578125 C111.7104541 20.81701904 112.35450195 21.87622559 113.01806641 22.9675293 C113.69272949 24.09199463 114.36739258 25.21645996 115.0625 26.375 C116.1367493 28.14721293 117.21360577 29.91782345 118.29064941 31.68833923 C119.01043163 32.87183043 119.72942722 34.0558004 120.44763184 35.24024963 C123.44505346 40.17941929 126.51891997 45.06621601 129.625 49.9375 C134.64053067 57.82295285 139.49574566 65.8001912 144.32910156 73.79833984 C148.51135563 80.69426128 152.82460399 87.49082277 157.30102539 94.19970703 C160.5 99.04162832 160.5 99.04162832 160.5 101.25 C155.37875071 99.7622473 150.29451527 98.20779877 145.2578125 96.453125 C129.88093502 91.10155619 114.36504043 86.8938099 98.5 83.25 C97.19530762 82.94884277 97.19530762 82.94884277 95.86425781 82.64160156 C84.40478057 80.04974434 72.80022637 78.3055555 61.1875 76.5625 C60.47124451 76.45363464 59.75498901 76.34476929 59.01702881 76.23260498 C49.18933568 74.74944034 39.43620752 73.73823505 29.5 73.25 C28.27724365 73.18949463 27.0544873 73.12898926 25.79467773 73.06665039 C-0.70318434 71.87486065 -27.12573275 72.16542205 -53.5 75.25 C-54.51723145 75.36682129 -55.53446289 75.48364258 -56.58251953 75.60400391 C-93.93351921 80.04236066 -128.88229079 90.37743026 -164.5 102.25 C-164.5 77.5 -164.5 52.75 -164.5 27.25 C-156.62418544 23.8746509 -156.62418544 23.8746509 -152.671875 22.8203125 C-151.79966309 22.58489746 -150.92745117 22.34948242 -150.02880859 22.10693359 C-149.11180176 21.86539551 -148.19479492 21.62385742 -147.25 21.375 C-146.28271973 21.1167041 -145.31543945 20.8584082 -144.31884766 20.59228516 C-142.33260008 20.06264081 -140.34578272 19.53512861 -138.35839844 19.00976562 C-135.74829336 18.31599666 -133.14307452 17.60686036 -130.5390625 16.890625 C-102.72949456 9.29805225 -74.14569002 5.1529022 -45.5 2.25 C-44.73129578 2.16741943 -43.96259155 2.08483887 -43.17059326 1.99975586 C-28.74988208 0.46112196 -14.49769293 -0.07737533 0 0 Z " fill="#25255B" transform="translate(715.5,191.75)"/>
<path d="M0 0 C1.69660235 1.64187324 3.35420521 3.307516 5 5 C5.59683594 5.61230469 6.19367188 6.22460938 6.80859375 6.85546875 C14.99575145 15.59978652 21.92738945 25.35373958 29 35 C29.48678223 35.66112793 29.97356445 36.32225586 30.47509766 37.00341797 C41.49305295 52.00650479 51.22894265 67.80253109 60.703125 83.81298828 C61.80456249 85.67041995 62.91675794 87.52146558 64.03125 89.37109375 C77.05456941 111.18515377 88.01360692 135.24187286 97 159 C97.53246338 160.39919678 97.53246338 160.39919678 98.07568359 161.82666016 C99.23944307 164.91837296 100.37413873 168.01930205 101.5 171.125 C101.86327393 172.09800049 102.22654785 173.07100098 102.60083008 174.07348633 C102.92849365 175.00056396 103.25615723 175.9276416 103.59375 176.8828125 C103.88958984 177.70152832 104.18542969 178.52024414 104.49023438 179.36376953 C105.40882341 184.11421224 104.64058826 187.79478447 102.38378906 192.04077148 C101.68479492 193.05727783 100.98580078 194.07378418 100.265625 195.12109375 C99.88044708 195.6897113 99.49526917 196.25832886 99.09841919 196.84417725 C97.82686016 198.71656898 96.53832554 200.57661491 95.25 202.4375 C93.8811139 204.44591092 92.51688539 206.45743912 91.15255737 208.46894836 C90.20528542 209.86458341 89.25647044 211.25917228 88.30618286 212.65275574 C83.68016937 219.44090964 79.17380544 226.3046862 74.6836853 233.18319702 C65.43727023 247.34444513 56.08219397 261.43162446 46.67919922 275.48925781 C44.78316949 278.32420543 42.89069925 281.16149567 41 284 C40.34 283.67 39.68 283.34 39 283 C38.49775996 280.67571575 38.12327981 278.42597815 37.80859375 276.07421875 C37.58977223 274.57807373 37.37000063 273.08206745 37.14941406 271.58618164 C37.03440552 270.78922882 36.91939697 269.992276 36.80090332 269.1711731 C29.67452203 220.4660554 13.94007321 175.00722691 -8 131 C-8.42780762 130.14035645 -8.85561523 129.28071289 -9.29638672 128.39501953 C-17.91718629 111.2115535 -27.89231645 94.80274964 -39.30615234 79.32763672 C-39.77746582 78.68197754 -40.2487793 78.03631836 -40.734375 77.37109375 C-41.14913086 76.81349365 -41.56388672 76.25589355 -41.99121094 75.68139648 C-43.18750585 73.68747513 -43.78556633 72.32856461 -44 70 C-42.97460938 67.72363281 -42.97460938 67.72363281 -41.34375 65.203125 C-40.74095215 64.25671143 -40.1381543 63.31029785 -39.51708984 62.33520508 C-38.8514502 61.3170874 -38.18581055 60.29896973 -37.5 59.25 C-36.1064525 57.07181821 -34.71323239 54.89342694 -33.3203125 52.71484375 C-32.59433798 51.58820974 -31.86810049 50.46174514 -31.14160156 49.33544922 C-27.83837168 44.19081554 -24.60758588 39.00169569 -21.375 33.8125 C-20.14064071 31.83853184 -18.90626578 29.86457346 -17.671875 27.890625 C-13.40424898 21.05422515 -9.16812601 14.19831694 -4.94677734 7.33325195 C-4.44098145 6.51300537 -3.93518555 5.69275879 -3.4140625 4.84765625 C-2.9701416 4.12586182 -2.5262207 3.40406738 -2.06884766 2.66040039 C-1 1 -1 1 0 0 Z " fill="#25255B" transform="translate(1123,377)"/>
</svg>
