<svg viewBox="0 0 96 96" fill="none" version="1.2" baseProfile="tiny-ps" id="Layer_1" xmlns="http://www.w3.org/2000/svg" xmlns:xlink="http://www.w3.org/1999/xlink">
<title>XFLOW PAYMENTS INDIA PRIVATE LIMITED</title>
<g>
<path d="M96 0H0V96H96V0Z" fill="white"/>
<path d="M36.6775 59.7667H26.416C25.7445 59.7667 25.2 59.2264 25.2 58.5599V56.7496C25.2 56.0831 25.7445 55.5427 26.416 55.5427H33.6099C35.5197 55.5427 37.3463 54.7674 38.6656 53.397L50.3495 41.259C51.9555 39.5905 54.1793 38.6467 56.5042 38.6467H69.584C70.2556 38.6467 70.8 39.1871 70.8 39.8536V46.1896C70.8 46.8562 70.2556 47.3964 69.584 47.3964H58.3549C56.6643 47.3964 55.0182 47.9345 53.6585 48.9314L40.6515 58.468C39.5009 59.3116 38.1081 59.7667 36.6775 59.7667Z" fill="#12141D"/>
<path d="M25.2 49.2067V30.5004C25.2 28.5008 26.8333 26.8799 28.848 26.8799H68.976C69.9834 26.8799 70.8 27.6904 70.8 28.6902V31.4056C70.8 32.0722 70.2556 32.6124 69.584 32.6124H54.4287C51.5139 32.6124 48.7528 33.9096 46.905 36.1469L35.5362 49.9126C34.9588 50.6117 34.096 51.017 33.1851 51.017H27.024C26.0166 51.017 25.2 50.2066 25.2 49.2067Z" fill="#12141D"/>
<path d="M70.8 55.241V65.4994C70.8 67.4989 69.1667 69.1199 67.152 69.1199H27.024C26.0166 69.1199 25.2 68.3094 25.2 67.3096V65.4994C25.2 64.8328 25.7445 64.2924 26.416 64.2924H38.7689C40.033 64.2924 41.2714 63.9368 42.3402 63.2669L55.6522 54.9226C57.2068 53.948 59.008 53.4307 60.8468 53.4307H68.976C69.9834 53.4307 70.8 54.2412 70.8 55.241Z" fill="#12141D"/>
</g>
<defs/>
</svg>