<?xml version="1.0" encoding="utf-8"?>
<!-- Generator: Adobe Illustrator 27.8.1, SVG Export Plug-In . SVG Version: 6.00 Build 0)  -->
<svg version="1.2" baseProfile="tiny-ps" id="Layer_1" xmlns="http://www.w3.org/2000/svg" xmlns:xlink="http://www.w3.org/1999/xlink"
	  viewBox="0 0 80 80"  xml:space="preserve">
<title>John Deere</title>
<g>
	<path fill="#367C2B" d="M62.9,22.9c-6.57-3.22-14.12-5.04-22-5.04c-7.9,0-15.44,1.83-22.03,5.07c-2.33,5.64-3.62,11.8-3.62,18.24
		c0,6.44,1.28,12.59,3.61,18.23c6.58,3.24,14.13,5.07,22.03,5.07c7.87,0,15.43-1.82,22-5.04c2.34-5.65,3.63-11.81,3.63-18.26
		C66.53,34.72,65.24,28.55,62.9,22.9"/>
	<path fill="#FFDE00" d="M61.33,24.28c-6.13-2.89-13.15-4.51-20.43-4.51c-7.3,0-14.31,1.63-20.46,4.54
		c-2.08,5.24-3.21,10.93-3.21,16.88c0,5.93,1.13,11.61,3.2,16.84c6.15,2.91,13.16,4.54,20.47,4.54c7.29,0,14.31-1.62,20.45-4.52
		c2.07-5.24,3.21-10.93,3.21-16.87C64.55,35.23,63.41,29.54,61.33,24.28 M33.9,35.89c-1.06,2.11-1.79,4.47-2.1,7.16
		c-0.09,0.01-0.63,0.06-0.63,0.06c-2.21,0.2-4.5,0.37-6.71,1.23l0.16,0.9c3.61,4.49,9.09,7.21,9.15,7.23l0.12-0.14l-1.18-1.88
		c-0.28-0.21-1.02-0.38-1.04-0.38c-2.47-0.82-4.2-4.05-4.48-4.6c2.03-0.01,3.82,0.58,5.54,1.15c1.14,0.38,2.21,0.73,3.32,0.91
		c1.96,0.31,4-0.05,5.84-0.28c1.49-0.18,2.94-0.17,4.39-0.08c0.17,0.21,1.69,2.05,3.14,2.81c1.82,0.95,7.11,2.53,7.37,2.62
		c0.11,0.1,2.15,2.15,3.4,4.52c-5.92,2.73-12.59,4.17-19.29,4.17c-6.71,0-13.4-1.45-19.35-4.21c-1.96-5.08-2.96-10.43-2.96-15.9
		c0-5.47,1-10.82,2.96-15.9c5.95-2.76,12.63-4.21,19.35-4.21c6.71,0,13.39,1.45,19.32,4.18c1.97,5.1,2.97,10.45,2.97,15.93
		c0,5.02-0.83,9.92-2.48,14.59c-1.89-3.27-2.65-4.27-2.65-4.27c-0.03-0.02-2.67-1.4-3.32-1.96c-0.52-0.45-0.77-1.37-1.06-2.44
		c-0.4-1.48-0.9-3.31-2.33-4.82l1.59-0.65c-0.44-3.07-4.08-5.06-4.11-5.09l-0.2,0.1c1.39,1.74,1.79,3.22,1.79,4.12
		c0,0.46-0.07,0.77-0.11,0.89c-0.41-0.15-3.1-1.02-9.2-0.79c-0.9,0.03-2.18-0.01-2.95-0.75c-0.43-0.42-0.65-1.02-0.65-1.79v-0.01
		c0.01-2.12,0.9-4.97,1.03-5.37l1.59,0.19c1.9-1.06,2.64-1.96,2.74-2.1l-0.09-0.09c-1.62,0.21-3.74,0.63-3.74,0.63
		c0.14-0.37,0.57-1.59,0.57-2.97c0-1.49-0.5-3.16-2.39-4.13l-0.2,0.1c0.01,0.01,1.1,1.2,1.1,2.82c0,0.45-0.09,0.93-0.3,1.44
		c-0.62-0.26-0.87-0.28-1.61-0.3c-0.36-1.27-1.47-2.35-2.98-2.89l-0.18,0.11c0.01,0.01,1.61,1.15,1.7,2.83
		c-0.8,0.06-1.15,0.14-2.14,0.45c-0.42-0.69-1.37-1.19-2.56-1.34l-0.15,0.12c0.01,0.01,1.42,0.49,1.73,1.57
		c-0.87,0.4-1.77,1.01-2.39,1.51l0.06,0.23c3.64-1.41,7.03-1.82,7.9-0.8c0.14,0.17,0.22,0.38,0.22,0.62c0,0.3-0.12,0.65-0.35,1.05
		c-1.8,0.39-4.49,1.16-6.71,1.99l0.3,0.93c0,0,2.23,0.45,3.07,0.63C33.75,35.52,34.06,35.57,33.9,35.89"/>
</g>
</svg>
