<?xml version="1.0" encoding="UTF-8" standalone="yes"?>
<svg width="200" height="200" viewBox="0 0 200 200" fill="none" version="1.2" baseProfile="tiny-ps" xmlns="http://www.w3.org/2000/svg">
  <title>bimi-svg-tiny-12-ps</title>
  <g>
    <path fill-rule="evenodd" d="M183.245 122.925V77.2413C183.245 58.3303 167.921 42.9971 148.991 42.9971H140.879V63.4414C140.879 91.766 117.842 114.794 89.5078 114.794H69.082V122.925C69.082 141.836 84.4153 157.179 103.317 157.179H148.991C167.921 157.179 183.245 141.836 183.245 122.925Z" fill="#A5CD38"/>
    <path fill-rule="evenodd" d="M123.761 63.4282V42.9932H103.326C84.4246 42.9932 69.082 58.3357 69.082 77.2467V97.6724H89.5078C108.437 97.6724 123.761 82.3299 123.761 63.4282Z" fill="#0D6C39"/>
    <path fill-rule="evenodd" d="M28.5433 58.8008H14V73.3255C14 86.763 24.9005 97.6729 38.3473 97.6729H52.8721V83.1481C52.8721 69.692 41.9808 58.8008 28.5433 58.8008Z" fill="#0D6C39"/>
  </g>
  <defs/>
</svg>