<?xml version="1.0" encoding="UTF-8"?>
<svg id="Layer_1" xmlns="http://www.w3.org/2000/svg" baseProfile="tiny-ps" version="1.2" viewBox="0 0 300 300">
<title>Acast</title>
  <path d="M276.2,237c-18.6,3.3-29-4.9-37.5-27.2-3-7.8-64.7-176.9-64.7-176.9-36.3,1.4-49.6,6.2-63,42.1-20.5,55.1-49.7,132.7-49.7,132.7-10.1,26.5-19,35.7-35.1,39.2l-4.9,1.1v19.4h88.6v-19.9s-7-1.3-7-1.3c-15.1-2.9-18.6-6.8-18.6-14.2s3.1-13.8,6.8-24.2l2.9-8h50.5c16,0,20.4-11.5,21.6-16l8.5,23.4c8.7,23.9,22.5,60.2,64.6,60.2s39-19.1,36.8-30.4ZM106.7,165.4l26.5-72.8,26.4,72.8h-52.8Z" fill="#0b0b21"/>
</svg>