<?xml version="1.0" encoding="UTF-8"?>
<svg id="Layer_1" xmlns="http://www.w3.org/2000/svg" xmlns:xlink="http://www.w3.org/1999/xlink" baseProfile="tiny-ps" version="1.2" viewBox="0 0 1300 300" xml:space="preserve">
<title>OPLOG</title>
  <path d="M230.4,39.6c-22-10.1-45.9-12.6-70.4-9-42.2,6.4-74.2,27.8-93.2,66.8-12.5,25.7-17.9,53.4-16.6,81.5,1.2,30.6,14.2,55.2,39.7,72.5,15.9,10.7,33.7,16.2,52.7,17.8,47.4,3.8,87.6-11,116.2-51.1,18.6-26.1,24.6-56.7,27.1-85.9.9-44.5-17.4-75.1-55.6-92.5ZM210.1,182.9c-13,26.7-40.9,38.6-68.5,30-19.2-6-30.1-24.6-28.7-51.3,2.1-18.3,6.1-37.9,18.3-54.9,15.4-21.7,44.1-29.4,67.4-18.1,15.2,7.3,22.1,20.5,23.4,36.8,1.7,20.1-3.1,39.4-11.9,57.5h0Z" fill="#009ade" fill-rule="evenodd" stroke-width="0"/>
  <path d="M959.4,40.6c-22.1-10.1-45.9-12.6-70.4-8.9-42.2,6.3-74.2,27.8-93.2,66.8-12.5,25.7-17.8,53.3-16.7,81.5,1.3,30.7,14.3,55.3,39.8,72.5,15.9,10.7,33.7,16.2,52.7,17.8,47.4,3.8,87.6-11,116.2-51.1,18.6-26.2,24.7-56.7,27.1-86,1-44.5-17.4-75-55.5-92.5h0ZM939.1,184c-13,26.6-40.9,38.6-68.4,29.9-19.3-6-30.1-24.6-28.8-51.4,2.1-18.2,6.1-37.8,18.3-54.9,15.4-21.7,44.1-29.3,67.4-18.1,15.2,7.3,22.1,20.5,23.5,36.8,1.7,20.1-3.1,39.4-11.9,57.6h0Z" fill="#009ade" fill-rule="evenodd" stroke-width="0"/>
  <path d="M498.9,85.7c-5.7-27-28.9-48.2-59-48.2s-122.1,0-122.1,0l-45.8,225.8h62.4s10.3-50.5,15.5-76.2c23.1,0,46.1.4,69.1,0,53.9-1,91.2-48.4,79.9-101.2h0ZM434.4,120.6c-4.2,9.4-11.9,15-21.4,15.5-17.4,1-35,.3-52.8.3,3.4-16.9,6.7-33.3,10.1-50,15.3,0,30.8-.8,46.1.2,19.3,1.3,26.4,15.6,18.1,34h0Z" fill="#009ade" fill-rule="evenodd" stroke-width="0"/>
  <path d="M681,212.9l35.6-175.4h-62.4l-45.7,225.7h160.5l10-50.3h-98Z" fill="#009ade" fill-rule="evenodd" stroke-width="0"/>
  <path d="M1225.5,132h-93.5l-10.2,49.8h59.2c-3,8.6-9.2,16.8-14.4,21.3-14.4,12.6-34.2,16.8-53.8,10.6-19.3-6-30.1-24.5-28.7-51.3,2-18.3,6-37.9,18.2-54.9,15.5-21.7,44.1-29.3,67.5-18.1,10.5,5,16.9,13,20.4,22.7l57.6-28.4c-9-18.8-24.3-33.2-46.2-43.3-22.1-10.1-45.9-12.7-70.4-9-42.3,6.4-74.3,27.8-93.2,66.8-12.5,25.7-17.8,53.3-16.6,81.5,1.2,30.6,14.3,55.2,39.8,72.5,15.9,10.7,33.7,16.2,52.7,17.8,40.7,3.3,76.2-7.1,103.3-35.6,7.8-8.2,15.3-18.3,18.3-30.7,2.1-8.6,14.5-71.6,14.5-71.6h-24.5Z" fill="#009ade" fill-rule="evenodd" stroke-width="0"/>
  <path d="M476.9,37.4c23.5,9.1,45.4,21.5,65,36.9l62.8-22.4-47.6,35.2c20,18.2,37.1,39.5,50.5,63.1l22.8-112.9h-153.5Z" fill="#808285" stroke-width="0"/>
</svg>