<?xml version="1.0" encoding="utf-8"?>
<!-- Generator: $$$/GeneralStr/196=Adobe Illustrator 27.6.0, SVG Export Plug-In . SVG Version: 6.00 Build 0)  -->
<svg version="1.2" baseProfile="tiny-ps" id="AIDA_Logo"
	 xmlns="http://www.w3.org/2000/svg" xmlns:xlink="http://www.w3.org/1999/xlink" viewBox="0 0 481.89 481.89"
	 xml:space="preserve">
<title>AIDA Cruises</title>
<rect fill="#FFFFFF" width="481.89" height="481.89"/>
<g id="Kussmund">
	<path d="M285.68,362.73L285.68,362.73c-0.25,0-0.55-0.03-0.77-0.05l-0.18-0.02c-16.31-1.13-63.29-11.08-147.2-78.98
		c-26.38-21.85-44.33-45.6-58.75-64.68c-12.8-16.93-23.85-31.55-36.45-39.18c-0.11-0.07-0.26-0.15-0.44-0.24
		c-1.65-0.87-6.01-3.19-2.98-9.02c2.47-5.64,8.99-20.46,9.34-21.15c0.36-0.7,1.72-2.24,3.46-2.24c1.07,0,2.11,0.6,3.09,1.77
		c27.5,29.77,49.66,44.87,65.85,44.87c20.51-0.01,35.49-7.59,51.35-15.63c16.06-8.14,32.66-16.55,56.49-17.82
		c0,0,2.42-0.29,6.37-0.29c16.32,0,57.5,4.64,87.53,47.61c3.9,5.58,6.37,9.91,8,12.77c1.79,3.13,2.68,4.7,3.55,4.7
		c0.06,0,0.11-0.01,0.16-0.02c0.71-0.19,7.07-6.22,17.39-16.03c8.99-8.55,19.16-18.23,25.7-23.98c2.07-1.82,6.24-5.23,8.62-6.77
		c5.68-3.68,11.29-5.71,15.81-5.71c2.64,0,4.78,0.68,6.35,2.02c4.29,3.65,4.61,8.05,3.69,15.39l-0.02,0.17
		c-0.31,2.47-0.73,5.86,0.68,7.46c0.54,0.61,1.27,0.9,2.24,0.9c2.1,0,5.16-1.35,9.33-4.13c5.3-3.54,9.12-7.08,11.92-9.66
		c2.57-2.38,4.43-4.1,6.03-4.58c0.28-0.08,0.54-0.12,0.78-0.12c0.91,0,1.43,0.58,1.43,1.6c0,2.08-5.63,7.85-17.97,20.49l-0.07,0.08
		c-1.47,1.5-3.02,3.09-4.65,4.77c-2.07,2.12-4.23,4.33-6.48,6.64c-9.84,10.06-21,21.45-32.9,34.46l-0.93,1.01
		c-21.86,23.87-73.86,81.2-84.68,98.1c-1.41,2.21-2.69,4.26-3.84,6.09l-1.03,1.65C287.91,360.69,286.5,362.73,285.68,362.73z"/>
	<path fill="#CC3300" d="M231.82,242.32c35.6,0,53.72,19.46,61.46,27.78c0.84,0.9,1.56,1.67,2.17,2.29l0.2,0.2
		c3.61,3.62,7.35,7.36,11.78,7.36c4.32,0,8.86-3.6,13.86-10.99c0.72-1.06,1.43-2.13,2.15-3.2c8.2-12.23,16.69-24.89,27.3-24.89
		c1.43,0,2.89,0.23,4.34,0.7c1.21,0.32,2.49,0.48,3.78,0.48c8.39,0,17.15-6.79,24.87-12.79c1.96-1.52,3.82-2.96,5.65-4.29
		c12.23-8.85,29.97-22.48,35.02-26.38l-11.5,5.51c-3.09,1.55-5.17,2.27-6.53,2.27c-0.72,0-1.24-0.2-1.6-0.61
		c-0.86-0.99-0.58-3.04-0.21-5.62c0.51-3.63,1.15-8.15-1.07-11.85c-0.94-1.73-2.4-2.56-4.47-2.56c-11.12,0-36.24,24.84-52.86,41.27
		c-2.76,2.73-5.37,5.31-7.63,7.5c-1.36,1.41-2.59,2.7-3.71,3.87c-6.58,6.87-9.3,9.71-11.26,9.71c-1.41,0-2.36-1.42-3.94-3.78
		c-0.48-0.72-1.03-1.54-1.68-2.44c-2.05-2.87-3.88-5.52-5.64-8.08c-8.86-12.84-15.26-22.11-34.95-38.05
		c-12.08-9.76-25.72-14.5-41.69-14.5c-21.25,0-43.28,8.57-62.71,16.14c-10.36,4.03-20.14,7.84-29.01,10.09
		c-4.63,1.18-9.4,1.78-14.17,1.78c-20,0-36.63-10.3-45.72-17.42c12.03,11.06,31.55,27.44,48.86,37.47
		c18.18,10.52,37.1,15.21,61.37,15.21c8.43,0,17.51-0.55,27.78-1.69C225.36,242.47,228.64,242.32,231.82,242.32z"/>
	<path fill="#CC3300" d="M93.71,214.87c17.43,20.49,36.62,39.38,57.13,56.24c18.44,15.16,38.02,28.74,58.2,40.38
		c32.92,18.99,59.27,27.93,66.64,29.78c1.42,0.35,2.64,0.69,3.72,0.99c2.26,0.63,3.9,1.08,5.24,1.08c2.51,0,4.14-1.65,7.47-6.31
		c18.43-26.97,66.17-74.6,89.86-98.18c-6.27,5.06-14.15,9.94-21.25,9.94c-1.59,0-3.1-0.25-4.5-0.73c-1.37-0.48-2.74-0.72-4.08-0.72
		c-9.16,0-16.51,11.23-25.02,24.24c-0.89,1.35-1.79,2.73-2.7,4.11c-9.35,15.49-15.61,21.81-21.6,21.81c-4.84,0-9.41-3.94-15.74-9.4
		c-1.97-1.7-4.21-3.63-6.64-5.59c-21.82-18.91-30.55-23.71-59.94-23.71c-8.95,0-20.08,0.46-31.66,0.98
		c-1.29,0.06-2.61,0.09-3.91,0.09c-28.35,0-53.17-13.9-69-25.57C106.16,227.09,98.51,219.82,93.71,214.87z"/>
</g>
</svg>
