<svg version="1.2" baseProfile="tiny-ps" xmlns="http://www.w3.org/2000/svg" xmlns:xlink="http://www.w3.org/1999/xlink" viewBox="0 0 261.92 260.8" xmlns:v="https://vecta.io/nano"><title>Drive Savers - Data Recovery</title><path d="M131.989 257.476c-33.941.06-65.837-12.986-89.813-36.734-24-23.773-37.25-55.503-37.309-89.343.027-33.853 13.208-65.698 37.112-89.668S97.691 4.494 131.545 4.376l.645-.003c26.879-.047 52.511 8.377 74.124 24.363 21.621 15.991 37.183 38.044 45.006 63.774 3.772 12.205 5.672 24.869 5.645 37.643.06 34.001-12.779 65.92-36.15 89.879-23.494 24.087-55.041 37.384-88.826 37.444zm-.976-189.74c-34.738.061-62.95 28.372-62.889 63.111.061 34.854 28.964 64.249 63.113 64.189 34.738-.061 62.949-28.955 62.887-64.41-.061-34.739-28.372-62.951-63.111-62.89z" fill="#fff"/><g fill="#a4a7a9"><path d="M36.663 46.686c4.077-4.27 8.945-7.911 9.485-13.855.221-2.431-2.094-4.466-4.435-3.769-2.015.6-3.832 2.353-3.774 4.223"/><path d="M53.836 31.256c.293-4.201-7.276-4.825-7.863 2.676-.12 1.263-.383 2.572-.325 3.839l8.188-6.515z"/></g><path d="M36.663 46.686c2.857-4.441 9.131-8.204 9.504-14.589.094-1.604-.989-3.091-2.586-3.277-2.487-.29-5.418 1.837-5.343 4.263m15.697-2.327c.309-4.201-6.926-4.488-7.936 2.903l-.353 3.312 8.289-6.215z" fill="none" stroke="#000" stroke-width="1.52"/><path d="M111.585 190.255c.998-1.002.418-6.104-1.083-6.701-4.402-1.092-7.003-1.488-12.512-6.578-.514 1.653-.58 3.413-.191 5.1a5 5 0 0 0 1.905 3.097c1.802 1.297 6.634 4.803 11.835 4.994.001-.1-.654.789.046.088h0z" fill="#a4a7a9"/><path d="M70.007 144.451s1.396 23.679 35.106 44.408c0 0-49.546.259-57.977-45.035" fill="#e8e8e8"/><path d="M10.182 171.433s4.564-20.608 28.758-23.851a160.38 160.38 0 0 1 29.897-1.453s1.399-.302-.101-.4c-4.901-.291-21.7-.062-20 .035l-44.402-1.222 5.848 26.891z" fill="#b6b8bb"/><path d="M160.713 6.868h-.2a365.93 365.93 0 0 0-15.105-2.673l.108 61.5c0 0-2.269-39.496 15.197-58.827z" fill="#cfd0d2"/><path d="M241.059 115.213h14.928s-1.98-27.24-11.045-40.201c-.001 0 8.95 27.154-3.883 40.201z" fill="#e8e8e8"/><path d="M156.213 189.176l-11.693 3.821-.488 63.901.9-.102a89.59 89.59 0 0 0 14.496-2.425l2.599-.705c-11.598 1.12-23.182-46.459-3.515-65.494l-2.299 1.004z" fill="#a3a5a8"/><path d="M187.161 159.522l4.375-14.008 64-.113-1.874 14.603c0 .2-4.201-.693-4.401-.692a25.26 25.26 0 0 1-9.808-4.583c-15.323-13.072-37.615-8.233-52.292 4.793z" fill="#a4a7a9"/><path d="M71.286 116.882l-.003-1.368.054 30.111-69.2.122-.051-28.743 69.2-.122z" fill="#e8e8e8" /><path d="M256.305 114.222C248.929 56.969 203.679 12.262 146.39 5.193l-.007-4.2-31.6.056.008 4.3C57.692 12.738 12.822 57.81 5.683 114.941l-4.6.008.056 31.8 4.6-.008c7.37 57.088 52.384 101.988 109.492 109.208l.007 3.9 31.6-.056-.007-3.8c57.305-7.229 102.418-52.381 109.607-109.693l4.6-.008-.032-32.076-4.701.006zm-67.171 32.192l2.5-.004v.2a63.09 63.09 0 0 1-45.021 44.879l-.004-2.5-31.7.056.004 2.5a63.6 63.6 0 0 1-44.979-44.921l2.4-.104-.056-32-2.4.004a63.09 63.09 0 0 1 44.821-45.079l.004 2.5 31.8-.056-.004-2.5c22.018 5.676 39.306 22.967 45.207 44.926h-2.728l.056 32.1.1-.001z" fill="none" stroke="#000" stroke-width="2"/><path d="M31.467 49.295c7.197-1.513 8.782-10.115 6.57-17.112-2.905-2.995-8.599.515-7.793 3.814" fill="#a4a7a9"/><path d="M31.467 49.295c7.197-1.513 8.782-10.115 6.57-17.112-2.905-2.995-8.599.515-7.793 3.814" fill="none" stroke="#000" stroke-width="1.52"/><g fill="#a4a7a9"><path d="M16.496 65.521c6.993-4.212 4.976-13.809.066-19.3-3.903-1.493-7.201 3.414-5.488 6.81"/><path d="M21.485 59.313c7.542-3.072 5.977-12.811 1.667-18.803-3.704-1.993-7.994 3.214-6.189 6.111 0 0 4.335 6.292 4.522 12.692z"/><path d="M26.376 54.404c6.995-2.912 7.478-12.313 3.767-18.707-3.504-2.294-8.208 2.323-6.702 5.421 0 0 3.702 4.456 2.935 13.286zm-15.244-1.183c-.916-.862-2.565-.596-3.496.085-2.445 1.792-2.654 5.692-1.311 8.184l.264.448c3.51 5.494 6.813 7.488 6.813 7.488.978.59 1.914-.173 2.321-1.043.658-1.404.623-3.132.425-4.634-.466-3.525-2.388-8.055-5.016-10.528h0z"/><path d="M5.887 60.64c-5.796 2.21-4.273 15.608 7.134 19.087 5.195-2.909 2.679-9.042-.925-11.336"/><path d="M4.008 72.243C.01 73.75 1.038 89.549 14.437 88.925c5.097-1.809 2.484-8.904-2.515-8.796m49.493 53.114c1.408 4.698 13.406 3.176 19.696-2.235-.008-4.5-6.31-5.889-9.007-3.984"/><path d="M54.11 130.555c1.307 3.798 12.507 3.878 18.094-3.532.491-5.101-5.463-5.558-7.56-4.155m-18.74 4.402c2.807 4.095 13.108 4.677 17.995-3.132 2.69-5.705-6.112-6.889-8.406-3.685m-17.996 2.732c2.911 6.095 13.109 5.077 17.895-2.731 1.891-5.203-5.111-5.991-7.707-3.886"/><path d="M29.288,117.899c2.613,7.495,13.611,6.476,18.398-1.332c1.994-3.604-4.511-6.192-7.107-3.988"/><path d="M21.978 112.012c2.413 7.296 13.815 8.276 18.701.467 2.295-3.004-4.413-7.592-7.009-5.388"/><path d="M13.464 104.227c2.219 10.996 15.016 9.274 20.305 2.964.993-3.702-5.271-6.421-7.767-4.216"/><path d="M7.048 94.938c-2.086 8.104 12.425 13.978 19.214 7.766.593-4.001-2.312-7.096-5.811-6.29"/><path d="M4.529 84.643c-4.585 8.508 7.828 15.686 16.021 11.772 3.095-2.705-.414-7.899-4.714-7.992 0 0-7.827.878-11.307-3.78zM68.82 136.13c4.309 5.392 12.71 5.578 18.502 1.067 1.793-3.803-3.414-8.094-6.211-6.089 0 0-6.928 5.35-12.291 5.022zm12.017 9.679c2.614 7.895 12.214 7.979 18.408 4.268 2.294-3.504-2.415-8.396-5.312-6.891"/><path d="M75.827 140.317c3.714 7.693 12.013 7.479 17.705 2.969 1.793-3.803-3.414-8.094-6.211-6.089-3.443 2.205-7.283 3.222-11.494 3.12zm10.221 11.682c1.514 7.697 10.915 8.681 17.61 5.769 2.694-3.205-1.315-8.698-4.413-7.492"/><path d="M90.358 157.892c1.213 7.598 10.218 10.182 17.114 7.87 2.995-3.005-.515-8.799-3.814-7.893 0-.001-6.86 2.958-13.3.023z"/><path d="M94.37 164.285c-.087 7.5 7.719 10.886 15.018 10.274 3.496-2.206 1.385-8.702-2.015-8.596 0-.001-8.252 2.454-13.003-1.678z"/><path d="M96.58 170.381c-1.788 6.603 6.221 12.089 13.423 12.976 3.898-1.407 2.312-8.207-.989-8.801 0 0-8.747.147-12.434-4.175z"/></g><g fill="none" stroke="#000" stroke-width="1.52"><path d="M16.496 65.521c6.993-4.212 4.976-13.809.066-19.3-3.903-1.493-7.157 3.304-5.342 6.962m9.652 6.602c7.449-3.366 6.591-13.283 2.28-19.275-3.704-1.993-7.994 3.214-6.189 6.111 0 0 5.165 6.248 3.909 13.164zm5.064-5.039c6.995-2.912 7.919-12.655 4.208-19.048-3.504-2.294-8.119 2.249-6.614 5.347"/><path d="M11.109 53.037c-4.307-1.427-7.427 4.376-4.519 8.902 3.51 5.494 6.813 7.488 6.813 7.488 2.902 1.395 4.091-5.007 1.181-10.602-.789-1.517-3.298-5.729-3.475-5.788z"/><path d="M11.731 68.117c3.291 2.465 6.443 8.732 1.249 11.741C1.574 76.378.492 63.351 4.888 60.843c0 0-.101-.4 1.498-1.003"/><path d="M4.008 72.243C.01 73.75 1.038 89.549 14.437 88.925c4.797-1.708 1.786-8.203-1.716-9.197"/><path d="M4.529 84.643c-4.585 8.508 7.828 15.686 16.021 11.772 3.095-2.705-.629-7.424-6.166-7.481"/><path d="M7.048 94.938c-2.086 8.104 12.425 13.978 19.214 7.766.593-4.001-2.312-7.096-5.811-6.29m-6.987 7.813c2.219 10.996 15.016 9.274 20.305 2.964.993-3.702-5.262-6.441-7.758-4.236"/><path d="M21.978 112.012c2.413 7.296 13.815 8.276 18.701.467 2.295-3.004-4.341-7.536-6.937-5.332"/><path d="M29.288 117.899c2.613 7.495 13.611 6.476 18.398-1.332 1.994-3.604-4.511-6.192-7.107-3.988m-2.982 10.605c2.911 6.095 13.109 5.077 17.895-2.731 1.891-5.203-5.111-5.991-7.707-3.886m-1.881 10.703c2.807 4.095 13.108 4.677 17.995-3.132 2.69-5.705-6.112-6.889-8.406-3.685m-1.383 10.102c1.307 3.798 12.507 3.878 18.094-3.532.491-5.101-5.624-5.352-7.722-3.948m-3.067 10.168c1.408 4.698 13.406 3.176 19.696-2.235-.008-4.5-6.31-5.889-9.007-3.984m-3.284 9.106c4.309 5.392 12.71 5.578 18.502 1.067 1.793-3.803-3.587-8.097-6.384-6.092m-5.211 9.212c3.714 7.693 12.013 7.479 17.705 2.969 1.793-3.803-3.414-8.094-6.211-6.089m-6.384 8.612c2.614 7.895 12.214 7.979 18.408 4.268 2.294-3.504-2.639-8.483-5.535-6.978m-7.721 8.63c1.514 7.697 10.975 8.952 17.67 6.04 2.694-3.205-1.457-8.826-4.554-7.621m-8.747 7.744c1.213 7.598 10.218 10.182 17.114 7.87 2.995-3.005-.41-8.94-3.708-8.034m-9.494 6.557c-.087 7.5 7.719 10.886 15.018 10.274 3.496-2.206 1.375-8.84-2.024-8.734"/><path d="M96.58,170.381c-1.788,6.603,6.221,12.089,13.423,12.976c3.898-1.407,2.298-8.177-1.003-8.772"/><path d="M111.365 190.085c.998-1.002.64-5.928-.861-6.524-4.402-1.092-7.003-1.488-12.512-6.578-.497 1.601-.088 6.9 1.714 8.097s11.395 5.448 11.791 5.094"/></g><g fill="#dbdcdd"><path d="M106.991 176.563c-1.101-.598 2.099-.404 2.099-.404.8.199 1.503 1.497 1.604 2.497a8.76 8.76 0 0 1-.096 2.2c-.361-1.194-.939-2.312-1.706-3.297-.553-.466-1.203-.806-1.901-.996zm.915 8.198c-.902-.898 2.1.196 2.1.196.701.399 1.003 1.898.905 2.798-.198 1.2-.698 1.101-.698 1.101-.078-.914-.352-1.8-.805-2.599-.501-.898-1.001-.897-1.502-1.496zm-2.03-16.796c-1.101-.598 2.099-.404 2.099-.404.8.199 1.503 1.497 1.604 2.497a8.76 8.76 0 0 1-.096 2.2c-.361-1.194-.939-2.312-1.706-3.297-.9-.698-1.2-.498-1.901-.996zm-2.514-7.996c-1.101-.598 2.099-.404 2.099-.404.8.199 1.503 1.497 1.604 2.497a8.76 8.76 0 0 1-.096 2.2c-.361-1.194-.939-2.312-1.706-3.297-.566-.446-1.211-.784-1.901-.996zm-4.114-7.693c-1.101-.598 2.099-.404 2.099-.404.8.199 1.503 1.497 1.604 2.497a8.76 8.76 0 0 1-.096 2.2c-.361-1.194-.939-2.312-1.706-3.297-.7-.698-1.1-.597-1.901-.996zm-5.013-7.391c-1.101-.598 2.099-.404 2.099-.404.8.199 1.503 1.497 1.604 2.497a8.76 8.76 0 0 1-.096 2.2c-.361-1.194-.939-2.312-1.706-3.297-.7-.698-1.1-.597-1.901-.996zm-5.91-6.09c-1.101-.598 2.099-.404 2.099-.404.8.199 1.503 1.497 1.604 2.497a8.76 8.76 0 0 1-.096 2.2c-.361-1.194-.939-2.312-1.706-3.297-.566-.446-1.211-.784-1.901-.996zm-6.511-6.088c-1.101-.398 1.999-.804 1.999-.804.8.099 1.702 1.297 2.004 2.196a7 7 0 0 1 .204 2.2 9.27 9.27 0 0 0-2.205-2.996c-.902-.498-1.201-.298-2.002-.596h0zm-8.007-3.786c-1.2.002 1.598-1.403 1.598-1.403.8-.201 2.001.596 2.602 1.395.401.616.706 1.29.904 1.998-.881-.903-1.937-1.616-3.104-2.095-.668-.011-1.337.023-2 .105zm-8.306-3.686c-1.2.002 1.598-1.403 1.598-1.403.8-.201 2.001.596 2.602 1.395.401.616.706 1.29.904 1.998-.881-.903-1.937-1.616-3.104-2.095-.668-.011-1.337.023-2 .105zm-8.105-2.985c-1.099.502.997-1.902.997-1.902a3 3 0 0 1 2.9.195c.636.416 1.209.92 1.703 1.497-1.148-.45-2.368-.685-3.601-.694-1.101.202-1.2.602-1.999.904zm-8.706-3.285c-1.099.502.997-1.902.997-1.902a3 3 0 0 1 2.9.195c.636.416 1.209.92 1.703 1.497-1.148-.45-2.368-.685-3.601-.694-.715.179-1.393.485-1.999.904zm-7.606-3.587c-1.099.502.997-1.902.997-1.902a3 3 0 0 1 2.9.195c.636.416 1.209.92 1.703 1.497-1.148-.45-2.368-.685-3.601-.694-1.001.203-1.1.603-1.999.904z"/><use href="#B"/><use href="#B" x="-7.508" y="-4.587"/><path d="M19.455 99.116c-1.2.002 1.597-1.503 1.597-1.503a3 3 0 0 1 2.602 1.295c.432.612.77 1.286 1.004 1.998a10.37 10.37 0 0 0-3.204-1.994c-.9-.098-1.099.203-1.999.204zm-5.013-7.214c-1.2.002 1.597-1.503 1.597-1.503a3 3 0 0 1 2.602 1.295c.432.612.77 1.286 1.004 1.998a10.37 10.37 0 0 0-3.204-1.994c-.9-.198-1.099.102-1.999.204zm-3.917-9.87c-1.101-.398 1.999-.804 1.999-.804.8.099 1.702 1.297 2.004 2.196a7 7 0 0 1 .204 2.2 9.27 9.27 0 0 0-2.205-2.996c-.802-.498-1.202-.297-2.002-.596zm-.019-11c-.901-.798 2.1-.104 2.1-.104a3.6 3.6 0 0 1 1.205 2.698c-.068.752-.234 1.492-.496 2.201a9.54 9.54 0 0 0-1.106-3.598c-.603-.699-1.003-.698-1.703-1.197zm2.081-10.404c-.102-1.2.698-.901.698-.901.702.899 1.608 4.797 1.61 5.697-.068.752-.234 1.492-.496 2.201 0 0 .195-2.7-.607-3.699-.588-1.022-.996-2.137-1.205-3.298zm1.979-12.303c-.402-1.199.899-.502.899-.502a12.6 12.6 0 0 1 2.505 3.096 8.21 8.21 0 0 1 1.006 3.298s-2.007-3.696-3.108-4.495a3.99 3.99 0 0 1-1.302-1.397zm6.189-5.811c-.302-1.199.999-.402.999-.402.899 1.017 1.582 2.207 2.006 3.496.406 1.087.612 2.239.606 3.399 0 0-1.507-3.897-2.508-4.796-.53-.441-.914-1.032-1.103-1.697zm6.991-5.212c-.102-1.2 1-.302 1-.302a11.26 11.26 0 0 1 1.607 3.697c.316 1.141.352 2.341.106 3.5 0 0-1.007-4.098-1.809-5.097a2.72 2.72 0 0 1-.904-1.798zm7.393-4.313c-.002-1.2 1-.102 1-.102a12.68 12.68 0 0 1 1.207 3.898 8.46 8.46 0 0 1-.294 3.501s-.607-4.199-1.209-5.298c-.398-.598-.64-1.284-.704-1.999zm8.295-2.415c.498-1.101.901.298.901.298a12.33 12.33 0 0 1-.393 3.801c-.596 2.001-1.296 2.402-1.296 2.402s.894-3.302.692-4.501c-.036-.668-.003-1.338.096-2zm6.713-1.5s1.026-.121 2.526 1.059c0-.001-.519-1.876-2.526-1.059z"/></g><g fill="#e8e8e8"><path d="M260.086 116.716l.05 28.577-70.1.123-.054-30.441.003 1.864 70.101-.123zM145.384 1.895l.121 68.999-28.324.05-.121-68.999 28.324-.05zm.331 188l.121 68.9-29.718.052-.121-68.9 29.718-.052z" /><path d="M47.137 143.824l22.87.627"/></g><path d="M53.104 160.877c1.847 4.782-.002 10-7.172 13.071-6.473 2.763-12.206-.581-13.952-5.263l1.594-.616c.816 1.593 2.512 1.176 3.607.765l12.057-4.418c1.096-.411 2.69-1.027 2.272-2.922l1.594-.617zm-21.438 6.51l-2.671-7.174c-.206-.598-.413-1.396.384-1.604a.86.86 0 0 1 1.004.39c.709.893.807.793 1.904.382l14.747-5.445c.398-.204 1.196-.412 1.19-1.012s-.112-1.199.585-1.506 1.104.389 1.31.988l2.671 7.174-21.124 7.807zm20.592 9.399l-10.271 3.001c-1.795.517-1.988 1.219-1.878 2.318a1.09 1.09 0 0 1-.388 1.304c-.696.407-1.204-.388-1.509-.885l-1.829-2.983c-.305-.497-.815-1.493-.118-1.899s.901.091 1.505.485 1.607.684 3.701.064l13.163-3.829.101.099-2.477 2.325h0zm-6.226 7.461l-2.337-3.777 1.795-.517 1.93 3.082 9.707-9.495 1.595-.516 3.456 5.667-13.866 13.736c-.594.606-1.091.911-.983 1.81.105.499.107.799-.389 1.104-.696.407-1.205-.488-1.51-.985l-3.962-6.362c-.305-.497-.712-1.293-.017-1.7.397-.304.598-.206 1.001.09.804.393 1.004.39 1.896-.418l1.684-1.719h0zm21.818 1.686l5.052 5.351-13.973 13.038c-.793.807-.991.91-.482 1.905.204.398.207.798-.19 1.002-.594.606-1.401-.087-1.402-.187l-5.761-6.244c-.101-.099-.709-.893-.115-1.499a.77.77 0 0 1 .999-.11c1.006.59 1.104.389 1.897-.318l13.974-12.938h0zm3.741 14.365a.92.92 0 0 1-1.298-.085c-.608-.597-.115-1.302.28-1.805.988-1.31 2.172-2.922 1.853-4.818l1.288-1.212 2.932 3.172-5.055 4.748h0zm-7.682-18.526l2.932 3.172-1.288 1.212c-1.904-.382-3.594.635-4.985 1.549-.596.406-1.193.812-1.798.217a.87.87 0 0 1-.083-1.228c.022-.025.046-.05.071-.072l5.151-4.85h0zm11.112 21.593l-8.335 6.582c-1.488 1.215-1.483 1.815-.872 2.809.305.497.509.895.112 1.299-.493.705-1.299.112-1.702-.283l-2.821-2.072c-.504-.395-1.31-.988-.817-1.693s.797-.307 1.599-.116 1.801.083 3.487-1.334l10.717-8.505.101.099-1.469 3.214zm-2.811 9.128l-3.526-2.566 1.389-1.113 2.922 2.172 5.378-12.553 1.289-1.112 5.339 3.948-7.624 17.975c-.393.804-.688 1.307-.179 2.101.204.398.407.796.012 1.2-.493.705-1.3.012-1.804-.383l-6.044-4.441c-.504-.395-1.109-.889-.716-1.593.296-.403.496-.405.997-.31.901.091 1.1-.011 1.589-1.116l.978-2.21v.001zm21.983-1.816c.39-1.004.488-1.205-.418-1.896-.303-.297-.506-.595-.31-.997.293-.803 1.295-.512 1.395-.513l7.526 2.627-6.323 18.063c-.39 1.004-.488 1.205.418 1.896.303.297.506.595.31.997-.293.803-1.295.512-1.395.513l-8.028-2.822a1 1 0 0 1-.737-1.207c.007-.029.015-.058.025-.086a.72.72 0 0 1 .879-.514c1.116.093 1.115-.107 1.504-1.211.099 0 5.254-14.851 5.154-14.85h0zm9.398-.291l.101.099c1.807.683 3.812 1.262 5.227 2.649a5.21 5.21 0 0 1 1.256 5.688c-1.067 3.311-3.762 3.937-6.866 3.567v.1c2.412 1.277 4.528 2.856 3.557 5.866l-.876 2.509c-.097.301-.393.804.009.9s.794-.607 1.496-.415a.85.85 0 0 1 .514 1.087h0c-.296.812-1.588 1.524-2.386 1.831-1.174.379-2.441.356-3.601-.065a4.92 4.92 0 0 1-2.822-2.273 5.05 5.05 0 0 1 .161-4.001l.682-1.906c.488-1.305.972-2.91-.636-3.694l.583-1.706c1.604.384 2.095-.521 2.582-1.826l1.167-3.412c.487-1.405.478-2.205-.832-3.192l.683-1.807.001.001zm10.634 3.396l7.91.923-2.482 22.325-7.91-.923c-.1.001-1.102-.189-1.011-1.09a.85.85 0 0 1 .793-.707c1.098-.211 1.096-.411 1.185-1.512l1.748-15.618c.089-1.101.188-1.302-.817-1.693-.36-.153-.598-.503-.609-.894a.94.94 0 0 1 1.028-.844c.056.006.111.017.165.033h0zm9.21 1.01l6.707.734-.64 6.106c.002.2-.093.701-.994.61-.501-.095-.604-.394-.707-.793a5.75 5.75 0 0 0-4.448-4.856l.082-1.801h0zm-2.298 20.623a6.08 6.08 0 0 0 5.563-3.755c.296-.403.491-.905.993-.81a.75.75 0 0 1 .793.705c.008.135-.021.269-.082.388l-.641 6.006-6.907-.733a11.2 11.2 0 0 0 .283-1.803l-.002.002zm1.195-10.712a3.26 3.26 0 0 0 2.377-2.423 1.17 1.17 0 0 1 1.091-.911c.901.091.612 1.194.613 1.394l-.738 6.407c.002.2.012 1.3-.888 1.209a1 1 0 0 1-.811-1.093 3.22 3.22 0 0 0-1.828-2.883l.183-1.702v.002zm18.897-10.586c1.099-.111 3.509.866 4.307.757.5-.005.598-.206.794-.607s.293-.703.793-.707c.999-.11 1.007.79 1.11.989l.667 6.894a1 1 0 0 1-.765 1.189c-.041.009-.082.015-.123.019-.599.106-1.004-.39-1.21-.988-.723-2.393-2.452-5.377-5.357-5.848l-.217-1.698h.001zm7.555 15.727c.599-.106.904.391 1.009.89.224 2.498-3.037 6.43-6.236 6.561l-.217-1.698a6.16 6.16 0 0 0 4.454-4.744c.094-.5.289-1.002.99-1.009h0zm-6.626 7.666c-6.595.565-10.241-4.2-10.801-10.295-.667-6.894 2.781-12.228 8.473-12.984l.217 1.698c-1.396.413-1.783 1.717-1.671 3.017l1.439 14.186a2.68 2.68 0 0 0 2.227 2.678l.117 1.699-.001.001zm14.955-25.147a2 2 0 0 0-.776 2.507l4.845 14.754a2 2 0 0 0 2.116 1.579l.517 1.695c-6.186 1.461-10.625-2.496-12.58-8.177s-.712-11.494 5.262-14.052l.617 1.694h-.001zm7.481 18.427a2 2 0 0 0 .776-2.507l-4.845-14.753a2 2 0 0 0-2.116-1.579l-.517-1.695c6.186-1.461 10.625 2.496 12.58 8.177s.712 11.494-5.262 14.052l-.617-1.694.001-.001zm21.782-8.734l-3.705 2.191-14.765-13.737c-.698-.602-.598-.802-1.498-.703a1.16 1.16 0 0 1-.999-.402c-.498-.901.603-1.498 1.205-1.797l5.708-3.386c.601-.398 1.703-1.196 2.3-.294s-.803 1.198-.206 2.299c.169.258.371.493.598.702l9.776 9.325 1.585 5.804.001-.002zm-4.474-10.311l-1.884-6.605a3.56 3.56 0 0 0-.397-1.101 1.5 1.5 0 0 0-1.798-.805c-.5.099-1.001.198-1.299-.404-.498-.801.504-1.399 1.004-1.698l2.804-1.693c.6-.298 1.502-.997 2.001-.195.298.6-.002.9-.304 1.3-.419.51-.666 1.139-.705 1.798-.008.711.092 1.419.295 2.1l2.576 9.306h-.1l-2.193-2.003h0zm1.474-15.267l5.712-5.492 15.465 16.354-5.712 5.492c-.099.101-.889.715-1.498.124a.77.77 0 0 1-.116-.998c.584-1.009.382-1.107-.33-1.894l-10.786-11.528c-.812-.787-.916-.985-1.908-.47-.397.207-.797.212-1.003-.184-.51-.592.078-1.301.176-1.404h0zm6.698-6.408l4.827-4.579 4.172 4.434c.101.099.51.592-.181 1.203-.393.407-.697.211-1.1.018a5.72 5.72 0 0 0-6.595.306l-1.123-1.382zm14.244 15.073a6.24 6.24 0 0 0 .692-6.712c-.208-.497-.316-.995.079-1.301a.77.77 0 0 1 1.083-.111.79.79 0 0 1 .221.29l4.17 4.334-5.024 4.781-1.221-1.281h0zm-7.326-7.784c.682-1.111.263-2.304-.255-3.397-.208-.497-.416-.993-.022-1.4.69-.611 1.305.279 1.507.376l4.476 4.729c.203.197 1.015.884.324 1.495-.493.408-.897.215-1.401-.078a3.1 3.1 0 0 0-3.308-.447l-1.321-1.278h0zm2.509-11.941c-.909-.585-1.112-.782-1.901-.07a.77.77 0 0 1-.998.116c-.708-.489-.221-1.297-.222-1.397l4.293-6.67 15.969 10.445c.909.585 1.112.782 1.901.07a.77.77 0 0 1 .998-.116c.708.489.221 1.297.222 1.397l-4.687 7.076c-.099.101-.685.911-1.393.422-.403-.193-.41-.593-.316-.995.282-1.105.182-1.103-.829-1.787l-13.037-8.491zm1.954-9.132l.099-.101a13.41 13.41 0 0 1 3.83-4.362 5.31 5.31 0 0 1 5.802.107c2.93 1.853 2.973 4.553 1.821 7.572l.1-.001c1.767-2.028 3.84-3.762 6.568-2.006l2.224 1.464c.203.197.709.589.903.185s-.416-.993-.026-1.6a.93.93 0 0 1 1.197-.219c.735.739 1.147 1.74 1.145 2.782.091 1.214-.243 2.421-.945 3.416-.623 1.119-1.709 1.905-2.966 2.148-1.361.184-2.737-.19-3.817-1.039l-1.717-1.073c-1.112-.782-2.627-1.658-3.704-.24l-1.516-.975c.778-1.412.065-2.201-1.148-2.982l-3.031-1.952c-1.212-.781-2.016-.967-3.3.053l-1.519-1.177zm17.335-16.681l-2.743-2.656a4.13 4.13 0 0 0-1.316-.979c-1.711-.673-1.775 1.529-2.983 1.048-1.007-.384-.424-1.493-.235-2.197l1.151-3.119c.29-.605.578-1.409 1.482-1.124a1 1 0 0 1 .616.99c-.046 1.093.459 2.137 1.345 2.779l5.081 5.019-2.398.239h0zm2.635 8.458l-11.694.488c-.534-.066-1.073.087-1.493.424a.91.91 0 0 1-1.095.318c-.905-.285-.519-1.192-.229-1.797l2.589-6.943c.19-.603.474-1.608 1.381-1.222.321.196.545.52.615.89.107.399.11.599.512.792.395.076.799.104 1.201.081l9.292-.549 6.539 2.396c1.007.384 1.208.481 1.893-.43.295-.305.592-.51.995-.316.805.288.521 1.292.522 1.392l-2.973 7.949c.001.1-.484 1.008-1.289.72a.76.76 0 0 1-.515-.892c.082-1.101-.118-1.099-1.124-1.482l-5.13-1.818h.003z" fill="#eb2027"/><path d="M142.876 25.652c-.003.996-.206 1.991-1.402 1.987-.996-.003-1.391-.802-1.488-1.698-.476-3.39-2.876-6.196-6.152-7.192l.108-2.39c2.689.108 5.373 1.712 5.87 1.813 1.096.004 1.001-1.491 2.096-1.487 1.295.005 1.191 1.498 1.189 1.797l-.221 7.17h0zM29.879 79.307c3.061-6.394 10.122-9.592 20.071-5.339 9.061 3.93 11.213 12.855 8.156 19.051l-2.164-1.055c.864-2.468-1.297-3.622-2.675-4.256l-16.032-7.804c-1.475-.737-3.644-1.593-5.097.561a24.93 24.93 0 0 0-2.261-1.157h.002zm27.482 15.484l-4.64 9.54c-.42.786-.944 1.768-2.026 1.241-.478-.251-.744-.779-.662-1.313.239-1.488-.057-1.596-1.435-2.23l-19.869-9.6c-.59-.315-1.571-.839-2.085-.255s-1.13 1.265-2.016.843-.657-1.512-.24-2.199l4.742-9.637 28.23 13.611.001-.001zM47.293 65.326c-.874-.82-.972-.923-1.984-.353-.404.189-.805.277-1.095-.029-.403-.375-.425-1.005-.05-1.408.029-.03.059-.059.091-.086l5.647-6.225L64.88 70.879c.874.82.972.923 1.984.353.404-.189.805-.277 1.095.029.403.375.425 1.005.05 1.408-.029.03-.059.059-.091.086l-6.059 6.713c-.102.097-.82.874-1.502.259a.91.91 0 0 1-.17-1.101c.527-1.082.331-1.187-.544-2.007l-12.35-11.293zm3.635-9.268c1.539-1.653 2.879-3.31 4.892-4.054a5.51 5.51 0 0 1 6.047 1.158c2.723 2.464 2.247 5.341.676 8.189l.1.003c2.241-1.833 4.671-3.262 7.201-1.003l2.043 1.848c.193.205.578.713.886.422s-.269-1.104.245-1.687c.366-.317.9-.344 1.297-.065.681.616.837 2.215.813 3.111-.297 2.683-2.357 4.832-5.023 5.246a5.2 5.2 0 0 1-3.837-1.797l-1.556-1.436c-1.069-1.025-2.433-2.158-3.862-.901l-1.362-1.233c1.033-1.367.46-2.28-.708-3.307l-2.821-2.567c-1.165-1.127-1.956-1.348-3.471-.591l-1.558-1.337-.002.001zm32.411-1.022c.67 1.015.767 1.117 1.873.748.393-.197.869-.053 1.088.328.578.713-.337 1.386-.438 1.483l-7.512 5.179c-.102.097-1.015.67-1.491-.139-.267-.336-.21-.824.126-1.09l.001-.001c.725-.978.628-1.08-.145-1.998l-9.595-13.709c-.67-1.015-.767-1.117-1.873-.748-.393.197-.869.053-1.088-.328-.578-.713.337-1.386.438-1.483l7.413-5.181c.102-.097 1.015-.67 1.491.139.267.336.21.824-.126 1.09l-.001.001c-.725.978-.628 1.08.145 1.998l9.694 13.711h0zm13.13-2.936l-4.139 1.981-14.315-16.028c-.678-.716-.576-.813-1.571-.839-.404.042-.792-.166-.982-.524-.474-.909.737-1.475 1.445-1.855l6.359-3.017c.705-.28 1.924-1.144 2.495-.132s-.931 1.271-.463 2.379a4.17 4.17 0 0 0 .576.813l9.474 10.816 1.121 6.406h0zm-3.78-11.36l-1.301-7.209a2.83 2.83 0 0 0-.366-1.205c-.291-.749-1.073-1.188-1.865-1.047-.6.083-1.098.07-1.381-.536-.474-.909.635-1.378 1.24-1.66l3.129-1.511c.606-.283 1.619-.953 2.094-.044.283.606-.024.896-.436 1.384a2.83 2.83 0 0 0-.947 1.868 5.79 5.79 0 0 0 .138 2.296l1.821 10.112-.1-.003-2.025-2.445zm3.936-14.738l8.183-2.027 5.693 23.253-8.183 2.027c-.1-.001-1.197.19-1.389-.709-.09-.409.122-.825.506-.992 1.001-.59.903-.79.613-1.888l-3.956-16.267c-.289-1.197-.288-1.297-1.483-1.406a.86.86 0 0 1-.891-.704c-.292-.898.707-1.189.907-1.288v.001zm9.577-2.315l6.886-1.738 1.544 6.287c-.002.199.193.799-.804.989-.425.117-.863-.132-.98-.557h0l-.012-.048c-1.219-2.262-3.699-3.547-6.25-3.237l-.385-1.696h.001zm5.208 21.456c2.4-.918 4.023-3.177 4.129-5.744.103-.497.208-1.094.707-1.189.998-.291 1.09.706 1.189.806l1.545 6.187-7.185 1.737-.385-1.797h0zm-2.699-11.078c1.073-.727 1.658-1.986 1.52-3.275.005-.598.108-1.095.708-1.289.998-.192 1.089.905 1.186 1.205l1.641 6.686c.098.3.487 1.299-.51 1.59-.699.193-.994-.306-1.288-.807-.467-1.217-1.576-2.071-2.871-2.214a12.85 12.85 0 0 0-.383-1.895l-.003-.001zm24.003-15.293c-1.644.346-2.895 1.687-3.126 3.352-.023 2.092 1.059 3.299 5.915 5.446 7.336 3.071 8.884 7.072 8.741 10.956-.173 6.472-5.697 10.594-11.973 10.523l.127-2.389c1.999-.576 3.801-1.451 3.927-3.741.128-2.588-2.945-3.819-4.927-4.737-5.253-2.35-10.005-4.894-9.831-11.467.172-6.373 4.896-10.205 11.072-10.234l.074 2.292.001-.001zm-11.385 19.893c.01-.896.222-2.089 1.417-1.976.769.051 1.392.646 1.478 1.411.46 3.392 2.703 7.6 6.379 8.439l-.127 2.389c-3.682-.241-4.364-1.643-5.857-1.76-1.295-.015-1.211 1.381-2.306 1.269-1.295-.015-1.277-1.608-1.274-1.808l.29-7.964h0zm35.73-5.673l-6.183 9.493c-1.115 1.681-.824 2.381.064 3.188.394.403.789.707.583 1.302-.308.893-1.201.484-1.797.278l-3.473-1.135c-.595-.206-1.686-.617-1.378-1.411s.703-.49 1.502-.681 1.799-.577 3.018-2.555l7.907-12.163.1.001-.341 3.682-.002.001zm.378 10.165l-4.467-1.445 1.014-1.583 3.673 1.138 1.159-14.43.913-1.484 6.749 2.168-1.529 20.701c-.109.895-.216 1.491.475 2.097.411.247.609.737.484 1.201-.308.794-1.3.483-1.896.277l-7.543-2.376c-.595-.206-1.488-.514-1.18-1.308.114-.365.427-.632.805-.688.899-.189 1.1-.386 1.214-1.68l.129-2.588zm14.793 13.415l-4.059-2.237 4.619-20.965c.209-.894.31-.993-.18-1.696-.273-.305-.308-.753-.087-1.097.508-.891 1.697-.28 2.289.125l6.138 3.356c.693.406 2.082.92 1.472 1.909s-1.592-.117-2.203 1.071c-.162.274-.266.577-.308.893l-3.246 14.009-4.435 4.632zm6.983-9.683l5.039-5.222a3.9 3.9 0 0 0 .808-.987c.475-.662.355-1.578-.275-2.095-.394-.403-.688-.805-.382-1.399.508-.891 1.498-.282 2.091.023l3.068 1.728c.595.306 1.684.816 1.176 1.707-.306.595-.802.489-1.4.482a2.68 2.68 0 0 0-2.096.375c-.687.378-1.3.877-1.809 1.474l-7.156 7.39-.1-.001 1.035-3.475h.001zm13.811-5.522l6.413 5.451-15.447 18.253-6.413-5.451c-.098-.101-.887-.806-.282-1.498.254-.35.742-.433 1.098-.187 1.091.411 1.192.312 1.899-.576l10.802-12.727c.806-.887.907-.986.322-1.989-.195-.401-.289-.8.012-1.096.273-.477.882-.643 1.359-.369h0c.088.051.168.114.237.189zm7.591 6.362l5.426 4.643-4.139 4.933c-.101.098-.505.592-1.295-.015-.394-.403-.291-.7-.186-1.198 1.136-2.282.729-5.029-1.018-6.884l1.212-1.479zM186.284 64.5c2.191 1.388 4.988 1.381 7.172-.019.501-.194 1.001-.487 1.396-.083.382.269.473.797.204 1.179-.06.084-.134.157-.22.215l-4.139 4.834-5.624-4.745 1.211-1.381zm7.465-8.681c1.196.452 2.544.198 3.494-.658.501-.293 1.003-.587 1.496-.183.79.607-.116 1.393-.317 1.591l-4.442 5.229c-.202.197-.81 1.186-1.501.581-.494-.404-.288-.999-.083-1.495a3.34 3.34 0 0 0 .14-3.584l1.212-1.48.001-.001zm15.98 5.659c1.004-.686 1.105-.784.818-1.883-.135-.394-.01-.829.311-1.093.802-.489 1.391.315 1.49.415l4.802 6.928-16.667 11.665c-1.004.686-1.105.784-.818 1.883.135.394.01.829-.311 1.093-.802.489-1.391-.315-1.49-.415l-5.096-7.428c-.098-.101-.587-1.003.116-1.493.333-.272.822-.222 1.093.11.89.708 1.09.611 1.994-.076l13.758-9.706h0zm8.2 5.57l.098.101c1.176 1.707 2.452 3.415 2.827 5.51a5.37 5.37 0 0 1-2.454 5.65c-3.012 2.157-5.69 1.131-8.156-1.089l-.1-.001c1.266 2.604 2.131 5.303-.58 7.265l-2.308 1.568c-.202.197-.802.489-.607.79s1.097-.087 1.587.615c.23.43.142.96-.214 1.292a4.39 4.39 0 0 1-3.188.064 5.92 5.92 0 0 1-3.062-2.326 4.49 4.49 0 0 1-.954-3.696 5.22 5.22 0 0 1 2.628-3.357l1.808-1.274c1.205-.883 2.611-1.864 1.734-3.566l1.506-1.079c1.081 1.307 2.082.92 3.386.038l3.113-2.255a2.62 2.62 0 0 0 1.332-3.272l1.604-.978h0zm11.092 23.733a2.89 2.89 0 0 0-3.273-1.232c-1.501.581-2.011 1.671-2.057 5.754-.068 6.075-2.385 8.34-5.185 9.304-4.602 1.741-9.053-.999-10.896-5.402l1.701-.678c.981 1.306 2.067 2.214 3.765 1.736 1.9-.675 1.828-3.167 1.947-4.858.149-4.381.593-8.46 5.296-10.299 4.502-1.742 8.561.495 10.404 4.899l-1.702.776h0zm-1.803 9.74c-.701.291-1.498.382-1.788-.419s.213-1.192.813-1.485c2.263-1.314 3.54-3.836 3.261-6.438l1.701-.678c.675 1.9.251 4.286.445 4.686.289.8 1.391.315 1.681 1.115s-.712 1.287-.913 1.385l-5.2 1.834h0zm-15.401-12.026c.6-.192 1.499-.481 1.788.419.169.579-.086 1.197-.614 1.487-2.206 1.27-4.529 4.132-4.162 6.925l-1.701.678c-.967-2.6-.059-3.587-.445-4.686s-1.289-.513-1.58-1.213c-.389-.901.813-1.385.913-1.385l5.801-2.225zm18.662 24.06a5.09 5.09 0 0 1-2.176-.529c-1.216-.596-2.144-1.654-2.574-2.938a5.11 5.11 0 0 1 3.196-6.473c1.282-.439 2.686-.346 3.899.258a5.07 5.07 0 0 1 2.346 6.776l-.03.06a5.07 5.07 0 0 1-2.938 2.574 5.1 5.1 0 0 1-1.723.272zm.151-9.175c-2.25-.033-4.101 1.764-4.134 4.013-.007.463.066.923.213 1.362a4.04 4.04 0 0 0 2.052 2.341c.967.479 2.085.553 3.106.206a4.04 4.04 0 0 0 2.566-5.105l-.018-.053v-.001a4.04 4.04 0 0 0-2.051-2.341c-.539-.268-1.132-.412-1.734-.422h0zm.237 3.581c.171.498.413.713.917.542.494-.167.549-.494.383-.984l-.186-.55-1.3.44.186.552m-1.084-.246l-1.914.648-.442-1.305 5.06-1.715.675 1.993c.226.668.278 1.192.157 1.578-.114.389-.416.661-.903.826-.334.114-.635.128-.906.039s-.509-.276-.719-.572c.016.199-.024.399-.117.576-.095.191-.262.406-.508.648l-1.192 1.197-.47-1.389 1.047-1.044c.512-.464.502-.887.232-1.48"/><defs ><path id="B" d="M33.575 110.492c-1.099.502.997-1.902.997-1.902a3 3 0 0 1 2.9.195c.636.416 1.209.92 1.703 1.497-1.148-.45-2.368-.685-3.601-.694-1 .202-1.1.602-1.999.904z"/></defs></svg>