<?xml version="1.0" encoding="UTF-8" standalone="yes"?>
<svg version="1.2" baseProfile="tiny-ps" viewBox="0 0 415.53 415.53" xml:space="preserve" xmlns="http://www.w3.org/2000/svg">
  <title>bimi-svg-tiny-12-ps</title>
  <path fill="#5F6369" d="M388.78,159.97h2.11v6.4h-1.36v-4.33c0-0.12,0-0.3,0.01-0.52c0-0.22,0-0.4,0-0.52l-1.33,5.37h-1.42&#xD;&#xA;&#x9;l-1.32-5.37c0,0.12,0,0.29,0,0.52c0,0.22,0.01,0.4,0.01,0.52v4.33h-1.36v-6.4h2.13l1.28,5.03L388.78,159.97z"/>
  <path fill="#5F6369" d="M205.24,159.59h85.1v12.26h-35.51v84.1h-14.66v-84.1h-34.93V159.59z"/>
  <path fill="#5F6369" d="M296,255.95v-96.2h49.89c9.72,0,17.48,2.48,23.26,7.43c5.78,4.95,8.68,11.6,8.68,19.94&#xD;&#xA;&#x9;c0,5.59-1.49,10.54-4.45,14.85c-2.96,4.31-7.02,7.91-12.18,9.86c-5.15,1.95-12.55,2.92-22.17,2.92h-28.38v41.2H296z M343.34,171.99&#xD;&#xA;&#x9;h-32.68v30.05h33.56c5.93,0,10.5-1.32,13.71-3.95c3.21-2.63,4.81-6.41,4.81-11.31C362.73,176.92,356.26,171.99,343.34,171.99z"/>
  <path fill="#5F6369" d="M383.27,159.97v1.13h-2.1v5.27h-1.47v-5.27h-2.11v-1.13H383.27z"/>
  <path fill="#5F6369" d="M115.16,159.77h13.86v96.18h-12.54l-68.11-74.07v74.07H34.65v-96.18h11.81l68.69,74.7V159.77z"/>
  <polygon fill="#82C341" points="199.1,234.81 182.12,199.32 165.51,234.81 "/>
  <polygon fill="#5F6369" points="182.11,178.86 217.75,255.83 232.29,255.83 186.62,159.87 176.37,159.87 132.61,255.83 &#xD;&#xA;&#x9;146.58,255.83 "/>
</svg>