<?xml version="1.0" encoding="UTF-8"?>
<svg version="1.2" baseProfile="tiny-ps" id="Layer_1" xmlns="http://www.w3.org/2000/svg" xmlns:xlink="http://www.w3.org/1999/xlink" width="140" height="37" viewBox="0 0 140 37" fill="none">
    <title>Your Brand</title>
        <path d="M35.4371 34.8056H28.1036V3.06587H35.4371V34.8056ZM59.3811 18.0671C62.1987 18.8689 65.5063 20.7009 65.5063 25.7403C65.5063 31.5871 61.1908 34.8056 53.3617 34.8056H42.225V3.06587H53.6067C60.6062 3.06587 64.3036 5.87789 64.3036 11.1957C64.3036 15.0434 61.8034 17.0202 59.3978 18.0002L59.3811 18.0671ZM49.5863 15.7116H52.4708C55.255 15.7116 57.2651 14.598 57.2651 12.0644C57.2651 10.366 56.2294 8.34468 52.6601 8.34468H49.5863V15.7116ZM52.7492 29.2428C55.9399 29.2428 58.0614 27.9899 58.0614 25.228C58.0614 22.3046 55.9566 21.0239 52.6601 21.0239H49.5863V29.2428H52.7492ZM89.8345 27.3941C88.408 28.5147 86.6366 29.1052 84.823 29.0646C79.7391 29.0646 76.3646 25.1667 76.3646 18.9691C76.3646 12.6713 79.7335 8.82356 84.823 8.82356C86.4904 8.77269 88.1294 9.26303 89.4949 10.2212L93.2925 5.05934C90.9315 3.47793 88.6151 2.50346 84.127 2.50346C74.3767 2.50346 68.7917 9.10755 68.7917 18.9691C68.7917 29.0813 74.6162 35.3847 84.127 35.3847C90.1965 35.3847 92.5519 33.3021 93.6322 32.5615L89.8345 27.3941ZM20.9705 27.4442C19.5634 28.542 17.8149 29.1098 16.0313 29.0479C10.9474 29.0479 7.57299 25.15 7.57299 18.9524C7.57299 12.6546 10.914 8.80686 16.0313 8.80686C17.6989 8.75478 19.3383 9.24523 20.7032 10.2045L24.5008 5.04264C22.1398 3.46122 19.8234 2.48676 15.3353 2.48676C5.56837 2.48676 0 9.09085 0 18.9524C0 29.0646 5.82452 35.368 15.3353 35.368C21.4048 35.368 23.7602 33.2854 24.8405 32.5448L20.9705 27.4442Z" fill="#C41F3E" />
        <path d="M127.811 2.37539C127.487 1.92992 127.059 1.57127 126.563 1.33132C126.068 1.09137 125.521 0.977555 124.971 1H113.166C113.724 0.977229 114.279 1.09476 114.78 1.34184C115.281 1.58893 115.712 1.95768 116.034 2.41437C117.225 4.00135 128.201 18.9524 128.201 18.9524C128.201 18.9524 117.225 33.8979 116.034 35.4905C115.711 35.9462 115.28 36.3138 114.779 36.5599C114.278 36.806 113.724 36.9227 113.166 36.8993H124.971C125.521 36.9224 126.067 36.8094 126.563 36.5705C127.058 36.3315 127.487 35.9739 127.811 35.5295L140 18.9524L127.811 2.37539Z" fill="#C41F3E" />
        <path d="M119.068 6.51827C117.571 4.49138 116.39 2.88769 116.034 2.41438C115.712 1.95769 115.281 1.58894 114.78 1.34186C114.279 1.09477 113.724 0.977241 113.166 1.00001C112.615 0.976635 112.067 1.09 111.57 1.32998C111.074 1.56997 110.645 1.92913 110.321 2.3754L98.1314 18.9524L110.321 35.5239C110.645 35.9692 111.075 36.3272 111.571 36.5662C112.068 36.8052 112.616 36.9177 113.166 36.8937C113.724 36.9171 114.278 36.8005 114.779 36.5544C115.28 36.3083 115.711 35.9406 116.034 35.4849L119.068 31.3755L109.931 18.9524L119.068 6.51827Z" fill="#8B1D41" />
</svg>
