<?xml version="1.0" encoding="utf-8"?>
<!-- Generator: Adobe Illustrator 26.3.1, SVG Export Plug-In . SVG Version: 6.00 Build 0)  -->
<svg version="1.2" baseProfile="tiny-ps" id="Layer_1" xmlns="http://www.w3.org/2000/svg" xmlns:xlink="http://www.w3.org/1999/xlink"
 viewBox="0 0 256 256" xml:space="preserve">
<title>QA Wolf</title>
<rect fill="#3D3DF5" width="256" height="256"/>
<path fill-rule="evenodd" fill="#FFFFFF" d="M201.2,135.1c1-36.2-5-57.4-12.7-68.6c-0.1-0.1-0.1-0.2-0.2-0.3
c-4.3-6.2-9.2-9.2-13.6-10l-0.5-0.1c-0.3,0-0.7,0-1,0c-12.5,0.9-30.8,39.1-30.8,39.1c-10.2-1-20.5-1-30.8,0c0,0-19.8-41.3-32.3-39.1
c-12.5,2.3-27.7,22.1-26.1,79.1c0,0-8.5,7.8-8.2,12.7c0.3,3.9,5.9,7,5.9,7s-5.4,6-3.4,13.4c3.5,12,23.2,20.5,34.4,24.2
c31.1,10.3,61.9,10.6,93,0.2c11.8-3.9,25.2-11.4,30.9-22.9c0.1-0.2,0.2-0.4,0.3-0.6c0.1-0.2,0.1-0.2,0.2-0.3l0.1-0.2
c0-0.1,0-0.2,0.1-0.2c0,0,0-0.1,0-0.1c0.1-0.6,0.3-1.1,0.4-1.7c0.2-1.3,0.1-2.5-0.1-3.8c-0.1-0.3-0.1-0.7-0.2-1
c-0.1-0.5-0.2-0.9-0.4-1.4c-0.7-2-1.7-3.9-3.1-5.6h0.1c0.3-0.1,5.5-1.9,6.7-6.5c0.1-0.5,0.2-1,0.2-1.6v-0.2
C210.2,141,201.2,135.1,201.2,135.1z M99.8,124.9c4.9,1,7.8,7.3,6.4,14.2c-1.4,6.8-6.5,11.5-11.4,10.5c-4.9-1-7.8-7.3-6.4-14.2
C89.7,128.6,94.8,123.9,99.8,124.9z M148.8,139c-1.4-6.8,1.5-13.1,6.4-14.2s10.1,3.7,11.4,10.5c1.4,6.8-1.5,13.1-6.4,14.2
S150.2,145.9,148.8,139z M127.5,145.4c8.9,0,16.2,4.7,16.2,10.4c0,3.6-5.1,9.1-11,10.6c-3.3,0.8-6.7,0.7-10-0.3
c-6.3-1.5-11.4-6.8-11.4-10.4C111.3,150,118.6,145.4,127.5,145.4z M153.4,162.6c-0.2-0.3-0.4-0.6-0.8-0.7c-0.3-0.2-0.7-0.2-1-0.2
c-0.4,0.1-0.7,0.2-0.9,0.5c-0.3,0.2-0.4,0.6-0.5,0.9l0,0.1v0.1c-0.4,2.2-1,4.3-1.9,6.4c-0.7,1.6-1.9,2.9-3.3,3.9
c-1.8,1-3.7,1.7-5.8,2c-0.6,0.1-1.2,0.2-1.8,0.2l0,0c-0.6,0.1-1.1,0.2-1.7,0.2c-1.3,0.1-2.6,0.2-3.8,0.4h-0.1l-0.1,0
c-0.4,0.1-0.7,0.3-1,0.5c-0.3,0.3-0.4,0.6-0.5,1s0,0.8,0.2,1.1c0.2,0.3,0.5,0.6,0.8,0.7l0,0c1.3,0.5,2.6,1,4,1.4l0,0
c1.4,0.3,2.8,0.5,4.2,0.7l0,0c3.2,0.2,6.3-0.5,9.1-2l0,0c1.5-0.9,2.9-2,3.9-3.4c1-1.4,1.8-3,2.2-4.6l0,0c0.2-0.8,0.3-1.6,0.3-2.4
l0-0.1c0-0.8,0-1.5-0.1-2.3C154.6,165.5,154.1,164,153.4,162.6z"/>
</svg>