<?xml version="1.0" encoding="utf-8"?>
<!-- Generator: Adobe Illustrator 28.2.0, SVG Export Plug-In . SVG Version: 6.00 Build 0)  -->
<svg version="1.2" baseProfile="tiny-ps" id="Layer_2_00000054248769659250615480000010491200401773815944_"
	 xmlns="http://www.w3.org/2000/svg" xmlns:xlink="http://www.w3.org/1999/xlink" viewBox="0 0 472 235"
	 xml:space="preserve">
	 <title>WENTY LEAGUES</title>
<g id="Layer_1-2">
	<g>
		<path fill="#FDFDFD" d="M44.9,0H472v235H0V0h34.9c0,0.3,0,0.6,0,1c-0.8,0.1-1.7,0.2-2.4,0.4c-7.5,2.4-13,7.3-17.6,13.5
			c-0.3,0.7-0.6,1.4-0.9,2.1l0.1-0.1l-1.6,1.1c-1.3,2.3-3,4.5-3.9,7c-1.9,4.9-4.1,9.7-4.5,15c-0.5,3.6-1,7.2-1.4,10.8
			c-1.1,9.4-1.4,18.9,1.1,28.1c5.1,19.1,14,36.5,24.9,53c3.2,4.9,7.3,9,12,12.4c5.5,4.1,6.3,6.4,4.4,13.1c-2,2.9-4.1,5.9-6.1,8.8
			c-1.7,2-3.3,4-5,6c-2.1,1.9-4.5,3.5-6.1,5.7c-4.5,6-10.7,5.8-17,5.3c-1.1-0.1-2.2-0.5-3.3-0.8c-1.8,1.4-4.8,0.5-5.7,3.3
			c1.7,0.9,3.3,1.7,4.2,2.2c6.7,0,12.6,0.4,18.5-0.1c4.3-0.3,8.4-1.1,12.7,0.2c2.4,0.8,5.2,1.4,7.2-1.3c0.5,0.6,0.8,1.2,1.2,1.7
			c0.7-1,1.2-1.6,1.5-2.1c2.1-0.4,4-0.7,5.9-1.1c6.4,0.5,12.8,0.9,20,1.5c0.8-0.7,2.2-1.9,3.9-3.4c0.7,0.2,1.6,0.5,2.5,0.8
			c0.5,0.4,0.9,0.9,1.4,1.3c0.2-0.1,0.4-0.3,0.6-0.4c-0.2-0.7-0.4-1.4-0.6-2c-0.4-2.6-2.4-3.4-4.6-3.5c-1.4-0.1-2.9,0.3-4.3,0.5
			c-2.8,0.3-5.5,2-8.7,1c0-0.9,0.1-1.7,0.1-2.5c0.6-2,1.2-4,1.8-6c0.9-2.7,1.9-5.3,2.8-8c0.6-1.1,1.2-2.2,2-3.7
			c0.8,1.1,1.5,1.8,2,2.6c5.8,8.5,11.4,17.1,17.3,25.5c2.3,3.2,4,6.5,4.7,10.3c1.2,7,2.2,14,3.2,21.1c0.6,4.3,1,8.6,1.5,13.2
			c3.5-1,5.2-3,6.7-5.7v-9.9c0.2-0.1,0.4-0.1,0.5-0.1c1.6,3.8,3.3,7.7,5.1,12c4-4.7,6.7-9.1,5.3-15.4c-2-9.2-3.4-18.5-5.1-27.7
			c10.9-0.1,21.8-0.1,32.5-0.1v-18.9h-17.7c0-4.8,0-9.1,0-13.4c0-4.5,0-8.9,0-13.4c0-4.2-0.1-8.4-0.1-12.9c-4.1,0-7.6-0.1-11.1,0
			c-3.4,0.2-6.9-0.8-10,0.6c-0.6,1.9-1.1,3.6-1.7,5.2c-2.1-6.1-4.2-12.2-6.4-18.2c-2-5.2-4.5-10.2-6.4-15.5c-2-5.6-3.3-11.4-5.3-17
			c-4.5-12.3-10.3-24-19-33.9c-3.1-3.5-6.2-7.3-10.9-9l0.1,0.1c-1.8-3.3-3-6.8-3.2-10.6c-0.3-4.9,1.5-8.4,6-10.3
			c5-2.1,10-4.1,15-6.1c2.1-0.8,4.2-1.6,7.2-2.7c-2-1.4-3.1-2.7-4.5-3.1c-3.1-1-6.3-1.6-9.5-2.4c-0.7-0.2-1.4-0.3-2.1-0.5
			c-5-0.7-10-1.4-15-2.1c-1.3-0.4-2.6-0.8-3.9-1.2C44.8,0.6,44.8,0.3,44.9,0L44.9,0z M281.3,83.5c0.4,0,0.7,0.1,1.1,0.1
			c7.9,13,15.9,25.9,23.5,38.5H333V44.3h-26.9c0.3,13.6-0.8,26.9,1.6,40.2c-0.4,0.1-0.7,0.2-1.1,0.4c-8-13.6-16.1-27.1-24-40.5
			h-27.1v77.9h26.9C282.1,109.2,283.2,96.4,281.3,83.5L281.3,83.5z M116.7,86.6c-0.6,0-1.2-0.1-1.8-0.1c-2.9-14-5.8-28.1-8.7-42.2
			h-30c9.2,26.2,18.2,52.1,27.3,78h24.8c3.3-13.5,6.6-26.9,9.9-40.5c2.9,13.7,5.8,27.1,8.6,40.4H172c7.7-21.6,15.2-42.9,22.8-64.3
			c0.3,0.1,0.6,0.1,0.9,0.2v64h53.3v-21.3h-24.3v-7.4h21.3V73h-21.1v-7.3h23.4c0-3.8,0-7.3,0-10.7c0-3.6-0.1-7.1-0.2-10.8h-78.6
			c-3.5,14.9-6.9,29.5-10.4,44.6c-3.5-15.2-7-30-10.4-44.6h-21.9c-1.6,6.1-3.4,12.1-4.8,18.2C120.2,70.5,118.5,78.5,116.7,86.6
			L116.7,86.6z M430.8,64.4c-3.2-7.2-6-13.8-8.9-20.2h-86.9c0,4.5,0,8.6,0,12.8c0,4.2,0,8.5,0,12.7h15.4v52.4h28.7v-17.6
			c0-6,0-11.9,0-17.9c0-5.7-0.2-11.4,0.1-17.1H395V54c1.2,1.8,1.9,2.6,2.5,3.5c4.4,7.2,8.5,14.6,13.4,21.5
			c4.7,6.7,6.8,13.6,6.1,21.8c-0.6,7-0.1,14.2-0.1,21.4h27.9V89.2c8.9-15.1,18-29.6,26.8-44.9h-32.3
			C436.5,50.9,433.8,57.4,430.8,64.4L430.8,64.4z M249.1,186.1c-6.9-20-13.9-39.3-20.9-58.4H205c-0.5,1-1,2-1.4,3.1
			c-5.4,15.5-10.7,30.9-16.1,46.4c-0.3,1-1,1.9-1.5,2.8l-0.7-0.1v-9.6h-18.3V165h15.2v-15.7H167v-5c3.2,0,6,0.1,8.9,0
			c2.7-0.2,5.6,0.9,8.2-0.8c0.8-5,0.7-11.8-0.2-15.2c-4.2-1.1-34.9-1-38.8,0.2v57.5h62c0.7-2.4,1.4-4.6,2-6.6h15.1
			c1,2.3,2,4.7,2.8,6.8H249.1L249.1,186.1z M305.6,141.9c-3.4-6.2-8.1-9.5-13.8-11.8c-7.1-2.9-14.3-4.2-22.1-2.8
			c-8.4,1.5-15.3,5.1-20.2,12c-5.4,7.6-6.8,16.3-4.7,25.2c1.6,6.9,5,12.7,11.2,16.8c7.6,4.9,15.8,6.7,24.5,5.6
			c6.7-0.8,13.1-3.2,18.3-7.8c8.4-7.3,10-16.9,9.3-27.5h-32.3v14.5c1.6,0,2.7-0.1,3.9,0c1.2,0.1,2.4,0.3,3.9,0.4
			c-4.7,5.8-12.9,4.8-16.2-1.6c-1.8-3.4-2.4-6.9-1.2-10.9c1.2-4.1,3.1-7.7,7.2-8.6c4.3-0.9,9.1-1.2,11.8,3.8
			C292,146.9,298.6,144.5,305.6,141.9L305.6,141.9z M311.5,127.8c-0.1,1.4-0.2,2.3-0.2,3.3c0,11.4,0,22.9,0,34.3
			c0,8.6,4.2,14.9,11.7,18.7c8.7,4.5,17.7,3.9,26.9,1.4c8.2-2.2,15.4-10.4,15.3-20.7c-0.1-11.1,0-22.2,0-33.3c0-1.2-0.2-2.5-0.4-3.9
			c-3.9,0-7.3-0.1-10.8,0c-3.4,0.2-6.9-0.8-10.7,1v4.8c0,9.4,0,18.9,0,28.4c0,2.3,0.2,4.7-2,6.4h-6.6c-2-1.9-2.5-4.1-2.5-6.5
			c0-9.8,0-19.6,0-29.4c0-1.4,0-2.9,0-4.5L311.5,127.8L311.5,127.8z M406.7,164.9v-15.7h-16.2v-5.1h17.6V128
			c-8.1-0.9-35.7-0.6-39.1,0.3c-1,3.9-1,53.8,0,57.6h39.8v-15.9h-18.7c0.2-1.9,0.4-3.4,0.6-5.1L406.7,164.9L406.7,164.9z
			 M410.8,181.4c0.7,0.7,1.1,1.3,1.7,1.6c9.9,4.4,20.3,6,30.8,3c6-1.7,10.8-5.6,13.7-11.4c1.7-3.5,1-7.1,1.1-10.7
			c0-4.5-2.1-8.2-5.9-10.3c-3.4-1.9-7.3-2.9-11-4.2c-2.4-0.9-4.8-1.6-7.1-2.3c-0.1-3.7,2.4-3.7,4.2-4.6c4.2,1.3,8.2,2.5,12.8,3.9
			c1.7-4.6,3.5-9.2,5.5-14.3c-1.9-0.9-3.4-1.8-5-2.5c-5.1-2.5-10.6-2.1-16-2.1c-7.4,0-13.2,3.2-18.3,8.4c-4.3,4.4-4.5,9.7-4,15.2
			c0.1,1.9,0.7,3.9,1.8,5.5c3.3,5,8.5,7,14.2,7.9c3,0.5,6.3,0.5,8,4c-0.9,1.3-1.7,2.4-2.5,3.6c-0.2-0.3-0.4-0.7-0.6-1
			c-6.7,2-11.5-2.7-17.2-5.2C414.6,171.3,412.7,176.4,410.8,181.4L410.8,181.4z M81.5,186.3h-0.4v1.7h0.4V186.3z"/>
		<path fill="#716E6E" d="M34.9,1c0-0.3,0-0.6,0-1h10c-0.1,0.3-0.1,0.6,0.1,0.9C41.6,0.9,38.3,1,34.9,1z"/>
		<path fill="#444345" d="M116.7,86.6c1.8-8.1,3.5-16.1,5.4-24.2c1.4-6.1,3.2-12.1,4.8-18.2h21.9c3.4,14.6,6.8,29.4,10.4,44.6
			c3.5-15.1,6.9-29.8,10.4-44.6h78.6c0.1,3.6,0.1,7.2,0.2,10.8c0,3.5,0,6.9,0,10.7h-23.4v7.3h21.1v20.5h-21.3v7.4h24.3v21.3h-53.3
			v-64c-0.3-0.1-0.6-0.1-0.9-0.2c-7.6,21.3-15.1,42.6-22.8,64.3h-25.2c-2.8-13.2-5.6-26.7-8.6-40.4c-3.3,13.6-6.6,27-9.9,40.5h-24.8
			c-9.1-25.9-18.1-51.7-27.3-78h30c2.9,14.1,5.8,28.2,8.7,42.2c0.3,1.3,0.6,2.6,0.9,3.8c0.3,0,0.5-0.1,0.8-0.1L116.7,86.6
			L116.7,86.6z"/>
		<path fill="#0B0A0A" d="M34.9,1c3.4,0,6.7,0,10.1-0.1c1.3,0.4,2.6,0.8,3.9,1.2c0,0.3,0,0.7,0,1c-2.3,0.4-4.9-0.5-7.5,2.7
			c1.7,1,3.4,2,4.9,2.8c-2.1,4.1-6.1,7-3,11.8c1.6-0.6,3.1-1.1,4.6-1.7c7.3-0.6,13.3-4.8,19.8-7.9l-4.8,0.4c-0.3,0-0.7,0.1-1,0.1
			c-0.9,0-1.8,0-2.7,0c-0.5-0.5-0.9-1-1.4-1.5c0.1-0.5,0.2-0.9,0.4-1.5c2.8-0.5,5.6-0.9,8.8-1.5c-0.6-0.6-0.8-0.8-1.1-1
			c0-0.4,0-0.8,0-1.2C69.1,5.4,72.3,6,75.4,7c1.4,0.5,2.5,1.7,4.5,3.1c-3.1,1.1-5.1,1.9-7.2,2.7c-5,2-10,4-15,6.1
			c-4.5,1.9-6.3,5.4-6,10.3c0.3,3.8,1.4,7.3,3.2,10.6h-7.5c-2.3,1.8-4.4,3.4-3.8,6.7c8.6,3.3,15,9.3,20.2,16.6
			c3.4,4.8,6.6,9.7,9.9,14.6c1.8,3.9,3.5,7.9,5.3,11.8c0.4,1,1.3,1.7,2,2.6c0.6,1.8,0.6,4.2,3.9,4.5c-0.1-1.8-0.2-3.4-0.3-5
			c-2-5-3.9-10-5.9-14.9c-0.1-0.3-0.2-0.7-0.3-1c-0.2-0.3-0.4-0.6-0.6-0.9c0-0.3,0.1-0.7-0.1-1c-5.3-11.3-11.5-22-20.8-30.6
			c-0.9-0.9-2.9-1.4-2.1-3.4c4.7,1.7,7.8,5.5,10.9,9c8.7,10,14.6,21.6,19,33.9c2,5.6,3.3,11.4,5.3,17c1.9,5.3,4.4,10.3,6.4,15.5
			c2.3,6,4.3,12.1,6.4,18.2c1.9,6.6,4.7,12.9,5.8,20c-1.7-0.5-2.8-0.9-3.8-1.2c-0.5-0.3-1-0.6-1.5-0.9c-0.2,0.1-0.5,0.3-0.7,0.4
			c0.7,1.7,1.3,3.4,2,5.1c2.1,9.8,4.1,19.7,6.2,29.5c1.7,9.2,3.1,18.6,5.1,27.7c1.4,6.3-1.3,10.7-5.3,15.4c-1.8-4.3-3.5-8.1-5.1-12
			c-0.2,0.1-0.4,0.1-0.5,0.1v9.9c-1.4,2.7-3.2,4.7-6.7,5.7c-0.5-4.6-0.9-8.9-1.5-13.2c-1-7-1.9-14.1-3.2-21.1
			c-0.7-3.7-2.4-7.1-4.7-10.3c-5.9-8.4-11.6-17-17.3-25.5c-0.5-0.8-1.2-1.5-2-2.6c-0.8,1.5-1.4,2.6-2,3.7c-2-0.3-4-0.7-6-1
			c0-2.9,1.9-5.7,0.1-8.9c-1.1-0.4-2.5-0.8-3.5-1.1c-2.4,2.6-4.4,4.8-6.5,7.1c-2.3-1-4.6-2-6.9-2.9c1.9-6.7,1.2-9-4.4-13.1
			c-4.7-3.5-8.8-7.6-12-12.4c-10.9-16.5-19.7-33.9-24.9-53c-2.5-9.2-2.2-18.7-1.1-28.1c0.4-3.6,1-7.2,1.4-10.8
			c1.1-0.7,2.2-1.2,3.2-2c1.9-1.6,3.6-3.3,5.7-5.3c-0.5-4.2,1.5-7.6,4.8-9.9v-6.9H15c-0.1-0.4-0.1-0.7-0.1-1.1
			C19.4,8.7,25,3.7,32.5,1.3C33.2,1.1,34.1,1.1,34.9,1L34.9,1z M50.9,115.4c0.4,1,0.8,2,1.3,3.1c2,3.2,3.9,6.3,5.8,9.4
			c1.9-0.3,3.1-0.5,4.1-0.7c1-1.2,1.8-2.2,3-3.7c-0.4-2.4-0.9-5.2-1.4-8c-0.7-1.3-1.4-2.7-2.2-4c-1.2-2.1-2.4-4.2-3.5-6.3
			c1.3,0,2.5-0.1,3.8-0.1c2,0.8,4,1.6,6,2.5c2,2.4,4.3,2.4,6.3,1.3c2.9,0.6,5.3,1.2,7.7,1.5c2.5,0.3,5.4,1,6.8-3.2
			c-0.9-1.2-1.9-2.8-3.2-4.3c-1.4-1.6-3-2.9-4.6-4.4c-3.3-3.7-6.6-7.4-9.9-11.1C65.4,80.3,60,73.1,54.6,66c-1.2,1.5-2.2,2.8-3.3,4.2
			c-7.6-1.6-7.7-9.2-12.1-13.8c-0.5,1.7-1.2,3-1.2,4.4c-0.2,5-0.3,9.9-0.3,14.9c0,3.8,1,7.4,3.1,10.7c2.5,4,5,8.1,7.4,12.2
			c0,2.7,0,5.3-0.1,8C47.7,110,49.3,112.7,50.9,115.4L50.9,115.4z M37.5,10.8c-2.6-2.1-4.7-2.6-6.2-1V13
			C35.6,15.3,36.2,15.1,37.5,10.8L37.5,10.8z"/>
		<path fill="#454345" d="M430.8,64.4c3-7.1,5.8-13.6,8.6-20.2h32.3c-8.8,15.3-17.9,29.8-26.8,44.9v33.1h-27.9
			c0-7.3-0.5-14.4,0.1-21.4c0.6-8.2-1.4-15.1-6.1-21.8c-4.9-6.9-9-14.3-13.4-21.5c-0.6-0.9-1.3-1.8-2.5-3.5v15.5h-15.7
			c-0.3,5.6-0.1,11.4-0.1,17.1c0,6,0,11.9,0,17.9v17.6h-28.7V69.8h-15.4c0-4.2,0-8.5,0-12.7c0-4.1,0-8.3,0-12.8H422
			C424.8,50.7,427.6,57.2,430.8,64.4L430.8,64.4z"/>
		<path fill="#434244" d="M281.3,83.5c1.9,12.8,0.8,25.7,1.1,38.8h-26.9V44.4h27.1c7.9,13.3,16,26.9,24,40.5
			c0.4-0.1,0.7-0.2,1.1-0.4c-2.4-13.3-1.3-26.6-1.6-40.2H333v77.8h-27.1c-7.7-12.6-15.6-25.5-23.5-38.5c-0.3-0.4-0.6-0.8-0.8-1.2
			c-0.2-0.2-0.5-0.4-0.7-0.6c-0.1,0.1-0.1,0.2-0.2,0.3c0.2,0.2,0.4,0.5,0.6,0.7C281.1,83.1,281.2,83.3,281.3,83.5L281.3,83.5z
			 M307.6,87.3c0.2,0,0.3,0,0.5-0.1c0-0.5-0.1-1-0.1-1.5c-0.2,0-0.4,0.1-0.7,0.1C307.4,86.3,307.5,86.8,307.6,87.3L307.6,87.3z"/>
		<path fill="#AAABAE" d="M249.1,186.1H227c-0.9-2.1-1.9-4.4-2.8-6.8h-15.1c-0.6,2-1.3,4.2-2,6.6h-62v-57.5
			c3.9-1.2,34.6-1.3,38.8-0.2c0.9,3.5,1.1,10.3,0.2,15.2c-2.5,1.6-5.4,0.6-8.2,0.8c-2.8,0.2-5.6,0-8.9,0v5h15.3V165h-15.2v5.2h18.3
			v9.6l0.7,0.1c0.5-0.9,1.1-1.8,1.5-2.8c5.4-15.5,10.7-30.9,16.1-46.4c0.4-1.1,0.9-2.1,1.4-3.1h23.2
			C235.2,146.8,242.1,166.1,249.1,186.1L249.1,186.1z M217,147.9c-0.3,0-0.5,0-0.8,0c-1.2,5.6-2.5,11.2-3.8,17.4
			c3-0.2,5.5,0.5,8.3-0.7C219.4,158.9,218.2,153.4,217,147.9L217,147.9z"/>
		<path fill="#AAABAE" d="M305.6,141.9c-6.9,2.5-13.5,4.9-20.3,7.4c-2.7-5-7.5-4.7-11.8-3.8c-4.1,0.9-6,4.4-7.2,8.6
			c-1.2,4-0.6,7.5,1.2,10.9c3.3,6.4,11.5,7.3,16.2,1.6c-1.5-0.2-2.7-0.4-3.9-0.4c-1.1-0.1-2.3,0-3.9,0v-14.5h32.3
			c0.7,10.6-0.9,20.1-9.3,27.5c-5.2,4.6-11.6,7-18.3,7.8c-8.7,1-17-0.7-24.5-5.6c-6.3-4.1-9.7-9.9-11.2-16.8c-2-9-0.6-17.6,4.7-25.2
			c4.9-7,11.8-10.5,20.2-12c7.8-1.4,15-0.1,22.1,2.8C297.4,132.4,302.2,135.8,305.6,141.9L305.6,141.9z"/>
		<path fill="#AAABAE" d="M311.5,127.8h20.8c0,1.6,0,3.1,0,4.5c0,9.8,0.1,19.6,0,29.4c0,2.4,0.4,4.6,2.5,6.5h6.6
			c2.1-1.7,2-4.1,2-6.4c0-9.4,0-18.9,0-28.4v-4.8c3.8-1.8,7.3-0.8,10.7-1c3.5-0.2,7,0,10.8,0c0.1,1.4,0.4,2.7,0.4,3.9
			c0,11.1,0,22.2,0,33.3c0.1,10.2-7.1,18.5-15.3,20.7c-9.2,2.5-18.3,3.1-26.9-1.4c-7.4-3.8-11.6-10.1-11.7-18.7
			c0-11.4,0-22.9,0-34.3C311.3,130.1,311.4,129.1,311.5,127.8L311.5,127.8z"/>
		<path fill="#ABACAF" d="M406.7,164.9h-16c-0.2,1.8-0.4,3.2-0.6,5.1h18.7v15.9H369c-1-3.8-1-53.8,0-57.7c3.4-0.9,31-1.2,39.1-0.3
			v16.2h-17.6v5.1h16.2V164.9L406.7,164.9z"/>
		<path fill="#A9ABAE" d="M410.8,181.4c1.9-5,3.8-10,5.9-15.6c5.7,2.4,10.5,7.2,17.2,5.2c0.2,0.3,0.4,0.7,0.6,1
			c0.8-1.2,1.6-2.4,2.5-3.6c-1.7-3.5-5-3.5-8-4c-5.7-0.9-10.9-2.9-14.2-7.9c-1-1.6-1.6-3.6-1.8-5.5c-0.4-5.5-0.3-10.8,4-15.2
			c5.1-5.2,11-8.3,18.3-8.4c5.4,0,10.9-0.4,16,2.1c1.6,0.8,3.1,1.6,5,2.5c-1.9,5.1-3.7,9.8-5.5,14.3c-4.5-1.4-8.6-2.6-12.8-3.9
			c-1.8,0.9-4.3,1-4.2,4.6c2.3,0.7,4.7,1.4,7.1,2.3c3.7,1.3,7.6,2.3,11,4.2c3.8,2.1,5.9,5.8,5.9,10.3c0,3.6,0.7,7.3-1.1,10.7
			c-2.9,5.8-7.7,9.7-13.7,11.4c-10.5,3-20.9,1.4-30.8-3C412,182.7,411.6,182.1,410.8,181.4L410.8,181.4z"/>
		<path fill="#A8AAAD" d="M104.9,152.1c1.1,0.3,2.2,0.7,3.8,1.2c-1.1-7.1-3.9-13.4-5.8-20c0.5-1.6,1-3.2,1.7-5.2
			c3.1-1.4,6.6-0.4,10-0.6c3.5-0.2,6.9,0,11.1,0c0.1,4.4,0.1,8.6,0.1,12.9c0,4.5,0,8.9,0,13.4c0,4.3,0,8.6,0,13.4h17.7v18.9
			c-10.8,0.1-21.6,0.1-32.5,0.1c-2.1-9.8-4.1-19.7-6.2-29.5C104.7,155.2,104.8,153.7,104.9,152.1L104.9,152.1z"/>
		<path fill="#515153" d="M52.9,185.1c-1.9,0.3-3.8,0.7-5.9,1.1c-0.3,0.4-0.8,1.1-1.5,2.1c-0.4-0.6-0.8-1.1-1.2-1.7
			c-2,2.7-4.8,2.1-7.2,1.3c-4.3-1.4-8.4-0.6-12.7-0.2c-5.9,0.5-11.9,0.1-18.5,0.1c-0.9-0.5-2.5-1.3-4.2-2.2c0.9-2.8,3.9-1.9,5.7-3.3
			c1.1,0.3,2.2,0.7,3.3,0.8c6.4,0.5,12.6,0.7,17-5.3c1.6-2.2,4.1-3.8,6.1-5.7c0.3,0.7,0.5,1.4,1,2.1c0.7,0.9,1.5,1.6,2.2,2.4
			c-1.2,1.7-2.4,3.4-3.7,5.3c0.7,0.5,1.3,1,1.9,1.4c1.5-1.1,2.7-2.1,4-3.1c0.1,0.3,0.2,0.6,0.2,0.9c4.2-0.2,8.3-0.4,12.5-0.6
			C52.2,182,52.6,183.6,52.9,185.1L52.9,185.1z"/>
		<path fill="#444345" d="M52.9,185.1c-0.3-1.6-0.6-3.1-1-4.7c1.6-1.8,3.2-3.6,4.9-5.4c2.1,1.1,4.2,2.2,6.3,3.2
			c0,0.8-0.1,1.6-0.1,2.5c3.2,1,5.9-0.7,8.7-1c1.4-0.1,2.9-0.6,4.3-0.5c2.2,0.1,4.2,0.9,4.6,3.5c-0.5,0.4-0.9,0.8-1.4,1.1
			c-0.9-0.3-1.8-0.6-2.5-0.8c-1.7,1.5-3.1,2.7-3.9,3.4C65.6,186.1,59.2,185.6,52.9,185.1L52.9,185.1z"/>
		<path fill="#E7E6E6" d="M15,15.9h2.7v6.9c-3.2,2.2-5.2,5.7-4.8,9.9c-2.1,1.9-3.8,3.7-5.7,5.3c-0.9,0.8-2.1,1.3-3.2,2
			c0.4-5.3,2.6-10.2,4.5-15c0.9-2.5,2.6-4.6,3.9-7l1.6-1.1L13.9,17C14.3,16.6,14.6,16.3,15,15.9L15,15.9z"/>
		<path fill="#2C2B2B" d="M45,157.3c2.3,1,4.6,2,6.9,2.9c-2.6,3-5.2,6-7.8,9c-1.7-1.1-3.4-2.1-5.2-3.1
			C40.9,163.2,42.9,160.3,45,157.3L45,157.3z"/>
		<path fill="#414041" d="M38.8,166.2c1.7,1.1,3.4,2.1,5.2,3.1c-1.8,3-3.7,5.8-6.9,7.3c-0.7-0.8-1.5-1.6-2.2-2.4
			c-0.4-0.6-0.7-1.4-1-2.1C35.5,170.1,37.2,168.2,38.8,166.2L38.8,166.2z"/>
		<path fill="#252424" d="M61.7,163.3c2,0.3,4,0.7,6,1c-0.9,2.7-1.9,5.3-2.8,8c-2-0.7-4-1.3-6-2C59.9,168,60.8,165.6,61.7,163.3
			L61.7,163.3z"/>
		<path fill="#343434" d="M58.9,170.3c2,0.7,4,1.3,6,2c-0.6,2-1.2,4-1.8,6c-2.1-1.1-4.2-2.2-6.3-3.2
			C57.5,173.5,58.2,171.9,58.9,170.3L58.9,170.3z"/>
		<path fill="#343434" d="M48.9,3.1c0-0.3,0-0.7,0-1c5,0.7,10,1.4,15,2.1c0,0.3,0,0.6,0,0.9L48.9,3.1z"/>
		<path fill="#9C9999" d="M116.7,86.6v3.6c-0.3,0-0.5,0.1-0.8,0.1c-0.3-1.3-0.6-2.6-0.9-3.8C115.5,86.5,116.1,86.6,116.7,86.6z"/>
		<path fill="#414041" d="M63.8,5c0-0.3,0-0.6,0-0.9c0.7,0.2,1.4,0.3,2.1,0.5l0,1.2C65.2,5.6,64.5,5.3,63.8,5z"/>
		<path fill="#858383" d="M15,15.9c-0.4,0.3-0.7,0.7-1,1c0.3-0.7,0.6-1.4,0.9-2.1C14.9,15.2,14.9,15.6,15,15.9L15,15.9z"/>
		<path fill="#444345" d="M80.6,182.8c0.2,0.7,0.4,1.4,0.6,2c-0.2,0.1-0.4,0.3-0.6,0.4c-0.5-0.4-0.9-0.9-1.4-1.3
			C79.7,183.6,80.2,183.2,80.6,182.8L80.6,182.8z"/>
		<path fill="#7E7C7C" d="M81.5,186.3v1.7h-0.4v-1.7H81.5z"/>
		<path fill="#9C9999" d="M281.5,82.5c0.3,0.4,0.6,0.8,0.8,1.2c-0.4,0-0.7-0.1-1.1-0.1c-0.1-0.2-0.2-0.4-0.1-0.6
			C281.3,82.8,281.4,82.6,281.5,82.5L281.5,82.5z"/>
		<path fill="#858383" d="M14,16.9l-1.6,1.1L14,16.9z"/>
		<path fill="#F5F4F4" d="M48.1,98.6c-2.5-4.1-4.9-8.2-7.4-12.2c-2.1-3.3-3.1-6.9-3.1-10.7c0-5,0.1-9.9,0.3-14.9
			c0.1-1.3,0.7-2.7,1.2-4.4c4.5,4.5,4.6,12.1,12.1,13.8c1.1-1.4,2.2-2.7,3.3-4.2c5.3,7.1,10.8,14.3,16.2,21.6
			c-0.4,2.7-2.9,3.2-4.7,4.3c-4.8,3-9.6,5.9-14.3,8.8C50.6,100,49.4,99.3,48.1,98.6L48.1,98.6z"/>
		<path fill="#F3F2F2" d="M54.8,39.8c-0.8,2,1.2,2.5,2.1,3.4c9.3,8.6,15.5,19.3,20.8,30.6c0.1,0.3,0.1,0.7,0.1,1
			c0.2,0.3,0.4,0.6,0.6,0.9c0.1,0.3,0.2,0.7,0.3,1c-1.7,0.3-3.3,0.7-5,1c-3.3-4.8-6.5-9.8-9.9-14.5c-5.2-7.4-11.7-13.4-20.2-16.6
			c-0.6-3.3,1.5-4.9,3.8-6.7h7.5L54.8,39.8L54.8,39.8z"/>
		<path fill="#F5F4F4" d="M58.9,170.3c-0.7,1.6-1.4,3.2-2.1,4.8c-1.6,1.8-3.2,3.6-4.9,5.4c-4.2,0.2-8.3,0.4-12.5,0.6
			c-0.1-0.3-0.2-0.6-0.2-0.9c-1.2,1-2.5,1.9-4,3.1c-0.5-0.4-1.1-0.8-1.9-1.4c1.3-1.9,2.5-3.6,3.7-5.3c3.3-1.5,5.2-4.4,6.9-7.3
			c2.6-3,5.2-6,7.8-9c2.1-2.2,4.1-4.5,6.5-7.1c1.1,0.3,2.4,0.8,3.5,1.1c1.8,3.2-0.2,6.1-0.1,8.9C60.8,165.6,59.8,167.9,58.9,170.3
			L58.9,170.3z"/>
		<path fill="#EAEBEC" d="M51.9,100.6c4.8-2.9,9.6-5.8,14.4-8.8c1.8-1.1,4.3-1.6,4.7-4.3c3.3,3.7,6.6,7.4,9.9,11.1
			c-3.5,2.3-7,4.5-10.5,6.8c-0.9,0.6-1.6,1.4-2.4,2.2c-2-0.8-4-1.6-6-2.5c-1.4-0.2-2.7-0.4-4.1-0.6c-0.6,0-1.2,0-1.8,0
			c-0.9-0.6-1.8-1.1-2.6-1.8C52.8,102.1,52.4,101.3,51.9,100.6L51.9,100.6z"/>
		<path fill="#ECEBEA" d="M63.8,5c0.7,0.3,1.4,0.6,2,0.8c0.2,0.2,0.4,0.4,1.1,1c-3.2,0.5-6,1-8.8,1.5c-0.2,0.6-0.3,1-0.4,1.5
			c-0.8,0.4-1.7,0.6-2.4,1.1c-0.6,0.3-1,0.9-1.5,1.4c0.3,0.2,0.7,0.4,1,0.6c-0.5,0.3-0.9,0.8-1.4,1c-1.5,0.7-3,1.4-4.6,2.1
			c-1.5,0.4-3,0.9-4.5,1.3c0,0.2,0.1,0.4,0.2,0.6h3.3c0,0.3,0,0.6,0,0.8c-1.5,0.5-3,1.1-4.6,1.7c-3.1-4.8,0.9-7.7,3-11.8
			c-1.5-0.9-3.2-1.8-4.9-2.8c2.6-3.3,5.3-2.3,7.5-2.7L63.8,5L63.8,5z M52.5,12.9c0-0.3,0-0.6,0-1c-1,0.1-2.1,0.2-3.1,0.3
			c0,0.2,0,0.4,0,0.5C50.4,12.8,51.4,12.8,52.5,12.9z"/>
		<path fill="#DADBDC" d="M67.8,107.6c0.8-0.7,1.5-1.6,2.4-2.2c3.5-2.3,7-4.6,10.5-6.8c1.5,1.4,3.2,2.8,4.6,4.4
			c1.3,1.4,2.3,3,3.2,4.3c-1.3,4.1-4.2,3.4-6.8,3.2c-2.4-0.2-4.8-0.9-7.7-1.5C72.2,110.1,69.8,110,67.8,107.6L67.8,107.6z"/>
		<path fill="#ECEBEA" d="M63.7,115.5c0.5,2.8,1,5.6,1.4,8c-1.2,1.5-2,2.5-3,3.7c-1,0.2-2.2,0.4-4.1,0.7c-1.9-3.1-3.9-6.3-5.8-9.4
			C56,117.5,59.9,116.5,63.7,115.5L63.7,115.5z"/>
		<path fill="#DADBDC" d="M56,104.5c0.6,0,1.2,0,1.8,0c0,0.3,0.1,0.5,0.3,0.7c1.2,2.1,2.4,4.2,3.5,6.3c-2.7,0.7-5.5,1.2-8.2,2
			c-0.9,0.3-1.7,1.2-2.5,1.9c-1.6-2.7-3.2-5.5-2.8-8.9C51,107.1,53.5,105.9,56,104.5z"/>
		<path fill="#DFE1E2" d="M73.8,77.7c1.7-0.3,3.3-0.7,5-1c2,5,3.9,10,5.9,14.9l-3.6,0.5c-0.7-0.9-1.5-1.6-2-2.6
			C77.2,85.6,75.5,81.7,73.8,77.7L73.8,77.7z"/>
		<path fill="#CCCDCE" d="M47.9,18.8c0-0.3,0-0.6,0-0.8c0.3-0.6,0.7-1.3,1-1.9c1.5-0.7,3.1-1.3,4.6-2.1c0.5-0.2,0.9-0.7,1.4-1
			c1-0.3,2-0.5,2.9-0.8c0.5-0.3,0.9-0.5,1.4-0.8c0.9,0,1.8,0,2.7,0c0.3,0,0.7-0.1,1-0.1l4.8-0.4C61.2,14,55.2,18.2,47.9,18.8
			L47.9,18.8z"/>
		<path fill="#E7E6E6" d="M50.9,115.4c0.8-0.6,1.5-1.6,2.5-1.9c2.7-0.8,5.4-1.4,8.2-2c0.7,1.3,1.4,2.7,2.2,4c-3.8,1-7.7,2-11.5,3
			C51.8,117.5,51.3,116.5,50.9,115.4z"/>
		<path fill="#C6C7C9" d="M56,104.5c-2.5,1.3-5,2.5-7.9,2c0-2.7,0-5.3,0.1-8c1.2,0.7,2.5,1.4,3.7,2.1c0.5,0.7,0.9,1.5,1.5,2.1
			C54.1,103.4,55.1,103.9,56,104.5z"/>
		<path fill="#DADBDC" d="M37.5,10.8c-1.2,4.3-1.9,4.5-6.2,2.2V9.8C32.8,8.2,34.8,8.7,37.5,10.8L37.5,10.8z M33.5,10.2
			c-0.3,0.3-0.5,0.6-0.8,0.9c0.5,0.6,1,1.2,1.7,2c0.6-0.8,0.9-1.3,1.3-1.9C34.8,10.8,34.2,10.4,33.5,10.2L33.5,10.2z"/>
		<path fill="#DADBDC" d="M81.1,92.1l3.6-0.5c0.1,1.6,0.2,3.1,0.3,5C81.6,96.3,81.7,93.9,81.1,92.1z"/>
		<path fill="#BAB8B9" d="M104.9,152.1c-0.1,1.5-0.1,3.1-0.2,4.6c-0.7-1.7-1.3-3.4-2-5.1c0.2-0.1,0.5-0.3,0.7-0.4
			C103.8,151.5,104.3,151.8,104.9,152.1L104.9,152.1z"/>
		<path fill="#625F5E" d="M59.2,11.3c-0.5,0.3-0.9,0.5-1.4,0.8c-1.3,0.1-2.6,0.1-3.9,0.2c0.5-0.5,0.9-1,1.5-1.4
			c0.7-0.4,1.6-0.8,2.4-1.1C58.2,10.3,58.7,10.8,59.2,11.3L59.2,11.3z"/>
		<path fill="#C6C7C9" d="M58,105.3c-0.2-0.2-0.3-0.4-0.3-0.7c1.4,0.2,2.7,0.4,4.1,0.6C60.6,105.2,59.3,105.2,58,105.3L58,105.3z"/>
		<path fill="#DFE1E2" d="M78.5,75.7c-0.2-0.3-0.4-0.6-0.6-0.9C78,75,78.2,75.4,78.5,75.7z"/>
		<path fill="#A8AAAD" d="M62.9,11.2c-0.3,0-0.7,0.1-1,0.1C62.2,11.3,62.5,11.2,62.9,11.2z"/>
		<path fill="#BAB8B9" d="M307.6,87.3c-0.1-0.5-0.2-1-0.3-1.5c0.2,0,0.4-0.1,0.7-0.1c0,0.5,0.1,1,0.1,1.5
			C308,87.3,307.8,87.3,307.6,87.3L307.6,87.3z"/>
		<path fill="#9C9999" d="M281.1,82.9c-0.2-0.2-0.4-0.5-0.6-0.7c0.1-0.1,0.1-0.2,0.2-0.3c0.2,0.2,0.5,0.4,0.7,0.6
			C281.4,82.6,281.3,82.8,281.1,82.9L281.1,82.9z"/>
		<path fill="#F3F2F2" d="M217,147.9c1.2,5.5,2.4,11.1,3.7,16.7c-2.8,1.1-5.3,0.4-8.3,0.7c1.4-6.2,2.6-11.8,3.8-17.4
			C216.5,147.9,216.7,147.9,217,147.9L217,147.9z"/>
		<path fill="#BAB8B9" d="M48.9,16c-0.3,0.7-0.7,1.3-1,1.9c-1.1,0-2.2,0-3.3,0c0-0.2-0.1-0.4-0.2-0.6C45.9,16.8,47.4,16.4,48.9,16z"
			/>
		<path fill="#FDFDFD" d="M53.9,12.3c1.3-0.1,2.6-0.1,3.9-0.2c-1,0.3-2,0.5-2.9,0.8C54.5,12.7,54.2,12.5,53.9,12.3L53.9,12.3z"/>
		<path fill="#9C9999" d="M52.5,12.9c-1-0.1-2.1-0.1-3.2-0.2c0-0.2,0-0.4,0-0.5c1-0.1,2.1-0.2,3.1-0.3
			C52.5,12.3,52.5,12.6,52.5,12.9z"/>
		<path fill="#454345" d="M33.5,10.2c0.7,0.3,1.3,0.6,2.2,1c-0.5,0.7-0.8,1.1-1.3,1.9c-0.7-0.8-1.2-1.4-1.7-2
			C33,10.8,33.3,10.5,33.5,10.2L33.5,10.2z"/>
	</g>
</g>
</svg>
