<?xml version="1.0" encoding="UTF-8"?>
<svg width="500px" height="500px" viewBox="0 0 500 500" version="1.2" baseProfile="tiny-ps" xmlns="http://www.w3.org/2000/svg" xmlns:xlink="http://www.w3.org/1999/xlink">
    <title>BURGA</title>
    <g id="Artboard" stroke="none" stroke-width="1" fill="none" fill-rule="evenodd">
        <g id="Logo" transform="translate(44.000000, 99.000000)" fill="#1A1A18">
            <g id="Group" transform="translate(0.000000, 211.723302)">
                <path d="M4.09,0.296697902 L14.24,0.296697902 C15.68,0.296697902 17.1,0.316697902 18.52,0.366697902 C19.93,0.416697902 21.31,0.546697902 22.66,0.776697902 C24,1.0066979 25.3,1.3866979 26.56,1.9366979 C27.81,2.4766979 29,3.2266979 30.11,4.1866979 C31.41,5.3166979 32.46,6.7366979 33.28,8.4366979 C34.09,10.1366979 34.5,11.8466979 34.5,13.5766979 C34.5,15.1666979 34.28,16.5166979 33.84,17.6266979 C33.4,18.7366979 32.87,19.6666979 32.24,20.4166979 C31.61,21.1666979 30.98,21.7566979 30.33,22.1866979 C29.68,22.6166979 29.15,22.9466979 28.73,23.1766979 C29.57,23.4966979 30.5,23.9266979 31.55,24.4666979 C32.59,25.0066979 33.56,25.7566979 34.44,26.7166979 C35.32,27.6666979 36.06,28.8766979 36.67,30.3266979 C37.27,31.7766979 37.57,33.5666979 37.57,35.7066979 C37.57,37.2066979 37.38,38.5766979 37.01,39.8266979 C36.64,41.0766979 36.15,42.1866979 35.55,43.1566979 C34.95,44.1366979 34.26,44.9966979 33.5,45.7466979 C32.73,46.4966979 31.96,47.1366979 31.17,47.6866979 C30.2,48.3666979 29.12,48.8966979 27.93,49.2866979 C26.75,49.6766979 25.54,49.9666979 24.31,50.1666979 C23.08,50.3666979 21.91,50.5066979 20.8,50.5766979 C19.69,50.6466979 18.71,50.6766979 17.88,50.6766979 L0,50.6766979 L0,0.316697902 L4.09,0.316697902 L4.09,0.296697902 Z M17.74,19.8766979 C18.11,19.8666979 18.52,19.8466979 18.98,19.8266979 C19.91,19.7766979 20.81,19.5866979 21.69,19.2466979 C22.57,18.9066979 23.34,18.3666979 23.99,17.6166979 C24.64,16.8666979 24.96,15.8166979 24.96,14.4566979 C24.96,12.9566979 24.42,11.6766979 23.33,10.6066979 C22.26,9.5566979 20.4,9.0266979 17.74,9.0066979 L8.91,9.0066979 L8.91,41.9466979 L18.42,41.9466979 C18.88,41.9466979 19.65,41.9166979 20.72,41.8466979 C21.79,41.7766979 22.85,41.5366979 23.92,41.1366979 C24.99,40.7266979 25.94,40.0666979 26.77,39.1666979 C27.6,38.2566979 28.02,36.9866979 28.02,35.3566979 C28.02,34.8566979 27.93,34.2266979 27.74,33.4466979 C27.55,32.6766979 27.13,31.9366979 26.45,31.2366979 C25.78,30.5366979 24.83,29.9166979 23.6,29.3966979 C22.37,28.8766979 20.71,28.6166979 18.63,28.6166979 L17.74,28.6166979 L17.74,19.8866979 L17.74,19.8766979 Z" id="Shape"></path>
                <path d="M188.56,24.3966979 L194.55,24.3966979 C196.46,24.3966979 198,24.1166979 199.18,23.5466979 C200.36,22.9766979 201.28,22.2966979 201.94,21.5066979 C202.6,20.7166979 203.03,19.8766979 203.23,18.9866979 C203.43,18.1066979 203.54,17.3166979 203.54,16.6366979 C203.54,15.9566979 203.42,15.1766979 203.17,14.2866979 C202.92,13.4066979 202.46,12.5666979 201.77,11.7666979 C201.09,10.9766979 200.17,10.3166979 199.01,9.7966979 C197.85,9.2766979 196.37,9.0166979 194.55,9.0166979 L179.24,9.0166979 L179.24,0.306697902 L194.69,0.306697902 C197.59,0.306697902 200,0.576697902 201.9,1.1266979 C203.81,1.6666979 205.48,2.5366979 206.94,3.7166979 C207.67,4.3066979 208.38,4.9966979 209.08,5.7966979 C209.78,6.5866979 210.42,7.4966979 210.99,8.5166979 C211.56,9.5366979 212.01,10.6566979 212.35,11.8866979 C212.69,13.1166979 212.86,14.4466979 212.86,15.9066979 C212.86,16.7266979 212.78,17.6566979 212.62,18.6966979 C212.46,19.7366979 212.19,20.8066979 211.8,21.8966979 C211.41,22.9866979 210.92,24.0466979 210.3,25.0966979 C209.69,26.1366979 208.93,27.0966979 208.02,27.9566979 C206.52,29.4066979 205.07,30.3866979 203.66,30.8866979 C202.25,31.3866979 200.91,31.7966979 199.64,32.1066979 L213.32,50.6866979 L202.02,50.6866979 L183.88,24.4166979 L188.54,24.4166979 L188.56,24.3966979 Z" id="Path"></path>
                <path d="M289.13,23.4166979 L307.21,23.4166979 L307.21,48.1566979 L307.09,48.1966979 C299.35,50.7166979 287.83,52.1866979 280.01,49.1866979 C269.97,45.3366979 266.65,35.5566979 266.65,25.6466979 C266.65,2.8466979 287.12,-5.3333021 306.87,3.4566979 L303.45,11.4666979 C290.22,5.7466979 275.43,8.5766979 275.43,25.7266979 C275.43,28.6766979 275.67,31.2566979 276.35,33.4966979 C279.6,42.7266979 287.5,42.4766979 295.44,41.7066979 C296.42,41.6166979 297.42,41.5466979 298.37,41.2866979 L298.4,32.2066979 L288.96,32.2066979 L288.96,23.4066979 L289.13,23.4066979 L289.13,23.4166979 Z" id="Path"></path>
                <path d="M116.83,0.676697902 L116.83,31.7266979 C116.83,32.0366979 116.82,32.4166979 116.8,32.8666979 C116.78,33.3166979 116.74,33.8266979 116.7,34.3966979 C116.66,34.9866979 116.55,35.5666979 116.4,36.1566979 C116.24,36.7366979 116.03,37.3266979 115.76,37.9166979 C115.22,39.0966979 114.36,40.1266979 113.18,41.0066979 C112.59,41.4566979 111.87,41.7866979 111.03,42.0066979 C110.2,42.2266979 109.24,42.3366979 108.16,42.3366979 L108.16,42.3366979 C107.47,42.3566979 106.8,42.3666979 106.13,42.3666979 C105.46,42.3666979 104.8,42.3566979 104.1,42.3366979 L104.1,42.3366979 C103.02,42.3366979 102.07,42.2266979 101.23,42.0066979 C100.39,41.7866979 99.67,41.4466979 99.08,41.0066979 C98.49,40.5666979 97.98,40.0866979 97.56,39.5766979 C97.13,39.0566979 96.78,38.5066979 96.51,37.9166979 C96.24,37.3366979 96.03,36.7466979 95.87,36.1566979 C95.71,35.5666979 95.61,34.9866979 95.57,34.3966979 C95.53,33.8266979 95.49,33.3166979 95.47,32.8666979 C95.45,32.4166979 95.44,32.0366979 95.44,31.7266979 L95.44,0.676697902 L86.68,0.676697902 L86.68,31.7266979 C86.68,33.2466979 86.76,34.6266979 86.91,35.8566979 C87.06,37.0866979 87.29,38.1766979 87.6,39.1166979 C87.91,40.0566979 88.24,40.8966979 88.59,41.6366979 L88.59,41.6366979 C88.94,42.3666979 89.31,42.9966979 89.7,43.5166979 C89.96,43.8666979 90.27,44.2266979 90.62,44.6066979 C90.97,44.9866979 91.37,45.3766979 91.81,45.7866979 C92.25,46.1866979 92.72,46.5766979 93.25,46.9566979 C93.77,47.3366979 94.34,47.6966979 94.94,48.0466979 C95.54,48.3966979 96.19,48.7166979 96.88,49.0066979 C97.57,49.2966979 98.31,49.5566979 99.09,49.7866979 C101.44,50.4766979 103.52,50.4766979 105.89,50.4766979 L106.42,50.4766979 C108.8,50.4766979 110.86,50.4766979 113.21,49.7866979 C113.99,49.5566979 114.73,49.2966979 115.42,49.0066979 C116.11,48.7166979 116.76,48.3966979 117.36,48.0466979 C117.96,47.6966979 118.53,47.3266979 119.05,46.9566979 C119.57,46.5766979 120.05,46.1866979 120.49,45.7866979 C120.93,45.3866979 121.32,44.9866979 121.68,44.6066979 C122.03,44.2266979 122.34,43.8666979 122.6,43.5166979 C123.39,42.4666979 124.09,41.0066979 124.7,39.1166979 C125.01,38.1766979 125.24,37.0866979 125.39,35.8566979 C125.54,34.6266979 125.62,33.2466979 125.62,31.7266979 L125.62,0.676697902 L116.86,0.676697902 L116.83,0.676697902 Z" id="Path"></path>
                <polygon id="Path" points="392.25 0.296697902 412.23 50.2166979 412.42 50.6666979 412.41 50.6666979 412.41 50.6666979 403.03 50.6666979 403.03 50.6666979 401.92 50.6666979 387.39 12.6966979 372.83 50.6666979 371.7 50.6666979 371.7 50.6666979 362.32 50.6666979 382.48 0.296697902"></polygon>
            </g>
            <polygon id="Path" points="221.18 106.71 244.27 72.5 205.84 16.74 197 28.95 220.2 135.77 220.65 137.83 219.42 139.57 208.01 155.75 203.97 161.48 200.05 155.68 158.56 94.27 156.72 91.55 158.58 88.84 184.72 51.25 187.52 63.68 168.41 91.58 204.15 144.46 210.29 135.75 187.09 28.89 186.64 26.79 187.91 25.04 202.01 5.54 206.02 0 209.9 5.63 254.09 69.73 255.96 72.46 254.12 75.18 223.83 120.65"></polygon>
        </g>
    </g>
</svg>