<svg xmlns="http://www.w3.org/2000/svg" version="1.2" id="FlippingBook" viewBox="0 0 600 600" xml:space="preserve" baseProfile="tiny-ps">
<title>FlippingBook</title>
<rect x="-1" y="-1" fill="#4693E6" width="600" height="600" />
<path fill="#FFFFFF" d="M439.88,191.95c0,0.54,0,1.61,0,2.15v206.97c0,1.61,0,2.69-0.54,4.3c-3.23,15.59-16.66,27.42-33.33,27.42  c-5.38,0-10.21-1.08-14.51-3.23l-91.39-47.31c-0.54,0.54-2.15,1.61-3.23,2.15l-87.62,45.69c-4.3,2.15-9.14,3.23-14.51,3.23  c-17.74,0-32.25-13.44-33.87-30.64c0-0.54,0-1.61,0-2.15V194.1c0-1.61,0-2.69,0.54-4.3c3.23-16.13,16.66-27.95,33.33-27.95  c5.38,0,10.21,1.08,14.51,3.23l91.39,47.31l0,0l0,0l0,0c0.54-0.54,2.15-1.61,3.23-2.15l87.62-45.69c4.3-2.15,9.14-3.23,14.51-3.23  C423.75,161.31,437.73,174.75,439.88,191.95z M296.35,330.11c0-4.3-1.61-8.6-3.76-12.36l0,0l0,0l-11.83-20.43  c-5.91-9.14-9.14-19.89-9.68-31.18c0-10.21,2.15-19.35,5.91-27.95l0,0l0,0l0,0l-72.03-37.09c-1.08-0.54-1.61-0.54-2.69-0.54  c-3.76,0-6.99,3.23-6.99,6.99v22.04l0,0l0,0v135.47l0,0l0,0v22.58c0,3.76,3.23,6.99,6.99,6.99c1.08,0,1.61,0,2.69-0.54l78.49-41.39  C291.51,347.85,296.35,339.25,296.35,330.11z M405.48,229.05L405.48,229.05L405.48,229.05V207c0-3.76-3.23-6.99-6.99-6.99  c-1.08,0-1.61,0-2.69,0.54l-79.02,40.86c-7.53,4.84-12.9,13.44-12.36,23.12c0,4.3,1.61,8.6,3.76,12.36l0,0L320,297.32  c5.91,9.14,9.14,19.89,9.68,31.18c0,10.21-1.61,19.35-5.91,27.95l72.03,37.09c1.08,0.54,1.61,0.54,2.69,0.54  c3.76,0,6.99-3.23,6.99-6.99v-22.04l0,0l0,0L405.48,229.05z" />
</svg>