<?xml version="1.0" encoding="utf-8"?>
<!-- Generator: Adobe Illustrator 24.2.1, SVG Export Plug-In . SVG Version: 6.00 Build 0)  -->
<svg version="1.2" baseProfile="tiny-ps"
	xmlns="http://www.w3.org/2000/svg"
	xmlns:xlink="http://www.w3.org/1999/xlink" viewBox="0 0 80 80" xml:space="preserve">
<title>Done Brothers (Cash Betting) Limited</title>
	<defs>
		<linearGradient id="Gradient-1" x1="0" y1="0" x2="1" y2="0">
			<stop offset="0" stop-color="#e21937" />
			<stop offset="1" stop-color="#004990" />
		</linearGradient>
	</defs>

	<g id="Layer_3">
		<rect fill="#FFFFFF" width="80" height="80"/>
	</g>
	
	<rect x="0" y="0" width="56" height="12" fill= "url(#Gradient-1)" transform="matrix(1 0 0 1 12 34)" />

		<g id="Layer_2">
		<g>
			<path fill="#FFFFFF" d="M14.3,44l1.2-7.9h3.3c1.1,0,1.9,0.2,2.4,0.5c0.5,0.3,0.7,0.8,0.7,1.5c0,0.5-0.1,0.8-0.3,1.1
			c-0.2,0.3-0.4,0.6-0.8,0.8c0.3,0.1,0.6,0.3,0.7,0.6c0.2,0.3,0.3,0.6,0.3,1c0,0.8-0.3,1.4-0.8,1.8c-0.5,0.4-1.3,0.6-2.4,0.6H14.3z
			 M17,42.1h1.2c0.4,0,0.7-0.1,0.9-0.2c0.2-0.1,0.3-0.3,0.3-0.6c0-0.2-0.1-0.4-0.2-0.5c-0.2-0.1-0.4-0.2-0.8-0.2h-1.1L17,42.1z
			 M17.4,39.2h1c0.4,0,0.7-0.1,0.8-0.2c0.2-0.1,0.3-0.3,0.3-0.6c0-0.2-0.1-0.4-0.2-0.5c-0.2-0.1-0.5-0.1-0.9-0.1h-0.8L17.4,39.2z"/>
			<polygon fill="#FFFFFF" points="22,44 23.2,36 29.3,36 29,37.9 25.4,37.9 25.2,39 28.5,39 28.2,40.8 24.9,40.8 24.8,42 28.7,42 
			28.4,44 		"/>
			<polygon fill="#FFFFFF" points="31,44 31.9,38.1 29.6,38.1 30,36 36.9,36 36.5,38.1 34.4,38.1 33.5,44 		"/>
			<polygon fill="#FFFFFF" points="36.3,44 37.5,36 43.1,36 42.8,38 39.7,38 39.5,39.2 42.1,39.2 41.8,41.1 39.2,41.1 38.8,44 		"/>
			<path fill="#FFFFFF" d="M42.6,44l1.2-7.9h3.7c1,0,1.8,0.2,2.2,0.5c0.5,0.3,0.7,0.9,0.7,1.6c0,0.5-0.1,1-0.4,1.4
			c-0.3,0.4-0.6,0.7-1.1,0.9c0.4,0.1,0.6,0.3,0.7,0.5c0.1,0.2,0.2,0.5,0.2,0.8c0,0.1,0,0.2,0,0.2c0,0.1,0,0.2,0,0.3l-0.1,0.8
			c0,0.1,0,0.1,0,0.2c0,0,0,0.1,0,0.1c0,0.1,0,0.2,0.1,0.2c0,0.1,0.1,0.1,0.2,0.1V44h-2.7c0-0.1,0-0.1,0-0.2c0-0.1,0-0.1,0-0.2
			c0,0,0-0.1,0-0.2c0-0.1,0-0.2,0-0.3l0.1-0.8c0,0,0-0.1,0-0.1c0-0.1,0-0.1,0-0.2c0-0.3-0.1-0.6-0.3-0.7c-0.2-0.1-0.5-0.2-1-0.2
			h-0.6L45.1,44H42.6z M45.7,39.4h1.2c0.4,0,0.7-0.1,0.8-0.2c0.2-0.1,0.3-0.3,0.3-0.6c0-0.2-0.1-0.4-0.2-0.5
			c-0.2-0.1-0.4-0.2-0.8-0.2H46L45.7,39.4z"/>
			<polygon fill="#FFFFFF" points="50.6,44 51.8,36 57.9,36 57.6,37.9 54,37.9 53.8,39 57.1,39 56.8,40.8 53.6,40.8 53.4,42 57.3,42 
			57,44 		"/>
			<path fill="#FFFFFF" d="M57.7,44l1.2-7.9h3.1c0.8,0,1.4,0.1,1.8,0.3c0.4,0.2,0.8,0.5,1.1,0.9c0.2,0.3,0.4,0.6,0.5,1
			c0.1,0.4,0.2,0.8,0.2,1.3c0,1.4-0.4,2.5-1.1,3.2c-0.7,0.7-1.8,1.1-3.2,1.1H57.7z M60.5,42h0.6c0.4,0,0.7,0,0.9-0.1
			c0.2-0.1,0.4-0.2,0.5-0.3c0.2-0.2,0.3-0.5,0.5-0.8c0.1-0.4,0.2-0.8,0.2-1.2c0-0.6-0.1-1-0.3-1.3c-0.2-0.2-0.6-0.4-1.2-0.4h-0.6
			L60.5,42z"/>
		</g>
	</g>
</svg>
