<?xml version="1.0" encoding="UTF-8" standalone="yes"?>
<svg version="1.2" baseProfile="tiny-ps" viewBox="0 0 100 100" xml:space="preserve" xmlns="http://www.w3.org/2000/svg">
  <title>Jobble inc</title>
  <rect fill="#FFFFFF" width="100" height="100"/>
  <g>
    <path fill-rule="evenodd" fill="#00CE7D" d="M61,27c-0.9-1.6-1.3-3.4-1.3-5.2c0-1.8,0.5-3.6,1.3-5.2c0.9-1.6,2.2-2.9,3.7-3.8&#xA;&#x9;&#x9;c1.5-0.9,3.3-1.5,5.1-1.5c1.8-0.1,3.6,0.3,5.2,1.2v18.8c-1.6,0.8-3.4,1.2-5.2,1.2c-1.8-0.1-3.6-0.6-5.1-1.5&#xA;&#x9;&#x9;C63.2,29.9,61.9,28.6,61,27z M51,45.7c0,0-8.6-4.3-10.5-1.6c-0.3,0.4,0.1,0.9,0.5,1c1.8,0.5,6,1.7,6.5,4.1c0,0.9-0.3,1.7-0.6,2.5&#xA;&#x9;&#x9;c-0.2,0.4-0.3,0.9-0.4,1.3c-0.2,0.9,0.6,1.1,1.3,0.5c3.6-3.1,14.6-12.3,19.6-9.5c1.3,1.6,0.1,8.7-0.5,12.1c-0.1,0.7,0.6,1.3,1.3,1&#xA;&#x9;&#x9;c1.4-0.5,2.8-0.9,4.2-1.4c0.9-0.3,1.8-0.5,2.7-0.8V34.2C66.5,34.5,57.3,40.5,51,45.7z M64.4,62.6L64.4,62.6c-4,4.6-9,10.5-19,8.6&#xA;&#x9;&#x9;c-4.3,0-7.4,0.5,1.3,17.2c0.7,1.3,4.7,2.6,2.2-9c0,0,12.5-2.2,21.5-9c0.5-0.6,1.5-0.8,2.7-1c0.7-0.1,1.3-0.2,2-0.5V56.5&#xA;&#x9;&#x9;c-0.5,0.1-1,0.2-1.6,0.3c-1.8,0.4-3.9,0.8-5.2,1.8C67,59.6,65.7,61,64.4,62.6z"/>
    <path d="M37.8,42.6l1.6,4c0.9-0.4,3.4-0.4,4.7,2.6s-0.4,5.6-1.3,6l1.8,5c0.5,1.3-0.2,2.7-1.5,3.2l-10.8,4.4&#xA;&#x9;&#x9;c-0.9,0.4-1.9-0.1-2.2-0.9l-7.7-18.8c-0.4-0.9,0-1.9,0.9-2.2l11.1-4.7C35.7,40.6,37.2,41.2,37.8,42.6z"/>
    <path fill-opacity="0.2" d="M37.8,42.6l1.6,4c0.9-0.4,3.4-0.4,4.7,2.6s-0.4,5.6-1.3,6l1.8,5c0.5,1.3-0.2,2.7-1.5,3.2l-10.8,4.4&#xA;&#x9;&#x9;c-0.9,0.4-1.9-0.1-2.2-0.9l-7.7-18.8c-0.4-0.9,0-1.9,0.9-2.2l11.1-4.7C35.7,40.6,37.2,41.2,37.8,42.6z"/>
    <path d="M77.8,89.9V10.1c0-0.5-0.4-0.9-0.9-0.9S76,9.6,76,10.1v79.8c0,0.5,0.4,0.9,0.9,0.9C77.3,90.9,77.8,90.4,77.8,89.9z"/>
    <path fill-opacity="0.2" d="M77.8,89.9V10.1c0-0.5-0.4-0.9-0.9-0.9S76,9.6,76,10.1v79.8c0,0.5,0.4,0.9,0.9,0.9&#xA;&#x9;&#x9;C77.3,90.9,77.8,90.4,77.8,89.9z"/>
  </g>
</svg>