<?xml version="1.0" encoding="UTF-8"?>
<svg xmlns="http://www.w3.org/2000/svg" xmlns:xlink="http://www.w3.org/1999/xlink" width="800px" height="800px" viewBox="0 0 800px 800px" version="1.2" baseProfile="tiny-ps">
    <title>test bimi</title>
    <g id="test-bimi" stroke="none" stroke-width="1" fill="none" fill-rule="evenodd">
        <rect fill="#FFFFFF" x="0" y="0" width="800" height="800"/>
        <g id="Finseta-Dk" transform="translate(73.812500, 298.437500)">
            <path d="M528.393898,21.3532561 L510.864408,38.8934921 C510.157605,39.6005626 510.157605,40.7466673 510.864408,41.4537379 L571.33779,101.940552 L510.751575,162.529454 C510.044771,163.236525 510.044771,164.38263 510.751575,165.0897 L528.291811,182.629936 L608.981194,101.940552 L528.393898,21.3532561 Z" id="Path" fill="#001A1C" fill-rule="nonzero"/>
            <path d="M551.777297,0.530102724 C551.070227,-0.176700908 549.924122,-0.176700908 549.217052,0.530102724 L531.241601,18.5055536 L614.679286,101.940552 L531.1422,185.491071 L549.117651,203.466522 C549.824721,204.173326 550.970826,204.173326 551.677896,203.466522 L653.187747,101.953985 L551.777297,0.530102724 Z" id="Path" fill="#001A1C" fill-rule="nonzero"/>
            <polygon id="Path" fill="#B0F2DD" fill-rule="nonzero" points="614.679286 101.940552 531.241601 18.5028671 528.393898 21.3532561 608.981194 101.940552 528.291811 182.629936 531.1422 185.477639"/>
            <path d="M528.291811,182.629936 L511.887969,199.033777 L476.662426,163.808234 L538.53548,101.940552 L476.761827,40.1749582 L511.98737,4.94941473 L528.393898,21.3532561 L531.241601,18.5055536 L513.282269,0.530102724 C512.575199,-0.176700908 511.429094,-0.176700908 510.722023,0.530102724 L472.355947,38.8934921 C471.649144,39.6005626 471.649144,40.7466673 472.355947,41.4537379 L532.842762,101.940552 L472.243114,162.529454 C471.53631,163.236525 471.53631,164.38263 472.243114,165.0897 L510.60919,203.453089 C510.948285,203.792352 511.408298,203.982962 511.887969,203.982962 C512.367641,203.982962 512.827653,203.792352 513.166749,203.453089 L531.1422,185.477639 L528.291811,182.629936 Z" id="Path" fill="#001A1C" fill-rule="nonzero"/>
            <polygon id="Path" fill="#001A1C" fill-rule="nonzero" points="-2.29065778e-14 35.8254955 53.4400939 35.8254955 53.4400939 55.8910526 21.0810585 55.8910526 21.0810585 77.2622544 53.7947134 77.2622544 53.7947134 97.3278115 21.0810585 97.3278115 21.0810585 139.052027 -2.29065778e-14 139.052027"/>
            <polygon id="Path" fill="#001A1C" fill-rule="nonzero" points="65.2070158 66.3577028 85.1248147 66.3577028 85.1248147 139.052027 65.2070158 139.052027"/>
            <path d="M97.0690464,66.3577028 L116.986845,66.3577028 L116.986845,74.6455919 C120.766768,68.8292937 128.326612,64.7592282 137.777761,64.7592282 C155.36904,64.7592282 165.838377,77.5523977 165.838377,96.4600681 L165.838377,139.052027 L145.917892,139.052027 L145.917892,99.7994024 C145.917892,89.3220061 141.412611,82.9334809 133.124722,82.9334809 C123.963717,82.9334809 116.986845,89.6202089 116.986845,103.579325 L116.986845,139.041281 L97.0690464,139.041281 L97.0690464,66.3577028 Z" id="Path" fill="#001A1C" fill-rule="nonzero"/>
            <path d="M205.864717,140.653188 C187.110178,140.653188 173.734035,130.175792 173.005991,115.937279 L193.796906,115.937279 C194.524951,122.333864 200.048419,125.385741 206.44769,125.385741 C212.699203,125.385741 215.896152,123.059222 215.896152,119.57213 C215.896152,115.792207 213.134418,113.900903 206.737833,112.302429 L193.071548,108.809963 C180.42345,105.618387 174.607152,96.88991 174.607152,86.2755017 C174.607152,73.769789 185.656775,64.7565417 203.828341,64.7565417 C219.821146,64.7565417 232.036716,73.1895024 233.197289,87.7289046 L213.134418,87.7289046 C212.11623,82.2027497 207.901093,80.3141319 203.538198,80.3141319 C198.449944,80.3141319 194.960166,82.3478214 194.960166,85.8376003 C194.960166,89.9076657 198.885159,91.5088268 203.248055,92.5270148 L216.041224,96.0194802 C230.279737,99.6543307 236.251853,107.216862 236.251853,118.556628 C236.251853,132.214854 223.455997,140.653188 205.864717,140.653188 Z" id="Path" fill="#001A1C" fill-rule="nonzero"/>
            <path d="M278.268898,140.653188 C256.02458,140.653188 240.176847,124.660383 240.176847,102.561137 C240.176847,80.8971049 256.314723,64.7592282 278.41397,64.7592282 C299.785172,64.7592282 317.368392,80.0239886 316.36095,107.359247 L259.659431,107.359247 C260.52986,115.937279 266.929132,123.349365 279.287086,123.349365 C286.272017,123.349365 292.370399,120.294801 294.696918,115.35162 L315.487833,115.35162 C311.127625,130.03878 296.733294,140.653188 278.268898,140.653188 Z M260.384789,94.2732475 L294.551847,94.2732475 C292.080256,84.5319555 284.665483,80.8971049 277.830997,80.8971049 C268.672678,80.902478 262.276093,86.2755017 260.384789,94.2732475 Z" id="Shape" fill="#001A1C" fill-rule="nonzero"/>
            <path d="M358.670825,139.925143 C343.258307,139.925143 330.900352,131.347111 330.900352,113.597327 L330.900352,83.8065973 L316.215878,83.8065973 L316.215878,66.3577028 L330.900352,66.3577028 L330.900352,46.1497606 L350.820837,46.1497606 L350.820837,66.3577028 L371.318923,66.3577028 L371.318923,83.8065973 L350.820837,83.8065973 L350.820837,109.685766 C350.820837,118.551255 354.60076,122.043721 363.178792,122.043721 C366.375741,122.043721 368.992404,121.605819 371.318923,120.735389 L371.318923,138.326669 C368.121974,139.344857 364.194293,139.925143 358.670825,139.925143 Z" id="Path" fill="#001A1C" fill-rule="nonzero"/>
            <path d="M408.239655,64.7592282 C418.273777,64.7592282 425.970634,69.8474817 429.175642,74.5005202 L429.175642,66.3577028 L449.096128,66.3577028 L449.096128,139.052027 L429.194448,139.052027 L429.194448,130.911896 C425.997499,135.564935 418.292583,140.653188 408.258461,140.653188 C388.915576,140.653188 374.09409,123.352052 374.09409,102.706208 C374.09409,82.0603646 388.912889,64.7592282 408.239655,64.7592282 Z M412.457479,82.9334809 C401.552927,82.9334809 394.138155,91.3664417 394.138155,102.706208 C394.138155,114.045975 401.552927,122.478935 412.457479,122.478935 C423.362031,122.478935 430.776803,114.045975 430.776803,102.706208 C430.776803,91.3664417 423.37009,82.9334809 412.465539,82.9334809 L412.457479,82.9334809 Z" id="Shape" fill="#001A1C" fill-rule="nonzero"/>
            <path d="M75.112185,56.5573437 C69.4008938,56.4966243 64.8145062,51.8279783 64.855348,46.1165107 C64.8961898,40.4050432 69.5488745,35.8024643 75.2604495,35.8233926 C80.9720245,35.8444641 85.590739,40.4811313 85.5895815,46.1927448 C85.5423103,51.9413029 80.860918,56.5722802 75.112185,56.5573437 L75.112185,56.5573437 Z" id="Path" fill="#000000" fill-rule="nonzero"/>
            <polygon id="Path-2" stroke="#979797" points="0 139.026989 0 35.8649333 53.1929348 35.8649333 53.461586 55.8794466 21.2234437 55.8794466 21.0891181 77.2372159 53.461586 77.2372159 53.7302372 97.3860548 21.2234437 97.3860548 21.0891181 139.026989"/>
        </g>
    </g>
</svg>
