<?xml version="1.0" encoding="utf-8"?>
<!-- Generator: Adobe Illustrator 28.1.0, SVG Export Plug-In . SVG Version: 6.00 Build 0)  -->
<svg version="1.2" baseProfile="tiny-ps" id="Layer_1" xmlns="http://www.w3.org/2000/svg" xmlns:xlink="http://www.w3.org/1999/xlink"
	 viewBox="0 0 200 200" xml:space="preserve">
	 <title>HDFC SKY</title>
<g>
	<linearGradient id="SVGID_1_" gradientUnits="userSpaceOnUse" x1="51.142" y1="133.0517" x2="51.142" y2="55.4757">
		<stop  offset="0" stop-color="#082AC4"/>
		<stop  offset="6.895425e-02" stop-color="#073AD1"/>
		<stop  offset="0.1961" stop-color="#0551E4" />
		<stop  offset="0.3154" stop-color="#035FF0"/>
		<stop  offset="0.4179" stop-color="#0364F4"/>
		<stop  offset="0.4341" stop-color="#0969F4"/>
		<stop  offset="0.5366" stop-color="#2A83F3"/>
		<stop  offset="0.6418" stop-color="#4597F2"/>
		<stop  offset="0.7493" stop-color="#57A6F1"/>
		<stop  offset="0.8607" stop-color="#62AEF1"/>
		<stop  offset="0.9823" stop-color="#66B1F1"/>
	</linearGradient>
	<path fill="url(#SVGID_1_)" d="M73.8,64.5L24.4,89.2c-1.5,0.8-2.5,2.3-2.5,4.1v0c0,2.5,2.1,4.6,4.6,4.5c6.8-0.1,19-0.1,22.4,0.4
		c4.7,0.8,2.9,5.5,2.9,5.5c-4.4,10.5-27.9,21-27.9,21c-7.8-6.4-8.8-20.1-8.8-20.1c0,0,0,0,0,0l0-16.3c1.3-17.6,13.2-23.6,13.2-23.6
		c3.4-2,7.5-3.3,11.7-4c3.8-0.6,7.7-0.6,11.3-0.6c6.5,0,11.8,0.6,13.6,1C68.8,62,73.8,64.5,73.8,64.5z M28.5,128.1
		c0,0,4.9,2.5,9,3.5c1.8,0.4,7.1,1,13.6,1c3.6,0,7.5,0.1,11.3-0.6c4.2-0.7,8.3-1.9,11.7-4c0,0,11.8-6,13.2-23.6l0-16.3c0,0,0,0,0,0
		c0,0-1.1-13.8-8.8-20.1c0,0-23.5,10.5-27.9,21c0,0-1.8,4.7,2.9,5.5c3.3,0.6,15.6,0.5,22.4,0.4c2.5,0,4.6,2,4.6,4.5v0
		c0,1.7-1,3.3-2.5,4.1L28.5,128.1z"/>
	<g>
		<g>
			<path fill="#006AFB" d="M123.5,82.2c0-3.4,0-6.9,0-10.3c0-0.7,0.2-1,1-0.9c2.8,0.1,5.7-0.1,8.5,0.1c6.5,0.5,11.1,5.4,10.4,12.5
				c-0.6,6.5-5.9,9.8-11.3,9.8c-2.6,0-5.1,0-7.7,0c-0.7,0-1-0.2-0.9-0.9C123.6,89,123.5,85.6,123.5,82.2z M127.3,82.1
				c0,2.4,0,4.8,0,7.2c0,0.5,0.1,0.8,0.7,0.8c1.6,0,3.3,0.1,4.9-0.1c2.6-0.2,4.7-1.4,5.9-3.8c0.8-1.5,0.8-3.1,0.8-4.8
				c-0.1-3.8-2.7-6.5-6.5-6.9c-1.6-0.2-3.3-0.1-4.9-0.1c-0.7,0-0.9,0.2-0.9,0.8C127.3,77.4,127.3,79.8,127.3,82.1z"/>
			<path fill="#006AFB" d="M99.6,82.2c0-3.4,0-6.9,0-10.3c0-0.7,0.2-0.9,0.9-0.9c0.7,0,1.3,0,2,0c0.6,0,0.8,0.2,0.8,0.8
				c0,2.5,0,5.1,0,7.6c0,0.7,0.2,0.9,0.9,0.9c3.3,0,6.6,0,9.8,0c0.6,0,0.8-0.1,0.8-0.8c0-2.6,0-5.1,0-7.7c0-0.6,0.2-0.9,0.8-0.8
				c0.7,0,1.4,0,2,0c0.7-0.1,0.9,0.3,0.9,0.9c0,4,0,8.1,0,12.1c0,2.8,0,5.7,0,8.5c0,0.6-0.1,0.9-0.8,0.9c-0.7-0.1-1.4,0-2.2,0
				c-0.5,0-0.7-0.2-0.7-0.7c0-2.7,0-5.4,0-8.1c0-0.7-0.2-0.9-0.9-0.9c-3.3,0-6.5,0-9.8,0c-0.7,0-0.9,0.2-0.9,0.9c0,2.6,0,5.3,0,7.9
				c0,0.7-0.2,1-0.9,0.9c-0.7-0.1-1.4-0.1-2,0c-0.7,0.1-0.8-0.2-0.8-0.8C99.6,89.1,99.6,85.6,99.6,82.2z"/>
			<path fill="#006AFB" d="M175.9,93.8c-5.8,0-10.2-3.8-10.9-9.6c-0.5-4.2,0.4-7.9,3.5-10.9c3.9-3.7,10.8-3.7,14.4-0.1
				c1.5,1.5,2.4,3.4,2.9,5.5c0.1,0.4,0,0.6-0.4,0.7c-0.8,0.2-1.7,0.4-2.5,0.7c-0.5,0.1-0.6,0-0.8-0.5c-0.4-1.3-0.9-2.5-1.7-3.6
				c-1.9-2.4-5.4-2.6-7.8-1.3c-2.4,1.3-3.5,3.6-3.8,6.2c-0.2,2,0,3.9,0.9,5.8c2.2,4.6,8.3,4.8,10.8,2.1c0.8-0.9,1.3-1.9,1.7-3
				c0.1-0.5,0.3-0.7,0.9-0.5c0.8,0.2,1.6,0.3,2.4,0.4c0.6,0.1,0.6,0.3,0.5,0.8c-1.3,4.5-4.8,7.3-9.5,7.4
				C176.2,93.8,176.1,93.8,175.9,93.8z"/>
			<path fill="#006AFB" d="M147.4,82.1c0-3.4,0-6.8,0-10.2c0-1,0-1,0.9-1c4.5,0,9,0,13.4,0c0.7,0,1,0.2,1,0.9c-0.1,0.5,0,1.1,0,1.7
				c0,0.6-0.2,0.8-0.8,0.8c-3.3,0-6.5,0-9.8,0c-1,0-1,0-1,1c0,1.5,0,3.1,0,4.6c0,1,0,1,1,1c2.5,0,4.9,0,7.4,0c1.1,0,1.1,0,1.1,1.1
				c0,0.5,0,0.9,0,1.4c0.1,0.7-0.2,0.9-0.9,0.9c-2.6,0-5.2,0-7.7,0c-0.7,0-0.9,0.2-0.9,0.9c0,2.5,0,4.9,0,7.4c0,0.7-0.2,1-0.9,0.9
				c-0.7-0.1-1.4,0-2.1,0c-0.6,0-0.8-0.2-0.8-0.8c0-2.8,0-5.6,0-8.4C147.4,83.5,147.4,82.8,147.4,82.1z"/>
		</g>
		<g>
			<path fill="#006AFB" d="M108.9,122.1c-2.5,0-4.6-0.4-6.5-1.6c-2.7-1.7-3.4-4.8-2.5-7.7c0.1-0.3,0.3-0.4,0.6-0.3
				c0.9,0.2,1.7,0.5,2.6,0.7c0.3,0.1,0.4,0.3,0.3,0.6c-0.1,0.5-0.2,0.9-0.1,1.4c0.1,1.5,1,2.6,2.4,3.2c1.9,0.8,3.9,0.8,5.9,0.2
				c1.1-0.4,2-1.1,2.2-2.3c0.3-1.5-0.3-2.5-1.7-3.2c-1.4-0.7-3-0.8-4.5-1.1c-1.7-0.4-3.3-0.8-4.8-1.7c-3.3-2.1-3.2-7.2-0.1-9.5
				c3.1-2.4,8.8-2.4,11.8,0c1.7,1.3,2.5,3.2,2.7,5.3c0,0.4,0,0.6-0.5,0.7c-0.9,0.1-1.7,0.2-2.6,0.4c-0.4,0.1-0.6-0.1-0.6-0.5
				c-0.1-0.4-0.2-0.8-0.3-1.3c-0.7-1.9-2.1-2.9-4-3.1c-1-0.1-2-0.1-3,0.3c-1.2,0.5-2,1.2-2.1,2.6c-0.1,1.4,0.6,2.3,1.8,2.8
				c1.4,0.7,3,0.8,4.5,1.2c1.6,0.3,3.2,0.7,4.6,1.5c1.9,1.1,2.8,3.2,2.6,5.3c-0.3,3.4-2.9,5.4-5.7,6
				C110.7,122,109.7,122.1,108.9,122.1z"/>
			<path fill="#006AFB" d="M125.2,110.2c0.5-0.5,0.9-0.9,1.2-1.3c2.8-3,5.5-6,8.3-9.1c0.4-0.4,0.8-0.6,1.4-0.6c0.9,0,1.9,0,2.8,0
				c0.2,0,0.5-0.1,0.6,0.2c0.1,0.2-0.2,0.4-0.3,0.5c-2.6,2.8-5.2,5.7-7.8,8.5c-0.5,0.5-0.5,0.8-0.1,1.4c1.2,1.7,2.4,3.4,3.6,5.1
				c0.5,0.7,1.1,1.4,1.7,2c0.8,0.8,1.8,1.4,3,1.3c0.4,0,0.6,0.2,0.6,0.6c0,0.6,0,1.2,0,1.9c0,0.9-0.1,1.1-1,1c-1.9,0-3.6-0.6-5-1.9
				c-1.3-1.2-2.3-2.5-3.3-3.9c-0.9-1.3-1.8-2.5-2.6-3.8c-0.3-0.5-0.5-0.5-0.8-0.1c-0.6,0.7-1.3,1.4-1.9,2c-0.3,0.3-0.4,0.6-0.4,1
				c0,1.9,0,3.9,0,5.8c0,0.6-0.2,0.8-0.8,0.8c-0.7,0-1.4-0.1-2,0c-0.7,0.1-0.9-0.2-0.9-0.9c0-1.7,0-3.5,0-5.2c0-5.1,0-10.1,0-15.2
				c0-1.1,0-1.1,1.2-1.1c0.5,0,1,0,1.5,0c1,0,1,0,1,1c0,3,0,6,0,9C125.2,109.5,125.2,109.8,125.2,110.2z"/>
			<path fill="#006AFB" d="M150.2,108.9c0.2-0.2,0.3-0.4,0.5-0.6c1.7-2.8,3.5-5.5,5.2-8.3c0.3-0.5,0.6-0.7,1.2-0.7
				c0.9,0,1.7,0,2.6,0c0.3,0,0.6-0.1,0.7,0.2c0.1,0.3-0.2,0.5-0.3,0.7c-2.5,3.9-5,7.7-7.5,11.6c-0.4,0.5-0.5,1.1-0.5,1.7
				c0,2.5,0,4.9,0,7.4c0,0.6-0.2,0.9-0.8,0.8c-0.7,0-1.4-0.1-2.1,0c-0.7,0.1-0.8-0.2-0.8-0.8c0-2.5,0-5,0-7.5c0-0.5-0.1-1-0.4-1.4
				c-2.5-3.9-5-7.9-7.6-11.9c-0.1-0.2-0.4-0.4-0.3-0.6c0.1-0.3,0.5-0.2,0.7-0.2c0.9,0,1.7,0,2.6,0c0.5,0,0.9,0.2,1.2,0.6
				c1.7,2.8,3.4,5.6,5.1,8.3C149.8,108.5,149.9,108.7,150.2,108.9z"/>
		</g>
	</g>
</g>
</svg>
