<?xml version="1.0" encoding="UTF-8"?><svg xmlns="http://www.w3.org/2000/svg" version="1.2" baseProfile="tiny-ps" viewBox="0 0 761.44207 761.43413"><title>Payment Labs</title><defs></defs><path d="M434.87485,513.95815l99.609,57.50065L563.83656,520.623,405.5221,429.23282,247.22351,520.623l29.35275,50.83579,99.59309-57.49867v203.243C212.33341,702.30959,83.5145,564.32786,83.5145,396.67507a316.34085,316.34085,0,0,1,9.96209-78.3768L40.9788,287.01082A379.3729,379.3729,0,0,0,24.809,396.67507c0,209.9277,170.78541,380.721,380.7131,380.721,10.01564,0,19.91029-.50871,29.73354-1.27228Z" transform="translate(-24.809 -15.96197)" fill="#226cff"></path><path d="M285.54869,361.76811,182.7268,421.64871l29.54314,50.72472,157.94953-91.98517-.66639-182.78037-58.7055.20627.40261,111.01091L142.56311,211.43938c58.35446-82.58931,154.36572-136.77191,262.959-136.77191,87.17172,0,166.18813,34.96845,224.17965,91.46257L682.497,135.867C613.01828,62.13107,514.5874,15.962,405.5221,15.962c-150.78984,0-281.37784,88.11874-342.99085,215.56223Z" transform="translate(-24.809 -15.96197)" fill="#226cff"></path><path d="M719.83452,182.13027,499.81979,308.81912l.472-111.0129-58.7055-.25386-.76159,182.7883,157.9178,92.06451,29.57488-50.70886-102.81-59.92523,172.27882-99.46516a319.556,319.556,0,0,1,29.75933,134.36915c0,146.88473-98.90092,270.9715-233.58443,309.48112v60.7592C661.367,726.92425,786.25107,576.15325,786.25107,396.67507A378.48011,378.48011,0,0,0,719.83452,182.13027Z" transform="translate(-24.809 -15.96197)" fill="#226cff"></path></svg>