<svg xmlns="http://www.w3.org/2000/svg" xml:space="preserve" baseProfile="tiny-ps" version="1.2" viewBox="0 0 628 628"><title>Kalustyan</title><path d="m464 306-9-5h-6l-9 3h-36l-25-1h-4l-7-7-1-1-1 2c-1 2 1 4-1 6-6 2-12 1-17 1l-9-1c-16 1-32-1-48-1h-27c-2 0-5 0-4-4l4-5 7 1c11 0 21 2 32 1h4l13 2h10c6-1 11-2 17-5h8l45 1h4l6 2h11l43 1h11l5 9c1 2-1 2-2 2-5 1-10 0-14-1z" fill="#F5B531"/><path d="m244 193-4-1a13 13 0 0 0-6 0h-22l-31-1c-2 0-4 1-5-1-2-2-4-3-4-6 0-2 2-1 4-1l16-1c5 3 10 3 16 2l59 1h11l3 3c1 3 2 2 3-1l4-1 50 1 23 1h25c1 0 2 0 3 2l-11 11-5 1h-17c-8-6-16-9-26-11h-10l-17 4c-19-2-39-2-59-2z" fill="#EC7831"/><path d="M422 246c5-2 9-5 13-9l18 1c2 0 4 0 5 2l-9 15-5 1-53-1h-9c-2 0-4-1-5-3v-4a165 165 0 0 1 1-10c3-2 6-1 9-1h10l14 8 4 1h7z" fill="#F19832"/><path d="M266 285a659 659 0 0 0-11-1l-11 3-24 1c-2-1-5 0-6-4l8-13 3-2h11l41 1h2l10 14v1c-2 2-4 1-6 1h-11l-2-1h-4z" fill="#F4AA31"/><path d="M260 298c0 2 1 3 2 3h44l38 1 22 1v9l-3 1-23-1-4-1-2 1h-21l-10-1c-1 0-3 0-3-2s-1-2-2-1l-11 4-30-1c-2 0-4 0-4-2l7-11z" fill="#F5B831"/><path d="M240 120c2 7 6 11 14 12h10l5-1h9c9 1 18 5 24 13-4 2-9 1-13 1l-12-1h-42c-6-5-9-12-11-19l-1-2 1-4c6-1 11-2 16 1z" fill="#E85730"/><path d="M242 242c-5-2-10-2-15 0-8-2-16-1-23-1l-5-1c-1 0-2-1-2-3 3-4 6-9 10-12l30 1 33 1h3c2 2 1 3 1 5l-1 6c0 1 0 3-2 3-5 2-10 1-16 1h-13z" fill="#F09131"/><path d="M418 167c5-13 13-22 28-24h8c10 1 18 5 26 10l13 10 2 2c-1 2-3 0-3 0-7-4-15-6-23-7-2-1-4 0-5-2h-7c-4 1-8 1-11 3-5 2-8 5-10 9h-15l-3-1z" fill="#EA5E30"/><path d="M188 329h1l5 1h3c6-1 11-4 15-8 4 2 9 1 13 1 2 0 5 0 6 2-4 10-11 15-21 18l-5 1h-8c-5 0-9-1-12-3-12-6-22-13-32-20l31 8h4z" fill="#F6C62F"/><path d="M405 337c7 3 13 7 16 14l-6 1-57-2-1 1c-5-4-8-8-11-13 0-3 2-2 4-3l15 1a588 588 0 0 1 40 1z" fill="#F8CA2E"/><path d="M378 251c0 2 2 3 3 3h27l41 1c-2 7-7 11-13 13-13-2-26 0-40-1l-17-1c-1 0-3 1-5-1v-4l3-9 1-1z" fill="#F29F32"/><path d="M284 175v-2c2-2 5-2 7-1l22 1c2 0 1 2 3 2l1-2 17 1 12 1c2 0 4-1 5 1v4c5 0 10-3 15-6h9l18 1 5 1-4 8c-5 2-11 1-16 1l-7-1-48-1a4087 4087 0 0 1-38-2l-1-6z" fill="#EB6F31"/><path d="M358 202c1-2 2-1 4-1h16l10 2 4-1h4l4-1 15 1h17l4 2c-1 4-2 8-5 11h-20l-41-1-3-1-8-9-1-2z" fill="#ED8131"/><path d="M355 386v1c-2 2-4 1-6 1h-11c-1-6-5-10-10-13l-18-12-5-4c0-2 2-2 4-2h12l18 1c8 4 12 12 14 20l1 4 1 4z" fill="#F8D62B"/><path d="M274 228h-24l-32-1-9-1-2-1c6-7 14-10 23-11h9c7 0 14 3 21 5 2 0 2 0 1-2 2-2 4-1 6-1h11l1 1c-1 4-2 8-5 11z" fill="#EF8B32"/><path d="m320 135-18-17-4-5c4-2 8-1 12-1l14 1 14 7c6 4 11 8 13 14-1 2-2 2-4 2h-25l-2-1z" fill="#E8522F"/><path d="M458 240c-6-2-11-1-17-1-2 0-4 0-6-2l8-12 3-3 9 1c13-1 26 1 39 1 5 3 9 7 11 13 0 2-2 1-3 1l-8 1c-4-3-8-7-14-9h-7c-7 1-11 5-15 10z" fill="#EF8C32"/><path d="m285 181 31 1h33l26 1 19 1-5 6-45-1-31-1-29-1v-5l1-1z" fill="#EB7231"/><path d="m320 135 2-1 24 1 5-1c3 5 3 10 4 15v7l-3 2-25-1-2-1c2-8 0-15-5-21z" fill="#E95A30"/><path d="m235 144 7-1h43l17 1c3 3 5 8 7 12l-2 1-29-1c-6-4-12-6-19-7h-13c-4-1-8-2-11-5z" fill="#EA5E30"/><path d="M278 270c-5 2-10 1-15 1l-19-1h-17l-2-1c6-7 14-10 22-13l8-2 12 1 6 1c3 4 4 9 5 14z" fill="#F3A332"/><path d="m404 293-2 1-25-1h-23c-2 0-3 1-4-1 0-2 2-2 3-3l11-10c1-1 2-2 4-1h19l6 1 5 8 6 6z" fill="#F4AE31"/><path d="M339 358h-32l-2 1c-6-5-9-12-10-20l4-1h22l1 1c2 6 6 10 11 14l6 5z" fill="#F8CD2E"/><path d="M181 255c4 0 7-3 10-4 6 0 12-1 18 1l4 1-8 9c-2 1-4 2-6 1h-18c-9 0-18-2-27-1-4-3-7-7-9-11 1-2 2-2 4-2h10c5 3 9 6 15 7l7-1z" fill="#F2A032"/><path d="M278 185c-2 3-5 2-7 1h-7l-51-1-5-1 11-9 49 1 10 9z" fill="#EB7231"/><path d="m369 214 3-1 52 1 7 1c-4 4-9 8-14 10h-8l-34-1h-1c-2-3-5-6-5-10z" fill="#EE8731"/><path d="M393 279h-22l-5-1c3-5 4-10 9-14l2 1 17 1c13 0 26-1 39 1l3 1c-3 3-8 4-12 5h-4c-11 2-21-1-31-5l4 11z" fill="#F3A532"/><path d="M375 146c-6-8-10-16-9-26h18l1 2c1 7 3 13 9 17l4 6c-1 2-2 2-4 2l-19-1z" fill="#E85630"/><path d="M475 296c-2 3-5 2-7 1h-7l-41-1-3-1c8-4 16-9 25-11h11c9 0 16 5 22 12z" fill="#F4AF31"/><path d="M405 337c0 2-2 1-3 1l-40-1h-13c-1 0-2-1-3 1-4-5-6-10-8-15 2-2 3-2 5-1h20l5 1c3 7 8 10 15 11h6c2 0 3 2 5 1h4l7 2z" fill="#F6C42F"/><path d="M244 193c0-2 2-1 3-1 16-1 32 1 48 1l9 1v1l-14 9h-35l-11-11z" fill="#EC7A31"/><path d="M375 146h12l11-1c3 7 5 13 3 20l-3 1h-20c-2 0-4 0-4-2l2-7v-6l-1-5z" fill="#EA5F30"/><path d="M278 387c-3 4-6 7-10 9-6 3-13 5-20 5h-11c-7 0-14-1-20-4l1-1c11 1 21-1 30-5l11-7 15 1c1 0 3 0 4 2z" fill="#F8E229"/><path d="M405 87h14l14 3c-1 2-2 0-3 1h-4c-13 2-26 5-37 13l-14-1-3-2c5-9 13-13 23-14h10z" fill="#E5452E"/><path d="m357 351 2-2 17 1 45 1c3 4 4 8 4 14h-15c-3-6-9-10-16-11h-4l-13 2h-4c-6 0-11-1-16-5z" fill="#F8D02D"/><path d="M278 387c-5-2-10-2-15-2-2 0-3 1-4-1l6-12v-8l-1-2 2-2c6 0 12 0 17 2 2 9 0 17-5 25z" fill="#F8D82A"/><path d="M176 190h17c12 0 23 2 35 1l5 1-12 6c-16 7-32 6-44-6l-1-2z" fill="#EC7A31"/><path d="m253 309 4 1h21l9 2c-6 3-11 7-13 14l-10 1-13-1-3-1c0-6 2-12 5-16z" fill="#F6BF30"/><path d="M214 284c3 3 5 2 8 3h22c-4 3-9 6-11 12v9l-5 1c-5 0-10 0-14-2v-23z" fill="#F5B631"/><path d="m436 204-15-1h-17c-1 0-3 0-4-2l10-4c4-3 5-6 6-11l2-1h17l1 1v4l1 4v6l-1 4z" fill="#EC7931"/><path d="m283 362-13-1-6 1c-1-6-5-11-8-15l-2-4 2-2 20 1c4 6 7 12 7 20z" fill="#F8CF2D"/><path d="M300 309c1 2 3 1 4 1l26 1 4 1-9 12h-23l-6-1c0-5 2-10 4-14z" fill="#F6BE30"/><path d="M297 86c2-6 5-10 10-13 8-7 18-12 28-16h4c-9 7-17 15-24 25l-3 6c-4 2-9 1-13 1-1 0-2-1-2-3z" fill="#E53D2E"/><path d="M276 342h-18c-1 0-3-1-4 1-4-5-6-11-6-18 9-1 17 1 26 1l-1 3v5c0 3 2 5 3 8z" fill="#F7C72F"/><path d="m375 224 2-1h24l16 2c-7 4-14 5-21 7l-3 1 2 2 2 2c-2 3-5 2-7 2l-12-1-1-2c-1-4-3-8-2-12z" fill="#EF8D32"/><path d="m154 262 3-1 38 1h10c-5 6-12 9-19 10h-12c-8-1-14-4-20-10z" fill="#F3A532"/><path d="M338 388c2-2 4-2 6-1h11c-1 11-4 20-12 28h-10c-2-1-3-1-3-3l4-4 5-10a21 21 0 0 0-1-10z" fill="#F8E429"/><path d="m375 303 4-1 51 1 10 1-8 6h-41l-8-1c-3-2-6-3-8-6z" fill="#F5B631"/><path d="m494 224-2 1h-13l-25-1h-4c-2 0-4 0-4-2 5-4 10-7 17-7l4-1h3l5 1c7 1 14 4 19 9z" fill="#EE8731"/><path d="M368 323h-30l-2-12c10 0 20-1 30 1v2l2 9z" fill="#F6BD30"/><path d="M255 204c2-3 6-2 8-2l22 1 4 1c0 3-4 5-6 8l-4 5h-17c-1-5-4-9-7-13z" fill="#EE8431"/><path d="M436 186h-20c0-7-1-13 2-19l13 1h5v18z" fill="#EB6A31"/><path d="M325 156h30c-1 4 0 8-2 12h-30c-1 0-2 0-2-2l4-10z" fill="#EA6330"/><path d="M383 309h43a19 19 0 0 1 6 1c-12 11-25 11-39 5-4-1-7-3-10-6z" fill="#F6BC30"/><path d="M272 286c4-2 9 0 13-1 2 0 3 1 4-1l4 2 13 8 2 2h-4c-13 1-25-1-37-1-2 0-3 0-3-2 1-3 5-5 8-7z" fill="#F5B231"/><path d="m372 101 4 1c5 0 9 0 13 2-3 4-5 9-5 14v2h-18c-1-8 1-14 6-19z" fill="#E64B2E"/><path d="m268 176-4 2-11-1-29-1-5-1c6-5 13-7 20-8h7c8 2 16 4 22 9z" fill="#EB6B31"/><path d="m213 253-20-1-2-1 6-14c1 3 2 3 4 3h18c3 0 6-1 8 2-7 1-11 5-14 11zm60 3h-16c-1 0-2 0-2-2 1 0 3 0 1-2l-14-10c1-2 4-2 6-2l24 1c2 3 0 6 1 9v6z" fill="#F19B32"/><path d="m374 164 5 1h22c0 4-1 8-3 11h-5c-9 0-17-2-25-1l-2-1 8-10z" fill="#EA6730"/><path d="m214 307 19 1 1 3v6l-3 8c-5-2-10-1-14-1-2 0-4 0-5-2l2-4v-11z" fill="#F6BF30"/><path d="m321 166 9 2h23l-2 8-31-1c-1 0-3 0-3-2l4-7z" fill="#EA6930"/><path d="m240 120-16-1v-7c0-5 2-9 5-14l6 2c2 0 4-1 5 1v19z" fill="#E74C2E"/><path d="M410 365h15v10l-1 8c-5 2-9 2-13 0v-12l-1-6z" fill="#F8D72B"/><path d="M297 86c1 2 3 2 4 2h11l-1 5v5l2 5-5 2-12-2c-2 0-1-2-2-2l1-3v-5l2-7z" fill="#E6492E"/><path d="M295 103c4-1 8 1 12 1l6-1 11 10c-3 2-7 1-10 1l-16-1c-2-2-3-5-3-9v-1z" fill="#E64A2E"/><path d="M411 383h13c-2 7-7 12-11 18-3 4-5 8-9 11 3-9 6-19 7-29z" fill="#F8DE2A"/><path d="M296 323h27l2 1c0 3-2 5-3 7s-2 2-4 2l-18-1c-2 0-3 0-4-2v-7z" fill="#F6C42F"/><path d="m296 330 3 1h23v8h-27v-9h1z" fill="#F7C52F"/><path d="M278 156h31c2 2 2 4 2 6s-2 2-4 2l-23-1h-2l-4-7z" fill="#EA5F30"/><path d="M240 101h-8c-2 0-3-1-3-3 3-7 8-12 12-18l4-5c1-1 1-2 2-1v2l-7 22v3z" fill="#E5462E"/><path d="M464 306h13c1 0 2 1 3-1 2 3 2 7 3 10v5c-4 2-8 0-11 1l-8-15z" fill="#F6B931"/><path d="M330 412c1 2 3 2 4 2 3 0 6-1 9 1-5 5-11 8-17 10l-13 5c-1 0-2 1-2-1 7-5 14-10 19-17z" fill="#F9EA2A"/><path d="M472 321c3-3 7-1 11-1v6l-1 5-3 19-7-29z" fill="#F6C32F"/><path d="M192 182c-1 2-2 2-3 2h-17c-3-3-4-7-5-11 5-2 10-1 14 0 3 4 6 7 11 9z" fill="#EB7131"/><path d="M159 249c-3 2-6 0-10 1-1 0-3-1-4 1-4-8-6-16-8-24 7 8 14 16 22 22z" fill="#F19932"/><path d="M314 173h-30v-4l2-2c9-1 17-1 26 1h1l1 5c1 0 1 0 0 0z" fill="#EA6730"/><path d="M494 239c1-2 2-2 3-2h8c5 7 7 15 8 24-5-8-11-16-19-22z" fill="#F09532"/><path d="M313 168h-26c-1-1-3-1-3 1l-2-6 4-1 20 1 5-1c2 2 2 4 2 6z" fill="#EA6730"/><path d="m167 156 4-20 4 25c-2 3-5 2-7 1-2-2 0-4-1-6z" fill="#EA6030"/><path d="m167 162 8-1 6 12h-14v-11z" fill="#EB6931"/><path d="M366 314v-17 17z" fill="#F9D286"/><path d="M426 91c2-2 5 0 7-1l4 1h-11z" fill="#EB7656"/><path d="M214 289v12c0 1 0 1 0 0v-12z" fill="#F8C568"/><path d="M246 149h13-13z" fill="#FAD2BD"/><path d="M237 401h11-11z" fill="#FDF7CF"/><path d="M224 112v7l-1 4c0-4-1-7 1-11z" fill="#F29E7D"/><path d="M167 162v3c0 1 0 1 0 0v-9 6z" fill="#F4A67E"/><path d="M425 375v-10 10z" fill="#FADF6C"/><path d="M405 87h-10c3-2 7-2 10 0z" fill="#EB7556"/><path d="M264 132h-10 10z" fill="#F08F69"/><path d="M239 214h-9 9z" fill="#F4A96C"/><path d="M278 131h-9 9z" fill="#F4AA89"/><path d="M483 323v-8 8z" fill="#FDEDCB"/><path d="M411 371v8-8z" fill="#FAE275"/><path d="M197 344h8-8z" fill="#FCE9B1"/><path d="M453 284h-8c3-1 6-2 8 0z" fill="#F7C26F"/><path d="M454 143h-8 8z" fill="#F5B192"/><path d="m181 255-7 1c2-2 5-1 7-1z" fill="#FCDBB3"/><path d="M339 390v8-8z" fill="#FBEC8D"/><path d="M265 364v8-8z" fill="#FCEDB0"/><path d="M389 334h-6 6z" fill="#FCE8B6"/><path d="M214 311c1 2 2 4 0 6v-6z" fill="#F9D37D"/><path d="m285 181-1 1v-7c2 2 1 4 1 6z" fill="#F08F5B"/><path d="M246 167h-7 7z" fill="#FAD5BF"/><path d="M422 246h-7 7z" fill="#F8C38A"/><path d="M457 156h7-7z" fill="#EE8256"/><path d="M449 301h6-6z" fill="#FBDAA0"/><path d="m480 353-1 1-1-1 1-1 1 1z" fill="#FCEAB2"/><path d="M255 284h6-6z" fill="#F7BF65"/><path d="M234 192h6-6z" fill="#F5AE7E"/><path d="M416 295h-6 6z" fill="#F9CD80"/><path d="M234 317v-6 6z" fill="#FDEAC4"/><path d="M376 151v6-6z" fill="#F39C75"/><path d="m218 396-1 1c-1 0-2 0-1-1h2z" fill="#FCF5C1"/><path d="M273 334v-5 5z" fill="#F8D265"/><path d="M473 230h5-5z" fill="#FDDEC1"/><path d="M311 98v-5 5z" fill="#EF8A6B"/><path d="M233 306v-5 5z" fill="#F8C865"/><path d="M411 87h-4 4z" fill="#F9CFBD"/><path d="M419 87h-4 4z" fill="#F5B7A0"/><path d="M390 354h4-4z" fill="#FAD866"/><path d="M398 335h-4 4z" fill="#FCE7B2"/><path d="m475 215-5-1c2 0 3-1 5 1z" fill="#F4A86C"/><path d="m467 214-4 1c1-2 3-1 4-1z" fill="#F3A568"/><path d="M295 93v5-5z" fill="#F4AD92"/><path d="m194 330-5-1h5v1z" fill="#F9DA86"/><path d="M392 203h-4l4-1v1z" fill="#FBD7BD"/><path d="M437 200v-5 5z" fill="#FBDCC4"/><path d="M266 285h4-4z" fill="#F9CC82"/><path d="M214 301v5-5z" fill="#FADA9B"/><path d="M482 331v-5 5z" fill="#F9D47B"/><path d="M436 186v-5 5z" fill="#F3A172"/><path d="M534 494v-2 2z" fill="#ADAEB1"/><path d="M296 330a3 3 0 0 0-1 0l1-4v4z" fill="#FADB8E"/><path d="M534 491v-2 2z" fill="#ADAEB1"/><path d="M174 272a627 627 0 0 0 4 1l-4-1z" fill="#FAD6A0"/><path d="M178 273v-1h4v1h-4z" fill="#F7BE6A"/><path d="M534 489v-2 2z" fill="#7B7C7F"/><path d="M355 153v-4 4z" fill="#FAD2BC"/><path d="M384 120v-2l1 4-1-2z" fill="#F7C3AA"/><path d="M420 273h4-4z" fill="#F9CC8D"/><path d="M194 330v-1l3 1h-3z" fill="#FDEEC8"/><path d="M295 103v1-3 2z" fill="#F5B398"/><path d="M392 203v-1h4l-4 1z" fill="#F5AC7A"/><path d="M182 273v-1h4l-4 1z" fill="#FBDBAD"/><path d="M167 165v4-4z" fill="#FAD1B8"/><path d="M373 356h4-4z" fill="#FDF3D0"/><path d="M188 329h-4 4z" fill="#FAE19C"/><path d="m273 256-1-6v-12l2-10 5-11 10-13 15-10 16-4h10c6 2 13 3 19 6l9 6c4 4 8 7 11 12l6 10 3 13v14l-3 13c-3 5-5 10-9 14-4 6-10 10-16 14a58 58 0 0 1-30 6l-12-2c-7-3-13-7-19-12l-11-14-5-14z" fill="#FFF"/><path d="M320 298h10-10z" fill="#F9CD7C"/><path d="M330 190h-10 10z" fill="#F3A370"/><path d="M378 240v-3 3z" fill="#FBD4AC"/><path d="M378 251v-3 3z" fill="#FBD7AE"/><path d="M272 238v12-12z" fill="#F9C891"/><path d="M319 293c-12-1-21-6-29-14 1-2 3-2 5-2l52 2h7c2 0 3 0 4 2-8 7-17 11-27 12l-4 1h-4l-4-1z" fill="#F4AD31"/><path d="M369 267c-2 3-4 7-7 9l-19-1c-15 1-31-1-47-1-3 1-6-1-10 1l-6-10c1-2 3-2 5-1h13l66 2 5 1z" fill="#F3A632"/><path d="m369 267-51-1-28-1h-10l-2-7 4-1 52 1h20l14 1 3 1-2 7z" fill="#F2A032"/><path d="M374 237v7l-5 1-54-1h-22l-11-2c-2-1-1-4-1-6l1-1 7-1 13 1 45 1h19l4 2 4-1z" fill="#F09431"/><path d="m277 254-1-7c2-2 4-1 5-1l75 2h12l5 1 1 1c-1 2 0 4-2 6h-18l-8-1c-16 1-32 0-48-1h-21z" fill="#F19A32"/><path d="m374 249-48-1h-28l-22-1v-1a8 8 0 0 1 0-4c0-4 0-8 2-12l4 1v3l-1 8 34 1h27l32 1v5z" fill="#F19832"/><path d="m277 254 5-1 39 1h29l20 1 2 1-1 4-36-1h-30l-27-1c0-1-2-2-1-4z" fill="#F29F32"/><path d="M286 275c0-2 2-3 3-2l35 1h24l12 1 2 1-4 5-2-1-21-1c-13 1-26-1-39-1l-6 1-4-4z" fill="#F3A831"/><path d="M331 195c12 1 21 6 29 14l-2 1h-2c-7-7-17-11-27-13h-7c-7 1-14 3-20 7-4 1-6 4-9 6-2 0-2-1-2-2 8-8 17-12 27-13l5-1h5l3 1z" fill="#EC7C33"/><path d="m291 208 2 1v2c-5 5-8 12-11 18l-1 2-3-1c1-8 6-15 12-21l1-1z" fill="#EE8835"/><path d="M357 209h3c5 5 8 11 11 17l-4 1-2-3c-1-4-4-8-7-12l-1-3z" fill="#EE8734"/><path d="M367 226h4l3 11-4 1-2-2c0-4-2-6-1-10z" fill="#F09132"/><path d="M374 249v-11 12-1z" fill="#FACE9F"/><path d="M276 242v4-4z" fill="#FDE6CD"/><path d="m100 510 1 3h2l1 1 2-1 3-2 5-4c4-4 6-9 7-14l4-16 6-21 4-14v-4l-3-4 7-6 4-4h3l5 3 1 1-6 12-6 23-9 27c-1 5-4 9-8 12l-9 7-10 8-5 4-3 1h-2c-3-1-5-2-5-5l-1-2 1-10v-2l7-3c1-1 4 0 4 1v9zm74-62-3-2h-1l-7 7-3 3-7 8-7 7v1l11 12 9 9 5 5c4 3 7 2 11 0l7-7h2l-6 7a27 27 0 0 1-19 7c-5 1-9-2-12-6l-5-7-6-6a132 132 0 0 0-3-4c-1-1-2-3-1-5l2-3 10-11 7-9 7-8 4-5 2-3 3-6 4-7 3-1 9 2c2 1 2 1 1 2l-2 3-7 8-2 3 2 2c-1 2-3 3-5 3l-1 1a4 4 0 0 0-2 0zm234 39c-2 0-3 2-5 3v1l-9 10-2 1-1 1-1-2v-4l-1-6c-2-4-3-7-7-8l-1-1 8-4h3c3 0 4 1 6 3l2 8v1c1 1 1 0 2-1l8-10 2-1c4-1 8-1 11 2 2 1 3 2 3 5v1c0 4-2 6-4 8l-9 13-9 11-6 8-9 13-12 15-5 6-1 1v-5l4-6 5-7 7-8 6-8 7-9 8-10 6-8 2-4v-2l-2-5-4-2h-2zm-160 8 1-8 1-7 1-8 1-6 1-6 1-6v-6l1-4v-4c0-2 0-4-2-6v-1l11-4h2l-1 7-1 5-1 7v4l-1 7-1 4v7l-1 5-1 6v5l-1 7-1 4v1l-7 5h-1l-1-3v-5zm61 9c-5 0-8-2-10-6l-1-4-1-1-6 5c-2 2-3 4-6 5h-7l-6-3c-3-4-4-9-5-14a246 246 0 0 1-1-6l10-2h3v2l1 10 4 5 4 1 7-4c5-3 8-8 11-12v-1l3 9c2 4 5 7 9 9l1 1-9 6h-1zm185-2v-3l-1-1-1-5c0-2-1-5-4-7l-2-1h-4l4-3 3-2c1-2 3-2 5-2 2-1 3 0 5 1l4 7 2 3v1l7-5 6-5h8c5 0 8 3 9 9v5l1 1v6l-1 1-8 4-1-1-3-14c-2-3-4-5-7-5l-7 2-6 6-9 8c-1 0 0 0 0 0zm-267-9-13 7-4 3-7 2h-5c-3 0-5-2-6-4l1-1 7-6 6-6 9-6c2-2 3-4 6-5 2-1 4-2 6-1l4 1 3 3 4 5a1199 1199 0 0 0 8 10l-7 6-1 2-8-10h-3zm205 12c-2 0-4-2-5-4v-1l7-6 5-4 9-7 7-6c2-1 4-2 7-1l3 1 3 2 5 6a1448 1448 0 0 0 8 10l-9 7-8-9h-2l-13 7-8 4-6 1h-3zm-68-13c1 3 2 4 6 4l-1 1-4 5-2 1h-3l-3-1c-2 0-3-2-3-5v-6l1-5v-2h-6v-1l7-5 1-2 1-9h9l1 1-1 3-1 5 1 3h8l5-1h1v1l-4 5v1h-12l-1 4v3zm-19-16v3l-1 3h-1l-5-2h-4l-2 3v2c0 1 1 2 3 2l1 1h9c2 0 3 1 4 3v1c-1 6-5 8-9 10l-8 1h-5l-2 1h-2l-2-1-1-2v-1c1-2 3-3 5-2l7 3 2 1h2l4-4v-1c-1-1-1-3-3-3l-2-1h-9c-2 0-3 0-3-2v-1a3 3 0 0 1 0-2l1-4 5-4 9-4h7z"/><path d="M556 451c0-4-4-7-8-7h-5c-3 2-5 4-5 6-1 3-1 6 1 9 2 2 4 3 7 3h3c2 0 4-1 5-3 2-2 3-5 2-8zm-11 1v-3l5 1c0 3-5 2-5 2z" fill="#040707"/><path d="M365 485h12-12z" fill="#626365"/><path d="M100 510v-9 9z" fill="#939598"/><path d="M345 488h-9l1-1h7l1 1z" fill="#C7C8CA"/><path d="M345 476h-5 5z" fill="#646567"/><path d="M364 492v-3 3z" fill="#C6C7C9"/><path d="M360 503h3-3z" fill="#949699"/><path d="M198 505h3-3z" fill="#646567"/><path d="M432 505a5 5 0 0 1 3 0h-3z" fill="#636466"/><path d="M526 480h-3 3z" fill="#95979A"/><path d="M323 504h2-2z" fill="#C7C8CA"/><path d="M227 493h3-3z" fill="#C0C2C4"/><path d="M462 493h2-2z" fill="#BEBFC1"/><path d="M408 487h2-2z" fill="#BCBDC0"/><path d="M278 503h2-2z" fill="#646567"/><path d="M249 503h1-1z" fill="#96989B"/><path d="M426 486v-1 1z" fill="#939598"/><path d="M484 485h2-2z" fill="#5F6062"/><path d="M416 494v2-2z" fill="#909295"/><path d="m279 479-1-1c1-1 1-1 1 1z" fill="#9FA1A4"/><path d="M248 495v2-2z" fill="#666769"/><path d="M354 496v1-1z" fill="#6A6B6D"/><path d="M248 497v2-2z" fill="#95979A"/><path d="M336 502h-2 2z" fill="#919396"/><path d="M332 485v-2 2z" fill="#5A5B5D"/><path d="M309 504h1-1z" fill="#CACBCD"/><path d="M392 478h-1 1z" fill="#7B7C7F"/><path d="M546 462h2-2z" fill="#3D3B3A"/><path d="M280 503h1-1z" fill="#8F9093"/><path d="M343 482h1-1z" fill="#939598"/><path d="M320 500v1-1z" fill="#A9ABAE"/><path d="M248 499v1-1z" fill="#C9CACC"/><path d="M323 488v2-2z" fill="#9B9DA0"/><path d="M191 491z" fill="#C7C8CA"/><path d="M371 556v1-1z" fill="#717274"/><path d="M349 492v-1 1z" fill="#C9CACC"/><path d="M390 497v1-1z" fill="#7B7C7F"/><path d="M340 497v1-1z" fill="#8F9093"/><path d="M494 502z" fill="#989A9D"/><path d="M523 480h-1 1z" fill="#C7C8CA"/><path d="M327 503h2-2z" fill="#626365"/><path d="M279 479v1-1z" fill="#5F6062"/><path d="M166 505h1-1z" fill="#CCCDCF"/><path d="M220 484c3 1 5 2 5 5v2l-4 3-8 4c-3 0-6-1-7-4l1-2c2-5 6-7 11-8a7 7 0 0 1 2 0z" fill="#FFF"/><path d="M220 484h-2 2z" fill="#8A8C8F"/><path d="M225 491v-2 2z" fill="#88898C"/><path d="m460 491-4 3-9 4c-2 0-6-1-6-4-1-1 0-2 1-3a15 15 0 0 1 13-7l4 3 1 2v2z" fill="#FFF"/><path d="M455 484h-3 3z" fill="#8C8E90"/><path d="M460 491v-2 2z" fill="#7F8183"/><path d="m553 447-5-2a4 4 0 0 0-2 0c-4 0-7 4-7 7v3c2 6 8 8 12 5 5-3 6-9 2-13zm-8 2 5 1c0 3-5 2-5 2v-3z" fill="#FFF"/><path d="M551 451v-1c0-2-2-2-3-2h-5v10h2v-3l1-1h2l1 2 1 2h1c0-2 0-4-2-5 1 0 2 0 2-2zm-6 1v-3l5 1c0 3-5 2-5 2z" fill="#040707"/><path d="M550 458h1-1z" fill="#3D3B3A"/><path d="M543 458h2-2z" fill="#363433"/><path d="m367 226 2 10-1 1c-2-1-2-3-2-5l-3-7-4-6-6-6c-6-6-14-9-23-11h-10c-9 1-16 4-23 10l-5 5-5 8-3 6-2 4v2c-2-1-1-2-1-3v-3c2-8 6-15 12-22 7-6 15-11 24-12l5-1h7c5 1 11 2 15 5l13 8c5 6 8 11 10 17z" fill="#FFF"/><path d="m282 235 2-5h23l49 1 11 1 1 5-45-1h-29l-12-1z" fill="#EF9131"/><path d="m281 234 1 3-1 5v-8z" fill="#F8C289"/><path d="m368 237 1-1 1 2c-1 0 0 2-1 0l-1-1z" fill="#FEFCF9"/><path d="M329 196h-7 7z" fill="#F39D65"/><path d="M367 232h-8c-17 1-34-1-52-1l-23-1 2-6 5-1 47 1h20l6 1 3 7z" fill="#EF8E31"/><path d="M297 212c6-6 14-10 22-11h12c8 2 16 5 23 12 0 3-2 2-4 2h-19l-29-1c-2 0-5 1-5-2z" fill="#ED8131"/><path d="M364 225h-42l-36-1 5-7 9 1c15-1 31 1 47 1h13c2 1 2 4 4 6z" fill="#EF8932"/><path d="M360 219c-2 3-5 2-7 1h-25l-33-1c-1 0-3 0-4-2l6-5 4 1 50 1c1 0 2 0 3-2l6 7z" fill="#EE8831"/><path d="M331 201h-12 12z" fill="#F8C49D"/></svg>