<?xml version="1.0" encoding="UTF-8" standalone="yes"?>
<svg width="180" height="180" viewBox="0 0 180 180" fill="none" version="1.2" baseProfile="tiny-ps" xmlns="http://www.w3.org/2000/svg">
  <title>GoFundMe</title>
  <g>
    <rect width="180" height="180" fill="#02A95C"/>
    <path fill-rule="evenodd" d="M89.9766 95.1473C108.257 95.1473 124.205 104.744 132.746 119H47.209C55.7501 104.744 71.6979 95.1473 89.9766 95.1473ZM139.104 72.2739C142.273 69.2134 147.456 69.2134 150.623 72.2739C153.792 75.3328 153.792 80.3392 150.623 83.3997L138.346 95.2575C135.179 98.3165 129.996 98.3165 126.827 95.2575L126.548 94.9741C123.663 91.8954 123.756 87.098 126.827 84.1318L139.104 72.2739ZM29.6688 72.0041C32.8563 69.2162 37.8233 69.3062 40.8944 72.2739L53.1731 84.1318C56.3402 87.1907 56.3402 92.197 53.1731 95.2575C50.0044 98.3165 44.8211 98.3165 41.654 95.2575L29.3753 83.3997C26.2082 80.3392 26.2082 75.3328 29.3753 72.2739L29.6688 72.0041ZM89.8739 51L90.2259 51.0073C94.545 51.1869 98.0189 54.6546 98.0189 58.8685V75.6367C98.0189 79.9645 94.3547 83.5052 89.8739 83.5052C85.3947 83.5052 81.7288 79.9645 81.7288 75.6367V58.8685C81.7288 54.5407 85.3947 51 89.8739 51Z" fill="white"/>
  </g>
  <defs/>
</svg>
